0, 0, Header, 1, 18, 240
1, 0, Start_track
1, 0, Sequencer_specific, 10, 0, 0, 91, 35, 1, 0, 5, 6, 42, 0
1, 0, Title_t, "Ludwig van Beethoven - Symphony No. 8 in F Major, Op.93"
1, 0, Instrument_name_t, "Conductor Track"
1, 0, SMPTE_offset, 96, 0, 3, 0, 0
1, 0, MIDI_port, 0
1, 0, Marker_t, "Originally Sequenced 20 May 1998"
1, 0, Key_signature, -1, "major"
1, 0, Tempo, 178571
1, 0, Time_signature, 4, 2, 24, 8
1, 268800, Tempo, 600000
1, 269280, Tempo, 178571
1, 270720, Tempo, 600000
1, 271200, Tempo, 178571
1, 364800, Key_signature, 2, "major"
1, 376320, Key_signature, -1, "major"
1, 420480, Tempo, 600000
1, 420960, Tempo, 178571
1, 482880, Tempo, 178571
1, 482880, End_track
2, 0, Start_track
2, 0, Title_t, "4th Movement - Allegro vivace"
2, 0, MIDI_port, 0
2, 0, End_track
3, 0, Start_track
3, 0, Title_t, "Sequenced by D. L. Viens 6 Nov 2000"
3, 0, MIDI_port, 0
3, 0, End_track
4, 0, Start_track
4, 0, Title_t, "dlviens@empire.net"
4, 0, MIDI_port, 0
4, 0, End_track
5, 0, Start_track
5, 0, MIDI_port, 0
5, 0, End_track
6, 0, Start_track
6, 0, Title_t, "Flute"
6, 0, MIDI_port, 0
6, 0, Program_c, 0, 73
6, 0, Control_c, 0, 7, 80
6, 0, Control_c, 0, 10, 60
6, 0, Control_c, 0, 11, 127
6, 1920, Note_on_c, 0, 81, 44
6, 2039, Note_on_c, 0, 81, 0
6, 2040, Note_on_c, 0, 82, 44
6, 2139, Note_on_c, 0, 82, 0
6, 2160, Note_on_c, 0, 79, 44
6, 2319, Note_on_c, 0, 79, 0
6, 3840, Note_on_c, 0, 82, 44
6, 3959, Note_on_c, 0, 82, 0
6, 3960, Note_on_c, 0, 84, 44
6, 4059, Note_on_c, 0, 84, 0
6, 4080, Note_on_c, 0, 81, 44
6, 4239, Note_on_c, 0, 81, 0
6, 16800, Note_on_c, 0, 85, 84
6, 17739, Note_on_c, 0, 85, 0
6, 17760, Note_on_c, 0, 84, 84
6, 17760, Note_on_c, 0, 89, 84
6, 17904, Note_on_c, 0, 84, 0
6, 17904, Note_on_c, 0, 89, 0
6, 17920, Note_on_c, 0, 89, 84
6, 17920, Note_on_c, 0, 84, 84
6, 18064, Note_on_c, 0, 89, 0
6, 18064, Note_on_c, 0, 84, 0
6, 18080, Note_on_c, 0, 84, 84
6, 18080, Note_on_c, 0, 89, 84
6, 18224, Note_on_c, 0, 84, 0
6, 18224, Note_on_c, 0, 89, 0
6, 18240, Note_on_c, 0, 84, 84
6, 18240, Note_on_c, 0, 89, 84
6, 18359, Note_on_c, 0, 89, 0
6, 18360, Note_on_c, 0, 91, 84
6, 18459, Note_on_c, 0, 84, 0
6, 18459, Note_on_c, 0, 91, 0
6, 18480, Note_on_c, 0, 88, 84
6, 18480, Note_on_c, 0, 84, 84
6, 18639, Note_on_c, 0, 88, 0
6, 18699, Note_on_c, 0, 84, 0
6, 18720, Note_on_c, 0, 89, 84
6, 18720, Note_on_c, 0, 84, 84
6, 18839, Note_on_c, 0, 89, 0
6, 18840, Note_on_c, 0, 91, 84
6, 18939, Note_on_c, 0, 84, 0
6, 18939, Note_on_c, 0, 91, 0
6, 18960, Note_on_c, 0, 88, 84
6, 18960, Note_on_c, 0, 84, 84
6, 19119, Note_on_c, 0, 88, 0
6, 19179, Note_on_c, 0, 84, 0
6, 19200, Note_on_c, 0, 84, 84
6, 19200, Note_on_c, 0, 89, 84
6, 19319, Note_on_c, 0, 89, 0
6, 19320, Note_on_c, 0, 91, 84
6, 19419, Note_on_c, 0, 84, 0
6, 19419, Note_on_c, 0, 91, 0
6, 19440, Note_on_c, 0, 88, 84
6, 19440, Note_on_c, 0, 84, 84
6, 19599, Note_on_c, 0, 88, 0
6, 19599, Note_on_c, 0, 84, 0
6, 19680, Note_on_c, 0, 91, 84
6, 19680, Note_on_c, 0, 84, 84
6, 19824, Note_on_c, 0, 91, 0
6, 19824, Note_on_c, 0, 84, 0
6, 19840, Note_on_c, 0, 91, 84
6, 19840, Note_on_c, 0, 84, 84
6, 19984, Note_on_c, 0, 91, 0
6, 19984, Note_on_c, 0, 84, 0
6, 20000, Note_on_c, 0, 84, 84
6, 20000, Note_on_c, 0, 91, 84
6, 20144, Note_on_c, 0, 84, 0
6, 20144, Note_on_c, 0, 91, 0
6, 20160, Note_on_c, 0, 84, 84
6, 20160, Note_on_c, 0, 91, 84
6, 20279, Note_on_c, 0, 91, 0
6, 20280, Note_on_c, 0, 93, 84
6, 20379, Note_on_c, 0, 84, 0
6, 20379, Note_on_c, 0, 93, 0
6, 20400, Note_on_c, 0, 84, 84
6, 20400, Note_on_c, 0, 89, 84
6, 20559, Note_on_c, 0, 89, 0
6, 20619, Note_on_c, 0, 84, 0
6, 20640, Note_on_c, 0, 91, 84
6, 20640, Note_on_c, 0, 84, 84
6, 20759, Note_on_c, 0, 91, 0
6, 20760, Note_on_c, 0, 93, 84
6, 20859, Note_on_c, 0, 84, 0
6, 20859, Note_on_c, 0, 93, 0
6, 20880, Note_on_c, 0, 84, 84
6, 20880, Note_on_c, 0, 89, 84
6, 21039, Note_on_c, 0, 89, 0
6, 21099, Note_on_c, 0, 84, 0
6, 21120, Note_on_c, 0, 84, 84
6, 21120, Note_on_c, 0, 91, 84
6, 21239, Note_on_c, 0, 91, 0
6, 21240, Note_on_c, 0, 93, 84
6, 21339, Note_on_c, 0, 84, 0
6, 21339, Note_on_c, 0, 93, 0
6, 21360, Note_on_c, 0, 84, 84
6, 21360, Note_on_c, 0, 89, 84
6, 21519, Note_on_c, 0, 84, 0
6, 21519, Note_on_c, 0, 89, 0
6, 21600, Note_on_c, 0, 89, 84
6, 21600, Note_on_c, 0, 84, 84
6, 21839, Note_on_c, 0, 89, 0
6, 21839, Note_on_c, 0, 84, 0
6, 21960, Note_on_c, 0, 88, 84
6, 21960, Note_on_c, 0, 84, 84
6, 22059, Note_on_c, 0, 88, 0
6, 22059, Note_on_c, 0, 84, 0
6, 22080, Note_on_c, 0, 88, 84
6, 22080, Note_on_c, 0, 84, 84
6, 22319, Note_on_c, 0, 88, 0
6, 22319, Note_on_c, 0, 84, 0
6, 22320, Note_on_c, 0, 82, 84
6, 22320, Note_on_c, 0, 86, 84
6, 22539, Note_on_c, 0, 82, 0
6, 22539, Note_on_c, 0, 86, 0
6, 22560, Note_on_c, 0, 81, 84
6, 22560, Note_on_c, 0, 86, 84
6, 22719, Note_on_c, 0, 81, 0
6, 22719, Note_on_c, 0, 86, 0
6, 22920, Note_on_c, 0, 81, 84
6, 22920, Note_on_c, 0, 84, 84
6, 23019, Note_on_c, 0, 81, 0
6, 23019, Note_on_c, 0, 84, 0
6, 23040, Note_on_c, 0, 84, 84
6, 23040, Note_on_c, 0, 81, 84
6, 23279, Note_on_c, 0, 84, 0
6, 23279, Note_on_c, 0, 81, 0
6, 23280, Note_on_c, 0, 79, 84
6, 23280, Note_on_c, 0, 82, 84
6, 23499, Note_on_c, 0, 79, 0
6, 23499, Note_on_c, 0, 82, 0
6, 23520, Note_on_c, 0, 82, 84
6, 23520, Note_on_c, 0, 91, 84
6, 23679, Note_on_c, 0, 82, 0
6, 23679, Note_on_c, 0, 91, 0
6, 23760, Note_on_c, 0, 81, 84
6, 23760, Note_on_c, 0, 91, 84
6, 23919, Note_on_c, 0, 81, 0
6, 23919, Note_on_c, 0, 91, 0
6, 24000, Note_on_c, 0, 79, 84
6, 24000, Note_on_c, 0, 91, 84
6, 24159, Note_on_c, 0, 79, 0
6, 24159, Note_on_c, 0, 91, 0
6, 24240, Note_on_c, 0, 90, 84
6, 24240, Note_on_c, 0, 78, 84
6, 24399, Note_on_c, 0, 90, 0
6, 24399, Note_on_c, 0, 78, 0
6, 24480, Note_on_c, 0, 79, 84
6, 24480, Note_on_c, 0, 91, 84
6, 24639, Note_on_c, 0, 79, 0
6, 24639, Note_on_c, 0, 91, 0
6, 24720, Note_on_c, 0, 81, 84
6, 24720, Note_on_c, 0, 93, 84
6, 24879, Note_on_c, 0, 81, 0
6, 24879, Note_on_c, 0, 93, 0
6, 24960, Note_on_c, 0, 82, 84
6, 25119, Note_on_c, 0, 82, 0
6, 25200, Note_on_c, 0, 84, 84
6, 25200, Note_on_c, 0, 91, 84
6, 25359, Note_on_c, 0, 84, 0
6, 25359, Note_on_c, 0, 91, 0
6, 25440, Note_on_c, 0, 93, 84
6, 25440, Note_on_c, 0, 84, 84
6, 25599, Note_on_c, 0, 93, 0
6, 25599, Note_on_c, 0, 84, 0
6, 25680, Note_on_c, 0, 89, 84
6, 25680, Note_on_c, 0, 86, 84
6, 25839, Note_on_c, 0, 89, 0
6, 25839, Note_on_c, 0, 86, 0
6, 25920, Note_on_c, 0, 86, 84
6, 26079, Note_on_c, 0, 86, 0
6, 26160, Note_on_c, 0, 86, 84
6, 26160, Note_on_c, 0, 91, 84
6, 26319, Note_on_c, 0, 86, 0
6, 26319, Note_on_c, 0, 91, 0
6, 26400, Note_on_c, 0, 84, 84
6, 26400, Note_on_c, 0, 88, 84
6, 26559, Note_on_c, 0, 84, 0
6, 26559, Note_on_c, 0, 88, 0
6, 26640, Note_on_c, 0, 84, 84
6, 26640, Note_on_c, 0, 88, 84
6, 26799, Note_on_c, 0, 84, 0
6, 26799, Note_on_c, 0, 88, 0
6, 26880, Note_on_c, 0, 84, 84
6, 26880, Note_on_c, 0, 89, 84
6, 27119, Note_on_c, 0, 84, 0
6, 27119, Note_on_c, 0, 89, 0
6, 27840, Note_on_c, 0, 84, 84
6, 27840, Note_on_c, 0, 89, 84
6, 28079, Note_on_c, 0, 84, 0
6, 28079, Note_on_c, 0, 89, 0
6, 28800, Note_on_c, 0, 91, 84
6, 28800, Note_on_c, 0, 88, 84
6, 29039, Note_on_c, 0, 91, 0
6, 29039, Note_on_c, 0, 88, 0
6, 29760, Note_on_c, 0, 88, 84
6, 29760, Note_on_c, 0, 91, 84
6, 29999, Note_on_c, 0, 88, 0
6, 29999, Note_on_c, 0, 91, 0
6, 30720, Note_on_c, 0, 89, 84
6, 30720, Note_on_c, 0, 93, 84
6, 30959, Note_on_c, 0, 89, 0
6, 30959, Note_on_c, 0, 93, 0
6, 31200, Note_on_c, 0, 89, 84
6, 31200, Note_on_c, 0, 77, 84
6, 31359, Note_on_c, 0, 89, 0
6, 31359, Note_on_c, 0, 77, 0
6, 31440, Note_on_c, 0, 84, 84
6, 31599, Note_on_c, 0, 84, 0
6, 31680, Note_on_c, 0, 84, 84
6, 31839, Note_on_c, 0, 84, 0
6, 31920, Note_on_c, 0, 81, 84
6, 32079, Note_on_c, 0, 81, 0
6, 32160, Note_on_c, 0, 81, 84
6, 32319, Note_on_c, 0, 81, 0
6, 32400, Note_on_c, 0, 77, 84
6, 32559, Note_on_c, 0, 77, 0
6, 32640, Note_on_c, 0, 72, 84
6, 32799, Note_on_c, 0, 72, 0
6, 33120, Note_on_c, 0, 82, 84
6, 33279, Note_on_c, 0, 82, 0
6, 33360, Note_on_c, 0, 91, 84
6, 33360, Note_on_c, 0, 79, 84
6, 33519, Note_on_c, 0, 91, 0
6, 33519, Note_on_c, 0, 79, 0
6, 33600, Note_on_c, 0, 91, 84
6, 33600, Note_on_c, 0, 79, 84
6, 33759, Note_on_c, 0, 91, 0
6, 33759, Note_on_c, 0, 79, 0
6, 33840, Note_on_c, 0, 76, 84
6, 33840, Note_on_c, 0, 88, 84
6, 33999, Note_on_c, 0, 76, 0
6, 33999, Note_on_c, 0, 88, 0
6, 34080, Note_on_c, 0, 88, 84
6, 34080, Note_on_c, 0, 76, 84
6, 34239, Note_on_c, 0, 88, 0
6, 34239, Note_on_c, 0, 76, 0
6, 34320, Note_on_c, 0, 84, 84
6, 34320, Note_on_c, 0, 72, 84
6, 34479, Note_on_c, 0, 84, 0
6, 34479, Note_on_c, 0, 72, 0
6, 34560, Note_on_c, 0, 77, 84
6, 34560, Note_on_c, 0, 89, 84
6, 34719, Note_on_c, 0, 77, 0
6, 34719, Note_on_c, 0, 89, 0
6, 35520, Note_on_c, 0, 84, 84
6, 35759, Note_on_c, 0, 84, 0
6, 36480, Note_on_c, 0, 83, 84
6, 36480, Note_on_c, 0, 86, 84
6, 36719, Note_on_c, 0, 83, 0
6, 36719, Note_on_c, 0, 86, 0
6, 37440, Note_on_c, 0, 86, 84
6, 37440, Note_on_c, 0, 83, 84
6, 37679, Note_on_c, 0, 86, 0
6, 37679, Note_on_c, 0, 83, 0
6, 38400, Note_on_c, 0, 84, 84
6, 38400, Note_on_c, 0, 88, 84
6, 38639, Note_on_c, 0, 84, 0
6, 38639, Note_on_c, 0, 88, 0
6, 38880, Note_on_c, 0, 84, 84
6, 39039, Note_on_c, 0, 84, 0
6, 39120, Note_on_c, 0, 91, 84
6, 39120, Note_on_c, 0, 79, 84
6, 39279, Note_on_c, 0, 91, 0
6, 39279, Note_on_c, 0, 79, 0
6, 39360, Note_on_c, 0, 91, 84
6, 39360, Note_on_c, 0, 79, 84
6, 39519, Note_on_c, 0, 91, 0
6, 39519, Note_on_c, 0, 79, 0
6, 39600, Note_on_c, 0, 76, 84
6, 39600, Note_on_c, 0, 88, 84
6, 39759, Note_on_c, 0, 76, 0
6, 39759, Note_on_c, 0, 88, 0
6, 39840, Note_on_c, 0, 76, 84
6, 39840, Note_on_c, 0, 88, 84
6, 39999, Note_on_c, 0, 76, 0
6, 39999, Note_on_c, 0, 88, 0
6, 40080, Note_on_c, 0, 84, 84
6, 40239, Note_on_c, 0, 84, 0
6, 40320, Note_on_c, 0, 79, 84
6, 40479, Note_on_c, 0, 79, 0
6, 40800, Note_on_c, 0, 86, 92
6, 40800, Note_on_c, 0, 89, 92
6, 40959, Note_on_c, 0, 86, 0
6, 40959, Note_on_c, 0, 89, 0
6, 41040, Note_on_c, 0, 86, 84
6, 41040, Note_on_c, 0, 83, 84
6, 41199, Note_on_c, 0, 86, 0
6, 41199, Note_on_c, 0, 83, 0
6, 41280, Note_on_c, 0, 83, 92
6, 41280, Note_on_c, 0, 86, 92
6, 41439, Note_on_c, 0, 83, 0
6, 41439, Note_on_c, 0, 86, 0
6, 41520, Note_on_c, 0, 83, 84
6, 41520, Note_on_c, 0, 79, 84
6, 41679, Note_on_c, 0, 83, 0
6, 41679, Note_on_c, 0, 79, 0
6, 42720, Note_on_c, 0, 89, 84
6, 42720, Note_on_c, 0, 86, 84
6, 42879, Note_on_c, 0, 89, 0
6, 42879, Note_on_c, 0, 86, 0
6, 42960, Note_on_c, 0, 83, 84
6, 42960, Note_on_c, 0, 86, 84
6, 43119, Note_on_c, 0, 83, 0
6, 43119, Note_on_c, 0, 86, 0
6, 43200, Note_on_c, 0, 83, 84
6, 43200, Note_on_c, 0, 86, 84
6, 43359, Note_on_c, 0, 83, 0
6, 43359, Note_on_c, 0, 86, 0
6, 43440, Note_on_c, 0, 79, 84
6, 43440, Note_on_c, 0, 83, 84
6, 43599, Note_on_c, 0, 79, 0
6, 43599, Note_on_c, 0, 83, 0
6, 44640, Note_on_c, 0, 86, 84
6, 44640, Note_on_c, 0, 89, 84
6, 44799, Note_on_c, 0, 86, 0
6, 44799, Note_on_c, 0, 89, 0
6, 44880, Note_on_c, 0, 83, 84
6, 44880, Note_on_c, 0, 86, 84
6, 45039, Note_on_c, 0, 83, 0
6, 45039, Note_on_c, 0, 86, 0
6, 45120, Note_on_c, 0, 86, 84
6, 45120, Note_on_c, 0, 83, 84
6, 45279, Note_on_c, 0, 86, 0
6, 45279, Note_on_c, 0, 83, 0
6, 45360, Note_on_c, 0, 83, 84
6, 45360, Note_on_c, 0, 79, 84
6, 45519, Note_on_c, 0, 83, 0
6, 45519, Note_on_c, 0, 79, 0
6, 45600, Note_on_c, 0, 79, 84
6, 45600, Note_on_c, 0, 91, 84
6, 45759, Note_on_c, 0, 79, 0
6, 45759, Note_on_c, 0, 91, 0
6, 45840, Note_on_c, 0, 79, 84
6, 45840, Note_on_c, 0, 67, 84
6, 45999, Note_on_c, 0, 79, 0
6, 45999, Note_on_c, 0, 67, 0
6, 46080, Note_on_c, 0, 68, 52
6, 46080, Note_on_c, 0, 80, 52
6, 46319, Note_on_c, 0, 68, 0
6, 46319, Note_on_c, 0, 80, 0
6, 56880, Control_c, 0, 11, 112
6, 57120, Control_c, 0, 11, 112
6, 57120, Note_on_c, 0, 91, 60
6, 57160, Control_c, 0, 11, 115
6, 57200, Control_c, 0, 11, 117
6, 57240, Control_c, 0, 11, 120
6, 57280, Control_c, 0, 11, 122
6, 57320, Control_c, 0, 11, 125
6, 57358, Control_c, 0, 11, 127
6, 57359, Note_on_c, 0, 91, 0
6, 57600, Note_on_c, 0, 84, 48
6, 58559, Note_on_c, 0, 84, 0
6, 58560, Note_on_c, 0, 91, 48
6, 59279, Note_on_c, 0, 91, 0
6, 59280, Note_on_c, 0, 93, 48
6, 59499, Note_on_c, 0, 93, 0
6, 59520, Note_on_c, 0, 93, 48
6, 59759, Note_on_c, 0, 93, 0
6, 59760, Note_on_c, 0, 86, 48
6, 59979, Note_on_c, 0, 86, 0
6, 60000, Note_on_c, 0, 86, 48
6, 60239, Note_on_c, 0, 86, 0
6, 60240, Note_on_c, 0, 88, 48
6, 60479, Note_on_c, 0, 88, 0
6, 60480, Note_on_c, 0, 89, 48
6, 60719, Note_on_c, 0, 89, 0
6, 60960, Note_on_c, 0, 91, 48
6, 61199, Note_on_c, 0, 91, 0
6, 61440, Note_on_c, 0, 88, 48
6, 62399, Note_on_c, 0, 88, 0
6, 63840, Note_on_c, 0, 86, 48
6, 64079, Note_on_c, 0, 86, 0
6, 64080, Note_on_c, 0, 88, 48
6, 64319, Note_on_c, 0, 88, 0
6, 64320, Note_on_c, 0, 89, 48
6, 64559, Note_on_c, 0, 89, 0
6, 64800, Note_on_c, 0, 91, 48
6, 65039, Note_on_c, 0, 91, 0
6, 65280, Note_on_c, 0, 88, 44
6, 65499, Note_on_c, 0, 88, 0
6, 65520, Note_on_c, 0, 76, 44
6, 65979, Note_on_c, 0, 76, 0
6, 66000, Note_on_c, 0, 74, 44
6, 66119, Note_on_c, 0, 74, 0
6, 66120, Note_on_c, 0, 76, 44
6, 66239, Note_on_c, 0, 76, 0
6, 66240, Note_on_c, 0, 77, 44
6, 66399, Note_on_c, 0, 77, 0
6, 66480, Note_on_c, 0, 77, 44
6, 66939, Note_on_c, 0, 77, 0
6, 66960, Note_on_c, 0, 76, 44
6, 67079, Note_on_c, 0, 76, 0
6, 67080, Note_on_c, 0, 78, 44
6, 67199, Note_on_c, 0, 78, 0
6, 67200, Note_on_c, 0, 79, 44
6, 67359, Note_on_c, 0, 79, 0
6, 67440, Note_on_c, 0, 79, 44
6, 67899, Note_on_c, 0, 79, 0
6, 67920, Note_on_c, 0, 77, 44
6, 68039, Note_on_c, 0, 77, 0
6, 68040, Note_on_c, 0, 79, 44
6, 68159, Note_on_c, 0, 79, 0
6, 68160, Note_on_c, 0, 81, 44
6, 68279, Note_on_c, 0, 81, 0
6, 68400, Note_on_c, 0, 81, 44
6, 68879, Note_on_c, 0, 81, 0
6, 68880, Note_on_c, 0, 79, 44
6, 68999, Note_on_c, 0, 79, 0
6, 69000, Note_on_c, 0, 81, 44
6, 69119, Note_on_c, 0, 81, 0
6, 69120, Note_on_c, 0, 83, 44
6, 69279, Note_on_c, 0, 83, 0
6, 69360, Note_on_c, 0, 83, 44
6, 69519, Note_on_c, 0, 83, 0
6, 69600, Note_on_c, 0, 83, 44
6, 69759, Note_on_c, 0, 83, 0
6, 69840, Note_on_c, 0, 84, 44
6, 69999, Note_on_c, 0, 84, 0
6, 70080, Note_on_c, 0, 81, 44
6, 70239, Note_on_c, 0, 81, 0
6, 70320, Note_on_c, 0, 81, 44
6, 70479, Note_on_c, 0, 81, 0
6, 70560, Note_on_c, 0, 81, 44
6, 70719, Note_on_c, 0, 81, 0
6, 70800, Note_on_c, 0, 83, 44
6, 70959, Note_on_c, 0, 83, 0
6, 71040, Note_on_c, 0, 79, 44
6, 71199, Note_on_c, 0, 79, 0
6, 71280, Note_on_c, 0, 79, 44
6, 71439, Note_on_c, 0, 79, 0
6, 71520, Note_on_c, 0, 79, 44
6, 71679, Note_on_c, 0, 79, 0
6, 71760, Note_on_c, 0, 81, 44
6, 71919, Note_on_c, 0, 81, 0
6, 72000, Note_on_c, 0, 77, 44
6, 72159, Note_on_c, 0, 77, 0
6, 72240, Note_on_c, 0, 77, 44
6, 72399, Note_on_c, 0, 77, 0
6, 72480, Note_on_c, 0, 77, 44
6, 72639, Note_on_c, 0, 77, 0
6, 72720, Note_on_c, 0, 79, 44
6, 72879, Note_on_c, 0, 79, 0
6, 72960, Note_on_c, 0, 76, 76
6, 73179, Note_on_c, 0, 76, 0
6, 73200, Note_on_c, 0, 88, 76
6, 73200, Note_on_c, 0, 84, 76
6, 73439, Note_on_c, 0, 88, 0
6, 73439, Note_on_c, 0, 84, 0
6, 73680, Note_on_c, 0, 85, 76
6, 73680, Note_on_c, 0, 88, 76
6, 73899, Note_on_c, 0, 85, 0
6, 73899, Note_on_c, 0, 88, 0
6, 73920, Note_on_c, 0, 86, 76
6, 73920, Note_on_c, 0, 89, 76
6, 74139, Note_on_c, 0, 86, 0
6, 74139, Note_on_c, 0, 89, 0
6, 74160, Note_on_c, 0, 86, 76
6, 74160, Note_on_c, 0, 89, 76
6, 74399, Note_on_c, 0, 86, 0
6, 74399, Note_on_c, 0, 89, 0
6, 74640, Note_on_c, 0, 87, 76
6, 74640, Note_on_c, 0, 90, 76
6, 74859, Note_on_c, 0, 87, 0
6, 74859, Note_on_c, 0, 90, 0
6, 74880, Note_on_c, 0, 88, 76
6, 74880, Note_on_c, 0, 91, 76
6, 75099, Note_on_c, 0, 88, 0
6, 75099, Note_on_c, 0, 91, 0
6, 75120, Note_on_c, 0, 91, 76
6, 75120, Note_on_c, 0, 88, 76
6, 75359, Note_on_c, 0, 91, 0
6, 75359, Note_on_c, 0, 88, 0
6, 75600, Note_on_c, 0, 91, 76
6, 75600, Note_on_c, 0, 88, 76
6, 75819, Note_on_c, 0, 91, 0
6, 75819, Note_on_c, 0, 88, 0
6, 75840, Note_on_c, 0, 89, 76
6, 75840, Note_on_c, 0, 93, 76
6, 76059, Note_on_c, 0, 89, 0
6, 76059, Note_on_c, 0, 93, 0
6, 76080, Note_on_c, 0, 93, 76
6, 76080, Note_on_c, 0, 89, 76
6, 76319, Note_on_c, 0, 93, 0
6, 76319, Note_on_c, 0, 89, 0
6, 76560, Note_on_c, 0, 90, 76
6, 76560, Note_on_c, 0, 93, 76
6, 76779, Note_on_c, 0, 90, 0
6, 76779, Note_on_c, 0, 93, 0
6, 76800, Note_on_c, 0, 83, 76
6, 76800, Note_on_c, 0, 91, 76
6, 76959, Note_on_c, 0, 83, 0
6, 76959, Note_on_c, 0, 91, 0
6, 77040, Note_on_c, 0, 91, 76
6, 77040, Note_on_c, 0, 83, 76
6, 77199, Note_on_c, 0, 91, 0
6, 77199, Note_on_c, 0, 83, 0
6, 77280, Note_on_c, 0, 83, 76
6, 77280, Note_on_c, 0, 91, 76
6, 77439, Note_on_c, 0, 83, 0
6, 77439, Note_on_c, 0, 91, 0
6, 77520, Note_on_c, 0, 91, 76
6, 77520, Note_on_c, 0, 84, 76
6, 77679, Note_on_c, 0, 91, 0
6, 77679, Note_on_c, 0, 84, 0
6, 77760, Note_on_c, 0, 84, 76
6, 77760, Note_on_c, 0, 93, 76
6, 77919, Note_on_c, 0, 84, 0
6, 77919, Note_on_c, 0, 93, 0
6, 78000, Note_on_c, 0, 93, 76
6, 78000, Note_on_c, 0, 84, 76
6, 78159, Note_on_c, 0, 93, 0
6, 78159, Note_on_c, 0, 84, 0
6, 78240, Note_on_c, 0, 89, 76
6, 78240, Note_on_c, 0, 93, 76
6, 78399, Note_on_c, 0, 89, 0
6, 78399, Note_on_c, 0, 93, 0
6, 78480, Note_on_c, 0, 93, 76
6, 78480, Note_on_c, 0, 90, 76
6, 78639, Note_on_c, 0, 93, 0
6, 78639, Note_on_c, 0, 90, 0
6, 78720, Note_on_c, 0, 91, 76
6, 78720, Note_on_c, 0, 83, 76
6, 78879, Note_on_c, 0, 91, 0
6, 78879, Note_on_c, 0, 83, 0
6, 78960, Note_on_c, 0, 91, 76
6, 78960, Note_on_c, 0, 83, 76
6, 79119, Note_on_c, 0, 91, 0
6, 79119, Note_on_c, 0, 83, 0
6, 79200, Note_on_c, 0, 88, 76
6, 79200, Note_on_c, 0, 91, 76
6, 79359, Note_on_c, 0, 88, 0
6, 79359, Note_on_c, 0, 91, 0
6, 79440, Note_on_c, 0, 93, 76
6, 79440, Note_on_c, 0, 88, 76
6, 79599, Note_on_c, 0, 93, 0
6, 79599, Note_on_c, 0, 88, 0
6, 79680, Note_on_c, 0, 89, 76
6, 79680, Note_on_c, 0, 81, 76
6, 79839, Note_on_c, 0, 89, 0
6, 79839, Note_on_c, 0, 81, 0
6, 79920, Note_on_c, 0, 81, 76
6, 79920, Note_on_c, 0, 89, 76
6, 80079, Note_on_c, 0, 81, 0
6, 80079, Note_on_c, 0, 89, 0
6, 80160, Note_on_c, 0, 89, 76
6, 80160, Note_on_c, 0, 86, 76
6, 80319, Note_on_c, 0, 89, 0
6, 80319, Note_on_c, 0, 86, 0
6, 80400, Note_on_c, 0, 86, 76
6, 80400, Note_on_c, 0, 91, 76
6, 80559, Note_on_c, 0, 86, 0
6, 80559, Note_on_c, 0, 91, 0
6, 80640, Note_on_c, 0, 89, 80
6, 80640, Note_on_c, 0, 86, 80
6, 82539, Note_on_c, 0, 89, 0
6, 82539, Note_on_c, 0, 86, 0
6, 82560, Note_on_c, 0, 88, 80
6, 82560, Note_on_c, 0, 91, 80
6, 84459, Note_on_c, 0, 88, 0
6, 84459, Note_on_c, 0, 91, 0
6, 84480, Note_on_c, 0, 89, 84
6, 84480, Note_on_c, 0, 93, 84
6, 86379, Note_on_c, 0, 89, 0
6, 86379, Note_on_c, 0, 93, 0
6, 86400, Note_on_c, 0, 93, 84
6, 86400, Note_on_c, 0, 89, 84
6, 86639, Note_on_c, 0, 93, 0
6, 86639, Note_on_c, 0, 89, 0
6, 95040, Note_on_c, 0, 81, 44
6, 95159, Note_on_c, 0, 81, 0
6, 95160, Note_on_c, 0, 82, 44
6, 95259, Note_on_c, 0, 82, 0
6, 95280, Note_on_c, 0, 79, 44
6, 95439, Note_on_c, 0, 79, 0
6, 96960, Note_on_c, 0, 82, 44
6, 97079, Note_on_c, 0, 82, 0
6, 97080, Note_on_c, 0, 84, 44
6, 97179, Note_on_c, 0, 84, 0
6, 97200, Note_on_c, 0, 81, 44
6, 97359, Note_on_c, 0, 81, 0
6, 101280, Note_on_c, 0, 82, 76
6, 101439, Note_on_c, 0, 82, 0
6, 101520, Note_on_c, 0, 81, 76
6, 101679, Note_on_c, 0, 81, 0
6, 101760, Note_on_c, 0, 79, 76
6, 101919, Note_on_c, 0, 79, 0
6, 102000, Note_on_c, 0, 78, 76
6, 102159, Note_on_c, 0, 78, 0
6, 102240, Note_on_c, 0, 79, 76
6, 102399, Note_on_c, 0, 79, 0
6, 102480, Note_on_c, 0, 81, 76
6, 102639, Note_on_c, 0, 81, 0
6, 102720, Note_on_c, 0, 82, 76
6, 102959, Note_on_c, 0, 82, 0
6, 107040, Note_on_c, 0, 88, 44
6, 107279, Note_on_c, 0, 88, 0
6, 107400, Note_on_c, 0, 86, 44
6, 107499, Note_on_c, 0, 86, 0
6, 107520, Note_on_c, 0, 86, 44
6, 107759, Note_on_c, 0, 86, 0
6, 107760, Note_on_c, 0, 85, 44
6, 107979, Note_on_c, 0, 85, 0
6, 108000, Note_on_c, 0, 85, 44
6, 108159, Note_on_c, 0, 85, 0
6, 108360, Note_on_c, 0, 83, 44
6, 108459, Note_on_c, 0, 83, 0
6, 108480, Note_on_c, 0, 83, 44
6, 108719, Note_on_c, 0, 83, 0
6, 108720, Note_on_c, 0, 81, 44
6, 108939, Note_on_c, 0, 81, 0
6, 108960, Note_on_c, 0, 88, 44
6, 109119, Note_on_c, 0, 88, 0
6, 109320, Note_on_c, 0, 86, 44
6, 109419, Note_on_c, 0, 86, 0
6, 109440, Note_on_c, 0, 86, 44
6, 109679, Note_on_c, 0, 86, 0
6, 109680, Note_on_c, 0, 85, 44
6, 109899, Note_on_c, 0, 85, 0
6, 109920, Note_on_c, 0, 85, 44
6, 110079, Note_on_c, 0, 85, 0
6, 110280, Note_on_c, 0, 83, 44
6, 110379, Note_on_c, 0, 83, 0
6, 110400, Note_on_c, 0, 83, 44
6, 110639, Note_on_c, 0, 83, 0
6, 110640, Note_on_c, 0, 81, 44
6, 110879, Note_on_c, 0, 81, 0
6, 111840, Note_on_c, 0, 93, 44
6, 112059, Note_on_c, 0, 93, 0
6, 112200, Note_on_c, 0, 91, 44
6, 112299, Note_on_c, 0, 91, 0
6, 112320, Note_on_c, 0, 91, 44
6, 112559, Note_on_c, 0, 91, 0
6, 112560, Note_on_c, 0, 90, 44
6, 112779, Note_on_c, 0, 90, 0
6, 112800, Note_on_c, 0, 90, 44
6, 112959, Note_on_c, 0, 90, 0
6, 113160, Note_on_c, 0, 88, 44
6, 113259, Note_on_c, 0, 88, 0
6, 113280, Note_on_c, 0, 88, 44
6, 113519, Note_on_c, 0, 88, 0
6, 113520, Note_on_c, 0, 86, 44
6, 113739, Note_on_c, 0, 86, 0
6, 113760, Note_on_c, 0, 93, 44
6, 113919, Note_on_c, 0, 93, 0
6, 114120, Note_on_c, 0, 91, 44
6, 114219, Note_on_c, 0, 91, 0
6, 114238, Control_c, 0, 11, 64
6, 114240, Note_on_c, 0, 91, 76
6, 114479, Note_on_c, 0, 91, 0
6, 114480, Note_on_c, 0, 90, 76
6, 114699, Note_on_c, 0, 90, 0
6, 114720, Note_on_c, 0, 90, 76
6, 114720, Control_c, 0, 11, 64
6, 114800, Control_c, 0, 11, 69
6, 114879, Note_on_c, 0, 90, 0
6, 114880, Control_c, 0, 11, 75
6, 114960, Control_c, 0, 11, 80
6, 115040, Control_c, 0, 11, 85
6, 115080, Note_on_c, 0, 88, 76
6, 115120, Control_c, 0, 11, 90
6, 115179, Note_on_c, 0, 88, 0
6, 115200, Note_on_c, 0, 88, 76
6, 115200, Control_c, 0, 11, 96
6, 115280, Control_c, 0, 11, 101
6, 115360, Control_c, 0, 11, 106
6, 115439, Note_on_c, 0, 88, 0
6, 115440, Note_on_c, 0, 86, 76
6, 115440, Control_c, 0, 11, 111
6, 115520, Control_c, 0, 11, 117
6, 115600, Control_c, 0, 11, 122
6, 115659, Note_on_c, 0, 86, 0
6, 115680, Note_on_c, 0, 74, 76
6, 115680, Note_on_c, 0, 86, 76
6, 115680, Control_c, 0, 11, 127
6, 117119, Note_on_c, 0, 74, 0
6, 117119, Note_on_c, 0, 86, 0
6, 117600, Note_on_c, 0, 79, 76
6, 117600, Note_on_c, 0, 91, 76
6, 119039, Note_on_c, 0, 79, 0
6, 119039, Note_on_c, 0, 91, 0
6, 131040, Note_on_c, 0, 79, 84
6, 131040, Note_on_c, 0, 91, 84
6, 131160, Control_c, 0, 11, 112
6, 131519, Note_on_c, 0, 79, 0
6, 131519, Note_on_c, 0, 91, 0
6, 131760, Control_c, 0, 11, 127
6, 132000, Note_on_c, 0, 84, 84
6, 132120, Control_c, 0, 11, 112
6, 132479, Note_on_c, 0, 84, 0
6, 138240, Control_c, 0, 11, 127
6, 138480, Note_on_c, 0, 76, 76
6, 138480, Note_on_c, 0, 88, 76
6, 138639, Note_on_c, 0, 76, 0
6, 138639, Note_on_c, 0, 88, 0
6, 138720, Note_on_c, 0, 93, 76
6, 138720, Note_on_c, 0, 81, 76
6, 138879, Note_on_c, 0, 93, 0
6, 138879, Note_on_c, 0, 81, 0
6, 138960, Note_on_c, 0, 93, 76
6, 138960, Note_on_c, 0, 81, 76
6, 139119, Note_on_c, 0, 93, 0
6, 139119, Note_on_c, 0, 81, 0
6, 142320, Note_on_c, 0, 76, 76
6, 142479, Note_on_c, 0, 76, 0
6, 142560, Note_on_c, 0, 87, 76
6, 142719, Note_on_c, 0, 87, 0
6, 142800, Note_on_c, 0, 88, 76
6, 142959, Note_on_c, 0, 88, 0
6, 143280, Note_on_c, 0, 76, 76
6, 143439, Note_on_c, 0, 76, 0
6, 143520, Note_on_c, 0, 87, 76
6, 143679, Note_on_c, 0, 87, 0
6, 143760, Note_on_c, 0, 88, 76
6, 143919, Note_on_c, 0, 88, 0
6, 144240, Note_on_c, 0, 76, 76
6, 144399, Note_on_c, 0, 76, 0
6, 144480, Note_on_c, 0, 87, 76
6, 144639, Note_on_c, 0, 87, 0
6, 144720, Note_on_c, 0, 88, 76
6, 144879, Note_on_c, 0, 88, 0
6, 145200, Note_on_c, 0, 76, 76
6, 145419, Note_on_c, 0, 76, 0
6, 145440, Note_on_c, 0, 88, 84
6, 149259, Note_on_c, 0, 88, 0
6, 149280, Note_on_c, 0, 76, 52
6, 149439, Note_on_c, 0, 76, 0
6, 149520, Note_on_c, 0, 88, 52
6, 149679, Note_on_c, 0, 88, 0
6, 149760, Note_on_c, 0, 76, 52
6, 149919, Note_on_c, 0, 76, 0
6, 150000, Note_on_c, 0, 88, 52
6, 150159, Note_on_c, 0, 88, 0
6, 150240, Note_on_c, 0, 76, 52
6, 150399, Note_on_c, 0, 76, 0
6, 150480, Note_on_c, 0, 88, 52
6, 150639, Note_on_c, 0, 88, 0
6, 150720, Note_on_c, 0, 76, 52
6, 150879, Note_on_c, 0, 76, 0
6, 150960, Note_on_c, 0, 88, 52
6, 151119, Note_on_c, 0, 88, 0
6, 155040, Note_on_c, 0, 89, 44
6, 156459, Note_on_c, 0, 89, 0
6, 156480, Note_on_c, 0, 81, 44
6, 156599, Note_on_c, 0, 81, 0
6, 156600, Note_on_c, 0, 82, 44
6, 156699, Note_on_c, 0, 82, 0
6, 156720, Note_on_c, 0, 79, 44
6, 156879, Note_on_c, 0, 79, 0
6, 156960, Note_on_c, 0, 89, 44
6, 158379, Note_on_c, 0, 89, 0
6, 158400, Note_on_c, 0, 82, 44
6, 158519, Note_on_c, 0, 82, 0
6, 158520, Note_on_c, 0, 84, 44
6, 158619, Note_on_c, 0, 84, 0
6, 158640, Note_on_c, 0, 81, 44
6, 158799, Note_on_c, 0, 81, 0
6, 158880, Note_on_c, 0, 89, 44
6, 159119, Note_on_c, 0, 89, 0
6, 159240, Note_on_c, 0, 88, 44
6, 159339, Note_on_c, 0, 88, 0
6, 159360, Note_on_c, 0, 88, 44
6, 159599, Note_on_c, 0, 88, 0
6, 159600, Note_on_c, 0, 86, 44
6, 159839, Note_on_c, 0, 86, 0
6, 162960, Note_on_c, 0, 89, 44
6, 163119, Note_on_c, 0, 89, 0
6, 163200, Note_on_c, 0, 88, 44
6, 163359, Note_on_c, 0, 88, 0
6, 163440, Note_on_c, 0, 88, 44
6, 163599, Note_on_c, 0, 88, 0
6, 163680, Note_on_c, 0, 79, 44
6, 163839, Note_on_c, 0, 79, 0
6, 163920, Note_on_c, 0, 91, 44
6, 164079, Note_on_c, 0, 91, 0
6, 164160, Note_on_c, 0, 84, 44
6, 165579, Note_on_c, 0, 84, 0
6, 165600, Note_on_c, 0, 86, 44
6, 165744, Note_on_c, 0, 86, 0
6, 165760, Note_on_c, 0, 86, 44
6, 165904, Note_on_c, 0, 86, 0
6, 165920, Note_on_c, 0, 86, 44
6, 166064, Note_on_c, 0, 86, 0
6, 166080, Note_on_c, 0, 86, 44
6, 166239, Note_on_c, 0, 86, 0
6, 166240, Note_on_c, 0, 88, 44
6, 166384, Note_on_c, 0, 88, 0
6, 166400, Note_on_c, 0, 84, 44
6, 166519, Note_on_c, 0, 84, 0
6, 166560, Control_c, 0, 11, 127
6, 166560, Note_on_c, 0, 84, 44
6, 166720, Control_c, 0, 11, 126
6, 166880, Control_c, 0, 11, 125
6, 167040, Control_c, 0, 11, 124
6, 167200, Control_c, 0, 11, 123
6, 167360, Control_c, 0, 11, 122
6, 167520, Control_c, 0, 11, 121
6, 167680, Control_c, 0, 11, 120
6, 167840, Control_c, 0, 11, 119
6, 168000, Control_c, 0, 11, 118
6, 168160, Control_c, 0, 11, 117
6, 168320, Control_c, 0, 11, 116
6, 168480, Control_c, 0, 11, 115
6, 168640, Control_c, 0, 11, 114
6, 168800, Control_c, 0, 11, 113
6, 171339, Note_on_c, 0, 84, 0
6, 171358, Control_c, 0, 11, 127
6, 171360, Note_on_c, 0, 85, 84
6, 172299, Note_on_c, 0, 85, 0
6, 172320, Note_on_c, 0, 84, 84
6, 172320, Note_on_c, 0, 89, 84
6, 172464, Note_on_c, 0, 84, 0
6, 172464, Note_on_c, 0, 89, 0
6, 172480, Note_on_c, 0, 89, 84
6, 172480, Note_on_c, 0, 84, 84
6, 172624, Note_on_c, 0, 89, 0
6, 172624, Note_on_c, 0, 84, 0
6, 172640, Note_on_c, 0, 89, 84
6, 172640, Note_on_c, 0, 84, 84
6, 172784, Note_on_c, 0, 89, 0
6, 172784, Note_on_c, 0, 84, 0
6, 172800, Note_on_c, 0, 84, 84
6, 172800, Note_on_c, 0, 89, 84
6, 172919, Note_on_c, 0, 89, 0
6, 172920, Note_on_c, 0, 91, 84
6, 173019, Note_on_c, 0, 84, 0
6, 173019, Note_on_c, 0, 91, 0
6, 173040, Note_on_c, 0, 84, 84
6, 173040, Note_on_c, 0, 88, 84
6, 173199, Note_on_c, 0, 88, 0
6, 173259, Note_on_c, 0, 84, 0
6, 173280, Note_on_c, 0, 89, 84
6, 173280, Note_on_c, 0, 84, 84
6, 173399, Note_on_c, 0, 89, 0
6, 173400, Note_on_c, 0, 91, 84
6, 173499, Note_on_c, 0, 84, 0
6, 173499, Note_on_c, 0, 91, 0
6, 173520, Note_on_c, 0, 84, 84
6, 173520, Note_on_c, 0, 88, 84
6, 173679, Note_on_c, 0, 88, 0
6, 173739, Note_on_c, 0, 84, 0
6, 173760, Note_on_c, 0, 89, 84
6, 173760, Note_on_c, 0, 84, 84
6, 173879, Note_on_c, 0, 89, 0
6, 173880, Note_on_c, 0, 91, 84
6, 173979, Note_on_c, 0, 84, 0
6, 173979, Note_on_c, 0, 91, 0
6, 174000, Note_on_c, 0, 88, 84
6, 174000, Note_on_c, 0, 84, 84
6, 174159, Note_on_c, 0, 88, 0
6, 174219, Note_on_c, 0, 84, 0
6, 174240, Note_on_c, 0, 91, 84
6, 174240, Note_on_c, 0, 84, 84
6, 174384, Note_on_c, 0, 91, 0
6, 174384, Note_on_c, 0, 84, 0
6, 174400, Note_on_c, 0, 91, 84
6, 174400, Note_on_c, 0, 84, 84
6, 174544, Note_on_c, 0, 91, 0
6, 174544, Note_on_c, 0, 84, 0
6, 174560, Note_on_c, 0, 84, 84
6, 174560, Note_on_c, 0, 91, 84
6, 174704, Note_on_c, 0, 84, 0
6, 174704, Note_on_c, 0, 91, 0
6, 174720, Note_on_c, 0, 91, 84
6, 174720, Note_on_c, 0, 84, 84
6, 174839, Note_on_c, 0, 91, 0
6, 174840, Note_on_c, 0, 93, 84
6, 174939, Note_on_c, 0, 84, 0
6, 174939, Note_on_c, 0, 93, 0
6, 174960, Note_on_c, 0, 84, 84
6, 174960, Note_on_c, 0, 89, 84
6, 175119, Note_on_c, 0, 89, 0
6, 175179, Note_on_c, 0, 84, 0
6, 175200, Note_on_c, 0, 91, 84
6, 175200, Note_on_c, 0, 84, 84
6, 175319, Note_on_c, 0, 91, 0
6, 175320, Note_on_c, 0, 93, 84
6, 175419, Note_on_c, 0, 84, 0
6, 175419, Note_on_c, 0, 93, 0
6, 175440, Note_on_c, 0, 84, 84
6, 175440, Note_on_c, 0, 89, 84
6, 175599, Note_on_c, 0, 89, 0
6, 175659, Note_on_c, 0, 84, 0
6, 175680, Note_on_c, 0, 91, 84
6, 175680, Note_on_c, 0, 84, 84
6, 175799, Note_on_c, 0, 91, 0
6, 175800, Note_on_c, 0, 93, 84
6, 175899, Note_on_c, 0, 84, 0
6, 175899, Note_on_c, 0, 93, 0
6, 175920, Note_on_c, 0, 89, 84
6, 175920, Note_on_c, 0, 84, 84
6, 176079, Note_on_c, 0, 89, 0
6, 176139, Note_on_c, 0, 84, 0
6, 176160, Note_on_c, 0, 89, 84
6, 176160, Note_on_c, 0, 84, 84
6, 176399, Note_on_c, 0, 89, 0
6, 176399, Note_on_c, 0, 84, 0
6, 176520, Note_on_c, 0, 84, 84
6, 176520, Note_on_c, 0, 88, 84
6, 176619, Note_on_c, 0, 84, 0
6, 176619, Note_on_c, 0, 88, 0
6, 176640, Note_on_c, 0, 84, 84
6, 176640, Note_on_c, 0, 88, 84
6, 176879, Note_on_c, 0, 84, 0
6, 176879, Note_on_c, 0, 88, 0
6, 176880, Note_on_c, 0, 86, 84
6, 176880, Note_on_c, 0, 82, 84
6, 177099, Note_on_c, 0, 86, 0
6, 177099, Note_on_c, 0, 82, 0
6, 177120, Note_on_c, 0, 81, 84
6, 177120, Note_on_c, 0, 86, 84
6, 177279, Note_on_c, 0, 81, 0
6, 177279, Note_on_c, 0, 86, 0
6, 177480, Note_on_c, 0, 81, 84
6, 177480, Note_on_c, 0, 84, 84
6, 177579, Note_on_c, 0, 81, 0
6, 177579, Note_on_c, 0, 84, 0
6, 177600, Note_on_c, 0, 81, 84
6, 177600, Note_on_c, 0, 84, 84
6, 177839, Note_on_c, 0, 81, 0
6, 177839, Note_on_c, 0, 84, 0
6, 177840, Note_on_c, 0, 82, 84
6, 177840, Note_on_c, 0, 79, 84
6, 178059, Note_on_c, 0, 82, 0
6, 178059, Note_on_c, 0, 79, 0
6, 178080, Note_on_c, 0, 91, 84
6, 178080, Note_on_c, 0, 82, 84
6, 178239, Note_on_c, 0, 91, 0
6, 178239, Note_on_c, 0, 82, 0
6, 178320, Note_on_c, 0, 81, 84
6, 178320, Note_on_c, 0, 91, 84
6, 178479, Note_on_c, 0, 81, 0
6, 178479, Note_on_c, 0, 91, 0
6, 178560, Note_on_c, 0, 79, 84
6, 178560, Note_on_c, 0, 91, 84
6, 178719, Note_on_c, 0, 79, 0
6, 178719, Note_on_c, 0, 91, 0
6, 178800, Note_on_c, 0, 78, 84
6, 178800, Note_on_c, 0, 90, 84
6, 178959, Note_on_c, 0, 78, 0
6, 178959, Note_on_c, 0, 90, 0
6, 179040, Note_on_c, 0, 79, 84
6, 179040, Note_on_c, 0, 91, 84
6, 179199, Note_on_c, 0, 79, 0
6, 179199, Note_on_c, 0, 91, 0
6, 179280, Note_on_c, 0, 93, 84
6, 179280, Note_on_c, 0, 81, 84
6, 179439, Note_on_c, 0, 93, 0
6, 179439, Note_on_c, 0, 81, 0
6, 179520, Note_on_c, 0, 82, 84
6, 179679, Note_on_c, 0, 82, 0
6, 179760, Note_on_c, 0, 84, 84
6, 179760, Note_on_c, 0, 91, 84
6, 179919, Note_on_c, 0, 84, 0
6, 179919, Note_on_c, 0, 91, 0
6, 180000, Note_on_c, 0, 93, 84
6, 180000, Note_on_c, 0, 84, 84
6, 180159, Note_on_c, 0, 93, 0
6, 180159, Note_on_c, 0, 84, 0
6, 180240, Note_on_c, 0, 89, 84
6, 180240, Note_on_c, 0, 86, 84
6, 180399, Note_on_c, 0, 89, 0
6, 180399, Note_on_c, 0, 86, 0
6, 180480, Note_on_c, 0, 86, 84
6, 180639, Note_on_c, 0, 86, 0
6, 180720, Note_on_c, 0, 86, 84
6, 180720, Note_on_c, 0, 91, 84
6, 180879, Note_on_c, 0, 86, 0
6, 180879, Note_on_c, 0, 91, 0
6, 180960, Note_on_c, 0, 84, 84
6, 180960, Note_on_c, 0, 88, 84
6, 181119, Note_on_c, 0, 84, 0
6, 181119, Note_on_c, 0, 88, 0
6, 181200, Note_on_c, 0, 84, 84
6, 181200, Note_on_c, 0, 88, 84
6, 181359, Note_on_c, 0, 84, 0
6, 181359, Note_on_c, 0, 88, 0
6, 181440, Note_on_c, 0, 84, 84
6, 181440, Note_on_c, 0, 89, 84
6, 181679, Note_on_c, 0, 84, 0
6, 181679, Note_on_c, 0, 89, 0
6, 182400, Note_on_c, 0, 84, 84
6, 182400, Note_on_c, 0, 89, 84
6, 182639, Note_on_c, 0, 84, 0
6, 182639, Note_on_c, 0, 89, 0
6, 183360, Note_on_c, 0, 91, 84
6, 183360, Note_on_c, 0, 88, 84
6, 183599, Note_on_c, 0, 91, 0
6, 183599, Note_on_c, 0, 88, 0
6, 184320, Note_on_c, 0, 91, 84
6, 184320, Note_on_c, 0, 88, 84
6, 184559, Note_on_c, 0, 91, 0
6, 184559, Note_on_c, 0, 88, 0
6, 185280, Note_on_c, 0, 93, 84
6, 185280, Note_on_c, 0, 89, 84
6, 185519, Note_on_c, 0, 93, 0
6, 185519, Note_on_c, 0, 89, 0
6, 185760, Note_on_c, 0, 89, 84
6, 185760, Note_on_c, 0, 77, 84
6, 185919, Note_on_c, 0, 89, 0
6, 185919, Note_on_c, 0, 77, 0
6, 186000, Note_on_c, 0, 84, 84
6, 186159, Note_on_c, 0, 84, 0
6, 186240, Note_on_c, 0, 84, 84
6, 186399, Note_on_c, 0, 84, 0
6, 186480, Note_on_c, 0, 81, 84
6, 186639, Note_on_c, 0, 81, 0
6, 186720, Note_on_c, 0, 81, 84
6, 186879, Note_on_c, 0, 81, 0
6, 186960, Note_on_c, 0, 77, 84
6, 187119, Note_on_c, 0, 77, 0
6, 187200, Note_on_c, 0, 72, 84
6, 187359, Note_on_c, 0, 72, 0
6, 187680, Note_on_c, 0, 82, 84
6, 187839, Note_on_c, 0, 82, 0
6, 187920, Note_on_c, 0, 79, 84
6, 187920, Note_on_c, 0, 91, 84
6, 188079, Note_on_c, 0, 79, 0
6, 188079, Note_on_c, 0, 91, 0
6, 188160, Note_on_c, 0, 79, 84
6, 188160, Note_on_c, 0, 91, 84
6, 188319, Note_on_c, 0, 79, 0
6, 188319, Note_on_c, 0, 91, 0
6, 188400, Note_on_c, 0, 88, 84
6, 188400, Note_on_c, 0, 76, 84
6, 188559, Note_on_c, 0, 88, 0
6, 188559, Note_on_c, 0, 76, 0
6, 188640, Note_on_c, 0, 76, 84
6, 188640, Note_on_c, 0, 88, 84
6, 188799, Note_on_c, 0, 76, 0
6, 188799, Note_on_c, 0, 88, 0
6, 188880, Note_on_c, 0, 72, 84
6, 188880, Note_on_c, 0, 84, 84
6, 189039, Note_on_c, 0, 72, 0
6, 189039, Note_on_c, 0, 84, 0
6, 189120, Note_on_c, 0, 77, 84
6, 189120, Note_on_c, 0, 89, 84
6, 189279, Note_on_c, 0, 77, 0
6, 189279, Note_on_c, 0, 89, 0
6, 190080, Note_on_c, 0, 89, 84
6, 190080, Note_on_c, 0, 84, 84
6, 190319, Note_on_c, 0, 89, 0
6, 190319, Note_on_c, 0, 84, 0
6, 191040, Note_on_c, 0, 91, 84
6, 191040, Note_on_c, 0, 88, 84
6, 191279, Note_on_c, 0, 91, 0
6, 191279, Note_on_c, 0, 88, 0
6, 192000, Note_on_c, 0, 88, 84
6, 192000, Note_on_c, 0, 91, 84
6, 192239, Note_on_c, 0, 88, 0
6, 192239, Note_on_c, 0, 91, 0
6, 192960, Note_on_c, 0, 93, 84
6, 192960, Note_on_c, 0, 89, 84
6, 193199, Note_on_c, 0, 93, 0
6, 193199, Note_on_c, 0, 89, 0
6, 193440, Note_on_c, 0, 89, 84
6, 193599, Note_on_c, 0, 89, 0
6, 193680, Note_on_c, 0, 84, 84
6, 193839, Note_on_c, 0, 84, 0
6, 193920, Note_on_c, 0, 84, 84
6, 194079, Note_on_c, 0, 84, 0
6, 194160, Note_on_c, 0, 81, 84
6, 194319, Note_on_c, 0, 81, 0
6, 194400, Note_on_c, 0, 81, 84
6, 194559, Note_on_c, 0, 81, 0
6, 194640, Note_on_c, 0, 81, 84
6, 194799, Note_on_c, 0, 81, 0
6, 194880, Note_on_c, 0, 81, 84
6, 194880, Note_on_c, 0, 84, 84
6, 195039, Note_on_c, 0, 81, 0
6, 195039, Note_on_c, 0, 84, 0
6, 195360, Note_on_c, 0, 84, 84
6, 195519, Note_on_c, 0, 84, 0
6, 195600, Note_on_c, 0, 81, 84
6, 195600, Note_on_c, 0, 93, 84
6, 195759, Note_on_c, 0, 81, 0
6, 195759, Note_on_c, 0, 93, 0
6, 195840, Note_on_c, 0, 93, 84
6, 195840, Note_on_c, 0, 81, 84
6, 195999, Note_on_c, 0, 93, 0
6, 195999, Note_on_c, 0, 81, 0
6, 196080, Note_on_c, 0, 78, 84
6, 196080, Note_on_c, 0, 90, 84
6, 196239, Note_on_c, 0, 78, 0
6, 196239, Note_on_c, 0, 90, 0
6, 196320, Note_on_c, 0, 90, 84
6, 196320, Note_on_c, 0, 78, 84
6, 196479, Note_on_c, 0, 90, 0
6, 196479, Note_on_c, 0, 78, 0
6, 196560, Note_on_c, 0, 74, 84
6, 196560, Note_on_c, 0, 86, 84
6, 196719, Note_on_c, 0, 74, 0
6, 196719, Note_on_c, 0, 86, 0
6, 196800, Note_on_c, 0, 91, 84
6, 196800, Note_on_c, 0, 79, 84
6, 196959, Note_on_c, 0, 91, 0
6, 196959, Note_on_c, 0, 79, 0
6, 197760, Note_on_c, 0, 82, 84
6, 197760, Note_on_c, 0, 91, 84
6, 197999, Note_on_c, 0, 82, 0
6, 197999, Note_on_c, 0, 91, 0
6, 198720, Note_on_c, 0, 84, 84
6, 198720, Note_on_c, 0, 93, 84
6, 198959, Note_on_c, 0, 84, 0
6, 198959, Note_on_c, 0, 93, 0
6, 199680, Note_on_c, 0, 84, 84
6, 199680, Note_on_c, 0, 89, 84
6, 199919, Note_on_c, 0, 84, 0
6, 199919, Note_on_c, 0, 89, 0
6, 200640, Note_on_c, 0, 89, 84
6, 200640, Note_on_c, 0, 86, 84
6, 200879, Note_on_c, 0, 89, 0
6, 200879, Note_on_c, 0, 86, 0
6, 201120, Note_on_c, 0, 82, 84
6, 201279, Note_on_c, 0, 82, 0
6, 201360, Note_on_c, 0, 77, 84
6, 201360, Note_on_c, 0, 89, 84
6, 201519, Note_on_c, 0, 77, 0
6, 201519, Note_on_c, 0, 89, 0
6, 201600, Note_on_c, 0, 77, 84
6, 201600, Note_on_c, 0, 89, 84
6, 201759, Note_on_c, 0, 77, 0
6, 201759, Note_on_c, 0, 89, 0
6, 201840, Note_on_c, 0, 86, 84
6, 201840, Note_on_c, 0, 74, 84
6, 201999, Note_on_c, 0, 86, 0
6, 201999, Note_on_c, 0, 74, 0
6, 202080, Note_on_c, 0, 86, 84
6, 202080, Note_on_c, 0, 74, 84
6, 202239, Note_on_c, 0, 86, 0
6, 202239, Note_on_c, 0, 74, 0
6, 202320, Note_on_c, 0, 70, 84
6, 202320, Note_on_c, 0, 82, 84
6, 202479, Note_on_c, 0, 70, 0
6, 202479, Note_on_c, 0, 82, 0
6, 202560, Note_on_c, 0, 77, 84
6, 202719, Note_on_c, 0, 77, 0
6, 203040, Note_on_c, 0, 87, 84
6, 203199, Note_on_c, 0, 87, 0
6, 203280, Note_on_c, 0, 84, 84
6, 203439, Note_on_c, 0, 84, 0
6, 203520, Note_on_c, 0, 84, 84
6, 203679, Note_on_c, 0, 84, 0
6, 203760, Note_on_c, 0, 81, 84
6, 203919, Note_on_c, 0, 81, 0
6, 204000, Note_on_c, 0, 81, 84
6, 204159, Note_on_c, 0, 81, 0
6, 204240, Note_on_c, 0, 77, 84
6, 204399, Note_on_c, 0, 77, 0
6, 204480, Note_on_c, 0, 82, 84
6, 204639, Note_on_c, 0, 82, 0
6, 205920, Note_on_c, 0, 74, 92
6, 205920, Note_on_c, 0, 77, 92
6, 206079, Note_on_c, 0, 74, 0
6, 206079, Note_on_c, 0, 77, 0
6, 206160, Note_on_c, 0, 77, 84
6, 206160, Note_on_c, 0, 82, 84
6, 206319, Note_on_c, 0, 77, 0
6, 206319, Note_on_c, 0, 82, 0
6, 206400, Note_on_c, 0, 77, 92
6, 206400, Note_on_c, 0, 82, 92
6, 206559, Note_on_c, 0, 77, 0
6, 206559, Note_on_c, 0, 82, 0
6, 206640, Note_on_c, 0, 82, 84
6, 206640, Note_on_c, 0, 86, 84
6, 206799, Note_on_c, 0, 82, 0
6, 206799, Note_on_c, 0, 86, 0
6, 207840, Note_on_c, 0, 74, 84
6, 207840, Note_on_c, 0, 77, 84
6, 207999, Note_on_c, 0, 74, 0
6, 207999, Note_on_c, 0, 77, 0
6, 208080, Note_on_c, 0, 77, 84
6, 208080, Note_on_c, 0, 82, 84
6, 208239, Note_on_c, 0, 77, 0
6, 208239, Note_on_c, 0, 82, 0
6, 208320, Note_on_c, 0, 74, 84
6, 208320, Note_on_c, 0, 82, 84
6, 208539, Note_on_c, 0, 74, 0
6, 208539, Note_on_c, 0, 82, 0
6, 208560, Note_on_c, 0, 82, 84
6, 208560, Note_on_c, 0, 86, 84
6, 208779, Note_on_c, 0, 82, 0
6, 208779, Note_on_c, 0, 86, 0
6, 208800, Note_on_c, 0, 82, 84
6, 209019, Note_on_c, 0, 82, 0
6, 209040, Note_on_c, 0, 91, 84
6, 209040, Note_on_c, 0, 84, 84
6, 209259, Note_on_c, 0, 91, 0
6, 209259, Note_on_c, 0, 84, 0
6, 209280, Note_on_c, 0, 91, 84
6, 209280, Note_on_c, 0, 84, 84
6, 209499, Note_on_c, 0, 91, 0
6, 209499, Note_on_c, 0, 84, 0
6, 209520, Note_on_c, 0, 88, 84
6, 209520, Note_on_c, 0, 84, 84
6, 209759, Note_on_c, 0, 88, 0
6, 209759, Note_on_c, 0, 84, 0
6, 210720, Note_on_c, 0, 82, 84
6, 210939, Note_on_c, 0, 82, 0
6, 210960, Note_on_c, 0, 91, 84
6, 210960, Note_on_c, 0, 84, 84
6, 211179, Note_on_c, 0, 91, 0
6, 211179, Note_on_c, 0, 84, 0
6, 211200, Note_on_c, 0, 84, 84
6, 211200, Note_on_c, 0, 91, 84
6, 211419, Note_on_c, 0, 84, 0
6, 211419, Note_on_c, 0, 91, 0
6, 211440, Note_on_c, 0, 88, 84
6, 211440, Note_on_c, 0, 84, 84
6, 211659, Note_on_c, 0, 88, 0
6, 211659, Note_on_c, 0, 84, 0
6, 211680, Note_on_c, 0, 82, 84
6, 211899, Note_on_c, 0, 82, 0
6, 211920, Note_on_c, 0, 84, 84
6, 211920, Note_on_c, 0, 91, 84
6, 212139, Note_on_c, 0, 84, 0
6, 212139, Note_on_c, 0, 91, 0
6, 212160, Note_on_c, 0, 84, 84
6, 212160, Note_on_c, 0, 91, 84
6, 212379, Note_on_c, 0, 84, 0
6, 212379, Note_on_c, 0, 91, 0
6, 212400, Note_on_c, 0, 84, 84
6, 212400, Note_on_c, 0, 88, 84
6, 212619, Note_on_c, 0, 84, 0
6, 212619, Note_on_c, 0, 88, 0
6, 212640, Note_on_c, 0, 82, 84
6, 212859, Note_on_c, 0, 82, 0
6, 212880, Note_on_c, 0, 84, 84
6, 212880, Note_on_c, 0, 91, 84
6, 213099, Note_on_c, 0, 84, 0
6, 213099, Note_on_c, 0, 91, 0
6, 213120, Note_on_c, 0, 84, 84
6, 213120, Note_on_c, 0, 91, 84
6, 213339, Note_on_c, 0, 84, 0
6, 213339, Note_on_c, 0, 91, 0
6, 213360, Note_on_c, 0, 84, 84
6, 213360, Note_on_c, 0, 88, 84
6, 213579, Note_on_c, 0, 84, 0
6, 213579, Note_on_c, 0, 88, 0
6, 213600, Note_on_c, 0, 82, 84
6, 213819, Note_on_c, 0, 82, 0
6, 213840, Note_on_c, 0, 91, 84
6, 213840, Note_on_c, 0, 84, 84
6, 214059, Note_on_c, 0, 91, 0
6, 214059, Note_on_c, 0, 84, 0
6, 214080, Note_on_c, 0, 91, 84
6, 214080, Note_on_c, 0, 84, 84
6, 214299, Note_on_c, 0, 91, 0
6, 214299, Note_on_c, 0, 84, 0
6, 214320, Note_on_c, 0, 84, 84
6, 214539, Note_on_c, 0, 84, 0
6, 214560, Note_on_c, 0, 84, 84
6, 214779, Note_on_c, 0, 84, 0
6, 214800, Note_on_c, 0, 84, 84
6, 215019, Note_on_c, 0, 84, 0
6, 215040, Note_on_c, 0, 85, 52
6, 215279, Note_on_c, 0, 85, 0
6, 217920, Control_c, 0, 11, 96
6, 218400, Note_on_c, 0, 84, 68
6, 218400, Control_c, 0, 11, 96
6, 218480, Control_c, 0, 11, 99
6, 218560, Control_c, 0, 11, 101
6, 218640, Control_c, 0, 11, 104
6, 218720, Control_c, 0, 11, 106
6, 218800, Control_c, 0, 11, 109
6, 218879, Note_on_c, 0, 84, 0
6, 218880, Note_on_c, 0, 85, 68
6, 218880, Control_c, 0, 11, 112
6, 218960, Control_c, 0, 11, 114
6, 219040, Control_c, 0, 11, 117
6, 219120, Control_c, 0, 11, 119
6, 219200, Control_c, 0, 11, 122
6, 219280, Control_c, 0, 11, 124
6, 219360, Control_c, 0, 11, 127
6, 219480, Control_c, 0, 11, 127
6, 219520, Control_c, 0, 11, 124
6, 219560, Control_c, 0, 11, 122
6, 219599, Note_on_c, 0, 85, 0
6, 219600, Note_on_c, 0, 87, 68
6, 219600, Control_c, 0, 11, 119
6, 219640, Control_c, 0, 11, 117
6, 219680, Control_c, 0, 11, 114
6, 219719, Note_on_c, 0, 87, 0
6, 219720, Note_on_c, 0, 89, 68
6, 219720, Control_c, 0, 11, 112
6, 219760, Control_c, 0, 11, 109
6, 219800, Control_c, 0, 11, 106
6, 219839, Note_on_c, 0, 89, 0
6, 219840, Control_c, 0, 11, 104
6, 219840, Note_on_c, 0, 80, 68
6, 219880, Control_c, 0, 11, 101
6, 219920, Control_c, 0, 11, 99
6, 219960, Control_c, 0, 11, 96
6, 220079, Note_on_c, 0, 80, 0
6, 222000, Control_c, 0, 11, 80
6, 222240, Note_on_c, 0, 84, 68
6, 222240, Control_c, 0, 11, 80
6, 222280, Control_c, 0, 11, 81
6, 222320, Control_c, 0, 11, 83
6, 222360, Control_c, 0, 11, 84
6, 222400, Control_c, 0, 11, 85
6, 222440, Control_c, 0, 11, 87
6, 222480, Control_c, 0, 11, 88
6, 222520, Control_c, 0, 11, 89
6, 222560, Control_c, 0, 11, 91
6, 222600, Control_c, 0, 11, 92
6, 222640, Control_c, 0, 11, 93
6, 222680, Control_c, 0, 11, 95
6, 222719, Note_on_c, 0, 84, 0
6, 222720, Note_on_c, 0, 85, 68
6, 222720, Control_c, 0, 11, 96
6, 222959, Note_on_c, 0, 85, 0
6, 223200, Control_c, 0, 11, 96
6, 223440, Note_on_c, 0, 89, 68
6, 223440, Control_c, 0, 11, 99
6, 223679, Note_on_c, 0, 89, 0
6, 223680, Control_c, 0, 11, 101
6, 223920, Control_c, 0, 11, 104
6, 224160, Note_on_c, 0, 89, 68
6, 224160, Control_c, 0, 11, 106
6, 224399, Note_on_c, 0, 89, 0
6, 224400, Control_c, 0, 11, 109
6, 224640, Control_c, 0, 11, 112
6, 224880, Control_c, 0, 11, 114
6, 225120, Note_on_c, 0, 91, 68
6, 225120, Control_c, 0, 11, 117
6, 225359, Note_on_c, 0, 91, 0
6, 225360, Control_c, 0, 11, 119
6, 225600, Control_c, 0, 11, 122
6, 225840, Control_c, 0, 11, 127
6, 226080, Note_on_c, 0, 84, 68
6, 226319, Note_on_c, 0, 84, 0
6, 226560, Note_on_c, 0, 77, 52
6, 227519, Note_on_c, 0, 77, 0
6, 227520, Note_on_c, 0, 84, 52
6, 228239, Note_on_c, 0, 84, 0
6, 228240, Note_on_c, 0, 86, 52
6, 228459, Note_on_c, 0, 86, 0
6, 228480, Note_on_c, 0, 86, 52
6, 228719, Note_on_c, 0, 86, 0
6, 228720, Note_on_c, 0, 79, 52
6, 228939, Note_on_c, 0, 79, 0
6, 228960, Note_on_c, 0, 79, 52
6, 229199, Note_on_c, 0, 79, 0
6, 229200, Note_on_c, 0, 81, 52
6, 229439, Note_on_c, 0, 81, 0
6, 229440, Note_on_c, 0, 82, 52
6, 229679, Note_on_c, 0, 82, 0
6, 229920, Note_on_c, 0, 84, 52
6, 230159, Note_on_c, 0, 84, 0
6, 230400, Note_on_c, 0, 81, 52
6, 231359, Note_on_c, 0, 81, 0
6, 231360, Note_on_c, 0, 84, 52
6, 231599, Note_on_c, 0, 84, 0
6, 231600, Note_on_c, 0, 86, 52
6, 231679, Note_on_c, 0, 86, 0
6, 231680, Note_on_c, 0, 84, 52
6, 231759, Note_on_c, 0, 84, 0
6, 231760, Note_on_c, 0, 83, 52
6, 231839, Note_on_c, 0, 83, 0
6, 231840, Note_on_c, 0, 84, 52
6, 232079, Note_on_c, 0, 84, 0
6, 232080, Note_on_c, 0, 85, 52
6, 232319, Note_on_c, 0, 85, 0
6, 232320, Note_on_c, 0, 88, 52
6, 232559, Note_on_c, 0, 88, 0
6, 232560, Note_on_c, 0, 86, 52
6, 232799, Note_on_c, 0, 86, 0
6, 232800, Note_on_c, 0, 79, 52
6, 233039, Note_on_c, 0, 79, 0
6, 233040, Note_on_c, 0, 81, 52
6, 233279, Note_on_c, 0, 81, 0
6, 233280, Note_on_c, 0, 82, 52
6, 233519, Note_on_c, 0, 82, 0
6, 233760, Note_on_c, 0, 84, 52
6, 233999, Note_on_c, 0, 84, 0
6, 234240, Note_on_c, 0, 81, 44
6, 234459, Note_on_c, 0, 81, 0
6, 234480, Note_on_c, 0, 81, 44
6, 234939, Note_on_c, 0, 81, 0
6, 234960, Note_on_c, 0, 79, 44
6, 235079, Note_on_c, 0, 79, 0
6, 235080, Note_on_c, 0, 81, 44
6, 235199, Note_on_c, 0, 81, 0
6, 235200, Note_on_c, 0, 82, 44
6, 235359, Note_on_c, 0, 82, 0
6, 235440, Note_on_c, 0, 82, 44
6, 235899, Note_on_c, 0, 82, 0
6, 235920, Note_on_c, 0, 81, 44
6, 236039, Note_on_c, 0, 81, 0
6, 236040, Note_on_c, 0, 83, 44
6, 236159, Note_on_c, 0, 83, 0
6, 236160, Note_on_c, 0, 84, 44
6, 236319, Note_on_c, 0, 84, 0
6, 236400, Note_on_c, 0, 84, 44
6, 236859, Note_on_c, 0, 84, 0
6, 236880, Note_on_c, 0, 82, 44
6, 236999, Note_on_c, 0, 82, 0
6, 237000, Note_on_c, 0, 84, 44
6, 237119, Note_on_c, 0, 84, 0
6, 237120, Note_on_c, 0, 86, 44
6, 237279, Note_on_c, 0, 86, 0
6, 237360, Note_on_c, 0, 86, 44
6, 237819, Note_on_c, 0, 86, 0
6, 237840, Note_on_c, 0, 84, 44
6, 237959, Note_on_c, 0, 84, 0
6, 237960, Note_on_c, 0, 86, 44
6, 238079, Note_on_c, 0, 86, 0
6, 238080, Note_on_c, 0, 88, 44
6, 238239, Note_on_c, 0, 88, 0
6, 238320, Note_on_c, 0, 88, 44
6, 238479, Note_on_c, 0, 88, 0
6, 238560, Note_on_c, 0, 88, 44
6, 238719, Note_on_c, 0, 88, 0
6, 238800, Note_on_c, 0, 89, 44
6, 238959, Note_on_c, 0, 89, 0
6, 239040, Note_on_c, 0, 86, 44
6, 239199, Note_on_c, 0, 86, 0
6, 239280, Note_on_c, 0, 86, 44
6, 239439, Note_on_c, 0, 86, 0
6, 239520, Note_on_c, 0, 86, 44
6, 239679, Note_on_c, 0, 86, 0
6, 239760, Note_on_c, 0, 88, 44
6, 239919, Note_on_c, 0, 88, 0
6, 240000, Note_on_c, 0, 84, 44
6, 240159, Note_on_c, 0, 84, 0
6, 240240, Note_on_c, 0, 84, 44
6, 240399, Note_on_c, 0, 84, 0
6, 240480, Note_on_c, 0, 84, 44
6, 240639, Note_on_c, 0, 84, 0
6, 240720, Note_on_c, 0, 86, 44
6, 240879, Note_on_c, 0, 86, 0
6, 240960, Note_on_c, 0, 82, 44
6, 241119, Note_on_c, 0, 82, 0
6, 241200, Note_on_c, 0, 82, 44
6, 241359, Note_on_c, 0, 82, 0
6, 241440, Note_on_c, 0, 82, 44
6, 241599, Note_on_c, 0, 82, 0
6, 241680, Note_on_c, 0, 84, 44
6, 241839, Note_on_c, 0, 84, 0
6, 241920, Note_on_c, 0, 81, 76
6, 241920, Note_on_c, 0, 77, 76
6, 242139, Note_on_c, 0, 81, 0
6, 242139, Note_on_c, 0, 77, 0
6, 242160, Note_on_c, 0, 81, 76
6, 242160, Note_on_c, 0, 77, 76
6, 242399, Note_on_c, 0, 81, 0
6, 242399, Note_on_c, 0, 77, 0
6, 242640, Note_on_c, 0, 78, 76
6, 242640, Note_on_c, 0, 81, 76
6, 242859, Note_on_c, 0, 78, 0
6, 242859, Note_on_c, 0, 81, 0
6, 242880, Note_on_c, 0, 79, 76
6, 242880, Note_on_c, 0, 82, 76
6, 243099, Note_on_c, 0, 79, 0
6, 243099, Note_on_c, 0, 82, 0
6, 243120, Note_on_c, 0, 79, 76
6, 243120, Note_on_c, 0, 82, 76
6, 243359, Note_on_c, 0, 79, 0
6, 243359, Note_on_c, 0, 82, 0
6, 243600, Note_on_c, 0, 80, 76
6, 243600, Note_on_c, 0, 83, 76
6, 243819, Note_on_c, 0, 80, 0
6, 243819, Note_on_c, 0, 83, 0
6, 243840, Note_on_c, 0, 81, 76
6, 243840, Note_on_c, 0, 84, 76
6, 244059, Note_on_c, 0, 81, 0
6, 244059, Note_on_c, 0, 84, 0
6, 244080, Note_on_c, 0, 81, 76
6, 244080, Note_on_c, 0, 84, 76
6, 244319, Note_on_c, 0, 81, 0
6, 244319, Note_on_c, 0, 84, 0
6, 244560, Note_on_c, 0, 81, 76
6, 244560, Note_on_c, 0, 84, 76
6, 244779, Note_on_c, 0, 81, 0
6, 244779, Note_on_c, 0, 84, 0
6, 244800, Note_on_c, 0, 82, 76
6, 244800, Note_on_c, 0, 86, 76
6, 245019, Note_on_c, 0, 82, 0
6, 245019, Note_on_c, 0, 86, 0
6, 245040, Note_on_c, 0, 82, 76
6, 245040, Note_on_c, 0, 86, 76
6, 245279, Note_on_c, 0, 82, 0
6, 245279, Note_on_c, 0, 86, 0
6, 245520, Note_on_c, 0, 86, 76
6, 245739, Note_on_c, 0, 86, 0
6, 245760, Note_on_c, 0, 84, 76
6, 245760, Note_on_c, 0, 88, 76
6, 245919, Note_on_c, 0, 84, 0
6, 245919, Note_on_c, 0, 88, 0
6, 246000, Note_on_c, 0, 88, 76
6, 246000, Note_on_c, 0, 84, 76
6, 246159, Note_on_c, 0, 88, 0
6, 246159, Note_on_c, 0, 84, 0
6, 246240, Note_on_c, 0, 88, 76
6, 246240, Note_on_c, 0, 84, 76
6, 246399, Note_on_c, 0, 88, 0
6, 246399, Note_on_c, 0, 84, 0
6, 246480, Note_on_c, 0, 89, 76
6, 246480, Note_on_c, 0, 84, 76
6, 246639, Note_on_c, 0, 89, 0
6, 246639, Note_on_c, 0, 84, 0
6, 246720, Note_on_c, 0, 86, 76
6, 246720, Note_on_c, 0, 82, 76
6, 246879, Note_on_c, 0, 86, 0
6, 246879, Note_on_c, 0, 82, 0
6, 246960, Note_on_c, 0, 82, 76
6, 246960, Note_on_c, 0, 86, 76
6, 247119, Note_on_c, 0, 82, 0
6, 247119, Note_on_c, 0, 86, 0
6, 247200, Note_on_c, 0, 86, 76
6, 247200, Note_on_c, 0, 82, 76
6, 247359, Note_on_c, 0, 86, 0
6, 247359, Note_on_c, 0, 82, 0
6, 247440, Note_on_c, 0, 83, 76
6, 247440, Note_on_c, 0, 88, 76
6, 247599, Note_on_c, 0, 83, 0
6, 247599, Note_on_c, 0, 88, 0
6, 247680, Note_on_c, 0, 81, 76
6, 247680, Note_on_c, 0, 84, 76
6, 247899, Note_on_c, 0, 81, 0
6, 247899, Note_on_c, 0, 84, 0
6, 247920, Note_on_c, 0, 81, 76
6, 247920, Note_on_c, 0, 84, 76
6, 248139, Note_on_c, 0, 81, 0
6, 248139, Note_on_c, 0, 84, 0
6, 248160, Note_on_c, 0, 84, 76
6, 248160, Note_on_c, 0, 81, 76
6, 248379, Note_on_c, 0, 84, 0
6, 248379, Note_on_c, 0, 81, 0
6, 248400, Note_on_c, 0, 86, 76
6, 248400, Note_on_c, 0, 81, 76
6, 248619, Note_on_c, 0, 86, 0
6, 248619, Note_on_c, 0, 81, 0
6, 248640, Note_on_c, 0, 82, 76
6, 248640, Note_on_c, 0, 79, 76
6, 248859, Note_on_c, 0, 82, 0
6, 248859, Note_on_c, 0, 79, 0
6, 248880, Note_on_c, 0, 82, 76
6, 248880, Note_on_c, 0, 79, 76
6, 249099, Note_on_c, 0, 82, 0
6, 249099, Note_on_c, 0, 79, 0
6, 249120, Note_on_c, 0, 82, 76
6, 249120, Note_on_c, 0, 79, 76
6, 249339, Note_on_c, 0, 82, 0
6, 249339, Note_on_c, 0, 79, 0
6, 249360, Note_on_c, 0, 84, 76
6, 249579, Note_on_c, 0, 84, 0
6, 249600, Note_on_c, 0, 84, 80
6, 251499, Note_on_c, 0, 84, 0
6, 251520, Note_on_c, 0, 84, 80
6, 252480, Note_on_c, 0, 89, 80
6, 253419, Note_on_c, 0, 84, 0
6, 253419, Note_on_c, 0, 89, 0
6, 253440, Note_on_c, 0, 89, 84
6, 253440, Note_on_c, 0, 86, 84
6, 253899, Note_on_c, 0, 89, 0
6, 253899, Note_on_c, 0, 86, 0
6, 253920, Note_on_c, 0, 82, 84
6, 253920, Note_on_c, 0, 86, 84
6, 255339, Note_on_c, 0, 82, 0
6, 255339, Note_on_c, 0, 86, 0
6, 255360, Note_on_c, 0, 86, 84
6, 255360, Note_on_c, 0, 82, 84
6, 255599, Note_on_c, 0, 86, 0
6, 255599, Note_on_c, 0, 82, 0
6, 264000, Note_on_c, 0, 86, 44
6, 264000, Note_on_c, 0, 82, 44
6, 264119, Note_on_c, 0, 86, 0
6, 264119, Note_on_c, 0, 82, 0
6, 264120, Note_on_c, 0, 87, 44
6, 264120, Note_on_c, 0, 84, 44
6, 264219, Note_on_c, 0, 87, 0
6, 264219, Note_on_c, 0, 84, 0
6, 264240, Note_on_c, 0, 77, 44
6, 264240, Note_on_c, 0, 84, 44
6, 264399, Note_on_c, 0, 77, 0
6, 264399, Note_on_c, 0, 84, 0
6, 265920, Note_on_c, 0, 87, 44
6, 265920, Note_on_c, 0, 84, 44
6, 266039, Note_on_c, 0, 87, 0
6, 266039, Note_on_c, 0, 84, 0
6, 266040, Note_on_c, 0, 86, 44
6, 266040, Note_on_c, 0, 89, 44
6, 266139, Note_on_c, 0, 86, 0
6, 266139, Note_on_c, 0, 89, 0
6, 266160, Note_on_c, 0, 86, 44
6, 266160, Note_on_c, 0, 82, 44
6, 266319, Note_on_c, 0, 86, 0
6, 266319, Note_on_c, 0, 82, 0
6, 269280, Note_on_c, 0, 86, 44
6, 269424, Note_on_c, 0, 86, 0
6, 269440, Note_on_c, 0, 86, 44
6, 269584, Note_on_c, 0, 86, 0
6, 269600, Note_on_c, 0, 86, 44
6, 269744, Note_on_c, 0, 86, 0
6, 269760, Note_on_c, 0, 86, 44
6, 269879, Note_on_c, 0, 86, 0
6, 269880, Note_on_c, 0, 88, 44
6, 269979, Note_on_c, 0, 88, 0
6, 270000, Note_on_c, 0, 85, 44
6, 270159, Note_on_c, 0, 85, 0
6, 276960, Note_on_c, 0, 88, 44
6, 277439, Note_on_c, 0, 88, 0
6, 277440, Note_on_c, 0, 86, 44
6, 277919, Note_on_c, 0, 86, 0
6, 277920, Note_on_c, 0, 88, 44
6, 278399, Note_on_c, 0, 88, 0
6, 278400, Note_on_c, 0, 81, 44
6, 278639, Note_on_c, 0, 81, 0
6, 282720, Note_on_c, 0, 89, 44
6, 283679, Note_on_c, 0, 89, 0
6, 283680, Note_on_c, 0, 87, 44
6, 284159, Note_on_c, 0, 87, 0
6, 284160, Note_on_c, 0, 86, 44
6, 284639, Note_on_c, 0, 86, 0
6, 284640, Note_on_c, 0, 84, 44
6, 285119, Note_on_c, 0, 84, 0
6, 285120, Note_on_c, 0, 82, 44
6, 285599, Note_on_c, 0, 82, 0
6, 285600, Note_on_c, 0, 84, 44
6, 286079, Note_on_c, 0, 84, 0
6, 286080, Note_on_c, 0, 77, 44
6, 286319, Note_on_c, 0, 77, 0
6, 289440, Note_on_c, 0, 84, 44
6, 289440, Note_on_c, 0, 86, 44
6, 289919, Note_on_c, 0, 84, 0
6, 289920, Note_on_c, 0, 83, 44
6, 290399, Note_on_c, 0, 86, 0
6, 290399, Note_on_c, 0, 83, 0
6, 290400, Note_on_c, 0, 79, 44
6, 290400, Note_on_c, 0, 83, 44
6, 290639, Note_on_c, 0, 79, 0
6, 290639, Note_on_c, 0, 83, 0
6, 292800, Control_c, 0, 11, 64
6, 293280, Note_on_c, 0, 85, 76
6, 293280, Note_on_c, 0, 88, 76
6, 294219, Note_on_c, 0, 85, 0
6, 294219, Note_on_c, 0, 88, 0
6, 294240, Note_on_c, 0, 85, 76
6, 294240, Control_c, 0, 11, 64
6, 294550, Control_c, 0, 11, 67
6, 294639, Note_on_c, 0, 85, 0
6, 294720, Note_on_c, 0, 86, 76
6, 294860, Control_c, 0, 11, 69
6, 295119, Note_on_c, 0, 86, 0
6, 295170, Control_c, 0, 11, 72
6, 295200, Note_on_c, 0, 88, 76
6, 295480, Control_c, 0, 11, 75
6, 295599, Note_on_c, 0, 88, 0
6, 295680, Note_on_c, 0, 89, 76
6, 295790, Control_c, 0, 11, 77
6, 296079, Note_on_c, 0, 89, 0
6, 296100, Control_c, 0, 11, 80
6, 296410, Control_c, 0, 11, 82
6, 296720, Control_c, 0, 11, 85
6, 297030, Control_c, 0, 11, 88
6, 297340, Control_c, 0, 11, 90
6, 297650, Control_c, 0, 11, 93
6, 297960, Control_c, 0, 11, 96
6, 298080, Note_on_c, 0, 83, 76
6, 298270, Control_c, 0, 11, 98
6, 298479, Note_on_c, 0, 83, 0
6, 298560, Note_on_c, 0, 84, 76
6, 298580, Control_c, 0, 11, 101
6, 298890, Control_c, 0, 11, 103
6, 298959, Note_on_c, 0, 84, 0
6, 299040, Note_on_c, 0, 86, 76
6, 299200, Control_c, 0, 11, 106
6, 299439, Note_on_c, 0, 86, 0
6, 299510, Control_c, 0, 11, 109
6, 299520, Note_on_c, 0, 87, 76
6, 299820, Control_c, 0, 11, 111
6, 299919, Note_on_c, 0, 87, 0
6, 301440, Control_c, 0, 11, 127
6, 301920, Note_on_c, 0, 89, 76
6, 301920, Note_on_c, 0, 77, 76
6, 302064, Note_on_c, 0, 89, 0
6, 302064, Note_on_c, 0, 77, 0
6, 302080, Note_on_c, 0, 77, 76
6, 302080, Note_on_c, 0, 89, 76
6, 302224, Note_on_c, 0, 77, 0
6, 302224, Note_on_c, 0, 89, 0
6, 302240, Note_on_c, 0, 89, 76
6, 302240, Note_on_c, 0, 77, 76
6, 302384, Note_on_c, 0, 89, 0
6, 302384, Note_on_c, 0, 77, 0
6, 302400, Note_on_c, 0, 77, 76
6, 302400, Note_on_c, 0, 89, 76
6, 302639, Note_on_c, 0, 77, 0
6, 302639, Note_on_c, 0, 89, 0
6, 302880, Note_on_c, 0, 77, 76
6, 302880, Note_on_c, 0, 89, 76
6, 303024, Note_on_c, 0, 77, 0
6, 303024, Note_on_c, 0, 89, 0
6, 303040, Note_on_c, 0, 77, 76
6, 303040, Note_on_c, 0, 89, 76
6, 303184, Note_on_c, 0, 77, 0
6, 303184, Note_on_c, 0, 89, 0
6, 303200, Note_on_c, 0, 89, 76
6, 303200, Note_on_c, 0, 77, 76
6, 303344, Note_on_c, 0, 89, 0
6, 303344, Note_on_c, 0, 77, 0
6, 303360, Note_on_c, 0, 89, 76
6, 303360, Note_on_c, 0, 77, 76
6, 303599, Note_on_c, 0, 89, 0
6, 303599, Note_on_c, 0, 77, 0
6, 303840, Note_on_c, 0, 82, 76
6, 303984, Note_on_c, 0, 82, 0
6, 304000, Note_on_c, 0, 82, 76
6, 304144, Note_on_c, 0, 82, 0
6, 304160, Note_on_c, 0, 82, 76
6, 304304, Note_on_c, 0, 82, 0
6, 304320, Note_on_c, 0, 82, 76
6, 304559, Note_on_c, 0, 82, 0
6, 304800, Note_on_c, 0, 82, 76
6, 304944, Note_on_c, 0, 82, 0
6, 304960, Note_on_c, 0, 82, 76
6, 305104, Note_on_c, 0, 82, 0
6, 305120, Note_on_c, 0, 82, 76
6, 305264, Note_on_c, 0, 82, 0
6, 305280, Note_on_c, 0, 82, 76
6, 305519, Note_on_c, 0, 82, 0
6, 305760, Note_on_c, 0, 82, 76
6, 305904, Note_on_c, 0, 82, 0
6, 305920, Note_on_c, 0, 87, 76
6, 306064, Note_on_c, 0, 87, 0
6, 306080, Note_on_c, 0, 87, 76
6, 306224, Note_on_c, 0, 87, 0
6, 306240, Note_on_c, 0, 87, 76
6, 306479, Note_on_c, 0, 87, 0
6, 306720, Note_on_c, 0, 87, 76
6, 306864, Note_on_c, 0, 87, 0
6, 306880, Note_on_c, 0, 87, 76
6, 307024, Note_on_c, 0, 87, 0
6, 307040, Note_on_c, 0, 87, 76
6, 307184, Note_on_c, 0, 87, 0
6, 307200, Note_on_c, 0, 87, 76
6, 307439, Note_on_c, 0, 87, 0
6, 307680, Note_on_c, 0, 75, 76
6, 307680, Note_on_c, 0, 87, 76
6, 307824, Note_on_c, 0, 75, 0
6, 307824, Note_on_c, 0, 87, 0
6, 307840, Note_on_c, 0, 92, 76
6, 307840, Note_on_c, 0, 80, 76
6, 307984, Note_on_c, 0, 92, 0
6, 307984, Note_on_c, 0, 80, 0
6, 308000, Note_on_c, 0, 92, 76
6, 308000, Note_on_c, 0, 80, 76
6, 308144, Note_on_c, 0, 92, 0
6, 308144, Note_on_c, 0, 80, 0
6, 308160, Note_on_c, 0, 80, 76
6, 308160, Note_on_c, 0, 92, 76
6, 308399, Note_on_c, 0, 80, 0
6, 308399, Note_on_c, 0, 92, 0
6, 308640, Note_on_c, 0, 80, 76
6, 308640, Note_on_c, 0, 92, 76
6, 308784, Note_on_c, 0, 80, 0
6, 308784, Note_on_c, 0, 92, 0
6, 308800, Note_on_c, 0, 92, 76
6, 308800, Note_on_c, 0, 80, 76
6, 308944, Note_on_c, 0, 92, 0
6, 308944, Note_on_c, 0, 80, 0
6, 308960, Note_on_c, 0, 80, 76
6, 308960, Note_on_c, 0, 92, 76
6, 309104, Note_on_c, 0, 80, 0
6, 309104, Note_on_c, 0, 92, 0
6, 309120, Note_on_c, 0, 92, 76
6, 309120, Note_on_c, 0, 80, 76
6, 309359, Note_on_c, 0, 92, 0
6, 309359, Note_on_c, 0, 80, 0
6, 309600, Note_on_c, 0, 77, 76
6, 309600, Note_on_c, 0, 89, 76
6, 309999, Note_on_c, 0, 77, 0
6, 309999, Note_on_c, 0, 89, 0
6, 310080, Note_on_c, 0, 91, 76
6, 310080, Note_on_c, 0, 79, 76
6, 310479, Note_on_c, 0, 91, 0
6, 310479, Note_on_c, 0, 79, 0
6, 310560, Note_on_c, 0, 80, 76
6, 310560, Note_on_c, 0, 92, 76
6, 310959, Note_on_c, 0, 80, 0
6, 310959, Note_on_c, 0, 92, 0
6, 311040, Note_on_c, 0, 82, 76
6, 311439, Note_on_c, 0, 82, 0
6, 311520, Note_on_c, 0, 84, 76
6, 311919, Note_on_c, 0, 84, 0
6, 312000, Note_on_c, 0, 85, 76
6, 312399, Note_on_c, 0, 85, 0
6, 312480, Note_on_c, 0, 86, 76
6, 312879, Note_on_c, 0, 86, 0
6, 312960, Note_on_c, 0, 88, 76
6, 313359, Note_on_c, 0, 88, 0
6, 313440, Note_on_c, 0, 88, 76
6, 313440, Note_on_c, 0, 76, 76
6, 313839, Note_on_c, 0, 88, 0
6, 313839, Note_on_c, 0, 76, 0
6, 313920, Note_on_c, 0, 89, 76
6, 313920, Note_on_c, 0, 77, 76
6, 314319, Note_on_c, 0, 89, 0
6, 314319, Note_on_c, 0, 77, 0
6, 314400, Note_on_c, 0, 79, 76
6, 314400, Note_on_c, 0, 91, 76
6, 314799, Note_on_c, 0, 79, 0
6, 314799, Note_on_c, 0, 91, 0
6, 314880, Note_on_c, 0, 80, 76
6, 315279, Note_on_c, 0, 80, 0
6, 315360, Note_on_c, 0, 82, 76
6, 315759, Note_on_c, 0, 82, 0
6, 315840, Note_on_c, 0, 84, 76
6, 316239, Note_on_c, 0, 84, 0
6, 316320, Note_on_c, 0, 84, 76
6, 316719, Note_on_c, 0, 84, 0
6, 316800, Note_on_c, 0, 86, 76
6, 316944, Note_on_c, 0, 86, 0
6, 316960, Note_on_c, 0, 82, 76
6, 317104, Note_on_c, 0, 82, 0
6, 317120, Note_on_c, 0, 82, 76
6, 317264, Note_on_c, 0, 82, 0
6, 317280, Note_on_c, 0, 82, 76
6, 317424, Note_on_c, 0, 82, 0
6, 317440, Note_on_c, 0, 82, 76
6, 317584, Note_on_c, 0, 82, 0
6, 317600, Note_on_c, 0, 82, 76
6, 317744, Note_on_c, 0, 82, 0
6, 317760, Note_on_c, 0, 82, 76
6, 317904, Note_on_c, 0, 82, 0
6, 317920, Note_on_c, 0, 82, 76
6, 318064, Note_on_c, 0, 82, 0
6, 318080, Note_on_c, 0, 82, 76
6, 318224, Note_on_c, 0, 82, 0
6, 318240, Note_on_c, 0, 82, 76
6, 318384, Note_on_c, 0, 82, 0
6, 318400, Note_on_c, 0, 82, 76
6, 318544, Note_on_c, 0, 82, 0
6, 318560, Note_on_c, 0, 82, 76
6, 318704, Note_on_c, 0, 82, 0
6, 318720, Note_on_c, 0, 82, 76
6, 318864, Note_on_c, 0, 82, 0
6, 318880, Note_on_c, 0, 75, 76
6, 318880, Note_on_c, 0, 87, 76
6, 319024, Note_on_c, 0, 75, 0
6, 319024, Note_on_c, 0, 87, 0
6, 319040, Note_on_c, 0, 75, 76
6, 319040, Note_on_c, 0, 87, 76
6, 319184, Note_on_c, 0, 75, 0
6, 319184, Note_on_c, 0, 87, 0
6, 319200, Note_on_c, 0, 87, 76
6, 319200, Note_on_c, 0, 75, 76
6, 319344, Note_on_c, 0, 87, 0
6, 319344, Note_on_c, 0, 75, 0
6, 319360, Note_on_c, 0, 87, 76
6, 319360, Note_on_c, 0, 75, 76
6, 319504, Note_on_c, 0, 87, 0
6, 319504, Note_on_c, 0, 75, 0
6, 319520, Note_on_c, 0, 87, 76
6, 319520, Note_on_c, 0, 75, 76
6, 319664, Note_on_c, 0, 87, 0
6, 319664, Note_on_c, 0, 75, 0
6, 319680, Note_on_c, 0, 75, 76
6, 319680, Note_on_c, 0, 87, 76
6, 319824, Note_on_c, 0, 75, 0
6, 319824, Note_on_c, 0, 87, 0
6, 319840, Note_on_c, 0, 87, 76
6, 319840, Note_on_c, 0, 75, 76
6, 319984, Note_on_c, 0, 87, 0
6, 319984, Note_on_c, 0, 75, 0
6, 320000, Note_on_c, 0, 75, 76
6, 320000, Note_on_c, 0, 87, 76
6, 320144, Note_on_c, 0, 75, 0
6, 320144, Note_on_c, 0, 87, 0
6, 320160, Note_on_c, 0, 88, 76
6, 320160, Note_on_c, 0, 76, 76
6, 320304, Note_on_c, 0, 88, 0
6, 320304, Note_on_c, 0, 76, 0
6, 320320, Note_on_c, 0, 76, 76
6, 320320, Note_on_c, 0, 88, 76
6, 320464, Note_on_c, 0, 76, 0
6, 320464, Note_on_c, 0, 88, 0
6, 320480, Note_on_c, 0, 88, 76
6, 320480, Note_on_c, 0, 76, 76
6, 320624, Note_on_c, 0, 88, 0
6, 320624, Note_on_c, 0, 76, 0
6, 320640, Note_on_c, 0, 88, 76
6, 320640, Note_on_c, 0, 76, 76
6, 320784, Note_on_c, 0, 88, 0
6, 320784, Note_on_c, 0, 76, 0
6, 320800, Note_on_c, 0, 81, 76
6, 320944, Note_on_c, 0, 81, 0
6, 320960, Note_on_c, 0, 81, 76
6, 321104, Note_on_c, 0, 81, 0
6, 321120, Note_on_c, 0, 81, 76
6, 321264, Note_on_c, 0, 81, 0
6, 321280, Note_on_c, 0, 81, 76
6, 321424, Note_on_c, 0, 81, 0
6, 321440, Note_on_c, 0, 81, 76
6, 321584, Note_on_c, 0, 81, 0
6, 321600, Note_on_c, 0, 81, 76
6, 321744, Note_on_c, 0, 81, 0
6, 321760, Note_on_c, 0, 81, 76
6, 321904, Note_on_c, 0, 81, 0
6, 321920, Note_on_c, 0, 81, 76
6, 322064, Note_on_c, 0, 81, 0
6, 322080, Note_on_c, 0, 81, 76
6, 322224, Note_on_c, 0, 81, 0
6, 322240, Note_on_c, 0, 81, 76
6, 322384, Note_on_c, 0, 81, 0
6, 322400, Note_on_c, 0, 81, 76
6, 322544, Note_on_c, 0, 81, 0
6, 322560, Note_on_c, 0, 81, 76
6, 322704, Note_on_c, 0, 81, 0
6, 322720, Note_on_c, 0, 86, 76
6, 322864, Note_on_c, 0, 86, 0
6, 322880, Note_on_c, 0, 86, 76
6, 323024, Note_on_c, 0, 86, 0
6, 323040, Note_on_c, 0, 86, 76
6, 323184, Note_on_c, 0, 86, 0
6, 323200, Note_on_c, 0, 86, 76
6, 323344, Note_on_c, 0, 86, 0
6, 323360, Note_on_c, 0, 86, 76
6, 323504, Note_on_c, 0, 86, 0
6, 323520, Note_on_c, 0, 86, 76
6, 323664, Note_on_c, 0, 86, 0
6, 323680, Note_on_c, 0, 79, 76
6, 323824, Note_on_c, 0, 79, 0
6, 323840, Note_on_c, 0, 79, 76
6, 323984, Note_on_c, 0, 79, 0
6, 324000, Note_on_c, 0, 91, 76
6, 324000, Note_on_c, 0, 79, 76
6, 324144, Note_on_c, 0, 91, 0
6, 324144, Note_on_c, 0, 79, 0
6, 324160, Note_on_c, 0, 91, 76
6, 324160, Note_on_c, 0, 79, 76
6, 324304, Note_on_c, 0, 91, 0
6, 324304, Note_on_c, 0, 79, 0
6, 324320, Note_on_c, 0, 91, 76
6, 324320, Note_on_c, 0, 79, 76
6, 324464, Note_on_c, 0, 91, 0
6, 324464, Note_on_c, 0, 79, 0
6, 324480, Note_on_c, 0, 87, 76
6, 324480, Note_on_c, 0, 75, 76
6, 324624, Note_on_c, 0, 87, 0
6, 324624, Note_on_c, 0, 75, 0
6, 324640, Note_on_c, 0, 87, 76
6, 324640, Note_on_c, 0, 75, 76
6, 324784, Note_on_c, 0, 87, 0
6, 324784, Note_on_c, 0, 75, 0
6, 324800, Note_on_c, 0, 75, 76
6, 324800, Note_on_c, 0, 87, 76
6, 324944, Note_on_c, 0, 75, 0
6, 324944, Note_on_c, 0, 87, 0
6, 324960, Note_on_c, 0, 84, 76
6, 325104, Note_on_c, 0, 84, 0
6, 325120, Note_on_c, 0, 84, 76
6, 325264, Note_on_c, 0, 84, 0
6, 325280, Note_on_c, 0, 84, 76
6, 325424, Note_on_c, 0, 84, 0
6, 325440, Note_on_c, 0, 77, 76
6, 325584, Note_on_c, 0, 77, 0
6, 325600, Note_on_c, 0, 77, 76
6, 325744, Note_on_c, 0, 77, 0
6, 325760, Note_on_c, 0, 77, 76
6, 325904, Note_on_c, 0, 77, 0
6, 325920, Note_on_c, 0, 77, 76
6, 325920, Note_on_c, 0, 89, 76
6, 326064, Note_on_c, 0, 77, 0
6, 326064, Note_on_c, 0, 89, 0
6, 326080, Note_on_c, 0, 77, 76
6, 326080, Note_on_c, 0, 89, 76
6, 326224, Note_on_c, 0, 77, 0
6, 326224, Note_on_c, 0, 89, 0
6, 326240, Note_on_c, 0, 77, 76
6, 326240, Note_on_c, 0, 89, 76
6, 326384, Note_on_c, 0, 77, 0
6, 326384, Note_on_c, 0, 89, 0
6, 326400, Note_on_c, 0, 86, 76
6, 326544, Note_on_c, 0, 86, 0
6, 326560, Note_on_c, 0, 86, 76
6, 326704, Note_on_c, 0, 86, 0
6, 326720, Note_on_c, 0, 86, 76
6, 326864, Note_on_c, 0, 86, 0
6, 326880, Note_on_c, 0, 86, 76
6, 327024, Note_on_c, 0, 86, 0
6, 327040, Note_on_c, 0, 86, 76
6, 327184, Note_on_c, 0, 86, 0
6, 327200, Note_on_c, 0, 86, 76
6, 327344, Note_on_c, 0, 86, 0
6, 327360, Note_on_c, 0, 76, 76
6, 327360, Note_on_c, 0, 88, 76
6, 327504, Note_on_c, 0, 76, 0
6, 327504, Note_on_c, 0, 88, 0
6, 327520, Note_on_c, 0, 76, 76
6, 327520, Note_on_c, 0, 88, 76
6, 327664, Note_on_c, 0, 76, 0
6, 327664, Note_on_c, 0, 88, 0
6, 327680, Note_on_c, 0, 76, 76
6, 327680, Note_on_c, 0, 88, 76
6, 327824, Note_on_c, 0, 76, 0
6, 327824, Note_on_c, 0, 88, 0
6, 327840, Note_on_c, 0, 93, 76
6, 327840, Note_on_c, 0, 81, 76
6, 327984, Note_on_c, 0, 93, 0
6, 327984, Note_on_c, 0, 81, 0
6, 328000, Note_on_c, 0, 81, 76
6, 328000, Note_on_c, 0, 93, 76
6, 328144, Note_on_c, 0, 81, 0
6, 328144, Note_on_c, 0, 93, 0
6, 328160, Note_on_c, 0, 93, 76
6, 328160, Note_on_c, 0, 81, 76
6, 328304, Note_on_c, 0, 93, 0
6, 328304, Note_on_c, 0, 81, 0
6, 328320, Note_on_c, 0, 93, 76
6, 328320, Note_on_c, 0, 81, 76
6, 328464, Note_on_c, 0, 93, 0
6, 328464, Note_on_c, 0, 81, 0
6, 328480, Note_on_c, 0, 93, 76
6, 328480, Note_on_c, 0, 81, 76
6, 328624, Note_on_c, 0, 93, 0
6, 328624, Note_on_c, 0, 81, 0
6, 328640, Note_on_c, 0, 93, 76
6, 328640, Note_on_c, 0, 81, 76
6, 328784, Note_on_c, 0, 93, 0
6, 328784, Note_on_c, 0, 81, 0
6, 328800, Note_on_c, 0, 93, 76
6, 328800, Note_on_c, 0, 81, 76
6, 328944, Note_on_c, 0, 93, 0
6, 328944, Note_on_c, 0, 81, 0
6, 328960, Note_on_c, 0, 81, 76
6, 328960, Note_on_c, 0, 93, 76
6, 329104, Note_on_c, 0, 81, 0
6, 329104, Note_on_c, 0, 93, 0
6, 329120, Note_on_c, 0, 93, 76
6, 329120, Note_on_c, 0, 81, 76
6, 329264, Note_on_c, 0, 93, 0
6, 329264, Note_on_c, 0, 81, 0
6, 329280, Note_on_c, 0, 81, 76
6, 329280, Note_on_c, 0, 93, 76
6, 329424, Note_on_c, 0, 81, 0
6, 329424, Note_on_c, 0, 93, 0
6, 329440, Note_on_c, 0, 93, 76
6, 329440, Note_on_c, 0, 81, 76
6, 329584, Note_on_c, 0, 93, 0
6, 329584, Note_on_c, 0, 81, 0
6, 329600, Note_on_c, 0, 81, 76
6, 329600, Note_on_c, 0, 93, 76
6, 329744, Note_on_c, 0, 81, 0
6, 329744, Note_on_c, 0, 93, 0
6, 329760, Note_on_c, 0, 81, 76
6, 329760, Note_on_c, 0, 93, 76
6, 329904, Note_on_c, 0, 81, 0
6, 329904, Note_on_c, 0, 93, 0
6, 329920, Note_on_c, 0, 93, 76
6, 329920, Note_on_c, 0, 81, 76
6, 330064, Note_on_c, 0, 93, 0
6, 330064, Note_on_c, 0, 81, 0
6, 330080, Note_on_c, 0, 81, 76
6, 330080, Note_on_c, 0, 93, 76
6, 330224, Note_on_c, 0, 81, 0
6, 330224, Note_on_c, 0, 93, 0
6, 330240, Note_on_c, 0, 81, 76
6, 330240, Note_on_c, 0, 93, 76
6, 330384, Note_on_c, 0, 81, 0
6, 330384, Note_on_c, 0, 93, 0
6, 330400, Note_on_c, 0, 81, 76
6, 330400, Note_on_c, 0, 93, 76
6, 330544, Note_on_c, 0, 81, 0
6, 330544, Note_on_c, 0, 93, 0
6, 330560, Note_on_c, 0, 81, 76
6, 330560, Note_on_c, 0, 93, 76
6, 330704, Note_on_c, 0, 81, 0
6, 330704, Note_on_c, 0, 93, 0
6, 330720, Note_on_c, 0, 93, 76
6, 330720, Note_on_c, 0, 81, 76
6, 330864, Note_on_c, 0, 93, 0
6, 330864, Note_on_c, 0, 81, 0
6, 330880, Note_on_c, 0, 81, 76
6, 330880, Note_on_c, 0, 93, 76
6, 331024, Note_on_c, 0, 81, 0
6, 331024, Note_on_c, 0, 93, 0
6, 331040, Note_on_c, 0, 81, 76
6, 331040, Note_on_c, 0, 93, 76
6, 331184, Note_on_c, 0, 81, 0
6, 331184, Note_on_c, 0, 93, 0
6, 331200, Note_on_c, 0, 93, 76
6, 331200, Note_on_c, 0, 81, 76
6, 331344, Note_on_c, 0, 93, 0
6, 331344, Note_on_c, 0, 81, 0
6, 331360, Note_on_c, 0, 93, 76
6, 331360, Note_on_c, 0, 81, 76
6, 331504, Note_on_c, 0, 93, 0
6, 331504, Note_on_c, 0, 81, 0
6, 331520, Note_on_c, 0, 81, 76
6, 331520, Note_on_c, 0, 93, 76
6, 331664, Note_on_c, 0, 81, 0
6, 331664, Note_on_c, 0, 93, 0
6, 331680, Note_on_c, 0, 93, 84
6, 331680, Note_on_c, 0, 81, 84
6, 335499, Note_on_c, 0, 93, 0
6, 335499, Note_on_c, 0, 81, 0
6, 335520, Note_on_c, 0, 81, 52
6, 335679, Note_on_c, 0, 81, 0
6, 335760, Note_on_c, 0, 93, 52
6, 335919, Note_on_c, 0, 93, 0
6, 336000, Note_on_c, 0, 81, 52
6, 336159, Note_on_c, 0, 81, 0
6, 336240, Note_on_c, 0, 93, 52
6, 336399, Note_on_c, 0, 93, 0
6, 336480, Note_on_c, 0, 81, 52
6, 336639, Note_on_c, 0, 81, 0
6, 336720, Note_on_c, 0, 93, 52
6, 336879, Note_on_c, 0, 93, 0
6, 336960, Note_on_c, 0, 81, 52
6, 337119, Note_on_c, 0, 81, 0
6, 337200, Note_on_c, 0, 93, 52
6, 337359, Note_on_c, 0, 93, 0
6, 341280, Note_on_c, 0, 89, 44
6, 342699, Note_on_c, 0, 89, 0
6, 342720, Note_on_c, 0, 81, 44
6, 342839, Note_on_c, 0, 81, 0
6, 342840, Note_on_c, 0, 82, 44
6, 342939, Note_on_c, 0, 82, 0
6, 342960, Note_on_c, 0, 79, 44
6, 343119, Note_on_c, 0, 79, 0
6, 343200, Note_on_c, 0, 89, 44
6, 344619, Note_on_c, 0, 89, 0
6, 344640, Note_on_c, 0, 82, 44
6, 344759, Note_on_c, 0, 82, 0
6, 344760, Note_on_c, 0, 84, 44
6, 344859, Note_on_c, 0, 84, 0
6, 344880, Note_on_c, 0, 81, 44
6, 345039, Note_on_c, 0, 81, 0
6, 345120, Note_on_c, 0, 89, 44
6, 345359, Note_on_c, 0, 89, 0
6, 345480, Note_on_c, 0, 88, 44
6, 345579, Note_on_c, 0, 88, 0
6, 345600, Note_on_c, 0, 88, 44
6, 345839, Note_on_c, 0, 88, 0
6, 345840, Note_on_c, 0, 86, 44
6, 346079, Note_on_c, 0, 86, 0
6, 349200, Note_on_c, 0, 89, 44
6, 349359, Note_on_c, 0, 89, 0
6, 349440, Note_on_c, 0, 88, 44
6, 349599, Note_on_c, 0, 88, 0
6, 349680, Note_on_c, 0, 88, 44
6, 349839, Note_on_c, 0, 88, 0
6, 349920, Note_on_c, 0, 79, 44
6, 350079, Note_on_c, 0, 79, 0
6, 350160, Note_on_c, 0, 91, 44
6, 350319, Note_on_c, 0, 91, 0
6, 350400, Note_on_c, 0, 84, 44
6, 351819, Note_on_c, 0, 84, 0
6, 351840, Note_on_c, 0, 86, 44
6, 351984, Note_on_c, 0, 86, 0
6, 352000, Note_on_c, 0, 86, 44
6, 352144, Note_on_c, 0, 86, 0
6, 352160, Note_on_c, 0, 86, 44
6, 352304, Note_on_c, 0, 86, 0
6, 352320, Note_on_c, 0, 86, 44
6, 352479, Note_on_c, 0, 86, 0
6, 352480, Note_on_c, 0, 88, 44
6, 352624, Note_on_c, 0, 88, 0
6, 352640, Note_on_c, 0, 84, 44
6, 352759, Note_on_c, 0, 84, 0
6, 352800, Note_on_c, 0, 84, 44
6, 352800, Control_c, 0, 11, 127
6, 352960, Control_c, 0, 11, 126
6, 353120, Control_c, 0, 11, 125
6, 353280, Control_c, 0, 11, 124
6, 353440, Control_c, 0, 11, 123
6, 353600, Control_c, 0, 11, 122
6, 353760, Control_c, 0, 11, 121
6, 353920, Control_c, 0, 11, 120
6, 354080, Control_c, 0, 11, 119
6, 354240, Control_c, 0, 11, 118
6, 354400, Control_c, 0, 11, 117
6, 354560, Control_c, 0, 11, 116
6, 354720, Control_c, 0, 11, 115
6, 354880, Control_c, 0, 11, 114
6, 355200, Control_c, 0, 11, 127
6, 357579, Note_on_c, 0, 84, 0
6, 357600, Note_on_c, 0, 85, 84
6, 358559, Note_on_c, 0, 85, 0
6, 359520, Note_on_c, 0, 85, 84
6, 360479, Note_on_c, 0, 85, 0
6, 361440, Note_on_c, 0, 85, 84
6, 362379, Note_on_c, 0, 85, 0
6, 362400, Note_on_c, 0, 85, 84
6, 363339, Note_on_c, 0, 85, 0
6, 363360, Note_on_c, 0, 85, 84
6, 364299, Note_on_c, 0, 85, 0
6, 364320, Note_on_c, 0, 81, 84
6, 364464, Note_on_c, 0, 81, 0
6, 364480, Note_on_c, 0, 85, 84
6, 364480, Note_on_c, 0, 90, 84
6, 364624, Note_on_c, 0, 85, 0
6, 364624, Note_on_c, 0, 90, 0
6, 364640, Note_on_c, 0, 90, 84
6, 364640, Note_on_c, 0, 85, 84
6, 364784, Note_on_c, 0, 90, 0
6, 364784, Note_on_c, 0, 85, 0
6, 364800, Note_on_c, 0, 85, 84
6, 364800, Note_on_c, 0, 90, 84
6, 364919, Note_on_c, 0, 90, 0
6, 364920, Note_on_c, 0, 92, 84
6, 365019, Note_on_c, 0, 85, 0
6, 365019, Note_on_c, 0, 92, 0
6, 365040, Note_on_c, 0, 89, 84
6, 365040, Note_on_c, 0, 85, 84
6, 365199, Note_on_c, 0, 89, 0
6, 365259, Note_on_c, 0, 85, 0
6, 365280, Note_on_c, 0, 90, 84
6, 365280, Note_on_c, 0, 85, 84
6, 365399, Note_on_c, 0, 90, 0
6, 365400, Note_on_c, 0, 92, 84
6, 365499, Note_on_c, 0, 85, 0
6, 365499, Note_on_c, 0, 92, 0
6, 365520, Note_on_c, 0, 85, 84
6, 365520, Note_on_c, 0, 89, 84
6, 365679, Note_on_c, 0, 89, 0
6, 365739, Note_on_c, 0, 85, 0
6, 365760, Note_on_c, 0, 85, 84
6, 365760, Note_on_c, 0, 90, 84
6, 365879, Note_on_c, 0, 90, 0
6, 365880, Note_on_c, 0, 92, 84
6, 365979, Note_on_c, 0, 85, 0
6, 365979, Note_on_c, 0, 92, 0
6, 366000, Note_on_c, 0, 85, 84
6, 366000, Note_on_c, 0, 89, 84
6, 366144, Note_on_c, 0, 89, 0
6, 366219, Note_on_c, 0, 85, 0
6, 366240, Note_on_c, 0, 85, 84
6, 366240, Note_on_c, 0, 92, 84
6, 366384, Note_on_c, 0, 85, 0
6, 366384, Note_on_c, 0, 92, 0
6, 366400, Note_on_c, 0, 85, 84
6, 366400, Note_on_c, 0, 92, 84
6, 366544, Note_on_c, 0, 85, 0
6, 366544, Note_on_c, 0, 92, 0
6, 366560, Note_on_c, 0, 85, 84
6, 366560, Note_on_c, 0, 92, 84
6, 366704, Note_on_c, 0, 85, 0
6, 366704, Note_on_c, 0, 92, 0
6, 366720, Note_on_c, 0, 92, 84
6, 366720, Note_on_c, 0, 85, 84
6, 366839, Note_on_c, 0, 92, 0
6, 366840, Note_on_c, 0, 93, 84
6, 366939, Note_on_c, 0, 85, 0
6, 366939, Note_on_c, 0, 93, 0
6, 366960, Note_on_c, 0, 85, 84
6, 366960, Note_on_c, 0, 90, 84
6, 367119, Note_on_c, 0, 90, 0
6, 367179, Note_on_c, 0, 85, 0
6, 367200, Note_on_c, 0, 92, 84
6, 367200, Note_on_c, 0, 85, 84
6, 367319, Note_on_c, 0, 92, 0
6, 367320, Note_on_c, 0, 93, 84
6, 367419, Note_on_c, 0, 85, 0
6, 367419, Note_on_c, 0, 93, 0
6, 367440, Note_on_c, 0, 90, 84
6, 367440, Note_on_c, 0, 85, 84
6, 367599, Note_on_c, 0, 90, 0
6, 367659, Note_on_c, 0, 85, 0
6, 367680, Note_on_c, 0, 85, 84
6, 367680, Note_on_c, 0, 92, 84
6, 367799, Note_on_c, 0, 92, 0
6, 367800, Note_on_c, 0, 93, 84
6, 367899, Note_on_c, 0, 85, 0
6, 367899, Note_on_c, 0, 93, 0
6, 367920, Note_on_c, 0, 90, 84
6, 367920, Note_on_c, 0, 85, 84
6, 368079, Note_on_c, 0, 90, 0
6, 368139, Note_on_c, 0, 85, 0
6, 368160, Note_on_c, 0, 90, 84
6, 368399, Note_on_c, 0, 90, 0
6, 368520, Note_on_c, 0, 88, 84
6, 368619, Note_on_c, 0, 88, 0
6, 368640, Note_on_c, 0, 88, 84
6, 368879, Note_on_c, 0, 88, 0
6, 368880, Note_on_c, 0, 86, 84
6, 369099, Note_on_c, 0, 86, 0
6, 369120, Note_on_c, 0, 86, 84
6, 369359, Note_on_c, 0, 86, 0
6, 369480, Note_on_c, 0, 85, 84
6, 369579, Note_on_c, 0, 85, 0
6, 369600, Note_on_c, 0, 85, 84
6, 369839, Note_on_c, 0, 85, 0
6, 369840, Note_on_c, 0, 83, 84
6, 370059, Note_on_c, 0, 83, 0
6, 370080, Note_on_c, 0, 83, 84
6, 370239, Note_on_c, 0, 83, 0
6, 370320, Note_on_c, 0, 81, 84
6, 370320, Note_on_c, 0, 93, 84
6, 370479, Note_on_c, 0, 81, 0
6, 370479, Note_on_c, 0, 93, 0
6, 370560, Note_on_c, 0, 80, 84
6, 370560, Note_on_c, 0, 92, 84
6, 370719, Note_on_c, 0, 80, 0
6, 370719, Note_on_c, 0, 92, 0
6, 370800, Note_on_c, 0, 78, 84
6, 370800, Note_on_c, 0, 90, 84
6, 370959, Note_on_c, 0, 78, 0
6, 370959, Note_on_c, 0, 90, 0
6, 371040, Note_on_c, 0, 92, 84
6, 371040, Note_on_c, 0, 80, 84
6, 371199, Note_on_c, 0, 92, 0
6, 371199, Note_on_c, 0, 80, 0
6, 371280, Note_on_c, 0, 81, 84
6, 371280, Note_on_c, 0, 93, 84
6, 371439, Note_on_c, 0, 81, 0
6, 371439, Note_on_c, 0, 93, 0
6, 371520, Note_on_c, 0, 83, 84
6, 371739, Note_on_c, 0, 83, 0
6, 371760, Note_on_c, 0, 92, 84
6, 371760, Note_on_c, 0, 80, 84
6, 371979, Note_on_c, 0, 92, 0
6, 371979, Note_on_c, 0, 80, 0
6, 372000, Note_on_c, 0, 81, 84
6, 372000, Note_on_c, 0, 93, 84
6, 372219, Note_on_c, 0, 81, 0
6, 372219, Note_on_c, 0, 93, 0
6, 372240, Note_on_c, 0, 78, 84
6, 372240, Note_on_c, 0, 90, 84
6, 372459, Note_on_c, 0, 78, 0
6, 372459, Note_on_c, 0, 90, 0
6, 372480, Note_on_c, 0, 80, 84
6, 372480, Note_on_c, 0, 92, 84
6, 372699, Note_on_c, 0, 80, 0
6, 372699, Note_on_c, 0, 92, 0
6, 372720, Note_on_c, 0, 78, 84
6, 372720, Note_on_c, 0, 90, 84
6, 372939, Note_on_c, 0, 78, 0
6, 372939, Note_on_c, 0, 90, 0
6, 372960, Note_on_c, 0, 80, 84
6, 372960, Note_on_c, 0, 92, 84
6, 373179, Note_on_c, 0, 80, 0
6, 373179, Note_on_c, 0, 92, 0
6, 373200, Note_on_c, 0, 81, 84
6, 373200, Note_on_c, 0, 93, 84
6, 373419, Note_on_c, 0, 81, 0
6, 373419, Note_on_c, 0, 93, 0
6, 373440, Note_on_c, 0, 83, 84
6, 373659, Note_on_c, 0, 83, 0
6, 373680, Note_on_c, 0, 80, 84
6, 373680, Note_on_c, 0, 92, 84
6, 373899, Note_on_c, 0, 80, 0
6, 373899, Note_on_c, 0, 92, 0
6, 373920, Note_on_c, 0, 81, 84
6, 373920, Note_on_c, 0, 93, 84
6, 374139, Note_on_c, 0, 81, 0
6, 374139, Note_on_c, 0, 93, 0
6, 374160, Note_on_c, 0, 78, 84
6, 374160, Note_on_c, 0, 90, 84
6, 374379, Note_on_c, 0, 78, 0
6, 374379, Note_on_c, 0, 90, 0
6, 374400, Note_on_c, 0, 92, 84
6, 374400, Note_on_c, 0, 80, 84
6, 374619, Note_on_c, 0, 92, 0
6, 374619, Note_on_c, 0, 80, 0
6, 374640, Note_on_c, 0, 78, 84
6, 374640, Note_on_c, 0, 90, 84
6, 374859, Note_on_c, 0, 78, 0
6, 374859, Note_on_c, 0, 90, 0
6, 374880, Note_on_c, 0, 80, 84
6, 374880, Note_on_c, 0, 92, 84
6, 375099, Note_on_c, 0, 80, 0
6, 375099, Note_on_c, 0, 92, 0
6, 375120, Note_on_c, 0, 81, 84
6, 375120, Note_on_c, 0, 93, 84
6, 375339, Note_on_c, 0, 81, 0
6, 375339, Note_on_c, 0, 93, 0
6, 375360, Note_on_c, 0, 83, 84
6, 375579, Note_on_c, 0, 83, 0
6, 375600, Note_on_c, 0, 77, 84
6, 375600, Note_on_c, 0, 92, 84
6, 375819, Note_on_c, 0, 77, 0
6, 375819, Note_on_c, 0, 92, 0
6, 375840, Note_on_c, 0, 93, 84
6, 375840, Note_on_c, 0, 77, 84
6, 376059, Note_on_c, 0, 93, 0
6, 376059, Note_on_c, 0, 77, 0
6, 376080, Note_on_c, 0, 77, 84
6, 376080, Note_on_c, 0, 89, 84
6, 376299, Note_on_c, 0, 77, 0
6, 376299, Note_on_c, 0, 89, 0
6, 376320, Note_on_c, 0, 79, 84
6, 376320, Note_on_c, 0, 91, 84
6, 376539, Note_on_c, 0, 79, 0
6, 376539, Note_on_c, 0, 91, 0
6, 376560, Note_on_c, 0, 89, 84
6, 376560, Note_on_c, 0, 77, 84
6, 376779, Note_on_c, 0, 89, 0
6, 376779, Note_on_c, 0, 77, 0
6, 376800, Note_on_c, 0, 91, 84
6, 376800, Note_on_c, 0, 79, 84
6, 377019, Note_on_c, 0, 91, 0
6, 377019, Note_on_c, 0, 79, 0
6, 377040, Note_on_c, 0, 93, 84
6, 377040, Note_on_c, 0, 81, 84
6, 377259, Note_on_c, 0, 93, 0
6, 377259, Note_on_c, 0, 81, 0
6, 377280, Note_on_c, 0, 82, 84
6, 377499, Note_on_c, 0, 82, 0
6, 377520, Note_on_c, 0, 79, 84
6, 377520, Note_on_c, 0, 91, 84
6, 377739, Note_on_c, 0, 79, 0
6, 377739, Note_on_c, 0, 91, 0
6, 377760, Note_on_c, 0, 81, 84
6, 377760, Note_on_c, 0, 93, 84
6, 377979, Note_on_c, 0, 81, 0
6, 377979, Note_on_c, 0, 93, 0
6, 378000, Note_on_c, 0, 77, 84
6, 378000, Note_on_c, 0, 89, 84
6, 378219, Note_on_c, 0, 77, 0
6, 378219, Note_on_c, 0, 89, 0
6, 378240, Note_on_c, 0, 82, 92
6, 378459, Note_on_c, 0, 82, 0
6, 378480, Note_on_c, 0, 79, 84
6, 378480, Note_on_c, 0, 91, 84
6, 378699, Note_on_c, 0, 79, 0
6, 378699, Note_on_c, 0, 91, 0
6, 378720, Note_on_c, 0, 81, 84
6, 378720, Note_on_c, 0, 93, 84
6, 378939, Note_on_c, 0, 81, 0
6, 378939, Note_on_c, 0, 93, 0
6, 378960, Note_on_c, 0, 89, 84
6, 378960, Note_on_c, 0, 77, 84
6, 379179, Note_on_c, 0, 89, 0
6, 379179, Note_on_c, 0, 77, 0
6, 379200, Note_on_c, 0, 82, 92
6, 379419, Note_on_c, 0, 82, 0
6, 379440, Note_on_c, 0, 79, 84
6, 379440, Note_on_c, 0, 91, 84
6, 379659, Note_on_c, 0, 79, 0
6, 379659, Note_on_c, 0, 91, 0
6, 379680, Note_on_c, 0, 81, 84
6, 379680, Note_on_c, 0, 93, 84
6, 379899, Note_on_c, 0, 81, 0
6, 379899, Note_on_c, 0, 93, 0
6, 379920, Note_on_c, 0, 89, 84
6, 379920, Note_on_c, 0, 77, 84
6, 380139, Note_on_c, 0, 89, 0
6, 380139, Note_on_c, 0, 77, 0
6, 380160, Note_on_c, 0, 82, 92
6, 380379, Note_on_c, 0, 82, 0
6, 380400, Note_on_c, 0, 79, 84
6, 380400, Note_on_c, 0, 91, 84
6, 380619, Note_on_c, 0, 79, 0
6, 380619, Note_on_c, 0, 91, 0
6, 380640, Note_on_c, 0, 93, 84
6, 380640, Note_on_c, 0, 81, 84
6, 380859, Note_on_c, 0, 93, 0
6, 380859, Note_on_c, 0, 81, 0
6, 380880, Note_on_c, 0, 89, 84
6, 380880, Note_on_c, 0, 77, 84
6, 381099, Note_on_c, 0, 89, 0
6, 381099, Note_on_c, 0, 77, 0
6, 381120, Note_on_c, 0, 82, 92
6, 381339, Note_on_c, 0, 82, 0
6, 381360, Note_on_c, 0, 79, 84
6, 381360, Note_on_c, 0, 91, 84
6, 381579, Note_on_c, 0, 79, 0
6, 381579, Note_on_c, 0, 91, 0
6, 381600, Note_on_c, 0, 93, 84
6, 381600, Note_on_c, 0, 81, 84
6, 381819, Note_on_c, 0, 93, 0
6, 381819, Note_on_c, 0, 81, 0
6, 381840, Note_on_c, 0, 77, 84
6, 381840, Note_on_c, 0, 89, 84
6, 382059, Note_on_c, 0, 77, 0
6, 382059, Note_on_c, 0, 89, 0
6, 382080, Note_on_c, 0, 82, 92
6, 382299, Note_on_c, 0, 82, 0
6, 382320, Note_on_c, 0, 91, 84
6, 382320, Note_on_c, 0, 79, 84
6, 382539, Note_on_c, 0, 91, 0
6, 382539, Note_on_c, 0, 79, 0
6, 382560, Note_on_c, 0, 76, 92
6, 382560, Note_on_c, 0, 88, 92
6, 382779, Note_on_c, 0, 76, 0
6, 382779, Note_on_c, 0, 88, 0
6, 382800, Note_on_c, 0, 93, 84
6, 382800, Note_on_c, 0, 81, 84
6, 383019, Note_on_c, 0, 93, 0
6, 383019, Note_on_c, 0, 81, 0
6, 383040, Note_on_c, 0, 89, 92
6, 383040, Note_on_c, 0, 77, 92
6, 383259, Note_on_c, 0, 89, 0
6, 383259, Note_on_c, 0, 77, 0
6, 383280, Note_on_c, 0, 86, 84
6, 383280, Note_on_c, 0, 74, 84
6, 383499, Note_on_c, 0, 86, 0
6, 383499, Note_on_c, 0, 74, 0
6, 383520, Note_on_c, 0, 91, 92
6, 383520, Note_on_c, 0, 79, 92
6, 383739, Note_on_c, 0, 91, 0
6, 383739, Note_on_c, 0, 79, 0
6, 383760, Note_on_c, 0, 76, 84
6, 383760, Note_on_c, 0, 88, 84
6, 383979, Note_on_c, 0, 76, 0
6, 383979, Note_on_c, 0, 88, 0
6, 384000, Note_on_c, 0, 72, 92
6, 384000, Note_on_c, 0, 84, 92
6, 384219, Note_on_c, 0, 72, 0
6, 384219, Note_on_c, 0, 84, 0
6, 384240, Note_on_c, 0, 77, 84
6, 384240, Note_on_c, 0, 89, 84
6, 384459, Note_on_c, 0, 77, 0
6, 384459, Note_on_c, 0, 89, 0
6, 384480, Note_on_c, 0, 86, 92
6, 384480, Note_on_c, 0, 74, 92
6, 384699, Note_on_c, 0, 86, 0
6, 384699, Note_on_c, 0, 74, 0
6, 384720, Note_on_c, 0, 82, 84
6, 384720, Note_on_c, 0, 70, 84
6, 384939, Note_on_c, 0, 82, 0
6, 384939, Note_on_c, 0, 70, 0
6, 384960, Note_on_c, 0, 88, 92
6, 384960, Note_on_c, 0, 76, 92
6, 385179, Note_on_c, 0, 88, 0
6, 385179, Note_on_c, 0, 76, 0
6, 385200, Note_on_c, 0, 84, 84
6, 385419, Note_on_c, 0, 84, 0
6, 385440, Note_on_c, 0, 81, 92
6, 385659, Note_on_c, 0, 81, 0
6, 385680, Note_on_c, 0, 86, 84
6, 385899, Note_on_c, 0, 86, 0
6, 385920, Note_on_c, 0, 82, 92
6, 386139, Note_on_c, 0, 82, 0
6, 386160, Note_on_c, 0, 79, 84
6, 386379, Note_on_c, 0, 79, 0
6, 386400, Note_on_c, 0, 84, 92
6, 386619, Note_on_c, 0, 84, 0
6, 386640, Note_on_c, 0, 81, 84
6, 386859, Note_on_c, 0, 81, 0
6, 386880, Note_on_c, 0, 77, 92
6, 387099, Note_on_c, 0, 77, 0
6, 387120, Note_on_c, 0, 82, 84
6, 387339, Note_on_c, 0, 82, 0
6, 387360, Note_on_c, 0, 79, 92
6, 387579, Note_on_c, 0, 79, 0
6, 387600, Note_on_c, 0, 76, 84
6, 387819, Note_on_c, 0, 76, 0
6, 387840, Note_on_c, 0, 72, 92
6, 388059, Note_on_c, 0, 72, 0
6, 388080, Note_on_c, 0, 70, 84
6, 388299, Note_on_c, 0, 70, 0
6, 388320, Note_on_c, 0, 67, 92
6, 388539, Note_on_c, 0, 67, 0
6, 388560, Note_on_c, 0, 79, 84
6, 388779, Note_on_c, 0, 79, 0
6, 388800, Note_on_c, 0, 76, 92
6, 389019, Note_on_c, 0, 76, 0
6, 389040, Note_on_c, 0, 70, 84
6, 389259, Note_on_c, 0, 70, 0
6, 389280, Note_on_c, 0, 70, 92
6, 389280, Note_on_c, 0, 82, 92
6, 389499, Note_on_c, 0, 70, 0
6, 389499, Note_on_c, 0, 82, 0
6, 389520, Note_on_c, 0, 67, 84
6, 389520, Note_on_c, 0, 79, 84
6, 389739, Note_on_c, 0, 67, 0
6, 389739, Note_on_c, 0, 79, 0
6, 389760, Note_on_c, 0, 64, 92
6, 389760, Note_on_c, 0, 76, 92
6, 389979, Note_on_c, 0, 64, 0
6, 389979, Note_on_c, 0, 76, 0
6, 390000, Note_on_c, 0, 76, 84
6, 390000, Note_on_c, 0, 88, 84
6, 390219, Note_on_c, 0, 76, 0
6, 390219, Note_on_c, 0, 88, 0
6, 390240, Note_on_c, 0, 82, 92
6, 390240, Note_on_c, 0, 70, 92
6, 390459, Note_on_c, 0, 82, 0
6, 390459, Note_on_c, 0, 70, 0
6, 390480, Note_on_c, 0, 79, 84
6, 390480, Note_on_c, 0, 67, 84
6, 390699, Note_on_c, 0, 79, 0
6, 390699, Note_on_c, 0, 67, 0
6, 390720, Note_on_c, 0, 91, 92
6, 390720, Note_on_c, 0, 84, 92
6, 390939, Note_on_c, 0, 91, 0
6, 390939, Note_on_c, 0, 84, 0
6, 390960, Note_on_c, 0, 91, 84
6, 390960, Note_on_c, 0, 84, 84
6, 391179, Note_on_c, 0, 91, 0
6, 391179, Note_on_c, 0, 84, 0
6, 391200, Note_on_c, 0, 88, 92
6, 391200, Note_on_c, 0, 84, 92
6, 391419, Note_on_c, 0, 88, 0
6, 391419, Note_on_c, 0, 84, 0
6, 391440, Note_on_c, 0, 84, 84
6, 391659, Note_on_c, 0, 84, 0
6, 391680, Note_on_c, 0, 77, 76
6, 391760, Control_c, 0, 11, 80
6, 392639, Note_on_c, 0, 77, 0
6, 392640, Note_on_c, 0, 84, 76
6, 393359, Note_on_c, 0, 84, 0
6, 393360, Note_on_c, 0, 86, 76
6, 393579, Note_on_c, 0, 86, 0
6, 393600, Note_on_c, 0, 86, 76
6, 393839, Note_on_c, 0, 86, 0
6, 393840, Note_on_c, 0, 79, 76
6, 394059, Note_on_c, 0, 79, 0
6, 394080, Note_on_c, 0, 79, 76
6, 394319, Note_on_c, 0, 79, 0
6, 394320, Note_on_c, 0, 81, 76
6, 394559, Note_on_c, 0, 81, 0
6, 394560, Note_on_c, 0, 82, 76
6, 394799, Note_on_c, 0, 82, 0
6, 395040, Note_on_c, 0, 84, 76
6, 395279, Note_on_c, 0, 84, 0
6, 395520, Note_on_c, 0, 81, 76
6, 396479, Note_on_c, 0, 81, 0
6, 396480, Note_on_c, 0, 84, 76
6, 396719, Note_on_c, 0, 84, 0
6, 396720, Note_on_c, 0, 86, 76
6, 396799, Note_on_c, 0, 86, 0
6, 396800, Note_on_c, 0, 84, 76
6, 396879, Note_on_c, 0, 84, 0
6, 396880, Note_on_c, 0, 83, 76
6, 396959, Note_on_c, 0, 83, 0
6, 396960, Note_on_c, 0, 84, 76
6, 397199, Note_on_c, 0, 84, 0
6, 397200, Note_on_c, 0, 85, 76
6, 397439, Note_on_c, 0, 85, 0
6, 397440, Note_on_c, 0, 88, 76
6, 397679, Note_on_c, 0, 88, 0
6, 397680, Note_on_c, 0, 86, 76
6, 397919, Note_on_c, 0, 86, 0
6, 397920, Note_on_c, 0, 79, 76
6, 398159, Note_on_c, 0, 79, 0
6, 398160, Note_on_c, 0, 81, 76
6, 398399, Note_on_c, 0, 81, 0
6, 398400, Note_on_c, 0, 82, 76
6, 398639, Note_on_c, 0, 82, 0
6, 398880, Note_on_c, 0, 84, 76
6, 399119, Note_on_c, 0, 84, 0
6, 399240, Control_c, 0, 11, 127
6, 399360, Note_on_c, 0, 81, 76
6, 399599, Note_on_c, 0, 81, 0
6, 399840, Note_on_c, 0, 89, 76
6, 399840, Note_on_c, 0, 84, 76
6, 400079, Note_on_c, 0, 89, 0
6, 400079, Note_on_c, 0, 84, 0
6, 400800, Note_on_c, 0, 86, 76
6, 400800, Note_on_c, 0, 89, 76
6, 401039, Note_on_c, 0, 86, 0
6, 401039, Note_on_c, 0, 89, 0
6, 401760, Note_on_c, 0, 89, 76
6, 401760, Note_on_c, 0, 86, 76
6, 401999, Note_on_c, 0, 89, 0
6, 401999, Note_on_c, 0, 86, 0
6, 402720, Note_on_c, 0, 88, 76
6, 402720, Note_on_c, 0, 84, 76
6, 402959, Note_on_c, 0, 88, 0
6, 402959, Note_on_c, 0, 84, 0
6, 403200, Note_on_c, 0, 84, 52
6, 403200, Note_on_c, 0, 89, 52
6, 403439, Note_on_c, 0, 84, 0
6, 403439, Note_on_c, 0, 89, 0
6, 406080, Control_c, 0, 11, 96
6, 406560, Note_on_c, 0, 88, 68
6, 407039, Note_on_c, 0, 88, 0
6, 407040, Note_on_c, 0, 89, 68
6, 407040, Control_c, 0, 11, 96
6, 407080, Control_c, 0, 11, 99
6, 407120, Control_c, 0, 11, 101
6, 407160, Control_c, 0, 11, 104
6, 407200, Control_c, 0, 11, 106
6, 407240, Control_c, 0, 11, 109
6, 407280, Control_c, 0, 11, 112
6, 407320, Control_c, 0, 11, 114
6, 407360, Control_c, 0, 11, 117
6, 407400, Control_c, 0, 11, 119
6, 407440, Control_c, 0, 11, 122
6, 407480, Control_c, 0, 11, 124
6, 407520, Control_c, 0, 11, 127
6, 407560, Control_c, 0, 11, 124
6, 407600, Control_c, 0, 11, 122
6, 407640, Control_c, 0, 11, 119
6, 407680, Control_c, 0, 11, 117
6, 407720, Control_c, 0, 11, 114
6, 407759, Note_on_c, 0, 89, 0
6, 407760, Note_on_c, 0, 91, 68
6, 407760, Control_c, 0, 11, 112
6, 407800, Control_c, 0, 11, 109
6, 407840, Control_c, 0, 11, 106
6, 407879, Note_on_c, 0, 91, 0
6, 407880, Note_on_c, 0, 93, 68
6, 407880, Control_c, 0, 11, 104
6, 407920, Control_c, 0, 11, 101
6, 407960, Control_c, 0, 11, 99
6, 407999, Note_on_c, 0, 93, 0
6, 408000, Control_c, 0, 11, 96
6, 408000, Note_on_c, 0, 84, 68
6, 408239, Note_on_c, 0, 84, 0
6, 409920, Control_c, 0, 11, 80
6, 410400, Note_on_c, 0, 88, 76
6, 410400, Control_c, 0, 11, 80
6, 410440, Control_c, 0, 11, 84
6, 410480, Control_c, 0, 11, 88
6, 410520, Control_c, 0, 11, 92
6, 410560, Control_c, 0, 11, 96
6, 410600, Control_c, 0, 11, 100
6, 410640, Control_c, 0, 11, 104
6, 410680, Control_c, 0, 11, 107
6, 410720, Control_c, 0, 11, 111
6, 410760, Control_c, 0, 11, 115
6, 410800, Control_c, 0, 11, 119
6, 410840, Control_c, 0, 11, 123
6, 410879, Note_on_c, 0, 88, 0
6, 410880, Control_c, 0, 11, 127
6, 410880, Note_on_c, 0, 89, 76
6, 411119, Note_on_c, 0, 89, 0
6, 411360, Note_on_c, 0, 89, 76
6, 411360, Note_on_c, 0, 84, 76
6, 411599, Note_on_c, 0, 89, 0
6, 411599, Note_on_c, 0, 84, 0
6, 412320, Note_on_c, 0, 89, 76
6, 412320, Note_on_c, 0, 86, 76
6, 412559, Note_on_c, 0, 89, 0
6, 412559, Note_on_c, 0, 86, 0
6, 413280, Note_on_c, 0, 89, 76
6, 413280, Note_on_c, 0, 86, 76
6, 413519, Note_on_c, 0, 89, 0
6, 413519, Note_on_c, 0, 86, 0
6, 414240, Note_on_c, 0, 88, 76
6, 414240, Note_on_c, 0, 84, 76
6, 414479, Note_on_c, 0, 88, 0
6, 414479, Note_on_c, 0, 84, 0
6, 414720, Note_on_c, 0, 87, 84
6, 416619, Note_on_c, 0, 87, 0
6, 416640, Note_on_c, 0, 89, 84
6, 416759, Note_on_c, 0, 89, 0
6, 416760, Note_on_c, 0, 90, 84
6, 416859, Note_on_c, 0, 90, 0
6, 416880, Note_on_c, 0, 87, 84
6, 417039, Note_on_c, 0, 87, 0
6, 417120, Note_on_c, 0, 89, 84
6, 417239, Note_on_c, 0, 89, 0
6, 417240, Note_on_c, 0, 90, 84
6, 417339, Note_on_c, 0, 90, 0
6, 417360, Note_on_c, 0, 87, 84
6, 417519, Note_on_c, 0, 87, 0
6, 417600, Note_on_c, 0, 89, 84
6, 417719, Note_on_c, 0, 89, 0
6, 417720, Note_on_c, 0, 90, 84
6, 417819, Note_on_c, 0, 90, 0
6, 417840, Note_on_c, 0, 87, 84
6, 417999, Note_on_c, 0, 87, 0
6, 418080, Note_on_c, 0, 89, 84
6, 418199, Note_on_c, 0, 89, 0
6, 418200, Note_on_c, 0, 90, 84
6, 418299, Note_on_c, 0, 90, 0
6, 418320, Note_on_c, 0, 87, 84
6, 418479, Note_on_c, 0, 87, 0
6, 418560, Note_on_c, 0, 88, 84
6, 418799, Note_on_c, 0, 88, 0
6, 419040, Note_on_c, 0, 88, 84
6, 419279, Note_on_c, 0, 88, 0
6, 419520, Note_on_c, 0, 88, 84
6, 419759, Note_on_c, 0, 88, 0
6, 420000, Note_on_c, 0, 91, 84
6, 420000, Note_on_c, 0, 88, 84
6, 420239, Note_on_c, 0, 91, 0
6, 420239, Note_on_c, 0, 88, 0
6, 421920, Note_on_c, 0, 72, 52
6, 422064, Note_on_c, 0, 72, 0
6, 422080, Note_on_c, 0, 76, 52
6, 422224, Note_on_c, 0, 76, 0
6, 422240, Note_on_c, 0, 79, 52
6, 422384, Note_on_c, 0, 79, 0
6, 422400, Note_on_c, 0, 84, 52
6, 422639, Note_on_c, 0, 84, 0
6, 423840, Note_on_c, 0, 77, 52
6, 423984, Note_on_c, 0, 77, 0
6, 424000, Note_on_c, 0, 81, 52
6, 424144, Note_on_c, 0, 81, 0
6, 424160, Note_on_c, 0, 84, 52
6, 424304, Note_on_c, 0, 84, 0
6, 424320, Note_on_c, 0, 89, 52
6, 424559, Note_on_c, 0, 89, 0
6, 424800, Note_on_c, 0, 81, 76
6, 424800, Note_on_c, 0, 77, 76
6, 424944, Note_on_c, 0, 81, 0
6, 424944, Note_on_c, 0, 77, 0
6, 424960, Note_on_c, 0, 81, 76
6, 424960, Note_on_c, 0, 77, 76
6, 425104, Note_on_c, 0, 81, 0
6, 425104, Note_on_c, 0, 77, 0
6, 425120, Note_on_c, 0, 77, 76
6, 425120, Note_on_c, 0, 81, 76
6, 425264, Note_on_c, 0, 77, 0
6, 425264, Note_on_c, 0, 81, 0
6, 425280, Note_on_c, 0, 79, 76
6, 425280, Note_on_c, 0, 82, 76
6, 425439, Note_on_c, 0, 79, 0
6, 425439, Note_on_c, 0, 82, 0
6, 425520, Note_on_c, 0, 79, 76
6, 425520, Note_on_c, 0, 72, 76
6, 425679, Note_on_c, 0, 79, 0
6, 425679, Note_on_c, 0, 72, 0
6, 425760, Note_on_c, 0, 79, 76
6, 425760, Note_on_c, 0, 82, 76
6, 425919, Note_on_c, 0, 79, 0
6, 425919, Note_on_c, 0, 82, 0
6, 426000, Note_on_c, 0, 72, 76
6, 426000, Note_on_c, 0, 79, 76
6, 426159, Note_on_c, 0, 72, 0
6, 426159, Note_on_c, 0, 79, 0
6, 426240, Note_on_c, 0, 84, 76
6, 426240, Note_on_c, 0, 81, 76
6, 426459, Note_on_c, 0, 84, 0
6, 426459, Note_on_c, 0, 81, 0
6, 426480, Note_on_c, 0, 81, 76
6, 426480, Note_on_c, 0, 77, 76
6, 426699, Note_on_c, 0, 81, 0
6, 426699, Note_on_c, 0, 77, 0
6, 426720, Note_on_c, 0, 84, 76
6, 426720, Note_on_c, 0, 81, 76
6, 426939, Note_on_c, 0, 84, 0
6, 426939, Note_on_c, 0, 81, 0
6, 426960, Note_on_c, 0, 77, 76
6, 426960, Note_on_c, 0, 81, 76
6, 427179, Note_on_c, 0, 77, 0
6, 427179, Note_on_c, 0, 81, 0
6, 427200, Note_on_c, 0, 79, 76
6, 427200, Note_on_c, 0, 82, 76
6, 427419, Note_on_c, 0, 79, 0
6, 427419, Note_on_c, 0, 82, 0
6, 427440, Note_on_c, 0, 72, 76
6, 427440, Note_on_c, 0, 79, 76
6, 427659, Note_on_c, 0, 72, 0
6, 427659, Note_on_c, 0, 79, 0
6, 427680, Note_on_c, 0, 79, 76
6, 427680, Note_on_c, 0, 82, 76
6, 427899, Note_on_c, 0, 79, 0
6, 427899, Note_on_c, 0, 82, 0
6, 427920, Note_on_c, 0, 79, 76
6, 427920, Note_on_c, 0, 72, 76
6, 428139, Note_on_c, 0, 79, 0
6, 428139, Note_on_c, 0, 72, 0
6, 428160, Note_on_c, 0, 81, 76
6, 428160, Note_on_c, 0, 84, 76
6, 428379, Note_on_c, 0, 81, 0
6, 428379, Note_on_c, 0, 84, 0
6, 428400, Note_on_c, 0, 81, 76
6, 428400, Note_on_c, 0, 77, 76
6, 428619, Note_on_c, 0, 81, 0
6, 428619, Note_on_c, 0, 77, 0
6, 428640, Note_on_c, 0, 77, 76
6, 428640, Note_on_c, 0, 81, 76
6, 428784, Note_on_c, 0, 77, 0
6, 428784, Note_on_c, 0, 81, 0
6, 428800, Note_on_c, 0, 81, 76
6, 428800, Note_on_c, 0, 77, 76
6, 428944, Note_on_c, 0, 81, 0
6, 428944, Note_on_c, 0, 77, 0
6, 428960, Note_on_c, 0, 81, 76
6, 428960, Note_on_c, 0, 77, 76
6, 429104, Note_on_c, 0, 81, 0
6, 429104, Note_on_c, 0, 77, 0
6, 429120, Note_on_c, 0, 82, 76
6, 429120, Note_on_c, 0, 79, 76
6, 429339, Note_on_c, 0, 82, 0
6, 429339, Note_on_c, 0, 79, 0
6, 429360, Note_on_c, 0, 79, 76
6, 429360, Note_on_c, 0, 72, 76
6, 429579, Note_on_c, 0, 79, 0
6, 429579, Note_on_c, 0, 72, 0
6, 429600, Note_on_c, 0, 82, 76
6, 429600, Note_on_c, 0, 79, 76
6, 429819, Note_on_c, 0, 82, 0
6, 429819, Note_on_c, 0, 79, 0
6, 429840, Note_on_c, 0, 79, 76
6, 429840, Note_on_c, 0, 72, 76
6, 430059, Note_on_c, 0, 79, 0
6, 430059, Note_on_c, 0, 72, 0
6, 430080, Note_on_c, 0, 81, 76
6, 430080, Note_on_c, 0, 84, 76
6, 430299, Note_on_c, 0, 81, 0
6, 430299, Note_on_c, 0, 84, 0
6, 430320, Note_on_c, 0, 77, 76
6, 430320, Note_on_c, 0, 81, 76
6, 430539, Note_on_c, 0, 77, 0
6, 430539, Note_on_c, 0, 81, 0
6, 430560, Note_on_c, 0, 84, 76
6, 430560, Note_on_c, 0, 81, 76
6, 430779, Note_on_c, 0, 84, 0
6, 430779, Note_on_c, 0, 81, 0
6, 430800, Note_on_c, 0, 77, 76
6, 430800, Note_on_c, 0, 81, 76
6, 431019, Note_on_c, 0, 77, 0
6, 431019, Note_on_c, 0, 81, 0
6, 431040, Note_on_c, 0, 82, 76
6, 431040, Note_on_c, 0, 79, 76
6, 431259, Note_on_c, 0, 82, 0
6, 431259, Note_on_c, 0, 79, 0
6, 431280, Note_on_c, 0, 81, 76
6, 431280, Note_on_c, 0, 84, 76
6, 431499, Note_on_c, 0, 81, 0
6, 431499, Note_on_c, 0, 84, 0
6, 431520, Note_on_c, 0, 86, 76
6, 431520, Note_on_c, 0, 82, 76
6, 431739, Note_on_c, 0, 86, 0
6, 431739, Note_on_c, 0, 82, 0
6, 431760, Note_on_c, 0, 88, 76
6, 431760, Note_on_c, 0, 79, 76
6, 431979, Note_on_c, 0, 88, 0
6, 431979, Note_on_c, 0, 79, 0
6, 432000, Note_on_c, 0, 81, 84
6, 432000, Note_on_c, 0, 89, 84
6, 432080, Control_c, 0, 11, 112
6, 432939, Note_on_c, 0, 81, 0
6, 432939, Note_on_c, 0, 89, 0
6, 432958, Control_c, 0, 11, 127
6, 432960, Note_on_c, 0, 77, 84
6, 432960, Note_on_c, 0, 81, 84
6, 433040, Control_c, 0, 11, 112
6, 433899, Note_on_c, 0, 77, 0
6, 433899, Note_on_c, 0, 81, 0
6, 433918, Control_c, 0, 11, 127
6, 433920, Note_on_c, 0, 93, 84
6, 433920, Note_on_c, 0, 89, 84
6, 434000, Control_c, 0, 11, 112
6, 434859, Note_on_c, 0, 93, 0
6, 434859, Note_on_c, 0, 89, 0
6, 434878, Control_c, 0, 11, 127
6, 434880, Note_on_c, 0, 77, 84
6, 434880, Note_on_c, 0, 81, 84
6, 434960, Control_c, 0, 11, 112
6, 435819, Note_on_c, 0, 77, 0
6, 435819, Note_on_c, 0, 81, 0
6, 435838, Control_c, 0, 11, 127
6, 435840, Note_on_c, 0, 89, 84
6, 435840, Note_on_c, 0, 93, 84
6, 435920, Control_c, 0, 11, 112
6, 436299, Note_on_c, 0, 89, 0
6, 436299, Note_on_c, 0, 93, 0
6, 436318, Control_c, 0, 11, 127
6, 436320, Note_on_c, 0, 77, 84
6, 436320, Note_on_c, 0, 81, 84
6, 436400, Control_c, 0, 11, 112
6, 436779, Note_on_c, 0, 77, 0
6, 436779, Note_on_c, 0, 81, 0
6, 436798, Control_c, 0, 11, 127
6, 436800, Note_on_c, 0, 93, 84
6, 436800, Note_on_c, 0, 89, 84
6, 436880, Control_c, 0, 11, 112
6, 437259, Note_on_c, 0, 93, 0
6, 437259, Note_on_c, 0, 89, 0
6, 437278, Control_c, 0, 11, 127
6, 437280, Note_on_c, 0, 81, 84
6, 437280, Note_on_c, 0, 77, 84
6, 437360, Control_c, 0, 11, 112
6, 437739, Note_on_c, 0, 81, 0
6, 437739, Note_on_c, 0, 77, 0
6, 437758, Control_c, 0, 11, 127
6, 437760, Note_on_c, 0, 89, 84
6, 437760, Note_on_c, 0, 93, 84
6, 437840, Control_c, 0, 11, 112
6, 438219, Note_on_c, 0, 89, 0
6, 438219, Note_on_c, 0, 93, 0
6, 438238, Control_c, 0, 11, 127
6, 438240, Note_on_c, 0, 77, 84
6, 438240, Note_on_c, 0, 81, 84
6, 438320, Control_c, 0, 11, 112
6, 438699, Note_on_c, 0, 77, 0
6, 438699, Note_on_c, 0, 81, 0
6, 438718, Control_c, 0, 11, 127
6, 438720, Note_on_c, 0, 93, 84
6, 438720, Note_on_c, 0, 89, 84
6, 438800, Control_c, 0, 11, 112
6, 439179, Note_on_c, 0, 93, 0
6, 439179, Note_on_c, 0, 89, 0
6, 439198, Control_c, 0, 11, 127
6, 439200, Note_on_c, 0, 77, 84
6, 439200, Note_on_c, 0, 81, 84
6, 439280, Control_c, 0, 11, 112
6, 439659, Note_on_c, 0, 77, 0
6, 439659, Note_on_c, 0, 81, 0
6, 439678, Control_c, 0, 11, 127
6, 439680, Note_on_c, 0, 89, 76
6, 439680, Note_on_c, 0, 93, 76
6, 439760, Control_c, 0, 11, 80
6, 440639, Note_on_c, 0, 89, 0
6, 440639, Note_on_c, 0, 93, 0
6, 447120, Control_c, 0, 11, 127
6, 447360, Note_on_c, 0, 89, 52
6, 447360, Note_on_c, 0, 93, 52
6, 447819, Note_on_c, 0, 89, 0
6, 447819, Note_on_c, 0, 93, 0
6, 447840, Note_on_c, 0, 81, 52
6, 447840, Note_on_c, 0, 77, 52
6, 448319, Note_on_c, 0, 81, 0
6, 448319, Note_on_c, 0, 77, 0
6, 450720, Note_on_c, 0, 77, 52
6, 450720, Note_on_c, 0, 81, 52
6, 451179, Note_on_c, 0, 77, 0
6, 451179, Note_on_c, 0, 81, 0
6, 451200, Note_on_c, 0, 89, 52
6, 451200, Note_on_c, 0, 93, 52
6, 451439, Note_on_c, 0, 89, 0
6, 451439, Note_on_c, 0, 93, 0
6, 451680, Note_on_c, 0, 81, 44
6, 451680, Note_on_c, 0, 89, 44
6, 451839, Note_on_c, 0, 81, 0
6, 451839, Note_on_c, 0, 89, 0
6, 452040, Note_on_c, 0, 88, 44
6, 452040, Note_on_c, 0, 84, 44
6, 452139, Note_on_c, 0, 88, 0
6, 452139, Note_on_c, 0, 84, 0
6, 452160, Note_on_c, 0, 88, 44
6, 452160, Note_on_c, 0, 84, 44
6, 452399, Note_on_c, 0, 88, 0
6, 452399, Note_on_c, 0, 84, 0
6, 452400, Note_on_c, 0, 82, 44
6, 452400, Note_on_c, 0, 86, 44
6, 452619, Note_on_c, 0, 82, 0
6, 452619, Note_on_c, 0, 86, 0
6, 452640, Note_on_c, 0, 84, 44
6, 452640, Note_on_c, 0, 81, 44
6, 452799, Note_on_c, 0, 84, 0
6, 452799, Note_on_c, 0, 81, 0
6, 453000, Note_on_c, 0, 81, 44
6, 453000, Note_on_c, 0, 84, 44
6, 453099, Note_on_c, 0, 81, 0
6, 453099, Note_on_c, 0, 84, 0
6, 453120, Note_on_c, 0, 84, 44
6, 453120, Note_on_c, 0, 81, 44
6, 453359, Note_on_c, 0, 84, 0
6, 453359, Note_on_c, 0, 81, 0
6, 453360, Note_on_c, 0, 79, 44
6, 453360, Note_on_c, 0, 82, 44
6, 453599, Note_on_c, 0, 79, 0
6, 453599, Note_on_c, 0, 82, 0
6, 455040, Control_c, 0, 11, 64
6, 455520, Note_on_c, 0, 89, 76
6, 455520, Note_on_c, 0, 81, 76
6, 455679, Note_on_c, 0, 89, 0
6, 455679, Note_on_c, 0, 81, 0
6, 455880, Note_on_c, 0, 88, 76
6, 455880, Note_on_c, 0, 84, 76
6, 455979, Note_on_c, 0, 88, 0
6, 455979, Note_on_c, 0, 84, 0
6, 456000, Note_on_c, 0, 84, 76
6, 456000, Note_on_c, 0, 88, 76
6, 456239, Note_on_c, 0, 84, 0
6, 456239, Note_on_c, 0, 88, 0
6, 456240, Note_on_c, 0, 86, 76
6, 456240, Note_on_c, 0, 82, 76
6, 456459, Note_on_c, 0, 86, 0
6, 456459, Note_on_c, 0, 82, 0
6, 456480, Note_on_c, 0, 84, 76
6, 456480, Note_on_c, 0, 81, 76
6, 456639, Note_on_c, 0, 84, 0
6, 456639, Note_on_c, 0, 81, 0
6, 456840, Note_on_c, 0, 81, 76
6, 456840, Note_on_c, 0, 84, 76
6, 456939, Note_on_c, 0, 81, 0
6, 456939, Note_on_c, 0, 84, 0
6, 456960, Control_c, 0, 11, 64
6, 456960, Note_on_c, 0, 82, 76
6, 456960, Note_on_c, 0, 79, 76
6, 457120, Control_c, 0, 11, 67
6, 457280, Control_c, 0, 11, 69
6, 457440, Control_c, 0, 11, 72
6, 457600, Control_c, 0, 11, 75
6, 457760, Control_c, 0, 11, 77
6, 457920, Control_c, 0, 11, 80
6, 458080, Control_c, 0, 11, 82
6, 458240, Control_c, 0, 11, 85
6, 458400, Control_c, 0, 11, 88
6, 458560, Control_c, 0, 11, 90
6, 458720, Control_c, 0, 11, 93
6, 458859, Note_on_c, 0, 82, 0
6, 458880, Note_on_c, 0, 88, 76
6, 458880, Control_c, 0, 11, 96
6, 459040, Control_c, 0, 11, 98
6, 459200, Control_c, 0, 11, 101
6, 459360, Control_c, 0, 11, 103
6, 459520, Control_c, 0, 11, 106
6, 459680, Control_c, 0, 11, 109
6, 459840, Control_c, 0, 11, 111
6, 460000, Control_c, 0, 11, 114
6, 460160, Control_c, 0, 11, 117
6, 460320, Control_c, 0, 11, 119
6, 460480, Control_c, 0, 11, 122
6, 460640, Control_c, 0, 11, 127
6, 460779, Note_on_c, 0, 79, 0
6, 460779, Note_on_c, 0, 88, 0
6, 460800, Note_on_c, 0, 84, 76
6, 460800, Note_on_c, 0, 89, 76
6, 460944, Note_on_c, 0, 84, 0
6, 460944, Note_on_c, 0, 89, 0
6, 460960, Note_on_c, 0, 84, 76
6, 460960, Note_on_c, 0, 89, 76
6, 461104, Note_on_c, 0, 84, 0
6, 461104, Note_on_c, 0, 89, 0
6, 461120, Note_on_c, 0, 84, 76
6, 461120, Note_on_c, 0, 89, 76
6, 461264, Note_on_c, 0, 84, 0
6, 461264, Note_on_c, 0, 89, 0
6, 461280, Note_on_c, 0, 84, 76
6, 461280, Note_on_c, 0, 89, 76
6, 461424, Note_on_c, 0, 84, 0
6, 461424, Note_on_c, 0, 89, 0
6, 461440, Note_on_c, 0, 89, 76
6, 461440, Note_on_c, 0, 84, 76
6, 461584, Note_on_c, 0, 89, 0
6, 461584, Note_on_c, 0, 84, 0
6, 461600, Note_on_c, 0, 84, 76
6, 461600, Note_on_c, 0, 89, 76
6, 461744, Note_on_c, 0, 84, 0
6, 461744, Note_on_c, 0, 89, 0
6, 461760, Note_on_c, 0, 89, 76
6, 461760, Note_on_c, 0, 84, 76
6, 461904, Note_on_c, 0, 89, 0
6, 461904, Note_on_c, 0, 84, 0
6, 461920, Note_on_c, 0, 84, 76
6, 461920, Note_on_c, 0, 89, 76
6, 462064, Note_on_c, 0, 84, 0
6, 462064, Note_on_c, 0, 89, 0
6, 462080, Note_on_c, 0, 84, 76
6, 462080, Note_on_c, 0, 89, 76
6, 462224, Note_on_c, 0, 84, 0
6, 462224, Note_on_c, 0, 89, 0
6, 462240, Note_on_c, 0, 84, 76
6, 462240, Note_on_c, 0, 89, 76
6, 462384, Note_on_c, 0, 84, 0
6, 462384, Note_on_c, 0, 89, 0
6, 462400, Note_on_c, 0, 84, 76
6, 462400, Note_on_c, 0, 89, 76
6, 462544, Note_on_c, 0, 84, 0
6, 462544, Note_on_c, 0, 89, 0
6, 462560, Note_on_c, 0, 84, 76
6, 462560, Note_on_c, 0, 89, 76
6, 462704, Note_on_c, 0, 84, 0
6, 462704, Note_on_c, 0, 89, 0
6, 462720, Note_on_c, 0, 89, 76
6, 462720, Note_on_c, 0, 84, 76
6, 462959, Note_on_c, 0, 89, 0
6, 462959, Note_on_c, 0, 84, 0
6, 463680, Note_on_c, 0, 91, 76
6, 463680, Note_on_c, 0, 88, 76
6, 463919, Note_on_c, 0, 91, 0
6, 463919, Note_on_c, 0, 88, 0
6, 464640, Note_on_c, 0, 89, 76
6, 464640, Note_on_c, 0, 84, 76
6, 464879, Note_on_c, 0, 89, 0
6, 464879, Note_on_c, 0, 84, 0
6, 465600, Note_on_c, 0, 88, 76
6, 465600, Note_on_c, 0, 91, 76
6, 465839, Note_on_c, 0, 88, 0
6, 465839, Note_on_c, 0, 91, 0
6, 466560, Note_on_c, 0, 89, 76
6, 466560, Note_on_c, 0, 84, 76
6, 466799, Note_on_c, 0, 89, 0
6, 466799, Note_on_c, 0, 84, 0
6, 467040, Note_on_c, 0, 91, 76
6, 467040, Note_on_c, 0, 88, 76
6, 467279, Note_on_c, 0, 91, 0
6, 467279, Note_on_c, 0, 88, 0
6, 467520, Note_on_c, 0, 84, 76
6, 467520, Note_on_c, 0, 89, 76
6, 467759, Note_on_c, 0, 84, 0
6, 467759, Note_on_c, 0, 89, 0
6, 468000, Note_on_c, 0, 88, 76
6, 468000, Note_on_c, 0, 91, 76
6, 468239, Note_on_c, 0, 88, 0
6, 468239, Note_on_c, 0, 91, 0
6, 468480, Note_on_c, 0, 84, 76
6, 468480, Note_on_c, 0, 89, 76
6, 468719, Note_on_c, 0, 84, 0
6, 468719, Note_on_c, 0, 89, 0
6, 468960, Note_on_c, 0, 91, 76
6, 468960, Note_on_c, 0, 88, 76
6, 469199, Note_on_c, 0, 91, 0
6, 469199, Note_on_c, 0, 88, 0
6, 469440, Note_on_c, 0, 89, 76
6, 469440, Note_on_c, 0, 84, 76
6, 469679, Note_on_c, 0, 89, 0
6, 469679, Note_on_c, 0, 84, 0
6, 469920, Note_on_c, 0, 91, 76
6, 469920, Note_on_c, 0, 88, 76
6, 470159, Note_on_c, 0, 91, 0
6, 470159, Note_on_c, 0, 88, 0
6, 470400, Note_on_c, 0, 93, 84
6, 470400, Note_on_c, 0, 89, 84
6, 470544, Note_on_c, 0, 93, 0
6, 470544, Note_on_c, 0, 89, 0
6, 470560, Note_on_c, 0, 89, 84
6, 470560, Note_on_c, 0, 93, 84
6, 470704, Note_on_c, 0, 89, 0
6, 470704, Note_on_c, 0, 93, 0
6, 470720, Note_on_c, 0, 89, 84
6, 470720, Note_on_c, 0, 93, 84
6, 470864, Note_on_c, 0, 89, 0
6, 470864, Note_on_c, 0, 93, 0
6, 470880, Note_on_c, 0, 93, 84
6, 470880, Note_on_c, 0, 89, 84
6, 471024, Note_on_c, 0, 93, 0
6, 471024, Note_on_c, 0, 89, 0
6, 471040, Note_on_c, 0, 89, 84
6, 471040, Note_on_c, 0, 93, 84
6, 471184, Note_on_c, 0, 89, 0
6, 471184, Note_on_c, 0, 93, 0
6, 471200, Note_on_c, 0, 89, 84
6, 471200, Note_on_c, 0, 93, 84
6, 471344, Note_on_c, 0, 89, 0
6, 471344, Note_on_c, 0, 93, 0
6, 471360, Note_on_c, 0, 93, 84
6, 471360, Note_on_c, 0, 89, 84
6, 471504, Note_on_c, 0, 93, 0
6, 471504, Note_on_c, 0, 89, 0
6, 471520, Note_on_c, 0, 93, 84
6, 471520, Note_on_c, 0, 89, 84
6, 471664, Note_on_c, 0, 93, 0
6, 471664, Note_on_c, 0, 89, 0
6, 471680, Note_on_c, 0, 93, 84
6, 471680, Note_on_c, 0, 89, 84
6, 471824, Note_on_c, 0, 93, 0
6, 471824, Note_on_c, 0, 89, 0
6, 471840, Note_on_c, 0, 89, 84
6, 471840, Note_on_c, 0, 93, 84
6, 471984, Note_on_c, 0, 89, 0
6, 471984, Note_on_c, 0, 93, 0
6, 472000, Note_on_c, 0, 89, 84
6, 472000, Note_on_c, 0, 93, 84
6, 472144, Note_on_c, 0, 89, 0
6, 472144, Note_on_c, 0, 93, 0
6, 472160, Note_on_c, 0, 93, 84
6, 472160, Note_on_c, 0, 89, 84
6, 472304, Note_on_c, 0, 93, 0
6, 472304, Note_on_c, 0, 89, 0
6, 472320, Note_on_c, 0, 89, 84
6, 472320, Note_on_c, 0, 93, 84
6, 472559, Note_on_c, 0, 89, 0
6, 472559, Note_on_c, 0, 93, 0
6, 473280, Note_on_c, 0, 93, 84
6, 473280, Note_on_c, 0, 89, 84
6, 473519, Note_on_c, 0, 93, 0
6, 473519, Note_on_c, 0, 89, 0
6, 474240, Note_on_c, 0, 93, 84
6, 474240, Note_on_c, 0, 89, 84
6, 474479, Note_on_c, 0, 93, 0
6, 474479, Note_on_c, 0, 89, 0
6, 475200, Note_on_c, 0, 89, 84
6, 475200, Note_on_c, 0, 93, 84
6, 475439, Note_on_c, 0, 89, 0
6, 475439, Note_on_c, 0, 93, 0
6, 476160, Note_on_c, 0, 89, 84
6, 476160, Note_on_c, 0, 93, 84
6, 476399, Note_on_c, 0, 89, 0
6, 476399, Note_on_c, 0, 93, 0
6, 476640, Note_on_c, 0, 93, 84
6, 476640, Note_on_c, 0, 89, 84
6, 476879, Note_on_c, 0, 93, 0
6, 476879, Note_on_c, 0, 89, 0
6, 477120, Note_on_c, 0, 93, 84
6, 477120, Note_on_c, 0, 89, 84
6, 477359, Note_on_c, 0, 93, 0
6, 477359, Note_on_c, 0, 89, 0
6, 477600, Note_on_c, 0, 93, 84
6, 477600, Note_on_c, 0, 89, 84
6, 477839, Note_on_c, 0, 93, 0
6, 477839, Note_on_c, 0, 89, 0
6, 478080, Note_on_c, 0, 93, 84
6, 478080, Note_on_c, 0, 89, 84
6, 478319, Note_on_c, 0, 93, 0
6, 478319, Note_on_c, 0, 89, 0
6, 478560, Note_on_c, 0, 89, 84
6, 478560, Note_on_c, 0, 93, 84
6, 478799, Note_on_c, 0, 89, 0
6, 478799, Note_on_c, 0, 93, 0
6, 479040, Note_on_c, 0, 93, 84
6, 479040, Note_on_c, 0, 89, 84
6, 479279, Note_on_c, 0, 93, 0
6, 479279, Note_on_c, 0, 89, 0
6, 479520, Note_on_c, 0, 89, 84
6, 479520, Note_on_c, 0, 93, 84
6, 479759, Note_on_c, 0, 89, 0
6, 479759, Note_on_c, 0, 93, 0
6, 480000, Note_on_c, 0, 89, 84
6, 480000, Note_on_c, 0, 93, 84
6, 480239, Note_on_c, 0, 89, 0
6, 480239, Note_on_c, 0, 93, 0
6, 480960, Note_on_c, 0, 89, 84
6, 480960, Note_on_c, 0, 93, 84
6, 481199, Note_on_c, 0, 89, 0
6, 481199, Note_on_c, 0, 93, 0
6, 481920, Note_on_c, 0, 89, 84
6, 482159, Note_on_c, 0, 89, 0
6, 482159, End_track
7, 0, Start_track
7, 0, Title_t, "Oboe"
7, 0, MIDI_port, 0
7, 0, Program_c, 1, 68
7, 0, Control_c, 1, 7, 80
7, 0, Control_c, 1, 10, 70
7, 0, Control_c, 1, 11, 127
7, 1920, Note_on_c, 1, 77, 44
7, 2039, Note_on_c, 1, 77, 0
7, 2040, Note_on_c, 1, 79, 44
7, 2139, Note_on_c, 1, 79, 0
7, 2160, Note_on_c, 1, 72, 44
7, 2319, Note_on_c, 1, 72, 0
7, 3840, Note_on_c, 1, 79, 44
7, 3959, Note_on_c, 1, 79, 0
7, 3960, Note_on_c, 1, 81, 44
7, 4059, Note_on_c, 1, 81, 0
7, 4080, Note_on_c, 1, 77, 44
7, 4239, Note_on_c, 1, 77, 0
7, 14400, Note_on_c, 1, 72, 36
7, 14639, Note_on_c, 1, 72, 0
7, 15360, Note_on_c, 1, 72, 36
7, 15599, Note_on_c, 1, 72, 0
7, 16320, Note_on_c, 1, 72, 36
7, 16559, Note_on_c, 1, 72, 0
7, 16800, Note_on_c, 1, 73, 84
7, 16800, Note_on_c, 1, 85, 84
7, 17739, Note_on_c, 1, 73, 0
7, 17739, Note_on_c, 1, 85, 0
7, 17760, Note_on_c, 1, 77, 84
7, 17760, Note_on_c, 1, 81, 84
7, 17904, Note_on_c, 1, 77, 0
7, 17904, Note_on_c, 1, 81, 0
7, 17920, Note_on_c, 1, 77, 84
7, 17920, Note_on_c, 1, 81, 84
7, 18064, Note_on_c, 1, 77, 0
7, 18064, Note_on_c, 1, 81, 0
7, 18080, Note_on_c, 1, 81, 84
7, 18080, Note_on_c, 1, 77, 84
7, 18224, Note_on_c, 1, 81, 0
7, 18224, Note_on_c, 1, 77, 0
7, 18240, Note_on_c, 1, 81, 84
7, 18240, Note_on_c, 1, 77, 84
7, 18359, Note_on_c, 1, 81, 0
7, 18359, Note_on_c, 1, 77, 0
7, 18360, Note_on_c, 1, 79, 84
7, 18360, Note_on_c, 1, 82, 84
7, 18459, Note_on_c, 1, 79, 0
7, 18459, Note_on_c, 1, 82, 0
7, 18480, Note_on_c, 1, 72, 84
7, 18480, Note_on_c, 1, 79, 84
7, 18639, Note_on_c, 1, 72, 0
7, 18639, Note_on_c, 1, 79, 0
7, 18720, Note_on_c, 1, 77, 84
7, 18720, Note_on_c, 1, 81, 84
7, 18839, Note_on_c, 1, 77, 0
7, 18839, Note_on_c, 1, 81, 0
7, 18840, Note_on_c, 1, 82, 84
7, 18840, Note_on_c, 1, 79, 84
7, 18939, Note_on_c, 1, 82, 0
7, 18939, Note_on_c, 1, 79, 0
7, 18960, Note_on_c, 1, 79, 84
7, 18960, Note_on_c, 1, 72, 84
7, 19119, Note_on_c, 1, 79, 0
7, 19119, Note_on_c, 1, 72, 0
7, 19200, Note_on_c, 1, 81, 84
7, 19200, Note_on_c, 1, 77, 84
7, 19319, Note_on_c, 1, 81, 0
7, 19319, Note_on_c, 1, 77, 0
7, 19320, Note_on_c, 1, 79, 84
7, 19320, Note_on_c, 1, 82, 84
7, 19419, Note_on_c, 1, 79, 0
7, 19419, Note_on_c, 1, 82, 0
7, 19440, Note_on_c, 1, 79, 84
7, 19440, Note_on_c, 1, 72, 84
7, 19599, Note_on_c, 1, 79, 0
7, 19599, Note_on_c, 1, 72, 0
7, 19680, Note_on_c, 1, 82, 84
7, 19680, Note_on_c, 1, 79, 84
7, 19824, Note_on_c, 1, 82, 0
7, 19824, Note_on_c, 1, 79, 0
7, 19840, Note_on_c, 1, 79, 84
7, 19840, Note_on_c, 1, 82, 84
7, 19984, Note_on_c, 1, 79, 0
7, 19984, Note_on_c, 1, 82, 0
7, 20000, Note_on_c, 1, 79, 84
7, 20000, Note_on_c, 1, 82, 84
7, 20144, Note_on_c, 1, 79, 0
7, 20144, Note_on_c, 1, 82, 0
7, 20160, Note_on_c, 1, 82, 84
7, 20160, Note_on_c, 1, 79, 84
7, 20279, Note_on_c, 1, 82, 0
7, 20279, Note_on_c, 1, 79, 0
7, 20280, Note_on_c, 1, 81, 84
7, 20280, Note_on_c, 1, 84, 84
7, 20379, Note_on_c, 1, 81, 0
7, 20379, Note_on_c, 1, 84, 0
7, 20400, Note_on_c, 1, 77, 84
7, 20400, Note_on_c, 1, 81, 84
7, 20559, Note_on_c, 1, 77, 0
7, 20559, Note_on_c, 1, 81, 0
7, 20640, Note_on_c, 1, 79, 84
7, 20640, Note_on_c, 1, 82, 84
7, 20759, Note_on_c, 1, 79, 0
7, 20759, Note_on_c, 1, 82, 0
7, 20760, Note_on_c, 1, 84, 84
7, 20760, Note_on_c, 1, 81, 84
7, 20859, Note_on_c, 1, 84, 0
7, 20859, Note_on_c, 1, 81, 0
7, 20880, Note_on_c, 1, 81, 84
7, 20880, Note_on_c, 1, 77, 84
7, 21039, Note_on_c, 1, 81, 0
7, 21039, Note_on_c, 1, 77, 0
7, 21120, Note_on_c, 1, 82, 84
7, 21120, Note_on_c, 1, 79, 84
7, 21239, Note_on_c, 1, 82, 0
7, 21239, Note_on_c, 1, 79, 0
7, 21240, Note_on_c, 1, 84, 84
7, 21240, Note_on_c, 1, 81, 84
7, 21339, Note_on_c, 1, 84, 0
7, 21339, Note_on_c, 1, 81, 0
7, 21360, Note_on_c, 1, 81, 84
7, 21360, Note_on_c, 1, 77, 84
7, 21519, Note_on_c, 1, 81, 0
7, 21519, Note_on_c, 1, 77, 0
7, 21600, Note_on_c, 1, 77, 84
7, 21600, Note_on_c, 1, 69, 84
7, 21839, Note_on_c, 1, 77, 0
7, 21839, Note_on_c, 1, 69, 0
7, 21960, Note_on_c, 1, 72, 84
7, 21960, Note_on_c, 1, 76, 84
7, 22059, Note_on_c, 1, 72, 0
7, 22059, Note_on_c, 1, 76, 0
7, 22080, Note_on_c, 1, 76, 84
7, 22080, Note_on_c, 1, 72, 84
7, 22319, Note_on_c, 1, 76, 0
7, 22319, Note_on_c, 1, 72, 0
7, 22320, Note_on_c, 1, 70, 84
7, 22320, Note_on_c, 1, 74, 84
7, 22539, Note_on_c, 1, 70, 0
7, 22539, Note_on_c, 1, 74, 0
7, 22560, Note_on_c, 1, 78, 84
7, 22560, Note_on_c, 1, 86, 84
7, 22719, Note_on_c, 1, 78, 0
7, 22719, Note_on_c, 1, 86, 0
7, 22920, Note_on_c, 1, 81, 84
7, 22920, Note_on_c, 1, 84, 84
7, 23019, Note_on_c, 1, 81, 0
7, 23019, Note_on_c, 1, 84, 0
7, 23040, Note_on_c, 1, 84, 84
7, 23040, Note_on_c, 1, 81, 84
7, 23279, Note_on_c, 1, 84, 0
7, 23279, Note_on_c, 1, 81, 0
7, 23280, Note_on_c, 1, 79, 84
7, 23280, Note_on_c, 1, 82, 84
7, 23499, Note_on_c, 1, 79, 0
7, 23499, Note_on_c, 1, 82, 0
7, 23520, Note_on_c, 1, 82, 84
7, 23520, Note_on_c, 1, 70, 84
7, 23679, Note_on_c, 1, 82, 0
7, 23679, Note_on_c, 1, 70, 0
7, 23760, Note_on_c, 1, 81, 84
7, 23760, Note_on_c, 1, 69, 84
7, 23919, Note_on_c, 1, 81, 0
7, 23919, Note_on_c, 1, 69, 0
7, 24000, Note_on_c, 1, 67, 84
7, 24000, Note_on_c, 1, 79, 84
7, 24159, Note_on_c, 1, 67, 0
7, 24159, Note_on_c, 1, 79, 0
7, 24240, Note_on_c, 1, 66, 84
7, 24240, Note_on_c, 1, 78, 84
7, 24399, Note_on_c, 1, 66, 0
7, 24399, Note_on_c, 1, 78, 0
7, 24480, Note_on_c, 1, 79, 84
7, 24480, Note_on_c, 1, 67, 84
7, 24639, Note_on_c, 1, 79, 0
7, 24639, Note_on_c, 1, 67, 0
7, 24720, Note_on_c, 1, 81, 84
7, 24720, Note_on_c, 1, 69, 84
7, 24879, Note_on_c, 1, 81, 0
7, 24879, Note_on_c, 1, 69, 0
7, 24960, Note_on_c, 1, 70, 84
7, 24960, Note_on_c, 1, 82, 84
7, 25119, Note_on_c, 1, 70, 0
7, 25119, Note_on_c, 1, 82, 0
7, 25200, Note_on_c, 1, 72, 84
7, 25200, Note_on_c, 1, 79, 84
7, 25359, Note_on_c, 1, 72, 0
7, 25359, Note_on_c, 1, 79, 0
7, 25440, Note_on_c, 1, 81, 84
7, 25440, Note_on_c, 1, 72, 84
7, 25599, Note_on_c, 1, 81, 0
7, 25599, Note_on_c, 1, 72, 0
7, 25680, Note_on_c, 1, 74, 84
7, 25680, Note_on_c, 1, 77, 84
7, 25839, Note_on_c, 1, 74, 0
7, 25839, Note_on_c, 1, 77, 0
7, 25920, Note_on_c, 1, 74, 84
7, 25920, Note_on_c, 1, 82, 84
7, 26079, Note_on_c, 1, 74, 0
7, 26079, Note_on_c, 1, 82, 0
7, 26160, Note_on_c, 1, 82, 84
7, 26160, Note_on_c, 1, 74, 84
7, 26319, Note_on_c, 1, 82, 0
7, 26319, Note_on_c, 1, 74, 0
7, 26400, Note_on_c, 1, 79, 84
7, 26400, Note_on_c, 1, 76, 84
7, 26559, Note_on_c, 1, 79, 0
7, 26559, Note_on_c, 1, 76, 0
7, 26640, Note_on_c, 1, 79, 84
7, 26640, Note_on_c, 1, 76, 84
7, 26799, Note_on_c, 1, 79, 0
7, 26799, Note_on_c, 1, 76, 0
7, 26880, Note_on_c, 1, 81, 84
7, 26880, Note_on_c, 1, 77, 84
7, 27119, Note_on_c, 1, 81, 0
7, 27119, Note_on_c, 1, 77, 0
7, 27840, Note_on_c, 1, 77, 84
7, 27840, Note_on_c, 1, 72, 84
7, 28079, Note_on_c, 1, 77, 0
7, 28079, Note_on_c, 1, 72, 0
7, 28800, Note_on_c, 1, 76, 84
7, 28800, Note_on_c, 1, 79, 84
7, 29039, Note_on_c, 1, 76, 0
7, 29039, Note_on_c, 1, 79, 0
7, 29760, Note_on_c, 1, 79, 84
7, 29760, Note_on_c, 1, 76, 84
7, 29999, Note_on_c, 1, 79, 0
7, 29999, Note_on_c, 1, 76, 0
7, 30720, Note_on_c, 1, 77, 84
7, 30720, Note_on_c, 1, 81, 84
7, 30959, Note_on_c, 1, 77, 0
7, 30959, Note_on_c, 1, 81, 0
7, 31200, Note_on_c, 1, 77, 84
7, 31359, Note_on_c, 1, 77, 0
7, 31440, Note_on_c, 1, 84, 84
7, 31440, Note_on_c, 1, 72, 84
7, 31599, Note_on_c, 1, 84, 0
7, 31599, Note_on_c, 1, 72, 0
7, 31680, Note_on_c, 1, 72, 84
7, 31680, Note_on_c, 1, 84, 84
7, 31839, Note_on_c, 1, 72, 0
7, 31839, Note_on_c, 1, 84, 0
7, 31920, Note_on_c, 1, 69, 84
7, 31920, Note_on_c, 1, 81, 84
7, 32079, Note_on_c, 1, 69, 0
7, 32079, Note_on_c, 1, 81, 0
7, 32160, Note_on_c, 1, 69, 84
7, 32160, Note_on_c, 1, 81, 84
7, 32319, Note_on_c, 1, 69, 0
7, 32319, Note_on_c, 1, 81, 0
7, 32400, Note_on_c, 1, 77, 84
7, 32400, Note_on_c, 1, 65, 84
7, 32559, Note_on_c, 1, 77, 0
7, 32559, Note_on_c, 1, 65, 0
7, 32640, Note_on_c, 1, 60, 84
7, 32640, Note_on_c, 1, 72, 84
7, 32799, Note_on_c, 1, 60, 0
7, 32799, Note_on_c, 1, 72, 0
7, 33120, Note_on_c, 1, 70, 84
7, 33120, Note_on_c, 1, 82, 84
7, 33279, Note_on_c, 1, 70, 0
7, 33279, Note_on_c, 1, 82, 0
7, 33360, Note_on_c, 1, 79, 84
7, 33360, Note_on_c, 1, 67, 84
7, 33519, Note_on_c, 1, 79, 0
7, 33519, Note_on_c, 1, 67, 0
7, 33600, Note_on_c, 1, 79, 84
7, 33600, Note_on_c, 1, 67, 84
7, 33759, Note_on_c, 1, 79, 0
7, 33759, Note_on_c, 1, 67, 0
7, 33840, Note_on_c, 1, 64, 84
7, 33840, Note_on_c, 1, 76, 84
7, 33999, Note_on_c, 1, 64, 0
7, 33999, Note_on_c, 1, 76, 0
7, 34080, Note_on_c, 1, 76, 84
7, 34080, Note_on_c, 1, 64, 84
7, 34239, Note_on_c, 1, 76, 0
7, 34239, Note_on_c, 1, 64, 0
7, 34320, Note_on_c, 1, 72, 84
7, 34320, Note_on_c, 1, 60, 84
7, 34479, Note_on_c, 1, 72, 0
7, 34479, Note_on_c, 1, 60, 0
7, 34560, Note_on_c, 1, 65, 84
7, 34560, Note_on_c, 1, 77, 84
7, 34719, Note_on_c, 1, 65, 0
7, 34719, Note_on_c, 1, 77, 0
7, 35520, Note_on_c, 1, 84, 84
7, 35520, Note_on_c, 1, 76, 84
7, 35759, Note_on_c, 1, 84, 0
7, 35759, Note_on_c, 1, 76, 0
7, 36480, Note_on_c, 1, 83, 84
7, 36480, Note_on_c, 1, 86, 84
7, 36719, Note_on_c, 1, 83, 0
7, 36719, Note_on_c, 1, 86, 0
7, 37440, Note_on_c, 1, 79, 84
7, 37440, Note_on_c, 1, 74, 84
7, 37679, Note_on_c, 1, 79, 0
7, 37679, Note_on_c, 1, 74, 0
7, 38400, Note_on_c, 1, 79, 84
7, 38400, Note_on_c, 1, 76, 84
7, 38639, Note_on_c, 1, 79, 0
7, 38639, Note_on_c, 1, 76, 0
7, 38880, Note_on_c, 1, 72, 84
7, 38880, Note_on_c, 1, 84, 84
7, 39039, Note_on_c, 1, 72, 0
7, 39039, Note_on_c, 1, 84, 0
7, 39120, Note_on_c, 1, 67, 84
7, 39120, Note_on_c, 1, 79, 84
7, 39279, Note_on_c, 1, 67, 0
7, 39279, Note_on_c, 1, 79, 0
7, 39360, Note_on_c, 1, 79, 84
7, 39360, Note_on_c, 1, 67, 84
7, 39519, Note_on_c, 1, 79, 0
7, 39519, Note_on_c, 1, 67, 0
7, 39600, Note_on_c, 1, 64, 84
7, 39600, Note_on_c, 1, 76, 84
7, 39759, Note_on_c, 1, 64, 0
7, 39759, Note_on_c, 1, 76, 0
7, 39840, Note_on_c, 1, 76, 84
7, 39840, Note_on_c, 1, 64, 84
7, 39999, Note_on_c, 1, 76, 0
7, 39999, Note_on_c, 1, 64, 0
7, 40080, Note_on_c, 1, 72, 84
7, 40239, Note_on_c, 1, 72, 0
7, 40320, Note_on_c, 1, 67, 84
7, 40479, Note_on_c, 1, 67, 0
7, 40800, Note_on_c, 1, 74, 92
7, 40800, Note_on_c, 1, 77, 92
7, 40959, Note_on_c, 1, 74, 0
7, 40959, Note_on_c, 1, 77, 0
7, 41040, Note_on_c, 1, 71, 84
7, 41040, Note_on_c, 1, 74, 84
7, 41199, Note_on_c, 1, 71, 0
7, 41199, Note_on_c, 1, 74, 0
7, 41280, Note_on_c, 1, 74, 92
7, 41280, Note_on_c, 1, 71, 92
7, 41439, Note_on_c, 1, 74, 0
7, 41439, Note_on_c, 1, 71, 0
7, 41520, Note_on_c, 1, 71, 84
7, 41520, Note_on_c, 1, 67, 84
7, 41679, Note_on_c, 1, 71, 0
7, 41679, Note_on_c, 1, 67, 0
7, 42720, Note_on_c, 1, 74, 84
7, 42720, Note_on_c, 1, 77, 84
7, 42879, Note_on_c, 1, 74, 0
7, 42879, Note_on_c, 1, 77, 0
7, 42960, Note_on_c, 1, 71, 84
7, 42960, Note_on_c, 1, 74, 84
7, 43119, Note_on_c, 1, 71, 0
7, 43119, Note_on_c, 1, 74, 0
7, 43200, Note_on_c, 1, 74, 84
7, 43200, Note_on_c, 1, 71, 84
7, 43359, Note_on_c, 1, 74, 0
7, 43359, Note_on_c, 1, 71, 0
7, 43440, Note_on_c, 1, 67, 84
7, 43440, Note_on_c, 1, 71, 84
7, 43599, Note_on_c, 1, 67, 0
7, 43599, Note_on_c, 1, 71, 0
7, 44640, Note_on_c, 1, 74, 84
7, 44640, Note_on_c, 1, 77, 84
7, 44799, Note_on_c, 1, 74, 0
7, 44799, Note_on_c, 1, 77, 0
7, 44880, Note_on_c, 1, 74, 84
7, 44880, Note_on_c, 1, 71, 84
7, 45039, Note_on_c, 1, 74, 0
7, 45039, Note_on_c, 1, 71, 0
7, 45120, Note_on_c, 1, 74, 84
7, 45120, Note_on_c, 1, 71, 84
7, 45279, Note_on_c, 1, 74, 0
7, 45279, Note_on_c, 1, 71, 0
7, 45360, Note_on_c, 1, 67, 84
7, 45360, Note_on_c, 1, 71, 84
7, 45519, Note_on_c, 1, 67, 0
7, 45519, Note_on_c, 1, 71, 0
7, 45600, Note_on_c, 1, 79, 84
7, 45759, Note_on_c, 1, 79, 0
7, 45840, Note_on_c, 1, 67, 84
7, 45999, Note_on_c, 1, 67, 0
7, 46080, Note_on_c, 1, 68, 52
7, 46319, Note_on_c, 1, 68, 0
7, 48960, Control_c, 1, 11, 96
7, 49440, Control_c, 1, 11, 96
7, 49440, Note_on_c, 1, 79, 68
7, 49500, Control_c, 1, 11, 99
7, 49560, Control_c, 1, 11, 101
7, 49620, Control_c, 1, 11, 104
7, 49680, Control_c, 1, 11, 106
7, 49740, Control_c, 1, 11, 109
7, 49800, Control_c, 1, 11, 112
7, 49860, Control_c, 1, 11, 114
7, 49919, Note_on_c, 1, 79, 0
7, 49920, Control_c, 1, 11, 117
7, 49920, Note_on_c, 1, 80, 68
7, 49980, Control_c, 1, 11, 119
7, 50040, Control_c, 1, 11, 122
7, 50100, Control_c, 1, 11, 124
7, 50160, Control_c, 1, 11, 127
7, 50280, Control_c, 1, 11, 127
7, 50340, Control_c, 1, 11, 124
7, 50400, Control_c, 1, 11, 122
7, 50460, Control_c, 1, 11, 119
7, 50520, Control_c, 1, 11, 117
7, 50580, Control_c, 1, 11, 114
7, 50639, Note_on_c, 1, 80, 0
7, 50640, Note_on_c, 1, 82, 68
7, 50640, Control_c, 1, 11, 112
7, 50700, Control_c, 1, 11, 109
7, 50759, Note_on_c, 1, 82, 0
7, 50760, Note_on_c, 1, 84, 68
7, 50760, Control_c, 1, 11, 106
7, 50820, Control_c, 1, 11, 104
7, 50879, Note_on_c, 1, 84, 0
7, 50880, Note_on_c, 1, 75, 68
7, 50880, Control_c, 1, 11, 101
7, 50940, Control_c, 1, 11, 99
7, 51000, Control_c, 1, 11, 96
7, 51119, Note_on_c, 1, 75, 0
7, 52800, Control_c, 1, 11, 112
7, 53280, Note_on_c, 1, 79, 60
7, 53280, Control_c, 1, 11, 112
7, 53320, Control_c, 1, 11, 113
7, 53360, Control_c, 1, 11, 115
7, 53400, Control_c, 1, 11, 116
7, 53440, Control_c, 1, 11, 117
7, 53480, Control_c, 1, 11, 118
7, 53520, Control_c, 1, 11, 120
7, 53560, Control_c, 1, 11, 121
7, 53600, Control_c, 1, 11, 122
7, 53640, Control_c, 1, 11, 123
7, 53680, Control_c, 1, 11, 125
7, 53720, Control_c, 1, 11, 127
7, 53759, Note_on_c, 1, 79, 0
7, 53760, Note_on_c, 1, 80, 52
7, 53999, Note_on_c, 1, 80, 0
7, 54240, Note_on_c, 1, 84, 53
7, 54479, Note_on_c, 1, 84, 0
7, 55200, Note_on_c, 1, 84, 58
7, 55439, Note_on_c, 1, 84, 0
7, 56160, Note_on_c, 1, 86, 63
7, 56399, Note_on_c, 1, 86, 0
7, 57120, Note_on_c, 1, 79, 68
7, 57359, Note_on_c, 1, 79, 0
7, 57600, Note_on_c, 1, 72, 48
7, 58559, Note_on_c, 1, 72, 0
7, 58560, Note_on_c, 1, 79, 48
7, 59279, Note_on_c, 1, 79, 0
7, 59280, Note_on_c, 1, 81, 48
7, 59499, Note_on_c, 1, 81, 0
7, 59520, Note_on_c, 1, 81, 48
7, 59759, Note_on_c, 1, 81, 0
7, 59760, Note_on_c, 1, 74, 48
7, 59979, Note_on_c, 1, 74, 0
7, 60000, Note_on_c, 1, 74, 48
7, 60239, Note_on_c, 1, 74, 0
7, 60240, Note_on_c, 1, 76, 48
7, 60479, Note_on_c, 1, 76, 0
7, 60480, Note_on_c, 1, 77, 48
7, 60719, Note_on_c, 1, 77, 0
7, 60960, Note_on_c, 1, 79, 48
7, 61199, Note_on_c, 1, 79, 0
7, 61440, Note_on_c, 1, 76, 48
7, 62399, Note_on_c, 1, 76, 0
7, 62400, Note_on_c, 1, 79, 48
7, 62639, Note_on_c, 1, 79, 0
7, 62640, Note_on_c, 1, 81, 48
7, 62719, Note_on_c, 1, 81, 0
7, 62720, Note_on_c, 1, 79, 48
7, 62799, Note_on_c, 1, 79, 0
7, 62800, Note_on_c, 1, 78, 48
7, 62879, Note_on_c, 1, 78, 0
7, 62880, Note_on_c, 1, 79, 48
7, 63119, Note_on_c, 1, 79, 0
7, 63120, Note_on_c, 1, 80, 48
7, 63359, Note_on_c, 1, 80, 0
7, 63360, Note_on_c, 1, 83, 48
7, 63599, Note_on_c, 1, 83, 0
7, 63600, Note_on_c, 1, 81, 48
7, 63839, Note_on_c, 1, 81, 0
7, 63840, Note_on_c, 1, 74, 48
7, 64079, Note_on_c, 1, 74, 0
7, 64080, Note_on_c, 1, 76, 48
7, 64319, Note_on_c, 1, 76, 0
7, 64320, Note_on_c, 1, 77, 48
7, 64559, Note_on_c, 1, 77, 0
7, 64800, Note_on_c, 1, 79, 48
7, 65039, Note_on_c, 1, 79, 0
7, 65280, Note_on_c, 1, 76, 44
7, 65499, Note_on_c, 1, 76, 0
7, 65520, Note_on_c, 1, 72, 44
7, 65979, Note_on_c, 1, 72, 0
7, 66000, Note_on_c, 1, 71, 44
7, 66119, Note_on_c, 1, 71, 0
7, 66120, Note_on_c, 1, 73, 44
7, 66239, Note_on_c, 1, 73, 0
7, 66240, Note_on_c, 1, 74, 44
7, 66399, Note_on_c, 1, 74, 0
7, 66480, Note_on_c, 1, 74, 44
7, 66939, Note_on_c, 1, 74, 0
7, 66960, Note_on_c, 1, 73, 44
7, 67079, Note_on_c, 1, 73, 0
7, 67080, Note_on_c, 1, 75, 44
7, 67199, Note_on_c, 1, 75, 0
7, 67200, Note_on_c, 1, 76, 44
7, 67359, Note_on_c, 1, 76, 0
7, 67440, Note_on_c, 1, 76, 44
7, 67899, Note_on_c, 1, 76, 0
7, 67920, Note_on_c, 1, 74, 44
7, 68039, Note_on_c, 1, 74, 0
7, 68040, Note_on_c, 1, 76, 44
7, 68159, Note_on_c, 1, 76, 0
7, 68160, Note_on_c, 1, 77, 44
7, 68319, Note_on_c, 1, 77, 0
7, 68400, Note_on_c, 1, 77, 44
7, 68859, Note_on_c, 1, 77, 0
7, 68880, Note_on_c, 1, 76, 44
7, 68999, Note_on_c, 1, 76, 0
7, 69000, Note_on_c, 1, 78, 44
7, 69119, Note_on_c, 1, 78, 0
7, 69120, Note_on_c, 1, 79, 44
7, 69279, Note_on_c, 1, 79, 0
7, 69360, Note_on_c, 1, 79, 44
7, 69519, Note_on_c, 1, 79, 0
7, 69600, Note_on_c, 1, 79, 44
7, 69759, Note_on_c, 1, 79, 0
7, 69840, Note_on_c, 1, 76, 44
7, 69999, Note_on_c, 1, 76, 0
7, 70080, Note_on_c, 1, 77, 44
7, 70239, Note_on_c, 1, 77, 0
7, 70320, Note_on_c, 1, 77, 44
7, 70479, Note_on_c, 1, 77, 0
7, 70560, Note_on_c, 1, 77, 44
7, 70719, Note_on_c, 1, 77, 0
7, 70800, Note_on_c, 1, 75, 44
7, 70959, Note_on_c, 1, 75, 0
7, 71040, Note_on_c, 1, 76, 44
7, 71199, Note_on_c, 1, 76, 0
7, 71280, Note_on_c, 1, 76, 44
7, 71439, Note_on_c, 1, 76, 0
7, 71520, Note_on_c, 1, 76, 44
7, 71679, Note_on_c, 1, 76, 0
7, 71760, Note_on_c, 1, 73, 44
7, 71919, Note_on_c, 1, 73, 0
7, 72000, Note_on_c, 1, 74, 44
7, 72159, Note_on_c, 1, 74, 0
7, 72240, Note_on_c, 1, 74, 44
7, 72399, Note_on_c, 1, 74, 0
7, 72480, Note_on_c, 1, 74, 44
7, 72639, Note_on_c, 1, 74, 0
7, 72720, Note_on_c, 1, 71, 44
7, 72879, Note_on_c, 1, 71, 0
7, 72960, Note_on_c, 1, 72, 76
7, 73179, Note_on_c, 1, 72, 0
7, 73200, Note_on_c, 1, 72, 76
7, 73200, Note_on_c, 1, 76, 76
7, 73439, Note_on_c, 1, 72, 0
7, 73439, Note_on_c, 1, 76, 0
7, 73680, Note_on_c, 1, 76, 76
7, 73680, Note_on_c, 1, 73, 76
7, 73899, Note_on_c, 1, 76, 0
7, 73899, Note_on_c, 1, 73, 0
7, 73920, Note_on_c, 1, 77, 76
7, 73920, Note_on_c, 1, 74, 76
7, 74139, Note_on_c, 1, 77, 0
7, 74139, Note_on_c, 1, 74, 0
7, 74160, Note_on_c, 1, 74, 76
7, 74160, Note_on_c, 1, 77, 76
7, 74399, Note_on_c, 1, 74, 0
7, 74399, Note_on_c, 1, 77, 0
7, 74640, Note_on_c, 1, 78, 76
7, 74640, Note_on_c, 1, 75, 76
7, 74859, Note_on_c, 1, 78, 0
7, 74859, Note_on_c, 1, 75, 0
7, 74880, Note_on_c, 1, 79, 76
7, 74880, Note_on_c, 1, 76, 76
7, 75099, Note_on_c, 1, 79, 0
7, 75099, Note_on_c, 1, 76, 0
7, 75120, Note_on_c, 1, 79, 76
7, 75120, Note_on_c, 1, 76, 76
7, 75359, Note_on_c, 1, 79, 0
7, 75359, Note_on_c, 1, 76, 0
7, 75600, Note_on_c, 1, 79, 76
7, 75600, Note_on_c, 1, 76, 76
7, 75819, Note_on_c, 1, 79, 0
7, 75819, Note_on_c, 1, 76, 0
7, 75840, Note_on_c, 1, 77, 76
7, 75840, Note_on_c, 1, 81, 76
7, 76059, Note_on_c, 1, 77, 0
7, 76059, Note_on_c, 1, 81, 0
7, 76080, Note_on_c, 1, 77, 76
7, 76080, Note_on_c, 1, 81, 76
7, 76319, Note_on_c, 1, 77, 0
7, 76319, Note_on_c, 1, 81, 0
7, 76560, Note_on_c, 1, 81, 76
7, 76560, Note_on_c, 1, 78, 76
7, 76779, Note_on_c, 1, 81, 0
7, 76779, Note_on_c, 1, 78, 0
7, 76800, Note_on_c, 1, 79, 76
7, 76800, Note_on_c, 1, 83, 76
7, 76959, Note_on_c, 1, 79, 0
7, 76959, Note_on_c, 1, 83, 0
7, 77040, Note_on_c, 1, 83, 76
7, 77040, Note_on_c, 1, 79, 76
7, 77199, Note_on_c, 1, 83, 0
7, 77199, Note_on_c, 1, 79, 0
7, 77280, Note_on_c, 1, 79, 76
7, 77280, Note_on_c, 1, 83, 76
7, 77439, Note_on_c, 1, 79, 0
7, 77439, Note_on_c, 1, 83, 0
7, 77520, Note_on_c, 1, 79, 76
7, 77520, Note_on_c, 1, 84, 76
7, 77679, Note_on_c, 1, 79, 0
7, 77679, Note_on_c, 1, 84, 0
7, 77760, Note_on_c, 1, 81, 76
7, 77760, Note_on_c, 1, 77, 76
7, 77919, Note_on_c, 1, 81, 0
7, 77919, Note_on_c, 1, 77, 0
7, 78000, Note_on_c, 1, 81, 76
7, 78000, Note_on_c, 1, 77, 76
7, 78159, Note_on_c, 1, 81, 0
7, 78159, Note_on_c, 1, 77, 0
7, 78240, Note_on_c, 1, 81, 76
7, 78240, Note_on_c, 1, 77, 76
7, 78399, Note_on_c, 1, 81, 0
7, 78399, Note_on_c, 1, 77, 0
7, 78480, Note_on_c, 1, 83, 76
7, 78480, Note_on_c, 1, 78, 76
7, 78639, Note_on_c, 1, 83, 0
7, 78639, Note_on_c, 1, 78, 0
7, 78720, Note_on_c, 1, 79, 76
7, 78720, Note_on_c, 1, 71, 76
7, 78879, Note_on_c, 1, 79, 0
7, 78879, Note_on_c, 1, 71, 0
7, 78960, Note_on_c, 1, 79, 76
7, 78960, Note_on_c, 1, 76, 76
7, 79119, Note_on_c, 1, 79, 0
7, 79119, Note_on_c, 1, 76, 0
7, 79200, Note_on_c, 1, 79, 76
7, 79200, Note_on_c, 1, 76, 76
7, 79359, Note_on_c, 1, 79, 0
7, 79359, Note_on_c, 1, 76, 0
7, 79440, Note_on_c, 1, 81, 76
7, 79440, Note_on_c, 1, 76, 76
7, 79599, Note_on_c, 1, 81, 0
7, 79599, Note_on_c, 1, 76, 0
7, 79680, Note_on_c, 1, 77, 76
7, 79680, Note_on_c, 1, 69, 76
7, 79839, Note_on_c, 1, 77, 0
7, 79839, Note_on_c, 1, 69, 0
7, 79920, Note_on_c, 1, 74, 76
7, 79920, Note_on_c, 1, 77, 76
7, 80079, Note_on_c, 1, 74, 0
7, 80079, Note_on_c, 1, 77, 0
7, 80160, Note_on_c, 1, 74, 76
7, 80160, Note_on_c, 1, 77, 76
7, 80319, Note_on_c, 1, 74, 0
7, 80319, Note_on_c, 1, 77, 0
7, 80400, Note_on_c, 1, 74, 76
7, 80400, Note_on_c, 1, 79, 76
7, 80559, Note_on_c, 1, 74, 0
7, 80559, Note_on_c, 1, 79, 0
7, 80640, Note_on_c, 1, 77, 80
7, 80640, Note_on_c, 1, 74, 80
7, 82539, Note_on_c, 1, 77, 0
7, 82539, Note_on_c, 1, 74, 0
7, 82560, Note_on_c, 1, 79, 80
7, 82560, Note_on_c, 1, 82, 80
7, 84459, Note_on_c, 1, 79, 0
7, 84459, Note_on_c, 1, 82, 0
7, 84480, Note_on_c, 1, 81, 84
7, 84480, Note_on_c, 1, 77, 84
7, 86379, Note_on_c, 1, 81, 0
7, 86379, Note_on_c, 1, 77, 0
7, 86400, Note_on_c, 1, 77, 84
7, 86400, Note_on_c, 1, 81, 84
7, 86639, Note_on_c, 1, 77, 0
7, 86639, Note_on_c, 1, 81, 0
7, 95040, Note_on_c, 1, 77, 44
7, 95159, Note_on_c, 1, 77, 0
7, 95160, Note_on_c, 1, 79, 44
7, 95259, Note_on_c, 1, 79, 0
7, 95280, Note_on_c, 1, 72, 44
7, 95439, Note_on_c, 1, 72, 0
7, 96960, Note_on_c, 1, 79, 44
7, 97079, Note_on_c, 1, 79, 0
7, 97080, Note_on_c, 1, 81, 44
7, 97179, Note_on_c, 1, 81, 0
7, 97200, Note_on_c, 1, 77, 44
7, 97359, Note_on_c, 1, 77, 0
7, 101280, Note_on_c, 1, 82, 76
7, 101280, Note_on_c, 1, 70, 76
7, 101439, Note_on_c, 1, 82, 0
7, 101439, Note_on_c, 1, 70, 0
7, 101520, Note_on_c, 1, 69, 76
7, 101520, Note_on_c, 1, 81, 76
7, 101679, Note_on_c, 1, 69, 0
7, 101679, Note_on_c, 1, 81, 0
7, 101760, Note_on_c, 1, 79, 76
7, 101760, Note_on_c, 1, 67, 76
7, 101919, Note_on_c, 1, 79, 0
7, 101919, Note_on_c, 1, 67, 0
7, 102000, Note_on_c, 1, 78, 76
7, 102000, Note_on_c, 1, 66, 76
7, 102159, Note_on_c, 1, 78, 0
7, 102159, Note_on_c, 1, 66, 0
7, 102240, Note_on_c, 1, 67, 76
7, 102240, Note_on_c, 1, 79, 76
7, 102399, Note_on_c, 1, 67, 0
7, 102399, Note_on_c, 1, 79, 0
7, 102480, Note_on_c, 1, 69, 76
7, 102480, Note_on_c, 1, 81, 76
7, 102639, Note_on_c, 1, 69, 0
7, 102639, Note_on_c, 1, 81, 0
7, 102720, Note_on_c, 1, 82, 76
7, 102720, Note_on_c, 1, 70, 76
7, 102959, Note_on_c, 1, 82, 0
7, 102959, Note_on_c, 1, 70, 0
7, 108960, Note_on_c, 1, 76, 44
7, 109199, Note_on_c, 1, 76, 0
7, 109320, Note_on_c, 1, 80, 44
7, 109419, Note_on_c, 1, 80, 0
7, 109440, Note_on_c, 1, 80, 44
7, 109679, Note_on_c, 1, 80, 0
7, 109680, Note_on_c, 1, 81, 44
7, 109919, Note_on_c, 1, 81, 0
7, 110880, Note_on_c, 1, 76, 44
7, 111119, Note_on_c, 1, 76, 0
7, 111240, Note_on_c, 1, 80, 44
7, 111339, Note_on_c, 1, 80, 0
7, 111360, Note_on_c, 1, 80, 44
7, 111599, Note_on_c, 1, 80, 0
7, 111600, Note_on_c, 1, 81, 44
7, 111839, Note_on_c, 1, 81, 0
7, 115680, Note_on_c, 1, 74, 76
7, 117119, Note_on_c, 1, 74, 0
7, 117600, Note_on_c, 1, 79, 76
7, 119039, Note_on_c, 1, 79, 0
7, 131040, Note_on_c, 1, 79, 84
7, 131160, Control_c, 1, 11, 112
7, 131519, Note_on_c, 1, 79, 0
7, 131760, Control_c, 1, 11, 127
7, 132000, Note_on_c, 1, 84, 84
7, 132000, Note_on_c, 1, 72, 84
7, 132120, Control_c, 1, 11, 112
7, 132479, Note_on_c, 1, 84, 0
7, 132479, Note_on_c, 1, 72, 0
7, 133680, Control_c, 1, 11, 127
7, 133920, Note_on_c, 1, 83, 84
7, 134040, Control_c, 1, 11, 112
7, 134399, Note_on_c, 1, 83, 0
7, 138360, Control_c, 1, 11, 127
7, 138480, Note_on_c, 1, 76, 76
7, 138639, Note_on_c, 1, 76, 0
7, 138720, Note_on_c, 1, 81, 76
7, 138879, Note_on_c, 1, 81, 0
7, 138960, Note_on_c, 1, 81, 76
7, 139119, Note_on_c, 1, 81, 0
7, 141360, Note_on_c, 1, 69, 76
7, 141519, Note_on_c, 1, 69, 0
7, 141600, Note_on_c, 1, 74, 76
7, 141759, Note_on_c, 1, 74, 0
7, 141840, Note_on_c, 1, 74, 76
7, 141999, Note_on_c, 1, 74, 0
7, 142320, Note_on_c, 1, 64, 76
7, 142479, Note_on_c, 1, 64, 0
7, 142560, Note_on_c, 1, 75, 76
7, 142719, Note_on_c, 1, 75, 0
7, 142800, Note_on_c, 1, 76, 76
7, 142959, Note_on_c, 1, 76, 0
7, 143280, Note_on_c, 1, 64, 76
7, 143439, Note_on_c, 1, 64, 0
7, 143520, Note_on_c, 1, 75, 76
7, 143679, Note_on_c, 1, 75, 0
7, 143760, Note_on_c, 1, 76, 76
7, 143919, Note_on_c, 1, 76, 0
7, 144240, Note_on_c, 1, 64, 76
7, 144399, Note_on_c, 1, 64, 0
7, 144480, Note_on_c, 1, 75, 76
7, 144639, Note_on_c, 1, 75, 0
7, 144720, Note_on_c, 1, 76, 76
7, 144879, Note_on_c, 1, 76, 0
7, 145200, Note_on_c, 1, 64, 84
7, 145419, Note_on_c, 1, 64, 0
7, 145440, Note_on_c, 1, 76, 84
7, 149279, Note_on_c, 1, 76, 0
7, 155040, Note_on_c, 1, 77, 44
7, 156459, Note_on_c, 1, 77, 0
7, 156480, Note_on_c, 1, 77, 44
7, 156599, Note_on_c, 1, 77, 0
7, 156600, Note_on_c, 1, 79, 44
7, 156699, Note_on_c, 1, 79, 0
7, 156720, Note_on_c, 1, 72, 44
7, 156879, Note_on_c, 1, 72, 0
7, 156960, Note_on_c, 1, 77, 44
7, 158379, Note_on_c, 1, 77, 0
7, 158400, Note_on_c, 1, 79, 44
7, 158519, Note_on_c, 1, 79, 0
7, 158520, Note_on_c, 1, 81, 44
7, 158619, Note_on_c, 1, 81, 0
7, 158640, Note_on_c, 1, 77, 44
7, 158799, Note_on_c, 1, 77, 0
7, 158880, Note_on_c, 1, 77, 44
7, 159119, Note_on_c, 1, 77, 0
7, 159240, Note_on_c, 1, 76, 44
7, 159339, Note_on_c, 1, 76, 0
7, 159360, Note_on_c, 1, 76, 44
7, 159599, Note_on_c, 1, 76, 0
7, 159600, Note_on_c, 1, 74, 44
7, 159819, Note_on_c, 1, 74, 0
7, 159840, Note_on_c, 1, 86, 44
7, 160079, Note_on_c, 1, 86, 0
7, 160200, Note_on_c, 1, 84, 44
7, 160299, Note_on_c, 1, 84, 0
7, 160320, Note_on_c, 1, 84, 44
7, 160559, Note_on_c, 1, 84, 0
7, 160560, Note_on_c, 1, 82, 44
7, 160779, Note_on_c, 1, 82, 0
7, 160800, Note_on_c, 1, 82, 44
7, 160959, Note_on_c, 1, 82, 0
7, 161040, Note_on_c, 1, 81, 44
7, 161199, Note_on_c, 1, 81, 0
7, 161280, Note_on_c, 1, 79, 44
7, 161439, Note_on_c, 1, 79, 0
7, 161520, Note_on_c, 1, 78, 44
7, 161679, Note_on_c, 1, 78, 0
7, 161760, Note_on_c, 1, 79, 44
7, 161919, Note_on_c, 1, 79, 0
7, 162000, Note_on_c, 1, 81, 44
7, 162159, Note_on_c, 1, 81, 0
7, 162240, Note_on_c, 1, 82, 44
7, 162399, Note_on_c, 1, 82, 0
7, 162480, Note_on_c, 1, 72, 44
7, 162480, Note_on_c, 1, 79, 44
7, 162639, Note_on_c, 1, 72, 0
7, 162639, Note_on_c, 1, 79, 0
7, 162720, Note_on_c, 1, 72, 44
7, 162720, Note_on_c, 1, 81, 44
7, 162879, Note_on_c, 1, 72, 0
7, 162879, Note_on_c, 1, 81, 0
7, 162960, Note_on_c, 1, 72, 44
7, 162960, Note_on_c, 1, 77, 44
7, 163119, Note_on_c, 1, 72, 0
7, 163119, Note_on_c, 1, 77, 0
7, 163200, Note_on_c, 1, 76, 44
7, 163200, Note_on_c, 1, 72, 44
7, 163359, Note_on_c, 1, 76, 0
7, 163359, Note_on_c, 1, 72, 0
7, 163440, Note_on_c, 1, 84, 44
7, 163599, Note_on_c, 1, 84, 0
7, 163680, Note_on_c, 1, 67, 44
7, 163839, Note_on_c, 1, 67, 0
7, 163920, Note_on_c, 1, 79, 44
7, 164079, Note_on_c, 1, 79, 0
7, 164160, Note_on_c, 1, 72, 44
7, 165579, Note_on_c, 1, 72, 0
7, 165600, Note_on_c, 1, 79, 44
7, 165744, Note_on_c, 1, 79, 0
7, 165760, Note_on_c, 1, 79, 44
7, 165904, Note_on_c, 1, 79, 0
7, 165920, Note_on_c, 1, 79, 44
7, 166064, Note_on_c, 1, 79, 0
7, 166080, Note_on_c, 1, 79, 44
7, 166239, Note_on_c, 1, 79, 0
7, 166240, Note_on_c, 1, 84, 44
7, 166384, Note_on_c, 1, 84, 0
7, 166400, Note_on_c, 1, 76, 44
7, 166519, Note_on_c, 1, 76, 0
7, 166560, Note_on_c, 1, 72, 44
7, 166560, Control_c, 1, 11, 127
7, 166720, Control_c, 1, 11, 126
7, 166880, Control_c, 1, 11, 125
7, 167040, Control_c, 1, 11, 124
7, 167200, Control_c, 1, 11, 123
7, 167360, Control_c, 1, 11, 122
7, 167520, Control_c, 1, 11, 121
7, 167680, Control_c, 1, 11, 120
7, 167840, Control_c, 1, 11, 119
7, 168000, Control_c, 1, 11, 118
7, 168160, Control_c, 1, 11, 117
7, 168320, Control_c, 1, 11, 116
7, 168480, Control_c, 1, 11, 115
7, 168640, Control_c, 1, 11, 114
7, 168800, Control_c, 1, 11, 113
7, 171339, Note_on_c, 1, 72, 0
7, 171358, Control_c, 1, 11, 127
7, 171360, Note_on_c, 1, 73, 84
7, 171360, Note_on_c, 1, 85, 84
7, 172299, Note_on_c, 1, 73, 0
7, 172299, Note_on_c, 1, 85, 0
7, 172320, Note_on_c, 1, 77, 84
7, 172320, Note_on_c, 1, 81, 84
7, 172464, Note_on_c, 1, 77, 0
7, 172464, Note_on_c, 1, 81, 0
7, 172480, Note_on_c, 1, 77, 84
7, 172480, Note_on_c, 1, 81, 84
7, 172624, Note_on_c, 1, 77, 0
7, 172624, Note_on_c, 1, 81, 0
7, 172640, Note_on_c, 1, 77, 84
7, 172640, Note_on_c, 1, 81, 84
7, 172784, Note_on_c, 1, 77, 0
7, 172784, Note_on_c, 1, 81, 0
7, 172800, Note_on_c, 1, 81, 84
7, 172800, Note_on_c, 1, 77, 84
7, 172919, Note_on_c, 1, 81, 0
7, 172919, Note_on_c, 1, 77, 0
7, 172920, Note_on_c, 1, 79, 84
7, 172920, Note_on_c, 1, 82, 84
7, 173019, Note_on_c, 1, 79, 0
7, 173019, Note_on_c, 1, 82, 0
7, 173040, Note_on_c, 1, 79, 84
7, 173040, Note_on_c, 1, 72, 84
7, 173199, Note_on_c, 1, 79, 0
7, 173199, Note_on_c, 1, 72, 0
7, 173280, Note_on_c, 1, 77, 84
7, 173280, Note_on_c, 1, 81, 84
7, 173399, Note_on_c, 1, 77, 0
7, 173399, Note_on_c, 1, 81, 0
7, 173400, Note_on_c, 1, 82, 84
7, 173400, Note_on_c, 1, 79, 84
7, 173499, Note_on_c, 1, 82, 0
7, 173499, Note_on_c, 1, 79, 0
7, 173520, Note_on_c, 1, 79, 84
7, 173520, Note_on_c, 1, 72, 84
7, 173679, Note_on_c, 1, 79, 0
7, 173679, Note_on_c, 1, 72, 0
7, 173760, Note_on_c, 1, 77, 84
7, 173760, Note_on_c, 1, 81, 84
7, 173879, Note_on_c, 1, 77, 0
7, 173879, Note_on_c, 1, 81, 0
7, 173880, Note_on_c, 1, 79, 84
7, 173880, Note_on_c, 1, 82, 84
7, 173979, Note_on_c, 1, 79, 0
7, 173979, Note_on_c, 1, 82, 0
7, 174000, Note_on_c, 1, 79, 84
7, 174000, Note_on_c, 1, 72, 84
7, 174159, Note_on_c, 1, 79, 0
7, 174159, Note_on_c, 1, 72, 0
7, 174240, Note_on_c, 1, 82, 84
7, 174240, Note_on_c, 1, 79, 84
7, 174384, Note_on_c, 1, 82, 0
7, 174384, Note_on_c, 1, 79, 0
7, 174400, Note_on_c, 1, 79, 84
7, 174400, Note_on_c, 1, 82, 84
7, 174544, Note_on_c, 1, 79, 0
7, 174544, Note_on_c, 1, 82, 0
7, 174560, Note_on_c, 1, 79, 84
7, 174560, Note_on_c, 1, 82, 84
7, 174704, Note_on_c, 1, 79, 0
7, 174704, Note_on_c, 1, 82, 0
7, 174720, Note_on_c, 1, 82, 84
7, 174720, Note_on_c, 1, 79, 84
7, 174839, Note_on_c, 1, 82, 0
7, 174839, Note_on_c, 1, 79, 0
7, 174840, Note_on_c, 1, 84, 84
7, 174840, Note_on_c, 1, 81, 84
7, 174939, Note_on_c, 1, 84, 0
7, 174939, Note_on_c, 1, 81, 0
7, 174960, Note_on_c, 1, 77, 84
7, 174960, Note_on_c, 1, 81, 84
7, 175119, Note_on_c, 1, 77, 0
7, 175119, Note_on_c, 1, 81, 0
7, 175200, Note_on_c, 1, 82, 84
7, 175200, Note_on_c, 1, 79, 84
7, 175319, Note_on_c, 1, 82, 0
7, 175319, Note_on_c, 1, 79, 0
7, 175320, Note_on_c, 1, 84, 84
7, 175320, Note_on_c, 1, 81, 84
7, 175419, Note_on_c, 1, 84, 0
7, 175419, Note_on_c, 1, 81, 0
7, 175440, Note_on_c, 1, 77, 84
7, 175440, Note_on_c, 1, 81, 84
7, 175599, Note_on_c, 1, 77, 0
7, 175599, Note_on_c, 1, 81, 0
7, 175680, Note_on_c, 1, 82, 84
7, 175680, Note_on_c, 1, 79, 84
7, 175799, Note_on_c, 1, 82, 0
7, 175799, Note_on_c, 1, 79, 0
7, 175800, Note_on_c, 1, 84, 84
7, 175800, Note_on_c, 1, 81, 84
7, 175899, Note_on_c, 1, 84, 0
7, 175899, Note_on_c, 1, 81, 0
7, 175920, Note_on_c, 1, 77, 84
7, 175920, Note_on_c, 1, 81, 84
7, 176079, Note_on_c, 1, 77, 0
7, 176079, Note_on_c, 1, 81, 0
7, 176160, Note_on_c, 1, 69, 84
7, 176160, Note_on_c, 1, 77, 84
7, 176399, Note_on_c, 1, 69, 0
7, 176399, Note_on_c, 1, 77, 0
7, 176520, Note_on_c, 1, 72, 84
7, 176520, Note_on_c, 1, 76, 84
7, 176619, Note_on_c, 1, 72, 0
7, 176619, Note_on_c, 1, 76, 0
7, 176640, Note_on_c, 1, 72, 84
7, 176640, Note_on_c, 1, 76, 84
7, 176879, Note_on_c, 1, 72, 0
7, 176879, Note_on_c, 1, 76, 0
7, 176880, Note_on_c, 1, 74, 84
7, 176880, Note_on_c, 1, 70, 84
7, 177099, Note_on_c, 1, 74, 0
7, 177099, Note_on_c, 1, 70, 0
7, 177120, Note_on_c, 1, 86, 84
7, 177120, Note_on_c, 1, 78, 84
7, 177279, Note_on_c, 1, 86, 0
7, 177279, Note_on_c, 1, 78, 0
7, 177480, Note_on_c, 1, 81, 84
7, 177480, Note_on_c, 1, 84, 84
7, 177579, Note_on_c, 1, 81, 0
7, 177579, Note_on_c, 1, 84, 0
7, 177600, Note_on_c, 1, 84, 84
7, 177600, Note_on_c, 1, 81, 84
7, 177839, Note_on_c, 1, 84, 0
7, 177839, Note_on_c, 1, 81, 0
7, 177840, Note_on_c, 1, 82, 84
7, 177840, Note_on_c, 1, 79, 84
7, 178059, Note_on_c, 1, 82, 0
7, 178059, Note_on_c, 1, 79, 0
7, 178080, Note_on_c, 1, 82, 84
7, 178080, Note_on_c, 1, 70, 84
7, 178239, Note_on_c, 1, 82, 0
7, 178239, Note_on_c, 1, 70, 0
7, 178320, Note_on_c, 1, 69, 84
7, 178320, Note_on_c, 1, 81, 84
7, 178479, Note_on_c, 1, 69, 0
7, 178479, Note_on_c, 1, 81, 0
7, 178560, Note_on_c, 1, 67, 84
7, 178560, Note_on_c, 1, 79, 84
7, 178719, Note_on_c, 1, 67, 0
7, 178719, Note_on_c, 1, 79, 0
7, 178800, Note_on_c, 1, 78, 84
7, 178800, Note_on_c, 1, 66, 84
7, 178959, Note_on_c, 1, 78, 0
7, 178959, Note_on_c, 1, 66, 0
7, 179040, Note_on_c, 1, 79, 84
7, 179040, Note_on_c, 1, 67, 84
7, 179199, Note_on_c, 1, 79, 0
7, 179199, Note_on_c, 1, 67, 0
7, 179280, Note_on_c, 1, 69, 84
7, 179280, Note_on_c, 1, 81, 84
7, 179439, Note_on_c, 1, 69, 0
7, 179439, Note_on_c, 1, 81, 0
7, 179520, Note_on_c, 1, 70, 84
7, 179520, Note_on_c, 1, 82, 84
7, 179679, Note_on_c, 1, 70, 0
7, 179679, Note_on_c, 1, 82, 0
7, 179760, Note_on_c, 1, 79, 84
7, 179760, Note_on_c, 1, 72, 84
7, 179919, Note_on_c, 1, 79, 0
7, 179919, Note_on_c, 1, 72, 0
7, 180000, Note_on_c, 1, 81, 84
7, 180000, Note_on_c, 1, 72, 84
7, 180159, Note_on_c, 1, 81, 0
7, 180159, Note_on_c, 1, 72, 0
7, 180240, Note_on_c, 1, 77, 84
7, 180240, Note_on_c, 1, 74, 84
7, 180399, Note_on_c, 1, 77, 0
7, 180399, Note_on_c, 1, 74, 0
7, 180480, Note_on_c, 1, 74, 84
7, 180480, Note_on_c, 1, 82, 84
7, 180639, Note_on_c, 1, 74, 0
7, 180639, Note_on_c, 1, 82, 0
7, 180720, Note_on_c, 1, 74, 84
7, 180720, Note_on_c, 1, 82, 84
7, 180879, Note_on_c, 1, 74, 0
7, 180879, Note_on_c, 1, 82, 0
7, 180960, Note_on_c, 1, 76, 84
7, 180960, Note_on_c, 1, 79, 84
7, 181119, Note_on_c, 1, 76, 0
7, 181119, Note_on_c, 1, 79, 0
7, 181200, Note_on_c, 1, 76, 84
7, 181200, Note_on_c, 1, 79, 84
7, 181359, Note_on_c, 1, 76, 0
7, 181359, Note_on_c, 1, 79, 0
7, 181440, Note_on_c, 1, 77, 84
7, 181440, Note_on_c, 1, 81, 84
7, 181679, Note_on_c, 1, 77, 0
7, 181679, Note_on_c, 1, 81, 0
7, 182400, Note_on_c, 1, 72, 84
7, 182400, Note_on_c, 1, 77, 84
7, 182639, Note_on_c, 1, 72, 0
7, 182639, Note_on_c, 1, 77, 0
7, 183360, Note_on_c, 1, 79, 84
7, 183360, Note_on_c, 1, 76, 84
7, 183599, Note_on_c, 1, 79, 0
7, 183599, Note_on_c, 1, 76, 0
7, 184320, Note_on_c, 1, 79, 84
7, 184320, Note_on_c, 1, 76, 84
7, 184559, Note_on_c, 1, 79, 0
7, 184559, Note_on_c, 1, 76, 0
7, 185280, Note_on_c, 1, 81, 84
7, 185280, Note_on_c, 1, 77, 84
7, 185519, Note_on_c, 1, 81, 0
7, 185519, Note_on_c, 1, 77, 0
7, 185760, Note_on_c, 1, 77, 84
7, 185919, Note_on_c, 1, 77, 0
7, 186000, Note_on_c, 1, 72, 84
7, 186000, Note_on_c, 1, 84, 84
7, 186159, Note_on_c, 1, 72, 0
7, 186159, Note_on_c, 1, 84, 0
7, 186240, Note_on_c, 1, 72, 84
7, 186240, Note_on_c, 1, 84, 84
7, 186399, Note_on_c, 1, 72, 0
7, 186399, Note_on_c, 1, 84, 0
7, 186480, Note_on_c, 1, 81, 84
7, 186480, Note_on_c, 1, 69, 84
7, 186639, Note_on_c, 1, 81, 0
7, 186639, Note_on_c, 1, 69, 0
7, 186720, Note_on_c, 1, 69, 84
7, 186720, Note_on_c, 1, 81, 84
7, 186879, Note_on_c, 1, 69, 0
7, 186879, Note_on_c, 1, 81, 0
7, 186960, Note_on_c, 1, 77, 84
7, 186960, Note_on_c, 1, 65, 84
7, 187119, Note_on_c, 1, 77, 0
7, 187119, Note_on_c, 1, 65, 0
7, 187200, Note_on_c, 1, 60, 84
7, 187200, Note_on_c, 1, 72, 84
7, 187359, Note_on_c, 1, 60, 0
7, 187359, Note_on_c, 1, 72, 0
7, 187680, Note_on_c, 1, 82, 84
7, 187680, Note_on_c, 1, 70, 84
7, 187839, Note_on_c, 1, 82, 0
7, 187839, Note_on_c, 1, 70, 0
7, 187920, Note_on_c, 1, 67, 84
7, 187920, Note_on_c, 1, 79, 84
7, 188079, Note_on_c, 1, 67, 0
7, 188079, Note_on_c, 1, 79, 0
7, 188160, Note_on_c, 1, 79, 84
7, 188160, Note_on_c, 1, 67, 84
7, 188319, Note_on_c, 1, 79, 0
7, 188319, Note_on_c, 1, 67, 0
7, 188400, Note_on_c, 1, 76, 84
7, 188400, Note_on_c, 1, 64, 84
7, 188559, Note_on_c, 1, 76, 0
7, 188559, Note_on_c, 1, 64, 0
7, 188640, Note_on_c, 1, 64, 84
7, 188640, Note_on_c, 1, 76, 84
7, 188799, Note_on_c, 1, 64, 0
7, 188799, Note_on_c, 1, 76, 0
7, 188880, Note_on_c, 1, 60, 84
7, 188880, Note_on_c, 1, 72, 84
7, 189039, Note_on_c, 1, 60, 0
7, 189039, Note_on_c, 1, 72, 0
7, 189120, Note_on_c, 1, 77, 84
7, 189120, Note_on_c, 1, 65, 84
7, 189279, Note_on_c, 1, 77, 0
7, 189279, Note_on_c, 1, 65, 0
7, 190080, Note_on_c, 1, 69, 84
7, 190080, Note_on_c, 1, 77, 84
7, 190319, Note_on_c, 1, 69, 0
7, 190319, Note_on_c, 1, 77, 0
7, 191040, Note_on_c, 1, 79, 84
7, 191040, Note_on_c, 1, 76, 84
7, 191279, Note_on_c, 1, 79, 0
7, 191279, Note_on_c, 1, 76, 0
7, 192000, Note_on_c, 1, 76, 84
7, 192000, Note_on_c, 1, 79, 84
7, 192239, Note_on_c, 1, 76, 0
7, 192239, Note_on_c, 1, 79, 0
7, 192960, Note_on_c, 1, 77, 84
7, 192960, Note_on_c, 1, 81, 84
7, 193199, Note_on_c, 1, 77, 0
7, 193199, Note_on_c, 1, 81, 0
7, 193440, Note_on_c, 1, 77, 84
7, 193599, Note_on_c, 1, 77, 0
7, 193680, Note_on_c, 1, 72, 84
7, 193680, Note_on_c, 1, 84, 84
7, 193839, Note_on_c, 1, 72, 0
7, 193839, Note_on_c, 1, 84, 0
7, 193920, Note_on_c, 1, 84, 84
7, 193920, Note_on_c, 1, 72, 84
7, 194079, Note_on_c, 1, 84, 0
7, 194079, Note_on_c, 1, 72, 0
7, 194160, Note_on_c, 1, 69, 84
7, 194160, Note_on_c, 1, 81, 84
7, 194319, Note_on_c, 1, 69, 0
7, 194319, Note_on_c, 1, 81, 0
7, 194400, Note_on_c, 1, 69, 84
7, 194400, Note_on_c, 1, 81, 84
7, 194559, Note_on_c, 1, 69, 0
7, 194559, Note_on_c, 1, 81, 0
7, 194640, Note_on_c, 1, 81, 84
7, 194799, Note_on_c, 1, 81, 0
7, 194880, Note_on_c, 1, 84, 84
7, 194880, Note_on_c, 1, 81, 84
7, 195039, Note_on_c, 1, 84, 0
7, 195039, Note_on_c, 1, 81, 0
7, 195360, Note_on_c, 1, 72, 84
7, 195360, Note_on_c, 1, 84, 84
7, 195519, Note_on_c, 1, 72, 0
7, 195519, Note_on_c, 1, 84, 0
7, 195600, Note_on_c, 1, 81, 84
7, 195600, Note_on_c, 1, 69, 84
7, 195759, Note_on_c, 1, 81, 0
7, 195759, Note_on_c, 1, 69, 0
7, 195840, Note_on_c, 1, 81, 84
7, 195840, Note_on_c, 1, 69, 84
7, 195999, Note_on_c, 1, 81, 0
7, 195999, Note_on_c, 1, 69, 0
7, 196080, Note_on_c, 1, 78, 84
7, 196080, Note_on_c, 1, 66, 84
7, 196239, Note_on_c, 1, 78, 0
7, 196239, Note_on_c, 1, 66, 0
7, 196320, Note_on_c, 1, 78, 84
7, 196320, Note_on_c, 1, 66, 84
7, 196479, Note_on_c, 1, 78, 0
7, 196479, Note_on_c, 1, 66, 0
7, 196560, Note_on_c, 1, 74, 84
7, 196560, Note_on_c, 1, 62, 84
7, 196719, Note_on_c, 1, 74, 0
7, 196719, Note_on_c, 1, 62, 0
7, 196800, Note_on_c, 1, 79, 84
7, 196800, Note_on_c, 1, 67, 84
7, 196959, Note_on_c, 1, 79, 0
7, 196959, Note_on_c, 1, 67, 0
7, 197760, Note_on_c, 1, 79, 84
7, 197760, Note_on_c, 1, 82, 84
7, 197999, Note_on_c, 1, 79, 0
7, 197999, Note_on_c, 1, 82, 0
7, 198720, Note_on_c, 1, 81, 84
7, 198720, Note_on_c, 1, 84, 84
7, 198959, Note_on_c, 1, 81, 0
7, 198959, Note_on_c, 1, 84, 0
7, 199680, Note_on_c, 1, 84, 84
7, 199680, Note_on_c, 1, 81, 84
7, 199919, Note_on_c, 1, 84, 0
7, 199919, Note_on_c, 1, 81, 0
7, 200640, Note_on_c, 1, 86, 84
7, 200640, Note_on_c, 1, 82, 84
7, 200879, Note_on_c, 1, 86, 0
7, 200879, Note_on_c, 1, 82, 0
7, 201120, Note_on_c, 1, 82, 84
7, 201279, Note_on_c, 1, 82, 0
7, 201360, Note_on_c, 1, 77, 84
7, 201519, Note_on_c, 1, 77, 0
7, 201600, Note_on_c, 1, 77, 84
7, 201759, Note_on_c, 1, 77, 0
7, 201840, Note_on_c, 1, 74, 84
7, 201999, Note_on_c, 1, 74, 0
7, 202080, Note_on_c, 1, 74, 84
7, 202080, Note_on_c, 1, 86, 84
7, 202239, Note_on_c, 1, 74, 0
7, 202239, Note_on_c, 1, 86, 0
7, 202320, Note_on_c, 1, 70, 84
7, 202320, Note_on_c, 1, 82, 84
7, 202479, Note_on_c, 1, 70, 0
7, 202479, Note_on_c, 1, 82, 0
7, 202560, Note_on_c, 1, 65, 84
7, 202560, Note_on_c, 1, 77, 84
7, 202719, Note_on_c, 1, 65, 0
7, 202719, Note_on_c, 1, 77, 0
7, 203040, Note_on_c, 1, 75, 84
7, 203199, Note_on_c, 1, 75, 0
7, 203280, Note_on_c, 1, 84, 84
7, 203280, Note_on_c, 1, 72, 84
7, 203439, Note_on_c, 1, 84, 0
7, 203439, Note_on_c, 1, 72, 0
7, 203520, Note_on_c, 1, 72, 84
7, 203520, Note_on_c, 1, 84, 84
7, 203679, Note_on_c, 1, 72, 0
7, 203679, Note_on_c, 1, 84, 0
7, 203760, Note_on_c, 1, 69, 84
7, 203760, Note_on_c, 1, 81, 84
7, 203919, Note_on_c, 1, 69, 0
7, 203919, Note_on_c, 1, 81, 0
7, 204000, Note_on_c, 1, 81, 84
7, 204000, Note_on_c, 1, 69, 84
7, 204159, Note_on_c, 1, 81, 0
7, 204159, Note_on_c, 1, 69, 0
7, 204240, Note_on_c, 1, 65, 84
7, 204240, Note_on_c, 1, 77, 84
7, 204399, Note_on_c, 1, 65, 0
7, 204399, Note_on_c, 1, 77, 0
7, 204480, Note_on_c, 1, 82, 84
7, 204480, Note_on_c, 1, 70, 84
7, 204639, Note_on_c, 1, 82, 0
7, 204639, Note_on_c, 1, 70, 0
7, 205920, Note_on_c, 1, 74, 92
7, 205920, Note_on_c, 1, 77, 92
7, 206079, Note_on_c, 1, 74, 0
7, 206079, Note_on_c, 1, 77, 0
7, 206160, Note_on_c, 1, 77, 84
7, 206160, Note_on_c, 1, 82, 84
7, 206319, Note_on_c, 1, 77, 0
7, 206319, Note_on_c, 1, 82, 0
7, 206400, Note_on_c, 1, 82, 92
7, 206400, Note_on_c, 1, 77, 92
7, 206559, Note_on_c, 1, 82, 0
7, 206559, Note_on_c, 1, 77, 0
7, 206640, Note_on_c, 1, 86, 84
7, 206640, Note_on_c, 1, 82, 84
7, 206799, Note_on_c, 1, 86, 0
7, 206799, Note_on_c, 1, 82, 0
7, 207840, Note_on_c, 1, 74, 84
7, 207840, Note_on_c, 1, 77, 84
7, 207999, Note_on_c, 1, 74, 0
7, 207999, Note_on_c, 1, 77, 0
7, 208080, Note_on_c, 1, 77, 84
7, 208080, Note_on_c, 1, 82, 84
7, 208239, Note_on_c, 1, 77, 0
7, 208239, Note_on_c, 1, 82, 0
7, 208320, Note_on_c, 1, 82, 84
7, 208320, Note_on_c, 1, 77, 84
7, 208539, Note_on_c, 1, 82, 0
7, 208539, Note_on_c, 1, 77, 0
7, 208560, Note_on_c, 1, 86, 84
7, 208560, Note_on_c, 1, 82, 84
7, 208779, Note_on_c, 1, 86, 0
7, 208779, Note_on_c, 1, 82, 0
7, 208800, Note_on_c, 1, 79, 84
7, 208800, Note_on_c, 1, 82, 84
7, 209019, Note_on_c, 1, 79, 0
7, 209019, Note_on_c, 1, 82, 0
7, 209040, Note_on_c, 1, 76, 84
7, 209040, Note_on_c, 1, 79, 84
7, 209259, Note_on_c, 1, 76, 0
7, 209259, Note_on_c, 1, 79, 0
7, 209280, Note_on_c, 1, 79, 84
7, 209280, Note_on_c, 1, 76, 84
7, 209499, Note_on_c, 1, 79, 0
7, 209499, Note_on_c, 1, 76, 0
7, 209520, Note_on_c, 1, 76, 84
7, 209520, Note_on_c, 1, 72, 84
7, 209759, Note_on_c, 1, 76, 0
7, 209759, Note_on_c, 1, 72, 0
7, 210720, Note_on_c, 1, 79, 84
7, 210720, Note_on_c, 1, 82, 84
7, 210939, Note_on_c, 1, 79, 0
7, 210939, Note_on_c, 1, 82, 0
7, 210960, Note_on_c, 1, 79, 84
7, 210960, Note_on_c, 1, 76, 84
7, 211179, Note_on_c, 1, 79, 0
7, 211179, Note_on_c, 1, 76, 0
7, 211200, Note_on_c, 1, 76, 84
7, 211200, Note_on_c, 1, 79, 84
7, 211419, Note_on_c, 1, 76, 0
7, 211419, Note_on_c, 1, 79, 0
7, 211440, Note_on_c, 1, 72, 84
7, 211440, Note_on_c, 1, 76, 84
7, 211659, Note_on_c, 1, 72, 0
7, 211659, Note_on_c, 1, 76, 0
7, 211680, Note_on_c, 1, 82, 84
7, 211680, Note_on_c, 1, 79, 84
7, 211899, Note_on_c, 1, 82, 0
7, 211899, Note_on_c, 1, 79, 0
7, 211920, Note_on_c, 1, 79, 84
7, 211920, Note_on_c, 1, 76, 84
7, 212139, Note_on_c, 1, 79, 0
7, 212139, Note_on_c, 1, 76, 0
7, 212160, Note_on_c, 1, 76, 84
7, 212160, Note_on_c, 1, 79, 84
7, 212379, Note_on_c, 1, 76, 0
7, 212379, Note_on_c, 1, 79, 0
7, 212400, Note_on_c, 1, 76, 84
7, 212400, Note_on_c, 1, 72, 84
7, 212619, Note_on_c, 1, 76, 0
7, 212619, Note_on_c, 1, 72, 0
7, 212640, Note_on_c, 1, 82, 84
7, 212640, Note_on_c, 1, 79, 84
7, 212859, Note_on_c, 1, 82, 0
7, 212859, Note_on_c, 1, 79, 0
7, 212880, Note_on_c, 1, 79, 84
7, 212880, Note_on_c, 1, 76, 84
7, 213099, Note_on_c, 1, 79, 0
7, 213099, Note_on_c, 1, 76, 0
7, 213120, Note_on_c, 1, 76, 84
7, 213120, Note_on_c, 1, 79, 84
7, 213339, Note_on_c, 1, 76, 0
7, 213339, Note_on_c, 1, 79, 0
7, 213360, Note_on_c, 1, 72, 84
7, 213360, Note_on_c, 1, 76, 84
7, 213579, Note_on_c, 1, 72, 0
7, 213579, Note_on_c, 1, 76, 0
7, 213600, Note_on_c, 1, 79, 84
7, 213600, Note_on_c, 1, 82, 84
7, 213819, Note_on_c, 1, 79, 0
7, 213819, Note_on_c, 1, 82, 0
7, 213840, Note_on_c, 1, 76, 84
7, 213840, Note_on_c, 1, 79, 84
7, 214059, Note_on_c, 1, 76, 0
7, 214059, Note_on_c, 1, 79, 0
7, 214080, Note_on_c, 1, 76, 84
7, 214080, Note_on_c, 1, 79, 84
7, 214299, Note_on_c, 1, 76, 0
7, 214299, Note_on_c, 1, 79, 0
7, 214320, Note_on_c, 1, 84, 84
7, 214320, Note_on_c, 1, 72, 84
7, 214539, Note_on_c, 1, 84, 0
7, 214539, Note_on_c, 1, 72, 0
7, 214560, Note_on_c, 1, 84, 84
7, 214560, Note_on_c, 1, 72, 84
7, 214779, Note_on_c, 1, 84, 0
7, 214779, Note_on_c, 1, 72, 0
7, 214800, Note_on_c, 1, 72, 84
7, 215019, Note_on_c, 1, 72, 0
7, 215040, Note_on_c, 1, 73, 52
7, 215279, Note_on_c, 1, 73, 0
7, 217920, Control_c, 1, 11, 96
7, 218400, Note_on_c, 1, 80, 68
7, 218400, Control_c, 1, 11, 96
7, 218480, Control_c, 1, 11, 99
7, 218560, Control_c, 1, 11, 101
7, 218640, Control_c, 1, 11, 104
7, 218720, Control_c, 1, 11, 106
7, 218800, Control_c, 1, 11, 109
7, 218880, Control_c, 1, 11, 112
7, 218960, Control_c, 1, 11, 114
7, 219040, Control_c, 1, 11, 117
7, 219120, Control_c, 1, 11, 119
7, 219200, Control_c, 1, 11, 122
7, 219280, Control_c, 1, 11, 124
7, 219360, Control_c, 1, 11, 127
7, 219600, Control_c, 1, 11, 127
7, 219630, Control_c, 1, 11, 124
7, 219660, Control_c, 1, 11, 122
7, 219690, Control_c, 1, 11, 119
7, 219720, Control_c, 1, 11, 117
7, 219750, Control_c, 1, 11, 114
7, 219780, Control_c, 1, 11, 112
7, 219810, Control_c, 1, 11, 109
7, 219840, Control_c, 1, 11, 106
7, 219870, Control_c, 1, 11, 104
7, 219900, Control_c, 1, 11, 101
7, 219930, Control_c, 1, 11, 99
7, 220079, Note_on_c, 1, 80, 0
7, 222000, Control_c, 1, 11, 80
7, 222240, Note_on_c, 1, 80, 68
7, 222240, Control_c, 1, 11, 80
7, 222280, Control_c, 1, 11, 81
7, 222320, Control_c, 1, 11, 83
7, 222360, Control_c, 1, 11, 84
7, 222400, Control_c, 1, 11, 85
7, 222440, Control_c, 1, 11, 87
7, 222480, Control_c, 1, 11, 88
7, 222520, Control_c, 1, 11, 89
7, 222560, Control_c, 1, 11, 91
7, 222600, Control_c, 1, 11, 92
7, 222640, Control_c, 1, 11, 93
7, 222680, Control_c, 1, 11, 95
7, 222720, Control_c, 1, 11, 96
7, 222959, Note_on_c, 1, 80, 0
7, 223200, Control_c, 1, 11, 96
7, 223200, Note_on_c, 1, 77, 68
7, 223400, Control_c, 1, 11, 99
7, 223439, Note_on_c, 1, 77, 0
7, 223600, Control_c, 1, 11, 101
7, 223800, Control_c, 1, 11, 104
7, 224000, Control_c, 1, 11, 106
7, 224160, Note_on_c, 1, 77, 68
7, 224200, Control_c, 1, 11, 109
7, 224399, Note_on_c, 1, 77, 0
7, 224400, Control_c, 1, 11, 112
7, 224600, Control_c, 1, 11, 114
7, 224800, Control_c, 1, 11, 117
7, 225000, Control_c, 1, 11, 119
7, 225120, Note_on_c, 1, 79, 68
7, 225200, Control_c, 1, 11, 122
7, 225359, Note_on_c, 1, 79, 0
7, 225400, Control_c, 1, 11, 124
7, 225600, Control_c, 1, 11, 127
7, 233280, Note_on_c, 1, 82, 52
7, 233519, Note_on_c, 1, 82, 0
7, 233520, Note_on_c, 1, 74, 52
7, 233739, Note_on_c, 1, 74, 0
7, 233760, Note_on_c, 1, 74, 52
7, 233919, Note_on_c, 1, 74, 0
7, 234000, Note_on_c, 1, 76, 52
7, 234159, Note_on_c, 1, 76, 0
7, 234240, Note_on_c, 1, 77, 44
7, 234459, Note_on_c, 1, 77, 0
7, 234480, Note_on_c, 1, 77, 44
7, 234939, Note_on_c, 1, 77, 0
7, 234960, Note_on_c, 1, 76, 44
7, 235079, Note_on_c, 1, 76, 0
7, 235080, Note_on_c, 1, 78, 44
7, 235199, Note_on_c, 1, 78, 0
7, 235200, Note_on_c, 1, 79, 44
7, 235359, Note_on_c, 1, 79, 0
7, 235440, Note_on_c, 1, 79, 44
7, 235899, Note_on_c, 1, 79, 0
7, 235920, Note_on_c, 1, 78, 44
7, 236039, Note_on_c, 1, 78, 0
7, 236040, Note_on_c, 1, 80, 44
7, 236159, Note_on_c, 1, 80, 0
7, 236160, Note_on_c, 1, 81, 44
7, 236319, Note_on_c, 1, 81, 0
7, 236400, Note_on_c, 1, 81, 44
7, 236859, Note_on_c, 1, 81, 0
7, 236880, Note_on_c, 1, 79, 44
7, 236999, Note_on_c, 1, 79, 0
7, 237000, Note_on_c, 1, 81, 44
7, 237119, Note_on_c, 1, 81, 0
7, 237120, Note_on_c, 1, 82, 44
7, 237279, Note_on_c, 1, 82, 0
7, 237360, Note_on_c, 1, 82, 44
7, 237819, Note_on_c, 1, 82, 0
7, 237840, Note_on_c, 1, 81, 44
7, 237959, Note_on_c, 1, 81, 0
7, 237960, Note_on_c, 1, 83, 44
7, 238079, Note_on_c, 1, 83, 0
7, 238080, Note_on_c, 1, 84, 44
7, 238239, Note_on_c, 1, 84, 0
7, 238320, Note_on_c, 1, 84, 44
7, 238479, Note_on_c, 1, 84, 0
7, 238560, Note_on_c, 1, 84, 44
7, 238719, Note_on_c, 1, 84, 0
7, 238800, Note_on_c, 1, 81, 44
7, 238959, Note_on_c, 1, 81, 0
7, 239040, Note_on_c, 1, 82, 44
7, 239199, Note_on_c, 1, 82, 0
7, 239280, Note_on_c, 1, 82, 44
7, 239439, Note_on_c, 1, 82, 0
7, 239520, Note_on_c, 1, 82, 44
7, 239679, Note_on_c, 1, 82, 0
7, 239760, Note_on_c, 1, 80, 44
7, 239919, Note_on_c, 1, 80, 0
7, 240000, Note_on_c, 1, 81, 44
7, 240159, Note_on_c, 1, 81, 0
7, 240240, Note_on_c, 1, 81, 44
7, 240399, Note_on_c, 1, 81, 0
7, 240480, Note_on_c, 1, 81, 44
7, 240639, Note_on_c, 1, 81, 0
7, 240720, Note_on_c, 1, 78, 44
7, 240879, Note_on_c, 1, 78, 0
7, 240960, Note_on_c, 1, 79, 44
7, 241119, Note_on_c, 1, 79, 0
7, 241200, Note_on_c, 1, 79, 44
7, 241359, Note_on_c, 1, 79, 0
7, 241440, Note_on_c, 1, 79, 44
7, 241599, Note_on_c, 1, 79, 0
7, 241680, Note_on_c, 1, 76, 44
7, 241839, Note_on_c, 1, 76, 0
7, 241920, Note_on_c, 1, 81, 76
7, 241920, Note_on_c, 1, 77, 76
7, 242139, Note_on_c, 1, 81, 0
7, 242139, Note_on_c, 1, 77, 0
7, 242160, Note_on_c, 1, 77, 76
7, 242160, Note_on_c, 1, 81, 76
7, 242399, Note_on_c, 1, 77, 0
7, 242399, Note_on_c, 1, 81, 0
7, 242640, Note_on_c, 1, 81, 76
7, 242640, Note_on_c, 1, 78, 76
7, 242859, Note_on_c, 1, 81, 0
7, 242859, Note_on_c, 1, 78, 0
7, 242880, Note_on_c, 1, 79, 76
7, 242880, Note_on_c, 1, 82, 76
7, 243099, Note_on_c, 1, 79, 0
7, 243099, Note_on_c, 1, 82, 0
7, 243120, Note_on_c, 1, 82, 76
7, 243120, Note_on_c, 1, 79, 76
7, 243359, Note_on_c, 1, 82, 0
7, 243359, Note_on_c, 1, 79, 0
7, 243600, Note_on_c, 1, 83, 76
7, 243600, Note_on_c, 1, 80, 76
7, 243819, Note_on_c, 1, 83, 0
7, 243819, Note_on_c, 1, 80, 0
7, 243840, Note_on_c, 1, 81, 76
7, 243840, Note_on_c, 1, 84, 76
7, 244059, Note_on_c, 1, 81, 0
7, 244059, Note_on_c, 1, 84, 0
7, 244080, Note_on_c, 1, 84, 76
7, 244080, Note_on_c, 1, 81, 76
7, 244319, Note_on_c, 1, 84, 0
7, 244319, Note_on_c, 1, 81, 0
7, 244560, Note_on_c, 1, 81, 76
7, 244560, Note_on_c, 1, 84, 76
7, 244779, Note_on_c, 1, 81, 0
7, 244779, Note_on_c, 1, 84, 0
7, 244800, Note_on_c, 1, 86, 76
7, 244800, Note_on_c, 1, 82, 76
7, 245019, Note_on_c, 1, 86, 0
7, 245019, Note_on_c, 1, 82, 0
7, 245040, Note_on_c, 1, 82, 76
7, 245040, Note_on_c, 1, 86, 76
7, 245279, Note_on_c, 1, 82, 0
7, 245279, Note_on_c, 1, 86, 0
7, 245520, Note_on_c, 1, 74, 76
7, 245520, Note_on_c, 1, 83, 76
7, 245739, Note_on_c, 1, 74, 0
7, 245739, Note_on_c, 1, 83, 0
7, 245760, Note_on_c, 1, 79, 76
7, 245760, Note_on_c, 1, 76, 76
7, 245919, Note_on_c, 1, 79, 0
7, 245919, Note_on_c, 1, 76, 0
7, 246000, Note_on_c, 1, 79, 76
7, 246000, Note_on_c, 1, 76, 76
7, 246159, Note_on_c, 1, 79, 0
7, 246159, Note_on_c, 1, 76, 0
7, 246240, Note_on_c, 1, 76, 76
7, 246240, Note_on_c, 1, 79, 76
7, 246399, Note_on_c, 1, 76, 0
7, 246399, Note_on_c, 1, 79, 0
7, 246480, Note_on_c, 1, 77, 76
7, 246480, Note_on_c, 1, 81, 76
7, 246639, Note_on_c, 1, 77, 0
7, 246639, Note_on_c, 1, 81, 0
7, 246720, Note_on_c, 1, 77, 76
7, 246720, Note_on_c, 1, 74, 76
7, 246879, Note_on_c, 1, 77, 0
7, 246879, Note_on_c, 1, 74, 0
7, 246960, Note_on_c, 1, 74, 76
7, 246960, Note_on_c, 1, 77, 76
7, 247119, Note_on_c, 1, 74, 0
7, 247119, Note_on_c, 1, 77, 0
7, 247200, Note_on_c, 1, 74, 76
7, 247200, Note_on_c, 1, 77, 76
7, 247359, Note_on_c, 1, 74, 0
7, 247359, Note_on_c, 1, 77, 0
7, 247440, Note_on_c, 1, 76, 76
7, 247440, Note_on_c, 1, 83, 76
7, 247599, Note_on_c, 1, 76, 0
7, 247599, Note_on_c, 1, 83, 0
7, 247680, Note_on_c, 1, 76, 76
7, 247680, Note_on_c, 1, 72, 76
7, 247899, Note_on_c, 1, 76, 0
7, 247899, Note_on_c, 1, 72, 0
7, 247920, Note_on_c, 1, 72, 76
7, 247920, Note_on_c, 1, 76, 76
7, 248139, Note_on_c, 1, 72, 0
7, 248139, Note_on_c, 1, 76, 0
7, 248160, Note_on_c, 1, 72, 76
7, 248160, Note_on_c, 1, 75, 76
7, 248379, Note_on_c, 1, 72, 0
7, 248379, Note_on_c, 1, 75, 0
7, 248400, Note_on_c, 1, 74, 76
7, 248400, Note_on_c, 1, 81, 76
7, 248619, Note_on_c, 1, 74, 0
7, 248619, Note_on_c, 1, 81, 0
7, 248640, Note_on_c, 1, 70, 76
7, 248640, Note_on_c, 1, 74, 76
7, 248859, Note_on_c, 1, 70, 0
7, 248859, Note_on_c, 1, 74, 0
7, 248880, Note_on_c, 1, 74, 76
7, 248880, Note_on_c, 1, 70, 76
7, 249099, Note_on_c, 1, 74, 0
7, 249099, Note_on_c, 1, 70, 0
7, 249120, Note_on_c, 1, 73, 76
7, 249120, Note_on_c, 1, 70, 76
7, 249339, Note_on_c, 1, 73, 0
7, 249339, Note_on_c, 1, 70, 0
7, 249360, Note_on_c, 1, 79, 76
7, 249360, Note_on_c, 1, 82, 76
7, 249579, Note_on_c, 1, 79, 0
7, 249579, Note_on_c, 1, 82, 0
7, 249600, Note_on_c, 1, 79, 80
7, 249600, Note_on_c, 1, 82, 80
7, 251499, Note_on_c, 1, 79, 0
7, 251499, Note_on_c, 1, 82, 0
7, 251520, Note_on_c, 1, 81, 80
7, 251520, Note_on_c, 1, 77, 80
7, 253419, Note_on_c, 1, 81, 0
7, 253419, Note_on_c, 1, 77, 0
7, 253440, Note_on_c, 1, 82, 84
7, 253440, Note_on_c, 1, 86, 84
7, 255339, Note_on_c, 1, 82, 0
7, 255339, Note_on_c, 1, 86, 0
7, 255360, Note_on_c, 1, 82, 84
7, 255360, Note_on_c, 1, 86, 84
7, 255599, Note_on_c, 1, 82, 0
7, 255599, Note_on_c, 1, 86, 0
7, 269280, Note_on_c, 1, 81, 44
7, 269424, Note_on_c, 1, 81, 0
7, 269440, Note_on_c, 1, 81, 44
7, 269584, Note_on_c, 1, 81, 0
7, 269600, Note_on_c, 1, 81, 44
7, 269744, Note_on_c, 1, 81, 0
7, 269760, Note_on_c, 1, 81, 44
7, 269879, Note_on_c, 1, 81, 0
7, 269880, Note_on_c, 1, 82, 44
7, 269979, Note_on_c, 1, 82, 0
7, 270000, Note_on_c, 1, 79, 44
7, 270159, Note_on_c, 1, 79, 0
7, 275040, Note_on_c, 1, 81, 44
7, 275999, Note_on_c, 1, 81, 0
7, 276000, Note_on_c, 1, 79, 44
7, 276479, Note_on_c, 1, 79, 0
7, 276480, Note_on_c, 1, 78, 44
7, 276959, Note_on_c, 1, 78, 0
7, 276960, Note_on_c, 1, 76, 44
7, 277439, Note_on_c, 1, 76, 0
7, 277440, Note_on_c, 1, 74, 44
7, 277919, Note_on_c, 1, 74, 0
7, 277920, Note_on_c, 1, 76, 44
7, 278399, Note_on_c, 1, 76, 0
7, 278400, Note_on_c, 1, 69, 44
7, 278639, Note_on_c, 1, 69, 0
7, 289440, Note_on_c, 1, 74, 44
7, 289440, Note_on_c, 1, 72, 44
7, 289919, Note_on_c, 1, 72, 0
7, 289920, Note_on_c, 1, 71, 44
7, 290399, Note_on_c, 1, 74, 0
7, 290399, Note_on_c, 1, 71, 0
7, 290400, Note_on_c, 1, 71, 44
7, 290400, Note_on_c, 1, 67, 44
7, 290639, Note_on_c, 1, 71, 0
7, 290639, Note_on_c, 1, 67, 0
7, 292800, Control_c, 1, 11, 64
7, 293280, Note_on_c, 1, 76, 76
7, 293280, Note_on_c, 1, 73, 76
7, 294219, Note_on_c, 1, 76, 0
7, 294219, Note_on_c, 1, 73, 0
7, 294240, Control_c, 1, 11, 64
7, 294240, Note_on_c, 1, 73, 76
7, 294550, Control_c, 1, 11, 67
7, 294639, Note_on_c, 1, 73, 0
7, 294720, Note_on_c, 1, 74, 76
7, 294860, Control_c, 1, 11, 69
7, 295119, Note_on_c, 1, 74, 0
7, 295170, Control_c, 1, 11, 72
7, 295200, Note_on_c, 1, 76, 76
7, 295480, Control_c, 1, 11, 75
7, 295599, Note_on_c, 1, 76, 0
7, 295680, Note_on_c, 1, 77, 76
7, 295790, Control_c, 1, 11, 77
7, 296079, Note_on_c, 1, 77, 0
7, 296100, Control_c, 1, 11, 80
7, 296410, Control_c, 1, 11, 82
7, 296720, Control_c, 1, 11, 85
7, 297030, Control_c, 1, 11, 88
7, 297340, Control_c, 1, 11, 90
7, 297650, Control_c, 1, 11, 93
7, 297960, Control_c, 1, 11, 96
7, 298080, Note_on_c, 1, 71, 76
7, 298270, Control_c, 1, 11, 98
7, 298479, Note_on_c, 1, 71, 0
7, 298560, Note_on_c, 1, 72, 76
7, 298580, Control_c, 1, 11, 101
7, 298890, Control_c, 1, 11, 103
7, 298959, Note_on_c, 1, 72, 0
7, 299040, Note_on_c, 1, 74, 76
7, 299200, Control_c, 1, 11, 106
7, 299439, Note_on_c, 1, 74, 0
7, 299510, Control_c, 1, 11, 109
7, 299520, Note_on_c, 1, 75, 76
7, 299820, Control_c, 1, 11, 111
7, 299919, Note_on_c, 1, 75, 0
7, 301370, Control_c, 1, 11, 127
7, 301920, Note_on_c, 1, 77, 76
7, 302064, Note_on_c, 1, 77, 0
7, 302080, Note_on_c, 1, 77, 76
7, 302224, Note_on_c, 1, 77, 0
7, 302240, Note_on_c, 1, 77, 76
7, 302384, Note_on_c, 1, 77, 0
7, 302400, Note_on_c, 1, 77, 76
7, 302639, Note_on_c, 1, 77, 0
7, 302880, Note_on_c, 1, 77, 76
7, 303024, Note_on_c, 1, 77, 0
7, 303040, Note_on_c, 1, 77, 76
7, 303184, Note_on_c, 1, 77, 0
7, 303200, Note_on_c, 1, 77, 76
7, 303344, Note_on_c, 1, 77, 0
7, 303360, Note_on_c, 1, 77, 76
7, 303599, Note_on_c, 1, 77, 0
7, 303840, Note_on_c, 1, 70, 76
7, 303840, Note_on_c, 1, 82, 76
7, 303984, Note_on_c, 1, 70, 0
7, 303984, Note_on_c, 1, 82, 0
7, 304000, Note_on_c, 1, 82, 76
7, 304000, Note_on_c, 1, 70, 76
7, 304144, Note_on_c, 1, 82, 0
7, 304144, Note_on_c, 1, 70, 0
7, 304160, Note_on_c, 1, 70, 76
7, 304160, Note_on_c, 1, 82, 76
7, 304304, Note_on_c, 1, 70, 0
7, 304304, Note_on_c, 1, 82, 0
7, 304320, Note_on_c, 1, 82, 76
7, 304320, Note_on_c, 1, 70, 76
7, 304559, Note_on_c, 1, 82, 0
7, 304559, Note_on_c, 1, 70, 0
7, 304800, Note_on_c, 1, 82, 76
7, 304800, Note_on_c, 1, 70, 76
7, 304944, Note_on_c, 1, 82, 0
7, 304944, Note_on_c, 1, 70, 0
7, 304960, Note_on_c, 1, 82, 76
7, 304960, Note_on_c, 1, 70, 76
7, 305104, Note_on_c, 1, 82, 0
7, 305104, Note_on_c, 1, 70, 0
7, 305120, Note_on_c, 1, 70, 76
7, 305120, Note_on_c, 1, 82, 76
7, 305264, Note_on_c, 1, 70, 0
7, 305264, Note_on_c, 1, 82, 0
7, 305280, Note_on_c, 1, 70, 76
7, 305280, Note_on_c, 1, 82, 76
7, 305519, Note_on_c, 1, 70, 0
7, 305519, Note_on_c, 1, 82, 0
7, 305760, Note_on_c, 1, 70, 76
7, 305760, Note_on_c, 1, 82, 76
7, 305904, Note_on_c, 1, 70, 0
7, 305904, Note_on_c, 1, 82, 0
7, 305920, Note_on_c, 1, 75, 76
7, 306064, Note_on_c, 1, 75, 0
7, 306080, Note_on_c, 1, 75, 76
7, 306224, Note_on_c, 1, 75, 0
7, 306240, Note_on_c, 1, 75, 76
7, 306479, Note_on_c, 1, 75, 0
7, 306720, Note_on_c, 1, 75, 76
7, 306864, Note_on_c, 1, 75, 0
7, 306880, Note_on_c, 1, 75, 76
7, 307024, Note_on_c, 1, 75, 0
7, 307040, Note_on_c, 1, 75, 76
7, 307184, Note_on_c, 1, 75, 0
7, 307200, Note_on_c, 1, 75, 76
7, 307439, Note_on_c, 1, 75, 0
7, 307680, Note_on_c, 1, 75, 76
7, 307824, Note_on_c, 1, 75, 0
7, 307840, Note_on_c, 1, 80, 76
7, 307984, Note_on_c, 1, 80, 0
7, 308000, Note_on_c, 1, 80, 76
7, 308144, Note_on_c, 1, 80, 0
7, 308160, Note_on_c, 1, 80, 76
7, 308399, Note_on_c, 1, 80, 0
7, 308640, Note_on_c, 1, 80, 76
7, 308784, Note_on_c, 1, 80, 0
7, 308800, Note_on_c, 1, 80, 76
7, 308944, Note_on_c, 1, 80, 0
7, 308960, Note_on_c, 1, 80, 76
7, 309104, Note_on_c, 1, 80, 0
7, 309120, Note_on_c, 1, 80, 76
7, 309519, Note_on_c, 1, 80, 0
7, 309600, Note_on_c, 1, 65, 76
7, 309600, Note_on_c, 1, 77, 76
7, 309999, Note_on_c, 1, 65, 0
7, 309999, Note_on_c, 1, 77, 0
7, 310080, Note_on_c, 1, 79, 76
7, 310080, Note_on_c, 1, 67, 76
7, 310479, Note_on_c, 1, 79, 0
7, 310479, Note_on_c, 1, 67, 0
7, 310560, Note_on_c, 1, 68, 76
7, 310560, Note_on_c, 1, 80, 76
7, 310959, Note_on_c, 1, 68, 0
7, 310959, Note_on_c, 1, 80, 0
7, 311040, Note_on_c, 1, 82, 76
7, 311040, Note_on_c, 1, 70, 76
7, 311439, Note_on_c, 1, 82, 0
7, 311439, Note_on_c, 1, 70, 0
7, 311520, Note_on_c, 1, 84, 76
7, 311520, Note_on_c, 1, 72, 76
7, 311919, Note_on_c, 1, 84, 0
7, 311919, Note_on_c, 1, 72, 0
7, 312000, Note_on_c, 1, 73, 76
7, 312000, Note_on_c, 1, 85, 76
7, 312399, Note_on_c, 1, 73, 0
7, 312399, Note_on_c, 1, 85, 0
7, 312480, Note_on_c, 1, 86, 76
7, 312480, Note_on_c, 1, 74, 76
7, 312879, Note_on_c, 1, 86, 0
7, 312879, Note_on_c, 1, 74, 0
7, 312960, Note_on_c, 1, 76, 76
7, 313359, Note_on_c, 1, 76, 0
7, 313440, Note_on_c, 1, 76, 76
7, 313440, Note_on_c, 1, 64, 76
7, 313839, Note_on_c, 1, 76, 0
7, 313839, Note_on_c, 1, 64, 0
7, 313920, Note_on_c, 1, 65, 76
7, 313920, Note_on_c, 1, 77, 76
7, 314319, Note_on_c, 1, 65, 0
7, 314319, Note_on_c, 1, 77, 0
7, 314400, Note_on_c, 1, 67, 76
7, 314400, Note_on_c, 1, 79, 76
7, 314799, Note_on_c, 1, 67, 0
7, 314799, Note_on_c, 1, 79, 0
7, 314880, Note_on_c, 1, 80, 76
7, 314880, Note_on_c, 1, 68, 76
7, 315279, Note_on_c, 1, 80, 0
7, 315279, Note_on_c, 1, 68, 0
7, 315360, Note_on_c, 1, 82, 76
7, 315360, Note_on_c, 1, 70, 76
7, 315759, Note_on_c, 1, 82, 0
7, 315759, Note_on_c, 1, 70, 0
7, 315840, Note_on_c, 1, 72, 76
7, 315840, Note_on_c, 1, 84, 76
7, 316239, Note_on_c, 1, 72, 0
7, 316239, Note_on_c, 1, 84, 0
7, 316320, Note_on_c, 1, 84, 76
7, 316320, Note_on_c, 1, 72, 76
7, 316719, Note_on_c, 1, 84, 0
7, 316719, Note_on_c, 1, 72, 0
7, 316800, Note_on_c, 1, 86, 76
7, 316800, Note_on_c, 1, 74, 76
7, 316944, Note_on_c, 1, 86, 0
7, 316944, Note_on_c, 1, 74, 0
7, 316960, Note_on_c, 1, 82, 76
7, 316960, Note_on_c, 1, 70, 76
7, 317104, Note_on_c, 1, 82, 0
7, 317104, Note_on_c, 1, 70, 0
7, 317120, Note_on_c, 1, 82, 76
7, 317120, Note_on_c, 1, 70, 76
7, 317264, Note_on_c, 1, 82, 0
7, 317264, Note_on_c, 1, 70, 0
7, 317280, Note_on_c, 1, 82, 76
7, 317280, Note_on_c, 1, 70, 76
7, 317424, Note_on_c, 1, 82, 0
7, 317424, Note_on_c, 1, 70, 0
7, 317440, Note_on_c, 1, 70, 76
7, 317440, Note_on_c, 1, 82, 76
7, 317584, Note_on_c, 1, 70, 0
7, 317584, Note_on_c, 1, 82, 0
7, 317600, Note_on_c, 1, 82, 76
7, 317600, Note_on_c, 1, 70, 76
7, 317744, Note_on_c, 1, 82, 0
7, 317744, Note_on_c, 1, 70, 0
7, 317760, Note_on_c, 1, 82, 76
7, 317760, Note_on_c, 1, 70, 76
7, 317904, Note_on_c, 1, 82, 0
7, 317904, Note_on_c, 1, 70, 0
7, 317920, Note_on_c, 1, 82, 76
7, 317920, Note_on_c, 1, 70, 76
7, 318064, Note_on_c, 1, 82, 0
7, 318064, Note_on_c, 1, 70, 0
7, 318080, Note_on_c, 1, 82, 76
7, 318080, Note_on_c, 1, 70, 76
7, 318224, Note_on_c, 1, 82, 0
7, 318224, Note_on_c, 1, 70, 0
7, 318240, Note_on_c, 1, 70, 76
7, 318240, Note_on_c, 1, 82, 76
7, 318384, Note_on_c, 1, 70, 0
7, 318384, Note_on_c, 1, 82, 0
7, 318400, Note_on_c, 1, 70, 76
7, 318400, Note_on_c, 1, 82, 76
7, 318544, Note_on_c, 1, 70, 0
7, 318544, Note_on_c, 1, 82, 0
7, 318560, Note_on_c, 1, 70, 76
7, 318560, Note_on_c, 1, 82, 76
7, 318704, Note_on_c, 1, 70, 0
7, 318704, Note_on_c, 1, 82, 0
7, 318720, Note_on_c, 1, 82, 76
7, 318720, Note_on_c, 1, 70, 76
7, 318864, Note_on_c, 1, 82, 0
7, 318864, Note_on_c, 1, 70, 0
7, 318880, Note_on_c, 1, 75, 76
7, 319024, Note_on_c, 1, 75, 0
7, 319040, Note_on_c, 1, 75, 76
7, 319184, Note_on_c, 1, 75, 0
7, 319200, Note_on_c, 1, 75, 76
7, 319344, Note_on_c, 1, 75, 0
7, 319360, Note_on_c, 1, 75, 76
7, 319504, Note_on_c, 1, 75, 0
7, 319520, Note_on_c, 1, 75, 76
7, 319664, Note_on_c, 1, 75, 0
7, 319680, Note_on_c, 1, 75, 76
7, 319824, Note_on_c, 1, 75, 0
7, 319840, Note_on_c, 1, 75, 76
7, 319984, Note_on_c, 1, 75, 0
7, 320000, Note_on_c, 1, 75, 76
7, 320144, Note_on_c, 1, 75, 0
7, 320160, Note_on_c, 1, 76, 76
7, 320304, Note_on_c, 1, 76, 0
7, 320320, Note_on_c, 1, 76, 76
7, 320464, Note_on_c, 1, 76, 0
7, 320480, Note_on_c, 1, 76, 76
7, 320624, Note_on_c, 1, 76, 0
7, 320640, Note_on_c, 1, 76, 76
7, 320784, Note_on_c, 1, 76, 0
7, 320800, Note_on_c, 1, 69, 76
7, 320800, Note_on_c, 1, 81, 76
7, 320944, Note_on_c, 1, 69, 0
7, 320944, Note_on_c, 1, 81, 0
7, 320960, Note_on_c, 1, 81, 76
7, 320960, Note_on_c, 1, 69, 76
7, 321104, Note_on_c, 1, 81, 0
7, 321104, Note_on_c, 1, 69, 0
7, 321120, Note_on_c, 1, 81, 76
7, 321120, Note_on_c, 1, 69, 76
7, 321264, Note_on_c, 1, 81, 0
7, 321264, Note_on_c, 1, 69, 0
7, 321280, Note_on_c, 1, 69, 76
7, 321280, Note_on_c, 1, 81, 76
7, 321424, Note_on_c, 1, 69, 0
7, 321424, Note_on_c, 1, 81, 0
7, 321440, Note_on_c, 1, 69, 76
7, 321440, Note_on_c, 1, 81, 76
7, 321584, Note_on_c, 1, 69, 0
7, 321584, Note_on_c, 1, 81, 0
7, 321600, Note_on_c, 1, 81, 76
7, 321600, Note_on_c, 1, 69, 76
7, 321744, Note_on_c, 1, 81, 0
7, 321744, Note_on_c, 1, 69, 0
7, 321760, Note_on_c, 1, 69, 76
7, 321760, Note_on_c, 1, 81, 76
7, 321904, Note_on_c, 1, 69, 0
7, 321904, Note_on_c, 1, 81, 0
7, 321920, Note_on_c, 1, 81, 76
7, 321920, Note_on_c, 1, 69, 76
7, 322064, Note_on_c, 1, 81, 0
7, 322064, Note_on_c, 1, 69, 0
7, 322080, Note_on_c, 1, 81, 76
7, 322080, Note_on_c, 1, 69, 76
7, 322224, Note_on_c, 1, 81, 0
7, 322224, Note_on_c, 1, 69, 0
7, 322240, Note_on_c, 1, 69, 76
7, 322240, Note_on_c, 1, 81, 76
7, 322384, Note_on_c, 1, 69, 0
7, 322384, Note_on_c, 1, 81, 0
7, 322400, Note_on_c, 1, 69, 76
7, 322400, Note_on_c, 1, 81, 76
7, 322544, Note_on_c, 1, 69, 0
7, 322544, Note_on_c, 1, 81, 0
7, 322560, Note_on_c, 1, 69, 76
7, 322560, Note_on_c, 1, 81, 76
7, 322704, Note_on_c, 1, 69, 0
7, 322704, Note_on_c, 1, 81, 0
7, 322720, Note_on_c, 1, 74, 76
7, 322720, Note_on_c, 1, 86, 76
7, 322864, Note_on_c, 1, 74, 0
7, 322864, Note_on_c, 1, 86, 0
7, 322880, Note_on_c, 1, 74, 76
7, 322880, Note_on_c, 1, 86, 76
7, 323024, Note_on_c, 1, 74, 0
7, 323024, Note_on_c, 1, 86, 0
7, 323040, Note_on_c, 1, 86, 76
7, 323040, Note_on_c, 1, 74, 76
7, 323184, Note_on_c, 1, 86, 0
7, 323184, Note_on_c, 1, 74, 0
7, 323200, Note_on_c, 1, 74, 76
7, 323200, Note_on_c, 1, 86, 76
7, 323344, Note_on_c, 1, 74, 0
7, 323344, Note_on_c, 1, 86, 0
7, 323360, Note_on_c, 1, 86, 76
7, 323360, Note_on_c, 1, 74, 76
7, 323504, Note_on_c, 1, 86, 0
7, 323504, Note_on_c, 1, 74, 0
7, 323520, Note_on_c, 1, 74, 76
7, 323520, Note_on_c, 1, 86, 76
7, 323664, Note_on_c, 1, 74, 0
7, 323664, Note_on_c, 1, 86, 0
7, 323680, Note_on_c, 1, 79, 76
7, 323680, Note_on_c, 1, 67, 76
7, 323824, Note_on_c, 1, 79, 0
7, 323824, Note_on_c, 1, 67, 0
7, 323840, Note_on_c, 1, 79, 76
7, 323840, Note_on_c, 1, 67, 76
7, 323984, Note_on_c, 1, 79, 0
7, 323984, Note_on_c, 1, 67, 0
7, 324000, Note_on_c, 1, 67, 76
7, 324000, Note_on_c, 1, 79, 76
7, 324144, Note_on_c, 1, 67, 0
7, 324144, Note_on_c, 1, 79, 0
7, 324160, Note_on_c, 1, 67, 76
7, 324160, Note_on_c, 1, 79, 76
7, 324304, Note_on_c, 1, 67, 0
7, 324304, Note_on_c, 1, 79, 0
7, 324320, Note_on_c, 1, 79, 76
7, 324320, Note_on_c, 1, 67, 76
7, 324464, Note_on_c, 1, 79, 0
7, 324464, Note_on_c, 1, 67, 0
7, 324480, Note_on_c, 1, 75, 76
7, 324624, Note_on_c, 1, 75, 0
7, 324640, Note_on_c, 1, 75, 76
7, 324784, Note_on_c, 1, 75, 0
7, 324800, Note_on_c, 1, 75, 76
7, 324944, Note_on_c, 1, 75, 0
7, 324960, Note_on_c, 1, 72, 76
7, 324960, Note_on_c, 1, 84, 76
7, 325104, Note_on_c, 1, 72, 0
7, 325104, Note_on_c, 1, 84, 0
7, 325120, Note_on_c, 1, 72, 76
7, 325120, Note_on_c, 1, 84, 76
7, 325264, Note_on_c, 1, 72, 0
7, 325264, Note_on_c, 1, 84, 0
7, 325280, Note_on_c, 1, 84, 76
7, 325280, Note_on_c, 1, 72, 76
7, 325424, Note_on_c, 1, 84, 0
7, 325424, Note_on_c, 1, 72, 0
7, 325440, Note_on_c, 1, 77, 76
7, 325440, Note_on_c, 1, 65, 76
7, 325584, Note_on_c, 1, 77, 0
7, 325584, Note_on_c, 1, 65, 0
7, 325600, Note_on_c, 1, 65, 76
7, 325600, Note_on_c, 1, 77, 76
7, 325744, Note_on_c, 1, 65, 0
7, 325744, Note_on_c, 1, 77, 0
7, 325760, Note_on_c, 1, 77, 76
7, 325760, Note_on_c, 1, 65, 76
7, 325904, Note_on_c, 1, 77, 0
7, 325904, Note_on_c, 1, 65, 0
7, 325920, Note_on_c, 1, 77, 76
7, 325920, Note_on_c, 1, 65, 76
7, 326064, Note_on_c, 1, 77, 0
7, 326064, Note_on_c, 1, 65, 0
7, 326080, Note_on_c, 1, 65, 76
7, 326080, Note_on_c, 1, 77, 76
7, 326224, Note_on_c, 1, 65, 0
7, 326224, Note_on_c, 1, 77, 0
7, 326240, Note_on_c, 1, 77, 76
7, 326240, Note_on_c, 1, 65, 76
7, 326384, Note_on_c, 1, 77, 0
7, 326384, Note_on_c, 1, 65, 0
7, 326400, Note_on_c, 1, 86, 76
7, 326400, Note_on_c, 1, 74, 76
7, 326544, Note_on_c, 1, 86, 0
7, 326544, Note_on_c, 1, 74, 0
7, 326560, Note_on_c, 1, 74, 76
7, 326560, Note_on_c, 1, 86, 76
7, 326704, Note_on_c, 1, 74, 0
7, 326704, Note_on_c, 1, 86, 0
7, 326720, Note_on_c, 1, 86, 76
7, 326720, Note_on_c, 1, 74, 76
7, 326864, Note_on_c, 1, 86, 0
7, 326864, Note_on_c, 1, 74, 0
7, 326880, Note_on_c, 1, 86, 76
7, 326880, Note_on_c, 1, 74, 76
7, 327024, Note_on_c, 1, 86, 0
7, 327024, Note_on_c, 1, 74, 0
7, 327040, Note_on_c, 1, 74, 76
7, 327040, Note_on_c, 1, 86, 76
7, 327184, Note_on_c, 1, 74, 0
7, 327184, Note_on_c, 1, 86, 0
7, 327200, Note_on_c, 1, 74, 76
7, 327200, Note_on_c, 1, 86, 76
7, 327344, Note_on_c, 1, 74, 0
7, 327344, Note_on_c, 1, 86, 0
7, 327360, Note_on_c, 1, 76, 76
7, 327504, Note_on_c, 1, 76, 0
7, 327520, Note_on_c, 1, 76, 76
7, 327664, Note_on_c, 1, 76, 0
7, 327680, Note_on_c, 1, 76, 76
7, 327824, Note_on_c, 1, 76, 0
7, 327840, Note_on_c, 1, 81, 76
7, 327984, Note_on_c, 1, 81, 0
7, 328000, Note_on_c, 1, 81, 76
7, 328144, Note_on_c, 1, 81, 0
7, 328160, Note_on_c, 1, 81, 76
7, 328304, Note_on_c, 1, 81, 0
7, 328320, Note_on_c, 1, 81, 76
7, 328464, Note_on_c, 1, 81, 0
7, 328480, Note_on_c, 1, 81, 76
7, 328624, Note_on_c, 1, 81, 0
7, 328640, Note_on_c, 1, 81, 76
7, 328784, Note_on_c, 1, 81, 0
7, 328800, Note_on_c, 1, 81, 76
7, 328944, Note_on_c, 1, 81, 0
7, 328960, Note_on_c, 1, 81, 76
7, 329104, Note_on_c, 1, 81, 0
7, 329120, Note_on_c, 1, 81, 76
7, 329264, Note_on_c, 1, 81, 0
7, 329280, Note_on_c, 1, 81, 76
7, 329424, Note_on_c, 1, 81, 0
7, 329440, Note_on_c, 1, 81, 76
7, 329584, Note_on_c, 1, 81, 0
7, 329600, Note_on_c, 1, 81, 76
7, 329744, Note_on_c, 1, 81, 0
7, 329760, Note_on_c, 1, 81, 76
7, 329904, Note_on_c, 1, 81, 0
7, 329920, Note_on_c, 1, 81, 76
7, 330064, Note_on_c, 1, 81, 0
7, 330080, Note_on_c, 1, 81, 76
7, 330224, Note_on_c, 1, 81, 0
7, 330240, Note_on_c, 1, 81, 76
7, 330384, Note_on_c, 1, 81, 0
7, 330400, Note_on_c, 1, 81, 76
7, 330544, Note_on_c, 1, 81, 0
7, 330560, Note_on_c, 1, 81, 76
7, 330704, Note_on_c, 1, 81, 0
7, 330720, Note_on_c, 1, 81, 76
7, 330864, Note_on_c, 1, 81, 0
7, 330880, Note_on_c, 1, 81, 76
7, 331024, Note_on_c, 1, 81, 0
7, 331040, Note_on_c, 1, 81, 76
7, 331184, Note_on_c, 1, 81, 0
7, 331200, Note_on_c, 1, 81, 76
7, 331344, Note_on_c, 1, 81, 0
7, 331360, Note_on_c, 1, 81, 76
7, 331504, Note_on_c, 1, 81, 0
7, 331520, Note_on_c, 1, 81, 76
7, 331664, Note_on_c, 1, 81, 0
7, 331680, Note_on_c, 1, 69, 84
7, 331680, Note_on_c, 1, 81, 84
7, 335519, Note_on_c, 1, 69, 0
7, 335519, Note_on_c, 1, 81, 0
7, 341280, Note_on_c, 1, 77, 44
7, 342699, Note_on_c, 1, 77, 0
7, 342720, Note_on_c, 1, 77, 44
7, 342839, Note_on_c, 1, 77, 0
7, 342840, Note_on_c, 1, 79, 44
7, 342939, Note_on_c, 1, 79, 0
7, 342960, Note_on_c, 1, 72, 44
7, 343119, Note_on_c, 1, 72, 0
7, 343200, Note_on_c, 1, 77, 44
7, 344619, Note_on_c, 1, 77, 0
7, 344640, Note_on_c, 1, 79, 44
7, 344759, Note_on_c, 1, 79, 0
7, 344760, Note_on_c, 1, 81, 44
7, 344859, Note_on_c, 1, 81, 0
7, 344880, Note_on_c, 1, 77, 44
7, 345039, Note_on_c, 1, 77, 0
7, 345120, Note_on_c, 1, 77, 44
7, 345359, Note_on_c, 1, 77, 0
7, 345480, Note_on_c, 1, 76, 44
7, 345579, Note_on_c, 1, 76, 0
7, 345600, Note_on_c, 1, 76, 44
7, 345839, Note_on_c, 1, 76, 0
7, 345840, Note_on_c, 1, 74, 44
7, 346059, Note_on_c, 1, 74, 0
7, 346080, Note_on_c, 1, 86, 44
7, 346319, Note_on_c, 1, 86, 0
7, 346440, Note_on_c, 1, 84, 44
7, 346539, Note_on_c, 1, 84, 0
7, 346560, Note_on_c, 1, 84, 44
7, 346799, Note_on_c, 1, 84, 0
7, 346800, Note_on_c, 1, 82, 44
7, 347019, Note_on_c, 1, 82, 0
7, 347040, Note_on_c, 1, 82, 44
7, 347199, Note_on_c, 1, 82, 0
7, 347280, Note_on_c, 1, 81, 44
7, 347439, Note_on_c, 1, 81, 0
7, 347520, Note_on_c, 1, 79, 44
7, 347679, Note_on_c, 1, 79, 0
7, 347760, Note_on_c, 1, 78, 44
7, 347919, Note_on_c, 1, 78, 0
7, 348000, Note_on_c, 1, 79, 44
7, 348159, Note_on_c, 1, 79, 0
7, 348240, Note_on_c, 1, 81, 44
7, 348399, Note_on_c, 1, 81, 0
7, 348480, Note_on_c, 1, 82, 44
7, 348699, Note_on_c, 1, 82, 0
7, 348720, Note_on_c, 1, 79, 44
7, 348720, Note_on_c, 1, 72, 44
7, 348939, Note_on_c, 1, 79, 0
7, 348939, Note_on_c, 1, 72, 0
7, 348960, Note_on_c, 1, 72, 44
7, 348960, Note_on_c, 1, 81, 44
7, 349179, Note_on_c, 1, 72, 0
7, 349179, Note_on_c, 1, 81, 0
7, 349200, Note_on_c, 1, 72, 44
7, 349200, Note_on_c, 1, 77, 44
7, 349419, Note_on_c, 1, 72, 0
7, 349419, Note_on_c, 1, 77, 0
7, 349440, Note_on_c, 1, 76, 44
7, 349440, Note_on_c, 1, 72, 44
7, 349659, Note_on_c, 1, 76, 0
7, 349659, Note_on_c, 1, 72, 0
7, 349680, Note_on_c, 1, 84, 44
7, 349899, Note_on_c, 1, 84, 0
7, 349920, Note_on_c, 1, 67, 44
7, 350139, Note_on_c, 1, 67, 0
7, 350160, Note_on_c, 1, 79, 44
7, 350379, Note_on_c, 1, 79, 0
7, 350400, Note_on_c, 1, 72, 44
7, 351819, Note_on_c, 1, 72, 0
7, 351840, Note_on_c, 1, 79, 44
7, 351984, Note_on_c, 1, 79, 0
7, 352000, Note_on_c, 1, 79, 44
7, 352144, Note_on_c, 1, 79, 0
7, 352160, Note_on_c, 1, 79, 44
7, 352304, Note_on_c, 1, 79, 0
7, 352320, Note_on_c, 1, 79, 44
7, 352479, Note_on_c, 1, 79, 0
7, 352480, Note_on_c, 1, 84, 44
7, 352624, Note_on_c, 1, 84, 0
7, 352640, Note_on_c, 1, 76, 44
7, 352759, Note_on_c, 1, 76, 0
7, 352800, Control_c, 1, 11, 127
7, 352800, Note_on_c, 1, 72, 44
7, 352960, Control_c, 1, 11, 126
7, 353120, Control_c, 1, 11, 125
7, 353280, Control_c, 1, 11, 124
7, 353440, Control_c, 1, 11, 123
7, 353600, Control_c, 1, 11, 122
7, 353760, Control_c, 1, 11, 121
7, 353920, Control_c, 1, 11, 120
7, 354080, Control_c, 1, 11, 119
7, 354240, Control_c, 1, 11, 118
7, 354400, Control_c, 1, 11, 117
7, 354560, Control_c, 1, 11, 116
7, 354720, Control_c, 1, 11, 115
7, 354880, Control_c, 1, 11, 114
7, 355040, Control_c, 1, 11, 113
7, 355200, Control_c, 1, 11, 127
7, 357579, Note_on_c, 1, 72, 0
7, 357600, Note_on_c, 1, 73, 84
7, 358559, Note_on_c, 1, 73, 0
7, 359520, Note_on_c, 1, 85, 84
7, 359520, Note_on_c, 1, 73, 84
7, 360479, Note_on_c, 1, 85, 0
7, 360479, Note_on_c, 1, 73, 0
7, 361440, Note_on_c, 1, 73, 84
7, 361440, Note_on_c, 1, 85, 84
7, 362379, Note_on_c, 1, 73, 0
7, 362379, Note_on_c, 1, 85, 0
7, 362400, Note_on_c, 1, 73, 84
7, 362400, Note_on_c, 1, 85, 84
7, 363339, Note_on_c, 1, 73, 0
7, 363339, Note_on_c, 1, 85, 0
7, 363360, Note_on_c, 1, 85, 84
7, 363360, Note_on_c, 1, 73, 84
7, 364299, Note_on_c, 1, 85, 0
7, 364299, Note_on_c, 1, 73, 0
7, 364320, Note_on_c, 1, 81, 84
7, 364320, Note_on_c, 1, 78, 84
7, 364464, Note_on_c, 1, 81, 0
7, 364464, Note_on_c, 1, 78, 0
7, 364480, Note_on_c, 1, 81, 84
7, 364480, Note_on_c, 1, 78, 84
7, 364624, Note_on_c, 1, 81, 0
7, 364624, Note_on_c, 1, 78, 0
7, 364640, Note_on_c, 1, 81, 84
7, 364640, Note_on_c, 1, 78, 84
7, 364784, Note_on_c, 1, 81, 0
7, 364784, Note_on_c, 1, 78, 0
7, 364800, Note_on_c, 1, 78, 84
7, 364800, Note_on_c, 1, 81, 84
7, 364919, Note_on_c, 1, 78, 0
7, 364919, Note_on_c, 1, 81, 0
7, 364920, Note_on_c, 1, 80, 84
7, 364920, Note_on_c, 1, 83, 84
7, 365019, Note_on_c, 1, 80, 0
7, 365019, Note_on_c, 1, 83, 0
7, 365040, Note_on_c, 1, 73, 84
7, 365040, Note_on_c, 1, 80, 84
7, 365199, Note_on_c, 1, 73, 0
7, 365199, Note_on_c, 1, 80, 0
7, 365280, Note_on_c, 1, 81, 84
7, 365280, Note_on_c, 1, 78, 84
7, 365399, Note_on_c, 1, 81, 0
7, 365399, Note_on_c, 1, 78, 0
7, 365400, Note_on_c, 1, 83, 84
7, 365400, Note_on_c, 1, 80, 84
7, 365499, Note_on_c, 1, 83, 0
7, 365499, Note_on_c, 1, 80, 0
7, 365520, Note_on_c, 1, 80, 84
7, 365520, Note_on_c, 1, 73, 84
7, 365679, Note_on_c, 1, 80, 0
7, 365679, Note_on_c, 1, 73, 0
7, 365760, Note_on_c, 1, 78, 84
7, 365760, Note_on_c, 1, 81, 84
7, 365879, Note_on_c, 1, 78, 0
7, 365879, Note_on_c, 1, 81, 0
7, 365880, Note_on_c, 1, 80, 84
7, 365880, Note_on_c, 1, 83, 84
7, 365979, Note_on_c, 1, 80, 0
7, 365979, Note_on_c, 1, 83, 0
7, 366000, Note_on_c, 1, 73, 84
7, 366000, Note_on_c, 1, 80, 84
7, 366159, Note_on_c, 1, 73, 0
7, 366159, Note_on_c, 1, 80, 0
7, 366240, Note_on_c, 1, 80, 84
7, 366240, Note_on_c, 1, 83, 84
7, 366384, Note_on_c, 1, 80, 0
7, 366384, Note_on_c, 1, 83, 0
7, 366400, Note_on_c, 1, 83, 84
7, 366400, Note_on_c, 1, 80, 84
7, 366544, Note_on_c, 1, 83, 0
7, 366544, Note_on_c, 1, 80, 0
7, 366560, Note_on_c, 1, 80, 84
7, 366560, Note_on_c, 1, 83, 84
7, 366704, Note_on_c, 1, 80, 0
7, 366704, Note_on_c, 1, 83, 0
7, 366720, Note_on_c, 1, 80, 84
7, 366720, Note_on_c, 1, 83, 84
7, 366839, Note_on_c, 1, 80, 0
7, 366839, Note_on_c, 1, 83, 0
7, 366840, Note_on_c, 1, 85, 84
7, 366840, Note_on_c, 1, 81, 84
7, 366939, Note_on_c, 1, 85, 0
7, 366939, Note_on_c, 1, 81, 0
7, 366960, Note_on_c, 1, 81, 84
7, 366960, Note_on_c, 1, 78, 84
7, 367119, Note_on_c, 1, 81, 0
7, 367119, Note_on_c, 1, 78, 0
7, 367200, Note_on_c, 1, 80, 84
7, 367200, Note_on_c, 1, 83, 84
7, 367319, Note_on_c, 1, 80, 0
7, 367319, Note_on_c, 1, 83, 0
7, 367320, Note_on_c, 1, 81, 84
7, 367320, Note_on_c, 1, 85, 84
7, 367419, Note_on_c, 1, 81, 0
7, 367419, Note_on_c, 1, 85, 0
7, 367440, Note_on_c, 1, 81, 84
7, 367440, Note_on_c, 1, 78, 84
7, 367599, Note_on_c, 1, 81, 0
7, 367599, Note_on_c, 1, 78, 0
7, 367680, Note_on_c, 1, 80, 84
7, 367680, Note_on_c, 1, 83, 84
7, 367799, Note_on_c, 1, 80, 0
7, 367799, Note_on_c, 1, 83, 0
7, 367800, Note_on_c, 1, 85, 84
7, 367800, Note_on_c, 1, 81, 84
7, 367899, Note_on_c, 1, 85, 0
7, 367899, Note_on_c, 1, 81, 0
7, 367920, Note_on_c, 1, 81, 84
7, 367920, Note_on_c, 1, 78, 84
7, 368079, Note_on_c, 1, 81, 0
7, 368079, Note_on_c, 1, 78, 0
7, 368160, Note_on_c, 1, 78, 84
7, 368399, Note_on_c, 1, 78, 0
7, 368520, Note_on_c, 1, 76, 84
7, 368619, Note_on_c, 1, 76, 0
7, 368640, Note_on_c, 1, 76, 84
7, 368879, Note_on_c, 1, 76, 0
7, 368880, Note_on_c, 1, 74, 84
7, 369099, Note_on_c, 1, 74, 0
7, 369120, Note_on_c, 1, 86, 84
7, 369120, Note_on_c, 1, 74, 84
7, 369359, Note_on_c, 1, 86, 0
7, 369359, Note_on_c, 1, 74, 0
7, 369480, Note_on_c, 1, 73, 84
7, 369480, Note_on_c, 1, 85, 84
7, 369579, Note_on_c, 1, 73, 0
7, 369579, Note_on_c, 1, 85, 0
7, 369600, Note_on_c, 1, 85, 84
7, 369600, Note_on_c, 1, 73, 84
7, 369839, Note_on_c, 1, 85, 0
7, 369839, Note_on_c, 1, 73, 0
7, 369840, Note_on_c, 1, 83, 84
7, 369840, Note_on_c, 1, 71, 84
7, 370059, Note_on_c, 1, 83, 0
7, 370059, Note_on_c, 1, 71, 0
7, 370080, Note_on_c, 1, 71, 84
7, 370080, Note_on_c, 1, 83, 84
7, 370239, Note_on_c, 1, 71, 0
7, 370239, Note_on_c, 1, 83, 0
7, 370320, Note_on_c, 1, 69, 84
7, 370320, Note_on_c, 1, 81, 84
7, 370479, Note_on_c, 1, 69, 0
7, 370479, Note_on_c, 1, 81, 0
7, 370560, Note_on_c, 1, 80, 84
7, 370560, Note_on_c, 1, 68, 84
7, 370719, Note_on_c, 1, 80, 0
7, 370719, Note_on_c, 1, 68, 0
7, 370800, Note_on_c, 1, 66, 84
7, 370800, Note_on_c, 1, 78, 84
7, 370959, Note_on_c, 1, 66, 0
7, 370959, Note_on_c, 1, 78, 0
7, 371040, Note_on_c, 1, 80, 84
7, 371040, Note_on_c, 1, 68, 84
7, 371199, Note_on_c, 1, 80, 0
7, 371199, Note_on_c, 1, 68, 0
7, 371280, Note_on_c, 1, 81, 84
7, 371280, Note_on_c, 1, 69, 84
7, 371439, Note_on_c, 1, 81, 0
7, 371439, Note_on_c, 1, 69, 0
7, 371520, Note_on_c, 1, 83, 84
7, 371520, Note_on_c, 1, 71, 84
7, 371739, Note_on_c, 1, 83, 0
7, 371739, Note_on_c, 1, 71, 0
7, 371760, Note_on_c, 1, 68, 84
7, 371760, Note_on_c, 1, 80, 84
7, 371979, Note_on_c, 1, 68, 0
7, 371979, Note_on_c, 1, 80, 0
7, 372000, Note_on_c, 1, 69, 84
7, 372000, Note_on_c, 1, 81, 84
7, 372219, Note_on_c, 1, 69, 0
7, 372219, Note_on_c, 1, 81, 0
7, 372240, Note_on_c, 1, 78, 84
7, 372240, Note_on_c, 1, 66, 84
7, 372459, Note_on_c, 1, 78, 0
7, 372459, Note_on_c, 1, 66, 0
7, 372480, Note_on_c, 1, 68, 84
7, 372480, Note_on_c, 1, 80, 84
7, 372699, Note_on_c, 1, 68, 0
7, 372699, Note_on_c, 1, 80, 0
7, 372720, Note_on_c, 1, 78, 84
7, 372720, Note_on_c, 1, 66, 84
7, 372939, Note_on_c, 1, 78, 0
7, 372939, Note_on_c, 1, 66, 0
7, 372960, Note_on_c, 1, 68, 84
7, 372960, Note_on_c, 1, 80, 84
7, 373179, Note_on_c, 1, 68, 0
7, 373179, Note_on_c, 1, 80, 0
7, 373200, Note_on_c, 1, 69, 84
7, 373200, Note_on_c, 1, 81, 84
7, 373419, Note_on_c, 1, 69, 0
7, 373419, Note_on_c, 1, 81, 0
7, 373440, Note_on_c, 1, 71, 84
7, 373440, Note_on_c, 1, 83, 84
7, 373659, Note_on_c, 1, 71, 0
7, 373659, Note_on_c, 1, 83, 0
7, 373680, Note_on_c, 1, 80, 84
7, 373680, Note_on_c, 1, 68, 84
7, 373899, Note_on_c, 1, 80, 0
7, 373899, Note_on_c, 1, 68, 0
7, 373920, Note_on_c, 1, 81, 84
7, 373920, Note_on_c, 1, 69, 84
7, 374139, Note_on_c, 1, 81, 0
7, 374139, Note_on_c, 1, 69, 0
7, 374160, Note_on_c, 1, 66, 84
7, 374160, Note_on_c, 1, 78, 84
7, 374379, Note_on_c, 1, 66, 0
7, 374379, Note_on_c, 1, 78, 0
7, 374400, Note_on_c, 1, 68, 84
7, 374400, Note_on_c, 1, 80, 84
7, 374619, Note_on_c, 1, 68, 0
7, 374619, Note_on_c, 1, 80, 0
7, 374640, Note_on_c, 1, 66, 84
7, 374640, Note_on_c, 1, 78, 84
7, 374859, Note_on_c, 1, 66, 0
7, 374859, Note_on_c, 1, 78, 0
7, 374880, Note_on_c, 1, 80, 84
7, 374880, Note_on_c, 1, 68, 84
7, 375099, Note_on_c, 1, 80, 0
7, 375099, Note_on_c, 1, 68, 0
7, 375120, Note_on_c, 1, 69, 84
7, 375120, Note_on_c, 1, 81, 84
7, 375339, Note_on_c, 1, 69, 0
7, 375339, Note_on_c, 1, 81, 0
7, 375360, Note_on_c, 1, 71, 84
7, 375360, Note_on_c, 1, 83, 84
7, 375579, Note_on_c, 1, 71, 0
7, 375579, Note_on_c, 1, 83, 0
7, 375600, Note_on_c, 1, 80, 84
7, 375600, Note_on_c, 1, 68, 84
7, 375819, Note_on_c, 1, 80, 0
7, 375819, Note_on_c, 1, 68, 0
7, 375840, Note_on_c, 1, 69, 84
7, 375840, Note_on_c, 1, 81, 84
7, 376059, Note_on_c, 1, 69, 0
7, 376059, Note_on_c, 1, 81, 0
7, 376080, Note_on_c, 1, 77, 84
7, 376299, Note_on_c, 1, 77, 0
7, 376320, Note_on_c, 1, 79, 84
7, 376539, Note_on_c, 1, 79, 0
7, 376560, Note_on_c, 1, 77, 84
7, 376779, Note_on_c, 1, 77, 0
7, 376800, Note_on_c, 1, 79, 84
7, 377019, Note_on_c, 1, 79, 0
7, 377040, Note_on_c, 1, 81, 84
7, 377259, Note_on_c, 1, 81, 0
7, 377280, Note_on_c, 1, 82, 84
7, 377499, Note_on_c, 1, 82, 0
7, 377520, Note_on_c, 1, 79, 84
7, 377739, Note_on_c, 1, 79, 0
7, 377760, Note_on_c, 1, 81, 84
7, 377979, Note_on_c, 1, 81, 0
7, 378000, Note_on_c, 1, 77, 84
7, 378219, Note_on_c, 1, 77, 0
7, 378240, Note_on_c, 1, 82, 92
7, 378459, Note_on_c, 1, 82, 0
7, 378480, Note_on_c, 1, 79, 84
7, 378699, Note_on_c, 1, 79, 0
7, 378720, Note_on_c, 1, 81, 84
7, 378939, Note_on_c, 1, 81, 0
7, 378960, Note_on_c, 1, 77, 84
7, 379179, Note_on_c, 1, 77, 0
7, 379200, Note_on_c, 1, 82, 92
7, 379419, Note_on_c, 1, 82, 0
7, 379440, Note_on_c, 1, 79, 84
7, 379659, Note_on_c, 1, 79, 0
7, 379680, Note_on_c, 1, 81, 84
7, 379899, Note_on_c, 1, 81, 0
7, 379920, Note_on_c, 1, 77, 84
7, 380139, Note_on_c, 1, 77, 0
7, 380160, Note_on_c, 1, 82, 92
7, 380379, Note_on_c, 1, 82, 0
7, 380400, Note_on_c, 1, 79, 84
7, 380619, Note_on_c, 1, 79, 0
7, 380640, Note_on_c, 1, 81, 84
7, 380859, Note_on_c, 1, 81, 0
7, 380880, Note_on_c, 1, 77, 84
7, 381099, Note_on_c, 1, 77, 0
7, 381120, Note_on_c, 1, 82, 92
7, 381339, Note_on_c, 1, 82, 0
7, 381360, Note_on_c, 1, 79, 84
7, 381579, Note_on_c, 1, 79, 0
7, 381600, Note_on_c, 1, 81, 84
7, 381819, Note_on_c, 1, 81, 0
7, 381840, Note_on_c, 1, 77, 84
7, 382059, Note_on_c, 1, 77, 0
7, 382080, Note_on_c, 1, 82, 92
7, 382299, Note_on_c, 1, 82, 0
7, 382320, Note_on_c, 1, 79, 84
7, 382539, Note_on_c, 1, 79, 0
7, 382560, Note_on_c, 1, 76, 92
7, 382779, Note_on_c, 1, 76, 0
7, 382800, Note_on_c, 1, 81, 84
7, 383019, Note_on_c, 1, 81, 0
7, 383040, Note_on_c, 1, 77, 92
7, 383259, Note_on_c, 1, 77, 0
7, 383280, Note_on_c, 1, 74, 84
7, 383499, Note_on_c, 1, 74, 0
7, 383520, Note_on_c, 1, 79, 92
7, 383739, Note_on_c, 1, 79, 0
7, 383760, Note_on_c, 1, 76, 84
7, 383979, Note_on_c, 1, 76, 0
7, 384000, Note_on_c, 1, 72, 92
7, 384219, Note_on_c, 1, 72, 0
7, 384240, Note_on_c, 1, 77, 84
7, 384459, Note_on_c, 1, 77, 0
7, 384480, Note_on_c, 1, 74, 92
7, 384699, Note_on_c, 1, 74, 0
7, 384720, Note_on_c, 1, 70, 84
7, 384939, Note_on_c, 1, 70, 0
7, 384960, Note_on_c, 1, 76, 92
7, 385179, Note_on_c, 1, 76, 0
7, 385200, Note_on_c, 1, 72, 84
7, 385419, Note_on_c, 1, 72, 0
7, 385440, Note_on_c, 1, 69, 92
7, 385659, Note_on_c, 1, 69, 0
7, 385680, Note_on_c, 1, 74, 84
7, 385680, Note_on_c, 1, 86, 84
7, 385899, Note_on_c, 1, 74, 0
7, 385899, Note_on_c, 1, 86, 0
7, 385920, Note_on_c, 1, 82, 92
7, 385920, Note_on_c, 1, 70, 92
7, 386139, Note_on_c, 1, 82, 0
7, 386139, Note_on_c, 1, 70, 0
7, 386160, Note_on_c, 1, 67, 84
7, 386160, Note_on_c, 1, 79, 84
7, 386379, Note_on_c, 1, 67, 0
7, 386379, Note_on_c, 1, 79, 0
7, 386400, Note_on_c, 1, 72, 92
7, 386400, Note_on_c, 1, 84, 92
7, 386619, Note_on_c, 1, 72, 0
7, 386619, Note_on_c, 1, 84, 0
7, 386640, Note_on_c, 1, 69, 84
7, 386640, Note_on_c, 1, 81, 84
7, 386859, Note_on_c, 1, 69, 0
7, 386859, Note_on_c, 1, 81, 0
7, 386880, Note_on_c, 1, 77, 92
7, 386880, Note_on_c, 1, 65, 92
7, 387099, Note_on_c, 1, 77, 0
7, 387099, Note_on_c, 1, 65, 0
7, 387120, Note_on_c, 1, 70, 84
7, 387120, Note_on_c, 1, 82, 84
7, 387339, Note_on_c, 1, 70, 0
7, 387339, Note_on_c, 1, 82, 0
7, 387360, Note_on_c, 1, 67, 92
7, 387360, Note_on_c, 1, 79, 92
7, 387579, Note_on_c, 1, 67, 0
7, 387579, Note_on_c, 1, 79, 0
7, 387600, Note_on_c, 1, 76, 84
7, 387600, Note_on_c, 1, 64, 84
7, 387819, Note_on_c, 1, 76, 0
7, 387819, Note_on_c, 1, 64, 0
7, 387840, Note_on_c, 1, 60, 92
7, 387840, Note_on_c, 1, 72, 92
7, 388059, Note_on_c, 1, 60, 0
7, 388059, Note_on_c, 1, 72, 0
7, 388080, Note_on_c, 1, 70, 84
7, 388299, Note_on_c, 1, 70, 0
7, 388320, Note_on_c, 1, 67, 92
7, 388539, Note_on_c, 1, 67, 0
7, 388560, Note_on_c, 1, 79, 84
7, 388779, Note_on_c, 1, 79, 0
7, 388800, Note_on_c, 1, 76, 92
7, 389019, Note_on_c, 1, 76, 0
7, 389040, Note_on_c, 1, 70, 84
7, 389259, Note_on_c, 1, 70, 0
7, 389280, Note_on_c, 1, 70, 92
7, 389280, Note_on_c, 1, 82, 92
7, 389499, Note_on_c, 1, 70, 0
7, 389499, Note_on_c, 1, 82, 0
7, 389520, Note_on_c, 1, 67, 84
7, 389520, Note_on_c, 1, 79, 84
7, 389739, Note_on_c, 1, 67, 0
7, 389739, Note_on_c, 1, 79, 0
7, 389760, Note_on_c, 1, 64, 92
7, 389760, Note_on_c, 1, 76, 92
7, 389979, Note_on_c, 1, 64, 0
7, 389979, Note_on_c, 1, 76, 0
7, 390000, Note_on_c, 1, 79, 84
7, 390000, Note_on_c, 1, 82, 84
7, 390219, Note_on_c, 1, 79, 0
7, 390219, Note_on_c, 1, 82, 0
7, 390240, Note_on_c, 1, 82, 92
7, 390240, Note_on_c, 1, 79, 92
7, 390459, Note_on_c, 1, 82, 0
7, 390459, Note_on_c, 1, 79, 0
7, 390480, Note_on_c, 1, 82, 84
7, 390480, Note_on_c, 1, 79, 84
7, 390699, Note_on_c, 1, 82, 0
7, 390699, Note_on_c, 1, 79, 0
7, 390720, Note_on_c, 1, 82, 92
7, 390720, Note_on_c, 1, 79, 92
7, 390939, Note_on_c, 1, 82, 0
7, 390939, Note_on_c, 1, 79, 0
7, 390960, Note_on_c, 1, 82, 84
7, 390960, Note_on_c, 1, 79, 84
7, 391179, Note_on_c, 1, 82, 0
7, 391179, Note_on_c, 1, 79, 0
7, 391200, Note_on_c, 1, 82, 92
7, 391200, Note_on_c, 1, 79, 92
7, 391419, Note_on_c, 1, 82, 0
7, 391419, Note_on_c, 1, 79, 0
7, 391440, Note_on_c, 1, 76, 84
7, 391440, Note_on_c, 1, 67, 84
7, 391659, Note_on_c, 1, 76, 0
7, 391659, Note_on_c, 1, 67, 0
7, 391680, Note_on_c, 1, 77, 76
7, 391680, Note_on_c, 1, 69, 76
7, 391760, Control_c, 1, 11, 80
7, 391919, Note_on_c, 1, 77, 0
7, 391919, Note_on_c, 1, 69, 0
7, 399360, Control_c, 1, 11, 127
7, 399840, Note_on_c, 1, 81, 76
7, 399840, Note_on_c, 1, 77, 76
7, 400079, Note_on_c, 1, 81, 0
7, 400079, Note_on_c, 1, 77, 0
7, 400800, Note_on_c, 1, 77, 76
7, 400800, Note_on_c, 1, 81, 76
7, 401039, Note_on_c, 1, 77, 0
7, 401039, Note_on_c, 1, 81, 0
7, 401760, Note_on_c, 1, 77, 76
7, 401760, Note_on_c, 1, 79, 76
7, 401999, Note_on_c, 1, 77, 0
7, 401999, Note_on_c, 1, 79, 0
7, 402720, Note_on_c, 1, 76, 76
7, 402720, Note_on_c, 1, 79, 76
7, 402959, Note_on_c, 1, 76, 0
7, 402959, Note_on_c, 1, 79, 0
7, 403200, Note_on_c, 1, 77, 52
7, 403200, Note_on_c, 1, 69, 52
7, 403439, Note_on_c, 1, 77, 0
7, 403439, Note_on_c, 1, 69, 0
7, 406080, Control_c, 1, 11, 96
7, 406560, Note_on_c, 1, 76, 68
7, 407039, Note_on_c, 1, 76, 0
7, 407040, Note_on_c, 1, 77, 68
7, 407040, Control_c, 1, 11, 96
7, 407080, Control_c, 1, 11, 99
7, 407120, Control_c, 1, 11, 101
7, 407160, Control_c, 1, 11, 104
7, 407200, Control_c, 1, 11, 106
7, 407240, Control_c, 1, 11, 109
7, 407280, Control_c, 1, 11, 112
7, 407320, Control_c, 1, 11, 114
7, 407360, Control_c, 1, 11, 117
7, 407400, Control_c, 1, 11, 119
7, 407440, Control_c, 1, 11, 122
7, 407480, Control_c, 1, 11, 124
7, 407520, Control_c, 1, 11, 127
7, 407560, Control_c, 1, 11, 124
7, 407600, Control_c, 1, 11, 122
7, 407640, Control_c, 1, 11, 119
7, 407680, Control_c, 1, 11, 117
7, 407720, Control_c, 1, 11, 114
7, 407759, Note_on_c, 1, 77, 0
7, 407760, Control_c, 1, 11, 112
7, 407760, Note_on_c, 1, 79, 68
7, 407800, Control_c, 1, 11, 109
7, 407840, Control_c, 1, 11, 106
7, 407879, Note_on_c, 1, 79, 0
7, 407880, Control_c, 1, 11, 104
7, 407880, Note_on_c, 1, 81, 68
7, 407920, Control_c, 1, 11, 101
7, 407960, Control_c, 1, 11, 99
7, 407999, Note_on_c, 1, 81, 0
7, 408000, Note_on_c, 1, 72, 68
7, 408000, Control_c, 1, 11, 96
7, 408239, Note_on_c, 1, 72, 0
7, 409920, Control_c, 1, 11, 80
7, 410400, Note_on_c, 1, 76, 76
7, 410400, Control_c, 1, 11, 80
7, 410440, Control_c, 1, 11, 84
7, 410480, Control_c, 1, 11, 88
7, 410520, Control_c, 1, 11, 92
7, 410560, Control_c, 1, 11, 96
7, 410600, Control_c, 1, 11, 100
7, 410640, Control_c, 1, 11, 104
7, 410680, Control_c, 1, 11, 107
7, 410720, Control_c, 1, 11, 111
7, 410760, Control_c, 1, 11, 115
7, 410800, Control_c, 1, 11, 119
7, 410840, Control_c, 1, 11, 123
7, 410879, Note_on_c, 1, 76, 0
7, 410880, Control_c, 1, 11, 127
7, 410880, Note_on_c, 1, 77, 76
7, 411119, Note_on_c, 1, 77, 0
7, 411360, Note_on_c, 1, 77, 76
7, 411360, Note_on_c, 1, 81, 76
7, 411599, Note_on_c, 1, 77, 0
7, 411599, Note_on_c, 1, 81, 0
7, 412320, Note_on_c, 1, 81, 76
7, 412320, Note_on_c, 1, 77, 76
7, 412559, Note_on_c, 1, 81, 0
7, 412559, Note_on_c, 1, 77, 0
7, 413280, Note_on_c, 1, 79, 76
7, 413280, Note_on_c, 1, 77, 76
7, 413519, Note_on_c, 1, 79, 0
7, 413519, Note_on_c, 1, 77, 0
7, 414240, Note_on_c, 1, 76, 76
7, 414240, Note_on_c, 1, 79, 76
7, 414479, Note_on_c, 1, 76, 0
7, 414479, Note_on_c, 1, 79, 0
7, 414720, Note_on_c, 1, 81, 84
7, 414720, Note_on_c, 1, 69, 84
7, 418539, Note_on_c, 1, 81, 0
7, 418539, Note_on_c, 1, 69, 0
7, 418560, Note_on_c, 1, 80, 84
7, 418560, Note_on_c, 1, 68, 84
7, 418799, Note_on_c, 1, 80, 0
7, 418799, Note_on_c, 1, 68, 0
7, 419040, Note_on_c, 1, 79, 84
7, 419040, Note_on_c, 1, 76, 84
7, 419279, Note_on_c, 1, 79, 0
7, 419279, Note_on_c, 1, 76, 0
7, 419520, Note_on_c, 1, 76, 84
7, 419520, Note_on_c, 1, 79, 84
7, 419759, Note_on_c, 1, 76, 0
7, 419759, Note_on_c, 1, 79, 0
7, 420000, Note_on_c, 1, 79, 84
7, 420000, Note_on_c, 1, 82, 84
7, 420239, Note_on_c, 1, 79, 0
7, 420239, Note_on_c, 1, 82, 0
7, 424800, Note_on_c, 1, 77, 76
7, 424800, Note_on_c, 1, 81, 76
7, 424944, Note_on_c, 1, 77, 0
7, 424944, Note_on_c, 1, 81, 0
7, 424960, Note_on_c, 1, 81, 76
7, 424960, Note_on_c, 1, 77, 76
7, 425104, Note_on_c, 1, 81, 0
7, 425104, Note_on_c, 1, 77, 0
7, 425120, Note_on_c, 1, 81, 76
7, 425120, Note_on_c, 1, 77, 76
7, 425264, Note_on_c, 1, 81, 0
7, 425264, Note_on_c, 1, 77, 0
7, 425280, Note_on_c, 1, 82, 76
7, 425280, Note_on_c, 1, 79, 76
7, 425439, Note_on_c, 1, 82, 0
7, 425439, Note_on_c, 1, 79, 0
7, 425520, Note_on_c, 1, 79, 76
7, 425520, Note_on_c, 1, 72, 76
7, 425679, Note_on_c, 1, 79, 0
7, 425679, Note_on_c, 1, 72, 0
7, 425760, Note_on_c, 1, 82, 76
7, 425760, Note_on_c, 1, 79, 76
7, 425919, Note_on_c, 1, 82, 0
7, 425919, Note_on_c, 1, 79, 0
7, 426000, Note_on_c, 1, 72, 76
7, 426000, Note_on_c, 1, 79, 76
7, 426159, Note_on_c, 1, 72, 0
7, 426159, Note_on_c, 1, 79, 0
7, 426240, Note_on_c, 1, 84, 76
7, 426240, Note_on_c, 1, 81, 76
7, 426459, Note_on_c, 1, 84, 0
7, 426459, Note_on_c, 1, 81, 0
7, 426480, Note_on_c, 1, 77, 76
7, 426480, Note_on_c, 1, 81, 76
7, 426699, Note_on_c, 1, 77, 0
7, 426699, Note_on_c, 1, 81, 0
7, 426720, Note_on_c, 1, 81, 76
7, 426720, Note_on_c, 1, 84, 76
7, 426939, Note_on_c, 1, 81, 0
7, 426939, Note_on_c, 1, 84, 0
7, 426960, Note_on_c, 1, 81, 76
7, 426960, Note_on_c, 1, 77, 76
7, 427179, Note_on_c, 1, 81, 0
7, 427179, Note_on_c, 1, 77, 0
7, 427200, Note_on_c, 1, 82, 76
7, 427200, Note_on_c, 1, 79, 76
7, 427419, Note_on_c, 1, 82, 0
7, 427419, Note_on_c, 1, 79, 0
7, 427440, Note_on_c, 1, 72, 76
7, 427440, Note_on_c, 1, 79, 76
7, 427659, Note_on_c, 1, 72, 0
7, 427659, Note_on_c, 1, 79, 0
7, 427680, Note_on_c, 1, 79, 76
7, 427680, Note_on_c, 1, 82, 76
7, 427899, Note_on_c, 1, 79, 0
7, 427899, Note_on_c, 1, 82, 0
7, 427920, Note_on_c, 1, 79, 76
7, 427920, Note_on_c, 1, 72, 76
7, 428139, Note_on_c, 1, 79, 0
7, 428139, Note_on_c, 1, 72, 0
7, 428160, Note_on_c, 1, 81, 76
7, 428160, Note_on_c, 1, 84, 76
7, 428379, Note_on_c, 1, 81, 0
7, 428379, Note_on_c, 1, 84, 0
7, 428400, Note_on_c, 1, 81, 76
7, 428400, Note_on_c, 1, 77, 76
7, 428619, Note_on_c, 1, 81, 0
7, 428619, Note_on_c, 1, 77, 0
7, 428640, Note_on_c, 1, 81, 76
7, 428640, Note_on_c, 1, 77, 76
7, 428784, Note_on_c, 1, 81, 0
7, 428784, Note_on_c, 1, 77, 0
7, 428800, Note_on_c, 1, 77, 76
7, 428800, Note_on_c, 1, 81, 76
7, 428944, Note_on_c, 1, 77, 0
7, 428944, Note_on_c, 1, 81, 0
7, 428960, Note_on_c, 1, 77, 76
7, 428960, Note_on_c, 1, 81, 76
7, 429104, Note_on_c, 1, 77, 0
7, 429104, Note_on_c, 1, 81, 0
7, 429120, Note_on_c, 1, 82, 76
7, 429120, Note_on_c, 1, 79, 76
7, 429339, Note_on_c, 1, 82, 0
7, 429339, Note_on_c, 1, 79, 0
7, 429360, Note_on_c, 1, 79, 76
7, 429360, Note_on_c, 1, 72, 76
7, 429579, Note_on_c, 1, 79, 0
7, 429579, Note_on_c, 1, 72, 0
7, 429600, Note_on_c, 1, 79, 76
7, 429600, Note_on_c, 1, 82, 76
7, 429819, Note_on_c, 1, 79, 0
7, 429819, Note_on_c, 1, 82, 0
7, 429840, Note_on_c, 1, 79, 76
7, 429840, Note_on_c, 1, 72, 76
7, 430059, Note_on_c, 1, 79, 0
7, 430059, Note_on_c, 1, 72, 0
7, 430080, Note_on_c, 1, 84, 76
7, 430080, Note_on_c, 1, 81, 76
7, 430299, Note_on_c, 1, 84, 0
7, 430299, Note_on_c, 1, 81, 0
7, 430320, Note_on_c, 1, 81, 76
7, 430320, Note_on_c, 1, 77, 76
7, 430539, Note_on_c, 1, 81, 0
7, 430539, Note_on_c, 1, 77, 0
7, 430560, Note_on_c, 1, 84, 76
7, 430560, Note_on_c, 1, 81, 76
7, 430779, Note_on_c, 1, 84, 0
7, 430779, Note_on_c, 1, 81, 0
7, 430800, Note_on_c, 1, 81, 76
7, 430800, Note_on_c, 1, 77, 76
7, 431019, Note_on_c, 1, 81, 0
7, 431019, Note_on_c, 1, 77, 0
7, 431040, Note_on_c, 1, 82, 76
7, 431040, Note_on_c, 1, 79, 76
7, 431259, Note_on_c, 1, 82, 0
7, 431259, Note_on_c, 1, 79, 0
7, 431280, Note_on_c, 1, 81, 76
7, 431280, Note_on_c, 1, 72, 76
7, 431499, Note_on_c, 1, 81, 0
7, 431499, Note_on_c, 1, 72, 0
7, 431520, Note_on_c, 1, 74, 76
7, 431520, Note_on_c, 1, 82, 76
7, 431739, Note_on_c, 1, 74, 0
7, 431739, Note_on_c, 1, 82, 0
7, 431760, Note_on_c, 1, 76, 76
7, 431760, Note_on_c, 1, 79, 76
7, 431979, Note_on_c, 1, 76, 0
7, 431979, Note_on_c, 1, 79, 0
7, 432000, Note_on_c, 1, 77, 84
7, 432000, Note_on_c, 1, 69, 84
7, 432080, Control_c, 1, 11, 112
7, 432939, Note_on_c, 1, 77, 0
7, 432939, Note_on_c, 1, 69, 0
7, 432958, Control_c, 1, 11, 127
7, 432960, Note_on_c, 1, 81, 84
7, 432960, Note_on_c, 1, 77, 84
7, 433040, Control_c, 1, 11, 112
7, 433899, Note_on_c, 1, 81, 0
7, 433899, Note_on_c, 1, 77, 0
7, 433918, Control_c, 1, 11, 127
7, 433920, Note_on_c, 1, 81, 84
7, 434000, Control_c, 1, 11, 112
7, 434859, Note_on_c, 1, 81, 0
7, 434878, Control_c, 1, 11, 127
7, 434880, Note_on_c, 1, 77, 84
7, 434880, Note_on_c, 1, 81, 84
7, 434960, Control_c, 1, 11, 112
7, 435819, Note_on_c, 1, 77, 0
7, 435819, Note_on_c, 1, 81, 0
7, 435838, Control_c, 1, 11, 127
7, 435840, Note_on_c, 1, 81, 84
7, 435920, Control_c, 1, 11, 112
7, 436299, Note_on_c, 1, 81, 0
7, 436318, Control_c, 1, 11, 127
7, 436320, Note_on_c, 1, 81, 84
7, 436320, Note_on_c, 1, 77, 84
7, 436400, Control_c, 1, 11, 112
7, 436779, Note_on_c, 1, 81, 0
7, 436779, Note_on_c, 1, 77, 0
7, 436798, Control_c, 1, 11, 127
7, 436800, Note_on_c, 1, 81, 84
7, 436880, Control_c, 1, 11, 112
7, 437259, Note_on_c, 1, 81, 0
7, 437278, Control_c, 1, 11, 127
7, 437280, Note_on_c, 1, 81, 84
7, 437280, Note_on_c, 1, 77, 84
7, 437360, Control_c, 1, 11, 112
7, 437739, Note_on_c, 1, 81, 0
7, 437739, Note_on_c, 1, 77, 0
7, 437758, Control_c, 1, 11, 127
7, 437760, Note_on_c, 1, 81, 84
7, 437840, Control_c, 1, 11, 112
7, 438219, Note_on_c, 1, 81, 0
7, 438238, Control_c, 1, 11, 127
7, 438240, Note_on_c, 1, 81, 84
7, 438240, Note_on_c, 1, 77, 84
7, 438320, Control_c, 1, 11, 112
7, 438699, Note_on_c, 1, 81, 0
7, 438699, Note_on_c, 1, 77, 0
7, 438718, Control_c, 1, 11, 127
7, 438720, Note_on_c, 1, 81, 84
7, 438800, Control_c, 1, 11, 112
7, 439179, Note_on_c, 1, 81, 0
7, 439198, Control_c, 1, 11, 127
7, 439200, Note_on_c, 1, 77, 84
7, 439200, Note_on_c, 1, 81, 84
7, 439280, Control_c, 1, 11, 112
7, 439659, Note_on_c, 1, 77, 0
7, 439659, Note_on_c, 1, 81, 0
7, 439678, Control_c, 1, 11, 127
7, 440640, Note_on_c, 1, 81, 52
7, 440640, Note_on_c, 1, 77, 52
7, 441599, Note_on_c, 1, 81, 0
7, 441599, Note_on_c, 1, 77, 0
7, 446400, Note_on_c, 1, 81, 52
7, 446400, Note_on_c, 1, 77, 52
7, 447359, Note_on_c, 1, 81, 0
7, 447359, Note_on_c, 1, 77, 0
7, 447840, Note_on_c, 1, 81, 52
7, 447840, Note_on_c, 1, 77, 52
7, 448299, Note_on_c, 1, 81, 0
7, 448299, Note_on_c, 1, 77, 0
7, 448320, Note_on_c, 1, 65, 52
7, 448320, Note_on_c, 1, 69, 52
7, 448799, Note_on_c, 1, 65, 0
7, 448799, Note_on_c, 1, 69, 0
7, 450240, Note_on_c, 1, 69, 52
7, 450240, Note_on_c, 1, 65, 52
7, 450699, Note_on_c, 1, 69, 0
7, 450699, Note_on_c, 1, 65, 0
7, 450720, Note_on_c, 1, 81, 52
7, 450720, Note_on_c, 1, 77, 52
7, 451199, Note_on_c, 1, 81, 0
7, 451199, Note_on_c, 1, 77, 0
7, 458640, Control_c, 1, 11, 80
7, 458880, Note_on_c, 1, 82, 76
7, 458880, Note_on_c, 1, 76, 76
7, 458880, Control_c, 1, 11, 80
7, 459040, Control_c, 1, 11, 84
7, 459200, Control_c, 1, 11, 88
7, 459360, Control_c, 1, 11, 92
7, 459520, Control_c, 1, 11, 96
7, 459680, Control_c, 1, 11, 100
7, 459840, Control_c, 1, 11, 104
7, 460000, Control_c, 1, 11, 107
7, 460160, Control_c, 1, 11, 111
7, 460320, Control_c, 1, 11, 115
7, 460480, Control_c, 1, 11, 119
7, 460640, Control_c, 1, 11, 127
7, 460779, Note_on_c, 1, 82, 0
7, 460779, Note_on_c, 1, 76, 0
7, 460800, Note_on_c, 1, 77, 76
7, 460800, Note_on_c, 1, 81, 76
7, 460944, Note_on_c, 1, 77, 0
7, 460944, Note_on_c, 1, 81, 0
7, 460960, Note_on_c, 1, 69, 76
7, 460960, Note_on_c, 1, 77, 76
7, 461104, Note_on_c, 1, 69, 0
7, 461104, Note_on_c, 1, 77, 0
7, 461120, Note_on_c, 1, 69, 76
7, 461120, Note_on_c, 1, 77, 76
7, 461264, Note_on_c, 1, 69, 0
7, 461264, Note_on_c, 1, 77, 0
7, 461280, Note_on_c, 1, 77, 76
7, 461280, Note_on_c, 1, 69, 76
7, 461424, Note_on_c, 1, 77, 0
7, 461424, Note_on_c, 1, 69, 0
7, 461440, Note_on_c, 1, 69, 76
7, 461440, Note_on_c, 1, 77, 76
7, 461584, Note_on_c, 1, 69, 0
7, 461584, Note_on_c, 1, 77, 0
7, 461600, Note_on_c, 1, 77, 76
7, 461600, Note_on_c, 1, 69, 76
7, 461744, Note_on_c, 1, 77, 0
7, 461744, Note_on_c, 1, 69, 0
7, 461760, Note_on_c, 1, 77, 76
7, 461760, Note_on_c, 1, 69, 76
7, 461904, Note_on_c, 1, 77, 0
7, 461904, Note_on_c, 1, 69, 0
7, 461920, Note_on_c, 1, 69, 76
7, 461920, Note_on_c, 1, 77, 76
7, 462064, Note_on_c, 1, 69, 0
7, 462064, Note_on_c, 1, 77, 0
7, 462080, Note_on_c, 1, 77, 76
7, 462080, Note_on_c, 1, 69, 76
7, 462224, Note_on_c, 1, 77, 0
7, 462224, Note_on_c, 1, 69, 0
7, 462240, Note_on_c, 1, 69, 76
7, 462240, Note_on_c, 1, 77, 76
7, 462384, Note_on_c, 1, 69, 0
7, 462384, Note_on_c, 1, 77, 0
7, 462400, Note_on_c, 1, 69, 76
7, 462400, Note_on_c, 1, 77, 76
7, 462544, Note_on_c, 1, 69, 0
7, 462544, Note_on_c, 1, 77, 0
7, 462560, Note_on_c, 1, 69, 76
7, 462560, Note_on_c, 1, 77, 76
7, 462704, Note_on_c, 1, 69, 0
7, 462704, Note_on_c, 1, 77, 0
7, 462720, Note_on_c, 1, 69, 76
7, 462720, Note_on_c, 1, 77, 76
7, 462959, Note_on_c, 1, 69, 0
7, 462959, Note_on_c, 1, 77, 0
7, 463680, Note_on_c, 1, 79, 76
7, 463680, Note_on_c, 1, 76, 76
7, 463919, Note_on_c, 1, 79, 0
7, 463919, Note_on_c, 1, 76, 0
7, 464640, Note_on_c, 1, 77, 76
7, 464640, Note_on_c, 1, 69, 76
7, 464879, Note_on_c, 1, 77, 0
7, 464879, Note_on_c, 1, 69, 0
7, 465600, Note_on_c, 1, 79, 76
7, 465600, Note_on_c, 1, 76, 76
7, 465839, Note_on_c, 1, 79, 0
7, 465839, Note_on_c, 1, 76, 0
7, 466560, Note_on_c, 1, 77, 76
7, 466560, Note_on_c, 1, 69, 76
7, 466799, Note_on_c, 1, 77, 0
7, 466799, Note_on_c, 1, 69, 0
7, 467040, Note_on_c, 1, 79, 76
7, 467040, Note_on_c, 1, 76, 76
7, 467279, Note_on_c, 1, 79, 0
7, 467279, Note_on_c, 1, 76, 0
7, 467520, Note_on_c, 1, 69, 76
7, 467520, Note_on_c, 1, 77, 76
7, 467759, Note_on_c, 1, 69, 0
7, 467759, Note_on_c, 1, 77, 0
7, 468000, Note_on_c, 1, 79, 76
7, 468000, Note_on_c, 1, 76, 76
7, 468239, Note_on_c, 1, 79, 0
7, 468239, Note_on_c, 1, 76, 0
7, 468480, Note_on_c, 1, 69, 76
7, 468480, Note_on_c, 1, 77, 76
7, 468719, Note_on_c, 1, 69, 0
7, 468719, Note_on_c, 1, 77, 0
7, 468960, Note_on_c, 1, 76, 76
7, 468960, Note_on_c, 1, 79, 76
7, 469199, Note_on_c, 1, 76, 0
7, 469199, Note_on_c, 1, 79, 0
7, 469440, Note_on_c, 1, 69, 76
7, 469440, Note_on_c, 1, 77, 76
7, 469679, Note_on_c, 1, 69, 0
7, 469679, Note_on_c, 1, 77, 0
7, 469920, Note_on_c, 1, 76, 76
7, 469920, Note_on_c, 1, 79, 76
7, 470159, Note_on_c, 1, 76, 0
7, 470159, Note_on_c, 1, 79, 0
7, 470400, Note_on_c, 1, 77, 84
7, 470400, Note_on_c, 1, 81, 84
7, 470544, Note_on_c, 1, 77, 0
7, 470544, Note_on_c, 1, 81, 0
7, 470560, Note_on_c, 1, 81, 84
7, 470560, Note_on_c, 1, 77, 84
7, 470704, Note_on_c, 1, 81, 0
7, 470704, Note_on_c, 1, 77, 0
7, 470720, Note_on_c, 1, 77, 84
7, 470720, Note_on_c, 1, 81, 84
7, 470864, Note_on_c, 1, 77, 0
7, 470864, Note_on_c, 1, 81, 0
7, 470880, Note_on_c, 1, 81, 84
7, 470880, Note_on_c, 1, 77, 84
7, 471024, Note_on_c, 1, 81, 0
7, 471024, Note_on_c, 1, 77, 0
7, 471040, Note_on_c, 1, 77, 84
7, 471040, Note_on_c, 1, 81, 84
7, 471184, Note_on_c, 1, 77, 0
7, 471184, Note_on_c, 1, 81, 0
7, 471200, Note_on_c, 1, 77, 84
7, 471200, Note_on_c, 1, 81, 84
7, 471344, Note_on_c, 1, 77, 0
7, 471344, Note_on_c, 1, 81, 0
7, 471360, Note_on_c, 1, 81, 84
7, 471360, Note_on_c, 1, 77, 84
7, 471504, Note_on_c, 1, 81, 0
7, 471504, Note_on_c, 1, 77, 0
7, 471520, Note_on_c, 1, 81, 84
7, 471520, Note_on_c, 1, 77, 84
7, 471664, Note_on_c, 1, 81, 0
7, 471664, Note_on_c, 1, 77, 0
7, 471680, Note_on_c, 1, 77, 84
7, 471680, Note_on_c, 1, 81, 84
7, 471824, Note_on_c, 1, 77, 0
7, 471824, Note_on_c, 1, 81, 0
7, 471840, Note_on_c, 1, 81, 84
7, 471840, Note_on_c, 1, 77, 84
7, 471984, Note_on_c, 1, 81, 0
7, 471984, Note_on_c, 1, 77, 0
7, 472000, Note_on_c, 1, 81, 84
7, 472000, Note_on_c, 1, 77, 84
7, 472144, Note_on_c, 1, 81, 0
7, 472144, Note_on_c, 1, 77, 0
7, 472160, Note_on_c, 1, 77, 84
7, 472160, Note_on_c, 1, 81, 84
7, 472304, Note_on_c, 1, 77, 0
7, 472304, Note_on_c, 1, 81, 0
7, 472320, Note_on_c, 1, 77, 84
7, 472320, Note_on_c, 1, 81, 84
7, 472559, Note_on_c, 1, 77, 0
7, 472559, Note_on_c, 1, 81, 0
7, 473280, Note_on_c, 1, 81, 84
7, 473280, Note_on_c, 1, 77, 84
7, 473519, Note_on_c, 1, 81, 0
7, 473519, Note_on_c, 1, 77, 0
7, 474240, Note_on_c, 1, 77, 84
7, 474240, Note_on_c, 1, 81, 84
7, 474479, Note_on_c, 1, 77, 0
7, 474479, Note_on_c, 1, 81, 0
7, 475200, Note_on_c, 1, 81, 84
7, 475200, Note_on_c, 1, 77, 84
7, 475439, Note_on_c, 1, 81, 0
7, 475439, Note_on_c, 1, 77, 0
7, 476160, Note_on_c, 1, 77, 84
7, 476160, Note_on_c, 1, 81, 84
7, 476399, Note_on_c, 1, 77, 0
7, 476399, Note_on_c, 1, 81, 0
7, 476640, Note_on_c, 1, 81, 84
7, 476640, Note_on_c, 1, 77, 84
7, 476879, Note_on_c, 1, 81, 0
7, 476879, Note_on_c, 1, 77, 0
7, 477120, Note_on_c, 1, 77, 84
7, 477120, Note_on_c, 1, 81, 84
7, 477359, Note_on_c, 1, 77, 0
7, 477359, Note_on_c, 1, 81, 0
7, 477600, Note_on_c, 1, 77, 84
7, 477600, Note_on_c, 1, 81, 84
7, 477839, Note_on_c, 1, 77, 0
7, 477839, Note_on_c, 1, 81, 0
7, 478080, Note_on_c, 1, 77, 84
7, 478080, Note_on_c, 1, 81, 84
7, 478319, Note_on_c, 1, 77, 0
7, 478319, Note_on_c, 1, 81, 0
7, 478560, Note_on_c, 1, 77, 84
7, 478560, Note_on_c, 1, 81, 84
7, 478799, Note_on_c, 1, 77, 0
7, 478799, Note_on_c, 1, 81, 0
7, 479040, Note_on_c, 1, 81, 84
7, 479040, Note_on_c, 1, 77, 84
7, 479279, Note_on_c, 1, 81, 0
7, 479279, Note_on_c, 1, 77, 0
7, 479520, Note_on_c, 1, 81, 84
7, 479520, Note_on_c, 1, 77, 84
7, 479759, Note_on_c, 1, 81, 0
7, 479759, Note_on_c, 1, 77, 0
7, 480000, Note_on_c, 1, 81, 84
7, 480000, Note_on_c, 1, 77, 84
7, 480239, Note_on_c, 1, 81, 0
7, 480239, Note_on_c, 1, 77, 0
7, 480960, Note_on_c, 1, 77, 84
7, 480960, Note_on_c, 1, 81, 84
7, 481199, Note_on_c, 1, 77, 0
7, 481199, Note_on_c, 1, 81, 0
7, 481920, Note_on_c, 1, 77, 84
7, 482159, Note_on_c, 1, 77, 0
7, 482159, End_track
8, 0, Start_track
8, 0, Title_t, "Clarinet in B-flat"
8, 0, MIDI_port, 0
8, 0, Program_c, 2, 71
8, 0, Control_c, 2, 7, 88
8, 0, Control_c, 2, 10, 75
8, 0, Control_c, 2, 11, 127
8, 16800, Note_on_c, 2, 73, 84
8, 17739, Note_on_c, 2, 73, 0
8, 17760, Note_on_c, 2, 69, 84
8, 17760, Note_on_c, 2, 77, 84
8, 17904, Note_on_c, 2, 69, 0
8, 17904, Note_on_c, 2, 77, 0
8, 17920, Note_on_c, 2, 69, 84
8, 17920, Note_on_c, 2, 77, 84
8, 18064, Note_on_c, 2, 69, 0
8, 18064, Note_on_c, 2, 77, 0
8, 18080, Note_on_c, 2, 69, 84
8, 18080, Note_on_c, 2, 77, 84
8, 18224, Note_on_c, 2, 69, 0
8, 18224, Note_on_c, 2, 77, 0
8, 18240, Note_on_c, 2, 77, 84
8, 18240, Note_on_c, 2, 69, 84
8, 18359, Note_on_c, 2, 77, 0
8, 18359, Note_on_c, 2, 69, 0
8, 18360, Note_on_c, 2, 70, 84
8, 18360, Note_on_c, 2, 79, 84
8, 18459, Note_on_c, 2, 70, 0
8, 18459, Note_on_c, 2, 79, 0
8, 18480, Note_on_c, 2, 67, 84
8, 18480, Note_on_c, 2, 76, 84
8, 18639, Note_on_c, 2, 67, 0
8, 18639, Note_on_c, 2, 76, 0
8, 18720, Note_on_c, 2, 69, 84
8, 18720, Note_on_c, 2, 77, 84
8, 18839, Note_on_c, 2, 69, 0
8, 18839, Note_on_c, 2, 77, 0
8, 18840, Note_on_c, 2, 70, 84
8, 18840, Note_on_c, 2, 79, 84
8, 18939, Note_on_c, 2, 70, 0
8, 18939, Note_on_c, 2, 79, 0
8, 18960, Note_on_c, 2, 76, 84
8, 18960, Note_on_c, 2, 67, 84
8, 19119, Note_on_c, 2, 76, 0
8, 19119, Note_on_c, 2, 67, 0
8, 19200, Note_on_c, 2, 69, 84
8, 19200, Note_on_c, 2, 77, 84
8, 19319, Note_on_c, 2, 69, 0
8, 19319, Note_on_c, 2, 77, 0
8, 19320, Note_on_c, 2, 70, 84
8, 19320, Note_on_c, 2, 79, 84
8, 19419, Note_on_c, 2, 70, 0
8, 19419, Note_on_c, 2, 79, 0
8, 19440, Note_on_c, 2, 76, 84
8, 19440, Note_on_c, 2, 67, 84
8, 19599, Note_on_c, 2, 76, 0
8, 19599, Note_on_c, 2, 67, 0
8, 19680, Note_on_c, 2, 79, 84
8, 19680, Note_on_c, 2, 70, 84
8, 19824, Note_on_c, 2, 79, 0
8, 19824, Note_on_c, 2, 70, 0
8, 19840, Note_on_c, 2, 79, 84
8, 19840, Note_on_c, 2, 70, 84
8, 19984, Note_on_c, 2, 79, 0
8, 19984, Note_on_c, 2, 70, 0
8, 20000, Note_on_c, 2, 70, 84
8, 20000, Note_on_c, 2, 79, 84
8, 20144, Note_on_c, 2, 70, 0
8, 20144, Note_on_c, 2, 79, 0
8, 20160, Note_on_c, 2, 79, 84
8, 20160, Note_on_c, 2, 70, 84
8, 20279, Note_on_c, 2, 79, 0
8, 20279, Note_on_c, 2, 70, 0
8, 20280, Note_on_c, 2, 72, 84
8, 20280, Note_on_c, 2, 81, 84
8, 20379, Note_on_c, 2, 72, 0
8, 20379, Note_on_c, 2, 81, 0
8, 20400, Note_on_c, 2, 77, 84
8, 20400, Note_on_c, 2, 69, 84
8, 20559, Note_on_c, 2, 77, 0
8, 20559, Note_on_c, 2, 69, 0
8, 20640, Note_on_c, 2, 79, 84
8, 20640, Note_on_c, 2, 70, 84
8, 20759, Note_on_c, 2, 79, 0
8, 20759, Note_on_c, 2, 70, 0
8, 20760, Note_on_c, 2, 81, 84
8, 20760, Note_on_c, 2, 72, 84
8, 20859, Note_on_c, 2, 81, 0
8, 20859, Note_on_c, 2, 72, 0
8, 20880, Note_on_c, 2, 69, 84
8, 20880, Note_on_c, 2, 77, 84
8, 21039, Note_on_c, 2, 69, 0
8, 21039, Note_on_c, 2, 77, 0
8, 21120, Note_on_c, 2, 79, 84
8, 21120, Note_on_c, 2, 70, 84
8, 21239, Note_on_c, 2, 79, 0
8, 21239, Note_on_c, 2, 70, 0
8, 21240, Note_on_c, 2, 72, 84
8, 21240, Note_on_c, 2, 81, 84
8, 21339, Note_on_c, 2, 72, 0
8, 21339, Note_on_c, 2, 81, 0
8, 21360, Note_on_c, 2, 69, 84
8, 21360, Note_on_c, 2, 77, 84
8, 21519, Note_on_c, 2, 69, 0
8, 21519, Note_on_c, 2, 77, 0
8, 21600, Note_on_c, 2, 69, 84
8, 21600, Note_on_c, 2, 77, 84
8, 21839, Note_on_c, 2, 69, 0
8, 21839, Note_on_c, 2, 77, 0
8, 21960, Note_on_c, 2, 76, 84
8, 21960, Note_on_c, 2, 72, 84
8, 22059, Note_on_c, 2, 76, 0
8, 22059, Note_on_c, 2, 72, 0
8, 22080, Note_on_c, 2, 76, 84
8, 22080, Note_on_c, 2, 72, 84
8, 22319, Note_on_c, 2, 76, 0
8, 22319, Note_on_c, 2, 72, 0
8, 22320, Note_on_c, 2, 74, 84
8, 22320, Note_on_c, 2, 70, 84
8, 22559, Note_on_c, 2, 74, 0
8, 22559, Note_on_c, 2, 70, 0
8, 22560, Note_on_c, 2, 66, 84
8, 22560, Note_on_c, 2, 74, 84
8, 22719, Note_on_c, 2, 66, 0
8, 22719, Note_on_c, 2, 74, 0
8, 22920, Note_on_c, 2, 69, 84
8, 22920, Note_on_c, 2, 72, 84
8, 23019, Note_on_c, 2, 69, 0
8, 23019, Note_on_c, 2, 72, 0
8, 23040, Note_on_c, 2, 69, 84
8, 23040, Note_on_c, 2, 72, 84
8, 23279, Note_on_c, 2, 69, 0
8, 23279, Note_on_c, 2, 72, 0
8, 23280, Note_on_c, 2, 67, 84
8, 23280, Note_on_c, 2, 70, 84
8, 23499, Note_on_c, 2, 67, 0
8, 23499, Note_on_c, 2, 70, 0
8, 23520, Note_on_c, 2, 70, 84
8, 23679, Note_on_c, 2, 70, 0
8, 23760, Note_on_c, 2, 69, 84
8, 23919, Note_on_c, 2, 69, 0
8, 24000, Note_on_c, 2, 67, 84
8, 24159, Note_on_c, 2, 67, 0
8, 24240, Note_on_c, 2, 66, 84
8, 24399, Note_on_c, 2, 66, 0
8, 24480, Note_on_c, 2, 67, 84
8, 24639, Note_on_c, 2, 67, 0
8, 24720, Note_on_c, 2, 69, 84
8, 24879, Note_on_c, 2, 69, 0
8, 24960, Note_on_c, 2, 70, 84
8, 25119, Note_on_c, 2, 70, 0
8, 25200, Note_on_c, 2, 67, 84
8, 25359, Note_on_c, 2, 67, 0
8, 25440, Note_on_c, 2, 69, 84
8, 25599, Note_on_c, 2, 69, 0
8, 25680, Note_on_c, 2, 65, 84
8, 25680, Note_on_c, 2, 69, 84
8, 25839, Note_on_c, 2, 65, 0
8, 25839, Note_on_c, 2, 69, 0
8, 25920, Note_on_c, 2, 70, 84
8, 25920, Note_on_c, 2, 74, 84
8, 26079, Note_on_c, 2, 70, 0
8, 26079, Note_on_c, 2, 74, 0
8, 26160, Note_on_c, 2, 70, 84
8, 26160, Note_on_c, 2, 79, 84
8, 26319, Note_on_c, 2, 70, 0
8, 26319, Note_on_c, 2, 79, 0
8, 26400, Note_on_c, 2, 76, 84
8, 26400, Note_on_c, 2, 67, 84
8, 26559, Note_on_c, 2, 76, 0
8, 26559, Note_on_c, 2, 67, 0
8, 26640, Note_on_c, 2, 67, 84
8, 26640, Note_on_c, 2, 76, 84
8, 26799, Note_on_c, 2, 67, 0
8, 26799, Note_on_c, 2, 76, 0
8, 26880, Note_on_c, 2, 69, 84
8, 26880, Note_on_c, 2, 77, 84
8, 27119, Note_on_c, 2, 69, 0
8, 27119, Note_on_c, 2, 77, 0
8, 27840, Note_on_c, 2, 77, 84
8, 27840, Note_on_c, 2, 69, 84
8, 28079, Note_on_c, 2, 77, 0
8, 28079, Note_on_c, 2, 69, 0
8, 28800, Note_on_c, 2, 79, 84
8, 28800, Note_on_c, 2, 76, 84
8, 29039, Note_on_c, 2, 79, 0
8, 29039, Note_on_c, 2, 76, 0
8, 29760, Note_on_c, 2, 79, 84
8, 29760, Note_on_c, 2, 76, 84
8, 29999, Note_on_c, 2, 79, 0
8, 29999, Note_on_c, 2, 76, 0
8, 30720, Note_on_c, 2, 81, 84
8, 30720, Note_on_c, 2, 77, 84
8, 30959, Note_on_c, 2, 81, 0
8, 30959, Note_on_c, 2, 77, 0
8, 31200, Note_on_c, 2, 77, 84
8, 31359, Note_on_c, 2, 77, 0
8, 31440, Note_on_c, 2, 72, 84
8, 31599, Note_on_c, 2, 72, 0
8, 31680, Note_on_c, 2, 72, 84
8, 31839, Note_on_c, 2, 72, 0
8, 31920, Note_on_c, 2, 69, 84
8, 32079, Note_on_c, 2, 69, 0
8, 32160, Note_on_c, 2, 69, 84
8, 32319, Note_on_c, 2, 69, 0
8, 32400, Note_on_c, 2, 65, 84
8, 32559, Note_on_c, 2, 65, 0
8, 32640, Note_on_c, 2, 60, 84
8, 32799, Note_on_c, 2, 60, 0
8, 33120, Note_on_c, 2, 82, 84
8, 33120, Note_on_c, 2, 70, 84
8, 33279, Note_on_c, 2, 82, 0
8, 33279, Note_on_c, 2, 70, 0
8, 33360, Note_on_c, 2, 67, 84
8, 33360, Note_on_c, 2, 79, 84
8, 33519, Note_on_c, 2, 67, 0
8, 33519, Note_on_c, 2, 79, 0
8, 33600, Note_on_c, 2, 79, 84
8, 33600, Note_on_c, 2, 67, 84
8, 33759, Note_on_c, 2, 79, 0
8, 33759, Note_on_c, 2, 67, 0
8, 33840, Note_on_c, 2, 64, 84
8, 33840, Note_on_c, 2, 76, 84
8, 33999, Note_on_c, 2, 64, 0
8, 33999, Note_on_c, 2, 76, 0
8, 34080, Note_on_c, 2, 76, 84
8, 34080, Note_on_c, 2, 64, 84
8, 34239, Note_on_c, 2, 76, 0
8, 34239, Note_on_c, 2, 64, 0
8, 34320, Note_on_c, 2, 60, 84
8, 34320, Note_on_c, 2, 72, 84
8, 34479, Note_on_c, 2, 60, 0
8, 34479, Note_on_c, 2, 72, 0
8, 34560, Note_on_c, 2, 65, 84
8, 34560, Note_on_c, 2, 77, 84
8, 34719, Note_on_c, 2, 65, 0
8, 34719, Note_on_c, 2, 77, 0
8, 35520, Note_on_c, 2, 72, 84
8, 35759, Note_on_c, 2, 72, 0
8, 36480, Note_on_c, 2, 71, 84
8, 36480, Note_on_c, 2, 74, 84
8, 36719, Note_on_c, 2, 71, 0
8, 36719, Note_on_c, 2, 74, 0
8, 37440, Note_on_c, 2, 71, 84
8, 37440, Note_on_c, 2, 74, 84
8, 37679, Note_on_c, 2, 71, 0
8, 37679, Note_on_c, 2, 74, 0
8, 38400, Note_on_c, 2, 76, 84
8, 38400, Note_on_c, 2, 72, 84
8, 38639, Note_on_c, 2, 76, 0
8, 38639, Note_on_c, 2, 72, 0
8, 38880, Note_on_c, 2, 84, 84
8, 38880, Note_on_c, 2, 72, 84
8, 39039, Note_on_c, 2, 84, 0
8, 39039, Note_on_c, 2, 72, 0
8, 39120, Note_on_c, 2, 79, 84
8, 39120, Note_on_c, 2, 67, 84
8, 39279, Note_on_c, 2, 79, 0
8, 39279, Note_on_c, 2, 67, 0
8, 39360, Note_on_c, 2, 79, 84
8, 39360, Note_on_c, 2, 67, 84
8, 39519, Note_on_c, 2, 79, 0
8, 39519, Note_on_c, 2, 67, 0
8, 39600, Note_on_c, 2, 64, 84
8, 39600, Note_on_c, 2, 76, 84
8, 39759, Note_on_c, 2, 64, 0
8, 39759, Note_on_c, 2, 76, 0
8, 39840, Note_on_c, 2, 76, 84
8, 39840, Note_on_c, 2, 64, 84
8, 39999, Note_on_c, 2, 76, 0
8, 39999, Note_on_c, 2, 64, 0
8, 40080, Note_on_c, 2, 60, 84
8, 40080, Note_on_c, 2, 72, 84
8, 40239, Note_on_c, 2, 60, 0
8, 40239, Note_on_c, 2, 72, 0
8, 40320, Note_on_c, 2, 67, 84
8, 40479, Note_on_c, 2, 67, 0
8, 40800, Note_on_c, 2, 74, 92
8, 40800, Note_on_c, 2, 77, 92
8, 40959, Note_on_c, 2, 74, 0
8, 40959, Note_on_c, 2, 77, 0
8, 41040, Note_on_c, 2, 74, 84
8, 41040, Note_on_c, 2, 71, 84
8, 41199, Note_on_c, 2, 74, 0
8, 41199, Note_on_c, 2, 71, 0
8, 41280, Note_on_c, 2, 71, 92
8, 41280, Note_on_c, 2, 74, 92
8, 41439, Note_on_c, 2, 71, 0
8, 41439, Note_on_c, 2, 74, 0
8, 41520, Note_on_c, 2, 71, 84
8, 41520, Note_on_c, 2, 67, 84
8, 41679, Note_on_c, 2, 71, 0
8, 41679, Note_on_c, 2, 67, 0
8, 42720, Note_on_c, 2, 74, 84
8, 42720, Note_on_c, 2, 77, 84
8, 42879, Note_on_c, 2, 74, 0
8, 42879, Note_on_c, 2, 77, 0
8, 42960, Note_on_c, 2, 71, 84
8, 42960, Note_on_c, 2, 74, 84
8, 43119, Note_on_c, 2, 71, 0
8, 43119, Note_on_c, 2, 74, 0
8, 43200, Note_on_c, 2, 71, 84
8, 43200, Note_on_c, 2, 74, 84
8, 43359, Note_on_c, 2, 71, 0
8, 43359, Note_on_c, 2, 74, 0
8, 43440, Note_on_c, 2, 67, 84
8, 43440, Note_on_c, 2, 71, 84
8, 43599, Note_on_c, 2, 67, 0
8, 43599, Note_on_c, 2, 71, 0
8, 44640, Note_on_c, 2, 74, 84
8, 44640, Note_on_c, 2, 77, 84
8, 44799, Note_on_c, 2, 74, 0
8, 44799, Note_on_c, 2, 77, 0
8, 44880, Note_on_c, 2, 74, 84
8, 44880, Note_on_c, 2, 71, 84
8, 45039, Note_on_c, 2, 74, 0
8, 45039, Note_on_c, 2, 71, 0
8, 45120, Note_on_c, 2, 74, 84
8, 45120, Note_on_c, 2, 71, 84
8, 45279, Note_on_c, 2, 74, 0
8, 45279, Note_on_c, 2, 71, 0
8, 45360, Note_on_c, 2, 67, 84
8, 45360, Note_on_c, 2, 71, 84
8, 45519, Note_on_c, 2, 67, 0
8, 45519, Note_on_c, 2, 71, 0
8, 45600, Note_on_c, 2, 79, 84
8, 45600, Note_on_c, 2, 67, 84
8, 45759, Note_on_c, 2, 79, 0
8, 45759, Note_on_c, 2, 67, 0
8, 45840, Note_on_c, 2, 55, 84
8, 45840, Note_on_c, 2, 67, 84
8, 45999, Note_on_c, 2, 55, 0
8, 45999, Note_on_c, 2, 67, 0
8, 46080, Note_on_c, 2, 68, 52
8, 47040, Note_on_c, 2, 72, 52
8, 47979, Note_on_c, 2, 68, 0
8, 47979, Note_on_c, 2, 72, 0
8, 48000, Note_on_c, 2, 67, 52
8, 48000, Note_on_c, 2, 70, 52
8, 48459, Note_on_c, 2, 67, 0
8, 48459, Note_on_c, 2, 70, 0
8, 48480, Note_on_c, 2, 73, 52
8, 48480, Note_on_c, 2, 70, 52
8, 48939, Note_on_c, 2, 73, 0
8, 48939, Note_on_c, 2, 70, 0
8, 48960, Note_on_c, 2, 73, 52
8, 48960, Note_on_c, 2, 70, 52
8, 49419, Note_on_c, 2, 73, 0
8, 49419, Note_on_c, 2, 70, 0
8, 49440, Note_on_c, 2, 73, 52
8, 49440, Note_on_c, 2, 70, 52
8, 49899, Note_on_c, 2, 73, 0
8, 49899, Note_on_c, 2, 70, 0
8, 49920, Note_on_c, 2, 72, 52
8, 49920, Note_on_c, 2, 68, 52
8, 51819, Note_on_c, 2, 72, 0
8, 51819, Note_on_c, 2, 68, 0
8, 51840, Note_on_c, 2, 70, 52
8, 51840, Note_on_c, 2, 67, 52
8, 52299, Note_on_c, 2, 70, 0
8, 52299, Note_on_c, 2, 67, 0
8, 52320, Note_on_c, 2, 70, 52
8, 52320, Note_on_c, 2, 73, 52
8, 52779, Note_on_c, 2, 70, 0
8, 52779, Note_on_c, 2, 73, 0
8, 52800, Note_on_c, 2, 70, 52
8, 52800, Note_on_c, 2, 73, 52
8, 53259, Note_on_c, 2, 70, 0
8, 53259, Note_on_c, 2, 73, 0
8, 53280, Note_on_c, 2, 73, 52
8, 53280, Note_on_c, 2, 70, 52
8, 53739, Note_on_c, 2, 73, 0
8, 53739, Note_on_c, 2, 70, 0
8, 53760, Note_on_c, 2, 72, 52
8, 53760, Note_on_c, 2, 68, 52
8, 53999, Note_on_c, 2, 72, 0
8, 53999, Note_on_c, 2, 68, 0
8, 54240, Note_on_c, 2, 72, 52
8, 54240, Note_on_c, 2, 68, 52
8, 54479, Note_on_c, 2, 72, 0
8, 54479, Note_on_c, 2, 68, 0
8, 55200, Note_on_c, 2, 69, 56
8, 55200, Note_on_c, 2, 72, 56
8, 55439, Note_on_c, 2, 69, 0
8, 55439, Note_on_c, 2, 72, 0
8, 56160, Note_on_c, 2, 74, 59
8, 56160, Note_on_c, 2, 71, 59
8, 56399, Note_on_c, 2, 74, 0
8, 56399, Note_on_c, 2, 71, 0
8, 57120, Note_on_c, 2, 74, 62
8, 57120, Note_on_c, 2, 71, 62
8, 57359, Note_on_c, 2, 74, 0
8, 57359, Note_on_c, 2, 71, 0
8, 60720, Control_c, 2, 11, 96
8, 60960, Control_c, 2, 11, 96
8, 60960, Note_on_c, 2, 71, 68
8, 61020, Control_c, 2, 11, 99
8, 61080, Control_c, 2, 11, 101
8, 61140, Control_c, 2, 11, 104
8, 61200, Control_c, 2, 11, 106
8, 61260, Control_c, 2, 11, 109
8, 61320, Control_c, 2, 11, 112
8, 61380, Control_c, 2, 11, 114
8, 61439, Note_on_c, 2, 71, 0
8, 61440, Note_on_c, 2, 72, 68
8, 61440, Control_c, 2, 11, 117
8, 61500, Control_c, 2, 11, 119
8, 61560, Control_c, 2, 11, 122
8, 61620, Control_c, 2, 11, 124
8, 61680, Control_c, 2, 11, 127
8, 61740, Control_c, 2, 11, 124
8, 61800, Control_c, 2, 11, 122
8, 61860, Control_c, 2, 11, 119
8, 61920, Control_c, 2, 11, 117
8, 61980, Control_c, 2, 11, 114
8, 62040, Control_c, 2, 11, 112
8, 62100, Control_c, 2, 11, 109
8, 62159, Note_on_c, 2, 72, 0
8, 62160, Note_on_c, 2, 74, 68
8, 62160, Control_c, 2, 11, 106
8, 62220, Control_c, 2, 11, 104
8, 62279, Note_on_c, 2, 74, 0
8, 62280, Control_c, 2, 11, 101
8, 62280, Note_on_c, 2, 76, 68
8, 62340, Control_c, 2, 11, 99
8, 62399, Note_on_c, 2, 76, 0
8, 62400, Note_on_c, 2, 67, 68
8, 62400, Control_c, 2, 11, 96
8, 62639, Note_on_c, 2, 67, 0
8, 64320, Control_c, 2, 11, 112
8, 64800, Control_c, 2, 11, 112
8, 64800, Note_on_c, 2, 71, 60
8, 64840, Control_c, 2, 11, 113
8, 64880, Control_c, 2, 11, 115
8, 64920, Control_c, 2, 11, 116
8, 64960, Control_c, 2, 11, 117
8, 65000, Control_c, 2, 11, 118
8, 65040, Control_c, 2, 11, 120
8, 65080, Control_c, 2, 11, 121
8, 65120, Control_c, 2, 11, 122
8, 65160, Control_c, 2, 11, 123
8, 65200, Control_c, 2, 11, 125
8, 65240, Control_c, 2, 11, 127
8, 65279, Note_on_c, 2, 71, 0
8, 65280, Note_on_c, 2, 72, 44
8, 65519, Note_on_c, 2, 72, 0
8, 68880, Note_on_c, 2, 67, 44
8, 68999, Note_on_c, 2, 67, 0
8, 69000, Note_on_c, 2, 69, 44
8, 69119, Note_on_c, 2, 69, 0
8, 69120, Note_on_c, 2, 71, 44
8, 69279, Note_on_c, 2, 71, 0
8, 69360, Note_on_c, 2, 71, 44
8, 69519, Note_on_c, 2, 71, 0
8, 69600, Note_on_c, 2, 71, 44
8, 69759, Note_on_c, 2, 71, 0
8, 69840, Note_on_c, 2, 72, 44
8, 69999, Note_on_c, 2, 72, 0
8, 70080, Note_on_c, 2, 69, 44
8, 70239, Note_on_c, 2, 69, 0
8, 70320, Note_on_c, 2, 69, 44
8, 70479, Note_on_c, 2, 69, 0
8, 70560, Note_on_c, 2, 69, 44
8, 70719, Note_on_c, 2, 69, 0
8, 70800, Note_on_c, 2, 71, 44
8, 70959, Note_on_c, 2, 71, 0
8, 71040, Note_on_c, 2, 67, 44
8, 71199, Note_on_c, 2, 67, 0
8, 71280, Note_on_c, 2, 67, 44
8, 71439, Note_on_c, 2, 67, 0
8, 71520, Note_on_c, 2, 67, 44
8, 71679, Note_on_c, 2, 67, 0
8, 71760, Note_on_c, 2, 69, 44
8, 71919, Note_on_c, 2, 69, 0
8, 72000, Note_on_c, 2, 65, 44
8, 72159, Note_on_c, 2, 65, 0
8, 72240, Note_on_c, 2, 65, 44
8, 72399, Note_on_c, 2, 65, 0
8, 72480, Note_on_c, 2, 65, 44
8, 72639, Note_on_c, 2, 65, 0
8, 72720, Note_on_c, 2, 67, 44
8, 72879, Note_on_c, 2, 67, 0
8, 72960, Note_on_c, 2, 64, 76
8, 73179, Note_on_c, 2, 64, 0
8, 73200, Note_on_c, 2, 76, 76
8, 73200, Note_on_c, 2, 72, 76
8, 73439, Note_on_c, 2, 76, 0
8, 73439, Note_on_c, 2, 72, 0
8, 73680, Note_on_c, 2, 76, 76
8, 73680, Note_on_c, 2, 73, 76
8, 73899, Note_on_c, 2, 76, 0
8, 73899, Note_on_c, 2, 73, 0
8, 73920, Note_on_c, 2, 74, 76
8, 73920, Note_on_c, 2, 77, 76
8, 74139, Note_on_c, 2, 74, 0
8, 74139, Note_on_c, 2, 77, 0
8, 74160, Note_on_c, 2, 74, 76
8, 74160, Note_on_c, 2, 77, 76
8, 74399, Note_on_c, 2, 74, 0
8, 74399, Note_on_c, 2, 77, 0
8, 74640, Note_on_c, 2, 66, 76
8, 74640, Note_on_c, 2, 63, 76
8, 74859, Note_on_c, 2, 66, 0
8, 74859, Note_on_c, 2, 63, 0
8, 74880, Note_on_c, 2, 64, 76
8, 74880, Note_on_c, 2, 67, 76
8, 75099, Note_on_c, 2, 64, 0
8, 75099, Note_on_c, 2, 67, 0
8, 75120, Note_on_c, 2, 64, 76
8, 75120, Note_on_c, 2, 67, 76
8, 75359, Note_on_c, 2, 64, 0
8, 75359, Note_on_c, 2, 67, 0
8, 75600, Note_on_c, 2, 67, 76
8, 75600, Note_on_c, 2, 64, 76
8, 75819, Note_on_c, 2, 67, 0
8, 75819, Note_on_c, 2, 64, 0
8, 75840, Note_on_c, 2, 65, 76
8, 75840, Note_on_c, 2, 69, 76
8, 76059, Note_on_c, 2, 65, 0
8, 76059, Note_on_c, 2, 69, 0
8, 76080, Note_on_c, 2, 69, 76
8, 76080, Note_on_c, 2, 65, 76
8, 76319, Note_on_c, 2, 69, 0
8, 76319, Note_on_c, 2, 65, 0
8, 76560, Note_on_c, 2, 69, 76
8, 76560, Note_on_c, 2, 66, 76
8, 76779, Note_on_c, 2, 69, 0
8, 76779, Note_on_c, 2, 66, 0
8, 76800, Note_on_c, 2, 67, 76
8, 76800, Note_on_c, 2, 71, 76
8, 76959, Note_on_c, 2, 67, 0
8, 76959, Note_on_c, 2, 71, 0
8, 77040, Note_on_c, 2, 71, 76
8, 77040, Note_on_c, 2, 67, 76
8, 77199, Note_on_c, 2, 71, 0
8, 77199, Note_on_c, 2, 67, 0
8, 77280, Note_on_c, 2, 67, 76
8, 77280, Note_on_c, 2, 71, 76
8, 77439, Note_on_c, 2, 67, 0
8, 77439, Note_on_c, 2, 71, 0
8, 77520, Note_on_c, 2, 67, 76
8, 77520, Note_on_c, 2, 72, 76
8, 77679, Note_on_c, 2, 67, 0
8, 77679, Note_on_c, 2, 72, 0
8, 77760, Note_on_c, 2, 69, 76
8, 77760, Note_on_c, 2, 65, 76
8, 77919, Note_on_c, 2, 69, 0
8, 77919, Note_on_c, 2, 65, 0
8, 78000, Note_on_c, 2, 65, 76
8, 78000, Note_on_c, 2, 69, 76
8, 78159, Note_on_c, 2, 65, 0
8, 78159, Note_on_c, 2, 69, 0
8, 78240, Note_on_c, 2, 65, 76
8, 78240, Note_on_c, 2, 69, 76
8, 78399, Note_on_c, 2, 65, 0
8, 78399, Note_on_c, 2, 69, 0
8, 78480, Note_on_c, 2, 66, 76
8, 78480, Note_on_c, 2, 71, 76
8, 78639, Note_on_c, 2, 66, 0
8, 78639, Note_on_c, 2, 71, 0
8, 78720, Note_on_c, 2, 64, 76
8, 78720, Note_on_c, 2, 67, 76
8, 78879, Note_on_c, 2, 64, 0
8, 78879, Note_on_c, 2, 67, 0
8, 78960, Note_on_c, 2, 67, 76
8, 78960, Note_on_c, 2, 64, 76
8, 79119, Note_on_c, 2, 67, 0
8, 79119, Note_on_c, 2, 64, 0
8, 79200, Note_on_c, 2, 64, 76
8, 79200, Note_on_c, 2, 67, 76
8, 79359, Note_on_c, 2, 64, 0
8, 79359, Note_on_c, 2, 67, 0
8, 79440, Note_on_c, 2, 64, 76
8, 79440, Note_on_c, 2, 69, 76
8, 79599, Note_on_c, 2, 64, 0
8, 79599, Note_on_c, 2, 69, 0
8, 79680, Note_on_c, 2, 62, 76
8, 79680, Note_on_c, 2, 65, 76
8, 79839, Note_on_c, 2, 62, 0
8, 79839, Note_on_c, 2, 65, 0
8, 79920, Note_on_c, 2, 62, 76
8, 79920, Note_on_c, 2, 65, 76
8, 80079, Note_on_c, 2, 62, 0
8, 80079, Note_on_c, 2, 65, 0
8, 80160, Note_on_c, 2, 62, 76
8, 80160, Note_on_c, 2, 65, 76
8, 80319, Note_on_c, 2, 62, 0
8, 80319, Note_on_c, 2, 65, 0
8, 80400, Note_on_c, 2, 62, 76
8, 80400, Note_on_c, 2, 67, 76
8, 80559, Note_on_c, 2, 62, 0
8, 80559, Note_on_c, 2, 67, 0
8, 80640, Note_on_c, 2, 62, 80
8, 80640, Note_on_c, 2, 65, 80
8, 82539, Note_on_c, 2, 62, 0
8, 82539, Note_on_c, 2, 65, 0
8, 82560, Note_on_c, 2, 70, 80
8, 82560, Note_on_c, 2, 67, 80
8, 84459, Note_on_c, 2, 70, 0
8, 84459, Note_on_c, 2, 67, 0
8, 84480, Note_on_c, 2, 69, 84
8, 84480, Note_on_c, 2, 65, 84
8, 86379, Note_on_c, 2, 69, 0
8, 86379, Note_on_c, 2, 65, 0
8, 86400, Note_on_c, 2, 69, 84
8, 86400, Note_on_c, 2, 65, 84
8, 86639, Note_on_c, 2, 69, 0
8, 86639, Note_on_c, 2, 65, 0
8, 101280, Note_on_c, 2, 70, 76
8, 101280, Note_on_c, 2, 82, 76
8, 101439, Note_on_c, 2, 70, 0
8, 101439, Note_on_c, 2, 82, 0
8, 101520, Note_on_c, 2, 69, 76
8, 101520, Note_on_c, 2, 81, 76
8, 101679, Note_on_c, 2, 69, 0
8, 101679, Note_on_c, 2, 81, 0
8, 101760, Note_on_c, 2, 67, 76
8, 101760, Note_on_c, 2, 79, 76
8, 101919, Note_on_c, 2, 67, 0
8, 101919, Note_on_c, 2, 79, 0
8, 102000, Note_on_c, 2, 78, 76
8, 102000, Note_on_c, 2, 66, 76
8, 102159, Note_on_c, 2, 78, 0
8, 102159, Note_on_c, 2, 66, 0
8, 102240, Note_on_c, 2, 67, 76
8, 102240, Note_on_c, 2, 79, 76
8, 102399, Note_on_c, 2, 67, 0
8, 102399, Note_on_c, 2, 79, 0
8, 102480, Note_on_c, 2, 69, 76
8, 102480, Note_on_c, 2, 81, 76
8, 102639, Note_on_c, 2, 69, 0
8, 102639, Note_on_c, 2, 81, 0
8, 102720, Note_on_c, 2, 70, 76
8, 102720, Note_on_c, 2, 82, 76
8, 102959, Note_on_c, 2, 70, 0
8, 102959, Note_on_c, 2, 82, 0
8, 113280, Control_c, 2, 11, 64
8, 113760, Note_on_c, 2, 69, 76
8, 113999, Note_on_c, 2, 69, 0
8, 114120, Note_on_c, 2, 73, 76
8, 114219, Note_on_c, 2, 73, 0
8, 114240, Note_on_c, 2, 73, 76
8, 114479, Note_on_c, 2, 73, 0
8, 114480, Note_on_c, 2, 74, 76
8, 114699, Note_on_c, 2, 74, 0
8, 114720, Control_c, 2, 11, 64
8, 114720, Note_on_c, 2, 69, 76
8, 114760, Control_c, 2, 11, 69
8, 114800, Control_c, 2, 11, 75
8, 114840, Control_c, 2, 11, 80
8, 114879, Note_on_c, 2, 69, 0
8, 114880, Control_c, 2, 11, 85
8, 114920, Control_c, 2, 11, 90
8, 114960, Control_c, 2, 11, 96
8, 115000, Control_c, 2, 11, 101
8, 115040, Control_c, 2, 11, 106
8, 115080, Note_on_c, 2, 73, 76
8, 115080, Control_c, 2, 11, 111
8, 115120, Control_c, 2, 11, 117
8, 115160, Control_c, 2, 11, 122
8, 115179, Note_on_c, 2, 73, 0
8, 115200, Note_on_c, 2, 74, 76
8, 115200, Control_c, 2, 11, 127
8, 115439, Note_on_c, 2, 74, 0
8, 123360, Note_on_c, 2, 58, 84
8, 123480, Control_c, 2, 11, 112
8, 124799, Note_on_c, 2, 58, 0
8, 125040, Control_c, 2, 11, 127
8, 125280, Note_on_c, 2, 64, 84
8, 125400, Control_c, 2, 11, 112
8, 126719, Note_on_c, 2, 64, 0
8, 128880, Control_c, 2, 11, 127
8, 129120, Note_on_c, 2, 74, 84
8, 129240, Control_c, 2, 11, 112
8, 130559, Note_on_c, 2, 74, 0
8, 133680, Control_c, 2, 11, 127
8, 133920, Note_on_c, 2, 71, 84
8, 134040, Control_c, 2, 11, 112
8, 134399, Note_on_c, 2, 71, 0
8, 134640, Control_c, 2, 11, 127
8, 134880, Note_on_c, 2, 64, 84
8, 135000, Control_c, 2, 11, 112
8, 135359, Note_on_c, 2, 64, 0
8, 136560, Control_c, 2, 11, 127
8, 136800, Note_on_c, 2, 74, 84
8, 136920, Control_c, 2, 11, 112
8, 137279, Note_on_c, 2, 74, 0
8, 137520, Control_c, 2, 11, 127
8, 137760, Note_on_c, 2, 79, 84
8, 137880, Control_c, 2, 11, 112
8, 138239, Note_on_c, 2, 79, 0
8, 139320, Control_c, 2, 11, 127
8, 139440, Note_on_c, 2, 74, 76
8, 139599, Note_on_c, 2, 74, 0
8, 139680, Note_on_c, 2, 79, 76
8, 139839, Note_on_c, 2, 79, 0
8, 139920, Note_on_c, 2, 79, 76
8, 140079, Note_on_c, 2, 79, 0
8, 145440, Note_on_c, 2, 64, 84
8, 145440, Note_on_c, 2, 76, 84
8, 149279, Note_on_c, 2, 64, 0
8, 149279, Note_on_c, 2, 76, 0
8, 159840, Note_on_c, 2, 74, 44
8, 160079, Note_on_c, 2, 74, 0
8, 160200, Note_on_c, 2, 72, 44
8, 160299, Note_on_c, 2, 72, 0
8, 160320, Note_on_c, 2, 72, 44
8, 160559, Note_on_c, 2, 72, 0
8, 160560, Note_on_c, 2, 70, 44
8, 160779, Note_on_c, 2, 70, 0
8, 160800, Note_on_c, 2, 70, 44
8, 160959, Note_on_c, 2, 70, 0
8, 161040, Note_on_c, 2, 69, 44
8, 161199, Note_on_c, 2, 69, 0
8, 161280, Note_on_c, 2, 67, 44
8, 161439, Note_on_c, 2, 67, 0
8, 161520, Note_on_c, 2, 66, 44
8, 161679, Note_on_c, 2, 66, 0
8, 161760, Note_on_c, 2, 67, 44
8, 161919, Note_on_c, 2, 67, 0
8, 162000, Note_on_c, 2, 69, 44
8, 162159, Note_on_c, 2, 69, 0
8, 162240, Note_on_c, 2, 70, 44
8, 162399, Note_on_c, 2, 70, 0
8, 162480, Note_on_c, 2, 60, 44
8, 162480, Note_on_c, 2, 67, 44
8, 162639, Note_on_c, 2, 60, 0
8, 162639, Note_on_c, 2, 67, 0
8, 162720, Note_on_c, 2, 60, 44
8, 162720, Note_on_c, 2, 69, 44
8, 162879, Note_on_c, 2, 60, 0
8, 162879, Note_on_c, 2, 69, 0
8, 162960, Note_on_c, 2, 65, 44
8, 162960, Note_on_c, 2, 60, 44
8, 163119, Note_on_c, 2, 65, 0
8, 163119, Note_on_c, 2, 60, 0
8, 163200, Note_on_c, 2, 64, 44
8, 163200, Note_on_c, 2, 60, 44
8, 163359, Note_on_c, 2, 64, 0
8, 163359, Note_on_c, 2, 60, 0
8, 163440, Note_on_c, 2, 64, 44
8, 163440, Note_on_c, 2, 72, 44
8, 163599, Note_on_c, 2, 64, 0
8, 163599, Note_on_c, 2, 72, 0
8, 163680, Note_on_c, 2, 71, 44
8, 163680, Note_on_c, 2, 62, 44
8, 163839, Note_on_c, 2, 71, 0
8, 163839, Note_on_c, 2, 62, 0
8, 163920, Note_on_c, 2, 62, 44
8, 163920, Note_on_c, 2, 71, 44
8, 164079, Note_on_c, 2, 62, 0
8, 164079, Note_on_c, 2, 71, 0
8, 164160, Note_on_c, 2, 64, 44
8, 164160, Note_on_c, 2, 72, 44
8, 164319, Note_on_c, 2, 64, 0
8, 164319, Note_on_c, 2, 72, 0
8, 165600, Note_on_c, 2, 74, 44
8, 165600, Note_on_c, 2, 67, 44
8, 165744, Note_on_c, 2, 74, 0
8, 165744, Note_on_c, 2, 67, 0
8, 165760, Note_on_c, 2, 67, 44
8, 165760, Note_on_c, 2, 74, 44
8, 165904, Note_on_c, 2, 67, 0
8, 165904, Note_on_c, 2, 74, 0
8, 165920, Note_on_c, 2, 74, 44
8, 165920, Note_on_c, 2, 67, 44
8, 166064, Note_on_c, 2, 74, 0
8, 166064, Note_on_c, 2, 67, 0
8, 166080, Note_on_c, 2, 67, 44
8, 166080, Note_on_c, 2, 74, 44
8, 166239, Note_on_c, 2, 67, 0
8, 166239, Note_on_c, 2, 74, 0
8, 166240, Note_on_c, 2, 72, 44
8, 166240, Note_on_c, 2, 76, 44
8, 166384, Note_on_c, 2, 72, 0
8, 166384, Note_on_c, 2, 76, 0
8, 166400, Note_on_c, 2, 64, 44
8, 166400, Note_on_c, 2, 72, 44
8, 166519, Note_on_c, 2, 64, 0
8, 166519, Note_on_c, 2, 72, 0
8, 171360, Note_on_c, 2, 73, 84
8, 172299, Note_on_c, 2, 73, 0
8, 172320, Note_on_c, 2, 77, 84
8, 172320, Note_on_c, 2, 69, 84
8, 172464, Note_on_c, 2, 77, 0
8, 172464, Note_on_c, 2, 69, 0
8, 172480, Note_on_c, 2, 69, 84
8, 172480, Note_on_c, 2, 77, 84
8, 172624, Note_on_c, 2, 69, 0
8, 172624, Note_on_c, 2, 77, 0
8, 172640, Note_on_c, 2, 77, 84
8, 172640, Note_on_c, 2, 69, 84
8, 172784, Note_on_c, 2, 77, 0
8, 172784, Note_on_c, 2, 69, 0
8, 172800, Note_on_c, 2, 69, 84
8, 172800, Note_on_c, 2, 77, 84
8, 172919, Note_on_c, 2, 69, 0
8, 172919, Note_on_c, 2, 77, 0
8, 172920, Note_on_c, 2, 70, 84
8, 172920, Note_on_c, 2, 79, 84
8, 173019, Note_on_c, 2, 70, 0
8, 173019, Note_on_c, 2, 79, 0
8, 173040, Note_on_c, 2, 76, 84
8, 173040, Note_on_c, 2, 67, 84
8, 173199, Note_on_c, 2, 76, 0
8, 173199, Note_on_c, 2, 67, 0
8, 173280, Note_on_c, 2, 77, 84
8, 173280, Note_on_c, 2, 69, 84
8, 173399, Note_on_c, 2, 77, 0
8, 173399, Note_on_c, 2, 69, 0
8, 173400, Note_on_c, 2, 79, 84
8, 173400, Note_on_c, 2, 70, 84
8, 173499, Note_on_c, 2, 79, 0
8, 173499, Note_on_c, 2, 70, 0
8, 173520, Note_on_c, 2, 67, 84
8, 173520, Note_on_c, 2, 76, 84
8, 173679, Note_on_c, 2, 67, 0
8, 173679, Note_on_c, 2, 76, 0
8, 173760, Note_on_c, 2, 77, 84
8, 173760, Note_on_c, 2, 69, 84
8, 173879, Note_on_c, 2, 77, 0
8, 173879, Note_on_c, 2, 69, 0
8, 173880, Note_on_c, 2, 79, 84
8, 173880, Note_on_c, 2, 70, 84
8, 173979, Note_on_c, 2, 79, 0
8, 173979, Note_on_c, 2, 70, 0
8, 174000, Note_on_c, 2, 76, 84
8, 174000, Note_on_c, 2, 67, 84
8, 174159, Note_on_c, 2, 76, 0
8, 174159, Note_on_c, 2, 67, 0
8, 174240, Note_on_c, 2, 79, 84
8, 174240, Note_on_c, 2, 70, 84
8, 174384, Note_on_c, 2, 79, 0
8, 174384, Note_on_c, 2, 70, 0
8, 174400, Note_on_c, 2, 79, 84
8, 174400, Note_on_c, 2, 70, 84
8, 174544, Note_on_c, 2, 79, 0
8, 174544, Note_on_c, 2, 70, 0
8, 174560, Note_on_c, 2, 79, 84
8, 174560, Note_on_c, 2, 70, 84
8, 174704, Note_on_c, 2, 79, 0
8, 174704, Note_on_c, 2, 70, 0
8, 174720, Note_on_c, 2, 70, 84
8, 174720, Note_on_c, 2, 79, 84
8, 174839, Note_on_c, 2, 70, 0
8, 174839, Note_on_c, 2, 79, 0
8, 174840, Note_on_c, 2, 72, 84
8, 174840, Note_on_c, 2, 81, 84
8, 174939, Note_on_c, 2, 72, 0
8, 174939, Note_on_c, 2, 81, 0
8, 174960, Note_on_c, 2, 69, 84
8, 174960, Note_on_c, 2, 77, 84
8, 175119, Note_on_c, 2, 69, 0
8, 175119, Note_on_c, 2, 77, 0
8, 175200, Note_on_c, 2, 79, 84
8, 175200, Note_on_c, 2, 70, 84
8, 175319, Note_on_c, 2, 79, 0
8, 175319, Note_on_c, 2, 70, 0
8, 175320, Note_on_c, 2, 72, 84
8, 175320, Note_on_c, 2, 81, 84
8, 175419, Note_on_c, 2, 72, 0
8, 175419, Note_on_c, 2, 81, 0
8, 175440, Note_on_c, 2, 77, 84
8, 175440, Note_on_c, 2, 69, 84
8, 175599, Note_on_c, 2, 77, 0
8, 175599, Note_on_c, 2, 69, 0
8, 175680, Note_on_c, 2, 70, 84
8, 175680, Note_on_c, 2, 79, 84
8, 175799, Note_on_c, 2, 70, 0
8, 175799, Note_on_c, 2, 79, 0
8, 175800, Note_on_c, 2, 81, 84
8, 175800, Note_on_c, 2, 72, 84
8, 175899, Note_on_c, 2, 81, 0
8, 175899, Note_on_c, 2, 72, 0
8, 175920, Note_on_c, 2, 77, 84
8, 175920, Note_on_c, 2, 69, 84
8, 176079, Note_on_c, 2, 77, 0
8, 176079, Note_on_c, 2, 69, 0
8, 176160, Note_on_c, 2, 77, 84
8, 176160, Note_on_c, 2, 69, 84
8, 176399, Note_on_c, 2, 77, 0
8, 176399, Note_on_c, 2, 69, 0
8, 176520, Note_on_c, 2, 76, 84
8, 176520, Note_on_c, 2, 72, 84
8, 176619, Note_on_c, 2, 76, 0
8, 176619, Note_on_c, 2, 72, 0
8, 176640, Note_on_c, 2, 76, 84
8, 176640, Note_on_c, 2, 72, 84
8, 176879, Note_on_c, 2, 76, 0
8, 176879, Note_on_c, 2, 72, 0
8, 176880, Note_on_c, 2, 74, 84
8, 176880, Note_on_c, 2, 70, 84
8, 177099, Note_on_c, 2, 74, 0
8, 177099, Note_on_c, 2, 70, 0
8, 177120, Note_on_c, 2, 66, 84
8, 177120, Note_on_c, 2, 74, 84
8, 177279, Note_on_c, 2, 66, 0
8, 177279, Note_on_c, 2, 74, 0
8, 177360, Note_on_c, 2, 69, 84
8, 177360, Note_on_c, 2, 72, 84
8, 177459, Note_on_c, 2, 69, 0
8, 177459, Note_on_c, 2, 72, 0
8, 177600, Note_on_c, 2, 69, 84
8, 177600, Note_on_c, 2, 72, 84
8, 177839, Note_on_c, 2, 69, 0
8, 177839, Note_on_c, 2, 72, 0
8, 177840, Note_on_c, 2, 67, 84
8, 177840, Note_on_c, 2, 70, 84
8, 178059, Note_on_c, 2, 67, 0
8, 178059, Note_on_c, 2, 70, 0
8, 178080, Note_on_c, 2, 70, 84
8, 178239, Note_on_c, 2, 70, 0
8, 178320, Note_on_c, 2, 69, 84
8, 178479, Note_on_c, 2, 69, 0
8, 178560, Note_on_c, 2, 67, 84
8, 178719, Note_on_c, 2, 67, 0
8, 178800, Note_on_c, 2, 66, 84
8, 178959, Note_on_c, 2, 66, 0
8, 179040, Note_on_c, 2, 67, 84
8, 179199, Note_on_c, 2, 67, 0
8, 179280, Note_on_c, 2, 69, 84
8, 179439, Note_on_c, 2, 69, 0
8, 179520, Note_on_c, 2, 70, 84
8, 179679, Note_on_c, 2, 70, 0
8, 179760, Note_on_c, 2, 67, 84
8, 179919, Note_on_c, 2, 67, 0
8, 180000, Note_on_c, 2, 69, 84
8, 180159, Note_on_c, 2, 69, 0
8, 180240, Note_on_c, 2, 65, 84
8, 180240, Note_on_c, 2, 69, 84
8, 180399, Note_on_c, 2, 65, 0
8, 180399, Note_on_c, 2, 69, 0
8, 180480, Note_on_c, 2, 70, 84
8, 180480, Note_on_c, 2, 74, 84
8, 180639, Note_on_c, 2, 70, 0
8, 180639, Note_on_c, 2, 74, 0
8, 180720, Note_on_c, 2, 70, 84
8, 180720, Note_on_c, 2, 79, 84
8, 180879, Note_on_c, 2, 70, 0
8, 180879, Note_on_c, 2, 79, 0
8, 180960, Note_on_c, 2, 76, 84
8, 180960, Note_on_c, 2, 67, 84
8, 181119, Note_on_c, 2, 76, 0
8, 181119, Note_on_c, 2, 67, 0
8, 181200, Note_on_c, 2, 67, 84
8, 181200, Note_on_c, 2, 76, 84
8, 181359, Note_on_c, 2, 67, 0
8, 181359, Note_on_c, 2, 76, 0
8, 181440, Note_on_c, 2, 77, 84
8, 181440, Note_on_c, 2, 69, 84
8, 181679, Note_on_c, 2, 77, 0
8, 181679, Note_on_c, 2, 69, 0
8, 182400, Note_on_c, 2, 69, 84
8, 182400, Note_on_c, 2, 77, 84
8, 182639, Note_on_c, 2, 69, 0
8, 182639, Note_on_c, 2, 77, 0
8, 183360, Note_on_c, 2, 79, 84
8, 183360, Note_on_c, 2, 76, 84
8, 183599, Note_on_c, 2, 79, 0
8, 183599, Note_on_c, 2, 76, 0
8, 184320, Note_on_c, 2, 79, 84
8, 184320, Note_on_c, 2, 76, 84
8, 184559, Note_on_c, 2, 79, 0
8, 184559, Note_on_c, 2, 76, 0
8, 185280, Note_on_c, 2, 77, 84
8, 185280, Note_on_c, 2, 81, 84
8, 185519, Note_on_c, 2, 77, 0
8, 185519, Note_on_c, 2, 81, 0
8, 185760, Note_on_c, 2, 77, 84
8, 185919, Note_on_c, 2, 77, 0
8, 186000, Note_on_c, 2, 72, 84
8, 186159, Note_on_c, 2, 72, 0
8, 186240, Note_on_c, 2, 72, 84
8, 186399, Note_on_c, 2, 72, 0
8, 186480, Note_on_c, 2, 69, 84
8, 186639, Note_on_c, 2, 69, 0
8, 186720, Note_on_c, 2, 69, 84
8, 186879, Note_on_c, 2, 69, 0
8, 186960, Note_on_c, 2, 65, 84
8, 187119, Note_on_c, 2, 65, 0
8, 187200, Note_on_c, 2, 60, 84
8, 187359, Note_on_c, 2, 60, 0
8, 187680, Note_on_c, 2, 70, 84
8, 187839, Note_on_c, 2, 70, 0
8, 187920, Note_on_c, 2, 67, 84
8, 188079, Note_on_c, 2, 67, 0
8, 188160, Note_on_c, 2, 67, 84
8, 188319, Note_on_c, 2, 67, 0
8, 188400, Note_on_c, 2, 64, 84
8, 188559, Note_on_c, 2, 64, 0
8, 188640, Note_on_c, 2, 64, 84
8, 188799, Note_on_c, 2, 64, 0
8, 188880, Note_on_c, 2, 60, 84
8, 189039, Note_on_c, 2, 60, 0
8, 189120, Note_on_c, 2, 65, 84
8, 189279, Note_on_c, 2, 65, 0
8, 190080, Note_on_c, 2, 77, 84
8, 190080, Note_on_c, 2, 69, 84
8, 190319, Note_on_c, 2, 77, 0
8, 190319, Note_on_c, 2, 69, 0
8, 191040, Note_on_c, 2, 76, 84
8, 191040, Note_on_c, 2, 79, 84
8, 191279, Note_on_c, 2, 76, 0
8, 191279, Note_on_c, 2, 79, 0
8, 192000, Note_on_c, 2, 76, 84
8, 192000, Note_on_c, 2, 79, 84
8, 192239, Note_on_c, 2, 76, 0
8, 192239, Note_on_c, 2, 79, 0
8, 192960, Note_on_c, 2, 81, 84
8, 192960, Note_on_c, 2, 77, 84
8, 193199, Note_on_c, 2, 81, 0
8, 193199, Note_on_c, 2, 77, 0
8, 193440, Note_on_c, 2, 77, 84
8, 193599, Note_on_c, 2, 77, 0
8, 193680, Note_on_c, 2, 72, 84
8, 193839, Note_on_c, 2, 72, 0
8, 193920, Note_on_c, 2, 72, 84
8, 194079, Note_on_c, 2, 72, 0
8, 194160, Note_on_c, 2, 69, 84
8, 194319, Note_on_c, 2, 69, 0
8, 194400, Note_on_c, 2, 69, 84
8, 194559, Note_on_c, 2, 69, 0
8, 194640, Note_on_c, 2, 69, 84
8, 194799, Note_on_c, 2, 69, 0
8, 194880, Note_on_c, 2, 72, 84
8, 194880, Note_on_c, 2, 69, 84
8, 195039, Note_on_c, 2, 72, 0
8, 195039, Note_on_c, 2, 69, 0
8, 195360, Note_on_c, 2, 72, 84
8, 195519, Note_on_c, 2, 72, 0
8, 195600, Note_on_c, 2, 69, 84
8, 195759, Note_on_c, 2, 69, 0
8, 195840, Note_on_c, 2, 69, 84
8, 195999, Note_on_c, 2, 69, 0
8, 196080, Note_on_c, 2, 66, 84
8, 196239, Note_on_c, 2, 66, 0
8, 196320, Note_on_c, 2, 66, 84
8, 196479, Note_on_c, 2, 66, 0
8, 196560, Note_on_c, 2, 62, 84
8, 196719, Note_on_c, 2, 62, 0
8, 196800, Note_on_c, 2, 67, 84
8, 196959, Note_on_c, 2, 67, 0
8, 197760, Note_on_c, 2, 70, 84
8, 197760, Note_on_c, 2, 67, 84
8, 197999, Note_on_c, 2, 70, 0
8, 197999, Note_on_c, 2, 67, 0
8, 198720, Note_on_c, 2, 72, 84
8, 198720, Note_on_c, 2, 69, 84
8, 198959, Note_on_c, 2, 72, 0
8, 198959, Note_on_c, 2, 69, 0
8, 199680, Note_on_c, 2, 69, 84
8, 199680, Note_on_c, 2, 72, 84
8, 199919, Note_on_c, 2, 69, 0
8, 199919, Note_on_c, 2, 72, 0
8, 200640, Note_on_c, 2, 70, 84
8, 200640, Note_on_c, 2, 74, 84
8, 200879, Note_on_c, 2, 70, 0
8, 200879, Note_on_c, 2, 74, 0
8, 201120, Note_on_c, 2, 82, 84
8, 201120, Note_on_c, 2, 70, 84
8, 201279, Note_on_c, 2, 82, 0
8, 201279, Note_on_c, 2, 70, 0
8, 201360, Note_on_c, 2, 77, 84
8, 201360, Note_on_c, 2, 65, 84
8, 201519, Note_on_c, 2, 77, 0
8, 201519, Note_on_c, 2, 65, 0
8, 201600, Note_on_c, 2, 77, 84
8, 201600, Note_on_c, 2, 65, 84
8, 201759, Note_on_c, 2, 77, 0
8, 201759, Note_on_c, 2, 65, 0
8, 201840, Note_on_c, 2, 62, 84
8, 201840, Note_on_c, 2, 74, 84
8, 201999, Note_on_c, 2, 62, 0
8, 201999, Note_on_c, 2, 74, 0
8, 202080, Note_on_c, 2, 62, 84
8, 202080, Note_on_c, 2, 74, 84
8, 202239, Note_on_c, 2, 62, 0
8, 202239, Note_on_c, 2, 74, 0
8, 202320, Note_on_c, 2, 58, 84
8, 202320, Note_on_c, 2, 70, 84
8, 202479, Note_on_c, 2, 58, 0
8, 202479, Note_on_c, 2, 70, 0
8, 202560, Note_on_c, 2, 65, 84
8, 202560, Note_on_c, 2, 53, 84
8, 202719, Note_on_c, 2, 65, 0
8, 202719, Note_on_c, 2, 53, 0
8, 203040, Note_on_c, 2, 75, 84
8, 203199, Note_on_c, 2, 75, 0
8, 203280, Note_on_c, 2, 72, 84
8, 203439, Note_on_c, 2, 72, 0
8, 203520, Note_on_c, 2, 72, 84
8, 203679, Note_on_c, 2, 72, 0
8, 203760, Note_on_c, 2, 69, 84
8, 203919, Note_on_c, 2, 69, 0
8, 204000, Note_on_c, 2, 69, 84
8, 204159, Note_on_c, 2, 69, 0
8, 204240, Note_on_c, 2, 65, 84
8, 204399, Note_on_c, 2, 65, 0
8, 204480, Note_on_c, 2, 70, 84
8, 204639, Note_on_c, 2, 70, 0
8, 205920, Note_on_c, 2, 62, 92
8, 205920, Note_on_c, 2, 65, 92
8, 206079, Note_on_c, 2, 62, 0
8, 206079, Note_on_c, 2, 65, 0
8, 206160, Note_on_c, 2, 65, 84
8, 206160, Note_on_c, 2, 70, 84
8, 206319, Note_on_c, 2, 65, 0
8, 206319, Note_on_c, 2, 70, 0
8, 206400, Note_on_c, 2, 65, 92
8, 206400, Note_on_c, 2, 70, 92
8, 206559, Note_on_c, 2, 65, 0
8, 206559, Note_on_c, 2, 70, 0
8, 206640, Note_on_c, 2, 74, 84
8, 206640, Note_on_c, 2, 70, 84
8, 206799, Note_on_c, 2, 74, 0
8, 206799, Note_on_c, 2, 70, 0
8, 207840, Note_on_c, 2, 65, 84
8, 207840, Note_on_c, 2, 62, 84
8, 207999, Note_on_c, 2, 65, 0
8, 207999, Note_on_c, 2, 62, 0
8, 208080, Note_on_c, 2, 65, 84
8, 208080, Note_on_c, 2, 70, 84
8, 208239, Note_on_c, 2, 65, 0
8, 208239, Note_on_c, 2, 70, 0
8, 208320, Note_on_c, 2, 65, 84
8, 208320, Note_on_c, 2, 70, 84
8, 208539, Note_on_c, 2, 65, 0
8, 208539, Note_on_c, 2, 70, 0
8, 208560, Note_on_c, 2, 74, 84
8, 208560, Note_on_c, 2, 70, 84
8, 208779, Note_on_c, 2, 74, 0
8, 208779, Note_on_c, 2, 70, 0
8, 208800, Note_on_c, 2, 70, 84
8, 208800, Note_on_c, 2, 67, 84
8, 209019, Note_on_c, 2, 70, 0
8, 209019, Note_on_c, 2, 67, 0
8, 209040, Note_on_c, 2, 64, 84
8, 209040, Note_on_c, 2, 67, 84
8, 209259, Note_on_c, 2, 64, 0
8, 209259, Note_on_c, 2, 67, 0
8, 209280, Note_on_c, 2, 64, 84
8, 209280, Note_on_c, 2, 67, 84
8, 209519, Note_on_c, 2, 64, 0
8, 209519, Note_on_c, 2, 67, 0
8, 209520, Note_on_c, 2, 60, 84
8, 209520, Note_on_c, 2, 64, 84
8, 209759, Note_on_c, 2, 60, 0
8, 209759, Note_on_c, 2, 64, 0
8, 210720, Note_on_c, 2, 67, 84
8, 210720, Note_on_c, 2, 70, 84
8, 210939, Note_on_c, 2, 67, 0
8, 210939, Note_on_c, 2, 70, 0
8, 210960, Note_on_c, 2, 67, 84
8, 210960, Note_on_c, 2, 64, 84
8, 211179, Note_on_c, 2, 67, 0
8, 211179, Note_on_c, 2, 64, 0
8, 211200, Note_on_c, 2, 64, 84
8, 211200, Note_on_c, 2, 67, 84
8, 211419, Note_on_c, 2, 64, 0
8, 211419, Note_on_c, 2, 67, 0
8, 211440, Note_on_c, 2, 64, 84
8, 211440, Note_on_c, 2, 60, 84
8, 211659, Note_on_c, 2, 64, 0
8, 211659, Note_on_c, 2, 60, 0
8, 211680, Note_on_c, 2, 70, 84
8, 211680, Note_on_c, 2, 67, 84
8, 211899, Note_on_c, 2, 70, 0
8, 211899, Note_on_c, 2, 67, 0
8, 211920, Note_on_c, 2, 64, 84
8, 211920, Note_on_c, 2, 67, 84
8, 212139, Note_on_c, 2, 64, 0
8, 212139, Note_on_c, 2, 67, 0
8, 212160, Note_on_c, 2, 64, 84
8, 212160, Note_on_c, 2, 67, 84
8, 212379, Note_on_c, 2, 64, 0
8, 212379, Note_on_c, 2, 67, 0
8, 212400, Note_on_c, 2, 60, 84
8, 212400, Note_on_c, 2, 64, 84
8, 212619, Note_on_c, 2, 60, 0
8, 212619, Note_on_c, 2, 64, 0
8, 212640, Note_on_c, 2, 67, 84
8, 212640, Note_on_c, 2, 70, 84
8, 212859, Note_on_c, 2, 67, 0
8, 212859, Note_on_c, 2, 70, 0
8, 212880, Note_on_c, 2, 64, 84
8, 212880, Note_on_c, 2, 67, 84
8, 213099, Note_on_c, 2, 64, 0
8, 213099, Note_on_c, 2, 67, 0
8, 213120, Note_on_c, 2, 67, 84
8, 213120, Note_on_c, 2, 64, 84
8, 213339, Note_on_c, 2, 67, 0
8, 213339, Note_on_c, 2, 64, 0
8, 213360, Note_on_c, 2, 64, 84
8, 213360, Note_on_c, 2, 60, 84
8, 213579, Note_on_c, 2, 64, 0
8, 213579, Note_on_c, 2, 60, 0
8, 213600, Note_on_c, 2, 70, 84
8, 213600, Note_on_c, 2, 67, 84
8, 213819, Note_on_c, 2, 70, 0
8, 213819, Note_on_c, 2, 67, 0
8, 213840, Note_on_c, 2, 67, 84
8, 213840, Note_on_c, 2, 64, 84
8, 214059, Note_on_c, 2, 67, 0
8, 214059, Note_on_c, 2, 64, 0
8, 214080, Note_on_c, 2, 64, 84
8, 214080, Note_on_c, 2, 67, 84
8, 214299, Note_on_c, 2, 64, 0
8, 214299, Note_on_c, 2, 67, 0
8, 214320, Note_on_c, 2, 72, 84
8, 214539, Note_on_c, 2, 72, 0
8, 214560, Note_on_c, 2, 72, 84
8, 214779, Note_on_c, 2, 72, 0
8, 214800, Note_on_c, 2, 60, 84
8, 215019, Note_on_c, 2, 60, 0
8, 215040, Note_on_c, 2, 61, 52
8, 215279, Note_on_c, 2, 61, 0
8, 217920, Control_c, 2, 11, 96
8, 218400, Note_on_c, 2, 72, 68
8, 218400, Control_c, 2, 11, 96
8, 218480, Control_c, 2, 11, 99
8, 218560, Control_c, 2, 11, 101
8, 218640, Control_c, 2, 11, 104
8, 218720, Control_c, 2, 11, 106
8, 218800, Control_c, 2, 11, 109
8, 218879, Note_on_c, 2, 72, 0
8, 218880, Note_on_c, 2, 73, 68
8, 218880, Control_c, 2, 11, 112
8, 218960, Control_c, 2, 11, 114
8, 219040, Control_c, 2, 11, 117
8, 219120, Control_c, 2, 11, 119
8, 219200, Control_c, 2, 11, 122
8, 219280, Control_c, 2, 11, 124
8, 219360, Control_c, 2, 11, 127
8, 219599, Note_on_c, 2, 73, 0
8, 219600, Note_on_c, 2, 75, 68
8, 219600, Control_c, 2, 11, 127
8, 219630, Control_c, 2, 11, 124
8, 219660, Control_c, 2, 11, 122
8, 219690, Control_c, 2, 11, 119
8, 219719, Note_on_c, 2, 75, 0
8, 219720, Control_c, 2, 11, 117
8, 219720, Note_on_c, 2, 77, 68
8, 219750, Control_c, 2, 11, 114
8, 219780, Control_c, 2, 11, 112
8, 219810, Control_c, 2, 11, 109
8, 219839, Note_on_c, 2, 77, 0
8, 219840, Note_on_c, 2, 68, 68
8, 219840, Control_c, 2, 11, 106
8, 219870, Control_c, 2, 11, 104
8, 219900, Control_c, 2, 11, 101
8, 219930, Control_c, 2, 11, 99
8, 220079, Note_on_c, 2, 68, 0
8, 222000, Control_c, 2, 11, 80
8, 222240, Control_c, 2, 11, 80
8, 222240, Note_on_c, 2, 72, 68
8, 222280, Control_c, 2, 11, 81
8, 222320, Control_c, 2, 11, 83
8, 222360, Control_c, 2, 11, 84
8, 222400, Control_c, 2, 11, 85
8, 222440, Control_c, 2, 11, 87
8, 222480, Control_c, 2, 11, 88
8, 222520, Control_c, 2, 11, 89
8, 222560, Control_c, 2, 11, 91
8, 222600, Control_c, 2, 11, 92
8, 222640, Control_c, 2, 11, 93
8, 222680, Control_c, 2, 11, 95
8, 222719, Note_on_c, 2, 72, 0
8, 222720, Control_c, 2, 11, 96
8, 222720, Note_on_c, 2, 73, 68
8, 222959, Note_on_c, 2, 73, 0
8, 223200, Control_c, 2, 11, 96
8, 223200, Note_on_c, 2, 73, 68
8, 223439, Note_on_c, 2, 73, 0
8, 223440, Control_c, 2, 11, 99
8, 223680, Control_c, 2, 11, 101
8, 223920, Control_c, 2, 11, 104
8, 224160, Note_on_c, 2, 74, 68
8, 224160, Note_on_c, 2, 71, 68
8, 224160, Control_c, 2, 11, 106
8, 224399, Note_on_c, 2, 74, 0
8, 224399, Note_on_c, 2, 71, 0
8, 224400, Control_c, 2, 11, 109
8, 224640, Control_c, 2, 11, 112
8, 224880, Control_c, 2, 11, 114
8, 225120, Control_c, 2, 11, 117
8, 225120, Note_on_c, 2, 70, 68
8, 225120, Note_on_c, 2, 76, 68
8, 225359, Note_on_c, 2, 70, 0
8, 225359, Note_on_c, 2, 76, 0
8, 225360, Control_c, 2, 11, 119
8, 225600, Control_c, 2, 11, 122
8, 225840, Control_c, 2, 11, 124
8, 226080, Note_on_c, 2, 72, 68
8, 226080, Control_c, 2, 11, 127
8, 226319, Note_on_c, 2, 72, 0
8, 226560, Note_on_c, 2, 65, 52
8, 227519, Note_on_c, 2, 65, 0
8, 227520, Note_on_c, 2, 72, 52
8, 228239, Note_on_c, 2, 72, 0
8, 228240, Note_on_c, 2, 74, 52
8, 228459, Note_on_c, 2, 74, 0
8, 228480, Note_on_c, 2, 74, 52
8, 228719, Note_on_c, 2, 74, 0
8, 228720, Note_on_c, 2, 67, 52
8, 228939, Note_on_c, 2, 67, 0
8, 228960, Note_on_c, 2, 67, 52
8, 229199, Note_on_c, 2, 67, 0
8, 229200, Note_on_c, 2, 69, 52
8, 229439, Note_on_c, 2, 69, 0
8, 229440, Note_on_c, 2, 70, 52
8, 229679, Note_on_c, 2, 70, 0
8, 229920, Note_on_c, 2, 72, 52
8, 230159, Note_on_c, 2, 72, 0
8, 230400, Note_on_c, 2, 69, 52
8, 231359, Note_on_c, 2, 69, 0
8, 231360, Note_on_c, 2, 72, 52
8, 231599, Note_on_c, 2, 72, 0
8, 231600, Note_on_c, 2, 74, 52
8, 231679, Note_on_c, 2, 74, 0
8, 231680, Note_on_c, 2, 72, 52
8, 231759, Note_on_c, 2, 72, 0
8, 231760, Note_on_c, 2, 71, 52
8, 231839, Note_on_c, 2, 71, 0
8, 231840, Note_on_c, 2, 72, 52
8, 232079, Note_on_c, 2, 72, 0
8, 232080, Note_on_c, 2, 73, 52
8, 232319, Note_on_c, 2, 73, 0
8, 232320, Note_on_c, 2, 76, 52
8, 232559, Note_on_c, 2, 76, 0
8, 232560, Note_on_c, 2, 74, 52
8, 232799, Note_on_c, 2, 74, 0
8, 232800, Note_on_c, 2, 67, 52
8, 233039, Note_on_c, 2, 67, 0
8, 233040, Note_on_c, 2, 69, 52
8, 233279, Note_on_c, 2, 69, 0
8, 233280, Note_on_c, 2, 70, 52
8, 233519, Note_on_c, 2, 70, 0
8, 233760, Note_on_c, 2, 72, 52
8, 233999, Note_on_c, 2, 72, 0
8, 234240, Note_on_c, 2, 69, 44
8, 234479, Note_on_c, 2, 69, 0
8, 236160, Note_on_c, 2, 69, 44
8, 236379, Note_on_c, 2, 69, 0
8, 236400, Note_on_c, 2, 69, 44
8, 236859, Note_on_c, 2, 69, 0
8, 236880, Note_on_c, 2, 65, 44
8, 237099, Note_on_c, 2, 65, 0
8, 237120, Note_on_c, 2, 70, 44
8, 237339, Note_on_c, 2, 70, 0
8, 237360, Note_on_c, 2, 70, 44
8, 237819, Note_on_c, 2, 70, 0
8, 237840, Note_on_c, 2, 67, 44
8, 238059, Note_on_c, 2, 67, 0
8, 238080, Note_on_c, 2, 72, 44
8, 238239, Note_on_c, 2, 72, 0
8, 238320, Note_on_c, 2, 72, 44
8, 238320, Note_on_c, 2, 76, 44
8, 238479, Note_on_c, 2, 72, 0
8, 238479, Note_on_c, 2, 76, 0
8, 238560, Note_on_c, 2, 76, 44
8, 238560, Note_on_c, 2, 72, 44
8, 238719, Note_on_c, 2, 76, 0
8, 238719, Note_on_c, 2, 72, 0
8, 238800, Note_on_c, 2, 65, 44
8, 238800, Note_on_c, 2, 77, 44
8, 238959, Note_on_c, 2, 65, 0
8, 238959, Note_on_c, 2, 77, 0
8, 239040, Note_on_c, 2, 70, 44
8, 239040, Note_on_c, 2, 74, 44
8, 239199, Note_on_c, 2, 70, 0
8, 239199, Note_on_c, 2, 74, 0
8, 239280, Note_on_c, 2, 74, 44
8, 239280, Note_on_c, 2, 70, 44
8, 239439, Note_on_c, 2, 74, 0
8, 239439, Note_on_c, 2, 70, 0
8, 239520, Note_on_c, 2, 74, 44
8, 239520, Note_on_c, 2, 70, 44
8, 239679, Note_on_c, 2, 74, 0
8, 239679, Note_on_c, 2, 70, 0
8, 239760, Note_on_c, 2, 76, 44
8, 239760, Note_on_c, 2, 64, 44
8, 239919, Note_on_c, 2, 76, 0
8, 239919, Note_on_c, 2, 64, 0
8, 240000, Note_on_c, 2, 69, 44
8, 240000, Note_on_c, 2, 72, 44
8, 240159, Note_on_c, 2, 69, 0
8, 240159, Note_on_c, 2, 72, 0
8, 240240, Note_on_c, 2, 69, 44
8, 240240, Note_on_c, 2, 72, 44
8, 240399, Note_on_c, 2, 69, 0
8, 240399, Note_on_c, 2, 72, 0
8, 240480, Note_on_c, 2, 72, 44
8, 240480, Note_on_c, 2, 69, 44
8, 240639, Note_on_c, 2, 72, 0
8, 240639, Note_on_c, 2, 69, 0
8, 240720, Note_on_c, 2, 74, 44
8, 240720, Note_on_c, 2, 62, 44
8, 240879, Note_on_c, 2, 74, 0
8, 240879, Note_on_c, 2, 62, 0
8, 240960, Note_on_c, 2, 70, 44
8, 240960, Note_on_c, 2, 67, 44
8, 241119, Note_on_c, 2, 70, 0
8, 241119, Note_on_c, 2, 67, 0
8, 241200, Note_on_c, 2, 67, 44
8, 241200, Note_on_c, 2, 70, 44
8, 241359, Note_on_c, 2, 67, 0
8, 241359, Note_on_c, 2, 70, 0
8, 241440, Note_on_c, 2, 70, 44
8, 241440, Note_on_c, 2, 67, 44
8, 241599, Note_on_c, 2, 70, 0
8, 241599, Note_on_c, 2, 67, 0
8, 241680, Note_on_c, 2, 60, 44
8, 241680, Note_on_c, 2, 72, 44
8, 241839, Note_on_c, 2, 60, 0
8, 241839, Note_on_c, 2, 72, 0
8, 241920, Note_on_c, 2, 65, 76
8, 241920, Note_on_c, 2, 69, 76
8, 242139, Note_on_c, 2, 65, 0
8, 242139, Note_on_c, 2, 69, 0
8, 242160, Note_on_c, 2, 65, 76
8, 242160, Note_on_c, 2, 69, 76
8, 242399, Note_on_c, 2, 65, 0
8, 242399, Note_on_c, 2, 69, 0
8, 242640, Note_on_c, 2, 66, 76
8, 242640, Note_on_c, 2, 69, 76
8, 242859, Note_on_c, 2, 66, 0
8, 242859, Note_on_c, 2, 69, 0
8, 242880, Note_on_c, 2, 67, 76
8, 242880, Note_on_c, 2, 70, 76
8, 243099, Note_on_c, 2, 67, 0
8, 243099, Note_on_c, 2, 70, 0
8, 243120, Note_on_c, 2, 70, 76
8, 243120, Note_on_c, 2, 67, 76
8, 243359, Note_on_c, 2, 70, 0
8, 243359, Note_on_c, 2, 67, 0
8, 243600, Note_on_c, 2, 68, 76
8, 243600, Note_on_c, 2, 71, 76
8, 243819, Note_on_c, 2, 68, 0
8, 243819, Note_on_c, 2, 71, 0
8, 243840, Note_on_c, 2, 72, 76
8, 243840, Note_on_c, 2, 69, 76
8, 244059, Note_on_c, 2, 72, 0
8, 244059, Note_on_c, 2, 69, 0
8, 244080, Note_on_c, 2, 72, 76
8, 244080, Note_on_c, 2, 69, 76
8, 244319, Note_on_c, 2, 72, 0
8, 244319, Note_on_c, 2, 69, 0
8, 244560, Note_on_c, 2, 69, 76
8, 244560, Note_on_c, 2, 72, 76
8, 244779, Note_on_c, 2, 69, 0
8, 244779, Note_on_c, 2, 72, 0
8, 244800, Note_on_c, 2, 70, 76
8, 244800, Note_on_c, 2, 74, 76
8, 245019, Note_on_c, 2, 70, 0
8, 245019, Note_on_c, 2, 74, 0
8, 245040, Note_on_c, 2, 74, 76
8, 245040, Note_on_c, 2, 70, 76
8, 245279, Note_on_c, 2, 74, 0
8, 245279, Note_on_c, 2, 70, 0
8, 245520, Note_on_c, 2, 71, 76
8, 245520, Note_on_c, 2, 74, 76
8, 245739, Note_on_c, 2, 71, 0
8, 245739, Note_on_c, 2, 74, 0
8, 245760, Note_on_c, 2, 76, 76
8, 245760, Note_on_c, 2, 72, 76
8, 245919, Note_on_c, 2, 76, 0
8, 245919, Note_on_c, 2, 72, 0
8, 246000, Note_on_c, 2, 72, 76
8, 246000, Note_on_c, 2, 76, 76
8, 246159, Note_on_c, 2, 72, 0
8, 246159, Note_on_c, 2, 76, 0
8, 246240, Note_on_c, 2, 76, 76
8, 246240, Note_on_c, 2, 72, 76
8, 246399, Note_on_c, 2, 76, 0
8, 246399, Note_on_c, 2, 72, 0
8, 246480, Note_on_c, 2, 72, 76
8, 246480, Note_on_c, 2, 77, 76
8, 246639, Note_on_c, 2, 72, 0
8, 246639, Note_on_c, 2, 77, 0
8, 246720, Note_on_c, 2, 70, 76
8, 246720, Note_on_c, 2, 74, 76
8, 246879, Note_on_c, 2, 70, 0
8, 246879, Note_on_c, 2, 74, 0
8, 246960, Note_on_c, 2, 70, 76
8, 246960, Note_on_c, 2, 74, 76
8, 247119, Note_on_c, 2, 70, 0
8, 247119, Note_on_c, 2, 74, 0
8, 247200, Note_on_c, 2, 70, 76
8, 247200, Note_on_c, 2, 74, 76
8, 247359, Note_on_c, 2, 70, 0
8, 247359, Note_on_c, 2, 74, 0
8, 247440, Note_on_c, 2, 71, 76
8, 247440, Note_on_c, 2, 76, 76
8, 247599, Note_on_c, 2, 71, 0
8, 247599, Note_on_c, 2, 76, 0
8, 247680, Note_on_c, 2, 72, 76
8, 247680, Note_on_c, 2, 69, 76
8, 247899, Note_on_c, 2, 72, 0
8, 247899, Note_on_c, 2, 69, 0
8, 247920, Note_on_c, 2, 72, 76
8, 247920, Note_on_c, 2, 69, 76
8, 248139, Note_on_c, 2, 72, 0
8, 248139, Note_on_c, 2, 69, 0
8, 248160, Note_on_c, 2, 72, 76
8, 248160, Note_on_c, 2, 69, 76
8, 248379, Note_on_c, 2, 72, 0
8, 248379, Note_on_c, 2, 69, 0
8, 248400, Note_on_c, 2, 69, 76
8, 248400, Note_on_c, 2, 74, 76
8, 248619, Note_on_c, 2, 69, 0
8, 248619, Note_on_c, 2, 74, 0
8, 248640, Note_on_c, 2, 70, 76
8, 248640, Note_on_c, 2, 67, 76
8, 248859, Note_on_c, 2, 70, 0
8, 248859, Note_on_c, 2, 67, 0
8, 248880, Note_on_c, 2, 67, 76
8, 248880, Note_on_c, 2, 70, 76
8, 249099, Note_on_c, 2, 67, 0
8, 249099, Note_on_c, 2, 70, 0
8, 249120, Note_on_c, 2, 70, 76
8, 249120, Note_on_c, 2, 67, 76
8, 249339, Note_on_c, 2, 70, 0
8, 249339, Note_on_c, 2, 67, 0
8, 249360, Note_on_c, 2, 67, 76
8, 249360, Note_on_c, 2, 70, 76
8, 249579, Note_on_c, 2, 67, 0
8, 249579, Note_on_c, 2, 70, 0
8, 249600, Note_on_c, 2, 67, 80
8, 249600, Note_on_c, 2, 70, 80
8, 251499, Note_on_c, 2, 67, 0
8, 251499, Note_on_c, 2, 70, 0
8, 251520, Note_on_c, 2, 65, 80
8, 251520, Note_on_c, 2, 69, 80
8, 253419, Note_on_c, 2, 65, 0
8, 253419, Note_on_c, 2, 69, 0
8, 253440, Note_on_c, 2, 74, 84
8, 253440, Note_on_c, 2, 70, 84
8, 255339, Note_on_c, 2, 74, 0
8, 255339, Note_on_c, 2, 70, 0
8, 255360, Note_on_c, 2, 74, 84
8, 255360, Note_on_c, 2, 70, 84
8, 255599, Note_on_c, 2, 74, 0
8, 255599, Note_on_c, 2, 70, 0
8, 264000, Note_on_c, 2, 70, 44
8, 264000, Note_on_c, 2, 74, 44
8, 264119, Note_on_c, 2, 70, 0
8, 264119, Note_on_c, 2, 74, 0
8, 264120, Note_on_c, 2, 72, 44
8, 264120, Note_on_c, 2, 75, 44
8, 264219, Note_on_c, 2, 72, 0
8, 264219, Note_on_c, 2, 75, 0
8, 264240, Note_on_c, 2, 65, 44
8, 264240, Note_on_c, 2, 72, 44
8, 264399, Note_on_c, 2, 65, 0
8, 264399, Note_on_c, 2, 72, 0
8, 265920, Note_on_c, 2, 75, 44
8, 265920, Note_on_c, 2, 72, 44
8, 266039, Note_on_c, 2, 75, 0
8, 266039, Note_on_c, 2, 72, 0
8, 266040, Note_on_c, 2, 74, 44
8, 266040, Note_on_c, 2, 77, 44
8, 266139, Note_on_c, 2, 74, 0
8, 266139, Note_on_c, 2, 77, 0
8, 266160, Note_on_c, 2, 74, 44
8, 266160, Note_on_c, 2, 70, 44
8, 266319, Note_on_c, 2, 74, 0
8, 266319, Note_on_c, 2, 70, 0
8, 269280, Note_on_c, 2, 77, 44
8, 269424, Note_on_c, 2, 77, 0
8, 269440, Note_on_c, 2, 77, 44
8, 269584, Note_on_c, 2, 77, 0
8, 269600, Note_on_c, 2, 77, 44
8, 269744, Note_on_c, 2, 77, 0
8, 269760, Note_on_c, 2, 77, 44
8, 269879, Note_on_c, 2, 77, 0
8, 269880, Note_on_c, 2, 79, 44
8, 269979, Note_on_c, 2, 79, 0
8, 270000, Note_on_c, 2, 76, 44
8, 270159, Note_on_c, 2, 76, 0
8, 282720, Note_on_c, 2, 77, 44
8, 283679, Note_on_c, 2, 77, 0
8, 283680, Note_on_c, 2, 75, 44
8, 284159, Note_on_c, 2, 75, 0
8, 284160, Note_on_c, 2, 74, 44
8, 284639, Note_on_c, 2, 74, 0
8, 284640, Note_on_c, 2, 72, 44
8, 285119, Note_on_c, 2, 72, 0
8, 285120, Note_on_c, 2, 70, 44
8, 285599, Note_on_c, 2, 70, 0
8, 285600, Note_on_c, 2, 72, 44
8, 286079, Note_on_c, 2, 72, 0
8, 286080, Note_on_c, 2, 65, 44
8, 286319, Note_on_c, 2, 65, 0
8, 286560, Note_on_c, 2, 65, 44
8, 287039, Note_on_c, 2, 65, 0
8, 287040, Note_on_c, 2, 67, 44
8, 287519, Note_on_c, 2, 67, 0
8, 287520, Note_on_c, 2, 65, 44
8, 287520, Note_on_c, 2, 69, 44
8, 287999, Note_on_c, 2, 69, 0
8, 288000, Note_on_c, 2, 70, 44
8, 288479, Note_on_c, 2, 65, 0
8, 288479, Note_on_c, 2, 70, 0
8, 288480, Note_on_c, 2, 72, 44
8, 288480, Note_on_c, 2, 69, 44
8, 288959, Note_on_c, 2, 72, 0
8, 288959, Note_on_c, 2, 69, 0
8, 288960, Note_on_c, 2, 70, 44
8, 288960, Note_on_c, 2, 74, 44
8, 289419, Note_on_c, 2, 70, 0
8, 289419, Note_on_c, 2, 74, 0
8, 289440, Note_on_c, 2, 77, 44
8, 289440, Note_on_c, 2, 74, 44
8, 290379, Note_on_c, 2, 77, 0
8, 290379, Note_on_c, 2, 74, 0
8, 290400, Note_on_c, 2, 67, 44
8, 290879, Note_on_c, 2, 67, 0
8, 290880, Note_on_c, 2, 69, 44
8, 291359, Note_on_c, 2, 69, 0
8, 291360, Note_on_c, 2, 67, 44
8, 291360, Note_on_c, 2, 71, 44
8, 291839, Note_on_c, 2, 71, 0
8, 291840, Note_on_c, 2, 72, 44
8, 292319, Note_on_c, 2, 67, 0
8, 292319, Note_on_c, 2, 72, 0
8, 292320, Note_on_c, 2, 71, 44
8, 292320, Note_on_c, 2, 74, 44
8, 292799, Note_on_c, 2, 71, 0
8, 292799, Note_on_c, 2, 74, 0
8, 292800, Note_on_c, 2, 72, 44
8, 292800, Note_on_c, 2, 75, 44
8, 293279, Note_on_c, 2, 72, 0
8, 293279, Note_on_c, 2, 75, 0
8, 293280, Note_on_c, 2, 79, 44
8, 293280, Note_on_c, 2, 67, 44
8, 293759, Note_on_c, 2, 79, 0
8, 293760, Note_on_c, 2, 73, 44
8, 293999, Note_on_c, 2, 67, 0
8, 293999, Note_on_c, 2, 73, 0
8, 296100, Control_c, 2, 11, 80
8, 296160, Note_on_c, 2, 67, 76
8, 296410, Control_c, 2, 11, 82
8, 296559, Note_on_c, 2, 67, 0
8, 296640, Note_on_c, 2, 68, 76
8, 296720, Control_c, 2, 11, 85
8, 297030, Control_c, 2, 11, 88
8, 297039, Note_on_c, 2, 68, 0
8, 297120, Note_on_c, 2, 69, 76
8, 297340, Control_c, 2, 11, 90
8, 297519, Note_on_c, 2, 69, 0
8, 297600, Note_on_c, 2, 62, 76
8, 297650, Control_c, 2, 11, 93
8, 297960, Control_c, 2, 11, 96
8, 297999, Note_on_c, 2, 62, 0
8, 298270, Control_c, 2, 11, 98
8, 298580, Control_c, 2, 11, 101
8, 298890, Control_c, 2, 11, 103
8, 299200, Control_c, 2, 11, 106
8, 299510, Control_c, 2, 11, 109
8, 299820, Control_c, 2, 11, 111
8, 300000, Note_on_c, 2, 65, 76
8, 300130, Control_c, 2, 11, 114
8, 300399, Note_on_c, 2, 65, 0
8, 300440, Control_c, 2, 11, 117
8, 300480, Note_on_c, 2, 67, 76
8, 300750, Control_c, 2, 11, 119
8, 300879, Note_on_c, 2, 67, 0
8, 300960, Note_on_c, 2, 67, 76
8, 301060, Control_c, 2, 11, 122
8, 301359, Note_on_c, 2, 67, 0
8, 301370, Control_c, 2, 11, 124
8, 301440, Note_on_c, 2, 60, 76
8, 301680, Control_c, 2, 11, 127
8, 301839, Note_on_c, 2, 60, 0
8, 301920, Note_on_c, 2, 65, 76
8, 301920, Note_on_c, 2, 77, 76
8, 302064, Note_on_c, 2, 65, 0
8, 302064, Note_on_c, 2, 77, 0
8, 302080, Note_on_c, 2, 77, 76
8, 302080, Note_on_c, 2, 65, 76
8, 302224, Note_on_c, 2, 77, 0
8, 302224, Note_on_c, 2, 65, 0
8, 302240, Note_on_c, 2, 65, 76
8, 302240, Note_on_c, 2, 77, 76
8, 302384, Note_on_c, 2, 65, 0
8, 302384, Note_on_c, 2, 77, 0
8, 302400, Note_on_c, 2, 77, 76
8, 302400, Note_on_c, 2, 65, 76
8, 302639, Note_on_c, 2, 77, 0
8, 302639, Note_on_c, 2, 65, 0
8, 302880, Note_on_c, 2, 77, 76
8, 302880, Note_on_c, 2, 65, 76
8, 303024, Note_on_c, 2, 77, 0
8, 303024, Note_on_c, 2, 65, 0
8, 303040, Note_on_c, 2, 77, 76
8, 303040, Note_on_c, 2, 65, 76
8, 303184, Note_on_c, 2, 77, 0
8, 303184, Note_on_c, 2, 65, 0
8, 303200, Note_on_c, 2, 77, 76
8, 303200, Note_on_c, 2, 65, 76
8, 303344, Note_on_c, 2, 77, 0
8, 303344, Note_on_c, 2, 65, 0
8, 303360, Note_on_c, 2, 65, 76
8, 303360, Note_on_c, 2, 77, 76
8, 303599, Note_on_c, 2, 65, 0
8, 303599, Note_on_c, 2, 77, 0
8, 303840, Note_on_c, 2, 58, 76
8, 303840, Note_on_c, 2, 70, 76
8, 303984, Note_on_c, 2, 58, 0
8, 303984, Note_on_c, 2, 70, 0
8, 304000, Note_on_c, 2, 70, 76
8, 304000, Note_on_c, 2, 58, 76
8, 304144, Note_on_c, 2, 70, 0
8, 304144, Note_on_c, 2, 58, 0
8, 304160, Note_on_c, 2, 58, 76
8, 304160, Note_on_c, 2, 70, 76
8, 304304, Note_on_c, 2, 58, 0
8, 304304, Note_on_c, 2, 70, 0
8, 304320, Note_on_c, 2, 70, 76
8, 304320, Note_on_c, 2, 58, 76
8, 304559, Note_on_c, 2, 70, 0
8, 304559, Note_on_c, 2, 58, 0
8, 304800, Note_on_c, 2, 70, 76
8, 304800, Note_on_c, 2, 58, 76
8, 304944, Note_on_c, 2, 70, 0
8, 304944, Note_on_c, 2, 58, 0
8, 304960, Note_on_c, 2, 70, 76
8, 304960, Note_on_c, 2, 58, 76
8, 305104, Note_on_c, 2, 70, 0
8, 305104, Note_on_c, 2, 58, 0
8, 305120, Note_on_c, 2, 70, 76
8, 305120, Note_on_c, 2, 58, 76
8, 305264, Note_on_c, 2, 70, 0
8, 305264, Note_on_c, 2, 58, 0
8, 305280, Note_on_c, 2, 58, 76
8, 305280, Note_on_c, 2, 70, 76
8, 305519, Note_on_c, 2, 58, 0
8, 305519, Note_on_c, 2, 70, 0
8, 305760, Note_on_c, 2, 58, 76
8, 305760, Note_on_c, 2, 70, 76
8, 305904, Note_on_c, 2, 58, 0
8, 305904, Note_on_c, 2, 70, 0
8, 305920, Note_on_c, 2, 63, 76
8, 305920, Note_on_c, 2, 75, 76
8, 306064, Note_on_c, 2, 63, 0
8, 306064, Note_on_c, 2, 75, 0
8, 306080, Note_on_c, 2, 75, 76
8, 306080, Note_on_c, 2, 63, 76
8, 306224, Note_on_c, 2, 75, 0
8, 306224, Note_on_c, 2, 63, 0
8, 306240, Note_on_c, 2, 63, 76
8, 306240, Note_on_c, 2, 75, 76
8, 306479, Note_on_c, 2, 63, 0
8, 306479, Note_on_c, 2, 75, 0
8, 306720, Note_on_c, 2, 75, 76
8, 306720, Note_on_c, 2, 63, 76
8, 306864, Note_on_c, 2, 75, 0
8, 306864, Note_on_c, 2, 63, 0
8, 306880, Note_on_c, 2, 63, 76
8, 306880, Note_on_c, 2, 75, 76
8, 307024, Note_on_c, 2, 63, 0
8, 307024, Note_on_c, 2, 75, 0
8, 307040, Note_on_c, 2, 63, 76
8, 307040, Note_on_c, 2, 75, 76
8, 307184, Note_on_c, 2, 63, 0
8, 307184, Note_on_c, 2, 75, 0
8, 307200, Note_on_c, 2, 75, 76
8, 307200, Note_on_c, 2, 63, 76
8, 307439, Note_on_c, 2, 75, 0
8, 307439, Note_on_c, 2, 63, 0
8, 307680, Note_on_c, 2, 75, 76
8, 307680, Note_on_c, 2, 63, 76
8, 307824, Note_on_c, 2, 75, 0
8, 307824, Note_on_c, 2, 63, 0
8, 307840, Note_on_c, 2, 68, 76
8, 307840, Note_on_c, 2, 80, 76
8, 307984, Note_on_c, 2, 68, 0
8, 307984, Note_on_c, 2, 80, 0
8, 308000, Note_on_c, 2, 80, 76
8, 308000, Note_on_c, 2, 68, 76
8, 308144, Note_on_c, 2, 80, 0
8, 308144, Note_on_c, 2, 68, 0
8, 308160, Note_on_c, 2, 68, 76
8, 308160, Note_on_c, 2, 80, 76
8, 308399, Note_on_c, 2, 68, 0
8, 308399, Note_on_c, 2, 80, 0
8, 308640, Note_on_c, 2, 80, 76
8, 308640, Note_on_c, 2, 68, 76
8, 308784, Note_on_c, 2, 80, 0
8, 308784, Note_on_c, 2, 68, 0
8, 308800, Note_on_c, 2, 68, 76
8, 308800, Note_on_c, 2, 80, 76
8, 308944, Note_on_c, 2, 68, 0
8, 308944, Note_on_c, 2, 80, 0
8, 308960, Note_on_c, 2, 80, 76
8, 308960, Note_on_c, 2, 68, 76
8, 309104, Note_on_c, 2, 80, 0
8, 309104, Note_on_c, 2, 68, 0
8, 309120, Note_on_c, 2, 80, 76
8, 309120, Note_on_c, 2, 68, 76
8, 309359, Note_on_c, 2, 80, 0
8, 309359, Note_on_c, 2, 68, 0
8, 309600, Note_on_c, 2, 77, 76
8, 309600, Note_on_c, 2, 65, 76
8, 309999, Note_on_c, 2, 77, 0
8, 309999, Note_on_c, 2, 65, 0
8, 310080, Note_on_c, 2, 65, 76
8, 310080, Note_on_c, 2, 77, 76
8, 310479, Note_on_c, 2, 65, 0
8, 310479, Note_on_c, 2, 77, 0
8, 310560, Note_on_c, 2, 77, 76
8, 310560, Note_on_c, 2, 65, 76
8, 310959, Note_on_c, 2, 77, 0
8, 310959, Note_on_c, 2, 65, 0
8, 311040, Note_on_c, 2, 77, 76
8, 311040, Note_on_c, 2, 65, 76
8, 311439, Note_on_c, 2, 77, 0
8, 311439, Note_on_c, 2, 65, 0
8, 311520, Note_on_c, 2, 77, 76
8, 311520, Note_on_c, 2, 65, 76
8, 311919, Note_on_c, 2, 77, 0
8, 311919, Note_on_c, 2, 65, 0
8, 312000, Note_on_c, 2, 77, 76
8, 312000, Note_on_c, 2, 65, 76
8, 312399, Note_on_c, 2, 77, 0
8, 312399, Note_on_c, 2, 65, 0
8, 312480, Note_on_c, 2, 65, 76
8, 312480, Note_on_c, 2, 77, 76
8, 312879, Note_on_c, 2, 65, 0
8, 312879, Note_on_c, 2, 77, 0
8, 312960, Note_on_c, 2, 60, 76
8, 312960, Note_on_c, 2, 72, 76
8, 313359, Note_on_c, 2, 60, 0
8, 313359, Note_on_c, 2, 72, 0
8, 313440, Note_on_c, 2, 72, 76
8, 313440, Note_on_c, 2, 60, 76
8, 313839, Note_on_c, 2, 72, 0
8, 313839, Note_on_c, 2, 60, 0
8, 313920, Note_on_c, 2, 60, 76
8, 313920, Note_on_c, 2, 72, 76
8, 314319, Note_on_c, 2, 60, 0
8, 314319, Note_on_c, 2, 72, 0
8, 314400, Note_on_c, 2, 72, 76
8, 314400, Note_on_c, 2, 60, 76
8, 314799, Note_on_c, 2, 72, 0
8, 314799, Note_on_c, 2, 60, 0
8, 314880, Note_on_c, 2, 72, 76
8, 314880, Note_on_c, 2, 60, 76
8, 315279, Note_on_c, 2, 72, 0
8, 315279, Note_on_c, 2, 60, 0
8, 315360, Note_on_c, 2, 60, 76
8, 315360, Note_on_c, 2, 72, 76
8, 315759, Note_on_c, 2, 60, 0
8, 315759, Note_on_c, 2, 72, 0
8, 315840, Note_on_c, 2, 72, 76
8, 315840, Note_on_c, 2, 60, 76
8, 316239, Note_on_c, 2, 72, 0
8, 316239, Note_on_c, 2, 60, 0
8, 316320, Note_on_c, 2, 60, 76
8, 316320, Note_on_c, 2, 72, 76
8, 316719, Note_on_c, 2, 60, 0
8, 316719, Note_on_c, 2, 72, 0
8, 316800, Note_on_c, 2, 62, 76
8, 316800, Note_on_c, 2, 74, 76
8, 316944, Note_on_c, 2, 62, 0
8, 316944, Note_on_c, 2, 74, 0
8, 316960, Note_on_c, 2, 70, 76
8, 317104, Note_on_c, 2, 70, 0
8, 317120, Note_on_c, 2, 70, 76
8, 317264, Note_on_c, 2, 70, 0
8, 317280, Note_on_c, 2, 70, 76
8, 317424, Note_on_c, 2, 70, 0
8, 317440, Note_on_c, 2, 70, 76
8, 317584, Note_on_c, 2, 70, 0
8, 317600, Note_on_c, 2, 70, 76
8, 317744, Note_on_c, 2, 70, 0
8, 317760, Note_on_c, 2, 70, 76
8, 317904, Note_on_c, 2, 70, 0
8, 317920, Note_on_c, 2, 70, 76
8, 318064, Note_on_c, 2, 70, 0
8, 318080, Note_on_c, 2, 70, 76
8, 318224, Note_on_c, 2, 70, 0
8, 318240, Note_on_c, 2, 70, 76
8, 318384, Note_on_c, 2, 70, 0
8, 318400, Note_on_c, 2, 70, 76
8, 318544, Note_on_c, 2, 70, 0
8, 318560, Note_on_c, 2, 70, 76
8, 318704, Note_on_c, 2, 70, 0
8, 318720, Note_on_c, 2, 70, 76
8, 318864, Note_on_c, 2, 70, 0
8, 318880, Note_on_c, 2, 75, 76
8, 319024, Note_on_c, 2, 75, 0
8, 319040, Note_on_c, 2, 75, 76
8, 319184, Note_on_c, 2, 75, 0
8, 319200, Note_on_c, 2, 75, 76
8, 319344, Note_on_c, 2, 75, 0
8, 319360, Note_on_c, 2, 75, 76
8, 319504, Note_on_c, 2, 75, 0
8, 319520, Note_on_c, 2, 75, 76
8, 319664, Note_on_c, 2, 75, 0
8, 319680, Note_on_c, 2, 75, 76
8, 319824, Note_on_c, 2, 75, 0
8, 319840, Note_on_c, 2, 75, 76
8, 319984, Note_on_c, 2, 75, 0
8, 320000, Note_on_c, 2, 75, 76
8, 320144, Note_on_c, 2, 75, 0
8, 320160, Note_on_c, 2, 76, 76
8, 320304, Note_on_c, 2, 76, 0
8, 320320, Note_on_c, 2, 76, 76
8, 320464, Note_on_c, 2, 76, 0
8, 320480, Note_on_c, 2, 76, 76
8, 320624, Note_on_c, 2, 76, 0
8, 320640, Note_on_c, 2, 76, 76
8, 320784, Note_on_c, 2, 76, 0
8, 320800, Note_on_c, 2, 69, 76
8, 320944, Note_on_c, 2, 69, 0
8, 320960, Note_on_c, 2, 69, 76
8, 321104, Note_on_c, 2, 69, 0
8, 321120, Note_on_c, 2, 69, 76
8, 321264, Note_on_c, 2, 69, 0
8, 321280, Note_on_c, 2, 69, 76
8, 321424, Note_on_c, 2, 69, 0
8, 321440, Note_on_c, 2, 69, 76
8, 321584, Note_on_c, 2, 69, 0
8, 321600, Note_on_c, 2, 69, 76
8, 321744, Note_on_c, 2, 69, 0
8, 321760, Note_on_c, 2, 69, 76
8, 321904, Note_on_c, 2, 69, 0
8, 321920, Note_on_c, 2, 69, 76
8, 322064, Note_on_c, 2, 69, 0
8, 322080, Note_on_c, 2, 69, 76
8, 322224, Note_on_c, 2, 69, 0
8, 322240, Note_on_c, 2, 69, 76
8, 322384, Note_on_c, 2, 69, 0
8, 322400, Note_on_c, 2, 69, 76
8, 322544, Note_on_c, 2, 69, 0
8, 322560, Note_on_c, 2, 69, 76
8, 322704, Note_on_c, 2, 69, 0
8, 322720, Note_on_c, 2, 74, 76
8, 322864, Note_on_c, 2, 74, 0
8, 322880, Note_on_c, 2, 74, 76
8, 323024, Note_on_c, 2, 74, 0
8, 323040, Note_on_c, 2, 74, 76
8, 323184, Note_on_c, 2, 74, 0
8, 323200, Note_on_c, 2, 74, 76
8, 323344, Note_on_c, 2, 74, 0
8, 323360, Note_on_c, 2, 74, 76
8, 323504, Note_on_c, 2, 74, 0
8, 323520, Note_on_c, 2, 74, 76
8, 323664, Note_on_c, 2, 74, 0
8, 323680, Note_on_c, 2, 67, 76
8, 323824, Note_on_c, 2, 67, 0
8, 323840, Note_on_c, 2, 67, 76
8, 323984, Note_on_c, 2, 67, 0
8, 324000, Note_on_c, 2, 67, 76
8, 324144, Note_on_c, 2, 67, 0
8, 324160, Note_on_c, 2, 67, 76
8, 324304, Note_on_c, 2, 67, 0
8, 324320, Note_on_c, 2, 67, 76
8, 324464, Note_on_c, 2, 67, 0
8, 324480, Note_on_c, 2, 75, 76
8, 324624, Note_on_c, 2, 75, 0
8, 324640, Note_on_c, 2, 75, 76
8, 324784, Note_on_c, 2, 75, 0
8, 324800, Note_on_c, 2, 75, 76
8, 324944, Note_on_c, 2, 75, 0
8, 324960, Note_on_c, 2, 72, 76
8, 325104, Note_on_c, 2, 72, 0
8, 325120, Note_on_c, 2, 72, 76
8, 325264, Note_on_c, 2, 72, 0
8, 325280, Note_on_c, 2, 72, 76
8, 325424, Note_on_c, 2, 72, 0
8, 325440, Note_on_c, 2, 65, 76
8, 325584, Note_on_c, 2, 65, 0
8, 325600, Note_on_c, 2, 65, 76
8, 325744, Note_on_c, 2, 65, 0
8, 325760, Note_on_c, 2, 65, 76
8, 325904, Note_on_c, 2, 65, 0
8, 325920, Note_on_c, 2, 77, 76
8, 326064, Note_on_c, 2, 77, 0
8, 326080, Note_on_c, 2, 77, 76
8, 326224, Note_on_c, 2, 77, 0
8, 326240, Note_on_c, 2, 77, 76
8, 326384, Note_on_c, 2, 77, 0
8, 326400, Note_on_c, 2, 74, 76
8, 326544, Note_on_c, 2, 74, 0
8, 326560, Note_on_c, 2, 74, 76
8, 326704, Note_on_c, 2, 74, 0
8, 326720, Note_on_c, 2, 74, 76
8, 326864, Note_on_c, 2, 74, 0
8, 326880, Note_on_c, 2, 74, 76
8, 327024, Note_on_c, 2, 74, 0
8, 327040, Note_on_c, 2, 74, 76
8, 327184, Note_on_c, 2, 74, 0
8, 327200, Note_on_c, 2, 74, 76
8, 327344, Note_on_c, 2, 74, 0
8, 327360, Note_on_c, 2, 76, 76
8, 327504, Note_on_c, 2, 76, 0
8, 327520, Note_on_c, 2, 76, 76
8, 327664, Note_on_c, 2, 76, 0
8, 327680, Note_on_c, 2, 76, 76
8, 327824, Note_on_c, 2, 76, 0
8, 327840, Note_on_c, 2, 69, 76
8, 327984, Note_on_c, 2, 69, 0
8, 328000, Note_on_c, 2, 69, 76
8, 328144, Note_on_c, 2, 69, 0
8, 328160, Note_on_c, 2, 69, 76
8, 328304, Note_on_c, 2, 69, 0
8, 328320, Note_on_c, 2, 69, 76
8, 328464, Note_on_c, 2, 69, 0
8, 328480, Note_on_c, 2, 69, 76
8, 328624, Note_on_c, 2, 69, 0
8, 328640, Note_on_c, 2, 69, 76
8, 328784, Note_on_c, 2, 69, 0
8, 328800, Note_on_c, 2, 69, 76
8, 328944, Note_on_c, 2, 69, 0
8, 328960, Note_on_c, 2, 69, 76
8, 329104, Note_on_c, 2, 69, 0
8, 329120, Note_on_c, 2, 69, 76
8, 329264, Note_on_c, 2, 69, 0
8, 329280, Note_on_c, 2, 69, 76
8, 329424, Note_on_c, 2, 69, 0
8, 329440, Note_on_c, 2, 69, 76
8, 329584, Note_on_c, 2, 69, 0
8, 329600, Note_on_c, 2, 69, 76
8, 329744, Note_on_c, 2, 69, 0
8, 329760, Note_on_c, 2, 69, 76
8, 329904, Note_on_c, 2, 69, 0
8, 329920, Note_on_c, 2, 69, 76
8, 330064, Note_on_c, 2, 69, 0
8, 330080, Note_on_c, 2, 69, 76
8, 330224, Note_on_c, 2, 69, 0
8, 330240, Note_on_c, 2, 69, 76
8, 330384, Note_on_c, 2, 69, 0
8, 330400, Note_on_c, 2, 69, 76
8, 330544, Note_on_c, 2, 69, 0
8, 330560, Note_on_c, 2, 69, 76
8, 330704, Note_on_c, 2, 69, 0
8, 330720, Note_on_c, 2, 69, 76
8, 330864, Note_on_c, 2, 69, 0
8, 330880, Note_on_c, 2, 69, 76
8, 331024, Note_on_c, 2, 69, 0
8, 331040, Note_on_c, 2, 69, 76
8, 331184, Note_on_c, 2, 69, 0
8, 331200, Note_on_c, 2, 69, 76
8, 331344, Note_on_c, 2, 69, 0
8, 331360, Note_on_c, 2, 69, 76
8, 331504, Note_on_c, 2, 69, 0
8, 331520, Note_on_c, 2, 69, 76
8, 331664, Note_on_c, 2, 69, 0
8, 331680, Note_on_c, 2, 69, 84
8, 331680, Note_on_c, 2, 81, 84
8, 335519, Note_on_c, 2, 69, 0
8, 335519, Note_on_c, 2, 81, 0
8, 346080, Note_on_c, 2, 74, 44
8, 346319, Note_on_c, 2, 74, 0
8, 346440, Note_on_c, 2, 72, 44
8, 346539, Note_on_c, 2, 72, 0
8, 346560, Note_on_c, 2, 72, 44
8, 346799, Note_on_c, 2, 72, 0
8, 346800, Note_on_c, 2, 70, 44
8, 347019, Note_on_c, 2, 70, 0
8, 347040, Note_on_c, 2, 70, 44
8, 347199, Note_on_c, 2, 70, 0
8, 347280, Note_on_c, 2, 69, 44
8, 347439, Note_on_c, 2, 69, 0
8, 347520, Note_on_c, 2, 67, 44
8, 347679, Note_on_c, 2, 67, 0
8, 347760, Note_on_c, 2, 66, 44
8, 347919, Note_on_c, 2, 66, 0
8, 348000, Note_on_c, 2, 67, 44
8, 348159, Note_on_c, 2, 67, 0
8, 348240, Note_on_c, 2, 69, 44
8, 348399, Note_on_c, 2, 69, 0
8, 348480, Note_on_c, 2, 70, 44
8, 348699, Note_on_c, 2, 70, 0
8, 348720, Note_on_c, 2, 67, 44
8, 348720, Note_on_c, 2, 60, 44
8, 348939, Note_on_c, 2, 67, 0
8, 348939, Note_on_c, 2, 60, 0
8, 348960, Note_on_c, 2, 69, 44
8, 348960, Note_on_c, 2, 60, 44
8, 349179, Note_on_c, 2, 69, 0
8, 349179, Note_on_c, 2, 60, 0
8, 349200, Note_on_c, 2, 65, 44
8, 349200, Note_on_c, 2, 60, 44
8, 349419, Note_on_c, 2, 65, 0
8, 349419, Note_on_c, 2, 60, 0
8, 349440, Note_on_c, 2, 64, 44
8, 349440, Note_on_c, 2, 60, 44
8, 349659, Note_on_c, 2, 64, 0
8, 349659, Note_on_c, 2, 60, 0
8, 349680, Note_on_c, 2, 72, 44
8, 349680, Note_on_c, 2, 64, 44
8, 349899, Note_on_c, 2, 72, 0
8, 349899, Note_on_c, 2, 64, 0
8, 349920, Note_on_c, 2, 62, 44
8, 349920, Note_on_c, 2, 71, 44
8, 350139, Note_on_c, 2, 62, 0
8, 350139, Note_on_c, 2, 71, 0
8, 350160, Note_on_c, 2, 62, 44
8, 350160, Note_on_c, 2, 71, 44
8, 350379, Note_on_c, 2, 62, 0
8, 350379, Note_on_c, 2, 71, 0
8, 350400, Note_on_c, 2, 72, 44
8, 350400, Note_on_c, 2, 64, 44
8, 350639, Note_on_c, 2, 72, 0
8, 350639, Note_on_c, 2, 64, 0
8, 351840, Note_on_c, 2, 74, 44
8, 351840, Note_on_c, 2, 67, 44
8, 351984, Note_on_c, 2, 74, 0
8, 351984, Note_on_c, 2, 67, 0
8, 352000, Note_on_c, 2, 74, 44
8, 352000, Note_on_c, 2, 67, 44
8, 352144, Note_on_c, 2, 74, 0
8, 352144, Note_on_c, 2, 67, 0
8, 352160, Note_on_c, 2, 74, 44
8, 352160, Note_on_c, 2, 67, 44
8, 352304, Note_on_c, 2, 74, 0
8, 352304, Note_on_c, 2, 67, 0
8, 352320, Note_on_c, 2, 74, 44
8, 352320, Note_on_c, 2, 67, 44
8, 352479, Note_on_c, 2, 74, 0
8, 352479, Note_on_c, 2, 67, 0
8, 352480, Note_on_c, 2, 76, 44
8, 352480, Note_on_c, 2, 72, 44
8, 352624, Note_on_c, 2, 76, 0
8, 352624, Note_on_c, 2, 72, 0
8, 352640, Note_on_c, 2, 72, 44
8, 352640, Note_on_c, 2, 64, 44
8, 352759, Note_on_c, 2, 72, 0
8, 352759, Note_on_c, 2, 64, 0
8, 357600, Note_on_c, 2, 73, 84
8, 358559, Note_on_c, 2, 73, 0
8, 359520, Note_on_c, 2, 73, 84
8, 360479, Note_on_c, 2, 73, 0
8, 361440, Note_on_c, 2, 73, 84
8, 362379, Note_on_c, 2, 73, 0
8, 362400, Note_on_c, 2, 73, 84
8, 363339, Note_on_c, 2, 73, 0
8, 363360, Note_on_c, 2, 73, 84
8, 364299, Note_on_c, 2, 73, 0
8, 364320, Note_on_c, 2, 69, 84
8, 364464, Note_on_c, 2, 69, 0
8, 364480, Note_on_c, 2, 66, 84
8, 364480, Note_on_c, 2, 78, 84
8, 364624, Note_on_c, 2, 66, 0
8, 364624, Note_on_c, 2, 78, 0
8, 364640, Note_on_c, 2, 66, 84
8, 364640, Note_on_c, 2, 78, 84
8, 364784, Note_on_c, 2, 66, 0
8, 364784, Note_on_c, 2, 78, 0
8, 364800, Note_on_c, 2, 78, 84
8, 364800, Note_on_c, 2, 66, 84
8, 365019, Note_on_c, 2, 78, 0
8, 365019, Note_on_c, 2, 66, 0
8, 365040, Note_on_c, 2, 78, 84
8, 365040, Note_on_c, 2, 66, 84
8, 365259, Note_on_c, 2, 78, 0
8, 365259, Note_on_c, 2, 66, 0
8, 365280, Note_on_c, 2, 78, 84
8, 365280, Note_on_c, 2, 66, 84
8, 365499, Note_on_c, 2, 78, 0
8, 365499, Note_on_c, 2, 66, 0
8, 365520, Note_on_c, 2, 78, 84
8, 365520, Note_on_c, 2, 66, 84
8, 365739, Note_on_c, 2, 78, 0
8, 365739, Note_on_c, 2, 66, 0
8, 365760, Note_on_c, 2, 66, 84
8, 365760, Note_on_c, 2, 78, 84
8, 365979, Note_on_c, 2, 66, 0
8, 365979, Note_on_c, 2, 78, 0
8, 366000, Note_on_c, 2, 66, 84
8, 366000, Note_on_c, 2, 78, 84
8, 366219, Note_on_c, 2, 66, 0
8, 366219, Note_on_c, 2, 78, 0
8, 366240, Note_on_c, 2, 66, 84
8, 366240, Note_on_c, 2, 78, 84
8, 366384, Note_on_c, 2, 66, 0
8, 366384, Note_on_c, 2, 78, 0
8, 366400, Note_on_c, 2, 78, 84
8, 366400, Note_on_c, 2, 66, 84
8, 366544, Note_on_c, 2, 78, 0
8, 366544, Note_on_c, 2, 66, 0
8, 366560, Note_on_c, 2, 66, 84
8, 366560, Note_on_c, 2, 78, 84
8, 366704, Note_on_c, 2, 66, 0
8, 366704, Note_on_c, 2, 78, 0
8, 366720, Note_on_c, 2, 66, 84
8, 366720, Note_on_c, 2, 78, 84
8, 366939, Note_on_c, 2, 66, 0
8, 366939, Note_on_c, 2, 78, 0
8, 366960, Note_on_c, 2, 66, 84
8, 366960, Note_on_c, 2, 78, 84
8, 367179, Note_on_c, 2, 66, 0
8, 367179, Note_on_c, 2, 78, 0
8, 367200, Note_on_c, 2, 66, 84
8, 367200, Note_on_c, 2, 78, 84
8, 367419, Note_on_c, 2, 66, 0
8, 367419, Note_on_c, 2, 78, 0
8, 367440, Note_on_c, 2, 66, 84
8, 367440, Note_on_c, 2, 78, 84
8, 367659, Note_on_c, 2, 66, 0
8, 367659, Note_on_c, 2, 78, 0
8, 367680, Note_on_c, 2, 78, 84
8, 367680, Note_on_c, 2, 66, 84
8, 367899, Note_on_c, 2, 78, 0
8, 367899, Note_on_c, 2, 66, 0
8, 367920, Note_on_c, 2, 78, 84
8, 367920, Note_on_c, 2, 66, 84
8, 368139, Note_on_c, 2, 78, 0
8, 368139, Note_on_c, 2, 66, 0
8, 368160, Note_on_c, 2, 78, 84
8, 368160, Note_on_c, 2, 66, 84
8, 368399, Note_on_c, 2, 78, 0
8, 368399, Note_on_c, 2, 66, 0
8, 368520, Note_on_c, 2, 78, 84
8, 368520, Note_on_c, 2, 66, 84
8, 368619, Note_on_c, 2, 78, 0
8, 368619, Note_on_c, 2, 66, 0
8, 368640, Note_on_c, 2, 66, 84
8, 368640, Note_on_c, 2, 78, 84
8, 368879, Note_on_c, 2, 66, 0
8, 368879, Note_on_c, 2, 78, 0
8, 369120, Note_on_c, 2, 66, 84
8, 369120, Note_on_c, 2, 78, 84
8, 369359, Note_on_c, 2, 66, 0
8, 369359, Note_on_c, 2, 78, 0
8, 369480, Note_on_c, 2, 78, 84
8, 369480, Note_on_c, 2, 66, 84
8, 369579, Note_on_c, 2, 78, 0
8, 369579, Note_on_c, 2, 66, 0
8, 369600, Note_on_c, 2, 67, 84
8, 369600, Note_on_c, 2, 79, 84
8, 369819, Note_on_c, 2, 67, 0
8, 369819, Note_on_c, 2, 79, 0
8, 369840, Note_on_c, 2, 67, 84
8, 369840, Note_on_c, 2, 79, 84
8, 369999, Note_on_c, 2, 67, 0
8, 369999, Note_on_c, 2, 79, 0
8, 370080, Note_on_c, 2, 68, 84
8, 370080, Note_on_c, 2, 80, 84
8, 370239, Note_on_c, 2, 68, 0
8, 370239, Note_on_c, 2, 80, 0
8, 370320, Note_on_c, 2, 66, 84
8, 370320, Note_on_c, 2, 78, 84
8, 370479, Note_on_c, 2, 66, 0
8, 370479, Note_on_c, 2, 78, 0
8, 370560, Note_on_c, 2, 66, 84
8, 370560, Note_on_c, 2, 78, 84
8, 370779, Note_on_c, 2, 66, 0
8, 370779, Note_on_c, 2, 78, 0
8, 370800, Note_on_c, 2, 66, 84
8, 370800, Note_on_c, 2, 78, 84
8, 371019, Note_on_c, 2, 66, 0
8, 371019, Note_on_c, 2, 78, 0
8, 371040, Note_on_c, 2, 78, 84
8, 371040, Note_on_c, 2, 66, 84
8, 371259, Note_on_c, 2, 78, 0
8, 371259, Note_on_c, 2, 66, 0
8, 371280, Note_on_c, 2, 66, 84
8, 371280, Note_on_c, 2, 78, 84
8, 371499, Note_on_c, 2, 66, 0
8, 371499, Note_on_c, 2, 78, 0
8, 371520, Note_on_c, 2, 78, 84
8, 371520, Note_on_c, 2, 66, 84
8, 371739, Note_on_c, 2, 78, 0
8, 371739, Note_on_c, 2, 66, 0
8, 371760, Note_on_c, 2, 73, 84
8, 371760, Note_on_c, 2, 61, 84
8, 371979, Note_on_c, 2, 73, 0
8, 371979, Note_on_c, 2, 61, 0
8, 372000, Note_on_c, 2, 66, 84
8, 372000, Note_on_c, 2, 78, 84
8, 372219, Note_on_c, 2, 66, 0
8, 372219, Note_on_c, 2, 78, 0
8, 372240, Note_on_c, 2, 78, 84
8, 372240, Note_on_c, 2, 66, 84
8, 372459, Note_on_c, 2, 78, 0
8, 372459, Note_on_c, 2, 66, 0
8, 372480, Note_on_c, 2, 66, 84
8, 372480, Note_on_c, 2, 78, 84
8, 372699, Note_on_c, 2, 66, 0
8, 372699, Note_on_c, 2, 78, 0
8, 372720, Note_on_c, 2, 66, 84
8, 372720, Note_on_c, 2, 78, 84
8, 372939, Note_on_c, 2, 66, 0
8, 372939, Note_on_c, 2, 78, 0
8, 372960, Note_on_c, 2, 78, 84
8, 372960, Note_on_c, 2, 66, 84
8, 373179, Note_on_c, 2, 78, 0
8, 373179, Note_on_c, 2, 66, 0
8, 373200, Note_on_c, 2, 66, 84
8, 373200, Note_on_c, 2, 78, 84
8, 373419, Note_on_c, 2, 66, 0
8, 373419, Note_on_c, 2, 78, 0
8, 373440, Note_on_c, 2, 78, 84
8, 373440, Note_on_c, 2, 66, 84
8, 373659, Note_on_c, 2, 78, 0
8, 373659, Note_on_c, 2, 66, 0
8, 373680, Note_on_c, 2, 61, 84
8, 373680, Note_on_c, 2, 73, 84
8, 373899, Note_on_c, 2, 61, 0
8, 373899, Note_on_c, 2, 73, 0
8, 373920, Note_on_c, 2, 66, 84
8, 373920, Note_on_c, 2, 78, 84
8, 374139, Note_on_c, 2, 66, 0
8, 374139, Note_on_c, 2, 78, 0
8, 374160, Note_on_c, 2, 78, 84
8, 374160, Note_on_c, 2, 66, 84
8, 374379, Note_on_c, 2, 78, 0
8, 374379, Note_on_c, 2, 66, 0
8, 374400, Note_on_c, 2, 78, 84
8, 374400, Note_on_c, 2, 66, 84
8, 374619, Note_on_c, 2, 78, 0
8, 374619, Note_on_c, 2, 66, 0
8, 374640, Note_on_c, 2, 78, 84
8, 374640, Note_on_c, 2, 66, 84
8, 374859, Note_on_c, 2, 78, 0
8, 374859, Note_on_c, 2, 66, 0
8, 374880, Note_on_c, 2, 66, 84
8, 374880, Note_on_c, 2, 78, 84
8, 375099, Note_on_c, 2, 66, 0
8, 375099, Note_on_c, 2, 78, 0
8, 375120, Note_on_c, 2, 66, 84
8, 375120, Note_on_c, 2, 78, 84
8, 375339, Note_on_c, 2, 66, 0
8, 375339, Note_on_c, 2, 78, 0
8, 375360, Note_on_c, 2, 78, 84
8, 375360, Note_on_c, 2, 66, 84
8, 375579, Note_on_c, 2, 78, 0
8, 375579, Note_on_c, 2, 66, 0
8, 375600, Note_on_c, 2, 68, 84
8, 375600, Note_on_c, 2, 71, 84
8, 375819, Note_on_c, 2, 68, 0
8, 375819, Note_on_c, 2, 71, 0
8, 375840, Note_on_c, 2, 72, 84
8, 375840, Note_on_c, 2, 69, 84
8, 376059, Note_on_c, 2, 72, 0
8, 376059, Note_on_c, 2, 69, 0
8, 376080, Note_on_c, 2, 69, 84
8, 376080, Note_on_c, 2, 65, 84
8, 376299, Note_on_c, 2, 69, 0
8, 376299, Note_on_c, 2, 65, 0
8, 376320, Note_on_c, 2, 67, 84
8, 376539, Note_on_c, 2, 67, 0
8, 376560, Note_on_c, 2, 65, 84
8, 376779, Note_on_c, 2, 65, 0
8, 376800, Note_on_c, 2, 67, 84
8, 377019, Note_on_c, 2, 67, 0
8, 377040, Note_on_c, 2, 69, 84
8, 377259, Note_on_c, 2, 69, 0
8, 377280, Note_on_c, 2, 70, 84
8, 377499, Note_on_c, 2, 70, 0
8, 377520, Note_on_c, 2, 67, 84
8, 377739, Note_on_c, 2, 67, 0
8, 377760, Note_on_c, 2, 69, 84
8, 377979, Note_on_c, 2, 69, 0
8, 378000, Note_on_c, 2, 65, 84
8, 378219, Note_on_c, 2, 65, 0
8, 378240, Note_on_c, 2, 70, 92
8, 378459, Note_on_c, 2, 70, 0
8, 378480, Note_on_c, 2, 67, 84
8, 378699, Note_on_c, 2, 67, 0
8, 378720, Note_on_c, 2, 69, 84
8, 378939, Note_on_c, 2, 69, 0
8, 378960, Note_on_c, 2, 65, 84
8, 379179, Note_on_c, 2, 65, 0
8, 379200, Note_on_c, 2, 70, 92
8, 379419, Note_on_c, 2, 70, 0
8, 379440, Note_on_c, 2, 67, 84
8, 379659, Note_on_c, 2, 67, 0
8, 379680, Note_on_c, 2, 69, 84
8, 379899, Note_on_c, 2, 69, 0
8, 379920, Note_on_c, 2, 65, 84
8, 380139, Note_on_c, 2, 65, 0
8, 380160, Note_on_c, 2, 70, 92
8, 380379, Note_on_c, 2, 70, 0
8, 380400, Note_on_c, 2, 67, 84
8, 380619, Note_on_c, 2, 67, 0
8, 380640, Note_on_c, 2, 69, 84
8, 380859, Note_on_c, 2, 69, 0
8, 380880, Note_on_c, 2, 65, 84
8, 381099, Note_on_c, 2, 65, 0
8, 381120, Note_on_c, 2, 70, 92
8, 381339, Note_on_c, 2, 70, 0
8, 381360, Note_on_c, 2, 67, 84
8, 381579, Note_on_c, 2, 67, 0
8, 381600, Note_on_c, 2, 69, 92
8, 381819, Note_on_c, 2, 69, 0
8, 381840, Note_on_c, 2, 65, 84
8, 382059, Note_on_c, 2, 65, 0
8, 382080, Note_on_c, 2, 70, 92
8, 382299, Note_on_c, 2, 70, 0
8, 382320, Note_on_c, 2, 67, 84
8, 382539, Note_on_c, 2, 67, 0
8, 382560, Note_on_c, 2, 64, 92
8, 382779, Note_on_c, 2, 64, 0
8, 382800, Note_on_c, 2, 69, 84
8, 383019, Note_on_c, 2, 69, 0
8, 383040, Note_on_c, 2, 65, 92
8, 383259, Note_on_c, 2, 65, 0
8, 383280, Note_on_c, 2, 62, 84
8, 383499, Note_on_c, 2, 62, 0
8, 383520, Note_on_c, 2, 67, 92
8, 383739, Note_on_c, 2, 67, 0
8, 383760, Note_on_c, 2, 64, 84
8, 383979, Note_on_c, 2, 64, 0
8, 384000, Note_on_c, 2, 60, 92
8, 384219, Note_on_c, 2, 60, 0
8, 384240, Note_on_c, 2, 65, 84
8, 384459, Note_on_c, 2, 65, 0
8, 384480, Note_on_c, 2, 62, 92
8, 384699, Note_on_c, 2, 62, 0
8, 384720, Note_on_c, 2, 58, 84
8, 384939, Note_on_c, 2, 58, 0
8, 384960, Note_on_c, 2, 64, 92
8, 385179, Note_on_c, 2, 64, 0
8, 385200, Note_on_c, 2, 60, 84
8, 385419, Note_on_c, 2, 60, 0
8, 385440, Note_on_c, 2, 57, 92
8, 385659, Note_on_c, 2, 57, 0
8, 385680, Note_on_c, 2, 74, 84
8, 385680, Note_on_c, 2, 62, 84
8, 385899, Note_on_c, 2, 74, 0
8, 385899, Note_on_c, 2, 62, 0
8, 385920, Note_on_c, 2, 58, 92
8, 385920, Note_on_c, 2, 70, 92
8, 386139, Note_on_c, 2, 58, 0
8, 386139, Note_on_c, 2, 70, 0
8, 386160, Note_on_c, 2, 55, 84
8, 386160, Note_on_c, 2, 67, 84
8, 386379, Note_on_c, 2, 55, 0
8, 386379, Note_on_c, 2, 67, 0
8, 386400, Note_on_c, 2, 72, 92
8, 386400, Note_on_c, 2, 60, 92
8, 386619, Note_on_c, 2, 72, 0
8, 386619, Note_on_c, 2, 60, 0
8, 386640, Note_on_c, 2, 69, 84
8, 386640, Note_on_c, 2, 57, 84
8, 386859, Note_on_c, 2, 69, 0
8, 386859, Note_on_c, 2, 57, 0
8, 386880, Note_on_c, 2, 65, 92
8, 387099, Note_on_c, 2, 65, 0
8, 387120, Note_on_c, 2, 70, 84
8, 387339, Note_on_c, 2, 70, 0
8, 387360, Note_on_c, 2, 67, 92
8, 387579, Note_on_c, 2, 67, 0
8, 387600, Note_on_c, 2, 64, 84
8, 387819, Note_on_c, 2, 64, 0
8, 387840, Note_on_c, 2, 60, 92
8, 388059, Note_on_c, 2, 60, 0
8, 388080, Note_on_c, 2, 67, 84
8, 388080, Note_on_c, 2, 70, 84
8, 388299, Note_on_c, 2, 67, 0
8, 388299, Note_on_c, 2, 70, 0
8, 388320, Note_on_c, 2, 70, 92
8, 388320, Note_on_c, 2, 67, 92
8, 388539, Note_on_c, 2, 70, 0
8, 388539, Note_on_c, 2, 67, 0
8, 388560, Note_on_c, 2, 67, 84
8, 388560, Note_on_c, 2, 70, 84
8, 388779, Note_on_c, 2, 67, 0
8, 388779, Note_on_c, 2, 70, 0
8, 388800, Note_on_c, 2, 67, 92
8, 388800, Note_on_c, 2, 70, 92
8, 389019, Note_on_c, 2, 67, 0
8, 389019, Note_on_c, 2, 70, 0
8, 389040, Note_on_c, 2, 70, 84
8, 389040, Note_on_c, 2, 67, 84
8, 389259, Note_on_c, 2, 70, 0
8, 389259, Note_on_c, 2, 67, 0
8, 389280, Note_on_c, 2, 70, 92
8, 389280, Note_on_c, 2, 67, 92
8, 389499, Note_on_c, 2, 70, 0
8, 389499, Note_on_c, 2, 67, 0
8, 389520, Note_on_c, 2, 70, 84
8, 389520, Note_on_c, 2, 67, 84
8, 389739, Note_on_c, 2, 70, 0
8, 389739, Note_on_c, 2, 67, 0
8, 389760, Note_on_c, 2, 67, 92
8, 389760, Note_on_c, 2, 70, 92
8, 389979, Note_on_c, 2, 67, 0
8, 389979, Note_on_c, 2, 70, 0
8, 390000, Note_on_c, 2, 70, 84
8, 390000, Note_on_c, 2, 67, 84
8, 390219, Note_on_c, 2, 70, 0
8, 390219, Note_on_c, 2, 67, 0
8, 390240, Note_on_c, 2, 67, 92
8, 390240, Note_on_c, 2, 70, 92
8, 390459, Note_on_c, 2, 67, 0
8, 390459, Note_on_c, 2, 70, 0
8, 390480, Note_on_c, 2, 67, 84
8, 390480, Note_on_c, 2, 70, 84
8, 390699, Note_on_c, 2, 67, 0
8, 390699, Note_on_c, 2, 70, 0
8, 390720, Note_on_c, 2, 70, 92
8, 390720, Note_on_c, 2, 67, 92
8, 390939, Note_on_c, 2, 70, 0
8, 390939, Note_on_c, 2, 67, 0
8, 390960, Note_on_c, 2, 67, 84
8, 390960, Note_on_c, 2, 70, 84
8, 391179, Note_on_c, 2, 67, 0
8, 391179, Note_on_c, 2, 70, 0
8, 391200, Note_on_c, 2, 70, 92
8, 391200, Note_on_c, 2, 67, 92
8, 391419, Note_on_c, 2, 70, 0
8, 391419, Note_on_c, 2, 67, 0
8, 391440, Note_on_c, 2, 67, 84
8, 391440, Note_on_c, 2, 64, 84
8, 391659, Note_on_c, 2, 67, 0
8, 391659, Note_on_c, 2, 64, 0
8, 391680, Note_on_c, 2, 65, 76
8, 391760, Control_c, 2, 11, 80
8, 392639, Note_on_c, 2, 65, 0
8, 392640, Note_on_c, 2, 72, 76
8, 393359, Note_on_c, 2, 72, 0
8, 393360, Note_on_c, 2, 74, 76
8, 393579, Note_on_c, 2, 74, 0
8, 393600, Note_on_c, 2, 74, 76
8, 393839, Note_on_c, 2, 74, 0
8, 393840, Note_on_c, 2, 67, 76
8, 394059, Note_on_c, 2, 67, 0
8, 394080, Note_on_c, 2, 67, 76
8, 394319, Note_on_c, 2, 67, 0
8, 394320, Note_on_c, 2, 69, 76
8, 394559, Note_on_c, 2, 69, 0
8, 394560, Note_on_c, 2, 70, 76
8, 394799, Note_on_c, 2, 70, 0
8, 395040, Note_on_c, 2, 72, 76
8, 395279, Note_on_c, 2, 72, 0
8, 395520, Note_on_c, 2, 69, 76
8, 396479, Note_on_c, 2, 69, 0
8, 396480, Note_on_c, 2, 72, 76
8, 396719, Note_on_c, 2, 72, 0
8, 396720, Note_on_c, 2, 74, 76
8, 396799, Note_on_c, 2, 74, 0
8, 396800, Note_on_c, 2, 72, 76
8, 396879, Note_on_c, 2, 72, 0
8, 396880, Note_on_c, 2, 71, 76
8, 396959, Note_on_c, 2, 71, 0
8, 396960, Note_on_c, 2, 72, 76
8, 397199, Note_on_c, 2, 72, 0
8, 397200, Note_on_c, 2, 73, 76
8, 397439, Note_on_c, 2, 73, 0
8, 397440, Note_on_c, 2, 76, 76
8, 397679, Note_on_c, 2, 76, 0
8, 397680, Note_on_c, 2, 74, 76
8, 397919, Note_on_c, 2, 74, 0
8, 397920, Note_on_c, 2, 67, 76
8, 398159, Note_on_c, 2, 67, 0
8, 398160, Note_on_c, 2, 69, 76
8, 398399, Note_on_c, 2, 69, 0
8, 398400, Note_on_c, 2, 70, 76
8, 398639, Note_on_c, 2, 70, 0
8, 398880, Note_on_c, 2, 72, 76
8, 399119, Note_on_c, 2, 72, 0
8, 399240, Control_c, 2, 11, 127
8, 399360, Note_on_c, 2, 69, 76
8, 399599, Note_on_c, 2, 69, 0
8, 399840, Note_on_c, 2, 77, 76
8, 399840, Note_on_c, 2, 69, 76
8, 400079, Note_on_c, 2, 77, 0
8, 400079, Note_on_c, 2, 69, 0
8, 400800, Note_on_c, 2, 77, 76
8, 400800, Note_on_c, 2, 69, 76
8, 401039, Note_on_c, 2, 77, 0
8, 401039, Note_on_c, 2, 69, 0
8, 401760, Note_on_c, 2, 77, 76
8, 401760, Note_on_c, 2, 74, 76
8, 401999, Note_on_c, 2, 77, 0
8, 401999, Note_on_c, 2, 74, 0
8, 402720, Note_on_c, 2, 76, 76
8, 402720, Note_on_c, 2, 67, 76
8, 402959, Note_on_c, 2, 76, 0
8, 402959, Note_on_c, 2, 67, 0
8, 403200, Note_on_c, 2, 77, 52
8, 403200, Note_on_c, 2, 69, 52
8, 403439, Note_on_c, 2, 77, 0
8, 403439, Note_on_c, 2, 69, 0
8, 405120, Note_on_c, 2, 70, 52
8, 405120, Note_on_c, 2, 82, 52
8, 405839, Note_on_c, 2, 70, 0
8, 405839, Note_on_c, 2, 82, 0
8, 405840, Note_on_c, 2, 69, 52
8, 405840, Note_on_c, 2, 81, 52
8, 406079, Note_on_c, 2, 69, 0
8, 406079, Note_on_c, 2, 81, 0
8, 406080, Note_on_c, 2, 79, 52
8, 406080, Note_on_c, 2, 67, 52
8, 406319, Note_on_c, 2, 79, 0
8, 406319, Note_on_c, 2, 67, 0
8, 406560, Note_on_c, 2, 60, 52
8, 406560, Note_on_c, 2, 72, 52
8, 406799, Note_on_c, 2, 60, 0
8, 406799, Note_on_c, 2, 72, 0
8, 407040, Note_on_c, 2, 60, 52
8, 407040, Note_on_c, 2, 72, 52
8, 407279, Note_on_c, 2, 60, 0
8, 407279, Note_on_c, 2, 72, 0
8, 408960, Note_on_c, 2, 70, 52
8, 408960, Note_on_c, 2, 82, 52
8, 409679, Note_on_c, 2, 70, 0
8, 409679, Note_on_c, 2, 82, 0
8, 409680, Note_on_c, 2, 69, 52
8, 409680, Note_on_c, 2, 81, 52
8, 409919, Note_on_c, 2, 69, 0
8, 409919, Note_on_c, 2, 81, 0
8, 409920, Note_on_c, 2, 79, 52
8, 409920, Note_on_c, 2, 67, 52
8, 410159, Note_on_c, 2, 79, 0
8, 410159, Note_on_c, 2, 67, 0
8, 410400, Note_on_c, 2, 72, 52
8, 410400, Note_on_c, 2, 60, 52
8, 410639, Note_on_c, 2, 72, 0
8, 410639, Note_on_c, 2, 60, 0
8, 410880, Note_on_c, 2, 72, 76
8, 410880, Note_on_c, 2, 60, 76
8, 411119, Note_on_c, 2, 72, 0
8, 411119, Note_on_c, 2, 60, 0
8, 411360, Note_on_c, 2, 77, 76
8, 411360, Note_on_c, 2, 69, 76
8, 411599, Note_on_c, 2, 77, 0
8, 411599, Note_on_c, 2, 69, 0
8, 412320, Note_on_c, 2, 77, 76
8, 412320, Note_on_c, 2, 69, 76
8, 412559, Note_on_c, 2, 77, 0
8, 412559, Note_on_c, 2, 69, 0
8, 413280, Note_on_c, 2, 77, 76
8, 413280, Note_on_c, 2, 74, 76
8, 413519, Note_on_c, 2, 77, 0
8, 413519, Note_on_c, 2, 74, 0
8, 414240, Note_on_c, 2, 67, 76
8, 414240, Note_on_c, 2, 76, 76
8, 414479, Note_on_c, 2, 67, 0
8, 414479, Note_on_c, 2, 76, 0
8, 414720, Note_on_c, 2, 69, 84
8, 414720, Note_on_c, 2, 81, 84
8, 418539, Note_on_c, 2, 69, 0
8, 418539, Note_on_c, 2, 81, 0
8, 418560, Note_on_c, 2, 64, 84
8, 418560, Note_on_c, 2, 76, 84
8, 418799, Note_on_c, 2, 64, 0
8, 418799, Note_on_c, 2, 76, 0
8, 419040, Note_on_c, 2, 76, 84
8, 419040, Note_on_c, 2, 67, 84
8, 419279, Note_on_c, 2, 76, 0
8, 419279, Note_on_c, 2, 67, 0
8, 419520, Note_on_c, 2, 67, 84
8, 419520, Note_on_c, 2, 76, 84
8, 419759, Note_on_c, 2, 67, 0
8, 419759, Note_on_c, 2, 76, 0
8, 420000, Note_on_c, 2, 67, 84
8, 420000, Note_on_c, 2, 70, 84
8, 420239, Note_on_c, 2, 67, 0
8, 420239, Note_on_c, 2, 70, 0
8, 424800, Note_on_c, 2, 65, 76
8, 424800, Note_on_c, 2, 69, 76
8, 424944, Note_on_c, 2, 65, 0
8, 424944, Note_on_c, 2, 69, 0
8, 424960, Note_on_c, 2, 69, 76
8, 424960, Note_on_c, 2, 65, 76
8, 425104, Note_on_c, 2, 69, 0
8, 425104, Note_on_c, 2, 65, 0
8, 425120, Note_on_c, 2, 69, 76
8, 425120, Note_on_c, 2, 65, 76
8, 425264, Note_on_c, 2, 69, 0
8, 425264, Note_on_c, 2, 65, 0
8, 425280, Note_on_c, 2, 70, 76
8, 425280, Note_on_c, 2, 67, 76
8, 425439, Note_on_c, 2, 70, 0
8, 425439, Note_on_c, 2, 67, 0
8, 425520, Note_on_c, 2, 67, 76
8, 425520, Note_on_c, 2, 60, 76
8, 425679, Note_on_c, 2, 67, 0
8, 425679, Note_on_c, 2, 60, 0
8, 425760, Note_on_c, 2, 70, 76
8, 425760, Note_on_c, 2, 67, 76
8, 425919, Note_on_c, 2, 70, 0
8, 425919, Note_on_c, 2, 67, 0
8, 426000, Note_on_c, 2, 67, 76
8, 426000, Note_on_c, 2, 60, 76
8, 426159, Note_on_c, 2, 67, 0
8, 426159, Note_on_c, 2, 60, 0
8, 426240, Note_on_c, 2, 69, 76
8, 426240, Note_on_c, 2, 72, 76
8, 426459, Note_on_c, 2, 69, 0
8, 426459, Note_on_c, 2, 72, 0
8, 426480, Note_on_c, 2, 69, 76
8, 426480, Note_on_c, 2, 65, 76
8, 426699, Note_on_c, 2, 69, 0
8, 426699, Note_on_c, 2, 65, 0
8, 426720, Note_on_c, 2, 72, 76
8, 426720, Note_on_c, 2, 69, 76
8, 426939, Note_on_c, 2, 72, 0
8, 426939, Note_on_c, 2, 69, 0
8, 426960, Note_on_c, 2, 69, 76
8, 426960, Note_on_c, 2, 65, 76
8, 427179, Note_on_c, 2, 69, 0
8, 427179, Note_on_c, 2, 65, 0
8, 427200, Note_on_c, 2, 67, 76
8, 427200, Note_on_c, 2, 70, 76
8, 427419, Note_on_c, 2, 67, 0
8, 427419, Note_on_c, 2, 70, 0
8, 427440, Note_on_c, 2, 60, 76
8, 427440, Note_on_c, 2, 67, 76
8, 427659, Note_on_c, 2, 60, 0
8, 427659, Note_on_c, 2, 67, 0
8, 427680, Note_on_c, 2, 70, 76
8, 427680, Note_on_c, 2, 67, 76
8, 427899, Note_on_c, 2, 70, 0
8, 427899, Note_on_c, 2, 67, 0
8, 427920, Note_on_c, 2, 67, 76
8, 427920, Note_on_c, 2, 60, 76
8, 428139, Note_on_c, 2, 67, 0
8, 428139, Note_on_c, 2, 60, 0
8, 428160, Note_on_c, 2, 72, 76
8, 428160, Note_on_c, 2, 69, 76
8, 428379, Note_on_c, 2, 72, 0
8, 428379, Note_on_c, 2, 69, 0
8, 428400, Note_on_c, 2, 69, 76
8, 428400, Note_on_c, 2, 65, 76
8, 428619, Note_on_c, 2, 69, 0
8, 428619, Note_on_c, 2, 65, 0
8, 428640, Note_on_c, 2, 69, 76
8, 428640, Note_on_c, 2, 65, 76
8, 428784, Note_on_c, 2, 69, 0
8, 428784, Note_on_c, 2, 65, 0
8, 428800, Note_on_c, 2, 69, 76
8, 428800, Note_on_c, 2, 65, 76
8, 428944, Note_on_c, 2, 69, 0
8, 428944, Note_on_c, 2, 65, 0
8, 428960, Note_on_c, 2, 65, 76
8, 428960, Note_on_c, 2, 69, 76
8, 429104, Note_on_c, 2, 65, 0
8, 429104, Note_on_c, 2, 69, 0
8, 429120, Note_on_c, 2, 67, 76
8, 429120, Note_on_c, 2, 70, 76
8, 429339, Note_on_c, 2, 67, 0
8, 429339, Note_on_c, 2, 70, 0
8, 429360, Note_on_c, 2, 67, 76
8, 429360, Note_on_c, 2, 60, 76
8, 429579, Note_on_c, 2, 67, 0
8, 429579, Note_on_c, 2, 60, 0
8, 429600, Note_on_c, 2, 70, 76
8, 429600, Note_on_c, 2, 67, 76
8, 429819, Note_on_c, 2, 70, 0
8, 429819, Note_on_c, 2, 67, 0
8, 429840, Note_on_c, 2, 67, 76
8, 429840, Note_on_c, 2, 60, 76
8, 430059, Note_on_c, 2, 67, 0
8, 430059, Note_on_c, 2, 60, 0
8, 430080, Note_on_c, 2, 69, 76
8, 430080, Note_on_c, 2, 72, 76
8, 430299, Note_on_c, 2, 69, 0
8, 430299, Note_on_c, 2, 72, 0
8, 430320, Note_on_c, 2, 65, 76
8, 430320, Note_on_c, 2, 69, 76
8, 430539, Note_on_c, 2, 65, 0
8, 430539, Note_on_c, 2, 69, 0
8, 430560, Note_on_c, 2, 72, 76
8, 430560, Note_on_c, 2, 69, 76
8, 430779, Note_on_c, 2, 72, 0
8, 430779, Note_on_c, 2, 69, 0
8, 430800, Note_on_c, 2, 69, 76
8, 430800, Note_on_c, 2, 65, 76
8, 431019, Note_on_c, 2, 69, 0
8, 431019, Note_on_c, 2, 65, 0
8, 431040, Note_on_c, 2, 67, 76
8, 431040, Note_on_c, 2, 70, 76
8, 431259, Note_on_c, 2, 67, 0
8, 431259, Note_on_c, 2, 70, 0
8, 431280, Note_on_c, 2, 72, 76
8, 431280, Note_on_c, 2, 69, 76
8, 431499, Note_on_c, 2, 72, 0
8, 431499, Note_on_c, 2, 69, 0
8, 431520, Note_on_c, 2, 70, 76
8, 431520, Note_on_c, 2, 74, 76
8, 431739, Note_on_c, 2, 70, 0
8, 431739, Note_on_c, 2, 74, 0
8, 431760, Note_on_c, 2, 76, 76
8, 431760, Note_on_c, 2, 67, 76
8, 431979, Note_on_c, 2, 76, 0
8, 431979, Note_on_c, 2, 67, 0
8, 432000, Note_on_c, 2, 77, 84
8, 432000, Note_on_c, 2, 69, 84
8, 432080, Control_c, 2, 11, 112
8, 432939, Note_on_c, 2, 77, 0
8, 432939, Note_on_c, 2, 69, 0
8, 432958, Control_c, 2, 11, 127
8, 432960, Note_on_c, 2, 65, 84
8, 432960, Note_on_c, 2, 69, 84
8, 433040, Control_c, 2, 11, 112
8, 433899, Note_on_c, 2, 65, 0
8, 433899, Note_on_c, 2, 69, 0
8, 433918, Control_c, 2, 11, 127
8, 433920, Note_on_c, 2, 77, 84
8, 433920, Note_on_c, 2, 81, 84
8, 434000, Control_c, 2, 11, 112
8, 434859, Note_on_c, 2, 77, 0
8, 434859, Note_on_c, 2, 81, 0
8, 434878, Control_c, 2, 11, 127
8, 434880, Note_on_c, 2, 69, 84
8, 434880, Note_on_c, 2, 65, 84
8, 434960, Control_c, 2, 11, 112
8, 435819, Note_on_c, 2, 69, 0
8, 435819, Note_on_c, 2, 65, 0
8, 435838, Control_c, 2, 11, 127
8, 435840, Note_on_c, 2, 77, 84
8, 435840, Note_on_c, 2, 81, 84
8, 435920, Control_c, 2, 11, 112
8, 436299, Note_on_c, 2, 77, 0
8, 436299, Note_on_c, 2, 81, 0
8, 436318, Control_c, 2, 11, 127
8, 436320, Note_on_c, 2, 69, 84
8, 436320, Note_on_c, 2, 65, 84
8, 436400, Control_c, 2, 11, 112
8, 436779, Note_on_c, 2, 69, 0
8, 436779, Note_on_c, 2, 65, 0
8, 436798, Control_c, 2, 11, 127
8, 436800, Note_on_c, 2, 81, 84
8, 436800, Note_on_c, 2, 77, 84
8, 436880, Control_c, 2, 11, 112
8, 437259, Note_on_c, 2, 81, 0
8, 437259, Note_on_c, 2, 77, 0
8, 437278, Control_c, 2, 11, 127
8, 437280, Note_on_c, 2, 65, 84
8, 437280, Note_on_c, 2, 69, 84
8, 437360, Control_c, 2, 11, 112
8, 437739, Note_on_c, 2, 65, 0
8, 437739, Note_on_c, 2, 69, 0
8, 437758, Control_c, 2, 11, 127
8, 437760, Note_on_c, 2, 81, 84
8, 437760, Note_on_c, 2, 77, 84
8, 437840, Control_c, 2, 11, 112
8, 438219, Note_on_c, 2, 81, 0
8, 438219, Note_on_c, 2, 77, 0
8, 438238, Control_c, 2, 11, 127
8, 438240, Note_on_c, 2, 65, 84
8, 438240, Note_on_c, 2, 69, 84
8, 438320, Control_c, 2, 11, 112
8, 438699, Note_on_c, 2, 65, 0
8, 438699, Note_on_c, 2, 69, 0
8, 438718, Control_c, 2, 11, 127
8, 438720, Note_on_c, 2, 77, 84
8, 438720, Note_on_c, 2, 81, 84
8, 438800, Control_c, 2, 11, 112
8, 439179, Note_on_c, 2, 77, 0
8, 439179, Note_on_c, 2, 81, 0
8, 439198, Control_c, 2, 11, 127
8, 439200, Note_on_c, 2, 69, 84
8, 439200, Note_on_c, 2, 65, 84
8, 439280, Control_c, 2, 11, 112
8, 439659, Note_on_c, 2, 69, 0
8, 439659, Note_on_c, 2, 65, 0
8, 439678, Control_c, 2, 11, 127
8, 441600, Note_on_c, 2, 69, 52
8, 441600, Note_on_c, 2, 65, 52
8, 442559, Note_on_c, 2, 69, 0
8, 442559, Note_on_c, 2, 65, 0
8, 445440, Note_on_c, 2, 65, 52
8, 445440, Note_on_c, 2, 69, 52
8, 446399, Note_on_c, 2, 65, 0
8, 446399, Note_on_c, 2, 69, 0
8, 448320, Note_on_c, 2, 65, 52
8, 448320, Note_on_c, 2, 69, 52
8, 448779, Note_on_c, 2, 65, 0
8, 448779, Note_on_c, 2, 69, 0
8, 448800, Note_on_c, 2, 53, 52
8, 448800, Note_on_c, 2, 57, 52
8, 449279, Note_on_c, 2, 53, 0
8, 449279, Note_on_c, 2, 57, 0
8, 450240, Note_on_c, 2, 65, 52
8, 450240, Note_on_c, 2, 69, 52
8, 450719, Note_on_c, 2, 65, 0
8, 450719, Note_on_c, 2, 69, 0
8, 451680, Note_on_c, 2, 77, 44
8, 451680, Note_on_c, 2, 69, 44
8, 451799, Note_on_c, 2, 77, 0
8, 451799, Note_on_c, 2, 69, 0
8, 452040, Note_on_c, 2, 76, 44
8, 452040, Note_on_c, 2, 72, 44
8, 452139, Note_on_c, 2, 76, 0
8, 452139, Note_on_c, 2, 72, 0
8, 452160, Note_on_c, 2, 72, 44
8, 452160, Note_on_c, 2, 76, 44
8, 452399, Note_on_c, 2, 72, 0
8, 452399, Note_on_c, 2, 76, 0
8, 452400, Note_on_c, 2, 70, 44
8, 452400, Note_on_c, 2, 74, 44
8, 452619, Note_on_c, 2, 70, 0
8, 452619, Note_on_c, 2, 74, 0
8, 452640, Note_on_c, 2, 69, 44
8, 452640, Note_on_c, 2, 72, 44
8, 452799, Note_on_c, 2, 69, 0
8, 452799, Note_on_c, 2, 72, 0
8, 453000, Note_on_c, 2, 72, 44
8, 453000, Note_on_c, 2, 69, 44
8, 453099, Note_on_c, 2, 72, 0
8, 453099, Note_on_c, 2, 69, 0
8, 453120, Note_on_c, 2, 69, 44
8, 453120, Note_on_c, 2, 72, 44
8, 453359, Note_on_c, 2, 69, 0
8, 453359, Note_on_c, 2, 72, 0
8, 453360, Note_on_c, 2, 70, 44
8, 453360, Note_on_c, 2, 67, 44
8, 453599, Note_on_c, 2, 70, 0
8, 453599, Note_on_c, 2, 67, 0
8, 455040, Control_c, 2, 11, 64
8, 455520, Note_on_c, 2, 77, 76
8, 455520, Note_on_c, 2, 69, 76
8, 455679, Note_on_c, 2, 77, 0
8, 455679, Note_on_c, 2, 69, 0
8, 455880, Note_on_c, 2, 72, 76
8, 455880, Note_on_c, 2, 76, 76
8, 455979, Note_on_c, 2, 72, 0
8, 455979, Note_on_c, 2, 76, 0
8, 456000, Note_on_c, 2, 76, 76
8, 456000, Note_on_c, 2, 72, 76
8, 456239, Note_on_c, 2, 76, 0
8, 456239, Note_on_c, 2, 72, 0
8, 456240, Note_on_c, 2, 70, 76
8, 456240, Note_on_c, 2, 74, 76
8, 456459, Note_on_c, 2, 70, 0
8, 456459, Note_on_c, 2, 74, 0
8, 456480, Note_on_c, 2, 69, 76
8, 456480, Note_on_c, 2, 72, 76
8, 456639, Note_on_c, 2, 69, 0
8, 456639, Note_on_c, 2, 72, 0
8, 456840, Note_on_c, 2, 69, 76
8, 456840, Note_on_c, 2, 72, 76
8, 456939, Note_on_c, 2, 69, 0
8, 456939, Note_on_c, 2, 72, 0
8, 456960, Note_on_c, 2, 70, 76
8, 456960, Note_on_c, 2, 67, 76
8, 456960, Control_c, 2, 11, 64
8, 457120, Control_c, 2, 11, 67
8, 457280, Control_c, 2, 11, 69
8, 457440, Control_c, 2, 11, 72
8, 457600, Control_c, 2, 11, 75
8, 457760, Control_c, 2, 11, 77
8, 457920, Control_c, 2, 11, 80
8, 458080, Control_c, 2, 11, 82
8, 458240, Control_c, 2, 11, 85
8, 458400, Control_c, 2, 11, 88
8, 458560, Control_c, 2, 11, 90
8, 458720, Control_c, 2, 11, 93
8, 458880, Control_c, 2, 11, 96
8, 459040, Control_c, 2, 11, 98
8, 459200, Control_c, 2, 11, 101
8, 459360, Control_c, 2, 11, 103
8, 459520, Control_c, 2, 11, 106
8, 459680, Control_c, 2, 11, 109
8, 459840, Control_c, 2, 11, 111
8, 460000, Control_c, 2, 11, 114
8, 460160, Control_c, 2, 11, 117
8, 460320, Control_c, 2, 11, 119
8, 460480, Control_c, 2, 11, 122
8, 460640, Control_c, 2, 11, 127
8, 460779, Note_on_c, 2, 70, 0
8, 460779, Note_on_c, 2, 67, 0
8, 460800, Note_on_c, 2, 69, 76
8, 460800, Note_on_c, 2, 65, 76
8, 460944, Note_on_c, 2, 69, 0
8, 460944, Note_on_c, 2, 65, 0
8, 460960, Note_on_c, 2, 65, 76
8, 460960, Note_on_c, 2, 77, 76
8, 461104, Note_on_c, 2, 65, 0
8, 461104, Note_on_c, 2, 77, 0
8, 461120, Note_on_c, 2, 65, 76
8, 461120, Note_on_c, 2, 77, 76
8, 461264, Note_on_c, 2, 65, 0
8, 461264, Note_on_c, 2, 77, 0
8, 461280, Note_on_c, 2, 77, 76
8, 461280, Note_on_c, 2, 65, 76
8, 461424, Note_on_c, 2, 77, 0
8, 461424, Note_on_c, 2, 65, 0
8, 461440, Note_on_c, 2, 65, 76
8, 461440, Note_on_c, 2, 77, 76
8, 461584, Note_on_c, 2, 65, 0
8, 461584, Note_on_c, 2, 77, 0
8, 461600, Note_on_c, 2, 77, 76
8, 461600, Note_on_c, 2, 65, 76
8, 461744, Note_on_c, 2, 77, 0
8, 461744, Note_on_c, 2, 65, 0
8, 461760, Note_on_c, 2, 77, 76
8, 461760, Note_on_c, 2, 65, 76
8, 461904, Note_on_c, 2, 77, 0
8, 461904, Note_on_c, 2, 65, 0
8, 461920, Note_on_c, 2, 65, 76
8, 461920, Note_on_c, 2, 77, 76
8, 462064, Note_on_c, 2, 65, 0
8, 462064, Note_on_c, 2, 77, 0
8, 462080, Note_on_c, 2, 65, 76
8, 462080, Note_on_c, 2, 77, 76
8, 462224, Note_on_c, 2, 65, 0
8, 462224, Note_on_c, 2, 77, 0
8, 462240, Note_on_c, 2, 77, 76
8, 462240, Note_on_c, 2, 65, 76
8, 462384, Note_on_c, 2, 77, 0
8, 462384, Note_on_c, 2, 65, 0
8, 462400, Note_on_c, 2, 65, 76
8, 462400, Note_on_c, 2, 77, 76
8, 462544, Note_on_c, 2, 65, 0
8, 462544, Note_on_c, 2, 77, 0
8, 462560, Note_on_c, 2, 77, 76
8, 462560, Note_on_c, 2, 65, 76
8, 462704, Note_on_c, 2, 77, 0
8, 462704, Note_on_c, 2, 65, 0
8, 462720, Note_on_c, 2, 77, 76
8, 462720, Note_on_c, 2, 65, 76
8, 462959, Note_on_c, 2, 77, 0
8, 462959, Note_on_c, 2, 65, 0
8, 463680, Note_on_c, 2, 67, 76
8, 463680, Note_on_c, 2, 76, 76
8, 463919, Note_on_c, 2, 67, 0
8, 463919, Note_on_c, 2, 76, 0
8, 464640, Note_on_c, 2, 77, 76
8, 464640, Note_on_c, 2, 69, 76
8, 464879, Note_on_c, 2, 77, 0
8, 464879, Note_on_c, 2, 69, 0
8, 465600, Note_on_c, 2, 76, 76
8, 465600, Note_on_c, 2, 67, 76
8, 465839, Note_on_c, 2, 76, 0
8, 465839, Note_on_c, 2, 67, 0
8, 466560, Note_on_c, 2, 77, 76
8, 466560, Note_on_c, 2, 69, 76
8, 466799, Note_on_c, 2, 77, 0
8, 466799, Note_on_c, 2, 69, 0
8, 467040, Note_on_c, 2, 67, 76
8, 467040, Note_on_c, 2, 76, 76
8, 467279, Note_on_c, 2, 67, 0
8, 467279, Note_on_c, 2, 76, 0
8, 467520, Note_on_c, 2, 69, 76
8, 467520, Note_on_c, 2, 77, 76
8, 467759, Note_on_c, 2, 69, 0
8, 467759, Note_on_c, 2, 77, 0
8, 468000, Note_on_c, 2, 76, 76
8, 468000, Note_on_c, 2, 67, 76
8, 468239, Note_on_c, 2, 76, 0
8, 468239, Note_on_c, 2, 67, 0
8, 468480, Note_on_c, 2, 77, 76
8, 468480, Note_on_c, 2, 69, 76
8, 468719, Note_on_c, 2, 77, 0
8, 468719, Note_on_c, 2, 69, 0
8, 468960, Note_on_c, 2, 76, 76
8, 468960, Note_on_c, 2, 67, 76
8, 469199, Note_on_c, 2, 76, 0
8, 469199, Note_on_c, 2, 67, 0
8, 469440, Note_on_c, 2, 69, 76
8, 469440, Note_on_c, 2, 77, 76
8, 469679, Note_on_c, 2, 69, 0
8, 469679, Note_on_c, 2, 77, 0
8, 469920, Note_on_c, 2, 76, 76
8, 469920, Note_on_c, 2, 67, 76
8, 470159, Note_on_c, 2, 76, 0
8, 470159, Note_on_c, 2, 67, 0
8, 470400, Note_on_c, 2, 65, 84
8, 470400, Note_on_c, 2, 69, 84
8, 470544, Note_on_c, 2, 65, 0
8, 470544, Note_on_c, 2, 69, 0
8, 470560, Note_on_c, 2, 69, 84
8, 470560, Note_on_c, 2, 65, 84
8, 470704, Note_on_c, 2, 69, 0
8, 470704, Note_on_c, 2, 65, 0
8, 470720, Note_on_c, 2, 69, 84
8, 470720, Note_on_c, 2, 65, 84
8, 470864, Note_on_c, 2, 69, 0
8, 470864, Note_on_c, 2, 65, 0
8, 470880, Note_on_c, 2, 69, 84
8, 470880, Note_on_c, 2, 65, 84
8, 471024, Note_on_c, 2, 69, 0
8, 471024, Note_on_c, 2, 65, 0
8, 471040, Note_on_c, 2, 65, 84
8, 471040, Note_on_c, 2, 69, 84
8, 471184, Note_on_c, 2, 65, 0
8, 471184, Note_on_c, 2, 69, 0
8, 471200, Note_on_c, 2, 65, 84
8, 471200, Note_on_c, 2, 69, 84
8, 471344, Note_on_c, 2, 65, 0
8, 471344, Note_on_c, 2, 69, 0
8, 471360, Note_on_c, 2, 65, 84
8, 471360, Note_on_c, 2, 69, 84
8, 471504, Note_on_c, 2, 65, 0
8, 471504, Note_on_c, 2, 69, 0
8, 471520, Note_on_c, 2, 69, 84
8, 471520, Note_on_c, 2, 65, 84
8, 471664, Note_on_c, 2, 69, 0
8, 471664, Note_on_c, 2, 65, 0
8, 471680, Note_on_c, 2, 69, 84
8, 471680, Note_on_c, 2, 65, 84
8, 471824, Note_on_c, 2, 69, 0
8, 471824, Note_on_c, 2, 65, 0
8, 471840, Note_on_c, 2, 65, 84
8, 471840, Note_on_c, 2, 69, 84
8, 471984, Note_on_c, 2, 65, 0
8, 471984, Note_on_c, 2, 69, 0
8, 472000, Note_on_c, 2, 69, 84
8, 472000, Note_on_c, 2, 65, 84
8, 472144, Note_on_c, 2, 69, 0
8, 472144, Note_on_c, 2, 65, 0
8, 472160, Note_on_c, 2, 69, 84
8, 472160, Note_on_c, 2, 65, 84
8, 472304, Note_on_c, 2, 69, 0
8, 472304, Note_on_c, 2, 65, 0
8, 472320, Note_on_c, 2, 65, 84
8, 472320, Note_on_c, 2, 77, 84
8, 472559, Note_on_c, 2, 65, 0
8, 472559, Note_on_c, 2, 77, 0
8, 473280, Note_on_c, 2, 77, 84
8, 473280, Note_on_c, 2, 65, 84
8, 473519, Note_on_c, 2, 77, 0
8, 473519, Note_on_c, 2, 65, 0
8, 474240, Note_on_c, 2, 65, 84
8, 474240, Note_on_c, 2, 77, 84
8, 474479, Note_on_c, 2, 65, 0
8, 474479, Note_on_c, 2, 77, 0
8, 475200, Note_on_c, 2, 77, 84
8, 475200, Note_on_c, 2, 65, 84
8, 475439, Note_on_c, 2, 77, 0
8, 475439, Note_on_c, 2, 65, 0
8, 476160, Note_on_c, 2, 77, 84
8, 476160, Note_on_c, 2, 65, 84
8, 476399, Note_on_c, 2, 77, 0
8, 476399, Note_on_c, 2, 65, 0
8, 476640, Note_on_c, 2, 65, 84
8, 476640, Note_on_c, 2, 77, 84
8, 476879, Note_on_c, 2, 65, 0
8, 476879, Note_on_c, 2, 77, 0
8, 477120, Note_on_c, 2, 77, 84
8, 477120, Note_on_c, 2, 65, 84
8, 477359, Note_on_c, 2, 77, 0
8, 477359, Note_on_c, 2, 65, 0
8, 477600, Note_on_c, 2, 65, 84
8, 477600, Note_on_c, 2, 77, 84
8, 477839, Note_on_c, 2, 65, 0
8, 477839, Note_on_c, 2, 77, 0
8, 478080, Note_on_c, 2, 65, 84
8, 478080, Note_on_c, 2, 77, 84
8, 478319, Note_on_c, 2, 65, 0
8, 478319, Note_on_c, 2, 77, 0
8, 478560, Note_on_c, 2, 65, 84
8, 478560, Note_on_c, 2, 77, 84
8, 478799, Note_on_c, 2, 65, 0
8, 478799, Note_on_c, 2, 77, 0
8, 479040, Note_on_c, 2, 65, 84
8, 479040, Note_on_c, 2, 77, 84
8, 479279, Note_on_c, 2, 65, 0
8, 479279, Note_on_c, 2, 77, 0
8, 479520, Note_on_c, 2, 77, 84
8, 479520, Note_on_c, 2, 65, 84
8, 479759, Note_on_c, 2, 77, 0
8, 479759, Note_on_c, 2, 65, 0
8, 480000, Note_on_c, 2, 65, 84
8, 480000, Note_on_c, 2, 77, 84
8, 480239, Note_on_c, 2, 65, 0
8, 480239, Note_on_c, 2, 77, 0
8, 480960, Note_on_c, 2, 77, 84
8, 480960, Note_on_c, 2, 81, 84
8, 481199, Note_on_c, 2, 77, 0
8, 481199, Note_on_c, 2, 81, 0
8, 481920, Note_on_c, 2, 77, 84
8, 481920, Note_on_c, 2, 65, 84
8, 482159, Note_on_c, 2, 77, 0
8, 482159, Note_on_c, 2, 65, 0
8, 482159, End_track
9, 0, Start_track
9, 0, Title_t, "Bassoon"
9, 0, MIDI_port, 0
9, 0, Program_c, 3, 70
9, 0, Control_c, 3, 7, 96
9, 0, Control_c, 3, 10, 65
9, 0, Control_c, 3, 11, 127
9, 16800, Note_on_c, 3, 49, 84
9, 17739, Note_on_c, 3, 49, 0
9, 17760, Note_on_c, 3, 53, 84
9, 17760, Note_on_c, 3, 57, 84
9, 17904, Note_on_c, 3, 53, 0
9, 17904, Note_on_c, 3, 57, 0
9, 17920, Note_on_c, 3, 57, 84
9, 17920, Note_on_c, 3, 53, 84
9, 18064, Note_on_c, 3, 57, 0
9, 18064, Note_on_c, 3, 53, 0
9, 18080, Note_on_c, 3, 53, 84
9, 18080, Note_on_c, 3, 57, 84
9, 18224, Note_on_c, 3, 53, 0
9, 18224, Note_on_c, 3, 57, 0
9, 18240, Note_on_c, 3, 53, 84
9, 18240, Note_on_c, 3, 57, 84
9, 18359, Note_on_c, 3, 53, 0
9, 18359, Note_on_c, 3, 57, 0
9, 18360, Note_on_c, 3, 55, 84
9, 18360, Note_on_c, 3, 58, 84
9, 18459, Note_on_c, 3, 55, 0
9, 18459, Note_on_c, 3, 58, 0
9, 18480, Note_on_c, 3, 55, 84
9, 18480, Note_on_c, 3, 48, 84
9, 18639, Note_on_c, 3, 55, 0
9, 18639, Note_on_c, 3, 48, 0
9, 18720, Note_on_c, 3, 53, 84
9, 18720, Note_on_c, 3, 57, 84
9, 18839, Note_on_c, 3, 53, 0
9, 18839, Note_on_c, 3, 57, 0
9, 18840, Note_on_c, 3, 58, 84
9, 18840, Note_on_c, 3, 55, 84
9, 18939, Note_on_c, 3, 58, 0
9, 18939, Note_on_c, 3, 55, 0
9, 18960, Note_on_c, 3, 48, 84
9, 18960, Note_on_c, 3, 55, 84
9, 19119, Note_on_c, 3, 48, 0
9, 19119, Note_on_c, 3, 55, 0
9, 19200, Note_on_c, 3, 53, 84
9, 19200, Note_on_c, 3, 57, 84
9, 19319, Note_on_c, 3, 53, 0
9, 19319, Note_on_c, 3, 57, 0
9, 19320, Note_on_c, 3, 55, 84
9, 19320, Note_on_c, 3, 58, 84
9, 19419, Note_on_c, 3, 55, 0
9, 19419, Note_on_c, 3, 58, 0
9, 19440, Note_on_c, 3, 55, 84
9, 19440, Note_on_c, 3, 48, 84
9, 19599, Note_on_c, 3, 55, 0
9, 19599, Note_on_c, 3, 48, 0
9, 19680, Note_on_c, 3, 55, 84
9, 19680, Note_on_c, 3, 58, 84
9, 19824, Note_on_c, 3, 55, 0
9, 19824, Note_on_c, 3, 58, 0
9, 19840, Note_on_c, 3, 58, 84
9, 19840, Note_on_c, 3, 55, 84
9, 19984, Note_on_c, 3, 58, 0
9, 19984, Note_on_c, 3, 55, 0
9, 20000, Note_on_c, 3, 55, 84
9, 20000, Note_on_c, 3, 58, 84
9, 20144, Note_on_c, 3, 55, 0
9, 20144, Note_on_c, 3, 58, 0
9, 20160, Note_on_c, 3, 55, 84
9, 20160, Note_on_c, 3, 58, 84
9, 20279, Note_on_c, 3, 55, 0
9, 20279, Note_on_c, 3, 58, 0
9, 20280, Note_on_c, 3, 57, 84
9, 20280, Note_on_c, 3, 60, 84
9, 20379, Note_on_c, 3, 57, 0
9, 20379, Note_on_c, 3, 60, 0
9, 20400, Note_on_c, 3, 53, 84
9, 20400, Note_on_c, 3, 57, 84
9, 20559, Note_on_c, 3, 53, 0
9, 20559, Note_on_c, 3, 57, 0
9, 20640, Note_on_c, 3, 58, 84
9, 20640, Note_on_c, 3, 55, 84
9, 20759, Note_on_c, 3, 58, 0
9, 20759, Note_on_c, 3, 55, 0
9, 20760, Note_on_c, 3, 57, 84
9, 20760, Note_on_c, 3, 60, 84
9, 20859, Note_on_c, 3, 57, 0
9, 20859, Note_on_c, 3, 60, 0
9, 20880, Note_on_c, 3, 53, 84
9, 20880, Note_on_c, 3, 57, 84
9, 21039, Note_on_c, 3, 53, 0
9, 21039, Note_on_c, 3, 57, 0
9, 21120, Note_on_c, 3, 55, 84
9, 21120, Note_on_c, 3, 58, 84
9, 21239, Note_on_c, 3, 55, 0
9, 21239, Note_on_c, 3, 58, 0
9, 21240, Note_on_c, 3, 57, 84
9, 21240, Note_on_c, 3, 60, 84
9, 21339, Note_on_c, 3, 57, 0
9, 21339, Note_on_c, 3, 60, 0
9, 21360, Note_on_c, 3, 57, 84
9, 21360, Note_on_c, 3, 53, 84
9, 21519, Note_on_c, 3, 57, 0
9, 21519, Note_on_c, 3, 53, 0
9, 21600, Note_on_c, 3, 65, 84
9, 21600, Note_on_c, 3, 57, 84
9, 21839, Note_on_c, 3, 65, 0
9, 21839, Note_on_c, 3, 57, 0
9, 21960, Note_on_c, 3, 60, 84
9, 21960, Note_on_c, 3, 64, 84
9, 22059, Note_on_c, 3, 60, 0
9, 22059, Note_on_c, 3, 64, 0
9, 22080, Note_on_c, 3, 64, 84
9, 22080, Note_on_c, 3, 60, 84
9, 22319, Note_on_c, 3, 64, 0
9, 22319, Note_on_c, 3, 60, 0
9, 22320, Note_on_c, 3, 62, 84
9, 22320, Note_on_c, 3, 58, 84
9, 22539, Note_on_c, 3, 62, 0
9, 22539, Note_on_c, 3, 58, 0
9, 22560, Note_on_c, 3, 62, 84
9, 22560, Note_on_c, 3, 54, 84
9, 22719, Note_on_c, 3, 62, 0
9, 22719, Note_on_c, 3, 54, 0
9, 22920, Note_on_c, 3, 57, 84
9, 22920, Note_on_c, 3, 60, 84
9, 23019, Note_on_c, 3, 57, 0
9, 23019, Note_on_c, 3, 60, 0
9, 23040, Note_on_c, 3, 57, 84
9, 23040, Note_on_c, 3, 60, 84
9, 23279, Note_on_c, 3, 57, 0
9, 23279, Note_on_c, 3, 60, 0
9, 23280, Note_on_c, 3, 58, 84
9, 23280, Note_on_c, 3, 55, 84
9, 23499, Note_on_c, 3, 58, 0
9, 23499, Note_on_c, 3, 55, 0
9, 23520, Note_on_c, 3, 58, 84
9, 23679, Note_on_c, 3, 58, 0
9, 23760, Note_on_c, 3, 57, 84
9, 23919, Note_on_c, 3, 57, 0
9, 24000, Note_on_c, 3, 55, 84
9, 24159, Note_on_c, 3, 55, 0
9, 24240, Note_on_c, 3, 57, 84
9, 24240, Note_on_c, 3, 60, 84
9, 24399, Note_on_c, 3, 57, 0
9, 24399, Note_on_c, 3, 60, 0
9, 24480, Note_on_c, 3, 62, 84
9, 24480, Note_on_c, 3, 58, 84
9, 24639, Note_on_c, 3, 62, 0
9, 24639, Note_on_c, 3, 58, 0
9, 24720, Note_on_c, 3, 64, 84
9, 24720, Note_on_c, 3, 60, 84
9, 24879, Note_on_c, 3, 64, 0
9, 24879, Note_on_c, 3, 60, 0
9, 24960, Note_on_c, 3, 65, 84
9, 24960, Note_on_c, 3, 62, 84
9, 25119, Note_on_c, 3, 65, 0
9, 25119, Note_on_c, 3, 62, 0
9, 25200, Note_on_c, 3, 55, 84
9, 25200, Note_on_c, 3, 52, 84
9, 25359, Note_on_c, 3, 55, 0
9, 25359, Note_on_c, 3, 52, 0
9, 25440, Note_on_c, 3, 53, 84
9, 25440, Note_on_c, 3, 57, 84
9, 25599, Note_on_c, 3, 53, 0
9, 25599, Note_on_c, 3, 57, 0
9, 25680, Note_on_c, 3, 57, 84
9, 25680, Note_on_c, 3, 53, 84
9, 25839, Note_on_c, 3, 57, 0
9, 25839, Note_on_c, 3, 53, 0
9, 25920, Note_on_c, 3, 58, 84
9, 25920, Note_on_c, 3, 62, 84
9, 26079, Note_on_c, 3, 58, 0
9, 26079, Note_on_c, 3, 62, 0
9, 26160, Note_on_c, 3, 58, 84
9, 26160, Note_on_c, 3, 67, 84
9, 26319, Note_on_c, 3, 58, 0
9, 26319, Note_on_c, 3, 67, 0
9, 26400, Note_on_c, 3, 55, 84
9, 26400, Note_on_c, 3, 64, 84
9, 26559, Note_on_c, 3, 55, 0
9, 26559, Note_on_c, 3, 64, 0
9, 26640, Note_on_c, 3, 55, 84
9, 26640, Note_on_c, 3, 64, 84
9, 26799, Note_on_c, 3, 55, 0
9, 26799, Note_on_c, 3, 64, 0
9, 26880, Note_on_c, 3, 57, 84
9, 26880, Note_on_c, 3, 65, 84
9, 27119, Note_on_c, 3, 57, 0
9, 27119, Note_on_c, 3, 65, 0
9, 27840, Note_on_c, 3, 53, 84
9, 28079, Note_on_c, 3, 53, 0
9, 28800, Note_on_c, 3, 52, 84
9, 28800, Note_on_c, 3, 55, 84
9, 29039, Note_on_c, 3, 52, 0
9, 29039, Note_on_c, 3, 55, 0
9, 29760, Note_on_c, 3, 55, 84
9, 29760, Note_on_c, 3, 52, 84
9, 29999, Note_on_c, 3, 55, 0
9, 29999, Note_on_c, 3, 52, 0
9, 30720, Note_on_c, 3, 57, 84
9, 30720, Note_on_c, 3, 53, 84
9, 30959, Note_on_c, 3, 57, 0
9, 30959, Note_on_c, 3, 53, 0
9, 31200, Note_on_c, 3, 65, 84
9, 31359, Note_on_c, 3, 65, 0
9, 31440, Note_on_c, 3, 60, 84
9, 31599, Note_on_c, 3, 60, 0
9, 31680, Note_on_c, 3, 60, 84
9, 31839, Note_on_c, 3, 60, 0
9, 31920, Note_on_c, 3, 57, 84
9, 32079, Note_on_c, 3, 57, 0
9, 32160, Note_on_c, 3, 57, 84
9, 32319, Note_on_c, 3, 57, 0
9, 32400, Note_on_c, 3, 53, 84
9, 32559, Note_on_c, 3, 53, 0
9, 32640, Note_on_c, 3, 48, 84
9, 32799, Note_on_c, 3, 48, 0
9, 33120, Note_on_c, 3, 58, 84
9, 33279, Note_on_c, 3, 58, 0
9, 33360, Note_on_c, 3, 67, 84
9, 33360, Note_on_c, 3, 55, 84
9, 33519, Note_on_c, 3, 67, 0
9, 33519, Note_on_c, 3, 55, 0
9, 33600, Note_on_c, 3, 67, 84
9, 33600, Note_on_c, 3, 55, 84
9, 33759, Note_on_c, 3, 67, 0
9, 33759, Note_on_c, 3, 55, 0
9, 33840, Note_on_c, 3, 52, 84
9, 33840, Note_on_c, 3, 64, 84
9, 33999, Note_on_c, 3, 52, 0
9, 33999, Note_on_c, 3, 64, 0
9, 34080, Note_on_c, 3, 52, 84
9, 34080, Note_on_c, 3, 64, 84
9, 34239, Note_on_c, 3, 52, 0
9, 34239, Note_on_c, 3, 64, 0
9, 34320, Note_on_c, 3, 48, 84
9, 34320, Note_on_c, 3, 60, 84
9, 34479, Note_on_c, 3, 48, 0
9, 34479, Note_on_c, 3, 60, 0
9, 34560, Note_on_c, 3, 53, 84
9, 34560, Note_on_c, 3, 65, 84
9, 34719, Note_on_c, 3, 53, 0
9, 34719, Note_on_c, 3, 65, 0
9, 35520, Note_on_c, 3, 60, 84
9, 35759, Note_on_c, 3, 60, 0
9, 36480, Note_on_c, 3, 59, 84
9, 36480, Note_on_c, 3, 62, 84
9, 36719, Note_on_c, 3, 59, 0
9, 36719, Note_on_c, 3, 62, 0
9, 37440, Note_on_c, 3, 62, 84
9, 37440, Note_on_c, 3, 59, 84
9, 37679, Note_on_c, 3, 62, 0
9, 37679, Note_on_c, 3, 59, 0
9, 38400, Note_on_c, 3, 64, 84
9, 38400, Note_on_c, 3, 60, 84
9, 38639, Note_on_c, 3, 64, 0
9, 38639, Note_on_c, 3, 60, 0
9, 38880, Note_on_c, 3, 60, 84
9, 39039, Note_on_c, 3, 60, 0
9, 39120, Note_on_c, 3, 55, 84
9, 39120, Note_on_c, 3, 67, 84
9, 39279, Note_on_c, 3, 55, 0
9, 39279, Note_on_c, 3, 67, 0
9, 39360, Note_on_c, 3, 55, 84
9, 39360, Note_on_c, 3, 67, 84
9, 39519, Note_on_c, 3, 55, 0
9, 39519, Note_on_c, 3, 67, 0
9, 39600, Note_on_c, 3, 52, 84
9, 39600, Note_on_c, 3, 64, 84
9, 39759, Note_on_c, 3, 52, 0
9, 39759, Note_on_c, 3, 64, 0
9, 39840, Note_on_c, 3, 52, 84
9, 39840, Note_on_c, 3, 64, 84
9, 39999, Note_on_c, 3, 52, 0
9, 39999, Note_on_c, 3, 64, 0
9, 40080, Note_on_c, 3, 60, 84
9, 40080, Note_on_c, 3, 48, 84
9, 40239, Note_on_c, 3, 60, 0
9, 40239, Note_on_c, 3, 48, 0
9, 40320, Note_on_c, 3, 55, 84
9, 40320, Note_on_c, 3, 43, 84
9, 40479, Note_on_c, 3, 55, 0
9, 40479, Note_on_c, 3, 43, 0
9, 40800, Note_on_c, 3, 65, 92
9, 40800, Note_on_c, 3, 62, 92
9, 40959, Note_on_c, 3, 65, 0
9, 40959, Note_on_c, 3, 62, 0
9, 41040, Note_on_c, 3, 59, 84
9, 41040, Note_on_c, 3, 62, 84
9, 41199, Note_on_c, 3, 59, 0
9, 41199, Note_on_c, 3, 62, 0
9, 41280, Note_on_c, 3, 59, 92
9, 41280, Note_on_c, 3, 62, 92
9, 41439, Note_on_c, 3, 59, 0
9, 41439, Note_on_c, 3, 62, 0
9, 41520, Note_on_c, 3, 59, 84
9, 41520, Note_on_c, 3, 55, 84
9, 41679, Note_on_c, 3, 59, 0
9, 41679, Note_on_c, 3, 55, 0
9, 42720, Note_on_c, 3, 65, 84
9, 42720, Note_on_c, 3, 62, 84
9, 42879, Note_on_c, 3, 65, 0
9, 42879, Note_on_c, 3, 62, 0
9, 42960, Note_on_c, 3, 59, 84
9, 42960, Note_on_c, 3, 62, 84
9, 43119, Note_on_c, 3, 59, 0
9, 43119, Note_on_c, 3, 62, 0
9, 43200, Note_on_c, 3, 62, 84
9, 43200, Note_on_c, 3, 59, 84
9, 43359, Note_on_c, 3, 62, 0
9, 43359, Note_on_c, 3, 59, 0
9, 43440, Note_on_c, 3, 59, 84
9, 43440, Note_on_c, 3, 55, 84
9, 43599, Note_on_c, 3, 59, 0
9, 43599, Note_on_c, 3, 55, 0
9, 44640, Note_on_c, 3, 65, 84
9, 44640, Note_on_c, 3, 62, 84
9, 44799, Note_on_c, 3, 65, 0
9, 44799, Note_on_c, 3, 62, 0
9, 44880, Note_on_c, 3, 59, 84
9, 44880, Note_on_c, 3, 62, 84
9, 45039, Note_on_c, 3, 59, 0
9, 45039, Note_on_c, 3, 62, 0
9, 45120, Note_on_c, 3, 62, 84
9, 45120, Note_on_c, 3, 59, 84
9, 45279, Note_on_c, 3, 62, 0
9, 45279, Note_on_c, 3, 59, 0
9, 45360, Note_on_c, 3, 59, 84
9, 45360, Note_on_c, 3, 55, 84
9, 45519, Note_on_c, 3, 59, 0
9, 45519, Note_on_c, 3, 55, 0
9, 45600, Note_on_c, 3, 55, 84
9, 45759, Note_on_c, 3, 55, 0
9, 45840, Note_on_c, 3, 43, 84
9, 45999, Note_on_c, 3, 43, 0
9, 46080, Note_on_c, 3, 56, 52
9, 47040, Note_on_c, 3, 60, 52
9, 47979, Note_on_c, 3, 56, 0
9, 47979, Note_on_c, 3, 60, 0
9, 48000, Note_on_c, 3, 58, 52
9, 48000, Note_on_c, 3, 55, 52
9, 48459, Note_on_c, 3, 58, 0
9, 48459, Note_on_c, 3, 55, 0
9, 48480, Note_on_c, 3, 58, 52
9, 48480, Note_on_c, 3, 61, 52
9, 48939, Note_on_c, 3, 58, 0
9, 48939, Note_on_c, 3, 61, 0
9, 48960, Note_on_c, 3, 61, 52
9, 48960, Note_on_c, 3, 58, 52
9, 49419, Note_on_c, 3, 61, 0
9, 49419, Note_on_c, 3, 58, 0
9, 49440, Note_on_c, 3, 61, 52
9, 49440, Note_on_c, 3, 58, 52
9, 49899, Note_on_c, 3, 61, 0
9, 49899, Note_on_c, 3, 58, 0
9, 49920, Note_on_c, 3, 60, 52
9, 49920, Note_on_c, 3, 56, 52
9, 51819, Note_on_c, 3, 60, 0
9, 51819, Note_on_c, 3, 56, 0
9, 51840, Note_on_c, 3, 55, 52
9, 51840, Note_on_c, 3, 58, 52
9, 52299, Note_on_c, 3, 55, 0
9, 52299, Note_on_c, 3, 58, 0
9, 52320, Note_on_c, 3, 58, 52
9, 52320, Note_on_c, 3, 61, 52
9, 52779, Note_on_c, 3, 58, 0
9, 52779, Note_on_c, 3, 61, 0
9, 52800, Note_on_c, 3, 58, 52
9, 52800, Note_on_c, 3, 61, 52
9, 53259, Note_on_c, 3, 58, 0
9, 53259, Note_on_c, 3, 61, 0
9, 53280, Note_on_c, 3, 58, 52
9, 53280, Note_on_c, 3, 61, 52
9, 53739, Note_on_c, 3, 58, 0
9, 53739, Note_on_c, 3, 61, 0
9, 53760, Note_on_c, 3, 56, 52
9, 53760, Note_on_c, 3, 60, 52
9, 53999, Note_on_c, 3, 56, 0
9, 53999, Note_on_c, 3, 60, 0
9, 54240, Note_on_c, 3, 56, 52
9, 54240, Note_on_c, 3, 60, 52
9, 54479, Note_on_c, 3, 56, 0
9, 54479, Note_on_c, 3, 60, 0
9, 55200, Note_on_c, 3, 57, 56
9, 55200, Note_on_c, 3, 60, 56
9, 55439, Note_on_c, 3, 57, 0
9, 55439, Note_on_c, 3, 60, 0
9, 56160, Note_on_c, 3, 62, 59
9, 56160, Note_on_c, 3, 59, 59
9, 56399, Note_on_c, 3, 62, 0
9, 56399, Note_on_c, 3, 59, 0
9, 57120, Note_on_c, 3, 55, 62
9, 57120, Note_on_c, 3, 67, 62
9, 57359, Note_on_c, 3, 55, 0
9, 57359, Note_on_c, 3, 67, 0
9, 60720, Control_c, 3, 11, 96
9, 60960, Note_on_c, 3, 59, 68
9, 61020, Control_c, 3, 11, 99
9, 61080, Control_c, 3, 11, 101
9, 61140, Control_c, 3, 11, 104
9, 61200, Control_c, 3, 11, 106
9, 61260, Control_c, 3, 11, 109
9, 61320, Control_c, 3, 11, 112
9, 61380, Control_c, 3, 11, 114
9, 61439, Note_on_c, 3, 59, 0
9, 61440, Note_on_c, 3, 60, 68
9, 61440, Control_c, 3, 11, 117
9, 61500, Control_c, 3, 11, 119
9, 61560, Control_c, 3, 11, 122
9, 61620, Control_c, 3, 11, 124
9, 61680, Control_c, 3, 11, 127
9, 61740, Control_c, 3, 11, 124
9, 61800, Control_c, 3, 11, 122
9, 61860, Control_c, 3, 11, 119
9, 61920, Control_c, 3, 11, 117
9, 61980, Control_c, 3, 11, 114
9, 62040, Control_c, 3, 11, 112
9, 62100, Control_c, 3, 11, 109
9, 62159, Note_on_c, 3, 60, 0
9, 62160, Note_on_c, 3, 62, 68
9, 62160, Control_c, 3, 11, 106
9, 62220, Control_c, 3, 11, 104
9, 62279, Note_on_c, 3, 62, 0
9, 62280, Control_c, 3, 11, 101
9, 62280, Note_on_c, 3, 64, 68
9, 62340, Control_c, 3, 11, 99
9, 62399, Note_on_c, 3, 64, 0
9, 62400, Note_on_c, 3, 55, 68
9, 62400, Control_c, 3, 11, 96
9, 62639, Note_on_c, 3, 55, 0
9, 64560, Control_c, 3, 11, 112
9, 64800, Note_on_c, 3, 59, 60
9, 64840, Control_c, 3, 11, 113
9, 64880, Control_c, 3, 11, 115
9, 64920, Control_c, 3, 11, 116
9, 64960, Control_c, 3, 11, 117
9, 65000, Control_c, 3, 11, 118
9, 65040, Control_c, 3, 11, 120
9, 65080, Control_c, 3, 11, 121
9, 65120, Control_c, 3, 11, 122
9, 65160, Control_c, 3, 11, 123
9, 65200, Control_c, 3, 11, 125
9, 65240, Control_c, 3, 11, 127
9, 65279, Note_on_c, 3, 59, 0
9, 65280, Note_on_c, 3, 60, 44
9, 65499, Note_on_c, 3, 60, 0
9, 65520, Note_on_c, 3, 60, 44
9, 65979, Note_on_c, 3, 60, 0
9, 66000, Note_on_c, 3, 57, 44
9, 66219, Note_on_c, 3, 57, 0
9, 66240, Note_on_c, 3, 62, 44
9, 66459, Note_on_c, 3, 62, 0
9, 66480, Note_on_c, 3, 62, 44
9, 66939, Note_on_c, 3, 62, 0
9, 66960, Note_on_c, 3, 59, 44
9, 67179, Note_on_c, 3, 59, 0
9, 67200, Note_on_c, 3, 64, 44
9, 67419, Note_on_c, 3, 64, 0
9, 67440, Note_on_c, 3, 64, 44
9, 67899, Note_on_c, 3, 64, 0
9, 67920, Note_on_c, 3, 60, 44
9, 68139, Note_on_c, 3, 60, 0
9, 68160, Note_on_c, 3, 65, 44
9, 68379, Note_on_c, 3, 65, 0
9, 68400, Note_on_c, 3, 65, 44
9, 68859, Note_on_c, 3, 65, 0
9, 68880, Note_on_c, 3, 62, 44
9, 69099, Note_on_c, 3, 62, 0
9, 69120, Note_on_c, 3, 67, 44
9, 69279, Note_on_c, 3, 67, 0
9, 69360, Note_on_c, 3, 67, 44
9, 69519, Note_on_c, 3, 67, 0
9, 69600, Note_on_c, 3, 67, 44
9, 69759, Note_on_c, 3, 67, 0
9, 69840, Note_on_c, 3, 60, 44
9, 69999, Note_on_c, 3, 60, 0
9, 70080, Note_on_c, 3, 65, 44
9, 70239, Note_on_c, 3, 65, 0
9, 70320, Note_on_c, 3, 65, 44
9, 70479, Note_on_c, 3, 65, 0
9, 70560, Note_on_c, 3, 65, 44
9, 70719, Note_on_c, 3, 65, 0
9, 70800, Note_on_c, 3, 59, 44
9, 70959, Note_on_c, 3, 59, 0
9, 71040, Note_on_c, 3, 64, 44
9, 71199, Note_on_c, 3, 64, 0
9, 71280, Note_on_c, 3, 64, 44
9, 71439, Note_on_c, 3, 64, 0
9, 71520, Note_on_c, 3, 64, 44
9, 71679, Note_on_c, 3, 64, 0
9, 71760, Note_on_c, 3, 57, 44
9, 71919, Note_on_c, 3, 57, 0
9, 72000, Note_on_c, 3, 62, 44
9, 72159, Note_on_c, 3, 62, 0
9, 72240, Note_on_c, 3, 62, 44
9, 72399, Note_on_c, 3, 62, 0
9, 72480, Note_on_c, 3, 62, 44
9, 72639, Note_on_c, 3, 62, 0
9, 72720, Note_on_c, 3, 55, 44
9, 72879, Note_on_c, 3, 55, 0
9, 72960, Note_on_c, 3, 60, 76
9, 72960, Note_on_c, 3, 64, 76
9, 73179, Note_on_c, 3, 60, 0
9, 73179, Note_on_c, 3, 64, 0
9, 73200, Note_on_c, 3, 60, 76
9, 73200, Note_on_c, 3, 64, 76
9, 73439, Note_on_c, 3, 60, 0
9, 73439, Note_on_c, 3, 64, 0
9, 73680, Note_on_c, 3, 61, 76
9, 73680, Note_on_c, 3, 64, 76
9, 73899, Note_on_c, 3, 61, 0
9, 73899, Note_on_c, 3, 64, 0
9, 73920, Note_on_c, 3, 65, 76
9, 73920, Note_on_c, 3, 62, 76
9, 74139, Note_on_c, 3, 65, 0
9, 74139, Note_on_c, 3, 62, 0
9, 74160, Note_on_c, 3, 62, 76
9, 74160, Note_on_c, 3, 65, 76
9, 74399, Note_on_c, 3, 62, 0
9, 74399, Note_on_c, 3, 65, 0
9, 74640, Note_on_c, 3, 54, 76
9, 74640, Note_on_c, 3, 51, 76
9, 74859, Note_on_c, 3, 54, 0
9, 74859, Note_on_c, 3, 51, 0
9, 74880, Note_on_c, 3, 52, 76
9, 74880, Note_on_c, 3, 55, 76
9, 75099, Note_on_c, 3, 52, 0
9, 75099, Note_on_c, 3, 55, 0
9, 75120, Note_on_c, 3, 52, 76
9, 75120, Note_on_c, 3, 55, 76
9, 75359, Note_on_c, 3, 52, 0
9, 75359, Note_on_c, 3, 55, 0
9, 75600, Note_on_c, 3, 55, 76
9, 75600, Note_on_c, 3, 52, 76
9, 75819, Note_on_c, 3, 55, 0
9, 75819, Note_on_c, 3, 52, 0
9, 75840, Note_on_c, 3, 53, 76
9, 75840, Note_on_c, 3, 57, 76
9, 76059, Note_on_c, 3, 53, 0
9, 76059, Note_on_c, 3, 57, 0
9, 76080, Note_on_c, 3, 53, 76
9, 76080, Note_on_c, 3, 57, 76
9, 76319, Note_on_c, 3, 53, 0
9, 76319, Note_on_c, 3, 57, 0
9, 76560, Note_on_c, 3, 57, 76
9, 76560, Note_on_c, 3, 54, 76
9, 76779, Note_on_c, 3, 57, 0
9, 76779, Note_on_c, 3, 54, 0
9, 76800, Note_on_c, 3, 55, 76
9, 76800, Note_on_c, 3, 59, 76
9, 76959, Note_on_c, 3, 55, 0
9, 76959, Note_on_c, 3, 59, 0
9, 77040, Note_on_c, 3, 67, 76
9, 77199, Note_on_c, 3, 67, 0
9, 77280, Note_on_c, 3, 55, 76
9, 77439, Note_on_c, 3, 55, 0
9, 77520, Note_on_c, 3, 64, 76
9, 77679, Note_on_c, 3, 64, 0
9, 77760, Note_on_c, 3, 65, 76
9, 77919, Note_on_c, 3, 65, 0
9, 78000, Note_on_c, 3, 53, 76
9, 78159, Note_on_c, 3, 53, 0
9, 78240, Note_on_c, 3, 65, 76
9, 78399, Note_on_c, 3, 65, 0
9, 78480, Note_on_c, 3, 63, 76
9, 78639, Note_on_c, 3, 63, 0
9, 78720, Note_on_c, 3, 64, 76
9, 78879, Note_on_c, 3, 64, 0
9, 78960, Note_on_c, 3, 52, 76
9, 79119, Note_on_c, 3, 52, 0
9, 79200, Note_on_c, 3, 64, 76
9, 79359, Note_on_c, 3, 64, 0
9, 79440, Note_on_c, 3, 61, 76
9, 79599, Note_on_c, 3, 61, 0
9, 79680, Note_on_c, 3, 62, 76
9, 79839, Note_on_c, 3, 62, 0
9, 79920, Note_on_c, 3, 50, 76
9, 80079, Note_on_c, 3, 50, 0
9, 80160, Note_on_c, 3, 62, 76
9, 80319, Note_on_c, 3, 62, 0
9, 80400, Note_on_c, 3, 59, 76
9, 80559, Note_on_c, 3, 59, 0
9, 80640, Note_on_c, 3, 62, 80
9, 80640, Note_on_c, 3, 59, 80
9, 82059, Note_on_c, 3, 62, 0
9, 82059, Note_on_c, 3, 59, 0
9, 82080, Note_on_c, 3, 53, 80
9, 82080, Note_on_c, 3, 50, 80
9, 82539, Note_on_c, 3, 53, 0
9, 82539, Note_on_c, 3, 50, 0
9, 82560, Note_on_c, 3, 55, 80
9, 82560, Note_on_c, 3, 58, 80
9, 84459, Note_on_c, 3, 55, 0
9, 84459, Note_on_c, 3, 58, 0
9, 84480, Note_on_c, 3, 53, 84
9, 84480, Note_on_c, 3, 57, 84
9, 86379, Note_on_c, 3, 53, 0
9, 86379, Note_on_c, 3, 57, 0
9, 86400, Note_on_c, 3, 53, 84
9, 86400, Note_on_c, 3, 57, 84
9, 86639, Note_on_c, 3, 53, 0
9, 86639, Note_on_c, 3, 57, 0
9, 101280, Note_on_c, 3, 65, 76
9, 101280, Note_on_c, 3, 62, 76
9, 101439, Note_on_c, 3, 65, 0
9, 101439, Note_on_c, 3, 62, 0
9, 101520, Note_on_c, 3, 60, 76
9, 101520, Note_on_c, 3, 64, 76
9, 101679, Note_on_c, 3, 60, 0
9, 101679, Note_on_c, 3, 64, 0
9, 101760, Note_on_c, 3, 62, 76
9, 101760, Note_on_c, 3, 58, 76
9, 101919, Note_on_c, 3, 62, 0
9, 101919, Note_on_c, 3, 58, 0
9, 102000, Note_on_c, 3, 60, 76
9, 102000, Note_on_c, 3, 57, 76
9, 102159, Note_on_c, 3, 60, 0
9, 102159, Note_on_c, 3, 57, 0
9, 102240, Note_on_c, 3, 62, 76
9, 102240, Note_on_c, 3, 58, 76
9, 102399, Note_on_c, 3, 62, 0
9, 102399, Note_on_c, 3, 58, 0
9, 102480, Note_on_c, 3, 64, 76
9, 102480, Note_on_c, 3, 60, 76
9, 102639, Note_on_c, 3, 64, 0
9, 102639, Note_on_c, 3, 60, 0
9, 102720, Note_on_c, 3, 65, 76
9, 102720, Note_on_c, 3, 62, 76
9, 102959, Note_on_c, 3, 65, 0
9, 102959, Note_on_c, 3, 62, 0
9, 108960, Note_on_c, 3, 64, 44
9, 109199, Note_on_c, 3, 64, 0
9, 109320, Note_on_c, 3, 62, 44
9, 109419, Note_on_c, 3, 62, 0
9, 109440, Note_on_c, 3, 62, 44
9, 109679, Note_on_c, 3, 62, 0
9, 109680, Note_on_c, 3, 61, 44
9, 109919, Note_on_c, 3, 61, 0
9, 110880, Note_on_c, 3, 64, 44
9, 111119, Note_on_c, 3, 64, 0
9, 111240, Note_on_c, 3, 62, 44
9, 111339, Note_on_c, 3, 62, 0
9, 111360, Note_on_c, 3, 62, 44
9, 111599, Note_on_c, 3, 62, 0
9, 111600, Note_on_c, 3, 61, 44
9, 111839, Note_on_c, 3, 61, 0
9, 113520, Control_c, 3, 11, 64
9, 113760, Note_on_c, 3, 57, 76
9, 113999, Note_on_c, 3, 57, 0
9, 114120, Note_on_c, 3, 61, 76
9, 114219, Note_on_c, 3, 61, 0
9, 114240, Note_on_c, 3, 61, 76
9, 114479, Note_on_c, 3, 61, 0
9, 114480, Note_on_c, 3, 62, 76
9, 114699, Note_on_c, 3, 62, 0
9, 114720, Control_c, 3, 11, 64
9, 114720, Note_on_c, 3, 57, 76
9, 114760, Control_c, 3, 11, 69
9, 114800, Control_c, 3, 11, 75
9, 114840, Control_c, 3, 11, 80
9, 114879, Note_on_c, 3, 57, 0
9, 114880, Control_c, 3, 11, 85
9, 114920, Control_c, 3, 11, 90
9, 114960, Control_c, 3, 11, 96
9, 115000, Control_c, 3, 11, 101
9, 115040, Control_c, 3, 11, 106
9, 115080, Control_c, 3, 11, 111
9, 115080, Note_on_c, 3, 61, 76
9, 115120, Control_c, 3, 11, 117
9, 115160, Control_c, 3, 11, 122
9, 115179, Note_on_c, 3, 61, 0
9, 115200, Note_on_c, 3, 62, 76
9, 115200, Control_c, 3, 11, 127
9, 115439, Note_on_c, 3, 62, 0
9, 123360, Note_on_c, 3, 46, 84
9, 123360, Note_on_c, 3, 58, 84
9, 123480, Control_c, 3, 11, 112
9, 124799, Note_on_c, 3, 46, 0
9, 124799, Note_on_c, 3, 58, 0
9, 125040, Control_c, 3, 11, 127
9, 125280, Note_on_c, 3, 52, 84
9, 125280, Note_on_c, 3, 64, 84
9, 125400, Control_c, 3, 11, 112
9, 126699, Note_on_c, 3, 64, 0
9, 126959, Note_on_c, 3, 52, 0
9, 126960, Note_on_c, 3, 45, 84
9, 127179, Note_on_c, 3, 45, 0
9, 127200, Note_on_c, 3, 45, 84
9, 127359, Note_on_c, 3, 45, 0
9, 127560, Note_on_c, 3, 47, 84
9, 127659, Note_on_c, 3, 47, 0
9, 127680, Note_on_c, 3, 47, 84
9, 127919, Note_on_c, 3, 47, 0
9, 127920, Note_on_c, 3, 48, 84
9, 128139, Note_on_c, 3, 48, 0
9, 128160, Note_on_c, 3, 48, 84
9, 128319, Note_on_c, 3, 48, 0
9, 128520, Note_on_c, 3, 49, 84
9, 128619, Note_on_c, 3, 49, 0
9, 128640, Note_on_c, 3, 49, 84
9, 128879, Note_on_c, 3, 49, 0
9, 128880, Note_on_c, 3, 50, 84
9, 129099, Note_on_c, 3, 50, 0
9, 129118, Control_c, 3, 11, 127
9, 129120, Note_on_c, 3, 62, 84
9, 129240, Control_c, 3, 11, 112
9, 130559, Note_on_c, 3, 62, 0
9, 134640, Control_c, 3, 11, 127
9, 134880, Note_on_c, 3, 64, 84
9, 134880, Note_on_c, 3, 52, 84
9, 135000, Control_c, 3, 11, 112
9, 135359, Note_on_c, 3, 64, 0
9, 135359, Note_on_c, 3, 52, 0
9, 136560, Control_c, 3, 11, 127
9, 136800, Note_on_c, 3, 62, 84
9, 136920, Control_c, 3, 11, 112
9, 137279, Note_on_c, 3, 62, 0
9, 137520, Control_c, 3, 11, 127
9, 137760, Note_on_c, 3, 67, 84
9, 137880, Control_c, 3, 11, 112
9, 138239, Note_on_c, 3, 67, 0
9, 139320, Control_c, 3, 11, 127
9, 139440, Note_on_c, 3, 62, 76
9, 139599, Note_on_c, 3, 62, 0
9, 139680, Note_on_c, 3, 67, 76
9, 139839, Note_on_c, 3, 67, 0
9, 139920, Note_on_c, 3, 67, 76
9, 140079, Note_on_c, 3, 67, 0
9, 141360, Note_on_c, 3, 57, 76
9, 141519, Note_on_c, 3, 57, 0
9, 141600, Note_on_c, 3, 62, 76
9, 141759, Note_on_c, 3, 62, 0
9, 141840, Note_on_c, 3, 62, 76
9, 141999, Note_on_c, 3, 62, 0
9, 142320, Note_on_c, 3, 52, 76
9, 142479, Note_on_c, 3, 52, 0
9, 142560, Note_on_c, 3, 63, 76
9, 142719, Note_on_c, 3, 63, 0
9, 142800, Note_on_c, 3, 64, 76
9, 142959, Note_on_c, 3, 64, 0
9, 143280, Note_on_c, 3, 52, 76
9, 143439, Note_on_c, 3, 52, 0
9, 143520, Note_on_c, 3, 63, 76
9, 143679, Note_on_c, 3, 63, 0
9, 143760, Note_on_c, 3, 64, 76
9, 143919, Note_on_c, 3, 64, 0
9, 144240, Note_on_c, 3, 52, 76
9, 144399, Note_on_c, 3, 52, 0
9, 144480, Note_on_c, 3, 63, 76
9, 144639, Note_on_c, 3, 63, 0
9, 144720, Note_on_c, 3, 64, 76
9, 144879, Note_on_c, 3, 64, 0
9, 145200, Note_on_c, 3, 52, 84
9, 145419, Note_on_c, 3, 52, 0
9, 145440, Note_on_c, 3, 52, 84
9, 145440, Note_on_c, 3, 64, 84
9, 149279, Note_on_c, 3, 52, 0
9, 149279, Note_on_c, 3, 64, 0
9, 151200, Note_on_c, 3, 41, 44
9, 151359, Note_on_c, 3, 41, 0
9, 151440, Note_on_c, 3, 53, 44
9, 151599, Note_on_c, 3, 53, 0
9, 151680, Note_on_c, 3, 41, 44
9, 151839, Note_on_c, 3, 41, 0
9, 151920, Note_on_c, 3, 53, 44
9, 152079, Note_on_c, 3, 53, 0
9, 152160, Note_on_c, 3, 41, 44
9, 152319, Note_on_c, 3, 41, 0
9, 152400, Note_on_c, 3, 53, 44
9, 152559, Note_on_c, 3, 53, 0
9, 152640, Note_on_c, 3, 41, 44
9, 152799, Note_on_c, 3, 41, 0
9, 152880, Note_on_c, 3, 53, 44
9, 153039, Note_on_c, 3, 53, 0
9, 153120, Note_on_c, 3, 41, 44
9, 153279, Note_on_c, 3, 41, 0
9, 153360, Note_on_c, 3, 53, 44
9, 153519, Note_on_c, 3, 53, 0
9, 153600, Note_on_c, 3, 41, 44
9, 153759, Note_on_c, 3, 41, 0
9, 153840, Note_on_c, 3, 53, 44
9, 153999, Note_on_c, 3, 53, 0
9, 154080, Note_on_c, 3, 41, 44
9, 154239, Note_on_c, 3, 41, 0
9, 154320, Note_on_c, 3, 53, 44
9, 154479, Note_on_c, 3, 53, 0
9, 154560, Note_on_c, 3, 41, 44
9, 154719, Note_on_c, 3, 41, 0
9, 154800, Note_on_c, 3, 53, 44
9, 154959, Note_on_c, 3, 53, 0
9, 155040, Note_on_c, 3, 41, 44
9, 155199, Note_on_c, 3, 41, 0
9, 155280, Note_on_c, 3, 53, 44
9, 155439, Note_on_c, 3, 53, 0
9, 155520, Note_on_c, 3, 41, 44
9, 155679, Note_on_c, 3, 41, 0
9, 155760, Note_on_c, 3, 53, 44
9, 155919, Note_on_c, 3, 53, 0
9, 156000, Note_on_c, 3, 41, 44
9, 156159, Note_on_c, 3, 41, 0
9, 156240, Note_on_c, 3, 53, 44
9, 156399, Note_on_c, 3, 53, 0
9, 156480, Note_on_c, 3, 41, 44
9, 156639, Note_on_c, 3, 41, 0
9, 156720, Note_on_c, 3, 53, 44
9, 156879, Note_on_c, 3, 53, 0
9, 156960, Note_on_c, 3, 41, 44
9, 157119, Note_on_c, 3, 41, 0
9, 157200, Note_on_c, 3, 53, 44
9, 157359, Note_on_c, 3, 53, 0
9, 157440, Note_on_c, 3, 41, 44
9, 157599, Note_on_c, 3, 41, 0
9, 157680, Note_on_c, 3, 53, 44
9, 157839, Note_on_c, 3, 53, 0
9, 157920, Note_on_c, 3, 41, 44
9, 158079, Note_on_c, 3, 41, 0
9, 158160, Note_on_c, 3, 53, 44
9, 158319, Note_on_c, 3, 53, 0
9, 158400, Note_on_c, 3, 41, 44
9, 158559, Note_on_c, 3, 41, 0
9, 158640, Note_on_c, 3, 53, 44
9, 158799, Note_on_c, 3, 53, 0
9, 158880, Note_on_c, 3, 41, 44
9, 159039, Note_on_c, 3, 41, 0
9, 159120, Note_on_c, 3, 53, 44
9, 159279, Note_on_c, 3, 53, 0
9, 159840, Note_on_c, 3, 62, 44
9, 160079, Note_on_c, 3, 62, 0
9, 160200, Note_on_c, 3, 60, 44
9, 160299, Note_on_c, 3, 60, 0
9, 160320, Note_on_c, 3, 60, 44
9, 160559, Note_on_c, 3, 60, 0
9, 160560, Note_on_c, 3, 58, 44
9, 160779, Note_on_c, 3, 58, 0
9, 160800, Note_on_c, 3, 58, 44
9, 160800, Note_on_c, 3, 55, 44
9, 160959, Note_on_c, 3, 58, 0
9, 161019, Note_on_c, 3, 55, 0
9, 161040, Note_on_c, 3, 60, 44
9, 161040, Note_on_c, 3, 57, 44
9, 161199, Note_on_c, 3, 60, 0
9, 161259, Note_on_c, 3, 57, 0
9, 161280, Note_on_c, 3, 62, 44
9, 161280, Note_on_c, 3, 58, 44
9, 161439, Note_on_c, 3, 62, 0
9, 161439, Note_on_c, 3, 58, 0
9, 161520, Note_on_c, 3, 62, 44
9, 161520, Note_on_c, 3, 58, 44
9, 161679, Note_on_c, 3, 62, 0
9, 161679, Note_on_c, 3, 58, 0
9, 161760, Note_on_c, 3, 58, 44
9, 161760, Note_on_c, 3, 62, 44
9, 161919, Note_on_c, 3, 58, 0
9, 161919, Note_on_c, 3, 62, 0
9, 162000, Note_on_c, 3, 60, 44
9, 162000, Note_on_c, 3, 64, 44
9, 162159, Note_on_c, 3, 60, 0
9, 162159, Note_on_c, 3, 64, 0
9, 162240, Note_on_c, 3, 65, 44
9, 162240, Note_on_c, 3, 62, 44
9, 162399, Note_on_c, 3, 65, 0
9, 162399, Note_on_c, 3, 62, 0
9, 162480, Note_on_c, 3, 52, 44
9, 162480, Note_on_c, 3, 55, 44
9, 162639, Note_on_c, 3, 52, 0
9, 162639, Note_on_c, 3, 55, 0
9, 162720, Note_on_c, 3, 57, 44
9, 162720, Note_on_c, 3, 53, 44
9, 162879, Note_on_c, 3, 57, 0
9, 162879, Note_on_c, 3, 53, 0
9, 162960, Note_on_c, 3, 53, 44
9, 162960, Note_on_c, 3, 57, 44
9, 163119, Note_on_c, 3, 53, 0
9, 163119, Note_on_c, 3, 57, 0
9, 163200, Note_on_c, 3, 60, 44
9, 163200, Note_on_c, 3, 55, 44
9, 163359, Note_on_c, 3, 60, 0
9, 163439, Note_on_c, 3, 55, 0
9, 163440, Note_on_c, 3, 60, 44
9, 163599, Note_on_c, 3, 60, 0
9, 163680, Note_on_c, 3, 55, 44
9, 163839, Note_on_c, 3, 55, 0
9, 163920, Note_on_c, 3, 67, 44
9, 164079, Note_on_c, 3, 67, 0
9, 164160, Note_on_c, 3, 60, 44
9, 164319, Note_on_c, 3, 60, 0
9, 165600, Note_on_c, 3, 62, 44
9, 165600, Note_on_c, 3, 55, 44
9, 165744, Note_on_c, 3, 62, 0
9, 165744, Note_on_c, 3, 55, 0
9, 165760, Note_on_c, 3, 55, 44
9, 165760, Note_on_c, 3, 62, 44
9, 165904, Note_on_c, 3, 55, 0
9, 165904, Note_on_c, 3, 62, 0
9, 165920, Note_on_c, 3, 55, 44
9, 165920, Note_on_c, 3, 62, 44
9, 166064, Note_on_c, 3, 55, 0
9, 166064, Note_on_c, 3, 62, 0
9, 166080, Note_on_c, 3, 62, 44
9, 166080, Note_on_c, 3, 55, 44
9, 166239, Note_on_c, 3, 62, 0
9, 166239, Note_on_c, 3, 55, 0
9, 166240, Note_on_c, 3, 64, 44
9, 166240, Note_on_c, 3, 60, 44
9, 166384, Note_on_c, 3, 64, 0
9, 166384, Note_on_c, 3, 60, 0
9, 166400, Note_on_c, 3, 60, 44
9, 166400, Note_on_c, 3, 52, 44
9, 166519, Note_on_c, 3, 60, 0
9, 166519, Note_on_c, 3, 52, 0
9, 171360, Note_on_c, 3, 49, 84
9, 172299, Note_on_c, 3, 49, 0
9, 172320, Note_on_c, 3, 57, 84
9, 172320, Note_on_c, 3, 53, 84
9, 172464, Note_on_c, 3, 57, 0
9, 172464, Note_on_c, 3, 53, 0
9, 172480, Note_on_c, 3, 57, 84
9, 172480, Note_on_c, 3, 53, 84
9, 172624, Note_on_c, 3, 57, 0
9, 172624, Note_on_c, 3, 53, 0
9, 172640, Note_on_c, 3, 57, 84
9, 172640, Note_on_c, 3, 53, 84
9, 172784, Note_on_c, 3, 57, 0
9, 172784, Note_on_c, 3, 53, 0
9, 172800, Note_on_c, 3, 53, 84
9, 172800, Note_on_c, 3, 57, 84
9, 172919, Note_on_c, 3, 53, 0
9, 172919, Note_on_c, 3, 57, 0
9, 172920, Note_on_c, 3, 58, 84
9, 172920, Note_on_c, 3, 55, 84
9, 173019, Note_on_c, 3, 58, 0
9, 173019, Note_on_c, 3, 55, 0
9, 173040, Note_on_c, 3, 55, 84
9, 173040, Note_on_c, 3, 48, 84
9, 173199, Note_on_c, 3, 55, 0
9, 173199, Note_on_c, 3, 48, 0
9, 173280, Note_on_c, 3, 53, 84
9, 173280, Note_on_c, 3, 57, 84
9, 173399, Note_on_c, 3, 53, 0
9, 173399, Note_on_c, 3, 57, 0
9, 173400, Note_on_c, 3, 55, 84
9, 173400, Note_on_c, 3, 58, 84
9, 173499, Note_on_c, 3, 55, 0
9, 173499, Note_on_c, 3, 58, 0
9, 173520, Note_on_c, 3, 55, 84
9, 173520, Note_on_c, 3, 48, 84
9, 173679, Note_on_c, 3, 55, 0
9, 173679, Note_on_c, 3, 48, 0
9, 173760, Note_on_c, 3, 57, 84
9, 173760, Note_on_c, 3, 53, 84
9, 173879, Note_on_c, 3, 57, 0
9, 173879, Note_on_c, 3, 53, 0
9, 173880, Note_on_c, 3, 58, 84
9, 173880, Note_on_c, 3, 55, 84
9, 173979, Note_on_c, 3, 58, 0
9, 173979, Note_on_c, 3, 55, 0
9, 174000, Note_on_c, 3, 55, 84
9, 174000, Note_on_c, 3, 48, 84
9, 174159, Note_on_c, 3, 55, 0
9, 174159, Note_on_c, 3, 48, 0
9, 174240, Note_on_c, 3, 55, 84
9, 174240, Note_on_c, 3, 58, 84
9, 174384, Note_on_c, 3, 55, 0
9, 174384, Note_on_c, 3, 58, 0
9, 174400, Note_on_c, 3, 58, 84
9, 174400, Note_on_c, 3, 55, 84
9, 174544, Note_on_c, 3, 58, 0
9, 174544, Note_on_c, 3, 55, 0
9, 174560, Note_on_c, 3, 55, 84
9, 174560, Note_on_c, 3, 58, 84
9, 174704, Note_on_c, 3, 55, 0
9, 174704, Note_on_c, 3, 58, 0
9, 174720, Note_on_c, 3, 55, 84
9, 174720, Note_on_c, 3, 58, 84
9, 174839, Note_on_c, 3, 55, 0
9, 174839, Note_on_c, 3, 58, 0
9, 174840, Note_on_c, 3, 60, 84
9, 174840, Note_on_c, 3, 57, 84
9, 174939, Note_on_c, 3, 60, 0
9, 174939, Note_on_c, 3, 57, 0
9, 174960, Note_on_c, 3, 57, 84
9, 174960, Note_on_c, 3, 53, 84
9, 175119, Note_on_c, 3, 57, 0
9, 175119, Note_on_c, 3, 53, 0
9, 175200, Note_on_c, 3, 55, 84
9, 175200, Note_on_c, 3, 58, 84
9, 175319, Note_on_c, 3, 55, 0
9, 175319, Note_on_c, 3, 58, 0
9, 175320, Note_on_c, 3, 57, 84
9, 175320, Note_on_c, 3, 60, 84
9, 175419, Note_on_c, 3, 57, 0
9, 175419, Note_on_c, 3, 60, 0
9, 175440, Note_on_c, 3, 53, 84
9, 175440, Note_on_c, 3, 57, 84
9, 175599, Note_on_c, 3, 53, 0
9, 175599, Note_on_c, 3, 57, 0
9, 175680, Note_on_c, 3, 55, 84
9, 175680, Note_on_c, 3, 58, 84
9, 175799, Note_on_c, 3, 55, 0
9, 175799, Note_on_c, 3, 58, 0
9, 175800, Note_on_c, 3, 57, 84
9, 175800, Note_on_c, 3, 60, 84
9, 175899, Note_on_c, 3, 57, 0
9, 175899, Note_on_c, 3, 60, 0
9, 175920, Note_on_c, 3, 53, 84
9, 175920, Note_on_c, 3, 57, 84
9, 176079, Note_on_c, 3, 53, 0
9, 176079, Note_on_c, 3, 57, 0
9, 176160, Note_on_c, 3, 57, 84
9, 176160, Note_on_c, 3, 65, 84
9, 176399, Note_on_c, 3, 57, 0
9, 176399, Note_on_c, 3, 65, 0
9, 176520, Note_on_c, 3, 60, 84
9, 176520, Note_on_c, 3, 64, 84
9, 176619, Note_on_c, 3, 60, 0
9, 176619, Note_on_c, 3, 64, 0
9, 176640, Note_on_c, 3, 64, 84
9, 176640, Note_on_c, 3, 60, 84
9, 176879, Note_on_c, 3, 64, 0
9, 176879, Note_on_c, 3, 60, 0
9, 176880, Note_on_c, 3, 62, 84
9, 176880, Note_on_c, 3, 58, 84
9, 177099, Note_on_c, 3, 62, 0
9, 177099, Note_on_c, 3, 58, 0
9, 177120, Note_on_c, 3, 54, 84
9, 177120, Note_on_c, 3, 62, 84
9, 177279, Note_on_c, 3, 54, 0
9, 177279, Note_on_c, 3, 62, 0
9, 177480, Note_on_c, 3, 57, 84
9, 177480, Note_on_c, 3, 60, 84
9, 177579, Note_on_c, 3, 57, 0
9, 177579, Note_on_c, 3, 60, 0
9, 177600, Note_on_c, 3, 57, 84
9, 177600, Note_on_c, 3, 60, 84
9, 177839, Note_on_c, 3, 57, 0
9, 177839, Note_on_c, 3, 60, 0
9, 177840, Note_on_c, 3, 55, 84
9, 177840, Note_on_c, 3, 58, 84
9, 178059, Note_on_c, 3, 55, 0
9, 178059, Note_on_c, 3, 58, 0
9, 178080, Note_on_c, 3, 58, 84
9, 178239, Note_on_c, 3, 58, 0
9, 178320, Note_on_c, 3, 57, 84
9, 178479, Note_on_c, 3, 57, 0
9, 178560, Note_on_c, 3, 55, 84
9, 178779, Note_on_c, 3, 55, 0
9, 178800, Note_on_c, 3, 60, 84
9, 178800, Note_on_c, 3, 57, 84
9, 178959, Note_on_c, 3, 60, 0
9, 178959, Note_on_c, 3, 57, 0
9, 179040, Note_on_c, 3, 62, 84
9, 179040, Note_on_c, 3, 58, 84
9, 179199, Note_on_c, 3, 62, 0
9, 179199, Note_on_c, 3, 58, 0
9, 179280, Note_on_c, 3, 64, 84
9, 179280, Note_on_c, 3, 60, 84
9, 179439, Note_on_c, 3, 64, 0
9, 179439, Note_on_c, 3, 60, 0
9, 179520, Note_on_c, 3, 65, 84
9, 179520, Note_on_c, 3, 62, 84
9, 179679, Note_on_c, 3, 65, 0
9, 179679, Note_on_c, 3, 62, 0
9, 179760, Note_on_c, 3, 52, 84
9, 179760, Note_on_c, 3, 55, 84
9, 179919, Note_on_c, 3, 52, 0
9, 179919, Note_on_c, 3, 55, 0
9, 180000, Note_on_c, 3, 57, 84
9, 180000, Note_on_c, 3, 53, 84
9, 180159, Note_on_c, 3, 57, 0
9, 180159, Note_on_c, 3, 53, 0
9, 180240, Note_on_c, 3, 53, 84
9, 180240, Note_on_c, 3, 57, 84
9, 180399, Note_on_c, 3, 53, 0
9, 180399, Note_on_c, 3, 57, 0
9, 180480, Note_on_c, 3, 62, 84
9, 180480, Note_on_c, 3, 58, 84
9, 180639, Note_on_c, 3, 62, 0
9, 180639, Note_on_c, 3, 58, 0
9, 180720, Note_on_c, 3, 58, 84
9, 180720, Note_on_c, 3, 67, 84
9, 180879, Note_on_c, 3, 58, 0
9, 180879, Note_on_c, 3, 67, 0
9, 180960, Note_on_c, 3, 55, 84
9, 180960, Note_on_c, 3, 64, 84
9, 181119, Note_on_c, 3, 55, 0
9, 181119, Note_on_c, 3, 64, 0
9, 181200, Note_on_c, 3, 55, 84
9, 181200, Note_on_c, 3, 64, 84
9, 181359, Note_on_c, 3, 55, 0
9, 181359, Note_on_c, 3, 64, 0
9, 181440, Note_on_c, 3, 65, 84
9, 181440, Note_on_c, 3, 57, 84
9, 181679, Note_on_c, 3, 65, 0
9, 181679, Note_on_c, 3, 57, 0
9, 182400, Note_on_c, 3, 53, 84
9, 182639, Note_on_c, 3, 53, 0
9, 183360, Note_on_c, 3, 52, 84
9, 183360, Note_on_c, 3, 55, 84
9, 183599, Note_on_c, 3, 52, 0
9, 183599, Note_on_c, 3, 55, 0
9, 184320, Note_on_c, 3, 52, 84
9, 184320, Note_on_c, 3, 55, 84
9, 184559, Note_on_c, 3, 52, 0
9, 184559, Note_on_c, 3, 55, 0
9, 185280, Note_on_c, 3, 57, 84
9, 185280, Note_on_c, 3, 53, 84
9, 185519, Note_on_c, 3, 57, 0
9, 185519, Note_on_c, 3, 53, 0
9, 185760, Note_on_c, 3, 65, 84
9, 185919, Note_on_c, 3, 65, 0
9, 186000, Note_on_c, 3, 60, 84
9, 186159, Note_on_c, 3, 60, 0
9, 186240, Note_on_c, 3, 60, 84
9, 186399, Note_on_c, 3, 60, 0
9, 186480, Note_on_c, 3, 57, 84
9, 186639, Note_on_c, 3, 57, 0
9, 186720, Note_on_c, 3, 57, 84
9, 186879, Note_on_c, 3, 57, 0
9, 186960, Note_on_c, 3, 53, 84
9, 187119, Note_on_c, 3, 53, 0
9, 187200, Note_on_c, 3, 48, 84
9, 187359, Note_on_c, 3, 48, 0
9, 187680, Note_on_c, 3, 58, 84
9, 187839, Note_on_c, 3, 58, 0
9, 187920, Note_on_c, 3, 55, 84
9, 188079, Note_on_c, 3, 55, 0
9, 188160, Note_on_c, 3, 55, 84
9, 188319, Note_on_c, 3, 55, 0
9, 188400, Note_on_c, 3, 52, 84
9, 188559, Note_on_c, 3, 52, 0
9, 188640, Note_on_c, 3, 52, 84
9, 188799, Note_on_c, 3, 52, 0
9, 188880, Note_on_c, 3, 48, 84
9, 189039, Note_on_c, 3, 48, 0
9, 189120, Note_on_c, 3, 53, 84
9, 189279, Note_on_c, 3, 53, 0
9, 190080, Note_on_c, 3, 53, 84
9, 190319, Note_on_c, 3, 53, 0
9, 191040, Note_on_c, 3, 55, 84
9, 191040, Note_on_c, 3, 52, 84
9, 191279, Note_on_c, 3, 55, 0
9, 191279, Note_on_c, 3, 52, 0
9, 192000, Note_on_c, 3, 55, 84
9, 192000, Note_on_c, 3, 52, 84
9, 192239, Note_on_c, 3, 55, 0
9, 192239, Note_on_c, 3, 52, 0
9, 192960, Note_on_c, 3, 57, 84
9, 192960, Note_on_c, 3, 53, 84
9, 193199, Note_on_c, 3, 57, 0
9, 193199, Note_on_c, 3, 53, 0
9, 193440, Note_on_c, 3, 65, 84
9, 193599, Note_on_c, 3, 65, 0
9, 193680, Note_on_c, 3, 60, 84
9, 193839, Note_on_c, 3, 60, 0
9, 193920, Note_on_c, 3, 60, 84
9, 194079, Note_on_c, 3, 60, 0
9, 194160, Note_on_c, 3, 57, 84
9, 194319, Note_on_c, 3, 57, 0
9, 194400, Note_on_c, 3, 57, 84
9, 194559, Note_on_c, 3, 57, 0
9, 194640, Note_on_c, 3, 57, 84
9, 194799, Note_on_c, 3, 57, 0
9, 194880, Note_on_c, 3, 57, 84
9, 194880, Note_on_c, 3, 60, 84
9, 195039, Note_on_c, 3, 60, 0
9, 195119, Note_on_c, 3, 57, 0
9, 195360, Note_on_c, 3, 60, 84
9, 195519, Note_on_c, 3, 60, 0
9, 195600, Note_on_c, 3, 57, 84
9, 195759, Note_on_c, 3, 57, 0
9, 195840, Note_on_c, 3, 57, 84
9, 195999, Note_on_c, 3, 57, 0
9, 196080, Note_on_c, 3, 54, 84
9, 196239, Note_on_c, 3, 54, 0
9, 196320, Note_on_c, 3, 54, 84
9, 196479, Note_on_c, 3, 54, 0
9, 196560, Note_on_c, 3, 50, 84
9, 196719, Note_on_c, 3, 50, 0
9, 196800, Note_on_c, 3, 55, 84
9, 196959, Note_on_c, 3, 55, 0
9, 197760, Note_on_c, 3, 58, 84
9, 197760, Note_on_c, 3, 55, 84
9, 197999, Note_on_c, 3, 58, 0
9, 197999, Note_on_c, 3, 55, 0
9, 198720, Note_on_c, 3, 60, 84
9, 198720, Note_on_c, 3, 53, 84
9, 198959, Note_on_c, 3, 60, 0
9, 198959, Note_on_c, 3, 53, 0
9, 199680, Note_on_c, 3, 57, 84
9, 199680, Note_on_c, 3, 60, 84
9, 199919, Note_on_c, 3, 57, 0
9, 199919, Note_on_c, 3, 60, 0
9, 200640, Note_on_c, 3, 62, 84
9, 200640, Note_on_c, 3, 58, 84
9, 200879, Note_on_c, 3, 62, 0
9, 200879, Note_on_c, 3, 58, 0
9, 201120, Note_on_c, 3, 58, 84
9, 201279, Note_on_c, 3, 58, 0
9, 201360, Note_on_c, 3, 65, 84
9, 201360, Note_on_c, 3, 53, 84
9, 201519, Note_on_c, 3, 65, 0
9, 201519, Note_on_c, 3, 53, 0
9, 201600, Note_on_c, 3, 65, 84
9, 201600, Note_on_c, 3, 53, 84
9, 201759, Note_on_c, 3, 65, 0
9, 201759, Note_on_c, 3, 53, 0
9, 201840, Note_on_c, 3, 62, 84
9, 201840, Note_on_c, 3, 50, 84
9, 201999, Note_on_c, 3, 62, 0
9, 201999, Note_on_c, 3, 50, 0
9, 202080, Note_on_c, 3, 50, 84
9, 202080, Note_on_c, 3, 62, 84
9, 202239, Note_on_c, 3, 50, 0
9, 202239, Note_on_c, 3, 62, 0
9, 202320, Note_on_c, 3, 46, 84
9, 202320, Note_on_c, 3, 58, 84
9, 202479, Note_on_c, 3, 46, 0
9, 202479, Note_on_c, 3, 58, 0
9, 202560, Note_on_c, 3, 53, 84
9, 202560, Note_on_c, 3, 41, 84
9, 202719, Note_on_c, 3, 53, 0
9, 202719, Note_on_c, 3, 41, 0
9, 203040, Note_on_c, 3, 63, 84
9, 203199, Note_on_c, 3, 63, 0
9, 203280, Note_on_c, 3, 60, 84
9, 203439, Note_on_c, 3, 60, 0
9, 203520, Note_on_c, 3, 60, 84
9, 203679, Note_on_c, 3, 60, 0
9, 203760, Note_on_c, 3, 57, 84
9, 203919, Note_on_c, 3, 57, 0
9, 204000, Note_on_c, 3, 57, 84
9, 204159, Note_on_c, 3, 57, 0
9, 204240, Note_on_c, 3, 53, 84
9, 204399, Note_on_c, 3, 53, 0
9, 204480, Note_on_c, 3, 58, 84
9, 204639, Note_on_c, 3, 58, 0
9, 205920, Note_on_c, 3, 53, 92
9, 205920, Note_on_c, 3, 50, 92
9, 206079, Note_on_c, 3, 53, 0
9, 206079, Note_on_c, 3, 50, 0
9, 206160, Note_on_c, 3, 58, 84
9, 206160, Note_on_c, 3, 53, 84
9, 206319, Note_on_c, 3, 58, 0
9, 206319, Note_on_c, 3, 53, 0
9, 206400, Note_on_c, 3, 58, 92
9, 206400, Note_on_c, 3, 53, 92
9, 206559, Note_on_c, 3, 58, 0
9, 206559, Note_on_c, 3, 53, 0
9, 206640, Note_on_c, 3, 62, 84
9, 206640, Note_on_c, 3, 58, 84
9, 206799, Note_on_c, 3, 62, 0
9, 206799, Note_on_c, 3, 58, 0
9, 207840, Note_on_c, 3, 50, 84
9, 207840, Note_on_c, 3, 53, 84
9, 207999, Note_on_c, 3, 50, 0
9, 207999, Note_on_c, 3, 53, 0
9, 208080, Note_on_c, 3, 53, 84
9, 208080, Note_on_c, 3, 58, 84
9, 208239, Note_on_c, 3, 53, 0
9, 208239, Note_on_c, 3, 58, 0
9, 208320, Note_on_c, 3, 53, 84
9, 208320, Note_on_c, 3, 58, 84
9, 208539, Note_on_c, 3, 53, 0
9, 208539, Note_on_c, 3, 58, 0
9, 208560, Note_on_c, 3, 62, 84
9, 208560, Note_on_c, 3, 58, 84
9, 208779, Note_on_c, 3, 62, 0
9, 208779, Note_on_c, 3, 58, 0
9, 208800, Note_on_c, 3, 58, 84
9, 208800, Note_on_c, 3, 55, 84
9, 209019, Note_on_c, 3, 58, 0
9, 209019, Note_on_c, 3, 55, 0
9, 209040, Note_on_c, 3, 55, 84
9, 209040, Note_on_c, 3, 52, 84
9, 209259, Note_on_c, 3, 55, 0
9, 209259, Note_on_c, 3, 52, 0
9, 209280, Note_on_c, 3, 55, 84
9, 209280, Note_on_c, 3, 52, 84
9, 209499, Note_on_c, 3, 55, 0
9, 209499, Note_on_c, 3, 52, 0
9, 209520, Note_on_c, 3, 48, 84
9, 209520, Note_on_c, 3, 52, 84
9, 209759, Note_on_c, 3, 48, 0
9, 209759, Note_on_c, 3, 52, 0
9, 210720, Note_on_c, 3, 55, 84
9, 210720, Note_on_c, 3, 58, 84
9, 210939, Note_on_c, 3, 55, 0
9, 210939, Note_on_c, 3, 58, 0
9, 210960, Note_on_c, 3, 52, 84
9, 210960, Note_on_c, 3, 55, 84
9, 211179, Note_on_c, 3, 52, 0
9, 211179, Note_on_c, 3, 55, 0
9, 211200, Note_on_c, 3, 55, 84
9, 211200, Note_on_c, 3, 52, 84
9, 211419, Note_on_c, 3, 55, 0
9, 211419, Note_on_c, 3, 52, 0
9, 211440, Note_on_c, 3, 52, 84
9, 211440, Note_on_c, 3, 48, 84
9, 211659, Note_on_c, 3, 52, 0
9, 211659, Note_on_c, 3, 48, 0
9, 211680, Note_on_c, 3, 58, 84
9, 211680, Note_on_c, 3, 55, 84
9, 211899, Note_on_c, 3, 58, 0
9, 211899, Note_on_c, 3, 55, 0
9, 211920, Note_on_c, 3, 52, 84
9, 211920, Note_on_c, 3, 55, 84
9, 212139, Note_on_c, 3, 52, 0
9, 212139, Note_on_c, 3, 55, 0
9, 212160, Note_on_c, 3, 52, 84
9, 212160, Note_on_c, 3, 55, 84
9, 212379, Note_on_c, 3, 52, 0
9, 212379, Note_on_c, 3, 55, 0
9, 212400, Note_on_c, 3, 48, 84
9, 212400, Note_on_c, 3, 52, 84
9, 212619, Note_on_c, 3, 48, 0
9, 212619, Note_on_c, 3, 52, 0
9, 212640, Note_on_c, 3, 55, 84
9, 212640, Note_on_c, 3, 58, 84
9, 212859, Note_on_c, 3, 55, 0
9, 212859, Note_on_c, 3, 58, 0
9, 212880, Note_on_c, 3, 52, 84
9, 212880, Note_on_c, 3, 55, 84
9, 213099, Note_on_c, 3, 52, 0
9, 213099, Note_on_c, 3, 55, 0
9, 213120, Note_on_c, 3, 55, 84
9, 213120, Note_on_c, 3, 52, 84
9, 213339, Note_on_c, 3, 55, 0
9, 213339, Note_on_c, 3, 52, 0
9, 213360, Note_on_c, 3, 48, 84
9, 213360, Note_on_c, 3, 52, 84
9, 213579, Note_on_c, 3, 48, 0
9, 213579, Note_on_c, 3, 52, 0
9, 213600, Note_on_c, 3, 58, 84
9, 213600, Note_on_c, 3, 55, 84
9, 213819, Note_on_c, 3, 58, 0
9, 213819, Note_on_c, 3, 55, 0
9, 213840, Note_on_c, 3, 55, 84
9, 213840, Note_on_c, 3, 52, 84
9, 214059, Note_on_c, 3, 55, 0
9, 214059, Note_on_c, 3, 52, 0
9, 214080, Note_on_c, 3, 52, 84
9, 214080, Note_on_c, 3, 55, 84
9, 214299, Note_on_c, 3, 52, 0
9, 214299, Note_on_c, 3, 55, 0
9, 214320, Note_on_c, 3, 60, 84
9, 214539, Note_on_c, 3, 60, 0
9, 214560, Note_on_c, 3, 60, 84
9, 214779, Note_on_c, 3, 60, 0
9, 214800, Note_on_c, 3, 48, 84
9, 215019, Note_on_c, 3, 48, 0
9, 215040, Note_on_c, 3, 61, 52
9, 216000, Note_on_c, 3, 65, 52
9, 216939, Note_on_c, 3, 61, 0
9, 216939, Note_on_c, 3, 65, 0
9, 216960, Note_on_c, 3, 60, 52
9, 216960, Note_on_c, 3, 63, 52
9, 217419, Note_on_c, 3, 60, 0
9, 217419, Note_on_c, 3, 63, 0
9, 217440, Note_on_c, 3, 63, 52
9, 217440, Note_on_c, 3, 66, 52
9, 217899, Note_on_c, 3, 63, 0
9, 217899, Note_on_c, 3, 66, 0
9, 217920, Note_on_c, 3, 66, 52
9, 217920, Note_on_c, 3, 63, 52
9, 218379, Note_on_c, 3, 66, 0
9, 218379, Note_on_c, 3, 63, 0
9, 218400, Note_on_c, 3, 63, 52
9, 218400, Note_on_c, 3, 66, 52
9, 218859, Note_on_c, 3, 63, 0
9, 218859, Note_on_c, 3, 66, 0
9, 218880, Note_on_c, 3, 65, 52
9, 218880, Note_on_c, 3, 61, 52
9, 220779, Note_on_c, 3, 65, 0
9, 220779, Note_on_c, 3, 61, 0
9, 220800, Note_on_c, 3, 60, 52
9, 220800, Note_on_c, 3, 63, 52
9, 221259, Note_on_c, 3, 60, 0
9, 221259, Note_on_c, 3, 63, 0
9, 221280, Note_on_c, 3, 63, 52
9, 221280, Note_on_c, 3, 66, 52
9, 221739, Note_on_c, 3, 63, 0
9, 221739, Note_on_c, 3, 66, 0
9, 221760, Note_on_c, 3, 63, 52
9, 221760, Note_on_c, 3, 66, 52
9, 222219, Note_on_c, 3, 63, 0
9, 222219, Note_on_c, 3, 66, 0
9, 222240, Note_on_c, 3, 63, 52
9, 222240, Note_on_c, 3, 66, 52
9, 222699, Note_on_c, 3, 63, 0
9, 222699, Note_on_c, 3, 66, 0
9, 222720, Note_on_c, 3, 61, 52
9, 222720, Note_on_c, 3, 65, 52
9, 222959, Note_on_c, 3, 61, 0
9, 222959, Note_on_c, 3, 65, 0
9, 223080, Control_c, 3, 11, 96
9, 223200, Note_on_c, 3, 61, 68
9, 223200, Note_on_c, 3, 65, 68
9, 223200, Control_c, 3, 11, 96
9, 223439, Note_on_c, 3, 61, 0
9, 223439, Note_on_c, 3, 65, 0
9, 223440, Control_c, 3, 11, 99
9, 223680, Control_c, 3, 11, 101
9, 223920, Control_c, 3, 11, 104
9, 224160, Control_c, 3, 11, 106
9, 224160, Note_on_c, 3, 59, 68
9, 224160, Note_on_c, 3, 62, 68
9, 224399, Note_on_c, 3, 59, 0
9, 224399, Note_on_c, 3, 62, 0
9, 224400, Control_c, 3, 11, 109
9, 224640, Control_c, 3, 11, 112
9, 224880, Control_c, 3, 11, 114
9, 225120, Control_c, 3, 11, 117
9, 225120, Note_on_c, 3, 64, 68
9, 225120, Note_on_c, 3, 58, 68
9, 225359, Note_on_c, 3, 64, 0
9, 225359, Note_on_c, 3, 58, 0
9, 225360, Control_c, 3, 11, 119
9, 225600, Control_c, 3, 11, 122
9, 225840, Control_c, 3, 11, 124
9, 226080, Control_c, 3, 11, 127
9, 226080, Note_on_c, 3, 60, 68
9, 226080, Note_on_c, 3, 48, 68
9, 226319, Note_on_c, 3, 60, 0
9, 226319, Note_on_c, 3, 48, 0
9, 226560, Note_on_c, 3, 53, 52
9, 227519, Note_on_c, 3, 53, 0
9, 227520, Note_on_c, 3, 60, 52
9, 228239, Note_on_c, 3, 60, 0
9, 228240, Note_on_c, 3, 62, 52
9, 228459, Note_on_c, 3, 62, 0
9, 228480, Note_on_c, 3, 62, 52
9, 228719, Note_on_c, 3, 62, 0
9, 228720, Note_on_c, 3, 55, 52
9, 228939, Note_on_c, 3, 55, 0
9, 228960, Note_on_c, 3, 55, 52
9, 229199, Note_on_c, 3, 55, 0
9, 229200, Note_on_c, 3, 57, 52
9, 229439, Note_on_c, 3, 57, 0
9, 229440, Note_on_c, 3, 58, 52
9, 229679, Note_on_c, 3, 58, 0
9, 229920, Note_on_c, 3, 60, 52
9, 230159, Note_on_c, 3, 60, 0
9, 230400, Note_on_c, 3, 57, 52
9, 231359, Note_on_c, 3, 57, 0
9, 231360, Note_on_c, 3, 60, 52
9, 231599, Note_on_c, 3, 60, 0
9, 231600, Note_on_c, 3, 62, 52
9, 231679, Note_on_c, 3, 62, 0
9, 231680, Note_on_c, 3, 60, 52
9, 231759, Note_on_c, 3, 60, 0
9, 231760, Note_on_c, 3, 59, 52
9, 231839, Note_on_c, 3, 59, 0
9, 231840, Note_on_c, 3, 60, 52
9, 232079, Note_on_c, 3, 60, 0
9, 232080, Note_on_c, 3, 61, 52
9, 232319, Note_on_c, 3, 61, 0
9, 232320, Note_on_c, 3, 64, 52
9, 232559, Note_on_c, 3, 64, 0
9, 232560, Note_on_c, 3, 62, 52
9, 232799, Note_on_c, 3, 62, 0
9, 232800, Note_on_c, 3, 55, 52
9, 233039, Note_on_c, 3, 55, 0
9, 233040, Note_on_c, 3, 57, 52
9, 233279, Note_on_c, 3, 57, 0
9, 233280, Note_on_c, 3, 58, 52
9, 233519, Note_on_c, 3, 58, 0
9, 233760, Note_on_c, 3, 60, 52
9, 233999, Note_on_c, 3, 60, 0
9, 234240, Note_on_c, 3, 65, 44
9, 234459, Note_on_c, 3, 65, 0
9, 234480, Note_on_c, 3, 65, 44
9, 234939, Note_on_c, 3, 65, 0
9, 234960, Note_on_c, 3, 62, 44
9, 235179, Note_on_c, 3, 62, 0
9, 235200, Note_on_c, 3, 67, 44
9, 235419, Note_on_c, 3, 67, 0
9, 235440, Note_on_c, 3, 67, 44
9, 235899, Note_on_c, 3, 67, 0
9, 235920, Note_on_c, 3, 64, 44
9, 236139, Note_on_c, 3, 64, 0
9, 236160, Note_on_c, 3, 69, 44
9, 236399, Note_on_c, 3, 69, 0
9, 240720, Note_on_c, 3, 62, 44
9, 240879, Note_on_c, 3, 62, 0
9, 240960, Note_on_c, 3, 67, 44
9, 241119, Note_on_c, 3, 67, 0
9, 241200, Note_on_c, 3, 67, 44
9, 241359, Note_on_c, 3, 67, 0
9, 241440, Note_on_c, 3, 67, 44
9, 241599, Note_on_c, 3, 67, 0
9, 241680, Note_on_c, 3, 60, 44
9, 241839, Note_on_c, 3, 60, 0
9, 241920, Note_on_c, 3, 57, 76
9, 241920, Note_on_c, 3, 53, 76
9, 242139, Note_on_c, 3, 57, 0
9, 242139, Note_on_c, 3, 53, 0
9, 242160, Note_on_c, 3, 57, 76
9, 242160, Note_on_c, 3, 53, 76
9, 242399, Note_on_c, 3, 57, 0
9, 242399, Note_on_c, 3, 53, 0
9, 242640, Note_on_c, 3, 57, 76
9, 242640, Note_on_c, 3, 54, 76
9, 242859, Note_on_c, 3, 57, 0
9, 242859, Note_on_c, 3, 54, 0
9, 242880, Note_on_c, 3, 58, 76
9, 242880, Note_on_c, 3, 55, 76
9, 243099, Note_on_c, 3, 58, 0
9, 243099, Note_on_c, 3, 55, 0
9, 243120, Note_on_c, 3, 55, 76
9, 243120, Note_on_c, 3, 58, 76
9, 243359, Note_on_c, 3, 55, 0
9, 243359, Note_on_c, 3, 58, 0
9, 243600, Note_on_c, 3, 56, 76
9, 243600, Note_on_c, 3, 59, 76
9, 243819, Note_on_c, 3, 56, 0
9, 243819, Note_on_c, 3, 59, 0
9, 243840, Note_on_c, 3, 60, 76
9, 243840, Note_on_c, 3, 57, 76
9, 244059, Note_on_c, 3, 60, 0
9, 244059, Note_on_c, 3, 57, 0
9, 244080, Note_on_c, 3, 57, 76
9, 244080, Note_on_c, 3, 60, 76
9, 244319, Note_on_c, 3, 57, 0
9, 244319, Note_on_c, 3, 60, 0
9, 244560, Note_on_c, 3, 60, 76
9, 244560, Note_on_c, 3, 57, 76
9, 244779, Note_on_c, 3, 60, 0
9, 244779, Note_on_c, 3, 57, 0
9, 244800, Note_on_c, 3, 58, 76
9, 244800, Note_on_c, 3, 62, 76
9, 245019, Note_on_c, 3, 58, 0
9, 245019, Note_on_c, 3, 62, 0
9, 245040, Note_on_c, 3, 58, 76
9, 245040, Note_on_c, 3, 62, 76
9, 245279, Note_on_c, 3, 58, 0
9, 245279, Note_on_c, 3, 62, 0
9, 245520, Note_on_c, 3, 62, 76
9, 245520, Note_on_c, 3, 59, 76
9, 245739, Note_on_c, 3, 62, 0
9, 245739, Note_on_c, 3, 59, 0
9, 245760, Note_on_c, 3, 60, 76
9, 245760, Note_on_c, 3, 64, 76
9, 245919, Note_on_c, 3, 60, 0
9, 245919, Note_on_c, 3, 64, 0
9, 246000, Note_on_c, 3, 64, 76
9, 246000, Note_on_c, 3, 60, 76
9, 246159, Note_on_c, 3, 64, 0
9, 246159, Note_on_c, 3, 60, 0
9, 246240, Note_on_c, 3, 60, 76
9, 246240, Note_on_c, 3, 64, 76
9, 246399, Note_on_c, 3, 60, 0
9, 246399, Note_on_c, 3, 64, 0
9, 246480, Note_on_c, 3, 60, 76
9, 246480, Note_on_c, 3, 65, 76
9, 246639, Note_on_c, 3, 60, 0
9, 246639, Note_on_c, 3, 65, 0
9, 246720, Note_on_c, 3, 58, 76
9, 246720, Note_on_c, 3, 62, 76
9, 246879, Note_on_c, 3, 58, 0
9, 246879, Note_on_c, 3, 62, 0
9, 246960, Note_on_c, 3, 62, 76
9, 246960, Note_on_c, 3, 58, 76
9, 247119, Note_on_c, 3, 62, 0
9, 247119, Note_on_c, 3, 58, 0
9, 247200, Note_on_c, 3, 58, 76
9, 247200, Note_on_c, 3, 62, 76
9, 247359, Note_on_c, 3, 58, 0
9, 247359, Note_on_c, 3, 62, 0
9, 247440, Note_on_c, 3, 64, 76
9, 247440, Note_on_c, 3, 59, 76
9, 247599, Note_on_c, 3, 64, 0
9, 247599, Note_on_c, 3, 59, 0
9, 247680, Note_on_c, 3, 60, 76
9, 247680, Note_on_c, 3, 57, 76
9, 247899, Note_on_c, 3, 60, 0
9, 247899, Note_on_c, 3, 57, 0
9, 247920, Note_on_c, 3, 57, 76
9, 247920, Note_on_c, 3, 60, 76
9, 248139, Note_on_c, 3, 57, 0
9, 248139, Note_on_c, 3, 60, 0
9, 248160, Note_on_c, 3, 60, 76
9, 248160, Note_on_c, 3, 57, 76
9, 248379, Note_on_c, 3, 60, 0
9, 248379, Note_on_c, 3, 57, 0
9, 248400, Note_on_c, 3, 62, 76
9, 248400, Note_on_c, 3, 57, 76
9, 248619, Note_on_c, 3, 62, 0
9, 248619, Note_on_c, 3, 57, 0
9, 248640, Note_on_c, 3, 55, 76
9, 248640, Note_on_c, 3, 58, 76
9, 248859, Note_on_c, 3, 55, 0
9, 248859, Note_on_c, 3, 58, 0
9, 248880, Note_on_c, 3, 55, 76
9, 248880, Note_on_c, 3, 58, 76
9, 249099, Note_on_c, 3, 55, 0
9, 249099, Note_on_c, 3, 58, 0
9, 249120, Note_on_c, 3, 55, 76
9, 249120, Note_on_c, 3, 58, 76
9, 249339, Note_on_c, 3, 55, 0
9, 249339, Note_on_c, 3, 58, 0
9, 249360, Note_on_c, 3, 58, 76
9, 249360, Note_on_c, 3, 55, 76
9, 249579, Note_on_c, 3, 58, 0
9, 249579, Note_on_c, 3, 55, 0
9, 249600, Note_on_c, 3, 55, 80
9, 249600, Note_on_c, 3, 58, 80
9, 251499, Note_on_c, 3, 55, 0
9, 251499, Note_on_c, 3, 58, 0
9, 251520, Note_on_c, 3, 53, 80
9, 251520, Note_on_c, 3, 57, 80
9, 253419, Note_on_c, 3, 53, 0
9, 253419, Note_on_c, 3, 57, 0
9, 253440, Note_on_c, 3, 62, 84
9, 253440, Note_on_c, 3, 58, 84
9, 255339, Note_on_c, 3, 62, 0
9, 255339, Note_on_c, 3, 58, 0
9, 255360, Note_on_c, 3, 62, 84
9, 255360, Note_on_c, 3, 58, 84
9, 255599, Note_on_c, 3, 62, 0
9, 255599, Note_on_c, 3, 58, 0
9, 275040, Note_on_c, 3, 45, 44
9, 275040, Note_on_c, 3, 57, 44
9, 275519, Note_on_c, 3, 45, 0
9, 275519, Note_on_c, 3, 57, 0
9, 275520, Note_on_c, 3, 47, 44
9, 275520, Note_on_c, 3, 59, 44
9, 275999, Note_on_c, 3, 47, 0
9, 275999, Note_on_c, 3, 59, 0
9, 276000, Note_on_c, 3, 61, 44
9, 276000, Note_on_c, 3, 49, 44
9, 276479, Note_on_c, 3, 61, 0
9, 276479, Note_on_c, 3, 49, 0
9, 276480, Note_on_c, 3, 62, 44
9, 276480, Note_on_c, 3, 50, 44
9, 276959, Note_on_c, 3, 62, 0
9, 276959, Note_on_c, 3, 50, 0
9, 276960, Note_on_c, 3, 64, 44
9, 276960, Note_on_c, 3, 52, 44
9, 277439, Note_on_c, 3, 64, 0
9, 277439, Note_on_c, 3, 52, 0
9, 277440, Note_on_c, 3, 66, 44
9, 277440, Note_on_c, 3, 54, 44
9, 277919, Note_on_c, 3, 66, 0
9, 277919, Note_on_c, 3, 54, 0
9, 277920, Note_on_c, 3, 67, 44
9, 277920, Note_on_c, 3, 55, 44
9, 278399, Note_on_c, 3, 67, 0
9, 278399, Note_on_c, 3, 55, 0
9, 278400, Note_on_c, 3, 69, 44
9, 278400, Note_on_c, 3, 57, 44
9, 278639, Note_on_c, 3, 69, 0
9, 278639, Note_on_c, 3, 57, 0
9, 282720, Note_on_c, 3, 41, 44
9, 282720, Note_on_c, 3, 53, 44
9, 283199, Note_on_c, 3, 41, 0
9, 283199, Note_on_c, 3, 53, 0
9, 283200, Note_on_c, 3, 43, 44
9, 283200, Note_on_c, 3, 55, 44
9, 283679, Note_on_c, 3, 43, 0
9, 283679, Note_on_c, 3, 55, 0
9, 283680, Note_on_c, 3, 45, 44
9, 283680, Note_on_c, 3, 57, 44
9, 284159, Note_on_c, 3, 45, 0
9, 284159, Note_on_c, 3, 57, 0
9, 284160, Note_on_c, 3, 46, 44
9, 284160, Note_on_c, 3, 58, 44
9, 284639, Note_on_c, 3, 46, 0
9, 284639, Note_on_c, 3, 58, 0
9, 284640, Note_on_c, 3, 60, 44
9, 284640, Note_on_c, 3, 48, 44
9, 285119, Note_on_c, 3, 60, 0
9, 285119, Note_on_c, 3, 48, 0
9, 285120, Note_on_c, 3, 62, 44
9, 285120, Note_on_c, 3, 50, 44
9, 285599, Note_on_c, 3, 62, 0
9, 285599, Note_on_c, 3, 50, 0
9, 285600, Note_on_c, 3, 51, 44
9, 285600, Note_on_c, 3, 63, 44
9, 286079, Note_on_c, 3, 51, 0
9, 286079, Note_on_c, 3, 63, 0
9, 286080, Note_on_c, 3, 65, 44
9, 286080, Note_on_c, 3, 53, 44
9, 286319, Note_on_c, 3, 65, 0
9, 286319, Note_on_c, 3, 53, 0
9, 286560, Note_on_c, 3, 53, 44
9, 287039, Note_on_c, 3, 53, 0
9, 287040, Note_on_c, 3, 55, 44
9, 287519, Note_on_c, 3, 55, 0
9, 287520, Note_on_c, 3, 53, 44
9, 287520, Note_on_c, 3, 57, 44
9, 287999, Note_on_c, 3, 57, 0
9, 288000, Note_on_c, 3, 58, 44
9, 288479, Note_on_c, 3, 53, 0
9, 288479, Note_on_c, 3, 58, 0
9, 288480, Note_on_c, 3, 57, 44
9, 288480, Note_on_c, 3, 60, 44
9, 288959, Note_on_c, 3, 57, 0
9, 288959, Note_on_c, 3, 60, 0
9, 288960, Note_on_c, 3, 62, 44
9, 288960, Note_on_c, 3, 58, 44
9, 289419, Note_on_c, 3, 62, 0
9, 289419, Note_on_c, 3, 58, 0
9, 289440, Note_on_c, 3, 65, 44
9, 289440, Note_on_c, 3, 62, 44
9, 290379, Note_on_c, 3, 65, 0
9, 290379, Note_on_c, 3, 62, 0
9, 290400, Note_on_c, 3, 55, 44
9, 290879, Note_on_c, 3, 55, 0
9, 290880, Note_on_c, 3, 57, 44
9, 291359, Note_on_c, 3, 57, 0
9, 291360, Note_on_c, 3, 55, 44
9, 291360, Note_on_c, 3, 59, 44
9, 291839, Note_on_c, 3, 59, 0
9, 291840, Note_on_c, 3, 60, 44
9, 292319, Note_on_c, 3, 55, 0
9, 292319, Note_on_c, 3, 60, 0
9, 292320, Note_on_c, 3, 59, 44
9, 292320, Note_on_c, 3, 62, 44
9, 292799, Note_on_c, 3, 59, 0
9, 292799, Note_on_c, 3, 62, 0
9, 292800, Note_on_c, 3, 60, 44
9, 292800, Note_on_c, 3, 63, 44
9, 293279, Note_on_c, 3, 60, 0
9, 293279, Note_on_c, 3, 63, 0
9, 293280, Note_on_c, 3, 67, 44
9, 293280, Note_on_c, 3, 55, 44
9, 293759, Note_on_c, 3, 67, 0
9, 293759, Note_on_c, 3, 55, 0
9, 293760, Note_on_c, 3, 57, 44
9, 293760, Note_on_c, 3, 64, 44
9, 293999, Note_on_c, 3, 57, 0
9, 293999, Note_on_c, 3, 64, 0
9, 296100, Control_c, 3, 11, 80
9, 296160, Note_on_c, 3, 55, 76
9, 296410, Control_c, 3, 11, 82
9, 296559, Note_on_c, 3, 55, 0
9, 296640, Note_on_c, 3, 56, 76
9, 296720, Control_c, 3, 11, 85
9, 297030, Control_c, 3, 11, 88
9, 297039, Note_on_c, 3, 56, 0
9, 297120, Note_on_c, 3, 57, 76
9, 297340, Control_c, 3, 11, 90
9, 297519, Note_on_c, 3, 57, 0
9, 297600, Note_on_c, 3, 50, 76
9, 297650, Control_c, 3, 11, 93
9, 297960, Control_c, 3, 11, 96
9, 297999, Note_on_c, 3, 50, 0
9, 298270, Control_c, 3, 11, 98
9, 298580, Control_c, 3, 11, 101
9, 298890, Control_c, 3, 11, 103
9, 299200, Control_c, 3, 11, 106
9, 299510, Control_c, 3, 11, 109
9, 299820, Control_c, 3, 11, 111
9, 300000, Note_on_c, 3, 53, 76
9, 300130, Control_c, 3, 11, 114
9, 300399, Note_on_c, 3, 53, 0
9, 300440, Control_c, 3, 11, 117
9, 300480, Note_on_c, 3, 55, 76
9, 300750, Control_c, 3, 11, 119
9, 300879, Note_on_c, 3, 55, 0
9, 300960, Note_on_c, 3, 55, 76
9, 301060, Control_c, 3, 11, 122
9, 301359, Note_on_c, 3, 55, 0
9, 301370, Control_c, 3, 11, 127
9, 301440, Note_on_c, 3, 48, 76
9, 301839, Note_on_c, 3, 48, 0
9, 301920, Note_on_c, 3, 53, 76
9, 301920, Note_on_c, 3, 65, 76
9, 302064, Note_on_c, 3, 53, 0
9, 302064, Note_on_c, 3, 65, 0
9, 302080, Note_on_c, 3, 53, 76
9, 302080, Note_on_c, 3, 65, 76
9, 302224, Note_on_c, 3, 53, 0
9, 302224, Note_on_c, 3, 65, 0
9, 302240, Note_on_c, 3, 65, 76
9, 302240, Note_on_c, 3, 53, 76
9, 302384, Note_on_c, 3, 65, 0
9, 302384, Note_on_c, 3, 53, 0
9, 302400, Note_on_c, 3, 65, 76
9, 302400, Note_on_c, 3, 53, 76
9, 302639, Note_on_c, 3, 65, 0
9, 302639, Note_on_c, 3, 53, 0
9, 302880, Note_on_c, 3, 53, 76
9, 302880, Note_on_c, 3, 65, 76
9, 303024, Note_on_c, 3, 53, 0
9, 303024, Note_on_c, 3, 65, 0
9, 303040, Note_on_c, 3, 53, 76
9, 303040, Note_on_c, 3, 65, 76
9, 303184, Note_on_c, 3, 53, 0
9, 303184, Note_on_c, 3, 65, 0
9, 303200, Note_on_c, 3, 65, 76
9, 303200, Note_on_c, 3, 53, 76
9, 303344, Note_on_c, 3, 65, 0
9, 303344, Note_on_c, 3, 53, 0
9, 303360, Note_on_c, 3, 65, 76
9, 303360, Note_on_c, 3, 53, 76
9, 303599, Note_on_c, 3, 65, 0
9, 303599, Note_on_c, 3, 53, 0
9, 303840, Note_on_c, 3, 58, 76
9, 303840, Note_on_c, 3, 46, 76
9, 303984, Note_on_c, 3, 58, 0
9, 303984, Note_on_c, 3, 46, 0
9, 304000, Note_on_c, 3, 58, 76
9, 304000, Note_on_c, 3, 46, 76
9, 304144, Note_on_c, 3, 58, 0
9, 304144, Note_on_c, 3, 46, 0
9, 304160, Note_on_c, 3, 46, 76
9, 304160, Note_on_c, 3, 58, 76
9, 304304, Note_on_c, 3, 46, 0
9, 304304, Note_on_c, 3, 58, 0
9, 304320, Note_on_c, 3, 46, 76
9, 304320, Note_on_c, 3, 58, 76
9, 304559, Note_on_c, 3, 46, 0
9, 304559, Note_on_c, 3, 58, 0
9, 304800, Note_on_c, 3, 46, 76
9, 304800, Note_on_c, 3, 58, 76
9, 304944, Note_on_c, 3, 46, 0
9, 304944, Note_on_c, 3, 58, 0
9, 304960, Note_on_c, 3, 58, 76
9, 304960, Note_on_c, 3, 46, 76
9, 305104, Note_on_c, 3, 58, 0
9, 305104, Note_on_c, 3, 46, 0
9, 305120, Note_on_c, 3, 46, 76
9, 305120, Note_on_c, 3, 58, 76
9, 305264, Note_on_c, 3, 46, 0
9, 305264, Note_on_c, 3, 58, 0
9, 305280, Note_on_c, 3, 58, 76
9, 305280, Note_on_c, 3, 46, 76
9, 305519, Note_on_c, 3, 58, 0
9, 305519, Note_on_c, 3, 46, 0
9, 305760, Note_on_c, 3, 51, 76
9, 305760, Note_on_c, 3, 63, 76
9, 305904, Note_on_c, 3, 51, 0
9, 305904, Note_on_c, 3, 63, 0
9, 305920, Note_on_c, 3, 51, 76
9, 305920, Note_on_c, 3, 63, 76
9, 306064, Note_on_c, 3, 51, 0
9, 306064, Note_on_c, 3, 63, 0
9, 306080, Note_on_c, 3, 63, 76
9, 306080, Note_on_c, 3, 51, 76
9, 306224, Note_on_c, 3, 63, 0
9, 306224, Note_on_c, 3, 51, 0
9, 306240, Note_on_c, 3, 63, 76
9, 306240, Note_on_c, 3, 51, 76
9, 306479, Note_on_c, 3, 63, 0
9, 306479, Note_on_c, 3, 51, 0
9, 306720, Note_on_c, 3, 51, 76
9, 306720, Note_on_c, 3, 63, 76
9, 306864, Note_on_c, 3, 51, 0
9, 306864, Note_on_c, 3, 63, 0
9, 306880, Note_on_c, 3, 51, 76
9, 306880, Note_on_c, 3, 63, 76
9, 307024, Note_on_c, 3, 51, 0
9, 307024, Note_on_c, 3, 63, 0
9, 307040, Note_on_c, 3, 51, 76
9, 307040, Note_on_c, 3, 63, 76
9, 307184, Note_on_c, 3, 51, 0
9, 307184, Note_on_c, 3, 63, 0
9, 307200, Note_on_c, 3, 51, 76
9, 307200, Note_on_c, 3, 63, 76
9, 307439, Note_on_c, 3, 51, 0
9, 307439, Note_on_c, 3, 63, 0
9, 307680, Note_on_c, 3, 63, 76
9, 307680, Note_on_c, 3, 51, 76
9, 307824, Note_on_c, 3, 63, 0
9, 307824, Note_on_c, 3, 51, 0
9, 307840, Note_on_c, 3, 56, 76
9, 307984, Note_on_c, 3, 56, 0
9, 308000, Note_on_c, 3, 56, 76
9, 308144, Note_on_c, 3, 56, 0
9, 308160, Note_on_c, 3, 56, 76
9, 308399, Note_on_c, 3, 56, 0
9, 308640, Note_on_c, 3, 56, 76
9, 308784, Note_on_c, 3, 56, 0
9, 308800, Note_on_c, 3, 56, 76
9, 308944, Note_on_c, 3, 56, 0
9, 308960, Note_on_c, 3, 56, 76
9, 309104, Note_on_c, 3, 56, 0
9, 309120, Note_on_c, 3, 56, 76
9, 309359, Note_on_c, 3, 56, 0
9, 309600, Note_on_c, 3, 53, 76
9, 309600, Note_on_c, 3, 49, 76
9, 309999, Note_on_c, 3, 53, 0
9, 309999, Note_on_c, 3, 49, 0
9, 310080, Note_on_c, 3, 51, 76
9, 310080, Note_on_c, 3, 55, 76
9, 310479, Note_on_c, 3, 51, 0
9, 310479, Note_on_c, 3, 55, 0
9, 310560, Note_on_c, 3, 56, 76
9, 310560, Note_on_c, 3, 53, 76
9, 310959, Note_on_c, 3, 56, 0
9, 310959, Note_on_c, 3, 53, 0
9, 311040, Note_on_c, 3, 58, 76
9, 311040, Note_on_c, 3, 55, 76
9, 311439, Note_on_c, 3, 58, 0
9, 311439, Note_on_c, 3, 55, 0
9, 311520, Note_on_c, 3, 60, 76
9, 311520, Note_on_c, 3, 56, 76
9, 311919, Note_on_c, 3, 60, 0
9, 311919, Note_on_c, 3, 56, 0
9, 312000, Note_on_c, 3, 58, 76
9, 312000, Note_on_c, 3, 61, 76
9, 312399, Note_on_c, 3, 58, 0
9, 312399, Note_on_c, 3, 61, 0
9, 312480, Note_on_c, 3, 59, 76
9, 312480, Note_on_c, 3, 62, 76
9, 312879, Note_on_c, 3, 59, 0
9, 312879, Note_on_c, 3, 62, 0
9, 312960, Note_on_c, 3, 64, 76
9, 312960, Note_on_c, 3, 60, 76
9, 313359, Note_on_c, 3, 64, 0
9, 313359, Note_on_c, 3, 60, 0
9, 313440, Note_on_c, 3, 52, 76
9, 313440, Note_on_c, 3, 48, 76
9, 313839, Note_on_c, 3, 52, 0
9, 313839, Note_on_c, 3, 48, 0
9, 313920, Note_on_c, 3, 50, 76
9, 313920, Note_on_c, 3, 53, 76
9, 314319, Note_on_c, 3, 50, 0
9, 314319, Note_on_c, 3, 53, 0
9, 314400, Note_on_c, 3, 52, 76
9, 314400, Note_on_c, 3, 55, 76
9, 314799, Note_on_c, 3, 52, 0
9, 314799, Note_on_c, 3, 55, 0
9, 314880, Note_on_c, 3, 56, 76
9, 314880, Note_on_c, 3, 53, 76
9, 315279, Note_on_c, 3, 56, 0
9, 315279, Note_on_c, 3, 53, 0
9, 315360, Note_on_c, 3, 55, 76
9, 315360, Note_on_c, 3, 58, 76
9, 315759, Note_on_c, 3, 55, 0
9, 315759, Note_on_c, 3, 58, 0
9, 315840, Note_on_c, 3, 60, 76
9, 315840, Note_on_c, 3, 56, 76
9, 316239, Note_on_c, 3, 60, 0
9, 316239, Note_on_c, 3, 56, 0
9, 316320, Note_on_c, 3, 60, 76
9, 316320, Note_on_c, 3, 57, 76
9, 316719, Note_on_c, 3, 60, 0
9, 316719, Note_on_c, 3, 57, 0
9, 316800, Note_on_c, 3, 62, 76
9, 316800, Note_on_c, 3, 58, 76
9, 316944, Note_on_c, 3, 62, 0
9, 316944, Note_on_c, 3, 58, 0
9, 316960, Note_on_c, 3, 58, 76
9, 317104, Note_on_c, 3, 58, 0
9, 317120, Note_on_c, 3, 58, 76
9, 317264, Note_on_c, 3, 58, 0
9, 317280, Note_on_c, 3, 58, 76
9, 317424, Note_on_c, 3, 58, 0
9, 317440, Note_on_c, 3, 58, 76
9, 317584, Note_on_c, 3, 58, 0
9, 317600, Note_on_c, 3, 58, 76
9, 317744, Note_on_c, 3, 58, 0
9, 317760, Note_on_c, 3, 58, 76
9, 317904, Note_on_c, 3, 58, 0
9, 317920, Note_on_c, 3, 58, 76
9, 318064, Note_on_c, 3, 58, 0
9, 318080, Note_on_c, 3, 58, 76
9, 318224, Note_on_c, 3, 58, 0
9, 318240, Note_on_c, 3, 58, 76
9, 318384, Note_on_c, 3, 58, 0
9, 318400, Note_on_c, 3, 58, 76
9, 318544, Note_on_c, 3, 58, 0
9, 318560, Note_on_c, 3, 58, 76
9, 318704, Note_on_c, 3, 58, 0
9, 318720, Note_on_c, 3, 58, 76
9, 318864, Note_on_c, 3, 58, 0
9, 318880, Note_on_c, 3, 63, 76
9, 319024, Note_on_c, 3, 63, 0
9, 319040, Note_on_c, 3, 63, 76
9, 319184, Note_on_c, 3, 63, 0
9, 319200, Note_on_c, 3, 63, 76
9, 319344, Note_on_c, 3, 63, 0
9, 319360, Note_on_c, 3, 63, 76
9, 319504, Note_on_c, 3, 63, 0
9, 319520, Note_on_c, 3, 63, 76
9, 319664, Note_on_c, 3, 63, 0
9, 319680, Note_on_c, 3, 63, 76
9, 319824, Note_on_c, 3, 63, 0
9, 319840, Note_on_c, 3, 63, 76
9, 319984, Note_on_c, 3, 63, 0
9, 320000, Note_on_c, 3, 63, 76
9, 320144, Note_on_c, 3, 63, 0
9, 320160, Note_on_c, 3, 64, 76
9, 320304, Note_on_c, 3, 64, 0
9, 320320, Note_on_c, 3, 64, 76
9, 320464, Note_on_c, 3, 64, 0
9, 320480, Note_on_c, 3, 64, 76
9, 320624, Note_on_c, 3, 64, 0
9, 320640, Note_on_c, 3, 64, 76
9, 320784, Note_on_c, 3, 64, 0
9, 320800, Note_on_c, 3, 57, 76
9, 320944, Note_on_c, 3, 57, 0
9, 320960, Note_on_c, 3, 57, 76
9, 321104, Note_on_c, 3, 57, 0
9, 321120, Note_on_c, 3, 57, 76
9, 321264, Note_on_c, 3, 57, 0
9, 321280, Note_on_c, 3, 57, 76
9, 321424, Note_on_c, 3, 57, 0
9, 321440, Note_on_c, 3, 57, 76
9, 321584, Note_on_c, 3, 57, 0
9, 321600, Note_on_c, 3, 57, 76
9, 321744, Note_on_c, 3, 57, 0
9, 321760, Note_on_c, 3, 57, 76
9, 321904, Note_on_c, 3, 57, 0
9, 321920, Note_on_c, 3, 57, 76
9, 322064, Note_on_c, 3, 57, 0
9, 322080, Note_on_c, 3, 57, 76
9, 322224, Note_on_c, 3, 57, 0
9, 322240, Note_on_c, 3, 57, 76
9, 322384, Note_on_c, 3, 57, 0
9, 322400, Note_on_c, 3, 57, 76
9, 322544, Note_on_c, 3, 57, 0
9, 322560, Note_on_c, 3, 57, 76
9, 322704, Note_on_c, 3, 57, 0
9, 322720, Note_on_c, 3, 62, 76
9, 322864, Note_on_c, 3, 62, 0
9, 322880, Note_on_c, 3, 62, 76
9, 323024, Note_on_c, 3, 62, 0
9, 323040, Note_on_c, 3, 62, 76
9, 323184, Note_on_c, 3, 62, 0
9, 323200, Note_on_c, 3, 62, 76
9, 323344, Note_on_c, 3, 62, 0
9, 323360, Note_on_c, 3, 62, 76
9, 323504, Note_on_c, 3, 62, 0
9, 323520, Note_on_c, 3, 62, 76
9, 323664, Note_on_c, 3, 62, 0
9, 323680, Note_on_c, 3, 55, 76
9, 323824, Note_on_c, 3, 55, 0
9, 323840, Note_on_c, 3, 55, 76
9, 323984, Note_on_c, 3, 55, 0
9, 324000, Note_on_c, 3, 55, 76
9, 324144, Note_on_c, 3, 55, 0
9, 324160, Note_on_c, 3, 55, 76
9, 324304, Note_on_c, 3, 55, 0
9, 324320, Note_on_c, 3, 55, 76
9, 324464, Note_on_c, 3, 55, 0
9, 324480, Note_on_c, 3, 63, 76
9, 324624, Note_on_c, 3, 63, 0
9, 324640, Note_on_c, 3, 63, 76
9, 324784, Note_on_c, 3, 63, 0
9, 324800, Note_on_c, 3, 63, 76
9, 324944, Note_on_c, 3, 63, 0
9, 324960, Note_on_c, 3, 60, 76
9, 325104, Note_on_c, 3, 60, 0
9, 325120, Note_on_c, 3, 60, 76
9, 325264, Note_on_c, 3, 60, 0
9, 325280, Note_on_c, 3, 60, 76
9, 325424, Note_on_c, 3, 60, 0
9, 325440, Note_on_c, 3, 53, 76
9, 325584, Note_on_c, 3, 53, 0
9, 325600, Note_on_c, 3, 53, 76
9, 325744, Note_on_c, 3, 53, 0
9, 325760, Note_on_c, 3, 53, 76
9, 325904, Note_on_c, 3, 53, 0
9, 325920, Note_on_c, 3, 65, 76
9, 326064, Note_on_c, 3, 65, 0
9, 326080, Note_on_c, 3, 65, 76
9, 326224, Note_on_c, 3, 65, 0
9, 326240, Note_on_c, 3, 65, 76
9, 326384, Note_on_c, 3, 65, 0
9, 326400, Note_on_c, 3, 62, 76
9, 326544, Note_on_c, 3, 62, 0
9, 326560, Note_on_c, 3, 62, 76
9, 326704, Note_on_c, 3, 62, 0
9, 326720, Note_on_c, 3, 62, 76
9, 326864, Note_on_c, 3, 62, 0
9, 326880, Note_on_c, 3, 62, 76
9, 327024, Note_on_c, 3, 62, 0
9, 327040, Note_on_c, 3, 62, 76
9, 327184, Note_on_c, 3, 62, 0
9, 327200, Note_on_c, 3, 62, 76
9, 327344, Note_on_c, 3, 62, 0
9, 327360, Note_on_c, 3, 64, 76
9, 327504, Note_on_c, 3, 64, 0
9, 327520, Note_on_c, 3, 64, 76
9, 327664, Note_on_c, 3, 64, 0
9, 327680, Note_on_c, 3, 64, 76
9, 327824, Note_on_c, 3, 64, 0
9, 327840, Note_on_c, 3, 57, 76
9, 327984, Note_on_c, 3, 57, 0
9, 328000, Note_on_c, 3, 57, 76
9, 328144, Note_on_c, 3, 57, 0
9, 328160, Note_on_c, 3, 57, 76
9, 328304, Note_on_c, 3, 57, 0
9, 328320, Note_on_c, 3, 57, 76
9, 328464, Note_on_c, 3, 57, 0
9, 328480, Note_on_c, 3, 57, 76
9, 328624, Note_on_c, 3, 57, 0
9, 328640, Note_on_c, 3, 57, 76
9, 328784, Note_on_c, 3, 57, 0
9, 328800, Note_on_c, 3, 57, 76
9, 328944, Note_on_c, 3, 57, 0
9, 328960, Note_on_c, 3, 57, 76
9, 329104, Note_on_c, 3, 57, 0
9, 329120, Note_on_c, 3, 57, 76
9, 329264, Note_on_c, 3, 57, 0
9, 329280, Note_on_c, 3, 57, 76
9, 329424, Note_on_c, 3, 57, 0
9, 329440, Note_on_c, 3, 57, 76
9, 329584, Note_on_c, 3, 57, 0
9, 329600, Note_on_c, 3, 57, 76
9, 329744, Note_on_c, 3, 57, 0
9, 329760, Note_on_c, 3, 57, 76
9, 329904, Note_on_c, 3, 57, 0
9, 329920, Note_on_c, 3, 57, 76
9, 330064, Note_on_c, 3, 57, 0
9, 330080, Note_on_c, 3, 57, 76
9, 330224, Note_on_c, 3, 57, 0
9, 330240, Note_on_c, 3, 57, 76
9, 330384, Note_on_c, 3, 57, 0
9, 330400, Note_on_c, 3, 57, 76
9, 330544, Note_on_c, 3, 57, 0
9, 330560, Note_on_c, 3, 57, 76
9, 330704, Note_on_c, 3, 57, 0
9, 330720, Note_on_c, 3, 57, 76
9, 330864, Note_on_c, 3, 57, 0
9, 330880, Note_on_c, 3, 57, 76
9, 331024, Note_on_c, 3, 57, 0
9, 331040, Note_on_c, 3, 57, 76
9, 331184, Note_on_c, 3, 57, 0
9, 331200, Note_on_c, 3, 57, 76
9, 331344, Note_on_c, 3, 57, 0
9, 331360, Note_on_c, 3, 57, 76
9, 331504, Note_on_c, 3, 57, 0
9, 331520, Note_on_c, 3, 57, 76
9, 331664, Note_on_c, 3, 57, 0
9, 331680, Note_on_c, 3, 57, 84
9, 331680, Note_on_c, 3, 45, 84
9, 335519, Note_on_c, 3, 57, 0
9, 335519, Note_on_c, 3, 45, 0
9, 337440, Note_on_c, 3, 41, 44
9, 337599, Note_on_c, 3, 41, 0
9, 337680, Note_on_c, 3, 53, 44
9, 337839, Note_on_c, 3, 53, 0
9, 337920, Note_on_c, 3, 41, 44
9, 338079, Note_on_c, 3, 41, 0
9, 338160, Note_on_c, 3, 53, 44
9, 338319, Note_on_c, 3, 53, 0
9, 338400, Note_on_c, 3, 41, 44
9, 338559, Note_on_c, 3, 41, 0
9, 338640, Note_on_c, 3, 53, 44
9, 338799, Note_on_c, 3, 53, 0
9, 338880, Note_on_c, 3, 41, 44
9, 339039, Note_on_c, 3, 41, 0
9, 339120, Note_on_c, 3, 53, 44
9, 339279, Note_on_c, 3, 53, 0
9, 339360, Note_on_c, 3, 41, 44
9, 339519, Note_on_c, 3, 41, 0
9, 339600, Note_on_c, 3, 53, 44
9, 339759, Note_on_c, 3, 53, 0
9, 339840, Note_on_c, 3, 41, 44
9, 339999, Note_on_c, 3, 41, 0
9, 340080, Note_on_c, 3, 53, 44
9, 340239, Note_on_c, 3, 53, 0
9, 340320, Note_on_c, 3, 41, 44
9, 340479, Note_on_c, 3, 41, 0
9, 340560, Note_on_c, 3, 53, 44
9, 340719, Note_on_c, 3, 53, 0
9, 340800, Note_on_c, 3, 41, 44
9, 340959, Note_on_c, 3, 41, 0
9, 341040, Note_on_c, 3, 53, 44
9, 341199, Note_on_c, 3, 53, 0
9, 341280, Note_on_c, 3, 41, 44
9, 341439, Note_on_c, 3, 41, 0
9, 341520, Note_on_c, 3, 53, 44
9, 341679, Note_on_c, 3, 53, 0
9, 341760, Note_on_c, 3, 41, 44
9, 341919, Note_on_c, 3, 41, 0
9, 342000, Note_on_c, 3, 53, 44
9, 342159, Note_on_c, 3, 53, 0
9, 342240, Note_on_c, 3, 41, 44
9, 342399, Note_on_c, 3, 41, 0
9, 342480, Note_on_c, 3, 53, 44
9, 342639, Note_on_c, 3, 53, 0
9, 342720, Note_on_c, 3, 41, 44
9, 342879, Note_on_c, 3, 41, 0
9, 342960, Note_on_c, 3, 53, 44
9, 343119, Note_on_c, 3, 53, 0
9, 343200, Note_on_c, 3, 41, 44
9, 343359, Note_on_c, 3, 41, 0
9, 343440, Note_on_c, 3, 53, 44
9, 343599, Note_on_c, 3, 53, 0
9, 343680, Note_on_c, 3, 41, 44
9, 343839, Note_on_c, 3, 41, 0
9, 343920, Note_on_c, 3, 53, 44
9, 344079, Note_on_c, 3, 53, 0
9, 344160, Note_on_c, 3, 41, 44
9, 344319, Note_on_c, 3, 41, 0
9, 344400, Note_on_c, 3, 53, 44
9, 344559, Note_on_c, 3, 53, 0
9, 344640, Note_on_c, 3, 41, 44
9, 344799, Note_on_c, 3, 41, 0
9, 344880, Note_on_c, 3, 53, 44
9, 345039, Note_on_c, 3, 53, 0
9, 345120, Note_on_c, 3, 41, 44
9, 345279, Note_on_c, 3, 41, 0
9, 345360, Note_on_c, 3, 53, 44
9, 345519, Note_on_c, 3, 53, 0
9, 346080, Note_on_c, 3, 62, 44
9, 346319, Note_on_c, 3, 62, 0
9, 346440, Note_on_c, 3, 60, 44
9, 346539, Note_on_c, 3, 60, 0
9, 346560, Note_on_c, 3, 60, 44
9, 346799, Note_on_c, 3, 60, 0
9, 346800, Note_on_c, 3, 58, 44
9, 347019, Note_on_c, 3, 58, 0
9, 347040, Note_on_c, 3, 58, 44
9, 347040, Note_on_c, 3, 55, 44
9, 347199, Note_on_c, 3, 58, 0
9, 347199, Note_on_c, 3, 55, 0
9, 347280, Note_on_c, 3, 60, 44
9, 347280, Note_on_c, 3, 57, 44
9, 347439, Note_on_c, 3, 60, 0
9, 347439, Note_on_c, 3, 57, 0
9, 347520, Note_on_c, 3, 62, 44
9, 347520, Note_on_c, 3, 58, 44
9, 347679, Note_on_c, 3, 62, 0
9, 347679, Note_on_c, 3, 58, 0
9, 347760, Note_on_c, 3, 58, 44
9, 347760, Note_on_c, 3, 62, 44
9, 347919, Note_on_c, 3, 58, 0
9, 347919, Note_on_c, 3, 62, 0
9, 348000, Note_on_c, 3, 58, 44
9, 348000, Note_on_c, 3, 62, 44
9, 348159, Note_on_c, 3, 58, 0
9, 348159, Note_on_c, 3, 62, 0
9, 348240, Note_on_c, 3, 60, 44
9, 348240, Note_on_c, 3, 64, 44
9, 348399, Note_on_c, 3, 60, 0
9, 348399, Note_on_c, 3, 64, 0
9, 348480, Note_on_c, 3, 62, 44
9, 348480, Note_on_c, 3, 65, 44
9, 348699, Note_on_c, 3, 62, 0
9, 348699, Note_on_c, 3, 65, 0
9, 348720, Note_on_c, 3, 52, 44
9, 348720, Note_on_c, 3, 55, 44
9, 348939, Note_on_c, 3, 52, 0
9, 348939, Note_on_c, 3, 55, 0
9, 348960, Note_on_c, 3, 53, 44
9, 348960, Note_on_c, 3, 57, 44
9, 349179, Note_on_c, 3, 53, 0
9, 349179, Note_on_c, 3, 57, 0
9, 349200, Note_on_c, 3, 57, 44
9, 349200, Note_on_c, 3, 53, 44
9, 349419, Note_on_c, 3, 57, 0
9, 349419, Note_on_c, 3, 53, 0
9, 349440, Note_on_c, 3, 60, 44
9, 349440, Note_on_c, 3, 55, 44
9, 349659, Note_on_c, 3, 60, 0
9, 349659, Note_on_c, 3, 55, 0
9, 349680, Note_on_c, 3, 60, 44
9, 349899, Note_on_c, 3, 60, 0
9, 349920, Note_on_c, 3, 55, 44
9, 350139, Note_on_c, 3, 55, 0
9, 350160, Note_on_c, 3, 67, 44
9, 350379, Note_on_c, 3, 67, 0
9, 350400, Note_on_c, 3, 60, 44
9, 350639, Note_on_c, 3, 60, 0
9, 351840, Note_on_c, 3, 62, 44
9, 351840, Note_on_c, 3, 55, 44
9, 351984, Note_on_c, 3, 62, 0
9, 351984, Note_on_c, 3, 55, 0
9, 352000, Note_on_c, 3, 62, 44
9, 352000, Note_on_c, 3, 55, 44
9, 352144, Note_on_c, 3, 62, 0
9, 352144, Note_on_c, 3, 55, 0
9, 352160, Note_on_c, 3, 62, 44
9, 352160, Note_on_c, 3, 55, 44
9, 352304, Note_on_c, 3, 62, 0
9, 352304, Note_on_c, 3, 55, 0
9, 352320, Note_on_c, 3, 62, 44
9, 352320, Note_on_c, 3, 55, 44
9, 352479, Note_on_c, 3, 62, 0
9, 352479, Note_on_c, 3, 55, 0
9, 352480, Note_on_c, 3, 64, 44
9, 352480, Note_on_c, 3, 60, 44
9, 352624, Note_on_c, 3, 64, 0
9, 352624, Note_on_c, 3, 60, 0
9, 352640, Note_on_c, 3, 60, 44
9, 352640, Note_on_c, 3, 52, 44
9, 352759, Note_on_c, 3, 60, 0
9, 352759, Note_on_c, 3, 52, 0
9, 357600, Note_on_c, 3, 49, 84
9, 358559, Note_on_c, 3, 49, 0
9, 359520, Note_on_c, 3, 49, 84
9, 360479, Note_on_c, 3, 49, 0
9, 361440, Note_on_c, 3, 49, 84
9, 362379, Note_on_c, 3, 49, 0
9, 362400, Note_on_c, 3, 49, 84
9, 363339, Note_on_c, 3, 49, 0
9, 363360, Note_on_c, 3, 49, 84
9, 364299, Note_on_c, 3, 49, 0
9, 364320, Note_on_c, 3, 66, 84
9, 364320, Note_on_c, 3, 54, 84
9, 364464, Note_on_c, 3, 66, 0
9, 364464, Note_on_c, 3, 54, 0
9, 364480, Note_on_c, 3, 66, 84
9, 364480, Note_on_c, 3, 54, 84
9, 364624, Note_on_c, 3, 66, 0
9, 364624, Note_on_c, 3, 54, 0
9, 364640, Note_on_c, 3, 66, 84
9, 364640, Note_on_c, 3, 54, 84
9, 364784, Note_on_c, 3, 66, 0
9, 364784, Note_on_c, 3, 54, 0
9, 364800, Note_on_c, 3, 66, 84
9, 364800, Note_on_c, 3, 54, 84
9, 365019, Note_on_c, 3, 66, 0
9, 365019, Note_on_c, 3, 54, 0
9, 365040, Note_on_c, 3, 54, 84
9, 365040, Note_on_c, 3, 66, 84
9, 365259, Note_on_c, 3, 54, 0
9, 365259, Note_on_c, 3, 66, 0
9, 365280, Note_on_c, 3, 66, 84
9, 365280, Note_on_c, 3, 54, 84
9, 365499, Note_on_c, 3, 66, 0
9, 365499, Note_on_c, 3, 54, 0
9, 365520, Note_on_c, 3, 54, 84
9, 365520, Note_on_c, 3, 66, 84
9, 365739, Note_on_c, 3, 54, 0
9, 365739, Note_on_c, 3, 66, 0
9, 365760, Note_on_c, 3, 54, 84
9, 365760, Note_on_c, 3, 66, 84
9, 365979, Note_on_c, 3, 54, 0
9, 365979, Note_on_c, 3, 66, 0
9, 366000, Note_on_c, 3, 54, 84
9, 366000, Note_on_c, 3, 66, 84
9, 366219, Note_on_c, 3, 54, 0
9, 366219, Note_on_c, 3, 66, 0
9, 366240, Note_on_c, 3, 66, 84
9, 366240, Note_on_c, 3, 54, 84
9, 366384, Note_on_c, 3, 66, 0
9, 366384, Note_on_c, 3, 54, 0
9, 366400, Note_on_c, 3, 66, 84
9, 366400, Note_on_c, 3, 54, 84
9, 366544, Note_on_c, 3, 66, 0
9, 366544, Note_on_c, 3, 54, 0
9, 366560, Note_on_c, 3, 54, 84
9, 366560, Note_on_c, 3, 66, 84
9, 366704, Note_on_c, 3, 54, 0
9, 366704, Note_on_c, 3, 66, 0
9, 366720, Note_on_c, 3, 66, 84
9, 366720, Note_on_c, 3, 54, 84
9, 366939, Note_on_c, 3, 66, 0
9, 366939, Note_on_c, 3, 54, 0
9, 366960, Note_on_c, 3, 66, 84
9, 366960, Note_on_c, 3, 54, 84
9, 367179, Note_on_c, 3, 66, 0
9, 367179, Note_on_c, 3, 54, 0
9, 367200, Note_on_c, 3, 54, 84
9, 367200, Note_on_c, 3, 66, 84
9, 367419, Note_on_c, 3, 54, 0
9, 367419, Note_on_c, 3, 66, 0
9, 367440, Note_on_c, 3, 66, 84
9, 367440, Note_on_c, 3, 54, 84
9, 367659, Note_on_c, 3, 66, 0
9, 367659, Note_on_c, 3, 54, 0
9, 367680, Note_on_c, 3, 54, 84
9, 367680, Note_on_c, 3, 66, 84
9, 367899, Note_on_c, 3, 54, 0
9, 367899, Note_on_c, 3, 66, 0
9, 367920, Note_on_c, 3, 66, 84
9, 367920, Note_on_c, 3, 54, 84
9, 368139, Note_on_c, 3, 66, 0
9, 368139, Note_on_c, 3, 54, 0
9, 368160, Note_on_c, 3, 54, 84
9, 368160, Note_on_c, 3, 66, 84
9, 368399, Note_on_c, 3, 54, 0
9, 368399, Note_on_c, 3, 66, 0
9, 368520, Note_on_c, 3, 66, 84
9, 368520, Note_on_c, 3, 54, 84
9, 368619, Note_on_c, 3, 66, 0
9, 368619, Note_on_c, 3, 54, 0
9, 368640, Note_on_c, 3, 54, 84
9, 368640, Note_on_c, 3, 66, 84
9, 368879, Note_on_c, 3, 54, 0
9, 368879, Note_on_c, 3, 66, 0
9, 369120, Note_on_c, 3, 54, 84
9, 369120, Note_on_c, 3, 66, 84
9, 369359, Note_on_c, 3, 54, 0
9, 369359, Note_on_c, 3, 66, 0
9, 369480, Note_on_c, 3, 66, 84
9, 369480, Note_on_c, 3, 54, 84
9, 369579, Note_on_c, 3, 66, 0
9, 369579, Note_on_c, 3, 54, 0
9, 369600, Note_on_c, 3, 55, 84
9, 369600, Note_on_c, 3, 67, 84
9, 369819, Note_on_c, 3, 55, 0
9, 369819, Note_on_c, 3, 67, 0
9, 369840, Note_on_c, 3, 67, 84
9, 369840, Note_on_c, 3, 55, 84
9, 369999, Note_on_c, 3, 67, 0
9, 369999, Note_on_c, 3, 55, 0
9, 370080, Note_on_c, 3, 53, 84
9, 370080, Note_on_c, 3, 65, 84
9, 370239, Note_on_c, 3, 53, 0
9, 370239, Note_on_c, 3, 65, 0
9, 370320, Note_on_c, 3, 66, 84
9, 370320, Note_on_c, 3, 54, 84
9, 370479, Note_on_c, 3, 66, 0
9, 370479, Note_on_c, 3, 54, 0
9, 370560, Note_on_c, 3, 54, 84
9, 370560, Note_on_c, 3, 66, 84
9, 370779, Note_on_c, 3, 54, 0
9, 370779, Note_on_c, 3, 66, 0
9, 370800, Note_on_c, 3, 66, 84
9, 370800, Note_on_c, 3, 54, 84
9, 371019, Note_on_c, 3, 66, 0
9, 371019, Note_on_c, 3, 54, 0
9, 371040, Note_on_c, 3, 66, 84
9, 371040, Note_on_c, 3, 54, 84
9, 371259, Note_on_c, 3, 66, 0
9, 371259, Note_on_c, 3, 54, 0
9, 371280, Note_on_c, 3, 54, 84
9, 371280, Note_on_c, 3, 66, 84
9, 371499, Note_on_c, 3, 54, 0
9, 371499, Note_on_c, 3, 66, 0
9, 371520, Note_on_c, 3, 66, 84
9, 371520, Note_on_c, 3, 54, 84
9, 371739, Note_on_c, 3, 66, 0
9, 371739, Note_on_c, 3, 54, 0
9, 371760, Note_on_c, 3, 53, 84
9, 371760, Note_on_c, 3, 65, 84
9, 371979, Note_on_c, 3, 53, 0
9, 371979, Note_on_c, 3, 65, 0
9, 372000, Note_on_c, 3, 54, 84
9, 372000, Note_on_c, 3, 66, 84
9, 372219, Note_on_c, 3, 54, 0
9, 372219, Note_on_c, 3, 66, 0
9, 372240, Note_on_c, 3, 54, 84
9, 372240, Note_on_c, 3, 66, 84
9, 372459, Note_on_c, 3, 54, 0
9, 372459, Note_on_c, 3, 66, 0
9, 372480, Note_on_c, 3, 66, 84
9, 372480, Note_on_c, 3, 54, 84
9, 372699, Note_on_c, 3, 66, 0
9, 372699, Note_on_c, 3, 54, 0
9, 372720, Note_on_c, 3, 54, 84
9, 372720, Note_on_c, 3, 66, 84
9, 372939, Note_on_c, 3, 54, 0
9, 372939, Note_on_c, 3, 66, 0
9, 372960, Note_on_c, 3, 66, 84
9, 372960, Note_on_c, 3, 54, 84
9, 373179, Note_on_c, 3, 66, 0
9, 373179, Note_on_c, 3, 54, 0
9, 373200, Note_on_c, 3, 66, 84
9, 373200, Note_on_c, 3, 54, 84
9, 373419, Note_on_c, 3, 66, 0
9, 373419, Note_on_c, 3, 54, 0
9, 373440, Note_on_c, 3, 66, 84
9, 373440, Note_on_c, 3, 54, 84
9, 373659, Note_on_c, 3, 66, 0
9, 373659, Note_on_c, 3, 54, 0
9, 373680, Note_on_c, 3, 65, 84
9, 373680, Note_on_c, 3, 53, 84
9, 373899, Note_on_c, 3, 65, 0
9, 373899, Note_on_c, 3, 53, 0
9, 373920, Note_on_c, 3, 54, 84
9, 373920, Note_on_c, 3, 66, 84
9, 374139, Note_on_c, 3, 54, 0
9, 374139, Note_on_c, 3, 66, 0
9, 374160, Note_on_c, 3, 54, 84
9, 374160, Note_on_c, 3, 66, 84
9, 374379, Note_on_c, 3, 54, 0
9, 374379, Note_on_c, 3, 66, 0
9, 374400, Note_on_c, 3, 54, 84
9, 374400, Note_on_c, 3, 66, 84
9, 374619, Note_on_c, 3, 54, 0
9, 374619, Note_on_c, 3, 66, 0
9, 374640, Note_on_c, 3, 54, 84
9, 374640, Note_on_c, 3, 66, 84
9, 374859, Note_on_c, 3, 54, 0
9, 374859, Note_on_c, 3, 66, 0
9, 374880, Note_on_c, 3, 66, 84
9, 374880, Note_on_c, 3, 54, 84
9, 375099, Note_on_c, 3, 66, 0
9, 375099, Note_on_c, 3, 54, 0
9, 375120, Note_on_c, 3, 66, 84
9, 375120, Note_on_c, 3, 54, 84
9, 375339, Note_on_c, 3, 66, 0
9, 375339, Note_on_c, 3, 54, 0
9, 375360, Note_on_c, 3, 54, 84
9, 375360, Note_on_c, 3, 66, 84
9, 375579, Note_on_c, 3, 54, 0
9, 375579, Note_on_c, 3, 66, 0
9, 375600, Note_on_c, 3, 59, 84
9, 375600, Note_on_c, 3, 56, 84
9, 375819, Note_on_c, 3, 59, 0
9, 375819, Note_on_c, 3, 56, 0
9, 375840, Note_on_c, 3, 60, 84
9, 375840, Note_on_c, 3, 57, 84
9, 376059, Note_on_c, 3, 60, 0
9, 376059, Note_on_c, 3, 57, 0
9, 376080, Note_on_c, 3, 57, 84
9, 376299, Note_on_c, 3, 57, 0
9, 376320, Note_on_c, 3, 55, 84
9, 376539, Note_on_c, 3, 55, 0
9, 376560, Note_on_c, 3, 53, 84
9, 376779, Note_on_c, 3, 53, 0
9, 376800, Note_on_c, 3, 55, 84
9, 377019, Note_on_c, 3, 55, 0
9, 377040, Note_on_c, 3, 57, 84
9, 377259, Note_on_c, 3, 57, 0
9, 377280, Note_on_c, 3, 58, 84
9, 377499, Note_on_c, 3, 58, 0
9, 377520, Note_on_c, 3, 55, 84
9, 377739, Note_on_c, 3, 55, 0
9, 377760, Note_on_c, 3, 57, 84
9, 377979, Note_on_c, 3, 57, 0
9, 378000, Note_on_c, 3, 53, 84
9, 378219, Note_on_c, 3, 53, 0
9, 378240, Note_on_c, 3, 58, 92
9, 378459, Note_on_c, 3, 58, 0
9, 378480, Note_on_c, 3, 55, 84
9, 378699, Note_on_c, 3, 55, 0
9, 378720, Note_on_c, 3, 57, 84
9, 378939, Note_on_c, 3, 57, 0
9, 378960, Note_on_c, 3, 53, 84
9, 379179, Note_on_c, 3, 53, 0
9, 379200, Note_on_c, 3, 58, 92
9, 379419, Note_on_c, 3, 58, 0
9, 379440, Note_on_c, 3, 55, 84
9, 379659, Note_on_c, 3, 55, 0
9, 379680, Note_on_c, 3, 57, 84
9, 379899, Note_on_c, 3, 57, 0
9, 379920, Note_on_c, 3, 53, 84
9, 380139, Note_on_c, 3, 53, 0
9, 380160, Note_on_c, 3, 58, 92
9, 380379, Note_on_c, 3, 58, 0
9, 380400, Note_on_c, 3, 55, 84
9, 380619, Note_on_c, 3, 55, 0
9, 380640, Note_on_c, 3, 57, 84
9, 380859, Note_on_c, 3, 57, 0
9, 380880, Note_on_c, 3, 53, 84
9, 381099, Note_on_c, 3, 53, 0
9, 381120, Note_on_c, 3, 58, 92
9, 381339, Note_on_c, 3, 58, 0
9, 381360, Note_on_c, 3, 55, 84
9, 381579, Note_on_c, 3, 55, 0
9, 381600, Note_on_c, 3, 57, 92
9, 381819, Note_on_c, 3, 57, 0
9, 381840, Note_on_c, 3, 53, 84
9, 382059, Note_on_c, 3, 53, 0
9, 382080, Note_on_c, 3, 58, 92
9, 382080, Note_on_c, 3, 62, 92
9, 382299, Note_on_c, 3, 58, 0
9, 382299, Note_on_c, 3, 62, 0
9, 382320, Note_on_c, 3, 64, 84
9, 382320, Note_on_c, 3, 67, 84
9, 382539, Note_on_c, 3, 64, 0
9, 382539, Note_on_c, 3, 67, 0
9, 382560, Note_on_c, 3, 64, 92
9, 382560, Note_on_c, 3, 60, 92
9, 382779, Note_on_c, 3, 64, 0
9, 382779, Note_on_c, 3, 60, 0
9, 382800, Note_on_c, 3, 61, 84
9, 382800, Note_on_c, 3, 69, 84
9, 383019, Note_on_c, 3, 61, 0
9, 383019, Note_on_c, 3, 69, 0
9, 383040, Note_on_c, 3, 62, 92
9, 383040, Note_on_c, 3, 65, 92
9, 383259, Note_on_c, 3, 62, 0
9, 383259, Note_on_c, 3, 65, 0
9, 383280, Note_on_c, 3, 58, 84
9, 383280, Note_on_c, 3, 62, 84
9, 383499, Note_on_c, 3, 58, 0
9, 383499, Note_on_c, 3, 62, 0
9, 383520, Note_on_c, 3, 67, 92
9, 383520, Note_on_c, 3, 59, 92
9, 383739, Note_on_c, 3, 67, 0
9, 383739, Note_on_c, 3, 59, 0
9, 383760, Note_on_c, 3, 60, 84
9, 383760, Note_on_c, 3, 64, 84
9, 383979, Note_on_c, 3, 60, 0
9, 383979, Note_on_c, 3, 64, 0
9, 384000, Note_on_c, 3, 63, 92
9, 384000, Note_on_c, 3, 60, 92
9, 384219, Note_on_c, 3, 63, 0
9, 384219, Note_on_c, 3, 60, 0
9, 384240, Note_on_c, 3, 57, 84
9, 384240, Note_on_c, 3, 65, 84
9, 384459, Note_on_c, 3, 57, 0
9, 384459, Note_on_c, 3, 65, 0
9, 384480, Note_on_c, 3, 58, 92
9, 384480, Note_on_c, 3, 62, 92
9, 384699, Note_on_c, 3, 58, 0
9, 384699, Note_on_c, 3, 62, 0
9, 384720, Note_on_c, 3, 62, 84
9, 384720, Note_on_c, 3, 58, 84
9, 384939, Note_on_c, 3, 62, 0
9, 384939, Note_on_c, 3, 58, 0
9, 384960, Note_on_c, 3, 56, 92
9, 384960, Note_on_c, 3, 64, 84
9, 385179, Note_on_c, 3, 56, 0
9, 385179, Note_on_c, 3, 64, 0
9, 385200, Note_on_c, 3, 60, 84
9, 385200, Note_on_c, 3, 57, 84
9, 385419, Note_on_c, 3, 60, 0
9, 385419, Note_on_c, 3, 57, 0
9, 385440, Note_on_c, 3, 60, 92
9, 385440, Note_on_c, 3, 57, 92
9, 385659, Note_on_c, 3, 60, 0
9, 385659, Note_on_c, 3, 57, 0
9, 385680, Note_on_c, 3, 62, 84
9, 385680, Note_on_c, 3, 54, 84
9, 385899, Note_on_c, 3, 62, 0
9, 385899, Note_on_c, 3, 54, 0
9, 385920, Note_on_c, 3, 58, 92
9, 385920, Note_on_c, 3, 55, 92
9, 386139, Note_on_c, 3, 58, 0
9, 386139, Note_on_c, 3, 55, 0
9, 386160, Note_on_c, 3, 58, 84
9, 386160, Note_on_c, 3, 55, 84
9, 386379, Note_on_c, 3, 58, 0
9, 386379, Note_on_c, 3, 55, 0
9, 386400, Note_on_c, 3, 60, 92
9, 386400, Note_on_c, 3, 52, 92
9, 386619, Note_on_c, 3, 60, 0
9, 386619, Note_on_c, 3, 52, 0
9, 386640, Note_on_c, 3, 57, 84
9, 386640, Note_on_c, 3, 53, 84
9, 386859, Note_on_c, 3, 57, 0
9, 386859, Note_on_c, 3, 53, 0
9, 386880, Note_on_c, 3, 53, 92
9, 386880, Note_on_c, 3, 57, 92
9, 387099, Note_on_c, 3, 53, 0
9, 387099, Note_on_c, 3, 57, 0
9, 387120, Note_on_c, 3, 50, 84
9, 387120, Note_on_c, 3, 58, 84
9, 387339, Note_on_c, 3, 50, 0
9, 387339, Note_on_c, 3, 58, 0
9, 387360, Note_on_c, 3, 55, 92
9, 387360, Note_on_c, 3, 51, 92
9, 387579, Note_on_c, 3, 55, 0
9, 387579, Note_on_c, 3, 51, 0
9, 387600, Note_on_c, 3, 52, 84
9, 387819, Note_on_c, 3, 52, 0
9, 387840, Note_on_c, 3, 55, 92
9, 388059, Note_on_c, 3, 55, 0
9, 388080, Note_on_c, 3, 58, 84
9, 388080, Note_on_c, 3, 55, 84
9, 388299, Note_on_c, 3, 58, 0
9, 388299, Note_on_c, 3, 55, 0
9, 388320, Note_on_c, 3, 55, 92
9, 388320, Note_on_c, 3, 58, 92
9, 388539, Note_on_c, 3, 55, 0
9, 388539, Note_on_c, 3, 58, 0
9, 388560, Note_on_c, 3, 55, 84
9, 388560, Note_on_c, 3, 58, 84
9, 388779, Note_on_c, 3, 55, 0
9, 388779, Note_on_c, 3, 58, 0
9, 388800, Note_on_c, 3, 58, 92
9, 388800, Note_on_c, 3, 55, 92
9, 389019, Note_on_c, 3, 58, 0
9, 389019, Note_on_c, 3, 55, 0
9, 389040, Note_on_c, 3, 58, 84
9, 389040, Note_on_c, 3, 55, 84
9, 389259, Note_on_c, 3, 58, 0
9, 389259, Note_on_c, 3, 55, 0
9, 389280, Note_on_c, 3, 58, 92
9, 389280, Note_on_c, 3, 55, 92
9, 389499, Note_on_c, 3, 58, 0
9, 389499, Note_on_c, 3, 55, 0
9, 389520, Note_on_c, 3, 58, 84
9, 389520, Note_on_c, 3, 55, 84
9, 389739, Note_on_c, 3, 58, 0
9, 389739, Note_on_c, 3, 55, 0
9, 389760, Note_on_c, 3, 58, 92
9, 389760, Note_on_c, 3, 55, 92
9, 389979, Note_on_c, 3, 58, 0
9, 389979, Note_on_c, 3, 55, 0
9, 390000, Note_on_c, 3, 55, 84
9, 390000, Note_on_c, 3, 58, 84
9, 390219, Note_on_c, 3, 55, 0
9, 390219, Note_on_c, 3, 58, 0
9, 390240, Note_on_c, 3, 58, 92
9, 390240, Note_on_c, 3, 55, 92
9, 390459, Note_on_c, 3, 58, 0
9, 390459, Note_on_c, 3, 55, 0
9, 390480, Note_on_c, 3, 58, 84
9, 390480, Note_on_c, 3, 55, 84
9, 390699, Note_on_c, 3, 58, 0
9, 390699, Note_on_c, 3, 55, 0
9, 390720, Note_on_c, 3, 55, 92
9, 390720, Note_on_c, 3, 58, 92
9, 390939, Note_on_c, 3, 55, 0
9, 390939, Note_on_c, 3, 58, 0
9, 390960, Note_on_c, 3, 58, 84
9, 390960, Note_on_c, 3, 55, 84
9, 391179, Note_on_c, 3, 58, 0
9, 391179, Note_on_c, 3, 55, 0
9, 391200, Note_on_c, 3, 58, 92
9, 391200, Note_on_c, 3, 55, 92
9, 391419, Note_on_c, 3, 58, 0
9, 391419, Note_on_c, 3, 55, 0
9, 391440, Note_on_c, 3, 52, 84
9, 391440, Note_on_c, 3, 55, 84
9, 391659, Note_on_c, 3, 52, 0
9, 391659, Note_on_c, 3, 55, 0
9, 391680, Note_on_c, 3, 57, 76
9, 391680, Note_on_c, 3, 53, 76
9, 391760, Control_c, 3, 11, 80
9, 391919, Note_on_c, 3, 53, 0
9, 392159, Note_on_c, 3, 57, 0
9, 392160, Note_on_c, 3, 53, 76
9, 392639, Note_on_c, 3, 53, 0
9, 392640, Note_on_c, 3, 60, 76
9, 393359, Note_on_c, 3, 60, 0
9, 393360, Note_on_c, 3, 62, 76
9, 393579, Note_on_c, 3, 62, 0
9, 393600, Note_on_c, 3, 62, 76
9, 393839, Note_on_c, 3, 62, 0
9, 393840, Note_on_c, 3, 55, 76
9, 394059, Note_on_c, 3, 55, 0
9, 394080, Note_on_c, 3, 55, 76
9, 394319, Note_on_c, 3, 55, 0
9, 394320, Note_on_c, 3, 57, 76
9, 394559, Note_on_c, 3, 57, 0
9, 394560, Note_on_c, 3, 58, 76
9, 394799, Note_on_c, 3, 58, 0
9, 395040, Note_on_c, 3, 60, 76
9, 395279, Note_on_c, 3, 60, 0
9, 395520, Note_on_c, 3, 57, 76
9, 396479, Note_on_c, 3, 57, 0
9, 396480, Note_on_c, 3, 60, 76
9, 396719, Note_on_c, 3, 60, 0
9, 396720, Note_on_c, 3, 62, 76
9, 396799, Note_on_c, 3, 62, 0
9, 396800, Note_on_c, 3, 60, 76
9, 396879, Note_on_c, 3, 60, 0
9, 396880, Note_on_c, 3, 59, 76
9, 396959, Note_on_c, 3, 59, 0
9, 396960, Note_on_c, 3, 60, 76
9, 397199, Note_on_c, 3, 60, 0
9, 397200, Note_on_c, 3, 61, 76
9, 397439, Note_on_c, 3, 61, 0
9, 397440, Note_on_c, 3, 64, 76
9, 397679, Note_on_c, 3, 64, 0
9, 397680, Note_on_c, 3, 62, 76
9, 397919, Note_on_c, 3, 62, 0
9, 397920, Note_on_c, 3, 55, 76
9, 398159, Note_on_c, 3, 55, 0
9, 398160, Note_on_c, 3, 57, 76
9, 398399, Note_on_c, 3, 57, 0
9, 398400, Note_on_c, 3, 58, 76
9, 398639, Note_on_c, 3, 58, 0
9, 398880, Note_on_c, 3, 60, 76
9, 399119, Note_on_c, 3, 60, 0
9, 399240, Control_c, 3, 11, 127
9, 399360, Note_on_c, 3, 57, 76
9, 399599, Note_on_c, 3, 57, 0
9, 399840, Note_on_c, 3, 65, 76
9, 399840, Note_on_c, 3, 53, 76
9, 400079, Note_on_c, 3, 65, 0
9, 400079, Note_on_c, 3, 53, 0
9, 400800, Note_on_c, 3, 50, 76
9, 400800, Note_on_c, 3, 62, 76
9, 401039, Note_on_c, 3, 50, 0
9, 401039, Note_on_c, 3, 62, 0
9, 401760, Note_on_c, 3, 46, 76
9, 401760, Note_on_c, 3, 58, 76
9, 401999, Note_on_c, 3, 46, 0
9, 401999, Note_on_c, 3, 58, 0
9, 402720, Note_on_c, 3, 60, 76
9, 402720, Note_on_c, 3, 48, 76
9, 402959, Note_on_c, 3, 60, 0
9, 402959, Note_on_c, 3, 48, 0
9, 403200, Note_on_c, 3, 53, 52
9, 403200, Note_on_c, 3, 57, 52
9, 403439, Note_on_c, 3, 53, 0
9, 403439, Note_on_c, 3, 57, 0
9, 406080, Control_c, 3, 11, 96
9, 406560, Note_on_c, 3, 64, 68
9, 407039, Note_on_c, 3, 64, 0
9, 407040, Control_c, 3, 11, 96
9, 407040, Note_on_c, 3, 65, 68
9, 407080, Control_c, 3, 11, 99
9, 407120, Control_c, 3, 11, 101
9, 407160, Control_c, 3, 11, 104
9, 407200, Control_c, 3, 11, 106
9, 407240, Control_c, 3, 11, 109
9, 407280, Control_c, 3, 11, 112
9, 407320, Control_c, 3, 11, 114
9, 407360, Control_c, 3, 11, 117
9, 407400, Control_c, 3, 11, 119
9, 407440, Control_c, 3, 11, 122
9, 407480, Control_c, 3, 11, 124
9, 407520, Control_c, 3, 11, 127
9, 407560, Control_c, 3, 11, 124
9, 407600, Control_c, 3, 11, 122
9, 407640, Control_c, 3, 11, 119
9, 407680, Control_c, 3, 11, 117
9, 407720, Control_c, 3, 11, 114
9, 407759, Note_on_c, 3, 65, 0
9, 407760, Note_on_c, 3, 67, 68
9, 407760, Control_c, 3, 11, 112
9, 407800, Control_c, 3, 11, 109
9, 407840, Control_c, 3, 11, 106
9, 407879, Note_on_c, 3, 67, 0
9, 407880, Control_c, 3, 11, 104
9, 407880, Note_on_c, 3, 69, 68
9, 407920, Control_c, 3, 11, 101
9, 407960, Control_c, 3, 11, 99
9, 407999, Note_on_c, 3, 69, 0
9, 408000, Note_on_c, 3, 60, 68
9, 408000, Control_c, 3, 11, 96
9, 408239, Note_on_c, 3, 60, 0
9, 409920, Control_c, 3, 11, 127
9, 410400, Note_on_c, 3, 64, 52
9, 410879, Note_on_c, 3, 64, 0
9, 410880, Note_on_c, 3, 65, 76
9, 411119, Note_on_c, 3, 65, 0
9, 411360, Note_on_c, 3, 57, 76
9, 411360, Note_on_c, 3, 45, 76
9, 411599, Note_on_c, 3, 57, 0
9, 411599, Note_on_c, 3, 45, 0
9, 412320, Note_on_c, 3, 62, 76
9, 412320, Note_on_c, 3, 50, 76
9, 412559, Note_on_c, 3, 62, 0
9, 412559, Note_on_c, 3, 50, 0
9, 413280, Note_on_c, 3, 58, 76
9, 413280, Note_on_c, 3, 46, 76
9, 413519, Note_on_c, 3, 58, 0
9, 413519, Note_on_c, 3, 46, 0
9, 414240, Note_on_c, 3, 48, 76
9, 414240, Note_on_c, 3, 60, 76
9, 414479, Note_on_c, 3, 48, 0
9, 414479, Note_on_c, 3, 60, 0
9, 414720, Note_on_c, 3, 53, 84
9, 414720, Note_on_c, 3, 57, 84
9, 418539, Note_on_c, 3, 53, 0
9, 418539, Note_on_c, 3, 57, 0
9, 418560, Note_on_c, 3, 52, 84
9, 418799, Note_on_c, 3, 52, 0
9, 419040, Note_on_c, 3, 52, 84
9, 419040, Note_on_c, 3, 40, 84
9, 419279, Note_on_c, 3, 52, 0
9, 419279, Note_on_c, 3, 40, 0
9, 419520, Note_on_c, 3, 36, 84
9, 419520, Note_on_c, 3, 48, 84
9, 419759, Note_on_c, 3, 36, 0
9, 419759, Note_on_c, 3, 48, 0
9, 420000, Note_on_c, 3, 36, 84
9, 420000, Note_on_c, 3, 48, 84
9, 420239, Note_on_c, 3, 36, 0
9, 420239, Note_on_c, 3, 48, 0
9, 420960, Note_on_c, 3, 57, 48
9, 420960, Note_on_c, 3, 53, 48
9, 421104, Note_on_c, 3, 57, 0
9, 421104, Note_on_c, 3, 53, 0
9, 421120, Note_on_c, 3, 57, 48
9, 421120, Note_on_c, 3, 53, 48
9, 421264, Note_on_c, 3, 57, 0
9, 421264, Note_on_c, 3, 53, 0
9, 421280, Note_on_c, 3, 53, 48
9, 421280, Note_on_c, 3, 57, 48
9, 421424, Note_on_c, 3, 53, 0
9, 421424, Note_on_c, 3, 57, 0
9, 421440, Note_on_c, 3, 57, 48
9, 421440, Note_on_c, 3, 53, 48
9, 421599, Note_on_c, 3, 57, 0
9, 421599, Note_on_c, 3, 53, 0
9, 421600, Note_on_c, 3, 55, 48
9, 421600, Note_on_c, 3, 58, 48
9, 421744, Note_on_c, 3, 55, 0
9, 421744, Note_on_c, 3, 58, 0
9, 421760, Note_on_c, 3, 55, 48
9, 421760, Note_on_c, 3, 48, 48
9, 421879, Note_on_c, 3, 55, 0
9, 421879, Note_on_c, 3, 48, 0
9, 422880, Note_on_c, 3, 58, 48
9, 422880, Note_on_c, 3, 55, 48
9, 423024, Note_on_c, 3, 58, 0
9, 423024, Note_on_c, 3, 55, 0
9, 423040, Note_on_c, 3, 58, 48
9, 423040, Note_on_c, 3, 55, 48
9, 423184, Note_on_c, 3, 58, 0
9, 423184, Note_on_c, 3, 55, 0
9, 423200, Note_on_c, 3, 58, 48
9, 423200, Note_on_c, 3, 55, 48
9, 423344, Note_on_c, 3, 58, 0
9, 423344, Note_on_c, 3, 55, 0
9, 423360, Note_on_c, 3, 58, 48
9, 423360, Note_on_c, 3, 55, 48
9, 423519, Note_on_c, 3, 58, 0
9, 423519, Note_on_c, 3, 55, 0
9, 423520, Note_on_c, 3, 60, 48
9, 423520, Note_on_c, 3, 57, 48
9, 423664, Note_on_c, 3, 60, 0
9, 423664, Note_on_c, 3, 57, 0
9, 423680, Note_on_c, 3, 57, 48
9, 423680, Note_on_c, 3, 53, 48
9, 423799, Note_on_c, 3, 57, 0
9, 423799, Note_on_c, 3, 53, 0
9, 424800, Note_on_c, 3, 53, 76
9, 424800, Note_on_c, 3, 57, 76
9, 424944, Note_on_c, 3, 53, 0
9, 424944, Note_on_c, 3, 57, 0
9, 424960, Note_on_c, 3, 57, 76
9, 424960, Note_on_c, 3, 53, 76
9, 425104, Note_on_c, 3, 57, 0
9, 425104, Note_on_c, 3, 53, 0
9, 425120, Note_on_c, 3, 57, 76
9, 425120, Note_on_c, 3, 53, 76
9, 425264, Note_on_c, 3, 57, 0
9, 425264, Note_on_c, 3, 53, 0
9, 425280, Note_on_c, 3, 55, 76
9, 425280, Note_on_c, 3, 58, 76
9, 425439, Note_on_c, 3, 55, 0
9, 425439, Note_on_c, 3, 58, 0
9, 425520, Note_on_c, 3, 55, 76
9, 425520, Note_on_c, 3, 48, 76
9, 425679, Note_on_c, 3, 55, 0
9, 425679, Note_on_c, 3, 48, 0
9, 425760, Note_on_c, 3, 55, 76
9, 425760, Note_on_c, 3, 58, 76
9, 425919, Note_on_c, 3, 55, 0
9, 425919, Note_on_c, 3, 58, 0
9, 426000, Note_on_c, 3, 55, 76
9, 426000, Note_on_c, 3, 48, 76
9, 426159, Note_on_c, 3, 55, 0
9, 426159, Note_on_c, 3, 48, 0
9, 426240, Note_on_c, 3, 57, 76
9, 426240, Note_on_c, 3, 60, 76
9, 426459, Note_on_c, 3, 57, 0
9, 426459, Note_on_c, 3, 60, 0
9, 426480, Note_on_c, 3, 57, 76
9, 426480, Note_on_c, 3, 53, 76
9, 426699, Note_on_c, 3, 57, 0
9, 426699, Note_on_c, 3, 53, 0
9, 426720, Note_on_c, 3, 57, 76
9, 426720, Note_on_c, 3, 60, 76
9, 426939, Note_on_c, 3, 57, 0
9, 426939, Note_on_c, 3, 60, 0
9, 426960, Note_on_c, 3, 53, 76
9, 426960, Note_on_c, 3, 57, 76
9, 427179, Note_on_c, 3, 53, 0
9, 427179, Note_on_c, 3, 57, 0
9, 427200, Note_on_c, 3, 55, 76
9, 427200, Note_on_c, 3, 58, 76
9, 427419, Note_on_c, 3, 55, 0
9, 427419, Note_on_c, 3, 58, 0
9, 427440, Note_on_c, 3, 55, 76
9, 427440, Note_on_c, 3, 48, 76
9, 427659, Note_on_c, 3, 55, 0
9, 427659, Note_on_c, 3, 48, 0
9, 427680, Note_on_c, 3, 58, 76
9, 427680, Note_on_c, 3, 55, 76
9, 427899, Note_on_c, 3, 58, 0
9, 427899, Note_on_c, 3, 55, 0
9, 427920, Note_on_c, 3, 48, 76
9, 427920, Note_on_c, 3, 55, 76
9, 428139, Note_on_c, 3, 48, 0
9, 428139, Note_on_c, 3, 55, 0
9, 428160, Note_on_c, 3, 57, 76
9, 428160, Note_on_c, 3, 60, 76
9, 428379, Note_on_c, 3, 57, 0
9, 428379, Note_on_c, 3, 60, 0
9, 428400, Note_on_c, 3, 57, 76
9, 428400, Note_on_c, 3, 53, 76
9, 428619, Note_on_c, 3, 57, 0
9, 428619, Note_on_c, 3, 53, 0
9, 428640, Note_on_c, 3, 53, 76
9, 428640, Note_on_c, 3, 57, 76
9, 428784, Note_on_c, 3, 53, 0
9, 428784, Note_on_c, 3, 57, 0
9, 428800, Note_on_c, 3, 53, 76
9, 428800, Note_on_c, 3, 57, 76
9, 428944, Note_on_c, 3, 53, 0
9, 428944, Note_on_c, 3, 57, 0
9, 428960, Note_on_c, 3, 53, 76
9, 428960, Note_on_c, 3, 57, 76
9, 429104, Note_on_c, 3, 53, 0
9, 429104, Note_on_c, 3, 57, 0
9, 429120, Note_on_c, 3, 55, 76
9, 429120, Note_on_c, 3, 58, 76
9, 429339, Note_on_c, 3, 55, 0
9, 429339, Note_on_c, 3, 58, 0
9, 429360, Note_on_c, 3, 55, 76
9, 429360, Note_on_c, 3, 48, 76
9, 429579, Note_on_c, 3, 55, 0
9, 429579, Note_on_c, 3, 48, 0
9, 429600, Note_on_c, 3, 58, 76
9, 429600, Note_on_c, 3, 55, 76
9, 429819, Note_on_c, 3, 58, 0
9, 429819, Note_on_c, 3, 55, 0
9, 429840, Note_on_c, 3, 48, 76
9, 429840, Note_on_c, 3, 55, 76
9, 430059, Note_on_c, 3, 48, 0
9, 430059, Note_on_c, 3, 55, 0
9, 430080, Note_on_c, 3, 57, 76
9, 430080, Note_on_c, 3, 60, 76
9, 430299, Note_on_c, 3, 57, 0
9, 430299, Note_on_c, 3, 60, 0
9, 430320, Note_on_c, 3, 53, 76
9, 430320, Note_on_c, 3, 57, 76
9, 430539, Note_on_c, 3, 53, 0
9, 430539, Note_on_c, 3, 57, 0
9, 430560, Note_on_c, 3, 57, 76
9, 430560, Note_on_c, 3, 60, 76
9, 430779, Note_on_c, 3, 57, 0
9, 430779, Note_on_c, 3, 60, 0
9, 430800, Note_on_c, 3, 57, 76
9, 430800, Note_on_c, 3, 53, 76
9, 431019, Note_on_c, 3, 57, 0
9, 431019, Note_on_c, 3, 53, 0
9, 431040, Note_on_c, 3, 58, 76
9, 431040, Note_on_c, 3, 55, 76
9, 431259, Note_on_c, 3, 58, 0
9, 431259, Note_on_c, 3, 55, 0
9, 431280, Note_on_c, 3, 57, 76
9, 431280, Note_on_c, 3, 53, 76
9, 431499, Note_on_c, 3, 57, 0
9, 431499, Note_on_c, 3, 53, 0
9, 431520, Note_on_c, 3, 48, 76
9, 431520, Note_on_c, 3, 55, 76
9, 431739, Note_on_c, 3, 48, 0
9, 431739, Note_on_c, 3, 55, 0
9, 431760, Note_on_c, 3, 48, 76
9, 431760, Note_on_c, 3, 60, 76
9, 431979, Note_on_c, 3, 48, 0
9, 431979, Note_on_c, 3, 60, 0
9, 432000, Note_on_c, 3, 41, 84
9, 432080, Control_c, 3, 11, 112
9, 432939, Note_on_c, 3, 41, 0
9, 432958, Control_c, 3, 11, 127
9, 432960, Note_on_c, 3, 53, 84
9, 433040, Control_c, 3, 11, 112
9, 433899, Note_on_c, 3, 53, 0
9, 433918, Control_c, 3, 11, 127
9, 433920, Note_on_c, 3, 41, 84
9, 434000, Control_c, 3, 11, 112
9, 434859, Note_on_c, 3, 41, 0
9, 434878, Control_c, 3, 11, 127
9, 434880, Note_on_c, 3, 57, 84
9, 434960, Control_c, 3, 11, 112
9, 435819, Note_on_c, 3, 57, 0
9, 435838, Control_c, 3, 11, 127
9, 435840, Note_on_c, 3, 41, 84
9, 435920, Control_c, 3, 11, 112
9, 436299, Note_on_c, 3, 41, 0
9, 436318, Control_c, 3, 11, 127
9, 436320, Note_on_c, 3, 60, 84
9, 436400, Control_c, 3, 11, 112
9, 436779, Note_on_c, 3, 60, 0
9, 436798, Control_c, 3, 11, 127
9, 436800, Note_on_c, 3, 41, 84
9, 436880, Control_c, 3, 11, 112
9, 437259, Note_on_c, 3, 41, 0
9, 437278, Control_c, 3, 11, 127
9, 437280, Note_on_c, 3, 60, 84
9, 437360, Control_c, 3, 11, 112
9, 437739, Note_on_c, 3, 60, 0
9, 437758, Control_c, 3, 11, 127
9, 437760, Note_on_c, 3, 41, 84
9, 437840, Control_c, 3, 11, 112
9, 438219, Note_on_c, 3, 41, 0
9, 438238, Control_c, 3, 11, 127
9, 438240, Note_on_c, 3, 65, 84
9, 438320, Control_c, 3, 11, 112
9, 438699, Note_on_c, 3, 65, 0
9, 438718, Control_c, 3, 11, 127
9, 438720, Note_on_c, 3, 41, 84
9, 438800, Control_c, 3, 11, 112
9, 439179, Note_on_c, 3, 41, 0
9, 439198, Control_c, 3, 11, 127
9, 439200, Note_on_c, 3, 65, 84
9, 439280, Control_c, 3, 11, 112
9, 439659, Note_on_c, 3, 65, 0
9, 439678, Control_c, 3, 11, 127
9, 439680, Note_on_c, 3, 41, 76
9, 439919, Note_on_c, 3, 41, 0
9, 443520, Note_on_c, 3, 45, 52
9, 443520, Note_on_c, 3, 41, 52
9, 444479, Note_on_c, 3, 45, 0
9, 444479, Note_on_c, 3, 41, 0
9, 448800, Note_on_c, 3, 57, 52
9, 448800, Note_on_c, 3, 53, 52
9, 449259, Note_on_c, 3, 57, 0
9, 449259, Note_on_c, 3, 53, 0
9, 449280, Note_on_c, 3, 41, 52
9, 449280, Note_on_c, 3, 45, 52
9, 449739, Note_on_c, 3, 41, 0
9, 449739, Note_on_c, 3, 45, 0
9, 449760, Note_on_c, 3, 53, 52
9, 449760, Note_on_c, 3, 57, 52
9, 450239, Note_on_c, 3, 53, 0
9, 450239, Note_on_c, 3, 57, 0
9, 451680, Note_on_c, 3, 65, 44
9, 451680, Note_on_c, 3, 57, 44
9, 451839, Note_on_c, 3, 65, 0
9, 451839, Note_on_c, 3, 57, 0
9, 452040, Note_on_c, 3, 64, 44
9, 452040, Note_on_c, 3, 60, 44
9, 452139, Note_on_c, 3, 64, 0
9, 452139, Note_on_c, 3, 60, 0
9, 452160, Note_on_c, 3, 60, 44
9, 452160, Note_on_c, 3, 64, 44
9, 452399, Note_on_c, 3, 60, 0
9, 452399, Note_on_c, 3, 64, 0
9, 452400, Note_on_c, 3, 62, 44
9, 452400, Note_on_c, 3, 58, 44
9, 452619, Note_on_c, 3, 62, 0
9, 452619, Note_on_c, 3, 58, 0
9, 452640, Note_on_c, 3, 60, 44
9, 452640, Note_on_c, 3, 57, 44
9, 452799, Note_on_c, 3, 60, 0
9, 452799, Note_on_c, 3, 57, 0
9, 453000, Note_on_c, 3, 60, 44
9, 453000, Note_on_c, 3, 57, 44
9, 453099, Note_on_c, 3, 60, 0
9, 453099, Note_on_c, 3, 57, 0
9, 453120, Note_on_c, 3, 60, 44
9, 453120, Note_on_c, 3, 57, 44
9, 453359, Note_on_c, 3, 60, 0
9, 453359, Note_on_c, 3, 57, 0
9, 453360, Note_on_c, 3, 58, 44
9, 453360, Note_on_c, 3, 55, 44
9, 453599, Note_on_c, 3, 58, 0
9, 453599, Note_on_c, 3, 55, 0
9, 455040, Control_c, 3, 11, 64
9, 455520, Note_on_c, 3, 57, 76
9, 455520, Note_on_c, 3, 65, 76
9, 455679, Note_on_c, 3, 57, 0
9, 455679, Note_on_c, 3, 65, 0
9, 455880, Note_on_c, 3, 60, 76
9, 455880, Note_on_c, 3, 64, 76
9, 455979, Note_on_c, 3, 60, 0
9, 455979, Note_on_c, 3, 64, 0
9, 456000, Note_on_c, 3, 64, 76
9, 456000, Note_on_c, 3, 60, 76
9, 456239, Note_on_c, 3, 64, 0
9, 456239, Note_on_c, 3, 60, 0
9, 456240, Note_on_c, 3, 62, 76
9, 456240, Note_on_c, 3, 58, 76
9, 456459, Note_on_c, 3, 62, 0
9, 456459, Note_on_c, 3, 58, 0
9, 456480, Note_on_c, 3, 57, 76
9, 456480, Note_on_c, 3, 60, 76
9, 456639, Note_on_c, 3, 57, 0
9, 456639, Note_on_c, 3, 60, 0
9, 456840, Note_on_c, 3, 57, 76
9, 456840, Note_on_c, 3, 60, 76
9, 456939, Note_on_c, 3, 57, 0
9, 456939, Note_on_c, 3, 60, 0
9, 456960, Control_c, 3, 11, 64
9, 456960, Note_on_c, 3, 55, 76
9, 456960, Note_on_c, 3, 58, 76
9, 457120, Control_c, 3, 11, 67
9, 457280, Control_c, 3, 11, 69
9, 457440, Control_c, 3, 11, 72
9, 457600, Control_c, 3, 11, 75
9, 457760, Control_c, 3, 11, 77
9, 457920, Control_c, 3, 11, 80
9, 458080, Control_c, 3, 11, 82
9, 458240, Control_c, 3, 11, 85
9, 458400, Control_c, 3, 11, 88
9, 458560, Control_c, 3, 11, 90
9, 458720, Control_c, 3, 11, 93
9, 458880, Control_c, 3, 11, 96
9, 459040, Control_c, 3, 11, 98
9, 459200, Control_c, 3, 11, 101
9, 459360, Control_c, 3, 11, 103
9, 459520, Control_c, 3, 11, 106
9, 459680, Control_c, 3, 11, 109
9, 459840, Control_c, 3, 11, 111
9, 460000, Control_c, 3, 11, 114
9, 460160, Control_c, 3, 11, 117
9, 460320, Control_c, 3, 11, 119
9, 460480, Control_c, 3, 11, 122
9, 460640, Control_c, 3, 11, 124
9, 460779, Note_on_c, 3, 55, 0
9, 460779, Note_on_c, 3, 58, 0
9, 460800, Control_c, 3, 11, 127
9, 460800, Note_on_c, 3, 57, 76
9, 460800, Note_on_c, 3, 53, 76
9, 460944, Note_on_c, 3, 57, 0
9, 460944, Note_on_c, 3, 53, 0
9, 460960, Note_on_c, 3, 53, 76
9, 460960, Note_on_c, 3, 65, 76
9, 461104, Note_on_c, 3, 53, 0
9, 461104, Note_on_c, 3, 65, 0
9, 461120, Note_on_c, 3, 53, 76
9, 461120, Note_on_c, 3, 65, 76
9, 461264, Note_on_c, 3, 53, 0
9, 461264, Note_on_c, 3, 65, 0
9, 461280, Note_on_c, 3, 53, 76
9, 461280, Note_on_c, 3, 65, 76
9, 461424, Note_on_c, 3, 53, 0
9, 461424, Note_on_c, 3, 65, 0
9, 461440, Note_on_c, 3, 65, 76
9, 461440, Note_on_c, 3, 53, 76
9, 461584, Note_on_c, 3, 65, 0
9, 461584, Note_on_c, 3, 53, 0
9, 461600, Note_on_c, 3, 65, 76
9, 461600, Note_on_c, 3, 53, 76
9, 461744, Note_on_c, 3, 65, 0
9, 461744, Note_on_c, 3, 53, 0
9, 461760, Note_on_c, 3, 65, 76
9, 461760, Note_on_c, 3, 53, 76
9, 461904, Note_on_c, 3, 65, 0
9, 461904, Note_on_c, 3, 53, 0
9, 461920, Note_on_c, 3, 53, 76
9, 461920, Note_on_c, 3, 65, 76
9, 462064, Note_on_c, 3, 53, 0
9, 462064, Note_on_c, 3, 65, 0
9, 462080, Note_on_c, 3, 53, 76
9, 462080, Note_on_c, 3, 65, 76
9, 462224, Note_on_c, 3, 53, 0
9, 462224, Note_on_c, 3, 65, 0
9, 462240, Note_on_c, 3, 65, 76
9, 462240, Note_on_c, 3, 53, 76
9, 462384, Note_on_c, 3, 65, 0
9, 462384, Note_on_c, 3, 53, 0
9, 462400, Note_on_c, 3, 65, 76
9, 462400, Note_on_c, 3, 53, 76
9, 462544, Note_on_c, 3, 65, 0
9, 462544, Note_on_c, 3, 53, 0
9, 462560, Note_on_c, 3, 65, 76
9, 462560, Note_on_c, 3, 53, 76
9, 462704, Note_on_c, 3, 65, 0
9, 462704, Note_on_c, 3, 53, 0
9, 462720, Note_on_c, 3, 41, 76
9, 462959, Note_on_c, 3, 41, 0
9, 463680, Note_on_c, 3, 48, 76
9, 463919, Note_on_c, 3, 48, 0
9, 464640, Note_on_c, 3, 41, 76
9, 464879, Note_on_c, 3, 41, 0
9, 465600, Note_on_c, 3, 48, 76
9, 465839, Note_on_c, 3, 48, 0
9, 466560, Note_on_c, 3, 41, 76
9, 466799, Note_on_c, 3, 41, 0
9, 467040, Note_on_c, 3, 48, 76
9, 467279, Note_on_c, 3, 48, 0
9, 467520, Note_on_c, 3, 41, 76
9, 467759, Note_on_c, 3, 41, 0
9, 468000, Note_on_c, 3, 48, 76
9, 468239, Note_on_c, 3, 48, 0
9, 468480, Note_on_c, 3, 41, 76
9, 468719, Note_on_c, 3, 41, 0
9, 468960, Note_on_c, 3, 48, 76
9, 469199, Note_on_c, 3, 48, 0
9, 469440, Note_on_c, 3, 41, 76
9, 469679, Note_on_c, 3, 41, 0
9, 469920, Note_on_c, 3, 48, 76
9, 470159, Note_on_c, 3, 48, 0
9, 470400, Note_on_c, 3, 57, 84
9, 470400, Note_on_c, 3, 53, 84
9, 470544, Note_on_c, 3, 57, 0
9, 470544, Note_on_c, 3, 53, 0
9, 470560, Note_on_c, 3, 57, 84
9, 470560, Note_on_c, 3, 53, 84
9, 470704, Note_on_c, 3, 57, 0
9, 470704, Note_on_c, 3, 53, 0
9, 470720, Note_on_c, 3, 57, 84
9, 470720, Note_on_c, 3, 53, 84
9, 470864, Note_on_c, 3, 57, 0
9, 470864, Note_on_c, 3, 53, 0
9, 470880, Note_on_c, 3, 53, 84
9, 470880, Note_on_c, 3, 57, 84
9, 471024, Note_on_c, 3, 53, 0
9, 471024, Note_on_c, 3, 57, 0
9, 471040, Note_on_c, 3, 57, 84
9, 471040, Note_on_c, 3, 53, 84
9, 471184, Note_on_c, 3, 57, 0
9, 471184, Note_on_c, 3, 53, 0
9, 471200, Note_on_c, 3, 53, 84
9, 471200, Note_on_c, 3, 57, 84
9, 471344, Note_on_c, 3, 53, 0
9, 471344, Note_on_c, 3, 57, 0
9, 471360, Note_on_c, 3, 53, 84
9, 471360, Note_on_c, 3, 57, 84
9, 471504, Note_on_c, 3, 53, 0
9, 471504, Note_on_c, 3, 57, 0
9, 471520, Note_on_c, 3, 57, 84
9, 471520, Note_on_c, 3, 53, 84
9, 471664, Note_on_c, 3, 57, 0
9, 471664, Note_on_c, 3, 53, 0
9, 471680, Note_on_c, 3, 53, 84
9, 471680, Note_on_c, 3, 57, 84
9, 471824, Note_on_c, 3, 53, 0
9, 471824, Note_on_c, 3, 57, 0
9, 471840, Note_on_c, 3, 57, 84
9, 471840, Note_on_c, 3, 53, 84
9, 471984, Note_on_c, 3, 57, 0
9, 471984, Note_on_c, 3, 53, 0
9, 472000, Note_on_c, 3, 57, 84
9, 472000, Note_on_c, 3, 53, 84
9, 472144, Note_on_c, 3, 57, 0
9, 472144, Note_on_c, 3, 53, 0
9, 472160, Note_on_c, 3, 57, 84
9, 472160, Note_on_c, 3, 53, 84
9, 472304, Note_on_c, 3, 57, 0
9, 472304, Note_on_c, 3, 53, 0
9, 472320, Note_on_c, 3, 57, 84
9, 472320, Note_on_c, 3, 53, 84
9, 472559, Note_on_c, 3, 57, 0
9, 472559, Note_on_c, 3, 53, 0
9, 473280, Note_on_c, 3, 48, 84
9, 473519, Note_on_c, 3, 48, 0
9, 474240, Note_on_c, 3, 41, 84
9, 474479, Note_on_c, 3, 41, 0
9, 475200, Note_on_c, 3, 48, 84
9, 475439, Note_on_c, 3, 48, 0
9, 476160, Note_on_c, 3, 41, 84
9, 476399, Note_on_c, 3, 41, 0
9, 476640, Note_on_c, 3, 48, 84
9, 476879, Note_on_c, 3, 48, 0
9, 477120, Note_on_c, 3, 41, 84
9, 477359, Note_on_c, 3, 41, 0
9, 477600, Note_on_c, 3, 48, 84
9, 477839, Note_on_c, 3, 48, 0
9, 478080, Note_on_c, 3, 41, 84
9, 478319, Note_on_c, 3, 41, 0
9, 478560, Note_on_c, 3, 48, 84
9, 478799, Note_on_c, 3, 48, 0
9, 479040, Note_on_c, 3, 53, 84
9, 479279, Note_on_c, 3, 53, 0
9, 479520, Note_on_c, 3, 57, 84
9, 479759, Note_on_c, 3, 57, 0
9, 480000, Note_on_c, 3, 60, 84
9, 480239, Note_on_c, 3, 60, 0
9, 480960, Note_on_c, 3, 65, 84
9, 481199, Note_on_c, 3, 65, 0
9, 481920, Note_on_c, 3, 41, 84
9, 482159, Note_on_c, 3, 41, 0
9, 482159, End_track
10, 0, Start_track
10, 0, Title_t, "French Horn in F"
10, 0, MIDI_port, 0
10, 0, Program_c, 4, 60
10, 0, Control_c, 4, 7, 104
10, 0, Control_c, 4, 10, 45
10, 0, Control_c, 4, 11, 127
10, 14400, Note_on_c, 4, 60, 36
10, 14400, Note_on_c, 4, 48, 36
10, 14639, Note_on_c, 4, 60, 0
10, 14639, Note_on_c, 4, 48, 0
10, 15360, Note_on_c, 4, 60, 36
10, 15360, Note_on_c, 4, 48, 36
10, 15599, Note_on_c, 4, 60, 0
10, 15599, Note_on_c, 4, 48, 0
10, 16320, Note_on_c, 4, 60, 36
10, 16320, Note_on_c, 4, 48, 36
10, 16559, Note_on_c, 4, 60, 0
10, 16559, Note_on_c, 4, 48, 0
10, 17760, Note_on_c, 4, 69, 84
10, 17760, Note_on_c, 4, 65, 84
10, 17904, Note_on_c, 4, 69, 0
10, 17904, Note_on_c, 4, 65, 0
10, 17920, Note_on_c, 4, 69, 84
10, 17920, Note_on_c, 4, 65, 84
10, 18064, Note_on_c, 4, 69, 0
10, 18064, Note_on_c, 4, 65, 0
10, 18080, Note_on_c, 4, 65, 84
10, 18080, Note_on_c, 4, 69, 84
10, 18224, Note_on_c, 4, 65, 0
10, 18224, Note_on_c, 4, 69, 0
10, 18240, Note_on_c, 4, 70, 84
10, 18240, Note_on_c, 4, 67, 84
10, 18399, Note_on_c, 4, 70, 0
10, 18399, Note_on_c, 4, 67, 0
10, 18480, Note_on_c, 4, 60, 84
10, 18480, Note_on_c, 4, 67, 84
10, 18639, Note_on_c, 4, 60, 0
10, 18639, Note_on_c, 4, 67, 0
10, 18720, Note_on_c, 4, 67, 84
10, 18720, Note_on_c, 4, 70, 84
10, 18879, Note_on_c, 4, 67, 0
10, 18879, Note_on_c, 4, 70, 0
10, 18960, Note_on_c, 4, 67, 84
10, 18960, Note_on_c, 4, 60, 84
10, 19119, Note_on_c, 4, 67, 0
10, 19119, Note_on_c, 4, 60, 0
10, 19200, Note_on_c, 4, 67, 84
10, 19200, Note_on_c, 4, 70, 84
10, 19359, Note_on_c, 4, 67, 0
10, 19359, Note_on_c, 4, 70, 0
10, 19440, Note_on_c, 4, 60, 84
10, 19440, Note_on_c, 4, 67, 84
10, 19599, Note_on_c, 4, 60, 0
10, 19599, Note_on_c, 4, 67, 0
10, 19680, Note_on_c, 4, 70, 84
10, 19680, Note_on_c, 4, 67, 84
10, 19824, Note_on_c, 4, 70, 0
10, 19824, Note_on_c, 4, 67, 0
10, 19840, Note_on_c, 4, 67, 84
10, 19840, Note_on_c, 4, 70, 84
10, 19984, Note_on_c, 4, 67, 0
10, 19984, Note_on_c, 4, 70, 0
10, 20000, Note_on_c, 4, 67, 84
10, 20000, Note_on_c, 4, 70, 84
10, 20144, Note_on_c, 4, 67, 0
10, 20144, Note_on_c, 4, 70, 0
10, 20160, Note_on_c, 4, 72, 84
10, 20160, Note_on_c, 4, 69, 84
10, 20319, Note_on_c, 4, 72, 0
10, 20319, Note_on_c, 4, 69, 0
10, 20400, Note_on_c, 4, 65, 84
10, 20400, Note_on_c, 4, 69, 84
10, 20559, Note_on_c, 4, 65, 0
10, 20559, Note_on_c, 4, 69, 0
10, 20640, Note_on_c, 4, 72, 84
10, 20640, Note_on_c, 4, 69, 84
10, 20799, Note_on_c, 4, 72, 0
10, 20799, Note_on_c, 4, 69, 0
10, 20880, Note_on_c, 4, 65, 84
10, 20880, Note_on_c, 4, 69, 84
10, 21039, Note_on_c, 4, 65, 0
10, 21039, Note_on_c, 4, 69, 0
10, 21120, Note_on_c, 4, 72, 84
10, 21120, Note_on_c, 4, 69, 84
10, 21279, Note_on_c, 4, 72, 0
10, 21279, Note_on_c, 4, 69, 0
10, 21360, Note_on_c, 4, 69, 84
10, 21360, Note_on_c, 4, 65, 84
10, 21519, Note_on_c, 4, 69, 0
10, 21519, Note_on_c, 4, 65, 0
10, 21600, Note_on_c, 4, 53, 84
10, 21600, Note_on_c, 4, 65, 84
10, 21839, Note_on_c, 4, 53, 0
10, 21839, Note_on_c, 4, 65, 0
10, 21960, Note_on_c, 4, 53, 84
10, 21960, Note_on_c, 4, 65, 84
10, 22059, Note_on_c, 4, 53, 0
10, 22059, Note_on_c, 4, 65, 0
10, 22080, Note_on_c, 4, 53, 84
10, 22080, Note_on_c, 4, 65, 84
10, 22319, Note_on_c, 4, 53, 0
10, 22319, Note_on_c, 4, 65, 0
10, 23040, Note_on_c, 4, 67, 84
10, 23199, Note_on_c, 4, 67, 0
10, 23280, Note_on_c, 4, 67, 84
10, 23439, Note_on_c, 4, 67, 0
10, 23520, Note_on_c, 4, 67, 84
10, 23679, Note_on_c, 4, 67, 0
10, 23760, Note_on_c, 4, 67, 84
10, 23919, Note_on_c, 4, 67, 0
10, 24000, Note_on_c, 4, 67, 84
10, 24239, Note_on_c, 4, 67, 0
10, 24720, Note_on_c, 4, 69, 84
10, 24720, Note_on_c, 4, 57, 84
10, 24879, Note_on_c, 4, 69, 0
10, 24879, Note_on_c, 4, 57, 0
10, 24960, Note_on_c, 4, 65, 84
10, 24960, Note_on_c, 4, 53, 84
10, 25119, Note_on_c, 4, 65, 0
10, 25119, Note_on_c, 4, 53, 0
10, 25200, Note_on_c, 4, 60, 84
10, 25200, Note_on_c, 4, 48, 84
10, 25359, Note_on_c, 4, 60, 0
10, 25359, Note_on_c, 4, 48, 0
10, 25440, Note_on_c, 4, 60, 84
10, 25440, Note_on_c, 4, 48, 84
10, 25599, Note_on_c, 4, 60, 0
10, 25599, Note_on_c, 4, 48, 0
10, 25680, Note_on_c, 4, 65, 84
10, 25680, Note_on_c, 4, 69, 84
10, 25839, Note_on_c, 4, 65, 0
10, 25839, Note_on_c, 4, 69, 0
10, 25920, Note_on_c, 4, 65, 84
10, 25920, Note_on_c, 4, 67, 84
10, 26079, Note_on_c, 4, 65, 0
10, 26079, Note_on_c, 4, 67, 0
10, 26160, Note_on_c, 4, 67, 84
10, 26160, Note_on_c, 4, 65, 84
10, 26319, Note_on_c, 4, 67, 0
10, 26319, Note_on_c, 4, 65, 0
10, 26400, Note_on_c, 4, 67, 84
10, 26400, Note_on_c, 4, 60, 84
10, 26559, Note_on_c, 4, 67, 0
10, 26559, Note_on_c, 4, 60, 0
10, 26640, Note_on_c, 4, 67, 84
10, 26640, Note_on_c, 4, 60, 84
10, 26799, Note_on_c, 4, 67, 0
10, 26799, Note_on_c, 4, 60, 0
10, 26880, Note_on_c, 4, 65, 84
10, 26880, Note_on_c, 4, 57, 84
10, 27119, Note_on_c, 4, 65, 0
10, 27119, Note_on_c, 4, 57, 0
10, 27840, Note_on_c, 4, 65, 84
10, 27840, Note_on_c, 4, 57, 84
10, 28079, Note_on_c, 4, 65, 0
10, 28079, Note_on_c, 4, 57, 0
10, 28800, Note_on_c, 4, 67, 84
10, 28800, Note_on_c, 4, 60, 84
10, 29039, Note_on_c, 4, 67, 0
10, 29039, Note_on_c, 4, 60, 0
10, 29760, Note_on_c, 4, 60, 84
10, 29760, Note_on_c, 4, 67, 84
10, 29999, Note_on_c, 4, 60, 0
10, 29999, Note_on_c, 4, 67, 0
10, 30720, Note_on_c, 4, 65, 84
10, 30720, Note_on_c, 4, 69, 84
10, 30959, Note_on_c, 4, 65, 0
10, 30959, Note_on_c, 4, 69, 0
10, 31200, Note_on_c, 4, 65, 84
10, 31359, Note_on_c, 4, 65, 0
10, 31440, Note_on_c, 4, 72, 84
10, 31440, Note_on_c, 4, 60, 84
10, 31599, Note_on_c, 4, 72, 0
10, 31599, Note_on_c, 4, 60, 0
10, 31680, Note_on_c, 4, 60, 84
10, 31680, Note_on_c, 4, 72, 84
10, 31839, Note_on_c, 4, 60, 0
10, 31839, Note_on_c, 4, 72, 0
10, 31920, Note_on_c, 4, 69, 84
10, 31920, Note_on_c, 4, 57, 84
10, 32079, Note_on_c, 4, 69, 0
10, 32079, Note_on_c, 4, 57, 0
10, 32160, Note_on_c, 4, 57, 84
10, 32160, Note_on_c, 4, 69, 84
10, 32319, Note_on_c, 4, 57, 0
10, 32319, Note_on_c, 4, 69, 0
10, 32400, Note_on_c, 4, 53, 84
10, 32400, Note_on_c, 4, 65, 84
10, 32559, Note_on_c, 4, 53, 0
10, 32559, Note_on_c, 4, 65, 0
10, 32640, Note_on_c, 4, 60, 84
10, 32640, Note_on_c, 4, 48, 84
10, 32799, Note_on_c, 4, 60, 0
10, 32799, Note_on_c, 4, 48, 0
10, 33120, Note_on_c, 4, 48, 84
10, 33120, Note_on_c, 4, 60, 84
10, 33279, Note_on_c, 4, 48, 0
10, 33279, Note_on_c, 4, 60, 0
10, 33360, Note_on_c, 4, 48, 84
10, 33360, Note_on_c, 4, 60, 84
10, 33519, Note_on_c, 4, 48, 0
10, 33519, Note_on_c, 4, 60, 0
10, 33600, Note_on_c, 4, 60, 84
10, 33600, Note_on_c, 4, 48, 84
10, 33759, Note_on_c, 4, 60, 0
10, 33759, Note_on_c, 4, 48, 0
10, 33840, Note_on_c, 4, 60, 84
10, 33840, Note_on_c, 4, 48, 84
10, 33999, Note_on_c, 4, 60, 0
10, 33999, Note_on_c, 4, 48, 0
10, 34080, Note_on_c, 4, 48, 84
10, 34080, Note_on_c, 4, 60, 84
10, 34239, Note_on_c, 4, 48, 0
10, 34239, Note_on_c, 4, 60, 0
10, 34320, Note_on_c, 4, 60, 84
10, 34320, Note_on_c, 4, 48, 84
10, 34479, Note_on_c, 4, 60, 0
10, 34479, Note_on_c, 4, 48, 0
10, 34560, Note_on_c, 4, 53, 84
10, 34719, Note_on_c, 4, 53, 0
10, 35520, Note_on_c, 4, 60, 84
10, 35759, Note_on_c, 4, 60, 0
10, 36480, Note_on_c, 4, 67, 84
10, 36719, Note_on_c, 4, 67, 0
10, 37440, Note_on_c, 4, 67, 84
10, 37679, Note_on_c, 4, 67, 0
10, 38400, Note_on_c, 4, 67, 84
10, 38639, Note_on_c, 4, 67, 0
10, 38880, Note_on_c, 4, 67, 84
10, 39039, Note_on_c, 4, 67, 0
10, 39120, Note_on_c, 4, 67, 84
10, 39279, Note_on_c, 4, 67, 0
10, 39360, Note_on_c, 4, 67, 84
10, 39519, Note_on_c, 4, 67, 0
10, 39600, Note_on_c, 4, 67, 84
10, 39759, Note_on_c, 4, 67, 0
10, 39840, Note_on_c, 4, 67, 84
10, 39999, Note_on_c, 4, 67, 0
10, 40080, Note_on_c, 4, 67, 84
10, 40239, Note_on_c, 4, 67, 0
10, 40320, Note_on_c, 4, 67, 84
10, 40479, Note_on_c, 4, 67, 0
10, 40800, Note_on_c, 4, 67, 92
10, 40959, Note_on_c, 4, 67, 0
10, 41040, Note_on_c, 4, 67, 84
10, 41199, Note_on_c, 4, 67, 0
10, 41280, Note_on_c, 4, 67, 92
10, 41439, Note_on_c, 4, 67, 0
10, 41520, Note_on_c, 4, 67, 84
10, 41679, Note_on_c, 4, 67, 0
10, 42720, Note_on_c, 4, 67, 84
10, 42879, Note_on_c, 4, 67, 0
10, 42960, Note_on_c, 4, 67, 84
10, 43119, Note_on_c, 4, 67, 0
10, 43200, Note_on_c, 4, 67, 84
10, 43359, Note_on_c, 4, 67, 0
10, 43440, Note_on_c, 4, 67, 84
10, 43599, Note_on_c, 4, 67, 0
10, 44640, Note_on_c, 4, 67, 84
10, 44799, Note_on_c, 4, 67, 0
10, 44880, Note_on_c, 4, 67, 84
10, 45039, Note_on_c, 4, 67, 0
10, 45120, Note_on_c, 4, 67, 84
10, 45279, Note_on_c, 4, 67, 0
10, 45360, Note_on_c, 4, 67, 84
10, 45519, Note_on_c, 4, 67, 0
10, 45600, Note_on_c, 4, 67, 84
10, 45759, Note_on_c, 4, 67, 0
10, 45840, Note_on_c, 4, 67, 84
10, 45999, Note_on_c, 4, 67, 0
10, 46080, Note_on_c, 4, 60, 52
10, 46080, Note_on_c, 4, 48, 52
10, 46319, Note_on_c, 4, 60, 0
10, 46319, Note_on_c, 4, 48, 0
10, 56400, Control_c, 4, 11, 96
10, 56640, Note_on_c, 4, 67, 68
10, 56880, Control_c, 4, 11, 96
10, 56940, Control_c, 4, 11, 99
10, 57000, Control_c, 4, 11, 101
10, 57060, Control_c, 4, 11, 104
10, 57120, Control_c, 4, 11, 106
10, 57180, Control_c, 4, 11, 109
10, 57240, Control_c, 4, 11, 112
10, 57300, Control_c, 4, 11, 114
10, 57360, Control_c, 4, 11, 117
10, 57420, Control_c, 4, 11, 119
10, 57480, Control_c, 4, 11, 122
10, 57540, Control_c, 4, 11, 127
10, 57599, Note_on_c, 4, 67, 0
10, 57600, Note_on_c, 4, 67, 52
10, 59499, Note_on_c, 4, 67, 0
10, 59520, Note_on_c, 4, 67, 52
10, 59979, Note_on_c, 4, 67, 0
10, 60000, Note_on_c, 4, 67, 52
10, 60459, Note_on_c, 4, 67, 0
10, 60480, Note_on_c, 4, 67, 52
10, 60939, Note_on_c, 4, 67, 0
10, 60960, Note_on_c, 4, 67, 52
10, 61419, Note_on_c, 4, 67, 0
10, 61440, Note_on_c, 4, 67, 52
10, 63339, Note_on_c, 4, 67, 0
10, 63360, Note_on_c, 4, 67, 52
10, 63819, Note_on_c, 4, 67, 0
10, 63840, Note_on_c, 4, 67, 52
10, 64299, Note_on_c, 4, 67, 0
10, 64320, Note_on_c, 4, 67, 52
10, 64779, Note_on_c, 4, 67, 0
10, 64800, Note_on_c, 4, 67, 52
10, 65259, Note_on_c, 4, 67, 0
10, 65280, Note_on_c, 4, 67, 44
10, 65519, Note_on_c, 4, 67, 0
10, 73920, Note_on_c, 4, 65, 76
10, 73920, Note_on_c, 4, 53, 76
10, 74159, Note_on_c, 4, 65, 0
10, 74159, Note_on_c, 4, 53, 0
10, 74880, Note_on_c, 4, 67, 76
10, 75119, Note_on_c, 4, 67, 0
10, 75840, Note_on_c, 4, 69, 76
10, 75840, Note_on_c, 4, 57, 76
10, 76079, Note_on_c, 4, 69, 0
10, 76079, Note_on_c, 4, 57, 0
10, 78720, Note_on_c, 4, 67, 76
10, 78959, Note_on_c, 4, 67, 0
10, 79680, Note_on_c, 4, 65, 76
10, 79680, Note_on_c, 4, 53, 76
10, 79919, Note_on_c, 4, 65, 0
10, 79919, Note_on_c, 4, 53, 0
10, 84480, Note_on_c, 4, 53, 84
10, 84480, Note_on_c, 4, 65, 84
10, 86379, Note_on_c, 4, 53, 0
10, 86379, Note_on_c, 4, 65, 0
10, 86400, Note_on_c, 4, 65, 84
10, 86400, Note_on_c, 4, 53, 84
10, 86639, Note_on_c, 4, 65, 0
10, 86639, Note_on_c, 4, 53, 0
10, 119520, Note_on_c, 4, 60, 76
10, 120959, Note_on_c, 4, 60, 0
10, 121440, Note_on_c, 4, 65, 84
10, 121560, Control_c, 4, 11, 112
10, 122879, Note_on_c, 4, 65, 0
10, 126960, Control_c, 4, 11, 127
10, 127200, Note_on_c, 4, 57, 84
10, 127320, Control_c, 4, 11, 112
10, 128639, Note_on_c, 4, 57, 0
10, 132720, Control_c, 4, 11, 127
10, 132960, Note_on_c, 4, 65, 84
10, 133080, Control_c, 4, 11, 112
10, 133439, Note_on_c, 4, 65, 0
10, 135600, Control_c, 4, 11, 127
10, 135840, Note_on_c, 4, 57, 84
10, 135840, Note_on_c, 4, 69, 84
10, 135960, Control_c, 4, 11, 112
10, 136319, Note_on_c, 4, 57, 0
10, 136319, Note_on_c, 4, 69, 0
10, 140160, Control_c, 4, 11, 127
10, 140400, Note_on_c, 4, 60, 76
10, 140400, Note_on_c, 4, 48, 76
10, 140559, Note_on_c, 4, 60, 0
10, 140559, Note_on_c, 4, 48, 0
10, 140640, Note_on_c, 4, 65, 76
10, 140640, Note_on_c, 4, 53, 76
10, 140799, Note_on_c, 4, 65, 0
10, 140799, Note_on_c, 4, 53, 0
10, 140880, Note_on_c, 4, 65, 76
10, 140880, Note_on_c, 4, 53, 76
10, 141039, Note_on_c, 4, 65, 0
10, 141039, Note_on_c, 4, 53, 0
10, 155040, Note_on_c, 4, 65, 44
10, 155040, Note_on_c, 4, 53, 44
10, 159599, Note_on_c, 4, 65, 0
10, 159599, Note_on_c, 4, 53, 0
10, 162000, Note_on_c, 4, 60, 44
10, 162000, Note_on_c, 4, 48, 44
10, 163179, Note_on_c, 4, 60, 0
10, 163179, Note_on_c, 4, 48, 0
10, 163200, Note_on_c, 4, 67, 44
10, 164139, Note_on_c, 4, 67, 0
10, 164160, Note_on_c, 4, 48, 44
10, 164160, Note_on_c, 4, 60, 44
10, 166080, Control_c, 4, 11, 127
10, 166272, Control_c, 4, 11, 126
10, 166464, Control_c, 4, 11, 125
10, 166656, Control_c, 4, 11, 124
10, 166848, Control_c, 4, 11, 123
10, 167040, Control_c, 4, 11, 122
10, 167232, Control_c, 4, 11, 121
10, 167424, Control_c, 4, 11, 120
10, 167616, Control_c, 4, 11, 119
10, 167808, Control_c, 4, 11, 118
10, 168000, Control_c, 4, 11, 117
10, 168192, Control_c, 4, 11, 116
10, 168384, Control_c, 4, 11, 115
10, 168576, Control_c, 4, 11, 114
10, 168768, Control_c, 4, 11, 113
10, 171359, Note_on_c, 4, 48, 0
10, 171359, Note_on_c, 4, 60, 0
10, 171600, Control_c, 4, 11, 127
10, 172320, Note_on_c, 4, 65, 84
10, 172320, Note_on_c, 4, 69, 84
10, 172464, Note_on_c, 4, 65, 0
10, 172464, Note_on_c, 4, 69, 0
10, 172480, Note_on_c, 4, 65, 84
10, 172480, Note_on_c, 4, 69, 84
10, 172624, Note_on_c, 4, 65, 0
10, 172624, Note_on_c, 4, 69, 0
10, 172640, Note_on_c, 4, 65, 84
10, 172640, Note_on_c, 4, 69, 84
10, 172784, Note_on_c, 4, 65, 0
10, 172784, Note_on_c, 4, 69, 0
10, 172800, Note_on_c, 4, 67, 84
10, 172800, Note_on_c, 4, 70, 84
10, 172959, Note_on_c, 4, 67, 0
10, 172959, Note_on_c, 4, 70, 0
10, 173040, Note_on_c, 4, 60, 84
10, 173040, Note_on_c, 4, 67, 84
10, 173199, Note_on_c, 4, 60, 0
10, 173199, Note_on_c, 4, 67, 0
10, 173280, Note_on_c, 4, 67, 84
10, 173280, Note_on_c, 4, 70, 84
10, 173439, Note_on_c, 4, 67, 0
10, 173439, Note_on_c, 4, 70, 0
10, 173520, Note_on_c, 4, 60, 84
10, 173520, Note_on_c, 4, 67, 84
10, 173679, Note_on_c, 4, 60, 0
10, 173679, Note_on_c, 4, 67, 0
10, 173760, Note_on_c, 4, 67, 84
10, 173760, Note_on_c, 4, 70, 84
10, 173919, Note_on_c, 4, 67, 0
10, 173919, Note_on_c, 4, 70, 0
10, 174000, Note_on_c, 4, 67, 84
10, 174000, Note_on_c, 4, 60, 84
10, 174159, Note_on_c, 4, 67, 0
10, 174159, Note_on_c, 4, 60, 0
10, 174240, Note_on_c, 4, 70, 84
10, 174240, Note_on_c, 4, 67, 84
10, 174384, Note_on_c, 4, 70, 0
10, 174384, Note_on_c, 4, 67, 0
10, 174400, Note_on_c, 4, 70, 84
10, 174400, Note_on_c, 4, 67, 84
10, 174544, Note_on_c, 4, 70, 0
10, 174544, Note_on_c, 4, 67, 0
10, 174560, Note_on_c, 4, 70, 84
10, 174560, Note_on_c, 4, 67, 84
10, 174704, Note_on_c, 4, 70, 0
10, 174704, Note_on_c, 4, 67, 0
10, 174720, Note_on_c, 4, 69, 84
10, 174720, Note_on_c, 4, 72, 84
10, 174879, Note_on_c, 4, 69, 0
10, 174879, Note_on_c, 4, 72, 0
10, 174960, Note_on_c, 4, 69, 84
10, 174960, Note_on_c, 4, 65, 84
10, 175119, Note_on_c, 4, 69, 0
10, 175119, Note_on_c, 4, 65, 0
10, 175200, Note_on_c, 4, 69, 84
10, 175200, Note_on_c, 4, 72, 84
10, 175359, Note_on_c, 4, 69, 0
10, 175359, Note_on_c, 4, 72, 0
10, 175440, Note_on_c, 4, 65, 84
10, 175440, Note_on_c, 4, 69, 84
10, 175599, Note_on_c, 4, 65, 0
10, 175599, Note_on_c, 4, 69, 0
10, 175680, Note_on_c, 4, 72, 84
10, 175680, Note_on_c, 4, 69, 84
10, 175839, Note_on_c, 4, 72, 0
10, 175839, Note_on_c, 4, 69, 0
10, 175920, Note_on_c, 4, 69, 84
10, 175920, Note_on_c, 4, 65, 84
10, 176079, Note_on_c, 4, 69, 0
10, 176079, Note_on_c, 4, 65, 0
10, 176160, Note_on_c, 4, 65, 84
10, 176160, Note_on_c, 4, 53, 84
10, 176399, Note_on_c, 4, 65, 0
10, 176399, Note_on_c, 4, 53, 0
10, 176520, Note_on_c, 4, 65, 84
10, 176520, Note_on_c, 4, 53, 84
10, 176619, Note_on_c, 4, 65, 0
10, 176619, Note_on_c, 4, 53, 0
10, 176640, Note_on_c, 4, 65, 84
10, 176640, Note_on_c, 4, 53, 84
10, 176879, Note_on_c, 4, 65, 0
10, 176879, Note_on_c, 4, 53, 0
10, 177600, Note_on_c, 4, 67, 84
10, 177819, Note_on_c, 4, 67, 0
10, 177840, Note_on_c, 4, 67, 84
10, 178059, Note_on_c, 4, 67, 0
10, 178080, Note_on_c, 4, 67, 84
10, 178299, Note_on_c, 4, 67, 0
10, 178320, Note_on_c, 4, 67, 84
10, 178539, Note_on_c, 4, 67, 0
10, 178560, Note_on_c, 4, 67, 84
10, 178799, Note_on_c, 4, 67, 0
10, 179280, Note_on_c, 4, 57, 84
10, 179280, Note_on_c, 4, 69, 84
10, 179499, Note_on_c, 4, 57, 0
10, 179499, Note_on_c, 4, 69, 0
10, 179520, Note_on_c, 4, 53, 84
10, 179520, Note_on_c, 4, 65, 84
10, 179739, Note_on_c, 4, 53, 0
10, 179739, Note_on_c, 4, 65, 0
10, 179760, Note_on_c, 4, 48, 84
10, 179760, Note_on_c, 4, 60, 84
10, 179979, Note_on_c, 4, 48, 0
10, 179979, Note_on_c, 4, 60, 0
10, 180000, Note_on_c, 4, 48, 84
10, 180000, Note_on_c, 4, 60, 84
10, 180219, Note_on_c, 4, 48, 0
10, 180219, Note_on_c, 4, 60, 0
10, 180240, Note_on_c, 4, 69, 84
10, 180240, Note_on_c, 4, 65, 84
10, 180459, Note_on_c, 4, 69, 0
10, 180459, Note_on_c, 4, 65, 0
10, 180480, Note_on_c, 4, 65, 84
10, 180480, Note_on_c, 4, 67, 84
10, 180699, Note_on_c, 4, 65, 0
10, 180699, Note_on_c, 4, 67, 0
10, 180720, Note_on_c, 4, 65, 84
10, 180720, Note_on_c, 4, 67, 84
10, 180939, Note_on_c, 4, 65, 0
10, 180939, Note_on_c, 4, 67, 0
10, 180960, Note_on_c, 4, 60, 84
10, 180960, Note_on_c, 4, 67, 84
10, 181179, Note_on_c, 4, 60, 0
10, 181179, Note_on_c, 4, 67, 0
10, 181200, Note_on_c, 4, 60, 84
10, 181200, Note_on_c, 4, 67, 84
10, 181419, Note_on_c, 4, 60, 0
10, 181419, Note_on_c, 4, 67, 0
10, 181440, Note_on_c, 4, 57, 84
10, 181440, Note_on_c, 4, 65, 84
10, 181679, Note_on_c, 4, 57, 0
10, 181679, Note_on_c, 4, 65, 0
10, 182400, Note_on_c, 4, 57, 84
10, 182400, Note_on_c, 4, 65, 84
10, 182639, Note_on_c, 4, 57, 0
10, 182639, Note_on_c, 4, 65, 0
10, 183360, Note_on_c, 4, 60, 84
10, 183360, Note_on_c, 4, 67, 84
10, 183599, Note_on_c, 4, 60, 0
10, 183599, Note_on_c, 4, 67, 0
10, 184320, Note_on_c, 4, 60, 84
10, 184320, Note_on_c, 4, 67, 84
10, 184559, Note_on_c, 4, 60, 0
10, 184559, Note_on_c, 4, 67, 0
10, 185280, Note_on_c, 4, 65, 84
10, 185280, Note_on_c, 4, 69, 84
10, 185519, Note_on_c, 4, 65, 0
10, 185519, Note_on_c, 4, 69, 0
10, 185760, Note_on_c, 4, 65, 84
10, 185919, Note_on_c, 4, 65, 0
10, 186000, Note_on_c, 4, 60, 84
10, 186000, Note_on_c, 4, 72, 84
10, 186159, Note_on_c, 4, 60, 0
10, 186159, Note_on_c, 4, 72, 0
10, 186240, Note_on_c, 4, 72, 84
10, 186240, Note_on_c, 4, 60, 84
10, 186399, Note_on_c, 4, 72, 0
10, 186399, Note_on_c, 4, 60, 0
10, 186480, Note_on_c, 4, 57, 84
10, 186480, Note_on_c, 4, 69, 84
10, 186639, Note_on_c, 4, 57, 0
10, 186639, Note_on_c, 4, 69, 0
10, 186720, Note_on_c, 4, 69, 84
10, 186720, Note_on_c, 4, 57, 84
10, 186879, Note_on_c, 4, 69, 0
10, 186879, Note_on_c, 4, 57, 0
10, 186960, Note_on_c, 4, 65, 84
10, 186960, Note_on_c, 4, 53, 84
10, 187119, Note_on_c, 4, 65, 0
10, 187119, Note_on_c, 4, 53, 0
10, 187200, Note_on_c, 4, 60, 84
10, 187200, Note_on_c, 4, 48, 84
10, 187359, Note_on_c, 4, 60, 0
10, 187359, Note_on_c, 4, 48, 0
10, 187680, Note_on_c, 4, 60, 84
10, 187680, Note_on_c, 4, 48, 84
10, 187839, Note_on_c, 4, 60, 0
10, 187839, Note_on_c, 4, 48, 0
10, 187920, Note_on_c, 4, 48, 84
10, 187920, Note_on_c, 4, 60, 84
10, 188079, Note_on_c, 4, 48, 0
10, 188079, Note_on_c, 4, 60, 0
10, 188160, Note_on_c, 4, 48, 84
10, 188160, Note_on_c, 4, 60, 84
10, 188319, Note_on_c, 4, 48, 0
10, 188319, Note_on_c, 4, 60, 0
10, 188400, Note_on_c, 4, 48, 84
10, 188400, Note_on_c, 4, 60, 84
10, 188559, Note_on_c, 4, 48, 0
10, 188559, Note_on_c, 4, 60, 0
10, 188640, Note_on_c, 4, 48, 84
10, 188640, Note_on_c, 4, 60, 84
10, 188799, Note_on_c, 4, 48, 0
10, 188799, Note_on_c, 4, 60, 0
10, 188880, Note_on_c, 4, 48, 84
10, 188880, Note_on_c, 4, 60, 84
10, 189039, Note_on_c, 4, 48, 0
10, 189039, Note_on_c, 4, 60, 0
10, 189120, Note_on_c, 4, 57, 84
10, 189120, Note_on_c, 4, 65, 84
10, 189279, Note_on_c, 4, 57, 0
10, 189279, Note_on_c, 4, 65, 0
10, 190080, Note_on_c, 4, 57, 84
10, 190080, Note_on_c, 4, 65, 84
10, 190319, Note_on_c, 4, 57, 0
10, 190319, Note_on_c, 4, 65, 0
10, 191040, Note_on_c, 4, 60, 84
10, 191040, Note_on_c, 4, 67, 84
10, 191279, Note_on_c, 4, 60, 0
10, 191279, Note_on_c, 4, 67, 0
10, 192000, Note_on_c, 4, 67, 84
10, 192000, Note_on_c, 4, 60, 84
10, 192239, Note_on_c, 4, 67, 0
10, 192239, Note_on_c, 4, 60, 0
10, 192960, Note_on_c, 4, 65, 84
10, 192960, Note_on_c, 4, 69, 84
10, 193199, Note_on_c, 4, 65, 0
10, 193199, Note_on_c, 4, 69, 0
10, 193440, Note_on_c, 4, 60, 84
10, 193440, Note_on_c, 4, 48, 84
10, 193599, Note_on_c, 4, 60, 0
10, 193599, Note_on_c, 4, 48, 0
10, 193680, Note_on_c, 4, 60, 84
10, 193680, Note_on_c, 4, 48, 84
10, 193839, Note_on_c, 4, 60, 0
10, 193839, Note_on_c, 4, 48, 0
10, 193920, Note_on_c, 4, 60, 84
10, 193920, Note_on_c, 4, 48, 84
10, 194079, Note_on_c, 4, 60, 0
10, 194079, Note_on_c, 4, 48, 0
10, 194160, Note_on_c, 4, 48, 84
10, 194160, Note_on_c, 4, 60, 84
10, 194319, Note_on_c, 4, 48, 0
10, 194319, Note_on_c, 4, 60, 0
10, 194400, Note_on_c, 4, 48, 84
10, 194400, Note_on_c, 4, 60, 84
10, 194559, Note_on_c, 4, 48, 0
10, 194559, Note_on_c, 4, 60, 0
10, 194640, Note_on_c, 4, 60, 84
10, 194640, Note_on_c, 4, 48, 84
10, 194799, Note_on_c, 4, 60, 0
10, 194799, Note_on_c, 4, 48, 0
10, 194880, Note_on_c, 4, 60, 84
10, 194880, Note_on_c, 4, 48, 84
10, 195039, Note_on_c, 4, 60, 0
10, 195039, Note_on_c, 4, 48, 0
10, 196800, Note_on_c, 4, 67, 84
10, 196959, Note_on_c, 4, 67, 0
10, 197760, Note_on_c, 4, 67, 84
10, 197999, Note_on_c, 4, 67, 0
10, 198720, Note_on_c, 4, 65, 84
10, 198720, Note_on_c, 4, 69, 84
10, 198959, Note_on_c, 4, 65, 0
10, 198959, Note_on_c, 4, 69, 0
10, 199680, Note_on_c, 4, 65, 84
10, 199680, Note_on_c, 4, 53, 84
10, 199919, Note_on_c, 4, 65, 0
10, 199919, Note_on_c, 4, 53, 0
10, 200640, Note_on_c, 4, 65, 84
10, 200640, Note_on_c, 4, 53, 84
10, 200879, Note_on_c, 4, 65, 0
10, 200879, Note_on_c, 4, 53, 0
10, 201120, Note_on_c, 4, 65, 84
10, 201120, Note_on_c, 4, 53, 84
10, 201279, Note_on_c, 4, 65, 0
10, 201279, Note_on_c, 4, 53, 0
10, 201360, Note_on_c, 4, 53, 84
10, 201360, Note_on_c, 4, 65, 84
10, 201519, Note_on_c, 4, 53, 0
10, 201519, Note_on_c, 4, 65, 0
10, 201600, Note_on_c, 4, 53, 84
10, 201600, Note_on_c, 4, 65, 84
10, 201759, Note_on_c, 4, 53, 0
10, 201759, Note_on_c, 4, 65, 0
10, 201840, Note_on_c, 4, 65, 84
10, 201840, Note_on_c, 4, 53, 84
10, 201999, Note_on_c, 4, 65, 0
10, 201999, Note_on_c, 4, 53, 0
10, 202080, Note_on_c, 4, 65, 84
10, 202080, Note_on_c, 4, 53, 84
10, 202239, Note_on_c, 4, 65, 0
10, 202239, Note_on_c, 4, 53, 0
10, 202320, Note_on_c, 4, 65, 84
10, 202320, Note_on_c, 4, 53, 84
10, 202479, Note_on_c, 4, 65, 0
10, 202479, Note_on_c, 4, 53, 0
10, 202560, Note_on_c, 4, 53, 84
10, 202560, Note_on_c, 4, 65, 84
10, 202719, Note_on_c, 4, 53, 0
10, 202719, Note_on_c, 4, 65, 0
10, 203040, Note_on_c, 4, 65, 84
10, 203040, Note_on_c, 4, 53, 84
10, 203199, Note_on_c, 4, 65, 0
10, 203199, Note_on_c, 4, 53, 0
10, 203280, Note_on_c, 4, 65, 84
10, 203280, Note_on_c, 4, 53, 84
10, 203439, Note_on_c, 4, 65, 0
10, 203439, Note_on_c, 4, 53, 0
10, 203520, Note_on_c, 4, 53, 84
10, 203520, Note_on_c, 4, 65, 84
10, 203679, Note_on_c, 4, 53, 0
10, 203679, Note_on_c, 4, 65, 0
10, 203760, Note_on_c, 4, 65, 84
10, 203760, Note_on_c, 4, 53, 84
10, 203919, Note_on_c, 4, 65, 0
10, 203919, Note_on_c, 4, 53, 0
10, 204000, Note_on_c, 4, 65, 84
10, 204000, Note_on_c, 4, 53, 84
10, 204159, Note_on_c, 4, 65, 0
10, 204159, Note_on_c, 4, 53, 0
10, 204240, Note_on_c, 4, 65, 84
10, 204240, Note_on_c, 4, 53, 84
10, 204399, Note_on_c, 4, 65, 0
10, 204399, Note_on_c, 4, 53, 0
10, 204480, Note_on_c, 4, 65, 84
10, 204480, Note_on_c, 4, 53, 84
10, 204639, Note_on_c, 4, 65, 0
10, 204639, Note_on_c, 4, 53, 0
10, 208800, Note_on_c, 4, 60, 84
10, 208800, Note_on_c, 4, 48, 84
10, 209019, Note_on_c, 4, 60, 0
10, 209019, Note_on_c, 4, 48, 0
10, 209040, Note_on_c, 4, 60, 84
10, 209040, Note_on_c, 4, 48, 84
10, 209259, Note_on_c, 4, 60, 0
10, 209259, Note_on_c, 4, 48, 0
10, 209280, Note_on_c, 4, 48, 84
10, 209280, Note_on_c, 4, 60, 84
10, 209499, Note_on_c, 4, 48, 0
10, 209499, Note_on_c, 4, 60, 0
10, 209520, Note_on_c, 4, 48, 84
10, 209520, Note_on_c, 4, 60, 84
10, 209759, Note_on_c, 4, 48, 0
10, 209759, Note_on_c, 4, 60, 0
10, 210720, Note_on_c, 4, 60, 84
10, 210720, Note_on_c, 4, 48, 84
10, 210939, Note_on_c, 4, 60, 0
10, 210939, Note_on_c, 4, 48, 0
10, 210960, Note_on_c, 4, 48, 84
10, 210960, Note_on_c, 4, 60, 84
10, 211179, Note_on_c, 4, 48, 0
10, 211179, Note_on_c, 4, 60, 0
10, 211200, Note_on_c, 4, 48, 84
10, 211200, Note_on_c, 4, 60, 84
10, 211439, Note_on_c, 4, 48, 0
10, 211439, Note_on_c, 4, 60, 0
10, 211680, Note_on_c, 4, 60, 84
10, 211680, Note_on_c, 4, 48, 84
10, 211899, Note_on_c, 4, 60, 0
10, 211899, Note_on_c, 4, 48, 0
10, 211920, Note_on_c, 4, 60, 84
10, 211920, Note_on_c, 4, 48, 84
10, 212139, Note_on_c, 4, 60, 0
10, 212139, Note_on_c, 4, 48, 0
10, 212160, Note_on_c, 4, 60, 84
10, 212160, Note_on_c, 4, 48, 84
10, 212399, Note_on_c, 4, 60, 0
10, 212399, Note_on_c, 4, 48, 0
10, 212640, Note_on_c, 4, 48, 84
10, 212640, Note_on_c, 4, 60, 84
10, 212859, Note_on_c, 4, 48, 0
10, 212859, Note_on_c, 4, 60, 0
10, 212880, Note_on_c, 4, 48, 84
10, 212880, Note_on_c, 4, 60, 84
10, 213099, Note_on_c, 4, 48, 0
10, 213099, Note_on_c, 4, 60, 0
10, 213120, Note_on_c, 4, 60, 84
10, 213120, Note_on_c, 4, 48, 84
10, 213359, Note_on_c, 4, 60, 0
10, 213359, Note_on_c, 4, 48, 0
10, 213600, Note_on_c, 4, 48, 84
10, 213600, Note_on_c, 4, 60, 84
10, 213819, Note_on_c, 4, 48, 0
10, 213819, Note_on_c, 4, 60, 0
10, 213840, Note_on_c, 4, 60, 84
10, 213840, Note_on_c, 4, 48, 84
10, 214059, Note_on_c, 4, 60, 0
10, 214059, Note_on_c, 4, 48, 0
10, 214080, Note_on_c, 4, 48, 84
10, 214080, Note_on_c, 4, 60, 84
10, 214319, Note_on_c, 4, 48, 0
10, 214319, Note_on_c, 4, 60, 0
10, 214560, Note_on_c, 4, 48, 84
10, 214560, Note_on_c, 4, 60, 84
10, 214779, Note_on_c, 4, 48, 0
10, 214779, Note_on_c, 4, 60, 0
10, 214800, Note_on_c, 4, 60, 84
10, 214800, Note_on_c, 4, 48, 84
10, 215019, Note_on_c, 4, 60, 0
10, 215019, Note_on_c, 4, 48, 0
10, 215040, Note_on_c, 4, 53, 52
10, 215279, Note_on_c, 4, 53, 0
10, 222480, Control_c, 4, 11, 96
10, 222720, Control_c, 4, 11, 96
10, 222720, Note_on_c, 4, 65, 68
10, 223000, Control_c, 4, 11, 99
10, 223280, Control_c, 4, 11, 101
10, 223560, Control_c, 4, 11, 104
10, 223840, Control_c, 4, 11, 106
10, 224120, Control_c, 4, 11, 109
10, 224400, Control_c, 4, 11, 112
10, 224619, Note_on_c, 4, 65, 0
10, 224640, Note_on_c, 4, 67, 68
10, 224640, Note_on_c, 4, 60, 68
10, 224680, Control_c, 4, 11, 114
10, 224960, Control_c, 4, 11, 117
10, 225240, Control_c, 4, 11, 119
10, 225520, Control_c, 4, 11, 122
10, 225599, Note_on_c, 4, 67, 0
10, 225600, Note_on_c, 4, 72, 68
10, 225800, Control_c, 4, 11, 124
10, 226080, Control_c, 4, 11, 127
10, 226539, Note_on_c, 4, 60, 0
10, 226539, Note_on_c, 4, 72, 0
10, 226560, Note_on_c, 4, 65, 52
10, 226560, Note_on_c, 4, 57, 52
10, 228459, Note_on_c, 4, 65, 0
10, 228459, Note_on_c, 4, 57, 0
10, 228480, Note_on_c, 4, 60, 52
10, 228480, Note_on_c, 4, 67, 52
10, 228939, Note_on_c, 4, 60, 0
10, 228939, Note_on_c, 4, 67, 0
10, 228960, Note_on_c, 4, 60, 52
10, 228960, Note_on_c, 4, 67, 52
10, 229419, Note_on_c, 4, 60, 0
10, 229419, Note_on_c, 4, 67, 0
10, 229440, Note_on_c, 4, 67, 52
10, 229440, Note_on_c, 4, 60, 52
10, 229899, Note_on_c, 4, 67, 0
10, 229899, Note_on_c, 4, 60, 0
10, 229920, Note_on_c, 4, 60, 52
10, 229920, Note_on_c, 4, 67, 52
10, 230379, Note_on_c, 4, 60, 0
10, 230379, Note_on_c, 4, 67, 0
10, 230400, Note_on_c, 4, 65, 52
10, 230400, Note_on_c, 4, 69, 52
10, 230879, Note_on_c, 4, 65, 0
10, 230879, Note_on_c, 4, 69, 0
10, 230880, Note_on_c, 4, 65, 52
10, 230880, Note_on_c, 4, 57, 52
10, 232299, Note_on_c, 4, 65, 0
10, 232299, Note_on_c, 4, 57, 0
10, 232320, Note_on_c, 4, 60, 52
10, 232320, Note_on_c, 4, 67, 52
10, 232779, Note_on_c, 4, 60, 0
10, 232779, Note_on_c, 4, 67, 0
10, 232800, Note_on_c, 4, 67, 52
10, 232800, Note_on_c, 4, 60, 52
10, 233259, Note_on_c, 4, 67, 0
10, 233259, Note_on_c, 4, 60, 0
10, 233280, Note_on_c, 4, 67, 52
10, 233280, Note_on_c, 4, 60, 52
10, 233739, Note_on_c, 4, 67, 0
10, 233739, Note_on_c, 4, 60, 0
10, 233760, Note_on_c, 4, 67, 52
10, 233760, Note_on_c, 4, 60, 52
10, 234219, Note_on_c, 4, 67, 0
10, 234219, Note_on_c, 4, 60, 0
10, 234240, Note_on_c, 4, 69, 44
10, 234240, Note_on_c, 4, 65, 44
10, 234479, Note_on_c, 4, 69, 0
10, 234479, Note_on_c, 4, 65, 0
10, 241920, Note_on_c, 4, 65, 76
10, 241920, Note_on_c, 4, 53, 76
10, 242139, Note_on_c, 4, 65, 0
10, 242139, Note_on_c, 4, 53, 0
10, 242160, Note_on_c, 4, 53, 76
10, 242160, Note_on_c, 4, 65, 76
10, 242399, Note_on_c, 4, 53, 0
10, 242399, Note_on_c, 4, 65, 0
10, 242880, Note_on_c, 4, 67, 76
10, 243099, Note_on_c, 4, 67, 0
10, 243120, Note_on_c, 4, 67, 76
10, 243359, Note_on_c, 4, 67, 0
10, 243840, Note_on_c, 4, 57, 76
10, 243840, Note_on_c, 4, 69, 76
10, 244059, Note_on_c, 4, 57, 0
10, 244059, Note_on_c, 4, 69, 0
10, 244080, Note_on_c, 4, 57, 76
10, 244080, Note_on_c, 4, 69, 76
10, 244319, Note_on_c, 4, 57, 0
10, 244319, Note_on_c, 4, 69, 0
10, 244560, Note_on_c, 4, 65, 76
10, 244560, Note_on_c, 4, 53, 76
10, 244779, Note_on_c, 4, 65, 0
10, 244779, Note_on_c, 4, 53, 0
10, 244800, Note_on_c, 4, 65, 76
10, 244800, Note_on_c, 4, 53, 76
10, 245019, Note_on_c, 4, 65, 0
10, 245019, Note_on_c, 4, 53, 0
10, 245040, Note_on_c, 4, 65, 76
10, 245040, Note_on_c, 4, 53, 76
10, 245279, Note_on_c, 4, 65, 0
10, 245279, Note_on_c, 4, 53, 0
10, 245520, Note_on_c, 4, 67, 76
10, 245739, Note_on_c, 4, 67, 0
10, 245760, Note_on_c, 4, 60, 76
10, 245760, Note_on_c, 4, 48, 76
10, 245919, Note_on_c, 4, 60, 0
10, 245919, Note_on_c, 4, 48, 0
10, 246000, Note_on_c, 4, 60, 76
10, 246000, Note_on_c, 4, 48, 76
10, 246159, Note_on_c, 4, 60, 0
10, 246159, Note_on_c, 4, 48, 0
10, 246240, Note_on_c, 4, 48, 76
10, 246240, Note_on_c, 4, 60, 76
10, 246399, Note_on_c, 4, 48, 0
10, 246399, Note_on_c, 4, 60, 0
10, 246480, Note_on_c, 4, 53, 76
10, 246480, Note_on_c, 4, 65, 76
10, 246639, Note_on_c, 4, 53, 0
10, 246639, Note_on_c, 4, 65, 0
10, 246720, Note_on_c, 4, 65, 76
10, 246720, Note_on_c, 4, 53, 76
10, 246879, Note_on_c, 4, 65, 0
10, 246879, Note_on_c, 4, 53, 0
10, 246960, Note_on_c, 4, 53, 76
10, 246960, Note_on_c, 4, 65, 76
10, 247119, Note_on_c, 4, 53, 0
10, 247119, Note_on_c, 4, 65, 0
10, 247200, Note_on_c, 4, 65, 76
10, 247200, Note_on_c, 4, 53, 76
10, 247359, Note_on_c, 4, 65, 0
10, 247359, Note_on_c, 4, 53, 0
10, 248400, Note_on_c, 4, 57, 76
10, 248400, Note_on_c, 4, 69, 76
10, 248619, Note_on_c, 4, 57, 0
10, 248619, Note_on_c, 4, 69, 0
10, 248640, Note_on_c, 4, 67, 76
10, 248859, Note_on_c, 4, 67, 0
10, 248880, Note_on_c, 4, 67, 76
10, 249099, Note_on_c, 4, 67, 0
10, 249120, Note_on_c, 4, 67, 76
10, 249339, Note_on_c, 4, 67, 0
10, 249360, Note_on_c, 4, 48, 76
10, 249360, Note_on_c, 4, 60, 76
10, 249579, Note_on_c, 4, 48, 0
10, 249579, Note_on_c, 4, 60, 0
10, 249600, Note_on_c, 4, 60, 80
10, 249600, Note_on_c, 4, 48, 80
10, 251499, Note_on_c, 4, 60, 0
10, 251499, Note_on_c, 4, 48, 0
10, 251520, Note_on_c, 4, 65, 80
10, 251520, Note_on_c, 4, 53, 80
10, 253419, Note_on_c, 4, 65, 0
10, 253419, Note_on_c, 4, 53, 0
10, 253440, Note_on_c, 4, 65, 84
10, 255339, Note_on_c, 4, 65, 0
10, 255360, Note_on_c, 4, 65, 84
10, 255599, Note_on_c, 4, 65, 0
10, 274560, Note_on_c, 4, 69, 44
10, 274560, Note_on_c, 4, 57, 44
10, 278639, Note_on_c, 4, 69, 0
10, 278639, Note_on_c, 4, 57, 0
10, 282240, Note_on_c, 4, 53, 44
10, 282240, Note_on_c, 4, 65, 44
10, 286319, Note_on_c, 4, 53, 0
10, 286319, Note_on_c, 4, 65, 0
10, 293760, Control_c, 4, 11, 64
10, 294240, Note_on_c, 4, 57, 76
10, 294240, Note_on_c, 4, 69, 76
10, 294550, Control_c, 4, 11, 67
10, 294699, Note_on_c, 4, 57, 0
10, 294699, Note_on_c, 4, 69, 0
10, 294720, Note_on_c, 4, 57, 76
10, 294720, Note_on_c, 4, 69, 76
10, 294860, Control_c, 4, 11, 69
10, 295119, Note_on_c, 4, 57, 0
10, 295119, Note_on_c, 4, 69, 0
10, 295170, Control_c, 4, 11, 72
10, 295200, Note_on_c, 4, 69, 76
10, 295200, Note_on_c, 4, 57, 76
10, 295480, Control_c, 4, 11, 75
10, 295599, Note_on_c, 4, 69, 0
10, 295599, Note_on_c, 4, 57, 0
10, 295680, Note_on_c, 4, 57, 76
10, 295680, Note_on_c, 4, 69, 76
10, 295790, Control_c, 4, 11, 77
10, 296079, Note_on_c, 4, 57, 0
10, 296079, Note_on_c, 4, 69, 0
10, 296100, Control_c, 4, 11, 80
10, 296410, Control_c, 4, 11, 82
10, 296720, Control_c, 4, 11, 85
10, 297030, Control_c, 4, 11, 88
10, 297340, Control_c, 4, 11, 90
10, 297650, Control_c, 4, 11, 93
10, 297960, Control_c, 4, 11, 96
10, 298080, Note_on_c, 4, 67, 76
10, 298270, Control_c, 4, 11, 98
10, 298479, Note_on_c, 4, 67, 0
10, 298560, Note_on_c, 4, 67, 76
10, 298580, Control_c, 4, 11, 101
10, 298890, Control_c, 4, 11, 103
10, 298959, Note_on_c, 4, 67, 0
10, 299040, Note_on_c, 4, 67, 76
10, 299200, Control_c, 4, 11, 106
10, 299439, Note_on_c, 4, 67, 0
10, 299510, Control_c, 4, 11, 109
10, 299520, Note_on_c, 4, 67, 76
10, 299820, Control_c, 4, 11, 111
10, 299919, Note_on_c, 4, 67, 0
10, 301370, Control_c, 4, 11, 127
10, 301920, Note_on_c, 4, 53, 76
10, 301920, Note_on_c, 4, 65, 76
10, 302319, Note_on_c, 4, 53, 0
10, 302319, Note_on_c, 4, 65, 0
10, 302400, Note_on_c, 4, 53, 76
10, 302400, Note_on_c, 4, 65, 76
10, 302799, Note_on_c, 4, 53, 0
10, 302799, Note_on_c, 4, 65, 0
10, 302880, Note_on_c, 4, 65, 76
10, 302880, Note_on_c, 4, 53, 76
10, 303279, Note_on_c, 4, 65, 0
10, 303279, Note_on_c, 4, 53, 0
10, 303360, Note_on_c, 4, 65, 76
10, 303360, Note_on_c, 4, 53, 76
10, 303759, Note_on_c, 4, 65, 0
10, 303759, Note_on_c, 4, 53, 0
10, 303840, Note_on_c, 4, 65, 76
10, 303840, Note_on_c, 4, 53, 76
10, 304239, Note_on_c, 4, 65, 0
10, 304239, Note_on_c, 4, 53, 0
10, 304320, Note_on_c, 4, 65, 76
10, 304320, Note_on_c, 4, 53, 76
10, 304779, Note_on_c, 4, 65, 0
10, 304779, Note_on_c, 4, 53, 0
10, 304800, Note_on_c, 4, 65, 76
10, 304800, Note_on_c, 4, 53, 76
10, 305259, Note_on_c, 4, 65, 0
10, 305259, Note_on_c, 4, 53, 0
10, 305280, Note_on_c, 4, 67, 76
10, 305739, Note_on_c, 4, 67, 0
10, 305760, Note_on_c, 4, 63, 76
10, 306219, Note_on_c, 4, 63, 0
10, 306240, Note_on_c, 4, 63, 76
10, 306699, Note_on_c, 4, 63, 0
10, 306720, Note_on_c, 4, 63, 76
10, 307179, Note_on_c, 4, 63, 0
10, 307200, Note_on_c, 4, 63, 76
10, 307659, Note_on_c, 4, 63, 0
10, 307680, Note_on_c, 4, 63, 76
10, 308139, Note_on_c, 4, 63, 0
10, 308160, Note_on_c, 4, 63, 76
10, 308619, Note_on_c, 4, 63, 0
10, 308640, Note_on_c, 4, 63, 76
10, 309099, Note_on_c, 4, 63, 0
10, 309120, Note_on_c, 4, 68, 76
10, 309579, Note_on_c, 4, 68, 0
10, 309600, Note_on_c, 4, 65, 76
10, 309600, Note_on_c, 4, 53, 76
10, 309744, Note_on_c, 4, 65, 0
10, 309744, Note_on_c, 4, 53, 0
10, 309760, Note_on_c, 4, 65, 76
10, 309760, Note_on_c, 4, 53, 76
10, 309904, Note_on_c, 4, 65, 0
10, 309904, Note_on_c, 4, 53, 0
10, 309920, Note_on_c, 4, 53, 76
10, 309920, Note_on_c, 4, 65, 76
10, 310064, Note_on_c, 4, 53, 0
10, 310064, Note_on_c, 4, 65, 0
10, 310080, Note_on_c, 4, 65, 76
10, 310080, Note_on_c, 4, 53, 76
10, 310319, Note_on_c, 4, 65, 0
10, 310319, Note_on_c, 4, 53, 0
10, 310560, Note_on_c, 4, 65, 76
10, 310560, Note_on_c, 4, 53, 76
10, 310704, Note_on_c, 4, 65, 0
10, 310704, Note_on_c, 4, 53, 0
10, 310720, Note_on_c, 4, 53, 76
10, 310720, Note_on_c, 4, 65, 76
10, 310864, Note_on_c, 4, 53, 0
10, 310864, Note_on_c, 4, 65, 0
10, 310880, Note_on_c, 4, 53, 76
10, 310880, Note_on_c, 4, 65, 76
10, 311024, Note_on_c, 4, 53, 0
10, 311024, Note_on_c, 4, 65, 0
10, 311040, Note_on_c, 4, 65, 76
10, 311040, Note_on_c, 4, 53, 76
10, 311279, Note_on_c, 4, 65, 0
10, 311279, Note_on_c, 4, 53, 0
10, 311520, Note_on_c, 4, 65, 76
10, 311520, Note_on_c, 4, 53, 76
10, 311664, Note_on_c, 4, 65, 0
10, 311664, Note_on_c, 4, 53, 0
10, 311680, Note_on_c, 4, 65, 76
10, 311680, Note_on_c, 4, 53, 76
10, 311824, Note_on_c, 4, 65, 0
10, 311824, Note_on_c, 4, 53, 0
10, 311840, Note_on_c, 4, 53, 76
10, 311840, Note_on_c, 4, 65, 76
10, 311984, Note_on_c, 4, 53, 0
10, 311984, Note_on_c, 4, 65, 0
10, 312000, Note_on_c, 4, 53, 76
10, 312000, Note_on_c, 4, 65, 76
10, 312239, Note_on_c, 4, 53, 0
10, 312239, Note_on_c, 4, 65, 0
10, 312480, Note_on_c, 4, 53, 76
10, 312480, Note_on_c, 4, 65, 76
10, 312624, Note_on_c, 4, 53, 0
10, 312624, Note_on_c, 4, 65, 0
10, 312640, Note_on_c, 4, 65, 76
10, 312640, Note_on_c, 4, 53, 76
10, 312784, Note_on_c, 4, 65, 0
10, 312784, Note_on_c, 4, 53, 0
10, 312800, Note_on_c, 4, 53, 76
10, 312800, Note_on_c, 4, 65, 76
10, 312944, Note_on_c, 4, 53, 0
10, 312944, Note_on_c, 4, 65, 0
10, 312960, Note_on_c, 4, 48, 76
10, 312960, Note_on_c, 4, 60, 76
10, 313199, Note_on_c, 4, 48, 0
10, 313199, Note_on_c, 4, 60, 0
10, 313440, Note_on_c, 4, 60, 76
10, 313440, Note_on_c, 4, 48, 76
10, 313584, Note_on_c, 4, 60, 0
10, 313584, Note_on_c, 4, 48, 0
10, 313600, Note_on_c, 4, 60, 76
10, 313600, Note_on_c, 4, 48, 76
10, 313744, Note_on_c, 4, 60, 0
10, 313744, Note_on_c, 4, 48, 0
10, 313760, Note_on_c, 4, 60, 76
10, 313760, Note_on_c, 4, 48, 76
10, 313904, Note_on_c, 4, 60, 0
10, 313904, Note_on_c, 4, 48, 0
10, 313920, Note_on_c, 4, 48, 76
10, 313920, Note_on_c, 4, 60, 76
10, 314159, Note_on_c, 4, 48, 0
10, 314159, Note_on_c, 4, 60, 0
10, 314400, Note_on_c, 4, 60, 76
10, 314400, Note_on_c, 4, 48, 76
10, 314544, Note_on_c, 4, 60, 0
10, 314544, Note_on_c, 4, 48, 0
10, 314560, Note_on_c, 4, 60, 76
10, 314560, Note_on_c, 4, 48, 76
10, 314704, Note_on_c, 4, 60, 0
10, 314704, Note_on_c, 4, 48, 0
10, 314720, Note_on_c, 4, 48, 76
10, 314720, Note_on_c, 4, 60, 76
10, 314864, Note_on_c, 4, 48, 0
10, 314864, Note_on_c, 4, 60, 0
10, 314880, Note_on_c, 4, 60, 76
10, 314880, Note_on_c, 4, 48, 76
10, 315119, Note_on_c, 4, 60, 0
10, 315119, Note_on_c, 4, 48, 0
10, 315360, Note_on_c, 4, 48, 76
10, 315360, Note_on_c, 4, 60, 76
10, 315504, Note_on_c, 4, 48, 0
10, 315504, Note_on_c, 4, 60, 0
10, 315520, Note_on_c, 4, 60, 76
10, 315520, Note_on_c, 4, 48, 76
10, 315664, Note_on_c, 4, 60, 0
10, 315664, Note_on_c, 4, 48, 0
10, 315680, Note_on_c, 4, 48, 76
10, 315680, Note_on_c, 4, 60, 76
10, 315824, Note_on_c, 4, 48, 0
10, 315824, Note_on_c, 4, 60, 0
10, 315840, Note_on_c, 4, 60, 76
10, 315840, Note_on_c, 4, 48, 76
10, 316079, Note_on_c, 4, 60, 0
10, 316079, Note_on_c, 4, 48, 0
10, 316320, Note_on_c, 4, 53, 76
10, 316320, Note_on_c, 4, 65, 76
10, 316464, Note_on_c, 4, 53, 0
10, 316464, Note_on_c, 4, 65, 0
10, 316480, Note_on_c, 4, 65, 76
10, 316480, Note_on_c, 4, 53, 76
10, 316624, Note_on_c, 4, 65, 0
10, 316624, Note_on_c, 4, 53, 0
10, 316640, Note_on_c, 4, 53, 76
10, 316640, Note_on_c, 4, 65, 76
10, 316784, Note_on_c, 4, 53, 0
10, 316784, Note_on_c, 4, 65, 0
10, 316800, Note_on_c, 4, 53, 76
10, 316800, Note_on_c, 4, 65, 76
10, 317259, Note_on_c, 4, 53, 0
10, 317259, Note_on_c, 4, 65, 0
10, 317280, Note_on_c, 4, 70, 76
10, 317739, Note_on_c, 4, 70, 0
10, 317760, Note_on_c, 4, 70, 76
10, 318219, Note_on_c, 4, 70, 0
10, 318240, Note_on_c, 4, 70, 76
10, 318699, Note_on_c, 4, 70, 0
10, 318720, Note_on_c, 4, 70, 76
10, 319179, Note_on_c, 4, 70, 0
10, 319200, Note_on_c, 4, 70, 76
10, 319659, Note_on_c, 4, 70, 0
10, 319680, Note_on_c, 4, 70, 76
10, 319919, Note_on_c, 4, 70, 0
10, 321120, Note_on_c, 4, 57, 76
10, 321120, Note_on_c, 4, 69, 76
10, 321579, Note_on_c, 4, 57, 0
10, 321579, Note_on_c, 4, 69, 0
10, 321600, Note_on_c, 4, 69, 76
10, 321600, Note_on_c, 4, 57, 76
10, 322059, Note_on_c, 4, 69, 0
10, 322059, Note_on_c, 4, 57, 0
10, 322080, Note_on_c, 4, 69, 76
10, 322080, Note_on_c, 4, 57, 76
10, 322539, Note_on_c, 4, 69, 0
10, 322539, Note_on_c, 4, 57, 0
10, 322560, Note_on_c, 4, 57, 76
10, 322560, Note_on_c, 4, 69, 76
10, 322799, Note_on_c, 4, 57, 0
10, 322799, Note_on_c, 4, 69, 0
10, 323040, Note_on_c, 4, 53, 76
10, 323040, Note_on_c, 4, 65, 76
10, 323279, Note_on_c, 4, 53, 0
10, 323279, Note_on_c, 4, 65, 0
10, 323520, Note_on_c, 4, 67, 76
10, 323759, Note_on_c, 4, 67, 0
10, 324000, Note_on_c, 4, 67, 76
10, 324239, Note_on_c, 4, 67, 0
10, 324480, Note_on_c, 4, 67, 76
10, 324699, Note_on_c, 4, 67, 0
10, 324720, Note_on_c, 4, 60, 76
10, 324720, Note_on_c, 4, 48, 76
10, 324939, Note_on_c, 4, 60, 0
10, 324939, Note_on_c, 4, 48, 0
10, 324960, Note_on_c, 4, 48, 76
10, 324960, Note_on_c, 4, 60, 76
10, 325179, Note_on_c, 4, 48, 0
10, 325179, Note_on_c, 4, 60, 0
10, 325200, Note_on_c, 4, 60, 76
10, 325200, Note_on_c, 4, 48, 76
10, 325419, Note_on_c, 4, 60, 0
10, 325419, Note_on_c, 4, 48, 0
10, 325440, Note_on_c, 4, 60, 76
10, 325440, Note_on_c, 4, 48, 76
10, 325659, Note_on_c, 4, 60, 0
10, 325659, Note_on_c, 4, 48, 0
10, 325680, Note_on_c, 4, 53, 76
10, 325680, Note_on_c, 4, 65, 76
10, 325899, Note_on_c, 4, 53, 0
10, 325899, Note_on_c, 4, 65, 0
10, 325920, Note_on_c, 4, 53, 76
10, 325920, Note_on_c, 4, 65, 76
10, 326139, Note_on_c, 4, 53, 0
10, 326139, Note_on_c, 4, 65, 0
10, 326160, Note_on_c, 4, 65, 76
10, 326160, Note_on_c, 4, 53, 76
10, 326379, Note_on_c, 4, 65, 0
10, 326379, Note_on_c, 4, 53, 0
10, 326400, Note_on_c, 4, 53, 76
10, 326400, Note_on_c, 4, 65, 76
10, 326639, Note_on_c, 4, 53, 0
10, 326639, Note_on_c, 4, 65, 0
10, 326880, Note_on_c, 4, 67, 76
10, 327119, Note_on_c, 4, 67, 0
10, 327840, Note_on_c, 4, 57, 76
10, 327840, Note_on_c, 4, 69, 76
10, 328059, Note_on_c, 4, 57, 0
10, 328059, Note_on_c, 4, 69, 0
10, 328080, Note_on_c, 4, 69, 76
10, 328080, Note_on_c, 4, 57, 76
10, 328299, Note_on_c, 4, 69, 0
10, 328299, Note_on_c, 4, 57, 0
10, 328320, Note_on_c, 4, 57, 76
10, 328320, Note_on_c, 4, 69, 76
10, 328539, Note_on_c, 4, 57, 0
10, 328539, Note_on_c, 4, 69, 0
10, 328560, Note_on_c, 4, 69, 76
10, 328560, Note_on_c, 4, 57, 76
10, 328779, Note_on_c, 4, 69, 0
10, 328779, Note_on_c, 4, 57, 0
10, 328800, Note_on_c, 4, 57, 76
10, 328800, Note_on_c, 4, 69, 76
10, 329019, Note_on_c, 4, 57, 0
10, 329019, Note_on_c, 4, 69, 0
10, 329040, Note_on_c, 4, 69, 76
10, 329040, Note_on_c, 4, 57, 76
10, 329259, Note_on_c, 4, 69, 0
10, 329259, Note_on_c, 4, 57, 0
10, 329280, Note_on_c, 4, 57, 76
10, 329280, Note_on_c, 4, 69, 76
10, 329499, Note_on_c, 4, 57, 0
10, 329499, Note_on_c, 4, 69, 0
10, 329520, Note_on_c, 4, 57, 76
10, 329520, Note_on_c, 4, 69, 76
10, 329739, Note_on_c, 4, 57, 0
10, 329739, Note_on_c, 4, 69, 0
10, 329760, Note_on_c, 4, 57, 76
10, 329760, Note_on_c, 4, 69, 76
10, 329979, Note_on_c, 4, 57, 0
10, 329979, Note_on_c, 4, 69, 0
10, 330000, Note_on_c, 4, 69, 76
10, 330000, Note_on_c, 4, 57, 76
10, 330219, Note_on_c, 4, 69, 0
10, 330219, Note_on_c, 4, 57, 0
10, 330240, Note_on_c, 4, 69, 76
10, 330240, Note_on_c, 4, 57, 76
10, 330459, Note_on_c, 4, 69, 0
10, 330459, Note_on_c, 4, 57, 0
10, 330480, Note_on_c, 4, 69, 76
10, 330480, Note_on_c, 4, 57, 76
10, 330699, Note_on_c, 4, 69, 0
10, 330699, Note_on_c, 4, 57, 0
10, 330720, Note_on_c, 4, 57, 76
10, 330720, Note_on_c, 4, 69, 76
10, 330939, Note_on_c, 4, 57, 0
10, 330939, Note_on_c, 4, 69, 0
10, 330960, Note_on_c, 4, 57, 76
10, 330960, Note_on_c, 4, 69, 76
10, 331179, Note_on_c, 4, 57, 0
10, 331179, Note_on_c, 4, 69, 0
10, 331200, Note_on_c, 4, 69, 76
10, 331200, Note_on_c, 4, 57, 76
10, 331419, Note_on_c, 4, 69, 0
10, 331419, Note_on_c, 4, 57, 0
10, 331440, Note_on_c, 4, 69, 76
10, 331440, Note_on_c, 4, 57, 76
10, 331659, Note_on_c, 4, 69, 0
10, 331659, Note_on_c, 4, 57, 0
10, 331680, Note_on_c, 4, 57, 84
10, 331680, Note_on_c, 4, 69, 84
10, 335519, Note_on_c, 4, 57, 0
10, 335519, Note_on_c, 4, 69, 0
10, 341280, Note_on_c, 4, 65, 44
10, 341280, Note_on_c, 4, 53, 44
10, 345839, Note_on_c, 4, 65, 0
10, 345839, Note_on_c, 4, 53, 0
10, 348240, Note_on_c, 4, 48, 44
10, 348240, Note_on_c, 4, 60, 44
10, 349419, Note_on_c, 4, 48, 0
10, 349419, Note_on_c, 4, 60, 0
10, 349440, Note_on_c, 4, 67, 44
10, 350379, Note_on_c, 4, 67, 0
10, 350400, Note_on_c, 4, 60, 44
10, 350400, Note_on_c, 4, 48, 44
10, 352800, Control_c, 4, 11, 127
10, 352960, Control_c, 4, 11, 126
10, 353120, Control_c, 4, 11, 125
10, 353280, Control_c, 4, 11, 124
10, 353440, Control_c, 4, 11, 123
10, 353600, Control_c, 4, 11, 122
10, 353760, Control_c, 4, 11, 121
10, 353920, Control_c, 4, 11, 120
10, 354080, Control_c, 4, 11, 119
10, 354240, Control_c, 4, 11, 118
10, 354400, Control_c, 4, 11, 117
10, 354560, Control_c, 4, 11, 116
10, 354720, Control_c, 4, 11, 115
10, 354880, Control_c, 4, 11, 114
10, 355040, Control_c, 4, 11, 113
10, 355200, Control_c, 4, 11, 127
10, 357599, Note_on_c, 4, 60, 0
10, 357599, Note_on_c, 4, 48, 0
10, 375600, Note_on_c, 4, 53, 76
10, 375600, Note_on_c, 4, 65, 76
10, 375819, Note_on_c, 4, 53, 0
10, 375819, Note_on_c, 4, 65, 0
10, 375840, Note_on_c, 4, 53, 76
10, 375840, Note_on_c, 4, 65, 76
10, 376059, Note_on_c, 4, 53, 0
10, 376059, Note_on_c, 4, 65, 0
10, 376080, Note_on_c, 4, 65, 76
10, 376080, Note_on_c, 4, 53, 76
10, 376299, Note_on_c, 4, 65, 0
10, 376299, Note_on_c, 4, 53, 0
10, 376320, Note_on_c, 4, 53, 76
10, 376320, Note_on_c, 4, 65, 76
10, 376539, Note_on_c, 4, 53, 0
10, 376539, Note_on_c, 4, 65, 0
10, 376560, Note_on_c, 4, 65, 76
10, 376560, Note_on_c, 4, 53, 76
10, 376779, Note_on_c, 4, 65, 0
10, 376779, Note_on_c, 4, 53, 0
10, 376800, Note_on_c, 4, 53, 76
10, 376800, Note_on_c, 4, 65, 76
10, 377019, Note_on_c, 4, 53, 0
10, 377019, Note_on_c, 4, 65, 0
10, 377040, Note_on_c, 4, 65, 76
10, 377040, Note_on_c, 4, 53, 76
10, 377259, Note_on_c, 4, 65, 0
10, 377259, Note_on_c, 4, 53, 0
10, 377280, Note_on_c, 4, 65, 76
10, 377280, Note_on_c, 4, 53, 76
10, 377519, Note_on_c, 4, 65, 0
10, 377519, Note_on_c, 4, 53, 0
10, 377760, Note_on_c, 4, 65, 76
10, 377760, Note_on_c, 4, 53, 76
10, 377979, Note_on_c, 4, 65, 0
10, 377979, Note_on_c, 4, 53, 0
10, 378000, Note_on_c, 4, 65, 76
10, 378000, Note_on_c, 4, 53, 76
10, 378219, Note_on_c, 4, 65, 0
10, 378219, Note_on_c, 4, 53, 0
10, 378240, Note_on_c, 4, 53, 84
10, 378240, Note_on_c, 4, 65, 84
10, 378479, Note_on_c, 4, 53, 0
10, 378479, Note_on_c, 4, 65, 0
10, 378720, Note_on_c, 4, 65, 76
10, 378720, Note_on_c, 4, 53, 76
10, 378939, Note_on_c, 4, 65, 0
10, 378939, Note_on_c, 4, 53, 0
10, 378960, Note_on_c, 4, 53, 76
10, 378960, Note_on_c, 4, 65, 76
10, 379179, Note_on_c, 4, 53, 0
10, 379179, Note_on_c, 4, 65, 0
10, 379200, Note_on_c, 4, 53, 84
10, 379200, Note_on_c, 4, 65, 84
10, 379439, Note_on_c, 4, 53, 0
10, 379439, Note_on_c, 4, 65, 0
10, 379680, Note_on_c, 4, 53, 76
10, 379680, Note_on_c, 4, 65, 76
10, 379899, Note_on_c, 4, 53, 0
10, 379899, Note_on_c, 4, 65, 0
10, 379920, Note_on_c, 4, 53, 76
10, 379920, Note_on_c, 4, 65, 76
10, 380139, Note_on_c, 4, 53, 0
10, 380139, Note_on_c, 4, 65, 0
10, 380160, Note_on_c, 4, 65, 84
10, 380160, Note_on_c, 4, 53, 84
10, 380399, Note_on_c, 4, 65, 0
10, 380399, Note_on_c, 4, 53, 0
10, 380640, Note_on_c, 4, 65, 76
10, 380640, Note_on_c, 4, 53, 76
10, 380859, Note_on_c, 4, 65, 0
10, 380859, Note_on_c, 4, 53, 0
10, 380880, Note_on_c, 4, 53, 76
10, 380880, Note_on_c, 4, 65, 76
10, 381099, Note_on_c, 4, 53, 0
10, 381099, Note_on_c, 4, 65, 0
10, 381120, Note_on_c, 4, 65, 84
10, 381120, Note_on_c, 4, 53, 84
10, 381359, Note_on_c, 4, 65, 0
10, 381359, Note_on_c, 4, 53, 0
10, 381600, Note_on_c, 4, 53, 76
10, 381600, Note_on_c, 4, 65, 76
10, 381819, Note_on_c, 4, 53, 0
10, 381819, Note_on_c, 4, 65, 0
10, 381840, Note_on_c, 4, 65, 76
10, 381840, Note_on_c, 4, 53, 76
10, 382059, Note_on_c, 4, 65, 0
10, 382059, Note_on_c, 4, 53, 0
10, 382080, Note_on_c, 4, 53, 76
10, 382080, Note_on_c, 4, 65, 76
10, 382319, Note_on_c, 4, 53, 0
10, 382319, Note_on_c, 4, 65, 0
10, 382560, Note_on_c, 4, 48, 76
10, 382560, Note_on_c, 4, 60, 76
10, 382799, Note_on_c, 4, 48, 0
10, 382799, Note_on_c, 4, 60, 0
10, 383040, Note_on_c, 4, 60, 76
10, 383040, Note_on_c, 4, 48, 76
10, 383279, Note_on_c, 4, 60, 0
10, 383279, Note_on_c, 4, 48, 0
10, 383520, Note_on_c, 4, 60, 76
10, 383520, Note_on_c, 4, 48, 76
10, 383759, Note_on_c, 4, 60, 0
10, 383759, Note_on_c, 4, 48, 0
10, 384000, Note_on_c, 4, 60, 76
10, 384000, Note_on_c, 4, 48, 76
10, 384239, Note_on_c, 4, 60, 0
10, 384239, Note_on_c, 4, 48, 0
10, 384480, Note_on_c, 4, 48, 76
10, 384480, Note_on_c, 4, 60, 76
10, 384719, Note_on_c, 4, 48, 0
10, 384719, Note_on_c, 4, 60, 0
10, 384960, Note_on_c, 4, 60, 76
10, 384960, Note_on_c, 4, 48, 76
10, 385199, Note_on_c, 4, 60, 0
10, 385199, Note_on_c, 4, 48, 0
10, 385440, Note_on_c, 4, 48, 76
10, 385440, Note_on_c, 4, 60, 76
10, 385679, Note_on_c, 4, 48, 0
10, 385679, Note_on_c, 4, 60, 0
10, 385920, Note_on_c, 4, 48, 76
10, 385920, Note_on_c, 4, 60, 76
10, 386159, Note_on_c, 4, 48, 0
10, 386159, Note_on_c, 4, 60, 0
10, 386400, Note_on_c, 4, 60, 76
10, 386400, Note_on_c, 4, 48, 76
10, 386639, Note_on_c, 4, 60, 0
10, 386639, Note_on_c, 4, 48, 0
10, 386880, Note_on_c, 4, 60, 76
10, 386880, Note_on_c, 4, 48, 76
10, 387119, Note_on_c, 4, 60, 0
10, 387119, Note_on_c, 4, 48, 0
10, 387360, Note_on_c, 4, 60, 76
10, 387360, Note_on_c, 4, 48, 76
10, 387599, Note_on_c, 4, 60, 0
10, 387599, Note_on_c, 4, 48, 0
10, 387840, Note_on_c, 4, 48, 84
10, 387840, Note_on_c, 4, 60, 84
10, 388059, Note_on_c, 4, 48, 0
10, 388059, Note_on_c, 4, 60, 0
10, 388080, Note_on_c, 4, 60, 76
10, 388080, Note_on_c, 4, 48, 76
10, 388299, Note_on_c, 4, 60, 0
10, 388299, Note_on_c, 4, 48, 0
10, 388320, Note_on_c, 4, 60, 84
10, 388320, Note_on_c, 4, 48, 84
10, 388539, Note_on_c, 4, 60, 0
10, 388539, Note_on_c, 4, 48, 0
10, 388560, Note_on_c, 4, 48, 76
10, 388560, Note_on_c, 4, 60, 76
10, 388779, Note_on_c, 4, 48, 0
10, 388779, Note_on_c, 4, 60, 0
10, 388800, Note_on_c, 4, 48, 84
10, 388800, Note_on_c, 4, 60, 84
10, 389019, Note_on_c, 4, 48, 0
10, 389019, Note_on_c, 4, 60, 0
10, 389040, Note_on_c, 4, 48, 76
10, 389040, Note_on_c, 4, 60, 76
10, 389259, Note_on_c, 4, 48, 0
10, 389259, Note_on_c, 4, 60, 0
10, 389280, Note_on_c, 4, 48, 84
10, 389280, Note_on_c, 4, 60, 84
10, 389499, Note_on_c, 4, 48, 0
10, 389499, Note_on_c, 4, 60, 0
10, 389520, Note_on_c, 4, 60, 76
10, 389520, Note_on_c, 4, 48, 76
10, 389739, Note_on_c, 4, 60, 0
10, 389739, Note_on_c, 4, 48, 0
10, 389760, Note_on_c, 4, 48, 84
10, 389760, Note_on_c, 4, 60, 84
10, 389979, Note_on_c, 4, 48, 0
10, 389979, Note_on_c, 4, 60, 0
10, 390000, Note_on_c, 4, 48, 76
10, 390000, Note_on_c, 4, 60, 76
10, 390219, Note_on_c, 4, 48, 0
10, 390219, Note_on_c, 4, 60, 0
10, 390240, Note_on_c, 4, 60, 84
10, 390240, Note_on_c, 4, 48, 84
10, 390459, Note_on_c, 4, 60, 0
10, 390459, Note_on_c, 4, 48, 0
10, 390480, Note_on_c, 4, 48, 76
10, 390480, Note_on_c, 4, 60, 76
10, 390699, Note_on_c, 4, 48, 0
10, 390699, Note_on_c, 4, 60, 0
10, 390720, Note_on_c, 4, 60, 84
10, 390720, Note_on_c, 4, 48, 84
10, 390939, Note_on_c, 4, 60, 0
10, 390939, Note_on_c, 4, 48, 0
10, 390960, Note_on_c, 4, 48, 76
10, 390960, Note_on_c, 4, 60, 76
10, 391179, Note_on_c, 4, 48, 0
10, 391179, Note_on_c, 4, 60, 0
10, 391200, Note_on_c, 4, 48, 84
10, 391200, Note_on_c, 4, 60, 84
10, 391419, Note_on_c, 4, 48, 0
10, 391419, Note_on_c, 4, 60, 0
10, 391440, Note_on_c, 4, 60, 76
10, 391440, Note_on_c, 4, 48, 76
10, 391659, Note_on_c, 4, 60, 0
10, 391659, Note_on_c, 4, 48, 0
10, 391680, Note_on_c, 4, 57, 76
10, 391680, Note_on_c, 4, 65, 76
10, 391760, Control_c, 4, 11, 80
10, 393579, Note_on_c, 4, 57, 0
10, 393579, Note_on_c, 4, 65, 0
10, 393600, Note_on_c, 4, 67, 76
10, 393600, Note_on_c, 4, 60, 76
10, 394059, Note_on_c, 4, 67, 0
10, 394059, Note_on_c, 4, 60, 0
10, 394080, Note_on_c, 4, 60, 76
10, 394080, Note_on_c, 4, 67, 76
10, 394539, Note_on_c, 4, 60, 0
10, 394539, Note_on_c, 4, 67, 0
10, 394560, Note_on_c, 4, 60, 76
10, 394560, Note_on_c, 4, 67, 76
10, 395019, Note_on_c, 4, 60, 0
10, 395019, Note_on_c, 4, 67, 0
10, 395040, Note_on_c, 4, 67, 76
10, 395040, Note_on_c, 4, 60, 76
10, 395499, Note_on_c, 4, 67, 0
10, 395499, Note_on_c, 4, 60, 0
10, 395520, Note_on_c, 4, 65, 76
10, 395520, Note_on_c, 4, 69, 76
10, 395979, Note_on_c, 4, 65, 0
10, 395979, Note_on_c, 4, 69, 0
10, 396000, Note_on_c, 4, 65, 76
10, 396000, Note_on_c, 4, 57, 76
10, 397419, Note_on_c, 4, 65, 0
10, 397419, Note_on_c, 4, 57, 0
10, 397440, Note_on_c, 4, 67, 76
10, 397440, Note_on_c, 4, 60, 76
10, 397899, Note_on_c, 4, 67, 0
10, 397899, Note_on_c, 4, 60, 0
10, 397920, Note_on_c, 4, 60, 76
10, 397920, Note_on_c, 4, 67, 76
10, 398379, Note_on_c, 4, 60, 0
10, 398379, Note_on_c, 4, 67, 0
10, 398400, Note_on_c, 4, 60, 76
10, 398400, Note_on_c, 4, 67, 76
10, 398859, Note_on_c, 4, 60, 0
10, 398859, Note_on_c, 4, 67, 0
10, 398880, Note_on_c, 4, 67, 76
10, 398880, Note_on_c, 4, 60, 76
10, 399339, Note_on_c, 4, 67, 0
10, 399339, Note_on_c, 4, 60, 0
10, 399358, Control_c, 4, 11, 127
10, 399360, Note_on_c, 4, 65, 76
10, 399360, Note_on_c, 4, 57, 76
10, 399599, Note_on_c, 4, 65, 0
10, 399599, Note_on_c, 4, 57, 0
10, 399840, Note_on_c, 4, 57, 76
10, 399840, Note_on_c, 4, 65, 76
10, 400079, Note_on_c, 4, 57, 0
10, 400079, Note_on_c, 4, 65, 0
10, 400800, Note_on_c, 4, 65, 76
10, 400800, Note_on_c, 4, 57, 76
10, 401039, Note_on_c, 4, 65, 0
10, 401039, Note_on_c, 4, 57, 0
10, 401760, Note_on_c, 4, 65, 76
10, 401760, Note_on_c, 4, 67, 76
10, 401999, Note_on_c, 4, 65, 0
10, 401999, Note_on_c, 4, 67, 0
10, 402720, Note_on_c, 4, 67, 76
10, 402720, Note_on_c, 4, 60, 76
10, 402959, Note_on_c, 4, 67, 0
10, 402959, Note_on_c, 4, 60, 0
10, 403200, Note_on_c, 4, 53, 52
10, 403200, Note_on_c, 4, 65, 52
10, 403679, Note_on_c, 4, 53, 0
10, 403679, Note_on_c, 4, 65, 0
10, 403680, Note_on_c, 4, 60, 52
10, 403680, Note_on_c, 4, 48, 52
10, 410859, Note_on_c, 4, 60, 0
10, 410859, Note_on_c, 4, 48, 0
10, 410880, Note_on_c, 4, 53, 76
10, 410880, Note_on_c, 4, 65, 76
10, 411119, Note_on_c, 4, 53, 0
10, 411119, Note_on_c, 4, 65, 0
10, 411360, Note_on_c, 4, 65, 76
10, 411360, Note_on_c, 4, 69, 76
10, 411599, Note_on_c, 4, 65, 0
10, 411599, Note_on_c, 4, 69, 0
10, 412320, Note_on_c, 4, 69, 76
10, 412320, Note_on_c, 4, 65, 76
10, 412559, Note_on_c, 4, 69, 0
10, 412559, Note_on_c, 4, 65, 0
10, 413280, Note_on_c, 4, 65, 76
10, 413280, Note_on_c, 4, 67, 76
10, 413519, Note_on_c, 4, 65, 0
10, 413519, Note_on_c, 4, 67, 0
10, 414240, Note_on_c, 4, 60, 76
10, 414240, Note_on_c, 4, 67, 76
10, 414479, Note_on_c, 4, 60, 0
10, 414479, Note_on_c, 4, 67, 0
10, 414720, Note_on_c, 4, 63, 84
10, 418539, Note_on_c, 4, 63, 0
10, 418560, Note_on_c, 4, 64, 84
10, 418799, Note_on_c, 4, 64, 0
10, 419040, Note_on_c, 4, 67, 84
10, 419279, Note_on_c, 4, 67, 0
10, 419520, Note_on_c, 4, 60, 84
10, 419520, Note_on_c, 4, 67, 84
10, 419759, Note_on_c, 4, 60, 0
10, 419759, Note_on_c, 4, 67, 0
10, 420000, Note_on_c, 4, 67, 84
10, 420000, Note_on_c, 4, 60, 84
10, 420239, Note_on_c, 4, 67, 0
10, 420239, Note_on_c, 4, 60, 0
10, 420960, Note_on_c, 4, 65, 48
10, 420960, Note_on_c, 4, 69, 48
10, 421104, Note_on_c, 4, 65, 0
10, 421104, Note_on_c, 4, 69, 0
10, 421120, Note_on_c, 4, 69, 48
10, 421120, Note_on_c, 4, 65, 48
10, 421264, Note_on_c, 4, 69, 0
10, 421264, Note_on_c, 4, 65, 0
10, 421280, Note_on_c, 4, 65, 48
10, 421280, Note_on_c, 4, 69, 48
10, 421424, Note_on_c, 4, 65, 0
10, 421424, Note_on_c, 4, 69, 0
10, 421440, Note_on_c, 4, 65, 48
10, 421440, Note_on_c, 4, 69, 48
10, 421599, Note_on_c, 4, 65, 0
10, 421599, Note_on_c, 4, 69, 0
10, 421600, Note_on_c, 4, 70, 48
10, 421600, Note_on_c, 4, 67, 48
10, 421744, Note_on_c, 4, 70, 0
10, 421744, Note_on_c, 4, 67, 0
10, 421760, Note_on_c, 4, 60, 48
10, 421760, Note_on_c, 4, 67, 48
10, 421879, Note_on_c, 4, 60, 0
10, 421879, Note_on_c, 4, 67, 0
10, 422880, Note_on_c, 4, 67, 48
10, 422880, Note_on_c, 4, 70, 48
10, 423024, Note_on_c, 4, 67, 0
10, 423024, Note_on_c, 4, 70, 0
10, 423040, Note_on_c, 4, 70, 48
10, 423040, Note_on_c, 4, 67, 48
10, 423184, Note_on_c, 4, 70, 0
10, 423184, Note_on_c, 4, 67, 0
10, 423200, Note_on_c, 4, 70, 48
10, 423200, Note_on_c, 4, 67, 48
10, 423344, Note_on_c, 4, 70, 0
10, 423344, Note_on_c, 4, 67, 0
10, 423360, Note_on_c, 4, 67, 48
10, 423360, Note_on_c, 4, 70, 48
10, 423519, Note_on_c, 4, 67, 0
10, 423519, Note_on_c, 4, 70, 0
10, 423520, Note_on_c, 4, 72, 48
10, 423520, Note_on_c, 4, 69, 48
10, 423664, Note_on_c, 4, 72, 0
10, 423664, Note_on_c, 4, 69, 0
10, 423680, Note_on_c, 4, 65, 48
10, 423680, Note_on_c, 4, 69, 48
10, 423799, Note_on_c, 4, 65, 0
10, 423799, Note_on_c, 4, 69, 0
10, 424800, Note_on_c, 4, 60, 76
10, 424800, Note_on_c, 4, 48, 76
10, 425259, Note_on_c, 4, 60, 0
10, 425259, Note_on_c, 4, 48, 0
10, 425280, Note_on_c, 4, 48, 76
10, 425280, Note_on_c, 4, 60, 76
10, 425739, Note_on_c, 4, 48, 0
10, 425739, Note_on_c, 4, 60, 0
10, 425760, Note_on_c, 4, 60, 76
10, 425760, Note_on_c, 4, 48, 76
10, 426219, Note_on_c, 4, 60, 0
10, 426219, Note_on_c, 4, 48, 0
10, 426240, Note_on_c, 4, 48, 76
10, 426240, Note_on_c, 4, 60, 76
10, 426699, Note_on_c, 4, 48, 0
10, 426699, Note_on_c, 4, 60, 0
10, 426720, Note_on_c, 4, 48, 76
10, 426720, Note_on_c, 4, 60, 76
10, 427179, Note_on_c, 4, 48, 0
10, 427179, Note_on_c, 4, 60, 0
10, 427200, Note_on_c, 4, 60, 76
10, 427200, Note_on_c, 4, 48, 76
10, 427659, Note_on_c, 4, 60, 0
10, 427659, Note_on_c, 4, 48, 0
10, 427680, Note_on_c, 4, 60, 76
10, 427680, Note_on_c, 4, 48, 76
10, 428139, Note_on_c, 4, 60, 0
10, 428139, Note_on_c, 4, 48, 0
10, 428160, Note_on_c, 4, 60, 76
10, 428160, Note_on_c, 4, 48, 76
10, 428619, Note_on_c, 4, 60, 0
10, 428619, Note_on_c, 4, 48, 0
10, 428640, Note_on_c, 4, 48, 76
10, 428640, Note_on_c, 4, 60, 76
10, 429099, Note_on_c, 4, 48, 0
10, 429099, Note_on_c, 4, 60, 0
10, 429120, Note_on_c, 4, 48, 76
10, 429120, Note_on_c, 4, 60, 76
10, 429579, Note_on_c, 4, 48, 0
10, 429579, Note_on_c, 4, 60, 0
10, 429600, Note_on_c, 4, 60, 76
10, 429600, Note_on_c, 4, 48, 76
10, 430059, Note_on_c, 4, 60, 0
10, 430059, Note_on_c, 4, 48, 0
10, 430080, Note_on_c, 4, 48, 76
10, 430080, Note_on_c, 4, 60, 76
10, 430539, Note_on_c, 4, 48, 0
10, 430539, Note_on_c, 4, 60, 0
10, 430560, Note_on_c, 4, 48, 76
10, 430560, Note_on_c, 4, 60, 76
10, 431019, Note_on_c, 4, 48, 0
10, 431019, Note_on_c, 4, 60, 0
10, 431040, Note_on_c, 4, 60, 76
10, 431040, Note_on_c, 4, 48, 76
10, 431499, Note_on_c, 4, 60, 0
10, 431499, Note_on_c, 4, 48, 0
10, 431520, Note_on_c, 4, 48, 76
10, 431520, Note_on_c, 4, 60, 76
10, 431979, Note_on_c, 4, 48, 0
10, 431979, Note_on_c, 4, 60, 0
10, 432000, Note_on_c, 4, 65, 84
10, 432000, Note_on_c, 4, 57, 84
10, 432080, Control_c, 4, 11, 112
10, 432939, Note_on_c, 4, 65, 0
10, 432939, Note_on_c, 4, 57, 0
10, 432958, Control_c, 4, 11, 127
10, 432960, Note_on_c, 4, 57, 84
10, 432960, Note_on_c, 4, 53, 84
10, 433040, Control_c, 4, 11, 112
10, 433899, Note_on_c, 4, 57, 0
10, 433899, Note_on_c, 4, 53, 0
10, 433918, Control_c, 4, 11, 127
10, 433920, Note_on_c, 4, 65, 84
10, 433920, Note_on_c, 4, 69, 84
10, 434000, Control_c, 4, 11, 112
10, 434859, Note_on_c, 4, 65, 0
10, 434859, Note_on_c, 4, 69, 0
10, 434878, Control_c, 4, 11, 127
10, 434880, Note_on_c, 4, 65, 84
10, 434880, Note_on_c, 4, 57, 84
10, 434960, Control_c, 4, 11, 112
10, 435819, Note_on_c, 4, 65, 0
10, 435819, Note_on_c, 4, 57, 0
10, 435838, Control_c, 4, 11, 127
10, 435840, Note_on_c, 4, 65, 84
10, 435840, Note_on_c, 4, 69, 84
10, 435920, Control_c, 4, 11, 112
10, 436299, Note_on_c, 4, 65, 0
10, 436299, Note_on_c, 4, 69, 0
10, 436318, Control_c, 4, 11, 127
10, 436320, Note_on_c, 4, 65, 84
10, 436320, Note_on_c, 4, 57, 84
10, 436400, Control_c, 4, 11, 112
10, 436779, Note_on_c, 4, 65, 0
10, 436779, Note_on_c, 4, 57, 0
10, 436798, Control_c, 4, 11, 127
10, 436800, Note_on_c, 4, 65, 84
10, 436800, Note_on_c, 4, 69, 84
10, 436880, Control_c, 4, 11, 112
10, 437259, Note_on_c, 4, 65, 0
10, 437259, Note_on_c, 4, 69, 0
10, 437278, Control_c, 4, 11, 127
10, 437280, Note_on_c, 4, 57, 84
10, 437280, Note_on_c, 4, 65, 84
10, 437360, Control_c, 4, 11, 112
10, 437739, Note_on_c, 4, 57, 0
10, 437739, Note_on_c, 4, 65, 0
10, 437758, Control_c, 4, 11, 127
10, 437760, Note_on_c, 4, 69, 84
10, 437760, Note_on_c, 4, 65, 84
10, 437840, Control_c, 4, 11, 112
10, 438219, Note_on_c, 4, 69, 0
10, 438219, Note_on_c, 4, 65, 0
10, 438238, Control_c, 4, 11, 127
10, 438240, Note_on_c, 4, 65, 84
10, 438240, Note_on_c, 4, 57, 84
10, 438320, Control_c, 4, 11, 112
10, 438699, Note_on_c, 4, 65, 0
10, 438699, Note_on_c, 4, 57, 0
10, 438718, Control_c, 4, 11, 127
10, 438720, Note_on_c, 4, 65, 84
10, 438720, Note_on_c, 4, 69, 84
10, 438800, Control_c, 4, 11, 112
10, 439179, Note_on_c, 4, 65, 0
10, 439179, Note_on_c, 4, 69, 0
10, 439198, Control_c, 4, 11, 127
10, 439200, Note_on_c, 4, 65, 84
10, 439200, Note_on_c, 4, 57, 84
10, 439280, Control_c, 4, 11, 112
10, 439659, Note_on_c, 4, 65, 0
10, 439659, Note_on_c, 4, 57, 0
10, 439678, Control_c, 4, 11, 127
10, 439680, Note_on_c, 4, 65, 76
10, 439680, Note_on_c, 4, 69, 76
10, 439919, Note_on_c, 4, 65, 0
10, 439919, Note_on_c, 4, 69, 0
10, 442560, Note_on_c, 4, 53, 52
10, 442560, Note_on_c, 4, 57, 52
10, 443519, Note_on_c, 4, 53, 0
10, 443519, Note_on_c, 4, 57, 0
10, 444480, Note_on_c, 4, 57, 52
10, 444480, Note_on_c, 4, 53, 52
10, 445439, Note_on_c, 4, 57, 0
10, 445439, Note_on_c, 4, 53, 0
10, 449760, Note_on_c, 4, 57, 52
10, 449760, Note_on_c, 4, 53, 52
10, 450219, Note_on_c, 4, 57, 0
10, 450219, Note_on_c, 4, 53, 0
10, 450240, Note_on_c, 4, 69, 52
10, 450240, Note_on_c, 4, 65, 52
10, 450719, Note_on_c, 4, 69, 0
10, 450719, Note_on_c, 4, 65, 0
10, 453120, Note_on_c, 4, 60, 44
10, 453120, Note_on_c, 4, 48, 44
10, 455279, Note_on_c, 4, 60, 0
10, 455279, Note_on_c, 4, 48, 0
10, 456720, Control_c, 4, 11, 64
10, 456960, Control_c, 4, 11, 64
10, 456960, Note_on_c, 4, 60, 76
10, 456960, Note_on_c, 4, 48, 76
10, 457120, Control_c, 4, 11, 67
10, 457280, Control_c, 4, 11, 69
10, 457440, Control_c, 4, 11, 72
10, 457600, Control_c, 4, 11, 75
10, 457760, Control_c, 4, 11, 77
10, 457920, Control_c, 4, 11, 80
10, 458080, Control_c, 4, 11, 82
10, 458240, Control_c, 4, 11, 85
10, 458400, Control_c, 4, 11, 88
10, 458560, Control_c, 4, 11, 90
10, 458720, Control_c, 4, 11, 93
10, 458880, Control_c, 4, 11, 96
10, 459040, Control_c, 4, 11, 98
10, 459200, Control_c, 4, 11, 101
10, 459360, Control_c, 4, 11, 103
10, 459520, Control_c, 4, 11, 106
10, 459680, Control_c, 4, 11, 109
10, 459840, Control_c, 4, 11, 111
10, 460000, Control_c, 4, 11, 114
10, 460160, Control_c, 4, 11, 117
10, 460320, Control_c, 4, 11, 119
10, 460480, Control_c, 4, 11, 122
10, 460640, Control_c, 4, 11, 124
10, 460779, Note_on_c, 4, 60, 0
10, 460779, Note_on_c, 4, 48, 0
10, 460800, Control_c, 4, 11, 127
10, 460800, Note_on_c, 4, 57, 76
10, 460800, Note_on_c, 4, 65, 76
10, 462699, Note_on_c, 4, 57, 0
10, 462699, Note_on_c, 4, 65, 0
10, 462720, Note_on_c, 4, 57, 76
10, 462720, Note_on_c, 4, 65, 76
10, 462959, Note_on_c, 4, 57, 0
10, 462959, Note_on_c, 4, 65, 0
10, 463680, Note_on_c, 4, 60, 76
10, 463680, Note_on_c, 4, 67, 76
10, 463919, Note_on_c, 4, 60, 0
10, 463919, Note_on_c, 4, 67, 0
10, 464640, Note_on_c, 4, 57, 76
10, 464640, Note_on_c, 4, 65, 76
10, 464879, Note_on_c, 4, 57, 0
10, 464879, Note_on_c, 4, 65, 0
10, 465600, Note_on_c, 4, 60, 76
10, 465600, Note_on_c, 4, 67, 76
10, 465839, Note_on_c, 4, 60, 0
10, 465839, Note_on_c, 4, 67, 0
10, 466560, Note_on_c, 4, 65, 76
10, 466560, Note_on_c, 4, 57, 76
10, 466799, Note_on_c, 4, 65, 0
10, 466799, Note_on_c, 4, 57, 0
10, 467040, Note_on_c, 4, 67, 76
10, 467040, Note_on_c, 4, 60, 76
10, 467279, Note_on_c, 4, 67, 0
10, 467279, Note_on_c, 4, 60, 0
10, 467520, Note_on_c, 4, 65, 76
10, 467520, Note_on_c, 4, 57, 76
10, 467759, Note_on_c, 4, 65, 0
10, 467759, Note_on_c, 4, 57, 0
10, 468000, Note_on_c, 4, 67, 76
10, 468000, Note_on_c, 4, 60, 76
10, 468239, Note_on_c, 4, 67, 0
10, 468239, Note_on_c, 4, 60, 0
10, 468480, Note_on_c, 4, 65, 76
10, 468480, Note_on_c, 4, 57, 76
10, 468719, Note_on_c, 4, 65, 0
10, 468719, Note_on_c, 4, 57, 0
10, 468960, Note_on_c, 4, 67, 76
10, 468960, Note_on_c, 4, 60, 76
10, 469199, Note_on_c, 4, 67, 0
10, 469199, Note_on_c, 4, 60, 0
10, 469440, Note_on_c, 4, 65, 76
10, 469440, Note_on_c, 4, 57, 76
10, 469679, Note_on_c, 4, 65, 0
10, 469679, Note_on_c, 4, 57, 0
10, 469920, Note_on_c, 4, 67, 76
10, 469920, Note_on_c, 4, 60, 76
10, 470159, Note_on_c, 4, 67, 0
10, 470159, Note_on_c, 4, 60, 0
10, 470400, Note_on_c, 4, 57, 84
10, 470400, Note_on_c, 4, 69, 84
10, 472299, Note_on_c, 4, 57, 0
10, 472299, Note_on_c, 4, 69, 0
10, 472320, Note_on_c, 4, 69, 84
10, 472320, Note_on_c, 4, 57, 84
10, 472559, Note_on_c, 4, 69, 0
10, 472559, Note_on_c, 4, 57, 0
10, 473280, Note_on_c, 4, 69, 84
10, 473280, Note_on_c, 4, 57, 84
10, 473519, Note_on_c, 4, 69, 0
10, 473519, Note_on_c, 4, 57, 0
10, 474240, Note_on_c, 4, 69, 84
10, 474240, Note_on_c, 4, 57, 84
10, 474479, Note_on_c, 4, 69, 0
10, 474479, Note_on_c, 4, 57, 0
10, 475200, Note_on_c, 4, 69, 84
10, 475200, Note_on_c, 4, 57, 84
10, 475439, Note_on_c, 4, 69, 0
10, 475439, Note_on_c, 4, 57, 0
10, 476160, Note_on_c, 4, 57, 84
10, 476160, Note_on_c, 4, 69, 84
10, 476399, Note_on_c, 4, 57, 0
10, 476399, Note_on_c, 4, 69, 0
10, 476640, Note_on_c, 4, 69, 84
10, 476640, Note_on_c, 4, 57, 84
10, 476879, Note_on_c, 4, 69, 0
10, 476879, Note_on_c, 4, 57, 0
10, 477120, Note_on_c, 4, 69, 84
10, 477120, Note_on_c, 4, 57, 84
10, 477359, Note_on_c, 4, 69, 0
10, 477359, Note_on_c, 4, 57, 0
10, 477600, Note_on_c, 4, 57, 84
10, 477600, Note_on_c, 4, 69, 84
10, 477839, Note_on_c, 4, 57, 0
10, 477839, Note_on_c, 4, 69, 0
10, 478080, Note_on_c, 4, 57, 84
10, 478080, Note_on_c, 4, 69, 84
10, 478319, Note_on_c, 4, 57, 0
10, 478319, Note_on_c, 4, 69, 0
10, 478560, Note_on_c, 4, 48, 84
10, 478560, Note_on_c, 4, 60, 84
10, 478799, Note_on_c, 4, 48, 0
10, 478799, Note_on_c, 4, 60, 0
10, 479040, Note_on_c, 4, 53, 84
10, 479279, Note_on_c, 4, 53, 0
10, 479520, Note_on_c, 4, 57, 84
10, 479759, Note_on_c, 4, 57, 0
10, 480000, Note_on_c, 4, 60, 84
10, 480239, Note_on_c, 4, 60, 0
10, 480960, Note_on_c, 4, 65, 84
10, 481199, Note_on_c, 4, 65, 0
10, 481920, Note_on_c, 4, 53, 84
10, 482159, Note_on_c, 4, 53, 0
10, 482159, End_track
11, 0, Start_track
11, 0, Title_t, "Trumpet in F"
11, 0, MIDI_port, 0
11, 0, Program_c, 5, 56
11, 0, Control_c, 5, 7, 112
11, 0, Control_c, 5, 10, 60
11, 0, Control_c, 5, 11, 127
11, 17760, Note_on_c, 5, 77, 84
11, 17760, Note_on_c, 5, 65, 84
11, 17904, Note_on_c, 5, 77, 0
11, 17904, Note_on_c, 5, 65, 0
11, 17920, Note_on_c, 5, 77, 84
11, 17920, Note_on_c, 5, 65, 84
11, 18064, Note_on_c, 5, 77, 0
11, 18064, Note_on_c, 5, 65, 0
11, 18080, Note_on_c, 5, 65, 84
11, 18080, Note_on_c, 5, 77, 84
11, 18224, Note_on_c, 5, 65, 0
11, 18224, Note_on_c, 5, 77, 0
11, 18240, Note_on_c, 5, 77, 84
11, 18240, Note_on_c, 5, 65, 84
11, 18399, Note_on_c, 5, 77, 0
11, 18399, Note_on_c, 5, 65, 0
11, 18480, Note_on_c, 5, 65, 84
11, 18480, Note_on_c, 5, 77, 84
11, 18639, Note_on_c, 5, 65, 0
11, 18639, Note_on_c, 5, 77, 0
11, 18720, Note_on_c, 5, 65, 84
11, 18720, Note_on_c, 5, 77, 84
11, 18879, Note_on_c, 5, 65, 0
11, 18879, Note_on_c, 5, 77, 0
11, 18960, Note_on_c, 5, 65, 84
11, 18960, Note_on_c, 5, 77, 84
11, 19119, Note_on_c, 5, 65, 0
11, 19119, Note_on_c, 5, 77, 0
11, 19200, Note_on_c, 5, 65, 84
11, 19200, Note_on_c, 5, 77, 84
11, 19359, Note_on_c, 5, 65, 0
11, 19359, Note_on_c, 5, 77, 0
11, 19440, Note_on_c, 5, 77, 84
11, 19440, Note_on_c, 5, 65, 84
11, 19599, Note_on_c, 5, 77, 0
11, 19599, Note_on_c, 5, 65, 0
11, 19680, Note_on_c, 5, 65, 84
11, 19680, Note_on_c, 5, 77, 84
11, 19824, Note_on_c, 5, 65, 0
11, 19824, Note_on_c, 5, 77, 0
11, 19840, Note_on_c, 5, 65, 84
11, 19840, Note_on_c, 5, 77, 84
11, 19984, Note_on_c, 5, 65, 0
11, 19984, Note_on_c, 5, 77, 0
11, 20000, Note_on_c, 5, 77, 84
11, 20000, Note_on_c, 5, 65, 84
11, 20144, Note_on_c, 5, 77, 0
11, 20144, Note_on_c, 5, 65, 0
11, 20160, Note_on_c, 5, 65, 84
11, 20160, Note_on_c, 5, 77, 84
11, 20319, Note_on_c, 5, 65, 0
11, 20319, Note_on_c, 5, 77, 0
11, 20400, Note_on_c, 5, 77, 84
11, 20400, Note_on_c, 5, 65, 84
11, 20559, Note_on_c, 5, 77, 0
11, 20559, Note_on_c, 5, 65, 0
11, 20640, Note_on_c, 5, 77, 84
11, 20640, Note_on_c, 5, 65, 84
11, 20799, Note_on_c, 5, 77, 0
11, 20799, Note_on_c, 5, 65, 0
11, 20880, Note_on_c, 5, 65, 84
11, 20880, Note_on_c, 5, 77, 84
11, 21039, Note_on_c, 5, 65, 0
11, 21039, Note_on_c, 5, 77, 0
11, 21120, Note_on_c, 5, 65, 84
11, 21120, Note_on_c, 5, 77, 84
11, 21279, Note_on_c, 5, 65, 0
11, 21279, Note_on_c, 5, 77, 0
11, 21360, Note_on_c, 5, 77, 84
11, 21360, Note_on_c, 5, 65, 84
11, 21519, Note_on_c, 5, 77, 0
11, 21519, Note_on_c, 5, 65, 0
11, 21600, Note_on_c, 5, 77, 84
11, 21600, Note_on_c, 5, 65, 84
11, 21839, Note_on_c, 5, 77, 0
11, 21839, Note_on_c, 5, 65, 0
11, 21960, Note_on_c, 5, 65, 84
11, 21960, Note_on_c, 5, 77, 84
11, 22059, Note_on_c, 5, 65, 0
11, 22059, Note_on_c, 5, 77, 0
11, 22080, Note_on_c, 5, 77, 84
11, 22080, Note_on_c, 5, 65, 84
11, 22319, Note_on_c, 5, 77, 0
11, 22319, Note_on_c, 5, 65, 0
11, 23040, Note_on_c, 5, 79, 84
11, 23199, Note_on_c, 5, 79, 0
11, 23280, Note_on_c, 5, 79, 84
11, 23439, Note_on_c, 5, 79, 0
11, 23520, Note_on_c, 5, 79, 84
11, 23679, Note_on_c, 5, 79, 0
11, 23760, Note_on_c, 5, 79, 84
11, 23919, Note_on_c, 5, 79, 0
11, 24000, Note_on_c, 5, 79, 84
11, 24239, Note_on_c, 5, 79, 0
11, 24720, Note_on_c, 5, 69, 84
11, 24720, Note_on_c, 5, 81, 84
11, 24879, Note_on_c, 5, 69, 0
11, 24879, Note_on_c, 5, 81, 0
11, 24960, Note_on_c, 5, 65, 84
11, 24960, Note_on_c, 5, 77, 84
11, 25119, Note_on_c, 5, 65, 0
11, 25119, Note_on_c, 5, 77, 0
11, 25200, Note_on_c, 5, 72, 84
11, 25200, Note_on_c, 5, 60, 84
11, 25359, Note_on_c, 5, 72, 0
11, 25359, Note_on_c, 5, 60, 0
11, 25440, Note_on_c, 5, 72, 84
11, 25440, Note_on_c, 5, 60, 84
11, 25599, Note_on_c, 5, 72, 0
11, 25599, Note_on_c, 5, 60, 0
11, 25680, Note_on_c, 5, 65, 84
11, 25680, Note_on_c, 5, 77, 84
11, 25839, Note_on_c, 5, 65, 0
11, 25839, Note_on_c, 5, 77, 0
11, 25920, Note_on_c, 5, 77, 84
11, 25920, Note_on_c, 5, 65, 84
11, 26079, Note_on_c, 5, 77, 0
11, 26079, Note_on_c, 5, 65, 0
11, 26160, Note_on_c, 5, 65, 84
11, 26160, Note_on_c, 5, 77, 84
11, 26319, Note_on_c, 5, 65, 0
11, 26319, Note_on_c, 5, 77, 0
11, 26400, Note_on_c, 5, 72, 84
11, 26400, Note_on_c, 5, 60, 84
11, 26559, Note_on_c, 5, 72, 0
11, 26559, Note_on_c, 5, 60, 0
11, 26640, Note_on_c, 5, 72, 84
11, 26640, Note_on_c, 5, 60, 84
11, 26799, Note_on_c, 5, 72, 0
11, 26799, Note_on_c, 5, 60, 0
11, 26880, Note_on_c, 5, 65, 84
11, 27119, Note_on_c, 5, 65, 0
11, 27840, Note_on_c, 5, 65, 84
11, 28079, Note_on_c, 5, 65, 0
11, 28800, Note_on_c, 5, 72, 84
11, 28800, Note_on_c, 5, 60, 84
11, 29039, Note_on_c, 5, 72, 0
11, 29039, Note_on_c, 5, 60, 0
11, 29760, Note_on_c, 5, 72, 84
11, 29760, Note_on_c, 5, 60, 84
11, 29999, Note_on_c, 5, 72, 0
11, 29999, Note_on_c, 5, 60, 0
11, 30720, Note_on_c, 5, 65, 84
11, 30959, Note_on_c, 5, 65, 0
11, 31200, Note_on_c, 5, 60, 84
11, 31200, Note_on_c, 5, 72, 84
11, 31359, Note_on_c, 5, 60, 0
11, 31359, Note_on_c, 5, 72, 0
11, 31440, Note_on_c, 5, 72, 84
11, 31440, Note_on_c, 5, 60, 84
11, 31599, Note_on_c, 5, 72, 0
11, 31599, Note_on_c, 5, 60, 0
11, 31680, Note_on_c, 5, 60, 84
11, 31680, Note_on_c, 5, 72, 84
11, 31839, Note_on_c, 5, 60, 0
11, 31839, Note_on_c, 5, 72, 0
11, 31920, Note_on_c, 5, 60, 84
11, 31920, Note_on_c, 5, 72, 84
11, 32079, Note_on_c, 5, 60, 0
11, 32079, Note_on_c, 5, 72, 0
11, 32160, Note_on_c, 5, 60, 84
11, 32160, Note_on_c, 5, 72, 84
11, 32319, Note_on_c, 5, 60, 0
11, 32319, Note_on_c, 5, 72, 0
11, 32400, Note_on_c, 5, 72, 84
11, 32400, Note_on_c, 5, 60, 84
11, 32559, Note_on_c, 5, 72, 0
11, 32559, Note_on_c, 5, 60, 0
11, 32640, Note_on_c, 5, 72, 84
11, 32640, Note_on_c, 5, 60, 84
11, 32799, Note_on_c, 5, 72, 0
11, 32799, Note_on_c, 5, 60, 0
11, 33120, Note_on_c, 5, 72, 84
11, 33120, Note_on_c, 5, 60, 84
11, 33279, Note_on_c, 5, 72, 0
11, 33279, Note_on_c, 5, 60, 0
11, 33360, Note_on_c, 5, 72, 84
11, 33360, Note_on_c, 5, 60, 84
11, 33519, Note_on_c, 5, 72, 0
11, 33519, Note_on_c, 5, 60, 0
11, 33600, Note_on_c, 5, 72, 84
11, 33600, Note_on_c, 5, 60, 84
11, 33759, Note_on_c, 5, 72, 0
11, 33759, Note_on_c, 5, 60, 0
11, 33840, Note_on_c, 5, 72, 84
11, 33840, Note_on_c, 5, 60, 84
11, 33999, Note_on_c, 5, 72, 0
11, 33999, Note_on_c, 5, 60, 0
11, 34080, Note_on_c, 5, 72, 84
11, 34080, Note_on_c, 5, 60, 84
11, 34239, Note_on_c, 5, 72, 0
11, 34239, Note_on_c, 5, 60, 0
11, 34320, Note_on_c, 5, 72, 84
11, 34320, Note_on_c, 5, 60, 84
11, 34479, Note_on_c, 5, 72, 0
11, 34479, Note_on_c, 5, 60, 0
11, 34560, Note_on_c, 5, 65, 84
11, 34719, Note_on_c, 5, 65, 0
11, 35520, Note_on_c, 5, 72, 84
11, 35759, Note_on_c, 5, 72, 0
11, 36480, Note_on_c, 5, 79, 84
11, 36719, Note_on_c, 5, 79, 0
11, 37440, Note_on_c, 5, 79, 84
11, 37679, Note_on_c, 5, 79, 0
11, 38400, Note_on_c, 5, 79, 84
11, 38639, Note_on_c, 5, 79, 0
11, 38880, Note_on_c, 5, 79, 84
11, 39039, Note_on_c, 5, 79, 0
11, 39120, Note_on_c, 5, 79, 84
11, 39279, Note_on_c, 5, 79, 0
11, 39360, Note_on_c, 5, 79, 84
11, 39519, Note_on_c, 5, 79, 0
11, 39600, Note_on_c, 5, 79, 84
11, 39759, Note_on_c, 5, 79, 0
11, 39840, Note_on_c, 5, 79, 84
11, 39999, Note_on_c, 5, 79, 0
11, 40080, Note_on_c, 5, 79, 84
11, 40239, Note_on_c, 5, 79, 0
11, 40320, Note_on_c, 5, 79, 84
11, 40479, Note_on_c, 5, 79, 0
11, 40800, Note_on_c, 5, 79, 92
11, 40959, Note_on_c, 5, 79, 0
11, 41040, Note_on_c, 5, 79, 84
11, 41199, Note_on_c, 5, 79, 0
11, 41280, Note_on_c, 5, 79, 92
11, 41439, Note_on_c, 5, 79, 0
11, 41520, Note_on_c, 5, 79, 84
11, 41679, Note_on_c, 5, 79, 0
11, 42720, Note_on_c, 5, 79, 84
11, 42879, Note_on_c, 5, 79, 0
11, 42960, Note_on_c, 5, 79, 84
11, 43119, Note_on_c, 5, 79, 0
11, 43200, Note_on_c, 5, 79, 84
11, 43359, Note_on_c, 5, 79, 0
11, 43440, Note_on_c, 5, 79, 84
11, 43599, Note_on_c, 5, 79, 0
11, 44640, Note_on_c, 5, 79, 84
11, 44799, Note_on_c, 5, 79, 0
11, 44880, Note_on_c, 5, 79, 84
11, 45039, Note_on_c, 5, 79, 0
11, 45120, Note_on_c, 5, 79, 84
11, 45279, Note_on_c, 5, 79, 0
11, 45360, Note_on_c, 5, 79, 84
11, 45519, Note_on_c, 5, 79, 0
11, 45600, Note_on_c, 5, 79, 84
11, 45759, Note_on_c, 5, 79, 0
11, 45840, Note_on_c, 5, 79, 84
11, 45999, Note_on_c, 5, 79, 0
11, 46080, Note_on_c, 5, 60, 52
11, 46080, Note_on_c, 5, 72, 52
11, 46319, Note_on_c, 5, 60, 0
11, 46319, Note_on_c, 5, 72, 0
11, 56400, Control_c, 5, 11, 96
11, 56640, Note_on_c, 5, 79, 68
11, 56880, Control_c, 5, 11, 96
11, 56940, Control_c, 5, 11, 99
11, 57000, Control_c, 5, 11, 101
11, 57060, Control_c, 5, 11, 104
11, 57120, Control_c, 5, 11, 106
11, 57180, Control_c, 5, 11, 109
11, 57240, Control_c, 5, 11, 112
11, 57300, Control_c, 5, 11, 114
11, 57360, Control_c, 5, 11, 117
11, 57420, Control_c, 5, 11, 119
11, 57480, Control_c, 5, 11, 122
11, 57540, Control_c, 5, 11, 127
11, 57599, Note_on_c, 5, 79, 0
11, 57600, Note_on_c, 5, 79, 44
11, 59499, Note_on_c, 5, 79, 0
11, 59520, Note_on_c, 5, 79, 44
11, 59979, Note_on_c, 5, 79, 0
11, 60000, Note_on_c, 5, 79, 44
11, 60459, Note_on_c, 5, 79, 0
11, 60480, Note_on_c, 5, 79, 44
11, 60939, Note_on_c, 5, 79, 0
11, 60960, Note_on_c, 5, 79, 44
11, 61419, Note_on_c, 5, 79, 0
11, 61440, Note_on_c, 5, 79, 44
11, 63339, Note_on_c, 5, 79, 0
11, 63360, Note_on_c, 5, 79, 44
11, 63819, Note_on_c, 5, 79, 0
11, 63840, Note_on_c, 5, 79, 44
11, 64299, Note_on_c, 5, 79, 0
11, 64320, Note_on_c, 5, 79, 44
11, 64779, Note_on_c, 5, 79, 0
11, 64800, Note_on_c, 5, 79, 44
11, 65259, Note_on_c, 5, 79, 0
11, 65280, Note_on_c, 5, 79, 44
11, 65519, Note_on_c, 5, 79, 0
11, 73920, Note_on_c, 5, 77, 76
11, 73920, Note_on_c, 5, 65, 76
11, 74159, Note_on_c, 5, 77, 0
11, 74159, Note_on_c, 5, 65, 0
11, 74880, Note_on_c, 5, 79, 76
11, 75119, Note_on_c, 5, 79, 0
11, 75840, Note_on_c, 5, 69, 76
11, 75840, Note_on_c, 5, 81, 76
11, 76079, Note_on_c, 5, 69, 0
11, 76079, Note_on_c, 5, 81, 0
11, 78720, Note_on_c, 5, 79, 76
11, 78959, Note_on_c, 5, 79, 0
11, 79680, Note_on_c, 5, 65, 76
11, 79680, Note_on_c, 5, 77, 76
11, 79919, Note_on_c, 5, 65, 0
11, 79919, Note_on_c, 5, 77, 0
11, 84480, Note_on_c, 5, 77, 84
11, 84480, Note_on_c, 5, 65, 84
11, 86379, Note_on_c, 5, 77, 0
11, 86379, Note_on_c, 5, 65, 0
11, 86400, Note_on_c, 5, 77, 84
11, 86400, Note_on_c, 5, 65, 84
11, 86639, Note_on_c, 5, 77, 0
11, 86639, Note_on_c, 5, 65, 0
11, 119520, Note_on_c, 5, 72, 76
11, 120959, Note_on_c, 5, 72, 0
11, 121440, Note_on_c, 5, 77, 84
11, 121560, Control_c, 5, 11, 112
11, 122879, Note_on_c, 5, 77, 0
11, 126960, Control_c, 5, 11, 127
11, 127200, Note_on_c, 5, 69, 84
11, 127320, Control_c, 5, 11, 112
11, 128639, Note_on_c, 5, 69, 0
11, 132720, Control_c, 5, 11, 127
11, 132960, Note_on_c, 5, 77, 84
11, 133080, Control_c, 5, 11, 112
11, 133439, Note_on_c, 5, 77, 0
11, 135600, Control_c, 5, 11, 127
11, 135840, Note_on_c, 5, 69, 84
11, 135960, Control_c, 5, 11, 112
11, 136319, Note_on_c, 5, 69, 0
11, 140160, Control_c, 5, 11, 127
11, 140400, Note_on_c, 5, 60, 76
11, 140400, Note_on_c, 5, 72, 76
11, 140559, Note_on_c, 5, 60, 0
11, 140559, Note_on_c, 5, 72, 0
11, 140640, Note_on_c, 5, 65, 76
11, 140640, Note_on_c, 5, 77, 76
11, 140799, Note_on_c, 5, 65, 0
11, 140799, Note_on_c, 5, 77, 0
11, 140880, Note_on_c, 5, 65, 76
11, 140880, Note_on_c, 5, 77, 76
11, 141039, Note_on_c, 5, 65, 0
11, 141039, Note_on_c, 5, 77, 0
11, 172320, Note_on_c, 5, 77, 84
11, 172320, Note_on_c, 5, 65, 84
11, 172464, Note_on_c, 5, 77, 0
11, 172464, Note_on_c, 5, 65, 0
11, 172480, Note_on_c, 5, 65, 84
11, 172480, Note_on_c, 5, 77, 84
11, 172624, Note_on_c, 5, 65, 0
11, 172624, Note_on_c, 5, 77, 0
11, 172640, Note_on_c, 5, 65, 84
11, 172640, Note_on_c, 5, 77, 84
11, 172784, Note_on_c, 5, 65, 0
11, 172784, Note_on_c, 5, 77, 0
11, 172800, Note_on_c, 5, 77, 84
11, 172800, Note_on_c, 5, 65, 84
11, 172959, Note_on_c, 5, 77, 0
11, 172959, Note_on_c, 5, 65, 0
11, 173040, Note_on_c, 5, 77, 84
11, 173040, Note_on_c, 5, 65, 84
11, 173199, Note_on_c, 5, 77, 0
11, 173199, Note_on_c, 5, 65, 0
11, 173280, Note_on_c, 5, 65, 84
11, 173280, Note_on_c, 5, 77, 84
11, 173439, Note_on_c, 5, 65, 0
11, 173439, Note_on_c, 5, 77, 0
11, 173520, Note_on_c, 5, 65, 84
11, 173520, Note_on_c, 5, 77, 84
11, 173679, Note_on_c, 5, 65, 0
11, 173679, Note_on_c, 5, 77, 0
11, 173760, Note_on_c, 5, 65, 84
11, 173760, Note_on_c, 5, 77, 84
11, 173919, Note_on_c, 5, 65, 0
11, 173919, Note_on_c, 5, 77, 0
11, 174000, Note_on_c, 5, 65, 84
11, 174000, Note_on_c, 5, 77, 84
11, 174159, Note_on_c, 5, 65, 0
11, 174159, Note_on_c, 5, 77, 0
11, 174240, Note_on_c, 5, 77, 84
11, 174240, Note_on_c, 5, 65, 84
11, 174384, Note_on_c, 5, 77, 0
11, 174384, Note_on_c, 5, 65, 0
11, 174400, Note_on_c, 5, 65, 84
11, 174400, Note_on_c, 5, 77, 84
11, 174544, Note_on_c, 5, 65, 0
11, 174544, Note_on_c, 5, 77, 0
11, 174560, Note_on_c, 5, 65, 84
11, 174560, Note_on_c, 5, 77, 84
11, 174704, Note_on_c, 5, 65, 0
11, 174704, Note_on_c, 5, 77, 0
11, 174720, Note_on_c, 5, 77, 84
11, 174720, Note_on_c, 5, 65, 84
11, 174879, Note_on_c, 5, 77, 0
11, 174879, Note_on_c, 5, 65, 0
11, 174960, Note_on_c, 5, 77, 84
11, 174960, Note_on_c, 5, 65, 84
11, 175119, Note_on_c, 5, 77, 0
11, 175119, Note_on_c, 5, 65, 0
11, 175200, Note_on_c, 5, 77, 84
11, 175200, Note_on_c, 5, 65, 84
11, 175359, Note_on_c, 5, 77, 0
11, 175359, Note_on_c, 5, 65, 0
11, 175440, Note_on_c, 5, 65, 84
11, 175440, Note_on_c, 5, 77, 84
11, 175599, Note_on_c, 5, 65, 0
11, 175599, Note_on_c, 5, 77, 0
11, 175680, Note_on_c, 5, 65, 84
11, 175680, Note_on_c, 5, 77, 84
11, 175839, Note_on_c, 5, 65, 0
11, 175839, Note_on_c, 5, 77, 0
11, 175920, Note_on_c, 5, 65, 84
11, 175920, Note_on_c, 5, 77, 84
11, 176079, Note_on_c, 5, 65, 0
11, 176079, Note_on_c, 5, 77, 0
11, 176160, Note_on_c, 5, 77, 84
11, 176160, Note_on_c, 5, 65, 84
11, 176399, Note_on_c, 5, 77, 0
11, 176399, Note_on_c, 5, 65, 0
11, 176520, Note_on_c, 5, 65, 84
11, 176520, Note_on_c, 5, 77, 84
11, 176619, Note_on_c, 5, 65, 0
11, 176619, Note_on_c, 5, 77, 0
11, 176640, Note_on_c, 5, 65, 84
11, 176640, Note_on_c, 5, 77, 84
11, 176879, Note_on_c, 5, 65, 0
11, 176879, Note_on_c, 5, 77, 0
11, 177600, Note_on_c, 5, 79, 84
11, 177819, Note_on_c, 5, 79, 0
11, 177840, Note_on_c, 5, 79, 84
11, 178059, Note_on_c, 5, 79, 0
11, 178080, Note_on_c, 5, 79, 84
11, 178299, Note_on_c, 5, 79, 0
11, 178320, Note_on_c, 5, 79, 84
11, 178539, Note_on_c, 5, 79, 0
11, 178560, Note_on_c, 5, 79, 84
11, 178799, Note_on_c, 5, 79, 0
11, 179280, Note_on_c, 5, 69, 84
11, 179280, Note_on_c, 5, 81, 84
11, 179499, Note_on_c, 5, 69, 0
11, 179499, Note_on_c, 5, 81, 0
11, 179520, Note_on_c, 5, 65, 84
11, 179520, Note_on_c, 5, 77, 84
11, 179739, Note_on_c, 5, 65, 0
11, 179739, Note_on_c, 5, 77, 0
11, 179760, Note_on_c, 5, 60, 84
11, 179760, Note_on_c, 5, 72, 84
11, 179979, Note_on_c, 5, 60, 0
11, 179979, Note_on_c, 5, 72, 0
11, 180000, Note_on_c, 5, 72, 84
11, 180000, Note_on_c, 5, 60, 84
11, 180219, Note_on_c, 5, 72, 0
11, 180219, Note_on_c, 5, 60, 0
11, 180240, Note_on_c, 5, 77, 84
11, 180240, Note_on_c, 5, 65, 84
11, 180459, Note_on_c, 5, 77, 0
11, 180459, Note_on_c, 5, 65, 0
11, 180480, Note_on_c, 5, 77, 84
11, 180480, Note_on_c, 5, 65, 84
11, 180699, Note_on_c, 5, 77, 0
11, 180699, Note_on_c, 5, 65, 0
11, 180720, Note_on_c, 5, 77, 84
11, 180720, Note_on_c, 5, 65, 84
11, 180939, Note_on_c, 5, 77, 0
11, 180939, Note_on_c, 5, 65, 0
11, 180960, Note_on_c, 5, 60, 84
11, 180960, Note_on_c, 5, 72, 84
11, 181179, Note_on_c, 5, 60, 0
11, 181179, Note_on_c, 5, 72, 0
11, 181200, Note_on_c, 5, 60, 84
11, 181200, Note_on_c, 5, 72, 84
11, 181419, Note_on_c, 5, 60, 0
11, 181419, Note_on_c, 5, 72, 0
11, 181440, Note_on_c, 5, 65, 84
11, 181679, Note_on_c, 5, 65, 0
11, 182400, Note_on_c, 5, 65, 84
11, 182639, Note_on_c, 5, 65, 0
11, 183360, Note_on_c, 5, 72, 84
11, 183360, Note_on_c, 5, 60, 84
11, 183599, Note_on_c, 5, 72, 0
11, 183599, Note_on_c, 5, 60, 0
11, 184320, Note_on_c, 5, 60, 84
11, 184320, Note_on_c, 5, 72, 84
11, 184559, Note_on_c, 5, 60, 0
11, 184559, Note_on_c, 5, 72, 0
11, 185760, Note_on_c, 5, 60, 84
11, 185760, Note_on_c, 5, 72, 84
11, 185919, Note_on_c, 5, 60, 0
11, 185919, Note_on_c, 5, 72, 0
11, 186000, Note_on_c, 5, 72, 84
11, 186000, Note_on_c, 5, 60, 84
11, 186159, Note_on_c, 5, 72, 0
11, 186159, Note_on_c, 5, 60, 0
11, 186240, Note_on_c, 5, 72, 84
11, 186240, Note_on_c, 5, 60, 84
11, 186399, Note_on_c, 5, 72, 0
11, 186399, Note_on_c, 5, 60, 0
11, 186480, Note_on_c, 5, 72, 84
11, 186480, Note_on_c, 5, 60, 84
11, 186639, Note_on_c, 5, 72, 0
11, 186639, Note_on_c, 5, 60, 0
11, 186720, Note_on_c, 5, 72, 84
11, 186720, Note_on_c, 5, 60, 84
11, 186879, Note_on_c, 5, 72, 0
11, 186879, Note_on_c, 5, 60, 0
11, 186960, Note_on_c, 5, 60, 84
11, 186960, Note_on_c, 5, 72, 84
11, 187119, Note_on_c, 5, 60, 0
11, 187119, Note_on_c, 5, 72, 0
11, 187200, Note_on_c, 5, 60, 84
11, 187200, Note_on_c, 5, 72, 84
11, 187359, Note_on_c, 5, 60, 0
11, 187359, Note_on_c, 5, 72, 0
11, 187680, Note_on_c, 5, 72, 84
11, 187680, Note_on_c, 5, 60, 84
11, 187839, Note_on_c, 5, 72, 0
11, 187839, Note_on_c, 5, 60, 0
11, 187920, Note_on_c, 5, 72, 84
11, 187920, Note_on_c, 5, 60, 84
11, 188079, Note_on_c, 5, 72, 0
11, 188079, Note_on_c, 5, 60, 0
11, 188160, Note_on_c, 5, 72, 84
11, 188160, Note_on_c, 5, 60, 84
11, 188319, Note_on_c, 5, 72, 0
11, 188319, Note_on_c, 5, 60, 0
11, 188400, Note_on_c, 5, 60, 84
11, 188400, Note_on_c, 5, 72, 84
11, 188559, Note_on_c, 5, 60, 0
11, 188559, Note_on_c, 5, 72, 0
11, 188640, Note_on_c, 5, 72, 84
11, 188640, Note_on_c, 5, 60, 84
11, 188799, Note_on_c, 5, 72, 0
11, 188799, Note_on_c, 5, 60, 0
11, 188880, Note_on_c, 5, 60, 84
11, 188880, Note_on_c, 5, 72, 84
11, 189039, Note_on_c, 5, 60, 0
11, 189039, Note_on_c, 5, 72, 0
11, 189120, Note_on_c, 5, 69, 84
11, 189120, Note_on_c, 5, 77, 84
11, 189279, Note_on_c, 5, 69, 0
11, 189279, Note_on_c, 5, 77, 0
11, 190080, Note_on_c, 5, 65, 84
11, 190319, Note_on_c, 5, 65, 0
11, 191040, Note_on_c, 5, 72, 84
11, 191040, Note_on_c, 5, 60, 84
11, 191279, Note_on_c, 5, 72, 0
11, 191279, Note_on_c, 5, 60, 0
11, 192000, Note_on_c, 5, 72, 84
11, 192000, Note_on_c, 5, 60, 84
11, 192239, Note_on_c, 5, 72, 0
11, 192239, Note_on_c, 5, 60, 0
11, 192960, Note_on_c, 5, 65, 84
11, 193199, Note_on_c, 5, 65, 0
11, 193440, Note_on_c, 5, 60, 84
11, 193440, Note_on_c, 5, 72, 84
11, 193599, Note_on_c, 5, 60, 0
11, 193599, Note_on_c, 5, 72, 0
11, 193680, Note_on_c, 5, 72, 84
11, 193680, Note_on_c, 5, 60, 84
11, 193839, Note_on_c, 5, 72, 0
11, 193839, Note_on_c, 5, 60, 0
11, 193920, Note_on_c, 5, 72, 84
11, 193920, Note_on_c, 5, 60, 84
11, 194079, Note_on_c, 5, 72, 0
11, 194079, Note_on_c, 5, 60, 0
11, 194160, Note_on_c, 5, 60, 84
11, 194160, Note_on_c, 5, 72, 84
11, 194319, Note_on_c, 5, 60, 0
11, 194319, Note_on_c, 5, 72, 0
11, 194400, Note_on_c, 5, 72, 84
11, 194400, Note_on_c, 5, 60, 84
11, 194559, Note_on_c, 5, 72, 0
11, 194559, Note_on_c, 5, 60, 0
11, 194640, Note_on_c, 5, 60, 84
11, 194640, Note_on_c, 5, 72, 84
11, 194799, Note_on_c, 5, 60, 0
11, 194799, Note_on_c, 5, 72, 0
11, 194880, Note_on_c, 5, 60, 84
11, 194880, Note_on_c, 5, 72, 84
11, 195039, Note_on_c, 5, 60, 0
11, 195039, Note_on_c, 5, 72, 0
11, 196800, Note_on_c, 5, 79, 84
11, 196959, Note_on_c, 5, 79, 0
11, 197760, Note_on_c, 5, 79, 84
11, 197999, Note_on_c, 5, 79, 0
11, 198720, Note_on_c, 5, 81, 84
11, 198720, Note_on_c, 5, 77, 84
11, 198959, Note_on_c, 5, 81, 0
11, 198959, Note_on_c, 5, 77, 0
11, 199680, Note_on_c, 5, 65, 84
11, 199680, Note_on_c, 5, 77, 84
11, 199919, Note_on_c, 5, 65, 0
11, 199919, Note_on_c, 5, 77, 0
11, 200640, Note_on_c, 5, 77, 84
11, 200640, Note_on_c, 5, 65, 84
11, 200879, Note_on_c, 5, 77, 0
11, 200879, Note_on_c, 5, 65, 0
11, 201120, Note_on_c, 5, 65, 84
11, 201120, Note_on_c, 5, 77, 84
11, 201279, Note_on_c, 5, 65, 0
11, 201279, Note_on_c, 5, 77, 0
11, 201360, Note_on_c, 5, 65, 84
11, 201360, Note_on_c, 5, 77, 84
11, 201519, Note_on_c, 5, 65, 0
11, 201519, Note_on_c, 5, 77, 0
11, 201600, Note_on_c, 5, 65, 84
11, 201600, Note_on_c, 5, 77, 84
11, 201759, Note_on_c, 5, 65, 0
11, 201759, Note_on_c, 5, 77, 0
11, 201840, Note_on_c, 5, 77, 84
11, 201840, Note_on_c, 5, 65, 84
11, 201999, Note_on_c, 5, 77, 0
11, 201999, Note_on_c, 5, 65, 0
11, 202080, Note_on_c, 5, 65, 84
11, 202080, Note_on_c, 5, 77, 84
11, 202239, Note_on_c, 5, 65, 0
11, 202239, Note_on_c, 5, 77, 0
11, 202320, Note_on_c, 5, 77, 84
11, 202320, Note_on_c, 5, 65, 84
11, 202479, Note_on_c, 5, 77, 0
11, 202479, Note_on_c, 5, 65, 0
11, 202560, Note_on_c, 5, 77, 84
11, 202560, Note_on_c, 5, 65, 84
11, 202719, Note_on_c, 5, 77, 0
11, 202719, Note_on_c, 5, 65, 0
11, 203040, Note_on_c, 5, 65, 84
11, 203040, Note_on_c, 5, 77, 84
11, 203199, Note_on_c, 5, 65, 0
11, 203199, Note_on_c, 5, 77, 0
11, 203280, Note_on_c, 5, 77, 84
11, 203280, Note_on_c, 5, 65, 84
11, 203439, Note_on_c, 5, 77, 0
11, 203439, Note_on_c, 5, 65, 0
11, 203520, Note_on_c, 5, 77, 84
11, 203520, Note_on_c, 5, 65, 84
11, 203679, Note_on_c, 5, 77, 0
11, 203679, Note_on_c, 5, 65, 0
11, 203760, Note_on_c, 5, 77, 84
11, 203760, Note_on_c, 5, 65, 84
11, 203919, Note_on_c, 5, 77, 0
11, 203919, Note_on_c, 5, 65, 0
11, 204000, Note_on_c, 5, 77, 84
11, 204000, Note_on_c, 5, 65, 84
11, 204159, Note_on_c, 5, 77, 0
11, 204159, Note_on_c, 5, 65, 0
11, 204240, Note_on_c, 5, 77, 84
11, 204240, Note_on_c, 5, 65, 84
11, 204399, Note_on_c, 5, 77, 0
11, 204399, Note_on_c, 5, 65, 0
11, 204480, Note_on_c, 5, 65, 84
11, 204480, Note_on_c, 5, 77, 84
11, 204639, Note_on_c, 5, 65, 0
11, 204639, Note_on_c, 5, 77, 0
11, 208800, Note_on_c, 5, 60, 84
11, 208800, Note_on_c, 5, 72, 84
11, 209019, Note_on_c, 5, 60, 0
11, 209019, Note_on_c, 5, 72, 0
11, 209040, Note_on_c, 5, 60, 84
11, 209040, Note_on_c, 5, 72, 84
11, 209259, Note_on_c, 5, 60, 0
11, 209259, Note_on_c, 5, 72, 0
11, 209280, Note_on_c, 5, 60, 84
11, 209280, Note_on_c, 5, 72, 84
11, 209499, Note_on_c, 5, 60, 0
11, 209499, Note_on_c, 5, 72, 0
11, 209520, Note_on_c, 5, 72, 84
11, 209520, Note_on_c, 5, 60, 84
11, 209759, Note_on_c, 5, 72, 0
11, 209759, Note_on_c, 5, 60, 0
11, 210720, Note_on_c, 5, 72, 84
11, 210720, Note_on_c, 5, 60, 84
11, 210939, Note_on_c, 5, 72, 0
11, 210939, Note_on_c, 5, 60, 0
11, 210960, Note_on_c, 5, 72, 84
11, 210960, Note_on_c, 5, 60, 84
11, 211179, Note_on_c, 5, 72, 0
11, 211179, Note_on_c, 5, 60, 0
11, 211200, Note_on_c, 5, 72, 84
11, 211200, Note_on_c, 5, 60, 84
11, 211439, Note_on_c, 5, 72, 0
11, 211439, Note_on_c, 5, 60, 0
11, 211680, Note_on_c, 5, 60, 84
11, 211680, Note_on_c, 5, 72, 84
11, 211899, Note_on_c, 5, 60, 0
11, 211899, Note_on_c, 5, 72, 0
11, 211920, Note_on_c, 5, 60, 84
11, 211920, Note_on_c, 5, 72, 84
11, 212139, Note_on_c, 5, 60, 0
11, 212139, Note_on_c, 5, 72, 0
11, 212160, Note_on_c, 5, 60, 84
11, 212160, Note_on_c, 5, 72, 84
11, 212399, Note_on_c, 5, 60, 0
11, 212399, Note_on_c, 5, 72, 0
11, 212640, Note_on_c, 5, 60, 84
11, 212640, Note_on_c, 5, 72, 84
11, 212859, Note_on_c, 5, 60, 0
11, 212859, Note_on_c, 5, 72, 0
11, 212880, Note_on_c, 5, 60, 84
11, 212880, Note_on_c, 5, 72, 84
11, 213099, Note_on_c, 5, 60, 0
11, 213099, Note_on_c, 5, 72, 0
11, 213120, Note_on_c, 5, 72, 84
11, 213120, Note_on_c, 5, 60, 84
11, 213359, Note_on_c, 5, 72, 0
11, 213359, Note_on_c, 5, 60, 0
11, 213600, Note_on_c, 5, 60, 84
11, 213600, Note_on_c, 5, 72, 84
11, 213819, Note_on_c, 5, 60, 0
11, 213819, Note_on_c, 5, 72, 0
11, 213840, Note_on_c, 5, 72, 84
11, 213840, Note_on_c, 5, 60, 84
11, 214059, Note_on_c, 5, 72, 0
11, 214059, Note_on_c, 5, 60, 0
11, 214080, Note_on_c, 5, 72, 84
11, 214080, Note_on_c, 5, 60, 84
11, 214319, Note_on_c, 5, 72, 0
11, 214319, Note_on_c, 5, 60, 0
11, 214560, Note_on_c, 5, 60, 84
11, 214560, Note_on_c, 5, 72, 84
11, 214779, Note_on_c, 5, 60, 0
11, 214779, Note_on_c, 5, 72, 0
11, 214800, Note_on_c, 5, 72, 84
11, 214800, Note_on_c, 5, 60, 84
11, 215019, Note_on_c, 5, 72, 0
11, 215019, Note_on_c, 5, 60, 0
11, 215040, Note_on_c, 5, 65, 52
11, 215279, Note_on_c, 5, 65, 0
11, 224640, Control_c, 5, 11, 112
11, 225600, Note_on_c, 5, 60, 60
11, 225600, Note_on_c, 5, 72, 60
11, 225840, Control_c, 5, 11, 112
11, 225900, Control_c, 5, 11, 113
11, 225960, Control_c, 5, 11, 115
11, 226020, Control_c, 5, 11, 116
11, 226080, Control_c, 5, 11, 117
11, 226140, Control_c, 5, 11, 118
11, 226200, Control_c, 5, 11, 120
11, 226260, Control_c, 5, 11, 121
11, 226320, Control_c, 5, 11, 122
11, 226380, Control_c, 5, 11, 123
11, 226440, Control_c, 5, 11, 125
11, 226500, Control_c, 5, 11, 126
11, 226560, Control_c, 5, 11, 96
11, 228459, Note_on_c, 5, 60, 0
11, 228459, Note_on_c, 5, 72, 0
11, 228478, Control_c, 5, 11, 112
11, 228480, Note_on_c, 5, 60, 52
11, 228480, Note_on_c, 5, 72, 52
11, 228939, Note_on_c, 5, 60, 0
11, 228939, Note_on_c, 5, 72, 0
11, 228960, Note_on_c, 5, 60, 52
11, 228960, Note_on_c, 5, 72, 52
11, 229419, Note_on_c, 5, 60, 0
11, 229419, Note_on_c, 5, 72, 0
11, 229438, Control_c, 5, 11, 127
11, 229440, Note_on_c, 5, 60, 44
11, 229440, Note_on_c, 5, 72, 44
11, 229899, Note_on_c, 5, 60, 0
11, 229899, Note_on_c, 5, 72, 0
11, 229920, Note_on_c, 5, 72, 44
11, 229920, Note_on_c, 5, 60, 44
11, 230379, Note_on_c, 5, 72, 0
11, 230379, Note_on_c, 5, 60, 0
11, 230400, Note_on_c, 5, 60, 44
11, 230400, Note_on_c, 5, 72, 44
11, 232299, Note_on_c, 5, 60, 0
11, 232299, Note_on_c, 5, 72, 0
11, 232320, Note_on_c, 5, 60, 44
11, 232320, Note_on_c, 5, 72, 44
11, 232779, Note_on_c, 5, 60, 0
11, 232779, Note_on_c, 5, 72, 0
11, 232800, Note_on_c, 5, 72, 44
11, 232800, Note_on_c, 5, 60, 44
11, 233259, Note_on_c, 5, 72, 0
11, 233259, Note_on_c, 5, 60, 0
11, 233280, Note_on_c, 5, 60, 44
11, 233280, Note_on_c, 5, 72, 44
11, 233739, Note_on_c, 5, 60, 0
11, 233739, Note_on_c, 5, 72, 0
11, 233760, Note_on_c, 5, 60, 44
11, 233760, Note_on_c, 5, 72, 44
11, 234219, Note_on_c, 5, 60, 0
11, 234219, Note_on_c, 5, 72, 0
11, 234240, Note_on_c, 5, 60, 44
11, 234240, Note_on_c, 5, 72, 44
11, 234479, Note_on_c, 5, 60, 0
11, 234479, Note_on_c, 5, 72, 0
11, 241920, Note_on_c, 5, 77, 76
11, 241920, Note_on_c, 5, 65, 76
11, 242139, Note_on_c, 5, 77, 0
11, 242139, Note_on_c, 5, 65, 0
11, 242160, Note_on_c, 5, 65, 76
11, 242160, Note_on_c, 5, 77, 76
11, 242399, Note_on_c, 5, 65, 0
11, 242399, Note_on_c, 5, 77, 0
11, 243840, Note_on_c, 5, 65, 76
11, 243840, Note_on_c, 5, 77, 76
11, 244059, Note_on_c, 5, 65, 0
11, 244059, Note_on_c, 5, 77, 0
11, 244080, Note_on_c, 5, 65, 76
11, 244080, Note_on_c, 5, 77, 76
11, 244319, Note_on_c, 5, 65, 0
11, 244319, Note_on_c, 5, 77, 0
11, 244560, Note_on_c, 5, 77, 76
11, 244560, Note_on_c, 5, 65, 76
11, 244779, Note_on_c, 5, 77, 0
11, 244779, Note_on_c, 5, 65, 0
11, 244800, Note_on_c, 5, 77, 76
11, 244800, Note_on_c, 5, 65, 76
11, 245019, Note_on_c, 5, 77, 0
11, 245019, Note_on_c, 5, 65, 0
11, 245040, Note_on_c, 5, 77, 76
11, 245040, Note_on_c, 5, 65, 76
11, 245279, Note_on_c, 5, 77, 0
11, 245279, Note_on_c, 5, 65, 0
11, 246720, Note_on_c, 5, 65, 76
11, 246720, Note_on_c, 5, 77, 76
11, 246879, Note_on_c, 5, 65, 0
11, 246879, Note_on_c, 5, 77, 0
11, 246960, Note_on_c, 5, 77, 76
11, 246960, Note_on_c, 5, 65, 76
11, 247119, Note_on_c, 5, 77, 0
11, 247119, Note_on_c, 5, 65, 0
11, 247200, Note_on_c, 5, 65, 76
11, 247200, Note_on_c, 5, 77, 76
11, 247359, Note_on_c, 5, 65, 0
11, 247359, Note_on_c, 5, 77, 0
11, 248400, Note_on_c, 5, 81, 76
11, 248400, Note_on_c, 5, 69, 76
11, 248619, Note_on_c, 5, 81, 0
11, 248619, Note_on_c, 5, 69, 0
11, 248640, Note_on_c, 5, 79, 76
11, 248859, Note_on_c, 5, 79, 0
11, 248880, Note_on_c, 5, 79, 76
11, 249099, Note_on_c, 5, 79, 0
11, 249120, Note_on_c, 5, 79, 76
11, 249339, Note_on_c, 5, 79, 0
11, 249360, Note_on_c, 5, 72, 76
11, 249360, Note_on_c, 5, 60, 76
11, 249579, Note_on_c, 5, 72, 0
11, 249579, Note_on_c, 5, 60, 0
11, 249600, Note_on_c, 5, 72, 80
11, 249600, Note_on_c, 5, 60, 80
11, 251499, Note_on_c, 5, 72, 0
11, 251499, Note_on_c, 5, 60, 0
11, 251520, Note_on_c, 5, 65, 80
11, 251520, Note_on_c, 5, 77, 80
11, 253419, Note_on_c, 5, 65, 0
11, 253419, Note_on_c, 5, 77, 0
11, 253440, Note_on_c, 5, 77, 84
11, 255339, Note_on_c, 5, 77, 0
11, 255360, Note_on_c, 5, 77, 84
11, 255599, Note_on_c, 5, 77, 0
11, 293760, Control_c, 5, 11, 64
11, 294240, Note_on_c, 5, 81, 76
11, 294240, Note_on_c, 5, 69, 76
11, 294550, Control_c, 5, 11, 67
11, 294699, Note_on_c, 5, 81, 0
11, 294699, Note_on_c, 5, 69, 0
11, 294720, Note_on_c, 5, 69, 76
11, 294720, Note_on_c, 5, 81, 76
11, 294860, Control_c, 5, 11, 69
11, 295119, Note_on_c, 5, 69, 0
11, 295119, Note_on_c, 5, 81, 0
11, 295170, Control_c, 5, 11, 72
11, 295200, Note_on_c, 5, 69, 76
11, 295200, Note_on_c, 5, 81, 76
11, 295480, Control_c, 5, 11, 75
11, 295599, Note_on_c, 5, 69, 0
11, 295599, Note_on_c, 5, 81, 0
11, 295680, Note_on_c, 5, 69, 76
11, 295680, Note_on_c, 5, 81, 76
11, 295790, Control_c, 5, 11, 77
11, 296079, Note_on_c, 5, 69, 0
11, 296079, Note_on_c, 5, 81, 0
11, 296100, Control_c, 5, 11, 80
11, 296410, Control_c, 5, 11, 82
11, 296720, Control_c, 5, 11, 85
11, 297030, Control_c, 5, 11, 88
11, 297340, Control_c, 5, 11, 90
11, 297650, Control_c, 5, 11, 93
11, 297960, Control_c, 5, 11, 96
11, 298080, Note_on_c, 5, 79, 76
11, 298270, Control_c, 5, 11, 98
11, 298479, Note_on_c, 5, 79, 0
11, 298560, Note_on_c, 5, 79, 76
11, 298580, Control_c, 5, 11, 101
11, 298890, Control_c, 5, 11, 103
11, 298959, Note_on_c, 5, 79, 0
11, 299040, Note_on_c, 5, 79, 76
11, 299200, Control_c, 5, 11, 106
11, 299439, Note_on_c, 5, 79, 0
11, 299510, Control_c, 5, 11, 109
11, 299520, Note_on_c, 5, 79, 76
11, 299820, Control_c, 5, 11, 111
11, 299919, Note_on_c, 5, 79, 0
11, 301370, Control_c, 5, 11, 127
11, 301920, Note_on_c, 5, 65, 76
11, 301920, Note_on_c, 5, 77, 76
11, 302319, Note_on_c, 5, 65, 0
11, 302319, Note_on_c, 5, 77, 0
11, 302400, Note_on_c, 5, 65, 76
11, 302400, Note_on_c, 5, 77, 76
11, 302799, Note_on_c, 5, 65, 0
11, 302799, Note_on_c, 5, 77, 0
11, 302880, Note_on_c, 5, 77, 76
11, 302880, Note_on_c, 5, 65, 76
11, 303279, Note_on_c, 5, 77, 0
11, 303279, Note_on_c, 5, 65, 0
11, 303360, Note_on_c, 5, 77, 76
11, 303360, Note_on_c, 5, 65, 76
11, 303759, Note_on_c, 5, 77, 0
11, 303759, Note_on_c, 5, 65, 0
11, 303840, Note_on_c, 5, 77, 76
11, 303840, Note_on_c, 5, 65, 76
11, 304239, Note_on_c, 5, 77, 0
11, 304239, Note_on_c, 5, 65, 0
11, 304320, Note_on_c, 5, 65, 76
11, 304320, Note_on_c, 5, 77, 76
11, 304779, Note_on_c, 5, 65, 0
11, 304779, Note_on_c, 5, 77, 0
11, 304800, Note_on_c, 5, 77, 76
11, 304800, Note_on_c, 5, 65, 76
11, 305259, Note_on_c, 5, 77, 0
11, 305259, Note_on_c, 5, 65, 0
11, 305280, Note_on_c, 5, 79, 76
11, 305739, Note_on_c, 5, 79, 0
11, 305760, Note_on_c, 5, 75, 76
11, 306219, Note_on_c, 5, 75, 0
11, 306240, Note_on_c, 5, 75, 76
11, 306699, Note_on_c, 5, 75, 0
11, 306720, Note_on_c, 5, 75, 76
11, 307179, Note_on_c, 5, 75, 0
11, 307200, Note_on_c, 5, 75, 76
11, 307659, Note_on_c, 5, 75, 0
11, 307680, Note_on_c, 5, 75, 76
11, 308139, Note_on_c, 5, 75, 0
11, 308160, Note_on_c, 5, 75, 76
11, 308619, Note_on_c, 5, 75, 0
11, 308640, Note_on_c, 5, 75, 76
11, 309099, Note_on_c, 5, 75, 0
11, 309120, Note_on_c, 5, 77, 76
11, 309120, Note_on_c, 5, 65, 76
11, 309579, Note_on_c, 5, 77, 0
11, 309579, Note_on_c, 5, 65, 0
11, 309600, Note_on_c, 5, 77, 76
11, 309600, Note_on_c, 5, 65, 76
11, 309744, Note_on_c, 5, 77, 0
11, 309744, Note_on_c, 5, 65, 0
11, 309760, Note_on_c, 5, 65, 76
11, 309760, Note_on_c, 5, 77, 76
11, 309904, Note_on_c, 5, 65, 0
11, 309904, Note_on_c, 5, 77, 0
11, 309920, Note_on_c, 5, 65, 76
11, 309920, Note_on_c, 5, 77, 76
11, 310064, Note_on_c, 5, 65, 0
11, 310064, Note_on_c, 5, 77, 0
11, 310080, Note_on_c, 5, 65, 76
11, 310080, Note_on_c, 5, 77, 76
11, 310319, Note_on_c, 5, 65, 0
11, 310319, Note_on_c, 5, 77, 0
11, 310560, Note_on_c, 5, 65, 76
11, 310560, Note_on_c, 5, 77, 76
11, 310704, Note_on_c, 5, 65, 0
11, 310704, Note_on_c, 5, 77, 0
11, 310720, Note_on_c, 5, 65, 76
11, 310720, Note_on_c, 5, 77, 76
11, 310864, Note_on_c, 5, 65, 0
11, 310864, Note_on_c, 5, 77, 0
11, 310880, Note_on_c, 5, 65, 76
11, 310880, Note_on_c, 5, 77, 76
11, 311024, Note_on_c, 5, 65, 0
11, 311024, Note_on_c, 5, 77, 0
11, 311040, Note_on_c, 5, 65, 76
11, 311040, Note_on_c, 5, 77, 76
11, 311279, Note_on_c, 5, 65, 0
11, 311279, Note_on_c, 5, 77, 0
11, 311520, Note_on_c, 5, 77, 76
11, 311520, Note_on_c, 5, 65, 76
11, 311664, Note_on_c, 5, 77, 0
11, 311664, Note_on_c, 5, 65, 0
11, 311680, Note_on_c, 5, 77, 76
11, 311680, Note_on_c, 5, 65, 76
11, 311824, Note_on_c, 5, 77, 0
11, 311824, Note_on_c, 5, 65, 0
11, 311840, Note_on_c, 5, 65, 76
11, 311840, Note_on_c, 5, 77, 76
11, 311984, Note_on_c, 5, 65, 0
11, 311984, Note_on_c, 5, 77, 0
11, 312000, Note_on_c, 5, 77, 76
11, 312000, Note_on_c, 5, 65, 76
11, 312239, Note_on_c, 5, 77, 0
11, 312239, Note_on_c, 5, 65, 0
11, 312480, Note_on_c, 5, 77, 76
11, 312480, Note_on_c, 5, 65, 76
11, 312624, Note_on_c, 5, 77, 0
11, 312624, Note_on_c, 5, 65, 0
11, 312640, Note_on_c, 5, 77, 76
11, 312640, Note_on_c, 5, 65, 76
11, 312784, Note_on_c, 5, 77, 0
11, 312784, Note_on_c, 5, 65, 0
11, 312800, Note_on_c, 5, 77, 76
11, 312800, Note_on_c, 5, 65, 76
11, 312944, Note_on_c, 5, 77, 0
11, 312944, Note_on_c, 5, 65, 0
11, 312960, Note_on_c, 5, 60, 76
11, 312960, Note_on_c, 5, 72, 76
11, 313199, Note_on_c, 5, 60, 0
11, 313199, Note_on_c, 5, 72, 0
11, 313440, Note_on_c, 5, 72, 76
11, 313440, Note_on_c, 5, 60, 76
11, 313584, Note_on_c, 5, 72, 0
11, 313584, Note_on_c, 5, 60, 0
11, 313600, Note_on_c, 5, 60, 76
11, 313600, Note_on_c, 5, 72, 76
11, 313744, Note_on_c, 5, 60, 0
11, 313744, Note_on_c, 5, 72, 0
11, 313760, Note_on_c, 5, 60, 76
11, 313760, Note_on_c, 5, 72, 76
11, 313904, Note_on_c, 5, 60, 0
11, 313904, Note_on_c, 5, 72, 0
11, 313920, Note_on_c, 5, 60, 76
11, 313920, Note_on_c, 5, 72, 76
11, 314159, Note_on_c, 5, 60, 0
11, 314159, Note_on_c, 5, 72, 0
11, 314400, Note_on_c, 5, 60, 76
11, 314400, Note_on_c, 5, 72, 76
11, 314544, Note_on_c, 5, 60, 0
11, 314544, Note_on_c, 5, 72, 0
11, 314560, Note_on_c, 5, 60, 76
11, 314560, Note_on_c, 5, 72, 76
11, 314704, Note_on_c, 5, 60, 0
11, 314704, Note_on_c, 5, 72, 0
11, 314720, Note_on_c, 5, 72, 76
11, 314720, Note_on_c, 5, 60, 76
11, 314864, Note_on_c, 5, 72, 0
11, 314864, Note_on_c, 5, 60, 0
11, 314880, Note_on_c, 5, 60, 76
11, 314880, Note_on_c, 5, 72, 76
11, 315119, Note_on_c, 5, 60, 0
11, 315119, Note_on_c, 5, 72, 0
11, 315360, Note_on_c, 5, 60, 76
11, 315360, Note_on_c, 5, 72, 76
11, 315504, Note_on_c, 5, 60, 0
11, 315504, Note_on_c, 5, 72, 0
11, 315520, Note_on_c, 5, 72, 76
11, 315520, Note_on_c, 5, 60, 76
11, 315664, Note_on_c, 5, 72, 0
11, 315664, Note_on_c, 5, 60, 0
11, 315680, Note_on_c, 5, 72, 76
11, 315680, Note_on_c, 5, 60, 76
11, 315824, Note_on_c, 5, 72, 0
11, 315824, Note_on_c, 5, 60, 0
11, 315840, Note_on_c, 5, 60, 76
11, 315840, Note_on_c, 5, 72, 76
11, 316079, Note_on_c, 5, 60, 0
11, 316079, Note_on_c, 5, 72, 0
11, 316320, Note_on_c, 5, 77, 76
11, 316320, Note_on_c, 5, 65, 76
11, 316464, Note_on_c, 5, 77, 0
11, 316464, Note_on_c, 5, 65, 0
11, 316480, Note_on_c, 5, 77, 76
11, 316480, Note_on_c, 5, 65, 76
11, 316624, Note_on_c, 5, 77, 0
11, 316624, Note_on_c, 5, 65, 0
11, 316640, Note_on_c, 5, 77, 76
11, 316640, Note_on_c, 5, 65, 76
11, 316784, Note_on_c, 5, 77, 0
11, 316784, Note_on_c, 5, 65, 0
11, 316800, Note_on_c, 5, 77, 76
11, 316800, Note_on_c, 5, 65, 76
11, 317259, Note_on_c, 5, 77, 0
11, 317259, Note_on_c, 5, 65, 0
11, 317280, Note_on_c, 5, 82, 76
11, 317739, Note_on_c, 5, 82, 0
11, 317760, Note_on_c, 5, 82, 76
11, 318219, Note_on_c, 5, 82, 0
11, 318240, Note_on_c, 5, 82, 76
11, 318699, Note_on_c, 5, 82, 0
11, 318720, Note_on_c, 5, 82, 76
11, 319179, Note_on_c, 5, 82, 0
11, 319200, Note_on_c, 5, 82, 76
11, 319659, Note_on_c, 5, 82, 0
11, 319680, Note_on_c, 5, 82, 76
11, 319919, Note_on_c, 5, 82, 0
11, 321120, Note_on_c, 5, 81, 76
11, 321120, Note_on_c, 5, 69, 76
11, 321579, Note_on_c, 5, 81, 0
11, 321579, Note_on_c, 5, 69, 0
11, 321600, Note_on_c, 5, 81, 76
11, 321600, Note_on_c, 5, 69, 76
11, 321999, Note_on_c, 5, 81, 0
11, 321999, Note_on_c, 5, 69, 0
11, 322080, Note_on_c, 5, 81, 76
11, 322080, Note_on_c, 5, 69, 76
11, 322479, Note_on_c, 5, 81, 0
11, 322479, Note_on_c, 5, 69, 0
11, 322560, Note_on_c, 5, 69, 76
11, 322560, Note_on_c, 5, 81, 76
11, 322799, Note_on_c, 5, 69, 0
11, 322799, Note_on_c, 5, 81, 0
11, 323040, Note_on_c, 5, 77, 76
11, 323040, Note_on_c, 5, 65, 76
11, 323279, Note_on_c, 5, 77, 0
11, 323279, Note_on_c, 5, 65, 0
11, 323520, Note_on_c, 5, 79, 76
11, 323759, Note_on_c, 5, 79, 0
11, 324000, Note_on_c, 5, 79, 76
11, 324239, Note_on_c, 5, 79, 0
11, 324480, Note_on_c, 5, 79, 76
11, 324699, Note_on_c, 5, 79, 0
11, 324720, Note_on_c, 5, 60, 76
11, 324720, Note_on_c, 5, 72, 76
11, 324939, Note_on_c, 5, 60, 0
11, 324939, Note_on_c, 5, 72, 0
11, 324960, Note_on_c, 5, 60, 76
11, 324960, Note_on_c, 5, 72, 76
11, 325179, Note_on_c, 5, 60, 0
11, 325179, Note_on_c, 5, 72, 0
11, 325200, Note_on_c, 5, 72, 76
11, 325200, Note_on_c, 5, 60, 76
11, 325419, Note_on_c, 5, 72, 0
11, 325419, Note_on_c, 5, 60, 0
11, 325440, Note_on_c, 5, 60, 76
11, 325440, Note_on_c, 5, 72, 76
11, 325659, Note_on_c, 5, 60, 0
11, 325659, Note_on_c, 5, 72, 0
11, 325680, Note_on_c, 5, 65, 76
11, 325680, Note_on_c, 5, 77, 76
11, 325899, Note_on_c, 5, 65, 0
11, 325899, Note_on_c, 5, 77, 0
11, 325920, Note_on_c, 5, 65, 76
11, 325920, Note_on_c, 5, 77, 76
11, 326139, Note_on_c, 5, 65, 0
11, 326139, Note_on_c, 5, 77, 0
11, 326160, Note_on_c, 5, 77, 76
11, 326160, Note_on_c, 5, 65, 76
11, 326379, Note_on_c, 5, 77, 0
11, 326379, Note_on_c, 5, 65, 0
11, 326400, Note_on_c, 5, 65, 76
11, 326400, Note_on_c, 5, 77, 76
11, 326639, Note_on_c, 5, 65, 0
11, 326639, Note_on_c, 5, 77, 0
11, 326880, Note_on_c, 5, 79, 76
11, 327119, Note_on_c, 5, 79, 0
11, 327840, Note_on_c, 5, 81, 76
11, 327840, Note_on_c, 5, 69, 76
11, 328059, Note_on_c, 5, 81, 0
11, 328059, Note_on_c, 5, 69, 0
11, 328080, Note_on_c, 5, 81, 76
11, 328080, Note_on_c, 5, 69, 76
11, 328299, Note_on_c, 5, 81, 0
11, 328299, Note_on_c, 5, 69, 0
11, 328320, Note_on_c, 5, 81, 76
11, 328320, Note_on_c, 5, 69, 76
11, 328539, Note_on_c, 5, 81, 0
11, 328539, Note_on_c, 5, 69, 0
11, 328560, Note_on_c, 5, 81, 76
11, 328560, Note_on_c, 5, 69, 76
11, 328779, Note_on_c, 5, 81, 0
11, 328779, Note_on_c, 5, 69, 0
11, 328800, Note_on_c, 5, 69, 76
11, 328800, Note_on_c, 5, 81, 76
11, 329019, Note_on_c, 5, 69, 0
11, 329019, Note_on_c, 5, 81, 0
11, 329040, Note_on_c, 5, 81, 76
11, 329040, Note_on_c, 5, 69, 76
11, 329259, Note_on_c, 5, 81, 0
11, 329259, Note_on_c, 5, 69, 0
11, 329280, Note_on_c, 5, 81, 76
11, 329280, Note_on_c, 5, 69, 76
11, 329499, Note_on_c, 5, 81, 0
11, 329499, Note_on_c, 5, 69, 0
11, 329520, Note_on_c, 5, 81, 76
11, 329520, Note_on_c, 5, 69, 76
11, 329739, Note_on_c, 5, 81, 0
11, 329739, Note_on_c, 5, 69, 0
11, 329760, Note_on_c, 5, 81, 76
11, 329760, Note_on_c, 5, 69, 76
11, 329979, Note_on_c, 5, 81, 0
11, 329979, Note_on_c, 5, 69, 0
11, 330000, Note_on_c, 5, 69, 76
11, 330000, Note_on_c, 5, 81, 76
11, 330219, Note_on_c, 5, 69, 0
11, 330219, Note_on_c, 5, 81, 0
11, 330240, Note_on_c, 5, 69, 76
11, 330240, Note_on_c, 5, 81, 76
11, 330459, Note_on_c, 5, 69, 0
11, 330459, Note_on_c, 5, 81, 0
11, 330480, Note_on_c, 5, 81, 76
11, 330480, Note_on_c, 5, 69, 76
11, 330699, Note_on_c, 5, 81, 0
11, 330699, Note_on_c, 5, 69, 0
11, 330720, Note_on_c, 5, 69, 76
11, 330720, Note_on_c, 5, 81, 76
11, 330939, Note_on_c, 5, 69, 0
11, 330939, Note_on_c, 5, 81, 0
11, 330960, Note_on_c, 5, 69, 76
11, 330960, Note_on_c, 5, 81, 76
11, 331179, Note_on_c, 5, 69, 0
11, 331179, Note_on_c, 5, 81, 0
11, 331200, Note_on_c, 5, 69, 76
11, 331200, Note_on_c, 5, 81, 76
11, 331419, Note_on_c, 5, 69, 0
11, 331419, Note_on_c, 5, 81, 0
11, 331440, Note_on_c, 5, 69, 76
11, 331440, Note_on_c, 5, 81, 76
11, 331659, Note_on_c, 5, 69, 0
11, 331659, Note_on_c, 5, 81, 0
11, 331680, Note_on_c, 5, 69, 84
11, 331680, Note_on_c, 5, 81, 84
11, 335519, Note_on_c, 5, 69, 0
11, 335519, Note_on_c, 5, 81, 0
11, 375600, Note_on_c, 5, 65, 76
11, 375600, Note_on_c, 5, 77, 76
11, 375819, Note_on_c, 5, 65, 0
11, 375819, Note_on_c, 5, 77, 0
11, 375840, Note_on_c, 5, 65, 76
11, 375840, Note_on_c, 5, 77, 76
11, 376059, Note_on_c, 5, 65, 0
11, 376059, Note_on_c, 5, 77, 0
11, 376080, Note_on_c, 5, 77, 76
11, 376080, Note_on_c, 5, 65, 76
11, 376299, Note_on_c, 5, 77, 0
11, 376299, Note_on_c, 5, 65, 0
11, 376320, Note_on_c, 5, 77, 76
11, 376320, Note_on_c, 5, 65, 76
11, 376539, Note_on_c, 5, 77, 0
11, 376539, Note_on_c, 5, 65, 0
11, 376560, Note_on_c, 5, 65, 76
11, 376560, Note_on_c, 5, 77, 76
11, 376779, Note_on_c, 5, 65, 0
11, 376779, Note_on_c, 5, 77, 0
11, 376800, Note_on_c, 5, 77, 76
11, 376800, Note_on_c, 5, 65, 76
11, 377019, Note_on_c, 5, 77, 0
11, 377019, Note_on_c, 5, 65, 0
11, 377040, Note_on_c, 5, 65, 76
11, 377040, Note_on_c, 5, 77, 76
11, 377259, Note_on_c, 5, 65, 0
11, 377259, Note_on_c, 5, 77, 0
11, 377280, Note_on_c, 5, 65, 76
11, 377280, Note_on_c, 5, 77, 76
11, 377499, Note_on_c, 5, 65, 0
11, 377499, Note_on_c, 5, 77, 0
11, 377760, Note_on_c, 5, 77, 76
11, 377760, Note_on_c, 5, 65, 76
11, 377979, Note_on_c, 5, 77, 0
11, 377979, Note_on_c, 5, 65, 0
11, 378000, Note_on_c, 5, 77, 76
11, 378000, Note_on_c, 5, 65, 76
11, 378219, Note_on_c, 5, 77, 0
11, 378219, Note_on_c, 5, 65, 0
11, 378240, Note_on_c, 5, 77, 84
11, 378240, Note_on_c, 5, 65, 84
11, 378479, Note_on_c, 5, 77, 0
11, 378479, Note_on_c, 5, 65, 0
11, 378720, Note_on_c, 5, 77, 76
11, 378720, Note_on_c, 5, 65, 76
11, 378939, Note_on_c, 5, 77, 0
11, 378939, Note_on_c, 5, 65, 0
11, 378960, Note_on_c, 5, 77, 76
11, 378960, Note_on_c, 5, 65, 76
11, 379179, Note_on_c, 5, 77, 0
11, 379179, Note_on_c, 5, 65, 0
11, 379200, Note_on_c, 5, 77, 84
11, 379200, Note_on_c, 5, 65, 84
11, 379439, Note_on_c, 5, 77, 0
11, 379439, Note_on_c, 5, 65, 0
11, 379680, Note_on_c, 5, 65, 76
11, 379680, Note_on_c, 5, 77, 76
11, 379899, Note_on_c, 5, 65, 0
11, 379899, Note_on_c, 5, 77, 0
11, 379920, Note_on_c, 5, 77, 76
11, 379920, Note_on_c, 5, 65, 76
11, 380139, Note_on_c, 5, 77, 0
11, 380139, Note_on_c, 5, 65, 0
11, 380160, Note_on_c, 5, 77, 84
11, 380160, Note_on_c, 5, 65, 84
11, 380399, Note_on_c, 5, 77, 0
11, 380399, Note_on_c, 5, 65, 0
11, 380640, Note_on_c, 5, 65, 76
11, 380640, Note_on_c, 5, 77, 76
11, 380859, Note_on_c, 5, 65, 0
11, 380859, Note_on_c, 5, 77, 0
11, 380880, Note_on_c, 5, 65, 76
11, 380880, Note_on_c, 5, 77, 76
11, 381099, Note_on_c, 5, 65, 0
11, 381099, Note_on_c, 5, 77, 0
11, 381120, Note_on_c, 5, 65, 84
11, 381120, Note_on_c, 5, 77, 84
11, 381359, Note_on_c, 5, 65, 0
11, 381359, Note_on_c, 5, 77, 0
11, 381600, Note_on_c, 5, 77, 76
11, 381600, Note_on_c, 5, 65, 76
11, 381819, Note_on_c, 5, 77, 0
11, 381819, Note_on_c, 5, 65, 0
11, 381840, Note_on_c, 5, 77, 76
11, 381840, Note_on_c, 5, 65, 76
11, 382059, Note_on_c, 5, 77, 0
11, 382059, Note_on_c, 5, 65, 0
11, 382080, Note_on_c, 5, 77, 76
11, 382080, Note_on_c, 5, 65, 76
11, 382319, Note_on_c, 5, 77, 0
11, 382319, Note_on_c, 5, 65, 0
11, 382560, Note_on_c, 5, 60, 76
11, 382560, Note_on_c, 5, 72, 76
11, 382799, Note_on_c, 5, 60, 0
11, 382799, Note_on_c, 5, 72, 0
11, 383040, Note_on_c, 5, 60, 76
11, 383040, Note_on_c, 5, 72, 76
11, 383279, Note_on_c, 5, 60, 0
11, 383279, Note_on_c, 5, 72, 0
11, 383520, Note_on_c, 5, 72, 76
11, 383520, Note_on_c, 5, 60, 76
11, 383759, Note_on_c, 5, 72, 0
11, 383759, Note_on_c, 5, 60, 0
11, 384000, Note_on_c, 5, 72, 76
11, 384000, Note_on_c, 5, 60, 76
11, 384239, Note_on_c, 5, 72, 0
11, 384239, Note_on_c, 5, 60, 0
11, 384480, Note_on_c, 5, 60, 76
11, 384480, Note_on_c, 5, 72, 76
11, 384719, Note_on_c, 5, 60, 0
11, 384719, Note_on_c, 5, 72, 0
11, 384960, Note_on_c, 5, 72, 76
11, 384960, Note_on_c, 5, 60, 76
11, 385199, Note_on_c, 5, 72, 0
11, 385199, Note_on_c, 5, 60, 0
11, 385440, Note_on_c, 5, 72, 76
11, 385440, Note_on_c, 5, 60, 76
11, 385679, Note_on_c, 5, 72, 0
11, 385679, Note_on_c, 5, 60, 0
11, 385920, Note_on_c, 5, 60, 76
11, 385920, Note_on_c, 5, 72, 76
11, 386159, Note_on_c, 5, 60, 0
11, 386159, Note_on_c, 5, 72, 0
11, 386400, Note_on_c, 5, 72, 76
11, 386400, Note_on_c, 5, 60, 76
11, 386639, Note_on_c, 5, 72, 0
11, 386639, Note_on_c, 5, 60, 0
11, 386880, Note_on_c, 5, 60, 76
11, 386880, Note_on_c, 5, 72, 76
11, 387119, Note_on_c, 5, 60, 0
11, 387119, Note_on_c, 5, 72, 0
11, 387360, Note_on_c, 5, 60, 76
11, 387360, Note_on_c, 5, 72, 76
11, 387599, Note_on_c, 5, 60, 0
11, 387599, Note_on_c, 5, 72, 0
11, 387840, Note_on_c, 5, 72, 84
11, 387840, Note_on_c, 5, 60, 84
11, 388059, Note_on_c, 5, 72, 0
11, 388059, Note_on_c, 5, 60, 0
11, 388080, Note_on_c, 5, 60, 76
11, 388080, Note_on_c, 5, 72, 76
11, 388299, Note_on_c, 5, 60, 0
11, 388299, Note_on_c, 5, 72, 0
11, 388320, Note_on_c, 5, 60, 84
11, 388320, Note_on_c, 5, 72, 84
11, 388539, Note_on_c, 5, 60, 0
11, 388539, Note_on_c, 5, 72, 0
11, 388560, Note_on_c, 5, 60, 76
11, 388560, Note_on_c, 5, 72, 76
11, 388779, Note_on_c, 5, 60, 0
11, 388779, Note_on_c, 5, 72, 0
11, 388800, Note_on_c, 5, 72, 84
11, 388800, Note_on_c, 5, 60, 84
11, 389019, Note_on_c, 5, 72, 0
11, 389019, Note_on_c, 5, 60, 0
11, 389040, Note_on_c, 5, 72, 76
11, 389040, Note_on_c, 5, 60, 76
11, 389259, Note_on_c, 5, 72, 0
11, 389259, Note_on_c, 5, 60, 0
11, 389280, Note_on_c, 5, 72, 84
11, 389280, Note_on_c, 5, 60, 84
11, 389499, Note_on_c, 5, 72, 0
11, 389499, Note_on_c, 5, 60, 0
11, 389520, Note_on_c, 5, 60, 76
11, 389520, Note_on_c, 5, 72, 76
11, 389739, Note_on_c, 5, 60, 0
11, 389739, Note_on_c, 5, 72, 0
11, 389760, Note_on_c, 5, 60, 84
11, 389760, Note_on_c, 5, 72, 84
11, 389979, Note_on_c, 5, 60, 0
11, 389979, Note_on_c, 5, 72, 0
11, 390000, Note_on_c, 5, 72, 76
11, 390000, Note_on_c, 5, 60, 76
11, 390219, Note_on_c, 5, 72, 0
11, 390219, Note_on_c, 5, 60, 0
11, 390240, Note_on_c, 5, 60, 84
11, 390240, Note_on_c, 5, 72, 84
11, 390459, Note_on_c, 5, 60, 0
11, 390459, Note_on_c, 5, 72, 0
11, 390480, Note_on_c, 5, 60, 76
11, 390480, Note_on_c, 5, 72, 76
11, 390699, Note_on_c, 5, 60, 0
11, 390699, Note_on_c, 5, 72, 0
11, 390720, Note_on_c, 5, 72, 84
11, 390720, Note_on_c, 5, 60, 84
11, 390939, Note_on_c, 5, 72, 0
11, 390939, Note_on_c, 5, 60, 0
11, 390960, Note_on_c, 5, 72, 76
11, 390960, Note_on_c, 5, 60, 76
11, 391179, Note_on_c, 5, 72, 0
11, 391179, Note_on_c, 5, 60, 0
11, 391200, Note_on_c, 5, 60, 84
11, 391200, Note_on_c, 5, 72, 84
11, 391419, Note_on_c, 5, 60, 0
11, 391419, Note_on_c, 5, 72, 0
11, 391440, Note_on_c, 5, 60, 76
11, 391440, Note_on_c, 5, 72, 76
11, 391659, Note_on_c, 5, 60, 0
11, 391659, Note_on_c, 5, 72, 0
11, 391680, Note_on_c, 5, 60, 76
11, 391680, Note_on_c, 5, 72, 76
11, 391760, Control_c, 5, 11, 80
11, 393579, Note_on_c, 5, 60, 0
11, 393579, Note_on_c, 5, 72, 0
11, 393600, Note_on_c, 5, 72, 76
11, 393600, Note_on_c, 5, 60, 76
11, 394059, Note_on_c, 5, 72, 0
11, 394059, Note_on_c, 5, 60, 0
11, 394080, Note_on_c, 5, 60, 76
11, 394080, Note_on_c, 5, 72, 76
11, 394539, Note_on_c, 5, 60, 0
11, 394539, Note_on_c, 5, 72, 0
11, 394560, Note_on_c, 5, 72, 76
11, 394560, Note_on_c, 5, 60, 76
11, 395019, Note_on_c, 5, 72, 0
11, 395019, Note_on_c, 5, 60, 0
11, 395040, Note_on_c, 5, 72, 76
11, 395040, Note_on_c, 5, 60, 76
11, 395499, Note_on_c, 5, 72, 0
11, 395499, Note_on_c, 5, 60, 0
11, 395520, Note_on_c, 5, 60, 76
11, 395520, Note_on_c, 5, 72, 76
11, 397419, Note_on_c, 5, 60, 0
11, 397419, Note_on_c, 5, 72, 0
11, 397440, Note_on_c, 5, 60, 76
11, 397440, Note_on_c, 5, 72, 76
11, 397899, Note_on_c, 5, 60, 0
11, 397899, Note_on_c, 5, 72, 0
11, 397920, Note_on_c, 5, 72, 76
11, 397920, Note_on_c, 5, 60, 76
11, 398379, Note_on_c, 5, 72, 0
11, 398379, Note_on_c, 5, 60, 0
11, 398400, Note_on_c, 5, 60, 76
11, 398400, Note_on_c, 5, 72, 76
11, 398859, Note_on_c, 5, 60, 0
11, 398859, Note_on_c, 5, 72, 0
11, 398880, Note_on_c, 5, 60, 76
11, 398880, Note_on_c, 5, 72, 76
11, 399339, Note_on_c, 5, 60, 0
11, 399339, Note_on_c, 5, 72, 0
11, 399358, Control_c, 5, 11, 127
11, 399360, Note_on_c, 5, 60, 76
11, 399360, Note_on_c, 5, 72, 76
11, 399599, Note_on_c, 5, 60, 0
11, 399599, Note_on_c, 5, 72, 0
11, 399840, Note_on_c, 5, 65, 76
11, 399840, Note_on_c, 5, 77, 76
11, 400079, Note_on_c, 5, 65, 0
11, 400079, Note_on_c, 5, 77, 0
11, 400800, Note_on_c, 5, 65, 76
11, 400800, Note_on_c, 5, 77, 76
11, 401039, Note_on_c, 5, 65, 0
11, 401039, Note_on_c, 5, 77, 0
11, 401760, Note_on_c, 5, 65, 76
11, 401760, Note_on_c, 5, 77, 76
11, 401999, Note_on_c, 5, 65, 0
11, 401999, Note_on_c, 5, 77, 0
11, 402720, Note_on_c, 5, 60, 76
11, 402720, Note_on_c, 5, 72, 76
11, 402959, Note_on_c, 5, 60, 0
11, 402959, Note_on_c, 5, 72, 0
11, 410880, Note_on_c, 5, 65, 76
11, 410880, Note_on_c, 5, 77, 76
11, 411119, Note_on_c, 5, 65, 0
11, 411119, Note_on_c, 5, 77, 0
11, 411360, Note_on_c, 5, 65, 76
11, 411360, Note_on_c, 5, 77, 76
11, 411599, Note_on_c, 5, 65, 0
11, 411599, Note_on_c, 5, 77, 0
11, 412320, Note_on_c, 5, 65, 76
11, 412320, Note_on_c, 5, 77, 76
11, 412559, Note_on_c, 5, 65, 0
11, 412559, Note_on_c, 5, 77, 0
11, 413280, Note_on_c, 5, 65, 76
11, 413280, Note_on_c, 5, 77, 76
11, 413519, Note_on_c, 5, 65, 0
11, 413519, Note_on_c, 5, 77, 0
11, 414240, Note_on_c, 5, 60, 76
11, 414240, Note_on_c, 5, 72, 76
11, 414479, Note_on_c, 5, 60, 0
11, 414479, Note_on_c, 5, 72, 0
11, 414720, Note_on_c, 5, 75, 84
11, 418319, Note_on_c, 5, 75, 0
11, 419040, Note_on_c, 5, 79, 84
11, 419279, Note_on_c, 5, 79, 0
11, 419520, Note_on_c, 5, 72, 84
11, 419520, Note_on_c, 5, 79, 84
11, 419759, Note_on_c, 5, 72, 0
11, 419759, Note_on_c, 5, 79, 0
11, 420000, Note_on_c, 5, 60, 84
11, 420000, Note_on_c, 5, 72, 84
11, 420239, Note_on_c, 5, 60, 0
11, 420239, Note_on_c, 5, 72, 0
11, 424800, Note_on_c, 5, 60, 76
11, 424800, Note_on_c, 5, 72, 76
11, 425259, Note_on_c, 5, 60, 0
11, 425259, Note_on_c, 5, 72, 0
11, 425280, Note_on_c, 5, 60, 76
11, 425280, Note_on_c, 5, 72, 76
11, 425739, Note_on_c, 5, 60, 0
11, 425739, Note_on_c, 5, 72, 0
11, 425760, Note_on_c, 5, 72, 76
11, 425760, Note_on_c, 5, 60, 76
11, 426219, Note_on_c, 5, 72, 0
11, 426219, Note_on_c, 5, 60, 0
11, 426240, Note_on_c, 5, 60, 76
11, 426240, Note_on_c, 5, 72, 76
11, 426699, Note_on_c, 5, 60, 0
11, 426699, Note_on_c, 5, 72, 0
11, 426720, Note_on_c, 5, 72, 76
11, 426720, Note_on_c, 5, 60, 76
11, 427179, Note_on_c, 5, 72, 0
11, 427179, Note_on_c, 5, 60, 0
11, 427200, Note_on_c, 5, 60, 76
11, 427200, Note_on_c, 5, 72, 76
11, 427659, Note_on_c, 5, 60, 0
11, 427659, Note_on_c, 5, 72, 0
11, 427680, Note_on_c, 5, 72, 76
11, 427680, Note_on_c, 5, 60, 76
11, 428139, Note_on_c, 5, 72, 0
11, 428139, Note_on_c, 5, 60, 0
11, 428160, Note_on_c, 5, 60, 76
11, 428160, Note_on_c, 5, 72, 76
11, 428619, Note_on_c, 5, 60, 0
11, 428619, Note_on_c, 5, 72, 0
11, 428640, Note_on_c, 5, 60, 76
11, 428640, Note_on_c, 5, 72, 76
11, 429099, Note_on_c, 5, 60, 0
11, 429099, Note_on_c, 5, 72, 0
11, 429120, Note_on_c, 5, 60, 76
11, 429120, Note_on_c, 5, 72, 76
11, 429579, Note_on_c, 5, 60, 0
11, 429579, Note_on_c, 5, 72, 0
11, 429600, Note_on_c, 5, 60, 76
11, 429600, Note_on_c, 5, 72, 76
11, 430059, Note_on_c, 5, 60, 0
11, 430059, Note_on_c, 5, 72, 0
11, 430080, Note_on_c, 5, 72, 76
11, 430080, Note_on_c, 5, 60, 76
11, 430539, Note_on_c, 5, 72, 0
11, 430539, Note_on_c, 5, 60, 0
11, 430560, Note_on_c, 5, 60, 76
11, 430560, Note_on_c, 5, 72, 76
11, 431019, Note_on_c, 5, 60, 0
11, 431019, Note_on_c, 5, 72, 0
11, 431040, Note_on_c, 5, 72, 76
11, 431040, Note_on_c, 5, 60, 76
11, 431499, Note_on_c, 5, 72, 0
11, 431499, Note_on_c, 5, 60, 0
11, 431520, Note_on_c, 5, 72, 76
11, 431520, Note_on_c, 5, 60, 76
11, 431979, Note_on_c, 5, 72, 0
11, 431979, Note_on_c, 5, 60, 0
11, 432000, Note_on_c, 5, 65, 84
11, 432000, Note_on_c, 5, 77, 84
11, 432080, Control_c, 5, 11, 112
11, 432939, Note_on_c, 5, 65, 0
11, 432939, Note_on_c, 5, 77, 0
11, 432958, Control_c, 5, 11, 127
11, 432960, Note_on_c, 5, 69, 84
11, 432960, Note_on_c, 5, 65, 84
11, 433040, Control_c, 5, 11, 112
11, 433899, Note_on_c, 5, 69, 0
11, 433899, Note_on_c, 5, 65, 0
11, 433918, Control_c, 5, 11, 127
11, 433920, Note_on_c, 5, 69, 84
11, 433920, Note_on_c, 5, 81, 84
11, 434000, Control_c, 5, 11, 112
11, 434859, Note_on_c, 5, 69, 0
11, 434859, Note_on_c, 5, 81, 0
11, 434878, Control_c, 5, 11, 127
11, 434880, Note_on_c, 5, 65, 84
11, 434880, Note_on_c, 5, 69, 84
11, 434960, Control_c, 5, 11, 112
11, 435819, Note_on_c, 5, 65, 0
11, 435819, Note_on_c, 5, 69, 0
11, 436318, Control_c, 5, 11, 127
11, 436320, Note_on_c, 5, 81, 84
11, 436320, Note_on_c, 5, 69, 84
11, 436400, Control_c, 5, 11, 112
11, 436779, Note_on_c, 5, 81, 0
11, 436779, Note_on_c, 5, 69, 0
11, 437278, Control_c, 5, 11, 127
11, 437280, Note_on_c, 5, 81, 84
11, 437280, Note_on_c, 5, 69, 84
11, 437360, Control_c, 5, 11, 112
11, 437739, Note_on_c, 5, 81, 0
11, 437739, Note_on_c, 5, 69, 0
11, 438238, Control_c, 5, 11, 127
11, 438240, Note_on_c, 5, 81, 84
11, 438240, Note_on_c, 5, 69, 84
11, 438320, Control_c, 5, 11, 112
11, 438699, Note_on_c, 5, 81, 0
11, 438699, Note_on_c, 5, 69, 0
11, 439198, Control_c, 5, 11, 127
11, 439200, Note_on_c, 5, 69, 84
11, 439200, Note_on_c, 5, 81, 84
11, 439280, Control_c, 5, 11, 112
11, 439659, Note_on_c, 5, 69, 0
11, 439659, Note_on_c, 5, 81, 0
11, 439678, Control_c, 5, 11, 127
11, 439680, Note_on_c, 5, 81, 76
11, 439680, Note_on_c, 5, 77, 76
11, 439919, Note_on_c, 5, 81, 0
11, 439919, Note_on_c, 5, 77, 0
11, 457920, Control_c, 5, 11, 80
11, 458880, Note_on_c, 5, 72, 76
11, 458880, Note_on_c, 5, 60, 76
11, 459040, Control_c, 5, 11, 84
11, 459200, Control_c, 5, 11, 88
11, 459360, Control_c, 5, 11, 92
11, 459520, Control_c, 5, 11, 96
11, 459680, Control_c, 5, 11, 100
11, 459840, Control_c, 5, 11, 104
11, 460000, Control_c, 5, 11, 107
11, 460160, Control_c, 5, 11, 111
11, 460320, Control_c, 5, 11, 115
11, 460480, Control_c, 5, 11, 119
11, 460640, Control_c, 5, 11, 127
11, 460779, Note_on_c, 5, 72, 0
11, 460779, Note_on_c, 5, 60, 0
11, 460800, Note_on_c, 5, 77, 76
11, 460800, Note_on_c, 5, 69, 76
11, 462699, Note_on_c, 5, 77, 0
11, 462699, Note_on_c, 5, 69, 0
11, 462720, Note_on_c, 5, 69, 76
11, 462720, Note_on_c, 5, 77, 76
11, 462959, Note_on_c, 5, 69, 0
11, 462959, Note_on_c, 5, 77, 0
11, 463680, Note_on_c, 5, 79, 76
11, 463680, Note_on_c, 5, 72, 76
11, 463919, Note_on_c, 5, 79, 0
11, 463919, Note_on_c, 5, 72, 0
11, 464640, Note_on_c, 5, 69, 76
11, 464640, Note_on_c, 5, 77, 76
11, 464879, Note_on_c, 5, 69, 0
11, 464879, Note_on_c, 5, 77, 0
11, 465600, Note_on_c, 5, 79, 76
11, 465600, Note_on_c, 5, 72, 76
11, 465839, Note_on_c, 5, 79, 0
11, 465839, Note_on_c, 5, 72, 0
11, 466560, Note_on_c, 5, 69, 76
11, 466560, Note_on_c, 5, 77, 76
11, 466799, Note_on_c, 5, 69, 0
11, 466799, Note_on_c, 5, 77, 0
11, 467040, Note_on_c, 5, 79, 76
11, 467040, Note_on_c, 5, 72, 76
11, 467279, Note_on_c, 5, 79, 0
11, 467279, Note_on_c, 5, 72, 0
11, 467520, Note_on_c, 5, 69, 76
11, 467520, Note_on_c, 5, 77, 76
11, 467759, Note_on_c, 5, 69, 0
11, 467759, Note_on_c, 5, 77, 0
11, 468000, Note_on_c, 5, 72, 76
11, 468000, Note_on_c, 5, 79, 76
11, 468239, Note_on_c, 5, 72, 0
11, 468239, Note_on_c, 5, 79, 0
11, 468480, Note_on_c, 5, 77, 76
11, 468480, Note_on_c, 5, 69, 76
11, 468719, Note_on_c, 5, 77, 0
11, 468719, Note_on_c, 5, 69, 0
11, 468960, Note_on_c, 5, 72, 76
11, 468960, Note_on_c, 5, 79, 76
11, 469199, Note_on_c, 5, 72, 0
11, 469199, Note_on_c, 5, 79, 0
11, 469440, Note_on_c, 5, 69, 76
11, 469440, Note_on_c, 5, 77, 76
11, 469679, Note_on_c, 5, 69, 0
11, 469679, Note_on_c, 5, 77, 0
11, 469920, Note_on_c, 5, 72, 76
11, 469920, Note_on_c, 5, 79, 76
11, 470159, Note_on_c, 5, 72, 0
11, 470159, Note_on_c, 5, 79, 0
11, 470400, Note_on_c, 5, 69, 84
11, 470400, Note_on_c, 5, 81, 84
11, 472299, Note_on_c, 5, 69, 0
11, 472299, Note_on_c, 5, 81, 0
11, 472320, Note_on_c, 5, 81, 84
11, 472320, Note_on_c, 5, 69, 84
11, 472559, Note_on_c, 5, 81, 0
11, 472559, Note_on_c, 5, 69, 0
11, 473280, Note_on_c, 5, 81, 84
11, 473280, Note_on_c, 5, 69, 84
11, 473519, Note_on_c, 5, 81, 0
11, 473519, Note_on_c, 5, 69, 0
11, 474240, Note_on_c, 5, 81, 84
11, 474240, Note_on_c, 5, 69, 84
11, 474479, Note_on_c, 5, 81, 0
11, 474479, Note_on_c, 5, 69, 0
11, 475200, Note_on_c, 5, 69, 84
11, 475200, Note_on_c, 5, 81, 84
11, 475439, Note_on_c, 5, 69, 0
11, 475439, Note_on_c, 5, 81, 0
11, 476160, Note_on_c, 5, 81, 84
11, 476160, Note_on_c, 5, 69, 84
11, 476399, Note_on_c, 5, 81, 0
11, 476399, Note_on_c, 5, 69, 0
11, 476640, Note_on_c, 5, 69, 84
11, 476640, Note_on_c, 5, 81, 84
11, 476879, Note_on_c, 5, 69, 0
11, 476879, Note_on_c, 5, 81, 0
11, 477120, Note_on_c, 5, 81, 84
11, 477120, Note_on_c, 5, 69, 84
11, 477359, Note_on_c, 5, 81, 0
11, 477359, Note_on_c, 5, 69, 0
11, 477600, Note_on_c, 5, 69, 84
11, 477600, Note_on_c, 5, 81, 84
11, 477839, Note_on_c, 5, 69, 0
11, 477839, Note_on_c, 5, 81, 0
11, 478080, Note_on_c, 5, 81, 84
11, 478080, Note_on_c, 5, 69, 84
11, 478319, Note_on_c, 5, 81, 0
11, 478319, Note_on_c, 5, 69, 0
11, 478560, Note_on_c, 5, 60, 84
11, 478799, Note_on_c, 5, 60, 0
11, 479040, Note_on_c, 5, 65, 84
11, 479279, Note_on_c, 5, 65, 0
11, 479520, Note_on_c, 5, 69, 84
11, 479759, Note_on_c, 5, 69, 0
11, 480000, Note_on_c, 5, 72, 84
11, 480239, Note_on_c, 5, 72, 0
11, 480960, Note_on_c, 5, 77, 84
11, 481199, Note_on_c, 5, 77, 0
11, 481920, Note_on_c, 5, 65, 84
11, 482159, Note_on_c, 5, 65, 0
11, 482159, End_track
12, 0, Start_track
12, 0, Title_t, "Timpani"
12, 0, MIDI_port, 0
12, 0, Program_c, 6, 47
12, 0, Control_c, 6, 7, 96
12, 0, Control_c, 6, 10, 25
12, 0, Control_c, 6, 11, 127
12, 17760, Note_on_c, 6, 41, 84
12, 17919, Note_on_c, 6, 41, 0
12, 17920, Note_on_c, 6, 41, 84
12, 18079, Note_on_c, 6, 41, 0
12, 18080, Note_on_c, 6, 41, 84
12, 18239, Note_on_c, 6, 41, 0
12, 18240, Note_on_c, 6, 53, 84
12, 18479, Note_on_c, 6, 53, 0
12, 18480, Note_on_c, 6, 53, 84
12, 18719, Note_on_c, 6, 53, 0
12, 18720, Note_on_c, 6, 53, 84
12, 18959, Note_on_c, 6, 53, 0
12, 18960, Note_on_c, 6, 53, 84
12, 19199, Note_on_c, 6, 53, 0
12, 19200, Note_on_c, 6, 53, 84
12, 19439, Note_on_c, 6, 53, 0
12, 19440, Note_on_c, 6, 53, 84
12, 19679, Note_on_c, 6, 53, 0
12, 19680, Note_on_c, 6, 41, 84
12, 19839, Note_on_c, 6, 41, 0
12, 19840, Note_on_c, 6, 41, 84
12, 19999, Note_on_c, 6, 41, 0
12, 20000, Note_on_c, 6, 41, 84
12, 20159, Note_on_c, 6, 41, 0
12, 20160, Note_on_c, 6, 41, 84
12, 20399, Note_on_c, 6, 41, 0
12, 20400, Note_on_c, 6, 53, 84
12, 20639, Note_on_c, 6, 53, 0
12, 20640, Note_on_c, 6, 53, 84
12, 20879, Note_on_c, 6, 53, 0
12, 20880, Note_on_c, 6, 53, 84
12, 21119, Note_on_c, 6, 53, 0
12, 21120, Note_on_c, 6, 53, 84
12, 21359, Note_on_c, 6, 53, 0
12, 21360, Note_on_c, 6, 53, 84
12, 21599, Note_on_c, 6, 53, 0
12, 21600, Note_on_c, 6, 41, 84
12, 21839, Note_on_c, 6, 41, 0
12, 21960, Note_on_c, 6, 41, 84
12, 22079, Note_on_c, 6, 41, 0
12, 22080, Note_on_c, 6, 53, 84
12, 22319, Note_on_c, 6, 53, 0
12, 24720, Note_on_c, 6, 53, 84
12, 24959, Note_on_c, 6, 53, 0
12, 24960, Note_on_c, 6, 53, 84
12, 25199, Note_on_c, 6, 53, 0
12, 25440, Note_on_c, 6, 53, 84
12, 25679, Note_on_c, 6, 53, 0
12, 25680, Note_on_c, 6, 53, 84
12, 25919, Note_on_c, 6, 53, 0
12, 25920, Note_on_c, 6, 53, 84
12, 26159, Note_on_c, 6, 53, 0
12, 26160, Note_on_c, 6, 53, 84
12, 26399, Note_on_c, 6, 53, 0
12, 26880, Note_on_c, 6, 41, 84
12, 27119, Note_on_c, 6, 41, 0
12, 27840, Note_on_c, 6, 41, 84
12, 28079, Note_on_c, 6, 41, 0
12, 30720, Note_on_c, 6, 53, 84
12, 30959, Note_on_c, 6, 53, 0
12, 31680, Note_on_c, 6, 53, 84
12, 31919, Note_on_c, 6, 53, 0
12, 34560, Note_on_c, 6, 41, 84
12, 34799, Note_on_c, 6, 41, 0
12, 36480, Note_on_c, 6, 53, 84
12, 36719, Note_on_c, 6, 53, 0
12, 37440, Note_on_c, 6, 53, 84
12, 37679, Note_on_c, 6, 53, 0
12, 73920, Note_on_c, 6, 53, 76
12, 74159, Note_on_c, 6, 53, 0
12, 75840, Note_on_c, 6, 53, 76
12, 76079, Note_on_c, 6, 53, 0
12, 79680, Note_on_c, 6, 53, 76
12, 79919, Note_on_c, 6, 53, 0
12, 84480, Note_on_c, 6, 41, 84
12, 84599, Note_on_c, 6, 41, 0
12, 84600, Note_on_c, 6, 41, 84
12, 84719, Note_on_c, 6, 41, 0
12, 84720, Note_on_c, 6, 41, 84
12, 84839, Note_on_c, 6, 41, 0
12, 84840, Note_on_c, 6, 41, 84
12, 84959, Note_on_c, 6, 41, 0
12, 84960, Note_on_c, 6, 41, 84
12, 85079, Note_on_c, 6, 41, 0
12, 85080, Note_on_c, 6, 41, 84
12, 85199, Note_on_c, 6, 41, 0
12, 85200, Note_on_c, 6, 41, 84
12, 85319, Note_on_c, 6, 41, 0
12, 85320, Note_on_c, 6, 41, 84
12, 85439, Note_on_c, 6, 41, 0
12, 85440, Note_on_c, 6, 41, 84
12, 85559, Note_on_c, 6, 41, 0
12, 85560, Note_on_c, 6, 41, 84
12, 85679, Note_on_c, 6, 41, 0
12, 85680, Note_on_c, 6, 41, 84
12, 85799, Note_on_c, 6, 41, 0
12, 85800, Note_on_c, 6, 41, 84
12, 85919, Note_on_c, 6, 41, 0
12, 85920, Note_on_c, 6, 41, 84
12, 86039, Note_on_c, 6, 41, 0
12, 86040, Note_on_c, 6, 41, 84
12, 86159, Note_on_c, 6, 41, 0
12, 86160, Note_on_c, 6, 41, 84
12, 86279, Note_on_c, 6, 41, 0
12, 86280, Note_on_c, 6, 41, 84
12, 86399, Note_on_c, 6, 41, 0
12, 86400, Note_on_c, 6, 41, 84
12, 86639, Note_on_c, 6, 41, 0
12, 121440, Note_on_c, 6, 53, 76
12, 121679, Note_on_c, 6, 53, 0
12, 132960, Note_on_c, 6, 53, 76
12, 133199, Note_on_c, 6, 53, 0
12, 140400, Note_on_c, 6, 41, 76
12, 140639, Note_on_c, 6, 41, 0
12, 140640, Note_on_c, 6, 53, 76
12, 140879, Note_on_c, 6, 53, 0
12, 140880, Note_on_c, 6, 53, 76
12, 141119, Note_on_c, 6, 53, 0
12, 151200, Note_on_c, 6, 41, 44
12, 151439, Note_on_c, 6, 41, 0
12, 151440, Note_on_c, 6, 53, 44
12, 151679, Note_on_c, 6, 53, 0
12, 151680, Note_on_c, 6, 41, 44
12, 151919, Note_on_c, 6, 41, 0
12, 151920, Note_on_c, 6, 53, 44
12, 152159, Note_on_c, 6, 53, 0
12, 152160, Note_on_c, 6, 41, 44
12, 152399, Note_on_c, 6, 41, 0
12, 152400, Note_on_c, 6, 53, 44
12, 152639, Note_on_c, 6, 53, 0
12, 152640, Note_on_c, 6, 41, 44
12, 152879, Note_on_c, 6, 41, 0
12, 152880, Note_on_c, 6, 53, 44
12, 153119, Note_on_c, 6, 53, 0
12, 153120, Note_on_c, 6, 41, 44
12, 153359, Note_on_c, 6, 41, 0
12, 153360, Note_on_c, 6, 53, 44
12, 153599, Note_on_c, 6, 53, 0
12, 153600, Note_on_c, 6, 41, 44
12, 153839, Note_on_c, 6, 41, 0
12, 153840, Note_on_c, 6, 53, 44
12, 154079, Note_on_c, 6, 53, 0
12, 154080, Note_on_c, 6, 41, 44
12, 154319, Note_on_c, 6, 41, 0
12, 154320, Note_on_c, 6, 53, 44
12, 154559, Note_on_c, 6, 53, 0
12, 154560, Note_on_c, 6, 41, 44
12, 154799, Note_on_c, 6, 41, 0
12, 154800, Note_on_c, 6, 53, 44
12, 155039, Note_on_c, 6, 53, 0
12, 155040, Note_on_c, 6, 41, 44
12, 155279, Note_on_c, 6, 41, 0
12, 155280, Note_on_c, 6, 53, 44
12, 155519, Note_on_c, 6, 53, 0
12, 155520, Note_on_c, 6, 41, 44
12, 155759, Note_on_c, 6, 41, 0
12, 155760, Note_on_c, 6, 53, 44
12, 155999, Note_on_c, 6, 53, 0
12, 156000, Note_on_c, 6, 41, 44
12, 156239, Note_on_c, 6, 41, 0
12, 156240, Note_on_c, 6, 53, 44
12, 156479, Note_on_c, 6, 53, 0
12, 156480, Note_on_c, 6, 41, 44
12, 156719, Note_on_c, 6, 41, 0
12, 156720, Note_on_c, 6, 53, 44
12, 156959, Note_on_c, 6, 53, 0
12, 156960, Note_on_c, 6, 41, 44
12, 157199, Note_on_c, 6, 41, 0
12, 157200, Note_on_c, 6, 53, 44
12, 157439, Note_on_c, 6, 53, 0
12, 157440, Note_on_c, 6, 41, 44
12, 157679, Note_on_c, 6, 41, 0
12, 157680, Note_on_c, 6, 53, 44
12, 157919, Note_on_c, 6, 53, 0
12, 157920, Note_on_c, 6, 41, 44
12, 158159, Note_on_c, 6, 41, 0
12, 158160, Note_on_c, 6, 53, 44
12, 158399, Note_on_c, 6, 53, 0
12, 158400, Note_on_c, 6, 41, 44
12, 158639, Note_on_c, 6, 41, 0
12, 158640, Note_on_c, 6, 53, 44
12, 158879, Note_on_c, 6, 53, 0
12, 158880, Note_on_c, 6, 41, 44
12, 159119, Note_on_c, 6, 41, 0
12, 159120, Note_on_c, 6, 53, 44
12, 159359, Note_on_c, 6, 53, 0
12, 172320, Note_on_c, 6, 41, 84
12, 172479, Note_on_c, 6, 41, 0
12, 172480, Note_on_c, 6, 41, 84
12, 172639, Note_on_c, 6, 41, 0
12, 172640, Note_on_c, 6, 41, 84
12, 172799, Note_on_c, 6, 41, 0
12, 172800, Note_on_c, 6, 53, 84
12, 173039, Note_on_c, 6, 53, 0
12, 173040, Note_on_c, 6, 53, 84
12, 173279, Note_on_c, 6, 53, 0
12, 173280, Note_on_c, 6, 53, 84
12, 173519, Note_on_c, 6, 53, 0
12, 173520, Note_on_c, 6, 53, 84
12, 173759, Note_on_c, 6, 53, 0
12, 173760, Note_on_c, 6, 53, 84
12, 173999, Note_on_c, 6, 53, 0
12, 174000, Note_on_c, 6, 53, 84
12, 174239, Note_on_c, 6, 53, 0
12, 174240, Note_on_c, 6, 41, 84
12, 174399, Note_on_c, 6, 41, 0
12, 174400, Note_on_c, 6, 41, 84
12, 174559, Note_on_c, 6, 41, 0
12, 174560, Note_on_c, 6, 41, 84
12, 174719, Note_on_c, 6, 41, 0
12, 174720, Note_on_c, 6, 41, 84
12, 174959, Note_on_c, 6, 41, 0
12, 174960, Note_on_c, 6, 53, 84
12, 175199, Note_on_c, 6, 53, 0
12, 175200, Note_on_c, 6, 53, 84
12, 175439, Note_on_c, 6, 53, 0
12, 175440, Note_on_c, 6, 53, 84
12, 175679, Note_on_c, 6, 53, 0
12, 175680, Note_on_c, 6, 53, 84
12, 175919, Note_on_c, 6, 53, 0
12, 175920, Note_on_c, 6, 53, 84
12, 176159, Note_on_c, 6, 53, 0
12, 176160, Note_on_c, 6, 41, 84
12, 176399, Note_on_c, 6, 41, 0
12, 176520, Note_on_c, 6, 41, 84
12, 176639, Note_on_c, 6, 41, 0
12, 176640, Note_on_c, 6, 53, 84
12, 176879, Note_on_c, 6, 53, 0
12, 179280, Note_on_c, 6, 53, 84
12, 179519, Note_on_c, 6, 53, 0
12, 179520, Note_on_c, 6, 53, 84
12, 179759, Note_on_c, 6, 53, 0
12, 180000, Note_on_c, 6, 53, 84
12, 180239, Note_on_c, 6, 53, 0
12, 180240, Note_on_c, 6, 53, 84
12, 180479, Note_on_c, 6, 53, 0
12, 180480, Note_on_c, 6, 53, 84
12, 180719, Note_on_c, 6, 53, 0
12, 180720, Note_on_c, 6, 53, 84
12, 180959, Note_on_c, 6, 53, 0
12, 181440, Note_on_c, 6, 41, 84
12, 181679, Note_on_c, 6, 41, 0
12, 182400, Note_on_c, 6, 41, 84
12, 182639, Note_on_c, 6, 41, 0
12, 185280, Note_on_c, 6, 53, 84
12, 185519, Note_on_c, 6, 53, 0
12, 186240, Note_on_c, 6, 53, 84
12, 186479, Note_on_c, 6, 53, 0
12, 189120, Note_on_c, 6, 53, 84
12, 189359, Note_on_c, 6, 53, 0
12, 190080, Note_on_c, 6, 41, 84
12, 190319, Note_on_c, 6, 41, 0
12, 192960, Note_on_c, 6, 41, 84
12, 193199, Note_on_c, 6, 41, 0
12, 193920, Note_on_c, 6, 53, 84
12, 194159, Note_on_c, 6, 53, 0
12, 202560, Note_on_c, 6, 41, 84
12, 202799, Note_on_c, 6, 41, 0
12, 204480, Note_on_c, 6, 53, 84
12, 204719, Note_on_c, 6, 53, 0
12, 228480, Note_on_c, 6, 53, 44
12, 228719, Note_on_c, 6, 53, 0
12, 228960, Note_on_c, 6, 53, 44
12, 229199, Note_on_c, 6, 53, 0
12, 229440, Note_on_c, 6, 53, 44
12, 229679, Note_on_c, 6, 53, 0
12, 229920, Note_on_c, 6, 53, 44
12, 230159, Note_on_c, 6, 53, 0
12, 230400, Note_on_c, 6, 53, 44
12, 230639, Note_on_c, 6, 53, 0
12, 232320, Note_on_c, 6, 53, 44
12, 232559, Note_on_c, 6, 53, 0
12, 232800, Note_on_c, 6, 53, 44
12, 233039, Note_on_c, 6, 53, 0
12, 233280, Note_on_c, 6, 53, 44
12, 233519, Note_on_c, 6, 53, 0
12, 233760, Note_on_c, 6, 53, 44
12, 233999, Note_on_c, 6, 53, 0
12, 234240, Note_on_c, 6, 53, 44
12, 234479, Note_on_c, 6, 53, 0
12, 241920, Note_on_c, 6, 41, 76
12, 242159, Note_on_c, 6, 41, 0
12, 242160, Note_on_c, 6, 41, 76
12, 242399, Note_on_c, 6, 41, 0
12, 243840, Note_on_c, 6, 53, 76
12, 244079, Note_on_c, 6, 53, 0
12, 244080, Note_on_c, 6, 53, 76
12, 244319, Note_on_c, 6, 53, 0
12, 244560, Note_on_c, 6, 53, 76
12, 244799, Note_on_c, 6, 53, 0
12, 244800, Note_on_c, 6, 53, 76
12, 245039, Note_on_c, 6, 53, 0
12, 245040, Note_on_c, 6, 53, 76
12, 245279, Note_on_c, 6, 53, 0
12, 246480, Note_on_c, 6, 53, 76
12, 246719, Note_on_c, 6, 53, 0
12, 246720, Note_on_c, 6, 53, 76
12, 246959, Note_on_c, 6, 53, 0
12, 246960, Note_on_c, 6, 53, 76
12, 247199, Note_on_c, 6, 53, 0
12, 247200, Note_on_c, 6, 53, 76
12, 247439, Note_on_c, 6, 53, 0
12, 247680, Note_on_c, 6, 53, 76
12, 247919, Note_on_c, 6, 53, 0
12, 247920, Note_on_c, 6, 53, 76
12, 248159, Note_on_c, 6, 53, 0
12, 248160, Note_on_c, 6, 53, 76
12, 248399, Note_on_c, 6, 53, 0
12, 253440, Note_on_c, 6, 53, 84
12, 253559, Note_on_c, 6, 53, 0
12, 253560, Note_on_c, 6, 53, 84
12, 253679, Note_on_c, 6, 53, 0
12, 253680, Note_on_c, 6, 53, 84
12, 253799, Note_on_c, 6, 53, 0
12, 253800, Note_on_c, 6, 53, 84
12, 253919, Note_on_c, 6, 53, 0
12, 253920, Note_on_c, 6, 53, 84
12, 254039, Note_on_c, 6, 53, 0
12, 254040, Note_on_c, 6, 53, 84
12, 254159, Note_on_c, 6, 53, 0
12, 254160, Note_on_c, 6, 53, 84
12, 254279, Note_on_c, 6, 53, 0
12, 254280, Note_on_c, 6, 53, 84
12, 254399, Note_on_c, 6, 53, 0
12, 254400, Note_on_c, 6, 53, 84
12, 254519, Note_on_c, 6, 53, 0
12, 254520, Note_on_c, 6, 53, 84
12, 254639, Note_on_c, 6, 53, 0
12, 254640, Note_on_c, 6, 53, 84
12, 254759, Note_on_c, 6, 53, 0
12, 254760, Note_on_c, 6, 53, 84
12, 254879, Note_on_c, 6, 53, 0
12, 254880, Note_on_c, 6, 53, 84
12, 254999, Note_on_c, 6, 53, 0
12, 255000, Note_on_c, 6, 53, 84
12, 255119, Note_on_c, 6, 53, 0
12, 255120, Note_on_c, 6, 53, 84
12, 255239, Note_on_c, 6, 53, 0
12, 255240, Note_on_c, 6, 53, 84
12, 255359, Note_on_c, 6, 53, 0
12, 255360, Note_on_c, 6, 53, 84
12, 255599, Note_on_c, 6, 53, 0
12, 301920, Note_on_c, 6, 53, 76
12, 302159, Note_on_c, 6, 53, 0
12, 302400, Note_on_c, 6, 53, 76
12, 302639, Note_on_c, 6, 53, 0
12, 302880, Note_on_c, 6, 53, 76
12, 303119, Note_on_c, 6, 53, 0
12, 303360, Note_on_c, 6, 53, 76
12, 303599, Note_on_c, 6, 53, 0
12, 303840, Note_on_c, 6, 53, 76
12, 304079, Note_on_c, 6, 53, 0
12, 304320, Note_on_c, 6, 53, 76
12, 304559, Note_on_c, 6, 53, 0
12, 304800, Note_on_c, 6, 53, 76
12, 305039, Note_on_c, 6, 53, 0
12, 309600, Note_on_c, 6, 41, 76
12, 309759, Note_on_c, 6, 41, 0
12, 309760, Note_on_c, 6, 41, 76
12, 309919, Note_on_c, 6, 41, 0
12, 309920, Note_on_c, 6, 41, 76
12, 310079, Note_on_c, 6, 41, 0
12, 310080, Note_on_c, 6, 41, 76
12, 310319, Note_on_c, 6, 41, 0
12, 310560, Note_on_c, 6, 41, 76
12, 310719, Note_on_c, 6, 41, 0
12, 310720, Note_on_c, 6, 41, 76
12, 310879, Note_on_c, 6, 41, 0
12, 310880, Note_on_c, 6, 41, 76
12, 311039, Note_on_c, 6, 41, 0
12, 311040, Note_on_c, 6, 41, 76
12, 311279, Note_on_c, 6, 41, 0
12, 311520, Note_on_c, 6, 41, 76
12, 311679, Note_on_c, 6, 41, 0
12, 311680, Note_on_c, 6, 41, 76
12, 311839, Note_on_c, 6, 41, 0
12, 311840, Note_on_c, 6, 41, 76
12, 311999, Note_on_c, 6, 41, 0
12, 312000, Note_on_c, 6, 41, 76
12, 312239, Note_on_c, 6, 41, 0
12, 312480, Note_on_c, 6, 53, 76
12, 312719, Note_on_c, 6, 53, 0
12, 316320, Note_on_c, 6, 53, 76
12, 316479, Note_on_c, 6, 53, 0
12, 316480, Note_on_c, 6, 53, 76
12, 316639, Note_on_c, 6, 53, 0
12, 316640, Note_on_c, 6, 53, 76
12, 316799, Note_on_c, 6, 53, 0
12, 316800, Note_on_c, 6, 53, 76
12, 317039, Note_on_c, 6, 53, 0
12, 318240, Note_on_c, 6, 53, 76
12, 318479, Note_on_c, 6, 53, 0
12, 319200, Note_on_c, 6, 53, 76
12, 319439, Note_on_c, 6, 53, 0
12, 322560, Note_on_c, 6, 53, 76
12, 322799, Note_on_c, 6, 53, 0
12, 323040, Note_on_c, 6, 53, 76
12, 323279, Note_on_c, 6, 53, 0
12, 325440, Note_on_c, 6, 53, 76
12, 325679, Note_on_c, 6, 53, 0
12, 325680, Note_on_c, 6, 53, 76
12, 325919, Note_on_c, 6, 53, 0
12, 325920, Note_on_c, 6, 53, 76
12, 326159, Note_on_c, 6, 53, 0
12, 326160, Note_on_c, 6, 53, 76
12, 326399, Note_on_c, 6, 53, 0
12, 326400, Note_on_c, 6, 53, 76
12, 326639, Note_on_c, 6, 53, 0
12, 337440, Note_on_c, 6, 41, 44
12, 337679, Note_on_c, 6, 41, 0
12, 337680, Note_on_c, 6, 53, 44
12, 337919, Note_on_c, 6, 53, 0
12, 337920, Note_on_c, 6, 41, 44
12, 338159, Note_on_c, 6, 41, 0
12, 338160, Note_on_c, 6, 53, 44
12, 338399, Note_on_c, 6, 53, 0
12, 338400, Note_on_c, 6, 41, 44
12, 338639, Note_on_c, 6, 41, 0
12, 338640, Note_on_c, 6, 53, 44
12, 338879, Note_on_c, 6, 53, 0
12, 338880, Note_on_c, 6, 41, 44
12, 339119, Note_on_c, 6, 41, 0
12, 339120, Note_on_c, 6, 53, 44
12, 339359, Note_on_c, 6, 53, 0
12, 339360, Note_on_c, 6, 41, 44
12, 339599, Note_on_c, 6, 41, 0
12, 339600, Note_on_c, 6, 53, 44
12, 339839, Note_on_c, 6, 53, 0
12, 339840, Note_on_c, 6, 41, 44
12, 340079, Note_on_c, 6, 41, 0
12, 340080, Note_on_c, 6, 53, 44
12, 340319, Note_on_c, 6, 53, 0
12, 340320, Note_on_c, 6, 41, 44
12, 340559, Note_on_c, 6, 41, 0
12, 340560, Note_on_c, 6, 53, 44
12, 340799, Note_on_c, 6, 53, 0
12, 340800, Note_on_c, 6, 41, 44
12, 341039, Note_on_c, 6, 41, 0
12, 341040, Note_on_c, 6, 53, 44
12, 341279, Note_on_c, 6, 53, 0
12, 341280, Note_on_c, 6, 41, 44
12, 341519, Note_on_c, 6, 41, 0
12, 341520, Note_on_c, 6, 53, 44
12, 341759, Note_on_c, 6, 53, 0
12, 341760, Note_on_c, 6, 41, 44
12, 341999, Note_on_c, 6, 41, 0
12, 342000, Note_on_c, 6, 53, 44
12, 342239, Note_on_c, 6, 53, 0
12, 342240, Note_on_c, 6, 41, 44
12, 342479, Note_on_c, 6, 41, 0
12, 342480, Note_on_c, 6, 53, 44
12, 342719, Note_on_c, 6, 53, 0
12, 342720, Note_on_c, 6, 41, 44
12, 342959, Note_on_c, 6, 41, 0
12, 342960, Note_on_c, 6, 53, 44
12, 343199, Note_on_c, 6, 53, 0
12, 343200, Note_on_c, 6, 41, 44
12, 343439, Note_on_c, 6, 41, 0
12, 343440, Note_on_c, 6, 53, 44
12, 343679, Note_on_c, 6, 53, 0
12, 343680, Note_on_c, 6, 41, 44
12, 343919, Note_on_c, 6, 41, 0
12, 343920, Note_on_c, 6, 53, 44
12, 344159, Note_on_c, 6, 53, 0
12, 344160, Note_on_c, 6, 41, 44
12, 344399, Note_on_c, 6, 41, 0
12, 344400, Note_on_c, 6, 53, 44
12, 344639, Note_on_c, 6, 53, 0
12, 375600, Note_on_c, 6, 41, 76
12, 375839, Note_on_c, 6, 41, 0
12, 375840, Note_on_c, 6, 41, 76
12, 376079, Note_on_c, 6, 41, 0
12, 376080, Note_on_c, 6, 41, 76
12, 376319, Note_on_c, 6, 41, 0
12, 376320, Note_on_c, 6, 41, 76
12, 376559, Note_on_c, 6, 41, 0
12, 376560, Note_on_c, 6, 41, 76
12, 376799, Note_on_c, 6, 41, 0
12, 376800, Note_on_c, 6, 41, 76
12, 377039, Note_on_c, 6, 41, 0
12, 377040, Note_on_c, 6, 41, 76
12, 377279, Note_on_c, 6, 41, 0
12, 377280, Note_on_c, 6, 41, 76
12, 377519, Note_on_c, 6, 41, 0
12, 377760, Note_on_c, 6, 41, 76
12, 377999, Note_on_c, 6, 41, 0
12, 378000, Note_on_c, 6, 41, 76
12, 378239, Note_on_c, 6, 41, 0
12, 378240, Note_on_c, 6, 41, 84
12, 378479, Note_on_c, 6, 41, 0
12, 378720, Note_on_c, 6, 41, 76
12, 378959, Note_on_c, 6, 41, 0
12, 378960, Note_on_c, 6, 41, 76
12, 379199, Note_on_c, 6, 41, 0
12, 379200, Note_on_c, 6, 41, 84
12, 379439, Note_on_c, 6, 41, 0
12, 379680, Note_on_c, 6, 41, 76
12, 379919, Note_on_c, 6, 41, 0
12, 379920, Note_on_c, 6, 41, 76
12, 380159, Note_on_c, 6, 41, 0
12, 380160, Note_on_c, 6, 41, 84
12, 380399, Note_on_c, 6, 41, 0
12, 380640, Note_on_c, 6, 41, 76
12, 380879, Note_on_c, 6, 41, 0
12, 380880, Note_on_c, 6, 41, 76
12, 381119, Note_on_c, 6, 41, 0
12, 381120, Note_on_c, 6, 41, 84
12, 381359, Note_on_c, 6, 41, 0
12, 381600, Note_on_c, 6, 41, 76
12, 381839, Note_on_c, 6, 41, 0
12, 381840, Note_on_c, 6, 41, 76
12, 382079, Note_on_c, 6, 41, 0
12, 382080, Note_on_c, 6, 41, 76
12, 382319, Note_on_c, 6, 41, 0
12, 391680, Note_on_c, 6, 41, 76
12, 391919, Note_on_c, 6, 41, 0
12, 394080, Note_on_c, 6, 53, 52
12, 394319, Note_on_c, 6, 53, 0
12, 394560, Note_on_c, 6, 53, 52
12, 394799, Note_on_c, 6, 53, 0
12, 395040, Note_on_c, 6, 53, 52
12, 395279, Note_on_c, 6, 53, 0
12, 395520, Note_on_c, 6, 53, 52
12, 395759, Note_on_c, 6, 53, 0
12, 397920, Note_on_c, 6, 53, 44
12, 398159, Note_on_c, 6, 53, 0
12, 398400, Note_on_c, 6, 53, 44
12, 398639, Note_on_c, 6, 53, 0
12, 398880, Note_on_c, 6, 53, 44
12, 399119, Note_on_c, 6, 53, 0
12, 399360, Note_on_c, 6, 53, 76
12, 399599, Note_on_c, 6, 53, 0
12, 399840, Note_on_c, 6, 53, 76
12, 400079, Note_on_c, 6, 53, 0
12, 400800, Note_on_c, 6, 53, 76
12, 401039, Note_on_c, 6, 53, 0
12, 401760, Note_on_c, 6, 53, 76
12, 401999, Note_on_c, 6, 53, 0
12, 410880, Note_on_c, 6, 53, 76
12, 411119, Note_on_c, 6, 53, 0
12, 411360, Note_on_c, 6, 53, 76
12, 411599, Note_on_c, 6, 53, 0
12, 412320, Note_on_c, 6, 53, 76
12, 412559, Note_on_c, 6, 53, 0
12, 413280, Note_on_c, 6, 53, 76
12, 413519, Note_on_c, 6, 53, 0
12, 414720, Note_on_c, 6, 41, 80
12, 414779, Note_on_c, 6, 41, 0
12, 414780, Note_on_c, 6, 41, 84
12, 414839, Note_on_c, 6, 41, 0
12, 414840, Note_on_c, 6, 41, 81
12, 414899, Note_on_c, 6, 41, 0
12, 414900, Note_on_c, 6, 41, 86
12, 414959, Note_on_c, 6, 41, 0
12, 414960, Note_on_c, 6, 41, 84
12, 415019, Note_on_c, 6, 41, 0
12, 415020, Note_on_c, 6, 41, 83
12, 415079, Note_on_c, 6, 41, 0
12, 415080, Note_on_c, 6, 41, 82
12, 415139, Note_on_c, 6, 41, 0
12, 415140, Note_on_c, 6, 41, 87
12, 415199, Note_on_c, 6, 41, 0
12, 415200, Note_on_c, 6, 41, 86
12, 415259, Note_on_c, 6, 41, 0
12, 415260, Note_on_c, 6, 41, 85
12, 415319, Note_on_c, 6, 41, 0
12, 415320, Note_on_c, 6, 41, 81
12, 415379, Note_on_c, 6, 41, 0
12, 415380, Note_on_c, 6, 41, 86
12, 415439, Note_on_c, 6, 41, 0
12, 415440, Note_on_c, 6, 41, 85
12, 415499, Note_on_c, 6, 41, 0
12, 415500, Note_on_c, 6, 41, 84
12, 415559, Note_on_c, 6, 41, 0
12, 415560, Note_on_c, 6, 41, 82
12, 415619, Note_on_c, 6, 41, 0
12, 415620, Note_on_c, 6, 41, 80
12, 415679, Note_on_c, 6, 41, 0
12, 415680, Note_on_c, 6, 41, 80
12, 415739, Note_on_c, 6, 41, 0
12, 415740, Note_on_c, 6, 41, 82
12, 415799, Note_on_c, 6, 41, 0
12, 415800, Note_on_c, 6, 41, 81
12, 415859, Note_on_c, 6, 41, 0
12, 415860, Note_on_c, 6, 41, 81
12, 415919, Note_on_c, 6, 41, 0
12, 415920, Note_on_c, 6, 41, 87
12, 415979, Note_on_c, 6, 41, 0
12, 415980, Note_on_c, 6, 41, 83
12, 416039, Note_on_c, 6, 41, 0
12, 416040, Note_on_c, 6, 41, 80
12, 416099, Note_on_c, 6, 41, 0
12, 416100, Note_on_c, 6, 41, 83
12, 416159, Note_on_c, 6, 41, 0
12, 416160, Note_on_c, 6, 41, 80
12, 416219, Note_on_c, 6, 41, 0
12, 416220, Note_on_c, 6, 41, 83
12, 416279, Note_on_c, 6, 41, 0
12, 416280, Note_on_c, 6, 41, 84
12, 416339, Note_on_c, 6, 41, 0
12, 416340, Note_on_c, 6, 41, 84
12, 416399, Note_on_c, 6, 41, 0
12, 416400, Note_on_c, 6, 41, 86
12, 416459, Note_on_c, 6, 41, 0
12, 416460, Note_on_c, 6, 41, 84
12, 416519, Note_on_c, 6, 41, 0
12, 416520, Note_on_c, 6, 41, 81
12, 416579, Note_on_c, 6, 41, 0
12, 416580, Note_on_c, 6, 41, 85
12, 416639, Note_on_c, 6, 41, 0
12, 416640, Note_on_c, 6, 41, 83
12, 416699, Note_on_c, 6, 41, 0
12, 416700, Note_on_c, 6, 41, 82
12, 416759, Note_on_c, 6, 41, 0
12, 416760, Note_on_c, 6, 41, 80
12, 416819, Note_on_c, 6, 41, 0
12, 416820, Note_on_c, 6, 41, 84
12, 416879, Note_on_c, 6, 41, 0
12, 416880, Note_on_c, 6, 41, 86
12, 416939, Note_on_c, 6, 41, 0
12, 416940, Note_on_c, 6, 41, 86
12, 416999, Note_on_c, 6, 41, 0
12, 417000, Note_on_c, 6, 41, 84
12, 417059, Note_on_c, 6, 41, 0
12, 417060, Note_on_c, 6, 41, 82
12, 417119, Note_on_c, 6, 41, 0
12, 417120, Note_on_c, 6, 41, 87
12, 417179, Note_on_c, 6, 41, 0
12, 417180, Note_on_c, 6, 41, 85
12, 417239, Note_on_c, 6, 41, 0
12, 417240, Note_on_c, 6, 41, 87
12, 417299, Note_on_c, 6, 41, 0
12, 417300, Note_on_c, 6, 41, 87
12, 417359, Note_on_c, 6, 41, 0
12, 417360, Note_on_c, 6, 41, 84
12, 417419, Note_on_c, 6, 41, 0
12, 417420, Note_on_c, 6, 41, 81
12, 417479, Note_on_c, 6, 41, 0
12, 417480, Note_on_c, 6, 41, 83
12, 417539, Note_on_c, 6, 41, 0
12, 417540, Note_on_c, 6, 41, 81
12, 417599, Note_on_c, 6, 41, 0
12, 417600, Note_on_c, 6, 41, 86
12, 417659, Note_on_c, 6, 41, 0
12, 417660, Note_on_c, 6, 41, 81
12, 417719, Note_on_c, 6, 41, 0
12, 417720, Note_on_c, 6, 41, 86
12, 417779, Note_on_c, 6, 41, 0
12, 417780, Note_on_c, 6, 41, 86
12, 417839, Note_on_c, 6, 41, 0
12, 417840, Note_on_c, 6, 41, 87
12, 417899, Note_on_c, 6, 41, 0
12, 417900, Note_on_c, 6, 41, 87
12, 417959, Note_on_c, 6, 41, 0
12, 417960, Note_on_c, 6, 41, 84
12, 418019, Note_on_c, 6, 41, 0
12, 418020, Note_on_c, 6, 41, 83
12, 418079, Note_on_c, 6, 41, 0
12, 418080, Note_on_c, 6, 53, 84
12, 418319, Note_on_c, 6, 53, 0
12, 426240, Note_on_c, 6, 53, 76
12, 426479, Note_on_c, 6, 53, 0
12, 426720, Note_on_c, 6, 53, 76
12, 426959, Note_on_c, 6, 53, 0
12, 428160, Note_on_c, 6, 53, 76
12, 428399, Note_on_c, 6, 53, 0
12, 428640, Note_on_c, 6, 53, 76
12, 428879, Note_on_c, 6, 53, 0
12, 430080, Note_on_c, 6, 53, 76
12, 430319, Note_on_c, 6, 53, 0
12, 430560, Note_on_c, 6, 53, 76
12, 430799, Note_on_c, 6, 53, 0
12, 432000, Note_on_c, 6, 41, 84
12, 432239, Note_on_c, 6, 41, 0
12, 432960, Note_on_c, 6, 53, 84
12, 433079, Note_on_c, 6, 53, 0
12, 433080, Note_on_c, 6, 53, 76
12, 433199, Note_on_c, 6, 53, 0
12, 433200, Note_on_c, 6, 53, 76
12, 433319, Note_on_c, 6, 53, 0
12, 433320, Note_on_c, 6, 53, 76
12, 433439, Note_on_c, 6, 53, 0
12, 433440, Note_on_c, 6, 53, 76
12, 433559, Note_on_c, 6, 53, 0
12, 433560, Note_on_c, 6, 53, 76
12, 433679, Note_on_c, 6, 53, 0
12, 433680, Note_on_c, 6, 53, 76
12, 433799, Note_on_c, 6, 53, 0
12, 433800, Note_on_c, 6, 53, 76
12, 433919, Note_on_c, 6, 53, 0
12, 433920, Note_on_c, 6, 41, 84
12, 434159, Note_on_c, 6, 41, 0
12, 434880, Note_on_c, 6, 53, 84
12, 434999, Note_on_c, 6, 53, 0
12, 435000, Note_on_c, 6, 53, 76
12, 435119, Note_on_c, 6, 53, 0
12, 435120, Note_on_c, 6, 53, 76
12, 435239, Note_on_c, 6, 53, 0
12, 435240, Note_on_c, 6, 53, 76
12, 435359, Note_on_c, 6, 53, 0
12, 435360, Note_on_c, 6, 53, 76
12, 435479, Note_on_c, 6, 53, 0
12, 435480, Note_on_c, 6, 53, 76
12, 435599, Note_on_c, 6, 53, 0
12, 435600, Note_on_c, 6, 53, 76
12, 435719, Note_on_c, 6, 53, 0
12, 435720, Note_on_c, 6, 53, 76
12, 435839, Note_on_c, 6, 53, 0
12, 435840, Note_on_c, 6, 41, 84
12, 436079, Note_on_c, 6, 41, 0
12, 436320, Note_on_c, 6, 53, 84
12, 436439, Note_on_c, 6, 53, 0
12, 436440, Note_on_c, 6, 53, 76
12, 436559, Note_on_c, 6, 53, 0
12, 436560, Note_on_c, 6, 53, 76
12, 436679, Note_on_c, 6, 53, 0
12, 436680, Note_on_c, 6, 53, 76
12, 436799, Note_on_c, 6, 53, 0
12, 436800, Note_on_c, 6, 41, 84
12, 437039, Note_on_c, 6, 41, 0
12, 437280, Note_on_c, 6, 53, 84
12, 437399, Note_on_c, 6, 53, 0
12, 437400, Note_on_c, 6, 53, 76
12, 437519, Note_on_c, 6, 53, 0
12, 437520, Note_on_c, 6, 53, 76
12, 437639, Note_on_c, 6, 53, 0
12, 437640, Note_on_c, 6, 53, 76
12, 437759, Note_on_c, 6, 53, 0
12, 437760, Note_on_c, 6, 41, 84
12, 437999, Note_on_c, 6, 41, 0
12, 438240, Note_on_c, 6, 53, 84
12, 438359, Note_on_c, 6, 53, 0
12, 438360, Note_on_c, 6, 53, 76
12, 438479, Note_on_c, 6, 53, 0
12, 438480, Note_on_c, 6, 53, 76
12, 438599, Note_on_c, 6, 53, 0
12, 438600, Note_on_c, 6, 53, 76
12, 438719, Note_on_c, 6, 53, 0
12, 438720, Note_on_c, 6, 41, 84
12, 438959, Note_on_c, 6, 41, 0
12, 439200, Note_on_c, 6, 53, 84
12, 439319, Note_on_c, 6, 53, 0
12, 439320, Note_on_c, 6, 53, 76
12, 439439, Note_on_c, 6, 53, 0
12, 439440, Note_on_c, 6, 53, 76
12, 439559, Note_on_c, 6, 53, 0
12, 439560, Note_on_c, 6, 53, 76
12, 439679, Note_on_c, 6, 53, 0
12, 439680, Note_on_c, 6, 41, 76
12, 439919, Note_on_c, 6, 41, 0
12, 450720, Note_on_c, 6, 41, 44
12, 450959, Note_on_c, 6, 41, 0
12, 450960, Note_on_c, 6, 53, 44
12, 451199, Note_on_c, 6, 53, 0
12, 451200, Note_on_c, 6, 41, 44
12, 451439, Note_on_c, 6, 41, 0
12, 451440, Note_on_c, 6, 53, 44
12, 451679, Note_on_c, 6, 53, 0
12, 451680, Note_on_c, 6, 41, 44
12, 451919, Note_on_c, 6, 41, 0
12, 451920, Note_on_c, 6, 53, 44
12, 452159, Note_on_c, 6, 53, 0
12, 452160, Note_on_c, 6, 41, 44
12, 452399, Note_on_c, 6, 41, 0
12, 452400, Note_on_c, 6, 53, 44
12, 452639, Note_on_c, 6, 53, 0
12, 452640, Note_on_c, 6, 41, 44
12, 452879, Note_on_c, 6, 41, 0
12, 452880, Note_on_c, 6, 53, 44
12, 453119, Note_on_c, 6, 53, 0
12, 453120, Note_on_c, 6, 41, 44
12, 453359, Note_on_c, 6, 41, 0
12, 453360, Note_on_c, 6, 53, 44
12, 453599, Note_on_c, 6, 53, 0
12, 453600, Note_on_c, 6, 41, 44
12, 453839, Note_on_c, 6, 41, 0
12, 453840, Note_on_c, 6, 53, 44
12, 454079, Note_on_c, 6, 53, 0
12, 454080, Note_on_c, 6, 41, 44
12, 454319, Note_on_c, 6, 41, 0
12, 454320, Note_on_c, 6, 53, 44
12, 454559, Note_on_c, 6, 53, 0
12, 454560, Note_on_c, 6, 41, 44
12, 454799, Note_on_c, 6, 41, 0
12, 454800, Note_on_c, 6, 53, 44
12, 455039, Note_on_c, 6, 53, 0
12, 455040, Note_on_c, 6, 41, 44
12, 455279, Note_on_c, 6, 41, 0
12, 455280, Note_on_c, 6, 53, 44
12, 455519, Note_on_c, 6, 53, 0
12, 455520, Note_on_c, 6, 41, 44
12, 455759, Note_on_c, 6, 41, 0
12, 455760, Note_on_c, 6, 53, 44
12, 455999, Note_on_c, 6, 53, 0
12, 456000, Note_on_c, 6, 41, 44
12, 456239, Note_on_c, 6, 41, 0
12, 456240, Note_on_c, 6, 53, 44
12, 456479, Note_on_c, 6, 53, 0
12, 456480, Note_on_c, 6, 41, 44
12, 456719, Note_on_c, 6, 41, 0
12, 456720, Note_on_c, 6, 53, 44
12, 456959, Note_on_c, 6, 53, 0
12, 456960, Note_on_c, 6, 41, 44
12, 457199, Note_on_c, 6, 41, 0
12, 457200, Note_on_c, 6, 53, 46
12, 457439, Note_on_c, 6, 53, 0
12, 457440, Note_on_c, 6, 41, 48
12, 457679, Note_on_c, 6, 41, 0
12, 457680, Note_on_c, 6, 53, 50
12, 457919, Note_on_c, 6, 53, 0
12, 457920, Note_on_c, 6, 41, 52
12, 458159, Note_on_c, 6, 41, 0
12, 458160, Note_on_c, 6, 53, 54
12, 458399, Note_on_c, 6, 53, 0
12, 458400, Note_on_c, 6, 41, 56
12, 458639, Note_on_c, 6, 41, 0
12, 458640, Note_on_c, 6, 53, 58
12, 458879, Note_on_c, 6, 53, 0
12, 458880, Note_on_c, 6, 41, 60
12, 459119, Note_on_c, 6, 41, 0
12, 459120, Note_on_c, 6, 53, 62
12, 459359, Note_on_c, 6, 53, 0
12, 459360, Note_on_c, 6, 41, 64
12, 459599, Note_on_c, 6, 41, 0
12, 459600, Note_on_c, 6, 53, 66
12, 459839, Note_on_c, 6, 53, 0
12, 459840, Note_on_c, 6, 41, 68
12, 460079, Note_on_c, 6, 41, 0
12, 460080, Note_on_c, 6, 53, 70
12, 460319, Note_on_c, 6, 53, 0
12, 460320, Note_on_c, 6, 41, 72
12, 460559, Note_on_c, 6, 41, 0
12, 460560, Note_on_c, 6, 53, 74
12, 460799, Note_on_c, 6, 53, 0
12, 460800, Note_on_c, 6, 41, 76
12, 460919, Note_on_c, 6, 41, 0
12, 460920, Note_on_c, 6, 41, 76
12, 461039, Note_on_c, 6, 41, 0
12, 461040, Note_on_c, 6, 53, 76
12, 461159, Note_on_c, 6, 53, 0
12, 461160, Note_on_c, 6, 53, 76
12, 461279, Note_on_c, 6, 53, 0
12, 461280, Note_on_c, 6, 41, 76
12, 461399, Note_on_c, 6, 41, 0
12, 461400, Note_on_c, 6, 41, 76
12, 461519, Note_on_c, 6, 41, 0
12, 461520, Note_on_c, 6, 53, 76
12, 461639, Note_on_c, 6, 53, 0
12, 461640, Note_on_c, 6, 53, 76
12, 461759, Note_on_c, 6, 53, 0
12, 461760, Note_on_c, 6, 41, 76
12, 461879, Note_on_c, 6, 41, 0
12, 461880, Note_on_c, 6, 41, 76
12, 461999, Note_on_c, 6, 41, 0
12, 462000, Note_on_c, 6, 53, 76
12, 462119, Note_on_c, 6, 53, 0
12, 462120, Note_on_c, 6, 53, 76
12, 462239, Note_on_c, 6, 53, 0
12, 462240, Note_on_c, 6, 41, 76
12, 462359, Note_on_c, 6, 41, 0
12, 462360, Note_on_c, 6, 41, 76
12, 462479, Note_on_c, 6, 41, 0
12, 462480, Note_on_c, 6, 53, 76
12, 462599, Note_on_c, 6, 53, 0
12, 462600, Note_on_c, 6, 53, 76
12, 462719, Note_on_c, 6, 53, 0
12, 462720, Note_on_c, 6, 41, 76
12, 462959, Note_on_c, 6, 41, 0
12, 464640, Note_on_c, 6, 41, 76
12, 464879, Note_on_c, 6, 41, 0
12, 466560, Note_on_c, 6, 41, 76
12, 466799, Note_on_c, 6, 41, 0
12, 467520, Note_on_c, 6, 41, 76
12, 467759, Note_on_c, 6, 41, 0
12, 468480, Note_on_c, 6, 41, 76
12, 468719, Note_on_c, 6, 41, 0
12, 469440, Note_on_c, 6, 41, 76
12, 469679, Note_on_c, 6, 41, 0
12, 470400, Note_on_c, 6, 41, 84
12, 470519, Note_on_c, 6, 41, 0
12, 470520, Note_on_c, 6, 41, 84
12, 470639, Note_on_c, 6, 41, 0
12, 470640, Note_on_c, 6, 53, 84
12, 470759, Note_on_c, 6, 53, 0
12, 470760, Note_on_c, 6, 53, 84
12, 470879, Note_on_c, 6, 53, 0
12, 470880, Note_on_c, 6, 41, 84
12, 470999, Note_on_c, 6, 41, 0
12, 471000, Note_on_c, 6, 41, 84
12, 471119, Note_on_c, 6, 41, 0
12, 471120, Note_on_c, 6, 53, 84
12, 471239, Note_on_c, 6, 53, 0
12, 471240, Note_on_c, 6, 53, 84
12, 471359, Note_on_c, 6, 53, 0
12, 471360, Note_on_c, 6, 41, 84
12, 471479, Note_on_c, 6, 41, 0
12, 471480, Note_on_c, 6, 41, 84
12, 471599, Note_on_c, 6, 41, 0
12, 471600, Note_on_c, 6, 53, 84
12, 471719, Note_on_c, 6, 53, 0
12, 471720, Note_on_c, 6, 53, 84
12, 471839, Note_on_c, 6, 53, 0
12, 471840, Note_on_c, 6, 41, 84
12, 471959, Note_on_c, 6, 41, 0
12, 471960, Note_on_c, 6, 41, 84
12, 472079, Note_on_c, 6, 41, 0
12, 472080, Note_on_c, 6, 53, 84
12, 472199, Note_on_c, 6, 53, 0
12, 472200, Note_on_c, 6, 53, 84
12, 472319, Note_on_c, 6, 53, 0
12, 472320, Note_on_c, 6, 41, 84
12, 472559, Note_on_c, 6, 41, 0
12, 473280, Note_on_c, 6, 53, 84
12, 473519, Note_on_c, 6, 53, 0
12, 474240, Note_on_c, 6, 41, 84
12, 474479, Note_on_c, 6, 41, 0
12, 475200, Note_on_c, 6, 53, 84
12, 475439, Note_on_c, 6, 53, 0
12, 476160, Note_on_c, 6, 41, 84
12, 476399, Note_on_c, 6, 41, 0
12, 476640, Note_on_c, 6, 53, 84
12, 476879, Note_on_c, 6, 53, 0
12, 477120, Note_on_c, 6, 41, 84
12, 477359, Note_on_c, 6, 41, 0
12, 477600, Note_on_c, 6, 53, 84
12, 477839, Note_on_c, 6, 53, 0
12, 478080, Note_on_c, 6, 41, 84
12, 478319, Note_on_c, 6, 41, 0
12, 478560, Note_on_c, 6, 53, 84
12, 478799, Note_on_c, 6, 53, 0
12, 479040, Note_on_c, 6, 53, 84
12, 479279, Note_on_c, 6, 53, 0
12, 479520, Note_on_c, 6, 53, 84
12, 479759, Note_on_c, 6, 53, 0
12, 480000, Note_on_c, 6, 53, 84
12, 480239, Note_on_c, 6, 53, 0
12, 480960, Note_on_c, 6, 53, 84
12, 481199, Note_on_c, 6, 53, 0
12, 481920, Note_on_c, 6, 41, 84
12, 482159, Note_on_c, 6, 41, 0
12, 482159, End_track
13, 0, Start_track
13, 0, Title_t, "Violin I"
13, 0, MIDI_port, 0
13, 0, Program_c, 11, 48
13, 0, Control_c, 11, 7, 96
13, 0, Control_c, 11, 10, 48
13, 0, Control_c, 11, 11, 127
13, 480, Note_on_c, 11, 69, 44
13, 544, Note_on_c, 11, 69, 0
13, 560, Note_on_c, 11, 69, 44
13, 624, Note_on_c, 11, 69, 0
13, 640, Note_on_c, 11, 69, 44
13, 704, Note_on_c, 11, 69, 0
13, 720, Note_on_c, 11, 69, 44
13, 784, Note_on_c, 11, 69, 0
13, 800, Note_on_c, 11, 69, 44
13, 864, Note_on_c, 11, 69, 0
13, 880, Note_on_c, 11, 69, 44
13, 944, Note_on_c, 11, 69, 0
13, 960, Note_on_c, 11, 69, 44
13, 1079, Note_on_c, 11, 69, 0
13, 1080, Note_on_c, 11, 70, 44
13, 1179, Note_on_c, 11, 70, 0
13, 1200, Note_on_c, 11, 67, 44
13, 1359, Note_on_c, 11, 67, 0
13, 1440, Note_on_c, 11, 69, 44
13, 1559, Note_on_c, 11, 69, 0
13, 1560, Note_on_c, 11, 70, 44
13, 1659, Note_on_c, 11, 70, 0
13, 1680, Note_on_c, 11, 67, 44
13, 1839, Note_on_c, 11, 67, 0
13, 1920, Note_on_c, 11, 69, 44
13, 2039, Note_on_c, 11, 69, 0
13, 2040, Note_on_c, 11, 70, 44
13, 2139, Note_on_c, 11, 70, 0
13, 2160, Note_on_c, 11, 67, 44
13, 2319, Note_on_c, 11, 67, 0
13, 2400, Note_on_c, 11, 70, 44
13, 2464, Note_on_c, 11, 70, 0
13, 2480, Note_on_c, 11, 70, 44
13, 2544, Note_on_c, 11, 70, 0
13, 2560, Note_on_c, 11, 70, 44
13, 2624, Note_on_c, 11, 70, 0
13, 2640, Note_on_c, 11, 70, 44
13, 2704, Note_on_c, 11, 70, 0
13, 2720, Note_on_c, 11, 70, 44
13, 2784, Note_on_c, 11, 70, 0
13, 2800, Note_on_c, 11, 70, 44
13, 2864, Note_on_c, 11, 70, 0
13, 2880, Note_on_c, 11, 70, 44
13, 2999, Note_on_c, 11, 70, 0
13, 3000, Note_on_c, 11, 72, 44
13, 3099, Note_on_c, 11, 72, 0
13, 3120, Note_on_c, 11, 69, 44
13, 3279, Note_on_c, 11, 69, 0
13, 3360, Note_on_c, 11, 70, 44
13, 3479, Note_on_c, 11, 70, 0
13, 3480, Note_on_c, 11, 72, 44
13, 3579, Note_on_c, 11, 72, 0
13, 3600, Note_on_c, 11, 69, 44
13, 3759, Note_on_c, 11, 69, 0
13, 3840, Note_on_c, 11, 70, 44
13, 3959, Note_on_c, 11, 70, 0
13, 3960, Note_on_c, 11, 72, 44
13, 4059, Note_on_c, 11, 72, 0
13, 4080, Note_on_c, 11, 69, 44
13, 4239, Note_on_c, 11, 69, 0
13, 4320, Note_on_c, 11, 77, 44
13, 4559, Note_on_c, 11, 77, 0
13, 4680, Note_on_c, 11, 76, 44
13, 4779, Note_on_c, 11, 76, 0
13, 4800, Note_on_c, 11, 76, 44
13, 5039, Note_on_c, 11, 76, 0
13, 5040, Note_on_c, 11, 74, 44
13, 5259, Note_on_c, 11, 74, 0
13, 5280, Note_on_c, 11, 86, 44
13, 5519, Note_on_c, 11, 86, 0
13, 5640, Note_on_c, 11, 84, 44
13, 5739, Note_on_c, 11, 84, 0
13, 5760, Note_on_c, 11, 84, 44
13, 5999, Note_on_c, 11, 84, 0
13, 6000, Note_on_c, 11, 82, 44
13, 6219, Note_on_c, 11, 82, 0
13, 6240, Note_on_c, 11, 82, 44
13, 6399, Note_on_c, 11, 82, 0
13, 6480, Note_on_c, 11, 81, 44
13, 6639, Note_on_c, 11, 81, 0
13, 6720, Note_on_c, 11, 79, 44
13, 6879, Note_on_c, 11, 79, 0
13, 6960, Note_on_c, 11, 78, 44
13, 7119, Note_on_c, 11, 78, 0
13, 7200, Note_on_c, 11, 79, 44
13, 7359, Note_on_c, 11, 79, 0
13, 7440, Note_on_c, 11, 81, 44
13, 7599, Note_on_c, 11, 81, 0
13, 7680, Note_on_c, 11, 82, 44
13, 7839, Note_on_c, 11, 82, 0
13, 7920, Note_on_c, 11, 79, 44
13, 8079, Note_on_c, 11, 79, 0
13, 8160, Note_on_c, 11, 81, 44
13, 8319, Note_on_c, 11, 81, 0
13, 8400, Note_on_c, 11, 77, 44
13, 8559, Note_on_c, 11, 77, 0
13, 8640, Note_on_c, 11, 76, 44
13, 8799, Note_on_c, 11, 76, 0
13, 8880, Note_on_c, 11, 84, 44
13, 9039, Note_on_c, 11, 84, 0
13, 9120, Note_on_c, 11, 55, 44
13, 9279, Note_on_c, 11, 55, 0
13, 9360, Note_on_c, 11, 79, 44
13, 9519, Note_on_c, 11, 79, 0
13, 9600, Note_on_c, 11, 72, 44
13, 9839, Note_on_c, 11, 72, 0
13, 10080, Note_on_c, 11, 74, 44
13, 10144, Note_on_c, 11, 74, 0
13, 10160, Note_on_c, 11, 74, 44
13, 10224, Note_on_c, 11, 74, 0
13, 10240, Note_on_c, 11, 74, 44
13, 10304, Note_on_c, 11, 74, 0
13, 10320, Note_on_c, 11, 74, 44
13, 10384, Note_on_c, 11, 74, 0
13, 10400, Note_on_c, 11, 74, 44
13, 10464, Note_on_c, 11, 74, 0
13, 10480, Note_on_c, 11, 74, 44
13, 10544, Note_on_c, 11, 74, 0
13, 10560, Note_on_c, 11, 74, 44
13, 10679, Note_on_c, 11, 74, 0
13, 10680, Note_on_c, 11, 76, 44
13, 10779, Note_on_c, 11, 76, 0
13, 10800, Note_on_c, 11, 72, 44
13, 10959, Note_on_c, 11, 72, 0
13, 11040, Note_on_c, 11, 62, 44
13, 11104, Note_on_c, 11, 62, 0
13, 11120, Note_on_c, 11, 62, 44
13, 11184, Note_on_c, 11, 62, 0
13, 11200, Note_on_c, 11, 62, 44
13, 11264, Note_on_c, 11, 62, 0
13, 11280, Note_on_c, 11, 62, 44
13, 11344, Note_on_c, 11, 62, 0
13, 11360, Note_on_c, 11, 62, 44
13, 11424, Note_on_c, 11, 62, 0
13, 11440, Note_on_c, 11, 62, 44
13, 11504, Note_on_c, 11, 62, 0
13, 11520, Note_on_c, 11, 62, 44
13, 11639, Note_on_c, 11, 62, 0
13, 11640, Note_on_c, 11, 64, 44
13, 11739, Note_on_c, 11, 64, 0
13, 11760, Note_on_c, 11, 60, 44
13, 11919, Note_on_c, 11, 60, 0
13, 12000, Note_on_c, 11, 74, 44
13, 12064, Note_on_c, 11, 74, 0
13, 12080, Note_on_c, 11, 74, 44
13, 12144, Note_on_c, 11, 74, 0
13, 12160, Note_on_c, 11, 74, 44
13, 12224, Note_on_c, 11, 74, 0
13, 12240, Note_on_c, 11, 74, 44
13, 12304, Note_on_c, 11, 74, 0
13, 12320, Note_on_c, 11, 74, 44
13, 12384, Note_on_c, 11, 74, 0
13, 12400, Note_on_c, 11, 74, 44
13, 12464, Note_on_c, 11, 74, 0
13, 12480, Note_on_c, 11, 74, 40
13, 12599, Note_on_c, 11, 74, 0
13, 12600, Note_on_c, 11, 76, 40
13, 12699, Note_on_c, 11, 76, 0
13, 12720, Note_on_c, 11, 72, 40
13, 12879, Note_on_c, 11, 72, 0
13, 12960, Note_on_c, 11, 71, 40
13, 13079, Note_on_c, 11, 71, 0
13, 13080, Note_on_c, 11, 72, 40
13, 13179, Note_on_c, 11, 72, 0
13, 13200, Note_on_c, 11, 67, 40
13, 13359, Note_on_c, 11, 67, 0
13, 13440, Note_on_c, 11, 65, 40
13, 13559, Note_on_c, 11, 65, 0
13, 13560, Note_on_c, 11, 67, 40
13, 13659, Note_on_c, 11, 67, 0
13, 13680, Note_on_c, 11, 64, 40
13, 13839, Note_on_c, 11, 64, 0
13, 13920, Note_on_c, 11, 62, 40
13, 14039, Note_on_c, 11, 62, 0
13, 14040, Note_on_c, 11, 64, 40
13, 14139, Note_on_c, 11, 64, 0
13, 14160, Note_on_c, 11, 60, 40
13, 14319, Note_on_c, 11, 60, 0
13, 14400, Note_on_c, 11, 62, 36
13, 14519, Note_on_c, 11, 62, 0
13, 14520, Note_on_c, 11, 64, 36
13, 14619, Note_on_c, 11, 64, 0
13, 14640, Note_on_c, 11, 60, 36
13, 14799, Note_on_c, 11, 60, 0
13, 15360, Note_on_c, 11, 62, 36
13, 15479, Note_on_c, 11, 62, 0
13, 15480, Note_on_c, 11, 64, 36
13, 15579, Note_on_c, 11, 64, 0
13, 15600, Note_on_c, 11, 60, 36
13, 15759, Note_on_c, 11, 60, 0
13, 16320, Note_on_c, 11, 62, 36
13, 16439, Note_on_c, 11, 62, 0
13, 16440, Note_on_c, 11, 64, 36
13, 16539, Note_on_c, 11, 64, 0
13, 16560, Note_on_c, 11, 60, 36
13, 16719, Note_on_c, 11, 60, 0
13, 16800, Note_on_c, 11, 61, 84
13, 17739, Note_on_c, 11, 61, 0
13, 17760, Note_on_c, 11, 81, 84
13, 17824, Note_on_c, 11, 81, 0
13, 17840, Note_on_c, 11, 81, 84
13, 17904, Note_on_c, 11, 81, 0
13, 17920, Note_on_c, 11, 81, 84
13, 17984, Note_on_c, 11, 81, 0
13, 18000, Note_on_c, 11, 81, 84
13, 18064, Note_on_c, 11, 81, 0
13, 18080, Note_on_c, 11, 81, 84
13, 18144, Note_on_c, 11, 81, 0
13, 18160, Note_on_c, 11, 81, 84
13, 18224, Note_on_c, 11, 81, 0
13, 18240, Note_on_c, 11, 81, 84
13, 18359, Note_on_c, 11, 81, 0
13, 18360, Note_on_c, 11, 82, 84
13, 18459, Note_on_c, 11, 82, 0
13, 18480, Note_on_c, 11, 79, 84
13, 18639, Note_on_c, 11, 79, 0
13, 18720, Note_on_c, 11, 81, 84
13, 18839, Note_on_c, 11, 81, 0
13, 18840, Note_on_c, 11, 82, 84
13, 18939, Note_on_c, 11, 82, 0
13, 18960, Note_on_c, 11, 79, 84
13, 19119, Note_on_c, 11, 79, 0
13, 19200, Note_on_c, 11, 81, 84
13, 19319, Note_on_c, 11, 81, 0
13, 19320, Note_on_c, 11, 82, 84
13, 19419, Note_on_c, 11, 82, 0
13, 19440, Note_on_c, 11, 79, 84
13, 19599, Note_on_c, 11, 79, 0
13, 19680, Note_on_c, 11, 82, 84
13, 19744, Note_on_c, 11, 82, 0
13, 19760, Note_on_c, 11, 82, 84
13, 19824, Note_on_c, 11, 82, 0
13, 19840, Note_on_c, 11, 82, 84
13, 19904, Note_on_c, 11, 82, 0
13, 19920, Note_on_c, 11, 82, 84
13, 19984, Note_on_c, 11, 82, 0
13, 20000, Note_on_c, 11, 82, 84
13, 20064, Note_on_c, 11, 82, 0
13, 20080, Note_on_c, 11, 82, 84
13, 20144, Note_on_c, 11, 82, 0
13, 20160, Note_on_c, 11, 82, 84
13, 20279, Note_on_c, 11, 82, 0
13, 20280, Note_on_c, 11, 84, 84
13, 20379, Note_on_c, 11, 84, 0
13, 20400, Note_on_c, 11, 81, 84
13, 20559, Note_on_c, 11, 81, 0
13, 20640, Note_on_c, 11, 82, 84
13, 20759, Note_on_c, 11, 82, 0
13, 20760, Note_on_c, 11, 84, 84
13, 20859, Note_on_c, 11, 84, 0
13, 20880, Note_on_c, 11, 81, 84
13, 21039, Note_on_c, 11, 81, 0
13, 21120, Note_on_c, 11, 82, 84
13, 21239, Note_on_c, 11, 82, 0
13, 21240, Note_on_c, 11, 84, 84
13, 21339, Note_on_c, 11, 84, 0
13, 21360, Note_on_c, 11, 81, 84
13, 21519, Note_on_c, 11, 81, 0
13, 21600, Note_on_c, 11, 77, 84
13, 21839, Note_on_c, 11, 77, 0
13, 21960, Note_on_c, 11, 76, 84
13, 22059, Note_on_c, 11, 76, 0
13, 22080, Note_on_c, 11, 76, 84
13, 22319, Note_on_c, 11, 76, 0
13, 22320, Note_on_c, 11, 74, 84
13, 22539, Note_on_c, 11, 74, 0
13, 22560, Note_on_c, 11, 86, 84
13, 22719, Note_on_c, 11, 86, 0
13, 22920, Note_on_c, 11, 84, 84
13, 23019, Note_on_c, 11, 84, 0
13, 23040, Note_on_c, 11, 84, 84
13, 23279, Note_on_c, 11, 84, 0
13, 23280, Note_on_c, 11, 82, 84
13, 23499, Note_on_c, 11, 82, 0
13, 23520, Note_on_c, 11, 82, 84
13, 23679, Note_on_c, 11, 82, 0
13, 23760, Note_on_c, 11, 81, 84
13, 23919, Note_on_c, 11, 81, 0
13, 24000, Note_on_c, 11, 79, 84
13, 24159, Note_on_c, 11, 79, 0
13, 24240, Note_on_c, 11, 78, 84
13, 24399, Note_on_c, 11, 78, 0
13, 24480, Note_on_c, 11, 79, 84
13, 24639, Note_on_c, 11, 79, 0
13, 24720, Note_on_c, 11, 81, 84
13, 24879, Note_on_c, 11, 81, 0
13, 24960, Note_on_c, 11, 82, 84
13, 25119, Note_on_c, 11, 82, 0
13, 25200, Note_on_c, 11, 79, 84
13, 25359, Note_on_c, 11, 79, 0
13, 25440, Note_on_c, 11, 81, 84
13, 25599, Note_on_c, 11, 81, 0
13, 25680, Note_on_c, 11, 77, 84
13, 25839, Note_on_c, 11, 77, 0
13, 25920, Note_on_c, 11, 74, 84
13, 26079, Note_on_c, 11, 74, 0
13, 26160, Note_on_c, 11, 79, 84
13, 26319, Note_on_c, 11, 79, 0
13, 26400, Note_on_c, 11, 55, 84
13, 26400, Note_on_c, 11, 64, 84
13, 26559, Note_on_c, 11, 55, 0
13, 26559, Note_on_c, 11, 64, 0
13, 26640, Note_on_c, 11, 76, 84
13, 26799, Note_on_c, 11, 76, 0
13, 26880, Note_on_c, 11, 77, 84
13, 27119, Note_on_c, 11, 77, 0
13, 27360, Note_on_c, 11, 65, 84
13, 27424, Note_on_c, 11, 65, 0
13, 27440, Note_on_c, 11, 65, 84
13, 27504, Note_on_c, 11, 65, 0
13, 27520, Note_on_c, 11, 65, 84
13, 27584, Note_on_c, 11, 65, 0
13, 27600, Note_on_c, 11, 65, 84
13, 27664, Note_on_c, 11, 65, 0
13, 27680, Note_on_c, 11, 65, 84
13, 27744, Note_on_c, 11, 65, 0
13, 27760, Note_on_c, 11, 65, 84
13, 27824, Note_on_c, 11, 65, 0
13, 27840, Note_on_c, 11, 65, 84
13, 28079, Note_on_c, 11, 65, 0
13, 28320, Note_on_c, 11, 65, 84
13, 28384, Note_on_c, 11, 65, 0
13, 28400, Note_on_c, 11, 65, 84
13, 28464, Note_on_c, 11, 65, 0
13, 28480, Note_on_c, 11, 65, 84
13, 28544, Note_on_c, 11, 65, 0
13, 28560, Note_on_c, 11, 65, 84
13, 28624, Note_on_c, 11, 65, 0
13, 28640, Note_on_c, 11, 65, 84
13, 28704, Note_on_c, 11, 65, 0
13, 28720, Note_on_c, 11, 65, 84
13, 28784, Note_on_c, 11, 65, 0
13, 28800, Note_on_c, 11, 65, 84
13, 28919, Note_on_c, 11, 65, 0
13, 28920, Note_on_c, 11, 67, 84
13, 29019, Note_on_c, 11, 67, 0
13, 29040, Note_on_c, 11, 64, 84
13, 29199, Note_on_c, 11, 64, 0
13, 29280, Note_on_c, 11, 67, 84
13, 29344, Note_on_c, 11, 67, 0
13, 29360, Note_on_c, 11, 67, 84
13, 29424, Note_on_c, 11, 67, 0
13, 29440, Note_on_c, 11, 67, 84
13, 29504, Note_on_c, 11, 67, 0
13, 29520, Note_on_c, 11, 67, 84
13, 29584, Note_on_c, 11, 67, 0
13, 29600, Note_on_c, 11, 67, 84
13, 29664, Note_on_c, 11, 67, 0
13, 29680, Note_on_c, 11, 67, 84
13, 29744, Note_on_c, 11, 67, 0
13, 29760, Note_on_c, 11, 67, 84
13, 29999, Note_on_c, 11, 67, 0
13, 30240, Note_on_c, 11, 67, 84
13, 30304, Note_on_c, 11, 67, 0
13, 30320, Note_on_c, 11, 67, 84
13, 30384, Note_on_c, 11, 67, 0
13, 30400, Note_on_c, 11, 67, 84
13, 30464, Note_on_c, 11, 67, 0
13, 30480, Note_on_c, 11, 67, 84
13, 30544, Note_on_c, 11, 67, 0
13, 30560, Note_on_c, 11, 67, 84
13, 30624, Note_on_c, 11, 67, 0
13, 30640, Note_on_c, 11, 67, 84
13, 30704, Note_on_c, 11, 67, 0
13, 30720, Note_on_c, 11, 67, 84
13, 30839, Note_on_c, 11, 67, 0
13, 30840, Note_on_c, 11, 69, 84
13, 30939, Note_on_c, 11, 69, 0
13, 30960, Note_on_c, 11, 65, 84
13, 31119, Note_on_c, 11, 65, 0
13, 32160, Note_on_c, 11, 77, 84
13, 32224, Note_on_c, 11, 77, 0
13, 32240, Note_on_c, 11, 77, 84
13, 32304, Note_on_c, 11, 77, 0
13, 32320, Note_on_c, 11, 77, 84
13, 32384, Note_on_c, 11, 77, 0
13, 32400, Note_on_c, 11, 77, 84
13, 32464, Note_on_c, 11, 77, 0
13, 32480, Note_on_c, 11, 77, 84
13, 32544, Note_on_c, 11, 77, 0
13, 32560, Note_on_c, 11, 77, 84
13, 32624, Note_on_c, 11, 77, 0
13, 32640, Note_on_c, 11, 77, 92
13, 32759, Note_on_c, 11, 77, 0
13, 32760, Note_on_c, 11, 79, 84
13, 32859, Note_on_c, 11, 79, 0
13, 32880, Note_on_c, 11, 76, 84
13, 33039, Note_on_c, 11, 76, 0
13, 34080, Note_on_c, 11, 79, 84
13, 34144, Note_on_c, 11, 79, 0
13, 34160, Note_on_c, 11, 79, 84
13, 34224, Note_on_c, 11, 79, 0
13, 34240, Note_on_c, 11, 79, 84
13, 34304, Note_on_c, 11, 79, 0
13, 34320, Note_on_c, 11, 79, 84
13, 34384, Note_on_c, 11, 79, 0
13, 34400, Note_on_c, 11, 79, 84
13, 34464, Note_on_c, 11, 79, 0
13, 34480, Note_on_c, 11, 79, 84
13, 34544, Note_on_c, 11, 79, 0
13, 34560, Note_on_c, 11, 79, 92
13, 34679, Note_on_c, 11, 79, 0
13, 34680, Note_on_c, 11, 81, 84
13, 34779, Note_on_c, 11, 81, 0
13, 34800, Note_on_c, 11, 77, 84
13, 34959, Note_on_c, 11, 77, 0
13, 35040, Note_on_c, 11, 60, 84
13, 35104, Note_on_c, 11, 60, 0
13, 35120, Note_on_c, 11, 60, 84
13, 35184, Note_on_c, 11, 60, 0
13, 35200, Note_on_c, 11, 60, 84
13, 35264, Note_on_c, 11, 60, 0
13, 35280, Note_on_c, 11, 60, 84
13, 35344, Note_on_c, 11, 60, 0
13, 35360, Note_on_c, 11, 60, 84
13, 35424, Note_on_c, 11, 60, 0
13, 35440, Note_on_c, 11, 60, 84
13, 35504, Note_on_c, 11, 60, 0
13, 35520, Note_on_c, 11, 60, 84
13, 35759, Note_on_c, 11, 60, 0
13, 36000, Note_on_c, 11, 60, 84
13, 36064, Note_on_c, 11, 60, 0
13, 36080, Note_on_c, 11, 60, 84
13, 36144, Note_on_c, 11, 60, 0
13, 36160, Note_on_c, 11, 60, 84
13, 36224, Note_on_c, 11, 60, 0
13, 36240, Note_on_c, 11, 60, 84
13, 36304, Note_on_c, 11, 60, 0
13, 36320, Note_on_c, 11, 60, 84
13, 36384, Note_on_c, 11, 60, 0
13, 36400, Note_on_c, 11, 60, 84
13, 36464, Note_on_c, 11, 60, 0
13, 36480, Note_on_c, 11, 60, 84
13, 36599, Note_on_c, 11, 60, 0
13, 36600, Note_on_c, 11, 62, 84
13, 36699, Note_on_c, 11, 62, 0
13, 36720, Note_on_c, 11, 59, 84
13, 36879, Note_on_c, 11, 59, 0
13, 36960, Note_on_c, 11, 62, 84
13, 37024, Note_on_c, 11, 62, 0
13, 37040, Note_on_c, 11, 62, 84
13, 37104, Note_on_c, 11, 62, 0
13, 37120, Note_on_c, 11, 62, 84
13, 37184, Note_on_c, 11, 62, 0
13, 37200, Note_on_c, 11, 62, 84
13, 37264, Note_on_c, 11, 62, 0
13, 37280, Note_on_c, 11, 62, 84
13, 37344, Note_on_c, 11, 62, 0
13, 37360, Note_on_c, 11, 62, 84
13, 37424, Note_on_c, 11, 62, 0
13, 37440, Note_on_c, 11, 62, 84
13, 37679, Note_on_c, 11, 62, 0
13, 37920, Note_on_c, 11, 62, 84
13, 37984, Note_on_c, 11, 62, 0
13, 38000, Note_on_c, 11, 62, 84
13, 38064, Note_on_c, 11, 62, 0
13, 38080, Note_on_c, 11, 62, 84
13, 38144, Note_on_c, 11, 62, 0
13, 38160, Note_on_c, 11, 62, 84
13, 38224, Note_on_c, 11, 62, 0
13, 38240, Note_on_c, 11, 62, 84
13, 38304, Note_on_c, 11, 62, 0
13, 38320, Note_on_c, 11, 62, 84
13, 38384, Note_on_c, 11, 62, 0
13, 38400, Note_on_c, 11, 62, 84
13, 38519, Note_on_c, 11, 62, 0
13, 38520, Note_on_c, 11, 64, 84
13, 38619, Note_on_c, 11, 64, 0
13, 38640, Note_on_c, 11, 60, 84
13, 38799, Note_on_c, 11, 60, 0
13, 39840, Note_on_c, 11, 84, 84
13, 39904, Note_on_c, 11, 84, 0
13, 39920, Note_on_c, 11, 84, 84
13, 39984, Note_on_c, 11, 84, 0
13, 40000, Note_on_c, 11, 84, 84
13, 40064, Note_on_c, 11, 84, 0
13, 40080, Note_on_c, 11, 84, 84
13, 40144, Note_on_c, 11, 84, 0
13, 40160, Note_on_c, 11, 84, 84
13, 40224, Note_on_c, 11, 84, 0
13, 40240, Note_on_c, 11, 84, 84
13, 40304, Note_on_c, 11, 84, 0
13, 40320, Note_on_c, 11, 84, 92
13, 40439, Note_on_c, 11, 84, 0
13, 40440, Note_on_c, 11, 86, 84
13, 40539, Note_on_c, 11, 86, 0
13, 40560, Note_on_c, 11, 83, 84
13, 40719, Note_on_c, 11, 83, 0
13, 41760, Note_on_c, 11, 71, 92
13, 41919, Note_on_c, 11, 71, 0
13, 42000, Note_on_c, 11, 74, 84
13, 42159, Note_on_c, 11, 74, 0
13, 42240, Note_on_c, 11, 74, 92
13, 42399, Note_on_c, 11, 74, 0
13, 42480, Note_on_c, 11, 77, 84
13, 42639, Note_on_c, 11, 77, 0
13, 43680, Note_on_c, 11, 71, 84
13, 43839, Note_on_c, 11, 71, 0
13, 43920, Note_on_c, 11, 74, 84
13, 44079, Note_on_c, 11, 74, 0
13, 44160, Note_on_c, 11, 74, 84
13, 44319, Note_on_c, 11, 74, 0
13, 44400, Note_on_c, 11, 77, 84
13, 44559, Note_on_c, 11, 77, 0
13, 45600, Note_on_c, 11, 79, 84
13, 45759, Note_on_c, 11, 79, 0
13, 45840, Note_on_c, 11, 67, 84
13, 45999, Note_on_c, 11, 67, 0
13, 46080, Note_on_c, 11, 68, 52
13, 47039, Note_on_c, 11, 68, 0
13, 47040, Note_on_c, 11, 75, 52
13, 47759, Note_on_c, 11, 75, 0
13, 47760, Note_on_c, 11, 77, 52
13, 47979, Note_on_c, 11, 77, 0
13, 48000, Note_on_c, 11, 77, 52
13, 48239, Note_on_c, 11, 77, 0
13, 48240, Note_on_c, 11, 70, 52
13, 48459, Note_on_c, 11, 70, 0
13, 48480, Note_on_c, 11, 70, 52
13, 48719, Note_on_c, 11, 70, 0
13, 48720, Note_on_c, 11, 72, 52
13, 48959, Note_on_c, 11, 72, 0
13, 48960, Note_on_c, 11, 73, 52
13, 49199, Note_on_c, 11, 73, 0
13, 49440, Note_on_c, 11, 75, 52
13, 49679, Note_on_c, 11, 75, 0
13, 49920, Note_on_c, 11, 72, 52
13, 50879, Note_on_c, 11, 72, 0
13, 50880, Note_on_c, 11, 75, 52
13, 51119, Note_on_c, 11, 75, 0
13, 51120, Note_on_c, 11, 77, 52
13, 51199, Note_on_c, 11, 77, 0
13, 51200, Note_on_c, 11, 75, 52
13, 51279, Note_on_c, 11, 75, 0
13, 51280, Note_on_c, 11, 74, 52
13, 51359, Note_on_c, 11, 74, 0
13, 51360, Note_on_c, 11, 75, 52
13, 51599, Note_on_c, 11, 75, 0
13, 51600, Note_on_c, 11, 76, 52
13, 51839, Note_on_c, 11, 76, 0
13, 51840, Note_on_c, 11, 79, 52
13, 52079, Note_on_c, 11, 79, 0
13, 52080, Note_on_c, 11, 77, 52
13, 52319, Note_on_c, 11, 77, 0
13, 52320, Note_on_c, 11, 70, 52
13, 52559, Note_on_c, 11, 70, 0
13, 52560, Note_on_c, 11, 72, 52
13, 52799, Note_on_c, 11, 72, 0
13, 52800, Note_on_c, 11, 73, 52
13, 53039, Note_on_c, 11, 73, 0
13, 53280, Note_on_c, 11, 75, 52
13, 53519, Note_on_c, 11, 75, 0
13, 53520, Control_c, 11, 11, 96
13, 53760, Note_on_c, 11, 72, 68
13, 54080, Control_c, 11, 11, 99
13, 54400, Control_c, 11, 11, 101
13, 54719, Note_on_c, 11, 72, 0
13, 54720, Note_on_c, 11, 72, 68
13, 54720, Control_c, 11, 11, 104
13, 55040, Control_c, 11, 11, 106
13, 55360, Control_c, 11, 11, 109
13, 55679, Note_on_c, 11, 72, 0
13, 55680, Note_on_c, 11, 74, 68
13, 55680, Control_c, 11, 11, 112
13, 56000, Control_c, 11, 11, 114
13, 56320, Control_c, 11, 11, 117
13, 56639, Note_on_c, 11, 74, 0
13, 56640, Note_on_c, 11, 79, 68
13, 56640, Control_c, 11, 11, 119
13, 56960, Control_c, 11, 11, 122
13, 57280, Control_c, 11, 11, 124
13, 57579, Note_on_c, 11, 79, 0
13, 57600, Note_on_c, 11, 72, 52
13, 57600, Control_c, 11, 11, 127
13, 57759, Note_on_c, 11, 72, 0
13, 57760, Note_on_c, 11, 60, 52
13, 57919, Note_on_c, 11, 60, 0
13, 57920, Note_on_c, 11, 64, 52
13, 58079, Note_on_c, 11, 64, 0
13, 58080, Note_on_c, 11, 67, 52
13, 58239, Note_on_c, 11, 67, 0
13, 58240, Note_on_c, 11, 55, 52
13, 58399, Note_on_c, 11, 55, 0
13, 58400, Note_on_c, 11, 67, 52
13, 58539, Note_on_c, 11, 67, 0
13, 58560, Note_on_c, 11, 55, 52
13, 58719, Note_on_c, 11, 55, 0
13, 58720, Note_on_c, 11, 60, 52
13, 58879, Note_on_c, 11, 60, 0
13, 58880, Note_on_c, 11, 64, 52
13, 59039, Note_on_c, 11, 64, 0
13, 59040, Note_on_c, 11, 67, 52
13, 59199, Note_on_c, 11, 67, 0
13, 59200, Note_on_c, 11, 55, 52
13, 59359, Note_on_c, 11, 55, 0
13, 59360, Note_on_c, 11, 67, 52
13, 59499, Note_on_c, 11, 67, 0
13, 59520, Note_on_c, 11, 55, 52
13, 59679, Note_on_c, 11, 55, 0
13, 59680, Note_on_c, 11, 62, 52
13, 59839, Note_on_c, 11, 62, 0
13, 59840, Note_on_c, 11, 65, 52
13, 59999, Note_on_c, 11, 65, 0
13, 60000, Note_on_c, 11, 67, 52
13, 60159, Note_on_c, 11, 67, 0
13, 60160, Note_on_c, 11, 55, 52
13, 60319, Note_on_c, 11, 55, 0
13, 60320, Note_on_c, 11, 67, 52
13, 60459, Note_on_c, 11, 67, 0
13, 60480, Note_on_c, 11, 55, 52
13, 60639, Note_on_c, 11, 55, 0
13, 60640, Note_on_c, 11, 62, 52
13, 60799, Note_on_c, 11, 62, 0
13, 60800, Note_on_c, 11, 65, 52
13, 60959, Note_on_c, 11, 65, 0
13, 60960, Note_on_c, 11, 67, 52
13, 61119, Note_on_c, 11, 67, 0
13, 61120, Note_on_c, 11, 55, 52
13, 61279, Note_on_c, 11, 55, 0
13, 61280, Note_on_c, 11, 67, 52
13, 61419, Note_on_c, 11, 67, 0
13, 61440, Note_on_c, 11, 55, 52
13, 61599, Note_on_c, 11, 55, 0
13, 61600, Note_on_c, 11, 60, 52
13, 61759, Note_on_c, 11, 60, 0
13, 61760, Note_on_c, 11, 64, 52
13, 61919, Note_on_c, 11, 64, 0
13, 61920, Note_on_c, 11, 67, 52
13, 62079, Note_on_c, 11, 67, 0
13, 62080, Note_on_c, 11, 55, 52
13, 62239, Note_on_c, 11, 55, 0
13, 62240, Note_on_c, 11, 67, 52
13, 62379, Note_on_c, 11, 67, 0
13, 62400, Note_on_c, 11, 55, 52
13, 62559, Note_on_c, 11, 55, 0
13, 62560, Note_on_c, 11, 60, 52
13, 62719, Note_on_c, 11, 60, 0
13, 62720, Note_on_c, 11, 64, 52
13, 62879, Note_on_c, 11, 64, 0
13, 62880, Note_on_c, 11, 67, 52
13, 63039, Note_on_c, 11, 67, 0
13, 63040, Note_on_c, 11, 55, 52
13, 63199, Note_on_c, 11, 55, 0
13, 63200, Note_on_c, 11, 67, 52
13, 63339, Note_on_c, 11, 67, 0
13, 63360, Note_on_c, 11, 55, 52
13, 63519, Note_on_c, 11, 55, 0
13, 63520, Note_on_c, 11, 62, 52
13, 63679, Note_on_c, 11, 62, 0
13, 63680, Note_on_c, 11, 65, 52
13, 63839, Note_on_c, 11, 65, 0
13, 63840, Note_on_c, 11, 67, 52
13, 63999, Note_on_c, 11, 67, 0
13, 64000, Note_on_c, 11, 55, 52
13, 64159, Note_on_c, 11, 55, 0
13, 64160, Note_on_c, 11, 67, 52
13, 64299, Note_on_c, 11, 67, 0
13, 64320, Note_on_c, 11, 55, 52
13, 64479, Note_on_c, 11, 55, 0
13, 64480, Note_on_c, 11, 62, 52
13, 64639, Note_on_c, 11, 62, 0
13, 64640, Note_on_c, 11, 65, 52
13, 64799, Note_on_c, 11, 65, 0
13, 64800, Note_on_c, 11, 67, 52
13, 64959, Note_on_c, 11, 67, 0
13, 64960, Note_on_c, 11, 55, 52
13, 65119, Note_on_c, 11, 55, 0
13, 65120, Note_on_c, 11, 67, 52
13, 65259, Note_on_c, 11, 67, 0
13, 65280, Note_on_c, 11, 64, 44
13, 65399, Note_on_c, 11, 64, 0
13, 65440, Note_on_c, 11, 64, 44
13, 65599, Note_on_c, 11, 64, 0
13, 65600, Note_on_c, 11, 62, 44
13, 65759, Note_on_c, 11, 62, 0
13, 65760, Note_on_c, 11, 64, 44
13, 65919, Note_on_c, 11, 64, 0
13, 65920, Note_on_c, 11, 62, 44
13, 66079, Note_on_c, 11, 62, 0
13, 66080, Note_on_c, 11, 64, 44
13, 66239, Note_on_c, 11, 64, 0
13, 66240, Note_on_c, 11, 65, 44
13, 66379, Note_on_c, 11, 65, 0
13, 66400, Note_on_c, 11, 65, 44
13, 66559, Note_on_c, 11, 65, 0
13, 66560, Note_on_c, 11, 64, 44
13, 66719, Note_on_c, 11, 64, 0
13, 66720, Note_on_c, 11, 65, 44
13, 66879, Note_on_c, 11, 65, 0
13, 66880, Note_on_c, 11, 64, 44
13, 67039, Note_on_c, 11, 64, 0
13, 67040, Note_on_c, 11, 66, 44
13, 67199, Note_on_c, 11, 66, 0
13, 67200, Note_on_c, 11, 67, 44
13, 67339, Note_on_c, 11, 67, 0
13, 67360, Note_on_c, 11, 67, 44
13, 67519, Note_on_c, 11, 67, 0
13, 67520, Note_on_c, 11, 66, 44
13, 67679, Note_on_c, 11, 66, 0
13, 67680, Note_on_c, 11, 67, 44
13, 67839, Note_on_c, 11, 67, 0
13, 67840, Note_on_c, 11, 65, 44
13, 67999, Note_on_c, 11, 65, 0
13, 68000, Note_on_c, 11, 67, 44
13, 68159, Note_on_c, 11, 67, 0
13, 68160, Note_on_c, 11, 69, 44
13, 68299, Note_on_c, 11, 69, 0
13, 68320, Note_on_c, 11, 69, 44
13, 68479, Note_on_c, 11, 69, 0
13, 68480, Note_on_c, 11, 67, 44
13, 68639, Note_on_c, 11, 67, 0
13, 68640, Note_on_c, 11, 69, 44
13, 68799, Note_on_c, 11, 69, 0
13, 68800, Note_on_c, 11, 67, 44
13, 68959, Note_on_c, 11, 67, 0
13, 68960, Note_on_c, 11, 69, 44
13, 69099, Note_on_c, 11, 69, 0
13, 69120, Note_on_c, 11, 71, 44
13, 69279, Note_on_c, 11, 71, 0
13, 69280, Note_on_c, 11, 72, 44
13, 69439, Note_on_c, 11, 72, 0
13, 69440, Note_on_c, 11, 71, 44
13, 69599, Note_on_c, 11, 71, 0
13, 69600, Note_on_c, 11, 72, 44
13, 69759, Note_on_c, 11, 72, 0
13, 69760, Note_on_c, 11, 71, 44
13, 69919, Note_on_c, 11, 71, 0
13, 69920, Note_on_c, 11, 72, 44
13, 70079, Note_on_c, 11, 72, 0
13, 70080, Note_on_c, 11, 69, 44
13, 70239, Note_on_c, 11, 69, 0
13, 70240, Note_on_c, 11, 71, 44
13, 70399, Note_on_c, 11, 71, 0
13, 70400, Note_on_c, 11, 69, 44
13, 70559, Note_on_c, 11, 69, 0
13, 70560, Note_on_c, 11, 71, 44
13, 70719, Note_on_c, 11, 71, 0
13, 70720, Note_on_c, 11, 69, 44
13, 70879, Note_on_c, 11, 69, 0
13, 70880, Note_on_c, 11, 71, 44
13, 71039, Note_on_c, 11, 71, 0
13, 71040, Note_on_c, 11, 67, 44
13, 71199, Note_on_c, 11, 67, 0
13, 71200, Note_on_c, 11, 69, 44
13, 71359, Note_on_c, 11, 69, 0
13, 71360, Note_on_c, 11, 67, 44
13, 71519, Note_on_c, 11, 67, 0
13, 71520, Note_on_c, 11, 69, 44
13, 71679, Note_on_c, 11, 69, 0
13, 71680, Note_on_c, 11, 67, 44
13, 71839, Note_on_c, 11, 67, 0
13, 71840, Note_on_c, 11, 69, 44
13, 71999, Note_on_c, 11, 69, 0
13, 72000, Note_on_c, 11, 65, 44
13, 72159, Note_on_c, 11, 65, 0
13, 72160, Note_on_c, 11, 67, 44
13, 72319, Note_on_c, 11, 67, 0
13, 72320, Note_on_c, 11, 65, 44
13, 72479, Note_on_c, 11, 65, 0
13, 72480, Note_on_c, 11, 67, 44
13, 72639, Note_on_c, 11, 67, 0
13, 72640, Note_on_c, 11, 65, 44
13, 72799, Note_on_c, 11, 65, 0
13, 72800, Note_on_c, 11, 67, 44
13, 72939, Note_on_c, 11, 67, 0
13, 72960, Note_on_c, 11, 64, 76
13, 73179, Note_on_c, 11, 64, 0
13, 73200, Note_on_c, 11, 76, 76
13, 73659, Note_on_c, 11, 76, 0
13, 73680, Note_on_c, 11, 74, 76
13, 73799, Note_on_c, 11, 74, 0
13, 73800, Note_on_c, 11, 76, 76
13, 73919, Note_on_c, 11, 76, 0
13, 73920, Note_on_c, 11, 77, 76
13, 74079, Note_on_c, 11, 77, 0
13, 74160, Note_on_c, 11, 77, 76
13, 74619, Note_on_c, 11, 77, 0
13, 74640, Note_on_c, 11, 76, 76
13, 74759, Note_on_c, 11, 76, 0
13, 74760, Note_on_c, 11, 78, 76
13, 74879, Note_on_c, 11, 78, 0
13, 74880, Note_on_c, 11, 79, 76
13, 75039, Note_on_c, 11, 79, 0
13, 75120, Note_on_c, 11, 79, 76
13, 75579, Note_on_c, 11, 79, 0
13, 75600, Note_on_c, 11, 77, 76
13, 75719, Note_on_c, 11, 77, 0
13, 75720, Note_on_c, 11, 79, 76
13, 75839, Note_on_c, 11, 79, 0
13, 75840, Note_on_c, 11, 81, 76
13, 75999, Note_on_c, 11, 81, 0
13, 76080, Note_on_c, 11, 81, 76
13, 76539, Note_on_c, 11, 81, 0
13, 76560, Note_on_c, 11, 79, 76
13, 76679, Note_on_c, 11, 79, 0
13, 76680, Note_on_c, 11, 81, 76
13, 76779, Note_on_c, 11, 81, 0
13, 76800, Note_on_c, 11, 83, 76
13, 76864, Note_on_c, 11, 83, 0
13, 76880, Note_on_c, 11, 83, 76
13, 76944, Note_on_c, 11, 83, 0
13, 76960, Note_on_c, 11, 83, 76
13, 77024, Note_on_c, 11, 83, 0
13, 77040, Note_on_c, 11, 71, 76
13, 77104, Note_on_c, 11, 71, 0
13, 77120, Note_on_c, 11, 71, 76
13, 77184, Note_on_c, 11, 71, 0
13, 77200, Note_on_c, 11, 71, 76
13, 77264, Note_on_c, 11, 71, 0
13, 77280, Note_on_c, 11, 83, 76
13, 77344, Note_on_c, 11, 83, 0
13, 77360, Note_on_c, 11, 83, 76
13, 77424, Note_on_c, 11, 83, 0
13, 77440, Note_on_c, 11, 83, 76
13, 77504, Note_on_c, 11, 83, 0
13, 77520, Note_on_c, 11, 84, 76
13, 77584, Note_on_c, 11, 84, 0
13, 77600, Note_on_c, 11, 84, 76
13, 77664, Note_on_c, 11, 84, 0
13, 77680, Note_on_c, 11, 84, 76
13, 77744, Note_on_c, 11, 84, 0
13, 77760, Note_on_c, 11, 81, 76
13, 77824, Note_on_c, 11, 81, 0
13, 77840, Note_on_c, 11, 81, 76
13, 77904, Note_on_c, 11, 81, 0
13, 77920, Note_on_c, 11, 81, 76
13, 77984, Note_on_c, 11, 81, 0
13, 78000, Note_on_c, 11, 69, 76
13, 78064, Note_on_c, 11, 69, 0
13, 78080, Note_on_c, 11, 69, 76
13, 78144, Note_on_c, 11, 69, 0
13, 78160, Note_on_c, 11, 69, 76
13, 78224, Note_on_c, 11, 69, 0
13, 78240, Note_on_c, 11, 81, 76
13, 78304, Note_on_c, 11, 81, 0
13, 78320, Note_on_c, 11, 81, 76
13, 78384, Note_on_c, 11, 81, 0
13, 78400, Note_on_c, 11, 81, 76
13, 78464, Note_on_c, 11, 81, 0
13, 78480, Note_on_c, 11, 83, 76
13, 78544, Note_on_c, 11, 83, 0
13, 78560, Note_on_c, 11, 83, 76
13, 78624, Note_on_c, 11, 83, 0
13, 78640, Note_on_c, 11, 83, 76
13, 78704, Note_on_c, 11, 83, 0
13, 78720, Note_on_c, 11, 79, 76
13, 78784, Note_on_c, 11, 79, 0
13, 78800, Note_on_c, 11, 79, 76
13, 78864, Note_on_c, 11, 79, 0
13, 78880, Note_on_c, 11, 79, 76
13, 78944, Note_on_c, 11, 79, 0
13, 78960, Note_on_c, 11, 67, 76
13, 79024, Note_on_c, 11, 67, 0
13, 79040, Note_on_c, 11, 67, 76
13, 79104, Note_on_c, 11, 67, 0
13, 79120, Note_on_c, 11, 67, 76
13, 79184, Note_on_c, 11, 67, 0
13, 79200, Note_on_c, 11, 79, 76
13, 79264, Note_on_c, 11, 79, 0
13, 79280, Note_on_c, 11, 79, 76
13, 79344, Note_on_c, 11, 79, 0
13, 79360, Note_on_c, 11, 79, 76
13, 79424, Note_on_c, 11, 79, 0
13, 79440, Note_on_c, 11, 81, 76
13, 79504, Note_on_c, 11, 81, 0
13, 79520, Note_on_c, 11, 81, 76
13, 79584, Note_on_c, 11, 81, 0
13, 79600, Note_on_c, 11, 81, 76
13, 79664, Note_on_c, 11, 81, 0
13, 79680, Note_on_c, 11, 77, 76
13, 79744, Note_on_c, 11, 77, 0
13, 79760, Note_on_c, 11, 77, 76
13, 79824, Note_on_c, 11, 77, 0
13, 79840, Note_on_c, 11, 77, 76
13, 79904, Note_on_c, 11, 77, 0
13, 79920, Note_on_c, 11, 65, 76
13, 79984, Note_on_c, 11, 65, 0
13, 80000, Note_on_c, 11, 65, 76
13, 80064, Note_on_c, 11, 65, 0
13, 80080, Note_on_c, 11, 65, 76
13, 80144, Note_on_c, 11, 65, 0
13, 80160, Note_on_c, 11, 77, 76
13, 80224, Note_on_c, 11, 77, 0
13, 80240, Note_on_c, 11, 77, 76
13, 80304, Note_on_c, 11, 77, 0
13, 80320, Note_on_c, 11, 77, 76
13, 80384, Note_on_c, 11, 77, 0
13, 80400, Note_on_c, 11, 79, 76
13, 80464, Note_on_c, 11, 79, 0
13, 80480, Note_on_c, 11, 79, 76
13, 80544, Note_on_c, 11, 79, 0
13, 80560, Note_on_c, 11, 79, 76
13, 80624, Note_on_c, 11, 79, 0
13, 80640, Note_on_c, 11, 77, 80
13, 80640, Note_on_c, 11, 74, 80
13, 80704, Note_on_c, 11, 77, 0
13, 80704, Note_on_c, 11, 74, 0
13, 80720, Note_on_c, 11, 77, 80
13, 80720, Note_on_c, 11, 74, 80
13, 80784, Note_on_c, 11, 77, 0
13, 80784, Note_on_c, 11, 74, 0
13, 80800, Note_on_c, 11, 77, 80
13, 80800, Note_on_c, 11, 74, 80
13, 80864, Note_on_c, 11, 77, 0
13, 80864, Note_on_c, 11, 74, 0
13, 80880, Note_on_c, 11, 77, 80
13, 80880, Note_on_c, 11, 74, 80
13, 80944, Note_on_c, 11, 77, 0
13, 80944, Note_on_c, 11, 74, 0
13, 80960, Note_on_c, 11, 77, 80
13, 80960, Note_on_c, 11, 74, 80
13, 81024, Note_on_c, 11, 77, 0
13, 81024, Note_on_c, 11, 74, 0
13, 81040, Note_on_c, 11, 77, 80
13, 81040, Note_on_c, 11, 74, 80
13, 81104, Note_on_c, 11, 77, 0
13, 81104, Note_on_c, 11, 74, 0
13, 81120, Note_on_c, 11, 74, 80
13, 81120, Note_on_c, 11, 77, 80
13, 81184, Note_on_c, 11, 74, 0
13, 81184, Note_on_c, 11, 77, 0
13, 81200, Note_on_c, 11, 77, 80
13, 81200, Note_on_c, 11, 74, 80
13, 81264, Note_on_c, 11, 77, 0
13, 81264, Note_on_c, 11, 74, 0
13, 81280, Note_on_c, 11, 77, 80
13, 81280, Note_on_c, 11, 74, 80
13, 81344, Note_on_c, 11, 77, 0
13, 81344, Note_on_c, 11, 74, 0
13, 81360, Note_on_c, 11, 77, 80
13, 81360, Note_on_c, 11, 74, 80
13, 81424, Note_on_c, 11, 77, 0
13, 81424, Note_on_c, 11, 74, 0
13, 81440, Note_on_c, 11, 77, 80
13, 81440, Note_on_c, 11, 74, 80
13, 81504, Note_on_c, 11, 77, 0
13, 81504, Note_on_c, 11, 74, 0
13, 81520, Note_on_c, 11, 77, 80
13, 81520, Note_on_c, 11, 74, 80
13, 81584, Note_on_c, 11, 77, 0
13, 81584, Note_on_c, 11, 74, 0
13, 81600, Note_on_c, 11, 74, 80
13, 81600, Note_on_c, 11, 77, 80
13, 81664, Note_on_c, 11, 74, 0
13, 81664, Note_on_c, 11, 77, 0
13, 81680, Note_on_c, 11, 74, 80
13, 81680, Note_on_c, 11, 77, 80
13, 81744, Note_on_c, 11, 74, 0
13, 81744, Note_on_c, 11, 77, 0
13, 81760, Note_on_c, 11, 74, 80
13, 81760, Note_on_c, 11, 77, 80
13, 81824, Note_on_c, 11, 74, 0
13, 81824, Note_on_c, 11, 77, 0
13, 81840, Note_on_c, 11, 77, 80
13, 81840, Note_on_c, 11, 74, 80
13, 81904, Note_on_c, 11, 77, 0
13, 81904, Note_on_c, 11, 74, 0
13, 81920, Note_on_c, 11, 77, 80
13, 81920, Note_on_c, 11, 74, 80
13, 81984, Note_on_c, 11, 77, 0
13, 81984, Note_on_c, 11, 74, 0
13, 82000, Note_on_c, 11, 74, 80
13, 82000, Note_on_c, 11, 77, 80
13, 82064, Note_on_c, 11, 74, 0
13, 82064, Note_on_c, 11, 77, 0
13, 82080, Note_on_c, 11, 77, 80
13, 82080, Note_on_c, 11, 74, 80
13, 82144, Note_on_c, 11, 77, 0
13, 82144, Note_on_c, 11, 74, 0
13, 82160, Note_on_c, 11, 77, 80
13, 82160, Note_on_c, 11, 74, 80
13, 82224, Note_on_c, 11, 77, 0
13, 82224, Note_on_c, 11, 74, 0
13, 82240, Note_on_c, 11, 74, 80
13, 82240, Note_on_c, 11, 77, 80
13, 82304, Note_on_c, 11, 74, 0
13, 82304, Note_on_c, 11, 77, 0
13, 82320, Note_on_c, 11, 77, 80
13, 82320, Note_on_c, 11, 74, 80
13, 82384, Note_on_c, 11, 77, 0
13, 82384, Note_on_c, 11, 74, 0
13, 82400, Note_on_c, 11, 77, 80
13, 82400, Note_on_c, 11, 74, 80
13, 82464, Note_on_c, 11, 77, 0
13, 82464, Note_on_c, 11, 74, 0
13, 82480, Note_on_c, 11, 77, 80
13, 82480, Note_on_c, 11, 74, 80
13, 82544, Note_on_c, 11, 77, 0
13, 82544, Note_on_c, 11, 74, 0
13, 82560, Note_on_c, 11, 82, 80
13, 82560, Note_on_c, 11, 70, 80
13, 82624, Note_on_c, 11, 82, 0
13, 82624, Note_on_c, 11, 70, 0
13, 82640, Note_on_c, 11, 70, 80
13, 82640, Note_on_c, 11, 82, 80
13, 82704, Note_on_c, 11, 70, 0
13, 82704, Note_on_c, 11, 82, 0
13, 82720, Note_on_c, 11, 82, 80
13, 82720, Note_on_c, 11, 70, 80
13, 82784, Note_on_c, 11, 82, 0
13, 82784, Note_on_c, 11, 70, 0
13, 82800, Note_on_c, 11, 82, 80
13, 82800, Note_on_c, 11, 70, 80
13, 82864, Note_on_c, 11, 82, 0
13, 82864, Note_on_c, 11, 70, 0
13, 82880, Note_on_c, 11, 70, 80
13, 82880, Note_on_c, 11, 82, 80
13, 82944, Note_on_c, 11, 70, 0
13, 82944, Note_on_c, 11, 82, 0
13, 82960, Note_on_c, 11, 70, 80
13, 82960, Note_on_c, 11, 82, 80
13, 83024, Note_on_c, 11, 70, 0
13, 83024, Note_on_c, 11, 82, 0
13, 83040, Note_on_c, 11, 70, 80
13, 83040, Note_on_c, 11, 82, 80
13, 83104, Note_on_c, 11, 70, 0
13, 83104, Note_on_c, 11, 82, 0
13, 83120, Note_on_c, 11, 70, 80
13, 83120, Note_on_c, 11, 82, 80
13, 83184, Note_on_c, 11, 70, 0
13, 83184, Note_on_c, 11, 82, 0
13, 83200, Note_on_c, 11, 82, 80
13, 83200, Note_on_c, 11, 70, 80
13, 83264, Note_on_c, 11, 82, 0
13, 83264, Note_on_c, 11, 70, 0
13, 83280, Note_on_c, 11, 82, 80
13, 83280, Note_on_c, 11, 70, 80
13, 83344, Note_on_c, 11, 82, 0
13, 83344, Note_on_c, 11, 70, 0
13, 83360, Note_on_c, 11, 70, 80
13, 83360, Note_on_c, 11, 82, 80
13, 83424, Note_on_c, 11, 70, 0
13, 83424, Note_on_c, 11, 82, 0
13, 83440, Note_on_c, 11, 70, 80
13, 83440, Note_on_c, 11, 82, 80
13, 83504, Note_on_c, 11, 70, 0
13, 83504, Note_on_c, 11, 82, 0
13, 83520, Note_on_c, 11, 70, 80
13, 83520, Note_on_c, 11, 82, 80
13, 83584, Note_on_c, 11, 70, 0
13, 83584, Note_on_c, 11, 82, 0
13, 83600, Note_on_c, 11, 70, 80
13, 83600, Note_on_c, 11, 82, 80
13, 83664, Note_on_c, 11, 70, 0
13, 83664, Note_on_c, 11, 82, 0
13, 83680, Note_on_c, 11, 82, 80
13, 83680, Note_on_c, 11, 70, 80
13, 83744, Note_on_c, 11, 82, 0
13, 83744, Note_on_c, 11, 70, 0
13, 83760, Note_on_c, 11, 70, 80
13, 83760, Note_on_c, 11, 82, 80
13, 83824, Note_on_c, 11, 70, 0
13, 83824, Note_on_c, 11, 82, 0
13, 83840, Note_on_c, 11, 70, 80
13, 83840, Note_on_c, 11, 82, 80
13, 83904, Note_on_c, 11, 70, 0
13, 83904, Note_on_c, 11, 82, 0
13, 83920, Note_on_c, 11, 70, 80
13, 83920, Note_on_c, 11, 82, 80
13, 83984, Note_on_c, 11, 70, 0
13, 83984, Note_on_c, 11, 82, 0
13, 84000, Note_on_c, 11, 82, 80
13, 84000, Note_on_c, 11, 70, 80
13, 84064, Note_on_c, 11, 82, 0
13, 84064, Note_on_c, 11, 70, 0
13, 84080, Note_on_c, 11, 70, 80
13, 84080, Note_on_c, 11, 82, 80
13, 84144, Note_on_c, 11, 70, 0
13, 84144, Note_on_c, 11, 82, 0
13, 84160, Note_on_c, 11, 82, 80
13, 84160, Note_on_c, 11, 70, 80
13, 84224, Note_on_c, 11, 82, 0
13, 84224, Note_on_c, 11, 70, 0
13, 84240, Note_on_c, 11, 70, 80
13, 84240, Note_on_c, 11, 82, 80
13, 84304, Note_on_c, 11, 70, 0
13, 84304, Note_on_c, 11, 82, 0
13, 84320, Note_on_c, 11, 82, 80
13, 84320, Note_on_c, 11, 70, 80
13, 84384, Note_on_c, 11, 82, 0
13, 84384, Note_on_c, 11, 70, 0
13, 84400, Note_on_c, 11, 82, 80
13, 84400, Note_on_c, 11, 70, 80
13, 84464, Note_on_c, 11, 82, 0
13, 84464, Note_on_c, 11, 70, 0
13, 84480, Note_on_c, 11, 81, 84
13, 84480, Note_on_c, 11, 69, 84
13, 84544, Note_on_c, 11, 81, 0
13, 84544, Note_on_c, 11, 69, 0
13, 84560, Note_on_c, 11, 81, 84
13, 84560, Note_on_c, 11, 69, 84
13, 84624, Note_on_c, 11, 81, 0
13, 84624, Note_on_c, 11, 69, 0
13, 84640, Note_on_c, 11, 69, 84
13, 84640, Note_on_c, 11, 81, 84
13, 84704, Note_on_c, 11, 69, 0
13, 84704, Note_on_c, 11, 81, 0
13, 84720, Note_on_c, 11, 69, 84
13, 84720, Note_on_c, 11, 81, 84
13, 84784, Note_on_c, 11, 69, 0
13, 84784, Note_on_c, 11, 81, 0
13, 84800, Note_on_c, 11, 81, 84
13, 84800, Note_on_c, 11, 69, 84
13, 84864, Note_on_c, 11, 81, 0
13, 84864, Note_on_c, 11, 69, 0
13, 84880, Note_on_c, 11, 69, 84
13, 84880, Note_on_c, 11, 81, 84
13, 84944, Note_on_c, 11, 69, 0
13, 84944, Note_on_c, 11, 81, 0
13, 84960, Note_on_c, 11, 69, 84
13, 84960, Note_on_c, 11, 81, 84
13, 85024, Note_on_c, 11, 69, 0
13, 85024, Note_on_c, 11, 81, 0
13, 85040, Note_on_c, 11, 81, 84
13, 85040, Note_on_c, 11, 69, 84
13, 85104, Note_on_c, 11, 81, 0
13, 85104, Note_on_c, 11, 69, 0
13, 85120, Note_on_c, 11, 81, 84
13, 85120, Note_on_c, 11, 69, 84
13, 85184, Note_on_c, 11, 81, 0
13, 85184, Note_on_c, 11, 69, 0
13, 85200, Note_on_c, 11, 69, 84
13, 85200, Note_on_c, 11, 81, 84
13, 85264, Note_on_c, 11, 69, 0
13, 85264, Note_on_c, 11, 81, 0
13, 85280, Note_on_c, 11, 81, 84
13, 85280, Note_on_c, 11, 69, 84
13, 85344, Note_on_c, 11, 81, 0
13, 85344, Note_on_c, 11, 69, 0
13, 85360, Note_on_c, 11, 81, 84
13, 85360, Note_on_c, 11, 69, 84
13, 85424, Note_on_c, 11, 81, 0
13, 85424, Note_on_c, 11, 69, 0
13, 85440, Note_on_c, 11, 81, 84
13, 85440, Note_on_c, 11, 69, 84
13, 85504, Note_on_c, 11, 81, 0
13, 85504, Note_on_c, 11, 69, 0
13, 85520, Note_on_c, 11, 81, 84
13, 85520, Note_on_c, 11, 69, 84
13, 85584, Note_on_c, 11, 81, 0
13, 85584, Note_on_c, 11, 69, 0
13, 85600, Note_on_c, 11, 81, 84
13, 85600, Note_on_c, 11, 69, 84
13, 85664, Note_on_c, 11, 81, 0
13, 85664, Note_on_c, 11, 69, 0
13, 85680, Note_on_c, 11, 81, 84
13, 85680, Note_on_c, 11, 69, 84
13, 85744, Note_on_c, 11, 81, 0
13, 85744, Note_on_c, 11, 69, 0
13, 85760, Note_on_c, 11, 69, 84
13, 85760, Note_on_c, 11, 81, 84
13, 85824, Note_on_c, 11, 69, 0
13, 85824, Note_on_c, 11, 81, 0
13, 85840, Note_on_c, 11, 69, 84
13, 85840, Note_on_c, 11, 81, 84
13, 85904, Note_on_c, 11, 69, 0
13, 85904, Note_on_c, 11, 81, 0
13, 85920, Note_on_c, 11, 81, 84
13, 85920, Note_on_c, 11, 69, 84
13, 85984, Note_on_c, 11, 81, 0
13, 85984, Note_on_c, 11, 69, 0
13, 86000, Note_on_c, 11, 69, 84
13, 86000, Note_on_c, 11, 81, 84
13, 86064, Note_on_c, 11, 69, 0
13, 86064, Note_on_c, 11, 81, 0
13, 86080, Note_on_c, 11, 81, 84
13, 86080, Note_on_c, 11, 69, 84
13, 86144, Note_on_c, 11, 81, 0
13, 86144, Note_on_c, 11, 69, 0
13, 86160, Note_on_c, 11, 81, 84
13, 86160, Note_on_c, 11, 69, 84
13, 86224, Note_on_c, 11, 81, 0
13, 86224, Note_on_c, 11, 69, 0
13, 86240, Note_on_c, 11, 69, 84
13, 86240, Note_on_c, 11, 81, 84
13, 86304, Note_on_c, 11, 69, 0
13, 86304, Note_on_c, 11, 81, 0
13, 86320, Note_on_c, 11, 69, 84
13, 86320, Note_on_c, 11, 81, 84
13, 86384, Note_on_c, 11, 69, 0
13, 86384, Note_on_c, 11, 81, 0
13, 86400, Note_on_c, 11, 81, 84
13, 86400, Note_on_c, 11, 69, 84
13, 86639, Note_on_c, 11, 81, 0
13, 86639, Note_on_c, 11, 69, 0
13, 89760, Note_on_c, 11, 69, 52
13, 89824, Note_on_c, 11, 69, 0
13, 89840, Note_on_c, 11, 69, 52
13, 89904, Note_on_c, 11, 69, 0
13, 89920, Note_on_c, 11, 69, 52
13, 89984, Note_on_c, 11, 69, 0
13, 90000, Note_on_c, 11, 69, 52
13, 90064, Note_on_c, 11, 69, 0
13, 90080, Note_on_c, 11, 69, 52
13, 90144, Note_on_c, 11, 69, 0
13, 90160, Note_on_c, 11, 69, 52
13, 90224, Note_on_c, 11, 69, 0
13, 90240, Note_on_c, 11, 69, 52
13, 90479, Note_on_c, 11, 69, 0
13, 93600, Note_on_c, 11, 69, 44
13, 93664, Note_on_c, 11, 69, 0
13, 93680, Note_on_c, 11, 69, 44
13, 93744, Note_on_c, 11, 69, 0
13, 93760, Note_on_c, 11, 69, 44
13, 93824, Note_on_c, 11, 69, 0
13, 93840, Note_on_c, 11, 69, 44
13, 93904, Note_on_c, 11, 69, 0
13, 93920, Note_on_c, 11, 69, 44
13, 93984, Note_on_c, 11, 69, 0
13, 94000, Note_on_c, 11, 69, 44
13, 94064, Note_on_c, 11, 69, 0
13, 94080, Note_on_c, 11, 69, 44
13, 94199, Note_on_c, 11, 69, 0
13, 94200, Note_on_c, 11, 70, 44
13, 94299, Note_on_c, 11, 70, 0
13, 94320, Note_on_c, 11, 67, 44
13, 94479, Note_on_c, 11, 67, 0
13, 94560, Note_on_c, 11, 69, 44
13, 94679, Note_on_c, 11, 69, 0
13, 94680, Note_on_c, 11, 70, 44
13, 94779, Note_on_c, 11, 70, 0
13, 94800, Note_on_c, 11, 67, 44
13, 94959, Note_on_c, 11, 67, 0
13, 95040, Note_on_c, 11, 69, 44
13, 95159, Note_on_c, 11, 69, 0
13, 95160, Note_on_c, 11, 70, 44
13, 95259, Note_on_c, 11, 70, 0
13, 95280, Note_on_c, 11, 67, 44
13, 95439, Note_on_c, 11, 67, 0
13, 95520, Note_on_c, 11, 70, 44
13, 95584, Note_on_c, 11, 70, 0
13, 95600, Note_on_c, 11, 70, 44
13, 95664, Note_on_c, 11, 70, 0
13, 95680, Note_on_c, 11, 70, 44
13, 95744, Note_on_c, 11, 70, 0
13, 95760, Note_on_c, 11, 70, 44
13, 95824, Note_on_c, 11, 70, 0
13, 95840, Note_on_c, 11, 70, 44
13, 95904, Note_on_c, 11, 70, 0
13, 95920, Note_on_c, 11, 70, 44
13, 95984, Note_on_c, 11, 70, 0
13, 96000, Note_on_c, 11, 70, 44
13, 96119, Note_on_c, 11, 70, 0
13, 96120, Note_on_c, 11, 72, 44
13, 96219, Note_on_c, 11, 72, 0
13, 96240, Note_on_c, 11, 69, 44
13, 96399, Note_on_c, 11, 69, 0
13, 96480, Note_on_c, 11, 70, 44
13, 96599, Note_on_c, 11, 70, 0
13, 96600, Note_on_c, 11, 72, 44
13, 96699, Note_on_c, 11, 72, 0
13, 96720, Note_on_c, 11, 69, 44
13, 96879, Note_on_c, 11, 69, 0
13, 96960, Note_on_c, 11, 70, 44
13, 97079, Note_on_c, 11, 70, 0
13, 97080, Note_on_c, 11, 72, 44
13, 97179, Note_on_c, 11, 72, 0
13, 97200, Note_on_c, 11, 69, 44
13, 97359, Note_on_c, 11, 69, 0
13, 97440, Note_on_c, 11, 77, 44
13, 97679, Note_on_c, 11, 77, 0
13, 97800, Note_on_c, 11, 76, 44
13, 97899, Note_on_c, 11, 76, 0
13, 97920, Note_on_c, 11, 76, 44
13, 98159, Note_on_c, 11, 76, 0
13, 98160, Note_on_c, 11, 74, 44
13, 98379, Note_on_c, 11, 74, 0
13, 98400, Note_on_c, 11, 86, 44
13, 98639, Note_on_c, 11, 86, 0
13, 98760, Note_on_c, 11, 84, 44
13, 98859, Note_on_c, 11, 84, 0
13, 98880, Note_on_c, 11, 84, 44
13, 99119, Note_on_c, 11, 84, 0
13, 99120, Note_on_c, 11, 82, 44
13, 99339, Note_on_c, 11, 82, 0
13, 99360, Note_on_c, 11, 82, 44
13, 99519, Note_on_c, 11, 82, 0
13, 99600, Note_on_c, 11, 81, 44
13, 99759, Note_on_c, 11, 81, 0
13, 99840, Note_on_c, 11, 79, 44
13, 99999, Note_on_c, 11, 79, 0
13, 100080, Note_on_c, 11, 78, 44
13, 100239, Note_on_c, 11, 78, 0
13, 100320, Note_on_c, 11, 79, 44
13, 100479, Note_on_c, 11, 79, 0
13, 100560, Note_on_c, 11, 81, 44
13, 100719, Note_on_c, 11, 81, 0
13, 100800, Note_on_c, 11, 82, 44
13, 100864, Note_on_c, 11, 82, 0
13, 100880, Note_on_c, 11, 70, 44
13, 100944, Note_on_c, 11, 70, 0
13, 100960, Note_on_c, 11, 70, 44
13, 101024, Note_on_c, 11, 70, 0
13, 101040, Note_on_c, 11, 70, 44
13, 101104, Note_on_c, 11, 70, 0
13, 101120, Note_on_c, 11, 70, 44
13, 101184, Note_on_c, 11, 70, 0
13, 101200, Note_on_c, 11, 70, 44
13, 101264, Note_on_c, 11, 70, 0
13, 101280, Note_on_c, 11, 70, 76
13, 101344, Note_on_c, 11, 70, 0
13, 101360, Note_on_c, 11, 70, 76
13, 101424, Note_on_c, 11, 70, 0
13, 101440, Note_on_c, 11, 70, 76
13, 101504, Note_on_c, 11, 70, 0
13, 101520, Note_on_c, 11, 69, 76
13, 101584, Note_on_c, 11, 69, 0
13, 101600, Note_on_c, 11, 69, 76
13, 101664, Note_on_c, 11, 69, 0
13, 101680, Note_on_c, 11, 69, 76
13, 101744, Note_on_c, 11, 69, 0
13, 101760, Note_on_c, 11, 67, 76
13, 101824, Note_on_c, 11, 67, 0
13, 101840, Note_on_c, 11, 67, 76
13, 101904, Note_on_c, 11, 67, 0
13, 101920, Note_on_c, 11, 67, 76
13, 101984, Note_on_c, 11, 67, 0
13, 102000, Note_on_c, 11, 66, 76
13, 102064, Note_on_c, 11, 66, 0
13, 102080, Note_on_c, 11, 66, 76
13, 102144, Note_on_c, 11, 66, 0
13, 102160, Note_on_c, 11, 66, 76
13, 102224, Note_on_c, 11, 66, 0
13, 102240, Note_on_c, 11, 67, 76
13, 102304, Note_on_c, 11, 67, 0
13, 102320, Note_on_c, 11, 67, 76
13, 102384, Note_on_c, 11, 67, 0
13, 102400, Note_on_c, 11, 67, 76
13, 102464, Note_on_c, 11, 67, 0
13, 102480, Note_on_c, 11, 69, 76
13, 102544, Note_on_c, 11, 69, 0
13, 102560, Note_on_c, 11, 69, 76
13, 102624, Note_on_c, 11, 69, 0
13, 102640, Note_on_c, 11, 69, 76
13, 102704, Note_on_c, 11, 69, 0
13, 102720, Note_on_c, 11, 70, 76
13, 102959, Note_on_c, 11, 70, 0
13, 103200, Note_on_c, 11, 82, 44
13, 103359, Note_on_c, 11, 82, 0
13, 103440, Note_on_c, 11, 81, 44
13, 103599, Note_on_c, 11, 81, 0
13, 103680, Note_on_c, 11, 79, 44
13, 103839, Note_on_c, 11, 79, 0
13, 103920, Note_on_c, 11, 78, 44
13, 104079, Note_on_c, 11, 78, 0
13, 104160, Note_on_c, 11, 79, 44
13, 104319, Note_on_c, 11, 79, 0
13, 104400, Note_on_c, 11, 81, 44
13, 104559, Note_on_c, 11, 81, 0
13, 104640, Note_on_c, 11, 82, 44
13, 104879, Note_on_c, 11, 82, 0
13, 105120, Note_on_c, 11, 82, 44
13, 105359, Note_on_c, 11, 82, 0
13, 105480, Note_on_c, 11, 81, 44
13, 105579, Note_on_c, 11, 81, 0
13, 105600, Note_on_c, 11, 81, 44
13, 105839, Note_on_c, 11, 81, 0
13, 105840, Note_on_c, 11, 79, 44
13, 106059, Note_on_c, 11, 79, 0
13, 106080, Note_on_c, 11, 79, 44
13, 106239, Note_on_c, 11, 79, 0
13, 106440, Note_on_c, 11, 77, 44
13, 106539, Note_on_c, 11, 77, 0
13, 106560, Note_on_c, 11, 77, 44
13, 106799, Note_on_c, 11, 77, 0
13, 106800, Note_on_c, 11, 76, 44
13, 107019, Note_on_c, 11, 76, 0
13, 107040, Note_on_c, 11, 76, 44
13, 107199, Note_on_c, 11, 76, 0
13, 107400, Note_on_c, 11, 74, 44
13, 107499, Note_on_c, 11, 74, 0
13, 107520, Note_on_c, 11, 74, 44
13, 107759, Note_on_c, 11, 74, 0
13, 107760, Note_on_c, 11, 73, 44
13, 107979, Note_on_c, 11, 73, 0
13, 108000, Note_on_c, 11, 73, 44
13, 108159, Note_on_c, 11, 73, 0
13, 108360, Note_on_c, 11, 71, 44
13, 108459, Note_on_c, 11, 71, 0
13, 108480, Note_on_c, 11, 71, 44
13, 108719, Note_on_c, 11, 71, 0
13, 108720, Note_on_c, 11, 69, 44
13, 108939, Note_on_c, 11, 69, 0
13, 108960, Note_on_c, 11, 76, 44
13, 109119, Note_on_c, 11, 76, 0
13, 109320, Note_on_c, 11, 74, 44
13, 109419, Note_on_c, 11, 74, 0
13, 109440, Note_on_c, 11, 74, 44
13, 109679, Note_on_c, 11, 74, 0
13, 109680, Note_on_c, 11, 73, 44
13, 109899, Note_on_c, 11, 73, 0
13, 109920, Note_on_c, 11, 73, 44
13, 110079, Note_on_c, 11, 73, 0
13, 110280, Note_on_c, 11, 71, 44
13, 110379, Note_on_c, 11, 71, 0
13, 110400, Note_on_c, 11, 71, 44
13, 110639, Note_on_c, 11, 71, 0
13, 110640, Note_on_c, 11, 69, 44
13, 110879, Note_on_c, 11, 69, 0
13, 111840, Note_on_c, 11, 81, 44
13, 112079, Note_on_c, 11, 81, 0
13, 112200, Note_on_c, 11, 79, 44
13, 112299, Note_on_c, 11, 79, 0
13, 112320, Note_on_c, 11, 79, 44
13, 112559, Note_on_c, 11, 79, 0
13, 112560, Note_on_c, 11, 78, 44
13, 112779, Note_on_c, 11, 78, 0
13, 112800, Note_on_c, 11, 78, 44
13, 112919, Note_on_c, 11, 78, 0
13, 113160, Note_on_c, 11, 76, 44
13, 113259, Note_on_c, 11, 76, 0
13, 113280, Note_on_c, 11, 76, 44
13, 113519, Note_on_c, 11, 76, 0
13, 113520, Note_on_c, 11, 74, 44
13, 113739, Note_on_c, 11, 74, 0
13, 113760, Note_on_c, 11, 81, 44
13, 113919, Note_on_c, 11, 81, 0
13, 114120, Note_on_c, 11, 79, 44
13, 114219, Note_on_c, 11, 79, 0
13, 114238, Control_c, 11, 11, 64
13, 114240, Note_on_c, 11, 79, 76
13, 114479, Note_on_c, 11, 79, 0
13, 114480, Note_on_c, 11, 78, 76
13, 114699, Note_on_c, 11, 78, 0
13, 114720, Note_on_c, 11, 78, 76
13, 114720, Control_c, 11, 11, 64
13, 114760, Control_c, 11, 11, 69
13, 114800, Control_c, 11, 11, 75
13, 114840, Control_c, 11, 11, 80
13, 114879, Note_on_c, 11, 78, 0
13, 114880, Control_c, 11, 11, 85
13, 114920, Control_c, 11, 11, 90
13, 114960, Control_c, 11, 11, 96
13, 115000, Control_c, 11, 11, 101
13, 115040, Control_c, 11, 11, 106
13, 115080, Control_c, 11, 11, 111
13, 115080, Note_on_c, 11, 76, 76
13, 115120, Control_c, 11, 11, 117
13, 115160, Control_c, 11, 11, 122
13, 115179, Note_on_c, 11, 76, 0
13, 115200, Note_on_c, 11, 74, 76
13, 115200, Control_c, 11, 11, 127
13, 116159, Note_on_c, 11, 74, 0
13, 116160, Note_on_c, 11, 74, 76
13, 117099, Note_on_c, 11, 74, 0
13, 117120, Note_on_c, 11, 79, 76
13, 118079, Note_on_c, 11, 79, 0
13, 118080, Note_on_c, 11, 79, 76
13, 119039, Note_on_c, 11, 79, 0
13, 119040, Note_on_c, 11, 79, 76
13, 119279, Note_on_c, 11, 79, 0
13, 119280, Note_on_c, 11, 72, 76
13, 119499, Note_on_c, 11, 72, 0
13, 119520, Note_on_c, 11, 72, 76
13, 119679, Note_on_c, 11, 72, 0
13, 119880, Note_on_c, 11, 74, 76
13, 119979, Note_on_c, 11, 74, 0
13, 120000, Note_on_c, 11, 74, 76
13, 120239, Note_on_c, 11, 74, 0
13, 120240, Note_on_c, 11, 75, 76
13, 120459, Note_on_c, 11, 75, 0
13, 120480, Note_on_c, 11, 75, 76
13, 120639, Note_on_c, 11, 75, 0
13, 120840, Note_on_c, 11, 76, 76
13, 120939, Note_on_c, 11, 76, 0
13, 120960, Note_on_c, 11, 76, 76
13, 121199, Note_on_c, 11, 76, 0
13, 121200, Note_on_c, 11, 77, 76
13, 121419, Note_on_c, 11, 77, 0
13, 121440, Note_on_c, 11, 77, 76
13, 121599, Note_on_c, 11, 77, 0
13, 121800, Note_on_c, 11, 79, 76
13, 121899, Note_on_c, 11, 79, 0
13, 121920, Note_on_c, 11, 79, 76
13, 122159, Note_on_c, 11, 79, 0
13, 122160, Note_on_c, 11, 80, 76
13, 122379, Note_on_c, 11, 80, 0
13, 122400, Note_on_c, 11, 80, 76
13, 122559, Note_on_c, 11, 80, 0
13, 122760, Note_on_c, 11, 81, 76
13, 122859, Note_on_c, 11, 81, 0
13, 122880, Note_on_c, 11, 81, 76
13, 123119, Note_on_c, 11, 81, 0
13, 123120, Note_on_c, 11, 82, 76
13, 123359, Note_on_c, 11, 82, 0
13, 123840, Note_on_c, 11, 62, 84
13, 123959, Note_on_c, 11, 62, 0
13, 123960, Note_on_c, 11, 62, 76
13, 124779, Note_on_c, 11, 62, 0
13, 124800, Note_on_c, 11, 55, 84
13, 124800, Note_on_c, 11, 67, 84
13, 124919, Note_on_c, 11, 55, 0
13, 124919, Note_on_c, 11, 67, 0
13, 124920, Note_on_c, 11, 55, 76
13, 124920, Note_on_c, 11, 67, 76
13, 126219, Note_on_c, 11, 55, 0
13, 126219, Note_on_c, 11, 67, 0
13, 126240, Note_on_c, 11, 76, 76
13, 126479, Note_on_c, 11, 76, 0
13, 126600, Note_on_c, 11, 74, 76
13, 126699, Note_on_c, 11, 74, 0
13, 126720, Note_on_c, 11, 74, 76
13, 126959, Note_on_c, 11, 74, 0
13, 126960, Note_on_c, 11, 73, 76
13, 127179, Note_on_c, 11, 73, 0
13, 127200, Note_on_c, 11, 73, 76
13, 127359, Note_on_c, 11, 73, 0
13, 127560, Note_on_c, 11, 71, 76
13, 127659, Note_on_c, 11, 71, 0
13, 127680, Note_on_c, 11, 71, 76
13, 127919, Note_on_c, 11, 71, 0
13, 127920, Note_on_c, 11, 69, 76
13, 128139, Note_on_c, 11, 69, 0
13, 128160, Note_on_c, 11, 69, 76
13, 128319, Note_on_c, 11, 69, 0
13, 128520, Note_on_c, 11, 67, 76
13, 128619, Note_on_c, 11, 67, 0
13, 128640, Note_on_c, 11, 67, 76
13, 128879, Note_on_c, 11, 67, 0
13, 128880, Note_on_c, 11, 65, 76
13, 129099, Note_on_c, 11, 65, 0
13, 129120, Note_on_c, 11, 65, 76
13, 129279, Note_on_c, 11, 65, 0
13, 129480, Note_on_c, 11, 64, 76
13, 129579, Note_on_c, 11, 64, 0
13, 129600, Note_on_c, 11, 64, 76
13, 129839, Note_on_c, 11, 64, 0
13, 129840, Note_on_c, 11, 62, 76
13, 130059, Note_on_c, 11, 62, 0
13, 130080, Note_on_c, 11, 62, 76
13, 130239, Note_on_c, 11, 62, 0
13, 130320, Note_on_c, 11, 86, 76
13, 130539, Note_on_c, 11, 86, 0
13, 130560, Note_on_c, 11, 79, 84
13, 130679, Note_on_c, 11, 79, 0
13, 130680, Note_on_c, 11, 79, 76
13, 131499, Note_on_c, 11, 79, 0
13, 131520, Note_on_c, 11, 84, 84
13, 131639, Note_on_c, 11, 84, 0
13, 131640, Note_on_c, 11, 84, 76
13, 132719, Note_on_c, 11, 84, 0
13, 132720, Note_on_c, 11, 77, 76
13, 132939, Note_on_c, 11, 77, 0
13, 132960, Note_on_c, 11, 77, 76
13, 133119, Note_on_c, 11, 77, 0
13, 133320, Note_on_c, 11, 76, 76
13, 133419, Note_on_c, 11, 76, 0
13, 133440, Note_on_c, 11, 76, 76
13, 133679, Note_on_c, 11, 76, 0
13, 133680, Note_on_c, 11, 74, 76
13, 133899, Note_on_c, 11, 74, 0
13, 133920, Note_on_c, 11, 72, 76
13, 134079, Note_on_c, 11, 72, 0
13, 134280, Note_on_c, 11, 71, 76
13, 134379, Note_on_c, 11, 71, 0
13, 134400, Note_on_c, 11, 80, 76
13, 134639, Note_on_c, 11, 80, 0
13, 134640, Note_on_c, 11, 81, 76
13, 134859, Note_on_c, 11, 81, 0
13, 134880, Note_on_c, 11, 81, 76
13, 135039, Note_on_c, 11, 81, 0
13, 135240, Note_on_c, 11, 83, 76
13, 135339, Note_on_c, 11, 83, 0
13, 135360, Note_on_c, 11, 84, 76
13, 135599, Note_on_c, 11, 84, 0
13, 135600, Note_on_c, 11, 86, 76
13, 135819, Note_on_c, 11, 86, 0
13, 135840, Note_on_c, 11, 86, 76
13, 135999, Note_on_c, 11, 86, 0
13, 136200, Note_on_c, 11, 88, 76
13, 136299, Note_on_c, 11, 88, 0
13, 136320, Note_on_c, 11, 67, 76
13, 136559, Note_on_c, 11, 67, 0
13, 136560, Note_on_c, 11, 69, 76
13, 136779, Note_on_c, 11, 69, 0
13, 136800, Note_on_c, 11, 69, 76
13, 136959, Note_on_c, 11, 69, 0
13, 137160, Note_on_c, 11, 71, 76
13, 137259, Note_on_c, 11, 71, 0
13, 137280, Note_on_c, 11, 72, 76
13, 137519, Note_on_c, 11, 72, 0
13, 137520, Note_on_c, 11, 74, 76
13, 137739, Note_on_c, 11, 74, 0
13, 137760, Note_on_c, 11, 74, 76
13, 137919, Note_on_c, 11, 74, 0
13, 138120, Note_on_c, 11, 76, 76
13, 138219, Note_on_c, 11, 76, 0
13, 138240, Note_on_c, 11, 76, 76
13, 138699, Note_on_c, 11, 76, 0
13, 138720, Note_on_c, 11, 81, 76
13, 139179, Note_on_c, 11, 81, 0
13, 139200, Note_on_c, 11, 79, 76
13, 139439, Note_on_c, 11, 79, 0
13, 139440, Note_on_c, 11, 77, 76
13, 139659, Note_on_c, 11, 77, 0
13, 139680, Note_on_c, 11, 74, 76
13, 139919, Note_on_c, 11, 74, 0
13, 139920, Note_on_c, 11, 76, 76
13, 140139, Note_on_c, 11, 76, 0
13, 140160, Note_on_c, 11, 82, 76
13, 140399, Note_on_c, 11, 82, 0
13, 140400, Note_on_c, 11, 81, 76
13, 140619, Note_on_c, 11, 81, 0
13, 140640, Note_on_c, 11, 76, 76
13, 140879, Note_on_c, 11, 76, 0
13, 140880, Note_on_c, 11, 77, 76
13, 141099, Note_on_c, 11, 77, 0
13, 141120, Note_on_c, 11, 71, 76
13, 141359, Note_on_c, 11, 71, 0
13, 141360, Note_on_c, 11, 72, 76
13, 141579, Note_on_c, 11, 72, 0
13, 141600, Note_on_c, 11, 68, 76
13, 141839, Note_on_c, 11, 68, 0
13, 141840, Note_on_c, 11, 69, 76
13, 142059, Note_on_c, 11, 69, 0
13, 142080, Note_on_c, 11, 75, 76
13, 142319, Note_on_c, 11, 75, 0
13, 142320, Note_on_c, 11, 76, 76
13, 142539, Note_on_c, 11, 76, 0
13, 142560, Note_on_c, 11, 75, 76
13, 142799, Note_on_c, 11, 75, 0
13, 142800, Note_on_c, 11, 76, 76
13, 143019, Note_on_c, 11, 76, 0
13, 143040, Note_on_c, 11, 75, 76
13, 143279, Note_on_c, 11, 75, 0
13, 143280, Note_on_c, 11, 76, 76
13, 143499, Note_on_c, 11, 76, 0
13, 143520, Note_on_c, 11, 75, 76
13, 143759, Note_on_c, 11, 75, 0
13, 143760, Note_on_c, 11, 76, 76
13, 143979, Note_on_c, 11, 76, 0
13, 144000, Note_on_c, 11, 75, 76
13, 144239, Note_on_c, 11, 75, 0
13, 144240, Note_on_c, 11, 76, 76
13, 144459, Note_on_c, 11, 76, 0
13, 144480, Note_on_c, 11, 75, 76
13, 144719, Note_on_c, 11, 75, 0
13, 144720, Note_on_c, 11, 76, 76
13, 144939, Note_on_c, 11, 76, 0
13, 144960, Note_on_c, 11, 75, 76
13, 145199, Note_on_c, 11, 75, 0
13, 145200, Note_on_c, 11, 76, 76
13, 145419, Note_on_c, 11, 76, 0
13, 145440, Note_on_c, 11, 85, 84
13, 145504, Note_on_c, 11, 85, 0
13, 145520, Note_on_c, 11, 85, 84
13, 145584, Note_on_c, 11, 85, 0
13, 145600, Note_on_c, 11, 85, 84
13, 145664, Note_on_c, 11, 85, 0
13, 145680, Note_on_c, 11, 85, 84
13, 145744, Note_on_c, 11, 85, 0
13, 145760, Note_on_c, 11, 85, 84
13, 145824, Note_on_c, 11, 85, 0
13, 145840, Note_on_c, 11, 85, 84
13, 145904, Note_on_c, 11, 85, 0
13, 145920, Note_on_c, 11, 85, 84
13, 146039, Note_on_c, 11, 85, 0
13, 146040, Note_on_c, 11, 86, 84
13, 146139, Note_on_c, 11, 86, 0
13, 146160, Note_on_c, 11, 83, 84
13, 146319, Note_on_c, 11, 83, 0
13, 146400, Note_on_c, 11, 85, 84
13, 146519, Note_on_c, 11, 85, 0
13, 146520, Note_on_c, 11, 86, 84
13, 146619, Note_on_c, 11, 86, 0
13, 146640, Note_on_c, 11, 83, 84
13, 146799, Note_on_c, 11, 83, 0
13, 146880, Note_on_c, 11, 85, 84
13, 146999, Note_on_c, 11, 85, 0
13, 147000, Note_on_c, 11, 86, 84
13, 147099, Note_on_c, 11, 86, 0
13, 147120, Note_on_c, 11, 83, 84
13, 147279, Note_on_c, 11, 83, 0
13, 147360, Note_on_c, 11, 86, 84
13, 147424, Note_on_c, 11, 86, 0
13, 147440, Note_on_c, 11, 86, 84
13, 147504, Note_on_c, 11, 86, 0
13, 147520, Note_on_c, 11, 86, 84
13, 147584, Note_on_c, 11, 86, 0
13, 147600, Note_on_c, 11, 86, 84
13, 147664, Note_on_c, 11, 86, 0
13, 147680, Note_on_c, 11, 86, 84
13, 147744, Note_on_c, 11, 86, 0
13, 147760, Note_on_c, 11, 86, 84
13, 147824, Note_on_c, 11, 86, 0
13, 147840, Note_on_c, 11, 86, 84
13, 147959, Note_on_c, 11, 86, 0
13, 147960, Note_on_c, 11, 88, 84
13, 148059, Note_on_c, 11, 88, 0
13, 148080, Note_on_c, 11, 85, 84
13, 148239, Note_on_c, 11, 85, 0
13, 148320, Note_on_c, 11, 86, 84
13, 148439, Note_on_c, 11, 86, 0
13, 148440, Note_on_c, 11, 88, 84
13, 148539, Note_on_c, 11, 88, 0
13, 148560, Note_on_c, 11, 85, 84
13, 148719, Note_on_c, 11, 85, 0
13, 148800, Note_on_c, 11, 86, 84
13, 148919, Note_on_c, 11, 86, 0
13, 148920, Note_on_c, 11, 88, 84
13, 149019, Note_on_c, 11, 88, 0
13, 149040, Note_on_c, 11, 85, 84
13, 149199, Note_on_c, 11, 85, 0
13, 149280, Note_on_c, 11, 64, 52
13, 149439, Note_on_c, 11, 64, 0
13, 149520, Note_on_c, 11, 76, 52
13, 149679, Note_on_c, 11, 76, 0
13, 149760, Note_on_c, 11, 64, 52
13, 149919, Note_on_c, 11, 64, 0
13, 150000, Note_on_c, 11, 76, 52
13, 150159, Note_on_c, 11, 76, 0
13, 150240, Note_on_c, 11, 64, 52
13, 150399, Note_on_c, 11, 64, 0
13, 150480, Note_on_c, 11, 76, 52
13, 150639, Note_on_c, 11, 76, 0
13, 150720, Note_on_c, 11, 64, 52
13, 150879, Note_on_c, 11, 64, 0
13, 150960, Note_on_c, 11, 76, 52
13, 151119, Note_on_c, 11, 76, 0
13, 155040, Note_on_c, 11, 69, 44
13, 155104, Note_on_c, 11, 69, 0
13, 155120, Note_on_c, 11, 69, 44
13, 155184, Note_on_c, 11, 69, 0
13, 155200, Note_on_c, 11, 69, 44
13, 155264, Note_on_c, 11, 69, 0
13, 155280, Note_on_c, 11, 69, 44
13, 155344, Note_on_c, 11, 69, 0
13, 155360, Note_on_c, 11, 69, 44
13, 155424, Note_on_c, 11, 69, 0
13, 155440, Note_on_c, 11, 69, 44
13, 155504, Note_on_c, 11, 69, 0
13, 155520, Note_on_c, 11, 69, 44
13, 155639, Note_on_c, 11, 69, 0
13, 155640, Note_on_c, 11, 70, 44
13, 155739, Note_on_c, 11, 70, 0
13, 155760, Note_on_c, 11, 67, 44
13, 155919, Note_on_c, 11, 67, 0
13, 156000, Note_on_c, 11, 69, 44
13, 156119, Note_on_c, 11, 69, 0
13, 156120, Note_on_c, 11, 70, 44
13, 156219, Note_on_c, 11, 70, 0
13, 156240, Note_on_c, 11, 67, 44
13, 156399, Note_on_c, 11, 67, 0
13, 156480, Note_on_c, 11, 69, 44
13, 156599, Note_on_c, 11, 69, 0
13, 156600, Note_on_c, 11, 70, 44
13, 156699, Note_on_c, 11, 70, 0
13, 156720, Note_on_c, 11, 67, 44
13, 156879, Note_on_c, 11, 67, 0
13, 156960, Note_on_c, 11, 70, 44
13, 157024, Note_on_c, 11, 70, 0
13, 157040, Note_on_c, 11, 70, 44
13, 157104, Note_on_c, 11, 70, 0
13, 157120, Note_on_c, 11, 70, 44
13, 157184, Note_on_c, 11, 70, 0
13, 157200, Note_on_c, 11, 70, 44
13, 157264, Note_on_c, 11, 70, 0
13, 157280, Note_on_c, 11, 70, 44
13, 157344, Note_on_c, 11, 70, 0
13, 157360, Note_on_c, 11, 70, 44
13, 157424, Note_on_c, 11, 70, 0
13, 157440, Note_on_c, 11, 70, 44
13, 157559, Note_on_c, 11, 70, 0
13, 157560, Note_on_c, 11, 72, 44
13, 157659, Note_on_c, 11, 72, 0
13, 157680, Note_on_c, 11, 69, 44
13, 157839, Note_on_c, 11, 69, 0
13, 157920, Note_on_c, 11, 70, 44
13, 158039, Note_on_c, 11, 70, 0
13, 158040, Note_on_c, 11, 72, 44
13, 158139, Note_on_c, 11, 72, 0
13, 158160, Note_on_c, 11, 69, 44
13, 158319, Note_on_c, 11, 69, 0
13, 158400, Note_on_c, 11, 70, 44
13, 158519, Note_on_c, 11, 70, 0
13, 158520, Note_on_c, 11, 72, 44
13, 158619, Note_on_c, 11, 72, 0
13, 158640, Note_on_c, 11, 69, 44
13, 158799, Note_on_c, 11, 69, 0
13, 158880, Note_on_c, 11, 65, 44
13, 159839, Note_on_c, 11, 65, 0
13, 159840, Note_on_c, 11, 66, 44
13, 160319, Note_on_c, 11, 66, 0
13, 160320, Note_on_c, 11, 67, 44
13, 161039, Note_on_c, 11, 67, 0
13, 161040, Note_on_c, 11, 66, 44
13, 161279, Note_on_c, 11, 66, 0
13, 161280, Note_on_c, 11, 67, 44
13, 161999, Note_on_c, 11, 67, 0
13, 162000, Note_on_c, 11, 69, 44
13, 162239, Note_on_c, 11, 69, 0
13, 162240, Note_on_c, 11, 70, 44
13, 162719, Note_on_c, 11, 70, 0
13, 162720, Note_on_c, 11, 69, 44
13, 163199, Note_on_c, 11, 69, 0
13, 163200, Note_on_c, 11, 67, 44
13, 163200, Note_on_c, 11, 55, 44
13, 163679, Note_on_c, 11, 67, 0
13, 163680, Note_on_c, 11, 65, 44
13, 164159, Note_on_c, 11, 55, 0
13, 164159, Note_on_c, 11, 65, 0
13, 164160, Note_on_c, 11, 64, 44
13, 164160, Note_on_c, 11, 55, 44
13, 164619, Note_on_c, 11, 64, 0
13, 164619, Note_on_c, 11, 55, 0
13, 164640, Note_on_c, 11, 74, 44
13, 164704, Note_on_c, 11, 74, 0
13, 164720, Note_on_c, 11, 74, 44
13, 164784, Note_on_c, 11, 74, 0
13, 164800, Note_on_c, 11, 74, 44
13, 164864, Note_on_c, 11, 74, 0
13, 164880, Note_on_c, 11, 74, 44
13, 164944, Note_on_c, 11, 74, 0
13, 164960, Note_on_c, 11, 74, 44
13, 165024, Note_on_c, 11, 74, 0
13, 165040, Note_on_c, 11, 74, 44
13, 165104, Note_on_c, 11, 74, 0
13, 165120, Note_on_c, 11, 74, 44
13, 165239, Note_on_c, 11, 74, 0
13, 165240, Note_on_c, 11, 76, 44
13, 165339, Note_on_c, 11, 76, 0
13, 165360, Note_on_c, 11, 72, 44
13, 165519, Note_on_c, 11, 72, 0
13, 165600, Note_on_c, 11, 65, 44
13, 165600, Note_on_c, 11, 55, 44
13, 166079, Note_on_c, 11, 65, 0
13, 166080, Note_on_c, 11, 64, 44
13, 166539, Note_on_c, 11, 55, 0
13, 166539, Note_on_c, 11, 64, 0
13, 166560, Note_on_c, 11, 74, 44
13, 166624, Note_on_c, 11, 74, 0
13, 166640, Note_on_c, 11, 74, 44
13, 166704, Note_on_c, 11, 74, 0
13, 166720, Note_on_c, 11, 74, 44
13, 166784, Note_on_c, 11, 74, 0
13, 166800, Note_on_c, 11, 74, 44
13, 166864, Note_on_c, 11, 74, 0
13, 166880, Note_on_c, 11, 74, 43
13, 166944, Note_on_c, 11, 74, 0
13, 166960, Note_on_c, 11, 74, 43
13, 167024, Note_on_c, 11, 74, 0
13, 167040, Note_on_c, 11, 74, 43
13, 167159, Note_on_c, 11, 74, 0
13, 167160, Note_on_c, 11, 76, 42
13, 167259, Note_on_c, 11, 76, 0
13, 167280, Note_on_c, 11, 72, 42
13, 167439, Note_on_c, 11, 72, 0
13, 167520, Note_on_c, 11, 71, 41
13, 167639, Note_on_c, 11, 71, 0
13, 167640, Note_on_c, 11, 72, 41
13, 167739, Note_on_c, 11, 72, 0
13, 167760, Note_on_c, 11, 67, 40
13, 167919, Note_on_c, 11, 67, 0
13, 168000, Note_on_c, 11, 65, 40
13, 168119, Note_on_c, 11, 65, 0
13, 168120, Note_on_c, 11, 67, 39
13, 168219, Note_on_c, 11, 67, 0
13, 168240, Note_on_c, 11, 64, 39
13, 168399, Note_on_c, 11, 64, 0
13, 168480, Note_on_c, 11, 62, 38
13, 168599, Note_on_c, 11, 62, 0
13, 168600, Note_on_c, 11, 64, 38
13, 168699, Note_on_c, 11, 64, 0
13, 168720, Note_on_c, 11, 60, 37
13, 168879, Note_on_c, 11, 60, 0
13, 168960, Note_on_c, 11, 62, 36
13, 169079, Note_on_c, 11, 62, 0
13, 169080, Note_on_c, 11, 64, 36
13, 169179, Note_on_c, 11, 64, 0
13, 169200, Note_on_c, 11, 60, 36
13, 169359, Note_on_c, 11, 60, 0
13, 169920, Note_on_c, 11, 62, 36
13, 170039, Note_on_c, 11, 62, 0
13, 170040, Note_on_c, 11, 64, 36
13, 170139, Note_on_c, 11, 64, 0
13, 170160, Note_on_c, 11, 60, 36
13, 170319, Note_on_c, 11, 60, 0
13, 170880, Note_on_c, 11, 62, 36
13, 170999, Note_on_c, 11, 62, 0
13, 171000, Note_on_c, 11, 64, 36
13, 171099, Note_on_c, 11, 64, 0
13, 171120, Note_on_c, 11, 60, 36
13, 171279, Note_on_c, 11, 60, 0
13, 171360, Note_on_c, 11, 61, 84
13, 172299, Note_on_c, 11, 61, 0
13, 172320, Note_on_c, 11, 81, 84
13, 172384, Note_on_c, 11, 81, 0
13, 172400, Note_on_c, 11, 81, 84
13, 172464, Note_on_c, 11, 81, 0
13, 172480, Note_on_c, 11, 81, 84
13, 172544, Note_on_c, 11, 81, 0
13, 172560, Note_on_c, 11, 81, 84
13, 172624, Note_on_c, 11, 81, 0
13, 172640, Note_on_c, 11, 81, 84
13, 172704, Note_on_c, 11, 81, 0
13, 172720, Note_on_c, 11, 81, 84
13, 172784, Note_on_c, 11, 81, 0
13, 172800, Note_on_c, 11, 81, 84
13, 172919, Note_on_c, 11, 81, 0
13, 172920, Note_on_c, 11, 82, 84
13, 173019, Note_on_c, 11, 82, 0
13, 173040, Note_on_c, 11, 79, 84
13, 173199, Note_on_c, 11, 79, 0
13, 173280, Note_on_c, 11, 81, 84
13, 173399, Note_on_c, 11, 81, 0
13, 173400, Note_on_c, 11, 82, 84
13, 173499, Note_on_c, 11, 82, 0
13, 173520, Note_on_c, 11, 79, 84
13, 173679, Note_on_c, 11, 79, 0
13, 173760, Note_on_c, 11, 81, 84
13, 173879, Note_on_c, 11, 81, 0
13, 173880, Note_on_c, 11, 82, 84
13, 173979, Note_on_c, 11, 82, 0
13, 174000, Note_on_c, 11, 79, 84
13, 174159, Note_on_c, 11, 79, 0
13, 174240, Note_on_c, 11, 82, 84
13, 174304, Note_on_c, 11, 82, 0
13, 174320, Note_on_c, 11, 82, 84
13, 174384, Note_on_c, 11, 82, 0
13, 174400, Note_on_c, 11, 82, 84
13, 174464, Note_on_c, 11, 82, 0
13, 174480, Note_on_c, 11, 82, 84
13, 174544, Note_on_c, 11, 82, 0
13, 174560, Note_on_c, 11, 82, 84
13, 174624, Note_on_c, 11, 82, 0
13, 174640, Note_on_c, 11, 82, 84
13, 174704, Note_on_c, 11, 82, 0
13, 174720, Note_on_c, 11, 82, 84
13, 174839, Note_on_c, 11, 82, 0
13, 174840, Note_on_c, 11, 84, 84
13, 174939, Note_on_c, 11, 84, 0
13, 174960, Note_on_c, 11, 81, 84
13, 175119, Note_on_c, 11, 81, 0
13, 175200, Note_on_c, 11, 82, 84
13, 175319, Note_on_c, 11, 82, 0
13, 175320, Note_on_c, 11, 84, 84
13, 175419, Note_on_c, 11, 84, 0
13, 175440, Note_on_c, 11, 81, 84
13, 175599, Note_on_c, 11, 81, 0
13, 175680, Note_on_c, 11, 82, 84
13, 175799, Note_on_c, 11, 82, 0
13, 175800, Note_on_c, 11, 84, 84
13, 175899, Note_on_c, 11, 84, 0
13, 175920, Note_on_c, 11, 81, 84
13, 176079, Note_on_c, 11, 81, 0
13, 176160, Note_on_c, 11, 77, 84
13, 176399, Note_on_c, 11, 77, 0
13, 176520, Note_on_c, 11, 76, 84
13, 176619, Note_on_c, 11, 76, 0
13, 176640, Note_on_c, 11, 76, 84
13, 176879, Note_on_c, 11, 76, 0
13, 176880, Note_on_c, 11, 74, 84
13, 177099, Note_on_c, 11, 74, 0
13, 177120, Note_on_c, 11, 86, 84
13, 177279, Note_on_c, 11, 86, 0
13, 177480, Note_on_c, 11, 84, 84
13, 177579, Note_on_c, 11, 84, 0
13, 177600, Note_on_c, 11, 84, 84
13, 177839, Note_on_c, 11, 84, 0
13, 177840, Note_on_c, 11, 82, 84
13, 178059, Note_on_c, 11, 82, 0
13, 178080, Note_on_c, 11, 82, 84
13, 178239, Note_on_c, 11, 82, 0
13, 178320, Note_on_c, 11, 81, 84
13, 178479, Note_on_c, 11, 81, 0
13, 178560, Note_on_c, 11, 79, 84
13, 178719, Note_on_c, 11, 79, 0
13, 178800, Note_on_c, 11, 78, 84
13, 178959, Note_on_c, 11, 78, 0
13, 179040, Note_on_c, 11, 79, 84
13, 179199, Note_on_c, 11, 79, 0
13, 179280, Note_on_c, 11, 81, 84
13, 179439, Note_on_c, 11, 81, 0
13, 179520, Note_on_c, 11, 82, 84
13, 179679, Note_on_c, 11, 82, 0
13, 179760, Note_on_c, 11, 79, 84
13, 179919, Note_on_c, 11, 79, 0
13, 180000, Note_on_c, 11, 81, 84
13, 180159, Note_on_c, 11, 81, 0
13, 180240, Note_on_c, 11, 77, 84
13, 180399, Note_on_c, 11, 77, 0
13, 180480, Note_on_c, 11, 74, 84
13, 180639, Note_on_c, 11, 74, 0
13, 180720, Note_on_c, 11, 79, 84
13, 180879, Note_on_c, 11, 79, 0
13, 180960, Note_on_c, 11, 55, 84
13, 180960, Note_on_c, 11, 64, 84
13, 181119, Note_on_c, 11, 55, 0
13, 181119, Note_on_c, 11, 64, 0
13, 181200, Note_on_c, 11, 76, 84
13, 181359, Note_on_c, 11, 76, 0
13, 181440, Note_on_c, 11, 77, 84
13, 181679, Note_on_c, 11, 77, 0
13, 181920, Note_on_c, 11, 65, 84
13, 181984, Note_on_c, 11, 65, 0
13, 182000, Note_on_c, 11, 65, 84
13, 182064, Note_on_c, 11, 65, 0
13, 182080, Note_on_c, 11, 65, 84
13, 182144, Note_on_c, 11, 65, 0
13, 182160, Note_on_c, 11, 65, 84
13, 182224, Note_on_c, 11, 65, 0
13, 182240, Note_on_c, 11, 65, 84
13, 182304, Note_on_c, 11, 65, 0
13, 182320, Note_on_c, 11, 65, 84
13, 182384, Note_on_c, 11, 65, 0
13, 182400, Note_on_c, 11, 65, 84
13, 182639, Note_on_c, 11, 65, 0
13, 182880, Note_on_c, 11, 65, 84
13, 182944, Note_on_c, 11, 65, 0
13, 182960, Note_on_c, 11, 65, 84
13, 183024, Note_on_c, 11, 65, 0
13, 183040, Note_on_c, 11, 65, 84
13, 183104, Note_on_c, 11, 65, 0
13, 183120, Note_on_c, 11, 65, 84
13, 183184, Note_on_c, 11, 65, 0
13, 183200, Note_on_c, 11, 65, 84
13, 183264, Note_on_c, 11, 65, 0
13, 183280, Note_on_c, 11, 65, 84
13, 183344, Note_on_c, 11, 65, 0
13, 183360, Note_on_c, 11, 65, 84
13, 183479, Note_on_c, 11, 65, 0
13, 183480, Note_on_c, 11, 67, 84
13, 183579, Note_on_c, 11, 67, 0
13, 183600, Note_on_c, 11, 64, 84
13, 183759, Note_on_c, 11, 64, 0
13, 183840, Note_on_c, 11, 67, 84
13, 183904, Note_on_c, 11, 67, 0
13, 183920, Note_on_c, 11, 67, 84
13, 183984, Note_on_c, 11, 67, 0
13, 184000, Note_on_c, 11, 67, 84
13, 184064, Note_on_c, 11, 67, 0
13, 184080, Note_on_c, 11, 67, 84
13, 184144, Note_on_c, 11, 67, 0
13, 184160, Note_on_c, 11, 67, 84
13, 184224, Note_on_c, 11, 67, 0
13, 184240, Note_on_c, 11, 67, 84
13, 184304, Note_on_c, 11, 67, 0
13, 184320, Note_on_c, 11, 67, 84
13, 184559, Note_on_c, 11, 67, 0
13, 184800, Note_on_c, 11, 67, 84
13, 184864, Note_on_c, 11, 67, 0
13, 184880, Note_on_c, 11, 67, 84
13, 184944, Note_on_c, 11, 67, 0
13, 184960, Note_on_c, 11, 67, 84
13, 185024, Note_on_c, 11, 67, 0
13, 185040, Note_on_c, 11, 67, 84
13, 185104, Note_on_c, 11, 67, 0
13, 185120, Note_on_c, 11, 67, 84
13, 185184, Note_on_c, 11, 67, 0
13, 185200, Note_on_c, 11, 67, 84
13, 185264, Note_on_c, 11, 67, 0
13, 185280, Note_on_c, 11, 67, 84
13, 185399, Note_on_c, 11, 67, 0
13, 185400, Note_on_c, 11, 69, 84
13, 185499, Note_on_c, 11, 69, 0
13, 185520, Note_on_c, 11, 65, 84
13, 185679, Note_on_c, 11, 65, 0
13, 186720, Note_on_c, 11, 77, 84
13, 186784, Note_on_c, 11, 77, 0
13, 186800, Note_on_c, 11, 77, 84
13, 186864, Note_on_c, 11, 77, 0
13, 186880, Note_on_c, 11, 77, 84
13, 186944, Note_on_c, 11, 77, 0
13, 186960, Note_on_c, 11, 77, 84
13, 187024, Note_on_c, 11, 77, 0
13, 187040, Note_on_c, 11, 77, 84
13, 187104, Note_on_c, 11, 77, 0
13, 187120, Note_on_c, 11, 77, 84
13, 187184, Note_on_c, 11, 77, 0
13, 187200, Note_on_c, 11, 77, 92
13, 187319, Note_on_c, 11, 77, 0
13, 187320, Note_on_c, 11, 79, 84
13, 187419, Note_on_c, 11, 79, 0
13, 187440, Note_on_c, 11, 76, 84
13, 187599, Note_on_c, 11, 76, 0
13, 188640, Note_on_c, 11, 79, 84
13, 188704, Note_on_c, 11, 79, 0
13, 188720, Note_on_c, 11, 79, 84
13, 188784, Note_on_c, 11, 79, 0
13, 188800, Note_on_c, 11, 79, 84
13, 188864, Note_on_c, 11, 79, 0
13, 188880, Note_on_c, 11, 79, 84
13, 188944, Note_on_c, 11, 79, 0
13, 188960, Note_on_c, 11, 79, 84
13, 189024, Note_on_c, 11, 79, 0
13, 189040, Note_on_c, 11, 79, 84
13, 189104, Note_on_c, 11, 79, 0
13, 189120, Note_on_c, 11, 79, 92
13, 189239, Note_on_c, 11, 79, 0
13, 189240, Note_on_c, 11, 81, 84
13, 189339, Note_on_c, 11, 81, 0
13, 189360, Note_on_c, 11, 77, 84
13, 189519, Note_on_c, 11, 77, 0
13, 189600, Note_on_c, 11, 65, 84
13, 189664, Note_on_c, 11, 65, 0
13, 189680, Note_on_c, 11, 65, 84
13, 189744, Note_on_c, 11, 65, 0
13, 189760, Note_on_c, 11, 65, 84
13, 189824, Note_on_c, 11, 65, 0
13, 189840, Note_on_c, 11, 65, 84
13, 189904, Note_on_c, 11, 65, 0
13, 189920, Note_on_c, 11, 65, 84
13, 189984, Note_on_c, 11, 65, 0
13, 190000, Note_on_c, 11, 65, 84
13, 190064, Note_on_c, 11, 65, 0
13, 190080, Note_on_c, 11, 65, 84
13, 190319, Note_on_c, 11, 65, 0
13, 190560, Note_on_c, 11, 65, 84
13, 190624, Note_on_c, 11, 65, 0
13, 190640, Note_on_c, 11, 65, 84
13, 190704, Note_on_c, 11, 65, 0
13, 190720, Note_on_c, 11, 65, 84
13, 190784, Note_on_c, 11, 65, 0
13, 190800, Note_on_c, 11, 65, 84
13, 190864, Note_on_c, 11, 65, 0
13, 190880, Note_on_c, 11, 65, 84
13, 190944, Note_on_c, 11, 65, 0
13, 190960, Note_on_c, 11, 65, 84
13, 191024, Note_on_c, 11, 65, 0
13, 191040, Note_on_c, 11, 65, 84
13, 191159, Note_on_c, 11, 65, 0
13, 191160, Note_on_c, 11, 67, 84
13, 191259, Note_on_c, 11, 67, 0
13, 191280, Note_on_c, 11, 64, 84
13, 191439, Note_on_c, 11, 64, 0
13, 191520, Note_on_c, 11, 67, 84
13, 191584, Note_on_c, 11, 67, 0
13, 191600, Note_on_c, 11, 67, 84
13, 191664, Note_on_c, 11, 67, 0
13, 191680, Note_on_c, 11, 67, 84
13, 191744, Note_on_c, 11, 67, 0
13, 191760, Note_on_c, 11, 67, 84
13, 191824, Note_on_c, 11, 67, 0
13, 191840, Note_on_c, 11, 67, 84
13, 191904, Note_on_c, 11, 67, 0
13, 191920, Note_on_c, 11, 67, 84
13, 191984, Note_on_c, 11, 67, 0
13, 192000, Note_on_c, 11, 67, 84
13, 192239, Note_on_c, 11, 67, 0
13, 192480, Note_on_c, 11, 67, 84
13, 192544, Note_on_c, 11, 67, 0
13, 192560, Note_on_c, 11, 67, 84
13, 192624, Note_on_c, 11, 67, 0
13, 192640, Note_on_c, 11, 67, 84
13, 192704, Note_on_c, 11, 67, 0
13, 192720, Note_on_c, 11, 67, 84
13, 192784, Note_on_c, 11, 67, 0
13, 192800, Note_on_c, 11, 67, 84
13, 192864, Note_on_c, 11, 67, 0
13, 192880, Note_on_c, 11, 67, 84
13, 192944, Note_on_c, 11, 67, 0
13, 192960, Note_on_c, 11, 67, 84
13, 193079, Note_on_c, 11, 67, 0
13, 193080, Note_on_c, 11, 69, 84
13, 193179, Note_on_c, 11, 69, 0
13, 193200, Note_on_c, 11, 65, 84
13, 193359, Note_on_c, 11, 65, 0
13, 194400, Note_on_c, 11, 77, 84
13, 194464, Note_on_c, 11, 77, 0
13, 194480, Note_on_c, 11, 77, 84
13, 194544, Note_on_c, 11, 77, 0
13, 194560, Note_on_c, 11, 77, 84
13, 194624, Note_on_c, 11, 77, 0
13, 194640, Note_on_c, 11, 77, 84
13, 194704, Note_on_c, 11, 77, 0
13, 194720, Note_on_c, 11, 77, 84
13, 194784, Note_on_c, 11, 77, 0
13, 194800, Note_on_c, 11, 77, 84
13, 194864, Note_on_c, 11, 77, 0
13, 194880, Note_on_c, 11, 79, 92
13, 194999, Note_on_c, 11, 79, 0
13, 195000, Note_on_c, 11, 81, 84
13, 195099, Note_on_c, 11, 81, 0
13, 195120, Note_on_c, 11, 78, 84
13, 195279, Note_on_c, 11, 78, 0
13, 196320, Note_on_c, 11, 81, 84
13, 196384, Note_on_c, 11, 81, 0
13, 196400, Note_on_c, 11, 81, 84
13, 196464, Note_on_c, 11, 81, 0
13, 196480, Note_on_c, 11, 81, 84
13, 196544, Note_on_c, 11, 81, 0
13, 196560, Note_on_c, 11, 81, 84
13, 196624, Note_on_c, 11, 81, 0
13, 196640, Note_on_c, 11, 81, 84
13, 196704, Note_on_c, 11, 81, 0
13, 196720, Note_on_c, 11, 81, 84
13, 196784, Note_on_c, 11, 81, 0
13, 196800, Note_on_c, 11, 81, 92
13, 196919, Note_on_c, 11, 81, 0
13, 196920, Note_on_c, 11, 82, 84
13, 197019, Note_on_c, 11, 82, 0
13, 197040, Note_on_c, 11, 79, 84
13, 197199, Note_on_c, 11, 79, 0
13, 197280, Note_on_c, 11, 67, 84
13, 197344, Note_on_c, 11, 67, 0
13, 197360, Note_on_c, 11, 67, 84
13, 197424, Note_on_c, 11, 67, 0
13, 197440, Note_on_c, 11, 67, 84
13, 197504, Note_on_c, 11, 67, 0
13, 197520, Note_on_c, 11, 67, 84
13, 197584, Note_on_c, 11, 67, 0
13, 197600, Note_on_c, 11, 67, 84
13, 197664, Note_on_c, 11, 67, 0
13, 197680, Note_on_c, 11, 67, 84
13, 197744, Note_on_c, 11, 67, 0
13, 197760, Note_on_c, 11, 67, 84
13, 197999, Note_on_c, 11, 67, 0
13, 198240, Note_on_c, 11, 67, 84
13, 198304, Note_on_c, 11, 67, 0
13, 198320, Note_on_c, 11, 67, 84
13, 198384, Note_on_c, 11, 67, 0
13, 198400, Note_on_c, 11, 67, 84
13, 198464, Note_on_c, 11, 67, 0
13, 198480, Note_on_c, 11, 67, 84
13, 198544, Note_on_c, 11, 67, 0
13, 198560, Note_on_c, 11, 67, 84
13, 198624, Note_on_c, 11, 67, 0
13, 198640, Note_on_c, 11, 67, 84
13, 198704, Note_on_c, 11, 67, 0
13, 198720, Note_on_c, 11, 69, 84
13, 198959, Note_on_c, 11, 69, 0
13, 199200, Note_on_c, 11, 69, 84
13, 199264, Note_on_c, 11, 69, 0
13, 199280, Note_on_c, 11, 69, 84
13, 199344, Note_on_c, 11, 69, 0
13, 199360, Note_on_c, 11, 69, 84
13, 199424, Note_on_c, 11, 69, 0
13, 199440, Note_on_c, 11, 69, 84
13, 199504, Note_on_c, 11, 69, 0
13, 199520, Note_on_c, 11, 69, 84
13, 199584, Note_on_c, 11, 69, 0
13, 199600, Note_on_c, 11, 69, 84
13, 199664, Note_on_c, 11, 69, 0
13, 199680, Note_on_c, 11, 69, 84
13, 199919, Note_on_c, 11, 69, 0
13, 200160, Note_on_c, 11, 72, 84
13, 200224, Note_on_c, 11, 72, 0
13, 200240, Note_on_c, 11, 72, 84
13, 200304, Note_on_c, 11, 72, 0
13, 200320, Note_on_c, 11, 72, 84
13, 200384, Note_on_c, 11, 72, 0
13, 200400, Note_on_c, 11, 72, 84
13, 200464, Note_on_c, 11, 72, 0
13, 200480, Note_on_c, 11, 72, 84
13, 200544, Note_on_c, 11, 72, 0
13, 200560, Note_on_c, 11, 72, 84
13, 200624, Note_on_c, 11, 72, 0
13, 200640, Note_on_c, 11, 72, 92
13, 200759, Note_on_c, 11, 72, 0
13, 200760, Note_on_c, 11, 74, 84
13, 200859, Note_on_c, 11, 74, 0
13, 200880, Note_on_c, 11, 70, 84
13, 201039, Note_on_c, 11, 70, 0
13, 202080, Note_on_c, 11, 82, 84
13, 202144, Note_on_c, 11, 82, 0
13, 202160, Note_on_c, 11, 82, 84
13, 202224, Note_on_c, 11, 82, 0
13, 202240, Note_on_c, 11, 82, 84
13, 202304, Note_on_c, 11, 82, 0
13, 202320, Note_on_c, 11, 82, 84
13, 202384, Note_on_c, 11, 82, 0
13, 202400, Note_on_c, 11, 82, 84
13, 202464, Note_on_c, 11, 82, 0
13, 202480, Note_on_c, 11, 82, 84
13, 202544, Note_on_c, 11, 82, 0
13, 202560, Note_on_c, 11, 82, 92
13, 202679, Note_on_c, 11, 82, 0
13, 202680, Note_on_c, 11, 84, 84
13, 202779, Note_on_c, 11, 84, 0
13, 202800, Note_on_c, 11, 81, 84
13, 202959, Note_on_c, 11, 81, 0
13, 204000, Note_on_c, 11, 84, 84
13, 204064, Note_on_c, 11, 84, 0
13, 204080, Note_on_c, 11, 84, 84
13, 204144, Note_on_c, 11, 84, 0
13, 204160, Note_on_c, 11, 84, 84
13, 204224, Note_on_c, 11, 84, 0
13, 204240, Note_on_c, 11, 84, 84
13, 204304, Note_on_c, 11, 84, 0
13, 204320, Note_on_c, 11, 84, 84
13, 204384, Note_on_c, 11, 84, 0
13, 204400, Note_on_c, 11, 84, 84
13, 204464, Note_on_c, 11, 84, 0
13, 204480, Note_on_c, 11, 84, 92
13, 204599, Note_on_c, 11, 84, 0
13, 204600, Note_on_c, 11, 86, 84
13, 204699, Note_on_c, 11, 86, 0
13, 204720, Note_on_c, 11, 82, 84
13, 204879, Note_on_c, 11, 82, 0
13, 204960, Note_on_c, 11, 74, 92
13, 205119, Note_on_c, 11, 74, 0
13, 205200, Note_on_c, 11, 70, 84
13, 205359, Note_on_c, 11, 70, 0
13, 205440, Note_on_c, 11, 70, 92
13, 205599, Note_on_c, 11, 70, 0
13, 205680, Note_on_c, 11, 65, 84
13, 205839, Note_on_c, 11, 65, 0
13, 206880, Note_on_c, 11, 74, 84
13, 207039, Note_on_c, 11, 74, 0
13, 207120, Note_on_c, 11, 70, 84
13, 207279, Note_on_c, 11, 70, 0
13, 207360, Note_on_c, 11, 70, 84
13, 207519, Note_on_c, 11, 70, 0
13, 207600, Note_on_c, 11, 65, 84
13, 207759, Note_on_c, 11, 65, 0
13, 209760, Note_on_c, 11, 64, 84
13, 209919, Note_on_c, 11, 64, 0
13, 210000, Note_on_c, 11, 67, 84
13, 210159, Note_on_c, 11, 67, 0
13, 210240, Note_on_c, 11, 67, 84
13, 210399, Note_on_c, 11, 67, 0
13, 210480, Note_on_c, 11, 70, 84
13, 210639, Note_on_c, 11, 70, 0
13, 210720, Note_on_c, 11, 64, 84
13, 210879, Note_on_c, 11, 64, 0
13, 210960, Note_on_c, 11, 67, 84
13, 211119, Note_on_c, 11, 67, 0
13, 211200, Note_on_c, 11, 67, 84
13, 211359, Note_on_c, 11, 67, 0
13, 211440, Note_on_c, 11, 70, 84
13, 211599, Note_on_c, 11, 70, 0
13, 211680, Note_on_c, 11, 64, 84
13, 211839, Note_on_c, 11, 64, 0
13, 211920, Note_on_c, 11, 67, 84
13, 212079, Note_on_c, 11, 67, 0
13, 212160, Note_on_c, 11, 67, 84
13, 212319, Note_on_c, 11, 67, 0
13, 212400, Note_on_c, 11, 70, 84
13, 212559, Note_on_c, 11, 70, 0
13, 212640, Note_on_c, 11, 64, 84
13, 212799, Note_on_c, 11, 64, 0
13, 212880, Note_on_c, 11, 67, 84
13, 213039, Note_on_c, 11, 67, 0
13, 213120, Note_on_c, 11, 67, 84
13, 213279, Note_on_c, 11, 67, 0
13, 213360, Note_on_c, 11, 70, 84
13, 213519, Note_on_c, 11, 70, 0
13, 213600, Note_on_c, 11, 64, 84
13, 213759, Note_on_c, 11, 64, 0
13, 213840, Note_on_c, 11, 79, 84
13, 213999, Note_on_c, 11, 79, 0
13, 214080, Note_on_c, 11, 79, 84
13, 214239, Note_on_c, 11, 79, 0
13, 214320, Note_on_c, 11, 84, 84
13, 214479, Note_on_c, 11, 84, 0
13, 214560, Note_on_c, 11, 84, 84
13, 214719, Note_on_c, 11, 84, 0
13, 214800, Note_on_c, 11, 72, 84
13, 214959, Note_on_c, 11, 72, 0
13, 215040, Note_on_c, 11, 73, 52
13, 215999, Note_on_c, 11, 73, 0
13, 216000, Note_on_c, 11, 80, 52
13, 216719, Note_on_c, 11, 80, 0
13, 216720, Note_on_c, 11, 82, 52
13, 216939, Note_on_c, 11, 82, 0
13, 216960, Note_on_c, 11, 82, 52
13, 217199, Note_on_c, 11, 82, 0
13, 217200, Note_on_c, 11, 75, 52
13, 217419, Note_on_c, 11, 75, 0
13, 217440, Note_on_c, 11, 75, 52
13, 217679, Note_on_c, 11, 75, 0
13, 217680, Note_on_c, 11, 77, 52
13, 217919, Note_on_c, 11, 77, 0
13, 217920, Note_on_c, 11, 78, 52
13, 218159, Note_on_c, 11, 78, 0
13, 218400, Note_on_c, 11, 80, 52
13, 218639, Note_on_c, 11, 80, 0
13, 218880, Note_on_c, 11, 77, 52
13, 219839, Note_on_c, 11, 77, 0
13, 219840, Note_on_c, 11, 80, 52
13, 220079, Note_on_c, 11, 80, 0
13, 220080, Note_on_c, 11, 82, 52
13, 220159, Note_on_c, 11, 82, 0
13, 220160, Note_on_c, 11, 80, 52
13, 220239, Note_on_c, 11, 80, 0
13, 220240, Note_on_c, 11, 79, 52
13, 220319, Note_on_c, 11, 79, 0
13, 220320, Note_on_c, 11, 80, 52
13, 220559, Note_on_c, 11, 80, 0
13, 220560, Note_on_c, 11, 81, 52
13, 220799, Note_on_c, 11, 81, 0
13, 220800, Note_on_c, 11, 84, 52
13, 221039, Note_on_c, 11, 84, 0
13, 221040, Note_on_c, 11, 82, 52
13, 221279, Note_on_c, 11, 82, 0
13, 221280, Note_on_c, 11, 75, 52
13, 221519, Note_on_c, 11, 75, 0
13, 221520, Note_on_c, 11, 77, 52
13, 221759, Note_on_c, 11, 77, 0
13, 221760, Note_on_c, 11, 78, 52
13, 221999, Note_on_c, 11, 78, 0
13, 222240, Note_on_c, 11, 80, 52
13, 222479, Note_on_c, 11, 80, 0
13, 222480, Control_c, 11, 11, 96
13, 222720, Control_c, 11, 11, 96
13, 222720, Note_on_c, 11, 77, 68
13, 223000, Control_c, 11, 11, 99
13, 223280, Control_c, 11, 11, 101
13, 223560, Control_c, 11, 11, 104
13, 223679, Note_on_c, 11, 77, 0
13, 223680, Note_on_c, 11, 77, 68
13, 223840, Control_c, 11, 11, 106
13, 224120, Control_c, 11, 11, 109
13, 224400, Control_c, 11, 11, 112
13, 224639, Note_on_c, 11, 77, 0
13, 224640, Note_on_c, 11, 79, 68
13, 224680, Control_c, 11, 11, 114
13, 224960, Control_c, 11, 11, 117
13, 225240, Control_c, 11, 11, 119
13, 225520, Control_c, 11, 11, 122
13, 225599, Note_on_c, 11, 79, 0
13, 225600, Note_on_c, 11, 84, 68
13, 225800, Control_c, 11, 11, 124
13, 226080, Control_c, 11, 11, 127
13, 226539, Note_on_c, 11, 84, 0
13, 226560, Note_on_c, 11, 77, 52
13, 226704, Note_on_c, 11, 77, 0
13, 226720, Note_on_c, 11, 65, 52
13, 226879, Note_on_c, 11, 65, 0
13, 226880, Note_on_c, 11, 69, 52
13, 227039, Note_on_c, 11, 69, 0
13, 227040, Note_on_c, 11, 72, 52
13, 227199, Note_on_c, 11, 72, 0
13, 227200, Note_on_c, 11, 60, 52
13, 227359, Note_on_c, 11, 60, 0
13, 227360, Note_on_c, 11, 72, 52
13, 227504, Note_on_c, 11, 72, 0
13, 227520, Note_on_c, 11, 60, 52
13, 227679, Note_on_c, 11, 60, 0
13, 227680, Note_on_c, 11, 65, 52
13, 227839, Note_on_c, 11, 65, 0
13, 227840, Note_on_c, 11, 69, 52
13, 227999, Note_on_c, 11, 69, 0
13, 228000, Note_on_c, 11, 72, 52
13, 228159, Note_on_c, 11, 72, 0
13, 228160, Note_on_c, 11, 60, 52
13, 228319, Note_on_c, 11, 60, 0
13, 228320, Note_on_c, 11, 72, 52
13, 228464, Note_on_c, 11, 72, 0
13, 228480, Note_on_c, 11, 60, 52
13, 228639, Note_on_c, 11, 60, 0
13, 228640, Note_on_c, 11, 67, 52
13, 228799, Note_on_c, 11, 67, 0
13, 228800, Note_on_c, 11, 70, 52
13, 228959, Note_on_c, 11, 70, 0
13, 228960, Note_on_c, 11, 72, 52
13, 229119, Note_on_c, 11, 72, 0
13, 229120, Note_on_c, 11, 60, 52
13, 229279, Note_on_c, 11, 60, 0
13, 229280, Note_on_c, 11, 72, 52
13, 229424, Note_on_c, 11, 72, 0
13, 229440, Note_on_c, 11, 60, 52
13, 229599, Note_on_c, 11, 60, 0
13, 229600, Note_on_c, 11, 67, 52
13, 229759, Note_on_c, 11, 67, 0
13, 229760, Note_on_c, 11, 70, 52
13, 229919, Note_on_c, 11, 70, 0
13, 229920, Note_on_c, 11, 72, 52
13, 230079, Note_on_c, 11, 72, 0
13, 230080, Note_on_c, 11, 60, 52
13, 230239, Note_on_c, 11, 60, 0
13, 230240, Note_on_c, 11, 72, 52
13, 230384, Note_on_c, 11, 72, 0
13, 230400, Note_on_c, 11, 60, 52
13, 230559, Note_on_c, 11, 60, 0
13, 230560, Note_on_c, 11, 65, 52
13, 230719, Note_on_c, 11, 65, 0
13, 230720, Note_on_c, 11, 69, 52
13, 230879, Note_on_c, 11, 69, 0
13, 230880, Note_on_c, 11, 72, 52
13, 231039, Note_on_c, 11, 72, 0
13, 231040, Note_on_c, 11, 60, 52
13, 231199, Note_on_c, 11, 60, 0
13, 231200, Note_on_c, 11, 72, 52
13, 231344, Note_on_c, 11, 72, 0
13, 231360, Note_on_c, 11, 60, 52
13, 231519, Note_on_c, 11, 60, 0
13, 231520, Note_on_c, 11, 65, 52
13, 231679, Note_on_c, 11, 65, 0
13, 231680, Note_on_c, 11, 69, 52
13, 231839, Note_on_c, 11, 69, 0
13, 231840, Note_on_c, 11, 72, 52
13, 231999, Note_on_c, 11, 72, 0
13, 232000, Note_on_c, 11, 60, 52
13, 232159, Note_on_c, 11, 60, 0
13, 232160, Note_on_c, 11, 72, 52
13, 232304, Note_on_c, 11, 72, 0
13, 232320, Note_on_c, 11, 60, 52
13, 232479, Note_on_c, 11, 60, 0
13, 232480, Note_on_c, 11, 67, 52
13, 232639, Note_on_c, 11, 67, 0
13, 232640, Note_on_c, 11, 70, 52
13, 232799, Note_on_c, 11, 70, 0
13, 232800, Note_on_c, 11, 72, 52
13, 232959, Note_on_c, 11, 72, 0
13, 232960, Note_on_c, 11, 60, 52
13, 233119, Note_on_c, 11, 60, 0
13, 233120, Note_on_c, 11, 72, 52
13, 233264, Note_on_c, 11, 72, 0
13, 233280, Note_on_c, 11, 60, 52
13, 233439, Note_on_c, 11, 60, 0
13, 233440, Note_on_c, 11, 67, 52
13, 233599, Note_on_c, 11, 67, 0
13, 233600, Note_on_c, 11, 70, 52
13, 233759, Note_on_c, 11, 70, 0
13, 233760, Note_on_c, 11, 72, 52
13, 233919, Note_on_c, 11, 72, 0
13, 233920, Note_on_c, 11, 60, 52
13, 234079, Note_on_c, 11, 60, 0
13, 234080, Note_on_c, 11, 72, 52
13, 234224, Note_on_c, 11, 72, 0
13, 234240, Note_on_c, 11, 69, 44
13, 234359, Note_on_c, 11, 69, 0
13, 234400, Note_on_c, 11, 69, 44
13, 234559, Note_on_c, 11, 69, 0
13, 234560, Note_on_c, 11, 67, 44
13, 234719, Note_on_c, 11, 67, 0
13, 234720, Note_on_c, 11, 69, 44
13, 234879, Note_on_c, 11, 69, 0
13, 234880, Note_on_c, 11, 67, 44
13, 235039, Note_on_c, 11, 67, 0
13, 235040, Note_on_c, 11, 69, 44
13, 235199, Note_on_c, 11, 69, 0
13, 235200, Note_on_c, 11, 70, 44
13, 235344, Note_on_c, 11, 70, 0
13, 235360, Note_on_c, 11, 70, 44
13, 235519, Note_on_c, 11, 70, 0
13, 235520, Note_on_c, 11, 69, 44
13, 235679, Note_on_c, 11, 69, 0
13, 235680, Note_on_c, 11, 70, 44
13, 235839, Note_on_c, 11, 70, 0
13, 235840, Note_on_c, 11, 69, 44
13, 235999, Note_on_c, 11, 69, 0
13, 236000, Note_on_c, 11, 71, 44
13, 236159, Note_on_c, 11, 71, 0
13, 236160, Note_on_c, 11, 72, 44
13, 236304, Note_on_c, 11, 72, 0
13, 236320, Note_on_c, 11, 72, 44
13, 236479, Note_on_c, 11, 72, 0
13, 236480, Note_on_c, 11, 71, 44
13, 236639, Note_on_c, 11, 71, 0
13, 236640, Note_on_c, 11, 72, 44
13, 236799, Note_on_c, 11, 72, 0
13, 236800, Note_on_c, 11, 70, 44
13, 236959, Note_on_c, 11, 70, 0
13, 236960, Note_on_c, 11, 72, 44
13, 237119, Note_on_c, 11, 72, 0
13, 237120, Note_on_c, 11, 74, 44
13, 237264, Note_on_c, 11, 74, 0
13, 237280, Note_on_c, 11, 74, 44
13, 237439, Note_on_c, 11, 74, 0
13, 237440, Note_on_c, 11, 72, 44
13, 237599, Note_on_c, 11, 72, 0
13, 237600, Note_on_c, 11, 74, 44
13, 237759, Note_on_c, 11, 74, 0
13, 237760, Note_on_c, 11, 72, 44
13, 237919, Note_on_c, 11, 72, 0
13, 237920, Note_on_c, 11, 74, 44
13, 238064, Note_on_c, 11, 74, 0
13, 238080, Note_on_c, 11, 76, 44
13, 238239, Note_on_c, 11, 76, 0
13, 238240, Note_on_c, 11, 77, 44
13, 238399, Note_on_c, 11, 77, 0
13, 238400, Note_on_c, 11, 76, 44
13, 238559, Note_on_c, 11, 76, 0
13, 238560, Note_on_c, 11, 77, 44
13, 238719, Note_on_c, 11, 77, 0
13, 238720, Note_on_c, 11, 76, 44
13, 238879, Note_on_c, 11, 76, 0
13, 238880, Note_on_c, 11, 77, 44
13, 239039, Note_on_c, 11, 77, 0
13, 239040, Note_on_c, 11, 74, 44
13, 239199, Note_on_c, 11, 74, 0
13, 239200, Note_on_c, 11, 76, 44
13, 239359, Note_on_c, 11, 76, 0
13, 239360, Note_on_c, 11, 74, 44
13, 239519, Note_on_c, 11, 74, 0
13, 239520, Note_on_c, 11, 76, 44
13, 239679, Note_on_c, 11, 76, 0
13, 239680, Note_on_c, 11, 74, 44
13, 239839, Note_on_c, 11, 74, 0
13, 239840, Note_on_c, 11, 76, 44
13, 239999, Note_on_c, 11, 76, 0
13, 240000, Note_on_c, 11, 72, 44
13, 240159, Note_on_c, 11, 72, 0
13, 240160, Note_on_c, 11, 74, 44
13, 240319, Note_on_c, 11, 74, 0
13, 240320, Note_on_c, 11, 72, 44
13, 240479, Note_on_c, 11, 72, 0
13, 240480, Note_on_c, 11, 74, 44
13, 240639, Note_on_c, 11, 74, 0
13, 240640, Note_on_c, 11, 72, 44
13, 240799, Note_on_c, 11, 72, 0
13, 240800, Note_on_c, 11, 74, 44
13, 240959, Note_on_c, 11, 74, 0
13, 240960, Note_on_c, 11, 70, 44
13, 241119, Note_on_c, 11, 70, 0
13, 241120, Note_on_c, 11, 72, 44
13, 241279, Note_on_c, 11, 72, 0
13, 241280, Note_on_c, 11, 70, 44
13, 241439, Note_on_c, 11, 70, 0
13, 241440, Note_on_c, 11, 72, 44
13, 241599, Note_on_c, 11, 72, 0
13, 241600, Note_on_c, 11, 70, 44
13, 241759, Note_on_c, 11, 70, 0
13, 241760, Note_on_c, 11, 72, 44
13, 241904, Note_on_c, 11, 72, 0
13, 241920, Note_on_c, 11, 69, 76
13, 242139, Note_on_c, 11, 69, 0
13, 242160, Note_on_c, 11, 81, 76
13, 242619, Note_on_c, 11, 81, 0
13, 242640, Note_on_c, 11, 79, 76
13, 242759, Note_on_c, 11, 79, 0
13, 242760, Note_on_c, 11, 81, 76
13, 242879, Note_on_c, 11, 81, 0
13, 242880, Note_on_c, 11, 82, 76
13, 243039, Note_on_c, 11, 82, 0
13, 243120, Note_on_c, 11, 82, 76
13, 243579, Note_on_c, 11, 82, 0
13, 243600, Note_on_c, 11, 81, 76
13, 243719, Note_on_c, 11, 81, 0
13, 243720, Note_on_c, 11, 83, 76
13, 243839, Note_on_c, 11, 83, 0
13, 243840, Note_on_c, 11, 84, 76
13, 243999, Note_on_c, 11, 84, 0
13, 244080, Note_on_c, 11, 84, 76
13, 244539, Note_on_c, 11, 84, 0
13, 244560, Note_on_c, 11, 82, 76
13, 244679, Note_on_c, 11, 82, 0
13, 244680, Note_on_c, 11, 84, 76
13, 244799, Note_on_c, 11, 84, 0
13, 244800, Note_on_c, 11, 86, 76
13, 244959, Note_on_c, 11, 86, 0
13, 245040, Note_on_c, 11, 86, 76
13, 245499, Note_on_c, 11, 86, 0
13, 245520, Note_on_c, 11, 84, 76
13, 245639, Note_on_c, 11, 84, 0
13, 245640, Note_on_c, 11, 86, 76
13, 245739, Note_on_c, 11, 86, 0
13, 245760, Note_on_c, 11, 88, 76
13, 245824, Note_on_c, 11, 88, 0
13, 245840, Note_on_c, 11, 88, 76
13, 245904, Note_on_c, 11, 88, 0
13, 245920, Note_on_c, 11, 88, 76
13, 245984, Note_on_c, 11, 88, 0
13, 246000, Note_on_c, 11, 76, 76
13, 246064, Note_on_c, 11, 76, 0
13, 246080, Note_on_c, 11, 76, 76
13, 246144, Note_on_c, 11, 76, 0
13, 246160, Note_on_c, 11, 76, 76
13, 246224, Note_on_c, 11, 76, 0
13, 246240, Note_on_c, 11, 88, 76
13, 246304, Note_on_c, 11, 88, 0
13, 246320, Note_on_c, 11, 88, 76
13, 246384, Note_on_c, 11, 88, 0
13, 246400, Note_on_c, 11, 88, 76
13, 246464, Note_on_c, 11, 88, 0
13, 246480, Note_on_c, 11, 89, 76
13, 246544, Note_on_c, 11, 89, 0
13, 246560, Note_on_c, 11, 89, 76
13, 246624, Note_on_c, 11, 89, 0
13, 246640, Note_on_c, 11, 89, 76
13, 246704, Note_on_c, 11, 89, 0
13, 246720, Note_on_c, 11, 86, 76
13, 246784, Note_on_c, 11, 86, 0
13, 246800, Note_on_c, 11, 86, 76
13, 246864, Note_on_c, 11, 86, 0
13, 246880, Note_on_c, 11, 86, 76
13, 246944, Note_on_c, 11, 86, 0
13, 246960, Note_on_c, 11, 74, 76
13, 247024, Note_on_c, 11, 74, 0
13, 247040, Note_on_c, 11, 74, 76
13, 247104, Note_on_c, 11, 74, 0
13, 247120, Note_on_c, 11, 74, 76
13, 247184, Note_on_c, 11, 74, 0
13, 247200, Note_on_c, 11, 86, 76
13, 247264, Note_on_c, 11, 86, 0
13, 247280, Note_on_c, 11, 86, 76
13, 247344, Note_on_c, 11, 86, 0
13, 247360, Note_on_c, 11, 86, 76
13, 247424, Note_on_c, 11, 86, 0
13, 247440, Note_on_c, 11, 88, 76
13, 247504, Note_on_c, 11, 88, 0
13, 247520, Note_on_c, 11, 88, 76
13, 247584, Note_on_c, 11, 88, 0
13, 247600, Note_on_c, 11, 88, 76
13, 247664, Note_on_c, 11, 88, 0
13, 247680, Note_on_c, 11, 84, 76
13, 247744, Note_on_c, 11, 84, 0
13, 247760, Note_on_c, 11, 84, 76
13, 247824, Note_on_c, 11, 84, 0
13, 247840, Note_on_c, 11, 84, 76
13, 247904, Note_on_c, 11, 84, 0
13, 247920, Note_on_c, 11, 72, 76
13, 247984, Note_on_c, 11, 72, 0
13, 248000, Note_on_c, 11, 72, 76
13, 248064, Note_on_c, 11, 72, 0
13, 248080, Note_on_c, 11, 72, 76
13, 248144, Note_on_c, 11, 72, 0
13, 248160, Note_on_c, 11, 84, 76
13, 248224, Note_on_c, 11, 84, 0
13, 248240, Note_on_c, 11, 84, 76
13, 248304, Note_on_c, 11, 84, 0
13, 248320, Note_on_c, 11, 84, 76
13, 248384, Note_on_c, 11, 84, 0
13, 248400, Note_on_c, 11, 86, 76
13, 248464, Note_on_c, 11, 86, 0
13, 248480, Note_on_c, 11, 86, 76
13, 248544, Note_on_c, 11, 86, 0
13, 248560, Note_on_c, 11, 86, 76
13, 248624, Note_on_c, 11, 86, 0
13, 248640, Note_on_c, 11, 82, 76
13, 248704, Note_on_c, 11, 82, 0
13, 248720, Note_on_c, 11, 82, 76
13, 248784, Note_on_c, 11, 82, 0
13, 248800, Note_on_c, 11, 82, 76
13, 248864, Note_on_c, 11, 82, 0
13, 248880, Note_on_c, 11, 70, 76
13, 248944, Note_on_c, 11, 70, 0
13, 248960, Note_on_c, 11, 70, 76
13, 249024, Note_on_c, 11, 70, 0
13, 249040, Note_on_c, 11, 70, 76
13, 249104, Note_on_c, 11, 70, 0
13, 249120, Note_on_c, 11, 82, 76
13, 249184, Note_on_c, 11, 82, 0
13, 249200, Note_on_c, 11, 82, 76
13, 249264, Note_on_c, 11, 82, 0
13, 249280, Note_on_c, 11, 82, 76
13, 249344, Note_on_c, 11, 82, 0
13, 249360, Note_on_c, 11, 84, 76
13, 249424, Note_on_c, 11, 84, 0
13, 249440, Note_on_c, 11, 84, 76
13, 249504, Note_on_c, 11, 84, 0
13, 249520, Note_on_c, 11, 84, 76
13, 249584, Note_on_c, 11, 84, 0
13, 249600, Note_on_c, 11, 70, 80
13, 249600, Note_on_c, 11, 82, 80
13, 249664, Note_on_c, 11, 70, 0
13, 249664, Note_on_c, 11, 82, 0
13, 249680, Note_on_c, 11, 82, 80
13, 249680, Note_on_c, 11, 70, 80
13, 249744, Note_on_c, 11, 82, 0
13, 249744, Note_on_c, 11, 70, 0
13, 249760, Note_on_c, 11, 70, 80
13, 249760, Note_on_c, 11, 82, 80
13, 249824, Note_on_c, 11, 70, 0
13, 249824, Note_on_c, 11, 82, 0
13, 249840, Note_on_c, 11, 70, 80
13, 249840, Note_on_c, 11, 82, 80
13, 249904, Note_on_c, 11, 70, 0
13, 249904, Note_on_c, 11, 82, 0
13, 249920, Note_on_c, 11, 82, 80
13, 249920, Note_on_c, 11, 70, 80
13, 249984, Note_on_c, 11, 82, 0
13, 249984, Note_on_c, 11, 70, 0
13, 250000, Note_on_c, 11, 82, 80
13, 250000, Note_on_c, 11, 70, 80
13, 250064, Note_on_c, 11, 82, 0
13, 250064, Note_on_c, 11, 70, 0
13, 250080, Note_on_c, 11, 70, 80
13, 250080, Note_on_c, 11, 82, 80
13, 250144, Note_on_c, 11, 70, 0
13, 250144, Note_on_c, 11, 82, 0
13, 250160, Note_on_c, 11, 82, 80
13, 250160, Note_on_c, 11, 70, 80
13, 250224, Note_on_c, 11, 82, 0
13, 250224, Note_on_c, 11, 70, 0
13, 250240, Note_on_c, 11, 82, 80
13, 250240, Note_on_c, 11, 70, 80
13, 250304, Note_on_c, 11, 82, 0
13, 250304, Note_on_c, 11, 70, 0
13, 250320, Note_on_c, 11, 82, 80
13, 250320, Note_on_c, 11, 70, 80
13, 250384, Note_on_c, 11, 82, 0
13, 250384, Note_on_c, 11, 70, 0
13, 250400, Note_on_c, 11, 70, 80
13, 250400, Note_on_c, 11, 82, 80
13, 250464, Note_on_c, 11, 70, 0
13, 250464, Note_on_c, 11, 82, 0
13, 250480, Note_on_c, 11, 70, 80
13, 250480, Note_on_c, 11, 82, 80
13, 250544, Note_on_c, 11, 70, 0
13, 250544, Note_on_c, 11, 82, 0
13, 250560, Note_on_c, 11, 82, 80
13, 250560, Note_on_c, 11, 70, 80
13, 250624, Note_on_c, 11, 82, 0
13, 250624, Note_on_c, 11, 70, 0
13, 250640, Note_on_c, 11, 70, 80
13, 250640, Note_on_c, 11, 82, 80
13, 250704, Note_on_c, 11, 70, 0
13, 250704, Note_on_c, 11, 82, 0
13, 250720, Note_on_c, 11, 70, 80
13, 250720, Note_on_c, 11, 82, 80
13, 250784, Note_on_c, 11, 70, 0
13, 250784, Note_on_c, 11, 82, 0
13, 250800, Note_on_c, 11, 70, 80
13, 250800, Note_on_c, 11, 82, 80
13, 250864, Note_on_c, 11, 70, 0
13, 250864, Note_on_c, 11, 82, 0
13, 250880, Note_on_c, 11, 82, 80
13, 250880, Note_on_c, 11, 70, 80
13, 250944, Note_on_c, 11, 82, 0
13, 250944, Note_on_c, 11, 70, 0
13, 250960, Note_on_c, 11, 82, 80
13, 250960, Note_on_c, 11, 70, 80
13, 251024, Note_on_c, 11, 82, 0
13, 251024, Note_on_c, 11, 70, 0
13, 251040, Note_on_c, 11, 82, 80
13, 251040, Note_on_c, 11, 70, 80
13, 251104, Note_on_c, 11, 82, 0
13, 251104, Note_on_c, 11, 70, 0
13, 251120, Note_on_c, 11, 82, 80
13, 251120, Note_on_c, 11, 70, 80
13, 251184, Note_on_c, 11, 82, 0
13, 251184, Note_on_c, 11, 70, 0
13, 251200, Note_on_c, 11, 82, 80
13, 251200, Note_on_c, 11, 70, 80
13, 251264, Note_on_c, 11, 82, 0
13, 251264, Note_on_c, 11, 70, 0
13, 251280, Note_on_c, 11, 82, 80
13, 251280, Note_on_c, 11, 70, 80
13, 251344, Note_on_c, 11, 82, 0
13, 251344, Note_on_c, 11, 70, 0
13, 251360, Note_on_c, 11, 82, 80
13, 251360, Note_on_c, 11, 70, 80
13, 251424, Note_on_c, 11, 82, 0
13, 251424, Note_on_c, 11, 70, 0
13, 251440, Note_on_c, 11, 70, 80
13, 251440, Note_on_c, 11, 82, 80
13, 251504, Note_on_c, 11, 70, 0
13, 251504, Note_on_c, 11, 82, 0
13, 251520, Note_on_c, 11, 81, 80
13, 251520, Note_on_c, 11, 69, 80
13, 251584, Note_on_c, 11, 81, 0
13, 251584, Note_on_c, 11, 69, 0
13, 251600, Note_on_c, 11, 69, 80
13, 251600, Note_on_c, 11, 81, 80
13, 251664, Note_on_c, 11, 69, 0
13, 251664, Note_on_c, 11, 81, 0
13, 251680, Note_on_c, 11, 69, 80
13, 251680, Note_on_c, 11, 81, 80
13, 251744, Note_on_c, 11, 69, 0
13, 251744, Note_on_c, 11, 81, 0
13, 251760, Note_on_c, 11, 81, 80
13, 251760, Note_on_c, 11, 69, 80
13, 251824, Note_on_c, 11, 81, 0
13, 251824, Note_on_c, 11, 69, 0
13, 251840, Note_on_c, 11, 69, 80
13, 251840, Note_on_c, 11, 81, 80
13, 251904, Note_on_c, 11, 69, 0
13, 251904, Note_on_c, 11, 81, 0
13, 251920, Note_on_c, 11, 81, 80
13, 251920, Note_on_c, 11, 69, 80
13, 251984, Note_on_c, 11, 81, 0
13, 251984, Note_on_c, 11, 69, 0
13, 252000, Note_on_c, 11, 81, 80
13, 252000, Note_on_c, 11, 69, 80
13, 252064, Note_on_c, 11, 81, 0
13, 252064, Note_on_c, 11, 69, 0
13, 252080, Note_on_c, 11, 81, 80
13, 252080, Note_on_c, 11, 69, 80
13, 252144, Note_on_c, 11, 81, 0
13, 252144, Note_on_c, 11, 69, 0
13, 252160, Note_on_c, 11, 81, 80
13, 252160, Note_on_c, 11, 69, 80
13, 252224, Note_on_c, 11, 81, 0
13, 252224, Note_on_c, 11, 69, 0
13, 252240, Note_on_c, 11, 81, 80
13, 252240, Note_on_c, 11, 69, 80
13, 252304, Note_on_c, 11, 81, 0
13, 252304, Note_on_c, 11, 69, 0
13, 252320, Note_on_c, 11, 69, 80
13, 252320, Note_on_c, 11, 81, 80
13, 252384, Note_on_c, 11, 69, 0
13, 252384, Note_on_c, 11, 81, 0
13, 252400, Note_on_c, 11, 69, 80
13, 252400, Note_on_c, 11, 81, 80
13, 252464, Note_on_c, 11, 69, 0
13, 252464, Note_on_c, 11, 81, 0
13, 252480, Note_on_c, 11, 81, 80
13, 252480, Note_on_c, 11, 69, 80
13, 252544, Note_on_c, 11, 81, 0
13, 252544, Note_on_c, 11, 69, 0
13, 252560, Note_on_c, 11, 69, 80
13, 252560, Note_on_c, 11, 81, 80
13, 252624, Note_on_c, 11, 69, 0
13, 252624, Note_on_c, 11, 81, 0
13, 252640, Note_on_c, 11, 81, 80
13, 252640, Note_on_c, 11, 69, 80
13, 252704, Note_on_c, 11, 81, 0
13, 252704, Note_on_c, 11, 69, 0
13, 252720, Note_on_c, 11, 81, 80
13, 252720, Note_on_c, 11, 69, 80
13, 252784, Note_on_c, 11, 81, 0
13, 252784, Note_on_c, 11, 69, 0
13, 252800, Note_on_c, 11, 81, 80
13, 252800, Note_on_c, 11, 69, 80
13, 252864, Note_on_c, 11, 81, 0
13, 252864, Note_on_c, 11, 69, 0
13, 252880, Note_on_c, 11, 69, 80
13, 252880, Note_on_c, 11, 81, 80
13, 252944, Note_on_c, 11, 69, 0
13, 252944, Note_on_c, 11, 81, 0
13, 252960, Note_on_c, 11, 81, 80
13, 252960, Note_on_c, 11, 69, 80
13, 253024, Note_on_c, 11, 81, 0
13, 253024, Note_on_c, 11, 69, 0
13, 253040, Note_on_c, 11, 81, 80
13, 253040, Note_on_c, 11, 69, 80
13, 253104, Note_on_c, 11, 81, 0
13, 253104, Note_on_c, 11, 69, 0
13, 253120, Note_on_c, 11, 81, 80
13, 253120, Note_on_c, 11, 69, 80
13, 253184, Note_on_c, 11, 81, 0
13, 253184, Note_on_c, 11, 69, 0
13, 253200, Note_on_c, 11, 69, 80
13, 253200, Note_on_c, 11, 81, 80
13, 253264, Note_on_c, 11, 69, 0
13, 253264, Note_on_c, 11, 81, 0
13, 253280, Note_on_c, 11, 81, 80
13, 253280, Note_on_c, 11, 69, 80
13, 253344, Note_on_c, 11, 81, 0
13, 253344, Note_on_c, 11, 69, 0
13, 253360, Note_on_c, 11, 81, 80
13, 253360, Note_on_c, 11, 69, 80
13, 253424, Note_on_c, 11, 81, 0
13, 253424, Note_on_c, 11, 69, 0
13, 253440, Note_on_c, 11, 74, 84
13, 253440, Note_on_c, 11, 86, 84
13, 253504, Note_on_c, 11, 74, 0
13, 253504, Note_on_c, 11, 86, 0
13, 253520, Note_on_c, 11, 86, 84
13, 253520, Note_on_c, 11, 74, 84
13, 253584, Note_on_c, 11, 86, 0
13, 253584, Note_on_c, 11, 74, 0
13, 253600, Note_on_c, 11, 74, 84
13, 253600, Note_on_c, 11, 86, 84
13, 253664, Note_on_c, 11, 74, 0
13, 253664, Note_on_c, 11, 86, 0
13, 253680, Note_on_c, 11, 74, 84
13, 253680, Note_on_c, 11, 86, 84
13, 253744, Note_on_c, 11, 74, 0
13, 253744, Note_on_c, 11, 86, 0
13, 253760, Note_on_c, 11, 74, 84
13, 253760, Note_on_c, 11, 86, 84
13, 253824, Note_on_c, 11, 74, 0
13, 253824, Note_on_c, 11, 86, 0
13, 253840, Note_on_c, 11, 74, 84
13, 253840, Note_on_c, 11, 86, 84
13, 253904, Note_on_c, 11, 74, 0
13, 253904, Note_on_c, 11, 86, 0
13, 253920, Note_on_c, 11, 86, 84
13, 253920, Note_on_c, 11, 74, 84
13, 253984, Note_on_c, 11, 86, 0
13, 253984, Note_on_c, 11, 74, 0
13, 254000, Note_on_c, 11, 74, 84
13, 254000, Note_on_c, 11, 86, 84
13, 254064, Note_on_c, 11, 74, 0
13, 254064, Note_on_c, 11, 86, 0
13, 254080, Note_on_c, 11, 86, 84
13, 254080, Note_on_c, 11, 74, 84
13, 254144, Note_on_c, 11, 86, 0
13, 254144, Note_on_c, 11, 74, 0
13, 254160, Note_on_c, 11, 74, 84
13, 254160, Note_on_c, 11, 86, 84
13, 254224, Note_on_c, 11, 74, 0
13, 254224, Note_on_c, 11, 86, 0
13, 254240, Note_on_c, 11, 86, 84
13, 254240, Note_on_c, 11, 74, 84
13, 254304, Note_on_c, 11, 86, 0
13, 254304, Note_on_c, 11, 74, 0
13, 254320, Note_on_c, 11, 74, 84
13, 254320, Note_on_c, 11, 86, 84
13, 254384, Note_on_c, 11, 74, 0
13, 254384, Note_on_c, 11, 86, 0
13, 254400, Note_on_c, 11, 86, 84
13, 254400, Note_on_c, 11, 74, 84
13, 254464, Note_on_c, 11, 86, 0
13, 254464, Note_on_c, 11, 74, 0
13, 254480, Note_on_c, 11, 74, 84
13, 254480, Note_on_c, 11, 86, 84
13, 254544, Note_on_c, 11, 74, 0
13, 254544, Note_on_c, 11, 86, 0
13, 254560, Note_on_c, 11, 86, 84
13, 254560, Note_on_c, 11, 74, 84
13, 254624, Note_on_c, 11, 86, 0
13, 254624, Note_on_c, 11, 74, 0
13, 254640, Note_on_c, 11, 86, 84
13, 254640, Note_on_c, 11, 74, 84
13, 254704, Note_on_c, 11, 86, 0
13, 254704, Note_on_c, 11, 74, 0
13, 254720, Note_on_c, 11, 74, 84
13, 254720, Note_on_c, 11, 86, 84
13, 254784, Note_on_c, 11, 74, 0
13, 254784, Note_on_c, 11, 86, 0
13, 254800, Note_on_c, 11, 86, 84
13, 254800, Note_on_c, 11, 74, 84
13, 254864, Note_on_c, 11, 86, 0
13, 254864, Note_on_c, 11, 74, 0
13, 254880, Note_on_c, 11, 74, 84
13, 254880, Note_on_c, 11, 86, 84
13, 254944, Note_on_c, 11, 74, 0
13, 254944, Note_on_c, 11, 86, 0
13, 254960, Note_on_c, 11, 74, 84
13, 254960, Note_on_c, 11, 86, 84
13, 255024, Note_on_c, 11, 74, 0
13, 255024, Note_on_c, 11, 86, 0
13, 255040, Note_on_c, 11, 74, 84
13, 255040, Note_on_c, 11, 86, 84
13, 255104, Note_on_c, 11, 74, 0
13, 255104, Note_on_c, 11, 86, 0
13, 255120, Note_on_c, 11, 74, 84
13, 255120, Note_on_c, 11, 86, 84
13, 255184, Note_on_c, 11, 74, 0
13, 255184, Note_on_c, 11, 86, 0
13, 255200, Note_on_c, 11, 74, 84
13, 255200, Note_on_c, 11, 86, 84
13, 255264, Note_on_c, 11, 74, 0
13, 255264, Note_on_c, 11, 86, 0
13, 255280, Note_on_c, 11, 86, 84
13, 255280, Note_on_c, 11, 74, 84
13, 255344, Note_on_c, 11, 86, 0
13, 255344, Note_on_c, 11, 74, 0
13, 255360, Note_on_c, 11, 86, 84
13, 255360, Note_on_c, 11, 74, 84
13, 255599, Note_on_c, 11, 86, 0
13, 255599, Note_on_c, 11, 74, 0
13, 258720, Note_on_c, 11, 74, 52
13, 258784, Note_on_c, 11, 74, 0
13, 258800, Note_on_c, 11, 74, 52
13, 258864, Note_on_c, 11, 74, 0
13, 258880, Note_on_c, 11, 74, 52
13, 258944, Note_on_c, 11, 74, 0
13, 258960, Note_on_c, 11, 74, 52
13, 259024, Note_on_c, 11, 74, 0
13, 259040, Note_on_c, 11, 74, 52
13, 259104, Note_on_c, 11, 74, 0
13, 259120, Note_on_c, 11, 74, 52
13, 259184, Note_on_c, 11, 74, 0
13, 259200, Note_on_c, 11, 74, 52
13, 259439, Note_on_c, 11, 74, 0
13, 262560, Note_on_c, 11, 74, 44
13, 262624, Note_on_c, 11, 74, 0
13, 262640, Note_on_c, 11, 74, 44
13, 262704, Note_on_c, 11, 74, 0
13, 262720, Note_on_c, 11, 74, 44
13, 262784, Note_on_c, 11, 74, 0
13, 262800, Note_on_c, 11, 74, 44
13, 262864, Note_on_c, 11, 74, 0
13, 262880, Note_on_c, 11, 74, 44
13, 262944, Note_on_c, 11, 74, 0
13, 262960, Note_on_c, 11, 74, 44
13, 263024, Note_on_c, 11, 74, 0
13, 263040, Note_on_c, 11, 74, 44
13, 263159, Note_on_c, 11, 74, 0
13, 263160, Note_on_c, 11, 75, 44
13, 263259, Note_on_c, 11, 75, 0
13, 263280, Note_on_c, 11, 72, 44
13, 263439, Note_on_c, 11, 72, 0
13, 263520, Note_on_c, 11, 74, 44
13, 263639, Note_on_c, 11, 74, 0
13, 263640, Note_on_c, 11, 75, 44
13, 263739, Note_on_c, 11, 75, 0
13, 263760, Note_on_c, 11, 72, 44
13, 263919, Note_on_c, 11, 72, 0
13, 264000, Note_on_c, 11, 74, 44
13, 264119, Note_on_c, 11, 74, 0
13, 264120, Note_on_c, 11, 75, 44
13, 264219, Note_on_c, 11, 75, 0
13, 264240, Note_on_c, 11, 72, 44
13, 264399, Note_on_c, 11, 72, 0
13, 264480, Note_on_c, 11, 75, 44
13, 264544, Note_on_c, 11, 75, 0
13, 264560, Note_on_c, 11, 75, 44
13, 264624, Note_on_c, 11, 75, 0
13, 264640, Note_on_c, 11, 75, 44
13, 264704, Note_on_c, 11, 75, 0
13, 264720, Note_on_c, 11, 75, 44
13, 264784, Note_on_c, 11, 75, 0
13, 264800, Note_on_c, 11, 75, 44
13, 264864, Note_on_c, 11, 75, 0
13, 264880, Note_on_c, 11, 75, 44
13, 264944, Note_on_c, 11, 75, 0
13, 264960, Note_on_c, 11, 75, 44
13, 265079, Note_on_c, 11, 75, 0
13, 265080, Note_on_c, 11, 77, 44
13, 265179, Note_on_c, 11, 77, 0
13, 265200, Note_on_c, 11, 74, 44
13, 265359, Note_on_c, 11, 74, 0
13, 265440, Note_on_c, 11, 75, 44
13, 265559, Note_on_c, 11, 75, 0
13, 265560, Note_on_c, 11, 77, 44
13, 265659, Note_on_c, 11, 77, 0
13, 265680, Note_on_c, 11, 74, 44
13, 265839, Note_on_c, 11, 74, 0
13, 265920, Note_on_c, 11, 75, 44
13, 266039, Note_on_c, 11, 75, 0
13, 266040, Note_on_c, 11, 77, 44
13, 266139, Note_on_c, 11, 77, 0
13, 266160, Note_on_c, 11, 74, 44
13, 266319, Note_on_c, 11, 74, 0
13, 266400, Note_on_c, 11, 82, 44
13, 266464, Note_on_c, 11, 82, 0
13, 266480, Note_on_c, 11, 82, 44
13, 266544, Note_on_c, 11, 82, 0
13, 266560, Note_on_c, 11, 82, 44
13, 266624, Note_on_c, 11, 82, 0
13, 266640, Note_on_c, 11, 82, 44
13, 266704, Note_on_c, 11, 82, 0
13, 266720, Note_on_c, 11, 82, 44
13, 266784, Note_on_c, 11, 82, 0
13, 266800, Note_on_c, 11, 82, 44
13, 266864, Note_on_c, 11, 82, 0
13, 266880, Note_on_c, 11, 82, 44
13, 266999, Note_on_c, 11, 82, 0
13, 267000, Note_on_c, 11, 84, 44
13, 267099, Note_on_c, 11, 84, 0
13, 267120, Note_on_c, 11, 81, 44
13, 267279, Note_on_c, 11, 81, 0
13, 267360, Note_on_c, 11, 84, 44
13, 267424, Note_on_c, 11, 84, 0
13, 267440, Note_on_c, 11, 84, 44
13, 267504, Note_on_c, 11, 84, 0
13, 267520, Note_on_c, 11, 84, 44
13, 267584, Note_on_c, 11, 84, 0
13, 267600, Note_on_c, 11, 84, 44
13, 267664, Note_on_c, 11, 84, 0
13, 267680, Note_on_c, 11, 84, 44
13, 267744, Note_on_c, 11, 84, 0
13, 267760, Note_on_c, 11, 84, 44
13, 267824, Note_on_c, 11, 84, 0
13, 267840, Note_on_c, 11, 84, 44
13, 267959, Note_on_c, 11, 84, 0
13, 267960, Note_on_c, 11, 86, 44
13, 268059, Note_on_c, 11, 86, 0
13, 268080, Note_on_c, 11, 83, 44
13, 268239, Note_on_c, 11, 83, 0
13, 269280, Note_on_c, 11, 74, 44
13, 269344, Note_on_c, 11, 74, 0
13, 269360, Note_on_c, 11, 74, 44
13, 269424, Note_on_c, 11, 74, 0
13, 269440, Note_on_c, 11, 74, 44
13, 269504, Note_on_c, 11, 74, 0
13, 269520, Note_on_c, 11, 74, 44
13, 269584, Note_on_c, 11, 74, 0
13, 269600, Note_on_c, 11, 74, 44
13, 269664, Note_on_c, 11, 74, 0
13, 269680, Note_on_c, 11, 74, 44
13, 269744, Note_on_c, 11, 74, 0
13, 269760, Note_on_c, 11, 74, 44
13, 269879, Note_on_c, 11, 74, 0
13, 269880, Note_on_c, 11, 76, 44
13, 269979, Note_on_c, 11, 76, 0
13, 270000, Note_on_c, 11, 73, 44
13, 270159, Note_on_c, 11, 73, 0
13, 272160, Note_on_c, 11, 69, 44
13, 272224, Note_on_c, 11, 69, 0
13, 272240, Note_on_c, 11, 69, 44
13, 272304, Note_on_c, 11, 69, 0
13, 272320, Note_on_c, 11, 69, 44
13, 272384, Note_on_c, 11, 69, 0
13, 272400, Note_on_c, 11, 69, 44
13, 272464, Note_on_c, 11, 69, 0
13, 272480, Note_on_c, 11, 69, 44
13, 272544, Note_on_c, 11, 69, 0
13, 272560, Note_on_c, 11, 69, 44
13, 272624, Note_on_c, 11, 69, 0
13, 272640, Note_on_c, 11, 69, 44
13, 272879, Note_on_c, 11, 69, 0
13, 273120, Note_on_c, 11, 81, 44
13, 273184, Note_on_c, 11, 81, 0
13, 273200, Note_on_c, 11, 81, 44
13, 273264, Note_on_c, 11, 81, 0
13, 273280, Note_on_c, 11, 81, 44
13, 273344, Note_on_c, 11, 81, 0
13, 273360, Note_on_c, 11, 81, 44
13, 273424, Note_on_c, 11, 81, 0
13, 273440, Note_on_c, 11, 81, 44
13, 273504, Note_on_c, 11, 81, 0
13, 273520, Note_on_c, 11, 81, 44
13, 273584, Note_on_c, 11, 81, 0
13, 273600, Note_on_c, 11, 81, 44
13, 273839, Note_on_c, 11, 81, 0
13, 274080, Note_on_c, 11, 81, 44
13, 274144, Note_on_c, 11, 81, 0
13, 274160, Note_on_c, 11, 81, 44
13, 274224, Note_on_c, 11, 81, 0
13, 274240, Note_on_c, 11, 81, 44
13, 274304, Note_on_c, 11, 81, 0
13, 274320, Note_on_c, 11, 81, 44
13, 274384, Note_on_c, 11, 81, 0
13, 274400, Note_on_c, 11, 81, 44
13, 274464, Note_on_c, 11, 81, 0
13, 274480, Note_on_c, 11, 81, 44
13, 274544, Note_on_c, 11, 81, 0
13, 274560, Note_on_c, 11, 81, 44
13, 274799, Note_on_c, 11, 81, 0
13, 279840, Note_on_c, 11, 69, 44
13, 279904, Note_on_c, 11, 69, 0
13, 279920, Note_on_c, 11, 69, 44
13, 279984, Note_on_c, 11, 69, 0
13, 280000, Note_on_c, 11, 69, 44
13, 280064, Note_on_c, 11, 69, 0
13, 280080, Note_on_c, 11, 69, 44
13, 280144, Note_on_c, 11, 69, 0
13, 280160, Note_on_c, 11, 69, 44
13, 280224, Note_on_c, 11, 69, 0
13, 280240, Note_on_c, 11, 69, 44
13, 280304, Note_on_c, 11, 69, 0
13, 280320, Note_on_c, 11, 69, 44
13, 280559, Note_on_c, 11, 69, 0
13, 280800, Note_on_c, 11, 81, 44
13, 280864, Note_on_c, 11, 81, 0
13, 280880, Note_on_c, 11, 81, 44
13, 280944, Note_on_c, 11, 81, 0
13, 280960, Note_on_c, 11, 81, 44
13, 281024, Note_on_c, 11, 81, 0
13, 281040, Note_on_c, 11, 81, 44
13, 281104, Note_on_c, 11, 81, 0
13, 281120, Note_on_c, 11, 81, 44
13, 281184, Note_on_c, 11, 81, 0
13, 281200, Note_on_c, 11, 81, 44
13, 281264, Note_on_c, 11, 81, 0
13, 281280, Note_on_c, 11, 81, 44
13, 281519, Note_on_c, 11, 81, 0
13, 281760, Note_on_c, 11, 81, 44
13, 281824, Note_on_c, 11, 81, 0
13, 281840, Note_on_c, 11, 81, 44
13, 281904, Note_on_c, 11, 81, 0
13, 281920, Note_on_c, 11, 81, 44
13, 281984, Note_on_c, 11, 81, 0
13, 282000, Note_on_c, 11, 81, 44
13, 282064, Note_on_c, 11, 81, 0
13, 282080, Note_on_c, 11, 81, 44
13, 282144, Note_on_c, 11, 81, 0
13, 282160, Note_on_c, 11, 81, 44
13, 282224, Note_on_c, 11, 81, 0
13, 282240, Note_on_c, 11, 77, 44
13, 282479, Note_on_c, 11, 77, 0
13, 287520, Note_on_c, 11, 77, 44
13, 287584, Note_on_c, 11, 77, 0
13, 287600, Note_on_c, 11, 77, 44
13, 287664, Note_on_c, 11, 77, 0
13, 287680, Note_on_c, 11, 77, 44
13, 287744, Note_on_c, 11, 77, 0
13, 287760, Note_on_c, 11, 77, 44
13, 287824, Note_on_c, 11, 77, 0
13, 287840, Note_on_c, 11, 77, 44
13, 287904, Note_on_c, 11, 77, 0
13, 287920, Note_on_c, 11, 77, 44
13, 287984, Note_on_c, 11, 77, 0
13, 288000, Note_on_c, 11, 77, 44
13, 288239, Note_on_c, 11, 77, 0
13, 291360, Note_on_c, 11, 79, 44
13, 291424, Note_on_c, 11, 79, 0
13, 291440, Note_on_c, 11, 79, 44
13, 291504, Note_on_c, 11, 79, 0
13, 291520, Note_on_c, 11, 79, 44
13, 291584, Note_on_c, 11, 79, 0
13, 291600, Note_on_c, 11, 79, 44
13, 291664, Note_on_c, 11, 79, 0
13, 291680, Note_on_c, 11, 79, 44
13, 291744, Note_on_c, 11, 79, 0
13, 291760, Note_on_c, 11, 79, 44
13, 291824, Note_on_c, 11, 79, 0
13, 291840, Note_on_c, 11, 79, 44
13, 292079, Note_on_c, 11, 79, 0
13, 293760, Control_c, 11, 11, 64
13, 294240, Note_on_c, 11, 81, 76
13, 294240, Control_c, 11, 11, 64
13, 294550, Control_c, 11, 11, 67
13, 294860, Control_c, 11, 11, 69
13, 295170, Control_c, 11, 11, 72
13, 295179, Note_on_c, 11, 81, 0
13, 295200, Note_on_c, 11, 79, 76
13, 295480, Control_c, 11, 11, 75
13, 295599, Note_on_c, 11, 79, 0
13, 295680, Note_on_c, 11, 77, 76
13, 295790, Control_c, 11, 11, 77
13, 296079, Note_on_c, 11, 77, 0
13, 296100, Control_c, 11, 11, 80
13, 296160, Note_on_c, 11, 75, 76
13, 296410, Control_c, 11, 11, 82
13, 296559, Note_on_c, 11, 75, 0
13, 296640, Note_on_c, 11, 74, 76
13, 296720, Control_c, 11, 11, 85
13, 297030, Control_c, 11, 11, 88
13, 297039, Note_on_c, 11, 74, 0
13, 297120, Note_on_c, 11, 72, 76
13, 297340, Control_c, 11, 11, 90
13, 297519, Note_on_c, 11, 72, 0
13, 297600, Note_on_c, 11, 71, 76
13, 297650, Control_c, 11, 11, 93
13, 297960, Control_c, 11, 11, 96
13, 297999, Note_on_c, 11, 71, 0
13, 298080, Note_on_c, 11, 79, 76
13, 298270, Control_c, 11, 11, 98
13, 298580, Control_c, 11, 11, 101
13, 298890, Control_c, 11, 11, 103
13, 299019, Note_on_c, 11, 79, 0
13, 299040, Note_on_c, 11, 77, 76
13, 299200, Control_c, 11, 11, 106
13, 299439, Note_on_c, 11, 77, 0
13, 299510, Control_c, 11, 11, 109
13, 299520, Note_on_c, 11, 75, 76
13, 299820, Control_c, 11, 11, 111
13, 299919, Note_on_c, 11, 75, 0
13, 300000, Note_on_c, 11, 74, 76
13, 300130, Control_c, 11, 11, 114
13, 300399, Note_on_c, 11, 74, 0
13, 300440, Control_c, 11, 11, 117
13, 300480, Note_on_c, 11, 72, 76
13, 300750, Control_c, 11, 11, 119
13, 300879, Note_on_c, 11, 72, 0
13, 300960, Note_on_c, 11, 70, 76
13, 301060, Control_c, 11, 11, 122
13, 301359, Note_on_c, 11, 70, 0
13, 301370, Control_c, 11, 11, 124
13, 301440, Note_on_c, 11, 69, 76
13, 301680, Control_c, 11, 11, 127
13, 301839, Note_on_c, 11, 69, 0
13, 301920, Note_on_c, 11, 77, 76
13, 302319, Note_on_c, 11, 77, 0
13, 302400, Note_on_c, 11, 79, 76
13, 302799, Note_on_c, 11, 79, 0
13, 302880, Note_on_c, 11, 81, 76
13, 303279, Note_on_c, 11, 81, 0
13, 303360, Note_on_c, 11, 82, 76
13, 303759, Note_on_c, 11, 82, 0
13, 303840, Note_on_c, 11, 84, 76
13, 304239, Note_on_c, 11, 84, 0
13, 304320, Note_on_c, 11, 85, 76
13, 304719, Note_on_c, 11, 85, 0
13, 304800, Note_on_c, 11, 86, 76
13, 305199, Note_on_c, 11, 86, 0
13, 305280, Note_on_c, 11, 87, 76
13, 305679, Note_on_c, 11, 87, 0
13, 305760, Note_on_c, 11, 75, 76
13, 306159, Note_on_c, 11, 75, 0
13, 306240, Note_on_c, 11, 77, 76
13, 306639, Note_on_c, 11, 77, 0
13, 306720, Note_on_c, 11, 79, 76
13, 307119, Note_on_c, 11, 79, 0
13, 307200, Note_on_c, 11, 80, 76
13, 307599, Note_on_c, 11, 80, 0
13, 307680, Note_on_c, 11, 82, 76
13, 308079, Note_on_c, 11, 82, 0
13, 308160, Note_on_c, 11, 84, 76
13, 308559, Note_on_c, 11, 84, 0
13, 308640, Note_on_c, 11, 84, 76
13, 309039, Note_on_c, 11, 84, 0
13, 309120, Note_on_c, 11, 85, 76
13, 309519, Note_on_c, 11, 85, 0
13, 309600, Note_on_c, 11, 85, 76
13, 310539, Note_on_c, 11, 85, 0
13, 310560, Note_on_c, 11, 84, 76
13, 310959, Note_on_c, 11, 84, 0
13, 311040, Note_on_c, 11, 82, 76
13, 311439, Note_on_c, 11, 82, 0
13, 311520, Note_on_c, 11, 80, 76
13, 311919, Note_on_c, 11, 80, 0
13, 312000, Note_on_c, 11, 79, 76
13, 312399, Note_on_c, 11, 79, 0
13, 312480, Note_on_c, 11, 77, 76
13, 312879, Note_on_c, 11, 77, 0
13, 312960, Note_on_c, 11, 76, 76
13, 313359, Note_on_c, 11, 76, 0
13, 313440, Note_on_c, 11, 84, 76
13, 314379, Note_on_c, 11, 84, 0
13, 314400, Note_on_c, 11, 82, 76
13, 314799, Note_on_c, 11, 82, 0
13, 314880, Note_on_c, 11, 80, 76
13, 315279, Note_on_c, 11, 80, 0
13, 315360, Note_on_c, 11, 79, 76
13, 315759, Note_on_c, 11, 79, 0
13, 315840, Note_on_c, 11, 77, 76
13, 316239, Note_on_c, 11, 77, 0
13, 316320, Note_on_c, 11, 75, 76
13, 316719, Note_on_c, 11, 75, 0
13, 316800, Note_on_c, 11, 74, 76
13, 317199, Note_on_c, 11, 74, 0
13, 317280, Note_on_c, 11, 74, 76
13, 317679, Note_on_c, 11, 74, 0
13, 317760, Note_on_c, 11, 75, 76
13, 318159, Note_on_c, 11, 75, 0
13, 318240, Note_on_c, 11, 77, 76
13, 318639, Note_on_c, 11, 77, 0
13, 318720, Note_on_c, 11, 79, 76
13, 319119, Note_on_c, 11, 79, 0
13, 319200, Note_on_c, 11, 77, 76
13, 319599, Note_on_c, 11, 77, 0
13, 319680, Note_on_c, 11, 75, 76
13, 320079, Note_on_c, 11, 75, 0
13, 320160, Note_on_c, 11, 74, 76
13, 320559, Note_on_c, 11, 74, 0
13, 320640, Note_on_c, 11, 73, 76
13, 321039, Note_on_c, 11, 73, 0
13, 321120, Note_on_c, 11, 73, 76
13, 321519, Note_on_c, 11, 73, 0
13, 321600, Note_on_c, 11, 74, 76
13, 321999, Note_on_c, 11, 74, 0
13, 322080, Note_on_c, 11, 76, 76
13, 322479, Note_on_c, 11, 76, 0
13, 322560, Note_on_c, 11, 77, 76
13, 322779, Note_on_c, 11, 77, 0
13, 322800, Note_on_c, 11, 76, 76
13, 323019, Note_on_c, 11, 76, 0
13, 323040, Note_on_c, 11, 74, 76
13, 323259, Note_on_c, 11, 74, 0
13, 323280, Note_on_c, 11, 72, 76
13, 323499, Note_on_c, 11, 72, 0
13, 323520, Note_on_c, 11, 70, 76
13, 323739, Note_on_c, 11, 70, 0
13, 323760, Note_on_c, 11, 71, 76
13, 323979, Note_on_c, 11, 71, 0
13, 324000, Note_on_c, 11, 72, 76
13, 324219, Note_on_c, 11, 72, 0
13, 324240, Note_on_c, 11, 74, 76
13, 324459, Note_on_c, 11, 74, 0
13, 324480, Note_on_c, 11, 75, 76
13, 324699, Note_on_c, 11, 75, 0
13, 324720, Note_on_c, 11, 74, 76
13, 324939, Note_on_c, 11, 74, 0
13, 324960, Note_on_c, 11, 72, 76
13, 325179, Note_on_c, 11, 72, 0
13, 325200, Note_on_c, 11, 70, 76
13, 325419, Note_on_c, 11, 70, 0
13, 325440, Note_on_c, 11, 69, 76
13, 325659, Note_on_c, 11, 69, 0
13, 325680, Note_on_c, 11, 69, 76
13, 325899, Note_on_c, 11, 69, 0
13, 325920, Note_on_c, 11, 70, 76
13, 326139, Note_on_c, 11, 70, 0
13, 326160, Note_on_c, 11, 72, 76
13, 326379, Note_on_c, 11, 72, 0
13, 326400, Note_on_c, 11, 74, 76
13, 326619, Note_on_c, 11, 74, 0
13, 326640, Note_on_c, 11, 74, 76
13, 326859, Note_on_c, 11, 74, 0
13, 326880, Note_on_c, 11, 76, 76
13, 327099, Note_on_c, 11, 76, 0
13, 327120, Note_on_c, 11, 77, 76
13, 327339, Note_on_c, 11, 77, 0
13, 327360, Note_on_c, 11, 79, 76
13, 327579, Note_on_c, 11, 79, 0
13, 327600, Note_on_c, 11, 80, 76
13, 327819, Note_on_c, 11, 80, 0
13, 327840, Note_on_c, 11, 81, 76
13, 328059, Note_on_c, 11, 81, 0
13, 328080, Note_on_c, 11, 81, 76
13, 328299, Note_on_c, 11, 81, 0
13, 328320, Note_on_c, 11, 81, 76
13, 328384, Note_on_c, 11, 81, 0
13, 328400, Note_on_c, 11, 81, 76
13, 328464, Note_on_c, 11, 81, 0
13, 328480, Note_on_c, 11, 81, 76
13, 328544, Note_on_c, 11, 81, 0
13, 328560, Note_on_c, 11, 81, 76
13, 328624, Note_on_c, 11, 81, 0
13, 328640, Note_on_c, 11, 81, 76
13, 328704, Note_on_c, 11, 81, 0
13, 328720, Note_on_c, 11, 81, 76
13, 328784, Note_on_c, 11, 81, 0
13, 328800, Note_on_c, 11, 81, 76
13, 328864, Note_on_c, 11, 81, 0
13, 328880, Note_on_c, 11, 81, 76
13, 328944, Note_on_c, 11, 81, 0
13, 328960, Note_on_c, 11, 81, 76
13, 329024, Note_on_c, 11, 81, 0
13, 329040, Note_on_c, 11, 81, 76
13, 329104, Note_on_c, 11, 81, 0
13, 329120, Note_on_c, 11, 81, 76
13, 329184, Note_on_c, 11, 81, 0
13, 329200, Note_on_c, 11, 81, 76
13, 329264, Note_on_c, 11, 81, 0
13, 329280, Note_on_c, 11, 81, 76
13, 329344, Note_on_c, 11, 81, 0
13, 329360, Note_on_c, 11, 81, 76
13, 329424, Note_on_c, 11, 81, 0
13, 329440, Note_on_c, 11, 81, 76
13, 329504, Note_on_c, 11, 81, 0
13, 329520, Note_on_c, 11, 81, 76
13, 329584, Note_on_c, 11, 81, 0
13, 329600, Note_on_c, 11, 81, 76
13, 329664, Note_on_c, 11, 81, 0
13, 329680, Note_on_c, 11, 81, 76
13, 329744, Note_on_c, 11, 81, 0
13, 329760, Note_on_c, 11, 81, 76
13, 329824, Note_on_c, 11, 81, 0
13, 329840, Note_on_c, 11, 81, 76
13, 329904, Note_on_c, 11, 81, 0
13, 329920, Note_on_c, 11, 81, 76
13, 329984, Note_on_c, 11, 81, 0
13, 330000, Note_on_c, 11, 81, 76
13, 330064, Note_on_c, 11, 81, 0
13, 330080, Note_on_c, 11, 81, 76
13, 330144, Note_on_c, 11, 81, 0
13, 330160, Note_on_c, 11, 81, 76
13, 330224, Note_on_c, 11, 81, 0
13, 330240, Note_on_c, 11, 81, 76
13, 330304, Note_on_c, 11, 81, 0
13, 330320, Note_on_c, 11, 81, 76
13, 330384, Note_on_c, 11, 81, 0
13, 330400, Note_on_c, 11, 81, 76
13, 330464, Note_on_c, 11, 81, 0
13, 330480, Note_on_c, 11, 81, 76
13, 330544, Note_on_c, 11, 81, 0
13, 330560, Note_on_c, 11, 81, 76
13, 330624, Note_on_c, 11, 81, 0
13, 330640, Note_on_c, 11, 81, 76
13, 330704, Note_on_c, 11, 81, 0
13, 330720, Note_on_c, 11, 81, 76
13, 330784, Note_on_c, 11, 81, 0
13, 330800, Note_on_c, 11, 81, 76
13, 330864, Note_on_c, 11, 81, 0
13, 330880, Note_on_c, 11, 81, 76
13, 330944, Note_on_c, 11, 81, 0
13, 330960, Note_on_c, 11, 81, 76
13, 331024, Note_on_c, 11, 81, 0
13, 331040, Note_on_c, 11, 81, 76
13, 331104, Note_on_c, 11, 81, 0
13, 331120, Note_on_c, 11, 81, 76
13, 331184, Note_on_c, 11, 81, 0
13, 331200, Note_on_c, 11, 81, 76
13, 331264, Note_on_c, 11, 81, 0
13, 331280, Note_on_c, 11, 81, 76
13, 331344, Note_on_c, 11, 81, 0
13, 331360, Note_on_c, 11, 81, 76
13, 331424, Note_on_c, 11, 81, 0
13, 331440, Note_on_c, 11, 81, 76
13, 331504, Note_on_c, 11, 81, 0
13, 331520, Note_on_c, 11, 81, 76
13, 331584, Note_on_c, 11, 81, 0
13, 331600, Note_on_c, 11, 81, 76
13, 331664, Note_on_c, 11, 81, 0
13, 331680, Note_on_c, 11, 78, 84
13, 331744, Note_on_c, 11, 78, 0
13, 331760, Note_on_c, 11, 78, 84
13, 331824, Note_on_c, 11, 78, 0
13, 331840, Note_on_c, 11, 78, 84
13, 331904, Note_on_c, 11, 78, 0
13, 331920, Note_on_c, 11, 78, 84
13, 331984, Note_on_c, 11, 78, 0
13, 332000, Note_on_c, 11, 78, 84
13, 332064, Note_on_c, 11, 78, 0
13, 332080, Note_on_c, 11, 78, 84
13, 332144, Note_on_c, 11, 78, 0
13, 332160, Note_on_c, 11, 78, 84
13, 332279, Note_on_c, 11, 78, 0
13, 332280, Note_on_c, 11, 79, 84
13, 332379, Note_on_c, 11, 79, 0
13, 332400, Note_on_c, 11, 76, 84
13, 332559, Note_on_c, 11, 76, 0
13, 332640, Note_on_c, 11, 78, 84
13, 332759, Note_on_c, 11, 78, 0
13, 332760, Note_on_c, 11, 79, 84
13, 332859, Note_on_c, 11, 79, 0
13, 332880, Note_on_c, 11, 76, 84
13, 333039, Note_on_c, 11, 76, 0
13, 333120, Note_on_c, 11, 78, 84
13, 333239, Note_on_c, 11, 78, 0
13, 333240, Note_on_c, 11, 79, 84
13, 333339, Note_on_c, 11, 79, 0
13, 333360, Note_on_c, 11, 76, 84
13, 333519, Note_on_c, 11, 76, 0
13, 333600, Note_on_c, 11, 79, 84
13, 333664, Note_on_c, 11, 79, 0
13, 333680, Note_on_c, 11, 79, 84
13, 333744, Note_on_c, 11, 79, 0
13, 333760, Note_on_c, 11, 79, 84
13, 333824, Note_on_c, 11, 79, 0
13, 333840, Note_on_c, 11, 79, 84
13, 333904, Note_on_c, 11, 79, 0
13, 333920, Note_on_c, 11, 79, 84
13, 333984, Note_on_c, 11, 79, 0
13, 334000, Note_on_c, 11, 79, 84
13, 334064, Note_on_c, 11, 79, 0
13, 334080, Note_on_c, 11, 79, 84
13, 334199, Note_on_c, 11, 79, 0
13, 334200, Note_on_c, 11, 81, 84
13, 334299, Note_on_c, 11, 81, 0
13, 334320, Note_on_c, 11, 78, 84
13, 334479, Note_on_c, 11, 78, 0
13, 334560, Note_on_c, 11, 79, 84
13, 334679, Note_on_c, 11, 79, 0
13, 334680, Note_on_c, 11, 81, 84
13, 334779, Note_on_c, 11, 81, 0
13, 334800, Note_on_c, 11, 78, 84
13, 334959, Note_on_c, 11, 78, 0
13, 335040, Note_on_c, 11, 79, 84
13, 335159, Note_on_c, 11, 79, 0
13, 335160, Note_on_c, 11, 81, 84
13, 335259, Note_on_c, 11, 81, 0
13, 335280, Note_on_c, 11, 78, 84
13, 335439, Note_on_c, 11, 78, 0
13, 335520, Note_on_c, 11, 69, 52
13, 335679, Note_on_c, 11, 69, 0
13, 335760, Note_on_c, 11, 81, 52
13, 335919, Note_on_c, 11, 81, 0
13, 336000, Note_on_c, 11, 69, 52
13, 336159, Note_on_c, 11, 69, 0
13, 336240, Note_on_c, 11, 81, 52
13, 336399, Note_on_c, 11, 81, 0
13, 336480, Note_on_c, 11, 69, 52
13, 336639, Note_on_c, 11, 69, 0
13, 336720, Note_on_c, 11, 81, 52
13, 336879, Note_on_c, 11, 81, 0
13, 336960, Note_on_c, 11, 69, 52
13, 337119, Note_on_c, 11, 69, 0
13, 337200, Note_on_c, 11, 81, 52
13, 337359, Note_on_c, 11, 81, 0
13, 341280, Note_on_c, 11, 69, 44
13, 341344, Note_on_c, 11, 69, 0
13, 341360, Note_on_c, 11, 69, 44
13, 341424, Note_on_c, 11, 69, 0
13, 341440, Note_on_c, 11, 69, 44
13, 341504, Note_on_c, 11, 69, 0
13, 341520, Note_on_c, 11, 69, 44
13, 341584, Note_on_c, 11, 69, 0
13, 341600, Note_on_c, 11, 69, 44
13, 341664, Note_on_c, 11, 69, 0
13, 341680, Note_on_c, 11, 69, 44
13, 341744, Note_on_c, 11, 69, 0
13, 341760, Note_on_c, 11, 69, 44
13, 341879, Note_on_c, 11, 69, 0
13, 341880, Note_on_c, 11, 70, 44
13, 341979, Note_on_c, 11, 70, 0
13, 342000, Note_on_c, 11, 67, 44
13, 342159, Note_on_c, 11, 67, 0
13, 342240, Note_on_c, 11, 69, 44
13, 342359, Note_on_c, 11, 69, 0
13, 342360, Note_on_c, 11, 70, 44
13, 342459, Note_on_c, 11, 70, 0
13, 342480, Note_on_c, 11, 67, 44
13, 342639, Note_on_c, 11, 67, 0
13, 342720, Note_on_c, 11, 69, 44
13, 342839, Note_on_c, 11, 69, 0
13, 342840, Note_on_c, 11, 70, 44
13, 342939, Note_on_c, 11, 70, 0
13, 342960, Note_on_c, 11, 67, 44
13, 343119, Note_on_c, 11, 67, 0
13, 343200, Note_on_c, 11, 70, 44
13, 343264, Note_on_c, 11, 70, 0
13, 343280, Note_on_c, 11, 70, 44
13, 343344, Note_on_c, 11, 70, 0
13, 343360, Note_on_c, 11, 70, 44
13, 343424, Note_on_c, 11, 70, 0
13, 343440, Note_on_c, 11, 70, 44
13, 343504, Note_on_c, 11, 70, 0
13, 343520, Note_on_c, 11, 70, 44
13, 343584, Note_on_c, 11, 70, 0
13, 343600, Note_on_c, 11, 70, 44
13, 343664, Note_on_c, 11, 70, 0
13, 343680, Note_on_c, 11, 70, 44
13, 343799, Note_on_c, 11, 70, 0
13, 343800, Note_on_c, 11, 72, 44
13, 343899, Note_on_c, 11, 72, 0
13, 343920, Note_on_c, 11, 69, 44
13, 344079, Note_on_c, 11, 69, 0
13, 344160, Note_on_c, 11, 70, 44
13, 344279, Note_on_c, 11, 70, 0
13, 344280, Note_on_c, 11, 72, 44
13, 344379, Note_on_c, 11, 72, 0
13, 344400, Note_on_c, 11, 69, 44
13, 344559, Note_on_c, 11, 69, 0
13, 344640, Note_on_c, 11, 70, 44
13, 344759, Note_on_c, 11, 70, 0
13, 344760, Note_on_c, 11, 72, 44
13, 344859, Note_on_c, 11, 72, 0
13, 344880, Note_on_c, 11, 69, 44
13, 345039, Note_on_c, 11, 69, 0
13, 345120, Note_on_c, 11, 65, 44
13, 346079, Note_on_c, 11, 65, 0
13, 346080, Note_on_c, 11, 66, 44
13, 346559, Note_on_c, 11, 66, 0
13, 346560, Note_on_c, 11, 67, 44
13, 347279, Note_on_c, 11, 67, 0
13, 347280, Note_on_c, 11, 66, 44
13, 347519, Note_on_c, 11, 66, 0
13, 347520, Note_on_c, 11, 67, 44
13, 348239, Note_on_c, 11, 67, 0
13, 348240, Note_on_c, 11, 69, 44
13, 348479, Note_on_c, 11, 69, 0
13, 348480, Note_on_c, 11, 70, 44
13, 348959, Note_on_c, 11, 70, 0
13, 348960, Note_on_c, 11, 69, 44
13, 349439, Note_on_c, 11, 69, 0
13, 349440, Note_on_c, 11, 55, 44
13, 349440, Note_on_c, 11, 67, 44
13, 349919, Note_on_c, 11, 67, 0
13, 349920, Note_on_c, 11, 65, 44
13, 350399, Note_on_c, 11, 55, 0
13, 350399, Note_on_c, 11, 65, 0
13, 350400, Note_on_c, 11, 55, 44
13, 350400, Note_on_c, 11, 64, 44
13, 350859, Note_on_c, 11, 55, 0
13, 350859, Note_on_c, 11, 64, 0
13, 350880, Note_on_c, 11, 74, 44
13, 350944, Note_on_c, 11, 74, 0
13, 350960, Note_on_c, 11, 74, 44
13, 351024, Note_on_c, 11, 74, 0
13, 351040, Note_on_c, 11, 74, 44
13, 351104, Note_on_c, 11, 74, 0
13, 351120, Note_on_c, 11, 74, 44
13, 351184, Note_on_c, 11, 74, 0
13, 351200, Note_on_c, 11, 74, 44
13, 351264, Note_on_c, 11, 74, 0
13, 351280, Note_on_c, 11, 74, 44
13, 351344, Note_on_c, 11, 74, 0
13, 351360, Note_on_c, 11, 74, 44
13, 351479, Note_on_c, 11, 74, 0
13, 351480, Note_on_c, 11, 76, 44
13, 351579, Note_on_c, 11, 76, 0
13, 351600, Note_on_c, 11, 72, 44
13, 351759, Note_on_c, 11, 72, 0
13, 351840, Note_on_c, 11, 55, 44
13, 351840, Note_on_c, 11, 65, 44
13, 352319, Note_on_c, 11, 65, 0
13, 352320, Note_on_c, 11, 64, 44
13, 352779, Note_on_c, 11, 55, 0
13, 352779, Note_on_c, 11, 64, 0
13, 352800, Note_on_c, 11, 74, 44
13, 352864, Note_on_c, 11, 74, 0
13, 352880, Note_on_c, 11, 74, 44
13, 352944, Note_on_c, 11, 74, 0
13, 352960, Note_on_c, 11, 74, 44
13, 353024, Note_on_c, 11, 74, 0
13, 353040, Note_on_c, 11, 74, 44
13, 353104, Note_on_c, 11, 74, 0
13, 353120, Note_on_c, 11, 74, 43
13, 353184, Note_on_c, 11, 74, 0
13, 353200, Note_on_c, 11, 74, 43
13, 353264, Note_on_c, 11, 74, 0
13, 353280, Note_on_c, 11, 74, 43
13, 353399, Note_on_c, 11, 74, 0
13, 353400, Note_on_c, 11, 76, 42
13, 353499, Note_on_c, 11, 76, 0
13, 353520, Note_on_c, 11, 72, 42
13, 353679, Note_on_c, 11, 72, 0
13, 353760, Note_on_c, 11, 71, 41
13, 353879, Note_on_c, 11, 71, 0
13, 353880, Note_on_c, 11, 72, 41
13, 353979, Note_on_c, 11, 72, 0
13, 354000, Note_on_c, 11, 67, 40
13, 354159, Note_on_c, 11, 67, 0
13, 354240, Note_on_c, 11, 65, 40
13, 354359, Note_on_c, 11, 65, 0
13, 354360, Note_on_c, 11, 67, 39
13, 354459, Note_on_c, 11, 67, 0
13, 354480, Note_on_c, 11, 64, 39
13, 354639, Note_on_c, 11, 64, 0
13, 354720, Note_on_c, 11, 62, 38
13, 354839, Note_on_c, 11, 62, 0
13, 354840, Note_on_c, 11, 64, 38
13, 354939, Note_on_c, 11, 64, 0
13, 354960, Note_on_c, 11, 60, 37
13, 355119, Note_on_c, 11, 60, 0
13, 355200, Note_on_c, 11, 62, 44
13, 355319, Note_on_c, 11, 62, 0
13, 355320, Note_on_c, 11, 64, 44
13, 355419, Note_on_c, 11, 64, 0
13, 355440, Note_on_c, 11, 60, 44
13, 355599, Note_on_c, 11, 60, 0
13, 356160, Note_on_c, 11, 62, 44
13, 356279, Note_on_c, 11, 62, 0
13, 356280, Note_on_c, 11, 64, 44
13, 356379, Note_on_c, 11, 64, 0
13, 356400, Note_on_c, 11, 60, 44
13, 356559, Note_on_c, 11, 60, 0
13, 357120, Note_on_c, 11, 62, 44
13, 357239, Note_on_c, 11, 62, 0
13, 357240, Note_on_c, 11, 64, 44
13, 357339, Note_on_c, 11, 64, 0
13, 357360, Note_on_c, 11, 60, 44
13, 357519, Note_on_c, 11, 60, 0
13, 357600, Note_on_c, 11, 61, 84
13, 358539, Note_on_c, 11, 61, 0
13, 358560, Note_on_c, 11, 65, 44
13, 358624, Note_on_c, 11, 65, 0
13, 358640, Note_on_c, 11, 65, 44
13, 358704, Note_on_c, 11, 65, 0
13, 358720, Note_on_c, 11, 65, 44
13, 358784, Note_on_c, 11, 65, 0
13, 358800, Note_on_c, 11, 65, 44
13, 358864, Note_on_c, 11, 65, 0
13, 358880, Note_on_c, 11, 65, 44
13, 358944, Note_on_c, 11, 65, 0
13, 358960, Note_on_c, 11, 65, 44
13, 359024, Note_on_c, 11, 65, 0
13, 359040, Note_on_c, 11, 65, 44
13, 359159, Note_on_c, 11, 65, 0
13, 359160, Note_on_c, 11, 66, 44
13, 359259, Note_on_c, 11, 66, 0
13, 359280, Note_on_c, 11, 63, 44
13, 359439, Note_on_c, 11, 63, 0
13, 359520, Note_on_c, 11, 61, 84
13, 360459, Note_on_c, 11, 61, 0
13, 360480, Note_on_c, 11, 64, 44
13, 360544, Note_on_c, 11, 64, 0
13, 360560, Note_on_c, 11, 64, 44
13, 360624, Note_on_c, 11, 64, 0
13, 360640, Note_on_c, 11, 64, 44
13, 360704, Note_on_c, 11, 64, 0
13, 360720, Note_on_c, 11, 64, 44
13, 360784, Note_on_c, 11, 64, 0
13, 360800, Note_on_c, 11, 64, 44
13, 360864, Note_on_c, 11, 64, 0
13, 360880, Note_on_c, 11, 64, 44
13, 360944, Note_on_c, 11, 64, 0
13, 360960, Note_on_c, 11, 64, 44
13, 361079, Note_on_c, 11, 64, 0
13, 361080, Note_on_c, 11, 66, 44
13, 361179, Note_on_c, 11, 66, 0
13, 361200, Note_on_c, 11, 63, 44
13, 361359, Note_on_c, 11, 63, 0
13, 361440, Note_on_c, 11, 61, 84
13, 362379, Note_on_c, 11, 61, 0
13, 362400, Note_on_c, 11, 61, 84
13, 363339, Note_on_c, 11, 61, 0
13, 363360, Note_on_c, 11, 61, 84
13, 364299, Note_on_c, 11, 61, 0
13, 364320, Note_on_c, 11, 81, 84
13, 364384, Note_on_c, 11, 81, 0
13, 364400, Note_on_c, 11, 81, 84
13, 364464, Note_on_c, 11, 81, 0
13, 364480, Note_on_c, 11, 81, 84
13, 364544, Note_on_c, 11, 81, 0
13, 364560, Note_on_c, 11, 81, 84
13, 364624, Note_on_c, 11, 81, 0
13, 364640, Note_on_c, 11, 81, 84
13, 364704, Note_on_c, 11, 81, 0
13, 364720, Note_on_c, 11, 81, 84
13, 364784, Note_on_c, 11, 81, 0
13, 364800, Note_on_c, 11, 81, 84
13, 364919, Note_on_c, 11, 81, 0
13, 364920, Note_on_c, 11, 83, 84
13, 365019, Note_on_c, 11, 83, 0
13, 365040, Note_on_c, 11, 80, 84
13, 365199, Note_on_c, 11, 80, 0
13, 365280, Note_on_c, 11, 81, 84
13, 365399, Note_on_c, 11, 81, 0
13, 365400, Note_on_c, 11, 83, 84
13, 365499, Note_on_c, 11, 83, 0
13, 365520, Note_on_c, 11, 80, 84
13, 365679, Note_on_c, 11, 80, 0
13, 365760, Note_on_c, 11, 81, 84
13, 365879, Note_on_c, 11, 81, 0
13, 365880, Note_on_c, 11, 83, 84
13, 365979, Note_on_c, 11, 83, 0
13, 366000, Note_on_c, 11, 80, 84
13, 366159, Note_on_c, 11, 80, 0
13, 366240, Note_on_c, 11, 83, 84
13, 366304, Note_on_c, 11, 83, 0
13, 366320, Note_on_c, 11, 83, 84
13, 366384, Note_on_c, 11, 83, 0
13, 366400, Note_on_c, 11, 83, 84
13, 366464, Note_on_c, 11, 83, 0
13, 366480, Note_on_c, 11, 83, 84
13, 366544, Note_on_c, 11, 83, 0
13, 366560, Note_on_c, 11, 83, 84
13, 366624, Note_on_c, 11, 83, 0
13, 366640, Note_on_c, 11, 83, 84
13, 366704, Note_on_c, 11, 83, 0
13, 366720, Note_on_c, 11, 83, 84
13, 366839, Note_on_c, 11, 83, 0
13, 366840, Note_on_c, 11, 85, 84
13, 366939, Note_on_c, 11, 85, 0
13, 366960, Note_on_c, 11, 81, 84
13, 367119, Note_on_c, 11, 81, 0
13, 367200, Note_on_c, 11, 83, 84
13, 367319, Note_on_c, 11, 83, 0
13, 367320, Note_on_c, 11, 85, 84
13, 367419, Note_on_c, 11, 85, 0
13, 367440, Note_on_c, 11, 81, 84
13, 367599, Note_on_c, 11, 81, 0
13, 367680, Note_on_c, 11, 83, 84
13, 367799, Note_on_c, 11, 83, 0
13, 367800, Note_on_c, 11, 85, 84
13, 367899, Note_on_c, 11, 85, 0
13, 367920, Note_on_c, 11, 81, 84
13, 368079, Note_on_c, 11, 81, 0
13, 368160, Note_on_c, 11, 78, 84
13, 368399, Note_on_c, 11, 78, 0
13, 368520, Note_on_c, 11, 76, 84
13, 368619, Note_on_c, 11, 76, 0
13, 368640, Note_on_c, 11, 76, 84
13, 368879, Note_on_c, 11, 76, 0
13, 368880, Note_on_c, 11, 74, 84
13, 369099, Note_on_c, 11, 74, 0
13, 369120, Note_on_c, 11, 86, 84
13, 369359, Note_on_c, 11, 86, 0
13, 369480, Note_on_c, 11, 85, 84
13, 369579, Note_on_c, 11, 85, 0
13, 369600, Note_on_c, 11, 85, 84
13, 369839, Note_on_c, 11, 85, 0
13, 369840, Note_on_c, 11, 83, 84
13, 370059, Note_on_c, 11, 83, 0
13, 370080, Note_on_c, 11, 83, 84
13, 370239, Note_on_c, 11, 83, 0
13, 370320, Note_on_c, 11, 81, 84
13, 370479, Note_on_c, 11, 81, 0
13, 370560, Note_on_c, 11, 80, 84
13, 370719, Note_on_c, 11, 80, 0
13, 370800, Note_on_c, 11, 78, 84
13, 370959, Note_on_c, 11, 78, 0
13, 371040, Note_on_c, 11, 80, 84
13, 371199, Note_on_c, 11, 80, 0
13, 371280, Note_on_c, 11, 81, 84
13, 371439, Note_on_c, 11, 81, 0
13, 371520, Note_on_c, 11, 83, 84
13, 371679, Note_on_c, 11, 83, 0
13, 371760, Note_on_c, 11, 80, 84
13, 371919, Note_on_c, 11, 80, 0
13, 372000, Note_on_c, 11, 81, 84
13, 372159, Note_on_c, 11, 81, 0
13, 372240, Note_on_c, 11, 78, 84
13, 372399, Note_on_c, 11, 78, 0
13, 372480, Note_on_c, 11, 80, 84
13, 372639, Note_on_c, 11, 80, 0
13, 372720, Note_on_c, 11, 78, 84
13, 372879, Note_on_c, 11, 78, 0
13, 372960, Note_on_c, 11, 80, 84
13, 373119, Note_on_c, 11, 80, 0
13, 373200, Note_on_c, 11, 81, 84
13, 373359, Note_on_c, 11, 81, 0
13, 373440, Note_on_c, 11, 83, 84
13, 373599, Note_on_c, 11, 83, 0
13, 373680, Note_on_c, 11, 80, 84
13, 373839, Note_on_c, 11, 80, 0
13, 373920, Note_on_c, 11, 81, 84
13, 374079, Note_on_c, 11, 81, 0
13, 374160, Note_on_c, 11, 78, 84
13, 374319, Note_on_c, 11, 78, 0
13, 374400, Note_on_c, 11, 80, 84
13, 374559, Note_on_c, 11, 80, 0
13, 374640, Note_on_c, 11, 78, 84
13, 374799, Note_on_c, 11, 78, 0
13, 374880, Note_on_c, 11, 80, 84
13, 375039, Note_on_c, 11, 80, 0
13, 375120, Note_on_c, 11, 81, 84
13, 375279, Note_on_c, 11, 81, 0
13, 375360, Note_on_c, 11, 83, 84
13, 375519, Note_on_c, 11, 83, 0
13, 375600, Note_on_c, 11, 80, 84
13, 375759, Note_on_c, 11, 80, 0
13, 375840, Note_on_c, 11, 81, 84
13, 375999, Note_on_c, 11, 81, 0
13, 376080, Note_on_c, 11, 77, 84
13, 376239, Note_on_c, 11, 77, 0
13, 376320, Note_on_c, 11, 79, 84
13, 376539, Note_on_c, 11, 79, 0
13, 376560, Note_on_c, 11, 77, 84
13, 376779, Note_on_c, 11, 77, 0
13, 376800, Note_on_c, 11, 79, 84
13, 377019, Note_on_c, 11, 79, 0
13, 377040, Note_on_c, 11, 81, 84
13, 377259, Note_on_c, 11, 81, 0
13, 377280, Note_on_c, 11, 82, 84
13, 377499, Note_on_c, 11, 82, 0
13, 377520, Note_on_c, 11, 79, 84
13, 377739, Note_on_c, 11, 79, 0
13, 377760, Note_on_c, 11, 81, 84
13, 377979, Note_on_c, 11, 81, 0
13, 378000, Note_on_c, 11, 77, 84
13, 378219, Note_on_c, 11, 77, 0
13, 378240, Note_on_c, 11, 82, 92
13, 378459, Note_on_c, 11, 82, 0
13, 378480, Note_on_c, 11, 79, 84
13, 378699, Note_on_c, 11, 79, 0
13, 378720, Note_on_c, 11, 81, 84
13, 378939, Note_on_c, 11, 81, 0
13, 378960, Note_on_c, 11, 77, 84
13, 379179, Note_on_c, 11, 77, 0
13, 379200, Note_on_c, 11, 82, 92
13, 379419, Note_on_c, 11, 82, 0
13, 379440, Note_on_c, 11, 79, 84
13, 379659, Note_on_c, 11, 79, 0
13, 379680, Note_on_c, 11, 81, 84
13, 379899, Note_on_c, 11, 81, 0
13, 379920, Note_on_c, 11, 77, 84
13, 380139, Note_on_c, 11, 77, 0
13, 380160, Note_on_c, 11, 82, 92
13, 380379, Note_on_c, 11, 82, 0
13, 380400, Note_on_c, 11, 79, 84
13, 380619, Note_on_c, 11, 79, 0
13, 380640, Note_on_c, 11, 81, 84
13, 380859, Note_on_c, 11, 81, 0
13, 380880, Note_on_c, 11, 77, 84
13, 381099, Note_on_c, 11, 77, 0
13, 381120, Note_on_c, 11, 82, 92
13, 381339, Note_on_c, 11, 82, 0
13, 381360, Note_on_c, 11, 79, 84
13, 381579, Note_on_c, 11, 79, 0
13, 381600, Note_on_c, 11, 81, 92
13, 381819, Note_on_c, 11, 81, 0
13, 381840, Note_on_c, 11, 77, 84
13, 382059, Note_on_c, 11, 77, 0
13, 382080, Note_on_c, 11, 82, 92
13, 382299, Note_on_c, 11, 82, 0
13, 382320, Note_on_c, 11, 79, 84
13, 382539, Note_on_c, 11, 79, 0
13, 382560, Note_on_c, 11, 76, 92
13, 382779, Note_on_c, 11, 76, 0
13, 382800, Note_on_c, 11, 81, 84
13, 383019, Note_on_c, 11, 81, 0
13, 383040, Note_on_c, 11, 77, 92
13, 383259, Note_on_c, 11, 77, 0
13, 383280, Note_on_c, 11, 74, 84
13, 383499, Note_on_c, 11, 74, 0
13, 383520, Note_on_c, 11, 79, 92
13, 383739, Note_on_c, 11, 79, 0
13, 383760, Note_on_c, 11, 76, 84
13, 383979, Note_on_c, 11, 76, 0
13, 384000, Note_on_c, 11, 72, 92
13, 384219, Note_on_c, 11, 72, 0
13, 384240, Note_on_c, 11, 77, 84
13, 384459, Note_on_c, 11, 77, 0
13, 384480, Note_on_c, 11, 74, 92
13, 384699, Note_on_c, 11, 74, 0
13, 384720, Note_on_c, 11, 70, 84
13, 384939, Note_on_c, 11, 70, 0
13, 384960, Note_on_c, 11, 76, 92
13, 385179, Note_on_c, 11, 76, 0
13, 385200, Note_on_c, 11, 72, 84
13, 385419, Note_on_c, 11, 72, 0
13, 385440, Note_on_c, 11, 69, 92
13, 385659, Note_on_c, 11, 69, 0
13, 385680, Note_on_c, 11, 74, 84
13, 385899, Note_on_c, 11, 74, 0
13, 385920, Note_on_c, 11, 70, 92
13, 386139, Note_on_c, 11, 70, 0
13, 386160, Note_on_c, 11, 67, 84
13, 386379, Note_on_c, 11, 67, 0
13, 386400, Note_on_c, 11, 72, 92
13, 386619, Note_on_c, 11, 72, 0
13, 386640, Note_on_c, 11, 69, 84
13, 386859, Note_on_c, 11, 69, 0
13, 386880, Note_on_c, 11, 65, 92
13, 387099, Note_on_c, 11, 65, 0
13, 387120, Note_on_c, 11, 70, 84
13, 387339, Note_on_c, 11, 70, 0
13, 387360, Note_on_c, 11, 67, 92
13, 387579, Note_on_c, 11, 67, 0
13, 387600, Note_on_c, 11, 64, 84
13, 387819, Note_on_c, 11, 64, 0
13, 387840, Note_on_c, 11, 60, 92
13, 388059, Note_on_c, 11, 60, 0
13, 388080, Note_on_c, 11, 58, 84
13, 388299, Note_on_c, 11, 58, 0
13, 388320, Note_on_c, 11, 55, 92
13, 388539, Note_on_c, 11, 55, 0
13, 388560, Note_on_c, 11, 67, 84
13, 388779, Note_on_c, 11, 67, 0
13, 388800, Note_on_c, 11, 64, 92
13, 389019, Note_on_c, 11, 64, 0
13, 389040, Note_on_c, 11, 58, 84
13, 389259, Note_on_c, 11, 58, 0
13, 389280, Note_on_c, 11, 70, 92
13, 389499, Note_on_c, 11, 70, 0
13, 389520, Note_on_c, 11, 67, 84
13, 389739, Note_on_c, 11, 67, 0
13, 389760, Note_on_c, 11, 64, 92
13, 389979, Note_on_c, 11, 64, 0
13, 390000, Note_on_c, 11, 76, 84
13, 390219, Note_on_c, 11, 76, 0
13, 390240, Note_on_c, 11, 70, 92
13, 390459, Note_on_c, 11, 70, 0
13, 390480, Note_on_c, 11, 67, 84
13, 390699, Note_on_c, 11, 67, 0
13, 390720, Note_on_c, 11, 82, 92
13, 390939, Note_on_c, 11, 82, 0
13, 390960, Note_on_c, 11, 79, 84
13, 391179, Note_on_c, 11, 79, 0
13, 391200, Note_on_c, 11, 76, 92
13, 391419, Note_on_c, 11, 76, 0
13, 391440, Note_on_c, 11, 84, 84
13, 391659, Note_on_c, 11, 84, 0
13, 391680, Note_on_c, 11, 77, 76
13, 391680, Note_on_c, 11, 69, 76
13, 391744, Note_on_c, 11, 77, 0
13, 391744, Note_on_c, 11, 69, 0
13, 391760, Note_on_c, 11, 69, 52
13, 391760, Note_on_c, 11, 65, 52
13, 391824, Note_on_c, 11, 69, 0
13, 391824, Note_on_c, 11, 65, 0
13, 391840, Note_on_c, 11, 65, 52
13, 391840, Note_on_c, 11, 69, 52
13, 391904, Note_on_c, 11, 65, 0
13, 391904, Note_on_c, 11, 69, 0
13, 391920, Note_on_c, 11, 65, 52
13, 391920, Note_on_c, 11, 69, 52
13, 391984, Note_on_c, 11, 65, 0
13, 391984, Note_on_c, 11, 69, 0
13, 392000, Note_on_c, 11, 65, 52
13, 392000, Note_on_c, 11, 69, 52
13, 392064, Note_on_c, 11, 65, 0
13, 392064, Note_on_c, 11, 69, 0
13, 392080, Note_on_c, 11, 65, 52
13, 392080, Note_on_c, 11, 69, 52
13, 392144, Note_on_c, 11, 65, 0
13, 392144, Note_on_c, 11, 69, 0
13, 392160, Note_on_c, 11, 65, 52
13, 392160, Note_on_c, 11, 69, 52
13, 392224, Note_on_c, 11, 65, 0
13, 392224, Note_on_c, 11, 69, 0
13, 392240, Note_on_c, 11, 69, 52
13, 392240, Note_on_c, 11, 65, 52
13, 392304, Note_on_c, 11, 69, 0
13, 392304, Note_on_c, 11, 65, 0
13, 392320, Note_on_c, 11, 69, 52
13, 392320, Note_on_c, 11, 65, 52
13, 392384, Note_on_c, 11, 69, 0
13, 392384, Note_on_c, 11, 65, 0
13, 392400, Note_on_c, 11, 69, 52
13, 392400, Note_on_c, 11, 65, 52
13, 392464, Note_on_c, 11, 69, 0
13, 392464, Note_on_c, 11, 65, 0
13, 392480, Note_on_c, 11, 69, 52
13, 392480, Note_on_c, 11, 65, 52
13, 392544, Note_on_c, 11, 69, 0
13, 392544, Note_on_c, 11, 65, 0
13, 392560, Note_on_c, 11, 65, 52
13, 392560, Note_on_c, 11, 69, 52
13, 392624, Note_on_c, 11, 65, 0
13, 392624, Note_on_c, 11, 69, 0
13, 392640, Note_on_c, 11, 69, 52
13, 392640, Note_on_c, 11, 65, 52
13, 392704, Note_on_c, 11, 69, 0
13, 392704, Note_on_c, 11, 65, 0
13, 392720, Note_on_c, 11, 65, 52
13, 392720, Note_on_c, 11, 69, 52
13, 392784, Note_on_c, 11, 65, 0
13, 392784, Note_on_c, 11, 69, 0
13, 392800, Note_on_c, 11, 69, 52
13, 392800, Note_on_c, 11, 65, 52
13, 392864, Note_on_c, 11, 69, 0
13, 392864, Note_on_c, 11, 65, 0
13, 392880, Note_on_c, 11, 65, 52
13, 392880, Note_on_c, 11, 69, 52
13, 392944, Note_on_c, 11, 65, 0
13, 392944, Note_on_c, 11, 69, 0
13, 392960, Note_on_c, 11, 69, 52
13, 392960, Note_on_c, 11, 65, 52
13, 393024, Note_on_c, 11, 69, 0
13, 393024, Note_on_c, 11, 65, 0
13, 393040, Note_on_c, 11, 65, 52
13, 393040, Note_on_c, 11, 69, 52
13, 393104, Note_on_c, 11, 65, 0
13, 393104, Note_on_c, 11, 69, 0
13, 393120, Note_on_c, 11, 65, 52
13, 393120, Note_on_c, 11, 69, 52
13, 393184, Note_on_c, 11, 65, 0
13, 393184, Note_on_c, 11, 69, 0
13, 393200, Note_on_c, 11, 69, 52
13, 393200, Note_on_c, 11, 65, 52
13, 393264, Note_on_c, 11, 69, 0
13, 393264, Note_on_c, 11, 65, 0
13, 393280, Note_on_c, 11, 65, 52
13, 393280, Note_on_c, 11, 69, 52
13, 393344, Note_on_c, 11, 65, 0
13, 393344, Note_on_c, 11, 69, 0
13, 393360, Note_on_c, 11, 65, 52
13, 393360, Note_on_c, 11, 69, 52
13, 393424, Note_on_c, 11, 65, 0
13, 393424, Note_on_c, 11, 69, 0
13, 393440, Note_on_c, 11, 65, 52
13, 393440, Note_on_c, 11, 69, 52
13, 393504, Note_on_c, 11, 65, 0
13, 393504, Note_on_c, 11, 69, 0
13, 393520, Note_on_c, 11, 65, 52
13, 393520, Note_on_c, 11, 69, 52
13, 393584, Note_on_c, 11, 65, 0
13, 393584, Note_on_c, 11, 69, 0
13, 393600, Note_on_c, 11, 70, 52
13, 393600, Note_on_c, 11, 67, 52
13, 393664, Note_on_c, 11, 70, 0
13, 393664, Note_on_c, 11, 67, 0
13, 393680, Note_on_c, 11, 70, 52
13, 393680, Note_on_c, 11, 67, 52
13, 393744, Note_on_c, 11, 70, 0
13, 393744, Note_on_c, 11, 67, 0
13, 393760, Note_on_c, 11, 70, 52
13, 393760, Note_on_c, 11, 67, 52
13, 393824, Note_on_c, 11, 70, 0
13, 393824, Note_on_c, 11, 67, 0
13, 393840, Note_on_c, 11, 67, 52
13, 393840, Note_on_c, 11, 70, 52
13, 393904, Note_on_c, 11, 67, 0
13, 393904, Note_on_c, 11, 70, 0
13, 393920, Note_on_c, 11, 70, 52
13, 393920, Note_on_c, 11, 67, 52
13, 393984, Note_on_c, 11, 70, 0
13, 393984, Note_on_c, 11, 67, 0
13, 394000, Note_on_c, 11, 67, 52
13, 394000, Note_on_c, 11, 70, 52
13, 394064, Note_on_c, 11, 67, 0
13, 394064, Note_on_c, 11, 70, 0
13, 394080, Note_on_c, 11, 67, 52
13, 394080, Note_on_c, 11, 70, 52
13, 394144, Note_on_c, 11, 67, 0
13, 394144, Note_on_c, 11, 70, 0
13, 394160, Note_on_c, 11, 67, 52
13, 394160, Note_on_c, 11, 70, 52
13, 394224, Note_on_c, 11, 67, 0
13, 394224, Note_on_c, 11, 70, 0
13, 394240, Note_on_c, 11, 67, 52
13, 394240, Note_on_c, 11, 70, 52
13, 394304, Note_on_c, 11, 67, 0
13, 394304, Note_on_c, 11, 70, 0
13, 394320, Note_on_c, 11, 67, 52
13, 394320, Note_on_c, 11, 70, 52
13, 394384, Note_on_c, 11, 67, 0
13, 394384, Note_on_c, 11, 70, 0
13, 394400, Note_on_c, 11, 67, 52
13, 394400, Note_on_c, 11, 70, 52
13, 394464, Note_on_c, 11, 67, 0
13, 394464, Note_on_c, 11, 70, 0
13, 394480, Note_on_c, 11, 70, 52
13, 394480, Note_on_c, 11, 67, 52
13, 394544, Note_on_c, 11, 70, 0
13, 394544, Note_on_c, 11, 67, 0
13, 394560, Note_on_c, 11, 70, 52
13, 394560, Note_on_c, 11, 67, 52
13, 394624, Note_on_c, 11, 70, 0
13, 394624, Note_on_c, 11, 67, 0
13, 394640, Note_on_c, 11, 70, 52
13, 394640, Note_on_c, 11, 67, 52
13, 394704, Note_on_c, 11, 70, 0
13, 394704, Note_on_c, 11, 67, 0
13, 394720, Note_on_c, 11, 67, 52
13, 394720, Note_on_c, 11, 70, 52
13, 394784, Note_on_c, 11, 67, 0
13, 394784, Note_on_c, 11, 70, 0
13, 394800, Note_on_c, 11, 67, 52
13, 394800, Note_on_c, 11, 70, 52
13, 394864, Note_on_c, 11, 67, 0
13, 394864, Note_on_c, 11, 70, 0
13, 394880, Note_on_c, 11, 70, 52
13, 394880, Note_on_c, 11, 67, 52
13, 394944, Note_on_c, 11, 70, 0
13, 394944, Note_on_c, 11, 67, 0
13, 394960, Note_on_c, 11, 70, 52
13, 394960, Note_on_c, 11, 67, 52
13, 395024, Note_on_c, 11, 70, 0
13, 395024, Note_on_c, 11, 67, 0
13, 395040, Note_on_c, 11, 70, 52
13, 395040, Note_on_c, 11, 67, 52
13, 395104, Note_on_c, 11, 70, 0
13, 395104, Note_on_c, 11, 67, 0
13, 395120, Note_on_c, 11, 67, 52
13, 395120, Note_on_c, 11, 70, 52
13, 395184, Note_on_c, 11, 67, 0
13, 395184, Note_on_c, 11, 70, 0
13, 395200, Note_on_c, 11, 70, 52
13, 395200, Note_on_c, 11, 67, 52
13, 395264, Note_on_c, 11, 70, 0
13, 395264, Note_on_c, 11, 67, 0
13, 395280, Note_on_c, 11, 67, 52
13, 395280, Note_on_c, 11, 70, 52
13, 395344, Note_on_c, 11, 67, 0
13, 395344, Note_on_c, 11, 70, 0
13, 395360, Note_on_c, 11, 67, 52
13, 395360, Note_on_c, 11, 70, 52
13, 395424, Note_on_c, 11, 67, 0
13, 395424, Note_on_c, 11, 70, 0
13, 395440, Note_on_c, 11, 67, 52
13, 395440, Note_on_c, 11, 70, 52
13, 395504, Note_on_c, 11, 67, 0
13, 395504, Note_on_c, 11, 70, 0
13, 395520, Note_on_c, 11, 65, 52
13, 395520, Note_on_c, 11, 69, 52
13, 395584, Note_on_c, 11, 65, 0
13, 395584, Note_on_c, 11, 69, 0
13, 395600, Note_on_c, 11, 69, 52
13, 395600, Note_on_c, 11, 65, 52
13, 395664, Note_on_c, 11, 69, 0
13, 395664, Note_on_c, 11, 65, 0
13, 395680, Note_on_c, 11, 65, 52
13, 395680, Note_on_c, 11, 69, 52
13, 395744, Note_on_c, 11, 65, 0
13, 395744, Note_on_c, 11, 69, 0
13, 395760, Note_on_c, 11, 65, 52
13, 395760, Note_on_c, 11, 69, 52
13, 395824, Note_on_c, 11, 65, 0
13, 395824, Note_on_c, 11, 69, 0
13, 395840, Note_on_c, 11, 69, 52
13, 395840, Note_on_c, 11, 65, 52
13, 395904, Note_on_c, 11, 69, 0
13, 395904, Note_on_c, 11, 65, 0
13, 395920, Note_on_c, 11, 65, 52
13, 395920, Note_on_c, 11, 69, 52
13, 395984, Note_on_c, 11, 65, 0
13, 395984, Note_on_c, 11, 69, 0
13, 396000, Note_on_c, 11, 65, 52
13, 396000, Note_on_c, 11, 69, 52
13, 396064, Note_on_c, 11, 65, 0
13, 396064, Note_on_c, 11, 69, 0
13, 396080, Note_on_c, 11, 69, 52
13, 396080, Note_on_c, 11, 65, 52
13, 396144, Note_on_c, 11, 69, 0
13, 396144, Note_on_c, 11, 65, 0
13, 396160, Note_on_c, 11, 65, 52
13, 396160, Note_on_c, 11, 69, 52
13, 396224, Note_on_c, 11, 65, 0
13, 396224, Note_on_c, 11, 69, 0
13, 396240, Note_on_c, 11, 65, 52
13, 396240, Note_on_c, 11, 69, 52
13, 396304, Note_on_c, 11, 65, 0
13, 396304, Note_on_c, 11, 69, 0
13, 396320, Note_on_c, 11, 65, 52
13, 396320, Note_on_c, 11, 69, 52
13, 396384, Note_on_c, 11, 65, 0
13, 396384, Note_on_c, 11, 69, 0
13, 396400, Note_on_c, 11, 65, 52
13, 396400, Note_on_c, 11, 69, 52
13, 396464, Note_on_c, 11, 65, 0
13, 396464, Note_on_c, 11, 69, 0
13, 396480, Note_on_c, 11, 65, 52
13, 396480, Note_on_c, 11, 69, 52
13, 396544, Note_on_c, 11, 65, 0
13, 396544, Note_on_c, 11, 69, 0
13, 396560, Note_on_c, 11, 65, 52
13, 396560, Note_on_c, 11, 69, 52
13, 396624, Note_on_c, 11, 65, 0
13, 396624, Note_on_c, 11, 69, 0
13, 396640, Note_on_c, 11, 69, 52
13, 396640, Note_on_c, 11, 65, 52
13, 396704, Note_on_c, 11, 69, 0
13, 396704, Note_on_c, 11, 65, 0
13, 396720, Note_on_c, 11, 65, 52
13, 396720, Note_on_c, 11, 69, 52
13, 396784, Note_on_c, 11, 65, 0
13, 396784, Note_on_c, 11, 69, 0
13, 396800, Note_on_c, 11, 69, 52
13, 396800, Note_on_c, 11, 65, 52
13, 396864, Note_on_c, 11, 69, 0
13, 396864, Note_on_c, 11, 65, 0
13, 396880, Note_on_c, 11, 65, 52
13, 396880, Note_on_c, 11, 69, 52
13, 396944, Note_on_c, 11, 65, 0
13, 396944, Note_on_c, 11, 69, 0
13, 396960, Note_on_c, 11, 65, 52
13, 396960, Note_on_c, 11, 69, 52
13, 397024, Note_on_c, 11, 65, 0
13, 397024, Note_on_c, 11, 69, 0
13, 397040, Note_on_c, 11, 69, 52
13, 397040, Note_on_c, 11, 65, 52
13, 397104, Note_on_c, 11, 69, 0
13, 397104, Note_on_c, 11, 65, 0
13, 397120, Note_on_c, 11, 65, 52
13, 397120, Note_on_c, 11, 69, 52
13, 397184, Note_on_c, 11, 65, 0
13, 397184, Note_on_c, 11, 69, 0
13, 397200, Note_on_c, 11, 65, 52
13, 397200, Note_on_c, 11, 69, 52
13, 397264, Note_on_c, 11, 65, 0
13, 397264, Note_on_c, 11, 69, 0
13, 397280, Note_on_c, 11, 65, 52
13, 397280, Note_on_c, 11, 69, 52
13, 397344, Note_on_c, 11, 65, 0
13, 397344, Note_on_c, 11, 69, 0
13, 397360, Note_on_c, 11, 65, 52
13, 397360, Note_on_c, 11, 69, 52
13, 397424, Note_on_c, 11, 65, 0
13, 397424, Note_on_c, 11, 69, 0
13, 397440, Note_on_c, 11, 70, 52
13, 397440, Note_on_c, 11, 67, 52
13, 397504, Note_on_c, 11, 70, 0
13, 397504, Note_on_c, 11, 67, 0
13, 397520, Note_on_c, 11, 67, 52
13, 397520, Note_on_c, 11, 70, 52
13, 397584, Note_on_c, 11, 67, 0
13, 397584, Note_on_c, 11, 70, 0
13, 397600, Note_on_c, 11, 67, 52
13, 397600, Note_on_c, 11, 70, 52
13, 397664, Note_on_c, 11, 67, 0
13, 397664, Note_on_c, 11, 70, 0
13, 397680, Note_on_c, 11, 70, 52
13, 397680, Note_on_c, 11, 67, 52
13, 397744, Note_on_c, 11, 70, 0
13, 397744, Note_on_c, 11, 67, 0
13, 397760, Note_on_c, 11, 70, 52
13, 397760, Note_on_c, 11, 67, 52
13, 397824, Note_on_c, 11, 70, 0
13, 397824, Note_on_c, 11, 67, 0
13, 397840, Note_on_c, 11, 67, 52
13, 397840, Note_on_c, 11, 70, 52
13, 397904, Note_on_c, 11, 67, 0
13, 397904, Note_on_c, 11, 70, 0
13, 397920, Note_on_c, 11, 67, 52
13, 397920, Note_on_c, 11, 70, 52
13, 397984, Note_on_c, 11, 67, 0
13, 397984, Note_on_c, 11, 70, 0
13, 398000, Note_on_c, 11, 67, 52
13, 398000, Note_on_c, 11, 70, 52
13, 398064, Note_on_c, 11, 67, 0
13, 398064, Note_on_c, 11, 70, 0
13, 398080, Note_on_c, 11, 70, 52
13, 398080, Note_on_c, 11, 67, 52
13, 398144, Note_on_c, 11, 70, 0
13, 398144, Note_on_c, 11, 67, 0
13, 398160, Note_on_c, 11, 67, 52
13, 398160, Note_on_c, 11, 70, 52
13, 398224, Note_on_c, 11, 67, 0
13, 398224, Note_on_c, 11, 70, 0
13, 398240, Note_on_c, 11, 70, 52
13, 398240, Note_on_c, 11, 67, 52
13, 398304, Note_on_c, 11, 70, 0
13, 398304, Note_on_c, 11, 67, 0
13, 398320, Note_on_c, 11, 70, 52
13, 398320, Note_on_c, 11, 67, 52
13, 398384, Note_on_c, 11, 70, 0
13, 398384, Note_on_c, 11, 67, 0
13, 398400, Note_on_c, 11, 70, 52
13, 398400, Note_on_c, 11, 67, 52
13, 398464, Note_on_c, 11, 70, 0
13, 398464, Note_on_c, 11, 67, 0
13, 398480, Note_on_c, 11, 67, 52
13, 398480, Note_on_c, 11, 70, 52
13, 398544, Note_on_c, 11, 67, 0
13, 398544, Note_on_c, 11, 70, 0
13, 398560, Note_on_c, 11, 70, 52
13, 398560, Note_on_c, 11, 67, 52
13, 398624, Note_on_c, 11, 70, 0
13, 398624, Note_on_c, 11, 67, 0
13, 398640, Note_on_c, 11, 67, 52
13, 398640, Note_on_c, 11, 70, 52
13, 398704, Note_on_c, 11, 67, 0
13, 398704, Note_on_c, 11, 70, 0
13, 398720, Note_on_c, 11, 67, 52
13, 398720, Note_on_c, 11, 70, 52
13, 398784, Note_on_c, 11, 67, 0
13, 398784, Note_on_c, 11, 70, 0
13, 398800, Note_on_c, 11, 67, 52
13, 398800, Note_on_c, 11, 70, 52
13, 398864, Note_on_c, 11, 67, 0
13, 398864, Note_on_c, 11, 70, 0
13, 398880, Note_on_c, 11, 70, 52
13, 398880, Note_on_c, 11, 67, 52
13, 398944, Note_on_c, 11, 70, 0
13, 398944, Note_on_c, 11, 67, 0
13, 398960, Note_on_c, 11, 67, 52
13, 398960, Note_on_c, 11, 70, 52
13, 399024, Note_on_c, 11, 67, 0
13, 399024, Note_on_c, 11, 70, 0
13, 399040, Note_on_c, 11, 70, 52
13, 399040, Note_on_c, 11, 67, 52
13, 399104, Note_on_c, 11, 70, 0
13, 399104, Note_on_c, 11, 67, 0
13, 399120, Note_on_c, 11, 67, 52
13, 399120, Note_on_c, 11, 70, 52
13, 399184, Note_on_c, 11, 67, 0
13, 399184, Note_on_c, 11, 70, 0
13, 399200, Note_on_c, 11, 67, 52
13, 399200, Note_on_c, 11, 70, 52
13, 399264, Note_on_c, 11, 67, 0
13, 399264, Note_on_c, 11, 70, 0
13, 399280, Note_on_c, 11, 70, 52
13, 399280, Note_on_c, 11, 67, 52
13, 399344, Note_on_c, 11, 70, 0
13, 399344, Note_on_c, 11, 67, 0
13, 399360, Note_on_c, 11, 69, 76
13, 399360, Note_on_c, 11, 65, 76
13, 399424, Note_on_c, 11, 69, 0
13, 399424, Note_on_c, 11, 65, 0
13, 399440, Note_on_c, 11, 77, 76
13, 399504, Note_on_c, 11, 77, 0
13, 399520, Note_on_c, 11, 77, 76
13, 399584, Note_on_c, 11, 77, 0
13, 399600, Note_on_c, 11, 77, 76
13, 399664, Note_on_c, 11, 77, 0
13, 399680, Note_on_c, 11, 77, 76
13, 399744, Note_on_c, 11, 77, 0
13, 399760, Note_on_c, 11, 77, 76
13, 399824, Note_on_c, 11, 77, 0
13, 399840, Note_on_c, 11, 77, 76
13, 399904, Note_on_c, 11, 77, 0
13, 399920, Note_on_c, 11, 77, 76
13, 399984, Note_on_c, 11, 77, 0
13, 400000, Note_on_c, 11, 77, 76
13, 400064, Note_on_c, 11, 77, 0
13, 400080, Note_on_c, 11, 77, 76
13, 400144, Note_on_c, 11, 77, 0
13, 400160, Note_on_c, 11, 77, 76
13, 400224, Note_on_c, 11, 77, 0
13, 400240, Note_on_c, 11, 77, 76
13, 400304, Note_on_c, 11, 77, 0
13, 400320, Note_on_c, 11, 77, 76
13, 400384, Note_on_c, 11, 77, 0
13, 400400, Note_on_c, 11, 77, 76
13, 400464, Note_on_c, 11, 77, 0
13, 400480, Note_on_c, 11, 77, 76
13, 400544, Note_on_c, 11, 77, 0
13, 400560, Note_on_c, 11, 77, 76
13, 400624, Note_on_c, 11, 77, 0
13, 400640, Note_on_c, 11, 77, 76
13, 400704, Note_on_c, 11, 77, 0
13, 400720, Note_on_c, 11, 77, 76
13, 400784, Note_on_c, 11, 77, 0
13, 400800, Note_on_c, 11, 77, 76
13, 400864, Note_on_c, 11, 77, 0
13, 400880, Note_on_c, 11, 77, 76
13, 400944, Note_on_c, 11, 77, 0
13, 400960, Note_on_c, 11, 77, 76
13, 401024, Note_on_c, 11, 77, 0
13, 401040, Note_on_c, 11, 77, 76
13, 401104, Note_on_c, 11, 77, 0
13, 401120, Note_on_c, 11, 77, 76
13, 401184, Note_on_c, 11, 77, 0
13, 401200, Note_on_c, 11, 77, 76
13, 401264, Note_on_c, 11, 77, 0
13, 401280, Note_on_c, 11, 77, 76
13, 401344, Note_on_c, 11, 77, 0
13, 401360, Note_on_c, 11, 77, 76
13, 401424, Note_on_c, 11, 77, 0
13, 401440, Note_on_c, 11, 77, 76
13, 401504, Note_on_c, 11, 77, 0
13, 401520, Note_on_c, 11, 77, 76
13, 401584, Note_on_c, 11, 77, 0
13, 401600, Note_on_c, 11, 77, 76
13, 401664, Note_on_c, 11, 77, 0
13, 401680, Note_on_c, 11, 77, 76
13, 401744, Note_on_c, 11, 77, 0
13, 401760, Note_on_c, 11, 77, 76
13, 401824, Note_on_c, 11, 77, 0
13, 401840, Note_on_c, 11, 77, 76
13, 401904, Note_on_c, 11, 77, 0
13, 401920, Note_on_c, 11, 77, 76
13, 401984, Note_on_c, 11, 77, 0
13, 402000, Note_on_c, 11, 77, 76
13, 402064, Note_on_c, 11, 77, 0
13, 402080, Note_on_c, 11, 77, 76
13, 402144, Note_on_c, 11, 77, 0
13, 402160, Note_on_c, 11, 77, 76
13, 402224, Note_on_c, 11, 77, 0
13, 402240, Note_on_c, 11, 76, 76
13, 402304, Note_on_c, 11, 76, 0
13, 402320, Note_on_c, 11, 76, 76
13, 402384, Note_on_c, 11, 76, 0
13, 402400, Note_on_c, 11, 76, 76
13, 402464, Note_on_c, 11, 76, 0
13, 402480, Note_on_c, 11, 76, 76
13, 402544, Note_on_c, 11, 76, 0
13, 402560, Note_on_c, 11, 76, 76
13, 402624, Note_on_c, 11, 76, 0
13, 402640, Note_on_c, 11, 76, 76
13, 402704, Note_on_c, 11, 76, 0
13, 402720, Note_on_c, 11, 76, 76
13, 402784, Note_on_c, 11, 76, 0
13, 402800, Note_on_c, 11, 76, 76
13, 402864, Note_on_c, 11, 76, 0
13, 402880, Note_on_c, 11, 76, 76
13, 402944, Note_on_c, 11, 76, 0
13, 402960, Note_on_c, 11, 76, 76
13, 403024, Note_on_c, 11, 76, 0
13, 403040, Note_on_c, 11, 76, 76
13, 403104, Note_on_c, 11, 76, 0
13, 403120, Note_on_c, 11, 76, 76
13, 403184, Note_on_c, 11, 76, 0
13, 403200, Note_on_c, 11, 77, 52
13, 403439, Note_on_c, 11, 77, 0
13, 405120, Note_on_c, 11, 82, 52
13, 405839, Note_on_c, 11, 82, 0
13, 405840, Note_on_c, 11, 84, 52
13, 406079, Note_on_c, 11, 84, 0
13, 406080, Note_on_c, 11, 86, 52
13, 406319, Note_on_c, 11, 86, 0
13, 406320, Note_on_c, 11, 74, 52
13, 406559, Note_on_c, 11, 74, 0
13, 406560, Note_on_c, 11, 67, 52
13, 406799, Note_on_c, 11, 67, 0
13, 406800, Note_on_c, 11, 76, 52
13, 407039, Note_on_c, 11, 76, 0
13, 407040, Note_on_c, 11, 77, 52
13, 407279, Note_on_c, 11, 77, 0
13, 407280, Note_on_c, 11, 72, 52
13, 407519, Note_on_c, 11, 72, 0
13, 407520, Note_on_c, 11, 69, 52
13, 407759, Note_on_c, 11, 69, 0
13, 407760, Note_on_c, 11, 65, 52
13, 407999, Note_on_c, 11, 65, 0
13, 408000, Note_on_c, 11, 60, 52
13, 408239, Note_on_c, 11, 60, 0
13, 408960, Note_on_c, 11, 82, 52
13, 409199, Note_on_c, 11, 82, 0
13, 409200, Note_on_c, 11, 84, 52
13, 409279, Note_on_c, 11, 84, 0
13, 409280, Note_on_c, 11, 82, 52
13, 409359, Note_on_c, 11, 82, 0
13, 409360, Note_on_c, 11, 81, 52
13, 409439, Note_on_c, 11, 81, 0
13, 409440, Note_on_c, 11, 82, 52
13, 409679, Note_on_c, 11, 82, 0
13, 409680, Note_on_c, 11, 84, 52
13, 409919, Note_on_c, 11, 84, 0
13, 409920, Note_on_c, 11, 86, 52
13, 410159, Note_on_c, 11, 86, 0
13, 410160, Note_on_c, 11, 74, 52
13, 410399, Note_on_c, 11, 74, 0
13, 410400, Note_on_c, 11, 67, 52
13, 410639, Note_on_c, 11, 67, 0
13, 410640, Note_on_c, 11, 76, 52
13, 410859, Note_on_c, 11, 76, 0
13, 410880, Note_on_c, 11, 77, 76
13, 410944, Note_on_c, 11, 77, 0
13, 410960, Note_on_c, 11, 77, 76
13, 411024, Note_on_c, 11, 77, 0
13, 411040, Note_on_c, 11, 77, 76
13, 411104, Note_on_c, 11, 77, 0
13, 411120, Note_on_c, 11, 77, 76
13, 411184, Note_on_c, 11, 77, 0
13, 411200, Note_on_c, 11, 77, 76
13, 411264, Note_on_c, 11, 77, 0
13, 411280, Note_on_c, 11, 77, 76
13, 411344, Note_on_c, 11, 77, 0
13, 411360, Note_on_c, 11, 77, 76
13, 411424, Note_on_c, 11, 77, 0
13, 411440, Note_on_c, 11, 77, 76
13, 411504, Note_on_c, 11, 77, 0
13, 411520, Note_on_c, 11, 77, 76
13, 411584, Note_on_c, 11, 77, 0
13, 411600, Note_on_c, 11, 77, 76
13, 411664, Note_on_c, 11, 77, 0
13, 411680, Note_on_c, 11, 77, 76
13, 411744, Note_on_c, 11, 77, 0
13, 411760, Note_on_c, 11, 77, 76
13, 411824, Note_on_c, 11, 77, 0
13, 411840, Note_on_c, 11, 77, 76
13, 411904, Note_on_c, 11, 77, 0
13, 411920, Note_on_c, 11, 77, 76
13, 411984, Note_on_c, 11, 77, 0
13, 412000, Note_on_c, 11, 77, 76
13, 412064, Note_on_c, 11, 77, 0
13, 412080, Note_on_c, 11, 77, 76
13, 412144, Note_on_c, 11, 77, 0
13, 412160, Note_on_c, 11, 77, 76
13, 412224, Note_on_c, 11, 77, 0
13, 412240, Note_on_c, 11, 77, 76
13, 412304, Note_on_c, 11, 77, 0
13, 412320, Note_on_c, 11, 77, 76
13, 412384, Note_on_c, 11, 77, 0
13, 412400, Note_on_c, 11, 77, 76
13, 412464, Note_on_c, 11, 77, 0
13, 412480, Note_on_c, 11, 77, 76
13, 412544, Note_on_c, 11, 77, 0
13, 412560, Note_on_c, 11, 77, 76
13, 412624, Note_on_c, 11, 77, 0
13, 412640, Note_on_c, 11, 77, 76
13, 412704, Note_on_c, 11, 77, 0
13, 412720, Note_on_c, 11, 77, 76
13, 412784, Note_on_c, 11, 77, 0
13, 412800, Note_on_c, 11, 77, 76
13, 412864, Note_on_c, 11, 77, 0
13, 412880, Note_on_c, 11, 77, 76
13, 412944, Note_on_c, 11, 77, 0
13, 412960, Note_on_c, 11, 77, 76
13, 413024, Note_on_c, 11, 77, 0
13, 413040, Note_on_c, 11, 77, 76
13, 413104, Note_on_c, 11, 77, 0
13, 413120, Note_on_c, 11, 77, 76
13, 413184, Note_on_c, 11, 77, 0
13, 413200, Note_on_c, 11, 77, 76
13, 413264, Note_on_c, 11, 77, 0
13, 413280, Note_on_c, 11, 77, 76
13, 413344, Note_on_c, 11, 77, 0
13, 413360, Note_on_c, 11, 77, 76
13, 413424, Note_on_c, 11, 77, 0
13, 413440, Note_on_c, 11, 77, 76
13, 413504, Note_on_c, 11, 77, 0
13, 413520, Note_on_c, 11, 77, 76
13, 413584, Note_on_c, 11, 77, 0
13, 413600, Note_on_c, 11, 77, 76
13, 413664, Note_on_c, 11, 77, 0
13, 413680, Note_on_c, 11, 77, 76
13, 413744, Note_on_c, 11, 77, 0
13, 413760, Note_on_c, 11, 76, 76
13, 413824, Note_on_c, 11, 76, 0
13, 413840, Note_on_c, 11, 76, 76
13, 413904, Note_on_c, 11, 76, 0
13, 413920, Note_on_c, 11, 76, 76
13, 413984, Note_on_c, 11, 76, 0
13, 414000, Note_on_c, 11, 76, 76
13, 414064, Note_on_c, 11, 76, 0
13, 414080, Note_on_c, 11, 76, 76
13, 414144, Note_on_c, 11, 76, 0
13, 414160, Note_on_c, 11, 76, 76
13, 414224, Note_on_c, 11, 76, 0
13, 414240, Note_on_c, 11, 76, 76
13, 414304, Note_on_c, 11, 76, 0
13, 414320, Note_on_c, 11, 76, 76
13, 414384, Note_on_c, 11, 76, 0
13, 414400, Note_on_c, 11, 76, 76
13, 414464, Note_on_c, 11, 76, 0
13, 414480, Note_on_c, 11, 76, 76
13, 414544, Note_on_c, 11, 76, 0
13, 414560, Note_on_c, 11, 76, 76
13, 414624, Note_on_c, 11, 76, 0
13, 414640, Note_on_c, 11, 76, 76
13, 414704, Note_on_c, 11, 76, 0
13, 414720, Note_on_c, 11, 75, 84
13, 414784, Note_on_c, 11, 75, 0
13, 414800, Note_on_c, 11, 75, 84
13, 414864, Note_on_c, 11, 75, 0
13, 414880, Note_on_c, 11, 75, 84
13, 414944, Note_on_c, 11, 75, 0
13, 414960, Note_on_c, 11, 75, 84
13, 415024, Note_on_c, 11, 75, 0
13, 415040, Note_on_c, 11, 75, 84
13, 415104, Note_on_c, 11, 75, 0
13, 415120, Note_on_c, 11, 75, 84
13, 415184, Note_on_c, 11, 75, 0
13, 415200, Note_on_c, 11, 75, 84
13, 415264, Note_on_c, 11, 75, 0
13, 415280, Note_on_c, 11, 75, 84
13, 415344, Note_on_c, 11, 75, 0
13, 415360, Note_on_c, 11, 75, 84
13, 415424, Note_on_c, 11, 75, 0
13, 415440, Note_on_c, 11, 75, 84
13, 415504, Note_on_c, 11, 75, 0
13, 415520, Note_on_c, 11, 75, 84
13, 415584, Note_on_c, 11, 75, 0
13, 415600, Note_on_c, 11, 75, 84
13, 415664, Note_on_c, 11, 75, 0
13, 415680, Note_on_c, 11, 75, 84
13, 415744, Note_on_c, 11, 75, 0
13, 415760, Note_on_c, 11, 75, 84
13, 415824, Note_on_c, 11, 75, 0
13, 415840, Note_on_c, 11, 75, 84
13, 415904, Note_on_c, 11, 75, 0
13, 415920, Note_on_c, 11, 75, 84
13, 415984, Note_on_c, 11, 75, 0
13, 416000, Note_on_c, 11, 75, 84
13, 416064, Note_on_c, 11, 75, 0
13, 416080, Note_on_c, 11, 75, 84
13, 416144, Note_on_c, 11, 75, 0
13, 416160, Note_on_c, 11, 75, 84
13, 416224, Note_on_c, 11, 75, 0
13, 416240, Note_on_c, 11, 75, 84
13, 416304, Note_on_c, 11, 75, 0
13, 416320, Note_on_c, 11, 75, 84
13, 416384, Note_on_c, 11, 75, 0
13, 416400, Note_on_c, 11, 75, 84
13, 416464, Note_on_c, 11, 75, 0
13, 416480, Note_on_c, 11, 75, 84
13, 416544, Note_on_c, 11, 75, 0
13, 416560, Note_on_c, 11, 75, 84
13, 416624, Note_on_c, 11, 75, 0
13, 416640, Note_on_c, 11, 77, 84
13, 416759, Note_on_c, 11, 77, 0
13, 416760, Note_on_c, 11, 78, 84
13, 416859, Note_on_c, 11, 78, 0
13, 416880, Note_on_c, 11, 75, 84
13, 417039, Note_on_c, 11, 75, 0
13, 417120, Note_on_c, 11, 77, 84
13, 417239, Note_on_c, 11, 77, 0
13, 417240, Note_on_c, 11, 78, 84
13, 417339, Note_on_c, 11, 78, 0
13, 417360, Note_on_c, 11, 75, 84
13, 417519, Note_on_c, 11, 75, 0
13, 417600, Note_on_c, 11, 77, 84
13, 417719, Note_on_c, 11, 77, 0
13, 417720, Note_on_c, 11, 78, 84
13, 417819, Note_on_c, 11, 78, 0
13, 417840, Note_on_c, 11, 75, 84
13, 417999, Note_on_c, 11, 75, 0
13, 418080, Note_on_c, 11, 77, 84
13, 418199, Note_on_c, 11, 77, 0
13, 418200, Note_on_c, 11, 78, 84
13, 418299, Note_on_c, 11, 78, 0
13, 418320, Note_on_c, 11, 75, 84
13, 418479, Note_on_c, 11, 75, 0
13, 418560, Note_on_c, 11, 76, 84
13, 418799, Note_on_c, 11, 76, 0
13, 419040, Note_on_c, 11, 76, 84
13, 419279, Note_on_c, 11, 76, 0
13, 419520, Note_on_c, 11, 76, 84
13, 419759, Note_on_c, 11, 76, 0
13, 420000, Note_on_c, 11, 82, 84
13, 420000, Note_on_c, 11, 70, 84
13, 420239, Note_on_c, 11, 82, 0
13, 420239, Note_on_c, 11, 70, 0
13, 421920, Note_on_c, 11, 79, 52
13, 422064, Note_on_c, 11, 79, 0
13, 422080, Note_on_c, 11, 79, 52
13, 422224, Note_on_c, 11, 79, 0
13, 422240, Note_on_c, 11, 79, 52
13, 422384, Note_on_c, 11, 79, 0
13, 422400, Note_on_c, 11, 79, 52
13, 422639, Note_on_c, 11, 79, 0
13, 423840, Note_on_c, 11, 81, 52
13, 423984, Note_on_c, 11, 81, 0
13, 424000, Note_on_c, 11, 81, 52
13, 424144, Note_on_c, 11, 81, 0
13, 424160, Note_on_c, 11, 81, 52
13, 424304, Note_on_c, 11, 81, 0
13, 424320, Note_on_c, 11, 81, 52
13, 424559, Note_on_c, 11, 81, 0
13, 424800, Note_on_c, 11, 81, 76
13, 424864, Note_on_c, 11, 81, 0
13, 424880, Note_on_c, 11, 81, 76
13, 424944, Note_on_c, 11, 81, 0
13, 424960, Note_on_c, 11, 81, 76
13, 425024, Note_on_c, 11, 81, 0
13, 425040, Note_on_c, 11, 81, 76
13, 425104, Note_on_c, 11, 81, 0
13, 425120, Note_on_c, 11, 81, 76
13, 425184, Note_on_c, 11, 81, 0
13, 425200, Note_on_c, 11, 81, 76
13, 425264, Note_on_c, 11, 81, 0
13, 425280, Note_on_c, 11, 81, 76
13, 425399, Note_on_c, 11, 81, 0
13, 425400, Note_on_c, 11, 82, 76
13, 425499, Note_on_c, 11, 82, 0
13, 425520, Note_on_c, 11, 79, 76
13, 425679, Note_on_c, 11, 79, 0
13, 425760, Note_on_c, 11, 82, 76
13, 425824, Note_on_c, 11, 82, 0
13, 425840, Note_on_c, 11, 82, 76
13, 425904, Note_on_c, 11, 82, 0
13, 425920, Note_on_c, 11, 82, 76
13, 425984, Note_on_c, 11, 82, 0
13, 426000, Note_on_c, 11, 82, 76
13, 426064, Note_on_c, 11, 82, 0
13, 426080, Note_on_c, 11, 82, 76
13, 426144, Note_on_c, 11, 82, 0
13, 426160, Note_on_c, 11, 82, 76
13, 426224, Note_on_c, 11, 82, 0
13, 426240, Note_on_c, 11, 82, 76
13, 426359, Note_on_c, 11, 82, 0
13, 426360, Note_on_c, 11, 84, 76
13, 426459, Note_on_c, 11, 84, 0
13, 426480, Note_on_c, 11, 81, 76
13, 426639, Note_on_c, 11, 81, 0
13, 426720, Note_on_c, 11, 81, 76
13, 426784, Note_on_c, 11, 81, 0
13, 426800, Note_on_c, 11, 81, 76
13, 426864, Note_on_c, 11, 81, 0
13, 426880, Note_on_c, 11, 81, 76
13, 426944, Note_on_c, 11, 81, 0
13, 426960, Note_on_c, 11, 81, 76
13, 427024, Note_on_c, 11, 81, 0
13, 427040, Note_on_c, 11, 81, 76
13, 427104, Note_on_c, 11, 81, 0
13, 427120, Note_on_c, 11, 81, 76
13, 427184, Note_on_c, 11, 81, 0
13, 427200, Note_on_c, 11, 81, 76
13, 427319, Note_on_c, 11, 81, 0
13, 427320, Note_on_c, 11, 82, 76
13, 427419, Note_on_c, 11, 82, 0
13, 427440, Note_on_c, 11, 79, 76
13, 427599, Note_on_c, 11, 79, 0
13, 427680, Note_on_c, 11, 81, 76
13, 427799, Note_on_c, 11, 81, 0
13, 427800, Note_on_c, 11, 82, 76
13, 427899, Note_on_c, 11, 82, 0
13, 427920, Note_on_c, 11, 79, 76
13, 428079, Note_on_c, 11, 79, 0
13, 428160, Note_on_c, 11, 82, 76
13, 428279, Note_on_c, 11, 82, 0
13, 428280, Note_on_c, 11, 84, 76
13, 428379, Note_on_c, 11, 84, 0
13, 428400, Note_on_c, 11, 81, 76
13, 428559, Note_on_c, 11, 81, 0
13, 428640, Note_on_c, 11, 81, 76
13, 428704, Note_on_c, 11, 81, 0
13, 428720, Note_on_c, 11, 81, 76
13, 428784, Note_on_c, 11, 81, 0
13, 428800, Note_on_c, 11, 81, 76
13, 428864, Note_on_c, 11, 81, 0
13, 428880, Note_on_c, 11, 81, 76
13, 428944, Note_on_c, 11, 81, 0
13, 428960, Note_on_c, 11, 81, 76
13, 429024, Note_on_c, 11, 81, 0
13, 429040, Note_on_c, 11, 81, 76
13, 429104, Note_on_c, 11, 81, 0
13, 429120, Note_on_c, 11, 81, 76
13, 429239, Note_on_c, 11, 81, 0
13, 429240, Note_on_c, 11, 82, 76
13, 429339, Note_on_c, 11, 82, 0
13, 429360, Note_on_c, 11, 79, 76
13, 429519, Note_on_c, 11, 79, 0
13, 429600, Note_on_c, 11, 81, 76
13, 429719, Note_on_c, 11, 81, 0
13, 429720, Note_on_c, 11, 82, 76
13, 429819, Note_on_c, 11, 82, 0
13, 429840, Note_on_c, 11, 79, 76
13, 429999, Note_on_c, 11, 79, 0
13, 430080, Note_on_c, 11, 82, 76
13, 430199, Note_on_c, 11, 82, 0
13, 430200, Note_on_c, 11, 84, 76
13, 430299, Note_on_c, 11, 84, 0
13, 430320, Note_on_c, 11, 81, 76
13, 430479, Note_on_c, 11, 81, 0
13, 430560, Note_on_c, 11, 82, 76
13, 430679, Note_on_c, 11, 82, 0
13, 430680, Note_on_c, 11, 84, 76
13, 430779, Note_on_c, 11, 84, 0
13, 430800, Note_on_c, 11, 81, 76
13, 430959, Note_on_c, 11, 81, 0
13, 431040, Note_on_c, 11, 82, 76
13, 431104, Note_on_c, 11, 82, 0
13, 431120, Note_on_c, 11, 82, 76
13, 431184, Note_on_c, 11, 82, 0
13, 431200, Note_on_c, 11, 82, 76
13, 431264, Note_on_c, 11, 82, 0
13, 431280, Note_on_c, 11, 84, 76
13, 431344, Note_on_c, 11, 84, 0
13, 431360, Note_on_c, 11, 84, 76
13, 431424, Note_on_c, 11, 84, 0
13, 431440, Note_on_c, 11, 84, 76
13, 431504, Note_on_c, 11, 84, 0
13, 431520, Note_on_c, 11, 86, 76
13, 431584, Note_on_c, 11, 86, 0
13, 431600, Note_on_c, 11, 86, 76
13, 431664, Note_on_c, 11, 86, 0
13, 431680, Note_on_c, 11, 86, 76
13, 431744, Note_on_c, 11, 86, 0
13, 431760, Note_on_c, 11, 88, 76
13, 431824, Note_on_c, 11, 88, 0
13, 431840, Note_on_c, 11, 88, 76
13, 431904, Note_on_c, 11, 88, 0
13, 431920, Note_on_c, 11, 88, 76
13, 431984, Note_on_c, 11, 88, 0
13, 432000, Note_on_c, 11, 89, 84
13, 432064, Note_on_c, 11, 89, 0
13, 432080, Note_on_c, 11, 89, 76
13, 432144, Note_on_c, 11, 89, 0
13, 432160, Note_on_c, 11, 89, 76
13, 432224, Note_on_c, 11, 89, 0
13, 432240, Note_on_c, 11, 89, 76
13, 432304, Note_on_c, 11, 89, 0
13, 432320, Note_on_c, 11, 89, 76
13, 432384, Note_on_c, 11, 89, 0
13, 432400, Note_on_c, 11, 89, 76
13, 432464, Note_on_c, 11, 89, 0
13, 432480, Note_on_c, 11, 89, 76
13, 432544, Note_on_c, 11, 89, 0
13, 432560, Note_on_c, 11, 89, 76
13, 432624, Note_on_c, 11, 89, 0
13, 432640, Note_on_c, 11, 89, 76
13, 432704, Note_on_c, 11, 89, 0
13, 432720, Note_on_c, 11, 89, 76
13, 432784, Note_on_c, 11, 89, 0
13, 432800, Note_on_c, 11, 89, 76
13, 432864, Note_on_c, 11, 89, 0
13, 432880, Note_on_c, 11, 89, 76
13, 432944, Note_on_c, 11, 89, 0
13, 432960, Note_on_c, 11, 69, 84
13, 433024, Note_on_c, 11, 69, 0
13, 433040, Note_on_c, 11, 69, 76
13, 433104, Note_on_c, 11, 69, 0
13, 433120, Note_on_c, 11, 69, 76
13, 433184, Note_on_c, 11, 69, 0
13, 433200, Note_on_c, 11, 69, 76
13, 433264, Note_on_c, 11, 69, 0
13, 433280, Note_on_c, 11, 69, 76
13, 433344, Note_on_c, 11, 69, 0
13, 433360, Note_on_c, 11, 69, 76
13, 433424, Note_on_c, 11, 69, 0
13, 433440, Note_on_c, 11, 69, 76
13, 433504, Note_on_c, 11, 69, 0
13, 433520, Note_on_c, 11, 69, 76
13, 433584, Note_on_c, 11, 69, 0
13, 433600, Note_on_c, 11, 69, 76
13, 433664, Note_on_c, 11, 69, 0
13, 433680, Note_on_c, 11, 69, 76
13, 433744, Note_on_c, 11, 69, 0
13, 433760, Note_on_c, 11, 69, 76
13, 433824, Note_on_c, 11, 69, 0
13, 433840, Note_on_c, 11, 69, 76
13, 433904, Note_on_c, 11, 69, 0
13, 433920, Note_on_c, 11, 93, 84
13, 433984, Note_on_c, 11, 93, 0
13, 434000, Note_on_c, 11, 93, 76
13, 434064, Note_on_c, 11, 93, 0
13, 434080, Note_on_c, 11, 93, 76
13, 434144, Note_on_c, 11, 93, 0
13, 434160, Note_on_c, 11, 93, 76
13, 434224, Note_on_c, 11, 93, 0
13, 434240, Note_on_c, 11, 93, 76
13, 434304, Note_on_c, 11, 93, 0
13, 434320, Note_on_c, 11, 93, 76
13, 434384, Note_on_c, 11, 93, 0
13, 434400, Note_on_c, 11, 93, 76
13, 434464, Note_on_c, 11, 93, 0
13, 434480, Note_on_c, 11, 93, 76
13, 434544, Note_on_c, 11, 93, 0
13, 434560, Note_on_c, 11, 93, 76
13, 434624, Note_on_c, 11, 93, 0
13, 434640, Note_on_c, 11, 93, 76
13, 434704, Note_on_c, 11, 93, 0
13, 434720, Note_on_c, 11, 93, 76
13, 434784, Note_on_c, 11, 93, 0
13, 434800, Note_on_c, 11, 93, 76
13, 434864, Note_on_c, 11, 93, 0
13, 434880, Note_on_c, 11, 69, 84
13, 434944, Note_on_c, 11, 69, 0
13, 434960, Note_on_c, 11, 69, 76
13, 435024, Note_on_c, 11, 69, 0
13, 435040, Note_on_c, 11, 69, 76
13, 435104, Note_on_c, 11, 69, 0
13, 435120, Note_on_c, 11, 69, 76
13, 435184, Note_on_c, 11, 69, 0
13, 435200, Note_on_c, 11, 69, 76
13, 435264, Note_on_c, 11, 69, 0
13, 435280, Note_on_c, 11, 69, 76
13, 435344, Note_on_c, 11, 69, 0
13, 435360, Note_on_c, 11, 69, 76
13, 435424, Note_on_c, 11, 69, 0
13, 435440, Note_on_c, 11, 69, 76
13, 435504, Note_on_c, 11, 69, 0
13, 435520, Note_on_c, 11, 69, 76
13, 435584, Note_on_c, 11, 69, 0
13, 435600, Note_on_c, 11, 69, 76
13, 435664, Note_on_c, 11, 69, 0
13, 435680, Note_on_c, 11, 69, 76
13, 435744, Note_on_c, 11, 69, 0
13, 435760, Note_on_c, 11, 69, 76
13, 435824, Note_on_c, 11, 69, 0
13, 435840, Note_on_c, 11, 93, 84
13, 435904, Note_on_c, 11, 93, 0
13, 435920, Note_on_c, 11, 93, 76
13, 435984, Note_on_c, 11, 93, 0
13, 436000, Note_on_c, 11, 93, 76
13, 436064, Note_on_c, 11, 93, 0
13, 436080, Note_on_c, 11, 93, 76
13, 436144, Note_on_c, 11, 93, 0
13, 436160, Note_on_c, 11, 93, 76
13, 436224, Note_on_c, 11, 93, 0
13, 436240, Note_on_c, 11, 93, 76
13, 436304, Note_on_c, 11, 93, 0
13, 436320, Note_on_c, 11, 69, 84
13, 436384, Note_on_c, 11, 69, 0
13, 436400, Note_on_c, 11, 69, 76
13, 436464, Note_on_c, 11, 69, 0
13, 436480, Note_on_c, 11, 69, 76
13, 436544, Note_on_c, 11, 69, 0
13, 436560, Note_on_c, 11, 69, 76
13, 436624, Note_on_c, 11, 69, 0
13, 436640, Note_on_c, 11, 69, 76
13, 436704, Note_on_c, 11, 69, 0
13, 436720, Note_on_c, 11, 69, 76
13, 436784, Note_on_c, 11, 69, 0
13, 436800, Note_on_c, 11, 93, 84
13, 436864, Note_on_c, 11, 93, 0
13, 436880, Note_on_c, 11, 93, 76
13, 436944, Note_on_c, 11, 93, 0
13, 436960, Note_on_c, 11, 93, 76
13, 437024, Note_on_c, 11, 93, 0
13, 437040, Note_on_c, 11, 93, 76
13, 437104, Note_on_c, 11, 93, 0
13, 437120, Note_on_c, 11, 93, 76
13, 437184, Note_on_c, 11, 93, 0
13, 437200, Note_on_c, 11, 93, 76
13, 437264, Note_on_c, 11, 93, 0
13, 437280, Note_on_c, 11, 69, 84
13, 437344, Note_on_c, 11, 69, 0
13, 437360, Note_on_c, 11, 69, 76
13, 437424, Note_on_c, 11, 69, 0
13, 437440, Note_on_c, 11, 69, 76
13, 437504, Note_on_c, 11, 69, 0
13, 437520, Note_on_c, 11, 69, 76
13, 437584, Note_on_c, 11, 69, 0
13, 437600, Note_on_c, 11, 69, 76
13, 437664, Note_on_c, 11, 69, 0
13, 437680, Note_on_c, 11, 69, 76
13, 437744, Note_on_c, 11, 69, 0
13, 437760, Note_on_c, 11, 93, 84
13, 437824, Note_on_c, 11, 93, 0
13, 437840, Note_on_c, 11, 93, 76
13, 437904, Note_on_c, 11, 93, 0
13, 437920, Note_on_c, 11, 93, 76
13, 437984, Note_on_c, 11, 93, 0
13, 438000, Note_on_c, 11, 93, 76
13, 438064, Note_on_c, 11, 93, 0
13, 438080, Note_on_c, 11, 93, 76
13, 438144, Note_on_c, 11, 93, 0
13, 438160, Note_on_c, 11, 93, 76
13, 438224, Note_on_c, 11, 93, 0
13, 438240, Note_on_c, 11, 69, 84
13, 438304, Note_on_c, 11, 69, 0
13, 438320, Note_on_c, 11, 69, 76
13, 438384, Note_on_c, 11, 69, 0
13, 438400, Note_on_c, 11, 69, 76
13, 438464, Note_on_c, 11, 69, 0
13, 438480, Note_on_c, 11, 69, 76
13, 438544, Note_on_c, 11, 69, 0
13, 438560, Note_on_c, 11, 69, 76
13, 438624, Note_on_c, 11, 69, 0
13, 438640, Note_on_c, 11, 69, 76
13, 438704, Note_on_c, 11, 69, 0
13, 438720, Note_on_c, 11, 93, 84
13, 438784, Note_on_c, 11, 93, 0
13, 438800, Note_on_c, 11, 93, 76
13, 438864, Note_on_c, 11, 93, 0
13, 438880, Note_on_c, 11, 93, 76
13, 438944, Note_on_c, 11, 93, 0
13, 438960, Note_on_c, 11, 93, 76
13, 439024, Note_on_c, 11, 93, 0
13, 439040, Note_on_c, 11, 93, 76
13, 439104, Note_on_c, 11, 93, 0
13, 439120, Note_on_c, 11, 93, 76
13, 439184, Note_on_c, 11, 93, 0
13, 439200, Note_on_c, 11, 69, 84
13, 439264, Note_on_c, 11, 69, 0
13, 439280, Note_on_c, 11, 69, 76
13, 439344, Note_on_c, 11, 69, 0
13, 439360, Note_on_c, 11, 69, 76
13, 439424, Note_on_c, 11, 69, 0
13, 439440, Note_on_c, 11, 69, 76
13, 439504, Note_on_c, 11, 69, 0
13, 439520, Note_on_c, 11, 69, 76
13, 439584, Note_on_c, 11, 69, 0
13, 439600, Note_on_c, 11, 69, 76
13, 439664, Note_on_c, 11, 69, 0
13, 439680, Note_on_c, 11, 93, 76
13, 439744, Note_on_c, 11, 93, 0
13, 439760, Note_on_c, 11, 93, 52
13, 439824, Note_on_c, 11, 93, 0
13, 439840, Note_on_c, 11, 93, 52
13, 439904, Note_on_c, 11, 93, 0
13, 439920, Note_on_c, 11, 93, 52
13, 439984, Note_on_c, 11, 93, 0
13, 440000, Note_on_c, 11, 93, 52
13, 440064, Note_on_c, 11, 93, 0
13, 440080, Note_on_c, 11, 93, 52
13, 440144, Note_on_c, 11, 93, 0
13, 440160, Note_on_c, 11, 93, 52
13, 440224, Note_on_c, 11, 93, 0
13, 440240, Note_on_c, 11, 93, 52
13, 440304, Note_on_c, 11, 93, 0
13, 440320, Note_on_c, 11, 93, 52
13, 440384, Note_on_c, 11, 93, 0
13, 440400, Note_on_c, 11, 93, 52
13, 440464, Note_on_c, 11, 93, 0
13, 440480, Note_on_c, 11, 93, 52
13, 440544, Note_on_c, 11, 93, 0
13, 440560, Note_on_c, 11, 93, 52
13, 440624, Note_on_c, 11, 93, 0
13, 440640, Note_on_c, 11, 69, 52
13, 440704, Note_on_c, 11, 69, 0
13, 440720, Note_on_c, 11, 69, 52
13, 440784, Note_on_c, 11, 69, 0
13, 440800, Note_on_c, 11, 69, 52
13, 440864, Note_on_c, 11, 69, 0
13, 440880, Note_on_c, 11, 69, 52
13, 440944, Note_on_c, 11, 69, 0
13, 440960, Note_on_c, 11, 69, 52
13, 441024, Note_on_c, 11, 69, 0
13, 441040, Note_on_c, 11, 69, 52
13, 441104, Note_on_c, 11, 69, 0
13, 441120, Note_on_c, 11, 69, 52
13, 441184, Note_on_c, 11, 69, 0
13, 441200, Note_on_c, 11, 69, 52
13, 441264, Note_on_c, 11, 69, 0
13, 441280, Note_on_c, 11, 69, 52
13, 441344, Note_on_c, 11, 69, 0
13, 441360, Note_on_c, 11, 69, 52
13, 441424, Note_on_c, 11, 69, 0
13, 441440, Note_on_c, 11, 69, 52
13, 441504, Note_on_c, 11, 69, 0
13, 441520, Note_on_c, 11, 69, 52
13, 441584, Note_on_c, 11, 69, 0
13, 441600, Note_on_c, 11, 69, 52
13, 441664, Note_on_c, 11, 69, 0
13, 441680, Note_on_c, 11, 69, 52
13, 441744, Note_on_c, 11, 69, 0
13, 441760, Note_on_c, 11, 69, 52
13, 441824, Note_on_c, 11, 69, 0
13, 441840, Note_on_c, 11, 69, 52
13, 441904, Note_on_c, 11, 69, 0
13, 441920, Note_on_c, 11, 69, 52
13, 441984, Note_on_c, 11, 69, 0
13, 442000, Note_on_c, 11, 69, 52
13, 442064, Note_on_c, 11, 69, 0
13, 442080, Note_on_c, 11, 69, 52
13, 442144, Note_on_c, 11, 69, 0
13, 442160, Note_on_c, 11, 69, 52
13, 442224, Note_on_c, 11, 69, 0
13, 442240, Note_on_c, 11, 69, 52
13, 442304, Note_on_c, 11, 69, 0
13, 442320, Note_on_c, 11, 69, 52
13, 442384, Note_on_c, 11, 69, 0
13, 442400, Note_on_c, 11, 69, 52
13, 442464, Note_on_c, 11, 69, 0
13, 442480, Note_on_c, 11, 69, 52
13, 442544, Note_on_c, 11, 69, 0
13, 442560, Note_on_c, 11, 69, 52
13, 442624, Note_on_c, 11, 69, 0
13, 442640, Note_on_c, 11, 69, 52
13, 442704, Note_on_c, 11, 69, 0
13, 442720, Note_on_c, 11, 69, 52
13, 442784, Note_on_c, 11, 69, 0
13, 442800, Note_on_c, 11, 69, 52
13, 442864, Note_on_c, 11, 69, 0
13, 442880, Note_on_c, 11, 69, 52
13, 442944, Note_on_c, 11, 69, 0
13, 442960, Note_on_c, 11, 69, 52
13, 443024, Note_on_c, 11, 69, 0
13, 443040, Note_on_c, 11, 69, 52
13, 443104, Note_on_c, 11, 69, 0
13, 443120, Note_on_c, 11, 69, 52
13, 443184, Note_on_c, 11, 69, 0
13, 443200, Note_on_c, 11, 69, 52
13, 443264, Note_on_c, 11, 69, 0
13, 443280, Note_on_c, 11, 69, 52
13, 443344, Note_on_c, 11, 69, 0
13, 443360, Note_on_c, 11, 69, 52
13, 443424, Note_on_c, 11, 69, 0
13, 443440, Note_on_c, 11, 69, 52
13, 443504, Note_on_c, 11, 69, 0
13, 443520, Note_on_c, 11, 69, 52
13, 443584, Note_on_c, 11, 69, 0
13, 443600, Note_on_c, 11, 69, 52
13, 443664, Note_on_c, 11, 69, 0
13, 443680, Note_on_c, 11, 69, 52
13, 443744, Note_on_c, 11, 69, 0
13, 443760, Note_on_c, 11, 69, 52
13, 443824, Note_on_c, 11, 69, 0
13, 443840, Note_on_c, 11, 69, 52
13, 443904, Note_on_c, 11, 69, 0
13, 443920, Note_on_c, 11, 69, 52
13, 443984, Note_on_c, 11, 69, 0
13, 444000, Note_on_c, 11, 69, 52
13, 444064, Note_on_c, 11, 69, 0
13, 444080, Note_on_c, 11, 69, 52
13, 444144, Note_on_c, 11, 69, 0
13, 444160, Note_on_c, 11, 69, 52
13, 444224, Note_on_c, 11, 69, 0
13, 444240, Note_on_c, 11, 69, 52
13, 444304, Note_on_c, 11, 69, 0
13, 444320, Note_on_c, 11, 69, 52
13, 444384, Note_on_c, 11, 69, 0
13, 444400, Note_on_c, 11, 69, 52
13, 444464, Note_on_c, 11, 69, 0
13, 444480, Note_on_c, 11, 69, 52
13, 444544, Note_on_c, 11, 69, 0
13, 444560, Note_on_c, 11, 69, 52
13, 444624, Note_on_c, 11, 69, 0
13, 444640, Note_on_c, 11, 69, 52
13, 444704, Note_on_c, 11, 69, 0
13, 444720, Note_on_c, 11, 69, 52
13, 444784, Note_on_c, 11, 69, 0
13, 444800, Note_on_c, 11, 69, 52
13, 444864, Note_on_c, 11, 69, 0
13, 444880, Note_on_c, 11, 69, 52
13, 444944, Note_on_c, 11, 69, 0
13, 444960, Note_on_c, 11, 69, 52
13, 445024, Note_on_c, 11, 69, 0
13, 445040, Note_on_c, 11, 69, 52
13, 445104, Note_on_c, 11, 69, 0
13, 445120, Note_on_c, 11, 69, 52
13, 445184, Note_on_c, 11, 69, 0
13, 445200, Note_on_c, 11, 69, 52
13, 445264, Note_on_c, 11, 69, 0
13, 445280, Note_on_c, 11, 69, 52
13, 445344, Note_on_c, 11, 69, 0
13, 445360, Note_on_c, 11, 69, 52
13, 445424, Note_on_c, 11, 69, 0
13, 445440, Note_on_c, 11, 69, 52
13, 445504, Note_on_c, 11, 69, 0
13, 445520, Note_on_c, 11, 69, 52
13, 445584, Note_on_c, 11, 69, 0
13, 445600, Note_on_c, 11, 69, 52
13, 445664, Note_on_c, 11, 69, 0
13, 445680, Note_on_c, 11, 69, 52
13, 445744, Note_on_c, 11, 69, 0
13, 445760, Note_on_c, 11, 69, 52
13, 445824, Note_on_c, 11, 69, 0
13, 445840, Note_on_c, 11, 69, 52
13, 445904, Note_on_c, 11, 69, 0
13, 445920, Note_on_c, 11, 69, 52
13, 445984, Note_on_c, 11, 69, 0
13, 446000, Note_on_c, 11, 69, 52
13, 446064, Note_on_c, 11, 69, 0
13, 446080, Note_on_c, 11, 69, 52
13, 446144, Note_on_c, 11, 69, 0
13, 446160, Note_on_c, 11, 69, 52
13, 446224, Note_on_c, 11, 69, 0
13, 446240, Note_on_c, 11, 69, 52
13, 446304, Note_on_c, 11, 69, 0
13, 446320, Note_on_c, 11, 69, 52
13, 446384, Note_on_c, 11, 69, 0
13, 446400, Note_on_c, 11, 69, 52
13, 446464, Note_on_c, 11, 69, 0
13, 446480, Note_on_c, 11, 69, 52
13, 446544, Note_on_c, 11, 69, 0
13, 446560, Note_on_c, 11, 69, 52
13, 446624, Note_on_c, 11, 69, 0
13, 446640, Note_on_c, 11, 69, 52
13, 446704, Note_on_c, 11, 69, 0
13, 446720, Note_on_c, 11, 69, 52
13, 446784, Note_on_c, 11, 69, 0
13, 446800, Note_on_c, 11, 69, 52
13, 446864, Note_on_c, 11, 69, 0
13, 446880, Note_on_c, 11, 69, 52
13, 446944, Note_on_c, 11, 69, 0
13, 446960, Note_on_c, 11, 69, 52
13, 447024, Note_on_c, 11, 69, 0
13, 447040, Note_on_c, 11, 69, 52
13, 447104, Note_on_c, 11, 69, 0
13, 447120, Note_on_c, 11, 69, 52
13, 447184, Note_on_c, 11, 69, 0
13, 447200, Note_on_c, 11, 69, 52
13, 447264, Note_on_c, 11, 69, 0
13, 447280, Note_on_c, 11, 69, 52
13, 447344, Note_on_c, 11, 69, 0
13, 447360, Note_on_c, 11, 93, 52
13, 447424, Note_on_c, 11, 93, 0
13, 447440, Note_on_c, 11, 93, 52
13, 447504, Note_on_c, 11, 93, 0
13, 447520, Note_on_c, 11, 93, 52
13, 447584, Note_on_c, 11, 93, 0
13, 447600, Note_on_c, 11, 93, 52
13, 447664, Note_on_c, 11, 93, 0
13, 447680, Note_on_c, 11, 93, 52
13, 447744, Note_on_c, 11, 93, 0
13, 447760, Note_on_c, 11, 93, 52
13, 447824, Note_on_c, 11, 93, 0
13, 447840, Note_on_c, 11, 69, 52
13, 447904, Note_on_c, 11, 69, 0
13, 447920, Note_on_c, 11, 69, 52
13, 447984, Note_on_c, 11, 69, 0
13, 448000, Note_on_c, 11, 69, 52
13, 448064, Note_on_c, 11, 69, 0
13, 448080, Note_on_c, 11, 69, 52
13, 448144, Note_on_c, 11, 69, 0
13, 448160, Note_on_c, 11, 69, 52
13, 448224, Note_on_c, 11, 69, 0
13, 448240, Note_on_c, 11, 69, 52
13, 448304, Note_on_c, 11, 69, 0
13, 448320, Note_on_c, 11, 69, 52
13, 448384, Note_on_c, 11, 69, 0
13, 448400, Note_on_c, 11, 69, 52
13, 448464, Note_on_c, 11, 69, 0
13, 448480, Note_on_c, 11, 69, 52
13, 448544, Note_on_c, 11, 69, 0
13, 448560, Note_on_c, 11, 69, 52
13, 448624, Note_on_c, 11, 69, 0
13, 448640, Note_on_c, 11, 69, 52
13, 448704, Note_on_c, 11, 69, 0
13, 448720, Note_on_c, 11, 69, 52
13, 448784, Note_on_c, 11, 69, 0
13, 448800, Note_on_c, 11, 69, 52
13, 448864, Note_on_c, 11, 69, 0
13, 448880, Note_on_c, 11, 69, 52
13, 448944, Note_on_c, 11, 69, 0
13, 448960, Note_on_c, 11, 69, 52
13, 449024, Note_on_c, 11, 69, 0
13, 449040, Note_on_c, 11, 69, 52
13, 449104, Note_on_c, 11, 69, 0
13, 449120, Note_on_c, 11, 69, 52
13, 449184, Note_on_c, 11, 69, 0
13, 449200, Note_on_c, 11, 69, 52
13, 449264, Note_on_c, 11, 69, 0
13, 449280, Note_on_c, 11, 69, 52
13, 449344, Note_on_c, 11, 69, 0
13, 449360, Note_on_c, 11, 69, 52
13, 449424, Note_on_c, 11, 69, 0
13, 449440, Note_on_c, 11, 69, 52
13, 449504, Note_on_c, 11, 69, 0
13, 449520, Note_on_c, 11, 69, 52
13, 449584, Note_on_c, 11, 69, 0
13, 449600, Note_on_c, 11, 69, 52
13, 449664, Note_on_c, 11, 69, 0
13, 449680, Note_on_c, 11, 69, 52
13, 449744, Note_on_c, 11, 69, 0
13, 449760, Note_on_c, 11, 69, 52
13, 449824, Note_on_c, 11, 69, 0
13, 449840, Note_on_c, 11, 69, 52
13, 449904, Note_on_c, 11, 69, 0
13, 449920, Note_on_c, 11, 69, 52
13, 449984, Note_on_c, 11, 69, 0
13, 450000, Note_on_c, 11, 69, 52
13, 450064, Note_on_c, 11, 69, 0
13, 450080, Note_on_c, 11, 69, 52
13, 450144, Note_on_c, 11, 69, 0
13, 450160, Note_on_c, 11, 69, 52
13, 450224, Note_on_c, 11, 69, 0
13, 450240, Note_on_c, 11, 69, 52
13, 450304, Note_on_c, 11, 69, 0
13, 450320, Note_on_c, 11, 69, 52
13, 450384, Note_on_c, 11, 69, 0
13, 450400, Note_on_c, 11, 69, 52
13, 450464, Note_on_c, 11, 69, 0
13, 450480, Note_on_c, 11, 69, 52
13, 450544, Note_on_c, 11, 69, 0
13, 450560, Note_on_c, 11, 69, 52
13, 450624, Note_on_c, 11, 69, 0
13, 450640, Note_on_c, 11, 69, 52
13, 450704, Note_on_c, 11, 69, 0
13, 450720, Note_on_c, 11, 69, 52
13, 450784, Note_on_c, 11, 69, 0
13, 450800, Note_on_c, 11, 69, 52
13, 450864, Note_on_c, 11, 69, 0
13, 450880, Note_on_c, 11, 69, 52
13, 450944, Note_on_c, 11, 69, 0
13, 450960, Note_on_c, 11, 69, 52
13, 451024, Note_on_c, 11, 69, 0
13, 451040, Note_on_c, 11, 69, 52
13, 451104, Note_on_c, 11, 69, 0
13, 451120, Note_on_c, 11, 69, 52
13, 451184, Note_on_c, 11, 69, 0
13, 451200, Note_on_c, 11, 93, 52
13, 451439, Note_on_c, 11, 93, 0
13, 453120, Note_on_c, 11, 69, 44
13, 453239, Note_on_c, 11, 69, 0
13, 453240, Note_on_c, 11, 70, 44
13, 453339, Note_on_c, 11, 70, 0
13, 453360, Note_on_c, 11, 67, 44
13, 453519, Note_on_c, 11, 67, 0
13, 453600, Note_on_c, 11, 69, 44
13, 453719, Note_on_c, 11, 69, 0
13, 453720, Note_on_c, 11, 70, 44
13, 453819, Note_on_c, 11, 70, 0
13, 453840, Note_on_c, 11, 67, 44
13, 453999, Note_on_c, 11, 67, 0
13, 454080, Note_on_c, 11, 69, 44
13, 454199, Note_on_c, 11, 69, 0
13, 454200, Note_on_c, 11, 70, 44
13, 454299, Note_on_c, 11, 70, 0
13, 454320, Note_on_c, 11, 67, 44
13, 454479, Note_on_c, 11, 67, 0
13, 454560, Note_on_c, 11, 69, 44
13, 454679, Note_on_c, 11, 69, 0
13, 454680, Note_on_c, 11, 70, 44
13, 454779, Note_on_c, 11, 70, 0
13, 454800, Note_on_c, 11, 67, 44
13, 454959, Note_on_c, 11, 67, 0
13, 455040, Note_on_c, 11, 69, 44
13, 455279, Note_on_c, 11, 69, 0
13, 456960, Note_on_c, 11, 81, 44
13, 457079, Note_on_c, 11, 81, 0
13, 457080, Note_on_c, 11, 82, 45
13, 457179, Note_on_c, 11, 82, 0
13, 457200, Note_on_c, 11, 79, 46
13, 457359, Note_on_c, 11, 79, 0
13, 457440, Note_on_c, 11, 81, 48
13, 457559, Note_on_c, 11, 81, 0
13, 457560, Note_on_c, 11, 82, 49
13, 457659, Note_on_c, 11, 82, 0
13, 457680, Note_on_c, 11, 79, 50
13, 457839, Note_on_c, 11, 79, 0
13, 457920, Note_on_c, 11, 81, 52
13, 458039, Note_on_c, 11, 81, 0
13, 458040, Note_on_c, 11, 82, 53
13, 458139, Note_on_c, 11, 82, 0
13, 458160, Note_on_c, 11, 79, 54
13, 458319, Note_on_c, 11, 79, 0
13, 458400, Note_on_c, 11, 81, 56
13, 458519, Note_on_c, 11, 81, 0
13, 458520, Note_on_c, 11, 82, 57
13, 458619, Note_on_c, 11, 82, 0
13, 458640, Note_on_c, 11, 79, 58
13, 458799, Note_on_c, 11, 79, 0
13, 458880, Note_on_c, 11, 86, 60
13, 458999, Note_on_c, 11, 86, 0
13, 459000, Note_on_c, 11, 88, 61
13, 459099, Note_on_c, 11, 88, 0
13, 459120, Note_on_c, 11, 84, 62
13, 459279, Note_on_c, 11, 84, 0
13, 459360, Note_on_c, 11, 86, 64
13, 459479, Note_on_c, 11, 86, 0
13, 459480, Note_on_c, 11, 88, 65
13, 459579, Note_on_c, 11, 88, 0
13, 459600, Note_on_c, 11, 84, 66
13, 459759, Note_on_c, 11, 84, 0
13, 459840, Note_on_c, 11, 86, 68
13, 459959, Note_on_c, 11, 86, 0
13, 459960, Note_on_c, 11, 88, 69
13, 460059, Note_on_c, 11, 88, 0
13, 460080, Note_on_c, 11, 84, 70
13, 460239, Note_on_c, 11, 84, 0
13, 460320, Note_on_c, 11, 86, 72
13, 460439, Note_on_c, 11, 86, 0
13, 460440, Note_on_c, 11, 88, 73
13, 460539, Note_on_c, 11, 88, 0
13, 460560, Note_on_c, 11, 84, 74
13, 460719, Note_on_c, 11, 84, 0
13, 460800, Note_on_c, 11, 89, 76
13, 460800, Note_on_c, 11, 69, 76
13, 460864, Note_on_c, 11, 89, 0
13, 460864, Note_on_c, 11, 69, 0
13, 460880, Note_on_c, 11, 69, 76
13, 460880, Note_on_c, 11, 89, 76
13, 460944, Note_on_c, 11, 69, 0
13, 460944, Note_on_c, 11, 89, 0
13, 460960, Note_on_c, 11, 89, 76
13, 460960, Note_on_c, 11, 69, 76
13, 461024, Note_on_c, 11, 89, 0
13, 461024, Note_on_c, 11, 69, 0
13, 461040, Note_on_c, 11, 89, 76
13, 461040, Note_on_c, 11, 69, 76
13, 461104, Note_on_c, 11, 89, 0
13, 461104, Note_on_c, 11, 69, 0
13, 461120, Note_on_c, 11, 69, 76
13, 461120, Note_on_c, 11, 89, 76
13, 461184, Note_on_c, 11, 69, 0
13, 461184, Note_on_c, 11, 89, 0
13, 461200, Note_on_c, 11, 69, 76
13, 461200, Note_on_c, 11, 89, 76
13, 461264, Note_on_c, 11, 69, 0
13, 461264, Note_on_c, 11, 89, 0
13, 461280, Note_on_c, 11, 69, 76
13, 461280, Note_on_c, 11, 89, 76
13, 461344, Note_on_c, 11, 69, 0
13, 461344, Note_on_c, 11, 89, 0
13, 461360, Note_on_c, 11, 89, 76
13, 461360, Note_on_c, 11, 69, 76
13, 461424, Note_on_c, 11, 89, 0
13, 461424, Note_on_c, 11, 69, 0
13, 461440, Note_on_c, 11, 89, 76
13, 461440, Note_on_c, 11, 69, 76
13, 461504, Note_on_c, 11, 89, 0
13, 461504, Note_on_c, 11, 69, 0
13, 461520, Note_on_c, 11, 89, 76
13, 461520, Note_on_c, 11, 69, 76
13, 461584, Note_on_c, 11, 89, 0
13, 461584, Note_on_c, 11, 69, 0
13, 461600, Note_on_c, 11, 69, 76
13, 461600, Note_on_c, 11, 89, 76
13, 461664, Note_on_c, 11, 69, 0
13, 461664, Note_on_c, 11, 89, 0
13, 461680, Note_on_c, 11, 89, 76
13, 461680, Note_on_c, 11, 69, 76
13, 461744, Note_on_c, 11, 89, 0
13, 461744, Note_on_c, 11, 69, 0
13, 461760, Note_on_c, 11, 69, 76
13, 461760, Note_on_c, 11, 89, 76
13, 461824, Note_on_c, 11, 69, 0
13, 461824, Note_on_c, 11, 89, 0
13, 461840, Note_on_c, 11, 89, 76
13, 461840, Note_on_c, 11, 69, 76
13, 461904, Note_on_c, 11, 89, 0
13, 461904, Note_on_c, 11, 69, 0
13, 461920, Note_on_c, 11, 69, 76
13, 461920, Note_on_c, 11, 89, 76
13, 461984, Note_on_c, 11, 69, 0
13, 461984, Note_on_c, 11, 89, 0
13, 462000, Note_on_c, 11, 89, 76
13, 462000, Note_on_c, 11, 69, 76
13, 462064, Note_on_c, 11, 89, 0
13, 462064, Note_on_c, 11, 69, 0
13, 462080, Note_on_c, 11, 69, 76
13, 462080, Note_on_c, 11, 89, 76
13, 462144, Note_on_c, 11, 69, 0
13, 462144, Note_on_c, 11, 89, 0
13, 462160, Note_on_c, 11, 89, 76
13, 462160, Note_on_c, 11, 69, 76
13, 462224, Note_on_c, 11, 89, 0
13, 462224, Note_on_c, 11, 69, 0
13, 462240, Note_on_c, 11, 89, 76
13, 462240, Note_on_c, 11, 69, 76
13, 462304, Note_on_c, 11, 89, 0
13, 462304, Note_on_c, 11, 69, 0
13, 462320, Note_on_c, 11, 69, 76
13, 462320, Note_on_c, 11, 89, 76
13, 462384, Note_on_c, 11, 69, 0
13, 462384, Note_on_c, 11, 89, 0
13, 462400, Note_on_c, 11, 89, 76
13, 462400, Note_on_c, 11, 69, 76
13, 462464, Note_on_c, 11, 89, 0
13, 462464, Note_on_c, 11, 69, 0
13, 462480, Note_on_c, 11, 69, 76
13, 462480, Note_on_c, 11, 89, 76
13, 462544, Note_on_c, 11, 69, 0
13, 462544, Note_on_c, 11, 89, 0
13, 462560, Note_on_c, 11, 69, 76
13, 462560, Note_on_c, 11, 89, 76
13, 462624, Note_on_c, 11, 69, 0
13, 462624, Note_on_c, 11, 89, 0
13, 462640, Note_on_c, 11, 89, 76
13, 462640, Note_on_c, 11, 69, 76
13, 462704, Note_on_c, 11, 89, 0
13, 462704, Note_on_c, 11, 69, 0
13, 462720, Note_on_c, 11, 69, 76
13, 462720, Note_on_c, 11, 89, 76
13, 462959, Note_on_c, 11, 69, 0
13, 462959, Note_on_c, 11, 89, 0
13, 463680, Note_on_c, 11, 91, 76
13, 463919, Note_on_c, 11, 91, 0
13, 464640, Note_on_c, 11, 69, 76
13, 464640, Note_on_c, 11, 89, 76
13, 464879, Note_on_c, 11, 69, 0
13, 464879, Note_on_c, 11, 89, 0
13, 465600, Note_on_c, 11, 91, 76
13, 465839, Note_on_c, 11, 91, 0
13, 466560, Note_on_c, 11, 69, 76
13, 466560, Note_on_c, 11, 89, 76
13, 466799, Note_on_c, 11, 69, 0
13, 466799, Note_on_c, 11, 89, 0
13, 467040, Note_on_c, 11, 91, 76
13, 467279, Note_on_c, 11, 91, 0
13, 467520, Note_on_c, 11, 69, 76
13, 467520, Note_on_c, 11, 89, 76
13, 467759, Note_on_c, 11, 69, 0
13, 467759, Note_on_c, 11, 89, 0
13, 468000, Note_on_c, 11, 91, 76
13, 468239, Note_on_c, 11, 91, 0
13, 468480, Note_on_c, 11, 89, 76
13, 468480, Note_on_c, 11, 69, 76
13, 468719, Note_on_c, 11, 89, 0
13, 468719, Note_on_c, 11, 69, 0
13, 468960, Note_on_c, 11, 91, 76
13, 469199, Note_on_c, 11, 91, 0
13, 469440, Note_on_c, 11, 89, 76
13, 469440, Note_on_c, 11, 69, 76
13, 469679, Note_on_c, 11, 89, 0
13, 469679, Note_on_c, 11, 69, 0
13, 469920, Note_on_c, 11, 91, 76
13, 470159, Note_on_c, 11, 91, 0
13, 470400, Note_on_c, 11, 69, 84
13, 470400, Note_on_c, 11, 93, 84
13, 470464, Note_on_c, 11, 69, 0
13, 470464, Note_on_c, 11, 93, 0
13, 470480, Note_on_c, 11, 93, 84
13, 470480, Note_on_c, 11, 69, 84
13, 470544, Note_on_c, 11, 93, 0
13, 470544, Note_on_c, 11, 69, 0
13, 470560, Note_on_c, 11, 69, 84
13, 470560, Note_on_c, 11, 93, 84
13, 470624, Note_on_c, 11, 69, 0
13, 470624, Note_on_c, 11, 93, 0
13, 470640, Note_on_c, 11, 69, 84
13, 470640, Note_on_c, 11, 93, 84
13, 470704, Note_on_c, 11, 69, 0
13, 470704, Note_on_c, 11, 93, 0
13, 470720, Note_on_c, 11, 69, 84
13, 470720, Note_on_c, 11, 93, 84
13, 470784, Note_on_c, 11, 69, 0
13, 470784, Note_on_c, 11, 93, 0
13, 470800, Note_on_c, 11, 69, 84
13, 470800, Note_on_c, 11, 93, 84
13, 470864, Note_on_c, 11, 69, 0
13, 470864, Note_on_c, 11, 93, 0
13, 470880, Note_on_c, 11, 69, 84
13, 470880, Note_on_c, 11, 93, 84
13, 470944, Note_on_c, 11, 69, 0
13, 470944, Note_on_c, 11, 93, 0
13, 470960, Note_on_c, 11, 69, 84
13, 470960, Note_on_c, 11, 93, 84
13, 471024, Note_on_c, 11, 69, 0
13, 471024, Note_on_c, 11, 93, 0
13, 471040, Note_on_c, 11, 93, 84
13, 471040, Note_on_c, 11, 69, 84
13, 471104, Note_on_c, 11, 93, 0
13, 471104, Note_on_c, 11, 69, 0
13, 471120, Note_on_c, 11, 69, 84
13, 471120, Note_on_c, 11, 93, 84
13, 471184, Note_on_c, 11, 69, 0
13, 471184, Note_on_c, 11, 93, 0
13, 471200, Note_on_c, 11, 69, 84
13, 471200, Note_on_c, 11, 93, 84
13, 471264, Note_on_c, 11, 69, 0
13, 471264, Note_on_c, 11, 93, 0
13, 471280, Note_on_c, 11, 93, 84
13, 471280, Note_on_c, 11, 69, 84
13, 471344, Note_on_c, 11, 93, 0
13, 471344, Note_on_c, 11, 69, 0
13, 471360, Note_on_c, 11, 93, 84
13, 471360, Note_on_c, 11, 69, 84
13, 471424, Note_on_c, 11, 93, 0
13, 471424, Note_on_c, 11, 69, 0
13, 471440, Note_on_c, 11, 69, 84
13, 471440, Note_on_c, 11, 93, 84
13, 471504, Note_on_c, 11, 69, 0
13, 471504, Note_on_c, 11, 93, 0
13, 471520, Note_on_c, 11, 93, 84
13, 471520, Note_on_c, 11, 69, 84
13, 471584, Note_on_c, 11, 93, 0
13, 471584, Note_on_c, 11, 69, 0
13, 471600, Note_on_c, 11, 69, 84
13, 471600, Note_on_c, 11, 93, 84
13, 471664, Note_on_c, 11, 69, 0
13, 471664, Note_on_c, 11, 93, 0
13, 471680, Note_on_c, 11, 93, 84
13, 471680, Note_on_c, 11, 69, 84
13, 471744, Note_on_c, 11, 93, 0
13, 471744, Note_on_c, 11, 69, 0
13, 471760, Note_on_c, 11, 93, 84
13, 471760, Note_on_c, 11, 69, 84
13, 471824, Note_on_c, 11, 93, 0
13, 471824, Note_on_c, 11, 69, 0
13, 471840, Note_on_c, 11, 69, 84
13, 471840, Note_on_c, 11, 93, 84
13, 471904, Note_on_c, 11, 69, 0
13, 471904, Note_on_c, 11, 93, 0
13, 471920, Note_on_c, 11, 93, 84
13, 471920, Note_on_c, 11, 69, 84
13, 471984, Note_on_c, 11, 93, 0
13, 471984, Note_on_c, 11, 69, 0
13, 472000, Note_on_c, 11, 93, 84
13, 472000, Note_on_c, 11, 69, 84
13, 472064, Note_on_c, 11, 93, 0
13, 472064, Note_on_c, 11, 69, 0
13, 472080, Note_on_c, 11, 93, 84
13, 472080, Note_on_c, 11, 69, 84
13, 472144, Note_on_c, 11, 93, 0
13, 472144, Note_on_c, 11, 69, 0
13, 472160, Note_on_c, 11, 69, 84
13, 472160, Note_on_c, 11, 93, 84
13, 472224, Note_on_c, 11, 69, 0
13, 472224, Note_on_c, 11, 93, 0
13, 472240, Note_on_c, 11, 93, 84
13, 472240, Note_on_c, 11, 69, 84
13, 472304, Note_on_c, 11, 93, 0
13, 472304, Note_on_c, 11, 69, 0
13, 472320, Note_on_c, 11, 93, 84
13, 472320, Note_on_c, 11, 69, 84
13, 472559, Note_on_c, 11, 93, 0
13, 472559, Note_on_c, 11, 69, 0
13, 473280, Note_on_c, 11, 69, 84
13, 473280, Note_on_c, 11, 93, 84
13, 473519, Note_on_c, 11, 69, 0
13, 473519, Note_on_c, 11, 93, 0
13, 474240, Note_on_c, 11, 69, 84
13, 474240, Note_on_c, 11, 93, 84
13, 474479, Note_on_c, 11, 69, 0
13, 474479, Note_on_c, 11, 93, 0
13, 475200, Note_on_c, 11, 69, 84
13, 475200, Note_on_c, 11, 93, 84
13, 475439, Note_on_c, 11, 69, 0
13, 475439, Note_on_c, 11, 93, 0
13, 476160, Note_on_c, 11, 93, 84
13, 476160, Note_on_c, 11, 69, 84
13, 476399, Note_on_c, 11, 93, 0
13, 476399, Note_on_c, 11, 69, 0
13, 476640, Note_on_c, 11, 93, 84
13, 476640, Note_on_c, 11, 69, 84
13, 476879, Note_on_c, 11, 93, 0
13, 476879, Note_on_c, 11, 69, 0
13, 477120, Note_on_c, 11, 93, 84
13, 477120, Note_on_c, 11, 69, 84
13, 477359, Note_on_c, 11, 93, 0
13, 477359, Note_on_c, 11, 69, 0
13, 477600, Note_on_c, 11, 93, 84
13, 477600, Note_on_c, 11, 69, 84
13, 477839, Note_on_c, 11, 93, 0
13, 477839, Note_on_c, 11, 69, 0
13, 478080, Note_on_c, 11, 93, 84
13, 478080, Note_on_c, 11, 69, 84
13, 478319, Note_on_c, 11, 93, 0
13, 478319, Note_on_c, 11, 69, 0
13, 478560, Note_on_c, 11, 93, 84
13, 478560, Note_on_c, 11, 69, 84
13, 478799, Note_on_c, 11, 93, 0
13, 478799, Note_on_c, 11, 69, 0
13, 479040, Note_on_c, 11, 93, 84
13, 479040, Note_on_c, 11, 69, 84
13, 479279, Note_on_c, 11, 93, 0
13, 479279, Note_on_c, 11, 69, 0
13, 479520, Note_on_c, 11, 93, 84
13, 479520, Note_on_c, 11, 69, 84
13, 479759, Note_on_c, 11, 93, 0
13, 479759, Note_on_c, 11, 69, 0
13, 480000, Note_on_c, 11, 93, 84
13, 480000, Note_on_c, 11, 69, 84
13, 480239, Note_on_c, 11, 93, 0
13, 480239, Note_on_c, 11, 69, 0
13, 480960, Note_on_c, 11, 93, 84
13, 480960, Note_on_c, 11, 69, 84
13, 481199, Note_on_c, 11, 93, 0
13, 481199, Note_on_c, 11, 69, 0
13, 481920, Note_on_c, 11, 89, 84
13, 481920, Note_on_c, 11, 69, 84
13, 482159, Note_on_c, 11, 89, 0
13, 482159, Note_on_c, 11, 69, 0
13, 482159, End_track
14, 0, Start_track
14, 0, Title_t, "Violin II"
14, 0, MIDI_port, 0
14, 0, Program_c, 12, 48
14, 0, Control_c, 12, 7, 96
14, 0, Control_c, 12, 10, 24
14, 0, Control_c, 12, 11, 127
14, 480, Note_on_c, 12, 65, 44
14, 544, Note_on_c, 12, 65, 0
14, 560, Note_on_c, 12, 65, 44
14, 624, Note_on_c, 12, 65, 0
14, 640, Note_on_c, 12, 65, 44
14, 704, Note_on_c, 12, 65, 0
14, 720, Note_on_c, 12, 65, 44
14, 784, Note_on_c, 12, 65, 0
14, 800, Note_on_c, 12, 65, 44
14, 864, Note_on_c, 12, 65, 0
14, 880, Note_on_c, 12, 65, 44
14, 944, Note_on_c, 12, 65, 0
14, 960, Note_on_c, 12, 65, 44
14, 1079, Note_on_c, 12, 65, 0
14, 1080, Note_on_c, 12, 67, 44
14, 1179, Note_on_c, 12, 67, 0
14, 1200, Note_on_c, 12, 60, 44
14, 1359, Note_on_c, 12, 60, 0
14, 1440, Note_on_c, 12, 65, 44
14, 1559, Note_on_c, 12, 65, 0
14, 1560, Note_on_c, 12, 67, 44
14, 1659, Note_on_c, 12, 67, 0
14, 1680, Note_on_c, 12, 60, 44
14, 1839, Note_on_c, 12, 60, 0
14, 1920, Note_on_c, 12, 65, 44
14, 2039, Note_on_c, 12, 65, 0
14, 2040, Note_on_c, 12, 67, 44
14, 2139, Note_on_c, 12, 67, 0
14, 2160, Note_on_c, 12, 60, 44
14, 2319, Note_on_c, 12, 60, 0
14, 2390, Note_on_c, 12, 67, 44
14, 2454, Note_on_c, 12, 67, 0
14, 2470, Note_on_c, 12, 67, 44
14, 2534, Note_on_c, 12, 67, 0
14, 2550, Note_on_c, 12, 67, 44
14, 2614, Note_on_c, 12, 67, 0
14, 2630, Note_on_c, 12, 67, 44
14, 2694, Note_on_c, 12, 67, 0
14, 2710, Note_on_c, 12, 67, 44
14, 2774, Note_on_c, 12, 67, 0
14, 2790, Note_on_c, 12, 67, 44
14, 2854, Note_on_c, 12, 67, 0
14, 2880, Note_on_c, 12, 67, 44
14, 2999, Note_on_c, 12, 67, 0
14, 3000, Note_on_c, 12, 69, 44
14, 3099, Note_on_c, 12, 69, 0
14, 3120, Note_on_c, 12, 65, 44
14, 3279, Note_on_c, 12, 65, 0
14, 3360, Note_on_c, 12, 67, 44
14, 3479, Note_on_c, 12, 67, 0
14, 3480, Note_on_c, 12, 69, 44
14, 3579, Note_on_c, 12, 69, 0
14, 3600, Note_on_c, 12, 65, 44
14, 3759, Note_on_c, 12, 65, 0
14, 3840, Note_on_c, 12, 67, 44
14, 3959, Note_on_c, 12, 67, 0
14, 3960, Note_on_c, 12, 69, 44
14, 4059, Note_on_c, 12, 69, 0
14, 4080, Note_on_c, 12, 65, 44
14, 4239, Note_on_c, 12, 65, 0
14, 4320, Note_on_c, 12, 72, 44
14, 4384, Note_on_c, 12, 72, 0
14, 4400, Note_on_c, 12, 72, 44
14, 4464, Note_on_c, 12, 72, 0
14, 4480, Note_on_c, 12, 72, 44
14, 4544, Note_on_c, 12, 72, 0
14, 4560, Note_on_c, 12, 70, 44
14, 4624, Note_on_c, 12, 70, 0
14, 4640, Note_on_c, 12, 70, 44
14, 4704, Note_on_c, 12, 70, 0
14, 4720, Note_on_c, 12, 70, 44
14, 4784, Note_on_c, 12, 70, 0
14, 4800, Note_on_c, 12, 69, 44
14, 4864, Note_on_c, 12, 69, 0
14, 4880, Note_on_c, 12, 69, 44
14, 4944, Note_on_c, 12, 69, 0
14, 4960, Note_on_c, 12, 69, 44
14, 5024, Note_on_c, 12, 69, 0
14, 5040, Note_on_c, 12, 69, 44
14, 5104, Note_on_c, 12, 69, 0
14, 5120, Note_on_c, 12, 69, 44
14, 5184, Note_on_c, 12, 69, 0
14, 5200, Note_on_c, 12, 69, 44
14, 5264, Note_on_c, 12, 69, 0
14, 5280, Note_on_c, 12, 69, 44
14, 5344, Note_on_c, 12, 69, 0
14, 5360, Note_on_c, 12, 69, 44
14, 5424, Note_on_c, 12, 69, 0
14, 5440, Note_on_c, 12, 69, 44
14, 5504, Note_on_c, 12, 69, 0
14, 5520, Note_on_c, 12, 67, 44
14, 5584, Note_on_c, 12, 67, 0
14, 5600, Note_on_c, 12, 67, 44
14, 5664, Note_on_c, 12, 67, 0
14, 5680, Note_on_c, 12, 67, 44
14, 5744, Note_on_c, 12, 67, 0
14, 5760, Note_on_c, 12, 65, 44
14, 5824, Note_on_c, 12, 65, 0
14, 5840, Note_on_c, 12, 77, 44
14, 5904, Note_on_c, 12, 77, 0
14, 5920, Note_on_c, 12, 77, 44
14, 5984, Note_on_c, 12, 77, 0
14, 6000, Note_on_c, 12, 77, 44
14, 6064, Note_on_c, 12, 77, 0
14, 6080, Note_on_c, 12, 77, 44
14, 6144, Note_on_c, 12, 77, 0
14, 6160, Note_on_c, 12, 77, 44
14, 6224, Note_on_c, 12, 77, 0
14, 6240, Note_on_c, 12, 77, 44
14, 6304, Note_on_c, 12, 77, 0
14, 6320, Note_on_c, 12, 77, 44
14, 6384, Note_on_c, 12, 77, 0
14, 6400, Note_on_c, 12, 77, 44
14, 6464, Note_on_c, 12, 77, 0
14, 6480, Note_on_c, 12, 76, 44
14, 6544, Note_on_c, 12, 76, 0
14, 6560, Note_on_c, 12, 76, 44
14, 6624, Note_on_c, 12, 76, 0
14, 6640, Note_on_c, 12, 76, 44
14, 6704, Note_on_c, 12, 76, 0
14, 6720, Note_on_c, 12, 74, 44
14, 6784, Note_on_c, 12, 74, 0
14, 6800, Note_on_c, 12, 74, 44
14, 6864, Note_on_c, 12, 74, 0
14, 6880, Note_on_c, 12, 74, 44
14, 6944, Note_on_c, 12, 74, 0
14, 6960, Note_on_c, 12, 72, 44
14, 7024, Note_on_c, 12, 72, 0
14, 7040, Note_on_c, 12, 72, 44
14, 7104, Note_on_c, 12, 72, 0
14, 7120, Note_on_c, 12, 72, 44
14, 7184, Note_on_c, 12, 72, 0
14, 7200, Note_on_c, 12, 74, 44
14, 7264, Note_on_c, 12, 74, 0
14, 7280, Note_on_c, 12, 74, 44
14, 7344, Note_on_c, 12, 74, 0
14, 7360, Note_on_c, 12, 74, 44
14, 7424, Note_on_c, 12, 74, 0
14, 7440, Note_on_c, 12, 76, 44
14, 7504, Note_on_c, 12, 76, 0
14, 7520, Note_on_c, 12, 76, 44
14, 7584, Note_on_c, 12, 76, 0
14, 7600, Note_on_c, 12, 76, 44
14, 7664, Note_on_c, 12, 76, 0
14, 7680, Note_on_c, 12, 77, 44
14, 7744, Note_on_c, 12, 77, 0
14, 7760, Note_on_c, 12, 65, 44
14, 7824, Note_on_c, 12, 65, 0
14, 7840, Note_on_c, 12, 65, 44
14, 7904, Note_on_c, 12, 65, 0
14, 7920, Note_on_c, 12, 67, 44
14, 7984, Note_on_c, 12, 67, 0
14, 8000, Note_on_c, 12, 67, 44
14, 8064, Note_on_c, 12, 67, 0
14, 8080, Note_on_c, 12, 67, 44
14, 8144, Note_on_c, 12, 67, 0
14, 8160, Note_on_c, 12, 69, 44
14, 8224, Note_on_c, 12, 69, 0
14, 8240, Note_on_c, 12, 69, 44
14, 8304, Note_on_c, 12, 69, 0
14, 8320, Note_on_c, 12, 69, 44
14, 8384, Note_on_c, 12, 69, 0
14, 8400, Note_on_c, 12, 72, 44
14, 8464, Note_on_c, 12, 72, 0
14, 8480, Note_on_c, 12, 72, 44
14, 8544, Note_on_c, 12, 72, 0
14, 8560, Note_on_c, 12, 72, 44
14, 8624, Note_on_c, 12, 72, 0
14, 8640, Note_on_c, 12, 72, 44
14, 8704, Note_on_c, 12, 72, 0
14, 8720, Note_on_c, 12, 60, 44
14, 8720, Note_on_c, 12, 64, 44
14, 8784, Note_on_c, 12, 60, 0
14, 8784, Note_on_c, 12, 64, 0
14, 8800, Note_on_c, 12, 64, 44
14, 8800, Note_on_c, 12, 60, 44
14, 8864, Note_on_c, 12, 64, 0
14, 8864, Note_on_c, 12, 60, 0
14, 8880, Note_on_c, 12, 60, 44
14, 8880, Note_on_c, 12, 64, 44
14, 8944, Note_on_c, 12, 60, 0
14, 8944, Note_on_c, 12, 64, 0
14, 8960, Note_on_c, 12, 60, 44
14, 8960, Note_on_c, 12, 64, 44
14, 9024, Note_on_c, 12, 60, 0
14, 9024, Note_on_c, 12, 64, 0
14, 9040, Note_on_c, 12, 60, 44
14, 9040, Note_on_c, 12, 64, 44
14, 9104, Note_on_c, 12, 60, 0
14, 9104, Note_on_c, 12, 64, 0
14, 9120, Note_on_c, 12, 62, 44
14, 9120, Note_on_c, 12, 60, 44
14, 9184, Note_on_c, 12, 62, 0
14, 9184, Note_on_c, 12, 60, 0
14, 9200, Note_on_c, 12, 62, 44
14, 9200, Note_on_c, 12, 60, 44
14, 9264, Note_on_c, 12, 62, 0
14, 9264, Note_on_c, 12, 60, 0
14, 9280, Note_on_c, 12, 60, 44
14, 9280, Note_on_c, 12, 62, 44
14, 9344, Note_on_c, 12, 60, 0
14, 9344, Note_on_c, 12, 62, 0
14, 9360, Note_on_c, 12, 62, 44
14, 9360, Note_on_c, 12, 59, 44
14, 9424, Note_on_c, 12, 62, 0
14, 9424, Note_on_c, 12, 59, 0
14, 9440, Note_on_c, 12, 62, 44
14, 9440, Note_on_c, 12, 59, 44
14, 9504, Note_on_c, 12, 62, 0
14, 9504, Note_on_c, 12, 59, 0
14, 9520, Note_on_c, 12, 59, 44
14, 9520, Note_on_c, 12, 62, 44
14, 9584, Note_on_c, 12, 59, 0
14, 9584, Note_on_c, 12, 62, 0
14, 9600, Note_on_c, 12, 55, 44
14, 9600, Note_on_c, 12, 64, 44
14, 9839, Note_on_c, 12, 55, 0
14, 9839, Note_on_c, 12, 64, 0
14, 10080, Note_on_c, 12, 67, 44
14, 10144, Note_on_c, 12, 67, 0
14, 10160, Note_on_c, 12, 67, 44
14, 10224, Note_on_c, 12, 67, 0
14, 10240, Note_on_c, 12, 67, 44
14, 10304, Note_on_c, 12, 67, 0
14, 10320, Note_on_c, 12, 67, 44
14, 10384, Note_on_c, 12, 67, 0
14, 10400, Note_on_c, 12, 67, 44
14, 10464, Note_on_c, 12, 67, 0
14, 10480, Note_on_c, 12, 67, 44
14, 10544, Note_on_c, 12, 67, 0
14, 10560, Note_on_c, 12, 67, 44
14, 10679, Note_on_c, 12, 67, 0
14, 10680, Note_on_c, 12, 72, 44
14, 10779, Note_on_c, 12, 72, 0
14, 10800, Note_on_c, 12, 64, 44
14, 10959, Note_on_c, 12, 64, 0
14, 11040, Note_on_c, 12, 55, 44
14, 11104, Note_on_c, 12, 55, 0
14, 11120, Note_on_c, 12, 55, 44
14, 11184, Note_on_c, 12, 55, 0
14, 11200, Note_on_c, 12, 55, 44
14, 11264, Note_on_c, 12, 55, 0
14, 11280, Note_on_c, 12, 55, 44
14, 11344, Note_on_c, 12, 55, 0
14, 11360, Note_on_c, 12, 55, 44
14, 11424, Note_on_c, 12, 55, 0
14, 11440, Note_on_c, 12, 55, 44
14, 11504, Note_on_c, 12, 55, 0
14, 11520, Note_on_c, 12, 55, 44
14, 11639, Note_on_c, 12, 55, 0
14, 11640, Note_on_c, 12, 60, 44
14, 11739, Note_on_c, 12, 60, 0
14, 11760, Note_on_c, 12, 60, 44
14, 11919, Note_on_c, 12, 60, 0
14, 12000, Note_on_c, 12, 67, 44
14, 12064, Note_on_c, 12, 67, 0
14, 12080, Note_on_c, 12, 67, 44
14, 12144, Note_on_c, 12, 67, 0
14, 12160, Note_on_c, 12, 67, 44
14, 12224, Note_on_c, 12, 67, 0
14, 12240, Note_on_c, 12, 67, 44
14, 12304, Note_on_c, 12, 67, 0
14, 12320, Note_on_c, 12, 67, 44
14, 12384, Note_on_c, 12, 67, 0
14, 12400, Note_on_c, 12, 67, 44
14, 12464, Note_on_c, 12, 67, 0
14, 12480, Note_on_c, 12, 67, 40
14, 12599, Note_on_c, 12, 67, 0
14, 12600, Note_on_c, 12, 72, 40
14, 12699, Note_on_c, 12, 72, 0
14, 12720, Note_on_c, 12, 64, 40
14, 12879, Note_on_c, 12, 64, 0
14, 12960, Note_on_c, 12, 62, 40
14, 13079, Note_on_c, 12, 62, 0
14, 13080, Note_on_c, 12, 64, 40
14, 13179, Note_on_c, 12, 64, 0
14, 13200, Note_on_c, 12, 64, 40
14, 13359, Note_on_c, 12, 64, 0
14, 13440, Note_on_c, 12, 62, 40
14, 13559, Note_on_c, 12, 62, 0
14, 13560, Note_on_c, 12, 64, 40
14, 13659, Note_on_c, 12, 64, 0
14, 13680, Note_on_c, 12, 60, 40
14, 13839, Note_on_c, 12, 60, 0
14, 13920, Note_on_c, 12, 59, 40
14, 14039, Note_on_c, 12, 59, 0
14, 14040, Note_on_c, 12, 60, 40
14, 14139, Note_on_c, 12, 60, 0
14, 14160, Note_on_c, 12, 60, 40
14, 14319, Note_on_c, 12, 60, 0
14, 14400, Note_on_c, 12, 62, 36
14, 14519, Note_on_c, 12, 62, 0
14, 14520, Note_on_c, 12, 64, 36
14, 14619, Note_on_c, 12, 64, 0
14, 14640, Note_on_c, 12, 60, 36
14, 14799, Note_on_c, 12, 60, 0
14, 15360, Note_on_c, 12, 62, 36
14, 15479, Note_on_c, 12, 62, 0
14, 15480, Note_on_c, 12, 64, 36
14, 15579, Note_on_c, 12, 64, 0
14, 15600, Note_on_c, 12, 60, 36
14, 15759, Note_on_c, 12, 60, 0
14, 16320, Note_on_c, 12, 62, 36
14, 16439, Note_on_c, 12, 62, 0
14, 16440, Note_on_c, 12, 64, 36
14, 16539, Note_on_c, 12, 64, 0
14, 16560, Note_on_c, 12, 60, 36
14, 16719, Note_on_c, 12, 60, 0
14, 16800, Note_on_c, 12, 61, 84
14, 17739, Note_on_c, 12, 61, 0
14, 17760, Note_on_c, 12, 77, 84
14, 17824, Note_on_c, 12, 77, 0
14, 17840, Note_on_c, 12, 77, 84
14, 17904, Note_on_c, 12, 77, 0
14, 17920, Note_on_c, 12, 77, 84
14, 17984, Note_on_c, 12, 77, 0
14, 18000, Note_on_c, 12, 77, 84
14, 18064, Note_on_c, 12, 77, 0
14, 18080, Note_on_c, 12, 77, 84
14, 18144, Note_on_c, 12, 77, 0
14, 18160, Note_on_c, 12, 77, 84
14, 18224, Note_on_c, 12, 77, 0
14, 18240, Note_on_c, 12, 77, 84
14, 18359, Note_on_c, 12, 77, 0
14, 18360, Note_on_c, 12, 79, 84
14, 18459, Note_on_c, 12, 79, 0
14, 18480, Note_on_c, 12, 72, 84
14, 18639, Note_on_c, 12, 72, 0
14, 18720, Note_on_c, 12, 77, 84
14, 18839, Note_on_c, 12, 77, 0
14, 18840, Note_on_c, 12, 79, 84
14, 18939, Note_on_c, 12, 79, 0
14, 18960, Note_on_c, 12, 72, 84
14, 19119, Note_on_c, 12, 72, 0
14, 19200, Note_on_c, 12, 77, 84
14, 19319, Note_on_c, 12, 77, 0
14, 19320, Note_on_c, 12, 79, 84
14, 19419, Note_on_c, 12, 79, 0
14, 19440, Note_on_c, 12, 72, 84
14, 19599, Note_on_c, 12, 72, 0
14, 19680, Note_on_c, 12, 79, 84
14, 19744, Note_on_c, 12, 79, 0
14, 19760, Note_on_c, 12, 79, 84
14, 19824, Note_on_c, 12, 79, 0
14, 19840, Note_on_c, 12, 79, 84
14, 19904, Note_on_c, 12, 79, 0
14, 19920, Note_on_c, 12, 79, 84
14, 19984, Note_on_c, 12, 79, 0
14, 20000, Note_on_c, 12, 79, 84
14, 20064, Note_on_c, 12, 79, 0
14, 20080, Note_on_c, 12, 79, 84
14, 20144, Note_on_c, 12, 79, 0
14, 20160, Note_on_c, 12, 79, 84
14, 20279, Note_on_c, 12, 79, 0
14, 20280, Note_on_c, 12, 81, 84
14, 20379, Note_on_c, 12, 81, 0
14, 20400, Note_on_c, 12, 77, 84
14, 20559, Note_on_c, 12, 77, 0
14, 20640, Note_on_c, 12, 79, 84
14, 20759, Note_on_c, 12, 79, 0
14, 20760, Note_on_c, 12, 81, 84
14, 20859, Note_on_c, 12, 81, 0
14, 20880, Note_on_c, 12, 77, 84
14, 21039, Note_on_c, 12, 77, 0
14, 21120, Note_on_c, 12, 79, 84
14, 21239, Note_on_c, 12, 79, 0
14, 21240, Note_on_c, 12, 81, 84
14, 21339, Note_on_c, 12, 81, 0
14, 21360, Note_on_c, 12, 77, 84
14, 21519, Note_on_c, 12, 77, 0
14, 21600, Note_on_c, 12, 60, 84
14, 21664, Note_on_c, 12, 60, 0
14, 21680, Note_on_c, 12, 60, 84
14, 21744, Note_on_c, 12, 60, 0
14, 21760, Note_on_c, 12, 60, 84
14, 21824, Note_on_c, 12, 60, 0
14, 21840, Note_on_c, 12, 60, 84
14, 21904, Note_on_c, 12, 60, 0
14, 21920, Note_on_c, 12, 60, 84
14, 21984, Note_on_c, 12, 60, 0
14, 22000, Note_on_c, 12, 60, 84
14, 22064, Note_on_c, 12, 60, 0
14, 22080, Note_on_c, 12, 62, 84
14, 22144, Note_on_c, 12, 62, 0
14, 22160, Note_on_c, 12, 62, 84
14, 22224, Note_on_c, 12, 62, 0
14, 22240, Note_on_c, 12, 62, 84
14, 22304, Note_on_c, 12, 62, 0
14, 22320, Note_on_c, 12, 62, 84
14, 22384, Note_on_c, 12, 62, 0
14, 22400, Note_on_c, 12, 62, 84
14, 22464, Note_on_c, 12, 62, 0
14, 22480, Note_on_c, 12, 62, 84
14, 22544, Note_on_c, 12, 62, 0
14, 22560, Note_on_c, 12, 57, 84
14, 22624, Note_on_c, 12, 57, 0
14, 22640, Note_on_c, 12, 57, 84
14, 22704, Note_on_c, 12, 57, 0
14, 22720, Note_on_c, 12, 57, 84
14, 22784, Note_on_c, 12, 57, 0
14, 22800, Note_on_c, 12, 57, 84
14, 22864, Note_on_c, 12, 57, 0
14, 22880, Note_on_c, 12, 57, 84
14, 22944, Note_on_c, 12, 57, 0
14, 22960, Note_on_c, 12, 57, 84
14, 23024, Note_on_c, 12, 57, 0
14, 23040, Note_on_c, 12, 58, 84
14, 23104, Note_on_c, 12, 58, 0
14, 23120, Note_on_c, 12, 58, 84
14, 23184, Note_on_c, 12, 58, 0
14, 23200, Note_on_c, 12, 58, 84
14, 23264, Note_on_c, 12, 58, 0
14, 23280, Note_on_c, 12, 70, 84
14, 23344, Note_on_c, 12, 70, 0
14, 23360, Note_on_c, 12, 70, 84
14, 23424, Note_on_c, 12, 70, 0
14, 23440, Note_on_c, 12, 70, 84
14, 23504, Note_on_c, 12, 70, 0
14, 23520, Note_on_c, 12, 70, 84
14, 23584, Note_on_c, 12, 70, 0
14, 23600, Note_on_c, 12, 70, 84
14, 23664, Note_on_c, 12, 70, 0
14, 23680, Note_on_c, 12, 70, 84
14, 23744, Note_on_c, 12, 70, 0
14, 23760, Note_on_c, 12, 72, 84
14, 23824, Note_on_c, 12, 72, 0
14, 23840, Note_on_c, 12, 72, 84
14, 23904, Note_on_c, 12, 72, 0
14, 23920, Note_on_c, 12, 72, 84
14, 23984, Note_on_c, 12, 72, 0
14, 24000, Note_on_c, 12, 74, 84
14, 24064, Note_on_c, 12, 74, 0
14, 24080, Note_on_c, 12, 62, 84
14, 24144, Note_on_c, 12, 62, 0
14, 24160, Note_on_c, 12, 62, 84
14, 24224, Note_on_c, 12, 62, 0
14, 24240, Note_on_c, 12, 60, 84
14, 24304, Note_on_c, 12, 60, 0
14, 24320, Note_on_c, 12, 60, 84
14, 24384, Note_on_c, 12, 60, 0
14, 24400, Note_on_c, 12, 60, 84
14, 24464, Note_on_c, 12, 60, 0
14, 24480, Note_on_c, 12, 62, 84
14, 24544, Note_on_c, 12, 62, 0
14, 24560, Note_on_c, 12, 62, 84
14, 24624, Note_on_c, 12, 62, 0
14, 24640, Note_on_c, 12, 62, 84
14, 24704, Note_on_c, 12, 62, 0
14, 24720, Note_on_c, 12, 64, 84
14, 24784, Note_on_c, 12, 64, 0
14, 24800, Note_on_c, 12, 64, 84
14, 24864, Note_on_c, 12, 64, 0
14, 24880, Note_on_c, 12, 64, 84
14, 24944, Note_on_c, 12, 64, 0
14, 24960, Note_on_c, 12, 65, 84
14, 25024, Note_on_c, 12, 65, 0
14, 25040, Note_on_c, 12, 65, 84
14, 25104, Note_on_c, 12, 65, 0
14, 25120, Note_on_c, 12, 65, 84
14, 25184, Note_on_c, 12, 65, 0
14, 25200, Note_on_c, 12, 67, 84
14, 25264, Note_on_c, 12, 67, 0
14, 25280, Note_on_c, 12, 67, 84
14, 25344, Note_on_c, 12, 67, 0
14, 25360, Note_on_c, 12, 67, 84
14, 25424, Note_on_c, 12, 67, 0
14, 25440, Note_on_c, 12, 69, 84
14, 25504, Note_on_c, 12, 69, 0
14, 25520, Note_on_c, 12, 69, 84
14, 25584, Note_on_c, 12, 69, 0
14, 25600, Note_on_c, 12, 69, 84
14, 25664, Note_on_c, 12, 69, 0
14, 25680, Note_on_c, 12, 69, 84
14, 25744, Note_on_c, 12, 69, 0
14, 25760, Note_on_c, 12, 69, 84
14, 25824, Note_on_c, 12, 69, 0
14, 25840, Note_on_c, 12, 69, 84
14, 25904, Note_on_c, 12, 69, 0
14, 25920, Note_on_c, 12, 67, 84
14, 25984, Note_on_c, 12, 67, 0
14, 26000, Note_on_c, 12, 67, 84
14, 26064, Note_on_c, 12, 67, 0
14, 26080, Note_on_c, 12, 67, 84
14, 26144, Note_on_c, 12, 67, 0
14, 26160, Note_on_c, 12, 67, 84
14, 26224, Note_on_c, 12, 67, 0
14, 26240, Note_on_c, 12, 67, 84
14, 26304, Note_on_c, 12, 67, 0
14, 26320, Note_on_c, 12, 67, 84
14, 26384, Note_on_c, 12, 67, 0
14, 26400, Note_on_c, 12, 67, 84
14, 26464, Note_on_c, 12, 67, 0
14, 26480, Note_on_c, 12, 67, 84
14, 26544, Note_on_c, 12, 67, 0
14, 26560, Note_on_c, 12, 67, 84
14, 26624, Note_on_c, 12, 67, 0
14, 26640, Note_on_c, 12, 58, 84
14, 26704, Note_on_c, 12, 58, 0
14, 26720, Note_on_c, 12, 58, 84
14, 26784, Note_on_c, 12, 58, 0
14, 26800, Note_on_c, 12, 58, 84
14, 26864, Note_on_c, 12, 58, 0
14, 26880, Note_on_c, 12, 57, 84
14, 27119, Note_on_c, 12, 57, 0
14, 27360, Note_on_c, 12, 57, 84
14, 27424, Note_on_c, 12, 57, 0
14, 27440, Note_on_c, 12, 57, 84
14, 27504, Note_on_c, 12, 57, 0
14, 27520, Note_on_c, 12, 57, 84
14, 27584, Note_on_c, 12, 57, 0
14, 27600, Note_on_c, 12, 57, 84
14, 27664, Note_on_c, 12, 57, 0
14, 27680, Note_on_c, 12, 57, 84
14, 27744, Note_on_c, 12, 57, 0
14, 27760, Note_on_c, 12, 57, 84
14, 27824, Note_on_c, 12, 57, 0
14, 27840, Note_on_c, 12, 57, 84
14, 28079, Note_on_c, 12, 57, 0
14, 28320, Note_on_c, 12, 57, 84
14, 28384, Note_on_c, 12, 57, 0
14, 28400, Note_on_c, 12, 57, 84
14, 28464, Note_on_c, 12, 57, 0
14, 28480, Note_on_c, 12, 57, 84
14, 28544, Note_on_c, 12, 57, 0
14, 28560, Note_on_c, 12, 56, 84
14, 28624, Note_on_c, 12, 56, 0
14, 28640, Note_on_c, 12, 56, 84
14, 28704, Note_on_c, 12, 56, 0
14, 28720, Note_on_c, 12, 56, 84
14, 28784, Note_on_c, 12, 56, 0
14, 28800, Note_on_c, 12, 55, 84
14, 29039, Note_on_c, 12, 55, 0
14, 29280, Note_on_c, 12, 61, 84
14, 29344, Note_on_c, 12, 61, 0
14, 29360, Note_on_c, 12, 61, 84
14, 29424, Note_on_c, 12, 61, 0
14, 29440, Note_on_c, 12, 61, 84
14, 29504, Note_on_c, 12, 61, 0
14, 29520, Note_on_c, 12, 61, 84
14, 29584, Note_on_c, 12, 61, 0
14, 29600, Note_on_c, 12, 61, 84
14, 29664, Note_on_c, 12, 61, 0
14, 29680, Note_on_c, 12, 61, 84
14, 29744, Note_on_c, 12, 61, 0
14, 29760, Note_on_c, 12, 60, 84
14, 29999, Note_on_c, 12, 60, 0
14, 30240, Note_on_c, 12, 60, 84
14, 30304, Note_on_c, 12, 60, 0
14, 30320, Note_on_c, 12, 60, 84
14, 30384, Note_on_c, 12, 60, 0
14, 30400, Note_on_c, 12, 60, 84
14, 30464, Note_on_c, 12, 60, 0
14, 30480, Note_on_c, 12, 60, 84
14, 30544, Note_on_c, 12, 60, 0
14, 30560, Note_on_c, 12, 60, 84
14, 30624, Note_on_c, 12, 60, 0
14, 30640, Note_on_c, 12, 60, 84
14, 30704, Note_on_c, 12, 60, 0
14, 30720, Note_on_c, 12, 60, 84
14, 30959, Note_on_c, 12, 60, 0
14, 32160, Note_on_c, 12, 65, 84
14, 32224, Note_on_c, 12, 65, 0
14, 32240, Note_on_c, 12, 65, 84
14, 32304, Note_on_c, 12, 65, 0
14, 32320, Note_on_c, 12, 65, 84
14, 32384, Note_on_c, 12, 65, 0
14, 32400, Note_on_c, 12, 65, 84
14, 32464, Note_on_c, 12, 65, 0
14, 32480, Note_on_c, 12, 65, 84
14, 32544, Note_on_c, 12, 65, 0
14, 32560, Note_on_c, 12, 65, 84
14, 32624, Note_on_c, 12, 65, 0
14, 32640, Note_on_c, 12, 65, 92
14, 32759, Note_on_c, 12, 65, 0
14, 32760, Note_on_c, 12, 67, 84
14, 32859, Note_on_c, 12, 67, 0
14, 32880, Note_on_c, 12, 64, 84
14, 33039, Note_on_c, 12, 64, 0
14, 34080, Note_on_c, 12, 67, 84
14, 34144, Note_on_c, 12, 67, 0
14, 34160, Note_on_c, 12, 67, 84
14, 34224, Note_on_c, 12, 67, 0
14, 34240, Note_on_c, 12, 67, 84
14, 34304, Note_on_c, 12, 67, 0
14, 34320, Note_on_c, 12, 67, 84
14, 34384, Note_on_c, 12, 67, 0
14, 34400, Note_on_c, 12, 67, 84
14, 34464, Note_on_c, 12, 67, 0
14, 34480, Note_on_c, 12, 67, 84
14, 34544, Note_on_c, 12, 67, 0
14, 34560, Note_on_c, 12, 67, 92
14, 34679, Note_on_c, 12, 67, 0
14, 34680, Note_on_c, 12, 69, 84
14, 34779, Note_on_c, 12, 69, 0
14, 34800, Note_on_c, 12, 65, 84
14, 34959, Note_on_c, 12, 65, 0
14, 35040, Note_on_c, 12, 55, 84
14, 35104, Note_on_c, 12, 55, 0
14, 35120, Note_on_c, 12, 55, 84
14, 35184, Note_on_c, 12, 55, 0
14, 35200, Note_on_c, 12, 55, 84
14, 35264, Note_on_c, 12, 55, 0
14, 35280, Note_on_c, 12, 55, 84
14, 35344, Note_on_c, 12, 55, 0
14, 35360, Note_on_c, 12, 55, 84
14, 35424, Note_on_c, 12, 55, 0
14, 35440, Note_on_c, 12, 55, 84
14, 35504, Note_on_c, 12, 55, 0
14, 35520, Note_on_c, 12, 55, 84
14, 35759, Note_on_c, 12, 55, 0
14, 36000, Note_on_c, 12, 55, 84
14, 36064, Note_on_c, 12, 55, 0
14, 36080, Note_on_c, 12, 55, 84
14, 36144, Note_on_c, 12, 55, 0
14, 36160, Note_on_c, 12, 55, 84
14, 36224, Note_on_c, 12, 55, 0
14, 36240, Note_on_c, 12, 55, 84
14, 36304, Note_on_c, 12, 55, 0
14, 36320, Note_on_c, 12, 55, 84
14, 36384, Note_on_c, 12, 55, 0
14, 36400, Note_on_c, 12, 55, 84
14, 36464, Note_on_c, 12, 55, 0
14, 36480, Note_on_c, 12, 55, 84
14, 36719, Note_on_c, 12, 55, 0
14, 36960, Note_on_c, 12, 56, 84
14, 37024, Note_on_c, 12, 56, 0
14, 37040, Note_on_c, 12, 56, 84
14, 37104, Note_on_c, 12, 56, 0
14, 37120, Note_on_c, 12, 56, 84
14, 37184, Note_on_c, 12, 56, 0
14, 37200, Note_on_c, 12, 56, 84
14, 37264, Note_on_c, 12, 56, 0
14, 37280, Note_on_c, 12, 56, 84
14, 37344, Note_on_c, 12, 56, 0
14, 37360, Note_on_c, 12, 56, 84
14, 37424, Note_on_c, 12, 56, 0
14, 37440, Note_on_c, 12, 56, 84
14, 37679, Note_on_c, 12, 56, 0
14, 37920, Note_on_c, 12, 55, 84
14, 37984, Note_on_c, 12, 55, 0
14, 38000, Note_on_c, 12, 55, 84
14, 38064, Note_on_c, 12, 55, 0
14, 38080, Note_on_c, 12, 55, 84
14, 38144, Note_on_c, 12, 55, 0
14, 38160, Note_on_c, 12, 55, 84
14, 38224, Note_on_c, 12, 55, 0
14, 38240, Note_on_c, 12, 55, 84
14, 38304, Note_on_c, 12, 55, 0
14, 38320, Note_on_c, 12, 55, 84
14, 38384, Note_on_c, 12, 55, 0
14, 38400, Note_on_c, 12, 55, 84
14, 38639, Note_on_c, 12, 55, 0
14, 39840, Note_on_c, 12, 72, 84
14, 39904, Note_on_c, 12, 72, 0
14, 39920, Note_on_c, 12, 72, 84
14, 39984, Note_on_c, 12, 72, 0
14, 40000, Note_on_c, 12, 72, 84
14, 40064, Note_on_c, 12, 72, 0
14, 40080, Note_on_c, 12, 72, 84
14, 40144, Note_on_c, 12, 72, 0
14, 40160, Note_on_c, 12, 72, 84
14, 40224, Note_on_c, 12, 72, 0
14, 40240, Note_on_c, 12, 72, 84
14, 40304, Note_on_c, 12, 72, 0
14, 40320, Note_on_c, 12, 72, 92
14, 40439, Note_on_c, 12, 72, 0
14, 40440, Note_on_c, 12, 74, 84
14, 40539, Note_on_c, 12, 74, 0
14, 40560, Note_on_c, 12, 71, 84
14, 40719, Note_on_c, 12, 71, 0
14, 41760, Note_on_c, 12, 67, 92
14, 41919, Note_on_c, 12, 67, 0
14, 42000, Note_on_c, 12, 71, 84
14, 42159, Note_on_c, 12, 71, 0
14, 42240, Note_on_c, 12, 71, 92
14, 42399, Note_on_c, 12, 71, 0
14, 42480, Note_on_c, 12, 74, 84
14, 42639, Note_on_c, 12, 74, 0
14, 43680, Note_on_c, 12, 67, 84
14, 43839, Note_on_c, 12, 67, 0
14, 43920, Note_on_c, 12, 71, 84
14, 44079, Note_on_c, 12, 71, 0
14, 44160, Note_on_c, 12, 71, 84
14, 44319, Note_on_c, 12, 71, 0
14, 44400, Note_on_c, 12, 74, 84
14, 44559, Note_on_c, 12, 74, 0
14, 45600, Note_on_c, 12, 67, 84
14, 45759, Note_on_c, 12, 67, 0
14, 45840, Note_on_c, 12, 55, 84
14, 45999, Note_on_c, 12, 55, 0
14, 46080, Note_on_c, 12, 56, 52
14, 46144, Note_on_c, 12, 56, 0
14, 46160, Note_on_c, 12, 60, 52
14, 46160, Note_on_c, 12, 63, 52
14, 46224, Note_on_c, 12, 60, 0
14, 46224, Note_on_c, 12, 63, 0
14, 46240, Note_on_c, 12, 60, 52
14, 46240, Note_on_c, 12, 63, 52
14, 46304, Note_on_c, 12, 60, 0
14, 46304, Note_on_c, 12, 63, 0
14, 46320, Note_on_c, 12, 60, 52
14, 46320, Note_on_c, 12, 63, 52
14, 46384, Note_on_c, 12, 60, 0
14, 46384, Note_on_c, 12, 63, 0
14, 46400, Note_on_c, 12, 63, 52
14, 46400, Note_on_c, 12, 60, 52
14, 46464, Note_on_c, 12, 63, 0
14, 46464, Note_on_c, 12, 60, 0
14, 46480, Note_on_c, 12, 63, 52
14, 46480, Note_on_c, 12, 60, 52
14, 46544, Note_on_c, 12, 63, 0
14, 46544, Note_on_c, 12, 60, 0
14, 46560, Note_on_c, 12, 60, 52
14, 46560, Note_on_c, 12, 63, 52
14, 46624, Note_on_c, 12, 60, 0
14, 46624, Note_on_c, 12, 63, 0
14, 46640, Note_on_c, 12, 63, 52
14, 46640, Note_on_c, 12, 60, 52
14, 46704, Note_on_c, 12, 63, 0
14, 46704, Note_on_c, 12, 60, 0
14, 46720, Note_on_c, 12, 60, 52
14, 46720, Note_on_c, 12, 63, 52
14, 46784, Note_on_c, 12, 60, 0
14, 46784, Note_on_c, 12, 63, 0
14, 46800, Note_on_c, 12, 63, 52
14, 46800, Note_on_c, 12, 60, 52
14, 46864, Note_on_c, 12, 63, 0
14, 46864, Note_on_c, 12, 60, 0
14, 46880, Note_on_c, 12, 60, 52
14, 46880, Note_on_c, 12, 63, 52
14, 46944, Note_on_c, 12, 60, 0
14, 46944, Note_on_c, 12, 63, 0
14, 46960, Note_on_c, 12, 60, 52
14, 46960, Note_on_c, 12, 63, 52
14, 47024, Note_on_c, 12, 60, 0
14, 47024, Note_on_c, 12, 63, 0
14, 47040, Note_on_c, 12, 63, 52
14, 47040, Note_on_c, 12, 60, 52
14, 47104, Note_on_c, 12, 63, 0
14, 47104, Note_on_c, 12, 60, 0
14, 47120, Note_on_c, 12, 60, 52
14, 47120, Note_on_c, 12, 63, 52
14, 47184, Note_on_c, 12, 60, 0
14, 47184, Note_on_c, 12, 63, 0
14, 47200, Note_on_c, 12, 63, 52
14, 47200, Note_on_c, 12, 60, 52
14, 47264, Note_on_c, 12, 63, 0
14, 47264, Note_on_c, 12, 60, 0
14, 47280, Note_on_c, 12, 63, 52
14, 47280, Note_on_c, 12, 60, 52
14, 47344, Note_on_c, 12, 63, 0
14, 47344, Note_on_c, 12, 60, 0
14, 47360, Note_on_c, 12, 63, 52
14, 47360, Note_on_c, 12, 60, 52
14, 47424, Note_on_c, 12, 63, 0
14, 47424, Note_on_c, 12, 60, 0
14, 47440, Note_on_c, 12, 63, 52
14, 47440, Note_on_c, 12, 60, 52
14, 47504, Note_on_c, 12, 63, 0
14, 47504, Note_on_c, 12, 60, 0
14, 47520, Note_on_c, 12, 63, 52
14, 47520, Note_on_c, 12, 60, 52
14, 47584, Note_on_c, 12, 63, 0
14, 47584, Note_on_c, 12, 60, 0
14, 47600, Note_on_c, 12, 60, 52
14, 47600, Note_on_c, 12, 63, 52
14, 47664, Note_on_c, 12, 60, 0
14, 47664, Note_on_c, 12, 63, 0
14, 47680, Note_on_c, 12, 63, 52
14, 47680, Note_on_c, 12, 60, 52
14, 47744, Note_on_c, 12, 63, 0
14, 47744, Note_on_c, 12, 60, 0
14, 47760, Note_on_c, 12, 60, 52
14, 47760, Note_on_c, 12, 63, 52
14, 47824, Note_on_c, 12, 60, 0
14, 47824, Note_on_c, 12, 63, 0
14, 47840, Note_on_c, 12, 60, 52
14, 47840, Note_on_c, 12, 63, 52
14, 47904, Note_on_c, 12, 60, 0
14, 47904, Note_on_c, 12, 63, 0
14, 47920, Note_on_c, 12, 63, 52
14, 47920, Note_on_c, 12, 60, 52
14, 47984, Note_on_c, 12, 63, 0
14, 47984, Note_on_c, 12, 60, 0
14, 48000, Note_on_c, 12, 63, 52
14, 48000, Note_on_c, 12, 61, 52
14, 48064, Note_on_c, 12, 63, 0
14, 48064, Note_on_c, 12, 61, 0
14, 48080, Note_on_c, 12, 63, 52
14, 48080, Note_on_c, 12, 61, 52
14, 48144, Note_on_c, 12, 63, 0
14, 48144, Note_on_c, 12, 61, 0
14, 48160, Note_on_c, 12, 63, 52
14, 48160, Note_on_c, 12, 61, 52
14, 48224, Note_on_c, 12, 63, 0
14, 48224, Note_on_c, 12, 61, 0
14, 48240, Note_on_c, 12, 63, 52
14, 48240, Note_on_c, 12, 61, 52
14, 48304, Note_on_c, 12, 63, 0
14, 48304, Note_on_c, 12, 61, 0
14, 48320, Note_on_c, 12, 61, 52
14, 48320, Note_on_c, 12, 63, 52
14, 48384, Note_on_c, 12, 61, 0
14, 48384, Note_on_c, 12, 63, 0
14, 48400, Note_on_c, 12, 61, 52
14, 48400, Note_on_c, 12, 63, 52
14, 48464, Note_on_c, 12, 61, 0
14, 48464, Note_on_c, 12, 63, 0
14, 48480, Note_on_c, 12, 63, 52
14, 48480, Note_on_c, 12, 61, 52
14, 48544, Note_on_c, 12, 63, 0
14, 48544, Note_on_c, 12, 61, 0
14, 48560, Note_on_c, 12, 61, 52
14, 48560, Note_on_c, 12, 63, 52
14, 48624, Note_on_c, 12, 61, 0
14, 48624, Note_on_c, 12, 63, 0
14, 48640, Note_on_c, 12, 61, 52
14, 48640, Note_on_c, 12, 63, 52
14, 48704, Note_on_c, 12, 61, 0
14, 48704, Note_on_c, 12, 63, 0
14, 48720, Note_on_c, 12, 61, 52
14, 48720, Note_on_c, 12, 63, 52
14, 48784, Note_on_c, 12, 61, 0
14, 48784, Note_on_c, 12, 63, 0
14, 48800, Note_on_c, 12, 63, 52
14, 48800, Note_on_c, 12, 61, 52
14, 48864, Note_on_c, 12, 63, 0
14, 48864, Note_on_c, 12, 61, 0
14, 48880, Note_on_c, 12, 61, 52
14, 48880, Note_on_c, 12, 63, 52
14, 48944, Note_on_c, 12, 61, 0
14, 48944, Note_on_c, 12, 63, 0
14, 48960, Note_on_c, 12, 63, 52
14, 48960, Note_on_c, 12, 61, 52
14, 49024, Note_on_c, 12, 63, 0
14, 49024, Note_on_c, 12, 61, 0
14, 49040, Note_on_c, 12, 61, 52
14, 49040, Note_on_c, 12, 63, 52
14, 49104, Note_on_c, 12, 61, 0
14, 49104, Note_on_c, 12, 63, 0
14, 49120, Note_on_c, 12, 61, 52
14, 49120, Note_on_c, 12, 63, 52
14, 49184, Note_on_c, 12, 61, 0
14, 49184, Note_on_c, 12, 63, 0
14, 49200, Note_on_c, 12, 61, 52
14, 49200, Note_on_c, 12, 63, 52
14, 49264, Note_on_c, 12, 61, 0
14, 49264, Note_on_c, 12, 63, 0
14, 49280, Note_on_c, 12, 61, 52
14, 49280, Note_on_c, 12, 63, 52
14, 49344, Note_on_c, 12, 61, 0
14, 49344, Note_on_c, 12, 63, 0
14, 49360, Note_on_c, 12, 61, 52
14, 49360, Note_on_c, 12, 63, 52
14, 49424, Note_on_c, 12, 61, 0
14, 49424, Note_on_c, 12, 63, 0
14, 49440, Note_on_c, 12, 61, 52
14, 49440, Note_on_c, 12, 63, 52
14, 49504, Note_on_c, 12, 61, 0
14, 49504, Note_on_c, 12, 63, 0
14, 49520, Note_on_c, 12, 61, 52
14, 49520, Note_on_c, 12, 63, 52
14, 49584, Note_on_c, 12, 61, 0
14, 49584, Note_on_c, 12, 63, 0
14, 49600, Note_on_c, 12, 63, 52
14, 49600, Note_on_c, 12, 61, 52
14, 49664, Note_on_c, 12, 63, 0
14, 49664, Note_on_c, 12, 61, 0
14, 49680, Note_on_c, 12, 63, 52
14, 49680, Note_on_c, 12, 61, 52
14, 49744, Note_on_c, 12, 63, 0
14, 49744, Note_on_c, 12, 61, 0
14, 49760, Note_on_c, 12, 63, 52
14, 49760, Note_on_c, 12, 61, 52
14, 49824, Note_on_c, 12, 63, 0
14, 49824, Note_on_c, 12, 61, 0
14, 49840, Note_on_c, 12, 61, 52
14, 49840, Note_on_c, 12, 63, 52
14, 49904, Note_on_c, 12, 61, 0
14, 49904, Note_on_c, 12, 63, 0
14, 49920, Note_on_c, 12, 63, 52
14, 49920, Note_on_c, 12, 60, 52
14, 49984, Note_on_c, 12, 63, 0
14, 49984, Note_on_c, 12, 60, 0
14, 50000, Note_on_c, 12, 60, 52
14, 50000, Note_on_c, 12, 63, 52
14, 50064, Note_on_c, 12, 60, 0
14, 50064, Note_on_c, 12, 63, 0
14, 50080, Note_on_c, 12, 60, 52
14, 50080, Note_on_c, 12, 63, 52
14, 50144, Note_on_c, 12, 60, 0
14, 50144, Note_on_c, 12, 63, 0
14, 50160, Note_on_c, 12, 60, 52
14, 50160, Note_on_c, 12, 63, 52
14, 50224, Note_on_c, 12, 60, 0
14, 50224, Note_on_c, 12, 63, 0
14, 50240, Note_on_c, 12, 60, 52
14, 50240, Note_on_c, 12, 63, 52
14, 50304, Note_on_c, 12, 60, 0
14, 50304, Note_on_c, 12, 63, 0
14, 50320, Note_on_c, 12, 60, 52
14, 50320, Note_on_c, 12, 63, 52
14, 50384, Note_on_c, 12, 60, 0
14, 50384, Note_on_c, 12, 63, 0
14, 50400, Note_on_c, 12, 60, 52
14, 50400, Note_on_c, 12, 63, 52
14, 50464, Note_on_c, 12, 60, 0
14, 50464, Note_on_c, 12, 63, 0
14, 50480, Note_on_c, 12, 60, 52
14, 50480, Note_on_c, 12, 63, 52
14, 50544, Note_on_c, 12, 60, 0
14, 50544, Note_on_c, 12, 63, 0
14, 50560, Note_on_c, 12, 63, 52
14, 50560, Note_on_c, 12, 60, 52
14, 50624, Note_on_c, 12, 63, 0
14, 50624, Note_on_c, 12, 60, 0
14, 50640, Note_on_c, 12, 60, 52
14, 50640, Note_on_c, 12, 63, 52
14, 50704, Note_on_c, 12, 60, 0
14, 50704, Note_on_c, 12, 63, 0
14, 50720, Note_on_c, 12, 60, 52
14, 50720, Note_on_c, 12, 63, 52
14, 50784, Note_on_c, 12, 60, 0
14, 50784, Note_on_c, 12, 63, 0
14, 50800, Note_on_c, 12, 63, 52
14, 50800, Note_on_c, 12, 60, 52
14, 50864, Note_on_c, 12, 63, 0
14, 50864, Note_on_c, 12, 60, 0
14, 50880, Note_on_c, 12, 60, 52
14, 50880, Note_on_c, 12, 63, 52
14, 50944, Note_on_c, 12, 60, 0
14, 50944, Note_on_c, 12, 63, 0
14, 50960, Note_on_c, 12, 63, 52
14, 50960, Note_on_c, 12, 60, 52
14, 51024, Note_on_c, 12, 63, 0
14, 51024, Note_on_c, 12, 60, 0
14, 51040, Note_on_c, 12, 63, 52
14, 51040, Note_on_c, 12, 60, 52
14, 51104, Note_on_c, 12, 63, 0
14, 51104, Note_on_c, 12, 60, 0
14, 51120, Note_on_c, 12, 60, 52
14, 51120, Note_on_c, 12, 63, 52
14, 51184, Note_on_c, 12, 60, 0
14, 51184, Note_on_c, 12, 63, 0
14, 51200, Note_on_c, 12, 63, 52
14, 51200, Note_on_c, 12, 60, 52
14, 51264, Note_on_c, 12, 63, 0
14, 51264, Note_on_c, 12, 60, 0
14, 51280, Note_on_c, 12, 63, 52
14, 51280, Note_on_c, 12, 60, 52
14, 51344, Note_on_c, 12, 63, 0
14, 51344, Note_on_c, 12, 60, 0
14, 51360, Note_on_c, 12, 60, 52
14, 51360, Note_on_c, 12, 63, 52
14, 51424, Note_on_c, 12, 60, 0
14, 51424, Note_on_c, 12, 63, 0
14, 51440, Note_on_c, 12, 60, 52
14, 51440, Note_on_c, 12, 63, 52
14, 51504, Note_on_c, 12, 60, 0
14, 51504, Note_on_c, 12, 63, 0
14, 51520, Note_on_c, 12, 60, 52
14, 51520, Note_on_c, 12, 63, 52
14, 51584, Note_on_c, 12, 60, 0
14, 51584, Note_on_c, 12, 63, 0
14, 51600, Note_on_c, 12, 63, 52
14, 51600, Note_on_c, 12, 60, 52
14, 51664, Note_on_c, 12, 63, 0
14, 51664, Note_on_c, 12, 60, 0
14, 51680, Note_on_c, 12, 60, 52
14, 51680, Note_on_c, 12, 63, 52
14, 51744, Note_on_c, 12, 60, 0
14, 51744, Note_on_c, 12, 63, 0
14, 51760, Note_on_c, 12, 60, 52
14, 51760, Note_on_c, 12, 63, 52
14, 51824, Note_on_c, 12, 60, 0
14, 51824, Note_on_c, 12, 63, 0
14, 51840, Note_on_c, 12, 63, 52
14, 51840, Note_on_c, 12, 61, 52
14, 51904, Note_on_c, 12, 63, 0
14, 51904, Note_on_c, 12, 61, 0
14, 51920, Note_on_c, 12, 61, 52
14, 51920, Note_on_c, 12, 63, 52
14, 51984, Note_on_c, 12, 61, 0
14, 51984, Note_on_c, 12, 63, 0
14, 52000, Note_on_c, 12, 63, 52
14, 52000, Note_on_c, 12, 61, 52
14, 52064, Note_on_c, 12, 63, 0
14, 52064, Note_on_c, 12, 61, 0
14, 52080, Note_on_c, 12, 63, 52
14, 52080, Note_on_c, 12, 61, 52
14, 52144, Note_on_c, 12, 63, 0
14, 52144, Note_on_c, 12, 61, 0
14, 52160, Note_on_c, 12, 61, 52
14, 52160, Note_on_c, 12, 63, 52
14, 52224, Note_on_c, 12, 61, 0
14, 52224, Note_on_c, 12, 63, 0
14, 52240, Note_on_c, 12, 63, 52
14, 52240, Note_on_c, 12, 61, 52
14, 52304, Note_on_c, 12, 63, 0
14, 52304, Note_on_c, 12, 61, 0
14, 52320, Note_on_c, 12, 63, 52
14, 52320, Note_on_c, 12, 61, 52
14, 52384, Note_on_c, 12, 63, 0
14, 52384, Note_on_c, 12, 61, 0
14, 52400, Note_on_c, 12, 63, 52
14, 52400, Note_on_c, 12, 61, 52
14, 52464, Note_on_c, 12, 63, 0
14, 52464, Note_on_c, 12, 61, 0
14, 52480, Note_on_c, 12, 61, 52
14, 52480, Note_on_c, 12, 63, 52
14, 52544, Note_on_c, 12, 61, 0
14, 52544, Note_on_c, 12, 63, 0
14, 52560, Note_on_c, 12, 61, 52
14, 52560, Note_on_c, 12, 63, 52
14, 52624, Note_on_c, 12, 61, 0
14, 52624, Note_on_c, 12, 63, 0
14, 52640, Note_on_c, 12, 63, 52
14, 52640, Note_on_c, 12, 61, 52
14, 52704, Note_on_c, 12, 63, 0
14, 52704, Note_on_c, 12, 61, 0
14, 52720, Note_on_c, 12, 61, 52
14, 52720, Note_on_c, 12, 63, 52
14, 52784, Note_on_c, 12, 61, 0
14, 52784, Note_on_c, 12, 63, 0
14, 52800, Note_on_c, 12, 61, 52
14, 52800, Note_on_c, 12, 63, 52
14, 52864, Note_on_c, 12, 61, 0
14, 52864, Note_on_c, 12, 63, 0
14, 52880, Note_on_c, 12, 61, 52
14, 52880, Note_on_c, 12, 63, 52
14, 52944, Note_on_c, 12, 61, 0
14, 52944, Note_on_c, 12, 63, 0
14, 52960, Note_on_c, 12, 63, 52
14, 52960, Note_on_c, 12, 61, 52
14, 53024, Note_on_c, 12, 63, 0
14, 53024, Note_on_c, 12, 61, 0
14, 53040, Note_on_c, 12, 63, 52
14, 53040, Note_on_c, 12, 61, 52
14, 53104, Note_on_c, 12, 63, 0
14, 53104, Note_on_c, 12, 61, 0
14, 53120, Note_on_c, 12, 63, 52
14, 53120, Note_on_c, 12, 61, 52
14, 53184, Note_on_c, 12, 63, 0
14, 53184, Note_on_c, 12, 61, 0
14, 53200, Note_on_c, 12, 61, 52
14, 53200, Note_on_c, 12, 63, 52
14, 53264, Note_on_c, 12, 61, 0
14, 53264, Note_on_c, 12, 63, 0
14, 53280, Note_on_c, 12, 61, 52
14, 53280, Note_on_c, 12, 63, 52
14, 53344, Note_on_c, 12, 61, 0
14, 53344, Note_on_c, 12, 63, 0
14, 53360, Note_on_c, 12, 61, 52
14, 53360, Note_on_c, 12, 63, 52
14, 53424, Note_on_c, 12, 61, 0
14, 53424, Note_on_c, 12, 63, 0
14, 53440, Note_on_c, 12, 61, 52
14, 53440, Note_on_c, 12, 63, 52
14, 53504, Note_on_c, 12, 61, 0
14, 53504, Note_on_c, 12, 63, 0
14, 53520, Note_on_c, 12, 61, 52
14, 53520, Note_on_c, 12, 63, 52
14, 53584, Note_on_c, 12, 61, 0
14, 53584, Note_on_c, 12, 63, 0
14, 53600, Note_on_c, 12, 61, 52
14, 53600, Note_on_c, 12, 63, 52
14, 53664, Note_on_c, 12, 61, 0
14, 53664, Note_on_c, 12, 63, 0
14, 53680, Note_on_c, 12, 61, 52
14, 53680, Note_on_c, 12, 63, 52
14, 53744, Note_on_c, 12, 61, 0
14, 53744, Note_on_c, 12, 63, 0
14, 53760, Note_on_c, 12, 60, 52
14, 53760, Note_on_c, 12, 63, 52
14, 53824, Note_on_c, 12, 60, 0
14, 53824, Note_on_c, 12, 63, 0
14, 53840, Note_on_c, 12, 60, 52
14, 53840, Note_on_c, 12, 63, 52
14, 53904, Note_on_c, 12, 60, 0
14, 53904, Note_on_c, 12, 63, 0
14, 53920, Note_on_c, 12, 63, 52
14, 53920, Note_on_c, 12, 60, 52
14, 53984, Note_on_c, 12, 63, 0
14, 53984, Note_on_c, 12, 60, 0
14, 54000, Note_on_c, 12, 63, 53
14, 54000, Note_on_c, 12, 60, 53
14, 54064, Note_on_c, 12, 63, 0
14, 54064, Note_on_c, 12, 60, 0
14, 54080, Note_on_c, 12, 60, 53
14, 54080, Note_on_c, 12, 63, 53
14, 54144, Note_on_c, 12, 60, 0
14, 54144, Note_on_c, 12, 63, 0
14, 54160, Note_on_c, 12, 60, 53
14, 54160, Note_on_c, 12, 63, 53
14, 54224, Note_on_c, 12, 60, 0
14, 54224, Note_on_c, 12, 63, 0
14, 54240, Note_on_c, 12, 60, 54
14, 54240, Note_on_c, 12, 63, 54
14, 54304, Note_on_c, 12, 60, 0
14, 54304, Note_on_c, 12, 63, 0
14, 54320, Note_on_c, 12, 60, 54
14, 54320, Note_on_c, 12, 63, 54
14, 54384, Note_on_c, 12, 60, 0
14, 54384, Note_on_c, 12, 63, 0
14, 54400, Note_on_c, 12, 60, 54
14, 54400, Note_on_c, 12, 63, 54
14, 54464, Note_on_c, 12, 60, 0
14, 54464, Note_on_c, 12, 63, 0
14, 54480, Note_on_c, 12, 63, 55
14, 54480, Note_on_c, 12, 60, 55
14, 54544, Note_on_c, 12, 63, 0
14, 54544, Note_on_c, 12, 60, 0
14, 54560, Note_on_c, 12, 60, 55
14, 54560, Note_on_c, 12, 63, 55
14, 54624, Note_on_c, 12, 60, 0
14, 54624, Note_on_c, 12, 63, 0
14, 54640, Note_on_c, 12, 60, 55
14, 54640, Note_on_c, 12, 63, 55
14, 54704, Note_on_c, 12, 60, 0
14, 54704, Note_on_c, 12, 63, 0
14, 54720, Note_on_c, 12, 60, 56
14, 54720, Note_on_c, 12, 66, 56
14, 54784, Note_on_c, 12, 60, 0
14, 54784, Note_on_c, 12, 66, 0
14, 54800, Note_on_c, 12, 60, 56
14, 54800, Note_on_c, 12, 66, 56
14, 54864, Note_on_c, 12, 60, 0
14, 54864, Note_on_c, 12, 66, 0
14, 54880, Note_on_c, 12, 66, 56
14, 54880, Note_on_c, 12, 60, 56
14, 54944, Note_on_c, 12, 66, 0
14, 54944, Note_on_c, 12, 60, 0
14, 54960, Note_on_c, 12, 60, 57
14, 54960, Note_on_c, 12, 66, 57
14, 55024, Note_on_c, 12, 60, 0
14, 55024, Note_on_c, 12, 66, 0
14, 55040, Note_on_c, 12, 60, 57
14, 55040, Note_on_c, 12, 66, 57
14, 55104, Note_on_c, 12, 60, 0
14, 55104, Note_on_c, 12, 66, 0
14, 55120, Note_on_c, 12, 66, 57
14, 55120, Note_on_c, 12, 60, 57
14, 55184, Note_on_c, 12, 66, 0
14, 55184, Note_on_c, 12, 60, 0
14, 55200, Note_on_c, 12, 60, 58
14, 55200, Note_on_c, 12, 66, 58
14, 55264, Note_on_c, 12, 60, 0
14, 55264, Note_on_c, 12, 66, 0
14, 55280, Note_on_c, 12, 66, 58
14, 55280, Note_on_c, 12, 60, 58
14, 55344, Note_on_c, 12, 66, 0
14, 55344, Note_on_c, 12, 60, 0
14, 55360, Note_on_c, 12, 66, 58
14, 55360, Note_on_c, 12, 60, 58
14, 55424, Note_on_c, 12, 66, 0
14, 55424, Note_on_c, 12, 60, 0
14, 55440, Note_on_c, 12, 66, 59
14, 55440, Note_on_c, 12, 60, 59
14, 55504, Note_on_c, 12, 66, 0
14, 55504, Note_on_c, 12, 60, 0
14, 55520, Note_on_c, 12, 60, 59
14, 55520, Note_on_c, 12, 66, 59
14, 55584, Note_on_c, 12, 60, 0
14, 55584, Note_on_c, 12, 66, 0
14, 55600, Note_on_c, 12, 66, 59
14, 55600, Note_on_c, 12, 60, 59
14, 55664, Note_on_c, 12, 66, 0
14, 55664, Note_on_c, 12, 60, 0
14, 55680, Note_on_c, 12, 65, 60
14, 55680, Note_on_c, 12, 62, 60
14, 55744, Note_on_c, 12, 65, 0
14, 55744, Note_on_c, 12, 62, 0
14, 55760, Note_on_c, 12, 62, 60
14, 55760, Note_on_c, 12, 65, 60
14, 55824, Note_on_c, 12, 62, 0
14, 55824, Note_on_c, 12, 65, 0
14, 55840, Note_on_c, 12, 62, 60
14, 55840, Note_on_c, 12, 65, 60
14, 55904, Note_on_c, 12, 62, 0
14, 55904, Note_on_c, 12, 65, 0
14, 55920, Note_on_c, 12, 65, 61
14, 55920, Note_on_c, 12, 62, 61
14, 55984, Note_on_c, 12, 65, 0
14, 55984, Note_on_c, 12, 62, 0
14, 56000, Note_on_c, 12, 62, 61
14, 56000, Note_on_c, 12, 65, 61
14, 56064, Note_on_c, 12, 62, 0
14, 56064, Note_on_c, 12, 65, 0
14, 56080, Note_on_c, 12, 65, 61
14, 56080, Note_on_c, 12, 62, 61
14, 56144, Note_on_c, 12, 65, 0
14, 56144, Note_on_c, 12, 62, 0
14, 56160, Note_on_c, 12, 62, 62
14, 56160, Note_on_c, 12, 65, 62
14, 56224, Note_on_c, 12, 62, 0
14, 56224, Note_on_c, 12, 65, 0
14, 56240, Note_on_c, 12, 65, 62
14, 56240, Note_on_c, 12, 62, 62
14, 56304, Note_on_c, 12, 65, 0
14, 56304, Note_on_c, 12, 62, 0
14, 56320, Note_on_c, 12, 62, 62
14, 56320, Note_on_c, 12, 65, 62
14, 56384, Note_on_c, 12, 62, 0
14, 56384, Note_on_c, 12, 65, 0
14, 56400, Note_on_c, 12, 65, 63
14, 56400, Note_on_c, 12, 62, 63
14, 56464, Note_on_c, 12, 65, 0
14, 56464, Note_on_c, 12, 62, 0
14, 56480, Note_on_c, 12, 62, 63
14, 56480, Note_on_c, 12, 65, 63
14, 56544, Note_on_c, 12, 62, 0
14, 56544, Note_on_c, 12, 65, 0
14, 56560, Note_on_c, 12, 62, 63
14, 56560, Note_on_c, 12, 65, 63
14, 56624, Note_on_c, 12, 62, 0
14, 56624, Note_on_c, 12, 65, 0
14, 56640, Note_on_c, 12, 62, 64
14, 56640, Note_on_c, 12, 65, 64
14, 56704, Note_on_c, 12, 62, 0
14, 56704, Note_on_c, 12, 65, 0
14, 56720, Note_on_c, 12, 65, 64
14, 56720, Note_on_c, 12, 62, 64
14, 56784, Note_on_c, 12, 65, 0
14, 56784, Note_on_c, 12, 62, 0
14, 56800, Note_on_c, 12, 65, 64
14, 56800, Note_on_c, 12, 62, 64
14, 56864, Note_on_c, 12, 65, 0
14, 56864, Note_on_c, 12, 62, 0
14, 56880, Note_on_c, 12, 62, 65
14, 56880, Note_on_c, 12, 65, 65
14, 56944, Note_on_c, 12, 62, 0
14, 56944, Note_on_c, 12, 65, 0
14, 56960, Note_on_c, 12, 65, 65
14, 56960, Note_on_c, 12, 62, 65
14, 57024, Note_on_c, 12, 65, 0
14, 57024, Note_on_c, 12, 62, 0
14, 57040, Note_on_c, 12, 65, 65
14, 57040, Note_on_c, 12, 62, 65
14, 57104, Note_on_c, 12, 65, 0
14, 57104, Note_on_c, 12, 62, 0
14, 57120, Note_on_c, 12, 62, 66
14, 57120, Note_on_c, 12, 65, 66
14, 57184, Note_on_c, 12, 62, 0
14, 57184, Note_on_c, 12, 65, 0
14, 57200, Note_on_c, 12, 62, 66
14, 57200, Note_on_c, 12, 65, 66
14, 57264, Note_on_c, 12, 62, 0
14, 57264, Note_on_c, 12, 65, 0
14, 57280, Note_on_c, 12, 65, 66
14, 57280, Note_on_c, 12, 62, 66
14, 57344, Note_on_c, 12, 65, 0
14, 57344, Note_on_c, 12, 62, 0
14, 57360, Note_on_c, 12, 62, 67
14, 57360, Note_on_c, 12, 65, 67
14, 57424, Note_on_c, 12, 62, 0
14, 57424, Note_on_c, 12, 65, 0
14, 57440, Note_on_c, 12, 62, 67
14, 57440, Note_on_c, 12, 65, 67
14, 57504, Note_on_c, 12, 62, 0
14, 57504, Note_on_c, 12, 65, 0
14, 57520, Note_on_c, 12, 65, 67
14, 57520, Note_on_c, 12, 62, 67
14, 57584, Note_on_c, 12, 65, 0
14, 57584, Note_on_c, 12, 62, 0
14, 57600, Note_on_c, 12, 64, 52
14, 57600, Note_on_c, 12, 60, 52
14, 58559, Note_on_c, 12, 64, 0
14, 58559, Note_on_c, 12, 60, 0
14, 58560, Note_on_c, 12, 64, 52
14, 58560, Note_on_c, 12, 60, 52
14, 59499, Note_on_c, 12, 64, 0
14, 59499, Note_on_c, 12, 60, 0
14, 59520, Note_on_c, 12, 59, 52
14, 59520, Note_on_c, 12, 62, 52
14, 59979, Note_on_c, 12, 59, 0
14, 59979, Note_on_c, 12, 62, 0
14, 60000, Note_on_c, 12, 65, 52
14, 60000, Note_on_c, 12, 62, 52
14, 60459, Note_on_c, 12, 65, 0
14, 60459, Note_on_c, 12, 62, 0
14, 60480, Note_on_c, 12, 65, 52
14, 60480, Note_on_c, 12, 62, 52
14, 60939, Note_on_c, 12, 65, 0
14, 60939, Note_on_c, 12, 62, 0
14, 60960, Note_on_c, 12, 62, 52
14, 60960, Note_on_c, 12, 65, 52
14, 61419, Note_on_c, 12, 62, 0
14, 61419, Note_on_c, 12, 65, 0
14, 61440, Note_on_c, 12, 64, 52
14, 61440, Note_on_c, 12, 60, 52
14, 62399, Note_on_c, 12, 64, 0
14, 62399, Note_on_c, 12, 60, 0
14, 62400, Note_on_c, 12, 60, 52
14, 62400, Note_on_c, 12, 64, 52
14, 63339, Note_on_c, 12, 60, 0
14, 63339, Note_on_c, 12, 64, 0
14, 63360, Note_on_c, 12, 62, 52
14, 63360, Note_on_c, 12, 59, 52
14, 63819, Note_on_c, 12, 62, 0
14, 63819, Note_on_c, 12, 59, 0
14, 63840, Note_on_c, 12, 65, 52
14, 63840, Note_on_c, 12, 62, 52
14, 64299, Note_on_c, 12, 65, 0
14, 64299, Note_on_c, 12, 62, 0
14, 64320, Note_on_c, 12, 62, 52
14, 64320, Note_on_c, 12, 65, 52
14, 64779, Note_on_c, 12, 62, 0
14, 64779, Note_on_c, 12, 65, 0
14, 64800, Note_on_c, 12, 65, 52
14, 64800, Note_on_c, 12, 62, 52
14, 65259, Note_on_c, 12, 65, 0
14, 65259, Note_on_c, 12, 62, 0
14, 65280, Note_on_c, 12, 60, 44
14, 65399, Note_on_c, 12, 60, 0
14, 65440, Note_on_c, 12, 60, 44
14, 65599, Note_on_c, 12, 60, 0
14, 65600, Note_on_c, 12, 59, 44
14, 65759, Note_on_c, 12, 59, 0
14, 65760, Note_on_c, 12, 60, 44
14, 65919, Note_on_c, 12, 60, 0
14, 65920, Note_on_c, 12, 59, 44
14, 66079, Note_on_c, 12, 59, 0
14, 66080, Note_on_c, 12, 61, 44
14, 66239, Note_on_c, 12, 61, 0
14, 66240, Note_on_c, 12, 62, 44
14, 66379, Note_on_c, 12, 62, 0
14, 66400, Note_on_c, 12, 62, 44
14, 66559, Note_on_c, 12, 62, 0
14, 66560, Note_on_c, 12, 61, 44
14, 66719, Note_on_c, 12, 61, 0
14, 66720, Note_on_c, 12, 62, 44
14, 66879, Note_on_c, 12, 62, 0
14, 66880, Note_on_c, 12, 61, 44
14, 67039, Note_on_c, 12, 61, 0
14, 67040, Note_on_c, 12, 63, 44
14, 67199, Note_on_c, 12, 63, 0
14, 67200, Note_on_c, 12, 64, 44
14, 67339, Note_on_c, 12, 64, 0
14, 67360, Note_on_c, 12, 64, 44
14, 67519, Note_on_c, 12, 64, 0
14, 67520, Note_on_c, 12, 63, 44
14, 67679, Note_on_c, 12, 63, 0
14, 67680, Note_on_c, 12, 64, 44
14, 67839, Note_on_c, 12, 64, 0
14, 67840, Note_on_c, 12, 62, 44
14, 67999, Note_on_c, 12, 62, 0
14, 68000, Note_on_c, 12, 64, 44
14, 68159, Note_on_c, 12, 64, 0
14, 68160, Note_on_c, 12, 65, 44
14, 68299, Note_on_c, 12, 65, 0
14, 68320, Note_on_c, 12, 65, 44
14, 68479, Note_on_c, 12, 65, 0
14, 68480, Note_on_c, 12, 64, 44
14, 68639, Note_on_c, 12, 64, 0
14, 68640, Note_on_c, 12, 65, 44
14, 68799, Note_on_c, 12, 65, 0
14, 68800, Note_on_c, 12, 64, 44
14, 68959, Note_on_c, 12, 64, 0
14, 68960, Note_on_c, 12, 66, 44
14, 69099, Note_on_c, 12, 66, 0
14, 69120, Note_on_c, 12, 67, 44
14, 69279, Note_on_c, 12, 67, 0
14, 69280, Note_on_c, 12, 62, 44
14, 69439, Note_on_c, 12, 62, 0
14, 69440, Note_on_c, 12, 67, 44
14, 69599, Note_on_c, 12, 67, 0
14, 69600, Note_on_c, 12, 62, 44
14, 69759, Note_on_c, 12, 62, 0
14, 69760, Note_on_c, 12, 67, 44
14, 69919, Note_on_c, 12, 67, 0
14, 69920, Note_on_c, 12, 64, 44
14, 70079, Note_on_c, 12, 64, 0
14, 70080, Note_on_c, 12, 65, 44
14, 70239, Note_on_c, 12, 65, 0
14, 70240, Note_on_c, 12, 60, 44
14, 70399, Note_on_c, 12, 60, 0
14, 70400, Note_on_c, 12, 65, 44
14, 70559, Note_on_c, 12, 65, 0
14, 70560, Note_on_c, 12, 60, 44
14, 70719, Note_on_c, 12, 60, 0
14, 70720, Note_on_c, 12, 65, 44
14, 70879, Note_on_c, 12, 65, 0
14, 70880, Note_on_c, 12, 63, 44
14, 71039, Note_on_c, 12, 63, 0
14, 71040, Note_on_c, 12, 64, 44
14, 71199, Note_on_c, 12, 64, 0
14, 71200, Note_on_c, 12, 59, 44
14, 71359, Note_on_c, 12, 59, 0
14, 71360, Note_on_c, 12, 64, 44
14, 71519, Note_on_c, 12, 64, 0
14, 71520, Note_on_c, 12, 59, 44
14, 71679, Note_on_c, 12, 59, 0
14, 71680, Note_on_c, 12, 64, 44
14, 71839, Note_on_c, 12, 64, 0
14, 71840, Note_on_c, 12, 61, 44
14, 71999, Note_on_c, 12, 61, 0
14, 72000, Note_on_c, 12, 62, 44
14, 72159, Note_on_c, 12, 62, 0
14, 72160, Note_on_c, 12, 57, 44
14, 72319, Note_on_c, 12, 57, 0
14, 72320, Note_on_c, 12, 62, 44
14, 72479, Note_on_c, 12, 62, 0
14, 72480, Note_on_c, 12, 57, 44
14, 72639, Note_on_c, 12, 57, 0
14, 72640, Note_on_c, 12, 62, 44
14, 72799, Note_on_c, 12, 62, 0
14, 72800, Note_on_c, 12, 59, 44
14, 72939, Note_on_c, 12, 59, 0
14, 72960, Note_on_c, 12, 60, 76
14, 73179, Note_on_c, 12, 60, 0
14, 73200, Note_on_c, 12, 72, 76
14, 73659, Note_on_c, 12, 72, 0
14, 73680, Note_on_c, 12, 71, 76
14, 73799, Note_on_c, 12, 71, 0
14, 73800, Note_on_c, 12, 73, 76
14, 73919, Note_on_c, 12, 73, 0
14, 73920, Note_on_c, 12, 74, 76
14, 74079, Note_on_c, 12, 74, 0
14, 74160, Note_on_c, 12, 74, 76
14, 74619, Note_on_c, 12, 74, 0
14, 74640, Note_on_c, 12, 73, 76
14, 74759, Note_on_c, 12, 73, 0
14, 74760, Note_on_c, 12, 75, 76
14, 74879, Note_on_c, 12, 75, 0
14, 74880, Note_on_c, 12, 76, 76
14, 75039, Note_on_c, 12, 76, 0
14, 75120, Note_on_c, 12, 76, 76
14, 75579, Note_on_c, 12, 76, 0
14, 75600, Note_on_c, 12, 74, 76
14, 75719, Note_on_c, 12, 74, 0
14, 75720, Note_on_c, 12, 76, 76
14, 75839, Note_on_c, 12, 76, 0
14, 75840, Note_on_c, 12, 77, 76
14, 75999, Note_on_c, 12, 77, 0
14, 76080, Note_on_c, 12, 77, 76
14, 76539, Note_on_c, 12, 77, 0
14, 76560, Note_on_c, 12, 76, 76
14, 76679, Note_on_c, 12, 76, 0
14, 76680, Note_on_c, 12, 78, 76
14, 76779, Note_on_c, 12, 78, 0
14, 76800, Note_on_c, 12, 79, 76
14, 76864, Note_on_c, 12, 79, 0
14, 76880, Note_on_c, 12, 79, 76
14, 76944, Note_on_c, 12, 79, 0
14, 76960, Note_on_c, 12, 79, 76
14, 77024, Note_on_c, 12, 79, 0
14, 77040, Note_on_c, 12, 67, 76
14, 77104, Note_on_c, 12, 67, 0
14, 77120, Note_on_c, 12, 67, 76
14, 77184, Note_on_c, 12, 67, 0
14, 77200, Note_on_c, 12, 67, 76
14, 77264, Note_on_c, 12, 67, 0
14, 77280, Note_on_c, 12, 79, 76
14, 77344, Note_on_c, 12, 79, 0
14, 77360, Note_on_c, 12, 79, 76
14, 77424, Note_on_c, 12, 79, 0
14, 77440, Note_on_c, 12, 79, 76
14, 77504, Note_on_c, 12, 79, 0
14, 77520, Note_on_c, 12, 79, 76
14, 77584, Note_on_c, 12, 79, 0
14, 77600, Note_on_c, 12, 79, 76
14, 77664, Note_on_c, 12, 79, 0
14, 77680, Note_on_c, 12, 79, 76
14, 77744, Note_on_c, 12, 79, 0
14, 77760, Note_on_c, 12, 77, 76
14, 77824, Note_on_c, 12, 77, 0
14, 77840, Note_on_c, 12, 65, 76
14, 77904, Note_on_c, 12, 65, 0
14, 77920, Note_on_c, 12, 65, 76
14, 77984, Note_on_c, 12, 65, 0
14, 78000, Note_on_c, 12, 65, 76
14, 78064, Note_on_c, 12, 65, 0
14, 78080, Note_on_c, 12, 65, 76
14, 78144, Note_on_c, 12, 65, 0
14, 78160, Note_on_c, 12, 65, 76
14, 78224, Note_on_c, 12, 65, 0
14, 78240, Note_on_c, 12, 65, 76
14, 78304, Note_on_c, 12, 65, 0
14, 78320, Note_on_c, 12, 65, 76
14, 78384, Note_on_c, 12, 65, 0
14, 78400, Note_on_c, 12, 65, 76
14, 78464, Note_on_c, 12, 65, 0
14, 78480, Note_on_c, 12, 66, 76
14, 78544, Note_on_c, 12, 66, 0
14, 78560, Note_on_c, 12, 66, 76
14, 78624, Note_on_c, 12, 66, 0
14, 78640, Note_on_c, 12, 66, 76
14, 78704, Note_on_c, 12, 66, 0
14, 78720, Note_on_c, 12, 76, 76
14, 78784, Note_on_c, 12, 76, 0
14, 78800, Note_on_c, 12, 64, 76
14, 78864, Note_on_c, 12, 64, 0
14, 78880, Note_on_c, 12, 64, 76
14, 78944, Note_on_c, 12, 64, 0
14, 78960, Note_on_c, 12, 64, 76
14, 79024, Note_on_c, 12, 64, 0
14, 79040, Note_on_c, 12, 64, 76
14, 79104, Note_on_c, 12, 64, 0
14, 79120, Note_on_c, 12, 64, 76
14, 79184, Note_on_c, 12, 64, 0
14, 79200, Note_on_c, 12, 64, 76
14, 79264, Note_on_c, 12, 64, 0
14, 79280, Note_on_c, 12, 64, 76
14, 79344, Note_on_c, 12, 64, 0
14, 79360, Note_on_c, 12, 64, 76
14, 79424, Note_on_c, 12, 64, 0
14, 79440, Note_on_c, 12, 64, 76
14, 79504, Note_on_c, 12, 64, 0
14, 79520, Note_on_c, 12, 64, 76
14, 79584, Note_on_c, 12, 64, 0
14, 79600, Note_on_c, 12, 64, 76
14, 79664, Note_on_c, 12, 64, 0
14, 79680, Note_on_c, 12, 74, 76
14, 79744, Note_on_c, 12, 74, 0
14, 79760, Note_on_c, 12, 62, 76
14, 79824, Note_on_c, 12, 62, 0
14, 79840, Note_on_c, 12, 62, 76
14, 79904, Note_on_c, 12, 62, 0
14, 79920, Note_on_c, 12, 62, 76
14, 79984, Note_on_c, 12, 62, 0
14, 80000, Note_on_c, 12, 62, 76
14, 80064, Note_on_c, 12, 62, 0
14, 80080, Note_on_c, 12, 62, 76
14, 80144, Note_on_c, 12, 62, 0
14, 80160, Note_on_c, 12, 62, 76
14, 80224, Note_on_c, 12, 62, 0
14, 80240, Note_on_c, 12, 62, 76
14, 80304, Note_on_c, 12, 62, 0
14, 80320, Note_on_c, 12, 62, 76
14, 80384, Note_on_c, 12, 62, 0
14, 80400, Note_on_c, 12, 62, 76
14, 80400, Note_on_c, 12, 65, 76
14, 80464, Note_on_c, 12, 62, 0
14, 80464, Note_on_c, 12, 65, 0
14, 80480, Note_on_c, 12, 65, 76
14, 80480, Note_on_c, 12, 62, 76
14, 80544, Note_on_c, 12, 65, 0
14, 80544, Note_on_c, 12, 62, 0
14, 80560, Note_on_c, 12, 65, 76
14, 80560, Note_on_c, 12, 62, 76
14, 80624, Note_on_c, 12, 65, 0
14, 80624, Note_on_c, 12, 62, 0
14, 80640, Note_on_c, 12, 62, 80
14, 80640, Note_on_c, 12, 71, 80
14, 80704, Note_on_c, 12, 62, 0
14, 80704, Note_on_c, 12, 71, 0
14, 80720, Note_on_c, 12, 62, 80
14, 80720, Note_on_c, 12, 71, 80
14, 80784, Note_on_c, 12, 62, 0
14, 80784, Note_on_c, 12, 71, 0
14, 80800, Note_on_c, 12, 62, 80
14, 80800, Note_on_c, 12, 71, 80
14, 80864, Note_on_c, 12, 62, 0
14, 80864, Note_on_c, 12, 71, 0
14, 80880, Note_on_c, 12, 62, 80
14, 80880, Note_on_c, 12, 71, 80
14, 80944, Note_on_c, 12, 62, 0
14, 80944, Note_on_c, 12, 71, 0
14, 80960, Note_on_c, 12, 62, 80
14, 80960, Note_on_c, 12, 71, 80
14, 81024, Note_on_c, 12, 62, 0
14, 81024, Note_on_c, 12, 71, 0
14, 81040, Note_on_c, 12, 62, 80
14, 81040, Note_on_c, 12, 71, 80
14, 81104, Note_on_c, 12, 62, 0
14, 81104, Note_on_c, 12, 71, 0
14, 81120, Note_on_c, 12, 62, 80
14, 81120, Note_on_c, 12, 71, 80
14, 81184, Note_on_c, 12, 62, 0
14, 81184, Note_on_c, 12, 71, 0
14, 81200, Note_on_c, 12, 62, 80
14, 81200, Note_on_c, 12, 71, 80
14, 81264, Note_on_c, 12, 62, 0
14, 81264, Note_on_c, 12, 71, 0
14, 81280, Note_on_c, 12, 62, 80
14, 81280, Note_on_c, 12, 71, 80
14, 81344, Note_on_c, 12, 62, 0
14, 81344, Note_on_c, 12, 71, 0
14, 81360, Note_on_c, 12, 62, 80
14, 81360, Note_on_c, 12, 71, 80
14, 81424, Note_on_c, 12, 62, 0
14, 81424, Note_on_c, 12, 71, 0
14, 81440, Note_on_c, 12, 62, 80
14, 81440, Note_on_c, 12, 71, 80
14, 81504, Note_on_c, 12, 62, 0
14, 81504, Note_on_c, 12, 71, 0
14, 81520, Note_on_c, 12, 71, 80
14, 81520, Note_on_c, 12, 62, 80
14, 81584, Note_on_c, 12, 71, 0
14, 81584, Note_on_c, 12, 62, 0
14, 81600, Note_on_c, 12, 62, 80
14, 81600, Note_on_c, 12, 71, 80
14, 81664, Note_on_c, 12, 62, 0
14, 81664, Note_on_c, 12, 71, 0
14, 81680, Note_on_c, 12, 62, 80
14, 81680, Note_on_c, 12, 71, 80
14, 81744, Note_on_c, 12, 62, 0
14, 81744, Note_on_c, 12, 71, 0
14, 81760, Note_on_c, 12, 62, 80
14, 81760, Note_on_c, 12, 71, 80
14, 81824, Note_on_c, 12, 62, 0
14, 81824, Note_on_c, 12, 71, 0
14, 81840, Note_on_c, 12, 71, 80
14, 81840, Note_on_c, 12, 62, 80
14, 81904, Note_on_c, 12, 71, 0
14, 81904, Note_on_c, 12, 62, 0
14, 81920, Note_on_c, 12, 71, 80
14, 81920, Note_on_c, 12, 62, 80
14, 81984, Note_on_c, 12, 71, 0
14, 81984, Note_on_c, 12, 62, 0
14, 82000, Note_on_c, 12, 71, 80
14, 82000, Note_on_c, 12, 62, 80
14, 82064, Note_on_c, 12, 71, 0
14, 82064, Note_on_c, 12, 62, 0
14, 82080, Note_on_c, 12, 71, 80
14, 82080, Note_on_c, 12, 62, 80
14, 82144, Note_on_c, 12, 71, 0
14, 82144, Note_on_c, 12, 62, 0
14, 82160, Note_on_c, 12, 62, 80
14, 82160, Note_on_c, 12, 71, 80
14, 82224, Note_on_c, 12, 62, 0
14, 82224, Note_on_c, 12, 71, 0
14, 82240, Note_on_c, 12, 71, 80
14, 82240, Note_on_c, 12, 62, 80
14, 82304, Note_on_c, 12, 71, 0
14, 82304, Note_on_c, 12, 62, 0
14, 82320, Note_on_c, 12, 71, 80
14, 82320, Note_on_c, 12, 62, 80
14, 82384, Note_on_c, 12, 71, 0
14, 82384, Note_on_c, 12, 62, 0
14, 82400, Note_on_c, 12, 71, 80
14, 82400, Note_on_c, 12, 62, 80
14, 82464, Note_on_c, 12, 71, 0
14, 82464, Note_on_c, 12, 62, 0
14, 82480, Note_on_c, 12, 71, 80
14, 82480, Note_on_c, 12, 62, 80
14, 82544, Note_on_c, 12, 71, 0
14, 82544, Note_on_c, 12, 62, 0
14, 82560, Note_on_c, 12, 67, 80
14, 82560, Note_on_c, 12, 70, 80
14, 82624, Note_on_c, 12, 67, 0
14, 82624, Note_on_c, 12, 70, 0
14, 82640, Note_on_c, 12, 67, 80
14, 82640, Note_on_c, 12, 70, 80
14, 82704, Note_on_c, 12, 67, 0
14, 82704, Note_on_c, 12, 70, 0
14, 82720, Note_on_c, 12, 70, 80
14, 82720, Note_on_c, 12, 67, 80
14, 82784, Note_on_c, 12, 70, 0
14, 82784, Note_on_c, 12, 67, 0
14, 82800, Note_on_c, 12, 70, 80
14, 82800, Note_on_c, 12, 67, 80
14, 82864, Note_on_c, 12, 70, 0
14, 82864, Note_on_c, 12, 67, 0
14, 82880, Note_on_c, 12, 67, 80
14, 82880, Note_on_c, 12, 70, 80
14, 82944, Note_on_c, 12, 67, 0
14, 82944, Note_on_c, 12, 70, 0
14, 82960, Note_on_c, 12, 67, 80
14, 82960, Note_on_c, 12, 70, 80
14, 83024, Note_on_c, 12, 67, 0
14, 83024, Note_on_c, 12, 70, 0
14, 83040, Note_on_c, 12, 70, 80
14, 83040, Note_on_c, 12, 67, 80
14, 83104, Note_on_c, 12, 70, 0
14, 83104, Note_on_c, 12, 67, 0
14, 83120, Note_on_c, 12, 70, 80
14, 83120, Note_on_c, 12, 67, 80
14, 83184, Note_on_c, 12, 70, 0
14, 83184, Note_on_c, 12, 67, 0
14, 83200, Note_on_c, 12, 67, 80
14, 83200, Note_on_c, 12, 70, 80
14, 83264, Note_on_c, 12, 67, 0
14, 83264, Note_on_c, 12, 70, 0
14, 83280, Note_on_c, 12, 67, 80
14, 83280, Note_on_c, 12, 70, 80
14, 83344, Note_on_c, 12, 67, 0
14, 83344, Note_on_c, 12, 70, 0
14, 83360, Note_on_c, 12, 67, 80
14, 83360, Note_on_c, 12, 70, 80
14, 83424, Note_on_c, 12, 67, 0
14, 83424, Note_on_c, 12, 70, 0
14, 83440, Note_on_c, 12, 67, 80
14, 83440, Note_on_c, 12, 70, 80
14, 83504, Note_on_c, 12, 67, 0
14, 83504, Note_on_c, 12, 70, 0
14, 83520, Note_on_c, 12, 70, 80
14, 83520, Note_on_c, 12, 67, 80
14, 83584, Note_on_c, 12, 70, 0
14, 83584, Note_on_c, 12, 67, 0
14, 83600, Note_on_c, 12, 67, 80
14, 83600, Note_on_c, 12, 70, 80
14, 83664, Note_on_c, 12, 67, 0
14, 83664, Note_on_c, 12, 70, 0
14, 83680, Note_on_c, 12, 70, 80
14, 83680, Note_on_c, 12, 67, 80
14, 83744, Note_on_c, 12, 70, 0
14, 83744, Note_on_c, 12, 67, 0
14, 83760, Note_on_c, 12, 67, 80
14, 83760, Note_on_c, 12, 70, 80
14, 83824, Note_on_c, 12, 67, 0
14, 83824, Note_on_c, 12, 70, 0
14, 83840, Note_on_c, 12, 70, 80
14, 83840, Note_on_c, 12, 67, 80
14, 83904, Note_on_c, 12, 70, 0
14, 83904, Note_on_c, 12, 67, 0
14, 83920, Note_on_c, 12, 67, 80
14, 83920, Note_on_c, 12, 70, 80
14, 83984, Note_on_c, 12, 67, 0
14, 83984, Note_on_c, 12, 70, 0
14, 84000, Note_on_c, 12, 67, 80
14, 84000, Note_on_c, 12, 70, 80
14, 84064, Note_on_c, 12, 67, 0
14, 84064, Note_on_c, 12, 70, 0
14, 84080, Note_on_c, 12, 70, 80
14, 84080, Note_on_c, 12, 67, 80
14, 84144, Note_on_c, 12, 70, 0
14, 84144, Note_on_c, 12, 67, 0
14, 84160, Note_on_c, 12, 70, 80
14, 84160, Note_on_c, 12, 67, 80
14, 84224, Note_on_c, 12, 70, 0
14, 84224, Note_on_c, 12, 67, 0
14, 84240, Note_on_c, 12, 70, 80
14, 84240, Note_on_c, 12, 67, 80
14, 84304, Note_on_c, 12, 70, 0
14, 84304, Note_on_c, 12, 67, 0
14, 84320, Note_on_c, 12, 67, 80
14, 84320, Note_on_c, 12, 70, 80
14, 84384, Note_on_c, 12, 67, 0
14, 84384, Note_on_c, 12, 70, 0
14, 84400, Note_on_c, 12, 70, 80
14, 84400, Note_on_c, 12, 67, 80
14, 84464, Note_on_c, 12, 70, 0
14, 84464, Note_on_c, 12, 67, 0
14, 84480, Note_on_c, 12, 65, 84
14, 84480, Note_on_c, 12, 69, 84
14, 84544, Note_on_c, 12, 65, 0
14, 84544, Note_on_c, 12, 69, 0
14, 84560, Note_on_c, 12, 65, 84
14, 84560, Note_on_c, 12, 69, 84
14, 84624, Note_on_c, 12, 65, 0
14, 84624, Note_on_c, 12, 69, 0
14, 84640, Note_on_c, 12, 65, 84
14, 84640, Note_on_c, 12, 69, 84
14, 84704, Note_on_c, 12, 65, 0
14, 84704, Note_on_c, 12, 69, 0
14, 84720, Note_on_c, 12, 69, 84
14, 84720, Note_on_c, 12, 65, 84
14, 84784, Note_on_c, 12, 69, 0
14, 84784, Note_on_c, 12, 65, 0
14, 84800, Note_on_c, 12, 65, 84
14, 84800, Note_on_c, 12, 69, 84
14, 84864, Note_on_c, 12, 65, 0
14, 84864, Note_on_c, 12, 69, 0
14, 84880, Note_on_c, 12, 65, 84
14, 84880, Note_on_c, 12, 69, 84
14, 84944, Note_on_c, 12, 65, 0
14, 84944, Note_on_c, 12, 69, 0
14, 84960, Note_on_c, 12, 69, 84
14, 84960, Note_on_c, 12, 65, 84
14, 85024, Note_on_c, 12, 69, 0
14, 85024, Note_on_c, 12, 65, 0
14, 85040, Note_on_c, 12, 65, 84
14, 85040, Note_on_c, 12, 69, 84
14, 85104, Note_on_c, 12, 65, 0
14, 85104, Note_on_c, 12, 69, 0
14, 85120, Note_on_c, 12, 65, 84
14, 85120, Note_on_c, 12, 69, 84
14, 85184, Note_on_c, 12, 65, 0
14, 85184, Note_on_c, 12, 69, 0
14, 85200, Note_on_c, 12, 69, 84
14, 85200, Note_on_c, 12, 65, 84
14, 85264, Note_on_c, 12, 69, 0
14, 85264, Note_on_c, 12, 65, 0
14, 85280, Note_on_c, 12, 65, 84
14, 85280, Note_on_c, 12, 69, 84
14, 85344, Note_on_c, 12, 65, 0
14, 85344, Note_on_c, 12, 69, 0
14, 85360, Note_on_c, 12, 65, 84
14, 85360, Note_on_c, 12, 69, 84
14, 85424, Note_on_c, 12, 65, 0
14, 85424, Note_on_c, 12, 69, 0
14, 85440, Note_on_c, 12, 65, 84
14, 85440, Note_on_c, 12, 69, 84
14, 85504, Note_on_c, 12, 65, 0
14, 85504, Note_on_c, 12, 69, 0
14, 85520, Note_on_c, 12, 65, 84
14, 85520, Note_on_c, 12, 69, 84
14, 85584, Note_on_c, 12, 65, 0
14, 85584, Note_on_c, 12, 69, 0
14, 85600, Note_on_c, 12, 69, 84
14, 85600, Note_on_c, 12, 65, 84
14, 85664, Note_on_c, 12, 69, 0
14, 85664, Note_on_c, 12, 65, 0
14, 85680, Note_on_c, 12, 69, 84
14, 85680, Note_on_c, 12, 65, 84
14, 85744, Note_on_c, 12, 69, 0
14, 85744, Note_on_c, 12, 65, 0
14, 85760, Note_on_c, 12, 65, 84
14, 85760, Note_on_c, 12, 69, 84
14, 85824, Note_on_c, 12, 65, 0
14, 85824, Note_on_c, 12, 69, 0
14, 85840, Note_on_c, 12, 69, 84
14, 85840, Note_on_c, 12, 65, 84
14, 85904, Note_on_c, 12, 69, 0
14, 85904, Note_on_c, 12, 65, 0
14, 85920, Note_on_c, 12, 69, 84
14, 85920, Note_on_c, 12, 65, 84
14, 85984, Note_on_c, 12, 69, 0
14, 85984, Note_on_c, 12, 65, 0
14, 86000, Note_on_c, 12, 65, 84
14, 86000, Note_on_c, 12, 69, 84
14, 86064, Note_on_c, 12, 65, 0
14, 86064, Note_on_c, 12, 69, 0
14, 86080, Note_on_c, 12, 69, 84
14, 86080, Note_on_c, 12, 65, 84
14, 86144, Note_on_c, 12, 69, 0
14, 86144, Note_on_c, 12, 65, 0
14, 86160, Note_on_c, 12, 69, 84
14, 86160, Note_on_c, 12, 65, 84
14, 86224, Note_on_c, 12, 69, 0
14, 86224, Note_on_c, 12, 65, 0
14, 86240, Note_on_c, 12, 65, 84
14, 86240, Note_on_c, 12, 69, 84
14, 86304, Note_on_c, 12, 65, 0
14, 86304, Note_on_c, 12, 69, 0
14, 86320, Note_on_c, 12, 69, 84
14, 86320, Note_on_c, 12, 65, 84
14, 86384, Note_on_c, 12, 69, 0
14, 86384, Note_on_c, 12, 65, 0
14, 86400, Note_on_c, 12, 65, 84
14, 86400, Note_on_c, 12, 69, 84
14, 86639, Note_on_c, 12, 65, 0
14, 86639, Note_on_c, 12, 69, 0
14, 89760, Note_on_c, 12, 65, 52
14, 89824, Note_on_c, 12, 65, 0
14, 89840, Note_on_c, 12, 65, 52
14, 89904, Note_on_c, 12, 65, 0
14, 89920, Note_on_c, 12, 65, 52
14, 89984, Note_on_c, 12, 65, 0
14, 90000, Note_on_c, 12, 65, 52
14, 90064, Note_on_c, 12, 65, 0
14, 90080, Note_on_c, 12, 65, 52
14, 90144, Note_on_c, 12, 65, 0
14, 90160, Note_on_c, 12, 65, 52
14, 90224, Note_on_c, 12, 65, 0
14, 90240, Note_on_c, 12, 65, 52
14, 90479, Note_on_c, 12, 65, 0
14, 93600, Note_on_c, 12, 65, 44
14, 93664, Note_on_c, 12, 65, 0
14, 93680, Note_on_c, 12, 65, 44
14, 93744, Note_on_c, 12, 65, 0
14, 93760, Note_on_c, 12, 65, 44
14, 93824, Note_on_c, 12, 65, 0
14, 93840, Note_on_c, 12, 65, 44
14, 93904, Note_on_c, 12, 65, 0
14, 93920, Note_on_c, 12, 65, 44
14, 93984, Note_on_c, 12, 65, 0
14, 94000, Note_on_c, 12, 65, 44
14, 94064, Note_on_c, 12, 65, 0
14, 94080, Note_on_c, 12, 65, 44
14, 94199, Note_on_c, 12, 65, 0
14, 94200, Note_on_c, 12, 67, 44
14, 94299, Note_on_c, 12, 67, 0
14, 94320, Note_on_c, 12, 60, 44
14, 94479, Note_on_c, 12, 60, 0
14, 94560, Note_on_c, 12, 65, 44
14, 94679, Note_on_c, 12, 65, 0
14, 94680, Note_on_c, 12, 67, 44
14, 94779, Note_on_c, 12, 67, 0
14, 94800, Note_on_c, 12, 60, 44
14, 94959, Note_on_c, 12, 60, 0
14, 95040, Note_on_c, 12, 65, 44
14, 95159, Note_on_c, 12, 65, 0
14, 95160, Note_on_c, 12, 67, 44
14, 95259, Note_on_c, 12, 67, 0
14, 95280, Note_on_c, 12, 60, 44
14, 95439, Note_on_c, 12, 60, 0
14, 95520, Note_on_c, 12, 67, 44
14, 95584, Note_on_c, 12, 67, 0
14, 95600, Note_on_c, 12, 67, 44
14, 95664, Note_on_c, 12, 67, 0
14, 95680, Note_on_c, 12, 67, 44
14, 95744, Note_on_c, 12, 67, 0
14, 95760, Note_on_c, 12, 67, 44
14, 95824, Note_on_c, 12, 67, 0
14, 95840, Note_on_c, 12, 67, 44
14, 95904, Note_on_c, 12, 67, 0
14, 95920, Note_on_c, 12, 67, 44
14, 95984, Note_on_c, 12, 67, 0
14, 96000, Note_on_c, 12, 67, 44
14, 96119, Note_on_c, 12, 67, 0
14, 96120, Note_on_c, 12, 69, 44
14, 96219, Note_on_c, 12, 69, 0
14, 96240, Note_on_c, 12, 65, 44
14, 96399, Note_on_c, 12, 65, 0
14, 96480, Note_on_c, 12, 67, 44
14, 96599, Note_on_c, 12, 67, 0
14, 96600, Note_on_c, 12, 69, 44
14, 96699, Note_on_c, 12, 69, 0
14, 96720, Note_on_c, 12, 65, 44
14, 96879, Note_on_c, 12, 65, 0
14, 96960, Note_on_c, 12, 67, 44
14, 97079, Note_on_c, 12, 67, 0
14, 97080, Note_on_c, 12, 69, 44
14, 97179, Note_on_c, 12, 69, 0
14, 97200, Note_on_c, 12, 65, 44
14, 97359, Note_on_c, 12, 65, 0
14, 97440, Note_on_c, 12, 72, 44
14, 97504, Note_on_c, 12, 72, 0
14, 97520, Note_on_c, 12, 72, 44
14, 97584, Note_on_c, 12, 72, 0
14, 97600, Note_on_c, 12, 72, 44
14, 97664, Note_on_c, 12, 72, 0
14, 97680, Note_on_c, 12, 70, 44
14, 97744, Note_on_c, 12, 70, 0
14, 97760, Note_on_c, 12, 70, 44
14, 97824, Note_on_c, 12, 70, 0
14, 97840, Note_on_c, 12, 70, 44
14, 97904, Note_on_c, 12, 70, 0
14, 97920, Note_on_c, 12, 69, 44
14, 97984, Note_on_c, 12, 69, 0
14, 98000, Note_on_c, 12, 69, 44
14, 98064, Note_on_c, 12, 69, 0
14, 98080, Note_on_c, 12, 69, 44
14, 98144, Note_on_c, 12, 69, 0
14, 98160, Note_on_c, 12, 69, 44
14, 98224, Note_on_c, 12, 69, 0
14, 98240, Note_on_c, 12, 69, 44
14, 98304, Note_on_c, 12, 69, 0
14, 98320, Note_on_c, 12, 69, 44
14, 98384, Note_on_c, 12, 69, 0
14, 98400, Note_on_c, 12, 69, 44
14, 98464, Note_on_c, 12, 69, 0
14, 98480, Note_on_c, 12, 69, 44
14, 98544, Note_on_c, 12, 69, 0
14, 98560, Note_on_c, 12, 69, 44
14, 98624, Note_on_c, 12, 69, 0
14, 98640, Note_on_c, 12, 67, 44
14, 98704, Note_on_c, 12, 67, 0
14, 98720, Note_on_c, 12, 67, 44
14, 98784, Note_on_c, 12, 67, 0
14, 98800, Note_on_c, 12, 67, 44
14, 98864, Note_on_c, 12, 67, 0
14, 98880, Note_on_c, 12, 65, 44
14, 98944, Note_on_c, 12, 65, 0
14, 98960, Note_on_c, 12, 77, 44
14, 99024, Note_on_c, 12, 77, 0
14, 99040, Note_on_c, 12, 77, 44
14, 99104, Note_on_c, 12, 77, 0
14, 99120, Note_on_c, 12, 77, 44
14, 99184, Note_on_c, 12, 77, 0
14, 99200, Note_on_c, 12, 77, 44
14, 99264, Note_on_c, 12, 77, 0
14, 99280, Note_on_c, 12, 77, 44
14, 99344, Note_on_c, 12, 77, 0
14, 99360, Note_on_c, 12, 77, 44
14, 99424, Note_on_c, 12, 77, 0
14, 99440, Note_on_c, 12, 77, 44
14, 99504, Note_on_c, 12, 77, 0
14, 99520, Note_on_c, 12, 77, 44
14, 99584, Note_on_c, 12, 77, 0
14, 99600, Note_on_c, 12, 76, 44
14, 99664, Note_on_c, 12, 76, 0
14, 99680, Note_on_c, 12, 76, 44
14, 99744, Note_on_c, 12, 76, 0
14, 99760, Note_on_c, 12, 76, 44
14, 99824, Note_on_c, 12, 76, 0
14, 99840, Note_on_c, 12, 74, 44
14, 99904, Note_on_c, 12, 74, 0
14, 99920, Note_on_c, 12, 74, 44
14, 99984, Note_on_c, 12, 74, 0
14, 100000, Note_on_c, 12, 74, 44
14, 100064, Note_on_c, 12, 74, 0
14, 100080, Note_on_c, 12, 72, 44
14, 100144, Note_on_c, 12, 72, 0
14, 100160, Note_on_c, 12, 72, 44
14, 100224, Note_on_c, 12, 72, 0
14, 100240, Note_on_c, 12, 72, 44
14, 100304, Note_on_c, 12, 72, 0
14, 100320, Note_on_c, 12, 74, 44
14, 100384, Note_on_c, 12, 74, 0
14, 100400, Note_on_c, 12, 74, 44
14, 100464, Note_on_c, 12, 74, 0
14, 100480, Note_on_c, 12, 74, 44
14, 100544, Note_on_c, 12, 74, 0
14, 100560, Note_on_c, 12, 76, 44
14, 100624, Note_on_c, 12, 76, 0
14, 100640, Note_on_c, 12, 76, 44
14, 100704, Note_on_c, 12, 76, 0
14, 100720, Note_on_c, 12, 76, 44
14, 100784, Note_on_c, 12, 76, 0
14, 100800, Note_on_c, 12, 77, 44
14, 100864, Note_on_c, 12, 77, 0
14, 100880, Note_on_c, 12, 65, 44
14, 100944, Note_on_c, 12, 65, 0
14, 100960, Note_on_c, 12, 65, 44
14, 101024, Note_on_c, 12, 65, 0
14, 101040, Note_on_c, 12, 65, 44
14, 101104, Note_on_c, 12, 65, 0
14, 101120, Note_on_c, 12, 65, 44
14, 101184, Note_on_c, 12, 65, 0
14, 101200, Note_on_c, 12, 65, 44
14, 101264, Note_on_c, 12, 65, 0
14, 101280, Note_on_c, 12, 65, 76
14, 101344, Note_on_c, 12, 65, 0
14, 101360, Note_on_c, 12, 65, 76
14, 101424, Note_on_c, 12, 65, 0
14, 101440, Note_on_c, 12, 65, 76
14, 101504, Note_on_c, 12, 65, 0
14, 101520, Note_on_c, 12, 64, 76
14, 101584, Note_on_c, 12, 64, 0
14, 101600, Note_on_c, 12, 64, 76
14, 101664, Note_on_c, 12, 64, 0
14, 101680, Note_on_c, 12, 64, 76
14, 101744, Note_on_c, 12, 64, 0
14, 101760, Note_on_c, 12, 62, 76
14, 101824, Note_on_c, 12, 62, 0
14, 101840, Note_on_c, 12, 62, 76
14, 101904, Note_on_c, 12, 62, 0
14, 101920, Note_on_c, 12, 62, 76
14, 101984, Note_on_c, 12, 62, 0
14, 102000, Note_on_c, 12, 60, 76
14, 102064, Note_on_c, 12, 60, 0
14, 102080, Note_on_c, 12, 60, 76
14, 102144, Note_on_c, 12, 60, 0
14, 102160, Note_on_c, 12, 60, 76
14, 102224, Note_on_c, 12, 60, 0
14, 102240, Note_on_c, 12, 62, 76
14, 102304, Note_on_c, 12, 62, 0
14, 102320, Note_on_c, 12, 62, 76
14, 102384, Note_on_c, 12, 62, 0
14, 102400, Note_on_c, 12, 62, 76
14, 102464, Note_on_c, 12, 62, 0
14, 102480, Note_on_c, 12, 64, 76
14, 102544, Note_on_c, 12, 64, 0
14, 102560, Note_on_c, 12, 64, 76
14, 102624, Note_on_c, 12, 64, 0
14, 102640, Note_on_c, 12, 64, 76
14, 102704, Note_on_c, 12, 64, 0
14, 102720, Note_on_c, 12, 65, 76
14, 102784, Note_on_c, 12, 65, 0
14, 102800, Note_on_c, 12, 77, 52
14, 102864, Note_on_c, 12, 77, 0
14, 102880, Note_on_c, 12, 77, 52
14, 102944, Note_on_c, 12, 77, 0
14, 102960, Note_on_c, 12, 77, 52
14, 103024, Note_on_c, 12, 77, 0
14, 103040, Note_on_c, 12, 77, 52
14, 103104, Note_on_c, 12, 77, 0
14, 103120, Note_on_c, 12, 77, 52
14, 103184, Note_on_c, 12, 77, 0
14, 103200, Note_on_c, 12, 77, 44
14, 103264, Note_on_c, 12, 77, 0
14, 103280, Note_on_c, 12, 77, 44
14, 103344, Note_on_c, 12, 77, 0
14, 103360, Note_on_c, 12, 77, 44
14, 103424, Note_on_c, 12, 77, 0
14, 103440, Note_on_c, 12, 76, 44
14, 103504, Note_on_c, 12, 76, 0
14, 103520, Note_on_c, 12, 76, 44
14, 103584, Note_on_c, 12, 76, 0
14, 103600, Note_on_c, 12, 76, 44
14, 103664, Note_on_c, 12, 76, 0
14, 103680, Note_on_c, 12, 74, 44
14, 103744, Note_on_c, 12, 74, 0
14, 103760, Note_on_c, 12, 74, 44
14, 103824, Note_on_c, 12, 74, 0
14, 103840, Note_on_c, 12, 74, 44
14, 103904, Note_on_c, 12, 74, 0
14, 103920, Note_on_c, 12, 72, 44
14, 103984, Note_on_c, 12, 72, 0
14, 104000, Note_on_c, 12, 72, 44
14, 104064, Note_on_c, 12, 72, 0
14, 104080, Note_on_c, 12, 72, 44
14, 104144, Note_on_c, 12, 72, 0
14, 104160, Note_on_c, 12, 74, 44
14, 104224, Note_on_c, 12, 74, 0
14, 104240, Note_on_c, 12, 74, 44
14, 104304, Note_on_c, 12, 74, 0
14, 104320, Note_on_c, 12, 74, 44
14, 104384, Note_on_c, 12, 74, 0
14, 104400, Note_on_c, 12, 76, 44
14, 104464, Note_on_c, 12, 76, 0
14, 104480, Note_on_c, 12, 76, 44
14, 104544, Note_on_c, 12, 76, 0
14, 104560, Note_on_c, 12, 76, 44
14, 104624, Note_on_c, 12, 76, 0
14, 104640, Note_on_c, 12, 77, 44
14, 104704, Note_on_c, 12, 77, 0
14, 104720, Note_on_c, 12, 65, 44
14, 104784, Note_on_c, 12, 65, 0
14, 104800, Note_on_c, 12, 65, 44
14, 104864, Note_on_c, 12, 65, 0
14, 104880, Note_on_c, 12, 65, 44
14, 104944, Note_on_c, 12, 65, 0
14, 104960, Note_on_c, 12, 65, 44
14, 105024, Note_on_c, 12, 65, 0
14, 105040, Note_on_c, 12, 65, 44
14, 105104, Note_on_c, 12, 65, 0
14, 105120, Note_on_c, 12, 65, 44
14, 105184, Note_on_c, 12, 65, 0
14, 105200, Note_on_c, 12, 65, 44
14, 105264, Note_on_c, 12, 65, 0
14, 105280, Note_on_c, 12, 65, 44
14, 105344, Note_on_c, 12, 65, 0
14, 105360, Note_on_c, 12, 64, 44
14, 105424, Note_on_c, 12, 64, 0
14, 105440, Note_on_c, 12, 64, 44
14, 105504, Note_on_c, 12, 64, 0
14, 105520, Note_on_c, 12, 64, 44
14, 105584, Note_on_c, 12, 64, 0
14, 105600, Note_on_c, 12, 62, 44
14, 105664, Note_on_c, 12, 62, 0
14, 105680, Note_on_c, 12, 74, 44
14, 105744, Note_on_c, 12, 74, 0
14, 105760, Note_on_c, 12, 74, 44
14, 105824, Note_on_c, 12, 74, 0
14, 105840, Note_on_c, 12, 74, 44
14, 105904, Note_on_c, 12, 74, 0
14, 105920, Note_on_c, 12, 74, 44
14, 105984, Note_on_c, 12, 74, 0
14, 106000, Note_on_c, 12, 74, 44
14, 106064, Note_on_c, 12, 74, 0
14, 106080, Note_on_c, 12, 74, 44
14, 106144, Note_on_c, 12, 74, 0
14, 106160, Note_on_c, 12, 74, 44
14, 106224, Note_on_c, 12, 74, 0
14, 106240, Note_on_c, 12, 74, 44
14, 106304, Note_on_c, 12, 74, 0
14, 106320, Note_on_c, 12, 72, 44
14, 106384, Note_on_c, 12, 72, 0
14, 106400, Note_on_c, 12, 72, 44
14, 106464, Note_on_c, 12, 72, 0
14, 106480, Note_on_c, 12, 72, 44
14, 106544, Note_on_c, 12, 72, 0
14, 106560, Note_on_c, 12, 72, 44
14, 106624, Note_on_c, 12, 72, 0
14, 106640, Note_on_c, 12, 72, 44
14, 106704, Note_on_c, 12, 72, 0
14, 106720, Note_on_c, 12, 72, 44
14, 106784, Note_on_c, 12, 72, 0
14, 106800, Note_on_c, 12, 70, 44
14, 106864, Note_on_c, 12, 70, 0
14, 106880, Note_on_c, 12, 70, 44
14, 106944, Note_on_c, 12, 70, 0
14, 106960, Note_on_c, 12, 70, 44
14, 107024, Note_on_c, 12, 70, 0
14, 107040, Note_on_c, 12, 70, 44
14, 107104, Note_on_c, 12, 70, 0
14, 107120, Note_on_c, 12, 70, 44
14, 107184, Note_on_c, 12, 70, 0
14, 107200, Note_on_c, 12, 70, 44
14, 107264, Note_on_c, 12, 70, 0
14, 107280, Note_on_c, 12, 71, 44
14, 107344, Note_on_c, 12, 71, 0
14, 107360, Note_on_c, 12, 71, 44
14, 107424, Note_on_c, 12, 71, 0
14, 107440, Note_on_c, 12, 71, 44
14, 107504, Note_on_c, 12, 71, 0
14, 107520, Note_on_c, 12, 69, 44
14, 107584, Note_on_c, 12, 69, 0
14, 107600, Note_on_c, 12, 69, 44
14, 107664, Note_on_c, 12, 69, 0
14, 107680, Note_on_c, 12, 69, 44
14, 107744, Note_on_c, 12, 69, 0
14, 107760, Note_on_c, 12, 69, 44
14, 107824, Note_on_c, 12, 69, 0
14, 107840, Note_on_c, 12, 69, 44
14, 107904, Note_on_c, 12, 69, 0
14, 107920, Note_on_c, 12, 69, 44
14, 107984, Note_on_c, 12, 69, 0
14, 108000, Note_on_c, 12, 69, 44
14, 108064, Note_on_c, 12, 69, 0
14, 108080, Note_on_c, 12, 69, 44
14, 108144, Note_on_c, 12, 69, 0
14, 108160, Note_on_c, 12, 69, 44
14, 108224, Note_on_c, 12, 69, 0
14, 108240, Note_on_c, 12, 69, 44
14, 108304, Note_on_c, 12, 69, 0
14, 108320, Note_on_c, 12, 69, 44
14, 108384, Note_on_c, 12, 69, 0
14, 108400, Note_on_c, 12, 69, 44
14, 108464, Note_on_c, 12, 69, 0
14, 108480, Note_on_c, 12, 69, 44
14, 108544, Note_on_c, 12, 69, 0
14, 108560, Note_on_c, 12, 69, 44
14, 108624, Note_on_c, 12, 69, 0
14, 108640, Note_on_c, 12, 69, 44
14, 108704, Note_on_c, 12, 69, 0
14, 108720, Note_on_c, 12, 69, 44
14, 108784, Note_on_c, 12, 69, 0
14, 108800, Note_on_c, 12, 69, 44
14, 108864, Note_on_c, 12, 69, 0
14, 108880, Note_on_c, 12, 69, 44
14, 108944, Note_on_c, 12, 69, 0
14, 108960, Note_on_c, 12, 69, 44
14, 109024, Note_on_c, 12, 69, 0
14, 109040, Note_on_c, 12, 69, 44
14, 109104, Note_on_c, 12, 69, 0
14, 109120, Note_on_c, 12, 69, 44
14, 109184, Note_on_c, 12, 69, 0
14, 109200, Note_on_c, 12, 69, 44
14, 109264, Note_on_c, 12, 69, 0
14, 109280, Note_on_c, 12, 69, 44
14, 109344, Note_on_c, 12, 69, 0
14, 109360, Note_on_c, 12, 69, 44
14, 109424, Note_on_c, 12, 69, 0
14, 109440, Note_on_c, 12, 69, 44
14, 109504, Note_on_c, 12, 69, 0
14, 109520, Note_on_c, 12, 69, 44
14, 109584, Note_on_c, 12, 69, 0
14, 109600, Note_on_c, 12, 69, 44
14, 109664, Note_on_c, 12, 69, 0
14, 109680, Note_on_c, 12, 69, 44
14, 109744, Note_on_c, 12, 69, 0
14, 109760, Note_on_c, 12, 69, 44
14, 109824, Note_on_c, 12, 69, 0
14, 109840, Note_on_c, 12, 69, 44
14, 109904, Note_on_c, 12, 69, 0
14, 109920, Note_on_c, 12, 69, 44
14, 109984, Note_on_c, 12, 69, 0
14, 110000, Note_on_c, 12, 69, 44
14, 110064, Note_on_c, 12, 69, 0
14, 110080, Note_on_c, 12, 69, 44
14, 110144, Note_on_c, 12, 69, 0
14, 110160, Note_on_c, 12, 69, 44
14, 110224, Note_on_c, 12, 69, 0
14, 110240, Note_on_c, 12, 69, 44
14, 110304, Note_on_c, 12, 69, 0
14, 110320, Note_on_c, 12, 69, 44
14, 110384, Note_on_c, 12, 69, 0
14, 110400, Note_on_c, 12, 69, 44
14, 110464, Note_on_c, 12, 69, 0
14, 110480, Note_on_c, 12, 69, 44
14, 110544, Note_on_c, 12, 69, 0
14, 110560, Note_on_c, 12, 69, 44
14, 110624, Note_on_c, 12, 69, 0
14, 110640, Note_on_c, 12, 69, 44
14, 110704, Note_on_c, 12, 69, 0
14, 110720, Note_on_c, 12, 69, 44
14, 110784, Note_on_c, 12, 69, 0
14, 110800, Note_on_c, 12, 69, 44
14, 110864, Note_on_c, 12, 69, 0
14, 110880, Note_on_c, 12, 69, 44
14, 110944, Note_on_c, 12, 69, 0
14, 110960, Note_on_c, 12, 69, 44
14, 111024, Note_on_c, 12, 69, 0
14, 111040, Note_on_c, 12, 69, 44
14, 111104, Note_on_c, 12, 69, 0
14, 111120, Note_on_c, 12, 69, 44
14, 111184, Note_on_c, 12, 69, 0
14, 111200, Note_on_c, 12, 69, 44
14, 111264, Note_on_c, 12, 69, 0
14, 111280, Note_on_c, 12, 69, 44
14, 111344, Note_on_c, 12, 69, 0
14, 111360, Note_on_c, 12, 69, 44
14, 111424, Note_on_c, 12, 69, 0
14, 111440, Note_on_c, 12, 69, 44
14, 111504, Note_on_c, 12, 69, 0
14, 111520, Note_on_c, 12, 69, 44
14, 111584, Note_on_c, 12, 69, 0
14, 111600, Note_on_c, 12, 69, 44
14, 111664, Note_on_c, 12, 69, 0
14, 111680, Note_on_c, 12, 69, 44
14, 111744, Note_on_c, 12, 69, 0
14, 111760, Note_on_c, 12, 69, 44
14, 111824, Note_on_c, 12, 69, 0
14, 111840, Note_on_c, 12, 69, 44
14, 111904, Note_on_c, 12, 69, 0
14, 111920, Note_on_c, 12, 69, 44
14, 111984, Note_on_c, 12, 69, 0
14, 112000, Note_on_c, 12, 69, 44
14, 112064, Note_on_c, 12, 69, 0
14, 112080, Note_on_c, 12, 69, 44
14, 112144, Note_on_c, 12, 69, 0
14, 112160, Note_on_c, 12, 69, 44
14, 112224, Note_on_c, 12, 69, 0
14, 112240, Note_on_c, 12, 69, 44
14, 112304, Note_on_c, 12, 69, 0
14, 112320, Note_on_c, 12, 69, 44
14, 112384, Note_on_c, 12, 69, 0
14, 112400, Note_on_c, 12, 69, 44
14, 112464, Note_on_c, 12, 69, 0
14, 112480, Note_on_c, 12, 69, 44
14, 112544, Note_on_c, 12, 69, 0
14, 112560, Note_on_c, 12, 69, 44
14, 112624, Note_on_c, 12, 69, 0
14, 112640, Note_on_c, 12, 69, 44
14, 112704, Note_on_c, 12, 69, 0
14, 112720, Note_on_c, 12, 69, 44
14, 112784, Note_on_c, 12, 69, 0
14, 112800, Note_on_c, 12, 69, 44
14, 112864, Note_on_c, 12, 69, 0
14, 112880, Note_on_c, 12, 69, 44
14, 112944, Note_on_c, 12, 69, 0
14, 112960, Note_on_c, 12, 69, 44
14, 113024, Note_on_c, 12, 69, 0
14, 113040, Note_on_c, 12, 69, 44
14, 113104, Note_on_c, 12, 69, 0
14, 113120, Note_on_c, 12, 69, 44
14, 113184, Note_on_c, 12, 69, 0
14, 113200, Note_on_c, 12, 69, 44
14, 113264, Note_on_c, 12, 69, 0
14, 113280, Note_on_c, 12, 69, 44
14, 113344, Note_on_c, 12, 69, 0
14, 113360, Note_on_c, 12, 69, 44
14, 113424, Note_on_c, 12, 69, 0
14, 113440, Note_on_c, 12, 69, 44
14, 113504, Note_on_c, 12, 69, 0
14, 113520, Note_on_c, 12, 69, 44
14, 113584, Note_on_c, 12, 69, 0
14, 113600, Note_on_c, 12, 69, 44
14, 113664, Note_on_c, 12, 69, 0
14, 113680, Note_on_c, 12, 69, 44
14, 113744, Note_on_c, 12, 69, 0
14, 113760, Note_on_c, 12, 69, 44
14, 113824, Note_on_c, 12, 69, 0
14, 113840, Note_on_c, 12, 69, 44
14, 113904, Note_on_c, 12, 69, 0
14, 113920, Note_on_c, 12, 69, 44
14, 113984, Note_on_c, 12, 69, 0
14, 114000, Note_on_c, 12, 69, 44
14, 114064, Note_on_c, 12, 69, 0
14, 114080, Note_on_c, 12, 69, 44
14, 114144, Note_on_c, 12, 69, 0
14, 114160, Note_on_c, 12, 69, 44
14, 114224, Note_on_c, 12, 69, 0
14, 114240, Note_on_c, 12, 69, 44
14, 114304, Note_on_c, 12, 69, 0
14, 114320, Note_on_c, 12, 69, 44
14, 114384, Note_on_c, 12, 69, 0
14, 114400, Note_on_c, 12, 69, 44
14, 114464, Note_on_c, 12, 69, 0
14, 114480, Note_on_c, 12, 69, 44
14, 114544, Note_on_c, 12, 69, 0
14, 114560, Note_on_c, 12, 69, 44
14, 114624, Note_on_c, 12, 69, 0
14, 114640, Note_on_c, 12, 69, 44
14, 114704, Note_on_c, 12, 69, 0
14, 114720, Note_on_c, 12, 69, 44
14, 114784, Note_on_c, 12, 69, 0
14, 114800, Note_on_c, 12, 69, 49
14, 114864, Note_on_c, 12, 69, 0
14, 114880, Note_on_c, 12, 69, 54
14, 114944, Note_on_c, 12, 69, 0
14, 114960, Note_on_c, 12, 69, 60
14, 115024, Note_on_c, 12, 69, 0
14, 115040, Note_on_c, 12, 69, 65
14, 115104, Note_on_c, 12, 69, 0
14, 115120, Note_on_c, 12, 69, 70
14, 115184, Note_on_c, 12, 69, 0
14, 115200, Note_on_c, 12, 69, 76
14, 115264, Note_on_c, 12, 69, 0
14, 115280, Note_on_c, 12, 69, 76
14, 115344, Note_on_c, 12, 69, 0
14, 115360, Note_on_c, 12, 69, 76
14, 115424, Note_on_c, 12, 69, 0
14, 115440, Note_on_c, 12, 69, 76
14, 115504, Note_on_c, 12, 69, 0
14, 115520, Note_on_c, 12, 69, 76
14, 115584, Note_on_c, 12, 69, 0
14, 115600, Note_on_c, 12, 69, 76
14, 115664, Note_on_c, 12, 69, 0
14, 115680, Note_on_c, 12, 62, 76
14, 115919, Note_on_c, 12, 62, 0
14, 116040, Note_on_c, 12, 64, 76
14, 116139, Note_on_c, 12, 64, 0
14, 116160, Note_on_c, 12, 64, 76
14, 116399, Note_on_c, 12, 64, 0
14, 116400, Note_on_c, 12, 65, 76
14, 116619, Note_on_c, 12, 65, 0
14, 116640, Note_on_c, 12, 65, 76
14, 116799, Note_on_c, 12, 65, 0
14, 117000, Note_on_c, 12, 66, 76
14, 117099, Note_on_c, 12, 66, 0
14, 117120, Note_on_c, 12, 66, 76
14, 117359, Note_on_c, 12, 66, 0
14, 117360, Note_on_c, 12, 67, 76
14, 117579, Note_on_c, 12, 67, 0
14, 117600, Note_on_c, 12, 67, 76
14, 117759, Note_on_c, 12, 67, 0
14, 117960, Note_on_c, 12, 69, 76
14, 118059, Note_on_c, 12, 69, 0
14, 118080, Note_on_c, 12, 69, 76
14, 118319, Note_on_c, 12, 69, 0
14, 118320, Note_on_c, 12, 70, 76
14, 118539, Note_on_c, 12, 70, 0
14, 118560, Note_on_c, 12, 70, 76
14, 118719, Note_on_c, 12, 70, 0
14, 118920, Note_on_c, 12, 71, 76
14, 119019, Note_on_c, 12, 71, 0
14, 119040, Note_on_c, 12, 60, 76
14, 119999, Note_on_c, 12, 60, 0
14, 120000, Note_on_c, 12, 60, 76
14, 120939, Note_on_c, 12, 60, 0
14, 120960, Note_on_c, 12, 65, 76
14, 121919, Note_on_c, 12, 65, 0
14, 121920, Note_on_c, 12, 65, 76
14, 123119, Note_on_c, 12, 65, 0
14, 123120, Note_on_c, 12, 70, 76
14, 123339, Note_on_c, 12, 70, 0
14, 123360, Note_on_c, 12, 70, 76
14, 123519, Note_on_c, 12, 70, 0
14, 123720, Note_on_c, 12, 72, 76
14, 123819, Note_on_c, 12, 72, 0
14, 123840, Note_on_c, 12, 72, 76
14, 124079, Note_on_c, 12, 72, 0
14, 124080, Note_on_c, 12, 74, 76
14, 124299, Note_on_c, 12, 74, 0
14, 124320, Note_on_c, 12, 74, 76
14, 124479, Note_on_c, 12, 74, 0
14, 124680, Note_on_c, 12, 74, 76
14, 124779, Note_on_c, 12, 74, 0
14, 124800, Note_on_c, 12, 74, 76
14, 125039, Note_on_c, 12, 74, 0
14, 125040, Note_on_c, 12, 76, 76
14, 125259, Note_on_c, 12, 76, 0
14, 125280, Note_on_c, 12, 76, 76
14, 125439, Note_on_c, 12, 76, 0
14, 125640, Note_on_c, 12, 77, 76
14, 125739, Note_on_c, 12, 77, 0
14, 125760, Note_on_c, 12, 77, 76
14, 125999, Note_on_c, 12, 77, 0
14, 126000, Note_on_c, 12, 79, 76
14, 126219, Note_on_c, 12, 79, 0
14, 126240, Note_on_c, 12, 79, 76
14, 126399, Note_on_c, 12, 79, 0
14, 126600, Note_on_c, 12, 80, 76
14, 126699, Note_on_c, 12, 80, 0
14, 126720, Note_on_c, 12, 81, 76
14, 126959, Note_on_c, 12, 81, 0
14, 130080, Note_on_c, 12, 74, 76
14, 130319, Note_on_c, 12, 74, 0
14, 130440, Note_on_c, 12, 72, 76
14, 130539, Note_on_c, 12, 72, 0
14, 130560, Note_on_c, 12, 70, 76
14, 130799, Note_on_c, 12, 70, 0
14, 130800, Note_on_c, 12, 71, 76
14, 131019, Note_on_c, 12, 71, 0
14, 131040, Note_on_c, 12, 71, 76
14, 131199, Note_on_c, 12, 71, 0
14, 131400, Note_on_c, 12, 72, 76
14, 131499, Note_on_c, 12, 72, 0
14, 131520, Note_on_c, 12, 72, 76
14, 131759, Note_on_c, 12, 72, 0
14, 131760, Note_on_c, 12, 74, 76
14, 131979, Note_on_c, 12, 74, 0
14, 132000, Note_on_c, 12, 74, 76
14, 132159, Note_on_c, 12, 74, 0
14, 132360, Note_on_c, 12, 76, 76
14, 132459, Note_on_c, 12, 76, 0
14, 132480, Note_on_c, 12, 65, 84
14, 132599, Note_on_c, 12, 65, 0
14, 132600, Note_on_c, 12, 65, 76
14, 133419, Note_on_c, 12, 65, 0
14, 133440, Note_on_c, 12, 71, 84
14, 133559, Note_on_c, 12, 71, 0
14, 133560, Note_on_c, 12, 71, 76
14, 134639, Note_on_c, 12, 71, 0
14, 134640, Note_on_c, 12, 78, 76
14, 134859, Note_on_c, 12, 78, 0
14, 134880, Note_on_c, 12, 78, 76
14, 135039, Note_on_c, 12, 78, 0
14, 135240, Note_on_c, 12, 80, 76
14, 135339, Note_on_c, 12, 80, 0
14, 135360, Note_on_c, 12, 81, 76
14, 135599, Note_on_c, 12, 81, 0
14, 135600, Note_on_c, 12, 83, 76
14, 135819, Note_on_c, 12, 83, 0
14, 135840, Note_on_c, 12, 83, 76
14, 135999, Note_on_c, 12, 83, 0
14, 136200, Note_on_c, 12, 84, 76
14, 136299, Note_on_c, 12, 84, 0
14, 136320, Note_on_c, 12, 71, 76
14, 136559, Note_on_c, 12, 71, 0
14, 136560, Note_on_c, 12, 72, 76
14, 136779, Note_on_c, 12, 72, 0
14, 136800, Note_on_c, 12, 72, 76
14, 136959, Note_on_c, 12, 72, 0
14, 137160, Note_on_c, 12, 74, 76
14, 137259, Note_on_c, 12, 74, 0
14, 137280, Note_on_c, 12, 76, 76
14, 137519, Note_on_c, 12, 76, 0
14, 137520, Note_on_c, 12, 77, 76
14, 137739, Note_on_c, 12, 77, 0
14, 137760, Note_on_c, 12, 77, 76
14, 137919, Note_on_c, 12, 77, 0
14, 138120, Note_on_c, 12, 79, 76
14, 138219, Note_on_c, 12, 79, 0
14, 138240, Note_on_c, 12, 72, 76
14, 138479, Note_on_c, 12, 72, 0
14, 138480, Note_on_c, 12, 70, 76
14, 138699, Note_on_c, 12, 70, 0
14, 138720, Note_on_c, 12, 64, 76
14, 138959, Note_on_c, 12, 64, 0
14, 138960, Note_on_c, 12, 65, 76
14, 139179, Note_on_c, 12, 65, 0
14, 139200, Note_on_c, 12, 62, 76
14, 139659, Note_on_c, 12, 62, 0
14, 139680, Note_on_c, 12, 67, 76
14, 140139, Note_on_c, 12, 67, 0
14, 140160, Note_on_c, 12, 76, 76
14, 140399, Note_on_c, 12, 76, 0
14, 140400, Note_on_c, 12, 77, 76
14, 140619, Note_on_c, 12, 77, 0
14, 140640, Note_on_c, 12, 67, 76
14, 140879, Note_on_c, 12, 67, 0
14, 140880, Note_on_c, 12, 65, 76
14, 141099, Note_on_c, 12, 65, 0
14, 141120, Note_on_c, 12, 68, 76
14, 141359, Note_on_c, 12, 68, 0
14, 141360, Note_on_c, 12, 69, 76
14, 141579, Note_on_c, 12, 69, 0
14, 141600, Note_on_c, 12, 59, 76
14, 141839, Note_on_c, 12, 59, 0
14, 141840, Note_on_c, 12, 60, 76
14, 142059, Note_on_c, 12, 60, 0
14, 142080, Note_on_c, 12, 63, 76
14, 142319, Note_on_c, 12, 63, 0
14, 142320, Note_on_c, 12, 64, 76
14, 142539, Note_on_c, 12, 64, 0
14, 142560, Note_on_c, 12, 63, 76
14, 142799, Note_on_c, 12, 63, 0
14, 142800, Note_on_c, 12, 64, 76
14, 143019, Note_on_c, 12, 64, 0
14, 143040, Note_on_c, 12, 63, 76
14, 143279, Note_on_c, 12, 63, 0
14, 143280, Note_on_c, 12, 64, 76
14, 143499, Note_on_c, 12, 64, 0
14, 143520, Note_on_c, 12, 63, 76
14, 143759, Note_on_c, 12, 63, 0
14, 143760, Note_on_c, 12, 64, 76
14, 143979, Note_on_c, 12, 64, 0
14, 144000, Note_on_c, 12, 63, 76
14, 144239, Note_on_c, 12, 63, 0
14, 144240, Note_on_c, 12, 64, 76
14, 144459, Note_on_c, 12, 64, 0
14, 144480, Note_on_c, 12, 63, 76
14, 144719, Note_on_c, 12, 63, 0
14, 144720, Note_on_c, 12, 64, 76
14, 144939, Note_on_c, 12, 64, 0
14, 144960, Note_on_c, 12, 63, 76
14, 145199, Note_on_c, 12, 63, 0
14, 145200, Note_on_c, 12, 64, 76
14, 145419, Note_on_c, 12, 64, 0
14, 145440, Note_on_c, 12, 81, 84
14, 145504, Note_on_c, 12, 81, 0
14, 145520, Note_on_c, 12, 81, 84
14, 145584, Note_on_c, 12, 81, 0
14, 145600, Note_on_c, 12, 81, 84
14, 145664, Note_on_c, 12, 81, 0
14, 145680, Note_on_c, 12, 81, 84
14, 145744, Note_on_c, 12, 81, 0
14, 145760, Note_on_c, 12, 81, 84
14, 145824, Note_on_c, 12, 81, 0
14, 145840, Note_on_c, 12, 81, 84
14, 145904, Note_on_c, 12, 81, 0
14, 145920, Note_on_c, 12, 81, 84
14, 146039, Note_on_c, 12, 81, 0
14, 146040, Note_on_c, 12, 83, 84
14, 146139, Note_on_c, 12, 83, 0
14, 146160, Note_on_c, 12, 76, 84
14, 146319, Note_on_c, 12, 76, 0
14, 146400, Note_on_c, 12, 81, 84
14, 146519, Note_on_c, 12, 81, 0
14, 146520, Note_on_c, 12, 83, 84
14, 146619, Note_on_c, 12, 83, 0
14, 146640, Note_on_c, 12, 76, 84
14, 146799, Note_on_c, 12, 76, 0
14, 146880, Note_on_c, 12, 81, 84
14, 146999, Note_on_c, 12, 81, 0
14, 147000, Note_on_c, 12, 83, 84
14, 147099, Note_on_c, 12, 83, 0
14, 147120, Note_on_c, 12, 76, 84
14, 147279, Note_on_c, 12, 76, 0
14, 147360, Note_on_c, 12, 83, 84
14, 147424, Note_on_c, 12, 83, 0
14, 147440, Note_on_c, 12, 83, 84
14, 147504, Note_on_c, 12, 83, 0
14, 147520, Note_on_c, 12, 83, 84
14, 147584, Note_on_c, 12, 83, 0
14, 147600, Note_on_c, 12, 83, 84
14, 147664, Note_on_c, 12, 83, 0
14, 147680, Note_on_c, 12, 83, 84
14, 147744, Note_on_c, 12, 83, 0
14, 147760, Note_on_c, 12, 83, 84
14, 147824, Note_on_c, 12, 83, 0
14, 147840, Note_on_c, 12, 83, 84
14, 147959, Note_on_c, 12, 83, 0
14, 147960, Note_on_c, 12, 85, 84
14, 148059, Note_on_c, 12, 85, 0
14, 148080, Note_on_c, 12, 81, 84
14, 148239, Note_on_c, 12, 81, 0
14, 148320, Note_on_c, 12, 83, 84
14, 148439, Note_on_c, 12, 83, 0
14, 148440, Note_on_c, 12, 85, 84
14, 148539, Note_on_c, 12, 85, 0
14, 148560, Note_on_c, 12, 81, 84
14, 148719, Note_on_c, 12, 81, 0
14, 148800, Note_on_c, 12, 83, 84
14, 148919, Note_on_c, 12, 83, 0
14, 148920, Note_on_c, 12, 85, 84
14, 149019, Note_on_c, 12, 85, 0
14, 149040, Note_on_c, 12, 81, 84
14, 149199, Note_on_c, 12, 81, 0
14, 155040, Note_on_c, 12, 65, 44
14, 155104, Note_on_c, 12, 65, 0
14, 155120, Note_on_c, 12, 65, 44
14, 155184, Note_on_c, 12, 65, 0
14, 155200, Note_on_c, 12, 65, 44
14, 155264, Note_on_c, 12, 65, 0
14, 155280, Note_on_c, 12, 65, 44
14, 155344, Note_on_c, 12, 65, 0
14, 155360, Note_on_c, 12, 65, 44
14, 155424, Note_on_c, 12, 65, 0
14, 155440, Note_on_c, 12, 65, 44
14, 155504, Note_on_c, 12, 65, 0
14, 155520, Note_on_c, 12, 65, 44
14, 155639, Note_on_c, 12, 65, 0
14, 155640, Note_on_c, 12, 67, 44
14, 155739, Note_on_c, 12, 67, 0
14, 155760, Note_on_c, 12, 60, 44
14, 155919, Note_on_c, 12, 60, 0
14, 156000, Note_on_c, 12, 65, 44
14, 156119, Note_on_c, 12, 65, 0
14, 156120, Note_on_c, 12, 67, 44
14, 156219, Note_on_c, 12, 67, 0
14, 156240, Note_on_c, 12, 60, 44
14, 156399, Note_on_c, 12, 60, 0
14, 156480, Note_on_c, 12, 65, 44
14, 156599, Note_on_c, 12, 65, 0
14, 156600, Note_on_c, 12, 67, 44
14, 156699, Note_on_c, 12, 67, 0
14, 156720, Note_on_c, 12, 60, 44
14, 156879, Note_on_c, 12, 60, 0
14, 156960, Note_on_c, 12, 67, 44
14, 157024, Note_on_c, 12, 67, 0
14, 157040, Note_on_c, 12, 67, 44
14, 157104, Note_on_c, 12, 67, 0
14, 157120, Note_on_c, 12, 67, 44
14, 157184, Note_on_c, 12, 67, 0
14, 157200, Note_on_c, 12, 67, 44
14, 157264, Note_on_c, 12, 67, 0
14, 157280, Note_on_c, 12, 67, 44
14, 157344, Note_on_c, 12, 67, 0
14, 157360, Note_on_c, 12, 67, 44
14, 157424, Note_on_c, 12, 67, 0
14, 157440, Note_on_c, 12, 67, 44
14, 157559, Note_on_c, 12, 67, 0
14, 157560, Note_on_c, 12, 69, 44
14, 157659, Note_on_c, 12, 69, 0
14, 157680, Note_on_c, 12, 65, 44
14, 157839, Note_on_c, 12, 65, 0
14, 157920, Note_on_c, 12, 67, 44
14, 158039, Note_on_c, 12, 67, 0
14, 158040, Note_on_c, 12, 69, 44
14, 158139, Note_on_c, 12, 69, 0
14, 158160, Note_on_c, 12, 65, 44
14, 158319, Note_on_c, 12, 65, 0
14, 158400, Note_on_c, 12, 67, 44
14, 158519, Note_on_c, 12, 67, 0
14, 158520, Note_on_c, 12, 69, 44
14, 158619, Note_on_c, 12, 69, 0
14, 158640, Note_on_c, 12, 65, 44
14, 158799, Note_on_c, 12, 65, 0
14, 158880, Note_on_c, 12, 60, 44
14, 159359, Note_on_c, 12, 60, 0
14, 159360, Note_on_c, 12, 62, 44
14, 159839, Note_on_c, 12, 62, 0
14, 159840, Note_on_c, 12, 60, 44
14, 160319, Note_on_c, 12, 60, 0
14, 160320, Note_on_c, 12, 58, 44
14, 161039, Note_on_c, 12, 58, 0
14, 161040, Note_on_c, 12, 60, 44
14, 161279, Note_on_c, 12, 60, 0
14, 161280, Note_on_c, 12, 62, 44
14, 161999, Note_on_c, 12, 62, 0
14, 162000, Note_on_c, 12, 64, 44
14, 162239, Note_on_c, 12, 64, 0
14, 162240, Note_on_c, 12, 65, 44
14, 162479, Note_on_c, 12, 65, 0
14, 162480, Note_on_c, 12, 67, 44
14, 162719, Note_on_c, 12, 67, 0
14, 162720, Note_on_c, 12, 65, 44
14, 163199, Note_on_c, 12, 65, 0
14, 163200, Note_on_c, 12, 64, 44
14, 163679, Note_on_c, 12, 64, 0
14, 163680, Note_on_c, 12, 62, 44
14, 164159, Note_on_c, 12, 62, 0
14, 164160, Note_on_c, 12, 60, 44
14, 164619, Note_on_c, 12, 60, 0
14, 164640, Note_on_c, 12, 67, 44
14, 164704, Note_on_c, 12, 67, 0
14, 164720, Note_on_c, 12, 67, 44
14, 164784, Note_on_c, 12, 67, 0
14, 164800, Note_on_c, 12, 67, 44
14, 164864, Note_on_c, 12, 67, 0
14, 164880, Note_on_c, 12, 67, 44
14, 164944, Note_on_c, 12, 67, 0
14, 164960, Note_on_c, 12, 67, 44
14, 165024, Note_on_c, 12, 67, 0
14, 165040, Note_on_c, 12, 67, 44
14, 165104, Note_on_c, 12, 67, 0
14, 165120, Note_on_c, 12, 67, 44
14, 165239, Note_on_c, 12, 67, 0
14, 165240, Note_on_c, 12, 72, 44
14, 165339, Note_on_c, 12, 72, 0
14, 165360, Note_on_c, 12, 64, 44
14, 165519, Note_on_c, 12, 64, 0
14, 165600, Note_on_c, 12, 59, 44
14, 166079, Note_on_c, 12, 59, 0
14, 166080, Note_on_c, 12, 60, 44
14, 166539, Note_on_c, 12, 60, 0
14, 166560, Note_on_c, 12, 67, 44
14, 166624, Note_on_c, 12, 67, 0
14, 166640, Note_on_c, 12, 67, 44
14, 166704, Note_on_c, 12, 67, 0
14, 166720, Note_on_c, 12, 67, 44
14, 166784, Note_on_c, 12, 67, 0
14, 166800, Note_on_c, 12, 67, 44
14, 166864, Note_on_c, 12, 67, 0
14, 166880, Note_on_c, 12, 67, 43
14, 166944, Note_on_c, 12, 67, 0
14, 166960, Note_on_c, 12, 67, 43
14, 167024, Note_on_c, 12, 67, 0
14, 167040, Note_on_c, 12, 67, 43
14, 167159, Note_on_c, 12, 67, 0
14, 167160, Note_on_c, 12, 72, 42
14, 167259, Note_on_c, 12, 72, 0
14, 167280, Note_on_c, 12, 64, 42
14, 167439, Note_on_c, 12, 64, 0
14, 167520, Note_on_c, 12, 71, 41
14, 167639, Note_on_c, 12, 71, 0
14, 167640, Note_on_c, 12, 72, 41
14, 167739, Note_on_c, 12, 72, 0
14, 167760, Note_on_c, 12, 67, 40
14, 167919, Note_on_c, 12, 67, 0
14, 168000, Note_on_c, 12, 65, 40
14, 168119, Note_on_c, 12, 65, 0
14, 168120, Note_on_c, 12, 67, 39
14, 168219, Note_on_c, 12, 67, 0
14, 168240, Note_on_c, 12, 64, 39
14, 168399, Note_on_c, 12, 64, 0
14, 168480, Note_on_c, 12, 62, 38
14, 168599, Note_on_c, 12, 62, 0
14, 168600, Note_on_c, 12, 64, 38
14, 168699, Note_on_c, 12, 64, 0
14, 168720, Note_on_c, 12, 60, 37
14, 168879, Note_on_c, 12, 60, 0
14, 168960, Note_on_c, 12, 62, 36
14, 169079, Note_on_c, 12, 62, 0
14, 169080, Note_on_c, 12, 64, 36
14, 169179, Note_on_c, 12, 64, 0
14, 169200, Note_on_c, 12, 60, 36
14, 169359, Note_on_c, 12, 60, 0
14, 169920, Note_on_c, 12, 62, 36
14, 170039, Note_on_c, 12, 62, 0
14, 170040, Note_on_c, 12, 64, 36
14, 170139, Note_on_c, 12, 64, 0
14, 170160, Note_on_c, 12, 60, 36
14, 170319, Note_on_c, 12, 60, 0
14, 170880, Note_on_c, 12, 62, 36
14, 170999, Note_on_c, 12, 62, 0
14, 171000, Note_on_c, 12, 64, 36
14, 171099, Note_on_c, 12, 64, 0
14, 171120, Note_on_c, 12, 60, 36
14, 171279, Note_on_c, 12, 60, 0
14, 171360, Note_on_c, 12, 61, 84
14, 172299, Note_on_c, 12, 61, 0
14, 172320, Note_on_c, 12, 77, 84
14, 172384, Note_on_c, 12, 77, 0
14, 172400, Note_on_c, 12, 77, 84
14, 172464, Note_on_c, 12, 77, 0
14, 172480, Note_on_c, 12, 77, 84
14, 172544, Note_on_c, 12, 77, 0
14, 172560, Note_on_c, 12, 77, 84
14, 172624, Note_on_c, 12, 77, 0
14, 172640, Note_on_c, 12, 77, 84
14, 172704, Note_on_c, 12, 77, 0
14, 172720, Note_on_c, 12, 77, 84
14, 172784, Note_on_c, 12, 77, 0
14, 172800, Note_on_c, 12, 77, 84
14, 172919, Note_on_c, 12, 77, 0
14, 172920, Note_on_c, 12, 79, 84
14, 173019, Note_on_c, 12, 79, 0
14, 173040, Note_on_c, 12, 72, 84
14, 173199, Note_on_c, 12, 72, 0
14, 173280, Note_on_c, 12, 77, 84
14, 173399, Note_on_c, 12, 77, 0
14, 173400, Note_on_c, 12, 79, 84
14, 173499, Note_on_c, 12, 79, 0
14, 173520, Note_on_c, 12, 72, 84
14, 173679, Note_on_c, 12, 72, 0
14, 173760, Note_on_c, 12, 77, 84
14, 173879, Note_on_c, 12, 77, 0
14, 173880, Note_on_c, 12, 79, 84
14, 173979, Note_on_c, 12, 79, 0
14, 174000, Note_on_c, 12, 72, 84
14, 174159, Note_on_c, 12, 72, 0
14, 174240, Note_on_c, 12, 79, 84
14, 174304, Note_on_c, 12, 79, 0
14, 174320, Note_on_c, 12, 79, 84
14, 174384, Note_on_c, 12, 79, 0
14, 174400, Note_on_c, 12, 79, 84
14, 174464, Note_on_c, 12, 79, 0
14, 174480, Note_on_c, 12, 79, 84
14, 174544, Note_on_c, 12, 79, 0
14, 174560, Note_on_c, 12, 79, 84
14, 174624, Note_on_c, 12, 79, 0
14, 174640, Note_on_c, 12, 79, 84
14, 174704, Note_on_c, 12, 79, 0
14, 174720, Note_on_c, 12, 79, 84
14, 174839, Note_on_c, 12, 79, 0
14, 174840, Note_on_c, 12, 81, 84
14, 174939, Note_on_c, 12, 81, 0
14, 174960, Note_on_c, 12, 77, 84
14, 175119, Note_on_c, 12, 77, 0
14, 175200, Note_on_c, 12, 79, 84
14, 175319, Note_on_c, 12, 79, 0
14, 175320, Note_on_c, 12, 81, 84
14, 175419, Note_on_c, 12, 81, 0
14, 175440, Note_on_c, 12, 77, 84
14, 175599, Note_on_c, 12, 77, 0
14, 175680, Note_on_c, 12, 79, 84
14, 175799, Note_on_c, 12, 79, 0
14, 175800, Note_on_c, 12, 81, 84
14, 175899, Note_on_c, 12, 81, 0
14, 175920, Note_on_c, 12, 77, 84
14, 176079, Note_on_c, 12, 77, 0
14, 176160, Note_on_c, 12, 60, 84
14, 176224, Note_on_c, 12, 60, 0
14, 176240, Note_on_c, 12, 60, 84
14, 176304, Note_on_c, 12, 60, 0
14, 176320, Note_on_c, 12, 60, 84
14, 176384, Note_on_c, 12, 60, 0
14, 176400, Note_on_c, 12, 60, 84
14, 176464, Note_on_c, 12, 60, 0
14, 176480, Note_on_c, 12, 60, 84
14, 176544, Note_on_c, 12, 60, 0
14, 176560, Note_on_c, 12, 60, 84
14, 176624, Note_on_c, 12, 60, 0
14, 176640, Note_on_c, 12, 62, 84
14, 176704, Note_on_c, 12, 62, 0
14, 176720, Note_on_c, 12, 62, 84
14, 176784, Note_on_c, 12, 62, 0
14, 176800, Note_on_c, 12, 62, 84
14, 176864, Note_on_c, 12, 62, 0
14, 176880, Note_on_c, 12, 62, 84
14, 176944, Note_on_c, 12, 62, 0
14, 176960, Note_on_c, 12, 62, 84
14, 177024, Note_on_c, 12, 62, 0
14, 177040, Note_on_c, 12, 62, 84
14, 177104, Note_on_c, 12, 62, 0
14, 177120, Note_on_c, 12, 57, 84
14, 177184, Note_on_c, 12, 57, 0
14, 177200, Note_on_c, 12, 57, 84
14, 177264, Note_on_c, 12, 57, 0
14, 177280, Note_on_c, 12, 57, 84
14, 177344, Note_on_c, 12, 57, 0
14, 177360, Note_on_c, 12, 57, 84
14, 177424, Note_on_c, 12, 57, 0
14, 177440, Note_on_c, 12, 57, 84
14, 177504, Note_on_c, 12, 57, 0
14, 177520, Note_on_c, 12, 57, 84
14, 177584, Note_on_c, 12, 57, 0
14, 177600, Note_on_c, 12, 58, 84
14, 177664, Note_on_c, 12, 58, 0
14, 177680, Note_on_c, 12, 58, 84
14, 177744, Note_on_c, 12, 58, 0
14, 177760, Note_on_c, 12, 58, 84
14, 177824, Note_on_c, 12, 58, 0
14, 177840, Note_on_c, 12, 70, 84
14, 177904, Note_on_c, 12, 70, 0
14, 177920, Note_on_c, 12, 70, 84
14, 177984, Note_on_c, 12, 70, 0
14, 178000, Note_on_c, 12, 70, 84
14, 178064, Note_on_c, 12, 70, 0
14, 178080, Note_on_c, 12, 70, 84
14, 178144, Note_on_c, 12, 70, 0
14, 178160, Note_on_c, 12, 70, 84
14, 178224, Note_on_c, 12, 70, 0
14, 178240, Note_on_c, 12, 70, 84
14, 178304, Note_on_c, 12, 70, 0
14, 178320, Note_on_c, 12, 72, 84
14, 178384, Note_on_c, 12, 72, 0
14, 178400, Note_on_c, 12, 72, 84
14, 178464, Note_on_c, 12, 72, 0
14, 178480, Note_on_c, 12, 72, 84
14, 178544, Note_on_c, 12, 72, 0
14, 178560, Note_on_c, 12, 74, 84
14, 178624, Note_on_c, 12, 74, 0
14, 178640, Note_on_c, 12, 62, 84
14, 178704, Note_on_c, 12, 62, 0
14, 178720, Note_on_c, 12, 62, 84
14, 178784, Note_on_c, 12, 62, 0
14, 178800, Note_on_c, 12, 60, 84
14, 178864, Note_on_c, 12, 60, 0
14, 178880, Note_on_c, 12, 60, 84
14, 178944, Note_on_c, 12, 60, 0
14, 178960, Note_on_c, 12, 60, 84
14, 179024, Note_on_c, 12, 60, 0
14, 179040, Note_on_c, 12, 62, 84
14, 179104, Note_on_c, 12, 62, 0
14, 179120, Note_on_c, 12, 62, 84
14, 179184, Note_on_c, 12, 62, 0
14, 179200, Note_on_c, 12, 62, 84
14, 179264, Note_on_c, 12, 62, 0
14, 179280, Note_on_c, 12, 64, 84
14, 179344, Note_on_c, 12, 64, 0
14, 179360, Note_on_c, 12, 64, 84
14, 179424, Note_on_c, 12, 64, 0
14, 179440, Note_on_c, 12, 64, 84
14, 179504, Note_on_c, 12, 64, 0
14, 179520, Note_on_c, 12, 65, 84
14, 179584, Note_on_c, 12, 65, 0
14, 179600, Note_on_c, 12, 65, 84
14, 179664, Note_on_c, 12, 65, 0
14, 179680, Note_on_c, 12, 65, 84
14, 179744, Note_on_c, 12, 65, 0
14, 179760, Note_on_c, 12, 67, 84
14, 179824, Note_on_c, 12, 67, 0
14, 179840, Note_on_c, 12, 67, 84
14, 179904, Note_on_c, 12, 67, 0
14, 179920, Note_on_c, 12, 67, 84
14, 179984, Note_on_c, 12, 67, 0
14, 180000, Note_on_c, 12, 69, 84
14, 180064, Note_on_c, 12, 69, 0
14, 180080, Note_on_c, 12, 69, 84
14, 180144, Note_on_c, 12, 69, 0
14, 180160, Note_on_c, 12, 69, 84
14, 180224, Note_on_c, 12, 69, 0
14, 180240, Note_on_c, 12, 69, 84
14, 180304, Note_on_c, 12, 69, 0
14, 180320, Note_on_c, 12, 69, 84
14, 180384, Note_on_c, 12, 69, 0
14, 180400, Note_on_c, 12, 69, 84
14, 180464, Note_on_c, 12, 69, 0
14, 180480, Note_on_c, 12, 67, 84
14, 180544, Note_on_c, 12, 67, 0
14, 180560, Note_on_c, 12, 67, 84
14, 180624, Note_on_c, 12, 67, 0
14, 180640, Note_on_c, 12, 67, 84
14, 180704, Note_on_c, 12, 67, 0
14, 180720, Note_on_c, 12, 67, 84
14, 180784, Note_on_c, 12, 67, 0
14, 180800, Note_on_c, 12, 67, 84
14, 180864, Note_on_c, 12, 67, 0
14, 180880, Note_on_c, 12, 67, 84
14, 180944, Note_on_c, 12, 67, 0
14, 180960, Note_on_c, 12, 67, 84
14, 181024, Note_on_c, 12, 67, 0
14, 181040, Note_on_c, 12, 67, 84
14, 181104, Note_on_c, 12, 67, 0
14, 181120, Note_on_c, 12, 67, 84
14, 181184, Note_on_c, 12, 67, 0
14, 181200, Note_on_c, 12, 58, 84
14, 181264, Note_on_c, 12, 58, 0
14, 181280, Note_on_c, 12, 58, 84
14, 181344, Note_on_c, 12, 58, 0
14, 181360, Note_on_c, 12, 58, 84
14, 181424, Note_on_c, 12, 58, 0
14, 181440, Note_on_c, 12, 57, 84
14, 181679, Note_on_c, 12, 57, 0
14, 181920, Note_on_c, 12, 57, 84
14, 181984, Note_on_c, 12, 57, 0
14, 182000, Note_on_c, 12, 57, 84
14, 182064, Note_on_c, 12, 57, 0
14, 182080, Note_on_c, 12, 57, 84
14, 182144, Note_on_c, 12, 57, 0
14, 182160, Note_on_c, 12, 57, 84
14, 182224, Note_on_c, 12, 57, 0
14, 182240, Note_on_c, 12, 57, 84
14, 182304, Note_on_c, 12, 57, 0
14, 182320, Note_on_c, 12, 57, 84
14, 182384, Note_on_c, 12, 57, 0
14, 182400, Note_on_c, 12, 57, 84
14, 182639, Note_on_c, 12, 57, 0
14, 182880, Note_on_c, 12, 60, 84
14, 182944, Note_on_c, 12, 60, 0
14, 182960, Note_on_c, 12, 60, 84
14, 183024, Note_on_c, 12, 60, 0
14, 183040, Note_on_c, 12, 60, 84
14, 183104, Note_on_c, 12, 60, 0
14, 183120, Note_on_c, 12, 59, 84
14, 183184, Note_on_c, 12, 59, 0
14, 183200, Note_on_c, 12, 59, 84
14, 183264, Note_on_c, 12, 59, 0
14, 183280, Note_on_c, 12, 59, 84
14, 183344, Note_on_c, 12, 59, 0
14, 183360, Note_on_c, 12, 58, 84
14, 183599, Note_on_c, 12, 58, 0
14, 183840, Note_on_c, 12, 61, 84
14, 183904, Note_on_c, 12, 61, 0
14, 183920, Note_on_c, 12, 61, 84
14, 183984, Note_on_c, 12, 61, 0
14, 184000, Note_on_c, 12, 61, 84
14, 184064, Note_on_c, 12, 61, 0
14, 184080, Note_on_c, 12, 61, 84
14, 184144, Note_on_c, 12, 61, 0
14, 184160, Note_on_c, 12, 61, 84
14, 184224, Note_on_c, 12, 61, 0
14, 184240, Note_on_c, 12, 61, 84
14, 184304, Note_on_c, 12, 61, 0
14, 184320, Note_on_c, 12, 60, 84
14, 184559, Note_on_c, 12, 60, 0
14, 184800, Note_on_c, 12, 60, 84
14, 184864, Note_on_c, 12, 60, 0
14, 184880, Note_on_c, 12, 60, 84
14, 184944, Note_on_c, 12, 60, 0
14, 184960, Note_on_c, 12, 60, 84
14, 185024, Note_on_c, 12, 60, 0
14, 185040, Note_on_c, 12, 60, 84
14, 185104, Note_on_c, 12, 60, 0
14, 185120, Note_on_c, 12, 60, 84
14, 185184, Note_on_c, 12, 60, 0
14, 185200, Note_on_c, 12, 60, 84
14, 185264, Note_on_c, 12, 60, 0
14, 185280, Note_on_c, 12, 60, 84
14, 185519, Note_on_c, 12, 60, 0
14, 186720, Note_on_c, 12, 65, 84
14, 186784, Note_on_c, 12, 65, 0
14, 186800, Note_on_c, 12, 65, 84
14, 186864, Note_on_c, 12, 65, 0
14, 186880, Note_on_c, 12, 65, 84
14, 186944, Note_on_c, 12, 65, 0
14, 186960, Note_on_c, 12, 65, 84
14, 187024, Note_on_c, 12, 65, 0
14, 187040, Note_on_c, 12, 65, 84
14, 187104, Note_on_c, 12, 65, 0
14, 187120, Note_on_c, 12, 65, 84
14, 187184, Note_on_c, 12, 65, 0
14, 187200, Note_on_c, 12, 65, 92
14, 187319, Note_on_c, 12, 65, 0
14, 187320, Note_on_c, 12, 67, 84
14, 187419, Note_on_c, 12, 67, 0
14, 187440, Note_on_c, 12, 64, 84
14, 187599, Note_on_c, 12, 64, 0
14, 188640, Note_on_c, 12, 67, 84
14, 188704, Note_on_c, 12, 67, 0
14, 188720, Note_on_c, 12, 67, 84
14, 188784, Note_on_c, 12, 67, 0
14, 188800, Note_on_c, 12, 67, 84
14, 188864, Note_on_c, 12, 67, 0
14, 188880, Note_on_c, 12, 67, 84
14, 188944, Note_on_c, 12, 67, 0
14, 188960, Note_on_c, 12, 67, 84
14, 189024, Note_on_c, 12, 67, 0
14, 189040, Note_on_c, 12, 67, 84
14, 189104, Note_on_c, 12, 67, 0
14, 189120, Note_on_c, 12, 67, 92
14, 189239, Note_on_c, 12, 67, 0
14, 189240, Note_on_c, 12, 69, 84
14, 189339, Note_on_c, 12, 69, 0
14, 189360, Note_on_c, 12, 65, 84
14, 189519, Note_on_c, 12, 65, 0
14, 189600, Note_on_c, 12, 57, 84
14, 189664, Note_on_c, 12, 57, 0
14, 189680, Note_on_c, 12, 57, 84
14, 189744, Note_on_c, 12, 57, 0
14, 189760, Note_on_c, 12, 57, 84
14, 189824, Note_on_c, 12, 57, 0
14, 189840, Note_on_c, 12, 57, 84
14, 189904, Note_on_c, 12, 57, 0
14, 189920, Note_on_c, 12, 57, 84
14, 189984, Note_on_c, 12, 57, 0
14, 190000, Note_on_c, 12, 57, 84
14, 190064, Note_on_c, 12, 57, 0
14, 190080, Note_on_c, 12, 57, 84
14, 190319, Note_on_c, 12, 57, 0
14, 190560, Note_on_c, 12, 57, 84
14, 190624, Note_on_c, 12, 57, 0
14, 190640, Note_on_c, 12, 57, 84
14, 190704, Note_on_c, 12, 57, 0
14, 190720, Note_on_c, 12, 57, 84
14, 190784, Note_on_c, 12, 57, 0
14, 190800, Note_on_c, 12, 56, 84
14, 190864, Note_on_c, 12, 56, 0
14, 190880, Note_on_c, 12, 56, 84
14, 190944, Note_on_c, 12, 56, 0
14, 190960, Note_on_c, 12, 56, 84
14, 191024, Note_on_c, 12, 56, 0
14, 191040, Note_on_c, 12, 55, 84
14, 191279, Note_on_c, 12, 55, 0
14, 191520, Note_on_c, 12, 61, 84
14, 191584, Note_on_c, 12, 61, 0
14, 191600, Note_on_c, 12, 61, 84
14, 191664, Note_on_c, 12, 61, 0
14, 191680, Note_on_c, 12, 61, 84
14, 191744, Note_on_c, 12, 61, 0
14, 191760, Note_on_c, 12, 61, 84
14, 191824, Note_on_c, 12, 61, 0
14, 191840, Note_on_c, 12, 61, 84
14, 191904, Note_on_c, 12, 61, 0
14, 191920, Note_on_c, 12, 61, 84
14, 191984, Note_on_c, 12, 61, 0
14, 192000, Note_on_c, 12, 60, 84
14, 192239, Note_on_c, 12, 60, 0
14, 192480, Note_on_c, 12, 60, 84
14, 192544, Note_on_c, 12, 60, 0
14, 192560, Note_on_c, 12, 60, 84
14, 192624, Note_on_c, 12, 60, 0
14, 192640, Note_on_c, 12, 60, 84
14, 192704, Note_on_c, 12, 60, 0
14, 192720, Note_on_c, 12, 60, 84
14, 192784, Note_on_c, 12, 60, 0
14, 192800, Note_on_c, 12, 60, 84
14, 192864, Note_on_c, 12, 60, 0
14, 192880, Note_on_c, 12, 60, 84
14, 192944, Note_on_c, 12, 60, 0
14, 192960, Note_on_c, 12, 60, 84
14, 193199, Note_on_c, 12, 60, 0
14, 194400, Note_on_c, 12, 65, 84
14, 194464, Note_on_c, 12, 65, 0
14, 194480, Note_on_c, 12, 65, 84
14, 194544, Note_on_c, 12, 65, 0
14, 194560, Note_on_c, 12, 65, 84
14, 194624, Note_on_c, 12, 65, 0
14, 194640, Note_on_c, 12, 65, 84
14, 194704, Note_on_c, 12, 65, 0
14, 194720, Note_on_c, 12, 65, 84
14, 194784, Note_on_c, 12, 65, 0
14, 194800, Note_on_c, 12, 65, 84
14, 194864, Note_on_c, 12, 65, 0
14, 194880, Note_on_c, 12, 67, 92
14, 194999, Note_on_c, 12, 67, 0
14, 195000, Note_on_c, 12, 69, 84
14, 195099, Note_on_c, 12, 69, 0
14, 195120, Note_on_c, 12, 66, 84
14, 195279, Note_on_c, 12, 66, 0
14, 196320, Note_on_c, 12, 69, 84
14, 196384, Note_on_c, 12, 69, 0
14, 196400, Note_on_c, 12, 69, 84
14, 196464, Note_on_c, 12, 69, 0
14, 196480, Note_on_c, 12, 69, 84
14, 196544, Note_on_c, 12, 69, 0
14, 196560, Note_on_c, 12, 69, 84
14, 196624, Note_on_c, 12, 69, 0
14, 196640, Note_on_c, 12, 69, 84
14, 196704, Note_on_c, 12, 69, 0
14, 196720, Note_on_c, 12, 69, 84
14, 196784, Note_on_c, 12, 69, 0
14, 196800, Note_on_c, 12, 69, 92
14, 196919, Note_on_c, 12, 69, 0
14, 196920, Note_on_c, 12, 70, 84
14, 197019, Note_on_c, 12, 70, 0
14, 197040, Note_on_c, 12, 67, 84
14, 197199, Note_on_c, 12, 67, 0
14, 197280, Note_on_c, 12, 58, 84
14, 197280, Note_on_c, 12, 62, 84
14, 197344, Note_on_c, 12, 58, 0
14, 197344, Note_on_c, 12, 62, 0
14, 197360, Note_on_c, 12, 58, 84
14, 197360, Note_on_c, 12, 62, 84
14, 197424, Note_on_c, 12, 58, 0
14, 197424, Note_on_c, 12, 62, 0
14, 197440, Note_on_c, 12, 58, 84
14, 197440, Note_on_c, 12, 62, 84
14, 197504, Note_on_c, 12, 58, 0
14, 197504, Note_on_c, 12, 62, 0
14, 197520, Note_on_c, 12, 58, 84
14, 197520, Note_on_c, 12, 62, 84
14, 197584, Note_on_c, 12, 58, 0
14, 197584, Note_on_c, 12, 62, 0
14, 197600, Note_on_c, 12, 58, 84
14, 197600, Note_on_c, 12, 62, 84
14, 197664, Note_on_c, 12, 58, 0
14, 197664, Note_on_c, 12, 62, 0
14, 197680, Note_on_c, 12, 58, 84
14, 197680, Note_on_c, 12, 62, 84
14, 197744, Note_on_c, 12, 58, 0
14, 197744, Note_on_c, 12, 62, 0
14, 197760, Note_on_c, 12, 62, 84
14, 197760, Note_on_c, 12, 58, 84
14, 197999, Note_on_c, 12, 62, 0
14, 197999, Note_on_c, 12, 58, 0
14, 198240, Note_on_c, 12, 58, 84
14, 198240, Note_on_c, 12, 62, 84
14, 198304, Note_on_c, 12, 58, 0
14, 198304, Note_on_c, 12, 62, 0
14, 198320, Note_on_c, 12, 62, 84
14, 198320, Note_on_c, 12, 58, 84
14, 198384, Note_on_c, 12, 62, 0
14, 198384, Note_on_c, 12, 58, 0
14, 198400, Note_on_c, 12, 62, 84
14, 198400, Note_on_c, 12, 58, 84
14, 198464, Note_on_c, 12, 62, 0
14, 198464, Note_on_c, 12, 58, 0
14, 198480, Note_on_c, 12, 62, 84
14, 198480, Note_on_c, 12, 58, 84
14, 198544, Note_on_c, 12, 62, 0
14, 198544, Note_on_c, 12, 58, 0
14, 198560, Note_on_c, 12, 58, 84
14, 198560, Note_on_c, 12, 62, 84
14, 198624, Note_on_c, 12, 58, 0
14, 198624, Note_on_c, 12, 62, 0
14, 198640, Note_on_c, 12, 62, 84
14, 198640, Note_on_c, 12, 58, 84
14, 198704, Note_on_c, 12, 62, 0
14, 198704, Note_on_c, 12, 58, 0
14, 198720, Note_on_c, 12, 60, 84
14, 198720, Note_on_c, 12, 63, 84
14, 198959, Note_on_c, 12, 60, 0
14, 198959, Note_on_c, 12, 63, 0
14, 199200, Note_on_c, 12, 60, 84
14, 199200, Note_on_c, 12, 63, 84
14, 199264, Note_on_c, 12, 60, 0
14, 199264, Note_on_c, 12, 63, 0
14, 199280, Note_on_c, 12, 60, 84
14, 199280, Note_on_c, 12, 63, 84
14, 199344, Note_on_c, 12, 60, 0
14, 199344, Note_on_c, 12, 63, 0
14, 199360, Note_on_c, 12, 63, 84
14, 199360, Note_on_c, 12, 60, 84
14, 199424, Note_on_c, 12, 63, 0
14, 199424, Note_on_c, 12, 60, 0
14, 199440, Note_on_c, 12, 60, 84
14, 199440, Note_on_c, 12, 63, 84
14, 199504, Note_on_c, 12, 60, 0
14, 199504, Note_on_c, 12, 63, 0
14, 199520, Note_on_c, 12, 63, 84
14, 199520, Note_on_c, 12, 60, 84
14, 199584, Note_on_c, 12, 63, 0
14, 199584, Note_on_c, 12, 60, 0
14, 199600, Note_on_c, 12, 60, 84
14, 199600, Note_on_c, 12, 63, 84
14, 199664, Note_on_c, 12, 60, 0
14, 199664, Note_on_c, 12, 63, 0
14, 199680, Note_on_c, 12, 60, 84
14, 199680, Note_on_c, 12, 63, 84
14, 199919, Note_on_c, 12, 60, 0
14, 199919, Note_on_c, 12, 63, 0
14, 200160, Note_on_c, 12, 63, 84
14, 200224, Note_on_c, 12, 63, 0
14, 200240, Note_on_c, 12, 63, 84
14, 200304, Note_on_c, 12, 63, 0
14, 200320, Note_on_c, 12, 63, 84
14, 200384, Note_on_c, 12, 63, 0
14, 200400, Note_on_c, 12, 63, 84
14, 200464, Note_on_c, 12, 63, 0
14, 200480, Note_on_c, 12, 63, 84
14, 200544, Note_on_c, 12, 63, 0
14, 200560, Note_on_c, 12, 63, 84
14, 200624, Note_on_c, 12, 63, 0
14, 200640, Note_on_c, 12, 63, 92
14, 200759, Note_on_c, 12, 63, 0
14, 200760, Note_on_c, 12, 65, 84
14, 200859, Note_on_c, 12, 65, 0
14, 200880, Note_on_c, 12, 62, 84
14, 201039, Note_on_c, 12, 62, 0
14, 202080, Note_on_c, 12, 70, 84
14, 202144, Note_on_c, 12, 70, 0
14, 202160, Note_on_c, 12, 70, 84
14, 202224, Note_on_c, 12, 70, 0
14, 202240, Note_on_c, 12, 70, 84
14, 202304, Note_on_c, 12, 70, 0
14, 202320, Note_on_c, 12, 70, 84
14, 202384, Note_on_c, 12, 70, 0
14, 202400, Note_on_c, 12, 70, 84
14, 202464, Note_on_c, 12, 70, 0
14, 202480, Note_on_c, 12, 70, 84
14, 202544, Note_on_c, 12, 70, 0
14, 202560, Note_on_c, 12, 70, 92
14, 202679, Note_on_c, 12, 70, 0
14, 202680, Note_on_c, 12, 72, 84
14, 202779, Note_on_c, 12, 72, 0
14, 202800, Note_on_c, 12, 69, 84
14, 202959, Note_on_c, 12, 69, 0
14, 204000, Note_on_c, 12, 72, 84
14, 204064, Note_on_c, 12, 72, 0
14, 204080, Note_on_c, 12, 72, 84
14, 204144, Note_on_c, 12, 72, 0
14, 204160, Note_on_c, 12, 72, 84
14, 204224, Note_on_c, 12, 72, 0
14, 204240, Note_on_c, 12, 72, 84
14, 204304, Note_on_c, 12, 72, 0
14, 204320, Note_on_c, 12, 72, 84
14, 204384, Note_on_c, 12, 72, 0
14, 204400, Note_on_c, 12, 72, 84
14, 204464, Note_on_c, 12, 72, 0
14, 204480, Note_on_c, 12, 72, 92
14, 204599, Note_on_c, 12, 72, 0
14, 204600, Note_on_c, 12, 74, 84
14, 204699, Note_on_c, 12, 74, 0
14, 204720, Note_on_c, 12, 70, 84
14, 204879, Note_on_c, 12, 70, 0
14, 204960, Note_on_c, 12, 70, 92
14, 205119, Note_on_c, 12, 70, 0
14, 205200, Note_on_c, 12, 65, 84
14, 205359, Note_on_c, 12, 65, 0
14, 205440, Note_on_c, 12, 65, 92
14, 205599, Note_on_c, 12, 65, 0
14, 205680, Note_on_c, 12, 62, 84
14, 205839, Note_on_c, 12, 62, 0
14, 206880, Note_on_c, 12, 70, 84
14, 207039, Note_on_c, 12, 70, 0
14, 207120, Note_on_c, 12, 65, 84
14, 207279, Note_on_c, 12, 65, 0
14, 207360, Note_on_c, 12, 65, 84
14, 207519, Note_on_c, 12, 65, 0
14, 207600, Note_on_c, 12, 62, 84
14, 207759, Note_on_c, 12, 62, 0
14, 209760, Note_on_c, 12, 60, 84
14, 209919, Note_on_c, 12, 60, 0
14, 210000, Note_on_c, 12, 64, 84
14, 210159, Note_on_c, 12, 64, 0
14, 210240, Note_on_c, 12, 64, 84
14, 210399, Note_on_c, 12, 64, 0
14, 210480, Note_on_c, 12, 67, 84
14, 210639, Note_on_c, 12, 67, 0
14, 210720, Note_on_c, 12, 64, 84
14, 210879, Note_on_c, 12, 64, 0
14, 210960, Note_on_c, 12, 67, 84
14, 211119, Note_on_c, 12, 67, 0
14, 211200, Note_on_c, 12, 67, 84
14, 211359, Note_on_c, 12, 67, 0
14, 211440, Note_on_c, 12, 70, 84
14, 211599, Note_on_c, 12, 70, 0
14, 211680, Note_on_c, 12, 64, 84
14, 211839, Note_on_c, 12, 64, 0
14, 211920, Note_on_c, 12, 67, 84
14, 212079, Note_on_c, 12, 67, 0
14, 212160, Note_on_c, 12, 67, 84
14, 212319, Note_on_c, 12, 67, 0
14, 212400, Note_on_c, 12, 70, 84
14, 212559, Note_on_c, 12, 70, 0
14, 212640, Note_on_c, 12, 64, 84
14, 212799, Note_on_c, 12, 64, 0
14, 212880, Note_on_c, 12, 67, 84
14, 213039, Note_on_c, 12, 67, 0
14, 213120, Note_on_c, 12, 67, 84
14, 213279, Note_on_c, 12, 67, 0
14, 213360, Note_on_c, 12, 70, 84
14, 213519, Note_on_c, 12, 70, 0
14, 213600, Note_on_c, 12, 64, 84
14, 213759, Note_on_c, 12, 64, 0
14, 213840, Note_on_c, 12, 67, 84
14, 213999, Note_on_c, 12, 67, 0
14, 214080, Note_on_c, 12, 67, 84
14, 214239, Note_on_c, 12, 67, 0
14, 214320, Note_on_c, 12, 72, 84
14, 214479, Note_on_c, 12, 72, 0
14, 214560, Note_on_c, 12, 72, 84
14, 214719, Note_on_c, 12, 72, 0
14, 214800, Note_on_c, 12, 60, 84
14, 214959, Note_on_c, 12, 60, 0
14, 215040, Note_on_c, 12, 61, 52
14, 215104, Note_on_c, 12, 61, 0
14, 215120, Note_on_c, 12, 56, 52
14, 215120, Note_on_c, 12, 65, 52
14, 215184, Note_on_c, 12, 56, 0
14, 215184, Note_on_c, 12, 65, 0
14, 215200, Note_on_c, 12, 56, 52
14, 215200, Note_on_c, 12, 65, 52
14, 215264, Note_on_c, 12, 56, 0
14, 215264, Note_on_c, 12, 65, 0
14, 215280, Note_on_c, 12, 56, 52
14, 215280, Note_on_c, 12, 65, 52
14, 215344, Note_on_c, 12, 56, 0
14, 215344, Note_on_c, 12, 65, 0
14, 215360, Note_on_c, 12, 56, 52
14, 215360, Note_on_c, 12, 65, 52
14, 215424, Note_on_c, 12, 56, 0
14, 215424, Note_on_c, 12, 65, 0
14, 215440, Note_on_c, 12, 56, 52
14, 215440, Note_on_c, 12, 65, 52
14, 215504, Note_on_c, 12, 56, 0
14, 215504, Note_on_c, 12, 65, 0
14, 215520, Note_on_c, 12, 56, 52
14, 215520, Note_on_c, 12, 65, 52
14, 215584, Note_on_c, 12, 56, 0
14, 215584, Note_on_c, 12, 65, 0
14, 215600, Note_on_c, 12, 56, 52
14, 215600, Note_on_c, 12, 65, 52
14, 215664, Note_on_c, 12, 56, 0
14, 215664, Note_on_c, 12, 65, 0
14, 215680, Note_on_c, 12, 65, 52
14, 215680, Note_on_c, 12, 56, 52
14, 215744, Note_on_c, 12, 65, 0
14, 215744, Note_on_c, 12, 56, 0
14, 215760, Note_on_c, 12, 65, 52
14, 215760, Note_on_c, 12, 56, 52
14, 215824, Note_on_c, 12, 65, 0
14, 215824, Note_on_c, 12, 56, 0
14, 215840, Note_on_c, 12, 56, 52
14, 215840, Note_on_c, 12, 65, 52
14, 215904, Note_on_c, 12, 56, 0
14, 215904, Note_on_c, 12, 65, 0
14, 215920, Note_on_c, 12, 56, 52
14, 215920, Note_on_c, 12, 65, 52
14, 215984, Note_on_c, 12, 56, 0
14, 215984, Note_on_c, 12, 65, 0
14, 216000, Note_on_c, 12, 65, 52
14, 216000, Note_on_c, 12, 56, 52
14, 216064, Note_on_c, 12, 65, 0
14, 216064, Note_on_c, 12, 56, 0
14, 216080, Note_on_c, 12, 65, 52
14, 216080, Note_on_c, 12, 56, 52
14, 216144, Note_on_c, 12, 65, 0
14, 216144, Note_on_c, 12, 56, 0
14, 216160, Note_on_c, 12, 56, 52
14, 216160, Note_on_c, 12, 65, 52
14, 216224, Note_on_c, 12, 56, 0
14, 216224, Note_on_c, 12, 65, 0
14, 216240, Note_on_c, 12, 56, 52
14, 216240, Note_on_c, 12, 65, 52
14, 216304, Note_on_c, 12, 56, 0
14, 216304, Note_on_c, 12, 65, 0
14, 216320, Note_on_c, 12, 65, 52
14, 216320, Note_on_c, 12, 56, 52
14, 216384, Note_on_c, 12, 65, 0
14, 216384, Note_on_c, 12, 56, 0
14, 216400, Note_on_c, 12, 65, 52
14, 216400, Note_on_c, 12, 56, 52
14, 216464, Note_on_c, 12, 65, 0
14, 216464, Note_on_c, 12, 56, 0
14, 216480, Note_on_c, 12, 65, 52
14, 216480, Note_on_c, 12, 56, 52
14, 216544, Note_on_c, 12, 65, 0
14, 216544, Note_on_c, 12, 56, 0
14, 216560, Note_on_c, 12, 65, 52
14, 216560, Note_on_c, 12, 56, 52
14, 216624, Note_on_c, 12, 65, 0
14, 216624, Note_on_c, 12, 56, 0
14, 216640, Note_on_c, 12, 65, 52
14, 216640, Note_on_c, 12, 56, 52
14, 216704, Note_on_c, 12, 65, 0
14, 216704, Note_on_c, 12, 56, 0
14, 216720, Note_on_c, 12, 56, 52
14, 216720, Note_on_c, 12, 65, 52
14, 216784, Note_on_c, 12, 56, 0
14, 216784, Note_on_c, 12, 65, 0
14, 216800, Note_on_c, 12, 65, 52
14, 216800, Note_on_c, 12, 56, 52
14, 216864, Note_on_c, 12, 65, 0
14, 216864, Note_on_c, 12, 56, 0
14, 216880, Note_on_c, 12, 56, 52
14, 216880, Note_on_c, 12, 65, 52
14, 216944, Note_on_c, 12, 56, 0
14, 216944, Note_on_c, 12, 65, 0
14, 216960, Note_on_c, 12, 66, 52
14, 216960, Note_on_c, 12, 56, 52
14, 217024, Note_on_c, 12, 66, 0
14, 217024, Note_on_c, 12, 56, 0
14, 217040, Note_on_c, 12, 56, 52
14, 217040, Note_on_c, 12, 66, 52
14, 217104, Note_on_c, 12, 56, 0
14, 217104, Note_on_c, 12, 66, 0
14, 217120, Note_on_c, 12, 56, 52
14, 217120, Note_on_c, 12, 66, 52
14, 217184, Note_on_c, 12, 56, 0
14, 217184, Note_on_c, 12, 66, 0
14, 217200, Note_on_c, 12, 66, 52
14, 217200, Note_on_c, 12, 56, 52
14, 217264, Note_on_c, 12, 66, 0
14, 217264, Note_on_c, 12, 56, 0
14, 217280, Note_on_c, 12, 56, 52
14, 217280, Note_on_c, 12, 66, 52
14, 217344, Note_on_c, 12, 56, 0
14, 217344, Note_on_c, 12, 66, 0
14, 217360, Note_on_c, 12, 66, 52
14, 217360, Note_on_c, 12, 56, 52
14, 217424, Note_on_c, 12, 66, 0
14, 217424, Note_on_c, 12, 56, 0
14, 217440, Note_on_c, 12, 56, 52
14, 217440, Note_on_c, 12, 66, 52
14, 217504, Note_on_c, 12, 56, 0
14, 217504, Note_on_c, 12, 66, 0
14, 217520, Note_on_c, 12, 56, 52
14, 217520, Note_on_c, 12, 66, 52
14, 217584, Note_on_c, 12, 56, 0
14, 217584, Note_on_c, 12, 66, 0
14, 217600, Note_on_c, 12, 66, 52
14, 217600, Note_on_c, 12, 56, 52
14, 217664, Note_on_c, 12, 66, 0
14, 217664, Note_on_c, 12, 56, 0
14, 217680, Note_on_c, 12, 56, 52
14, 217680, Note_on_c, 12, 66, 52
14, 217744, Note_on_c, 12, 56, 0
14, 217744, Note_on_c, 12, 66, 0
14, 217760, Note_on_c, 12, 66, 52
14, 217760, Note_on_c, 12, 56, 52
14, 217824, Note_on_c, 12, 66, 0
14, 217824, Note_on_c, 12, 56, 0
14, 217840, Note_on_c, 12, 56, 52
14, 217840, Note_on_c, 12, 66, 52
14, 217904, Note_on_c, 12, 56, 0
14, 217904, Note_on_c, 12, 66, 0
14, 217920, Note_on_c, 12, 66, 52
14, 217920, Note_on_c, 12, 56, 52
14, 217984, Note_on_c, 12, 66, 0
14, 217984, Note_on_c, 12, 56, 0
14, 218000, Note_on_c, 12, 56, 52
14, 218000, Note_on_c, 12, 66, 52
14, 218064, Note_on_c, 12, 56, 0
14, 218064, Note_on_c, 12, 66, 0
14, 218080, Note_on_c, 12, 56, 52
14, 218080, Note_on_c, 12, 66, 52
14, 218144, Note_on_c, 12, 56, 0
14, 218144, Note_on_c, 12, 66, 0
14, 218160, Note_on_c, 12, 66, 52
14, 218160, Note_on_c, 12, 56, 52
14, 218224, Note_on_c, 12, 66, 0
14, 218224, Note_on_c, 12, 56, 0
14, 218240, Note_on_c, 12, 56, 52
14, 218240, Note_on_c, 12, 66, 52
14, 218304, Note_on_c, 12, 56, 0
14, 218304, Note_on_c, 12, 66, 0
14, 218320, Note_on_c, 12, 66, 52
14, 218320, Note_on_c, 12, 56, 52
14, 218384, Note_on_c, 12, 66, 0
14, 218384, Note_on_c, 12, 56, 0
14, 218400, Note_on_c, 12, 66, 52
14, 218400, Note_on_c, 12, 56, 52
14, 218464, Note_on_c, 12, 66, 0
14, 218464, Note_on_c, 12, 56, 0
14, 218480, Note_on_c, 12, 56, 52
14, 218480, Note_on_c, 12, 66, 52
14, 218544, Note_on_c, 12, 56, 0
14, 218544, Note_on_c, 12, 66, 0
14, 218560, Note_on_c, 12, 56, 52
14, 218560, Note_on_c, 12, 66, 52
14, 218624, Note_on_c, 12, 56, 0
14, 218624, Note_on_c, 12, 66, 0
14, 218640, Note_on_c, 12, 56, 52
14, 218640, Note_on_c, 12, 66, 52
14, 218704, Note_on_c, 12, 56, 0
14, 218704, Note_on_c, 12, 66, 0
14, 218720, Note_on_c, 12, 56, 52
14, 218720, Note_on_c, 12, 66, 52
14, 218784, Note_on_c, 12, 56, 0
14, 218784, Note_on_c, 12, 66, 0
14, 218800, Note_on_c, 12, 56, 52
14, 218800, Note_on_c, 12, 66, 52
14, 218864, Note_on_c, 12, 56, 0
14, 218864, Note_on_c, 12, 66, 0
14, 218880, Note_on_c, 12, 65, 52
14, 218880, Note_on_c, 12, 56, 52
14, 218944, Note_on_c, 12, 65, 0
14, 218944, Note_on_c, 12, 56, 0
14, 218960, Note_on_c, 12, 65, 52
14, 218960, Note_on_c, 12, 56, 52
14, 219024, Note_on_c, 12, 65, 0
14, 219024, Note_on_c, 12, 56, 0
14, 219040, Note_on_c, 12, 56, 52
14, 219040, Note_on_c, 12, 65, 52
14, 219104, Note_on_c, 12, 56, 0
14, 219104, Note_on_c, 12, 65, 0
14, 219120, Note_on_c, 12, 56, 52
14, 219120, Note_on_c, 12, 65, 52
14, 219184, Note_on_c, 12, 56, 0
14, 219184, Note_on_c, 12, 65, 0
14, 219200, Note_on_c, 12, 56, 52
14, 219200, Note_on_c, 12, 65, 52
14, 219264, Note_on_c, 12, 56, 0
14, 219264, Note_on_c, 12, 65, 0
14, 219280, Note_on_c, 12, 65, 52
14, 219280, Note_on_c, 12, 56, 52
14, 219344, Note_on_c, 12, 65, 0
14, 219344, Note_on_c, 12, 56, 0
14, 219360, Note_on_c, 12, 56, 52
14, 219360, Note_on_c, 12, 65, 52
14, 219424, Note_on_c, 12, 56, 0
14, 219424, Note_on_c, 12, 65, 0
14, 219440, Note_on_c, 12, 56, 52
14, 219440, Note_on_c, 12, 65, 52
14, 219504, Note_on_c, 12, 56, 0
14, 219504, Note_on_c, 12, 65, 0
14, 219520, Note_on_c, 12, 65, 52
14, 219520, Note_on_c, 12, 56, 52
14, 219584, Note_on_c, 12, 65, 0
14, 219584, Note_on_c, 12, 56, 0
14, 219600, Note_on_c, 12, 65, 52
14, 219600, Note_on_c, 12, 56, 52
14, 219664, Note_on_c, 12, 65, 0
14, 219664, Note_on_c, 12, 56, 0
14, 219680, Note_on_c, 12, 65, 52
14, 219680, Note_on_c, 12, 56, 52
14, 219744, Note_on_c, 12, 65, 0
14, 219744, Note_on_c, 12, 56, 0
14, 219760, Note_on_c, 12, 56, 52
14, 219760, Note_on_c, 12, 65, 52
14, 219824, Note_on_c, 12, 56, 0
14, 219824, Note_on_c, 12, 65, 0
14, 219840, Note_on_c, 12, 56, 52
14, 219840, Note_on_c, 12, 65, 52
14, 219904, Note_on_c, 12, 56, 0
14, 219904, Note_on_c, 12, 65, 0
14, 219920, Note_on_c, 12, 65, 52
14, 219920, Note_on_c, 12, 56, 52
14, 219984, Note_on_c, 12, 65, 0
14, 219984, Note_on_c, 12, 56, 0
14, 220000, Note_on_c, 12, 65, 52
14, 220000, Note_on_c, 12, 56, 52
14, 220064, Note_on_c, 12, 65, 0
14, 220064, Note_on_c, 12, 56, 0
14, 220080, Note_on_c, 12, 65, 52
14, 220080, Note_on_c, 12, 56, 52
14, 220144, Note_on_c, 12, 65, 0
14, 220144, Note_on_c, 12, 56, 0
14, 220160, Note_on_c, 12, 56, 52
14, 220160, Note_on_c, 12, 65, 52
14, 220224, Note_on_c, 12, 56, 0
14, 220224, Note_on_c, 12, 65, 0
14, 220240, Note_on_c, 12, 65, 52
14, 220240, Note_on_c, 12, 56, 52
14, 220304, Note_on_c, 12, 65, 0
14, 220304, Note_on_c, 12, 56, 0
14, 220320, Note_on_c, 12, 65, 52
14, 220320, Note_on_c, 12, 56, 52
14, 220384, Note_on_c, 12, 65, 0
14, 220384, Note_on_c, 12, 56, 0
14, 220400, Note_on_c, 12, 56, 52
14, 220400, Note_on_c, 12, 65, 52
14, 220464, Note_on_c, 12, 56, 0
14, 220464, Note_on_c, 12, 65, 0
14, 220480, Note_on_c, 12, 56, 52
14, 220480, Note_on_c, 12, 65, 52
14, 220544, Note_on_c, 12, 56, 0
14, 220544, Note_on_c, 12, 65, 0
14, 220560, Note_on_c, 12, 56, 52
14, 220560, Note_on_c, 12, 65, 52
14, 220624, Note_on_c, 12, 56, 0
14, 220624, Note_on_c, 12, 65, 0
14, 220640, Note_on_c, 12, 65, 52
14, 220640, Note_on_c, 12, 56, 52
14, 220704, Note_on_c, 12, 65, 0
14, 220704, Note_on_c, 12, 56, 0
14, 220720, Note_on_c, 12, 65, 52
14, 220720, Note_on_c, 12, 56, 52
14, 220784, Note_on_c, 12, 65, 0
14, 220784, Note_on_c, 12, 56, 0
14, 220800, Note_on_c, 12, 66, 52
14, 220800, Note_on_c, 12, 56, 52
14, 220864, Note_on_c, 12, 66, 0
14, 220864, Note_on_c, 12, 56, 0
14, 220880, Note_on_c, 12, 56, 52
14, 220880, Note_on_c, 12, 66, 52
14, 220944, Note_on_c, 12, 56, 0
14, 220944, Note_on_c, 12, 66, 0
14, 220960, Note_on_c, 12, 66, 52
14, 220960, Note_on_c, 12, 56, 52
14, 221024, Note_on_c, 12, 66, 0
14, 221024, Note_on_c, 12, 56, 0
14, 221040, Note_on_c, 12, 56, 52
14, 221040, Note_on_c, 12, 66, 52
14, 221104, Note_on_c, 12, 56, 0
14, 221104, Note_on_c, 12, 66, 0
14, 221120, Note_on_c, 12, 56, 52
14, 221120, Note_on_c, 12, 66, 52
14, 221184, Note_on_c, 12, 56, 0
14, 221184, Note_on_c, 12, 66, 0
14, 221200, Note_on_c, 12, 56, 52
14, 221200, Note_on_c, 12, 66, 52
14, 221264, Note_on_c, 12, 56, 0
14, 221264, Note_on_c, 12, 66, 0
14, 221280, Note_on_c, 12, 56, 52
14, 221280, Note_on_c, 12, 66, 52
14, 221344, Note_on_c, 12, 56, 0
14, 221344, Note_on_c, 12, 66, 0
14, 221360, Note_on_c, 12, 66, 52
14, 221360, Note_on_c, 12, 56, 52
14, 221424, Note_on_c, 12, 66, 0
14, 221424, Note_on_c, 12, 56, 0
14, 221440, Note_on_c, 12, 66, 52
14, 221440, Note_on_c, 12, 56, 52
14, 221504, Note_on_c, 12, 66, 0
14, 221504, Note_on_c, 12, 56, 0
14, 221520, Note_on_c, 12, 66, 52
14, 221520, Note_on_c, 12, 56, 52
14, 221584, Note_on_c, 12, 66, 0
14, 221584, Note_on_c, 12, 56, 0
14, 221600, Note_on_c, 12, 56, 52
14, 221600, Note_on_c, 12, 66, 52
14, 221664, Note_on_c, 12, 56, 0
14, 221664, Note_on_c, 12, 66, 0
14, 221680, Note_on_c, 12, 66, 52
14, 221680, Note_on_c, 12, 56, 52
14, 221744, Note_on_c, 12, 66, 0
14, 221744, Note_on_c, 12, 56, 0
14, 221760, Note_on_c, 12, 66, 52
14, 221760, Note_on_c, 12, 56, 52
14, 221824, Note_on_c, 12, 66, 0
14, 221824, Note_on_c, 12, 56, 0
14, 221840, Note_on_c, 12, 56, 52
14, 221840, Note_on_c, 12, 66, 52
14, 221904, Note_on_c, 12, 56, 0
14, 221904, Note_on_c, 12, 66, 0
14, 221920, Note_on_c, 12, 56, 52
14, 221920, Note_on_c, 12, 66, 52
14, 221984, Note_on_c, 12, 56, 0
14, 221984, Note_on_c, 12, 66, 0
14, 222000, Note_on_c, 12, 66, 52
14, 222000, Note_on_c, 12, 56, 52
14, 222064, Note_on_c, 12, 66, 0
14, 222064, Note_on_c, 12, 56, 0
14, 222080, Note_on_c, 12, 56, 52
14, 222080, Note_on_c, 12, 66, 52
14, 222144, Note_on_c, 12, 56, 0
14, 222144, Note_on_c, 12, 66, 0
14, 222160, Note_on_c, 12, 66, 52
14, 222160, Note_on_c, 12, 56, 52
14, 222224, Note_on_c, 12, 66, 0
14, 222224, Note_on_c, 12, 56, 0
14, 222240, Note_on_c, 12, 56, 52
14, 222240, Note_on_c, 12, 66, 52
14, 222304, Note_on_c, 12, 56, 0
14, 222304, Note_on_c, 12, 66, 0
14, 222320, Note_on_c, 12, 56, 52
14, 222320, Note_on_c, 12, 66, 52
14, 222384, Note_on_c, 12, 56, 0
14, 222384, Note_on_c, 12, 66, 0
14, 222400, Note_on_c, 12, 56, 52
14, 222400, Note_on_c, 12, 66, 52
14, 222464, Note_on_c, 12, 56, 0
14, 222464, Note_on_c, 12, 66, 0
14, 222480, Note_on_c, 12, 56, 52
14, 222480, Note_on_c, 12, 66, 52
14, 222544, Note_on_c, 12, 56, 0
14, 222544, Note_on_c, 12, 66, 0
14, 222560, Note_on_c, 12, 56, 52
14, 222560, Note_on_c, 12, 66, 52
14, 222624, Note_on_c, 12, 56, 0
14, 222624, Note_on_c, 12, 66, 0
14, 222640, Note_on_c, 12, 66, 52
14, 222640, Note_on_c, 12, 56, 52
14, 222704, Note_on_c, 12, 66, 0
14, 222704, Note_on_c, 12, 56, 0
14, 222720, Note_on_c, 12, 56, 52
14, 222720, Note_on_c, 12, 65, 52
14, 222784, Note_on_c, 12, 56, 0
14, 222784, Note_on_c, 12, 65, 0
14, 222800, Note_on_c, 12, 65, 52
14, 222864, Note_on_c, 12, 65, 0
14, 222880, Note_on_c, 12, 65, 52
14, 222944, Note_on_c, 12, 65, 0
14, 222960, Note_on_c, 12, 65, 53
14, 223024, Note_on_c, 12, 65, 0
14, 223040, Note_on_c, 12, 65, 53
14, 223104, Note_on_c, 12, 65, 0
14, 223120, Note_on_c, 12, 65, 53
14, 223184, Note_on_c, 12, 65, 0
14, 223200, Note_on_c, 12, 65, 54
14, 223264, Note_on_c, 12, 65, 0
14, 223280, Note_on_c, 12, 65, 54
14, 223344, Note_on_c, 12, 65, 0
14, 223360, Note_on_c, 12, 65, 54
14, 223424, Note_on_c, 12, 65, 0
14, 223440, Note_on_c, 12, 65, 55
14, 223504, Note_on_c, 12, 65, 0
14, 223520, Note_on_c, 12, 65, 55
14, 223584, Note_on_c, 12, 65, 0
14, 223600, Note_on_c, 12, 65, 55
14, 223664, Note_on_c, 12, 65, 0
14, 223680, Note_on_c, 12, 65, 56
14, 223680, Note_on_c, 12, 59, 56
14, 223744, Note_on_c, 12, 65, 0
14, 223744, Note_on_c, 12, 59, 0
14, 223760, Note_on_c, 12, 65, 56
14, 223760, Note_on_c, 12, 59, 56
14, 223824, Note_on_c, 12, 65, 0
14, 223824, Note_on_c, 12, 59, 0
14, 223840, Note_on_c, 12, 59, 56
14, 223840, Note_on_c, 12, 65, 56
14, 223904, Note_on_c, 12, 59, 0
14, 223904, Note_on_c, 12, 65, 0
14, 223920, Note_on_c, 12, 59, 57
14, 223920, Note_on_c, 12, 65, 57
14, 223984, Note_on_c, 12, 59, 0
14, 223984, Note_on_c, 12, 65, 0
14, 224000, Note_on_c, 12, 65, 57
14, 224000, Note_on_c, 12, 59, 57
14, 224064, Note_on_c, 12, 65, 0
14, 224064, Note_on_c, 12, 59, 0
14, 224080, Note_on_c, 12, 59, 57
14, 224080, Note_on_c, 12, 65, 57
14, 224144, Note_on_c, 12, 59, 0
14, 224144, Note_on_c, 12, 65, 0
14, 224160, Note_on_c, 12, 59, 58
14, 224160, Note_on_c, 12, 65, 58
14, 224224, Note_on_c, 12, 59, 0
14, 224224, Note_on_c, 12, 65, 0
14, 224240, Note_on_c, 12, 59, 58
14, 224240, Note_on_c, 12, 65, 58
14, 224304, Note_on_c, 12, 59, 0
14, 224304, Note_on_c, 12, 65, 0
14, 224320, Note_on_c, 12, 65, 58
14, 224320, Note_on_c, 12, 59, 58
14, 224384, Note_on_c, 12, 65, 0
14, 224384, Note_on_c, 12, 59, 0
14, 224400, Note_on_c, 12, 65, 59
14, 224400, Note_on_c, 12, 59, 59
14, 224464, Note_on_c, 12, 65, 0
14, 224464, Note_on_c, 12, 59, 0
14, 224480, Note_on_c, 12, 59, 59
14, 224480, Note_on_c, 12, 65, 59
14, 224544, Note_on_c, 12, 59, 0
14, 224544, Note_on_c, 12, 65, 0
14, 224560, Note_on_c, 12, 65, 59
14, 224560, Note_on_c, 12, 59, 59
14, 224624, Note_on_c, 12, 65, 0
14, 224624, Note_on_c, 12, 59, 0
14, 224640, Note_on_c, 12, 58, 60
14, 224640, Note_on_c, 12, 67, 60
14, 224704, Note_on_c, 12, 58, 0
14, 224704, Note_on_c, 12, 67, 0
14, 224720, Note_on_c, 12, 58, 60
14, 224720, Note_on_c, 12, 67, 60
14, 224784, Note_on_c, 12, 58, 0
14, 224784, Note_on_c, 12, 67, 0
14, 224800, Note_on_c, 12, 67, 60
14, 224800, Note_on_c, 12, 58, 60
14, 224864, Note_on_c, 12, 67, 0
14, 224864, Note_on_c, 12, 58, 0
14, 224880, Note_on_c, 12, 58, 61
14, 224880, Note_on_c, 12, 67, 61
14, 224944, Note_on_c, 12, 58, 0
14, 224944, Note_on_c, 12, 67, 0
14, 224960, Note_on_c, 12, 67, 61
14, 224960, Note_on_c, 12, 58, 61
14, 225024, Note_on_c, 12, 67, 0
14, 225024, Note_on_c, 12, 58, 0
14, 225040, Note_on_c, 12, 67, 61
14, 225040, Note_on_c, 12, 58, 61
14, 225104, Note_on_c, 12, 67, 0
14, 225104, Note_on_c, 12, 58, 0
14, 225120, Note_on_c, 12, 58, 62
14, 225120, Note_on_c, 12, 67, 62
14, 225184, Note_on_c, 12, 58, 0
14, 225184, Note_on_c, 12, 67, 0
14, 225200, Note_on_c, 12, 58, 62
14, 225200, Note_on_c, 12, 67, 62
14, 225264, Note_on_c, 12, 58, 0
14, 225264, Note_on_c, 12, 67, 0
14, 225280, Note_on_c, 12, 58, 62
14, 225280, Note_on_c, 12, 67, 62
14, 225344, Note_on_c, 12, 58, 0
14, 225344, Note_on_c, 12, 67, 0
14, 225360, Note_on_c, 12, 67, 63
14, 225360, Note_on_c, 12, 58, 63
14, 225424, Note_on_c, 12, 67, 0
14, 225424, Note_on_c, 12, 58, 0
14, 225440, Note_on_c, 12, 67, 63
14, 225440, Note_on_c, 12, 58, 63
14, 225504, Note_on_c, 12, 67, 0
14, 225504, Note_on_c, 12, 58, 0
14, 225520, Note_on_c, 12, 67, 63
14, 225520, Note_on_c, 12, 58, 63
14, 225584, Note_on_c, 12, 67, 0
14, 225584, Note_on_c, 12, 58, 0
14, 225600, Note_on_c, 12, 67, 64
14, 225600, Note_on_c, 12, 58, 64
14, 225664, Note_on_c, 12, 67, 0
14, 225664, Note_on_c, 12, 58, 0
14, 225680, Note_on_c, 12, 67, 64
14, 225680, Note_on_c, 12, 58, 64
14, 225744, Note_on_c, 12, 67, 0
14, 225744, Note_on_c, 12, 58, 0
14, 225760, Note_on_c, 12, 58, 64
14, 225760, Note_on_c, 12, 67, 64
14, 225824, Note_on_c, 12, 58, 0
14, 225824, Note_on_c, 12, 67, 0
14, 225840, Note_on_c, 12, 58, 65
14, 225840, Note_on_c, 12, 67, 65
14, 225904, Note_on_c, 12, 58, 0
14, 225904, Note_on_c, 12, 67, 0
14, 225920, Note_on_c, 12, 58, 65
14, 225920, Note_on_c, 12, 67, 65
14, 225984, Note_on_c, 12, 58, 0
14, 225984, Note_on_c, 12, 67, 0
14, 226000, Note_on_c, 12, 67, 65
14, 226000, Note_on_c, 12, 58, 65
14, 226064, Note_on_c, 12, 67, 0
14, 226064, Note_on_c, 12, 58, 0
14, 226080, Note_on_c, 12, 67, 66
14, 226080, Note_on_c, 12, 58, 66
14, 226144, Note_on_c, 12, 67, 0
14, 226144, Note_on_c, 12, 58, 0
14, 226160, Note_on_c, 12, 67, 66
14, 226160, Note_on_c, 12, 58, 66
14, 226224, Note_on_c, 12, 67, 0
14, 226224, Note_on_c, 12, 58, 0
14, 226240, Note_on_c, 12, 58, 66
14, 226240, Note_on_c, 12, 67, 66
14, 226304, Note_on_c, 12, 58, 0
14, 226304, Note_on_c, 12, 67, 0
14, 226320, Note_on_c, 12, 58, 67
14, 226320, Note_on_c, 12, 67, 67
14, 226384, Note_on_c, 12, 58, 0
14, 226384, Note_on_c, 12, 67, 0
14, 226400, Note_on_c, 12, 67, 67
14, 226400, Note_on_c, 12, 58, 67
14, 226464, Note_on_c, 12, 67, 0
14, 226464, Note_on_c, 12, 58, 0
14, 226480, Note_on_c, 12, 58, 67
14, 226480, Note_on_c, 12, 67, 67
14, 226544, Note_on_c, 12, 58, 0
14, 226544, Note_on_c, 12, 67, 0
14, 226560, Note_on_c, 12, 69, 52
14, 226560, Note_on_c, 12, 57, 52
14, 226799, Note_on_c, 12, 69, 0
14, 226799, Note_on_c, 12, 57, 0
14, 229440, Control_c, 12, 11, 96
14, 229920, Note_on_c, 12, 76, 68
14, 229980, Control_c, 12, 11, 99
14, 230040, Control_c, 12, 11, 101
14, 230100, Control_c, 12, 11, 104
14, 230160, Control_c, 12, 11, 106
14, 230220, Control_c, 12, 11, 109
14, 230280, Control_c, 12, 11, 112
14, 230340, Control_c, 12, 11, 114
14, 230399, Note_on_c, 12, 76, 0
14, 230400, Note_on_c, 12, 77, 68
14, 230400, Control_c, 12, 11, 117
14, 230460, Control_c, 12, 11, 119
14, 230520, Control_c, 12, 11, 122
14, 230580, Control_c, 12, 11, 124
14, 230640, Control_c, 12, 11, 127
14, 230880, Control_c, 12, 11, 127
14, 230920, Control_c, 12, 11, 124
14, 230960, Control_c, 12, 11, 122
14, 231000, Control_c, 12, 11, 119
14, 231040, Control_c, 12, 11, 117
14, 231080, Control_c, 12, 11, 114
14, 231119, Note_on_c, 12, 77, 0
14, 231120, Control_c, 12, 11, 112
14, 231120, Note_on_c, 12, 79, 68
14, 231160, Control_c, 12, 11, 109
14, 231200, Control_c, 12, 11, 106
14, 231239, Note_on_c, 12, 79, 0
14, 231240, Note_on_c, 12, 81, 68
14, 231240, Control_c, 12, 11, 104
14, 231280, Control_c, 12, 11, 101
14, 231320, Control_c, 12, 11, 99
14, 231359, Note_on_c, 12, 81, 0
14, 231360, Control_c, 12, 11, 96
14, 231360, Note_on_c, 12, 72, 68
14, 231599, Note_on_c, 12, 72, 0
14, 233280, Control_c, 12, 11, 112
14, 233760, Control_c, 12, 11, 112
14, 233760, Note_on_c, 12, 76, 60
14, 233800, Control_c, 12, 11, 113
14, 233840, Control_c, 12, 11, 115
14, 233880, Control_c, 12, 11, 116
14, 233920, Control_c, 12, 11, 117
14, 233960, Control_c, 12, 11, 118
14, 234000, Control_c, 12, 11, 120
14, 234040, Control_c, 12, 11, 121
14, 234080, Control_c, 12, 11, 122
14, 234120, Control_c, 12, 11, 123
14, 234160, Control_c, 12, 11, 125
14, 234200, Control_c, 12, 11, 127
14, 234239, Note_on_c, 12, 76, 0
14, 234240, Note_on_c, 12, 77, 44
14, 234384, Note_on_c, 12, 77, 0
14, 234400, Note_on_c, 12, 65, 44
14, 234559, Note_on_c, 12, 65, 0
14, 234560, Note_on_c, 12, 64, 44
14, 234719, Note_on_c, 12, 64, 0
14, 234720, Note_on_c, 12, 65, 44
14, 234879, Note_on_c, 12, 65, 0
14, 234880, Note_on_c, 12, 64, 44
14, 235039, Note_on_c, 12, 64, 0
14, 235040, Note_on_c, 12, 66, 44
14, 235199, Note_on_c, 12, 66, 0
14, 235200, Note_on_c, 12, 67, 44
14, 235344, Note_on_c, 12, 67, 0
14, 235360, Note_on_c, 12, 67, 44
14, 235519, Note_on_c, 12, 67, 0
14, 235520, Note_on_c, 12, 66, 44
14, 235679, Note_on_c, 12, 66, 0
14, 235680, Note_on_c, 12, 67, 44
14, 235839, Note_on_c, 12, 67, 0
14, 235840, Note_on_c, 12, 66, 44
14, 235999, Note_on_c, 12, 66, 0
14, 236000, Note_on_c, 12, 68, 44
14, 236159, Note_on_c, 12, 68, 0
14, 236160, Note_on_c, 12, 69, 44
14, 236304, Note_on_c, 12, 69, 0
14, 236320, Note_on_c, 12, 69, 44
14, 236479, Note_on_c, 12, 69, 0
14, 236480, Note_on_c, 12, 68, 44
14, 236639, Note_on_c, 12, 68, 0
14, 236640, Note_on_c, 12, 69, 44
14, 236799, Note_on_c, 12, 69, 0
14, 236800, Note_on_c, 12, 67, 44
14, 236959, Note_on_c, 12, 67, 0
14, 236960, Note_on_c, 12, 69, 44
14, 237119, Note_on_c, 12, 69, 0
14, 237120, Note_on_c, 12, 70, 44
14, 237264, Note_on_c, 12, 70, 0
14, 237280, Note_on_c, 12, 70, 44
14, 237439, Note_on_c, 12, 70, 0
14, 237440, Note_on_c, 12, 69, 44
14, 237599, Note_on_c, 12, 69, 0
14, 237600, Note_on_c, 12, 70, 44
14, 237759, Note_on_c, 12, 70, 0
14, 237760, Note_on_c, 12, 69, 44
14, 237919, Note_on_c, 12, 69, 0
14, 237920, Note_on_c, 12, 71, 44
14, 238064, Note_on_c, 12, 71, 0
14, 238080, Note_on_c, 12, 72, 44
14, 238239, Note_on_c, 12, 72, 0
14, 238240, Note_on_c, 12, 67, 44
14, 238399, Note_on_c, 12, 67, 0
14, 238400, Note_on_c, 12, 72, 44
14, 238559, Note_on_c, 12, 72, 0
14, 238560, Note_on_c, 12, 67, 44
14, 238719, Note_on_c, 12, 67, 0
14, 238720, Note_on_c, 12, 72, 44
14, 238879, Note_on_c, 12, 72, 0
14, 238880, Note_on_c, 12, 69, 44
14, 239039, Note_on_c, 12, 69, 0
14, 239040, Note_on_c, 12, 70, 44
14, 239199, Note_on_c, 12, 70, 0
14, 239200, Note_on_c, 12, 65, 44
14, 239359, Note_on_c, 12, 65, 0
14, 239360, Note_on_c, 12, 70, 44
14, 239519, Note_on_c, 12, 70, 0
14, 239520, Note_on_c, 12, 65, 44
14, 239679, Note_on_c, 12, 65, 0
14, 239680, Note_on_c, 12, 70, 44
14, 239839, Note_on_c, 12, 70, 0
14, 239840, Note_on_c, 12, 68, 44
14, 239999, Note_on_c, 12, 68, 0
14, 240000, Note_on_c, 12, 69, 44
14, 240159, Note_on_c, 12, 69, 0
14, 240160, Note_on_c, 12, 64, 44
14, 240319, Note_on_c, 12, 64, 0
14, 240320, Note_on_c, 12, 69, 44
14, 240479, Note_on_c, 12, 69, 0
14, 240480, Note_on_c, 12, 64, 44
14, 240639, Note_on_c, 12, 64, 0
14, 240640, Note_on_c, 12, 69, 44
14, 240799, Note_on_c, 12, 69, 0
14, 240800, Note_on_c, 12, 66, 44
14, 240959, Note_on_c, 12, 66, 0
14, 240960, Note_on_c, 12, 67, 44
14, 241119, Note_on_c, 12, 67, 0
14, 241120, Note_on_c, 12, 62, 44
14, 241279, Note_on_c, 12, 62, 0
14, 241280, Note_on_c, 12, 67, 44
14, 241439, Note_on_c, 12, 67, 0
14, 241440, Note_on_c, 12, 62, 44
14, 241599, Note_on_c, 12, 62, 0
14, 241600, Note_on_c, 12, 67, 44
14, 241759, Note_on_c, 12, 67, 0
14, 241760, Note_on_c, 12, 64, 44
14, 241904, Note_on_c, 12, 64, 0
14, 241920, Note_on_c, 12, 65, 76
14, 242139, Note_on_c, 12, 65, 0
14, 242160, Note_on_c, 12, 77, 76
14, 242619, Note_on_c, 12, 77, 0
14, 242640, Note_on_c, 12, 76, 76
14, 242759, Note_on_c, 12, 76, 0
14, 242760, Note_on_c, 12, 78, 76
14, 242879, Note_on_c, 12, 78, 0
14, 242880, Note_on_c, 12, 79, 76
14, 243039, Note_on_c, 12, 79, 0
14, 243120, Note_on_c, 12, 79, 76
14, 243579, Note_on_c, 12, 79, 0
14, 243600, Note_on_c, 12, 78, 76
14, 243719, Note_on_c, 12, 78, 0
14, 243720, Note_on_c, 12, 80, 76
14, 243839, Note_on_c, 12, 80, 0
14, 243840, Note_on_c, 12, 81, 76
14, 243999, Note_on_c, 12, 81, 0
14, 244080, Note_on_c, 12, 81, 76
14, 244539, Note_on_c, 12, 81, 0
14, 244560, Note_on_c, 12, 79, 76
14, 244679, Note_on_c, 12, 79, 0
14, 244680, Note_on_c, 12, 81, 76
14, 244799, Note_on_c, 12, 81, 0
14, 244800, Note_on_c, 12, 82, 76
14, 244959, Note_on_c, 12, 82, 0
14, 245040, Note_on_c, 12, 82, 76
14, 245499, Note_on_c, 12, 82, 0
14, 245520, Note_on_c, 12, 81, 76
14, 245639, Note_on_c, 12, 81, 0
14, 245640, Note_on_c, 12, 83, 76
14, 245739, Note_on_c, 12, 83, 0
14, 245760, Note_on_c, 12, 84, 76
14, 245979, Note_on_c, 12, 84, 0
14, 246000, Note_on_c, 12, 64, 76
14, 246064, Note_on_c, 12, 64, 0
14, 246080, Note_on_c, 12, 64, 76
14, 246144, Note_on_c, 12, 64, 0
14, 246160, Note_on_c, 12, 64, 76
14, 246224, Note_on_c, 12, 64, 0
14, 246240, Note_on_c, 12, 76, 76
14, 246304, Note_on_c, 12, 76, 0
14, 246320, Note_on_c, 12, 76, 76
14, 246384, Note_on_c, 12, 76, 0
14, 246400, Note_on_c, 12, 76, 76
14, 246464, Note_on_c, 12, 76, 0
14, 246480, Note_on_c, 12, 77, 76
14, 246544, Note_on_c, 12, 77, 0
14, 246560, Note_on_c, 12, 77, 76
14, 246624, Note_on_c, 12, 77, 0
14, 246640, Note_on_c, 12, 77, 76
14, 246704, Note_on_c, 12, 77, 0
14, 246720, Note_on_c, 12, 74, 76
14, 246784, Note_on_c, 12, 74, 0
14, 246800, Note_on_c, 12, 74, 76
14, 246864, Note_on_c, 12, 74, 0
14, 246880, Note_on_c, 12, 74, 76
14, 246944, Note_on_c, 12, 74, 0
14, 246960, Note_on_c, 12, 62, 76
14, 247024, Note_on_c, 12, 62, 0
14, 247040, Note_on_c, 12, 62, 76
14, 247104, Note_on_c, 12, 62, 0
14, 247120, Note_on_c, 12, 62, 76
14, 247184, Note_on_c, 12, 62, 0
14, 247200, Note_on_c, 12, 74, 76
14, 247264, Note_on_c, 12, 74, 0
14, 247280, Note_on_c, 12, 74, 76
14, 247344, Note_on_c, 12, 74, 0
14, 247360, Note_on_c, 12, 74, 76
14, 247424, Note_on_c, 12, 74, 0
14, 247440, Note_on_c, 12, 76, 76
14, 247504, Note_on_c, 12, 76, 0
14, 247520, Note_on_c, 12, 76, 76
14, 247584, Note_on_c, 12, 76, 0
14, 247600, Note_on_c, 12, 76, 76
14, 247664, Note_on_c, 12, 76, 0
14, 247680, Note_on_c, 12, 72, 76
14, 247744, Note_on_c, 12, 72, 0
14, 247760, Note_on_c, 12, 72, 76
14, 247824, Note_on_c, 12, 72, 0
14, 247840, Note_on_c, 12, 72, 76
14, 247904, Note_on_c, 12, 72, 0
14, 247920, Note_on_c, 12, 60, 76
14, 247984, Note_on_c, 12, 60, 0
14, 248000, Note_on_c, 12, 60, 76
14, 248064, Note_on_c, 12, 60, 0
14, 248080, Note_on_c, 12, 60, 76
14, 248144, Note_on_c, 12, 60, 0
14, 248160, Note_on_c, 12, 72, 76
14, 248224, Note_on_c, 12, 72, 0
14, 248240, Note_on_c, 12, 72, 76
14, 248304, Note_on_c, 12, 72, 0
14, 248320, Note_on_c, 12, 72, 76
14, 248384, Note_on_c, 12, 72, 0
14, 248400, Note_on_c, 12, 74, 76
14, 248464, Note_on_c, 12, 74, 0
14, 248480, Note_on_c, 12, 74, 76
14, 248544, Note_on_c, 12, 74, 0
14, 248560, Note_on_c, 12, 74, 76
14, 248624, Note_on_c, 12, 74, 0
14, 248640, Note_on_c, 12, 70, 76
14, 248704, Note_on_c, 12, 70, 0
14, 248720, Note_on_c, 12, 70, 76
14, 248784, Note_on_c, 12, 70, 0
14, 248800, Note_on_c, 12, 70, 76
14, 248864, Note_on_c, 12, 70, 0
14, 248880, Note_on_c, 12, 58, 76
14, 248944, Note_on_c, 12, 58, 0
14, 248960, Note_on_c, 12, 58, 76
14, 249024, Note_on_c, 12, 58, 0
14, 249040, Note_on_c, 12, 58, 76
14, 249104, Note_on_c, 12, 58, 0
14, 249120, Note_on_c, 12, 70, 76
14, 249184, Note_on_c, 12, 70, 0
14, 249200, Note_on_c, 12, 70, 76
14, 249264, Note_on_c, 12, 70, 0
14, 249280, Note_on_c, 12, 70, 76
14, 249344, Note_on_c, 12, 70, 0
14, 249360, Note_on_c, 12, 72, 76
14, 249424, Note_on_c, 12, 72, 0
14, 249440, Note_on_c, 12, 72, 76
14, 249504, Note_on_c, 12, 72, 0
14, 249520, Note_on_c, 12, 72, 76
14, 249584, Note_on_c, 12, 72, 0
14, 249600, Note_on_c, 12, 70, 80
14, 249600, Note_on_c, 12, 79, 80
14, 249664, Note_on_c, 12, 70, 0
14, 249664, Note_on_c, 12, 79, 0
14, 249680, Note_on_c, 12, 70, 80
14, 249680, Note_on_c, 12, 79, 80
14, 249744, Note_on_c, 12, 70, 0
14, 249744, Note_on_c, 12, 79, 0
14, 249760, Note_on_c, 12, 70, 80
14, 249760, Note_on_c, 12, 79, 80
14, 249824, Note_on_c, 12, 70, 0
14, 249824, Note_on_c, 12, 79, 0
14, 249840, Note_on_c, 12, 70, 80
14, 249840, Note_on_c, 12, 79, 80
14, 249904, Note_on_c, 12, 70, 0
14, 249904, Note_on_c, 12, 79, 0
14, 249920, Note_on_c, 12, 79, 80
14, 249920, Note_on_c, 12, 70, 80
14, 249984, Note_on_c, 12, 79, 0
14, 249984, Note_on_c, 12, 70, 0
14, 250000, Note_on_c, 12, 70, 80
14, 250000, Note_on_c, 12, 79, 80
14, 250064, Note_on_c, 12, 70, 0
14, 250064, Note_on_c, 12, 79, 0
14, 250080, Note_on_c, 12, 70, 80
14, 250080, Note_on_c, 12, 79, 80
14, 250144, Note_on_c, 12, 70, 0
14, 250144, Note_on_c, 12, 79, 0
14, 250160, Note_on_c, 12, 79, 80
14, 250160, Note_on_c, 12, 70, 80
14, 250224, Note_on_c, 12, 79, 0
14, 250224, Note_on_c, 12, 70, 0
14, 250240, Note_on_c, 12, 79, 80
14, 250240, Note_on_c, 12, 70, 80
14, 250304, Note_on_c, 12, 79, 0
14, 250304, Note_on_c, 12, 70, 0
14, 250320, Note_on_c, 12, 70, 80
14, 250320, Note_on_c, 12, 79, 80
14, 250384, Note_on_c, 12, 70, 0
14, 250384, Note_on_c, 12, 79, 0
14, 250400, Note_on_c, 12, 79, 80
14, 250400, Note_on_c, 12, 70, 80
14, 250464, Note_on_c, 12, 79, 0
14, 250464, Note_on_c, 12, 70, 0
14, 250480, Note_on_c, 12, 70, 80
14, 250480, Note_on_c, 12, 79, 80
14, 250544, Note_on_c, 12, 70, 0
14, 250544, Note_on_c, 12, 79, 0
14, 250560, Note_on_c, 12, 70, 80
14, 250560, Note_on_c, 12, 79, 80
14, 250624, Note_on_c, 12, 70, 0
14, 250624, Note_on_c, 12, 79, 0
14, 250640, Note_on_c, 12, 79, 80
14, 250640, Note_on_c, 12, 70, 80
14, 250704, Note_on_c, 12, 79, 0
14, 250704, Note_on_c, 12, 70, 0
14, 250720, Note_on_c, 12, 79, 80
14, 250720, Note_on_c, 12, 70, 80
14, 250784, Note_on_c, 12, 79, 0
14, 250784, Note_on_c, 12, 70, 0
14, 250800, Note_on_c, 12, 70, 80
14, 250800, Note_on_c, 12, 79, 80
14, 250864, Note_on_c, 12, 70, 0
14, 250864, Note_on_c, 12, 79, 0
14, 250880, Note_on_c, 12, 70, 80
14, 250880, Note_on_c, 12, 79, 80
14, 250944, Note_on_c, 12, 70, 0
14, 250944, Note_on_c, 12, 79, 0
14, 250960, Note_on_c, 12, 79, 80
14, 250960, Note_on_c, 12, 70, 80
14, 251024, Note_on_c, 12, 79, 0
14, 251024, Note_on_c, 12, 70, 0
14, 251040, Note_on_c, 12, 70, 80
14, 251040, Note_on_c, 12, 79, 80
14, 251104, Note_on_c, 12, 70, 0
14, 251104, Note_on_c, 12, 79, 0
14, 251120, Note_on_c, 12, 79, 80
14, 251120, Note_on_c, 12, 70, 80
14, 251184, Note_on_c, 12, 79, 0
14, 251184, Note_on_c, 12, 70, 0
14, 251200, Note_on_c, 12, 79, 80
14, 251200, Note_on_c, 12, 70, 80
14, 251264, Note_on_c, 12, 79, 0
14, 251264, Note_on_c, 12, 70, 0
14, 251280, Note_on_c, 12, 79, 80
14, 251280, Note_on_c, 12, 70, 80
14, 251344, Note_on_c, 12, 79, 0
14, 251344, Note_on_c, 12, 70, 0
14, 251360, Note_on_c, 12, 79, 80
14, 251360, Note_on_c, 12, 70, 80
14, 251424, Note_on_c, 12, 79, 0
14, 251424, Note_on_c, 12, 70, 0
14, 251440, Note_on_c, 12, 79, 80
14, 251440, Note_on_c, 12, 70, 80
14, 251504, Note_on_c, 12, 79, 0
14, 251504, Note_on_c, 12, 70, 0
14, 251520, Note_on_c, 12, 69, 80
14, 251520, Note_on_c, 12, 77, 80
14, 251584, Note_on_c, 12, 69, 0
14, 251584, Note_on_c, 12, 77, 0
14, 251600, Note_on_c, 12, 69, 80
14, 251600, Note_on_c, 12, 77, 80
14, 251664, Note_on_c, 12, 69, 0
14, 251664, Note_on_c, 12, 77, 0
14, 251680, Note_on_c, 12, 69, 80
14, 251680, Note_on_c, 12, 77, 80
14, 251744, Note_on_c, 12, 69, 0
14, 251744, Note_on_c, 12, 77, 0
14, 251760, Note_on_c, 12, 69, 80
14, 251760, Note_on_c, 12, 77, 80
14, 251824, Note_on_c, 12, 69, 0
14, 251824, Note_on_c, 12, 77, 0
14, 251840, Note_on_c, 12, 69, 80
14, 251840, Note_on_c, 12, 77, 80
14, 251904, Note_on_c, 12, 69, 0
14, 251904, Note_on_c, 12, 77, 0
14, 251920, Note_on_c, 12, 69, 80
14, 251920, Note_on_c, 12, 77, 80
14, 251984, Note_on_c, 12, 69, 0
14, 251984, Note_on_c, 12, 77, 0
14, 252000, Note_on_c, 12, 77, 80
14, 252000, Note_on_c, 12, 69, 80
14, 252064, Note_on_c, 12, 77, 0
14, 252064, Note_on_c, 12, 69, 0
14, 252080, Note_on_c, 12, 77, 80
14, 252080, Note_on_c, 12, 69, 80
14, 252144, Note_on_c, 12, 77, 0
14, 252144, Note_on_c, 12, 69, 0
14, 252160, Note_on_c, 12, 77, 80
14, 252160, Note_on_c, 12, 69, 80
14, 252224, Note_on_c, 12, 77, 0
14, 252224, Note_on_c, 12, 69, 0
14, 252240, Note_on_c, 12, 77, 80
14, 252240, Note_on_c, 12, 69, 80
14, 252304, Note_on_c, 12, 77, 0
14, 252304, Note_on_c, 12, 69, 0
14, 252320, Note_on_c, 12, 69, 80
14, 252320, Note_on_c, 12, 77, 80
14, 252384, Note_on_c, 12, 69, 0
14, 252384, Note_on_c, 12, 77, 0
14, 252400, Note_on_c, 12, 77, 80
14, 252400, Note_on_c, 12, 69, 80
14, 252464, Note_on_c, 12, 77, 0
14, 252464, Note_on_c, 12, 69, 0
14, 252480, Note_on_c, 12, 69, 80
14, 252480, Note_on_c, 12, 77, 80
14, 252544, Note_on_c, 12, 69, 0
14, 252544, Note_on_c, 12, 77, 0
14, 252560, Note_on_c, 12, 69, 80
14, 252560, Note_on_c, 12, 77, 80
14, 252624, Note_on_c, 12, 69, 0
14, 252624, Note_on_c, 12, 77, 0
14, 252640, Note_on_c, 12, 69, 80
14, 252640, Note_on_c, 12, 77, 80
14, 252704, Note_on_c, 12, 69, 0
14, 252704, Note_on_c, 12, 77, 0
14, 252720, Note_on_c, 12, 77, 80
14, 252720, Note_on_c, 12, 69, 80
14, 252784, Note_on_c, 12, 77, 0
14, 252784, Note_on_c, 12, 69, 0
14, 252800, Note_on_c, 12, 69, 80
14, 252800, Note_on_c, 12, 77, 80
14, 252864, Note_on_c, 12, 69, 0
14, 252864, Note_on_c, 12, 77, 0
14, 252880, Note_on_c, 12, 77, 80
14, 252880, Note_on_c, 12, 69, 80
14, 252944, Note_on_c, 12, 77, 0
14, 252944, Note_on_c, 12, 69, 0
14, 252960, Note_on_c, 12, 69, 80
14, 252960, Note_on_c, 12, 77, 80
14, 253024, Note_on_c, 12, 69, 0
14, 253024, Note_on_c, 12, 77, 0
14, 253040, Note_on_c, 12, 77, 80
14, 253040, Note_on_c, 12, 69, 80
14, 253104, Note_on_c, 12, 77, 0
14, 253104, Note_on_c, 12, 69, 0
14, 253120, Note_on_c, 12, 77, 80
14, 253120, Note_on_c, 12, 69, 80
14, 253184, Note_on_c, 12, 77, 0
14, 253184, Note_on_c, 12, 69, 0
14, 253200, Note_on_c, 12, 69, 80
14, 253200, Note_on_c, 12, 77, 80
14, 253264, Note_on_c, 12, 69, 0
14, 253264, Note_on_c, 12, 77, 0
14, 253280, Note_on_c, 12, 77, 80
14, 253280, Note_on_c, 12, 69, 80
14, 253344, Note_on_c, 12, 77, 0
14, 253344, Note_on_c, 12, 69, 0
14, 253360, Note_on_c, 12, 77, 80
14, 253360, Note_on_c, 12, 69, 80
14, 253424, Note_on_c, 12, 77, 0
14, 253424, Note_on_c, 12, 69, 0
14, 253440, Note_on_c, 12, 77, 84
14, 253440, Note_on_c, 12, 74, 84
14, 253504, Note_on_c, 12, 77, 0
14, 253504, Note_on_c, 12, 74, 0
14, 253520, Note_on_c, 12, 77, 84
14, 253520, Note_on_c, 12, 74, 84
14, 253584, Note_on_c, 12, 77, 0
14, 253584, Note_on_c, 12, 74, 0
14, 253600, Note_on_c, 12, 77, 84
14, 253600, Note_on_c, 12, 74, 84
14, 253664, Note_on_c, 12, 77, 0
14, 253664, Note_on_c, 12, 74, 0
14, 253680, Note_on_c, 12, 77, 84
14, 253680, Note_on_c, 12, 74, 84
14, 253744, Note_on_c, 12, 77, 0
14, 253744, Note_on_c, 12, 74, 0
14, 253760, Note_on_c, 12, 77, 84
14, 253760, Note_on_c, 12, 74, 84
14, 253824, Note_on_c, 12, 77, 0
14, 253824, Note_on_c, 12, 74, 0
14, 253840, Note_on_c, 12, 77, 84
14, 253840, Note_on_c, 12, 74, 84
14, 253904, Note_on_c, 12, 77, 0
14, 253904, Note_on_c, 12, 74, 0
14, 253920, Note_on_c, 12, 74, 84
14, 253920, Note_on_c, 12, 82, 84
14, 253984, Note_on_c, 12, 74, 0
14, 253984, Note_on_c, 12, 82, 0
14, 254000, Note_on_c, 12, 74, 84
14, 254000, Note_on_c, 12, 82, 84
14, 254064, Note_on_c, 12, 74, 0
14, 254064, Note_on_c, 12, 82, 0
14, 254080, Note_on_c, 12, 82, 84
14, 254080, Note_on_c, 12, 74, 84
14, 254144, Note_on_c, 12, 82, 0
14, 254144, Note_on_c, 12, 74, 0
14, 254160, Note_on_c, 12, 74, 84
14, 254160, Note_on_c, 12, 82, 84
14, 254224, Note_on_c, 12, 74, 0
14, 254224, Note_on_c, 12, 82, 0
14, 254240, Note_on_c, 12, 74, 84
14, 254240, Note_on_c, 12, 82, 84
14, 254304, Note_on_c, 12, 74, 0
14, 254304, Note_on_c, 12, 82, 0
14, 254320, Note_on_c, 12, 74, 84
14, 254320, Note_on_c, 12, 82, 84
14, 254384, Note_on_c, 12, 74, 0
14, 254384, Note_on_c, 12, 82, 0
14, 254400, Note_on_c, 12, 82, 84
14, 254400, Note_on_c, 12, 74, 84
14, 254464, Note_on_c, 12, 82, 0
14, 254464, Note_on_c, 12, 74, 0
14, 254480, Note_on_c, 12, 74, 84
14, 254480, Note_on_c, 12, 82, 84
14, 254544, Note_on_c, 12, 74, 0
14, 254544, Note_on_c, 12, 82, 0
14, 254560, Note_on_c, 12, 74, 84
14, 254560, Note_on_c, 12, 82, 84
14, 254624, Note_on_c, 12, 74, 0
14, 254624, Note_on_c, 12, 82, 0
14, 254640, Note_on_c, 12, 82, 84
14, 254640, Note_on_c, 12, 74, 84
14, 254704, Note_on_c, 12, 82, 0
14, 254704, Note_on_c, 12, 74, 0
14, 254720, Note_on_c, 12, 82, 84
14, 254720, Note_on_c, 12, 74, 84
14, 254784, Note_on_c, 12, 82, 0
14, 254784, Note_on_c, 12, 74, 0
14, 254800, Note_on_c, 12, 74, 84
14, 254800, Note_on_c, 12, 82, 84
14, 254864, Note_on_c, 12, 74, 0
14, 254864, Note_on_c, 12, 82, 0
14, 254880, Note_on_c, 12, 74, 84
14, 254880, Note_on_c, 12, 82, 84
14, 254944, Note_on_c, 12, 74, 0
14, 254944, Note_on_c, 12, 82, 0
14, 254960, Note_on_c, 12, 74, 84
14, 254960, Note_on_c, 12, 82, 84
14, 255024, Note_on_c, 12, 74, 0
14, 255024, Note_on_c, 12, 82, 0
14, 255040, Note_on_c, 12, 74, 84
14, 255040, Note_on_c, 12, 82, 84
14, 255104, Note_on_c, 12, 74, 0
14, 255104, Note_on_c, 12, 82, 0
14, 255120, Note_on_c, 12, 82, 84
14, 255120, Note_on_c, 12, 74, 84
14, 255184, Note_on_c, 12, 82, 0
14, 255184, Note_on_c, 12, 74, 0
14, 255200, Note_on_c, 12, 74, 84
14, 255200, Note_on_c, 12, 82, 84
14, 255264, Note_on_c, 12, 74, 0
14, 255264, Note_on_c, 12, 82, 0
14, 255280, Note_on_c, 12, 74, 84
14, 255280, Note_on_c, 12, 82, 84
14, 255344, Note_on_c, 12, 74, 0
14, 255344, Note_on_c, 12, 82, 0
14, 255360, Note_on_c, 12, 74, 84
14, 255360, Note_on_c, 12, 82, 84
14, 255599, Note_on_c, 12, 74, 0
14, 255599, Note_on_c, 12, 82, 0
14, 258720, Note_on_c, 12, 70, 52
14, 258784, Note_on_c, 12, 70, 0
14, 258800, Note_on_c, 12, 70, 52
14, 258864, Note_on_c, 12, 70, 0
14, 258880, Note_on_c, 12, 70, 52
14, 258944, Note_on_c, 12, 70, 0
14, 258960, Note_on_c, 12, 70, 52
14, 259024, Note_on_c, 12, 70, 0
14, 259040, Note_on_c, 12, 70, 52
14, 259104, Note_on_c, 12, 70, 0
14, 259120, Note_on_c, 12, 70, 52
14, 259184, Note_on_c, 12, 70, 0
14, 259200, Note_on_c, 12, 70, 52
14, 259439, Note_on_c, 12, 70, 0
14, 262560, Note_on_c, 12, 70, 44
14, 262624, Note_on_c, 12, 70, 0
14, 262640, Note_on_c, 12, 70, 44
14, 262704, Note_on_c, 12, 70, 0
14, 262720, Note_on_c, 12, 70, 44
14, 262784, Note_on_c, 12, 70, 0
14, 262800, Note_on_c, 12, 70, 44
14, 262864, Note_on_c, 12, 70, 0
14, 262880, Note_on_c, 12, 70, 44
14, 262944, Note_on_c, 12, 70, 0
14, 262960, Note_on_c, 12, 70, 44
14, 263024, Note_on_c, 12, 70, 0
14, 263040, Note_on_c, 12, 70, 44
14, 263159, Note_on_c, 12, 70, 0
14, 263160, Note_on_c, 12, 72, 44
14, 263259, Note_on_c, 12, 72, 0
14, 263280, Note_on_c, 12, 65, 44
14, 263439, Note_on_c, 12, 65, 0
14, 263520, Note_on_c, 12, 70, 44
14, 263639, Note_on_c, 12, 70, 0
14, 263640, Note_on_c, 12, 72, 44
14, 263739, Note_on_c, 12, 72, 0
14, 263760, Note_on_c, 12, 65, 44
14, 263919, Note_on_c, 12, 65, 0
14, 264000, Note_on_c, 12, 70, 44
14, 264119, Note_on_c, 12, 70, 0
14, 264120, Note_on_c, 12, 72, 44
14, 264219, Note_on_c, 12, 72, 0
14, 264240, Note_on_c, 12, 65, 44
14, 264399, Note_on_c, 12, 65, 0
14, 264480, Note_on_c, 12, 72, 44
14, 264544, Note_on_c, 12, 72, 0
14, 264560, Note_on_c, 12, 72, 44
14, 264624, Note_on_c, 12, 72, 0
14, 264640, Note_on_c, 12, 72, 44
14, 264704, Note_on_c, 12, 72, 0
14, 264720, Note_on_c, 12, 72, 44
14, 264784, Note_on_c, 12, 72, 0
14, 264800, Note_on_c, 12, 72, 44
14, 264864, Note_on_c, 12, 72, 0
14, 264880, Note_on_c, 12, 72, 44
14, 264944, Note_on_c, 12, 72, 0
14, 264960, Note_on_c, 12, 72, 44
14, 265079, Note_on_c, 12, 72, 0
14, 265080, Note_on_c, 12, 74, 44
14, 265179, Note_on_c, 12, 74, 0
14, 265200, Note_on_c, 12, 70, 44
14, 265359, Note_on_c, 12, 70, 0
14, 265440, Note_on_c, 12, 72, 44
14, 265559, Note_on_c, 12, 72, 0
14, 265560, Note_on_c, 12, 74, 44
14, 265659, Note_on_c, 12, 74, 0
14, 265680, Note_on_c, 12, 70, 44
14, 265839, Note_on_c, 12, 70, 0
14, 265920, Note_on_c, 12, 72, 44
14, 266039, Note_on_c, 12, 72, 0
14, 266040, Note_on_c, 12, 74, 44
14, 266139, Note_on_c, 12, 74, 0
14, 266160, Note_on_c, 12, 70, 44
14, 266319, Note_on_c, 12, 70, 0
14, 266400, Note_on_c, 12, 77, 44
14, 266464, Note_on_c, 12, 77, 0
14, 266480, Note_on_c, 12, 77, 44
14, 266544, Note_on_c, 12, 77, 0
14, 266560, Note_on_c, 12, 77, 44
14, 266624, Note_on_c, 12, 77, 0
14, 266640, Note_on_c, 12, 77, 44
14, 266704, Note_on_c, 12, 77, 0
14, 266720, Note_on_c, 12, 77, 44
14, 266784, Note_on_c, 12, 77, 0
14, 266800, Note_on_c, 12, 77, 44
14, 266864, Note_on_c, 12, 77, 0
14, 266880, Note_on_c, 12, 77, 44
14, 266999, Note_on_c, 12, 77, 0
14, 267000, Note_on_c, 12, 79, 44
14, 267099, Note_on_c, 12, 79, 0
14, 267120, Note_on_c, 12, 75, 44
14, 267279, Note_on_c, 12, 75, 0
14, 267360, Note_on_c, 12, 79, 44
14, 267424, Note_on_c, 12, 79, 0
14, 267440, Note_on_c, 12, 79, 44
14, 267504, Note_on_c, 12, 79, 0
14, 267520, Note_on_c, 12, 79, 44
14, 267584, Note_on_c, 12, 79, 0
14, 267600, Note_on_c, 12, 79, 44
14, 267664, Note_on_c, 12, 79, 0
14, 267680, Note_on_c, 12, 79, 44
14, 267744, Note_on_c, 12, 79, 0
14, 267760, Note_on_c, 12, 79, 44
14, 267824, Note_on_c, 12, 79, 0
14, 267840, Note_on_c, 12, 79, 44
14, 267959, Note_on_c, 12, 79, 0
14, 267960, Note_on_c, 12, 80, 44
14, 268059, Note_on_c, 12, 80, 0
14, 268080, Note_on_c, 12, 77, 44
14, 268239, Note_on_c, 12, 77, 0
14, 269280, Note_on_c, 12, 69, 44
14, 269344, Note_on_c, 12, 69, 0
14, 269360, Note_on_c, 12, 69, 44
14, 269424, Note_on_c, 12, 69, 0
14, 269440, Note_on_c, 12, 69, 44
14, 269504, Note_on_c, 12, 69, 0
14, 269520, Note_on_c, 12, 69, 44
14, 269584, Note_on_c, 12, 69, 0
14, 269600, Note_on_c, 12, 69, 44
14, 269664, Note_on_c, 12, 69, 0
14, 269680, Note_on_c, 12, 69, 44
14, 269744, Note_on_c, 12, 69, 0
14, 269760, Note_on_c, 12, 69, 44
14, 269879, Note_on_c, 12, 69, 0
14, 269880, Note_on_c, 12, 70, 44
14, 269979, Note_on_c, 12, 70, 0
14, 270000, Note_on_c, 12, 67, 44
14, 270159, Note_on_c, 12, 67, 0
14, 271200, Note_on_c, 12, 69, 44
14, 272159, Note_on_c, 12, 69, 0
14, 272160, Note_on_c, 12, 67, 44
14, 272639, Note_on_c, 12, 67, 0
14, 272640, Note_on_c, 12, 65, 44
14, 273119, Note_on_c, 12, 65, 0
14, 273120, Note_on_c, 12, 64, 44
14, 273599, Note_on_c, 12, 64, 0
14, 273600, Note_on_c, 12, 62, 44
14, 274079, Note_on_c, 12, 62, 0
14, 274080, Note_on_c, 12, 64, 44
14, 274559, Note_on_c, 12, 64, 0
14, 274560, Note_on_c, 12, 57, 44
14, 274799, Note_on_c, 12, 57, 0
14, 278880, Note_on_c, 12, 69, 44
14, 279839, Note_on_c, 12, 69, 0
14, 279840, Note_on_c, 12, 67, 44
14, 280319, Note_on_c, 12, 67, 0
14, 280320, Note_on_c, 12, 65, 44
14, 280799, Note_on_c, 12, 65, 0
14, 280800, Note_on_c, 12, 64, 44
14, 281279, Note_on_c, 12, 64, 0
14, 281280, Note_on_c, 12, 62, 44
14, 281759, Note_on_c, 12, 62, 0
14, 281760, Note_on_c, 12, 64, 44
14, 282239, Note_on_c, 12, 64, 0
14, 282240, Note_on_c, 12, 65, 44
14, 282479, Note_on_c, 12, 65, 0
14, 286560, Note_on_c, 12, 65, 44
14, 286624, Note_on_c, 12, 65, 0
14, 286640, Note_on_c, 12, 65, 44
14, 286704, Note_on_c, 12, 65, 0
14, 286720, Note_on_c, 12, 65, 44
14, 286784, Note_on_c, 12, 65, 0
14, 286800, Note_on_c, 12, 65, 44
14, 286864, Note_on_c, 12, 65, 0
14, 286880, Note_on_c, 12, 65, 44
14, 286944, Note_on_c, 12, 65, 0
14, 286960, Note_on_c, 12, 65, 44
14, 287024, Note_on_c, 12, 65, 0
14, 287040, Note_on_c, 12, 65, 44
14, 287279, Note_on_c, 12, 65, 0
14, 289440, Note_on_c, 12, 65, 44
14, 289504, Note_on_c, 12, 65, 0
14, 289520, Note_on_c, 12, 65, 44
14, 289584, Note_on_c, 12, 65, 0
14, 289600, Note_on_c, 12, 65, 44
14, 289664, Note_on_c, 12, 65, 0
14, 289680, Note_on_c, 12, 65, 44
14, 289744, Note_on_c, 12, 65, 0
14, 289760, Note_on_c, 12, 65, 44
14, 289824, Note_on_c, 12, 65, 0
14, 289840, Note_on_c, 12, 65, 44
14, 289904, Note_on_c, 12, 65, 0
14, 289920, Note_on_c, 12, 59, 44
14, 290159, Note_on_c, 12, 59, 0
14, 290400, Note_on_c, 12, 67, 44
14, 290464, Note_on_c, 12, 67, 0
14, 290480, Note_on_c, 12, 67, 44
14, 290544, Note_on_c, 12, 67, 0
14, 290560, Note_on_c, 12, 67, 44
14, 290624, Note_on_c, 12, 67, 0
14, 290640, Note_on_c, 12, 67, 44
14, 290704, Note_on_c, 12, 67, 0
14, 290720, Note_on_c, 12, 67, 44
14, 290784, Note_on_c, 12, 67, 0
14, 290800, Note_on_c, 12, 67, 44
14, 290864, Note_on_c, 12, 67, 0
14, 290880, Note_on_c, 12, 67, 44
14, 291119, Note_on_c, 12, 67, 0
14, 293280, Note_on_c, 12, 67, 44
14, 293344, Note_on_c, 12, 67, 0
14, 293360, Note_on_c, 12, 67, 44
14, 293424, Note_on_c, 12, 67, 0
14, 293440, Note_on_c, 12, 67, 44
14, 293504, Note_on_c, 12, 67, 0
14, 293520, Note_on_c, 12, 67, 44
14, 293584, Note_on_c, 12, 67, 0
14, 293600, Note_on_c, 12, 67, 44
14, 293664, Note_on_c, 12, 67, 0
14, 293680, Note_on_c, 12, 67, 44
14, 293744, Note_on_c, 12, 67, 0
14, 293760, Note_on_c, 12, 61, 44
14, 293999, Note_on_c, 12, 61, 0
14, 294240, Note_on_c, 12, 73, 44
14, 294304, Note_on_c, 12, 73, 0
14, 294320, Note_on_c, 12, 73, 44
14, 294384, Note_on_c, 12, 73, 0
14, 294400, Note_on_c, 12, 73, 44
14, 294464, Note_on_c, 12, 73, 0
14, 294480, Note_on_c, 12, 73, 45
14, 294544, Note_on_c, 12, 73, 0
14, 294560, Note_on_c, 12, 73, 45
14, 294624, Note_on_c, 12, 73, 0
14, 294640, Note_on_c, 12, 73, 45
14, 294704, Note_on_c, 12, 73, 0
14, 294720, Note_on_c, 12, 74, 46
14, 294959, Note_on_c, 12, 74, 0
14, 295200, Note_on_c, 12, 76, 48
14, 295264, Note_on_c, 12, 76, 0
14, 295280, Note_on_c, 12, 76, 48
14, 295344, Note_on_c, 12, 76, 0
14, 295360, Note_on_c, 12, 76, 48
14, 295424, Note_on_c, 12, 76, 0
14, 295440, Note_on_c, 12, 76, 49
14, 295504, Note_on_c, 12, 76, 0
14, 295520, Note_on_c, 12, 76, 49
14, 295584, Note_on_c, 12, 76, 0
14, 295600, Note_on_c, 12, 76, 50
14, 295664, Note_on_c, 12, 76, 0
14, 295680, Note_on_c, 12, 69, 50
14, 295919, Note_on_c, 12, 69, 0
14, 298080, Note_on_c, 12, 71, 61
14, 298144, Note_on_c, 12, 71, 0
14, 298160, Note_on_c, 12, 71, 61
14, 298224, Note_on_c, 12, 71, 0
14, 298240, Note_on_c, 12, 71, 61
14, 298304, Note_on_c, 12, 71, 0
14, 298320, Note_on_c, 12, 71, 62
14, 298384, Note_on_c, 12, 71, 0
14, 298400, Note_on_c, 12, 71, 62
14, 298464, Note_on_c, 12, 71, 0
14, 298480, Note_on_c, 12, 71, 62
14, 298544, Note_on_c, 12, 71, 0
14, 298560, Note_on_c, 12, 72, 63
14, 298799, Note_on_c, 12, 72, 0
14, 299040, Note_on_c, 12, 74, 65
14, 299104, Note_on_c, 12, 74, 0
14, 299120, Note_on_c, 12, 74, 65
14, 299184, Note_on_c, 12, 74, 0
14, 299200, Note_on_c, 12, 74, 66
14, 299264, Note_on_c, 12, 74, 0
14, 299280, Note_on_c, 12, 74, 66
14, 299344, Note_on_c, 12, 74, 0
14, 299360, Note_on_c, 12, 74, 66
14, 299424, Note_on_c, 12, 74, 0
14, 299440, Note_on_c, 12, 74, 67
14, 299504, Note_on_c, 12, 74, 0
14, 299520, Note_on_c, 12, 67, 67
14, 299759, Note_on_c, 12, 67, 0
14, 301920, Note_on_c, 12, 72, 76
14, 302319, Note_on_c, 12, 72, 0
14, 302400, Note_on_c, 12, 73, 76
14, 302799, Note_on_c, 12, 73, 0
14, 302880, Note_on_c, 12, 72, 76
14, 303279, Note_on_c, 12, 72, 0
14, 303360, Note_on_c, 12, 73, 76
14, 303759, Note_on_c, 12, 73, 0
14, 303840, Note_on_c, 12, 75, 76
14, 304239, Note_on_c, 12, 75, 0
14, 304320, Note_on_c, 12, 77, 76
14, 304719, Note_on_c, 12, 77, 0
14, 304800, Note_on_c, 12, 77, 76
14, 305199, Note_on_c, 12, 77, 0
14, 305280, Note_on_c, 12, 79, 76
14, 305679, Note_on_c, 12, 79, 0
14, 305760, Note_on_c, 12, 70, 76
14, 306159, Note_on_c, 12, 70, 0
14, 306240, Note_on_c, 12, 71, 76
14, 306639, Note_on_c, 12, 71, 0
14, 306720, Note_on_c, 12, 70, 76
14, 307119, Note_on_c, 12, 70, 0
14, 307200, Note_on_c, 12, 72, 76
14, 307599, Note_on_c, 12, 72, 0
14, 307680, Note_on_c, 12, 73, 76
14, 308079, Note_on_c, 12, 73, 0
14, 308160, Note_on_c, 12, 75, 76
14, 308559, Note_on_c, 12, 75, 0
14, 308640, Note_on_c, 12, 75, 76
14, 309039, Note_on_c, 12, 75, 0
14, 309120, Note_on_c, 12, 73, 76
14, 309519, Note_on_c, 12, 73, 0
14, 309600, Note_on_c, 12, 82, 76
14, 310539, Note_on_c, 12, 82, 0
14, 310560, Note_on_c, 12, 80, 76
14, 310959, Note_on_c, 12, 80, 0
14, 311040, Note_on_c, 12, 79, 76
14, 311439, Note_on_c, 12, 79, 0
14, 311520, Note_on_c, 12, 77, 76
14, 311919, Note_on_c, 12, 77, 0
14, 312000, Note_on_c, 12, 76, 76
14, 312399, Note_on_c, 12, 76, 0
14, 312480, Note_on_c, 12, 74, 76
14, 312879, Note_on_c, 12, 74, 0
14, 312960, Note_on_c, 12, 72, 76
14, 313359, Note_on_c, 12, 72, 0
14, 313440, Note_on_c, 12, 80, 76
14, 314379, Note_on_c, 12, 80, 0
14, 314400, Note_on_c, 12, 79, 76
14, 314799, Note_on_c, 12, 79, 0
14, 314880, Note_on_c, 12, 72, 76
14, 315279, Note_on_c, 12, 72, 0
14, 315360, Note_on_c, 12, 70, 76
14, 315759, Note_on_c, 12, 70, 0
14, 315840, Note_on_c, 12, 68, 76
14, 316239, Note_on_c, 12, 68, 0
14, 316320, Note_on_c, 12, 72, 76
14, 316719, Note_on_c, 12, 72, 0
14, 316800, Note_on_c, 12, 65, 76
14, 317199, Note_on_c, 12, 65, 0
14, 317280, Note_on_c, 12, 65, 76
14, 317679, Note_on_c, 12, 65, 0
14, 317760, Note_on_c, 12, 67, 76
14, 318159, Note_on_c, 12, 67, 0
14, 318240, Note_on_c, 12, 68, 76
14, 318639, Note_on_c, 12, 68, 0
14, 318720, Note_on_c, 12, 70, 76
14, 319119, Note_on_c, 12, 70, 0
14, 319200, Note_on_c, 12, 70, 76
14, 319599, Note_on_c, 12, 70, 0
14, 319680, Note_on_c, 12, 70, 76
14, 320079, Note_on_c, 12, 70, 0
14, 320160, Note_on_c, 12, 71, 76
14, 320559, Note_on_c, 12, 71, 0
14, 320640, Note_on_c, 12, 69, 76
14, 321039, Note_on_c, 12, 69, 0
14, 321120, Note_on_c, 12, 64, 76
14, 321519, Note_on_c, 12, 64, 0
14, 321600, Note_on_c, 12, 65, 76
14, 321999, Note_on_c, 12, 65, 0
14, 322080, Note_on_c, 12, 67, 76
14, 322479, Note_on_c, 12, 67, 0
14, 322560, Note_on_c, 12, 69, 76
14, 322779, Note_on_c, 12, 69, 0
14, 322800, Note_on_c, 12, 67, 76
14, 323019, Note_on_c, 12, 67, 0
14, 323040, Note_on_c, 12, 69, 76
14, 323259, Note_on_c, 12, 69, 0
14, 323280, Note_on_c, 12, 69, 76
14, 323499, Note_on_c, 12, 69, 0
14, 323520, Note_on_c, 12, 67, 76
14, 323739, Note_on_c, 12, 67, 0
14, 323760, Note_on_c, 12, 62, 76
14, 323979, Note_on_c, 12, 62, 0
14, 324000, Note_on_c, 12, 67, 76
14, 324219, Note_on_c, 12, 67, 0
14, 324240, Note_on_c, 12, 65, 76
14, 324459, Note_on_c, 12, 65, 0
14, 324480, Note_on_c, 12, 67, 76
14, 324699, Note_on_c, 12, 67, 0
14, 324720, Note_on_c, 12, 65, 76
14, 324939, Note_on_c, 12, 65, 0
14, 324960, Note_on_c, 12, 67, 76
14, 325179, Note_on_c, 12, 67, 0
14, 325200, Note_on_c, 12, 60, 76
14, 325419, Note_on_c, 12, 60, 0
14, 325440, Note_on_c, 12, 60, 76
14, 325659, Note_on_c, 12, 60, 0
14, 325680, Note_on_c, 12, 60, 76
14, 325899, Note_on_c, 12, 60, 0
14, 325920, Note_on_c, 12, 62, 76
14, 326139, Note_on_c, 12, 62, 0
14, 326160, Note_on_c, 12, 69, 76
14, 326379, Note_on_c, 12, 69, 0
14, 326400, Note_on_c, 12, 70, 76
14, 326619, Note_on_c, 12, 70, 0
14, 326640, Note_on_c, 12, 62, 76
14, 326859, Note_on_c, 12, 62, 0
14, 326880, Note_on_c, 12, 64, 76
14, 327099, Note_on_c, 12, 64, 0
14, 327120, Note_on_c, 12, 65, 76
14, 327339, Note_on_c, 12, 65, 0
14, 327360, Note_on_c, 12, 67, 76
14, 327579, Note_on_c, 12, 67, 0
14, 327600, Note_on_c, 12, 68, 76
14, 327819, Note_on_c, 12, 68, 0
14, 327840, Note_on_c, 12, 69, 76
14, 328059, Note_on_c, 12, 69, 0
14, 328080, Note_on_c, 12, 69, 76
14, 328299, Note_on_c, 12, 69, 0
14, 328320, Note_on_c, 12, 69, 76
14, 328384, Note_on_c, 12, 69, 0
14, 328400, Note_on_c, 12, 69, 76
14, 328464, Note_on_c, 12, 69, 0
14, 328480, Note_on_c, 12, 69, 76
14, 328544, Note_on_c, 12, 69, 0
14, 328560, Note_on_c, 12, 69, 76
14, 328624, Note_on_c, 12, 69, 0
14, 328640, Note_on_c, 12, 69, 76
14, 328704, Note_on_c, 12, 69, 0
14, 328720, Note_on_c, 12, 69, 76
14, 328784, Note_on_c, 12, 69, 0
14, 328800, Note_on_c, 12, 69, 76
14, 328864, Note_on_c, 12, 69, 0
14, 328880, Note_on_c, 12, 69, 76
14, 328944, Note_on_c, 12, 69, 0
14, 328960, Note_on_c, 12, 69, 76
14, 329024, Note_on_c, 12, 69, 0
14, 329040, Note_on_c, 12, 69, 76
14, 329104, Note_on_c, 12, 69, 0
14, 329120, Note_on_c, 12, 69, 76
14, 329184, Note_on_c, 12, 69, 0
14, 329200, Note_on_c, 12, 69, 76
14, 329264, Note_on_c, 12, 69, 0
14, 329280, Note_on_c, 12, 69, 76
14, 329344, Note_on_c, 12, 69, 0
14, 329360, Note_on_c, 12, 69, 76
14, 329424, Note_on_c, 12, 69, 0
14, 329440, Note_on_c, 12, 69, 76
14, 329504, Note_on_c, 12, 69, 0
14, 329520, Note_on_c, 12, 69, 76
14, 329584, Note_on_c, 12, 69, 0
14, 329600, Note_on_c, 12, 69, 76
14, 329664, Note_on_c, 12, 69, 0
14, 329680, Note_on_c, 12, 69, 76
14, 329744, Note_on_c, 12, 69, 0
14, 329760, Note_on_c, 12, 69, 76
14, 329824, Note_on_c, 12, 69, 0
14, 329840, Note_on_c, 12, 69, 76
14, 329904, Note_on_c, 12, 69, 0
14, 329920, Note_on_c, 12, 69, 76
14, 329984, Note_on_c, 12, 69, 0
14, 330000, Note_on_c, 12, 69, 76
14, 330064, Note_on_c, 12, 69, 0
14, 330080, Note_on_c, 12, 69, 76
14, 330144, Note_on_c, 12, 69, 0
14, 330160, Note_on_c, 12, 69, 76
14, 330224, Note_on_c, 12, 69, 0
14, 330240, Note_on_c, 12, 69, 76
14, 330304, Note_on_c, 12, 69, 0
14, 330320, Note_on_c, 12, 69, 76
14, 330384, Note_on_c, 12, 69, 0
14, 330400, Note_on_c, 12, 69, 76
14, 330464, Note_on_c, 12, 69, 0
14, 330480, Note_on_c, 12, 69, 76
14, 330544, Note_on_c, 12, 69, 0
14, 330560, Note_on_c, 12, 69, 76
14, 330624, Note_on_c, 12, 69, 0
14, 330640, Note_on_c, 12, 69, 76
14, 330704, Note_on_c, 12, 69, 0
14, 330720, Note_on_c, 12, 69, 76
14, 330784, Note_on_c, 12, 69, 0
14, 330800, Note_on_c, 12, 69, 76
14, 330864, Note_on_c, 12, 69, 0
14, 330880, Note_on_c, 12, 69, 76
14, 330944, Note_on_c, 12, 69, 0
14, 330960, Note_on_c, 12, 69, 76
14, 331024, Note_on_c, 12, 69, 0
14, 331040, Note_on_c, 12, 69, 76
14, 331104, Note_on_c, 12, 69, 0
14, 331120, Note_on_c, 12, 69, 76
14, 331184, Note_on_c, 12, 69, 0
14, 331200, Note_on_c, 12, 69, 76
14, 331264, Note_on_c, 12, 69, 0
14, 331280, Note_on_c, 12, 69, 76
14, 331344, Note_on_c, 12, 69, 0
14, 331360, Note_on_c, 12, 69, 76
14, 331424, Note_on_c, 12, 69, 0
14, 331440, Note_on_c, 12, 69, 76
14, 331504, Note_on_c, 12, 69, 0
14, 331520, Note_on_c, 12, 69, 76
14, 331584, Note_on_c, 12, 69, 0
14, 331600, Note_on_c, 12, 69, 76
14, 331664, Note_on_c, 12, 69, 0
14, 331680, Note_on_c, 12, 74, 76
14, 331744, Note_on_c, 12, 74, 0
14, 331760, Note_on_c, 12, 74, 76
14, 331824, Note_on_c, 12, 74, 0
14, 331840, Note_on_c, 12, 74, 76
14, 331904, Note_on_c, 12, 74, 0
14, 331920, Note_on_c, 12, 74, 76
14, 331984, Note_on_c, 12, 74, 0
14, 332000, Note_on_c, 12, 74, 76
14, 332064, Note_on_c, 12, 74, 0
14, 332080, Note_on_c, 12, 74, 76
14, 332144, Note_on_c, 12, 74, 0
14, 332160, Note_on_c, 12, 74, 76
14, 332279, Note_on_c, 12, 74, 0
14, 332280, Note_on_c, 12, 76, 76
14, 332379, Note_on_c, 12, 76, 0
14, 332400, Note_on_c, 12, 69, 76
14, 332559, Note_on_c, 12, 69, 0
14, 332640, Note_on_c, 12, 74, 76
14, 332759, Note_on_c, 12, 74, 0
14, 332760, Note_on_c, 12, 76, 76
14, 332859, Note_on_c, 12, 76, 0
14, 332880, Note_on_c, 12, 69, 76
14, 333039, Note_on_c, 12, 69, 0
14, 333120, Note_on_c, 12, 74, 76
14, 333239, Note_on_c, 12, 74, 0
14, 333240, Note_on_c, 12, 76, 76
14, 333339, Note_on_c, 12, 76, 0
14, 333360, Note_on_c, 12, 69, 76
14, 333519, Note_on_c, 12, 69, 0
14, 333600, Note_on_c, 12, 76, 76
14, 333664, Note_on_c, 12, 76, 0
14, 333680, Note_on_c, 12, 76, 76
14, 333744, Note_on_c, 12, 76, 0
14, 333760, Note_on_c, 12, 76, 76
14, 333824, Note_on_c, 12, 76, 0
14, 333840, Note_on_c, 12, 76, 76
14, 333904, Note_on_c, 12, 76, 0
14, 333920, Note_on_c, 12, 76, 76
14, 333984, Note_on_c, 12, 76, 0
14, 334000, Note_on_c, 12, 76, 76
14, 334064, Note_on_c, 12, 76, 0
14, 334080, Note_on_c, 12, 76, 76
14, 334199, Note_on_c, 12, 76, 0
14, 334200, Note_on_c, 12, 78, 76
14, 334299, Note_on_c, 12, 78, 0
14, 334320, Note_on_c, 12, 74, 76
14, 334479, Note_on_c, 12, 74, 0
14, 334560, Note_on_c, 12, 76, 76
14, 334679, Note_on_c, 12, 76, 0
14, 334680, Note_on_c, 12, 78, 76
14, 334779, Note_on_c, 12, 78, 0
14, 334800, Note_on_c, 12, 74, 76
14, 334959, Note_on_c, 12, 74, 0
14, 335040, Note_on_c, 12, 76, 76
14, 335159, Note_on_c, 12, 76, 0
14, 335160, Note_on_c, 12, 78, 76
14, 335259, Note_on_c, 12, 78, 0
14, 335280, Note_on_c, 12, 74, 76
14, 335439, Note_on_c, 12, 74, 0
14, 335520, Note_on_c, 12, 57, 52
14, 335679, Note_on_c, 12, 57, 0
14, 335760, Note_on_c, 12, 69, 52
14, 335919, Note_on_c, 12, 69, 0
14, 336000, Note_on_c, 12, 57, 52
14, 336159, Note_on_c, 12, 57, 0
14, 336240, Note_on_c, 12, 69, 52
14, 336399, Note_on_c, 12, 69, 0
14, 336480, Note_on_c, 12, 57, 52
14, 336639, Note_on_c, 12, 57, 0
14, 336720, Note_on_c, 12, 69, 52
14, 336879, Note_on_c, 12, 69, 0
14, 336960, Note_on_c, 12, 57, 52
14, 337119, Note_on_c, 12, 57, 0
14, 337200, Note_on_c, 12, 69, 52
14, 337359, Note_on_c, 12, 69, 0
14, 341280, Note_on_c, 12, 65, 44
14, 341344, Note_on_c, 12, 65, 0
14, 341360, Note_on_c, 12, 65, 44
14, 341424, Note_on_c, 12, 65, 0
14, 341440, Note_on_c, 12, 65, 44
14, 341504, Note_on_c, 12, 65, 0
14, 341520, Note_on_c, 12, 65, 44
14, 341584, Note_on_c, 12, 65, 0
14, 341600, Note_on_c, 12, 65, 44
14, 341664, Note_on_c, 12, 65, 0
14, 341680, Note_on_c, 12, 65, 44
14, 341744, Note_on_c, 12, 65, 0
14, 341760, Note_on_c, 12, 65, 44
14, 341879, Note_on_c, 12, 65, 0
14, 341880, Note_on_c, 12, 67, 44
14, 341979, Note_on_c, 12, 67, 0
14, 342000, Note_on_c, 12, 60, 44
14, 342159, Note_on_c, 12, 60, 0
14, 342240, Note_on_c, 12, 65, 44
14, 342359, Note_on_c, 12, 65, 0
14, 342360, Note_on_c, 12, 67, 44
14, 342459, Note_on_c, 12, 67, 0
14, 342480, Note_on_c, 12, 60, 44
14, 342639, Note_on_c, 12, 60, 0
14, 342720, Note_on_c, 12, 65, 44
14, 342839, Note_on_c, 12, 65, 0
14, 342840, Note_on_c, 12, 67, 44
14, 342939, Note_on_c, 12, 67, 0
14, 342960, Note_on_c, 12, 60, 44
14, 343119, Note_on_c, 12, 60, 0
14, 343200, Note_on_c, 12, 67, 44
14, 343264, Note_on_c, 12, 67, 0
14, 343280, Note_on_c, 12, 67, 44
14, 343344, Note_on_c, 12, 67, 0
14, 343360, Note_on_c, 12, 67, 44
14, 343424, Note_on_c, 12, 67, 0
14, 343440, Note_on_c, 12, 67, 44
14, 343504, Note_on_c, 12, 67, 0
14, 343520, Note_on_c, 12, 67, 44
14, 343584, Note_on_c, 12, 67, 0
14, 343600, Note_on_c, 12, 67, 44
14, 343664, Note_on_c, 12, 67, 0
14, 343680, Note_on_c, 12, 67, 44
14, 343799, Note_on_c, 12, 67, 0
14, 343800, Note_on_c, 12, 69, 44
14, 343899, Note_on_c, 12, 69, 0
14, 343920, Note_on_c, 12, 65, 44
14, 344079, Note_on_c, 12, 65, 0
14, 344160, Note_on_c, 12, 67, 44
14, 344279, Note_on_c, 12, 67, 0
14, 344280, Note_on_c, 12, 69, 44
14, 344379, Note_on_c, 12, 69, 0
14, 344400, Note_on_c, 12, 65, 44
14, 344559, Note_on_c, 12, 65, 0
14, 344640, Note_on_c, 12, 67, 44
14, 344759, Note_on_c, 12, 67, 0
14, 344760, Note_on_c, 12, 69, 44
14, 344859, Note_on_c, 12, 69, 0
14, 344880, Note_on_c, 12, 65, 44
14, 345039, Note_on_c, 12, 65, 0
14, 345120, Note_on_c, 12, 60, 44
14, 345599, Note_on_c, 12, 60, 0
14, 345600, Note_on_c, 12, 62, 44
14, 346079, Note_on_c, 12, 62, 0
14, 346080, Note_on_c, 12, 60, 44
14, 346559, Note_on_c, 12, 60, 0
14, 346560, Note_on_c, 12, 58, 44
14, 347279, Note_on_c, 12, 58, 0
14, 347280, Note_on_c, 12, 60, 44
14, 347519, Note_on_c, 12, 60, 0
14, 347520, Note_on_c, 12, 62, 44
14, 348239, Note_on_c, 12, 62, 0
14, 348240, Note_on_c, 12, 64, 44
14, 348479, Note_on_c, 12, 64, 0
14, 348480, Note_on_c, 12, 65, 44
14, 348719, Note_on_c, 12, 65, 0
14, 348720, Note_on_c, 12, 67, 44
14, 348959, Note_on_c, 12, 67, 0
14, 348960, Note_on_c, 12, 65, 44
14, 349439, Note_on_c, 12, 65, 0
14, 349440, Note_on_c, 12, 64, 44
14, 349919, Note_on_c, 12, 64, 0
14, 349920, Note_on_c, 12, 62, 44
14, 350399, Note_on_c, 12, 62, 0
14, 350400, Note_on_c, 12, 60, 44
14, 350859, Note_on_c, 12, 60, 0
14, 350880, Note_on_c, 12, 67, 44
14, 350944, Note_on_c, 12, 67, 0
14, 350960, Note_on_c, 12, 67, 44
14, 351024, Note_on_c, 12, 67, 0
14, 351040, Note_on_c, 12, 67, 44
14, 351104, Note_on_c, 12, 67, 0
14, 351120, Note_on_c, 12, 67, 44
14, 351184, Note_on_c, 12, 67, 0
14, 351200, Note_on_c, 12, 67, 44
14, 351264, Note_on_c, 12, 67, 0
14, 351280, Note_on_c, 12, 67, 44
14, 351344, Note_on_c, 12, 67, 0
14, 351360, Note_on_c, 12, 67, 44
14, 351479, Note_on_c, 12, 67, 0
14, 351480, Note_on_c, 12, 72, 44
14, 351579, Note_on_c, 12, 72, 0
14, 351600, Note_on_c, 12, 64, 44
14, 351759, Note_on_c, 12, 64, 0
14, 351840, Note_on_c, 12, 59, 44
14, 352319, Note_on_c, 12, 59, 0
14, 352320, Note_on_c, 12, 60, 44
14, 352779, Note_on_c, 12, 60, 0
14, 352800, Note_on_c, 12, 67, 44
14, 352864, Note_on_c, 12, 67, 0
14, 352880, Note_on_c, 12, 67, 44
14, 352944, Note_on_c, 12, 67, 0
14, 352960, Note_on_c, 12, 67, 44
14, 353024, Note_on_c, 12, 67, 0
14, 353040, Note_on_c, 12, 67, 44
14, 353104, Note_on_c, 12, 67, 0
14, 353120, Note_on_c, 12, 67, 43
14, 353184, Note_on_c, 12, 67, 0
14, 353200, Note_on_c, 12, 67, 43
14, 353264, Note_on_c, 12, 67, 0
14, 353280, Note_on_c, 12, 67, 43
14, 353399, Note_on_c, 12, 67, 0
14, 353400, Note_on_c, 12, 72, 42
14, 353499, Note_on_c, 12, 72, 0
14, 353520, Note_on_c, 12, 64, 42
14, 353679, Note_on_c, 12, 64, 0
14, 353760, Note_on_c, 12, 71, 41
14, 353879, Note_on_c, 12, 71, 0
14, 353880, Note_on_c, 12, 72, 41
14, 353979, Note_on_c, 12, 72, 0
14, 354000, Note_on_c, 12, 67, 40
14, 354159, Note_on_c, 12, 67, 0
14, 354240, Note_on_c, 12, 65, 40
14, 354359, Note_on_c, 12, 65, 0
14, 354360, Note_on_c, 12, 67, 39
14, 354459, Note_on_c, 12, 67, 0
14, 354480, Note_on_c, 12, 64, 39
14, 354639, Note_on_c, 12, 64, 0
14, 354720, Note_on_c, 12, 62, 38
14, 354839, Note_on_c, 12, 62, 0
14, 354840, Note_on_c, 12, 64, 38
14, 354939, Note_on_c, 12, 64, 0
14, 354960, Note_on_c, 12, 60, 37
14, 355119, Note_on_c, 12, 60, 0
14, 355200, Note_on_c, 12, 62, 44
14, 355319, Note_on_c, 12, 62, 0
14, 355320, Note_on_c, 12, 64, 44
14, 355419, Note_on_c, 12, 64, 0
14, 355440, Note_on_c, 12, 60, 44
14, 355599, Note_on_c, 12, 60, 0
14, 356160, Note_on_c, 12, 62, 44
14, 356279, Note_on_c, 12, 62, 0
14, 356280, Note_on_c, 12, 64, 44
14, 356379, Note_on_c, 12, 64, 0
14, 356400, Note_on_c, 12, 60, 44
14, 356559, Note_on_c, 12, 60, 0
14, 357120, Note_on_c, 12, 62, 44
14, 357239, Note_on_c, 12, 62, 0
14, 357240, Note_on_c, 12, 64, 44
14, 357339, Note_on_c, 12, 64, 0
14, 357360, Note_on_c, 12, 60, 44
14, 357519, Note_on_c, 12, 60, 0
14, 357600, Note_on_c, 12, 61, 84
14, 358539, Note_on_c, 12, 61, 0
14, 358560, Note_on_c, 12, 61, 44
14, 358624, Note_on_c, 12, 61, 0
14, 358640, Note_on_c, 12, 61, 44
14, 358704, Note_on_c, 12, 61, 0
14, 358720, Note_on_c, 12, 61, 44
14, 358784, Note_on_c, 12, 61, 0
14, 358800, Note_on_c, 12, 61, 44
14, 358864, Note_on_c, 12, 61, 0
14, 358880, Note_on_c, 12, 61, 44
14, 358944, Note_on_c, 12, 61, 0
14, 358960, Note_on_c, 12, 61, 44
14, 359024, Note_on_c, 12, 61, 0
14, 359040, Note_on_c, 12, 61, 44
14, 359159, Note_on_c, 12, 61, 0
14, 359160, Note_on_c, 12, 63, 44
14, 359259, Note_on_c, 12, 63, 0
14, 359280, Note_on_c, 12, 60, 44
14, 359439, Note_on_c, 12, 60, 0
14, 359520, Note_on_c, 12, 61, 84
14, 360459, Note_on_c, 12, 61, 0
14, 360480, Note_on_c, 12, 61, 44
14, 360544, Note_on_c, 12, 61, 0
14, 360560, Note_on_c, 12, 61, 44
14, 360624, Note_on_c, 12, 61, 0
14, 360640, Note_on_c, 12, 61, 44
14, 360704, Note_on_c, 12, 61, 0
14, 360720, Note_on_c, 12, 61, 44
14, 360784, Note_on_c, 12, 61, 0
14, 360800, Note_on_c, 12, 61, 44
14, 360864, Note_on_c, 12, 61, 0
14, 360880, Note_on_c, 12, 61, 44
14, 360944, Note_on_c, 12, 61, 0
14, 360960, Note_on_c, 12, 61, 44
14, 361079, Note_on_c, 12, 61, 0
14, 361080, Note_on_c, 12, 63, 44
14, 361179, Note_on_c, 12, 63, 0
14, 361200, Note_on_c, 12, 60, 44
14, 361359, Note_on_c, 12, 60, 0
14, 361440, Note_on_c, 12, 61, 84
14, 362379, Note_on_c, 12, 61, 0
14, 362400, Note_on_c, 12, 61, 84
14, 363339, Note_on_c, 12, 61, 0
14, 363360, Note_on_c, 12, 61, 84
14, 364299, Note_on_c, 12, 61, 0
14, 364320, Note_on_c, 12, 78, 84
14, 364384, Note_on_c, 12, 78, 0
14, 364400, Note_on_c, 12, 78, 84
14, 364464, Note_on_c, 12, 78, 0
14, 364480, Note_on_c, 12, 78, 84
14, 364544, Note_on_c, 12, 78, 0
14, 364560, Note_on_c, 12, 78, 84
14, 364624, Note_on_c, 12, 78, 0
14, 364640, Note_on_c, 12, 78, 84
14, 364704, Note_on_c, 12, 78, 0
14, 364720, Note_on_c, 12, 78, 84
14, 364784, Note_on_c, 12, 78, 0
14, 364800, Note_on_c, 12, 78, 84
14, 364919, Note_on_c, 12, 78, 0
14, 364920, Note_on_c, 12, 80, 84
14, 365019, Note_on_c, 12, 80, 0
14, 365040, Note_on_c, 12, 73, 84
14, 365199, Note_on_c, 12, 73, 0
14, 365280, Note_on_c, 12, 78, 84
14, 365399, Note_on_c, 12, 78, 0
14, 365400, Note_on_c, 12, 80, 84
14, 365499, Note_on_c, 12, 80, 0
14, 365520, Note_on_c, 12, 73, 84
14, 365679, Note_on_c, 12, 73, 0
14, 365760, Note_on_c, 12, 78, 84
14, 365879, Note_on_c, 12, 78, 0
14, 365880, Note_on_c, 12, 80, 84
14, 365979, Note_on_c, 12, 80, 0
14, 366000, Note_on_c, 12, 73, 84
14, 366219, Note_on_c, 12, 73, 0
14, 366240, Note_on_c, 12, 80, 84
14, 366304, Note_on_c, 12, 80, 0
14, 366320, Note_on_c, 12, 80, 84
14, 366384, Note_on_c, 12, 80, 0
14, 366400, Note_on_c, 12, 80, 84
14, 366464, Note_on_c, 12, 80, 0
14, 366480, Note_on_c, 12, 80, 84
14, 366544, Note_on_c, 12, 80, 0
14, 366560, Note_on_c, 12, 80, 84
14, 366624, Note_on_c, 12, 80, 0
14, 366640, Note_on_c, 12, 80, 84
14, 366704, Note_on_c, 12, 80, 0
14, 366720, Note_on_c, 12, 80, 84
14, 366839, Note_on_c, 12, 80, 0
14, 366840, Note_on_c, 12, 81, 84
14, 366939, Note_on_c, 12, 81, 0
14, 366960, Note_on_c, 12, 78, 84
14, 367119, Note_on_c, 12, 78, 0
14, 367200, Note_on_c, 12, 80, 84
14, 367319, Note_on_c, 12, 80, 0
14, 367320, Note_on_c, 12, 81, 84
14, 367419, Note_on_c, 12, 81, 0
14, 367440, Note_on_c, 12, 78, 84
14, 367599, Note_on_c, 12, 78, 0
14, 367680, Note_on_c, 12, 80, 84
14, 367799, Note_on_c, 12, 80, 0
14, 367800, Note_on_c, 12, 81, 84
14, 367899, Note_on_c, 12, 81, 0
14, 367920, Note_on_c, 12, 78, 84
14, 368079, Note_on_c, 12, 78, 0
14, 368160, Note_on_c, 12, 66, 84
14, 368224, Note_on_c, 12, 66, 0
14, 368240, Note_on_c, 12, 66, 84
14, 368304, Note_on_c, 12, 66, 0
14, 368320, Note_on_c, 12, 66, 84
14, 368384, Note_on_c, 12, 66, 0
14, 368400, Note_on_c, 12, 66, 84
14, 368464, Note_on_c, 12, 66, 0
14, 368480, Note_on_c, 12, 66, 84
14, 368544, Note_on_c, 12, 66, 0
14, 368560, Note_on_c, 12, 66, 84
14, 368624, Note_on_c, 12, 66, 0
14, 368640, Note_on_c, 12, 66, 84
14, 368704, Note_on_c, 12, 66, 0
14, 368720, Note_on_c, 12, 66, 84
14, 368784, Note_on_c, 12, 66, 0
14, 368800, Note_on_c, 12, 66, 84
14, 368864, Note_on_c, 12, 66, 0
14, 368880, Note_on_c, 12, 66, 84
14, 368944, Note_on_c, 12, 66, 0
14, 368960, Note_on_c, 12, 66, 84
14, 369024, Note_on_c, 12, 66, 0
14, 369040, Note_on_c, 12, 66, 84
14, 369104, Note_on_c, 12, 66, 0
14, 369120, Note_on_c, 12, 66, 84
14, 369184, Note_on_c, 12, 66, 0
14, 369200, Note_on_c, 12, 66, 84
14, 369264, Note_on_c, 12, 66, 0
14, 369280, Note_on_c, 12, 66, 84
14, 369344, Note_on_c, 12, 66, 0
14, 369360, Note_on_c, 12, 66, 84
14, 369424, Note_on_c, 12, 66, 0
14, 369440, Note_on_c, 12, 66, 84
14, 369504, Note_on_c, 12, 66, 0
14, 369520, Note_on_c, 12, 66, 84
14, 369584, Note_on_c, 12, 66, 0
14, 369600, Note_on_c, 12, 71, 84
14, 369664, Note_on_c, 12, 71, 0
14, 369680, Note_on_c, 12, 71, 84
14, 369744, Note_on_c, 12, 71, 0
14, 369760, Note_on_c, 12, 71, 84
14, 369824, Note_on_c, 12, 71, 0
14, 369840, Note_on_c, 12, 71, 84
14, 369904, Note_on_c, 12, 71, 0
14, 369920, Note_on_c, 12, 71, 84
14, 369984, Note_on_c, 12, 71, 0
14, 370000, Note_on_c, 12, 71, 84
14, 370064, Note_on_c, 12, 71, 0
14, 370080, Note_on_c, 12, 68, 84
14, 370080, Note_on_c, 12, 71, 84
14, 370144, Note_on_c, 12, 68, 0
14, 370144, Note_on_c, 12, 71, 0
14, 370160, Note_on_c, 12, 68, 84
14, 370160, Note_on_c, 12, 71, 84
14, 370224, Note_on_c, 12, 68, 0
14, 370224, Note_on_c, 12, 71, 0
14, 370240, Note_on_c, 12, 68, 84
14, 370240, Note_on_c, 12, 71, 84
14, 370304, Note_on_c, 12, 68, 0
14, 370304, Note_on_c, 12, 71, 0
14, 370320, Note_on_c, 12, 69, 84
14, 370384, Note_on_c, 12, 69, 0
14, 370400, Note_on_c, 12, 69, 84
14, 370464, Note_on_c, 12, 69, 0
14, 370480, Note_on_c, 12, 69, 84
14, 370544, Note_on_c, 12, 69, 0
14, 370560, Note_on_c, 12, 68, 84
14, 370624, Note_on_c, 12, 68, 0
14, 370640, Note_on_c, 12, 68, 84
14, 370704, Note_on_c, 12, 68, 0
14, 370720, Note_on_c, 12, 68, 84
14, 370784, Note_on_c, 12, 68, 0
14, 370800, Note_on_c, 12, 66, 84
14, 370864, Note_on_c, 12, 66, 0
14, 370880, Note_on_c, 12, 66, 84
14, 370944, Note_on_c, 12, 66, 0
14, 370960, Note_on_c, 12, 66, 84
14, 371024, Note_on_c, 12, 66, 0
14, 371040, Note_on_c, 12, 68, 84
14, 371104, Note_on_c, 12, 68, 0
14, 371120, Note_on_c, 12, 68, 84
14, 371184, Note_on_c, 12, 68, 0
14, 371200, Note_on_c, 12, 68, 84
14, 371264, Note_on_c, 12, 68, 0
14, 371280, Note_on_c, 12, 69, 84
14, 371344, Note_on_c, 12, 69, 0
14, 371360, Note_on_c, 12, 69, 84
14, 371424, Note_on_c, 12, 69, 0
14, 371440, Note_on_c, 12, 69, 84
14, 371504, Note_on_c, 12, 69, 0
14, 371520, Note_on_c, 12, 71, 84
14, 371584, Note_on_c, 12, 71, 0
14, 371600, Note_on_c, 12, 71, 84
14, 371664, Note_on_c, 12, 71, 0
14, 371680, Note_on_c, 12, 71, 84
14, 371744, Note_on_c, 12, 71, 0
14, 371760, Note_on_c, 12, 68, 84
14, 371824, Note_on_c, 12, 68, 0
14, 371840, Note_on_c, 12, 68, 84
14, 371904, Note_on_c, 12, 68, 0
14, 371920, Note_on_c, 12, 68, 84
14, 371984, Note_on_c, 12, 68, 0
14, 372000, Note_on_c, 12, 69, 84
14, 372064, Note_on_c, 12, 69, 0
14, 372080, Note_on_c, 12, 69, 84
14, 372144, Note_on_c, 12, 69, 0
14, 372160, Note_on_c, 12, 69, 84
14, 372224, Note_on_c, 12, 69, 0
14, 372240, Note_on_c, 12, 66, 84
14, 372304, Note_on_c, 12, 66, 0
14, 372320, Note_on_c, 12, 66, 84
14, 372384, Note_on_c, 12, 66, 0
14, 372400, Note_on_c, 12, 66, 84
14, 372464, Note_on_c, 12, 66, 0
14, 372480, Note_on_c, 12, 68, 84
14, 372544, Note_on_c, 12, 68, 0
14, 372560, Note_on_c, 12, 68, 84
14, 372624, Note_on_c, 12, 68, 0
14, 372640, Note_on_c, 12, 68, 84
14, 372704, Note_on_c, 12, 68, 0
14, 372720, Note_on_c, 12, 66, 84
14, 372784, Note_on_c, 12, 66, 0
14, 372800, Note_on_c, 12, 66, 84
14, 372864, Note_on_c, 12, 66, 0
14, 372880, Note_on_c, 12, 66, 84
14, 372944, Note_on_c, 12, 66, 0
14, 372960, Note_on_c, 12, 68, 84
14, 373024, Note_on_c, 12, 68, 0
14, 373040, Note_on_c, 12, 68, 84
14, 373104, Note_on_c, 12, 68, 0
14, 373120, Note_on_c, 12, 68, 84
14, 373184, Note_on_c, 12, 68, 0
14, 373200, Note_on_c, 12, 69, 84
14, 373264, Note_on_c, 12, 69, 0
14, 373280, Note_on_c, 12, 69, 84
14, 373344, Note_on_c, 12, 69, 0
14, 373360, Note_on_c, 12, 69, 84
14, 373424, Note_on_c, 12, 69, 0
14, 373440, Note_on_c, 12, 71, 84
14, 373504, Note_on_c, 12, 71, 0
14, 373520, Note_on_c, 12, 71, 84
14, 373584, Note_on_c, 12, 71, 0
14, 373600, Note_on_c, 12, 71, 84
14, 373664, Note_on_c, 12, 71, 0
14, 373680, Note_on_c, 12, 68, 84
14, 373744, Note_on_c, 12, 68, 0
14, 373760, Note_on_c, 12, 68, 84
14, 373824, Note_on_c, 12, 68, 0
14, 373840, Note_on_c, 12, 68, 84
14, 373904, Note_on_c, 12, 68, 0
14, 373920, Note_on_c, 12, 69, 84
14, 373984, Note_on_c, 12, 69, 0
14, 374000, Note_on_c, 12, 69, 84
14, 374064, Note_on_c, 12, 69, 0
14, 374080, Note_on_c, 12, 69, 84
14, 374144, Note_on_c, 12, 69, 0
14, 374160, Note_on_c, 12, 66, 84
14, 374224, Note_on_c, 12, 66, 0
14, 374240, Note_on_c, 12, 66, 84
14, 374304, Note_on_c, 12, 66, 0
14, 374320, Note_on_c, 12, 66, 84
14, 374384, Note_on_c, 12, 66, 0
14, 374400, Note_on_c, 12, 68, 84
14, 374464, Note_on_c, 12, 68, 0
14, 374480, Note_on_c, 12, 68, 84
14, 374544, Note_on_c, 12, 68, 0
14, 374560, Note_on_c, 12, 68, 84
14, 374624, Note_on_c, 12, 68, 0
14, 374640, Note_on_c, 12, 66, 84
14, 374704, Note_on_c, 12, 66, 0
14, 374720, Note_on_c, 12, 66, 84
14, 374784, Note_on_c, 12, 66, 0
14, 374800, Note_on_c, 12, 66, 84
14, 374864, Note_on_c, 12, 66, 0
14, 374880, Note_on_c, 12, 68, 84
14, 374944, Note_on_c, 12, 68, 0
14, 374960, Note_on_c, 12, 68, 84
14, 375024, Note_on_c, 12, 68, 0
14, 375040, Note_on_c, 12, 68, 84
14, 375104, Note_on_c, 12, 68, 0
14, 375120, Note_on_c, 12, 69, 84
14, 375184, Note_on_c, 12, 69, 0
14, 375200, Note_on_c, 12, 69, 84
14, 375264, Note_on_c, 12, 69, 0
14, 375280, Note_on_c, 12, 69, 84
14, 375344, Note_on_c, 12, 69, 0
14, 375360, Note_on_c, 12, 71, 84
14, 375424, Note_on_c, 12, 71, 0
14, 375440, Note_on_c, 12, 71, 84
14, 375504, Note_on_c, 12, 71, 0
14, 375520, Note_on_c, 12, 71, 84
14, 375584, Note_on_c, 12, 71, 0
14, 375600, Note_on_c, 12, 68, 84
14, 375664, Note_on_c, 12, 68, 0
14, 375680, Note_on_c, 12, 68, 84
14, 375744, Note_on_c, 12, 68, 0
14, 375760, Note_on_c, 12, 68, 84
14, 375824, Note_on_c, 12, 68, 0
14, 375840, Note_on_c, 12, 69, 84
14, 375904, Note_on_c, 12, 69, 0
14, 375920, Note_on_c, 12, 69, 84
14, 375984, Note_on_c, 12, 69, 0
14, 376000, Note_on_c, 12, 69, 84
14, 376064, Note_on_c, 12, 69, 0
14, 376080, Note_on_c, 12, 65, 84
14, 376144, Note_on_c, 12, 65, 0
14, 376160, Note_on_c, 12, 65, 84
14, 376224, Note_on_c, 12, 65, 0
14, 376240, Note_on_c, 12, 65, 84
14, 376304, Note_on_c, 12, 65, 0
14, 376320, Note_on_c, 12, 67, 84
14, 376384, Note_on_c, 12, 67, 0
14, 376400, Note_on_c, 12, 67, 84
14, 376464, Note_on_c, 12, 67, 0
14, 376480, Note_on_c, 12, 67, 84
14, 376544, Note_on_c, 12, 67, 0
14, 376560, Note_on_c, 12, 65, 84
14, 376624, Note_on_c, 12, 65, 0
14, 376640, Note_on_c, 12, 65, 84
14, 376704, Note_on_c, 12, 65, 0
14, 376720, Note_on_c, 12, 65, 84
14, 376784, Note_on_c, 12, 65, 0
14, 376800, Note_on_c, 12, 67, 84
14, 376864, Note_on_c, 12, 67, 0
14, 376880, Note_on_c, 12, 67, 84
14, 376944, Note_on_c, 12, 67, 0
14, 376960, Note_on_c, 12, 67, 84
14, 377024, Note_on_c, 12, 67, 0
14, 377040, Note_on_c, 12, 69, 84
14, 377104, Note_on_c, 12, 69, 0
14, 377120, Note_on_c, 12, 69, 84
14, 377184, Note_on_c, 12, 69, 0
14, 377200, Note_on_c, 12, 69, 84
14, 377264, Note_on_c, 12, 69, 0
14, 377280, Note_on_c, 12, 70, 84
14, 377344, Note_on_c, 12, 70, 0
14, 377360, Note_on_c, 12, 70, 84
14, 377424, Note_on_c, 12, 70, 0
14, 377440, Note_on_c, 12, 70, 84
14, 377504, Note_on_c, 12, 70, 0
14, 377520, Note_on_c, 12, 67, 84
14, 377584, Note_on_c, 12, 67, 0
14, 377600, Note_on_c, 12, 67, 84
14, 377664, Note_on_c, 12, 67, 0
14, 377680, Note_on_c, 12, 67, 84
14, 377744, Note_on_c, 12, 67, 0
14, 377760, Note_on_c, 12, 69, 84
14, 377824, Note_on_c, 12, 69, 0
14, 377840, Note_on_c, 12, 69, 84
14, 377904, Note_on_c, 12, 69, 0
14, 377920, Note_on_c, 12, 69, 84
14, 377984, Note_on_c, 12, 69, 0
14, 378000, Note_on_c, 12, 65, 84
14, 378064, Note_on_c, 12, 65, 0
14, 378080, Note_on_c, 12, 65, 84
14, 378144, Note_on_c, 12, 65, 0
14, 378160, Note_on_c, 12, 65, 84
14, 378224, Note_on_c, 12, 65, 0
14, 378240, Note_on_c, 12, 70, 92
14, 378304, Note_on_c, 12, 70, 0
14, 378320, Note_on_c, 12, 70, 84
14, 378384, Note_on_c, 12, 70, 0
14, 378400, Note_on_c, 12, 70, 84
14, 378464, Note_on_c, 12, 70, 0
14, 378480, Note_on_c, 12, 67, 84
14, 378544, Note_on_c, 12, 67, 0
14, 378560, Note_on_c, 12, 67, 84
14, 378624, Note_on_c, 12, 67, 0
14, 378640, Note_on_c, 12, 67, 84
14, 378704, Note_on_c, 12, 67, 0
14, 378720, Note_on_c, 12, 69, 84
14, 378784, Note_on_c, 12, 69, 0
14, 378800, Note_on_c, 12, 69, 84
14, 378864, Note_on_c, 12, 69, 0
14, 378880, Note_on_c, 12, 69, 84
14, 378944, Note_on_c, 12, 69, 0
14, 378960, Note_on_c, 12, 65, 84
14, 379024, Note_on_c, 12, 65, 0
14, 379040, Note_on_c, 12, 65, 84
14, 379104, Note_on_c, 12, 65, 0
14, 379120, Note_on_c, 12, 65, 84
14, 379184, Note_on_c, 12, 65, 0
14, 379200, Note_on_c, 12, 70, 92
14, 379264, Note_on_c, 12, 70, 0
14, 379280, Note_on_c, 12, 70, 84
14, 379344, Note_on_c, 12, 70, 0
14, 379360, Note_on_c, 12, 70, 84
14, 379424, Note_on_c, 12, 70, 0
14, 379440, Note_on_c, 12, 67, 84
14, 379504, Note_on_c, 12, 67, 0
14, 379520, Note_on_c, 12, 67, 84
14, 379584, Note_on_c, 12, 67, 0
14, 379600, Note_on_c, 12, 67, 84
14, 379664, Note_on_c, 12, 67, 0
14, 379680, Note_on_c, 12, 69, 84
14, 379744, Note_on_c, 12, 69, 0
14, 379760, Note_on_c, 12, 69, 84
14, 379824, Note_on_c, 12, 69, 0
14, 379840, Note_on_c, 12, 69, 84
14, 379904, Note_on_c, 12, 69, 0
14, 379920, Note_on_c, 12, 65, 84
14, 379984, Note_on_c, 12, 65, 0
14, 380000, Note_on_c, 12, 65, 84
14, 380064, Note_on_c, 12, 65, 0
14, 380080, Note_on_c, 12, 65, 84
14, 380144, Note_on_c, 12, 65, 0
14, 380160, Note_on_c, 12, 70, 92
14, 380224, Note_on_c, 12, 70, 0
14, 380240, Note_on_c, 12, 70, 84
14, 380304, Note_on_c, 12, 70, 0
14, 380320, Note_on_c, 12, 70, 84
14, 380384, Note_on_c, 12, 70, 0
14, 380400, Note_on_c, 12, 67, 84
14, 380464, Note_on_c, 12, 67, 0
14, 380480, Note_on_c, 12, 67, 84
14, 380544, Note_on_c, 12, 67, 0
14, 380560, Note_on_c, 12, 67, 84
14, 380624, Note_on_c, 12, 67, 0
14, 380640, Note_on_c, 12, 69, 84
14, 380704, Note_on_c, 12, 69, 0
14, 380720, Note_on_c, 12, 69, 84
14, 380784, Note_on_c, 12, 69, 0
14, 380800, Note_on_c, 12, 69, 84
14, 380864, Note_on_c, 12, 69, 0
14, 380880, Note_on_c, 12, 65, 84
14, 380944, Note_on_c, 12, 65, 0
14, 380960, Note_on_c, 12, 65, 84
14, 381024, Note_on_c, 12, 65, 0
14, 381040, Note_on_c, 12, 65, 84
14, 381104, Note_on_c, 12, 65, 0
14, 381120, Note_on_c, 12, 70, 92
14, 381184, Note_on_c, 12, 70, 0
14, 381200, Note_on_c, 12, 70, 84
14, 381264, Note_on_c, 12, 70, 0
14, 381280, Note_on_c, 12, 70, 84
14, 381344, Note_on_c, 12, 70, 0
14, 381360, Note_on_c, 12, 67, 84
14, 381424, Note_on_c, 12, 67, 0
14, 381440, Note_on_c, 12, 67, 84
14, 381504, Note_on_c, 12, 67, 0
14, 381520, Note_on_c, 12, 67, 84
14, 381584, Note_on_c, 12, 67, 0
14, 381600, Note_on_c, 12, 69, 84
14, 381664, Note_on_c, 12, 69, 0
14, 381680, Note_on_c, 12, 69, 84
14, 381744, Note_on_c, 12, 69, 0
14, 381760, Note_on_c, 12, 69, 84
14, 381824, Note_on_c, 12, 69, 0
14, 381840, Note_on_c, 12, 65, 84
14, 381904, Note_on_c, 12, 65, 0
14, 381920, Note_on_c, 12, 65, 84
14, 381984, Note_on_c, 12, 65, 0
14, 382000, Note_on_c, 12, 65, 84
14, 382064, Note_on_c, 12, 65, 0
14, 382080, Note_on_c, 12, 70, 92
14, 382144, Note_on_c, 12, 70, 0
14, 382160, Note_on_c, 12, 70, 84
14, 382224, Note_on_c, 12, 70, 0
14, 382240, Note_on_c, 12, 70, 84
14, 382304, Note_on_c, 12, 70, 0
14, 382320, Note_on_c, 12, 67, 84
14, 382384, Note_on_c, 12, 67, 0
14, 382400, Note_on_c, 12, 67, 84
14, 382464, Note_on_c, 12, 67, 0
14, 382480, Note_on_c, 12, 67, 84
14, 382544, Note_on_c, 12, 67, 0
14, 382560, Note_on_c, 12, 64, 92
14, 382624, Note_on_c, 12, 64, 0
14, 382640, Note_on_c, 12, 64, 84
14, 382704, Note_on_c, 12, 64, 0
14, 382720, Note_on_c, 12, 64, 84
14, 382784, Note_on_c, 12, 64, 0
14, 382800, Note_on_c, 12, 69, 84
14, 382864, Note_on_c, 12, 69, 0
14, 382880, Note_on_c, 12, 69, 84
14, 382944, Note_on_c, 12, 69, 0
14, 382960, Note_on_c, 12, 69, 84
14, 383024, Note_on_c, 12, 69, 0
14, 383040, Note_on_c, 12, 65, 92
14, 383104, Note_on_c, 12, 65, 0
14, 383120, Note_on_c, 12, 65, 84
14, 383184, Note_on_c, 12, 65, 0
14, 383200, Note_on_c, 12, 65, 84
14, 383264, Note_on_c, 12, 65, 0
14, 383280, Note_on_c, 12, 62, 84
14, 383344, Note_on_c, 12, 62, 0
14, 383360, Note_on_c, 12, 62, 84
14, 383424, Note_on_c, 12, 62, 0
14, 383440, Note_on_c, 12, 62, 84
14, 383504, Note_on_c, 12, 62, 0
14, 383520, Note_on_c, 12, 67, 92
14, 383584, Note_on_c, 12, 67, 0
14, 383600, Note_on_c, 12, 67, 84
14, 383664, Note_on_c, 12, 67, 0
14, 383680, Note_on_c, 12, 67, 84
14, 383744, Note_on_c, 12, 67, 0
14, 383760, Note_on_c, 12, 64, 84
14, 383824, Note_on_c, 12, 64, 0
14, 383840, Note_on_c, 12, 64, 84
14, 383904, Note_on_c, 12, 64, 0
14, 383920, Note_on_c, 12, 64, 84
14, 383984, Note_on_c, 12, 64, 0
14, 384000, Note_on_c, 12, 60, 92
14, 384064, Note_on_c, 12, 60, 0
14, 384080, Note_on_c, 12, 60, 84
14, 384144, Note_on_c, 12, 60, 0
14, 384160, Note_on_c, 12, 60, 84
14, 384224, Note_on_c, 12, 60, 0
14, 384240, Note_on_c, 12, 65, 84
14, 384304, Note_on_c, 12, 65, 0
14, 384320, Note_on_c, 12, 65, 84
14, 384384, Note_on_c, 12, 65, 0
14, 384400, Note_on_c, 12, 65, 84
14, 384464, Note_on_c, 12, 65, 0
14, 384480, Note_on_c, 12, 62, 92
14, 384544, Note_on_c, 12, 62, 0
14, 384560, Note_on_c, 12, 62, 84
14, 384624, Note_on_c, 12, 62, 0
14, 384640, Note_on_c, 12, 62, 84
14, 384704, Note_on_c, 12, 62, 0
14, 384720, Note_on_c, 12, 58, 84
14, 384784, Note_on_c, 12, 58, 0
14, 384800, Note_on_c, 12, 58, 84
14, 384864, Note_on_c, 12, 58, 0
14, 384880, Note_on_c, 12, 58, 84
14, 384944, Note_on_c, 12, 58, 0
14, 384960, Note_on_c, 12, 64, 92
14, 385024, Note_on_c, 12, 64, 0
14, 385040, Note_on_c, 12, 64, 84
14, 385104, Note_on_c, 12, 64, 0
14, 385120, Note_on_c, 12, 64, 84
14, 385184, Note_on_c, 12, 64, 0
14, 385200, Note_on_c, 12, 60, 84
14, 385264, Note_on_c, 12, 60, 0
14, 385280, Note_on_c, 12, 60, 84
14, 385344, Note_on_c, 12, 60, 0
14, 385360, Note_on_c, 12, 60, 84
14, 385424, Note_on_c, 12, 60, 0
14, 385440, Note_on_c, 12, 57, 92
14, 385504, Note_on_c, 12, 57, 0
14, 385520, Note_on_c, 12, 57, 84
14, 385584, Note_on_c, 12, 57, 0
14, 385600, Note_on_c, 12, 57, 84
14, 385664, Note_on_c, 12, 57, 0
14, 385680, Note_on_c, 12, 62, 84
14, 385744, Note_on_c, 12, 62, 0
14, 385760, Note_on_c, 12, 62, 84
14, 385824, Note_on_c, 12, 62, 0
14, 385840, Note_on_c, 12, 62, 84
14, 385904, Note_on_c, 12, 62, 0
14, 385920, Note_on_c, 12, 58, 92
14, 385984, Note_on_c, 12, 58, 0
14, 386000, Note_on_c, 12, 58, 84
14, 386064, Note_on_c, 12, 58, 0
14, 386080, Note_on_c, 12, 58, 84
14, 386144, Note_on_c, 12, 58, 0
14, 386160, Note_on_c, 12, 55, 84
14, 386224, Note_on_c, 12, 55, 0
14, 386240, Note_on_c, 12, 55, 84
14, 386304, Note_on_c, 12, 55, 0
14, 386320, Note_on_c, 12, 55, 84
14, 386384, Note_on_c, 12, 55, 0
14, 386400, Note_on_c, 12, 60, 92
14, 386464, Note_on_c, 12, 60, 0
14, 386480, Note_on_c, 12, 60, 84
14, 386544, Note_on_c, 12, 60, 0
14, 386560, Note_on_c, 12, 60, 84
14, 386624, Note_on_c, 12, 60, 0
14, 386640, Note_on_c, 12, 57, 84
14, 386704, Note_on_c, 12, 57, 0
14, 386720, Note_on_c, 12, 57, 84
14, 386784, Note_on_c, 12, 57, 0
14, 386800, Note_on_c, 12, 57, 84
14, 386864, Note_on_c, 12, 57, 0
14, 386880, Note_on_c, 12, 65, 92
14, 386944, Note_on_c, 12, 65, 0
14, 386960, Note_on_c, 12, 65, 84
14, 387024, Note_on_c, 12, 65, 0
14, 387040, Note_on_c, 12, 65, 84
14, 387104, Note_on_c, 12, 65, 0
14, 387120, Note_on_c, 12, 58, 84
14, 387184, Note_on_c, 12, 58, 0
14, 387200, Note_on_c, 12, 58, 84
14, 387264, Note_on_c, 12, 58, 0
14, 387280, Note_on_c, 12, 58, 84
14, 387344, Note_on_c, 12, 58, 0
14, 387360, Note_on_c, 12, 55, 92
14, 387424, Note_on_c, 12, 55, 0
14, 387440, Note_on_c, 12, 55, 84
14, 387504, Note_on_c, 12, 55, 0
14, 387520, Note_on_c, 12, 55, 84
14, 387584, Note_on_c, 12, 55, 0
14, 387600, Note_on_c, 12, 55, 84
14, 387664, Note_on_c, 12, 55, 0
14, 387680, Note_on_c, 12, 55, 84
14, 387744, Note_on_c, 12, 55, 0
14, 387760, Note_on_c, 12, 55, 84
14, 387824, Note_on_c, 12, 55, 0
14, 387840, Note_on_c, 12, 55, 92
14, 387840, Note_on_c, 12, 64, 92
14, 387904, Note_on_c, 12, 55, 0
14, 387904, Note_on_c, 12, 64, 0
14, 387920, Note_on_c, 12, 55, 84
14, 387920, Note_on_c, 12, 64, 84
14, 387984, Note_on_c, 12, 55, 0
14, 387984, Note_on_c, 12, 64, 0
14, 388000, Note_on_c, 12, 55, 84
14, 388000, Note_on_c, 12, 64, 84
14, 388064, Note_on_c, 12, 55, 0
14, 388064, Note_on_c, 12, 64, 0
14, 388080, Note_on_c, 12, 55, 84
14, 388080, Note_on_c, 12, 64, 84
14, 388144, Note_on_c, 12, 55, 0
14, 388144, Note_on_c, 12, 64, 0
14, 388160, Note_on_c, 12, 64, 84
14, 388160, Note_on_c, 12, 55, 84
14, 388224, Note_on_c, 12, 64, 0
14, 388224, Note_on_c, 12, 55, 0
14, 388240, Note_on_c, 12, 64, 84
14, 388240, Note_on_c, 12, 55, 84
14, 388304, Note_on_c, 12, 64, 0
14, 388304, Note_on_c, 12, 55, 0
14, 388320, Note_on_c, 12, 55, 92
14, 388320, Note_on_c, 12, 64, 92
14, 388384, Note_on_c, 12, 55, 0
14, 388384, Note_on_c, 12, 64, 0
14, 388400, Note_on_c, 12, 64, 84
14, 388400, Note_on_c, 12, 55, 84
14, 388464, Note_on_c, 12, 64, 0
14, 388464, Note_on_c, 12, 55, 0
14, 388480, Note_on_c, 12, 55, 84
14, 388480, Note_on_c, 12, 64, 84
14, 388544, Note_on_c, 12, 55, 0
14, 388544, Note_on_c, 12, 64, 0
14, 388560, Note_on_c, 12, 64, 84
14, 388560, Note_on_c, 12, 55, 84
14, 388624, Note_on_c, 12, 64, 0
14, 388624, Note_on_c, 12, 55, 0
14, 388640, Note_on_c, 12, 55, 84
14, 388640, Note_on_c, 12, 64, 84
14, 388704, Note_on_c, 12, 55, 0
14, 388704, Note_on_c, 12, 64, 0
14, 388720, Note_on_c, 12, 64, 84
14, 388720, Note_on_c, 12, 55, 84
14, 388784, Note_on_c, 12, 64, 0
14, 388784, Note_on_c, 12, 55, 0
14, 388800, Note_on_c, 12, 64, 92
14, 388800, Note_on_c, 12, 55, 92
14, 388864, Note_on_c, 12, 64, 0
14, 388864, Note_on_c, 12, 55, 0
14, 388880, Note_on_c, 12, 55, 84
14, 388880, Note_on_c, 12, 64, 84
14, 388944, Note_on_c, 12, 55, 0
14, 388944, Note_on_c, 12, 64, 0
14, 388960, Note_on_c, 12, 55, 84
14, 388960, Note_on_c, 12, 64, 84
14, 389024, Note_on_c, 12, 55, 0
14, 389024, Note_on_c, 12, 64, 0
14, 389040, Note_on_c, 12, 64, 84
14, 389040, Note_on_c, 12, 55, 84
14, 389104, Note_on_c, 12, 64, 0
14, 389104, Note_on_c, 12, 55, 0
14, 389120, Note_on_c, 12, 55, 84
14, 389120, Note_on_c, 12, 64, 84
14, 389184, Note_on_c, 12, 55, 0
14, 389184, Note_on_c, 12, 64, 0
14, 389200, Note_on_c, 12, 55, 84
14, 389200, Note_on_c, 12, 64, 84
14, 389264, Note_on_c, 12, 55, 0
14, 389264, Note_on_c, 12, 64, 0
14, 389280, Note_on_c, 12, 55, 92
14, 389280, Note_on_c, 12, 64, 92
14, 389344, Note_on_c, 12, 55, 0
14, 389344, Note_on_c, 12, 64, 0
14, 389360, Note_on_c, 12, 64, 84
14, 389360, Note_on_c, 12, 55, 84
14, 389424, Note_on_c, 12, 64, 0
14, 389424, Note_on_c, 12, 55, 0
14, 389440, Note_on_c, 12, 64, 84
14, 389440, Note_on_c, 12, 55, 84
14, 389504, Note_on_c, 12, 64, 0
14, 389504, Note_on_c, 12, 55, 0
14, 389520, Note_on_c, 12, 64, 84
14, 389520, Note_on_c, 12, 55, 84
14, 389584, Note_on_c, 12, 64, 0
14, 389584, Note_on_c, 12, 55, 0
14, 389600, Note_on_c, 12, 64, 84
14, 389600, Note_on_c, 12, 55, 84
14, 389664, Note_on_c, 12, 64, 0
14, 389664, Note_on_c, 12, 55, 0
14, 389680, Note_on_c, 12, 64, 84
14, 389680, Note_on_c, 12, 55, 84
14, 389744, Note_on_c, 12, 64, 0
14, 389744, Note_on_c, 12, 55, 0
14, 389760, Note_on_c, 12, 55, 92
14, 389760, Note_on_c, 12, 64, 92
14, 389824, Note_on_c, 12, 55, 0
14, 389824, Note_on_c, 12, 64, 0
14, 389840, Note_on_c, 12, 55, 84
14, 389840, Note_on_c, 12, 64, 84
14, 389904, Note_on_c, 12, 55, 0
14, 389904, Note_on_c, 12, 64, 0
14, 389920, Note_on_c, 12, 64, 84
14, 389920, Note_on_c, 12, 55, 84
14, 389984, Note_on_c, 12, 64, 0
14, 389984, Note_on_c, 12, 55, 0
14, 390000, Note_on_c, 12, 64, 84
14, 390000, Note_on_c, 12, 55, 84
14, 390064, Note_on_c, 12, 64, 0
14, 390064, Note_on_c, 12, 55, 0
14, 390080, Note_on_c, 12, 55, 84
14, 390080, Note_on_c, 12, 64, 84
14, 390144, Note_on_c, 12, 55, 0
14, 390144, Note_on_c, 12, 64, 0
14, 390160, Note_on_c, 12, 55, 84
14, 390160, Note_on_c, 12, 64, 84
14, 390224, Note_on_c, 12, 55, 0
14, 390224, Note_on_c, 12, 64, 0
14, 390240, Note_on_c, 12, 64, 92
14, 390240, Note_on_c, 12, 55, 92
14, 390304, Note_on_c, 12, 64, 0
14, 390304, Note_on_c, 12, 55, 0
14, 390320, Note_on_c, 12, 64, 84
14, 390320, Note_on_c, 12, 55, 84
14, 390384, Note_on_c, 12, 64, 0
14, 390384, Note_on_c, 12, 55, 0
14, 390400, Note_on_c, 12, 64, 84
14, 390400, Note_on_c, 12, 55, 84
14, 390464, Note_on_c, 12, 64, 0
14, 390464, Note_on_c, 12, 55, 0
14, 390480, Note_on_c, 12, 55, 84
14, 390480, Note_on_c, 12, 64, 84
14, 390544, Note_on_c, 12, 55, 0
14, 390544, Note_on_c, 12, 64, 0
14, 390560, Note_on_c, 12, 64, 84
14, 390560, Note_on_c, 12, 55, 84
14, 390624, Note_on_c, 12, 64, 0
14, 390624, Note_on_c, 12, 55, 0
14, 390640, Note_on_c, 12, 64, 84
14, 390640, Note_on_c, 12, 55, 84
14, 390704, Note_on_c, 12, 64, 0
14, 390704, Note_on_c, 12, 55, 0
14, 390720, Note_on_c, 12, 64, 92
14, 390720, Note_on_c, 12, 55, 92
14, 390784, Note_on_c, 12, 64, 0
14, 390784, Note_on_c, 12, 55, 0
14, 390800, Note_on_c, 12, 64, 84
14, 390800, Note_on_c, 12, 55, 84
14, 390864, Note_on_c, 12, 64, 0
14, 390864, Note_on_c, 12, 55, 0
14, 390880, Note_on_c, 12, 55, 84
14, 390880, Note_on_c, 12, 64, 84
14, 390944, Note_on_c, 12, 55, 0
14, 390944, Note_on_c, 12, 64, 0
14, 390960, Note_on_c, 12, 55, 84
14, 390960, Note_on_c, 12, 64, 84
14, 391024, Note_on_c, 12, 55, 0
14, 391024, Note_on_c, 12, 64, 0
14, 391040, Note_on_c, 12, 64, 84
14, 391040, Note_on_c, 12, 55, 84
14, 391104, Note_on_c, 12, 64, 0
14, 391104, Note_on_c, 12, 55, 0
14, 391120, Note_on_c, 12, 64, 84
14, 391120, Note_on_c, 12, 55, 84
14, 391184, Note_on_c, 12, 64, 0
14, 391184, Note_on_c, 12, 55, 0
14, 391200, Note_on_c, 12, 64, 92
14, 391200, Note_on_c, 12, 55, 92
14, 391264, Note_on_c, 12, 64, 0
14, 391264, Note_on_c, 12, 55, 0
14, 391280, Note_on_c, 12, 55, 84
14, 391280, Note_on_c, 12, 64, 84
14, 391344, Note_on_c, 12, 55, 0
14, 391344, Note_on_c, 12, 64, 0
14, 391360, Note_on_c, 12, 64, 84
14, 391360, Note_on_c, 12, 55, 84
14, 391424, Note_on_c, 12, 64, 0
14, 391424, Note_on_c, 12, 55, 0
14, 391440, Note_on_c, 12, 64, 84
14, 391440, Note_on_c, 12, 55, 84
14, 391504, Note_on_c, 12, 64, 0
14, 391504, Note_on_c, 12, 55, 0
14, 391520, Note_on_c, 12, 55, 84
14, 391520, Note_on_c, 12, 64, 84
14, 391584, Note_on_c, 12, 55, 0
14, 391584, Note_on_c, 12, 64, 0
14, 391600, Note_on_c, 12, 64, 84
14, 391600, Note_on_c, 12, 55, 84
14, 391664, Note_on_c, 12, 64, 0
14, 391664, Note_on_c, 12, 55, 0
14, 391680, Note_on_c, 12, 65, 76
14, 391680, Note_on_c, 12, 57, 76
14, 391760, Control_c, 12, 11, 80
14, 391919, Note_on_c, 12, 65, 0
14, 391919, Note_on_c, 12, 57, 0
14, 394560, Control_c, 12, 11, 96
14, 395040, Note_on_c, 12, 76, 68
14, 395040, Control_c, 12, 11, 96
14, 395100, Control_c, 12, 11, 99
14, 395160, Control_c, 12, 11, 101
14, 395220, Control_c, 12, 11, 104
14, 395280, Control_c, 12, 11, 106
14, 395340, Control_c, 12, 11, 109
14, 395400, Control_c, 12, 11, 112
14, 395460, Control_c, 12, 11, 114
14, 395519, Note_on_c, 12, 76, 0
14, 395520, Control_c, 12, 11, 117
14, 395520, Note_on_c, 12, 77, 68
14, 395580, Control_c, 12, 11, 119
14, 395640, Control_c, 12, 11, 122
14, 395700, Control_c, 12, 11, 124
14, 395760, Control_c, 12, 11, 127
14, 395820, Control_c, 12, 11, 124
14, 395880, Control_c, 12, 11, 122
14, 395940, Control_c, 12, 11, 119
14, 396000, Control_c, 12, 11, 117
14, 396060, Control_c, 12, 11, 114
14, 396120, Control_c, 12, 11, 112
14, 396180, Control_c, 12, 11, 109
14, 396239, Note_on_c, 12, 77, 0
14, 396240, Control_c, 12, 11, 106
14, 396240, Note_on_c, 12, 79, 68
14, 396300, Control_c, 12, 11, 104
14, 396359, Note_on_c, 12, 79, 0
14, 396360, Note_on_c, 12, 81, 68
14, 396360, Control_c, 12, 11, 101
14, 396420, Control_c, 12, 11, 99
14, 396479, Note_on_c, 12, 81, 0
14, 396480, Note_on_c, 12, 72, 68
14, 396480, Control_c, 12, 11, 96
14, 396719, Note_on_c, 12, 72, 0
14, 398400, Control_c, 12, 11, 80
14, 398880, Note_on_c, 12, 76, 76
14, 398920, Control_c, 12, 11, 84
14, 398960, Control_c, 12, 11, 88
14, 399000, Control_c, 12, 11, 92
14, 399040, Control_c, 12, 11, 96
14, 399080, Control_c, 12, 11, 100
14, 399120, Control_c, 12, 11, 104
14, 399160, Control_c, 12, 11, 107
14, 399200, Control_c, 12, 11, 111
14, 399240, Control_c, 12, 11, 115
14, 399280, Control_c, 12, 11, 119
14, 399320, Control_c, 12, 11, 127
14, 399339, Note_on_c, 12, 76, 0
14, 399360, Note_on_c, 12, 77, 76
14, 399424, Note_on_c, 12, 77, 0
14, 399440, Note_on_c, 12, 69, 76
14, 399504, Note_on_c, 12, 69, 0
14, 399520, Note_on_c, 12, 69, 76
14, 399584, Note_on_c, 12, 69, 0
14, 399600, Note_on_c, 12, 69, 76
14, 399664, Note_on_c, 12, 69, 0
14, 399680, Note_on_c, 12, 69, 76
14, 399744, Note_on_c, 12, 69, 0
14, 399760, Note_on_c, 12, 69, 76
14, 399824, Note_on_c, 12, 69, 0
14, 399840, Note_on_c, 12, 69, 76
14, 399904, Note_on_c, 12, 69, 0
14, 399920, Note_on_c, 12, 69, 76
14, 399984, Note_on_c, 12, 69, 0
14, 400000, Note_on_c, 12, 69, 76
14, 400064, Note_on_c, 12, 69, 0
14, 400080, Note_on_c, 12, 69, 76
14, 400144, Note_on_c, 12, 69, 0
14, 400160, Note_on_c, 12, 69, 76
14, 400224, Note_on_c, 12, 69, 0
14, 400240, Note_on_c, 12, 69, 76
14, 400304, Note_on_c, 12, 69, 0
14, 400320, Note_on_c, 12, 69, 76
14, 400384, Note_on_c, 12, 69, 0
14, 400400, Note_on_c, 12, 69, 76
14, 400464, Note_on_c, 12, 69, 0
14, 400480, Note_on_c, 12, 69, 76
14, 400544, Note_on_c, 12, 69, 0
14, 400560, Note_on_c, 12, 69, 76
14, 400624, Note_on_c, 12, 69, 0
14, 400640, Note_on_c, 12, 69, 76
14, 400704, Note_on_c, 12, 69, 0
14, 400720, Note_on_c, 12, 69, 76
14, 400784, Note_on_c, 12, 69, 0
14, 400800, Note_on_c, 12, 69, 76
14, 400864, Note_on_c, 12, 69, 0
14, 400880, Note_on_c, 12, 69, 76
14, 400944, Note_on_c, 12, 69, 0
14, 400960, Note_on_c, 12, 69, 76
14, 401024, Note_on_c, 12, 69, 0
14, 401040, Note_on_c, 12, 69, 76
14, 401104, Note_on_c, 12, 69, 0
14, 401120, Note_on_c, 12, 69, 76
14, 401184, Note_on_c, 12, 69, 0
14, 401200, Note_on_c, 12, 69, 76
14, 401264, Note_on_c, 12, 69, 0
14, 401280, Note_on_c, 12, 74, 76
14, 401344, Note_on_c, 12, 74, 0
14, 401360, Note_on_c, 12, 74, 76
14, 401424, Note_on_c, 12, 74, 0
14, 401440, Note_on_c, 12, 74, 76
14, 401504, Note_on_c, 12, 74, 0
14, 401520, Note_on_c, 12, 74, 76
14, 401584, Note_on_c, 12, 74, 0
14, 401600, Note_on_c, 12, 74, 76
14, 401664, Note_on_c, 12, 74, 0
14, 401680, Note_on_c, 12, 74, 76
14, 401744, Note_on_c, 12, 74, 0
14, 401760, Note_on_c, 12, 74, 76
14, 401824, Note_on_c, 12, 74, 0
14, 401840, Note_on_c, 12, 74, 76
14, 401904, Note_on_c, 12, 74, 0
14, 401920, Note_on_c, 12, 74, 76
14, 401984, Note_on_c, 12, 74, 0
14, 402000, Note_on_c, 12, 74, 76
14, 402064, Note_on_c, 12, 74, 0
14, 402080, Note_on_c, 12, 74, 76
14, 402144, Note_on_c, 12, 74, 0
14, 402160, Note_on_c, 12, 74, 76
14, 402224, Note_on_c, 12, 74, 0
14, 402240, Note_on_c, 12, 67, 76
14, 402304, Note_on_c, 12, 67, 0
14, 402320, Note_on_c, 12, 67, 76
14, 402384, Note_on_c, 12, 67, 0
14, 402400, Note_on_c, 12, 67, 76
14, 402464, Note_on_c, 12, 67, 0
14, 402480, Note_on_c, 12, 67, 76
14, 402544, Note_on_c, 12, 67, 0
14, 402560, Note_on_c, 12, 67, 76
14, 402624, Note_on_c, 12, 67, 0
14, 402640, Note_on_c, 12, 67, 76
14, 402704, Note_on_c, 12, 67, 0
14, 402720, Note_on_c, 12, 67, 76
14, 402784, Note_on_c, 12, 67, 0
14, 402800, Note_on_c, 12, 67, 76
14, 402864, Note_on_c, 12, 67, 0
14, 402880, Note_on_c, 12, 67, 76
14, 402944, Note_on_c, 12, 67, 0
14, 402960, Note_on_c, 12, 67, 76
14, 403024, Note_on_c, 12, 67, 0
14, 403040, Note_on_c, 12, 67, 76
14, 403104, Note_on_c, 12, 67, 0
14, 403120, Note_on_c, 12, 67, 76
14, 403184, Note_on_c, 12, 67, 0
14, 403200, Note_on_c, 12, 69, 52
14, 403359, Note_on_c, 12, 69, 0
14, 403360, Note_on_c, 12, 65, 52
14, 403519, Note_on_c, 12, 65, 0
14, 403520, Note_on_c, 12, 69, 52
14, 403679, Note_on_c, 12, 69, 0
14, 403680, Note_on_c, 12, 72, 52
14, 403839, Note_on_c, 12, 72, 0
14, 403840, Note_on_c, 12, 60, 52
14, 403999, Note_on_c, 12, 60, 0
14, 404000, Note_on_c, 12, 72, 52
14, 404139, Note_on_c, 12, 72, 0
14, 404160, Note_on_c, 12, 60, 52
14, 404319, Note_on_c, 12, 60, 0
14, 404320, Note_on_c, 12, 65, 52
14, 404479, Note_on_c, 12, 65, 0
14, 404480, Note_on_c, 12, 69, 52
14, 404639, Note_on_c, 12, 69, 0
14, 404640, Note_on_c, 12, 72, 52
14, 404799, Note_on_c, 12, 72, 0
14, 404800, Note_on_c, 12, 60, 52
14, 404959, Note_on_c, 12, 60, 0
14, 404960, Note_on_c, 12, 72, 52
14, 405099, Note_on_c, 12, 72, 0
14, 405120, Note_on_c, 12, 60, 52
14, 405279, Note_on_c, 12, 60, 0
14, 405280, Note_on_c, 12, 67, 52
14, 405439, Note_on_c, 12, 67, 0
14, 405440, Note_on_c, 12, 70, 52
14, 405599, Note_on_c, 12, 70, 0
14, 405600, Note_on_c, 12, 72, 52
14, 405759, Note_on_c, 12, 72, 0
14, 405760, Note_on_c, 12, 60, 52
14, 405919, Note_on_c, 12, 60, 0
14, 405920, Note_on_c, 12, 72, 52
14, 406059, Note_on_c, 12, 72, 0
14, 406080, Note_on_c, 12, 60, 52
14, 406239, Note_on_c, 12, 60, 0
14, 406240, Note_on_c, 12, 67, 52
14, 406399, Note_on_c, 12, 67, 0
14, 406400, Note_on_c, 12, 70, 52
14, 406559, Note_on_c, 12, 70, 0
14, 406560, Note_on_c, 12, 72, 52
14, 406719, Note_on_c, 12, 72, 0
14, 406720, Note_on_c, 12, 60, 52
14, 406879, Note_on_c, 12, 60, 0
14, 406880, Note_on_c, 12, 72, 52
14, 407019, Note_on_c, 12, 72, 0
14, 407040, Note_on_c, 12, 60, 52
14, 407199, Note_on_c, 12, 60, 0
14, 407200, Note_on_c, 12, 65, 52
14, 407359, Note_on_c, 12, 65, 0
14, 407360, Note_on_c, 12, 69, 52
14, 407519, Note_on_c, 12, 69, 0
14, 407520, Note_on_c, 12, 72, 52
14, 407679, Note_on_c, 12, 72, 0
14, 407680, Note_on_c, 12, 60, 52
14, 407839, Note_on_c, 12, 60, 0
14, 407840, Note_on_c, 12, 72, 52
14, 407979, Note_on_c, 12, 72, 0
14, 408000, Note_on_c, 12, 60, 52
14, 408159, Note_on_c, 12, 60, 0
14, 408160, Note_on_c, 12, 65, 52
14, 408319, Note_on_c, 12, 65, 0
14, 408320, Note_on_c, 12, 69, 52
14, 408479, Note_on_c, 12, 69, 0
14, 408480, Note_on_c, 12, 72, 52
14, 408639, Note_on_c, 12, 72, 0
14, 408640, Note_on_c, 12, 60, 52
14, 408799, Note_on_c, 12, 60, 0
14, 408800, Note_on_c, 12, 72, 52
14, 408939, Note_on_c, 12, 72, 0
14, 408960, Note_on_c, 12, 60, 52
14, 409119, Note_on_c, 12, 60, 0
14, 409120, Note_on_c, 12, 67, 52
14, 409279, Note_on_c, 12, 67, 0
14, 409280, Note_on_c, 12, 70, 52
14, 409439, Note_on_c, 12, 70, 0
14, 409440, Note_on_c, 12, 72, 52
14, 409599, Note_on_c, 12, 72, 0
14, 409600, Note_on_c, 12, 60, 52
14, 409759, Note_on_c, 12, 60, 0
14, 409760, Note_on_c, 12, 72, 52
14, 409899, Note_on_c, 12, 72, 0
14, 409920, Note_on_c, 12, 60, 52
14, 410079, Note_on_c, 12, 60, 0
14, 410080, Note_on_c, 12, 67, 52
14, 410239, Note_on_c, 12, 67, 0
14, 410240, Note_on_c, 12, 70, 52
14, 410399, Note_on_c, 12, 70, 0
14, 410400, Note_on_c, 12, 72, 52
14, 410559, Note_on_c, 12, 72, 0
14, 410560, Note_on_c, 12, 60, 52
14, 410719, Note_on_c, 12, 60, 0
14, 410720, Note_on_c, 12, 72, 52
14, 410859, Note_on_c, 12, 72, 0
14, 410880, Note_on_c, 12, 72, 76
14, 410944, Note_on_c, 12, 72, 0
14, 410960, Note_on_c, 12, 65, 76
14, 410960, Note_on_c, 12, 69, 76
14, 411024, Note_on_c, 12, 65, 0
14, 411024, Note_on_c, 12, 69, 0
14, 411040, Note_on_c, 12, 69, 76
14, 411040, Note_on_c, 12, 65, 76
14, 411104, Note_on_c, 12, 69, 0
14, 411104, Note_on_c, 12, 65, 0
14, 411120, Note_on_c, 12, 69, 76
14, 411120, Note_on_c, 12, 65, 76
14, 411184, Note_on_c, 12, 69, 0
14, 411184, Note_on_c, 12, 65, 0
14, 411200, Note_on_c, 12, 65, 76
14, 411200, Note_on_c, 12, 69, 76
14, 411264, Note_on_c, 12, 65, 0
14, 411264, Note_on_c, 12, 69, 0
14, 411280, Note_on_c, 12, 65, 76
14, 411280, Note_on_c, 12, 69, 76
14, 411344, Note_on_c, 12, 65, 0
14, 411344, Note_on_c, 12, 69, 0
14, 411360, Note_on_c, 12, 65, 76
14, 411360, Note_on_c, 12, 69, 76
14, 411424, Note_on_c, 12, 65, 0
14, 411424, Note_on_c, 12, 69, 0
14, 411440, Note_on_c, 12, 69, 76
14, 411440, Note_on_c, 12, 65, 76
14, 411504, Note_on_c, 12, 69, 0
14, 411504, Note_on_c, 12, 65, 0
14, 411520, Note_on_c, 12, 65, 76
14, 411520, Note_on_c, 12, 69, 76
14, 411584, Note_on_c, 12, 65, 0
14, 411584, Note_on_c, 12, 69, 0
14, 411600, Note_on_c, 12, 65, 76
14, 411600, Note_on_c, 12, 69, 76
14, 411664, Note_on_c, 12, 65, 0
14, 411664, Note_on_c, 12, 69, 0
14, 411680, Note_on_c, 12, 69, 76
14, 411680, Note_on_c, 12, 65, 76
14, 411744, Note_on_c, 12, 69, 0
14, 411744, Note_on_c, 12, 65, 0
14, 411760, Note_on_c, 12, 69, 76
14, 411760, Note_on_c, 12, 65, 76
14, 411824, Note_on_c, 12, 69, 0
14, 411824, Note_on_c, 12, 65, 0
14, 411840, Note_on_c, 12, 69, 76
14, 411840, Note_on_c, 12, 65, 76
14, 411904, Note_on_c, 12, 69, 0
14, 411904, Note_on_c, 12, 65, 0
14, 411920, Note_on_c, 12, 65, 76
14, 411920, Note_on_c, 12, 69, 76
14, 411984, Note_on_c, 12, 65, 0
14, 411984, Note_on_c, 12, 69, 0
14, 412000, Note_on_c, 12, 65, 76
14, 412000, Note_on_c, 12, 69, 76
14, 412064, Note_on_c, 12, 65, 0
14, 412064, Note_on_c, 12, 69, 0
14, 412080, Note_on_c, 12, 65, 76
14, 412080, Note_on_c, 12, 69, 76
14, 412144, Note_on_c, 12, 65, 0
14, 412144, Note_on_c, 12, 69, 0
14, 412160, Note_on_c, 12, 65, 76
14, 412160, Note_on_c, 12, 69, 76
14, 412224, Note_on_c, 12, 65, 0
14, 412224, Note_on_c, 12, 69, 0
14, 412240, Note_on_c, 12, 69, 76
14, 412240, Note_on_c, 12, 65, 76
14, 412304, Note_on_c, 12, 69, 0
14, 412304, Note_on_c, 12, 65, 0
14, 412320, Note_on_c, 12, 65, 76
14, 412320, Note_on_c, 12, 69, 76
14, 412384, Note_on_c, 12, 65, 0
14, 412384, Note_on_c, 12, 69, 0
14, 412400, Note_on_c, 12, 65, 76
14, 412400, Note_on_c, 12, 69, 76
14, 412464, Note_on_c, 12, 65, 0
14, 412464, Note_on_c, 12, 69, 0
14, 412480, Note_on_c, 12, 69, 76
14, 412480, Note_on_c, 12, 65, 76
14, 412544, Note_on_c, 12, 69, 0
14, 412544, Note_on_c, 12, 65, 0
14, 412560, Note_on_c, 12, 65, 76
14, 412560, Note_on_c, 12, 69, 76
14, 412624, Note_on_c, 12, 65, 0
14, 412624, Note_on_c, 12, 69, 0
14, 412640, Note_on_c, 12, 69, 76
14, 412640, Note_on_c, 12, 65, 76
14, 412704, Note_on_c, 12, 69, 0
14, 412704, Note_on_c, 12, 65, 0
14, 412720, Note_on_c, 12, 69, 76
14, 412720, Note_on_c, 12, 65, 76
14, 412784, Note_on_c, 12, 69, 0
14, 412784, Note_on_c, 12, 65, 0
14, 412800, Note_on_c, 12, 67, 76
14, 412800, Note_on_c, 12, 74, 76
14, 412864, Note_on_c, 12, 67, 0
14, 412864, Note_on_c, 12, 74, 0
14, 412880, Note_on_c, 12, 67, 76
14, 412880, Note_on_c, 12, 74, 76
14, 412944, Note_on_c, 12, 67, 0
14, 412944, Note_on_c, 12, 74, 0
14, 412960, Note_on_c, 12, 67, 76
14, 412960, Note_on_c, 12, 74, 76
14, 413024, Note_on_c, 12, 67, 0
14, 413024, Note_on_c, 12, 74, 0
14, 413040, Note_on_c, 12, 67, 76
14, 413040, Note_on_c, 12, 74, 76
14, 413104, Note_on_c, 12, 67, 0
14, 413104, Note_on_c, 12, 74, 0
14, 413120, Note_on_c, 12, 74, 76
14, 413120, Note_on_c, 12, 67, 76
14, 413184, Note_on_c, 12, 74, 0
14, 413184, Note_on_c, 12, 67, 0
14, 413200, Note_on_c, 12, 74, 76
14, 413200, Note_on_c, 12, 67, 76
14, 413264, Note_on_c, 12, 74, 0
14, 413264, Note_on_c, 12, 67, 0
14, 413280, Note_on_c, 12, 74, 76
14, 413280, Note_on_c, 12, 67, 76
14, 413344, Note_on_c, 12, 74, 0
14, 413344, Note_on_c, 12, 67, 0
14, 413360, Note_on_c, 12, 74, 76
14, 413360, Note_on_c, 12, 67, 76
14, 413424, Note_on_c, 12, 74, 0
14, 413424, Note_on_c, 12, 67, 0
14, 413440, Note_on_c, 12, 67, 76
14, 413440, Note_on_c, 12, 74, 76
14, 413504, Note_on_c, 12, 67, 0
14, 413504, Note_on_c, 12, 74, 0
14, 413520, Note_on_c, 12, 74, 76
14, 413520, Note_on_c, 12, 67, 76
14, 413584, Note_on_c, 12, 74, 0
14, 413584, Note_on_c, 12, 67, 0
14, 413600, Note_on_c, 12, 67, 76
14, 413600, Note_on_c, 12, 74, 76
14, 413664, Note_on_c, 12, 67, 0
14, 413664, Note_on_c, 12, 74, 0
14, 413680, Note_on_c, 12, 67, 76
14, 413680, Note_on_c, 12, 74, 76
14, 413744, Note_on_c, 12, 67, 0
14, 413744, Note_on_c, 12, 74, 0
14, 413760, Note_on_c, 12, 67, 76
14, 413824, Note_on_c, 12, 67, 0
14, 413840, Note_on_c, 12, 67, 76
14, 413904, Note_on_c, 12, 67, 0
14, 413920, Note_on_c, 12, 67, 76
14, 413984, Note_on_c, 12, 67, 0
14, 414000, Note_on_c, 12, 67, 76
14, 414064, Note_on_c, 12, 67, 0
14, 414080, Note_on_c, 12, 67, 76
14, 414144, Note_on_c, 12, 67, 0
14, 414160, Note_on_c, 12, 67, 76
14, 414224, Note_on_c, 12, 67, 0
14, 414240, Note_on_c, 12, 67, 76
14, 414304, Note_on_c, 12, 67, 0
14, 414320, Note_on_c, 12, 67, 76
14, 414384, Note_on_c, 12, 67, 0
14, 414400, Note_on_c, 12, 67, 76
14, 414464, Note_on_c, 12, 67, 0
14, 414480, Note_on_c, 12, 67, 76
14, 414544, Note_on_c, 12, 67, 0
14, 414560, Note_on_c, 12, 67, 76
14, 414624, Note_on_c, 12, 67, 0
14, 414640, Note_on_c, 12, 67, 76
14, 414704, Note_on_c, 12, 67, 0
14, 414720, Note_on_c, 12, 69, 84
14, 414720, Note_on_c, 12, 57, 84
14, 414784, Note_on_c, 12, 69, 0
14, 414784, Note_on_c, 12, 57, 0
14, 414800, Note_on_c, 12, 57, 84
14, 414800, Note_on_c, 12, 69, 84
14, 414864, Note_on_c, 12, 57, 0
14, 414864, Note_on_c, 12, 69, 0
14, 414880, Note_on_c, 12, 57, 84
14, 414880, Note_on_c, 12, 69, 84
14, 414944, Note_on_c, 12, 57, 0
14, 414944, Note_on_c, 12, 69, 0
14, 414960, Note_on_c, 12, 57, 84
14, 414960, Note_on_c, 12, 69, 84
14, 415024, Note_on_c, 12, 57, 0
14, 415024, Note_on_c, 12, 69, 0
14, 415040, Note_on_c, 12, 57, 84
14, 415040, Note_on_c, 12, 69, 84
14, 415104, Note_on_c, 12, 57, 0
14, 415104, Note_on_c, 12, 69, 0
14, 415120, Note_on_c, 12, 57, 84
14, 415120, Note_on_c, 12, 69, 84
14, 415184, Note_on_c, 12, 57, 0
14, 415184, Note_on_c, 12, 69, 0
14, 415200, Note_on_c, 12, 69, 84
14, 415200, Note_on_c, 12, 57, 84
14, 415264, Note_on_c, 12, 69, 0
14, 415264, Note_on_c, 12, 57, 0
14, 415280, Note_on_c, 12, 57, 84
14, 415280, Note_on_c, 12, 69, 84
14, 415344, Note_on_c, 12, 57, 0
14, 415344, Note_on_c, 12, 69, 0
14, 415360, Note_on_c, 12, 69, 84
14, 415360, Note_on_c, 12, 57, 84
14, 415424, Note_on_c, 12, 69, 0
14, 415424, Note_on_c, 12, 57, 0
14, 415440, Note_on_c, 12, 69, 84
14, 415440, Note_on_c, 12, 57, 84
14, 415504, Note_on_c, 12, 69, 0
14, 415504, Note_on_c, 12, 57, 0
14, 415520, Note_on_c, 12, 69, 84
14, 415520, Note_on_c, 12, 57, 84
14, 415584, Note_on_c, 12, 69, 0
14, 415584, Note_on_c, 12, 57, 0
14, 415600, Note_on_c, 12, 57, 84
14, 415600, Note_on_c, 12, 69, 84
14, 415664, Note_on_c, 12, 57, 0
14, 415664, Note_on_c, 12, 69, 0
14, 415680, Note_on_c, 12, 69, 84
14, 415680, Note_on_c, 12, 57, 84
14, 415744, Note_on_c, 12, 69, 0
14, 415744, Note_on_c, 12, 57, 0
14, 415760, Note_on_c, 12, 57, 84
14, 415760, Note_on_c, 12, 69, 84
14, 415824, Note_on_c, 12, 57, 0
14, 415824, Note_on_c, 12, 69, 0
14, 415840, Note_on_c, 12, 69, 84
14, 415840, Note_on_c, 12, 57, 84
14, 415904, Note_on_c, 12, 69, 0
14, 415904, Note_on_c, 12, 57, 0
14, 415920, Note_on_c, 12, 57, 84
14, 415920, Note_on_c, 12, 69, 84
14, 415984, Note_on_c, 12, 57, 0
14, 415984, Note_on_c, 12, 69, 0
14, 416000, Note_on_c, 12, 57, 84
14, 416000, Note_on_c, 12, 69, 84
14, 416064, Note_on_c, 12, 57, 0
14, 416064, Note_on_c, 12, 69, 0
14, 416080, Note_on_c, 12, 57, 84
14, 416080, Note_on_c, 12, 69, 84
14, 416144, Note_on_c, 12, 57, 0
14, 416144, Note_on_c, 12, 69, 0
14, 416160, Note_on_c, 12, 69, 84
14, 416160, Note_on_c, 12, 57, 84
14, 416224, Note_on_c, 12, 69, 0
14, 416224, Note_on_c, 12, 57, 0
14, 416240, Note_on_c, 12, 69, 84
14, 416240, Note_on_c, 12, 57, 84
14, 416304, Note_on_c, 12, 69, 0
14, 416304, Note_on_c, 12, 57, 0
14, 416320, Note_on_c, 12, 69, 84
14, 416320, Note_on_c, 12, 57, 84
14, 416384, Note_on_c, 12, 69, 0
14, 416384, Note_on_c, 12, 57, 0
14, 416400, Note_on_c, 12, 57, 84
14, 416400, Note_on_c, 12, 69, 84
14, 416464, Note_on_c, 12, 57, 0
14, 416464, Note_on_c, 12, 69, 0
14, 416480, Note_on_c, 12, 69, 84
14, 416480, Note_on_c, 12, 57, 84
14, 416544, Note_on_c, 12, 69, 0
14, 416544, Note_on_c, 12, 57, 0
14, 416560, Note_on_c, 12, 69, 84
14, 416560, Note_on_c, 12, 57, 84
14, 416624, Note_on_c, 12, 69, 0
14, 416624, Note_on_c, 12, 57, 0
14, 416640, Note_on_c, 12, 69, 84
14, 416640, Note_on_c, 12, 57, 84
14, 416704, Note_on_c, 12, 69, 0
14, 416704, Note_on_c, 12, 57, 0
14, 416720, Note_on_c, 12, 69, 84
14, 416720, Note_on_c, 12, 57, 84
14, 416784, Note_on_c, 12, 69, 0
14, 416784, Note_on_c, 12, 57, 0
14, 416800, Note_on_c, 12, 57, 84
14, 416800, Note_on_c, 12, 69, 84
14, 416864, Note_on_c, 12, 57, 0
14, 416864, Note_on_c, 12, 69, 0
14, 416880, Note_on_c, 12, 69, 84
14, 416880, Note_on_c, 12, 57, 84
14, 416944, Note_on_c, 12, 69, 0
14, 416944, Note_on_c, 12, 57, 0
14, 416960, Note_on_c, 12, 69, 84
14, 416960, Note_on_c, 12, 57, 84
14, 417024, Note_on_c, 12, 69, 0
14, 417024, Note_on_c, 12, 57, 0
14, 417040, Note_on_c, 12, 57, 84
14, 417040, Note_on_c, 12, 69, 84
14, 417104, Note_on_c, 12, 57, 0
14, 417104, Note_on_c, 12, 69, 0
14, 417120, Note_on_c, 12, 57, 84
14, 417120, Note_on_c, 12, 69, 84
14, 417184, Note_on_c, 12, 57, 0
14, 417184, Note_on_c, 12, 69, 0
14, 417200, Note_on_c, 12, 57, 84
14, 417200, Note_on_c, 12, 69, 84
14, 417264, Note_on_c, 12, 57, 0
14, 417264, Note_on_c, 12, 69, 0
14, 417280, Note_on_c, 12, 69, 84
14, 417280, Note_on_c, 12, 57, 84
14, 417344, Note_on_c, 12, 69, 0
14, 417344, Note_on_c, 12, 57, 0
14, 417360, Note_on_c, 12, 69, 84
14, 417360, Note_on_c, 12, 57, 84
14, 417424, Note_on_c, 12, 69, 0
14, 417424, Note_on_c, 12, 57, 0
14, 417440, Note_on_c, 12, 57, 84
14, 417440, Note_on_c, 12, 69, 84
14, 417504, Note_on_c, 12, 57, 0
14, 417504, Note_on_c, 12, 69, 0
14, 417520, Note_on_c, 12, 69, 84
14, 417520, Note_on_c, 12, 57, 84
14, 417584, Note_on_c, 12, 69, 0
14, 417584, Note_on_c, 12, 57, 0
14, 417600, Note_on_c, 12, 57, 84
14, 417600, Note_on_c, 12, 69, 84
14, 417664, Note_on_c, 12, 57, 0
14, 417664, Note_on_c, 12, 69, 0
14, 417680, Note_on_c, 12, 57, 84
14, 417680, Note_on_c, 12, 69, 84
14, 417744, Note_on_c, 12, 57, 0
14, 417744, Note_on_c, 12, 69, 0
14, 417760, Note_on_c, 12, 57, 84
14, 417760, Note_on_c, 12, 69, 84
14, 417824, Note_on_c, 12, 57, 0
14, 417824, Note_on_c, 12, 69, 0
14, 417840, Note_on_c, 12, 69, 84
14, 417840, Note_on_c, 12, 57, 84
14, 417904, Note_on_c, 12, 69, 0
14, 417904, Note_on_c, 12, 57, 0
14, 417920, Note_on_c, 12, 69, 84
14, 417920, Note_on_c, 12, 57, 84
14, 417984, Note_on_c, 12, 69, 0
14, 417984, Note_on_c, 12, 57, 0
14, 418000, Note_on_c, 12, 57, 84
14, 418000, Note_on_c, 12, 69, 84
14, 418064, Note_on_c, 12, 57, 0
14, 418064, Note_on_c, 12, 69, 0
14, 418080, Note_on_c, 12, 57, 84
14, 418080, Note_on_c, 12, 69, 84
14, 418144, Note_on_c, 12, 57, 0
14, 418144, Note_on_c, 12, 69, 0
14, 418160, Note_on_c, 12, 69, 84
14, 418160, Note_on_c, 12, 57, 84
14, 418224, Note_on_c, 12, 69, 0
14, 418224, Note_on_c, 12, 57, 0
14, 418240, Note_on_c, 12, 57, 84
14, 418240, Note_on_c, 12, 69, 84
14, 418304, Note_on_c, 12, 57, 0
14, 418304, Note_on_c, 12, 69, 0
14, 418320, Note_on_c, 12, 69, 84
14, 418320, Note_on_c, 12, 57, 84
14, 418384, Note_on_c, 12, 69, 0
14, 418384, Note_on_c, 12, 57, 0
14, 418400, Note_on_c, 12, 57, 84
14, 418400, Note_on_c, 12, 69, 84
14, 418464, Note_on_c, 12, 57, 0
14, 418464, Note_on_c, 12, 69, 0
14, 418480, Note_on_c, 12, 57, 84
14, 418480, Note_on_c, 12, 69, 84
14, 418544, Note_on_c, 12, 57, 0
14, 418544, Note_on_c, 12, 69, 0
14, 418560, Note_on_c, 12, 56, 84
14, 418799, Note_on_c, 12, 56, 0
14, 419040, Note_on_c, 12, 64, 84
14, 419040, Note_on_c, 12, 55, 84
14, 419279, Note_on_c, 12, 64, 0
14, 419279, Note_on_c, 12, 55, 0
14, 419520, Note_on_c, 12, 76, 84
14, 419520, Note_on_c, 12, 64, 84
14, 419520, Note_on_c, 12, 55, 84
14, 419759, Note_on_c, 12, 76, 0
14, 419759, Note_on_c, 12, 64, 0
14, 419759, Note_on_c, 12, 55, 0
14, 420000, Note_on_c, 12, 79, 84
14, 420000, Note_on_c, 12, 70, 84
14, 420239, Note_on_c, 12, 79, 0
14, 420239, Note_on_c, 12, 70, 0
14, 421920, Note_on_c, 12, 72, 52
14, 422064, Note_on_c, 12, 72, 0
14, 422080, Note_on_c, 12, 72, 52
14, 422224, Note_on_c, 12, 72, 0
14, 422240, Note_on_c, 12, 72, 52
14, 422384, Note_on_c, 12, 72, 0
14, 422400, Note_on_c, 12, 72, 52
14, 422639, Note_on_c, 12, 72, 0
14, 423840, Note_on_c, 12, 77, 52
14, 423984, Note_on_c, 12, 77, 0
14, 424000, Note_on_c, 12, 77, 52
14, 424144, Note_on_c, 12, 77, 0
14, 424160, Note_on_c, 12, 77, 52
14, 424304, Note_on_c, 12, 77, 0
14, 424320, Note_on_c, 12, 77, 52
14, 424559, Note_on_c, 12, 77, 0
14, 424800, Note_on_c, 12, 77, 76
14, 424864, Note_on_c, 12, 77, 0
14, 424880, Note_on_c, 12, 77, 76
14, 424944, Note_on_c, 12, 77, 0
14, 424960, Note_on_c, 12, 77, 76
14, 425024, Note_on_c, 12, 77, 0
14, 425040, Note_on_c, 12, 77, 76
14, 425104, Note_on_c, 12, 77, 0
14, 425120, Note_on_c, 12, 77, 76
14, 425184, Note_on_c, 12, 77, 0
14, 425200, Note_on_c, 12, 77, 76
14, 425264, Note_on_c, 12, 77, 0
14, 425280, Note_on_c, 12, 77, 76
14, 425399, Note_on_c, 12, 77, 0
14, 425400, Note_on_c, 12, 79, 76
14, 425499, Note_on_c, 12, 79, 0
14, 425520, Note_on_c, 12, 72, 76
14, 425679, Note_on_c, 12, 72, 0
14, 425760, Note_on_c, 12, 79, 76
14, 425824, Note_on_c, 12, 79, 0
14, 425840, Note_on_c, 12, 79, 76
14, 425904, Note_on_c, 12, 79, 0
14, 425920, Note_on_c, 12, 79, 76
14, 425984, Note_on_c, 12, 79, 0
14, 426000, Note_on_c, 12, 79, 76
14, 426064, Note_on_c, 12, 79, 0
14, 426080, Note_on_c, 12, 79, 76
14, 426144, Note_on_c, 12, 79, 0
14, 426160, Note_on_c, 12, 79, 76
14, 426224, Note_on_c, 12, 79, 0
14, 426240, Note_on_c, 12, 79, 76
14, 426359, Note_on_c, 12, 79, 0
14, 426360, Note_on_c, 12, 81, 76
14, 426459, Note_on_c, 12, 81, 0
14, 426480, Note_on_c, 12, 77, 76
14, 426639, Note_on_c, 12, 77, 0
14, 426720, Note_on_c, 12, 77, 76
14, 426784, Note_on_c, 12, 77, 0
14, 426800, Note_on_c, 12, 77, 76
14, 426864, Note_on_c, 12, 77, 0
14, 426880, Note_on_c, 12, 77, 76
14, 426944, Note_on_c, 12, 77, 0
14, 426960, Note_on_c, 12, 77, 76
14, 427024, Note_on_c, 12, 77, 0
14, 427040, Note_on_c, 12, 77, 76
14, 427104, Note_on_c, 12, 77, 0
14, 427120, Note_on_c, 12, 77, 76
14, 427184, Note_on_c, 12, 77, 0
14, 427200, Note_on_c, 12, 77, 76
14, 427319, Note_on_c, 12, 77, 0
14, 427320, Note_on_c, 12, 79, 76
14, 427419, Note_on_c, 12, 79, 0
14, 427440, Note_on_c, 12, 72, 76
14, 427599, Note_on_c, 12, 72, 0
14, 427680, Note_on_c, 12, 77, 76
14, 427799, Note_on_c, 12, 77, 0
14, 427800, Note_on_c, 12, 79, 76
14, 427899, Note_on_c, 12, 79, 0
14, 427920, Note_on_c, 12, 72, 76
14, 428079, Note_on_c, 12, 72, 0
14, 428160, Note_on_c, 12, 79, 76
14, 428279, Note_on_c, 12, 79, 0
14, 428280, Note_on_c, 12, 81, 76
14, 428379, Note_on_c, 12, 81, 0
14, 428400, Note_on_c, 12, 77, 76
14, 428559, Note_on_c, 12, 77, 0
14, 428640, Note_on_c, 12, 77, 76
14, 428704, Note_on_c, 12, 77, 0
14, 428720, Note_on_c, 12, 77, 76
14, 428784, Note_on_c, 12, 77, 0
14, 428800, Note_on_c, 12, 77, 76
14, 428864, Note_on_c, 12, 77, 0
14, 428880, Note_on_c, 12, 77, 76
14, 428944, Note_on_c, 12, 77, 0
14, 428960, Note_on_c, 12, 77, 76
14, 429024, Note_on_c, 12, 77, 0
14, 429040, Note_on_c, 12, 77, 76
14, 429104, Note_on_c, 12, 77, 0
14, 429120, Note_on_c, 12, 77, 76
14, 429239, Note_on_c, 12, 77, 0
14, 429240, Note_on_c, 12, 79, 76
14, 429339, Note_on_c, 12, 79, 0
14, 429360, Note_on_c, 12, 72, 76
14, 429519, Note_on_c, 12, 72, 0
14, 429600, Note_on_c, 12, 77, 76
14, 429719, Note_on_c, 12, 77, 0
14, 429720, Note_on_c, 12, 79, 76
14, 429819, Note_on_c, 12, 79, 0
14, 429840, Note_on_c, 12, 72, 76
14, 429999, Note_on_c, 12, 72, 0
14, 430080, Note_on_c, 12, 79, 76
14, 430199, Note_on_c, 12, 79, 0
14, 430200, Note_on_c, 12, 81, 76
14, 430299, Note_on_c, 12, 81, 0
14, 430320, Note_on_c, 12, 77, 76
14, 430479, Note_on_c, 12, 77, 0
14, 430560, Note_on_c, 12, 79, 76
14, 430679, Note_on_c, 12, 79, 0
14, 430680, Note_on_c, 12, 81, 76
14, 430779, Note_on_c, 12, 81, 0
14, 430800, Note_on_c, 12, 77, 76
14, 430959, Note_on_c, 12, 77, 0
14, 431040, Note_on_c, 12, 79, 76
14, 431104, Note_on_c, 12, 79, 0
14, 431120, Note_on_c, 12, 79, 76
14, 431184, Note_on_c, 12, 79, 0
14, 431200, Note_on_c, 12, 79, 76
14, 431264, Note_on_c, 12, 79, 0
14, 431280, Note_on_c, 12, 81, 76
14, 431344, Note_on_c, 12, 81, 0
14, 431360, Note_on_c, 12, 81, 76
14, 431424, Note_on_c, 12, 81, 0
14, 431440, Note_on_c, 12, 81, 76
14, 431504, Note_on_c, 12, 81, 0
14, 431520, Note_on_c, 12, 82, 76
14, 431584, Note_on_c, 12, 82, 0
14, 431600, Note_on_c, 12, 82, 76
14, 431664, Note_on_c, 12, 82, 0
14, 431680, Note_on_c, 12, 82, 76
14, 431744, Note_on_c, 12, 82, 0
14, 431760, Note_on_c, 12, 79, 76
14, 431824, Note_on_c, 12, 79, 0
14, 431840, Note_on_c, 12, 79, 76
14, 431904, Note_on_c, 12, 79, 0
14, 431920, Note_on_c, 12, 79, 76
14, 431984, Note_on_c, 12, 79, 0
14, 432000, Note_on_c, 12, 77, 84
14, 432000, Note_on_c, 12, 69, 84
14, 432064, Note_on_c, 12, 77, 0
14, 432064, Note_on_c, 12, 69, 0
14, 432080, Note_on_c, 12, 77, 76
14, 432080, Note_on_c, 12, 69, 76
14, 432144, Note_on_c, 12, 77, 0
14, 432144, Note_on_c, 12, 69, 0
14, 432160, Note_on_c, 12, 69, 76
14, 432160, Note_on_c, 12, 77, 76
14, 432224, Note_on_c, 12, 69, 0
14, 432224, Note_on_c, 12, 77, 0
14, 432240, Note_on_c, 12, 69, 76
14, 432240, Note_on_c, 12, 77, 76
14, 432304, Note_on_c, 12, 69, 0
14, 432304, Note_on_c, 12, 77, 0
14, 432320, Note_on_c, 12, 77, 76
14, 432320, Note_on_c, 12, 69, 76
14, 432384, Note_on_c, 12, 77, 0
14, 432384, Note_on_c, 12, 69, 0
14, 432400, Note_on_c, 12, 69, 76
14, 432400, Note_on_c, 12, 77, 76
14, 432464, Note_on_c, 12, 69, 0
14, 432464, Note_on_c, 12, 77, 0
14, 432480, Note_on_c, 12, 77, 76
14, 432480, Note_on_c, 12, 69, 76
14, 432544, Note_on_c, 12, 77, 0
14, 432544, Note_on_c, 12, 69, 0
14, 432560, Note_on_c, 12, 69, 76
14, 432560, Note_on_c, 12, 77, 76
14, 432624, Note_on_c, 12, 69, 0
14, 432624, Note_on_c, 12, 77, 0
14, 432640, Note_on_c, 12, 77, 76
14, 432640, Note_on_c, 12, 69, 76
14, 432704, Note_on_c, 12, 77, 0
14, 432704, Note_on_c, 12, 69, 0
14, 432720, Note_on_c, 12, 77, 76
14, 432720, Note_on_c, 12, 69, 76
14, 432784, Note_on_c, 12, 77, 0
14, 432784, Note_on_c, 12, 69, 0
14, 432800, Note_on_c, 12, 69, 76
14, 432800, Note_on_c, 12, 77, 76
14, 432864, Note_on_c, 12, 69, 0
14, 432864, Note_on_c, 12, 77, 0
14, 432880, Note_on_c, 12, 69, 76
14, 432880, Note_on_c, 12, 77, 76
14, 432944, Note_on_c, 12, 69, 0
14, 432944, Note_on_c, 12, 77, 0
14, 432960, Note_on_c, 12, 69, 84
14, 432960, Note_on_c, 12, 65, 84
14, 433024, Note_on_c, 12, 69, 0
14, 433024, Note_on_c, 12, 65, 0
14, 433040, Note_on_c, 12, 69, 76
14, 433040, Note_on_c, 12, 65, 76
14, 433104, Note_on_c, 12, 69, 0
14, 433104, Note_on_c, 12, 65, 0
14, 433120, Note_on_c, 12, 69, 76
14, 433120, Note_on_c, 12, 65, 76
14, 433184, Note_on_c, 12, 69, 0
14, 433184, Note_on_c, 12, 65, 0
14, 433200, Note_on_c, 12, 65, 76
14, 433200, Note_on_c, 12, 69, 76
14, 433264, Note_on_c, 12, 65, 0
14, 433264, Note_on_c, 12, 69, 0
14, 433280, Note_on_c, 12, 69, 76
14, 433280, Note_on_c, 12, 65, 76
14, 433344, Note_on_c, 12, 69, 0
14, 433344, Note_on_c, 12, 65, 0
14, 433360, Note_on_c, 12, 69, 76
14, 433360, Note_on_c, 12, 65, 76
14, 433424, Note_on_c, 12, 69, 0
14, 433424, Note_on_c, 12, 65, 0
14, 433440, Note_on_c, 12, 69, 76
14, 433440, Note_on_c, 12, 65, 76
14, 433504, Note_on_c, 12, 69, 0
14, 433504, Note_on_c, 12, 65, 0
14, 433520, Note_on_c, 12, 69, 76
14, 433520, Note_on_c, 12, 65, 76
14, 433584, Note_on_c, 12, 69, 0
14, 433584, Note_on_c, 12, 65, 0
14, 433600, Note_on_c, 12, 69, 76
14, 433600, Note_on_c, 12, 65, 76
14, 433664, Note_on_c, 12, 69, 0
14, 433664, Note_on_c, 12, 65, 0
14, 433680, Note_on_c, 12, 65, 76
14, 433680, Note_on_c, 12, 69, 76
14, 433744, Note_on_c, 12, 65, 0
14, 433744, Note_on_c, 12, 69, 0
14, 433760, Note_on_c, 12, 65, 76
14, 433760, Note_on_c, 12, 69, 76
14, 433824, Note_on_c, 12, 65, 0
14, 433824, Note_on_c, 12, 69, 0
14, 433840, Note_on_c, 12, 65, 76
14, 433840, Note_on_c, 12, 69, 76
14, 433904, Note_on_c, 12, 65, 0
14, 433904, Note_on_c, 12, 69, 0
14, 433920, Note_on_c, 12, 81, 84
14, 433920, Note_on_c, 12, 69, 84
14, 433984, Note_on_c, 12, 81, 0
14, 433984, Note_on_c, 12, 69, 0
14, 434000, Note_on_c, 12, 81, 76
14, 434000, Note_on_c, 12, 69, 76
14, 434064, Note_on_c, 12, 81, 0
14, 434064, Note_on_c, 12, 69, 0
14, 434080, Note_on_c, 12, 69, 76
14, 434080, Note_on_c, 12, 81, 76
14, 434144, Note_on_c, 12, 69, 0
14, 434144, Note_on_c, 12, 81, 0
14, 434160, Note_on_c, 12, 69, 76
14, 434160, Note_on_c, 12, 81, 76
14, 434224, Note_on_c, 12, 69, 0
14, 434224, Note_on_c, 12, 81, 0
14, 434240, Note_on_c, 12, 69, 76
14, 434240, Note_on_c, 12, 81, 76
14, 434304, Note_on_c, 12, 69, 0
14, 434304, Note_on_c, 12, 81, 0
14, 434320, Note_on_c, 12, 69, 76
14, 434320, Note_on_c, 12, 81, 76
14, 434384, Note_on_c, 12, 69, 0
14, 434384, Note_on_c, 12, 81, 0
14, 434400, Note_on_c, 12, 81, 76
14, 434400, Note_on_c, 12, 69, 76
14, 434464, Note_on_c, 12, 81, 0
14, 434464, Note_on_c, 12, 69, 0
14, 434480, Note_on_c, 12, 81, 76
14, 434480, Note_on_c, 12, 69, 76
14, 434544, Note_on_c, 12, 81, 0
14, 434544, Note_on_c, 12, 69, 0
14, 434560, Note_on_c, 12, 69, 76
14, 434560, Note_on_c, 12, 81, 76
14, 434624, Note_on_c, 12, 69, 0
14, 434624, Note_on_c, 12, 81, 0
14, 434640, Note_on_c, 12, 69, 76
14, 434640, Note_on_c, 12, 81, 76
14, 434704, Note_on_c, 12, 69, 0
14, 434704, Note_on_c, 12, 81, 0
14, 434720, Note_on_c, 12, 69, 76
14, 434720, Note_on_c, 12, 81, 76
14, 434784, Note_on_c, 12, 69, 0
14, 434784, Note_on_c, 12, 81, 0
14, 434800, Note_on_c, 12, 69, 76
14, 434800, Note_on_c, 12, 81, 76
14, 434864, Note_on_c, 12, 69, 0
14, 434864, Note_on_c, 12, 81, 0
14, 434880, Note_on_c, 12, 69, 84
14, 434880, Note_on_c, 12, 65, 84
14, 434944, Note_on_c, 12, 69, 0
14, 434944, Note_on_c, 12, 65, 0
14, 434960, Note_on_c, 12, 69, 76
14, 434960, Note_on_c, 12, 65, 76
14, 435024, Note_on_c, 12, 69, 0
14, 435024, Note_on_c, 12, 65, 0
14, 435040, Note_on_c, 12, 69, 76
14, 435040, Note_on_c, 12, 65, 76
14, 435104, Note_on_c, 12, 69, 0
14, 435104, Note_on_c, 12, 65, 0
14, 435120, Note_on_c, 12, 65, 76
14, 435120, Note_on_c, 12, 69, 76
14, 435184, Note_on_c, 12, 65, 0
14, 435184, Note_on_c, 12, 69, 0
14, 435200, Note_on_c, 12, 69, 76
14, 435200, Note_on_c, 12, 65, 76
14, 435264, Note_on_c, 12, 69, 0
14, 435264, Note_on_c, 12, 65, 0
14, 435280, Note_on_c, 12, 69, 76
14, 435280, Note_on_c, 12, 65, 76
14, 435344, Note_on_c, 12, 69, 0
14, 435344, Note_on_c, 12, 65, 0
14, 435360, Note_on_c, 12, 69, 76
14, 435360, Note_on_c, 12, 65, 76
14, 435424, Note_on_c, 12, 69, 0
14, 435424, Note_on_c, 12, 65, 0
14, 435440, Note_on_c, 12, 65, 76
14, 435440, Note_on_c, 12, 69, 76
14, 435504, Note_on_c, 12, 65, 0
14, 435504, Note_on_c, 12, 69, 0
14, 435520, Note_on_c, 12, 65, 76
14, 435520, Note_on_c, 12, 69, 76
14, 435584, Note_on_c, 12, 65, 0
14, 435584, Note_on_c, 12, 69, 0
14, 435600, Note_on_c, 12, 69, 76
14, 435600, Note_on_c, 12, 65, 76
14, 435664, Note_on_c, 12, 69, 0
14, 435664, Note_on_c, 12, 65, 0
14, 435680, Note_on_c, 12, 65, 76
14, 435680, Note_on_c, 12, 69, 76
14, 435744, Note_on_c, 12, 65, 0
14, 435744, Note_on_c, 12, 69, 0
14, 435760, Note_on_c, 12, 69, 76
14, 435760, Note_on_c, 12, 65, 76
14, 435824, Note_on_c, 12, 69, 0
14, 435824, Note_on_c, 12, 65, 0
14, 435840, Note_on_c, 12, 69, 84
14, 435840, Note_on_c, 12, 81, 84
14, 435904, Note_on_c, 12, 69, 0
14, 435904, Note_on_c, 12, 81, 0
14, 435920, Note_on_c, 12, 69, 76
14, 435920, Note_on_c, 12, 81, 76
14, 435984, Note_on_c, 12, 69, 0
14, 435984, Note_on_c, 12, 81, 0
14, 436000, Note_on_c, 12, 81, 76
14, 436000, Note_on_c, 12, 69, 76
14, 436064, Note_on_c, 12, 81, 0
14, 436064, Note_on_c, 12, 69, 0
14, 436080, Note_on_c, 12, 81, 76
14, 436080, Note_on_c, 12, 69, 76
14, 436144, Note_on_c, 12, 81, 0
14, 436144, Note_on_c, 12, 69, 0
14, 436160, Note_on_c, 12, 69, 76
14, 436160, Note_on_c, 12, 81, 76
14, 436224, Note_on_c, 12, 69, 0
14, 436224, Note_on_c, 12, 81, 0
14, 436240, Note_on_c, 12, 69, 76
14, 436240, Note_on_c, 12, 81, 76
14, 436304, Note_on_c, 12, 69, 0
14, 436304, Note_on_c, 12, 81, 0
14, 436320, Note_on_c, 12, 69, 84
14, 436320, Note_on_c, 12, 65, 84
14, 436384, Note_on_c, 12, 69, 0
14, 436384, Note_on_c, 12, 65, 0
14, 436400, Note_on_c, 12, 69, 76
14, 436400, Note_on_c, 12, 65, 76
14, 436464, Note_on_c, 12, 69, 0
14, 436464, Note_on_c, 12, 65, 0
14, 436480, Note_on_c, 12, 65, 76
14, 436480, Note_on_c, 12, 69, 76
14, 436544, Note_on_c, 12, 65, 0
14, 436544, Note_on_c, 12, 69, 0
14, 436560, Note_on_c, 12, 69, 76
14, 436560, Note_on_c, 12, 65, 76
14, 436624, Note_on_c, 12, 69, 0
14, 436624, Note_on_c, 12, 65, 0
14, 436640, Note_on_c, 12, 69, 76
14, 436640, Note_on_c, 12, 65, 76
14, 436704, Note_on_c, 12, 69, 0
14, 436704, Note_on_c, 12, 65, 0
14, 436720, Note_on_c, 12, 65, 76
14, 436720, Note_on_c, 12, 69, 76
14, 436784, Note_on_c, 12, 65, 0
14, 436784, Note_on_c, 12, 69, 0
14, 436800, Note_on_c, 12, 81, 84
14, 436800, Note_on_c, 12, 69, 84
14, 436864, Note_on_c, 12, 81, 0
14, 436864, Note_on_c, 12, 69, 0
14, 436880, Note_on_c, 12, 81, 76
14, 436880, Note_on_c, 12, 69, 76
14, 436944, Note_on_c, 12, 81, 0
14, 436944, Note_on_c, 12, 69, 0
14, 436960, Note_on_c, 12, 81, 76
14, 436960, Note_on_c, 12, 69, 76
14, 437024, Note_on_c, 12, 81, 0
14, 437024, Note_on_c, 12, 69, 0
14, 437040, Note_on_c, 12, 81, 76
14, 437040, Note_on_c, 12, 69, 76
14, 437104, Note_on_c, 12, 81, 0
14, 437104, Note_on_c, 12, 69, 0
14, 437120, Note_on_c, 12, 81, 76
14, 437120, Note_on_c, 12, 69, 76
14, 437184, Note_on_c, 12, 81, 0
14, 437184, Note_on_c, 12, 69, 0
14, 437200, Note_on_c, 12, 69, 76
14, 437200, Note_on_c, 12, 81, 76
14, 437264, Note_on_c, 12, 69, 0
14, 437264, Note_on_c, 12, 81, 0
14, 437280, Note_on_c, 12, 65, 84
14, 437280, Note_on_c, 12, 69, 84
14, 437344, Note_on_c, 12, 65, 0
14, 437344, Note_on_c, 12, 69, 0
14, 437360, Note_on_c, 12, 69, 76
14, 437360, Note_on_c, 12, 65, 76
14, 437424, Note_on_c, 12, 69, 0
14, 437424, Note_on_c, 12, 65, 0
14, 437440, Note_on_c, 12, 69, 76
14, 437440, Note_on_c, 12, 65, 76
14, 437504, Note_on_c, 12, 69, 0
14, 437504, Note_on_c, 12, 65, 0
14, 437520, Note_on_c, 12, 65, 76
14, 437520, Note_on_c, 12, 69, 76
14, 437584, Note_on_c, 12, 65, 0
14, 437584, Note_on_c, 12, 69, 0
14, 437600, Note_on_c, 12, 69, 76
14, 437600, Note_on_c, 12, 65, 76
14, 437664, Note_on_c, 12, 69, 0
14, 437664, Note_on_c, 12, 65, 0
14, 437680, Note_on_c, 12, 65, 76
14, 437680, Note_on_c, 12, 69, 76
14, 437744, Note_on_c, 12, 65, 0
14, 437744, Note_on_c, 12, 69, 0
14, 437760, Note_on_c, 12, 69, 84
14, 437760, Note_on_c, 12, 81, 84
14, 437824, Note_on_c, 12, 69, 0
14, 437824, Note_on_c, 12, 81, 0
14, 437840, Note_on_c, 12, 69, 76
14, 437840, Note_on_c, 12, 81, 76
14, 437904, Note_on_c, 12, 69, 0
14, 437904, Note_on_c, 12, 81, 0
14, 437920, Note_on_c, 12, 81, 76
14, 437920, Note_on_c, 12, 69, 76
14, 437984, Note_on_c, 12, 81, 0
14, 437984, Note_on_c, 12, 69, 0
14, 438000, Note_on_c, 12, 69, 76
14, 438000, Note_on_c, 12, 81, 76
14, 438064, Note_on_c, 12, 69, 0
14, 438064, Note_on_c, 12, 81, 0
14, 438080, Note_on_c, 12, 81, 76
14, 438080, Note_on_c, 12, 69, 76
14, 438144, Note_on_c, 12, 81, 0
14, 438144, Note_on_c, 12, 69, 0
14, 438160, Note_on_c, 12, 69, 76
14, 438160, Note_on_c, 12, 81, 76
14, 438224, Note_on_c, 12, 69, 0
14, 438224, Note_on_c, 12, 81, 0
14, 438240, Note_on_c, 12, 69, 84
14, 438240, Note_on_c, 12, 65, 84
14, 438304, Note_on_c, 12, 69, 0
14, 438304, Note_on_c, 12, 65, 0
14, 438320, Note_on_c, 12, 69, 76
14, 438320, Note_on_c, 12, 65, 76
14, 438384, Note_on_c, 12, 69, 0
14, 438384, Note_on_c, 12, 65, 0
14, 438400, Note_on_c, 12, 65, 76
14, 438400, Note_on_c, 12, 69, 76
14, 438464, Note_on_c, 12, 65, 0
14, 438464, Note_on_c, 12, 69, 0
14, 438480, Note_on_c, 12, 65, 76
14, 438480, Note_on_c, 12, 69, 76
14, 438544, Note_on_c, 12, 65, 0
14, 438544, Note_on_c, 12, 69, 0
14, 438560, Note_on_c, 12, 69, 76
14, 438560, Note_on_c, 12, 65, 76
14, 438624, Note_on_c, 12, 69, 0
14, 438624, Note_on_c, 12, 65, 0
14, 438640, Note_on_c, 12, 65, 76
14, 438640, Note_on_c, 12, 69, 76
14, 438704, Note_on_c, 12, 65, 0
14, 438704, Note_on_c, 12, 69, 0
14, 438720, Note_on_c, 12, 69, 84
14, 438720, Note_on_c, 12, 81, 84
14, 438784, Note_on_c, 12, 69, 0
14, 438784, Note_on_c, 12, 81, 0
14, 438800, Note_on_c, 12, 81, 76
14, 438800, Note_on_c, 12, 69, 76
14, 438864, Note_on_c, 12, 81, 0
14, 438864, Note_on_c, 12, 69, 0
14, 438880, Note_on_c, 12, 81, 76
14, 438880, Note_on_c, 12, 69, 76
14, 438944, Note_on_c, 12, 81, 0
14, 438944, Note_on_c, 12, 69, 0
14, 438960, Note_on_c, 12, 69, 76
14, 438960, Note_on_c, 12, 81, 76
14, 439024, Note_on_c, 12, 69, 0
14, 439024, Note_on_c, 12, 81, 0
14, 439040, Note_on_c, 12, 81, 76
14, 439040, Note_on_c, 12, 69, 76
14, 439104, Note_on_c, 12, 81, 0
14, 439104, Note_on_c, 12, 69, 0
14, 439120, Note_on_c, 12, 69, 76
14, 439120, Note_on_c, 12, 81, 76
14, 439184, Note_on_c, 12, 69, 0
14, 439184, Note_on_c, 12, 81, 0
14, 439200, Note_on_c, 12, 69, 84
14, 439200, Note_on_c, 12, 65, 84
14, 439264, Note_on_c, 12, 69, 0
14, 439264, Note_on_c, 12, 65, 0
14, 439280, Note_on_c, 12, 65, 76
14, 439280, Note_on_c, 12, 69, 76
14, 439344, Note_on_c, 12, 65, 0
14, 439344, Note_on_c, 12, 69, 0
14, 439360, Note_on_c, 12, 65, 76
14, 439360, Note_on_c, 12, 69, 76
14, 439424, Note_on_c, 12, 65, 0
14, 439424, Note_on_c, 12, 69, 0
14, 439440, Note_on_c, 12, 65, 76
14, 439440, Note_on_c, 12, 69, 76
14, 439504, Note_on_c, 12, 65, 0
14, 439504, Note_on_c, 12, 69, 0
14, 439520, Note_on_c, 12, 69, 76
14, 439520, Note_on_c, 12, 65, 76
14, 439584, Note_on_c, 12, 69, 0
14, 439584, Note_on_c, 12, 65, 0
14, 439600, Note_on_c, 12, 69, 76
14, 439600, Note_on_c, 12, 65, 76
14, 439664, Note_on_c, 12, 69, 0
14, 439664, Note_on_c, 12, 65, 0
14, 439680, Note_on_c, 12, 77, 76
14, 439744, Note_on_c, 12, 77, 0
14, 439760, Note_on_c, 12, 77, 52
14, 439824, Note_on_c, 12, 77, 0
14, 439840, Note_on_c, 12, 77, 52
14, 439904, Note_on_c, 12, 77, 0
14, 439920, Note_on_c, 12, 77, 52
14, 439984, Note_on_c, 12, 77, 0
14, 440000, Note_on_c, 12, 77, 52
14, 440064, Note_on_c, 12, 77, 0
14, 440080, Note_on_c, 12, 77, 52
14, 440144, Note_on_c, 12, 77, 0
14, 440160, Note_on_c, 12, 77, 52
14, 440224, Note_on_c, 12, 77, 0
14, 440240, Note_on_c, 12, 77, 52
14, 440304, Note_on_c, 12, 77, 0
14, 440320, Note_on_c, 12, 77, 52
14, 440384, Note_on_c, 12, 77, 0
14, 440400, Note_on_c, 12, 77, 52
14, 440464, Note_on_c, 12, 77, 0
14, 440480, Note_on_c, 12, 77, 52
14, 440544, Note_on_c, 12, 77, 0
14, 440560, Note_on_c, 12, 77, 52
14, 440624, Note_on_c, 12, 77, 0
14, 440640, Note_on_c, 12, 81, 52
14, 440704, Note_on_c, 12, 81, 0
14, 440720, Note_on_c, 12, 81, 52
14, 440784, Note_on_c, 12, 81, 0
14, 440800, Note_on_c, 12, 81, 52
14, 440864, Note_on_c, 12, 81, 0
14, 440880, Note_on_c, 12, 81, 52
14, 440944, Note_on_c, 12, 81, 0
14, 440960, Note_on_c, 12, 81, 52
14, 441024, Note_on_c, 12, 81, 0
14, 441040, Note_on_c, 12, 81, 52
14, 441104, Note_on_c, 12, 81, 0
14, 441120, Note_on_c, 12, 81, 52
14, 441184, Note_on_c, 12, 81, 0
14, 441200, Note_on_c, 12, 81, 52
14, 441264, Note_on_c, 12, 81, 0
14, 441280, Note_on_c, 12, 81, 52
14, 441344, Note_on_c, 12, 81, 0
14, 441360, Note_on_c, 12, 81, 52
14, 441424, Note_on_c, 12, 81, 0
14, 441440, Note_on_c, 12, 81, 52
14, 441504, Note_on_c, 12, 81, 0
14, 441520, Note_on_c, 12, 81, 52
14, 441584, Note_on_c, 12, 81, 0
14, 441600, Note_on_c, 12, 65, 52
14, 441664, Note_on_c, 12, 65, 0
14, 441680, Note_on_c, 12, 65, 52
14, 441744, Note_on_c, 12, 65, 0
14, 441760, Note_on_c, 12, 65, 52
14, 441824, Note_on_c, 12, 65, 0
14, 441840, Note_on_c, 12, 65, 52
14, 441904, Note_on_c, 12, 65, 0
14, 441920, Note_on_c, 12, 65, 52
14, 441984, Note_on_c, 12, 65, 0
14, 442000, Note_on_c, 12, 65, 52
14, 442064, Note_on_c, 12, 65, 0
14, 442080, Note_on_c, 12, 65, 52
14, 442144, Note_on_c, 12, 65, 0
14, 442160, Note_on_c, 12, 65, 52
14, 442224, Note_on_c, 12, 65, 0
14, 442240, Note_on_c, 12, 65, 52
14, 442304, Note_on_c, 12, 65, 0
14, 442320, Note_on_c, 12, 65, 52
14, 442384, Note_on_c, 12, 65, 0
14, 442400, Note_on_c, 12, 65, 52
14, 442464, Note_on_c, 12, 65, 0
14, 442480, Note_on_c, 12, 65, 52
14, 442544, Note_on_c, 12, 65, 0
14, 442560, Note_on_c, 12, 65, 52
14, 442624, Note_on_c, 12, 65, 0
14, 442640, Note_on_c, 12, 65, 52
14, 442704, Note_on_c, 12, 65, 0
14, 442720, Note_on_c, 12, 65, 52
14, 442784, Note_on_c, 12, 65, 0
14, 442800, Note_on_c, 12, 65, 52
14, 442864, Note_on_c, 12, 65, 0
14, 442880, Note_on_c, 12, 65, 52
14, 442944, Note_on_c, 12, 65, 0
14, 442960, Note_on_c, 12, 65, 52
14, 443024, Note_on_c, 12, 65, 0
14, 443040, Note_on_c, 12, 65, 52
14, 443104, Note_on_c, 12, 65, 0
14, 443120, Note_on_c, 12, 65, 52
14, 443184, Note_on_c, 12, 65, 0
14, 443200, Note_on_c, 12, 65, 52
14, 443264, Note_on_c, 12, 65, 0
14, 443280, Note_on_c, 12, 65, 52
14, 443344, Note_on_c, 12, 65, 0
14, 443360, Note_on_c, 12, 65, 52
14, 443424, Note_on_c, 12, 65, 0
14, 443440, Note_on_c, 12, 65, 52
14, 443504, Note_on_c, 12, 65, 0
14, 443520, Note_on_c, 12, 65, 52
14, 443584, Note_on_c, 12, 65, 0
14, 443600, Note_on_c, 12, 65, 52
14, 443664, Note_on_c, 12, 65, 0
14, 443680, Note_on_c, 12, 65, 52
14, 443744, Note_on_c, 12, 65, 0
14, 443760, Note_on_c, 12, 65, 52
14, 443824, Note_on_c, 12, 65, 0
14, 443840, Note_on_c, 12, 65, 52
14, 443904, Note_on_c, 12, 65, 0
14, 443920, Note_on_c, 12, 65, 52
14, 443984, Note_on_c, 12, 65, 0
14, 444000, Note_on_c, 12, 65, 52
14, 444064, Note_on_c, 12, 65, 0
14, 444080, Note_on_c, 12, 65, 52
14, 444144, Note_on_c, 12, 65, 0
14, 444160, Note_on_c, 12, 65, 52
14, 444224, Note_on_c, 12, 65, 0
14, 444240, Note_on_c, 12, 65, 52
14, 444304, Note_on_c, 12, 65, 0
14, 444320, Note_on_c, 12, 65, 52
14, 444384, Note_on_c, 12, 65, 0
14, 444400, Note_on_c, 12, 65, 52
14, 444464, Note_on_c, 12, 65, 0
14, 444480, Note_on_c, 12, 65, 52
14, 444544, Note_on_c, 12, 65, 0
14, 444560, Note_on_c, 12, 65, 52
14, 444624, Note_on_c, 12, 65, 0
14, 444640, Note_on_c, 12, 65, 52
14, 444704, Note_on_c, 12, 65, 0
14, 444720, Note_on_c, 12, 65, 52
14, 444784, Note_on_c, 12, 65, 0
14, 444800, Note_on_c, 12, 65, 52
14, 444864, Note_on_c, 12, 65, 0
14, 444880, Note_on_c, 12, 65, 52
14, 444944, Note_on_c, 12, 65, 0
14, 444960, Note_on_c, 12, 65, 52
14, 445024, Note_on_c, 12, 65, 0
14, 445040, Note_on_c, 12, 65, 52
14, 445104, Note_on_c, 12, 65, 0
14, 445120, Note_on_c, 12, 65, 52
14, 445184, Note_on_c, 12, 65, 0
14, 445200, Note_on_c, 12, 65, 52
14, 445264, Note_on_c, 12, 65, 0
14, 445280, Note_on_c, 12, 65, 52
14, 445344, Note_on_c, 12, 65, 0
14, 445360, Note_on_c, 12, 65, 52
14, 445424, Note_on_c, 12, 65, 0
14, 445440, Note_on_c, 12, 65, 52
14, 445504, Note_on_c, 12, 65, 0
14, 445520, Note_on_c, 12, 65, 52
14, 445584, Note_on_c, 12, 65, 0
14, 445600, Note_on_c, 12, 65, 52
14, 445664, Note_on_c, 12, 65, 0
14, 445680, Note_on_c, 12, 65, 52
14, 445744, Note_on_c, 12, 65, 0
14, 445760, Note_on_c, 12, 65, 52
14, 445824, Note_on_c, 12, 65, 0
14, 445840, Note_on_c, 12, 65, 52
14, 445904, Note_on_c, 12, 65, 0
14, 445920, Note_on_c, 12, 65, 52
14, 445984, Note_on_c, 12, 65, 0
14, 446000, Note_on_c, 12, 65, 52
14, 446064, Note_on_c, 12, 65, 0
14, 446080, Note_on_c, 12, 65, 52
14, 446144, Note_on_c, 12, 65, 0
14, 446160, Note_on_c, 12, 65, 52
14, 446224, Note_on_c, 12, 65, 0
14, 446240, Note_on_c, 12, 65, 52
14, 446304, Note_on_c, 12, 65, 0
14, 446320, Note_on_c, 12, 65, 52
14, 446384, Note_on_c, 12, 65, 0
14, 446400, Note_on_c, 12, 81, 52
14, 446464, Note_on_c, 12, 81, 0
14, 446480, Note_on_c, 12, 81, 52
14, 446544, Note_on_c, 12, 81, 0
14, 446560, Note_on_c, 12, 81, 52
14, 446624, Note_on_c, 12, 81, 0
14, 446640, Note_on_c, 12, 81, 52
14, 446704, Note_on_c, 12, 81, 0
14, 446720, Note_on_c, 12, 81, 52
14, 446784, Note_on_c, 12, 81, 0
14, 446800, Note_on_c, 12, 81, 52
14, 446864, Note_on_c, 12, 81, 0
14, 446880, Note_on_c, 12, 81, 52
14, 446944, Note_on_c, 12, 81, 0
14, 446960, Note_on_c, 12, 81, 52
14, 447024, Note_on_c, 12, 81, 0
14, 447040, Note_on_c, 12, 81, 52
14, 447104, Note_on_c, 12, 81, 0
14, 447120, Note_on_c, 12, 81, 52
14, 447184, Note_on_c, 12, 81, 0
14, 447200, Note_on_c, 12, 81, 52
14, 447264, Note_on_c, 12, 81, 0
14, 447280, Note_on_c, 12, 81, 52
14, 447344, Note_on_c, 12, 81, 0
14, 447360, Note_on_c, 12, 77, 52
14, 447424, Note_on_c, 12, 77, 0
14, 447440, Note_on_c, 12, 77, 52
14, 447504, Note_on_c, 12, 77, 0
14, 447520, Note_on_c, 12, 77, 52
14, 447584, Note_on_c, 12, 77, 0
14, 447600, Note_on_c, 12, 77, 52
14, 447664, Note_on_c, 12, 77, 0
14, 447680, Note_on_c, 12, 77, 52
14, 447744, Note_on_c, 12, 77, 0
14, 447760, Note_on_c, 12, 77, 52
14, 447824, Note_on_c, 12, 77, 0
14, 447840, Note_on_c, 12, 81, 52
14, 447904, Note_on_c, 12, 81, 0
14, 447920, Note_on_c, 12, 81, 52
14, 447984, Note_on_c, 12, 81, 0
14, 448000, Note_on_c, 12, 81, 52
14, 448064, Note_on_c, 12, 81, 0
14, 448080, Note_on_c, 12, 81, 52
14, 448144, Note_on_c, 12, 81, 0
14, 448160, Note_on_c, 12, 81, 52
14, 448224, Note_on_c, 12, 81, 0
14, 448240, Note_on_c, 12, 81, 52
14, 448304, Note_on_c, 12, 81, 0
14, 448320, Note_on_c, 12, 65, 52
14, 448384, Note_on_c, 12, 65, 0
14, 448400, Note_on_c, 12, 65, 52
14, 448464, Note_on_c, 12, 65, 0
14, 448480, Note_on_c, 12, 65, 52
14, 448544, Note_on_c, 12, 65, 0
14, 448560, Note_on_c, 12, 65, 52
14, 448624, Note_on_c, 12, 65, 0
14, 448640, Note_on_c, 12, 65, 52
14, 448704, Note_on_c, 12, 65, 0
14, 448720, Note_on_c, 12, 65, 52
14, 448784, Note_on_c, 12, 65, 0
14, 448800, Note_on_c, 12, 65, 52
14, 448864, Note_on_c, 12, 65, 0
14, 448880, Note_on_c, 12, 65, 52
14, 448944, Note_on_c, 12, 65, 0
14, 448960, Note_on_c, 12, 65, 52
14, 449024, Note_on_c, 12, 65, 0
14, 449040, Note_on_c, 12, 65, 52
14, 449104, Note_on_c, 12, 65, 0
14, 449120, Note_on_c, 12, 65, 52
14, 449184, Note_on_c, 12, 65, 0
14, 449200, Note_on_c, 12, 65, 52
14, 449264, Note_on_c, 12, 65, 0
14, 449280, Note_on_c, 12, 65, 52
14, 449344, Note_on_c, 12, 65, 0
14, 449360, Note_on_c, 12, 65, 52
14, 449424, Note_on_c, 12, 65, 0
14, 449440, Note_on_c, 12, 65, 52
14, 449504, Note_on_c, 12, 65, 0
14, 449520, Note_on_c, 12, 65, 52
14, 449584, Note_on_c, 12, 65, 0
14, 449600, Note_on_c, 12, 65, 52
14, 449664, Note_on_c, 12, 65, 0
14, 449680, Note_on_c, 12, 65, 52
14, 449744, Note_on_c, 12, 65, 0
14, 449760, Note_on_c, 12, 65, 52
14, 449824, Note_on_c, 12, 65, 0
14, 449840, Note_on_c, 12, 65, 52
14, 449904, Note_on_c, 12, 65, 0
14, 449920, Note_on_c, 12, 65, 52
14, 449984, Note_on_c, 12, 65, 0
14, 450000, Note_on_c, 12, 65, 52
14, 450064, Note_on_c, 12, 65, 0
14, 450080, Note_on_c, 12, 65, 52
14, 450144, Note_on_c, 12, 65, 0
14, 450160, Note_on_c, 12, 65, 52
14, 450224, Note_on_c, 12, 65, 0
14, 450240, Note_on_c, 12, 65, 52
14, 450304, Note_on_c, 12, 65, 0
14, 450320, Note_on_c, 12, 65, 52
14, 450384, Note_on_c, 12, 65, 0
14, 450400, Note_on_c, 12, 65, 52
14, 450464, Note_on_c, 12, 65, 0
14, 450480, Note_on_c, 12, 65, 52
14, 450544, Note_on_c, 12, 65, 0
14, 450560, Note_on_c, 12, 65, 52
14, 450624, Note_on_c, 12, 65, 0
14, 450640, Note_on_c, 12, 65, 52
14, 450704, Note_on_c, 12, 65, 0
14, 450720, Note_on_c, 12, 81, 52
14, 450784, Note_on_c, 12, 81, 0
14, 450800, Note_on_c, 12, 81, 52
14, 450864, Note_on_c, 12, 81, 0
14, 450880, Note_on_c, 12, 81, 52
14, 450944, Note_on_c, 12, 81, 0
14, 450960, Note_on_c, 12, 81, 52
14, 451024, Note_on_c, 12, 81, 0
14, 451040, Note_on_c, 12, 81, 52
14, 451104, Note_on_c, 12, 81, 0
14, 451120, Note_on_c, 12, 81, 52
14, 451184, Note_on_c, 12, 81, 0
14, 451200, Note_on_c, 12, 81, 52
14, 451439, Note_on_c, 12, 81, 0
14, 453120, Note_on_c, 12, 65, 44
14, 453239, Note_on_c, 12, 65, 0
14, 453240, Note_on_c, 12, 67, 44
14, 453339, Note_on_c, 12, 67, 0
14, 453360, Note_on_c, 12, 60, 44
14, 453519, Note_on_c, 12, 60, 0
14, 453600, Note_on_c, 12, 65, 44
14, 453719, Note_on_c, 12, 65, 0
14, 453720, Note_on_c, 12, 67, 44
14, 453819, Note_on_c, 12, 67, 0
14, 453840, Note_on_c, 12, 60, 44
14, 453999, Note_on_c, 12, 60, 0
14, 454080, Note_on_c, 12, 65, 44
14, 454199, Note_on_c, 12, 65, 0
14, 454200, Note_on_c, 12, 67, 44
14, 454299, Note_on_c, 12, 67, 0
14, 454320, Note_on_c, 12, 60, 44
14, 454479, Note_on_c, 12, 60, 0
14, 454560, Note_on_c, 12, 65, 44
14, 454679, Note_on_c, 12, 65, 0
14, 454680, Note_on_c, 12, 67, 44
14, 454779, Note_on_c, 12, 67, 0
14, 454800, Note_on_c, 12, 60, 44
14, 454959, Note_on_c, 12, 60, 0
14, 455040, Note_on_c, 12, 65, 44
14, 455279, Note_on_c, 12, 65, 0
14, 456960, Note_on_c, 12, 69, 44
14, 457079, Note_on_c, 12, 69, 0
14, 457080, Note_on_c, 12, 70, 45
14, 457179, Note_on_c, 12, 70, 0
14, 457200, Note_on_c, 12, 67, 46
14, 457359, Note_on_c, 12, 67, 0
14, 457440, Note_on_c, 12, 69, 48
14, 457559, Note_on_c, 12, 69, 0
14, 457560, Note_on_c, 12, 70, 49
14, 457659, Note_on_c, 12, 70, 0
14, 457680, Note_on_c, 12, 67, 50
14, 457839, Note_on_c, 12, 67, 0
14, 457920, Note_on_c, 12, 69, 52
14, 458039, Note_on_c, 12, 69, 0
14, 458040, Note_on_c, 12, 70, 53
14, 458139, Note_on_c, 12, 70, 0
14, 458160, Note_on_c, 12, 67, 54
14, 458319, Note_on_c, 12, 67, 0
14, 458400, Note_on_c, 12, 69, 56
14, 458519, Note_on_c, 12, 69, 0
14, 458520, Note_on_c, 12, 70, 57
14, 458619, Note_on_c, 12, 70, 0
14, 458640, Note_on_c, 12, 67, 58
14, 458799, Note_on_c, 12, 67, 0
14, 458880, Note_on_c, 12, 74, 60
14, 458999, Note_on_c, 12, 74, 0
14, 459000, Note_on_c, 12, 76, 61
14, 459099, Note_on_c, 12, 76, 0
14, 459120, Note_on_c, 12, 72, 62
14, 459279, Note_on_c, 12, 72, 0
14, 459360, Note_on_c, 12, 74, 64
14, 459479, Note_on_c, 12, 74, 0
14, 459480, Note_on_c, 12, 76, 65
14, 459579, Note_on_c, 12, 76, 0
14, 459600, Note_on_c, 12, 72, 66
14, 459759, Note_on_c, 12, 72, 0
14, 459840, Note_on_c, 12, 74, 68
14, 459959, Note_on_c, 12, 74, 0
14, 459960, Note_on_c, 12, 76, 69
14, 460059, Note_on_c, 12, 76, 0
14, 460080, Note_on_c, 12, 72, 70
14, 460239, Note_on_c, 12, 72, 0
14, 460320, Note_on_c, 12, 74, 72
14, 460439, Note_on_c, 12, 74, 0
14, 460440, Note_on_c, 12, 76, 73
14, 460539, Note_on_c, 12, 76, 0
14, 460560, Note_on_c, 12, 72, 74
14, 460719, Note_on_c, 12, 72, 0
14, 460800, Note_on_c, 12, 77, 76
14, 460800, Note_on_c, 12, 69, 76
14, 460864, Note_on_c, 12, 77, 0
14, 460864, Note_on_c, 12, 69, 0
14, 460880, Note_on_c, 12, 77, 76
14, 460880, Note_on_c, 12, 69, 76
14, 460944, Note_on_c, 12, 77, 0
14, 460944, Note_on_c, 12, 69, 0
14, 460960, Note_on_c, 12, 77, 76
14, 460960, Note_on_c, 12, 69, 76
14, 461024, Note_on_c, 12, 77, 0
14, 461024, Note_on_c, 12, 69, 0
14, 461040, Note_on_c, 12, 69, 76
14, 461040, Note_on_c, 12, 77, 76
14, 461104, Note_on_c, 12, 69, 0
14, 461104, Note_on_c, 12, 77, 0
14, 461120, Note_on_c, 12, 77, 76
14, 461120, Note_on_c, 12, 69, 76
14, 461184, Note_on_c, 12, 77, 0
14, 461184, Note_on_c, 12, 69, 0
14, 461200, Note_on_c, 12, 77, 76
14, 461200, Note_on_c, 12, 69, 76
14, 461264, Note_on_c, 12, 77, 0
14, 461264, Note_on_c, 12, 69, 0
14, 461280, Note_on_c, 12, 69, 76
14, 461280, Note_on_c, 12, 77, 76
14, 461344, Note_on_c, 12, 69, 0
14, 461344, Note_on_c, 12, 77, 0
14, 461360, Note_on_c, 12, 77, 76
14, 461360, Note_on_c, 12, 69, 76
14, 461424, Note_on_c, 12, 77, 0
14, 461424, Note_on_c, 12, 69, 0
14, 461440, Note_on_c, 12, 69, 76
14, 461440, Note_on_c, 12, 77, 76
14, 461504, Note_on_c, 12, 69, 0
14, 461504, Note_on_c, 12, 77, 0
14, 461520, Note_on_c, 12, 69, 76
14, 461520, Note_on_c, 12, 77, 76
14, 461584, Note_on_c, 12, 69, 0
14, 461584, Note_on_c, 12, 77, 0
14, 461600, Note_on_c, 12, 69, 76
14, 461600, Note_on_c, 12, 77, 76
14, 461664, Note_on_c, 12, 69, 0
14, 461664, Note_on_c, 12, 77, 0
14, 461680, Note_on_c, 12, 69, 76
14, 461680, Note_on_c, 12, 77, 76
14, 461744, Note_on_c, 12, 69, 0
14, 461744, Note_on_c, 12, 77, 0
14, 461760, Note_on_c, 12, 69, 76
14, 461760, Note_on_c, 12, 77, 76
14, 461824, Note_on_c, 12, 69, 0
14, 461824, Note_on_c, 12, 77, 0
14, 461840, Note_on_c, 12, 77, 76
14, 461840, Note_on_c, 12, 69, 76
14, 461904, Note_on_c, 12, 77, 0
14, 461904, Note_on_c, 12, 69, 0
14, 461920, Note_on_c, 12, 77, 76
14, 461920, Note_on_c, 12, 69, 76
14, 461984, Note_on_c, 12, 77, 0
14, 461984, Note_on_c, 12, 69, 0
14, 462000, Note_on_c, 12, 77, 76
14, 462000, Note_on_c, 12, 69, 76
14, 462064, Note_on_c, 12, 77, 0
14, 462064, Note_on_c, 12, 69, 0
14, 462080, Note_on_c, 12, 77, 76
14, 462080, Note_on_c, 12, 69, 76
14, 462144, Note_on_c, 12, 77, 0
14, 462144, Note_on_c, 12, 69, 0
14, 462160, Note_on_c, 12, 77, 76
14, 462160, Note_on_c, 12, 69, 76
14, 462224, Note_on_c, 12, 77, 0
14, 462224, Note_on_c, 12, 69, 0
14, 462240, Note_on_c, 12, 69, 76
14, 462240, Note_on_c, 12, 77, 76
14, 462304, Note_on_c, 12, 69, 0
14, 462304, Note_on_c, 12, 77, 0
14, 462320, Note_on_c, 12, 77, 76
14, 462320, Note_on_c, 12, 69, 76
14, 462384, Note_on_c, 12, 77, 0
14, 462384, Note_on_c, 12, 69, 0
14, 462400, Note_on_c, 12, 77, 76
14, 462400, Note_on_c, 12, 69, 76
14, 462464, Note_on_c, 12, 77, 0
14, 462464, Note_on_c, 12, 69, 0
14, 462480, Note_on_c, 12, 69, 76
14, 462480, Note_on_c, 12, 77, 76
14, 462544, Note_on_c, 12, 69, 0
14, 462544, Note_on_c, 12, 77, 0
14, 462560, Note_on_c, 12, 77, 76
14, 462560, Note_on_c, 12, 69, 76
14, 462624, Note_on_c, 12, 77, 0
14, 462624, Note_on_c, 12, 69, 0
14, 462640, Note_on_c, 12, 69, 76
14, 462640, Note_on_c, 12, 77, 76
14, 462704, Note_on_c, 12, 69, 0
14, 462704, Note_on_c, 12, 77, 0
14, 462720, Note_on_c, 12, 69, 76
14, 462720, Note_on_c, 12, 77, 76
14, 462959, Note_on_c, 12, 69, 0
14, 462959, Note_on_c, 12, 77, 0
14, 463680, Note_on_c, 12, 79, 76
14, 463680, Note_on_c, 12, 72, 76
14, 463680, Note_on_c, 12, 64, 76
14, 463919, Note_on_c, 12, 79, 0
14, 463919, Note_on_c, 12, 72, 0
14, 463919, Note_on_c, 12, 64, 0
14, 464640, Note_on_c, 12, 69, 76
14, 464640, Note_on_c, 12, 77, 76
14, 464879, Note_on_c, 12, 69, 0
14, 464879, Note_on_c, 12, 77, 0
14, 465600, Note_on_c, 12, 79, 76
14, 465600, Note_on_c, 12, 64, 76
14, 465600, Note_on_c, 12, 72, 76
14, 465839, Note_on_c, 12, 79, 0
14, 465839, Note_on_c, 12, 64, 0
14, 465839, Note_on_c, 12, 72, 0
14, 466560, Note_on_c, 12, 69, 76
14, 466560, Note_on_c, 12, 77, 76
14, 466799, Note_on_c, 12, 69, 0
14, 466799, Note_on_c, 12, 77, 0
14, 467040, Note_on_c, 12, 72, 76
14, 467040, Note_on_c, 12, 79, 76
14, 467040, Note_on_c, 12, 64, 76
14, 467279, Note_on_c, 12, 72, 0
14, 467279, Note_on_c, 12, 79, 0
14, 467279, Note_on_c, 12, 64, 0
14, 467520, Note_on_c, 12, 77, 76
14, 467520, Note_on_c, 12, 69, 76
14, 467759, Note_on_c, 12, 77, 0
14, 467759, Note_on_c, 12, 69, 0
14, 468000, Note_on_c, 12, 72, 76
14, 468000, Note_on_c, 12, 79, 76
14, 468000, Note_on_c, 12, 64, 76
14, 468239, Note_on_c, 12, 72, 0
14, 468239, Note_on_c, 12, 79, 0
14, 468239, Note_on_c, 12, 64, 0
14, 468480, Note_on_c, 12, 77, 76
14, 468480, Note_on_c, 12, 69, 76
14, 468719, Note_on_c, 12, 77, 0
14, 468719, Note_on_c, 12, 69, 0
14, 468960, Note_on_c, 12, 72, 76
14, 468960, Note_on_c, 12, 79, 76
14, 468960, Note_on_c, 12, 64, 76
14, 469199, Note_on_c, 12, 72, 0
14, 469199, Note_on_c, 12, 79, 0
14, 469199, Note_on_c, 12, 64, 0
14, 469440, Note_on_c, 12, 69, 76
14, 469440, Note_on_c, 12, 77, 76
14, 469679, Note_on_c, 12, 69, 0
14, 469679, Note_on_c, 12, 77, 0
14, 469920, Note_on_c, 12, 64, 76
14, 469920, Note_on_c, 12, 72, 76
14, 469920, Note_on_c, 12, 79, 76
14, 470159, Note_on_c, 12, 64, 0
14, 470159, Note_on_c, 12, 72, 0
14, 470159, Note_on_c, 12, 79, 0
14, 470400, Note_on_c, 12, 69, 84
14, 470400, Note_on_c, 12, 77, 84
14, 470464, Note_on_c, 12, 69, 0
14, 470464, Note_on_c, 12, 77, 0
14, 470480, Note_on_c, 12, 69, 84
14, 470480, Note_on_c, 12, 81, 84
14, 470544, Note_on_c, 12, 69, 0
14, 470544, Note_on_c, 12, 81, 0
14, 470560, Note_on_c, 12, 81, 84
14, 470560, Note_on_c, 12, 69, 84
14, 470624, Note_on_c, 12, 81, 0
14, 470624, Note_on_c, 12, 69, 0
14, 470640, Note_on_c, 12, 81, 84
14, 470640, Note_on_c, 12, 69, 84
14, 470704, Note_on_c, 12, 81, 0
14, 470704, Note_on_c, 12, 69, 0
14, 470720, Note_on_c, 12, 69, 84
14, 470720, Note_on_c, 12, 81, 84
14, 470784, Note_on_c, 12, 69, 0
14, 470784, Note_on_c, 12, 81, 0
14, 470800, Note_on_c, 12, 81, 84
14, 470800, Note_on_c, 12, 69, 84
14, 470864, Note_on_c, 12, 81, 0
14, 470864, Note_on_c, 12, 69, 0
14, 470880, Note_on_c, 12, 81, 84
14, 470880, Note_on_c, 12, 69, 84
14, 470944, Note_on_c, 12, 81, 0
14, 470944, Note_on_c, 12, 69, 0
14, 470960, Note_on_c, 12, 81, 84
14, 470960, Note_on_c, 12, 69, 84
14, 471024, Note_on_c, 12, 81, 0
14, 471024, Note_on_c, 12, 69, 0
14, 471040, Note_on_c, 12, 69, 84
14, 471040, Note_on_c, 12, 81, 84
14, 471104, Note_on_c, 12, 69, 0
14, 471104, Note_on_c, 12, 81, 0
14, 471120, Note_on_c, 12, 81, 84
14, 471120, Note_on_c, 12, 69, 84
14, 471184, Note_on_c, 12, 81, 0
14, 471184, Note_on_c, 12, 69, 0
14, 471200, Note_on_c, 12, 81, 84
14, 471200, Note_on_c, 12, 69, 84
14, 471264, Note_on_c, 12, 81, 0
14, 471264, Note_on_c, 12, 69, 0
14, 471280, Note_on_c, 12, 81, 84
14, 471280, Note_on_c, 12, 69, 84
14, 471344, Note_on_c, 12, 81, 0
14, 471344, Note_on_c, 12, 69, 0
14, 471360, Note_on_c, 12, 69, 84
14, 471360, Note_on_c, 12, 81, 84
14, 471424, Note_on_c, 12, 69, 0
14, 471424, Note_on_c, 12, 81, 0
14, 471440, Note_on_c, 12, 81, 84
14, 471440, Note_on_c, 12, 69, 84
14, 471504, Note_on_c, 12, 81, 0
14, 471504, Note_on_c, 12, 69, 0
14, 471520, Note_on_c, 12, 81, 84
14, 471520, Note_on_c, 12, 69, 84
14, 471584, Note_on_c, 12, 81, 0
14, 471584, Note_on_c, 12, 69, 0
14, 471600, Note_on_c, 12, 81, 84
14, 471600, Note_on_c, 12, 69, 84
14, 471664, Note_on_c, 12, 81, 0
14, 471664, Note_on_c, 12, 69, 0
14, 471680, Note_on_c, 12, 81, 84
14, 471680, Note_on_c, 12, 69, 84
14, 471744, Note_on_c, 12, 81, 0
14, 471744, Note_on_c, 12, 69, 0
14, 471760, Note_on_c, 12, 69, 84
14, 471760, Note_on_c, 12, 81, 84
14, 471824, Note_on_c, 12, 69, 0
14, 471824, Note_on_c, 12, 81, 0
14, 471840, Note_on_c, 12, 81, 84
14, 471840, Note_on_c, 12, 69, 84
14, 471904, Note_on_c, 12, 81, 0
14, 471904, Note_on_c, 12, 69, 0
14, 471920, Note_on_c, 12, 69, 84
14, 471920, Note_on_c, 12, 81, 84
14, 471984, Note_on_c, 12, 69, 0
14, 471984, Note_on_c, 12, 81, 0
14, 472000, Note_on_c, 12, 69, 84
14, 472000, Note_on_c, 12, 81, 84
14, 472064, Note_on_c, 12, 69, 0
14, 472064, Note_on_c, 12, 81, 0
14, 472080, Note_on_c, 12, 69, 84
14, 472080, Note_on_c, 12, 81, 84
14, 472144, Note_on_c, 12, 69, 0
14, 472144, Note_on_c, 12, 81, 0
14, 472160, Note_on_c, 12, 81, 84
14, 472160, Note_on_c, 12, 69, 84
14, 472224, Note_on_c, 12, 81, 0
14, 472224, Note_on_c, 12, 69, 0
14, 472240, Note_on_c, 12, 81, 84
14, 472240, Note_on_c, 12, 69, 84
14, 472304, Note_on_c, 12, 81, 0
14, 472304, Note_on_c, 12, 69, 0
14, 472320, Note_on_c, 12, 81, 84
14, 472320, Note_on_c, 12, 69, 84
14, 472559, Note_on_c, 12, 81, 0
14, 472559, Note_on_c, 12, 69, 0
14, 473280, Note_on_c, 12, 81, 84
14, 473280, Note_on_c, 12, 69, 84
14, 473519, Note_on_c, 12, 81, 0
14, 473519, Note_on_c, 12, 69, 0
14, 474240, Note_on_c, 12, 81, 84
14, 474240, Note_on_c, 12, 69, 84
14, 474479, Note_on_c, 12, 81, 0
14, 474479, Note_on_c, 12, 69, 0
14, 475200, Note_on_c, 12, 69, 84
14, 475200, Note_on_c, 12, 81, 84
14, 475439, Note_on_c, 12, 69, 0
14, 475439, Note_on_c, 12, 81, 0
14, 476160, Note_on_c, 12, 69, 84
14, 476160, Note_on_c, 12, 81, 84
14, 476399, Note_on_c, 12, 69, 0
14, 476399, Note_on_c, 12, 81, 0
14, 476640, Note_on_c, 12, 81, 84
14, 476640, Note_on_c, 12, 69, 84
14, 476879, Note_on_c, 12, 81, 0
14, 476879, Note_on_c, 12, 69, 0
14, 477120, Note_on_c, 12, 81, 84
14, 477120, Note_on_c, 12, 69, 84
14, 477359, Note_on_c, 12, 81, 0
14, 477359, Note_on_c, 12, 69, 0
14, 477600, Note_on_c, 12, 81, 84
14, 477600, Note_on_c, 12, 69, 84
14, 477839, Note_on_c, 12, 81, 0
14, 477839, Note_on_c, 12, 69, 0
14, 478080, Note_on_c, 12, 81, 84
14, 478080, Note_on_c, 12, 69, 84
14, 478319, Note_on_c, 12, 81, 0
14, 478319, Note_on_c, 12, 69, 0
14, 478560, Note_on_c, 12, 81, 84
14, 478560, Note_on_c, 12, 69, 84
14, 478799, Note_on_c, 12, 81, 0
14, 478799, Note_on_c, 12, 69, 0
14, 479040, Note_on_c, 12, 81, 84
14, 479040, Note_on_c, 12, 69, 84
14, 479279, Note_on_c, 12, 81, 0
14, 479279, Note_on_c, 12, 69, 0
14, 479520, Note_on_c, 12, 81, 84
14, 479520, Note_on_c, 12, 69, 84
14, 479759, Note_on_c, 12, 81, 0
14, 479759, Note_on_c, 12, 69, 0
14, 480000, Note_on_c, 12, 69, 84
14, 480000, Note_on_c, 12, 81, 84
14, 480239, Note_on_c, 12, 69, 0
14, 480239, Note_on_c, 12, 81, 0
14, 480960, Note_on_c, 12, 81, 84
14, 480960, Note_on_c, 12, 69, 84
14, 481199, Note_on_c, 12, 81, 0
14, 481199, Note_on_c, 12, 69, 0
14, 481920, Note_on_c, 12, 69, 84
14, 481920, Note_on_c, 12, 77, 84
14, 482159, Note_on_c, 12, 69, 0
14, 482159, Note_on_c, 12, 77, 0
14, 482159, End_track
15, 0, Start_track
15, 0, Title_t, "Viola "
15, 0, MIDI_port, 0
15, 0, Program_c, 13, 48
15, 0, Control_c, 13, 11, 127
15, 0, Control_c, 13, 10, 70
15, 0, Control_c, 13, 7, 96
15, 1440, Note_on_c, 13, 53, 44
15, 1440, Note_on_c, 13, 57, 44
15, 1559, Note_on_c, 13, 53, 0
15, 1559, Note_on_c, 13, 57, 0
15, 1560, Note_on_c, 13, 55, 44
15, 1560, Note_on_c, 13, 58, 44
15, 1659, Note_on_c, 13, 55, 0
15, 1659, Note_on_c, 13, 58, 0
15, 1680, Note_on_c, 13, 55, 44
15, 1680, Note_on_c, 13, 48, 44
15, 1839, Note_on_c, 13, 55, 0
15, 1839, Note_on_c, 13, 48, 0
15, 3360, Note_on_c, 13, 58, 44
15, 3360, Note_on_c, 13, 55, 44
15, 3479, Note_on_c, 13, 58, 0
15, 3479, Note_on_c, 13, 55, 0
15, 3480, Note_on_c, 13, 57, 44
15, 3480, Note_on_c, 13, 60, 44
15, 3579, Note_on_c, 13, 57, 0
15, 3579, Note_on_c, 13, 60, 0
15, 3600, Note_on_c, 13, 53, 44
15, 3600, Note_on_c, 13, 57, 44
15, 3759, Note_on_c, 13, 53, 0
15, 3759, Note_on_c, 13, 57, 0
15, 4320, Note_on_c, 13, 69, 44
15, 4384, Note_on_c, 13, 69, 0
15, 4400, Note_on_c, 13, 69, 44
15, 4464, Note_on_c, 13, 69, 0
15, 4480, Note_on_c, 13, 69, 44
15, 4544, Note_on_c, 13, 69, 0
15, 4560, Note_on_c, 13, 67, 44
15, 4624, Note_on_c, 13, 67, 0
15, 4640, Note_on_c, 13, 67, 44
15, 4704, Note_on_c, 13, 67, 0
15, 4720, Note_on_c, 13, 67, 44
15, 4784, Note_on_c, 13, 67, 0
15, 4800, Note_on_c, 13, 65, 44
15, 4864, Note_on_c, 13, 65, 0
15, 4880, Note_on_c, 13, 65, 44
15, 4944, Note_on_c, 13, 65, 0
15, 4960, Note_on_c, 13, 65, 44
15, 5024, Note_on_c, 13, 65, 0
15, 5040, Note_on_c, 13, 65, 44
15, 5104, Note_on_c, 13, 65, 0
15, 5120, Note_on_c, 13, 65, 44
15, 5184, Note_on_c, 13, 65, 0
15, 5200, Note_on_c, 13, 65, 44
15, 5264, Note_on_c, 13, 65, 0
15, 5280, Note_on_c, 13, 65, 44
15, 5344, Note_on_c, 13, 65, 0
15, 5360, Note_on_c, 13, 65, 44
15, 5424, Note_on_c, 13, 65, 0
15, 5440, Note_on_c, 13, 65, 44
15, 5504, Note_on_c, 13, 65, 0
15, 5520, Note_on_c, 13, 64, 44
15, 5584, Note_on_c, 13, 64, 0
15, 5600, Note_on_c, 13, 64, 44
15, 5664, Note_on_c, 13, 64, 0
15, 5680, Note_on_c, 13, 64, 44
15, 5744, Note_on_c, 13, 64, 0
15, 5760, Note_on_c, 13, 62, 44
15, 5824, Note_on_c, 13, 62, 0
15, 5840, Note_on_c, 13, 74, 44
15, 5904, Note_on_c, 13, 74, 0
15, 5920, Note_on_c, 13, 74, 44
15, 5984, Note_on_c, 13, 74, 0
15, 6000, Note_on_c, 13, 74, 44
15, 6064, Note_on_c, 13, 74, 0
15, 6080, Note_on_c, 13, 74, 44
15, 6144, Note_on_c, 13, 74, 0
15, 6160, Note_on_c, 13, 74, 44
15, 6224, Note_on_c, 13, 74, 0
15, 6240, Note_on_c, 13, 74, 44
15, 6304, Note_on_c, 13, 74, 0
15, 6320, Note_on_c, 13, 74, 44
15, 6384, Note_on_c, 13, 74, 0
15, 6400, Note_on_c, 13, 74, 44
15, 6464, Note_on_c, 13, 74, 0
15, 6480, Note_on_c, 13, 72, 44
15, 6544, Note_on_c, 13, 72, 0
15, 6560, Note_on_c, 13, 72, 44
15, 6624, Note_on_c, 13, 72, 0
15, 6640, Note_on_c, 13, 72, 44
15, 6704, Note_on_c, 13, 72, 0
15, 6720, Note_on_c, 13, 70, 44
15, 6784, Note_on_c, 13, 70, 0
15, 6800, Note_on_c, 13, 70, 44
15, 6864, Note_on_c, 13, 70, 0
15, 6880, Note_on_c, 13, 70, 44
15, 6944, Note_on_c, 13, 70, 0
15, 6960, Note_on_c, 13, 69, 44
15, 7024, Note_on_c, 13, 69, 0
15, 7040, Note_on_c, 13, 69, 44
15, 7104, Note_on_c, 13, 69, 0
15, 7120, Note_on_c, 13, 69, 44
15, 7184, Note_on_c, 13, 69, 0
15, 7200, Note_on_c, 13, 70, 44
15, 7264, Note_on_c, 13, 70, 0
15, 7280, Note_on_c, 13, 70, 44
15, 7344, Note_on_c, 13, 70, 0
15, 7360, Note_on_c, 13, 70, 44
15, 7424, Note_on_c, 13, 70, 0
15, 7440, Note_on_c, 13, 72, 44
15, 7504, Note_on_c, 13, 72, 0
15, 7520, Note_on_c, 13, 72, 44
15, 7584, Note_on_c, 13, 72, 0
15, 7600, Note_on_c, 13, 72, 44
15, 7664, Note_on_c, 13, 72, 0
15, 7680, Note_on_c, 13, 74, 44
15, 7744, Note_on_c, 13, 74, 0
15, 7760, Note_on_c, 13, 62, 44
15, 7824, Note_on_c, 13, 62, 0
15, 7840, Note_on_c, 13, 62, 44
15, 7904, Note_on_c, 13, 62, 0
15, 7920, Note_on_c, 13, 64, 44
15, 7984, Note_on_c, 13, 64, 0
15, 8000, Note_on_c, 13, 64, 44
15, 8064, Note_on_c, 13, 64, 0
15, 8080, Note_on_c, 13, 64, 44
15, 8144, Note_on_c, 13, 64, 0
15, 8160, Note_on_c, 13, 65, 44
15, 8224, Note_on_c, 13, 65, 0
15, 8240, Note_on_c, 13, 65, 44
15, 8304, Note_on_c, 13, 65, 0
15, 8320, Note_on_c, 13, 65, 44
15, 8384, Note_on_c, 13, 65, 0
15, 8400, Note_on_c, 13, 69, 44
15, 8464, Note_on_c, 13, 69, 0
15, 8480, Note_on_c, 13, 69, 44
15, 8544, Note_on_c, 13, 69, 0
15, 8560, Note_on_c, 13, 69, 44
15, 8624, Note_on_c, 13, 69, 0
15, 8640, Note_on_c, 13, 67, 44
15, 8704, Note_on_c, 13, 67, 0
15, 8720, Note_on_c, 13, 55, 44
15, 8784, Note_on_c, 13, 55, 0
15, 8800, Note_on_c, 13, 55, 44
15, 8864, Note_on_c, 13, 55, 0
15, 8880, Note_on_c, 13, 55, 44
15, 8944, Note_on_c, 13, 55, 0
15, 8960, Note_on_c, 13, 55, 44
15, 9024, Note_on_c, 13, 55, 0
15, 9040, Note_on_c, 13, 55, 44
15, 9104, Note_on_c, 13, 55, 0
15, 9120, Note_on_c, 13, 55, 44
15, 9184, Note_on_c, 13, 55, 0
15, 9200, Note_on_c, 13, 55, 44
15, 9264, Note_on_c, 13, 55, 0
15, 9280, Note_on_c, 13, 55, 44
15, 9344, Note_on_c, 13, 55, 0
15, 9360, Note_on_c, 13, 55, 44
15, 9424, Note_on_c, 13, 55, 0
15, 9440, Note_on_c, 13, 55, 44
15, 9504, Note_on_c, 13, 55, 0
15, 9520, Note_on_c, 13, 55, 44
15, 9584, Note_on_c, 13, 55, 0
15, 9600, Note_on_c, 13, 60, 44
15, 9664, Note_on_c, 13, 60, 0
15, 9680, Note_on_c, 13, 48, 44
15, 9744, Note_on_c, 13, 48, 0
15, 9760, Note_on_c, 13, 48, 44
15, 9824, Note_on_c, 13, 48, 0
15, 9840, Note_on_c, 13, 48, 44
15, 9904, Note_on_c, 13, 48, 0
15, 9920, Note_on_c, 13, 48, 44
15, 9984, Note_on_c, 13, 48, 0
15, 10000, Note_on_c, 13, 48, 44
15, 10064, Note_on_c, 13, 48, 0
15, 10080, Note_on_c, 13, 48, 44
15, 10144, Note_on_c, 13, 48, 0
15, 10160, Note_on_c, 13, 48, 44
15, 10224, Note_on_c, 13, 48, 0
15, 10240, Note_on_c, 13, 48, 44
15, 10304, Note_on_c, 13, 48, 0
15, 10320, Note_on_c, 13, 48, 44
15, 10384, Note_on_c, 13, 48, 0
15, 10400, Note_on_c, 13, 48, 44
15, 10464, Note_on_c, 13, 48, 0
15, 10480, Note_on_c, 13, 48, 44
15, 10544, Note_on_c, 13, 48, 0
15, 10560, Note_on_c, 13, 48, 44
15, 10624, Note_on_c, 13, 48, 0
15, 10640, Note_on_c, 13, 48, 44
15, 10704, Note_on_c, 13, 48, 0
15, 10720, Note_on_c, 13, 48, 44
15, 10784, Note_on_c, 13, 48, 0
15, 10800, Note_on_c, 13, 48, 44
15, 10864, Note_on_c, 13, 48, 0
15, 10880, Note_on_c, 13, 48, 44
15, 10944, Note_on_c, 13, 48, 0
15, 10960, Note_on_c, 13, 48, 44
15, 11024, Note_on_c, 13, 48, 0
15, 11040, Note_on_c, 13, 48, 44
15, 11104, Note_on_c, 13, 48, 0
15, 11120, Note_on_c, 13, 48, 44
15, 11184, Note_on_c, 13, 48, 0
15, 11200, Note_on_c, 13, 48, 44
15, 11264, Note_on_c, 13, 48, 0
15, 11280, Note_on_c, 13, 48, 44
15, 11344, Note_on_c, 13, 48, 0
15, 11360, Note_on_c, 13, 48, 44
15, 11424, Note_on_c, 13, 48, 0
15, 11440, Note_on_c, 13, 48, 44
15, 11504, Note_on_c, 13, 48, 0
15, 11520, Note_on_c, 13, 48, 44
15, 11584, Note_on_c, 13, 48, 0
15, 11600, Note_on_c, 13, 48, 44
15, 11664, Note_on_c, 13, 48, 0
15, 11680, Note_on_c, 13, 48, 44
15, 11744, Note_on_c, 13, 48, 0
15, 11760, Note_on_c, 13, 48, 44
15, 11824, Note_on_c, 13, 48, 0
15, 11840, Note_on_c, 13, 48, 44
15, 11904, Note_on_c, 13, 48, 0
15, 11920, Note_on_c, 13, 48, 44
15, 11984, Note_on_c, 13, 48, 0
15, 12000, Note_on_c, 13, 48, 44
15, 12064, Note_on_c, 13, 48, 0
15, 12080, Note_on_c, 13, 48, 44
15, 12144, Note_on_c, 13, 48, 0
15, 12160, Note_on_c, 13, 48, 44
15, 12224, Note_on_c, 13, 48, 0
15, 12240, Note_on_c, 13, 48, 44
15, 12304, Note_on_c, 13, 48, 0
15, 12320, Note_on_c, 13, 48, 44
15, 12384, Note_on_c, 13, 48, 0
15, 12400, Note_on_c, 13, 48, 44
15, 12464, Note_on_c, 13, 48, 0
15, 12480, Note_on_c, 13, 48, 40
15, 12544, Note_on_c, 13, 48, 0
15, 12560, Note_on_c, 13, 48, 40
15, 12624, Note_on_c, 13, 48, 0
15, 12640, Note_on_c, 13, 48, 40
15, 12704, Note_on_c, 13, 48, 0
15, 12720, Note_on_c, 13, 48, 40
15, 12784, Note_on_c, 13, 48, 0
15, 12800, Note_on_c, 13, 48, 40
15, 12864, Note_on_c, 13, 48, 0
15, 12880, Note_on_c, 13, 48, 40
15, 12944, Note_on_c, 13, 48, 0
15, 12960, Note_on_c, 13, 48, 40
15, 13024, Note_on_c, 13, 48, 0
15, 13040, Note_on_c, 13, 48, 40
15, 13104, Note_on_c, 13, 48, 0
15, 13120, Note_on_c, 13, 48, 40
15, 13184, Note_on_c, 13, 48, 0
15, 13200, Note_on_c, 13, 48, 40
15, 13264, Note_on_c, 13, 48, 0
15, 13280, Note_on_c, 13, 48, 40
15, 13344, Note_on_c, 13, 48, 0
15, 13360, Note_on_c, 13, 48, 40
15, 13424, Note_on_c, 13, 48, 0
15, 13440, Note_on_c, 13, 48, 40
15, 13504, Note_on_c, 13, 48, 0
15, 13520, Note_on_c, 13, 48, 40
15, 13584, Note_on_c, 13, 48, 0
15, 13600, Note_on_c, 13, 48, 40
15, 13664, Note_on_c, 13, 48, 0
15, 13680, Note_on_c, 13, 48, 40
15, 13744, Note_on_c, 13, 48, 0
15, 13760, Note_on_c, 13, 48, 40
15, 13824, Note_on_c, 13, 48, 0
15, 13840, Note_on_c, 13, 48, 40
15, 13904, Note_on_c, 13, 48, 0
15, 13920, Note_on_c, 13, 48, 40
15, 13984, Note_on_c, 13, 48, 0
15, 14000, Note_on_c, 13, 48, 40
15, 14064, Note_on_c, 13, 48, 0
15, 14080, Note_on_c, 13, 48, 40
15, 14144, Note_on_c, 13, 48, 0
15, 14160, Note_on_c, 13, 48, 40
15, 14224, Note_on_c, 13, 48, 0
15, 14240, Note_on_c, 13, 48, 40
15, 14304, Note_on_c, 13, 48, 0
15, 14320, Note_on_c, 13, 48, 40
15, 14384, Note_on_c, 13, 48, 0
15, 14400, Note_on_c, 13, 50, 36
15, 14519, Note_on_c, 13, 50, 0
15, 14520, Note_on_c, 13, 52, 36
15, 14619, Note_on_c, 13, 52, 0
15, 14640, Note_on_c, 13, 48, 36
15, 14799, Note_on_c, 13, 48, 0
15, 15360, Note_on_c, 13, 50, 36
15, 15479, Note_on_c, 13, 50, 0
15, 15480, Note_on_c, 13, 52, 36
15, 15579, Note_on_c, 13, 52, 0
15, 15600, Note_on_c, 13, 48, 36
15, 15759, Note_on_c, 13, 48, 0
15, 16320, Note_on_c, 13, 50, 36
15, 16439, Note_on_c, 13, 50, 0
15, 16440, Note_on_c, 13, 52, 36
15, 16539, Note_on_c, 13, 52, 0
15, 16560, Note_on_c, 13, 48, 36
15, 16719, Note_on_c, 13, 48, 0
15, 16800, Note_on_c, 13, 49, 84
15, 17739, Note_on_c, 13, 49, 0
15, 17760, Note_on_c, 13, 53, 84
15, 17824, Note_on_c, 13, 53, 0
15, 17840, Note_on_c, 13, 53, 84
15, 17904, Note_on_c, 13, 53, 0
15, 17920, Note_on_c, 13, 53, 84
15, 17984, Note_on_c, 13, 53, 0
15, 18000, Note_on_c, 13, 65, 84
15, 18064, Note_on_c, 13, 65, 0
15, 18080, Note_on_c, 13, 65, 84
15, 18144, Note_on_c, 13, 65, 0
15, 18160, Note_on_c, 13, 65, 84
15, 18224, Note_on_c, 13, 65, 0
15, 18240, Note_on_c, 13, 53, 84
15, 18304, Note_on_c, 13, 53, 0
15, 18320, Note_on_c, 13, 53, 84
15, 18384, Note_on_c, 13, 53, 0
15, 18400, Note_on_c, 13, 53, 84
15, 18464, Note_on_c, 13, 53, 0
15, 18480, Note_on_c, 13, 65, 84
15, 18544, Note_on_c, 13, 65, 0
15, 18560, Note_on_c, 13, 65, 84
15, 18624, Note_on_c, 13, 65, 0
15, 18640, Note_on_c, 13, 65, 84
15, 18704, Note_on_c, 13, 65, 0
15, 18720, Note_on_c, 13, 53, 84
15, 18784, Note_on_c, 13, 53, 0
15, 18800, Note_on_c, 13, 53, 84
15, 18864, Note_on_c, 13, 53, 0
15, 18880, Note_on_c, 13, 53, 84
15, 18944, Note_on_c, 13, 53, 0
15, 18960, Note_on_c, 13, 65, 84
15, 19024, Note_on_c, 13, 65, 0
15, 19040, Note_on_c, 13, 65, 84
15, 19104, Note_on_c, 13, 65, 0
15, 19120, Note_on_c, 13, 65, 84
15, 19184, Note_on_c, 13, 65, 0
15, 19200, Note_on_c, 13, 53, 84
15, 19264, Note_on_c, 13, 53, 0
15, 19280, Note_on_c, 13, 53, 84
15, 19344, Note_on_c, 13, 53, 0
15, 19360, Note_on_c, 13, 53, 84
15, 19424, Note_on_c, 13, 53, 0
15, 19440, Note_on_c, 13, 65, 84
15, 19504, Note_on_c, 13, 65, 0
15, 19520, Note_on_c, 13, 65, 84
15, 19584, Note_on_c, 13, 65, 0
15, 19600, Note_on_c, 13, 65, 84
15, 19664, Note_on_c, 13, 65, 0
15, 19680, Note_on_c, 13, 53, 84
15, 19744, Note_on_c, 13, 53, 0
15, 19760, Note_on_c, 13, 53, 84
15, 19824, Note_on_c, 13, 53, 0
15, 19840, Note_on_c, 13, 53, 84
15, 19904, Note_on_c, 13, 53, 0
15, 19920, Note_on_c, 13, 65, 84
15, 19984, Note_on_c, 13, 65, 0
15, 20000, Note_on_c, 13, 65, 84
15, 20064, Note_on_c, 13, 65, 0
15, 20080, Note_on_c, 13, 65, 84
15, 20144, Note_on_c, 13, 65, 0
15, 20160, Note_on_c, 13, 53, 84
15, 20224, Note_on_c, 13, 53, 0
15, 20240, Note_on_c, 13, 53, 84
15, 20304, Note_on_c, 13, 53, 0
15, 20320, Note_on_c, 13, 53, 84
15, 20384, Note_on_c, 13, 53, 0
15, 20400, Note_on_c, 13, 65, 84
15, 20464, Note_on_c, 13, 65, 0
15, 20480, Note_on_c, 13, 65, 84
15, 20544, Note_on_c, 13, 65, 0
15, 20560, Note_on_c, 13, 65, 84
15, 20624, Note_on_c, 13, 65, 0
15, 20640, Note_on_c, 13, 53, 84
15, 20704, Note_on_c, 13, 53, 0
15, 20720, Note_on_c, 13, 53, 84
15, 20784, Note_on_c, 13, 53, 0
15, 20800, Note_on_c, 13, 53, 84
15, 20864, Note_on_c, 13, 53, 0
15, 20880, Note_on_c, 13, 65, 84
15, 20944, Note_on_c, 13, 65, 0
15, 20960, Note_on_c, 13, 65, 84
15, 21024, Note_on_c, 13, 65, 0
15, 21040, Note_on_c, 13, 65, 84
15, 21104, Note_on_c, 13, 65, 0
15, 21120, Note_on_c, 13, 53, 84
15, 21184, Note_on_c, 13, 53, 0
15, 21200, Note_on_c, 13, 53, 84
15, 21264, Note_on_c, 13, 53, 0
15, 21280, Note_on_c, 13, 53, 84
15, 21344, Note_on_c, 13, 53, 0
15, 21360, Note_on_c, 13, 65, 84
15, 21424, Note_on_c, 13, 65, 0
15, 21440, Note_on_c, 13, 65, 84
15, 21504, Note_on_c, 13, 65, 0
15, 21520, Note_on_c, 13, 65, 84
15, 21584, Note_on_c, 13, 65, 0
15, 21600, Note_on_c, 13, 57, 84
15, 21664, Note_on_c, 13, 57, 0
15, 21680, Note_on_c, 13, 57, 84
15, 21744, Note_on_c, 13, 57, 0
15, 21760, Note_on_c, 13, 57, 84
15, 21824, Note_on_c, 13, 57, 0
15, 21840, Note_on_c, 13, 57, 84
15, 21904, Note_on_c, 13, 57, 0
15, 21920, Note_on_c, 13, 57, 84
15, 21984, Note_on_c, 13, 57, 0
15, 22000, Note_on_c, 13, 57, 84
15, 22064, Note_on_c, 13, 57, 0
15, 22080, Note_on_c, 13, 58, 84
15, 22144, Note_on_c, 13, 58, 0
15, 22160, Note_on_c, 13, 58, 84
15, 22224, Note_on_c, 13, 58, 0
15, 22240, Note_on_c, 13, 58, 84
15, 22304, Note_on_c, 13, 58, 0
15, 22320, Note_on_c, 13, 58, 84
15, 22384, Note_on_c, 13, 58, 0
15, 22400, Note_on_c, 13, 58, 84
15, 22464, Note_on_c, 13, 58, 0
15, 22480, Note_on_c, 13, 58, 84
15, 22544, Note_on_c, 13, 58, 0
15, 22560, Note_on_c, 13, 54, 84
15, 22624, Note_on_c, 13, 54, 0
15, 22640, Note_on_c, 13, 54, 84
15, 22704, Note_on_c, 13, 54, 0
15, 22720, Note_on_c, 13, 54, 84
15, 22784, Note_on_c, 13, 54, 0
15, 22800, Note_on_c, 13, 54, 84
15, 22864, Note_on_c, 13, 54, 0
15, 22880, Note_on_c, 13, 54, 84
15, 22944, Note_on_c, 13, 54, 0
15, 22960, Note_on_c, 13, 54, 84
15, 23024, Note_on_c, 13, 54, 0
15, 23040, Note_on_c, 13, 55, 84
15, 23104, Note_on_c, 13, 55, 0
15, 23120, Note_on_c, 13, 55, 84
15, 23184, Note_on_c, 13, 55, 0
15, 23200, Note_on_c, 13, 55, 84
15, 23264, Note_on_c, 13, 55, 0
15, 23280, Note_on_c, 13, 58, 84
15, 23344, Note_on_c, 13, 58, 0
15, 23360, Note_on_c, 13, 58, 84
15, 23424, Note_on_c, 13, 58, 0
15, 23440, Note_on_c, 13, 58, 84
15, 23504, Note_on_c, 13, 58, 0
15, 23520, Note_on_c, 13, 58, 84
15, 23584, Note_on_c, 13, 58, 0
15, 23600, Note_on_c, 13, 58, 84
15, 23664, Note_on_c, 13, 58, 0
15, 23680, Note_on_c, 13, 58, 84
15, 23744, Note_on_c, 13, 58, 0
15, 23760, Note_on_c, 13, 60, 84
15, 23824, Note_on_c, 13, 60, 0
15, 23840, Note_on_c, 13, 60, 84
15, 23904, Note_on_c, 13, 60, 0
15, 23920, Note_on_c, 13, 60, 84
15, 23984, Note_on_c, 13, 60, 0
15, 24000, Note_on_c, 13, 62, 84
15, 24064, Note_on_c, 13, 62, 0
15, 24080, Note_on_c, 13, 58, 84
15, 24144, Note_on_c, 13, 58, 0
15, 24160, Note_on_c, 13, 58, 84
15, 24224, Note_on_c, 13, 58, 0
15, 24240, Note_on_c, 13, 57, 84
15, 24304, Note_on_c, 13, 57, 0
15, 24320, Note_on_c, 13, 57, 84
15, 24384, Note_on_c, 13, 57, 0
15, 24400, Note_on_c, 13, 57, 84
15, 24464, Note_on_c, 13, 57, 0
15, 24480, Note_on_c, 13, 58, 84
15, 24544, Note_on_c, 13, 58, 0
15, 24560, Note_on_c, 13, 58, 84
15, 24624, Note_on_c, 13, 58, 0
15, 24640, Note_on_c, 13, 58, 84
15, 24704, Note_on_c, 13, 58, 0
15, 24720, Note_on_c, 13, 60, 84
15, 24784, Note_on_c, 13, 60, 0
15, 24800, Note_on_c, 13, 60, 84
15, 24864, Note_on_c, 13, 60, 0
15, 24880, Note_on_c, 13, 60, 84
15, 24944, Note_on_c, 13, 60, 0
15, 24960, Note_on_c, 13, 62, 84
15, 25024, Note_on_c, 13, 62, 0
15, 25040, Note_on_c, 13, 62, 84
15, 25104, Note_on_c, 13, 62, 0
15, 25120, Note_on_c, 13, 62, 84
15, 25184, Note_on_c, 13, 62, 0
15, 25200, Note_on_c, 13, 60, 84
15, 25264, Note_on_c, 13, 60, 0
15, 25280, Note_on_c, 13, 60, 84
15, 25344, Note_on_c, 13, 60, 0
15, 25360, Note_on_c, 13, 60, 84
15, 25424, Note_on_c, 13, 60, 0
15, 25440, Note_on_c, 13, 60, 84
15, 25504, Note_on_c, 13, 60, 0
15, 25520, Note_on_c, 13, 60, 84
15, 25584, Note_on_c, 13, 60, 0
15, 25600, Note_on_c, 13, 60, 84
15, 25664, Note_on_c, 13, 60, 0
15, 25680, Note_on_c, 13, 65, 84
15, 25744, Note_on_c, 13, 65, 0
15, 25760, Note_on_c, 13, 65, 84
15, 25824, Note_on_c, 13, 65, 0
15, 25840, Note_on_c, 13, 65, 84
15, 25904, Note_on_c, 13, 65, 0
15, 25920, Note_on_c, 13, 65, 84
15, 25984, Note_on_c, 13, 65, 0
15, 26000, Note_on_c, 13, 58, 84
15, 26064, Note_on_c, 13, 58, 0
15, 26080, Note_on_c, 13, 58, 84
15, 26144, Note_on_c, 13, 58, 0
15, 26160, Note_on_c, 13, 58, 84
15, 26224, Note_on_c, 13, 58, 0
15, 26240, Note_on_c, 13, 58, 84
15, 26304, Note_on_c, 13, 58, 0
15, 26320, Note_on_c, 13, 58, 84
15, 26384, Note_on_c, 13, 58, 0
15, 26400, Note_on_c, 13, 58, 84
15, 26464, Note_on_c, 13, 58, 0
15, 26480, Note_on_c, 13, 58, 84
15, 26544, Note_on_c, 13, 58, 0
15, 26560, Note_on_c, 13, 58, 84
15, 26624, Note_on_c, 13, 58, 0
15, 26640, Note_on_c, 13, 55, 84
15, 26704, Note_on_c, 13, 55, 0
15, 26720, Note_on_c, 13, 55, 84
15, 26784, Note_on_c, 13, 55, 0
15, 26800, Note_on_c, 13, 55, 84
15, 26864, Note_on_c, 13, 55, 0
15, 26880, Note_on_c, 13, 53, 84
15, 27119, Note_on_c, 13, 53, 0
15, 27360, Note_on_c, 13, 60, 84
15, 27424, Note_on_c, 13, 60, 0
15, 27440, Note_on_c, 13, 60, 84
15, 27504, Note_on_c, 13, 60, 0
15, 27520, Note_on_c, 13, 60, 84
15, 27584, Note_on_c, 13, 60, 0
15, 27600, Note_on_c, 13, 60, 84
15, 27664, Note_on_c, 13, 60, 0
15, 27680, Note_on_c, 13, 60, 84
15, 27744, Note_on_c, 13, 60, 0
15, 27760, Note_on_c, 13, 60, 84
15, 27824, Note_on_c, 13, 60, 0
15, 27840, Note_on_c, 13, 60, 84
15, 28079, Note_on_c, 13, 60, 0
15, 28320, Note_on_c, 13, 60, 84
15, 28384, Note_on_c, 13, 60, 0
15, 28400, Note_on_c, 13, 60, 84
15, 28464, Note_on_c, 13, 60, 0
15, 28480, Note_on_c, 13, 60, 84
15, 28544, Note_on_c, 13, 60, 0
15, 28560, Note_on_c, 13, 59, 84
15, 28624, Note_on_c, 13, 59, 0
15, 28640, Note_on_c, 13, 59, 84
15, 28704, Note_on_c, 13, 59, 0
15, 28720, Note_on_c, 13, 59, 84
15, 28784, Note_on_c, 13, 59, 0
15, 28800, Note_on_c, 13, 60, 84
15, 29039, Note_on_c, 13, 60, 0
15, 29280, Note_on_c, 13, 58, 84
15, 29344, Note_on_c, 13, 58, 0
15, 29360, Note_on_c, 13, 58, 84
15, 29424, Note_on_c, 13, 58, 0
15, 29440, Note_on_c, 13, 58, 84
15, 29504, Note_on_c, 13, 58, 0
15, 29520, Note_on_c, 13, 58, 84
15, 29584, Note_on_c, 13, 58, 0
15, 29600, Note_on_c, 13, 58, 84
15, 29664, Note_on_c, 13, 58, 0
15, 29680, Note_on_c, 13, 58, 84
15, 29744, Note_on_c, 13, 58, 0
15, 29760, Note_on_c, 13, 58, 84
15, 29999, Note_on_c, 13, 58, 0
15, 30240, Note_on_c, 13, 58, 84
15, 30304, Note_on_c, 13, 58, 0
15, 30320, Note_on_c, 13, 58, 84
15, 30384, Note_on_c, 13, 58, 0
15, 30400, Note_on_c, 13, 58, 84
15, 30464, Note_on_c, 13, 58, 0
15, 30480, Note_on_c, 13, 58, 84
15, 30544, Note_on_c, 13, 58, 0
15, 30560, Note_on_c, 13, 58, 84
15, 30624, Note_on_c, 13, 58, 0
15, 30640, Note_on_c, 13, 58, 84
15, 30704, Note_on_c, 13, 58, 0
15, 30720, Note_on_c, 13, 57, 84
15, 30959, Note_on_c, 13, 57, 0
15, 31680, Note_on_c, 13, 53, 84
15, 31839, Note_on_c, 13, 53, 0
15, 31920, Note_on_c, 13, 57, 84
15, 32079, Note_on_c, 13, 57, 0
15, 32160, Note_on_c, 13, 57, 84
15, 32319, Note_on_c, 13, 57, 0
15, 32400, Note_on_c, 13, 60, 84
15, 32559, Note_on_c, 13, 60, 0
15, 32640, Note_on_c, 13, 60, 84
15, 32799, Note_on_c, 13, 60, 0
15, 33600, Note_on_c, 13, 48, 84
15, 33759, Note_on_c, 13, 48, 0
15, 33840, Note_on_c, 13, 55, 84
15, 33999, Note_on_c, 13, 55, 0
15, 34080, Note_on_c, 13, 55, 84
15, 34239, Note_on_c, 13, 55, 0
15, 34320, Note_on_c, 13, 60, 84
15, 34479, Note_on_c, 13, 60, 0
15, 34560, Note_on_c, 13, 53, 84
15, 34719, Note_on_c, 13, 53, 0
15, 35040, Note_on_c, 13, 52, 84
15, 35104, Note_on_c, 13, 52, 0
15, 35120, Note_on_c, 13, 52, 84
15, 35184, Note_on_c, 13, 52, 0
15, 35200, Note_on_c, 13, 52, 84
15, 35264, Note_on_c, 13, 52, 0
15, 35280, Note_on_c, 13, 52, 84
15, 35344, Note_on_c, 13, 52, 0
15, 35360, Note_on_c, 13, 52, 84
15, 35424, Note_on_c, 13, 52, 0
15, 35440, Note_on_c, 13, 52, 84
15, 35504, Note_on_c, 13, 52, 0
15, 35520, Note_on_c, 13, 52, 84
15, 35759, Note_on_c, 13, 52, 0
15, 36000, Note_on_c, 13, 52, 84
15, 36064, Note_on_c, 13, 52, 0
15, 36080, Note_on_c, 13, 52, 84
15, 36144, Note_on_c, 13, 52, 0
15, 36160, Note_on_c, 13, 52, 84
15, 36224, Note_on_c, 13, 52, 0
15, 36240, Note_on_c, 13, 51, 84
15, 36304, Note_on_c, 13, 51, 0
15, 36320, Note_on_c, 13, 51, 84
15, 36384, Note_on_c, 13, 51, 0
15, 36400, Note_on_c, 13, 51, 84
15, 36464, Note_on_c, 13, 51, 0
15, 36480, Note_on_c, 13, 50, 84
15, 36719, Note_on_c, 13, 50, 0
15, 36960, Note_on_c, 13, 53, 84
15, 37024, Note_on_c, 13, 53, 0
15, 37040, Note_on_c, 13, 53, 84
15, 37104, Note_on_c, 13, 53, 0
15, 37120, Note_on_c, 13, 53, 84
15, 37184, Note_on_c, 13, 53, 0
15, 37200, Note_on_c, 13, 53, 84
15, 37264, Note_on_c, 13, 53, 0
15, 37280, Note_on_c, 13, 53, 84
15, 37344, Note_on_c, 13, 53, 0
15, 37360, Note_on_c, 13, 53, 84
15, 37424, Note_on_c, 13, 53, 0
15, 37440, Note_on_c, 13, 53, 84
15, 37679, Note_on_c, 13, 53, 0
15, 37920, Note_on_c, 13, 53, 84
15, 37984, Note_on_c, 13, 53, 0
15, 38000, Note_on_c, 13, 53, 84
15, 38064, Note_on_c, 13, 53, 0
15, 38080, Note_on_c, 13, 53, 84
15, 38144, Note_on_c, 13, 53, 0
15, 38160, Note_on_c, 13, 53, 84
15, 38224, Note_on_c, 13, 53, 0
15, 38240, Note_on_c, 13, 53, 84
15, 38304, Note_on_c, 13, 53, 0
15, 38320, Note_on_c, 13, 53, 84
15, 38384, Note_on_c, 13, 53, 0
15, 38400, Note_on_c, 13, 52, 84
15, 38639, Note_on_c, 13, 52, 0
15, 39360, Note_on_c, 13, 60, 84
15, 39519, Note_on_c, 13, 60, 0
15, 39600, Note_on_c, 13, 64, 84
15, 39759, Note_on_c, 13, 64, 0
15, 39840, Note_on_c, 13, 64, 84
15, 39999, Note_on_c, 13, 64, 0
15, 40080, Note_on_c, 13, 67, 84
15, 40239, Note_on_c, 13, 67, 0
15, 40320, Note_on_c, 13, 67, 84
15, 40479, Note_on_c, 13, 67, 0
15, 41760, Note_on_c, 13, 65, 92
15, 41919, Note_on_c, 13, 65, 0
15, 42000, Note_on_c, 13, 62, 84
15, 42159, Note_on_c, 13, 62, 0
15, 42240, Note_on_c, 13, 62, 92
15, 42399, Note_on_c, 13, 62, 0
15, 42480, Note_on_c, 13, 59, 84
15, 42639, Note_on_c, 13, 59, 0
15, 43680, Note_on_c, 13, 65, 84
15, 43839, Note_on_c, 13, 65, 0
15, 43920, Note_on_c, 13, 62, 84
15, 44079, Note_on_c, 13, 62, 0
15, 44160, Note_on_c, 13, 62, 84
15, 44319, Note_on_c, 13, 62, 0
15, 44400, Note_on_c, 13, 59, 84
15, 44559, Note_on_c, 13, 59, 0
15, 45600, Note_on_c, 13, 67, 84
15, 45759, Note_on_c, 13, 67, 0
15, 45840, Note_on_c, 13, 55, 84
15, 45999, Note_on_c, 13, 55, 0
15, 46080, Note_on_c, 13, 56, 52
15, 46144, Note_on_c, 13, 56, 0
15, 46160, Note_on_c, 13, 56, 52
15, 46224, Note_on_c, 13, 56, 0
15, 46240, Note_on_c, 13, 56, 52
15, 46304, Note_on_c, 13, 56, 0
15, 46320, Note_on_c, 13, 56, 52
15, 46384, Note_on_c, 13, 56, 0
15, 46400, Note_on_c, 13, 56, 52
15, 46464, Note_on_c, 13, 56, 0
15, 46480, Note_on_c, 13, 56, 52
15, 46544, Note_on_c, 13, 56, 0
15, 46560, Note_on_c, 13, 56, 52
15, 46624, Note_on_c, 13, 56, 0
15, 46640, Note_on_c, 13, 56, 52
15, 46704, Note_on_c, 13, 56, 0
15, 46720, Note_on_c, 13, 56, 52
15, 46784, Note_on_c, 13, 56, 0
15, 46800, Note_on_c, 13, 56, 52
15, 46864, Note_on_c, 13, 56, 0
15, 46880, Note_on_c, 13, 56, 52
15, 46944, Note_on_c, 13, 56, 0
15, 46960, Note_on_c, 13, 56, 52
15, 47024, Note_on_c, 13, 56, 0
15, 47040, Note_on_c, 13, 56, 52
15, 47104, Note_on_c, 13, 56, 0
15, 47120, Note_on_c, 13, 56, 52
15, 47184, Note_on_c, 13, 56, 0
15, 47200, Note_on_c, 13, 56, 52
15, 47264, Note_on_c, 13, 56, 0
15, 47280, Note_on_c, 13, 56, 52
15, 47344, Note_on_c, 13, 56, 0
15, 47360, Note_on_c, 13, 56, 52
15, 47424, Note_on_c, 13, 56, 0
15, 47440, Note_on_c, 13, 56, 52
15, 47504, Note_on_c, 13, 56, 0
15, 47520, Note_on_c, 13, 56, 52
15, 47584, Note_on_c, 13, 56, 0
15, 47600, Note_on_c, 13, 56, 52
15, 47664, Note_on_c, 13, 56, 0
15, 47680, Note_on_c, 13, 56, 52
15, 47744, Note_on_c, 13, 56, 0
15, 47760, Note_on_c, 13, 56, 52
15, 47824, Note_on_c, 13, 56, 0
15, 47840, Note_on_c, 13, 56, 52
15, 47904, Note_on_c, 13, 56, 0
15, 47920, Note_on_c, 13, 56, 52
15, 47984, Note_on_c, 13, 56, 0
15, 48000, Note_on_c, 13, 55, 52
15, 48064, Note_on_c, 13, 55, 0
15, 48080, Note_on_c, 13, 55, 52
15, 48144, Note_on_c, 13, 55, 0
15, 48160, Note_on_c, 13, 55, 52
15, 48224, Note_on_c, 13, 55, 0
15, 48240, Note_on_c, 13, 55, 52
15, 48304, Note_on_c, 13, 55, 0
15, 48320, Note_on_c, 13, 55, 52
15, 48384, Note_on_c, 13, 55, 0
15, 48400, Note_on_c, 13, 55, 52
15, 48464, Note_on_c, 13, 55, 0
15, 48480, Note_on_c, 13, 55, 52
15, 48544, Note_on_c, 13, 55, 0
15, 48560, Note_on_c, 13, 55, 52
15, 48624, Note_on_c, 13, 55, 0
15, 48640, Note_on_c, 13, 55, 52
15, 48704, Note_on_c, 13, 55, 0
15, 48720, Note_on_c, 13, 55, 52
15, 48784, Note_on_c, 13, 55, 0
15, 48800, Note_on_c, 13, 55, 52
15, 48864, Note_on_c, 13, 55, 0
15, 48880, Note_on_c, 13, 55, 52
15, 48944, Note_on_c, 13, 55, 0
15, 48960, Note_on_c, 13, 55, 52
15, 49024, Note_on_c, 13, 55, 0
15, 49040, Note_on_c, 13, 55, 52
15, 49104, Note_on_c, 13, 55, 0
15, 49120, Note_on_c, 13, 55, 52
15, 49184, Note_on_c, 13, 55, 0
15, 49200, Note_on_c, 13, 55, 52
15, 49264, Note_on_c, 13, 55, 0
15, 49280, Note_on_c, 13, 55, 52
15, 49344, Note_on_c, 13, 55, 0
15, 49360, Note_on_c, 13, 55, 52
15, 49424, Note_on_c, 13, 55, 0
15, 49440, Note_on_c, 13, 55, 52
15, 49504, Note_on_c, 13, 55, 0
15, 49520, Note_on_c, 13, 55, 52
15, 49584, Note_on_c, 13, 55, 0
15, 49600, Note_on_c, 13, 55, 52
15, 49664, Note_on_c, 13, 55, 0
15, 49680, Note_on_c, 13, 55, 52
15, 49744, Note_on_c, 13, 55, 0
15, 49760, Note_on_c, 13, 55, 52
15, 49824, Note_on_c, 13, 55, 0
15, 49840, Note_on_c, 13, 55, 52
15, 49904, Note_on_c, 13, 55, 0
15, 49920, Note_on_c, 13, 56, 52
15, 49984, Note_on_c, 13, 56, 0
15, 50000, Note_on_c, 13, 56, 52
15, 50064, Note_on_c, 13, 56, 0
15, 50080, Note_on_c, 13, 56, 52
15, 50144, Note_on_c, 13, 56, 0
15, 50160, Note_on_c, 13, 56, 52
15, 50224, Note_on_c, 13, 56, 0
15, 50240, Note_on_c, 13, 56, 52
15, 50304, Note_on_c, 13, 56, 0
15, 50320, Note_on_c, 13, 56, 52
15, 50384, Note_on_c, 13, 56, 0
15, 50400, Note_on_c, 13, 56, 52
15, 50464, Note_on_c, 13, 56, 0
15, 50480, Note_on_c, 13, 56, 52
15, 50544, Note_on_c, 13, 56, 0
15, 50560, Note_on_c, 13, 56, 52
15, 50624, Note_on_c, 13, 56, 0
15, 50640, Note_on_c, 13, 56, 52
15, 50704, Note_on_c, 13, 56, 0
15, 50720, Note_on_c, 13, 56, 52
15, 50784, Note_on_c, 13, 56, 0
15, 50800, Note_on_c, 13, 56, 52
15, 50864, Note_on_c, 13, 56, 0
15, 50880, Note_on_c, 13, 56, 52
15, 50944, Note_on_c, 13, 56, 0
15, 50960, Note_on_c, 13, 56, 52
15, 51024, Note_on_c, 13, 56, 0
15, 51040, Note_on_c, 13, 56, 52
15, 51104, Note_on_c, 13, 56, 0
15, 51120, Note_on_c, 13, 56, 52
15, 51184, Note_on_c, 13, 56, 0
15, 51200, Note_on_c, 13, 56, 52
15, 51264, Note_on_c, 13, 56, 0
15, 51280, Note_on_c, 13, 56, 52
15, 51344, Note_on_c, 13, 56, 0
15, 51360, Note_on_c, 13, 56, 52
15, 51424, Note_on_c, 13, 56, 0
15, 51440, Note_on_c, 13, 56, 52
15, 51504, Note_on_c, 13, 56, 0
15, 51520, Note_on_c, 13, 56, 52
15, 51584, Note_on_c, 13, 56, 0
15, 51600, Note_on_c, 13, 56, 52
15, 51664, Note_on_c, 13, 56, 0
15, 51680, Note_on_c, 13, 56, 52
15, 51744, Note_on_c, 13, 56, 0
15, 51760, Note_on_c, 13, 56, 52
15, 51824, Note_on_c, 13, 56, 0
15, 51840, Note_on_c, 13, 55, 52
15, 51904, Note_on_c, 13, 55, 0
15, 51920, Note_on_c, 13, 55, 52
15, 51984, Note_on_c, 13, 55, 0
15, 52000, Note_on_c, 13, 55, 52
15, 52064, Note_on_c, 13, 55, 0
15, 52080, Note_on_c, 13, 55, 52
15, 52144, Note_on_c, 13, 55, 0
15, 52160, Note_on_c, 13, 55, 52
15, 52224, Note_on_c, 13, 55, 0
15, 52240, Note_on_c, 13, 55, 52
15, 52304, Note_on_c, 13, 55, 0
15, 52320, Note_on_c, 13, 55, 52
15, 52384, Note_on_c, 13, 55, 0
15, 52400, Note_on_c, 13, 55, 52
15, 52464, Note_on_c, 13, 55, 0
15, 52480, Note_on_c, 13, 55, 52
15, 52544, Note_on_c, 13, 55, 0
15, 52560, Note_on_c, 13, 55, 52
15, 52624, Note_on_c, 13, 55, 0
15, 52640, Note_on_c, 13, 55, 52
15, 52704, Note_on_c, 13, 55, 0
15, 52720, Note_on_c, 13, 55, 52
15, 52784, Note_on_c, 13, 55, 0
15, 52800, Note_on_c, 13, 55, 52
15, 52864, Note_on_c, 13, 55, 0
15, 52880, Note_on_c, 13, 55, 52
15, 52944, Note_on_c, 13, 55, 0
15, 52960, Note_on_c, 13, 55, 52
15, 53024, Note_on_c, 13, 55, 0
15, 53040, Note_on_c, 13, 55, 52
15, 53104, Note_on_c, 13, 55, 0
15, 53120, Note_on_c, 13, 55, 52
15, 53184, Note_on_c, 13, 55, 0
15, 53200, Note_on_c, 13, 55, 52
15, 53264, Note_on_c, 13, 55, 0
15, 53280, Note_on_c, 13, 55, 52
15, 53344, Note_on_c, 13, 55, 0
15, 53360, Note_on_c, 13, 55, 52
15, 53424, Note_on_c, 13, 55, 0
15, 53440, Note_on_c, 13, 55, 52
15, 53504, Note_on_c, 13, 55, 0
15, 53520, Note_on_c, 13, 55, 52
15, 53584, Note_on_c, 13, 55, 0
15, 53600, Note_on_c, 13, 55, 52
15, 53664, Note_on_c, 13, 55, 0
15, 53680, Note_on_c, 13, 55, 52
15, 53744, Note_on_c, 13, 55, 0
15, 53760, Note_on_c, 13, 56, 52
15, 53824, Note_on_c, 13, 56, 0
15, 53840, Note_on_c, 13, 56, 52
15, 53904, Note_on_c, 13, 56, 0
15, 53920, Note_on_c, 13, 56, 52
15, 53984, Note_on_c, 13, 56, 0
15, 54000, Note_on_c, 13, 56, 53
15, 54064, Note_on_c, 13, 56, 0
15, 54080, Note_on_c, 13, 56, 53
15, 54144, Note_on_c, 13, 56, 0
15, 54160, Note_on_c, 13, 56, 53
15, 54224, Note_on_c, 13, 56, 0
15, 54240, Note_on_c, 13, 56, 54
15, 54304, Note_on_c, 13, 56, 0
15, 54320, Note_on_c, 13, 56, 54
15, 54384, Note_on_c, 13, 56, 0
15, 54400, Note_on_c, 13, 56, 54
15, 54464, Note_on_c, 13, 56, 0
15, 54480, Note_on_c, 13, 56, 55
15, 54544, Note_on_c, 13, 56, 0
15, 54560, Note_on_c, 13, 56, 55
15, 54624, Note_on_c, 13, 56, 0
15, 54640, Note_on_c, 13, 56, 55
15, 54704, Note_on_c, 13, 56, 0
15, 54720, Note_on_c, 13, 57, 56
15, 54784, Note_on_c, 13, 57, 0
15, 54800, Note_on_c, 13, 57, 56
15, 54864, Note_on_c, 13, 57, 0
15, 54880, Note_on_c, 13, 57, 56
15, 54944, Note_on_c, 13, 57, 0
15, 54960, Note_on_c, 13, 57, 57
15, 55024, Note_on_c, 13, 57, 0
15, 55040, Note_on_c, 13, 57, 57
15, 55104, Note_on_c, 13, 57, 0
15, 55120, Note_on_c, 13, 57, 57
15, 55184, Note_on_c, 13, 57, 0
15, 55200, Note_on_c, 13, 57, 58
15, 55264, Note_on_c, 13, 57, 0
15, 55280, Note_on_c, 13, 57, 58
15, 55344, Note_on_c, 13, 57, 0
15, 55360, Note_on_c, 13, 57, 58
15, 55424, Note_on_c, 13, 57, 0
15, 55440, Note_on_c, 13, 57, 59
15, 55504, Note_on_c, 13, 57, 0
15, 55520, Note_on_c, 13, 57, 59
15, 55584, Note_on_c, 13, 57, 0
15, 55600, Note_on_c, 13, 57, 59
15, 55664, Note_on_c, 13, 57, 0
15, 55680, Note_on_c, 13, 59, 60
15, 55744, Note_on_c, 13, 59, 0
15, 55760, Note_on_c, 13, 59, 60
15, 55824, Note_on_c, 13, 59, 0
15, 55840, Note_on_c, 13, 59, 60
15, 55904, Note_on_c, 13, 59, 0
15, 55920, Note_on_c, 13, 59, 61
15, 55984, Note_on_c, 13, 59, 0
15, 56000, Note_on_c, 13, 59, 61
15, 56064, Note_on_c, 13, 59, 0
15, 56080, Note_on_c, 13, 59, 61
15, 56144, Note_on_c, 13, 59, 0
15, 56160, Note_on_c, 13, 59, 62
15, 56224, Note_on_c, 13, 59, 0
15, 56240, Note_on_c, 13, 59, 62
15, 56304, Note_on_c, 13, 59, 0
15, 56320, Note_on_c, 13, 59, 62
15, 56384, Note_on_c, 13, 59, 0
15, 56400, Note_on_c, 13, 59, 63
15, 56464, Note_on_c, 13, 59, 0
15, 56480, Note_on_c, 13, 59, 63
15, 56544, Note_on_c, 13, 59, 0
15, 56560, Note_on_c, 13, 59, 63
15, 56624, Note_on_c, 13, 59, 0
15, 56640, Note_on_c, 13, 55, 64
15, 56704, Note_on_c, 13, 55, 0
15, 56720, Note_on_c, 13, 55, 64
15, 56784, Note_on_c, 13, 55, 0
15, 56800, Note_on_c, 13, 55, 64
15, 56864, Note_on_c, 13, 55, 0
15, 56880, Note_on_c, 13, 55, 65
15, 56944, Note_on_c, 13, 55, 0
15, 56960, Note_on_c, 13, 55, 65
15, 57024, Note_on_c, 13, 55, 0
15, 57040, Note_on_c, 13, 55, 65
15, 57104, Note_on_c, 13, 55, 0
15, 57120, Note_on_c, 13, 55, 66
15, 57184, Note_on_c, 13, 55, 0
15, 57200, Note_on_c, 13, 55, 66
15, 57264, Note_on_c, 13, 55, 0
15, 57280, Note_on_c, 13, 55, 66
15, 57344, Note_on_c, 13, 55, 0
15, 57360, Note_on_c, 13, 55, 67
15, 57424, Note_on_c, 13, 55, 0
15, 57440, Note_on_c, 13, 55, 67
15, 57504, Note_on_c, 13, 55, 0
15, 57520, Note_on_c, 13, 55, 67
15, 57584, Note_on_c, 13, 55, 0
15, 57600, Note_on_c, 13, 55, 52
15, 57600, Note_on_c, 13, 52, 52
15, 58059, Note_on_c, 13, 55, 0
15, 58059, Note_on_c, 13, 52, 0
15, 58080, Note_on_c, 13, 52, 52
15, 58080, Note_on_c, 13, 48, 52
15, 59499, Note_on_c, 13, 52, 0
15, 59499, Note_on_c, 13, 48, 0
15, 59520, Note_on_c, 13, 53, 52
15, 59520, Note_on_c, 13, 50, 52
15, 59979, Note_on_c, 13, 53, 0
15, 59979, Note_on_c, 13, 50, 0
15, 60000, Note_on_c, 13, 50, 52
15, 60000, Note_on_c, 13, 53, 52
15, 60459, Note_on_c, 13, 50, 0
15, 60459, Note_on_c, 13, 53, 0
15, 60480, Note_on_c, 13, 50, 52
15, 60480, Note_on_c, 13, 53, 52
15, 60939, Note_on_c, 13, 50, 0
15, 60939, Note_on_c, 13, 53, 0
15, 60960, Note_on_c, 13, 53, 52
15, 60960, Note_on_c, 13, 50, 52
15, 61419, Note_on_c, 13, 53, 0
15, 61419, Note_on_c, 13, 50, 0
15, 61440, Note_on_c, 13, 48, 52
15, 61440, Note_on_c, 13, 52, 52
15, 62399, Note_on_c, 13, 48, 0
15, 62399, Note_on_c, 13, 52, 0
15, 62400, Note_on_c, 13, 52, 52
15, 62400, Note_on_c, 13, 48, 52
15, 63339, Note_on_c, 13, 52, 0
15, 63339, Note_on_c, 13, 48, 0
15, 63360, Note_on_c, 13, 53, 52
15, 63360, Note_on_c, 13, 50, 52
15, 63819, Note_on_c, 13, 53, 0
15, 63819, Note_on_c, 13, 50, 0
15, 63840, Note_on_c, 13, 50, 52
15, 63840, Note_on_c, 13, 53, 52
15, 64299, Note_on_c, 13, 50, 0
15, 64299, Note_on_c, 13, 53, 0
15, 64320, Note_on_c, 13, 50, 52
15, 64320, Note_on_c, 13, 53, 52
15, 64779, Note_on_c, 13, 50, 0
15, 64779, Note_on_c, 13, 53, 0
15, 64800, Note_on_c, 13, 50, 52
15, 64800, Note_on_c, 13, 53, 52
15, 65259, Note_on_c, 13, 50, 0
15, 65259, Note_on_c, 13, 53, 0
15, 65280, Note_on_c, 13, 52, 44
15, 65280, Note_on_c, 13, 48, 44
15, 65439, Note_on_c, 13, 52, 0
15, 65439, Note_on_c, 13, 48, 0
15, 65440, Note_on_c, 13, 60, 44
15, 65584, Note_on_c, 13, 60, 0
15, 65600, Note_on_c, 13, 60, 44
15, 65744, Note_on_c, 13, 60, 0
15, 65760, Note_on_c, 13, 60, 44
15, 65904, Note_on_c, 13, 60, 0
15, 65920, Note_on_c, 13, 60, 44
15, 66064, Note_on_c, 13, 60, 0
15, 66080, Note_on_c, 13, 57, 44
15, 66224, Note_on_c, 13, 57, 0
15, 66240, Note_on_c, 13, 62, 44
15, 66384, Note_on_c, 13, 62, 0
15, 66400, Note_on_c, 13, 62, 44
15, 66544, Note_on_c, 13, 62, 0
15, 66560, Note_on_c, 13, 62, 44
15, 66704, Note_on_c, 13, 62, 0
15, 66720, Note_on_c, 13, 62, 44
15, 66864, Note_on_c, 13, 62, 0
15, 66880, Note_on_c, 13, 62, 44
15, 67024, Note_on_c, 13, 62, 0
15, 67040, Note_on_c, 13, 59, 44
15, 67184, Note_on_c, 13, 59, 0
15, 67200, Note_on_c, 13, 64, 44
15, 67344, Note_on_c, 13, 64, 0
15, 67360, Note_on_c, 13, 64, 44
15, 67504, Note_on_c, 13, 64, 0
15, 67520, Note_on_c, 13, 64, 44
15, 67664, Note_on_c, 13, 64, 0
15, 67680, Note_on_c, 13, 64, 44
15, 67824, Note_on_c, 13, 64, 0
15, 67840, Note_on_c, 13, 64, 44
15, 67984, Note_on_c, 13, 64, 0
15, 68000, Note_on_c, 13, 60, 44
15, 68144, Note_on_c, 13, 60, 0
15, 68160, Note_on_c, 13, 65, 44
15, 68304, Note_on_c, 13, 65, 0
15, 68320, Note_on_c, 13, 65, 44
15, 68464, Note_on_c, 13, 65, 0
15, 68480, Note_on_c, 13, 65, 44
15, 68624, Note_on_c, 13, 65, 0
15, 68640, Note_on_c, 13, 65, 44
15, 68784, Note_on_c, 13, 65, 0
15, 68800, Note_on_c, 13, 65, 44
15, 68944, Note_on_c, 13, 65, 0
15, 68960, Note_on_c, 13, 62, 44
15, 69104, Note_on_c, 13, 62, 0
15, 69120, Note_on_c, 13, 67, 44
15, 69264, Note_on_c, 13, 67, 0
15, 69280, Note_on_c, 13, 67, 44
15, 69424, Note_on_c, 13, 67, 0
15, 69440, Note_on_c, 13, 67, 44
15, 69584, Note_on_c, 13, 67, 0
15, 69600, Note_on_c, 13, 67, 44
15, 69744, Note_on_c, 13, 67, 0
15, 69760, Note_on_c, 13, 67, 44
15, 69904, Note_on_c, 13, 67, 0
15, 69920, Note_on_c, 13, 60, 44
15, 70064, Note_on_c, 13, 60, 0
15, 70080, Note_on_c, 13, 65, 44
15, 70224, Note_on_c, 13, 65, 0
15, 70240, Note_on_c, 13, 65, 44
15, 70384, Note_on_c, 13, 65, 0
15, 70400, Note_on_c, 13, 65, 44
15, 70544, Note_on_c, 13, 65, 0
15, 70560, Note_on_c, 13, 65, 44
15, 70704, Note_on_c, 13, 65, 0
15, 70720, Note_on_c, 13, 65, 44
15, 70864, Note_on_c, 13, 65, 0
15, 70880, Note_on_c, 13, 59, 44
15, 71024, Note_on_c, 13, 59, 0
15, 71040, Note_on_c, 13, 64, 44
15, 71184, Note_on_c, 13, 64, 0
15, 71200, Note_on_c, 13, 64, 44
15, 71344, Note_on_c, 13, 64, 0
15, 71360, Note_on_c, 13, 64, 44
15, 71504, Note_on_c, 13, 64, 0
15, 71520, Note_on_c, 13, 64, 44
15, 71664, Note_on_c, 13, 64, 0
15, 71680, Note_on_c, 13, 64, 44
15, 71824, Note_on_c, 13, 64, 0
15, 71840, Note_on_c, 13, 57, 44
15, 71984, Note_on_c, 13, 57, 0
15, 72000, Note_on_c, 13, 62, 44
15, 72144, Note_on_c, 13, 62, 0
15, 72160, Note_on_c, 13, 62, 44
15, 72304, Note_on_c, 13, 62, 0
15, 72320, Note_on_c, 13, 62, 44
15, 72464, Note_on_c, 13, 62, 0
15, 72480, Note_on_c, 13, 62, 44
15, 72624, Note_on_c, 13, 62, 0
15, 72640, Note_on_c, 13, 62, 44
15, 72784, Note_on_c, 13, 62, 0
15, 72800, Note_on_c, 13, 55, 44
15, 72944, Note_on_c, 13, 55, 0
15, 72960, Note_on_c, 13, 55, 76
15, 73179, Note_on_c, 13, 55, 0
15, 73200, Note_on_c, 13, 60, 76
15, 73659, Note_on_c, 13, 60, 0
15, 73680, Note_on_c, 13, 57, 76
15, 73899, Note_on_c, 13, 57, 0
15, 73920, Note_on_c, 13, 62, 76
15, 74139, Note_on_c, 13, 62, 0
15, 74160, Note_on_c, 13, 62, 76
15, 74619, Note_on_c, 13, 62, 0
15, 74640, Note_on_c, 13, 59, 76
15, 74859, Note_on_c, 13, 59, 0
15, 74880, Note_on_c, 13, 64, 76
15, 75099, Note_on_c, 13, 64, 0
15, 75120, Note_on_c, 13, 64, 76
15, 75579, Note_on_c, 13, 64, 0
15, 75600, Note_on_c, 13, 60, 76
15, 75819, Note_on_c, 13, 60, 0
15, 75840, Note_on_c, 13, 65, 76
15, 76059, Note_on_c, 13, 65, 0
15, 76080, Note_on_c, 13, 65, 76
15, 76539, Note_on_c, 13, 65, 0
15, 76560, Note_on_c, 13, 62, 76
15, 76779, Note_on_c, 13, 62, 0
15, 76800, Note_on_c, 13, 62, 76
15, 76864, Note_on_c, 13, 62, 0
15, 76880, Note_on_c, 13, 62, 76
15, 76944, Note_on_c, 13, 62, 0
15, 76960, Note_on_c, 13, 62, 76
15, 77024, Note_on_c, 13, 62, 0
15, 77040, Note_on_c, 13, 55, 76
15, 77104, Note_on_c, 13, 55, 0
15, 77120, Note_on_c, 13, 55, 76
15, 77184, Note_on_c, 13, 55, 0
15, 77200, Note_on_c, 13, 55, 76
15, 77264, Note_on_c, 13, 55, 0
15, 77280, Note_on_c, 13, 67, 76
15, 77344, Note_on_c, 13, 67, 0
15, 77360, Note_on_c, 13, 67, 76
15, 77424, Note_on_c, 13, 67, 0
15, 77440, Note_on_c, 13, 67, 76
15, 77504, Note_on_c, 13, 67, 0
15, 77520, Note_on_c, 13, 60, 76
15, 77584, Note_on_c, 13, 60, 0
15, 77600, Note_on_c, 13, 60, 76
15, 77664, Note_on_c, 13, 60, 0
15, 77680, Note_on_c, 13, 60, 76
15, 77744, Note_on_c, 13, 60, 0
15, 77760, Note_on_c, 13, 60, 76
15, 77824, Note_on_c, 13, 60, 0
15, 77840, Note_on_c, 13, 60, 76
15, 77904, Note_on_c, 13, 60, 0
15, 77920, Note_on_c, 13, 60, 76
15, 77984, Note_on_c, 13, 60, 0
15, 78000, Note_on_c, 13, 60, 76
15, 78064, Note_on_c, 13, 60, 0
15, 78080, Note_on_c, 13, 60, 76
15, 78144, Note_on_c, 13, 60, 0
15, 78160, Note_on_c, 13, 60, 76
15, 78224, Note_on_c, 13, 60, 0
15, 78240, Note_on_c, 13, 60, 76
15, 78304, Note_on_c, 13, 60, 0
15, 78320, Note_on_c, 13, 60, 76
15, 78384, Note_on_c, 13, 60, 0
15, 78400, Note_on_c, 13, 60, 76
15, 78464, Note_on_c, 13, 60, 0
15, 78480, Note_on_c, 13, 59, 76
15, 78544, Note_on_c, 13, 59, 0
15, 78560, Note_on_c, 13, 59, 76
15, 78624, Note_on_c, 13, 59, 0
15, 78640, Note_on_c, 13, 59, 76
15, 78704, Note_on_c, 13, 59, 0
15, 78720, Note_on_c, 13, 59, 76
15, 78784, Note_on_c, 13, 59, 0
15, 78800, Note_on_c, 13, 59, 76
15, 78864, Note_on_c, 13, 59, 0
15, 78880, Note_on_c, 13, 59, 76
15, 78944, Note_on_c, 13, 59, 0
15, 78960, Note_on_c, 13, 59, 76
15, 79024, Note_on_c, 13, 59, 0
15, 79040, Note_on_c, 13, 59, 76
15, 79104, Note_on_c, 13, 59, 0
15, 79120, Note_on_c, 13, 59, 76
15, 79184, Note_on_c, 13, 59, 0
15, 79200, Note_on_c, 13, 58, 76
15, 79264, Note_on_c, 13, 58, 0
15, 79280, Note_on_c, 13, 58, 76
15, 79344, Note_on_c, 13, 58, 0
15, 79360, Note_on_c, 13, 58, 76
15, 79424, Note_on_c, 13, 58, 0
15, 79440, Note_on_c, 13, 57, 76
15, 79504, Note_on_c, 13, 57, 0
15, 79520, Note_on_c, 13, 57, 76
15, 79584, Note_on_c, 13, 57, 0
15, 79600, Note_on_c, 13, 57, 76
15, 79664, Note_on_c, 13, 57, 0
15, 79680, Note_on_c, 13, 57, 76
15, 79744, Note_on_c, 13, 57, 0
15, 79760, Note_on_c, 13, 57, 76
15, 79824, Note_on_c, 13, 57, 0
15, 79840, Note_on_c, 13, 57, 76
15, 79904, Note_on_c, 13, 57, 0
15, 79920, Note_on_c, 13, 57, 76
15, 79984, Note_on_c, 13, 57, 0
15, 80000, Note_on_c, 13, 57, 76
15, 80064, Note_on_c, 13, 57, 0
15, 80080, Note_on_c, 13, 57, 76
15, 80144, Note_on_c, 13, 57, 0
15, 80160, Note_on_c, 13, 56, 76
15, 80224, Note_on_c, 13, 56, 0
15, 80240, Note_on_c, 13, 56, 76
15, 80304, Note_on_c, 13, 56, 0
15, 80320, Note_on_c, 13, 56, 76
15, 80384, Note_on_c, 13, 56, 0
15, 80400, Note_on_c, 13, 55, 76
15, 80464, Note_on_c, 13, 55, 0
15, 80480, Note_on_c, 13, 55, 76
15, 80544, Note_on_c, 13, 55, 0
15, 80560, Note_on_c, 13, 55, 76
15, 80624, Note_on_c, 13, 55, 0
15, 80640, Note_on_c, 13, 67, 80
15, 80640, Note_on_c, 13, 55, 80
15, 80704, Note_on_c, 13, 67, 0
15, 80704, Note_on_c, 13, 55, 0
15, 80720, Note_on_c, 13, 67, 80
15, 80720, Note_on_c, 13, 55, 80
15, 80784, Note_on_c, 13, 67, 0
15, 80784, Note_on_c, 13, 55, 0
15, 80800, Note_on_c, 13, 55, 80
15, 80800, Note_on_c, 13, 67, 80
15, 80864, Note_on_c, 13, 55, 0
15, 80864, Note_on_c, 13, 67, 0
15, 80880, Note_on_c, 13, 55, 80
15, 80880, Note_on_c, 13, 67, 80
15, 80944, Note_on_c, 13, 55, 0
15, 80944, Note_on_c, 13, 67, 0
15, 80960, Note_on_c, 13, 67, 80
15, 80960, Note_on_c, 13, 55, 80
15, 81024, Note_on_c, 13, 67, 0
15, 81024, Note_on_c, 13, 55, 0
15, 81040, Note_on_c, 13, 55, 80
15, 81040, Note_on_c, 13, 67, 80
15, 81104, Note_on_c, 13, 55, 0
15, 81104, Note_on_c, 13, 67, 0
15, 81120, Note_on_c, 13, 67, 80
15, 81120, Note_on_c, 13, 55, 80
15, 81184, Note_on_c, 13, 67, 0
15, 81184, Note_on_c, 13, 55, 0
15, 81200, Note_on_c, 13, 55, 80
15, 81200, Note_on_c, 13, 67, 80
15, 81264, Note_on_c, 13, 55, 0
15, 81264, Note_on_c, 13, 67, 0
15, 81280, Note_on_c, 13, 55, 80
15, 81280, Note_on_c, 13, 67, 80
15, 81344, Note_on_c, 13, 55, 0
15, 81344, Note_on_c, 13, 67, 0
15, 81360, Note_on_c, 13, 55, 80
15, 81360, Note_on_c, 13, 67, 80
15, 81424, Note_on_c, 13, 55, 0
15, 81424, Note_on_c, 13, 67, 0
15, 81440, Note_on_c, 13, 55, 80
15, 81440, Note_on_c, 13, 67, 80
15, 81504, Note_on_c, 13, 55, 0
15, 81504, Note_on_c, 13, 67, 0
15, 81520, Note_on_c, 13, 55, 80
15, 81520, Note_on_c, 13, 67, 80
15, 81584, Note_on_c, 13, 55, 0
15, 81584, Note_on_c, 13, 67, 0
15, 81600, Note_on_c, 13, 55, 80
15, 81600, Note_on_c, 13, 67, 80
15, 81664, Note_on_c, 13, 55, 0
15, 81664, Note_on_c, 13, 67, 0
15, 81680, Note_on_c, 13, 67, 80
15, 81680, Note_on_c, 13, 55, 80
15, 81744, Note_on_c, 13, 67, 0
15, 81744, Note_on_c, 13, 55, 0
15, 81760, Note_on_c, 13, 55, 80
15, 81760, Note_on_c, 13, 67, 80
15, 81824, Note_on_c, 13, 55, 0
15, 81824, Note_on_c, 13, 67, 0
15, 81840, Note_on_c, 13, 67, 80
15, 81840, Note_on_c, 13, 55, 80
15, 81904, Note_on_c, 13, 67, 0
15, 81904, Note_on_c, 13, 55, 0
15, 81920, Note_on_c, 13, 67, 80
15, 81920, Note_on_c, 13, 55, 80
15, 81984, Note_on_c, 13, 67, 0
15, 81984, Note_on_c, 13, 55, 0
15, 82000, Note_on_c, 13, 67, 80
15, 82000, Note_on_c, 13, 55, 80
15, 82064, Note_on_c, 13, 67, 0
15, 82064, Note_on_c, 13, 55, 0
15, 82080, Note_on_c, 13, 55, 80
15, 82080, Note_on_c, 13, 67, 80
15, 82144, Note_on_c, 13, 55, 0
15, 82144, Note_on_c, 13, 67, 0
15, 82160, Note_on_c, 13, 55, 80
15, 82160, Note_on_c, 13, 67, 80
15, 82224, Note_on_c, 13, 55, 0
15, 82224, Note_on_c, 13, 67, 0
15, 82240, Note_on_c, 13, 55, 80
15, 82240, Note_on_c, 13, 67, 80
15, 82304, Note_on_c, 13, 55, 0
15, 82304, Note_on_c, 13, 67, 0
15, 82320, Note_on_c, 13, 67, 80
15, 82320, Note_on_c, 13, 55, 80
15, 82384, Note_on_c, 13, 67, 0
15, 82384, Note_on_c, 13, 55, 0
15, 82400, Note_on_c, 13, 67, 80
15, 82400, Note_on_c, 13, 55, 80
15, 82464, Note_on_c, 13, 67, 0
15, 82464, Note_on_c, 13, 55, 0
15, 82480, Note_on_c, 13, 67, 80
15, 82480, Note_on_c, 13, 55, 80
15, 82544, Note_on_c, 13, 67, 0
15, 82544, Note_on_c, 13, 55, 0
15, 82560, Note_on_c, 13, 48, 80
15, 82560, Note_on_c, 13, 60, 80
15, 82624, Note_on_c, 13, 48, 0
15, 82624, Note_on_c, 13, 60, 0
15, 82640, Note_on_c, 13, 60, 80
15, 82640, Note_on_c, 13, 48, 80
15, 82704, Note_on_c, 13, 60, 0
15, 82704, Note_on_c, 13, 48, 0
15, 82720, Note_on_c, 13, 60, 80
15, 82720, Note_on_c, 13, 48, 80
15, 82784, Note_on_c, 13, 60, 0
15, 82784, Note_on_c, 13, 48, 0
15, 82800, Note_on_c, 13, 48, 80
15, 82800, Note_on_c, 13, 60, 80
15, 82864, Note_on_c, 13, 48, 0
15, 82864, Note_on_c, 13, 60, 0
15, 82880, Note_on_c, 13, 60, 80
15, 82880, Note_on_c, 13, 48, 80
15, 82944, Note_on_c, 13, 60, 0
15, 82944, Note_on_c, 13, 48, 0
15, 82960, Note_on_c, 13, 48, 80
15, 82960, Note_on_c, 13, 60, 80
15, 83024, Note_on_c, 13, 48, 0
15, 83024, Note_on_c, 13, 60, 0
15, 83040, Note_on_c, 13, 48, 80
15, 83040, Note_on_c, 13, 60, 80
15, 83104, Note_on_c, 13, 48, 0
15, 83104, Note_on_c, 13, 60, 0
15, 83120, Note_on_c, 13, 48, 80
15, 83120, Note_on_c, 13, 60, 80
15, 83184, Note_on_c, 13, 48, 0
15, 83184, Note_on_c, 13, 60, 0
15, 83200, Note_on_c, 13, 60, 80
15, 83200, Note_on_c, 13, 48, 80
15, 83264, Note_on_c, 13, 60, 0
15, 83264, Note_on_c, 13, 48, 0
15, 83280, Note_on_c, 13, 48, 80
15, 83280, Note_on_c, 13, 60, 80
15, 83344, Note_on_c, 13, 48, 0
15, 83344, Note_on_c, 13, 60, 0
15, 83360, Note_on_c, 13, 48, 80
15, 83360, Note_on_c, 13, 60, 80
15, 83424, Note_on_c, 13, 48, 0
15, 83424, Note_on_c, 13, 60, 0
15, 83440, Note_on_c, 13, 48, 80
15, 83440, Note_on_c, 13, 60, 80
15, 83504, Note_on_c, 13, 48, 0
15, 83504, Note_on_c, 13, 60, 0
15, 83520, Note_on_c, 13, 60, 80
15, 83520, Note_on_c, 13, 48, 80
15, 83584, Note_on_c, 13, 60, 0
15, 83584, Note_on_c, 13, 48, 0
15, 83600, Note_on_c, 13, 60, 80
15, 83600, Note_on_c, 13, 48, 80
15, 83664, Note_on_c, 13, 60, 0
15, 83664, Note_on_c, 13, 48, 0
15, 83680, Note_on_c, 13, 48, 80
15, 83680, Note_on_c, 13, 60, 80
15, 83744, Note_on_c, 13, 48, 0
15, 83744, Note_on_c, 13, 60, 0
15, 83760, Note_on_c, 13, 48, 80
15, 83760, Note_on_c, 13, 60, 80
15, 83824, Note_on_c, 13, 48, 0
15, 83824, Note_on_c, 13, 60, 0
15, 83840, Note_on_c, 13, 48, 80
15, 83840, Note_on_c, 13, 60, 80
15, 83904, Note_on_c, 13, 48, 0
15, 83904, Note_on_c, 13, 60, 0
15, 83920, Note_on_c, 13, 48, 80
15, 83920, Note_on_c, 13, 60, 80
15, 83984, Note_on_c, 13, 48, 0
15, 83984, Note_on_c, 13, 60, 0
15, 84000, Note_on_c, 13, 48, 80
15, 84000, Note_on_c, 13, 60, 80
15, 84064, Note_on_c, 13, 48, 0
15, 84064, Note_on_c, 13, 60, 0
15, 84080, Note_on_c, 13, 48, 80
15, 84080, Note_on_c, 13, 60, 80
15, 84144, Note_on_c, 13, 48, 0
15, 84144, Note_on_c, 13, 60, 0
15, 84160, Note_on_c, 13, 60, 80
15, 84160, Note_on_c, 13, 48, 80
15, 84224, Note_on_c, 13, 60, 0
15, 84224, Note_on_c, 13, 48, 0
15, 84240, Note_on_c, 13, 48, 80
15, 84240, Note_on_c, 13, 60, 80
15, 84304, Note_on_c, 13, 48, 0
15, 84304, Note_on_c, 13, 60, 0
15, 84320, Note_on_c, 13, 48, 80
15, 84320, Note_on_c, 13, 60, 80
15, 84384, Note_on_c, 13, 48, 0
15, 84384, Note_on_c, 13, 60, 0
15, 84400, Note_on_c, 13, 60, 80
15, 84400, Note_on_c, 13, 48, 80
15, 84464, Note_on_c, 13, 60, 0
15, 84464, Note_on_c, 13, 48, 0
15, 84480, Note_on_c, 13, 53, 84
15, 84480, Note_on_c, 13, 57, 84
15, 84544, Note_on_c, 13, 53, 0
15, 84544, Note_on_c, 13, 57, 0
15, 84560, Note_on_c, 13, 53, 84
15, 84560, Note_on_c, 13, 57, 84
15, 84624, Note_on_c, 13, 53, 0
15, 84624, Note_on_c, 13, 57, 0
15, 84640, Note_on_c, 13, 53, 84
15, 84640, Note_on_c, 13, 57, 84
15, 84704, Note_on_c, 13, 53, 0
15, 84704, Note_on_c, 13, 57, 0
15, 84720, Note_on_c, 13, 57, 84
15, 84720, Note_on_c, 13, 53, 84
15, 84784, Note_on_c, 13, 57, 0
15, 84784, Note_on_c, 13, 53, 0
15, 84800, Note_on_c, 13, 57, 84
15, 84800, Note_on_c, 13, 53, 84
15, 84864, Note_on_c, 13, 57, 0
15, 84864, Note_on_c, 13, 53, 0
15, 84880, Note_on_c, 13, 57, 84
15, 84880, Note_on_c, 13, 53, 84
15, 84944, Note_on_c, 13, 57, 0
15, 84944, Note_on_c, 13, 53, 0
15, 84960, Note_on_c, 13, 57, 84
15, 84960, Note_on_c, 13, 53, 84
15, 85024, Note_on_c, 13, 57, 0
15, 85024, Note_on_c, 13, 53, 0
15, 85040, Note_on_c, 13, 53, 84
15, 85040, Note_on_c, 13, 57, 84
15, 85104, Note_on_c, 13, 53, 0
15, 85104, Note_on_c, 13, 57, 0
15, 85120, Note_on_c, 13, 57, 84
15, 85120, Note_on_c, 13, 53, 84
15, 85184, Note_on_c, 13, 57, 0
15, 85184, Note_on_c, 13, 53, 0
15, 85200, Note_on_c, 13, 53, 84
15, 85200, Note_on_c, 13, 57, 84
15, 85264, Note_on_c, 13, 53, 0
15, 85264, Note_on_c, 13, 57, 0
15, 85280, Note_on_c, 13, 57, 84
15, 85280, Note_on_c, 13, 53, 84
15, 85344, Note_on_c, 13, 57, 0
15, 85344, Note_on_c, 13, 53, 0
15, 85360, Note_on_c, 13, 53, 84
15, 85360, Note_on_c, 13, 57, 84
15, 85424, Note_on_c, 13, 53, 0
15, 85424, Note_on_c, 13, 57, 0
15, 85440, Note_on_c, 13, 53, 84
15, 85440, Note_on_c, 13, 57, 84
15, 85504, Note_on_c, 13, 53, 0
15, 85504, Note_on_c, 13, 57, 0
15, 85520, Note_on_c, 13, 57, 84
15, 85520, Note_on_c, 13, 53, 84
15, 85584, Note_on_c, 13, 57, 0
15, 85584, Note_on_c, 13, 53, 0
15, 85600, Note_on_c, 13, 57, 84
15, 85600, Note_on_c, 13, 53, 84
15, 85664, Note_on_c, 13, 57, 0
15, 85664, Note_on_c, 13, 53, 0
15, 85680, Note_on_c, 13, 53, 84
15, 85680, Note_on_c, 13, 57, 84
15, 85744, Note_on_c, 13, 53, 0
15, 85744, Note_on_c, 13, 57, 0
15, 85760, Note_on_c, 13, 53, 84
15, 85760, Note_on_c, 13, 57, 84
15, 85824, Note_on_c, 13, 53, 0
15, 85824, Note_on_c, 13, 57, 0
15, 85840, Note_on_c, 13, 53, 84
15, 85840, Note_on_c, 13, 57, 84
15, 85904, Note_on_c, 13, 53, 0
15, 85904, Note_on_c, 13, 57, 0
15, 85920, Note_on_c, 13, 57, 84
15, 85920, Note_on_c, 13, 53, 84
15, 85984, Note_on_c, 13, 57, 0
15, 85984, Note_on_c, 13, 53, 0
15, 86000, Note_on_c, 13, 53, 84
15, 86000, Note_on_c, 13, 57, 84
15, 86064, Note_on_c, 13, 53, 0
15, 86064, Note_on_c, 13, 57, 0
15, 86080, Note_on_c, 13, 53, 84
15, 86080, Note_on_c, 13, 57, 84
15, 86144, Note_on_c, 13, 53, 0
15, 86144, Note_on_c, 13, 57, 0
15, 86160, Note_on_c, 13, 53, 84
15, 86160, Note_on_c, 13, 57, 84
15, 86224, Note_on_c, 13, 53, 0
15, 86224, Note_on_c, 13, 57, 0
15, 86240, Note_on_c, 13, 53, 84
15, 86240, Note_on_c, 13, 57, 84
15, 86304, Note_on_c, 13, 53, 0
15, 86304, Note_on_c, 13, 57, 0
15, 86320, Note_on_c, 13, 57, 84
15, 86320, Note_on_c, 13, 53, 84
15, 86384, Note_on_c, 13, 57, 0
15, 86384, Note_on_c, 13, 53, 0
15, 86400, Note_on_c, 13, 53, 84
15, 86400, Note_on_c, 13, 57, 84
15, 86639, Note_on_c, 13, 53, 0
15, 86639, Note_on_c, 13, 57, 0
15, 87840, Note_on_c, 13, 53, 52
15, 87840, Note_on_c, 13, 57, 52
15, 87904, Note_on_c, 13, 53, 0
15, 87904, Note_on_c, 13, 57, 0
15, 87920, Note_on_c, 13, 53, 52
15, 87920, Note_on_c, 13, 57, 52
15, 87984, Note_on_c, 13, 53, 0
15, 87984, Note_on_c, 13, 57, 0
15, 88000, Note_on_c, 13, 53, 52
15, 88000, Note_on_c, 13, 57, 52
15, 88064, Note_on_c, 13, 53, 0
15, 88064, Note_on_c, 13, 57, 0
15, 88080, Note_on_c, 13, 53, 52
15, 88080, Note_on_c, 13, 57, 52
15, 88144, Note_on_c, 13, 53, 0
15, 88144, Note_on_c, 13, 57, 0
15, 88160, Note_on_c, 13, 53, 52
15, 88160, Note_on_c, 13, 57, 52
15, 88224, Note_on_c, 13, 53, 0
15, 88224, Note_on_c, 13, 57, 0
15, 88240, Note_on_c, 13, 53, 52
15, 88240, Note_on_c, 13, 57, 52
15, 88304, Note_on_c, 13, 53, 0
15, 88304, Note_on_c, 13, 57, 0
15, 88320, Note_on_c, 13, 53, 52
15, 88320, Note_on_c, 13, 57, 52
15, 88559, Note_on_c, 13, 53, 0
15, 88559, Note_on_c, 13, 57, 0
15, 91680, Note_on_c, 13, 53, 44
15, 91680, Note_on_c, 13, 57, 44
15, 91744, Note_on_c, 13, 53, 0
15, 91744, Note_on_c, 13, 57, 0
15, 91760, Note_on_c, 13, 57, 44
15, 91760, Note_on_c, 13, 53, 44
15, 91824, Note_on_c, 13, 57, 0
15, 91824, Note_on_c, 13, 53, 0
15, 91840, Note_on_c, 13, 53, 44
15, 91840, Note_on_c, 13, 57, 44
15, 91904, Note_on_c, 13, 53, 0
15, 91904, Note_on_c, 13, 57, 0
15, 91920, Note_on_c, 13, 57, 44
15, 91920, Note_on_c, 13, 53, 44
15, 91984, Note_on_c, 13, 57, 0
15, 91984, Note_on_c, 13, 53, 0
15, 92000, Note_on_c, 13, 53, 44
15, 92000, Note_on_c, 13, 57, 44
15, 92064, Note_on_c, 13, 53, 0
15, 92064, Note_on_c, 13, 57, 0
15, 92080, Note_on_c, 13, 57, 44
15, 92080, Note_on_c, 13, 53, 44
15, 92144, Note_on_c, 13, 57, 0
15, 92144, Note_on_c, 13, 53, 0
15, 92160, Note_on_c, 13, 57, 44
15, 92160, Note_on_c, 13, 53, 44
15, 92399, Note_on_c, 13, 57, 0
15, 92399, Note_on_c, 13, 53, 0
15, 94560, Note_on_c, 13, 53, 44
15, 94560, Note_on_c, 13, 57, 44
15, 94679, Note_on_c, 13, 53, 0
15, 94679, Note_on_c, 13, 57, 0
15, 94680, Note_on_c, 13, 55, 44
15, 94680, Note_on_c, 13, 58, 44
15, 94779, Note_on_c, 13, 55, 0
15, 94779, Note_on_c, 13, 58, 0
15, 94800, Note_on_c, 13, 55, 44
15, 94800, Note_on_c, 13, 48, 44
15, 94959, Note_on_c, 13, 55, 0
15, 94959, Note_on_c, 13, 48, 0
15, 96480, Note_on_c, 13, 58, 44
15, 96480, Note_on_c, 13, 55, 44
15, 96599, Note_on_c, 13, 58, 0
15, 96599, Note_on_c, 13, 55, 0
15, 96600, Note_on_c, 13, 57, 44
15, 96600, Note_on_c, 13, 60, 44
15, 96699, Note_on_c, 13, 57, 0
15, 96699, Note_on_c, 13, 60, 0
15, 96720, Note_on_c, 13, 53, 44
15, 96720, Note_on_c, 13, 57, 44
15, 96879, Note_on_c, 13, 53, 0
15, 96879, Note_on_c, 13, 57, 0
15, 97440, Note_on_c, 13, 69, 44
15, 97504, Note_on_c, 13, 69, 0
15, 97520, Note_on_c, 13, 69, 44
15, 97584, Note_on_c, 13, 69, 0
15, 97600, Note_on_c, 13, 69, 44
15, 97664, Note_on_c, 13, 69, 0
15, 97680, Note_on_c, 13, 67, 44
15, 97744, Note_on_c, 13, 67, 0
15, 97760, Note_on_c, 13, 67, 44
15, 97824, Note_on_c, 13, 67, 0
15, 97840, Note_on_c, 13, 67, 44
15, 97904, Note_on_c, 13, 67, 0
15, 97920, Note_on_c, 13, 65, 44
15, 97984, Note_on_c, 13, 65, 0
15, 98000, Note_on_c, 13, 65, 44
15, 98064, Note_on_c, 13, 65, 0
15, 98080, Note_on_c, 13, 65, 44
15, 98144, Note_on_c, 13, 65, 0
15, 98160, Note_on_c, 13, 65, 44
15, 98224, Note_on_c, 13, 65, 0
15, 98240, Note_on_c, 13, 65, 44
15, 98304, Note_on_c, 13, 65, 0
15, 98320, Note_on_c, 13, 65, 44
15, 98384, Note_on_c, 13, 65, 0
15, 98400, Note_on_c, 13, 65, 44
15, 98464, Note_on_c, 13, 65, 0
15, 98480, Note_on_c, 13, 65, 44
15, 98544, Note_on_c, 13, 65, 0
15, 98560, Note_on_c, 13, 65, 44
15, 98624, Note_on_c, 13, 65, 0
15, 98640, Note_on_c, 13, 64, 44
15, 98704, Note_on_c, 13, 64, 0
15, 98720, Note_on_c, 13, 64, 44
15, 98784, Note_on_c, 13, 64, 0
15, 98800, Note_on_c, 13, 64, 44
15, 98864, Note_on_c, 13, 64, 0
15, 98880, Note_on_c, 13, 62, 44
15, 98944, Note_on_c, 13, 62, 0
15, 98960, Note_on_c, 13, 74, 44
15, 99024, Note_on_c, 13, 74, 0
15, 99040, Note_on_c, 13, 74, 44
15, 99104, Note_on_c, 13, 74, 0
15, 99120, Note_on_c, 13, 74, 44
15, 99184, Note_on_c, 13, 74, 0
15, 99200, Note_on_c, 13, 74, 44
15, 99264, Note_on_c, 13, 74, 0
15, 99280, Note_on_c, 13, 74, 44
15, 99344, Note_on_c, 13, 74, 0
15, 99360, Note_on_c, 13, 74, 44
15, 99424, Note_on_c, 13, 74, 0
15, 99440, Note_on_c, 13, 74, 44
15, 99504, Note_on_c, 13, 74, 0
15, 99520, Note_on_c, 13, 74, 44
15, 99584, Note_on_c, 13, 74, 0
15, 99600, Note_on_c, 13, 72, 44
15, 99664, Note_on_c, 13, 72, 0
15, 99680, Note_on_c, 13, 72, 44
15, 99744, Note_on_c, 13, 72, 0
15, 99760, Note_on_c, 13, 72, 44
15, 99824, Note_on_c, 13, 72, 0
15, 99840, Note_on_c, 13, 70, 44
15, 99904, Note_on_c, 13, 70, 0
15, 99920, Note_on_c, 13, 70, 44
15, 99984, Note_on_c, 13, 70, 0
15, 100000, Note_on_c, 13, 70, 44
15, 100064, Note_on_c, 13, 70, 0
15, 100080, Note_on_c, 13, 69, 44
15, 100144, Note_on_c, 13, 69, 0
15, 100160, Note_on_c, 13, 69, 44
15, 100224, Note_on_c, 13, 69, 0
15, 100240, Note_on_c, 13, 69, 44
15, 100304, Note_on_c, 13, 69, 0
15, 100320, Note_on_c, 13, 70, 44
15, 100384, Note_on_c, 13, 70, 0
15, 100400, Note_on_c, 13, 70, 44
15, 100464, Note_on_c, 13, 70, 0
15, 100480, Note_on_c, 13, 70, 44
15, 100544, Note_on_c, 13, 70, 0
15, 100560, Note_on_c, 13, 72, 44
15, 100624, Note_on_c, 13, 72, 0
15, 100640, Note_on_c, 13, 72, 44
15, 100704, Note_on_c, 13, 72, 0
15, 100720, Note_on_c, 13, 72, 44
15, 100784, Note_on_c, 13, 72, 0
15, 100800, Note_on_c, 13, 74, 44
15, 100864, Note_on_c, 13, 74, 0
15, 100880, Note_on_c, 13, 62, 44
15, 100944, Note_on_c, 13, 62, 0
15, 100960, Note_on_c, 13, 62, 44
15, 101024, Note_on_c, 13, 62, 0
15, 101040, Note_on_c, 13, 62, 44
15, 101104, Note_on_c, 13, 62, 0
15, 101120, Note_on_c, 13, 62, 44
15, 101184, Note_on_c, 13, 62, 0
15, 101200, Note_on_c, 13, 62, 44
15, 101264, Note_on_c, 13, 62, 0
15, 101280, Note_on_c, 13, 62, 76
15, 101344, Note_on_c, 13, 62, 0
15, 101360, Note_on_c, 13, 62, 76
15, 101424, Note_on_c, 13, 62, 0
15, 101440, Note_on_c, 13, 62, 76
15, 101504, Note_on_c, 13, 62, 0
15, 101520, Note_on_c, 13, 60, 76
15, 101584, Note_on_c, 13, 60, 0
15, 101600, Note_on_c, 13, 60, 76
15, 101664, Note_on_c, 13, 60, 0
15, 101680, Note_on_c, 13, 60, 76
15, 101744, Note_on_c, 13, 60, 0
15, 101760, Note_on_c, 13, 58, 76
15, 101824, Note_on_c, 13, 58, 0
15, 101840, Note_on_c, 13, 58, 76
15, 101904, Note_on_c, 13, 58, 0
15, 101920, Note_on_c, 13, 58, 76
15, 101984, Note_on_c, 13, 58, 0
15, 102000, Note_on_c, 13, 57, 76
15, 102064, Note_on_c, 13, 57, 0
15, 102080, Note_on_c, 13, 57, 76
15, 102144, Note_on_c, 13, 57, 0
15, 102160, Note_on_c, 13, 57, 76
15, 102224, Note_on_c, 13, 57, 0
15, 102240, Note_on_c, 13, 58, 76
15, 102304, Note_on_c, 13, 58, 0
15, 102320, Note_on_c, 13, 58, 76
15, 102384, Note_on_c, 13, 58, 0
15, 102400, Note_on_c, 13, 58, 76
15, 102464, Note_on_c, 13, 58, 0
15, 102480, Note_on_c, 13, 60, 76
15, 102544, Note_on_c, 13, 60, 0
15, 102560, Note_on_c, 13, 60, 76
15, 102624, Note_on_c, 13, 60, 0
15, 102640, Note_on_c, 13, 60, 76
15, 102704, Note_on_c, 13, 60, 0
15, 102720, Note_on_c, 13, 62, 76
15, 102784, Note_on_c, 13, 62, 0
15, 102800, Note_on_c, 13, 74, 52
15, 102864, Note_on_c, 13, 74, 0
15, 102880, Note_on_c, 13, 74, 52
15, 102944, Note_on_c, 13, 74, 0
15, 102960, Note_on_c, 13, 74, 52
15, 103024, Note_on_c, 13, 74, 0
15, 103040, Note_on_c, 13, 74, 52
15, 103104, Note_on_c, 13, 74, 0
15, 103120, Note_on_c, 13, 74, 52
15, 103184, Note_on_c, 13, 74, 0
15, 103200, Note_on_c, 13, 74, 44
15, 103264, Note_on_c, 13, 74, 0
15, 103280, Note_on_c, 13, 74, 44
15, 103344, Note_on_c, 13, 74, 0
15, 103360, Note_on_c, 13, 74, 44
15, 103424, Note_on_c, 13, 74, 0
15, 103440, Note_on_c, 13, 72, 44
15, 103504, Note_on_c, 13, 72, 0
15, 103520, Note_on_c, 13, 72, 44
15, 103584, Note_on_c, 13, 72, 0
15, 103600, Note_on_c, 13, 72, 44
15, 103664, Note_on_c, 13, 72, 0
15, 103680, Note_on_c, 13, 70, 44
15, 103744, Note_on_c, 13, 70, 0
15, 103760, Note_on_c, 13, 70, 44
15, 103824, Note_on_c, 13, 70, 0
15, 103840, Note_on_c, 13, 70, 44
15, 103904, Note_on_c, 13, 70, 0
15, 103920, Note_on_c, 13, 69, 44
15, 103984, Note_on_c, 13, 69, 0
15, 104000, Note_on_c, 13, 69, 44
15, 104064, Note_on_c, 13, 69, 0
15, 104080, Note_on_c, 13, 69, 44
15, 104144, Note_on_c, 13, 69, 0
15, 104160, Note_on_c, 13, 70, 44
15, 104224, Note_on_c, 13, 70, 0
15, 104240, Note_on_c, 13, 70, 44
15, 104304, Note_on_c, 13, 70, 0
15, 104320, Note_on_c, 13, 70, 44
15, 104384, Note_on_c, 13, 70, 0
15, 104400, Note_on_c, 13, 72, 44
15, 104464, Note_on_c, 13, 72, 0
15, 104480, Note_on_c, 13, 72, 44
15, 104544, Note_on_c, 13, 72, 0
15, 104560, Note_on_c, 13, 72, 44
15, 104624, Note_on_c, 13, 72, 0
15, 104640, Note_on_c, 13, 74, 44
15, 104704, Note_on_c, 13, 74, 0
15, 104720, Note_on_c, 13, 62, 44
15, 104784, Note_on_c, 13, 62, 0
15, 104800, Note_on_c, 13, 62, 44
15, 104864, Note_on_c, 13, 62, 0
15, 104880, Note_on_c, 13, 62, 44
15, 104944, Note_on_c, 13, 62, 0
15, 104960, Note_on_c, 13, 62, 44
15, 105024, Note_on_c, 13, 62, 0
15, 105040, Note_on_c, 13, 62, 44
15, 105104, Note_on_c, 13, 62, 0
15, 105120, Note_on_c, 13, 62, 44
15, 105184, Note_on_c, 13, 62, 0
15, 105200, Note_on_c, 13, 62, 44
15, 105264, Note_on_c, 13, 62, 0
15, 105280, Note_on_c, 13, 62, 44
15, 105344, Note_on_c, 13, 62, 0
15, 105360, Note_on_c, 13, 60, 44
15, 105424, Note_on_c, 13, 60, 0
15, 105440, Note_on_c, 13, 60, 44
15, 105504, Note_on_c, 13, 60, 0
15, 105520, Note_on_c, 13, 60, 44
15, 105584, Note_on_c, 13, 60, 0
15, 105600, Note_on_c, 13, 58, 44
15, 105664, Note_on_c, 13, 58, 0
15, 105680, Note_on_c, 13, 70, 44
15, 105744, Note_on_c, 13, 70, 0
15, 105760, Note_on_c, 13, 70, 44
15, 105824, Note_on_c, 13, 70, 0
15, 105840, Note_on_c, 13, 70, 44
15, 105904, Note_on_c, 13, 70, 0
15, 105920, Note_on_c, 13, 70, 44
15, 105984, Note_on_c, 13, 70, 0
15, 106000, Note_on_c, 13, 70, 44
15, 106064, Note_on_c, 13, 70, 0
15, 106080, Note_on_c, 13, 70, 44
15, 106144, Note_on_c, 13, 70, 0
15, 106160, Note_on_c, 13, 70, 44
15, 106224, Note_on_c, 13, 70, 0
15, 106240, Note_on_c, 13, 70, 44
15, 106304, Note_on_c, 13, 70, 0
15, 106320, Note_on_c, 13, 69, 44
15, 106384, Note_on_c, 13, 69, 0
15, 106400, Note_on_c, 13, 69, 44
15, 106464, Note_on_c, 13, 69, 0
15, 106480, Note_on_c, 13, 69, 44
15, 106544, Note_on_c, 13, 69, 0
15, 106560, Note_on_c, 13, 69, 44
15, 106624, Note_on_c, 13, 69, 0
15, 106640, Note_on_c, 13, 69, 44
15, 106704, Note_on_c, 13, 69, 0
15, 106720, Note_on_c, 13, 69, 44
15, 106784, Note_on_c, 13, 69, 0
15, 106800, Note_on_c, 13, 67, 44
15, 106864, Note_on_c, 13, 67, 0
15, 106880, Note_on_c, 13, 67, 44
15, 106944, Note_on_c, 13, 67, 0
15, 106960, Note_on_c, 13, 67, 44
15, 107024, Note_on_c, 13, 67, 0
15, 107040, Note_on_c, 13, 67, 44
15, 107104, Note_on_c, 13, 67, 0
15, 107120, Note_on_c, 13, 67, 44
15, 107184, Note_on_c, 13, 67, 0
15, 107200, Note_on_c, 13, 67, 44
15, 107264, Note_on_c, 13, 67, 0
15, 107280, Note_on_c, 13, 68, 44
15, 107344, Note_on_c, 13, 68, 0
15, 107360, Note_on_c, 13, 68, 44
15, 107424, Note_on_c, 13, 68, 0
15, 107440, Note_on_c, 13, 68, 44
15, 107504, Note_on_c, 13, 68, 0
15, 107520, Note_on_c, 13, 57, 44
15, 107584, Note_on_c, 13, 57, 0
15, 107600, Note_on_c, 13, 57, 44
15, 107664, Note_on_c, 13, 57, 0
15, 107680, Note_on_c, 13, 57, 44
15, 107744, Note_on_c, 13, 57, 0
15, 107760, Note_on_c, 13, 57, 44
15, 107824, Note_on_c, 13, 57, 0
15, 107840, Note_on_c, 13, 57, 44
15, 107904, Note_on_c, 13, 57, 0
15, 107920, Note_on_c, 13, 57, 44
15, 107984, Note_on_c, 13, 57, 0
15, 108000, Note_on_c, 13, 57, 44
15, 108064, Note_on_c, 13, 57, 0
15, 108080, Note_on_c, 13, 57, 44
15, 108144, Note_on_c, 13, 57, 0
15, 108160, Note_on_c, 13, 57, 44
15, 108224, Note_on_c, 13, 57, 0
15, 108240, Note_on_c, 13, 57, 44
15, 108304, Note_on_c, 13, 57, 0
15, 108320, Note_on_c, 13, 57, 44
15, 108384, Note_on_c, 13, 57, 0
15, 108400, Note_on_c, 13, 57, 44
15, 108464, Note_on_c, 13, 57, 0
15, 108480, Note_on_c, 13, 57, 44
15, 108544, Note_on_c, 13, 57, 0
15, 108560, Note_on_c, 13, 57, 44
15, 108624, Note_on_c, 13, 57, 0
15, 108640, Note_on_c, 13, 57, 44
15, 108704, Note_on_c, 13, 57, 0
15, 108720, Note_on_c, 13, 57, 44
15, 108784, Note_on_c, 13, 57, 0
15, 108800, Note_on_c, 13, 57, 44
15, 108864, Note_on_c, 13, 57, 0
15, 108880, Note_on_c, 13, 57, 44
15, 108944, Note_on_c, 13, 57, 0
15, 108960, Note_on_c, 13, 57, 44
15, 109024, Note_on_c, 13, 57, 0
15, 109040, Note_on_c, 13, 57, 44
15, 109104, Note_on_c, 13, 57, 0
15, 109120, Note_on_c, 13, 57, 44
15, 109184, Note_on_c, 13, 57, 0
15, 109200, Note_on_c, 13, 57, 44
15, 109264, Note_on_c, 13, 57, 0
15, 109280, Note_on_c, 13, 57, 44
15, 109344, Note_on_c, 13, 57, 0
15, 109360, Note_on_c, 13, 57, 44
15, 109424, Note_on_c, 13, 57, 0
15, 109440, Note_on_c, 13, 57, 44
15, 109504, Note_on_c, 13, 57, 0
15, 109520, Note_on_c, 13, 57, 44
15, 109584, Note_on_c, 13, 57, 0
15, 109600, Note_on_c, 13, 57, 44
15, 109664, Note_on_c, 13, 57, 0
15, 109680, Note_on_c, 13, 57, 44
15, 109744, Note_on_c, 13, 57, 0
15, 109760, Note_on_c, 13, 57, 44
15, 109824, Note_on_c, 13, 57, 0
15, 109840, Note_on_c, 13, 57, 44
15, 109904, Note_on_c, 13, 57, 0
15, 109920, Note_on_c, 13, 57, 44
15, 109984, Note_on_c, 13, 57, 0
15, 110000, Note_on_c, 13, 57, 44
15, 110064, Note_on_c, 13, 57, 0
15, 110080, Note_on_c, 13, 57, 44
15, 110144, Note_on_c, 13, 57, 0
15, 110160, Note_on_c, 13, 57, 44
15, 110224, Note_on_c, 13, 57, 0
15, 110240, Note_on_c, 13, 57, 44
15, 110304, Note_on_c, 13, 57, 0
15, 110320, Note_on_c, 13, 57, 44
15, 110384, Note_on_c, 13, 57, 0
15, 110400, Note_on_c, 13, 57, 44
15, 110464, Note_on_c, 13, 57, 0
15, 110480, Note_on_c, 13, 57, 44
15, 110544, Note_on_c, 13, 57, 0
15, 110560, Note_on_c, 13, 57, 44
15, 110624, Note_on_c, 13, 57, 0
15, 110640, Note_on_c, 13, 57, 44
15, 110704, Note_on_c, 13, 57, 0
15, 110720, Note_on_c, 13, 57, 44
15, 110784, Note_on_c, 13, 57, 0
15, 110800, Note_on_c, 13, 57, 44
15, 110864, Note_on_c, 13, 57, 0
15, 110880, Note_on_c, 13, 57, 44
15, 110944, Note_on_c, 13, 57, 0
15, 110960, Note_on_c, 13, 57, 44
15, 111024, Note_on_c, 13, 57, 0
15, 111040, Note_on_c, 13, 57, 44
15, 111104, Note_on_c, 13, 57, 0
15, 111120, Note_on_c, 13, 57, 44
15, 111184, Note_on_c, 13, 57, 0
15, 111200, Note_on_c, 13, 57, 44
15, 111264, Note_on_c, 13, 57, 0
15, 111280, Note_on_c, 13, 57, 44
15, 111344, Note_on_c, 13, 57, 0
15, 111360, Note_on_c, 13, 57, 44
15, 111424, Note_on_c, 13, 57, 0
15, 111440, Note_on_c, 13, 57, 44
15, 111504, Note_on_c, 13, 57, 0
15, 111520, Note_on_c, 13, 57, 44
15, 111584, Note_on_c, 13, 57, 0
15, 111600, Note_on_c, 13, 57, 44
15, 111664, Note_on_c, 13, 57, 0
15, 111680, Note_on_c, 13, 57, 44
15, 111744, Note_on_c, 13, 57, 0
15, 111760, Note_on_c, 13, 57, 44
15, 111824, Note_on_c, 13, 57, 0
15, 111840, Note_on_c, 13, 57, 44
15, 111904, Note_on_c, 13, 57, 0
15, 111920, Note_on_c, 13, 57, 44
15, 111984, Note_on_c, 13, 57, 0
15, 112000, Note_on_c, 13, 57, 44
15, 112064, Note_on_c, 13, 57, 0
15, 112080, Note_on_c, 13, 57, 44
15, 112144, Note_on_c, 13, 57, 0
15, 112160, Note_on_c, 13, 57, 44
15, 112224, Note_on_c, 13, 57, 0
15, 112240, Note_on_c, 13, 57, 44
15, 112304, Note_on_c, 13, 57, 0
15, 112320, Note_on_c, 13, 57, 44
15, 112384, Note_on_c, 13, 57, 0
15, 112400, Note_on_c, 13, 57, 44
15, 112464, Note_on_c, 13, 57, 0
15, 112480, Note_on_c, 13, 57, 44
15, 112544, Note_on_c, 13, 57, 0
15, 112560, Note_on_c, 13, 57, 44
15, 112624, Note_on_c, 13, 57, 0
15, 112640, Note_on_c, 13, 57, 44
15, 112704, Note_on_c, 13, 57, 0
15, 112720, Note_on_c, 13, 57, 44
15, 112784, Note_on_c, 13, 57, 0
15, 112800, Note_on_c, 13, 57, 44
15, 112864, Note_on_c, 13, 57, 0
15, 112880, Note_on_c, 13, 57, 44
15, 112944, Note_on_c, 13, 57, 0
15, 112960, Note_on_c, 13, 57, 44
15, 113024, Note_on_c, 13, 57, 0
15, 113040, Note_on_c, 13, 57, 44
15, 113104, Note_on_c, 13, 57, 0
15, 113120, Note_on_c, 13, 57, 44
15, 113184, Note_on_c, 13, 57, 0
15, 113200, Note_on_c, 13, 57, 44
15, 113264, Note_on_c, 13, 57, 0
15, 113280, Note_on_c, 13, 57, 44
15, 113344, Note_on_c, 13, 57, 0
15, 113360, Note_on_c, 13, 57, 44
15, 113424, Note_on_c, 13, 57, 0
15, 113440, Note_on_c, 13, 57, 44
15, 113504, Note_on_c, 13, 57, 0
15, 113520, Note_on_c, 13, 57, 44
15, 113584, Note_on_c, 13, 57, 0
15, 113600, Note_on_c, 13, 57, 44
15, 113664, Note_on_c, 13, 57, 0
15, 113680, Note_on_c, 13, 57, 44
15, 113744, Note_on_c, 13, 57, 0
15, 113760, Note_on_c, 13, 57, 44
15, 113824, Note_on_c, 13, 57, 0
15, 113840, Note_on_c, 13, 57, 44
15, 113904, Note_on_c, 13, 57, 0
15, 113920, Note_on_c, 13, 57, 44
15, 113984, Note_on_c, 13, 57, 0
15, 114000, Note_on_c, 13, 57, 44
15, 114064, Note_on_c, 13, 57, 0
15, 114080, Note_on_c, 13, 57, 44
15, 114144, Note_on_c, 13, 57, 0
15, 114160, Note_on_c, 13, 57, 44
15, 114224, Note_on_c, 13, 57, 0
15, 114240, Note_on_c, 13, 57, 44
15, 114304, Note_on_c, 13, 57, 0
15, 114320, Note_on_c, 13, 57, 44
15, 114384, Note_on_c, 13, 57, 0
15, 114400, Note_on_c, 13, 57, 44
15, 114464, Note_on_c, 13, 57, 0
15, 114480, Note_on_c, 13, 57, 44
15, 114544, Note_on_c, 13, 57, 0
15, 114560, Note_on_c, 13, 57, 44
15, 114624, Note_on_c, 13, 57, 0
15, 114640, Note_on_c, 13, 57, 44
15, 114704, Note_on_c, 13, 57, 0
15, 114720, Note_on_c, 13, 57, 44
15, 114784, Note_on_c, 13, 57, 0
15, 114800, Note_on_c, 13, 57, 49
15, 114864, Note_on_c, 13, 57, 0
15, 114880, Note_on_c, 13, 57, 54
15, 114944, Note_on_c, 13, 57, 0
15, 114960, Note_on_c, 13, 57, 60
15, 115024, Note_on_c, 13, 57, 0
15, 115040, Note_on_c, 13, 57, 65
15, 115104, Note_on_c, 13, 57, 0
15, 115120, Note_on_c, 13, 57, 70
15, 115184, Note_on_c, 13, 57, 0
15, 115200, Note_on_c, 13, 57, 76
15, 115264, Note_on_c, 13, 57, 0
15, 115280, Note_on_c, 13, 57, 76
15, 115344, Note_on_c, 13, 57, 0
15, 115360, Note_on_c, 13, 57, 76
15, 115424, Note_on_c, 13, 57, 0
15, 115440, Note_on_c, 13, 57, 76
15, 115504, Note_on_c, 13, 57, 0
15, 115520, Note_on_c, 13, 57, 76
15, 115584, Note_on_c, 13, 57, 0
15, 115600, Note_on_c, 13, 57, 76
15, 115664, Note_on_c, 13, 57, 0
15, 115680, Note_on_c, 13, 57, 76
15, 115919, Note_on_c, 13, 57, 0
15, 122400, Note_on_c, 13, 65, 76
15, 122639, Note_on_c, 13, 65, 0
15, 122760, Note_on_c, 13, 63, 76
15, 122859, Note_on_c, 13, 63, 0
15, 122880, Note_on_c, 13, 63, 76
15, 123119, Note_on_c, 13, 63, 0
15, 123120, Note_on_c, 13, 62, 76
15, 123339, Note_on_c, 13, 62, 0
15, 123360, Note_on_c, 13, 62, 76
15, 123519, Note_on_c, 13, 62, 0
15, 123720, Note_on_c, 13, 60, 76
15, 123819, Note_on_c, 13, 60, 0
15, 123840, Note_on_c, 13, 60, 76
15, 124079, Note_on_c, 13, 60, 0
15, 124080, Note_on_c, 13, 58, 76
15, 124299, Note_on_c, 13, 58, 0
15, 124320, Note_on_c, 13, 58, 76
15, 124479, Note_on_c, 13, 58, 0
15, 124680, Note_on_c, 13, 57, 76
15, 124779, Note_on_c, 13, 57, 0
15, 124800, Note_on_c, 13, 57, 76
15, 125039, Note_on_c, 13, 57, 0
15, 125040, Note_on_c, 13, 55, 76
15, 125259, Note_on_c, 13, 55, 0
15, 125280, Note_on_c, 13, 55, 76
15, 125439, Note_on_c, 13, 55, 0
15, 125640, Note_on_c, 13, 53, 76
15, 125739, Note_on_c, 13, 53, 0
15, 125760, Note_on_c, 13, 53, 76
15, 125999, Note_on_c, 13, 53, 0
15, 126000, Note_on_c, 13, 52, 76
15, 126219, Note_on_c, 13, 52, 0
15, 126240, Note_on_c, 13, 52, 76
15, 126399, Note_on_c, 13, 52, 0
15, 126600, Note_on_c, 13, 59, 76
15, 126699, Note_on_c, 13, 59, 0
15, 126720, Note_on_c, 13, 57, 84
15, 126839, Note_on_c, 13, 57, 0
15, 126840, Note_on_c, 13, 57, 76
15, 127679, Note_on_c, 13, 57, 0
15, 127680, Note_on_c, 13, 57, 76
15, 128619, Note_on_c, 13, 57, 0
15, 128640, Note_on_c, 13, 62, 84
15, 128759, Note_on_c, 13, 62, 0
15, 128760, Note_on_c, 13, 62, 84
15, 129599, Note_on_c, 13, 62, 0
15, 129600, Note_on_c, 13, 62, 84
15, 130799, Note_on_c, 13, 62, 0
15, 130800, Note_on_c, 13, 67, 76
15, 131019, Note_on_c, 13, 67, 0
15, 131040, Note_on_c, 13, 67, 76
15, 131199, Note_on_c, 13, 67, 0
15, 131400, Note_on_c, 13, 55, 76
15, 131499, Note_on_c, 13, 55, 0
15, 131520, Note_on_c, 13, 55, 76
15, 131759, Note_on_c, 13, 55, 0
15, 131760, Note_on_c, 13, 53, 76
15, 131979, Note_on_c, 13, 53, 0
15, 132000, Note_on_c, 13, 53, 76
15, 132159, Note_on_c, 13, 53, 0
15, 132360, Note_on_c, 13, 52, 76
15, 132459, Note_on_c, 13, 52, 0
15, 132480, Note_on_c, 13, 57, 76
15, 132719, Note_on_c, 13, 57, 0
15, 132720, Note_on_c, 13, 59, 76
15, 132939, Note_on_c, 13, 59, 0
15, 132960, Note_on_c, 13, 59, 76
15, 133119, Note_on_c, 13, 59, 0
15, 133320, Note_on_c, 13, 60, 76
15, 133419, Note_on_c, 13, 60, 0
15, 133440, Note_on_c, 13, 60, 76
15, 133679, Note_on_c, 13, 60, 0
15, 133680, Note_on_c, 13, 62, 76
15, 133899, Note_on_c, 13, 62, 0
15, 133920, Note_on_c, 13, 64, 76
15, 134079, Note_on_c, 13, 64, 0
15, 134280, Note_on_c, 13, 65, 76
15, 134379, Note_on_c, 13, 65, 0
15, 134400, Note_on_c, 13, 64, 76
15, 134639, Note_on_c, 13, 64, 0
15, 134640, Note_on_c, 13, 63, 76
15, 134859, Note_on_c, 13, 63, 0
15, 134880, Note_on_c, 13, 63, 76
15, 135039, Note_on_c, 13, 63, 0
15, 135240, Note_on_c, 13, 62, 76
15, 135339, Note_on_c, 13, 62, 0
15, 135360, Note_on_c, 13, 62, 76
15, 135599, Note_on_c, 13, 62, 0
15, 135600, Note_on_c, 13, 60, 76
15, 135819, Note_on_c, 13, 60, 0
15, 135840, Note_on_c, 13, 59, 76
15, 135999, Note_on_c, 13, 59, 0
15, 136200, Note_on_c, 13, 57, 76
15, 136299, Note_on_c, 13, 57, 0
15, 136320, Note_on_c, 13, 62, 84
15, 136439, Note_on_c, 13, 62, 0
15, 136440, Note_on_c, 13, 62, 76
15, 137259, Note_on_c, 13, 62, 0
15, 137280, Note_on_c, 13, 67, 84
15, 137399, Note_on_c, 13, 67, 0
15, 137400, Note_on_c, 13, 67, 76
15, 138459, Note_on_c, 13, 67, 0
15, 138480, Note_on_c, 13, 67, 76
15, 138639, Note_on_c, 13, 67, 0
15, 138720, Note_on_c, 13, 61, 76
15, 138959, Note_on_c, 13, 61, 0
15, 138960, Note_on_c, 13, 62, 76
15, 139179, Note_on_c, 13, 62, 0
15, 139200, Note_on_c, 13, 60, 76
15, 139439, Note_on_c, 13, 60, 0
15, 139440, Note_on_c, 13, 62, 76
15, 139659, Note_on_c, 13, 62, 0
15, 139680, Note_on_c, 13, 71, 76
15, 139919, Note_on_c, 13, 71, 0
15, 139920, Note_on_c, 13, 72, 76
15, 140139, Note_on_c, 13, 72, 0
15, 140160, Note_on_c, 13, 67, 76
15, 140399, Note_on_c, 13, 67, 0
15, 140400, Note_on_c, 13, 65, 76
15, 140619, Note_on_c, 13, 65, 0
15, 140640, Note_on_c, 13, 70, 76
15, 140879, Note_on_c, 13, 70, 0
15, 140880, Note_on_c, 13, 69, 76
15, 141099, Note_on_c, 13, 69, 0
15, 141120, Note_on_c, 13, 57, 76
15, 141579, Note_on_c, 13, 57, 0
15, 141600, Note_on_c, 13, 62, 76
15, 142059, Note_on_c, 13, 62, 0
15, 142080, Note_on_c, 13, 51, 76
15, 142319, Note_on_c, 13, 51, 0
15, 142320, Note_on_c, 13, 52, 76
15, 142539, Note_on_c, 13, 52, 0
15, 142560, Note_on_c, 13, 51, 76
15, 142799, Note_on_c, 13, 51, 0
15, 142800, Note_on_c, 13, 52, 76
15, 143019, Note_on_c, 13, 52, 0
15, 143040, Note_on_c, 13, 51, 76
15, 143279, Note_on_c, 13, 51, 0
15, 143280, Note_on_c, 13, 52, 76
15, 143499, Note_on_c, 13, 52, 0
15, 143520, Note_on_c, 13, 51, 76
15, 143759, Note_on_c, 13, 51, 0
15, 143760, Note_on_c, 13, 52, 76
15, 143979, Note_on_c, 13, 52, 0
15, 144000, Note_on_c, 13, 51, 76
15, 144239, Note_on_c, 13, 51, 0
15, 144240, Note_on_c, 13, 52, 76
15, 144459, Note_on_c, 13, 52, 0
15, 144480, Note_on_c, 13, 51, 76
15, 144719, Note_on_c, 13, 51, 0
15, 144720, Note_on_c, 13, 52, 76
15, 144939, Note_on_c, 13, 52, 0
15, 144960, Note_on_c, 13, 51, 76
15, 145199, Note_on_c, 13, 51, 0
15, 145200, Note_on_c, 13, 52, 76
15, 145419, Note_on_c, 13, 52, 0
15, 145440, Note_on_c, 13, 57, 84
15, 145440, Note_on_c, 13, 61, 84
15, 145504, Note_on_c, 13, 57, 0
15, 145504, Note_on_c, 13, 61, 0
15, 145520, Note_on_c, 13, 61, 84
15, 145520, Note_on_c, 13, 57, 84
15, 145584, Note_on_c, 13, 61, 0
15, 145584, Note_on_c, 13, 57, 0
15, 145600, Note_on_c, 13, 57, 84
15, 145600, Note_on_c, 13, 61, 84
15, 145664, Note_on_c, 13, 57, 0
15, 145664, Note_on_c, 13, 61, 0
15, 145680, Note_on_c, 13, 61, 84
15, 145680, Note_on_c, 13, 57, 84
15, 145744, Note_on_c, 13, 61, 0
15, 145744, Note_on_c, 13, 57, 0
15, 145760, Note_on_c, 13, 57, 84
15, 145760, Note_on_c, 13, 61, 84
15, 145824, Note_on_c, 13, 57, 0
15, 145824, Note_on_c, 13, 61, 0
15, 145840, Note_on_c, 13, 57, 84
15, 145840, Note_on_c, 13, 61, 84
15, 145904, Note_on_c, 13, 57, 0
15, 145904, Note_on_c, 13, 61, 0
15, 145920, Note_on_c, 13, 61, 84
15, 145920, Note_on_c, 13, 57, 84
15, 146039, Note_on_c, 13, 61, 0
15, 146039, Note_on_c, 13, 57, 0
15, 146040, Note_on_c, 13, 59, 84
15, 146040, Note_on_c, 13, 62, 84
15, 146139, Note_on_c, 13, 59, 0
15, 146139, Note_on_c, 13, 62, 0
15, 146160, Note_on_c, 13, 52, 84
15, 146160, Note_on_c, 13, 59, 84
15, 146319, Note_on_c, 13, 52, 0
15, 146319, Note_on_c, 13, 59, 0
15, 146400, Note_on_c, 13, 57, 84
15, 146400, Note_on_c, 13, 61, 84
15, 146519, Note_on_c, 13, 57, 0
15, 146519, Note_on_c, 13, 61, 0
15, 146520, Note_on_c, 13, 62, 84
15, 146520, Note_on_c, 13, 59, 84
15, 146619, Note_on_c, 13, 62, 0
15, 146619, Note_on_c, 13, 59, 0
15, 146640, Note_on_c, 13, 52, 84
15, 146640, Note_on_c, 13, 59, 84
15, 146799, Note_on_c, 13, 52, 0
15, 146799, Note_on_c, 13, 59, 0
15, 146880, Note_on_c, 13, 61, 84
15, 146880, Note_on_c, 13, 57, 84
15, 146999, Note_on_c, 13, 61, 0
15, 146999, Note_on_c, 13, 57, 0
15, 147000, Note_on_c, 13, 62, 84
15, 147000, Note_on_c, 13, 59, 84
15, 147099, Note_on_c, 13, 62, 0
15, 147099, Note_on_c, 13, 59, 0
15, 147120, Note_on_c, 13, 59, 84
15, 147120, Note_on_c, 13, 52, 84
15, 147279, Note_on_c, 13, 59, 0
15, 147279, Note_on_c, 13, 52, 0
15, 147360, Note_on_c, 13, 62, 84
15, 147360, Note_on_c, 13, 59, 84
15, 147424, Note_on_c, 13, 62, 0
15, 147424, Note_on_c, 13, 59, 0
15, 147440, Note_on_c, 13, 59, 84
15, 147440, Note_on_c, 13, 62, 84
15, 147504, Note_on_c, 13, 59, 0
15, 147504, Note_on_c, 13, 62, 0
15, 147520, Note_on_c, 13, 59, 84
15, 147520, Note_on_c, 13, 62, 84
15, 147584, Note_on_c, 13, 59, 0
15, 147584, Note_on_c, 13, 62, 0
15, 147600, Note_on_c, 13, 62, 84
15, 147600, Note_on_c, 13, 59, 84
15, 147664, Note_on_c, 13, 62, 0
15, 147664, Note_on_c, 13, 59, 0
15, 147680, Note_on_c, 13, 59, 84
15, 147680, Note_on_c, 13, 62, 84
15, 147744, Note_on_c, 13, 59, 0
15, 147744, Note_on_c, 13, 62, 0
15, 147760, Note_on_c, 13, 59, 84
15, 147760, Note_on_c, 13, 62, 84
15, 147824, Note_on_c, 13, 59, 0
15, 147824, Note_on_c, 13, 62, 0
15, 147840, Note_on_c, 13, 59, 84
15, 147840, Note_on_c, 13, 62, 84
15, 147959, Note_on_c, 13, 59, 0
15, 147959, Note_on_c, 13, 62, 0
15, 147960, Note_on_c, 13, 64, 84
15, 147960, Note_on_c, 13, 61, 84
15, 148059, Note_on_c, 13, 64, 0
15, 148059, Note_on_c, 13, 61, 0
15, 148080, Note_on_c, 13, 57, 84
15, 148080, Note_on_c, 13, 61, 84
15, 148239, Note_on_c, 13, 57, 0
15, 148239, Note_on_c, 13, 61, 0
15, 148320, Note_on_c, 13, 62, 84
15, 148320, Note_on_c, 13, 59, 84
15, 148439, Note_on_c, 13, 62, 0
15, 148439, Note_on_c, 13, 59, 0
15, 148440, Note_on_c, 13, 64, 84
15, 148440, Note_on_c, 13, 61, 84
15, 148539, Note_on_c, 13, 64, 0
15, 148539, Note_on_c, 13, 61, 0
15, 148560, Note_on_c, 13, 61, 84
15, 148560, Note_on_c, 13, 57, 84
15, 148719, Note_on_c, 13, 61, 0
15, 148719, Note_on_c, 13, 57, 0
15, 148800, Note_on_c, 13, 62, 84
15, 148800, Note_on_c, 13, 59, 84
15, 148919, Note_on_c, 13, 62, 0
15, 148919, Note_on_c, 13, 59, 0
15, 148920, Note_on_c, 13, 64, 84
15, 148920, Note_on_c, 13, 61, 84
15, 149019, Note_on_c, 13, 64, 0
15, 149019, Note_on_c, 13, 61, 0
15, 149040, Note_on_c, 13, 61, 84
15, 149040, Note_on_c, 13, 57, 84
15, 149199, Note_on_c, 13, 61, 0
15, 149199, Note_on_c, 13, 57, 0
15, 149280, Note_on_c, 13, 52, 52
15, 149439, Note_on_c, 13, 52, 0
15, 149520, Note_on_c, 13, 64, 52
15, 149679, Note_on_c, 13, 64, 0
15, 149760, Note_on_c, 13, 52, 52
15, 149919, Note_on_c, 13, 52, 0
15, 150000, Note_on_c, 13, 64, 52
15, 150159, Note_on_c, 13, 64, 0
15, 150240, Note_on_c, 13, 52, 52
15, 150399, Note_on_c, 13, 52, 0
15, 150480, Note_on_c, 13, 64, 52
15, 150639, Note_on_c, 13, 64, 0
15, 150720, Note_on_c, 13, 52, 52
15, 150879, Note_on_c, 13, 52, 0
15, 150960, Note_on_c, 13, 64, 52
15, 151119, Note_on_c, 13, 64, 0
15, 156000, Note_on_c, 13, 57, 44
15, 156000, Note_on_c, 13, 53, 44
15, 156119, Note_on_c, 13, 57, 0
15, 156119, Note_on_c, 13, 53, 0
15, 156120, Note_on_c, 13, 58, 44
15, 156120, Note_on_c, 13, 55, 44
15, 156219, Note_on_c, 13, 58, 0
15, 156219, Note_on_c, 13, 55, 0
15, 156240, Note_on_c, 13, 55, 44
15, 156240, Note_on_c, 13, 48, 44
15, 156399, Note_on_c, 13, 55, 0
15, 156399, Note_on_c, 13, 48, 0
15, 157920, Note_on_c, 13, 55, 44
15, 157920, Note_on_c, 13, 58, 44
15, 158039, Note_on_c, 13, 55, 0
15, 158039, Note_on_c, 13, 58, 0
15, 158040, Note_on_c, 13, 60, 44
15, 158040, Note_on_c, 13, 57, 44
15, 158139, Note_on_c, 13, 60, 0
15, 158139, Note_on_c, 13, 57, 0
15, 158160, Note_on_c, 13, 53, 44
15, 158160, Note_on_c, 13, 57, 44
15, 158319, Note_on_c, 13, 53, 0
15, 158319, Note_on_c, 13, 57, 0
15, 158880, Note_on_c, 13, 57, 44
15, 159359, Note_on_c, 13, 57, 0
15, 159360, Note_on_c, 13, 58, 44
15, 159839, Note_on_c, 13, 58, 0
15, 159840, Note_on_c, 13, 57, 44
15, 160319, Note_on_c, 13, 57, 0
15, 160320, Note_on_c, 13, 55, 44
15, 161039, Note_on_c, 13, 55, 0
15, 161040, Note_on_c, 13, 57, 44
15, 161279, Note_on_c, 13, 57, 0
15, 161280, Note_on_c, 13, 58, 44
15, 161999, Note_on_c, 13, 58, 0
15, 162000, Note_on_c, 13, 60, 44
15, 162239, Note_on_c, 13, 60, 0
15, 162240, Note_on_c, 13, 62, 44
15, 162479, Note_on_c, 13, 62, 0
15, 162480, Note_on_c, 13, 60, 44
15, 163679, Note_on_c, 13, 60, 0
15, 163680, Note_on_c, 13, 59, 44
15, 164159, Note_on_c, 13, 59, 0
15, 164160, Note_on_c, 13, 60, 44
15, 164619, Note_on_c, 13, 60, 0
15, 164640, Note_on_c, 13, 62, 44
15, 164640, Note_on_c, 13, 55, 44
15, 164704, Note_on_c, 13, 62, 0
15, 164704, Note_on_c, 13, 55, 0
15, 164720, Note_on_c, 13, 55, 44
15, 164720, Note_on_c, 13, 62, 44
15, 164784, Note_on_c, 13, 55, 0
15, 164784, Note_on_c, 13, 62, 0
15, 164800, Note_on_c, 13, 62, 44
15, 164800, Note_on_c, 13, 55, 44
15, 164864, Note_on_c, 13, 62, 0
15, 164864, Note_on_c, 13, 55, 0
15, 164880, Note_on_c, 13, 55, 44
15, 164880, Note_on_c, 13, 62, 44
15, 164944, Note_on_c, 13, 55, 0
15, 164944, Note_on_c, 13, 62, 0
15, 164960, Note_on_c, 13, 55, 44
15, 164960, Note_on_c, 13, 62, 44
15, 165024, Note_on_c, 13, 55, 0
15, 165024, Note_on_c, 13, 62, 0
15, 165040, Note_on_c, 13, 55, 44
15, 165040, Note_on_c, 13, 62, 44
15, 165104, Note_on_c, 13, 55, 0
15, 165104, Note_on_c, 13, 62, 0
15, 165120, Note_on_c, 13, 55, 44
15, 165120, Note_on_c, 13, 62, 44
15, 165239, Note_on_c, 13, 55, 0
15, 165239, Note_on_c, 13, 62, 0
15, 165240, Note_on_c, 13, 64, 44
15, 165240, Note_on_c, 13, 60, 44
15, 165339, Note_on_c, 13, 64, 0
15, 165339, Note_on_c, 13, 60, 0
15, 165360, Note_on_c, 13, 60, 44
15, 165360, Note_on_c, 13, 52, 44
15, 165519, Note_on_c, 13, 60, 0
15, 165519, Note_on_c, 13, 52, 0
15, 165600, Note_on_c, 13, 62, 44
15, 166079, Note_on_c, 13, 62, 0
15, 166080, Note_on_c, 13, 55, 44
15, 166539, Note_on_c, 13, 55, 0
15, 166560, Note_on_c, 13, 55, 44
15, 166560, Note_on_c, 13, 62, 44
15, 166624, Note_on_c, 13, 55, 0
15, 166624, Note_on_c, 13, 62, 0
15, 166640, Note_on_c, 13, 55, 44
15, 166640, Note_on_c, 13, 62, 44
15, 166704, Note_on_c, 13, 55, 0
15, 166704, Note_on_c, 13, 62, 0
15, 166720, Note_on_c, 13, 62, 44
15, 166720, Note_on_c, 13, 55, 44
15, 166784, Note_on_c, 13, 62, 0
15, 166784, Note_on_c, 13, 55, 0
15, 166800, Note_on_c, 13, 55, 44
15, 166800, Note_on_c, 13, 62, 44
15, 166864, Note_on_c, 13, 55, 0
15, 166864, Note_on_c, 13, 62, 0
15, 166880, Note_on_c, 13, 62, 43
15, 166880, Note_on_c, 13, 55, 43
15, 166944, Note_on_c, 13, 62, 0
15, 166944, Note_on_c, 13, 55, 0
15, 166960, Note_on_c, 13, 55, 43
15, 166960, Note_on_c, 13, 62, 43
15, 167024, Note_on_c, 13, 55, 0
15, 167024, Note_on_c, 13, 62, 0
15, 167040, Note_on_c, 13, 62, 43
15, 167040, Note_on_c, 13, 55, 43
15, 167159, Note_on_c, 13, 62, 0
15, 167159, Note_on_c, 13, 55, 0
15, 167160, Note_on_c, 13, 60, 42
15, 167160, Note_on_c, 13, 64, 42
15, 167259, Note_on_c, 13, 60, 0
15, 167259, Note_on_c, 13, 64, 0
15, 167280, Note_on_c, 13, 52, 42
15, 167280, Note_on_c, 13, 60, 42
15, 167439, Note_on_c, 13, 52, 0
15, 167439, Note_on_c, 13, 60, 0
15, 167520, Note_on_c, 13, 59, 41
15, 167639, Note_on_c, 13, 59, 0
15, 167640, Note_on_c, 13, 60, 41
15, 167739, Note_on_c, 13, 60, 0
15, 167760, Note_on_c, 13, 55, 40
15, 167919, Note_on_c, 13, 55, 0
15, 168000, Note_on_c, 13, 53, 40
15, 168119, Note_on_c, 13, 53, 0
15, 168120, Note_on_c, 13, 55, 39
15, 168219, Note_on_c, 13, 55, 0
15, 168240, Note_on_c, 13, 52, 39
15, 168399, Note_on_c, 13, 52, 0
15, 168480, Note_on_c, 13, 50, 38
15, 168599, Note_on_c, 13, 50, 0
15, 168600, Note_on_c, 13, 52, 38
15, 168699, Note_on_c, 13, 52, 0
15, 168720, Note_on_c, 13, 48, 37
15, 168879, Note_on_c, 13, 48, 0
15, 168960, Note_on_c, 13, 50, 36
15, 169079, Note_on_c, 13, 50, 0
15, 169080, Note_on_c, 13, 52, 36
15, 169179, Note_on_c, 13, 52, 0
15, 169200, Note_on_c, 13, 48, 36
15, 169359, Note_on_c, 13, 48, 0
15, 169920, Note_on_c, 13, 50, 36
15, 170039, Note_on_c, 13, 50, 0
15, 170040, Note_on_c, 13, 52, 36
15, 170139, Note_on_c, 13, 52, 0
15, 170160, Note_on_c, 13, 48, 36
15, 170319, Note_on_c, 13, 48, 0
15, 170880, Note_on_c, 13, 50, 36
15, 170999, Note_on_c, 13, 50, 0
15, 171000, Note_on_c, 13, 52, 36
15, 171099, Note_on_c, 13, 52, 0
15, 171120, Note_on_c, 13, 48, 36
15, 171279, Note_on_c, 13, 48, 0
15, 171360, Note_on_c, 13, 49, 84
15, 172299, Note_on_c, 13, 49, 0
15, 172320, Note_on_c, 13, 53, 84
15, 172384, Note_on_c, 13, 53, 0
15, 172400, Note_on_c, 13, 53, 84
15, 172464, Note_on_c, 13, 53, 0
15, 172480, Note_on_c, 13, 53, 84
15, 172544, Note_on_c, 13, 53, 0
15, 172560, Note_on_c, 13, 65, 84
15, 172624, Note_on_c, 13, 65, 0
15, 172640, Note_on_c, 13, 65, 84
15, 172704, Note_on_c, 13, 65, 0
15, 172720, Note_on_c, 13, 65, 84
15, 172784, Note_on_c, 13, 65, 0
15, 172800, Note_on_c, 13, 53, 84
15, 172864, Note_on_c, 13, 53, 0
15, 172880, Note_on_c, 13, 53, 84
15, 172944, Note_on_c, 13, 53, 0
15, 172960, Note_on_c, 13, 53, 84
15, 173024, Note_on_c, 13, 53, 0
15, 173040, Note_on_c, 13, 65, 84
15, 173104, Note_on_c, 13, 65, 0
15, 173120, Note_on_c, 13, 65, 84
15, 173184, Note_on_c, 13, 65, 0
15, 173200, Note_on_c, 13, 65, 84
15, 173264, Note_on_c, 13, 65, 0
15, 173280, Note_on_c, 13, 53, 84
15, 173344, Note_on_c, 13, 53, 0
15, 173360, Note_on_c, 13, 53, 84
15, 173424, Note_on_c, 13, 53, 0
15, 173440, Note_on_c, 13, 53, 84
15, 173504, Note_on_c, 13, 53, 0
15, 173520, Note_on_c, 13, 65, 84
15, 173584, Note_on_c, 13, 65, 0
15, 173600, Note_on_c, 13, 65, 84
15, 173664, Note_on_c, 13, 65, 0
15, 173680, Note_on_c, 13, 65, 84
15, 173744, Note_on_c, 13, 65, 0
15, 173760, Note_on_c, 13, 53, 84
15, 173824, Note_on_c, 13, 53, 0
15, 173840, Note_on_c, 13, 53, 84
15, 173904, Note_on_c, 13, 53, 0
15, 173920, Note_on_c, 13, 53, 84
15, 173984, Note_on_c, 13, 53, 0
15, 174000, Note_on_c, 13, 65, 84
15, 174064, Note_on_c, 13, 65, 0
15, 174080, Note_on_c, 13, 65, 84
15, 174144, Note_on_c, 13, 65, 0
15, 174160, Note_on_c, 13, 65, 84
15, 174224, Note_on_c, 13, 65, 0
15, 174240, Note_on_c, 13, 53, 84
15, 174304, Note_on_c, 13, 53, 0
15, 174320, Note_on_c, 13, 53, 84
15, 174384, Note_on_c, 13, 53, 0
15, 174400, Note_on_c, 13, 53, 84
15, 174464, Note_on_c, 13, 53, 0
15, 174480, Note_on_c, 13, 65, 84
15, 174544, Note_on_c, 13, 65, 0
15, 174560, Note_on_c, 13, 65, 84
15, 174624, Note_on_c, 13, 65, 0
15, 174640, Note_on_c, 13, 65, 84
15, 174704, Note_on_c, 13, 65, 0
15, 174720, Note_on_c, 13, 53, 84
15, 174784, Note_on_c, 13, 53, 0
15, 174800, Note_on_c, 13, 53, 84
15, 174864, Note_on_c, 13, 53, 0
15, 174880, Note_on_c, 13, 53, 84
15, 174944, Note_on_c, 13, 53, 0
15, 174960, Note_on_c, 13, 65, 84
15, 175024, Note_on_c, 13, 65, 0
15, 175040, Note_on_c, 13, 65, 84
15, 175104, Note_on_c, 13, 65, 0
15, 175120, Note_on_c, 13, 65, 84
15, 175184, Note_on_c, 13, 65, 0
15, 175200, Note_on_c, 13, 53, 84
15, 175264, Note_on_c, 13, 53, 0
15, 175280, Note_on_c, 13, 53, 84
15, 175344, Note_on_c, 13, 53, 0
15, 175360, Note_on_c, 13, 53, 84
15, 175424, Note_on_c, 13, 53, 0
15, 175440, Note_on_c, 13, 65, 84
15, 175504, Note_on_c, 13, 65, 0
15, 175520, Note_on_c, 13, 65, 84
15, 175584, Note_on_c, 13, 65, 0
15, 175600, Note_on_c, 13, 65, 84
15, 175664, Note_on_c, 13, 65, 0
15, 175680, Note_on_c, 13, 53, 84
15, 175744, Note_on_c, 13, 53, 0
15, 175760, Note_on_c, 13, 53, 84
15, 175824, Note_on_c, 13, 53, 0
15, 175840, Note_on_c, 13, 53, 84
15, 175904, Note_on_c, 13, 53, 0
15, 175920, Note_on_c, 13, 65, 84
15, 175984, Note_on_c, 13, 65, 0
15, 176000, Note_on_c, 13, 65, 84
15, 176064, Note_on_c, 13, 65, 0
15, 176080, Note_on_c, 13, 65, 84
15, 176144, Note_on_c, 13, 65, 0
15, 176160, Note_on_c, 13, 57, 84
15, 176224, Note_on_c, 13, 57, 0
15, 176240, Note_on_c, 13, 57, 84
15, 176304, Note_on_c, 13, 57, 0
15, 176320, Note_on_c, 13, 57, 84
15, 176384, Note_on_c, 13, 57, 0
15, 176400, Note_on_c, 13, 57, 84
15, 176464, Note_on_c, 13, 57, 0
15, 176480, Note_on_c, 13, 57, 84
15, 176544, Note_on_c, 13, 57, 0
15, 176560, Note_on_c, 13, 57, 84
15, 176624, Note_on_c, 13, 57, 0
15, 176640, Note_on_c, 13, 58, 84
15, 176704, Note_on_c, 13, 58, 0
15, 176720, Note_on_c, 13, 58, 84
15, 176784, Note_on_c, 13, 58, 0
15, 176800, Note_on_c, 13, 58, 84
15, 176864, Note_on_c, 13, 58, 0
15, 176880, Note_on_c, 13, 58, 84
15, 176944, Note_on_c, 13, 58, 0
15, 176960, Note_on_c, 13, 58, 84
15, 177024, Note_on_c, 13, 58, 0
15, 177040, Note_on_c, 13, 58, 84
15, 177104, Note_on_c, 13, 58, 0
15, 177120, Note_on_c, 13, 54, 84
15, 177184, Note_on_c, 13, 54, 0
15, 177200, Note_on_c, 13, 54, 84
15, 177264, Note_on_c, 13, 54, 0
15, 177280, Note_on_c, 13, 54, 84
15, 177344, Note_on_c, 13, 54, 0
15, 177360, Note_on_c, 13, 54, 84
15, 177424, Note_on_c, 13, 54, 0
15, 177440, Note_on_c, 13, 54, 84
15, 177504, Note_on_c, 13, 54, 0
15, 177520, Note_on_c, 13, 54, 84
15, 177584, Note_on_c, 13, 54, 0
15, 177600, Note_on_c, 13, 55, 84
15, 177664, Note_on_c, 13, 55, 0
15, 177680, Note_on_c, 13, 55, 84
15, 177744, Note_on_c, 13, 55, 0
15, 177760, Note_on_c, 13, 55, 84
15, 177824, Note_on_c, 13, 55, 0
15, 177840, Note_on_c, 13, 58, 84
15, 177904, Note_on_c, 13, 58, 0
15, 177920, Note_on_c, 13, 58, 84
15, 177984, Note_on_c, 13, 58, 0
15, 178000, Note_on_c, 13, 58, 84
15, 178064, Note_on_c, 13, 58, 0
15, 178080, Note_on_c, 13, 58, 84
15, 178144, Note_on_c, 13, 58, 0
15, 178160, Note_on_c, 13, 58, 84
15, 178224, Note_on_c, 13, 58, 0
15, 178240, Note_on_c, 13, 58, 84
15, 178304, Note_on_c, 13, 58, 0
15, 178320, Note_on_c, 13, 60, 84
15, 178384, Note_on_c, 13, 60, 0
15, 178400, Note_on_c, 13, 60, 84
15, 178464, Note_on_c, 13, 60, 0
15, 178480, Note_on_c, 13, 60, 84
15, 178544, Note_on_c, 13, 60, 0
15, 178560, Note_on_c, 13, 62, 84
15, 178624, Note_on_c, 13, 62, 0
15, 178640, Note_on_c, 13, 58, 84
15, 178704, Note_on_c, 13, 58, 0
15, 178720, Note_on_c, 13, 58, 84
15, 178784, Note_on_c, 13, 58, 0
15, 178800, Note_on_c, 13, 57, 84
15, 178864, Note_on_c, 13, 57, 0
15, 178880, Note_on_c, 13, 57, 84
15, 178944, Note_on_c, 13, 57, 0
15, 178960, Note_on_c, 13, 57, 84
15, 179024, Note_on_c, 13, 57, 0
15, 179040, Note_on_c, 13, 58, 84
15, 179104, Note_on_c, 13, 58, 0
15, 179120, Note_on_c, 13, 58, 84
15, 179184, Note_on_c, 13, 58, 0
15, 179200, Note_on_c, 13, 58, 84
15, 179264, Note_on_c, 13, 58, 0
15, 179280, Note_on_c, 13, 60, 84
15, 179344, Note_on_c, 13, 60, 0
15, 179360, Note_on_c, 13, 60, 84
15, 179424, Note_on_c, 13, 60, 0
15, 179440, Note_on_c, 13, 60, 84
15, 179504, Note_on_c, 13, 60, 0
15, 179520, Note_on_c, 13, 62, 84
15, 179584, Note_on_c, 13, 62, 0
15, 179600, Note_on_c, 13, 62, 84
15, 179664, Note_on_c, 13, 62, 0
15, 179680, Note_on_c, 13, 62, 84
15, 179744, Note_on_c, 13, 62, 0
15, 179760, Note_on_c, 13, 60, 84
15, 179824, Note_on_c, 13, 60, 0
15, 179840, Note_on_c, 13, 60, 84
15, 179904, Note_on_c, 13, 60, 0
15, 179920, Note_on_c, 13, 60, 84
15, 179984, Note_on_c, 13, 60, 0
15, 180000, Note_on_c, 13, 60, 84
15, 180064, Note_on_c, 13, 60, 0
15, 180080, Note_on_c, 13, 60, 84
15, 180144, Note_on_c, 13, 60, 0
15, 180160, Note_on_c, 13, 60, 84
15, 180224, Note_on_c, 13, 60, 0
15, 180240, Note_on_c, 13, 65, 84
15, 180304, Note_on_c, 13, 65, 0
15, 180320, Note_on_c, 13, 65, 84
15, 180384, Note_on_c, 13, 65, 0
15, 180400, Note_on_c, 13, 65, 84
15, 180464, Note_on_c, 13, 65, 0
15, 180480, Note_on_c, 13, 65, 84
15, 180544, Note_on_c, 13, 65, 0
15, 180560, Note_on_c, 13, 58, 84
15, 180624, Note_on_c, 13, 58, 0
15, 180640, Note_on_c, 13, 58, 84
15, 180704, Note_on_c, 13, 58, 0
15, 180720, Note_on_c, 13, 58, 84
15, 180784, Note_on_c, 13, 58, 0
15, 180800, Note_on_c, 13, 58, 84
15, 180864, Note_on_c, 13, 58, 0
15, 180880, Note_on_c, 13, 58, 84
15, 180944, Note_on_c, 13, 58, 0
15, 180960, Note_on_c, 13, 58, 84
15, 181024, Note_on_c, 13, 58, 0
15, 181040, Note_on_c, 13, 58, 84
15, 181104, Note_on_c, 13, 58, 0
15, 181120, Note_on_c, 13, 58, 84
15, 181184, Note_on_c, 13, 58, 0
15, 181200, Note_on_c, 13, 55, 84
15, 181264, Note_on_c, 13, 55, 0
15, 181280, Note_on_c, 13, 55, 84
15, 181344, Note_on_c, 13, 55, 0
15, 181360, Note_on_c, 13, 55, 84
15, 181424, Note_on_c, 13, 55, 0
15, 181440, Note_on_c, 13, 53, 84
15, 181679, Note_on_c, 13, 53, 0
15, 181920, Note_on_c, 13, 48, 84
15, 181984, Note_on_c, 13, 48, 0
15, 182000, Note_on_c, 13, 48, 84
15, 182064, Note_on_c, 13, 48, 0
15, 182080, Note_on_c, 13, 48, 84
15, 182144, Note_on_c, 13, 48, 0
15, 182160, Note_on_c, 13, 48, 84
15, 182224, Note_on_c, 13, 48, 0
15, 182240, Note_on_c, 13, 48, 84
15, 182304, Note_on_c, 13, 48, 0
15, 182320, Note_on_c, 13, 48, 84
15, 182384, Note_on_c, 13, 48, 0
15, 182400, Note_on_c, 13, 48, 84
15, 182639, Note_on_c, 13, 48, 0
15, 182880, Note_on_c, 13, 48, 84
15, 182880, Note_on_c, 13, 57, 84
15, 182944, Note_on_c, 13, 48, 0
15, 182944, Note_on_c, 13, 57, 0
15, 182960, Note_on_c, 13, 48, 84
15, 182960, Note_on_c, 13, 57, 84
15, 183024, Note_on_c, 13, 48, 0
15, 183024, Note_on_c, 13, 57, 0
15, 183040, Note_on_c, 13, 57, 84
15, 183040, Note_on_c, 13, 48, 84
15, 183104, Note_on_c, 13, 57, 0
15, 183104, Note_on_c, 13, 48, 0
15, 183120, Note_on_c, 13, 48, 84
15, 183120, Note_on_c, 13, 56, 84
15, 183184, Note_on_c, 13, 48, 0
15, 183184, Note_on_c, 13, 56, 0
15, 183200, Note_on_c, 13, 56, 84
15, 183200, Note_on_c, 13, 48, 84
15, 183264, Note_on_c, 13, 56, 0
15, 183264, Note_on_c, 13, 48, 0
15, 183280, Note_on_c, 13, 56, 84
15, 183280, Note_on_c, 13, 48, 84
15, 183344, Note_on_c, 13, 56, 0
15, 183344, Note_on_c, 13, 48, 0
15, 183360, Note_on_c, 13, 48, 84
15, 183360, Note_on_c, 13, 55, 84
15, 183599, Note_on_c, 13, 48, 0
15, 183599, Note_on_c, 13, 55, 0
15, 183840, Note_on_c, 13, 58, 84
15, 183840, Note_on_c, 13, 48, 84
15, 183904, Note_on_c, 13, 58, 0
15, 183904, Note_on_c, 13, 48, 0
15, 183920, Note_on_c, 13, 58, 84
15, 183920, Note_on_c, 13, 48, 84
15, 183984, Note_on_c, 13, 58, 0
15, 183984, Note_on_c, 13, 48, 0
15, 184000, Note_on_c, 13, 48, 84
15, 184000, Note_on_c, 13, 58, 84
15, 184064, Note_on_c, 13, 48, 0
15, 184064, Note_on_c, 13, 58, 0
15, 184080, Note_on_c, 13, 48, 84
15, 184080, Note_on_c, 13, 58, 84
15, 184144, Note_on_c, 13, 48, 0
15, 184144, Note_on_c, 13, 58, 0
15, 184160, Note_on_c, 13, 48, 84
15, 184160, Note_on_c, 13, 58, 84
15, 184224, Note_on_c, 13, 48, 0
15, 184224, Note_on_c, 13, 58, 0
15, 184240, Note_on_c, 13, 58, 84
15, 184240, Note_on_c, 13, 48, 84
15, 184304, Note_on_c, 13, 58, 0
15, 184304, Note_on_c, 13, 48, 0
15, 184320, Note_on_c, 13, 48, 84
15, 184320, Note_on_c, 13, 58, 84
15, 184559, Note_on_c, 13, 48, 0
15, 184559, Note_on_c, 13, 58, 0
15, 184800, Note_on_c, 13, 58, 84
15, 184800, Note_on_c, 13, 48, 84
15, 184864, Note_on_c, 13, 58, 0
15, 184864, Note_on_c, 13, 48, 0
15, 184880, Note_on_c, 13, 58, 84
15, 184880, Note_on_c, 13, 48, 84
15, 184944, Note_on_c, 13, 58, 0
15, 184944, Note_on_c, 13, 48, 0
15, 184960, Note_on_c, 13, 48, 84
15, 184960, Note_on_c, 13, 58, 84
15, 185024, Note_on_c, 13, 48, 0
15, 185024, Note_on_c, 13, 58, 0
15, 185040, Note_on_c, 13, 58, 84
15, 185040, Note_on_c, 13, 48, 84
15, 185104, Note_on_c, 13, 58, 0
15, 185104, Note_on_c, 13, 48, 0
15, 185120, Note_on_c, 13, 48, 84
15, 185120, Note_on_c, 13, 58, 84
15, 185184, Note_on_c, 13, 48, 0
15, 185184, Note_on_c, 13, 58, 0
15, 185200, Note_on_c, 13, 48, 84
15, 185200, Note_on_c, 13, 58, 84
15, 185264, Note_on_c, 13, 48, 0
15, 185264, Note_on_c, 13, 58, 0
15, 185280, Note_on_c, 13, 57, 84
15, 185280, Note_on_c, 13, 48, 84
15, 185519, Note_on_c, 13, 57, 0
15, 185519, Note_on_c, 13, 48, 0
15, 186240, Note_on_c, 13, 53, 84
15, 186399, Note_on_c, 13, 53, 0
15, 186480, Note_on_c, 13, 57, 84
15, 186639, Note_on_c, 13, 57, 0
15, 186720, Note_on_c, 13, 57, 84
15, 186879, Note_on_c, 13, 57, 0
15, 186960, Note_on_c, 13, 60, 84
15, 187119, Note_on_c, 13, 60, 0
15, 187200, Note_on_c, 13, 60, 84
15, 187359, Note_on_c, 13, 60, 0
15, 188160, Note_on_c, 13, 48, 84
15, 188319, Note_on_c, 13, 48, 0
15, 188400, Note_on_c, 13, 55, 84
15, 188559, Note_on_c, 13, 55, 0
15, 188640, Note_on_c, 13, 55, 84
15, 188799, Note_on_c, 13, 55, 0
15, 188880, Note_on_c, 13, 60, 84
15, 189039, Note_on_c, 13, 60, 0
15, 189120, Note_on_c, 13, 53, 84
15, 189279, Note_on_c, 13, 53, 0
15, 189600, Note_on_c, 13, 60, 84
15, 189664, Note_on_c, 13, 60, 0
15, 189680, Note_on_c, 13, 60, 84
15, 189744, Note_on_c, 13, 60, 0
15, 189760, Note_on_c, 13, 60, 84
15, 189824, Note_on_c, 13, 60, 0
15, 189840, Note_on_c, 13, 60, 84
15, 189904, Note_on_c, 13, 60, 0
15, 189920, Note_on_c, 13, 60, 84
15, 189984, Note_on_c, 13, 60, 0
15, 190000, Note_on_c, 13, 60, 84
15, 190064, Note_on_c, 13, 60, 0
15, 190080, Note_on_c, 13, 60, 84
15, 190319, Note_on_c, 13, 60, 0
15, 190560, Note_on_c, 13, 60, 84
15, 190624, Note_on_c, 13, 60, 0
15, 190640, Note_on_c, 13, 60, 84
15, 190704, Note_on_c, 13, 60, 0
15, 190720, Note_on_c, 13, 60, 84
15, 190784, Note_on_c, 13, 60, 0
15, 190800, Note_on_c, 13, 59, 84
15, 190864, Note_on_c, 13, 59, 0
15, 190880, Note_on_c, 13, 59, 84
15, 190944, Note_on_c, 13, 59, 0
15, 190960, Note_on_c, 13, 59, 84
15, 191024, Note_on_c, 13, 59, 0
15, 191040, Note_on_c, 13, 58, 84
15, 191279, Note_on_c, 13, 58, 0
15, 191520, Note_on_c, 13, 58, 84
15, 191584, Note_on_c, 13, 58, 0
15, 191600, Note_on_c, 13, 58, 84
15, 191664, Note_on_c, 13, 58, 0
15, 191680, Note_on_c, 13, 58, 84
15, 191744, Note_on_c, 13, 58, 0
15, 191760, Note_on_c, 13, 58, 84
15, 191824, Note_on_c, 13, 58, 0
15, 191840, Note_on_c, 13, 58, 84
15, 191904, Note_on_c, 13, 58, 0
15, 191920, Note_on_c, 13, 58, 84
15, 191984, Note_on_c, 13, 58, 0
15, 192000, Note_on_c, 13, 58, 84
15, 192239, Note_on_c, 13, 58, 0
15, 192480, Note_on_c, 13, 58, 84
15, 192544, Note_on_c, 13, 58, 0
15, 192560, Note_on_c, 13, 58, 84
15, 192624, Note_on_c, 13, 58, 0
15, 192640, Note_on_c, 13, 58, 84
15, 192704, Note_on_c, 13, 58, 0
15, 192720, Note_on_c, 13, 58, 84
15, 192784, Note_on_c, 13, 58, 0
15, 192800, Note_on_c, 13, 58, 84
15, 192864, Note_on_c, 13, 58, 0
15, 192880, Note_on_c, 13, 58, 84
15, 192944, Note_on_c, 13, 58, 0
15, 192960, Note_on_c, 13, 57, 84
15, 193199, Note_on_c, 13, 57, 0
15, 193920, Note_on_c, 13, 53, 84
15, 194079, Note_on_c, 13, 53, 0
15, 194160, Note_on_c, 13, 57, 84
15, 194319, Note_on_c, 13, 57, 0
15, 194400, Note_on_c, 13, 57, 84
15, 194559, Note_on_c, 13, 57, 0
15, 194640, Note_on_c, 13, 60, 84
15, 194799, Note_on_c, 13, 60, 0
15, 194880, Note_on_c, 13, 50, 84
15, 195039, Note_on_c, 13, 50, 0
15, 195840, Note_on_c, 13, 50, 84
15, 195999, Note_on_c, 13, 50, 0
15, 196080, Note_on_c, 13, 57, 84
15, 196239, Note_on_c, 13, 57, 0
15, 196320, Note_on_c, 13, 57, 84
15, 196479, Note_on_c, 13, 57, 0
15, 196560, Note_on_c, 13, 62, 84
15, 196719, Note_on_c, 13, 62, 0
15, 196800, Note_on_c, 13, 55, 84
15, 196959, Note_on_c, 13, 55, 0
15, 197280, Note_on_c, 13, 55, 84
15, 197344, Note_on_c, 13, 55, 0
15, 197360, Note_on_c, 13, 55, 84
15, 197424, Note_on_c, 13, 55, 0
15, 197440, Note_on_c, 13, 55, 84
15, 197504, Note_on_c, 13, 55, 0
15, 197520, Note_on_c, 13, 55, 84
15, 197584, Note_on_c, 13, 55, 0
15, 197600, Note_on_c, 13, 55, 84
15, 197664, Note_on_c, 13, 55, 0
15, 197680, Note_on_c, 13, 55, 84
15, 197744, Note_on_c, 13, 55, 0
15, 197760, Note_on_c, 13, 55, 84
15, 197999, Note_on_c, 13, 55, 0
15, 198240, Note_on_c, 13, 55, 84
15, 198304, Note_on_c, 13, 55, 0
15, 198320, Note_on_c, 13, 55, 84
15, 198384, Note_on_c, 13, 55, 0
15, 198400, Note_on_c, 13, 55, 84
15, 198464, Note_on_c, 13, 55, 0
15, 198480, Note_on_c, 13, 55, 84
15, 198544, Note_on_c, 13, 55, 0
15, 198560, Note_on_c, 13, 55, 84
15, 198624, Note_on_c, 13, 55, 0
15, 198640, Note_on_c, 13, 55, 84
15, 198704, Note_on_c, 13, 55, 0
15, 198720, Note_on_c, 13, 53, 84
15, 198959, Note_on_c, 13, 53, 0
15, 199200, Note_on_c, 13, 66, 84
15, 199264, Note_on_c, 13, 66, 0
15, 199280, Note_on_c, 13, 66, 84
15, 199344, Note_on_c, 13, 66, 0
15, 199360, Note_on_c, 13, 66, 84
15, 199424, Note_on_c, 13, 66, 0
15, 199440, Note_on_c, 13, 66, 84
15, 199504, Note_on_c, 13, 66, 0
15, 199520, Note_on_c, 13, 66, 84
15, 199584, Note_on_c, 13, 66, 0
15, 199600, Note_on_c, 13, 66, 84
15, 199664, Note_on_c, 13, 66, 0
15, 199680, Note_on_c, 13, 65, 84
15, 199919, Note_on_c, 13, 65, 0
15, 200160, Note_on_c, 13, 65, 84
15, 200224, Note_on_c, 13, 65, 0
15, 200240, Note_on_c, 13, 65, 84
15, 200304, Note_on_c, 13, 65, 0
15, 200320, Note_on_c, 13, 65, 84
15, 200384, Note_on_c, 13, 65, 0
15, 200400, Note_on_c, 13, 65, 84
15, 200464, Note_on_c, 13, 65, 0
15, 200480, Note_on_c, 13, 65, 84
15, 200544, Note_on_c, 13, 65, 0
15, 200560, Note_on_c, 13, 65, 84
15, 200624, Note_on_c, 13, 65, 0
15, 200640, Note_on_c, 13, 65, 84
15, 200879, Note_on_c, 13, 65, 0
15, 201600, Note_on_c, 13, 58, 84
15, 201759, Note_on_c, 13, 58, 0
15, 201840, Note_on_c, 13, 62, 84
15, 201999, Note_on_c, 13, 62, 0
15, 202080, Note_on_c, 13, 62, 84
15, 202239, Note_on_c, 13, 62, 0
15, 202320, Note_on_c, 13, 65, 84
15, 202479, Note_on_c, 13, 65, 0
15, 202560, Note_on_c, 13, 65, 84
15, 202719, Note_on_c, 13, 65, 0
15, 203520, Note_on_c, 13, 53, 84
15, 203679, Note_on_c, 13, 53, 0
15, 203760, Note_on_c, 13, 60, 84
15, 203919, Note_on_c, 13, 60, 0
15, 204000, Note_on_c, 13, 60, 84
15, 204159, Note_on_c, 13, 60, 0
15, 204240, Note_on_c, 13, 65, 84
15, 204399, Note_on_c, 13, 65, 0
15, 204480, Note_on_c, 13, 58, 84
15, 204639, Note_on_c, 13, 58, 0
15, 204960, Note_on_c, 13, 50, 92
15, 205119, Note_on_c, 13, 50, 0
15, 205200, Note_on_c, 13, 53, 84
15, 205359, Note_on_c, 13, 53, 0
15, 205440, Note_on_c, 13, 53, 92
15, 205599, Note_on_c, 13, 53, 0
15, 205680, Note_on_c, 13, 58, 84
15, 205839, Note_on_c, 13, 58, 0
15, 206880, Note_on_c, 13, 50, 84
15, 207039, Note_on_c, 13, 50, 0
15, 207120, Note_on_c, 13, 53, 84
15, 207279, Note_on_c, 13, 53, 0
15, 207360, Note_on_c, 13, 53, 84
15, 207519, Note_on_c, 13, 53, 0
15, 207600, Note_on_c, 13, 58, 84
15, 207759, Note_on_c, 13, 58, 0
15, 209760, Note_on_c, 13, 58, 84
15, 209919, Note_on_c, 13, 58, 0
15, 210000, Note_on_c, 13, 55, 84
15, 210159, Note_on_c, 13, 55, 0
15, 210240, Note_on_c, 13, 55, 84
15, 210399, Note_on_c, 13, 55, 0
15, 210480, Note_on_c, 13, 52, 84
15, 210639, Note_on_c, 13, 52, 0
15, 210720, Note_on_c, 13, 52, 84
15, 210879, Note_on_c, 13, 52, 0
15, 210960, Note_on_c, 13, 55, 84
15, 211119, Note_on_c, 13, 55, 0
15, 211200, Note_on_c, 13, 55, 84
15, 211359, Note_on_c, 13, 55, 0
15, 211440, Note_on_c, 13, 58, 84
15, 211599, Note_on_c, 13, 58, 0
15, 211680, Note_on_c, 13, 52, 84
15, 211839, Note_on_c, 13, 52, 0
15, 211920, Note_on_c, 13, 55, 84
15, 212079, Note_on_c, 13, 55, 0
15, 212160, Note_on_c, 13, 55, 84
15, 212319, Note_on_c, 13, 55, 0
15, 212400, Note_on_c, 13, 58, 84
15, 212559, Note_on_c, 13, 58, 0
15, 212640, Note_on_c, 13, 52, 84
15, 212799, Note_on_c, 13, 52, 0
15, 212880, Note_on_c, 13, 55, 84
15, 213039, Note_on_c, 13, 55, 0
15, 213120, Note_on_c, 13, 55, 84
15, 213279, Note_on_c, 13, 55, 0
15, 213360, Note_on_c, 13, 58, 84
15, 213519, Note_on_c, 13, 58, 0
15, 213600, Note_on_c, 13, 52, 84
15, 213759, Note_on_c, 13, 52, 0
15, 213840, Note_on_c, 13, 55, 84
15, 213999, Note_on_c, 13, 55, 0
15, 214080, Note_on_c, 13, 55, 84
15, 214239, Note_on_c, 13, 55, 0
15, 214320, Note_on_c, 13, 60, 84
15, 214479, Note_on_c, 13, 60, 0
15, 214560, Note_on_c, 13, 60, 84
15, 214719, Note_on_c, 13, 60, 0
15, 214800, Note_on_c, 13, 48, 84
15, 214959, Note_on_c, 13, 48, 0
15, 215040, Note_on_c, 13, 49, 52
15, 215104, Note_on_c, 13, 49, 0
15, 215120, Note_on_c, 13, 61, 52
15, 215184, Note_on_c, 13, 61, 0
15, 215200, Note_on_c, 13, 61, 52
15, 215264, Note_on_c, 13, 61, 0
15, 215280, Note_on_c, 13, 61, 52
15, 215344, Note_on_c, 13, 61, 0
15, 215360, Note_on_c, 13, 61, 52
15, 215424, Note_on_c, 13, 61, 0
15, 215440, Note_on_c, 13, 61, 52
15, 215504, Note_on_c, 13, 61, 0
15, 215520, Note_on_c, 13, 61, 52
15, 215584, Note_on_c, 13, 61, 0
15, 215600, Note_on_c, 13, 61, 52
15, 215664, Note_on_c, 13, 61, 0
15, 215680, Note_on_c, 13, 61, 52
15, 215744, Note_on_c, 13, 61, 0
15, 215760, Note_on_c, 13, 61, 52
15, 215824, Note_on_c, 13, 61, 0
15, 215840, Note_on_c, 13, 61, 52
15, 215904, Note_on_c, 13, 61, 0
15, 215920, Note_on_c, 13, 61, 52
15, 215984, Note_on_c, 13, 61, 0
15, 216000, Note_on_c, 13, 61, 52
15, 216064, Note_on_c, 13, 61, 0
15, 216080, Note_on_c, 13, 61, 52
15, 216144, Note_on_c, 13, 61, 0
15, 216160, Note_on_c, 13, 61, 52
15, 216224, Note_on_c, 13, 61, 0
15, 216240, Note_on_c, 13, 61, 52
15, 216304, Note_on_c, 13, 61, 0
15, 216320, Note_on_c, 13, 61, 52
15, 216384, Note_on_c, 13, 61, 0
15, 216400, Note_on_c, 13, 61, 52
15, 216464, Note_on_c, 13, 61, 0
15, 216480, Note_on_c, 13, 61, 52
15, 216544, Note_on_c, 13, 61, 0
15, 216560, Note_on_c, 13, 61, 52
15, 216624, Note_on_c, 13, 61, 0
15, 216640, Note_on_c, 13, 61, 52
15, 216704, Note_on_c, 13, 61, 0
15, 216720, Note_on_c, 13, 61, 52
15, 216784, Note_on_c, 13, 61, 0
15, 216800, Note_on_c, 13, 61, 52
15, 216864, Note_on_c, 13, 61, 0
15, 216880, Note_on_c, 13, 61, 52
15, 216944, Note_on_c, 13, 61, 0
15, 216960, Note_on_c, 13, 60, 52
15, 217024, Note_on_c, 13, 60, 0
15, 217040, Note_on_c, 13, 60, 52
15, 217104, Note_on_c, 13, 60, 0
15, 217120, Note_on_c, 13, 60, 52
15, 217184, Note_on_c, 13, 60, 0
15, 217200, Note_on_c, 13, 60, 52
15, 217264, Note_on_c, 13, 60, 0
15, 217280, Note_on_c, 13, 60, 52
15, 217344, Note_on_c, 13, 60, 0
15, 217360, Note_on_c, 13, 60, 52
15, 217424, Note_on_c, 13, 60, 0
15, 217440, Note_on_c, 13, 60, 52
15, 217504, Note_on_c, 13, 60, 0
15, 217520, Note_on_c, 13, 60, 52
15, 217584, Note_on_c, 13, 60, 0
15, 217600, Note_on_c, 13, 60, 52
15, 217664, Note_on_c, 13, 60, 0
15, 217680, Note_on_c, 13, 60, 52
15, 217744, Note_on_c, 13, 60, 0
15, 217760, Note_on_c, 13, 60, 52
15, 217824, Note_on_c, 13, 60, 0
15, 217840, Note_on_c, 13, 60, 52
15, 217904, Note_on_c, 13, 60, 0
15, 217920, Note_on_c, 13, 60, 52
15, 217984, Note_on_c, 13, 60, 0
15, 218000, Note_on_c, 13, 60, 52
15, 218064, Note_on_c, 13, 60, 0
15, 218080, Note_on_c, 13, 60, 52
15, 218144, Note_on_c, 13, 60, 0
15, 218160, Note_on_c, 13, 60, 52
15, 218224, Note_on_c, 13, 60, 0
15, 218240, Note_on_c, 13, 60, 52
15, 218304, Note_on_c, 13, 60, 0
15, 218320, Note_on_c, 13, 60, 52
15, 218384, Note_on_c, 13, 60, 0
15, 218400, Note_on_c, 13, 63, 52
15, 218464, Note_on_c, 13, 63, 0
15, 218480, Note_on_c, 13, 63, 52
15, 218544, Note_on_c, 13, 63, 0
15, 218560, Note_on_c, 13, 63, 52
15, 218624, Note_on_c, 13, 63, 0
15, 218640, Note_on_c, 13, 63, 52
15, 218704, Note_on_c, 13, 63, 0
15, 218720, Note_on_c, 13, 63, 52
15, 218784, Note_on_c, 13, 63, 0
15, 218800, Note_on_c, 13, 63, 52
15, 218864, Note_on_c, 13, 63, 0
15, 218880, Note_on_c, 13, 61, 52
15, 218944, Note_on_c, 13, 61, 0
15, 218960, Note_on_c, 13, 61, 52
15, 219024, Note_on_c, 13, 61, 0
15, 219040, Note_on_c, 13, 61, 52
15, 219104, Note_on_c, 13, 61, 0
15, 219120, Note_on_c, 13, 61, 52
15, 219184, Note_on_c, 13, 61, 0
15, 219200, Note_on_c, 13, 61, 52
15, 219264, Note_on_c, 13, 61, 0
15, 219280, Note_on_c, 13, 61, 52
15, 219344, Note_on_c, 13, 61, 0
15, 219360, Note_on_c, 13, 61, 52
15, 219424, Note_on_c, 13, 61, 0
15, 219440, Note_on_c, 13, 61, 52
15, 219504, Note_on_c, 13, 61, 0
15, 219520, Note_on_c, 13, 61, 52
15, 219584, Note_on_c, 13, 61, 0
15, 219600, Note_on_c, 13, 61, 52
15, 219664, Note_on_c, 13, 61, 0
15, 219680, Note_on_c, 13, 61, 52
15, 219744, Note_on_c, 13, 61, 0
15, 219760, Note_on_c, 13, 61, 52
15, 219824, Note_on_c, 13, 61, 0
15, 219840, Note_on_c, 13, 61, 52
15, 219904, Note_on_c, 13, 61, 0
15, 219920, Note_on_c, 13, 61, 52
15, 219984, Note_on_c, 13, 61, 0
15, 220000, Note_on_c, 13, 61, 52
15, 220064, Note_on_c, 13, 61, 0
15, 220080, Note_on_c, 13, 61, 52
15, 220144, Note_on_c, 13, 61, 0
15, 220160, Note_on_c, 13, 61, 52
15, 220224, Note_on_c, 13, 61, 0
15, 220240, Note_on_c, 13, 61, 52
15, 220304, Note_on_c, 13, 61, 0
15, 220320, Note_on_c, 13, 61, 52
15, 220384, Note_on_c, 13, 61, 0
15, 220400, Note_on_c, 13, 61, 52
15, 220464, Note_on_c, 13, 61, 0
15, 220480, Note_on_c, 13, 61, 52
15, 220544, Note_on_c, 13, 61, 0
15, 220560, Note_on_c, 13, 61, 52
15, 220624, Note_on_c, 13, 61, 0
15, 220640, Note_on_c, 13, 61, 52
15, 220704, Note_on_c, 13, 61, 0
15, 220720, Note_on_c, 13, 61, 52
15, 220784, Note_on_c, 13, 61, 0
15, 220800, Note_on_c, 13, 60, 52
15, 220864, Note_on_c, 13, 60, 0
15, 220880, Note_on_c, 13, 60, 52
15, 220944, Note_on_c, 13, 60, 0
15, 220960, Note_on_c, 13, 60, 52
15, 221024, Note_on_c, 13, 60, 0
15, 221040, Note_on_c, 13, 60, 52
15, 221104, Note_on_c, 13, 60, 0
15, 221120, Note_on_c, 13, 60, 52
15, 221184, Note_on_c, 13, 60, 0
15, 221200, Note_on_c, 13, 60, 52
15, 221264, Note_on_c, 13, 60, 0
15, 221280, Note_on_c, 13, 60, 52
15, 221344, Note_on_c, 13, 60, 0
15, 221360, Note_on_c, 13, 60, 52
15, 221424, Note_on_c, 13, 60, 0
15, 221440, Note_on_c, 13, 60, 52
15, 221504, Note_on_c, 13, 60, 0
15, 221520, Note_on_c, 13, 60, 52
15, 221584, Note_on_c, 13, 60, 0
15, 221600, Note_on_c, 13, 60, 52
15, 221664, Note_on_c, 13, 60, 0
15, 221680, Note_on_c, 13, 60, 52
15, 221744, Note_on_c, 13, 60, 0
15, 221760, Note_on_c, 13, 60, 52
15, 221824, Note_on_c, 13, 60, 0
15, 221840, Note_on_c, 13, 60, 52
15, 221904, Note_on_c, 13, 60, 0
15, 221920, Note_on_c, 13, 60, 52
15, 221984, Note_on_c, 13, 60, 0
15, 222000, Note_on_c, 13, 60, 52
15, 222064, Note_on_c, 13, 60, 0
15, 222080, Note_on_c, 13, 60, 52
15, 222144, Note_on_c, 13, 60, 0
15, 222160, Note_on_c, 13, 60, 52
15, 222224, Note_on_c, 13, 60, 0
15, 222240, Note_on_c, 13, 63, 52
15, 222304, Note_on_c, 13, 63, 0
15, 222320, Note_on_c, 13, 63, 52
15, 222384, Note_on_c, 13, 63, 0
15, 222400, Note_on_c, 13, 63, 52
15, 222464, Note_on_c, 13, 63, 0
15, 222480, Note_on_c, 13, 63, 52
15, 222544, Note_on_c, 13, 63, 0
15, 222560, Note_on_c, 13, 63, 52
15, 222624, Note_on_c, 13, 63, 0
15, 222640, Note_on_c, 13, 63, 52
15, 222704, Note_on_c, 13, 63, 0
15, 222720, Note_on_c, 13, 61, 52
15, 222784, Note_on_c, 13, 61, 0
15, 222800, Note_on_c, 13, 61, 52
15, 222864, Note_on_c, 13, 61, 0
15, 222880, Note_on_c, 13, 61, 52
15, 222944, Note_on_c, 13, 61, 0
15, 222960, Note_on_c, 13, 61, 53
15, 223024, Note_on_c, 13, 61, 0
15, 223040, Note_on_c, 13, 61, 53
15, 223104, Note_on_c, 13, 61, 0
15, 223120, Note_on_c, 13, 61, 53
15, 223184, Note_on_c, 13, 61, 0
15, 223200, Note_on_c, 13, 61, 54
15, 223264, Note_on_c, 13, 61, 0
15, 223280, Note_on_c, 13, 61, 54
15, 223344, Note_on_c, 13, 61, 0
15, 223360, Note_on_c, 13, 61, 54
15, 223424, Note_on_c, 13, 61, 0
15, 223440, Note_on_c, 13, 61, 55
15, 223504, Note_on_c, 13, 61, 0
15, 223520, Note_on_c, 13, 61, 55
15, 223584, Note_on_c, 13, 61, 0
15, 223600, Note_on_c, 13, 61, 55
15, 223664, Note_on_c, 13, 61, 0
15, 223680, Note_on_c, 13, 62, 56
15, 223744, Note_on_c, 13, 62, 0
15, 223760, Note_on_c, 13, 62, 56
15, 223824, Note_on_c, 13, 62, 0
15, 223840, Note_on_c, 13, 62, 56
15, 223904, Note_on_c, 13, 62, 0
15, 223920, Note_on_c, 13, 62, 57
15, 223984, Note_on_c, 13, 62, 0
15, 224000, Note_on_c, 13, 62, 57
15, 224064, Note_on_c, 13, 62, 0
15, 224080, Note_on_c, 13, 62, 57
15, 224144, Note_on_c, 13, 62, 0
15, 224160, Note_on_c, 13, 62, 58
15, 224224, Note_on_c, 13, 62, 0
15, 224240, Note_on_c, 13, 62, 58
15, 224304, Note_on_c, 13, 62, 0
15, 224320, Note_on_c, 13, 62, 58
15, 224384, Note_on_c, 13, 62, 0
15, 224400, Note_on_c, 13, 62, 59
15, 224464, Note_on_c, 13, 62, 0
15, 224480, Note_on_c, 13, 62, 59
15, 224544, Note_on_c, 13, 62, 0
15, 224560, Note_on_c, 13, 62, 59
15, 224624, Note_on_c, 13, 62, 0
15, 224640, Note_on_c, 13, 64, 60
15, 224704, Note_on_c, 13, 64, 0
15, 224720, Note_on_c, 13, 64, 60
15, 224784, Note_on_c, 13, 64, 0
15, 224800, Note_on_c, 13, 64, 60
15, 224864, Note_on_c, 13, 64, 0
15, 224880, Note_on_c, 13, 64, 61
15, 224944, Note_on_c, 13, 64, 0
15, 224960, Note_on_c, 13, 64, 61
15, 225024, Note_on_c, 13, 64, 0
15, 225040, Note_on_c, 13, 64, 61
15, 225104, Note_on_c, 13, 64, 0
15, 225120, Note_on_c, 13, 64, 62
15, 225184, Note_on_c, 13, 64, 0
15, 225200, Note_on_c, 13, 64, 62
15, 225264, Note_on_c, 13, 64, 0
15, 225280, Note_on_c, 13, 64, 62
15, 225344, Note_on_c, 13, 64, 0
15, 225360, Note_on_c, 13, 64, 63
15, 225424, Note_on_c, 13, 64, 0
15, 225440, Note_on_c, 13, 64, 63
15, 225504, Note_on_c, 13, 64, 0
15, 225520, Note_on_c, 13, 64, 63
15, 225584, Note_on_c, 13, 64, 0
15, 225600, Note_on_c, 13, 64, 64
15, 225664, Note_on_c, 13, 64, 0
15, 225680, Note_on_c, 13, 64, 64
15, 225744, Note_on_c, 13, 64, 0
15, 225760, Note_on_c, 13, 64, 64
15, 225824, Note_on_c, 13, 64, 0
15, 225840, Note_on_c, 13, 64, 65
15, 225904, Note_on_c, 13, 64, 0
15, 225920, Note_on_c, 13, 64, 65
15, 225984, Note_on_c, 13, 64, 0
15, 226000, Note_on_c, 13, 64, 65
15, 226064, Note_on_c, 13, 64, 0
15, 226080, Note_on_c, 13, 64, 66
15, 226144, Note_on_c, 13, 64, 0
15, 226160, Note_on_c, 13, 64, 66
15, 226224, Note_on_c, 13, 64, 0
15, 226240, Note_on_c, 13, 64, 66
15, 226304, Note_on_c, 13, 64, 0
15, 226320, Note_on_c, 13, 64, 67
15, 226384, Note_on_c, 13, 64, 0
15, 226400, Note_on_c, 13, 64, 67
15, 226464, Note_on_c, 13, 64, 0
15, 226480, Note_on_c, 13, 64, 67
15, 226544, Note_on_c, 13, 64, 0
15, 226560, Note_on_c, 13, 65, 52
15, 226704, Note_on_c, 13, 65, 0
15, 226720, Note_on_c, 13, 53, 52
15, 226879, Note_on_c, 13, 53, 0
15, 226880, Note_on_c, 13, 57, 52
15, 227039, Note_on_c, 13, 57, 0
15, 227040, Note_on_c, 13, 60, 52
15, 227199, Note_on_c, 13, 60, 0
15, 227200, Note_on_c, 13, 48, 52
15, 227359, Note_on_c, 13, 48, 0
15, 227360, Note_on_c, 13, 60, 52
15, 227504, Note_on_c, 13, 60, 0
15, 227520, Note_on_c, 13, 48, 52
15, 227679, Note_on_c, 13, 48, 0
15, 227680, Note_on_c, 13, 53, 52
15, 227839, Note_on_c, 13, 53, 0
15, 227840, Note_on_c, 13, 57, 52
15, 227999, Note_on_c, 13, 57, 0
15, 228000, Note_on_c, 13, 60, 52
15, 228159, Note_on_c, 13, 60, 0
15, 228160, Note_on_c, 13, 48, 52
15, 228319, Note_on_c, 13, 48, 0
15, 228320, Note_on_c, 13, 60, 52
15, 228464, Note_on_c, 13, 60, 0
15, 228480, Note_on_c, 13, 48, 52
15, 228639, Note_on_c, 13, 48, 0
15, 228640, Note_on_c, 13, 55, 52
15, 228799, Note_on_c, 13, 55, 0
15, 228800, Note_on_c, 13, 58, 52
15, 228959, Note_on_c, 13, 58, 0
15, 228960, Note_on_c, 13, 60, 52
15, 229119, Note_on_c, 13, 60, 0
15, 229120, Note_on_c, 13, 48, 52
15, 229279, Note_on_c, 13, 48, 0
15, 229280, Note_on_c, 13, 60, 52
15, 229424, Note_on_c, 13, 60, 0
15, 229440, Note_on_c, 13, 48, 52
15, 229599, Note_on_c, 13, 48, 0
15, 229600, Note_on_c, 13, 55, 52
15, 229759, Note_on_c, 13, 55, 0
15, 229760, Note_on_c, 13, 58, 52
15, 229919, Note_on_c, 13, 58, 0
15, 229920, Note_on_c, 13, 60, 52
15, 230079, Note_on_c, 13, 60, 0
15, 230080, Note_on_c, 13, 48, 52
15, 230239, Note_on_c, 13, 48, 0
15, 230240, Note_on_c, 13, 60, 52
15, 230384, Note_on_c, 13, 60, 0
15, 230400, Note_on_c, 13, 48, 52
15, 230559, Note_on_c, 13, 48, 0
15, 230560, Note_on_c, 13, 53, 52
15, 230719, Note_on_c, 13, 53, 0
15, 230720, Note_on_c, 13, 57, 52
15, 230879, Note_on_c, 13, 57, 0
15, 230880, Note_on_c, 13, 60, 52
15, 231039, Note_on_c, 13, 60, 0
15, 231040, Note_on_c, 13, 48, 52
15, 231199, Note_on_c, 13, 48, 0
15, 231200, Note_on_c, 13, 60, 52
15, 231344, Note_on_c, 13, 60, 0
15, 231360, Note_on_c, 13, 48, 52
15, 231519, Note_on_c, 13, 48, 0
15, 231520, Note_on_c, 13, 53, 52
15, 231679, Note_on_c, 13, 53, 0
15, 231680, Note_on_c, 13, 57, 52
15, 231839, Note_on_c, 13, 57, 0
15, 231840, Note_on_c, 13, 60, 52
15, 231999, Note_on_c, 13, 60, 0
15, 232000, Note_on_c, 13, 48, 52
15, 232159, Note_on_c, 13, 48, 0
15, 232160, Note_on_c, 13, 60, 52
15, 232304, Note_on_c, 13, 60, 0
15, 232320, Note_on_c, 13, 48, 52
15, 232479, Note_on_c, 13, 48, 0
15, 232480, Note_on_c, 13, 55, 52
15, 232639, Note_on_c, 13, 55, 0
15, 232640, Note_on_c, 13, 58, 52
15, 232799, Note_on_c, 13, 58, 0
15, 232800, Note_on_c, 13, 60, 52
15, 232959, Note_on_c, 13, 60, 0
15, 232960, Note_on_c, 13, 48, 52
15, 233119, Note_on_c, 13, 48, 0
15, 233120, Note_on_c, 13, 60, 52
15, 233264, Note_on_c, 13, 60, 0
15, 233280, Note_on_c, 13, 48, 52
15, 233439, Note_on_c, 13, 48, 0
15, 233440, Note_on_c, 13, 55, 52
15, 233599, Note_on_c, 13, 55, 0
15, 233600, Note_on_c, 13, 58, 52
15, 233759, Note_on_c, 13, 58, 0
15, 233760, Note_on_c, 13, 60, 52
15, 233919, Note_on_c, 13, 60, 0
15, 233920, Note_on_c, 13, 48, 52
15, 234079, Note_on_c, 13, 48, 0
15, 234080, Note_on_c, 13, 60, 52
15, 234224, Note_on_c, 13, 60, 0
15, 234240, Note_on_c, 13, 53, 44
15, 234384, Note_on_c, 13, 53, 0
15, 234400, Note_on_c, 13, 65, 44
15, 234544, Note_on_c, 13, 65, 0
15, 234560, Note_on_c, 13, 65, 44
15, 234704, Note_on_c, 13, 65, 0
15, 234720, Note_on_c, 13, 65, 44
15, 234864, Note_on_c, 13, 65, 0
15, 234880, Note_on_c, 13, 65, 44
15, 235024, Note_on_c, 13, 65, 0
15, 235040, Note_on_c, 13, 62, 44
15, 235184, Note_on_c, 13, 62, 0
15, 235200, Note_on_c, 13, 67, 44
15, 235344, Note_on_c, 13, 67, 0
15, 235360, Note_on_c, 13, 67, 44
15, 235504, Note_on_c, 13, 67, 0
15, 235520, Note_on_c, 13, 67, 44
15, 235664, Note_on_c, 13, 67, 0
15, 235680, Note_on_c, 13, 67, 44
15, 235824, Note_on_c, 13, 67, 0
15, 235840, Note_on_c, 13, 67, 44
15, 235984, Note_on_c, 13, 67, 0
15, 236000, Note_on_c, 13, 64, 44
15, 236144, Note_on_c, 13, 64, 0
15, 236160, Note_on_c, 13, 69, 44
15, 236304, Note_on_c, 13, 69, 0
15, 236320, Note_on_c, 13, 69, 44
15, 236464, Note_on_c, 13, 69, 0
15, 236480, Note_on_c, 13, 69, 44
15, 236624, Note_on_c, 13, 69, 0
15, 236640, Note_on_c, 13, 69, 44
15, 236784, Note_on_c, 13, 69, 0
15, 236800, Note_on_c, 13, 69, 44
15, 236944, Note_on_c, 13, 69, 0
15, 236960, Note_on_c, 13, 65, 44
15, 237104, Note_on_c, 13, 65, 0
15, 237120, Note_on_c, 13, 70, 44
15, 237264, Note_on_c, 13, 70, 0
15, 237280, Note_on_c, 13, 70, 44
15, 237424, Note_on_c, 13, 70, 0
15, 237440, Note_on_c, 13, 70, 44
15, 237584, Note_on_c, 13, 70, 0
15, 237600, Note_on_c, 13, 70, 44
15, 237744, Note_on_c, 13, 70, 0
15, 237760, Note_on_c, 13, 70, 44
15, 237904, Note_on_c, 13, 70, 0
15, 237920, Note_on_c, 13, 67, 44
15, 238064, Note_on_c, 13, 67, 0
15, 238080, Note_on_c, 13, 72, 44
15, 238224, Note_on_c, 13, 72, 0
15, 238240, Note_on_c, 13, 72, 44
15, 238384, Note_on_c, 13, 72, 0
15, 238400, Note_on_c, 13, 72, 44
15, 238544, Note_on_c, 13, 72, 0
15, 238560, Note_on_c, 13, 72, 44
15, 238704, Note_on_c, 13, 72, 0
15, 238720, Note_on_c, 13, 72, 44
15, 238864, Note_on_c, 13, 72, 0
15, 238880, Note_on_c, 13, 65, 44
15, 239024, Note_on_c, 13, 65, 0
15, 239040, Note_on_c, 13, 70, 44
15, 239184, Note_on_c, 13, 70, 0
15, 239200, Note_on_c, 13, 70, 44
15, 239344, Note_on_c, 13, 70, 0
15, 239360, Note_on_c, 13, 70, 44
15, 239504, Note_on_c, 13, 70, 0
15, 239520, Note_on_c, 13, 70, 44
15, 239664, Note_on_c, 13, 70, 0
15, 239680, Note_on_c, 13, 70, 44
15, 239824, Note_on_c, 13, 70, 0
15, 239840, Note_on_c, 13, 64, 44
15, 239984, Note_on_c, 13, 64, 0
15, 240000, Note_on_c, 13, 69, 44
15, 240144, Note_on_c, 13, 69, 0
15, 240160, Note_on_c, 13, 69, 44
15, 240304, Note_on_c, 13, 69, 0
15, 240320, Note_on_c, 13, 69, 44
15, 240464, Note_on_c, 13, 69, 0
15, 240480, Note_on_c, 13, 69, 44
15, 240624, Note_on_c, 13, 69, 0
15, 240640, Note_on_c, 13, 69, 44
15, 240784, Note_on_c, 13, 69, 0
15, 240800, Note_on_c, 13, 62, 44
15, 240944, Note_on_c, 13, 62, 0
15, 240960, Note_on_c, 13, 67, 44
15, 241104, Note_on_c, 13, 67, 0
15, 241120, Note_on_c, 13, 67, 44
15, 241264, Note_on_c, 13, 67, 0
15, 241280, Note_on_c, 13, 67, 44
15, 241424, Note_on_c, 13, 67, 0
15, 241440, Note_on_c, 13, 67, 44
15, 241584, Note_on_c, 13, 67, 0
15, 241600, Note_on_c, 13, 67, 44
15, 241744, Note_on_c, 13, 67, 0
15, 241760, Note_on_c, 13, 60, 44
15, 241904, Note_on_c, 13, 60, 0
15, 241920, Note_on_c, 13, 53, 76
15, 242139, Note_on_c, 13, 53, 0
15, 242160, Note_on_c, 13, 65, 76
15, 242619, Note_on_c, 13, 65, 0
15, 242640, Note_on_c, 13, 62, 76
15, 242859, Note_on_c, 13, 62, 0
15, 242880, Note_on_c, 13, 67, 76
15, 243099, Note_on_c, 13, 67, 0
15, 243120, Note_on_c, 13, 55, 76
15, 243579, Note_on_c, 13, 55, 0
15, 243600, Note_on_c, 13, 52, 76
15, 243819, Note_on_c, 13, 52, 0
15, 243840, Note_on_c, 13, 57, 76
15, 244059, Note_on_c, 13, 57, 0
15, 244080, Note_on_c, 13, 69, 76
15, 244539, Note_on_c, 13, 69, 0
15, 244560, Note_on_c, 13, 65, 76
15, 244779, Note_on_c, 13, 65, 0
15, 244800, Note_on_c, 13, 70, 76
15, 245019, Note_on_c, 13, 70, 0
15, 245040, Note_on_c, 13, 58, 76
15, 245499, Note_on_c, 13, 58, 0
15, 245520, Note_on_c, 13, 55, 76
15, 245739, Note_on_c, 13, 55, 0
15, 245760, Note_on_c, 13, 60, 76
15, 245824, Note_on_c, 13, 60, 0
15, 245840, Note_on_c, 13, 60, 76
15, 245904, Note_on_c, 13, 60, 0
15, 245920, Note_on_c, 13, 60, 76
15, 245984, Note_on_c, 13, 60, 0
15, 246000, Note_on_c, 13, 48, 76
15, 246064, Note_on_c, 13, 48, 0
15, 246080, Note_on_c, 13, 48, 76
15, 246144, Note_on_c, 13, 48, 0
15, 246160, Note_on_c, 13, 48, 76
15, 246224, Note_on_c, 13, 48, 0
15, 246240, Note_on_c, 13, 60, 76
15, 246304, Note_on_c, 13, 60, 0
15, 246320, Note_on_c, 13, 60, 76
15, 246384, Note_on_c, 13, 60, 0
15, 246400, Note_on_c, 13, 60, 76
15, 246464, Note_on_c, 13, 60, 0
15, 246480, Note_on_c, 13, 57, 76
15, 246544, Note_on_c, 13, 57, 0
15, 246560, Note_on_c, 13, 57, 76
15, 246624, Note_on_c, 13, 57, 0
15, 246640, Note_on_c, 13, 57, 76
15, 246704, Note_on_c, 13, 57, 0
15, 246720, Note_on_c, 13, 58, 76
15, 246784, Note_on_c, 13, 58, 0
15, 246800, Note_on_c, 13, 58, 76
15, 246864, Note_on_c, 13, 58, 0
15, 246880, Note_on_c, 13, 58, 76
15, 246944, Note_on_c, 13, 58, 0
15, 246960, Note_on_c, 13, 65, 76
15, 247024, Note_on_c, 13, 65, 0
15, 247040, Note_on_c, 13, 65, 76
15, 247104, Note_on_c, 13, 65, 0
15, 247120, Note_on_c, 13, 65, 76
15, 247184, Note_on_c, 13, 65, 0
15, 247200, Note_on_c, 13, 58, 76
15, 247264, Note_on_c, 13, 58, 0
15, 247280, Note_on_c, 13, 58, 76
15, 247344, Note_on_c, 13, 58, 0
15, 247360, Note_on_c, 13, 58, 76
15, 247424, Note_on_c, 13, 58, 0
15, 247440, Note_on_c, 13, 59, 76
15, 247504, Note_on_c, 13, 59, 0
15, 247520, Note_on_c, 13, 59, 76
15, 247584, Note_on_c, 13, 59, 0
15, 247600, Note_on_c, 13, 59, 76
15, 247664, Note_on_c, 13, 59, 0
15, 247680, Note_on_c, 13, 64, 76
15, 247744, Note_on_c, 13, 64, 0
15, 247760, Note_on_c, 13, 64, 76
15, 247824, Note_on_c, 13, 64, 0
15, 247840, Note_on_c, 13, 64, 76
15, 247904, Note_on_c, 13, 64, 0
15, 247920, Note_on_c, 13, 57, 76
15, 247984, Note_on_c, 13, 57, 0
15, 248000, Note_on_c, 13, 57, 76
15, 248064, Note_on_c, 13, 57, 0
15, 248080, Note_on_c, 13, 57, 76
15, 248144, Note_on_c, 13, 57, 0
15, 248160, Note_on_c, 13, 63, 76
15, 248224, Note_on_c, 13, 63, 0
15, 248240, Note_on_c, 13, 63, 76
15, 248304, Note_on_c, 13, 63, 0
15, 248320, Note_on_c, 13, 63, 76
15, 248384, Note_on_c, 13, 63, 0
15, 248400, Note_on_c, 13, 62, 76
15, 248464, Note_on_c, 13, 62, 0
15, 248480, Note_on_c, 13, 62, 76
15, 248544, Note_on_c, 13, 62, 0
15, 248560, Note_on_c, 13, 62, 76
15, 248624, Note_on_c, 13, 62, 0
15, 248640, Note_on_c, 13, 62, 76
15, 248704, Note_on_c, 13, 62, 0
15, 248720, Note_on_c, 13, 62, 76
15, 248784, Note_on_c, 13, 62, 0
15, 248800, Note_on_c, 13, 62, 76
15, 248864, Note_on_c, 13, 62, 0
15, 248880, Note_on_c, 13, 55, 76
15, 248944, Note_on_c, 13, 55, 0
15, 248960, Note_on_c, 13, 55, 76
15, 249024, Note_on_c, 13, 55, 0
15, 249040, Note_on_c, 13, 55, 76
15, 249104, Note_on_c, 13, 55, 0
15, 249120, Note_on_c, 13, 61, 76
15, 249184, Note_on_c, 13, 61, 0
15, 249200, Note_on_c, 13, 61, 76
15, 249264, Note_on_c, 13, 61, 0
15, 249280, Note_on_c, 13, 61, 76
15, 249344, Note_on_c, 13, 61, 0
15, 249360, Note_on_c, 13, 60, 76
15, 249424, Note_on_c, 13, 60, 0
15, 249440, Note_on_c, 13, 60, 76
15, 249504, Note_on_c, 13, 60, 0
15, 249520, Note_on_c, 13, 60, 76
15, 249584, Note_on_c, 13, 60, 0
15, 249600, Note_on_c, 13, 55, 80
15, 249600, Note_on_c, 13, 58, 80
15, 249664, Note_on_c, 13, 55, 0
15, 249664, Note_on_c, 13, 58, 0
15, 249680, Note_on_c, 13, 55, 80
15, 249680, Note_on_c, 13, 58, 80
15, 249744, Note_on_c, 13, 55, 0
15, 249744, Note_on_c, 13, 58, 0
15, 249760, Note_on_c, 13, 55, 80
15, 249760, Note_on_c, 13, 58, 80
15, 249824, Note_on_c, 13, 55, 0
15, 249824, Note_on_c, 13, 58, 0
15, 249840, Note_on_c, 13, 58, 80
15, 249840, Note_on_c, 13, 55, 80
15, 249904, Note_on_c, 13, 58, 0
15, 249904, Note_on_c, 13, 55, 0
15, 249920, Note_on_c, 13, 58, 80
15, 249920, Note_on_c, 13, 55, 80
15, 249984, Note_on_c, 13, 58, 0
15, 249984, Note_on_c, 13, 55, 0
15, 250000, Note_on_c, 13, 58, 80
15, 250000, Note_on_c, 13, 55, 80
15, 250064, Note_on_c, 13, 58, 0
15, 250064, Note_on_c, 13, 55, 0
15, 250080, Note_on_c, 13, 58, 80
15, 250080, Note_on_c, 13, 55, 80
15, 250144, Note_on_c, 13, 58, 0
15, 250144, Note_on_c, 13, 55, 0
15, 250160, Note_on_c, 13, 58, 80
15, 250160, Note_on_c, 13, 55, 80
15, 250224, Note_on_c, 13, 58, 0
15, 250224, Note_on_c, 13, 55, 0
15, 250240, Note_on_c, 13, 58, 80
15, 250240, Note_on_c, 13, 55, 80
15, 250304, Note_on_c, 13, 58, 0
15, 250304, Note_on_c, 13, 55, 0
15, 250320, Note_on_c, 13, 58, 80
15, 250320, Note_on_c, 13, 55, 80
15, 250384, Note_on_c, 13, 58, 0
15, 250384, Note_on_c, 13, 55, 0
15, 250400, Note_on_c, 13, 58, 80
15, 250400, Note_on_c, 13, 55, 80
15, 250464, Note_on_c, 13, 58, 0
15, 250464, Note_on_c, 13, 55, 0
15, 250480, Note_on_c, 13, 55, 80
15, 250480, Note_on_c, 13, 58, 80
15, 250544, Note_on_c, 13, 55, 0
15, 250544, Note_on_c, 13, 58, 0
15, 250560, Note_on_c, 13, 55, 80
15, 250560, Note_on_c, 13, 58, 80
15, 250624, Note_on_c, 13, 55, 0
15, 250624, Note_on_c, 13, 58, 0
15, 250640, Note_on_c, 13, 58, 80
15, 250640, Note_on_c, 13, 55, 80
15, 250704, Note_on_c, 13, 58, 0
15, 250704, Note_on_c, 13, 55, 0
15, 250720, Note_on_c, 13, 55, 80
15, 250720, Note_on_c, 13, 58, 80
15, 250784, Note_on_c, 13, 55, 0
15, 250784, Note_on_c, 13, 58, 0
15, 250800, Note_on_c, 13, 55, 80
15, 250800, Note_on_c, 13, 58, 80
15, 250864, Note_on_c, 13, 55, 0
15, 250864, Note_on_c, 13, 58, 0
15, 250880, Note_on_c, 13, 58, 80
15, 250880, Note_on_c, 13, 55, 80
15, 250944, Note_on_c, 13, 58, 0
15, 250944, Note_on_c, 13, 55, 0
15, 250960, Note_on_c, 13, 58, 80
15, 250960, Note_on_c, 13, 55, 80
15, 251024, Note_on_c, 13, 58, 0
15, 251024, Note_on_c, 13, 55, 0
15, 251040, Note_on_c, 13, 58, 80
15, 251040, Note_on_c, 13, 55, 80
15, 251104, Note_on_c, 13, 58, 0
15, 251104, Note_on_c, 13, 55, 0
15, 251120, Note_on_c, 13, 58, 80
15, 251120, Note_on_c, 13, 55, 80
15, 251184, Note_on_c, 13, 58, 0
15, 251184, Note_on_c, 13, 55, 0
15, 251200, Note_on_c, 13, 58, 80
15, 251200, Note_on_c, 13, 55, 80
15, 251264, Note_on_c, 13, 58, 0
15, 251264, Note_on_c, 13, 55, 0
15, 251280, Note_on_c, 13, 55, 80
15, 251280, Note_on_c, 13, 58, 80
15, 251344, Note_on_c, 13, 55, 0
15, 251344, Note_on_c, 13, 58, 0
15, 251360, Note_on_c, 13, 55, 80
15, 251360, Note_on_c, 13, 58, 80
15, 251424, Note_on_c, 13, 55, 0
15, 251424, Note_on_c, 13, 58, 0
15, 251440, Note_on_c, 13, 55, 80
15, 251440, Note_on_c, 13, 58, 80
15, 251504, Note_on_c, 13, 55, 0
15, 251504, Note_on_c, 13, 58, 0
15, 251520, Note_on_c, 13, 57, 80
15, 251520, Note_on_c, 13, 53, 80
15, 251584, Note_on_c, 13, 57, 0
15, 251584, Note_on_c, 13, 53, 0
15, 251600, Note_on_c, 13, 57, 80
15, 251600, Note_on_c, 13, 53, 80
15, 251664, Note_on_c, 13, 57, 0
15, 251664, Note_on_c, 13, 53, 0
15, 251680, Note_on_c, 13, 57, 80
15, 251680, Note_on_c, 13, 53, 80
15, 251744, Note_on_c, 13, 57, 0
15, 251744, Note_on_c, 13, 53, 0
15, 251760, Note_on_c, 13, 57, 80
15, 251760, Note_on_c, 13, 53, 80
15, 251824, Note_on_c, 13, 57, 0
15, 251824, Note_on_c, 13, 53, 0
15, 251840, Note_on_c, 13, 53, 80
15, 251840, Note_on_c, 13, 57, 80
15, 251904, Note_on_c, 13, 53, 0
15, 251904, Note_on_c, 13, 57, 0
15, 251920, Note_on_c, 13, 53, 80
15, 251920, Note_on_c, 13, 57, 80
15, 251984, Note_on_c, 13, 53, 0
15, 251984, Note_on_c, 13, 57, 0
15, 252000, Note_on_c, 13, 53, 80
15, 252000, Note_on_c, 13, 57, 80
15, 252064, Note_on_c, 13, 53, 0
15, 252064, Note_on_c, 13, 57, 0
15, 252080, Note_on_c, 13, 57, 80
15, 252080, Note_on_c, 13, 53, 80
15, 252144, Note_on_c, 13, 57, 0
15, 252144, Note_on_c, 13, 53, 0
15, 252160, Note_on_c, 13, 57, 80
15, 252160, Note_on_c, 13, 53, 80
15, 252224, Note_on_c, 13, 57, 0
15, 252224, Note_on_c, 13, 53, 0
15, 252240, Note_on_c, 13, 53, 80
15, 252240, Note_on_c, 13, 57, 80
15, 252304, Note_on_c, 13, 53, 0
15, 252304, Note_on_c, 13, 57, 0
15, 252320, Note_on_c, 13, 57, 80
15, 252320, Note_on_c, 13, 53, 80
15, 252384, Note_on_c, 13, 57, 0
15, 252384, Note_on_c, 13, 53, 0
15, 252400, Note_on_c, 13, 57, 80
15, 252400, Note_on_c, 13, 53, 80
15, 252464, Note_on_c, 13, 57, 0
15, 252464, Note_on_c, 13, 53, 0
15, 252480, Note_on_c, 13, 57, 80
15, 252480, Note_on_c, 13, 53, 80
15, 252544, Note_on_c, 13, 57, 0
15, 252544, Note_on_c, 13, 53, 0
15, 252560, Note_on_c, 13, 57, 80
15, 252560, Note_on_c, 13, 53, 80
15, 252624, Note_on_c, 13, 57, 0
15, 252624, Note_on_c, 13, 53, 0
15, 252640, Note_on_c, 13, 53, 80
15, 252640, Note_on_c, 13, 57, 80
15, 252704, Note_on_c, 13, 53, 0
15, 252704, Note_on_c, 13, 57, 0
15, 252720, Note_on_c, 13, 57, 80
15, 252720, Note_on_c, 13, 53, 80
15, 252784, Note_on_c, 13, 57, 0
15, 252784, Note_on_c, 13, 53, 0
15, 252800, Note_on_c, 13, 53, 80
15, 252800, Note_on_c, 13, 57, 80
15, 252864, Note_on_c, 13, 53, 0
15, 252864, Note_on_c, 13, 57, 0
15, 252880, Note_on_c, 13, 57, 80
15, 252880, Note_on_c, 13, 53, 80
15, 252944, Note_on_c, 13, 57, 0
15, 252944, Note_on_c, 13, 53, 0
15, 252960, Note_on_c, 13, 57, 80
15, 252960, Note_on_c, 13, 53, 80
15, 253024, Note_on_c, 13, 57, 0
15, 253024, Note_on_c, 13, 53, 0
15, 253040, Note_on_c, 13, 53, 80
15, 253040, Note_on_c, 13, 57, 80
15, 253104, Note_on_c, 13, 53, 0
15, 253104, Note_on_c, 13, 57, 0
15, 253120, Note_on_c, 13, 57, 80
15, 253120, Note_on_c, 13, 53, 80
15, 253184, Note_on_c, 13, 57, 0
15, 253184, Note_on_c, 13, 53, 0
15, 253200, Note_on_c, 13, 53, 80
15, 253200, Note_on_c, 13, 57, 80
15, 253264, Note_on_c, 13, 53, 0
15, 253264, Note_on_c, 13, 57, 0
15, 253280, Note_on_c, 13, 53, 80
15, 253280, Note_on_c, 13, 57, 80
15, 253344, Note_on_c, 13, 53, 0
15, 253344, Note_on_c, 13, 57, 0
15, 253360, Note_on_c, 13, 53, 80
15, 253360, Note_on_c, 13, 57, 80
15, 253424, Note_on_c, 13, 53, 0
15, 253424, Note_on_c, 13, 57, 0
15, 253440, Note_on_c, 13, 62, 84
15, 253440, Note_on_c, 13, 58, 84
15, 253504, Note_on_c, 13, 62, 0
15, 253504, Note_on_c, 13, 58, 0
15, 253520, Note_on_c, 13, 62, 84
15, 253520, Note_on_c, 13, 58, 84
15, 253584, Note_on_c, 13, 62, 0
15, 253584, Note_on_c, 13, 58, 0
15, 253600, Note_on_c, 13, 62, 84
15, 253600, Note_on_c, 13, 58, 84
15, 253664, Note_on_c, 13, 62, 0
15, 253664, Note_on_c, 13, 58, 0
15, 253680, Note_on_c, 13, 62, 84
15, 253680, Note_on_c, 13, 58, 84
15, 253744, Note_on_c, 13, 62, 0
15, 253744, Note_on_c, 13, 58, 0
15, 253760, Note_on_c, 13, 62, 84
15, 253760, Note_on_c, 13, 58, 84
15, 253824, Note_on_c, 13, 62, 0
15, 253824, Note_on_c, 13, 58, 0
15, 253840, Note_on_c, 13, 58, 84
15, 253840, Note_on_c, 13, 62, 84
15, 253904, Note_on_c, 13, 58, 0
15, 253904, Note_on_c, 13, 62, 0
15, 253920, Note_on_c, 13, 62, 84
15, 253920, Note_on_c, 13, 58, 84
15, 253984, Note_on_c, 13, 62, 0
15, 253984, Note_on_c, 13, 58, 0
15, 254000, Note_on_c, 13, 62, 84
15, 254000, Note_on_c, 13, 58, 84
15, 254064, Note_on_c, 13, 62, 0
15, 254064, Note_on_c, 13, 58, 0
15, 254080, Note_on_c, 13, 62, 84
15, 254080, Note_on_c, 13, 58, 84
15, 254144, Note_on_c, 13, 62, 0
15, 254144, Note_on_c, 13, 58, 0
15, 254160, Note_on_c, 13, 62, 84
15, 254160, Note_on_c, 13, 58, 84
15, 254224, Note_on_c, 13, 62, 0
15, 254224, Note_on_c, 13, 58, 0
15, 254240, Note_on_c, 13, 62, 84
15, 254240, Note_on_c, 13, 58, 84
15, 254304, Note_on_c, 13, 62, 0
15, 254304, Note_on_c, 13, 58, 0
15, 254320, Note_on_c, 13, 58, 84
15, 254320, Note_on_c, 13, 62, 84
15, 254384, Note_on_c, 13, 58, 0
15, 254384, Note_on_c, 13, 62, 0
15, 254400, Note_on_c, 13, 58, 84
15, 254400, Note_on_c, 13, 62, 84
15, 254464, Note_on_c, 13, 58, 0
15, 254464, Note_on_c, 13, 62, 0
15, 254480, Note_on_c, 13, 62, 84
15, 254480, Note_on_c, 13, 58, 84
15, 254544, Note_on_c, 13, 62, 0
15, 254544, Note_on_c, 13, 58, 0
15, 254560, Note_on_c, 13, 62, 84
15, 254560, Note_on_c, 13, 58, 84
15, 254624, Note_on_c, 13, 62, 0
15, 254624, Note_on_c, 13, 58, 0
15, 254640, Note_on_c, 13, 58, 84
15, 254640, Note_on_c, 13, 62, 84
15, 254704, Note_on_c, 13, 58, 0
15, 254704, Note_on_c, 13, 62, 0
15, 254720, Note_on_c, 13, 62, 84
15, 254720, Note_on_c, 13, 58, 84
15, 254784, Note_on_c, 13, 62, 0
15, 254784, Note_on_c, 13, 58, 0
15, 254800, Note_on_c, 13, 58, 84
15, 254800, Note_on_c, 13, 62, 84
15, 254864, Note_on_c, 13, 58, 0
15, 254864, Note_on_c, 13, 62, 0
15, 254880, Note_on_c, 13, 58, 84
15, 254880, Note_on_c, 13, 62, 84
15, 254944, Note_on_c, 13, 58, 0
15, 254944, Note_on_c, 13, 62, 0
15, 254960, Note_on_c, 13, 58, 84
15, 254960, Note_on_c, 13, 62, 84
15, 255024, Note_on_c, 13, 58, 0
15, 255024, Note_on_c, 13, 62, 0
15, 255040, Note_on_c, 13, 62, 84
15, 255040, Note_on_c, 13, 58, 84
15, 255104, Note_on_c, 13, 62, 0
15, 255104, Note_on_c, 13, 58, 0
15, 255120, Note_on_c, 13, 58, 84
15, 255120, Note_on_c, 13, 62, 84
15, 255184, Note_on_c, 13, 58, 0
15, 255184, Note_on_c, 13, 62, 0
15, 255200, Note_on_c, 13, 58, 84
15, 255200, Note_on_c, 13, 62, 84
15, 255264, Note_on_c, 13, 58, 0
15, 255264, Note_on_c, 13, 62, 0
15, 255280, Note_on_c, 13, 58, 84
15, 255280, Note_on_c, 13, 62, 84
15, 255344, Note_on_c, 13, 58, 0
15, 255344, Note_on_c, 13, 62, 0
15, 255360, Note_on_c, 13, 62, 84
15, 255360, Note_on_c, 13, 58, 84
15, 255599, Note_on_c, 13, 62, 0
15, 255599, Note_on_c, 13, 58, 0
15, 256800, Note_on_c, 13, 58, 52
15, 256800, Note_on_c, 13, 62, 52
15, 256864, Note_on_c, 13, 58, 0
15, 256864, Note_on_c, 13, 62, 0
15, 256880, Note_on_c, 13, 62, 52
15, 256880, Note_on_c, 13, 58, 52
15, 256944, Note_on_c, 13, 62, 0
15, 256944, Note_on_c, 13, 58, 0
15, 256960, Note_on_c, 13, 62, 52
15, 256960, Note_on_c, 13, 58, 52
15, 257024, Note_on_c, 13, 62, 0
15, 257024, Note_on_c, 13, 58, 0
15, 257040, Note_on_c, 13, 58, 52
15, 257040, Note_on_c, 13, 62, 52
15, 257104, Note_on_c, 13, 58, 0
15, 257104, Note_on_c, 13, 62, 0
15, 257120, Note_on_c, 13, 58, 52
15, 257120, Note_on_c, 13, 62, 52
15, 257184, Note_on_c, 13, 58, 0
15, 257184, Note_on_c, 13, 62, 0
15, 257200, Note_on_c, 13, 58, 52
15, 257200, Note_on_c, 13, 62, 52
15, 257264, Note_on_c, 13, 58, 0
15, 257264, Note_on_c, 13, 62, 0
15, 257280, Note_on_c, 13, 62, 52
15, 257280, Note_on_c, 13, 58, 52
15, 257519, Note_on_c, 13, 62, 0
15, 257519, Note_on_c, 13, 58, 0
15, 260640, Note_on_c, 13, 62, 44
15, 260640, Note_on_c, 13, 58, 44
15, 260704, Note_on_c, 13, 62, 0
15, 260704, Note_on_c, 13, 58, 0
15, 260720, Note_on_c, 13, 62, 44
15, 260720, Note_on_c, 13, 58, 44
15, 260784, Note_on_c, 13, 62, 0
15, 260784, Note_on_c, 13, 58, 0
15, 260800, Note_on_c, 13, 62, 44
15, 260800, Note_on_c, 13, 58, 44
15, 260864, Note_on_c, 13, 62, 0
15, 260864, Note_on_c, 13, 58, 0
15, 260880, Note_on_c, 13, 62, 44
15, 260880, Note_on_c, 13, 58, 44
15, 260944, Note_on_c, 13, 62, 0
15, 260944, Note_on_c, 13, 58, 0
15, 260960, Note_on_c, 13, 58, 44
15, 260960, Note_on_c, 13, 62, 44
15, 261024, Note_on_c, 13, 58, 0
15, 261024, Note_on_c, 13, 62, 0
15, 261040, Note_on_c, 13, 58, 44
15, 261040, Note_on_c, 13, 62, 44
15, 261104, Note_on_c, 13, 58, 0
15, 261104, Note_on_c, 13, 62, 0
15, 261120, Note_on_c, 13, 62, 44
15, 261120, Note_on_c, 13, 58, 44
15, 261359, Note_on_c, 13, 62, 0
15, 261359, Note_on_c, 13, 58, 0
15, 263520, Note_on_c, 13, 62, 44
15, 263520, Note_on_c, 13, 58, 44
15, 263639, Note_on_c, 13, 62, 0
15, 263639, Note_on_c, 13, 58, 0
15, 263640, Note_on_c, 13, 60, 44
15, 263640, Note_on_c, 13, 63, 44
15, 263739, Note_on_c, 13, 60, 0
15, 263739, Note_on_c, 13, 63, 0
15, 263760, Note_on_c, 13, 53, 44
15, 263760, Note_on_c, 13, 60, 44
15, 263919, Note_on_c, 13, 53, 0
15, 263919, Note_on_c, 13, 60, 0
15, 265440, Note_on_c, 13, 63, 44
15, 265440, Note_on_c, 13, 60, 44
15, 265559, Note_on_c, 13, 63, 0
15, 265559, Note_on_c, 13, 60, 0
15, 265560, Note_on_c, 13, 65, 44
15, 265560, Note_on_c, 13, 62, 44
15, 265659, Note_on_c, 13, 65, 0
15, 265659, Note_on_c, 13, 62, 0
15, 265680, Note_on_c, 13, 58, 44
15, 265680, Note_on_c, 13, 62, 44
15, 265839, Note_on_c, 13, 58, 0
15, 265839, Note_on_c, 13, 62, 0
15, 266400, Note_on_c, 13, 74, 44
15, 266464, Note_on_c, 13, 74, 0
15, 266480, Note_on_c, 13, 74, 44
15, 266544, Note_on_c, 13, 74, 0
15, 266560, Note_on_c, 13, 74, 44
15, 266624, Note_on_c, 13, 74, 0
15, 266640, Note_on_c, 13, 74, 44
15, 266704, Note_on_c, 13, 74, 0
15, 266720, Note_on_c, 13, 74, 44
15, 266784, Note_on_c, 13, 74, 0
15, 266800, Note_on_c, 13, 74, 44
15, 266864, Note_on_c, 13, 74, 0
15, 266880, Note_on_c, 13, 74, 44
15, 266999, Note_on_c, 13, 74, 0
15, 267000, Note_on_c, 13, 75, 44
15, 267099, Note_on_c, 13, 75, 0
15, 267120, Note_on_c, 13, 72, 44
15, 267279, Note_on_c, 13, 72, 0
15, 267360, Note_on_c, 13, 75, 44
15, 267424, Note_on_c, 13, 75, 0
15, 267440, Note_on_c, 13, 75, 44
15, 267504, Note_on_c, 13, 75, 0
15, 267520, Note_on_c, 13, 75, 44
15, 267584, Note_on_c, 13, 75, 0
15, 267600, Note_on_c, 13, 75, 44
15, 267664, Note_on_c, 13, 75, 0
15, 267680, Note_on_c, 13, 75, 44
15, 267744, Note_on_c, 13, 75, 0
15, 267760, Note_on_c, 13, 75, 44
15, 267824, Note_on_c, 13, 75, 0
15, 267840, Note_on_c, 13, 75, 44
15, 267959, Note_on_c, 13, 75, 0
15, 267960, Note_on_c, 13, 77, 44
15, 268059, Note_on_c, 13, 77, 0
15, 268080, Note_on_c, 13, 74, 44
15, 268239, Note_on_c, 13, 74, 0
15, 269280, Note_on_c, 13, 65, 44
15, 269344, Note_on_c, 13, 65, 0
15, 269360, Note_on_c, 13, 65, 44
15, 269424, Note_on_c, 13, 65, 0
15, 269440, Note_on_c, 13, 65, 44
15, 269504, Note_on_c, 13, 65, 0
15, 269520, Note_on_c, 13, 65, 44
15, 269584, Note_on_c, 13, 65, 0
15, 269600, Note_on_c, 13, 65, 44
15, 269664, Note_on_c, 13, 65, 0
15, 269680, Note_on_c, 13, 65, 44
15, 269744, Note_on_c, 13, 65, 0
15, 269760, Note_on_c, 13, 65, 44
15, 269879, Note_on_c, 13, 65, 0
15, 269880, Note_on_c, 13, 67, 44
15, 269979, Note_on_c, 13, 67, 0
15, 270000, Note_on_c, 13, 64, 44
15, 270159, Note_on_c, 13, 64, 0
15, 288480, Note_on_c, 13, 53, 44
15, 288544, Note_on_c, 13, 53, 0
15, 288560, Note_on_c, 13, 53, 44
15, 288624, Note_on_c, 13, 53, 0
15, 288640, Note_on_c, 13, 53, 44
15, 288704, Note_on_c, 13, 53, 0
15, 288720, Note_on_c, 13, 53, 44
15, 288784, Note_on_c, 13, 53, 0
15, 288800, Note_on_c, 13, 53, 44
15, 288864, Note_on_c, 13, 53, 0
15, 288880, Note_on_c, 13, 53, 44
15, 288944, Note_on_c, 13, 53, 0
15, 288960, Note_on_c, 13, 53, 44
15, 289199, Note_on_c, 13, 53, 0
15, 292320, Note_on_c, 13, 55, 44
15, 292384, Note_on_c, 13, 55, 0
15, 292400, Note_on_c, 13, 55, 44
15, 292464, Note_on_c, 13, 55, 0
15, 292480, Note_on_c, 13, 55, 44
15, 292544, Note_on_c, 13, 55, 0
15, 292560, Note_on_c, 13, 55, 44
15, 292624, Note_on_c, 13, 55, 0
15, 292640, Note_on_c, 13, 55, 44
15, 292704, Note_on_c, 13, 55, 0
15, 292720, Note_on_c, 13, 55, 44
15, 292784, Note_on_c, 13, 55, 0
15, 292800, Note_on_c, 13, 55, 44
15, 293039, Note_on_c, 13, 55, 0
15, 296160, Note_on_c, 13, 55, 52
15, 296224, Note_on_c, 13, 55, 0
15, 296240, Note_on_c, 13, 55, 52
15, 296304, Note_on_c, 13, 55, 0
15, 296320, Note_on_c, 13, 55, 52
15, 296384, Note_on_c, 13, 55, 0
15, 296400, Note_on_c, 13, 55, 53
15, 296464, Note_on_c, 13, 55, 0
15, 296480, Note_on_c, 13, 55, 53
15, 296544, Note_on_c, 13, 55, 0
15, 296560, Note_on_c, 13, 55, 53
15, 296624, Note_on_c, 13, 55, 0
15, 296640, Note_on_c, 13, 56, 54
15, 296879, Note_on_c, 13, 56, 0
15, 297120, Note_on_c, 13, 57, 56
15, 297184, Note_on_c, 13, 57, 0
15, 297200, Note_on_c, 13, 57, 56
15, 297264, Note_on_c, 13, 57, 0
15, 297280, Note_on_c, 13, 57, 56
15, 297344, Note_on_c, 13, 57, 0
15, 297360, Note_on_c, 13, 57, 57
15, 297424, Note_on_c, 13, 57, 0
15, 297440, Note_on_c, 13, 57, 57
15, 297504, Note_on_c, 13, 57, 0
15, 297520, Note_on_c, 13, 57, 57
15, 297584, Note_on_c, 13, 57, 0
15, 297600, Note_on_c, 13, 50, 58
15, 297839, Note_on_c, 13, 50, 0
15, 300000, Note_on_c, 13, 53, 68
15, 300064, Note_on_c, 13, 53, 0
15, 300080, Note_on_c, 13, 53, 68
15, 300144, Note_on_c, 13, 53, 0
15, 300160, Note_on_c, 13, 53, 68
15, 300224, Note_on_c, 13, 53, 0
15, 300240, Note_on_c, 13, 53, 69
15, 300304, Note_on_c, 13, 53, 0
15, 300320, Note_on_c, 13, 53, 69
15, 300384, Note_on_c, 13, 53, 0
15, 300400, Note_on_c, 13, 53, 69
15, 300464, Note_on_c, 13, 53, 0
15, 300480, Note_on_c, 13, 55, 70
15, 300719, Note_on_c, 13, 55, 0
15, 300960, Note_on_c, 13, 55, 72
15, 301024, Note_on_c, 13, 55, 0
15, 301040, Note_on_c, 13, 55, 72
15, 301104, Note_on_c, 13, 55, 0
15, 301120, Note_on_c, 13, 55, 72
15, 301184, Note_on_c, 13, 55, 0
15, 301200, Note_on_c, 13, 55, 73
15, 301264, Note_on_c, 13, 55, 0
15, 301280, Note_on_c, 13, 55, 73
15, 301344, Note_on_c, 13, 55, 0
15, 301360, Note_on_c, 13, 55, 73
15, 301424, Note_on_c, 13, 55, 0
15, 301440, Note_on_c, 13, 48, 74
15, 301679, Note_on_c, 13, 48, 0
15, 301920, Note_on_c, 13, 69, 76
15, 302319, Note_on_c, 13, 69, 0
15, 302400, Note_on_c, 13, 70, 76
15, 302799, Note_on_c, 13, 70, 0
15, 302880, Note_on_c, 13, 65, 76
15, 303279, Note_on_c, 13, 65, 0
15, 303360, Note_on_c, 13, 65, 76
15, 303759, Note_on_c, 13, 65, 0
15, 303840, Note_on_c, 13, 63, 76
15, 304239, Note_on_c, 13, 63, 0
15, 304320, Note_on_c, 13, 61, 76
15, 304719, Note_on_c, 13, 61, 0
15, 304800, Note_on_c, 13, 59, 76
15, 305199, Note_on_c, 13, 59, 0
15, 305280, Note_on_c, 13, 58, 76
15, 305679, Note_on_c, 13, 58, 0
15, 305760, Note_on_c, 13, 67, 76
15, 306159, Note_on_c, 13, 67, 0
15, 306240, Note_on_c, 13, 68, 76
15, 306639, Note_on_c, 13, 68, 0
15, 306720, Note_on_c, 13, 63, 76
15, 307119, Note_on_c, 13, 63, 0
15, 307200, Note_on_c, 13, 63, 76
15, 307599, Note_on_c, 13, 63, 0
15, 307680, Note_on_c, 13, 61, 76
15, 308079, Note_on_c, 13, 61, 0
15, 308160, Note_on_c, 13, 60, 76
15, 308559, Note_on_c, 13, 60, 0
15, 308640, Note_on_c, 13, 68, 76
15, 309039, Note_on_c, 13, 68, 0
15, 309120, Note_on_c, 13, 68, 76
15, 309519, Note_on_c, 13, 68, 0
15, 309600, Note_on_c, 13, 53, 76
15, 309999, Note_on_c, 13, 53, 0
15, 310080, Note_on_c, 13, 55, 76
15, 310479, Note_on_c, 13, 55, 0
15, 310560, Note_on_c, 13, 56, 76
15, 310959, Note_on_c, 13, 56, 0
15, 311040, Note_on_c, 13, 58, 76
15, 311439, Note_on_c, 13, 58, 0
15, 311520, Note_on_c, 13, 60, 76
15, 311919, Note_on_c, 13, 60, 0
15, 312000, Note_on_c, 13, 61, 76
15, 312399, Note_on_c, 13, 61, 0
15, 312480, Note_on_c, 13, 68, 76
15, 312879, Note_on_c, 13, 68, 0
15, 312960, Note_on_c, 13, 67, 76
15, 313359, Note_on_c, 13, 67, 0
15, 313440, Note_on_c, 13, 52, 76
15, 313839, Note_on_c, 13, 52, 0
15, 313920, Note_on_c, 13, 53, 76
15, 314319, Note_on_c, 13, 53, 0
15, 314400, Note_on_c, 13, 55, 76
15, 314799, Note_on_c, 13, 55, 0
15, 314880, Note_on_c, 13, 56, 76
15, 315279, Note_on_c, 13, 56, 0
15, 315360, Note_on_c, 13, 58, 76
15, 315759, Note_on_c, 13, 58, 0
15, 315840, Note_on_c, 13, 60, 76
15, 316239, Note_on_c, 13, 60, 0
15, 316320, Note_on_c, 13, 60, 76
15, 316719, Note_on_c, 13, 60, 0
15, 316800, Note_on_c, 13, 62, 76
15, 317199, Note_on_c, 13, 62, 0
15, 317280, Note_on_c, 13, 58, 76
15, 317679, Note_on_c, 13, 58, 0
15, 317760, Note_on_c, 13, 58, 76
15, 318159, Note_on_c, 13, 58, 0
15, 318240, Note_on_c, 13, 56, 76
15, 318639, Note_on_c, 13, 56, 0
15, 318720, Note_on_c, 13, 55, 76
15, 319119, Note_on_c, 13, 55, 0
15, 319200, Note_on_c, 13, 56, 76
15, 319599, Note_on_c, 13, 56, 0
15, 319680, Note_on_c, 13, 58, 76
15, 320079, Note_on_c, 13, 58, 0
15, 320160, Note_on_c, 13, 59, 76
15, 320559, Note_on_c, 13, 59, 0
15, 320640, Note_on_c, 13, 64, 76
15, 321039, Note_on_c, 13, 64, 0
15, 321120, Note_on_c, 13, 69, 76
15, 321519, Note_on_c, 13, 69, 0
15, 321600, Note_on_c, 13, 57, 76
15, 321999, Note_on_c, 13, 57, 0
15, 322080, Note_on_c, 13, 55, 76
15, 322479, Note_on_c, 13, 55, 0
15, 322560, Note_on_c, 13, 53, 76
15, 322779, Note_on_c, 13, 53, 0
15, 322800, Note_on_c, 13, 55, 76
15, 323019, Note_on_c, 13, 55, 0
15, 323040, Note_on_c, 13, 57, 76
15, 323259, Note_on_c, 13, 57, 0
15, 323280, Note_on_c, 13, 62, 76
15, 323499, Note_on_c, 13, 62, 0
15, 323520, Note_on_c, 13, 62, 76
15, 323739, Note_on_c, 13, 62, 0
15, 323760, Note_on_c, 13, 67, 76
15, 323979, Note_on_c, 13, 67, 0
15, 324000, Note_on_c, 13, 67, 76
15, 324219, Note_on_c, 13, 67, 0
15, 324240, Note_on_c, 13, 55, 76
15, 324459, Note_on_c, 13, 55, 0
15, 324480, Note_on_c, 13, 55, 76
15, 324699, Note_on_c, 13, 55, 0
15, 324720, Note_on_c, 13, 53, 76
15, 324939, Note_on_c, 13, 53, 0
15, 324960, Note_on_c, 13, 55, 76
15, 325179, Note_on_c, 13, 55, 0
15, 325200, Note_on_c, 13, 67, 76
15, 325419, Note_on_c, 13, 67, 0
15, 325440, Note_on_c, 13, 65, 76
15, 325659, Note_on_c, 13, 65, 0
15, 325680, Note_on_c, 13, 53, 76
15, 325899, Note_on_c, 13, 53, 0
15, 325920, Note_on_c, 13, 53, 76
15, 326139, Note_on_c, 13, 53, 0
15, 326160, Note_on_c, 13, 51, 76
15, 326379, Note_on_c, 13, 51, 0
15, 326400, Note_on_c, 13, 50, 76
15, 326619, Note_on_c, 13, 50, 0
15, 326640, Note_on_c, 13, 60, 76
15, 326859, Note_on_c, 13, 60, 0
15, 326880, Note_on_c, 13, 58, 76
15, 327099, Note_on_c, 13, 58, 0
15, 327120, Note_on_c, 13, 57, 76
15, 327339, Note_on_c, 13, 57, 0
15, 327360, Note_on_c, 13, 55, 76
15, 327579, Note_on_c, 13, 55, 0
15, 327600, Note_on_c, 13, 53, 76
15, 327819, Note_on_c, 13, 53, 0
15, 327840, Note_on_c, 13, 52, 76
15, 328059, Note_on_c, 13, 52, 0
15, 328080, Note_on_c, 13, 50, 76
15, 328299, Note_on_c, 13, 50, 0
15, 328320, Note_on_c, 13, 49, 76
15, 328384, Note_on_c, 13, 49, 0
15, 328400, Note_on_c, 13, 57, 76
15, 328464, Note_on_c, 13, 57, 0
15, 328480, Note_on_c, 13, 57, 76
15, 328544, Note_on_c, 13, 57, 0
15, 328560, Note_on_c, 13, 57, 76
15, 328624, Note_on_c, 13, 57, 0
15, 328640, Note_on_c, 13, 57, 76
15, 328704, Note_on_c, 13, 57, 0
15, 328720, Note_on_c, 13, 57, 76
15, 328784, Note_on_c, 13, 57, 0
15, 328800, Note_on_c, 13, 57, 76
15, 328864, Note_on_c, 13, 57, 0
15, 328880, Note_on_c, 13, 57, 76
15, 328944, Note_on_c, 13, 57, 0
15, 328960, Note_on_c, 13, 57, 76
15, 329024, Note_on_c, 13, 57, 0
15, 329040, Note_on_c, 13, 57, 76
15, 329104, Note_on_c, 13, 57, 0
15, 329120, Note_on_c, 13, 57, 76
15, 329184, Note_on_c, 13, 57, 0
15, 329200, Note_on_c, 13, 57, 76
15, 329264, Note_on_c, 13, 57, 0
15, 329280, Note_on_c, 13, 57, 76
15, 329344, Note_on_c, 13, 57, 0
15, 329360, Note_on_c, 13, 57, 76
15, 329424, Note_on_c, 13, 57, 0
15, 329440, Note_on_c, 13, 57, 76
15, 329504, Note_on_c, 13, 57, 0
15, 329520, Note_on_c, 13, 57, 76
15, 329584, Note_on_c, 13, 57, 0
15, 329600, Note_on_c, 13, 57, 76
15, 329664, Note_on_c, 13, 57, 0
15, 329680, Note_on_c, 13, 57, 76
15, 329744, Note_on_c, 13, 57, 0
15, 329760, Note_on_c, 13, 57, 76
15, 329824, Note_on_c, 13, 57, 0
15, 329840, Note_on_c, 13, 57, 76
15, 329904, Note_on_c, 13, 57, 0
15, 329920, Note_on_c, 13, 57, 76
15, 329984, Note_on_c, 13, 57, 0
15, 330000, Note_on_c, 13, 57, 76
15, 330064, Note_on_c, 13, 57, 0
15, 330080, Note_on_c, 13, 57, 76
15, 330144, Note_on_c, 13, 57, 0
15, 330160, Note_on_c, 13, 57, 76
15, 330224, Note_on_c, 13, 57, 0
15, 330240, Note_on_c, 13, 57, 76
15, 330304, Note_on_c, 13, 57, 0
15, 330320, Note_on_c, 13, 57, 76
15, 330384, Note_on_c, 13, 57, 0
15, 330400, Note_on_c, 13, 57, 76
15, 330464, Note_on_c, 13, 57, 0
15, 330480, Note_on_c, 13, 57, 76
15, 330544, Note_on_c, 13, 57, 0
15, 330560, Note_on_c, 13, 57, 76
15, 330624, Note_on_c, 13, 57, 0
15, 330640, Note_on_c, 13, 57, 76
15, 330704, Note_on_c, 13, 57, 0
15, 330720, Note_on_c, 13, 57, 76
15, 330784, Note_on_c, 13, 57, 0
15, 330800, Note_on_c, 13, 57, 76
15, 330864, Note_on_c, 13, 57, 0
15, 330880, Note_on_c, 13, 57, 76
15, 330944, Note_on_c, 13, 57, 0
15, 330960, Note_on_c, 13, 57, 76
15, 331024, Note_on_c, 13, 57, 0
15, 331040, Note_on_c, 13, 57, 76
15, 331104, Note_on_c, 13, 57, 0
15, 331120, Note_on_c, 13, 57, 76
15, 331184, Note_on_c, 13, 57, 0
15, 331200, Note_on_c, 13, 57, 76
15, 331264, Note_on_c, 13, 57, 0
15, 331280, Note_on_c, 13, 57, 76
15, 331344, Note_on_c, 13, 57, 0
15, 331360, Note_on_c, 13, 57, 76
15, 331424, Note_on_c, 13, 57, 0
15, 331440, Note_on_c, 13, 57, 76
15, 331504, Note_on_c, 13, 57, 0
15, 331520, Note_on_c, 13, 57, 76
15, 331584, Note_on_c, 13, 57, 0
15, 331600, Note_on_c, 13, 57, 76
15, 331664, Note_on_c, 13, 57, 0
15, 331680, Note_on_c, 13, 66, 76
15, 331680, Note_on_c, 13, 62, 76
15, 331744, Note_on_c, 13, 66, 0
15, 331744, Note_on_c, 13, 62, 0
15, 331760, Note_on_c, 13, 62, 76
15, 331760, Note_on_c, 13, 66, 76
15, 331824, Note_on_c, 13, 62, 0
15, 331824, Note_on_c, 13, 66, 0
15, 331840, Note_on_c, 13, 62, 76
15, 331840, Note_on_c, 13, 66, 76
15, 331904, Note_on_c, 13, 62, 0
15, 331904, Note_on_c, 13, 66, 0
15, 331920, Note_on_c, 13, 62, 76
15, 331920, Note_on_c, 13, 66, 76
15, 331984, Note_on_c, 13, 62, 0
15, 331984, Note_on_c, 13, 66, 0
15, 332000, Note_on_c, 13, 62, 76
15, 332000, Note_on_c, 13, 66, 76
15, 332064, Note_on_c, 13, 62, 0
15, 332064, Note_on_c, 13, 66, 0
15, 332080, Note_on_c, 13, 66, 76
15, 332080, Note_on_c, 13, 62, 76
15, 332144, Note_on_c, 13, 66, 0
15, 332144, Note_on_c, 13, 62, 0
15, 332160, Note_on_c, 13, 66, 76
15, 332160, Note_on_c, 13, 62, 76
15, 332279, Note_on_c, 13, 66, 0
15, 332279, Note_on_c, 13, 62, 0
15, 332280, Note_on_c, 13, 67, 76
15, 332280, Note_on_c, 13, 64, 76
15, 332379, Note_on_c, 13, 67, 0
15, 332379, Note_on_c, 13, 64, 0
15, 332400, Note_on_c, 13, 57, 76
15, 332400, Note_on_c, 13, 64, 76
15, 332559, Note_on_c, 13, 57, 0
15, 332559, Note_on_c, 13, 64, 0
15, 332640, Note_on_c, 13, 62, 76
15, 332640, Note_on_c, 13, 66, 76
15, 332759, Note_on_c, 13, 62, 0
15, 332759, Note_on_c, 13, 66, 0
15, 332760, Note_on_c, 13, 64, 76
15, 332760, Note_on_c, 13, 67, 76
15, 332859, Note_on_c, 13, 64, 0
15, 332859, Note_on_c, 13, 67, 0
15, 332880, Note_on_c, 13, 57, 76
15, 332880, Note_on_c, 13, 64, 76
15, 333039, Note_on_c, 13, 57, 0
15, 333039, Note_on_c, 13, 64, 0
15, 333120, Note_on_c, 13, 66, 76
15, 333120, Note_on_c, 13, 62, 76
15, 333239, Note_on_c, 13, 66, 0
15, 333239, Note_on_c, 13, 62, 0
15, 333240, Note_on_c, 13, 64, 76
15, 333240, Note_on_c, 13, 67, 76
15, 333339, Note_on_c, 13, 64, 0
15, 333339, Note_on_c, 13, 67, 0
15, 333360, Note_on_c, 13, 57, 76
15, 333360, Note_on_c, 13, 64, 76
15, 333519, Note_on_c, 13, 57, 0
15, 333519, Note_on_c, 13, 64, 0
15, 333600, Note_on_c, 13, 67, 76
15, 333600, Note_on_c, 13, 64, 76
15, 333664, Note_on_c, 13, 67, 0
15, 333664, Note_on_c, 13, 64, 0
15, 333680, Note_on_c, 13, 64, 76
15, 333680, Note_on_c, 13, 67, 76
15, 333744, Note_on_c, 13, 64, 0
15, 333744, Note_on_c, 13, 67, 0
15, 333760, Note_on_c, 13, 67, 76
15, 333760, Note_on_c, 13, 64, 76
15, 333824, Note_on_c, 13, 67, 0
15, 333824, Note_on_c, 13, 64, 0
15, 333840, Note_on_c, 13, 64, 76
15, 333840, Note_on_c, 13, 67, 76
15, 333904, Note_on_c, 13, 64, 0
15, 333904, Note_on_c, 13, 67, 0
15, 333920, Note_on_c, 13, 67, 76
15, 333920, Note_on_c, 13, 64, 76
15, 333984, Note_on_c, 13, 67, 0
15, 333984, Note_on_c, 13, 64, 0
15, 334000, Note_on_c, 13, 67, 76
15, 334000, Note_on_c, 13, 64, 76
15, 334064, Note_on_c, 13, 67, 0
15, 334064, Note_on_c, 13, 64, 0
15, 334080, Note_on_c, 13, 67, 76
15, 334080, Note_on_c, 13, 64, 76
15, 334199, Note_on_c, 13, 67, 0
15, 334199, Note_on_c, 13, 64, 0
15, 334200, Note_on_c, 13, 66, 76
15, 334200, Note_on_c, 13, 69, 76
15, 334299, Note_on_c, 13, 66, 0
15, 334299, Note_on_c, 13, 69, 0
15, 334320, Note_on_c, 13, 66, 76
15, 334320, Note_on_c, 13, 62, 76
15, 334479, Note_on_c, 13, 66, 0
15, 334479, Note_on_c, 13, 62, 0
15, 334560, Note_on_c, 13, 67, 76
15, 334560, Note_on_c, 13, 64, 76
15, 334679, Note_on_c, 13, 67, 0
15, 334679, Note_on_c, 13, 64, 0
15, 334680, Note_on_c, 13, 66, 76
15, 334680, Note_on_c, 13, 69, 76
15, 334779, Note_on_c, 13, 66, 0
15, 334779, Note_on_c, 13, 69, 0
15, 334800, Note_on_c, 13, 66, 76
15, 334800, Note_on_c, 13, 62, 76
15, 334959, Note_on_c, 13, 66, 0
15, 334959, Note_on_c, 13, 62, 0
15, 335040, Note_on_c, 13, 67, 76
15, 335040, Note_on_c, 13, 64, 76
15, 335159, Note_on_c, 13, 67, 0
15, 335159, Note_on_c, 13, 64, 0
15, 335160, Note_on_c, 13, 66, 76
15, 335160, Note_on_c, 13, 69, 76
15, 335259, Note_on_c, 13, 66, 0
15, 335259, Note_on_c, 13, 69, 0
15, 335280, Note_on_c, 13, 66, 76
15, 335280, Note_on_c, 13, 62, 76
15, 335439, Note_on_c, 13, 66, 0
15, 335439, Note_on_c, 13, 62, 0
15, 335520, Note_on_c, 13, 57, 52
15, 335679, Note_on_c, 13, 57, 0
15, 335760, Note_on_c, 13, 69, 52
15, 335919, Note_on_c, 13, 69, 0
15, 336000, Note_on_c, 13, 57, 52
15, 336159, Note_on_c, 13, 57, 0
15, 336240, Note_on_c, 13, 69, 52
15, 336399, Note_on_c, 13, 69, 0
15, 336480, Note_on_c, 13, 57, 52
15, 336639, Note_on_c, 13, 57, 0
15, 336720, Note_on_c, 13, 69, 52
15, 336879, Note_on_c, 13, 69, 0
15, 336960, Note_on_c, 13, 57, 52
15, 337119, Note_on_c, 13, 57, 0
15, 337200, Note_on_c, 13, 69, 52
15, 337359, Note_on_c, 13, 69, 0
15, 342240, Note_on_c, 13, 53, 44
15, 342240, Note_on_c, 13, 57, 44
15, 342359, Note_on_c, 13, 53, 0
15, 342359, Note_on_c, 13, 57, 0
15, 342360, Note_on_c, 13, 58, 44
15, 342360, Note_on_c, 13, 55, 44
15, 342459, Note_on_c, 13, 58, 0
15, 342459, Note_on_c, 13, 55, 0
15, 342480, Note_on_c, 13, 55, 44
15, 342480, Note_on_c, 13, 48, 44
15, 342719, Note_on_c, 13, 55, 0
15, 342719, Note_on_c, 13, 48, 0
15, 344160, Note_on_c, 13, 55, 44
15, 344160, Note_on_c, 13, 58, 44
15, 344279, Note_on_c, 13, 55, 0
15, 344279, Note_on_c, 13, 58, 0
15, 344280, Note_on_c, 13, 60, 44
15, 344280, Note_on_c, 13, 57, 44
15, 344379, Note_on_c, 13, 60, 0
15, 344379, Note_on_c, 13, 57, 0
15, 344400, Note_on_c, 13, 57, 44
15, 344400, Note_on_c, 13, 53, 44
15, 344559, Note_on_c, 13, 57, 0
15, 344559, Note_on_c, 13, 53, 0
15, 345120, Note_on_c, 13, 57, 44
15, 345599, Note_on_c, 13, 57, 0
15, 345600, Note_on_c, 13, 58, 44
15, 346079, Note_on_c, 13, 58, 0
15, 346080, Note_on_c, 13, 57, 44
15, 346559, Note_on_c, 13, 57, 0
15, 346560, Note_on_c, 13, 55, 44
15, 347279, Note_on_c, 13, 55, 0
15, 347280, Note_on_c, 13, 57, 44
15, 347519, Note_on_c, 13, 57, 0
15, 347520, Note_on_c, 13, 58, 44
15, 348239, Note_on_c, 13, 58, 0
15, 348240, Note_on_c, 13, 60, 44
15, 348479, Note_on_c, 13, 60, 0
15, 348480, Note_on_c, 13, 62, 44
15, 348719, Note_on_c, 13, 62, 0
15, 348720, Note_on_c, 13, 60, 44
15, 349919, Note_on_c, 13, 60, 0
15, 349920, Note_on_c, 13, 59, 44
15, 350399, Note_on_c, 13, 59, 0
15, 350400, Note_on_c, 13, 60, 44
15, 350859, Note_on_c, 13, 60, 0
15, 350880, Note_on_c, 13, 55, 44
15, 350880, Note_on_c, 13, 62, 44
15, 350944, Note_on_c, 13, 55, 0
15, 350944, Note_on_c, 13, 62, 0
15, 350960, Note_on_c, 13, 62, 44
15, 350960, Note_on_c, 13, 55, 44
15, 351024, Note_on_c, 13, 62, 0
15, 351024, Note_on_c, 13, 55, 0
15, 351040, Note_on_c, 13, 55, 44
15, 351040, Note_on_c, 13, 62, 44
15, 351104, Note_on_c, 13, 55, 0
15, 351104, Note_on_c, 13, 62, 0
15, 351120, Note_on_c, 13, 62, 44
15, 351120, Note_on_c, 13, 55, 44
15, 351184, Note_on_c, 13, 62, 0
15, 351184, Note_on_c, 13, 55, 0
15, 351200, Note_on_c, 13, 55, 44
15, 351200, Note_on_c, 13, 62, 44
15, 351264, Note_on_c, 13, 55, 0
15, 351264, Note_on_c, 13, 62, 0
15, 351280, Note_on_c, 13, 62, 44
15, 351280, Note_on_c, 13, 55, 44
15, 351344, Note_on_c, 13, 62, 0
15, 351344, Note_on_c, 13, 55, 0
15, 351360, Note_on_c, 13, 62, 44
15, 351360, Note_on_c, 13, 55, 44
15, 351479, Note_on_c, 13, 62, 0
15, 351479, Note_on_c, 13, 55, 0
15, 351480, Note_on_c, 13, 60, 44
15, 351480, Note_on_c, 13, 64, 44
15, 351579, Note_on_c, 13, 60, 0
15, 351579, Note_on_c, 13, 64, 0
15, 351600, Note_on_c, 13, 52, 44
15, 351600, Note_on_c, 13, 60, 44
15, 351759, Note_on_c, 13, 52, 0
15, 351759, Note_on_c, 13, 60, 0
15, 351840, Note_on_c, 13, 62, 44
15, 352319, Note_on_c, 13, 62, 0
15, 352320, Note_on_c, 13, 55, 44
15, 352779, Note_on_c, 13, 55, 0
15, 352800, Note_on_c, 13, 62, 44
15, 352800, Note_on_c, 13, 55, 44
15, 352864, Note_on_c, 13, 62, 0
15, 352864, Note_on_c, 13, 55, 0
15, 352880, Note_on_c, 13, 55, 44
15, 352880, Note_on_c, 13, 62, 44
15, 352944, Note_on_c, 13, 55, 0
15, 352944, Note_on_c, 13, 62, 0
15, 352960, Note_on_c, 13, 62, 44
15, 352960, Note_on_c, 13, 55, 44
15, 353024, Note_on_c, 13, 62, 0
15, 353024, Note_on_c, 13, 55, 0
15, 353040, Note_on_c, 13, 55, 44
15, 353040, Note_on_c, 13, 62, 44
15, 353104, Note_on_c, 13, 55, 0
15, 353104, Note_on_c, 13, 62, 0
15, 353120, Note_on_c, 13, 62, 43
15, 353120, Note_on_c, 13, 55, 43
15, 353184, Note_on_c, 13, 62, 0
15, 353184, Note_on_c, 13, 55, 0
15, 353200, Note_on_c, 13, 55, 43
15, 353200, Note_on_c, 13, 62, 43
15, 353264, Note_on_c, 13, 55, 0
15, 353264, Note_on_c, 13, 62, 0
15, 353280, Note_on_c, 13, 55, 43
15, 353280, Note_on_c, 13, 62, 43
15, 353399, Note_on_c, 13, 55, 0
15, 353399, Note_on_c, 13, 62, 0
15, 353400, Note_on_c, 13, 64, 42
15, 353400, Note_on_c, 13, 60, 42
15, 353499, Note_on_c, 13, 64, 0
15, 353499, Note_on_c, 13, 60, 0
15, 353520, Note_on_c, 13, 52, 42
15, 353520, Note_on_c, 13, 60, 42
15, 353679, Note_on_c, 13, 52, 0
15, 353679, Note_on_c, 13, 60, 0
15, 353760, Note_on_c, 13, 59, 41
15, 353879, Note_on_c, 13, 59, 0
15, 353880, Note_on_c, 13, 60, 41
15, 353979, Note_on_c, 13, 60, 0
15, 354000, Note_on_c, 13, 55, 40
15, 354159, Note_on_c, 13, 55, 0
15, 354240, Note_on_c, 13, 53, 40
15, 354359, Note_on_c, 13, 53, 0
15, 354360, Note_on_c, 13, 55, 39
15, 354459, Note_on_c, 13, 55, 0
15, 354480, Note_on_c, 13, 52, 39
15, 354639, Note_on_c, 13, 52, 0
15, 354720, Note_on_c, 13, 50, 38
15, 354839, Note_on_c, 13, 50, 0
15, 354840, Note_on_c, 13, 52, 38
15, 354939, Note_on_c, 13, 52, 0
15, 354960, Note_on_c, 13, 48, 37
15, 355119, Note_on_c, 13, 48, 0
15, 355200, Note_on_c, 13, 50, 36
15, 355319, Note_on_c, 13, 50, 0
15, 355320, Note_on_c, 13, 52, 44
15, 355419, Note_on_c, 13, 52, 0
15, 355440, Note_on_c, 13, 48, 44
15, 355599, Note_on_c, 13, 48, 0
15, 356160, Note_on_c, 13, 50, 44
15, 356279, Note_on_c, 13, 50, 0
15, 356280, Note_on_c, 13, 52, 44
15, 356379, Note_on_c, 13, 52, 0
15, 356400, Note_on_c, 13, 48, 44
15, 356559, Note_on_c, 13, 48, 0
15, 357120, Note_on_c, 13, 50, 44
15, 357239, Note_on_c, 13, 50, 0
15, 357240, Note_on_c, 13, 52, 44
15, 357339, Note_on_c, 13, 52, 0
15, 357360, Note_on_c, 13, 48, 44
15, 357519, Note_on_c, 13, 48, 0
15, 357600, Note_on_c, 13, 49, 84
15, 358559, Note_on_c, 13, 49, 0
15, 359520, Note_on_c, 13, 49, 84
15, 360479, Note_on_c, 13, 49, 0
15, 361440, Note_on_c, 13, 49, 84
15, 362379, Note_on_c, 13, 49, 0
15, 362400, Note_on_c, 13, 49, 84
15, 363339, Note_on_c, 13, 49, 0
15, 363360, Note_on_c, 13, 49, 84
15, 364299, Note_on_c, 13, 49, 0
15, 364320, Note_on_c, 13, 54, 84
15, 364384, Note_on_c, 13, 54, 0
15, 364400, Note_on_c, 13, 54, 84
15, 364464, Note_on_c, 13, 54, 0
15, 364480, Note_on_c, 13, 54, 84
15, 364544, Note_on_c, 13, 54, 0
15, 364560, Note_on_c, 13, 66, 84
15, 364624, Note_on_c, 13, 66, 0
15, 364640, Note_on_c, 13, 66, 84
15, 364704, Note_on_c, 13, 66, 0
15, 364720, Note_on_c, 13, 66, 84
15, 364784, Note_on_c, 13, 66, 0
15, 364800, Note_on_c, 13, 54, 84
15, 364864, Note_on_c, 13, 54, 0
15, 364880, Note_on_c, 13, 54, 84
15, 364944, Note_on_c, 13, 54, 0
15, 364960, Note_on_c, 13, 54, 84
15, 365024, Note_on_c, 13, 54, 0
15, 365040, Note_on_c, 13, 66, 84
15, 365104, Note_on_c, 13, 66, 0
15, 365120, Note_on_c, 13, 66, 84
15, 365184, Note_on_c, 13, 66, 0
15, 365200, Note_on_c, 13, 66, 84
15, 365264, Note_on_c, 13, 66, 0
15, 365280, Note_on_c, 13, 54, 84
15, 365344, Note_on_c, 13, 54, 0
15, 365360, Note_on_c, 13, 54, 84
15, 365424, Note_on_c, 13, 54, 0
15, 365440, Note_on_c, 13, 54, 84
15, 365504, Note_on_c, 13, 54, 0
15, 365520, Note_on_c, 13, 66, 84
15, 365584, Note_on_c, 13, 66, 0
15, 365600, Note_on_c, 13, 66, 84
15, 365664, Note_on_c, 13, 66, 0
15, 365680, Note_on_c, 13, 66, 84
15, 365744, Note_on_c, 13, 66, 0
15, 365760, Note_on_c, 13, 54, 84
15, 365824, Note_on_c, 13, 54, 0
15, 365840, Note_on_c, 13, 54, 84
15, 365904, Note_on_c, 13, 54, 0
15, 365920, Note_on_c, 13, 54, 84
15, 365984, Note_on_c, 13, 54, 0
15, 366000, Note_on_c, 13, 66, 84
15, 366064, Note_on_c, 13, 66, 0
15, 366080, Note_on_c, 13, 66, 84
15, 366144, Note_on_c, 13, 66, 0
15, 366160, Note_on_c, 13, 66, 84
15, 366224, Note_on_c, 13, 66, 0
15, 366240, Note_on_c, 13, 54, 84
15, 366304, Note_on_c, 13, 54, 0
15, 366320, Note_on_c, 13, 54, 84
15, 366384, Note_on_c, 13, 54, 0
15, 366400, Note_on_c, 13, 54, 84
15, 366464, Note_on_c, 13, 54, 0
15, 366480, Note_on_c, 13, 66, 84
15, 366544, Note_on_c, 13, 66, 0
15, 366560, Note_on_c, 13, 66, 84
15, 366624, Note_on_c, 13, 66, 0
15, 366640, Note_on_c, 13, 66, 84
15, 366704, Note_on_c, 13, 66, 0
15, 366720, Note_on_c, 13, 54, 84
15, 366784, Note_on_c, 13, 54, 0
15, 366800, Note_on_c, 13, 54, 84
15, 366864, Note_on_c, 13, 54, 0
15, 366880, Note_on_c, 13, 54, 84
15, 366944, Note_on_c, 13, 54, 0
15, 366960, Note_on_c, 13, 66, 84
15, 367024, Note_on_c, 13, 66, 0
15, 367040, Note_on_c, 13, 66, 84
15, 367104, Note_on_c, 13, 66, 0
15, 367120, Note_on_c, 13, 66, 84
15, 367184, Note_on_c, 13, 66, 0
15, 367200, Note_on_c, 13, 54, 84
15, 367264, Note_on_c, 13, 54, 0
15, 367280, Note_on_c, 13, 54, 84
15, 367344, Note_on_c, 13, 54, 0
15, 367360, Note_on_c, 13, 54, 84
15, 367424, Note_on_c, 13, 54, 0
15, 367440, Note_on_c, 13, 66, 84
15, 367504, Note_on_c, 13, 66, 0
15, 367520, Note_on_c, 13, 66, 84
15, 367584, Note_on_c, 13, 66, 0
15, 367600, Note_on_c, 13, 66, 84
15, 367664, Note_on_c, 13, 66, 0
15, 367680, Note_on_c, 13, 54, 84
15, 367744, Note_on_c, 13, 54, 0
15, 367760, Note_on_c, 13, 54, 84
15, 367824, Note_on_c, 13, 54, 0
15, 367840, Note_on_c, 13, 54, 84
15, 367904, Note_on_c, 13, 54, 0
15, 367920, Note_on_c, 13, 66, 84
15, 367984, Note_on_c, 13, 66, 0
15, 368000, Note_on_c, 13, 66, 84
15, 368064, Note_on_c, 13, 66, 0
15, 368080, Note_on_c, 13, 66, 84
15, 368144, Note_on_c, 13, 66, 0
15, 368160, Note_on_c, 13, 54, 84
15, 368224, Note_on_c, 13, 54, 0
15, 368240, Note_on_c, 13, 54, 84
15, 368304, Note_on_c, 13, 54, 0
15, 368320, Note_on_c, 13, 54, 84
15, 368384, Note_on_c, 13, 54, 0
15, 368400, Note_on_c, 13, 54, 84
15, 368464, Note_on_c, 13, 54, 0
15, 368480, Note_on_c, 13, 54, 84
15, 368544, Note_on_c, 13, 54, 0
15, 368560, Note_on_c, 13, 54, 84
15, 368624, Note_on_c, 13, 54, 0
15, 368640, Note_on_c, 13, 54, 84
15, 368704, Note_on_c, 13, 54, 0
15, 368720, Note_on_c, 13, 54, 84
15, 368784, Note_on_c, 13, 54, 0
15, 368800, Note_on_c, 13, 54, 84
15, 368864, Note_on_c, 13, 54, 0
15, 368880, Note_on_c, 13, 54, 84
15, 368944, Note_on_c, 13, 54, 0
15, 368960, Note_on_c, 13, 54, 84
15, 369024, Note_on_c, 13, 54, 0
15, 369040, Note_on_c, 13, 54, 84
15, 369104, Note_on_c, 13, 54, 0
15, 369120, Note_on_c, 13, 54, 84
15, 369184, Note_on_c, 13, 54, 0
15, 369200, Note_on_c, 13, 54, 84
15, 369264, Note_on_c, 13, 54, 0
15, 369280, Note_on_c, 13, 54, 84
15, 369344, Note_on_c, 13, 54, 0
15, 369360, Note_on_c, 13, 54, 84
15, 369424, Note_on_c, 13, 54, 0
15, 369440, Note_on_c, 13, 54, 84
15, 369504, Note_on_c, 13, 54, 0
15, 369520, Note_on_c, 13, 54, 84
15, 369584, Note_on_c, 13, 54, 0
15, 369600, Note_on_c, 13, 59, 84
15, 369664, Note_on_c, 13, 59, 0
15, 369680, Note_on_c, 13, 59, 84
15, 369744, Note_on_c, 13, 59, 0
15, 369760, Note_on_c, 13, 59, 84
15, 369824, Note_on_c, 13, 59, 0
15, 369840, Note_on_c, 13, 59, 84
15, 369904, Note_on_c, 13, 59, 0
15, 369920, Note_on_c, 13, 59, 84
15, 369984, Note_on_c, 13, 59, 0
15, 370000, Note_on_c, 13, 59, 84
15, 370064, Note_on_c, 13, 59, 0
15, 370080, Note_on_c, 13, 65, 84
15, 370144, Note_on_c, 13, 65, 0
15, 370160, Note_on_c, 13, 65, 84
15, 370224, Note_on_c, 13, 65, 0
15, 370240, Note_on_c, 13, 65, 84
15, 370304, Note_on_c, 13, 65, 0
15, 370320, Note_on_c, 13, 66, 84
15, 370384, Note_on_c, 13, 66, 0
15, 370400, Note_on_c, 13, 66, 84
15, 370464, Note_on_c, 13, 66, 0
15, 370480, Note_on_c, 13, 66, 84
15, 370544, Note_on_c, 13, 66, 0
15, 370560, Note_on_c, 13, 59, 84
15, 370624, Note_on_c, 13, 59, 0
15, 370640, Note_on_c, 13, 59, 84
15, 370704, Note_on_c, 13, 59, 0
15, 370720, Note_on_c, 13, 59, 84
15, 370784, Note_on_c, 13, 59, 0
15, 370800, Note_on_c, 13, 57, 84
15, 370864, Note_on_c, 13, 57, 0
15, 370880, Note_on_c, 13, 57, 84
15, 370944, Note_on_c, 13, 57, 0
15, 370960, Note_on_c, 13, 57, 84
15, 371024, Note_on_c, 13, 57, 0
15, 371040, Note_on_c, 13, 59, 84
15, 371104, Note_on_c, 13, 59, 0
15, 371120, Note_on_c, 13, 59, 84
15, 371184, Note_on_c, 13, 59, 0
15, 371200, Note_on_c, 13, 59, 84
15, 371264, Note_on_c, 13, 59, 0
15, 371280, Note_on_c, 13, 61, 84
15, 371344, Note_on_c, 13, 61, 0
15, 371360, Note_on_c, 13, 61, 84
15, 371424, Note_on_c, 13, 61, 0
15, 371440, Note_on_c, 13, 61, 84
15, 371504, Note_on_c, 13, 61, 0
15, 371520, Note_on_c, 13, 62, 84
15, 371584, Note_on_c, 13, 62, 0
15, 371600, Note_on_c, 13, 62, 84
15, 371664, Note_on_c, 13, 62, 0
15, 371680, Note_on_c, 13, 62, 84
15, 371744, Note_on_c, 13, 62, 0
15, 371760, Note_on_c, 13, 65, 84
15, 371824, Note_on_c, 13, 65, 0
15, 371840, Note_on_c, 13, 65, 84
15, 371904, Note_on_c, 13, 65, 0
15, 371920, Note_on_c, 13, 65, 84
15, 371984, Note_on_c, 13, 65, 0
15, 372000, Note_on_c, 13, 66, 84
15, 372064, Note_on_c, 13, 66, 0
15, 372080, Note_on_c, 13, 66, 84
15, 372144, Note_on_c, 13, 66, 0
15, 372160, Note_on_c, 13, 66, 84
15, 372224, Note_on_c, 13, 66, 0
15, 372240, Note_on_c, 13, 57, 84
15, 372304, Note_on_c, 13, 57, 0
15, 372320, Note_on_c, 13, 57, 84
15, 372384, Note_on_c, 13, 57, 0
15, 372400, Note_on_c, 13, 57, 84
15, 372464, Note_on_c, 13, 57, 0
15, 372480, Note_on_c, 13, 59, 84
15, 372544, Note_on_c, 13, 59, 0
15, 372560, Note_on_c, 13, 59, 84
15, 372624, Note_on_c, 13, 59, 0
15, 372640, Note_on_c, 13, 59, 84
15, 372704, Note_on_c, 13, 59, 0
15, 372720, Note_on_c, 13, 57, 84
15, 372784, Note_on_c, 13, 57, 0
15, 372800, Note_on_c, 13, 57, 84
15, 372864, Note_on_c, 13, 57, 0
15, 372880, Note_on_c, 13, 57, 84
15, 372944, Note_on_c, 13, 57, 0
15, 372960, Note_on_c, 13, 59, 84
15, 373024, Note_on_c, 13, 59, 0
15, 373040, Note_on_c, 13, 59, 84
15, 373104, Note_on_c, 13, 59, 0
15, 373120, Note_on_c, 13, 59, 84
15, 373184, Note_on_c, 13, 59, 0
15, 373200, Note_on_c, 13, 61, 84
15, 373264, Note_on_c, 13, 61, 0
15, 373280, Note_on_c, 13, 61, 84
15, 373344, Note_on_c, 13, 61, 0
15, 373360, Note_on_c, 13, 61, 84
15, 373424, Note_on_c, 13, 61, 0
15, 373440, Note_on_c, 13, 62, 84
15, 373504, Note_on_c, 13, 62, 0
15, 373520, Note_on_c, 13, 62, 84
15, 373584, Note_on_c, 13, 62, 0
15, 373600, Note_on_c, 13, 62, 84
15, 373664, Note_on_c, 13, 62, 0
15, 373680, Note_on_c, 13, 65, 84
15, 373744, Note_on_c, 13, 65, 0
15, 373760, Note_on_c, 13, 65, 84
15, 373824, Note_on_c, 13, 65, 0
15, 373840, Note_on_c, 13, 65, 84
15, 373904, Note_on_c, 13, 65, 0
15, 373920, Note_on_c, 13, 66, 84
15, 373984, Note_on_c, 13, 66, 0
15, 374000, Note_on_c, 13, 66, 84
15, 374064, Note_on_c, 13, 66, 0
15, 374080, Note_on_c, 13, 66, 84
15, 374144, Note_on_c, 13, 66, 0
15, 374160, Note_on_c, 13, 57, 84
15, 374224, Note_on_c, 13, 57, 0
15, 374240, Note_on_c, 13, 57, 84
15, 374304, Note_on_c, 13, 57, 0
15, 374320, Note_on_c, 13, 57, 84
15, 374384, Note_on_c, 13, 57, 0
15, 374400, Note_on_c, 13, 59, 84
15, 374464, Note_on_c, 13, 59, 0
15, 374480, Note_on_c, 13, 59, 84
15, 374544, Note_on_c, 13, 59, 0
15, 374560, Note_on_c, 13, 59, 84
15, 374624, Note_on_c, 13, 59, 0
15, 374640, Note_on_c, 13, 57, 84
15, 374704, Note_on_c, 13, 57, 0
15, 374720, Note_on_c, 13, 57, 84
15, 374784, Note_on_c, 13, 57, 0
15, 374800, Note_on_c, 13, 57, 84
15, 374864, Note_on_c, 13, 57, 0
15, 374880, Note_on_c, 13, 59, 84
15, 374944, Note_on_c, 13, 59, 0
15, 374960, Note_on_c, 13, 59, 84
15, 375024, Note_on_c, 13, 59, 0
15, 375040, Note_on_c, 13, 59, 84
15, 375104, Note_on_c, 13, 59, 0
15, 375120, Note_on_c, 13, 61, 84
15, 375184, Note_on_c, 13, 61, 0
15, 375200, Note_on_c, 13, 61, 84
15, 375264, Note_on_c, 13, 61, 0
15, 375280, Note_on_c, 13, 61, 84
15, 375344, Note_on_c, 13, 61, 0
15, 375360, Note_on_c, 13, 62, 84
15, 375424, Note_on_c, 13, 62, 0
15, 375440, Note_on_c, 13, 62, 84
15, 375504, Note_on_c, 13, 62, 0
15, 375520, Note_on_c, 13, 62, 84
15, 375584, Note_on_c, 13, 62, 0
15, 375600, Note_on_c, 13, 65, 84
15, 375664, Note_on_c, 13, 65, 0
15, 375680, Note_on_c, 13, 65, 84
15, 375744, Note_on_c, 13, 65, 0
15, 375760, Note_on_c, 13, 65, 84
15, 375824, Note_on_c, 13, 65, 0
15, 375840, Note_on_c, 13, 65, 84
15, 375904, Note_on_c, 13, 65, 0
15, 375920, Note_on_c, 13, 65, 84
15, 375984, Note_on_c, 13, 65, 0
15, 376000, Note_on_c, 13, 65, 84
15, 376064, Note_on_c, 13, 65, 0
15, 376080, Note_on_c, 13, 57, 84
15, 376144, Note_on_c, 13, 57, 0
15, 376160, Note_on_c, 13, 57, 84
15, 376224, Note_on_c, 13, 57, 0
15, 376240, Note_on_c, 13, 57, 84
15, 376304, Note_on_c, 13, 57, 0
15, 376320, Note_on_c, 13, 58, 84
15, 376384, Note_on_c, 13, 58, 0
15, 376400, Note_on_c, 13, 58, 84
15, 376464, Note_on_c, 13, 58, 0
15, 376480, Note_on_c, 13, 58, 84
15, 376544, Note_on_c, 13, 58, 0
15, 376560, Note_on_c, 13, 57, 84
15, 376624, Note_on_c, 13, 57, 0
15, 376640, Note_on_c, 13, 57, 84
15, 376704, Note_on_c, 13, 57, 0
15, 376720, Note_on_c, 13, 57, 84
15, 376784, Note_on_c, 13, 57, 0
15, 376800, Note_on_c, 13, 58, 84
15, 376864, Note_on_c, 13, 58, 0
15, 376880, Note_on_c, 13, 58, 84
15, 376944, Note_on_c, 13, 58, 0
15, 376960, Note_on_c, 13, 58, 84
15, 377024, Note_on_c, 13, 58, 0
15, 377040, Note_on_c, 13, 60, 84
15, 377104, Note_on_c, 13, 60, 0
15, 377120, Note_on_c, 13, 60, 84
15, 377184, Note_on_c, 13, 60, 0
15, 377200, Note_on_c, 13, 60, 84
15, 377264, Note_on_c, 13, 60, 0
15, 377280, Note_on_c, 13, 62, 84
15, 377344, Note_on_c, 13, 62, 0
15, 377360, Note_on_c, 13, 62, 84
15, 377424, Note_on_c, 13, 62, 0
15, 377440, Note_on_c, 13, 62, 84
15, 377504, Note_on_c, 13, 62, 0
15, 377520, Note_on_c, 13, 64, 84
15, 377584, Note_on_c, 13, 64, 0
15, 377600, Note_on_c, 13, 64, 84
15, 377664, Note_on_c, 13, 64, 0
15, 377680, Note_on_c, 13, 64, 84
15, 377744, Note_on_c, 13, 64, 0
15, 377760, Note_on_c, 13, 65, 84
15, 377824, Note_on_c, 13, 65, 0
15, 377840, Note_on_c, 13, 65, 84
15, 377904, Note_on_c, 13, 65, 0
15, 377920, Note_on_c, 13, 65, 84
15, 377984, Note_on_c, 13, 65, 0
15, 378000, Note_on_c, 13, 57, 84
15, 378064, Note_on_c, 13, 57, 0
15, 378080, Note_on_c, 13, 57, 84
15, 378144, Note_on_c, 13, 57, 0
15, 378160, Note_on_c, 13, 57, 84
15, 378224, Note_on_c, 13, 57, 0
15, 378240, Note_on_c, 13, 62, 92
15, 378304, Note_on_c, 13, 62, 0
15, 378320, Note_on_c, 13, 62, 84
15, 378384, Note_on_c, 13, 62, 0
15, 378400, Note_on_c, 13, 62, 84
15, 378464, Note_on_c, 13, 62, 0
15, 378480, Note_on_c, 13, 64, 84
15, 378544, Note_on_c, 13, 64, 0
15, 378560, Note_on_c, 13, 64, 84
15, 378624, Note_on_c, 13, 64, 0
15, 378640, Note_on_c, 13, 64, 84
15, 378704, Note_on_c, 13, 64, 0
15, 378720, Note_on_c, 13, 65, 84
15, 378784, Note_on_c, 13, 65, 0
15, 378800, Note_on_c, 13, 65, 84
15, 378864, Note_on_c, 13, 65, 0
15, 378880, Note_on_c, 13, 65, 84
15, 378944, Note_on_c, 13, 65, 0
15, 378960, Note_on_c, 13, 57, 84
15, 379024, Note_on_c, 13, 57, 0
15, 379040, Note_on_c, 13, 57, 84
15, 379104, Note_on_c, 13, 57, 0
15, 379120, Note_on_c, 13, 57, 84
15, 379184, Note_on_c, 13, 57, 0
15, 379200, Note_on_c, 13, 50, 92
15, 379264, Note_on_c, 13, 50, 0
15, 379280, Note_on_c, 13, 50, 84
15, 379344, Note_on_c, 13, 50, 0
15, 379360, Note_on_c, 13, 50, 84
15, 379424, Note_on_c, 13, 50, 0
15, 379440, Note_on_c, 13, 52, 84
15, 379504, Note_on_c, 13, 52, 0
15, 379520, Note_on_c, 13, 52, 84
15, 379584, Note_on_c, 13, 52, 0
15, 379600, Note_on_c, 13, 52, 84
15, 379664, Note_on_c, 13, 52, 0
15, 379680, Note_on_c, 13, 53, 84
15, 379744, Note_on_c, 13, 53, 0
15, 379760, Note_on_c, 13, 53, 84
15, 379824, Note_on_c, 13, 53, 0
15, 379840, Note_on_c, 13, 53, 84
15, 379904, Note_on_c, 13, 53, 0
15, 379920, Note_on_c, 13, 57, 84
15, 379984, Note_on_c, 13, 57, 0
15, 380000, Note_on_c, 13, 57, 84
15, 380064, Note_on_c, 13, 57, 0
15, 380080, Note_on_c, 13, 57, 84
15, 380144, Note_on_c, 13, 57, 0
15, 380160, Note_on_c, 13, 62, 92
15, 380224, Note_on_c, 13, 62, 0
15, 380240, Note_on_c, 13, 62, 84
15, 380304, Note_on_c, 13, 62, 0
15, 380320, Note_on_c, 13, 62, 84
15, 380384, Note_on_c, 13, 62, 0
15, 380400, Note_on_c, 13, 64, 84
15, 380464, Note_on_c, 13, 64, 0
15, 380480, Note_on_c, 13, 64, 84
15, 380544, Note_on_c, 13, 64, 0
15, 380560, Note_on_c, 13, 64, 84
15, 380624, Note_on_c, 13, 64, 0
15, 380640, Note_on_c, 13, 65, 84
15, 380704, Note_on_c, 13, 65, 0
15, 380720, Note_on_c, 13, 65, 84
15, 380784, Note_on_c, 13, 65, 0
15, 380800, Note_on_c, 13, 65, 84
15, 380864, Note_on_c, 13, 65, 0
15, 380880, Note_on_c, 13, 57, 84
15, 380944, Note_on_c, 13, 57, 0
15, 380960, Note_on_c, 13, 57, 84
15, 381024, Note_on_c, 13, 57, 0
15, 381040, Note_on_c, 13, 57, 84
15, 381104, Note_on_c, 13, 57, 0
15, 381120, Note_on_c, 13, 50, 92
15, 381184, Note_on_c, 13, 50, 0
15, 381200, Note_on_c, 13, 50, 84
15, 381264, Note_on_c, 13, 50, 0
15, 381280, Note_on_c, 13, 50, 84
15, 381344, Note_on_c, 13, 50, 0
15, 381360, Note_on_c, 13, 52, 84
15, 381424, Note_on_c, 13, 52, 0
15, 381440, Note_on_c, 13, 52, 84
15, 381504, Note_on_c, 13, 52, 0
15, 381520, Note_on_c, 13, 52, 84
15, 381584, Note_on_c, 13, 52, 0
15, 381600, Note_on_c, 13, 53, 84
15, 381664, Note_on_c, 13, 53, 0
15, 381680, Note_on_c, 13, 53, 84
15, 381744, Note_on_c, 13, 53, 0
15, 381760, Note_on_c, 13, 53, 84
15, 381824, Note_on_c, 13, 53, 0
15, 381840, Note_on_c, 13, 57, 84
15, 381904, Note_on_c, 13, 57, 0
15, 381920, Note_on_c, 13, 57, 84
15, 381984, Note_on_c, 13, 57, 0
15, 382000, Note_on_c, 13, 57, 84
15, 382064, Note_on_c, 13, 57, 0
15, 382080, Note_on_c, 13, 62, 92
15, 382144, Note_on_c, 13, 62, 0
15, 382160, Note_on_c, 13, 62, 84
15, 382224, Note_on_c, 13, 62, 0
15, 382240, Note_on_c, 13, 62, 84
15, 382304, Note_on_c, 13, 62, 0
15, 382320, Note_on_c, 13, 64, 84
15, 382384, Note_on_c, 13, 64, 0
15, 382400, Note_on_c, 13, 64, 84
15, 382464, Note_on_c, 13, 64, 0
15, 382480, Note_on_c, 13, 64, 84
15, 382544, Note_on_c, 13, 64, 0
15, 382560, Note_on_c, 13, 60, 92
15, 382624, Note_on_c, 13, 60, 0
15, 382640, Note_on_c, 13, 60, 84
15, 382704, Note_on_c, 13, 60, 0
15, 382720, Note_on_c, 13, 60, 84
15, 382784, Note_on_c, 13, 60, 0
15, 382800, Note_on_c, 13, 61, 84
15, 382864, Note_on_c, 13, 61, 0
15, 382880, Note_on_c, 13, 61, 84
15, 382944, Note_on_c, 13, 61, 0
15, 382960, Note_on_c, 13, 61, 84
15, 383024, Note_on_c, 13, 61, 0
15, 383040, Note_on_c, 13, 62, 92
15, 383104, Note_on_c, 13, 62, 0
15, 383120, Note_on_c, 13, 62, 84
15, 383184, Note_on_c, 13, 62, 0
15, 383200, Note_on_c, 13, 62, 84
15, 383264, Note_on_c, 13, 62, 0
15, 383280, Note_on_c, 13, 58, 84
15, 383344, Note_on_c, 13, 58, 0
15, 383360, Note_on_c, 13, 58, 84
15, 383424, Note_on_c, 13, 58, 0
15, 383440, Note_on_c, 13, 58, 84
15, 383504, Note_on_c, 13, 58, 0
15, 383520, Note_on_c, 13, 59, 92
15, 383584, Note_on_c, 13, 59, 0
15, 383600, Note_on_c, 13, 59, 84
15, 383664, Note_on_c, 13, 59, 0
15, 383680, Note_on_c, 13, 59, 84
15, 383744, Note_on_c, 13, 59, 0
15, 383760, Note_on_c, 13, 60, 84
15, 383824, Note_on_c, 13, 60, 0
15, 383840, Note_on_c, 13, 60, 84
15, 383904, Note_on_c, 13, 60, 0
15, 383920, Note_on_c, 13, 60, 84
15, 383984, Note_on_c, 13, 60, 0
15, 384000, Note_on_c, 13, 63, 92
15, 384064, Note_on_c, 13, 63, 0
15, 384080, Note_on_c, 13, 63, 84
15, 384144, Note_on_c, 13, 63, 0
15, 384160, Note_on_c, 13, 63, 84
15, 384224, Note_on_c, 13, 63, 0
15, 384240, Note_on_c, 13, 57, 84
15, 384304, Note_on_c, 13, 57, 0
15, 384320, Note_on_c, 13, 57, 84
15, 384384, Note_on_c, 13, 57, 0
15, 384400, Note_on_c, 13, 57, 84
15, 384464, Note_on_c, 13, 57, 0
15, 384480, Note_on_c, 13, 58, 92
15, 384544, Note_on_c, 13, 58, 0
15, 384560, Note_on_c, 13, 58, 84
15, 384624, Note_on_c, 13, 58, 0
15, 384640, Note_on_c, 13, 58, 84
15, 384704, Note_on_c, 13, 58, 0
15, 384720, Note_on_c, 13, 62, 84
15, 384784, Note_on_c, 13, 62, 0
15, 384800, Note_on_c, 13, 62, 84
15, 384864, Note_on_c, 13, 62, 0
15, 384880, Note_on_c, 13, 62, 84
15, 384944, Note_on_c, 13, 62, 0
15, 384960, Note_on_c, 13, 56, 92
15, 385024, Note_on_c, 13, 56, 0
15, 385040, Note_on_c, 13, 56, 84
15, 385104, Note_on_c, 13, 56, 0
15, 385120, Note_on_c, 13, 56, 84
15, 385184, Note_on_c, 13, 56, 0
15, 385200, Note_on_c, 13, 57, 84
15, 385264, Note_on_c, 13, 57, 0
15, 385280, Note_on_c, 13, 57, 84
15, 385344, Note_on_c, 13, 57, 0
15, 385360, Note_on_c, 13, 57, 84
15, 385424, Note_on_c, 13, 57, 0
15, 385440, Note_on_c, 13, 60, 92
15, 385504, Note_on_c, 13, 60, 0
15, 385520, Note_on_c, 13, 60, 84
15, 385584, Note_on_c, 13, 60, 0
15, 385600, Note_on_c, 13, 60, 84
15, 385664, Note_on_c, 13, 60, 0
15, 385680, Note_on_c, 13, 54, 84
15, 385744, Note_on_c, 13, 54, 0
15, 385760, Note_on_c, 13, 54, 84
15, 385824, Note_on_c, 13, 54, 0
15, 385840, Note_on_c, 13, 54, 84
15, 385904, Note_on_c, 13, 54, 0
15, 385920, Note_on_c, 13, 55, 92
15, 385984, Note_on_c, 13, 55, 0
15, 386000, Note_on_c, 13, 55, 84
15, 386064, Note_on_c, 13, 55, 0
15, 386080, Note_on_c, 13, 55, 84
15, 386144, Note_on_c, 13, 55, 0
15, 386160, Note_on_c, 13, 58, 84
15, 386224, Note_on_c, 13, 58, 0
15, 386240, Note_on_c, 13, 58, 84
15, 386304, Note_on_c, 13, 58, 0
15, 386320, Note_on_c, 13, 58, 84
15, 386384, Note_on_c, 13, 58, 0
15, 386400, Note_on_c, 13, 52, 92
15, 386464, Note_on_c, 13, 52, 0
15, 386480, Note_on_c, 13, 52, 84
15, 386544, Note_on_c, 13, 52, 0
15, 386560, Note_on_c, 13, 52, 84
15, 386624, Note_on_c, 13, 52, 0
15, 386640, Note_on_c, 13, 53, 84
15, 386704, Note_on_c, 13, 53, 0
15, 386720, Note_on_c, 13, 53, 84
15, 386784, Note_on_c, 13, 53, 0
15, 386800, Note_on_c, 13, 53, 84
15, 386864, Note_on_c, 13, 53, 0
15, 386880, Note_on_c, 13, 57, 92
15, 386944, Note_on_c, 13, 57, 0
15, 386960, Note_on_c, 13, 57, 84
15, 387024, Note_on_c, 13, 57, 0
15, 387040, Note_on_c, 13, 57, 84
15, 387104, Note_on_c, 13, 57, 0
15, 387120, Note_on_c, 13, 50, 84
15, 387184, Note_on_c, 13, 50, 0
15, 387200, Note_on_c, 13, 50, 84
15, 387264, Note_on_c, 13, 50, 0
15, 387280, Note_on_c, 13, 50, 84
15, 387344, Note_on_c, 13, 50, 0
15, 387360, Note_on_c, 13, 51, 92
15, 387424, Note_on_c, 13, 51, 0
15, 387440, Note_on_c, 13, 51, 84
15, 387504, Note_on_c, 13, 51, 0
15, 387520, Note_on_c, 13, 51, 84
15, 387584, Note_on_c, 13, 51, 0
15, 387600, Note_on_c, 13, 52, 84
15, 387664, Note_on_c, 13, 52, 0
15, 387680, Note_on_c, 13, 52, 84
15, 387744, Note_on_c, 13, 52, 0
15, 387760, Note_on_c, 13, 52, 84
15, 387824, Note_on_c, 13, 52, 0
15, 387840, Note_on_c, 13, 55, 92
15, 387904, Note_on_c, 13, 55, 0
15, 387920, Note_on_c, 13, 55, 84
15, 387984, Note_on_c, 13, 55, 0
15, 388000, Note_on_c, 13, 55, 84
15, 388064, Note_on_c, 13, 55, 0
15, 388080, Note_on_c, 13, 58, 84
15, 388144, Note_on_c, 13, 58, 0
15, 388160, Note_on_c, 13, 58, 84
15, 388224, Note_on_c, 13, 58, 0
15, 388240, Note_on_c, 13, 58, 84
15, 388304, Note_on_c, 13, 58, 0
15, 388320, Note_on_c, 13, 60, 92
15, 388384, Note_on_c, 13, 60, 0
15, 388400, Note_on_c, 13, 60, 84
15, 388464, Note_on_c, 13, 60, 0
15, 388480, Note_on_c, 13, 60, 84
15, 388544, Note_on_c, 13, 60, 0
15, 388560, Note_on_c, 13, 48, 84
15, 388624, Note_on_c, 13, 48, 0
15, 388640, Note_on_c, 13, 48, 84
15, 388704, Note_on_c, 13, 48, 0
15, 388720, Note_on_c, 13, 48, 84
15, 388784, Note_on_c, 13, 48, 0
15, 388800, Note_on_c, 13, 55, 92
15, 388864, Note_on_c, 13, 55, 0
15, 388880, Note_on_c, 13, 55, 84
15, 388944, Note_on_c, 13, 55, 0
15, 388960, Note_on_c, 13, 55, 84
15, 389024, Note_on_c, 13, 55, 0
15, 389040, Note_on_c, 13, 58, 84
15, 389104, Note_on_c, 13, 58, 0
15, 389120, Note_on_c, 13, 58, 84
15, 389184, Note_on_c, 13, 58, 0
15, 389200, Note_on_c, 13, 58, 84
15, 389264, Note_on_c, 13, 58, 0
15, 389280, Note_on_c, 13, 60, 92
15, 389344, Note_on_c, 13, 60, 0
15, 389360, Note_on_c, 13, 60, 84
15, 389424, Note_on_c, 13, 60, 0
15, 389440, Note_on_c, 13, 60, 84
15, 389504, Note_on_c, 13, 60, 0
15, 389520, Note_on_c, 13, 48, 84
15, 389584, Note_on_c, 13, 48, 0
15, 389600, Note_on_c, 13, 48, 84
15, 389664, Note_on_c, 13, 48, 0
15, 389680, Note_on_c, 13, 48, 84
15, 389744, Note_on_c, 13, 48, 0
15, 389760, Note_on_c, 13, 55, 92
15, 389824, Note_on_c, 13, 55, 0
15, 389840, Note_on_c, 13, 55, 84
15, 389904, Note_on_c, 13, 55, 0
15, 389920, Note_on_c, 13, 55, 84
15, 389984, Note_on_c, 13, 55, 0
15, 390000, Note_on_c, 13, 58, 84
15, 390064, Note_on_c, 13, 58, 0
15, 390080, Note_on_c, 13, 58, 84
15, 390144, Note_on_c, 13, 58, 0
15, 390160, Note_on_c, 13, 58, 84
15, 390224, Note_on_c, 13, 58, 0
15, 390240, Note_on_c, 13, 60, 92
15, 390304, Note_on_c, 13, 60, 0
15, 390320, Note_on_c, 13, 60, 84
15, 390384, Note_on_c, 13, 60, 0
15, 390400, Note_on_c, 13, 60, 84
15, 390464, Note_on_c, 13, 60, 0
15, 390480, Note_on_c, 13, 48, 84
15, 390544, Note_on_c, 13, 48, 0
15, 390560, Note_on_c, 13, 48, 84
15, 390624, Note_on_c, 13, 48, 0
15, 390640, Note_on_c, 13, 48, 84
15, 390704, Note_on_c, 13, 48, 0
15, 390720, Note_on_c, 13, 55, 92
15, 390784, Note_on_c, 13, 55, 0
15, 390800, Note_on_c, 13, 55, 84
15, 390864, Note_on_c, 13, 55, 0
15, 390880, Note_on_c, 13, 55, 84
15, 390944, Note_on_c, 13, 55, 0
15, 390960, Note_on_c, 13, 58, 84
15, 391024, Note_on_c, 13, 58, 0
15, 391040, Note_on_c, 13, 58, 84
15, 391104, Note_on_c, 13, 58, 0
15, 391120, Note_on_c, 13, 58, 84
15, 391184, Note_on_c, 13, 58, 0
15, 391200, Note_on_c, 13, 60, 92
15, 391264, Note_on_c, 13, 60, 0
15, 391280, Note_on_c, 13, 60, 84
15, 391344, Note_on_c, 13, 60, 0
15, 391360, Note_on_c, 13, 60, 84
15, 391424, Note_on_c, 13, 60, 0
15, 391440, Note_on_c, 13, 48, 84
15, 391504, Note_on_c, 13, 48, 0
15, 391520, Note_on_c, 13, 48, 84
15, 391584, Note_on_c, 13, 48, 0
15, 391600, Note_on_c, 13, 48, 84
15, 391664, Note_on_c, 13, 48, 0
15, 391680, Note_on_c, 13, 53, 76
15, 391760, Control_c, 13, 11, 80
15, 391919, Note_on_c, 13, 53, 0
15, 394560, Control_c, 13, 11, 96
15, 395040, Note_on_c, 13, 64, 68
15, 395040, Control_c, 13, 11, 96
15, 395100, Control_c, 13, 11, 99
15, 395160, Control_c, 13, 11, 101
15, 395220, Control_c, 13, 11, 104
15, 395280, Control_c, 13, 11, 106
15, 395340, Control_c, 13, 11, 109
15, 395400, Control_c, 13, 11, 112
15, 395460, Control_c, 13, 11, 114
15, 395519, Note_on_c, 13, 64, 0
15, 395520, Control_c, 13, 11, 117
15, 395520, Note_on_c, 13, 65, 68
15, 395580, Control_c, 13, 11, 119
15, 395640, Control_c, 13, 11, 122
15, 395700, Control_c, 13, 11, 124
15, 395760, Control_c, 13, 11, 127
15, 395820, Control_c, 13, 11, 124
15, 395880, Control_c, 13, 11, 122
15, 395940, Control_c, 13, 11, 119
15, 396000, Control_c, 13, 11, 117
15, 396060, Control_c, 13, 11, 114
15, 396120, Control_c, 13, 11, 112
15, 396180, Control_c, 13, 11, 109
15, 396239, Note_on_c, 13, 65, 0
15, 396240, Note_on_c, 13, 67, 68
15, 396240, Control_c, 13, 11, 106
15, 396300, Control_c, 13, 11, 104
15, 396359, Note_on_c, 13, 67, 0
15, 396360, Note_on_c, 13, 69, 68
15, 396360, Control_c, 13, 11, 101
15, 396420, Control_c, 13, 11, 99
15, 396479, Note_on_c, 13, 69, 0
15, 396480, Control_c, 13, 11, 96
15, 396480, Note_on_c, 13, 60, 68
15, 396719, Note_on_c, 13, 60, 0
15, 398400, Control_c, 13, 11, 80
15, 398880, Control_c, 13, 11, 80
15, 398880, Note_on_c, 13, 64, 76
15, 398920, Control_c, 13, 11, 84
15, 398960, Control_c, 13, 11, 88
15, 399000, Control_c, 13, 11, 92
15, 399040, Control_c, 13, 11, 96
15, 399080, Control_c, 13, 11, 100
15, 399120, Control_c, 13, 11, 104
15, 399160, Control_c, 13, 11, 107
15, 399200, Control_c, 13, 11, 111
15, 399240, Control_c, 13, 11, 115
15, 399280, Control_c, 13, 11, 119
15, 399320, Control_c, 13, 11, 127
15, 399339, Note_on_c, 13, 64, 0
15, 399360, Note_on_c, 13, 65, 76
15, 399424, Note_on_c, 13, 65, 0
15, 399440, Note_on_c, 13, 60, 76
15, 399504, Note_on_c, 13, 60, 0
15, 399520, Note_on_c, 13, 60, 76
15, 399584, Note_on_c, 13, 60, 0
15, 399600, Note_on_c, 13, 60, 76
15, 399664, Note_on_c, 13, 60, 0
15, 399680, Note_on_c, 13, 60, 76
15, 399744, Note_on_c, 13, 60, 0
15, 399760, Note_on_c, 13, 60, 76
15, 399824, Note_on_c, 13, 60, 0
15, 399840, Note_on_c, 13, 60, 76
15, 399904, Note_on_c, 13, 60, 0
15, 399920, Note_on_c, 13, 60, 76
15, 399984, Note_on_c, 13, 60, 0
15, 400000, Note_on_c, 13, 60, 76
15, 400064, Note_on_c, 13, 60, 0
15, 400080, Note_on_c, 13, 60, 76
15, 400144, Note_on_c, 13, 60, 0
15, 400160, Note_on_c, 13, 60, 76
15, 400224, Note_on_c, 13, 60, 0
15, 400240, Note_on_c, 13, 60, 76
15, 400304, Note_on_c, 13, 60, 0
15, 400320, Note_on_c, 13, 62, 76
15, 400384, Note_on_c, 13, 62, 0
15, 400400, Note_on_c, 13, 62, 76
15, 400464, Note_on_c, 13, 62, 0
15, 400480, Note_on_c, 13, 62, 76
15, 400544, Note_on_c, 13, 62, 0
15, 400560, Note_on_c, 13, 62, 76
15, 400624, Note_on_c, 13, 62, 0
15, 400640, Note_on_c, 13, 62, 76
15, 400704, Note_on_c, 13, 62, 0
15, 400720, Note_on_c, 13, 62, 76
15, 400784, Note_on_c, 13, 62, 0
15, 400800, Note_on_c, 13, 62, 76
15, 400864, Note_on_c, 13, 62, 0
15, 400880, Note_on_c, 13, 62, 76
15, 400944, Note_on_c, 13, 62, 0
15, 400960, Note_on_c, 13, 62, 76
15, 401024, Note_on_c, 13, 62, 0
15, 401040, Note_on_c, 13, 62, 76
15, 401104, Note_on_c, 13, 62, 0
15, 401120, Note_on_c, 13, 62, 76
15, 401184, Note_on_c, 13, 62, 0
15, 401200, Note_on_c, 13, 62, 76
15, 401264, Note_on_c, 13, 62, 0
15, 401280, Note_on_c, 13, 62, 76
15, 401280, Note_on_c, 13, 58, 76
15, 401344, Note_on_c, 13, 62, 0
15, 401344, Note_on_c, 13, 58, 0
15, 401360, Note_on_c, 13, 62, 76
15, 401360, Note_on_c, 13, 58, 76
15, 401424, Note_on_c, 13, 62, 0
15, 401424, Note_on_c, 13, 58, 0
15, 401440, Note_on_c, 13, 58, 76
15, 401440, Note_on_c, 13, 62, 76
15, 401504, Note_on_c, 13, 58, 0
15, 401504, Note_on_c, 13, 62, 0
15, 401520, Note_on_c, 13, 58, 76
15, 401520, Note_on_c, 13, 62, 76
15, 401584, Note_on_c, 13, 58, 0
15, 401584, Note_on_c, 13, 62, 0
15, 401600, Note_on_c, 13, 58, 76
15, 401600, Note_on_c, 13, 62, 76
15, 401664, Note_on_c, 13, 58, 0
15, 401664, Note_on_c, 13, 62, 0
15, 401680, Note_on_c, 13, 62, 76
15, 401680, Note_on_c, 13, 58, 76
15, 401744, Note_on_c, 13, 62, 0
15, 401744, Note_on_c, 13, 58, 0
15, 401760, Note_on_c, 13, 58, 76
15, 401760, Note_on_c, 13, 62, 76
15, 401824, Note_on_c, 13, 58, 0
15, 401824, Note_on_c, 13, 62, 0
15, 401840, Note_on_c, 13, 58, 76
15, 401840, Note_on_c, 13, 62, 76
15, 401904, Note_on_c, 13, 58, 0
15, 401904, Note_on_c, 13, 62, 0
15, 401920, Note_on_c, 13, 62, 76
15, 401920, Note_on_c, 13, 58, 76
15, 401984, Note_on_c, 13, 62, 0
15, 401984, Note_on_c, 13, 58, 0
15, 402000, Note_on_c, 13, 62, 76
15, 402000, Note_on_c, 13, 58, 76
15, 402064, Note_on_c, 13, 62, 0
15, 402064, Note_on_c, 13, 58, 0
15, 402080, Note_on_c, 13, 58, 76
15, 402080, Note_on_c, 13, 62, 76
15, 402144, Note_on_c, 13, 58, 0
15, 402144, Note_on_c, 13, 62, 0
15, 402160, Note_on_c, 13, 62, 76
15, 402160, Note_on_c, 13, 58, 76
15, 402224, Note_on_c, 13, 62, 0
15, 402224, Note_on_c, 13, 58, 0
15, 402240, Note_on_c, 13, 60, 76
15, 402304, Note_on_c, 13, 60, 0
15, 402320, Note_on_c, 13, 60, 76
15, 402384, Note_on_c, 13, 60, 0
15, 402400, Note_on_c, 13, 60, 76
15, 402464, Note_on_c, 13, 60, 0
15, 402480, Note_on_c, 13, 60, 76
15, 402544, Note_on_c, 13, 60, 0
15, 402560, Note_on_c, 13, 60, 76
15, 402624, Note_on_c, 13, 60, 0
15, 402640, Note_on_c, 13, 60, 76
15, 402704, Note_on_c, 13, 60, 0
15, 402720, Note_on_c, 13, 60, 76
15, 402784, Note_on_c, 13, 60, 0
15, 402800, Note_on_c, 13, 60, 76
15, 402864, Note_on_c, 13, 60, 0
15, 402880, Note_on_c, 13, 60, 76
15, 402944, Note_on_c, 13, 60, 0
15, 402960, Note_on_c, 13, 60, 76
15, 403024, Note_on_c, 13, 60, 0
15, 403040, Note_on_c, 13, 60, 76
15, 403104, Note_on_c, 13, 60, 0
15, 403120, Note_on_c, 13, 60, 76
15, 403184, Note_on_c, 13, 60, 0
15, 403200, Note_on_c, 13, 53, 52
15, 403344, Note_on_c, 13, 53, 0
15, 403360, Note_on_c, 13, 53, 52
15, 403519, Note_on_c, 13, 53, 0
15, 403520, Note_on_c, 13, 57, 52
15, 403679, Note_on_c, 13, 57, 0
15, 403680, Note_on_c, 13, 60, 52
15, 403839, Note_on_c, 13, 60, 0
15, 403840, Note_on_c, 13, 48, 52
15, 403999, Note_on_c, 13, 48, 0
15, 404000, Note_on_c, 13, 60, 52
15, 404139, Note_on_c, 13, 60, 0
15, 404160, Note_on_c, 13, 48, 52
15, 404319, Note_on_c, 13, 48, 0
15, 404320, Note_on_c, 13, 53, 52
15, 404479, Note_on_c, 13, 53, 0
15, 404480, Note_on_c, 13, 57, 52
15, 404639, Note_on_c, 13, 57, 0
15, 404640, Note_on_c, 13, 60, 52
15, 404799, Note_on_c, 13, 60, 0
15, 404800, Note_on_c, 13, 48, 52
15, 404959, Note_on_c, 13, 48, 0
15, 404960, Note_on_c, 13, 60, 52
15, 405099, Note_on_c, 13, 60, 0
15, 405120, Note_on_c, 13, 48, 52
15, 405279, Note_on_c, 13, 48, 0
15, 405280, Note_on_c, 13, 55, 52
15, 405439, Note_on_c, 13, 55, 0
15, 405440, Note_on_c, 13, 58, 52
15, 405599, Note_on_c, 13, 58, 0
15, 405600, Note_on_c, 13, 60, 52
15, 405759, Note_on_c, 13, 60, 0
15, 405760, Note_on_c, 13, 48, 52
15, 405919, Note_on_c, 13, 48, 0
15, 405920, Note_on_c, 13, 60, 52
15, 406059, Note_on_c, 13, 60, 0
15, 406080, Note_on_c, 13, 48, 52
15, 406239, Note_on_c, 13, 48, 0
15, 406240, Note_on_c, 13, 55, 52
15, 406399, Note_on_c, 13, 55, 0
15, 406400, Note_on_c, 13, 58, 52
15, 406559, Note_on_c, 13, 58, 0
15, 406560, Note_on_c, 13, 60, 52
15, 406719, Note_on_c, 13, 60, 0
15, 406720, Note_on_c, 13, 48, 52
15, 406879, Note_on_c, 13, 48, 0
15, 406880, Note_on_c, 13, 60, 52
15, 407019, Note_on_c, 13, 60, 0
15, 407040, Note_on_c, 13, 48, 52
15, 407199, Note_on_c, 13, 48, 0
15, 407200, Note_on_c, 13, 53, 52
15, 407359, Note_on_c, 13, 53, 0
15, 407360, Note_on_c, 13, 57, 52
15, 407519, Note_on_c, 13, 57, 0
15, 407520, Note_on_c, 13, 60, 52
15, 407679, Note_on_c, 13, 60, 0
15, 407680, Note_on_c, 13, 48, 52
15, 407839, Note_on_c, 13, 48, 0
15, 407840, Note_on_c, 13, 60, 52
15, 407979, Note_on_c, 13, 60, 0
15, 408000, Note_on_c, 13, 48, 52
15, 408159, Note_on_c, 13, 48, 0
15, 408160, Note_on_c, 13, 53, 52
15, 408319, Note_on_c, 13, 53, 0
15, 408320, Note_on_c, 13, 57, 52
15, 408479, Note_on_c, 13, 57, 0
15, 408480, Note_on_c, 13, 60, 52
15, 408639, Note_on_c, 13, 60, 0
15, 408640, Note_on_c, 13, 48, 52
15, 408799, Note_on_c, 13, 48, 0
15, 408800, Note_on_c, 13, 60, 52
15, 408939, Note_on_c, 13, 60, 0
15, 408960, Note_on_c, 13, 48, 52
15, 409119, Note_on_c, 13, 48, 0
15, 409120, Note_on_c, 13, 55, 52
15, 409279, Note_on_c, 13, 55, 0
15, 409280, Note_on_c, 13, 58, 52
15, 409439, Note_on_c, 13, 58, 0
15, 409440, Note_on_c, 13, 60, 52
15, 409599, Note_on_c, 13, 60, 0
15, 409600, Note_on_c, 13, 48, 52
15, 409759, Note_on_c, 13, 48, 0
15, 409760, Note_on_c, 13, 60, 52
15, 409899, Note_on_c, 13, 60, 0
15, 409920, Note_on_c, 13, 48, 52
15, 410079, Note_on_c, 13, 48, 0
15, 410080, Note_on_c, 13, 55, 52
15, 410239, Note_on_c, 13, 55, 0
15, 410240, Note_on_c, 13, 58, 52
15, 410399, Note_on_c, 13, 58, 0
15, 410400, Note_on_c, 13, 60, 52
15, 410559, Note_on_c, 13, 60, 0
15, 410560, Note_on_c, 13, 48, 52
15, 410719, Note_on_c, 13, 48, 0
15, 410720, Note_on_c, 13, 60, 52
15, 410859, Note_on_c, 13, 60, 0
15, 410880, Note_on_c, 13, 48, 76
15, 410944, Note_on_c, 13, 48, 0
15, 410960, Note_on_c, 13, 60, 76
15, 411024, Note_on_c, 13, 60, 0
15, 411040, Note_on_c, 13, 60, 76
15, 411104, Note_on_c, 13, 60, 0
15, 411120, Note_on_c, 13, 60, 76
15, 411184, Note_on_c, 13, 60, 0
15, 411200, Note_on_c, 13, 60, 76
15, 411264, Note_on_c, 13, 60, 0
15, 411280, Note_on_c, 13, 60, 76
15, 411344, Note_on_c, 13, 60, 0
15, 411360, Note_on_c, 13, 60, 76
15, 411424, Note_on_c, 13, 60, 0
15, 411440, Note_on_c, 13, 60, 76
15, 411504, Note_on_c, 13, 60, 0
15, 411520, Note_on_c, 13, 60, 76
15, 411584, Note_on_c, 13, 60, 0
15, 411600, Note_on_c, 13, 60, 76
15, 411664, Note_on_c, 13, 60, 0
15, 411680, Note_on_c, 13, 60, 76
15, 411744, Note_on_c, 13, 60, 0
15, 411760, Note_on_c, 13, 60, 76
15, 411824, Note_on_c, 13, 60, 0
15, 411840, Note_on_c, 13, 50, 76
15, 411904, Note_on_c, 13, 50, 0
15, 411920, Note_on_c, 13, 62, 76
15, 411984, Note_on_c, 13, 62, 0
15, 412000, Note_on_c, 13, 62, 76
15, 412064, Note_on_c, 13, 62, 0
15, 412080, Note_on_c, 13, 62, 76
15, 412144, Note_on_c, 13, 62, 0
15, 412160, Note_on_c, 13, 62, 76
15, 412224, Note_on_c, 13, 62, 0
15, 412240, Note_on_c, 13, 62, 76
15, 412304, Note_on_c, 13, 62, 0
15, 412320, Note_on_c, 13, 62, 76
15, 412384, Note_on_c, 13, 62, 0
15, 412400, Note_on_c, 13, 62, 76
15, 412464, Note_on_c, 13, 62, 0
15, 412480, Note_on_c, 13, 62, 76
15, 412544, Note_on_c, 13, 62, 0
15, 412560, Note_on_c, 13, 62, 76
15, 412624, Note_on_c, 13, 62, 0
15, 412640, Note_on_c, 13, 62, 76
15, 412704, Note_on_c, 13, 62, 0
15, 412720, Note_on_c, 13, 62, 76
15, 412784, Note_on_c, 13, 62, 0
15, 412800, Note_on_c, 13, 62, 76
15, 412800, Note_on_c, 13, 58, 76
15, 412864, Note_on_c, 13, 62, 0
15, 412864, Note_on_c, 13, 58, 0
15, 412880, Note_on_c, 13, 62, 76
15, 412880, Note_on_c, 13, 58, 76
15, 412944, Note_on_c, 13, 62, 0
15, 412944, Note_on_c, 13, 58, 0
15, 412960, Note_on_c, 13, 58, 76
15, 412960, Note_on_c, 13, 62, 76
15, 413024, Note_on_c, 13, 58, 0
15, 413024, Note_on_c, 13, 62, 0
15, 413040, Note_on_c, 13, 58, 76
15, 413040, Note_on_c, 13, 62, 76
15, 413104, Note_on_c, 13, 58, 0
15, 413104, Note_on_c, 13, 62, 0
15, 413120, Note_on_c, 13, 62, 76
15, 413120, Note_on_c, 13, 58, 76
15, 413184, Note_on_c, 13, 62, 0
15, 413184, Note_on_c, 13, 58, 0
15, 413200, Note_on_c, 13, 58, 76
15, 413200, Note_on_c, 13, 62, 76
15, 413264, Note_on_c, 13, 58, 0
15, 413264, Note_on_c, 13, 62, 0
15, 413280, Note_on_c, 13, 58, 76
15, 413280, Note_on_c, 13, 62, 76
15, 413344, Note_on_c, 13, 58, 0
15, 413344, Note_on_c, 13, 62, 0
15, 413360, Note_on_c, 13, 58, 76
15, 413360, Note_on_c, 13, 62, 76
15, 413424, Note_on_c, 13, 58, 0
15, 413424, Note_on_c, 13, 62, 0
15, 413440, Note_on_c, 13, 58, 76
15, 413440, Note_on_c, 13, 62, 76
15, 413504, Note_on_c, 13, 58, 0
15, 413504, Note_on_c, 13, 62, 0
15, 413520, Note_on_c, 13, 58, 76
15, 413520, Note_on_c, 13, 62, 76
15, 413584, Note_on_c, 13, 58, 0
15, 413584, Note_on_c, 13, 62, 0
15, 413600, Note_on_c, 13, 58, 76
15, 413600, Note_on_c, 13, 62, 76
15, 413664, Note_on_c, 13, 58, 0
15, 413664, Note_on_c, 13, 62, 0
15, 413680, Note_on_c, 13, 62, 76
15, 413680, Note_on_c, 13, 58, 76
15, 413744, Note_on_c, 13, 62, 0
15, 413744, Note_on_c, 13, 58, 0
15, 413760, Note_on_c, 13, 48, 76
15, 413824, Note_on_c, 13, 48, 0
15, 413840, Note_on_c, 13, 60, 76
15, 413904, Note_on_c, 13, 60, 0
15, 413920, Note_on_c, 13, 60, 76
15, 413984, Note_on_c, 13, 60, 0
15, 414000, Note_on_c, 13, 60, 76
15, 414064, Note_on_c, 13, 60, 0
15, 414080, Note_on_c, 13, 60, 76
15, 414144, Note_on_c, 13, 60, 0
15, 414160, Note_on_c, 13, 60, 76
15, 414224, Note_on_c, 13, 60, 0
15, 414240, Note_on_c, 13, 60, 76
15, 414304, Note_on_c, 13, 60, 0
15, 414320, Note_on_c, 13, 60, 76
15, 414384, Note_on_c, 13, 60, 0
15, 414400, Note_on_c, 13, 60, 76
15, 414464, Note_on_c, 13, 60, 0
15, 414480, Note_on_c, 13, 60, 76
15, 414544, Note_on_c, 13, 60, 0
15, 414560, Note_on_c, 13, 60, 76
15, 414624, Note_on_c, 13, 60, 0
15, 414640, Note_on_c, 13, 60, 76
15, 414704, Note_on_c, 13, 60, 0
15, 414720, Note_on_c, 13, 51, 84
15, 414784, Note_on_c, 13, 51, 0
15, 414800, Note_on_c, 13, 51, 84
15, 414864, Note_on_c, 13, 51, 0
15, 414880, Note_on_c, 13, 51, 84
15, 414944, Note_on_c, 13, 51, 0
15, 414960, Note_on_c, 13, 51, 84
15, 415024, Note_on_c, 13, 51, 0
15, 415040, Note_on_c, 13, 51, 84
15, 415104, Note_on_c, 13, 51, 0
15, 415120, Note_on_c, 13, 51, 84
15, 415184, Note_on_c, 13, 51, 0
15, 415200, Note_on_c, 13, 51, 84
15, 415264, Note_on_c, 13, 51, 0
15, 415280, Note_on_c, 13, 51, 84
15, 415344, Note_on_c, 13, 51, 0
15, 415360, Note_on_c, 13, 51, 84
15, 415424, Note_on_c, 13, 51, 0
15, 415440, Note_on_c, 13, 51, 84
15, 415504, Note_on_c, 13, 51, 0
15, 415520, Note_on_c, 13, 51, 84
15, 415584, Note_on_c, 13, 51, 0
15, 415600, Note_on_c, 13, 51, 84
15, 415664, Note_on_c, 13, 51, 0
15, 415680, Note_on_c, 13, 51, 84
15, 415744, Note_on_c, 13, 51, 0
15, 415760, Note_on_c, 13, 51, 84
15, 415824, Note_on_c, 13, 51, 0
15, 415840, Note_on_c, 13, 51, 84
15, 415904, Note_on_c, 13, 51, 0
15, 415920, Note_on_c, 13, 51, 84
15, 415984, Note_on_c, 13, 51, 0
15, 416000, Note_on_c, 13, 51, 84
15, 416064, Note_on_c, 13, 51, 0
15, 416080, Note_on_c, 13, 51, 84
15, 416144, Note_on_c, 13, 51, 0
15, 416160, Note_on_c, 13, 51, 84
15, 416224, Note_on_c, 13, 51, 0
15, 416240, Note_on_c, 13, 51, 84
15, 416304, Note_on_c, 13, 51, 0
15, 416320, Note_on_c, 13, 51, 84
15, 416384, Note_on_c, 13, 51, 0
15, 416400, Note_on_c, 13, 51, 84
15, 416464, Note_on_c, 13, 51, 0
15, 416480, Note_on_c, 13, 51, 84
15, 416544, Note_on_c, 13, 51, 0
15, 416560, Note_on_c, 13, 51, 84
15, 416624, Note_on_c, 13, 51, 0
15, 416640, Note_on_c, 13, 53, 84
15, 416759, Note_on_c, 13, 53, 0
15, 416760, Note_on_c, 13, 54, 84
15, 416859, Note_on_c, 13, 54, 0
15, 416880, Note_on_c, 13, 51, 84
15, 417039, Note_on_c, 13, 51, 0
15, 417120, Note_on_c, 13, 53, 84
15, 417239, Note_on_c, 13, 53, 0
15, 417240, Note_on_c, 13, 54, 84
15, 417339, Note_on_c, 13, 54, 0
15, 417360, Note_on_c, 13, 51, 84
15, 417519, Note_on_c, 13, 51, 0
15, 417600, Note_on_c, 13, 53, 84
15, 417719, Note_on_c, 13, 53, 0
15, 417720, Note_on_c, 13, 54, 84
15, 417819, Note_on_c, 13, 54, 0
15, 417840, Note_on_c, 13, 51, 84
15, 417999, Note_on_c, 13, 51, 0
15, 418080, Note_on_c, 13, 53, 84
15, 418199, Note_on_c, 13, 53, 0
15, 418200, Note_on_c, 13, 54, 84
15, 418299, Note_on_c, 13, 54, 0
15, 418320, Note_on_c, 13, 51, 84
15, 418479, Note_on_c, 13, 51, 0
15, 418560, Note_on_c, 13, 52, 84
15, 418799, Note_on_c, 13, 52, 0
15, 419040, Note_on_c, 13, 55, 84
15, 419040, Note_on_c, 13, 52, 84
15, 419279, Note_on_c, 13, 55, 0
15, 419279, Note_on_c, 13, 52, 0
15, 419520, Note_on_c, 13, 48, 84
15, 419520, Note_on_c, 13, 55, 84
15, 419759, Note_on_c, 13, 48, 0
15, 419759, Note_on_c, 13, 55, 0
15, 420000, Note_on_c, 13, 60, 84
15, 420000, Note_on_c, 13, 48, 84
15, 420239, Note_on_c, 13, 60, 0
15, 420239, Note_on_c, 13, 48, 0
15, 421920, Note_on_c, 13, 60, 52
15, 421920, Note_on_c, 13, 67, 52
15, 422064, Note_on_c, 13, 60, 0
15, 422064, Note_on_c, 13, 67, 0
15, 422080, Note_on_c, 13, 60, 52
15, 422080, Note_on_c, 13, 67, 52
15, 422224, Note_on_c, 13, 60, 0
15, 422224, Note_on_c, 13, 67, 0
15, 422240, Note_on_c, 13, 60, 52
15, 422240, Note_on_c, 13, 67, 52
15, 422384, Note_on_c, 13, 60, 0
15, 422384, Note_on_c, 13, 67, 0
15, 422400, Note_on_c, 13, 67, 52
15, 422400, Note_on_c, 13, 60, 52
15, 422639, Note_on_c, 13, 67, 0
15, 422639, Note_on_c, 13, 60, 0
15, 423840, Note_on_c, 13, 65, 52
15, 423840, Note_on_c, 13, 69, 52
15, 423984, Note_on_c, 13, 65, 0
15, 423984, Note_on_c, 13, 69, 0
15, 424000, Note_on_c, 13, 65, 52
15, 424000, Note_on_c, 13, 69, 52
15, 424144, Note_on_c, 13, 65, 0
15, 424144, Note_on_c, 13, 69, 0
15, 424160, Note_on_c, 13, 69, 52
15, 424160, Note_on_c, 13, 65, 52
15, 424304, Note_on_c, 13, 69, 0
15, 424304, Note_on_c, 13, 65, 0
15, 424320, Note_on_c, 13, 65, 52
15, 424320, Note_on_c, 13, 69, 52
15, 424559, Note_on_c, 13, 65, 0
15, 424559, Note_on_c, 13, 69, 0
15, 424800, Note_on_c, 13, 53, 76
15, 424800, Note_on_c, 13, 57, 76
15, 424864, Note_on_c, 13, 53, 0
15, 424864, Note_on_c, 13, 57, 0
15, 424880, Note_on_c, 13, 57, 76
15, 424880, Note_on_c, 13, 53, 76
15, 424944, Note_on_c, 13, 57, 0
15, 424944, Note_on_c, 13, 53, 0
15, 424960, Note_on_c, 13, 53, 76
15, 424960, Note_on_c, 13, 57, 76
15, 425024, Note_on_c, 13, 53, 0
15, 425024, Note_on_c, 13, 57, 0
15, 425040, Note_on_c, 13, 53, 76
15, 425040, Note_on_c, 13, 57, 76
15, 425104, Note_on_c, 13, 53, 0
15, 425104, Note_on_c, 13, 57, 0
15, 425120, Note_on_c, 13, 53, 76
15, 425120, Note_on_c, 13, 57, 76
15, 425184, Note_on_c, 13, 53, 0
15, 425184, Note_on_c, 13, 57, 0
15, 425200, Note_on_c, 13, 53, 76
15, 425200, Note_on_c, 13, 57, 76
15, 425264, Note_on_c, 13, 53, 0
15, 425264, Note_on_c, 13, 57, 0
15, 425280, Note_on_c, 13, 57, 76
15, 425280, Note_on_c, 13, 53, 76
15, 425399, Note_on_c, 13, 57, 0
15, 425399, Note_on_c, 13, 53, 0
15, 425400, Note_on_c, 13, 55, 76
15, 425400, Note_on_c, 13, 58, 76
15, 425499, Note_on_c, 13, 55, 0
15, 425499, Note_on_c, 13, 58, 0
15, 425520, Note_on_c, 13, 48, 76
15, 425520, Note_on_c, 13, 55, 76
15, 425679, Note_on_c, 13, 48, 0
15, 425679, Note_on_c, 13, 55, 0
15, 425760, Note_on_c, 13, 58, 76
15, 425760, Note_on_c, 13, 55, 76
15, 425824, Note_on_c, 13, 58, 0
15, 425824, Note_on_c, 13, 55, 0
15, 425840, Note_on_c, 13, 55, 76
15, 425840, Note_on_c, 13, 58, 76
15, 425904, Note_on_c, 13, 55, 0
15, 425904, Note_on_c, 13, 58, 0
15, 425920, Note_on_c, 13, 58, 76
15, 425920, Note_on_c, 13, 55, 76
15, 425984, Note_on_c, 13, 58, 0
15, 425984, Note_on_c, 13, 55, 0
15, 426000, Note_on_c, 13, 58, 76
15, 426000, Note_on_c, 13, 55, 76
15, 426064, Note_on_c, 13, 58, 0
15, 426064, Note_on_c, 13, 55, 0
15, 426080, Note_on_c, 13, 58, 76
15, 426080, Note_on_c, 13, 55, 76
15, 426144, Note_on_c, 13, 58, 0
15, 426144, Note_on_c, 13, 55, 0
15, 426160, Note_on_c, 13, 55, 76
15, 426160, Note_on_c, 13, 58, 76
15, 426224, Note_on_c, 13, 55, 0
15, 426224, Note_on_c, 13, 58, 0
15, 426240, Note_on_c, 13, 55, 76
15, 426240, Note_on_c, 13, 58, 76
15, 426359, Note_on_c, 13, 55, 0
15, 426359, Note_on_c, 13, 58, 0
15, 426360, Note_on_c, 13, 57, 76
15, 426360, Note_on_c, 13, 60, 76
15, 426459, Note_on_c, 13, 57, 0
15, 426459, Note_on_c, 13, 60, 0
15, 426480, Note_on_c, 13, 53, 76
15, 426480, Note_on_c, 13, 57, 76
15, 426639, Note_on_c, 13, 53, 0
15, 426639, Note_on_c, 13, 57, 0
15, 426720, Note_on_c, 13, 53, 76
15, 426720, Note_on_c, 13, 57, 76
15, 426784, Note_on_c, 13, 53, 0
15, 426784, Note_on_c, 13, 57, 0
15, 426800, Note_on_c, 13, 53, 76
15, 426800, Note_on_c, 13, 57, 76
15, 426864, Note_on_c, 13, 53, 0
15, 426864, Note_on_c, 13, 57, 0
15, 426880, Note_on_c, 13, 53, 76
15, 426880, Note_on_c, 13, 57, 76
15, 426944, Note_on_c, 13, 53, 0
15, 426944, Note_on_c, 13, 57, 0
15, 426960, Note_on_c, 13, 53, 76
15, 426960, Note_on_c, 13, 57, 76
15, 427024, Note_on_c, 13, 53, 0
15, 427024, Note_on_c, 13, 57, 0
15, 427040, Note_on_c, 13, 57, 76
15, 427040, Note_on_c, 13, 53, 76
15, 427104, Note_on_c, 13, 57, 0
15, 427104, Note_on_c, 13, 53, 0
15, 427120, Note_on_c, 13, 57, 76
15, 427120, Note_on_c, 13, 53, 76
15, 427184, Note_on_c, 13, 57, 0
15, 427184, Note_on_c, 13, 53, 0
15, 427200, Note_on_c, 13, 57, 76
15, 427200, Note_on_c, 13, 53, 76
15, 427319, Note_on_c, 13, 57, 0
15, 427319, Note_on_c, 13, 53, 0
15, 427320, Note_on_c, 13, 55, 76
15, 427320, Note_on_c, 13, 58, 76
15, 427419, Note_on_c, 13, 55, 0
15, 427419, Note_on_c, 13, 58, 0
15, 427440, Note_on_c, 13, 55, 76
15, 427440, Note_on_c, 13, 48, 76
15, 427599, Note_on_c, 13, 55, 0
15, 427599, Note_on_c, 13, 48, 0
15, 427680, Note_on_c, 13, 57, 76
15, 427680, Note_on_c, 13, 53, 76
15, 427799, Note_on_c, 13, 57, 0
15, 427799, Note_on_c, 13, 53, 0
15, 427800, Note_on_c, 13, 55, 76
15, 427800, Note_on_c, 13, 58, 76
15, 427899, Note_on_c, 13, 55, 0
15, 427899, Note_on_c, 13, 58, 0
15, 427920, Note_on_c, 13, 48, 76
15, 427920, Note_on_c, 13, 55, 76
15, 428079, Note_on_c, 13, 48, 0
15, 428079, Note_on_c, 13, 55, 0
15, 428160, Note_on_c, 13, 58, 76
15, 428160, Note_on_c, 13, 55, 76
15, 428279, Note_on_c, 13, 58, 0
15, 428279, Note_on_c, 13, 55, 0
15, 428280, Note_on_c, 13, 57, 76
15, 428280, Note_on_c, 13, 60, 76
15, 428379, Note_on_c, 13, 57, 0
15, 428379, Note_on_c, 13, 60, 0
15, 428400, Note_on_c, 13, 57, 76
15, 428400, Note_on_c, 13, 53, 76
15, 428559, Note_on_c, 13, 57, 0
15, 428559, Note_on_c, 13, 53, 0
15, 428640, Note_on_c, 13, 53, 76
15, 428640, Note_on_c, 13, 57, 76
15, 428704, Note_on_c, 13, 53, 0
15, 428704, Note_on_c, 13, 57, 0
15, 428720, Note_on_c, 13, 53, 76
15, 428720, Note_on_c, 13, 57, 76
15, 428784, Note_on_c, 13, 53, 0
15, 428784, Note_on_c, 13, 57, 0
15, 428800, Note_on_c, 13, 53, 76
15, 428800, Note_on_c, 13, 57, 76
15, 428864, Note_on_c, 13, 53, 0
15, 428864, Note_on_c, 13, 57, 0
15, 428880, Note_on_c, 13, 57, 76
15, 428880, Note_on_c, 13, 53, 76
15, 428944, Note_on_c, 13, 57, 0
15, 428944, Note_on_c, 13, 53, 0
15, 428960, Note_on_c, 13, 57, 76
15, 428960, Note_on_c, 13, 53, 76
15, 429024, Note_on_c, 13, 57, 0
15, 429024, Note_on_c, 13, 53, 0
15, 429040, Note_on_c, 13, 57, 76
15, 429040, Note_on_c, 13, 53, 76
15, 429104, Note_on_c, 13, 57, 0
15, 429104, Note_on_c, 13, 53, 0
15, 429120, Note_on_c, 13, 57, 76
15, 429120, Note_on_c, 13, 53, 76
15, 429239, Note_on_c, 13, 57, 0
15, 429239, Note_on_c, 13, 53, 0
15, 429240, Note_on_c, 13, 55, 76
15, 429240, Note_on_c, 13, 58, 76
15, 429339, Note_on_c, 13, 55, 0
15, 429339, Note_on_c, 13, 58, 0
15, 429360, Note_on_c, 13, 48, 76
15, 429360, Note_on_c, 13, 55, 76
15, 429519, Note_on_c, 13, 48, 0
15, 429519, Note_on_c, 13, 55, 0
15, 429600, Note_on_c, 13, 53, 76
15, 429600, Note_on_c, 13, 57, 76
15, 429719, Note_on_c, 13, 53, 0
15, 429719, Note_on_c, 13, 57, 0
15, 429720, Note_on_c, 13, 55, 76
15, 429720, Note_on_c, 13, 58, 76
15, 429819, Note_on_c, 13, 55, 0
15, 429819, Note_on_c, 13, 58, 0
15, 429840, Note_on_c, 13, 48, 76
15, 429840, Note_on_c, 13, 55, 76
15, 429999, Note_on_c, 13, 48, 0
15, 429999, Note_on_c, 13, 55, 0
15, 430080, Note_on_c, 13, 58, 76
15, 430080, Note_on_c, 13, 55, 76
15, 430199, Note_on_c, 13, 58, 0
15, 430199, Note_on_c, 13, 55, 0
15, 430200, Note_on_c, 13, 57, 76
15, 430200, Note_on_c, 13, 60, 76
15, 430299, Note_on_c, 13, 57, 0
15, 430299, Note_on_c, 13, 60, 0
15, 430320, Note_on_c, 13, 53, 76
15, 430320, Note_on_c, 13, 57, 76
15, 430479, Note_on_c, 13, 53, 0
15, 430479, Note_on_c, 13, 57, 0
15, 430560, Note_on_c, 13, 58, 76
15, 430560, Note_on_c, 13, 55, 76
15, 430679, Note_on_c, 13, 58, 0
15, 430679, Note_on_c, 13, 55, 0
15, 430680, Note_on_c, 13, 60, 76
15, 430680, Note_on_c, 13, 57, 76
15, 430779, Note_on_c, 13, 60, 0
15, 430779, Note_on_c, 13, 57, 0
15, 430800, Note_on_c, 13, 57, 76
15, 430800, Note_on_c, 13, 53, 76
15, 430959, Note_on_c, 13, 57, 0
15, 430959, Note_on_c, 13, 53, 0
15, 431040, Note_on_c, 13, 58, 76
15, 431040, Note_on_c, 13, 55, 76
15, 431104, Note_on_c, 13, 58, 0
15, 431104, Note_on_c, 13, 55, 0
15, 431120, Note_on_c, 13, 58, 76
15, 431120, Note_on_c, 13, 55, 76
15, 431184, Note_on_c, 13, 58, 0
15, 431184, Note_on_c, 13, 55, 0
15, 431200, Note_on_c, 13, 58, 76
15, 431200, Note_on_c, 13, 55, 76
15, 431264, Note_on_c, 13, 58, 0
15, 431264, Note_on_c, 13, 55, 0
15, 431280, Note_on_c, 13, 57, 76
15, 431280, Note_on_c, 13, 60, 76
15, 431344, Note_on_c, 13, 57, 0
15, 431344, Note_on_c, 13, 60, 0
15, 431360, Note_on_c, 13, 60, 76
15, 431360, Note_on_c, 13, 57, 76
15, 431424, Note_on_c, 13, 60, 0
15, 431424, Note_on_c, 13, 57, 0
15, 431440, Note_on_c, 13, 60, 76
15, 431440, Note_on_c, 13, 57, 76
15, 431504, Note_on_c, 13, 60, 0
15, 431504, Note_on_c, 13, 57, 0
15, 431520, Note_on_c, 13, 62, 76
15, 431520, Note_on_c, 13, 58, 76
15, 431584, Note_on_c, 13, 62, 0
15, 431584, Note_on_c, 13, 58, 0
15, 431600, Note_on_c, 13, 58, 76
15, 431600, Note_on_c, 13, 62, 76
15, 431664, Note_on_c, 13, 58, 0
15, 431664, Note_on_c, 13, 62, 0
15, 431680, Note_on_c, 13, 58, 76
15, 431680, Note_on_c, 13, 62, 76
15, 431744, Note_on_c, 13, 58, 0
15, 431744, Note_on_c, 13, 62, 0
15, 431760, Note_on_c, 13, 55, 76
15, 431760, Note_on_c, 13, 64, 76
15, 431824, Note_on_c, 13, 55, 0
15, 431824, Note_on_c, 13, 64, 0
15, 431840, Note_on_c, 13, 64, 76
15, 431840, Note_on_c, 13, 55, 76
15, 431904, Note_on_c, 13, 64, 0
15, 431904, Note_on_c, 13, 55, 0
15, 431920, Note_on_c, 13, 55, 76
15, 431920, Note_on_c, 13, 64, 76
15, 431984, Note_on_c, 13, 55, 0
15, 431984, Note_on_c, 13, 64, 0
15, 432000, Note_on_c, 13, 57, 84
15, 432000, Note_on_c, 13, 65, 84
15, 432064, Note_on_c, 13, 57, 0
15, 432064, Note_on_c, 13, 65, 0
15, 432080, Note_on_c, 13, 57, 76
15, 432080, Note_on_c, 13, 65, 76
15, 432144, Note_on_c, 13, 57, 0
15, 432144, Note_on_c, 13, 65, 0
15, 432160, Note_on_c, 13, 57, 76
15, 432160, Note_on_c, 13, 65, 76
15, 432224, Note_on_c, 13, 57, 0
15, 432224, Note_on_c, 13, 65, 0
15, 432240, Note_on_c, 13, 57, 76
15, 432240, Note_on_c, 13, 65, 76
15, 432304, Note_on_c, 13, 57, 0
15, 432304, Note_on_c, 13, 65, 0
15, 432320, Note_on_c, 13, 65, 76
15, 432320, Note_on_c, 13, 57, 76
15, 432384, Note_on_c, 13, 65, 0
15, 432384, Note_on_c, 13, 57, 0
15, 432400, Note_on_c, 13, 65, 76
15, 432400, Note_on_c, 13, 57, 76
15, 432464, Note_on_c, 13, 65, 0
15, 432464, Note_on_c, 13, 57, 0
15, 432480, Note_on_c, 13, 57, 76
15, 432480, Note_on_c, 13, 65, 76
15, 432544, Note_on_c, 13, 57, 0
15, 432544, Note_on_c, 13, 65, 0
15, 432560, Note_on_c, 13, 57, 76
15, 432560, Note_on_c, 13, 65, 76
15, 432624, Note_on_c, 13, 57, 0
15, 432624, Note_on_c, 13, 65, 0
15, 432640, Note_on_c, 13, 57, 76
15, 432640, Note_on_c, 13, 65, 76
15, 432704, Note_on_c, 13, 57, 0
15, 432704, Note_on_c, 13, 65, 0
15, 432720, Note_on_c, 13, 65, 76
15, 432720, Note_on_c, 13, 57, 76
15, 432784, Note_on_c, 13, 65, 0
15, 432784, Note_on_c, 13, 57, 0
15, 432800, Note_on_c, 13, 57, 76
15, 432800, Note_on_c, 13, 65, 76
15, 432864, Note_on_c, 13, 57, 0
15, 432864, Note_on_c, 13, 65, 0
15, 432880, Note_on_c, 13, 65, 76
15, 432880, Note_on_c, 13, 57, 76
15, 432944, Note_on_c, 13, 65, 0
15, 432944, Note_on_c, 13, 57, 0
15, 432960, Note_on_c, 13, 53, 84
15, 432960, Note_on_c, 13, 57, 84
15, 433024, Note_on_c, 13, 53, 0
15, 433024, Note_on_c, 13, 57, 0
15, 433040, Note_on_c, 13, 53, 76
15, 433040, Note_on_c, 13, 57, 76
15, 433104, Note_on_c, 13, 53, 0
15, 433104, Note_on_c, 13, 57, 0
15, 433120, Note_on_c, 13, 57, 76
15, 433120, Note_on_c, 13, 53, 76
15, 433184, Note_on_c, 13, 57, 0
15, 433184, Note_on_c, 13, 53, 0
15, 433200, Note_on_c, 13, 57, 76
15, 433200, Note_on_c, 13, 53, 76
15, 433264, Note_on_c, 13, 57, 0
15, 433264, Note_on_c, 13, 53, 0
15, 433280, Note_on_c, 13, 53, 76
15, 433280, Note_on_c, 13, 57, 76
15, 433344, Note_on_c, 13, 53, 0
15, 433344, Note_on_c, 13, 57, 0
15, 433360, Note_on_c, 13, 53, 76
15, 433360, Note_on_c, 13, 57, 76
15, 433424, Note_on_c, 13, 53, 0
15, 433424, Note_on_c, 13, 57, 0
15, 433440, Note_on_c, 13, 57, 76
15, 433440, Note_on_c, 13, 53, 76
15, 433504, Note_on_c, 13, 57, 0
15, 433504, Note_on_c, 13, 53, 0
15, 433520, Note_on_c, 13, 57, 76
15, 433520, Note_on_c, 13, 53, 76
15, 433584, Note_on_c, 13, 57, 0
15, 433584, Note_on_c, 13, 53, 0
15, 433600, Note_on_c, 13, 57, 76
15, 433600, Note_on_c, 13, 53, 76
15, 433664, Note_on_c, 13, 57, 0
15, 433664, Note_on_c, 13, 53, 0
15, 433680, Note_on_c, 13, 53, 76
15, 433680, Note_on_c, 13, 57, 76
15, 433744, Note_on_c, 13, 53, 0
15, 433744, Note_on_c, 13, 57, 0
15, 433760, Note_on_c, 13, 53, 76
15, 433760, Note_on_c, 13, 57, 76
15, 433824, Note_on_c, 13, 53, 0
15, 433824, Note_on_c, 13, 57, 0
15, 433840, Note_on_c, 13, 57, 76
15, 433840, Note_on_c, 13, 53, 76
15, 433904, Note_on_c, 13, 57, 0
15, 433904, Note_on_c, 13, 53, 0
15, 433920, Note_on_c, 13, 69, 84
15, 433920, Note_on_c, 13, 65, 84
15, 433984, Note_on_c, 13, 69, 0
15, 433984, Note_on_c, 13, 65, 0
15, 434000, Note_on_c, 13, 65, 76
15, 434000, Note_on_c, 13, 69, 76
15, 434064, Note_on_c, 13, 65, 0
15, 434064, Note_on_c, 13, 69, 0
15, 434080, Note_on_c, 13, 65, 76
15, 434080, Note_on_c, 13, 69, 76
15, 434144, Note_on_c, 13, 65, 0
15, 434144, Note_on_c, 13, 69, 0
15, 434160, Note_on_c, 13, 69, 76
15, 434160, Note_on_c, 13, 65, 76
15, 434224, Note_on_c, 13, 69, 0
15, 434224, Note_on_c, 13, 65, 0
15, 434240, Note_on_c, 13, 69, 76
15, 434240, Note_on_c, 13, 65, 76
15, 434304, Note_on_c, 13, 69, 0
15, 434304, Note_on_c, 13, 65, 0
15, 434320, Note_on_c, 13, 65, 76
15, 434320, Note_on_c, 13, 69, 76
15, 434384, Note_on_c, 13, 65, 0
15, 434384, Note_on_c, 13, 69, 0
15, 434400, Note_on_c, 13, 65, 76
15, 434400, Note_on_c, 13, 69, 76
15, 434464, Note_on_c, 13, 65, 0
15, 434464, Note_on_c, 13, 69, 0
15, 434480, Note_on_c, 13, 65, 76
15, 434480, Note_on_c, 13, 69, 76
15, 434544, Note_on_c, 13, 65, 0
15, 434544, Note_on_c, 13, 69, 0
15, 434560, Note_on_c, 13, 69, 76
15, 434560, Note_on_c, 13, 65, 76
15, 434624, Note_on_c, 13, 69, 0
15, 434624, Note_on_c, 13, 65, 0
15, 434640, Note_on_c, 13, 69, 76
15, 434640, Note_on_c, 13, 65, 76
15, 434704, Note_on_c, 13, 69, 0
15, 434704, Note_on_c, 13, 65, 0
15, 434720, Note_on_c, 13, 65, 76
15, 434720, Note_on_c, 13, 69, 76
15, 434784, Note_on_c, 13, 65, 0
15, 434784, Note_on_c, 13, 69, 0
15, 434800, Note_on_c, 13, 65, 76
15, 434800, Note_on_c, 13, 69, 76
15, 434864, Note_on_c, 13, 65, 0
15, 434864, Note_on_c, 13, 69, 0
15, 434880, Note_on_c, 13, 57, 84
15, 434880, Note_on_c, 13, 53, 84
15, 434944, Note_on_c, 13, 57, 0
15, 434944, Note_on_c, 13, 53, 0
15, 434960, Note_on_c, 13, 57, 76
15, 434960, Note_on_c, 13, 53, 76
15, 435024, Note_on_c, 13, 57, 0
15, 435024, Note_on_c, 13, 53, 0
15, 435040, Note_on_c, 13, 57, 76
15, 435040, Note_on_c, 13, 53, 76
15, 435104, Note_on_c, 13, 57, 0
15, 435104, Note_on_c, 13, 53, 0
15, 435120, Note_on_c, 13, 53, 76
15, 435120, Note_on_c, 13, 57, 76
15, 435184, Note_on_c, 13, 53, 0
15, 435184, Note_on_c, 13, 57, 0
15, 435200, Note_on_c, 13, 57, 76
15, 435200, Note_on_c, 13, 53, 76
15, 435264, Note_on_c, 13, 57, 0
15, 435264, Note_on_c, 13, 53, 0
15, 435280, Note_on_c, 13, 57, 76
15, 435280, Note_on_c, 13, 53, 76
15, 435344, Note_on_c, 13, 57, 0
15, 435344, Note_on_c, 13, 53, 0
15, 435360, Note_on_c, 13, 57, 76
15, 435360, Note_on_c, 13, 53, 76
15, 435424, Note_on_c, 13, 57, 0
15, 435424, Note_on_c, 13, 53, 0
15, 435440, Note_on_c, 13, 53, 76
15, 435440, Note_on_c, 13, 57, 76
15, 435504, Note_on_c, 13, 53, 0
15, 435504, Note_on_c, 13, 57, 0
15, 435520, Note_on_c, 13, 57, 76
15, 435520, Note_on_c, 13, 53, 76
15, 435584, Note_on_c, 13, 57, 0
15, 435584, Note_on_c, 13, 53, 0
15, 435600, Note_on_c, 13, 57, 76
15, 435600, Note_on_c, 13, 53, 76
15, 435664, Note_on_c, 13, 57, 0
15, 435664, Note_on_c, 13, 53, 0
15, 435680, Note_on_c, 13, 57, 76
15, 435680, Note_on_c, 13, 53, 76
15, 435744, Note_on_c, 13, 57, 0
15, 435744, Note_on_c, 13, 53, 0
15, 435760, Note_on_c, 13, 57, 76
15, 435760, Note_on_c, 13, 53, 76
15, 435824, Note_on_c, 13, 57, 0
15, 435824, Note_on_c, 13, 53, 0
15, 435840, Note_on_c, 13, 65, 84
15, 435840, Note_on_c, 13, 69, 84
15, 435904, Note_on_c, 13, 65, 0
15, 435904, Note_on_c, 13, 69, 0
15, 435920, Note_on_c, 13, 65, 76
15, 435920, Note_on_c, 13, 69, 76
15, 435984, Note_on_c, 13, 65, 0
15, 435984, Note_on_c, 13, 69, 0
15, 436000, Note_on_c, 13, 65, 76
15, 436000, Note_on_c, 13, 69, 76
15, 436064, Note_on_c, 13, 65, 0
15, 436064, Note_on_c, 13, 69, 0
15, 436080, Note_on_c, 13, 69, 76
15, 436080, Note_on_c, 13, 65, 76
15, 436144, Note_on_c, 13, 69, 0
15, 436144, Note_on_c, 13, 65, 0
15, 436160, Note_on_c, 13, 65, 76
15, 436160, Note_on_c, 13, 69, 76
15, 436224, Note_on_c, 13, 65, 0
15, 436224, Note_on_c, 13, 69, 0
15, 436240, Note_on_c, 13, 65, 76
15, 436240, Note_on_c, 13, 69, 76
15, 436304, Note_on_c, 13, 65, 0
15, 436304, Note_on_c, 13, 69, 0
15, 436320, Note_on_c, 13, 57, 84
15, 436320, Note_on_c, 13, 53, 84
15, 436384, Note_on_c, 13, 57, 0
15, 436384, Note_on_c, 13, 53, 0
15, 436400, Note_on_c, 13, 53, 76
15, 436400, Note_on_c, 13, 57, 76
15, 436464, Note_on_c, 13, 53, 0
15, 436464, Note_on_c, 13, 57, 0
15, 436480, Note_on_c, 13, 53, 76
15, 436480, Note_on_c, 13, 57, 76
15, 436544, Note_on_c, 13, 53, 0
15, 436544, Note_on_c, 13, 57, 0
15, 436560, Note_on_c, 13, 57, 76
15, 436560, Note_on_c, 13, 53, 76
15, 436624, Note_on_c, 13, 57, 0
15, 436624, Note_on_c, 13, 53, 0
15, 436640, Note_on_c, 13, 57, 76
15, 436640, Note_on_c, 13, 53, 76
15, 436704, Note_on_c, 13, 57, 0
15, 436704, Note_on_c, 13, 53, 0
15, 436720, Note_on_c, 13, 57, 76
15, 436720, Note_on_c, 13, 53, 76
15, 436784, Note_on_c, 13, 57, 0
15, 436784, Note_on_c, 13, 53, 0
15, 436800, Note_on_c, 13, 65, 84
15, 436800, Note_on_c, 13, 69, 84
15, 436864, Note_on_c, 13, 65, 0
15, 436864, Note_on_c, 13, 69, 0
15, 436880, Note_on_c, 13, 65, 76
15, 436880, Note_on_c, 13, 69, 76
15, 436944, Note_on_c, 13, 65, 0
15, 436944, Note_on_c, 13, 69, 0
15, 436960, Note_on_c, 13, 69, 76
15, 436960, Note_on_c, 13, 65, 76
15, 437024, Note_on_c, 13, 69, 0
15, 437024, Note_on_c, 13, 65, 0
15, 437040, Note_on_c, 13, 69, 76
15, 437040, Note_on_c, 13, 65, 76
15, 437104, Note_on_c, 13, 69, 0
15, 437104, Note_on_c, 13, 65, 0
15, 437120, Note_on_c, 13, 69, 76
15, 437120, Note_on_c, 13, 65, 76
15, 437184, Note_on_c, 13, 69, 0
15, 437184, Note_on_c, 13, 65, 0
15, 437200, Note_on_c, 13, 69, 76
15, 437200, Note_on_c, 13, 65, 76
15, 437264, Note_on_c, 13, 69, 0
15, 437264, Note_on_c, 13, 65, 0
15, 437280, Note_on_c, 13, 57, 84
15, 437280, Note_on_c, 13, 53, 84
15, 437344, Note_on_c, 13, 57, 0
15, 437344, Note_on_c, 13, 53, 0
15, 437360, Note_on_c, 13, 53, 76
15, 437360, Note_on_c, 13, 57, 76
15, 437424, Note_on_c, 13, 53, 0
15, 437424, Note_on_c, 13, 57, 0
15, 437440, Note_on_c, 13, 53, 76
15, 437440, Note_on_c, 13, 57, 76
15, 437504, Note_on_c, 13, 53, 0
15, 437504, Note_on_c, 13, 57, 0
15, 437520, Note_on_c, 13, 57, 76
15, 437520, Note_on_c, 13, 53, 76
15, 437584, Note_on_c, 13, 57, 0
15, 437584, Note_on_c, 13, 53, 0
15, 437600, Note_on_c, 13, 53, 76
15, 437600, Note_on_c, 13, 57, 76
15, 437664, Note_on_c, 13, 53, 0
15, 437664, Note_on_c, 13, 57, 0
15, 437680, Note_on_c, 13, 53, 76
15, 437680, Note_on_c, 13, 57, 76
15, 437744, Note_on_c, 13, 53, 0
15, 437744, Note_on_c, 13, 57, 0
15, 437760, Note_on_c, 13, 69, 84
15, 437760, Note_on_c, 13, 65, 84
15, 437824, Note_on_c, 13, 69, 0
15, 437824, Note_on_c, 13, 65, 0
15, 437840, Note_on_c, 13, 65, 76
15, 437840, Note_on_c, 13, 69, 76
15, 437904, Note_on_c, 13, 65, 0
15, 437904, Note_on_c, 13, 69, 0
15, 437920, Note_on_c, 13, 69, 76
15, 437920, Note_on_c, 13, 65, 76
15, 437984, Note_on_c, 13, 69, 0
15, 437984, Note_on_c, 13, 65, 0
15, 438000, Note_on_c, 13, 69, 76
15, 438000, Note_on_c, 13, 65, 76
15, 438064, Note_on_c, 13, 69, 0
15, 438064, Note_on_c, 13, 65, 0
15, 438080, Note_on_c, 13, 69, 76
15, 438080, Note_on_c, 13, 65, 76
15, 438144, Note_on_c, 13, 69, 0
15, 438144, Note_on_c, 13, 65, 0
15, 438160, Note_on_c, 13, 69, 76
15, 438160, Note_on_c, 13, 65, 76
15, 438224, Note_on_c, 13, 69, 0
15, 438224, Note_on_c, 13, 65, 0
15, 438240, Note_on_c, 13, 57, 84
15, 438240, Note_on_c, 13, 53, 84
15, 438304, Note_on_c, 13, 57, 0
15, 438304, Note_on_c, 13, 53, 0
15, 438320, Note_on_c, 13, 57, 76
15, 438320, Note_on_c, 13, 53, 76
15, 438384, Note_on_c, 13, 57, 0
15, 438384, Note_on_c, 13, 53, 0
15, 438400, Note_on_c, 13, 57, 76
15, 438400, Note_on_c, 13, 53, 76
15, 438464, Note_on_c, 13, 57, 0
15, 438464, Note_on_c, 13, 53, 0
15, 438480, Note_on_c, 13, 57, 76
15, 438480, Note_on_c, 13, 53, 76
15, 438544, Note_on_c, 13, 57, 0
15, 438544, Note_on_c, 13, 53, 0
15, 438560, Note_on_c, 13, 53, 76
15, 438560, Note_on_c, 13, 57, 76
15, 438624, Note_on_c, 13, 53, 0
15, 438624, Note_on_c, 13, 57, 0
15, 438640, Note_on_c, 13, 53, 76
15, 438640, Note_on_c, 13, 57, 76
15, 438704, Note_on_c, 13, 53, 0
15, 438704, Note_on_c, 13, 57, 0
15, 438720, Note_on_c, 13, 69, 84
15, 438720, Note_on_c, 13, 65, 84
15, 438784, Note_on_c, 13, 69, 0
15, 438784, Note_on_c, 13, 65, 0
15, 438800, Note_on_c, 13, 69, 76
15, 438800, Note_on_c, 13, 65, 76
15, 438864, Note_on_c, 13, 69, 0
15, 438864, Note_on_c, 13, 65, 0
15, 438880, Note_on_c, 13, 65, 76
15, 438880, Note_on_c, 13, 69, 76
15, 438944, Note_on_c, 13, 65, 0
15, 438944, Note_on_c, 13, 69, 0
15, 438960, Note_on_c, 13, 69, 76
15, 438960, Note_on_c, 13, 65, 76
15, 439024, Note_on_c, 13, 69, 0
15, 439024, Note_on_c, 13, 65, 0
15, 439040, Note_on_c, 13, 65, 76
15, 439040, Note_on_c, 13, 69, 76
15, 439104, Note_on_c, 13, 65, 0
15, 439104, Note_on_c, 13, 69, 0
15, 439120, Note_on_c, 13, 65, 76
15, 439120, Note_on_c, 13, 69, 76
15, 439184, Note_on_c, 13, 65, 0
15, 439184, Note_on_c, 13, 69, 0
15, 439200, Note_on_c, 13, 53, 84
15, 439200, Note_on_c, 13, 57, 84
15, 439264, Note_on_c, 13, 53, 0
15, 439264, Note_on_c, 13, 57, 0
15, 439280, Note_on_c, 13, 57, 76
15, 439280, Note_on_c, 13, 53, 76
15, 439344, Note_on_c, 13, 57, 0
15, 439344, Note_on_c, 13, 53, 0
15, 439360, Note_on_c, 13, 53, 76
15, 439360, Note_on_c, 13, 57, 76
15, 439424, Note_on_c, 13, 53, 0
15, 439424, Note_on_c, 13, 57, 0
15, 439440, Note_on_c, 13, 53, 76
15, 439440, Note_on_c, 13, 57, 76
15, 439504, Note_on_c, 13, 53, 0
15, 439504, Note_on_c, 13, 57, 0
15, 439520, Note_on_c, 13, 57, 76
15, 439520, Note_on_c, 13, 53, 76
15, 439584, Note_on_c, 13, 57, 0
15, 439584, Note_on_c, 13, 53, 0
15, 439600, Note_on_c, 13, 57, 76
15, 439600, Note_on_c, 13, 53, 76
15, 439664, Note_on_c, 13, 57, 0
15, 439664, Note_on_c, 13, 53, 0
15, 439680, Note_on_c, 13, 69, 76
15, 439680, Note_on_c, 13, 65, 76
15, 439760, Control_c, 13, 11, 80
15, 439919, Note_on_c, 13, 69, 0
15, 439919, Note_on_c, 13, 65, 0
15, 442320, Control_c, 13, 11, 127
15, 442560, Note_on_c, 13, 57, 52
15, 442560, Note_on_c, 13, 53, 52
15, 442624, Note_on_c, 13, 57, 0
15, 442624, Note_on_c, 13, 53, 0
15, 442640, Note_on_c, 13, 53, 52
15, 442640, Note_on_c, 13, 57, 52
15, 442704, Note_on_c, 13, 53, 0
15, 442704, Note_on_c, 13, 57, 0
15, 442720, Note_on_c, 13, 57, 52
15, 442720, Note_on_c, 13, 53, 52
15, 442784, Note_on_c, 13, 57, 0
15, 442784, Note_on_c, 13, 53, 0
15, 442800, Note_on_c, 13, 57, 52
15, 442800, Note_on_c, 13, 53, 52
15, 442864, Note_on_c, 13, 57, 0
15, 442864, Note_on_c, 13, 53, 0
15, 442880, Note_on_c, 13, 53, 52
15, 442880, Note_on_c, 13, 57, 52
15, 442944, Note_on_c, 13, 53, 0
15, 442944, Note_on_c, 13, 57, 0
15, 442960, Note_on_c, 13, 57, 52
15, 442960, Note_on_c, 13, 53, 52
15, 443024, Note_on_c, 13, 57, 0
15, 443024, Note_on_c, 13, 53, 0
15, 443040, Note_on_c, 13, 57, 52
15, 443040, Note_on_c, 13, 53, 52
15, 443104, Note_on_c, 13, 57, 0
15, 443104, Note_on_c, 13, 53, 0
15, 443120, Note_on_c, 13, 53, 52
15, 443120, Note_on_c, 13, 57, 52
15, 443184, Note_on_c, 13, 53, 0
15, 443184, Note_on_c, 13, 57, 0
15, 443200, Note_on_c, 13, 53, 52
15, 443200, Note_on_c, 13, 57, 52
15, 443264, Note_on_c, 13, 53, 0
15, 443264, Note_on_c, 13, 57, 0
15, 443280, Note_on_c, 13, 53, 52
15, 443280, Note_on_c, 13, 57, 52
15, 443344, Note_on_c, 13, 53, 0
15, 443344, Note_on_c, 13, 57, 0
15, 443360, Note_on_c, 13, 53, 52
15, 443360, Note_on_c, 13, 57, 52
15, 443424, Note_on_c, 13, 53, 0
15, 443424, Note_on_c, 13, 57, 0
15, 443440, Note_on_c, 13, 57, 52
15, 443440, Note_on_c, 13, 53, 52
15, 443504, Note_on_c, 13, 57, 0
15, 443504, Note_on_c, 13, 53, 0
15, 443520, Note_on_c, 13, 53, 52
15, 443520, Note_on_c, 13, 57, 52
15, 443759, Note_on_c, 13, 53, 0
15, 443759, Note_on_c, 13, 57, 0
15, 444480, Note_on_c, 13, 57, 52
15, 444480, Note_on_c, 13, 53, 52
15, 444544, Note_on_c, 13, 57, 0
15, 444544, Note_on_c, 13, 53, 0
15, 444560, Note_on_c, 13, 57, 52
15, 444560, Note_on_c, 13, 53, 52
15, 444624, Note_on_c, 13, 57, 0
15, 444624, Note_on_c, 13, 53, 0
15, 444640, Note_on_c, 13, 53, 52
15, 444640, Note_on_c, 13, 57, 52
15, 444704, Note_on_c, 13, 53, 0
15, 444704, Note_on_c, 13, 57, 0
15, 444720, Note_on_c, 13, 53, 52
15, 444720, Note_on_c, 13, 57, 52
15, 444784, Note_on_c, 13, 53, 0
15, 444784, Note_on_c, 13, 57, 0
15, 444800, Note_on_c, 13, 57, 52
15, 444800, Note_on_c, 13, 53, 52
15, 444864, Note_on_c, 13, 57, 0
15, 444864, Note_on_c, 13, 53, 0
15, 444880, Note_on_c, 13, 57, 52
15, 444880, Note_on_c, 13, 53, 52
15, 444944, Note_on_c, 13, 57, 0
15, 444944, Note_on_c, 13, 53, 0
15, 444960, Note_on_c, 13, 53, 52
15, 444960, Note_on_c, 13, 57, 52
15, 445024, Note_on_c, 13, 53, 0
15, 445024, Note_on_c, 13, 57, 0
15, 445040, Note_on_c, 13, 57, 52
15, 445040, Note_on_c, 13, 53, 52
15, 445104, Note_on_c, 13, 57, 0
15, 445104, Note_on_c, 13, 53, 0
15, 445120, Note_on_c, 13, 57, 52
15, 445120, Note_on_c, 13, 53, 52
15, 445184, Note_on_c, 13, 57, 0
15, 445184, Note_on_c, 13, 53, 0
15, 445200, Note_on_c, 13, 57, 52
15, 445200, Note_on_c, 13, 53, 52
15, 445264, Note_on_c, 13, 57, 0
15, 445264, Note_on_c, 13, 53, 0
15, 445280, Note_on_c, 13, 53, 52
15, 445280, Note_on_c, 13, 57, 52
15, 445344, Note_on_c, 13, 53, 0
15, 445344, Note_on_c, 13, 57, 0
15, 445360, Note_on_c, 13, 57, 52
15, 445360, Note_on_c, 13, 53, 52
15, 445424, Note_on_c, 13, 57, 0
15, 445424, Note_on_c, 13, 53, 0
15, 445440, Note_on_c, 13, 57, 52
15, 445440, Note_on_c, 13, 53, 52
15, 445679, Note_on_c, 13, 57, 0
15, 445679, Note_on_c, 13, 53, 0
15, 448800, Note_on_c, 13, 57, 52
15, 448800, Note_on_c, 13, 53, 52
15, 448864, Note_on_c, 13, 57, 0
15, 448864, Note_on_c, 13, 53, 0
15, 448880, Note_on_c, 13, 53, 52
15, 448880, Note_on_c, 13, 57, 52
15, 448944, Note_on_c, 13, 53, 0
15, 448944, Note_on_c, 13, 57, 0
15, 448960, Note_on_c, 13, 57, 52
15, 448960, Note_on_c, 13, 53, 52
15, 449024, Note_on_c, 13, 57, 0
15, 449024, Note_on_c, 13, 53, 0
15, 449040, Note_on_c, 13, 57, 52
15, 449040, Note_on_c, 13, 53, 52
15, 449104, Note_on_c, 13, 57, 0
15, 449104, Note_on_c, 13, 53, 0
15, 449120, Note_on_c, 13, 53, 52
15, 449120, Note_on_c, 13, 57, 52
15, 449184, Note_on_c, 13, 53, 0
15, 449184, Note_on_c, 13, 57, 0
15, 449200, Note_on_c, 13, 57, 52
15, 449200, Note_on_c, 13, 53, 52
15, 449264, Note_on_c, 13, 57, 0
15, 449264, Note_on_c, 13, 53, 0
15, 449280, Note_on_c, 13, 57, 52
15, 449280, Note_on_c, 13, 53, 52
15, 449519, Note_on_c, 13, 57, 0
15, 449519, Note_on_c, 13, 53, 0
15, 449760, Note_on_c, 13, 57, 52
15, 449760, Note_on_c, 13, 53, 52
15, 449824, Note_on_c, 13, 57, 0
15, 449824, Note_on_c, 13, 53, 0
15, 449840, Note_on_c, 13, 57, 52
15, 449840, Note_on_c, 13, 53, 52
15, 449904, Note_on_c, 13, 57, 0
15, 449904, Note_on_c, 13, 53, 0
15, 449920, Note_on_c, 13, 53, 52
15, 449920, Note_on_c, 13, 57, 52
15, 449984, Note_on_c, 13, 53, 0
15, 449984, Note_on_c, 13, 57, 0
15, 450000, Note_on_c, 13, 57, 52
15, 450000, Note_on_c, 13, 53, 52
15, 450064, Note_on_c, 13, 57, 0
15, 450064, Note_on_c, 13, 53, 0
15, 450080, Note_on_c, 13, 57, 52
15, 450080, Note_on_c, 13, 53, 52
15, 450144, Note_on_c, 13, 57, 0
15, 450144, Note_on_c, 13, 53, 0
15, 450160, Note_on_c, 13, 57, 52
15, 450160, Note_on_c, 13, 53, 52
15, 450224, Note_on_c, 13, 57, 0
15, 450224, Note_on_c, 13, 53, 0
15, 450240, Note_on_c, 13, 53, 52
15, 450240, Note_on_c, 13, 57, 52
15, 450479, Note_on_c, 13, 53, 0
15, 450479, Note_on_c, 13, 57, 0
15, 453120, Note_on_c, 13, 57, 44
15, 453120, Note_on_c, 13, 53, 44
15, 453239, Note_on_c, 13, 57, 0
15, 453239, Note_on_c, 13, 53, 0
15, 453240, Note_on_c, 13, 55, 44
15, 453240, Note_on_c, 13, 58, 44
15, 453339, Note_on_c, 13, 55, 0
15, 453339, Note_on_c, 13, 58, 0
15, 453360, Note_on_c, 13, 55, 44
15, 453360, Note_on_c, 13, 48, 44
15, 453519, Note_on_c, 13, 55, 0
15, 453519, Note_on_c, 13, 48, 0
15, 453600, Note_on_c, 13, 57, 44
15, 453600, Note_on_c, 13, 53, 44
15, 453719, Note_on_c, 13, 57, 0
15, 453719, Note_on_c, 13, 53, 0
15, 453720, Note_on_c, 13, 55, 44
15, 453720, Note_on_c, 13, 58, 44
15, 453819, Note_on_c, 13, 55, 0
15, 453819, Note_on_c, 13, 58, 0
15, 453840, Note_on_c, 13, 48, 44
15, 453840, Note_on_c, 13, 55, 44
15, 453999, Note_on_c, 13, 48, 0
15, 453999, Note_on_c, 13, 55, 0
15, 454080, Note_on_c, 13, 53, 44
15, 454080, Note_on_c, 13, 57, 44
15, 454199, Note_on_c, 13, 53, 0
15, 454199, Note_on_c, 13, 57, 0
15, 454200, Note_on_c, 13, 58, 44
15, 454200, Note_on_c, 13, 55, 44
15, 454299, Note_on_c, 13, 58, 0
15, 454299, Note_on_c, 13, 55, 0
15, 454320, Note_on_c, 13, 55, 44
15, 454320, Note_on_c, 13, 48, 44
15, 454479, Note_on_c, 13, 55, 0
15, 454479, Note_on_c, 13, 48, 0
15, 454560, Note_on_c, 13, 53, 44
15, 454560, Note_on_c, 13, 57, 44
15, 454679, Note_on_c, 13, 53, 0
15, 454679, Note_on_c, 13, 57, 0
15, 454680, Note_on_c, 13, 58, 44
15, 454680, Note_on_c, 13, 55, 44
15, 454779, Note_on_c, 13, 58, 0
15, 454779, Note_on_c, 13, 55, 0
15, 454800, Note_on_c, 13, 55, 44
15, 454800, Note_on_c, 13, 48, 44
15, 454959, Note_on_c, 13, 55, 0
15, 454959, Note_on_c, 13, 48, 0
15, 455040, Note_on_c, 13, 57, 44
15, 455040, Note_on_c, 13, 53, 44
15, 455279, Note_on_c, 13, 57, 0
15, 455279, Note_on_c, 13, 53, 0
15, 458880, Note_on_c, 13, 62, 60
15, 458999, Note_on_c, 13, 62, 0
15, 459000, Note_on_c, 13, 64, 61
15, 459099, Note_on_c, 13, 64, 0
15, 459120, Note_on_c, 13, 60, 62
15, 459279, Note_on_c, 13, 60, 0
15, 459360, Note_on_c, 13, 62, 64
15, 459479, Note_on_c, 13, 62, 0
15, 459480, Note_on_c, 13, 64, 65
15, 459579, Note_on_c, 13, 64, 0
15, 459600, Note_on_c, 13, 60, 66
15, 459759, Note_on_c, 13, 60, 0
15, 459840, Note_on_c, 13, 62, 68
15, 459959, Note_on_c, 13, 62, 0
15, 459960, Note_on_c, 13, 64, 69
15, 460059, Note_on_c, 13, 64, 0
15, 460080, Note_on_c, 13, 60, 70
15, 460239, Note_on_c, 13, 60, 0
15, 460320, Note_on_c, 13, 62, 72
15, 460439, Note_on_c, 13, 62, 0
15, 460440, Note_on_c, 13, 64, 73
15, 460539, Note_on_c, 13, 64, 0
15, 460560, Note_on_c, 13, 60, 74
15, 460719, Note_on_c, 13, 60, 0
15, 460800, Note_on_c, 13, 53, 76
15, 461019, Note_on_c, 13, 53, 0
15, 461040, Note_on_c, 13, 65, 76
15, 461259, Note_on_c, 13, 65, 0
15, 461280, Note_on_c, 13, 53, 76
15, 461499, Note_on_c, 13, 53, 0
15, 461520, Note_on_c, 13, 65, 76
15, 461739, Note_on_c, 13, 65, 0
15, 461760, Note_on_c, 13, 53, 76
15, 461979, Note_on_c, 13, 53, 0
15, 462000, Note_on_c, 13, 65, 76
15, 462219, Note_on_c, 13, 65, 0
15, 462240, Note_on_c, 13, 53, 76
15, 462459, Note_on_c, 13, 53, 0
15, 462480, Note_on_c, 13, 65, 76
15, 462699, Note_on_c, 13, 65, 0
15, 462720, Note_on_c, 13, 53, 76
15, 462959, Note_on_c, 13, 53, 0
15, 463680, Note_on_c, 13, 48, 76
15, 463680, Note_on_c, 13, 60, 76
15, 463919, Note_on_c, 13, 48, 0
15, 463919, Note_on_c, 13, 60, 0
15, 464640, Note_on_c, 13, 53, 76
15, 464879, Note_on_c, 13, 53, 0
15, 465600, Note_on_c, 13, 48, 76
15, 465600, Note_on_c, 13, 60, 76
15, 465839, Note_on_c, 13, 48, 0
15, 465839, Note_on_c, 13, 60, 0
15, 466560, Note_on_c, 13, 53, 76
15, 466799, Note_on_c, 13, 53, 0
15, 467040, Note_on_c, 13, 48, 76
15, 467040, Note_on_c, 13, 60, 76
15, 467279, Note_on_c, 13, 48, 0
15, 467279, Note_on_c, 13, 60, 0
15, 467520, Note_on_c, 13, 53, 76
15, 467759, Note_on_c, 13, 53, 0
15, 468000, Note_on_c, 13, 60, 76
15, 468000, Note_on_c, 13, 48, 76
15, 468239, Note_on_c, 13, 60, 0
15, 468239, Note_on_c, 13, 48, 0
15, 468480, Note_on_c, 13, 53, 76
15, 468719, Note_on_c, 13, 53, 0
15, 468960, Note_on_c, 13, 48, 76
15, 468960, Note_on_c, 13, 60, 76
15, 469199, Note_on_c, 13, 48, 0
15, 469199, Note_on_c, 13, 60, 0
15, 469440, Note_on_c, 13, 53, 76
15, 469679, Note_on_c, 13, 53, 0
15, 469920, Note_on_c, 13, 48, 76
15, 469920, Note_on_c, 13, 60, 76
15, 470159, Note_on_c, 13, 48, 0
15, 470159, Note_on_c, 13, 60, 0
15, 470400, Note_on_c, 13, 53, 84
15, 470619, Note_on_c, 13, 53, 0
15, 470640, Note_on_c, 13, 65, 84
15, 470859, Note_on_c, 13, 65, 0
15, 470880, Note_on_c, 13, 53, 84
15, 471099, Note_on_c, 13, 53, 0
15, 471120, Note_on_c, 13, 65, 84
15, 471339, Note_on_c, 13, 65, 0
15, 471360, Note_on_c, 13, 53, 84
15, 471579, Note_on_c, 13, 53, 0
15, 471600, Note_on_c, 13, 65, 84
15, 471819, Note_on_c, 13, 65, 0
15, 471840, Note_on_c, 13, 53, 84
15, 472059, Note_on_c, 13, 53, 0
15, 472080, Note_on_c, 13, 65, 84
15, 472299, Note_on_c, 13, 65, 0
15, 472320, Note_on_c, 13, 53, 84
15, 472559, Note_on_c, 13, 53, 0
15, 473280, Note_on_c, 13, 60, 84
15, 473280, Note_on_c, 13, 48, 84
15, 473519, Note_on_c, 13, 60, 0
15, 473519, Note_on_c, 13, 48, 0
15, 474240, Note_on_c, 13, 53, 84
15, 474479, Note_on_c, 13, 53, 0
15, 475200, Note_on_c, 13, 60, 84
15, 475200, Note_on_c, 13, 48, 84
15, 475439, Note_on_c, 13, 60, 0
15, 475439, Note_on_c, 13, 48, 0
15, 476160, Note_on_c, 13, 53, 84
15, 476399, Note_on_c, 13, 53, 0
15, 476640, Note_on_c, 13, 48, 84
15, 476640, Note_on_c, 13, 60, 84
15, 476879, Note_on_c, 13, 48, 0
15, 476879, Note_on_c, 13, 60, 0
15, 477120, Note_on_c, 13, 53, 84
15, 477359, Note_on_c, 13, 53, 0
15, 477600, Note_on_c, 13, 60, 84
15, 477600, Note_on_c, 13, 48, 84
15, 477839, Note_on_c, 13, 60, 0
15, 477839, Note_on_c, 13, 48, 0
15, 478080, Note_on_c, 13, 53, 84
15, 478319, Note_on_c, 13, 53, 0
15, 478560, Note_on_c, 13, 60, 84
15, 478560, Note_on_c, 13, 48, 84
15, 478799, Note_on_c, 13, 60, 0
15, 478799, Note_on_c, 13, 48, 0
15, 479040, Note_on_c, 13, 65, 84
15, 479279, Note_on_c, 13, 65, 0
15, 479520, Note_on_c, 13, 69, 84
15, 479759, Note_on_c, 13, 69, 0
15, 480000, Note_on_c, 13, 72, 84
15, 480239, Note_on_c, 13, 72, 0
15, 480960, Note_on_c, 13, 65, 84
15, 481199, Note_on_c, 13, 65, 0
15, 481920, Note_on_c, 13, 53, 84
15, 482159, Note_on_c, 13, 53, 0
15, 482159, End_track
16, 0, Start_track
16, 0, Title_t, "Cello"
16, 0, MIDI_port, 0
16, 0, Program_c, 14, 48
16, 0, Control_c, 14, 7, 96
16, 0, Control_c, 14, 10, 90
16, 0, Control_c, 14, 11, 127
16, 16800, Note_on_c, 14, 37, 84
16, 17739, Note_on_c, 14, 37, 0
16, 17760, Note_on_c, 14, 41, 84
16, 17919, Note_on_c, 14, 41, 0
16, 18000, Note_on_c, 14, 53, 84
16, 18159, Note_on_c, 14, 53, 0
16, 18240, Note_on_c, 14, 41, 84
16, 18399, Note_on_c, 14, 41, 0
16, 18480, Note_on_c, 14, 53, 84
16, 18639, Note_on_c, 14, 53, 0
16, 18720, Note_on_c, 14, 41, 84
16, 18879, Note_on_c, 14, 41, 0
16, 18960, Note_on_c, 14, 53, 84
16, 19119, Note_on_c, 14, 53, 0
16, 19200, Note_on_c, 14, 41, 84
16, 19419, Note_on_c, 14, 41, 0
16, 19440, Note_on_c, 14, 53, 84
16, 19659, Note_on_c, 14, 53, 0
16, 19680, Note_on_c, 14, 41, 84
16, 19899, Note_on_c, 14, 41, 0
16, 19920, Note_on_c, 14, 53, 84
16, 20139, Note_on_c, 14, 53, 0
16, 20160, Note_on_c, 14, 41, 84
16, 20379, Note_on_c, 14, 41, 0
16, 20400, Note_on_c, 14, 53, 84
16, 20619, Note_on_c, 14, 53, 0
16, 20640, Note_on_c, 14, 41, 84
16, 20859, Note_on_c, 14, 41, 0
16, 20880, Note_on_c, 14, 53, 84
16, 21099, Note_on_c, 14, 53, 0
16, 21120, Note_on_c, 14, 41, 84
16, 21339, Note_on_c, 14, 41, 0
16, 21360, Note_on_c, 14, 53, 84
16, 21579, Note_on_c, 14, 53, 0
16, 21600, Note_on_c, 14, 41, 84
16, 21819, Note_on_c, 14, 41, 0
16, 21840, Note_on_c, 14, 53, 84
16, 22059, Note_on_c, 14, 53, 0
16, 22080, Note_on_c, 14, 46, 84
16, 22299, Note_on_c, 14, 46, 0
16, 22320, Note_on_c, 14, 58, 84
16, 22539, Note_on_c, 14, 58, 0
16, 22560, Note_on_c, 14, 50, 84
16, 22779, Note_on_c, 14, 50, 0
16, 22800, Note_on_c, 14, 62, 84
16, 23019, Note_on_c, 14, 62, 0
16, 23040, Note_on_c, 14, 55, 84
16, 23259, Note_on_c, 14, 55, 0
16, 23280, Note_on_c, 14, 67, 84
16, 23499, Note_on_c, 14, 67, 0
16, 23520, Note_on_c, 14, 55, 84
16, 23679, Note_on_c, 14, 55, 0
16, 23760, Note_on_c, 14, 57, 84
16, 23919, Note_on_c, 14, 57, 0
16, 24000, Note_on_c, 14, 58, 84
16, 24159, Note_on_c, 14, 58, 0
16, 24240, Note_on_c, 14, 57, 84
16, 24399, Note_on_c, 14, 57, 0
16, 24480, Note_on_c, 14, 58, 84
16, 24639, Note_on_c, 14, 58, 0
16, 24720, Note_on_c, 14, 60, 84
16, 24879, Note_on_c, 14, 60, 0
16, 24960, Note_on_c, 14, 62, 84
16, 25119, Note_on_c, 14, 62, 0
16, 25200, Note_on_c, 14, 64, 84
16, 25359, Note_on_c, 14, 64, 0
16, 25440, Note_on_c, 14, 65, 84
16, 25599, Note_on_c, 14, 65, 0
16, 25680, Note_on_c, 14, 62, 84
16, 25839, Note_on_c, 14, 62, 0
16, 25920, Note_on_c, 14, 58, 84
16, 26079, Note_on_c, 14, 58, 0
16, 26160, Note_on_c, 14, 55, 84
16, 26319, Note_on_c, 14, 55, 0
16, 26400, Note_on_c, 14, 60, 84
16, 26559, Note_on_c, 14, 60, 0
16, 26640, Note_on_c, 14, 48, 84
16, 26799, Note_on_c, 14, 48, 0
16, 26880, Note_on_c, 14, 53, 84
16, 27119, Note_on_c, 14, 53, 0
16, 27360, Note_on_c, 14, 65, 84
16, 27519, Note_on_c, 14, 65, 0
16, 27600, Note_on_c, 14, 60, 84
16, 27759, Note_on_c, 14, 60, 0
16, 27840, Note_on_c, 14, 60, 84
16, 27999, Note_on_c, 14, 60, 0
16, 28080, Note_on_c, 14, 57, 84
16, 28239, Note_on_c, 14, 57, 0
16, 28320, Note_on_c, 14, 57, 84
16, 28479, Note_on_c, 14, 57, 0
16, 28560, Note_on_c, 14, 53, 84
16, 28719, Note_on_c, 14, 53, 0
16, 28800, Note_on_c, 14, 48, 84
16, 28959, Note_on_c, 14, 48, 0
16, 29280, Note_on_c, 14, 58, 84
16, 29439, Note_on_c, 14, 58, 0
16, 29520, Note_on_c, 14, 55, 84
16, 29679, Note_on_c, 14, 55, 0
16, 29760, Note_on_c, 14, 55, 84
16, 29919, Note_on_c, 14, 55, 0
16, 30000, Note_on_c, 14, 52, 84
16, 30159, Note_on_c, 14, 52, 0
16, 30240, Note_on_c, 14, 52, 84
16, 30399, Note_on_c, 14, 52, 0
16, 30480, Note_on_c, 14, 48, 84
16, 30639, Note_on_c, 14, 48, 0
16, 30720, Note_on_c, 14, 53, 84
16, 30879, Note_on_c, 14, 53, 0
16, 31680, Note_on_c, 14, 53, 84
16, 31839, Note_on_c, 14, 53, 0
16, 31920, Note_on_c, 14, 57, 84
16, 32079, Note_on_c, 14, 57, 0
16, 32160, Note_on_c, 14, 57, 84
16, 32319, Note_on_c, 14, 57, 0
16, 32400, Note_on_c, 14, 60, 84
16, 32559, Note_on_c, 14, 60, 0
16, 32640, Note_on_c, 14, 60, 84
16, 32799, Note_on_c, 14, 60, 0
16, 33600, Note_on_c, 14, 48, 84
16, 33759, Note_on_c, 14, 48, 0
16, 33840, Note_on_c, 14, 55, 84
16, 33999, Note_on_c, 14, 55, 0
16, 34080, Note_on_c, 14, 55, 84
16, 34239, Note_on_c, 14, 55, 0
16, 34320, Note_on_c, 14, 60, 84
16, 34479, Note_on_c, 14, 60, 0
16, 34560, Note_on_c, 14, 57, 84
16, 34719, Note_on_c, 14, 57, 0
16, 35040, Note_on_c, 14, 60, 84
16, 35199, Note_on_c, 14, 60, 0
16, 35280, Note_on_c, 14, 55, 84
16, 35439, Note_on_c, 14, 55, 0
16, 35520, Note_on_c, 14, 55, 84
16, 35679, Note_on_c, 14, 55, 0
16, 35760, Note_on_c, 14, 52, 84
16, 35919, Note_on_c, 14, 52, 0
16, 36000, Note_on_c, 14, 52, 84
16, 36159, Note_on_c, 14, 52, 0
16, 36240, Note_on_c, 14, 48, 84
16, 36399, Note_on_c, 14, 48, 0
16, 36480, Note_on_c, 14, 43, 84
16, 36639, Note_on_c, 14, 43, 0
16, 36960, Note_on_c, 14, 65, 84
16, 37119, Note_on_c, 14, 65, 0
16, 37200, Note_on_c, 14, 62, 84
16, 37359, Note_on_c, 14, 62, 0
16, 37440, Note_on_c, 14, 62, 84
16, 37599, Note_on_c, 14, 62, 0
16, 37680, Note_on_c, 14, 59, 84
16, 37839, Note_on_c, 14, 59, 0
16, 37920, Note_on_c, 14, 59, 84
16, 38079, Note_on_c, 14, 59, 0
16, 38160, Note_on_c, 14, 55, 84
16, 38319, Note_on_c, 14, 55, 0
16, 38400, Note_on_c, 14, 60, 84
16, 38559, Note_on_c, 14, 60, 0
16, 39360, Note_on_c, 14, 60, 84
16, 39519, Note_on_c, 14, 60, 0
16, 39600, Note_on_c, 14, 64, 84
16, 39759, Note_on_c, 14, 64, 0
16, 39840, Note_on_c, 14, 64, 84
16, 39999, Note_on_c, 14, 64, 0
16, 40080, Note_on_c, 14, 67, 84
16, 40239, Note_on_c, 14, 67, 0
16, 40320, Note_on_c, 14, 67, 84
16, 40479, Note_on_c, 14, 67, 0
16, 41760, Note_on_c, 14, 62, 92
16, 41919, Note_on_c, 14, 62, 0
16, 42000, Note_on_c, 14, 59, 84
16, 42159, Note_on_c, 14, 59, 0
16, 42240, Note_on_c, 14, 59, 92
16, 42399, Note_on_c, 14, 59, 0
16, 42480, Note_on_c, 14, 55, 84
16, 42639, Note_on_c, 14, 55, 0
16, 43680, Note_on_c, 14, 62, 84
16, 43839, Note_on_c, 14, 62, 0
16, 43920, Note_on_c, 14, 59, 84
16, 44079, Note_on_c, 14, 59, 0
16, 44160, Note_on_c, 14, 59, 84
16, 44319, Note_on_c, 14, 59, 0
16, 44400, Note_on_c, 14, 55, 84
16, 44559, Note_on_c, 14, 55, 0
16, 45600, Note_on_c, 14, 55, 84
16, 45759, Note_on_c, 14, 55, 0
16, 45840, Note_on_c, 14, 43, 84
16, 45999, Note_on_c, 14, 43, 0
16, 46080, Note_on_c, 14, 44, 52
16, 47039, Note_on_c, 14, 44, 0
16, 47040, Note_on_c, 14, 44, 52
16, 47999, Note_on_c, 14, 44, 0
16, 48000, Note_on_c, 14, 44, 52
16, 48459, Note_on_c, 14, 44, 0
16, 48480, Note_on_c, 14, 56, 52
16, 48939, Note_on_c, 14, 56, 0
16, 48960, Note_on_c, 14, 56, 52
16, 49419, Note_on_c, 14, 56, 0
16, 49440, Note_on_c, 14, 56, 52
16, 49899, Note_on_c, 14, 56, 0
16, 49920, Note_on_c, 14, 56, 52
16, 50879, Note_on_c, 14, 56, 0
16, 50880, Note_on_c, 14, 56, 52
16, 51819, Note_on_c, 14, 56, 0
16, 51840, Note_on_c, 14, 56, 52
16, 52299, Note_on_c, 14, 56, 0
16, 52320, Note_on_c, 14, 56, 52
16, 52558, Control_c, 14, 11, 96
16, 52779, Note_on_c, 14, 56, 0
16, 52800, Note_on_c, 14, 57, 68
16, 53259, Note_on_c, 14, 57, 0
16, 53280, Note_on_c, 14, 57, 68
16, 53739, Note_on_c, 14, 57, 0
16, 53760, Control_c, 14, 11, 96
16, 53760, Note_on_c, 14, 56, 68
16, 53884, Control_c, 14, 11, 97
16, 54008, Control_c, 14, 11, 98
16, 54132, Control_c, 14, 11, 99
16, 54255, Control_c, 14, 11, 100
16, 54379, Control_c, 14, 11, 101
16, 54503, Control_c, 14, 11, 102
16, 54627, Control_c, 14, 11, 103
16, 54699, Note_on_c, 14, 56, 0
16, 54720, Note_on_c, 14, 50, 68
16, 54751, Control_c, 14, 11, 104
16, 54875, Control_c, 14, 11, 105
16, 54999, Control_c, 14, 11, 106
16, 55123, Control_c, 14, 11, 107
16, 55246, Control_c, 14, 11, 108
16, 55370, Control_c, 14, 11, 109
16, 55494, Control_c, 14, 11, 110
16, 55618, Control_c, 14, 11, 111
16, 55659, Note_on_c, 14, 50, 0
16, 55680, Note_on_c, 14, 43, 68
16, 55742, Control_c, 14, 11, 112
16, 55866, Control_c, 14, 11, 113
16, 55990, Control_c, 14, 11, 114
16, 56114, Control_c, 14, 11, 115
16, 56237, Control_c, 14, 11, 116
16, 56361, Control_c, 14, 11, 117
16, 56485, Control_c, 14, 11, 118
16, 56609, Control_c, 14, 11, 119
16, 56639, Note_on_c, 14, 43, 0
16, 56640, Note_on_c, 14, 43, 68
16, 56733, Control_c, 14, 11, 120
16, 56857, Control_c, 14, 11, 121
16, 56981, Control_c, 14, 11, 122
16, 57105, Control_c, 14, 11, 123
16, 57228, Control_c, 14, 11, 124
16, 57352, Control_c, 14, 11, 125
16, 57476, Control_c, 14, 11, 127
16, 57579, Note_on_c, 14, 43, 0
16, 57600, Note_on_c, 14, 48, 52
16, 57739, Note_on_c, 14, 48, 0
16, 57760, Note_on_c, 14, 48, 52
16, 57919, Note_on_c, 14, 48, 0
16, 57920, Note_on_c, 14, 52, 52
16, 58079, Note_on_c, 14, 52, 0
16, 58080, Note_on_c, 14, 55, 52
16, 58239, Note_on_c, 14, 55, 0
16, 58240, Note_on_c, 14, 43, 52
16, 58399, Note_on_c, 14, 43, 0
16, 58400, Note_on_c, 14, 55, 52
16, 58539, Note_on_c, 14, 55, 0
16, 58560, Note_on_c, 14, 43, 52
16, 58719, Note_on_c, 14, 43, 0
16, 58720, Note_on_c, 14, 48, 52
16, 58879, Note_on_c, 14, 48, 0
16, 58880, Note_on_c, 14, 52, 52
16, 59039, Note_on_c, 14, 52, 0
16, 59040, Note_on_c, 14, 55, 52
16, 59199, Note_on_c, 14, 55, 0
16, 59200, Note_on_c, 14, 43, 52
16, 59359, Note_on_c, 14, 43, 0
16, 59360, Note_on_c, 14, 55, 52
16, 59499, Note_on_c, 14, 55, 0
16, 59520, Note_on_c, 14, 43, 52
16, 59679, Note_on_c, 14, 43, 0
16, 59680, Note_on_c, 14, 50, 52
16, 59839, Note_on_c, 14, 50, 0
16, 59840, Note_on_c, 14, 53, 52
16, 59999, Note_on_c, 14, 53, 0
16, 60000, Note_on_c, 14, 55, 52
16, 60159, Note_on_c, 14, 55, 0
16, 60160, Note_on_c, 14, 43, 52
16, 60319, Note_on_c, 14, 43, 0
16, 60320, Note_on_c, 14, 55, 52
16, 60459, Note_on_c, 14, 55, 0
16, 60480, Note_on_c, 14, 43, 52
16, 60639, Note_on_c, 14, 43, 0
16, 60640, Note_on_c, 14, 50, 52
16, 60799, Note_on_c, 14, 50, 0
16, 60800, Note_on_c, 14, 53, 52
16, 60959, Note_on_c, 14, 53, 0
16, 60960, Note_on_c, 14, 55, 52
16, 61119, Note_on_c, 14, 55, 0
16, 61120, Note_on_c, 14, 43, 52
16, 61279, Note_on_c, 14, 43, 0
16, 61280, Note_on_c, 14, 55, 52
16, 61419, Note_on_c, 14, 55, 0
16, 61440, Note_on_c, 14, 43, 52
16, 61599, Note_on_c, 14, 43, 0
16, 61600, Note_on_c, 14, 48, 52
16, 61759, Note_on_c, 14, 48, 0
16, 61760, Note_on_c, 14, 52, 52
16, 61919, Note_on_c, 14, 52, 0
16, 61920, Note_on_c, 14, 55, 52
16, 62079, Note_on_c, 14, 55, 0
16, 62080, Note_on_c, 14, 43, 52
16, 62239, Note_on_c, 14, 43, 0
16, 62240, Note_on_c, 14, 55, 52
16, 62379, Note_on_c, 14, 55, 0
16, 62400, Note_on_c, 14, 43, 52
16, 62559, Note_on_c, 14, 43, 0
16, 62560, Note_on_c, 14, 48, 52
16, 62719, Note_on_c, 14, 48, 0
16, 62720, Note_on_c, 14, 52, 52
16, 62879, Note_on_c, 14, 52, 0
16, 62880, Note_on_c, 14, 55, 52
16, 63039, Note_on_c, 14, 55, 0
16, 63040, Note_on_c, 14, 43, 52
16, 63199, Note_on_c, 14, 43, 0
16, 63200, Note_on_c, 14, 55, 52
16, 63339, Note_on_c, 14, 55, 0
16, 63360, Note_on_c, 14, 43, 52
16, 63519, Note_on_c, 14, 43, 0
16, 63520, Note_on_c, 14, 50, 52
16, 63679, Note_on_c, 14, 50, 0
16, 63680, Note_on_c, 14, 53, 52
16, 63839, Note_on_c, 14, 53, 0
16, 63840, Note_on_c, 14, 55, 52
16, 63999, Note_on_c, 14, 55, 0
16, 64000, Note_on_c, 14, 43, 52
16, 64159, Note_on_c, 14, 43, 0
16, 64160, Note_on_c, 14, 55, 52
16, 64299, Note_on_c, 14, 55, 0
16, 64320, Note_on_c, 14, 43, 52
16, 64479, Note_on_c, 14, 43, 0
16, 64480, Note_on_c, 14, 50, 52
16, 64639, Note_on_c, 14, 50, 0
16, 64640, Note_on_c, 14, 53, 52
16, 64799, Note_on_c, 14, 53, 0
16, 64800, Note_on_c, 14, 55, 52
16, 64959, Note_on_c, 14, 55, 0
16, 64960, Note_on_c, 14, 43, 52
16, 65119, Note_on_c, 14, 43, 0
16, 65120, Note_on_c, 14, 55, 52
16, 65259, Note_on_c, 14, 55, 0
16, 65280, Note_on_c, 14, 48, 44
16, 65519, Note_on_c, 14, 48, 0
16, 65760, Program_c, 14, 45
16, 66000, Note_on_c, 14, 57, 40
16, 66239, Note_on_c, 14, 57, 0
16, 66240, Note_on_c, 14, 62, 40
16, 66479, Note_on_c, 14, 62, 0
16, 66960, Note_on_c, 14, 59, 40
16, 67199, Note_on_c, 14, 59, 0
16, 67200, Note_on_c, 14, 64, 40
16, 67439, Note_on_c, 14, 64, 0
16, 67920, Note_on_c, 14, 60, 40
16, 68159, Note_on_c, 14, 60, 0
16, 68160, Note_on_c, 14, 65, 40
16, 68399, Note_on_c, 14, 65, 0
16, 68880, Note_on_c, 14, 62, 40
16, 69119, Note_on_c, 14, 62, 0
16, 69120, Note_on_c, 14, 67, 40
16, 69359, Note_on_c, 14, 67, 0
16, 69840, Note_on_c, 14, 60, 40
16, 70079, Note_on_c, 14, 60, 0
16, 70080, Note_on_c, 14, 53, 40
16, 70319, Note_on_c, 14, 53, 0
16, 70800, Note_on_c, 14, 59, 40
16, 71039, Note_on_c, 14, 59, 0
16, 71040, Note_on_c, 14, 52, 40
16, 71279, Note_on_c, 14, 52, 0
16, 71760, Note_on_c, 14, 57, 40
16, 71999, Note_on_c, 14, 57, 0
16, 72000, Note_on_c, 14, 50, 40
16, 72239, Note_on_c, 14, 50, 0
16, 72480, Program_c, 14, 48
16, 72720, Note_on_c, 14, 55, 44
16, 72939, Note_on_c, 14, 55, 0
16, 72960, Note_on_c, 14, 48, 76
16, 73179, Note_on_c, 14, 48, 0
16, 73200, Note_on_c, 14, 48, 76
16, 73659, Note_on_c, 14, 48, 0
16, 73680, Note_on_c, 14, 45, 76
16, 73899, Note_on_c, 14, 45, 0
16, 73920, Note_on_c, 14, 50, 76
16, 74139, Note_on_c, 14, 50, 0
16, 74160, Note_on_c, 14, 50, 76
16, 74619, Note_on_c, 14, 50, 0
16, 74640, Note_on_c, 14, 47, 76
16, 74859, Note_on_c, 14, 47, 0
16, 74880, Note_on_c, 14, 52, 76
16, 75099, Note_on_c, 14, 52, 0
16, 75120, Note_on_c, 14, 52, 76
16, 75579, Note_on_c, 14, 52, 0
16, 75600, Note_on_c, 14, 48, 76
16, 75819, Note_on_c, 14, 48, 0
16, 75840, Note_on_c, 14, 53, 76
16, 76059, Note_on_c, 14, 53, 0
16, 76080, Note_on_c, 14, 53, 76
16, 76539, Note_on_c, 14, 53, 0
16, 76560, Note_on_c, 14, 50, 76
16, 76779, Note_on_c, 14, 50, 0
16, 76800, Note_on_c, 14, 55, 76
16, 76959, Note_on_c, 14, 55, 0
16, 77040, Note_on_c, 14, 67, 76
16, 77199, Note_on_c, 14, 67, 0
16, 77280, Note_on_c, 14, 55, 76
16, 77439, Note_on_c, 14, 55, 0
16, 77520, Note_on_c, 14, 64, 76
16, 77679, Note_on_c, 14, 64, 0
16, 77760, Note_on_c, 14, 65, 76
16, 77919, Note_on_c, 14, 65, 0
16, 78000, Note_on_c, 14, 53, 76
16, 78159, Note_on_c, 14, 53, 0
16, 78240, Note_on_c, 14, 65, 76
16, 78399, Note_on_c, 14, 65, 0
16, 78480, Note_on_c, 14, 63, 76
16, 78639, Note_on_c, 14, 63, 0
16, 78720, Note_on_c, 14, 64, 76
16, 78879, Note_on_c, 14, 64, 0
16, 78960, Note_on_c, 14, 52, 76
16, 79119, Note_on_c, 14, 52, 0
16, 79200, Note_on_c, 14, 64, 76
16, 79359, Note_on_c, 14, 64, 0
16, 79440, Note_on_c, 14, 61, 76
16, 79599, Note_on_c, 14, 61, 0
16, 79680, Note_on_c, 14, 62, 76
16, 79839, Note_on_c, 14, 62, 0
16, 79920, Note_on_c, 14, 50, 76
16, 80079, Note_on_c, 14, 50, 0
16, 80160, Note_on_c, 14, 62, 76
16, 80319, Note_on_c, 14, 62, 0
16, 80400, Note_on_c, 14, 59, 76
16, 80559, Note_on_c, 14, 59, 0
16, 80640, Note_on_c, 14, 59, 80
16, 80859, Note_on_c, 14, 59, 0
16, 80880, Note_on_c, 14, 55, 80
16, 81099, Note_on_c, 14, 55, 0
16, 81120, Note_on_c, 14, 62, 80
16, 81339, Note_on_c, 14, 62, 0
16, 81360, Note_on_c, 14, 59, 80
16, 81579, Note_on_c, 14, 59, 0
16, 81600, Note_on_c, 14, 59, 80
16, 81819, Note_on_c, 14, 59, 0
16, 81840, Note_on_c, 14, 55, 80
16, 82059, Note_on_c, 14, 55, 0
16, 82080, Note_on_c, 14, 55, 80
16, 82299, Note_on_c, 14, 55, 0
16, 82320, Note_on_c, 14, 43, 80
16, 82539, Note_on_c, 14, 43, 0
16, 82560, Note_on_c, 14, 55, 80
16, 82779, Note_on_c, 14, 55, 0
16, 82800, Note_on_c, 14, 48, 80
16, 83019, Note_on_c, 14, 48, 0
16, 83040, Note_on_c, 14, 58, 80
16, 83259, Note_on_c, 14, 58, 0
16, 83280, Note_on_c, 14, 55, 80
16, 83499, Note_on_c, 14, 55, 0
16, 83520, Note_on_c, 14, 55, 80
16, 83739, Note_on_c, 14, 55, 0
16, 83760, Note_on_c, 14, 48, 80
16, 83979, Note_on_c, 14, 48, 0
16, 84000, Note_on_c, 14, 48, 80
16, 84219, Note_on_c, 14, 48, 0
16, 84240, Note_on_c, 14, 36, 80
16, 84459, Note_on_c, 14, 36, 0
16, 84480, Note_on_c, 14, 60, 84
16, 84699, Note_on_c, 14, 60, 0
16, 84720, Note_on_c, 14, 53, 84
16, 84939, Note_on_c, 14, 53, 0
16, 84960, Note_on_c, 14, 65, 84
16, 85179, Note_on_c, 14, 65, 0
16, 85200, Note_on_c, 14, 60, 84
16, 85419, Note_on_c, 14, 60, 0
16, 85440, Note_on_c, 14, 60, 84
16, 85659, Note_on_c, 14, 60, 0
16, 85680, Note_on_c, 14, 53, 84
16, 85899, Note_on_c, 14, 53, 0
16, 85920, Note_on_c, 14, 53, 84
16, 86139, Note_on_c, 14, 53, 0
16, 86160, Note_on_c, 14, 41, 84
16, 86379, Note_on_c, 14, 41, 0
16, 86400, Note_on_c, 14, 41, 84
16, 86639, Note_on_c, 14, 41, 0
16, 101280, Note_on_c, 14, 62, 76
16, 101439, Note_on_c, 14, 62, 0
16, 101520, Note_on_c, 14, 60, 76
16, 101679, Note_on_c, 14, 60, 0
16, 101760, Note_on_c, 14, 58, 76
16, 101919, Note_on_c, 14, 58, 0
16, 102000, Note_on_c, 14, 57, 76
16, 102159, Note_on_c, 14, 57, 0
16, 102240, Note_on_c, 14, 58, 76
16, 102399, Note_on_c, 14, 58, 0
16, 102480, Note_on_c, 14, 60, 76
16, 102639, Note_on_c, 14, 60, 0
16, 102720, Note_on_c, 14, 62, 76
16, 102959, Note_on_c, 14, 62, 0
16, 107040, Note_on_c, 14, 67, 44
16, 107279, Note_on_c, 14, 67, 0
16, 107400, Note_on_c, 14, 65, 44
16, 107499, Note_on_c, 14, 65, 0
16, 107520, Note_on_c, 14, 65, 44
16, 107759, Note_on_c, 14, 65, 0
16, 107760, Note_on_c, 14, 64, 44
16, 107979, Note_on_c, 14, 64, 0
16, 108000, Note_on_c, 14, 64, 44
16, 108159, Note_on_c, 14, 64, 0
16, 108360, Note_on_c, 14, 62, 44
16, 108459, Note_on_c, 14, 62, 0
16, 108480, Note_on_c, 14, 62, 44
16, 108719, Note_on_c, 14, 62, 0
16, 108720, Note_on_c, 14, 61, 44
16, 108939, Note_on_c, 14, 61, 0
16, 108960, Note_on_c, 14, 61, 44
16, 109119, Note_on_c, 14, 61, 0
16, 109320, Note_on_c, 14, 59, 44
16, 109419, Note_on_c, 14, 59, 0
16, 109440, Note_on_c, 14, 59, 44
16, 109679, Note_on_c, 14, 59, 0
16, 109680, Note_on_c, 14, 57, 44
16, 109899, Note_on_c, 14, 57, 0
16, 109920, Note_on_c, 14, 64, 44
16, 110079, Note_on_c, 14, 64, 0
16, 110280, Note_on_c, 14, 62, 44
16, 110379, Note_on_c, 14, 62, 0
16, 110400, Note_on_c, 14, 62, 44
16, 110639, Note_on_c, 14, 62, 0
16, 110640, Note_on_c, 14, 61, 44
16, 110859, Note_on_c, 14, 61, 0
16, 110880, Note_on_c, 14, 61, 44
16, 111039, Note_on_c, 14, 61, 0
16, 111240, Note_on_c, 14, 59, 44
16, 111339, Note_on_c, 14, 59, 0
16, 111360, Note_on_c, 14, 59, 44
16, 111599, Note_on_c, 14, 59, 0
16, 111600, Note_on_c, 14, 57, 44
16, 111839, Note_on_c, 14, 57, 0
16, 112320, Control_c, 14, 11, 64
16, 112800, Note_on_c, 14, 69, 76
16, 113039, Note_on_c, 14, 69, 0
16, 113160, Note_on_c, 14, 67, 76
16, 113259, Note_on_c, 14, 67, 0
16, 113280, Note_on_c, 14, 67, 76
16, 113519, Note_on_c, 14, 67, 0
16, 113520, Note_on_c, 14, 66, 76
16, 113739, Note_on_c, 14, 66, 0
16, 113760, Note_on_c, 14, 66, 76
16, 113919, Note_on_c, 14, 66, 0
16, 114120, Note_on_c, 14, 64, 76
16, 114219, Note_on_c, 14, 64, 0
16, 114240, Note_on_c, 14, 64, 76
16, 114479, Note_on_c, 14, 64, 0
16, 114480, Note_on_c, 14, 62, 76
16, 114699, Note_on_c, 14, 62, 0
16, 114720, Note_on_c, 14, 69, 76
16, 114720, Control_c, 14, 11, 64
16, 114760, Control_c, 14, 11, 69
16, 114800, Control_c, 14, 11, 75
16, 114840, Control_c, 14, 11, 80
16, 114879, Note_on_c, 14, 69, 0
16, 114880, Control_c, 14, 11, 85
16, 114920, Control_c, 14, 11, 90
16, 114960, Control_c, 14, 11, 96
16, 115000, Control_c, 14, 11, 101
16, 115040, Control_c, 14, 11, 106
16, 115080, Control_c, 14, 11, 111
16, 115080, Note_on_c, 14, 67, 76
16, 115120, Control_c, 14, 11, 117
16, 115160, Control_c, 14, 11, 122
16, 115179, Note_on_c, 14, 67, 0
16, 115200, Note_on_c, 14, 67, 76
16, 115200, Control_c, 14, 11, 127
16, 115439, Note_on_c, 14, 67, 0
16, 115440, Note_on_c, 14, 66, 76
16, 115659, Note_on_c, 14, 66, 0
16, 115680, Note_on_c, 14, 66, 76
16, 115839, Note_on_c, 14, 66, 0
16, 116040, Note_on_c, 14, 64, 76
16, 116139, Note_on_c, 14, 64, 0
16, 116160, Note_on_c, 14, 64, 76
16, 116399, Note_on_c, 14, 64, 0
16, 116400, Note_on_c, 14, 62, 76
16, 116619, Note_on_c, 14, 62, 0
16, 116640, Note_on_c, 14, 62, 76
16, 116799, Note_on_c, 14, 62, 0
16, 117000, Note_on_c, 14, 60, 76
16, 117099, Note_on_c, 14, 60, 0
16, 117120, Note_on_c, 14, 60, 76
16, 117359, Note_on_c, 14, 60, 0
16, 117360, Note_on_c, 14, 58, 76
16, 117579, Note_on_c, 14, 58, 0
16, 117600, Note_on_c, 14, 58, 76
16, 117759, Note_on_c, 14, 58, 0
16, 117960, Note_on_c, 14, 57, 76
16, 118059, Note_on_c, 14, 57, 0
16, 118080, Note_on_c, 14, 57, 76
16, 118319, Note_on_c, 14, 57, 0
16, 118320, Note_on_c, 14, 55, 76
16, 118539, Note_on_c, 14, 55, 0
16, 118560, Note_on_c, 14, 67, 76
16, 118719, Note_on_c, 14, 67, 0
16, 118920, Note_on_c, 14, 65, 76
16, 119019, Note_on_c, 14, 65, 0
16, 119040, Note_on_c, 14, 65, 76
16, 119279, Note_on_c, 14, 65, 0
16, 119280, Note_on_c, 14, 64, 76
16, 119499, Note_on_c, 14, 64, 0
16, 119520, Note_on_c, 14, 64, 76
16, 119679, Note_on_c, 14, 64, 0
16, 119880, Note_on_c, 14, 62, 76
16, 119979, Note_on_c, 14, 62, 0
16, 120000, Note_on_c, 14, 62, 76
16, 120239, Note_on_c, 14, 62, 0
16, 120240, Note_on_c, 14, 60, 76
16, 120459, Note_on_c, 14, 60, 0
16, 120480, Note_on_c, 14, 60, 76
16, 120639, Note_on_c, 14, 60, 0
16, 120840, Note_on_c, 14, 58, 76
16, 120939, Note_on_c, 14, 58, 0
16, 120960, Note_on_c, 14, 58, 76
16, 121199, Note_on_c, 14, 58, 0
16, 121200, Note_on_c, 14, 57, 76
16, 121419, Note_on_c, 14, 57, 0
16, 121440, Note_on_c, 14, 57, 76
16, 121599, Note_on_c, 14, 57, 0
16, 121800, Note_on_c, 14, 55, 76
16, 121899, Note_on_c, 14, 55, 0
16, 121920, Note_on_c, 14, 55, 76
16, 122159, Note_on_c, 14, 55, 0
16, 122160, Note_on_c, 14, 53, 76
16, 122379, Note_on_c, 14, 53, 0
16, 122400, Note_on_c, 14, 53, 76
16, 122559, Note_on_c, 14, 53, 0
16, 122640, Note_on_c, 14, 41, 76
16, 122859, Note_on_c, 14, 41, 0
16, 122880, Note_on_c, 14, 46, 76
16, 123839, Note_on_c, 14, 46, 0
16, 123840, Note_on_c, 14, 46, 76
16, 124779, Note_on_c, 14, 46, 0
16, 124800, Note_on_c, 14, 52, 76
16, 125759, Note_on_c, 14, 52, 0
16, 125760, Note_on_c, 14, 52, 76
16, 126719, Note_on_c, 14, 52, 0
16, 126720, Note_on_c, 14, 57, 84
16, 126839, Note_on_c, 14, 57, 0
16, 126840, Note_on_c, 14, 57, 76
16, 127679, Note_on_c, 14, 57, 0
16, 127680, Note_on_c, 14, 57, 76
16, 128619, Note_on_c, 14, 57, 0
16, 128640, Note_on_c, 14, 62, 84
16, 128759, Note_on_c, 14, 62, 0
16, 128760, Note_on_c, 14, 62, 76
16, 129599, Note_on_c, 14, 62, 0
16, 129600, Note_on_c, 14, 62, 76
16, 130539, Note_on_c, 14, 62, 0
16, 130560, Note_on_c, 14, 55, 76
16, 130799, Note_on_c, 14, 55, 0
16, 130800, Note_on_c, 14, 53, 76
16, 131019, Note_on_c, 14, 53, 0
16, 131040, Note_on_c, 14, 53, 76
16, 131199, Note_on_c, 14, 53, 0
16, 131400, Note_on_c, 14, 52, 76
16, 131499, Note_on_c, 14, 52, 0
16, 131520, Note_on_c, 14, 52, 76
16, 131759, Note_on_c, 14, 52, 0
16, 131760, Note_on_c, 14, 50, 76
16, 131979, Note_on_c, 14, 50, 0
16, 132000, Note_on_c, 14, 50, 76
16, 132159, Note_on_c, 14, 50, 0
16, 132360, Note_on_c, 14, 48, 76
16, 132459, Note_on_c, 14, 48, 0
16, 132480, Note_on_c, 14, 53, 76
16, 132719, Note_on_c, 14, 53, 0
16, 132720, Note_on_c, 14, 55, 76
16, 132939, Note_on_c, 14, 55, 0
16, 132960, Note_on_c, 14, 55, 76
16, 133119, Note_on_c, 14, 55, 0
16, 133320, Note_on_c, 14, 57, 76
16, 133419, Note_on_c, 14, 57, 0
16, 133440, Note_on_c, 14, 57, 76
16, 133679, Note_on_c, 14, 57, 0
16, 133680, Note_on_c, 14, 59, 76
16, 133899, Note_on_c, 14, 59, 0
16, 133920, Note_on_c, 14, 60, 76
16, 134079, Note_on_c, 14, 60, 0
16, 134280, Note_on_c, 14, 62, 76
16, 134379, Note_on_c, 14, 62, 0
16, 134400, Note_on_c, 14, 52, 84
16, 134519, Note_on_c, 14, 52, 0
16, 134520, Note_on_c, 14, 52, 76
16, 135339, Note_on_c, 14, 52, 0
16, 135360, Note_on_c, 14, 57, 84
16, 135479, Note_on_c, 14, 57, 0
16, 135480, Note_on_c, 14, 57, 76
16, 136299, Note_on_c, 14, 57, 0
16, 136320, Note_on_c, 14, 69, 76
16, 136559, Note_on_c, 14, 69, 0
16, 136560, Note_on_c, 14, 67, 76
16, 136779, Note_on_c, 14, 67, 0
16, 136800, Note_on_c, 14, 67, 76
16, 136959, Note_on_c, 14, 67, 0
16, 137160, Note_on_c, 14, 65, 76
16, 137259, Note_on_c, 14, 65, 0
16, 137280, Note_on_c, 14, 64, 76
16, 137519, Note_on_c, 14, 64, 0
16, 137520, Note_on_c, 14, 62, 76
16, 137739, Note_on_c, 14, 62, 0
16, 137760, Note_on_c, 14, 62, 76
16, 137919, Note_on_c, 14, 62, 0
16, 138120, Note_on_c, 14, 60, 76
16, 138239, Note_on_c, 14, 60, 0
16, 138720, Note_on_c, 14, 67, 76
16, 138959, Note_on_c, 14, 67, 0
16, 138960, Note_on_c, 14, 65, 76
16, 139179, Note_on_c, 14, 65, 0
16, 139200, Note_on_c, 14, 57, 76
16, 139439, Note_on_c, 14, 57, 0
16, 139440, Note_on_c, 14, 59, 76
16, 139659, Note_on_c, 14, 59, 0
16, 139680, Note_on_c, 14, 65, 76
16, 139919, Note_on_c, 14, 65, 0
16, 139920, Note_on_c, 14, 64, 76
16, 140139, Note_on_c, 14, 64, 0
16, 140160, Note_on_c, 14, 48, 76
16, 140619, Note_on_c, 14, 48, 0
16, 140640, Note_on_c, 14, 53, 76
16, 141359, Note_on_c, 14, 53, 0
16, 141360, Note_on_c, 14, 52, 76
16, 141579, Note_on_c, 14, 52, 0
16, 141600, Note_on_c, 14, 52, 76
16, 141839, Note_on_c, 14, 52, 0
16, 141840, Note_on_c, 14, 50, 76
16, 142059, Note_on_c, 14, 50, 0
16, 142080, Note_on_c, 14, 39, 76
16, 142319, Note_on_c, 14, 39, 0
16, 142320, Note_on_c, 14, 40, 76
16, 142539, Note_on_c, 14, 40, 0
16, 142560, Note_on_c, 14, 39, 76
16, 142799, Note_on_c, 14, 39, 0
16, 142800, Note_on_c, 14, 40, 76
16, 143019, Note_on_c, 14, 40, 0
16, 143040, Note_on_c, 14, 39, 76
16, 143279, Note_on_c, 14, 39, 0
16, 143280, Note_on_c, 14, 40, 76
16, 143499, Note_on_c, 14, 40, 0
16, 143520, Note_on_c, 14, 39, 76
16, 143759, Note_on_c, 14, 39, 0
16, 143760, Note_on_c, 14, 40, 76
16, 143979, Note_on_c, 14, 40, 0
16, 144000, Note_on_c, 14, 39, 76
16, 144239, Note_on_c, 14, 39, 0
16, 144240, Note_on_c, 14, 40, 76
16, 144459, Note_on_c, 14, 40, 0
16, 144480, Note_on_c, 14, 39, 76
16, 144719, Note_on_c, 14, 39, 0
16, 144720, Note_on_c, 14, 40, 76
16, 144939, Note_on_c, 14, 40, 0
16, 144960, Note_on_c, 14, 39, 76
16, 145199, Note_on_c, 14, 39, 0
16, 145200, Note_on_c, 14, 40, 76
16, 145419, Note_on_c, 14, 40, 0
16, 145440, Note_on_c, 14, 52, 84
16, 145599, Note_on_c, 14, 52, 0
16, 145680, Note_on_c, 14, 64, 84
16, 145839, Note_on_c, 14, 64, 0
16, 145920, Note_on_c, 14, 52, 84
16, 146079, Note_on_c, 14, 52, 0
16, 146160, Note_on_c, 14, 64, 84
16, 146319, Note_on_c, 14, 64, 0
16, 146400, Note_on_c, 14, 52, 84
16, 146559, Note_on_c, 14, 52, 0
16, 146640, Note_on_c, 14, 64, 84
16, 146799, Note_on_c, 14, 64, 0
16, 146880, Note_on_c, 14, 52, 84
16, 147039, Note_on_c, 14, 52, 0
16, 147120, Note_on_c, 14, 64, 84
16, 147279, Note_on_c, 14, 64, 0
16, 147360, Note_on_c, 14, 52, 84
16, 147519, Note_on_c, 14, 52, 0
16, 147600, Note_on_c, 14, 64, 84
16, 147759, Note_on_c, 14, 64, 0
16, 147840, Note_on_c, 14, 52, 84
16, 147999, Note_on_c, 14, 52, 0
16, 148080, Note_on_c, 14, 64, 84
16, 148239, Note_on_c, 14, 64, 0
16, 148320, Note_on_c, 14, 52, 84
16, 148479, Note_on_c, 14, 52, 0
16, 148560, Note_on_c, 14, 64, 84
16, 148719, Note_on_c, 14, 64, 0
16, 148800, Note_on_c, 14, 52, 84
16, 148959, Note_on_c, 14, 52, 0
16, 149040, Note_on_c, 14, 64, 84
16, 149199, Note_on_c, 14, 64, 0
16, 149280, Note_on_c, 14, 40, 52
16, 149439, Note_on_c, 14, 40, 0
16, 149520, Note_on_c, 14, 52, 52
16, 149679, Note_on_c, 14, 52, 0
16, 149760, Note_on_c, 14, 40, 52
16, 149919, Note_on_c, 14, 40, 0
16, 150000, Note_on_c, 14, 52, 52
16, 150159, Note_on_c, 14, 52, 0
16, 150240, Note_on_c, 14, 40, 52
16, 150399, Note_on_c, 14, 40, 0
16, 150480, Note_on_c, 14, 52, 52
16, 150639, Note_on_c, 14, 52, 0
16, 150720, Note_on_c, 14, 40, 52
16, 150879, Note_on_c, 14, 40, 0
16, 150960, Note_on_c, 14, 52, 52
16, 151119, Note_on_c, 14, 52, 0
16, 158880, Note_on_c, 14, 41, 44
16, 159039, Note_on_c, 14, 41, 0
16, 159120, Note_on_c, 14, 53, 44
16, 159279, Note_on_c, 14, 53, 0
16, 159360, Note_on_c, 14, 46, 44
16, 159519, Note_on_c, 14, 46, 0
16, 159600, Note_on_c, 14, 58, 44
16, 159759, Note_on_c, 14, 58, 0
16, 159840, Note_on_c, 14, 50, 44
16, 159999, Note_on_c, 14, 50, 0
16, 160080, Note_on_c, 14, 62, 44
16, 160239, Note_on_c, 14, 62, 0
16, 160320, Note_on_c, 14, 43, 44
16, 160479, Note_on_c, 14, 43, 0
16, 160560, Note_on_c, 14, 55, 44
16, 160719, Note_on_c, 14, 55, 0
16, 160800, Note_on_c, 14, 43, 44
16, 160959, Note_on_c, 14, 43, 0
16, 161040, Note_on_c, 14, 45, 44
16, 161199, Note_on_c, 14, 45, 0
16, 161280, Note_on_c, 14, 46, 44
16, 161439, Note_on_c, 14, 46, 0
16, 161520, Note_on_c, 14, 58, 44
16, 161679, Note_on_c, 14, 58, 0
16, 161760, Note_on_c, 14, 46, 44
16, 161919, Note_on_c, 14, 46, 0
16, 162000, Note_on_c, 14, 48, 44
16, 162159, Note_on_c, 14, 48, 0
16, 162240, Note_on_c, 14, 50, 44
16, 162399, Note_on_c, 14, 50, 0
16, 162480, Note_on_c, 14, 52, 44
16, 162639, Note_on_c, 14, 52, 0
16, 162720, Note_on_c, 14, 53, 44
16, 162879, Note_on_c, 14, 53, 0
16, 162960, Note_on_c, 14, 41, 44
16, 163119, Note_on_c, 14, 41, 0
16, 163200, Note_on_c, 14, 43, 44
16, 163359, Note_on_c, 14, 43, 0
16, 163440, Note_on_c, 14, 55, 44
16, 163599, Note_on_c, 14, 55, 0
16, 163680, Note_on_c, 14, 43, 44
16, 163839, Note_on_c, 14, 43, 0
16, 163920, Note_on_c, 14, 43, 44
16, 164079, Note_on_c, 14, 43, 0
16, 164160, Note_on_c, 14, 48, 44
16, 164319, Note_on_c, 14, 48, 0
16, 164400, Note_on_c, 14, 48, 44
16, 164559, Note_on_c, 14, 48, 0
16, 164640, Note_on_c, 14, 36, 44
16, 164799, Note_on_c, 14, 36, 0
16, 164880, Note_on_c, 14, 48, 44
16, 165039, Note_on_c, 14, 48, 0
16, 165120, Note_on_c, 14, 36, 44
16, 165279, Note_on_c, 14, 36, 0
16, 165360, Note_on_c, 14, 48, 44
16, 165519, Note_on_c, 14, 48, 0
16, 165600, Note_on_c, 14, 36, 44
16, 165759, Note_on_c, 14, 36, 0
16, 165840, Note_on_c, 14, 48, 44
16, 165999, Note_on_c, 14, 48, 0
16, 166080, Note_on_c, 14, 36, 44
16, 166239, Note_on_c, 14, 36, 0
16, 166320, Note_on_c, 14, 48, 44
16, 166479, Note_on_c, 14, 48, 0
16, 166560, Note_on_c, 14, 36, 44
16, 166719, Note_on_c, 14, 36, 0
16, 166800, Note_on_c, 14, 48, 44
16, 166959, Note_on_c, 14, 48, 0
16, 167040, Note_on_c, 14, 36, 43
16, 167199, Note_on_c, 14, 36, 0
16, 167280, Note_on_c, 14, 48, 42
16, 167439, Note_on_c, 14, 48, 0
16, 167520, Note_on_c, 14, 36, 41
16, 167679, Note_on_c, 14, 36, 0
16, 167760, Note_on_c, 14, 48, 40
16, 167919, Note_on_c, 14, 48, 0
16, 168000, Note_on_c, 14, 36, 40
16, 168159, Note_on_c, 14, 36, 0
16, 168240, Note_on_c, 14, 48, 39
16, 168399, Note_on_c, 14, 48, 0
16, 168480, Note_on_c, 14, 36, 38
16, 168639, Note_on_c, 14, 36, 0
16, 168720, Note_on_c, 14, 48, 37
16, 168879, Note_on_c, 14, 48, 0
16, 168960, Note_on_c, 14, 36, 36
16, 169119, Note_on_c, 14, 36, 0
16, 169200, Note_on_c, 14, 48, 36
16, 169359, Note_on_c, 14, 48, 0
16, 169920, Note_on_c, 14, 36, 36
16, 170079, Note_on_c, 14, 36, 0
16, 170160, Note_on_c, 14, 48, 36
16, 170319, Note_on_c, 14, 48, 0
16, 170880, Note_on_c, 14, 36, 36
16, 171039, Note_on_c, 14, 36, 0
16, 171120, Note_on_c, 14, 48, 36
16, 171279, Note_on_c, 14, 48, 0
16, 171360, Note_on_c, 14, 37, 84
16, 172299, Note_on_c, 14, 37, 0
16, 172320, Note_on_c, 14, 41, 84
16, 172479, Note_on_c, 14, 41, 0
16, 172560, Note_on_c, 14, 53, 84
16, 172719, Note_on_c, 14, 53, 0
16, 172800, Note_on_c, 14, 41, 84
16, 172959, Note_on_c, 14, 41, 0
16, 173040, Note_on_c, 14, 53, 84
16, 173199, Note_on_c, 14, 53, 0
16, 173280, Note_on_c, 14, 41, 84
16, 173439, Note_on_c, 14, 41, 0
16, 173520, Note_on_c, 14, 53, 84
16, 173679, Note_on_c, 14, 53, 0
16, 173760, Note_on_c, 14, 41, 84
16, 173919, Note_on_c, 14, 41, 0
16, 174000, Note_on_c, 14, 53, 84
16, 174159, Note_on_c, 14, 53, 0
16, 174240, Note_on_c, 14, 41, 84
16, 174399, Note_on_c, 14, 41, 0
16, 174480, Note_on_c, 14, 53, 84
16, 174639, Note_on_c, 14, 53, 0
16, 174720, Note_on_c, 14, 41, 84
16, 174879, Note_on_c, 14, 41, 0
16, 174960, Note_on_c, 14, 53, 84
16, 175119, Note_on_c, 14, 53, 0
16, 175200, Note_on_c, 14, 41, 84
16, 175359, Note_on_c, 14, 41, 0
16, 175440, Note_on_c, 14, 53, 84
16, 175599, Note_on_c, 14, 53, 0
16, 175680, Note_on_c, 14, 41, 84
16, 175839, Note_on_c, 14, 41, 0
16, 175920, Note_on_c, 14, 53, 84
16, 176079, Note_on_c, 14, 53, 0
16, 176160, Note_on_c, 14, 41, 84
16, 176379, Note_on_c, 14, 41, 0
16, 176400, Note_on_c, 14, 53, 84
16, 176619, Note_on_c, 14, 53, 0
16, 176640, Note_on_c, 14, 46, 84
16, 176859, Note_on_c, 14, 46, 0
16, 176880, Note_on_c, 14, 58, 84
16, 177099, Note_on_c, 14, 58, 0
16, 177120, Note_on_c, 14, 50, 84
16, 177339, Note_on_c, 14, 50, 0
16, 177360, Note_on_c, 14, 62, 84
16, 177579, Note_on_c, 14, 62, 0
16, 177600, Note_on_c, 14, 55, 84
16, 177819, Note_on_c, 14, 55, 0
16, 177840, Note_on_c, 14, 67, 84
16, 178059, Note_on_c, 14, 67, 0
16, 178080, Note_on_c, 14, 55, 84
16, 178239, Note_on_c, 14, 55, 0
16, 178320, Note_on_c, 14, 57, 84
16, 178479, Note_on_c, 14, 57, 0
16, 178560, Note_on_c, 14, 58, 84
16, 178719, Note_on_c, 14, 58, 0
16, 178800, Note_on_c, 14, 57, 84
16, 178959, Note_on_c, 14, 57, 0
16, 179040, Note_on_c, 14, 58, 84
16, 179199, Note_on_c, 14, 58, 0
16, 179280, Note_on_c, 14, 60, 84
16, 179439, Note_on_c, 14, 60, 0
16, 179520, Note_on_c, 14, 62, 84
16, 179679, Note_on_c, 14, 62, 0
16, 179760, Note_on_c, 14, 64, 84
16, 179919, Note_on_c, 14, 64, 0
16, 180000, Note_on_c, 14, 65, 84
16, 180159, Note_on_c, 14, 65, 0
16, 180240, Note_on_c, 14, 62, 84
16, 180399, Note_on_c, 14, 62, 0
16, 180480, Note_on_c, 14, 58, 84
16, 180699, Note_on_c, 14, 58, 0
16, 180720, Note_on_c, 14, 55, 84
16, 180939, Note_on_c, 14, 55, 0
16, 180960, Note_on_c, 14, 60, 84
16, 181179, Note_on_c, 14, 60, 0
16, 181200, Note_on_c, 14, 48, 84
16, 181419, Note_on_c, 14, 48, 0
16, 181440, Note_on_c, 14, 53, 84
16, 181679, Note_on_c, 14, 53, 0
16, 181920, Note_on_c, 14, 65, 84
16, 182079, Note_on_c, 14, 65, 0
16, 182160, Note_on_c, 14, 60, 84
16, 182319, Note_on_c, 14, 60, 0
16, 182400, Note_on_c, 14, 60, 84
16, 182559, Note_on_c, 14, 60, 0
16, 182640, Note_on_c, 14, 57, 84
16, 182799, Note_on_c, 14, 57, 0
16, 182880, Note_on_c, 14, 57, 84
16, 183039, Note_on_c, 14, 57, 0
16, 183120, Note_on_c, 14, 53, 84
16, 183279, Note_on_c, 14, 53, 0
16, 183360, Note_on_c, 14, 48, 84
16, 183599, Note_on_c, 14, 48, 0
16, 183840, Note_on_c, 14, 58, 84
16, 184059, Note_on_c, 14, 58, 0
16, 184080, Note_on_c, 14, 55, 84
16, 184299, Note_on_c, 14, 55, 0
16, 184320, Note_on_c, 14, 55, 84
16, 184539, Note_on_c, 14, 55, 0
16, 184560, Note_on_c, 14, 52, 84
16, 184779, Note_on_c, 14, 52, 0
16, 184800, Note_on_c, 14, 52, 84
16, 185019, Note_on_c, 14, 52, 0
16, 185040, Note_on_c, 14, 48, 84
16, 185259, Note_on_c, 14, 48, 0
16, 185280, Note_on_c, 14, 53, 84
16, 185519, Note_on_c, 14, 53, 0
16, 186240, Note_on_c, 14, 53, 84
16, 186399, Note_on_c, 14, 53, 0
16, 186480, Note_on_c, 14, 57, 84
16, 186639, Note_on_c, 14, 57, 0
16, 186720, Note_on_c, 14, 57, 84
16, 186879, Note_on_c, 14, 57, 0
16, 186960, Note_on_c, 14, 60, 84
16, 187119, Note_on_c, 14, 60, 0
16, 187200, Note_on_c, 14, 60, 84
16, 187359, Note_on_c, 14, 60, 0
16, 188160, Note_on_c, 14, 48, 84
16, 188319, Note_on_c, 14, 48, 0
16, 188400, Note_on_c, 14, 55, 84
16, 188559, Note_on_c, 14, 55, 0
16, 188640, Note_on_c, 14, 55, 84
16, 188799, Note_on_c, 14, 55, 0
16, 188880, Note_on_c, 14, 60, 84
16, 189039, Note_on_c, 14, 60, 0
16, 189120, Note_on_c, 14, 53, 84
16, 189279, Note_on_c, 14, 53, 0
16, 189600, Note_on_c, 14, 65, 84
16, 189759, Note_on_c, 14, 65, 0
16, 189840, Note_on_c, 14, 60, 84
16, 189999, Note_on_c, 14, 60, 0
16, 190080, Note_on_c, 14, 60, 84
16, 190239, Note_on_c, 14, 60, 0
16, 190320, Note_on_c, 14, 57, 84
16, 190479, Note_on_c, 14, 57, 0
16, 190560, Note_on_c, 14, 57, 84
16, 190719, Note_on_c, 14, 57, 0
16, 190800, Note_on_c, 14, 53, 84
16, 190959, Note_on_c, 14, 53, 0
16, 191040, Note_on_c, 14, 48, 84
16, 191199, Note_on_c, 14, 48, 0
16, 191520, Note_on_c, 14, 58, 84
16, 191679, Note_on_c, 14, 58, 0
16, 191760, Note_on_c, 14, 55, 84
16, 191919, Note_on_c, 14, 55, 0
16, 192000, Note_on_c, 14, 55, 84
16, 192159, Note_on_c, 14, 55, 0
16, 192240, Note_on_c, 14, 52, 84
16, 192399, Note_on_c, 14, 52, 0
16, 192480, Note_on_c, 14, 52, 84
16, 192639, Note_on_c, 14, 52, 0
16, 192720, Note_on_c, 14, 48, 84
16, 192879, Note_on_c, 14, 48, 0
16, 192960, Note_on_c, 14, 53, 84
16, 193119, Note_on_c, 14, 53, 0
16, 193920, Note_on_c, 14, 53, 84
16, 194079, Note_on_c, 14, 53, 0
16, 194160, Note_on_c, 14, 57, 84
16, 194319, Note_on_c, 14, 57, 0
16, 194400, Note_on_c, 14, 57, 84
16, 194559, Note_on_c, 14, 57, 0
16, 194640, Note_on_c, 14, 60, 84
16, 194799, Note_on_c, 14, 60, 0
16, 194880, Note_on_c, 14, 50, 84
16, 195039, Note_on_c, 14, 50, 0
16, 195840, Note_on_c, 14, 50, 84
16, 195999, Note_on_c, 14, 50, 0
16, 196080, Note_on_c, 14, 57, 84
16, 196239, Note_on_c, 14, 57, 0
16, 196320, Note_on_c, 14, 57, 84
16, 196479, Note_on_c, 14, 57, 0
16, 196560, Note_on_c, 14, 62, 84
16, 196719, Note_on_c, 14, 62, 0
16, 196800, Note_on_c, 14, 55, 84
16, 196959, Note_on_c, 14, 55, 0
16, 197280, Note_on_c, 14, 67, 84
16, 197439, Note_on_c, 14, 67, 0
16, 197520, Note_on_c, 14, 62, 84
16, 197679, Note_on_c, 14, 62, 0
16, 197760, Note_on_c, 14, 62, 84
16, 197919, Note_on_c, 14, 62, 0
16, 198000, Note_on_c, 14, 58, 84
16, 198159, Note_on_c, 14, 58, 0
16, 198240, Note_on_c, 14, 58, 84
16, 198399, Note_on_c, 14, 58, 0
16, 198480, Note_on_c, 14, 55, 84
16, 198639, Note_on_c, 14, 55, 0
16, 198720, Note_on_c, 14, 53, 84
16, 198879, Note_on_c, 14, 53, 0
16, 199200, Note_on_c, 14, 63, 84
16, 199359, Note_on_c, 14, 63, 0
16, 199440, Note_on_c, 14, 60, 84
16, 199599, Note_on_c, 14, 60, 0
16, 199680, Note_on_c, 14, 60, 84
16, 199839, Note_on_c, 14, 60, 0
16, 199920, Note_on_c, 14, 57, 84
16, 200079, Note_on_c, 14, 57, 0
16, 200160, Note_on_c, 14, 57, 84
16, 200319, Note_on_c, 14, 57, 0
16, 200400, Note_on_c, 14, 53, 84
16, 200559, Note_on_c, 14, 53, 0
16, 200640, Note_on_c, 14, 58, 84
16, 200799, Note_on_c, 14, 58, 0
16, 201600, Note_on_c, 14, 58, 84
16, 201759, Note_on_c, 14, 58, 0
16, 201840, Note_on_c, 14, 62, 84
16, 201999, Note_on_c, 14, 62, 0
16, 202080, Note_on_c, 14, 62, 84
16, 202239, Note_on_c, 14, 62, 0
16, 202320, Note_on_c, 14, 65, 84
16, 202479, Note_on_c, 14, 65, 0
16, 202560, Note_on_c, 14, 65, 84
16, 202719, Note_on_c, 14, 65, 0
16, 203520, Note_on_c, 14, 53, 84
16, 203679, Note_on_c, 14, 53, 0
16, 203760, Note_on_c, 14, 60, 84
16, 203919, Note_on_c, 14, 60, 0
16, 204000, Note_on_c, 14, 60, 84
16, 204159, Note_on_c, 14, 60, 0
16, 204240, Note_on_c, 14, 65, 84
16, 204399, Note_on_c, 14, 65, 0
16, 204480, Note_on_c, 14, 58, 84
16, 204639, Note_on_c, 14, 58, 0
16, 204960, Note_on_c, 14, 46, 88
16, 205119, Note_on_c, 14, 46, 0
16, 205200, Note_on_c, 14, 50, 84
16, 205359, Note_on_c, 14, 50, 0
16, 205440, Note_on_c, 14, 50, 88
16, 205599, Note_on_c, 14, 50, 0
16, 205680, Note_on_c, 14, 53, 84
16, 205839, Note_on_c, 14, 53, 0
16, 206880, Note_on_c, 14, 46, 84
16, 207039, Note_on_c, 14, 46, 0
16, 207120, Note_on_c, 14, 50, 84
16, 207279, Note_on_c, 14, 50, 0
16, 207360, Note_on_c, 14, 50, 84
16, 207519, Note_on_c, 14, 50, 0
16, 207600, Note_on_c, 14, 53, 84
16, 207759, Note_on_c, 14, 53, 0
16, 209760, Note_on_c, 14, 55, 84
16, 209919, Note_on_c, 14, 55, 0
16, 210000, Note_on_c, 14, 52, 84
16, 210159, Note_on_c, 14, 52, 0
16, 210240, Note_on_c, 14, 52, 84
16, 210399, Note_on_c, 14, 52, 0
16, 210480, Note_on_c, 14, 48, 84
16, 210639, Note_on_c, 14, 48, 0
16, 210720, Note_on_c, 14, 48, 84
16, 210879, Note_on_c, 14, 48, 0
16, 210960, Note_on_c, 14, 52, 84
16, 211119, Note_on_c, 14, 52, 0
16, 211200, Note_on_c, 14, 52, 84
16, 211359, Note_on_c, 14, 52, 0
16, 211440, Note_on_c, 14, 55, 84
16, 211599, Note_on_c, 14, 55, 0
16, 211680, Note_on_c, 14, 48, 84
16, 211839, Note_on_c, 14, 48, 0
16, 211920, Note_on_c, 14, 52, 84
16, 212079, Note_on_c, 14, 52, 0
16, 212160, Note_on_c, 14, 52, 84
16, 212319, Note_on_c, 14, 52, 0
16, 212400, Note_on_c, 14, 55, 84
16, 212559, Note_on_c, 14, 55, 0
16, 212640, Note_on_c, 14, 48, 84
16, 212799, Note_on_c, 14, 48, 0
16, 212880, Note_on_c, 14, 52, 84
16, 213039, Note_on_c, 14, 52, 0
16, 213120, Note_on_c, 14, 52, 84
16, 213279, Note_on_c, 14, 52, 0
16, 213360, Note_on_c, 14, 55, 84
16, 213519, Note_on_c, 14, 55, 0
16, 213600, Note_on_c, 14, 48, 84
16, 213759, Note_on_c, 14, 48, 0
16, 213840, Note_on_c, 14, 52, 84
16, 213999, Note_on_c, 14, 52, 0
16, 214080, Note_on_c, 14, 55, 84
16, 214239, Note_on_c, 14, 55, 0
16, 214320, Note_on_c, 14, 60, 84
16, 214479, Note_on_c, 14, 60, 0
16, 214560, Note_on_c, 14, 60, 84
16, 214719, Note_on_c, 14, 60, 0
16, 214800, Note_on_c, 14, 48, 84
16, 214959, Note_on_c, 14, 48, 0
16, 215040, Note_on_c, 14, 49, 52
16, 215999, Note_on_c, 14, 49, 0
16, 216000, Note_on_c, 14, 49, 52
16, 216939, Note_on_c, 14, 49, 0
16, 216960, Note_on_c, 14, 49, 52
16, 217419, Note_on_c, 14, 49, 0
16, 217440, Note_on_c, 14, 49, 52
16, 217899, Note_on_c, 14, 49, 0
16, 217920, Note_on_c, 14, 49, 52
16, 218379, Note_on_c, 14, 49, 0
16, 218400, Note_on_c, 14, 49, 52
16, 218859, Note_on_c, 14, 49, 0
16, 218880, Note_on_c, 14, 49, 52
16, 219839, Note_on_c, 14, 49, 0
16, 219840, Note_on_c, 14, 49, 52
16, 220779, Note_on_c, 14, 49, 0
16, 220800, Note_on_c, 14, 49, 52
16, 221259, Note_on_c, 14, 49, 0
16, 221280, Note_on_c, 14, 49, 52
16, 221739, Note_on_c, 14, 49, 0
16, 221758, Control_c, 14, 11, 96
16, 221760, Note_on_c, 14, 49, 68
16, 222219, Note_on_c, 14, 49, 0
16, 222240, Note_on_c, 14, 49, 68
16, 222699, Note_on_c, 14, 49, 0
16, 222720, Control_c, 14, 11, 96
16, 222720, Note_on_c, 14, 49, 68
16, 223000, Control_c, 14, 11, 99
16, 223280, Control_c, 14, 11, 101
16, 223560, Control_c, 14, 11, 104
16, 223659, Note_on_c, 14, 49, 0
16, 223680, Note_on_c, 14, 43, 68
16, 223840, Control_c, 14, 11, 106
16, 224120, Control_c, 14, 11, 109
16, 224400, Control_c, 14, 11, 112
16, 224619, Note_on_c, 14, 43, 0
16, 224640, Note_on_c, 14, 36, 68
16, 224680, Control_c, 14, 11, 114
16, 224960, Control_c, 14, 11, 117
16, 225240, Control_c, 14, 11, 119
16, 225520, Control_c, 14, 11, 122
16, 225599, Note_on_c, 14, 36, 0
16, 225600, Note_on_c, 14, 36, 68
16, 225800, Control_c, 14, 11, 124
16, 226080, Control_c, 14, 11, 127
16, 226539, Note_on_c, 14, 36, 0
16, 226560, Note_on_c, 14, 41, 52
16, 226799, Note_on_c, 14, 41, 0
16, 227280, Program_c, 14, 45
16, 227520, Note_on_c, 14, 53, 44
16, 227759, Note_on_c, 14, 53, 0
16, 228480, Note_on_c, 14, 53, 44
16, 228719, Note_on_c, 14, 53, 0
16, 228960, Note_on_c, 14, 53, 44
16, 229199, Note_on_c, 14, 53, 0
16, 229440, Note_on_c, 14, 53, 44
16, 229679, Note_on_c, 14, 53, 0
16, 229800, Control_c, 14, 11, 96
16, 229800, Program_c, 14, 48
16, 229920, Note_on_c, 14, 64, 68
16, 229980, Control_c, 14, 11, 99
16, 230040, Control_c, 14, 11, 101
16, 230100, Control_c, 14, 11, 104
16, 230160, Control_c, 14, 11, 106
16, 230220, Control_c, 14, 11, 109
16, 230280, Control_c, 14, 11, 112
16, 230340, Control_c, 14, 11, 114
16, 230399, Note_on_c, 14, 64, 0
16, 230400, Control_c, 14, 11, 117
16, 230400, Note_on_c, 14, 65, 68
16, 230460, Control_c, 14, 11, 119
16, 230520, Control_c, 14, 11, 122
16, 230580, Control_c, 14, 11, 124
16, 230640, Control_c, 14, 11, 127
16, 230880, Control_c, 14, 11, 127
16, 230920, Control_c, 14, 11, 124
16, 230960, Control_c, 14, 11, 122
16, 231000, Control_c, 14, 11, 119
16, 231040, Control_c, 14, 11, 117
16, 231080, Control_c, 14, 11, 114
16, 231119, Note_on_c, 14, 65, 0
16, 231120, Control_c, 14, 11, 112
16, 231120, Note_on_c, 14, 67, 68
16, 231160, Control_c, 14, 11, 109
16, 231200, Control_c, 14, 11, 106
16, 231239, Note_on_c, 14, 67, 0
16, 231240, Control_c, 14, 11, 104
16, 231240, Note_on_c, 14, 69, 68
16, 231280, Control_c, 14, 11, 101
16, 231320, Control_c, 14, 11, 99
16, 231359, Note_on_c, 14, 69, 0
16, 231360, Note_on_c, 14, 60, 68
16, 231360, Control_c, 14, 11, 96
16, 231599, Note_on_c, 14, 60, 0
16, 232080, Program_c, 14, 45
16, 232080, Control_c, 14, 11, 127
16, 232320, Note_on_c, 14, 53, 44
16, 232559, Note_on_c, 14, 53, 0
16, 232800, Note_on_c, 14, 53, 44
16, 233039, Note_on_c, 14, 53, 0
16, 233280, Note_on_c, 14, 53, 44
16, 233519, Note_on_c, 14, 53, 0
16, 233640, Program_c, 14, 48
16, 233640, Control_c, 14, 11, 112
16, 233760, Control_c, 14, 11, 112
16, 233760, Note_on_c, 14, 64, 60
16, 233800, Control_c, 14, 11, 113
16, 233840, Control_c, 14, 11, 115
16, 233880, Control_c, 14, 11, 116
16, 233920, Control_c, 14, 11, 117
16, 233960, Control_c, 14, 11, 118
16, 234000, Control_c, 14, 11, 120
16, 234040, Control_c, 14, 11, 121
16, 234080, Control_c, 14, 11, 122
16, 234120, Control_c, 14, 11, 123
16, 234160, Control_c, 14, 11, 125
16, 234200, Control_c, 14, 11, 126
16, 234239, Note_on_c, 14, 64, 0
16, 234240, Note_on_c, 14, 65, 44
16, 234240, Control_c, 14, 11, 127
16, 234479, Note_on_c, 14, 65, 0
16, 234720, Program_c, 14, 45
16, 234960, Note_on_c, 14, 62, 40
16, 235199, Note_on_c, 14, 62, 0
16, 235200, Note_on_c, 14, 67, 40
16, 235439, Note_on_c, 14, 67, 0
16, 235920, Note_on_c, 14, 64, 40
16, 236159, Note_on_c, 14, 64, 0
16, 236160, Note_on_c, 14, 69, 40
16, 236399, Note_on_c, 14, 69, 0
16, 236880, Note_on_c, 14, 53, 40
16, 237119, Note_on_c, 14, 53, 0
16, 237120, Note_on_c, 14, 58, 40
16, 237359, Note_on_c, 14, 58, 0
16, 237840, Note_on_c, 14, 55, 40
16, 238079, Note_on_c, 14, 55, 0
16, 238080, Note_on_c, 14, 60, 40
16, 238319, Note_on_c, 14, 60, 0
16, 238800, Note_on_c, 14, 65, 40
16, 239039, Note_on_c, 14, 65, 0
16, 239040, Note_on_c, 14, 58, 40
16, 239279, Note_on_c, 14, 58, 0
16, 239760, Note_on_c, 14, 64, 40
16, 239999, Note_on_c, 14, 64, 0
16, 240000, Note_on_c, 14, 57, 40
16, 240239, Note_on_c, 14, 57, 0
16, 240720, Note_on_c, 14, 62, 40
16, 240959, Note_on_c, 14, 62, 0
16, 240960, Note_on_c, 14, 55, 40
16, 241199, Note_on_c, 14, 55, 0
16, 241440, Program_c, 14, 48
16, 241680, Note_on_c, 14, 60, 44
16, 241899, Note_on_c, 14, 60, 0
16, 241920, Note_on_c, 14, 53, 76
16, 242139, Note_on_c, 14, 53, 0
16, 242160, Note_on_c, 14, 53, 76
16, 242619, Note_on_c, 14, 53, 0
16, 242640, Note_on_c, 14, 50, 76
16, 242859, Note_on_c, 14, 50, 0
16, 242880, Note_on_c, 14, 55, 76
16, 243099, Note_on_c, 14, 55, 0
16, 243120, Note_on_c, 14, 55, 76
16, 243579, Note_on_c, 14, 55, 0
16, 243600, Note_on_c, 14, 52, 76
16, 243819, Note_on_c, 14, 52, 0
16, 243840, Note_on_c, 14, 57, 76
16, 244059, Note_on_c, 14, 57, 0
16, 244080, Note_on_c, 14, 57, 76
16, 244539, Note_on_c, 14, 57, 0
16, 244560, Note_on_c, 14, 53, 76
16, 244779, Note_on_c, 14, 53, 0
16, 244800, Note_on_c, 14, 58, 76
16, 245019, Note_on_c, 14, 58, 0
16, 245040, Note_on_c, 14, 58, 76
16, 245499, Note_on_c, 14, 58, 0
16, 245520, Note_on_c, 14, 55, 76
16, 245739, Note_on_c, 14, 55, 0
16, 245760, Note_on_c, 14, 60, 76
16, 245919, Note_on_c, 14, 60, 0
16, 246000, Note_on_c, 14, 48, 76
16, 246159, Note_on_c, 14, 48, 0
16, 246240, Note_on_c, 14, 60, 76
16, 246399, Note_on_c, 14, 60, 0
16, 246480, Note_on_c, 14, 57, 76
16, 246639, Note_on_c, 14, 57, 0
16, 246720, Note_on_c, 14, 58, 76
16, 246879, Note_on_c, 14, 58, 0
16, 246960, Note_on_c, 14, 46, 76
16, 247119, Note_on_c, 14, 46, 0
16, 247200, Note_on_c, 14, 58, 76
16, 247359, Note_on_c, 14, 58, 0
16, 247440, Note_on_c, 14, 56, 76
16, 247599, Note_on_c, 14, 56, 0
16, 247680, Note_on_c, 14, 57, 76
16, 247899, Note_on_c, 14, 57, 0
16, 247920, Note_on_c, 14, 45, 76
16, 248139, Note_on_c, 14, 45, 0
16, 248160, Note_on_c, 14, 57, 76
16, 248379, Note_on_c, 14, 57, 0
16, 248400, Note_on_c, 14, 54, 76
16, 248619, Note_on_c, 14, 54, 0
16, 248640, Note_on_c, 14, 55, 76
16, 248859, Note_on_c, 14, 55, 0
16, 248880, Note_on_c, 14, 43, 76
16, 249099, Note_on_c, 14, 43, 0
16, 249120, Note_on_c, 14, 55, 76
16, 249339, Note_on_c, 14, 55, 0
16, 249360, Note_on_c, 14, 52, 76
16, 249579, Note_on_c, 14, 52, 0
16, 249600, Note_on_c, 14, 52, 80
16, 249819, Note_on_c, 14, 52, 0
16, 249840, Note_on_c, 14, 48, 80
16, 250059, Note_on_c, 14, 48, 0
16, 250080, Note_on_c, 14, 67, 80
16, 250299, Note_on_c, 14, 67, 0
16, 250320, Note_on_c, 14, 64, 80
16, 250539, Note_on_c, 14, 64, 0
16, 250560, Note_on_c, 14, 64, 80
16, 250779, Note_on_c, 14, 64, 0
16, 250800, Note_on_c, 14, 60, 80
16, 251019, Note_on_c, 14, 60, 0
16, 251040, Note_on_c, 14, 60, 80
16, 251259, Note_on_c, 14, 60, 0
16, 251280, Note_on_c, 14, 48, 80
16, 251499, Note_on_c, 14, 48, 0
16, 251520, Note_on_c, 14, 60, 80
16, 251739, Note_on_c, 14, 60, 0
16, 251760, Note_on_c, 14, 53, 80
16, 251979, Note_on_c, 14, 53, 0
16, 252000, Note_on_c, 14, 63, 80
16, 252219, Note_on_c, 14, 63, 0
16, 252240, Note_on_c, 14, 60, 80
16, 252459, Note_on_c, 14, 60, 0
16, 252480, Note_on_c, 14, 60, 80
16, 252699, Note_on_c, 14, 60, 0
16, 252720, Note_on_c, 14, 53, 80
16, 252939, Note_on_c, 14, 53, 0
16, 252960, Note_on_c, 14, 53, 80
16, 253179, Note_on_c, 14, 53, 0
16, 253200, Note_on_c, 14, 41, 80
16, 253419, Note_on_c, 14, 41, 0
16, 253440, Note_on_c, 14, 53, 84
16, 253659, Note_on_c, 14, 53, 0
16, 253680, Note_on_c, 14, 46, 84
16, 253899, Note_on_c, 14, 46, 0
16, 253920, Note_on_c, 14, 58, 84
16, 254139, Note_on_c, 14, 58, 0
16, 254160, Note_on_c, 14, 53, 84
16, 254379, Note_on_c, 14, 53, 0
16, 254400, Note_on_c, 14, 65, 84
16, 254619, Note_on_c, 14, 65, 0
16, 254640, Note_on_c, 14, 58, 84
16, 254859, Note_on_c, 14, 58, 0
16, 254880, Note_on_c, 14, 58, 84
16, 255099, Note_on_c, 14, 58, 0
16, 255120, Note_on_c, 14, 46, 84
16, 255339, Note_on_c, 14, 46, 0
16, 255360, Note_on_c, 14, 46, 84
16, 255599, Note_on_c, 14, 46, 0
16, 267360, Note_on_c, 14, 63, 44
16, 267424, Note_on_c, 14, 63, 0
16, 267440, Note_on_c, 14, 63, 44
16, 267504, Note_on_c, 14, 63, 0
16, 267520, Note_on_c, 14, 63, 44
16, 267584, Note_on_c, 14, 63, 0
16, 267600, Note_on_c, 14, 63, 44
16, 267664, Note_on_c, 14, 63, 0
16, 267680, Note_on_c, 14, 63, 44
16, 267744, Note_on_c, 14, 63, 0
16, 267760, Note_on_c, 14, 63, 44
16, 267824, Note_on_c, 14, 63, 0
16, 267840, Note_on_c, 14, 63, 44
16, 267959, Note_on_c, 14, 63, 0
16, 267960, Note_on_c, 14, 65, 44
16, 268059, Note_on_c, 14, 65, 0
16, 268080, Note_on_c, 14, 62, 44
16, 268239, Note_on_c, 14, 62, 0
16, 268320, Note_on_c, 14, 64, 76
16, 268439, Note_on_c, 14, 64, 0
16, 268440, Note_on_c, 14, 65, 76
16, 268539, Note_on_c, 14, 65, 0
16, 268560, Note_on_c, 14, 62, 76
16, 268719, Note_on_c, 14, 62, 0
16, 270240, Note_on_c, 14, 65, 76
16, 270359, Note_on_c, 14, 65, 0
16, 270360, Note_on_c, 14, 67, 76
16, 270459, Note_on_c, 14, 67, 0
16, 270480, Note_on_c, 14, 64, 76
16, 270639, Note_on_c, 14, 64, 0
16, 276000, Note_on_c, 14, 45, 44
16, 276064, Note_on_c, 14, 45, 0
16, 276080, Note_on_c, 14, 45, 44
16, 276144, Note_on_c, 14, 45, 0
16, 276160, Note_on_c, 14, 45, 44
16, 276224, Note_on_c, 14, 45, 0
16, 276240, Note_on_c, 14, 45, 44
16, 276304, Note_on_c, 14, 45, 0
16, 276320, Note_on_c, 14, 45, 44
16, 276384, Note_on_c, 14, 45, 0
16, 276400, Note_on_c, 14, 45, 44
16, 276464, Note_on_c, 14, 45, 0
16, 276480, Note_on_c, 14, 45, 44
16, 276719, Note_on_c, 14, 45, 0
16, 276960, Note_on_c, 14, 57, 44
16, 277024, Note_on_c, 14, 57, 0
16, 277040, Note_on_c, 14, 57, 44
16, 277104, Note_on_c, 14, 57, 0
16, 277120, Note_on_c, 14, 57, 44
16, 277184, Note_on_c, 14, 57, 0
16, 277200, Note_on_c, 14, 57, 44
16, 277264, Note_on_c, 14, 57, 0
16, 277280, Note_on_c, 14, 57, 44
16, 277344, Note_on_c, 14, 57, 0
16, 277360, Note_on_c, 14, 57, 44
16, 277424, Note_on_c, 14, 57, 0
16, 277440, Note_on_c, 14, 57, 44
16, 277679, Note_on_c, 14, 57, 0
16, 277920, Note_on_c, 14, 57, 44
16, 277984, Note_on_c, 14, 57, 0
16, 278000, Note_on_c, 14, 57, 44
16, 278064, Note_on_c, 14, 57, 0
16, 278080, Note_on_c, 14, 57, 44
16, 278144, Note_on_c, 14, 57, 0
16, 278160, Note_on_c, 14, 57, 44
16, 278224, Note_on_c, 14, 57, 0
16, 278240, Note_on_c, 14, 57, 44
16, 278304, Note_on_c, 14, 57, 0
16, 278320, Note_on_c, 14, 57, 44
16, 278384, Note_on_c, 14, 57, 0
16, 278400, Note_on_c, 14, 57, 44
16, 278639, Note_on_c, 14, 57, 0
16, 283680, Note_on_c, 14, 41, 44
16, 283744, Note_on_c, 14, 41, 0
16, 283760, Note_on_c, 14, 41, 44
16, 283824, Note_on_c, 14, 41, 0
16, 283840, Note_on_c, 14, 41, 44
16, 283904, Note_on_c, 14, 41, 0
16, 283920, Note_on_c, 14, 41, 44
16, 283984, Note_on_c, 14, 41, 0
16, 284000, Note_on_c, 14, 41, 44
16, 284064, Note_on_c, 14, 41, 0
16, 284080, Note_on_c, 14, 41, 44
16, 284144, Note_on_c, 14, 41, 0
16, 284160, Note_on_c, 14, 41, 44
16, 284399, Note_on_c, 14, 41, 0
16, 284640, Note_on_c, 14, 53, 44
16, 284704, Note_on_c, 14, 53, 0
16, 284720, Note_on_c, 14, 53, 44
16, 284784, Note_on_c, 14, 53, 0
16, 284800, Note_on_c, 14, 53, 44
16, 284864, Note_on_c, 14, 53, 0
16, 284880, Note_on_c, 14, 53, 44
16, 284944, Note_on_c, 14, 53, 0
16, 284960, Note_on_c, 14, 53, 44
16, 285024, Note_on_c, 14, 53, 0
16, 285040, Note_on_c, 14, 53, 44
16, 285104, Note_on_c, 14, 53, 0
16, 285120, Note_on_c, 14, 53, 44
16, 285359, Note_on_c, 14, 53, 0
16, 285600, Note_on_c, 14, 53, 44
16, 285664, Note_on_c, 14, 53, 0
16, 285680, Note_on_c, 14, 53, 44
16, 285744, Note_on_c, 14, 53, 0
16, 285760, Note_on_c, 14, 53, 44
16, 285824, Note_on_c, 14, 53, 0
16, 285840, Note_on_c, 14, 53, 44
16, 285904, Note_on_c, 14, 53, 0
16, 285920, Note_on_c, 14, 53, 44
16, 285984, Note_on_c, 14, 53, 0
16, 286000, Note_on_c, 14, 53, 44
16, 286064, Note_on_c, 14, 53, 0
16, 286080, Note_on_c, 14, 53, 44
16, 286319, Note_on_c, 14, 53, 0
16, 286560, Note_on_c, 14, 53, 44
16, 287519, Note_on_c, 14, 53, 0
16, 287520, Note_on_c, 14, 51, 44
16, 287999, Note_on_c, 14, 51, 0
16, 288000, Note_on_c, 14, 50, 44
16, 288479, Note_on_c, 14, 50, 0
16, 288480, Note_on_c, 14, 48, 44
16, 288959, Note_on_c, 14, 48, 0
16, 288960, Note_on_c, 14, 46, 44
16, 289439, Note_on_c, 14, 46, 0
16, 289440, Note_on_c, 14, 44, 44
16, 289919, Note_on_c, 14, 44, 0
16, 289920, Note_on_c, 14, 43, 44
16, 290379, Note_on_c, 14, 43, 0
16, 290400, Note_on_c, 14, 55, 44
16, 291359, Note_on_c, 14, 55, 0
16, 291360, Note_on_c, 14, 53, 44
16, 291839, Note_on_c, 14, 53, 0
16, 291840, Note_on_c, 14, 51, 44
16, 292319, Note_on_c, 14, 51, 0
16, 292320, Note_on_c, 14, 50, 44
16, 292799, Note_on_c, 14, 50, 0
16, 292800, Note_on_c, 14, 48, 44
16, 293279, Note_on_c, 14, 48, 0
16, 293280, Note_on_c, 14, 46, 44
16, 293759, Note_on_c, 14, 46, 0
16, 293760, Note_on_c, 14, 45, 44
16, 294219, Note_on_c, 14, 45, 0
16, 294238, Control_c, 14, 11, 64
16, 294240, Control_c, 14, 11, 64
16, 294240, Note_on_c, 14, 45, 76
16, 294550, Control_c, 14, 11, 67
16, 294639, Note_on_c, 14, 45, 0
16, 294720, Note_on_c, 14, 47, 76
16, 294860, Control_c, 14, 11, 69
16, 295119, Note_on_c, 14, 47, 0
16, 295170, Control_c, 14, 11, 72
16, 295200, Note_on_c, 14, 49, 76
16, 295480, Control_c, 14, 11, 75
16, 295599, Note_on_c, 14, 49, 0
16, 295680, Note_on_c, 14, 50, 76
16, 295790, Control_c, 14, 11, 77
16, 296079, Note_on_c, 14, 50, 0
16, 296100, Control_c, 14, 11, 80
16, 296160, Note_on_c, 14, 51, 76
16, 296410, Control_c, 14, 11, 82
16, 296559, Note_on_c, 14, 51, 0
16, 296640, Note_on_c, 14, 53, 76
16, 296720, Control_c, 14, 11, 85
16, 297030, Control_c, 14, 11, 88
16, 297039, Note_on_c, 14, 53, 0
16, 297120, Note_on_c, 14, 54, 76
16, 297340, Control_c, 14, 11, 90
16, 297519, Note_on_c, 14, 54, 0
16, 297600, Note_on_c, 14, 55, 76
16, 297650, Control_c, 14, 11, 93
16, 297960, Control_c, 14, 11, 96
16, 297999, Note_on_c, 14, 55, 0
16, 298080, Note_on_c, 14, 43, 76
16, 298270, Control_c, 14, 11, 98
16, 298479, Note_on_c, 14, 43, 0
16, 298560, Note_on_c, 14, 44, 76
16, 298580, Control_c, 14, 11, 101
16, 298890, Control_c, 14, 11, 103
16, 298959, Note_on_c, 14, 44, 0
16, 299040, Note_on_c, 14, 47, 76
16, 299200, Control_c, 14, 11, 106
16, 299439, Note_on_c, 14, 47, 0
16, 299510, Control_c, 14, 11, 109
16, 299520, Note_on_c, 14, 48, 76
16, 299820, Control_c, 14, 11, 111
16, 299919, Note_on_c, 14, 48, 0
16, 300000, Note_on_c, 14, 50, 76
16, 300130, Control_c, 14, 11, 114
16, 300399, Note_on_c, 14, 50, 0
16, 300440, Control_c, 14, 11, 117
16, 300480, Note_on_c, 14, 51, 76
16, 300750, Control_c, 14, 11, 119
16, 300879, Note_on_c, 14, 51, 0
16, 300960, Note_on_c, 14, 52, 76
16, 301060, Control_c, 14, 11, 122
16, 301359, Note_on_c, 14, 52, 0
16, 301370, Control_c, 14, 11, 124
16, 301440, Note_on_c, 14, 53, 76
16, 301680, Control_c, 14, 11, 127
16, 301839, Note_on_c, 14, 53, 0
16, 301920, Note_on_c, 14, 65, 76
16, 302859, Note_on_c, 14, 65, 0
16, 302880, Note_on_c, 14, 63, 76
16, 303279, Note_on_c, 14, 63, 0
16, 303360, Note_on_c, 14, 61, 76
16, 303759, Note_on_c, 14, 61, 0
16, 303840, Note_on_c, 14, 60, 76
16, 304239, Note_on_c, 14, 60, 0
16, 304320, Note_on_c, 14, 58, 76
16, 304719, Note_on_c, 14, 58, 0
16, 304800, Note_on_c, 14, 56, 76
16, 305199, Note_on_c, 14, 56, 0
16, 305280, Note_on_c, 14, 55, 76
16, 305679, Note_on_c, 14, 55, 0
16, 305760, Note_on_c, 14, 63, 76
16, 306699, Note_on_c, 14, 63, 0
16, 306720, Note_on_c, 14, 61, 76
16, 307119, Note_on_c, 14, 61, 0
16, 307200, Note_on_c, 14, 60, 76
16, 307599, Note_on_c, 14, 60, 0
16, 307680, Note_on_c, 14, 58, 76
16, 308079, Note_on_c, 14, 58, 0
16, 308160, Note_on_c, 14, 56, 76
16, 308559, Note_on_c, 14, 56, 0
16, 308640, Note_on_c, 14, 54, 76
16, 309039, Note_on_c, 14, 54, 0
16, 309120, Note_on_c, 14, 53, 76
16, 309519, Note_on_c, 14, 53, 0
16, 309600, Note_on_c, 14, 49, 76
16, 309999, Note_on_c, 14, 49, 0
16, 310080, Note_on_c, 14, 51, 76
16, 310479, Note_on_c, 14, 51, 0
16, 310560, Note_on_c, 14, 53, 76
16, 310959, Note_on_c, 14, 53, 0
16, 311040, Note_on_c, 14, 55, 76
16, 311439, Note_on_c, 14, 55, 0
16, 311520, Note_on_c, 14, 56, 76
16, 311919, Note_on_c, 14, 56, 0
16, 312000, Note_on_c, 14, 58, 76
16, 312399, Note_on_c, 14, 58, 0
16, 312480, Note_on_c, 14, 59, 76
16, 312879, Note_on_c, 14, 59, 0
16, 312960, Note_on_c, 14, 60, 76
16, 313359, Note_on_c, 14, 60, 0
16, 313440, Note_on_c, 14, 48, 76
16, 313839, Note_on_c, 14, 48, 0
16, 313920, Note_on_c, 14, 50, 76
16, 314319, Note_on_c, 14, 50, 0
16, 314400, Note_on_c, 14, 52, 76
16, 314799, Note_on_c, 14, 52, 0
16, 314880, Note_on_c, 14, 53, 76
16, 315279, Note_on_c, 14, 53, 0
16, 315360, Note_on_c, 14, 55, 76
16, 315759, Note_on_c, 14, 55, 0
16, 315840, Note_on_c, 14, 56, 76
16, 316239, Note_on_c, 14, 56, 0
16, 316320, Note_on_c, 14, 57, 76
16, 316719, Note_on_c, 14, 57, 0
16, 316800, Note_on_c, 14, 58, 76
16, 317199, Note_on_c, 14, 58, 0
16, 317280, Note_on_c, 14, 56, 76
16, 317679, Note_on_c, 14, 56, 0
16, 317760, Note_on_c, 14, 55, 76
16, 318159, Note_on_c, 14, 55, 0
16, 318240, Note_on_c, 14, 53, 76
16, 318639, Note_on_c, 14, 53, 0
16, 318720, Note_on_c, 14, 51, 76
16, 319119, Note_on_c, 14, 51, 0
16, 319200, Note_on_c, 14, 53, 76
16, 319599, Note_on_c, 14, 53, 0
16, 319680, Note_on_c, 14, 55, 76
16, 320079, Note_on_c, 14, 55, 0
16, 320160, Note_on_c, 14, 56, 76
16, 320559, Note_on_c, 14, 56, 0
16, 320640, Note_on_c, 14, 57, 76
16, 321039, Note_on_c, 14, 57, 0
16, 321120, Note_on_c, 14, 55, 76
16, 321519, Note_on_c, 14, 55, 0
16, 321600, Note_on_c, 14, 53, 76
16, 321999, Note_on_c, 14, 53, 0
16, 322080, Note_on_c, 14, 52, 76
16, 322479, Note_on_c, 14, 52, 0
16, 322560, Note_on_c, 14, 50, 76
16, 322779, Note_on_c, 14, 50, 0
16, 322800, Note_on_c, 14, 52, 76
16, 323019, Note_on_c, 14, 52, 0
16, 323040, Note_on_c, 14, 53, 76
16, 323259, Note_on_c, 14, 53, 0
16, 323280, Note_on_c, 14, 54, 76
16, 323499, Note_on_c, 14, 54, 0
16, 323520, Note_on_c, 14, 55, 76
16, 323739, Note_on_c, 14, 55, 0
16, 323760, Note_on_c, 14, 53, 76
16, 323979, Note_on_c, 14, 53, 0
16, 324000, Note_on_c, 14, 51, 76
16, 324219, Note_on_c, 14, 51, 0
16, 324240, Note_on_c, 14, 50, 76
16, 324459, Note_on_c, 14, 50, 0
16, 324480, Note_on_c, 14, 48, 76
16, 324699, Note_on_c, 14, 48, 0
16, 324720, Note_on_c, 14, 50, 76
16, 324939, Note_on_c, 14, 50, 0
16, 324960, Note_on_c, 14, 51, 76
16, 325179, Note_on_c, 14, 51, 0
16, 325200, Note_on_c, 14, 52, 76
16, 325419, Note_on_c, 14, 52, 0
16, 325440, Note_on_c, 14, 53, 76
16, 325659, Note_on_c, 14, 53, 0
16, 325680, Note_on_c, 14, 51, 76
16, 325899, Note_on_c, 14, 51, 0
16, 325920, Note_on_c, 14, 50, 76
16, 326139, Note_on_c, 14, 50, 0
16, 326160, Note_on_c, 14, 48, 76
16, 326379, Note_on_c, 14, 48, 0
16, 326400, Note_on_c, 14, 46, 76
16, 326619, Note_on_c, 14, 46, 0
16, 326640, Note_on_c, 14, 57, 76
16, 326859, Note_on_c, 14, 57, 0
16, 326880, Note_on_c, 14, 55, 76
16, 327099, Note_on_c, 14, 55, 0
16, 327120, Note_on_c, 14, 53, 76
16, 327339, Note_on_c, 14, 53, 0
16, 327360, Note_on_c, 14, 52, 76
16, 327579, Note_on_c, 14, 52, 0
16, 327600, Note_on_c, 14, 50, 76
16, 327819, Note_on_c, 14, 50, 0
16, 327840, Note_on_c, 14, 49, 76
16, 328059, Note_on_c, 14, 49, 0
16, 328080, Note_on_c, 14, 47, 76
16, 328299, Note_on_c, 14, 47, 0
16, 328320, Note_on_c, 14, 45, 76
16, 328539, Note_on_c, 14, 45, 0
16, 328560, Note_on_c, 14, 47, 76
16, 328779, Note_on_c, 14, 47, 0
16, 328800, Note_on_c, 14, 49, 76
16, 329019, Note_on_c, 14, 49, 0
16, 329040, Note_on_c, 14, 50, 76
16, 329259, Note_on_c, 14, 50, 0
16, 329280, Note_on_c, 14, 52, 76
16, 329499, Note_on_c, 14, 52, 0
16, 329520, Note_on_c, 14, 54, 76
16, 329739, Note_on_c, 14, 54, 0
16, 329760, Note_on_c, 14, 55, 76
16, 329979, Note_on_c, 14, 55, 0
16, 330000, Note_on_c, 14, 56, 76
16, 330219, Note_on_c, 14, 56, 0
16, 330240, Note_on_c, 14, 57, 76
16, 330459, Note_on_c, 14, 57, 0
16, 330480, Note_on_c, 14, 59, 76
16, 330699, Note_on_c, 14, 59, 0
16, 330720, Note_on_c, 14, 61, 76
16, 330939, Note_on_c, 14, 61, 0
16, 330960, Note_on_c, 14, 62, 76
16, 331179, Note_on_c, 14, 62, 0
16, 331200, Note_on_c, 14, 64, 76
16, 331419, Note_on_c, 14, 64, 0
16, 331440, Note_on_c, 14, 66, 76
16, 331659, Note_on_c, 14, 66, 0
16, 331680, Note_on_c, 14, 68, 84
16, 331899, Note_on_c, 14, 68, 0
16, 331920, Note_on_c, 14, 69, 84
16, 332139, Note_on_c, 14, 69, 0
16, 332160, Note_on_c, 14, 57, 84
16, 332379, Note_on_c, 14, 57, 0
16, 332400, Note_on_c, 14, 69, 84
16, 332619, Note_on_c, 14, 69, 0
16, 332640, Note_on_c, 14, 57, 84
16, 332859, Note_on_c, 14, 57, 0
16, 332880, Note_on_c, 14, 69, 84
16, 333099, Note_on_c, 14, 69, 0
16, 333120, Note_on_c, 14, 57, 84
16, 333339, Note_on_c, 14, 57, 0
16, 333360, Note_on_c, 14, 69, 84
16, 333579, Note_on_c, 14, 69, 0
16, 333600, Note_on_c, 14, 57, 84
16, 333819, Note_on_c, 14, 57, 0
16, 333840, Note_on_c, 14, 69, 84
16, 334059, Note_on_c, 14, 69, 0
16, 334080, Note_on_c, 14, 57, 84
16, 334299, Note_on_c, 14, 57, 0
16, 334320, Note_on_c, 14, 69, 84
16, 334539, Note_on_c, 14, 69, 0
16, 334560, Note_on_c, 14, 57, 84
16, 334779, Note_on_c, 14, 57, 0
16, 334800, Note_on_c, 14, 69, 84
16, 335019, Note_on_c, 14, 69, 0
16, 335040, Note_on_c, 14, 57, 84
16, 335259, Note_on_c, 14, 57, 0
16, 335280, Note_on_c, 14, 69, 84
16, 335519, Note_on_c, 14, 69, 0
16, 345120, Note_on_c, 14, 41, 44
16, 345279, Note_on_c, 14, 41, 0
16, 345360, Note_on_c, 14, 53, 44
16, 345519, Note_on_c, 14, 53, 0
16, 345600, Note_on_c, 14, 46, 44
16, 345759, Note_on_c, 14, 46, 0
16, 345840, Note_on_c, 14, 58, 44
16, 345999, Note_on_c, 14, 58, 0
16, 346080, Note_on_c, 14, 50, 44
16, 346239, Note_on_c, 14, 50, 0
16, 346320, Note_on_c, 14, 62, 44
16, 346479, Note_on_c, 14, 62, 0
16, 346560, Note_on_c, 14, 43, 44
16, 346719, Note_on_c, 14, 43, 0
16, 346800, Note_on_c, 14, 55, 44
16, 346959, Note_on_c, 14, 55, 0
16, 347040, Note_on_c, 14, 43, 44
16, 347199, Note_on_c, 14, 43, 0
16, 347280, Note_on_c, 14, 45, 44
16, 347439, Note_on_c, 14, 45, 0
16, 347520, Note_on_c, 14, 46, 44
16, 347679, Note_on_c, 14, 46, 0
16, 347760, Note_on_c, 14, 58, 44
16, 347919, Note_on_c, 14, 58, 0
16, 348000, Note_on_c, 14, 46, 44
16, 348159, Note_on_c, 14, 46, 0
16, 348240, Note_on_c, 14, 48, 44
16, 348399, Note_on_c, 14, 48, 0
16, 348480, Note_on_c, 14, 50, 44
16, 348639, Note_on_c, 14, 50, 0
16, 348720, Note_on_c, 14, 52, 44
16, 348879, Note_on_c, 14, 52, 0
16, 348960, Note_on_c, 14, 53, 44
16, 349119, Note_on_c, 14, 53, 0
16, 349200, Note_on_c, 14, 41, 44
16, 349359, Note_on_c, 14, 41, 0
16, 349440, Note_on_c, 14, 43, 44
16, 349599, Note_on_c, 14, 43, 0
16, 349680, Note_on_c, 14, 55, 44
16, 349839, Note_on_c, 14, 55, 0
16, 349920, Note_on_c, 14, 43, 44
16, 350079, Note_on_c, 14, 43, 0
16, 350160, Note_on_c, 14, 43, 44
16, 350319, Note_on_c, 14, 43, 0
16, 350400, Note_on_c, 14, 48, 44
16, 350559, Note_on_c, 14, 48, 0
16, 350640, Note_on_c, 14, 48, 44
16, 350799, Note_on_c, 14, 48, 0
16, 350880, Note_on_c, 14, 36, 44
16, 351039, Note_on_c, 14, 36, 0
16, 351120, Note_on_c, 14, 48, 44
16, 351279, Note_on_c, 14, 48, 0
16, 351360, Note_on_c, 14, 36, 44
16, 351519, Note_on_c, 14, 36, 0
16, 351600, Note_on_c, 14, 48, 44
16, 351759, Note_on_c, 14, 48, 0
16, 351840, Note_on_c, 14, 36, 44
16, 351999, Note_on_c, 14, 36, 0
16, 352080, Note_on_c, 14, 48, 44
16, 352239, Note_on_c, 14, 48, 0
16, 352320, Note_on_c, 14, 36, 44
16, 352479, Note_on_c, 14, 36, 0
16, 352560, Note_on_c, 14, 48, 44
16, 352719, Note_on_c, 14, 48, 0
16, 352800, Note_on_c, 14, 36, 44
16, 352959, Note_on_c, 14, 36, 0
16, 353040, Note_on_c, 14, 48, 44
16, 353199, Note_on_c, 14, 48, 0
16, 353280, Note_on_c, 14, 36, 43
16, 353439, Note_on_c, 14, 36, 0
16, 353520, Note_on_c, 14, 48, 42
16, 353679, Note_on_c, 14, 48, 0
16, 353760, Note_on_c, 14, 36, 41
16, 353919, Note_on_c, 14, 36, 0
16, 354000, Note_on_c, 14, 48, 40
16, 354159, Note_on_c, 14, 48, 0
16, 354240, Note_on_c, 14, 36, 40
16, 354399, Note_on_c, 14, 36, 0
16, 354480, Note_on_c, 14, 48, 39
16, 354639, Note_on_c, 14, 48, 0
16, 354720, Note_on_c, 14, 36, 38
16, 354879, Note_on_c, 14, 36, 0
16, 354960, Note_on_c, 14, 48, 37
16, 355119, Note_on_c, 14, 48, 0
16, 355200, Note_on_c, 14, 36, 44
16, 355359, Note_on_c, 14, 36, 0
16, 355440, Note_on_c, 14, 48, 44
16, 355599, Note_on_c, 14, 48, 0
16, 356160, Note_on_c, 14, 36, 44
16, 356319, Note_on_c, 14, 36, 0
16, 356400, Note_on_c, 14, 48, 44
16, 356559, Note_on_c, 14, 48, 0
16, 357120, Note_on_c, 14, 36, 44
16, 357279, Note_on_c, 14, 36, 0
16, 357360, Note_on_c, 14, 48, 44
16, 357519, Note_on_c, 14, 48, 0
16, 357600, Note_on_c, 14, 37, 84
16, 358559, Note_on_c, 14, 37, 0
16, 359520, Note_on_c, 14, 37, 84
16, 360479, Note_on_c, 14, 37, 0
16, 361440, Note_on_c, 14, 37, 84
16, 362379, Note_on_c, 14, 37, 0
16, 362400, Note_on_c, 14, 37, 84
16, 363339, Note_on_c, 14, 37, 0
16, 363360, Note_on_c, 14, 37, 84
16, 364299, Note_on_c, 14, 37, 0
16, 364320, Note_on_c, 14, 42, 84
16, 364479, Note_on_c, 14, 42, 0
16, 364560, Note_on_c, 14, 54, 84
16, 364719, Note_on_c, 14, 54, 0
16, 364800, Note_on_c, 14, 42, 84
16, 364959, Note_on_c, 14, 42, 0
16, 365040, Note_on_c, 14, 54, 84
16, 365199, Note_on_c, 14, 54, 0
16, 365280, Note_on_c, 14, 42, 84
16, 365439, Note_on_c, 14, 42, 0
16, 365520, Note_on_c, 14, 54, 84
16, 365679, Note_on_c, 14, 54, 0
16, 365760, Note_on_c, 14, 42, 84
16, 365919, Note_on_c, 14, 42, 0
16, 366000, Note_on_c, 14, 54, 84
16, 366159, Note_on_c, 14, 54, 0
16, 366240, Note_on_c, 14, 42, 84
16, 366399, Note_on_c, 14, 42, 0
16, 366480, Note_on_c, 14, 54, 84
16, 366639, Note_on_c, 14, 54, 0
16, 366720, Note_on_c, 14, 42, 84
16, 366879, Note_on_c, 14, 42, 0
16, 366960, Note_on_c, 14, 54, 84
16, 367119, Note_on_c, 14, 54, 0
16, 367200, Note_on_c, 14, 42, 84
16, 367359, Note_on_c, 14, 42, 0
16, 367440, Note_on_c, 14, 54, 84
16, 367599, Note_on_c, 14, 54, 0
16, 367680, Note_on_c, 14, 42, 84
16, 367839, Note_on_c, 14, 42, 0
16, 367920, Note_on_c, 14, 54, 84
16, 368079, Note_on_c, 14, 54, 0
16, 368160, Note_on_c, 14, 42, 84
16, 368319, Note_on_c, 14, 42, 0
16, 368400, Note_on_c, 14, 54, 84
16, 368559, Note_on_c, 14, 54, 0
16, 368640, Note_on_c, 14, 47, 84
16, 368799, Note_on_c, 14, 47, 0
16, 368880, Note_on_c, 14, 59, 84
16, 369039, Note_on_c, 14, 59, 0
16, 369120, Note_on_c, 14, 50, 84
16, 369279, Note_on_c, 14, 50, 0
16, 369360, Note_on_c, 14, 62, 84
16, 369519, Note_on_c, 14, 62, 0
16, 369600, Note_on_c, 14, 55, 84
16, 369759, Note_on_c, 14, 55, 0
16, 369840, Note_on_c, 14, 67, 84
16, 369999, Note_on_c, 14, 67, 0
16, 370080, Note_on_c, 14, 65, 84
16, 370239, Note_on_c, 14, 65, 0
16, 370320, Note_on_c, 14, 66, 84
16, 370479, Note_on_c, 14, 66, 0
16, 370560, Note_on_c, 14, 59, 84
16, 370719, Note_on_c, 14, 59, 0
16, 370800, Note_on_c, 14, 57, 84
16, 370959, Note_on_c, 14, 57, 0
16, 371040, Note_on_c, 14, 59, 84
16, 371199, Note_on_c, 14, 59, 0
16, 371280, Note_on_c, 14, 61, 84
16, 371439, Note_on_c, 14, 61, 0
16, 371520, Note_on_c, 14, 62, 84
16, 371679, Note_on_c, 14, 62, 0
16, 371760, Note_on_c, 14, 65, 84
16, 371919, Note_on_c, 14, 65, 0
16, 372000, Note_on_c, 14, 66, 84
16, 372159, Note_on_c, 14, 66, 0
16, 372240, Note_on_c, 14, 57, 84
16, 372399, Note_on_c, 14, 57, 0
16, 372480, Note_on_c, 14, 59, 84
16, 372639, Note_on_c, 14, 59, 0
16, 372720, Note_on_c, 14, 57, 84
16, 372879, Note_on_c, 14, 57, 0
16, 372960, Note_on_c, 14, 59, 84
16, 373119, Note_on_c, 14, 59, 0
16, 373200, Note_on_c, 14, 61, 84
16, 373359, Note_on_c, 14, 61, 0
16, 373440, Note_on_c, 14, 62, 84
16, 373599, Note_on_c, 14, 62, 0
16, 373680, Note_on_c, 14, 65, 84
16, 373839, Note_on_c, 14, 65, 0
16, 373920, Note_on_c, 14, 66, 84
16, 374079, Note_on_c, 14, 66, 0
16, 374160, Note_on_c, 14, 57, 84
16, 374319, Note_on_c, 14, 57, 0
16, 374400, Note_on_c, 14, 59, 84
16, 374559, Note_on_c, 14, 59, 0
16, 374640, Note_on_c, 14, 57, 84
16, 374799, Note_on_c, 14, 57, 0
16, 374880, Note_on_c, 14, 59, 84
16, 375039, Note_on_c, 14, 59, 0
16, 375120, Note_on_c, 14, 61, 84
16, 375279, Note_on_c, 14, 61, 0
16, 375360, Note_on_c, 14, 62, 84
16, 375519, Note_on_c, 14, 62, 0
16, 375600, Note_on_c, 14, 65, 84
16, 375759, Note_on_c, 14, 65, 0
16, 375840, Note_on_c, 14, 65, 84
16, 375999, Note_on_c, 14, 65, 0
16, 376080, Note_on_c, 14, 57, 84
16, 376239, Note_on_c, 14, 57, 0
16, 376320, Note_on_c, 14, 58, 84
16, 376539, Note_on_c, 14, 58, 0
16, 376560, Note_on_c, 14, 57, 84
16, 376779, Note_on_c, 14, 57, 0
16, 376800, Note_on_c, 14, 58, 84
16, 377019, Note_on_c, 14, 58, 0
16, 377040, Note_on_c, 14, 60, 84
16, 377259, Note_on_c, 14, 60, 0
16, 377280, Note_on_c, 14, 62, 84
16, 377499, Note_on_c, 14, 62, 0
16, 377520, Note_on_c, 14, 64, 84
16, 377739, Note_on_c, 14, 64, 0
16, 377760, Note_on_c, 14, 65, 84
16, 377979, Note_on_c, 14, 65, 0
16, 378000, Note_on_c, 14, 57, 84
16, 378219, Note_on_c, 14, 57, 0
16, 378240, Note_on_c, 14, 50, 92
16, 378459, Note_on_c, 14, 50, 0
16, 378480, Note_on_c, 14, 52, 84
16, 378699, Note_on_c, 14, 52, 0
16, 378720, Note_on_c, 14, 53, 84
16, 378939, Note_on_c, 14, 53, 0
16, 378960, Note_on_c, 14, 57, 84
16, 379179, Note_on_c, 14, 57, 0
16, 379200, Note_on_c, 14, 62, 92
16, 379419, Note_on_c, 14, 62, 0
16, 379440, Note_on_c, 14, 64, 84
16, 379659, Note_on_c, 14, 64, 0
16, 379680, Note_on_c, 14, 65, 84
16, 379899, Note_on_c, 14, 65, 0
16, 379920, Note_on_c, 14, 57, 84
16, 380139, Note_on_c, 14, 57, 0
16, 380160, Note_on_c, 14, 50, 92
16, 380379, Note_on_c, 14, 50, 0
16, 380400, Note_on_c, 14, 52, 84
16, 380619, Note_on_c, 14, 52, 0
16, 380640, Note_on_c, 14, 53, 84
16, 380859, Note_on_c, 14, 53, 0
16, 380880, Note_on_c, 14, 57, 84
16, 381099, Note_on_c, 14, 57, 0
16, 381120, Note_on_c, 14, 62, 92
16, 381339, Note_on_c, 14, 62, 0
16, 381360, Note_on_c, 14, 64, 84
16, 381579, Note_on_c, 14, 64, 0
16, 381600, Note_on_c, 14, 65, 92
16, 381819, Note_on_c, 14, 65, 0
16, 381840, Note_on_c, 14, 57, 84
16, 382059, Note_on_c, 14, 57, 0
16, 382080, Note_on_c, 14, 62, 92
16, 382299, Note_on_c, 14, 62, 0
16, 382320, Note_on_c, 14, 64, 84
16, 382539, Note_on_c, 14, 64, 0
16, 382560, Note_on_c, 14, 60, 92
16, 382779, Note_on_c, 14, 60, 0
16, 382800, Note_on_c, 14, 61, 84
16, 383019, Note_on_c, 14, 61, 0
16, 383040, Note_on_c, 14, 62, 92
16, 383259, Note_on_c, 14, 62, 0
16, 383280, Note_on_c, 14, 58, 84
16, 383499, Note_on_c, 14, 58, 0
16, 383520, Note_on_c, 14, 59, 92
16, 383739, Note_on_c, 14, 59, 0
16, 383760, Note_on_c, 14, 60, 84
16, 383979, Note_on_c, 14, 60, 0
16, 384000, Note_on_c, 14, 63, 92
16, 384219, Note_on_c, 14, 63, 0
16, 384240, Note_on_c, 14, 57, 84
16, 384459, Note_on_c, 14, 57, 0
16, 384480, Note_on_c, 14, 58, 92
16, 384699, Note_on_c, 14, 58, 0
16, 384720, Note_on_c, 14, 62, 84
16, 384939, Note_on_c, 14, 62, 0
16, 384960, Note_on_c, 14, 56, 92
16, 385179, Note_on_c, 14, 56, 0
16, 385200, Note_on_c, 14, 57, 84
16, 385419, Note_on_c, 14, 57, 0
16, 385440, Note_on_c, 14, 60, 92
16, 385659, Note_on_c, 14, 60, 0
16, 385680, Note_on_c, 14, 42, 84
16, 385899, Note_on_c, 14, 42, 0
16, 385920, Note_on_c, 14, 43, 92
16, 386139, Note_on_c, 14, 43, 0
16, 386160, Note_on_c, 14, 46, 84
16, 386379, Note_on_c, 14, 46, 0
16, 386400, Note_on_c, 14, 40, 92
16, 386619, Note_on_c, 14, 40, 0
16, 386640, Note_on_c, 14, 41, 84
16, 386859, Note_on_c, 14, 41, 0
16, 386880, Note_on_c, 14, 45, 92
16, 387099, Note_on_c, 14, 45, 0
16, 387120, Note_on_c, 14, 38, 84
16, 387339, Note_on_c, 14, 38, 0
16, 387360, Note_on_c, 14, 39, 92
16, 387579, Note_on_c, 14, 39, 0
16, 387600, Note_on_c, 14, 40, 84
16, 387819, Note_on_c, 14, 40, 0
16, 387840, Note_on_c, 14, 43, 92
16, 388059, Note_on_c, 14, 43, 0
16, 388080, Note_on_c, 14, 46, 84
16, 388299, Note_on_c, 14, 46, 0
16, 388320, Note_on_c, 14, 48, 92
16, 388539, Note_on_c, 14, 48, 0
16, 388560, Note_on_c, 14, 36, 84
16, 388779, Note_on_c, 14, 36, 0
16, 388800, Note_on_c, 14, 43, 92
16, 389019, Note_on_c, 14, 43, 0
16, 389040, Note_on_c, 14, 46, 84
16, 389259, Note_on_c, 14, 46, 0
16, 389280, Note_on_c, 14, 48, 92
16, 389499, Note_on_c, 14, 48, 0
16, 389520, Note_on_c, 14, 36, 84
16, 389739, Note_on_c, 14, 36, 0
16, 389760, Note_on_c, 14, 43, 92
16, 389979, Note_on_c, 14, 43, 0
16, 390000, Note_on_c, 14, 46, 84
16, 390219, Note_on_c, 14, 46, 0
16, 390240, Note_on_c, 14, 48, 92
16, 390459, Note_on_c, 14, 48, 0
16, 390480, Note_on_c, 14, 36, 84
16, 390699, Note_on_c, 14, 36, 0
16, 390720, Note_on_c, 14, 43, 92
16, 390939, Note_on_c, 14, 43, 0
16, 390960, Note_on_c, 14, 46, 84
16, 391179, Note_on_c, 14, 46, 0
16, 391200, Note_on_c, 14, 48, 92
16, 391419, Note_on_c, 14, 48, 0
16, 391440, Note_on_c, 14, 36, 84
16, 391659, Note_on_c, 14, 36, 0
16, 391680, Note_on_c, 14, 53, 76
16, 391760, Control_c, 14, 11, 80
16, 392639, Note_on_c, 14, 53, 0
16, 392640, Note_on_c, 14, 53, 76
16, 393579, Note_on_c, 14, 53, 0
16, 393600, Note_on_c, 14, 53, 76
16, 394059, Note_on_c, 14, 53, 0
16, 394080, Note_on_c, 14, 53, 76
16, 394539, Note_on_c, 14, 53, 0
16, 394560, Note_on_c, 14, 53, 76
16, 395019, Note_on_c, 14, 53, 0
16, 395040, Note_on_c, 14, 64, 76
16, 395040, Control_c, 14, 11, 80
16, 395100, Control_c, 14, 11, 83
16, 395160, Control_c, 14, 11, 85
16, 395220, Control_c, 14, 11, 88
16, 395280, Control_c, 14, 11, 91
16, 395340, Control_c, 14, 11, 93
16, 395400, Control_c, 14, 11, 96
16, 395460, Control_c, 14, 11, 99
16, 395519, Note_on_c, 14, 64, 0
16, 395520, Note_on_c, 14, 65, 76
16, 395520, Control_c, 14, 11, 101
16, 395580, Control_c, 14, 11, 104
16, 395640, Control_c, 14, 11, 107
16, 395700, Control_c, 14, 11, 109
16, 395760, Control_c, 14, 11, 112
16, 395820, Control_c, 14, 11, 109
16, 395880, Control_c, 14, 11, 107
16, 395940, Control_c, 14, 11, 104
16, 396000, Control_c, 14, 11, 101
16, 396060, Control_c, 14, 11, 99
16, 396120, Control_c, 14, 11, 96
16, 396180, Control_c, 14, 11, 93
16, 396239, Note_on_c, 14, 65, 0
16, 396240, Control_c, 14, 11, 91
16, 396240, Note_on_c, 14, 67, 76
16, 396300, Control_c, 14, 11, 88
16, 396359, Note_on_c, 14, 67, 0
16, 396360, Note_on_c, 14, 69, 76
16, 396360, Control_c, 14, 11, 85
16, 396420, Control_c, 14, 11, 83
16, 396465, Control_c, 14, 11, 80
16, 396479, Note_on_c, 14, 69, 0
16, 396480, Note_on_c, 14, 60, 76
16, 396719, Note_on_c, 14, 60, 0
16, 398640, Control_c, 14, 11, 127
16, 398880, Note_on_c, 14, 64, 52
16, 399339, Note_on_c, 14, 64, 0
16, 399360, Note_on_c, 14, 53, 76
16, 399579, Note_on_c, 14, 53, 0
16, 399600, Note_on_c, 14, 65, 76
16, 399819, Note_on_c, 14, 65, 0
16, 399840, Note_on_c, 14, 65, 76
16, 400059, Note_on_c, 14, 65, 0
16, 400080, Note_on_c, 14, 65, 76
16, 400299, Note_on_c, 14, 65, 0
16, 400320, Note_on_c, 14, 50, 76
16, 400539, Note_on_c, 14, 50, 0
16, 400560, Note_on_c, 14, 62, 76
16, 400779, Note_on_c, 14, 62, 0
16, 400800, Note_on_c, 14, 62, 76
16, 401019, Note_on_c, 14, 62, 0
16, 401040, Note_on_c, 14, 62, 76
16, 401259, Note_on_c, 14, 62, 0
16, 401280, Note_on_c, 14, 46, 76
16, 401499, Note_on_c, 14, 46, 0
16, 401520, Note_on_c, 14, 58, 76
16, 401739, Note_on_c, 14, 58, 0
16, 401760, Note_on_c, 14, 58, 76
16, 401979, Note_on_c, 14, 58, 0
16, 402000, Note_on_c, 14, 58, 76
16, 402219, Note_on_c, 14, 58, 0
16, 402240, Note_on_c, 14, 48, 76
16, 402459, Note_on_c, 14, 48, 0
16, 402480, Note_on_c, 14, 60, 76
16, 402699, Note_on_c, 14, 60, 0
16, 402720, Note_on_c, 14, 60, 76
16, 402939, Note_on_c, 14, 60, 0
16, 402960, Note_on_c, 14, 60, 76
16, 403179, Note_on_c, 14, 60, 0
16, 403200, Note_on_c, 14, 41, 52
16, 404159, Note_on_c, 14, 41, 0
16, 404160, Note_on_c, 14, 48, 52
16, 404879, Note_on_c, 14, 48, 0
16, 404880, Note_on_c, 14, 50, 52
16, 405119, Note_on_c, 14, 50, 0
16, 405120, Note_on_c, 14, 50, 52
16, 405359, Note_on_c, 14, 50, 0
16, 405360, Note_on_c, 14, 43, 52
16, 405579, Note_on_c, 14, 43, 0
16, 405600, Note_on_c, 14, 43, 52
16, 405839, Note_on_c, 14, 43, 0
16, 405840, Note_on_c, 14, 45, 52
16, 406079, Note_on_c, 14, 45, 0
16, 406080, Note_on_c, 14, 46, 52
16, 406319, Note_on_c, 14, 46, 0
16, 406560, Note_on_c, 14, 48, 52
16, 406799, Note_on_c, 14, 48, 0
16, 407040, Note_on_c, 14, 45, 52
16, 407979, Note_on_c, 14, 45, 0
16, 408000, Note_on_c, 14, 48, 52
16, 408239, Note_on_c, 14, 48, 0
16, 408240, Note_on_c, 14, 50, 52
16, 408319, Note_on_c, 14, 50, 0
16, 408320, Note_on_c, 14, 48, 52
16, 408399, Note_on_c, 14, 48, 0
16, 408400, Note_on_c, 14, 47, 52
16, 408479, Note_on_c, 14, 47, 0
16, 408480, Note_on_c, 14, 48, 52
16, 408719, Note_on_c, 14, 48, 0
16, 408720, Note_on_c, 14, 49, 52
16, 408959, Note_on_c, 14, 49, 0
16, 408960, Note_on_c, 14, 52, 52
16, 409199, Note_on_c, 14, 52, 0
16, 409200, Note_on_c, 14, 50, 52
16, 409439, Note_on_c, 14, 50, 0
16, 409440, Note_on_c, 14, 43, 52
16, 409679, Note_on_c, 14, 43, 0
16, 409680, Note_on_c, 14, 45, 52
16, 409919, Note_on_c, 14, 45, 0
16, 409920, Note_on_c, 14, 46, 52
16, 410159, Note_on_c, 14, 46, 0
16, 410400, Note_on_c, 14, 48, 52
16, 410639, Note_on_c, 14, 48, 0
16, 410880, Note_on_c, 14, 45, 76
16, 411099, Note_on_c, 14, 45, 0
16, 411120, Note_on_c, 14, 57, 76
16, 411339, Note_on_c, 14, 57, 0
16, 411360, Note_on_c, 14, 57, 76
16, 411579, Note_on_c, 14, 57, 0
16, 411600, Note_on_c, 14, 57, 76
16, 411819, Note_on_c, 14, 57, 0
16, 411840, Note_on_c, 14, 50, 76
16, 412059, Note_on_c, 14, 50, 0
16, 412080, Note_on_c, 14, 62, 76
16, 412299, Note_on_c, 14, 62, 0
16, 412320, Note_on_c, 14, 62, 76
16, 412539, Note_on_c, 14, 62, 0
16, 412560, Note_on_c, 14, 62, 76
16, 412779, Note_on_c, 14, 62, 0
16, 412800, Note_on_c, 14, 46, 76
16, 413019, Note_on_c, 14, 46, 0
16, 413040, Note_on_c, 14, 58, 76
16, 413259, Note_on_c, 14, 58, 0
16, 413280, Note_on_c, 14, 58, 76
16, 413499, Note_on_c, 14, 58, 0
16, 413520, Note_on_c, 14, 58, 76
16, 413739, Note_on_c, 14, 58, 0
16, 413760, Note_on_c, 14, 48, 76
16, 413979, Note_on_c, 14, 48, 0
16, 414000, Note_on_c, 14, 60, 76
16, 414219, Note_on_c, 14, 60, 0
16, 414240, Note_on_c, 14, 60, 76
16, 414459, Note_on_c, 14, 60, 0
16, 414480, Note_on_c, 14, 60, 76
16, 414699, Note_on_c, 14, 60, 0
16, 414720, Note_on_c, 14, 53, 84
16, 414939, Note_on_c, 14, 53, 0
16, 414960, Note_on_c, 14, 41, 84
16, 415179, Note_on_c, 14, 41, 0
16, 415200, Note_on_c, 14, 41, 84
16, 415419, Note_on_c, 14, 41, 0
16, 415440, Note_on_c, 14, 41, 84
16, 415659, Note_on_c, 14, 41, 0
16, 415680, Note_on_c, 14, 41, 84
16, 415899, Note_on_c, 14, 41, 0
16, 415920, Note_on_c, 14, 41, 84
16, 416139, Note_on_c, 14, 41, 0
16, 416160, Note_on_c, 14, 41, 84
16, 416379, Note_on_c, 14, 41, 0
16, 416400, Note_on_c, 14, 41, 84
16, 416619, Note_on_c, 14, 41, 0
16, 416640, Note_on_c, 14, 41, 84
16, 416859, Note_on_c, 14, 41, 0
16, 416880, Note_on_c, 14, 41, 84
16, 417099, Note_on_c, 14, 41, 0
16, 417120, Note_on_c, 14, 41, 84
16, 417339, Note_on_c, 14, 41, 0
16, 417360, Note_on_c, 14, 41, 84
16, 417579, Note_on_c, 14, 41, 0
16, 417600, Note_on_c, 14, 41, 84
16, 417819, Note_on_c, 14, 41, 0
16, 417840, Note_on_c, 14, 41, 84
16, 418059, Note_on_c, 14, 41, 0
16, 418080, Note_on_c, 14, 41, 84
16, 418299, Note_on_c, 14, 41, 0
16, 418320, Note_on_c, 14, 41, 84
16, 418539, Note_on_c, 14, 41, 0
16, 418560, Note_on_c, 14, 40, 84
16, 418799, Note_on_c, 14, 40, 0
16, 419040, Note_on_c, 14, 40, 84
16, 419279, Note_on_c, 14, 40, 0
16, 419520, Note_on_c, 14, 36, 84
16, 419759, Note_on_c, 14, 36, 0
16, 420000, Note_on_c, 14, 36, 84
16, 420239, Note_on_c, 14, 36, 0
16, 421920, Note_on_c, 14, 48, 52
16, 421920, Note_on_c, 14, 55, 52
16, 422064, Note_on_c, 14, 48, 0
16, 422064, Note_on_c, 14, 55, 0
16, 422080, Note_on_c, 14, 48, 52
16, 422080, Note_on_c, 14, 55, 52
16, 422224, Note_on_c, 14, 48, 0
16, 422224, Note_on_c, 14, 55, 0
16, 422240, Note_on_c, 14, 48, 52
16, 422240, Note_on_c, 14, 55, 52
16, 422384, Note_on_c, 14, 48, 0
16, 422384, Note_on_c, 14, 55, 0
16, 422400, Note_on_c, 14, 55, 52
16, 422400, Note_on_c, 14, 48, 52
16, 422639, Note_on_c, 14, 55, 0
16, 422639, Note_on_c, 14, 48, 0
16, 423840, Note_on_c, 14, 53, 52
16, 423840, Note_on_c, 14, 57, 52
16, 423984, Note_on_c, 14, 53, 0
16, 423984, Note_on_c, 14, 57, 0
16, 424000, Note_on_c, 14, 57, 52
16, 424000, Note_on_c, 14, 53, 52
16, 424144, Note_on_c, 14, 57, 0
16, 424144, Note_on_c, 14, 53, 0
16, 424160, Note_on_c, 14, 57, 52
16, 424160, Note_on_c, 14, 53, 52
16, 424304, Note_on_c, 14, 57, 0
16, 424304, Note_on_c, 14, 53, 0
16, 424320, Note_on_c, 14, 57, 76
16, 424320, Note_on_c, 14, 53, 76
16, 424559, Note_on_c, 14, 57, 0
16, 424559, Note_on_c, 14, 53, 0
16, 424800, Note_on_c, 14, 48, 76
16, 425259, Note_on_c, 14, 48, 0
16, 425280, Note_on_c, 14, 46, 76
16, 425739, Note_on_c, 14, 46, 0
16, 425760, Note_on_c, 14, 46, 76
16, 426219, Note_on_c, 14, 46, 0
16, 426240, Note_on_c, 14, 45, 76
16, 426699, Note_on_c, 14, 45, 0
16, 426720, Note_on_c, 14, 48, 76
16, 427179, Note_on_c, 14, 48, 0
16, 427200, Note_on_c, 14, 46, 76
16, 427659, Note_on_c, 14, 46, 0
16, 427680, Note_on_c, 14, 46, 76
16, 428139, Note_on_c, 14, 46, 0
16, 428160, Note_on_c, 14, 45, 76
16, 428619, Note_on_c, 14, 45, 0
16, 428640, Note_on_c, 14, 48, 76
16, 429099, Note_on_c, 14, 48, 0
16, 429120, Note_on_c, 14, 46, 76
16, 429579, Note_on_c, 14, 46, 0
16, 429600, Note_on_c, 14, 46, 76
16, 430059, Note_on_c, 14, 46, 0
16, 430080, Note_on_c, 14, 45, 76
16, 430539, Note_on_c, 14, 45, 0
16, 430560, Note_on_c, 14, 41, 76
16, 431019, Note_on_c, 14, 41, 0
16, 431040, Note_on_c, 14, 48, 76
16, 431499, Note_on_c, 14, 48, 0
16, 431520, Note_on_c, 14, 36, 76
16, 431979, Note_on_c, 14, 36, 0
16, 432000, Note_on_c, 14, 41, 84
16, 432080, Control_c, 14, 11, 112
16, 432939, Note_on_c, 14, 41, 0
16, 432958, Control_c, 14, 11, 127
16, 432960, Note_on_c, 14, 53, 84
16, 433040, Control_c, 14, 11, 112
16, 433899, Note_on_c, 14, 53, 0
16, 433918, Control_c, 14, 11, 127
16, 433920, Note_on_c, 14, 41, 84
16, 434000, Control_c, 14, 11, 112
16, 434859, Note_on_c, 14, 41, 0
16, 434878, Control_c, 14, 11, 127
16, 434880, Note_on_c, 14, 57, 84
16, 434960, Control_c, 14, 11, 112
16, 435819, Note_on_c, 14, 57, 0
16, 435838, Control_c, 14, 11, 127
16, 435840, Note_on_c, 14, 41, 84
16, 435920, Control_c, 14, 11, 112
16, 436299, Note_on_c, 14, 41, 0
16, 436318, Control_c, 14, 11, 127
16, 436320, Note_on_c, 14, 60, 84
16, 436400, Control_c, 14, 11, 112
16, 436779, Note_on_c, 14, 60, 0
16, 436798, Control_c, 14, 11, 127
16, 436800, Note_on_c, 14, 41, 84
16, 436880, Control_c, 14, 11, 112
16, 437259, Note_on_c, 14, 41, 0
16, 437278, Control_c, 14, 11, 127
16, 437280, Note_on_c, 14, 60, 84
16, 437360, Control_c, 14, 11, 112
16, 437739, Note_on_c, 14, 60, 0
16, 437758, Control_c, 14, 11, 127
16, 437760, Note_on_c, 14, 41, 84
16, 437840, Control_c, 14, 11, 112
16, 438219, Note_on_c, 14, 41, 0
16, 438238, Control_c, 14, 11, 127
16, 438240, Note_on_c, 14, 65, 84
16, 438320, Control_c, 14, 11, 112
16, 438699, Note_on_c, 14, 65, 0
16, 438718, Control_c, 14, 11, 127
16, 438720, Note_on_c, 14, 41, 84
16, 438800, Control_c, 14, 11, 112
16, 439179, Note_on_c, 14, 41, 0
16, 439198, Control_c, 14, 11, 127
16, 439200, Note_on_c, 14, 65, 84
16, 439280, Control_c, 14, 11, 112
16, 439659, Note_on_c, 14, 65, 0
16, 439678, Control_c, 14, 11, 127
16, 439680, Note_on_c, 14, 41, 76
16, 439759, Note_on_c, 14, 41, 0
16, 439760, Note_on_c, 14, 41, 52
16, 440639, Note_on_c, 14, 41, 0
16, 440640, Note_on_c, 14, 41, 52
16, 441599, Note_on_c, 14, 41, 0
16, 441600, Note_on_c, 14, 41, 52
16, 442559, Note_on_c, 14, 41, 0
16, 442560, Note_on_c, 14, 41, 52
16, 443499, Note_on_c, 14, 41, 0
16, 443520, Note_on_c, 14, 45, 52
16, 443520, Note_on_c, 14, 41, 52
16, 443584, Note_on_c, 14, 45, 0
16, 443584, Note_on_c, 14, 41, 0
16, 443600, Note_on_c, 14, 41, 52
16, 443600, Note_on_c, 14, 45, 52
16, 443664, Note_on_c, 14, 41, 0
16, 443664, Note_on_c, 14, 45, 0
16, 443680, Note_on_c, 14, 45, 52
16, 443680, Note_on_c, 14, 41, 52
16, 443744, Note_on_c, 14, 45, 0
16, 443744, Note_on_c, 14, 41, 0
16, 443760, Note_on_c, 14, 41, 52
16, 443760, Note_on_c, 14, 45, 52
16, 443824, Note_on_c, 14, 41, 0
16, 443824, Note_on_c, 14, 45, 0
16, 443840, Note_on_c, 14, 45, 52
16, 443840, Note_on_c, 14, 41, 52
16, 443904, Note_on_c, 14, 45, 0
16, 443904, Note_on_c, 14, 41, 0
16, 443920, Note_on_c, 14, 45, 52
16, 443920, Note_on_c, 14, 41, 52
16, 443984, Note_on_c, 14, 45, 0
16, 443984, Note_on_c, 14, 41, 0
16, 444000, Note_on_c, 14, 41, 52
16, 444000, Note_on_c, 14, 45, 52
16, 444064, Note_on_c, 14, 41, 0
16, 444064, Note_on_c, 14, 45, 0
16, 444080, Note_on_c, 14, 41, 52
16, 444080, Note_on_c, 14, 45, 52
16, 444144, Note_on_c, 14, 41, 0
16, 444144, Note_on_c, 14, 45, 0
16, 444160, Note_on_c, 14, 41, 52
16, 444160, Note_on_c, 14, 45, 52
16, 444224, Note_on_c, 14, 41, 0
16, 444224, Note_on_c, 14, 45, 0
16, 444240, Note_on_c, 14, 45, 52
16, 444240, Note_on_c, 14, 41, 52
16, 444304, Note_on_c, 14, 45, 0
16, 444304, Note_on_c, 14, 41, 0
16, 444320, Note_on_c, 14, 45, 52
16, 444320, Note_on_c, 14, 41, 52
16, 444384, Note_on_c, 14, 45, 0
16, 444384, Note_on_c, 14, 41, 0
16, 444400, Note_on_c, 14, 41, 52
16, 444400, Note_on_c, 14, 45, 52
16, 444464, Note_on_c, 14, 41, 0
16, 444464, Note_on_c, 14, 45, 0
16, 444480, Note_on_c, 14, 45, 52
16, 444480, Note_on_c, 14, 41, 52
16, 444719, Note_on_c, 14, 45, 0
16, 444719, Note_on_c, 14, 41, 0
16, 449280, Note_on_c, 14, 45, 52
16, 449280, Note_on_c, 14, 41, 52
16, 449344, Note_on_c, 14, 45, 0
16, 449344, Note_on_c, 14, 41, 0
16, 449360, Note_on_c, 14, 41, 52
16, 449360, Note_on_c, 14, 45, 52
16, 449424, Note_on_c, 14, 41, 0
16, 449424, Note_on_c, 14, 45, 0
16, 449440, Note_on_c, 14, 45, 52
16, 449440, Note_on_c, 14, 41, 52
16, 449504, Note_on_c, 14, 45, 0
16, 449504, Note_on_c, 14, 41, 0
16, 449520, Note_on_c, 14, 45, 52
16, 449520, Note_on_c, 14, 41, 52
16, 449584, Note_on_c, 14, 45, 0
16, 449584, Note_on_c, 14, 41, 0
16, 449600, Note_on_c, 14, 41, 52
16, 449600, Note_on_c, 14, 45, 52
16, 449664, Note_on_c, 14, 41, 0
16, 449664, Note_on_c, 14, 45, 0
16, 449680, Note_on_c, 14, 45, 52
16, 449680, Note_on_c, 14, 41, 52
16, 449744, Note_on_c, 14, 45, 0
16, 449744, Note_on_c, 14, 41, 0
16, 449760, Note_on_c, 14, 45, 52
16, 449760, Note_on_c, 14, 41, 52
16, 449999, Note_on_c, 14, 45, 0
16, 449999, Note_on_c, 14, 41, 0
16, 460800, Note_on_c, 14, 41, 76
16, 461019, Note_on_c, 14, 41, 0
16, 461040, Note_on_c, 14, 53, 76
16, 461259, Note_on_c, 14, 53, 0
16, 461280, Note_on_c, 14, 41, 76
16, 461499, Note_on_c, 14, 41, 0
16, 461520, Note_on_c, 14, 53, 76
16, 461739, Note_on_c, 14, 53, 0
16, 461760, Note_on_c, 14, 41, 76
16, 461979, Note_on_c, 14, 41, 0
16, 462000, Note_on_c, 14, 53, 76
16, 462219, Note_on_c, 14, 53, 0
16, 462240, Note_on_c, 14, 41, 76
16, 462459, Note_on_c, 14, 41, 0
16, 462480, Note_on_c, 14, 53, 76
16, 462699, Note_on_c, 14, 53, 0
16, 462720, Note_on_c, 14, 41, 76
16, 462959, Note_on_c, 14, 41, 0
16, 463680, Note_on_c, 14, 48, 76
16, 463919, Note_on_c, 14, 48, 0
16, 464640, Note_on_c, 14, 41, 76
16, 464879, Note_on_c, 14, 41, 0
16, 465600, Note_on_c, 14, 48, 76
16, 465839, Note_on_c, 14, 48, 0
16, 466560, Note_on_c, 14, 41, 76
16, 466799, Note_on_c, 14, 41, 0
16, 467040, Note_on_c, 14, 48, 76
16, 467279, Note_on_c, 14, 48, 0
16, 467520, Note_on_c, 14, 41, 76
16, 467759, Note_on_c, 14, 41, 0
16, 468000, Note_on_c, 14, 48, 76
16, 468239, Note_on_c, 14, 48, 0
16, 468480, Note_on_c, 14, 41, 76
16, 468719, Note_on_c, 14, 41, 0
16, 468960, Note_on_c, 14, 48, 76
16, 469199, Note_on_c, 14, 48, 0
16, 469440, Note_on_c, 14, 41, 76
16, 469679, Note_on_c, 14, 41, 0
16, 469920, Note_on_c, 14, 48, 76
16, 470159, Note_on_c, 14, 48, 0
16, 470400, Note_on_c, 14, 41, 84
16, 470619, Note_on_c, 14, 41, 0
16, 470640, Note_on_c, 14, 53, 84
16, 470859, Note_on_c, 14, 53, 0
16, 470880, Note_on_c, 14, 41, 84
16, 471099, Note_on_c, 14, 41, 0
16, 471120, Note_on_c, 14, 53, 84
16, 471339, Note_on_c, 14, 53, 0
16, 471360, Note_on_c, 14, 41, 84
16, 471579, Note_on_c, 14, 41, 0
16, 471600, Note_on_c, 14, 53, 84
16, 471819, Note_on_c, 14, 53, 0
16, 471840, Note_on_c, 14, 41, 84
16, 472059, Note_on_c, 14, 41, 0
16, 472080, Note_on_c, 14, 53, 84
16, 472299, Note_on_c, 14, 53, 0
16, 472320, Note_on_c, 14, 41, 84
16, 472559, Note_on_c, 14, 41, 0
16, 473280, Note_on_c, 14, 48, 84
16, 473519, Note_on_c, 14, 48, 0
16, 474240, Note_on_c, 14, 41, 84
16, 474479, Note_on_c, 14, 41, 0
16, 475200, Note_on_c, 14, 48, 84
16, 475439, Note_on_c, 14, 48, 0
16, 476160, Note_on_c, 14, 41, 84
16, 476399, Note_on_c, 14, 41, 0
16, 476640, Note_on_c, 14, 48, 84
16, 476879, Note_on_c, 14, 48, 0
16, 477120, Note_on_c, 14, 41, 84
16, 477359, Note_on_c, 14, 41, 0
16, 477600, Note_on_c, 14, 48, 84
16, 477839, Note_on_c, 14, 48, 0
16, 478080, Note_on_c, 14, 41, 84
16, 478319, Note_on_c, 14, 41, 0
16, 478560, Note_on_c, 14, 48, 84
16, 478799, Note_on_c, 14, 48, 0
16, 479040, Note_on_c, 14, 53, 84
16, 479279, Note_on_c, 14, 53, 0
16, 479520, Note_on_c, 14, 57, 84
16, 479759, Note_on_c, 14, 57, 0
16, 480000, Note_on_c, 14, 60, 84
16, 480239, Note_on_c, 14, 60, 0
16, 480960, Note_on_c, 14, 65, 84
16, 481199, Note_on_c, 14, 65, 0
16, 481920, Note_on_c, 14, 41, 84
16, 482159, Note_on_c, 14, 41, 0
16, 482159, End_track
17, 0, Start_track
17, 0, Title_t, "Contrabass"
17, 0, MIDI_port, 0
17, 0, Program_c, 15, 48
17, 0, Control_c, 15, 7, 88
17, 0, Control_c, 15, 10, 100
17, 0, Control_c, 15, 11, 127
17, 16800, Note_on_c, 15, 37, 84
17, 17739, Note_on_c, 15, 37, 0
17, 17760, Note_on_c, 15, 29, 84
17, 17919, Note_on_c, 15, 29, 0
17, 18000, Note_on_c, 15, 41, 84
17, 18159, Note_on_c, 15, 41, 0
17, 18240, Note_on_c, 15, 29, 84
17, 18399, Note_on_c, 15, 29, 0
17, 18480, Note_on_c, 15, 41, 84
17, 18639, Note_on_c, 15, 41, 0
17, 18720, Note_on_c, 15, 29, 84
17, 18879, Note_on_c, 15, 29, 0
17, 18960, Note_on_c, 15, 41, 84
17, 19119, Note_on_c, 15, 41, 0
17, 19200, Note_on_c, 15, 29, 84
17, 19419, Note_on_c, 15, 29, 0
17, 19440, Note_on_c, 15, 41, 84
17, 19659, Note_on_c, 15, 41, 0
17, 19680, Note_on_c, 15, 29, 84
17, 19899, Note_on_c, 15, 29, 0
17, 19920, Note_on_c, 15, 41, 84
17, 20139, Note_on_c, 15, 41, 0
17, 20160, Note_on_c, 15, 29, 84
17, 20379, Note_on_c, 15, 29, 0
17, 20400, Note_on_c, 15, 41, 84
17, 20619, Note_on_c, 15, 41, 0
17, 20640, Note_on_c, 15, 29, 84
17, 20859, Note_on_c, 15, 29, 0
17, 20880, Note_on_c, 15, 41, 84
17, 21099, Note_on_c, 15, 41, 0
17, 21120, Note_on_c, 15, 29, 84
17, 21339, Note_on_c, 15, 29, 0
17, 21360, Note_on_c, 15, 41, 84
17, 21579, Note_on_c, 15, 41, 0
17, 21600, Note_on_c, 15, 29, 84
17, 21819, Note_on_c, 15, 29, 0
17, 21840, Note_on_c, 15, 41, 84
17, 22059, Note_on_c, 15, 41, 0
17, 22080, Note_on_c, 15, 34, 84
17, 22299, Note_on_c, 15, 34, 0
17, 22320, Note_on_c, 15, 46, 84
17, 22539, Note_on_c, 15, 46, 0
17, 22560, Note_on_c, 15, 38, 84
17, 22779, Note_on_c, 15, 38, 0
17, 22800, Note_on_c, 15, 50, 84
17, 23019, Note_on_c, 15, 50, 0
17, 23040, Note_on_c, 15, 43, 84
17, 23259, Note_on_c, 15, 43, 0
17, 23280, Note_on_c, 15, 55, 84
17, 23499, Note_on_c, 15, 55, 0
17, 23520, Note_on_c, 15, 43, 84
17, 23679, Note_on_c, 15, 43, 0
17, 23760, Note_on_c, 15, 45, 84
17, 23919, Note_on_c, 15, 45, 0
17, 24000, Note_on_c, 15, 46, 84
17, 24159, Note_on_c, 15, 46, 0
17, 24240, Note_on_c, 15, 45, 84
17, 24399, Note_on_c, 15, 45, 0
17, 24480, Note_on_c, 15, 46, 84
17, 24639, Note_on_c, 15, 46, 0
17, 24720, Note_on_c, 15, 48, 84
17, 24879, Note_on_c, 15, 48, 0
17, 24960, Note_on_c, 15, 50, 84
17, 25119, Note_on_c, 15, 50, 0
17, 25200, Note_on_c, 15, 52, 84
17, 25359, Note_on_c, 15, 52, 0
17, 25440, Note_on_c, 15, 53, 84
17, 25599, Note_on_c, 15, 53, 0
17, 25680, Note_on_c, 15, 50, 84
17, 25839, Note_on_c, 15, 50, 0
17, 25920, Note_on_c, 15, 46, 84
17, 26079, Note_on_c, 15, 46, 0
17, 26160, Note_on_c, 15, 43, 84
17, 26319, Note_on_c, 15, 43, 0
17, 26400, Note_on_c, 15, 48, 84
17, 26559, Note_on_c, 15, 48, 0
17, 26640, Note_on_c, 15, 36, 84
17, 26799, Note_on_c, 15, 36, 0
17, 26880, Note_on_c, 15, 41, 84
17, 27119, Note_on_c, 15, 41, 0
17, 27360, Note_on_c, 15, 53, 84
17, 27519, Note_on_c, 15, 53, 0
17, 27600, Note_on_c, 15, 48, 84
17, 27759, Note_on_c, 15, 48, 0
17, 27840, Note_on_c, 15, 48, 84
17, 27999, Note_on_c, 15, 48, 0
17, 28080, Note_on_c, 15, 45, 84
17, 28239, Note_on_c, 15, 45, 0
17, 28320, Note_on_c, 15, 45, 84
17, 28479, Note_on_c, 15, 45, 0
17, 28560, Note_on_c, 15, 41, 84
17, 28719, Note_on_c, 15, 41, 0
17, 28800, Note_on_c, 15, 36, 84
17, 28959, Note_on_c, 15, 36, 0
17, 29280, Note_on_c, 15, 46, 84
17, 29439, Note_on_c, 15, 46, 0
17, 29520, Note_on_c, 15, 43, 84
17, 29679, Note_on_c, 15, 43, 0
17, 29760, Note_on_c, 15, 43, 84
17, 29919, Note_on_c, 15, 43, 0
17, 30000, Note_on_c, 15, 40, 84
17, 30159, Note_on_c, 15, 40, 0
17, 30240, Note_on_c, 15, 40, 84
17, 30399, Note_on_c, 15, 40, 0
17, 30480, Note_on_c, 15, 36, 84
17, 30639, Note_on_c, 15, 36, 0
17, 30720, Note_on_c, 15, 41, 84
17, 30879, Note_on_c, 15, 41, 0
17, 31680, Note_on_c, 15, 41, 84
17, 31839, Note_on_c, 15, 41, 0
17, 31920, Note_on_c, 15, 45, 84
17, 32079, Note_on_c, 15, 45, 0
17, 32160, Note_on_c, 15, 45, 84
17, 32319, Note_on_c, 15, 45, 0
17, 32400, Note_on_c, 15, 48, 84
17, 32559, Note_on_c, 15, 48, 0
17, 32640, Note_on_c, 15, 48, 84
17, 32799, Note_on_c, 15, 48, 0
17, 33600, Note_on_c, 15, 36, 84
17, 33759, Note_on_c, 15, 36, 0
17, 33840, Note_on_c, 15, 43, 84
17, 33999, Note_on_c, 15, 43, 0
17, 34080, Note_on_c, 15, 43, 84
17, 34239, Note_on_c, 15, 43, 0
17, 34320, Note_on_c, 15, 48, 84
17, 34479, Note_on_c, 15, 48, 0
17, 34560, Note_on_c, 15, 45, 84
17, 34719, Note_on_c, 15, 45, 0
17, 35040, Note_on_c, 15, 48, 84
17, 35199, Note_on_c, 15, 48, 0
17, 35280, Note_on_c, 15, 43, 84
17, 35439, Note_on_c, 15, 43, 0
17, 35520, Note_on_c, 15, 43, 84
17, 35679, Note_on_c, 15, 43, 0
17, 35760, Note_on_c, 15, 40, 84
17, 35919, Note_on_c, 15, 40, 0
17, 36000, Note_on_c, 15, 40, 84
17, 36159, Note_on_c, 15, 40, 0
17, 36240, Note_on_c, 15, 36, 84
17, 36399, Note_on_c, 15, 36, 0
17, 36480, Note_on_c, 15, 31, 84
17, 36639, Note_on_c, 15, 31, 0
17, 36960, Note_on_c, 15, 53, 84
17, 37119, Note_on_c, 15, 53, 0
17, 37200, Note_on_c, 15, 50, 84
17, 37359, Note_on_c, 15, 50, 0
17, 37440, Note_on_c, 15, 50, 84
17, 37599, Note_on_c, 15, 50, 0
17, 37680, Note_on_c, 15, 47, 84
17, 37839, Note_on_c, 15, 47, 0
17, 37920, Note_on_c, 15, 47, 84
17, 38079, Note_on_c, 15, 47, 0
17, 38160, Note_on_c, 15, 43, 84
17, 38319, Note_on_c, 15, 43, 0
17, 38400, Note_on_c, 15, 48, 84
17, 38559, Note_on_c, 15, 48, 0
17, 39360, Note_on_c, 15, 48, 84
17, 39519, Note_on_c, 15, 48, 0
17, 39600, Note_on_c, 15, 52, 84
17, 39759, Note_on_c, 15, 52, 0
17, 39840, Note_on_c, 15, 52, 84
17, 39999, Note_on_c, 15, 52, 0
17, 40080, Note_on_c, 15, 55, 84
17, 40239, Note_on_c, 15, 55, 0
17, 40320, Note_on_c, 15, 55, 84
17, 40479, Note_on_c, 15, 55, 0
17, 41760, Note_on_c, 15, 50, 92
17, 41919, Note_on_c, 15, 50, 0
17, 42000, Note_on_c, 15, 47, 84
17, 42159, Note_on_c, 15, 47, 0
17, 42240, Note_on_c, 15, 47, 92
17, 42399, Note_on_c, 15, 47, 0
17, 42480, Note_on_c, 15, 43, 84
17, 42639, Note_on_c, 15, 43, 0
17, 43680, Note_on_c, 15, 50, 84
17, 43839, Note_on_c, 15, 50, 0
17, 43920, Note_on_c, 15, 47, 84
17, 44079, Note_on_c, 15, 47, 0
17, 44160, Note_on_c, 15, 47, 84
17, 44319, Note_on_c, 15, 47, 0
17, 44400, Note_on_c, 15, 43, 84
17, 44559, Note_on_c, 15, 43, 0
17, 45600, Note_on_c, 15, 43, 84
17, 45759, Note_on_c, 15, 43, 0
17, 45840, Note_on_c, 15, 31, 84
17, 45999, Note_on_c, 15, 31, 0
17, 46080, Note_on_c, 15, 32, 52
17, 47039, Note_on_c, 15, 32, 0
17, 47040, Note_on_c, 15, 32, 52
17, 47999, Note_on_c, 15, 32, 0
17, 48000, Note_on_c, 15, 32, 52
17, 48459, Note_on_c, 15, 32, 0
17, 48480, Note_on_c, 15, 44, 52
17, 48939, Note_on_c, 15, 44, 0
17, 48960, Note_on_c, 15, 44, 52
17, 49419, Note_on_c, 15, 44, 0
17, 49440, Note_on_c, 15, 44, 52
17, 49899, Note_on_c, 15, 44, 0
17, 49920, Note_on_c, 15, 44, 52
17, 50879, Note_on_c, 15, 44, 0
17, 50880, Note_on_c, 15, 44, 52
17, 51819, Note_on_c, 15, 44, 0
17, 51840, Note_on_c, 15, 44, 52
17, 52299, Note_on_c, 15, 44, 0
17, 52320, Note_on_c, 15, 44, 52
17, 52558, Control_c, 15, 11, 96
17, 52779, Note_on_c, 15, 44, 0
17, 52800, Note_on_c, 15, 45, 68
17, 53259, Note_on_c, 15, 45, 0
17, 53280, Note_on_c, 15, 45, 68
17, 53739, Note_on_c, 15, 45, 0
17, 53760, Control_c, 15, 11, 96
17, 53760, Note_on_c, 15, 44, 68
17, 53884, Control_c, 15, 11, 97
17, 54008, Control_c, 15, 11, 98
17, 54132, Control_c, 15, 11, 99
17, 54255, Control_c, 15, 11, 100
17, 54379, Control_c, 15, 11, 101
17, 54503, Control_c, 15, 11, 102
17, 54627, Control_c, 15, 11, 103
17, 54699, Note_on_c, 15, 44, 0
17, 54720, Note_on_c, 15, 38, 68
17, 54751, Control_c, 15, 11, 104
17, 54875, Control_c, 15, 11, 105
17, 54999, Control_c, 15, 11, 106
17, 55123, Control_c, 15, 11, 107
17, 55246, Control_c, 15, 11, 108
17, 55370, Control_c, 15, 11, 109
17, 55494, Control_c, 15, 11, 110
17, 55618, Control_c, 15, 11, 111
17, 55659, Note_on_c, 15, 38, 0
17, 55680, Note_on_c, 15, 31, 68
17, 55742, Control_c, 15, 11, 112
17, 55866, Control_c, 15, 11, 113
17, 55990, Control_c, 15, 11, 114
17, 56114, Control_c, 15, 11, 115
17, 56237, Control_c, 15, 11, 116
17, 56361, Control_c, 15, 11, 117
17, 56485, Control_c, 15, 11, 118
17, 56609, Control_c, 15, 11, 119
17, 56639, Note_on_c, 15, 31, 0
17, 56640, Note_on_c, 15, 31, 68
17, 56733, Control_c, 15, 11, 120
17, 56857, Control_c, 15, 11, 121
17, 56981, Control_c, 15, 11, 122
17, 57105, Control_c, 15, 11, 123
17, 57228, Control_c, 15, 11, 124
17, 57352, Control_c, 15, 11, 125
17, 57476, Control_c, 15, 11, 127
17, 57579, Note_on_c, 15, 31, 0
17, 57600, Note_on_c, 15, 36, 52
17, 57839, Note_on_c, 15, 36, 0
17, 58560, Note_on_c, 15, 36, 52
17, 58799, Note_on_c, 15, 36, 0
17, 59520, Note_on_c, 15, 36, 52
17, 59759, Note_on_c, 15, 36, 0
17, 60000, Note_on_c, 15, 36, 52
17, 60239, Note_on_c, 15, 36, 0
17, 60480, Note_on_c, 15, 36, 52
17, 60719, Note_on_c, 15, 36, 0
17, 60960, Note_on_c, 15, 36, 52
17, 61199, Note_on_c, 15, 36, 0
17, 61440, Note_on_c, 15, 36, 52
17, 61679, Note_on_c, 15, 36, 0
17, 62400, Note_on_c, 15, 36, 52
17, 62639, Note_on_c, 15, 36, 0
17, 63360, Note_on_c, 15, 36, 52
17, 63599, Note_on_c, 15, 36, 0
17, 63840, Note_on_c, 15, 36, 52
17, 64079, Note_on_c, 15, 36, 0
17, 64320, Note_on_c, 15, 36, 52
17, 64559, Note_on_c, 15, 36, 0
17, 64800, Note_on_c, 15, 36, 52
17, 65039, Note_on_c, 15, 36, 0
17, 65280, Note_on_c, 15, 36, 44
17, 65519, Note_on_c, 15, 36, 0
17, 65760, Program_c, 15, 45
17, 66000, Note_on_c, 15, 45, 40
17, 66239, Note_on_c, 15, 45, 0
17, 66240, Note_on_c, 15, 50, 40
17, 66479, Note_on_c, 15, 50, 0
17, 66960, Note_on_c, 15, 47, 40
17, 67199, Note_on_c, 15, 47, 0
17, 67200, Note_on_c, 15, 52, 40
17, 67439, Note_on_c, 15, 52, 0
17, 67920, Note_on_c, 15, 48, 40
17, 68159, Note_on_c, 15, 48, 0
17, 68160, Note_on_c, 15, 53, 40
17, 68399, Note_on_c, 15, 53, 0
17, 68880, Note_on_c, 15, 50, 40
17, 69119, Note_on_c, 15, 50, 0
17, 69120, Note_on_c, 15, 55, 40
17, 69359, Note_on_c, 15, 55, 0
17, 69840, Note_on_c, 15, 48, 40
17, 70079, Note_on_c, 15, 48, 0
17, 70080, Note_on_c, 15, 41, 40
17, 70319, Note_on_c, 15, 41, 0
17, 70800, Note_on_c, 15, 47, 40
17, 71039, Note_on_c, 15, 47, 0
17, 71040, Note_on_c, 15, 40, 40
17, 71279, Note_on_c, 15, 40, 0
17, 71760, Note_on_c, 15, 45, 40
17, 71999, Note_on_c, 15, 45, 0
17, 72000, Note_on_c, 15, 38, 40
17, 72239, Note_on_c, 15, 38, 0
17, 72480, Program_c, 15, 48
17, 72720, Note_on_c, 15, 43, 44
17, 72939, Note_on_c, 15, 43, 0
17, 72960, Note_on_c, 15, 36, 76
17, 73179, Note_on_c, 15, 36, 0
17, 73200, Note_on_c, 15, 36, 76
17, 73659, Note_on_c, 15, 36, 0
17, 73680, Note_on_c, 15, 33, 76
17, 73899, Note_on_c, 15, 33, 0
17, 73920, Note_on_c, 15, 38, 76
17, 74139, Note_on_c, 15, 38, 0
17, 74160, Note_on_c, 15, 38, 76
17, 74619, Note_on_c, 15, 38, 0
17, 74640, Note_on_c, 15, 35, 76
17, 74859, Note_on_c, 15, 35, 0
17, 74880, Note_on_c, 15, 40, 76
17, 75099, Note_on_c, 15, 40, 0
17, 75120, Note_on_c, 15, 40, 76
17, 75579, Note_on_c, 15, 40, 0
17, 75600, Note_on_c, 15, 36, 76
17, 75819, Note_on_c, 15, 36, 0
17, 75840, Note_on_c, 15, 41, 76
17, 76059, Note_on_c, 15, 41, 0
17, 76080, Note_on_c, 15, 41, 76
17, 76539, Note_on_c, 15, 41, 0
17, 76560, Note_on_c, 15, 38, 76
17, 76779, Note_on_c, 15, 38, 0
17, 76800, Note_on_c, 15, 43, 76
17, 76959, Note_on_c, 15, 43, 0
17, 77040, Note_on_c, 15, 55, 76
17, 77199, Note_on_c, 15, 55, 0
17, 77280, Note_on_c, 15, 43, 76
17, 77439, Note_on_c, 15, 43, 0
17, 77520, Note_on_c, 15, 52, 76
17, 77679, Note_on_c, 15, 52, 0
17, 77760, Note_on_c, 15, 53, 76
17, 77919, Note_on_c, 15, 53, 0
17, 78000, Note_on_c, 15, 41, 76
17, 78159, Note_on_c, 15, 41, 0
17, 78240, Note_on_c, 15, 53, 76
17, 78399, Note_on_c, 15, 53, 0
17, 78480, Note_on_c, 15, 51, 76
17, 78639, Note_on_c, 15, 51, 0
17, 78720, Note_on_c, 15, 52, 76
17, 78879, Note_on_c, 15, 52, 0
17, 78960, Note_on_c, 15, 40, 76
17, 79119, Note_on_c, 15, 40, 0
17, 79200, Note_on_c, 15, 52, 76
17, 79359, Note_on_c, 15, 52, 0
17, 79440, Note_on_c, 15, 49, 76
17, 79599, Note_on_c, 15, 49, 0
17, 79680, Note_on_c, 15, 50, 76
17, 79839, Note_on_c, 15, 50, 0
17, 79920, Note_on_c, 15, 38, 76
17, 80079, Note_on_c, 15, 38, 0
17, 80160, Note_on_c, 15, 50, 76
17, 80319, Note_on_c, 15, 50, 0
17, 80400, Note_on_c, 15, 47, 76
17, 80559, Note_on_c, 15, 47, 0
17, 80640, Note_on_c, 15, 47, 80
17, 80859, Note_on_c, 15, 47, 0
17, 80880, Note_on_c, 15, 43, 80
17, 81099, Note_on_c, 15, 43, 0
17, 81120, Note_on_c, 15, 50, 80
17, 81339, Note_on_c, 15, 50, 0
17, 81360, Note_on_c, 15, 47, 80
17, 81579, Note_on_c, 15, 47, 0
17, 81600, Note_on_c, 15, 47, 80
17, 81819, Note_on_c, 15, 47, 0
17, 81840, Note_on_c, 15, 43, 80
17, 82059, Note_on_c, 15, 43, 0
17, 82080, Note_on_c, 15, 43, 80
17, 82299, Note_on_c, 15, 43, 0
17, 82320, Note_on_c, 15, 31, 80
17, 82539, Note_on_c, 15, 31, 0
17, 82560, Note_on_c, 15, 43, 80
17, 82779, Note_on_c, 15, 43, 0
17, 82800, Note_on_c, 15, 36, 80
17, 83019, Note_on_c, 15, 36, 0
17, 83040, Note_on_c, 15, 46, 80
17, 83259, Note_on_c, 15, 46, 0
17, 83280, Note_on_c, 15, 43, 80
17, 83499, Note_on_c, 15, 43, 0
17, 83520, Note_on_c, 15, 43, 80
17, 83739, Note_on_c, 15, 43, 0
17, 83760, Note_on_c, 15, 36, 80
17, 83979, Note_on_c, 15, 36, 0
17, 84000, Note_on_c, 15, 48, 80
17, 84219, Note_on_c, 15, 48, 0
17, 84240, Note_on_c, 15, 36, 80
17, 84459, Note_on_c, 15, 36, 0
17, 84480, Note_on_c, 15, 48, 84
17, 84699, Note_on_c, 15, 48, 0
17, 84720, Note_on_c, 15, 41, 84
17, 84939, Note_on_c, 15, 41, 0
17, 84960, Note_on_c, 15, 53, 84
17, 85179, Note_on_c, 15, 53, 0
17, 85200, Note_on_c, 15, 48, 84
17, 85419, Note_on_c, 15, 48, 0
17, 85440, Note_on_c, 15, 48, 84
17, 85659, Note_on_c, 15, 48, 0
17, 85680, Note_on_c, 15, 41, 84
17, 85899, Note_on_c, 15, 41, 0
17, 85920, Note_on_c, 15, 41, 84
17, 86139, Note_on_c, 15, 41, 0
17, 86160, Note_on_c, 15, 29, 84
17, 86379, Note_on_c, 15, 29, 0
17, 86400, Note_on_c, 15, 29, 84
17, 86639, Note_on_c, 15, 29, 0
17, 101280, Note_on_c, 15, 50, 76
17, 101439, Note_on_c, 15, 50, 0
17, 101520, Note_on_c, 15, 48, 76
17, 101679, Note_on_c, 15, 48, 0
17, 101760, Note_on_c, 15, 46, 76
17, 101919, Note_on_c, 15, 46, 0
17, 102000, Note_on_c, 15, 45, 76
17, 102159, Note_on_c, 15, 45, 0
17, 102240, Note_on_c, 15, 46, 76
17, 102399, Note_on_c, 15, 46, 0
17, 102480, Note_on_c, 15, 48, 76
17, 102639, Note_on_c, 15, 48, 0
17, 102720, Note_on_c, 15, 50, 76
17, 102959, Note_on_c, 15, 50, 0
17, 107040, Note_on_c, 15, 55, 44
17, 107279, Note_on_c, 15, 55, 0
17, 107400, Note_on_c, 15, 53, 44
17, 107499, Note_on_c, 15, 53, 0
17, 107520, Note_on_c, 15, 53, 44
17, 107759, Note_on_c, 15, 53, 0
17, 107760, Note_on_c, 15, 52, 44
17, 107979, Note_on_c, 15, 52, 0
17, 108000, Note_on_c, 15, 52, 44
17, 108159, Note_on_c, 15, 52, 0
17, 108360, Note_on_c, 15, 50, 44
17, 108459, Note_on_c, 15, 50, 0
17, 108480, Note_on_c, 15, 50, 44
17, 108719, Note_on_c, 15, 50, 0
17, 108720, Note_on_c, 15, 49, 44
17, 108939, Note_on_c, 15, 49, 0
17, 108960, Note_on_c, 15, 49, 44
17, 109119, Note_on_c, 15, 49, 0
17, 109320, Note_on_c, 15, 47, 44
17, 109419, Note_on_c, 15, 47, 0
17, 109440, Note_on_c, 15, 47, 44
17, 109679, Note_on_c, 15, 47, 0
17, 109680, Note_on_c, 15, 45, 44
17, 109899, Note_on_c, 15, 45, 0
17, 109920, Note_on_c, 15, 52, 44
17, 110079, Note_on_c, 15, 52, 0
17, 110280, Note_on_c, 15, 50, 44
17, 110379, Note_on_c, 15, 50, 0
17, 110400, Note_on_c, 15, 50, 44
17, 110639, Note_on_c, 15, 50, 0
17, 110640, Note_on_c, 15, 49, 44
17, 110859, Note_on_c, 15, 49, 0
17, 110880, Note_on_c, 15, 49, 44
17, 111039, Note_on_c, 15, 49, 0
17, 111240, Note_on_c, 15, 47, 44
17, 111339, Note_on_c, 15, 47, 0
17, 111360, Note_on_c, 15, 47, 44
17, 111599, Note_on_c, 15, 47, 0
17, 111600, Note_on_c, 15, 45, 44
17, 111839, Note_on_c, 15, 45, 0
17, 112320, Control_c, 15, 11, 64
17, 112800, Note_on_c, 15, 57, 76
17, 113039, Note_on_c, 15, 57, 0
17, 113160, Note_on_c, 15, 55, 76
17, 113259, Note_on_c, 15, 55, 0
17, 113280, Note_on_c, 15, 55, 76
17, 113519, Note_on_c, 15, 55, 0
17, 113520, Note_on_c, 15, 54, 76
17, 113739, Note_on_c, 15, 54, 0
17, 113760, Note_on_c, 15, 54, 76
17, 113919, Note_on_c, 15, 54, 0
17, 114120, Note_on_c, 15, 52, 76
17, 114219, Note_on_c, 15, 52, 0
17, 114240, Note_on_c, 15, 52, 76
17, 114479, Note_on_c, 15, 52, 0
17, 114480, Note_on_c, 15, 50, 76
17, 114699, Note_on_c, 15, 50, 0
17, 114720, Note_on_c, 15, 57, 76
17, 114720, Control_c, 15, 11, 64
17, 114760, Control_c, 15, 11, 69
17, 114800, Control_c, 15, 11, 75
17, 114840, Control_c, 15, 11, 80
17, 114879, Note_on_c, 15, 57, 0
17, 114880, Control_c, 15, 11, 85
17, 114920, Control_c, 15, 11, 90
17, 114960, Control_c, 15, 11, 96
17, 115000, Control_c, 15, 11, 101
17, 115040, Control_c, 15, 11, 106
17, 115080, Note_on_c, 15, 55, 76
17, 115080, Control_c, 15, 11, 111
17, 115120, Control_c, 15, 11, 117
17, 115160, Control_c, 15, 11, 122
17, 115179, Note_on_c, 15, 55, 0
17, 115200, Note_on_c, 15, 55, 76
17, 115200, Control_c, 15, 11, 127
17, 115439, Note_on_c, 15, 55, 0
17, 115440, Note_on_c, 15, 54, 76
17, 115659, Note_on_c, 15, 54, 0
17, 115680, Note_on_c, 15, 54, 76
17, 115839, Note_on_c, 15, 54, 0
17, 116040, Note_on_c, 15, 52, 76
17, 116139, Note_on_c, 15, 52, 0
17, 116160, Note_on_c, 15, 52, 76
17, 116399, Note_on_c, 15, 52, 0
17, 116400, Note_on_c, 15, 50, 76
17, 116619, Note_on_c, 15, 50, 0
17, 116640, Note_on_c, 15, 50, 76
17, 116799, Note_on_c, 15, 50, 0
17, 117000, Note_on_c, 15, 48, 76
17, 117099, Note_on_c, 15, 48, 0
17, 117120, Note_on_c, 15, 48, 76
17, 117359, Note_on_c, 15, 48, 0
17, 117360, Note_on_c, 15, 46, 76
17, 117579, Note_on_c, 15, 46, 0
17, 117600, Note_on_c, 15, 46, 76
17, 117759, Note_on_c, 15, 46, 0
17, 117960, Note_on_c, 15, 45, 76
17, 118059, Note_on_c, 15, 45, 0
17, 118080, Note_on_c, 15, 45, 76
17, 118319, Note_on_c, 15, 45, 0
17, 118320, Note_on_c, 15, 43, 76
17, 118539, Note_on_c, 15, 43, 0
17, 118560, Note_on_c, 15, 55, 76
17, 118719, Note_on_c, 15, 55, 0
17, 118920, Note_on_c, 15, 53, 76
17, 119019, Note_on_c, 15, 53, 0
17, 119040, Note_on_c, 15, 53, 76
17, 119279, Note_on_c, 15, 53, 0
17, 119280, Note_on_c, 15, 52, 76
17, 119499, Note_on_c, 15, 52, 0
17, 119520, Note_on_c, 15, 52, 76
17, 119679, Note_on_c, 15, 52, 0
17, 119880, Note_on_c, 15, 50, 76
17, 119979, Note_on_c, 15, 50, 0
17, 120000, Note_on_c, 15, 50, 76
17, 120239, Note_on_c, 15, 50, 0
17, 120240, Note_on_c, 15, 48, 76
17, 120459, Note_on_c, 15, 48, 0
17, 120480, Note_on_c, 15, 48, 76
17, 120639, Note_on_c, 15, 48, 0
17, 120840, Note_on_c, 15, 46, 76
17, 120939, Note_on_c, 15, 46, 0
17, 120960, Note_on_c, 15, 46, 76
17, 121199, Note_on_c, 15, 46, 0
17, 121200, Note_on_c, 15, 45, 76
17, 121419, Note_on_c, 15, 45, 0
17, 121440, Note_on_c, 15, 45, 76
17, 121599, Note_on_c, 15, 45, 0
17, 121800, Note_on_c, 15, 43, 76
17, 121899, Note_on_c, 15, 43, 0
17, 121920, Note_on_c, 15, 43, 76
17, 122159, Note_on_c, 15, 43, 0
17, 122160, Note_on_c, 15, 41, 76
17, 122379, Note_on_c, 15, 41, 0
17, 122400, Note_on_c, 15, 41, 76
17, 122559, Note_on_c, 15, 41, 0
17, 122640, Note_on_c, 15, 29, 76
17, 122859, Note_on_c, 15, 29, 0
17, 122880, Note_on_c, 15, 34, 76
17, 123839, Note_on_c, 15, 34, 0
17, 123840, Note_on_c, 15, 34, 76
17, 124779, Note_on_c, 15, 34, 0
17, 124800, Note_on_c, 15, 40, 76
17, 125759, Note_on_c, 15, 40, 0
17, 125760, Note_on_c, 15, 40, 76
17, 126959, Note_on_c, 15, 40, 0
17, 126960, Note_on_c, 15, 33, 76
17, 127179, Note_on_c, 15, 33, 0
17, 127200, Note_on_c, 15, 33, 76
17, 127359, Note_on_c, 15, 33, 0
17, 127560, Note_on_c, 15, 35, 76
17, 127659, Note_on_c, 15, 35, 0
17, 127680, Note_on_c, 15, 35, 76
17, 127919, Note_on_c, 15, 35, 0
17, 127920, Note_on_c, 15, 36, 76
17, 128139, Note_on_c, 15, 36, 0
17, 128160, Note_on_c, 15, 36, 76
17, 128319, Note_on_c, 15, 36, 0
17, 128520, Note_on_c, 15, 37, 76
17, 128619, Note_on_c, 15, 37, 0
17, 128640, Note_on_c, 15, 37, 76
17, 128879, Note_on_c, 15, 37, 0
17, 128880, Note_on_c, 15, 38, 76
17, 129099, Note_on_c, 15, 38, 0
17, 129120, Note_on_c, 15, 38, 76
17, 129279, Note_on_c, 15, 38, 0
17, 129480, Note_on_c, 15, 40, 76
17, 129579, Note_on_c, 15, 40, 0
17, 129600, Note_on_c, 15, 40, 76
17, 129839, Note_on_c, 15, 40, 0
17, 129840, Note_on_c, 15, 41, 76
17, 130059, Note_on_c, 15, 41, 0
17, 130080, Note_on_c, 15, 41, 76
17, 130239, Note_on_c, 15, 41, 0
17, 130440, Note_on_c, 15, 42, 76
17, 130539, Note_on_c, 15, 42, 0
17, 130560, Note_on_c, 15, 43, 76
17, 130799, Note_on_c, 15, 43, 0
17, 130800, Note_on_c, 15, 41, 76
17, 131019, Note_on_c, 15, 41, 0
17, 131040, Note_on_c, 15, 41, 76
17, 131199, Note_on_c, 15, 41, 0
17, 131400, Note_on_c, 15, 40, 76
17, 131499, Note_on_c, 15, 40, 0
17, 131520, Note_on_c, 15, 40, 76
17, 131759, Note_on_c, 15, 40, 0
17, 131760, Note_on_c, 15, 38, 76
17, 131979, Note_on_c, 15, 38, 0
17, 132000, Note_on_c, 15, 38, 76
17, 132159, Note_on_c, 15, 38, 0
17, 132360, Note_on_c, 15, 36, 76
17, 132459, Note_on_c, 15, 36, 0
17, 132480, Note_on_c, 15, 41, 76
17, 132719, Note_on_c, 15, 41, 0
17, 132720, Note_on_c, 15, 43, 76
17, 132939, Note_on_c, 15, 43, 0
17, 132960, Note_on_c, 15, 43, 76
17, 133119, Note_on_c, 15, 43, 0
17, 133320, Note_on_c, 15, 45, 76
17, 133419, Note_on_c, 15, 45, 0
17, 133440, Note_on_c, 15, 45, 76
17, 133679, Note_on_c, 15, 45, 0
17, 133680, Note_on_c, 15, 47, 76
17, 133899, Note_on_c, 15, 47, 0
17, 133920, Note_on_c, 15, 48, 76
17, 134079, Note_on_c, 15, 48, 0
17, 134280, Note_on_c, 15, 50, 76
17, 134379, Note_on_c, 15, 50, 0
17, 134400, Note_on_c, 15, 40, 84
17, 134519, Note_on_c, 15, 40, 0
17, 134520, Note_on_c, 15, 40, 76
17, 135339, Note_on_c, 15, 40, 0
17, 135360, Note_on_c, 15, 45, 84
17, 135479, Note_on_c, 15, 45, 0
17, 135480, Note_on_c, 15, 45, 76
17, 136299, Note_on_c, 15, 45, 0
17, 136320, Note_on_c, 15, 57, 76
17, 136559, Note_on_c, 15, 57, 0
17, 136560, Note_on_c, 15, 55, 76
17, 136779, Note_on_c, 15, 55, 0
17, 136800, Note_on_c, 15, 55, 76
17, 136959, Note_on_c, 15, 55, 0
17, 137160, Note_on_c, 15, 53, 76
17, 137259, Note_on_c, 15, 53, 0
17, 137280, Note_on_c, 15, 52, 76
17, 137519, Note_on_c, 15, 52, 0
17, 137520, Note_on_c, 15, 50, 76
17, 137739, Note_on_c, 15, 50, 0
17, 137760, Note_on_c, 15, 50, 76
17, 137919, Note_on_c, 15, 50, 0
17, 138120, Note_on_c, 15, 48, 76
17, 138239, Note_on_c, 15, 48, 0
17, 138720, Note_on_c, 15, 55, 76
17, 138959, Note_on_c, 15, 55, 0
17, 138960, Note_on_c, 15, 53, 76
17, 139179, Note_on_c, 15, 53, 0
17, 139200, Note_on_c, 15, 45, 76
17, 139439, Note_on_c, 15, 45, 0
17, 139440, Note_on_c, 15, 47, 76
17, 139659, Note_on_c, 15, 47, 0
17, 139680, Note_on_c, 15, 53, 76
17, 139919, Note_on_c, 15, 53, 0
17, 139920, Note_on_c, 15, 52, 76
17, 140139, Note_on_c, 15, 52, 0
17, 140160, Note_on_c, 15, 36, 76
17, 140619, Note_on_c, 15, 36, 0
17, 140640, Note_on_c, 15, 41, 76
17, 141359, Note_on_c, 15, 41, 0
17, 141360, Note_on_c, 15, 40, 76
17, 141579, Note_on_c, 15, 40, 0
17, 141600, Note_on_c, 15, 40, 76
17, 141839, Note_on_c, 15, 40, 0
17, 141840, Note_on_c, 15, 38, 76
17, 142059, Note_on_c, 15, 38, 0
17, 142080, Note_on_c, 15, 39, 76
17, 142319, Note_on_c, 15, 39, 0
17, 142320, Note_on_c, 15, 40, 76
17, 142539, Note_on_c, 15, 40, 0
17, 142560, Note_on_c, 15, 39, 76
17, 142799, Note_on_c, 15, 39, 0
17, 142800, Note_on_c, 15, 40, 76
17, 143019, Note_on_c, 15, 40, 0
17, 143040, Note_on_c, 15, 39, 76
17, 143279, Note_on_c, 15, 39, 0
17, 143280, Note_on_c, 15, 40, 76
17, 143499, Note_on_c, 15, 40, 0
17, 143520, Note_on_c, 15, 39, 76
17, 143759, Note_on_c, 15, 39, 0
17, 143760, Note_on_c, 15, 40, 76
17, 143979, Note_on_c, 15, 40, 0
17, 144000, Note_on_c, 15, 39, 76
17, 144239, Note_on_c, 15, 39, 0
17, 144240, Note_on_c, 15, 40, 76
17, 144459, Note_on_c, 15, 40, 0
17, 144480, Note_on_c, 15, 39, 76
17, 144719, Note_on_c, 15, 39, 0
17, 144720, Note_on_c, 15, 40, 76
17, 144939, Note_on_c, 15, 40, 0
17, 144960, Note_on_c, 15, 39, 76
17, 145199, Note_on_c, 15, 39, 0
17, 145200, Note_on_c, 15, 40, 76
17, 145419, Note_on_c, 15, 40, 0
17, 145440, Note_on_c, 15, 40, 84
17, 145599, Note_on_c, 15, 40, 0
17, 145680, Note_on_c, 15, 52, 84
17, 145839, Note_on_c, 15, 52, 0
17, 145920, Note_on_c, 15, 40, 84
17, 146079, Note_on_c, 15, 40, 0
17, 146160, Note_on_c, 15, 52, 84
17, 146319, Note_on_c, 15, 52, 0
17, 146400, Note_on_c, 15, 40, 84
17, 146559, Note_on_c, 15, 40, 0
17, 146640, Note_on_c, 15, 52, 84
17, 146799, Note_on_c, 15, 52, 0
17, 146880, Note_on_c, 15, 40, 84
17, 147039, Note_on_c, 15, 40, 0
17, 147120, Note_on_c, 15, 52, 84
17, 147279, Note_on_c, 15, 52, 0
17, 147360, Note_on_c, 15, 40, 84
17, 147519, Note_on_c, 15, 40, 0
17, 147600, Note_on_c, 15, 52, 84
17, 147759, Note_on_c, 15, 52, 0
17, 147840, Note_on_c, 15, 40, 84
17, 147999, Note_on_c, 15, 40, 0
17, 148080, Note_on_c, 15, 52, 84
17, 148239, Note_on_c, 15, 52, 0
17, 148320, Note_on_c, 15, 40, 84
17, 148479, Note_on_c, 15, 40, 0
17, 148560, Note_on_c, 15, 52, 84
17, 148719, Note_on_c, 15, 52, 0
17, 148800, Note_on_c, 15, 40, 84
17, 148959, Note_on_c, 15, 40, 0
17, 149040, Note_on_c, 15, 52, 84
17, 149199, Note_on_c, 15, 52, 0
17, 171360, Note_on_c, 15, 37, 84
17, 172299, Note_on_c, 15, 37, 0
17, 172320, Note_on_c, 15, 29, 84
17, 172479, Note_on_c, 15, 29, 0
17, 172560, Note_on_c, 15, 41, 84
17, 172719, Note_on_c, 15, 41, 0
17, 172800, Note_on_c, 15, 29, 84
17, 172959, Note_on_c, 15, 29, 0
17, 173040, Note_on_c, 15, 41, 84
17, 173199, Note_on_c, 15, 41, 0
17, 173280, Note_on_c, 15, 29, 84
17, 173439, Note_on_c, 15, 29, 0
17, 173520, Note_on_c, 15, 41, 84
17, 173679, Note_on_c, 15, 41, 0
17, 173760, Note_on_c, 15, 29, 84
17, 173919, Note_on_c, 15, 29, 0
17, 174000, Note_on_c, 15, 41, 84
17, 174159, Note_on_c, 15, 41, 0
17, 174240, Note_on_c, 15, 29, 84
17, 174399, Note_on_c, 15, 29, 0
17, 174480, Note_on_c, 15, 41, 84
17, 174639, Note_on_c, 15, 41, 0
17, 174720, Note_on_c, 15, 29, 84
17, 174879, Note_on_c, 15, 29, 0
17, 174960, Note_on_c, 15, 41, 84
17, 175119, Note_on_c, 15, 41, 0
17, 175200, Note_on_c, 15, 29, 84
17, 175359, Note_on_c, 15, 29, 0
17, 175440, Note_on_c, 15, 41, 84
17, 175599, Note_on_c, 15, 41, 0
17, 175680, Note_on_c, 15, 29, 84
17, 175839, Note_on_c, 15, 29, 0
17, 175920, Note_on_c, 15, 41, 84
17, 176079, Note_on_c, 15, 41, 0
17, 176160, Note_on_c, 15, 29, 84
17, 176379, Note_on_c, 15, 29, 0
17, 176400, Note_on_c, 15, 41, 84
17, 176619, Note_on_c, 15, 41, 0
17, 176640, Note_on_c, 15, 34, 84
17, 176859, Note_on_c, 15, 34, 0
17, 176880, Note_on_c, 15, 46, 84
17, 177099, Note_on_c, 15, 46, 0
17, 177120, Note_on_c, 15, 38, 84
17, 177339, Note_on_c, 15, 38, 0
17, 177360, Note_on_c, 15, 50, 84
17, 177579, Note_on_c, 15, 50, 0
17, 177600, Note_on_c, 15, 43, 84
17, 177819, Note_on_c, 15, 43, 0
17, 177840, Note_on_c, 15, 55, 84
17, 178059, Note_on_c, 15, 55, 0
17, 178080, Note_on_c, 15, 43, 84
17, 178239, Note_on_c, 15, 43, 0
17, 178320, Note_on_c, 15, 45, 84
17, 178479, Note_on_c, 15, 45, 0
17, 178560, Note_on_c, 15, 46, 84
17, 178719, Note_on_c, 15, 46, 0
17, 178800, Note_on_c, 15, 45, 84
17, 178959, Note_on_c, 15, 45, 0
17, 179040, Note_on_c, 15, 46, 84
17, 179199, Note_on_c, 15, 46, 0
17, 179280, Note_on_c, 15, 48, 84
17, 179439, Note_on_c, 15, 48, 0
17, 179520, Note_on_c, 15, 50, 84
17, 179679, Note_on_c, 15, 50, 0
17, 179760, Note_on_c, 15, 52, 84
17, 179919, Note_on_c, 15, 52, 0
17, 180000, Note_on_c, 15, 53, 84
17, 180159, Note_on_c, 15, 53, 0
17, 180240, Note_on_c, 15, 50, 84
17, 180399, Note_on_c, 15, 50, 0
17, 180480, Note_on_c, 15, 46, 84
17, 180699, Note_on_c, 15, 46, 0
17, 180720, Note_on_c, 15, 43, 84
17, 180939, Note_on_c, 15, 43, 0
17, 180960, Note_on_c, 15, 48, 84
17, 181179, Note_on_c, 15, 48, 0
17, 181200, Note_on_c, 15, 36, 84
17, 181419, Note_on_c, 15, 36, 0
17, 181440, Note_on_c, 15, 41, 84
17, 181679, Note_on_c, 15, 41, 0
17, 181920, Note_on_c, 15, 53, 84
17, 182079, Note_on_c, 15, 53, 0
17, 182160, Note_on_c, 15, 48, 84
17, 182319, Note_on_c, 15, 48, 0
17, 182400, Note_on_c, 15, 48, 84
17, 182559, Note_on_c, 15, 48, 0
17, 182640, Note_on_c, 15, 45, 84
17, 182799, Note_on_c, 15, 45, 0
17, 182880, Note_on_c, 15, 45, 84
17, 183039, Note_on_c, 15, 45, 0
17, 183120, Note_on_c, 15, 41, 84
17, 183279, Note_on_c, 15, 41, 0
17, 183360, Note_on_c, 15, 36, 84
17, 183599, Note_on_c, 15, 36, 0
17, 183840, Note_on_c, 15, 46, 84
17, 184059, Note_on_c, 15, 46, 0
17, 184080, Note_on_c, 15, 43, 84
17, 184299, Note_on_c, 15, 43, 0
17, 184320, Note_on_c, 15, 43, 84
17, 184539, Note_on_c, 15, 43, 0
17, 184560, Note_on_c, 15, 40, 84
17, 184779, Note_on_c, 15, 40, 0
17, 184800, Note_on_c, 15, 40, 84
17, 185019, Note_on_c, 15, 40, 0
17, 185040, Note_on_c, 15, 36, 84
17, 185259, Note_on_c, 15, 36, 0
17, 185280, Note_on_c, 15, 41, 84
17, 185519, Note_on_c, 15, 41, 0
17, 186240, Note_on_c, 15, 41, 84
17, 186399, Note_on_c, 15, 41, 0
17, 186480, Note_on_c, 15, 45, 84
17, 186639, Note_on_c, 15, 45, 0
17, 186720, Note_on_c, 15, 45, 84
17, 186879, Note_on_c, 15, 45, 0
17, 186960, Note_on_c, 15, 48, 84
17, 187119, Note_on_c, 15, 48, 0
17, 187200, Note_on_c, 15, 48, 84
17, 187359, Note_on_c, 15, 48, 0
17, 188160, Note_on_c, 15, 36, 84
17, 188319, Note_on_c, 15, 36, 0
17, 188400, Note_on_c, 15, 43, 84
17, 188559, Note_on_c, 15, 43, 0
17, 188640, Note_on_c, 15, 43, 84
17, 188799, Note_on_c, 15, 43, 0
17, 188880, Note_on_c, 15, 48, 84
17, 189039, Note_on_c, 15, 48, 0
17, 189120, Note_on_c, 15, 41, 84
17, 189279, Note_on_c, 15, 41, 0
17, 189600, Note_on_c, 15, 53, 84
17, 189759, Note_on_c, 15, 53, 0
17, 189840, Note_on_c, 15, 48, 84
17, 189999, Note_on_c, 15, 48, 0
17, 190080, Note_on_c, 15, 48, 84
17, 190239, Note_on_c, 15, 48, 0
17, 190320, Note_on_c, 15, 45, 84
17, 190479, Note_on_c, 15, 45, 0
17, 190560, Note_on_c, 15, 45, 84
17, 190719, Note_on_c, 15, 45, 0
17, 190800, Note_on_c, 15, 41, 84
17, 190959, Note_on_c, 15, 41, 0
17, 191040, Note_on_c, 15, 36, 84
17, 191199, Note_on_c, 15, 36, 0
17, 191520, Note_on_c, 15, 46, 84
17, 191679, Note_on_c, 15, 46, 0
17, 191760, Note_on_c, 15, 43, 84
17, 191919, Note_on_c, 15, 43, 0
17, 192000, Note_on_c, 15, 43, 84
17, 192159, Note_on_c, 15, 43, 0
17, 192240, Note_on_c, 15, 40, 84
17, 192399, Note_on_c, 15, 40, 0
17, 192480, Note_on_c, 15, 40, 84
17, 192639, Note_on_c, 15, 40, 0
17, 192720, Note_on_c, 15, 36, 84
17, 192879, Note_on_c, 15, 36, 0
17, 192960, Note_on_c, 15, 41, 84
17, 193119, Note_on_c, 15, 41, 0
17, 193920, Note_on_c, 15, 41, 84
17, 194079, Note_on_c, 15, 41, 0
17, 194160, Note_on_c, 15, 45, 84
17, 194319, Note_on_c, 15, 45, 0
17, 194400, Note_on_c, 15, 45, 84
17, 194559, Note_on_c, 15, 45, 0
17, 194640, Note_on_c, 15, 48, 84
17, 194799, Note_on_c, 15, 48, 0
17, 194880, Note_on_c, 15, 38, 84
17, 195039, Note_on_c, 15, 38, 0
17, 195840, Note_on_c, 15, 38, 84
17, 195999, Note_on_c, 15, 38, 0
17, 196080, Note_on_c, 15, 45, 84
17, 196239, Note_on_c, 15, 45, 0
17, 196320, Note_on_c, 15, 45, 84
17, 196479, Note_on_c, 15, 45, 0
17, 196560, Note_on_c, 15, 50, 84
17, 196719, Note_on_c, 15, 50, 0
17, 196800, Note_on_c, 15, 43, 84
17, 196959, Note_on_c, 15, 43, 0
17, 197280, Note_on_c, 15, 55, 84
17, 197439, Note_on_c, 15, 55, 0
17, 197520, Note_on_c, 15, 50, 84
17, 197679, Note_on_c, 15, 50, 0
17, 197760, Note_on_c, 15, 50, 84
17, 197919, Note_on_c, 15, 50, 0
17, 198000, Note_on_c, 15, 46, 84
17, 198159, Note_on_c, 15, 46, 0
17, 198240, Note_on_c, 15, 46, 84
17, 198399, Note_on_c, 15, 46, 0
17, 198480, Note_on_c, 15, 43, 84
17, 198639, Note_on_c, 15, 43, 0
17, 198720, Note_on_c, 15, 41, 84
17, 198879, Note_on_c, 15, 41, 0
17, 199200, Note_on_c, 15, 51, 84
17, 199359, Note_on_c, 15, 51, 0
17, 199440, Note_on_c, 15, 48, 84
17, 199599, Note_on_c, 15, 48, 0
17, 199680, Note_on_c, 15, 48, 84
17, 199839, Note_on_c, 15, 48, 0
17, 199920, Note_on_c, 15, 45, 84
17, 200079, Note_on_c, 15, 45, 0
17, 200160, Note_on_c, 15, 45, 84
17, 200319, Note_on_c, 15, 45, 0
17, 200400, Note_on_c, 15, 41, 84
17, 200559, Note_on_c, 15, 41, 0
17, 200640, Note_on_c, 15, 46, 84
17, 200799, Note_on_c, 15, 46, 0
17, 201600, Note_on_c, 15, 46, 84
17, 201759, Note_on_c, 15, 46, 0
17, 201840, Note_on_c, 15, 50, 84
17, 201999, Note_on_c, 15, 50, 0
17, 202080, Note_on_c, 15, 50, 84
17, 202239, Note_on_c, 15, 50, 0
17, 202320, Note_on_c, 15, 53, 84
17, 202479, Note_on_c, 15, 53, 0
17, 202560, Note_on_c, 15, 53, 84
17, 202719, Note_on_c, 15, 53, 0
17, 203520, Note_on_c, 15, 41, 84
17, 203679, Note_on_c, 15, 41, 0
17, 203760, Note_on_c, 15, 48, 84
17, 203919, Note_on_c, 15, 48, 0
17, 204000, Note_on_c, 15, 48, 84
17, 204159, Note_on_c, 15, 48, 0
17, 204240, Note_on_c, 15, 53, 84
17, 204399, Note_on_c, 15, 53, 0
17, 204480, Note_on_c, 15, 46, 84
17, 204639, Note_on_c, 15, 46, 0
17, 204960, Note_on_c, 15, 34, 88
17, 205119, Note_on_c, 15, 34, 0
17, 205200, Note_on_c, 15, 38, 84
17, 205359, Note_on_c, 15, 38, 0
17, 205440, Note_on_c, 15, 38, 88
17, 205599, Note_on_c, 15, 38, 0
17, 205680, Note_on_c, 15, 41, 84
17, 205839, Note_on_c, 15, 41, 0
17, 206880, Note_on_c, 15, 34, 84
17, 207039, Note_on_c, 15, 34, 0
17, 207120, Note_on_c, 15, 38, 84
17, 207279, Note_on_c, 15, 38, 0
17, 207360, Note_on_c, 15, 38, 84
17, 207519, Note_on_c, 15, 38, 0
17, 207600, Note_on_c, 15, 41, 84
17, 207759, Note_on_c, 15, 41, 0
17, 209760, Note_on_c, 15, 43, 84
17, 209919, Note_on_c, 15, 43, 0
17, 210000, Note_on_c, 15, 40, 84
17, 210159, Note_on_c, 15, 40, 0
17, 210240, Note_on_c, 15, 40, 84
17, 210399, Note_on_c, 15, 40, 0
17, 210480, Note_on_c, 15, 36, 84
17, 210639, Note_on_c, 15, 36, 0
17, 210720, Note_on_c, 15, 36, 84
17, 210879, Note_on_c, 15, 36, 0
17, 210960, Note_on_c, 15, 40, 84
17, 211119, Note_on_c, 15, 40, 0
17, 211200, Note_on_c, 15, 40, 84
17, 211359, Note_on_c, 15, 40, 0
17, 211440, Note_on_c, 15, 43, 84
17, 211599, Note_on_c, 15, 43, 0
17, 211680, Note_on_c, 15, 36, 84
17, 211839, Note_on_c, 15, 36, 0
17, 211920, Note_on_c, 15, 40, 84
17, 212079, Note_on_c, 15, 40, 0
17, 212160, Note_on_c, 15, 40, 84
17, 212319, Note_on_c, 15, 40, 0
17, 212400, Note_on_c, 15, 43, 84
17, 212559, Note_on_c, 15, 43, 0
17, 212640, Note_on_c, 15, 36, 84
17, 212799, Note_on_c, 15, 36, 0
17, 212880, Note_on_c, 15, 40, 84
17, 213039, Note_on_c, 15, 40, 0
17, 213120, Note_on_c, 15, 40, 84
17, 213279, Note_on_c, 15, 40, 0
17, 213360, Note_on_c, 15, 43, 84
17, 213519, Note_on_c, 15, 43, 0
17, 213600, Note_on_c, 15, 36, 84
17, 213759, Note_on_c, 15, 36, 0
17, 213840, Note_on_c, 15, 40, 84
17, 213999, Note_on_c, 15, 40, 0
17, 214080, Note_on_c, 15, 43, 84
17, 214239, Note_on_c, 15, 43, 0
17, 214320, Note_on_c, 15, 48, 84
17, 214479, Note_on_c, 15, 48, 0
17, 214560, Note_on_c, 15, 48, 84
17, 214719, Note_on_c, 15, 48, 0
17, 214800, Note_on_c, 15, 36, 84
17, 214959, Note_on_c, 15, 36, 0
17, 215040, Note_on_c, 15, 37, 52
17, 215999, Note_on_c, 15, 37, 0
17, 216000, Note_on_c, 15, 37, 52
17, 216939, Note_on_c, 15, 37, 0
17, 216960, Note_on_c, 15, 37, 52
17, 217419, Note_on_c, 15, 37, 0
17, 217440, Note_on_c, 15, 37, 52
17, 217899, Note_on_c, 15, 37, 0
17, 217920, Note_on_c, 15, 37, 52
17, 218379, Note_on_c, 15, 37, 0
17, 218400, Note_on_c, 15, 37, 52
17, 218859, Note_on_c, 15, 37, 0
17, 218880, Note_on_c, 15, 37, 52
17, 219839, Note_on_c, 15, 37, 0
17, 219840, Note_on_c, 15, 37, 52
17, 220779, Note_on_c, 15, 37, 0
17, 220800, Note_on_c, 15, 37, 52
17, 221259, Note_on_c, 15, 37, 0
17, 221280, Note_on_c, 15, 37, 52
17, 221739, Note_on_c, 15, 37, 0
17, 221758, Control_c, 15, 11, 96
17, 221760, Note_on_c, 15, 37, 68
17, 222219, Note_on_c, 15, 37, 0
17, 222240, Note_on_c, 15, 37, 68
17, 222699, Note_on_c, 15, 37, 0
17, 222720, Control_c, 15, 11, 96
17, 222720, Note_on_c, 15, 37, 68
17, 223000, Control_c, 15, 11, 99
17, 223280, Control_c, 15, 11, 101
17, 223560, Control_c, 15, 11, 104
17, 223659, Note_on_c, 15, 37, 0
17, 223680, Note_on_c, 15, 43, 68
17, 223840, Control_c, 15, 11, 106
17, 224120, Control_c, 15, 11, 109
17, 224400, Control_c, 15, 11, 112
17, 224619, Note_on_c, 15, 43, 0
17, 224640, Note_on_c, 15, 36, 68
17, 224680, Control_c, 15, 11, 114
17, 224960, Control_c, 15, 11, 117
17, 225240, Control_c, 15, 11, 119
17, 225520, Control_c, 15, 11, 122
17, 225599, Note_on_c, 15, 36, 0
17, 225600, Note_on_c, 15, 36, 68
17, 225800, Control_c, 15, 11, 124
17, 226080, Control_c, 15, 11, 127
17, 226539, Note_on_c, 15, 36, 0
17, 226560, Note_on_c, 15, 41, 52
17, 226799, Note_on_c, 15, 41, 0
17, 227280, Program_c, 15, 45
17, 227520, Note_on_c, 15, 41, 44
17, 227759, Note_on_c, 15, 41, 0
17, 228480, Note_on_c, 15, 41, 44
17, 228719, Note_on_c, 15, 41, 0
17, 228960, Note_on_c, 15, 41, 44
17, 229199, Note_on_c, 15, 41, 0
17, 229440, Note_on_c, 15, 41, 44
17, 229679, Note_on_c, 15, 41, 0
17, 229920, Note_on_c, 15, 41, 44
17, 230159, Note_on_c, 15, 41, 0
17, 230400, Note_on_c, 15, 41, 44
17, 230639, Note_on_c, 15, 41, 0
17, 231360, Note_on_c, 15, 41, 44
17, 231599, Note_on_c, 15, 41, 0
17, 232320, Note_on_c, 15, 41, 44
17, 232559, Note_on_c, 15, 41, 0
17, 232800, Note_on_c, 15, 41, 44
17, 233039, Note_on_c, 15, 41, 0
17, 233280, Note_on_c, 15, 41, 44
17, 233519, Note_on_c, 15, 41, 0
17, 233760, Note_on_c, 15, 41, 44
17, 233999, Note_on_c, 15, 41, 0
17, 234240, Note_on_c, 15, 41, 44
17, 234479, Note_on_c, 15, 41, 0
17, 234960, Note_on_c, 15, 50, 44
17, 235199, Note_on_c, 15, 50, 0
17, 235200, Note_on_c, 15, 55, 44
17, 235439, Note_on_c, 15, 55, 0
17, 235920, Note_on_c, 15, 52, 44
17, 236159, Note_on_c, 15, 52, 0
17, 236160, Note_on_c, 15, 57, 40
17, 236399, Note_on_c, 15, 57, 0
17, 236880, Note_on_c, 15, 41, 40
17, 237119, Note_on_c, 15, 41, 0
17, 237120, Note_on_c, 15, 46, 40
17, 237359, Note_on_c, 15, 46, 0
17, 237840, Note_on_c, 15, 43, 40
17, 238079, Note_on_c, 15, 43, 0
17, 238080, Note_on_c, 15, 48, 40
17, 238319, Note_on_c, 15, 48, 0
17, 238800, Note_on_c, 15, 53, 40
17, 239039, Note_on_c, 15, 53, 0
17, 239040, Note_on_c, 15, 46, 40
17, 239279, Note_on_c, 15, 46, 0
17, 239760, Note_on_c, 15, 52, 40
17, 239999, Note_on_c, 15, 52, 0
17, 240000, Note_on_c, 15, 45, 40
17, 240239, Note_on_c, 15, 45, 0
17, 240720, Note_on_c, 15, 50, 40
17, 240959, Note_on_c, 15, 50, 0
17, 240960, Note_on_c, 15, 43, 40
17, 241199, Note_on_c, 15, 43, 0
17, 241440, Program_c, 15, 48
17, 241680, Note_on_c, 15, 48, 44
17, 241899, Note_on_c, 15, 48, 0
17, 241920, Note_on_c, 15, 41, 76
17, 242139, Note_on_c, 15, 41, 0
17, 242160, Note_on_c, 15, 41, 76
17, 242619, Note_on_c, 15, 41, 0
17, 242640, Note_on_c, 15, 38, 76
17, 242859, Note_on_c, 15, 38, 0
17, 242880, Note_on_c, 15, 43, 76
17, 243099, Note_on_c, 15, 43, 0
17, 243120, Note_on_c, 15, 43, 76
17, 243579, Note_on_c, 15, 43, 0
17, 243600, Note_on_c, 15, 40, 76
17, 243819, Note_on_c, 15, 40, 0
17, 243840, Note_on_c, 15, 45, 76
17, 244059, Note_on_c, 15, 45, 0
17, 244080, Note_on_c, 15, 45, 76
17, 244539, Note_on_c, 15, 45, 0
17, 244560, Note_on_c, 15, 41, 76
17, 244779, Note_on_c, 15, 41, 0
17, 244800, Note_on_c, 15, 46, 76
17, 245019, Note_on_c, 15, 46, 0
17, 245040, Note_on_c, 15, 46, 76
17, 245499, Note_on_c, 15, 46, 0
17, 245520, Note_on_c, 15, 43, 76
17, 245739, Note_on_c, 15, 43, 0
17, 245760, Note_on_c, 15, 48, 76
17, 245919, Note_on_c, 15, 48, 0
17, 246000, Note_on_c, 15, 36, 76
17, 246159, Note_on_c, 15, 36, 0
17, 246240, Note_on_c, 15, 48, 76
17, 246399, Note_on_c, 15, 48, 0
17, 246480, Note_on_c, 15, 45, 76
17, 246639, Note_on_c, 15, 45, 0
17, 246720, Note_on_c, 15, 46, 76
17, 246879, Note_on_c, 15, 46, 0
17, 246960, Note_on_c, 15, 34, 76
17, 247119, Note_on_c, 15, 34, 0
17, 247200, Note_on_c, 15, 46, 76
17, 247359, Note_on_c, 15, 46, 0
17, 247440, Note_on_c, 15, 44, 76
17, 247599, Note_on_c, 15, 44, 0
17, 247680, Note_on_c, 15, 45, 76
17, 247899, Note_on_c, 15, 45, 0
17, 247920, Note_on_c, 15, 33, 76
17, 248139, Note_on_c, 15, 33, 0
17, 248160, Note_on_c, 15, 45, 76
17, 248379, Note_on_c, 15, 45, 0
17, 248400, Note_on_c, 15, 42, 76
17, 248619, Note_on_c, 15, 42, 0
17, 248640, Note_on_c, 15, 43, 76
17, 248859, Note_on_c, 15, 43, 0
17, 248880, Note_on_c, 15, 31, 76
17, 249099, Note_on_c, 15, 31, 0
17, 249120, Note_on_c, 15, 43, 76
17, 249339, Note_on_c, 15, 43, 0
17, 249360, Note_on_c, 15, 40, 76
17, 249579, Note_on_c, 15, 40, 0
17, 249600, Note_on_c, 15, 40, 80
17, 249819, Note_on_c, 15, 40, 0
17, 249840, Note_on_c, 15, 36, 80
17, 250059, Note_on_c, 15, 36, 0
17, 250080, Note_on_c, 15, 55, 80
17, 250299, Note_on_c, 15, 55, 0
17, 250320, Note_on_c, 15, 52, 80
17, 250539, Note_on_c, 15, 52, 0
17, 250560, Note_on_c, 15, 52, 80
17, 250779, Note_on_c, 15, 52, 0
17, 250800, Note_on_c, 15, 48, 80
17, 251019, Note_on_c, 15, 48, 0
17, 251040, Note_on_c, 15, 48, 80
17, 251259, Note_on_c, 15, 48, 0
17, 251280, Note_on_c, 15, 36, 80
17, 251499, Note_on_c, 15, 36, 0
17, 251520, Note_on_c, 15, 48, 80
17, 251739, Note_on_c, 15, 48, 0
17, 251760, Note_on_c, 15, 41, 80
17, 251979, Note_on_c, 15, 41, 0
17, 252000, Note_on_c, 15, 51, 80
17, 252219, Note_on_c, 15, 51, 0
17, 252240, Note_on_c, 15, 48, 80
17, 252459, Note_on_c, 15, 48, 0
17, 252480, Note_on_c, 15, 48, 80
17, 252699, Note_on_c, 15, 48, 0
17, 252720, Note_on_c, 15, 41, 80
17, 252939, Note_on_c, 15, 41, 0
17, 252960, Note_on_c, 15, 41, 80
17, 253179, Note_on_c, 15, 41, 0
17, 253200, Note_on_c, 15, 29, 80
17, 253419, Note_on_c, 15, 29, 0
17, 253440, Note_on_c, 15, 41, 84
17, 253659, Note_on_c, 15, 41, 0
17, 253680, Note_on_c, 15, 34, 84
17, 253899, Note_on_c, 15, 34, 0
17, 253920, Note_on_c, 15, 46, 84
17, 254139, Note_on_c, 15, 46, 0
17, 254160, Note_on_c, 15, 41, 84
17, 254379, Note_on_c, 15, 41, 0
17, 254400, Note_on_c, 15, 53, 84
17, 254619, Note_on_c, 15, 53, 0
17, 254640, Note_on_c, 15, 46, 84
17, 254859, Note_on_c, 15, 46, 0
17, 254880, Note_on_c, 15, 46, 84
17, 255099, Note_on_c, 15, 46, 0
17, 255120, Note_on_c, 15, 34, 84
17, 255339, Note_on_c, 15, 34, 0
17, 255360, Note_on_c, 15, 34, 84
17, 255599, Note_on_c, 15, 34, 0
17, 268320, Note_on_c, 15, 52, 76
17, 268439, Note_on_c, 15, 52, 0
17, 268440, Note_on_c, 15, 53, 76
17, 268539, Note_on_c, 15, 53, 0
17, 268560, Note_on_c, 15, 50, 76
17, 268719, Note_on_c, 15, 50, 0
17, 270240, Note_on_c, 15, 53, 76
17, 270359, Note_on_c, 15, 53, 0
17, 270360, Note_on_c, 15, 55, 76
17, 270459, Note_on_c, 15, 55, 0
17, 270480, Note_on_c, 15, 52, 76
17, 270639, Note_on_c, 15, 52, 0
17, 276000, Note_on_c, 15, 33, 44
17, 276064, Note_on_c, 15, 33, 0
17, 276080, Note_on_c, 15, 33, 44
17, 276144, Note_on_c, 15, 33, 0
17, 276160, Note_on_c, 15, 33, 44
17, 276224, Note_on_c, 15, 33, 0
17, 276240, Note_on_c, 15, 33, 44
17, 276304, Note_on_c, 15, 33, 0
17, 276320, Note_on_c, 15, 33, 44
17, 276384, Note_on_c, 15, 33, 0
17, 276400, Note_on_c, 15, 33, 44
17, 276464, Note_on_c, 15, 33, 0
17, 276480, Note_on_c, 15, 33, 44
17, 276719, Note_on_c, 15, 33, 0
17, 276960, Note_on_c, 15, 45, 44
17, 277024, Note_on_c, 15, 45, 0
17, 277040, Note_on_c, 15, 45, 44
17, 277104, Note_on_c, 15, 45, 0
17, 277120, Note_on_c, 15, 45, 44
17, 277184, Note_on_c, 15, 45, 0
17, 277200, Note_on_c, 15, 45, 44
17, 277264, Note_on_c, 15, 45, 0
17, 277280, Note_on_c, 15, 45, 44
17, 277344, Note_on_c, 15, 45, 0
17, 277360, Note_on_c, 15, 45, 44
17, 277424, Note_on_c, 15, 45, 0
17, 277440, Note_on_c, 15, 45, 44
17, 277679, Note_on_c, 15, 45, 0
17, 277920, Note_on_c, 15, 45, 44
17, 277984, Note_on_c, 15, 45, 0
17, 278000, Note_on_c, 15, 45, 44
17, 278064, Note_on_c, 15, 45, 0
17, 278080, Note_on_c, 15, 45, 44
17, 278144, Note_on_c, 15, 45, 0
17, 278160, Note_on_c, 15, 45, 44
17, 278224, Note_on_c, 15, 45, 0
17, 278240, Note_on_c, 15, 45, 44
17, 278304, Note_on_c, 15, 45, 0
17, 278320, Note_on_c, 15, 45, 44
17, 278384, Note_on_c, 15, 45, 0
17, 278400, Note_on_c, 15, 45, 44
17, 278639, Note_on_c, 15, 45, 0
17, 283680, Note_on_c, 15, 29, 44
17, 283744, Note_on_c, 15, 29, 0
17, 283760, Note_on_c, 15, 29, 44
17, 283824, Note_on_c, 15, 29, 0
17, 283840, Note_on_c, 15, 29, 44
17, 283904, Note_on_c, 15, 29, 0
17, 283920, Note_on_c, 15, 29, 44
17, 283984, Note_on_c, 15, 29, 0
17, 284000, Note_on_c, 15, 29, 44
17, 284064, Note_on_c, 15, 29, 0
17, 284080, Note_on_c, 15, 29, 44
17, 284144, Note_on_c, 15, 29, 0
17, 284160, Note_on_c, 15, 29, 44
17, 284399, Note_on_c, 15, 29, 0
17, 284640, Note_on_c, 15, 41, 44
17, 284704, Note_on_c, 15, 41, 0
17, 284720, Note_on_c, 15, 41, 44
17, 284784, Note_on_c, 15, 41, 0
17, 284800, Note_on_c, 15, 41, 44
17, 284864, Note_on_c, 15, 41, 0
17, 284880, Note_on_c, 15, 41, 44
17, 284944, Note_on_c, 15, 41, 0
17, 284960, Note_on_c, 15, 41, 44
17, 285024, Note_on_c, 15, 41, 0
17, 285040, Note_on_c, 15, 41, 44
17, 285104, Note_on_c, 15, 41, 0
17, 285120, Note_on_c, 15, 41, 44
17, 285359, Note_on_c, 15, 41, 0
17, 285600, Note_on_c, 15, 41, 44
17, 285664, Note_on_c, 15, 41, 0
17, 285680, Note_on_c, 15, 41, 44
17, 285744, Note_on_c, 15, 41, 0
17, 285760, Note_on_c, 15, 41, 44
17, 285824, Note_on_c, 15, 41, 0
17, 285840, Note_on_c, 15, 41, 44
17, 285904, Note_on_c, 15, 41, 0
17, 285920, Note_on_c, 15, 41, 44
17, 285984, Note_on_c, 15, 41, 0
17, 286000, Note_on_c, 15, 41, 44
17, 286064, Note_on_c, 15, 41, 0
17, 286080, Note_on_c, 15, 41, 44
17, 286319, Note_on_c, 15, 41, 0
17, 286560, Note_on_c, 15, 41, 44
17, 287519, Note_on_c, 15, 41, 0
17, 287520, Note_on_c, 15, 39, 44
17, 287999, Note_on_c, 15, 39, 0
17, 288000, Note_on_c, 15, 38, 44
17, 288479, Note_on_c, 15, 38, 0
17, 288480, Note_on_c, 15, 36, 44
17, 288959, Note_on_c, 15, 36, 0
17, 288960, Note_on_c, 15, 34, 44
17, 289439, Note_on_c, 15, 34, 0
17, 289440, Note_on_c, 15, 32, 44
17, 289919, Note_on_c, 15, 32, 0
17, 289920, Note_on_c, 15, 31, 44
17, 290379, Note_on_c, 15, 31, 0
17, 290400, Note_on_c, 15, 43, 44
17, 291359, Note_on_c, 15, 43, 0
17, 291360, Note_on_c, 15, 41, 44
17, 291839, Note_on_c, 15, 41, 0
17, 291840, Note_on_c, 15, 39, 44
17, 292319, Note_on_c, 15, 39, 0
17, 292320, Note_on_c, 15, 38, 44
17, 292799, Note_on_c, 15, 38, 0
17, 292800, Note_on_c, 15, 36, 44
17, 293279, Note_on_c, 15, 36, 0
17, 293280, Note_on_c, 15, 34, 44
17, 293759, Note_on_c, 15, 34, 0
17, 293760, Note_on_c, 15, 33, 44
17, 294219, Note_on_c, 15, 33, 0
17, 294238, Control_c, 15, 11, 64
17, 294240, Note_on_c, 15, 33, 76
17, 294240, Control_c, 15, 11, 64
17, 294550, Control_c, 15, 11, 67
17, 294639, Note_on_c, 15, 33, 0
17, 294720, Note_on_c, 15, 35, 76
17, 294860, Control_c, 15, 11, 69
17, 295119, Note_on_c, 15, 35, 0
17, 295170, Control_c, 15, 11, 72
17, 295200, Note_on_c, 15, 37, 76
17, 295480, Control_c, 15, 11, 75
17, 295599, Note_on_c, 15, 37, 0
17, 295680, Note_on_c, 15, 38, 76
17, 295790, Control_c, 15, 11, 77
17, 296079, Note_on_c, 15, 38, 0
17, 296100, Control_c, 15, 11, 80
17, 296160, Note_on_c, 15, 39, 76
17, 296410, Control_c, 15, 11, 82
17, 296559, Note_on_c, 15, 39, 0
17, 296640, Note_on_c, 15, 41, 76
17, 296720, Control_c, 15, 11, 85
17, 297030, Control_c, 15, 11, 88
17, 297039, Note_on_c, 15, 41, 0
17, 297120, Note_on_c, 15, 42, 76
17, 297340, Control_c, 15, 11, 90
17, 297519, Note_on_c, 15, 42, 0
17, 297600, Note_on_c, 15, 43, 76
17, 297650, Control_c, 15, 11, 93
17, 297960, Control_c, 15, 11, 96
17, 297999, Note_on_c, 15, 43, 0
17, 298080, Note_on_c, 15, 31, 76
17, 298270, Control_c, 15, 11, 98
17, 298479, Note_on_c, 15, 31, 0
17, 298560, Note_on_c, 15, 32, 76
17, 298580, Control_c, 15, 11, 101
17, 298890, Control_c, 15, 11, 103
17, 298959, Note_on_c, 15, 32, 0
17, 299040, Note_on_c, 15, 35, 76
17, 299200, Control_c, 15, 11, 106
17, 299439, Note_on_c, 15, 35, 0
17, 299510, Control_c, 15, 11, 109
17, 299520, Note_on_c, 15, 36, 76
17, 299820, Control_c, 15, 11, 111
17, 299919, Note_on_c, 15, 36, 0
17, 300000, Note_on_c, 15, 38, 76
17, 300130, Control_c, 15, 11, 114
17, 300399, Note_on_c, 15, 38, 0
17, 300440, Control_c, 15, 11, 117
17, 300480, Note_on_c, 15, 39, 76
17, 300750, Control_c, 15, 11, 119
17, 300879, Note_on_c, 15, 39, 0
17, 300960, Note_on_c, 15, 40, 76
17, 301060, Control_c, 15, 11, 122
17, 301359, Note_on_c, 15, 40, 0
17, 301370, Control_c, 15, 11, 124
17, 301440, Note_on_c, 15, 41, 76
17, 301680, Control_c, 15, 11, 127
17, 301839, Note_on_c, 15, 41, 0
17, 301920, Note_on_c, 15, 53, 76
17, 302859, Note_on_c, 15, 53, 0
17, 302880, Note_on_c, 15, 51, 76
17, 303279, Note_on_c, 15, 51, 0
17, 303360, Note_on_c, 15, 49, 76
17, 303759, Note_on_c, 15, 49, 0
17, 303840, Note_on_c, 15, 48, 76
17, 304239, Note_on_c, 15, 48, 0
17, 304320, Note_on_c, 15, 46, 76
17, 304719, Note_on_c, 15, 46, 0
17, 304800, Note_on_c, 15, 44, 76
17, 305199, Note_on_c, 15, 44, 0
17, 305280, Note_on_c, 15, 43, 76
17, 305679, Note_on_c, 15, 43, 0
17, 305760, Note_on_c, 15, 51, 76
17, 306699, Note_on_c, 15, 51, 0
17, 306720, Note_on_c, 15, 49, 76
17, 307119, Note_on_c, 15, 49, 0
17, 307200, Note_on_c, 15, 48, 76
17, 307599, Note_on_c, 15, 48, 0
17, 307680, Note_on_c, 15, 46, 76
17, 308079, Note_on_c, 15, 46, 0
17, 308160, Note_on_c, 15, 44, 76
17, 308559, Note_on_c, 15, 44, 0
17, 308640, Note_on_c, 15, 42, 76
17, 309039, Note_on_c, 15, 42, 0
17, 309120, Note_on_c, 15, 41, 76
17, 309519, Note_on_c, 15, 41, 0
17, 309600, Note_on_c, 15, 37, 76
17, 309999, Note_on_c, 15, 37, 0
17, 310080, Note_on_c, 15, 39, 76
17, 310479, Note_on_c, 15, 39, 0
17, 310560, Note_on_c, 15, 41, 76
17, 310959, Note_on_c, 15, 41, 0
17, 311040, Note_on_c, 15, 43, 76
17, 311439, Note_on_c, 15, 43, 0
17, 311520, Note_on_c, 15, 44, 76
17, 311919, Note_on_c, 15, 44, 0
17, 312000, Note_on_c, 15, 46, 76
17, 312399, Note_on_c, 15, 46, 0
17, 312480, Note_on_c, 15, 47, 76
17, 312879, Note_on_c, 15, 47, 0
17, 312960, Note_on_c, 15, 48, 76
17, 313359, Note_on_c, 15, 48, 0
17, 313440, Note_on_c, 15, 36, 76
17, 313839, Note_on_c, 15, 36, 0
17, 313920, Note_on_c, 15, 38, 76
17, 314319, Note_on_c, 15, 38, 0
17, 314400, Note_on_c, 15, 40, 76
17, 314799, Note_on_c, 15, 40, 0
17, 314880, Note_on_c, 15, 41, 76
17, 315279, Note_on_c, 15, 41, 0
17, 315360, Note_on_c, 15, 43, 76
17, 315759, Note_on_c, 15, 43, 0
17, 315840, Note_on_c, 15, 44, 76
17, 316239, Note_on_c, 15, 44, 0
17, 316320, Note_on_c, 15, 45, 76
17, 316719, Note_on_c, 15, 45, 0
17, 316800, Note_on_c, 15, 46, 76
17, 317199, Note_on_c, 15, 46, 0
17, 317280, Note_on_c, 15, 44, 76
17, 317679, Note_on_c, 15, 44, 0
17, 317760, Note_on_c, 15, 43, 76
17, 318159, Note_on_c, 15, 43, 0
17, 318240, Note_on_c, 15, 41, 76
17, 318639, Note_on_c, 15, 41, 0
17, 318720, Note_on_c, 15, 39, 76
17, 319119, Note_on_c, 15, 39, 0
17, 319200, Note_on_c, 15, 41, 76
17, 319599, Note_on_c, 15, 41, 0
17, 319680, Note_on_c, 15, 43, 76
17, 320079, Note_on_c, 15, 43, 0
17, 320160, Note_on_c, 15, 44, 76
17, 320559, Note_on_c, 15, 44, 0
17, 320640, Note_on_c, 15, 45, 76
17, 321039, Note_on_c, 15, 45, 0
17, 321120, Note_on_c, 15, 43, 76
17, 321519, Note_on_c, 15, 43, 0
17, 321600, Note_on_c, 15, 41, 76
17, 321999, Note_on_c, 15, 41, 0
17, 322080, Note_on_c, 15, 40, 76
17, 322479, Note_on_c, 15, 40, 0
17, 322560, Note_on_c, 15, 38, 76
17, 322779, Note_on_c, 15, 38, 0
17, 322800, Note_on_c, 15, 40, 76
17, 323019, Note_on_c, 15, 40, 0
17, 323040, Note_on_c, 15, 41, 76
17, 323259, Note_on_c, 15, 41, 0
17, 323280, Note_on_c, 15, 42, 76
17, 323499, Note_on_c, 15, 42, 0
17, 323520, Note_on_c, 15, 43, 76
17, 323739, Note_on_c, 15, 43, 0
17, 323760, Note_on_c, 15, 41, 76
17, 323979, Note_on_c, 15, 41, 0
17, 324000, Note_on_c, 15, 39, 76
17, 324219, Note_on_c, 15, 39, 0
17, 324240, Note_on_c, 15, 38, 76
17, 324459, Note_on_c, 15, 38, 0
17, 324480, Note_on_c, 15, 36, 76
17, 324699, Note_on_c, 15, 36, 0
17, 324720, Note_on_c, 15, 38, 76
17, 324939, Note_on_c, 15, 38, 0
17, 324960, Note_on_c, 15, 39, 76
17, 325179, Note_on_c, 15, 39, 0
17, 325200, Note_on_c, 15, 40, 76
17, 325419, Note_on_c, 15, 40, 0
17, 325440, Note_on_c, 15, 41, 76
17, 325659, Note_on_c, 15, 41, 0
17, 325680, Note_on_c, 15, 39, 76
17, 325899, Note_on_c, 15, 39, 0
17, 325920, Note_on_c, 15, 38, 76
17, 326139, Note_on_c, 15, 38, 0
17, 326160, Note_on_c, 15, 36, 76
17, 326379, Note_on_c, 15, 36, 0
17, 326400, Note_on_c, 15, 34, 76
17, 326619, Note_on_c, 15, 34, 0
17, 326640, Note_on_c, 15, 45, 76
17, 326859, Note_on_c, 15, 45, 0
17, 326880, Note_on_c, 15, 43, 76
17, 327099, Note_on_c, 15, 43, 0
17, 327120, Note_on_c, 15, 41, 76
17, 327339, Note_on_c, 15, 41, 0
17, 327360, Note_on_c, 15, 40, 76
17, 327579, Note_on_c, 15, 40, 0
17, 327600, Note_on_c, 15, 38, 76
17, 327819, Note_on_c, 15, 38, 0
17, 327840, Note_on_c, 15, 37, 76
17, 328059, Note_on_c, 15, 37, 0
17, 328080, Note_on_c, 15, 35, 76
17, 328299, Note_on_c, 15, 35, 0
17, 328320, Note_on_c, 15, 33, 76
17, 328539, Note_on_c, 15, 33, 0
17, 328560, Note_on_c, 15, 35, 76
17, 328779, Note_on_c, 15, 35, 0
17, 328800, Note_on_c, 15, 37, 76
17, 329019, Note_on_c, 15, 37, 0
17, 329040, Note_on_c, 15, 38, 76
17, 329259, Note_on_c, 15, 38, 0
17, 329280, Note_on_c, 15, 40, 76
17, 329499, Note_on_c, 15, 40, 0
17, 329520, Note_on_c, 15, 42, 76
17, 329739, Note_on_c, 15, 42, 0
17, 329760, Note_on_c, 15, 43, 76
17, 329979, Note_on_c, 15, 43, 0
17, 330000, Note_on_c, 15, 44, 76
17, 330219, Note_on_c, 15, 44, 0
17, 330240, Note_on_c, 15, 45, 76
17, 330459, Note_on_c, 15, 45, 0
17, 330480, Note_on_c, 15, 47, 76
17, 330699, Note_on_c, 15, 47, 0
17, 330720, Note_on_c, 15, 49, 76
17, 330939, Note_on_c, 15, 49, 0
17, 330960, Note_on_c, 15, 50, 76
17, 331179, Note_on_c, 15, 50, 0
17, 331200, Note_on_c, 15, 52, 76
17, 331419, Note_on_c, 15, 52, 0
17, 331440, Note_on_c, 15, 54, 76
17, 331659, Note_on_c, 15, 54, 0
17, 331680, Note_on_c, 15, 56, 84
17, 331899, Note_on_c, 15, 56, 0
17, 331920, Note_on_c, 15, 57, 84
17, 332139, Note_on_c, 15, 57, 0
17, 332160, Note_on_c, 15, 45, 84
17, 332379, Note_on_c, 15, 45, 0
17, 332400, Note_on_c, 15, 57, 84
17, 332619, Note_on_c, 15, 57, 0
17, 332640, Note_on_c, 15, 45, 84
17, 332859, Note_on_c, 15, 45, 0
17, 332880, Note_on_c, 15, 57, 84
17, 333099, Note_on_c, 15, 57, 0
17, 333120, Note_on_c, 15, 45, 84
17, 333339, Note_on_c, 15, 45, 0
17, 333360, Note_on_c, 15, 57, 84
17, 333579, Note_on_c, 15, 57, 0
17, 333600, Note_on_c, 15, 45, 84
17, 333819, Note_on_c, 15, 45, 0
17, 333840, Note_on_c, 15, 57, 84
17, 334059, Note_on_c, 15, 57, 0
17, 334080, Note_on_c, 15, 45, 84
17, 334299, Note_on_c, 15, 45, 0
17, 334320, Note_on_c, 15, 57, 84
17, 334539, Note_on_c, 15, 57, 0
17, 334560, Note_on_c, 15, 45, 84
17, 334779, Note_on_c, 15, 45, 0
17, 334800, Note_on_c, 15, 57, 84
17, 335019, Note_on_c, 15, 57, 0
17, 335040, Note_on_c, 15, 45, 84
17, 335259, Note_on_c, 15, 45, 0
17, 335280, Note_on_c, 15, 57, 84
17, 335519, Note_on_c, 15, 57, 0
17, 357600, Note_on_c, 15, 37, 84
17, 358559, Note_on_c, 15, 37, 0
17, 359520, Note_on_c, 15, 37, 84
17, 360479, Note_on_c, 15, 37, 0
17, 361440, Note_on_c, 15, 37, 84
17, 362379, Note_on_c, 15, 37, 0
17, 362400, Note_on_c, 15, 37, 84
17, 363339, Note_on_c, 15, 37, 0
17, 363360, Note_on_c, 15, 37, 84
17, 364299, Note_on_c, 15, 37, 0
17, 364320, Note_on_c, 15, 30, 84
17, 364479, Note_on_c, 15, 30, 0
17, 364560, Note_on_c, 15, 42, 84
17, 364719, Note_on_c, 15, 42, 0
17, 364800, Note_on_c, 15, 30, 84
17, 364959, Note_on_c, 15, 30, 0
17, 365040, Note_on_c, 15, 42, 84
17, 365199, Note_on_c, 15, 42, 0
17, 365280, Note_on_c, 15, 30, 84
17, 365439, Note_on_c, 15, 30, 0
17, 365520, Note_on_c, 15, 42, 84
17, 365679, Note_on_c, 15, 42, 0
17, 365760, Note_on_c, 15, 30, 84
17, 365919, Note_on_c, 15, 30, 0
17, 366000, Note_on_c, 15, 42, 84
17, 366159, Note_on_c, 15, 42, 0
17, 366240, Note_on_c, 15, 30, 84
17, 366399, Note_on_c, 15, 30, 0
17, 366480, Note_on_c, 15, 42, 84
17, 366639, Note_on_c, 15, 42, 0
17, 366720, Note_on_c, 15, 30, 84
17, 366879, Note_on_c, 15, 30, 0
17, 366960, Note_on_c, 15, 42, 84
17, 367119, Note_on_c, 15, 42, 0
17, 367200, Note_on_c, 15, 30, 84
17, 367359, Note_on_c, 15, 30, 0
17, 367440, Note_on_c, 15, 42, 84
17, 367599, Note_on_c, 15, 42, 0
17, 367680, Note_on_c, 15, 30, 84
17, 367839, Note_on_c, 15, 30, 0
17, 367920, Note_on_c, 15, 42, 84
17, 368079, Note_on_c, 15, 42, 0
17, 368160, Note_on_c, 15, 30, 84
17, 368319, Note_on_c, 15, 30, 0
17, 368400, Note_on_c, 15, 42, 84
17, 368559, Note_on_c, 15, 42, 0
17, 368640, Note_on_c, 15, 35, 84
17, 368799, Note_on_c, 15, 35, 0
17, 368880, Note_on_c, 15, 47, 84
17, 369039, Note_on_c, 15, 47, 0
17, 369120, Note_on_c, 15, 38, 84
17, 369279, Note_on_c, 15, 38, 0
17, 369360, Note_on_c, 15, 50, 84
17, 369519, Note_on_c, 15, 50, 0
17, 369600, Note_on_c, 15, 43, 84
17, 369759, Note_on_c, 15, 43, 0
17, 369840, Note_on_c, 15, 55, 84
17, 369999, Note_on_c, 15, 55, 0
17, 370080, Note_on_c, 15, 53, 84
17, 370239, Note_on_c, 15, 53, 0
17, 370320, Note_on_c, 15, 54, 84
17, 370479, Note_on_c, 15, 54, 0
17, 370560, Note_on_c, 15, 47, 84
17, 370719, Note_on_c, 15, 47, 0
17, 370800, Note_on_c, 15, 45, 84
17, 370959, Note_on_c, 15, 45, 0
17, 371040, Note_on_c, 15, 47, 84
17, 371199, Note_on_c, 15, 47, 0
17, 371280, Note_on_c, 15, 49, 84
17, 371439, Note_on_c, 15, 49, 0
17, 371520, Note_on_c, 15, 50, 84
17, 371679, Note_on_c, 15, 50, 0
17, 371760, Note_on_c, 15, 53, 84
17, 371919, Note_on_c, 15, 53, 0
17, 372000, Note_on_c, 15, 54, 84
17, 372159, Note_on_c, 15, 54, 0
17, 372240, Note_on_c, 15, 45, 84
17, 372399, Note_on_c, 15, 45, 0
17, 372480, Note_on_c, 15, 47, 84
17, 372639, Note_on_c, 15, 47, 0
17, 372720, Note_on_c, 15, 45, 84
17, 372879, Note_on_c, 15, 45, 0
17, 372960, Note_on_c, 15, 47, 84
17, 373119, Note_on_c, 15, 47, 0
17, 373200, Note_on_c, 15, 49, 84
17, 373359, Note_on_c, 15, 49, 0
17, 373440, Note_on_c, 15, 50, 84
17, 373599, Note_on_c, 15, 50, 0
17, 373680, Note_on_c, 15, 53, 84
17, 373839, Note_on_c, 15, 53, 0
17, 373920, Note_on_c, 15, 54, 84
17, 374079, Note_on_c, 15, 54, 0
17, 374160, Note_on_c, 15, 45, 84
17, 374319, Note_on_c, 15, 45, 0
17, 374400, Note_on_c, 15, 47, 84
17, 374559, Note_on_c, 15, 47, 0
17, 374640, Note_on_c, 15, 45, 84
17, 374799, Note_on_c, 15, 45, 0
17, 374880, Note_on_c, 15, 47, 84
17, 375039, Note_on_c, 15, 47, 0
17, 375120, Note_on_c, 15, 49, 84
17, 375279, Note_on_c, 15, 49, 0
17, 375360, Note_on_c, 15, 50, 84
17, 375519, Note_on_c, 15, 50, 0
17, 375600, Note_on_c, 15, 53, 84
17, 375759, Note_on_c, 15, 53, 0
17, 375840, Note_on_c, 15, 53, 84
17, 375999, Note_on_c, 15, 53, 0
17, 376080, Note_on_c, 15, 45, 84
17, 376239, Note_on_c, 15, 45, 0
17, 376320, Note_on_c, 15, 46, 84
17, 376539, Note_on_c, 15, 46, 0
17, 376560, Note_on_c, 15, 45, 84
17, 376779, Note_on_c, 15, 45, 0
17, 376800, Note_on_c, 15, 46, 84
17, 377019, Note_on_c, 15, 46, 0
17, 377040, Note_on_c, 15, 48, 84
17, 377259, Note_on_c, 15, 48, 0
17, 377280, Note_on_c, 15, 50, 84
17, 377499, Note_on_c, 15, 50, 0
17, 377520, Note_on_c, 15, 52, 84
17, 377739, Note_on_c, 15, 52, 0
17, 377760, Note_on_c, 15, 53, 84
17, 377979, Note_on_c, 15, 53, 0
17, 378000, Note_on_c, 15, 45, 84
17, 378219, Note_on_c, 15, 45, 0
17, 378240, Note_on_c, 15, 38, 92
17, 378459, Note_on_c, 15, 38, 0
17, 378480, Note_on_c, 15, 40, 84
17, 378699, Note_on_c, 15, 40, 0
17, 378720, Note_on_c, 15, 41, 84
17, 378939, Note_on_c, 15, 41, 0
17, 378960, Note_on_c, 15, 45, 84
17, 379179, Note_on_c, 15, 45, 0
17, 379200, Note_on_c, 15, 50, 92
17, 379419, Note_on_c, 15, 50, 0
17, 379440, Note_on_c, 15, 52, 84
17, 379659, Note_on_c, 15, 52, 0
17, 379680, Note_on_c, 15, 53, 84
17, 379899, Note_on_c, 15, 53, 0
17, 379920, Note_on_c, 15, 45, 84
17, 380139, Note_on_c, 15, 45, 0
17, 380160, Note_on_c, 15, 38, 92
17, 380379, Note_on_c, 15, 38, 0
17, 380400, Note_on_c, 15, 40, 84
17, 380619, Note_on_c, 15, 40, 0
17, 380640, Note_on_c, 15, 41, 84
17, 380859, Note_on_c, 15, 41, 0
17, 380880, Note_on_c, 15, 45, 84
17, 381099, Note_on_c, 15, 45, 0
17, 381120, Note_on_c, 15, 50, 92
17, 381339, Note_on_c, 15, 50, 0
17, 381360, Note_on_c, 15, 52, 84
17, 381579, Note_on_c, 15, 52, 0
17, 381600, Note_on_c, 15, 53, 92
17, 381819, Note_on_c, 15, 53, 0
17, 381840, Note_on_c, 15, 45, 84
17, 382059, Note_on_c, 15, 45, 0
17, 382080, Note_on_c, 15, 50, 92
17, 382299, Note_on_c, 15, 50, 0
17, 382320, Note_on_c, 15, 52, 84
17, 382539, Note_on_c, 15, 52, 0
17, 382560, Note_on_c, 15, 48, 92
17, 382779, Note_on_c, 15, 48, 0
17, 382800, Note_on_c, 15, 49, 84
17, 383019, Note_on_c, 15, 49, 0
17, 383040, Note_on_c, 15, 50, 92
17, 383259, Note_on_c, 15, 50, 0
17, 383280, Note_on_c, 15, 46, 84
17, 383499, Note_on_c, 15, 46, 0
17, 383520, Note_on_c, 15, 47, 92
17, 383739, Note_on_c, 15, 47, 0
17, 383760, Note_on_c, 15, 48, 84
17, 383979, Note_on_c, 15, 48, 0
17, 384000, Note_on_c, 15, 51, 92
17, 384219, Note_on_c, 15, 51, 0
17, 384240, Note_on_c, 15, 45, 84
17, 384459, Note_on_c, 15, 45, 0
17, 384480, Note_on_c, 15, 46, 92
17, 384699, Note_on_c, 15, 46, 0
17, 384720, Note_on_c, 15, 50, 84
17, 384939, Note_on_c, 15, 50, 0
17, 384960, Note_on_c, 15, 44, 92
17, 385179, Note_on_c, 15, 44, 0
17, 385200, Note_on_c, 15, 45, 84
17, 385419, Note_on_c, 15, 45, 0
17, 385440, Note_on_c, 15, 48, 92
17, 385659, Note_on_c, 15, 48, 0
17, 385680, Note_on_c, 15, 42, 84
17, 385899, Note_on_c, 15, 42, 0
17, 385920, Note_on_c, 15, 43, 92
17, 386139, Note_on_c, 15, 43, 0
17, 386160, Note_on_c, 15, 46, 84
17, 386379, Note_on_c, 15, 46, 0
17, 386400, Note_on_c, 15, 40, 92
17, 386619, Note_on_c, 15, 40, 0
17, 386640, Note_on_c, 15, 41, 84
17, 386859, Note_on_c, 15, 41, 0
17, 386880, Note_on_c, 15, 45, 92
17, 387099, Note_on_c, 15, 45, 0
17, 387120, Note_on_c, 15, 38, 84
17, 387339, Note_on_c, 15, 38, 0
17, 387360, Note_on_c, 15, 39, 92
17, 387579, Note_on_c, 15, 39, 0
17, 387600, Note_on_c, 15, 40, 84
17, 387819, Note_on_c, 15, 40, 0
17, 387840, Note_on_c, 15, 43, 92
17, 388059, Note_on_c, 15, 43, 0
17, 388080, Note_on_c, 15, 46, 84
17, 388299, Note_on_c, 15, 46, 0
17, 388320, Note_on_c, 15, 48, 92
17, 388539, Note_on_c, 15, 48, 0
17, 388560, Note_on_c, 15, 36, 84
17, 388779, Note_on_c, 15, 36, 0
17, 388800, Note_on_c, 15, 43, 92
17, 389019, Note_on_c, 15, 43, 0
17, 389040, Note_on_c, 15, 46, 84
17, 389259, Note_on_c, 15, 46, 0
17, 389280, Note_on_c, 15, 48, 92
17, 389499, Note_on_c, 15, 48, 0
17, 389520, Note_on_c, 15, 36, 84
17, 389739, Note_on_c, 15, 36, 0
17, 389760, Note_on_c, 15, 43, 92
17, 389979, Note_on_c, 15, 43, 0
17, 390000, Note_on_c, 15, 46, 84
17, 390219, Note_on_c, 15, 46, 0
17, 390240, Note_on_c, 15, 48, 92
17, 390459, Note_on_c, 15, 48, 0
17, 390480, Note_on_c, 15, 36, 84
17, 390699, Note_on_c, 15, 36, 0
17, 390720, Note_on_c, 15, 43, 92
17, 390939, Note_on_c, 15, 43, 0
17, 390960, Note_on_c, 15, 46, 84
17, 391179, Note_on_c, 15, 46, 0
17, 391200, Note_on_c, 15, 48, 92
17, 391419, Note_on_c, 15, 48, 0
17, 391440, Note_on_c, 15, 36, 84
17, 391659, Note_on_c, 15, 36, 0
17, 391680, Note_on_c, 15, 41, 76
17, 391760, Control_c, 15, 11, 80
17, 392639, Note_on_c, 15, 41, 0
17, 392640, Note_on_c, 15, 41, 76
17, 393579, Note_on_c, 15, 41, 0
17, 393600, Note_on_c, 15, 41, 76
17, 394059, Note_on_c, 15, 41, 0
17, 394080, Note_on_c, 15, 41, 76
17, 394539, Note_on_c, 15, 41, 0
17, 394560, Note_on_c, 15, 41, 76
17, 395019, Note_on_c, 15, 41, 0
17, 395040, Note_on_c, 15, 41, 76
17, 395499, Note_on_c, 15, 41, 0
17, 395520, Note_on_c, 15, 41, 76
17, 396479, Note_on_c, 15, 41, 0
17, 396480, Note_on_c, 15, 41, 76
17, 397419, Note_on_c, 15, 41, 0
17, 397440, Note_on_c, 15, 41, 76
17, 397899, Note_on_c, 15, 41, 0
17, 397920, Note_on_c, 15, 41, 76
17, 398379, Note_on_c, 15, 41, 0
17, 398400, Note_on_c, 15, 41, 76
17, 398859, Note_on_c, 15, 41, 0
17, 398880, Note_on_c, 15, 41, 76
17, 399339, Note_on_c, 15, 41, 0
17, 399358, Control_c, 15, 11, 127
17, 399360, Note_on_c, 15, 41, 76
17, 399579, Note_on_c, 15, 41, 0
17, 399600, Note_on_c, 15, 53, 76
17, 399819, Note_on_c, 15, 53, 0
17, 399840, Note_on_c, 15, 53, 76
17, 400059, Note_on_c, 15, 53, 0
17, 400080, Note_on_c, 15, 53, 76
17, 400299, Note_on_c, 15, 53, 0
17, 400320, Note_on_c, 15, 38, 76
17, 400539, Note_on_c, 15, 38, 0
17, 400560, Note_on_c, 15, 50, 76
17, 400779, Note_on_c, 15, 50, 0
17, 400800, Note_on_c, 15, 50, 76
17, 401019, Note_on_c, 15, 50, 0
17, 401040, Note_on_c, 15, 50, 76
17, 401259, Note_on_c, 15, 50, 0
17, 401280, Note_on_c, 15, 34, 76
17, 401499, Note_on_c, 15, 34, 0
17, 401520, Note_on_c, 15, 46, 76
17, 401739, Note_on_c, 15, 46, 0
17, 401760, Note_on_c, 15, 46, 76
17, 401979, Note_on_c, 15, 46, 0
17, 402000, Note_on_c, 15, 46, 76
17, 402219, Note_on_c, 15, 46, 0
17, 402240, Note_on_c, 15, 36, 76
17, 402459, Note_on_c, 15, 36, 0
17, 402480, Note_on_c, 15, 48, 76
17, 402699, Note_on_c, 15, 48, 0
17, 402720, Note_on_c, 15, 48, 76
17, 402939, Note_on_c, 15, 48, 0
17, 402960, Note_on_c, 15, 48, 76
17, 403179, Note_on_c, 15, 48, 0
17, 403200, Note_on_c, 15, 29, 52
17, 404159, Note_on_c, 15, 29, 0
17, 404160, Note_on_c, 15, 36, 52
17, 404879, Note_on_c, 15, 36, 0
17, 404880, Note_on_c, 15, 38, 52
17, 405119, Note_on_c, 15, 38, 0
17, 405120, Note_on_c, 15, 38, 52
17, 405359, Note_on_c, 15, 38, 0
17, 405360, Note_on_c, 15, 31, 52
17, 405579, Note_on_c, 15, 31, 0
17, 405600, Note_on_c, 15, 31, 52
17, 405839, Note_on_c, 15, 31, 0
17, 405840, Note_on_c, 15, 33, 52
17, 406079, Note_on_c, 15, 33, 0
17, 406080, Note_on_c, 15, 34, 52
17, 406319, Note_on_c, 15, 34, 0
17, 406560, Note_on_c, 15, 36, 52
17, 406799, Note_on_c, 15, 36, 0
17, 407040, Note_on_c, 15, 33, 52
17, 407979, Note_on_c, 15, 33, 0
17, 408000, Note_on_c, 15, 36, 52
17, 408239, Note_on_c, 15, 36, 0
17, 408240, Note_on_c, 15, 38, 52
17, 408319, Note_on_c, 15, 38, 0
17, 408320, Note_on_c, 15, 36, 52
17, 408399, Note_on_c, 15, 36, 0
17, 408400, Note_on_c, 15, 35, 52
17, 408479, Note_on_c, 15, 35, 0
17, 408480, Note_on_c, 15, 36, 52
17, 408719, Note_on_c, 15, 36, 0
17, 408720, Note_on_c, 15, 37, 52
17, 408959, Note_on_c, 15, 37, 0
17, 408960, Note_on_c, 15, 40, 52
17, 409199, Note_on_c, 15, 40, 0
17, 409200, Note_on_c, 15, 38, 52
17, 409439, Note_on_c, 15, 38, 0
17, 409440, Note_on_c, 15, 31, 52
17, 409679, Note_on_c, 15, 31, 0
17, 409680, Note_on_c, 15, 33, 52
17, 409919, Note_on_c, 15, 33, 0
17, 409920, Note_on_c, 15, 34, 52
17, 410159, Note_on_c, 15, 34, 0
17, 410400, Note_on_c, 15, 36, 52
17, 410639, Note_on_c, 15, 36, 0
17, 410880, Note_on_c, 15, 33, 76
17, 411099, Note_on_c, 15, 33, 0
17, 411120, Note_on_c, 15, 45, 76
17, 411339, Note_on_c, 15, 45, 0
17, 411360, Note_on_c, 15, 45, 76
17, 411579, Note_on_c, 15, 45, 0
17, 411600, Note_on_c, 15, 45, 76
17, 411819, Note_on_c, 15, 45, 0
17, 411840, Note_on_c, 15, 38, 76
17, 412059, Note_on_c, 15, 38, 0
17, 412080, Note_on_c, 15, 50, 76
17, 412299, Note_on_c, 15, 50, 0
17, 412320, Note_on_c, 15, 50, 76
17, 412539, Note_on_c, 15, 50, 0
17, 412560, Note_on_c, 15, 50, 76
17, 412779, Note_on_c, 15, 50, 0
17, 412800, Note_on_c, 15, 34, 76
17, 413019, Note_on_c, 15, 34, 0
17, 413040, Note_on_c, 15, 46, 76
17, 413259, Note_on_c, 15, 46, 0
17, 413280, Note_on_c, 15, 46, 76
17, 413499, Note_on_c, 15, 46, 0
17, 413520, Note_on_c, 15, 46, 76
17, 413739, Note_on_c, 15, 46, 0
17, 413760, Note_on_c, 15, 36, 76
17, 413979, Note_on_c, 15, 36, 0
17, 414000, Note_on_c, 15, 48, 76
17, 414219, Note_on_c, 15, 48, 0
17, 414240, Note_on_c, 15, 48, 76
17, 414459, Note_on_c, 15, 48, 0
17, 414480, Note_on_c, 15, 48, 76
17, 414699, Note_on_c, 15, 48, 0
17, 414720, Note_on_c, 15, 41, 84
17, 414939, Note_on_c, 15, 41, 0
17, 414960, Note_on_c, 15, 29, 84
17, 415179, Note_on_c, 15, 29, 0
17, 415200, Note_on_c, 15, 29, 84
17, 415419, Note_on_c, 15, 29, 0
17, 415440, Note_on_c, 15, 29, 84
17, 415659, Note_on_c, 15, 29, 0
17, 415680, Note_on_c, 15, 29, 84
17, 415899, Note_on_c, 15, 29, 0
17, 415920, Note_on_c, 15, 29, 84
17, 416139, Note_on_c, 15, 29, 0
17, 416160, Note_on_c, 15, 29, 84
17, 416379, Note_on_c, 15, 29, 0
17, 416400, Note_on_c, 15, 29, 84
17, 416619, Note_on_c, 15, 29, 0
17, 416640, Note_on_c, 15, 29, 84
17, 416859, Note_on_c, 15, 29, 0
17, 416880, Note_on_c, 15, 29, 84
17, 417099, Note_on_c, 15, 29, 0
17, 417120, Note_on_c, 15, 29, 84
17, 417339, Note_on_c, 15, 29, 0
17, 417360, Note_on_c, 15, 29, 84
17, 417579, Note_on_c, 15, 29, 0
17, 417600, Note_on_c, 15, 29, 84
17, 417819, Note_on_c, 15, 29, 0
17, 417840, Note_on_c, 15, 29, 84
17, 418059, Note_on_c, 15, 29, 0
17, 418080, Note_on_c, 15, 29, 84
17, 418299, Note_on_c, 15, 29, 0
17, 418320, Note_on_c, 15, 29, 84
17, 418539, Note_on_c, 15, 29, 0
17, 418560, Note_on_c, 15, 28, 84
17, 418799, Note_on_c, 15, 28, 0
17, 419040, Note_on_c, 15, 40, 84
17, 419279, Note_on_c, 15, 40, 0
17, 419520, Note_on_c, 15, 36, 84
17, 419759, Note_on_c, 15, 36, 0
17, 420000, Note_on_c, 15, 36, 84
17, 420239, Note_on_c, 15, 36, 0
17, 424800, Note_on_c, 15, 36, 76
17, 425259, Note_on_c, 15, 36, 0
17, 425280, Note_on_c, 15, 34, 76
17, 425739, Note_on_c, 15, 34, 0
17, 425760, Note_on_c, 15, 34, 76
17, 426219, Note_on_c, 15, 34, 0
17, 426240, Note_on_c, 15, 33, 76
17, 426699, Note_on_c, 15, 33, 0
17, 426720, Note_on_c, 15, 36, 76
17, 427179, Note_on_c, 15, 36, 0
17, 427200, Note_on_c, 15, 34, 76
17, 427659, Note_on_c, 15, 34, 0
17, 427680, Note_on_c, 15, 34, 76
17, 428139, Note_on_c, 15, 34, 0
17, 428160, Note_on_c, 15, 33, 76
17, 428619, Note_on_c, 15, 33, 0
17, 428640, Note_on_c, 15, 36, 76
17, 429099, Note_on_c, 15, 36, 0
17, 429120, Note_on_c, 15, 34, 76
17, 429579, Note_on_c, 15, 34, 0
17, 429600, Note_on_c, 15, 34, 76
17, 430059, Note_on_c, 15, 34, 0
17, 430080, Note_on_c, 15, 33, 76
17, 430539, Note_on_c, 15, 33, 0
17, 430560, Note_on_c, 15, 29, 76
17, 431019, Note_on_c, 15, 29, 0
17, 431040, Note_on_c, 15, 36, 76
17, 431499, Note_on_c, 15, 36, 0
17, 431520, Note_on_c, 15, 36, 76
17, 431979, Note_on_c, 15, 36, 0
17, 432000, Note_on_c, 15, 29, 84
17, 432080, Control_c, 15, 11, 112
17, 432939, Note_on_c, 15, 29, 0
17, 432958, Control_c, 15, 11, 127
17, 432960, Note_on_c, 15, 41, 84
17, 433040, Control_c, 15, 11, 112
17, 433899, Note_on_c, 15, 41, 0
17, 433918, Control_c, 15, 11, 127
17, 433920, Note_on_c, 15, 29, 84
17, 434000, Control_c, 15, 11, 112
17, 434859, Note_on_c, 15, 29, 0
17, 434878, Control_c, 15, 11, 127
17, 434880, Note_on_c, 15, 45, 84
17, 434960, Control_c, 15, 11, 112
17, 435819, Note_on_c, 15, 45, 0
17, 435838, Control_c, 15, 11, 127
17, 435840, Note_on_c, 15, 29, 84
17, 435920, Control_c, 15, 11, 112
17, 436299, Note_on_c, 15, 29, 0
17, 436318, Control_c, 15, 11, 127
17, 436320, Note_on_c, 15, 48, 84
17, 436400, Control_c, 15, 11, 112
17, 436779, Note_on_c, 15, 48, 0
17, 436798, Control_c, 15, 11, 127
17, 436800, Note_on_c, 15, 29, 84
17, 436880, Control_c, 15, 11, 112
17, 437259, Note_on_c, 15, 29, 0
17, 437278, Control_c, 15, 11, 127
17, 437280, Note_on_c, 15, 48, 84
17, 437360, Control_c, 15, 11, 112
17, 437739, Note_on_c, 15, 48, 0
17, 437758, Control_c, 15, 11, 127
17, 437760, Note_on_c, 15, 29, 84
17, 437840, Control_c, 15, 11, 112
17, 438219, Note_on_c, 15, 29, 0
17, 438238, Control_c, 15, 11, 127
17, 438240, Note_on_c, 15, 53, 84
17, 438320, Control_c, 15, 11, 112
17, 438699, Note_on_c, 15, 53, 0
17, 438718, Control_c, 15, 11, 127
17, 438720, Note_on_c, 15, 29, 84
17, 438800, Control_c, 15, 11, 112
17, 439179, Note_on_c, 15, 29, 0
17, 439198, Control_c, 15, 11, 127
17, 439200, Note_on_c, 15, 53, 84
17, 439280, Control_c, 15, 11, 112
17, 439659, Note_on_c, 15, 53, 0
17, 439678, Control_c, 15, 11, 127
17, 439680, Note_on_c, 15, 29, 76
17, 439759, Note_on_c, 15, 29, 0
17, 439760, Note_on_c, 15, 29, 52
17, 440639, Note_on_c, 15, 29, 0
17, 440640, Note_on_c, 15, 29, 52
17, 441599, Note_on_c, 15, 29, 0
17, 441600, Note_on_c, 15, 29, 52
17, 442559, Note_on_c, 15, 29, 0
17, 442560, Note_on_c, 15, 29, 52
17, 443519, Note_on_c, 15, 29, 0
17, 443520, Note_on_c, 15, 29, 52
17, 444479, Note_on_c, 15, 29, 0
17, 444480, Note_on_c, 15, 29, 52
17, 445439, Note_on_c, 15, 29, 0
17, 445440, Note_on_c, 15, 29, 52
17, 446399, Note_on_c, 15, 29, 0
17, 446400, Note_on_c, 15, 29, 52
17, 447359, Note_on_c, 15, 29, 0
17, 447360, Note_on_c, 15, 29, 52
17, 448319, Note_on_c, 15, 29, 0
17, 448320, Note_on_c, 15, 29, 52
17, 449279, Note_on_c, 15, 29, 0
17, 449280, Note_on_c, 15, 29, 52
17, 450239, Note_on_c, 15, 29, 0
17, 450240, Note_on_c, 15, 29, 52
17, 451439, Note_on_c, 15, 29, 0
17, 460800, Note_on_c, 15, 29, 76
17, 461019, Note_on_c, 15, 29, 0
17, 461040, Note_on_c, 15, 41, 76
17, 461259, Note_on_c, 15, 41, 0
17, 461280, Note_on_c, 15, 29, 76
17, 461499, Note_on_c, 15, 29, 0
17, 461520, Note_on_c, 15, 41, 76
17, 461739, Note_on_c, 15, 41, 0
17, 461760, Note_on_c, 15, 29, 76
17, 461979, Note_on_c, 15, 29, 0
17, 462000, Note_on_c, 15, 41, 76
17, 462219, Note_on_c, 15, 41, 0
17, 462240, Note_on_c, 15, 29, 76
17, 462459, Note_on_c, 15, 29, 0
17, 462480, Note_on_c, 15, 41, 76
17, 462699, Note_on_c, 15, 41, 0
17, 462720, Note_on_c, 15, 29, 76
17, 462959, Note_on_c, 15, 29, 0
17, 463680, Note_on_c, 15, 36, 76
17, 463919, Note_on_c, 15, 36, 0
17, 464640, Note_on_c, 15, 29, 76
17, 464879, Note_on_c, 15, 29, 0
17, 465600, Note_on_c, 15, 36, 76
17, 465839, Note_on_c, 15, 36, 0
17, 466560, Note_on_c, 15, 29, 76
17, 466799, Note_on_c, 15, 29, 0
17, 467040, Note_on_c, 15, 36, 76
17, 467279, Note_on_c, 15, 36, 0
17, 467520, Note_on_c, 15, 29, 76
17, 467759, Note_on_c, 15, 29, 0
17, 468000, Note_on_c, 15, 36, 76
17, 468239, Note_on_c, 15, 36, 0
17, 468480, Note_on_c, 15, 29, 76
17, 468719, Note_on_c, 15, 29, 0
17, 468960, Note_on_c, 15, 36, 76
17, 469199, Note_on_c, 15, 36, 0
17, 469440, Note_on_c, 15, 29, 76
17, 469679, Note_on_c, 15, 29, 0
17, 469920, Note_on_c, 15, 36, 76
17, 470159, Note_on_c, 15, 36, 0
17, 470400, Note_on_c, 15, 29, 84
17, 470619, Note_on_c, 15, 29, 0
17, 470640, Note_on_c, 15, 41, 84
17, 470859, Note_on_c, 15, 41, 0
17, 470880, Note_on_c, 15, 29, 84
17, 471099, Note_on_c, 15, 29, 0
17, 471120, Note_on_c, 15, 41, 84
17, 471339, Note_on_c, 15, 41, 0
17, 471360, Note_on_c, 15, 29, 84
17, 471579, Note_on_c, 15, 29, 0
17, 471600, Note_on_c, 15, 41, 84
17, 471819, Note_on_c, 15, 41, 0
17, 471840, Note_on_c, 15, 29, 84
17, 472059, Note_on_c, 15, 29, 0
17, 472080, Note_on_c, 15, 41, 84
17, 472299, Note_on_c, 15, 41, 0
17, 472320, Note_on_c, 15, 29, 84
17, 472559, Note_on_c, 15, 29, 0
17, 473280, Note_on_c, 15, 36, 84
17, 473519, Note_on_c, 15, 36, 0
17, 474240, Note_on_c, 15, 29, 84
17, 474479, Note_on_c, 15, 29, 0
17, 475200, Note_on_c, 15, 36, 84
17, 475439, Note_on_c, 15, 36, 0
17, 476160, Note_on_c, 15, 29, 84
17, 476399, Note_on_c, 15, 29, 0
17, 476640, Note_on_c, 15, 36, 84
17, 476879, Note_on_c, 15, 36, 0
17, 477120, Note_on_c, 15, 29, 84
17, 477359, Note_on_c, 15, 29, 0
17, 477600, Note_on_c, 15, 36, 84
17, 477839, Note_on_c, 15, 36, 0
17, 478080, Note_on_c, 15, 29, 84
17, 478319, Note_on_c, 15, 29, 0
17, 478560, Note_on_c, 15, 36, 84
17, 478799, Note_on_c, 15, 36, 0
17, 479040, Note_on_c, 15, 41, 84
17, 479279, Note_on_c, 15, 41, 0
17, 479520, Note_on_c, 15, 45, 84
17, 479759, Note_on_c, 15, 45, 0
17, 480000, Note_on_c, 15, 48, 84
17, 480239, Note_on_c, 15, 48, 0
17, 480960, Note_on_c, 15, 53, 84
17, 481199, Note_on_c, 15, 53, 0
17, 481920, Note_on_c, 15, 29, 84
17, 482159, Note_on_c, 15, 29, 0
17, 482159, End_track
18, 0, Start_track
18, 0, Title_t, "Ludwig van Beethoven - Symphony No. 8 in F Major, Op.93 - 4. Allegro vivace"
18, 0, MIDI_port, 0
18, 0, End_track
0, 0, End_of_file
