0, 0, Header, 1, 18, 240
1, 0, Start_track
1, 0, Sequencer_specific, 10, 0, 0, 91, 35, 1, 0, 5, 6, 42, 0
1, 0, Title_t, "Ludwig van Beethoven - Symphony No. 4 in B-flat Major, Op.60"
1, 0, Instrument_name_t, "Conductor Track"
1, 0, SMPTE_offset, 96, 0, 3, 0, 0
1, 0, MIDI_port, 0
1, 0, Marker_t, "Originally Sequenced 19 May 2000"
1, 0, Key_signature, -2, "major"
1, 0, Tempo, 909090
1, 0, Time_signature, 4, 2, 24, 8
1, 36480, Tempo, 375000
1, 625200, Tempo, 2000000
1, 625920, Tempo, 375000
1, 625920, End_track
2, 0, Start_track
2, 0, Title_t, "1st Movement - Adagio--Allegro vivace"
2, 0, MIDI_port, 0
2, 0, End_track
3, 0, Start_track
3, 0, Title_t, "Sequenced by D. L. Viens 30 May 2000"
3, 0, MIDI_port, 0
3, 0, End_track
4, 0, Start_track
4, 0, Title_t, "dlviens@empire.net"
4, 0, MIDI_port, 0
4, 0, End_track
5, 0, Start_track
5, 0, MIDI_port, 0
5, 0, End_track
6, 0, Start_track
6, 0, Title_t, "Flute"
6, 0, MIDI_port, 0
6, 0, Program_c, 0, 73
6, 0, Control_c, 0, 7, 72
6, 0, Control_c, 0, 10, 60
6, 0, Control_c, 0, 11, 96
6, 0, Note_on_c, 0, 82, 60
6, 959, Note_on_c, 0, 82, 0
6, 960, Note_on_c, 0, 82, 60
6, 1919, Note_on_c, 0, 82, 0
6, 1920, Note_on_c, 0, 82, 60
6, 2879, Note_on_c, 0, 82, 0
6, 2880, Note_on_c, 0, 82, 60
6, 3839, Note_on_c, 0, 82, 0
6, 3840, Control_c, 0, 11, 96
6, 3840, Note_on_c, 0, 82, 60
6, 3860, Control_c, 0, 11, 97
6, 3880, Control_c, 0, 11, 99
6, 3900, Control_c, 0, 11, 100
6, 3920, Control_c, 0, 11, 101
6, 3940, Control_c, 0, 11, 102
6, 3960, Control_c, 0, 11, 104
6, 3980, Control_c, 0, 11, 105
6, 4000, Control_c, 0, 11, 106
6, 4020, Control_c, 0, 11, 108
6, 4040, Control_c, 0, 11, 109
6, 4060, Control_c, 0, 11, 110
6, 4080, Control_c, 0, 11, 112
6, 4100, Control_c, 0, 11, 113
6, 4120, Control_c, 0, 11, 114
6, 4140, Control_c, 0, 11, 115
6, 4160, Control_c, 0, 11, 117
6, 4180, Control_c, 0, 11, 118
6, 4200, Control_c, 0, 11, 119
6, 4220, Control_c, 0, 11, 121
6, 4240, Control_c, 0, 11, 122
6, 4260, Control_c, 0, 11, 123
6, 4280, Control_c, 0, 11, 124
6, 4300, Control_c, 0, 11, 126
6, 4320, Control_c, 0, 11, 127
6, 4340, Control_c, 0, 11, 126
6, 4360, Control_c, 0, 11, 124
6, 4380, Control_c, 0, 11, 123
6, 4400, Control_c, 0, 11, 122
6, 4420, Control_c, 0, 11, 121
6, 4440, Control_c, 0, 11, 119
6, 4460, Control_c, 0, 11, 118
6, 4480, Control_c, 0, 11, 117
6, 4500, Control_c, 0, 11, 115
6, 4520, Control_c, 0, 11, 114
6, 4540, Control_c, 0, 11, 113
6, 4560, Control_c, 0, 11, 112
6, 4580, Control_c, 0, 11, 110
6, 4600, Control_c, 0, 11, 109
6, 4620, Control_c, 0, 11, 108
6, 4640, Control_c, 0, 11, 106
6, 4660, Control_c, 0, 11, 105
6, 4680, Control_c, 0, 11, 104
6, 4700, Control_c, 0, 11, 102
6, 4720, Control_c, 0, 11, 101
6, 4740, Control_c, 0, 11, 100
6, 4760, Control_c, 0, 11, 99
6, 4780, Control_c, 0, 11, 97
6, 4787, Note_on_c, 0, 82, 0
6, 4800, Note_on_c, 0, 77, 60
6, 4919, Note_on_c, 0, 77, 0
6, 8640, Control_c, 0, 11, 127
6, 9360, Note_on_c, 0, 81, 44
6, 9479, Note_on_c, 0, 81, 0
6, 9600, Note_on_c, 0, 84, 44
6, 9719, Note_on_c, 0, 84, 0
6, 10320, Note_on_c, 0, 87, 44
6, 10439, Note_on_c, 0, 87, 0
6, 10560, Note_on_c, 0, 90, 44
6, 10679, Note_on_c, 0, 90, 0
6, 10800, Note_on_c, 0, 87, 44
6, 10919, Note_on_c, 0, 87, 0
6, 11040, Note_on_c, 0, 84, 44
6, 11159, Note_on_c, 0, 84, 0
6, 11280, Note_on_c, 0, 81, 44
6, 11399, Note_on_c, 0, 81, 0
6, 11520, Note_on_c, 0, 82, 76
6, 11550, Control_c, 0, 11, 80
6, 11628, Control_c, 0, 11, 79
6, 11705, Control_c, 0, 11, 77
6, 11783, Control_c, 0, 11, 76
6, 11860, Control_c, 0, 11, 75
6, 11938, Control_c, 0, 11, 73
6, 12015, Control_c, 0, 11, 72
6, 12093, Control_c, 0, 11, 71
6, 12170, Control_c, 0, 11, 69
6, 12248, Control_c, 0, 11, 68
6, 12325, Control_c, 0, 11, 67
6, 12403, Control_c, 0, 11, 65
6, 12479, Note_on_c, 0, 82, 0
6, 12480, Note_on_c, 0, 82, 76
6, 12480, Control_c, 0, 11, 64
6, 13439, Note_on_c, 0, 82, 0
6, 13440, Note_on_c, 0, 82, 76
6, 14399, Note_on_c, 0, 82, 0
6, 14400, Note_on_c, 0, 82, 76
6, 15359, Note_on_c, 0, 82, 0
6, 15360, Note_on_c, 0, 82, 76
6, 15360, Control_c, 0, 11, 64
6, 15380, Control_c, 0, 11, 65
6, 15400, Control_c, 0, 11, 67
6, 15420, Control_c, 0, 11, 68
6, 15440, Control_c, 0, 11, 69
6, 15460, Control_c, 0, 11, 71
6, 15480, Control_c, 0, 11, 72
6, 15500, Control_c, 0, 11, 73
6, 15520, Control_c, 0, 11, 75
6, 15540, Control_c, 0, 11, 76
6, 15560, Control_c, 0, 11, 77
6, 15580, Control_c, 0, 11, 79
6, 15600, Control_c, 0, 11, 80
6, 15620, Control_c, 0, 11, 81
6, 15640, Control_c, 0, 11, 83
6, 15660, Control_c, 0, 11, 84
6, 15680, Control_c, 0, 11, 85
6, 15700, Control_c, 0, 11, 87
6, 15720, Control_c, 0, 11, 88
6, 15740, Control_c, 0, 11, 89
6, 15760, Control_c, 0, 11, 91
6, 15780, Control_c, 0, 11, 92
6, 15800, Control_c, 0, 11, 93
6, 15820, Control_c, 0, 11, 95
6, 15840, Control_c, 0, 11, 96
6, 15860, Control_c, 0, 11, 95
6, 15880, Control_c, 0, 11, 93
6, 15900, Control_c, 0, 11, 92
6, 15920, Control_c, 0, 11, 91
6, 15940, Control_c, 0, 11, 89
6, 15960, Control_c, 0, 11, 88
6, 15980, Control_c, 0, 11, 87
6, 16000, Control_c, 0, 11, 85
6, 16020, Control_c, 0, 11, 84
6, 16040, Control_c, 0, 11, 83
6, 16060, Control_c, 0, 11, 81
6, 16080, Control_c, 0, 11, 80
6, 16100, Control_c, 0, 11, 79
6, 16120, Control_c, 0, 11, 77
6, 16140, Control_c, 0, 11, 76
6, 16160, Control_c, 0, 11, 75
6, 16180, Control_c, 0, 11, 73
6, 16200, Control_c, 0, 11, 72
6, 16220, Control_c, 0, 11, 71
6, 16240, Control_c, 0, 11, 69
6, 16260, Control_c, 0, 11, 68
6, 16280, Control_c, 0, 11, 67
6, 16300, Control_c, 0, 11, 65
6, 16439, Note_on_c, 0, 82, 0
6, 20640, Control_c, 0, 11, 127
6, 20880, Note_on_c, 0, 82, 44
6, 20999, Note_on_c, 0, 82, 0
6, 21120, Note_on_c, 0, 85, 44
6, 21239, Note_on_c, 0, 85, 0
6, 21840, Note_on_c, 0, 88, 44
6, 21959, Note_on_c, 0, 88, 0
6, 22080, Note_on_c, 0, 91, 44
6, 22199, Note_on_c, 0, 91, 0
6, 22320, Note_on_c, 0, 88, 44
6, 22439, Note_on_c, 0, 88, 0
6, 22560, Note_on_c, 0, 85, 44
6, 22679, Note_on_c, 0, 85, 0
6, 22800, Note_on_c, 0, 82, 44
6, 22919, Note_on_c, 0, 82, 0
6, 23040, Note_on_c, 0, 83, 76
6, 23070, Control_c, 0, 11, 80
6, 23999, Note_on_c, 0, 83, 0
6, 24000, Note_on_c, 0, 83, 76
6, 24947, Note_on_c, 0, 83, 0
6, 24960, Note_on_c, 0, 84, 76
6, 25907, Note_on_c, 0, 84, 0
6, 25920, Note_on_c, 0, 85, 76
6, 26867, Note_on_c, 0, 85, 0
6, 26880, Note_on_c, 0, 86, 68
6, 27587, Note_on_c, 0, 86, 0
6, 27592, Control_c, 0, 11, 127
6, 27600, Note_on_c, 0, 82, 68
6, 27630, Control_c, 0, 11, 96
6, 28547, Note_on_c, 0, 82, 0
6, 28552, Control_c, 0, 11, 127
6, 28560, Note_on_c, 0, 82, 68
6, 28590, Control_c, 0, 11, 96
6, 28799, Note_on_c, 0, 82, 0
6, 28800, Note_on_c, 0, 80, 68
6, 29747, Note_on_c, 0, 80, 0
6, 29760, Note_on_c, 0, 81, 68
6, 29760, Control_c, 0, 11, 96
6, 29820, Control_c, 0, 11, 95
6, 29880, Control_c, 0, 11, 94
6, 29940, Control_c, 0, 11, 93
6, 30000, Control_c, 0, 11, 92
6, 30060, Control_c, 0, 11, 91
6, 30120, Control_c, 0, 11, 90
6, 30180, Control_c, 0, 11, 89
6, 30240, Control_c, 0, 11, 88
6, 30300, Control_c, 0, 11, 87
6, 30360, Control_c, 0, 11, 86
6, 30420, Control_c, 0, 11, 85
6, 30480, Control_c, 0, 11, 84
6, 30540, Control_c, 0, 11, 83
6, 30600, Control_c, 0, 11, 82
6, 30660, Control_c, 0, 11, 80
6, 30719, Note_on_c, 0, 81, 0
6, 30720, Note_on_c, 0, 81, 68
6, 31799, Note_on_c, 0, 81, 0
6, 32160, Note_on_c, 0, 81, 68
6, 32279, Note_on_c, 0, 81, 0
6, 32640, Note_on_c, 0, 81, 68
6, 32759, Note_on_c, 0, 81, 0
6, 33360, Control_c, 0, 11, 127
6, 33600, Note_on_c, 0, 81, 84
6, 34487, Note_on_c, 0, 81, 0
6, 34500, Note_on_c, 0, 81, 84
6, 34551, Note_on_c, 0, 81, 0
6, 34560, Note_on_c, 0, 81, 84
6, 34679, Note_on_c, 0, 81, 0
6, 35520, Note_on_c, 0, 84, 84
6, 36407, Note_on_c, 0, 84, 0
6, 36420, Note_on_c, 0, 84, 84
6, 36471, Note_on_c, 0, 84, 0
6, 36480, Note_on_c, 0, 84, 84
6, 36659, Note_on_c, 0, 84, 0
6, 37440, Note_on_c, 0, 84, 84
6, 37619, Note_on_c, 0, 84, 0
6, 38400, Note_on_c, 0, 84, 84
6, 38579, Note_on_c, 0, 84, 0
6, 38880, Note_on_c, 0, 84, 84
6, 39059, Note_on_c, 0, 84, 0
6, 39360, Note_on_c, 0, 84, 84
6, 39539, Note_on_c, 0, 84, 0
6, 39840, Note_on_c, 0, 84, 84
6, 40019, Note_on_c, 0, 84, 0
6, 40320, Note_on_c, 0, 86, 84
6, 40409, Note_on_c, 0, 86, 0
6, 48000, Note_on_c, 0, 84, 84
6, 48179, Note_on_c, 0, 84, 0
6, 48960, Note_on_c, 0, 84, 84
6, 49139, Note_on_c, 0, 84, 0
6, 49440, Note_on_c, 0, 84, 84
6, 49619, Note_on_c, 0, 84, 0
6, 49920, Note_on_c, 0, 86, 84
6, 50099, Note_on_c, 0, 86, 0
6, 50880, Note_on_c, 0, 86, 84
6, 50999, Note_on_c, 0, 86, 0
6, 51120, Note_on_c, 0, 89, 84
6, 51239, Note_on_c, 0, 89, 0
6, 51360, Note_on_c, 0, 82, 84
6, 51479, Note_on_c, 0, 82, 0
6, 51600, Note_on_c, 0, 86, 84
6, 51719, Note_on_c, 0, 86, 0
6, 51840, Note_on_c, 0, 79, 84
6, 51959, Note_on_c, 0, 79, 0
6, 52080, Note_on_c, 0, 87, 84
6, 52199, Note_on_c, 0, 87, 0
6, 52320, Note_on_c, 0, 84, 84
6, 52439, Note_on_c, 0, 84, 0
6, 52560, Note_on_c, 0, 82, 84
6, 52679, Note_on_c, 0, 82, 0
6, 52800, Note_on_c, 0, 81, 84
6, 52919, Note_on_c, 0, 81, 0
6, 53040, Note_on_c, 0, 89, 84
6, 53159, Note_on_c, 0, 89, 0
6, 53280, Note_on_c, 0, 87, 84
6, 53399, Note_on_c, 0, 87, 0
6, 53520, Note_on_c, 0, 84, 84
6, 53639, Note_on_c, 0, 84, 0
6, 53760, Note_on_c, 0, 82, 84
6, 53879, Note_on_c, 0, 82, 0
6, 54000, Note_on_c, 0, 91, 84
6, 54239, Note_on_c, 0, 91, 0
6, 54240, Note_on_c, 0, 89, 84
6, 54479, Note_on_c, 0, 89, 0
6, 54480, Note_on_c, 0, 87, 84
6, 54719, Note_on_c, 0, 87, 0
6, 54720, Note_on_c, 0, 86, 84
6, 54959, Note_on_c, 0, 86, 0
6, 54960, Note_on_c, 0, 84, 84
6, 55199, Note_on_c, 0, 84, 0
6, 55200, Note_on_c, 0, 82, 84
6, 55439, Note_on_c, 0, 82, 0
6, 55440, Note_on_c, 0, 84, 84
6, 55664, Note_on_c, 0, 84, 0
6, 55680, Note_on_c, 0, 82, 92
6, 57599, Note_on_c, 0, 82, 0
6, 57600, Note_on_c, 0, 81, 84
6, 57839, Note_on_c, 0, 81, 0
6, 58080, Note_on_c, 0, 87, 84
6, 58319, Note_on_c, 0, 87, 0
6, 59040, Note_on_c, 0, 86, 84
6, 59279, Note_on_c, 0, 86, 0
6, 60000, Note_on_c, 0, 87, 84
6, 60239, Note_on_c, 0, 87, 0
6, 60960, Note_on_c, 0, 84, 84
6, 61199, Note_on_c, 0, 84, 0
6, 71760, Control_c, 0, 11, 64
6, 72000, Note_on_c, 0, 88, 84
6, 72944, Note_on_c, 0, 88, 0
6, 72960, Note_on_c, 0, 90, 84
6, 72960, Control_c, 0, 11, 64
6, 73067, Control_c, 0, 11, 66
6, 73173, Control_c, 0, 11, 68
6, 73280, Control_c, 0, 11, 69
6, 73387, Control_c, 0, 11, 71
6, 73493, Control_c, 0, 11, 73
6, 73600, Control_c, 0, 11, 75
6, 73707, Control_c, 0, 11, 76
6, 73813, Control_c, 0, 11, 78
6, 73920, Control_c, 0, 11, 80
6, 74027, Control_c, 0, 11, 82
6, 74133, Control_c, 0, 11, 83
6, 74240, Control_c, 0, 11, 85
6, 74347, Control_c, 0, 11, 87
6, 74453, Control_c, 0, 11, 89
6, 74560, Control_c, 0, 11, 90
6, 74667, Control_c, 0, 11, 92
6, 74773, Control_c, 0, 11, 94
6, 74864, Note_on_c, 0, 90, 0
6, 74880, Control_c, 0, 11, 96
6, 74880, Note_on_c, 0, 89, 84
6, 74987, Control_c, 0, 11, 97
6, 75093, Control_c, 0, 11, 99
6, 75200, Control_c, 0, 11, 101
6, 75307, Control_c, 0, 11, 103
6, 75413, Control_c, 0, 11, 104
6, 75520, Control_c, 0, 11, 106
6, 75627, Control_c, 0, 11, 108
6, 75733, Control_c, 0, 11, 110
6, 75840, Control_c, 0, 11, 111
6, 75947, Control_c, 0, 11, 113
6, 76053, Control_c, 0, 11, 115
6, 76160, Control_c, 0, 11, 117
6, 76267, Control_c, 0, 11, 118
6, 76373, Control_c, 0, 11, 120
6, 76480, Control_c, 0, 11, 122
6, 76587, Control_c, 0, 11, 124
6, 76693, Control_c, 0, 11, 127
6, 76784, Note_on_c, 0, 89, 0
6, 76800, Note_on_c, 0, 82, 84
6, 78704, Note_on_c, 0, 82, 0
6, 78720, Note_on_c, 0, 87, 92
6, 79649, Note_on_c, 0, 87, 0
6, 79680, Note_on_c, 0, 89, 92
6, 80609, Note_on_c, 0, 89, 0
6, 80640, Note_on_c, 0, 86, 84
6, 82544, Note_on_c, 0, 86, 0
6, 82560, Note_on_c, 0, 79, 92
6, 83489, Note_on_c, 0, 79, 0
6, 83520, Note_on_c, 0, 81, 92
6, 84449, Note_on_c, 0, 81, 0
6, 84480, Note_on_c, 0, 82, 92
6, 85409, Note_on_c, 0, 82, 0
6, 85440, Note_on_c, 0, 85, 92
6, 86369, Note_on_c, 0, 85, 0
6, 86400, Note_on_c, 0, 86, 92
6, 87329, Note_on_c, 0, 86, 0
6, 87360, Note_on_c, 0, 88, 84
6, 87584, Note_on_c, 0, 88, 0
6, 87600, Note_on_c, 0, 84, 84
6, 87824, Note_on_c, 0, 84, 0
6, 87840, Note_on_c, 0, 84, 84
6, 88064, Note_on_c, 0, 84, 0
6, 88080, Note_on_c, 0, 84, 84
6, 88304, Note_on_c, 0, 84, 0
6, 88320, Note_on_c, 0, 84, 84
6, 88544, Note_on_c, 0, 84, 0
6, 88560, Note_on_c, 0, 84, 84
6, 88784, Note_on_c, 0, 84, 0
6, 88800, Note_on_c, 0, 84, 84
6, 89024, Note_on_c, 0, 84, 0
6, 89040, Note_on_c, 0, 84, 84
6, 89264, Note_on_c, 0, 84, 0
6, 89280, Note_on_c, 0, 84, 84
6, 89504, Note_on_c, 0, 84, 0
6, 89520, Note_on_c, 0, 84, 84
6, 89744, Note_on_c, 0, 84, 0
6, 89760, Note_on_c, 0, 84, 84
6, 89984, Note_on_c, 0, 84, 0
6, 90000, Note_on_c, 0, 84, 84
6, 90224, Note_on_c, 0, 84, 0
6, 90240, Note_on_c, 0, 84, 84
6, 90479, Note_on_c, 0, 84, 0
6, 94320, Note_on_c, 0, 84, 84
6, 94784, Note_on_c, 0, 84, 0
6, 94800, Note_on_c, 0, 84, 84
6, 95264, Note_on_c, 0, 84, 0
6, 95280, Note_on_c, 0, 84, 84
6, 95744, Note_on_c, 0, 84, 0
6, 95760, Note_on_c, 0, 84, 84
6, 96224, Note_on_c, 0, 84, 0
6, 96240, Note_on_c, 0, 84, 84
6, 96704, Note_on_c, 0, 84, 0
6, 96720, Note_on_c, 0, 84, 84
6, 97184, Note_on_c, 0, 84, 0
6, 97200, Note_on_c, 0, 86, 92
6, 97679, Note_on_c, 0, 86, 0
6, 97680, Note_on_c, 0, 84, 84
6, 97904, Note_on_c, 0, 84, 0
6, 97920, Note_on_c, 0, 84, 84
6, 98159, Note_on_c, 0, 84, 0
6, 105600, Note_on_c, 0, 89, 52
6, 105719, Note_on_c, 0, 89, 0
6, 105720, Note_on_c, 0, 86, 52
6, 105839, Note_on_c, 0, 86, 0
6, 105840, Note_on_c, 0, 88, 52
6, 105959, Note_on_c, 0, 88, 0
6, 105960, Note_on_c, 0, 85, 52
6, 106064, Note_on_c, 0, 85, 0
6, 106080, Note_on_c, 0, 86, 52
6, 106259, Note_on_c, 0, 86, 0
6, 106320, Note_on_c, 0, 81, 52
6, 106499, Note_on_c, 0, 81, 0
6, 106560, Note_on_c, 0, 86, 52
6, 106739, Note_on_c, 0, 86, 0
6, 106800, Note_on_c, 0, 88, 52
6, 106979, Note_on_c, 0, 88, 0
6, 107040, Note_on_c, 0, 89, 52
6, 107219, Note_on_c, 0, 89, 0
6, 107280, Note_on_c, 0, 91, 52
6, 107459, Note_on_c, 0, 91, 0
6, 107520, Note_on_c, 0, 93, 52
6, 108239, Note_on_c, 0, 93, 0
6, 108240, Note_on_c, 0, 91, 52
6, 108479, Note_on_c, 0, 91, 0
6, 108480, Note_on_c, 0, 89, 52
6, 109199, Note_on_c, 0, 89, 0
6, 109200, Note_on_c, 0, 86, 52
6, 109439, Note_on_c, 0, 86, 0
6, 109440, Note_on_c, 0, 85, 52
6, 110159, Note_on_c, 0, 85, 0
6, 110160, Note_on_c, 0, 88, 52
6, 110351, Note_on_c, 0, 88, 0
6, 110360, Note_on_c, 0, 88, 52
6, 110399, Note_on_c, 0, 88, 0
6, 110400, Note_on_c, 0, 86, 52
6, 110639, Note_on_c, 0, 86, 0
6, 110640, Note_on_c, 0, 85, 52
6, 110879, Note_on_c, 0, 85, 0
6, 110880, Note_on_c, 0, 86, 52
6, 111119, Note_on_c, 0, 86, 0
6, 111120, Note_on_c, 0, 82, 52
6, 111359, Note_on_c, 0, 82, 0
6, 111360, Note_on_c, 0, 81, 52
6, 111599, Note_on_c, 0, 81, 0
6, 125760, Note_on_c, 0, 84, 76
6, 126119, Note_on_c, 0, 84, 0
6, 126240, Note_on_c, 0, 84, 76
6, 126599, Note_on_c, 0, 84, 0
6, 126720, Note_on_c, 0, 84, 76
6, 127079, Note_on_c, 0, 84, 0
6, 127200, Note_on_c, 0, 84, 76
6, 127559, Note_on_c, 0, 84, 0
6, 127680, Note_on_c, 0, 84, 76
6, 128039, Note_on_c, 0, 84, 0
6, 128160, Note_on_c, 0, 84, 76
6, 128519, Note_on_c, 0, 84, 0
6, 128640, Note_on_c, 0, 84, 76
6, 128879, Note_on_c, 0, 84, 0
6, 129600, Note_on_c, 0, 86, 76
6, 129839, Note_on_c, 0, 86, 0
6, 130560, Note_on_c, 0, 81, 76
6, 130799, Note_on_c, 0, 81, 0
6, 131280, Note_on_c, 0, 81, 76
6, 131504, Note_on_c, 0, 81, 0
6, 131520, Note_on_c, 0, 79, 76
6, 131744, Note_on_c, 0, 79, 0
6, 131760, Note_on_c, 0, 79, 76
6, 131984, Note_on_c, 0, 79, 0
6, 132000, Note_on_c, 0, 79, 76
6, 132224, Note_on_c, 0, 79, 0
6, 132240, Note_on_c, 0, 79, 76
6, 132464, Note_on_c, 0, 79, 0
6, 132480, Note_on_c, 0, 84, 76
6, 132719, Note_on_c, 0, 84, 0
6, 132960, Note_on_c, 0, 86, 76
6, 133199, Note_on_c, 0, 86, 0
6, 133440, Note_on_c, 0, 81, 76
6, 133679, Note_on_c, 0, 81, 0
6, 133920, Note_on_c, 0, 79, 76
6, 134159, Note_on_c, 0, 79, 0
6, 134400, Note_on_c, 0, 77, 52
6, 134639, Note_on_c, 0, 77, 0
6, 141840, Note_on_c, 0, 82, 76
6, 142064, Note_on_c, 0, 82, 0
6, 142080, Note_on_c, 0, 81, 76
6, 142319, Note_on_c, 0, 81, 0
6, 142320, Note_on_c, 0, 82, 76
6, 142544, Note_on_c, 0, 82, 0
6, 142560, Note_on_c, 0, 84, 76
6, 142739, Note_on_c, 0, 84, 0
6, 142800, Note_on_c, 0, 72, 76
6, 142979, Note_on_c, 0, 72, 0
6, 143040, Note_on_c, 0, 77, 76
6, 143759, Note_on_c, 0, 77, 0
6, 143760, Note_on_c, 0, 79, 76
6, 143984, Note_on_c, 0, 79, 0
6, 144000, Note_on_c, 0, 81, 76
6, 144239, Note_on_c, 0, 81, 0
6, 144240, Note_on_c, 0, 77, 76
6, 144464, Note_on_c, 0, 77, 0
6, 144480, Note_on_c, 0, 81, 76
6, 144659, Note_on_c, 0, 81, 0
6, 144720, Note_on_c, 0, 82, 76
6, 144899, Note_on_c, 0, 82, 0
6, 144960, Note_on_c, 0, 84, 76
6, 145679, Note_on_c, 0, 84, 0
6, 145680, Note_on_c, 0, 86, 76
6, 145904, Note_on_c, 0, 86, 0
6, 145920, Note_on_c, 0, 88, 76
6, 146159, Note_on_c, 0, 88, 0
6, 146160, Note_on_c, 0, 89, 76
6, 146384, Note_on_c, 0, 89, 0
6, 146400, Note_on_c, 0, 91, 76
6, 146579, Note_on_c, 0, 91, 0
6, 146640, Note_on_c, 0, 89, 76
6, 146819, Note_on_c, 0, 89, 0
6, 146880, Note_on_c, 0, 88, 76
6, 147599, Note_on_c, 0, 88, 0
6, 147600, Note_on_c, 0, 86, 76
6, 147824, Note_on_c, 0, 86, 0
6, 147840, Note_on_c, 0, 84, 76
6, 148079, Note_on_c, 0, 84, 0
6, 148080, Note_on_c, 0, 86, 76
6, 148304, Note_on_c, 0, 86, 0
6, 148320, Note_on_c, 0, 82, 76
6, 148499, Note_on_c, 0, 82, 0
6, 148560, Note_on_c, 0, 79, 76
6, 148739, Note_on_c, 0, 79, 0
6, 148800, Note_on_c, 0, 76, 76
6, 149759, Note_on_c, 0, 76, 0
6, 153600, Note_on_c, 0, 84, 84
6, 153839, Note_on_c, 0, 84, 0
6, 154320, Note_on_c, 0, 77, 84
6, 154544, Note_on_c, 0, 77, 0
6, 154560, Note_on_c, 0, 77, 84
6, 154799, Note_on_c, 0, 77, 0
6, 155040, Note_on_c, 0, 76, 84
6, 155279, Note_on_c, 0, 76, 0
6, 157440, Note_on_c, 0, 84, 84
6, 157679, Note_on_c, 0, 84, 0
6, 158160, Note_on_c, 0, 77, 84
6, 158384, Note_on_c, 0, 77, 0
6, 158400, Note_on_c, 0, 77, 84
6, 158639, Note_on_c, 0, 77, 0
6, 158880, Note_on_c, 0, 76, 84
6, 159119, Note_on_c, 0, 76, 0
6, 161280, Note_on_c, 0, 86, 76
6, 162224, Note_on_c, 0, 86, 0
6, 162240, Note_on_c, 0, 84, 76
6, 163184, Note_on_c, 0, 84, 0
6, 163200, Note_on_c, 0, 84, 76
6, 164144, Note_on_c, 0, 84, 0
6, 164160, Note_on_c, 0, 84, 76
6, 165104, Note_on_c, 0, 84, 0
6, 165120, Note_on_c, 0, 89, 84
6, 167024, Note_on_c, 0, 89, 0
6, 167040, Note_on_c, 0, 89, 84
6, 167984, Note_on_c, 0, 89, 0
6, 168000, Note_on_c, 0, 88, 84
6, 168944, Note_on_c, 0, 88, 0
6, 168960, Note_on_c, 0, 89, 84
6, 169199, Note_on_c, 0, 89, 0
6, 172080, Note_on_c, 0, 84, 76
6, 172544, Note_on_c, 0, 84, 0
6, 172560, Note_on_c, 0, 84, 76
6, 172739, Note_on_c, 0, 84, 0
6, 172800, Note_on_c, 0, 81, 76
6, 172979, Note_on_c, 0, 81, 0
6, 175920, Note_on_c, 0, 84, 76
6, 176384, Note_on_c, 0, 84, 0
6, 176400, Note_on_c, 0, 84, 76
6, 176624, Note_on_c, 0, 84, 0
6, 176640, Note_on_c, 0, 81, 76
6, 176879, Note_on_c, 0, 81, 0
6, 177840, Note_on_c, 0, 84, 76
6, 178304, Note_on_c, 0, 84, 0
6, 178320, Note_on_c, 0, 84, 76
6, 178544, Note_on_c, 0, 84, 0
6, 178560, Note_on_c, 0, 77, 84
6, 180407, Note_on_c, 0, 77, 0
6, 180420, Note_on_c, 0, 77, 84
6, 180471, Note_on_c, 0, 77, 0
6, 180480, Note_on_c, 0, 81, 84
6, 180719, Note_on_c, 0, 81, 0
6, 182400, Note_on_c, 0, 81, 84
6, 184247, Note_on_c, 0, 81, 0
6, 184260, Note_on_c, 0, 81, 84
6, 184311, Note_on_c, 0, 81, 0
6, 184320, Note_on_c, 0, 84, 84
6, 184559, Note_on_c, 0, 84, 0
6, 185280, Note_on_c, 0, 84, 84
6, 185459, Note_on_c, 0, 84, 0
6, 186240, Note_on_c, 0, 84, 84
6, 186419, Note_on_c, 0, 84, 0
6, 186720, Note_on_c, 0, 84, 84
6, 186899, Note_on_c, 0, 84, 0
6, 187200, Note_on_c, 0, 84, 84
6, 187379, Note_on_c, 0, 84, 0
6, 187680, Note_on_c, 0, 84, 84
6, 187859, Note_on_c, 0, 84, 0
6, 188160, Note_on_c, 0, 86, 84
6, 188339, Note_on_c, 0, 86, 0
6, 195840, Note_on_c, 0, 84, 84
6, 196019, Note_on_c, 0, 84, 0
6, 196800, Note_on_c, 0, 84, 84
6, 196979, Note_on_c, 0, 84, 0
6, 197280, Note_on_c, 0, 84, 84
6, 197459, Note_on_c, 0, 84, 0
6, 197760, Note_on_c, 0, 86, 84
6, 197939, Note_on_c, 0, 86, 0
6, 198720, Note_on_c, 0, 86, 84
6, 198839, Note_on_c, 0, 86, 0
6, 198960, Note_on_c, 0, 89, 84
6, 199079, Note_on_c, 0, 89, 0
6, 199200, Note_on_c, 0, 82, 84
6, 199319, Note_on_c, 0, 82, 0
6, 199440, Note_on_c, 0, 86, 84
6, 199559, Note_on_c, 0, 86, 0
6, 199680, Note_on_c, 0, 79, 84
6, 199799, Note_on_c, 0, 79, 0
6, 199920, Note_on_c, 0, 87, 84
6, 200039, Note_on_c, 0, 87, 0
6, 200160, Note_on_c, 0, 84, 84
6, 200279, Note_on_c, 0, 84, 0
6, 200400, Note_on_c, 0, 82, 84
6, 200519, Note_on_c, 0, 82, 0
6, 200640, Note_on_c, 0, 81, 84
6, 200759, Note_on_c, 0, 81, 0
6, 200880, Note_on_c, 0, 89, 84
6, 200999, Note_on_c, 0, 89, 0
6, 201120, Note_on_c, 0, 87, 84
6, 201239, Note_on_c, 0, 87, 0
6, 201360, Note_on_c, 0, 84, 84
6, 201479, Note_on_c, 0, 84, 0
6, 201600, Note_on_c, 0, 82, 84
6, 201719, Note_on_c, 0, 82, 0
6, 201840, Note_on_c, 0, 91, 84
6, 202079, Note_on_c, 0, 91, 0
6, 202080, Note_on_c, 0, 89, 84
6, 202319, Note_on_c, 0, 89, 0
6, 202320, Note_on_c, 0, 87, 84
6, 202559, Note_on_c, 0, 87, 0
6, 202560, Note_on_c, 0, 86, 84
6, 202799, Note_on_c, 0, 86, 0
6, 202800, Note_on_c, 0, 84, 84
6, 203039, Note_on_c, 0, 84, 0
6, 203040, Note_on_c, 0, 82, 84
6, 203279, Note_on_c, 0, 82, 0
6, 203280, Note_on_c, 0, 84, 84
6, 203504, Note_on_c, 0, 84, 0
6, 203520, Note_on_c, 0, 82, 92
6, 205439, Note_on_c, 0, 82, 0
6, 205440, Note_on_c, 0, 81, 84
6, 205679, Note_on_c, 0, 81, 0
6, 205920, Note_on_c, 0, 87, 84
6, 206159, Note_on_c, 0, 87, 0
6, 206880, Note_on_c, 0, 86, 84
6, 207119, Note_on_c, 0, 86, 0
6, 207840, Note_on_c, 0, 87, 84
6, 208079, Note_on_c, 0, 87, 0
6, 208800, Note_on_c, 0, 84, 84
6, 209039, Note_on_c, 0, 84, 0
6, 219600, Control_c, 0, 11, 64
6, 219840, Note_on_c, 0, 88, 84
6, 220784, Note_on_c, 0, 88, 0
6, 220800, Note_on_c, 0, 90, 84
6, 220800, Control_c, 0, 11, 64
6, 220907, Control_c, 0, 11, 66
6, 221013, Control_c, 0, 11, 68
6, 221120, Control_c, 0, 11, 69
6, 221227, Control_c, 0, 11, 71
6, 221333, Control_c, 0, 11, 73
6, 221440, Control_c, 0, 11, 75
6, 221547, Control_c, 0, 11, 76
6, 221653, Control_c, 0, 11, 78
6, 221760, Control_c, 0, 11, 80
6, 221867, Control_c, 0, 11, 82
6, 221973, Control_c, 0, 11, 83
6, 222080, Control_c, 0, 11, 85
6, 222187, Control_c, 0, 11, 87
6, 222293, Control_c, 0, 11, 89
6, 222400, Control_c, 0, 11, 90
6, 222507, Control_c, 0, 11, 92
6, 222613, Control_c, 0, 11, 94
6, 222704, Note_on_c, 0, 90, 0
6, 222720, Note_on_c, 0, 89, 84
6, 222720, Control_c, 0, 11, 96
6, 222827, Control_c, 0, 11, 97
6, 222933, Control_c, 0, 11, 99
6, 223040, Control_c, 0, 11, 101
6, 223147, Control_c, 0, 11, 103
6, 223253, Control_c, 0, 11, 104
6, 223360, Control_c, 0, 11, 106
6, 223467, Control_c, 0, 11, 108
6, 223573, Control_c, 0, 11, 110
6, 223680, Control_c, 0, 11, 111
6, 223787, Control_c, 0, 11, 113
6, 223893, Control_c, 0, 11, 115
6, 224000, Control_c, 0, 11, 117
6, 224107, Control_c, 0, 11, 118
6, 224213, Control_c, 0, 11, 120
6, 224320, Control_c, 0, 11, 122
6, 224427, Control_c, 0, 11, 124
6, 224533, Control_c, 0, 11, 127
6, 224624, Note_on_c, 0, 89, 0
6, 224640, Note_on_c, 0, 82, 84
6, 226544, Note_on_c, 0, 82, 0
6, 226560, Note_on_c, 0, 87, 92
6, 227489, Note_on_c, 0, 87, 0
6, 227520, Note_on_c, 0, 89, 92
6, 228449, Note_on_c, 0, 89, 0
6, 228480, Note_on_c, 0, 86, 84
6, 230384, Note_on_c, 0, 86, 0
6, 230400, Note_on_c, 0, 79, 92
6, 231329, Note_on_c, 0, 79, 0
6, 231360, Note_on_c, 0, 81, 92
6, 232289, Note_on_c, 0, 81, 0
6, 232320, Note_on_c, 0, 82, 92
6, 233249, Note_on_c, 0, 82, 0
6, 233280, Note_on_c, 0, 85, 92
6, 234209, Note_on_c, 0, 85, 0
6, 234240, Note_on_c, 0, 86, 92
6, 235169, Note_on_c, 0, 86, 0
6, 235200, Note_on_c, 0, 88, 84
6, 235424, Note_on_c, 0, 88, 0
6, 235440, Note_on_c, 0, 84, 84
6, 235664, Note_on_c, 0, 84, 0
6, 235680, Note_on_c, 0, 84, 84
6, 235904, Note_on_c, 0, 84, 0
6, 235920, Note_on_c, 0, 84, 84
6, 236144, Note_on_c, 0, 84, 0
6, 236160, Note_on_c, 0, 84, 84
6, 236384, Note_on_c, 0, 84, 0
6, 236400, Note_on_c, 0, 84, 84
6, 236624, Note_on_c, 0, 84, 0
6, 236640, Note_on_c, 0, 84, 84
6, 236864, Note_on_c, 0, 84, 0
6, 236880, Note_on_c, 0, 84, 84
6, 237104, Note_on_c, 0, 84, 0
6, 237120, Note_on_c, 0, 84, 84
6, 237344, Note_on_c, 0, 84, 0
6, 237360, Note_on_c, 0, 84, 84
6, 237584, Note_on_c, 0, 84, 0
6, 237600, Note_on_c, 0, 84, 84
6, 237824, Note_on_c, 0, 84, 0
6, 237840, Note_on_c, 0, 84, 84
6, 238064, Note_on_c, 0, 84, 0
6, 238080, Note_on_c, 0, 84, 84
6, 238319, Note_on_c, 0, 84, 0
6, 242160, Note_on_c, 0, 84, 84
6, 242624, Note_on_c, 0, 84, 0
6, 242640, Note_on_c, 0, 84, 84
6, 243104, Note_on_c, 0, 84, 0
6, 243120, Note_on_c, 0, 84, 84
6, 243584, Note_on_c, 0, 84, 0
6, 243600, Note_on_c, 0, 84, 84
6, 244064, Note_on_c, 0, 84, 0
6, 244080, Note_on_c, 0, 84, 84
6, 244544, Note_on_c, 0, 84, 0
6, 244560, Note_on_c, 0, 84, 84
6, 245024, Note_on_c, 0, 84, 0
6, 245040, Note_on_c, 0, 86, 92
6, 245519, Note_on_c, 0, 86, 0
6, 245520, Note_on_c, 0, 84, 84
6, 245744, Note_on_c, 0, 84, 0
6, 245760, Note_on_c, 0, 84, 84
6, 245999, Note_on_c, 0, 84, 0
6, 253440, Note_on_c, 0, 89, 52
6, 253559, Note_on_c, 0, 89, 0
6, 253560, Note_on_c, 0, 86, 52
6, 253679, Note_on_c, 0, 86, 0
6, 253680, Note_on_c, 0, 88, 52
6, 253799, Note_on_c, 0, 88, 0
6, 253800, Note_on_c, 0, 85, 52
6, 253904, Note_on_c, 0, 85, 0
6, 253920, Note_on_c, 0, 86, 52
6, 254099, Note_on_c, 0, 86, 0
6, 254160, Note_on_c, 0, 81, 52
6, 254339, Note_on_c, 0, 81, 0
6, 254400, Note_on_c, 0, 86, 52
6, 254579, Note_on_c, 0, 86, 0
6, 254640, Note_on_c, 0, 88, 52
6, 254819, Note_on_c, 0, 88, 0
6, 254880, Note_on_c, 0, 89, 52
6, 255059, Note_on_c, 0, 89, 0
6, 255120, Note_on_c, 0, 91, 52
6, 255299, Note_on_c, 0, 91, 0
6, 255360, Note_on_c, 0, 93, 52
6, 256079, Note_on_c, 0, 93, 0
6, 256080, Note_on_c, 0, 91, 52
6, 256319, Note_on_c, 0, 91, 0
6, 256320, Note_on_c, 0, 89, 52
6, 257039, Note_on_c, 0, 89, 0
6, 257040, Note_on_c, 0, 86, 52
6, 257279, Note_on_c, 0, 86, 0
6, 257280, Note_on_c, 0, 85, 52
6, 257999, Note_on_c, 0, 85, 0
6, 258000, Note_on_c, 0, 88, 52
6, 258191, Note_on_c, 0, 88, 0
6, 258200, Note_on_c, 0, 88, 52
6, 258239, Note_on_c, 0, 88, 0
6, 258240, Note_on_c, 0, 86, 52
6, 258479, Note_on_c, 0, 86, 0
6, 258480, Note_on_c, 0, 85, 52
6, 258719, Note_on_c, 0, 85, 0
6, 258720, Note_on_c, 0, 86, 52
6, 258959, Note_on_c, 0, 86, 0
6, 258960, Note_on_c, 0, 82, 52
6, 259199, Note_on_c, 0, 82, 0
6, 259200, Note_on_c, 0, 81, 52
6, 259439, Note_on_c, 0, 81, 0
6, 273600, Note_on_c, 0, 84, 76
6, 273959, Note_on_c, 0, 84, 0
6, 274080, Note_on_c, 0, 84, 76
6, 274439, Note_on_c, 0, 84, 0
6, 274560, Note_on_c, 0, 84, 76
6, 274919, Note_on_c, 0, 84, 0
6, 275040, Note_on_c, 0, 84, 76
6, 275399, Note_on_c, 0, 84, 0
6, 275520, Note_on_c, 0, 84, 76
6, 275879, Note_on_c, 0, 84, 0
6, 276000, Note_on_c, 0, 84, 76
6, 276359, Note_on_c, 0, 84, 0
6, 276480, Note_on_c, 0, 84, 76
6, 276719, Note_on_c, 0, 84, 0
6, 277440, Note_on_c, 0, 86, 76
6, 277679, Note_on_c, 0, 86, 0
6, 278400, Note_on_c, 0, 81, 76
6, 278639, Note_on_c, 0, 81, 0
6, 279120, Note_on_c, 0, 81, 76
6, 279344, Note_on_c, 0, 81, 0
6, 279360, Note_on_c, 0, 79, 76
6, 279584, Note_on_c, 0, 79, 0
6, 279600, Note_on_c, 0, 79, 76
6, 279824, Note_on_c, 0, 79, 0
6, 279840, Note_on_c, 0, 79, 76
6, 280064, Note_on_c, 0, 79, 0
6, 280080, Note_on_c, 0, 79, 76
6, 280304, Note_on_c, 0, 79, 0
6, 280320, Note_on_c, 0, 84, 76
6, 280559, Note_on_c, 0, 84, 0
6, 280800, Note_on_c, 0, 86, 76
6, 281039, Note_on_c, 0, 86, 0
6, 281280, Note_on_c, 0, 81, 76
6, 281519, Note_on_c, 0, 81, 0
6, 281760, Note_on_c, 0, 79, 76
6, 281999, Note_on_c, 0, 79, 0
6, 282240, Note_on_c, 0, 77, 52
6, 282479, Note_on_c, 0, 77, 0
6, 289680, Note_on_c, 0, 82, 76
6, 289904, Note_on_c, 0, 82, 0
6, 289920, Note_on_c, 0, 81, 76
6, 290159, Note_on_c, 0, 81, 0
6, 290160, Note_on_c, 0, 82, 76
6, 290384, Note_on_c, 0, 82, 0
6, 290400, Note_on_c, 0, 84, 76
6, 290579, Note_on_c, 0, 84, 0
6, 290640, Note_on_c, 0, 72, 76
6, 290819, Note_on_c, 0, 72, 0
6, 290880, Note_on_c, 0, 77, 76
6, 291599, Note_on_c, 0, 77, 0
6, 291600, Note_on_c, 0, 79, 76
6, 291824, Note_on_c, 0, 79, 0
6, 291840, Note_on_c, 0, 81, 76
6, 292079, Note_on_c, 0, 81, 0
6, 292080, Note_on_c, 0, 77, 76
6, 292304, Note_on_c, 0, 77, 0
6, 292320, Note_on_c, 0, 81, 76
6, 292499, Note_on_c, 0, 81, 0
6, 292560, Note_on_c, 0, 82, 76
6, 292739, Note_on_c, 0, 82, 0
6, 292800, Note_on_c, 0, 84, 76
6, 293519, Note_on_c, 0, 84, 0
6, 293520, Note_on_c, 0, 86, 76
6, 293744, Note_on_c, 0, 86, 0
6, 293760, Note_on_c, 0, 88, 76
6, 293999, Note_on_c, 0, 88, 0
6, 294000, Note_on_c, 0, 89, 76
6, 294224, Note_on_c, 0, 89, 0
6, 294240, Note_on_c, 0, 91, 76
6, 294419, Note_on_c, 0, 91, 0
6, 294480, Note_on_c, 0, 89, 76
6, 294659, Note_on_c, 0, 89, 0
6, 294720, Note_on_c, 0, 88, 76
6, 295439, Note_on_c, 0, 88, 0
6, 295440, Note_on_c, 0, 86, 76
6, 295664, Note_on_c, 0, 86, 0
6, 295680, Note_on_c, 0, 84, 76
6, 295919, Note_on_c, 0, 84, 0
6, 295920, Note_on_c, 0, 86, 76
6, 296144, Note_on_c, 0, 86, 0
6, 296160, Note_on_c, 0, 82, 76
6, 296339, Note_on_c, 0, 82, 0
6, 296400, Note_on_c, 0, 79, 76
6, 296579, Note_on_c, 0, 79, 0
6, 296640, Note_on_c, 0, 76, 76
6, 297599, Note_on_c, 0, 76, 0
6, 301440, Note_on_c, 0, 84, 84
6, 301679, Note_on_c, 0, 84, 0
6, 302160, Note_on_c, 0, 77, 84
6, 302384, Note_on_c, 0, 77, 0
6, 302400, Note_on_c, 0, 77, 84
6, 302639, Note_on_c, 0, 77, 0
6, 302880, Note_on_c, 0, 76, 84
6, 303119, Note_on_c, 0, 76, 0
6, 305280, Note_on_c, 0, 84, 84
6, 305519, Note_on_c, 0, 84, 0
6, 306000, Note_on_c, 0, 77, 84
6, 306224, Note_on_c, 0, 77, 0
6, 306240, Note_on_c, 0, 77, 84
6, 306479, Note_on_c, 0, 77, 0
6, 306720, Note_on_c, 0, 76, 84
6, 306959, Note_on_c, 0, 76, 0
6, 309120, Note_on_c, 0, 86, 76
6, 310064, Note_on_c, 0, 86, 0
6, 310080, Note_on_c, 0, 84, 76
6, 311024, Note_on_c, 0, 84, 0
6, 311040, Note_on_c, 0, 84, 76
6, 311984, Note_on_c, 0, 84, 0
6, 312000, Note_on_c, 0, 84, 76
6, 312944, Note_on_c, 0, 84, 0
6, 312960, Note_on_c, 0, 89, 84
6, 314864, Note_on_c, 0, 89, 0
6, 314880, Note_on_c, 0, 89, 84
6, 315824, Note_on_c, 0, 89, 0
6, 315840, Note_on_c, 0, 88, 84
6, 316784, Note_on_c, 0, 88, 0
6, 316800, Note_on_c, 0, 89, 84
6, 317039, Note_on_c, 0, 89, 0
6, 319920, Note_on_c, 0, 84, 76
6, 320384, Note_on_c, 0, 84, 0
6, 320400, Note_on_c, 0, 84, 76
6, 320579, Note_on_c, 0, 84, 0
6, 320640, Note_on_c, 0, 81, 76
6, 320819, Note_on_c, 0, 81, 0
6, 323760, Note_on_c, 0, 84, 76
6, 324224, Note_on_c, 0, 84, 0
6, 324240, Note_on_c, 0, 84, 76
6, 324464, Note_on_c, 0, 84, 0
6, 324480, Note_on_c, 0, 77, 76
6, 324719, Note_on_c, 0, 77, 0
6, 324960, Note_on_c, 0, 79, 76
6, 325199, Note_on_c, 0, 79, 0
6, 325440, Note_on_c, 0, 81, 76
6, 325679, Note_on_c, 0, 81, 0
6, 325920, Note_on_c, 0, 82, 76
6, 326159, Note_on_c, 0, 82, 0
6, 326400, Note_on_c, 0, 84, 76
6, 326639, Note_on_c, 0, 84, 0
6, 330120, Note_on_c, 0, 77, 76
6, 330159, Note_on_c, 0, 77, 0
6, 330160, Note_on_c, 0, 79, 76
6, 330199, Note_on_c, 0, 79, 0
6, 330200, Note_on_c, 0, 81, 76
6, 330231, Note_on_c, 0, 81, 0
6, 330240, Note_on_c, 0, 82, 76
6, 330479, Note_on_c, 0, 82, 0
6, 333960, Note_on_c, 0, 76, 76
6, 333999, Note_on_c, 0, 76, 0
6, 334000, Note_on_c, 0, 77, 76
6, 334039, Note_on_c, 0, 77, 0
6, 334040, Note_on_c, 0, 79, 76
6, 334071, Note_on_c, 0, 79, 0
6, 334080, Note_on_c, 0, 81, 76
6, 334319, Note_on_c, 0, 81, 0
6, 336000, Note_on_c, 0, 91, 84
6, 337889, Note_on_c, 0, 91, 0
6, 337920, Note_on_c, 0, 89, 84
6, 339809, Note_on_c, 0, 89, 0
6, 339840, Note_on_c, 0, 84, 84
6, 341729, Note_on_c, 0, 84, 0
6, 341760, Note_on_c, 0, 81, 52
6, 341999, Note_on_c, 0, 81, 0
6, 353600, Control_c, 0, 11, 88
6, 353640, Note_on_c, 0, 76, 76
6, 353680, Control_c, 0, 11, 90
6, 353699, Note_on_c, 0, 76, 0
6, 353700, Note_on_c, 0, 78, 76
6, 353751, Note_on_c, 0, 78, 0
6, 353760, Control_c, 0, 11, 92
6, 353760, Note_on_c, 0, 79, 76
6, 353840, Control_c, 0, 11, 94
6, 353920, Control_c, 0, 11, 96
6, 353939, Note_on_c, 0, 79, 0
6, 354000, Control_c, 0, 11, 98
6, 354080, Control_c, 0, 11, 100
6, 354120, Note_on_c, 0, 79, 76
6, 354160, Control_c, 0, 11, 102
6, 354179, Note_on_c, 0, 79, 0
6, 354180, Note_on_c, 0, 81, 76
6, 354231, Note_on_c, 0, 81, 0
6, 354240, Note_on_c, 0, 83, 76
6, 354240, Control_c, 0, 11, 104
6, 354320, Control_c, 0, 11, 105
6, 354400, Control_c, 0, 11, 107
6, 354419, Note_on_c, 0, 83, 0
6, 354480, Control_c, 0, 11, 109
6, 354560, Control_c, 0, 11, 111
6, 354600, Note_on_c, 0, 83, 76
6, 354640, Control_c, 0, 11, 113
6, 354659, Note_on_c, 0, 83, 0
6, 354660, Note_on_c, 0, 85, 76
6, 354711, Note_on_c, 0, 85, 0
6, 354720, Note_on_c, 0, 86, 76
6, 354720, Control_c, 0, 11, 115
6, 354800, Control_c, 0, 11, 117
6, 354880, Control_c, 0, 11, 119
6, 354899, Note_on_c, 0, 86, 0
6, 354960, Control_c, 0, 11, 121
6, 355040, Control_c, 0, 11, 123
6, 355080, Note_on_c, 0, 86, 76
6, 355120, Control_c, 0, 11, 127
6, 355139, Note_on_c, 0, 86, 0
6, 355140, Note_on_c, 0, 88, 76
6, 355191, Note_on_c, 0, 88, 0
6, 355200, Note_on_c, 0, 90, 76
6, 355319, Note_on_c, 0, 90, 0
6, 355440, Note_on_c, 0, 86, 52
6, 355559, Note_on_c, 0, 86, 0
6, 355680, Note_on_c, 0, 81, 52
6, 355799, Note_on_c, 0, 81, 0
6, 355920, Note_on_c, 0, 86, 52
6, 356039, Note_on_c, 0, 86, 0
6, 356160, Note_on_c, 0, 78, 52
6, 356279, Note_on_c, 0, 78, 0
6, 356400, Note_on_c, 0, 81, 52
6, 356519, Note_on_c, 0, 81, 0
6, 356640, Note_on_c, 0, 74, 52
6, 356759, Note_on_c, 0, 74, 0
6, 356880, Note_on_c, 0, 78, 52
6, 356999, Note_on_c, 0, 78, 0
6, 357120, Note_on_c, 0, 71, 52
6, 357239, Note_on_c, 0, 71, 0
6, 357360, Note_on_c, 0, 79, 52
6, 357479, Note_on_c, 0, 79, 0
6, 357600, Note_on_c, 0, 76, 52
6, 357719, Note_on_c, 0, 76, 0
6, 357840, Note_on_c, 0, 74, 52
6, 357959, Note_on_c, 0, 74, 0
6, 358080, Note_on_c, 0, 73, 52
6, 358199, Note_on_c, 0, 73, 0
6, 358320, Note_on_c, 0, 81, 52
6, 358439, Note_on_c, 0, 81, 0
6, 358560, Note_on_c, 0, 79, 52
6, 358679, Note_on_c, 0, 79, 0
6, 358800, Note_on_c, 0, 76, 52
6, 358919, Note_on_c, 0, 76, 0
6, 359040, Note_on_c, 0, 74, 52
6, 359279, Note_on_c, 0, 74, 0
6, 363360, Note_on_c, 0, 79, 52
6, 364319, Note_on_c, 0, 79, 0
6, 364320, Note_on_c, 0, 81, 52
6, 364559, Note_on_c, 0, 81, 0
6, 364560, Note_on_c, 0, 82, 52
6, 364751, Note_on_c, 0, 82, 0
6, 364760, Note_on_c, 0, 86, 52
6, 364799, Note_on_c, 0, 86, 0
6, 364800, Note_on_c, 0, 84, 52
6, 365279, Note_on_c, 0, 84, 0
6, 365280, Note_on_c, 0, 82, 52
6, 365519, Note_on_c, 0, 82, 0
6, 365520, Note_on_c, 0, 84, 52
6, 365744, Note_on_c, 0, 84, 0
6, 365760, Note_on_c, 0, 81, 52
6, 366239, Note_on_c, 0, 81, 0
6, 366240, Note_on_c, 0, 86, 52
6, 366704, Note_on_c, 0, 86, 0
6, 366720, Note_on_c, 0, 79, 52
6, 366959, Note_on_c, 0, 79, 0
6, 370560, Note_on_c, 0, 91, 52
6, 370679, Note_on_c, 0, 91, 0
6, 370800, Note_on_c, 0, 87, 52
6, 370919, Note_on_c, 0, 87, 0
6, 371040, Note_on_c, 0, 82, 52
6, 371159, Note_on_c, 0, 82, 0
6, 371280, Note_on_c, 0, 87, 52
6, 371399, Note_on_c, 0, 87, 0
6, 371520, Note_on_c, 0, 79, 52
6, 371639, Note_on_c, 0, 79, 0
6, 371760, Note_on_c, 0, 82, 52
6, 371879, Note_on_c, 0, 82, 0
6, 372000, Note_on_c, 0, 75, 52
6, 372119, Note_on_c, 0, 75, 0
6, 372240, Note_on_c, 0, 79, 52
6, 372359, Note_on_c, 0, 79, 0
6, 372480, Note_on_c, 0, 72, 52
6, 372599, Note_on_c, 0, 72, 0
6, 372720, Note_on_c, 0, 80, 52
6, 372839, Note_on_c, 0, 80, 0
6, 372960, Note_on_c, 0, 77, 52
6, 373079, Note_on_c, 0, 77, 0
6, 373200, Note_on_c, 0, 75, 52
6, 373319, Note_on_c, 0, 75, 0
6, 373440, Note_on_c, 0, 74, 52
6, 373559, Note_on_c, 0, 74, 0
6, 373680, Note_on_c, 0, 82, 52
6, 373799, Note_on_c, 0, 82, 0
6, 373920, Note_on_c, 0, 80, 52
6, 374039, Note_on_c, 0, 80, 0
6, 374160, Note_on_c, 0, 77, 52
6, 374279, Note_on_c, 0, 77, 0
6, 374400, Note_on_c, 0, 75, 52
6, 374519, Note_on_c, 0, 75, 0
6, 375120, Control_c, 0, 11, 64
6, 375360, Control_c, 0, 11, 64
6, 375360, Note_on_c, 0, 87, 84
6, 375440, Control_c, 0, 11, 66
6, 375520, Control_c, 0, 11, 68
6, 375600, Control_c, 0, 11, 69
6, 375680, Control_c, 0, 11, 71
6, 375760, Control_c, 0, 11, 73
6, 375840, Control_c, 0, 11, 75
6, 375920, Control_c, 0, 11, 76
6, 376000, Control_c, 0, 11, 78
6, 376080, Control_c, 0, 11, 80
6, 376160, Control_c, 0, 11, 82
6, 376240, Control_c, 0, 11, 83
6, 376320, Control_c, 0, 11, 85
6, 376400, Control_c, 0, 11, 87
6, 376480, Control_c, 0, 11, 89
6, 376560, Control_c, 0, 11, 90
6, 376640, Control_c, 0, 11, 92
6, 376720, Control_c, 0, 11, 94
6, 376800, Control_c, 0, 11, 96
6, 376880, Control_c, 0, 11, 97
6, 376960, Control_c, 0, 11, 99
6, 377040, Control_c, 0, 11, 101
6, 377120, Control_c, 0, 11, 103
6, 377200, Control_c, 0, 11, 104
6, 377264, Note_on_c, 0, 87, 0
6, 377280, Control_c, 0, 11, 106
6, 377280, Note_on_c, 0, 86, 84
6, 377360, Control_c, 0, 11, 108
6, 377440, Control_c, 0, 11, 110
6, 377520, Control_c, 0, 11, 111
6, 377600, Control_c, 0, 11, 113
6, 377680, Control_c, 0, 11, 115
6, 377760, Control_c, 0, 11, 117
6, 377840, Control_c, 0, 11, 118
6, 377920, Control_c, 0, 11, 120
6, 378000, Control_c, 0, 11, 122
6, 378080, Control_c, 0, 11, 124
6, 378160, Control_c, 0, 11, 127
6, 378224, Note_on_c, 0, 86, 0
6, 378240, Note_on_c, 0, 87, 84
6, 380144, Note_on_c, 0, 87, 0
6, 380160, Note_on_c, 0, 87, 84
6, 381104, Note_on_c, 0, 87, 0
6, 381120, Note_on_c, 0, 87, 84
6, 381359, Note_on_c, 0, 87, 0
6, 381600, Note_on_c, 0, 87, 84
6, 381839, Note_on_c, 0, 87, 0
6, 382080, Note_on_c, 0, 87, 84
6, 382319, Note_on_c, 0, 87, 0
6, 385920, Note_on_c, 0, 86, 84
6, 387824, Note_on_c, 0, 86, 0
6, 387840, Note_on_c, 0, 86, 84
6, 388784, Note_on_c, 0, 86, 0
6, 388800, Note_on_c, 0, 86, 84
6, 389039, Note_on_c, 0, 86, 0
6, 389280, Note_on_c, 0, 86, 84
6, 389519, Note_on_c, 0, 86, 0
6, 389760, Note_on_c, 0, 86, 84
6, 389999, Note_on_c, 0, 86, 0
6, 393600, Note_on_c, 0, 85, 84
6, 395504, Note_on_c, 0, 85, 0
6, 395520, Note_on_c, 0, 85, 84
6, 396464, Note_on_c, 0, 85, 0
6, 396480, Note_on_c, 0, 85, 84
6, 396719, Note_on_c, 0, 85, 0
6, 396960, Note_on_c, 0, 85, 84
6, 397199, Note_on_c, 0, 85, 0
6, 397440, Note_on_c, 0, 85, 76
6, 397679, Note_on_c, 0, 85, 0
6, 398400, Note_on_c, 0, 85, 76
6, 398639, Note_on_c, 0, 85, 0
6, 399360, Note_on_c, 0, 85, 76
6, 399599, Note_on_c, 0, 85, 0
6, 400320, Note_on_c, 0, 85, 76
6, 400559, Note_on_c, 0, 85, 0
6, 401280, Note_on_c, 0, 85, 76
6, 401519, Note_on_c, 0, 85, 0
6, 403200, Note_on_c, 0, 85, 52
6, 403439, Note_on_c, 0, 85, 0
6, 405120, Note_on_c, 0, 85, 44
6, 405359, Note_on_c, 0, 85, 0
6, 438240, Note_on_c, 0, 73, 44
6, 438479, Note_on_c, 0, 73, 0
6, 438480, Note_on_c, 0, 76, 44
6, 438719, Note_on_c, 0, 76, 0
6, 438720, Note_on_c, 0, 82, 44
6, 438959, Note_on_c, 0, 82, 0
6, 438960, Note_on_c, 0, 85, 44
6, 439184, Note_on_c, 0, 85, 0
6, 439200, Note_on_c, 0, 85, 44
6, 439424, Note_on_c, 0, 85, 0
6, 439440, Note_on_c, 0, 85, 44
6, 439664, Note_on_c, 0, 85, 0
6, 439680, Note_on_c, 0, 86, 44
6, 439919, Note_on_c, 0, 86, 0
6, 466560, Note_on_c, 0, 86, 84
6, 469304, Note_on_c, 0, 86, 0
6, 469320, Note_on_c, 0, 82, 84
6, 469379, Note_on_c, 0, 82, 0
6, 469380, Note_on_c, 0, 84, 84
6, 469431, Note_on_c, 0, 84, 0
6, 469440, Note_on_c, 0, 86, 84
6, 469619, Note_on_c, 0, 86, 0
6, 469800, Note_on_c, 0, 82, 84
6, 469859, Note_on_c, 0, 82, 0
6, 469860, Note_on_c, 0, 84, 84
6, 469911, Note_on_c, 0, 84, 0
6, 469920, Note_on_c, 0, 86, 84
6, 470099, Note_on_c, 0, 86, 0
6, 470280, Note_on_c, 0, 82, 84
6, 470339, Note_on_c, 0, 82, 0
6, 470340, Note_on_c, 0, 84, 84
6, 470391, Note_on_c, 0, 84, 0
6, 470400, Note_on_c, 0, 86, 84
6, 470579, Note_on_c, 0, 86, 0
6, 471360, Note_on_c, 0, 86, 84
6, 471479, Note_on_c, 0, 86, 0
6, 471600, Note_on_c, 0, 89, 84
6, 471719, Note_on_c, 0, 89, 0
6, 471840, Note_on_c, 0, 82, 84
6, 471959, Note_on_c, 0, 82, 0
6, 472080, Note_on_c, 0, 86, 84
6, 472199, Note_on_c, 0, 86, 0
6, 472320, Note_on_c, 0, 79, 84
6, 472439, Note_on_c, 0, 79, 0
6, 472560, Note_on_c, 0, 87, 84
6, 472679, Note_on_c, 0, 87, 0
6, 472800, Note_on_c, 0, 84, 84
6, 472919, Note_on_c, 0, 84, 0
6, 473040, Note_on_c, 0, 82, 84
6, 473159, Note_on_c, 0, 82, 0
6, 473280, Note_on_c, 0, 81, 84
6, 473399, Note_on_c, 0, 81, 0
6, 473520, Note_on_c, 0, 89, 84
6, 473639, Note_on_c, 0, 89, 0
6, 473760, Note_on_c, 0, 87, 84
6, 473879, Note_on_c, 0, 87, 0
6, 474000, Note_on_c, 0, 84, 84
6, 474119, Note_on_c, 0, 84, 0
6, 474240, Note_on_c, 0, 82, 76
6, 474360, Control_c, 0, 11, 80
6, 476144, Note_on_c, 0, 82, 0
6, 476160, Note_on_c, 0, 79, 76
6, 477104, Note_on_c, 0, 79, 0
6, 477120, Note_on_c, 0, 77, 76
6, 478064, Note_on_c, 0, 77, 0
6, 478080, Note_on_c, 0, 77, 76
6, 478319, Note_on_c, 0, 77, 0
6, 478320, Note_on_c, 0, 79, 72
6, 478559, Note_on_c, 0, 79, 0
6, 478560, Note_on_c, 0, 77, 72
6, 478799, Note_on_c, 0, 77, 0
6, 478800, Note_on_c, 0, 75, 72
6, 479039, Note_on_c, 0, 75, 0
6, 479040, Note_on_c, 0, 74, 72
6, 479279, Note_on_c, 0, 74, 0
6, 479280, Note_on_c, 0, 72, 72
6, 479519, Note_on_c, 0, 72, 0
6, 479520, Note_on_c, 0, 70, 72
6, 479759, Note_on_c, 0, 70, 0
6, 479760, Note_on_c, 0, 72, 72
6, 479984, Note_on_c, 0, 72, 0
6, 480000, Note_on_c, 0, 70, 72
6, 481919, Note_on_c, 0, 70, 0
6, 481920, Note_on_c, 0, 69, 72
6, 482144, Note_on_c, 0, 69, 0
6, 482152, Control_c, 0, 11, 64
6, 482160, Note_on_c, 0, 87, 84
6, 482399, Note_on_c, 0, 87, 0
6, 482400, Note_on_c, 0, 84, 84
6, 482639, Note_on_c, 0, 84, 0
6, 482640, Note_on_c, 0, 86, 84
6, 482879, Note_on_c, 0, 86, 0
6, 482880, Note_on_c, 0, 83, 84
6, 482880, Control_c, 0, 11, 64
6, 482960, Control_c, 0, 11, 69
6, 483040, Control_c, 0, 11, 75
6, 483119, Note_on_c, 0, 83, 0
6, 483120, Note_on_c, 0, 84, 84
6, 483120, Control_c, 0, 11, 80
6, 483200, Control_c, 0, 11, 85
6, 483280, Control_c, 0, 11, 90
6, 483359, Note_on_c, 0, 84, 0
6, 483360, Note_on_c, 0, 87, 84
6, 483360, Control_c, 0, 11, 96
6, 483440, Control_c, 0, 11, 101
6, 483520, Control_c, 0, 11, 106
6, 483599, Note_on_c, 0, 87, 0
6, 483600, Control_c, 0, 11, 111
6, 483600, Note_on_c, 0, 81, 84
6, 483680, Control_c, 0, 11, 117
6, 483760, Control_c, 0, 11, 122
6, 483824, Note_on_c, 0, 81, 0
6, 483825, Control_c, 0, 11, 127
6, 483840, Note_on_c, 0, 82, 84
6, 485744, Note_on_c, 0, 82, 0
6, 485760, Note_on_c, 0, 87, 92
6, 486689, Note_on_c, 0, 87, 0
6, 486720, Note_on_c, 0, 89, 92
6, 487649, Note_on_c, 0, 89, 0
6, 487680, Note_on_c, 0, 86, 92
6, 489089, Note_on_c, 0, 86, 0
6, 489120, Note_on_c, 0, 91, 84
6, 489584, Note_on_c, 0, 91, 0
6, 489600, Note_on_c, 0, 87, 92
6, 490529, Note_on_c, 0, 87, 0
6, 490560, Note_on_c, 0, 92, 92
6, 491489, Note_on_c, 0, 92, 0
6, 491520, Note_on_c, 0, 89, 92
6, 492929, Note_on_c, 0, 89, 0
6, 492960, Note_on_c, 0, 82, 92
6, 493409, Note_on_c, 0, 82, 0
6, 493440, Note_on_c, 0, 79, 84
6, 493904, Note_on_c, 0, 79, 0
6, 493920, Note_on_c, 0, 84, 92
6, 494369, Note_on_c, 0, 84, 0
6, 494400, Note_on_c, 0, 81, 84
6, 494864, Note_on_c, 0, 81, 0
6, 494880, Note_on_c, 0, 86, 92
6, 495329, Note_on_c, 0, 86, 0
6, 495360, Note_on_c, 0, 82, 84
6, 495824, Note_on_c, 0, 82, 0
6, 495840, Note_on_c, 0, 87, 92
6, 496289, Note_on_c, 0, 87, 0
6, 496320, Note_on_c, 0, 84, 84
6, 496784, Note_on_c, 0, 84, 0
6, 496800, Note_on_c, 0, 89, 92
6, 497249, Note_on_c, 0, 89, 0
6, 497280, Note_on_c, 0, 86, 84
6, 499664, Note_on_c, 0, 86, 0
6, 499680, Note_on_c, 0, 89, 84
6, 500144, Note_on_c, 0, 89, 0
6, 500160, Note_on_c, 0, 86, 84
6, 500624, Note_on_c, 0, 86, 0
6, 500640, Note_on_c, 0, 82, 84
6, 501104, Note_on_c, 0, 82, 0
6, 501120, Note_on_c, 0, 77, 84
6, 501359, Note_on_c, 0, 77, 0
6, 504960, Note_on_c, 0, 77, 84
6, 505139, Note_on_c, 0, 77, 0
6, 505200, Note_on_c, 0, 89, 84
6, 505664, Note_on_c, 0, 89, 0
6, 505680, Note_on_c, 0, 89, 84
6, 506144, Note_on_c, 0, 89, 0
6, 506160, Note_on_c, 0, 89, 84
6, 506624, Note_on_c, 0, 89, 0
6, 506640, Note_on_c, 0, 89, 84
6, 507104, Note_on_c, 0, 89, 0
6, 507120, Note_on_c, 0, 89, 84
6, 507584, Note_on_c, 0, 89, 0
6, 507600, Note_on_c, 0, 89, 84
6, 508064, Note_on_c, 0, 89, 0
6, 508080, Note_on_c, 0, 88, 92
6, 508559, Note_on_c, 0, 88, 0
6, 508560, Note_on_c, 0, 89, 84
6, 508784, Note_on_c, 0, 89, 0
6, 508800, Note_on_c, 0, 89, 84
6, 509039, Note_on_c, 0, 89, 0
6, 522240, Note_on_c, 0, 86, 52
6, 522479, Note_on_c, 0, 86, 0
6, 522480, Note_on_c, 0, 85, 52
6, 522719, Note_on_c, 0, 85, 0
6, 522720, Note_on_c, 0, 86, 52
6, 522959, Note_on_c, 0, 86, 0
6, 522960, Note_on_c, 0, 84, 52
6, 523199, Note_on_c, 0, 84, 0
6, 523200, Note_on_c, 0, 82, 52
6, 523439, Note_on_c, 0, 82, 0
6, 523440, Note_on_c, 0, 81, 52
6, 523679, Note_on_c, 0, 81, 0
6, 523680, Note_on_c, 0, 82, 52
6, 523919, Note_on_c, 0, 82, 0
6, 523920, Note_on_c, 0, 79, 52
6, 524111, Note_on_c, 0, 79, 0
6, 524120, Note_on_c, 0, 79, 52
6, 524159, Note_on_c, 0, 79, 0
6, 524160, Note_on_c, 0, 78, 52
6, 524399, Note_on_c, 0, 78, 0
6, 524400, Note_on_c, 0, 77, 52
6, 524639, Note_on_c, 0, 77, 0
6, 524640, Note_on_c, 0, 78, 52
6, 524879, Note_on_c, 0, 78, 0
6, 524880, Note_on_c, 0, 81, 52
6, 525119, Note_on_c, 0, 81, 0
6, 525120, Note_on_c, 0, 79, 52
6, 525359, Note_on_c, 0, 79, 0
6, 525360, Note_on_c, 0, 78, 52
6, 525599, Note_on_c, 0, 78, 0
6, 525600, Note_on_c, 0, 79, 52
6, 525839, Note_on_c, 0, 79, 0
6, 525840, Note_on_c, 0, 75, 52
6, 526064, Note_on_c, 0, 75, 0
6, 526078, Control_c, 0, 11, 64
6, 526080, Control_c, 0, 11, 64
6, 526080, Note_on_c, 0, 74, 76
6, 526373, Control_c, 0, 11, 66
6, 526439, Note_on_c, 0, 74, 0
6, 526560, Note_on_c, 0, 75, 76
6, 526667, Control_c, 0, 11, 68
6, 526919, Note_on_c, 0, 75, 0
6, 526960, Control_c, 0, 11, 69
6, 527040, Note_on_c, 0, 72, 76
6, 527253, Control_c, 0, 11, 71
6, 527399, Note_on_c, 0, 72, 0
6, 527520, Note_on_c, 0, 76, 76
6, 527547, Control_c, 0, 11, 73
6, 527840, Control_c, 0, 11, 75
6, 527879, Note_on_c, 0, 76, 0
6, 528000, Note_on_c, 0, 77, 76
6, 528133, Control_c, 0, 11, 76
6, 528359, Note_on_c, 0, 77, 0
6, 528427, Control_c, 0, 11, 78
6, 528480, Note_on_c, 0, 74, 76
6, 528720, Control_c, 0, 11, 80
6, 528839, Note_on_c, 0, 74, 0
6, 528960, Note_on_c, 0, 77, 76
6, 529013, Control_c, 0, 11, 82
6, 529307, Control_c, 0, 11, 83
6, 529319, Note_on_c, 0, 77, 0
6, 529440, Note_on_c, 0, 79, 76
6, 529600, Control_c, 0, 11, 85
6, 529799, Note_on_c, 0, 79, 0
6, 529893, Control_c, 0, 11, 87
6, 529920, Note_on_c, 0, 75, 76
6, 530187, Control_c, 0, 11, 89
6, 530279, Note_on_c, 0, 75, 0
6, 530400, Note_on_c, 0, 79, 76
6, 530480, Control_c, 0, 11, 90
6, 530759, Note_on_c, 0, 79, 0
6, 530773, Control_c, 0, 11, 92
6, 530880, Note_on_c, 0, 81, 76
6, 531067, Control_c, 0, 11, 94
6, 531239, Note_on_c, 0, 81, 0
6, 531360, Control_c, 0, 11, 96
6, 531360, Note_on_c, 0, 77, 76
6, 531653, Control_c, 0, 11, 97
6, 531719, Note_on_c, 0, 77, 0
6, 531840, Note_on_c, 0, 81, 76
6, 531947, Control_c, 0, 11, 99
6, 532199, Note_on_c, 0, 81, 0
6, 532240, Control_c, 0, 11, 101
6, 532320, Note_on_c, 0, 82, 76
6, 532533, Control_c, 0, 11, 103
6, 532679, Note_on_c, 0, 82, 0
6, 532800, Note_on_c, 0, 79, 76
6, 532827, Control_c, 0, 11, 104
6, 533120, Control_c, 0, 11, 106
6, 533159, Note_on_c, 0, 79, 0
6, 533280, Note_on_c, 0, 83, 76
6, 533413, Control_c, 0, 11, 108
6, 533639, Note_on_c, 0, 83, 0
6, 533707, Control_c, 0, 11, 110
6, 533760, Note_on_c, 0, 84, 76
6, 534000, Control_c, 0, 11, 111
6, 534119, Note_on_c, 0, 84, 0
6, 534240, Note_on_c, 0, 81, 76
6, 534293, Control_c, 0, 11, 113
6, 534587, Control_c, 0, 11, 115
6, 534599, Note_on_c, 0, 81, 0
6, 534720, Note_on_c, 0, 84, 76
6, 534880, Control_c, 0, 11, 117
6, 535079, Note_on_c, 0, 84, 0
6, 535173, Control_c, 0, 11, 118
6, 535200, Note_on_c, 0, 86, 76
6, 535467, Control_c, 0, 11, 120
6, 535559, Note_on_c, 0, 86, 0
6, 535680, Note_on_c, 0, 87, 76
6, 535760, Control_c, 0, 11, 122
6, 536039, Note_on_c, 0, 87, 0
6, 536053, Control_c, 0, 11, 124
6, 536160, Note_on_c, 0, 88, 76
6, 536347, Control_c, 0, 11, 127
6, 536519, Note_on_c, 0, 88, 0
6, 536640, Note_on_c, 0, 89, 76
6, 536999, Note_on_c, 0, 89, 0
6, 537120, Note_on_c, 0, 89, 76
6, 537479, Note_on_c, 0, 89, 0
6, 537600, Note_on_c, 0, 89, 76
6, 537959, Note_on_c, 0, 89, 0
6, 538080, Note_on_c, 0, 89, 76
6, 538439, Note_on_c, 0, 89, 0
6, 538560, Note_on_c, 0, 89, 76
6, 538919, Note_on_c, 0, 89, 0
6, 539040, Note_on_c, 0, 89, 76
6, 539399, Note_on_c, 0, 89, 0
6, 539520, Note_on_c, 0, 89, 76
6, 540224, Note_on_c, 0, 89, 0
6, 540240, Note_on_c, 0, 86, 76
6, 540464, Note_on_c, 0, 86, 0
6, 540480, Note_on_c, 0, 91, 76
6, 541184, Note_on_c, 0, 91, 0
6, 541200, Note_on_c, 0, 87, 76
6, 541424, Note_on_c, 0, 87, 0
6, 541440, Note_on_c, 0, 86, 76
6, 542144, Note_on_c, 0, 86, 0
6, 542160, Note_on_c, 0, 86, 76
6, 542384, Note_on_c, 0, 86, 0
6, 542400, Note_on_c, 0, 84, 76
6, 542624, Note_on_c, 0, 84, 0
6, 542640, Note_on_c, 0, 84, 76
6, 542864, Note_on_c, 0, 84, 0
6, 542880, Note_on_c, 0, 84, 76
6, 542939, Note_on_c, 0, 84, 0
6, 542940, Note_on_c, 0, 86, 76
6, 542999, Note_on_c, 0, 86, 0
6, 543000, Note_on_c, 0, 84, 76
6, 543059, Note_on_c, 0, 84, 0
6, 543060, Note_on_c, 0, 86, 76
6, 543119, Note_on_c, 0, 86, 0
6, 543120, Note_on_c, 0, 84, 76
6, 543179, Note_on_c, 0, 84, 0
6, 543180, Note_on_c, 0, 86, 76
6, 543239, Note_on_c, 0, 86, 0
6, 543240, Note_on_c, 0, 82, 76
6, 543299, Note_on_c, 0, 82, 0
6, 543300, Note_on_c, 0, 84, 76
6, 543351, Note_on_c, 0, 84, 0
6, 543360, Note_on_c, 0, 89, 76
6, 543599, Note_on_c, 0, 89, 0
6, 543600, Note_on_c, 0, 86, 76
6, 543824, Note_on_c, 0, 86, 0
6, 543840, Note_on_c, 0, 91, 76
6, 544079, Note_on_c, 0, 91, 0
6, 544080, Note_on_c, 0, 87, 76
6, 544304, Note_on_c, 0, 87, 0
6, 544320, Note_on_c, 0, 86, 76
6, 544544, Note_on_c, 0, 86, 0
6, 544560, Note_on_c, 0, 86, 76
6, 544784, Note_on_c, 0, 86, 0
6, 544800, Note_on_c, 0, 84, 76
6, 544859, Note_on_c, 0, 84, 0
6, 544860, Note_on_c, 0, 86, 76
6, 544919, Note_on_c, 0, 86, 0
6, 544920, Note_on_c, 0, 84, 76
6, 544979, Note_on_c, 0, 84, 0
6, 544980, Note_on_c, 0, 86, 76
6, 545039, Note_on_c, 0, 86, 0
6, 545040, Note_on_c, 0, 84, 76
6, 545099, Note_on_c, 0, 84, 0
6, 545100, Note_on_c, 0, 86, 76
6, 545159, Note_on_c, 0, 86, 0
6, 545160, Note_on_c, 0, 82, 76
6, 545219, Note_on_c, 0, 82, 0
6, 545220, Note_on_c, 0, 84, 76
6, 545271, Note_on_c, 0, 84, 0
6, 545280, Note_on_c, 0, 82, 52
6, 545519, Note_on_c, 0, 82, 0
6, 552720, Note_on_c, 0, 89, 76
6, 552944, Note_on_c, 0, 89, 0
6, 552960, Note_on_c, 0, 86, 76
6, 553199, Note_on_c, 0, 86, 0
6, 553200, Note_on_c, 0, 87, 76
6, 553424, Note_on_c, 0, 87, 0
6, 553440, Note_on_c, 0, 89, 76
6, 553619, Note_on_c, 0, 89, 0
6, 553680, Note_on_c, 0, 77, 76
6, 553859, Note_on_c, 0, 77, 0
6, 553920, Note_on_c, 0, 82, 76
6, 554624, Note_on_c, 0, 82, 0
6, 554640, Note_on_c, 0, 84, 76
6, 554819, Note_on_c, 0, 84, 0
6, 554880, Note_on_c, 0, 86, 76
6, 555119, Note_on_c, 0, 86, 0
6, 555120, Note_on_c, 0, 82, 76
6, 555344, Note_on_c, 0, 82, 0
6, 555360, Note_on_c, 0, 86, 76
6, 555539, Note_on_c, 0, 86, 0
6, 555600, Note_on_c, 0, 87, 76
6, 555779, Note_on_c, 0, 87, 0
6, 555840, Note_on_c, 0, 89, 76
6, 556544, Note_on_c, 0, 89, 0
6, 556560, Note_on_c, 0, 89, 76
6, 556784, Note_on_c, 0, 89, 0
6, 556800, Note_on_c, 0, 89, 76
6, 557024, Note_on_c, 0, 89, 0
6, 557040, Note_on_c, 0, 89, 76
6, 557264, Note_on_c, 0, 89, 0
6, 557280, Note_on_c, 0, 89, 76
6, 557504, Note_on_c, 0, 89, 0
6, 557520, Note_on_c, 0, 89, 76
6, 557744, Note_on_c, 0, 89, 0
6, 557760, Note_on_c, 0, 89, 76
6, 558464, Note_on_c, 0, 89, 0
6, 558480, Note_on_c, 0, 91, 76
6, 558704, Note_on_c, 0, 91, 0
6, 558720, Note_on_c, 0, 89, 76
6, 558959, Note_on_c, 0, 89, 0
6, 558960, Note_on_c, 0, 91, 76
6, 559184, Note_on_c, 0, 91, 0
6, 559200, Note_on_c, 0, 87, 76
6, 559379, Note_on_c, 0, 87, 0
6, 559440, Note_on_c, 0, 84, 76
6, 559619, Note_on_c, 0, 84, 0
6, 559680, Note_on_c, 0, 81, 76
6, 560639, Note_on_c, 0, 81, 0
6, 564480, Note_on_c, 0, 89, 84
6, 564719, Note_on_c, 0, 89, 0
6, 565200, Note_on_c, 0, 82, 84
6, 565424, Note_on_c, 0, 82, 0
6, 565440, Note_on_c, 0, 82, 84
6, 565679, Note_on_c, 0, 82, 0
6, 565920, Note_on_c, 0, 81, 84
6, 566159, Note_on_c, 0, 81, 0
6, 568320, Note_on_c, 0, 89, 84
6, 568559, Note_on_c, 0, 89, 0
6, 569040, Note_on_c, 0, 82, 84
6, 569264, Note_on_c, 0, 82, 0
6, 569280, Note_on_c, 0, 82, 84
6, 569519, Note_on_c, 0, 82, 0
6, 569760, Note_on_c, 0, 81, 84
6, 569999, Note_on_c, 0, 81, 0
6, 572160, Note_on_c, 0, 91, 76
6, 573104, Note_on_c, 0, 91, 0
6, 573120, Note_on_c, 0, 89, 76
6, 574064, Note_on_c, 0, 89, 0
6, 574080, Note_on_c, 0, 89, 76
6, 575024, Note_on_c, 0, 89, 0
6, 575040, Note_on_c, 0, 89, 76
6, 575984, Note_on_c, 0, 89, 0
6, 576000, Note_on_c, 0, 85, 84
6, 577904, Note_on_c, 0, 85, 0
6, 577920, Note_on_c, 0, 86, 92
6, 578849, Note_on_c, 0, 86, 0
6, 578880, Note_on_c, 0, 84, 84
6, 579824, Note_on_c, 0, 84, 0
6, 579840, Note_on_c, 0, 82, 84
6, 580064, Note_on_c, 0, 82, 0
6, 580080, Note_on_c, 0, 86, 84
6, 580544, Note_on_c, 0, 86, 0
6, 580560, Note_on_c, 0, 87, 84
6, 581024, Note_on_c, 0, 87, 0
6, 581040, Note_on_c, 0, 89, 84
6, 581504, Note_on_c, 0, 89, 0
6, 581520, Note_on_c, 0, 82, 84
6, 581984, Note_on_c, 0, 82, 0
6, 582000, Note_on_c, 0, 84, 84
6, 582464, Note_on_c, 0, 84, 0
6, 582480, Note_on_c, 0, 86, 84
6, 582944, Note_on_c, 0, 86, 0
6, 582960, Note_on_c, 0, 77, 84
6, 583424, Note_on_c, 0, 77, 0
6, 583440, Note_on_c, 0, 81, 84
6, 583619, Note_on_c, 0, 81, 0
6, 583680, Note_on_c, 0, 82, 84
6, 583859, Note_on_c, 0, 82, 0
6, 583920, Note_on_c, 0, 86, 84
6, 584384, Note_on_c, 0, 86, 0
6, 584400, Note_on_c, 0, 87, 84
6, 584864, Note_on_c, 0, 87, 0
6, 584880, Note_on_c, 0, 89, 84
6, 585344, Note_on_c, 0, 89, 0
6, 585360, Note_on_c, 0, 82, 84
6, 585824, Note_on_c, 0, 82, 0
6, 585840, Note_on_c, 0, 84, 84
6, 586304, Note_on_c, 0, 84, 0
6, 586320, Note_on_c, 0, 86, 84
6, 586784, Note_on_c, 0, 86, 0
6, 586800, Note_on_c, 0, 77, 84
6, 587264, Note_on_c, 0, 77, 0
6, 587280, Note_on_c, 0, 81, 84
6, 587459, Note_on_c, 0, 81, 0
6, 587520, Note_on_c, 0, 82, 84
6, 587699, Note_on_c, 0, 82, 0
6, 587760, Note_on_c, 0, 84, 84
6, 588224, Note_on_c, 0, 84, 0
6, 588240, Note_on_c, 0, 86, 84
6, 588704, Note_on_c, 0, 86, 0
6, 588720, Note_on_c, 0, 77, 84
6, 589184, Note_on_c, 0, 77, 0
6, 589200, Note_on_c, 0, 81, 84
6, 589424, Note_on_c, 0, 81, 0
6, 589440, Note_on_c, 0, 81, 84
6, 591287, Note_on_c, 0, 81, 0
6, 591300, Note_on_c, 0, 81, 84
6, 591351, Note_on_c, 0, 81, 0
6, 591360, Note_on_c, 0, 84, 84
6, 591599, Note_on_c, 0, 84, 0
6, 592260, Note_on_c, 0, 84, 84
6, 592311, Note_on_c, 0, 84, 0
6, 592320, Note_on_c, 0, 84, 84
6, 592559, Note_on_c, 0, 84, 0
6, 593220, Note_on_c, 0, 84, 84
6, 593271, Note_on_c, 0, 84, 0
6, 593280, Note_on_c, 0, 84, 84
6, 593459, Note_on_c, 0, 84, 0
6, 593760, Note_on_c, 0, 84, 84
6, 593939, Note_on_c, 0, 84, 0
6, 594240, Note_on_c, 0, 84, 84
6, 594419, Note_on_c, 0, 84, 0
6, 594720, Note_on_c, 0, 84, 84
6, 594899, Note_on_c, 0, 84, 0
6, 595200, Note_on_c, 0, 86, 84
6, 595439, Note_on_c, 0, 86, 0
6, 596160, Note_on_c, 0, 82, 84
6, 596399, Note_on_c, 0, 82, 0
6, 597120, Note_on_c, 0, 82, 84
6, 597359, Note_on_c, 0, 82, 0
6, 598080, Note_on_c, 0, 82, 84
6, 598319, Note_on_c, 0, 82, 0
6, 599040, Note_on_c, 0, 86, 84
6, 599279, Note_on_c, 0, 86, 0
6, 600000, Note_on_c, 0, 86, 84
6, 600239, Note_on_c, 0, 86, 0
6, 600960, Note_on_c, 0, 86, 84
6, 601199, Note_on_c, 0, 86, 0
6, 601920, Note_on_c, 0, 86, 84
6, 602159, Note_on_c, 0, 86, 0
6, 604800, Note_on_c, 0, 81, 76
6, 605744, Note_on_c, 0, 81, 0
6, 605760, Note_on_c, 0, 81, 76
6, 606647, Note_on_c, 0, 81, 0
6, 606660, Note_on_c, 0, 81, 76
6, 606711, Note_on_c, 0, 81, 0
6, 606720, Note_on_c, 0, 82, 76
6, 606944, Note_on_c, 0, 82, 0
6, 606960, Note_on_c, 0, 91, 52
6, 607199, Note_on_c, 0, 91, 0
6, 607200, Note_on_c, 0, 89, 52
6, 607439, Note_on_c, 0, 89, 0
6, 607440, Note_on_c, 0, 87, 52
6, 607679, Note_on_c, 0, 87, 0
6, 607680, Note_on_c, 0, 86, 52
6, 607919, Note_on_c, 0, 86, 0
6, 607920, Note_on_c, 0, 84, 52
6, 608159, Note_on_c, 0, 84, 0
6, 608160, Note_on_c, 0, 82, 52
6, 608399, Note_on_c, 0, 82, 0
6, 608400, Note_on_c, 0, 84, 52
6, 608624, Note_on_c, 0, 84, 0
6, 608640, Note_on_c, 0, 81, 76
6, 609584, Note_on_c, 0, 81, 0
6, 609600, Note_on_c, 0, 81, 76
6, 610487, Note_on_c, 0, 81, 0
6, 610500, Note_on_c, 0, 81, 76
6, 610551, Note_on_c, 0, 81, 0
6, 610560, Note_on_c, 0, 82, 52
6, 610799, Note_on_c, 0, 82, 0
6, 614339, Control_c, 0, 11, 95
6, 614400, Note_on_c, 0, 82, 84
6, 614461, Control_c, 0, 11, 96
6, 614583, Control_c, 0, 11, 97
6, 614705, Control_c, 0, 11, 98
6, 614827, Control_c, 0, 11, 99
6, 614949, Control_c, 0, 11, 100
6, 615070, Control_c, 0, 11, 101
6, 615192, Control_c, 0, 11, 102
6, 615314, Control_c, 0, 11, 103
6, 615436, Control_c, 0, 11, 104
6, 615558, Control_c, 0, 11, 105
6, 615680, Control_c, 0, 11, 106
6, 615802, Control_c, 0, 11, 107
6, 615924, Control_c, 0, 11, 108
6, 616046, Control_c, 0, 11, 109
6, 616168, Control_c, 0, 11, 110
6, 616290, Control_c, 0, 11, 111
6, 616304, Note_on_c, 0, 82, 0
6, 616320, Note_on_c, 0, 84, 84
6, 616411, Control_c, 0, 11, 112
6, 616533, Control_c, 0, 11, 113
6, 616655, Control_c, 0, 11, 114
6, 616777, Control_c, 0, 11, 115
6, 616899, Control_c, 0, 11, 116
6, 617021, Control_c, 0, 11, 117
6, 617143, Control_c, 0, 11, 118
6, 617265, Control_c, 0, 11, 119
6, 617387, Control_c, 0, 11, 120
6, 617509, Control_c, 0, 11, 121
6, 617630, Control_c, 0, 11, 122
6, 617752, Control_c, 0, 11, 123
6, 617874, Control_c, 0, 11, 124
6, 617996, Control_c, 0, 11, 125
6, 618118, Control_c, 0, 11, 127
6, 618224, Note_on_c, 0, 84, 0
6, 618240, Note_on_c, 0, 82, 84
6, 620159, Note_on_c, 0, 82, 0
6, 620160, Note_on_c, 0, 82, 84
6, 622007, Note_on_c, 0, 82, 0
6, 622020, Note_on_c, 0, 82, 84
6, 622071, Note_on_c, 0, 82, 0
6, 622080, Note_on_c, 0, 82, 84
6, 622319, Note_on_c, 0, 82, 0
6, 622560, Note_on_c, 0, 82, 84
6, 622799, Note_on_c, 0, 82, 0
6, 623040, Note_on_c, 0, 82, 84
6, 623279, Note_on_c, 0, 82, 0
6, 624000, Note_on_c, 0, 82, 84
6, 624239, Note_on_c, 0, 82, 0
6, 624960, Note_on_c, 0, 70, 84
6, 625199, Note_on_c, 0, 70, 0
6, 625199, End_track
7, 0, Start_track
7, 0, Title_t, "Oboe"
7, 0, MIDI_port, 0
7, 0, Program_c, 1, 68
7, 0, Control_c, 1, 7, 80
7, 0, Control_c, 1, 10, 70
7, 0, Control_c, 1, 11, 127
7, 9360, Note_on_c, 1, 72, 44
7, 9360, Note_on_c, 1, 75, 44
7, 9479, Note_on_c, 1, 72, 0
7, 9479, Note_on_c, 1, 75, 0
7, 9600, Note_on_c, 1, 72, 44
7, 9600, Note_on_c, 1, 75, 44
7, 9719, Note_on_c, 1, 72, 0
7, 9719, Note_on_c, 1, 75, 0
7, 10320, Note_on_c, 1, 75, 44
7, 10320, Note_on_c, 1, 72, 44
7, 10439, Note_on_c, 1, 75, 0
7, 10439, Note_on_c, 1, 72, 0
7, 10560, Note_on_c, 1, 75, 44
7, 10560, Note_on_c, 1, 72, 44
7, 10679, Note_on_c, 1, 75, 0
7, 10679, Note_on_c, 1, 72, 0
7, 10800, Note_on_c, 1, 72, 44
7, 10800, Note_on_c, 1, 75, 44
7, 10919, Note_on_c, 1, 72, 0
7, 10919, Note_on_c, 1, 75, 0
7, 11040, Note_on_c, 1, 75, 44
7, 11040, Note_on_c, 1, 72, 44
7, 11159, Note_on_c, 1, 75, 0
7, 11159, Note_on_c, 1, 72, 0
7, 11280, Note_on_c, 1, 72, 44
7, 11280, Note_on_c, 1, 75, 44
7, 11399, Note_on_c, 1, 72, 0
7, 11399, Note_on_c, 1, 75, 0
7, 20880, Note_on_c, 1, 73, 44
7, 20880, Note_on_c, 1, 76, 44
7, 20999, Note_on_c, 1, 73, 0
7, 20999, Note_on_c, 1, 76, 0
7, 21120, Note_on_c, 1, 73, 44
7, 21120, Note_on_c, 1, 76, 44
7, 21239, Note_on_c, 1, 73, 0
7, 21239, Note_on_c, 1, 76, 0
7, 21840, Note_on_c, 1, 76, 44
7, 21840, Note_on_c, 1, 73, 44
7, 21959, Note_on_c, 1, 76, 0
7, 21959, Note_on_c, 1, 73, 0
7, 22080, Note_on_c, 1, 73, 44
7, 22080, Note_on_c, 1, 76, 44
7, 22199, Note_on_c, 1, 73, 0
7, 22199, Note_on_c, 1, 76, 0
7, 22320, Note_on_c, 1, 76, 44
7, 22320, Note_on_c, 1, 73, 44
7, 22439, Note_on_c, 1, 76, 0
7, 22439, Note_on_c, 1, 73, 0
7, 22560, Note_on_c, 1, 76, 44
7, 22560, Note_on_c, 1, 73, 44
7, 22679, Note_on_c, 1, 76, 0
7, 22679, Note_on_c, 1, 73, 0
7, 22800, Note_on_c, 1, 76, 44
7, 22800, Note_on_c, 1, 73, 44
7, 22919, Note_on_c, 1, 76, 0
7, 22919, Note_on_c, 1, 73, 0
7, 23040, Note_on_c, 1, 71, 76
7, 23070, Control_c, 1, 11, 80
7, 23999, Note_on_c, 1, 71, 0
7, 24000, Note_on_c, 1, 71, 76
7, 24947, Note_on_c, 1, 71, 0
7, 24960, Note_on_c, 1, 72, 76
7, 25907, Note_on_c, 1, 72, 0
7, 25920, Note_on_c, 1, 73, 76
7, 26867, Note_on_c, 1, 73, 0
7, 26880, Note_on_c, 1, 74, 76
7, 27587, Note_on_c, 1, 74, 0
7, 27592, Control_c, 1, 11, 127
7, 27600, Note_on_c, 1, 74, 68
7, 27600, Note_on_c, 1, 77, 68
7, 27630, Control_c, 1, 11, 96
7, 28559, Note_on_c, 1, 74, 0
7, 28559, Note_on_c, 1, 77, 0
7, 33360, Control_c, 1, 11, 127
7, 33600, Note_on_c, 1, 75, 84
7, 33600, Note_on_c, 1, 72, 84
7, 34487, Note_on_c, 1, 75, 0
7, 34487, Note_on_c, 1, 72, 0
7, 34500, Note_on_c, 1, 75, 84
7, 34500, Note_on_c, 1, 72, 84
7, 34551, Note_on_c, 1, 75, 0
7, 34551, Note_on_c, 1, 72, 0
7, 34560, Note_on_c, 1, 72, 84
7, 34560, Note_on_c, 1, 75, 84
7, 34679, Note_on_c, 1, 72, 0
7, 34679, Note_on_c, 1, 75, 0
7, 35520, Note_on_c, 1, 81, 84
7, 35520, Note_on_c, 1, 75, 84
7, 36407, Note_on_c, 1, 81, 0
7, 36407, Note_on_c, 1, 75, 0
7, 36420, Note_on_c, 1, 81, 84
7, 36420, Note_on_c, 1, 75, 84
7, 36471, Note_on_c, 1, 81, 0
7, 36471, Note_on_c, 1, 75, 0
7, 36480, Note_on_c, 1, 75, 84
7, 36480, Note_on_c, 1, 81, 84
7, 36659, Note_on_c, 1, 75, 0
7, 36659, Note_on_c, 1, 81, 0
7, 37440, Note_on_c, 1, 81, 84
7, 37440, Note_on_c, 1, 75, 84
7, 37619, Note_on_c, 1, 81, 0
7, 37619, Note_on_c, 1, 75, 0
7, 38400, Note_on_c, 1, 81, 84
7, 38400, Note_on_c, 1, 75, 84
7, 38579, Note_on_c, 1, 81, 0
7, 38579, Note_on_c, 1, 75, 0
7, 38880, Note_on_c, 1, 75, 84
7, 38880, Note_on_c, 1, 81, 84
7, 39059, Note_on_c, 1, 75, 0
7, 39059, Note_on_c, 1, 81, 0
7, 39360, Note_on_c, 1, 81, 84
7, 39360, Note_on_c, 1, 75, 84
7, 39539, Note_on_c, 1, 81, 0
7, 39539, Note_on_c, 1, 75, 0
7, 39840, Note_on_c, 1, 75, 84
7, 39840, Note_on_c, 1, 81, 84
7, 40019, Note_on_c, 1, 75, 0
7, 40019, Note_on_c, 1, 81, 0
7, 40320, Note_on_c, 1, 82, 84
7, 40320, Note_on_c, 1, 74, 84
7, 40409, Note_on_c, 1, 82, 0
7, 40409, Note_on_c, 1, 74, 0
7, 43440, Note_on_c, 1, 77, 48
7, 43559, Note_on_c, 1, 77, 0
7, 43680, Note_on_c, 1, 75, 48
7, 43799, Note_on_c, 1, 75, 0
7, 43920, Note_on_c, 1, 72, 48
7, 44039, Note_on_c, 1, 72, 0
7, 44160, Note_on_c, 1, 70, 48
7, 44279, Note_on_c, 1, 70, 0
7, 44400, Note_on_c, 1, 79, 48
7, 44639, Note_on_c, 1, 79, 0
7, 44640, Note_on_c, 1, 77, 48
7, 44879, Note_on_c, 1, 77, 0
7, 44880, Note_on_c, 1, 75, 48
7, 45119, Note_on_c, 1, 75, 0
7, 45120, Note_on_c, 1, 74, 48
7, 45359, Note_on_c, 1, 74, 0
7, 45360, Note_on_c, 1, 72, 48
7, 45599, Note_on_c, 1, 72, 0
7, 45600, Note_on_c, 1, 70, 48
7, 45839, Note_on_c, 1, 70, 0
7, 45840, Note_on_c, 1, 72, 48
7, 46064, Note_on_c, 1, 72, 0
7, 46080, Note_on_c, 1, 70, 48
7, 47984, Note_on_c, 1, 70, 0
7, 48000, Note_on_c, 1, 75, 84
7, 48000, Note_on_c, 1, 81, 84
7, 48179, Note_on_c, 1, 75, 0
7, 48179, Note_on_c, 1, 81, 0
7, 48960, Note_on_c, 1, 81, 84
7, 48960, Note_on_c, 1, 75, 84
7, 49139, Note_on_c, 1, 81, 0
7, 49139, Note_on_c, 1, 75, 0
7, 49440, Note_on_c, 1, 81, 84
7, 49440, Note_on_c, 1, 75, 84
7, 49619, Note_on_c, 1, 81, 0
7, 49619, Note_on_c, 1, 75, 0
7, 49920, Note_on_c, 1, 74, 84
7, 49920, Note_on_c, 1, 86, 84
7, 50039, Note_on_c, 1, 74, 0
7, 50039, Note_on_c, 1, 86, 0
7, 50160, Note_on_c, 1, 70, 84
7, 50160, Note_on_c, 1, 82, 84
7, 50279, Note_on_c, 1, 70, 0
7, 50279, Note_on_c, 1, 82, 0
7, 50400, Note_on_c, 1, 77, 84
7, 50400, Note_on_c, 1, 65, 84
7, 50519, Note_on_c, 1, 77, 0
7, 50519, Note_on_c, 1, 65, 0
7, 50640, Note_on_c, 1, 82, 84
7, 50640, Note_on_c, 1, 70, 84
7, 50759, Note_on_c, 1, 82, 0
7, 50759, Note_on_c, 1, 70, 0
7, 50880, Note_on_c, 1, 74, 84
7, 50999, Note_on_c, 1, 74, 0
7, 51120, Note_on_c, 1, 77, 84
7, 51239, Note_on_c, 1, 77, 0
7, 51360, Note_on_c, 1, 70, 84
7, 51479, Note_on_c, 1, 70, 0
7, 51600, Note_on_c, 1, 74, 84
7, 51719, Note_on_c, 1, 74, 0
7, 51840, Note_on_c, 1, 67, 84
7, 51959, Note_on_c, 1, 67, 0
7, 52080, Note_on_c, 1, 75, 84
7, 52199, Note_on_c, 1, 75, 0
7, 52320, Note_on_c, 1, 72, 84
7, 52439, Note_on_c, 1, 72, 0
7, 52560, Note_on_c, 1, 70, 84
7, 52679, Note_on_c, 1, 70, 0
7, 52800, Note_on_c, 1, 69, 84
7, 52919, Note_on_c, 1, 69, 0
7, 53040, Note_on_c, 1, 77, 84
7, 53159, Note_on_c, 1, 77, 0
7, 53280, Note_on_c, 1, 75, 84
7, 53399, Note_on_c, 1, 75, 0
7, 53520, Note_on_c, 1, 72, 84
7, 53639, Note_on_c, 1, 72, 0
7, 53760, Note_on_c, 1, 70, 84
7, 53879, Note_on_c, 1, 70, 0
7, 54000, Note_on_c, 1, 79, 84
7, 54239, Note_on_c, 1, 79, 0
7, 54240, Note_on_c, 1, 77, 84
7, 54479, Note_on_c, 1, 77, 0
7, 54480, Note_on_c, 1, 75, 84
7, 54719, Note_on_c, 1, 75, 0
7, 54720, Note_on_c, 1, 74, 84
7, 54959, Note_on_c, 1, 74, 0
7, 54960, Note_on_c, 1, 72, 84
7, 55199, Note_on_c, 1, 72, 0
7, 55200, Note_on_c, 1, 70, 84
7, 55439, Note_on_c, 1, 70, 0
7, 55440, Note_on_c, 1, 72, 84
7, 55664, Note_on_c, 1, 72, 0
7, 55680, Note_on_c, 1, 70, 92
7, 56640, Note_on_c, 1, 75, 84
7, 57839, Note_on_c, 1, 70, 0
7, 57839, Note_on_c, 1, 75, 0
7, 58080, Note_on_c, 1, 84, 84
7, 58080, Note_on_c, 1, 75, 84
7, 58319, Note_on_c, 1, 84, 0
7, 58319, Note_on_c, 1, 75, 0
7, 59040, Note_on_c, 1, 74, 84
7, 59040, Note_on_c, 1, 82, 84
7, 59279, Note_on_c, 1, 74, 0
7, 59279, Note_on_c, 1, 82, 0
7, 60000, Note_on_c, 1, 84, 84
7, 60000, Note_on_c, 1, 75, 84
7, 60239, Note_on_c, 1, 84, 0
7, 60239, Note_on_c, 1, 75, 0
7, 60960, Note_on_c, 1, 72, 84
7, 60960, Note_on_c, 1, 81, 84
7, 61199, Note_on_c, 1, 72, 0
7, 61199, Note_on_c, 1, 81, 0
7, 61440, Note_on_c, 1, 70, 44
7, 65264, Note_on_c, 1, 70, 0
7, 65280, Note_on_c, 1, 72, 44
7, 65280, Note_on_c, 1, 69, 44
7, 69104, Note_on_c, 1, 72, 0
7, 69104, Note_on_c, 1, 69, 0
7, 69120, Note_on_c, 1, 74, 44
7, 69120, Note_on_c, 1, 71, 44
7, 71024, Note_on_c, 1, 74, 0
7, 71024, Note_on_c, 1, 71, 0
7, 71040, Note_on_c, 1, 73, 44
7, 71040, Note_on_c, 1, 76, 44
7, 72944, Note_on_c, 1, 73, 0
7, 72944, Note_on_c, 1, 76, 0
7, 72952, Control_c, 1, 11, 64
7, 72960, Note_on_c, 1, 78, 84
7, 72960, Control_c, 1, 11, 64
7, 73067, Control_c, 1, 11, 66
7, 73173, Control_c, 1, 11, 68
7, 73280, Control_c, 1, 11, 69
7, 73387, Control_c, 1, 11, 71
7, 73493, Control_c, 1, 11, 73
7, 73600, Control_c, 1, 11, 75
7, 73707, Control_c, 1, 11, 76
7, 73813, Control_c, 1, 11, 78
7, 73920, Control_c, 1, 11, 80
7, 74027, Control_c, 1, 11, 82
7, 74133, Control_c, 1, 11, 83
7, 74240, Control_c, 1, 11, 85
7, 74347, Control_c, 1, 11, 87
7, 74453, Control_c, 1, 11, 89
7, 74560, Control_c, 1, 11, 90
7, 74667, Control_c, 1, 11, 92
7, 74773, Control_c, 1, 11, 94
7, 74864, Note_on_c, 1, 78, 0
7, 74880, Note_on_c, 1, 77, 84
7, 74880, Control_c, 1, 11, 96
7, 74987, Control_c, 1, 11, 97
7, 75093, Control_c, 1, 11, 99
7, 75200, Control_c, 1, 11, 101
7, 75307, Control_c, 1, 11, 103
7, 75413, Control_c, 1, 11, 104
7, 75520, Control_c, 1, 11, 106
7, 75627, Control_c, 1, 11, 108
7, 75733, Control_c, 1, 11, 110
7, 75840, Control_c, 1, 11, 111
7, 75947, Control_c, 1, 11, 113
7, 76053, Control_c, 1, 11, 115
7, 76160, Control_c, 1, 11, 117
7, 76267, Control_c, 1, 11, 118
7, 76373, Control_c, 1, 11, 120
7, 76480, Control_c, 1, 11, 122
7, 76587, Control_c, 1, 11, 124
7, 76693, Control_c, 1, 11, 127
7, 76784, Note_on_c, 1, 77, 0
7, 76800, Note_on_c, 1, 70, 84
7, 76800, Note_on_c, 1, 82, 84
7, 78704, Note_on_c, 1, 70, 0
7, 78704, Note_on_c, 1, 82, 0
7, 78720, Note_on_c, 1, 75, 92
7, 79649, Note_on_c, 1, 75, 0
7, 79680, Note_on_c, 1, 77, 92
7, 80609, Note_on_c, 1, 77, 0
7, 80640, Note_on_c, 1, 74, 92
7, 82559, Note_on_c, 1, 74, 0
7, 90480, Note_on_c, 1, 72, 92
7, 90929, Note_on_c, 1, 72, 0
7, 90960, Note_on_c, 1, 72, 84
7, 91424, Note_on_c, 1, 72, 0
7, 91440, Note_on_c, 1, 72, 84
7, 91904, Note_on_c, 1, 72, 0
7, 91920, Note_on_c, 1, 72, 84
7, 92384, Note_on_c, 1, 72, 0
7, 92400, Note_on_c, 1, 72, 84
7, 92864, Note_on_c, 1, 72, 0
7, 92880, Note_on_c, 1, 72, 84
7, 93344, Note_on_c, 1, 72, 0
7, 93360, Note_on_c, 1, 74, 92
7, 93839, Note_on_c, 1, 74, 0
7, 93840, Note_on_c, 1, 72, 84
7, 94064, Note_on_c, 1, 72, 0
7, 94080, Note_on_c, 1, 72, 84
7, 94259, Note_on_c, 1, 72, 0
7, 94320, Note_on_c, 1, 76, 84
7, 94320, Note_on_c, 1, 79, 84
7, 94784, Note_on_c, 1, 76, 0
7, 94784, Note_on_c, 1, 79, 0
7, 94800, Note_on_c, 1, 80, 84
7, 94800, Note_on_c, 1, 77, 84
7, 95264, Note_on_c, 1, 80, 0
7, 95264, Note_on_c, 1, 77, 0
7, 95280, Note_on_c, 1, 79, 84
7, 95280, Note_on_c, 1, 82, 84
7, 95744, Note_on_c, 1, 79, 0
7, 95744, Note_on_c, 1, 82, 0
7, 95760, Note_on_c, 1, 77, 84
7, 95760, Note_on_c, 1, 74, 84
7, 96224, Note_on_c, 1, 77, 0
7, 96224, Note_on_c, 1, 74, 0
7, 96240, Note_on_c, 1, 76, 84
7, 96240, Note_on_c, 1, 79, 84
7, 96704, Note_on_c, 1, 76, 0
7, 96704, Note_on_c, 1, 79, 0
7, 96720, Note_on_c, 1, 80, 84
7, 96720, Note_on_c, 1, 77, 84
7, 97184, Note_on_c, 1, 80, 0
7, 97184, Note_on_c, 1, 77, 0
7, 97200, Note_on_c, 1, 80, 92
7, 97200, Note_on_c, 1, 77, 92
7, 97679, Note_on_c, 1, 80, 0
7, 97679, Note_on_c, 1, 77, 0
7, 97680, Note_on_c, 1, 76, 84
7, 97680, Note_on_c, 1, 79, 84
7, 97904, Note_on_c, 1, 76, 0
7, 97904, Note_on_c, 1, 79, 0
7, 97920, Note_on_c, 1, 76, 84
7, 97920, Note_on_c, 1, 79, 84
7, 98159, Note_on_c, 1, 76, 0
7, 98159, Note_on_c, 1, 79, 0
7, 103680, Note_on_c, 1, 84, 52
7, 103799, Note_on_c, 1, 84, 0
7, 103800, Note_on_c, 1, 81, 52
7, 103919, Note_on_c, 1, 81, 0
7, 103920, Note_on_c, 1, 82, 52
7, 104039, Note_on_c, 1, 82, 0
7, 104040, Note_on_c, 1, 79, 52
7, 104144, Note_on_c, 1, 79, 0
7, 104160, Note_on_c, 1, 77, 52
7, 104339, Note_on_c, 1, 77, 0
7, 104400, Note_on_c, 1, 72, 52
7, 104579, Note_on_c, 1, 72, 0
7, 104640, Note_on_c, 1, 77, 52
7, 104819, Note_on_c, 1, 77, 0
7, 104880, Note_on_c, 1, 79, 52
7, 105059, Note_on_c, 1, 79, 0
7, 105120, Note_on_c, 1, 81, 52
7, 105299, Note_on_c, 1, 81, 0
7, 105360, Note_on_c, 1, 81, 52
7, 105539, Note_on_c, 1, 81, 0
7, 105600, Note_on_c, 1, 81, 52
7, 107264, Note_on_c, 1, 81, 0
7, 107280, Note_on_c, 1, 74, 52
7, 107280, Note_on_c, 1, 77, 52
7, 107504, Note_on_c, 1, 74, 0
7, 107504, Note_on_c, 1, 77, 0
7, 107520, Note_on_c, 1, 73, 52
7, 107520, Note_on_c, 1, 76, 52
7, 108479, Note_on_c, 1, 73, 0
7, 108479, Note_on_c, 1, 76, 0
7, 108480, Note_on_c, 1, 77, 52
7, 108480, Note_on_c, 1, 74, 52
7, 109439, Note_on_c, 1, 77, 0
7, 109439, Note_on_c, 1, 74, 0
7, 109440, Note_on_c, 1, 76, 52
7, 109440, Note_on_c, 1, 79, 52
7, 110399, Note_on_c, 1, 76, 0
7, 110399, Note_on_c, 1, 79, 0
7, 110400, Note_on_c, 1, 74, 52
7, 110400, Note_on_c, 1, 77, 52
7, 111359, Note_on_c, 1, 74, 0
7, 111359, Note_on_c, 1, 77, 0
7, 111360, Note_on_c, 1, 76, 52
7, 111360, Note_on_c, 1, 73, 52
7, 111599, Note_on_c, 1, 76, 0
7, 111599, Note_on_c, 1, 73, 0
7, 125760, Note_on_c, 1, 79, 76
7, 125760, Note_on_c, 1, 76, 76
7, 126119, Note_on_c, 1, 79, 0
7, 126119, Note_on_c, 1, 76, 0
7, 126240, Note_on_c, 1, 79, 76
7, 126240, Note_on_c, 1, 76, 76
7, 126599, Note_on_c, 1, 79, 0
7, 126599, Note_on_c, 1, 76, 0
7, 126720, Note_on_c, 1, 76, 76
7, 126720, Note_on_c, 1, 79, 76
7, 127079, Note_on_c, 1, 76, 0
7, 127079, Note_on_c, 1, 79, 0
7, 127200, Note_on_c, 1, 76, 76
7, 127200, Note_on_c, 1, 79, 76
7, 127559, Note_on_c, 1, 76, 0
7, 127559, Note_on_c, 1, 79, 0
7, 127680, Note_on_c, 1, 76, 76
7, 127680, Note_on_c, 1, 79, 76
7, 128039, Note_on_c, 1, 76, 0
7, 128039, Note_on_c, 1, 79, 0
7, 128160, Note_on_c, 1, 76, 76
7, 128160, Note_on_c, 1, 79, 76
7, 128519, Note_on_c, 1, 76, 0
7, 128519, Note_on_c, 1, 79, 0
7, 128640, Note_on_c, 1, 77, 76
7, 128640, Note_on_c, 1, 72, 76
7, 128879, Note_on_c, 1, 77, 0
7, 128879, Note_on_c, 1, 72, 0
7, 129600, Note_on_c, 1, 77, 76
7, 129600, Note_on_c, 1, 74, 76
7, 129839, Note_on_c, 1, 77, 0
7, 129839, Note_on_c, 1, 74, 0
7, 130560, Note_on_c, 1, 72, 76
7, 130560, Note_on_c, 1, 77, 76
7, 130799, Note_on_c, 1, 72, 0
7, 130799, Note_on_c, 1, 77, 0
7, 131280, Note_on_c, 1, 77, 76
7, 131280, Note_on_c, 1, 72, 76
7, 131504, Note_on_c, 1, 77, 0
7, 131504, Note_on_c, 1, 72, 0
7, 131520, Note_on_c, 1, 76, 76
7, 131520, Note_on_c, 1, 72, 76
7, 131744, Note_on_c, 1, 76, 0
7, 131744, Note_on_c, 1, 72, 0
7, 131760, Note_on_c, 1, 76, 76
7, 131760, Note_on_c, 1, 72, 76
7, 131984, Note_on_c, 1, 76, 0
7, 131984, Note_on_c, 1, 72, 0
7, 132000, Note_on_c, 1, 76, 76
7, 132000, Note_on_c, 1, 72, 76
7, 132224, Note_on_c, 1, 76, 0
7, 132224, Note_on_c, 1, 72, 0
7, 132240, Note_on_c, 1, 76, 76
7, 132240, Note_on_c, 1, 72, 76
7, 132464, Note_on_c, 1, 76, 0
7, 132464, Note_on_c, 1, 72, 0
7, 132480, Note_on_c, 1, 72, 76
7, 132480, Note_on_c, 1, 77, 76
7, 132719, Note_on_c, 1, 72, 0
7, 132719, Note_on_c, 1, 77, 0
7, 132960, Note_on_c, 1, 74, 76
7, 132960, Note_on_c, 1, 77, 76
7, 133199, Note_on_c, 1, 74, 0
7, 133199, Note_on_c, 1, 77, 0
7, 133440, Note_on_c, 1, 77, 76
7, 133440, Note_on_c, 1, 72, 76
7, 133679, Note_on_c, 1, 77, 0
7, 133679, Note_on_c, 1, 72, 0
7, 133920, Note_on_c, 1, 76, 76
7, 133920, Note_on_c, 1, 70, 76
7, 134159, Note_on_c, 1, 76, 0
7, 134159, Note_on_c, 1, 70, 0
7, 142320, Note_on_c, 1, 84, 76
7, 142320, Note_on_c, 1, 72, 76
7, 142544, Note_on_c, 1, 84, 0
7, 142544, Note_on_c, 1, 72, 0
7, 142560, Note_on_c, 1, 72, 76
7, 142560, Note_on_c, 1, 84, 76
7, 142784, Note_on_c, 1, 72, 0
7, 142784, Note_on_c, 1, 84, 0
7, 142800, Note_on_c, 1, 72, 76
7, 142800, Note_on_c, 1, 84, 76
7, 143024, Note_on_c, 1, 72, 0
7, 143024, Note_on_c, 1, 84, 0
7, 143040, Note_on_c, 1, 84, 76
7, 143040, Note_on_c, 1, 72, 76
7, 143744, Note_on_c, 1, 84, 0
7, 143744, Note_on_c, 1, 72, 0
7, 143760, Note_on_c, 1, 72, 76
7, 143760, Note_on_c, 1, 84, 76
7, 143984, Note_on_c, 1, 72, 0
7, 143984, Note_on_c, 1, 84, 0
7, 144000, Note_on_c, 1, 72, 76
7, 144000, Note_on_c, 1, 84, 76
7, 144224, Note_on_c, 1, 72, 0
7, 144224, Note_on_c, 1, 84, 0
7, 144240, Note_on_c, 1, 72, 76
7, 144240, Note_on_c, 1, 84, 76
7, 144464, Note_on_c, 1, 72, 0
7, 144464, Note_on_c, 1, 84, 0
7, 144480, Note_on_c, 1, 84, 76
7, 144480, Note_on_c, 1, 72, 76
7, 144704, Note_on_c, 1, 84, 0
7, 144704, Note_on_c, 1, 72, 0
7, 144720, Note_on_c, 1, 84, 76
7, 144720, Note_on_c, 1, 72, 76
7, 144944, Note_on_c, 1, 84, 0
7, 144944, Note_on_c, 1, 72, 0
7, 144960, Note_on_c, 1, 72, 76
7, 144960, Note_on_c, 1, 84, 76
7, 145664, Note_on_c, 1, 72, 0
7, 145664, Note_on_c, 1, 84, 0
7, 145680, Note_on_c, 1, 72, 76
7, 145680, Note_on_c, 1, 84, 76
7, 145904, Note_on_c, 1, 72, 0
7, 145904, Note_on_c, 1, 84, 0
7, 145920, Note_on_c, 1, 84, 76
7, 145920, Note_on_c, 1, 72, 76
7, 146144, Note_on_c, 1, 84, 0
7, 146144, Note_on_c, 1, 72, 0
7, 146160, Note_on_c, 1, 72, 76
7, 146160, Note_on_c, 1, 84, 76
7, 146384, Note_on_c, 1, 72, 0
7, 146384, Note_on_c, 1, 84, 0
7, 146400, Note_on_c, 1, 84, 76
7, 146400, Note_on_c, 1, 72, 76
7, 146624, Note_on_c, 1, 84, 0
7, 146624, Note_on_c, 1, 72, 0
7, 146640, Note_on_c, 1, 84, 76
7, 146640, Note_on_c, 1, 72, 76
7, 146864, Note_on_c, 1, 84, 0
7, 146864, Note_on_c, 1, 72, 0
7, 146880, Note_on_c, 1, 72, 76
7, 146880, Note_on_c, 1, 84, 76
7, 147584, Note_on_c, 1, 72, 0
7, 147584, Note_on_c, 1, 84, 0
7, 147600, Note_on_c, 1, 84, 76
7, 147600, Note_on_c, 1, 72, 76
7, 147824, Note_on_c, 1, 84, 0
7, 147824, Note_on_c, 1, 72, 0
7, 147840, Note_on_c, 1, 72, 76
7, 147840, Note_on_c, 1, 84, 76
7, 148064, Note_on_c, 1, 72, 0
7, 148064, Note_on_c, 1, 84, 0
7, 148080, Note_on_c, 1, 72, 76
7, 148080, Note_on_c, 1, 84, 76
7, 148304, Note_on_c, 1, 72, 0
7, 148304, Note_on_c, 1, 84, 0
7, 148320, Note_on_c, 1, 72, 76
7, 148320, Note_on_c, 1, 84, 76
7, 148544, Note_on_c, 1, 72, 0
7, 148544, Note_on_c, 1, 84, 0
7, 148560, Note_on_c, 1, 84, 76
7, 148560, Note_on_c, 1, 72, 76
7, 148784, Note_on_c, 1, 84, 0
7, 148784, Note_on_c, 1, 72, 0
7, 148800, Note_on_c, 1, 84, 76
7, 148800, Note_on_c, 1, 72, 76
7, 149759, Note_on_c, 1, 84, 0
7, 149759, Note_on_c, 1, 72, 0
7, 153600, Note_on_c, 1, 84, 84
7, 153600, Note_on_c, 1, 81, 84
7, 153839, Note_on_c, 1, 84, 0
7, 153839, Note_on_c, 1, 81, 0
7, 154320, Note_on_c, 1, 77, 84
7, 154320, Note_on_c, 1, 69, 84
7, 154544, Note_on_c, 1, 77, 0
7, 154544, Note_on_c, 1, 69, 0
7, 154560, Note_on_c, 1, 74, 84
7, 154560, Note_on_c, 1, 77, 84
7, 154799, Note_on_c, 1, 74, 0
7, 154799, Note_on_c, 1, 77, 0
7, 155040, Note_on_c, 1, 72, 84
7, 155040, Note_on_c, 1, 76, 84
7, 155279, Note_on_c, 1, 72, 0
7, 155279, Note_on_c, 1, 76, 0
7, 157440, Note_on_c, 1, 81, 84
7, 157440, Note_on_c, 1, 84, 84
7, 157679, Note_on_c, 1, 81, 0
7, 157679, Note_on_c, 1, 84, 0
7, 158160, Note_on_c, 1, 69, 84
7, 158160, Note_on_c, 1, 77, 84
7, 158384, Note_on_c, 1, 69, 0
7, 158384, Note_on_c, 1, 77, 0
7, 158400, Note_on_c, 1, 67, 84
7, 158400, Note_on_c, 1, 77, 84
7, 158639, Note_on_c, 1, 67, 0
7, 158639, Note_on_c, 1, 77, 0
7, 158880, Note_on_c, 1, 76, 84
7, 158880, Note_on_c, 1, 67, 84
7, 159119, Note_on_c, 1, 76, 0
7, 159119, Note_on_c, 1, 67, 0
7, 162240, Note_on_c, 1, 84, 76
7, 162240, Note_on_c, 1, 81, 76
7, 163184, Note_on_c, 1, 84, 0
7, 163184, Note_on_c, 1, 81, 0
7, 163200, Note_on_c, 1, 83, 76
7, 163200, Note_on_c, 1, 80, 76
7, 164144, Note_on_c, 1, 83, 0
7, 164144, Note_on_c, 1, 80, 0
7, 164160, Note_on_c, 1, 82, 76
7, 164160, Note_on_c, 1, 79, 76
7, 165104, Note_on_c, 1, 82, 0
7, 165104, Note_on_c, 1, 79, 0
7, 165120, Note_on_c, 1, 80, 84
7, 165120, Note_on_c, 1, 77, 84
7, 167024, Note_on_c, 1, 80, 0
7, 167024, Note_on_c, 1, 77, 0
7, 167040, Note_on_c, 1, 81, 84
7, 167040, Note_on_c, 1, 77, 84
7, 167984, Note_on_c, 1, 81, 0
7, 167984, Note_on_c, 1, 77, 0
7, 168000, Note_on_c, 1, 79, 84
7, 168000, Note_on_c, 1, 76, 84
7, 168944, Note_on_c, 1, 79, 0
7, 168944, Note_on_c, 1, 76, 0
7, 168960, Note_on_c, 1, 77, 84
7, 169199, Note_on_c, 1, 77, 0
7, 172080, Note_on_c, 1, 72, 76
7, 172544, Note_on_c, 1, 72, 0
7, 172560, Note_on_c, 1, 76, 76
7, 172560, Note_on_c, 1, 70, 76
7, 172739, Note_on_c, 1, 76, 0
7, 172739, Note_on_c, 1, 70, 0
7, 172800, Note_on_c, 1, 69, 76
7, 172800, Note_on_c, 1, 77, 76
7, 172979, Note_on_c, 1, 69, 0
7, 172979, Note_on_c, 1, 77, 0
7, 175920, Note_on_c, 1, 70, 76
7, 175920, Note_on_c, 1, 72, 76
7, 176384, Note_on_c, 1, 70, 0
7, 176384, Note_on_c, 1, 72, 0
7, 176400, Note_on_c, 1, 70, 76
7, 176400, Note_on_c, 1, 76, 76
7, 176624, Note_on_c, 1, 70, 0
7, 176624, Note_on_c, 1, 76, 0
7, 176640, Note_on_c, 1, 69, 76
7, 176640, Note_on_c, 1, 77, 76
7, 176879, Note_on_c, 1, 69, 0
7, 176879, Note_on_c, 1, 77, 0
7, 177840, Note_on_c, 1, 70, 76
7, 177840, Note_on_c, 1, 72, 76
7, 178304, Note_on_c, 1, 70, 0
7, 178304, Note_on_c, 1, 72, 0
7, 178320, Note_on_c, 1, 70, 76
7, 178320, Note_on_c, 1, 76, 76
7, 178544, Note_on_c, 1, 70, 0
7, 178544, Note_on_c, 1, 76, 0
7, 178560, Note_on_c, 1, 69, 84
7, 178560, Note_on_c, 1, 77, 84
7, 180407, Note_on_c, 1, 69, 0
7, 180407, Note_on_c, 1, 77, 0
7, 180420, Note_on_c, 1, 69, 84
7, 180420, Note_on_c, 1, 77, 84
7, 180471, Note_on_c, 1, 69, 0
7, 180471, Note_on_c, 1, 77, 0
7, 180480, Note_on_c, 1, 81, 84
7, 180480, Note_on_c, 1, 77, 84
7, 180719, Note_on_c, 1, 81, 0
7, 180719, Note_on_c, 1, 77, 0
7, 182400, Note_on_c, 1, 75, 84
7, 182400, Note_on_c, 1, 81, 84
7, 184247, Note_on_c, 1, 75, 0
7, 184247, Note_on_c, 1, 81, 0
7, 184260, Note_on_c, 1, 75, 84
7, 184260, Note_on_c, 1, 81, 84
7, 184311, Note_on_c, 1, 75, 0
7, 184311, Note_on_c, 1, 81, 0
7, 184320, Note_on_c, 1, 84, 84
7, 184320, Note_on_c, 1, 75, 84
7, 184559, Note_on_c, 1, 84, 0
7, 184559, Note_on_c, 1, 75, 0
7, 185280, Note_on_c, 1, 81, 84
7, 185280, Note_on_c, 1, 84, 84
7, 185459, Note_on_c, 1, 81, 0
7, 185459, Note_on_c, 1, 84, 0
7, 186240, Note_on_c, 1, 84, 84
7, 186240, Note_on_c, 1, 81, 84
7, 186419, Note_on_c, 1, 84, 0
7, 186419, Note_on_c, 1, 81, 0
7, 186720, Note_on_c, 1, 81, 84
7, 186720, Note_on_c, 1, 84, 84
7, 186899, Note_on_c, 1, 81, 0
7, 186899, Note_on_c, 1, 84, 0
7, 187200, Note_on_c, 1, 84, 84
7, 187200, Note_on_c, 1, 81, 84
7, 187379, Note_on_c, 1, 84, 0
7, 187379, Note_on_c, 1, 81, 0
7, 187680, Note_on_c, 1, 81, 84
7, 187680, Note_on_c, 1, 84, 84
7, 187859, Note_on_c, 1, 81, 0
7, 187859, Note_on_c, 1, 84, 0
7, 188160, Note_on_c, 1, 86, 84
7, 188160, Note_on_c, 1, 82, 84
7, 188339, Note_on_c, 1, 86, 0
7, 188339, Note_on_c, 1, 82, 0
7, 191280, Note_on_c, 1, 77, 48
7, 191399, Note_on_c, 1, 77, 0
7, 191520, Note_on_c, 1, 75, 48
7, 191639, Note_on_c, 1, 75, 0
7, 191760, Note_on_c, 1, 72, 48
7, 191879, Note_on_c, 1, 72, 0
7, 192000, Note_on_c, 1, 70, 48
7, 192119, Note_on_c, 1, 70, 0
7, 192240, Note_on_c, 1, 79, 48
7, 192479, Note_on_c, 1, 79, 0
7, 192480, Note_on_c, 1, 77, 48
7, 192719, Note_on_c, 1, 77, 0
7, 192720, Note_on_c, 1, 75, 48
7, 192959, Note_on_c, 1, 75, 0
7, 192960, Note_on_c, 1, 74, 48
7, 193199, Note_on_c, 1, 74, 0
7, 193200, Note_on_c, 1, 72, 48
7, 193439, Note_on_c, 1, 72, 0
7, 193440, Note_on_c, 1, 70, 48
7, 193679, Note_on_c, 1, 70, 0
7, 193680, Note_on_c, 1, 72, 48
7, 193904, Note_on_c, 1, 72, 0
7, 193920, Note_on_c, 1, 70, 48
7, 195824, Note_on_c, 1, 70, 0
7, 195840, Note_on_c, 1, 75, 84
7, 195840, Note_on_c, 1, 81, 84
7, 196019, Note_on_c, 1, 75, 0
7, 196019, Note_on_c, 1, 81, 0
7, 196800, Note_on_c, 1, 75, 84
7, 196800, Note_on_c, 1, 81, 84
7, 196979, Note_on_c, 1, 75, 0
7, 196979, Note_on_c, 1, 81, 0
7, 197280, Note_on_c, 1, 75, 84
7, 197280, Note_on_c, 1, 81, 84
7, 197459, Note_on_c, 1, 75, 0
7, 197459, Note_on_c, 1, 81, 0
7, 197760, Note_on_c, 1, 74, 84
7, 197760, Note_on_c, 1, 86, 84
7, 197879, Note_on_c, 1, 74, 0
7, 197879, Note_on_c, 1, 86, 0
7, 198000, Note_on_c, 1, 82, 84
7, 198000, Note_on_c, 1, 70, 84
7, 198119, Note_on_c, 1, 82, 0
7, 198119, Note_on_c, 1, 70, 0
7, 198240, Note_on_c, 1, 77, 84
7, 198240, Note_on_c, 1, 65, 84
7, 198359, Note_on_c, 1, 77, 0
7, 198359, Note_on_c, 1, 65, 0
7, 198480, Note_on_c, 1, 70, 84
7, 198480, Note_on_c, 1, 82, 84
7, 198599, Note_on_c, 1, 70, 0
7, 198599, Note_on_c, 1, 82, 0
7, 198720, Note_on_c, 1, 74, 84
7, 198839, Note_on_c, 1, 74, 0
7, 198960, Note_on_c, 1, 77, 84
7, 199079, Note_on_c, 1, 77, 0
7, 199200, Note_on_c, 1, 70, 84
7, 199319, Note_on_c, 1, 70, 0
7, 199440, Note_on_c, 1, 74, 84
7, 199559, Note_on_c, 1, 74, 0
7, 199680, Note_on_c, 1, 67, 84
7, 199799, Note_on_c, 1, 67, 0
7, 199920, Note_on_c, 1, 75, 84
7, 200039, Note_on_c, 1, 75, 0
7, 200160, Note_on_c, 1, 72, 84
7, 200279, Note_on_c, 1, 72, 0
7, 200400, Note_on_c, 1, 70, 84
7, 200519, Note_on_c, 1, 70, 0
7, 200640, Note_on_c, 1, 69, 84
7, 200759, Note_on_c, 1, 69, 0
7, 200880, Note_on_c, 1, 77, 84
7, 200999, Note_on_c, 1, 77, 0
7, 201120, Note_on_c, 1, 75, 84
7, 201239, Note_on_c, 1, 75, 0
7, 201360, Note_on_c, 1, 72, 84
7, 201479, Note_on_c, 1, 72, 0
7, 201600, Note_on_c, 1, 70, 84
7, 201719, Note_on_c, 1, 70, 0
7, 201840, Note_on_c, 1, 79, 84
7, 202079, Note_on_c, 1, 79, 0
7, 202080, Note_on_c, 1, 77, 84
7, 202319, Note_on_c, 1, 77, 0
7, 202320, Note_on_c, 1, 75, 84
7, 202559, Note_on_c, 1, 75, 0
7, 202560, Note_on_c, 1, 74, 84
7, 202799, Note_on_c, 1, 74, 0
7, 202800, Note_on_c, 1, 72, 84
7, 203039, Note_on_c, 1, 72, 0
7, 203040, Note_on_c, 1, 70, 84
7, 203279, Note_on_c, 1, 70, 0
7, 203280, Note_on_c, 1, 72, 84
7, 203504, Note_on_c, 1, 72, 0
7, 203520, Note_on_c, 1, 70, 92
7, 204480, Note_on_c, 1, 75, 84
7, 205679, Note_on_c, 1, 70, 0
7, 205679, Note_on_c, 1, 75, 0
7, 205920, Note_on_c, 1, 84, 84
7, 205920, Note_on_c, 1, 75, 84
7, 206159, Note_on_c, 1, 84, 0
7, 206159, Note_on_c, 1, 75, 0
7, 206880, Note_on_c, 1, 74, 84
7, 206880, Note_on_c, 1, 82, 84
7, 207119, Note_on_c, 1, 74, 0
7, 207119, Note_on_c, 1, 82, 0
7, 207840, Note_on_c, 1, 84, 84
7, 207840, Note_on_c, 1, 75, 84
7, 208079, Note_on_c, 1, 84, 0
7, 208079, Note_on_c, 1, 75, 0
7, 208800, Note_on_c, 1, 81, 84
7, 208800, Note_on_c, 1, 72, 84
7, 209039, Note_on_c, 1, 81, 0
7, 209039, Note_on_c, 1, 72, 0
7, 209280, Note_on_c, 1, 70, 44
7, 213104, Note_on_c, 1, 70, 0
7, 213120, Note_on_c, 1, 72, 44
7, 213120, Note_on_c, 1, 69, 44
7, 216944, Note_on_c, 1, 72, 0
7, 216944, Note_on_c, 1, 69, 0
7, 216960, Note_on_c, 1, 74, 44
7, 216960, Note_on_c, 1, 71, 44
7, 218864, Note_on_c, 1, 74, 0
7, 218864, Note_on_c, 1, 71, 0
7, 218880, Note_on_c, 1, 76, 44
7, 218880, Note_on_c, 1, 73, 44
7, 220784, Note_on_c, 1, 76, 0
7, 220784, Note_on_c, 1, 73, 0
7, 220792, Control_c, 1, 11, 64
7, 220800, Note_on_c, 1, 78, 84
7, 220800, Control_c, 1, 11, 64
7, 220907, Control_c, 1, 11, 66
7, 221013, Control_c, 1, 11, 68
7, 221120, Control_c, 1, 11, 69
7, 221227, Control_c, 1, 11, 71
7, 221333, Control_c, 1, 11, 73
7, 221440, Control_c, 1, 11, 75
7, 221547, Control_c, 1, 11, 76
7, 221653, Control_c, 1, 11, 78
7, 221760, Control_c, 1, 11, 80
7, 221867, Control_c, 1, 11, 82
7, 221973, Control_c, 1, 11, 83
7, 222080, Control_c, 1, 11, 85
7, 222187, Control_c, 1, 11, 87
7, 222293, Control_c, 1, 11, 89
7, 222400, Control_c, 1, 11, 90
7, 222507, Control_c, 1, 11, 92
7, 222613, Control_c, 1, 11, 94
7, 222704, Note_on_c, 1, 78, 0
7, 222720, Control_c, 1, 11, 96
7, 222720, Note_on_c, 1, 77, 84
7, 222827, Control_c, 1, 11, 97
7, 222933, Control_c, 1, 11, 99
7, 223040, Control_c, 1, 11, 101
7, 223147, Control_c, 1, 11, 103
7, 223253, Control_c, 1, 11, 104
7, 223360, Control_c, 1, 11, 106
7, 223467, Control_c, 1, 11, 108
7, 223573, Control_c, 1, 11, 110
7, 223680, Control_c, 1, 11, 111
7, 223787, Control_c, 1, 11, 113
7, 223893, Control_c, 1, 11, 115
7, 224000, Control_c, 1, 11, 117
7, 224107, Control_c, 1, 11, 118
7, 224213, Control_c, 1, 11, 120
7, 224320, Control_c, 1, 11, 122
7, 224427, Control_c, 1, 11, 124
7, 224533, Control_c, 1, 11, 127
7, 224624, Note_on_c, 1, 77, 0
7, 224640, Note_on_c, 1, 82, 84
7, 224640, Note_on_c, 1, 70, 84
7, 226544, Note_on_c, 1, 82, 0
7, 226544, Note_on_c, 1, 70, 0
7, 226560, Note_on_c, 1, 75, 92
7, 227489, Note_on_c, 1, 75, 0
7, 227520, Note_on_c, 1, 77, 92
7, 228449, Note_on_c, 1, 77, 0
7, 228480, Note_on_c, 1, 74, 92
7, 230399, Note_on_c, 1, 74, 0
7, 238320, Note_on_c, 1, 72, 92
7, 238769, Note_on_c, 1, 72, 0
7, 238800, Note_on_c, 1, 72, 84
7, 239264, Note_on_c, 1, 72, 0
7, 239280, Note_on_c, 1, 72, 84
7, 239744, Note_on_c, 1, 72, 0
7, 239760, Note_on_c, 1, 72, 84
7, 240224, Note_on_c, 1, 72, 0
7, 240240, Note_on_c, 1, 72, 84
7, 240704, Note_on_c, 1, 72, 0
7, 240720, Note_on_c, 1, 72, 84
7, 241184, Note_on_c, 1, 72, 0
7, 241200, Note_on_c, 1, 74, 92
7, 241679, Note_on_c, 1, 74, 0
7, 241680, Note_on_c, 1, 72, 84
7, 241904, Note_on_c, 1, 72, 0
7, 241920, Note_on_c, 1, 72, 84
7, 242099, Note_on_c, 1, 72, 0
7, 242160, Note_on_c, 1, 79, 84
7, 242160, Note_on_c, 1, 76, 84
7, 242624, Note_on_c, 1, 79, 0
7, 242624, Note_on_c, 1, 76, 0
7, 242640, Note_on_c, 1, 80, 84
7, 242640, Note_on_c, 1, 77, 84
7, 243104, Note_on_c, 1, 80, 0
7, 243104, Note_on_c, 1, 77, 0
7, 243120, Note_on_c, 1, 79, 84
7, 243120, Note_on_c, 1, 82, 84
7, 243584, Note_on_c, 1, 79, 0
7, 243584, Note_on_c, 1, 82, 0
7, 243600, Note_on_c, 1, 74, 84
7, 243600, Note_on_c, 1, 77, 84
7, 244064, Note_on_c, 1, 74, 0
7, 244064, Note_on_c, 1, 77, 0
7, 244080, Note_on_c, 1, 79, 84
7, 244080, Note_on_c, 1, 76, 84
7, 244544, Note_on_c, 1, 79, 0
7, 244544, Note_on_c, 1, 76, 0
7, 244560, Note_on_c, 1, 80, 84
7, 244560, Note_on_c, 1, 77, 84
7, 245024, Note_on_c, 1, 80, 0
7, 245024, Note_on_c, 1, 77, 0
7, 245040, Note_on_c, 1, 80, 92
7, 245040, Note_on_c, 1, 77, 92
7, 245519, Note_on_c, 1, 80, 0
7, 245519, Note_on_c, 1, 77, 0
7, 245520, Note_on_c, 1, 79, 84
7, 245520, Note_on_c, 1, 76, 84
7, 245744, Note_on_c, 1, 79, 0
7, 245744, Note_on_c, 1, 76, 0
7, 245760, Note_on_c, 1, 76, 84
7, 245760, Note_on_c, 1, 79, 84
7, 245999, Note_on_c, 1, 76, 0
7, 245999, Note_on_c, 1, 79, 0
7, 251520, Note_on_c, 1, 84, 52
7, 251639, Note_on_c, 1, 84, 0
7, 251640, Note_on_c, 1, 81, 52
7, 251759, Note_on_c, 1, 81, 0
7, 251760, Note_on_c, 1, 82, 52
7, 251879, Note_on_c, 1, 82, 0
7, 251880, Note_on_c, 1, 79, 52
7, 251984, Note_on_c, 1, 79, 0
7, 252000, Note_on_c, 1, 77, 52
7, 252179, Note_on_c, 1, 77, 0
7, 252240, Note_on_c, 1, 72, 52
7, 252419, Note_on_c, 1, 72, 0
7, 252480, Note_on_c, 1, 77, 52
7, 252659, Note_on_c, 1, 77, 0
7, 252720, Note_on_c, 1, 79, 52
7, 252899, Note_on_c, 1, 79, 0
7, 252960, Note_on_c, 1, 81, 52
7, 253139, Note_on_c, 1, 81, 0
7, 253200, Note_on_c, 1, 81, 52
7, 253379, Note_on_c, 1, 81, 0
7, 253440, Note_on_c, 1, 81, 52
7, 255104, Note_on_c, 1, 81, 0
7, 255120, Note_on_c, 1, 77, 52
7, 255120, Note_on_c, 1, 74, 52
7, 255344, Note_on_c, 1, 77, 0
7, 255344, Note_on_c, 1, 74, 0
7, 255360, Note_on_c, 1, 73, 52
7, 255360, Note_on_c, 1, 76, 52
7, 256319, Note_on_c, 1, 73, 0
7, 256319, Note_on_c, 1, 76, 0
7, 256320, Note_on_c, 1, 74, 52
7, 256320, Note_on_c, 1, 77, 52
7, 257279, Note_on_c, 1, 74, 0
7, 257279, Note_on_c, 1, 77, 0
7, 257280, Note_on_c, 1, 76, 52
7, 257280, Note_on_c, 1, 79, 52
7, 258239, Note_on_c, 1, 76, 0
7, 258239, Note_on_c, 1, 79, 0
7, 258240, Note_on_c, 1, 74, 52
7, 258240, Note_on_c, 1, 77, 52
7, 259199, Note_on_c, 1, 74, 0
7, 259199, Note_on_c, 1, 77, 0
7, 259200, Note_on_c, 1, 76, 52
7, 259200, Note_on_c, 1, 73, 52
7, 259439, Note_on_c, 1, 76, 0
7, 259439, Note_on_c, 1, 73, 0
7, 273600, Note_on_c, 1, 79, 76
7, 273600, Note_on_c, 1, 76, 76
7, 273959, Note_on_c, 1, 79, 0
7, 273959, Note_on_c, 1, 76, 0
7, 274080, Note_on_c, 1, 76, 76
7, 274080, Note_on_c, 1, 79, 76
7, 274439, Note_on_c, 1, 76, 0
7, 274439, Note_on_c, 1, 79, 0
7, 274560, Note_on_c, 1, 79, 76
7, 274560, Note_on_c, 1, 76, 76
7, 274919, Note_on_c, 1, 79, 0
7, 274919, Note_on_c, 1, 76, 0
7, 275040, Note_on_c, 1, 76, 76
7, 275040, Note_on_c, 1, 79, 76
7, 275399, Note_on_c, 1, 76, 0
7, 275399, Note_on_c, 1, 79, 0
7, 275520, Note_on_c, 1, 76, 76
7, 275520, Note_on_c, 1, 79, 76
7, 275879, Note_on_c, 1, 76, 0
7, 275879, Note_on_c, 1, 79, 0
7, 276000, Note_on_c, 1, 79, 76
7, 276000, Note_on_c, 1, 76, 76
7, 276359, Note_on_c, 1, 79, 0
7, 276359, Note_on_c, 1, 76, 0
7, 276480, Note_on_c, 1, 72, 76
7, 276480, Note_on_c, 1, 77, 76
7, 276719, Note_on_c, 1, 72, 0
7, 276719, Note_on_c, 1, 77, 0
7, 277440, Note_on_c, 1, 77, 76
7, 277440, Note_on_c, 1, 74, 76
7, 277679, Note_on_c, 1, 77, 0
7, 277679, Note_on_c, 1, 74, 0
7, 278400, Note_on_c, 1, 77, 76
7, 278400, Note_on_c, 1, 72, 76
7, 278639, Note_on_c, 1, 77, 0
7, 278639, Note_on_c, 1, 72, 0
7, 279120, Note_on_c, 1, 72, 76
7, 279120, Note_on_c, 1, 77, 76
7, 279344, Note_on_c, 1, 72, 0
7, 279344, Note_on_c, 1, 77, 0
7, 279360, Note_on_c, 1, 72, 76
7, 279360, Note_on_c, 1, 76, 76
7, 279584, Note_on_c, 1, 72, 0
7, 279584, Note_on_c, 1, 76, 0
7, 279600, Note_on_c, 1, 76, 76
7, 279600, Note_on_c, 1, 72, 76
7, 279824, Note_on_c, 1, 76, 0
7, 279824, Note_on_c, 1, 72, 0
7, 279840, Note_on_c, 1, 76, 76
7, 279840, Note_on_c, 1, 72, 76
7, 280064, Note_on_c, 1, 76, 0
7, 280064, Note_on_c, 1, 72, 0
7, 280080, Note_on_c, 1, 76, 76
7, 280080, Note_on_c, 1, 72, 76
7, 280304, Note_on_c, 1, 76, 0
7, 280304, Note_on_c, 1, 72, 0
7, 280320, Note_on_c, 1, 77, 76
7, 280320, Note_on_c, 1, 72, 76
7, 280559, Note_on_c, 1, 77, 0
7, 280559, Note_on_c, 1, 72, 0
7, 280800, Note_on_c, 1, 74, 76
7, 280800, Note_on_c, 1, 77, 76
7, 281039, Note_on_c, 1, 74, 0
7, 281039, Note_on_c, 1, 77, 0
7, 281280, Note_on_c, 1, 77, 76
7, 281280, Note_on_c, 1, 72, 76
7, 281519, Note_on_c, 1, 77, 0
7, 281519, Note_on_c, 1, 72, 0
7, 281760, Note_on_c, 1, 70, 76
7, 281760, Note_on_c, 1, 76, 76
7, 281999, Note_on_c, 1, 70, 0
7, 281999, Note_on_c, 1, 76, 0
7, 290160, Note_on_c, 1, 84, 76
7, 290160, Note_on_c, 1, 72, 76
7, 290384, Note_on_c, 1, 84, 0
7, 290384, Note_on_c, 1, 72, 0
7, 290400, Note_on_c, 1, 72, 76
7, 290400, Note_on_c, 1, 84, 76
7, 290624, Note_on_c, 1, 72, 0
7, 290624, Note_on_c, 1, 84, 0
7, 290640, Note_on_c, 1, 84, 76
7, 290640, Note_on_c, 1, 72, 76
7, 290864, Note_on_c, 1, 84, 0
7, 290864, Note_on_c, 1, 72, 0
7, 290880, Note_on_c, 1, 84, 76
7, 290880, Note_on_c, 1, 72, 76
7, 291584, Note_on_c, 1, 84, 0
7, 291584, Note_on_c, 1, 72, 0
7, 291600, Note_on_c, 1, 72, 76
7, 291600, Note_on_c, 1, 84, 76
7, 291824, Note_on_c, 1, 72, 0
7, 291824, Note_on_c, 1, 84, 0
7, 291840, Note_on_c, 1, 72, 76
7, 291840, Note_on_c, 1, 84, 76
7, 292064, Note_on_c, 1, 72, 0
7, 292064, Note_on_c, 1, 84, 0
7, 292080, Note_on_c, 1, 72, 76
7, 292080, Note_on_c, 1, 84, 76
7, 292304, Note_on_c, 1, 72, 0
7, 292304, Note_on_c, 1, 84, 0
7, 292320, Note_on_c, 1, 84, 76
7, 292320, Note_on_c, 1, 72, 76
7, 292544, Note_on_c, 1, 84, 0
7, 292544, Note_on_c, 1, 72, 0
7, 292560, Note_on_c, 1, 84, 76
7, 292560, Note_on_c, 1, 72, 76
7, 292784, Note_on_c, 1, 84, 0
7, 292784, Note_on_c, 1, 72, 0
7, 292800, Note_on_c, 1, 72, 76
7, 292800, Note_on_c, 1, 84, 76
7, 293504, Note_on_c, 1, 72, 0
7, 293504, Note_on_c, 1, 84, 0
7, 293520, Note_on_c, 1, 72, 76
7, 293520, Note_on_c, 1, 84, 76
7, 293744, Note_on_c, 1, 72, 0
7, 293744, Note_on_c, 1, 84, 0
7, 293760, Note_on_c, 1, 84, 76
7, 293760, Note_on_c, 1, 72, 76
7, 293984, Note_on_c, 1, 84, 0
7, 293984, Note_on_c, 1, 72, 0
7, 294000, Note_on_c, 1, 72, 76
7, 294000, Note_on_c, 1, 84, 76
7, 294224, Note_on_c, 1, 72, 0
7, 294224, Note_on_c, 1, 84, 0
7, 294240, Note_on_c, 1, 84, 76
7, 294240, Note_on_c, 1, 72, 76
7, 294464, Note_on_c, 1, 84, 0
7, 294464, Note_on_c, 1, 72, 0
7, 294480, Note_on_c, 1, 84, 76
7, 294480, Note_on_c, 1, 72, 76
7, 294704, Note_on_c, 1, 84, 0
7, 294704, Note_on_c, 1, 72, 0
7, 294720, Note_on_c, 1, 72, 76
7, 294720, Note_on_c, 1, 84, 76
7, 295424, Note_on_c, 1, 72, 0
7, 295424, Note_on_c, 1, 84, 0
7, 295440, Note_on_c, 1, 72, 76
7, 295440, Note_on_c, 1, 84, 76
7, 295664, Note_on_c, 1, 72, 0
7, 295664, Note_on_c, 1, 84, 0
7, 295680, Note_on_c, 1, 84, 76
7, 295680, Note_on_c, 1, 72, 76
7, 295904, Note_on_c, 1, 84, 0
7, 295904, Note_on_c, 1, 72, 0
7, 295920, Note_on_c, 1, 84, 76
7, 295920, Note_on_c, 1, 72, 76
7, 296144, Note_on_c, 1, 84, 0
7, 296144, Note_on_c, 1, 72, 0
7, 296160, Note_on_c, 1, 72, 76
7, 296160, Note_on_c, 1, 84, 76
7, 296384, Note_on_c, 1, 72, 0
7, 296384, Note_on_c, 1, 84, 0
7, 296400, Note_on_c, 1, 84, 76
7, 296400, Note_on_c, 1, 72, 76
7, 296624, Note_on_c, 1, 84, 0
7, 296624, Note_on_c, 1, 72, 0
7, 296640, Note_on_c, 1, 84, 76
7, 296640, Note_on_c, 1, 72, 76
7, 297599, Note_on_c, 1, 84, 0
7, 297599, Note_on_c, 1, 72, 0
7, 301440, Note_on_c, 1, 84, 84
7, 301440, Note_on_c, 1, 81, 84
7, 301679, Note_on_c, 1, 84, 0
7, 301679, Note_on_c, 1, 81, 0
7, 302160, Note_on_c, 1, 77, 84
7, 302160, Note_on_c, 1, 69, 84
7, 302384, Note_on_c, 1, 77, 0
7, 302384, Note_on_c, 1, 69, 0
7, 302400, Note_on_c, 1, 74, 84
7, 302400, Note_on_c, 1, 77, 84
7, 302639, Note_on_c, 1, 74, 0
7, 302639, Note_on_c, 1, 77, 0
7, 302880, Note_on_c, 1, 72, 84
7, 302880, Note_on_c, 1, 76, 84
7, 303119, Note_on_c, 1, 72, 0
7, 303119, Note_on_c, 1, 76, 0
7, 305280, Note_on_c, 1, 81, 84
7, 305280, Note_on_c, 1, 84, 84
7, 305519, Note_on_c, 1, 81, 0
7, 305519, Note_on_c, 1, 84, 0
7, 306000, Note_on_c, 1, 77, 84
7, 306000, Note_on_c, 1, 69, 84
7, 306224, Note_on_c, 1, 77, 0
7, 306224, Note_on_c, 1, 69, 0
7, 306240, Note_on_c, 1, 67, 84
7, 306240, Note_on_c, 1, 77, 84
7, 306479, Note_on_c, 1, 67, 0
7, 306479, Note_on_c, 1, 77, 0
7, 306720, Note_on_c, 1, 76, 84
7, 306720, Note_on_c, 1, 67, 84
7, 306959, Note_on_c, 1, 76, 0
7, 306959, Note_on_c, 1, 67, 0
7, 310080, Note_on_c, 1, 81, 76
7, 310080, Note_on_c, 1, 84, 76
7, 311024, Note_on_c, 1, 81, 0
7, 311024, Note_on_c, 1, 84, 0
7, 311040, Note_on_c, 1, 83, 76
7, 311040, Note_on_c, 1, 80, 76
7, 311984, Note_on_c, 1, 83, 0
7, 311984, Note_on_c, 1, 80, 0
7, 312000, Note_on_c, 1, 79, 76
7, 312000, Note_on_c, 1, 82, 76
7, 312944, Note_on_c, 1, 79, 0
7, 312944, Note_on_c, 1, 82, 0
7, 312960, Note_on_c, 1, 80, 84
7, 312960, Note_on_c, 1, 77, 84
7, 314864, Note_on_c, 1, 80, 0
7, 314864, Note_on_c, 1, 77, 0
7, 314880, Note_on_c, 1, 81, 84
7, 314880, Note_on_c, 1, 77, 84
7, 315824, Note_on_c, 1, 81, 0
7, 315824, Note_on_c, 1, 77, 0
7, 315840, Note_on_c, 1, 79, 84
7, 315840, Note_on_c, 1, 76, 84
7, 316784, Note_on_c, 1, 79, 0
7, 316784, Note_on_c, 1, 76, 0
7, 316800, Note_on_c, 1, 77, 84
7, 317039, Note_on_c, 1, 77, 0
7, 319920, Note_on_c, 1, 72, 76
7, 320384, Note_on_c, 1, 72, 0
7, 320400, Note_on_c, 1, 76, 76
7, 320400, Note_on_c, 1, 70, 76
7, 320579, Note_on_c, 1, 76, 0
7, 320579, Note_on_c, 1, 70, 0
7, 320640, Note_on_c, 1, 69, 76
7, 320640, Note_on_c, 1, 77, 76
7, 320819, Note_on_c, 1, 69, 0
7, 320819, Note_on_c, 1, 77, 0
7, 323760, Note_on_c, 1, 70, 76
7, 323760, Note_on_c, 1, 72, 76
7, 324224, Note_on_c, 1, 70, 0
7, 324224, Note_on_c, 1, 72, 0
7, 324240, Note_on_c, 1, 76, 76
7, 324240, Note_on_c, 1, 70, 76
7, 324464, Note_on_c, 1, 76, 0
7, 324464, Note_on_c, 1, 70, 0
7, 324480, Note_on_c, 1, 77, 76
7, 324480, Note_on_c, 1, 69, 76
7, 324719, Note_on_c, 1, 77, 0
7, 324719, Note_on_c, 1, 69, 0
7, 324960, Note_on_c, 1, 76, 76
7, 324960, Note_on_c, 1, 79, 76
7, 325199, Note_on_c, 1, 76, 0
7, 325199, Note_on_c, 1, 79, 0
7, 325440, Note_on_c, 1, 77, 76
7, 325440, Note_on_c, 1, 81, 76
7, 325679, Note_on_c, 1, 77, 0
7, 325679, Note_on_c, 1, 81, 0
7, 325920, Note_on_c, 1, 79, 76
7, 325920, Note_on_c, 1, 82, 76
7, 326159, Note_on_c, 1, 79, 0
7, 326159, Note_on_c, 1, 82, 0
7, 326400, Note_on_c, 1, 81, 84
7, 326400, Note_on_c, 1, 84, 84
7, 326460, Control_c, 1, 11, 112
7, 328319, Note_on_c, 1, 81, 0
7, 328319, Note_on_c, 1, 84, 0
7, 328320, Note_on_c, 1, 81, 84
7, 328320, Note_on_c, 1, 84, 84
7, 330209, Note_on_c, 1, 81, 0
7, 330209, Note_on_c, 1, 84, 0
7, 330232, Control_c, 1, 11, 127
7, 330240, Note_on_c, 1, 82, 84
7, 330240, Note_on_c, 1, 79, 84
7, 330300, Control_c, 1, 11, 112
7, 332159, Note_on_c, 1, 82, 0
7, 332159, Note_on_c, 1, 79, 0
7, 332160, Note_on_c, 1, 82, 84
7, 332160, Note_on_c, 1, 79, 84
7, 334049, Note_on_c, 1, 82, 0
7, 334049, Note_on_c, 1, 79, 0
7, 334072, Control_c, 1, 11, 127
7, 334080, Note_on_c, 1, 81, 84
7, 334080, Note_on_c, 1, 77, 84
7, 335969, Note_on_c, 1, 81, 0
7, 335969, Note_on_c, 1, 77, 0
7, 336000, Note_on_c, 1, 79, 84
7, 336000, Note_on_c, 1, 74, 84
7, 337889, Note_on_c, 1, 79, 0
7, 337889, Note_on_c, 1, 74, 0
7, 337920, Note_on_c, 1, 77, 84
7, 337920, Note_on_c, 1, 69, 84
7, 339809, Note_on_c, 1, 77, 0
7, 339809, Note_on_c, 1, 69, 0
7, 339840, Note_on_c, 1, 72, 84
7, 339840, Note_on_c, 1, 67, 84
7, 341729, Note_on_c, 1, 72, 0
7, 341729, Note_on_c, 1, 67, 0
7, 341760, Note_on_c, 1, 69, 52
7, 341999, Note_on_c, 1, 69, 0
7, 366960, Note_on_c, 1, 74, 52
7, 366960, Note_on_c, 1, 79, 52
7, 367139, Note_on_c, 1, 74, 0
7, 367139, Note_on_c, 1, 79, 0
7, 367200, Note_on_c, 1, 74, 52
7, 367200, Note_on_c, 1, 70, 52
7, 367379, Note_on_c, 1, 74, 0
7, 367379, Note_on_c, 1, 70, 0
7, 367440, Note_on_c, 1, 74, 52
7, 367440, Note_on_c, 1, 79, 52
7, 367619, Note_on_c, 1, 74, 0
7, 367619, Note_on_c, 1, 79, 0
7, 367920, Note_on_c, 1, 79, 52
7, 367920, Note_on_c, 1, 75, 52
7, 368099, Note_on_c, 1, 79, 0
7, 368099, Note_on_c, 1, 75, 0
7, 368160, Note_on_c, 1, 70, 52
7, 368160, Note_on_c, 1, 75, 52
7, 368339, Note_on_c, 1, 70, 0
7, 368339, Note_on_c, 1, 75, 0
7, 368400, Note_on_c, 1, 79, 52
7, 368400, Note_on_c, 1, 75, 52
7, 368579, Note_on_c, 1, 79, 0
7, 368579, Note_on_c, 1, 75, 0
7, 368880, Note_on_c, 1, 80, 52
7, 368880, Note_on_c, 1, 75, 52
7, 369059, Note_on_c, 1, 80, 0
7, 369059, Note_on_c, 1, 75, 0
7, 369120, Note_on_c, 1, 72, 52
7, 369120, Note_on_c, 1, 75, 52
7, 369299, Note_on_c, 1, 72, 0
7, 369299, Note_on_c, 1, 75, 0
7, 369360, Note_on_c, 1, 75, 52
7, 369360, Note_on_c, 1, 80, 52
7, 369539, Note_on_c, 1, 75, 0
7, 369539, Note_on_c, 1, 80, 0
7, 369840, Note_on_c, 1, 80, 52
7, 369840, Note_on_c, 1, 77, 52
7, 370019, Note_on_c, 1, 80, 0
7, 370019, Note_on_c, 1, 77, 0
7, 370080, Note_on_c, 1, 77, 52
7, 370080, Note_on_c, 1, 74, 52
7, 370259, Note_on_c, 1, 77, 0
7, 370259, Note_on_c, 1, 74, 0
7, 370320, Note_on_c, 1, 80, 52
7, 370320, Note_on_c, 1, 77, 52
7, 370499, Note_on_c, 1, 80, 0
7, 370499, Note_on_c, 1, 77, 0
7, 370560, Note_on_c, 1, 75, 52
7, 370560, Note_on_c, 1, 79, 52
7, 370799, Note_on_c, 1, 75, 0
7, 370799, Note_on_c, 1, 79, 0
7, 374400, Control_c, 1, 11, 64
7, 374640, Note_on_c, 1, 75, 84
7, 374640, Note_on_c, 1, 79, 84
7, 374819, Note_on_c, 1, 75, 0
7, 374819, Note_on_c, 1, 79, 0
7, 374880, Note_on_c, 1, 75, 84
7, 374880, Note_on_c, 1, 70, 84
7, 375059, Note_on_c, 1, 75, 0
7, 375059, Note_on_c, 1, 70, 0
7, 375120, Note_on_c, 1, 79, 84
7, 375120, Note_on_c, 1, 75, 84
7, 375299, Note_on_c, 1, 79, 0
7, 375299, Note_on_c, 1, 75, 0
7, 375360, Control_c, 1, 11, 64
7, 375440, Control_c, 1, 11, 66
7, 375520, Control_c, 1, 11, 68
7, 375600, Note_on_c, 1, 75, 84
7, 375600, Control_c, 1, 11, 69
7, 375600, Note_on_c, 1, 79, 84
7, 375680, Control_c, 1, 11, 71
7, 375760, Control_c, 1, 11, 73
7, 375779, Note_on_c, 1, 75, 0
7, 375779, Note_on_c, 1, 79, 0
7, 375840, Note_on_c, 1, 72, 84
7, 375840, Note_on_c, 1, 75, 84
7, 375840, Control_c, 1, 11, 75
7, 375920, Control_c, 1, 11, 76
7, 376000, Control_c, 1, 11, 78
7, 376019, Note_on_c, 1, 72, 0
7, 376019, Note_on_c, 1, 75, 0
7, 376080, Control_c, 1, 11, 80
7, 376080, Note_on_c, 1, 79, 84
7, 376080, Note_on_c, 1, 75, 84
7, 376160, Control_c, 1, 11, 82
7, 376240, Control_c, 1, 11, 83
7, 376259, Note_on_c, 1, 79, 0
7, 376259, Note_on_c, 1, 75, 0
7, 376320, Control_c, 1, 11, 85
7, 376400, Control_c, 1, 11, 87
7, 376480, Control_c, 1, 11, 89
7, 376560, Note_on_c, 1, 75, 84
7, 376560, Control_c, 1, 11, 90
7, 376560, Note_on_c, 1, 77, 84
7, 376640, Control_c, 1, 11, 92
7, 376720, Control_c, 1, 11, 94
7, 376739, Note_on_c, 1, 75, 0
7, 376739, Note_on_c, 1, 77, 0
7, 376800, Control_c, 1, 11, 96
7, 376800, Note_on_c, 1, 72, 84
7, 376800, Note_on_c, 1, 75, 84
7, 376880, Control_c, 1, 11, 97
7, 376960, Control_c, 1, 11, 99
7, 376979, Note_on_c, 1, 72, 0
7, 376979, Note_on_c, 1, 75, 0
7, 377040, Note_on_c, 1, 77, 84
7, 377040, Control_c, 1, 11, 101
7, 377040, Note_on_c, 1, 75, 84
7, 377120, Control_c, 1, 11, 103
7, 377200, Control_c, 1, 11, 104
7, 377219, Note_on_c, 1, 77, 0
7, 377219, Note_on_c, 1, 75, 0
7, 377280, Control_c, 1, 11, 106
7, 377360, Control_c, 1, 11, 108
7, 377440, Control_c, 1, 11, 110
7, 377520, Note_on_c, 1, 77, 84
7, 377520, Note_on_c, 1, 74, 84
7, 377520, Control_c, 1, 11, 111
7, 377600, Control_c, 1, 11, 113
7, 377680, Control_c, 1, 11, 115
7, 377699, Note_on_c, 1, 77, 0
7, 377699, Note_on_c, 1, 74, 0
7, 377760, Note_on_c, 1, 74, 84
7, 377760, Control_c, 1, 11, 117
7, 377760, Note_on_c, 1, 70, 84
7, 377840, Control_c, 1, 11, 118
7, 377920, Control_c, 1, 11, 120
7, 377939, Note_on_c, 1, 74, 0
7, 377939, Note_on_c, 1, 70, 0
7, 378000, Note_on_c, 1, 77, 84
7, 378000, Note_on_c, 1, 74, 84
7, 378000, Control_c, 1, 11, 122
7, 378080, Control_c, 1, 11, 124
7, 378160, Control_c, 1, 11, 127
7, 378179, Note_on_c, 1, 77, 0
7, 378179, Note_on_c, 1, 74, 0
7, 378240, Note_on_c, 1, 79, 84
7, 378240, Note_on_c, 1, 75, 84
7, 380144, Note_on_c, 1, 79, 0
7, 380144, Note_on_c, 1, 75, 0
7, 380160, Note_on_c, 1, 79, 84
7, 380160, Note_on_c, 1, 75, 84
7, 381104, Note_on_c, 1, 79, 0
7, 381104, Note_on_c, 1, 75, 0
7, 381120, Note_on_c, 1, 75, 84
7, 381120, Note_on_c, 1, 79, 84
7, 381359, Note_on_c, 1, 75, 0
7, 381359, Note_on_c, 1, 79, 0
7, 381600, Note_on_c, 1, 75, 84
7, 381600, Note_on_c, 1, 79, 84
7, 381839, Note_on_c, 1, 75, 0
7, 381839, Note_on_c, 1, 79, 0
7, 382080, Note_on_c, 1, 75, 84
7, 382080, Note_on_c, 1, 79, 84
7, 382319, Note_on_c, 1, 75, 0
7, 382319, Note_on_c, 1, 79, 0
7, 385920, Note_on_c, 1, 83, 84
7, 385920, Note_on_c, 1, 74, 84
7, 387824, Note_on_c, 1, 83, 0
7, 387824, Note_on_c, 1, 74, 0
7, 387840, Note_on_c, 1, 74, 84
7, 387840, Note_on_c, 1, 83, 84
7, 388784, Note_on_c, 1, 74, 0
7, 388784, Note_on_c, 1, 83, 0
7, 388800, Note_on_c, 1, 83, 84
7, 388800, Note_on_c, 1, 74, 84
7, 389039, Note_on_c, 1, 83, 0
7, 389039, Note_on_c, 1, 74, 0
7, 389280, Note_on_c, 1, 74, 84
7, 389280, Note_on_c, 1, 83, 84
7, 389519, Note_on_c, 1, 74, 0
7, 389519, Note_on_c, 1, 83, 0
7, 389760, Note_on_c, 1, 83, 84
7, 389760, Note_on_c, 1, 74, 84
7, 389999, Note_on_c, 1, 83, 0
7, 389999, Note_on_c, 1, 74, 0
7, 393600, Note_on_c, 1, 82, 84
7, 393600, Note_on_c, 1, 73, 84
7, 395504, Note_on_c, 1, 82, 0
7, 395504, Note_on_c, 1, 73, 0
7, 395520, Note_on_c, 1, 82, 84
7, 395520, Note_on_c, 1, 73, 84
7, 396464, Note_on_c, 1, 82, 0
7, 396464, Note_on_c, 1, 73, 0
7, 396480, Note_on_c, 1, 73, 84
7, 396480, Note_on_c, 1, 82, 84
7, 396719, Note_on_c, 1, 73, 0
7, 396719, Note_on_c, 1, 82, 0
7, 396960, Note_on_c, 1, 82, 84
7, 396960, Note_on_c, 1, 73, 84
7, 397199, Note_on_c, 1, 82, 0
7, 397199, Note_on_c, 1, 73, 0
7, 397440, Note_on_c, 1, 73, 76
7, 397440, Note_on_c, 1, 82, 76
7, 397679, Note_on_c, 1, 73, 0
7, 397679, Note_on_c, 1, 82, 0
7, 398400, Note_on_c, 1, 73, 76
7, 398400, Note_on_c, 1, 82, 76
7, 398639, Note_on_c, 1, 73, 0
7, 398639, Note_on_c, 1, 82, 0
7, 399360, Note_on_c, 1, 73, 76
7, 399360, Note_on_c, 1, 82, 76
7, 399599, Note_on_c, 1, 73, 0
7, 399599, Note_on_c, 1, 82, 0
7, 400320, Note_on_c, 1, 82, 76
7, 400320, Note_on_c, 1, 73, 76
7, 400559, Note_on_c, 1, 82, 0
7, 400559, Note_on_c, 1, 73, 0
7, 401280, Note_on_c, 1, 82, 76
7, 401280, Note_on_c, 1, 73, 76
7, 401519, Note_on_c, 1, 82, 0
7, 401519, Note_on_c, 1, 73, 0
7, 403200, Note_on_c, 1, 82, 52
7, 403200, Note_on_c, 1, 73, 52
7, 403439, Note_on_c, 1, 82, 0
7, 403439, Note_on_c, 1, 73, 0
7, 405120, Note_on_c, 1, 73, 44
7, 405120, Note_on_c, 1, 82, 44
7, 405359, Note_on_c, 1, 73, 0
7, 405359, Note_on_c, 1, 82, 0
7, 466560, Note_on_c, 1, 86, 84
7, 466560, Note_on_c, 1, 82, 84
7, 469424, Note_on_c, 1, 86, 0
7, 469424, Note_on_c, 1, 82, 0
7, 469440, Note_on_c, 1, 86, 84
7, 469440, Note_on_c, 1, 82, 84
7, 469619, Note_on_c, 1, 86, 0
7, 469619, Note_on_c, 1, 82, 0
7, 469920, Note_on_c, 1, 86, 84
7, 469920, Note_on_c, 1, 82, 84
7, 470099, Note_on_c, 1, 86, 0
7, 470099, Note_on_c, 1, 82, 0
7, 470400, Note_on_c, 1, 86, 84
7, 470400, Note_on_c, 1, 82, 84
7, 470579, Note_on_c, 1, 86, 0
7, 470579, Note_on_c, 1, 82, 0
7, 474120, Note_on_c, 1, 82, 84
7, 474179, Note_on_c, 1, 82, 0
7, 474180, Note_on_c, 1, 84, 84
7, 474231, Note_on_c, 1, 84, 0
7, 474240, Note_on_c, 1, 86, 76
7, 474359, Note_on_c, 1, 86, 0
7, 474480, Note_on_c, 1, 82, 52
7, 474599, Note_on_c, 1, 82, 0
7, 474720, Note_on_c, 1, 77, 52
7, 474839, Note_on_c, 1, 77, 0
7, 474960, Note_on_c, 1, 82, 52
7, 475079, Note_on_c, 1, 82, 0
7, 475200, Note_on_c, 1, 74, 52
7, 475319, Note_on_c, 1, 74, 0
7, 475440, Note_on_c, 1, 77, 52
7, 475559, Note_on_c, 1, 77, 0
7, 475680, Note_on_c, 1, 70, 52
7, 475799, Note_on_c, 1, 70, 0
7, 475920, Note_on_c, 1, 74, 52
7, 476039, Note_on_c, 1, 74, 0
7, 476160, Note_on_c, 1, 67, 52
7, 476279, Note_on_c, 1, 67, 0
7, 476400, Note_on_c, 1, 75, 52
7, 476519, Note_on_c, 1, 75, 0
7, 476640, Note_on_c, 1, 72, 52
7, 476759, Note_on_c, 1, 72, 0
7, 476880, Note_on_c, 1, 70, 52
7, 476999, Note_on_c, 1, 70, 0
7, 477120, Note_on_c, 1, 69, 52
7, 477239, Note_on_c, 1, 69, 0
7, 477360, Note_on_c, 1, 77, 52
7, 477479, Note_on_c, 1, 77, 0
7, 477600, Note_on_c, 1, 75, 52
7, 477719, Note_on_c, 1, 75, 0
7, 477840, Note_on_c, 1, 72, 52
7, 477959, Note_on_c, 1, 72, 0
7, 478080, Note_on_c, 1, 70, 52
7, 478319, Note_on_c, 1, 70, 0
7, 480960, Control_c, 1, 11, 64
7, 481200, Note_on_c, 1, 79, 84
7, 481439, Note_on_c, 1, 79, 0
7, 481440, Note_on_c, 1, 76, 84
7, 481679, Note_on_c, 1, 76, 0
7, 481680, Note_on_c, 1, 77, 84
7, 481919, Note_on_c, 1, 77, 0
7, 481920, Note_on_c, 1, 74, 84
7, 482159, Note_on_c, 1, 74, 0
7, 482160, Note_on_c, 1, 75, 84
7, 482399, Note_on_c, 1, 75, 0
7, 482400, Note_on_c, 1, 72, 84
7, 482639, Note_on_c, 1, 72, 0
7, 482640, Note_on_c, 1, 74, 84
7, 482879, Note_on_c, 1, 74, 0
7, 482880, Note_on_c, 1, 71, 84
7, 482880, Control_c, 1, 11, 64
7, 482960, Control_c, 1, 11, 69
7, 483040, Control_c, 1, 11, 75
7, 483119, Note_on_c, 1, 71, 0
7, 483120, Note_on_c, 1, 72, 84
7, 483120, Control_c, 1, 11, 80
7, 483200, Control_c, 1, 11, 85
7, 483280, Control_c, 1, 11, 90
7, 483359, Note_on_c, 1, 72, 0
7, 483360, Control_c, 1, 11, 96
7, 483360, Note_on_c, 1, 75, 84
7, 483440, Control_c, 1, 11, 101
7, 483520, Control_c, 1, 11, 106
7, 483599, Note_on_c, 1, 75, 0
7, 483600, Control_c, 1, 11, 111
7, 483600, Note_on_c, 1, 69, 84
7, 483680, Control_c, 1, 11, 117
7, 483760, Control_c, 1, 11, 122
7, 483824, Note_on_c, 1, 69, 0
7, 483832, Control_c, 1, 11, 127
7, 483840, Note_on_c, 1, 70, 84
7, 485744, Note_on_c, 1, 70, 0
7, 485760, Note_on_c, 1, 75, 92
7, 486689, Note_on_c, 1, 75, 0
7, 486720, Note_on_c, 1, 77, 92
7, 487649, Note_on_c, 1, 77, 0
7, 487680, Note_on_c, 1, 74, 92
7, 489089, Note_on_c, 1, 74, 0
7, 489120, Note_on_c, 1, 79, 84
7, 489584, Note_on_c, 1, 79, 0
7, 489600, Note_on_c, 1, 75, 92
7, 490529, Note_on_c, 1, 75, 0
7, 490560, Note_on_c, 1, 80, 92
7, 491489, Note_on_c, 1, 80, 0
7, 491520, Note_on_c, 1, 77, 92
7, 492929, Note_on_c, 1, 77, 0
7, 492960, Note_on_c, 1, 77, 92
7, 492960, Note_on_c, 1, 70, 92
7, 493409, Note_on_c, 1, 77, 0
7, 493409, Note_on_c, 1, 70, 0
7, 493440, Note_on_c, 1, 70, 84
7, 493440, Note_on_c, 1, 79, 84
7, 493904, Note_on_c, 1, 70, 0
7, 493904, Note_on_c, 1, 79, 0
7, 493920, Note_on_c, 1, 79, 92
7, 493920, Note_on_c, 1, 72, 92
7, 494369, Note_on_c, 1, 79, 0
7, 494369, Note_on_c, 1, 72, 0
7, 494400, Note_on_c, 1, 72, 84
7, 494400, Note_on_c, 1, 81, 84
7, 494864, Note_on_c, 1, 72, 0
7, 494864, Note_on_c, 1, 81, 0
7, 494880, Note_on_c, 1, 74, 92
7, 494880, Note_on_c, 1, 81, 92
7, 495329, Note_on_c, 1, 74, 0
7, 495329, Note_on_c, 1, 81, 0
7, 495360, Note_on_c, 1, 82, 84
7, 495360, Note_on_c, 1, 74, 84
7, 495824, Note_on_c, 1, 82, 0
7, 495824, Note_on_c, 1, 74, 0
7, 495840, Note_on_c, 1, 82, 92
7, 495840, Note_on_c, 1, 75, 92
7, 496289, Note_on_c, 1, 82, 0
7, 496289, Note_on_c, 1, 75, 0
7, 496320, Note_on_c, 1, 84, 84
7, 496320, Note_on_c, 1, 75, 84
7, 496784, Note_on_c, 1, 84, 0
7, 496784, Note_on_c, 1, 75, 0
7, 496800, Note_on_c, 1, 77, 92
7, 496800, Note_on_c, 1, 84, 92
7, 497249, Note_on_c, 1, 77, 0
7, 497249, Note_on_c, 1, 84, 0
7, 497280, Note_on_c, 1, 86, 84
7, 497280, Note_on_c, 1, 82, 84
7, 499664, Note_on_c, 1, 86, 0
7, 499664, Note_on_c, 1, 82, 0
7, 499680, Note_on_c, 1, 77, 84
7, 500144, Note_on_c, 1, 77, 0
7, 500160, Note_on_c, 1, 74, 84
7, 500624, Note_on_c, 1, 74, 0
7, 500640, Note_on_c, 1, 70, 84
7, 501104, Note_on_c, 1, 70, 0
7, 501120, Note_on_c, 1, 65, 84
7, 501344, Note_on_c, 1, 65, 0
7, 501360, Note_on_c, 1, 77, 92
7, 501809, Note_on_c, 1, 77, 0
7, 501840, Note_on_c, 1, 77, 84
7, 502304, Note_on_c, 1, 77, 0
7, 502320, Note_on_c, 1, 77, 84
7, 502784, Note_on_c, 1, 77, 0
7, 502800, Note_on_c, 1, 77, 84
7, 503264, Note_on_c, 1, 77, 0
7, 503280, Note_on_c, 1, 77, 84
7, 503744, Note_on_c, 1, 77, 0
7, 503760, Note_on_c, 1, 77, 84
7, 504224, Note_on_c, 1, 77, 0
7, 504240, Note_on_c, 1, 79, 92
7, 504719, Note_on_c, 1, 79, 0
7, 504720, Note_on_c, 1, 77, 84
7, 504944, Note_on_c, 1, 77, 0
7, 504960, Note_on_c, 1, 77, 84
7, 505139, Note_on_c, 1, 77, 0
7, 508080, Note_on_c, 1, 82, 92
7, 508080, Note_on_c, 1, 76, 92
7, 508559, Note_on_c, 1, 82, 0
7, 508559, Note_on_c, 1, 76, 0
7, 508560, Note_on_c, 1, 77, 84
7, 508560, Note_on_c, 1, 81, 84
7, 508784, Note_on_c, 1, 77, 0
7, 508784, Note_on_c, 1, 81, 0
7, 508800, Note_on_c, 1, 81, 84
7, 508800, Note_on_c, 1, 77, 84
7, 509039, Note_on_c, 1, 81, 0
7, 509039, Note_on_c, 1, 77, 0
7, 516480, Note_on_c, 1, 82, 52
7, 516599, Note_on_c, 1, 82, 0
7, 516600, Note_on_c, 1, 79, 52
7, 516719, Note_on_c, 1, 79, 0
7, 516720, Note_on_c, 1, 81, 52
7, 516839, Note_on_c, 1, 81, 0
7, 516840, Note_on_c, 1, 78, 52
7, 516944, Note_on_c, 1, 78, 0
7, 516960, Note_on_c, 1, 79, 52
7, 517139, Note_on_c, 1, 79, 0
7, 517200, Note_on_c, 1, 74, 52
7, 517379, Note_on_c, 1, 74, 0
7, 517440, Note_on_c, 1, 79, 52
7, 517619, Note_on_c, 1, 79, 0
7, 517680, Note_on_c, 1, 81, 52
7, 517859, Note_on_c, 1, 81, 0
7, 517920, Note_on_c, 1, 82, 52
7, 518099, Note_on_c, 1, 82, 0
7, 518160, Note_on_c, 1, 84, 52
7, 518339, Note_on_c, 1, 84, 0
7, 518400, Note_on_c, 1, 86, 52
7, 519119, Note_on_c, 1, 86, 0
7, 519120, Note_on_c, 1, 84, 52
7, 519359, Note_on_c, 1, 84, 0
7, 519360, Note_on_c, 1, 82, 52
7, 520079, Note_on_c, 1, 82, 0
7, 520080, Note_on_c, 1, 79, 52
7, 520319, Note_on_c, 1, 79, 0
7, 520320, Note_on_c, 1, 78, 52
7, 521039, Note_on_c, 1, 78, 0
7, 521040, Note_on_c, 1, 81, 52
7, 521231, Note_on_c, 1, 81, 0
7, 521240, Note_on_c, 1, 81, 52
7, 521279, Note_on_c, 1, 81, 0
7, 521280, Note_on_c, 1, 79, 52
7, 521519, Note_on_c, 1, 79, 0
7, 521520, Note_on_c, 1, 78, 52
7, 521759, Note_on_c, 1, 78, 0
7, 521760, Note_on_c, 1, 79, 52
7, 521999, Note_on_c, 1, 79, 0
7, 522000, Note_on_c, 1, 75, 52
7, 522239, Note_on_c, 1, 75, 0
7, 522240, Note_on_c, 1, 74, 52
7, 522479, Note_on_c, 1, 74, 0
7, 536640, Note_on_c, 1, 84, 76
7, 536640, Note_on_c, 1, 81, 76
7, 536999, Note_on_c, 1, 84, 0
7, 536999, Note_on_c, 1, 81, 0
7, 537120, Note_on_c, 1, 81, 76
7, 537120, Note_on_c, 1, 84, 76
7, 537479, Note_on_c, 1, 81, 0
7, 537479, Note_on_c, 1, 84, 0
7, 537600, Note_on_c, 1, 81, 76
7, 537600, Note_on_c, 1, 84, 76
7, 537959, Note_on_c, 1, 81, 0
7, 537959, Note_on_c, 1, 84, 0
7, 538080, Note_on_c, 1, 84, 76
7, 538080, Note_on_c, 1, 81, 76
7, 538439, Note_on_c, 1, 84, 0
7, 538439, Note_on_c, 1, 81, 0
7, 538560, Note_on_c, 1, 84, 76
7, 538560, Note_on_c, 1, 81, 76
7, 538919, Note_on_c, 1, 84, 0
7, 538919, Note_on_c, 1, 81, 0
7, 539040, Note_on_c, 1, 84, 76
7, 539040, Note_on_c, 1, 81, 76
7, 539399, Note_on_c, 1, 84, 0
7, 539399, Note_on_c, 1, 81, 0
7, 539520, Note_on_c, 1, 82, 76
7, 539520, Note_on_c, 1, 86, 76
7, 539759, Note_on_c, 1, 82, 0
7, 539759, Note_on_c, 1, 86, 0
7, 540480, Note_on_c, 1, 82, 76
7, 540480, Note_on_c, 1, 79, 76
7, 540719, Note_on_c, 1, 82, 0
7, 540719, Note_on_c, 1, 79, 0
7, 541440, Note_on_c, 1, 74, 76
7, 541440, Note_on_c, 1, 82, 76
7, 541679, Note_on_c, 1, 74, 0
7, 541679, Note_on_c, 1, 82, 0
7, 542160, Note_on_c, 1, 82, 76
7, 542160, Note_on_c, 1, 77, 76
7, 542384, Note_on_c, 1, 82, 0
7, 542384, Note_on_c, 1, 77, 0
7, 542400, Note_on_c, 1, 81, 76
7, 542400, Note_on_c, 1, 77, 76
7, 542624, Note_on_c, 1, 81, 0
7, 542624, Note_on_c, 1, 77, 0
7, 542640, Note_on_c, 1, 81, 76
7, 542640, Note_on_c, 1, 77, 76
7, 542864, Note_on_c, 1, 81, 0
7, 542864, Note_on_c, 1, 77, 0
7, 542880, Note_on_c, 1, 77, 76
7, 542880, Note_on_c, 1, 81, 76
7, 543104, Note_on_c, 1, 77, 0
7, 543104, Note_on_c, 1, 81, 0
7, 543120, Note_on_c, 1, 77, 76
7, 543120, Note_on_c, 1, 81, 76
7, 543344, Note_on_c, 1, 77, 0
7, 543344, Note_on_c, 1, 81, 0
7, 543360, Note_on_c, 1, 82, 76
7, 543360, Note_on_c, 1, 77, 76
7, 543599, Note_on_c, 1, 82, 0
7, 543599, Note_on_c, 1, 77, 0
7, 543840, Note_on_c, 1, 79, 76
7, 543840, Note_on_c, 1, 82, 76
7, 544079, Note_on_c, 1, 79, 0
7, 544079, Note_on_c, 1, 82, 0
7, 544320, Note_on_c, 1, 82, 76
7, 544320, Note_on_c, 1, 74, 76
7, 544559, Note_on_c, 1, 82, 0
7, 544559, Note_on_c, 1, 74, 0
7, 544800, Note_on_c, 1, 81, 76
7, 544800, Note_on_c, 1, 72, 76
7, 545039, Note_on_c, 1, 81, 0
7, 545039, Note_on_c, 1, 72, 0
7, 548880, Note_on_c, 1, 79, 52
7, 549119, Note_on_c, 1, 79, 0
7, 549120, Note_on_c, 1, 81, 52
7, 549359, Note_on_c, 1, 81, 0
7, 549360, Note_on_c, 1, 82, 52
7, 549599, Note_on_c, 1, 82, 0
7, 549600, Note_on_c, 1, 84, 52
7, 549839, Note_on_c, 1, 84, 0
7, 549840, Note_on_c, 1, 82, 52
7, 550064, Note_on_c, 1, 82, 0
7, 550080, Note_on_c, 1, 81, 52
7, 550799, Note_on_c, 1, 81, 0
7, 550800, Note_on_c, 1, 79, 52
7, 551039, Note_on_c, 1, 79, 0
7, 551040, Note_on_c, 1, 77, 52
7, 551279, Note_on_c, 1, 77, 0
7, 551280, Note_on_c, 1, 79, 52
7, 551519, Note_on_c, 1, 79, 0
7, 551520, Note_on_c, 1, 75, 52
7, 551759, Note_on_c, 1, 75, 0
7, 551760, Note_on_c, 1, 72, 52
7, 551999, Note_on_c, 1, 72, 0
7, 552000, Note_on_c, 1, 69, 52
7, 552944, Note_on_c, 1, 69, 0
7, 552960, Note_on_c, 1, 77, 76
7, 552960, Note_on_c, 1, 65, 76
7, 553184, Note_on_c, 1, 77, 0
7, 553184, Note_on_c, 1, 65, 0
7, 553200, Note_on_c, 1, 65, 76
7, 553200, Note_on_c, 1, 77, 76
7, 553424, Note_on_c, 1, 65, 0
7, 553424, Note_on_c, 1, 77, 0
7, 553440, Note_on_c, 1, 77, 76
7, 553440, Note_on_c, 1, 65, 76
7, 553664, Note_on_c, 1, 77, 0
7, 553664, Note_on_c, 1, 65, 0
7, 553680, Note_on_c, 1, 65, 76
7, 553680, Note_on_c, 1, 77, 76
7, 553904, Note_on_c, 1, 65, 0
7, 553904, Note_on_c, 1, 77, 0
7, 553920, Note_on_c, 1, 77, 76
7, 553920, Note_on_c, 1, 65, 76
7, 554624, Note_on_c, 1, 77, 0
7, 554624, Note_on_c, 1, 65, 0
7, 554640, Note_on_c, 1, 77, 76
7, 554640, Note_on_c, 1, 65, 76
7, 554864, Note_on_c, 1, 77, 0
7, 554864, Note_on_c, 1, 65, 0
7, 554880, Note_on_c, 1, 77, 76
7, 554880, Note_on_c, 1, 65, 76
7, 555104, Note_on_c, 1, 77, 0
7, 555104, Note_on_c, 1, 65, 0
7, 555120, Note_on_c, 1, 65, 76
7, 555120, Note_on_c, 1, 77, 76
7, 555344, Note_on_c, 1, 65, 0
7, 555344, Note_on_c, 1, 77, 0
7, 555360, Note_on_c, 1, 65, 76
7, 555360, Note_on_c, 1, 77, 76
7, 555584, Note_on_c, 1, 65, 0
7, 555584, Note_on_c, 1, 77, 0
7, 555600, Note_on_c, 1, 77, 76
7, 555600, Note_on_c, 1, 65, 76
7, 555824, Note_on_c, 1, 77, 0
7, 555824, Note_on_c, 1, 65, 0
7, 555840, Note_on_c, 1, 65, 76
7, 555840, Note_on_c, 1, 77, 76
7, 556544, Note_on_c, 1, 65, 0
7, 556544, Note_on_c, 1, 77, 0
7, 556560, Note_on_c, 1, 77, 76
7, 556560, Note_on_c, 1, 65, 76
7, 556784, Note_on_c, 1, 77, 0
7, 556784, Note_on_c, 1, 65, 0
7, 556800, Note_on_c, 1, 77, 76
7, 556800, Note_on_c, 1, 65, 76
7, 557024, Note_on_c, 1, 77, 0
7, 557024, Note_on_c, 1, 65, 0
7, 557040, Note_on_c, 1, 65, 76
7, 557040, Note_on_c, 1, 77, 76
7, 557264, Note_on_c, 1, 65, 0
7, 557264, Note_on_c, 1, 77, 0
7, 557280, Note_on_c, 1, 77, 76
7, 557280, Note_on_c, 1, 65, 76
7, 557504, Note_on_c, 1, 77, 0
7, 557504, Note_on_c, 1, 65, 0
7, 557520, Note_on_c, 1, 65, 76
7, 557520, Note_on_c, 1, 77, 76
7, 557744, Note_on_c, 1, 65, 0
7, 557744, Note_on_c, 1, 77, 0
7, 557760, Note_on_c, 1, 65, 76
7, 557760, Note_on_c, 1, 77, 76
7, 558464, Note_on_c, 1, 65, 0
7, 558464, Note_on_c, 1, 77, 0
7, 558480, Note_on_c, 1, 77, 76
7, 558480, Note_on_c, 1, 65, 76
7, 558704, Note_on_c, 1, 77, 0
7, 558704, Note_on_c, 1, 65, 0
7, 558720, Note_on_c, 1, 77, 76
7, 558720, Note_on_c, 1, 65, 76
7, 558944, Note_on_c, 1, 77, 0
7, 558944, Note_on_c, 1, 65, 0
7, 558960, Note_on_c, 1, 77, 76
7, 558960, Note_on_c, 1, 65, 76
7, 559184, Note_on_c, 1, 77, 0
7, 559184, Note_on_c, 1, 65, 0
7, 559200, Note_on_c, 1, 65, 76
7, 559200, Note_on_c, 1, 77, 76
7, 559424, Note_on_c, 1, 65, 0
7, 559424, Note_on_c, 1, 77, 0
7, 559440, Note_on_c, 1, 77, 76
7, 559440, Note_on_c, 1, 65, 76
7, 559664, Note_on_c, 1, 77, 0
7, 559664, Note_on_c, 1, 65, 0
7, 559680, Note_on_c, 1, 65, 76
7, 559680, Note_on_c, 1, 77, 76
7, 560639, Note_on_c, 1, 65, 0
7, 560639, Note_on_c, 1, 77, 0
7, 564480, Note_on_c, 1, 77, 84
7, 564480, Note_on_c, 1, 74, 84
7, 564719, Note_on_c, 1, 77, 0
7, 564719, Note_on_c, 1, 74, 0
7, 565200, Note_on_c, 1, 82, 84
7, 565200, Note_on_c, 1, 74, 84
7, 565424, Note_on_c, 1, 82, 0
7, 565424, Note_on_c, 1, 74, 0
7, 565440, Note_on_c, 1, 82, 84
7, 565440, Note_on_c, 1, 72, 84
7, 565679, Note_on_c, 1, 82, 0
7, 565679, Note_on_c, 1, 72, 0
7, 565920, Note_on_c, 1, 72, 84
7, 565920, Note_on_c, 1, 81, 84
7, 566159, Note_on_c, 1, 72, 0
7, 566159, Note_on_c, 1, 81, 0
7, 568320, Note_on_c, 1, 74, 84
7, 568320, Note_on_c, 1, 77, 84
7, 568559, Note_on_c, 1, 74, 0
7, 568559, Note_on_c, 1, 77, 0
7, 569040, Note_on_c, 1, 82, 84
7, 569040, Note_on_c, 1, 74, 84
7, 569264, Note_on_c, 1, 82, 0
7, 569264, Note_on_c, 1, 74, 0
7, 569280, Note_on_c, 1, 72, 84
7, 569280, Note_on_c, 1, 82, 84
7, 569519, Note_on_c, 1, 72, 0
7, 569519, Note_on_c, 1, 82, 0
7, 569760, Note_on_c, 1, 81, 84
7, 569760, Note_on_c, 1, 72, 84
7, 569999, Note_on_c, 1, 81, 0
7, 569999, Note_on_c, 1, 72, 0
7, 572160, Note_on_c, 1, 79, 76
7, 572160, Note_on_c, 1, 73, 76
7, 573104, Note_on_c, 1, 79, 0
7, 573104, Note_on_c, 1, 73, 0
7, 573120, Note_on_c, 1, 74, 76
7, 573120, Note_on_c, 1, 77, 76
7, 574064, Note_on_c, 1, 74, 0
7, 574064, Note_on_c, 1, 77, 0
7, 574080, Note_on_c, 1, 76, 76
7, 574080, Note_on_c, 1, 73, 76
7, 575024, Note_on_c, 1, 76, 0
7, 575024, Note_on_c, 1, 73, 0
7, 575040, Note_on_c, 1, 72, 76
7, 575040, Note_on_c, 1, 75, 76
7, 575984, Note_on_c, 1, 72, 0
7, 575984, Note_on_c, 1, 75, 0
7, 576000, Note_on_c, 1, 73, 84
7, 576000, Note_on_c, 1, 82, 84
7, 577904, Note_on_c, 1, 73, 0
7, 577904, Note_on_c, 1, 82, 0
7, 577920, Note_on_c, 1, 82, 92
7, 577920, Note_on_c, 1, 74, 92
7, 578849, Note_on_c, 1, 82, 0
7, 578849, Note_on_c, 1, 74, 0
7, 578880, Note_on_c, 1, 81, 84
7, 578880, Note_on_c, 1, 72, 84
7, 579824, Note_on_c, 1, 81, 0
7, 579824, Note_on_c, 1, 72, 0
7, 579840, Note_on_c, 1, 82, 84
7, 579840, Note_on_c, 1, 74, 84
7, 580079, Note_on_c, 1, 82, 0
7, 580079, Note_on_c, 1, 74, 0
7, 582960, Note_on_c, 1, 77, 84
7, 583424, Note_on_c, 1, 77, 0
7, 583440, Note_on_c, 1, 81, 84
7, 583440, Note_on_c, 1, 75, 84
7, 583619, Note_on_c, 1, 81, 0
7, 583619, Note_on_c, 1, 75, 0
7, 583680, Note_on_c, 1, 82, 84
7, 583680, Note_on_c, 1, 74, 84
7, 583859, Note_on_c, 1, 82, 0
7, 583859, Note_on_c, 1, 74, 0
7, 586800, Note_on_c, 1, 77, 84
7, 587264, Note_on_c, 1, 77, 0
7, 587280, Note_on_c, 1, 81, 84
7, 587280, Note_on_c, 1, 75, 84
7, 587459, Note_on_c, 1, 81, 0
7, 587459, Note_on_c, 1, 75, 0
7, 587520, Note_on_c, 1, 82, 84
7, 587520, Note_on_c, 1, 74, 84
7, 587699, Note_on_c, 1, 82, 0
7, 587699, Note_on_c, 1, 74, 0
7, 587760, Note_on_c, 1, 84, 84
7, 587760, Note_on_c, 1, 72, 84
7, 588224, Note_on_c, 1, 84, 0
7, 588224, Note_on_c, 1, 72, 0
7, 588240, Note_on_c, 1, 74, 84
7, 588240, Note_on_c, 1, 86, 84
7, 588704, Note_on_c, 1, 74, 0
7, 588704, Note_on_c, 1, 86, 0
7, 588720, Note_on_c, 1, 75, 84
7, 588720, Note_on_c, 1, 77, 84
7, 589184, Note_on_c, 1, 75, 0
7, 589184, Note_on_c, 1, 77, 0
7, 589200, Note_on_c, 1, 81, 84
7, 589200, Note_on_c, 1, 75, 84
7, 589424, Note_on_c, 1, 81, 0
7, 589424, Note_on_c, 1, 75, 0
7, 589440, Note_on_c, 1, 75, 84
7, 589440, Note_on_c, 1, 81, 84
7, 591287, Note_on_c, 1, 75, 0
7, 591287, Note_on_c, 1, 81, 0
7, 591300, Note_on_c, 1, 81, 84
7, 591300, Note_on_c, 1, 75, 84
7, 591351, Note_on_c, 1, 81, 0
7, 591351, Note_on_c, 1, 75, 0
7, 591360, Note_on_c, 1, 81, 84
7, 591360, Note_on_c, 1, 75, 84
7, 591599, Note_on_c, 1, 81, 0
7, 591599, Note_on_c, 1, 75, 0
7, 592260, Note_on_c, 1, 75, 84
7, 592260, Note_on_c, 1, 81, 84
7, 592311, Note_on_c, 1, 75, 0
7, 592311, Note_on_c, 1, 81, 0
7, 592320, Note_on_c, 1, 81, 84
7, 592320, Note_on_c, 1, 75, 84
7, 592559, Note_on_c, 1, 81, 0
7, 592559, Note_on_c, 1, 75, 0
7, 593220, Note_on_c, 1, 75, 84
7, 593220, Note_on_c, 1, 81, 84
7, 593271, Note_on_c, 1, 75, 0
7, 593271, Note_on_c, 1, 81, 0
7, 593280, Note_on_c, 1, 75, 84
7, 593280, Note_on_c, 1, 81, 84
7, 593459, Note_on_c, 1, 75, 0
7, 593459, Note_on_c, 1, 81, 0
7, 593760, Note_on_c, 1, 81, 84
7, 593760, Note_on_c, 1, 75, 84
7, 593939, Note_on_c, 1, 81, 0
7, 593939, Note_on_c, 1, 75, 0
7, 594240, Note_on_c, 1, 81, 84
7, 594240, Note_on_c, 1, 75, 84
7, 594419, Note_on_c, 1, 81, 0
7, 594419, Note_on_c, 1, 75, 0
7, 594720, Note_on_c, 1, 81, 84
7, 594720, Note_on_c, 1, 75, 84
7, 594899, Note_on_c, 1, 81, 0
7, 594899, Note_on_c, 1, 75, 0
7, 595200, Note_on_c, 1, 74, 84
7, 595200, Note_on_c, 1, 82, 84
7, 595439, Note_on_c, 1, 74, 0
7, 595439, Note_on_c, 1, 82, 0
7, 596160, Note_on_c, 1, 82, 84
7, 596160, Note_on_c, 1, 74, 84
7, 596399, Note_on_c, 1, 82, 0
7, 596399, Note_on_c, 1, 74, 0
7, 597120, Note_on_c, 1, 74, 84
7, 597120, Note_on_c, 1, 82, 84
7, 597359, Note_on_c, 1, 74, 0
7, 597359, Note_on_c, 1, 82, 0
7, 598080, Note_on_c, 1, 82, 84
7, 598080, Note_on_c, 1, 74, 84
7, 598319, Note_on_c, 1, 82, 0
7, 598319, Note_on_c, 1, 74, 0
7, 599040, Note_on_c, 1, 86, 84
7, 599040, Note_on_c, 1, 82, 84
7, 599279, Note_on_c, 1, 86, 0
7, 599279, Note_on_c, 1, 82, 0
7, 600000, Note_on_c, 1, 86, 84
7, 600000, Note_on_c, 1, 82, 84
7, 600239, Note_on_c, 1, 86, 0
7, 600239, Note_on_c, 1, 82, 0
7, 600960, Note_on_c, 1, 82, 84
7, 600960, Note_on_c, 1, 86, 84
7, 601199, Note_on_c, 1, 82, 0
7, 601199, Note_on_c, 1, 86, 0
7, 601920, Note_on_c, 1, 82, 84
7, 601920, Note_on_c, 1, 86, 84
7, 602159, Note_on_c, 1, 82, 0
7, 602159, Note_on_c, 1, 86, 0
7, 603120, Note_on_c, 1, 79, 52
7, 603359, Note_on_c, 1, 79, 0
7, 603360, Note_on_c, 1, 77, 52
7, 603599, Note_on_c, 1, 77, 0
7, 603600, Note_on_c, 1, 75, 52
7, 603839, Note_on_c, 1, 75, 0
7, 603840, Note_on_c, 1, 74, 52
7, 604079, Note_on_c, 1, 74, 0
7, 604080, Note_on_c, 1, 72, 52
7, 604319, Note_on_c, 1, 72, 0
7, 604320, Note_on_c, 1, 70, 52
7, 604559, Note_on_c, 1, 70, 0
7, 604560, Note_on_c, 1, 72, 52
7, 604784, Note_on_c, 1, 72, 0
7, 604800, Note_on_c, 1, 72, 76
7, 604800, Note_on_c, 1, 77, 76
7, 605744, Note_on_c, 1, 72, 0
7, 605744, Note_on_c, 1, 77, 0
7, 605760, Note_on_c, 1, 77, 76
7, 605760, Note_on_c, 1, 72, 76
7, 606647, Note_on_c, 1, 77, 0
7, 606647, Note_on_c, 1, 72, 0
7, 606660, Note_on_c, 1, 77, 76
7, 606660, Note_on_c, 1, 72, 76
7, 606711, Note_on_c, 1, 77, 0
7, 606711, Note_on_c, 1, 72, 0
7, 606720, Note_on_c, 1, 77, 76
7, 606720, Note_on_c, 1, 74, 76
7, 606944, Note_on_c, 1, 77, 0
7, 606944, Note_on_c, 1, 74, 0
7, 606960, Note_on_c, 1, 79, 52
7, 607199, Note_on_c, 1, 79, 0
7, 607200, Note_on_c, 1, 77, 52
7, 607439, Note_on_c, 1, 77, 0
7, 607440, Note_on_c, 1, 75, 52
7, 607679, Note_on_c, 1, 75, 0
7, 607680, Note_on_c, 1, 74, 52
7, 607919, Note_on_c, 1, 74, 0
7, 607920, Note_on_c, 1, 72, 52
7, 608159, Note_on_c, 1, 72, 0
7, 608160, Note_on_c, 1, 70, 52
7, 608399, Note_on_c, 1, 70, 0
7, 608400, Note_on_c, 1, 72, 52
7, 608624, Note_on_c, 1, 72, 0
7, 608640, Note_on_c, 1, 72, 76
7, 608640, Note_on_c, 1, 77, 76
7, 609584, Note_on_c, 1, 72, 0
7, 609584, Note_on_c, 1, 77, 0
7, 609600, Note_on_c, 1, 77, 76
7, 609600, Note_on_c, 1, 72, 76
7, 610487, Note_on_c, 1, 77, 0
7, 610487, Note_on_c, 1, 72, 0
7, 610500, Note_on_c, 1, 72, 76
7, 610500, Note_on_c, 1, 77, 76
7, 610551, Note_on_c, 1, 72, 0
7, 610551, Note_on_c, 1, 77, 0
7, 610560, Note_on_c, 1, 77, 52
7, 610560, Note_on_c, 1, 74, 52
7, 610799, Note_on_c, 1, 77, 0
7, 610799, Note_on_c, 1, 74, 0
7, 614339, Control_c, 1, 11, 95
7, 614400, Note_on_c, 1, 74, 84
7, 614400, Note_on_c, 1, 70, 84
7, 614461, Control_c, 1, 11, 96
7, 614583, Control_c, 1, 11, 97
7, 614705, Control_c, 1, 11, 98
7, 614827, Control_c, 1, 11, 99
7, 614949, Control_c, 1, 11, 100
7, 615070, Control_c, 1, 11, 101
7, 615192, Control_c, 1, 11, 102
7, 615314, Control_c, 1, 11, 103
7, 615436, Control_c, 1, 11, 104
7, 615558, Control_c, 1, 11, 105
7, 615680, Control_c, 1, 11, 106
7, 615802, Control_c, 1, 11, 107
7, 615924, Control_c, 1, 11, 108
7, 616046, Control_c, 1, 11, 109
7, 616168, Control_c, 1, 11, 110
7, 616290, Control_c, 1, 11, 111
7, 616304, Note_on_c, 1, 74, 0
7, 616304, Note_on_c, 1, 70, 0
7, 616320, Note_on_c, 1, 69, 84
7, 616320, Note_on_c, 1, 77, 84
7, 616411, Control_c, 1, 11, 112
7, 616533, Control_c, 1, 11, 113
7, 616655, Control_c, 1, 11, 114
7, 616777, Control_c, 1, 11, 115
7, 616899, Control_c, 1, 11, 116
7, 617021, Control_c, 1, 11, 117
7, 617143, Control_c, 1, 11, 118
7, 617265, Control_c, 1, 11, 119
7, 617387, Control_c, 1, 11, 120
7, 617509, Control_c, 1, 11, 121
7, 617630, Control_c, 1, 11, 122
7, 617752, Control_c, 1, 11, 123
7, 617874, Control_c, 1, 11, 124
7, 617996, Control_c, 1, 11, 125
7, 618118, Control_c, 1, 11, 127
7, 618224, Note_on_c, 1, 69, 0
7, 618224, Note_on_c, 1, 77, 0
7, 618240, Note_on_c, 1, 74, 84
7, 618240, Note_on_c, 1, 82, 84
7, 620159, Note_on_c, 1, 74, 0
7, 620159, Note_on_c, 1, 82, 0
7, 620160, Note_on_c, 1, 74, 84
7, 620160, Note_on_c, 1, 82, 84
7, 622007, Note_on_c, 1, 74, 0
7, 622007, Note_on_c, 1, 82, 0
7, 622020, Note_on_c, 1, 82, 84
7, 622020, Note_on_c, 1, 74, 84
7, 622071, Note_on_c, 1, 82, 0
7, 622071, Note_on_c, 1, 74, 0
7, 622080, Note_on_c, 1, 74, 84
7, 622080, Note_on_c, 1, 82, 84
7, 622319, Note_on_c, 1, 74, 0
7, 622319, Note_on_c, 1, 82, 0
7, 622560, Note_on_c, 1, 74, 84
7, 622560, Note_on_c, 1, 82, 84
7, 622799, Note_on_c, 1, 74, 0
7, 622799, Note_on_c, 1, 82, 0
7, 623040, Note_on_c, 1, 74, 84
7, 623040, Note_on_c, 1, 82, 84
7, 623279, Note_on_c, 1, 74, 0
7, 623279, Note_on_c, 1, 82, 0
7, 624000, Note_on_c, 1, 82, 84
7, 624000, Note_on_c, 1, 74, 84
7, 624239, Note_on_c, 1, 82, 0
7, 624239, Note_on_c, 1, 74, 0
7, 624960, Note_on_c, 1, 70, 84
7, 625199, Note_on_c, 1, 70, 0
7, 625199, End_track
8, 0, Start_track
8, 0, Title_t, "Clarinet in B-flat"
8, 0, MIDI_port, 0
8, 0, Program_c, 2, 71
8, 0, Control_c, 2, 7, 88
8, 0, Control_c, 2, 10, 75
8, 0, Control_c, 2, 11, 96
8, 0, Note_on_c, 2, 70, 60
8, 959, Note_on_c, 2, 70, 0
8, 960, Note_on_c, 2, 70, 60
8, 1919, Note_on_c, 2, 70, 0
8, 1920, Note_on_c, 2, 70, 60
8, 2879, Note_on_c, 2, 70, 0
8, 2880, Note_on_c, 2, 70, 60
8, 3839, Note_on_c, 2, 70, 0
8, 3840, Note_on_c, 2, 70, 60
8, 3840, Control_c, 2, 11, 96
8, 3860, Control_c, 2, 11, 97
8, 3880, Control_c, 2, 11, 99
8, 3900, Control_c, 2, 11, 100
8, 3920, Control_c, 2, 11, 101
8, 3940, Control_c, 2, 11, 102
8, 3960, Control_c, 2, 11, 104
8, 3980, Control_c, 2, 11, 105
8, 4000, Control_c, 2, 11, 106
8, 4020, Control_c, 2, 11, 108
8, 4040, Control_c, 2, 11, 109
8, 4060, Control_c, 2, 11, 110
8, 4080, Control_c, 2, 11, 112
8, 4100, Control_c, 2, 11, 113
8, 4120, Control_c, 2, 11, 114
8, 4140, Control_c, 2, 11, 115
8, 4160, Control_c, 2, 11, 117
8, 4180, Control_c, 2, 11, 118
8, 4200, Control_c, 2, 11, 119
8, 4220, Control_c, 2, 11, 121
8, 4240, Control_c, 2, 11, 122
8, 4260, Control_c, 2, 11, 123
8, 4280, Control_c, 2, 11, 124
8, 4300, Control_c, 2, 11, 126
8, 4320, Control_c, 2, 11, 127
8, 4340, Control_c, 2, 11, 126
8, 4360, Control_c, 2, 11, 124
8, 4380, Control_c, 2, 11, 123
8, 4400, Control_c, 2, 11, 122
8, 4420, Control_c, 2, 11, 121
8, 4440, Control_c, 2, 11, 119
8, 4460, Control_c, 2, 11, 118
8, 4480, Control_c, 2, 11, 117
8, 4500, Control_c, 2, 11, 115
8, 4520, Control_c, 2, 11, 114
8, 4540, Control_c, 2, 11, 113
8, 4560, Control_c, 2, 11, 112
8, 4580, Control_c, 2, 11, 110
8, 4600, Control_c, 2, 11, 109
8, 4620, Control_c, 2, 11, 108
8, 4640, Control_c, 2, 11, 106
8, 4660, Control_c, 2, 11, 105
8, 4680, Control_c, 2, 11, 104
8, 4700, Control_c, 2, 11, 102
8, 4720, Control_c, 2, 11, 101
8, 4740, Control_c, 2, 11, 100
8, 4760, Control_c, 2, 11, 99
8, 4780, Control_c, 2, 11, 97
8, 4787, Note_on_c, 2, 70, 0
8, 4800, Note_on_c, 2, 65, 60
8, 4919, Note_on_c, 2, 65, 0
8, 9120, Control_c, 2, 11, 127
8, 9360, Note_on_c, 2, 63, 44
8, 9360, Note_on_c, 2, 69, 44
8, 9479, Note_on_c, 2, 63, 0
8, 9479, Note_on_c, 2, 69, 0
8, 9600, Note_on_c, 2, 72, 44
8, 9600, Note_on_c, 2, 63, 44
8, 9719, Note_on_c, 2, 72, 0
8, 9719, Note_on_c, 2, 63, 0
8, 10320, Note_on_c, 2, 75, 44
8, 10320, Note_on_c, 2, 69, 44
8, 10439, Note_on_c, 2, 75, 0
8, 10439, Note_on_c, 2, 69, 0
8, 10560, Note_on_c, 2, 78, 44
8, 10560, Note_on_c, 2, 69, 44
8, 10679, Note_on_c, 2, 78, 0
8, 10679, Note_on_c, 2, 69, 0
8, 10800, Note_on_c, 2, 69, 44
8, 10800, Note_on_c, 2, 75, 44
8, 10919, Note_on_c, 2, 69, 0
8, 10919, Note_on_c, 2, 75, 0
8, 11040, Note_on_c, 2, 69, 44
8, 11040, Note_on_c, 2, 72, 44
8, 11159, Note_on_c, 2, 69, 0
8, 11159, Note_on_c, 2, 72, 0
8, 11280, Note_on_c, 2, 63, 44
8, 11280, Note_on_c, 2, 69, 44
8, 11399, Note_on_c, 2, 63, 0
8, 11399, Note_on_c, 2, 69, 0
8, 11520, Note_on_c, 2, 70, 76
8, 11550, Control_c, 2, 11, 80
8, 12479, Note_on_c, 2, 70, 0
8, 12480, Note_on_c, 2, 70, 68
8, 13439, Note_on_c, 2, 70, 0
8, 13440, Note_on_c, 2, 70, 68
8, 14399, Note_on_c, 2, 70, 0
8, 14400, Note_on_c, 2, 70, 68
8, 15359, Note_on_c, 2, 70, 0
8, 15360, Control_c, 2, 11, 80
8, 15360, Note_on_c, 2, 70, 68
8, 15380, Control_c, 2, 11, 81
8, 15400, Control_c, 2, 11, 83
8, 15420, Control_c, 2, 11, 84
8, 15440, Control_c, 2, 11, 85
8, 15460, Control_c, 2, 11, 87
8, 15480, Control_c, 2, 11, 88
8, 15500, Control_c, 2, 11, 89
8, 15520, Control_c, 2, 11, 91
8, 15540, Control_c, 2, 11, 92
8, 15560, Control_c, 2, 11, 93
8, 15580, Control_c, 2, 11, 95
8, 15600, Control_c, 2, 11, 96
8, 15620, Control_c, 2, 11, 97
8, 15640, Control_c, 2, 11, 99
8, 15660, Control_c, 2, 11, 100
8, 15680, Control_c, 2, 11, 101
8, 15700, Control_c, 2, 11, 103
8, 15720, Control_c, 2, 11, 104
8, 15740, Control_c, 2, 11, 105
8, 15760, Control_c, 2, 11, 107
8, 15780, Control_c, 2, 11, 108
8, 15800, Control_c, 2, 11, 109
8, 15820, Control_c, 2, 11, 111
8, 15840, Control_c, 2, 11, 112
8, 15860, Control_c, 2, 11, 111
8, 15880, Control_c, 2, 11, 109
8, 15900, Control_c, 2, 11, 108
8, 15920, Control_c, 2, 11, 107
8, 15940, Control_c, 2, 11, 105
8, 15960, Control_c, 2, 11, 104
8, 15980, Control_c, 2, 11, 103
8, 16000, Control_c, 2, 11, 101
8, 16020, Control_c, 2, 11, 100
8, 16040, Control_c, 2, 11, 99
8, 16060, Control_c, 2, 11, 97
8, 16080, Control_c, 2, 11, 96
8, 16100, Control_c, 2, 11, 95
8, 16120, Control_c, 2, 11, 93
8, 16140, Control_c, 2, 11, 92
8, 16160, Control_c, 2, 11, 91
8, 16180, Control_c, 2, 11, 89
8, 16200, Control_c, 2, 11, 88
8, 16220, Control_c, 2, 11, 87
8, 16240, Control_c, 2, 11, 85
8, 16260, Control_c, 2, 11, 84
8, 16280, Control_c, 2, 11, 83
8, 16300, Control_c, 2, 11, 81
8, 16439, Note_on_c, 2, 70, 0
8, 20160, Control_c, 2, 11, 127
8, 20880, Note_on_c, 2, 64, 52
8, 20880, Note_on_c, 2, 70, 52
8, 20999, Note_on_c, 2, 64, 0
8, 20999, Note_on_c, 2, 70, 0
8, 21120, Note_on_c, 2, 73, 52
8, 21120, Note_on_c, 2, 64, 52
8, 21239, Note_on_c, 2, 73, 0
8, 21239, Note_on_c, 2, 64, 0
8, 21840, Note_on_c, 2, 76, 52
8, 21840, Note_on_c, 2, 64, 52
8, 21959, Note_on_c, 2, 76, 0
8, 21959, Note_on_c, 2, 64, 0
8, 22080, Note_on_c, 2, 79, 52
8, 22080, Note_on_c, 2, 64, 52
8, 22199, Note_on_c, 2, 79, 0
8, 22199, Note_on_c, 2, 64, 0
8, 22320, Note_on_c, 2, 76, 52
8, 22320, Note_on_c, 2, 64, 52
8, 22439, Note_on_c, 2, 76, 0
8, 22439, Note_on_c, 2, 64, 0
8, 22560, Note_on_c, 2, 64, 52
8, 22560, Note_on_c, 2, 73, 52
8, 22679, Note_on_c, 2, 64, 0
8, 22679, Note_on_c, 2, 73, 0
8, 22800, Note_on_c, 2, 64, 52
8, 22800, Note_on_c, 2, 70, 52
8, 22919, Note_on_c, 2, 64, 0
8, 22919, Note_on_c, 2, 70, 0
8, 24720, Note_on_c, 2, 79, 52
8, 24720, Note_on_c, 2, 67, 52
8, 25079, Note_on_c, 2, 79, 0
8, 25079, Note_on_c, 2, 67, 0
8, 25680, Note_on_c, 2, 67, 52
8, 25680, Note_on_c, 2, 79, 52
8, 26039, Note_on_c, 2, 67, 0
8, 26039, Note_on_c, 2, 79, 0
8, 26640, Note_on_c, 2, 69, 52
8, 26640, Note_on_c, 2, 81, 52
8, 26999, Note_on_c, 2, 69, 0
8, 26999, Note_on_c, 2, 81, 0
8, 29760, Note_on_c, 2, 69, 52
8, 29760, Control_c, 2, 11, 127
8, 29824, Control_c, 2, 11, 126
8, 29888, Control_c, 2, 11, 125
8, 29952, Control_c, 2, 11, 124
8, 30016, Control_c, 2, 11, 123
8, 30080, Control_c, 2, 11, 122
8, 30144, Control_c, 2, 11, 121
8, 30208, Control_c, 2, 11, 120
8, 30272, Control_c, 2, 11, 119
8, 30336, Control_c, 2, 11, 118
8, 30400, Control_c, 2, 11, 117
8, 30464, Control_c, 2, 11, 116
8, 30528, Control_c, 2, 11, 115
8, 30592, Control_c, 2, 11, 114
8, 30656, Control_c, 2, 11, 112
8, 30719, Note_on_c, 2, 69, 0
8, 30720, Note_on_c, 2, 69, 52
8, 31799, Note_on_c, 2, 69, 0
8, 32160, Note_on_c, 2, 69, 52
8, 32279, Note_on_c, 2, 69, 0
8, 32640, Note_on_c, 2, 69, 52
8, 32759, Note_on_c, 2, 69, 0
8, 33360, Control_c, 2, 11, 127
8, 33600, Note_on_c, 2, 72, 84
8, 33600, Note_on_c, 2, 69, 84
8, 34487, Note_on_c, 2, 72, 0
8, 34487, Note_on_c, 2, 69, 0
8, 34500, Note_on_c, 2, 72, 84
8, 34500, Note_on_c, 2, 69, 84
8, 34551, Note_on_c, 2, 72, 0
8, 34551, Note_on_c, 2, 69, 0
8, 34560, Note_on_c, 2, 69, 84
8, 34560, Note_on_c, 2, 72, 84
8, 34679, Note_on_c, 2, 69, 0
8, 34679, Note_on_c, 2, 72, 0
8, 35520, Note_on_c, 2, 69, 84
8, 35520, Note_on_c, 2, 75, 84
8, 36407, Note_on_c, 2, 69, 0
8, 36407, Note_on_c, 2, 75, 0
8, 36420, Note_on_c, 2, 75, 84
8, 36420, Note_on_c, 2, 69, 84
8, 36471, Note_on_c, 2, 75, 0
8, 36471, Note_on_c, 2, 69, 0
8, 36480, Note_on_c, 2, 69, 84
8, 36480, Note_on_c, 2, 75, 84
8, 36659, Note_on_c, 2, 69, 0
8, 36659, Note_on_c, 2, 75, 0
8, 37440, Note_on_c, 2, 69, 84
8, 37440, Note_on_c, 2, 75, 84
8, 37619, Note_on_c, 2, 69, 0
8, 37619, Note_on_c, 2, 75, 0
8, 38400, Note_on_c, 2, 75, 84
8, 38400, Note_on_c, 2, 69, 84
8, 38579, Note_on_c, 2, 75, 0
8, 38579, Note_on_c, 2, 69, 0
8, 38880, Note_on_c, 2, 75, 84
8, 38880, Note_on_c, 2, 69, 84
8, 39059, Note_on_c, 2, 75, 0
8, 39059, Note_on_c, 2, 69, 0
8, 39360, Note_on_c, 2, 69, 84
8, 39360, Note_on_c, 2, 75, 84
8, 39539, Note_on_c, 2, 69, 0
8, 39539, Note_on_c, 2, 75, 0
8, 39840, Note_on_c, 2, 69, 84
8, 39840, Note_on_c, 2, 75, 84
8, 40019, Note_on_c, 2, 69, 0
8, 40019, Note_on_c, 2, 75, 0
8, 40320, Note_on_c, 2, 74, 84
8, 40320, Note_on_c, 2, 70, 84
8, 40409, Note_on_c, 2, 74, 0
8, 40409, Note_on_c, 2, 70, 0
8, 44400, Note_on_c, 2, 74, 48
8, 44400, Note_on_c, 2, 70, 48
8, 44639, Note_on_c, 2, 74, 0
8, 44639, Note_on_c, 2, 70, 0
8, 44640, Note_on_c, 2, 69, 48
8, 44640, Note_on_c, 2, 72, 48
8, 44879, Note_on_c, 2, 69, 0
8, 44879, Note_on_c, 2, 72, 0
8, 44880, Note_on_c, 2, 70, 48
8, 44880, Note_on_c, 2, 67, 48
8, 45119, Note_on_c, 2, 70, 0
8, 45119, Note_on_c, 2, 67, 0
8, 45120, Note_on_c, 2, 65, 48
8, 45120, Note_on_c, 2, 69, 48
8, 45359, Note_on_c, 2, 65, 0
8, 45359, Note_on_c, 2, 69, 0
8, 45360, Note_on_c, 2, 67, 48
8, 45360, Note_on_c, 2, 63, 48
8, 45599, Note_on_c, 2, 67, 0
8, 45599, Note_on_c, 2, 63, 0
8, 45600, Note_on_c, 2, 65, 48
8, 45600, Note_on_c, 2, 62, 48
8, 45839, Note_on_c, 2, 65, 0
8, 45839, Note_on_c, 2, 62, 0
8, 45840, Note_on_c, 2, 67, 48
8, 45840, Note_on_c, 2, 63, 48
8, 46064, Note_on_c, 2, 67, 0
8, 46064, Note_on_c, 2, 63, 0
8, 46080, Note_on_c, 2, 63, 48
8, 46080, Note_on_c, 2, 60, 48
8, 47984, Note_on_c, 2, 63, 0
8, 47984, Note_on_c, 2, 60, 0
8, 48000, Note_on_c, 2, 75, 84
8, 48000, Note_on_c, 2, 69, 84
8, 48179, Note_on_c, 2, 75, 0
8, 48179, Note_on_c, 2, 69, 0
8, 48960, Note_on_c, 2, 75, 84
8, 48960, Note_on_c, 2, 69, 84
8, 49139, Note_on_c, 2, 75, 0
8, 49139, Note_on_c, 2, 69, 0
8, 49440, Note_on_c, 2, 69, 84
8, 49440, Note_on_c, 2, 75, 84
8, 49619, Note_on_c, 2, 69, 0
8, 49619, Note_on_c, 2, 75, 0
8, 49920, Note_on_c, 2, 62, 84
8, 49920, Note_on_c, 2, 74, 84
8, 50039, Note_on_c, 2, 62, 0
8, 50039, Note_on_c, 2, 74, 0
8, 50160, Note_on_c, 2, 70, 84
8, 50279, Note_on_c, 2, 70, 0
8, 50400, Note_on_c, 2, 65, 84
8, 50519, Note_on_c, 2, 65, 0
8, 50640, Note_on_c, 2, 70, 84
8, 50759, Note_on_c, 2, 70, 0
8, 50880, Note_on_c, 2, 62, 84
8, 50999, Note_on_c, 2, 62, 0
8, 51120, Note_on_c, 2, 65, 84
8, 51239, Note_on_c, 2, 65, 0
8, 51360, Note_on_c, 2, 58, 84
8, 51479, Note_on_c, 2, 58, 0
8, 51600, Note_on_c, 2, 62, 84
8, 51719, Note_on_c, 2, 62, 0
8, 51840, Note_on_c, 2, 55, 84
8, 51840, Note_on_c, 2, 67, 84
8, 51959, Note_on_c, 2, 55, 0
8, 51959, Note_on_c, 2, 67, 0
8, 52080, Note_on_c, 2, 63, 84
8, 52080, Note_on_c, 2, 75, 84
8, 52199, Note_on_c, 2, 63, 0
8, 52199, Note_on_c, 2, 75, 0
8, 52320, Note_on_c, 2, 60, 84
8, 52320, Note_on_c, 2, 72, 84
8, 52439, Note_on_c, 2, 60, 0
8, 52439, Note_on_c, 2, 72, 0
8, 52560, Note_on_c, 2, 70, 84
8, 52560, Note_on_c, 2, 58, 84
8, 52679, Note_on_c, 2, 70, 0
8, 52679, Note_on_c, 2, 58, 0
8, 52800, Note_on_c, 2, 69, 84
8, 52800, Note_on_c, 2, 57, 84
8, 52919, Note_on_c, 2, 69, 0
8, 52919, Note_on_c, 2, 57, 0
8, 53040, Note_on_c, 2, 77, 84
8, 53040, Note_on_c, 2, 65, 84
8, 53159, Note_on_c, 2, 77, 0
8, 53159, Note_on_c, 2, 65, 0
8, 53280, Note_on_c, 2, 63, 84
8, 53280, Note_on_c, 2, 75, 84
8, 53399, Note_on_c, 2, 63, 0
8, 53399, Note_on_c, 2, 75, 0
8, 53520, Note_on_c, 2, 72, 84
8, 53520, Note_on_c, 2, 60, 84
8, 53639, Note_on_c, 2, 72, 0
8, 53639, Note_on_c, 2, 60, 0
8, 53760, Note_on_c, 2, 70, 84
8, 53760, Note_on_c, 2, 58, 84
8, 53879, Note_on_c, 2, 70, 0
8, 53879, Note_on_c, 2, 58, 0
8, 54000, Note_on_c, 2, 79, 84
8, 54000, Note_on_c, 2, 67, 84
8, 54239, Note_on_c, 2, 79, 0
8, 54239, Note_on_c, 2, 67, 0
8, 54240, Note_on_c, 2, 77, 84
8, 54240, Note_on_c, 2, 65, 84
8, 54479, Note_on_c, 2, 77, 0
8, 54479, Note_on_c, 2, 65, 0
8, 54480, Note_on_c, 2, 63, 84
8, 54480, Note_on_c, 2, 75, 84
8, 54719, Note_on_c, 2, 63, 0
8, 54719, Note_on_c, 2, 75, 0
8, 54720, Note_on_c, 2, 62, 84
8, 54720, Note_on_c, 2, 74, 84
8, 54959, Note_on_c, 2, 62, 0
8, 54959, Note_on_c, 2, 74, 0
8, 54960, Note_on_c, 2, 60, 84
8, 54960, Note_on_c, 2, 72, 84
8, 55199, Note_on_c, 2, 60, 0
8, 55199, Note_on_c, 2, 72, 0
8, 55200, Note_on_c, 2, 70, 84
8, 55200, Note_on_c, 2, 58, 84
8, 55439, Note_on_c, 2, 70, 0
8, 55439, Note_on_c, 2, 58, 0
8, 55440, Note_on_c, 2, 72, 84
8, 55440, Note_on_c, 2, 60, 84
8, 55664, Note_on_c, 2, 72, 0
8, 55664, Note_on_c, 2, 60, 0
8, 55680, Note_on_c, 2, 63, 92
8, 55680, Note_on_c, 2, 70, 92
8, 57599, Note_on_c, 2, 70, 0
8, 57600, Note_on_c, 2, 69, 84
8, 57839, Note_on_c, 2, 63, 0
8, 57839, Note_on_c, 2, 69, 0
8, 58080, Note_on_c, 2, 75, 84
8, 58080, Note_on_c, 2, 72, 84
8, 58319, Note_on_c, 2, 75, 0
8, 58319, Note_on_c, 2, 72, 0
8, 59040, Note_on_c, 2, 70, 84
8, 59040, Note_on_c, 2, 74, 84
8, 59279, Note_on_c, 2, 70, 0
8, 59279, Note_on_c, 2, 74, 0
8, 60000, Note_on_c, 2, 75, 84
8, 60000, Note_on_c, 2, 72, 84
8, 60239, Note_on_c, 2, 75, 0
8, 60239, Note_on_c, 2, 72, 0
8, 60960, Note_on_c, 2, 69, 84
8, 60960, Note_on_c, 2, 72, 84
8, 61199, Note_on_c, 2, 69, 0
8, 61199, Note_on_c, 2, 72, 0
8, 61440, Note_on_c, 2, 58, 44
8, 65264, Note_on_c, 2, 58, 0
8, 65280, Note_on_c, 2, 60, 44
8, 65280, Note_on_c, 2, 57, 44
8, 69104, Note_on_c, 2, 60, 0
8, 69104, Note_on_c, 2, 57, 0
8, 69120, Note_on_c, 2, 59, 44
8, 69120, Note_on_c, 2, 62, 44
8, 71024, Note_on_c, 2, 59, 0
8, 71024, Note_on_c, 2, 62, 0
8, 71040, Note_on_c, 2, 67, 44
8, 71040, Note_on_c, 2, 64, 44
8, 72944, Note_on_c, 2, 67, 0
8, 72944, Note_on_c, 2, 64, 0
8, 75307, Control_c, 2, 11, 103
8, 75360, Note_on_c, 2, 72, 84
8, 75360, Note_on_c, 2, 69, 84
8, 75413, Control_c, 2, 11, 104
8, 75520, Control_c, 2, 11, 106
8, 75627, Control_c, 2, 11, 108
8, 75733, Control_c, 2, 11, 110
8, 75824, Note_on_c, 2, 72, 0
8, 75824, Note_on_c, 2, 69, 0
8, 75840, Note_on_c, 2, 69, 84
8, 75840, Control_c, 2, 11, 111
8, 75840, Note_on_c, 2, 72, 84
8, 75947, Control_c, 2, 11, 113
8, 76053, Control_c, 2, 11, 115
8, 76160, Control_c, 2, 11, 117
8, 76267, Control_c, 2, 11, 118
8, 76304, Note_on_c, 2, 69, 0
8, 76304, Note_on_c, 2, 72, 0
8, 76320, Note_on_c, 2, 69, 84
8, 76320, Note_on_c, 2, 72, 84
8, 76373, Control_c, 2, 11, 120
8, 76480, Control_c, 2, 11, 122
8, 76587, Control_c, 2, 11, 124
8, 76693, Control_c, 2, 11, 127
8, 76784, Note_on_c, 2, 69, 0
8, 76784, Note_on_c, 2, 72, 0
8, 76800, Note_on_c, 2, 58, 84
8, 76800, Note_on_c, 2, 70, 84
8, 78704, Note_on_c, 2, 58, 0
8, 78704, Note_on_c, 2, 70, 0
8, 78720, Note_on_c, 2, 63, 92
8, 78720, Note_on_c, 2, 75, 92
8, 79649, Note_on_c, 2, 63, 0
8, 79649, Note_on_c, 2, 75, 0
8, 79680, Note_on_c, 2, 77, 92
8, 79680, Note_on_c, 2, 65, 92
8, 80609, Note_on_c, 2, 77, 0
8, 80609, Note_on_c, 2, 65, 0
8, 80640, Note_on_c, 2, 74, 92
8, 80640, Note_on_c, 2, 62, 92
8, 82529, Note_on_c, 2, 74, 0
8, 82529, Note_on_c, 2, 62, 0
8, 82560, Note_on_c, 2, 67, 92
8, 83489, Note_on_c, 2, 67, 0
8, 83520, Note_on_c, 2, 69, 92
8, 84449, Note_on_c, 2, 69, 0
8, 84480, Note_on_c, 2, 70, 92
8, 85409, Note_on_c, 2, 70, 0
8, 85440, Note_on_c, 2, 73, 92
8, 86369, Note_on_c, 2, 73, 0
8, 86400, Note_on_c, 2, 74, 92
8, 87329, Note_on_c, 2, 74, 0
8, 87360, Note_on_c, 2, 76, 84
8, 87584, Note_on_c, 2, 76, 0
8, 87600, Note_on_c, 2, 72, 84
8, 87600, Note_on_c, 2, 60, 84
8, 87824, Note_on_c, 2, 72, 0
8, 87824, Note_on_c, 2, 60, 0
8, 87840, Note_on_c, 2, 60, 84
8, 87840, Note_on_c, 2, 72, 84
8, 88064, Note_on_c, 2, 60, 0
8, 88064, Note_on_c, 2, 72, 0
8, 88080, Note_on_c, 2, 60, 84
8, 88080, Note_on_c, 2, 72, 84
8, 88304, Note_on_c, 2, 60, 0
8, 88304, Note_on_c, 2, 72, 0
8, 88320, Note_on_c, 2, 60, 84
8, 88320, Note_on_c, 2, 72, 84
8, 88544, Note_on_c, 2, 60, 0
8, 88544, Note_on_c, 2, 72, 0
8, 88560, Note_on_c, 2, 72, 84
8, 88560, Note_on_c, 2, 60, 84
8, 88784, Note_on_c, 2, 72, 0
8, 88784, Note_on_c, 2, 60, 0
8, 88800, Note_on_c, 2, 60, 84
8, 88800, Note_on_c, 2, 72, 84
8, 89024, Note_on_c, 2, 60, 0
8, 89024, Note_on_c, 2, 72, 0
8, 89040, Note_on_c, 2, 72, 84
8, 89040, Note_on_c, 2, 60, 84
8, 89264, Note_on_c, 2, 72, 0
8, 89264, Note_on_c, 2, 60, 0
8, 89280, Note_on_c, 2, 72, 84
8, 89280, Note_on_c, 2, 60, 84
8, 89504, Note_on_c, 2, 72, 0
8, 89504, Note_on_c, 2, 60, 0
8, 89520, Note_on_c, 2, 72, 84
8, 89520, Note_on_c, 2, 60, 84
8, 89744, Note_on_c, 2, 72, 0
8, 89744, Note_on_c, 2, 60, 0
8, 89760, Note_on_c, 2, 60, 84
8, 89760, Note_on_c, 2, 72, 84
8, 89984, Note_on_c, 2, 60, 0
8, 89984, Note_on_c, 2, 72, 0
8, 90000, Note_on_c, 2, 60, 84
8, 90000, Note_on_c, 2, 72, 84
8, 90224, Note_on_c, 2, 60, 0
8, 90224, Note_on_c, 2, 72, 0
8, 90240, Note_on_c, 2, 60, 84
8, 90240, Note_on_c, 2, 72, 84
8, 90479, Note_on_c, 2, 60, 0
8, 90479, Note_on_c, 2, 72, 0
8, 90480, Note_on_c, 2, 67, 92
8, 90480, Note_on_c, 2, 64, 92
8, 90929, Note_on_c, 2, 67, 0
8, 90929, Note_on_c, 2, 64, 0
8, 90960, Note_on_c, 2, 68, 84
8, 90960, Note_on_c, 2, 65, 84
8, 91424, Note_on_c, 2, 68, 0
8, 91424, Note_on_c, 2, 65, 0
8, 91440, Note_on_c, 2, 67, 84
8, 91440, Note_on_c, 2, 70, 84
8, 91904, Note_on_c, 2, 67, 0
8, 91904, Note_on_c, 2, 70, 0
8, 91920, Note_on_c, 2, 65, 84
8, 91920, Note_on_c, 2, 62, 84
8, 92384, Note_on_c, 2, 65, 0
8, 92384, Note_on_c, 2, 62, 0
8, 92400, Note_on_c, 2, 64, 84
8, 92400, Note_on_c, 2, 67, 84
8, 92864, Note_on_c, 2, 64, 0
8, 92864, Note_on_c, 2, 67, 0
8, 92880, Note_on_c, 2, 65, 84
8, 92880, Note_on_c, 2, 68, 84
8, 93344, Note_on_c, 2, 65, 0
8, 93344, Note_on_c, 2, 68, 0
8, 93360, Note_on_c, 2, 65, 92
8, 93360, Note_on_c, 2, 68, 92
8, 93839, Note_on_c, 2, 65, 0
8, 93839, Note_on_c, 2, 68, 0
8, 93840, Note_on_c, 2, 64, 84
8, 93840, Note_on_c, 2, 67, 84
8, 94064, Note_on_c, 2, 64, 0
8, 94064, Note_on_c, 2, 67, 0
8, 94080, Note_on_c, 2, 67, 84
8, 94080, Note_on_c, 2, 64, 84
8, 94259, Note_on_c, 2, 67, 0
8, 94259, Note_on_c, 2, 64, 0
8, 94320, Note_on_c, 2, 72, 84
8, 94320, Note_on_c, 2, 60, 84
8, 94784, Note_on_c, 2, 72, 0
8, 94784, Note_on_c, 2, 60, 0
8, 94800, Note_on_c, 2, 60, 84
8, 94800, Note_on_c, 2, 72, 84
8, 95264, Note_on_c, 2, 60, 0
8, 95264, Note_on_c, 2, 72, 0
8, 95280, Note_on_c, 2, 60, 84
8, 95280, Note_on_c, 2, 72, 84
8, 95744, Note_on_c, 2, 60, 0
8, 95744, Note_on_c, 2, 72, 0
8, 95760, Note_on_c, 2, 60, 84
8, 95760, Note_on_c, 2, 72, 84
8, 96224, Note_on_c, 2, 60, 0
8, 96224, Note_on_c, 2, 72, 0
8, 96240, Note_on_c, 2, 60, 84
8, 96240, Note_on_c, 2, 72, 84
8, 96704, Note_on_c, 2, 60, 0
8, 96704, Note_on_c, 2, 72, 0
8, 96720, Note_on_c, 2, 72, 84
8, 96720, Note_on_c, 2, 60, 84
8, 97184, Note_on_c, 2, 72, 0
8, 97184, Note_on_c, 2, 60, 0
8, 97200, Note_on_c, 2, 68, 92
8, 97200, Note_on_c, 2, 65, 92
8, 97679, Note_on_c, 2, 68, 0
8, 97679, Note_on_c, 2, 65, 0
8, 97680, Note_on_c, 2, 67, 84
8, 97680, Note_on_c, 2, 64, 84
8, 97904, Note_on_c, 2, 67, 0
8, 97904, Note_on_c, 2, 64, 0
8, 97920, Note_on_c, 2, 64, 84
8, 97920, Note_on_c, 2, 67, 84
8, 98159, Note_on_c, 2, 64, 0
8, 98159, Note_on_c, 2, 67, 0
8, 125760, Note_on_c, 2, 72, 76
8, 125760, Note_on_c, 2, 67, 76
8, 126119, Note_on_c, 2, 72, 0
8, 126119, Note_on_c, 2, 67, 0
8, 126240, Note_on_c, 2, 67, 76
8, 126240, Note_on_c, 2, 72, 76
8, 126599, Note_on_c, 2, 67, 0
8, 126599, Note_on_c, 2, 72, 0
8, 126720, Note_on_c, 2, 72, 76
8, 126720, Note_on_c, 2, 67, 76
8, 127079, Note_on_c, 2, 72, 0
8, 127079, Note_on_c, 2, 67, 0
8, 127200, Note_on_c, 2, 67, 76
8, 127200, Note_on_c, 2, 72, 76
8, 127559, Note_on_c, 2, 67, 0
8, 127559, Note_on_c, 2, 72, 0
8, 127680, Note_on_c, 2, 67, 76
8, 127680, Note_on_c, 2, 72, 76
8, 128039, Note_on_c, 2, 67, 0
8, 128039, Note_on_c, 2, 72, 0
8, 128160, Note_on_c, 2, 67, 76
8, 128160, Note_on_c, 2, 72, 76
8, 128519, Note_on_c, 2, 67, 0
8, 128519, Note_on_c, 2, 72, 0
8, 128640, Note_on_c, 2, 72, 76
8, 128640, Note_on_c, 2, 69, 76
8, 128879, Note_on_c, 2, 72, 0
8, 128879, Note_on_c, 2, 69, 0
8, 129600, Note_on_c, 2, 74, 76
8, 129600, Note_on_c, 2, 65, 76
8, 129839, Note_on_c, 2, 74, 0
8, 129839, Note_on_c, 2, 65, 0
8, 130560, Note_on_c, 2, 69, 76
8, 130560, Note_on_c, 2, 65, 76
8, 130799, Note_on_c, 2, 69, 0
8, 130799, Note_on_c, 2, 65, 0
8, 131280, Note_on_c, 2, 65, 76
8, 131280, Note_on_c, 2, 69, 76
8, 131504, Note_on_c, 2, 65, 0
8, 131504, Note_on_c, 2, 69, 0
8, 131520, Note_on_c, 2, 67, 76
8, 131520, Note_on_c, 2, 64, 76
8, 131744, Note_on_c, 2, 67, 0
8, 131744, Note_on_c, 2, 64, 0
8, 131760, Note_on_c, 2, 64, 76
8, 131760, Note_on_c, 2, 67, 76
8, 131984, Note_on_c, 2, 64, 0
8, 131984, Note_on_c, 2, 67, 0
8, 132000, Note_on_c, 2, 64, 76
8, 132000, Note_on_c, 2, 67, 76
8, 132224, Note_on_c, 2, 64, 0
8, 132224, Note_on_c, 2, 67, 0
8, 132240, Note_on_c, 2, 64, 76
8, 132240, Note_on_c, 2, 67, 76
8, 132464, Note_on_c, 2, 64, 0
8, 132464, Note_on_c, 2, 67, 0
8, 132480, Note_on_c, 2, 65, 76
8, 132480, Note_on_c, 2, 69, 76
8, 132719, Note_on_c, 2, 65, 0
8, 132719, Note_on_c, 2, 69, 0
8, 132960, Note_on_c, 2, 67, 76
8, 132960, Note_on_c, 2, 65, 76
8, 133199, Note_on_c, 2, 67, 0
8, 133199, Note_on_c, 2, 65, 0
8, 133440, Note_on_c, 2, 69, 76
8, 133440, Note_on_c, 2, 65, 76
8, 133679, Note_on_c, 2, 69, 0
8, 133679, Note_on_c, 2, 65, 0
8, 133920, Note_on_c, 2, 64, 76
8, 133920, Note_on_c, 2, 67, 76
8, 134159, Note_on_c, 2, 64, 0
8, 134159, Note_on_c, 2, 67, 0
8, 134400, Note_on_c, 2, 69, 48
8, 134639, Note_on_c, 2, 69, 0
8, 134640, Note_on_c, 2, 70, 48
8, 134879, Note_on_c, 2, 70, 0
8, 134880, Note_on_c, 2, 72, 48
8, 135119, Note_on_c, 2, 72, 0
8, 135120, Note_on_c, 2, 60, 48
8, 135344, Note_on_c, 2, 60, 0
8, 135360, Note_on_c, 2, 65, 48
8, 136079, Note_on_c, 2, 65, 0
8, 136080, Note_on_c, 2, 67, 48
8, 136319, Note_on_c, 2, 67, 0
8, 136320, Note_on_c, 2, 69, 48
8, 136559, Note_on_c, 2, 69, 0
8, 136560, Note_on_c, 2, 65, 48
8, 136799, Note_on_c, 2, 65, 0
8, 136800, Note_on_c, 2, 69, 48
8, 137039, Note_on_c, 2, 69, 0
8, 137040, Note_on_c, 2, 70, 48
8, 137264, Note_on_c, 2, 70, 0
8, 137280, Note_on_c, 2, 72, 48
8, 137999, Note_on_c, 2, 72, 0
8, 138000, Note_on_c, 2, 74, 48
8, 138239, Note_on_c, 2, 74, 0
8, 138240, Note_on_c, 2, 76, 48
8, 138479, Note_on_c, 2, 76, 0
8, 138480, Note_on_c, 2, 77, 48
8, 138719, Note_on_c, 2, 77, 0
8, 138720, Note_on_c, 2, 79, 48
8, 138959, Note_on_c, 2, 79, 0
8, 138960, Note_on_c, 2, 77, 48
8, 139184, Note_on_c, 2, 77, 0
8, 139200, Note_on_c, 2, 76, 48
8, 139919, Note_on_c, 2, 76, 0
8, 139920, Note_on_c, 2, 74, 48
8, 140159, Note_on_c, 2, 74, 0
8, 140160, Note_on_c, 2, 72, 48
8, 140399, Note_on_c, 2, 72, 0
8, 140400, Note_on_c, 2, 74, 48
8, 140639, Note_on_c, 2, 74, 0
8, 140640, Note_on_c, 2, 70, 48
8, 140879, Note_on_c, 2, 70, 0
8, 140880, Note_on_c, 2, 67, 48
8, 141104, Note_on_c, 2, 67, 0
8, 141120, Note_on_c, 2, 64, 48
8, 142079, Note_on_c, 2, 64, 0
8, 150000, Note_on_c, 2, 74, 52
8, 150239, Note_on_c, 2, 74, 0
8, 150240, Note_on_c, 2, 70, 52
8, 150479, Note_on_c, 2, 70, 0
8, 150480, Note_on_c, 2, 67, 52
8, 150704, Note_on_c, 2, 67, 0
8, 150720, Note_on_c, 2, 64, 52
8, 150959, Note_on_c, 2, 64, 0
8, 153600, Note_on_c, 2, 69, 84
8, 153600, Note_on_c, 2, 72, 84
8, 153839, Note_on_c, 2, 69, 0
8, 153839, Note_on_c, 2, 72, 0
8, 154320, Note_on_c, 2, 69, 84
8, 154320, Note_on_c, 2, 77, 84
8, 154544, Note_on_c, 2, 69, 0
8, 154544, Note_on_c, 2, 77, 0
8, 154560, Note_on_c, 2, 74, 84
8, 154560, Note_on_c, 2, 67, 84
8, 154799, Note_on_c, 2, 74, 0
8, 154799, Note_on_c, 2, 67, 0
8, 155040, Note_on_c, 2, 67, 84
8, 155040, Note_on_c, 2, 72, 84
8, 155279, Note_on_c, 2, 67, 0
8, 155279, Note_on_c, 2, 72, 0
8, 157440, Note_on_c, 2, 69, 84
8, 157440, Note_on_c, 2, 72, 84
8, 157679, Note_on_c, 2, 69, 0
8, 157679, Note_on_c, 2, 72, 0
8, 158160, Note_on_c, 2, 65, 84
8, 158160, Note_on_c, 2, 69, 84
8, 158384, Note_on_c, 2, 65, 0
8, 158384, Note_on_c, 2, 69, 0
8, 158400, Note_on_c, 2, 74, 84
8, 158400, Note_on_c, 2, 67, 84
8, 158639, Note_on_c, 2, 74, 0
8, 158639, Note_on_c, 2, 67, 0
8, 158880, Note_on_c, 2, 72, 84
8, 158880, Note_on_c, 2, 67, 84
8, 159119, Note_on_c, 2, 72, 0
8, 159119, Note_on_c, 2, 67, 0
8, 159360, Control_c, 2, 11, 80
8, 160320, Control_c, 2, 11, 80
8, 160320, Note_on_c, 2, 71, 76
8, 160373, Control_c, 2, 11, 83
8, 160427, Control_c, 2, 11, 85
8, 160480, Control_c, 2, 11, 88
8, 160533, Control_c, 2, 11, 90
8, 160587, Control_c, 2, 11, 93
8, 160640, Control_c, 2, 11, 96
8, 160693, Control_c, 2, 11, 98
8, 160747, Control_c, 2, 11, 101
8, 160800, Control_c, 2, 11, 104
8, 160853, Control_c, 2, 11, 106
8, 160907, Control_c, 2, 11, 109
8, 160960, Control_c, 2, 11, 111
8, 161013, Control_c, 2, 11, 114
8, 161067, Control_c, 2, 11, 117
8, 161120, Control_c, 2, 11, 119
8, 161173, Control_c, 2, 11, 122
8, 161227, Control_c, 2, 11, 127
8, 161264, Note_on_c, 2, 71, 0
8, 161280, Note_on_c, 2, 71, 76
8, 162224, Note_on_c, 2, 71, 0
8, 162240, Note_on_c, 2, 72, 76
8, 163184, Note_on_c, 2, 72, 0
8, 163200, Note_on_c, 2, 74, 76
8, 164144, Note_on_c, 2, 74, 0
8, 164160, Note_on_c, 2, 76, 76
8, 165104, Note_on_c, 2, 76, 0
8, 165120, Note_on_c, 2, 77, 84
8, 165120, Note_on_c, 2, 68, 84
8, 167024, Note_on_c, 2, 77, 0
8, 167024, Note_on_c, 2, 68, 0
8, 167040, Note_on_c, 2, 77, 84
8, 167040, Note_on_c, 2, 69, 84
8, 167984, Note_on_c, 2, 77, 0
8, 167984, Note_on_c, 2, 69, 0
8, 168000, Note_on_c, 2, 67, 84
8, 168000, Note_on_c, 2, 76, 84
8, 168944, Note_on_c, 2, 67, 0
8, 168944, Note_on_c, 2, 76, 0
8, 168960, Note_on_c, 2, 77, 84
8, 168960, Note_on_c, 2, 69, 84
8, 169199, Note_on_c, 2, 77, 0
8, 169199, Note_on_c, 2, 69, 0
8, 172080, Note_on_c, 2, 67, 76
8, 172080, Note_on_c, 2, 70, 76
8, 172544, Note_on_c, 2, 67, 0
8, 172544, Note_on_c, 2, 70, 0
8, 172560, Note_on_c, 2, 70, 76
8, 172560, Note_on_c, 2, 67, 76
8, 172739, Note_on_c, 2, 70, 0
8, 172739, Note_on_c, 2, 67, 0
8, 172800, Note_on_c, 2, 69, 76
8, 172800, Note_on_c, 2, 65, 76
8, 172979, Note_on_c, 2, 69, 0
8, 172979, Note_on_c, 2, 65, 0
8, 175920, Note_on_c, 2, 67, 76
8, 175920, Note_on_c, 2, 70, 76
8, 176384, Note_on_c, 2, 67, 0
8, 176384, Note_on_c, 2, 70, 0
8, 176400, Note_on_c, 2, 70, 76
8, 176400, Note_on_c, 2, 67, 76
8, 176624, Note_on_c, 2, 70, 0
8, 176624, Note_on_c, 2, 67, 0
8, 176640, Note_on_c, 2, 69, 76
8, 176640, Note_on_c, 2, 65, 76
8, 176879, Note_on_c, 2, 69, 0
8, 176879, Note_on_c, 2, 65, 0
8, 177840, Note_on_c, 2, 70, 76
8, 177840, Note_on_c, 2, 67, 76
8, 178304, Note_on_c, 2, 70, 0
8, 178304, Note_on_c, 2, 67, 0
8, 178320, Note_on_c, 2, 70, 76
8, 178320, Note_on_c, 2, 67, 76
8, 178544, Note_on_c, 2, 70, 0
8, 178544, Note_on_c, 2, 67, 0
8, 178560, Note_on_c, 2, 65, 84
8, 178560, Note_on_c, 2, 69, 84
8, 180407, Note_on_c, 2, 65, 0
8, 180407, Note_on_c, 2, 69, 0
8, 180420, Note_on_c, 2, 69, 84
8, 180420, Note_on_c, 2, 65, 84
8, 180471, Note_on_c, 2, 69, 0
8, 180471, Note_on_c, 2, 65, 0
8, 180480, Note_on_c, 2, 69, 84
8, 180480, Note_on_c, 2, 65, 84
8, 180719, Note_on_c, 2, 69, 0
8, 180719, Note_on_c, 2, 65, 0
8, 182400, Note_on_c, 2, 72, 84
8, 182400, Note_on_c, 2, 69, 84
8, 184247, Note_on_c, 2, 72, 0
8, 184247, Note_on_c, 2, 69, 0
8, 184260, Note_on_c, 2, 69, 84
8, 184260, Note_on_c, 2, 72, 84
8, 184311, Note_on_c, 2, 69, 0
8, 184311, Note_on_c, 2, 72, 0
8, 184320, Note_on_c, 2, 69, 84
8, 184320, Note_on_c, 2, 72, 84
8, 184559, Note_on_c, 2, 69, 0
8, 184559, Note_on_c, 2, 72, 0
8, 185280, Note_on_c, 2, 72, 84
8, 185280, Note_on_c, 2, 69, 84
8, 185459, Note_on_c, 2, 72, 0
8, 185459, Note_on_c, 2, 69, 0
8, 186240, Note_on_c, 2, 69, 84
8, 186240, Note_on_c, 2, 72, 84
8, 186419, Note_on_c, 2, 69, 0
8, 186419, Note_on_c, 2, 72, 0
8, 186720, Note_on_c, 2, 72, 84
8, 186720, Note_on_c, 2, 69, 84
8, 186899, Note_on_c, 2, 72, 0
8, 186899, Note_on_c, 2, 69, 0
8, 187200, Note_on_c, 2, 69, 84
8, 187200, Note_on_c, 2, 72, 84
8, 187379, Note_on_c, 2, 69, 0
8, 187379, Note_on_c, 2, 72, 0
8, 187680, Note_on_c, 2, 72, 84
8, 187680, Note_on_c, 2, 69, 84
8, 187859, Note_on_c, 2, 72, 0
8, 187859, Note_on_c, 2, 69, 0
8, 188160, Note_on_c, 2, 70, 84
8, 188160, Note_on_c, 2, 74, 84
8, 188339, Note_on_c, 2, 70, 0
8, 188339, Note_on_c, 2, 74, 0
8, 192240, Note_on_c, 2, 70, 48
8, 192240, Note_on_c, 2, 74, 48
8, 192479, Note_on_c, 2, 70, 0
8, 192479, Note_on_c, 2, 74, 0
8, 192480, Note_on_c, 2, 69, 48
8, 192480, Note_on_c, 2, 72, 48
8, 192719, Note_on_c, 2, 69, 0
8, 192719, Note_on_c, 2, 72, 0
8, 192720, Note_on_c, 2, 67, 48
8, 192720, Note_on_c, 2, 70, 48
8, 192959, Note_on_c, 2, 67, 0
8, 192959, Note_on_c, 2, 70, 0
8, 192960, Note_on_c, 2, 69, 48
8, 192960, Note_on_c, 2, 65, 48
8, 193199, Note_on_c, 2, 69, 0
8, 193199, Note_on_c, 2, 65, 0
8, 193200, Note_on_c, 2, 67, 48
8, 193200, Note_on_c, 2, 63, 48
8, 193439, Note_on_c, 2, 67, 0
8, 193439, Note_on_c, 2, 63, 0
8, 193440, Note_on_c, 2, 65, 48
8, 193440, Note_on_c, 2, 62, 48
8, 193679, Note_on_c, 2, 65, 0
8, 193679, Note_on_c, 2, 62, 0
8, 193680, Note_on_c, 2, 67, 48
8, 193680, Note_on_c, 2, 63, 48
8, 193904, Note_on_c, 2, 67, 0
8, 193904, Note_on_c, 2, 63, 0
8, 193920, Note_on_c, 2, 60, 48
8, 193920, Note_on_c, 2, 63, 48
8, 195824, Note_on_c, 2, 60, 0
8, 195824, Note_on_c, 2, 63, 0
8, 195840, Note_on_c, 2, 69, 84
8, 195840, Note_on_c, 2, 75, 84
8, 196019, Note_on_c, 2, 69, 0
8, 196019, Note_on_c, 2, 75, 0
8, 196800, Note_on_c, 2, 69, 84
8, 196800, Note_on_c, 2, 75, 84
8, 196979, Note_on_c, 2, 69, 0
8, 196979, Note_on_c, 2, 75, 0
8, 197280, Note_on_c, 2, 75, 84
8, 197280, Note_on_c, 2, 69, 84
8, 197459, Note_on_c, 2, 75, 0
8, 197459, Note_on_c, 2, 69, 0
8, 197760, Note_on_c, 2, 62, 84
8, 197760, Note_on_c, 2, 74, 84
8, 197879, Note_on_c, 2, 62, 0
8, 197879, Note_on_c, 2, 74, 0
8, 198000, Note_on_c, 2, 70, 84
8, 198119, Note_on_c, 2, 70, 0
8, 198240, Note_on_c, 2, 65, 84
8, 198359, Note_on_c, 2, 65, 0
8, 198480, Note_on_c, 2, 70, 84
8, 198599, Note_on_c, 2, 70, 0
8, 198720, Note_on_c, 2, 62, 84
8, 198839, Note_on_c, 2, 62, 0
8, 198960, Note_on_c, 2, 65, 84
8, 199079, Note_on_c, 2, 65, 0
8, 199200, Note_on_c, 2, 58, 84
8, 199319, Note_on_c, 2, 58, 0
8, 199440, Note_on_c, 2, 62, 84
8, 199559, Note_on_c, 2, 62, 0
8, 199680, Note_on_c, 2, 55, 84
8, 199680, Note_on_c, 2, 67, 84
8, 199799, Note_on_c, 2, 55, 0
8, 199799, Note_on_c, 2, 67, 0
8, 199920, Note_on_c, 2, 75, 84
8, 199920, Note_on_c, 2, 63, 84
8, 200039, Note_on_c, 2, 75, 0
8, 200039, Note_on_c, 2, 63, 0
8, 200160, Note_on_c, 2, 72, 84
8, 200160, Note_on_c, 2, 60, 84
8, 200279, Note_on_c, 2, 72, 0
8, 200279, Note_on_c, 2, 60, 0
8, 200400, Note_on_c, 2, 70, 84
8, 200400, Note_on_c, 2, 58, 84
8, 200519, Note_on_c, 2, 70, 0
8, 200519, Note_on_c, 2, 58, 0
8, 200640, Note_on_c, 2, 69, 84
8, 200640, Note_on_c, 2, 57, 84
8, 200759, Note_on_c, 2, 69, 0
8, 200759, Note_on_c, 2, 57, 0
8, 200880, Note_on_c, 2, 77, 84
8, 200880, Note_on_c, 2, 65, 84
8, 200999, Note_on_c, 2, 77, 0
8, 200999, Note_on_c, 2, 65, 0
8, 201120, Note_on_c, 2, 63, 84
8, 201120, Note_on_c, 2, 75, 84
8, 201239, Note_on_c, 2, 63, 0
8, 201239, Note_on_c, 2, 75, 0
8, 201360, Note_on_c, 2, 60, 84
8, 201360, Note_on_c, 2, 72, 84
8, 201479, Note_on_c, 2, 60, 0
8, 201479, Note_on_c, 2, 72, 0
8, 201600, Note_on_c, 2, 58, 84
8, 201600, Note_on_c, 2, 70, 84
8, 201719, Note_on_c, 2, 58, 0
8, 201719, Note_on_c, 2, 70, 0
8, 201840, Note_on_c, 2, 79, 84
8, 201840, Note_on_c, 2, 67, 84
8, 202079, Note_on_c, 2, 79, 0
8, 202079, Note_on_c, 2, 67, 0
8, 202080, Note_on_c, 2, 65, 84
8, 202080, Note_on_c, 2, 77, 84
8, 202319, Note_on_c, 2, 65, 0
8, 202319, Note_on_c, 2, 77, 0
8, 202320, Note_on_c, 2, 75, 84
8, 202320, Note_on_c, 2, 63, 84
8, 202559, Note_on_c, 2, 75, 0
8, 202559, Note_on_c, 2, 63, 0
8, 202560, Note_on_c, 2, 74, 84
8, 202560, Note_on_c, 2, 62, 84
8, 202799, Note_on_c, 2, 74, 0
8, 202799, Note_on_c, 2, 62, 0
8, 202800, Note_on_c, 2, 60, 84
8, 202800, Note_on_c, 2, 72, 84
8, 203039, Note_on_c, 2, 60, 0
8, 203039, Note_on_c, 2, 72, 0
8, 203040, Note_on_c, 2, 58, 84
8, 203040, Note_on_c, 2, 70, 84
8, 203279, Note_on_c, 2, 58, 0
8, 203279, Note_on_c, 2, 70, 0
8, 203280, Note_on_c, 2, 60, 84
8, 203280, Note_on_c, 2, 72, 84
8, 203504, Note_on_c, 2, 60, 0
8, 203504, Note_on_c, 2, 72, 0
8, 203520, Note_on_c, 2, 70, 92
8, 203520, Note_on_c, 2, 63, 92
8, 205439, Note_on_c, 2, 70, 0
8, 205440, Note_on_c, 2, 69, 84
8, 205679, Note_on_c, 2, 63, 0
8, 205679, Note_on_c, 2, 69, 0
8, 205920, Note_on_c, 2, 75, 84
8, 205920, Note_on_c, 2, 72, 84
8, 206159, Note_on_c, 2, 75, 0
8, 206159, Note_on_c, 2, 72, 0
8, 206880, Note_on_c, 2, 74, 84
8, 206880, Note_on_c, 2, 70, 84
8, 207119, Note_on_c, 2, 74, 0
8, 207119, Note_on_c, 2, 70, 0
8, 207840, Note_on_c, 2, 75, 84
8, 207840, Note_on_c, 2, 72, 84
8, 208079, Note_on_c, 2, 75, 0
8, 208079, Note_on_c, 2, 72, 0
8, 208800, Note_on_c, 2, 72, 84
8, 208800, Note_on_c, 2, 69, 84
8, 209039, Note_on_c, 2, 72, 0
8, 209039, Note_on_c, 2, 69, 0
8, 209280, Note_on_c, 2, 58, 44
8, 213104, Note_on_c, 2, 58, 0
8, 213120, Note_on_c, 2, 60, 44
8, 213120, Note_on_c, 2, 57, 44
8, 216944, Note_on_c, 2, 60, 0
8, 216944, Note_on_c, 2, 57, 0
8, 216960, Note_on_c, 2, 62, 44
8, 216960, Note_on_c, 2, 59, 44
8, 218864, Note_on_c, 2, 62, 0
8, 218864, Note_on_c, 2, 59, 0
8, 218880, Note_on_c, 2, 64, 44
8, 218880, Note_on_c, 2, 67, 44
8, 220784, Note_on_c, 2, 64, 0
8, 220784, Note_on_c, 2, 67, 0
8, 223147, Control_c, 2, 11, 103
8, 223200, Note_on_c, 2, 72, 84
8, 223200, Note_on_c, 2, 69, 84
8, 223253, Control_c, 2, 11, 104
8, 223360, Control_c, 2, 11, 106
8, 223467, Control_c, 2, 11, 108
8, 223573, Control_c, 2, 11, 110
8, 223664, Note_on_c, 2, 72, 0
8, 223664, Note_on_c, 2, 69, 0
8, 223680, Control_c, 2, 11, 111
8, 223680, Note_on_c, 2, 69, 84
8, 223680, Note_on_c, 2, 72, 84
8, 223787, Control_c, 2, 11, 113
8, 223893, Control_c, 2, 11, 115
8, 224000, Control_c, 2, 11, 117
8, 224107, Control_c, 2, 11, 118
8, 224144, Note_on_c, 2, 69, 0
8, 224144, Note_on_c, 2, 72, 0
8, 224160, Note_on_c, 2, 72, 84
8, 224160, Note_on_c, 2, 69, 84
8, 224213, Control_c, 2, 11, 120
8, 224320, Control_c, 2, 11, 122
8, 224427, Control_c, 2, 11, 124
8, 224533, Control_c, 2, 11, 127
8, 224624, Note_on_c, 2, 72, 0
8, 224624, Note_on_c, 2, 69, 0
8, 224640, Note_on_c, 2, 58, 84
8, 224640, Note_on_c, 2, 70, 84
8, 226544, Note_on_c, 2, 58, 0
8, 226544, Note_on_c, 2, 70, 0
8, 226560, Note_on_c, 2, 75, 92
8, 226560, Note_on_c, 2, 63, 92
8, 227489, Note_on_c, 2, 75, 0
8, 227489, Note_on_c, 2, 63, 0
8, 227520, Note_on_c, 2, 65, 92
8, 227520, Note_on_c, 2, 77, 92
8, 228449, Note_on_c, 2, 65, 0
8, 228449, Note_on_c, 2, 77, 0
8, 228480, Note_on_c, 2, 74, 92
8, 228480, Note_on_c, 2, 62, 92
8, 230369, Note_on_c, 2, 74, 0
8, 230369, Note_on_c, 2, 62, 0
8, 230400, Note_on_c, 2, 67, 92
8, 231329, Note_on_c, 2, 67, 0
8, 231360, Note_on_c, 2, 69, 92
8, 232289, Note_on_c, 2, 69, 0
8, 232320, Note_on_c, 2, 70, 92
8, 233249, Note_on_c, 2, 70, 0
8, 233280, Note_on_c, 2, 73, 92
8, 234209, Note_on_c, 2, 73, 0
8, 234240, Note_on_c, 2, 74, 92
8, 235169, Note_on_c, 2, 74, 0
8, 235200, Note_on_c, 2, 76, 84
8, 235424, Note_on_c, 2, 76, 0
8, 235440, Note_on_c, 2, 72, 84
8, 235440, Note_on_c, 2, 60, 84
8, 235664, Note_on_c, 2, 72, 0
8, 235664, Note_on_c, 2, 60, 0
8, 235680, Note_on_c, 2, 60, 84
8, 235680, Note_on_c, 2, 72, 84
8, 235904, Note_on_c, 2, 60, 0
8, 235904, Note_on_c, 2, 72, 0
8, 235920, Note_on_c, 2, 60, 84
8, 235920, Note_on_c, 2, 72, 84
8, 236144, Note_on_c, 2, 60, 0
8, 236144, Note_on_c, 2, 72, 0
8, 236160, Note_on_c, 2, 72, 84
8, 236160, Note_on_c, 2, 60, 84
8, 236384, Note_on_c, 2, 72, 0
8, 236384, Note_on_c, 2, 60, 0
8, 236400, Note_on_c, 2, 60, 84
8, 236400, Note_on_c, 2, 72, 84
8, 236624, Note_on_c, 2, 60, 0
8, 236624, Note_on_c, 2, 72, 0
8, 236640, Note_on_c, 2, 60, 84
8, 236640, Note_on_c, 2, 72, 84
8, 236864, Note_on_c, 2, 60, 0
8, 236864, Note_on_c, 2, 72, 0
8, 236880, Note_on_c, 2, 72, 84
8, 236880, Note_on_c, 2, 60, 84
8, 237104, Note_on_c, 2, 72, 0
8, 237104, Note_on_c, 2, 60, 0
8, 237120, Note_on_c, 2, 72, 84
8, 237120, Note_on_c, 2, 60, 84
8, 237344, Note_on_c, 2, 72, 0
8, 237344, Note_on_c, 2, 60, 0
8, 237360, Note_on_c, 2, 72, 84
8, 237360, Note_on_c, 2, 60, 84
8, 237584, Note_on_c, 2, 72, 0
8, 237584, Note_on_c, 2, 60, 0
8, 237600, Note_on_c, 2, 72, 84
8, 237600, Note_on_c, 2, 60, 84
8, 237824, Note_on_c, 2, 72, 0
8, 237824, Note_on_c, 2, 60, 0
8, 237840, Note_on_c, 2, 72, 84
8, 237840, Note_on_c, 2, 60, 84
8, 238064, Note_on_c, 2, 72, 0
8, 238064, Note_on_c, 2, 60, 0
8, 238080, Note_on_c, 2, 60, 84
8, 238080, Note_on_c, 2, 72, 84
8, 238319, Note_on_c, 2, 60, 0
8, 238319, Note_on_c, 2, 72, 0
8, 238320, Note_on_c, 2, 64, 92
8, 238320, Note_on_c, 2, 67, 92
8, 238769, Note_on_c, 2, 64, 0
8, 238769, Note_on_c, 2, 67, 0
8, 238800, Note_on_c, 2, 68, 84
8, 238800, Note_on_c, 2, 65, 84
8, 239264, Note_on_c, 2, 68, 0
8, 239264, Note_on_c, 2, 65, 0
8, 239280, Note_on_c, 2, 70, 84
8, 239280, Note_on_c, 2, 67, 84
8, 239744, Note_on_c, 2, 70, 0
8, 239744, Note_on_c, 2, 67, 0
8, 239760, Note_on_c, 2, 65, 84
8, 239760, Note_on_c, 2, 62, 84
8, 240224, Note_on_c, 2, 65, 0
8, 240224, Note_on_c, 2, 62, 0
8, 240240, Note_on_c, 2, 67, 84
8, 240240, Note_on_c, 2, 64, 84
8, 240704, Note_on_c, 2, 67, 0
8, 240704, Note_on_c, 2, 64, 0
8, 240720, Note_on_c, 2, 65, 84
8, 240720, Note_on_c, 2, 68, 84
8, 241184, Note_on_c, 2, 65, 0
8, 241184, Note_on_c, 2, 68, 0
8, 241200, Note_on_c, 2, 65, 92
8, 241200, Note_on_c, 2, 68, 92
8, 241679, Note_on_c, 2, 65, 0
8, 241679, Note_on_c, 2, 68, 0
8, 241680, Note_on_c, 2, 67, 84
8, 241680, Note_on_c, 2, 64, 84
8, 241904, Note_on_c, 2, 67, 0
8, 241904, Note_on_c, 2, 64, 0
8, 241920, Note_on_c, 2, 67, 84
8, 241920, Note_on_c, 2, 64, 84
8, 242099, Note_on_c, 2, 67, 0
8, 242099, Note_on_c, 2, 64, 0
8, 242160, Note_on_c, 2, 72, 84
8, 242160, Note_on_c, 2, 60, 84
8, 242624, Note_on_c, 2, 72, 0
8, 242624, Note_on_c, 2, 60, 0
8, 242640, Note_on_c, 2, 72, 84
8, 242640, Note_on_c, 2, 60, 84
8, 243104, Note_on_c, 2, 72, 0
8, 243104, Note_on_c, 2, 60, 0
8, 243120, Note_on_c, 2, 72, 84
8, 243120, Note_on_c, 2, 60, 84
8, 243584, Note_on_c, 2, 72, 0
8, 243584, Note_on_c, 2, 60, 0
8, 243600, Note_on_c, 2, 60, 84
8, 243600, Note_on_c, 2, 72, 84
8, 244064, Note_on_c, 2, 60, 0
8, 244064, Note_on_c, 2, 72, 0
8, 244080, Note_on_c, 2, 60, 84
8, 244080, Note_on_c, 2, 72, 84
8, 244544, Note_on_c, 2, 60, 0
8, 244544, Note_on_c, 2, 72, 0
8, 244560, Note_on_c, 2, 60, 84
8, 244560, Note_on_c, 2, 72, 84
8, 245024, Note_on_c, 2, 60, 0
8, 245024, Note_on_c, 2, 72, 0
8, 245040, Note_on_c, 2, 68, 92
8, 245040, Note_on_c, 2, 65, 92
8, 245519, Note_on_c, 2, 68, 0
8, 245519, Note_on_c, 2, 65, 0
8, 245520, Note_on_c, 2, 67, 84
8, 245520, Note_on_c, 2, 64, 84
8, 245744, Note_on_c, 2, 67, 0
8, 245744, Note_on_c, 2, 64, 0
8, 245760, Note_on_c, 2, 64, 84
8, 245760, Note_on_c, 2, 67, 84
8, 245999, Note_on_c, 2, 64, 0
8, 245999, Note_on_c, 2, 67, 0
8, 273600, Note_on_c, 2, 67, 76
8, 273600, Note_on_c, 2, 72, 76
8, 273959, Note_on_c, 2, 67, 0
8, 273959, Note_on_c, 2, 72, 0
8, 274080, Note_on_c, 2, 72, 76
8, 274080, Note_on_c, 2, 67, 76
8, 274439, Note_on_c, 2, 72, 0
8, 274439, Note_on_c, 2, 67, 0
8, 274560, Note_on_c, 2, 72, 76
8, 274560, Note_on_c, 2, 67, 76
8, 274919, Note_on_c, 2, 72, 0
8, 274919, Note_on_c, 2, 67, 0
8, 275040, Note_on_c, 2, 72, 76
8, 275040, Note_on_c, 2, 67, 76
8, 275399, Note_on_c, 2, 72, 0
8, 275399, Note_on_c, 2, 67, 0
8, 275520, Note_on_c, 2, 67, 76
8, 275520, Note_on_c, 2, 72, 76
8, 275879, Note_on_c, 2, 67, 0
8, 275879, Note_on_c, 2, 72, 0
8, 276000, Note_on_c, 2, 72, 76
8, 276000, Note_on_c, 2, 67, 76
8, 276359, Note_on_c, 2, 72, 0
8, 276359, Note_on_c, 2, 67, 0
8, 276480, Note_on_c, 2, 69, 76
8, 276480, Note_on_c, 2, 72, 76
8, 276719, Note_on_c, 2, 69, 0
8, 276719, Note_on_c, 2, 72, 0
8, 277440, Note_on_c, 2, 74, 76
8, 277440, Note_on_c, 2, 65, 76
8, 277679, Note_on_c, 2, 74, 0
8, 277679, Note_on_c, 2, 65, 0
8, 278400, Note_on_c, 2, 65, 76
8, 278400, Note_on_c, 2, 69, 76
8, 278639, Note_on_c, 2, 65, 0
8, 278639, Note_on_c, 2, 69, 0
8, 279120, Note_on_c, 2, 65, 76
8, 279120, Note_on_c, 2, 69, 76
8, 279344, Note_on_c, 2, 65, 0
8, 279344, Note_on_c, 2, 69, 0
8, 279360, Note_on_c, 2, 64, 76
8, 279360, Note_on_c, 2, 67, 76
8, 279584, Note_on_c, 2, 64, 0
8, 279584, Note_on_c, 2, 67, 0
8, 279600, Note_on_c, 2, 67, 76
8, 279600, Note_on_c, 2, 64, 76
8, 279824, Note_on_c, 2, 67, 0
8, 279824, Note_on_c, 2, 64, 0
8, 279840, Note_on_c, 2, 64, 76
8, 279840, Note_on_c, 2, 67, 76
8, 280064, Note_on_c, 2, 64, 0
8, 280064, Note_on_c, 2, 67, 0
8, 280080, Note_on_c, 2, 64, 76
8, 280080, Note_on_c, 2, 67, 76
8, 280304, Note_on_c, 2, 64, 0
8, 280304, Note_on_c, 2, 67, 0
8, 280320, Note_on_c, 2, 69, 76
8, 280320, Note_on_c, 2, 65, 76
8, 280559, Note_on_c, 2, 69, 0
8, 280559, Note_on_c, 2, 65, 0
8, 280800, Note_on_c, 2, 67, 76
8, 280800, Note_on_c, 2, 65, 76
8, 281039, Note_on_c, 2, 67, 0
8, 281039, Note_on_c, 2, 65, 0
8, 281280, Note_on_c, 2, 65, 76
8, 281280, Note_on_c, 2, 69, 76
8, 281519, Note_on_c, 2, 65, 0
8, 281519, Note_on_c, 2, 69, 0
8, 281760, Note_on_c, 2, 67, 76
8, 281760, Note_on_c, 2, 64, 76
8, 281999, Note_on_c, 2, 67, 0
8, 281999, Note_on_c, 2, 64, 0
8, 282240, Note_on_c, 2, 69, 48
8, 282479, Note_on_c, 2, 69, 0
8, 282480, Note_on_c, 2, 70, 48
8, 282719, Note_on_c, 2, 70, 0
8, 282720, Note_on_c, 2, 72, 48
8, 282959, Note_on_c, 2, 72, 0
8, 282960, Note_on_c, 2, 60, 48
8, 283184, Note_on_c, 2, 60, 0
8, 283200, Note_on_c, 2, 65, 48
8, 283919, Note_on_c, 2, 65, 0
8, 283920, Note_on_c, 2, 67, 48
8, 284159, Note_on_c, 2, 67, 0
8, 284160, Note_on_c, 2, 69, 48
8, 284399, Note_on_c, 2, 69, 0
8, 284400, Note_on_c, 2, 65, 48
8, 284639, Note_on_c, 2, 65, 0
8, 284640, Note_on_c, 2, 69, 48
8, 284879, Note_on_c, 2, 69, 0
8, 284880, Note_on_c, 2, 70, 48
8, 285104, Note_on_c, 2, 70, 0
8, 285120, Note_on_c, 2, 72, 48
8, 285839, Note_on_c, 2, 72, 0
8, 285840, Note_on_c, 2, 74, 48
8, 286079, Note_on_c, 2, 74, 0
8, 286080, Note_on_c, 2, 76, 48
8, 286319, Note_on_c, 2, 76, 0
8, 286320, Note_on_c, 2, 77, 48
8, 286559, Note_on_c, 2, 77, 0
8, 286560, Note_on_c, 2, 79, 48
8, 286799, Note_on_c, 2, 79, 0
8, 286800, Note_on_c, 2, 77, 48
8, 287024, Note_on_c, 2, 77, 0
8, 287040, Note_on_c, 2, 76, 48
8, 287759, Note_on_c, 2, 76, 0
8, 287760, Note_on_c, 2, 74, 48
8, 287999, Note_on_c, 2, 74, 0
8, 288000, Note_on_c, 2, 72, 48
8, 288239, Note_on_c, 2, 72, 0
8, 288240, Note_on_c, 2, 74, 48
8, 288479, Note_on_c, 2, 74, 0
8, 288480, Note_on_c, 2, 70, 48
8, 288719, Note_on_c, 2, 70, 0
8, 288720, Note_on_c, 2, 67, 48
8, 288944, Note_on_c, 2, 67, 0
8, 288960, Note_on_c, 2, 64, 48
8, 289919, Note_on_c, 2, 64, 0
8, 297840, Note_on_c, 2, 74, 52
8, 298079, Note_on_c, 2, 74, 0
8, 298080, Note_on_c, 2, 70, 52
8, 298319, Note_on_c, 2, 70, 0
8, 298320, Note_on_c, 2, 67, 52
8, 298544, Note_on_c, 2, 67, 0
8, 298560, Note_on_c, 2, 64, 52
8, 298799, Note_on_c, 2, 64, 0
8, 301440, Note_on_c, 2, 69, 84
8, 301440, Note_on_c, 2, 72, 84
8, 301679, Note_on_c, 2, 69, 0
8, 301679, Note_on_c, 2, 72, 0
8, 302160, Note_on_c, 2, 69, 84
8, 302160, Note_on_c, 2, 77, 84
8, 302384, Note_on_c, 2, 69, 0
8, 302384, Note_on_c, 2, 77, 0
8, 302400, Note_on_c, 2, 67, 84
8, 302400, Note_on_c, 2, 74, 84
8, 302639, Note_on_c, 2, 67, 0
8, 302639, Note_on_c, 2, 74, 0
8, 302880, Note_on_c, 2, 67, 84
8, 302880, Note_on_c, 2, 72, 84
8, 303119, Note_on_c, 2, 67, 0
8, 303119, Note_on_c, 2, 72, 0
8, 305280, Note_on_c, 2, 72, 84
8, 305280, Note_on_c, 2, 69, 84
8, 305519, Note_on_c, 2, 72, 0
8, 305519, Note_on_c, 2, 69, 0
8, 306000, Note_on_c, 2, 69, 84
8, 306000, Note_on_c, 2, 65, 84
8, 306224, Note_on_c, 2, 69, 0
8, 306224, Note_on_c, 2, 65, 0
8, 306240, Note_on_c, 2, 74, 84
8, 306240, Note_on_c, 2, 67, 84
8, 306479, Note_on_c, 2, 74, 0
8, 306479, Note_on_c, 2, 67, 0
8, 306720, Note_on_c, 2, 72, 84
8, 306720, Note_on_c, 2, 67, 84
8, 306959, Note_on_c, 2, 72, 0
8, 306959, Note_on_c, 2, 67, 0
8, 307200, Control_c, 2, 11, 80
8, 308160, Control_c, 2, 11, 80
8, 308160, Note_on_c, 2, 71, 76
8, 308213, Control_c, 2, 11, 83
8, 308267, Control_c, 2, 11, 85
8, 308320, Control_c, 2, 11, 88
8, 308373, Control_c, 2, 11, 90
8, 308427, Control_c, 2, 11, 93
8, 308480, Control_c, 2, 11, 96
8, 308533, Control_c, 2, 11, 98
8, 308587, Control_c, 2, 11, 101
8, 308640, Control_c, 2, 11, 104
8, 308693, Control_c, 2, 11, 106
8, 308747, Control_c, 2, 11, 109
8, 308800, Control_c, 2, 11, 111
8, 308853, Control_c, 2, 11, 114
8, 308907, Control_c, 2, 11, 117
8, 308960, Control_c, 2, 11, 119
8, 309013, Control_c, 2, 11, 122
8, 309067, Control_c, 2, 11, 127
8, 309104, Note_on_c, 2, 71, 0
8, 309120, Note_on_c, 2, 71, 76
8, 310064, Note_on_c, 2, 71, 0
8, 310080, Note_on_c, 2, 72, 76
8, 311024, Note_on_c, 2, 72, 0
8, 311040, Note_on_c, 2, 74, 76
8, 311984, Note_on_c, 2, 74, 0
8, 312000, Note_on_c, 2, 76, 76
8, 312944, Note_on_c, 2, 76, 0
8, 312960, Note_on_c, 2, 77, 84
8, 312960, Note_on_c, 2, 68, 84
8, 314864, Note_on_c, 2, 77, 0
8, 314864, Note_on_c, 2, 68, 0
8, 314880, Note_on_c, 2, 77, 84
8, 314880, Note_on_c, 2, 69, 84
8, 315824, Note_on_c, 2, 77, 0
8, 315824, Note_on_c, 2, 69, 0
8, 315840, Note_on_c, 2, 67, 84
8, 315840, Note_on_c, 2, 76, 84
8, 316784, Note_on_c, 2, 67, 0
8, 316784, Note_on_c, 2, 76, 0
8, 316800, Note_on_c, 2, 69, 84
8, 316800, Note_on_c, 2, 77, 84
8, 317039, Note_on_c, 2, 69, 0
8, 317039, Note_on_c, 2, 77, 0
8, 319920, Note_on_c, 2, 67, 76
8, 319920, Note_on_c, 2, 70, 76
8, 320384, Note_on_c, 2, 67, 0
8, 320384, Note_on_c, 2, 70, 0
8, 320400, Note_on_c, 2, 67, 76
8, 320400, Note_on_c, 2, 70, 76
8, 320579, Note_on_c, 2, 67, 0
8, 320579, Note_on_c, 2, 70, 0
8, 320640, Note_on_c, 2, 69, 76
8, 320640, Note_on_c, 2, 65, 76
8, 320819, Note_on_c, 2, 69, 0
8, 320819, Note_on_c, 2, 65, 0
8, 323760, Note_on_c, 2, 67, 76
8, 323760, Note_on_c, 2, 70, 76
8, 324224, Note_on_c, 2, 67, 0
8, 324224, Note_on_c, 2, 70, 0
8, 324240, Note_on_c, 2, 67, 76
8, 324240, Note_on_c, 2, 70, 76
8, 324464, Note_on_c, 2, 67, 0
8, 324464, Note_on_c, 2, 70, 0
8, 324480, Note_on_c, 2, 69, 76
8, 324480, Note_on_c, 2, 65, 76
8, 324719, Note_on_c, 2, 69, 0
8, 324719, Note_on_c, 2, 65, 0
8, 324960, Note_on_c, 2, 64, 76
8, 324960, Note_on_c, 2, 67, 76
8, 325199, Note_on_c, 2, 64, 0
8, 325199, Note_on_c, 2, 67, 0
8, 325440, Note_on_c, 2, 69, 76
8, 325440, Note_on_c, 2, 65, 76
8, 325679, Note_on_c, 2, 69, 0
8, 325679, Note_on_c, 2, 65, 0
8, 325920, Note_on_c, 2, 70, 76
8, 325920, Note_on_c, 2, 67, 76
8, 326159, Note_on_c, 2, 70, 0
8, 326159, Note_on_c, 2, 67, 0
8, 326400, Note_on_c, 2, 69, 84
8, 326400, Note_on_c, 2, 72, 84
8, 326460, Control_c, 2, 11, 112
8, 328319, Note_on_c, 2, 69, 0
8, 328319, Note_on_c, 2, 72, 0
8, 330232, Control_c, 2, 11, 127
8, 330240, Note_on_c, 2, 67, 84
8, 330240, Note_on_c, 2, 70, 84
8, 330300, Control_c, 2, 11, 112
8, 332159, Note_on_c, 2, 67, 0
8, 332159, Note_on_c, 2, 70, 0
8, 332160, Note_on_c, 2, 72, 84
8, 332160, Note_on_c, 2, 69, 84
8, 334049, Note_on_c, 2, 72, 0
8, 334049, Note_on_c, 2, 69, 0
8, 334072, Control_c, 2, 11, 127
8, 334080, Note_on_c, 2, 65, 84
8, 334080, Note_on_c, 2, 69, 84
8, 335969, Note_on_c, 2, 65, 0
8, 335969, Note_on_c, 2, 69, 0
8, 336000, Note_on_c, 2, 62, 84
8, 336000, Note_on_c, 2, 67, 84
8, 336000, Note_on_c, 2, 70, 84
8, 336000, Note_on_c, 2, 67, 84
8, 337889, Note_on_c, 2, 62, 0
8, 337889, Note_on_c, 2, 67, 0
8, 337889, Note_on_c, 2, 70, 0
8, 337889, Note_on_c, 2, 67, 0
8, 337920, Note_on_c, 2, 57, 84
8, 337920, Note_on_c, 2, 65, 84
8, 339809, Note_on_c, 2, 57, 0
8, 339809, Note_on_c, 2, 65, 0
8, 339840, Note_on_c, 2, 55, 84
8, 339840, Note_on_c, 2, 60, 84
8, 341729, Note_on_c, 2, 55, 0
8, 341729, Note_on_c, 2, 60, 0
8, 341760, Note_on_c, 2, 57, 52
8, 341999, Note_on_c, 2, 57, 0
8, 363360, Note_on_c, 2, 67, 52
8, 364319, Note_on_c, 2, 67, 0
8, 364320, Note_on_c, 2, 69, 52
8, 364559, Note_on_c, 2, 69, 0
8, 364560, Note_on_c, 2, 70, 52
8, 364751, Note_on_c, 2, 70, 0
8, 364760, Note_on_c, 2, 74, 52
8, 364799, Note_on_c, 2, 74, 0
8, 364800, Note_on_c, 2, 72, 52
8, 365279, Note_on_c, 2, 72, 0
8, 365280, Note_on_c, 2, 70, 52
8, 365519, Note_on_c, 2, 70, 0
8, 365520, Note_on_c, 2, 72, 52
8, 365744, Note_on_c, 2, 72, 0
8, 365760, Note_on_c, 2, 69, 52
8, 366239, Note_on_c, 2, 69, 0
8, 366240, Note_on_c, 2, 74, 52
8, 366704, Note_on_c, 2, 74, 0
8, 366720, Note_on_c, 2, 67, 52
8, 366899, Note_on_c, 2, 67, 0
8, 366960, Note_on_c, 2, 67, 52
8, 366960, Note_on_c, 2, 62, 52
8, 367139, Note_on_c, 2, 67, 0
8, 367139, Note_on_c, 2, 62, 0
8, 367200, Note_on_c, 2, 58, 52
8, 367200, Note_on_c, 2, 62, 52
8, 367379, Note_on_c, 2, 58, 0
8, 367379, Note_on_c, 2, 62, 0
8, 367440, Note_on_c, 2, 67, 52
8, 367440, Note_on_c, 2, 62, 52
8, 367619, Note_on_c, 2, 67, 0
8, 367619, Note_on_c, 2, 62, 0
8, 367920, Note_on_c, 2, 63, 52
8, 367920, Note_on_c, 2, 67, 52
8, 368099, Note_on_c, 2, 63, 0
8, 368099, Note_on_c, 2, 67, 0
8, 368160, Note_on_c, 2, 58, 52
8, 368160, Note_on_c, 2, 63, 52
8, 368339, Note_on_c, 2, 58, 0
8, 368339, Note_on_c, 2, 63, 0
8, 368400, Note_on_c, 2, 67, 52
8, 368400, Note_on_c, 2, 63, 52
8, 368579, Note_on_c, 2, 67, 0
8, 368579, Note_on_c, 2, 63, 0
8, 368880, Note_on_c, 2, 68, 52
8, 368880, Note_on_c, 2, 63, 52
8, 369059, Note_on_c, 2, 68, 0
8, 369059, Note_on_c, 2, 63, 0
8, 369120, Note_on_c, 2, 63, 52
8, 369120, Note_on_c, 2, 60, 52
8, 369299, Note_on_c, 2, 63, 0
8, 369299, Note_on_c, 2, 60, 0
8, 369360, Note_on_c, 2, 63, 52
8, 369360, Note_on_c, 2, 68, 52
8, 369539, Note_on_c, 2, 63, 0
8, 369539, Note_on_c, 2, 68, 0
8, 369840, Note_on_c, 2, 68, 52
8, 369840, Note_on_c, 2, 65, 52
8, 370019, Note_on_c, 2, 68, 0
8, 370019, Note_on_c, 2, 65, 0
8, 370080, Note_on_c, 2, 65, 52
8, 370080, Note_on_c, 2, 58, 52
8, 370259, Note_on_c, 2, 65, 0
8, 370259, Note_on_c, 2, 58, 0
8, 370320, Note_on_c, 2, 68, 52
8, 370320, Note_on_c, 2, 65, 52
8, 370499, Note_on_c, 2, 68, 0
8, 370499, Note_on_c, 2, 65, 0
8, 370560, Note_on_c, 2, 75, 52
8, 371999, Note_on_c, 2, 75, 0
8, 372000, Note_on_c, 2, 77, 52
8, 372239, Note_on_c, 2, 77, 0
8, 372240, Note_on_c, 2, 79, 52
8, 372464, Note_on_c, 2, 79, 0
8, 372480, Note_on_c, 2, 80, 52
8, 372959, Note_on_c, 2, 80, 0
8, 372960, Note_on_c, 2, 79, 52
8, 373199, Note_on_c, 2, 79, 0
8, 373200, Note_on_c, 2, 80, 52
8, 373424, Note_on_c, 2, 80, 0
8, 373440, Note_on_c, 2, 77, 52
8, 373919, Note_on_c, 2, 77, 0
8, 373920, Note_on_c, 2, 82, 52
8, 374384, Note_on_c, 2, 82, 0
8, 374392, Control_c, 2, 11, 64
8, 374400, Note_on_c, 2, 79, 84
8, 374400, Note_on_c, 2, 75, 84
8, 375360, Control_c, 2, 11, 64
8, 375440, Control_c, 2, 11, 66
8, 375520, Control_c, 2, 11, 68
8, 375600, Control_c, 2, 11, 69
8, 375680, Control_c, 2, 11, 71
8, 375760, Control_c, 2, 11, 73
8, 375840, Control_c, 2, 11, 75
8, 375920, Control_c, 2, 11, 76
8, 376000, Control_c, 2, 11, 78
8, 376080, Control_c, 2, 11, 80
8, 376160, Control_c, 2, 11, 82
8, 376240, Control_c, 2, 11, 83
8, 376304, Note_on_c, 2, 79, 0
8, 376320, Control_c, 2, 11, 85
8, 376320, Note_on_c, 2, 77, 84
8, 376400, Control_c, 2, 11, 87
8, 376480, Control_c, 2, 11, 89
8, 376560, Control_c, 2, 11, 90
8, 376640, Control_c, 2, 11, 92
8, 376720, Control_c, 2, 11, 94
8, 376800, Control_c, 2, 11, 96
8, 376880, Control_c, 2, 11, 97
8, 376960, Control_c, 2, 11, 99
8, 377040, Control_c, 2, 11, 101
8, 377120, Control_c, 2, 11, 103
8, 377200, Control_c, 2, 11, 104
8, 377264, Note_on_c, 2, 75, 0
8, 377280, Note_on_c, 2, 74, 84
8, 377280, Control_c, 2, 11, 106
8, 377360, Control_c, 2, 11, 108
8, 377440, Control_c, 2, 11, 110
8, 377520, Control_c, 2, 11, 111
8, 377600, Control_c, 2, 11, 113
8, 377680, Control_c, 2, 11, 115
8, 377760, Control_c, 2, 11, 117
8, 377840, Control_c, 2, 11, 118
8, 377920, Control_c, 2, 11, 120
8, 378000, Control_c, 2, 11, 122
8, 378080, Control_c, 2, 11, 124
8, 378160, Control_c, 2, 11, 127
8, 378224, Note_on_c, 2, 77, 0
8, 378224, Note_on_c, 2, 74, 0
8, 378240, Note_on_c, 2, 67, 84
8, 378240, Note_on_c, 2, 70, 84
8, 380144, Note_on_c, 2, 67, 0
8, 380144, Note_on_c, 2, 70, 0
8, 380160, Note_on_c, 2, 67, 84
8, 380160, Note_on_c, 2, 70, 84
8, 381104, Note_on_c, 2, 67, 0
8, 381104, Note_on_c, 2, 70, 0
8, 381120, Note_on_c, 2, 67, 84
8, 381120, Note_on_c, 2, 70, 84
8, 381359, Note_on_c, 2, 67, 0
8, 381359, Note_on_c, 2, 70, 0
8, 381600, Note_on_c, 2, 67, 84
8, 381600, Note_on_c, 2, 70, 84
8, 381839, Note_on_c, 2, 67, 0
8, 381839, Note_on_c, 2, 70, 0
8, 382080, Note_on_c, 2, 70, 84
8, 382080, Note_on_c, 2, 67, 84
8, 382319, Note_on_c, 2, 70, 0
8, 382319, Note_on_c, 2, 67, 0
8, 385920, Note_on_c, 2, 74, 84
8, 385920, Note_on_c, 2, 77, 84
8, 387824, Note_on_c, 2, 74, 0
8, 387824, Note_on_c, 2, 77, 0
8, 387840, Note_on_c, 2, 74, 84
8, 387840, Note_on_c, 2, 77, 84
8, 388784, Note_on_c, 2, 74, 0
8, 388784, Note_on_c, 2, 77, 0
8, 388800, Note_on_c, 2, 74, 84
8, 388800, Note_on_c, 2, 77, 84
8, 389039, Note_on_c, 2, 74, 0
8, 389039, Note_on_c, 2, 77, 0
8, 389280, Note_on_c, 2, 74, 84
8, 389280, Note_on_c, 2, 77, 84
8, 389519, Note_on_c, 2, 74, 0
8, 389519, Note_on_c, 2, 77, 0
8, 389760, Note_on_c, 2, 74, 84
8, 389760, Note_on_c, 2, 77, 84
8, 389999, Note_on_c, 2, 74, 0
8, 389999, Note_on_c, 2, 77, 0
8, 393600, Note_on_c, 2, 76, 84
8, 393600, Note_on_c, 2, 67, 84
8, 395504, Note_on_c, 2, 76, 0
8, 395504, Note_on_c, 2, 67, 0
8, 395520, Note_on_c, 2, 67, 84
8, 395520, Note_on_c, 2, 76, 84
8, 396464, Note_on_c, 2, 67, 0
8, 396464, Note_on_c, 2, 76, 0
8, 396480, Note_on_c, 2, 67, 84
8, 396480, Note_on_c, 2, 76, 84
8, 396719, Note_on_c, 2, 67, 0
8, 396719, Note_on_c, 2, 76, 0
8, 396960, Note_on_c, 2, 76, 84
8, 396960, Note_on_c, 2, 67, 84
8, 397199, Note_on_c, 2, 76, 0
8, 397199, Note_on_c, 2, 67, 0
8, 397440, Note_on_c, 2, 76, 76
8, 397440, Note_on_c, 2, 67, 76
8, 397679, Note_on_c, 2, 76, 0
8, 397679, Note_on_c, 2, 67, 0
8, 398400, Note_on_c, 2, 76, 76
8, 398400, Note_on_c, 2, 67, 76
8, 398639, Note_on_c, 2, 76, 0
8, 398639, Note_on_c, 2, 67, 0
8, 399360, Note_on_c, 2, 76, 76
8, 399360, Note_on_c, 2, 67, 76
8, 399599, Note_on_c, 2, 76, 0
8, 399599, Note_on_c, 2, 67, 0
8, 400320, Note_on_c, 2, 76, 76
8, 400320, Note_on_c, 2, 67, 76
8, 400559, Note_on_c, 2, 76, 0
8, 400559, Note_on_c, 2, 67, 0
8, 401280, Note_on_c, 2, 76, 76
8, 401280, Note_on_c, 2, 67, 76
8, 401519, Note_on_c, 2, 76, 0
8, 401519, Note_on_c, 2, 67, 0
8, 403200, Note_on_c, 2, 73, 52
8, 403200, Note_on_c, 2, 70, 52
8, 403439, Note_on_c, 2, 73, 0
8, 403439, Note_on_c, 2, 70, 0
8, 405120, Note_on_c, 2, 70, 44
8, 405120, Note_on_c, 2, 73, 44
8, 405359, Note_on_c, 2, 70, 0
8, 405359, Note_on_c, 2, 73, 0
8, 466560, Note_on_c, 2, 74, 84
8, 466560, Note_on_c, 2, 77, 84
8, 469424, Note_on_c, 2, 74, 0
8, 469424, Note_on_c, 2, 77, 0
8, 469440, Note_on_c, 2, 77, 84
8, 469440, Note_on_c, 2, 74, 84
8, 469619, Note_on_c, 2, 77, 0
8, 469619, Note_on_c, 2, 74, 0
8, 469920, Note_on_c, 2, 77, 84
8, 469920, Note_on_c, 2, 74, 84
8, 470099, Note_on_c, 2, 77, 0
8, 470099, Note_on_c, 2, 74, 0
8, 470400, Note_on_c, 2, 77, 84
8, 470400, Note_on_c, 2, 74, 84
8, 470519, Note_on_c, 2, 77, 0
8, 470519, Note_on_c, 2, 74, 0
8, 470640, Note_on_c, 2, 82, 84
8, 470640, Note_on_c, 2, 70, 84
8, 470759, Note_on_c, 2, 82, 0
8, 470759, Note_on_c, 2, 70, 0
8, 470880, Note_on_c, 2, 77, 84
8, 470880, Note_on_c, 2, 65, 84
8, 470999, Note_on_c, 2, 77, 0
8, 470999, Note_on_c, 2, 65, 0
8, 471120, Note_on_c, 2, 70, 84
8, 471120, Note_on_c, 2, 82, 84
8, 471239, Note_on_c, 2, 70, 0
8, 471239, Note_on_c, 2, 82, 0
8, 471360, Note_on_c, 2, 74, 84
8, 471360, Note_on_c, 2, 62, 84
8, 471479, Note_on_c, 2, 74, 0
8, 471479, Note_on_c, 2, 62, 0
8, 471600, Note_on_c, 2, 65, 84
8, 471600, Note_on_c, 2, 77, 84
8, 471719, Note_on_c, 2, 65, 0
8, 471719, Note_on_c, 2, 77, 0
8, 471840, Note_on_c, 2, 70, 84
8, 471840, Note_on_c, 2, 58, 84
8, 471959, Note_on_c, 2, 70, 0
8, 471959, Note_on_c, 2, 58, 0
8, 472080, Note_on_c, 2, 62, 84
8, 472080, Note_on_c, 2, 74, 84
8, 472199, Note_on_c, 2, 62, 0
8, 472199, Note_on_c, 2, 74, 0
8, 472320, Note_on_c, 2, 55, 84
8, 472320, Note_on_c, 2, 67, 84
8, 472439, Note_on_c, 2, 55, 0
8, 472439, Note_on_c, 2, 67, 0
8, 472560, Note_on_c, 2, 63, 84
8, 472560, Note_on_c, 2, 75, 84
8, 472679, Note_on_c, 2, 63, 0
8, 472679, Note_on_c, 2, 75, 0
8, 472800, Note_on_c, 2, 72, 84
8, 472800, Note_on_c, 2, 60, 84
8, 472919, Note_on_c, 2, 72, 0
8, 472919, Note_on_c, 2, 60, 0
8, 473040, Note_on_c, 2, 70, 84
8, 473040, Note_on_c, 2, 58, 84
8, 473159, Note_on_c, 2, 70, 0
8, 473159, Note_on_c, 2, 58, 0
8, 473280, Note_on_c, 2, 69, 84
8, 473280, Note_on_c, 2, 57, 84
8, 473399, Note_on_c, 2, 69, 0
8, 473399, Note_on_c, 2, 57, 0
8, 473520, Note_on_c, 2, 65, 84
8, 473520, Note_on_c, 2, 77, 84
8, 473639, Note_on_c, 2, 65, 0
8, 473639, Note_on_c, 2, 77, 0
8, 473760, Note_on_c, 2, 63, 84
8, 473760, Note_on_c, 2, 75, 84
8, 473879, Note_on_c, 2, 63, 0
8, 473879, Note_on_c, 2, 75, 0
8, 474000, Note_on_c, 2, 72, 84
8, 474000, Note_on_c, 2, 60, 84
8, 474119, Note_on_c, 2, 72, 0
8, 474119, Note_on_c, 2, 60, 0
8, 474240, Note_on_c, 2, 70, 76
8, 474240, Note_on_c, 2, 58, 76
8, 474359, Note_on_c, 2, 70, 0
8, 474360, Note_on_c, 2, 70, 52
8, 474479, Note_on_c, 2, 58, 0
8, 476144, Note_on_c, 2, 70, 0
8, 476160, Note_on_c, 2, 75, 52
8, 478064, Note_on_c, 2, 75, 0
8, 478080, Note_on_c, 2, 74, 52
8, 478304, Note_on_c, 2, 74, 0
8, 478320, Note_on_c, 2, 70, 48
8, 478320, Note_on_c, 2, 74, 48
8, 478559, Note_on_c, 2, 70, 0
8, 478559, Note_on_c, 2, 74, 0
8, 478560, Note_on_c, 2, 72, 48
8, 478560, Note_on_c, 2, 69, 48
8, 478799, Note_on_c, 2, 72, 0
8, 478799, Note_on_c, 2, 69, 0
8, 478800, Note_on_c, 2, 70, 48
8, 478800, Note_on_c, 2, 67, 48
8, 479039, Note_on_c, 2, 70, 0
8, 479039, Note_on_c, 2, 67, 0
8, 479040, Note_on_c, 2, 69, 48
8, 479040, Note_on_c, 2, 65, 48
8, 479279, Note_on_c, 2, 69, 0
8, 479279, Note_on_c, 2, 65, 0
8, 479280, Note_on_c, 2, 67, 48
8, 479280, Note_on_c, 2, 63, 48
8, 479519, Note_on_c, 2, 67, 0
8, 479519, Note_on_c, 2, 63, 0
8, 479520, Note_on_c, 2, 62, 48
8, 479520, Note_on_c, 2, 65, 48
8, 479759, Note_on_c, 2, 62, 0
8, 479759, Note_on_c, 2, 65, 0
8, 479760, Note_on_c, 2, 67, 48
8, 479760, Note_on_c, 2, 63, 48
8, 479984, Note_on_c, 2, 67, 0
8, 479984, Note_on_c, 2, 63, 0
8, 480000, Note_on_c, 2, 63, 48
8, 480000, Note_on_c, 2, 60, 48
8, 482159, Note_on_c, 2, 63, 0
8, 482159, Note_on_c, 2, 60, 0
8, 483840, Note_on_c, 2, 70, 84
8, 483840, Note_on_c, 2, 58, 84
8, 485744, Note_on_c, 2, 70, 0
8, 485744, Note_on_c, 2, 58, 0
8, 485760, Note_on_c, 2, 75, 92
8, 485760, Note_on_c, 2, 63, 92
8, 486689, Note_on_c, 2, 75, 0
8, 486689, Note_on_c, 2, 63, 0
8, 486720, Note_on_c, 2, 77, 92
8, 486720, Note_on_c, 2, 65, 92
8, 487649, Note_on_c, 2, 77, 0
8, 487649, Note_on_c, 2, 65, 0
8, 487680, Note_on_c, 2, 62, 92
8, 487680, Note_on_c, 2, 74, 92
8, 489089, Note_on_c, 2, 62, 0
8, 489089, Note_on_c, 2, 74, 0
8, 489120, Note_on_c, 2, 79, 84
8, 489120, Note_on_c, 2, 67, 84
8, 489584, Note_on_c, 2, 79, 0
8, 489584, Note_on_c, 2, 67, 0
8, 489600, Note_on_c, 2, 75, 92
8, 489600, Note_on_c, 2, 63, 92
8, 490529, Note_on_c, 2, 75, 0
8, 490529, Note_on_c, 2, 63, 0
8, 490560, Note_on_c, 2, 80, 92
8, 490560, Note_on_c, 2, 68, 92
8, 491489, Note_on_c, 2, 80, 0
8, 491489, Note_on_c, 2, 68, 0
8, 491520, Note_on_c, 2, 77, 92
8, 491520, Note_on_c, 2, 65, 92
8, 492929, Note_on_c, 2, 77, 0
8, 492929, Note_on_c, 2, 65, 0
8, 492960, Note_on_c, 2, 70, 92
8, 492960, Note_on_c, 2, 65, 92
8, 493409, Note_on_c, 2, 70, 0
8, 493409, Note_on_c, 2, 65, 0
8, 493440, Note_on_c, 2, 70, 84
8, 493440, Note_on_c, 2, 67, 84
8, 493904, Note_on_c, 2, 70, 0
8, 493904, Note_on_c, 2, 67, 0
8, 493920, Note_on_c, 2, 72, 92
8, 493920, Note_on_c, 2, 67, 92
8, 494369, Note_on_c, 2, 72, 0
8, 494369, Note_on_c, 2, 67, 0
8, 494400, Note_on_c, 2, 69, 84
8, 494400, Note_on_c, 2, 72, 84
8, 494864, Note_on_c, 2, 69, 0
8, 494864, Note_on_c, 2, 72, 0
8, 494880, Note_on_c, 2, 74, 92
8, 494880, Note_on_c, 2, 69, 92
8, 495329, Note_on_c, 2, 74, 0
8, 495329, Note_on_c, 2, 69, 0
8, 495360, Note_on_c, 2, 70, 84
8, 495360, Note_on_c, 2, 74, 84
8, 495824, Note_on_c, 2, 70, 0
8, 495824, Note_on_c, 2, 74, 0
8, 495840, Note_on_c, 2, 70, 92
8, 495840, Note_on_c, 2, 75, 92
8, 496289, Note_on_c, 2, 70, 0
8, 496289, Note_on_c, 2, 75, 0
8, 496320, Note_on_c, 2, 75, 84
8, 496320, Note_on_c, 2, 72, 84
8, 496784, Note_on_c, 2, 75, 0
8, 496784, Note_on_c, 2, 72, 0
8, 496800, Note_on_c, 2, 72, 92
8, 496800, Note_on_c, 2, 77, 92
8, 497249, Note_on_c, 2, 72, 0
8, 497249, Note_on_c, 2, 77, 0
8, 497280, Note_on_c, 2, 70, 84
8, 497504, Note_on_c, 2, 70, 0
8, 497520, Note_on_c, 2, 72, 84
8, 497744, Note_on_c, 2, 72, 0
8, 497760, Note_on_c, 2, 74, 84
8, 497984, Note_on_c, 2, 74, 0
8, 498000, Note_on_c, 2, 75, 84
8, 498224, Note_on_c, 2, 75, 0
8, 498240, Note_on_c, 2, 77, 84
8, 498464, Note_on_c, 2, 77, 0
8, 498480, Note_on_c, 2, 75, 84
8, 498704, Note_on_c, 2, 75, 0
8, 498720, Note_on_c, 2, 74, 84
8, 498944, Note_on_c, 2, 74, 0
8, 498960, Note_on_c, 2, 72, 84
8, 499184, Note_on_c, 2, 72, 0
8, 499200, Note_on_c, 2, 70, 84
8, 499424, Note_on_c, 2, 70, 0
8, 499440, Note_on_c, 2, 69, 84
8, 499664, Note_on_c, 2, 69, 0
8, 499680, Note_on_c, 2, 67, 84
8, 499904, Note_on_c, 2, 67, 0
8, 499920, Note_on_c, 2, 65, 84
8, 500144, Note_on_c, 2, 65, 0
8, 500160, Note_on_c, 2, 63, 84
8, 500384, Note_on_c, 2, 63, 0
8, 500400, Note_on_c, 2, 62, 84
8, 500624, Note_on_c, 2, 62, 0
8, 500640, Note_on_c, 2, 60, 84
8, 500864, Note_on_c, 2, 60, 0
8, 500880, Note_on_c, 2, 58, 84
8, 501104, Note_on_c, 2, 58, 0
8, 501120, Note_on_c, 2, 65, 84
8, 501344, Note_on_c, 2, 65, 0
8, 501360, Note_on_c, 2, 72, 92
8, 501360, Note_on_c, 2, 69, 92
8, 501809, Note_on_c, 2, 72, 0
8, 501809, Note_on_c, 2, 69, 0
8, 501840, Note_on_c, 2, 73, 84
8, 501840, Note_on_c, 2, 70, 84
8, 502304, Note_on_c, 2, 73, 0
8, 502304, Note_on_c, 2, 70, 0
8, 502320, Note_on_c, 2, 75, 84
8, 502320, Note_on_c, 2, 72, 84
8, 502784, Note_on_c, 2, 75, 0
8, 502784, Note_on_c, 2, 72, 0
8, 502800, Note_on_c, 2, 67, 84
8, 502800, Note_on_c, 2, 70, 84
8, 503264, Note_on_c, 2, 67, 0
8, 503264, Note_on_c, 2, 70, 0
8, 503280, Note_on_c, 2, 69, 84
8, 503280, Note_on_c, 2, 72, 84
8, 503744, Note_on_c, 2, 69, 0
8, 503744, Note_on_c, 2, 72, 0
8, 503760, Note_on_c, 2, 73, 84
8, 503760, Note_on_c, 2, 70, 84
8, 504224, Note_on_c, 2, 73, 0
8, 504224, Note_on_c, 2, 70, 0
8, 504240, Note_on_c, 2, 70, 92
8, 504240, Note_on_c, 2, 73, 92
8, 504719, Note_on_c, 2, 70, 0
8, 504719, Note_on_c, 2, 73, 0
8, 504720, Note_on_c, 2, 72, 84
8, 504720, Note_on_c, 2, 69, 84
8, 504944, Note_on_c, 2, 72, 0
8, 504944, Note_on_c, 2, 69, 0
8, 504960, Note_on_c, 2, 69, 84
8, 504960, Note_on_c, 2, 72, 84
8, 505139, Note_on_c, 2, 69, 0
8, 505139, Note_on_c, 2, 72, 0
8, 505200, Note_on_c, 2, 77, 84
8, 505200, Note_on_c, 2, 65, 84
8, 505664, Note_on_c, 2, 77, 0
8, 505664, Note_on_c, 2, 65, 0
8, 505680, Note_on_c, 2, 77, 84
8, 505680, Note_on_c, 2, 65, 84
8, 506144, Note_on_c, 2, 77, 0
8, 506144, Note_on_c, 2, 65, 0
8, 506160, Note_on_c, 2, 65, 84
8, 506160, Note_on_c, 2, 77, 84
8, 506624, Note_on_c, 2, 65, 0
8, 506624, Note_on_c, 2, 77, 0
8, 506640, Note_on_c, 2, 65, 84
8, 506640, Note_on_c, 2, 77, 84
8, 507104, Note_on_c, 2, 65, 0
8, 507104, Note_on_c, 2, 77, 0
8, 507120, Note_on_c, 2, 65, 84
8, 507120, Note_on_c, 2, 77, 84
8, 507584, Note_on_c, 2, 65, 0
8, 507584, Note_on_c, 2, 77, 0
8, 507600, Note_on_c, 2, 65, 84
8, 507600, Note_on_c, 2, 77, 84
8, 508064, Note_on_c, 2, 65, 0
8, 508064, Note_on_c, 2, 77, 0
8, 508080, Note_on_c, 2, 70, 92
8, 508080, Note_on_c, 2, 73, 92
8, 508559, Note_on_c, 2, 70, 0
8, 508559, Note_on_c, 2, 73, 0
8, 508560, Note_on_c, 2, 72, 84
8, 508560, Note_on_c, 2, 69, 84
8, 508784, Note_on_c, 2, 72, 0
8, 508784, Note_on_c, 2, 69, 0
8, 508800, Note_on_c, 2, 69, 84
8, 508800, Note_on_c, 2, 72, 84
8, 509039, Note_on_c, 2, 69, 0
8, 509039, Note_on_c, 2, 72, 0
8, 514560, Note_on_c, 2, 77, 52
8, 514679, Note_on_c, 2, 77, 0
8, 514680, Note_on_c, 2, 74, 52
8, 514799, Note_on_c, 2, 74, 0
8, 514800, Note_on_c, 2, 75, 52
8, 514919, Note_on_c, 2, 75, 0
8, 514920, Note_on_c, 2, 72, 52
8, 515024, Note_on_c, 2, 72, 0
8, 515040, Note_on_c, 2, 70, 52
8, 515219, Note_on_c, 2, 70, 0
8, 515280, Note_on_c, 2, 65, 52
8, 515459, Note_on_c, 2, 65, 0
8, 515520, Note_on_c, 2, 70, 52
8, 515699, Note_on_c, 2, 70, 0
8, 515760, Note_on_c, 2, 72, 52
8, 515939, Note_on_c, 2, 72, 0
8, 516000, Note_on_c, 2, 74, 52
8, 516179, Note_on_c, 2, 74, 0
8, 516240, Note_on_c, 2, 74, 52
8, 516419, Note_on_c, 2, 74, 0
8, 516480, Note_on_c, 2, 74, 52
8, 517904, Note_on_c, 2, 74, 0
8, 517920, Note_on_c, 2, 70, 52
8, 517920, Note_on_c, 2, 67, 52
8, 518384, Note_on_c, 2, 70, 0
8, 518384, Note_on_c, 2, 67, 0
8, 518400, Note_on_c, 2, 66, 52
8, 518400, Note_on_c, 2, 69, 52
8, 519359, Note_on_c, 2, 66, 0
8, 519359, Note_on_c, 2, 69, 0
8, 519360, Note_on_c, 2, 67, 52
8, 519360, Note_on_c, 2, 70, 52
8, 520319, Note_on_c, 2, 67, 0
8, 520319, Note_on_c, 2, 70, 0
8, 520320, Note_on_c, 2, 72, 52
8, 520320, Note_on_c, 2, 69, 52
8, 521279, Note_on_c, 2, 72, 0
8, 521279, Note_on_c, 2, 69, 0
8, 521280, Note_on_c, 2, 67, 52
8, 521280, Note_on_c, 2, 70, 52
8, 522224, Note_on_c, 2, 67, 0
8, 522224, Note_on_c, 2, 70, 0
8, 522240, Note_on_c, 2, 69, 52
8, 522240, Note_on_c, 2, 66, 52
8, 522479, Note_on_c, 2, 69, 0
8, 522479, Note_on_c, 2, 66, 0
8, 536640, Note_on_c, 2, 69, 76
8, 536640, Note_on_c, 2, 72, 76
8, 536999, Note_on_c, 2, 69, 0
8, 536999, Note_on_c, 2, 72, 0
8, 537120, Note_on_c, 2, 72, 76
8, 537120, Note_on_c, 2, 69, 76
8, 537479, Note_on_c, 2, 72, 0
8, 537479, Note_on_c, 2, 69, 0
8, 537600, Note_on_c, 2, 72, 76
8, 537600, Note_on_c, 2, 69, 76
8, 537959, Note_on_c, 2, 72, 0
8, 537959, Note_on_c, 2, 69, 0
8, 538080, Note_on_c, 2, 69, 76
8, 538080, Note_on_c, 2, 72, 76
8, 538439, Note_on_c, 2, 69, 0
8, 538439, Note_on_c, 2, 72, 0
8, 538560, Note_on_c, 2, 69, 76
8, 538560, Note_on_c, 2, 72, 76
8, 538919, Note_on_c, 2, 69, 0
8, 538919, Note_on_c, 2, 72, 0
8, 539040, Note_on_c, 2, 69, 76
8, 539040, Note_on_c, 2, 72, 76
8, 539399, Note_on_c, 2, 69, 0
8, 539399, Note_on_c, 2, 72, 0
8, 539520, Note_on_c, 2, 74, 76
8, 539520, Note_on_c, 2, 70, 76
8, 539759, Note_on_c, 2, 74, 0
8, 539759, Note_on_c, 2, 70, 0
8, 540480, Note_on_c, 2, 70, 76
8, 540480, Note_on_c, 2, 79, 76
8, 540719, Note_on_c, 2, 70, 0
8, 540719, Note_on_c, 2, 79, 0
8, 541440, Note_on_c, 2, 74, 76
8, 541440, Note_on_c, 2, 70, 76
8, 541679, Note_on_c, 2, 74, 0
8, 541679, Note_on_c, 2, 70, 0
8, 542160, Note_on_c, 2, 70, 76
8, 542160, Note_on_c, 2, 74, 76
8, 542384, Note_on_c, 2, 70, 0
8, 542384, Note_on_c, 2, 74, 0
8, 542400, Note_on_c, 2, 69, 76
8, 542400, Note_on_c, 2, 72, 76
8, 542624, Note_on_c, 2, 69, 0
8, 542624, Note_on_c, 2, 72, 0
8, 542640, Note_on_c, 2, 72, 76
8, 542640, Note_on_c, 2, 69, 76
8, 542864, Note_on_c, 2, 72, 0
8, 542864, Note_on_c, 2, 69, 0
8, 542880, Note_on_c, 2, 72, 76
8, 542880, Note_on_c, 2, 69, 76
8, 543104, Note_on_c, 2, 72, 0
8, 543104, Note_on_c, 2, 69, 0
8, 543120, Note_on_c, 2, 72, 76
8, 543120, Note_on_c, 2, 69, 76
8, 543344, Note_on_c, 2, 72, 0
8, 543344, Note_on_c, 2, 69, 0
8, 543360, Note_on_c, 2, 70, 76
8, 543360, Note_on_c, 2, 77, 76
8, 543599, Note_on_c, 2, 70, 0
8, 543599, Note_on_c, 2, 77, 0
8, 543840, Note_on_c, 2, 79, 76
8, 543840, Note_on_c, 2, 70, 76
8, 544079, Note_on_c, 2, 79, 0
8, 544079, Note_on_c, 2, 70, 0
8, 544320, Note_on_c, 2, 74, 76
8, 544320, Note_on_c, 2, 70, 76
8, 544559, Note_on_c, 2, 74, 0
8, 544559, Note_on_c, 2, 70, 0
8, 544800, Note_on_c, 2, 69, 76
8, 544800, Note_on_c, 2, 72, 76
8, 545039, Note_on_c, 2, 69, 0
8, 545039, Note_on_c, 2, 72, 0
8, 545280, Note_on_c, 2, 74, 48
8, 545519, Note_on_c, 2, 74, 0
8, 545520, Note_on_c, 2, 75, 48
8, 545759, Note_on_c, 2, 75, 0
8, 545760, Note_on_c, 2, 77, 48
8, 545999, Note_on_c, 2, 77, 0
8, 546000, Note_on_c, 2, 65, 48
8, 546224, Note_on_c, 2, 65, 0
8, 546240, Note_on_c, 2, 70, 48
8, 546959, Note_on_c, 2, 70, 0
8, 546960, Note_on_c, 2, 72, 48
8, 547199, Note_on_c, 2, 72, 0
8, 547200, Note_on_c, 2, 74, 48
8, 547439, Note_on_c, 2, 74, 0
8, 547440, Note_on_c, 2, 70, 48
8, 547679, Note_on_c, 2, 70, 0
8, 547680, Note_on_c, 2, 74, 48
8, 547919, Note_on_c, 2, 74, 0
8, 547920, Note_on_c, 2, 75, 48
8, 548159, Note_on_c, 2, 75, 0
8, 548160, Note_on_c, 2, 77, 48
8, 548864, Note_on_c, 2, 77, 0
8, 548880, Note_on_c, 2, 67, 52
8, 549119, Note_on_c, 2, 67, 0
8, 549120, Note_on_c, 2, 69, 52
8, 549359, Note_on_c, 2, 69, 0
8, 549360, Note_on_c, 2, 70, 52
8, 549599, Note_on_c, 2, 70, 0
8, 549600, Note_on_c, 2, 72, 52
8, 549839, Note_on_c, 2, 72, 0
8, 549840, Note_on_c, 2, 70, 52
8, 550064, Note_on_c, 2, 70, 0
8, 550080, Note_on_c, 2, 69, 52
8, 550799, Note_on_c, 2, 69, 0
8, 550800, Note_on_c, 2, 67, 52
8, 551039, Note_on_c, 2, 67, 0
8, 551040, Note_on_c, 2, 65, 52
8, 551279, Note_on_c, 2, 65, 0
8, 551280, Note_on_c, 2, 67, 52
8, 551519, Note_on_c, 2, 67, 0
8, 551520, Note_on_c, 2, 63, 52
8, 551759, Note_on_c, 2, 63, 0
8, 551760, Note_on_c, 2, 60, 52
8, 551999, Note_on_c, 2, 60, 0
8, 552000, Note_on_c, 2, 57, 52
8, 552959, Note_on_c, 2, 57, 0
8, 560880, Note_on_c, 2, 79, 52
8, 561119, Note_on_c, 2, 79, 0
8, 561120, Note_on_c, 2, 75, 52
8, 561359, Note_on_c, 2, 75, 0
8, 561360, Note_on_c, 2, 72, 52
8, 561584, Note_on_c, 2, 72, 0
8, 561600, Note_on_c, 2, 69, 52
8, 561839, Note_on_c, 2, 69, 0
8, 564480, Note_on_c, 2, 77, 84
8, 564480, Note_on_c, 2, 74, 84
8, 564719, Note_on_c, 2, 77, 0
8, 564719, Note_on_c, 2, 74, 0
8, 565200, Note_on_c, 2, 74, 84
8, 565200, Note_on_c, 2, 70, 84
8, 565424, Note_on_c, 2, 74, 0
8, 565424, Note_on_c, 2, 70, 0
8, 565440, Note_on_c, 2, 72, 84
8, 565440, Note_on_c, 2, 79, 84
8, 565679, Note_on_c, 2, 72, 0
8, 565679, Note_on_c, 2, 79, 0
8, 565920, Note_on_c, 2, 75, 84
8, 565920, Note_on_c, 2, 72, 84
8, 566159, Note_on_c, 2, 75, 0
8, 566159, Note_on_c, 2, 72, 0
8, 568320, Note_on_c, 2, 74, 84
8, 568320, Note_on_c, 2, 77, 84
8, 568559, Note_on_c, 2, 74, 0
8, 568559, Note_on_c, 2, 77, 0
8, 569040, Note_on_c, 2, 74, 84
8, 569040, Note_on_c, 2, 70, 84
8, 569264, Note_on_c, 2, 74, 0
8, 569264, Note_on_c, 2, 70, 0
8, 569280, Note_on_c, 2, 79, 84
8, 569280, Note_on_c, 2, 72, 84
8, 569519, Note_on_c, 2, 79, 0
8, 569519, Note_on_c, 2, 72, 0
8, 569760, Note_on_c, 2, 72, 84
8, 569760, Note_on_c, 2, 75, 84
8, 569999, Note_on_c, 2, 72, 0
8, 569999, Note_on_c, 2, 75, 0
8, 571120, Control_c, 2, 11, 93
8, 571200, Control_c, 2, 11, 96
8, 571200, Note_on_c, 2, 64, 76
8, 571280, Control_c, 2, 11, 98
8, 571360, Control_c, 2, 11, 101
8, 571440, Control_c, 2, 11, 103
8, 571520, Control_c, 2, 11, 106
8, 571600, Control_c, 2, 11, 109
8, 571680, Control_c, 2, 11, 111
8, 571760, Control_c, 2, 11, 114
8, 571840, Control_c, 2, 11, 117
8, 571920, Control_c, 2, 11, 119
8, 572000, Control_c, 2, 11, 122
8, 572080, Control_c, 2, 11, 127
8, 572144, Note_on_c, 2, 64, 0
8, 572160, Note_on_c, 2, 64, 76
8, 573104, Note_on_c, 2, 64, 0
8, 573120, Note_on_c, 2, 65, 76
8, 574064, Note_on_c, 2, 65, 0
8, 574080, Note_on_c, 2, 67, 76
8, 575024, Note_on_c, 2, 67, 0
8, 575040, Note_on_c, 2, 69, 76
8, 575984, Note_on_c, 2, 69, 0
8, 576000, Note_on_c, 2, 70, 84
8, 576240, Note_on_c, 2, 76, 84
8, 577904, Note_on_c, 2, 70, 0
8, 577904, Note_on_c, 2, 76, 0
8, 577920, Note_on_c, 2, 77, 92
8, 577920, Note_on_c, 2, 70, 92
8, 578849, Note_on_c, 2, 77, 0
8, 578849, Note_on_c, 2, 70, 0
8, 578880, Note_on_c, 2, 72, 84
8, 578880, Note_on_c, 2, 69, 84
8, 579824, Note_on_c, 2, 72, 0
8, 579824, Note_on_c, 2, 69, 0
8, 579840, Note_on_c, 2, 70, 84
8, 579840, Note_on_c, 2, 62, 84
8, 580079, Note_on_c, 2, 70, 0
8, 580079, Note_on_c, 2, 62, 0
8, 582960, Note_on_c, 2, 75, 84
8, 582960, Note_on_c, 2, 65, 84
8, 583424, Note_on_c, 2, 75, 0
8, 583424, Note_on_c, 2, 65, 0
8, 583440, Note_on_c, 2, 69, 84
8, 583440, Note_on_c, 2, 75, 84
8, 583619, Note_on_c, 2, 69, 0
8, 583619, Note_on_c, 2, 75, 0
8, 583680, Note_on_c, 2, 74, 84
8, 583680, Note_on_c, 2, 70, 84
8, 583859, Note_on_c, 2, 74, 0
8, 583859, Note_on_c, 2, 70, 0
8, 586800, Note_on_c, 2, 75, 84
8, 586800, Note_on_c, 2, 65, 84
8, 587264, Note_on_c, 2, 75, 0
8, 587264, Note_on_c, 2, 65, 0
8, 587280, Note_on_c, 2, 75, 84
8, 587280, Note_on_c, 2, 69, 84
8, 587459, Note_on_c, 2, 75, 0
8, 587459, Note_on_c, 2, 69, 0
8, 587520, Note_on_c, 2, 74, 84
8, 587520, Note_on_c, 2, 70, 84
8, 587699, Note_on_c, 2, 74, 0
8, 587699, Note_on_c, 2, 70, 0
8, 587760, Note_on_c, 2, 72, 84
8, 588224, Note_on_c, 2, 72, 0
8, 588240, Note_on_c, 2, 74, 84
8, 588704, Note_on_c, 2, 74, 0
8, 588720, Note_on_c, 2, 65, 84
8, 588720, Note_on_c, 2, 75, 84
8, 589184, Note_on_c, 2, 65, 0
8, 589184, Note_on_c, 2, 75, 0
8, 589200, Note_on_c, 2, 75, 84
8, 589200, Note_on_c, 2, 69, 84
8, 589424, Note_on_c, 2, 75, 0
8, 589424, Note_on_c, 2, 69, 0
8, 589440, Note_on_c, 2, 72, 84
8, 589440, Note_on_c, 2, 69, 84
8, 591287, Note_on_c, 2, 72, 0
8, 591287, Note_on_c, 2, 69, 0
8, 591300, Note_on_c, 2, 72, 84
8, 591300, Note_on_c, 2, 69, 84
8, 591351, Note_on_c, 2, 72, 0
8, 591351, Note_on_c, 2, 69, 0
8, 591360, Note_on_c, 2, 72, 84
8, 591360, Note_on_c, 2, 69, 84
8, 591599, Note_on_c, 2, 72, 0
8, 591599, Note_on_c, 2, 69, 0
8, 592260, Note_on_c, 2, 69, 84
8, 592260, Note_on_c, 2, 72, 84
8, 592311, Note_on_c, 2, 69, 0
8, 592311, Note_on_c, 2, 72, 0
8, 592320, Note_on_c, 2, 72, 84
8, 592320, Note_on_c, 2, 69, 84
8, 592559, Note_on_c, 2, 72, 0
8, 592559, Note_on_c, 2, 69, 0
8, 593220, Note_on_c, 2, 72, 84
8, 593220, Note_on_c, 2, 69, 84
8, 593271, Note_on_c, 2, 72, 0
8, 593271, Note_on_c, 2, 69, 0
8, 593280, Note_on_c, 2, 72, 84
8, 593280, Note_on_c, 2, 69, 84
8, 593459, Note_on_c, 2, 72, 0
8, 593459, Note_on_c, 2, 69, 0
8, 593760, Note_on_c, 2, 72, 84
8, 593760, Note_on_c, 2, 69, 84
8, 593939, Note_on_c, 2, 72, 0
8, 593939, Note_on_c, 2, 69, 0
8, 594240, Note_on_c, 2, 72, 84
8, 594240, Note_on_c, 2, 69, 84
8, 594419, Note_on_c, 2, 72, 0
8, 594419, Note_on_c, 2, 69, 0
8, 594720, Note_on_c, 2, 69, 84
8, 594720, Note_on_c, 2, 72, 84
8, 594899, Note_on_c, 2, 69, 0
8, 594899, Note_on_c, 2, 72, 0
8, 595200, Note_on_c, 2, 70, 84
8, 595200, Note_on_c, 2, 62, 84
8, 595439, Note_on_c, 2, 70, 0
8, 595439, Note_on_c, 2, 62, 0
8, 596160, Note_on_c, 2, 70, 84
8, 596160, Note_on_c, 2, 62, 84
8, 596399, Note_on_c, 2, 70, 0
8, 596399, Note_on_c, 2, 62, 0
8, 597120, Note_on_c, 2, 70, 84
8, 597120, Note_on_c, 2, 62, 84
8, 597359, Note_on_c, 2, 70, 0
8, 597359, Note_on_c, 2, 62, 0
8, 598080, Note_on_c, 2, 70, 84
8, 598080, Note_on_c, 2, 62, 84
8, 598319, Note_on_c, 2, 70, 0
8, 598319, Note_on_c, 2, 62, 0
8, 599040, Note_on_c, 2, 70, 84
8, 599040, Note_on_c, 2, 74, 84
8, 599279, Note_on_c, 2, 70, 0
8, 599279, Note_on_c, 2, 74, 0
8, 600000, Note_on_c, 2, 74, 84
8, 600000, Note_on_c, 2, 70, 84
8, 600239, Note_on_c, 2, 74, 0
8, 600239, Note_on_c, 2, 70, 0
8, 600960, Note_on_c, 2, 74, 84
8, 600960, Note_on_c, 2, 70, 84
8, 601199, Note_on_c, 2, 74, 0
8, 601199, Note_on_c, 2, 70, 0
8, 601920, Note_on_c, 2, 74, 84
8, 601920, Note_on_c, 2, 70, 84
8, 602159, Note_on_c, 2, 74, 0
8, 602159, Note_on_c, 2, 70, 0
8, 603120, Note_on_c, 2, 74, 52
8, 603120, Note_on_c, 2, 70, 52
8, 603359, Note_on_c, 2, 74, 0
8, 603359, Note_on_c, 2, 70, 0
8, 603360, Note_on_c, 2, 72, 52
8, 603360, Note_on_c, 2, 69, 52
8, 603599, Note_on_c, 2, 72, 0
8, 603599, Note_on_c, 2, 69, 0
8, 603600, Note_on_c, 2, 67, 52
8, 603600, Note_on_c, 2, 70, 52
8, 603839, Note_on_c, 2, 67, 0
8, 603839, Note_on_c, 2, 70, 0
8, 603840, Note_on_c, 2, 69, 52
8, 603840, Note_on_c, 2, 65, 52
8, 604079, Note_on_c, 2, 69, 0
8, 604079, Note_on_c, 2, 65, 0
8, 604080, Note_on_c, 2, 67, 52
8, 604080, Note_on_c, 2, 63, 52
8, 604319, Note_on_c, 2, 67, 0
8, 604319, Note_on_c, 2, 63, 0
8, 604320, Note_on_c, 2, 65, 52
8, 604320, Note_on_c, 2, 62, 52
8, 604559, Note_on_c, 2, 65, 0
8, 604559, Note_on_c, 2, 62, 0
8, 604560, Note_on_c, 2, 67, 52
8, 604560, Note_on_c, 2, 63, 52
8, 604784, Note_on_c, 2, 67, 0
8, 604784, Note_on_c, 2, 63, 0
8, 604800, Note_on_c, 2, 60, 76
8, 604800, Note_on_c, 2, 69, 76
8, 605744, Note_on_c, 2, 60, 0
8, 605744, Note_on_c, 2, 69, 0
8, 605760, Note_on_c, 2, 69, 76
8, 605760, Note_on_c, 2, 60, 76
8, 606647, Note_on_c, 2, 69, 0
8, 606647, Note_on_c, 2, 60, 0
8, 606660, Note_on_c, 2, 69, 76
8, 606660, Note_on_c, 2, 60, 76
8, 606711, Note_on_c, 2, 69, 0
8, 606711, Note_on_c, 2, 60, 0
8, 606720, Note_on_c, 2, 70, 76
8, 606720, Note_on_c, 2, 62, 76
8, 606944, Note_on_c, 2, 70, 0
8, 606944, Note_on_c, 2, 62, 0
8, 606960, Note_on_c, 2, 67, 52
8, 607199, Note_on_c, 2, 67, 0
8, 607200, Note_on_c, 2, 65, 52
8, 607439, Note_on_c, 2, 65, 0
8, 607440, Note_on_c, 2, 63, 52
8, 607679, Note_on_c, 2, 63, 0
8, 607680, Note_on_c, 2, 62, 52
8, 607919, Note_on_c, 2, 62, 0
8, 607920, Note_on_c, 2, 60, 52
8, 608159, Note_on_c, 2, 60, 0
8, 608160, Note_on_c, 2, 58, 52
8, 608399, Note_on_c, 2, 58, 0
8, 608400, Note_on_c, 2, 60, 52
8, 608624, Note_on_c, 2, 60, 0
8, 608640, Note_on_c, 2, 69, 76
8, 608640, Note_on_c, 2, 60, 76
8, 609584, Note_on_c, 2, 69, 0
8, 609584, Note_on_c, 2, 60, 0
8, 609600, Note_on_c, 2, 69, 76
8, 609600, Note_on_c, 2, 60, 76
8, 610487, Note_on_c, 2, 69, 0
8, 610487, Note_on_c, 2, 60, 0
8, 610500, Note_on_c, 2, 69, 76
8, 610500, Note_on_c, 2, 60, 76
8, 610551, Note_on_c, 2, 69, 0
8, 610551, Note_on_c, 2, 60, 0
8, 610560, Note_on_c, 2, 70, 52
8, 610560, Note_on_c, 2, 62, 52
8, 610799, Note_on_c, 2, 70, 0
8, 610799, Note_on_c, 2, 62, 0
8, 614339, Control_c, 2, 11, 95
8, 614400, Note_on_c, 2, 62, 84
8, 614400, Note_on_c, 2, 70, 84
8, 614461, Control_c, 2, 11, 96
8, 614583, Control_c, 2, 11, 97
8, 614705, Control_c, 2, 11, 98
8, 614827, Control_c, 2, 11, 99
8, 614949, Control_c, 2, 11, 100
8, 615070, Control_c, 2, 11, 101
8, 615192, Control_c, 2, 11, 102
8, 615314, Control_c, 2, 11, 103
8, 615436, Control_c, 2, 11, 104
8, 615558, Control_c, 2, 11, 105
8, 615680, Control_c, 2, 11, 106
8, 615802, Control_c, 2, 11, 107
8, 615924, Control_c, 2, 11, 108
8, 616046, Control_c, 2, 11, 109
8, 616168, Control_c, 2, 11, 110
8, 616290, Control_c, 2, 11, 111
8, 616304, Note_on_c, 2, 62, 0
8, 616304, Note_on_c, 2, 70, 0
8, 616320, Note_on_c, 2, 72, 84
8, 616320, Note_on_c, 2, 69, 84
8, 616411, Control_c, 2, 11, 112
8, 616533, Control_c, 2, 11, 113
8, 616655, Control_c, 2, 11, 114
8, 616777, Control_c, 2, 11, 115
8, 616899, Control_c, 2, 11, 116
8, 617021, Control_c, 2, 11, 117
8, 617143, Control_c, 2, 11, 118
8, 617265, Control_c, 2, 11, 119
8, 617387, Control_c, 2, 11, 120
8, 617509, Control_c, 2, 11, 121
8, 617630, Control_c, 2, 11, 122
8, 617752, Control_c, 2, 11, 123
8, 617874, Control_c, 2, 11, 124
8, 617996, Control_c, 2, 11, 125
8, 618118, Control_c, 2, 11, 127
8, 618224, Note_on_c, 2, 72, 0
8, 618224, Note_on_c, 2, 69, 0
8, 618240, Note_on_c, 2, 62, 84
8, 618240, Note_on_c, 2, 70, 84
8, 620159, Note_on_c, 2, 62, 0
8, 620159, Note_on_c, 2, 70, 0
8, 620160, Note_on_c, 2, 62, 84
8, 620160, Note_on_c, 2, 70, 84
8, 622007, Note_on_c, 2, 62, 0
8, 622007, Note_on_c, 2, 70, 0
8, 622020, Note_on_c, 2, 62, 84
8, 622020, Note_on_c, 2, 70, 84
8, 622071, Note_on_c, 2, 62, 0
8, 622071, Note_on_c, 2, 70, 0
8, 622080, Note_on_c, 2, 70, 84
8, 622080, Note_on_c, 2, 62, 84
8, 622319, Note_on_c, 2, 70, 0
8, 622319, Note_on_c, 2, 62, 0
8, 622560, Note_on_c, 2, 70, 84
8, 622560, Note_on_c, 2, 62, 84
8, 622799, Note_on_c, 2, 70, 0
8, 622799, Note_on_c, 2, 62, 0
8, 623040, Note_on_c, 2, 62, 84
8, 623040, Note_on_c, 2, 70, 84
8, 623279, Note_on_c, 2, 62, 0
8, 623279, Note_on_c, 2, 70, 0
8, 624000, Note_on_c, 2, 62, 84
8, 624000, Note_on_c, 2, 70, 84
8, 624239, Note_on_c, 2, 62, 0
8, 624239, Note_on_c, 2, 70, 0
8, 624960, Note_on_c, 2, 58, 84
8, 625199, Note_on_c, 2, 58, 0
8, 625199, End_track
9, 0, Start_track
9, 0, Title_t, "Bassoon"
9, 0, MIDI_port, 0
9, 0, Program_c, 3, 70
9, 0, Control_c, 3, 7, 96
9, 0, Control_c, 3, 10, 65
9, 0, Control_c, 3, 11, 96
9, 0, Note_on_c, 3, 58, 60
9, 0, Note_on_c, 3, 46, 60
9, 959, Note_on_c, 3, 58, 0
9, 959, Note_on_c, 3, 46, 0
9, 960, Note_on_c, 3, 58, 60
9, 960, Note_on_c, 3, 46, 60
9, 1919, Note_on_c, 3, 58, 0
9, 1919, Note_on_c, 3, 46, 0
9, 1920, Note_on_c, 3, 58, 60
9, 1920, Note_on_c, 3, 46, 60
9, 2879, Note_on_c, 3, 58, 0
9, 2879, Note_on_c, 3, 46, 0
9, 2880, Note_on_c, 3, 46, 60
9, 2880, Note_on_c, 3, 58, 60
9, 3839, Note_on_c, 3, 46, 0
9, 3839, Note_on_c, 3, 58, 0
9, 3840, Control_c, 3, 11, 96
9, 3840, Note_on_c, 3, 58, 60
9, 3840, Note_on_c, 3, 46, 60
9, 3860, Control_c, 3, 11, 97
9, 3880, Control_c, 3, 11, 99
9, 3900, Control_c, 3, 11, 100
9, 3920, Control_c, 3, 11, 101
9, 3940, Control_c, 3, 11, 102
9, 3960, Control_c, 3, 11, 104
9, 3980, Control_c, 3, 11, 105
9, 4000, Control_c, 3, 11, 106
9, 4020, Control_c, 3, 11, 108
9, 4040, Control_c, 3, 11, 109
9, 4060, Control_c, 3, 11, 110
9, 4080, Control_c, 3, 11, 112
9, 4100, Control_c, 3, 11, 113
9, 4120, Control_c, 3, 11, 114
9, 4140, Control_c, 3, 11, 115
9, 4160, Control_c, 3, 11, 117
9, 4180, Control_c, 3, 11, 118
9, 4200, Control_c, 3, 11, 119
9, 4220, Control_c, 3, 11, 121
9, 4240, Control_c, 3, 11, 122
9, 4260, Control_c, 3, 11, 123
9, 4280, Control_c, 3, 11, 124
9, 4300, Control_c, 3, 11, 126
9, 4320, Control_c, 3, 11, 127
9, 4340, Control_c, 3, 11, 126
9, 4360, Control_c, 3, 11, 124
9, 4380, Control_c, 3, 11, 123
9, 4400, Control_c, 3, 11, 122
9, 4420, Control_c, 3, 11, 121
9, 4440, Control_c, 3, 11, 119
9, 4460, Control_c, 3, 11, 118
9, 4480, Control_c, 3, 11, 117
9, 4500, Control_c, 3, 11, 115
9, 4520, Control_c, 3, 11, 114
9, 4540, Control_c, 3, 11, 113
9, 4560, Control_c, 3, 11, 112
9, 4580, Control_c, 3, 11, 110
9, 4600, Control_c, 3, 11, 109
9, 4620, Control_c, 3, 11, 108
9, 4640, Control_c, 3, 11, 106
9, 4660, Control_c, 3, 11, 105
9, 4680, Control_c, 3, 11, 104
9, 4700, Control_c, 3, 11, 102
9, 4720, Control_c, 3, 11, 101
9, 4740, Control_c, 3, 11, 100
9, 4760, Control_c, 3, 11, 99
9, 4780, Control_c, 3, 11, 97
9, 4787, Note_on_c, 3, 58, 0
9, 4787, Note_on_c, 3, 46, 0
9, 4800, Note_on_c, 3, 41, 60
9, 4800, Note_on_c, 3, 53, 60
9, 4919, Note_on_c, 3, 41, 0
9, 4919, Note_on_c, 3, 53, 0
9, 5520, Control_c, 3, 11, 127
9, 5760, Note_on_c, 3, 66, 44
9, 6479, Note_on_c, 3, 66, 0
9, 6480, Note_on_c, 3, 64, 44
9, 6719, Note_on_c, 3, 64, 0
9, 6720, Note_on_c, 3, 65, 44
9, 6839, Note_on_c, 3, 65, 0
9, 9360, Note_on_c, 3, 60, 44
9, 9360, Note_on_c, 3, 57, 44
9, 9479, Note_on_c, 3, 60, 0
9, 9479, Note_on_c, 3, 57, 0
9, 9600, Note_on_c, 3, 57, 44
9, 9600, Note_on_c, 3, 60, 44
9, 9719, Note_on_c, 3, 57, 0
9, 9719, Note_on_c, 3, 60, 0
9, 10320, Note_on_c, 3, 60, 44
9, 10320, Note_on_c, 3, 57, 44
9, 10439, Note_on_c, 3, 60, 0
9, 10439, Note_on_c, 3, 57, 0
9, 10560, Note_on_c, 3, 57, 44
9, 10560, Note_on_c, 3, 60, 44
9, 10679, Note_on_c, 3, 57, 0
9, 10679, Note_on_c, 3, 60, 0
9, 10800, Note_on_c, 3, 57, 44
9, 10800, Note_on_c, 3, 60, 44
9, 10919, Note_on_c, 3, 57, 0
9, 10919, Note_on_c, 3, 60, 0
9, 11040, Note_on_c, 3, 57, 44
9, 11040, Note_on_c, 3, 60, 44
9, 11159, Note_on_c, 3, 57, 0
9, 11159, Note_on_c, 3, 60, 0
9, 11280, Note_on_c, 3, 60, 44
9, 11280, Note_on_c, 3, 57, 44
9, 11399, Note_on_c, 3, 60, 0
9, 11399, Note_on_c, 3, 57, 0
9, 11520, Note_on_c, 3, 58, 76
9, 11520, Note_on_c, 3, 46, 76
9, 11550, Control_c, 3, 11, 80
9, 12479, Note_on_c, 3, 58, 0
9, 12479, Note_on_c, 3, 46, 0
9, 12480, Note_on_c, 3, 46, 68
9, 12480, Note_on_c, 3, 58, 68
9, 13439, Note_on_c, 3, 46, 0
9, 13439, Note_on_c, 3, 58, 0
9, 13440, Note_on_c, 3, 46, 68
9, 13440, Note_on_c, 3, 58, 68
9, 14399, Note_on_c, 3, 46, 0
9, 14399, Note_on_c, 3, 58, 0
9, 14400, Note_on_c, 3, 46, 68
9, 14400, Note_on_c, 3, 58, 68
9, 15359, Note_on_c, 3, 46, 0
9, 15359, Note_on_c, 3, 58, 0
9, 15360, Control_c, 3, 11, 80
9, 15360, Note_on_c, 3, 46, 68
9, 15360, Note_on_c, 3, 58, 68
9, 15380, Control_c, 3, 11, 81
9, 15400, Control_c, 3, 11, 83
9, 15420, Control_c, 3, 11, 84
9, 15440, Control_c, 3, 11, 85
9, 15460, Control_c, 3, 11, 87
9, 15480, Control_c, 3, 11, 88
9, 15500, Control_c, 3, 11, 89
9, 15520, Control_c, 3, 11, 91
9, 15540, Control_c, 3, 11, 92
9, 15560, Control_c, 3, 11, 93
9, 15580, Control_c, 3, 11, 95
9, 15600, Control_c, 3, 11, 96
9, 15620, Control_c, 3, 11, 97
9, 15640, Control_c, 3, 11, 99
9, 15660, Control_c, 3, 11, 100
9, 15680, Control_c, 3, 11, 101
9, 15700, Control_c, 3, 11, 103
9, 15720, Control_c, 3, 11, 104
9, 15740, Control_c, 3, 11, 105
9, 15760, Control_c, 3, 11, 107
9, 15780, Control_c, 3, 11, 108
9, 15800, Control_c, 3, 11, 109
9, 15820, Control_c, 3, 11, 111
9, 15840, Control_c, 3, 11, 112
9, 15860, Control_c, 3, 11, 111
9, 15880, Control_c, 3, 11, 109
9, 15900, Control_c, 3, 11, 108
9, 15920, Control_c, 3, 11, 107
9, 15940, Control_c, 3, 11, 105
9, 15960, Control_c, 3, 11, 104
9, 15980, Control_c, 3, 11, 103
9, 16000, Control_c, 3, 11, 101
9, 16020, Control_c, 3, 11, 100
9, 16040, Control_c, 3, 11, 99
9, 16060, Control_c, 3, 11, 97
9, 16080, Control_c, 3, 11, 96
9, 16100, Control_c, 3, 11, 95
9, 16120, Control_c, 3, 11, 93
9, 16140, Control_c, 3, 11, 92
9, 16160, Control_c, 3, 11, 91
9, 16180, Control_c, 3, 11, 89
9, 16200, Control_c, 3, 11, 88
9, 16220, Control_c, 3, 11, 87
9, 16240, Control_c, 3, 11, 85
9, 16260, Control_c, 3, 11, 84
9, 16280, Control_c, 3, 11, 83
9, 16300, Control_c, 3, 11, 80
9, 16439, Note_on_c, 3, 46, 0
9, 16439, Note_on_c, 3, 58, 0
9, 17040, Control_c, 3, 11, 127
9, 17280, Note_on_c, 3, 67, 44
9, 17999, Note_on_c, 3, 67, 0
9, 18000, Note_on_c, 3, 64, 44
9, 18239, Note_on_c, 3, 64, 0
9, 18240, Note_on_c, 3, 66, 44
9, 18359, Note_on_c, 3, 66, 0
9, 20880, Note_on_c, 3, 42, 44
9, 20880, Note_on_c, 3, 54, 44
9, 20999, Note_on_c, 3, 42, 0
9, 20999, Note_on_c, 3, 54, 0
9, 21120, Note_on_c, 3, 42, 44
9, 21120, Note_on_c, 3, 54, 44
9, 21239, Note_on_c, 3, 42, 0
9, 21239, Note_on_c, 3, 54, 0
9, 21840, Note_on_c, 3, 42, 44
9, 21840, Note_on_c, 3, 54, 44
9, 21959, Note_on_c, 3, 42, 0
9, 21959, Note_on_c, 3, 54, 0
9, 22080, Note_on_c, 3, 54, 44
9, 22080, Note_on_c, 3, 42, 44
9, 22199, Note_on_c, 3, 54, 0
9, 22199, Note_on_c, 3, 42, 0
9, 22320, Note_on_c, 3, 54, 44
9, 22320, Note_on_c, 3, 42, 44
9, 22439, Note_on_c, 3, 54, 0
9, 22439, Note_on_c, 3, 42, 0
9, 22560, Note_on_c, 3, 54, 44
9, 22560, Note_on_c, 3, 42, 44
9, 22679, Note_on_c, 3, 54, 0
9, 22679, Note_on_c, 3, 42, 0
9, 22800, Note_on_c, 3, 42, 44
9, 22800, Note_on_c, 3, 54, 44
9, 22919, Note_on_c, 3, 42, 0
9, 22919, Note_on_c, 3, 54, 0
9, 23040, Note_on_c, 3, 47, 76
9, 23040, Note_on_c, 3, 59, 76
9, 23070, Control_c, 3, 11, 80
9, 23999, Note_on_c, 3, 47, 0
9, 23999, Note_on_c, 3, 59, 0
9, 24000, Note_on_c, 3, 47, 76
9, 24000, Note_on_c, 3, 59, 76
9, 24947, Note_on_c, 3, 47, 0
9, 24947, Note_on_c, 3, 59, 0
9, 24960, Note_on_c, 3, 48, 76
9, 24960, Note_on_c, 3, 60, 76
9, 25907, Note_on_c, 3, 48, 0
9, 25907, Note_on_c, 3, 60, 0
9, 25920, Note_on_c, 3, 61, 76
9, 25920, Note_on_c, 3, 49, 76
9, 26867, Note_on_c, 3, 61, 0
9, 26867, Note_on_c, 3, 49, 0
9, 26880, Note_on_c, 3, 50, 76
9, 26880, Note_on_c, 3, 62, 76
9, 27587, Note_on_c, 3, 50, 0
9, 27587, Note_on_c, 3, 62, 0
9, 27592, Control_c, 3, 11, 127
9, 27600, Note_on_c, 3, 50, 68
9, 27600, Note_on_c, 3, 62, 68
9, 27630, Control_c, 3, 11, 96
9, 28547, Note_on_c, 3, 50, 0
9, 28547, Note_on_c, 3, 62, 0
9, 28560, Note_on_c, 3, 50, 68
9, 28560, Note_on_c, 3, 62, 68
9, 28799, Note_on_c, 3, 50, 0
9, 28799, Note_on_c, 3, 62, 0
9, 28800, Note_on_c, 3, 64, 68
9, 28800, Note_on_c, 3, 52, 68
9, 29747, Note_on_c, 3, 64, 0
9, 29747, Note_on_c, 3, 52, 0
9, 29760, Note_on_c, 3, 57, 68
9, 29760, Note_on_c, 3, 45, 68
9, 29760, Control_c, 3, 11, 96
9, 29820, Control_c, 3, 11, 95
9, 29880, Control_c, 3, 11, 94
9, 29940, Control_c, 3, 11, 93
9, 30000, Control_c, 3, 11, 92
9, 30060, Control_c, 3, 11, 91
9, 30120, Control_c, 3, 11, 90
9, 30180, Control_c, 3, 11, 89
9, 30240, Control_c, 3, 11, 88
9, 30300, Control_c, 3, 11, 87
9, 30360, Control_c, 3, 11, 86
9, 30420, Control_c, 3, 11, 85
9, 30480, Control_c, 3, 11, 84
9, 30540, Control_c, 3, 11, 83
9, 30600, Control_c, 3, 11, 82
9, 30660, Control_c, 3, 11, 80
9, 30719, Note_on_c, 3, 57, 0
9, 30719, Note_on_c, 3, 45, 0
9, 30720, Note_on_c, 3, 57, 68
9, 30720, Note_on_c, 3, 45, 68
9, 31799, Note_on_c, 3, 57, 0
9, 31799, Note_on_c, 3, 45, 0
9, 32160, Note_on_c, 3, 45, 68
9, 32160, Note_on_c, 3, 57, 68
9, 32279, Note_on_c, 3, 45, 0
9, 32279, Note_on_c, 3, 57, 0
9, 32640, Note_on_c, 3, 45, 68
9, 32640, Note_on_c, 3, 57, 68
9, 32759, Note_on_c, 3, 45, 0
9, 32759, Note_on_c, 3, 57, 0
9, 33360, Control_c, 3, 11, 127
9, 33600, Note_on_c, 3, 53, 84
9, 33600, Note_on_c, 3, 41, 84
9, 34487, Note_on_c, 3, 53, 0
9, 34487, Note_on_c, 3, 41, 0
9, 34500, Note_on_c, 3, 41, 84
9, 34500, Note_on_c, 3, 53, 84
9, 34551, Note_on_c, 3, 41, 0
9, 34551, Note_on_c, 3, 53, 0
9, 34560, Note_on_c, 3, 41, 84
9, 34560, Note_on_c, 3, 53, 84
9, 34679, Note_on_c, 3, 41, 0
9, 34679, Note_on_c, 3, 53, 0
9, 35520, Note_on_c, 3, 53, 84
9, 35520, Note_on_c, 3, 41, 84
9, 36407, Note_on_c, 3, 53, 0
9, 36407, Note_on_c, 3, 41, 0
9, 36420, Note_on_c, 3, 41, 84
9, 36420, Note_on_c, 3, 53, 84
9, 36471, Note_on_c, 3, 41, 0
9, 36471, Note_on_c, 3, 53, 0
9, 36480, Note_on_c, 3, 53, 84
9, 36480, Note_on_c, 3, 41, 84
9, 36659, Note_on_c, 3, 53, 0
9, 36659, Note_on_c, 3, 41, 0
9, 37440, Note_on_c, 3, 41, 84
9, 37440, Note_on_c, 3, 53, 84
9, 37619, Note_on_c, 3, 41, 0
9, 37619, Note_on_c, 3, 53, 0
9, 38400, Note_on_c, 3, 41, 84
9, 38400, Note_on_c, 3, 53, 84
9, 38579, Note_on_c, 3, 41, 0
9, 38579, Note_on_c, 3, 53, 0
9, 38880, Note_on_c, 3, 41, 84
9, 38880, Note_on_c, 3, 53, 84
9, 39059, Note_on_c, 3, 41, 0
9, 39059, Note_on_c, 3, 53, 0
9, 39360, Note_on_c, 3, 41, 84
9, 39360, Note_on_c, 3, 53, 84
9, 39539, Note_on_c, 3, 41, 0
9, 39539, Note_on_c, 3, 53, 0
9, 39840, Note_on_c, 3, 53, 84
9, 39840, Note_on_c, 3, 41, 84
9, 40019, Note_on_c, 3, 53, 0
9, 40019, Note_on_c, 3, 41, 0
9, 40320, Note_on_c, 3, 46, 84
9, 40320, Note_on_c, 3, 58, 84
9, 40409, Note_on_c, 3, 46, 0
9, 40409, Note_on_c, 3, 58, 0
9, 44400, Note_on_c, 3, 62, 48
9, 44400, Note_on_c, 3, 58, 48
9, 44639, Note_on_c, 3, 62, 0
9, 44639, Note_on_c, 3, 58, 0
9, 44640, Note_on_c, 3, 60, 48
9, 44640, Note_on_c, 3, 57, 48
9, 44879, Note_on_c, 3, 60, 0
9, 44879, Note_on_c, 3, 57, 0
9, 44880, Note_on_c, 3, 55, 48
9, 44880, Note_on_c, 3, 58, 48
9, 45119, Note_on_c, 3, 55, 0
9, 45119, Note_on_c, 3, 58, 0
9, 45120, Note_on_c, 3, 57, 48
9, 45120, Note_on_c, 3, 53, 48
9, 45359, Note_on_c, 3, 57, 0
9, 45359, Note_on_c, 3, 53, 0
9, 45360, Note_on_c, 3, 55, 48
9, 45360, Note_on_c, 3, 51, 48
9, 45599, Note_on_c, 3, 55, 0
9, 45599, Note_on_c, 3, 51, 0
9, 45600, Note_on_c, 3, 53, 48
9, 45600, Note_on_c, 3, 50, 48
9, 45839, Note_on_c, 3, 53, 0
9, 45839, Note_on_c, 3, 50, 0
9, 45840, Note_on_c, 3, 55, 48
9, 45840, Note_on_c, 3, 51, 48
9, 46064, Note_on_c, 3, 51, 0
9, 46079, Note_on_c, 3, 55, 0
9, 46080, Note_on_c, 3, 53, 48
9, 47984, Note_on_c, 3, 53, 0
9, 48000, Note_on_c, 3, 41, 84
9, 48000, Note_on_c, 3, 53, 84
9, 48179, Note_on_c, 3, 41, 0
9, 48179, Note_on_c, 3, 53, 0
9, 48960, Note_on_c, 3, 53, 84
9, 48960, Note_on_c, 3, 41, 84
9, 49139, Note_on_c, 3, 53, 0
9, 49139, Note_on_c, 3, 41, 0
9, 49440, Note_on_c, 3, 53, 84
9, 49440, Note_on_c, 3, 41, 84
9, 49619, Note_on_c, 3, 53, 0
9, 49619, Note_on_c, 3, 41, 0
9, 49920, Note_on_c, 3, 62, 84
9, 50039, Note_on_c, 3, 62, 0
9, 50160, Note_on_c, 3, 58, 84
9, 50279, Note_on_c, 3, 58, 0
9, 50400, Note_on_c, 3, 53, 84
9, 50519, Note_on_c, 3, 53, 0
9, 50640, Note_on_c, 3, 58, 84
9, 50759, Note_on_c, 3, 58, 0
9, 50880, Note_on_c, 3, 50, 84
9, 50999, Note_on_c, 3, 50, 0
9, 51120, Note_on_c, 3, 53, 84
9, 51120, Note_on_c, 3, 65, 84
9, 51239, Note_on_c, 3, 53, 0
9, 51239, Note_on_c, 3, 65, 0
9, 51360, Note_on_c, 3, 58, 84
9, 51360, Note_on_c, 3, 46, 84
9, 51479, Note_on_c, 3, 58, 0
9, 51479, Note_on_c, 3, 46, 0
9, 51600, Note_on_c, 3, 50, 84
9, 51600, Note_on_c, 3, 62, 84
9, 51719, Note_on_c, 3, 50, 0
9, 51719, Note_on_c, 3, 62, 0
9, 51840, Note_on_c, 3, 55, 84
9, 51959, Note_on_c, 3, 55, 0
9, 52080, Note_on_c, 3, 51, 84
9, 52080, Note_on_c, 3, 63, 84
9, 52199, Note_on_c, 3, 51, 0
9, 52199, Note_on_c, 3, 63, 0
9, 52320, Note_on_c, 3, 60, 84
9, 52439, Note_on_c, 3, 60, 0
9, 52560, Note_on_c, 3, 58, 84
9, 52679, Note_on_c, 3, 58, 0
9, 52800, Note_on_c, 3, 57, 84
9, 52919, Note_on_c, 3, 57, 0
9, 53040, Note_on_c, 3, 53, 84
9, 53040, Note_on_c, 3, 65, 84
9, 53159, Note_on_c, 3, 53, 0
9, 53159, Note_on_c, 3, 65, 0
9, 53280, Note_on_c, 3, 63, 84
9, 53399, Note_on_c, 3, 63, 0
9, 53520, Note_on_c, 3, 60, 84
9, 53639, Note_on_c, 3, 60, 0
9, 53760, Note_on_c, 3, 58, 84
9, 53879, Note_on_c, 3, 58, 0
9, 54000, Note_on_c, 3, 67, 84
9, 54000, Note_on_c, 3, 58, 84
9, 54239, Note_on_c, 3, 67, 0
9, 54239, Note_on_c, 3, 58, 0
9, 54240, Note_on_c, 3, 57, 84
9, 54240, Note_on_c, 3, 65, 84
9, 54479, Note_on_c, 3, 57, 0
9, 54479, Note_on_c, 3, 65, 0
9, 54480, Note_on_c, 3, 55, 84
9, 54480, Note_on_c, 3, 63, 84
9, 54719, Note_on_c, 3, 55, 0
9, 54719, Note_on_c, 3, 63, 0
9, 54720, Note_on_c, 3, 53, 84
9, 54720, Note_on_c, 3, 62, 84
9, 54959, Note_on_c, 3, 53, 0
9, 54959, Note_on_c, 3, 62, 0
9, 54960, Note_on_c, 3, 51, 84
9, 54960, Note_on_c, 3, 60, 84
9, 55199, Note_on_c, 3, 51, 0
9, 55199, Note_on_c, 3, 60, 0
9, 55200, Note_on_c, 3, 50, 84
9, 55200, Note_on_c, 3, 58, 84
9, 55439, Note_on_c, 3, 50, 0
9, 55439, Note_on_c, 3, 58, 0
9, 55440, Note_on_c, 3, 51, 84
9, 55440, Note_on_c, 3, 60, 84
9, 55664, Note_on_c, 3, 51, 0
9, 55664, Note_on_c, 3, 60, 0
9, 55680, Note_on_c, 3, 60, 92
9, 55680, Note_on_c, 3, 53, 92
9, 57839, Note_on_c, 3, 60, 0
9, 57839, Note_on_c, 3, 53, 0
9, 58080, Note_on_c, 3, 53, 84
9, 58080, Note_on_c, 3, 41, 84
9, 58319, Note_on_c, 3, 53, 0
9, 58319, Note_on_c, 3, 41, 0
9, 59040, Note_on_c, 3, 43, 84
9, 59040, Note_on_c, 3, 55, 84
9, 59279, Note_on_c, 3, 43, 0
9, 59279, Note_on_c, 3, 55, 0
9, 60000, Note_on_c, 3, 36, 84
9, 60000, Note_on_c, 3, 48, 84
9, 60239, Note_on_c, 3, 36, 0
9, 60239, Note_on_c, 3, 48, 0
9, 60960, Note_on_c, 3, 41, 84
9, 60960, Note_on_c, 3, 53, 84
9, 61199, Note_on_c, 3, 41, 0
9, 61199, Note_on_c, 3, 53, 0
9, 61440, Note_on_c, 3, 58, 44
9, 61619, Note_on_c, 3, 58, 0
9, 61680, Note_on_c, 3, 53, 44
9, 61859, Note_on_c, 3, 53, 0
9, 61920, Note_on_c, 3, 50, 44
9, 62099, Note_on_c, 3, 50, 0
9, 62160, Note_on_c, 3, 53, 44
9, 62339, Note_on_c, 3, 53, 0
9, 62400, Note_on_c, 3, 46, 44
9, 62579, Note_on_c, 3, 46, 0
9, 62640, Note_on_c, 3, 53, 44
9, 62819, Note_on_c, 3, 53, 0
9, 62880, Note_on_c, 3, 50, 44
9, 63059, Note_on_c, 3, 50, 0
9, 63120, Note_on_c, 3, 53, 44
9, 63299, Note_on_c, 3, 53, 0
9, 63360, Note_on_c, 3, 58, 44
9, 63539, Note_on_c, 3, 58, 0
9, 63600, Note_on_c, 3, 53, 44
9, 63779, Note_on_c, 3, 53, 0
9, 63840, Note_on_c, 3, 50, 44
9, 64019, Note_on_c, 3, 50, 0
9, 64080, Note_on_c, 3, 53, 44
9, 64259, Note_on_c, 3, 53, 0
9, 64320, Note_on_c, 3, 46, 44
9, 64499, Note_on_c, 3, 46, 0
9, 64560, Note_on_c, 3, 50, 44
9, 64739, Note_on_c, 3, 50, 0
9, 64800, Note_on_c, 3, 53, 44
9, 64979, Note_on_c, 3, 53, 0
9, 65040, Note_on_c, 3, 58, 44
9, 65219, Note_on_c, 3, 58, 0
9, 65280, Note_on_c, 3, 60, 44
9, 65459, Note_on_c, 3, 60, 0
9, 65520, Note_on_c, 3, 57, 44
9, 65699, Note_on_c, 3, 57, 0
9, 65760, Note_on_c, 3, 54, 44
9, 65939, Note_on_c, 3, 54, 0
9, 66000, Note_on_c, 3, 57, 44
9, 66179, Note_on_c, 3, 57, 0
9, 66240, Note_on_c, 3, 51, 44
9, 66419, Note_on_c, 3, 51, 0
9, 66480, Note_on_c, 3, 57, 44
9, 66659, Note_on_c, 3, 57, 0
9, 66720, Note_on_c, 3, 54, 44
9, 66899, Note_on_c, 3, 54, 0
9, 66960, Note_on_c, 3, 57, 44
9, 67139, Note_on_c, 3, 57, 0
9, 67200, Note_on_c, 3, 60, 44
9, 67379, Note_on_c, 3, 60, 0
9, 67440, Note_on_c, 3, 57, 44
9, 67619, Note_on_c, 3, 57, 0
9, 67680, Note_on_c, 3, 54, 44
9, 67859, Note_on_c, 3, 54, 0
9, 67920, Note_on_c, 3, 57, 44
9, 68099, Note_on_c, 3, 57, 0
9, 68160, Note_on_c, 3, 51, 44
9, 68339, Note_on_c, 3, 51, 0
9, 68400, Note_on_c, 3, 54, 44
9, 68579, Note_on_c, 3, 54, 0
9, 68640, Note_on_c, 3, 57, 44
9, 68819, Note_on_c, 3, 57, 0
9, 68880, Note_on_c, 3, 60, 44
9, 69059, Note_on_c, 3, 60, 0
9, 69120, Note_on_c, 3, 62, 44
9, 69299, Note_on_c, 3, 62, 0
9, 69360, Note_on_c, 3, 59, 44
9, 69539, Note_on_c, 3, 59, 0
9, 69600, Note_on_c, 3, 56, 44
9, 69779, Note_on_c, 3, 56, 0
9, 69840, Note_on_c, 3, 59, 44
9, 70019, Note_on_c, 3, 59, 0
9, 70080, Note_on_c, 3, 53, 44
9, 70259, Note_on_c, 3, 53, 0
9, 70320, Note_on_c, 3, 56, 44
9, 70499, Note_on_c, 3, 56, 0
9, 70560, Note_on_c, 3, 59, 44
9, 70739, Note_on_c, 3, 59, 0
9, 70800, Note_on_c, 3, 62, 44
9, 70979, Note_on_c, 3, 62, 0
9, 71040, Note_on_c, 3, 64, 44
9, 71219, Note_on_c, 3, 64, 0
9, 71280, Note_on_c, 3, 61, 44
9, 71459, Note_on_c, 3, 61, 0
9, 71520, Note_on_c, 3, 58, 44
9, 71699, Note_on_c, 3, 58, 0
9, 71760, Note_on_c, 3, 61, 44
9, 71939, Note_on_c, 3, 61, 0
9, 72000, Note_on_c, 3, 55, 44
9, 72179, Note_on_c, 3, 55, 0
9, 72240, Note_on_c, 3, 58, 44
9, 72419, Note_on_c, 3, 58, 0
9, 72480, Note_on_c, 3, 61, 44
9, 72659, Note_on_c, 3, 61, 0
9, 72720, Note_on_c, 3, 64, 44
9, 72899, Note_on_c, 3, 64, 0
9, 72952, Control_c, 3, 11, 64
9, 72960, Control_c, 3, 11, 64
9, 72960, Note_on_c, 3, 66, 84
9, 73067, Control_c, 3, 11, 66
9, 73173, Control_c, 3, 11, 68
9, 73280, Control_c, 3, 11, 69
9, 73387, Control_c, 3, 11, 71
9, 73493, Control_c, 3, 11, 73
9, 73600, Control_c, 3, 11, 75
9, 73707, Control_c, 3, 11, 76
9, 73813, Control_c, 3, 11, 78
9, 73920, Control_c, 3, 11, 80
9, 74027, Control_c, 3, 11, 82
9, 74133, Control_c, 3, 11, 83
9, 74240, Control_c, 3, 11, 85
9, 74347, Control_c, 3, 11, 87
9, 74453, Control_c, 3, 11, 89
9, 74560, Control_c, 3, 11, 90
9, 74667, Control_c, 3, 11, 92
9, 74773, Control_c, 3, 11, 94
9, 74864, Note_on_c, 3, 66, 0
9, 74880, Note_on_c, 3, 65, 84
9, 74880, Control_c, 3, 11, 96
9, 74987, Control_c, 3, 11, 97
9, 75093, Control_c, 3, 11, 99
9, 75200, Control_c, 3, 11, 101
9, 75307, Control_c, 3, 11, 103
9, 75413, Control_c, 3, 11, 104
9, 75520, Control_c, 3, 11, 106
9, 75627, Control_c, 3, 11, 108
9, 75733, Control_c, 3, 11, 110
9, 75840, Control_c, 3, 11, 111
9, 75947, Control_c, 3, 11, 113
9, 76053, Control_c, 3, 11, 115
9, 76160, Control_c, 3, 11, 117
9, 76267, Control_c, 3, 11, 118
9, 76373, Control_c, 3, 11, 120
9, 76480, Control_c, 3, 11, 122
9, 76587, Control_c, 3, 11, 125
9, 76693, Control_c, 3, 11, 127
9, 76784, Note_on_c, 3, 65, 0
9, 76800, Note_on_c, 3, 58, 84
9, 76800, Note_on_c, 3, 46, 84
9, 78704, Note_on_c, 3, 58, 0
9, 78704, Note_on_c, 3, 46, 0
9, 78720, Note_on_c, 3, 51, 92
9, 78720, Note_on_c, 3, 63, 92
9, 79649, Note_on_c, 3, 51, 0
9, 79649, Note_on_c, 3, 63, 0
9, 79680, Note_on_c, 3, 53, 92
9, 79680, Note_on_c, 3, 65, 92
9, 80609, Note_on_c, 3, 53, 0
9, 80609, Note_on_c, 3, 65, 0
9, 80640, Note_on_c, 3, 58, 92
9, 80640, Note_on_c, 3, 46, 92
9, 82529, Note_on_c, 3, 58, 0
9, 82529, Note_on_c, 3, 46, 0
9, 82560, Note_on_c, 3, 51, 92
9, 82560, Note_on_c, 3, 55, 92
9, 83489, Note_on_c, 3, 51, 0
9, 83489, Note_on_c, 3, 55, 0
9, 83520, Note_on_c, 3, 57, 92
9, 83520, Note_on_c, 3, 53, 92
9, 84449, Note_on_c, 3, 57, 0
9, 84449, Note_on_c, 3, 53, 0
9, 84480, Note_on_c, 3, 58, 92
9, 84480, Note_on_c, 3, 46, 92
9, 85409, Note_on_c, 3, 58, 0
9, 85409, Note_on_c, 3, 46, 0
9, 85440, Note_on_c, 3, 61, 92
9, 85440, Note_on_c, 3, 45, 92
9, 86369, Note_on_c, 3, 61, 0
9, 86369, Note_on_c, 3, 45, 0
9, 86400, Note_on_c, 3, 62, 92
9, 86400, Note_on_c, 3, 50, 92
9, 87329, Note_on_c, 3, 62, 0
9, 87329, Note_on_c, 3, 50, 0
9, 87360, Note_on_c, 3, 60, 84
9, 87360, Note_on_c, 3, 48, 84
9, 87584, Note_on_c, 3, 60, 0
9, 87584, Note_on_c, 3, 48, 0
9, 87600, Note_on_c, 3, 60, 84
9, 87600, Note_on_c, 3, 48, 84
9, 87824, Note_on_c, 3, 60, 0
9, 87824, Note_on_c, 3, 48, 0
9, 87840, Note_on_c, 3, 48, 84
9, 87840, Note_on_c, 3, 60, 84
9, 88064, Note_on_c, 3, 48, 0
9, 88064, Note_on_c, 3, 60, 0
9, 88080, Note_on_c, 3, 48, 84
9, 88080, Note_on_c, 3, 60, 84
9, 88304, Note_on_c, 3, 48, 0
9, 88304, Note_on_c, 3, 60, 0
9, 88320, Note_on_c, 3, 48, 84
9, 88320, Note_on_c, 3, 60, 84
9, 88544, Note_on_c, 3, 48, 0
9, 88544, Note_on_c, 3, 60, 0
9, 88560, Note_on_c, 3, 48, 84
9, 88560, Note_on_c, 3, 60, 84
9, 88784, Note_on_c, 3, 48, 0
9, 88784, Note_on_c, 3, 60, 0
9, 88800, Note_on_c, 3, 48, 84
9, 88800, Note_on_c, 3, 60, 84
9, 89024, Note_on_c, 3, 48, 0
9, 89024, Note_on_c, 3, 60, 0
9, 89040, Note_on_c, 3, 60, 84
9, 89040, Note_on_c, 3, 48, 84
9, 89264, Note_on_c, 3, 60, 0
9, 89264, Note_on_c, 3, 48, 0
9, 89280, Note_on_c, 3, 48, 84
9, 89280, Note_on_c, 3, 60, 84
9, 89504, Note_on_c, 3, 48, 0
9, 89504, Note_on_c, 3, 60, 0
9, 89520, Note_on_c, 3, 60, 84
9, 89520, Note_on_c, 3, 48, 84
9, 89744, Note_on_c, 3, 60, 0
9, 89744, Note_on_c, 3, 48, 0
9, 89760, Note_on_c, 3, 60, 84
9, 89760, Note_on_c, 3, 48, 84
9, 89984, Note_on_c, 3, 60, 0
9, 89984, Note_on_c, 3, 48, 0
9, 90000, Note_on_c, 3, 48, 84
9, 90000, Note_on_c, 3, 60, 84
9, 90224, Note_on_c, 3, 48, 0
9, 90224, Note_on_c, 3, 60, 0
9, 90240, Note_on_c, 3, 48, 84
9, 90240, Note_on_c, 3, 60, 84
9, 90464, Note_on_c, 3, 48, 0
9, 90464, Note_on_c, 3, 60, 0
9, 90480, Note_on_c, 3, 55, 92
9, 90480, Note_on_c, 3, 52, 92
9, 90929, Note_on_c, 3, 55, 0
9, 90929, Note_on_c, 3, 52, 0
9, 90960, Note_on_c, 3, 56, 84
9, 90960, Note_on_c, 3, 53, 84
9, 91424, Note_on_c, 3, 56, 0
9, 91424, Note_on_c, 3, 53, 0
9, 91440, Note_on_c, 3, 55, 84
9, 91440, Note_on_c, 3, 58, 84
9, 91904, Note_on_c, 3, 55, 0
9, 91904, Note_on_c, 3, 58, 0
9, 91920, Note_on_c, 3, 53, 84
9, 91920, Note_on_c, 3, 50, 84
9, 92384, Note_on_c, 3, 53, 0
9, 92384, Note_on_c, 3, 50, 0
9, 92400, Note_on_c, 3, 52, 84
9, 92400, Note_on_c, 3, 55, 84
9, 92864, Note_on_c, 3, 52, 0
9, 92864, Note_on_c, 3, 55, 0
9, 92880, Note_on_c, 3, 53, 84
9, 92880, Note_on_c, 3, 56, 84
9, 93344, Note_on_c, 3, 53, 0
9, 93344, Note_on_c, 3, 56, 0
9, 93360, Note_on_c, 3, 53, 92
9, 93360, Note_on_c, 3, 56, 92
9, 93839, Note_on_c, 3, 53, 0
9, 93839, Note_on_c, 3, 56, 0
9, 93840, Note_on_c, 3, 55, 84
9, 93840, Note_on_c, 3, 52, 84
9, 94064, Note_on_c, 3, 55, 0
9, 94064, Note_on_c, 3, 52, 0
9, 94080, Note_on_c, 3, 55, 84
9, 94080, Note_on_c, 3, 52, 84
9, 94259, Note_on_c, 3, 55, 0
9, 94259, Note_on_c, 3, 52, 0
9, 94320, Note_on_c, 3, 64, 84
9, 94320, Note_on_c, 3, 58, 84
9, 94784, Note_on_c, 3, 64, 0
9, 94784, Note_on_c, 3, 58, 0
9, 94800, Note_on_c, 3, 65, 84
9, 94800, Note_on_c, 3, 56, 84
9, 95264, Note_on_c, 3, 65, 0
9, 95264, Note_on_c, 3, 56, 0
9, 95280, Note_on_c, 3, 55, 84
9, 95280, Note_on_c, 3, 64, 84
9, 95744, Note_on_c, 3, 55, 0
9, 95744, Note_on_c, 3, 64, 0
9, 95760, Note_on_c, 3, 56, 84
9, 95760, Note_on_c, 3, 62, 84
9, 96224, Note_on_c, 3, 56, 0
9, 96224, Note_on_c, 3, 62, 0
9, 96240, Note_on_c, 3, 64, 84
9, 96240, Note_on_c, 3, 55, 84
9, 96704, Note_on_c, 3, 64, 0
9, 96704, Note_on_c, 3, 55, 0
9, 96720, Note_on_c, 3, 53, 84
9, 96720, Note_on_c, 3, 65, 84
9, 97184, Note_on_c, 3, 53, 0
9, 97184, Note_on_c, 3, 65, 0
9, 97200, Note_on_c, 3, 65, 92
9, 97200, Note_on_c, 3, 53, 92
9, 97679, Note_on_c, 3, 65, 0
9, 97679, Note_on_c, 3, 53, 0
9, 97680, Note_on_c, 3, 64, 84
9, 97680, Note_on_c, 3, 48, 84
9, 97904, Note_on_c, 3, 64, 0
9, 97904, Note_on_c, 3, 48, 0
9, 97920, Note_on_c, 3, 48, 84
9, 97920, Note_on_c, 3, 64, 84
9, 98159, Note_on_c, 3, 48, 0
9, 98159, Note_on_c, 3, 64, 0
9, 101760, Note_on_c, 3, 60, 52
9, 101879, Note_on_c, 3, 60, 0
9, 101880, Note_on_c, 3, 57, 52
9, 101999, Note_on_c, 3, 57, 0
9, 102000, Note_on_c, 3, 58, 52
9, 102119, Note_on_c, 3, 58, 0
9, 102120, Note_on_c, 3, 55, 52
9, 102224, Note_on_c, 3, 55, 0
9, 102240, Note_on_c, 3, 53, 52
9, 102419, Note_on_c, 3, 53, 0
9, 102480, Note_on_c, 3, 48, 52
9, 102659, Note_on_c, 3, 48, 0
9, 102720, Note_on_c, 3, 53, 52
9, 102899, Note_on_c, 3, 53, 0
9, 102960, Note_on_c, 3, 55, 52
9, 103139, Note_on_c, 3, 55, 0
9, 103200, Note_on_c, 3, 57, 52
9, 103379, Note_on_c, 3, 57, 0
9, 103440, Note_on_c, 3, 58, 52
9, 103619, Note_on_c, 3, 58, 0
9, 103680, Note_on_c, 3, 60, 52
9, 103919, Note_on_c, 3, 60, 0
9, 111360, Note_on_c, 3, 61, 52
9, 111360, Note_on_c, 3, 64, 52
9, 112319, Note_on_c, 3, 61, 0
9, 112319, Note_on_c, 3, 64, 0
9, 112320, Note_on_c, 3, 65, 52
9, 112320, Note_on_c, 3, 62, 52
9, 113279, Note_on_c, 3, 65, 0
9, 113279, Note_on_c, 3, 62, 0
9, 113280, Note_on_c, 3, 64, 52
9, 113280, Note_on_c, 3, 67, 52
9, 114239, Note_on_c, 3, 64, 0
9, 114239, Note_on_c, 3, 67, 0
9, 114240, Note_on_c, 3, 65, 52
9, 114240, Note_on_c, 3, 62, 52
9, 115184, Note_on_c, 3, 65, 0
9, 115184, Note_on_c, 3, 62, 0
9, 115200, Note_on_c, 3, 57, 52
9, 115439, Note_on_c, 3, 57, 0
9, 125760, Note_on_c, 3, 60, 76
9, 125760, Note_on_c, 3, 64, 76
9, 126119, Note_on_c, 3, 60, 0
9, 126119, Note_on_c, 3, 64, 0
9, 126240, Note_on_c, 3, 64, 76
9, 126240, Note_on_c, 3, 58, 76
9, 126599, Note_on_c, 3, 64, 0
9, 126599, Note_on_c, 3, 58, 0
9, 126720, Note_on_c, 3, 55, 76
9, 126720, Note_on_c, 3, 64, 76
9, 127079, Note_on_c, 3, 55, 0
9, 127079, Note_on_c, 3, 64, 0
9, 127200, Note_on_c, 3, 52, 76
9, 127200, Note_on_c, 3, 64, 76
9, 127559, Note_on_c, 3, 52, 0
9, 127559, Note_on_c, 3, 64, 0
9, 127680, Note_on_c, 3, 48, 76
9, 127680, Note_on_c, 3, 64, 76
9, 128039, Note_on_c, 3, 48, 0
9, 128039, Note_on_c, 3, 64, 0
9, 128160, Note_on_c, 3, 46, 76
9, 128160, Note_on_c, 3, 64, 76
9, 128519, Note_on_c, 3, 46, 0
9, 128519, Note_on_c, 3, 64, 0
9, 128640, Note_on_c, 3, 45, 76
9, 128640, Note_on_c, 3, 65, 76
9, 128879, Note_on_c, 3, 45, 0
9, 128879, Note_on_c, 3, 65, 0
9, 129600, Note_on_c, 3, 46, 76
9, 129600, Note_on_c, 3, 58, 76
9, 129839, Note_on_c, 3, 46, 0
9, 129839, Note_on_c, 3, 58, 0
9, 130560, Note_on_c, 3, 48, 76
9, 130560, Note_on_c, 3, 60, 76
9, 130799, Note_on_c, 3, 48, 0
9, 130799, Note_on_c, 3, 60, 0
9, 131280, Note_on_c, 3, 48, 76
9, 131280, Note_on_c, 3, 60, 76
9, 131504, Note_on_c, 3, 48, 0
9, 131504, Note_on_c, 3, 60, 0
9, 131520, Note_on_c, 3, 46, 76
9, 131520, Note_on_c, 3, 58, 76
9, 131744, Note_on_c, 3, 46, 0
9, 131744, Note_on_c, 3, 58, 0
9, 131760, Note_on_c, 3, 46, 76
9, 131760, Note_on_c, 3, 58, 76
9, 131984, Note_on_c, 3, 46, 0
9, 131984, Note_on_c, 3, 58, 0
9, 132000, Note_on_c, 3, 58, 76
9, 132000, Note_on_c, 3, 46, 76
9, 132224, Note_on_c, 3, 58, 0
9, 132224, Note_on_c, 3, 46, 0
9, 132240, Note_on_c, 3, 58, 76
9, 132240, Note_on_c, 3, 46, 76
9, 132464, Note_on_c, 3, 58, 0
9, 132464, Note_on_c, 3, 46, 0
9, 132480, Note_on_c, 3, 57, 76
9, 132480, Note_on_c, 3, 45, 76
9, 132719, Note_on_c, 3, 57, 0
9, 132719, Note_on_c, 3, 45, 0
9, 132960, Note_on_c, 3, 46, 76
9, 132960, Note_on_c, 3, 58, 76
9, 133199, Note_on_c, 3, 46, 0
9, 133199, Note_on_c, 3, 58, 0
9, 133440, Note_on_c, 3, 48, 76
9, 133440, Note_on_c, 3, 60, 76
9, 133679, Note_on_c, 3, 48, 0
9, 133679, Note_on_c, 3, 60, 0
9, 133920, Note_on_c, 3, 48, 76
9, 133920, Note_on_c, 3, 36, 76
9, 134159, Note_on_c, 3, 48, 0
9, 134159, Note_on_c, 3, 36, 0
9, 135360, Note_on_c, 3, 57, 48
9, 135599, Note_on_c, 3, 57, 0
9, 135600, Note_on_c, 3, 58, 48
9, 135839, Note_on_c, 3, 58, 0
9, 135840, Note_on_c, 3, 60, 48
9, 136079, Note_on_c, 3, 60, 0
9, 136080, Note_on_c, 3, 48, 48
9, 136304, Note_on_c, 3, 48, 0
9, 136320, Note_on_c, 3, 53, 48
9, 137039, Note_on_c, 3, 53, 0
9, 137040, Note_on_c, 3, 55, 48
9, 137279, Note_on_c, 3, 55, 0
9, 137280, Note_on_c, 3, 57, 48
9, 137519, Note_on_c, 3, 57, 0
9, 137520, Note_on_c, 3, 53, 48
9, 137759, Note_on_c, 3, 53, 0
9, 137760, Note_on_c, 3, 57, 48
9, 137999, Note_on_c, 3, 57, 0
9, 138000, Note_on_c, 3, 58, 48
9, 138224, Note_on_c, 3, 58, 0
9, 138240, Note_on_c, 3, 60, 48
9, 138959, Note_on_c, 3, 60, 0
9, 138960, Note_on_c, 3, 62, 48
9, 139199, Note_on_c, 3, 62, 0
9, 139200, Note_on_c, 3, 64, 48
9, 139439, Note_on_c, 3, 64, 0
9, 139440, Note_on_c, 3, 65, 48
9, 139679, Note_on_c, 3, 65, 0
9, 139680, Note_on_c, 3, 67, 48
9, 139919, Note_on_c, 3, 67, 0
9, 139920, Note_on_c, 3, 65, 48
9, 140144, Note_on_c, 3, 65, 0
9, 140160, Note_on_c, 3, 64, 48
9, 140879, Note_on_c, 3, 64, 0
9, 140880, Note_on_c, 3, 62, 48
9, 141119, Note_on_c, 3, 62, 0
9, 141120, Note_on_c, 3, 60, 48
9, 141359, Note_on_c, 3, 60, 0
9, 141360, Note_on_c, 3, 62, 48
9, 141599, Note_on_c, 3, 62, 0
9, 141600, Note_on_c, 3, 58, 48
9, 141839, Note_on_c, 3, 58, 0
9, 141840, Note_on_c, 3, 55, 48
9, 142064, Note_on_c, 3, 55, 0
9, 142080, Note_on_c, 3, 53, 76
9, 142304, Note_on_c, 3, 53, 0
9, 142320, Note_on_c, 3, 60, 76
9, 142320, Note_on_c, 3, 48, 76
9, 142544, Note_on_c, 3, 60, 0
9, 142544, Note_on_c, 3, 48, 0
9, 142560, Note_on_c, 3, 60, 76
9, 142560, Note_on_c, 3, 48, 76
9, 142784, Note_on_c, 3, 60, 0
9, 142784, Note_on_c, 3, 48, 0
9, 142800, Note_on_c, 3, 48, 76
9, 142800, Note_on_c, 3, 60, 76
9, 143024, Note_on_c, 3, 48, 0
9, 143024, Note_on_c, 3, 60, 0
9, 143040, Note_on_c, 3, 60, 76
9, 143040, Note_on_c, 3, 48, 76
9, 143744, Note_on_c, 3, 60, 0
9, 143744, Note_on_c, 3, 48, 0
9, 143760, Note_on_c, 3, 60, 76
9, 143760, Note_on_c, 3, 48, 76
9, 143984, Note_on_c, 3, 60, 0
9, 143984, Note_on_c, 3, 48, 0
9, 144000, Note_on_c, 3, 60, 76
9, 144000, Note_on_c, 3, 48, 76
9, 144224, Note_on_c, 3, 60, 0
9, 144224, Note_on_c, 3, 48, 0
9, 144240, Note_on_c, 3, 48, 76
9, 144240, Note_on_c, 3, 60, 76
9, 144464, Note_on_c, 3, 48, 0
9, 144464, Note_on_c, 3, 60, 0
9, 144480, Note_on_c, 3, 60, 76
9, 144480, Note_on_c, 3, 48, 76
9, 144704, Note_on_c, 3, 60, 0
9, 144704, Note_on_c, 3, 48, 0
9, 144720, Note_on_c, 3, 60, 76
9, 144720, Note_on_c, 3, 48, 76
9, 144944, Note_on_c, 3, 60, 0
9, 144944, Note_on_c, 3, 48, 0
9, 144960, Note_on_c, 3, 60, 76
9, 144960, Note_on_c, 3, 48, 76
9, 145664, Note_on_c, 3, 60, 0
9, 145664, Note_on_c, 3, 48, 0
9, 145680, Note_on_c, 3, 48, 76
9, 145680, Note_on_c, 3, 60, 76
9, 145904, Note_on_c, 3, 48, 0
9, 145904, Note_on_c, 3, 60, 0
9, 145920, Note_on_c, 3, 60, 76
9, 145920, Note_on_c, 3, 48, 76
9, 146144, Note_on_c, 3, 60, 0
9, 146144, Note_on_c, 3, 48, 0
9, 146160, Note_on_c, 3, 60, 76
9, 146160, Note_on_c, 3, 48, 76
9, 146384, Note_on_c, 3, 60, 0
9, 146384, Note_on_c, 3, 48, 0
9, 146400, Note_on_c, 3, 48, 76
9, 146400, Note_on_c, 3, 60, 76
9, 146624, Note_on_c, 3, 48, 0
9, 146624, Note_on_c, 3, 60, 0
9, 146640, Note_on_c, 3, 48, 76
9, 146640, Note_on_c, 3, 60, 76
9, 146864, Note_on_c, 3, 48, 0
9, 146864, Note_on_c, 3, 60, 0
9, 146880, Note_on_c, 3, 60, 76
9, 146880, Note_on_c, 3, 48, 76
9, 147584, Note_on_c, 3, 60, 0
9, 147584, Note_on_c, 3, 48, 0
9, 147600, Note_on_c, 3, 48, 76
9, 147600, Note_on_c, 3, 60, 76
9, 147824, Note_on_c, 3, 48, 0
9, 147824, Note_on_c, 3, 60, 0
9, 147840, Note_on_c, 3, 60, 76
9, 147840, Note_on_c, 3, 48, 76
9, 148064, Note_on_c, 3, 60, 0
9, 148064, Note_on_c, 3, 48, 0
9, 148080, Note_on_c, 3, 60, 76
9, 148080, Note_on_c, 3, 48, 76
9, 148304, Note_on_c, 3, 60, 0
9, 148304, Note_on_c, 3, 48, 0
9, 148320, Note_on_c, 3, 60, 76
9, 148320, Note_on_c, 3, 48, 76
9, 148544, Note_on_c, 3, 60, 0
9, 148544, Note_on_c, 3, 48, 0
9, 148560, Note_on_c, 3, 48, 76
9, 148560, Note_on_c, 3, 60, 76
9, 148784, Note_on_c, 3, 48, 0
9, 148784, Note_on_c, 3, 60, 0
9, 148800, Note_on_c, 3, 48, 76
9, 148800, Note_on_c, 3, 60, 76
9, 149759, Note_on_c, 3, 48, 0
9, 149759, Note_on_c, 3, 60, 0
9, 150000, Note_on_c, 3, 62, 52
9, 150239, Note_on_c, 3, 62, 0
9, 150240, Note_on_c, 3, 58, 52
9, 150479, Note_on_c, 3, 58, 0
9, 150480, Note_on_c, 3, 55, 52
9, 150704, Note_on_c, 3, 55, 0
9, 150720, Note_on_c, 3, 52, 52
9, 150959, Note_on_c, 3, 52, 0
9, 153600, Note_on_c, 3, 41, 84
9, 153600, Note_on_c, 3, 53, 84
9, 153839, Note_on_c, 3, 41, 0
9, 153839, Note_on_c, 3, 53, 0
9, 154320, Note_on_c, 3, 50, 84
9, 154544, Note_on_c, 3, 50, 0
9, 154560, Note_on_c, 3, 46, 84
9, 154799, Note_on_c, 3, 46, 0
9, 155040, Note_on_c, 3, 48, 84
9, 155279, Note_on_c, 3, 48, 0
9, 157440, Note_on_c, 3, 53, 84
9, 157440, Note_on_c, 3, 41, 84
9, 157679, Note_on_c, 3, 53, 0
9, 157679, Note_on_c, 3, 41, 0
9, 158160, Note_on_c, 3, 50, 84
9, 158384, Note_on_c, 3, 50, 0
9, 158400, Note_on_c, 3, 46, 84
9, 158639, Note_on_c, 3, 46, 0
9, 158880, Note_on_c, 3, 48, 84
9, 159119, Note_on_c, 3, 48, 0
9, 159840, Control_c, 3, 11, 80
9, 160320, Control_c, 3, 11, 80
9, 160320, Note_on_c, 3, 59, 76
9, 160373, Control_c, 3, 11, 83
9, 160427, Control_c, 3, 11, 85
9, 160480, Control_c, 3, 11, 88
9, 160533, Control_c, 3, 11, 90
9, 160587, Control_c, 3, 11, 93
9, 160640, Control_c, 3, 11, 96
9, 160693, Control_c, 3, 11, 98
9, 160747, Control_c, 3, 11, 101
9, 160800, Control_c, 3, 11, 104
9, 160853, Control_c, 3, 11, 106
9, 160907, Control_c, 3, 11, 109
9, 160960, Control_c, 3, 11, 111
9, 161013, Control_c, 3, 11, 114
9, 161067, Control_c, 3, 11, 117
9, 161120, Control_c, 3, 11, 119
9, 161173, Control_c, 3, 11, 122
9, 161227, Control_c, 3, 11, 127
9, 161264, Note_on_c, 3, 59, 0
9, 161280, Note_on_c, 3, 59, 76
9, 162224, Note_on_c, 3, 59, 0
9, 162240, Note_on_c, 3, 60, 76
9, 163184, Note_on_c, 3, 60, 0
9, 163200, Note_on_c, 3, 62, 76
9, 164144, Note_on_c, 3, 62, 0
9, 164160, Note_on_c, 3, 64, 76
9, 165104, Note_on_c, 3, 64, 0
9, 165120, Note_on_c, 3, 65, 84
9, 165120, Note_on_c, 3, 53, 84
9, 165344, Note_on_c, 3, 65, 0
9, 165344, Note_on_c, 3, 53, 0
9, 165360, Note_on_c, 3, 61, 84
9, 165360, Note_on_c, 3, 49, 84
9, 167024, Note_on_c, 3, 61, 0
9, 167024, Note_on_c, 3, 49, 0
9, 167040, Note_on_c, 3, 60, 84
9, 167040, Note_on_c, 3, 48, 84
9, 167984, Note_on_c, 3, 60, 0
9, 167984, Note_on_c, 3, 48, 0
9, 168000, Note_on_c, 3, 60, 84
9, 168000, Note_on_c, 3, 48, 84
9, 168944, Note_on_c, 3, 60, 0
9, 168944, Note_on_c, 3, 48, 0
9, 168960, Note_on_c, 3, 53, 84
9, 169199, Note_on_c, 3, 53, 0
9, 172080, Note_on_c, 3, 58, 76
9, 172080, Note_on_c, 3, 55, 76
9, 172544, Note_on_c, 3, 58, 0
9, 172544, Note_on_c, 3, 55, 0
9, 172560, Note_on_c, 3, 55, 76
9, 172560, Note_on_c, 3, 58, 76
9, 172739, Note_on_c, 3, 55, 0
9, 172739, Note_on_c, 3, 58, 0
9, 172800, Note_on_c, 3, 53, 76
9, 172800, Note_on_c, 3, 57, 76
9, 172979, Note_on_c, 3, 53, 0
9, 172979, Note_on_c, 3, 57, 0
9, 175920, Note_on_c, 3, 55, 76
9, 175920, Note_on_c, 3, 58, 76
9, 176384, Note_on_c, 3, 55, 0
9, 176384, Note_on_c, 3, 58, 0
9, 176400, Note_on_c, 3, 55, 76
9, 176400, Note_on_c, 3, 58, 76
9, 176624, Note_on_c, 3, 55, 0
9, 176624, Note_on_c, 3, 58, 0
9, 176640, Note_on_c, 3, 53, 76
9, 176640, Note_on_c, 3, 57, 76
9, 176879, Note_on_c, 3, 53, 0
9, 176879, Note_on_c, 3, 57, 0
9, 177840, Note_on_c, 3, 58, 76
9, 177840, Note_on_c, 3, 55, 76
9, 178304, Note_on_c, 3, 58, 0
9, 178304, Note_on_c, 3, 55, 0
9, 178320, Note_on_c, 3, 58, 76
9, 178320, Note_on_c, 3, 55, 76
9, 178544, Note_on_c, 3, 58, 0
9, 178544, Note_on_c, 3, 55, 0
9, 178560, Note_on_c, 3, 57, 84
9, 178560, Note_on_c, 3, 53, 84
9, 180407, Note_on_c, 3, 57, 0
9, 180407, Note_on_c, 3, 53, 0
9, 180420, Note_on_c, 3, 57, 84
9, 180420, Note_on_c, 3, 53, 84
9, 180471, Note_on_c, 3, 57, 0
9, 180471, Note_on_c, 3, 53, 0
9, 180480, Note_on_c, 3, 57, 84
9, 180480, Note_on_c, 3, 53, 84
9, 180719, Note_on_c, 3, 57, 0
9, 180719, Note_on_c, 3, 53, 0
9, 182400, Note_on_c, 3, 57, 84
9, 182400, Note_on_c, 3, 60, 84
9, 184247, Note_on_c, 3, 57, 0
9, 184247, Note_on_c, 3, 60, 0
9, 184260, Note_on_c, 3, 60, 84
9, 184260, Note_on_c, 3, 57, 84
9, 184311, Note_on_c, 3, 60, 0
9, 184311, Note_on_c, 3, 57, 0
9, 184320, Note_on_c, 3, 57, 84
9, 184320, Note_on_c, 3, 60, 84
9, 184559, Note_on_c, 3, 57, 0
9, 184559, Note_on_c, 3, 60, 0
9, 185280, Note_on_c, 3, 65, 84
9, 185280, Note_on_c, 3, 53, 84
9, 185459, Note_on_c, 3, 65, 0
9, 185459, Note_on_c, 3, 53, 0
9, 186240, Note_on_c, 3, 53, 84
9, 186240, Note_on_c, 3, 65, 84
9, 186419, Note_on_c, 3, 53, 0
9, 186419, Note_on_c, 3, 65, 0
9, 186720, Note_on_c, 3, 53, 84
9, 186720, Note_on_c, 3, 65, 84
9, 186899, Note_on_c, 3, 53, 0
9, 186899, Note_on_c, 3, 65, 0
9, 187200, Note_on_c, 3, 53, 84
9, 187200, Note_on_c, 3, 65, 84
9, 187379, Note_on_c, 3, 53, 0
9, 187379, Note_on_c, 3, 65, 0
9, 187680, Note_on_c, 3, 53, 84
9, 187680, Note_on_c, 3, 65, 84
9, 187859, Note_on_c, 3, 53, 0
9, 187859, Note_on_c, 3, 65, 0
9, 188160, Note_on_c, 3, 58, 84
9, 188160, Note_on_c, 3, 62, 84
9, 188339, Note_on_c, 3, 58, 0
9, 188339, Note_on_c, 3, 62, 0
9, 192240, Note_on_c, 3, 58, 48
9, 192240, Note_on_c, 3, 62, 48
9, 192479, Note_on_c, 3, 58, 0
9, 192479, Note_on_c, 3, 62, 0
9, 192480, Note_on_c, 3, 60, 48
9, 192480, Note_on_c, 3, 57, 48
9, 192719, Note_on_c, 3, 60, 0
9, 192719, Note_on_c, 3, 57, 0
9, 192720, Note_on_c, 3, 58, 48
9, 192720, Note_on_c, 3, 55, 48
9, 192959, Note_on_c, 3, 58, 0
9, 192959, Note_on_c, 3, 55, 0
9, 192960, Note_on_c, 3, 53, 48
9, 192960, Note_on_c, 3, 57, 48
9, 193199, Note_on_c, 3, 53, 0
9, 193199, Note_on_c, 3, 57, 0
9, 193200, Note_on_c, 3, 55, 48
9, 193200, Note_on_c, 3, 51, 48
9, 193439, Note_on_c, 3, 55, 0
9, 193439, Note_on_c, 3, 51, 0
9, 193440, Note_on_c, 3, 50, 48
9, 193440, Note_on_c, 3, 53, 48
9, 193679, Note_on_c, 3, 50, 0
9, 193679, Note_on_c, 3, 53, 0
9, 193680, Note_on_c, 3, 51, 48
9, 193680, Note_on_c, 3, 55, 48
9, 193904, Note_on_c, 3, 51, 0
9, 193919, Note_on_c, 3, 55, 0
9, 193920, Note_on_c, 3, 53, 48
9, 195824, Note_on_c, 3, 53, 0
9, 195840, Note_on_c, 3, 41, 84
9, 195840, Note_on_c, 3, 53, 84
9, 196019, Note_on_c, 3, 41, 0
9, 196019, Note_on_c, 3, 53, 0
9, 196800, Note_on_c, 3, 53, 84
9, 196800, Note_on_c, 3, 41, 84
9, 196979, Note_on_c, 3, 53, 0
9, 196979, Note_on_c, 3, 41, 0
9, 197280, Note_on_c, 3, 53, 84
9, 197280, Note_on_c, 3, 41, 84
9, 197459, Note_on_c, 3, 53, 0
9, 197459, Note_on_c, 3, 41, 0
9, 197760, Note_on_c, 3, 62, 84
9, 197879, Note_on_c, 3, 62, 0
9, 198000, Note_on_c, 3, 58, 84
9, 198119, Note_on_c, 3, 58, 0
9, 198240, Note_on_c, 3, 53, 84
9, 198359, Note_on_c, 3, 53, 0
9, 198480, Note_on_c, 3, 58, 84
9, 198599, Note_on_c, 3, 58, 0
9, 198720, Note_on_c, 3, 50, 84
9, 198839, Note_on_c, 3, 50, 0
9, 198960, Note_on_c, 3, 53, 84
9, 198960, Note_on_c, 3, 65, 84
9, 199079, Note_on_c, 3, 53, 0
9, 199079, Note_on_c, 3, 65, 0
9, 199200, Note_on_c, 3, 46, 84
9, 199200, Note_on_c, 3, 58, 84
9, 199319, Note_on_c, 3, 46, 0
9, 199319, Note_on_c, 3, 58, 0
9, 199440, Note_on_c, 3, 50, 84
9, 199440, Note_on_c, 3, 62, 84
9, 199559, Note_on_c, 3, 50, 0
9, 199559, Note_on_c, 3, 62, 0
9, 199680, Note_on_c, 3, 55, 84
9, 199799, Note_on_c, 3, 55, 0
9, 199920, Note_on_c, 3, 63, 84
9, 199920, Note_on_c, 3, 51, 84
9, 200039, Note_on_c, 3, 63, 0
9, 200039, Note_on_c, 3, 51, 0
9, 200160, Note_on_c, 3, 60, 84
9, 200279, Note_on_c, 3, 60, 0
9, 200400, Note_on_c, 3, 58, 84
9, 200519, Note_on_c, 3, 58, 0
9, 200640, Note_on_c, 3, 57, 84
9, 200759, Note_on_c, 3, 57, 0
9, 200880, Note_on_c, 3, 53, 84
9, 200880, Note_on_c, 3, 65, 84
9, 200999, Note_on_c, 3, 53, 0
9, 200999, Note_on_c, 3, 65, 0
9, 201120, Note_on_c, 3, 63, 84
9, 201239, Note_on_c, 3, 63, 0
9, 201360, Note_on_c, 3, 60, 84
9, 201479, Note_on_c, 3, 60, 0
9, 201600, Note_on_c, 3, 58, 84
9, 201719, Note_on_c, 3, 58, 0
9, 201840, Note_on_c, 3, 58, 84
9, 201840, Note_on_c, 3, 67, 84
9, 202079, Note_on_c, 3, 58, 0
9, 202079, Note_on_c, 3, 67, 0
9, 202080, Note_on_c, 3, 65, 84
9, 202080, Note_on_c, 3, 57, 84
9, 202319, Note_on_c, 3, 65, 0
9, 202319, Note_on_c, 3, 57, 0
9, 202320, Note_on_c, 3, 55, 84
9, 202320, Note_on_c, 3, 63, 84
9, 202559, Note_on_c, 3, 55, 0
9, 202559, Note_on_c, 3, 63, 0
9, 202560, Note_on_c, 3, 53, 84
9, 202560, Note_on_c, 3, 62, 84
9, 202799, Note_on_c, 3, 53, 0
9, 202799, Note_on_c, 3, 62, 0
9, 202800, Note_on_c, 3, 51, 84
9, 202800, Note_on_c, 3, 60, 84
9, 203039, Note_on_c, 3, 51, 0
9, 203039, Note_on_c, 3, 60, 0
9, 203040, Note_on_c, 3, 50, 84
9, 203040, Note_on_c, 3, 58, 84
9, 203279, Note_on_c, 3, 50, 0
9, 203279, Note_on_c, 3, 58, 0
9, 203280, Note_on_c, 3, 60, 84
9, 203280, Note_on_c, 3, 51, 84
9, 203504, Note_on_c, 3, 60, 0
9, 203504, Note_on_c, 3, 51, 0
9, 203520, Note_on_c, 3, 53, 92
9, 203520, Note_on_c, 3, 60, 92
9, 205679, Note_on_c, 3, 53, 0
9, 205679, Note_on_c, 3, 60, 0
9, 205920, Note_on_c, 3, 41, 84
9, 205920, Note_on_c, 3, 53, 84
9, 206159, Note_on_c, 3, 41, 0
9, 206159, Note_on_c, 3, 53, 0
9, 206880, Note_on_c, 3, 55, 84
9, 206880, Note_on_c, 3, 43, 84
9, 207119, Note_on_c, 3, 55, 0
9, 207119, Note_on_c, 3, 43, 0
9, 207840, Note_on_c, 3, 48, 84
9, 207840, Note_on_c, 3, 36, 84
9, 208079, Note_on_c, 3, 48, 0
9, 208079, Note_on_c, 3, 36, 0
9, 208800, Note_on_c, 3, 53, 84
9, 208800, Note_on_c, 3, 41, 84
9, 209039, Note_on_c, 3, 53, 0
9, 209039, Note_on_c, 3, 41, 0
9, 209280, Note_on_c, 3, 58, 44
9, 209459, Note_on_c, 3, 58, 0
9, 209520, Note_on_c, 3, 53, 44
9, 209699, Note_on_c, 3, 53, 0
9, 209760, Note_on_c, 3, 50, 44
9, 209939, Note_on_c, 3, 50, 0
9, 210000, Note_on_c, 3, 53, 44
9, 210179, Note_on_c, 3, 53, 0
9, 210240, Note_on_c, 3, 46, 44
9, 210419, Note_on_c, 3, 46, 0
9, 210480, Note_on_c, 3, 53, 44
9, 210659, Note_on_c, 3, 53, 0
9, 210720, Note_on_c, 3, 50, 44
9, 210899, Note_on_c, 3, 50, 0
9, 210960, Note_on_c, 3, 53, 44
9, 211139, Note_on_c, 3, 53, 0
9, 211200, Note_on_c, 3, 58, 44
9, 211379, Note_on_c, 3, 58, 0
9, 211440, Note_on_c, 3, 53, 44
9, 211619, Note_on_c, 3, 53, 0
9, 211680, Note_on_c, 3, 50, 44
9, 211859, Note_on_c, 3, 50, 0
9, 211920, Note_on_c, 3, 53, 44
9, 212099, Note_on_c, 3, 53, 0
9, 212160, Note_on_c, 3, 46, 44
9, 212339, Note_on_c, 3, 46, 0
9, 212400, Note_on_c, 3, 50, 44
9, 212579, Note_on_c, 3, 50, 0
9, 212640, Note_on_c, 3, 53, 44
9, 212819, Note_on_c, 3, 53, 0
9, 212880, Note_on_c, 3, 58, 44
9, 213059, Note_on_c, 3, 58, 0
9, 213120, Note_on_c, 3, 60, 44
9, 213299, Note_on_c, 3, 60, 0
9, 213360, Note_on_c, 3, 57, 44
9, 213539, Note_on_c, 3, 57, 0
9, 213600, Note_on_c, 3, 54, 44
9, 213779, Note_on_c, 3, 54, 0
9, 213840, Note_on_c, 3, 57, 44
9, 214019, Note_on_c, 3, 57, 0
9, 214080, Note_on_c, 3, 51, 44
9, 214259, Note_on_c, 3, 51, 0
9, 214320, Note_on_c, 3, 57, 44
9, 214499, Note_on_c, 3, 57, 0
9, 214560, Note_on_c, 3, 54, 44
9, 214739, Note_on_c, 3, 54, 0
9, 214800, Note_on_c, 3, 57, 44
9, 214979, Note_on_c, 3, 57, 0
9, 215040, Note_on_c, 3, 60, 44
9, 215219, Note_on_c, 3, 60, 0
9, 215280, Note_on_c, 3, 57, 44
9, 215459, Note_on_c, 3, 57, 0
9, 215520, Note_on_c, 3, 54, 44
9, 215699, Note_on_c, 3, 54, 0
9, 215760, Note_on_c, 3, 57, 44
9, 215939, Note_on_c, 3, 57, 0
9, 216000, Note_on_c, 3, 51, 44
9, 216179, Note_on_c, 3, 51, 0
9, 216240, Note_on_c, 3, 54, 44
9, 216419, Note_on_c, 3, 54, 0
9, 216480, Note_on_c, 3, 57, 44
9, 216659, Note_on_c, 3, 57, 0
9, 216720, Note_on_c, 3, 60, 44
9, 216899, Note_on_c, 3, 60, 0
9, 216960, Note_on_c, 3, 62, 44
9, 217139, Note_on_c, 3, 62, 0
9, 217200, Note_on_c, 3, 59, 44
9, 217379, Note_on_c, 3, 59, 0
9, 217440, Note_on_c, 3, 56, 44
9, 217619, Note_on_c, 3, 56, 0
9, 217680, Note_on_c, 3, 59, 44
9, 217859, Note_on_c, 3, 59, 0
9, 217920, Note_on_c, 3, 53, 44
9, 218099, Note_on_c, 3, 53, 0
9, 218160, Note_on_c, 3, 56, 44
9, 218339, Note_on_c, 3, 56, 0
9, 218400, Note_on_c, 3, 59, 44
9, 218579, Note_on_c, 3, 59, 0
9, 218640, Note_on_c, 3, 62, 44
9, 218819, Note_on_c, 3, 62, 0
9, 218880, Note_on_c, 3, 64, 44
9, 219059, Note_on_c, 3, 64, 0
9, 219120, Note_on_c, 3, 61, 44
9, 219299, Note_on_c, 3, 61, 0
9, 219360, Note_on_c, 3, 58, 44
9, 219539, Note_on_c, 3, 58, 0
9, 219600, Note_on_c, 3, 61, 44
9, 219779, Note_on_c, 3, 61, 0
9, 219840, Note_on_c, 3, 55, 44
9, 220019, Note_on_c, 3, 55, 0
9, 220080, Note_on_c, 3, 58, 44
9, 220259, Note_on_c, 3, 58, 0
9, 220320, Note_on_c, 3, 61, 44
9, 220499, Note_on_c, 3, 61, 0
9, 220560, Note_on_c, 3, 64, 44
9, 220739, Note_on_c, 3, 64, 0
9, 220792, Control_c, 3, 11, 64
9, 220800, Note_on_c, 3, 66, 84
9, 220800, Control_c, 3, 11, 64
9, 220907, Control_c, 3, 11, 66
9, 221013, Control_c, 3, 11, 68
9, 221120, Control_c, 3, 11, 69
9, 221227, Control_c, 3, 11, 71
9, 221333, Control_c, 3, 11, 73
9, 221440, Control_c, 3, 11, 75
9, 221547, Control_c, 3, 11, 76
9, 221653, Control_c, 3, 11, 78
9, 221760, Control_c, 3, 11, 80
9, 221867, Control_c, 3, 11, 82
9, 221973, Control_c, 3, 11, 83
9, 222080, Control_c, 3, 11, 85
9, 222187, Control_c, 3, 11, 87
9, 222293, Control_c, 3, 11, 89
9, 222400, Control_c, 3, 11, 90
9, 222507, Control_c, 3, 11, 92
9, 222613, Control_c, 3, 11, 94
9, 222704, Note_on_c, 3, 66, 0
9, 222720, Note_on_c, 3, 65, 84
9, 222720, Control_c, 3, 11, 96
9, 222827, Control_c, 3, 11, 97
9, 222933, Control_c, 3, 11, 99
9, 223040, Control_c, 3, 11, 101
9, 223147, Control_c, 3, 11, 103
9, 223253, Control_c, 3, 11, 104
9, 223360, Control_c, 3, 11, 106
9, 223467, Control_c, 3, 11, 108
9, 223573, Control_c, 3, 11, 110
9, 223680, Control_c, 3, 11, 111
9, 223787, Control_c, 3, 11, 113
9, 223893, Control_c, 3, 11, 115
9, 224000, Control_c, 3, 11, 117
9, 224107, Control_c, 3, 11, 118
9, 224213, Control_c, 3, 11, 120
9, 224320, Control_c, 3, 11, 122
9, 224427, Control_c, 3, 11, 125
9, 224533, Control_c, 3, 11, 127
9, 224624, Note_on_c, 3, 65, 0
9, 224640, Note_on_c, 3, 58, 84
9, 224640, Note_on_c, 3, 46, 84
9, 226544, Note_on_c, 3, 58, 0
9, 226544, Note_on_c, 3, 46, 0
9, 226560, Note_on_c, 3, 51, 92
9, 226560, Note_on_c, 3, 63, 92
9, 227489, Note_on_c, 3, 51, 0
9, 227489, Note_on_c, 3, 63, 0
9, 227520, Note_on_c, 3, 53, 92
9, 227520, Note_on_c, 3, 65, 92
9, 228449, Note_on_c, 3, 53, 0
9, 228449, Note_on_c, 3, 65, 0
9, 228480, Note_on_c, 3, 58, 92
9, 228480, Note_on_c, 3, 46, 92
9, 230369, Note_on_c, 3, 58, 0
9, 230369, Note_on_c, 3, 46, 0
9, 230400, Note_on_c, 3, 51, 92
9, 230400, Note_on_c, 3, 55, 92
9, 231329, Note_on_c, 3, 51, 0
9, 231329, Note_on_c, 3, 55, 0
9, 231360, Note_on_c, 3, 57, 92
9, 231360, Note_on_c, 3, 53, 92
9, 232289, Note_on_c, 3, 57, 0
9, 232289, Note_on_c, 3, 53, 0
9, 232320, Note_on_c, 3, 58, 92
9, 232320, Note_on_c, 3, 46, 92
9, 233249, Note_on_c, 3, 58, 0
9, 233249, Note_on_c, 3, 46, 0
9, 233280, Note_on_c, 3, 45, 92
9, 233280, Note_on_c, 3, 61, 92
9, 234209, Note_on_c, 3, 45, 0
9, 234209, Note_on_c, 3, 61, 0
9, 234240, Note_on_c, 3, 62, 92
9, 234240, Note_on_c, 3, 50, 92
9, 235169, Note_on_c, 3, 62, 0
9, 235169, Note_on_c, 3, 50, 0
9, 235200, Note_on_c, 3, 48, 84
9, 235200, Note_on_c, 3, 60, 84
9, 235424, Note_on_c, 3, 48, 0
9, 235424, Note_on_c, 3, 60, 0
9, 235440, Note_on_c, 3, 60, 84
9, 235440, Note_on_c, 3, 48, 84
9, 235664, Note_on_c, 3, 60, 0
9, 235664, Note_on_c, 3, 48, 0
9, 235680, Note_on_c, 3, 48, 84
9, 235680, Note_on_c, 3, 60, 84
9, 235904, Note_on_c, 3, 48, 0
9, 235904, Note_on_c, 3, 60, 0
9, 235920, Note_on_c, 3, 60, 84
9, 235920, Note_on_c, 3, 48, 84
9, 236144, Note_on_c, 3, 60, 0
9, 236144, Note_on_c, 3, 48, 0
9, 236160, Note_on_c, 3, 60, 84
9, 236160, Note_on_c, 3, 48, 84
9, 236384, Note_on_c, 3, 60, 0
9, 236384, Note_on_c, 3, 48, 0
9, 236400, Note_on_c, 3, 48, 84
9, 236400, Note_on_c, 3, 60, 84
9, 236624, Note_on_c, 3, 48, 0
9, 236624, Note_on_c, 3, 60, 0
9, 236640, Note_on_c, 3, 60, 84
9, 236640, Note_on_c, 3, 48, 84
9, 236864, Note_on_c, 3, 60, 0
9, 236864, Note_on_c, 3, 48, 0
9, 236880, Note_on_c, 3, 60, 84
9, 236880, Note_on_c, 3, 48, 84
9, 237104, Note_on_c, 3, 60, 0
9, 237104, Note_on_c, 3, 48, 0
9, 237120, Note_on_c, 3, 48, 84
9, 237120, Note_on_c, 3, 60, 84
9, 237344, Note_on_c, 3, 48, 0
9, 237344, Note_on_c, 3, 60, 0
9, 237360, Note_on_c, 3, 60, 84
9, 237360, Note_on_c, 3, 48, 84
9, 237584, Note_on_c, 3, 60, 0
9, 237584, Note_on_c, 3, 48, 0
9, 237600, Note_on_c, 3, 60, 84
9, 237600, Note_on_c, 3, 48, 84
9, 237824, Note_on_c, 3, 60, 0
9, 237824, Note_on_c, 3, 48, 0
9, 237840, Note_on_c, 3, 60, 84
9, 237840, Note_on_c, 3, 48, 84
9, 238064, Note_on_c, 3, 60, 0
9, 238064, Note_on_c, 3, 48, 0
9, 238080, Note_on_c, 3, 60, 84
9, 238080, Note_on_c, 3, 48, 84
9, 238304, Note_on_c, 3, 60, 0
9, 238304, Note_on_c, 3, 48, 0
9, 238320, Note_on_c, 3, 52, 92
9, 238320, Note_on_c, 3, 55, 92
9, 238769, Note_on_c, 3, 52, 0
9, 238769, Note_on_c, 3, 55, 0
9, 238800, Note_on_c, 3, 56, 84
9, 238800, Note_on_c, 3, 53, 84
9, 239264, Note_on_c, 3, 56, 0
9, 239264, Note_on_c, 3, 53, 0
9, 239280, Note_on_c, 3, 55, 84
9, 239280, Note_on_c, 3, 58, 84
9, 239744, Note_on_c, 3, 55, 0
9, 239744, Note_on_c, 3, 58, 0
9, 239760, Note_on_c, 3, 53, 84
9, 239760, Note_on_c, 3, 50, 84
9, 240224, Note_on_c, 3, 53, 0
9, 240224, Note_on_c, 3, 50, 0
9, 240240, Note_on_c, 3, 52, 84
9, 240240, Note_on_c, 3, 55, 84
9, 240704, Note_on_c, 3, 52, 0
9, 240704, Note_on_c, 3, 55, 0
9, 240720, Note_on_c, 3, 56, 84
9, 240720, Note_on_c, 3, 53, 84
9, 241184, Note_on_c, 3, 56, 0
9, 241184, Note_on_c, 3, 53, 0
9, 241200, Note_on_c, 3, 56, 92
9, 241200, Note_on_c, 3, 53, 92
9, 241679, Note_on_c, 3, 56, 0
9, 241679, Note_on_c, 3, 53, 0
9, 241680, Note_on_c, 3, 55, 84
9, 241680, Note_on_c, 3, 52, 84
9, 241904, Note_on_c, 3, 55, 0
9, 241904, Note_on_c, 3, 52, 0
9, 241920, Note_on_c, 3, 55, 84
9, 241920, Note_on_c, 3, 52, 84
9, 242099, Note_on_c, 3, 55, 0
9, 242099, Note_on_c, 3, 52, 0
9, 242160, Note_on_c, 3, 58, 84
9, 242160, Note_on_c, 3, 64, 84
9, 242624, Note_on_c, 3, 58, 0
9, 242624, Note_on_c, 3, 64, 0
9, 242640, Note_on_c, 3, 56, 84
9, 242640, Note_on_c, 3, 65, 84
9, 243104, Note_on_c, 3, 56, 0
9, 243104, Note_on_c, 3, 65, 0
9, 243120, Note_on_c, 3, 55, 84
9, 243120, Note_on_c, 3, 64, 84
9, 243584, Note_on_c, 3, 55, 0
9, 243584, Note_on_c, 3, 64, 0
9, 243600, Note_on_c, 3, 62, 84
9, 243600, Note_on_c, 3, 56, 84
9, 244064, Note_on_c, 3, 62, 0
9, 244064, Note_on_c, 3, 56, 0
9, 244080, Note_on_c, 3, 64, 84
9, 244080, Note_on_c, 3, 55, 84
9, 244544, Note_on_c, 3, 64, 0
9, 244544, Note_on_c, 3, 55, 0
9, 244560, Note_on_c, 3, 65, 84
9, 244560, Note_on_c, 3, 53, 84
9, 245024, Note_on_c, 3, 65, 0
9, 245024, Note_on_c, 3, 53, 0
9, 245040, Note_on_c, 3, 65, 92
9, 245040, Note_on_c, 3, 53, 92
9, 245519, Note_on_c, 3, 65, 0
9, 245519, Note_on_c, 3, 53, 0
9, 245520, Note_on_c, 3, 48, 84
9, 245520, Note_on_c, 3, 64, 84
9, 245744, Note_on_c, 3, 48, 0
9, 245744, Note_on_c, 3, 64, 0
9, 245760, Note_on_c, 3, 64, 84
9, 245760, Note_on_c, 3, 48, 84
9, 245999, Note_on_c, 3, 64, 0
9, 245999, Note_on_c, 3, 48, 0
9, 249600, Note_on_c, 3, 60, 52
9, 249719, Note_on_c, 3, 60, 0
9, 249720, Note_on_c, 3, 57, 52
9, 249839, Note_on_c, 3, 57, 0
9, 249840, Note_on_c, 3, 58, 52
9, 249959, Note_on_c, 3, 58, 0
9, 249960, Note_on_c, 3, 55, 52
9, 250064, Note_on_c, 3, 55, 0
9, 250080, Note_on_c, 3, 53, 52
9, 250259, Note_on_c, 3, 53, 0
9, 250320, Note_on_c, 3, 48, 52
9, 250499, Note_on_c, 3, 48, 0
9, 250560, Note_on_c, 3, 53, 52
9, 250739, Note_on_c, 3, 53, 0
9, 250800, Note_on_c, 3, 55, 52
9, 250979, Note_on_c, 3, 55, 0
9, 251040, Note_on_c, 3, 57, 52
9, 251219, Note_on_c, 3, 57, 0
9, 251280, Note_on_c, 3, 58, 52
9, 251459, Note_on_c, 3, 58, 0
9, 251520, Note_on_c, 3, 60, 52
9, 251759, Note_on_c, 3, 60, 0
9, 259200, Note_on_c, 3, 61, 52
9, 259200, Note_on_c, 3, 64, 52
9, 260159, Note_on_c, 3, 61, 0
9, 260159, Note_on_c, 3, 64, 0
9, 260160, Note_on_c, 3, 65, 52
9, 260160, Note_on_c, 3, 62, 52
9, 261119, Note_on_c, 3, 65, 0
9, 261119, Note_on_c, 3, 62, 0
9, 261120, Note_on_c, 3, 64, 52
9, 261120, Note_on_c, 3, 67, 52
9, 262079, Note_on_c, 3, 64, 0
9, 262079, Note_on_c, 3, 67, 0
9, 262080, Note_on_c, 3, 65, 52
9, 262080, Note_on_c, 3, 62, 52
9, 263024, Note_on_c, 3, 65, 0
9, 263024, Note_on_c, 3, 62, 0
9, 263040, Note_on_c, 3, 57, 52
9, 263279, Note_on_c, 3, 57, 0
9, 273600, Note_on_c, 3, 60, 76
9, 273600, Note_on_c, 3, 64, 76
9, 273959, Note_on_c, 3, 60, 0
9, 273959, Note_on_c, 3, 64, 0
9, 274080, Note_on_c, 3, 64, 76
9, 274080, Note_on_c, 3, 58, 76
9, 274439, Note_on_c, 3, 64, 0
9, 274439, Note_on_c, 3, 58, 0
9, 274560, Note_on_c, 3, 64, 76
9, 274560, Note_on_c, 3, 55, 76
9, 274919, Note_on_c, 3, 64, 0
9, 274919, Note_on_c, 3, 55, 0
9, 275040, Note_on_c, 3, 52, 76
9, 275040, Note_on_c, 3, 64, 76
9, 275399, Note_on_c, 3, 52, 0
9, 275399, Note_on_c, 3, 64, 0
9, 275520, Note_on_c, 3, 64, 76
9, 275520, Note_on_c, 3, 48, 76
9, 275879, Note_on_c, 3, 64, 0
9, 275879, Note_on_c, 3, 48, 0
9, 276000, Note_on_c, 3, 46, 76
9, 276000, Note_on_c, 3, 64, 76
9, 276359, Note_on_c, 3, 46, 0
9, 276359, Note_on_c, 3, 64, 0
9, 276480, Note_on_c, 3, 65, 76
9, 276480, Note_on_c, 3, 45, 76
9, 276719, Note_on_c, 3, 65, 0
9, 276719, Note_on_c, 3, 45, 0
9, 277440, Note_on_c, 3, 58, 76
9, 277440, Note_on_c, 3, 46, 76
9, 277679, Note_on_c, 3, 58, 0
9, 277679, Note_on_c, 3, 46, 0
9, 278400, Note_on_c, 3, 48, 76
9, 278400, Note_on_c, 3, 60, 76
9, 278639, Note_on_c, 3, 48, 0
9, 278639, Note_on_c, 3, 60, 0
9, 279120, Note_on_c, 3, 60, 76
9, 279120, Note_on_c, 3, 48, 76
9, 279344, Note_on_c, 3, 60, 0
9, 279344, Note_on_c, 3, 48, 0
9, 279360, Note_on_c, 3, 58, 76
9, 279360, Note_on_c, 3, 46, 76
9, 279584, Note_on_c, 3, 58, 0
9, 279584, Note_on_c, 3, 46, 0
9, 279600, Note_on_c, 3, 58, 76
9, 279600, Note_on_c, 3, 46, 76
9, 279824, Note_on_c, 3, 58, 0
9, 279824, Note_on_c, 3, 46, 0
9, 279840, Note_on_c, 3, 58, 76
9, 279840, Note_on_c, 3, 46, 76
9, 280064, Note_on_c, 3, 58, 0
9, 280064, Note_on_c, 3, 46, 0
9, 280080, Note_on_c, 3, 58, 76
9, 280080, Note_on_c, 3, 46, 76
9, 280304, Note_on_c, 3, 58, 0
9, 280304, Note_on_c, 3, 46, 0
9, 280320, Note_on_c, 3, 57, 76
9, 280320, Note_on_c, 3, 45, 76
9, 280559, Note_on_c, 3, 57, 0
9, 280559, Note_on_c, 3, 45, 0
9, 280800, Note_on_c, 3, 46, 76
9, 280800, Note_on_c, 3, 58, 76
9, 281039, Note_on_c, 3, 46, 0
9, 281039, Note_on_c, 3, 58, 0
9, 281280, Note_on_c, 3, 60, 76
9, 281280, Note_on_c, 3, 48, 76
9, 281519, Note_on_c, 3, 60, 0
9, 281519, Note_on_c, 3, 48, 0
9, 281760, Note_on_c, 3, 36, 76
9, 281760, Note_on_c, 3, 48, 76
9, 281999, Note_on_c, 3, 36, 0
9, 281999, Note_on_c, 3, 48, 0
9, 283200, Note_on_c, 3, 57, 48
9, 283439, Note_on_c, 3, 57, 0
9, 283440, Note_on_c, 3, 58, 48
9, 283679, Note_on_c, 3, 58, 0
9, 283680, Note_on_c, 3, 60, 48
9, 283919, Note_on_c, 3, 60, 0
9, 283920, Note_on_c, 3, 48, 48
9, 284144, Note_on_c, 3, 48, 0
9, 284160, Note_on_c, 3, 53, 48
9, 284879, Note_on_c, 3, 53, 0
9, 284880, Note_on_c, 3, 55, 48
9, 285119, Note_on_c, 3, 55, 0
9, 285120, Note_on_c, 3, 57, 48
9, 285359, Note_on_c, 3, 57, 0
9, 285360, Note_on_c, 3, 53, 48
9, 285599, Note_on_c, 3, 53, 0
9, 285600, Note_on_c, 3, 57, 48
9, 285839, Note_on_c, 3, 57, 0
9, 285840, Note_on_c, 3, 58, 48
9, 286064, Note_on_c, 3, 58, 0
9, 286080, Note_on_c, 3, 60, 48
9, 286799, Note_on_c, 3, 60, 0
9, 286800, Note_on_c, 3, 62, 48
9, 287039, Note_on_c, 3, 62, 0
9, 287040, Note_on_c, 3, 64, 48
9, 287279, Note_on_c, 3, 64, 0
9, 287280, Note_on_c, 3, 65, 48
9, 287519, Note_on_c, 3, 65, 0
9, 287520, Note_on_c, 3, 67, 48
9, 287759, Note_on_c, 3, 67, 0
9, 287760, Note_on_c, 3, 65, 48
9, 287984, Note_on_c, 3, 65, 0
9, 288000, Note_on_c, 3, 64, 48
9, 288719, Note_on_c, 3, 64, 0
9, 288720, Note_on_c, 3, 62, 48
9, 288959, Note_on_c, 3, 62, 0
9, 288960, Note_on_c, 3, 60, 48
9, 289199, Note_on_c, 3, 60, 0
9, 289200, Note_on_c, 3, 62, 48
9, 289439, Note_on_c, 3, 62, 0
9, 289440, Note_on_c, 3, 58, 48
9, 289679, Note_on_c, 3, 58, 0
9, 289680, Note_on_c, 3, 55, 48
9, 289904, Note_on_c, 3, 55, 0
9, 289920, Note_on_c, 3, 53, 76
9, 290144, Note_on_c, 3, 53, 0
9, 290160, Note_on_c, 3, 60, 76
9, 290160, Note_on_c, 3, 48, 76
9, 290384, Note_on_c, 3, 60, 0
9, 290384, Note_on_c, 3, 48, 0
9, 290400, Note_on_c, 3, 60, 76
9, 290400, Note_on_c, 3, 48, 76
9, 290624, Note_on_c, 3, 60, 0
9, 290624, Note_on_c, 3, 48, 0
9, 290640, Note_on_c, 3, 48, 76
9, 290640, Note_on_c, 3, 60, 76
9, 290864, Note_on_c, 3, 48, 0
9, 290864, Note_on_c, 3, 60, 0
9, 290880, Note_on_c, 3, 60, 76
9, 290880, Note_on_c, 3, 48, 76
9, 291584, Note_on_c, 3, 60, 0
9, 291584, Note_on_c, 3, 48, 0
9, 291600, Note_on_c, 3, 48, 76
9, 291600, Note_on_c, 3, 60, 76
9, 291824, Note_on_c, 3, 48, 0
9, 291824, Note_on_c, 3, 60, 0
9, 291840, Note_on_c, 3, 60, 76
9, 291840, Note_on_c, 3, 48, 76
9, 292064, Note_on_c, 3, 60, 0
9, 292064, Note_on_c, 3, 48, 0
9, 292080, Note_on_c, 3, 60, 76
9, 292080, Note_on_c, 3, 48, 76
9, 292304, Note_on_c, 3, 60, 0
9, 292304, Note_on_c, 3, 48, 0
9, 292320, Note_on_c, 3, 60, 76
9, 292320, Note_on_c, 3, 48, 76
9, 292544, Note_on_c, 3, 60, 0
9, 292544, Note_on_c, 3, 48, 0
9, 292560, Note_on_c, 3, 60, 76
9, 292560, Note_on_c, 3, 48, 76
9, 292784, Note_on_c, 3, 60, 0
9, 292784, Note_on_c, 3, 48, 0
9, 292800, Note_on_c, 3, 48, 76
9, 292800, Note_on_c, 3, 60, 76
9, 293504, Note_on_c, 3, 48, 0
9, 293504, Note_on_c, 3, 60, 0
9, 293520, Note_on_c, 3, 60, 76
9, 293520, Note_on_c, 3, 48, 76
9, 293744, Note_on_c, 3, 60, 0
9, 293744, Note_on_c, 3, 48, 0
9, 293760, Note_on_c, 3, 48, 76
9, 293760, Note_on_c, 3, 60, 76
9, 293984, Note_on_c, 3, 48, 0
9, 293984, Note_on_c, 3, 60, 0
9, 294000, Note_on_c, 3, 48, 76
9, 294000, Note_on_c, 3, 60, 76
9, 294224, Note_on_c, 3, 48, 0
9, 294224, Note_on_c, 3, 60, 0
9, 294240, Note_on_c, 3, 60, 76
9, 294240, Note_on_c, 3, 48, 76
9, 294464, Note_on_c, 3, 60, 0
9, 294464, Note_on_c, 3, 48, 0
9, 294480, Note_on_c, 3, 60, 76
9, 294480, Note_on_c, 3, 48, 76
9, 294704, Note_on_c, 3, 60, 0
9, 294704, Note_on_c, 3, 48, 0
9, 294720, Note_on_c, 3, 48, 76
9, 294720, Note_on_c, 3, 60, 76
9, 295424, Note_on_c, 3, 48, 0
9, 295424, Note_on_c, 3, 60, 0
9, 295440, Note_on_c, 3, 60, 76
9, 295440, Note_on_c, 3, 48, 76
9, 295664, Note_on_c, 3, 60, 0
9, 295664, Note_on_c, 3, 48, 0
9, 295680, Note_on_c, 3, 60, 76
9, 295680, Note_on_c, 3, 48, 76
9, 295904, Note_on_c, 3, 60, 0
9, 295904, Note_on_c, 3, 48, 0
9, 295920, Note_on_c, 3, 48, 76
9, 295920, Note_on_c, 3, 60, 76
9, 296144, Note_on_c, 3, 48, 0
9, 296144, Note_on_c, 3, 60, 0
9, 296160, Note_on_c, 3, 60, 76
9, 296160, Note_on_c, 3, 48, 76
9, 296384, Note_on_c, 3, 60, 0
9, 296384, Note_on_c, 3, 48, 0
9, 296400, Note_on_c, 3, 48, 76
9, 296400, Note_on_c, 3, 60, 76
9, 296624, Note_on_c, 3, 48, 0
9, 296624, Note_on_c, 3, 60, 0
9, 296640, Note_on_c, 3, 60, 76
9, 296640, Note_on_c, 3, 48, 76
9, 297599, Note_on_c, 3, 60, 0
9, 297599, Note_on_c, 3, 48, 0
9, 297840, Note_on_c, 3, 62, 52
9, 298079, Note_on_c, 3, 62, 0
9, 298080, Note_on_c, 3, 58, 52
9, 298319, Note_on_c, 3, 58, 0
9, 298320, Note_on_c, 3, 55, 52
9, 298544, Note_on_c, 3, 55, 0
9, 298560, Note_on_c, 3, 52, 52
9, 298799, Note_on_c, 3, 52, 0
9, 301440, Note_on_c, 3, 53, 84
9, 301440, Note_on_c, 3, 41, 84
9, 301679, Note_on_c, 3, 53, 0
9, 301679, Note_on_c, 3, 41, 0
9, 302160, Note_on_c, 3, 50, 84
9, 302384, Note_on_c, 3, 50, 0
9, 302400, Note_on_c, 3, 46, 84
9, 302639, Note_on_c, 3, 46, 0
9, 302880, Note_on_c, 3, 48, 84
9, 303119, Note_on_c, 3, 48, 0
9, 305280, Note_on_c, 3, 41, 84
9, 305280, Note_on_c, 3, 53, 84
9, 305519, Note_on_c, 3, 41, 0
9, 305519, Note_on_c, 3, 53, 0
9, 306000, Note_on_c, 3, 50, 84
9, 306224, Note_on_c, 3, 50, 0
9, 306240, Note_on_c, 3, 46, 84
9, 306479, Note_on_c, 3, 46, 0
9, 306720, Note_on_c, 3, 48, 84
9, 306959, Note_on_c, 3, 48, 0
9, 307680, Control_c, 3, 11, 80
9, 308160, Note_on_c, 3, 59, 76
9, 308160, Control_c, 3, 11, 80
9, 308213, Control_c, 3, 11, 83
9, 308267, Control_c, 3, 11, 85
9, 308320, Control_c, 3, 11, 88
9, 308373, Control_c, 3, 11, 90
9, 308427, Control_c, 3, 11, 93
9, 308480, Control_c, 3, 11, 96
9, 308533, Control_c, 3, 11, 98
9, 308587, Control_c, 3, 11, 101
9, 308640, Control_c, 3, 11, 104
9, 308693, Control_c, 3, 11, 106
9, 308747, Control_c, 3, 11, 109
9, 308800, Control_c, 3, 11, 111
9, 308853, Control_c, 3, 11, 114
9, 308907, Control_c, 3, 11, 117
9, 308960, Control_c, 3, 11, 119
9, 309013, Control_c, 3, 11, 122
9, 309067, Control_c, 3, 11, 127
9, 309104, Note_on_c, 3, 59, 0
9, 309120, Note_on_c, 3, 59, 76
9, 310064, Note_on_c, 3, 59, 0
9, 310080, Note_on_c, 3, 60, 76
9, 311024, Note_on_c, 3, 60, 0
9, 311040, Note_on_c, 3, 62, 76
9, 311984, Note_on_c, 3, 62, 0
9, 312000, Note_on_c, 3, 64, 76
9, 312944, Note_on_c, 3, 64, 0
9, 312960, Note_on_c, 3, 65, 84
9, 312960, Note_on_c, 3, 53, 84
9, 313184, Note_on_c, 3, 65, 0
9, 313184, Note_on_c, 3, 53, 0
9, 313200, Note_on_c, 3, 49, 84
9, 313200, Note_on_c, 3, 61, 84
9, 314864, Note_on_c, 3, 49, 0
9, 314864, Note_on_c, 3, 61, 0
9, 314880, Note_on_c, 3, 60, 84
9, 314880, Note_on_c, 3, 48, 84
9, 315824, Note_on_c, 3, 60, 0
9, 315824, Note_on_c, 3, 48, 0
9, 315840, Note_on_c, 3, 60, 84
9, 315840, Note_on_c, 3, 48, 84
9, 316784, Note_on_c, 3, 60, 0
9, 316784, Note_on_c, 3, 48, 0
9, 316800, Note_on_c, 3, 53, 84
9, 317039, Note_on_c, 3, 53, 0
9, 319920, Note_on_c, 3, 58, 76
9, 319920, Note_on_c, 3, 55, 76
9, 320384, Note_on_c, 3, 58, 0
9, 320384, Note_on_c, 3, 55, 0
9, 320400, Note_on_c, 3, 58, 76
9, 320400, Note_on_c, 3, 55, 76
9, 320579, Note_on_c, 3, 58, 0
9, 320579, Note_on_c, 3, 55, 0
9, 320640, Note_on_c, 3, 53, 76
9, 320640, Note_on_c, 3, 57, 76
9, 320819, Note_on_c, 3, 53, 0
9, 320819, Note_on_c, 3, 57, 0
9, 323760, Note_on_c, 3, 58, 76
9, 323760, Note_on_c, 3, 55, 76
9, 324224, Note_on_c, 3, 58, 0
9, 324224, Note_on_c, 3, 55, 0
9, 324240, Note_on_c, 3, 55, 76
9, 324240, Note_on_c, 3, 58, 76
9, 324464, Note_on_c, 3, 55, 0
9, 324464, Note_on_c, 3, 58, 0
9, 324480, Note_on_c, 3, 57, 76
9, 324480, Note_on_c, 3, 53, 76
9, 324719, Note_on_c, 3, 57, 0
9, 324719, Note_on_c, 3, 53, 0
9, 324960, Note_on_c, 3, 52, 76
9, 324960, Note_on_c, 3, 55, 76
9, 325199, Note_on_c, 3, 52, 0
9, 325199, Note_on_c, 3, 55, 0
9, 325440, Note_on_c, 3, 53, 76
9, 325440, Note_on_c, 3, 57, 76
9, 325679, Note_on_c, 3, 53, 0
9, 325679, Note_on_c, 3, 57, 0
9, 325920, Note_on_c, 3, 58, 76
9, 325920, Note_on_c, 3, 55, 76
9, 326159, Note_on_c, 3, 58, 0
9, 326159, Note_on_c, 3, 55, 0
9, 326400, Note_on_c, 3, 57, 84
9, 326400, Note_on_c, 3, 60, 84
9, 326460, Control_c, 3, 11, 112
9, 328319, Note_on_c, 3, 57, 0
9, 328319, Note_on_c, 3, 60, 0
9, 328320, Note_on_c, 3, 60, 84
9, 328320, Note_on_c, 3, 57, 84
9, 330209, Note_on_c, 3, 60, 0
9, 330209, Note_on_c, 3, 57, 0
9, 330232, Control_c, 3, 11, 127
9, 330240, Note_on_c, 3, 58, 84
9, 330240, Note_on_c, 3, 55, 84
9, 330300, Control_c, 3, 11, 112
9, 332159, Note_on_c, 3, 58, 0
9, 332159, Note_on_c, 3, 55, 0
9, 332160, Note_on_c, 3, 58, 84
9, 332160, Note_on_c, 3, 55, 84
9, 334049, Note_on_c, 3, 58, 0
9, 334049, Note_on_c, 3, 55, 0
9, 334072, Control_c, 3, 11, 127
9, 334080, Note_on_c, 3, 53, 84
9, 334080, Note_on_c, 3, 57, 84
9, 335969, Note_on_c, 3, 53, 0
9, 335969, Note_on_c, 3, 57, 0
9, 336000, Note_on_c, 3, 46, 84
9, 336000, Note_on_c, 3, 55, 84
9, 337889, Note_on_c, 3, 46, 0
9, 337889, Note_on_c, 3, 55, 0
9, 337920, Note_on_c, 3, 53, 84
9, 337920, Note_on_c, 3, 48, 84
9, 339809, Note_on_c, 3, 53, 0
9, 339809, Note_on_c, 3, 48, 0
9, 339840, Note_on_c, 3, 48, 84
9, 339840, Note_on_c, 3, 52, 84
9, 341729, Note_on_c, 3, 48, 0
9, 341729, Note_on_c, 3, 52, 0
9, 341760, Note_on_c, 3, 49, 52
9, 341760, Note_on_c, 3, 52, 52
9, 341999, Note_on_c, 3, 49, 0
9, 341999, Note_on_c, 3, 52, 0
9, 359040, Note_on_c, 3, 66, 52
9, 359159, Note_on_c, 3, 66, 0
9, 359280, Note_on_c, 3, 62, 52
9, 359399, Note_on_c, 3, 62, 0
9, 359520, Note_on_c, 3, 57, 52
9, 359639, Note_on_c, 3, 57, 0
9, 359760, Note_on_c, 3, 62, 52
9, 359879, Note_on_c, 3, 62, 0
9, 360000, Note_on_c, 3, 54, 52
9, 360119, Note_on_c, 3, 54, 0
9, 360240, Note_on_c, 3, 57, 52
9, 360359, Note_on_c, 3, 57, 0
9, 360480, Note_on_c, 3, 50, 52
9, 360599, Note_on_c, 3, 50, 0
9, 360720, Note_on_c, 3, 54, 52
9, 360839, Note_on_c, 3, 54, 0
9, 360960, Note_on_c, 3, 47, 52
9, 361079, Note_on_c, 3, 47, 0
9, 361200, Note_on_c, 3, 55, 52
9, 361319, Note_on_c, 3, 55, 0
9, 361440, Note_on_c, 3, 52, 52
9, 361559, Note_on_c, 3, 52, 0
9, 361680, Note_on_c, 3, 50, 52
9, 361799, Note_on_c, 3, 50, 0
9, 361920, Note_on_c, 3, 49, 52
9, 362039, Note_on_c, 3, 49, 0
9, 362160, Note_on_c, 3, 57, 52
9, 362279, Note_on_c, 3, 57, 0
9, 362400, Note_on_c, 3, 55, 52
9, 362519, Note_on_c, 3, 55, 0
9, 362640, Note_on_c, 3, 52, 52
9, 362759, Note_on_c, 3, 52, 0
9, 362880, Note_on_c, 3, 50, 52
9, 363119, Note_on_c, 3, 50, 0
9, 363360, Note_on_c, 3, 55, 52
9, 364319, Note_on_c, 3, 55, 0
9, 364320, Note_on_c, 3, 57, 52
9, 364559, Note_on_c, 3, 57, 0
9, 364560, Note_on_c, 3, 58, 52
9, 364751, Note_on_c, 3, 58, 0
9, 364760, Note_on_c, 3, 62, 52
9, 364799, Note_on_c, 3, 62, 0
9, 364800, Note_on_c, 3, 60, 52
9, 365279, Note_on_c, 3, 60, 0
9, 365280, Note_on_c, 3, 58, 52
9, 365519, Note_on_c, 3, 58, 0
9, 365520, Note_on_c, 3, 60, 52
9, 365744, Note_on_c, 3, 60, 0
9, 365760, Note_on_c, 3, 57, 52
9, 366239, Note_on_c, 3, 57, 0
9, 366240, Note_on_c, 3, 62, 52
9, 366704, Note_on_c, 3, 62, 0
9, 366720, Note_on_c, 3, 55, 52
9, 366959, Note_on_c, 3, 55, 0
9, 370560, Note_on_c, 3, 67, 52
9, 370679, Note_on_c, 3, 67, 0
9, 370800, Note_on_c, 3, 63, 52
9, 370919, Note_on_c, 3, 63, 0
9, 371040, Note_on_c, 3, 58, 52
9, 371159, Note_on_c, 3, 58, 0
9, 371280, Note_on_c, 3, 63, 52
9, 371399, Note_on_c, 3, 63, 0
9, 371520, Note_on_c, 3, 55, 52
9, 371639, Note_on_c, 3, 55, 0
9, 371760, Note_on_c, 3, 58, 52
9, 371879, Note_on_c, 3, 58, 0
9, 372000, Note_on_c, 3, 51, 52
9, 372119, Note_on_c, 3, 51, 0
9, 372240, Note_on_c, 3, 55, 52
9, 372359, Note_on_c, 3, 55, 0
9, 372480, Note_on_c, 3, 48, 52
9, 372599, Note_on_c, 3, 48, 0
9, 372720, Note_on_c, 3, 56, 52
9, 372839, Note_on_c, 3, 56, 0
9, 372960, Note_on_c, 3, 53, 52
9, 373079, Note_on_c, 3, 53, 0
9, 373200, Note_on_c, 3, 51, 52
9, 373319, Note_on_c, 3, 51, 0
9, 373440, Note_on_c, 3, 50, 52
9, 373559, Note_on_c, 3, 50, 0
9, 373680, Note_on_c, 3, 58, 52
9, 373799, Note_on_c, 3, 58, 0
9, 373920, Note_on_c, 3, 56, 52
9, 374039, Note_on_c, 3, 56, 0
9, 374160, Note_on_c, 3, 53, 52
9, 374279, Note_on_c, 3, 53, 0
9, 374400, Note_on_c, 3, 51, 52
9, 374639, Note_on_c, 3, 51, 0
9, 374880, Control_c, 3, 11, 64
9, 375120, Note_on_c, 3, 67, 84
9, 375120, Note_on_c, 3, 63, 84
9, 375299, Note_on_c, 3, 67, 0
9, 375299, Note_on_c, 3, 63, 0
9, 375360, Note_on_c, 3, 63, 84
9, 375360, Control_c, 3, 11, 64
9, 375360, Note_on_c, 3, 60, 84
9, 375480, Control_c, 3, 11, 67
9, 375539, Note_on_c, 3, 63, 0
9, 375539, Note_on_c, 3, 60, 0
9, 375600, Control_c, 3, 11, 69
9, 375600, Note_on_c, 3, 67, 84
9, 375600, Note_on_c, 3, 63, 84
9, 375720, Control_c, 3, 11, 72
9, 375779, Note_on_c, 3, 67, 0
9, 375779, Note_on_c, 3, 63, 0
9, 375840, Control_c, 3, 11, 75
9, 375960, Control_c, 3, 11, 77
9, 376080, Control_c, 3, 11, 80
9, 376080, Note_on_c, 3, 60, 84
9, 376080, Note_on_c, 3, 63, 84
9, 376200, Control_c, 3, 11, 82
9, 376259, Note_on_c, 3, 60, 0
9, 376259, Note_on_c, 3, 63, 0
9, 376320, Control_c, 3, 11, 85
9, 376320, Note_on_c, 3, 56, 84
9, 376320, Note_on_c, 3, 60, 84
9, 376440, Control_c, 3, 11, 88
9, 376499, Note_on_c, 3, 56, 0
9, 376499, Note_on_c, 3, 60, 0
9, 376560, Note_on_c, 3, 65, 84
9, 376560, Control_c, 3, 11, 90
9, 376560, Note_on_c, 3, 60, 84
9, 376680, Control_c, 3, 11, 93
9, 376739, Note_on_c, 3, 65, 0
9, 376739, Note_on_c, 3, 60, 0
9, 376800, Control_c, 3, 11, 96
9, 376920, Control_c, 3, 11, 98
9, 377040, Note_on_c, 3, 60, 84
9, 377040, Control_c, 3, 11, 101
9, 377040, Note_on_c, 3, 56, 84
9, 377160, Control_c, 3, 11, 103
9, 377219, Note_on_c, 3, 60, 0
9, 377219, Note_on_c, 3, 56, 0
9, 377280, Note_on_c, 3, 53, 84
9, 377280, Note_on_c, 3, 58, 84
9, 377280, Control_c, 3, 11, 106
9, 377400, Control_c, 3, 11, 109
9, 377459, Note_on_c, 3, 53, 0
9, 377459, Note_on_c, 3, 58, 0
9, 377520, Note_on_c, 3, 62, 84
9, 377520, Note_on_c, 3, 58, 84
9, 377520, Control_c, 3, 11, 111
9, 377640, Control_c, 3, 11, 114
9, 377699, Note_on_c, 3, 62, 0
9, 377699, Note_on_c, 3, 58, 0
9, 377760, Control_c, 3, 11, 117
9, 377880, Control_c, 3, 11, 119
9, 378000, Control_c, 3, 11, 122
9, 378000, Note_on_c, 3, 58, 84
9, 378000, Note_on_c, 3, 62, 84
9, 378120, Control_c, 3, 11, 127
9, 378179, Note_on_c, 3, 58, 0
9, 378179, Note_on_c, 3, 62, 0
9, 378240, Note_on_c, 3, 51, 84
9, 378240, Note_on_c, 3, 63, 84
9, 380144, Note_on_c, 3, 51, 0
9, 380144, Note_on_c, 3, 63, 0
9, 380160, Note_on_c, 3, 51, 84
9, 380160, Note_on_c, 3, 63, 84
9, 381104, Note_on_c, 3, 51, 0
9, 381104, Note_on_c, 3, 63, 0
9, 381120, Note_on_c, 3, 51, 84
9, 381120, Note_on_c, 3, 63, 84
9, 381359, Note_on_c, 3, 51, 0
9, 381359, Note_on_c, 3, 63, 0
9, 381600, Note_on_c, 3, 63, 84
9, 381600, Note_on_c, 3, 51, 84
9, 381839, Note_on_c, 3, 63, 0
9, 381839, Note_on_c, 3, 51, 0
9, 382080, Note_on_c, 3, 51, 84
9, 382080, Note_on_c, 3, 63, 84
9, 382319, Note_on_c, 3, 51, 0
9, 382319, Note_on_c, 3, 63, 0
9, 385920, Note_on_c, 3, 62, 84
9, 385920, Note_on_c, 3, 59, 84
9, 387824, Note_on_c, 3, 62, 0
9, 387824, Note_on_c, 3, 59, 0
9, 387840, Note_on_c, 3, 62, 84
9, 387840, Note_on_c, 3, 59, 84
9, 388784, Note_on_c, 3, 62, 0
9, 388784, Note_on_c, 3, 59, 0
9, 388800, Note_on_c, 3, 59, 84
9, 388800, Note_on_c, 3, 62, 84
9, 389039, Note_on_c, 3, 59, 0
9, 389039, Note_on_c, 3, 62, 0
9, 389280, Note_on_c, 3, 59, 84
9, 389280, Note_on_c, 3, 62, 84
9, 389519, Note_on_c, 3, 59, 0
9, 389519, Note_on_c, 3, 62, 0
9, 389760, Note_on_c, 3, 59, 84
9, 389760, Note_on_c, 3, 62, 84
9, 389999, Note_on_c, 3, 59, 0
9, 389999, Note_on_c, 3, 62, 0
9, 393600, Note_on_c, 3, 61, 84
9, 393600, Note_on_c, 3, 55, 84
9, 395504, Note_on_c, 3, 61, 0
9, 395504, Note_on_c, 3, 55, 0
9, 395520, Note_on_c, 3, 61, 84
9, 395520, Note_on_c, 3, 55, 84
9, 396464, Note_on_c, 3, 61, 0
9, 396464, Note_on_c, 3, 55, 0
9, 396480, Note_on_c, 3, 55, 84
9, 396480, Note_on_c, 3, 61, 84
9, 396719, Note_on_c, 3, 55, 0
9, 396719, Note_on_c, 3, 61, 0
9, 396960, Note_on_c, 3, 61, 84
9, 396960, Note_on_c, 3, 55, 84
9, 397199, Note_on_c, 3, 61, 0
9, 397199, Note_on_c, 3, 55, 0
9, 397440, Note_on_c, 3, 61, 76
9, 397440, Note_on_c, 3, 55, 76
9, 397679, Note_on_c, 3, 61, 0
9, 397679, Note_on_c, 3, 55, 0
9, 398400, Note_on_c, 3, 61, 76
9, 398400, Note_on_c, 3, 55, 76
9, 398639, Note_on_c, 3, 61, 0
9, 398639, Note_on_c, 3, 55, 0
9, 399360, Note_on_c, 3, 55, 76
9, 399360, Note_on_c, 3, 61, 76
9, 399599, Note_on_c, 3, 55, 0
9, 399599, Note_on_c, 3, 61, 0
9, 400320, Note_on_c, 3, 55, 76
9, 400320, Note_on_c, 3, 61, 76
9, 400559, Note_on_c, 3, 55, 0
9, 400559, Note_on_c, 3, 61, 0
9, 401280, Note_on_c, 3, 55, 76
9, 401280, Note_on_c, 3, 61, 76
9, 401519, Note_on_c, 3, 55, 0
9, 401519, Note_on_c, 3, 61, 0
9, 403200, Note_on_c, 3, 55, 52
9, 403200, Note_on_c, 3, 61, 52
9, 403439, Note_on_c, 3, 55, 0
9, 403439, Note_on_c, 3, 61, 0
9, 405120, Note_on_c, 3, 55, 44
9, 405120, Note_on_c, 3, 61, 44
9, 405359, Note_on_c, 3, 55, 0
9, 405359, Note_on_c, 3, 61, 0
9, 466560, Note_on_c, 3, 58, 84
9, 466560, Note_on_c, 3, 62, 84
9, 469424, Note_on_c, 3, 58, 0
9, 469424, Note_on_c, 3, 62, 0
9, 469440, Note_on_c, 3, 62, 84
9, 469440, Note_on_c, 3, 58, 84
9, 469619, Note_on_c, 3, 62, 0
9, 469619, Note_on_c, 3, 58, 0
9, 469920, Note_on_c, 3, 58, 84
9, 469920, Note_on_c, 3, 62, 84
9, 470099, Note_on_c, 3, 58, 0
9, 470099, Note_on_c, 3, 62, 0
9, 470400, Note_on_c, 3, 62, 84
9, 470400, Note_on_c, 3, 58, 84
9, 470519, Note_on_c, 3, 62, 0
9, 470519, Note_on_c, 3, 58, 0
9, 470640, Note_on_c, 3, 58, 84
9, 470759, Note_on_c, 3, 58, 0
9, 470880, Note_on_c, 3, 53, 84
9, 470999, Note_on_c, 3, 53, 0
9, 471120, Note_on_c, 3, 58, 84
9, 471239, Note_on_c, 3, 58, 0
9, 471360, Note_on_c, 3, 50, 84
9, 471479, Note_on_c, 3, 50, 0
9, 471600, Note_on_c, 3, 53, 84
9, 471719, Note_on_c, 3, 53, 0
9, 471840, Note_on_c, 3, 46, 84
9, 471959, Note_on_c, 3, 46, 0
9, 472080, Note_on_c, 3, 50, 84
9, 472199, Note_on_c, 3, 50, 0
9, 472320, Note_on_c, 3, 51, 84
9, 472439, Note_on_c, 3, 51, 0
9, 472560, Note_on_c, 3, 51, 84
9, 472679, Note_on_c, 3, 51, 0
9, 472800, Note_on_c, 3, 60, 84
9, 472919, Note_on_c, 3, 60, 0
9, 473040, Note_on_c, 3, 58, 84
9, 473159, Note_on_c, 3, 58, 0
9, 473280, Note_on_c, 3, 57, 84
9, 473399, Note_on_c, 3, 57, 0
9, 473520, Note_on_c, 3, 53, 84
9, 473639, Note_on_c, 3, 53, 0
9, 473760, Note_on_c, 3, 63, 84
9, 473879, Note_on_c, 3, 63, 0
9, 474000, Note_on_c, 3, 60, 84
9, 474119, Note_on_c, 3, 60, 0
9, 474240, Note_on_c, 3, 58, 84
9, 474479, Note_on_c, 3, 58, 0
9, 476400, Note_on_c, 3, 63, 52
9, 476519, Note_on_c, 3, 63, 0
9, 476640, Note_on_c, 3, 60, 52
9, 476759, Note_on_c, 3, 60, 0
9, 476880, Note_on_c, 3, 58, 52
9, 476999, Note_on_c, 3, 58, 0
9, 477120, Note_on_c, 3, 57, 52
9, 477239, Note_on_c, 3, 57, 0
9, 477360, Note_on_c, 3, 65, 52
9, 477479, Note_on_c, 3, 65, 0
9, 477600, Note_on_c, 3, 63, 52
9, 477719, Note_on_c, 3, 63, 0
9, 477840, Note_on_c, 3, 60, 52
9, 477959, Note_on_c, 3, 60, 0
9, 478080, Note_on_c, 3, 58, 52
9, 478319, Note_on_c, 3, 58, 0
9, 480960, Control_c, 3, 11, 64
9, 481200, Note_on_c, 3, 67, 84
9, 481439, Note_on_c, 3, 67, 0
9, 481440, Note_on_c, 3, 64, 84
9, 481679, Note_on_c, 3, 64, 0
9, 481680, Note_on_c, 3, 65, 84
9, 481919, Note_on_c, 3, 65, 0
9, 481920, Note_on_c, 3, 62, 84
9, 482159, Note_on_c, 3, 62, 0
9, 482160, Note_on_c, 3, 63, 84
9, 482399, Note_on_c, 3, 63, 0
9, 482400, Note_on_c, 3, 60, 84
9, 482639, Note_on_c, 3, 60, 0
9, 482640, Note_on_c, 3, 62, 84
9, 482879, Note_on_c, 3, 62, 0
9, 482880, Control_c, 3, 11, 64
9, 482880, Note_on_c, 3, 59, 84
9, 482960, Control_c, 3, 11, 69
9, 483040, Control_c, 3, 11, 75
9, 483119, Note_on_c, 3, 59, 0
9, 483120, Control_c, 3, 11, 80
9, 483120, Note_on_c, 3, 60, 84
9, 483200, Control_c, 3, 11, 85
9, 483280, Control_c, 3, 11, 90
9, 483359, Note_on_c, 3, 60, 0
9, 483360, Control_c, 3, 11, 96
9, 483360, Note_on_c, 3, 63, 84
9, 483440, Control_c, 3, 11, 101
9, 483520, Control_c, 3, 11, 106
9, 483599, Note_on_c, 3, 63, 0
9, 483600, Control_c, 3, 11, 111
9, 483600, Note_on_c, 3, 57, 84
9, 483680, Control_c, 3, 11, 117
9, 483760, Control_c, 3, 11, 122
9, 483824, Note_on_c, 3, 57, 0
9, 483825, Control_c, 3, 11, 127
9, 483840, Note_on_c, 3, 58, 84
9, 483840, Note_on_c, 3, 46, 84
9, 485744, Note_on_c, 3, 58, 0
9, 485744, Note_on_c, 3, 46, 0
9, 485760, Note_on_c, 3, 51, 92
9, 485760, Note_on_c, 3, 63, 92
9, 486689, Note_on_c, 3, 51, 0
9, 486689, Note_on_c, 3, 63, 0
9, 486720, Note_on_c, 3, 53, 92
9, 486720, Note_on_c, 3, 65, 92
9, 487649, Note_on_c, 3, 53, 0
9, 487649, Note_on_c, 3, 65, 0
9, 487680, Note_on_c, 3, 62, 92
9, 487680, Note_on_c, 3, 50, 92
9, 489089, Note_on_c, 3, 62, 0
9, 489089, Note_on_c, 3, 50, 0
9, 489120, Note_on_c, 3, 55, 84
9, 489120, Note_on_c, 3, 67, 84
9, 489584, Note_on_c, 3, 55, 0
9, 489584, Note_on_c, 3, 67, 0
9, 489600, Note_on_c, 3, 51, 92
9, 489600, Note_on_c, 3, 63, 92
9, 490529, Note_on_c, 3, 51, 0
9, 490529, Note_on_c, 3, 63, 0
9, 490560, Note_on_c, 3, 68, 92
9, 490560, Note_on_c, 3, 56, 92
9, 491489, Note_on_c, 3, 68, 0
9, 491489, Note_on_c, 3, 56, 0
9, 491520, Note_on_c, 3, 53, 92
9, 491520, Note_on_c, 3, 65, 92
9, 492929, Note_on_c, 3, 53, 0
9, 492929, Note_on_c, 3, 65, 0
9, 492960, Note_on_c, 3, 58, 92
9, 492960, Note_on_c, 3, 53, 92
9, 493409, Note_on_c, 3, 58, 0
9, 493409, Note_on_c, 3, 53, 0
9, 493440, Note_on_c, 3, 58, 84
9, 493440, Note_on_c, 3, 55, 84
9, 493904, Note_on_c, 3, 58, 0
9, 493904, Note_on_c, 3, 55, 0
9, 493920, Note_on_c, 3, 55, 92
9, 493920, Note_on_c, 3, 60, 92
9, 494369, Note_on_c, 3, 55, 0
9, 494369, Note_on_c, 3, 60, 0
9, 494400, Note_on_c, 3, 57, 84
9, 494400, Note_on_c, 3, 60, 84
9, 494864, Note_on_c, 3, 57, 0
9, 494864, Note_on_c, 3, 60, 0
9, 494880, Note_on_c, 3, 57, 92
9, 494880, Note_on_c, 3, 62, 92
9, 495329, Note_on_c, 3, 57, 0
9, 495329, Note_on_c, 3, 62, 0
9, 495360, Note_on_c, 3, 55, 84
9, 495360, Note_on_c, 3, 58, 84
9, 495824, Note_on_c, 3, 55, 0
9, 495824, Note_on_c, 3, 58, 0
9, 495840, Note_on_c, 3, 58, 92
9, 495840, Note_on_c, 3, 55, 92
9, 496289, Note_on_c, 3, 58, 0
9, 496289, Note_on_c, 3, 55, 0
9, 496320, Note_on_c, 3, 56, 84
9, 496320, Note_on_c, 3, 60, 84
9, 496784, Note_on_c, 3, 56, 0
9, 496784, Note_on_c, 3, 60, 0
9, 496800, Note_on_c, 3, 57, 92
9, 496800, Note_on_c, 3, 60, 92
9, 497249, Note_on_c, 3, 57, 0
9, 497249, Note_on_c, 3, 60, 0
9, 497280, Note_on_c, 3, 58, 84
9, 497504, Note_on_c, 3, 58, 0
9, 497520, Note_on_c, 3, 60, 84
9, 497744, Note_on_c, 3, 60, 0
9, 497760, Note_on_c, 3, 62, 84
9, 497984, Note_on_c, 3, 62, 0
9, 498000, Note_on_c, 3, 63, 84
9, 498224, Note_on_c, 3, 63, 0
9, 498240, Note_on_c, 3, 65, 84
9, 498464, Note_on_c, 3, 65, 0
9, 498480, Note_on_c, 3, 63, 84
9, 498704, Note_on_c, 3, 63, 0
9, 498720, Note_on_c, 3, 62, 84
9, 498944, Note_on_c, 3, 62, 0
9, 498960, Note_on_c, 3, 60, 84
9, 499184, Note_on_c, 3, 60, 0
9, 499200, Note_on_c, 3, 58, 84
9, 499424, Note_on_c, 3, 58, 0
9, 499440, Note_on_c, 3, 57, 84
9, 499664, Note_on_c, 3, 57, 0
9, 499680, Note_on_c, 3, 55, 84
9, 499904, Note_on_c, 3, 55, 0
9, 499920, Note_on_c, 3, 53, 84
9, 500144, Note_on_c, 3, 53, 0
9, 500160, Note_on_c, 3, 51, 84
9, 500384, Note_on_c, 3, 51, 0
9, 500400, Note_on_c, 3, 50, 84
9, 500624, Note_on_c, 3, 50, 0
9, 500640, Note_on_c, 3, 48, 84
9, 500864, Note_on_c, 3, 48, 0
9, 500880, Note_on_c, 3, 46, 84
9, 501104, Note_on_c, 3, 46, 0
9, 501120, Note_on_c, 3, 41, 84
9, 501344, Note_on_c, 3, 41, 0
9, 501360, Note_on_c, 3, 60, 92
9, 501360, Note_on_c, 3, 57, 92
9, 501809, Note_on_c, 3, 60, 0
9, 501809, Note_on_c, 3, 57, 0
9, 501840, Note_on_c, 3, 61, 84
9, 501840, Note_on_c, 3, 58, 84
9, 502304, Note_on_c, 3, 61, 0
9, 502304, Note_on_c, 3, 58, 0
9, 502320, Note_on_c, 3, 60, 84
9, 502320, Note_on_c, 3, 63, 84
9, 502784, Note_on_c, 3, 60, 0
9, 502784, Note_on_c, 3, 63, 0
9, 502800, Note_on_c, 3, 55, 84
9, 502800, Note_on_c, 3, 58, 84
9, 503264, Note_on_c, 3, 55, 0
9, 503264, Note_on_c, 3, 58, 0
9, 503280, Note_on_c, 3, 60, 84
9, 503280, Note_on_c, 3, 57, 84
9, 503744, Note_on_c, 3, 60, 0
9, 503744, Note_on_c, 3, 57, 0
9, 503760, Note_on_c, 3, 61, 84
9, 503760, Note_on_c, 3, 58, 84
9, 504224, Note_on_c, 3, 61, 0
9, 504224, Note_on_c, 3, 58, 0
9, 504240, Note_on_c, 3, 58, 92
9, 504240, Note_on_c, 3, 61, 92
9, 504719, Note_on_c, 3, 58, 0
9, 504719, Note_on_c, 3, 61, 0
9, 504720, Note_on_c, 3, 60, 84
9, 504720, Note_on_c, 3, 57, 84
9, 504944, Note_on_c, 3, 60, 0
9, 504944, Note_on_c, 3, 57, 0
9, 504960, Note_on_c, 3, 60, 84
9, 504960, Note_on_c, 3, 57, 84
9, 505139, Note_on_c, 3, 60, 0
9, 505139, Note_on_c, 3, 57, 0
9, 505200, Note_on_c, 3, 63, 84
9, 505664, Note_on_c, 3, 63, 0
9, 505680, Note_on_c, 3, 61, 84
9, 506144, Note_on_c, 3, 61, 0
9, 506160, Note_on_c, 3, 60, 84
9, 506624, Note_on_c, 3, 60, 0
9, 506640, Note_on_c, 3, 61, 84
9, 507104, Note_on_c, 3, 61, 0
9, 507120, Note_on_c, 3, 60, 84
9, 507584, Note_on_c, 3, 60, 0
9, 507600, Note_on_c, 3, 58, 84
9, 508064, Note_on_c, 3, 58, 0
9, 508080, Note_on_c, 3, 58, 92
9, 508080, Note_on_c, 3, 61, 92
9, 508559, Note_on_c, 3, 58, 0
9, 508559, Note_on_c, 3, 61, 0
9, 508560, Note_on_c, 3, 60, 84
9, 508560, Note_on_c, 3, 57, 84
9, 508784, Note_on_c, 3, 60, 0
9, 508784, Note_on_c, 3, 57, 0
9, 508800, Note_on_c, 3, 60, 84
9, 508800, Note_on_c, 3, 57, 84
9, 509039, Note_on_c, 3, 60, 0
9, 509039, Note_on_c, 3, 57, 0
9, 512640, Note_on_c, 3, 65, 52
9, 512759, Note_on_c, 3, 65, 0
9, 512760, Note_on_c, 3, 62, 52
9, 512879, Note_on_c, 3, 62, 0
9, 512880, Note_on_c, 3, 63, 52
9, 512999, Note_on_c, 3, 63, 0
9, 513000, Note_on_c, 3, 60, 52
9, 513104, Note_on_c, 3, 60, 0
9, 513120, Note_on_c, 3, 58, 52
9, 513299, Note_on_c, 3, 58, 0
9, 513360, Note_on_c, 3, 53, 52
9, 513539, Note_on_c, 3, 53, 0
9, 513600, Note_on_c, 3, 58, 52
9, 513779, Note_on_c, 3, 58, 0
9, 513840, Note_on_c, 3, 60, 52
9, 514019, Note_on_c, 3, 60, 0
9, 514080, Note_on_c, 3, 62, 52
9, 514259, Note_on_c, 3, 62, 0
9, 514320, Note_on_c, 3, 63, 52
9, 514499, Note_on_c, 3, 63, 0
9, 514560, Note_on_c, 3, 65, 52
9, 514799, Note_on_c, 3, 65, 0
9, 536640, Note_on_c, 3, 60, 76
9, 536640, Note_on_c, 3, 57, 76
9, 536999, Note_on_c, 3, 60, 0
9, 536999, Note_on_c, 3, 57, 0
9, 537120, Note_on_c, 3, 57, 76
9, 537120, Note_on_c, 3, 60, 76
9, 537479, Note_on_c, 3, 57, 0
9, 537479, Note_on_c, 3, 60, 0
9, 537600, Note_on_c, 3, 60, 76
9, 537600, Note_on_c, 3, 57, 76
9, 537959, Note_on_c, 3, 60, 0
9, 537959, Note_on_c, 3, 57, 0
9, 538080, Note_on_c, 3, 57, 76
9, 538080, Note_on_c, 3, 60, 76
9, 538439, Note_on_c, 3, 57, 0
9, 538439, Note_on_c, 3, 60, 0
9, 538560, Note_on_c, 3, 57, 76
9, 538560, Note_on_c, 3, 60, 76
9, 538919, Note_on_c, 3, 57, 0
9, 538919, Note_on_c, 3, 60, 0
9, 539040, Note_on_c, 3, 60, 76
9, 539040, Note_on_c, 3, 57, 76
9, 539399, Note_on_c, 3, 60, 0
9, 539399, Note_on_c, 3, 57, 0
9, 539520, Note_on_c, 3, 58, 76
9, 539520, Note_on_c, 3, 62, 76
9, 539759, Note_on_c, 3, 58, 0
9, 539759, Note_on_c, 3, 62, 0
9, 540480, Note_on_c, 3, 51, 76
9, 540480, Note_on_c, 3, 63, 76
9, 540719, Note_on_c, 3, 51, 0
9, 540719, Note_on_c, 3, 63, 0
9, 541440, Note_on_c, 3, 53, 76
9, 541440, Note_on_c, 3, 65, 76
9, 541679, Note_on_c, 3, 53, 0
9, 541679, Note_on_c, 3, 65, 0
9, 542160, Note_on_c, 3, 53, 76
9, 542384, Note_on_c, 3, 53, 0
9, 542400, Note_on_c, 3, 51, 76
9, 542624, Note_on_c, 3, 51, 0
9, 542640, Note_on_c, 3, 51, 76
9, 542864, Note_on_c, 3, 51, 0
9, 542880, Note_on_c, 3, 51, 76
9, 543104, Note_on_c, 3, 51, 0
9, 543120, Note_on_c, 3, 51, 76
9, 543344, Note_on_c, 3, 51, 0
9, 543360, Note_on_c, 3, 50, 76
9, 543599, Note_on_c, 3, 50, 0
9, 543840, Note_on_c, 3, 51, 76
9, 544079, Note_on_c, 3, 51, 0
9, 544320, Note_on_c, 3, 53, 76
9, 544559, Note_on_c, 3, 53, 0
9, 544800, Note_on_c, 3, 53, 76
9, 544800, Note_on_c, 3, 41, 76
9, 545039, Note_on_c, 3, 53, 0
9, 545039, Note_on_c, 3, 41, 0
9, 546240, Note_on_c, 3, 62, 48
9, 546479, Note_on_c, 3, 62, 0
9, 546480, Note_on_c, 3, 63, 48
9, 546719, Note_on_c, 3, 63, 0
9, 546720, Note_on_c, 3, 65, 48
9, 546959, Note_on_c, 3, 65, 0
9, 546960, Note_on_c, 3, 53, 48
9, 547184, Note_on_c, 3, 53, 0
9, 547200, Note_on_c, 3, 58, 48
9, 547919, Note_on_c, 3, 58, 0
9, 547920, Note_on_c, 3, 60, 48
9, 548159, Note_on_c, 3, 60, 0
9, 548160, Note_on_c, 3, 62, 48
9, 548399, Note_on_c, 3, 62, 0
9, 548400, Note_on_c, 3, 58, 48
9, 548639, Note_on_c, 3, 58, 0
9, 548640, Note_on_c, 3, 62, 48
9, 548879, Note_on_c, 3, 62, 0
9, 548880, Note_on_c, 3, 63, 48
9, 549104, Note_on_c, 3, 63, 0
9, 549120, Note_on_c, 3, 65, 52
9, 551039, Note_on_c, 3, 65, 0
9, 551040, Note_on_c, 3, 65, 52
9, 551744, Note_on_c, 3, 65, 0
9, 551760, Note_on_c, 3, 67, 52
9, 551999, Note_on_c, 3, 67, 0
9, 552000, Note_on_c, 3, 65, 52
9, 552239, Note_on_c, 3, 65, 0
9, 552240, Note_on_c, 3, 67, 52
9, 552479, Note_on_c, 3, 67, 0
9, 552480, Note_on_c, 3, 63, 52
9, 552719, Note_on_c, 3, 63, 0
9, 552720, Note_on_c, 3, 60, 52
9, 552944, Note_on_c, 3, 60, 0
9, 552960, Note_on_c, 3, 46, 76
9, 552960, Note_on_c, 3, 58, 76
9, 553199, Note_on_c, 3, 46, 0
9, 553199, Note_on_c, 3, 58, 0
9, 553680, Note_on_c, 3, 53, 76
9, 553859, Note_on_c, 3, 53, 0
9, 553920, Note_on_c, 3, 50, 76
9, 554159, Note_on_c, 3, 50, 0
9, 554160, Note_on_c, 3, 51, 76
9, 554384, Note_on_c, 3, 51, 0
9, 554400, Note_on_c, 3, 53, 76
9, 554579, Note_on_c, 3, 53, 0
9, 554640, Note_on_c, 3, 41, 76
9, 554819, Note_on_c, 3, 41, 0
9, 554880, Note_on_c, 3, 46, 76
9, 555584, Note_on_c, 3, 46, 0
9, 555600, Note_on_c, 3, 48, 76
9, 555779, Note_on_c, 3, 48, 0
9, 555840, Note_on_c, 3, 50, 76
9, 556079, Note_on_c, 3, 50, 0
9, 556080, Note_on_c, 3, 46, 76
9, 556304, Note_on_c, 3, 46, 0
9, 556320, Note_on_c, 3, 50, 76
9, 556499, Note_on_c, 3, 50, 0
9, 556560, Note_on_c, 3, 51, 76
9, 556739, Note_on_c, 3, 51, 0
9, 556800, Note_on_c, 3, 53, 76
9, 557504, Note_on_c, 3, 53, 0
9, 557520, Note_on_c, 3, 55, 76
9, 557699, Note_on_c, 3, 55, 0
9, 557760, Note_on_c, 3, 57, 76
9, 557999, Note_on_c, 3, 57, 0
9, 558000, Note_on_c, 3, 58, 76
9, 558224, Note_on_c, 3, 58, 0
9, 558240, Note_on_c, 3, 60, 76
9, 558419, Note_on_c, 3, 60, 0
9, 558480, Note_on_c, 3, 58, 76
9, 558659, Note_on_c, 3, 58, 0
9, 558720, Note_on_c, 3, 57, 76
9, 559424, Note_on_c, 3, 57, 0
9, 559440, Note_on_c, 3, 55, 76
9, 559664, Note_on_c, 3, 55, 0
9, 559680, Note_on_c, 3, 53, 76
9, 559919, Note_on_c, 3, 53, 0
9, 559920, Note_on_c, 3, 55, 76
9, 560144, Note_on_c, 3, 55, 0
9, 560160, Note_on_c, 3, 51, 76
9, 560339, Note_on_c, 3, 51, 0
9, 560400, Note_on_c, 3, 48, 76
9, 560579, Note_on_c, 3, 48, 0
9, 560640, Note_on_c, 3, 45, 76
9, 560864, Note_on_c, 3, 45, 0
9, 560880, Note_on_c, 3, 67, 52
9, 561119, Note_on_c, 3, 67, 0
9, 561120, Note_on_c, 3, 63, 52
9, 561359, Note_on_c, 3, 63, 0
9, 561360, Note_on_c, 3, 60, 52
9, 561584, Note_on_c, 3, 60, 0
9, 561600, Note_on_c, 3, 57, 52
9, 561839, Note_on_c, 3, 57, 0
9, 564480, Note_on_c, 3, 46, 84
9, 564480, Note_on_c, 3, 58, 84
9, 564719, Note_on_c, 3, 46, 0
9, 564719, Note_on_c, 3, 58, 0
9, 565200, Note_on_c, 3, 55, 84
9, 565424, Note_on_c, 3, 55, 0
9, 565440, Note_on_c, 3, 51, 84
9, 565679, Note_on_c, 3, 51, 0
9, 565920, Note_on_c, 3, 53, 84
9, 566159, Note_on_c, 3, 53, 0
9, 568320, Note_on_c, 3, 65, 84
9, 568320, Note_on_c, 3, 62, 84
9, 568559, Note_on_c, 3, 65, 0
9, 568559, Note_on_c, 3, 62, 0
9, 569040, Note_on_c, 3, 58, 84
9, 569040, Note_on_c, 3, 62, 84
9, 569264, Note_on_c, 3, 58, 0
9, 569264, Note_on_c, 3, 62, 0
9, 569280, Note_on_c, 3, 51, 84
9, 569280, Note_on_c, 3, 55, 84
9, 569519, Note_on_c, 3, 51, 0
9, 569519, Note_on_c, 3, 55, 0
9, 569760, Note_on_c, 3, 57, 84
9, 569760, Note_on_c, 3, 53, 84
9, 569999, Note_on_c, 3, 57, 0
9, 569999, Note_on_c, 3, 53, 0
9, 571120, Control_c, 3, 11, 93
9, 571200, Note_on_c, 3, 52, 76
9, 571200, Control_c, 3, 11, 96
9, 571280, Control_c, 3, 11, 98
9, 571360, Control_c, 3, 11, 101
9, 571440, Control_c, 3, 11, 103
9, 571520, Control_c, 3, 11, 106
9, 571600, Control_c, 3, 11, 109
9, 571680, Control_c, 3, 11, 111
9, 571760, Control_c, 3, 11, 114
9, 571840, Control_c, 3, 11, 117
9, 571920, Control_c, 3, 11, 119
9, 572000, Control_c, 3, 11, 122
9, 572080, Control_c, 3, 11, 127
9, 572144, Note_on_c, 3, 52, 0
9, 572160, Note_on_c, 3, 52, 76
9, 573104, Note_on_c, 3, 52, 0
9, 573120, Note_on_c, 3, 53, 76
9, 574064, Note_on_c, 3, 53, 0
9, 574080, Note_on_c, 3, 55, 76
9, 575024, Note_on_c, 3, 55, 0
9, 575040, Note_on_c, 3, 57, 76
9, 575984, Note_on_c, 3, 57, 0
9, 576000, Note_on_c, 3, 58, 84
9, 576224, Note_on_c, 3, 58, 0
9, 576240, Note_on_c, 3, 54, 84
9, 576240, Note_on_c, 3, 61, 84
9, 577904, Note_on_c, 3, 54, 0
9, 577904, Note_on_c, 3, 61, 0
9, 577920, Note_on_c, 3, 62, 92
9, 577920, Note_on_c, 3, 53, 92
9, 578849, Note_on_c, 3, 62, 0
9, 578849, Note_on_c, 3, 53, 0
9, 578880, Note_on_c, 3, 41, 84
9, 578880, Note_on_c, 3, 53, 84
9, 579824, Note_on_c, 3, 41, 0
9, 579824, Note_on_c, 3, 53, 0
9, 579840, Note_on_c, 3, 46, 84
9, 579840, Note_on_c, 3, 58, 84
9, 580079, Note_on_c, 3, 46, 0
9, 580079, Note_on_c, 3, 58, 0
9, 582960, Note_on_c, 3, 60, 84
9, 582960, Note_on_c, 3, 57, 84
9, 583424, Note_on_c, 3, 60, 0
9, 583424, Note_on_c, 3, 57, 0
9, 583440, Note_on_c, 3, 60, 84
9, 583440, Note_on_c, 3, 63, 84
9, 583619, Note_on_c, 3, 60, 0
9, 583619, Note_on_c, 3, 63, 0
9, 583680, Note_on_c, 3, 58, 84
9, 583680, Note_on_c, 3, 62, 84
9, 583859, Note_on_c, 3, 58, 0
9, 583859, Note_on_c, 3, 62, 0
9, 586800, Note_on_c, 3, 60, 84
9, 586800, Note_on_c, 3, 63, 84
9, 587264, Note_on_c, 3, 60, 0
9, 587264, Note_on_c, 3, 63, 0
9, 587280, Note_on_c, 3, 63, 84
9, 587280, Note_on_c, 3, 60, 84
9, 587459, Note_on_c, 3, 63, 0
9, 587459, Note_on_c, 3, 60, 0
9, 587520, Note_on_c, 3, 58, 84
9, 587520, Note_on_c, 3, 62, 84
9, 587699, Note_on_c, 3, 58, 0
9, 587699, Note_on_c, 3, 62, 0
9, 587760, Note_on_c, 3, 60, 84
9, 588224, Note_on_c, 3, 60, 0
9, 588240, Note_on_c, 3, 62, 84
9, 588704, Note_on_c, 3, 62, 0
9, 588720, Note_on_c, 3, 63, 84
9, 588720, Note_on_c, 3, 60, 84
9, 589184, Note_on_c, 3, 63, 0
9, 589184, Note_on_c, 3, 60, 0
9, 589200, Note_on_c, 3, 63, 84
9, 589200, Note_on_c, 3, 60, 84
9, 589424, Note_on_c, 3, 63, 0
9, 589424, Note_on_c, 3, 60, 0
9, 589440, Note_on_c, 3, 60, 84
9, 589440, Note_on_c, 3, 57, 84
9, 591287, Note_on_c, 3, 60, 0
9, 591287, Note_on_c, 3, 57, 0
9, 591300, Note_on_c, 3, 57, 84
9, 591300, Note_on_c, 3, 60, 84
9, 591351, Note_on_c, 3, 57, 0
9, 591351, Note_on_c, 3, 60, 0
9, 591360, Note_on_c, 3, 57, 84
9, 591360, Note_on_c, 3, 60, 84
9, 591599, Note_on_c, 3, 57, 0
9, 591599, Note_on_c, 3, 60, 0
9, 592260, Note_on_c, 3, 60, 84
9, 592260, Note_on_c, 3, 57, 84
9, 592311, Note_on_c, 3, 60, 0
9, 592311, Note_on_c, 3, 57, 0
9, 592320, Note_on_c, 3, 60, 84
9, 592320, Note_on_c, 3, 57, 84
9, 592559, Note_on_c, 3, 60, 0
9, 592559, Note_on_c, 3, 57, 0
9, 593220, Note_on_c, 3, 57, 84
9, 593220, Note_on_c, 3, 60, 84
9, 593271, Note_on_c, 3, 57, 0
9, 593271, Note_on_c, 3, 60, 0
9, 593280, Note_on_c, 3, 60, 84
9, 593280, Note_on_c, 3, 57, 84
9, 593459, Note_on_c, 3, 60, 0
9, 593459, Note_on_c, 3, 57, 0
9, 593760, Note_on_c, 3, 53, 84
9, 593760, Note_on_c, 3, 65, 84
9, 593939, Note_on_c, 3, 53, 0
9, 593939, Note_on_c, 3, 65, 0
9, 594240, Note_on_c, 3, 53, 84
9, 594240, Note_on_c, 3, 65, 84
9, 594419, Note_on_c, 3, 53, 0
9, 594419, Note_on_c, 3, 65, 0
9, 594720, Note_on_c, 3, 53, 84
9, 594720, Note_on_c, 3, 65, 84
9, 594899, Note_on_c, 3, 53, 0
9, 594899, Note_on_c, 3, 65, 0
9, 595200, Note_on_c, 3, 46, 84
9, 595424, Note_on_c, 3, 46, 0
9, 595440, Note_on_c, 3, 62, 84
9, 595619, Note_on_c, 3, 62, 0
9, 595680, Note_on_c, 3, 58, 84
9, 595859, Note_on_c, 3, 58, 0
9, 595920, Note_on_c, 3, 62, 84
9, 596099, Note_on_c, 3, 62, 0
9, 596400, Note_on_c, 3, 58, 84
9, 596579, Note_on_c, 3, 58, 0
9, 596640, Note_on_c, 3, 53, 84
9, 596819, Note_on_c, 3, 53, 0
9, 596880, Note_on_c, 3, 58, 84
9, 597059, Note_on_c, 3, 58, 0
9, 597360, Note_on_c, 3, 53, 84
9, 597539, Note_on_c, 3, 53, 0
9, 597600, Note_on_c, 3, 50, 84
9, 597779, Note_on_c, 3, 50, 0
9, 597840, Note_on_c, 3, 53, 84
9, 598019, Note_on_c, 3, 53, 0
9, 598320, Note_on_c, 3, 50, 84
9, 598499, Note_on_c, 3, 50, 0
9, 598560, Note_on_c, 3, 46, 84
9, 598739, Note_on_c, 3, 46, 0
9, 598800, Note_on_c, 3, 50, 84
9, 598979, Note_on_c, 3, 50, 0
9, 599280, Note_on_c, 3, 65, 84
9, 599459, Note_on_c, 3, 65, 0
9, 599520, Note_on_c, 3, 62, 84
9, 599699, Note_on_c, 3, 62, 0
9, 599760, Note_on_c, 3, 65, 84
9, 599939, Note_on_c, 3, 65, 0
9, 600240, Note_on_c, 3, 62, 84
9, 600419, Note_on_c, 3, 62, 0
9, 600480, Note_on_c, 3, 58, 84
9, 600659, Note_on_c, 3, 58, 0
9, 600720, Note_on_c, 3, 62, 84
9, 600899, Note_on_c, 3, 62, 0
9, 601200, Note_on_c, 3, 58, 84
9, 601379, Note_on_c, 3, 58, 0
9, 601440, Note_on_c, 3, 53, 84
9, 601619, Note_on_c, 3, 53, 0
9, 601680, Note_on_c, 3, 58, 84
9, 601859, Note_on_c, 3, 58, 0
9, 602160, Note_on_c, 3, 53, 84
9, 602339, Note_on_c, 3, 53, 0
9, 602400, Note_on_c, 3, 50, 84
9, 602579, Note_on_c, 3, 50, 0
9, 602640, Note_on_c, 3, 53, 84
9, 602819, Note_on_c, 3, 53, 0
9, 602880, Note_on_c, 3, 46, 52
9, 603119, Note_on_c, 3, 46, 0
9, 604800, Note_on_c, 3, 41, 76
9, 605744, Note_on_c, 3, 41, 0
9, 605760, Note_on_c, 3, 41, 76
9, 606647, Note_on_c, 3, 41, 0
9, 606660, Note_on_c, 3, 41, 76
9, 606711, Note_on_c, 3, 41, 0
9, 606720, Note_on_c, 3, 46, 76
9, 606944, Note_on_c, 3, 46, 0
9, 606960, Note_on_c, 3, 62, 52
9, 606960, Note_on_c, 3, 58, 52
9, 607199, Note_on_c, 3, 62, 0
9, 607199, Note_on_c, 3, 58, 0
9, 607200, Note_on_c, 3, 60, 52
9, 607200, Note_on_c, 3, 57, 52
9, 607439, Note_on_c, 3, 60, 0
9, 607439, Note_on_c, 3, 57, 0
9, 607440, Note_on_c, 3, 55, 52
9, 607440, Note_on_c, 3, 58, 52
9, 607679, Note_on_c, 3, 55, 0
9, 607679, Note_on_c, 3, 58, 0
9, 607680, Note_on_c, 3, 53, 52
9, 607680, Note_on_c, 3, 57, 52
9, 607919, Note_on_c, 3, 53, 0
9, 607919, Note_on_c, 3, 57, 0
9, 607920, Note_on_c, 3, 55, 52
9, 607920, Note_on_c, 3, 51, 52
9, 608159, Note_on_c, 3, 55, 0
9, 608159, Note_on_c, 3, 51, 0
9, 608160, Note_on_c, 3, 50, 52
9, 608160, Note_on_c, 3, 53, 52
9, 608399, Note_on_c, 3, 50, 0
9, 608399, Note_on_c, 3, 53, 0
9, 608400, Note_on_c, 3, 55, 52
9, 608400, Note_on_c, 3, 51, 52
9, 608624, Note_on_c, 3, 55, 0
9, 608624, Note_on_c, 3, 51, 0
9, 608640, Note_on_c, 3, 57, 76
9, 608640, Note_on_c, 3, 53, 76
9, 609584, Note_on_c, 3, 57, 0
9, 609584, Note_on_c, 3, 53, 0
9, 609600, Note_on_c, 3, 53, 76
9, 609600, Note_on_c, 3, 57, 76
9, 610487, Note_on_c, 3, 53, 0
9, 610487, Note_on_c, 3, 57, 0
9, 610500, Note_on_c, 3, 57, 76
9, 610500, Note_on_c, 3, 53, 76
9, 610551, Note_on_c, 3, 57, 0
9, 610551, Note_on_c, 3, 53, 0
9, 610560, Note_on_c, 3, 58, 52
9, 610560, Note_on_c, 3, 46, 52
9, 610799, Note_on_c, 3, 58, 0
9, 610799, Note_on_c, 3, 46, 0
9, 614339, Control_c, 3, 11, 95
9, 614400, Note_on_c, 3, 50, 84
9, 614400, Note_on_c, 3, 58, 84
9, 614461, Control_c, 3, 11, 96
9, 614583, Control_c, 3, 11, 97
9, 614705, Control_c, 3, 11, 98
9, 614827, Control_c, 3, 11, 99
9, 614949, Control_c, 3, 11, 100
9, 615070, Control_c, 3, 11, 101
9, 615192, Control_c, 3, 11, 102
9, 615314, Control_c, 3, 11, 103
9, 615436, Control_c, 3, 11, 104
9, 615558, Control_c, 3, 11, 105
9, 615680, Control_c, 3, 11, 106
9, 615802, Control_c, 3, 11, 107
9, 615924, Control_c, 3, 11, 108
9, 616046, Control_c, 3, 11, 109
9, 616168, Control_c, 3, 11, 110
9, 616290, Control_c, 3, 11, 111
9, 616304, Note_on_c, 3, 50, 0
9, 616304, Note_on_c, 3, 58, 0
9, 616320, Note_on_c, 3, 53, 84
9, 616320, Note_on_c, 3, 60, 84
9, 616411, Control_c, 3, 11, 112
9, 616533, Control_c, 3, 11, 113
9, 616655, Control_c, 3, 11, 114
9, 616777, Control_c, 3, 11, 115
9, 616899, Control_c, 3, 11, 116
9, 617021, Control_c, 3, 11, 117
9, 617143, Control_c, 3, 11, 118
9, 617265, Control_c, 3, 11, 119
9, 617387, Control_c, 3, 11, 120
9, 617509, Control_c, 3, 11, 121
9, 617630, Control_c, 3, 11, 122
9, 617752, Control_c, 3, 11, 123
9, 617874, Control_c, 3, 11, 124
9, 617996, Control_c, 3, 11, 125
9, 618118, Control_c, 3, 11, 127
9, 618224, Note_on_c, 3, 53, 0
9, 618224, Note_on_c, 3, 60, 0
9, 618240, Note_on_c, 3, 50, 84
9, 618240, Note_on_c, 3, 58, 84
9, 620159, Note_on_c, 3, 50, 0
9, 620159, Note_on_c, 3, 58, 0
9, 620160, Note_on_c, 3, 50, 84
9, 620160, Note_on_c, 3, 58, 84
9, 622007, Note_on_c, 3, 50, 0
9, 622007, Note_on_c, 3, 58, 0
9, 622020, Note_on_c, 3, 58, 84
9, 622020, Note_on_c, 3, 50, 84
9, 622071, Note_on_c, 3, 58, 0
9, 622071, Note_on_c, 3, 50, 0
9, 622080, Note_on_c, 3, 58, 84
9, 622080, Note_on_c, 3, 50, 84
9, 622319, Note_on_c, 3, 58, 0
9, 622319, Note_on_c, 3, 50, 0
9, 622560, Note_on_c, 3, 50, 84
9, 622560, Note_on_c, 3, 58, 84
9, 622799, Note_on_c, 3, 50, 0
9, 622799, Note_on_c, 3, 58, 0
9, 623040, Note_on_c, 3, 58, 84
9, 623040, Note_on_c, 3, 50, 84
9, 623279, Note_on_c, 3, 58, 0
9, 623279, Note_on_c, 3, 50, 0
9, 624000, Note_on_c, 3, 46, 84
9, 624000, Note_on_c, 3, 58, 84
9, 624239, Note_on_c, 3, 46, 0
9, 624239, Note_on_c, 3, 58, 0
9, 624960, Note_on_c, 3, 46, 84
9, 625199, Note_on_c, 3, 46, 0
9, 625199, End_track
10, 0, Start_track
10, 0, Title_t, "French Horn I and II in B-flat"
10, 0, MIDI_port, 0
10, 0, Program_c, 4, 60
10, 0, Control_c, 4, 7, 96
10, 0, Control_c, 4, 10, 45
10, 0, Control_c, 4, 11, 96
10, 0, Note_on_c, 4, 46, 60
10, 0, Note_on_c, 4, 34, 60
10, 959, Note_on_c, 4, 46, 0
10, 959, Note_on_c, 4, 34, 0
10, 960, Note_on_c, 4, 46, 60
10, 960, Note_on_c, 4, 34, 60
10, 1919, Note_on_c, 4, 46, 0
10, 1919, Note_on_c, 4, 34, 0
10, 1920, Note_on_c, 4, 34, 60
10, 1920, Note_on_c, 4, 46, 60
10, 2879, Note_on_c, 4, 34, 0
10, 2879, Note_on_c, 4, 46, 0
10, 2880, Note_on_c, 4, 34, 60
10, 2880, Note_on_c, 4, 46, 60
10, 3839, Note_on_c, 4, 34, 0
10, 3839, Note_on_c, 4, 46, 0
10, 3840, Control_c, 4, 11, 96
10, 3840, Note_on_c, 4, 46, 60
10, 3840, Note_on_c, 4, 34, 60
10, 3860, Control_c, 4, 11, 97
10, 3880, Control_c, 4, 11, 99
10, 3900, Control_c, 4, 11, 100
10, 3920, Control_c, 4, 11, 101
10, 3940, Control_c, 4, 11, 102
10, 3960, Control_c, 4, 11, 104
10, 3980, Control_c, 4, 11, 105
10, 4000, Control_c, 4, 11, 106
10, 4020, Control_c, 4, 11, 108
10, 4040, Control_c, 4, 11, 109
10, 4060, Control_c, 4, 11, 110
10, 4080, Control_c, 4, 11, 112
10, 4100, Control_c, 4, 11, 113
10, 4120, Control_c, 4, 11, 114
10, 4140, Control_c, 4, 11, 115
10, 4160, Control_c, 4, 11, 117
10, 4180, Control_c, 4, 11, 118
10, 4200, Control_c, 4, 11, 119
10, 4220, Control_c, 4, 11, 121
10, 4240, Control_c, 4, 11, 122
10, 4260, Control_c, 4, 11, 123
10, 4280, Control_c, 4, 11, 124
10, 4300, Control_c, 4, 11, 126
10, 4320, Control_c, 4, 11, 127
10, 4340, Control_c, 4, 11, 126
10, 4360, Control_c, 4, 11, 124
10, 4380, Control_c, 4, 11, 123
10, 4400, Control_c, 4, 11, 122
10, 4420, Control_c, 4, 11, 121
10, 4440, Control_c, 4, 11, 119
10, 4460, Control_c, 4, 11, 118
10, 4480, Control_c, 4, 11, 117
10, 4500, Control_c, 4, 11, 115
10, 4520, Control_c, 4, 11, 114
10, 4540, Control_c, 4, 11, 113
10, 4560, Control_c, 4, 11, 112
10, 4580, Control_c, 4, 11, 110
10, 4600, Control_c, 4, 11, 109
10, 4620, Control_c, 4, 11, 108
10, 4640, Control_c, 4, 11, 106
10, 4660, Control_c, 4, 11, 105
10, 4680, Control_c, 4, 11, 104
10, 4700, Control_c, 4, 11, 102
10, 4720, Control_c, 4, 11, 101
10, 4740, Control_c, 4, 11, 100
10, 4760, Control_c, 4, 11, 99
10, 4780, Control_c, 4, 11, 97
10, 4787, Note_on_c, 4, 46, 0
10, 4787, Note_on_c, 4, 34, 0
10, 4800, Note_on_c, 4, 53, 60
10, 4800, Note_on_c, 4, 41, 60
10, 4919, Note_on_c, 4, 53, 0
10, 4919, Note_on_c, 4, 41, 0
10, 8640, Control_c, 4, 11, 127
10, 9360, Note_on_c, 4, 41, 44
10, 9360, Note_on_c, 4, 53, 44
10, 9479, Note_on_c, 4, 41, 0
10, 9479, Note_on_c, 4, 53, 0
10, 9600, Note_on_c, 4, 53, 44
10, 9600, Note_on_c, 4, 41, 44
10, 9719, Note_on_c, 4, 53, 0
10, 9719, Note_on_c, 4, 41, 0
10, 10320, Note_on_c, 4, 53, 44
10, 10320, Note_on_c, 4, 41, 44
10, 10439, Note_on_c, 4, 53, 0
10, 10439, Note_on_c, 4, 41, 0
10, 10560, Note_on_c, 4, 41, 44
10, 10560, Note_on_c, 4, 53, 44
10, 10679, Note_on_c, 4, 41, 0
10, 10679, Note_on_c, 4, 53, 0
10, 10800, Note_on_c, 4, 41, 44
10, 10800, Note_on_c, 4, 53, 44
10, 10919, Note_on_c, 4, 41, 0
10, 10919, Note_on_c, 4, 53, 0
10, 11040, Note_on_c, 4, 41, 44
10, 11040, Note_on_c, 4, 53, 44
10, 11159, Note_on_c, 4, 41, 0
10, 11159, Note_on_c, 4, 53, 0
10, 11280, Note_on_c, 4, 53, 44
10, 11280, Note_on_c, 4, 41, 44
10, 11399, Note_on_c, 4, 53, 0
10, 11399, Note_on_c, 4, 41, 0
10, 11520, Note_on_c, 4, 46, 76
10, 11520, Note_on_c, 4, 34, 76
10, 11550, Control_c, 4, 11, 80
10, 12479, Note_on_c, 4, 46, 0
10, 12479, Note_on_c, 4, 34, 0
10, 12480, Note_on_c, 4, 34, 68
10, 12480, Note_on_c, 4, 46, 68
10, 13439, Note_on_c, 4, 34, 0
10, 13439, Note_on_c, 4, 46, 0
10, 13440, Note_on_c, 4, 34, 68
10, 13440, Note_on_c, 4, 46, 68
10, 14399, Note_on_c, 4, 34, 0
10, 14399, Note_on_c, 4, 46, 0
10, 14400, Note_on_c, 4, 34, 68
10, 14400, Note_on_c, 4, 46, 68
10, 15359, Note_on_c, 4, 34, 0
10, 15359, Note_on_c, 4, 46, 0
10, 15360, Note_on_c, 4, 34, 68
10, 15360, Note_on_c, 4, 46, 68
10, 16439, Note_on_c, 4, 34, 0
10, 16439, Note_on_c, 4, 46, 0
10, 26880, Control_c, 4, 11, 127
10, 27600, Note_on_c, 4, 65, 68
10, 27600, Note_on_c, 4, 58, 68
10, 27630, Control_c, 4, 11, 96
10, 28547, Note_on_c, 4, 65, 0
10, 28547, Note_on_c, 4, 58, 0
10, 28552, Control_c, 4, 11, 127
10, 28560, Note_on_c, 4, 65, 68
10, 28560, Note_on_c, 4, 58, 68
10, 28590, Control_c, 4, 11, 96
10, 28799, Note_on_c, 4, 65, 0
10, 28799, Note_on_c, 4, 58, 0
10, 33360, Control_c, 4, 11, 127
10, 33600, Note_on_c, 4, 53, 84
10, 33600, Note_on_c, 4, 65, 84
10, 34487, Note_on_c, 4, 53, 0
10, 34487, Note_on_c, 4, 65, 0
10, 34500, Note_on_c, 4, 65, 84
10, 34500, Note_on_c, 4, 53, 84
10, 34551, Note_on_c, 4, 65, 0
10, 34551, Note_on_c, 4, 53, 0
10, 34560, Note_on_c, 4, 53, 84
10, 34560, Note_on_c, 4, 65, 84
10, 34679, Note_on_c, 4, 53, 0
10, 34679, Note_on_c, 4, 65, 0
10, 35520, Note_on_c, 4, 60, 84
10, 35520, Note_on_c, 4, 53, 84
10, 36407, Note_on_c, 4, 60, 0
10, 36407, Note_on_c, 4, 53, 0
10, 36420, Note_on_c, 4, 60, 84
10, 36420, Note_on_c, 4, 53, 84
10, 36471, Note_on_c, 4, 60, 0
10, 36471, Note_on_c, 4, 53, 0
10, 36480, Note_on_c, 4, 53, 84
10, 36480, Note_on_c, 4, 60, 84
10, 36659, Note_on_c, 4, 53, 0
10, 36659, Note_on_c, 4, 60, 0
10, 37440, Note_on_c, 4, 53, 84
10, 37440, Note_on_c, 4, 60, 84
10, 37619, Note_on_c, 4, 53, 0
10, 37619, Note_on_c, 4, 60, 0
10, 38400, Note_on_c, 4, 60, 84
10, 38400, Note_on_c, 4, 53, 84
10, 38579, Note_on_c, 4, 60, 0
10, 38579, Note_on_c, 4, 53, 0
10, 38880, Note_on_c, 4, 60, 84
10, 38880, Note_on_c, 4, 53, 84
10, 39059, Note_on_c, 4, 60, 0
10, 39059, Note_on_c, 4, 53, 0
10, 39360, Note_on_c, 4, 53, 84
10, 39360, Note_on_c, 4, 60, 84
10, 39539, Note_on_c, 4, 53, 0
10, 39539, Note_on_c, 4, 60, 0
10, 39840, Note_on_c, 4, 60, 84
10, 39840, Note_on_c, 4, 53, 84
10, 40019, Note_on_c, 4, 60, 0
10, 40019, Note_on_c, 4, 53, 0
10, 40320, Note_on_c, 4, 62, 84
10, 40320, Note_on_c, 4, 58, 84
10, 40409, Note_on_c, 4, 62, 0
10, 40409, Note_on_c, 4, 58, 0
10, 45840, Note_on_c, 4, 60, 52
10, 46064, Note_on_c, 4, 60, 0
10, 46080, Note_on_c, 4, 60, 52
10, 46080, Note_on_c, 4, 53, 52
10, 47984, Note_on_c, 4, 60, 0
10, 47984, Note_on_c, 4, 53, 0
10, 48000, Note_on_c, 4, 60, 84
10, 48000, Note_on_c, 4, 53, 84
10, 48179, Note_on_c, 4, 60, 0
10, 48179, Note_on_c, 4, 53, 0
10, 48960, Note_on_c, 4, 53, 84
10, 48960, Note_on_c, 4, 60, 84
10, 49139, Note_on_c, 4, 53, 0
10, 49139, Note_on_c, 4, 60, 0
10, 49440, Note_on_c, 4, 53, 84
10, 49440, Note_on_c, 4, 60, 84
10, 49619, Note_on_c, 4, 53, 0
10, 49619, Note_on_c, 4, 60, 0
10, 49920, Note_on_c, 4, 62, 84
10, 49920, Note_on_c, 4, 58, 84
10, 50039, Note_on_c, 4, 62, 0
10, 50039, Note_on_c, 4, 58, 0
10, 50160, Note_on_c, 4, 46, 84
10, 50160, Note_on_c, 4, 58, 84
10, 50279, Note_on_c, 4, 46, 0
10, 50279, Note_on_c, 4, 58, 0
10, 50400, Note_on_c, 4, 58, 84
10, 50400, Note_on_c, 4, 46, 84
10, 50519, Note_on_c, 4, 58, 0
10, 50519, Note_on_c, 4, 46, 0
10, 50640, Note_on_c, 4, 58, 84
10, 50640, Note_on_c, 4, 46, 84
10, 50759, Note_on_c, 4, 58, 0
10, 50759, Note_on_c, 4, 46, 0
10, 50880, Note_on_c, 4, 58, 84
10, 50880, Note_on_c, 4, 46, 84
10, 50999, Note_on_c, 4, 58, 0
10, 50999, Note_on_c, 4, 46, 0
10, 51120, Note_on_c, 4, 46, 84
10, 51120, Note_on_c, 4, 58, 84
10, 51239, Note_on_c, 4, 46, 0
10, 51239, Note_on_c, 4, 58, 0
10, 51360, Note_on_c, 4, 46, 84
10, 51360, Note_on_c, 4, 58, 84
10, 51479, Note_on_c, 4, 46, 0
10, 51479, Note_on_c, 4, 58, 0
10, 51600, Note_on_c, 4, 58, 84
10, 51600, Note_on_c, 4, 46, 84
10, 51719, Note_on_c, 4, 58, 0
10, 51719, Note_on_c, 4, 46, 0
10, 51840, Note_on_c, 4, 58, 84
10, 51840, Note_on_c, 4, 46, 84
10, 51959, Note_on_c, 4, 58, 0
10, 51959, Note_on_c, 4, 46, 0
10, 52080, Note_on_c, 4, 46, 84
10, 52080, Note_on_c, 4, 58, 84
10, 52199, Note_on_c, 4, 46, 0
10, 52199, Note_on_c, 4, 58, 0
10, 52320, Note_on_c, 4, 46, 84
10, 52320, Note_on_c, 4, 58, 84
10, 52439, Note_on_c, 4, 46, 0
10, 52439, Note_on_c, 4, 58, 0
10, 52560, Note_on_c, 4, 58, 84
10, 52560, Note_on_c, 4, 46, 84
10, 52679, Note_on_c, 4, 58, 0
10, 52679, Note_on_c, 4, 46, 0
10, 52800, Note_on_c, 4, 53, 84
10, 52800, Note_on_c, 4, 60, 84
10, 52919, Note_on_c, 4, 53, 0
10, 52919, Note_on_c, 4, 60, 0
10, 53040, Note_on_c, 4, 60, 84
10, 53040, Note_on_c, 4, 53, 84
10, 53159, Note_on_c, 4, 60, 0
10, 53159, Note_on_c, 4, 53, 0
10, 53280, Note_on_c, 4, 53, 84
10, 53280, Note_on_c, 4, 60, 84
10, 53399, Note_on_c, 4, 53, 0
10, 53399, Note_on_c, 4, 60, 0
10, 53520, Note_on_c, 4, 53, 84
10, 53520, Note_on_c, 4, 60, 84
10, 53639, Note_on_c, 4, 53, 0
10, 53639, Note_on_c, 4, 60, 0
10, 53760, Note_on_c, 4, 58, 84
10, 53760, Note_on_c, 4, 50, 84
10, 53999, Note_on_c, 4, 58, 0
10, 53999, Note_on_c, 4, 50, 0
10, 55200, Note_on_c, 4, 58, 84
10, 55200, Note_on_c, 4, 62, 84
10, 55424, Note_on_c, 4, 58, 0
10, 55424, Note_on_c, 4, 62, 0
10, 55440, Note_on_c, 4, 60, 84
10, 55440, Note_on_c, 4, 58, 84
10, 55664, Note_on_c, 4, 60, 0
10, 55664, Note_on_c, 4, 58, 0
10, 55680, Note_on_c, 4, 53, 92
10, 55680, Note_on_c, 4, 60, 92
10, 57839, Note_on_c, 4, 53, 0
10, 57839, Note_on_c, 4, 60, 0
10, 58080, Note_on_c, 4, 60, 84
10, 58080, Note_on_c, 4, 53, 84
10, 58319, Note_on_c, 4, 60, 0
10, 58319, Note_on_c, 4, 53, 0
10, 59040, Note_on_c, 4, 50, 84
10, 59040, Note_on_c, 4, 58, 84
10, 59279, Note_on_c, 4, 50, 0
10, 59279, Note_on_c, 4, 58, 0
10, 60000, Note_on_c, 4, 63, 84
10, 60000, Note_on_c, 4, 60, 84
10, 60239, Note_on_c, 4, 63, 0
10, 60239, Note_on_c, 4, 60, 0
10, 60960, Note_on_c, 4, 53, 84
10, 60960, Note_on_c, 4, 60, 84
10, 61199, Note_on_c, 4, 53, 0
10, 61199, Note_on_c, 4, 60, 0
10, 61440, Note_on_c, 4, 58, 44
10, 61440, Note_on_c, 4, 46, 44
10, 65264, Note_on_c, 4, 58, 0
10, 65264, Note_on_c, 4, 46, 0
10, 65280, Note_on_c, 4, 58, 44
10, 65280, Note_on_c, 4, 46, 44
10, 69104, Note_on_c, 4, 58, 0
10, 69104, Note_on_c, 4, 46, 0
10, 69120, Note_on_c, 4, 46, 44
10, 69120, Note_on_c, 4, 58, 44
10, 71024, Note_on_c, 4, 46, 0
10, 71024, Note_on_c, 4, 58, 0
10, 71040, Note_on_c, 4, 46, 44
10, 71040, Note_on_c, 4, 58, 44
10, 72944, Note_on_c, 4, 46, 0
10, 72944, Note_on_c, 4, 58, 0
10, 72952, Control_c, 4, 11, 64
10, 72960, Note_on_c, 4, 58, 84
10, 72960, Note_on_c, 4, 46, 84
10, 72960, Control_c, 4, 11, 64
10, 73067, Control_c, 4, 11, 66
10, 73173, Control_c, 4, 11, 68
10, 73280, Control_c, 4, 11, 69
10, 73387, Control_c, 4, 11, 71
10, 73424, Note_on_c, 4, 58, 0
10, 73424, Note_on_c, 4, 46, 0
10, 73440, Note_on_c, 4, 46, 84
10, 73440, Note_on_c, 4, 58, 84
10, 73493, Control_c, 4, 11, 73
10, 73600, Control_c, 4, 11, 75
10, 73707, Control_c, 4, 11, 76
10, 73813, Control_c, 4, 11, 78
10, 73904, Note_on_c, 4, 46, 0
10, 73904, Note_on_c, 4, 58, 0
10, 73920, Control_c, 4, 11, 80
10, 73920, Note_on_c, 4, 46, 84
10, 73920, Note_on_c, 4, 58, 84
10, 74027, Control_c, 4, 11, 82
10, 74133, Control_c, 4, 11, 83
10, 74240, Control_c, 4, 11, 85
10, 74347, Control_c, 4, 11, 87
10, 74384, Note_on_c, 4, 46, 0
10, 74384, Note_on_c, 4, 58, 0
10, 74400, Note_on_c, 4, 46, 84
10, 74400, Note_on_c, 4, 58, 84
10, 74453, Control_c, 4, 11, 89
10, 74560, Control_c, 4, 11, 90
10, 74667, Control_c, 4, 11, 92
10, 74773, Control_c, 4, 11, 94
10, 74864, Note_on_c, 4, 46, 0
10, 74864, Note_on_c, 4, 58, 0
10, 74880, Note_on_c, 4, 53, 84
10, 74880, Note_on_c, 4, 60, 84
10, 74880, Control_c, 4, 11, 96
10, 74987, Control_c, 4, 11, 97
10, 75093, Control_c, 4, 11, 99
10, 75200, Control_c, 4, 11, 101
10, 75307, Control_c, 4, 11, 103
10, 75344, Note_on_c, 4, 53, 0
10, 75344, Note_on_c, 4, 60, 0
10, 75360, Note_on_c, 4, 53, 84
10, 75360, Note_on_c, 4, 60, 84
10, 75413, Control_c, 4, 11, 104
10, 75520, Control_c, 4, 11, 106
10, 75627, Control_c, 4, 11, 108
10, 75733, Control_c, 4, 11, 110
10, 75824, Note_on_c, 4, 53, 0
10, 75824, Note_on_c, 4, 60, 0
10, 75840, Control_c, 4, 11, 111
10, 75840, Note_on_c, 4, 60, 84
10, 75840, Note_on_c, 4, 53, 84
10, 75947, Control_c, 4, 11, 113
10, 76053, Control_c, 4, 11, 115
10, 76160, Control_c, 4, 11, 117
10, 76267, Control_c, 4, 11, 118
10, 76304, Note_on_c, 4, 60, 0
10, 76304, Note_on_c, 4, 53, 0
10, 76320, Note_on_c, 4, 60, 84
10, 76320, Note_on_c, 4, 53, 84
10, 76373, Control_c, 4, 11, 120
10, 76480, Control_c, 4, 11, 122
10, 76587, Control_c, 4, 11, 124
10, 76693, Control_c, 4, 11, 127
10, 76784, Note_on_c, 4, 60, 0
10, 76784, Note_on_c, 4, 53, 0
10, 76800, Note_on_c, 4, 50, 84
10, 76800, Note_on_c, 4, 58, 84
10, 77024, Note_on_c, 4, 50, 0
10, 77024, Note_on_c, 4, 58, 0
10, 77040, Note_on_c, 4, 46, 84
10, 77040, Note_on_c, 4, 58, 84
10, 77264, Note_on_c, 4, 46, 0
10, 77264, Note_on_c, 4, 58, 0
10, 77280, Note_on_c, 4, 58, 84
10, 77280, Note_on_c, 4, 46, 84
10, 77504, Note_on_c, 4, 58, 0
10, 77504, Note_on_c, 4, 46, 0
10, 77520, Note_on_c, 4, 46, 84
10, 77520, Note_on_c, 4, 58, 84
10, 77744, Note_on_c, 4, 46, 0
10, 77744, Note_on_c, 4, 58, 0
10, 77760, Note_on_c, 4, 46, 84
10, 77760, Note_on_c, 4, 58, 84
10, 77984, Note_on_c, 4, 46, 0
10, 77984, Note_on_c, 4, 58, 0
10, 78000, Note_on_c, 4, 46, 84
10, 78000, Note_on_c, 4, 58, 84
10, 78224, Note_on_c, 4, 46, 0
10, 78224, Note_on_c, 4, 58, 0
10, 78240, Note_on_c, 4, 46, 84
10, 78240, Note_on_c, 4, 58, 84
10, 78464, Note_on_c, 4, 46, 0
10, 78464, Note_on_c, 4, 58, 0
10, 78480, Note_on_c, 4, 58, 84
10, 78480, Note_on_c, 4, 46, 84
10, 78704, Note_on_c, 4, 58, 0
10, 78704, Note_on_c, 4, 46, 0
10, 78720, Note_on_c, 4, 46, 84
10, 78720, Note_on_c, 4, 58, 84
10, 78839, Note_on_c, 4, 46, 0
10, 78839, Note_on_c, 4, 58, 0
10, 78960, Note_on_c, 4, 58, 84
10, 78960, Note_on_c, 4, 46, 84
10, 79079, Note_on_c, 4, 58, 0
10, 79079, Note_on_c, 4, 46, 0
10, 79200, Note_on_c, 4, 58, 84
10, 79200, Note_on_c, 4, 46, 84
10, 79319, Note_on_c, 4, 58, 0
10, 79319, Note_on_c, 4, 46, 0
10, 79440, Note_on_c, 4, 58, 84
10, 79440, Note_on_c, 4, 46, 84
10, 79559, Note_on_c, 4, 58, 0
10, 79559, Note_on_c, 4, 46, 0
10, 79680, Note_on_c, 4, 53, 84
10, 79680, Note_on_c, 4, 41, 84
10, 79799, Note_on_c, 4, 53, 0
10, 79799, Note_on_c, 4, 41, 0
10, 79920, Note_on_c, 4, 53, 84
10, 79920, Note_on_c, 4, 41, 84
10, 80039, Note_on_c, 4, 53, 0
10, 80039, Note_on_c, 4, 41, 0
10, 80160, Note_on_c, 4, 53, 84
10, 80160, Note_on_c, 4, 41, 84
10, 80279, Note_on_c, 4, 53, 0
10, 80279, Note_on_c, 4, 41, 0
10, 80400, Note_on_c, 4, 53, 84
10, 80400, Note_on_c, 4, 41, 84
10, 80519, Note_on_c, 4, 53, 0
10, 80519, Note_on_c, 4, 41, 0
10, 80640, Note_on_c, 4, 58, 92
10, 80640, Note_on_c, 4, 46, 92
10, 82529, Note_on_c, 4, 58, 0
10, 82529, Note_on_c, 4, 46, 0
10, 82560, Note_on_c, 4, 58, 92
10, 82560, Note_on_c, 4, 46, 92
10, 83489, Note_on_c, 4, 58, 0
10, 83489, Note_on_c, 4, 46, 0
10, 83520, Note_on_c, 4, 53, 92
10, 83520, Note_on_c, 4, 41, 92
10, 84449, Note_on_c, 4, 53, 0
10, 84449, Note_on_c, 4, 41, 0
10, 84480, Note_on_c, 4, 58, 92
10, 84480, Note_on_c, 4, 46, 92
10, 85409, Note_on_c, 4, 58, 0
10, 85409, Note_on_c, 4, 46, 0
10, 86400, Note_on_c, 4, 53, 92
10, 86400, Note_on_c, 4, 65, 92
10, 87329, Note_on_c, 4, 53, 0
10, 87329, Note_on_c, 4, 65, 0
10, 87360, Note_on_c, 4, 60, 84
10, 87584, Note_on_c, 4, 60, 0
10, 87600, Note_on_c, 4, 60, 84
10, 87824, Note_on_c, 4, 60, 0
10, 87840, Note_on_c, 4, 60, 84
10, 88064, Note_on_c, 4, 60, 0
10, 88080, Note_on_c, 4, 60, 84
10, 88304, Note_on_c, 4, 60, 0
10, 88320, Note_on_c, 4, 60, 84
10, 88544, Note_on_c, 4, 60, 0
10, 88560, Note_on_c, 4, 60, 84
10, 88784, Note_on_c, 4, 60, 0
10, 88800, Note_on_c, 4, 60, 84
10, 89024, Note_on_c, 4, 60, 0
10, 89040, Note_on_c, 4, 60, 84
10, 89264, Note_on_c, 4, 60, 0
10, 89280, Note_on_c, 4, 60, 84
10, 89504, Note_on_c, 4, 60, 0
10, 89520, Note_on_c, 4, 60, 84
10, 89744, Note_on_c, 4, 60, 0
10, 89760, Note_on_c, 4, 60, 84
10, 89984, Note_on_c, 4, 60, 0
10, 90000, Note_on_c, 4, 60, 84
10, 90224, Note_on_c, 4, 60, 0
10, 90240, Note_on_c, 4, 60, 84
10, 90464, Note_on_c, 4, 60, 0
10, 90480, Note_on_c, 4, 60, 92
10, 90929, Note_on_c, 4, 60, 0
10, 90960, Note_on_c, 4, 60, 84
10, 91424, Note_on_c, 4, 60, 0
10, 91440, Note_on_c, 4, 60, 84
10, 91904, Note_on_c, 4, 60, 0
10, 91920, Note_on_c, 4, 60, 84
10, 92384, Note_on_c, 4, 60, 0
10, 92400, Note_on_c, 4, 60, 84
10, 92864, Note_on_c, 4, 60, 0
10, 92880, Note_on_c, 4, 60, 84
10, 93344, Note_on_c, 4, 60, 0
10, 93360, Note_on_c, 4, 60, 92
10, 93809, Note_on_c, 4, 60, 0
10, 93840, Note_on_c, 4, 60, 84
10, 94019, Note_on_c, 4, 60, 0
10, 94080, Note_on_c, 4, 60, 84
10, 94259, Note_on_c, 4, 60, 0
10, 94320, Note_on_c, 4, 60, 84
10, 94784, Note_on_c, 4, 60, 0
10, 94800, Note_on_c, 4, 60, 84
10, 95264, Note_on_c, 4, 60, 0
10, 95280, Note_on_c, 4, 60, 84
10, 95744, Note_on_c, 4, 60, 0
10, 95760, Note_on_c, 4, 60, 84
10, 96224, Note_on_c, 4, 60, 0
10, 96240, Note_on_c, 4, 60, 84
10, 96704, Note_on_c, 4, 60, 0
10, 96720, Note_on_c, 4, 60, 84
10, 97184, Note_on_c, 4, 60, 0
10, 97200, Note_on_c, 4, 60, 92
10, 97649, Note_on_c, 4, 60, 0
10, 97680, Note_on_c, 4, 60, 84
10, 97904, Note_on_c, 4, 60, 0
10, 97920, Note_on_c, 4, 60, 84
10, 98159, Note_on_c, 4, 60, 0
10, 125760, Note_on_c, 4, 60, 76
10, 126119, Note_on_c, 4, 60, 0
10, 126240, Note_on_c, 4, 60, 76
10, 126599, Note_on_c, 4, 60, 0
10, 126720, Note_on_c, 4, 60, 76
10, 127079, Note_on_c, 4, 60, 0
10, 127200, Note_on_c, 4, 60, 76
10, 127559, Note_on_c, 4, 60, 0
10, 127680, Note_on_c, 4, 60, 76
10, 128039, Note_on_c, 4, 60, 0
10, 128160, Note_on_c, 4, 60, 76
10, 128519, Note_on_c, 4, 60, 0
10, 128640, Note_on_c, 4, 60, 76
10, 128640, Note_on_c, 4, 53, 76
10, 128879, Note_on_c, 4, 60, 0
10, 128879, Note_on_c, 4, 53, 0
10, 129600, Note_on_c, 4, 62, 76
10, 129600, Note_on_c, 4, 53, 76
10, 129839, Note_on_c, 4, 62, 0
10, 129839, Note_on_c, 4, 53, 0
10, 130560, Note_on_c, 4, 60, 76
10, 130560, Note_on_c, 4, 53, 76
10, 130799, Note_on_c, 4, 60, 0
10, 130799, Note_on_c, 4, 53, 0
10, 131280, Note_on_c, 4, 60, 76
10, 131504, Note_on_c, 4, 60, 0
10, 131520, Note_on_c, 4, 60, 76
10, 131744, Note_on_c, 4, 60, 0
10, 131760, Note_on_c, 4, 60, 76
10, 131984, Note_on_c, 4, 60, 0
10, 132000, Note_on_c, 4, 60, 76
10, 132224, Note_on_c, 4, 60, 0
10, 132240, Note_on_c, 4, 60, 76
10, 132464, Note_on_c, 4, 60, 0
10, 132480, Note_on_c, 4, 53, 76
10, 132480, Note_on_c, 4, 60, 76
10, 132719, Note_on_c, 4, 53, 0
10, 132719, Note_on_c, 4, 60, 0
10, 132960, Note_on_c, 4, 53, 76
10, 132960, Note_on_c, 4, 62, 76
10, 133199, Note_on_c, 4, 53, 0
10, 133199, Note_on_c, 4, 62, 0
10, 133440, Note_on_c, 4, 53, 76
10, 133440, Note_on_c, 4, 60, 76
10, 133679, Note_on_c, 4, 53, 0
10, 133679, Note_on_c, 4, 60, 0
10, 133920, Note_on_c, 4, 60, 76
10, 134159, Note_on_c, 4, 60, 0
10, 134400, Note_on_c, 4, 60, 52
10, 134400, Note_on_c, 4, 53, 52
10, 134639, Note_on_c, 4, 60, 0
10, 134639, Note_on_c, 4, 53, 0
10, 153600, Note_on_c, 4, 53, 84
10, 153600, Note_on_c, 4, 65, 84
10, 153839, Note_on_c, 4, 53, 0
10, 153839, Note_on_c, 4, 65, 0
10, 154320, Note_on_c, 4, 65, 84
10, 154320, Note_on_c, 4, 53, 84
10, 154544, Note_on_c, 4, 65, 0
10, 154544, Note_on_c, 4, 53, 0
10, 154560, Note_on_c, 4, 65, 84
10, 154560, Note_on_c, 4, 53, 84
10, 154799, Note_on_c, 4, 65, 0
10, 154799, Note_on_c, 4, 53, 0
10, 155040, Note_on_c, 4, 60, 84
10, 155279, Note_on_c, 4, 60, 0
10, 157440, Note_on_c, 4, 65, 84
10, 157440, Note_on_c, 4, 53, 84
10, 157679, Note_on_c, 4, 65, 0
10, 157679, Note_on_c, 4, 53, 0
10, 158160, Note_on_c, 4, 65, 84
10, 158160, Note_on_c, 4, 53, 84
10, 158384, Note_on_c, 4, 65, 0
10, 158384, Note_on_c, 4, 53, 0
10, 158400, Note_on_c, 4, 65, 84
10, 158400, Note_on_c, 4, 53, 84
10, 158639, Note_on_c, 4, 65, 0
10, 158639, Note_on_c, 4, 53, 0
10, 158880, Note_on_c, 4, 60, 84
10, 159119, Note_on_c, 4, 60, 0
10, 162240, Note_on_c, 4, 60, 76
10, 163184, Note_on_c, 4, 60, 0
10, 163200, Note_on_c, 4, 60, 76
10, 164144, Note_on_c, 4, 60, 0
10, 164160, Note_on_c, 4, 60, 76
10, 165104, Note_on_c, 4, 60, 0
10, 165120, Note_on_c, 4, 65, 84
10, 165120, Note_on_c, 4, 53, 84
10, 167024, Note_on_c, 4, 65, 0
10, 167024, Note_on_c, 4, 53, 0
10, 167040, Note_on_c, 4, 53, 84
10, 167040, Note_on_c, 4, 65, 84
10, 167984, Note_on_c, 4, 53, 0
10, 167984, Note_on_c, 4, 65, 0
10, 168000, Note_on_c, 4, 60, 84
10, 168944, Note_on_c, 4, 60, 0
10, 168960, Note_on_c, 4, 53, 84
10, 168960, Note_on_c, 4, 60, 84
10, 169199, Note_on_c, 4, 53, 0
10, 169199, Note_on_c, 4, 60, 0
10, 172080, Note_on_c, 4, 60, 76
10, 172544, Note_on_c, 4, 60, 0
10, 172560, Note_on_c, 4, 60, 76
10, 172739, Note_on_c, 4, 60, 0
10, 172800, Note_on_c, 4, 53, 76
10, 172800, Note_on_c, 4, 60, 76
10, 172979, Note_on_c, 4, 53, 0
10, 172979, Note_on_c, 4, 60, 0
10, 175920, Note_on_c, 4, 60, 76
10, 176384, Note_on_c, 4, 60, 0
10, 176400, Note_on_c, 4, 60, 76
10, 176624, Note_on_c, 4, 60, 0
10, 176640, Note_on_c, 4, 60, 76
10, 176640, Note_on_c, 4, 53, 76
10, 176879, Note_on_c, 4, 60, 0
10, 176879, Note_on_c, 4, 53, 0
10, 177840, Note_on_c, 4, 60, 76
10, 178304, Note_on_c, 4, 60, 0
10, 178320, Note_on_c, 4, 60, 76
10, 178544, Note_on_c, 4, 60, 0
10, 178560, Note_on_c, 4, 53, 84
10, 178560, Note_on_c, 4, 60, 84
10, 180407, Note_on_c, 4, 53, 0
10, 180407, Note_on_c, 4, 60, 0
10, 180420, Note_on_c, 4, 60, 84
10, 180420, Note_on_c, 4, 53, 84
10, 180471, Note_on_c, 4, 60, 0
10, 180471, Note_on_c, 4, 53, 0
10, 180480, Note_on_c, 4, 60, 84
10, 180480, Note_on_c, 4, 53, 84
10, 180719, Note_on_c, 4, 60, 0
10, 180719, Note_on_c, 4, 53, 0
10, 182400, Note_on_c, 4, 60, 84
10, 182400, Note_on_c, 4, 53, 84
10, 184247, Note_on_c, 4, 60, 0
10, 184247, Note_on_c, 4, 53, 0
10, 184260, Note_on_c, 4, 60, 84
10, 184260, Note_on_c, 4, 53, 84
10, 184311, Note_on_c, 4, 60, 0
10, 184311, Note_on_c, 4, 53, 0
10, 184320, Note_on_c, 4, 53, 84
10, 184320, Note_on_c, 4, 60, 84
10, 184559, Note_on_c, 4, 53, 0
10, 184559, Note_on_c, 4, 60, 0
10, 185280, Note_on_c, 4, 53, 84
10, 185280, Note_on_c, 4, 60, 84
10, 185459, Note_on_c, 4, 53, 0
10, 185459, Note_on_c, 4, 60, 0
10, 186240, Note_on_c, 4, 60, 84
10, 186240, Note_on_c, 4, 53, 84
10, 186419, Note_on_c, 4, 60, 0
10, 186419, Note_on_c, 4, 53, 0
10, 186720, Note_on_c, 4, 53, 84
10, 186720, Note_on_c, 4, 60, 84
10, 186899, Note_on_c, 4, 53, 0
10, 186899, Note_on_c, 4, 60, 0
10, 187200, Note_on_c, 4, 60, 84
10, 187200, Note_on_c, 4, 53, 84
10, 187379, Note_on_c, 4, 60, 0
10, 187379, Note_on_c, 4, 53, 0
10, 187680, Note_on_c, 4, 53, 84
10, 187680, Note_on_c, 4, 60, 84
10, 187859, Note_on_c, 4, 53, 0
10, 187859, Note_on_c, 4, 60, 0
10, 188160, Note_on_c, 4, 58, 84
10, 188160, Note_on_c, 4, 62, 84
10, 188339, Note_on_c, 4, 58, 0
10, 188339, Note_on_c, 4, 62, 0
10, 193680, Note_on_c, 4, 60, 52
10, 193904, Note_on_c, 4, 60, 0
10, 193920, Note_on_c, 4, 60, 52
10, 193920, Note_on_c, 4, 53, 52
10, 195824, Note_on_c, 4, 60, 0
10, 195824, Note_on_c, 4, 53, 0
10, 195840, Note_on_c, 4, 53, 84
10, 195840, Note_on_c, 4, 60, 84
10, 196019, Note_on_c, 4, 53, 0
10, 196019, Note_on_c, 4, 60, 0
10, 196800, Note_on_c, 4, 53, 84
10, 196800, Note_on_c, 4, 60, 84
10, 196979, Note_on_c, 4, 53, 0
10, 196979, Note_on_c, 4, 60, 0
10, 197280, Note_on_c, 4, 53, 84
10, 197280, Note_on_c, 4, 60, 84
10, 197459, Note_on_c, 4, 53, 0
10, 197459, Note_on_c, 4, 60, 0
10, 197760, Note_on_c, 4, 62, 84
10, 197760, Note_on_c, 4, 58, 84
10, 197879, Note_on_c, 4, 62, 0
10, 197879, Note_on_c, 4, 58, 0
10, 198000, Note_on_c, 4, 46, 84
10, 198000, Note_on_c, 4, 58, 84
10, 198119, Note_on_c, 4, 46, 0
10, 198119, Note_on_c, 4, 58, 0
10, 198240, Note_on_c, 4, 46, 84
10, 198240, Note_on_c, 4, 58, 84
10, 198359, Note_on_c, 4, 46, 0
10, 198359, Note_on_c, 4, 58, 0
10, 198480, Note_on_c, 4, 46, 84
10, 198480, Note_on_c, 4, 58, 84
10, 198599, Note_on_c, 4, 46, 0
10, 198599, Note_on_c, 4, 58, 0
10, 198720, Note_on_c, 4, 46, 84
10, 198720, Note_on_c, 4, 58, 84
10, 198839, Note_on_c, 4, 46, 0
10, 198839, Note_on_c, 4, 58, 0
10, 198960, Note_on_c, 4, 46, 84
10, 198960, Note_on_c, 4, 58, 84
10, 199079, Note_on_c, 4, 46, 0
10, 199079, Note_on_c, 4, 58, 0
10, 199200, Note_on_c, 4, 58, 84
10, 199200, Note_on_c, 4, 46, 84
10, 199319, Note_on_c, 4, 58, 0
10, 199319, Note_on_c, 4, 46, 0
10, 199440, Note_on_c, 4, 58, 84
10, 199440, Note_on_c, 4, 46, 84
10, 199559, Note_on_c, 4, 58, 0
10, 199559, Note_on_c, 4, 46, 0
10, 199680, Note_on_c, 4, 46, 84
10, 199680, Note_on_c, 4, 58, 84
10, 199799, Note_on_c, 4, 46, 0
10, 199799, Note_on_c, 4, 58, 0
10, 199920, Note_on_c, 4, 46, 84
10, 199920, Note_on_c, 4, 58, 84
10, 200039, Note_on_c, 4, 46, 0
10, 200039, Note_on_c, 4, 58, 0
10, 200160, Note_on_c, 4, 46, 84
10, 200160, Note_on_c, 4, 58, 84
10, 200279, Note_on_c, 4, 46, 0
10, 200279, Note_on_c, 4, 58, 0
10, 200400, Note_on_c, 4, 58, 84
10, 200400, Note_on_c, 4, 46, 84
10, 200519, Note_on_c, 4, 58, 0
10, 200519, Note_on_c, 4, 46, 0
10, 200640, Note_on_c, 4, 60, 84
10, 200640, Note_on_c, 4, 53, 84
10, 200759, Note_on_c, 4, 60, 0
10, 200759, Note_on_c, 4, 53, 0
10, 200880, Note_on_c, 4, 60, 84
10, 200880, Note_on_c, 4, 53, 84
10, 200999, Note_on_c, 4, 60, 0
10, 200999, Note_on_c, 4, 53, 0
10, 201120, Note_on_c, 4, 60, 84
10, 201120, Note_on_c, 4, 53, 84
10, 201239, Note_on_c, 4, 60, 0
10, 201239, Note_on_c, 4, 53, 0
10, 201360, Note_on_c, 4, 60, 84
10, 201360, Note_on_c, 4, 53, 84
10, 201479, Note_on_c, 4, 60, 0
10, 201479, Note_on_c, 4, 53, 0
10, 201600, Note_on_c, 4, 58, 84
10, 201600, Note_on_c, 4, 50, 84
10, 201839, Note_on_c, 4, 58, 0
10, 201839, Note_on_c, 4, 50, 0
10, 203040, Note_on_c, 4, 58, 84
10, 203040, Note_on_c, 4, 62, 84
10, 203264, Note_on_c, 4, 58, 0
10, 203264, Note_on_c, 4, 62, 0
10, 203280, Note_on_c, 4, 60, 84
10, 203280, Note_on_c, 4, 58, 84
10, 203504, Note_on_c, 4, 60, 0
10, 203504, Note_on_c, 4, 58, 0
10, 203520, Note_on_c, 4, 53, 92
10, 203520, Note_on_c, 4, 60, 92
10, 205679, Note_on_c, 4, 53, 0
10, 205679, Note_on_c, 4, 60, 0
10, 205920, Note_on_c, 4, 60, 84
10, 205920, Note_on_c, 4, 53, 84
10, 206159, Note_on_c, 4, 60, 0
10, 206159, Note_on_c, 4, 53, 0
10, 206880, Note_on_c, 4, 50, 84
10, 206880, Note_on_c, 4, 58, 84
10, 207119, Note_on_c, 4, 50, 0
10, 207119, Note_on_c, 4, 58, 0
10, 207840, Note_on_c, 4, 63, 84
10, 207840, Note_on_c, 4, 60, 84
10, 208079, Note_on_c, 4, 63, 0
10, 208079, Note_on_c, 4, 60, 0
10, 208800, Note_on_c, 4, 60, 84
10, 208800, Note_on_c, 4, 53, 84
10, 209039, Note_on_c, 4, 60, 0
10, 209039, Note_on_c, 4, 53, 0
10, 209280, Note_on_c, 4, 46, 44
10, 209280, Note_on_c, 4, 58, 44
10, 213104, Note_on_c, 4, 46, 0
10, 213104, Note_on_c, 4, 58, 0
10, 213120, Note_on_c, 4, 58, 44
10, 213120, Note_on_c, 4, 46, 44
10, 216944, Note_on_c, 4, 58, 0
10, 216944, Note_on_c, 4, 46, 0
10, 216960, Note_on_c, 4, 46, 44
10, 216960, Note_on_c, 4, 58, 44
10, 218864, Note_on_c, 4, 46, 0
10, 218864, Note_on_c, 4, 58, 0
10, 218880, Note_on_c, 4, 58, 44
10, 218880, Note_on_c, 4, 46, 44
10, 220784, Note_on_c, 4, 58, 0
10, 220784, Note_on_c, 4, 46, 0
10, 220792, Control_c, 4, 11, 64
10, 220800, Control_c, 4, 11, 64
10, 220800, Note_on_c, 4, 58, 84
10, 220800, Note_on_c, 4, 46, 84
10, 220907, Control_c, 4, 11, 66
10, 221013, Control_c, 4, 11, 68
10, 221120, Control_c, 4, 11, 69
10, 221227, Control_c, 4, 11, 71
10, 221264, Note_on_c, 4, 58, 0
10, 221264, Note_on_c, 4, 46, 0
10, 221280, Note_on_c, 4, 58, 84
10, 221280, Note_on_c, 4, 46, 84
10, 221333, Control_c, 4, 11, 73
10, 221440, Control_c, 4, 11, 75
10, 221547, Control_c, 4, 11, 76
10, 221653, Control_c, 4, 11, 78
10, 221744, Note_on_c, 4, 58, 0
10, 221744, Note_on_c, 4, 46, 0
10, 221760, Control_c, 4, 11, 80
10, 221760, Note_on_c, 4, 58, 84
10, 221760, Note_on_c, 4, 46, 84
10, 221867, Control_c, 4, 11, 82
10, 221973, Control_c, 4, 11, 83
10, 222080, Control_c, 4, 11, 85
10, 222187, Control_c, 4, 11, 87
10, 222224, Note_on_c, 4, 58, 0
10, 222224, Note_on_c, 4, 46, 0
10, 222240, Note_on_c, 4, 46, 84
10, 222240, Note_on_c, 4, 58, 84
10, 222293, Control_c, 4, 11, 89
10, 222400, Control_c, 4, 11, 90
10, 222507, Control_c, 4, 11, 92
10, 222613, Control_c, 4, 11, 94
10, 222704, Note_on_c, 4, 46, 0
10, 222704, Note_on_c, 4, 58, 0
10, 222720, Note_on_c, 4, 60, 84
10, 222720, Note_on_c, 4, 53, 84
10, 222720, Control_c, 4, 11, 96
10, 222827, Control_c, 4, 11, 97
10, 222933, Control_c, 4, 11, 99
10, 223040, Control_c, 4, 11, 101
10, 223147, Control_c, 4, 11, 103
10, 223184, Note_on_c, 4, 60, 0
10, 223184, Note_on_c, 4, 53, 0
10, 223200, Note_on_c, 4, 60, 84
10, 223200, Note_on_c, 4, 53, 84
10, 223253, Control_c, 4, 11, 104
10, 223360, Control_c, 4, 11, 106
10, 223467, Control_c, 4, 11, 108
10, 223573, Control_c, 4, 11, 110
10, 223664, Note_on_c, 4, 60, 0
10, 223664, Note_on_c, 4, 53, 0
10, 223680, Note_on_c, 4, 60, 84
10, 223680, Note_on_c, 4, 53, 84
10, 223680, Control_c, 4, 11, 111
10, 223787, Control_c, 4, 11, 113
10, 223893, Control_c, 4, 11, 115
10, 224000, Control_c, 4, 11, 117
10, 224107, Control_c, 4, 11, 118
10, 224144, Note_on_c, 4, 60, 0
10, 224144, Note_on_c, 4, 53, 0
10, 224160, Note_on_c, 4, 53, 84
10, 224160, Note_on_c, 4, 60, 84
10, 224213, Control_c, 4, 11, 120
10, 224320, Control_c, 4, 11, 122
10, 224427, Control_c, 4, 11, 124
10, 224533, Control_c, 4, 11, 127
10, 224624, Note_on_c, 4, 53, 0
10, 224624, Note_on_c, 4, 60, 0
10, 224640, Note_on_c, 4, 50, 84
10, 224640, Note_on_c, 4, 58, 84
10, 224864, Note_on_c, 4, 50, 0
10, 224864, Note_on_c, 4, 58, 0
10, 224880, Note_on_c, 4, 46, 84
10, 224880, Note_on_c, 4, 58, 84
10, 225104, Note_on_c, 4, 46, 0
10, 225104, Note_on_c, 4, 58, 0
10, 225120, Note_on_c, 4, 58, 84
10, 225120, Note_on_c, 4, 46, 84
10, 225344, Note_on_c, 4, 58, 0
10, 225344, Note_on_c, 4, 46, 0
10, 225360, Note_on_c, 4, 58, 84
10, 225360, Note_on_c, 4, 46, 84
10, 225584, Note_on_c, 4, 58, 0
10, 225584, Note_on_c, 4, 46, 0
10, 225600, Note_on_c, 4, 46, 84
10, 225600, Note_on_c, 4, 58, 84
10, 225824, Note_on_c, 4, 46, 0
10, 225824, Note_on_c, 4, 58, 0
10, 225840, Note_on_c, 4, 58, 84
10, 225840, Note_on_c, 4, 46, 84
10, 226064, Note_on_c, 4, 58, 0
10, 226064, Note_on_c, 4, 46, 0
10, 226080, Note_on_c, 4, 58, 84
10, 226080, Note_on_c, 4, 46, 84
10, 226304, Note_on_c, 4, 58, 0
10, 226304, Note_on_c, 4, 46, 0
10, 226320, Note_on_c, 4, 46, 84
10, 226320, Note_on_c, 4, 58, 84
10, 226544, Note_on_c, 4, 46, 0
10, 226544, Note_on_c, 4, 58, 0
10, 226560, Note_on_c, 4, 46, 84
10, 226560, Note_on_c, 4, 58, 84
10, 226679, Note_on_c, 4, 46, 0
10, 226679, Note_on_c, 4, 58, 0
10, 226800, Note_on_c, 4, 46, 84
10, 226800, Note_on_c, 4, 58, 84
10, 226919, Note_on_c, 4, 46, 0
10, 226919, Note_on_c, 4, 58, 0
10, 227040, Note_on_c, 4, 58, 84
10, 227040, Note_on_c, 4, 46, 84
10, 227159, Note_on_c, 4, 58, 0
10, 227159, Note_on_c, 4, 46, 0
10, 227280, Note_on_c, 4, 58, 84
10, 227280, Note_on_c, 4, 46, 84
10, 227399, Note_on_c, 4, 58, 0
10, 227399, Note_on_c, 4, 46, 0
10, 227520, Note_on_c, 4, 41, 84
10, 227520, Note_on_c, 4, 53, 84
10, 227639, Note_on_c, 4, 41, 0
10, 227639, Note_on_c, 4, 53, 0
10, 227760, Note_on_c, 4, 41, 84
10, 227760, Note_on_c, 4, 53, 84
10, 227879, Note_on_c, 4, 41, 0
10, 227879, Note_on_c, 4, 53, 0
10, 228000, Note_on_c, 4, 41, 84
10, 228000, Note_on_c, 4, 53, 84
10, 228119, Note_on_c, 4, 41, 0
10, 228119, Note_on_c, 4, 53, 0
10, 228240, Note_on_c, 4, 53, 84
10, 228240, Note_on_c, 4, 41, 84
10, 228359, Note_on_c, 4, 53, 0
10, 228359, Note_on_c, 4, 41, 0
10, 228480, Note_on_c, 4, 46, 92
10, 228480, Note_on_c, 4, 58, 92
10, 230369, Note_on_c, 4, 46, 0
10, 230369, Note_on_c, 4, 58, 0
10, 230400, Note_on_c, 4, 58, 92
10, 230400, Note_on_c, 4, 46, 92
10, 231329, Note_on_c, 4, 58, 0
10, 231329, Note_on_c, 4, 46, 0
10, 231360, Note_on_c, 4, 53, 92
10, 231360, Note_on_c, 4, 41, 92
10, 232289, Note_on_c, 4, 53, 0
10, 232289, Note_on_c, 4, 41, 0
10, 232320, Note_on_c, 4, 58, 92
10, 232320, Note_on_c, 4, 46, 92
10, 233249, Note_on_c, 4, 58, 0
10, 233249, Note_on_c, 4, 46, 0
10, 234240, Note_on_c, 4, 53, 92
10, 234240, Note_on_c, 4, 65, 92
10, 235169, Note_on_c, 4, 53, 0
10, 235169, Note_on_c, 4, 65, 0
10, 235200, Note_on_c, 4, 60, 84
10, 235424, Note_on_c, 4, 60, 0
10, 235440, Note_on_c, 4, 60, 84
10, 235664, Note_on_c, 4, 60, 0
10, 235680, Note_on_c, 4, 60, 84
10, 235904, Note_on_c, 4, 60, 0
10, 235920, Note_on_c, 4, 60, 84
10, 236144, Note_on_c, 4, 60, 0
10, 236160, Note_on_c, 4, 60, 84
10, 236384, Note_on_c, 4, 60, 0
10, 236400, Note_on_c, 4, 60, 84
10, 236624, Note_on_c, 4, 60, 0
10, 236640, Note_on_c, 4, 60, 84
10, 236864, Note_on_c, 4, 60, 0
10, 236880, Note_on_c, 4, 60, 84
10, 237104, Note_on_c, 4, 60, 0
10, 237120, Note_on_c, 4, 60, 84
10, 237344, Note_on_c, 4, 60, 0
10, 237360, Note_on_c, 4, 60, 84
10, 237584, Note_on_c, 4, 60, 0
10, 237600, Note_on_c, 4, 60, 84
10, 237824, Note_on_c, 4, 60, 0
10, 237840, Note_on_c, 4, 60, 84
10, 238064, Note_on_c, 4, 60, 0
10, 238080, Note_on_c, 4, 60, 84
10, 238304, Note_on_c, 4, 60, 0
10, 238320, Note_on_c, 4, 60, 92
10, 238769, Note_on_c, 4, 60, 0
10, 238800, Note_on_c, 4, 60, 84
10, 239264, Note_on_c, 4, 60, 0
10, 239280, Note_on_c, 4, 60, 84
10, 239744, Note_on_c, 4, 60, 0
10, 239760, Note_on_c, 4, 60, 84
10, 240224, Note_on_c, 4, 60, 0
10, 240240, Note_on_c, 4, 60, 84
10, 240704, Note_on_c, 4, 60, 0
10, 240720, Note_on_c, 4, 60, 84
10, 241184, Note_on_c, 4, 60, 0
10, 241200, Note_on_c, 4, 60, 92
10, 241649, Note_on_c, 4, 60, 0
10, 241680, Note_on_c, 4, 60, 84
10, 241859, Note_on_c, 4, 60, 0
10, 241920, Note_on_c, 4, 60, 84
10, 242099, Note_on_c, 4, 60, 0
10, 242160, Note_on_c, 4, 60, 84
10, 242624, Note_on_c, 4, 60, 0
10, 242640, Note_on_c, 4, 60, 84
10, 243104, Note_on_c, 4, 60, 0
10, 243120, Note_on_c, 4, 60, 84
10, 243584, Note_on_c, 4, 60, 0
10, 243600, Note_on_c, 4, 60, 84
10, 244064, Note_on_c, 4, 60, 0
10, 244080, Note_on_c, 4, 60, 84
10, 244544, Note_on_c, 4, 60, 0
10, 244560, Note_on_c, 4, 60, 84
10, 245024, Note_on_c, 4, 60, 0
10, 245040, Note_on_c, 4, 60, 92
10, 245489, Note_on_c, 4, 60, 0
10, 245520, Note_on_c, 4, 60, 84
10, 245744, Note_on_c, 4, 60, 0
10, 245760, Note_on_c, 4, 60, 84
10, 245999, Note_on_c, 4, 60, 0
10, 273600, Note_on_c, 4, 60, 76
10, 273959, Note_on_c, 4, 60, 0
10, 274080, Note_on_c, 4, 60, 76
10, 274439, Note_on_c, 4, 60, 0
10, 274560, Note_on_c, 4, 60, 76
10, 274919, Note_on_c, 4, 60, 0
10, 275040, Note_on_c, 4, 60, 76
10, 275399, Note_on_c, 4, 60, 0
10, 275520, Note_on_c, 4, 60, 76
10, 275879, Note_on_c, 4, 60, 0
10, 276000, Note_on_c, 4, 60, 76
10, 276359, Note_on_c, 4, 60, 0
10, 276480, Note_on_c, 4, 60, 76
10, 276480, Note_on_c, 4, 53, 76
10, 276719, Note_on_c, 4, 60, 0
10, 276719, Note_on_c, 4, 53, 0
10, 277440, Note_on_c, 4, 53, 76
10, 277440, Note_on_c, 4, 62, 76
10, 277679, Note_on_c, 4, 53, 0
10, 277679, Note_on_c, 4, 62, 0
10, 278400, Note_on_c, 4, 60, 76
10, 278400, Note_on_c, 4, 53, 76
10, 278639, Note_on_c, 4, 60, 0
10, 278639, Note_on_c, 4, 53, 0
10, 279120, Note_on_c, 4, 60, 76
10, 279344, Note_on_c, 4, 60, 0
10, 279360, Note_on_c, 4, 60, 76
10, 279584, Note_on_c, 4, 60, 0
10, 279600, Note_on_c, 4, 60, 76
10, 279824, Note_on_c, 4, 60, 0
10, 279840, Note_on_c, 4, 60, 76
10, 280064, Note_on_c, 4, 60, 0
10, 280080, Note_on_c, 4, 60, 76
10, 280304, Note_on_c, 4, 60, 0
10, 280320, Note_on_c, 4, 53, 76
10, 280320, Note_on_c, 4, 60, 76
10, 280559, Note_on_c, 4, 53, 0
10, 280559, Note_on_c, 4, 60, 0
10, 280800, Note_on_c, 4, 62, 76
10, 280800, Note_on_c, 4, 53, 76
10, 281039, Note_on_c, 4, 62, 0
10, 281039, Note_on_c, 4, 53, 0
10, 281280, Note_on_c, 4, 60, 76
10, 281280, Note_on_c, 4, 53, 76
10, 281519, Note_on_c, 4, 60, 0
10, 281519, Note_on_c, 4, 53, 0
10, 281760, Note_on_c, 4, 60, 76
10, 281999, Note_on_c, 4, 60, 0
10, 282240, Note_on_c, 4, 53, 52
10, 282240, Note_on_c, 4, 60, 52
10, 282479, Note_on_c, 4, 53, 0
10, 282479, Note_on_c, 4, 60, 0
10, 301440, Note_on_c, 4, 53, 84
10, 301440, Note_on_c, 4, 65, 84
10, 301679, Note_on_c, 4, 53, 0
10, 301679, Note_on_c, 4, 65, 0
10, 302160, Note_on_c, 4, 53, 84
10, 302160, Note_on_c, 4, 65, 84
10, 302384, Note_on_c, 4, 53, 0
10, 302384, Note_on_c, 4, 65, 0
10, 302400, Note_on_c, 4, 53, 84
10, 302400, Note_on_c, 4, 65, 84
10, 302639, Note_on_c, 4, 53, 0
10, 302639, Note_on_c, 4, 65, 0
10, 302880, Note_on_c, 4, 60, 84
10, 303119, Note_on_c, 4, 60, 0
10, 305280, Note_on_c, 4, 65, 84
10, 305280, Note_on_c, 4, 53, 84
10, 305519, Note_on_c, 4, 65, 0
10, 305519, Note_on_c, 4, 53, 0
10, 306000, Note_on_c, 4, 65, 84
10, 306000, Note_on_c, 4, 53, 84
10, 306224, Note_on_c, 4, 65, 0
10, 306224, Note_on_c, 4, 53, 0
10, 306240, Note_on_c, 4, 65, 84
10, 306240, Note_on_c, 4, 53, 84
10, 306479, Note_on_c, 4, 65, 0
10, 306479, Note_on_c, 4, 53, 0
10, 306720, Note_on_c, 4, 60, 84
10, 306959, Note_on_c, 4, 60, 0
10, 310080, Note_on_c, 4, 60, 76
10, 311024, Note_on_c, 4, 60, 0
10, 311040, Note_on_c, 4, 60, 76
10, 311984, Note_on_c, 4, 60, 0
10, 312000, Note_on_c, 4, 60, 76
10, 312944, Note_on_c, 4, 60, 0
10, 312960, Note_on_c, 4, 53, 84
10, 312960, Note_on_c, 4, 65, 84
10, 314864, Note_on_c, 4, 53, 0
10, 314864, Note_on_c, 4, 65, 0
10, 314880, Note_on_c, 4, 53, 84
10, 314880, Note_on_c, 4, 65, 84
10, 315824, Note_on_c, 4, 53, 0
10, 315824, Note_on_c, 4, 65, 0
10, 315840, Note_on_c, 4, 60, 84
10, 316784, Note_on_c, 4, 60, 0
10, 316800, Note_on_c, 4, 60, 84
10, 316800, Note_on_c, 4, 53, 84
10, 317039, Note_on_c, 4, 60, 0
10, 317039, Note_on_c, 4, 53, 0
10, 319920, Note_on_c, 4, 60, 76
10, 320384, Note_on_c, 4, 60, 0
10, 320400, Note_on_c, 4, 60, 76
10, 320579, Note_on_c, 4, 60, 0
10, 320640, Note_on_c, 4, 53, 76
10, 320640, Note_on_c, 4, 60, 76
10, 320819, Note_on_c, 4, 53, 0
10, 320819, Note_on_c, 4, 60, 0
10, 323760, Note_on_c, 4, 60, 76
10, 324224, Note_on_c, 4, 60, 0
10, 324240, Note_on_c, 4, 60, 76
10, 324464, Note_on_c, 4, 60, 0
10, 324480, Note_on_c, 4, 53, 76
10, 324480, Note_on_c, 4, 60, 76
10, 324719, Note_on_c, 4, 53, 0
10, 324719, Note_on_c, 4, 60, 0
10, 324960, Note_on_c, 4, 65, 76
10, 324960, Note_on_c, 4, 53, 76
10, 325199, Note_on_c, 4, 65, 0
10, 325199, Note_on_c, 4, 53, 0
10, 325440, Note_on_c, 4, 53, 76
10, 325440, Note_on_c, 4, 65, 76
10, 325679, Note_on_c, 4, 53, 0
10, 325679, Note_on_c, 4, 65, 0
10, 325920, Note_on_c, 4, 65, 76
10, 325920, Note_on_c, 4, 53, 76
10, 326159, Note_on_c, 4, 65, 0
10, 326159, Note_on_c, 4, 53, 0
10, 326400, Note_on_c, 4, 65, 76
10, 326400, Note_on_c, 4, 53, 76
10, 326639, Note_on_c, 4, 65, 0
10, 326639, Note_on_c, 4, 53, 0
10, 378240, Note_on_c, 4, 63, 84
10, 380144, Note_on_c, 4, 63, 0
10, 380160, Note_on_c, 4, 63, 84
10, 381104, Note_on_c, 4, 63, 0
10, 381120, Note_on_c, 4, 63, 84
10, 381359, Note_on_c, 4, 63, 0
10, 381600, Note_on_c, 4, 63, 84
10, 381839, Note_on_c, 4, 63, 0
10, 382080, Note_on_c, 4, 63, 84
10, 382319, Note_on_c, 4, 63, 0
10, 385920, Note_on_c, 4, 62, 84
10, 387824, Note_on_c, 4, 62, 0
10, 387840, Note_on_c, 4, 62, 84
10, 388784, Note_on_c, 4, 62, 0
10, 388800, Note_on_c, 4, 62, 84
10, 389039, Note_on_c, 4, 62, 0
10, 389280, Note_on_c, 4, 62, 84
10, 389519, Note_on_c, 4, 62, 0
10, 389760, Note_on_c, 4, 62, 84
10, 389999, Note_on_c, 4, 62, 0
10, 393600, Note_on_c, 4, 58, 84
10, 393600, Note_on_c, 4, 46, 84
10, 395504, Note_on_c, 4, 58, 0
10, 395504, Note_on_c, 4, 46, 0
10, 395520, Note_on_c, 4, 58, 84
10, 395520, Note_on_c, 4, 46, 84
10, 396464, Note_on_c, 4, 58, 0
10, 396464, Note_on_c, 4, 46, 0
10, 396480, Note_on_c, 4, 46, 84
10, 396480, Note_on_c, 4, 58, 84
10, 396719, Note_on_c, 4, 46, 0
10, 396719, Note_on_c, 4, 58, 0
10, 396960, Note_on_c, 4, 58, 84
10, 396960, Note_on_c, 4, 46, 84
10, 397199, Note_on_c, 4, 58, 0
10, 397199, Note_on_c, 4, 46, 0
10, 397440, Note_on_c, 4, 58, 76
10, 397440, Note_on_c, 4, 46, 76
10, 397679, Note_on_c, 4, 58, 0
10, 397679, Note_on_c, 4, 46, 0
10, 398400, Note_on_c, 4, 46, 76
10, 398400, Note_on_c, 4, 58, 76
10, 398639, Note_on_c, 4, 46, 0
10, 398639, Note_on_c, 4, 58, 0
10, 399360, Note_on_c, 4, 58, 76
10, 399360, Note_on_c, 4, 46, 76
10, 399599, Note_on_c, 4, 58, 0
10, 399599, Note_on_c, 4, 46, 0
10, 400320, Note_on_c, 4, 46, 76
10, 400320, Note_on_c, 4, 58, 76
10, 400559, Note_on_c, 4, 46, 0
10, 400559, Note_on_c, 4, 58, 0
10, 401280, Note_on_c, 4, 58, 76
10, 401280, Note_on_c, 4, 46, 76
10, 401519, Note_on_c, 4, 58, 0
10, 401519, Note_on_c, 4, 46, 0
10, 403200, Note_on_c, 4, 58, 52
10, 403200, Note_on_c, 4, 46, 52
10, 403439, Note_on_c, 4, 58, 0
10, 403439, Note_on_c, 4, 46, 0
10, 405120, Note_on_c, 4, 58, 44
10, 405120, Note_on_c, 4, 46, 44
10, 405359, Note_on_c, 4, 58, 0
10, 405359, Note_on_c, 4, 46, 0
10, 439680, Note_on_c, 4, 50, 44
10, 439680, Note_on_c, 4, 58, 44
10, 441839, Note_on_c, 4, 50, 0
10, 441839, Note_on_c, 4, 58, 0
10, 443520, Note_on_c, 4, 50, 44
10, 443520, Note_on_c, 4, 58, 44
10, 445679, Note_on_c, 4, 50, 0
10, 445679, Note_on_c, 4, 58, 0
10, 466560, Note_on_c, 4, 58, 84
10, 466560, Note_on_c, 4, 65, 84
10, 469424, Note_on_c, 4, 58, 0
10, 469424, Note_on_c, 4, 65, 0
10, 469440, Note_on_c, 4, 58, 84
10, 469440, Note_on_c, 4, 65, 84
10, 469619, Note_on_c, 4, 58, 0
10, 469619, Note_on_c, 4, 65, 0
10, 469920, Note_on_c, 4, 58, 84
10, 469920, Note_on_c, 4, 65, 84
10, 470099, Note_on_c, 4, 58, 0
10, 470099, Note_on_c, 4, 65, 0
10, 470400, Note_on_c, 4, 65, 84
10, 470400, Note_on_c, 4, 58, 84
10, 470519, Note_on_c, 4, 65, 0
10, 470519, Note_on_c, 4, 58, 0
10, 470640, Note_on_c, 4, 62, 84
10, 470640, Note_on_c, 4, 58, 84
10, 470759, Note_on_c, 4, 62, 0
10, 470759, Note_on_c, 4, 58, 0
10, 470880, Note_on_c, 4, 58, 84
10, 470880, Note_on_c, 4, 62, 84
10, 470999, Note_on_c, 4, 58, 0
10, 470999, Note_on_c, 4, 62, 0
10, 471120, Note_on_c, 4, 62, 84
10, 471120, Note_on_c, 4, 58, 84
10, 471239, Note_on_c, 4, 62, 0
10, 471239, Note_on_c, 4, 58, 0
10, 471360, Note_on_c, 4, 62, 84
10, 471360, Note_on_c, 4, 58, 84
10, 471479, Note_on_c, 4, 62, 0
10, 471479, Note_on_c, 4, 58, 0
10, 471600, Note_on_c, 4, 65, 84
10, 471600, Note_on_c, 4, 53, 84
10, 471719, Note_on_c, 4, 65, 0
10, 471719, Note_on_c, 4, 53, 0
10, 471840, Note_on_c, 4, 46, 84
10, 471840, Note_on_c, 4, 58, 84
10, 471959, Note_on_c, 4, 46, 0
10, 471959, Note_on_c, 4, 58, 0
10, 472080, Note_on_c, 4, 62, 84
10, 472080, Note_on_c, 4, 50, 84
10, 472199, Note_on_c, 4, 62, 0
10, 472199, Note_on_c, 4, 50, 0
10, 472320, Note_on_c, 4, 46, 84
10, 472320, Note_on_c, 4, 58, 84
10, 472439, Note_on_c, 4, 46, 0
10, 472439, Note_on_c, 4, 58, 0
10, 472560, Note_on_c, 4, 58, 84
10, 472560, Note_on_c, 4, 46, 84
10, 472679, Note_on_c, 4, 58, 0
10, 472679, Note_on_c, 4, 46, 0
10, 472800, Note_on_c, 4, 58, 84
10, 472800, Note_on_c, 4, 46, 84
10, 472919, Note_on_c, 4, 58, 0
10, 472919, Note_on_c, 4, 46, 0
10, 473040, Note_on_c, 4, 46, 84
10, 473040, Note_on_c, 4, 58, 84
10, 473159, Note_on_c, 4, 46, 0
10, 473159, Note_on_c, 4, 58, 0
10, 473280, Note_on_c, 4, 53, 84
10, 473280, Note_on_c, 4, 60, 84
10, 473399, Note_on_c, 4, 53, 0
10, 473399, Note_on_c, 4, 60, 0
10, 473520, Note_on_c, 4, 60, 84
10, 473520, Note_on_c, 4, 53, 84
10, 473639, Note_on_c, 4, 60, 0
10, 473639, Note_on_c, 4, 53, 0
10, 473760, Note_on_c, 4, 53, 84
10, 473760, Note_on_c, 4, 60, 84
10, 473879, Note_on_c, 4, 53, 0
10, 473879, Note_on_c, 4, 60, 0
10, 474000, Note_on_c, 4, 60, 84
10, 474000, Note_on_c, 4, 53, 84
10, 474119, Note_on_c, 4, 60, 0
10, 474119, Note_on_c, 4, 53, 0
10, 474240, Note_on_c, 4, 58, 84
10, 474240, Note_on_c, 4, 50, 84
10, 474479, Note_on_c, 4, 58, 0
10, 474479, Note_on_c, 4, 50, 0
10, 483840, Note_on_c, 4, 46, 84
10, 483840, Note_on_c, 4, 58, 84
10, 485744, Note_on_c, 4, 46, 0
10, 485744, Note_on_c, 4, 58, 0
10, 485760, Note_on_c, 4, 58, 92
10, 485760, Note_on_c, 4, 60, 92
10, 486689, Note_on_c, 4, 58, 0
10, 486689, Note_on_c, 4, 60, 0
10, 486720, Note_on_c, 4, 60, 92
10, 486720, Note_on_c, 4, 53, 92
10, 487649, Note_on_c, 4, 60, 0
10, 487649, Note_on_c, 4, 53, 0
10, 487680, Note_on_c, 4, 62, 84
10, 487680, Note_on_c, 4, 50, 84
10, 489119, Note_on_c, 4, 62, 0
10, 489119, Note_on_c, 4, 50, 0
10, 491520, Note_on_c, 4, 58, 92
10, 491520, Note_on_c, 4, 65, 92
10, 492929, Note_on_c, 4, 58, 0
10, 492929, Note_on_c, 4, 65, 0
10, 492960, Note_on_c, 4, 58, 92
10, 492960, Note_on_c, 4, 65, 92
10, 493409, Note_on_c, 4, 58, 0
10, 493409, Note_on_c, 4, 65, 0
10, 493440, Note_on_c, 4, 63, 84
10, 493679, Note_on_c, 4, 63, 0
10, 493920, Note_on_c, 4, 60, 92
10, 494369, Note_on_c, 4, 60, 0
10, 494400, Note_on_c, 4, 60, 84
10, 494864, Note_on_c, 4, 60, 0
10, 494880, Note_on_c, 4, 62, 92
10, 494880, Note_on_c, 4, 50, 92
10, 495329, Note_on_c, 4, 62, 0
10, 495329, Note_on_c, 4, 50, 0
10, 495360, Note_on_c, 4, 62, 84
10, 495360, Note_on_c, 4, 50, 84
10, 495824, Note_on_c, 4, 62, 0
10, 495824, Note_on_c, 4, 50, 0
10, 495840, Note_on_c, 4, 63, 92
10, 496289, Note_on_c, 4, 63, 0
10, 496320, Note_on_c, 4, 63, 84
10, 496784, Note_on_c, 4, 63, 0
10, 496800, Note_on_c, 4, 65, 92
10, 496800, Note_on_c, 4, 53, 92
10, 497249, Note_on_c, 4, 65, 0
10, 497249, Note_on_c, 4, 53, 0
10, 497280, Note_on_c, 4, 62, 84
10, 497280, Note_on_c, 4, 58, 84
10, 499664, Note_on_c, 4, 62, 0
10, 499664, Note_on_c, 4, 58, 0
10, 499680, Note_on_c, 4, 53, 84
10, 499680, Note_on_c, 4, 65, 84
10, 500144, Note_on_c, 4, 53, 0
10, 500144, Note_on_c, 4, 65, 0
10, 500160, Note_on_c, 4, 62, 84
10, 500160, Note_on_c, 4, 50, 84
10, 500624, Note_on_c, 4, 62, 0
10, 500624, Note_on_c, 4, 50, 0
10, 500640, Note_on_c, 4, 58, 84
10, 500640, Note_on_c, 4, 46, 84
10, 501104, Note_on_c, 4, 58, 0
10, 501104, Note_on_c, 4, 46, 0
10, 501120, Note_on_c, 4, 41, 84
10, 501120, Note_on_c, 4, 53, 84
10, 501344, Note_on_c, 4, 41, 0
10, 501344, Note_on_c, 4, 53, 0
10, 501360, Note_on_c, 4, 53, 92
10, 501360, Note_on_c, 4, 65, 92
10, 501809, Note_on_c, 4, 53, 0
10, 501809, Note_on_c, 4, 65, 0
10, 501840, Note_on_c, 4, 53, 84
10, 501840, Note_on_c, 4, 65, 84
10, 502304, Note_on_c, 4, 53, 0
10, 502304, Note_on_c, 4, 65, 0
10, 502320, Note_on_c, 4, 65, 84
10, 502320, Note_on_c, 4, 53, 84
10, 502784, Note_on_c, 4, 65, 0
10, 502784, Note_on_c, 4, 53, 0
10, 502800, Note_on_c, 4, 65, 84
10, 502800, Note_on_c, 4, 53, 84
10, 503264, Note_on_c, 4, 65, 0
10, 503264, Note_on_c, 4, 53, 0
10, 503280, Note_on_c, 4, 65, 84
10, 503280, Note_on_c, 4, 53, 84
10, 503744, Note_on_c, 4, 65, 0
10, 503744, Note_on_c, 4, 53, 0
10, 503760, Note_on_c, 4, 65, 84
10, 503760, Note_on_c, 4, 53, 84
10, 504224, Note_on_c, 4, 65, 0
10, 504224, Note_on_c, 4, 53, 0
10, 504240, Note_on_c, 4, 58, 92
10, 504689, Note_on_c, 4, 58, 0
10, 504720, Note_on_c, 4, 65, 84
10, 504720, Note_on_c, 4, 53, 84
10, 504899, Note_on_c, 4, 65, 0
10, 504899, Note_on_c, 4, 53, 0
10, 504960, Note_on_c, 4, 53, 84
10, 504960, Note_on_c, 4, 65, 84
10, 505139, Note_on_c, 4, 53, 0
10, 505139, Note_on_c, 4, 65, 0
10, 505200, Note_on_c, 4, 53, 84
10, 505200, Note_on_c, 4, 65, 84
10, 505664, Note_on_c, 4, 53, 0
10, 505664, Note_on_c, 4, 65, 0
10, 505680, Note_on_c, 4, 65, 84
10, 505680, Note_on_c, 4, 53, 84
10, 506144, Note_on_c, 4, 65, 0
10, 506144, Note_on_c, 4, 53, 0
10, 506160, Note_on_c, 4, 65, 84
10, 506160, Note_on_c, 4, 53, 84
10, 506624, Note_on_c, 4, 65, 0
10, 506624, Note_on_c, 4, 53, 0
10, 506640, Note_on_c, 4, 65, 84
10, 506640, Note_on_c, 4, 53, 84
10, 507104, Note_on_c, 4, 65, 0
10, 507104, Note_on_c, 4, 53, 0
10, 507120, Note_on_c, 4, 53, 84
10, 507120, Note_on_c, 4, 65, 84
10, 507584, Note_on_c, 4, 53, 0
10, 507584, Note_on_c, 4, 65, 0
10, 507600, Note_on_c, 4, 65, 84
10, 507600, Note_on_c, 4, 53, 84
10, 508064, Note_on_c, 4, 65, 0
10, 508064, Note_on_c, 4, 53, 0
10, 508080, Note_on_c, 4, 58, 92
10, 508080, Note_on_c, 4, 46, 92
10, 508529, Note_on_c, 4, 58, 0
10, 508529, Note_on_c, 4, 46, 0
10, 508560, Note_on_c, 4, 65, 84
10, 508560, Note_on_c, 4, 53, 84
10, 508784, Note_on_c, 4, 65, 0
10, 508784, Note_on_c, 4, 53, 0
10, 508800, Note_on_c, 4, 53, 84
10, 508800, Note_on_c, 4, 65, 84
10, 509039, Note_on_c, 4, 53, 0
10, 509039, Note_on_c, 4, 65, 0
10, 522240, Note_on_c, 4, 62, 52
10, 522240, Note_on_c, 4, 50, 52
10, 522479, Note_on_c, 4, 62, 0
10, 522479, Note_on_c, 4, 50, 0
10, 522960, Note_on_c, 4, 50, 52
10, 522960, Note_on_c, 4, 62, 52
10, 523184, Note_on_c, 4, 50, 0
10, 523184, Note_on_c, 4, 62, 0
10, 523200, Note_on_c, 4, 50, 52
10, 523200, Note_on_c, 4, 62, 52
10, 523439, Note_on_c, 4, 50, 0
10, 523439, Note_on_c, 4, 62, 0
10, 523920, Note_on_c, 4, 50, 52
10, 523920, Note_on_c, 4, 62, 52
10, 524144, Note_on_c, 4, 50, 0
10, 524144, Note_on_c, 4, 62, 0
10, 524160, Note_on_c, 4, 50, 52
10, 524160, Note_on_c, 4, 62, 52
10, 524399, Note_on_c, 4, 50, 0
10, 524399, Note_on_c, 4, 62, 0
10, 524880, Note_on_c, 4, 62, 52
10, 524880, Note_on_c, 4, 50, 52
10, 525104, Note_on_c, 4, 62, 0
10, 525104, Note_on_c, 4, 50, 0
10, 525120, Note_on_c, 4, 62, 52
10, 525120, Note_on_c, 4, 50, 52
10, 525359, Note_on_c, 4, 62, 0
10, 525359, Note_on_c, 4, 50, 0
10, 525840, Note_on_c, 4, 50, 52
10, 525840, Note_on_c, 4, 62, 52
10, 526064, Note_on_c, 4, 50, 0
10, 526064, Note_on_c, 4, 62, 0
10, 526080, Note_on_c, 4, 50, 52
10, 526080, Note_on_c, 4, 62, 52
10, 526319, Note_on_c, 4, 50, 0
10, 526319, Note_on_c, 4, 62, 0
10, 536640, Note_on_c, 4, 65, 76
10, 536640, Note_on_c, 4, 53, 76
10, 536999, Note_on_c, 4, 65, 0
10, 536999, Note_on_c, 4, 53, 0
10, 537120, Note_on_c, 4, 65, 76
10, 537120, Note_on_c, 4, 53, 76
10, 537479, Note_on_c, 4, 65, 0
10, 537479, Note_on_c, 4, 53, 0
10, 537600, Note_on_c, 4, 65, 76
10, 537600, Note_on_c, 4, 53, 76
10, 537959, Note_on_c, 4, 65, 0
10, 537959, Note_on_c, 4, 53, 0
10, 538080, Note_on_c, 4, 65, 76
10, 538080, Note_on_c, 4, 53, 76
10, 538439, Note_on_c, 4, 65, 0
10, 538439, Note_on_c, 4, 53, 0
10, 538560, Note_on_c, 4, 53, 76
10, 538560, Note_on_c, 4, 65, 76
10, 538919, Note_on_c, 4, 53, 0
10, 538919, Note_on_c, 4, 65, 0
10, 539040, Note_on_c, 4, 53, 76
10, 539040, Note_on_c, 4, 65, 76
10, 539399, Note_on_c, 4, 53, 0
10, 539399, Note_on_c, 4, 65, 0
10, 539520, Note_on_c, 4, 58, 76
10, 539520, Note_on_c, 4, 65, 76
10, 539759, Note_on_c, 4, 58, 0
10, 539759, Note_on_c, 4, 65, 0
10, 540480, Note_on_c, 4, 60, 76
10, 540480, Note_on_c, 4, 58, 76
10, 540719, Note_on_c, 4, 60, 0
10, 540719, Note_on_c, 4, 58, 0
10, 541440, Note_on_c, 4, 58, 76
10, 541440, Note_on_c, 4, 62, 76
10, 541679, Note_on_c, 4, 58, 0
10, 541679, Note_on_c, 4, 62, 0
10, 542160, Note_on_c, 4, 62, 76
10, 542160, Note_on_c, 4, 58, 76
10, 542384, Note_on_c, 4, 62, 0
10, 542384, Note_on_c, 4, 58, 0
10, 542400, Note_on_c, 4, 53, 76
10, 542400, Note_on_c, 4, 60, 76
10, 542624, Note_on_c, 4, 53, 0
10, 542624, Note_on_c, 4, 60, 0
10, 542640, Note_on_c, 4, 60, 76
10, 542640, Note_on_c, 4, 53, 76
10, 542864, Note_on_c, 4, 60, 0
10, 542864, Note_on_c, 4, 53, 0
10, 542880, Note_on_c, 4, 60, 76
10, 542880, Note_on_c, 4, 53, 76
10, 543104, Note_on_c, 4, 60, 0
10, 543104, Note_on_c, 4, 53, 0
10, 543120, Note_on_c, 4, 53, 76
10, 543120, Note_on_c, 4, 60, 76
10, 543344, Note_on_c, 4, 53, 0
10, 543344, Note_on_c, 4, 60, 0
10, 543360, Note_on_c, 4, 62, 76
10, 543360, Note_on_c, 4, 58, 76
10, 543599, Note_on_c, 4, 62, 0
10, 543599, Note_on_c, 4, 58, 0
10, 543840, Note_on_c, 4, 60, 76
10, 543840, Note_on_c, 4, 58, 76
10, 544079, Note_on_c, 4, 60, 0
10, 544079, Note_on_c, 4, 58, 0
10, 544320, Note_on_c, 4, 58, 76
10, 544320, Note_on_c, 4, 62, 76
10, 544559, Note_on_c, 4, 58, 0
10, 544559, Note_on_c, 4, 62, 0
10, 544800, Note_on_c, 4, 60, 76
10, 544800, Note_on_c, 4, 53, 76
10, 545039, Note_on_c, 4, 60, 0
10, 545039, Note_on_c, 4, 53, 0
10, 546240, Note_on_c, 4, 58, 52
10, 546240, Note_on_c, 4, 50, 52
10, 546959, Note_on_c, 4, 58, 0
10, 546959, Note_on_c, 4, 50, 0
10, 546960, Note_on_c, 4, 60, 52
10, 546960, Note_on_c, 4, 53, 52
10, 547184, Note_on_c, 4, 60, 0
10, 547184, Note_on_c, 4, 53, 0
10, 547200, Note_on_c, 4, 62, 52
10, 547200, Note_on_c, 4, 58, 52
10, 547439, Note_on_c, 4, 62, 0
10, 547439, Note_on_c, 4, 58, 0
10, 548160, Note_on_c, 4, 58, 52
10, 548160, Note_on_c, 4, 62, 52
10, 548879, Note_on_c, 4, 58, 0
10, 548879, Note_on_c, 4, 62, 0
10, 548880, Note_on_c, 4, 58, 52
10, 549104, Note_on_c, 4, 58, 0
10, 549120, Note_on_c, 4, 53, 52
10, 549120, Note_on_c, 4, 60, 52
10, 549359, Note_on_c, 4, 53, 0
10, 549359, Note_on_c, 4, 60, 0
10, 550080, Note_on_c, 4, 60, 52
10, 550080, Note_on_c, 4, 53, 52
10, 550784, Note_on_c, 4, 60, 0
10, 550784, Note_on_c, 4, 53, 0
10, 550800, Note_on_c, 4, 53, 52
10, 550800, Note_on_c, 4, 60, 52
10, 551024, Note_on_c, 4, 53, 0
10, 551024, Note_on_c, 4, 60, 0
10, 551040, Note_on_c, 4, 60, 52
10, 551040, Note_on_c, 4, 53, 52
10, 551279, Note_on_c, 4, 60, 0
10, 551279, Note_on_c, 4, 53, 0
10, 552000, Note_on_c, 4, 60, 52
10, 552000, Note_on_c, 4, 53, 52
10, 552704, Note_on_c, 4, 60, 0
10, 552704, Note_on_c, 4, 53, 0
10, 552720, Note_on_c, 4, 53, 52
10, 552720, Note_on_c, 4, 60, 52
10, 552944, Note_on_c, 4, 53, 0
10, 552944, Note_on_c, 4, 60, 0
10, 552960, Note_on_c, 4, 58, 76
10, 552960, Note_on_c, 4, 50, 76
10, 553184, Note_on_c, 4, 58, 0
10, 553184, Note_on_c, 4, 50, 0
10, 553200, Note_on_c, 4, 65, 76
10, 553200, Note_on_c, 4, 53, 76
10, 553424, Note_on_c, 4, 65, 0
10, 553424, Note_on_c, 4, 53, 0
10, 553440, Note_on_c, 4, 53, 76
10, 553440, Note_on_c, 4, 65, 76
10, 553664, Note_on_c, 4, 53, 0
10, 553664, Note_on_c, 4, 65, 0
10, 553680, Note_on_c, 4, 65, 76
10, 553680, Note_on_c, 4, 53, 76
10, 553904, Note_on_c, 4, 65, 0
10, 553904, Note_on_c, 4, 53, 0
10, 553920, Note_on_c, 4, 65, 76
10, 553920, Note_on_c, 4, 53, 76
10, 554624, Note_on_c, 4, 65, 0
10, 554624, Note_on_c, 4, 53, 0
10, 554640, Note_on_c, 4, 65, 76
10, 554640, Note_on_c, 4, 53, 76
10, 554864, Note_on_c, 4, 65, 0
10, 554864, Note_on_c, 4, 53, 0
10, 554880, Note_on_c, 4, 65, 76
10, 554880, Note_on_c, 4, 53, 76
10, 555104, Note_on_c, 4, 65, 0
10, 555104, Note_on_c, 4, 53, 0
10, 555120, Note_on_c, 4, 53, 76
10, 555120, Note_on_c, 4, 65, 76
10, 555344, Note_on_c, 4, 53, 0
10, 555344, Note_on_c, 4, 65, 0
10, 555360, Note_on_c, 4, 65, 76
10, 555360, Note_on_c, 4, 53, 76
10, 555584, Note_on_c, 4, 65, 0
10, 555584, Note_on_c, 4, 53, 0
10, 555600, Note_on_c, 4, 53, 76
10, 555600, Note_on_c, 4, 65, 76
10, 555824, Note_on_c, 4, 53, 0
10, 555824, Note_on_c, 4, 65, 0
10, 555840, Note_on_c, 4, 53, 76
10, 555840, Note_on_c, 4, 65, 76
10, 556544, Note_on_c, 4, 53, 0
10, 556544, Note_on_c, 4, 65, 0
10, 556560, Note_on_c, 4, 65, 76
10, 556560, Note_on_c, 4, 53, 76
10, 556784, Note_on_c, 4, 65, 0
10, 556784, Note_on_c, 4, 53, 0
10, 556800, Note_on_c, 4, 53, 76
10, 556800, Note_on_c, 4, 65, 76
10, 557024, Note_on_c, 4, 53, 0
10, 557024, Note_on_c, 4, 65, 0
10, 557040, Note_on_c, 4, 53, 76
10, 557040, Note_on_c, 4, 65, 76
10, 557264, Note_on_c, 4, 53, 0
10, 557264, Note_on_c, 4, 65, 0
10, 557280, Note_on_c, 4, 53, 76
10, 557280, Note_on_c, 4, 65, 76
10, 557504, Note_on_c, 4, 53, 0
10, 557504, Note_on_c, 4, 65, 0
10, 557520, Note_on_c, 4, 53, 76
10, 557520, Note_on_c, 4, 65, 76
10, 557744, Note_on_c, 4, 53, 0
10, 557744, Note_on_c, 4, 65, 0
10, 557760, Note_on_c, 4, 53, 76
10, 557760, Note_on_c, 4, 65, 76
10, 558464, Note_on_c, 4, 53, 0
10, 558464, Note_on_c, 4, 65, 0
10, 558480, Note_on_c, 4, 65, 76
10, 558480, Note_on_c, 4, 53, 76
10, 558704, Note_on_c, 4, 65, 0
10, 558704, Note_on_c, 4, 53, 0
10, 558720, Note_on_c, 4, 53, 76
10, 558720, Note_on_c, 4, 65, 76
10, 558944, Note_on_c, 4, 53, 0
10, 558944, Note_on_c, 4, 65, 0
10, 558960, Note_on_c, 4, 53, 76
10, 558960, Note_on_c, 4, 65, 76
10, 559184, Note_on_c, 4, 53, 0
10, 559184, Note_on_c, 4, 65, 0
10, 559200, Note_on_c, 4, 53, 76
10, 559200, Note_on_c, 4, 65, 76
10, 559424, Note_on_c, 4, 53, 0
10, 559424, Note_on_c, 4, 65, 0
10, 559440, Note_on_c, 4, 53, 76
10, 559440, Note_on_c, 4, 65, 76
10, 559664, Note_on_c, 4, 53, 0
10, 559664, Note_on_c, 4, 65, 0
10, 559680, Note_on_c, 4, 65, 76
10, 559680, Note_on_c, 4, 53, 76
10, 560639, Note_on_c, 4, 65, 0
10, 560639, Note_on_c, 4, 53, 0
10, 564480, Note_on_c, 4, 58, 84
10, 564480, Note_on_c, 4, 62, 84
10, 564719, Note_on_c, 4, 58, 0
10, 564719, Note_on_c, 4, 62, 0
10, 565200, Note_on_c, 4, 62, 84
10, 565200, Note_on_c, 4, 58, 84
10, 565424, Note_on_c, 4, 62, 0
10, 565424, Note_on_c, 4, 58, 0
10, 565440, Note_on_c, 4, 58, 84
10, 565440, Note_on_c, 4, 60, 84
10, 565679, Note_on_c, 4, 58, 0
10, 565679, Note_on_c, 4, 60, 0
10, 565920, Note_on_c, 4, 60, 84
10, 565920, Note_on_c, 4, 53, 84
10, 566159, Note_on_c, 4, 60, 0
10, 566159, Note_on_c, 4, 53, 0
10, 568320, Note_on_c, 4, 58, 84
10, 568320, Note_on_c, 4, 62, 84
10, 568559, Note_on_c, 4, 58, 0
10, 568559, Note_on_c, 4, 62, 0
10, 569040, Note_on_c, 4, 58, 84
10, 569040, Note_on_c, 4, 62, 84
10, 569264, Note_on_c, 4, 58, 0
10, 569264, Note_on_c, 4, 62, 0
10, 569280, Note_on_c, 4, 60, 84
10, 569280, Note_on_c, 4, 58, 84
10, 569519, Note_on_c, 4, 60, 0
10, 569519, Note_on_c, 4, 58, 0
10, 569760, Note_on_c, 4, 60, 84
10, 569760, Note_on_c, 4, 53, 84
10, 569999, Note_on_c, 4, 60, 0
10, 569999, Note_on_c, 4, 53, 0
10, 571120, Control_c, 4, 11, 93
10, 571200, Control_c, 4, 11, 96
10, 571200, Note_on_c, 4, 46, 76
10, 571200, Note_on_c, 4, 58, 76
10, 571280, Control_c, 4, 11, 98
10, 571360, Control_c, 4, 11, 101
10, 571440, Control_c, 4, 11, 103
10, 571520, Control_c, 4, 11, 106
10, 571600, Control_c, 4, 11, 109
10, 571680, Control_c, 4, 11, 111
10, 571760, Control_c, 4, 11, 114
10, 571840, Control_c, 4, 11, 117
10, 571920, Control_c, 4, 11, 119
10, 572000, Control_c, 4, 11, 122
10, 572080, Control_c, 4, 11, 124
10, 572144, Note_on_c, 4, 58, 0
10, 572159, Note_on_c, 4, 46, 0
10, 572160, Note_on_c, 4, 58, 76
10, 572160, Note_on_c, 4, 46, 76
10, 573104, Note_on_c, 4, 58, 0
10, 573104, Note_on_c, 4, 46, 0
10, 573120, Note_on_c, 4, 46, 76
10, 573120, Note_on_c, 4, 58, 76
10, 574064, Note_on_c, 4, 46, 0
10, 574064, Note_on_c, 4, 58, 0
10, 574080, Note_on_c, 4, 46, 76
10, 574080, Note_on_c, 4, 58, 76
10, 575024, Note_on_c, 4, 46, 0
10, 575024, Note_on_c, 4, 58, 0
10, 575040, Note_on_c, 4, 60, 76
10, 575040, Note_on_c, 4, 53, 76
10, 575984, Note_on_c, 4, 60, 0
10, 575984, Note_on_c, 4, 53, 0
10, 576000, Note_on_c, 4, 46, 84
10, 576000, Note_on_c, 4, 58, 84
10, 577904, Note_on_c, 4, 46, 0
10, 577904, Note_on_c, 4, 58, 0
10, 577920, Note_on_c, 4, 62, 92
10, 577920, Note_on_c, 4, 58, 92
10, 578849, Note_on_c, 4, 62, 0
10, 578849, Note_on_c, 4, 58, 0
10, 578880, Note_on_c, 4, 60, 84
10, 578880, Note_on_c, 4, 53, 84
10, 579824, Note_on_c, 4, 60, 0
10, 579824, Note_on_c, 4, 53, 0
10, 579840, Note_on_c, 4, 58, 84
10, 579840, Note_on_c, 4, 50, 84
10, 580079, Note_on_c, 4, 58, 0
10, 580079, Note_on_c, 4, 50, 0
10, 582960, Note_on_c, 4, 60, 84
10, 582960, Note_on_c, 4, 53, 84
10, 583424, Note_on_c, 4, 60, 0
10, 583424, Note_on_c, 4, 53, 0
10, 583440, Note_on_c, 4, 60, 84
10, 583440, Note_on_c, 4, 53, 84
10, 583619, Note_on_c, 4, 60, 0
10, 583619, Note_on_c, 4, 53, 0
10, 583680, Note_on_c, 4, 62, 84
10, 583680, Note_on_c, 4, 58, 84
10, 583859, Note_on_c, 4, 62, 0
10, 583859, Note_on_c, 4, 58, 0
10, 586800, Note_on_c, 4, 60, 84
10, 586800, Note_on_c, 4, 53, 84
10, 587264, Note_on_c, 4, 60, 0
10, 587264, Note_on_c, 4, 53, 0
10, 587280, Note_on_c, 4, 60, 84
10, 587280, Note_on_c, 4, 53, 84
10, 587459, Note_on_c, 4, 60, 0
10, 587459, Note_on_c, 4, 53, 0
10, 587520, Note_on_c, 4, 58, 84
10, 587520, Note_on_c, 4, 50, 84
10, 587699, Note_on_c, 4, 58, 0
10, 587699, Note_on_c, 4, 50, 0
10, 588720, Note_on_c, 4, 60, 84
10, 588720, Note_on_c, 4, 53, 84
10, 589184, Note_on_c, 4, 60, 0
10, 589184, Note_on_c, 4, 53, 0
10, 589200, Note_on_c, 4, 60, 84
10, 589200, Note_on_c, 4, 53, 84
10, 589424, Note_on_c, 4, 60, 0
10, 589424, Note_on_c, 4, 53, 0
10, 589440, Note_on_c, 4, 60, 84
10, 589440, Note_on_c, 4, 53, 84
10, 591287, Note_on_c, 4, 60, 0
10, 591287, Note_on_c, 4, 53, 0
10, 591300, Note_on_c, 4, 60, 84
10, 591300, Note_on_c, 4, 53, 84
10, 591351, Note_on_c, 4, 60, 0
10, 591351, Note_on_c, 4, 53, 0
10, 591360, Note_on_c, 4, 60, 84
10, 591360, Note_on_c, 4, 53, 84
10, 591599, Note_on_c, 4, 60, 0
10, 591599, Note_on_c, 4, 53, 0
10, 592260, Note_on_c, 4, 60, 84
10, 592260, Note_on_c, 4, 53, 84
10, 592311, Note_on_c, 4, 60, 0
10, 592311, Note_on_c, 4, 53, 0
10, 592320, Note_on_c, 4, 60, 84
10, 592320, Note_on_c, 4, 53, 84
10, 592559, Note_on_c, 4, 60, 0
10, 592559, Note_on_c, 4, 53, 0
10, 593220, Note_on_c, 4, 60, 84
10, 593220, Note_on_c, 4, 53, 84
10, 593271, Note_on_c, 4, 60, 0
10, 593271, Note_on_c, 4, 53, 0
10, 593280, Note_on_c, 4, 60, 84
10, 593280, Note_on_c, 4, 53, 84
10, 593459, Note_on_c, 4, 60, 0
10, 593459, Note_on_c, 4, 53, 0
10, 593760, Note_on_c, 4, 60, 84
10, 593760, Note_on_c, 4, 53, 84
10, 593939, Note_on_c, 4, 60, 0
10, 593939, Note_on_c, 4, 53, 0
10, 594240, Note_on_c, 4, 60, 84
10, 594240, Note_on_c, 4, 53, 84
10, 594419, Note_on_c, 4, 60, 0
10, 594419, Note_on_c, 4, 53, 0
10, 594720, Note_on_c, 4, 60, 84
10, 594720, Note_on_c, 4, 53, 84
10, 594899, Note_on_c, 4, 60, 0
10, 594899, Note_on_c, 4, 53, 0
10, 595200, Note_on_c, 4, 58, 84
10, 595200, Note_on_c, 4, 50, 84
10, 595439, Note_on_c, 4, 58, 0
10, 595439, Note_on_c, 4, 50, 0
10, 596160, Note_on_c, 4, 58, 84
10, 596160, Note_on_c, 4, 50, 84
10, 596399, Note_on_c, 4, 58, 0
10, 596399, Note_on_c, 4, 50, 0
10, 597120, Note_on_c, 4, 58, 84
10, 597120, Note_on_c, 4, 50, 84
10, 597359, Note_on_c, 4, 58, 0
10, 597359, Note_on_c, 4, 50, 0
10, 598080, Note_on_c, 4, 58, 84
10, 598080, Note_on_c, 4, 50, 84
10, 598319, Note_on_c, 4, 58, 0
10, 598319, Note_on_c, 4, 50, 0
10, 599040, Note_on_c, 4, 62, 84
10, 599040, Note_on_c, 4, 58, 84
10, 599279, Note_on_c, 4, 62, 0
10, 599279, Note_on_c, 4, 58, 0
10, 600000, Note_on_c, 4, 62, 84
10, 600000, Note_on_c, 4, 58, 84
10, 600239, Note_on_c, 4, 62, 0
10, 600239, Note_on_c, 4, 58, 0
10, 600960, Note_on_c, 4, 62, 84
10, 600960, Note_on_c, 4, 58, 84
10, 601199, Note_on_c, 4, 62, 0
10, 601199, Note_on_c, 4, 58, 0
10, 601920, Note_on_c, 4, 62, 84
10, 601920, Note_on_c, 4, 58, 84
10, 602159, Note_on_c, 4, 62, 0
10, 602159, Note_on_c, 4, 58, 0
10, 604800, Note_on_c, 4, 60, 76
10, 604800, Note_on_c, 4, 53, 76
10, 605744, Note_on_c, 4, 60, 0
10, 605744, Note_on_c, 4, 53, 0
10, 605760, Note_on_c, 4, 60, 76
10, 605760, Note_on_c, 4, 53, 76
10, 606647, Note_on_c, 4, 60, 0
10, 606647, Note_on_c, 4, 53, 0
10, 606660, Note_on_c, 4, 60, 76
10, 606660, Note_on_c, 4, 53, 76
10, 606711, Note_on_c, 4, 60, 0
10, 606711, Note_on_c, 4, 53, 0
10, 606720, Note_on_c, 4, 62, 76
10, 606720, Note_on_c, 4, 58, 76
10, 606959, Note_on_c, 4, 62, 0
10, 606959, Note_on_c, 4, 58, 0
10, 608640, Note_on_c, 4, 60, 76
10, 608640, Note_on_c, 4, 53, 76
10, 609584, Note_on_c, 4, 60, 0
10, 609584, Note_on_c, 4, 53, 0
10, 609600, Note_on_c, 4, 60, 76
10, 609600, Note_on_c, 4, 53, 76
10, 610487, Note_on_c, 4, 60, 0
10, 610487, Note_on_c, 4, 53, 0
10, 610500, Note_on_c, 4, 60, 76
10, 610500, Note_on_c, 4, 53, 76
10, 610551, Note_on_c, 4, 60, 0
10, 610551, Note_on_c, 4, 53, 0
10, 610558, Control_c, 4, 11, 64
10, 610560, Note_on_c, 4, 58, 84
10, 610560, Note_on_c, 4, 50, 84
10, 610560, Control_c, 4, 11, 64
10, 610682, Control_c, 4, 11, 65
10, 610804, Control_c, 4, 11, 66
10, 610926, Control_c, 4, 11, 67
10, 611048, Control_c, 4, 11, 68
10, 611170, Control_c, 4, 11, 69
10, 611291, Control_c, 4, 11, 70
10, 611413, Control_c, 4, 11, 71
10, 611535, Control_c, 4, 11, 72
10, 611657, Control_c, 4, 11, 73
10, 611779, Control_c, 4, 11, 74
10, 611901, Control_c, 4, 11, 75
10, 612023, Control_c, 4, 11, 76
10, 612145, Control_c, 4, 11, 77
10, 612267, Control_c, 4, 11, 78
10, 612389, Control_c, 4, 11, 79
10, 612464, Note_on_c, 4, 58, 0
10, 612464, Note_on_c, 4, 50, 0
10, 612480, Note_on_c, 4, 60, 84
10, 612480, Note_on_c, 4, 53, 84
10, 612510, Control_c, 4, 11, 80
10, 612632, Control_c, 4, 11, 81
10, 612754, Control_c, 4, 11, 82
10, 612876, Control_c, 4, 11, 83
10, 612998, Control_c, 4, 11, 84
10, 613120, Control_c, 4, 11, 85
10, 613242, Control_c, 4, 11, 86
10, 613364, Control_c, 4, 11, 87
10, 613486, Control_c, 4, 11, 88
10, 613608, Control_c, 4, 11, 89
10, 613730, Control_c, 4, 11, 90
10, 613851, Control_c, 4, 11, 91
10, 613973, Control_c, 4, 11, 92
10, 614095, Control_c, 4, 11, 93
10, 614217, Control_c, 4, 11, 94
10, 614339, Control_c, 4, 11, 95
10, 614384, Note_on_c, 4, 60, 0
10, 614384, Note_on_c, 4, 53, 0
10, 614400, Note_on_c, 4, 62, 84
10, 614400, Note_on_c, 4, 58, 84
10, 614461, Control_c, 4, 11, 96
10, 614583, Control_c, 4, 11, 97
10, 614705, Control_c, 4, 11, 98
10, 614827, Control_c, 4, 11, 99
10, 614949, Control_c, 4, 11, 100
10, 615070, Control_c, 4, 11, 101
10, 615192, Control_c, 4, 11, 102
10, 615314, Control_c, 4, 11, 103
10, 615436, Control_c, 4, 11, 104
10, 615558, Control_c, 4, 11, 105
10, 615680, Control_c, 4, 11, 106
10, 615802, Control_c, 4, 11, 107
10, 615924, Control_c, 4, 11, 108
10, 616046, Control_c, 4, 11, 109
10, 616168, Control_c, 4, 11, 110
10, 616290, Control_c, 4, 11, 111
10, 616304, Note_on_c, 4, 62, 0
10, 616304, Note_on_c, 4, 58, 0
10, 616320, Note_on_c, 4, 60, 84
10, 616320, Note_on_c, 4, 53, 84
10, 616411, Control_c, 4, 11, 112
10, 616533, Control_c, 4, 11, 113
10, 616655, Control_c, 4, 11, 114
10, 616777, Control_c, 4, 11, 115
10, 616899, Control_c, 4, 11, 116
10, 617021, Control_c, 4, 11, 117
10, 617143, Control_c, 4, 11, 118
10, 617265, Control_c, 4, 11, 119
10, 617387, Control_c, 4, 11, 120
10, 617509, Control_c, 4, 11, 121
10, 617630, Control_c, 4, 11, 122
10, 617752, Control_c, 4, 11, 123
10, 617874, Control_c, 4, 11, 124
10, 617996, Control_c, 4, 11, 125
10, 618118, Control_c, 4, 11, 127
10, 618224, Note_on_c, 4, 60, 0
10, 618224, Note_on_c, 4, 53, 0
10, 618240, Note_on_c, 4, 58, 84
10, 618240, Note_on_c, 4, 50, 84
10, 620159, Note_on_c, 4, 58, 0
10, 620159, Note_on_c, 4, 50, 0
10, 620160, Note_on_c, 4, 58, 84
10, 620160, Note_on_c, 4, 50, 84
10, 622007, Note_on_c, 4, 58, 0
10, 622007, Note_on_c, 4, 50, 0
10, 622020, Note_on_c, 4, 58, 84
10, 622020, Note_on_c, 4, 50, 84
10, 622071, Note_on_c, 4, 58, 0
10, 622071, Note_on_c, 4, 50, 0
10, 622080, Note_on_c, 4, 58, 84
10, 622080, Note_on_c, 4, 50, 84
10, 622319, Note_on_c, 4, 58, 0
10, 622319, Note_on_c, 4, 50, 0
10, 622560, Note_on_c, 4, 58, 84
10, 622560, Note_on_c, 4, 50, 84
10, 622799, Note_on_c, 4, 58, 0
10, 622799, Note_on_c, 4, 50, 0
10, 623040, Note_on_c, 4, 58, 84
10, 623040, Note_on_c, 4, 50, 84
10, 623279, Note_on_c, 4, 58, 0
10, 623279, Note_on_c, 4, 50, 0
10, 624000, Note_on_c, 4, 58, 84
10, 624000, Note_on_c, 4, 50, 84
10, 624239, Note_on_c, 4, 58, 0
10, 624239, Note_on_c, 4, 50, 0
10, 624960, Note_on_c, 4, 58, 84
10, 624960, Note_on_c, 4, 46, 84
10, 625199, Note_on_c, 4, 58, 0
10, 625199, Note_on_c, 4, 46, 0
10, 625199, End_track
11, 0, Start_track
11, 0, Title_t, "Trumpet in B-flat"
11, 0, MIDI_port, 0
11, 0, Program_c, 5, 56
11, 0, Control_c, 5, 7, 96
11, 0, Control_c, 5, 10, 60
11, 0, Control_c, 5, 11, 127
11, 33600, Note_on_c, 5, 65, 84
11, 34487, Note_on_c, 5, 65, 0
11, 34500, Note_on_c, 5, 65, 84
11, 34551, Note_on_c, 5, 65, 0
11, 34560, Note_on_c, 5, 65, 84
11, 34679, Note_on_c, 5, 65, 0
11, 35520, Note_on_c, 5, 65, 84
11, 35520, Note_on_c, 5, 72, 84
11, 36407, Note_on_c, 5, 65, 0
11, 36407, Note_on_c, 5, 72, 0
11, 36420, Note_on_c, 5, 72, 84
11, 36420, Note_on_c, 5, 65, 84
11, 36471, Note_on_c, 5, 72, 0
11, 36471, Note_on_c, 5, 65, 0
11, 36480, Note_on_c, 5, 65, 84
11, 36480, Note_on_c, 5, 72, 84
11, 36659, Note_on_c, 5, 65, 0
11, 36659, Note_on_c, 5, 72, 0
11, 37440, Note_on_c, 5, 72, 84
11, 37440, Note_on_c, 5, 65, 84
11, 37619, Note_on_c, 5, 72, 0
11, 37619, Note_on_c, 5, 65, 0
11, 38400, Note_on_c, 5, 65, 84
11, 38400, Note_on_c, 5, 72, 84
11, 38579, Note_on_c, 5, 65, 0
11, 38579, Note_on_c, 5, 72, 0
11, 38880, Note_on_c, 5, 65, 84
11, 38880, Note_on_c, 5, 72, 84
11, 39059, Note_on_c, 5, 65, 0
11, 39059, Note_on_c, 5, 72, 0
11, 39360, Note_on_c, 5, 65, 84
11, 39360, Note_on_c, 5, 72, 84
11, 39539, Note_on_c, 5, 65, 0
11, 39539, Note_on_c, 5, 72, 0
11, 39840, Note_on_c, 5, 72, 84
11, 39840, Note_on_c, 5, 65, 84
11, 40019, Note_on_c, 5, 72, 0
11, 40019, Note_on_c, 5, 65, 0
11, 40320, Note_on_c, 5, 74, 84
11, 40320, Note_on_c, 5, 70, 84
11, 40409, Note_on_c, 5, 74, 0
11, 40409, Note_on_c, 5, 70, 0
11, 48000, Note_on_c, 5, 65, 84
11, 48000, Note_on_c, 5, 72, 84
11, 48179, Note_on_c, 5, 65, 0
11, 48179, Note_on_c, 5, 72, 0
11, 48960, Note_on_c, 5, 72, 84
11, 48960, Note_on_c, 5, 65, 84
11, 49139, Note_on_c, 5, 72, 0
11, 49139, Note_on_c, 5, 65, 0
11, 49440, Note_on_c, 5, 65, 84
11, 49440, Note_on_c, 5, 72, 84
11, 49619, Note_on_c, 5, 65, 0
11, 49619, Note_on_c, 5, 72, 0
11, 49920, Note_on_c, 5, 74, 84
11, 49920, Note_on_c, 5, 70, 84
11, 50039, Note_on_c, 5, 74, 0
11, 50039, Note_on_c, 5, 70, 0
11, 50160, Note_on_c, 5, 58, 84
11, 50160, Note_on_c, 5, 70, 84
11, 50279, Note_on_c, 5, 58, 0
11, 50279, Note_on_c, 5, 70, 0
11, 50400, Note_on_c, 5, 58, 84
11, 50400, Note_on_c, 5, 70, 84
11, 50519, Note_on_c, 5, 58, 0
11, 50519, Note_on_c, 5, 70, 0
11, 50640, Note_on_c, 5, 70, 84
11, 50640, Note_on_c, 5, 58, 84
11, 50759, Note_on_c, 5, 70, 0
11, 50759, Note_on_c, 5, 58, 0
11, 50880, Note_on_c, 5, 58, 84
11, 50880, Note_on_c, 5, 70, 84
11, 50999, Note_on_c, 5, 58, 0
11, 50999, Note_on_c, 5, 70, 0
11, 51120, Note_on_c, 5, 70, 84
11, 51120, Note_on_c, 5, 58, 84
11, 51239, Note_on_c, 5, 70, 0
11, 51239, Note_on_c, 5, 58, 0
11, 51360, Note_on_c, 5, 58, 84
11, 51360, Note_on_c, 5, 70, 84
11, 51479, Note_on_c, 5, 58, 0
11, 51479, Note_on_c, 5, 70, 0
11, 51600, Note_on_c, 5, 70, 84
11, 51600, Note_on_c, 5, 58, 84
11, 51719, Note_on_c, 5, 70, 0
11, 51719, Note_on_c, 5, 58, 0
11, 51840, Note_on_c, 5, 58, 84
11, 51840, Note_on_c, 5, 70, 84
11, 51959, Note_on_c, 5, 58, 0
11, 51959, Note_on_c, 5, 70, 0
11, 52080, Note_on_c, 5, 58, 84
11, 52080, Note_on_c, 5, 70, 84
11, 52199, Note_on_c, 5, 58, 0
11, 52199, Note_on_c, 5, 70, 0
11, 52320, Note_on_c, 5, 58, 84
11, 52320, Note_on_c, 5, 70, 84
11, 52439, Note_on_c, 5, 58, 0
11, 52439, Note_on_c, 5, 70, 0
11, 52560, Note_on_c, 5, 70, 84
11, 52560, Note_on_c, 5, 58, 84
11, 52679, Note_on_c, 5, 70, 0
11, 52679, Note_on_c, 5, 58, 0
11, 52800, Note_on_c, 5, 72, 84
11, 52800, Note_on_c, 5, 65, 84
11, 52919, Note_on_c, 5, 72, 0
11, 52919, Note_on_c, 5, 65, 0
11, 53040, Note_on_c, 5, 65, 84
11, 53040, Note_on_c, 5, 72, 84
11, 53159, Note_on_c, 5, 65, 0
11, 53159, Note_on_c, 5, 72, 0
11, 53280, Note_on_c, 5, 72, 84
11, 53280, Note_on_c, 5, 65, 84
11, 53399, Note_on_c, 5, 72, 0
11, 53399, Note_on_c, 5, 65, 0
11, 53520, Note_on_c, 5, 65, 84
11, 53520, Note_on_c, 5, 72, 84
11, 53639, Note_on_c, 5, 65, 0
11, 53639, Note_on_c, 5, 72, 0
11, 53760, Note_on_c, 5, 70, 84
11, 53760, Note_on_c, 5, 62, 84
11, 53999, Note_on_c, 5, 70, 0
11, 53999, Note_on_c, 5, 62, 0
11, 55200, Note_on_c, 5, 70, 84
11, 55200, Note_on_c, 5, 58, 84
11, 55424, Note_on_c, 5, 70, 0
11, 55424, Note_on_c, 5, 58, 0
11, 55440, Note_on_c, 5, 58, 84
11, 55440, Note_on_c, 5, 70, 84
11, 55664, Note_on_c, 5, 58, 0
11, 55664, Note_on_c, 5, 70, 0
11, 55680, Note_on_c, 5, 65, 84
11, 55680, Note_on_c, 5, 53, 84
11, 55919, Note_on_c, 5, 65, 0
11, 55919, Note_on_c, 5, 53, 0
11, 57600, Note_on_c, 5, 72, 84
11, 57600, Note_on_c, 5, 65, 84
11, 57839, Note_on_c, 5, 72, 0
11, 57839, Note_on_c, 5, 65, 0
11, 58560, Note_on_c, 5, 58, 84
11, 58560, Note_on_c, 5, 70, 84
11, 58799, Note_on_c, 5, 58, 0
11, 58799, Note_on_c, 5, 70, 0
11, 59520, Note_on_c, 5, 70, 84
11, 59520, Note_on_c, 5, 58, 84
11, 59759, Note_on_c, 5, 70, 0
11, 59759, Note_on_c, 5, 58, 0
11, 60480, Note_on_c, 5, 65, 84
11, 60480, Note_on_c, 5, 53, 84
11, 60719, Note_on_c, 5, 65, 0
11, 60719, Note_on_c, 5, 53, 0
11, 75360, Note_on_c, 5, 72, 72
11, 75360, Note_on_c, 5, 65, 72
11, 75599, Note_on_c, 5, 72, 0
11, 75599, Note_on_c, 5, 65, 0
11, 75840, Note_on_c, 5, 65, 76
11, 75840, Note_on_c, 5, 72, 76
11, 76079, Note_on_c, 5, 65, 0
11, 76079, Note_on_c, 5, 72, 0
11, 76320, Note_on_c, 5, 72, 80
11, 76320, Note_on_c, 5, 65, 80
11, 76559, Note_on_c, 5, 72, 0
11, 76559, Note_on_c, 5, 65, 0
11, 76800, Note_on_c, 5, 62, 84
11, 76800, Note_on_c, 5, 70, 84
11, 77024, Note_on_c, 5, 62, 0
11, 77024, Note_on_c, 5, 70, 0
11, 77040, Note_on_c, 5, 58, 84
11, 77040, Note_on_c, 5, 70, 84
11, 77264, Note_on_c, 5, 58, 0
11, 77264, Note_on_c, 5, 70, 0
11, 77280, Note_on_c, 5, 70, 84
11, 77280, Note_on_c, 5, 58, 84
11, 77504, Note_on_c, 5, 70, 0
11, 77504, Note_on_c, 5, 58, 0
11, 77520, Note_on_c, 5, 58, 84
11, 77520, Note_on_c, 5, 70, 84
11, 77744, Note_on_c, 5, 58, 0
11, 77744, Note_on_c, 5, 70, 0
11, 77760, Note_on_c, 5, 70, 84
11, 77760, Note_on_c, 5, 58, 84
11, 77984, Note_on_c, 5, 70, 0
11, 77984, Note_on_c, 5, 58, 0
11, 78000, Note_on_c, 5, 58, 84
11, 78000, Note_on_c, 5, 70, 84
11, 78224, Note_on_c, 5, 58, 0
11, 78224, Note_on_c, 5, 70, 0
11, 78240, Note_on_c, 5, 70, 84
11, 78240, Note_on_c, 5, 58, 84
11, 78464, Note_on_c, 5, 70, 0
11, 78464, Note_on_c, 5, 58, 0
11, 78480, Note_on_c, 5, 70, 84
11, 78480, Note_on_c, 5, 58, 84
11, 78704, Note_on_c, 5, 70, 0
11, 78704, Note_on_c, 5, 58, 0
11, 78720, Note_on_c, 5, 70, 84
11, 78720, Note_on_c, 5, 58, 84
11, 78839, Note_on_c, 5, 70, 0
11, 78839, Note_on_c, 5, 58, 0
11, 78960, Note_on_c, 5, 70, 84
11, 78960, Note_on_c, 5, 58, 84
11, 79079, Note_on_c, 5, 70, 0
11, 79079, Note_on_c, 5, 58, 0
11, 79200, Note_on_c, 5, 58, 84
11, 79200, Note_on_c, 5, 70, 84
11, 79319, Note_on_c, 5, 58, 0
11, 79319, Note_on_c, 5, 70, 0
11, 79440, Note_on_c, 5, 58, 84
11, 79440, Note_on_c, 5, 70, 84
11, 79559, Note_on_c, 5, 58, 0
11, 79559, Note_on_c, 5, 70, 0
11, 79680, Note_on_c, 5, 65, 84
11, 79680, Note_on_c, 5, 53, 84
11, 79799, Note_on_c, 5, 65, 0
11, 79799, Note_on_c, 5, 53, 0
11, 79920, Note_on_c, 5, 53, 84
11, 79920, Note_on_c, 5, 65, 84
11, 80039, Note_on_c, 5, 53, 0
11, 80039, Note_on_c, 5, 65, 0
11, 80160, Note_on_c, 5, 65, 84
11, 80160, Note_on_c, 5, 53, 84
11, 80279, Note_on_c, 5, 65, 0
11, 80279, Note_on_c, 5, 53, 0
11, 80400, Note_on_c, 5, 65, 84
11, 80400, Note_on_c, 5, 53, 84
11, 80519, Note_on_c, 5, 65, 0
11, 80519, Note_on_c, 5, 53, 0
11, 80640, Note_on_c, 5, 58, 92
11, 80640, Note_on_c, 5, 70, 92
11, 82529, Note_on_c, 5, 58, 0
11, 82529, Note_on_c, 5, 70, 0
11, 82560, Note_on_c, 5, 58, 92
11, 82560, Note_on_c, 5, 70, 92
11, 83489, Note_on_c, 5, 58, 0
11, 83489, Note_on_c, 5, 70, 0
11, 83520, Note_on_c, 5, 53, 92
11, 83520, Note_on_c, 5, 65, 92
11, 84449, Note_on_c, 5, 53, 0
11, 84449, Note_on_c, 5, 65, 0
11, 84480, Note_on_c, 5, 58, 92
11, 84480, Note_on_c, 5, 70, 92
11, 85409, Note_on_c, 5, 58, 0
11, 85409, Note_on_c, 5, 70, 0
11, 86400, Note_on_c, 5, 77, 92
11, 86400, Note_on_c, 5, 65, 92
11, 87329, Note_on_c, 5, 77, 0
11, 87329, Note_on_c, 5, 65, 0
11, 94320, Note_on_c, 5, 72, 84
11, 94784, Note_on_c, 5, 72, 0
11, 94800, Note_on_c, 5, 72, 84
11, 95264, Note_on_c, 5, 72, 0
11, 95280, Note_on_c, 5, 72, 84
11, 95744, Note_on_c, 5, 72, 0
11, 95760, Note_on_c, 5, 72, 84
11, 96224, Note_on_c, 5, 72, 0
11, 96240, Note_on_c, 5, 72, 84
11, 96704, Note_on_c, 5, 72, 0
11, 96720, Note_on_c, 5, 72, 84
11, 97184, Note_on_c, 5, 72, 0
11, 97200, Note_on_c, 5, 72, 92
11, 97649, Note_on_c, 5, 72, 0
11, 97680, Note_on_c, 5, 72, 84
11, 97904, Note_on_c, 5, 72, 0
11, 97920, Note_on_c, 5, 72, 84
11, 98159, Note_on_c, 5, 72, 0
11, 125760, Note_on_c, 5, 72, 76
11, 126119, Note_on_c, 5, 72, 0
11, 126240, Note_on_c, 5, 72, 76
11, 126599, Note_on_c, 5, 72, 0
11, 126720, Note_on_c, 5, 72, 76
11, 127079, Note_on_c, 5, 72, 0
11, 127200, Note_on_c, 5, 72, 76
11, 127559, Note_on_c, 5, 72, 0
11, 127680, Note_on_c, 5, 72, 76
11, 128039, Note_on_c, 5, 72, 0
11, 128160, Note_on_c, 5, 72, 76
11, 128519, Note_on_c, 5, 72, 0
11, 128640, Note_on_c, 5, 72, 76
11, 128640, Note_on_c, 5, 65, 76
11, 128879, Note_on_c, 5, 72, 0
11, 128879, Note_on_c, 5, 65, 0
11, 129600, Note_on_c, 5, 74, 76
11, 129600, Note_on_c, 5, 65, 76
11, 129839, Note_on_c, 5, 74, 0
11, 129839, Note_on_c, 5, 65, 0
11, 130560, Note_on_c, 5, 72, 76
11, 130560, Note_on_c, 5, 65, 76
11, 130799, Note_on_c, 5, 72, 0
11, 130799, Note_on_c, 5, 65, 0
11, 131280, Note_on_c, 5, 72, 76
11, 131504, Note_on_c, 5, 72, 0
11, 131520, Note_on_c, 5, 72, 76
11, 131744, Note_on_c, 5, 72, 0
11, 131760, Note_on_c, 5, 72, 76
11, 131984, Note_on_c, 5, 72, 0
11, 132000, Note_on_c, 5, 72, 76
11, 132224, Note_on_c, 5, 72, 0
11, 132240, Note_on_c, 5, 72, 76
11, 132464, Note_on_c, 5, 72, 0
11, 132480, Note_on_c, 5, 72, 76
11, 132480, Note_on_c, 5, 65, 76
11, 132719, Note_on_c, 5, 72, 0
11, 132719, Note_on_c, 5, 65, 0
11, 132960, Note_on_c, 5, 65, 76
11, 132960, Note_on_c, 5, 74, 76
11, 133199, Note_on_c, 5, 65, 0
11, 133199, Note_on_c, 5, 74, 0
11, 133440, Note_on_c, 5, 72, 76
11, 133440, Note_on_c, 5, 65, 76
11, 133679, Note_on_c, 5, 72, 0
11, 133679, Note_on_c, 5, 65, 0
11, 133920, Note_on_c, 5, 72, 76
11, 134159, Note_on_c, 5, 72, 0
11, 134400, Note_on_c, 5, 65, 52
11, 134400, Note_on_c, 5, 72, 52
11, 134639, Note_on_c, 5, 65, 0
11, 134639, Note_on_c, 5, 72, 0
11, 153600, Note_on_c, 5, 77, 84
11, 153600, Note_on_c, 5, 65, 84
11, 153839, Note_on_c, 5, 77, 0
11, 153839, Note_on_c, 5, 65, 0
11, 154320, Note_on_c, 5, 65, 84
11, 154320, Note_on_c, 5, 77, 84
11, 154544, Note_on_c, 5, 65, 0
11, 154544, Note_on_c, 5, 77, 0
11, 154560, Note_on_c, 5, 65, 84
11, 154560, Note_on_c, 5, 77, 84
11, 154799, Note_on_c, 5, 65, 0
11, 154799, Note_on_c, 5, 77, 0
11, 155040, Note_on_c, 5, 72, 84
11, 155279, Note_on_c, 5, 72, 0
11, 157440, Note_on_c, 5, 77, 84
11, 157440, Note_on_c, 5, 65, 84
11, 157679, Note_on_c, 5, 77, 0
11, 157679, Note_on_c, 5, 65, 0
11, 158160, Note_on_c, 5, 77, 84
11, 158160, Note_on_c, 5, 65, 84
11, 158384, Note_on_c, 5, 77, 0
11, 158384, Note_on_c, 5, 65, 0
11, 158400, Note_on_c, 5, 65, 84
11, 158400, Note_on_c, 5, 77, 84
11, 158639, Note_on_c, 5, 65, 0
11, 158639, Note_on_c, 5, 77, 0
11, 158880, Note_on_c, 5, 72, 84
11, 159119, Note_on_c, 5, 72, 0
11, 162240, Note_on_c, 5, 72, 76
11, 163184, Note_on_c, 5, 72, 0
11, 163200, Note_on_c, 5, 72, 76
11, 164144, Note_on_c, 5, 72, 0
11, 164160, Note_on_c, 5, 72, 76
11, 165104, Note_on_c, 5, 72, 0
11, 165120, Note_on_c, 5, 65, 84
11, 165120, Note_on_c, 5, 77, 84
11, 167024, Note_on_c, 5, 65, 0
11, 167024, Note_on_c, 5, 77, 0
11, 167040, Note_on_c, 5, 77, 84
11, 167040, Note_on_c, 5, 65, 84
11, 167984, Note_on_c, 5, 77, 0
11, 167984, Note_on_c, 5, 65, 0
11, 168000, Note_on_c, 5, 72, 84
11, 168944, Note_on_c, 5, 72, 0
11, 168960, Note_on_c, 5, 65, 84
11, 168960, Note_on_c, 5, 72, 84
11, 169199, Note_on_c, 5, 65, 0
11, 169199, Note_on_c, 5, 72, 0
11, 172080, Note_on_c, 5, 72, 76
11, 172544, Note_on_c, 5, 72, 0
11, 172560, Note_on_c, 5, 72, 76
11, 172739, Note_on_c, 5, 72, 0
11, 172800, Note_on_c, 5, 65, 76
11, 172800, Note_on_c, 5, 72, 76
11, 172979, Note_on_c, 5, 65, 0
11, 172979, Note_on_c, 5, 72, 0
11, 175920, Note_on_c, 5, 72, 76
11, 176384, Note_on_c, 5, 72, 0
11, 176400, Note_on_c, 5, 72, 76
11, 176624, Note_on_c, 5, 72, 0
11, 176640, Note_on_c, 5, 65, 76
11, 176640, Note_on_c, 5, 72, 76
11, 176879, Note_on_c, 5, 65, 0
11, 176879, Note_on_c, 5, 72, 0
11, 177840, Note_on_c, 5, 72, 76
11, 178304, Note_on_c, 5, 72, 0
11, 178320, Note_on_c, 5, 72, 76
11, 178544, Note_on_c, 5, 72, 0
11, 178560, Note_on_c, 5, 72, 84
11, 178560, Note_on_c, 5, 65, 84
11, 180407, Note_on_c, 5, 72, 0
11, 180407, Note_on_c, 5, 65, 0
11, 180420, Note_on_c, 5, 72, 84
11, 180420, Note_on_c, 5, 65, 84
11, 180471, Note_on_c, 5, 72, 0
11, 180471, Note_on_c, 5, 65, 0
11, 180480, Note_on_c, 5, 65, 84
11, 180480, Note_on_c, 5, 72, 84
11, 180719, Note_on_c, 5, 65, 0
11, 180719, Note_on_c, 5, 72, 0
11, 182400, Note_on_c, 5, 72, 84
11, 182400, Note_on_c, 5, 65, 84
11, 184247, Note_on_c, 5, 72, 0
11, 184247, Note_on_c, 5, 65, 0
11, 184260, Note_on_c, 5, 65, 84
11, 184260, Note_on_c, 5, 72, 84
11, 184311, Note_on_c, 5, 65, 0
11, 184311, Note_on_c, 5, 72, 0
11, 184320, Note_on_c, 5, 65, 84
11, 184320, Note_on_c, 5, 72, 84
11, 184559, Note_on_c, 5, 65, 0
11, 184559, Note_on_c, 5, 72, 0
11, 185280, Note_on_c, 5, 72, 84
11, 185280, Note_on_c, 5, 65, 84
11, 185459, Note_on_c, 5, 72, 0
11, 185459, Note_on_c, 5, 65, 0
11, 186240, Note_on_c, 5, 72, 84
11, 186240, Note_on_c, 5, 65, 84
11, 186419, Note_on_c, 5, 72, 0
11, 186419, Note_on_c, 5, 65, 0
11, 186720, Note_on_c, 5, 72, 84
11, 186720, Note_on_c, 5, 65, 84
11, 186899, Note_on_c, 5, 72, 0
11, 186899, Note_on_c, 5, 65, 0
11, 187200, Note_on_c, 5, 65, 84
11, 187200, Note_on_c, 5, 72, 84
11, 187379, Note_on_c, 5, 65, 0
11, 187379, Note_on_c, 5, 72, 0
11, 187680, Note_on_c, 5, 65, 84
11, 187680, Note_on_c, 5, 72, 84
11, 187859, Note_on_c, 5, 65, 0
11, 187859, Note_on_c, 5, 72, 0
11, 188160, Note_on_c, 5, 74, 84
11, 188160, Note_on_c, 5, 70, 84
11, 188339, Note_on_c, 5, 74, 0
11, 188339, Note_on_c, 5, 70, 0
11, 195840, Note_on_c, 5, 65, 84
11, 195840, Note_on_c, 5, 72, 84
11, 196019, Note_on_c, 5, 65, 0
11, 196019, Note_on_c, 5, 72, 0
11, 196800, Note_on_c, 5, 65, 84
11, 196800, Note_on_c, 5, 72, 84
11, 196979, Note_on_c, 5, 65, 0
11, 196979, Note_on_c, 5, 72, 0
11, 197280, Note_on_c, 5, 65, 84
11, 197280, Note_on_c, 5, 72, 84
11, 197459, Note_on_c, 5, 65, 0
11, 197459, Note_on_c, 5, 72, 0
11, 197760, Note_on_c, 5, 70, 84
11, 197760, Note_on_c, 5, 74, 84
11, 197879, Note_on_c, 5, 70, 0
11, 197879, Note_on_c, 5, 74, 0
11, 198000, Note_on_c, 5, 58, 84
11, 198000, Note_on_c, 5, 70, 84
11, 198119, Note_on_c, 5, 58, 0
11, 198119, Note_on_c, 5, 70, 0
11, 198240, Note_on_c, 5, 70, 84
11, 198240, Note_on_c, 5, 58, 84
11, 198359, Note_on_c, 5, 70, 0
11, 198359, Note_on_c, 5, 58, 0
11, 198480, Note_on_c, 5, 70, 84
11, 198480, Note_on_c, 5, 58, 84
11, 198599, Note_on_c, 5, 70, 0
11, 198599, Note_on_c, 5, 58, 0
11, 198720, Note_on_c, 5, 58, 84
11, 198720, Note_on_c, 5, 70, 84
11, 198839, Note_on_c, 5, 58, 0
11, 198839, Note_on_c, 5, 70, 0
11, 198960, Note_on_c, 5, 70, 84
11, 198960, Note_on_c, 5, 58, 84
11, 199079, Note_on_c, 5, 70, 0
11, 199079, Note_on_c, 5, 58, 0
11, 199200, Note_on_c, 5, 70, 84
11, 199200, Note_on_c, 5, 58, 84
11, 199319, Note_on_c, 5, 70, 0
11, 199319, Note_on_c, 5, 58, 0
11, 199440, Note_on_c, 5, 70, 84
11, 199440, Note_on_c, 5, 58, 84
11, 199559, Note_on_c, 5, 70, 0
11, 199559, Note_on_c, 5, 58, 0
11, 199680, Note_on_c, 5, 70, 84
11, 199680, Note_on_c, 5, 58, 84
11, 199799, Note_on_c, 5, 70, 0
11, 199799, Note_on_c, 5, 58, 0
11, 199920, Note_on_c, 5, 70, 84
11, 199920, Note_on_c, 5, 58, 84
11, 200039, Note_on_c, 5, 70, 0
11, 200039, Note_on_c, 5, 58, 0
11, 200160, Note_on_c, 5, 58, 84
11, 200160, Note_on_c, 5, 70, 84
11, 200279, Note_on_c, 5, 58, 0
11, 200279, Note_on_c, 5, 70, 0
11, 200400, Note_on_c, 5, 70, 84
11, 200400, Note_on_c, 5, 58, 84
11, 200519, Note_on_c, 5, 70, 0
11, 200519, Note_on_c, 5, 58, 0
11, 200640, Note_on_c, 5, 72, 84
11, 200640, Note_on_c, 5, 65, 84
11, 200759, Note_on_c, 5, 72, 0
11, 200759, Note_on_c, 5, 65, 0
11, 200880, Note_on_c, 5, 65, 84
11, 200880, Note_on_c, 5, 72, 84
11, 200999, Note_on_c, 5, 65, 0
11, 200999, Note_on_c, 5, 72, 0
11, 201120, Note_on_c, 5, 72, 84
11, 201120, Note_on_c, 5, 65, 84
11, 201239, Note_on_c, 5, 72, 0
11, 201239, Note_on_c, 5, 65, 0
11, 201360, Note_on_c, 5, 65, 84
11, 201360, Note_on_c, 5, 72, 84
11, 201479, Note_on_c, 5, 65, 0
11, 201479, Note_on_c, 5, 72, 0
11, 201600, Note_on_c, 5, 62, 84
11, 201600, Note_on_c, 5, 70, 84
11, 201839, Note_on_c, 5, 62, 0
11, 201839, Note_on_c, 5, 70, 0
11, 203040, Note_on_c, 5, 70, 84
11, 203040, Note_on_c, 5, 58, 84
11, 203264, Note_on_c, 5, 70, 0
11, 203264, Note_on_c, 5, 58, 0
11, 203280, Note_on_c, 5, 70, 84
11, 203280, Note_on_c, 5, 58, 84
11, 203504, Note_on_c, 5, 70, 0
11, 203504, Note_on_c, 5, 58, 0
11, 203520, Note_on_c, 5, 53, 84
11, 203520, Note_on_c, 5, 65, 84
11, 203759, Note_on_c, 5, 53, 0
11, 203759, Note_on_c, 5, 65, 0
11, 205440, Note_on_c, 5, 65, 84
11, 205440, Note_on_c, 5, 72, 84
11, 205679, Note_on_c, 5, 65, 0
11, 205679, Note_on_c, 5, 72, 0
11, 206400, Note_on_c, 5, 58, 84
11, 206400, Note_on_c, 5, 70, 84
11, 206639, Note_on_c, 5, 58, 0
11, 206639, Note_on_c, 5, 70, 0
11, 207360, Note_on_c, 5, 70, 84
11, 207360, Note_on_c, 5, 58, 84
11, 207599, Note_on_c, 5, 70, 0
11, 207599, Note_on_c, 5, 58, 0
11, 208320, Note_on_c, 5, 53, 84
11, 208320, Note_on_c, 5, 65, 84
11, 208559, Note_on_c, 5, 53, 0
11, 208559, Note_on_c, 5, 65, 0
11, 223200, Note_on_c, 5, 65, 72
11, 223200, Note_on_c, 5, 72, 72
11, 223439, Note_on_c, 5, 65, 0
11, 223439, Note_on_c, 5, 72, 0
11, 223680, Note_on_c, 5, 65, 76
11, 223680, Note_on_c, 5, 72, 76
11, 223919, Note_on_c, 5, 65, 0
11, 223919, Note_on_c, 5, 72, 0
11, 224160, Note_on_c, 5, 65, 80
11, 224160, Note_on_c, 5, 72, 80
11, 224399, Note_on_c, 5, 65, 0
11, 224399, Note_on_c, 5, 72, 0
11, 224640, Note_on_c, 5, 62, 84
11, 224640, Note_on_c, 5, 70, 84
11, 224864, Note_on_c, 5, 62, 0
11, 224864, Note_on_c, 5, 70, 0
11, 224880, Note_on_c, 5, 58, 84
11, 224880, Note_on_c, 5, 70, 84
11, 225104, Note_on_c, 5, 58, 0
11, 225104, Note_on_c, 5, 70, 0
11, 225120, Note_on_c, 5, 70, 84
11, 225120, Note_on_c, 5, 58, 84
11, 225344, Note_on_c, 5, 70, 0
11, 225344, Note_on_c, 5, 58, 0
11, 225360, Note_on_c, 5, 70, 84
11, 225360, Note_on_c, 5, 58, 84
11, 225584, Note_on_c, 5, 70, 0
11, 225584, Note_on_c, 5, 58, 0
11, 225600, Note_on_c, 5, 58, 84
11, 225600, Note_on_c, 5, 70, 84
11, 225824, Note_on_c, 5, 58, 0
11, 225824, Note_on_c, 5, 70, 0
11, 225840, Note_on_c, 5, 58, 84
11, 225840, Note_on_c, 5, 70, 84
11, 226064, Note_on_c, 5, 58, 0
11, 226064, Note_on_c, 5, 70, 0
11, 226080, Note_on_c, 5, 70, 84
11, 226080, Note_on_c, 5, 58, 84
11, 226304, Note_on_c, 5, 70, 0
11, 226304, Note_on_c, 5, 58, 0
11, 226320, Note_on_c, 5, 70, 84
11, 226320, Note_on_c, 5, 58, 84
11, 226544, Note_on_c, 5, 70, 0
11, 226544, Note_on_c, 5, 58, 0
11, 226560, Note_on_c, 5, 58, 84
11, 226560, Note_on_c, 5, 70, 84
11, 226679, Note_on_c, 5, 58, 0
11, 226679, Note_on_c, 5, 70, 0
11, 226800, Note_on_c, 5, 58, 84
11, 226800, Note_on_c, 5, 70, 84
11, 226919, Note_on_c, 5, 58, 0
11, 226919, Note_on_c, 5, 70, 0
11, 227040, Note_on_c, 5, 58, 84
11, 227040, Note_on_c, 5, 70, 84
11, 227159, Note_on_c, 5, 58, 0
11, 227159, Note_on_c, 5, 70, 0
11, 227280, Note_on_c, 5, 58, 84
11, 227280, Note_on_c, 5, 70, 84
11, 227399, Note_on_c, 5, 58, 0
11, 227399, Note_on_c, 5, 70, 0
11, 227520, Note_on_c, 5, 65, 84
11, 227520, Note_on_c, 5, 53, 84
11, 227639, Note_on_c, 5, 65, 0
11, 227639, Note_on_c, 5, 53, 0
11, 227760, Note_on_c, 5, 65, 84
11, 227760, Note_on_c, 5, 53, 84
11, 227879, Note_on_c, 5, 65, 0
11, 227879, Note_on_c, 5, 53, 0
11, 228000, Note_on_c, 5, 53, 84
11, 228000, Note_on_c, 5, 65, 84
11, 228119, Note_on_c, 5, 53, 0
11, 228119, Note_on_c, 5, 65, 0
11, 228240, Note_on_c, 5, 65, 84
11, 228240, Note_on_c, 5, 53, 84
11, 228359, Note_on_c, 5, 65, 0
11, 228359, Note_on_c, 5, 53, 0
11, 228480, Note_on_c, 5, 70, 92
11, 228480, Note_on_c, 5, 58, 92
11, 230369, Note_on_c, 5, 70, 0
11, 230369, Note_on_c, 5, 58, 0
11, 230400, Note_on_c, 5, 70, 92
11, 230400, Note_on_c, 5, 58, 92
11, 231329, Note_on_c, 5, 70, 0
11, 231329, Note_on_c, 5, 58, 0
11, 231360, Note_on_c, 5, 53, 92
11, 231360, Note_on_c, 5, 65, 92
11, 232289, Note_on_c, 5, 53, 0
11, 232289, Note_on_c, 5, 65, 0
11, 232320, Note_on_c, 5, 70, 92
11, 232320, Note_on_c, 5, 58, 92
11, 233249, Note_on_c, 5, 70, 0
11, 233249, Note_on_c, 5, 58, 0
11, 234240, Note_on_c, 5, 65, 92
11, 234240, Note_on_c, 5, 77, 92
11, 235169, Note_on_c, 5, 65, 0
11, 235169, Note_on_c, 5, 77, 0
11, 242160, Note_on_c, 5, 72, 84
11, 242624, Note_on_c, 5, 72, 0
11, 242640, Note_on_c, 5, 72, 84
11, 243104, Note_on_c, 5, 72, 0
11, 243120, Note_on_c, 5, 72, 84
11, 243584, Note_on_c, 5, 72, 0
11, 243600, Note_on_c, 5, 72, 84
11, 244064, Note_on_c, 5, 72, 0
11, 244080, Note_on_c, 5, 72, 84
11, 244544, Note_on_c, 5, 72, 0
11, 244560, Note_on_c, 5, 72, 84
11, 245024, Note_on_c, 5, 72, 0
11, 245040, Note_on_c, 5, 72, 92
11, 245489, Note_on_c, 5, 72, 0
11, 245520, Note_on_c, 5, 72, 84
11, 245744, Note_on_c, 5, 72, 0
11, 245760, Note_on_c, 5, 72, 84
11, 245999, Note_on_c, 5, 72, 0
11, 273600, Note_on_c, 5, 72, 76
11, 273959, Note_on_c, 5, 72, 0
11, 274080, Note_on_c, 5, 72, 76
11, 274439, Note_on_c, 5, 72, 0
11, 274560, Note_on_c, 5, 72, 76
11, 274919, Note_on_c, 5, 72, 0
11, 275040, Note_on_c, 5, 72, 76
11, 275399, Note_on_c, 5, 72, 0
11, 275520, Note_on_c, 5, 72, 76
11, 275879, Note_on_c, 5, 72, 0
11, 276000, Note_on_c, 5, 72, 76
11, 276359, Note_on_c, 5, 72, 0
11, 276480, Note_on_c, 5, 65, 76
11, 276480, Note_on_c, 5, 72, 76
11, 276719, Note_on_c, 5, 65, 0
11, 276719, Note_on_c, 5, 72, 0
11, 277440, Note_on_c, 5, 74, 76
11, 277440, Note_on_c, 5, 65, 76
11, 277679, Note_on_c, 5, 74, 0
11, 277679, Note_on_c, 5, 65, 0
11, 278400, Note_on_c, 5, 72, 76
11, 278400, Note_on_c, 5, 65, 76
11, 278639, Note_on_c, 5, 72, 0
11, 278639, Note_on_c, 5, 65, 0
11, 279120, Note_on_c, 5, 72, 76
11, 279344, Note_on_c, 5, 72, 0
11, 279360, Note_on_c, 5, 72, 76
11, 279584, Note_on_c, 5, 72, 0
11, 279600, Note_on_c, 5, 72, 76
11, 279824, Note_on_c, 5, 72, 0
11, 279840, Note_on_c, 5, 72, 76
11, 280064, Note_on_c, 5, 72, 0
11, 280080, Note_on_c, 5, 72, 76
11, 280304, Note_on_c, 5, 72, 0
11, 280320, Note_on_c, 5, 65, 76
11, 280320, Note_on_c, 5, 72, 76
11, 280559, Note_on_c, 5, 65, 0
11, 280559, Note_on_c, 5, 72, 0
11, 280800, Note_on_c, 5, 65, 76
11, 280800, Note_on_c, 5, 74, 76
11, 281039, Note_on_c, 5, 65, 0
11, 281039, Note_on_c, 5, 74, 0
11, 281280, Note_on_c, 5, 65, 76
11, 281280, Note_on_c, 5, 72, 76
11, 281519, Note_on_c, 5, 65, 0
11, 281519, Note_on_c, 5, 72, 0
11, 281760, Note_on_c, 5, 72, 76
11, 281999, Note_on_c, 5, 72, 0
11, 282240, Note_on_c, 5, 65, 52
11, 282240, Note_on_c, 5, 72, 52
11, 282479, Note_on_c, 5, 65, 0
11, 282479, Note_on_c, 5, 72, 0
11, 301440, Note_on_c, 5, 77, 84
11, 301440, Note_on_c, 5, 65, 84
11, 301679, Note_on_c, 5, 77, 0
11, 301679, Note_on_c, 5, 65, 0
11, 302160, Note_on_c, 5, 77, 84
11, 302160, Note_on_c, 5, 65, 84
11, 302384, Note_on_c, 5, 77, 0
11, 302384, Note_on_c, 5, 65, 0
11, 302400, Note_on_c, 5, 65, 84
11, 302400, Note_on_c, 5, 77, 84
11, 302639, Note_on_c, 5, 65, 0
11, 302639, Note_on_c, 5, 77, 0
11, 302880, Note_on_c, 5, 72, 84
11, 303119, Note_on_c, 5, 72, 0
11, 305280, Note_on_c, 5, 77, 84
11, 305280, Note_on_c, 5, 65, 84
11, 305519, Note_on_c, 5, 77, 0
11, 305519, Note_on_c, 5, 65, 0
11, 306000, Note_on_c, 5, 65, 84
11, 306000, Note_on_c, 5, 77, 84
11, 306224, Note_on_c, 5, 65, 0
11, 306224, Note_on_c, 5, 77, 0
11, 306240, Note_on_c, 5, 65, 84
11, 306240, Note_on_c, 5, 77, 84
11, 306479, Note_on_c, 5, 65, 0
11, 306479, Note_on_c, 5, 77, 0
11, 306720, Note_on_c, 5, 72, 84
11, 306959, Note_on_c, 5, 72, 0
11, 310080, Note_on_c, 5, 72, 76
11, 311024, Note_on_c, 5, 72, 0
11, 311040, Note_on_c, 5, 72, 76
11, 311984, Note_on_c, 5, 72, 0
11, 312000, Note_on_c, 5, 72, 76
11, 312944, Note_on_c, 5, 72, 0
11, 312960, Note_on_c, 5, 65, 84
11, 312960, Note_on_c, 5, 77, 84
11, 314864, Note_on_c, 5, 65, 0
11, 314864, Note_on_c, 5, 77, 0
11, 314880, Note_on_c, 5, 65, 84
11, 314880, Note_on_c, 5, 77, 84
11, 315824, Note_on_c, 5, 65, 0
11, 315824, Note_on_c, 5, 77, 0
11, 315840, Note_on_c, 5, 72, 84
11, 316784, Note_on_c, 5, 72, 0
11, 316800, Note_on_c, 5, 72, 84
11, 316800, Note_on_c, 5, 65, 84
11, 317039, Note_on_c, 5, 72, 0
11, 317039, Note_on_c, 5, 65, 0
11, 319920, Note_on_c, 5, 72, 76
11, 320384, Note_on_c, 5, 72, 0
11, 320400, Note_on_c, 5, 72, 76
11, 320579, Note_on_c, 5, 72, 0
11, 320640, Note_on_c, 5, 65, 76
11, 320640, Note_on_c, 5, 72, 76
11, 320819, Note_on_c, 5, 65, 0
11, 320819, Note_on_c, 5, 72, 0
11, 323760, Note_on_c, 5, 72, 76
11, 324224, Note_on_c, 5, 72, 0
11, 324240, Note_on_c, 5, 72, 76
11, 324464, Note_on_c, 5, 72, 0
11, 324480, Note_on_c, 5, 72, 76
11, 324480, Note_on_c, 5, 65, 76
11, 324719, Note_on_c, 5, 72, 0
11, 324719, Note_on_c, 5, 65, 0
11, 324960, Note_on_c, 5, 53, 76
11, 324960, Note_on_c, 5, 65, 76
11, 325199, Note_on_c, 5, 53, 0
11, 325199, Note_on_c, 5, 65, 0
11, 325440, Note_on_c, 5, 53, 76
11, 325440, Note_on_c, 5, 65, 76
11, 325679, Note_on_c, 5, 53, 0
11, 325679, Note_on_c, 5, 65, 0
11, 325920, Note_on_c, 5, 65, 76
11, 325920, Note_on_c, 5, 53, 76
11, 326159, Note_on_c, 5, 65, 0
11, 326159, Note_on_c, 5, 53, 0
11, 326400, Note_on_c, 5, 65, 76
11, 326400, Note_on_c, 5, 53, 76
11, 326639, Note_on_c, 5, 65, 0
11, 326639, Note_on_c, 5, 53, 0
11, 378240, Note_on_c, 5, 75, 84
11, 380144, Note_on_c, 5, 75, 0
11, 380160, Note_on_c, 5, 75, 84
11, 381104, Note_on_c, 5, 75, 0
11, 381120, Note_on_c, 5, 75, 84
11, 381359, Note_on_c, 5, 75, 0
11, 381600, Note_on_c, 5, 75, 84
11, 381839, Note_on_c, 5, 75, 0
11, 382080, Note_on_c, 5, 75, 84
11, 382319, Note_on_c, 5, 75, 0
11, 385920, Note_on_c, 5, 74, 84
11, 387824, Note_on_c, 5, 74, 0
11, 387840, Note_on_c, 5, 74, 84
11, 388784, Note_on_c, 5, 74, 0
11, 388800, Note_on_c, 5, 74, 84
11, 389039, Note_on_c, 5, 74, 0
11, 389280, Note_on_c, 5, 74, 84
11, 389519, Note_on_c, 5, 74, 0
11, 389760, Note_on_c, 5, 74, 84
11, 389999, Note_on_c, 5, 74, 0
11, 393600, Note_on_c, 5, 58, 84
11, 393600, Note_on_c, 5, 70, 84
11, 395504, Note_on_c, 5, 58, 0
11, 395504, Note_on_c, 5, 70, 0
11, 395520, Note_on_c, 5, 70, 84
11, 395520, Note_on_c, 5, 58, 84
11, 396464, Note_on_c, 5, 70, 0
11, 396464, Note_on_c, 5, 58, 0
11, 396480, Note_on_c, 5, 70, 84
11, 396480, Note_on_c, 5, 58, 84
11, 396719, Note_on_c, 5, 70, 0
11, 396719, Note_on_c, 5, 58, 0
11, 396960, Note_on_c, 5, 58, 84
11, 396960, Note_on_c, 5, 70, 84
11, 397199, Note_on_c, 5, 58, 0
11, 397199, Note_on_c, 5, 70, 0
11, 397440, Note_on_c, 5, 58, 76
11, 397440, Note_on_c, 5, 70, 76
11, 397679, Note_on_c, 5, 58, 0
11, 397679, Note_on_c, 5, 70, 0
11, 398400, Note_on_c, 5, 58, 76
11, 398400, Note_on_c, 5, 70, 76
11, 398639, Note_on_c, 5, 58, 0
11, 398639, Note_on_c, 5, 70, 0
11, 399360, Note_on_c, 5, 58, 76
11, 399360, Note_on_c, 5, 70, 76
11, 399599, Note_on_c, 5, 58, 0
11, 399599, Note_on_c, 5, 70, 0
11, 400320, Note_on_c, 5, 58, 76
11, 400320, Note_on_c, 5, 70, 76
11, 400559, Note_on_c, 5, 58, 0
11, 400559, Note_on_c, 5, 70, 0
11, 401280, Note_on_c, 5, 70, 76
11, 401280, Note_on_c, 5, 58, 76
11, 401519, Note_on_c, 5, 70, 0
11, 401519, Note_on_c, 5, 58, 0
11, 403200, Note_on_c, 5, 58, 52
11, 403200, Note_on_c, 5, 70, 52
11, 403439, Note_on_c, 5, 58, 0
11, 403439, Note_on_c, 5, 70, 0
11, 405120, Note_on_c, 5, 58, 44
11, 405120, Note_on_c, 5, 70, 44
11, 405359, Note_on_c, 5, 58, 0
11, 405359, Note_on_c, 5, 70, 0
11, 466560, Note_on_c, 5, 74, 84
11, 466560, Note_on_c, 5, 62, 84
11, 469424, Note_on_c, 5, 74, 0
11, 469424, Note_on_c, 5, 62, 0
11, 469440, Note_on_c, 5, 62, 84
11, 469440, Note_on_c, 5, 74, 84
11, 469619, Note_on_c, 5, 62, 0
11, 469619, Note_on_c, 5, 74, 0
11, 469920, Note_on_c, 5, 62, 84
11, 469920, Note_on_c, 5, 74, 84
11, 470099, Note_on_c, 5, 62, 0
11, 470099, Note_on_c, 5, 74, 0
11, 470400, Note_on_c, 5, 74, 84
11, 470400, Note_on_c, 5, 62, 84
11, 470519, Note_on_c, 5, 74, 0
11, 470519, Note_on_c, 5, 62, 0
11, 470640, Note_on_c, 5, 70, 84
11, 470759, Note_on_c, 5, 70, 0
11, 470880, Note_on_c, 5, 65, 84
11, 470999, Note_on_c, 5, 65, 0
11, 471120, Note_on_c, 5, 70, 84
11, 471239, Note_on_c, 5, 70, 0
11, 471360, Note_on_c, 5, 62, 84
11, 471479, Note_on_c, 5, 62, 0
11, 471600, Note_on_c, 5, 65, 84
11, 471719, Note_on_c, 5, 65, 0
11, 471840, Note_on_c, 5, 58, 84
11, 471959, Note_on_c, 5, 58, 0
11, 472080, Note_on_c, 5, 62, 84
11, 472199, Note_on_c, 5, 62, 0
11, 472320, Note_on_c, 5, 58, 84
11, 472439, Note_on_c, 5, 58, 0
11, 472560, Note_on_c, 5, 58, 84
11, 472560, Note_on_c, 5, 70, 84
11, 472679, Note_on_c, 5, 58, 0
11, 472679, Note_on_c, 5, 70, 0
11, 472800, Note_on_c, 5, 58, 84
11, 472800, Note_on_c, 5, 70, 84
11, 472919, Note_on_c, 5, 58, 0
11, 472919, Note_on_c, 5, 70, 0
11, 473040, Note_on_c, 5, 70, 84
11, 473040, Note_on_c, 5, 58, 84
11, 473159, Note_on_c, 5, 70, 0
11, 473159, Note_on_c, 5, 58, 0
11, 473280, Note_on_c, 5, 72, 84
11, 473280, Note_on_c, 5, 65, 84
11, 473399, Note_on_c, 5, 72, 0
11, 473399, Note_on_c, 5, 65, 0
11, 473520, Note_on_c, 5, 72, 84
11, 473520, Note_on_c, 5, 65, 84
11, 473639, Note_on_c, 5, 72, 0
11, 473639, Note_on_c, 5, 65, 0
11, 473760, Note_on_c, 5, 65, 84
11, 473760, Note_on_c, 5, 72, 84
11, 473879, Note_on_c, 5, 65, 0
11, 473879, Note_on_c, 5, 72, 0
11, 474000, Note_on_c, 5, 65, 84
11, 474000, Note_on_c, 5, 72, 84
11, 474119, Note_on_c, 5, 65, 0
11, 474119, Note_on_c, 5, 72, 0
11, 474240, Note_on_c, 5, 70, 84
11, 474240, Note_on_c, 5, 62, 84
11, 474479, Note_on_c, 5, 70, 0
11, 474479, Note_on_c, 5, 62, 0
11, 483840, Note_on_c, 5, 70, 84
11, 483840, Note_on_c, 5, 58, 84
11, 484079, Note_on_c, 5, 70, 0
11, 484079, Note_on_c, 5, 58, 0
11, 485760, Note_on_c, 5, 70, 84
11, 485760, Note_on_c, 5, 58, 84
11, 485999, Note_on_c, 5, 70, 0
11, 485999, Note_on_c, 5, 58, 0
11, 486720, Note_on_c, 5, 65, 84
11, 486720, Note_on_c, 5, 53, 84
11, 486959, Note_on_c, 5, 65, 0
11, 486959, Note_on_c, 5, 53, 0
11, 487680, Note_on_c, 5, 58, 84
11, 487680, Note_on_c, 5, 70, 84
11, 487919, Note_on_c, 5, 58, 0
11, 487919, Note_on_c, 5, 70, 0
11, 491520, Note_on_c, 5, 58, 92
11, 491520, Note_on_c, 5, 70, 92
11, 492719, Note_on_c, 5, 58, 0
11, 492719, Note_on_c, 5, 70, 0
11, 492960, Note_on_c, 5, 58, 92
11, 492960, Note_on_c, 5, 70, 92
11, 493199, Note_on_c, 5, 58, 0
11, 493199, Note_on_c, 5, 70, 0
11, 493440, Note_on_c, 5, 58, 84
11, 493440, Note_on_c, 5, 70, 84
11, 493679, Note_on_c, 5, 58, 0
11, 493679, Note_on_c, 5, 70, 0
11, 493920, Note_on_c, 5, 70, 92
11, 493920, Note_on_c, 5, 58, 92
11, 494159, Note_on_c, 5, 70, 0
11, 494159, Note_on_c, 5, 58, 0
11, 494400, Note_on_c, 5, 65, 84
11, 494400, Note_on_c, 5, 53, 84
11, 494639, Note_on_c, 5, 65, 0
11, 494639, Note_on_c, 5, 53, 0
11, 494880, Note_on_c, 5, 62, 92
11, 494880, Note_on_c, 5, 74, 92
11, 495119, Note_on_c, 5, 62, 0
11, 495119, Note_on_c, 5, 74, 0
11, 495840, Note_on_c, 5, 70, 92
11, 495840, Note_on_c, 5, 58, 92
11, 496079, Note_on_c, 5, 70, 0
11, 496079, Note_on_c, 5, 58, 0
11, 496800, Note_on_c, 5, 53, 92
11, 496800, Note_on_c, 5, 65, 92
11, 497039, Note_on_c, 5, 53, 0
11, 497039, Note_on_c, 5, 65, 0
11, 497280, Note_on_c, 5, 58, 84
11, 497280, Note_on_c, 5, 70, 84
11, 499664, Note_on_c, 5, 58, 0
11, 499664, Note_on_c, 5, 70, 0
11, 499680, Note_on_c, 5, 65, 84
11, 499680, Note_on_c, 5, 77, 84
11, 500144, Note_on_c, 5, 65, 0
11, 500144, Note_on_c, 5, 77, 0
11, 500160, Note_on_c, 5, 62, 84
11, 500160, Note_on_c, 5, 74, 84
11, 500624, Note_on_c, 5, 62, 0
11, 500624, Note_on_c, 5, 74, 0
11, 500640, Note_on_c, 5, 70, 84
11, 500640, Note_on_c, 5, 58, 84
11, 501104, Note_on_c, 5, 70, 0
11, 501104, Note_on_c, 5, 58, 0
11, 501120, Note_on_c, 5, 65, 84
11, 501120, Note_on_c, 5, 53, 84
11, 501359, Note_on_c, 5, 65, 0
11, 501359, Note_on_c, 5, 53, 0
11, 504960, Note_on_c, 5, 65, 84
11, 504960, Note_on_c, 5, 53, 84
11, 505199, Note_on_c, 5, 65, 0
11, 505199, Note_on_c, 5, 53, 0
11, 505440, Note_on_c, 5, 53, 84
11, 505440, Note_on_c, 5, 65, 84
11, 505679, Note_on_c, 5, 53, 0
11, 505679, Note_on_c, 5, 65, 0
11, 505920, Note_on_c, 5, 65, 84
11, 505920, Note_on_c, 5, 53, 84
11, 506159, Note_on_c, 5, 65, 0
11, 506159, Note_on_c, 5, 53, 0
11, 506400, Note_on_c, 5, 65, 84
11, 506400, Note_on_c, 5, 53, 84
11, 506639, Note_on_c, 5, 65, 0
11, 506639, Note_on_c, 5, 53, 0
11, 506880, Note_on_c, 5, 65, 84
11, 506880, Note_on_c, 5, 53, 84
11, 507119, Note_on_c, 5, 65, 0
11, 507119, Note_on_c, 5, 53, 0
11, 507360, Note_on_c, 5, 65, 84
11, 507360, Note_on_c, 5, 53, 84
11, 507599, Note_on_c, 5, 65, 0
11, 507599, Note_on_c, 5, 53, 0
11, 507840, Note_on_c, 5, 65, 84
11, 507840, Note_on_c, 5, 53, 84
11, 508079, Note_on_c, 5, 65, 0
11, 508079, Note_on_c, 5, 53, 0
11, 508320, Note_on_c, 5, 53, 84
11, 508320, Note_on_c, 5, 65, 84
11, 508559, Note_on_c, 5, 53, 0
11, 508559, Note_on_c, 5, 65, 0
11, 508800, Note_on_c, 5, 53, 84
11, 508800, Note_on_c, 5, 65, 84
11, 509039, Note_on_c, 5, 53, 0
11, 509039, Note_on_c, 5, 65, 0
11, 536640, Note_on_c, 5, 65, 76
11, 536640, Note_on_c, 5, 77, 76
11, 536999, Note_on_c, 5, 65, 0
11, 536999, Note_on_c, 5, 77, 0
11, 537120, Note_on_c, 5, 77, 76
11, 537120, Note_on_c, 5, 65, 76
11, 537479, Note_on_c, 5, 77, 0
11, 537479, Note_on_c, 5, 65, 0
11, 537600, Note_on_c, 5, 77, 76
11, 537600, Note_on_c, 5, 65, 76
11, 537959, Note_on_c, 5, 77, 0
11, 537959, Note_on_c, 5, 65, 0
11, 538080, Note_on_c, 5, 65, 76
11, 538080, Note_on_c, 5, 77, 76
11, 538439, Note_on_c, 5, 65, 0
11, 538439, Note_on_c, 5, 77, 0
11, 538560, Note_on_c, 5, 65, 76
11, 538560, Note_on_c, 5, 77, 76
11, 538919, Note_on_c, 5, 65, 0
11, 538919, Note_on_c, 5, 77, 0
11, 539040, Note_on_c, 5, 77, 76
11, 539040, Note_on_c, 5, 65, 76
11, 539399, Note_on_c, 5, 77, 0
11, 539399, Note_on_c, 5, 65, 0
11, 539520, Note_on_c, 5, 70, 76
11, 539520, Note_on_c, 5, 58, 76
11, 539759, Note_on_c, 5, 70, 0
11, 539759, Note_on_c, 5, 58, 0
11, 540480, Note_on_c, 5, 70, 76
11, 540480, Note_on_c, 5, 58, 76
11, 540719, Note_on_c, 5, 70, 0
11, 540719, Note_on_c, 5, 58, 0
11, 541440, Note_on_c, 5, 58, 76
11, 541440, Note_on_c, 5, 70, 76
11, 541679, Note_on_c, 5, 58, 0
11, 541679, Note_on_c, 5, 70, 0
11, 542160, Note_on_c, 5, 58, 76
11, 542160, Note_on_c, 5, 70, 76
11, 542384, Note_on_c, 5, 58, 0
11, 542384, Note_on_c, 5, 70, 0
11, 542400, Note_on_c, 5, 65, 76
11, 542400, Note_on_c, 5, 53, 76
11, 542624, Note_on_c, 5, 65, 0
11, 542624, Note_on_c, 5, 53, 0
11, 542640, Note_on_c, 5, 65, 76
11, 542640, Note_on_c, 5, 53, 76
11, 542864, Note_on_c, 5, 65, 0
11, 542864, Note_on_c, 5, 53, 0
11, 542880, Note_on_c, 5, 53, 76
11, 542880, Note_on_c, 5, 65, 76
11, 543104, Note_on_c, 5, 53, 0
11, 543104, Note_on_c, 5, 65, 0
11, 543120, Note_on_c, 5, 53, 76
11, 543120, Note_on_c, 5, 65, 76
11, 543344, Note_on_c, 5, 53, 0
11, 543344, Note_on_c, 5, 65, 0
11, 543360, Note_on_c, 5, 58, 76
11, 543360, Note_on_c, 5, 70, 76
11, 543599, Note_on_c, 5, 58, 0
11, 543599, Note_on_c, 5, 70, 0
11, 543840, Note_on_c, 5, 70, 76
11, 543840, Note_on_c, 5, 58, 76
11, 544079, Note_on_c, 5, 70, 0
11, 544079, Note_on_c, 5, 58, 0
11, 544320, Note_on_c, 5, 58, 76
11, 544320, Note_on_c, 5, 70, 76
11, 544559, Note_on_c, 5, 58, 0
11, 544559, Note_on_c, 5, 70, 0
11, 544800, Note_on_c, 5, 65, 76
11, 544800, Note_on_c, 5, 53, 76
11, 545039, Note_on_c, 5, 65, 0
11, 545039, Note_on_c, 5, 53, 0
11, 553200, Note_on_c, 5, 53, 76
11, 553200, Note_on_c, 5, 65, 76
11, 553424, Note_on_c, 5, 53, 0
11, 553424, Note_on_c, 5, 65, 0
11, 553440, Note_on_c, 5, 53, 76
11, 553440, Note_on_c, 5, 65, 76
11, 553664, Note_on_c, 5, 53, 0
11, 553664, Note_on_c, 5, 65, 0
11, 553680, Note_on_c, 5, 53, 76
11, 553680, Note_on_c, 5, 65, 76
11, 553904, Note_on_c, 5, 53, 0
11, 553904, Note_on_c, 5, 65, 0
11, 553920, Note_on_c, 5, 65, 76
11, 553920, Note_on_c, 5, 53, 76
11, 554624, Note_on_c, 5, 65, 0
11, 554624, Note_on_c, 5, 53, 0
11, 554640, Note_on_c, 5, 65, 76
11, 554640, Note_on_c, 5, 53, 76
11, 554864, Note_on_c, 5, 65, 0
11, 554864, Note_on_c, 5, 53, 0
11, 554880, Note_on_c, 5, 53, 76
11, 554880, Note_on_c, 5, 65, 76
11, 555104, Note_on_c, 5, 53, 0
11, 555104, Note_on_c, 5, 65, 0
11, 555120, Note_on_c, 5, 53, 76
11, 555120, Note_on_c, 5, 65, 76
11, 555344, Note_on_c, 5, 53, 0
11, 555344, Note_on_c, 5, 65, 0
11, 555360, Note_on_c, 5, 65, 76
11, 555360, Note_on_c, 5, 53, 76
11, 555584, Note_on_c, 5, 65, 0
11, 555584, Note_on_c, 5, 53, 0
11, 555600, Note_on_c, 5, 65, 76
11, 555600, Note_on_c, 5, 53, 76
11, 555824, Note_on_c, 5, 65, 0
11, 555824, Note_on_c, 5, 53, 0
11, 555840, Note_on_c, 5, 53, 76
11, 555840, Note_on_c, 5, 65, 76
11, 556544, Note_on_c, 5, 53, 0
11, 556544, Note_on_c, 5, 65, 0
11, 556560, Note_on_c, 5, 53, 76
11, 556560, Note_on_c, 5, 65, 76
11, 556784, Note_on_c, 5, 53, 0
11, 556784, Note_on_c, 5, 65, 0
11, 556800, Note_on_c, 5, 53, 76
11, 556800, Note_on_c, 5, 65, 76
11, 557024, Note_on_c, 5, 53, 0
11, 557024, Note_on_c, 5, 65, 0
11, 557040, Note_on_c, 5, 53, 76
11, 557040, Note_on_c, 5, 65, 76
11, 557264, Note_on_c, 5, 53, 0
11, 557264, Note_on_c, 5, 65, 0
11, 557280, Note_on_c, 5, 53, 76
11, 557280, Note_on_c, 5, 65, 76
11, 557504, Note_on_c, 5, 53, 0
11, 557504, Note_on_c, 5, 65, 0
11, 557520, Note_on_c, 5, 53, 76
11, 557520, Note_on_c, 5, 65, 76
11, 557744, Note_on_c, 5, 53, 0
11, 557744, Note_on_c, 5, 65, 0
11, 557760, Note_on_c, 5, 65, 76
11, 557760, Note_on_c, 5, 53, 76
11, 558464, Note_on_c, 5, 65, 0
11, 558464, Note_on_c, 5, 53, 0
11, 558480, Note_on_c, 5, 65, 76
11, 558480, Note_on_c, 5, 53, 76
11, 558704, Note_on_c, 5, 65, 0
11, 558704, Note_on_c, 5, 53, 0
11, 558720, Note_on_c, 5, 53, 76
11, 558720, Note_on_c, 5, 65, 76
11, 558944, Note_on_c, 5, 53, 0
11, 558944, Note_on_c, 5, 65, 0
11, 558960, Note_on_c, 5, 65, 76
11, 558960, Note_on_c, 5, 53, 76
11, 559184, Note_on_c, 5, 65, 0
11, 559184, Note_on_c, 5, 53, 0
11, 559200, Note_on_c, 5, 65, 76
11, 559200, Note_on_c, 5, 53, 76
11, 559424, Note_on_c, 5, 65, 0
11, 559424, Note_on_c, 5, 53, 0
11, 559440, Note_on_c, 5, 65, 76
11, 559440, Note_on_c, 5, 53, 76
11, 559664, Note_on_c, 5, 65, 0
11, 559664, Note_on_c, 5, 53, 0
11, 559680, Note_on_c, 5, 53, 76
11, 559680, Note_on_c, 5, 65, 76
11, 560639, Note_on_c, 5, 53, 0
11, 560639, Note_on_c, 5, 65, 0
11, 564480, Note_on_c, 5, 58, 84
11, 564480, Note_on_c, 5, 70, 84
11, 564719, Note_on_c, 5, 58, 0
11, 564719, Note_on_c, 5, 70, 0
11, 565200, Note_on_c, 5, 70, 84
11, 565200, Note_on_c, 5, 58, 84
11, 565424, Note_on_c, 5, 70, 0
11, 565424, Note_on_c, 5, 58, 0
11, 565440, Note_on_c, 5, 58, 84
11, 565440, Note_on_c, 5, 70, 84
11, 565679, Note_on_c, 5, 58, 0
11, 565679, Note_on_c, 5, 70, 0
11, 565920, Note_on_c, 5, 65, 84
11, 565920, Note_on_c, 5, 53, 84
11, 566159, Note_on_c, 5, 65, 0
11, 566159, Note_on_c, 5, 53, 0
11, 568320, Note_on_c, 5, 70, 84
11, 568320, Note_on_c, 5, 58, 84
11, 568559, Note_on_c, 5, 70, 0
11, 568559, Note_on_c, 5, 58, 0
11, 569040, Note_on_c, 5, 58, 84
11, 569040, Note_on_c, 5, 70, 84
11, 569264, Note_on_c, 5, 58, 0
11, 569264, Note_on_c, 5, 70, 0
11, 569280, Note_on_c, 5, 70, 84
11, 569280, Note_on_c, 5, 58, 84
11, 569519, Note_on_c, 5, 70, 0
11, 569519, Note_on_c, 5, 58, 0
11, 569760, Note_on_c, 5, 53, 84
11, 569760, Note_on_c, 5, 65, 84
11, 569999, Note_on_c, 5, 53, 0
11, 569999, Note_on_c, 5, 65, 0
11, 572160, Note_on_c, 5, 58, 76
11, 572160, Note_on_c, 5, 70, 76
11, 572399, Note_on_c, 5, 58, 0
11, 572399, Note_on_c, 5, 70, 0
11, 573120, Note_on_c, 5, 58, 76
11, 573120, Note_on_c, 5, 70, 76
11, 573359, Note_on_c, 5, 58, 0
11, 573359, Note_on_c, 5, 70, 0
11, 574080, Note_on_c, 5, 58, 76
11, 574080, Note_on_c, 5, 70, 76
11, 574319, Note_on_c, 5, 58, 0
11, 574319, Note_on_c, 5, 70, 0
11, 575040, Note_on_c, 5, 72, 76
11, 575040, Note_on_c, 5, 65, 76
11, 575279, Note_on_c, 5, 72, 0
11, 575279, Note_on_c, 5, 65, 0
11, 576000, Note_on_c, 5, 58, 84
11, 576000, Note_on_c, 5, 70, 84
11, 577904, Note_on_c, 5, 58, 0
11, 577904, Note_on_c, 5, 70, 0
11, 577920, Note_on_c, 5, 70, 92
11, 577920, Note_on_c, 5, 58, 92
11, 578849, Note_on_c, 5, 70, 0
11, 578849, Note_on_c, 5, 58, 0
11, 578880, Note_on_c, 5, 53, 84
11, 578880, Note_on_c, 5, 65, 84
11, 579824, Note_on_c, 5, 53, 0
11, 579824, Note_on_c, 5, 65, 0
11, 579840, Note_on_c, 5, 70, 84
11, 579840, Note_on_c, 5, 58, 84
11, 580079, Note_on_c, 5, 70, 0
11, 580079, Note_on_c, 5, 58, 0
11, 582960, Note_on_c, 5, 65, 84
11, 582960, Note_on_c, 5, 53, 84
11, 583424, Note_on_c, 5, 65, 0
11, 583424, Note_on_c, 5, 53, 0
11, 583440, Note_on_c, 5, 65, 84
11, 583440, Note_on_c, 5, 53, 84
11, 583619, Note_on_c, 5, 65, 0
11, 583619, Note_on_c, 5, 53, 0
11, 583680, Note_on_c, 5, 70, 84
11, 583680, Note_on_c, 5, 58, 84
11, 583859, Note_on_c, 5, 70, 0
11, 583859, Note_on_c, 5, 58, 0
11, 586800, Note_on_c, 5, 65, 84
11, 586800, Note_on_c, 5, 53, 84
11, 587264, Note_on_c, 5, 65, 0
11, 587264, Note_on_c, 5, 53, 0
11, 587280, Note_on_c, 5, 65, 84
11, 587280, Note_on_c, 5, 53, 84
11, 587459, Note_on_c, 5, 65, 0
11, 587459, Note_on_c, 5, 53, 0
11, 587520, Note_on_c, 5, 70, 84
11, 587520, Note_on_c, 5, 58, 84
11, 587699, Note_on_c, 5, 70, 0
11, 587699, Note_on_c, 5, 58, 0
11, 588720, Note_on_c, 5, 65, 84
11, 588720, Note_on_c, 5, 53, 84
11, 589184, Note_on_c, 5, 65, 0
11, 589184, Note_on_c, 5, 53, 0
11, 589200, Note_on_c, 5, 65, 84
11, 589200, Note_on_c, 5, 53, 84
11, 589424, Note_on_c, 5, 65, 0
11, 589424, Note_on_c, 5, 53, 0
11, 589440, Note_on_c, 5, 65, 84
11, 589440, Note_on_c, 5, 53, 84
11, 591287, Note_on_c, 5, 65, 0
11, 591287, Note_on_c, 5, 53, 0
11, 591300, Note_on_c, 5, 65, 84
11, 591300, Note_on_c, 5, 53, 84
11, 591351, Note_on_c, 5, 65, 0
11, 591351, Note_on_c, 5, 53, 0
11, 591360, Note_on_c, 5, 65, 84
11, 591360, Note_on_c, 5, 53, 84
11, 591599, Note_on_c, 5, 65, 0
11, 591599, Note_on_c, 5, 53, 0
11, 592260, Note_on_c, 5, 65, 84
11, 592260, Note_on_c, 5, 53, 84
11, 592311, Note_on_c, 5, 65, 0
11, 592311, Note_on_c, 5, 53, 0
11, 592320, Note_on_c, 5, 65, 84
11, 592320, Note_on_c, 5, 53, 84
11, 592559, Note_on_c, 5, 65, 0
11, 592559, Note_on_c, 5, 53, 0
11, 593220, Note_on_c, 5, 65, 84
11, 593220, Note_on_c, 5, 72, 84
11, 593271, Note_on_c, 5, 65, 0
11, 593271, Note_on_c, 5, 72, 0
11, 593280, Note_on_c, 5, 65, 84
11, 593280, Note_on_c, 5, 72, 84
11, 593459, Note_on_c, 5, 65, 0
11, 593459, Note_on_c, 5, 72, 0
11, 593760, Note_on_c, 5, 72, 84
11, 593760, Note_on_c, 5, 65, 84
11, 593939, Note_on_c, 5, 72, 0
11, 593939, Note_on_c, 5, 65, 0
11, 594240, Note_on_c, 5, 72, 84
11, 594240, Note_on_c, 5, 65, 84
11, 594419, Note_on_c, 5, 72, 0
11, 594419, Note_on_c, 5, 65, 0
11, 594720, Note_on_c, 5, 65, 84
11, 594720, Note_on_c, 5, 72, 84
11, 594899, Note_on_c, 5, 65, 0
11, 594899, Note_on_c, 5, 72, 0
11, 595200, Note_on_c, 5, 62, 84
11, 595200, Note_on_c, 5, 70, 84
11, 595439, Note_on_c, 5, 62, 0
11, 595439, Note_on_c, 5, 70, 0
11, 596160, Note_on_c, 5, 70, 84
11, 596160, Note_on_c, 5, 58, 84
11, 596399, Note_on_c, 5, 70, 0
11, 596399, Note_on_c, 5, 58, 0
11, 597120, Note_on_c, 5, 70, 84
11, 597120, Note_on_c, 5, 58, 84
11, 597359, Note_on_c, 5, 70, 0
11, 597359, Note_on_c, 5, 58, 0
11, 598080, Note_on_c, 5, 58, 84
11, 598080, Note_on_c, 5, 70, 84
11, 598319, Note_on_c, 5, 58, 0
11, 598319, Note_on_c, 5, 70, 0
11, 599040, Note_on_c, 5, 62, 84
11, 599040, Note_on_c, 5, 74, 84
11, 599279, Note_on_c, 5, 62, 0
11, 599279, Note_on_c, 5, 74, 0
11, 600000, Note_on_c, 5, 62, 84
11, 600000, Note_on_c, 5, 74, 84
11, 600239, Note_on_c, 5, 62, 0
11, 600239, Note_on_c, 5, 74, 0
11, 600960, Note_on_c, 5, 62, 84
11, 600960, Note_on_c, 5, 74, 84
11, 601199, Note_on_c, 5, 62, 0
11, 601199, Note_on_c, 5, 74, 0
11, 601920, Note_on_c, 5, 62, 84
11, 601920, Note_on_c, 5, 74, 84
11, 602159, Note_on_c, 5, 62, 0
11, 602159, Note_on_c, 5, 74, 0
11, 604800, Note_on_c, 5, 65, 76
11, 604800, Note_on_c, 5, 53, 76
11, 605744, Note_on_c, 5, 65, 0
11, 605744, Note_on_c, 5, 53, 0
11, 605760, Note_on_c, 5, 65, 76
11, 605760, Note_on_c, 5, 53, 76
11, 606647, Note_on_c, 5, 65, 0
11, 606647, Note_on_c, 5, 53, 0
11, 606660, Note_on_c, 5, 65, 76
11, 606660, Note_on_c, 5, 53, 76
11, 606711, Note_on_c, 5, 65, 0
11, 606711, Note_on_c, 5, 53, 0
11, 606720, Note_on_c, 5, 70, 76
11, 606720, Note_on_c, 5, 58, 76
11, 606959, Note_on_c, 5, 70, 0
11, 606959, Note_on_c, 5, 58, 0
11, 608640, Note_on_c, 5, 53, 76
11, 608640, Note_on_c, 5, 65, 76
11, 609584, Note_on_c, 5, 53, 0
11, 609584, Note_on_c, 5, 65, 0
11, 609600, Note_on_c, 5, 53, 76
11, 609600, Note_on_c, 5, 65, 76
11, 610487, Note_on_c, 5, 53, 0
11, 610487, Note_on_c, 5, 65, 0
11, 610500, Note_on_c, 5, 53, 76
11, 610500, Note_on_c, 5, 65, 76
11, 610551, Note_on_c, 5, 53, 0
11, 610551, Note_on_c, 5, 65, 0
11, 610558, Control_c, 5, 11, 64
11, 610560, Note_on_c, 5, 62, 84
11, 610560, Note_on_c, 5, 70, 84
11, 610560, Control_c, 5, 11, 64
11, 610682, Control_c, 5, 11, 65
11, 610804, Control_c, 5, 11, 66
11, 610926, Control_c, 5, 11, 67
11, 611048, Control_c, 5, 11, 68
11, 611170, Control_c, 5, 11, 69
11, 611291, Control_c, 5, 11, 70
11, 611413, Control_c, 5, 11, 71
11, 611535, Control_c, 5, 11, 72
11, 611657, Control_c, 5, 11, 73
11, 611779, Control_c, 5, 11, 74
11, 611901, Control_c, 5, 11, 75
11, 612023, Control_c, 5, 11, 76
11, 612145, Control_c, 5, 11, 77
11, 612267, Control_c, 5, 11, 78
11, 612389, Control_c, 5, 11, 79
11, 612464, Note_on_c, 5, 62, 0
11, 612464, Note_on_c, 5, 70, 0
11, 612480, Note_on_c, 5, 65, 84
11, 612480, Note_on_c, 5, 72, 84
11, 612510, Control_c, 5, 11, 80
11, 612632, Control_c, 5, 11, 81
11, 612754, Control_c, 5, 11, 82
11, 612876, Control_c, 5, 11, 83
11, 612998, Control_c, 5, 11, 84
11, 613120, Control_c, 5, 11, 85
11, 613242, Control_c, 5, 11, 86
11, 613364, Control_c, 5, 11, 87
11, 613486, Control_c, 5, 11, 88
11, 613608, Control_c, 5, 11, 89
11, 613730, Control_c, 5, 11, 90
11, 613851, Control_c, 5, 11, 91
11, 613973, Control_c, 5, 11, 92
11, 614095, Control_c, 5, 11, 93
11, 614217, Control_c, 5, 11, 94
11, 614339, Control_c, 5, 11, 95
11, 614384, Note_on_c, 5, 65, 0
11, 614384, Note_on_c, 5, 72, 0
11, 614400, Note_on_c, 5, 70, 84
11, 614400, Note_on_c, 5, 74, 84
11, 614461, Control_c, 5, 11, 96
11, 614583, Control_c, 5, 11, 97
11, 614705, Control_c, 5, 11, 98
11, 614827, Control_c, 5, 11, 99
11, 614949, Control_c, 5, 11, 100
11, 615070, Control_c, 5, 11, 101
11, 615192, Control_c, 5, 11, 102
11, 615314, Control_c, 5, 11, 103
11, 615436, Control_c, 5, 11, 104
11, 615558, Control_c, 5, 11, 105
11, 615680, Control_c, 5, 11, 106
11, 615802, Control_c, 5, 11, 107
11, 615924, Control_c, 5, 11, 108
11, 616046, Control_c, 5, 11, 109
11, 616168, Control_c, 5, 11, 110
11, 616290, Control_c, 5, 11, 111
11, 616304, Note_on_c, 5, 70, 0
11, 616304, Note_on_c, 5, 74, 0
11, 616320, Note_on_c, 5, 65, 84
11, 616320, Note_on_c, 5, 72, 84
11, 616411, Control_c, 5, 11, 112
11, 616533, Control_c, 5, 11, 113
11, 616655, Control_c, 5, 11, 114
11, 616777, Control_c, 5, 11, 115
11, 616899, Control_c, 5, 11, 116
11, 617021, Control_c, 5, 11, 117
11, 617143, Control_c, 5, 11, 118
11, 617265, Control_c, 5, 11, 119
11, 617387, Control_c, 5, 11, 120
11, 617509, Control_c, 5, 11, 121
11, 617630, Control_c, 5, 11, 122
11, 617752, Control_c, 5, 11, 123
11, 617874, Control_c, 5, 11, 124
11, 617996, Control_c, 5, 11, 125
11, 618118, Control_c, 5, 11, 127
11, 618224, Note_on_c, 5, 65, 0
11, 618224, Note_on_c, 5, 72, 0
11, 618240, Note_on_c, 5, 70, 84
11, 618240, Note_on_c, 5, 58, 84
11, 620159, Note_on_c, 5, 70, 0
11, 620159, Note_on_c, 5, 58, 0
11, 620160, Note_on_c, 5, 70, 84
11, 620160, Note_on_c, 5, 58, 84
11, 622007, Note_on_c, 5, 70, 0
11, 622007, Note_on_c, 5, 58, 0
11, 622020, Note_on_c, 5, 70, 84
11, 622020, Note_on_c, 5, 58, 84
11, 622071, Note_on_c, 5, 70, 0
11, 622071, Note_on_c, 5, 58, 0
11, 622080, Note_on_c, 5, 70, 84
11, 622080, Note_on_c, 5, 58, 84
11, 622319, Note_on_c, 5, 70, 0
11, 622319, Note_on_c, 5, 58, 0
11, 622560, Note_on_c, 5, 70, 84
11, 622560, Note_on_c, 5, 58, 84
11, 622799, Note_on_c, 5, 70, 0
11, 622799, Note_on_c, 5, 58, 0
11, 623040, Note_on_c, 5, 70, 84
11, 623040, Note_on_c, 5, 58, 84
11, 623279, Note_on_c, 5, 70, 0
11, 623279, Note_on_c, 5, 58, 0
11, 624000, Note_on_c, 5, 70, 84
11, 624000, Note_on_c, 5, 58, 84
11, 624239, Note_on_c, 5, 70, 0
11, 624239, Note_on_c, 5, 58, 0
11, 624960, Note_on_c, 5, 58, 84
11, 625199, Note_on_c, 5, 58, 0
11, 625199, End_track
12, 0, Start_track
12, 0, Title_t, "Timpani"
12, 0, MIDI_port, 0
12, 0, Program_c, 6, 47
12, 0, Control_c, 6, 7, 96
12, 0, Control_c, 6, 10, 25
12, 0, Control_c, 6, 11, 127
12, 33600, Note_on_c, 6, 41, 84
12, 33614, Note_on_c, 6, 41, 0
12, 33615, Note_on_c, 6, 41, 84
12, 33629, Note_on_c, 6, 41, 0
12, 33630, Note_on_c, 6, 41, 84
12, 33644, Note_on_c, 6, 41, 0
12, 33645, Note_on_c, 6, 41, 84
12, 33659, Note_on_c, 6, 41, 0
12, 33660, Note_on_c, 6, 41, 84
12, 33674, Note_on_c, 6, 41, 0
12, 33675, Note_on_c, 6, 41, 84
12, 33689, Note_on_c, 6, 41, 0
12, 33690, Note_on_c, 6, 41, 84
12, 33704, Note_on_c, 6, 41, 0
12, 33705, Note_on_c, 6, 41, 84
12, 33719, Note_on_c, 6, 41, 0
12, 33720, Note_on_c, 6, 41, 84
12, 33734, Note_on_c, 6, 41, 0
12, 33735, Note_on_c, 6, 41, 84
12, 33749, Note_on_c, 6, 41, 0
12, 33750, Note_on_c, 6, 41, 84
12, 33764, Note_on_c, 6, 41, 0
12, 33765, Note_on_c, 6, 41, 84
12, 33779, Note_on_c, 6, 41, 0
12, 33780, Note_on_c, 6, 41, 84
12, 33794, Note_on_c, 6, 41, 0
12, 33795, Note_on_c, 6, 41, 84
12, 33809, Note_on_c, 6, 41, 0
12, 33810, Note_on_c, 6, 41, 84
12, 33824, Note_on_c, 6, 41, 0
12, 33825, Note_on_c, 6, 41, 84
12, 33839, Note_on_c, 6, 41, 0
12, 33840, Note_on_c, 6, 41, 84
12, 33854, Note_on_c, 6, 41, 0
12, 33855, Note_on_c, 6, 41, 84
12, 33869, Note_on_c, 6, 41, 0
12, 33870, Note_on_c, 6, 41, 84
12, 33884, Note_on_c, 6, 41, 0
12, 33885, Note_on_c, 6, 41, 84
12, 33899, Note_on_c, 6, 41, 0
12, 33900, Note_on_c, 6, 41, 84
12, 33914, Note_on_c, 6, 41, 0
12, 33915, Note_on_c, 6, 41, 84
12, 33929, Note_on_c, 6, 41, 0
12, 33930, Note_on_c, 6, 41, 84
12, 33944, Note_on_c, 6, 41, 0
12, 33945, Note_on_c, 6, 41, 84
12, 33959, Note_on_c, 6, 41, 0
12, 33960, Note_on_c, 6, 41, 84
12, 33974, Note_on_c, 6, 41, 0
12, 33975, Note_on_c, 6, 41, 84
12, 33989, Note_on_c, 6, 41, 0
12, 33990, Note_on_c, 6, 41, 84
12, 34004, Note_on_c, 6, 41, 0
12, 34005, Note_on_c, 6, 41, 84
12, 34019, Note_on_c, 6, 41, 0
12, 34020, Note_on_c, 6, 41, 84
12, 34034, Note_on_c, 6, 41, 0
12, 34035, Note_on_c, 6, 41, 84
12, 34049, Note_on_c, 6, 41, 0
12, 34050, Note_on_c, 6, 41, 84
12, 34064, Note_on_c, 6, 41, 0
12, 34065, Note_on_c, 6, 41, 84
12, 34079, Note_on_c, 6, 41, 0
12, 34080, Note_on_c, 6, 41, 84
12, 34094, Note_on_c, 6, 41, 0
12, 34095, Note_on_c, 6, 41, 84
12, 34109, Note_on_c, 6, 41, 0
12, 34110, Note_on_c, 6, 41, 84
12, 34124, Note_on_c, 6, 41, 0
12, 34125, Note_on_c, 6, 41, 84
12, 34139, Note_on_c, 6, 41, 0
12, 34140, Note_on_c, 6, 41, 84
12, 34154, Note_on_c, 6, 41, 0
12, 34155, Note_on_c, 6, 41, 84
12, 34169, Note_on_c, 6, 41, 0
12, 34170, Note_on_c, 6, 41, 84
12, 34184, Note_on_c, 6, 41, 0
12, 34185, Note_on_c, 6, 41, 84
12, 34199, Note_on_c, 6, 41, 0
12, 34200, Note_on_c, 6, 41, 84
12, 34214, Note_on_c, 6, 41, 0
12, 34215, Note_on_c, 6, 41, 84
12, 34229, Note_on_c, 6, 41, 0
12, 34230, Note_on_c, 6, 41, 84
12, 34244, Note_on_c, 6, 41, 0
12, 34245, Note_on_c, 6, 41, 84
12, 34259, Note_on_c, 6, 41, 0
12, 34260, Note_on_c, 6, 41, 84
12, 34274, Note_on_c, 6, 41, 0
12, 34275, Note_on_c, 6, 41, 84
12, 34289, Note_on_c, 6, 41, 0
12, 34290, Note_on_c, 6, 41, 84
12, 34304, Note_on_c, 6, 41, 0
12, 34305, Note_on_c, 6, 41, 84
12, 34319, Note_on_c, 6, 41, 0
12, 34320, Note_on_c, 6, 41, 84
12, 34334, Note_on_c, 6, 41, 0
12, 34335, Note_on_c, 6, 41, 84
12, 34349, Note_on_c, 6, 41, 0
12, 34350, Note_on_c, 6, 41, 84
12, 34364, Note_on_c, 6, 41, 0
12, 34365, Note_on_c, 6, 41, 84
12, 34379, Note_on_c, 6, 41, 0
12, 34380, Note_on_c, 6, 41, 84
12, 34394, Note_on_c, 6, 41, 0
12, 34395, Note_on_c, 6, 41, 84
12, 34409, Note_on_c, 6, 41, 0
12, 34410, Note_on_c, 6, 41, 84
12, 34424, Note_on_c, 6, 41, 0
12, 34425, Note_on_c, 6, 41, 84
12, 34439, Note_on_c, 6, 41, 0
12, 34440, Note_on_c, 6, 41, 84
12, 34454, Note_on_c, 6, 41, 0
12, 34455, Note_on_c, 6, 41, 84
12, 34469, Note_on_c, 6, 41, 0
12, 34470, Note_on_c, 6, 41, 84
12, 34484, Note_on_c, 6, 41, 0
12, 34485, Note_on_c, 6, 41, 84
12, 34499, Note_on_c, 6, 41, 0
12, 34500, Note_on_c, 6, 41, 84
12, 34514, Note_on_c, 6, 41, 0
12, 34515, Note_on_c, 6, 41, 84
12, 34529, Note_on_c, 6, 41, 0
12, 34530, Note_on_c, 6, 41, 84
12, 34544, Note_on_c, 6, 41, 0
12, 34545, Note_on_c, 6, 41, 84
12, 34559, Note_on_c, 6, 41, 0
12, 34560, Note_on_c, 6, 41, 84
12, 34679, Note_on_c, 6, 41, 0
12, 35520, Note_on_c, 6, 41, 84
12, 35534, Note_on_c, 6, 41, 0
12, 35535, Note_on_c, 6, 41, 84
12, 35549, Note_on_c, 6, 41, 0
12, 35550, Note_on_c, 6, 41, 84
12, 35564, Note_on_c, 6, 41, 0
12, 35565, Note_on_c, 6, 41, 84
12, 35579, Note_on_c, 6, 41, 0
12, 35580, Note_on_c, 6, 41, 84
12, 35594, Note_on_c, 6, 41, 0
12, 35595, Note_on_c, 6, 41, 84
12, 35609, Note_on_c, 6, 41, 0
12, 35610, Note_on_c, 6, 41, 84
12, 35624, Note_on_c, 6, 41, 0
12, 35625, Note_on_c, 6, 41, 84
12, 35639, Note_on_c, 6, 41, 0
12, 35640, Note_on_c, 6, 41, 84
12, 35654, Note_on_c, 6, 41, 0
12, 35655, Note_on_c, 6, 41, 84
12, 35669, Note_on_c, 6, 41, 0
12, 35670, Note_on_c, 6, 41, 84
12, 35684, Note_on_c, 6, 41, 0
12, 35685, Note_on_c, 6, 41, 84
12, 35699, Note_on_c, 6, 41, 0
12, 35700, Note_on_c, 6, 41, 84
12, 35714, Note_on_c, 6, 41, 0
12, 35715, Note_on_c, 6, 41, 84
12, 35729, Note_on_c, 6, 41, 0
12, 35730, Note_on_c, 6, 41, 84
12, 35744, Note_on_c, 6, 41, 0
12, 35745, Note_on_c, 6, 41, 84
12, 35759, Note_on_c, 6, 41, 0
12, 35760, Note_on_c, 6, 41, 84
12, 35774, Note_on_c, 6, 41, 0
12, 35775, Note_on_c, 6, 41, 84
12, 35789, Note_on_c, 6, 41, 0
12, 35790, Note_on_c, 6, 41, 84
12, 35804, Note_on_c, 6, 41, 0
12, 35805, Note_on_c, 6, 41, 84
12, 35819, Note_on_c, 6, 41, 0
12, 35820, Note_on_c, 6, 41, 84
12, 35834, Note_on_c, 6, 41, 0
12, 35835, Note_on_c, 6, 41, 84
12, 35849, Note_on_c, 6, 41, 0
12, 35850, Note_on_c, 6, 41, 84
12, 35864, Note_on_c, 6, 41, 0
12, 35865, Note_on_c, 6, 41, 84
12, 35879, Note_on_c, 6, 41, 0
12, 35880, Note_on_c, 6, 41, 84
12, 35894, Note_on_c, 6, 41, 0
12, 35895, Note_on_c, 6, 41, 84
12, 35909, Note_on_c, 6, 41, 0
12, 35910, Note_on_c, 6, 41, 84
12, 35924, Note_on_c, 6, 41, 0
12, 35925, Note_on_c, 6, 41, 84
12, 35939, Note_on_c, 6, 41, 0
12, 35940, Note_on_c, 6, 41, 84
12, 35954, Note_on_c, 6, 41, 0
12, 35955, Note_on_c, 6, 41, 84
12, 35969, Note_on_c, 6, 41, 0
12, 35970, Note_on_c, 6, 41, 84
12, 35984, Note_on_c, 6, 41, 0
12, 35985, Note_on_c, 6, 41, 84
12, 35999, Note_on_c, 6, 41, 0
12, 36000, Note_on_c, 6, 41, 84
12, 36014, Note_on_c, 6, 41, 0
12, 36015, Note_on_c, 6, 41, 84
12, 36029, Note_on_c, 6, 41, 0
12, 36030, Note_on_c, 6, 41, 84
12, 36044, Note_on_c, 6, 41, 0
12, 36045, Note_on_c, 6, 41, 84
12, 36059, Note_on_c, 6, 41, 0
12, 36060, Note_on_c, 6, 41, 84
12, 36074, Note_on_c, 6, 41, 0
12, 36075, Note_on_c, 6, 41, 84
12, 36089, Note_on_c, 6, 41, 0
12, 36090, Note_on_c, 6, 41, 84
12, 36104, Note_on_c, 6, 41, 0
12, 36105, Note_on_c, 6, 41, 84
12, 36119, Note_on_c, 6, 41, 0
12, 36120, Note_on_c, 6, 41, 84
12, 36134, Note_on_c, 6, 41, 0
12, 36135, Note_on_c, 6, 41, 84
12, 36149, Note_on_c, 6, 41, 0
12, 36150, Note_on_c, 6, 41, 84
12, 36164, Note_on_c, 6, 41, 0
12, 36165, Note_on_c, 6, 41, 84
12, 36179, Note_on_c, 6, 41, 0
12, 36180, Note_on_c, 6, 41, 84
12, 36194, Note_on_c, 6, 41, 0
12, 36195, Note_on_c, 6, 41, 84
12, 36209, Note_on_c, 6, 41, 0
12, 36210, Note_on_c, 6, 41, 84
12, 36224, Note_on_c, 6, 41, 0
12, 36225, Note_on_c, 6, 41, 84
12, 36239, Note_on_c, 6, 41, 0
12, 36240, Note_on_c, 6, 41, 84
12, 36254, Note_on_c, 6, 41, 0
12, 36255, Note_on_c, 6, 41, 84
12, 36269, Note_on_c, 6, 41, 0
12, 36270, Note_on_c, 6, 41, 84
12, 36284, Note_on_c, 6, 41, 0
12, 36285, Note_on_c, 6, 41, 84
12, 36299, Note_on_c, 6, 41, 0
12, 36300, Note_on_c, 6, 41, 84
12, 36314, Note_on_c, 6, 41, 0
12, 36315, Note_on_c, 6, 41, 84
12, 36329, Note_on_c, 6, 41, 0
12, 36330, Note_on_c, 6, 41, 84
12, 36344, Note_on_c, 6, 41, 0
12, 36345, Note_on_c, 6, 41, 84
12, 36359, Note_on_c, 6, 41, 0
12, 36360, Note_on_c, 6, 41, 84
12, 36374, Note_on_c, 6, 41, 0
12, 36375, Note_on_c, 6, 41, 84
12, 36389, Note_on_c, 6, 41, 0
12, 36390, Note_on_c, 6, 41, 84
12, 36404, Note_on_c, 6, 41, 0
12, 36405, Note_on_c, 6, 41, 84
12, 36419, Note_on_c, 6, 41, 0
12, 36420, Note_on_c, 6, 41, 84
12, 36434, Note_on_c, 6, 41, 0
12, 36435, Note_on_c, 6, 41, 84
12, 36449, Note_on_c, 6, 41, 0
12, 36450, Note_on_c, 6, 41, 84
12, 36464, Note_on_c, 6, 41, 0
12, 36465, Note_on_c, 6, 41, 84
12, 36479, Note_on_c, 6, 41, 0
12, 36480, Note_on_c, 6, 41, 84
12, 36659, Note_on_c, 6, 41, 0
12, 37440, Note_on_c, 6, 41, 84
12, 37619, Note_on_c, 6, 41, 0
12, 38400, Note_on_c, 6, 41, 84
12, 38579, Note_on_c, 6, 41, 0
12, 38880, Note_on_c, 6, 41, 84
12, 39059, Note_on_c, 6, 41, 0
12, 39360, Note_on_c, 6, 41, 84
12, 39539, Note_on_c, 6, 41, 0
12, 39840, Note_on_c, 6, 41, 84
12, 40019, Note_on_c, 6, 41, 0
12, 40320, Note_on_c, 6, 46, 84
12, 40499, Note_on_c, 6, 46, 0
12, 48000, Note_on_c, 6, 41, 84
12, 48179, Note_on_c, 6, 41, 0
12, 48960, Note_on_c, 6, 41, 84
12, 49139, Note_on_c, 6, 41, 0
12, 49440, Note_on_c, 6, 41, 84
12, 49619, Note_on_c, 6, 41, 0
12, 49920, Note_on_c, 6, 46, 84
12, 50039, Note_on_c, 6, 46, 0
12, 50160, Note_on_c, 6, 46, 84
12, 50279, Note_on_c, 6, 46, 0
12, 50400, Note_on_c, 6, 46, 84
12, 50519, Note_on_c, 6, 46, 0
12, 50640, Note_on_c, 6, 46, 84
12, 50759, Note_on_c, 6, 46, 0
12, 50880, Note_on_c, 6, 46, 84
12, 50999, Note_on_c, 6, 46, 0
12, 51120, Note_on_c, 6, 46, 84
12, 51239, Note_on_c, 6, 46, 0
12, 51360, Note_on_c, 6, 46, 84
12, 51479, Note_on_c, 6, 46, 0
12, 51600, Note_on_c, 6, 46, 84
12, 51719, Note_on_c, 6, 46, 0
12, 51840, Note_on_c, 6, 46, 84
12, 51959, Note_on_c, 6, 46, 0
12, 52080, Note_on_c, 6, 46, 84
12, 52199, Note_on_c, 6, 46, 0
12, 52320, Note_on_c, 6, 46, 84
12, 52439, Note_on_c, 6, 46, 0
12, 52560, Note_on_c, 6, 46, 84
12, 52679, Note_on_c, 6, 46, 0
12, 52800, Note_on_c, 6, 46, 84
12, 52919, Note_on_c, 6, 46, 0
12, 53040, Note_on_c, 6, 46, 84
12, 53159, Note_on_c, 6, 46, 0
12, 53280, Note_on_c, 6, 46, 84
12, 53399, Note_on_c, 6, 46, 0
12, 53520, Note_on_c, 6, 46, 84
12, 53639, Note_on_c, 6, 46, 0
12, 53760, Note_on_c, 6, 46, 84
12, 53999, Note_on_c, 6, 46, 0
12, 55200, Note_on_c, 6, 46, 84
12, 55439, Note_on_c, 6, 46, 0
12, 55440, Note_on_c, 6, 46, 84
12, 55679, Note_on_c, 6, 46, 0
12, 55680, Note_on_c, 6, 41, 84
12, 55919, Note_on_c, 6, 41, 0
12, 57600, Note_on_c, 6, 41, 84
12, 57839, Note_on_c, 6, 41, 0
12, 58560, Note_on_c, 6, 46, 84
12, 58799, Note_on_c, 6, 46, 0
12, 59520, Note_on_c, 6, 46, 84
12, 59759, Note_on_c, 6, 46, 0
12, 60480, Note_on_c, 6, 41, 84
12, 60719, Note_on_c, 6, 41, 0
12, 75360, Note_on_c, 6, 46, 72
12, 75599, Note_on_c, 6, 46, 0
12, 75840, Note_on_c, 6, 46, 76
12, 76079, Note_on_c, 6, 46, 0
12, 76320, Note_on_c, 6, 46, 80
12, 76559, Note_on_c, 6, 46, 0
12, 76800, Note_on_c, 6, 46, 84
12, 77039, Note_on_c, 6, 46, 0
12, 77040, Note_on_c, 6, 46, 84
12, 77279, Note_on_c, 6, 46, 0
12, 77280, Note_on_c, 6, 46, 84
12, 77519, Note_on_c, 6, 46, 0
12, 77520, Note_on_c, 6, 46, 84
12, 77759, Note_on_c, 6, 46, 0
12, 77760, Note_on_c, 6, 46, 84
12, 77999, Note_on_c, 6, 46, 0
12, 78000, Note_on_c, 6, 46, 84
12, 78239, Note_on_c, 6, 46, 0
12, 78240, Note_on_c, 6, 46, 84
12, 78479, Note_on_c, 6, 46, 0
12, 78480, Note_on_c, 6, 46, 84
12, 78719, Note_on_c, 6, 46, 0
12, 78720, Note_on_c, 6, 46, 84
12, 78839, Note_on_c, 6, 46, 0
12, 78960, Note_on_c, 6, 46, 84
12, 79079, Note_on_c, 6, 46, 0
12, 79200, Note_on_c, 6, 46, 84
12, 79319, Note_on_c, 6, 46, 0
12, 79440, Note_on_c, 6, 46, 84
12, 79559, Note_on_c, 6, 46, 0
12, 79680, Note_on_c, 6, 41, 84
12, 79799, Note_on_c, 6, 41, 0
12, 79920, Note_on_c, 6, 41, 84
12, 80039, Note_on_c, 6, 41, 0
12, 80160, Note_on_c, 6, 41, 84
12, 80279, Note_on_c, 6, 41, 0
12, 80400, Note_on_c, 6, 41, 84
12, 80519, Note_on_c, 6, 41, 0
12, 80640, Note_on_c, 6, 46, 92
12, 80679, Note_on_c, 6, 46, 0
12, 80680, Note_on_c, 6, 46, 80
12, 80719, Note_on_c, 6, 46, 0
12, 80720, Note_on_c, 6, 46, 84
12, 80759, Note_on_c, 6, 46, 0
12, 80760, Note_on_c, 6, 46, 81
12, 80799, Note_on_c, 6, 46, 0
12, 80800, Note_on_c, 6, 46, 86
12, 80839, Note_on_c, 6, 46, 0
12, 80840, Note_on_c, 6, 46, 84
12, 80879, Note_on_c, 6, 46, 0
12, 80880, Note_on_c, 6, 46, 83
12, 80919, Note_on_c, 6, 46, 0
12, 80920, Note_on_c, 6, 46, 82
12, 80959, Note_on_c, 6, 46, 0
12, 80960, Note_on_c, 6, 46, 87
12, 80999, Note_on_c, 6, 46, 0
12, 81000, Note_on_c, 6, 46, 86
12, 81039, Note_on_c, 6, 46, 0
12, 81040, Note_on_c, 6, 46, 85
12, 81079, Note_on_c, 6, 46, 0
12, 81080, Note_on_c, 6, 46, 81
12, 81119, Note_on_c, 6, 46, 0
12, 81120, Note_on_c, 6, 46, 86
12, 81159, Note_on_c, 6, 46, 0
12, 81160, Note_on_c, 6, 46, 85
12, 81199, Note_on_c, 6, 46, 0
12, 81200, Note_on_c, 6, 46, 84
12, 81239, Note_on_c, 6, 46, 0
12, 81240, Note_on_c, 6, 46, 82
12, 81279, Note_on_c, 6, 46, 0
12, 81280, Note_on_c, 6, 46, 80
12, 81319, Note_on_c, 6, 46, 0
12, 81320, Note_on_c, 6, 46, 80
12, 81359, Note_on_c, 6, 46, 0
12, 81360, Note_on_c, 6, 46, 82
12, 81399, Note_on_c, 6, 46, 0
12, 81400, Note_on_c, 6, 46, 81
12, 81439, Note_on_c, 6, 46, 0
12, 81440, Note_on_c, 6, 46, 81
12, 81479, Note_on_c, 6, 46, 0
12, 81480, Note_on_c, 6, 46, 87
12, 81519, Note_on_c, 6, 46, 0
12, 81520, Note_on_c, 6, 46, 83
12, 81559, Note_on_c, 6, 46, 0
12, 81560, Note_on_c, 6, 46, 80
12, 81599, Note_on_c, 6, 46, 0
12, 81600, Note_on_c, 6, 46, 80
12, 81639, Note_on_c, 6, 46, 0
12, 81640, Note_on_c, 6, 46, 80
12, 81679, Note_on_c, 6, 46, 0
12, 81680, Note_on_c, 6, 46, 83
12, 81719, Note_on_c, 6, 46, 0
12, 81720, Note_on_c, 6, 46, 84
12, 81759, Note_on_c, 6, 46, 0
12, 81760, Note_on_c, 6, 46, 84
12, 81799, Note_on_c, 6, 46, 0
12, 81800, Note_on_c, 6, 46, 84
12, 81839, Note_on_c, 6, 46, 0
12, 81840, Note_on_c, 6, 46, 84
12, 81879, Note_on_c, 6, 46, 0
12, 81880, Note_on_c, 6, 46, 81
12, 81919, Note_on_c, 6, 46, 0
12, 81920, Note_on_c, 6, 46, 85
12, 81959, Note_on_c, 6, 46, 0
12, 81960, Note_on_c, 6, 46, 83
12, 81999, Note_on_c, 6, 46, 0
12, 82000, Note_on_c, 6, 46, 82
12, 82039, Note_on_c, 6, 46, 0
12, 82040, Note_on_c, 6, 46, 80
12, 82079, Note_on_c, 6, 46, 0
12, 82080, Note_on_c, 6, 46, 84
12, 82119, Note_on_c, 6, 46, 0
12, 82120, Note_on_c, 6, 46, 86
12, 82159, Note_on_c, 6, 46, 0
12, 82160, Note_on_c, 6, 46, 86
12, 82199, Note_on_c, 6, 46, 0
12, 82200, Note_on_c, 6, 46, 84
12, 82239, Note_on_c, 6, 46, 0
12, 82240, Note_on_c, 6, 46, 82
12, 82279, Note_on_c, 6, 46, 0
12, 82280, Note_on_c, 6, 46, 87
12, 82319, Note_on_c, 6, 46, 0
12, 82320, Note_on_c, 6, 46, 85
12, 82359, Note_on_c, 6, 46, 0
12, 82360, Note_on_c, 6, 46, 87
12, 82399, Note_on_c, 6, 46, 0
12, 82400, Note_on_c, 6, 46, 87
12, 82439, Note_on_c, 6, 46, 0
12, 82440, Note_on_c, 6, 46, 84
12, 82479, Note_on_c, 6, 46, 0
12, 82480, Note_on_c, 6, 46, 81
12, 82519, Note_on_c, 6, 46, 0
12, 82520, Note_on_c, 6, 46, 83
12, 82559, Note_on_c, 6, 46, 0
12, 82560, Note_on_c, 6, 46, 92
12, 82799, Note_on_c, 6, 46, 0
12, 83520, Note_on_c, 6, 41, 92
12, 83759, Note_on_c, 6, 41, 0
12, 84480, Note_on_c, 6, 46, 92
12, 84719, Note_on_c, 6, 46, 0
12, 86400, Note_on_c, 6, 41, 92
12, 86639, Note_on_c, 6, 41, 0
12, 128640, Note_on_c, 6, 41, 76
12, 128879, Note_on_c, 6, 41, 0
12, 129600, Note_on_c, 6, 41, 76
12, 129839, Note_on_c, 6, 41, 0
12, 130560, Note_on_c, 6, 41, 76
12, 130799, Note_on_c, 6, 41, 0
12, 132480, Note_on_c, 6, 41, 76
12, 132719, Note_on_c, 6, 41, 0
12, 132960, Note_on_c, 6, 41, 76
12, 133199, Note_on_c, 6, 41, 0
12, 133440, Note_on_c, 6, 41, 76
12, 133679, Note_on_c, 6, 41, 0
12, 134400, Note_on_c, 6, 41, 52
12, 134639, Note_on_c, 6, 41, 0
12, 153600, Note_on_c, 6, 41, 84
12, 153839, Note_on_c, 6, 41, 0
12, 154320, Note_on_c, 6, 41, 84
12, 154559, Note_on_c, 6, 41, 0
12, 154560, Note_on_c, 6, 41, 84
12, 154799, Note_on_c, 6, 41, 0
12, 157440, Note_on_c, 6, 41, 84
12, 157679, Note_on_c, 6, 41, 0
12, 158160, Note_on_c, 6, 41, 84
12, 158399, Note_on_c, 6, 41, 0
12, 158400, Note_on_c, 6, 41, 84
12, 158639, Note_on_c, 6, 41, 0
12, 161280, Note_on_c, 6, 41, 76
12, 161519, Note_on_c, 6, 41, 0
12, 162240, Note_on_c, 6, 41, 76
12, 162479, Note_on_c, 6, 41, 0
12, 163200, Note_on_c, 6, 41, 76
12, 163439, Note_on_c, 6, 41, 0
12, 164160, Note_on_c, 6, 41, 76
12, 164399, Note_on_c, 6, 41, 0
12, 165120, Note_on_c, 6, 41, 81
12, 165159, Note_on_c, 6, 41, 0
12, 165160, Note_on_c, 6, 41, 86
12, 165199, Note_on_c, 6, 41, 0
12, 165200, Note_on_c, 6, 41, 81
12, 165239, Note_on_c, 6, 41, 0
12, 165240, Note_on_c, 6, 41, 86
12, 165279, Note_on_c, 6, 41, 0
12, 165280, Note_on_c, 6, 41, 86
12, 165319, Note_on_c, 6, 41, 0
12, 165320, Note_on_c, 6, 41, 87
12, 165359, Note_on_c, 6, 41, 0
12, 165360, Note_on_c, 6, 41, 87
12, 165399, Note_on_c, 6, 41, 0
12, 165400, Note_on_c, 6, 41, 84
12, 165439, Note_on_c, 6, 41, 0
12, 165440, Note_on_c, 6, 41, 83
12, 165479, Note_on_c, 6, 41, 0
12, 165480, Note_on_c, 6, 41, 82
12, 165519, Note_on_c, 6, 41, 0
12, 165520, Note_on_c, 6, 41, 82
12, 165559, Note_on_c, 6, 41, 0
12, 165560, Note_on_c, 6, 41, 86
12, 165599, Note_on_c, 6, 41, 0
12, 165600, Note_on_c, 6, 41, 80
12, 165639, Note_on_c, 6, 41, 0
12, 165640, Note_on_c, 6, 41, 83
12, 165679, Note_on_c, 6, 41, 0
12, 165680, Note_on_c, 6, 41, 80
12, 165719, Note_on_c, 6, 41, 0
12, 165720, Note_on_c, 6, 41, 85
12, 165759, Note_on_c, 6, 41, 0
12, 165760, Note_on_c, 6, 41, 80
12, 165799, Note_on_c, 6, 41, 0
12, 165800, Note_on_c, 6, 41, 80
12, 165839, Note_on_c, 6, 41, 0
12, 165840, Note_on_c, 6, 41, 87
12, 165879, Note_on_c, 6, 41, 0
12, 165880, Note_on_c, 6, 41, 82
12, 165919, Note_on_c, 6, 41, 0
12, 165920, Note_on_c, 6, 41, 82
12, 165959, Note_on_c, 6, 41, 0
12, 165960, Note_on_c, 6, 41, 84
12, 165999, Note_on_c, 6, 41, 0
12, 166000, Note_on_c, 6, 41, 85
12, 166039, Note_on_c, 6, 41, 0
12, 166040, Note_on_c, 6, 41, 86
12, 166079, Note_on_c, 6, 41, 0
12, 166080, Note_on_c, 6, 41, 85
12, 166119, Note_on_c, 6, 41, 0
12, 166120, Note_on_c, 6, 41, 83
12, 166159, Note_on_c, 6, 41, 0
12, 166160, Note_on_c, 6, 41, 81
12, 166199, Note_on_c, 6, 41, 0
12, 166200, Note_on_c, 6, 41, 85
12, 166239, Note_on_c, 6, 41, 0
12, 166240, Note_on_c, 6, 41, 83
12, 166279, Note_on_c, 6, 41, 0
12, 166280, Note_on_c, 6, 41, 83
12, 166319, Note_on_c, 6, 41, 0
12, 166320, Note_on_c, 6, 41, 87
12, 166359, Note_on_c, 6, 41, 0
12, 166360, Note_on_c, 6, 41, 85
12, 166399, Note_on_c, 6, 41, 0
12, 166400, Note_on_c, 6, 41, 80
12, 166439, Note_on_c, 6, 41, 0
12, 166440, Note_on_c, 6, 41, 84
12, 166479, Note_on_c, 6, 41, 0
12, 166480, Note_on_c, 6, 41, 83
12, 166519, Note_on_c, 6, 41, 0
12, 166520, Note_on_c, 6, 41, 85
12, 166559, Note_on_c, 6, 41, 0
12, 166560, Note_on_c, 6, 41, 84
12, 166599, Note_on_c, 6, 41, 0
12, 166600, Note_on_c, 6, 41, 84
12, 166639, Note_on_c, 6, 41, 0
12, 166640, Note_on_c, 6, 41, 82
12, 166679, Note_on_c, 6, 41, 0
12, 166680, Note_on_c, 6, 41, 81
12, 166719, Note_on_c, 6, 41, 0
12, 166720, Note_on_c, 6, 41, 81
12, 166759, Note_on_c, 6, 41, 0
12, 166760, Note_on_c, 6, 41, 83
12, 166799, Note_on_c, 6, 41, 0
12, 166800, Note_on_c, 6, 41, 86
12, 166839, Note_on_c, 6, 41, 0
12, 166840, Note_on_c, 6, 41, 84
12, 166879, Note_on_c, 6, 41, 0
12, 166880, Note_on_c, 6, 41, 87
12, 166919, Note_on_c, 6, 41, 0
12, 166920, Note_on_c, 6, 41, 86
12, 166959, Note_on_c, 6, 41, 0
12, 166960, Note_on_c, 6, 41, 82
12, 166999, Note_on_c, 6, 41, 0
12, 167000, Note_on_c, 6, 41, 81
12, 167039, Note_on_c, 6, 41, 0
12, 167040, Note_on_c, 6, 41, 85
12, 167079, Note_on_c, 6, 41, 0
12, 167080, Note_on_c, 6, 41, 83
12, 167119, Note_on_c, 6, 41, 0
12, 167120, Note_on_c, 6, 41, 80
12, 167159, Note_on_c, 6, 41, 0
12, 167160, Note_on_c, 6, 41, 85
12, 167199, Note_on_c, 6, 41, 0
12, 167200, Note_on_c, 6, 41, 84
12, 167239, Note_on_c, 6, 41, 0
12, 167240, Note_on_c, 6, 41, 81
12, 167279, Note_on_c, 6, 41, 0
12, 167280, Note_on_c, 6, 41, 87
12, 167319, Note_on_c, 6, 41, 0
12, 167320, Note_on_c, 6, 41, 81
12, 167359, Note_on_c, 6, 41, 0
12, 167360, Note_on_c, 6, 41, 87
12, 167399, Note_on_c, 6, 41, 0
12, 167400, Note_on_c, 6, 41, 85
12, 167439, Note_on_c, 6, 41, 0
12, 167440, Note_on_c, 6, 41, 82
12, 167479, Note_on_c, 6, 41, 0
12, 167480, Note_on_c, 6, 41, 83
12, 167519, Note_on_c, 6, 41, 0
12, 167520, Note_on_c, 6, 41, 80
12, 167559, Note_on_c, 6, 41, 0
12, 167560, Note_on_c, 6, 41, 87
12, 167599, Note_on_c, 6, 41, 0
12, 167600, Note_on_c, 6, 41, 85
12, 167639, Note_on_c, 6, 41, 0
12, 167640, Note_on_c, 6, 41, 81
12, 167679, Note_on_c, 6, 41, 0
12, 167680, Note_on_c, 6, 41, 87
12, 167719, Note_on_c, 6, 41, 0
12, 167720, Note_on_c, 6, 41, 86
12, 167759, Note_on_c, 6, 41, 0
12, 167760, Note_on_c, 6, 41, 84
12, 167799, Note_on_c, 6, 41, 0
12, 167800, Note_on_c, 6, 41, 81
12, 167839, Note_on_c, 6, 41, 0
12, 167840, Note_on_c, 6, 41, 81
12, 167879, Note_on_c, 6, 41, 0
12, 167880, Note_on_c, 6, 41, 86
12, 167919, Note_on_c, 6, 41, 0
12, 167920, Note_on_c, 6, 41, 83
12, 167959, Note_on_c, 6, 41, 0
12, 167960, Note_on_c, 6, 41, 81
12, 167999, Note_on_c, 6, 41, 0
12, 168960, Note_on_c, 6, 41, 84
12, 169199, Note_on_c, 6, 41, 0
12, 172800, Note_on_c, 6, 41, 76
12, 172979, Note_on_c, 6, 41, 0
12, 176640, Note_on_c, 6, 41, 76
12, 176879, Note_on_c, 6, 41, 0
12, 178560, Note_on_c, 6, 41, 84
12, 178599, Note_on_c, 6, 41, 0
12, 178600, Note_on_c, 6, 41, 85
12, 178639, Note_on_c, 6, 41, 0
12, 178640, Note_on_c, 6, 41, 83
12, 178679, Note_on_c, 6, 41, 0
12, 178680, Note_on_c, 6, 41, 82
12, 178719, Note_on_c, 6, 41, 0
12, 178720, Note_on_c, 6, 41, 84
12, 178759, Note_on_c, 6, 41, 0
12, 178760, Note_on_c, 6, 41, 85
12, 178799, Note_on_c, 6, 41, 0
12, 178800, Note_on_c, 6, 41, 86
12, 178839, Note_on_c, 6, 41, 0
12, 178840, Note_on_c, 6, 41, 85
12, 178879, Note_on_c, 6, 41, 0
12, 178880, Note_on_c, 6, 41, 83
12, 178919, Note_on_c, 6, 41, 0
12, 178920, Note_on_c, 6, 41, 80
12, 178959, Note_on_c, 6, 41, 0
12, 178960, Note_on_c, 6, 41, 82
12, 178999, Note_on_c, 6, 41, 0
12, 179000, Note_on_c, 6, 41, 86
12, 179039, Note_on_c, 6, 41, 0
12, 179040, Note_on_c, 6, 41, 80
12, 179079, Note_on_c, 6, 41, 0
12, 179080, Note_on_c, 6, 41, 84
12, 179119, Note_on_c, 6, 41, 0
12, 179120, Note_on_c, 6, 41, 85
12, 179159, Note_on_c, 6, 41, 0
12, 179160, Note_on_c, 6, 41, 83
12, 179199, Note_on_c, 6, 41, 0
12, 179200, Note_on_c, 6, 41, 80
12, 179239, Note_on_c, 6, 41, 0
12, 179240, Note_on_c, 6, 41, 87
12, 179279, Note_on_c, 6, 41, 0
12, 179280, Note_on_c, 6, 41, 87
12, 179319, Note_on_c, 6, 41, 0
12, 179320, Note_on_c, 6, 41, 84
12, 179359, Note_on_c, 6, 41, 0
12, 179360, Note_on_c, 6, 41, 82
12, 179399, Note_on_c, 6, 41, 0
12, 179400, Note_on_c, 6, 41, 83
12, 179439, Note_on_c, 6, 41, 0
12, 179440, Note_on_c, 6, 41, 82
12, 179479, Note_on_c, 6, 41, 0
12, 179480, Note_on_c, 6, 41, 86
12, 179519, Note_on_c, 6, 41, 0
12, 179520, Note_on_c, 6, 41, 82
12, 179559, Note_on_c, 6, 41, 0
12, 179560, Note_on_c, 6, 41, 83
12, 179599, Note_on_c, 6, 41, 0
12, 179600, Note_on_c, 6, 41, 82
12, 179639, Note_on_c, 6, 41, 0
12, 179640, Note_on_c, 6, 41, 87
12, 179679, Note_on_c, 6, 41, 0
12, 179680, Note_on_c, 6, 41, 82
12, 179719, Note_on_c, 6, 41, 0
12, 179720, Note_on_c, 6, 41, 85
12, 179759, Note_on_c, 6, 41, 0
12, 179760, Note_on_c, 6, 41, 84
12, 179799, Note_on_c, 6, 41, 0
12, 179800, Note_on_c, 6, 41, 81
12, 179839, Note_on_c, 6, 41, 0
12, 179840, Note_on_c, 6, 41, 86
12, 179879, Note_on_c, 6, 41, 0
12, 179880, Note_on_c, 6, 41, 86
12, 179919, Note_on_c, 6, 41, 0
12, 179920, Note_on_c, 6, 41, 83
12, 179959, Note_on_c, 6, 41, 0
12, 179960, Note_on_c, 6, 41, 84
12, 179999, Note_on_c, 6, 41, 0
12, 180000, Note_on_c, 6, 41, 87
12, 180039, Note_on_c, 6, 41, 0
12, 180040, Note_on_c, 6, 41, 80
12, 180079, Note_on_c, 6, 41, 0
12, 180080, Note_on_c, 6, 41, 87
12, 180119, Note_on_c, 6, 41, 0
12, 180120, Note_on_c, 6, 41, 84
12, 180159, Note_on_c, 6, 41, 0
12, 180160, Note_on_c, 6, 41, 80
12, 180199, Note_on_c, 6, 41, 0
12, 180200, Note_on_c, 6, 41, 84
12, 180239, Note_on_c, 6, 41, 0
12, 180240, Note_on_c, 6, 41, 81
12, 180279, Note_on_c, 6, 41, 0
12, 180280, Note_on_c, 6, 41, 86
12, 180319, Note_on_c, 6, 41, 0
12, 180320, Note_on_c, 6, 41, 85
12, 180359, Note_on_c, 6, 41, 0
12, 180360, Note_on_c, 6, 41, 85
12, 180399, Note_on_c, 6, 41, 0
12, 180400, Note_on_c, 6, 41, 81
12, 180439, Note_on_c, 6, 41, 0
12, 180440, Note_on_c, 6, 41, 86
12, 180479, Note_on_c, 6, 41, 0
12, 180480, Note_on_c, 6, 41, 84
12, 180719, Note_on_c, 6, 41, 0
12, 182400, Note_on_c, 6, 41, 80
12, 182439, Note_on_c, 6, 41, 0
12, 182440, Note_on_c, 6, 41, 80
12, 182479, Note_on_c, 6, 41, 0
12, 182480, Note_on_c, 6, 41, 85
12, 182519, Note_on_c, 6, 41, 0
12, 182520, Note_on_c, 6, 41, 82
12, 182559, Note_on_c, 6, 41, 0
12, 182560, Note_on_c, 6, 41, 87
12, 182599, Note_on_c, 6, 41, 0
12, 182600, Note_on_c, 6, 41, 82
12, 182639, Note_on_c, 6, 41, 0
12, 182640, Note_on_c, 6, 41, 82
12, 182679, Note_on_c, 6, 41, 0
12, 182680, Note_on_c, 6, 41, 81
12, 182719, Note_on_c, 6, 41, 0
12, 182720, Note_on_c, 6, 41, 85
12, 182759, Note_on_c, 6, 41, 0
12, 182760, Note_on_c, 6, 41, 86
12, 182799, Note_on_c, 6, 41, 0
12, 182800, Note_on_c, 6, 41, 85
12, 182839, Note_on_c, 6, 41, 0
12, 182840, Note_on_c, 6, 41, 84
12, 182879, Note_on_c, 6, 41, 0
12, 182880, Note_on_c, 6, 41, 85
12, 182919, Note_on_c, 6, 41, 0
12, 182920, Note_on_c, 6, 41, 82
12, 182959, Note_on_c, 6, 41, 0
12, 182960, Note_on_c, 6, 41, 81
12, 182999, Note_on_c, 6, 41, 0
12, 183000, Note_on_c, 6, 41, 80
12, 183039, Note_on_c, 6, 41, 0
12, 183040, Note_on_c, 6, 41, 80
12, 183079, Note_on_c, 6, 41, 0
12, 183080, Note_on_c, 6, 41, 86
12, 183119, Note_on_c, 6, 41, 0
12, 183120, Note_on_c, 6, 41, 86
12, 183159, Note_on_c, 6, 41, 0
12, 183160, Note_on_c, 6, 41, 81
12, 183199, Note_on_c, 6, 41, 0
12, 183200, Note_on_c, 6, 41, 80
12, 183239, Note_on_c, 6, 41, 0
12, 183240, Note_on_c, 6, 41, 84
12, 183279, Note_on_c, 6, 41, 0
12, 183280, Note_on_c, 6, 41, 80
12, 183319, Note_on_c, 6, 41, 0
12, 183320, Note_on_c, 6, 41, 80
12, 183359, Note_on_c, 6, 41, 0
12, 183360, Note_on_c, 6, 41, 83
12, 183399, Note_on_c, 6, 41, 0
12, 183400, Note_on_c, 6, 41, 86
12, 183439, Note_on_c, 6, 41, 0
12, 183440, Note_on_c, 6, 41, 85
12, 183479, Note_on_c, 6, 41, 0
12, 183480, Note_on_c, 6, 41, 84
12, 183519, Note_on_c, 6, 41, 0
12, 183520, Note_on_c, 6, 41, 80
12, 183559, Note_on_c, 6, 41, 0
12, 183560, Note_on_c, 6, 41, 83
12, 183599, Note_on_c, 6, 41, 0
12, 183600, Note_on_c, 6, 41, 81
12, 183639, Note_on_c, 6, 41, 0
12, 183640, Note_on_c, 6, 41, 85
12, 183679, Note_on_c, 6, 41, 0
12, 183680, Note_on_c, 6, 41, 82
12, 183719, Note_on_c, 6, 41, 0
12, 183720, Note_on_c, 6, 41, 83
12, 183759, Note_on_c, 6, 41, 0
12, 183760, Note_on_c, 6, 41, 81
12, 183799, Note_on_c, 6, 41, 0
12, 183800, Note_on_c, 6, 41, 84
12, 183839, Note_on_c, 6, 41, 0
12, 183840, Note_on_c, 6, 41, 84
12, 183879, Note_on_c, 6, 41, 0
12, 183880, Note_on_c, 6, 41, 85
12, 183919, Note_on_c, 6, 41, 0
12, 183920, Note_on_c, 6, 41, 81
12, 183959, Note_on_c, 6, 41, 0
12, 183960, Note_on_c, 6, 41, 84
12, 183999, Note_on_c, 6, 41, 0
12, 184000, Note_on_c, 6, 41, 87
12, 184039, Note_on_c, 6, 41, 0
12, 184040, Note_on_c, 6, 41, 85
12, 184079, Note_on_c, 6, 41, 0
12, 184080, Note_on_c, 6, 41, 87
12, 184119, Note_on_c, 6, 41, 0
12, 184120, Note_on_c, 6, 41, 81
12, 184159, Note_on_c, 6, 41, 0
12, 184160, Note_on_c, 6, 41, 82
12, 184199, Note_on_c, 6, 41, 0
12, 184200, Note_on_c, 6, 41, 81
12, 184239, Note_on_c, 6, 41, 0
12, 184240, Note_on_c, 6, 41, 87
12, 184279, Note_on_c, 6, 41, 0
12, 184280, Note_on_c, 6, 41, 83
12, 184319, Note_on_c, 6, 41, 0
12, 184320, Note_on_c, 6, 41, 84
12, 184559, Note_on_c, 6, 41, 0
12, 185280, Note_on_c, 6, 41, 84
12, 185459, Note_on_c, 6, 41, 0
12, 186240, Note_on_c, 6, 41, 84
12, 186419, Note_on_c, 6, 41, 0
12, 186720, Note_on_c, 6, 41, 84
12, 186899, Note_on_c, 6, 41, 0
12, 187200, Note_on_c, 6, 41, 84
12, 187379, Note_on_c, 6, 41, 0
12, 187680, Note_on_c, 6, 41, 84
12, 187859, Note_on_c, 6, 41, 0
12, 188160, Note_on_c, 6, 46, 84
12, 188339, Note_on_c, 6, 46, 0
12, 195840, Note_on_c, 6, 41, 84
12, 196019, Note_on_c, 6, 41, 0
12, 196800, Note_on_c, 6, 41, 84
12, 196979, Note_on_c, 6, 41, 0
12, 197280, Note_on_c, 6, 41, 84
12, 197459, Note_on_c, 6, 41, 0
12, 197760, Note_on_c, 6, 46, 84
12, 197879, Note_on_c, 6, 46, 0
12, 198000, Note_on_c, 6, 46, 84
12, 198119, Note_on_c, 6, 46, 0
12, 198240, Note_on_c, 6, 46, 84
12, 198359, Note_on_c, 6, 46, 0
12, 198480, Note_on_c, 6, 46, 84
12, 198599, Note_on_c, 6, 46, 0
12, 198720, Note_on_c, 6, 46, 84
12, 198839, Note_on_c, 6, 46, 0
12, 198960, Note_on_c, 6, 46, 84
12, 199079, Note_on_c, 6, 46, 0
12, 199200, Note_on_c, 6, 46, 84
12, 199319, Note_on_c, 6, 46, 0
12, 199440, Note_on_c, 6, 46, 84
12, 199559, Note_on_c, 6, 46, 0
12, 199680, Note_on_c, 6, 46, 84
12, 199799, Note_on_c, 6, 46, 0
12, 199920, Note_on_c, 6, 46, 84
12, 200039, Note_on_c, 6, 46, 0
12, 200160, Note_on_c, 6, 46, 84
12, 200279, Note_on_c, 6, 46, 0
12, 200400, Note_on_c, 6, 46, 84
12, 200519, Note_on_c, 6, 46, 0
12, 200640, Note_on_c, 6, 46, 84
12, 200759, Note_on_c, 6, 46, 0
12, 200880, Note_on_c, 6, 46, 84
12, 200999, Note_on_c, 6, 46, 0
12, 201120, Note_on_c, 6, 46, 84
12, 201239, Note_on_c, 6, 46, 0
12, 201360, Note_on_c, 6, 46, 84
12, 201479, Note_on_c, 6, 46, 0
12, 201600, Note_on_c, 6, 46, 84
12, 201839, Note_on_c, 6, 46, 0
12, 203040, Note_on_c, 6, 46, 84
12, 203279, Note_on_c, 6, 46, 0
12, 203280, Note_on_c, 6, 46, 84
12, 203519, Note_on_c, 6, 46, 0
12, 203520, Note_on_c, 6, 41, 84
12, 203759, Note_on_c, 6, 41, 0
12, 205440, Note_on_c, 6, 41, 84
12, 205679, Note_on_c, 6, 41, 0
12, 206400, Note_on_c, 6, 46, 84
12, 206639, Note_on_c, 6, 46, 0
12, 207360, Note_on_c, 6, 46, 84
12, 207599, Note_on_c, 6, 46, 0
12, 208320, Note_on_c, 6, 41, 84
12, 208559, Note_on_c, 6, 41, 0
12, 223200, Note_on_c, 6, 46, 72
12, 223439, Note_on_c, 6, 46, 0
12, 223680, Note_on_c, 6, 46, 76
12, 223919, Note_on_c, 6, 46, 0
12, 224160, Note_on_c, 6, 46, 80
12, 224399, Note_on_c, 6, 46, 0
12, 224640, Note_on_c, 6, 46, 84
12, 224879, Note_on_c, 6, 46, 0
12, 224880, Note_on_c, 6, 46, 84
12, 225119, Note_on_c, 6, 46, 0
12, 225120, Note_on_c, 6, 46, 84
12, 225359, Note_on_c, 6, 46, 0
12, 225360, Note_on_c, 6, 46, 84
12, 225599, Note_on_c, 6, 46, 0
12, 225600, Note_on_c, 6, 46, 84
12, 225839, Note_on_c, 6, 46, 0
12, 225840, Note_on_c, 6, 46, 84
12, 226079, Note_on_c, 6, 46, 0
12, 226080, Note_on_c, 6, 46, 84
12, 226319, Note_on_c, 6, 46, 0
12, 226320, Note_on_c, 6, 46, 84
12, 226559, Note_on_c, 6, 46, 0
12, 226560, Note_on_c, 6, 46, 84
12, 226679, Note_on_c, 6, 46, 0
12, 226800, Note_on_c, 6, 46, 84
12, 226919, Note_on_c, 6, 46, 0
12, 227040, Note_on_c, 6, 46, 84
12, 227159, Note_on_c, 6, 46, 0
12, 227280, Note_on_c, 6, 46, 84
12, 227399, Note_on_c, 6, 46, 0
12, 227520, Note_on_c, 6, 41, 84
12, 227639, Note_on_c, 6, 41, 0
12, 227760, Note_on_c, 6, 41, 84
12, 227879, Note_on_c, 6, 41, 0
12, 228000, Note_on_c, 6, 41, 84
12, 228119, Note_on_c, 6, 41, 0
12, 228240, Note_on_c, 6, 41, 84
12, 228359, Note_on_c, 6, 41, 0
12, 228480, Note_on_c, 6, 46, 92
12, 228519, Note_on_c, 6, 46, 0
12, 228520, Note_on_c, 6, 46, 80
12, 228559, Note_on_c, 6, 46, 0
12, 228560, Note_on_c, 6, 46, 84
12, 228599, Note_on_c, 6, 46, 0
12, 228600, Note_on_c, 6, 46, 81
12, 228639, Note_on_c, 6, 46, 0
12, 228640, Note_on_c, 6, 46, 86
12, 228679, Note_on_c, 6, 46, 0
12, 228680, Note_on_c, 6, 46, 84
12, 228719, Note_on_c, 6, 46, 0
12, 228720, Note_on_c, 6, 46, 83
12, 228759, Note_on_c, 6, 46, 0
12, 228760, Note_on_c, 6, 46, 82
12, 228799, Note_on_c, 6, 46, 0
12, 228800, Note_on_c, 6, 46, 87
12, 228839, Note_on_c, 6, 46, 0
12, 228840, Note_on_c, 6, 46, 86
12, 228879, Note_on_c, 6, 46, 0
12, 228880, Note_on_c, 6, 46, 85
12, 228919, Note_on_c, 6, 46, 0
12, 228920, Note_on_c, 6, 46, 81
12, 228959, Note_on_c, 6, 46, 0
12, 228960, Note_on_c, 6, 46, 86
12, 228999, Note_on_c, 6, 46, 0
12, 229000, Note_on_c, 6, 46, 85
12, 229039, Note_on_c, 6, 46, 0
12, 229040, Note_on_c, 6, 46, 84
12, 229079, Note_on_c, 6, 46, 0
12, 229080, Note_on_c, 6, 46, 82
12, 229119, Note_on_c, 6, 46, 0
12, 229120, Note_on_c, 6, 46, 80
12, 229159, Note_on_c, 6, 46, 0
12, 229160, Note_on_c, 6, 46, 80
12, 229199, Note_on_c, 6, 46, 0
12, 229200, Note_on_c, 6, 46, 82
12, 229239, Note_on_c, 6, 46, 0
12, 229240, Note_on_c, 6, 46, 81
12, 229279, Note_on_c, 6, 46, 0
12, 229280, Note_on_c, 6, 46, 81
12, 229319, Note_on_c, 6, 46, 0
12, 229320, Note_on_c, 6, 46, 87
12, 229359, Note_on_c, 6, 46, 0
12, 229360, Note_on_c, 6, 46, 83
12, 229399, Note_on_c, 6, 46, 0
12, 229400, Note_on_c, 6, 46, 80
12, 229439, Note_on_c, 6, 46, 0
12, 229440, Note_on_c, 6, 46, 80
12, 229479, Note_on_c, 6, 46, 0
12, 229480, Note_on_c, 6, 46, 80
12, 229519, Note_on_c, 6, 46, 0
12, 229520, Note_on_c, 6, 46, 83
12, 229559, Note_on_c, 6, 46, 0
12, 229560, Note_on_c, 6, 46, 84
12, 229599, Note_on_c, 6, 46, 0
12, 229600, Note_on_c, 6, 46, 84
12, 229639, Note_on_c, 6, 46, 0
12, 229640, Note_on_c, 6, 46, 84
12, 229679, Note_on_c, 6, 46, 0
12, 229680, Note_on_c, 6, 46, 84
12, 229719, Note_on_c, 6, 46, 0
12, 229720, Note_on_c, 6, 46, 81
12, 229759, Note_on_c, 6, 46, 0
12, 229760, Note_on_c, 6, 46, 85
12, 229799, Note_on_c, 6, 46, 0
12, 229800, Note_on_c, 6, 46, 83
12, 229839, Note_on_c, 6, 46, 0
12, 229840, Note_on_c, 6, 46, 82
12, 229879, Note_on_c, 6, 46, 0
12, 229880, Note_on_c, 6, 46, 80
12, 229919, Note_on_c, 6, 46, 0
12, 229920, Note_on_c, 6, 46, 84
12, 229959, Note_on_c, 6, 46, 0
12, 229960, Note_on_c, 6, 46, 86
12, 229999, Note_on_c, 6, 46, 0
12, 230000, Note_on_c, 6, 46, 86
12, 230039, Note_on_c, 6, 46, 0
12, 230040, Note_on_c, 6, 46, 84
12, 230079, Note_on_c, 6, 46, 0
12, 230080, Note_on_c, 6, 46, 82
12, 230119, Note_on_c, 6, 46, 0
12, 230120, Note_on_c, 6, 46, 87
12, 230159, Note_on_c, 6, 46, 0
12, 230160, Note_on_c, 6, 46, 85
12, 230199, Note_on_c, 6, 46, 0
12, 230200, Note_on_c, 6, 46, 87
12, 230239, Note_on_c, 6, 46, 0
12, 230240, Note_on_c, 6, 46, 87
12, 230279, Note_on_c, 6, 46, 0
12, 230280, Note_on_c, 6, 46, 84
12, 230319, Note_on_c, 6, 46, 0
12, 230320, Note_on_c, 6, 46, 81
12, 230359, Note_on_c, 6, 46, 0
12, 230360, Note_on_c, 6, 46, 83
12, 230399, Note_on_c, 6, 46, 0
12, 230400, Note_on_c, 6, 46, 92
12, 230639, Note_on_c, 6, 46, 0
12, 231360, Note_on_c, 6, 41, 92
12, 231599, Note_on_c, 6, 41, 0
12, 232320, Note_on_c, 6, 46, 92
12, 232559, Note_on_c, 6, 46, 0
12, 234240, Note_on_c, 6, 41, 92
12, 234479, Note_on_c, 6, 41, 0
12, 276480, Note_on_c, 6, 41, 76
12, 276719, Note_on_c, 6, 41, 0
12, 277440, Note_on_c, 6, 41, 76
12, 277679, Note_on_c, 6, 41, 0
12, 278400, Note_on_c, 6, 41, 76
12, 278639, Note_on_c, 6, 41, 0
12, 280320, Note_on_c, 6, 41, 76
12, 280559, Note_on_c, 6, 41, 0
12, 280800, Note_on_c, 6, 41, 76
12, 281039, Note_on_c, 6, 41, 0
12, 281280, Note_on_c, 6, 41, 76
12, 281519, Note_on_c, 6, 41, 0
12, 282240, Note_on_c, 6, 41, 52
12, 282479, Note_on_c, 6, 41, 0
12, 301440, Note_on_c, 6, 41, 84
12, 301679, Note_on_c, 6, 41, 0
12, 302160, Note_on_c, 6, 41, 84
12, 302399, Note_on_c, 6, 41, 0
12, 302400, Note_on_c, 6, 41, 84
12, 302639, Note_on_c, 6, 41, 0
12, 305280, Note_on_c, 6, 41, 84
12, 305519, Note_on_c, 6, 41, 0
12, 306000, Note_on_c, 6, 41, 84
12, 306239, Note_on_c, 6, 41, 0
12, 306240, Note_on_c, 6, 41, 84
12, 306479, Note_on_c, 6, 41, 0
12, 309120, Note_on_c, 6, 41, 76
12, 309359, Note_on_c, 6, 41, 0
12, 310080, Note_on_c, 6, 41, 76
12, 310319, Note_on_c, 6, 41, 0
12, 311040, Note_on_c, 6, 41, 76
12, 311279, Note_on_c, 6, 41, 0
12, 312000, Note_on_c, 6, 41, 76
12, 312239, Note_on_c, 6, 41, 0
12, 312960, Note_on_c, 6, 41, 81
12, 312999, Note_on_c, 6, 41, 0
12, 313000, Note_on_c, 6, 41, 86
12, 313039, Note_on_c, 6, 41, 0
12, 313040, Note_on_c, 6, 41, 81
12, 313079, Note_on_c, 6, 41, 0
12, 313080, Note_on_c, 6, 41, 86
12, 313119, Note_on_c, 6, 41, 0
12, 313120, Note_on_c, 6, 41, 86
12, 313159, Note_on_c, 6, 41, 0
12, 313160, Note_on_c, 6, 41, 87
12, 313199, Note_on_c, 6, 41, 0
12, 313200, Note_on_c, 6, 41, 87
12, 313239, Note_on_c, 6, 41, 0
12, 313240, Note_on_c, 6, 41, 84
12, 313279, Note_on_c, 6, 41, 0
12, 313280, Note_on_c, 6, 41, 83
12, 313319, Note_on_c, 6, 41, 0
12, 313320, Note_on_c, 6, 41, 82
12, 313359, Note_on_c, 6, 41, 0
12, 313360, Note_on_c, 6, 41, 82
12, 313399, Note_on_c, 6, 41, 0
12, 313400, Note_on_c, 6, 41, 86
12, 313439, Note_on_c, 6, 41, 0
12, 313440, Note_on_c, 6, 41, 80
12, 313479, Note_on_c, 6, 41, 0
12, 313480, Note_on_c, 6, 41, 83
12, 313519, Note_on_c, 6, 41, 0
12, 313520, Note_on_c, 6, 41, 80
12, 313559, Note_on_c, 6, 41, 0
12, 313560, Note_on_c, 6, 41, 85
12, 313599, Note_on_c, 6, 41, 0
12, 313600, Note_on_c, 6, 41, 80
12, 313639, Note_on_c, 6, 41, 0
12, 313640, Note_on_c, 6, 41, 80
12, 313679, Note_on_c, 6, 41, 0
12, 313680, Note_on_c, 6, 41, 87
12, 313719, Note_on_c, 6, 41, 0
12, 313720, Note_on_c, 6, 41, 82
12, 313759, Note_on_c, 6, 41, 0
12, 313760, Note_on_c, 6, 41, 82
12, 313799, Note_on_c, 6, 41, 0
12, 313800, Note_on_c, 6, 41, 84
12, 313839, Note_on_c, 6, 41, 0
12, 313840, Note_on_c, 6, 41, 85
12, 313879, Note_on_c, 6, 41, 0
12, 313880, Note_on_c, 6, 41, 86
12, 313919, Note_on_c, 6, 41, 0
12, 313920, Note_on_c, 6, 41, 85
12, 313959, Note_on_c, 6, 41, 0
12, 313960, Note_on_c, 6, 41, 83
12, 313999, Note_on_c, 6, 41, 0
12, 314000, Note_on_c, 6, 41, 81
12, 314039, Note_on_c, 6, 41, 0
12, 314040, Note_on_c, 6, 41, 85
12, 314079, Note_on_c, 6, 41, 0
12, 314080, Note_on_c, 6, 41, 83
12, 314119, Note_on_c, 6, 41, 0
12, 314120, Note_on_c, 6, 41, 83
12, 314159, Note_on_c, 6, 41, 0
12, 314160, Note_on_c, 6, 41, 87
12, 314199, Note_on_c, 6, 41, 0
12, 314200, Note_on_c, 6, 41, 85
12, 314239, Note_on_c, 6, 41, 0
12, 314240, Note_on_c, 6, 41, 80
12, 314279, Note_on_c, 6, 41, 0
12, 314280, Note_on_c, 6, 41, 84
12, 314319, Note_on_c, 6, 41, 0
12, 314320, Note_on_c, 6, 41, 83
12, 314359, Note_on_c, 6, 41, 0
12, 314360, Note_on_c, 6, 41, 85
12, 314399, Note_on_c, 6, 41, 0
12, 314400, Note_on_c, 6, 41, 84
12, 314439, Note_on_c, 6, 41, 0
12, 314440, Note_on_c, 6, 41, 84
12, 314479, Note_on_c, 6, 41, 0
12, 314480, Note_on_c, 6, 41, 82
12, 314519, Note_on_c, 6, 41, 0
12, 314520, Note_on_c, 6, 41, 81
12, 314559, Note_on_c, 6, 41, 0
12, 314560, Note_on_c, 6, 41, 81
12, 314599, Note_on_c, 6, 41, 0
12, 314600, Note_on_c, 6, 41, 83
12, 314639, Note_on_c, 6, 41, 0
12, 314640, Note_on_c, 6, 41, 86
12, 314679, Note_on_c, 6, 41, 0
12, 314680, Note_on_c, 6, 41, 84
12, 314719, Note_on_c, 6, 41, 0
12, 314720, Note_on_c, 6, 41, 87
12, 314759, Note_on_c, 6, 41, 0
12, 314760, Note_on_c, 6, 41, 86
12, 314799, Note_on_c, 6, 41, 0
12, 314800, Note_on_c, 6, 41, 82
12, 314839, Note_on_c, 6, 41, 0
12, 314840, Note_on_c, 6, 41, 81
12, 314879, Note_on_c, 6, 41, 0
12, 314880, Note_on_c, 6, 41, 85
12, 314919, Note_on_c, 6, 41, 0
12, 314920, Note_on_c, 6, 41, 83
12, 314959, Note_on_c, 6, 41, 0
12, 314960, Note_on_c, 6, 41, 80
12, 314999, Note_on_c, 6, 41, 0
12, 315000, Note_on_c, 6, 41, 85
12, 315039, Note_on_c, 6, 41, 0
12, 315040, Note_on_c, 6, 41, 84
12, 315079, Note_on_c, 6, 41, 0
12, 315080, Note_on_c, 6, 41, 81
12, 315119, Note_on_c, 6, 41, 0
12, 315120, Note_on_c, 6, 41, 87
12, 315159, Note_on_c, 6, 41, 0
12, 315160, Note_on_c, 6, 41, 81
12, 315199, Note_on_c, 6, 41, 0
12, 315200, Note_on_c, 6, 41, 87
12, 315239, Note_on_c, 6, 41, 0
12, 315240, Note_on_c, 6, 41, 85
12, 315279, Note_on_c, 6, 41, 0
12, 315280, Note_on_c, 6, 41, 82
12, 315319, Note_on_c, 6, 41, 0
12, 315320, Note_on_c, 6, 41, 83
12, 315359, Note_on_c, 6, 41, 0
12, 315360, Note_on_c, 6, 41, 80
12, 315399, Note_on_c, 6, 41, 0
12, 315400, Note_on_c, 6, 41, 87
12, 315439, Note_on_c, 6, 41, 0
12, 315440, Note_on_c, 6, 41, 85
12, 315479, Note_on_c, 6, 41, 0
12, 315480, Note_on_c, 6, 41, 81
12, 315519, Note_on_c, 6, 41, 0
12, 315520, Note_on_c, 6, 41, 87
12, 315559, Note_on_c, 6, 41, 0
12, 315560, Note_on_c, 6, 41, 86
12, 315599, Note_on_c, 6, 41, 0
12, 315600, Note_on_c, 6, 41, 84
12, 315639, Note_on_c, 6, 41, 0
12, 315640, Note_on_c, 6, 41, 81
12, 315679, Note_on_c, 6, 41, 0
12, 315680, Note_on_c, 6, 41, 81
12, 315719, Note_on_c, 6, 41, 0
12, 315720, Note_on_c, 6, 41, 86
12, 315759, Note_on_c, 6, 41, 0
12, 315760, Note_on_c, 6, 41, 83
12, 315799, Note_on_c, 6, 41, 0
12, 315800, Note_on_c, 6, 41, 81
12, 315839, Note_on_c, 6, 41, 0
12, 316800, Note_on_c, 6, 41, 84
12, 317039, Note_on_c, 6, 41, 0
12, 320640, Note_on_c, 6, 41, 76
12, 320819, Note_on_c, 6, 41, 0
12, 324480, Note_on_c, 6, 41, 76
12, 324719, Note_on_c, 6, 41, 0
12, 324960, Note_on_c, 6, 41, 76
12, 325199, Note_on_c, 6, 41, 0
12, 325440, Note_on_c, 6, 41, 76
12, 325679, Note_on_c, 6, 41, 0
12, 325920, Note_on_c, 6, 41, 76
12, 326159, Note_on_c, 6, 41, 0
12, 326400, Note_on_c, 6, 41, 76
12, 326639, Note_on_c, 6, 41, 0
12, 393600, Note_on_c, 6, 46, 85
12, 393639, Note_on_c, 6, 46, 0
12, 393640, Note_on_c, 6, 46, 81
12, 393679, Note_on_c, 6, 46, 0
12, 393680, Note_on_c, 6, 46, 85
12, 393719, Note_on_c, 6, 46, 0
12, 393720, Note_on_c, 6, 46, 85
12, 393759, Note_on_c, 6, 46, 0
12, 393760, Note_on_c, 6, 46, 86
12, 393799, Note_on_c, 6, 46, 0
12, 393800, Note_on_c, 6, 46, 80
12, 393839, Note_on_c, 6, 46, 0
12, 393840, Note_on_c, 6, 46, 86
12, 393879, Note_on_c, 6, 46, 0
12, 393880, Note_on_c, 6, 46, 85
12, 393919, Note_on_c, 6, 46, 0
12, 393920, Note_on_c, 6, 46, 85
12, 393959, Note_on_c, 6, 46, 0
12, 393960, Note_on_c, 6, 46, 80
12, 393999, Note_on_c, 6, 46, 0
12, 394000, Note_on_c, 6, 46, 84
12, 394039, Note_on_c, 6, 46, 0
12, 394040, Note_on_c, 6, 46, 87
12, 394079, Note_on_c, 6, 46, 0
12, 394080, Note_on_c, 6, 46, 80
12, 394119, Note_on_c, 6, 46, 0
12, 394120, Note_on_c, 6, 46, 82
12, 394159, Note_on_c, 6, 46, 0
12, 394160, Note_on_c, 6, 46, 81
12, 394199, Note_on_c, 6, 46, 0
12, 394200, Note_on_c, 6, 46, 87
12, 394239, Note_on_c, 6, 46, 0
12, 394240, Note_on_c, 6, 46, 84
12, 394279, Note_on_c, 6, 46, 0
12, 394280, Note_on_c, 6, 46, 82
12, 394319, Note_on_c, 6, 46, 0
12, 394320, Note_on_c, 6, 46, 87
12, 394359, Note_on_c, 6, 46, 0
12, 394360, Note_on_c, 6, 46, 82
12, 394399, Note_on_c, 6, 46, 0
12, 394400, Note_on_c, 6, 46, 85
12, 394439, Note_on_c, 6, 46, 0
12, 394440, Note_on_c, 6, 46, 81
12, 394479, Note_on_c, 6, 46, 0
12, 394480, Note_on_c, 6, 46, 81
12, 394519, Note_on_c, 6, 46, 0
12, 394520, Note_on_c, 6, 46, 81
12, 394559, Note_on_c, 6, 46, 0
12, 394560, Note_on_c, 6, 46, 84
12, 394599, Note_on_c, 6, 46, 0
12, 394600, Note_on_c, 6, 46, 87
12, 394639, Note_on_c, 6, 46, 0
12, 394640, Note_on_c, 6, 46, 80
12, 394679, Note_on_c, 6, 46, 0
12, 394680, Note_on_c, 6, 46, 87
12, 394719, Note_on_c, 6, 46, 0
12, 394720, Note_on_c, 6, 46, 83
12, 394759, Note_on_c, 6, 46, 0
12, 394760, Note_on_c, 6, 46, 80
12, 394799, Note_on_c, 6, 46, 0
12, 394800, Note_on_c, 6, 46, 86
12, 394839, Note_on_c, 6, 46, 0
12, 394840, Note_on_c, 6, 46, 81
12, 394879, Note_on_c, 6, 46, 0
12, 394880, Note_on_c, 6, 46, 87
12, 394919, Note_on_c, 6, 46, 0
12, 394920, Note_on_c, 6, 46, 86
12, 394959, Note_on_c, 6, 46, 0
12, 394960, Note_on_c, 6, 46, 86
12, 394999, Note_on_c, 6, 46, 0
12, 395000, Note_on_c, 6, 46, 81
12, 395039, Note_on_c, 6, 46, 0
12, 395040, Note_on_c, 6, 46, 83
12, 395079, Note_on_c, 6, 46, 0
12, 395080, Note_on_c, 6, 46, 80
12, 395119, Note_on_c, 6, 46, 0
12, 395120, Note_on_c, 6, 46, 86
12, 395159, Note_on_c, 6, 46, 0
12, 395160, Note_on_c, 6, 46, 80
12, 395199, Note_on_c, 6, 46, 0
12, 395200, Note_on_c, 6, 46, 83
12, 395239, Note_on_c, 6, 46, 0
12, 395240, Note_on_c, 6, 46, 82
12, 395279, Note_on_c, 6, 46, 0
12, 395280, Note_on_c, 6, 46, 87
12, 395319, Note_on_c, 6, 46, 0
12, 395320, Note_on_c, 6, 46, 80
12, 395359, Note_on_c, 6, 46, 0
12, 395360, Note_on_c, 6, 46, 82
12, 395399, Note_on_c, 6, 46, 0
12, 395400, Note_on_c, 6, 46, 81
12, 395439, Note_on_c, 6, 46, 0
12, 395440, Note_on_c, 6, 46, 81
12, 395479, Note_on_c, 6, 46, 0
12, 395480, Note_on_c, 6, 46, 81
12, 395519, Note_on_c, 6, 46, 0
12, 395520, Note_on_c, 6, 46, 84
12, 395559, Note_on_c, 6, 46, 0
12, 395560, Note_on_c, 6, 46, 87
12, 395599, Note_on_c, 6, 46, 0
12, 395600, Note_on_c, 6, 46, 87
12, 395639, Note_on_c, 6, 46, 0
12, 395640, Note_on_c, 6, 46, 81
12, 395679, Note_on_c, 6, 46, 0
12, 395680, Note_on_c, 6, 46, 86
12, 395719, Note_on_c, 6, 46, 0
12, 395720, Note_on_c, 6, 46, 85
12, 395759, Note_on_c, 6, 46, 0
12, 395760, Note_on_c, 6, 46, 85
12, 395799, Note_on_c, 6, 46, 0
12, 395800, Note_on_c, 6, 46, 87
12, 395839, Note_on_c, 6, 46, 0
12, 395840, Note_on_c, 6, 46, 83
12, 395879, Note_on_c, 6, 46, 0
12, 395880, Note_on_c, 6, 46, 87
12, 395919, Note_on_c, 6, 46, 0
12, 395920, Note_on_c, 6, 46, 85
12, 395959, Note_on_c, 6, 46, 0
12, 395960, Note_on_c, 6, 46, 81
12, 395999, Note_on_c, 6, 46, 0
12, 396000, Note_on_c, 6, 46, 85
12, 396039, Note_on_c, 6, 46, 0
12, 396040, Note_on_c, 6, 46, 84
12, 396079, Note_on_c, 6, 46, 0
12, 396080, Note_on_c, 6, 46, 83
12, 396119, Note_on_c, 6, 46, 0
12, 396120, Note_on_c, 6, 46, 87
12, 396159, Note_on_c, 6, 46, 0
12, 396160, Note_on_c, 6, 46, 84
12, 396199, Note_on_c, 6, 46, 0
12, 396200, Note_on_c, 6, 46, 84
12, 396239, Note_on_c, 6, 46, 0
12, 396240, Note_on_c, 6, 46, 84
12, 396279, Note_on_c, 6, 46, 0
12, 396280, Note_on_c, 6, 46, 82
12, 396319, Note_on_c, 6, 46, 0
12, 396320, Note_on_c, 6, 46, 83
12, 396359, Note_on_c, 6, 46, 0
12, 396360, Note_on_c, 6, 46, 82
12, 396399, Note_on_c, 6, 46, 0
12, 396400, Note_on_c, 6, 46, 80
12, 396439, Note_on_c, 6, 46, 0
12, 396440, Note_on_c, 6, 46, 86
12, 396479, Note_on_c, 6, 46, 0
12, 396480, Note_on_c, 6, 46, 84
12, 396719, Note_on_c, 6, 46, 0
12, 396960, Note_on_c, 6, 46, 84
12, 397199, Note_on_c, 6, 46, 0
12, 397440, Note_on_c, 6, 46, 76
12, 397679, Note_on_c, 6, 46, 0
12, 398400, Note_on_c, 6, 46, 76
12, 398639, Note_on_c, 6, 46, 0
12, 399360, Note_on_c, 6, 46, 76
12, 399599, Note_on_c, 6, 46, 0
12, 400320, Note_on_c, 6, 46, 76
12, 400559, Note_on_c, 6, 46, 0
12, 401280, Note_on_c, 6, 46, 76
12, 401519, Note_on_c, 6, 46, 0
12, 403200, Note_on_c, 6, 46, 52
12, 403439, Note_on_c, 6, 46, 0
12, 405120, Note_on_c, 6, 46, 44
12, 405359, Note_on_c, 6, 46, 0
12, 418560, Note_on_c, 6, 46, 44
12, 418599, Note_on_c, 6, 46, 0
12, 418600, Note_on_c, 6, 46, 44
12, 418639, Note_on_c, 6, 46, 0
12, 418640, Note_on_c, 6, 46, 44
12, 418679, Note_on_c, 6, 46, 0
12, 418680, Note_on_c, 6, 46, 44
12, 418719, Note_on_c, 6, 46, 0
12, 418720, Note_on_c, 6, 46, 44
12, 418759, Note_on_c, 6, 46, 0
12, 418760, Note_on_c, 6, 46, 44
12, 418799, Note_on_c, 6, 46, 0
12, 418800, Note_on_c, 6, 46, 44
12, 418839, Note_on_c, 6, 46, 0
12, 418840, Note_on_c, 6, 46, 44
12, 418879, Note_on_c, 6, 46, 0
12, 418880, Note_on_c, 6, 46, 44
12, 418919, Note_on_c, 6, 46, 0
12, 418920, Note_on_c, 6, 46, 44
12, 418959, Note_on_c, 6, 46, 0
12, 418960, Note_on_c, 6, 46, 44
12, 418999, Note_on_c, 6, 46, 0
12, 419000, Note_on_c, 6, 46, 44
12, 419039, Note_on_c, 6, 46, 0
12, 419040, Note_on_c, 6, 46, 44
12, 419079, Note_on_c, 6, 46, 0
12, 419080, Note_on_c, 6, 46, 44
12, 419119, Note_on_c, 6, 46, 0
12, 419120, Note_on_c, 6, 46, 44
12, 419159, Note_on_c, 6, 46, 0
12, 419160, Note_on_c, 6, 46, 44
12, 419199, Note_on_c, 6, 46, 0
12, 419200, Note_on_c, 6, 46, 44
12, 419239, Note_on_c, 6, 46, 0
12, 419240, Note_on_c, 6, 46, 44
12, 419279, Note_on_c, 6, 46, 0
12, 419280, Note_on_c, 6, 46, 44
12, 419319, Note_on_c, 6, 46, 0
12, 419320, Note_on_c, 6, 46, 44
12, 419359, Note_on_c, 6, 46, 0
12, 419360, Note_on_c, 6, 46, 44
12, 419399, Note_on_c, 6, 46, 0
12, 419400, Note_on_c, 6, 46, 44
12, 419439, Note_on_c, 6, 46, 0
12, 419440, Note_on_c, 6, 46, 44
12, 419479, Note_on_c, 6, 46, 0
12, 419480, Note_on_c, 6, 46, 44
12, 419519, Note_on_c, 6, 46, 0
12, 419520, Note_on_c, 6, 46, 44
12, 419559, Note_on_c, 6, 46, 0
12, 419560, Note_on_c, 6, 46, 44
12, 419599, Note_on_c, 6, 46, 0
12, 419600, Note_on_c, 6, 46, 44
12, 419639, Note_on_c, 6, 46, 0
12, 419640, Note_on_c, 6, 46, 44
12, 419679, Note_on_c, 6, 46, 0
12, 419680, Note_on_c, 6, 46, 44
12, 419719, Note_on_c, 6, 46, 0
12, 419720, Note_on_c, 6, 46, 44
12, 419759, Note_on_c, 6, 46, 0
12, 419760, Note_on_c, 6, 46, 44
12, 419799, Note_on_c, 6, 46, 0
12, 419800, Note_on_c, 6, 46, 44
12, 419839, Note_on_c, 6, 46, 0
12, 419840, Note_on_c, 6, 46, 44
12, 419879, Note_on_c, 6, 46, 0
12, 419880, Note_on_c, 6, 46, 44
12, 419919, Note_on_c, 6, 46, 0
12, 419920, Note_on_c, 6, 46, 44
12, 419959, Note_on_c, 6, 46, 0
12, 419960, Note_on_c, 6, 46, 44
12, 419999, Note_on_c, 6, 46, 0
12, 420000, Note_on_c, 6, 46, 44
12, 420039, Note_on_c, 6, 46, 0
12, 420040, Note_on_c, 6, 46, 44
12, 420079, Note_on_c, 6, 46, 0
12, 420080, Note_on_c, 6, 46, 44
12, 420119, Note_on_c, 6, 46, 0
12, 420120, Note_on_c, 6, 46, 44
12, 420159, Note_on_c, 6, 46, 0
12, 420160, Note_on_c, 6, 46, 44
12, 420199, Note_on_c, 6, 46, 0
12, 420200, Note_on_c, 6, 46, 44
12, 420239, Note_on_c, 6, 46, 0
12, 420240, Note_on_c, 6, 46, 44
12, 420279, Note_on_c, 6, 46, 0
12, 420280, Note_on_c, 6, 46, 44
12, 420319, Note_on_c, 6, 46, 0
12, 420320, Note_on_c, 6, 46, 44
12, 420359, Note_on_c, 6, 46, 0
12, 420360, Note_on_c, 6, 46, 44
12, 420399, Note_on_c, 6, 46, 0
12, 420400, Note_on_c, 6, 46, 44
12, 420439, Note_on_c, 6, 46, 0
12, 420440, Note_on_c, 6, 46, 44
12, 420479, Note_on_c, 6, 46, 0
12, 420480, Note_on_c, 6, 46, 44
12, 420719, Note_on_c, 6, 46, 0
12, 422400, Note_on_c, 6, 46, 44
12, 422439, Note_on_c, 6, 46, 0
12, 422440, Note_on_c, 6, 46, 44
12, 422479, Note_on_c, 6, 46, 0
12, 422480, Note_on_c, 6, 46, 44
12, 422519, Note_on_c, 6, 46, 0
12, 422520, Note_on_c, 6, 46, 44
12, 422559, Note_on_c, 6, 46, 0
12, 422560, Note_on_c, 6, 46, 44
12, 422599, Note_on_c, 6, 46, 0
12, 422600, Note_on_c, 6, 46, 44
12, 422639, Note_on_c, 6, 46, 0
12, 422640, Note_on_c, 6, 46, 44
12, 422679, Note_on_c, 6, 46, 0
12, 422680, Note_on_c, 6, 46, 44
12, 422719, Note_on_c, 6, 46, 0
12, 422720, Note_on_c, 6, 46, 44
12, 422759, Note_on_c, 6, 46, 0
12, 422760, Note_on_c, 6, 46, 44
12, 422799, Note_on_c, 6, 46, 0
12, 422800, Note_on_c, 6, 46, 44
12, 422839, Note_on_c, 6, 46, 0
12, 422840, Note_on_c, 6, 46, 44
12, 422879, Note_on_c, 6, 46, 0
12, 422880, Note_on_c, 6, 46, 44
12, 422919, Note_on_c, 6, 46, 0
12, 422920, Note_on_c, 6, 46, 44
12, 422959, Note_on_c, 6, 46, 0
12, 422960, Note_on_c, 6, 46, 44
12, 422999, Note_on_c, 6, 46, 0
12, 423000, Note_on_c, 6, 46, 44
12, 423039, Note_on_c, 6, 46, 0
12, 423040, Note_on_c, 6, 46, 44
12, 423079, Note_on_c, 6, 46, 0
12, 423080, Note_on_c, 6, 46, 44
12, 423119, Note_on_c, 6, 46, 0
12, 423120, Note_on_c, 6, 46, 44
12, 423159, Note_on_c, 6, 46, 0
12, 423160, Note_on_c, 6, 46, 44
12, 423199, Note_on_c, 6, 46, 0
12, 423200, Note_on_c, 6, 46, 44
12, 423239, Note_on_c, 6, 46, 0
12, 423240, Note_on_c, 6, 46, 44
12, 423279, Note_on_c, 6, 46, 0
12, 423280, Note_on_c, 6, 46, 44
12, 423319, Note_on_c, 6, 46, 0
12, 423320, Note_on_c, 6, 46, 44
12, 423359, Note_on_c, 6, 46, 0
12, 423360, Note_on_c, 6, 46, 44
12, 423399, Note_on_c, 6, 46, 0
12, 423400, Note_on_c, 6, 46, 44
12, 423439, Note_on_c, 6, 46, 0
12, 423440, Note_on_c, 6, 46, 44
12, 423479, Note_on_c, 6, 46, 0
12, 423480, Note_on_c, 6, 46, 44
12, 423519, Note_on_c, 6, 46, 0
12, 423520, Note_on_c, 6, 46, 44
12, 423559, Note_on_c, 6, 46, 0
12, 423560, Note_on_c, 6, 46, 44
12, 423599, Note_on_c, 6, 46, 0
12, 423600, Note_on_c, 6, 46, 44
12, 423639, Note_on_c, 6, 46, 0
12, 423640, Note_on_c, 6, 46, 44
12, 423679, Note_on_c, 6, 46, 0
12, 423680, Note_on_c, 6, 46, 44
12, 423719, Note_on_c, 6, 46, 0
12, 423720, Note_on_c, 6, 46, 44
12, 423759, Note_on_c, 6, 46, 0
12, 423760, Note_on_c, 6, 46, 44
12, 423799, Note_on_c, 6, 46, 0
12, 423800, Note_on_c, 6, 46, 44
12, 423839, Note_on_c, 6, 46, 0
12, 423840, Note_on_c, 6, 46, 44
12, 423879, Note_on_c, 6, 46, 0
12, 423880, Note_on_c, 6, 46, 44
12, 423919, Note_on_c, 6, 46, 0
12, 423920, Note_on_c, 6, 46, 44
12, 423959, Note_on_c, 6, 46, 0
12, 423960, Note_on_c, 6, 46, 44
12, 423999, Note_on_c, 6, 46, 0
12, 424000, Note_on_c, 6, 46, 44
12, 424039, Note_on_c, 6, 46, 0
12, 424040, Note_on_c, 6, 46, 44
12, 424079, Note_on_c, 6, 46, 0
12, 424080, Note_on_c, 6, 46, 44
12, 424119, Note_on_c, 6, 46, 0
12, 424120, Note_on_c, 6, 46, 44
12, 424159, Note_on_c, 6, 46, 0
12, 424160, Note_on_c, 6, 46, 44
12, 424199, Note_on_c, 6, 46, 0
12, 424200, Note_on_c, 6, 46, 44
12, 424239, Note_on_c, 6, 46, 0
12, 424240, Note_on_c, 6, 46, 44
12, 424279, Note_on_c, 6, 46, 0
12, 424280, Note_on_c, 6, 46, 44
12, 424319, Note_on_c, 6, 46, 0
12, 424320, Note_on_c, 6, 46, 44
12, 424559, Note_on_c, 6, 46, 0
12, 441600, Note_on_c, 6, 46, 44
12, 441639, Note_on_c, 6, 46, 0
12, 441640, Note_on_c, 6, 46, 44
12, 441679, Note_on_c, 6, 46, 0
12, 441680, Note_on_c, 6, 46, 44
12, 441719, Note_on_c, 6, 46, 0
12, 441720, Note_on_c, 6, 46, 44
12, 441759, Note_on_c, 6, 46, 0
12, 441760, Note_on_c, 6, 46, 44
12, 441799, Note_on_c, 6, 46, 0
12, 441800, Note_on_c, 6, 46, 44
12, 441839, Note_on_c, 6, 46, 0
12, 441840, Note_on_c, 6, 46, 44
12, 441879, Note_on_c, 6, 46, 0
12, 441880, Note_on_c, 6, 46, 44
12, 441919, Note_on_c, 6, 46, 0
12, 441920, Note_on_c, 6, 46, 44
12, 441959, Note_on_c, 6, 46, 0
12, 441960, Note_on_c, 6, 46, 44
12, 441999, Note_on_c, 6, 46, 0
12, 442000, Note_on_c, 6, 46, 44
12, 442039, Note_on_c, 6, 46, 0
12, 442040, Note_on_c, 6, 46, 44
12, 442079, Note_on_c, 6, 46, 0
12, 442080, Note_on_c, 6, 46, 44
12, 442119, Note_on_c, 6, 46, 0
12, 442120, Note_on_c, 6, 46, 44
12, 442159, Note_on_c, 6, 46, 0
12, 442160, Note_on_c, 6, 46, 44
12, 442199, Note_on_c, 6, 46, 0
12, 442200, Note_on_c, 6, 46, 44
12, 442239, Note_on_c, 6, 46, 0
12, 442240, Note_on_c, 6, 46, 44
12, 442279, Note_on_c, 6, 46, 0
12, 442280, Note_on_c, 6, 46, 44
12, 442319, Note_on_c, 6, 46, 0
12, 442320, Note_on_c, 6, 46, 44
12, 442359, Note_on_c, 6, 46, 0
12, 442360, Note_on_c, 6, 46, 44
12, 442399, Note_on_c, 6, 46, 0
12, 442400, Note_on_c, 6, 46, 44
12, 442439, Note_on_c, 6, 46, 0
12, 442440, Note_on_c, 6, 46, 44
12, 442479, Note_on_c, 6, 46, 0
12, 442480, Note_on_c, 6, 46, 44
12, 442519, Note_on_c, 6, 46, 0
12, 442520, Note_on_c, 6, 46, 44
12, 442559, Note_on_c, 6, 46, 0
12, 442560, Note_on_c, 6, 46, 44
12, 442599, Note_on_c, 6, 46, 0
12, 442600, Note_on_c, 6, 46, 44
12, 442639, Note_on_c, 6, 46, 0
12, 442640, Note_on_c, 6, 46, 44
12, 442679, Note_on_c, 6, 46, 0
12, 442680, Note_on_c, 6, 46, 44
12, 442719, Note_on_c, 6, 46, 0
12, 442720, Note_on_c, 6, 46, 44
12, 442759, Note_on_c, 6, 46, 0
12, 442760, Note_on_c, 6, 46, 44
12, 442799, Note_on_c, 6, 46, 0
12, 442800, Note_on_c, 6, 46, 44
12, 442839, Note_on_c, 6, 46, 0
12, 442840, Note_on_c, 6, 46, 44
12, 442879, Note_on_c, 6, 46, 0
12, 442880, Note_on_c, 6, 46, 44
12, 442919, Note_on_c, 6, 46, 0
12, 442920, Note_on_c, 6, 46, 44
12, 442959, Note_on_c, 6, 46, 0
12, 442960, Note_on_c, 6, 46, 44
12, 442999, Note_on_c, 6, 46, 0
12, 443000, Note_on_c, 6, 46, 44
12, 443039, Note_on_c, 6, 46, 0
12, 443040, Note_on_c, 6, 46, 44
12, 443079, Note_on_c, 6, 46, 0
12, 443080, Note_on_c, 6, 46, 44
12, 443119, Note_on_c, 6, 46, 0
12, 443120, Note_on_c, 6, 46, 44
12, 443159, Note_on_c, 6, 46, 0
12, 443160, Note_on_c, 6, 46, 44
12, 443199, Note_on_c, 6, 46, 0
12, 443200, Note_on_c, 6, 46, 44
12, 443239, Note_on_c, 6, 46, 0
12, 443240, Note_on_c, 6, 46, 44
12, 443279, Note_on_c, 6, 46, 0
12, 443280, Note_on_c, 6, 46, 44
12, 443319, Note_on_c, 6, 46, 0
12, 443320, Note_on_c, 6, 46, 44
12, 443359, Note_on_c, 6, 46, 0
12, 443360, Note_on_c, 6, 46, 44
12, 443399, Note_on_c, 6, 46, 0
12, 443400, Note_on_c, 6, 46, 44
12, 443439, Note_on_c, 6, 46, 0
12, 443440, Note_on_c, 6, 46, 44
12, 443479, Note_on_c, 6, 46, 0
12, 443480, Note_on_c, 6, 46, 44
12, 443519, Note_on_c, 6, 46, 0
12, 443520, Note_on_c, 6, 46, 44
12, 443759, Note_on_c, 6, 46, 0
12, 445440, Note_on_c, 6, 46, 44
12, 445479, Note_on_c, 6, 46, 0
12, 445480, Note_on_c, 6, 46, 44
12, 445519, Note_on_c, 6, 46, 0
12, 445520, Note_on_c, 6, 46, 44
12, 445559, Note_on_c, 6, 46, 0
12, 445560, Note_on_c, 6, 46, 44
12, 445599, Note_on_c, 6, 46, 0
12, 445600, Note_on_c, 6, 46, 44
12, 445639, Note_on_c, 6, 46, 0
12, 445640, Note_on_c, 6, 46, 44
12, 445679, Note_on_c, 6, 46, 0
12, 445680, Note_on_c, 6, 46, 44
12, 445719, Note_on_c, 6, 46, 0
12, 445720, Note_on_c, 6, 46, 44
12, 445759, Note_on_c, 6, 46, 0
12, 445760, Note_on_c, 6, 46, 44
12, 445799, Note_on_c, 6, 46, 0
12, 445800, Note_on_c, 6, 46, 44
12, 445839, Note_on_c, 6, 46, 0
12, 445840, Note_on_c, 6, 46, 44
12, 445879, Note_on_c, 6, 46, 0
12, 445880, Note_on_c, 6, 46, 44
12, 445919, Note_on_c, 6, 46, 0
12, 445920, Note_on_c, 6, 46, 44
12, 445959, Note_on_c, 6, 46, 0
12, 445960, Note_on_c, 6, 46, 44
12, 445999, Note_on_c, 6, 46, 0
12, 446000, Note_on_c, 6, 46, 44
12, 446039, Note_on_c, 6, 46, 0
12, 446040, Note_on_c, 6, 46, 44
12, 446079, Note_on_c, 6, 46, 0
12, 446080, Note_on_c, 6, 46, 44
12, 446119, Note_on_c, 6, 46, 0
12, 446120, Note_on_c, 6, 46, 44
12, 446159, Note_on_c, 6, 46, 0
12, 446160, Note_on_c, 6, 46, 44
12, 446199, Note_on_c, 6, 46, 0
12, 446200, Note_on_c, 6, 46, 44
12, 446239, Note_on_c, 6, 46, 0
12, 446240, Note_on_c, 6, 46, 44
12, 446279, Note_on_c, 6, 46, 0
12, 446280, Note_on_c, 6, 46, 44
12, 446319, Note_on_c, 6, 46, 0
12, 446320, Note_on_c, 6, 46, 44
12, 446359, Note_on_c, 6, 46, 0
12, 446360, Note_on_c, 6, 46, 44
12, 446399, Note_on_c, 6, 46, 0
12, 446400, Note_on_c, 6, 46, 44
12, 446439, Note_on_c, 6, 46, 0
12, 446440, Note_on_c, 6, 46, 44
12, 446479, Note_on_c, 6, 46, 0
12, 446480, Note_on_c, 6, 46, 44
12, 446519, Note_on_c, 6, 46, 0
12, 446520, Note_on_c, 6, 46, 44
12, 446559, Note_on_c, 6, 46, 0
12, 446560, Note_on_c, 6, 46, 44
12, 446599, Note_on_c, 6, 46, 0
12, 446600, Note_on_c, 6, 46, 44
12, 446639, Note_on_c, 6, 46, 0
12, 446640, Note_on_c, 6, 46, 44
12, 446679, Note_on_c, 6, 46, 0
12, 446680, Note_on_c, 6, 46, 44
12, 446719, Note_on_c, 6, 46, 0
12, 446720, Note_on_c, 6, 46, 44
12, 446759, Note_on_c, 6, 46, 0
12, 446760, Note_on_c, 6, 46, 44
12, 446799, Note_on_c, 6, 46, 0
12, 446800, Note_on_c, 6, 46, 44
12, 446839, Note_on_c, 6, 46, 0
12, 446840, Note_on_c, 6, 46, 44
12, 446879, Note_on_c, 6, 46, 0
12, 446880, Note_on_c, 6, 46, 44
12, 446919, Note_on_c, 6, 46, 0
12, 446920, Note_on_c, 6, 46, 44
12, 446959, Note_on_c, 6, 46, 0
12, 446960, Note_on_c, 6, 46, 44
12, 446999, Note_on_c, 6, 46, 0
12, 447000, Note_on_c, 6, 46, 44
12, 447039, Note_on_c, 6, 46, 0
12, 447040, Note_on_c, 6, 46, 44
12, 447079, Note_on_c, 6, 46, 0
12, 447080, Note_on_c, 6, 46, 44
12, 447119, Note_on_c, 6, 46, 0
12, 447120, Note_on_c, 6, 46, 44
12, 447159, Note_on_c, 6, 46, 0
12, 447160, Note_on_c, 6, 46, 44
12, 447199, Note_on_c, 6, 46, 0
12, 447200, Note_on_c, 6, 46, 44
12, 447239, Note_on_c, 6, 46, 0
12, 447240, Note_on_c, 6, 46, 44
12, 447279, Note_on_c, 6, 46, 0
12, 447280, Note_on_c, 6, 46, 44
12, 447319, Note_on_c, 6, 46, 0
12, 447320, Note_on_c, 6, 46, 44
12, 447359, Note_on_c, 6, 46, 0
12, 447360, Note_on_c, 6, 46, 44
12, 447399, Note_on_c, 6, 46, 0
12, 447400, Note_on_c, 6, 46, 44
12, 447439, Note_on_c, 6, 46, 0
12, 447440, Note_on_c, 6, 46, 44
12, 447479, Note_on_c, 6, 46, 0
12, 447480, Note_on_c, 6, 46, 44
12, 447519, Note_on_c, 6, 46, 0
12, 447520, Note_on_c, 6, 46, 44
12, 447559, Note_on_c, 6, 46, 0
12, 447560, Note_on_c, 6, 46, 44
12, 447599, Note_on_c, 6, 46, 0
12, 447600, Note_on_c, 6, 46, 44
12, 447639, Note_on_c, 6, 46, 0
12, 447640, Note_on_c, 6, 46, 44
12, 447679, Note_on_c, 6, 46, 0
12, 447680, Note_on_c, 6, 46, 44
12, 447719, Note_on_c, 6, 46, 0
12, 447720, Note_on_c, 6, 46, 44
12, 447759, Note_on_c, 6, 46, 0
12, 447760, Note_on_c, 6, 46, 44
12, 447799, Note_on_c, 6, 46, 0
12, 447800, Note_on_c, 6, 46, 44
12, 447839, Note_on_c, 6, 46, 0
12, 447840, Note_on_c, 6, 46, 44
12, 447879, Note_on_c, 6, 46, 0
12, 447880, Note_on_c, 6, 46, 44
12, 447919, Note_on_c, 6, 46, 0
12, 447920, Note_on_c, 6, 46, 44
12, 447959, Note_on_c, 6, 46, 0
12, 447960, Note_on_c, 6, 46, 44
12, 447999, Note_on_c, 6, 46, 0
12, 448000, Note_on_c, 6, 46, 44
12, 448039, Note_on_c, 6, 46, 0
12, 448040, Note_on_c, 6, 46, 44
12, 448079, Note_on_c, 6, 46, 0
12, 448080, Note_on_c, 6, 46, 44
12, 448119, Note_on_c, 6, 46, 0
12, 448120, Note_on_c, 6, 46, 44
12, 448159, Note_on_c, 6, 46, 0
12, 448160, Note_on_c, 6, 46, 44
12, 448199, Note_on_c, 6, 46, 0
12, 448200, Note_on_c, 6, 46, 44
12, 448239, Note_on_c, 6, 46, 0
12, 448240, Note_on_c, 6, 46, 44
12, 448279, Note_on_c, 6, 46, 0
12, 448280, Note_on_c, 6, 46, 44
12, 448319, Note_on_c, 6, 46, 0
12, 448320, Note_on_c, 6, 46, 44
12, 448359, Note_on_c, 6, 46, 0
12, 448360, Note_on_c, 6, 46, 44
12, 448399, Note_on_c, 6, 46, 0
12, 448400, Note_on_c, 6, 46, 44
12, 448439, Note_on_c, 6, 46, 0
12, 448440, Note_on_c, 6, 46, 44
12, 448479, Note_on_c, 6, 46, 0
12, 448480, Note_on_c, 6, 46, 44
12, 448519, Note_on_c, 6, 46, 0
12, 448520, Note_on_c, 6, 46, 44
12, 448559, Note_on_c, 6, 46, 0
12, 448560, Note_on_c, 6, 46, 44
12, 448599, Note_on_c, 6, 46, 0
12, 448600, Note_on_c, 6, 46, 44
12, 448639, Note_on_c, 6, 46, 0
12, 448640, Note_on_c, 6, 46, 44
12, 448679, Note_on_c, 6, 46, 0
12, 448680, Note_on_c, 6, 46, 44
12, 448719, Note_on_c, 6, 46, 0
12, 448720, Note_on_c, 6, 46, 44
12, 448759, Note_on_c, 6, 46, 0
12, 448760, Note_on_c, 6, 46, 44
12, 448799, Note_on_c, 6, 46, 0
12, 448800, Note_on_c, 6, 46, 44
12, 448839, Note_on_c, 6, 46, 0
12, 448840, Note_on_c, 6, 46, 44
12, 448879, Note_on_c, 6, 46, 0
12, 448880, Note_on_c, 6, 46, 44
12, 448919, Note_on_c, 6, 46, 0
12, 448920, Note_on_c, 6, 46, 44
12, 448959, Note_on_c, 6, 46, 0
12, 448960, Note_on_c, 6, 46, 44
12, 448999, Note_on_c, 6, 46, 0
12, 449000, Note_on_c, 6, 46, 44
12, 449039, Note_on_c, 6, 46, 0
12, 449040, Note_on_c, 6, 46, 44
12, 449079, Note_on_c, 6, 46, 0
12, 449080, Note_on_c, 6, 46, 44
12, 449119, Note_on_c, 6, 46, 0
12, 449120, Note_on_c, 6, 46, 44
12, 449159, Note_on_c, 6, 46, 0
12, 449160, Note_on_c, 6, 46, 44
12, 449199, Note_on_c, 6, 46, 0
12, 449200, Note_on_c, 6, 46, 44
12, 449239, Note_on_c, 6, 46, 0
12, 449240, Note_on_c, 6, 46, 44
12, 449279, Note_on_c, 6, 46, 0
12, 449280, Note_on_c, 6, 46, 44
12, 449319, Note_on_c, 6, 46, 0
12, 449320, Note_on_c, 6, 46, 44
12, 449359, Note_on_c, 6, 46, 0
12, 449360, Note_on_c, 6, 46, 44
12, 449399, Note_on_c, 6, 46, 0
12, 449400, Note_on_c, 6, 46, 44
12, 449439, Note_on_c, 6, 46, 0
12, 449440, Note_on_c, 6, 46, 44
12, 449479, Note_on_c, 6, 46, 0
12, 449480, Note_on_c, 6, 46, 44
12, 449519, Note_on_c, 6, 46, 0
12, 449520, Note_on_c, 6, 46, 44
12, 449559, Note_on_c, 6, 46, 0
12, 449560, Note_on_c, 6, 46, 44
12, 449599, Note_on_c, 6, 46, 0
12, 449600, Note_on_c, 6, 46, 44
12, 449639, Note_on_c, 6, 46, 0
12, 449640, Note_on_c, 6, 46, 44
12, 449679, Note_on_c, 6, 46, 0
12, 449680, Note_on_c, 6, 46, 44
12, 449719, Note_on_c, 6, 46, 0
12, 449720, Note_on_c, 6, 46, 44
12, 449759, Note_on_c, 6, 46, 0
12, 449760, Note_on_c, 6, 46, 44
12, 449799, Note_on_c, 6, 46, 0
12, 449800, Note_on_c, 6, 46, 44
12, 449839, Note_on_c, 6, 46, 0
12, 449840, Note_on_c, 6, 46, 44
12, 449879, Note_on_c, 6, 46, 0
12, 449880, Note_on_c, 6, 46, 44
12, 449919, Note_on_c, 6, 46, 0
12, 449920, Note_on_c, 6, 46, 44
12, 449959, Note_on_c, 6, 46, 0
12, 449960, Note_on_c, 6, 46, 44
12, 449999, Note_on_c, 6, 46, 0
12, 450000, Note_on_c, 6, 46, 44
12, 450039, Note_on_c, 6, 46, 0
12, 450040, Note_on_c, 6, 46, 44
12, 450079, Note_on_c, 6, 46, 0
12, 450080, Note_on_c, 6, 46, 44
12, 450119, Note_on_c, 6, 46, 0
12, 450120, Note_on_c, 6, 46, 44
12, 450159, Note_on_c, 6, 46, 0
12, 450160, Note_on_c, 6, 46, 44
12, 450199, Note_on_c, 6, 46, 0
12, 450200, Note_on_c, 6, 46, 44
12, 450239, Note_on_c, 6, 46, 0
12, 450240, Note_on_c, 6, 46, 44
12, 450279, Note_on_c, 6, 46, 0
12, 450280, Note_on_c, 6, 46, 44
12, 450319, Note_on_c, 6, 46, 0
12, 450320, Note_on_c, 6, 46, 44
12, 450359, Note_on_c, 6, 46, 0
12, 450360, Note_on_c, 6, 46, 44
12, 450399, Note_on_c, 6, 46, 0
12, 450400, Note_on_c, 6, 46, 44
12, 450439, Note_on_c, 6, 46, 0
12, 450440, Note_on_c, 6, 46, 44
12, 450479, Note_on_c, 6, 46, 0
12, 450480, Note_on_c, 6, 46, 44
12, 450519, Note_on_c, 6, 46, 0
12, 450520, Note_on_c, 6, 46, 44
12, 450559, Note_on_c, 6, 46, 0
12, 450560, Note_on_c, 6, 46, 44
12, 450599, Note_on_c, 6, 46, 0
12, 450600, Note_on_c, 6, 46, 44
12, 450639, Note_on_c, 6, 46, 0
12, 450640, Note_on_c, 6, 46, 44
12, 450679, Note_on_c, 6, 46, 0
12, 450680, Note_on_c, 6, 46, 44
12, 450719, Note_on_c, 6, 46, 0
12, 450720, Note_on_c, 6, 46, 44
12, 450759, Note_on_c, 6, 46, 0
12, 450760, Note_on_c, 6, 46, 44
12, 450799, Note_on_c, 6, 46, 0
12, 450800, Note_on_c, 6, 46, 44
12, 450839, Note_on_c, 6, 46, 0
12, 450840, Note_on_c, 6, 46, 44
12, 450879, Note_on_c, 6, 46, 0
12, 450880, Note_on_c, 6, 46, 44
12, 450919, Note_on_c, 6, 46, 0
12, 450920, Note_on_c, 6, 46, 44
12, 450959, Note_on_c, 6, 46, 0
12, 450960, Note_on_c, 6, 46, 44
12, 450999, Note_on_c, 6, 46, 0
12, 451000, Note_on_c, 6, 46, 44
12, 451039, Note_on_c, 6, 46, 0
12, 451040, Note_on_c, 6, 46, 44
12, 451079, Note_on_c, 6, 46, 0
12, 451080, Note_on_c, 6, 46, 44
12, 451119, Note_on_c, 6, 46, 0
12, 451120, Note_on_c, 6, 46, 44
12, 451159, Note_on_c, 6, 46, 0
12, 451160, Note_on_c, 6, 46, 44
12, 451199, Note_on_c, 6, 46, 0
12, 451200, Note_on_c, 6, 46, 44
12, 451239, Note_on_c, 6, 46, 0
12, 451240, Note_on_c, 6, 46, 44
12, 451279, Note_on_c, 6, 46, 0
12, 451280, Note_on_c, 6, 46, 44
12, 451319, Note_on_c, 6, 46, 0
12, 451320, Note_on_c, 6, 46, 44
12, 451359, Note_on_c, 6, 46, 0
12, 451360, Note_on_c, 6, 46, 44
12, 451399, Note_on_c, 6, 46, 0
12, 451400, Note_on_c, 6, 46, 44
12, 451439, Note_on_c, 6, 46, 0
12, 451440, Note_on_c, 6, 46, 44
12, 451479, Note_on_c, 6, 46, 0
12, 451480, Note_on_c, 6, 46, 44
12, 451519, Note_on_c, 6, 46, 0
12, 451520, Note_on_c, 6, 46, 44
12, 451559, Note_on_c, 6, 46, 0
12, 451560, Note_on_c, 6, 46, 44
12, 451599, Note_on_c, 6, 46, 0
12, 451600, Note_on_c, 6, 46, 44
12, 451639, Note_on_c, 6, 46, 0
12, 451640, Note_on_c, 6, 46, 44
12, 451679, Note_on_c, 6, 46, 0
12, 451680, Note_on_c, 6, 46, 44
12, 451719, Note_on_c, 6, 46, 0
12, 451720, Note_on_c, 6, 46, 44
12, 451759, Note_on_c, 6, 46, 0
12, 451760, Note_on_c, 6, 46, 44
12, 451799, Note_on_c, 6, 46, 0
12, 451800, Note_on_c, 6, 46, 44
12, 451839, Note_on_c, 6, 46, 0
12, 451840, Note_on_c, 6, 46, 44
12, 451879, Note_on_c, 6, 46, 0
12, 451880, Note_on_c, 6, 46, 44
12, 451919, Note_on_c, 6, 46, 0
12, 451920, Note_on_c, 6, 46, 44
12, 451959, Note_on_c, 6, 46, 0
12, 451960, Note_on_c, 6, 46, 44
12, 451999, Note_on_c, 6, 46, 0
12, 452000, Note_on_c, 6, 46, 44
12, 452039, Note_on_c, 6, 46, 0
12, 452040, Note_on_c, 6, 46, 44
12, 452079, Note_on_c, 6, 46, 0
12, 452080, Note_on_c, 6, 46, 44
12, 452119, Note_on_c, 6, 46, 0
12, 452120, Note_on_c, 6, 46, 44
12, 452159, Note_on_c, 6, 46, 0
12, 452160, Note_on_c, 6, 46, 44
12, 452199, Note_on_c, 6, 46, 0
12, 452200, Note_on_c, 6, 46, 44
12, 452239, Note_on_c, 6, 46, 0
12, 452240, Note_on_c, 6, 46, 44
12, 452279, Note_on_c, 6, 46, 0
12, 452280, Note_on_c, 6, 46, 44
12, 452319, Note_on_c, 6, 46, 0
12, 452320, Note_on_c, 6, 46, 44
12, 452359, Note_on_c, 6, 46, 0
12, 452360, Note_on_c, 6, 46, 44
12, 452399, Note_on_c, 6, 46, 0
12, 452400, Note_on_c, 6, 46, 44
12, 452439, Note_on_c, 6, 46, 0
12, 452440, Note_on_c, 6, 46, 44
12, 452479, Note_on_c, 6, 46, 0
12, 452480, Note_on_c, 6, 46, 44
12, 452519, Note_on_c, 6, 46, 0
12, 452520, Note_on_c, 6, 46, 44
12, 452559, Note_on_c, 6, 46, 0
12, 452560, Note_on_c, 6, 46, 44
12, 452599, Note_on_c, 6, 46, 0
12, 452600, Note_on_c, 6, 46, 44
12, 452639, Note_on_c, 6, 46, 0
12, 452640, Note_on_c, 6, 46, 44
12, 452679, Note_on_c, 6, 46, 0
12, 452680, Note_on_c, 6, 46, 44
12, 452719, Note_on_c, 6, 46, 0
12, 452720, Note_on_c, 6, 46, 44
12, 452759, Note_on_c, 6, 46, 0
12, 452760, Note_on_c, 6, 46, 44
12, 452799, Note_on_c, 6, 46, 0
12, 452800, Note_on_c, 6, 46, 44
12, 452839, Note_on_c, 6, 46, 0
12, 452840, Note_on_c, 6, 46, 44
12, 452879, Note_on_c, 6, 46, 0
12, 452880, Note_on_c, 6, 46, 44
12, 452919, Note_on_c, 6, 46, 0
12, 452920, Note_on_c, 6, 46, 44
12, 452959, Note_on_c, 6, 46, 0
12, 452960, Note_on_c, 6, 46, 44
12, 452999, Note_on_c, 6, 46, 0
12, 453000, Note_on_c, 6, 46, 44
12, 453039, Note_on_c, 6, 46, 0
12, 453040, Note_on_c, 6, 46, 44
12, 453079, Note_on_c, 6, 46, 0
12, 453080, Note_on_c, 6, 46, 44
12, 453119, Note_on_c, 6, 46, 0
12, 453120, Note_on_c, 6, 46, 44
12, 453159, Note_on_c, 6, 46, 0
12, 453160, Note_on_c, 6, 46, 44
12, 453199, Note_on_c, 6, 46, 0
12, 453200, Note_on_c, 6, 46, 44
12, 453239, Note_on_c, 6, 46, 0
12, 453240, Note_on_c, 6, 46, 44
12, 453279, Note_on_c, 6, 46, 0
12, 453280, Note_on_c, 6, 46, 44
12, 453319, Note_on_c, 6, 46, 0
12, 453320, Note_on_c, 6, 46, 44
12, 453359, Note_on_c, 6, 46, 0
12, 453360, Note_on_c, 6, 46, 44
12, 453399, Note_on_c, 6, 46, 0
12, 453400, Note_on_c, 6, 46, 44
12, 453439, Note_on_c, 6, 46, 0
12, 453440, Note_on_c, 6, 46, 44
12, 453479, Note_on_c, 6, 46, 0
12, 453480, Note_on_c, 6, 46, 44
12, 453519, Note_on_c, 6, 46, 0
12, 453520, Note_on_c, 6, 46, 44
12, 453559, Note_on_c, 6, 46, 0
12, 453560, Note_on_c, 6, 46, 44
12, 453599, Note_on_c, 6, 46, 0
12, 453600, Note_on_c, 6, 46, 44
12, 453639, Note_on_c, 6, 46, 0
12, 453640, Note_on_c, 6, 46, 44
12, 453679, Note_on_c, 6, 46, 0
12, 453680, Note_on_c, 6, 46, 44
12, 453719, Note_on_c, 6, 46, 0
12, 453720, Note_on_c, 6, 46, 44
12, 453759, Note_on_c, 6, 46, 0
12, 453760, Note_on_c, 6, 46, 44
12, 453799, Note_on_c, 6, 46, 0
12, 453800, Note_on_c, 6, 46, 44
12, 453839, Note_on_c, 6, 46, 0
12, 453840, Note_on_c, 6, 46, 44
12, 453879, Note_on_c, 6, 46, 0
12, 453880, Note_on_c, 6, 46, 44
12, 453919, Note_on_c, 6, 46, 0
12, 453920, Note_on_c, 6, 46, 44
12, 453959, Note_on_c, 6, 46, 0
12, 453960, Note_on_c, 6, 46, 44
12, 453999, Note_on_c, 6, 46, 0
12, 454000, Note_on_c, 6, 46, 44
12, 454039, Note_on_c, 6, 46, 0
12, 454040, Note_on_c, 6, 46, 44
12, 454079, Note_on_c, 6, 46, 0
12, 454080, Note_on_c, 6, 46, 44
12, 454119, Note_on_c, 6, 46, 0
12, 454120, Note_on_c, 6, 46, 44
12, 454159, Note_on_c, 6, 46, 0
12, 454160, Note_on_c, 6, 46, 44
12, 454199, Note_on_c, 6, 46, 0
12, 454200, Note_on_c, 6, 46, 44
12, 454239, Note_on_c, 6, 46, 0
12, 454240, Note_on_c, 6, 46, 44
12, 454279, Note_on_c, 6, 46, 0
12, 454280, Note_on_c, 6, 46, 44
12, 454319, Note_on_c, 6, 46, 0
12, 454320, Note_on_c, 6, 46, 44
12, 454359, Note_on_c, 6, 46, 0
12, 454360, Note_on_c, 6, 46, 44
12, 454399, Note_on_c, 6, 46, 0
12, 454400, Note_on_c, 6, 46, 44
12, 454439, Note_on_c, 6, 46, 0
12, 454440, Note_on_c, 6, 46, 44
12, 454479, Note_on_c, 6, 46, 0
12, 454480, Note_on_c, 6, 46, 44
12, 454519, Note_on_c, 6, 46, 0
12, 454520, Note_on_c, 6, 46, 44
12, 454559, Note_on_c, 6, 46, 0
12, 454560, Note_on_c, 6, 46, 44
12, 454599, Note_on_c, 6, 46, 0
12, 454600, Note_on_c, 6, 46, 44
12, 454639, Note_on_c, 6, 46, 0
12, 454640, Note_on_c, 6, 46, 44
12, 454679, Note_on_c, 6, 46, 0
12, 454680, Note_on_c, 6, 46, 44
12, 454719, Note_on_c, 6, 46, 0
12, 454720, Note_on_c, 6, 46, 44
12, 454759, Note_on_c, 6, 46, 0
12, 454760, Note_on_c, 6, 46, 44
12, 454799, Note_on_c, 6, 46, 0
12, 454800, Note_on_c, 6, 46, 44
12, 454839, Note_on_c, 6, 46, 0
12, 454840, Note_on_c, 6, 46, 44
12, 454879, Note_on_c, 6, 46, 0
12, 454880, Note_on_c, 6, 46, 44
12, 454919, Note_on_c, 6, 46, 0
12, 454920, Note_on_c, 6, 46, 44
12, 454959, Note_on_c, 6, 46, 0
12, 454960, Note_on_c, 6, 46, 44
12, 454999, Note_on_c, 6, 46, 0
12, 455000, Note_on_c, 6, 46, 44
12, 455039, Note_on_c, 6, 46, 0
12, 455040, Note_on_c, 6, 46, 44
12, 455079, Note_on_c, 6, 46, 0
12, 455080, Note_on_c, 6, 46, 44
12, 455119, Note_on_c, 6, 46, 0
12, 455120, Note_on_c, 6, 46, 44
12, 455159, Note_on_c, 6, 46, 0
12, 455160, Note_on_c, 6, 46, 44
12, 455199, Note_on_c, 6, 46, 0
12, 455200, Note_on_c, 6, 46, 44
12, 455239, Note_on_c, 6, 46, 0
12, 455240, Note_on_c, 6, 46, 44
12, 455279, Note_on_c, 6, 46, 0
12, 455280, Note_on_c, 6, 46, 44
12, 455319, Note_on_c, 6, 46, 0
12, 455320, Note_on_c, 6, 46, 44
12, 455359, Note_on_c, 6, 46, 0
12, 455360, Note_on_c, 6, 46, 44
12, 455399, Note_on_c, 6, 46, 0
12, 455400, Note_on_c, 6, 46, 44
12, 455439, Note_on_c, 6, 46, 0
12, 455440, Note_on_c, 6, 46, 44
12, 455479, Note_on_c, 6, 46, 0
12, 455480, Note_on_c, 6, 46, 44
12, 455519, Note_on_c, 6, 46, 0
12, 455520, Note_on_c, 6, 46, 44
12, 455559, Note_on_c, 6, 46, 0
12, 455560, Note_on_c, 6, 46, 44
12, 455599, Note_on_c, 6, 46, 0
12, 455600, Note_on_c, 6, 46, 44
12, 455639, Note_on_c, 6, 46, 0
12, 455640, Note_on_c, 6, 46, 44
12, 455679, Note_on_c, 6, 46, 0
12, 455680, Note_on_c, 6, 46, 44
12, 455719, Note_on_c, 6, 46, 0
12, 455720, Note_on_c, 6, 46, 44
12, 455759, Note_on_c, 6, 46, 0
12, 455760, Note_on_c, 6, 46, 44
12, 455799, Note_on_c, 6, 46, 0
12, 455800, Note_on_c, 6, 46, 44
12, 455839, Note_on_c, 6, 46, 0
12, 455840, Note_on_c, 6, 46, 44
12, 455879, Note_on_c, 6, 46, 0
12, 455880, Note_on_c, 6, 46, 44
12, 455919, Note_on_c, 6, 46, 0
12, 455920, Note_on_c, 6, 46, 44
12, 455959, Note_on_c, 6, 46, 0
12, 455960, Note_on_c, 6, 46, 44
12, 455999, Note_on_c, 6, 46, 0
12, 456000, Note_on_c, 6, 46, 44
12, 456039, Note_on_c, 6, 46, 0
12, 456040, Note_on_c, 6, 46, 44
12, 456079, Note_on_c, 6, 46, 0
12, 456080, Note_on_c, 6, 46, 44
12, 456119, Note_on_c, 6, 46, 0
12, 456120, Note_on_c, 6, 46, 44
12, 456159, Note_on_c, 6, 46, 0
12, 456160, Note_on_c, 6, 46, 44
12, 456199, Note_on_c, 6, 46, 0
12, 456200, Note_on_c, 6, 46, 44
12, 456239, Note_on_c, 6, 46, 0
12, 456240, Note_on_c, 6, 46, 44
12, 456279, Note_on_c, 6, 46, 0
12, 456280, Note_on_c, 6, 46, 44
12, 456319, Note_on_c, 6, 46, 0
12, 456320, Note_on_c, 6, 46, 44
12, 456359, Note_on_c, 6, 46, 0
12, 456360, Note_on_c, 6, 46, 44
12, 456399, Note_on_c, 6, 46, 0
12, 456400, Note_on_c, 6, 46, 44
12, 456439, Note_on_c, 6, 46, 0
12, 456440, Note_on_c, 6, 46, 44
12, 456479, Note_on_c, 6, 46, 0
12, 456480, Note_on_c, 6, 46, 44
12, 456519, Note_on_c, 6, 46, 0
12, 456520, Note_on_c, 6, 46, 44
12, 456559, Note_on_c, 6, 46, 0
12, 456560, Note_on_c, 6, 46, 44
12, 456599, Note_on_c, 6, 46, 0
12, 456600, Note_on_c, 6, 46, 44
12, 456639, Note_on_c, 6, 46, 0
12, 456640, Note_on_c, 6, 46, 44
12, 456679, Note_on_c, 6, 46, 0
12, 456680, Note_on_c, 6, 46, 44
12, 456719, Note_on_c, 6, 46, 0
12, 456720, Note_on_c, 6, 46, 44
12, 456759, Note_on_c, 6, 46, 0
12, 456760, Note_on_c, 6, 46, 44
12, 456799, Note_on_c, 6, 46, 0
12, 456800, Note_on_c, 6, 46, 44
12, 456839, Note_on_c, 6, 46, 0
12, 456840, Note_on_c, 6, 46, 44
12, 456879, Note_on_c, 6, 46, 0
12, 456880, Note_on_c, 6, 46, 44
12, 456919, Note_on_c, 6, 46, 0
12, 456920, Note_on_c, 6, 46, 44
12, 456959, Note_on_c, 6, 46, 0
12, 456960, Note_on_c, 6, 46, 44
12, 456999, Note_on_c, 6, 46, 0
12, 457000, Note_on_c, 6, 46, 44
12, 457039, Note_on_c, 6, 46, 0
12, 457040, Note_on_c, 6, 46, 44
12, 457079, Note_on_c, 6, 46, 0
12, 457080, Note_on_c, 6, 46, 44
12, 457119, Note_on_c, 6, 46, 0
12, 457120, Note_on_c, 6, 46, 44
12, 457159, Note_on_c, 6, 46, 0
12, 457160, Note_on_c, 6, 46, 44
12, 457199, Note_on_c, 6, 46, 0
12, 457200, Note_on_c, 6, 46, 44
12, 457239, Note_on_c, 6, 46, 0
12, 457240, Note_on_c, 6, 46, 44
12, 457279, Note_on_c, 6, 46, 0
12, 457280, Note_on_c, 6, 46, 44
12, 457319, Note_on_c, 6, 46, 0
12, 457320, Note_on_c, 6, 46, 44
12, 457359, Note_on_c, 6, 46, 0
12, 457360, Note_on_c, 6, 46, 44
12, 457399, Note_on_c, 6, 46, 0
12, 457400, Note_on_c, 6, 46, 44
12, 457439, Note_on_c, 6, 46, 0
12, 457440, Note_on_c, 6, 46, 44
12, 457479, Note_on_c, 6, 46, 0
12, 457480, Note_on_c, 6, 46, 44
12, 457519, Note_on_c, 6, 46, 0
12, 457520, Note_on_c, 6, 46, 44
12, 457559, Note_on_c, 6, 46, 0
12, 457560, Note_on_c, 6, 46, 44
12, 457599, Note_on_c, 6, 46, 0
12, 457600, Note_on_c, 6, 46, 44
12, 457639, Note_on_c, 6, 46, 0
12, 457640, Note_on_c, 6, 46, 44
12, 457679, Note_on_c, 6, 46, 0
12, 457680, Note_on_c, 6, 46, 44
12, 457719, Note_on_c, 6, 46, 0
12, 457720, Note_on_c, 6, 46, 44
12, 457759, Note_on_c, 6, 46, 0
12, 457760, Note_on_c, 6, 46, 44
12, 457799, Note_on_c, 6, 46, 0
12, 457800, Note_on_c, 6, 46, 44
12, 457839, Note_on_c, 6, 46, 0
12, 457840, Note_on_c, 6, 46, 44
12, 457879, Note_on_c, 6, 46, 0
12, 457880, Note_on_c, 6, 46, 44
12, 457919, Note_on_c, 6, 46, 0
12, 457920, Note_on_c, 6, 46, 44
12, 457959, Note_on_c, 6, 46, 0
12, 457960, Note_on_c, 6, 46, 44
12, 457999, Note_on_c, 6, 46, 0
12, 458000, Note_on_c, 6, 46, 44
12, 458039, Note_on_c, 6, 46, 0
12, 458040, Note_on_c, 6, 46, 44
12, 458079, Note_on_c, 6, 46, 0
12, 458080, Note_on_c, 6, 46, 44
12, 458119, Note_on_c, 6, 46, 0
12, 458120, Note_on_c, 6, 46, 44
12, 458159, Note_on_c, 6, 46, 0
12, 458160, Note_on_c, 6, 46, 44
12, 458199, Note_on_c, 6, 46, 0
12, 458200, Note_on_c, 6, 46, 44
12, 458239, Note_on_c, 6, 46, 0
12, 458240, Note_on_c, 6, 46, 44
12, 458279, Note_on_c, 6, 46, 0
12, 458280, Note_on_c, 6, 46, 44
12, 458319, Note_on_c, 6, 46, 0
12, 458320, Note_on_c, 6, 46, 44
12, 458359, Note_on_c, 6, 46, 0
12, 458360, Note_on_c, 6, 46, 44
12, 458399, Note_on_c, 6, 46, 0
12, 458400, Note_on_c, 6, 46, 44
12, 458439, Note_on_c, 6, 46, 0
12, 458440, Note_on_c, 6, 46, 44
12, 458479, Note_on_c, 6, 46, 0
12, 458480, Note_on_c, 6, 46, 44
12, 458519, Note_on_c, 6, 46, 0
12, 458520, Note_on_c, 6, 46, 44
12, 458559, Note_on_c, 6, 46, 0
12, 458560, Note_on_c, 6, 46, 44
12, 458599, Note_on_c, 6, 46, 0
12, 458600, Note_on_c, 6, 46, 44
12, 458639, Note_on_c, 6, 46, 0
12, 458640, Note_on_c, 6, 46, 44
12, 458679, Note_on_c, 6, 46, 0
12, 458680, Note_on_c, 6, 46, 44
12, 458719, Note_on_c, 6, 46, 0
12, 458720, Note_on_c, 6, 46, 44
12, 458759, Note_on_c, 6, 46, 0
12, 458760, Note_on_c, 6, 46, 44
12, 458799, Note_on_c, 6, 46, 0
12, 458800, Note_on_c, 6, 46, 44
12, 458839, Note_on_c, 6, 46, 0
12, 458840, Note_on_c, 6, 46, 44
12, 458879, Note_on_c, 6, 46, 0
12, 458880, Note_on_c, 6, 46, 44
12, 458919, Note_on_c, 6, 46, 0
12, 458920, Note_on_c, 6, 46, 44
12, 458959, Note_on_c, 6, 46, 0
12, 458960, Note_on_c, 6, 46, 44
12, 458999, Note_on_c, 6, 46, 0
12, 459000, Note_on_c, 6, 46, 44
12, 459039, Note_on_c, 6, 46, 0
12, 459040, Note_on_c, 6, 46, 44
12, 459079, Note_on_c, 6, 46, 0
12, 459080, Note_on_c, 6, 46, 45
12, 459119, Note_on_c, 6, 46, 0
12, 459120, Note_on_c, 6, 46, 45
12, 459159, Note_on_c, 6, 46, 0
12, 459160, Note_on_c, 6, 46, 45
12, 459199, Note_on_c, 6, 46, 0
12, 459200, Note_on_c, 6, 46, 45
12, 459239, Note_on_c, 6, 46, 0
12, 459240, Note_on_c, 6, 46, 45
12, 459279, Note_on_c, 6, 46, 0
12, 459280, Note_on_c, 6, 46, 46
12, 459319, Note_on_c, 6, 46, 0
12, 459320, Note_on_c, 6, 46, 46
12, 459359, Note_on_c, 6, 46, 0
12, 459360, Note_on_c, 6, 46, 46
12, 459399, Note_on_c, 6, 46, 0
12, 459400, Note_on_c, 6, 46, 46
12, 459439, Note_on_c, 6, 46, 0
12, 459440, Note_on_c, 6, 46, 46
12, 459479, Note_on_c, 6, 46, 0
12, 459480, Note_on_c, 6, 46, 47
12, 459519, Note_on_c, 6, 46, 0
12, 459520, Note_on_c, 6, 46, 47
12, 459559, Note_on_c, 6, 46, 0
12, 459560, Note_on_c, 6, 46, 47
12, 459599, Note_on_c, 6, 46, 0
12, 459600, Note_on_c, 6, 46, 47
12, 459639, Note_on_c, 6, 46, 0
12, 459640, Note_on_c, 6, 46, 47
12, 459679, Note_on_c, 6, 46, 0
12, 459680, Note_on_c, 6, 46, 48
12, 459719, Note_on_c, 6, 46, 0
12, 459720, Note_on_c, 6, 46, 48
12, 459759, Note_on_c, 6, 46, 0
12, 459760, Note_on_c, 6, 46, 48
12, 459799, Note_on_c, 6, 46, 0
12, 459800, Note_on_c, 6, 46, 48
12, 459839, Note_on_c, 6, 46, 0
12, 459840, Note_on_c, 6, 46, 49
12, 459879, Note_on_c, 6, 46, 0
12, 459880, Note_on_c, 6, 46, 49
12, 459919, Note_on_c, 6, 46, 0
12, 459920, Note_on_c, 6, 46, 49
12, 459959, Note_on_c, 6, 46, 0
12, 459960, Note_on_c, 6, 46, 49
12, 459999, Note_on_c, 6, 46, 0
12, 460000, Note_on_c, 6, 46, 49
12, 460039, Note_on_c, 6, 46, 0
12, 460040, Note_on_c, 6, 46, 50
12, 460079, Note_on_c, 6, 46, 0
12, 460080, Note_on_c, 6, 46, 50
12, 460119, Note_on_c, 6, 46, 0
12, 460120, Note_on_c, 6, 46, 50
12, 460159, Note_on_c, 6, 46, 0
12, 460160, Note_on_c, 6, 46, 50
12, 460199, Note_on_c, 6, 46, 0
12, 460200, Note_on_c, 6, 46, 50
12, 460239, Note_on_c, 6, 46, 0
12, 460240, Note_on_c, 6, 46, 51
12, 460279, Note_on_c, 6, 46, 0
12, 460280, Note_on_c, 6, 46, 51
12, 460319, Note_on_c, 6, 46, 0
12, 460320, Note_on_c, 6, 46, 51
12, 460359, Note_on_c, 6, 46, 0
12, 460360, Note_on_c, 6, 46, 51
12, 460399, Note_on_c, 6, 46, 0
12, 460400, Note_on_c, 6, 46, 51
12, 460439, Note_on_c, 6, 46, 0
12, 460440, Note_on_c, 6, 46, 52
12, 460479, Note_on_c, 6, 46, 0
12, 460480, Note_on_c, 6, 46, 52
12, 460519, Note_on_c, 6, 46, 0
12, 460520, Note_on_c, 6, 46, 52
12, 460559, Note_on_c, 6, 46, 0
12, 460560, Note_on_c, 6, 46, 52
12, 460599, Note_on_c, 6, 46, 0
12, 460600, Note_on_c, 6, 46, 52
12, 460639, Note_on_c, 6, 46, 0
12, 460640, Note_on_c, 6, 46, 53
12, 460679, Note_on_c, 6, 46, 0
12, 460680, Note_on_c, 6, 46, 53
12, 460719, Note_on_c, 6, 46, 0
12, 460720, Note_on_c, 6, 46, 53
12, 460759, Note_on_c, 6, 46, 0
12, 460760, Note_on_c, 6, 46, 53
12, 460799, Note_on_c, 6, 46, 0
12, 460800, Note_on_c, 6, 46, 54
12, 460839, Note_on_c, 6, 46, 0
12, 460840, Note_on_c, 6, 46, 54
12, 460879, Note_on_c, 6, 46, 0
12, 460880, Note_on_c, 6, 46, 54
12, 460919, Note_on_c, 6, 46, 0
12, 460920, Note_on_c, 6, 46, 54
12, 460959, Note_on_c, 6, 46, 0
12, 460960, Note_on_c, 6, 46, 54
12, 460999, Note_on_c, 6, 46, 0
12, 461000, Note_on_c, 6, 46, 55
12, 461039, Note_on_c, 6, 46, 0
12, 461040, Note_on_c, 6, 46, 55
12, 461079, Note_on_c, 6, 46, 0
12, 461080, Note_on_c, 6, 46, 55
12, 461119, Note_on_c, 6, 46, 0
12, 461120, Note_on_c, 6, 46, 55
12, 461159, Note_on_c, 6, 46, 0
12, 461160, Note_on_c, 6, 46, 55
12, 461199, Note_on_c, 6, 46, 0
12, 461200, Note_on_c, 6, 46, 56
12, 461239, Note_on_c, 6, 46, 0
12, 461240, Note_on_c, 6, 46, 56
12, 461279, Note_on_c, 6, 46, 0
12, 461280, Note_on_c, 6, 46, 56
12, 461319, Note_on_c, 6, 46, 0
12, 461320, Note_on_c, 6, 46, 56
12, 461359, Note_on_c, 6, 46, 0
12, 461360, Note_on_c, 6, 46, 56
12, 461399, Note_on_c, 6, 46, 0
12, 461400, Note_on_c, 6, 46, 57
12, 461439, Note_on_c, 6, 46, 0
12, 461440, Note_on_c, 6, 46, 57
12, 461479, Note_on_c, 6, 46, 0
12, 461480, Note_on_c, 6, 46, 57
12, 461519, Note_on_c, 6, 46, 0
12, 461520, Note_on_c, 6, 46, 57
12, 461559, Note_on_c, 6, 46, 0
12, 461560, Note_on_c, 6, 46, 57
12, 461599, Note_on_c, 6, 46, 0
12, 461600, Note_on_c, 6, 46, 58
12, 461639, Note_on_c, 6, 46, 0
12, 461640, Note_on_c, 6, 46, 58
12, 461679, Note_on_c, 6, 46, 0
12, 461680, Note_on_c, 6, 46, 58
12, 461719, Note_on_c, 6, 46, 0
12, 461720, Note_on_c, 6, 46, 58
12, 461759, Note_on_c, 6, 46, 0
12, 461760, Note_on_c, 6, 46, 59
12, 461799, Note_on_c, 6, 46, 0
12, 461800, Note_on_c, 6, 46, 59
12, 461839, Note_on_c, 6, 46, 0
12, 461840, Note_on_c, 6, 46, 59
12, 461879, Note_on_c, 6, 46, 0
12, 461880, Note_on_c, 6, 46, 59
12, 461919, Note_on_c, 6, 46, 0
12, 461920, Note_on_c, 6, 46, 59
12, 461959, Note_on_c, 6, 46, 0
12, 461960, Note_on_c, 6, 46, 60
12, 461999, Note_on_c, 6, 46, 0
12, 462000, Note_on_c, 6, 46, 60
12, 462039, Note_on_c, 6, 46, 0
12, 462040, Note_on_c, 6, 46, 60
12, 462079, Note_on_c, 6, 46, 0
12, 462080, Note_on_c, 6, 46, 60
12, 462119, Note_on_c, 6, 46, 0
12, 462120, Note_on_c, 6, 46, 60
12, 462159, Note_on_c, 6, 46, 0
12, 462160, Note_on_c, 6, 46, 61
12, 462199, Note_on_c, 6, 46, 0
12, 462200, Note_on_c, 6, 46, 61
12, 462239, Note_on_c, 6, 46, 0
12, 462240, Note_on_c, 6, 46, 61
12, 462279, Note_on_c, 6, 46, 0
12, 462280, Note_on_c, 6, 46, 61
12, 462319, Note_on_c, 6, 46, 0
12, 462320, Note_on_c, 6, 46, 61
12, 462359, Note_on_c, 6, 46, 0
12, 462360, Note_on_c, 6, 46, 62
12, 462399, Note_on_c, 6, 46, 0
12, 462400, Note_on_c, 6, 46, 62
12, 462439, Note_on_c, 6, 46, 0
12, 462440, Note_on_c, 6, 46, 62
12, 462479, Note_on_c, 6, 46, 0
12, 462480, Note_on_c, 6, 46, 62
12, 462519, Note_on_c, 6, 46, 0
12, 462520, Note_on_c, 6, 46, 62
12, 462559, Note_on_c, 6, 46, 0
12, 462560, Note_on_c, 6, 46, 63
12, 462599, Note_on_c, 6, 46, 0
12, 462600, Note_on_c, 6, 46, 63
12, 462639, Note_on_c, 6, 46, 0
12, 462640, Note_on_c, 6, 46, 63
12, 462679, Note_on_c, 6, 46, 0
12, 462680, Note_on_c, 6, 46, 63
12, 462719, Note_on_c, 6, 46, 0
12, 462720, Note_on_c, 6, 46, 64
12, 462759, Note_on_c, 6, 46, 0
12, 462760, Note_on_c, 6, 46, 64
12, 462799, Note_on_c, 6, 46, 0
12, 462800, Note_on_c, 6, 46, 64
12, 462839, Note_on_c, 6, 46, 0
12, 462840, Note_on_c, 6, 46, 64
12, 462879, Note_on_c, 6, 46, 0
12, 462880, Note_on_c, 6, 46, 64
12, 462919, Note_on_c, 6, 46, 0
12, 462920, Note_on_c, 6, 46, 65
12, 462959, Note_on_c, 6, 46, 0
12, 462960, Note_on_c, 6, 46, 65
12, 462999, Note_on_c, 6, 46, 0
12, 463000, Note_on_c, 6, 46, 65
12, 463039, Note_on_c, 6, 46, 0
12, 463040, Note_on_c, 6, 46, 65
12, 463079, Note_on_c, 6, 46, 0
12, 463080, Note_on_c, 6, 46, 65
12, 463119, Note_on_c, 6, 46, 0
12, 463120, Note_on_c, 6, 46, 66
12, 463159, Note_on_c, 6, 46, 0
12, 463160, Note_on_c, 6, 46, 66
12, 463199, Note_on_c, 6, 46, 0
12, 463200, Note_on_c, 6, 46, 66
12, 463239, Note_on_c, 6, 46, 0
12, 463240, Note_on_c, 6, 46, 66
12, 463279, Note_on_c, 6, 46, 0
12, 463280, Note_on_c, 6, 46, 66
12, 463319, Note_on_c, 6, 46, 0
12, 463320, Note_on_c, 6, 46, 67
12, 463359, Note_on_c, 6, 46, 0
12, 463360, Note_on_c, 6, 46, 67
12, 463399, Note_on_c, 6, 46, 0
12, 463400, Note_on_c, 6, 46, 67
12, 463439, Note_on_c, 6, 46, 0
12, 463440, Note_on_c, 6, 46, 67
12, 463479, Note_on_c, 6, 46, 0
12, 463480, Note_on_c, 6, 46, 67
12, 463519, Note_on_c, 6, 46, 0
12, 463520, Note_on_c, 6, 46, 68
12, 463559, Note_on_c, 6, 46, 0
12, 463560, Note_on_c, 6, 46, 68
12, 463599, Note_on_c, 6, 46, 0
12, 463600, Note_on_c, 6, 46, 68
12, 463639, Note_on_c, 6, 46, 0
12, 463640, Note_on_c, 6, 46, 68
12, 463679, Note_on_c, 6, 46, 0
12, 463680, Note_on_c, 6, 46, 69
12, 463719, Note_on_c, 6, 46, 0
12, 463720, Note_on_c, 6, 46, 69
12, 463759, Note_on_c, 6, 46, 0
12, 463760, Note_on_c, 6, 46, 69
12, 463799, Note_on_c, 6, 46, 0
12, 463800, Note_on_c, 6, 46, 69
12, 463839, Note_on_c, 6, 46, 0
12, 463840, Note_on_c, 6, 46, 69
12, 463879, Note_on_c, 6, 46, 0
12, 463880, Note_on_c, 6, 46, 70
12, 463919, Note_on_c, 6, 46, 0
12, 463920, Note_on_c, 6, 46, 70
12, 463959, Note_on_c, 6, 46, 0
12, 463960, Note_on_c, 6, 46, 70
12, 463999, Note_on_c, 6, 46, 0
12, 464000, Note_on_c, 6, 46, 70
12, 464039, Note_on_c, 6, 46, 0
12, 464040, Note_on_c, 6, 46, 70
12, 464079, Note_on_c, 6, 46, 0
12, 464080, Note_on_c, 6, 46, 71
12, 464119, Note_on_c, 6, 46, 0
12, 464120, Note_on_c, 6, 46, 71
12, 464159, Note_on_c, 6, 46, 0
12, 464160, Note_on_c, 6, 46, 71
12, 464199, Note_on_c, 6, 46, 0
12, 464200, Note_on_c, 6, 46, 71
12, 464239, Note_on_c, 6, 46, 0
12, 464240, Note_on_c, 6, 46, 71
12, 464279, Note_on_c, 6, 46, 0
12, 464280, Note_on_c, 6, 46, 72
12, 464319, Note_on_c, 6, 46, 0
12, 464320, Note_on_c, 6, 46, 72
12, 464359, Note_on_c, 6, 46, 0
12, 464360, Note_on_c, 6, 46, 72
12, 464399, Note_on_c, 6, 46, 0
12, 464400, Note_on_c, 6, 46, 72
12, 464439, Note_on_c, 6, 46, 0
12, 464440, Note_on_c, 6, 46, 72
12, 464479, Note_on_c, 6, 46, 0
12, 464480, Note_on_c, 6, 46, 73
12, 464519, Note_on_c, 6, 46, 0
12, 464520, Note_on_c, 6, 46, 73
12, 464559, Note_on_c, 6, 46, 0
12, 464560, Note_on_c, 6, 46, 73
12, 464599, Note_on_c, 6, 46, 0
12, 464600, Note_on_c, 6, 46, 73
12, 464639, Note_on_c, 6, 46, 0
12, 464640, Note_on_c, 6, 46, 74
12, 464679, Note_on_c, 6, 46, 0
12, 464680, Note_on_c, 6, 46, 74
12, 464719, Note_on_c, 6, 46, 0
12, 464720, Note_on_c, 6, 46, 74
12, 464759, Note_on_c, 6, 46, 0
12, 464760, Note_on_c, 6, 46, 74
12, 464799, Note_on_c, 6, 46, 0
12, 464800, Note_on_c, 6, 46, 74
12, 464839, Note_on_c, 6, 46, 0
12, 464840, Note_on_c, 6, 46, 75
12, 464879, Note_on_c, 6, 46, 0
12, 464880, Note_on_c, 6, 46, 75
12, 464919, Note_on_c, 6, 46, 0
12, 464920, Note_on_c, 6, 46, 75
12, 464959, Note_on_c, 6, 46, 0
12, 464960, Note_on_c, 6, 46, 75
12, 464999, Note_on_c, 6, 46, 0
12, 465000, Note_on_c, 6, 46, 75
12, 465039, Note_on_c, 6, 46, 0
12, 465040, Note_on_c, 6, 46, 76
12, 465079, Note_on_c, 6, 46, 0
12, 465080, Note_on_c, 6, 46, 76
12, 465119, Note_on_c, 6, 46, 0
12, 465120, Note_on_c, 6, 46, 76
12, 465159, Note_on_c, 6, 46, 0
12, 465160, Note_on_c, 6, 46, 76
12, 465199, Note_on_c, 6, 46, 0
12, 465200, Note_on_c, 6, 46, 76
12, 465239, Note_on_c, 6, 46, 0
12, 465240, Note_on_c, 6, 46, 77
12, 465279, Note_on_c, 6, 46, 0
12, 465280, Note_on_c, 6, 46, 77
12, 465319, Note_on_c, 6, 46, 0
12, 465320, Note_on_c, 6, 46, 77
12, 465359, Note_on_c, 6, 46, 0
12, 465360, Note_on_c, 6, 46, 77
12, 465399, Note_on_c, 6, 46, 0
12, 465400, Note_on_c, 6, 46, 77
12, 465439, Note_on_c, 6, 46, 0
12, 465440, Note_on_c, 6, 46, 78
12, 465479, Note_on_c, 6, 46, 0
12, 465480, Note_on_c, 6, 46, 78
12, 465519, Note_on_c, 6, 46, 0
12, 465520, Note_on_c, 6, 46, 78
12, 465559, Note_on_c, 6, 46, 0
12, 465560, Note_on_c, 6, 46, 78
12, 465599, Note_on_c, 6, 46, 0
12, 465600, Note_on_c, 6, 46, 79
12, 465639, Note_on_c, 6, 46, 0
12, 465640, Note_on_c, 6, 46, 79
12, 465679, Note_on_c, 6, 46, 0
12, 465680, Note_on_c, 6, 46, 79
12, 465719, Note_on_c, 6, 46, 0
12, 465720, Note_on_c, 6, 46, 79
12, 465759, Note_on_c, 6, 46, 0
12, 465760, Note_on_c, 6, 46, 79
12, 465799, Note_on_c, 6, 46, 0
12, 465800, Note_on_c, 6, 46, 80
12, 465839, Note_on_c, 6, 46, 0
12, 465840, Note_on_c, 6, 46, 80
12, 465879, Note_on_c, 6, 46, 0
12, 465880, Note_on_c, 6, 46, 80
12, 465919, Note_on_c, 6, 46, 0
12, 465920, Note_on_c, 6, 46, 80
12, 465959, Note_on_c, 6, 46, 0
12, 465960, Note_on_c, 6, 46, 80
12, 465999, Note_on_c, 6, 46, 0
12, 466000, Note_on_c, 6, 46, 81
12, 466039, Note_on_c, 6, 46, 0
12, 466040, Note_on_c, 6, 46, 81
12, 466079, Note_on_c, 6, 46, 0
12, 466080, Note_on_c, 6, 46, 81
12, 466119, Note_on_c, 6, 46, 0
12, 466120, Note_on_c, 6, 46, 81
12, 466159, Note_on_c, 6, 46, 0
12, 466160, Note_on_c, 6, 46, 81
12, 466199, Note_on_c, 6, 46, 0
12, 466200, Note_on_c, 6, 46, 82
12, 466239, Note_on_c, 6, 46, 0
12, 466240, Note_on_c, 6, 46, 82
12, 466279, Note_on_c, 6, 46, 0
12, 466280, Note_on_c, 6, 46, 82
12, 466319, Note_on_c, 6, 46, 0
12, 466320, Note_on_c, 6, 46, 82
12, 466359, Note_on_c, 6, 46, 0
12, 466360, Note_on_c, 6, 46, 82
12, 466399, Note_on_c, 6, 46, 0
12, 466400, Note_on_c, 6, 46, 83
12, 466439, Note_on_c, 6, 46, 0
12, 466440, Note_on_c, 6, 46, 83
12, 466479, Note_on_c, 6, 46, 0
12, 466480, Note_on_c, 6, 46, 83
12, 466519, Note_on_c, 6, 46, 0
12, 466520, Note_on_c, 6, 46, 83
12, 466549, Note_on_c, 6, 46, 0
12, 466560, Note_on_c, 6, 46, 80
12, 466599, Note_on_c, 6, 46, 0
12, 466600, Note_on_c, 6, 46, 86
12, 466639, Note_on_c, 6, 46, 0
12, 466640, Note_on_c, 6, 46, 81
12, 466679, Note_on_c, 6, 46, 0
12, 466680, Note_on_c, 6, 46, 82
12, 466719, Note_on_c, 6, 46, 0
12, 466720, Note_on_c, 6, 46, 86
12, 466759, Note_on_c, 6, 46, 0
12, 466760, Note_on_c, 6, 46, 87
12, 466799, Note_on_c, 6, 46, 0
12, 466800, Note_on_c, 6, 46, 86
12, 466839, Note_on_c, 6, 46, 0
12, 466840, Note_on_c, 6, 46, 85
12, 466879, Note_on_c, 6, 46, 0
12, 466880, Note_on_c, 6, 46, 84
12, 466919, Note_on_c, 6, 46, 0
12, 466920, Note_on_c, 6, 46, 82
12, 466959, Note_on_c, 6, 46, 0
12, 466960, Note_on_c, 6, 46, 86
12, 466999, Note_on_c, 6, 46, 0
12, 467000, Note_on_c, 6, 46, 81
12, 467039, Note_on_c, 6, 46, 0
12, 467040, Note_on_c, 6, 46, 86
12, 467079, Note_on_c, 6, 46, 0
12, 467080, Note_on_c, 6, 46, 81
12, 467119, Note_on_c, 6, 46, 0
12, 467120, Note_on_c, 6, 46, 81
12, 467159, Note_on_c, 6, 46, 0
12, 467160, Note_on_c, 6, 46, 84
12, 467199, Note_on_c, 6, 46, 0
12, 467200, Note_on_c, 6, 46, 87
12, 467239, Note_on_c, 6, 46, 0
12, 467240, Note_on_c, 6, 46, 80
12, 467279, Note_on_c, 6, 46, 0
12, 467280, Note_on_c, 6, 46, 80
12, 467319, Note_on_c, 6, 46, 0
12, 467320, Note_on_c, 6, 46, 84
12, 467359, Note_on_c, 6, 46, 0
12, 467360, Note_on_c, 6, 46, 83
12, 467399, Note_on_c, 6, 46, 0
12, 467400, Note_on_c, 6, 46, 80
12, 467439, Note_on_c, 6, 46, 0
12, 467440, Note_on_c, 6, 46, 82
12, 467479, Note_on_c, 6, 46, 0
12, 467480, Note_on_c, 6, 46, 87
12, 467519, Note_on_c, 6, 46, 0
12, 467520, Note_on_c, 6, 46, 81
12, 467559, Note_on_c, 6, 46, 0
12, 467560, Note_on_c, 6, 46, 81
12, 467599, Note_on_c, 6, 46, 0
12, 467600, Note_on_c, 6, 46, 81
12, 467639, Note_on_c, 6, 46, 0
12, 467640, Note_on_c, 6, 46, 87
12, 467679, Note_on_c, 6, 46, 0
12, 467680, Note_on_c, 6, 46, 80
12, 467719, Note_on_c, 6, 46, 0
12, 467720, Note_on_c, 6, 46, 80
12, 467759, Note_on_c, 6, 46, 0
12, 467760, Note_on_c, 6, 46, 80
12, 467799, Note_on_c, 6, 46, 0
12, 467800, Note_on_c, 6, 46, 82
12, 467839, Note_on_c, 6, 46, 0
12, 467840, Note_on_c, 6, 46, 87
12, 467879, Note_on_c, 6, 46, 0
12, 467880, Note_on_c, 6, 46, 83
12, 467919, Note_on_c, 6, 46, 0
12, 467920, Note_on_c, 6, 46, 83
12, 467959, Note_on_c, 6, 46, 0
12, 467960, Note_on_c, 6, 46, 87
12, 467999, Note_on_c, 6, 46, 0
12, 468000, Note_on_c, 6, 46, 86
12, 468039, Note_on_c, 6, 46, 0
12, 468040, Note_on_c, 6, 46, 84
12, 468079, Note_on_c, 6, 46, 0
12, 468080, Note_on_c, 6, 46, 86
12, 468119, Note_on_c, 6, 46, 0
12, 468120, Note_on_c, 6, 46, 85
12, 468159, Note_on_c, 6, 46, 0
12, 468160, Note_on_c, 6, 46, 83
12, 468199, Note_on_c, 6, 46, 0
12, 468200, Note_on_c, 6, 46, 82
12, 468239, Note_on_c, 6, 46, 0
12, 468240, Note_on_c, 6, 46, 80
12, 468279, Note_on_c, 6, 46, 0
12, 468280, Note_on_c, 6, 46, 84
12, 468319, Note_on_c, 6, 46, 0
12, 468320, Note_on_c, 6, 46, 87
12, 468359, Note_on_c, 6, 46, 0
12, 468360, Note_on_c, 6, 46, 83
12, 468399, Note_on_c, 6, 46, 0
12, 468400, Note_on_c, 6, 46, 81
12, 468439, Note_on_c, 6, 46, 0
12, 468440, Note_on_c, 6, 46, 84
12, 468479, Note_on_c, 6, 46, 0
12, 468480, Note_on_c, 6, 46, 82
12, 468519, Note_on_c, 6, 46, 0
12, 468520, Note_on_c, 6, 46, 85
12, 468559, Note_on_c, 6, 46, 0
12, 468560, Note_on_c, 6, 46, 87
12, 468599, Note_on_c, 6, 46, 0
12, 468600, Note_on_c, 6, 46, 83
12, 468639, Note_on_c, 6, 46, 0
12, 468640, Note_on_c, 6, 46, 87
12, 468679, Note_on_c, 6, 46, 0
12, 468680, Note_on_c, 6, 46, 80
12, 468719, Note_on_c, 6, 46, 0
12, 468720, Note_on_c, 6, 46, 87
12, 468759, Note_on_c, 6, 46, 0
12, 468760, Note_on_c, 6, 46, 84
12, 468799, Note_on_c, 6, 46, 0
12, 468800, Note_on_c, 6, 46, 86
12, 468839, Note_on_c, 6, 46, 0
12, 468840, Note_on_c, 6, 46, 84
12, 468879, Note_on_c, 6, 46, 0
12, 468880, Note_on_c, 6, 46, 81
12, 468919, Note_on_c, 6, 46, 0
12, 468920, Note_on_c, 6, 46, 81
12, 468959, Note_on_c, 6, 46, 0
12, 468960, Note_on_c, 6, 46, 83
12, 468999, Note_on_c, 6, 46, 0
12, 469000, Note_on_c, 6, 46, 80
12, 469039, Note_on_c, 6, 46, 0
12, 469040, Note_on_c, 6, 46, 83
12, 469079, Note_on_c, 6, 46, 0
12, 469080, Note_on_c, 6, 46, 80
12, 469119, Note_on_c, 6, 46, 0
12, 469120, Note_on_c, 6, 46, 85
12, 469159, Note_on_c, 6, 46, 0
12, 469160, Note_on_c, 6, 46, 86
12, 469199, Note_on_c, 6, 46, 0
12, 469200, Note_on_c, 6, 46, 80
12, 469239, Note_on_c, 6, 46, 0
12, 469240, Note_on_c, 6, 46, 86
12, 469279, Note_on_c, 6, 46, 0
12, 469280, Note_on_c, 6, 46, 85
12, 469319, Note_on_c, 6, 46, 0
12, 469320, Note_on_c, 6, 46, 85
12, 469359, Note_on_c, 6, 46, 0
12, 469360, Note_on_c, 6, 46, 86
12, 469399, Note_on_c, 6, 46, 0
12, 469400, Note_on_c, 6, 46, 84
12, 469439, Note_on_c, 6, 46, 0
12, 469440, Note_on_c, 6, 46, 84
12, 469619, Note_on_c, 6, 46, 0
12, 469920, Note_on_c, 6, 46, 84
12, 470099, Note_on_c, 6, 46, 0
12, 470400, Note_on_c, 6, 46, 84
12, 470519, Note_on_c, 6, 46, 0
12, 470640, Note_on_c, 6, 46, 84
12, 470759, Note_on_c, 6, 46, 0
12, 470880, Note_on_c, 6, 46, 84
12, 470999, Note_on_c, 6, 46, 0
12, 471120, Note_on_c, 6, 46, 84
12, 471239, Note_on_c, 6, 46, 0
12, 471360, Note_on_c, 6, 46, 84
12, 471479, Note_on_c, 6, 46, 0
12, 471600, Note_on_c, 6, 46, 84
12, 471719, Note_on_c, 6, 46, 0
12, 471840, Note_on_c, 6, 46, 84
12, 471959, Note_on_c, 6, 46, 0
12, 472080, Note_on_c, 6, 46, 84
12, 472199, Note_on_c, 6, 46, 0
12, 472320, Note_on_c, 6, 46, 84
12, 472439, Note_on_c, 6, 46, 0
12, 472560, Note_on_c, 6, 46, 84
12, 472679, Note_on_c, 6, 46, 0
12, 472800, Note_on_c, 6, 46, 84
12, 472919, Note_on_c, 6, 46, 0
12, 473040, Note_on_c, 6, 46, 84
12, 473159, Note_on_c, 6, 46, 0
12, 473280, Note_on_c, 6, 46, 84
12, 473399, Note_on_c, 6, 46, 0
12, 473520, Note_on_c, 6, 46, 84
12, 473639, Note_on_c, 6, 46, 0
12, 473760, Note_on_c, 6, 46, 84
12, 473879, Note_on_c, 6, 46, 0
12, 474000, Note_on_c, 6, 46, 84
12, 474119, Note_on_c, 6, 46, 0
12, 474240, Note_on_c, 6, 46, 84
12, 474479, Note_on_c, 6, 46, 0
12, 483840, Note_on_c, 6, 46, 84
12, 484079, Note_on_c, 6, 46, 0
12, 485760, Note_on_c, 6, 46, 84
12, 485999, Note_on_c, 6, 46, 0
12, 486720, Note_on_c, 6, 41, 84
12, 486959, Note_on_c, 6, 41, 0
12, 487680, Note_on_c, 6, 46, 84
12, 487919, Note_on_c, 6, 46, 0
12, 491520, Note_on_c, 6, 46, 92
12, 491559, Note_on_c, 6, 46, 0
12, 491560, Note_on_c, 6, 46, 80
12, 491599, Note_on_c, 6, 46, 0
12, 491600, Note_on_c, 6, 46, 84
12, 491639, Note_on_c, 6, 46, 0
12, 491640, Note_on_c, 6, 46, 81
12, 491679, Note_on_c, 6, 46, 0
12, 491680, Note_on_c, 6, 46, 86
12, 491719, Note_on_c, 6, 46, 0
12, 491720, Note_on_c, 6, 46, 84
12, 491759, Note_on_c, 6, 46, 0
12, 491760, Note_on_c, 6, 46, 83
12, 491799, Note_on_c, 6, 46, 0
12, 491800, Note_on_c, 6, 46, 82
12, 491839, Note_on_c, 6, 46, 0
12, 491840, Note_on_c, 6, 46, 87
12, 491879, Note_on_c, 6, 46, 0
12, 491880, Note_on_c, 6, 46, 86
12, 491919, Note_on_c, 6, 46, 0
12, 491920, Note_on_c, 6, 46, 85
12, 491959, Note_on_c, 6, 46, 0
12, 491960, Note_on_c, 6, 46, 81
12, 491999, Note_on_c, 6, 46, 0
12, 492000, Note_on_c, 6, 46, 86
12, 492039, Note_on_c, 6, 46, 0
12, 492040, Note_on_c, 6, 46, 85
12, 492079, Note_on_c, 6, 46, 0
12, 492080, Note_on_c, 6, 46, 84
12, 492119, Note_on_c, 6, 46, 0
12, 492120, Note_on_c, 6, 46, 82
12, 492159, Note_on_c, 6, 46, 0
12, 492160, Note_on_c, 6, 46, 80
12, 492199, Note_on_c, 6, 46, 0
12, 492200, Note_on_c, 6, 46, 80
12, 492239, Note_on_c, 6, 46, 0
12, 492240, Note_on_c, 6, 46, 82
12, 492279, Note_on_c, 6, 46, 0
12, 492280, Note_on_c, 6, 46, 81
12, 492319, Note_on_c, 6, 46, 0
12, 492320, Note_on_c, 6, 46, 81
12, 492359, Note_on_c, 6, 46, 0
12, 492360, Note_on_c, 6, 46, 87
12, 492399, Note_on_c, 6, 46, 0
12, 492400, Note_on_c, 6, 46, 83
12, 492439, Note_on_c, 6, 46, 0
12, 492440, Note_on_c, 6, 46, 80
12, 492479, Note_on_c, 6, 46, 0
12, 492480, Note_on_c, 6, 46, 84
12, 492719, Note_on_c, 6, 46, 0
12, 492960, Note_on_c, 6, 46, 92
12, 493199, Note_on_c, 6, 46, 0
12, 493440, Note_on_c, 6, 46, 84
12, 493679, Note_on_c, 6, 46, 0
12, 493920, Note_on_c, 6, 46, 92
12, 494159, Note_on_c, 6, 46, 0
12, 494400, Note_on_c, 6, 41, 84
12, 494639, Note_on_c, 6, 41, 0
12, 495840, Note_on_c, 6, 46, 92
12, 496079, Note_on_c, 6, 46, 0
12, 496800, Note_on_c, 6, 41, 92
12, 497039, Note_on_c, 6, 41, 0
12, 497280, Note_on_c, 6, 46, 80
12, 497319, Note_on_c, 6, 46, 0
12, 497320, Note_on_c, 6, 46, 80
12, 497359, Note_on_c, 6, 46, 0
12, 497360, Note_on_c, 6, 46, 83
12, 497399, Note_on_c, 6, 46, 0
12, 497400, Note_on_c, 6, 46, 84
12, 497439, Note_on_c, 6, 46, 0
12, 497440, Note_on_c, 6, 46, 84
12, 497479, Note_on_c, 6, 46, 0
12, 497480, Note_on_c, 6, 46, 84
12, 497519, Note_on_c, 6, 46, 0
12, 497520, Note_on_c, 6, 46, 84
12, 497559, Note_on_c, 6, 46, 0
12, 497560, Note_on_c, 6, 46, 81
12, 497599, Note_on_c, 6, 46, 0
12, 497600, Note_on_c, 6, 46, 85
12, 497639, Note_on_c, 6, 46, 0
12, 497640, Note_on_c, 6, 46, 83
12, 497679, Note_on_c, 6, 46, 0
12, 497680, Note_on_c, 6, 46, 82
12, 497719, Note_on_c, 6, 46, 0
12, 497720, Note_on_c, 6, 46, 80
12, 497759, Note_on_c, 6, 46, 0
12, 497760, Note_on_c, 6, 46, 84
12, 497799, Note_on_c, 6, 46, 0
12, 497800, Note_on_c, 6, 46, 86
12, 497839, Note_on_c, 6, 46, 0
12, 497840, Note_on_c, 6, 46, 86
12, 497879, Note_on_c, 6, 46, 0
12, 497880, Note_on_c, 6, 46, 84
12, 497919, Note_on_c, 6, 46, 0
12, 497920, Note_on_c, 6, 46, 82
12, 497959, Note_on_c, 6, 46, 0
12, 497960, Note_on_c, 6, 46, 87
12, 497999, Note_on_c, 6, 46, 0
12, 498000, Note_on_c, 6, 46, 85
12, 498039, Note_on_c, 6, 46, 0
12, 498040, Note_on_c, 6, 46, 87
12, 498079, Note_on_c, 6, 46, 0
12, 498080, Note_on_c, 6, 46, 87
12, 498119, Note_on_c, 6, 46, 0
12, 498120, Note_on_c, 6, 46, 84
12, 498159, Note_on_c, 6, 46, 0
12, 498160, Note_on_c, 6, 46, 81
12, 498199, Note_on_c, 6, 46, 0
12, 498200, Note_on_c, 6, 46, 83
12, 498239, Note_on_c, 6, 46, 0
12, 498240, Note_on_c, 6, 46, 81
12, 498279, Note_on_c, 6, 46, 0
12, 498280, Note_on_c, 6, 46, 86
12, 498319, Note_on_c, 6, 46, 0
12, 498320, Note_on_c, 6, 46, 81
12, 498359, Note_on_c, 6, 46, 0
12, 498360, Note_on_c, 6, 46, 86
12, 498399, Note_on_c, 6, 46, 0
12, 498400, Note_on_c, 6, 46, 86
12, 498439, Note_on_c, 6, 46, 0
12, 498440, Note_on_c, 6, 46, 87
12, 498479, Note_on_c, 6, 46, 0
12, 498480, Note_on_c, 6, 46, 87
12, 498519, Note_on_c, 6, 46, 0
12, 498520, Note_on_c, 6, 46, 84
12, 498559, Note_on_c, 6, 46, 0
12, 498560, Note_on_c, 6, 46, 83
12, 498599, Note_on_c, 6, 46, 0
12, 498600, Note_on_c, 6, 46, 82
12, 498639, Note_on_c, 6, 46, 0
12, 498640, Note_on_c, 6, 46, 82
12, 498679, Note_on_c, 6, 46, 0
12, 498680, Note_on_c, 6, 46, 86
12, 498719, Note_on_c, 6, 46, 0
12, 498720, Note_on_c, 6, 46, 80
12, 498759, Note_on_c, 6, 46, 0
12, 498760, Note_on_c, 6, 46, 83
12, 498799, Note_on_c, 6, 46, 0
12, 498800, Note_on_c, 6, 46, 80
12, 498839, Note_on_c, 6, 46, 0
12, 498840, Note_on_c, 6, 46, 85
12, 498879, Note_on_c, 6, 46, 0
12, 498880, Note_on_c, 6, 46, 80
12, 498919, Note_on_c, 6, 46, 0
12, 498920, Note_on_c, 6, 46, 80
12, 498959, Note_on_c, 6, 46, 0
12, 498960, Note_on_c, 6, 46, 87
12, 498999, Note_on_c, 6, 46, 0
12, 499000, Note_on_c, 6, 46, 82
12, 499039, Note_on_c, 6, 46, 0
12, 499040, Note_on_c, 6, 46, 82
12, 499079, Note_on_c, 6, 46, 0
12, 499080, Note_on_c, 6, 46, 84
12, 499119, Note_on_c, 6, 46, 0
12, 499120, Note_on_c, 6, 46, 85
12, 499159, Note_on_c, 6, 46, 0
12, 499160, Note_on_c, 6, 46, 86
12, 499199, Note_on_c, 6, 46, 0
12, 499200, Note_on_c, 6, 46, 84
12, 499439, Note_on_c, 6, 46, 0
12, 499680, Note_on_c, 6, 46, 84
12, 499919, Note_on_c, 6, 46, 0
12, 500160, Note_on_c, 6, 46, 84
12, 500399, Note_on_c, 6, 46, 0
12, 500640, Note_on_c, 6, 46, 84
12, 500879, Note_on_c, 6, 46, 0
12, 501120, Note_on_c, 6, 41, 84
12, 501359, Note_on_c, 6, 41, 0
12, 504960, Note_on_c, 6, 41, 84
12, 505199, Note_on_c, 6, 41, 0
12, 505440, Note_on_c, 6, 41, 84
12, 505679, Note_on_c, 6, 41, 0
12, 505920, Note_on_c, 6, 41, 84
12, 506159, Note_on_c, 6, 41, 0
12, 506400, Note_on_c, 6, 41, 84
12, 506639, Note_on_c, 6, 41, 0
12, 506880, Note_on_c, 6, 41, 84
12, 507119, Note_on_c, 6, 41, 0
12, 507360, Note_on_c, 6, 41, 84
12, 507599, Note_on_c, 6, 41, 0
12, 507840, Note_on_c, 6, 41, 84
12, 508079, Note_on_c, 6, 41, 0
12, 508320, Note_on_c, 6, 41, 84
12, 508559, Note_on_c, 6, 41, 0
12, 508800, Note_on_c, 6, 41, 84
12, 509039, Note_on_c, 6, 41, 0
12, 536640, Note_on_c, 6, 41, 76
12, 536819, Note_on_c, 6, 41, 0
12, 537120, Note_on_c, 6, 41, 76
12, 537299, Note_on_c, 6, 41, 0
12, 537600, Note_on_c, 6, 41, 76
12, 537779, Note_on_c, 6, 41, 0
12, 538080, Note_on_c, 6, 41, 76
12, 538259, Note_on_c, 6, 41, 0
12, 538560, Note_on_c, 6, 41, 76
12, 538739, Note_on_c, 6, 41, 0
12, 539040, Note_on_c, 6, 41, 76
12, 539219, Note_on_c, 6, 41, 0
12, 539520, Note_on_c, 6, 46, 76
12, 539759, Note_on_c, 6, 46, 0
12, 540480, Note_on_c, 6, 46, 76
12, 540719, Note_on_c, 6, 46, 0
12, 541440, Note_on_c, 6, 46, 76
12, 541679, Note_on_c, 6, 46, 0
12, 542160, Note_on_c, 6, 46, 76
12, 542399, Note_on_c, 6, 46, 0
12, 542400, Note_on_c, 6, 41, 76
12, 542639, Note_on_c, 6, 41, 0
12, 542640, Note_on_c, 6, 41, 76
12, 542879, Note_on_c, 6, 41, 0
12, 542880, Note_on_c, 6, 41, 76
12, 543119, Note_on_c, 6, 41, 0
12, 543120, Note_on_c, 6, 41, 76
12, 543359, Note_on_c, 6, 41, 0
12, 543360, Note_on_c, 6, 46, 76
12, 543599, Note_on_c, 6, 46, 0
12, 543840, Note_on_c, 6, 46, 76
12, 544079, Note_on_c, 6, 46, 0
12, 544320, Note_on_c, 6, 46, 76
12, 544559, Note_on_c, 6, 46, 0
12, 544800, Note_on_c, 6, 41, 76
12, 545039, Note_on_c, 6, 41, 0
12, 546240, Note_on_c, 6, 46, 52
12, 546479, Note_on_c, 6, 46, 0
12, 546960, Note_on_c, 6, 41, 52
12, 547199, Note_on_c, 6, 41, 0
12, 547200, Note_on_c, 6, 46, 52
12, 547439, Note_on_c, 6, 46, 0
12, 548160, Note_on_c, 6, 46, 52
12, 548399, Note_on_c, 6, 46, 0
12, 548880, Note_on_c, 6, 46, 52
12, 549119, Note_on_c, 6, 46, 0
12, 549120, Note_on_c, 6, 41, 52
12, 549359, Note_on_c, 6, 41, 0
12, 550080, Note_on_c, 6, 41, 52
12, 550319, Note_on_c, 6, 41, 0
12, 550800, Note_on_c, 6, 41, 52
12, 551039, Note_on_c, 6, 41, 0
12, 551040, Note_on_c, 6, 41, 52
12, 551279, Note_on_c, 6, 41, 0
12, 552000, Note_on_c, 6, 41, 52
12, 552239, Note_on_c, 6, 41, 0
12, 552720, Note_on_c, 6, 41, 52
12, 552959, Note_on_c, 6, 41, 0
12, 552960, Note_on_c, 6, 46, 76
12, 553199, Note_on_c, 6, 46, 0
12, 553200, Note_on_c, 6, 41, 76
12, 553439, Note_on_c, 6, 41, 0
12, 553440, Note_on_c, 6, 41, 76
12, 553679, Note_on_c, 6, 41, 0
12, 553680, Note_on_c, 6, 41, 76
12, 553919, Note_on_c, 6, 41, 0
12, 553920, Note_on_c, 6, 41, 76
12, 554159, Note_on_c, 6, 41, 0
12, 554640, Note_on_c, 6, 41, 76
12, 554879, Note_on_c, 6, 41, 0
12, 554880, Note_on_c, 6, 41, 76
12, 555119, Note_on_c, 6, 41, 0
12, 555120, Note_on_c, 6, 41, 76
12, 555359, Note_on_c, 6, 41, 0
12, 555360, Note_on_c, 6, 41, 76
12, 555599, Note_on_c, 6, 41, 0
12, 555600, Note_on_c, 6, 41, 76
12, 555839, Note_on_c, 6, 41, 0
12, 555840, Note_on_c, 6, 41, 76
12, 556079, Note_on_c, 6, 41, 0
12, 556560, Note_on_c, 6, 41, 76
12, 556799, Note_on_c, 6, 41, 0
12, 556800, Note_on_c, 6, 41, 76
12, 557039, Note_on_c, 6, 41, 0
12, 557040, Note_on_c, 6, 41, 76
12, 557279, Note_on_c, 6, 41, 0
12, 557280, Note_on_c, 6, 41, 76
12, 557519, Note_on_c, 6, 41, 0
12, 557520, Note_on_c, 6, 41, 76
12, 557759, Note_on_c, 6, 41, 0
12, 557760, Note_on_c, 6, 41, 76
12, 557999, Note_on_c, 6, 41, 0
12, 558480, Note_on_c, 6, 41, 76
12, 558719, Note_on_c, 6, 41, 0
12, 558720, Note_on_c, 6, 41, 76
12, 558959, Note_on_c, 6, 41, 0
12, 558960, Note_on_c, 6, 41, 76
12, 559199, Note_on_c, 6, 41, 0
12, 559200, Note_on_c, 6, 41, 76
12, 559439, Note_on_c, 6, 41, 0
12, 559440, Note_on_c, 6, 41, 76
12, 559679, Note_on_c, 6, 41, 0
12, 559680, Note_on_c, 6, 41, 76
12, 559919, Note_on_c, 6, 41, 0
12, 564480, Note_on_c, 6, 46, 84
12, 564719, Note_on_c, 6, 46, 0
12, 565200, Note_on_c, 6, 46, 84
12, 565439, Note_on_c, 6, 46, 0
12, 565440, Note_on_c, 6, 46, 84
12, 565679, Note_on_c, 6, 46, 0
12, 565920, Note_on_c, 6, 41, 84
12, 566159, Note_on_c, 6, 41, 0
12, 568320, Note_on_c, 6, 46, 84
12, 568559, Note_on_c, 6, 46, 0
12, 569040, Note_on_c, 6, 46, 84
12, 569279, Note_on_c, 6, 46, 0
12, 569280, Note_on_c, 6, 46, 84
12, 569519, Note_on_c, 6, 46, 0
12, 569760, Note_on_c, 6, 41, 84
12, 569999, Note_on_c, 6, 41, 0
12, 572160, Note_on_c, 6, 46, 76
12, 572399, Note_on_c, 6, 46, 0
12, 573120, Note_on_c, 6, 46, 76
12, 573359, Note_on_c, 6, 46, 0
12, 574080, Note_on_c, 6, 46, 76
12, 574319, Note_on_c, 6, 46, 0
12, 575040, Note_on_c, 6, 46, 76
12, 575279, Note_on_c, 6, 46, 0
12, 576000, Note_on_c, 6, 46, 85
12, 576039, Note_on_c, 6, 46, 0
12, 576040, Note_on_c, 6, 46, 83
12, 576079, Note_on_c, 6, 46, 0
12, 576080, Note_on_c, 6, 46, 81
12, 576119, Note_on_c, 6, 46, 0
12, 576120, Note_on_c, 6, 46, 85
12, 576159, Note_on_c, 6, 46, 0
12, 576160, Note_on_c, 6, 46, 83
12, 576199, Note_on_c, 6, 46, 0
12, 576200, Note_on_c, 6, 46, 83
12, 576239, Note_on_c, 6, 46, 0
12, 576240, Note_on_c, 6, 46, 87
12, 576279, Note_on_c, 6, 46, 0
12, 576280, Note_on_c, 6, 46, 85
12, 576319, Note_on_c, 6, 46, 0
12, 576320, Note_on_c, 6, 46, 80
12, 576359, Note_on_c, 6, 46, 0
12, 576360, Note_on_c, 6, 46, 84
12, 576399, Note_on_c, 6, 46, 0
12, 576400, Note_on_c, 6, 46, 83
12, 576439, Note_on_c, 6, 46, 0
12, 576440, Note_on_c, 6, 46, 85
12, 576479, Note_on_c, 6, 46, 0
12, 576480, Note_on_c, 6, 46, 84
12, 576519, Note_on_c, 6, 46, 0
12, 576520, Note_on_c, 6, 46, 84
12, 576559, Note_on_c, 6, 46, 0
12, 576560, Note_on_c, 6, 46, 82
12, 576599, Note_on_c, 6, 46, 0
12, 576600, Note_on_c, 6, 46, 81
12, 576639, Note_on_c, 6, 46, 0
12, 576640, Note_on_c, 6, 46, 81
12, 576679, Note_on_c, 6, 46, 0
12, 576680, Note_on_c, 6, 46, 83
12, 576719, Note_on_c, 6, 46, 0
12, 576720, Note_on_c, 6, 46, 86
12, 576759, Note_on_c, 6, 46, 0
12, 576760, Note_on_c, 6, 46, 84
12, 576799, Note_on_c, 6, 46, 0
12, 576800, Note_on_c, 6, 46, 87
12, 576839, Note_on_c, 6, 46, 0
12, 576840, Note_on_c, 6, 46, 86
12, 576879, Note_on_c, 6, 46, 0
12, 576880, Note_on_c, 6, 46, 82
12, 576919, Note_on_c, 6, 46, 0
12, 576920, Note_on_c, 6, 46, 81
12, 576959, Note_on_c, 6, 46, 0
12, 576960, Note_on_c, 6, 46, 85
12, 576999, Note_on_c, 6, 46, 0
12, 577000, Note_on_c, 6, 46, 83
12, 577039, Note_on_c, 6, 46, 0
12, 577040, Note_on_c, 6, 46, 80
12, 577079, Note_on_c, 6, 46, 0
12, 577080, Note_on_c, 6, 46, 85
12, 577119, Note_on_c, 6, 46, 0
12, 577120, Note_on_c, 6, 46, 84
12, 577159, Note_on_c, 6, 46, 0
12, 577160, Note_on_c, 6, 46, 81
12, 577199, Note_on_c, 6, 46, 0
12, 577200, Note_on_c, 6, 46, 87
12, 577239, Note_on_c, 6, 46, 0
12, 577240, Note_on_c, 6, 46, 81
12, 577279, Note_on_c, 6, 46, 0
12, 577280, Note_on_c, 6, 46, 87
12, 577319, Note_on_c, 6, 46, 0
12, 577320, Note_on_c, 6, 46, 85
12, 577359, Note_on_c, 6, 46, 0
12, 577360, Note_on_c, 6, 46, 82
12, 577399, Note_on_c, 6, 46, 0
12, 577400, Note_on_c, 6, 46, 83
12, 577439, Note_on_c, 6, 46, 0
12, 577440, Note_on_c, 6, 46, 80
12, 577479, Note_on_c, 6, 46, 0
12, 577480, Note_on_c, 6, 46, 87
12, 577519, Note_on_c, 6, 46, 0
12, 577520, Note_on_c, 6, 46, 85
12, 577559, Note_on_c, 6, 46, 0
12, 577560, Note_on_c, 6, 46, 81
12, 577599, Note_on_c, 6, 46, 0
12, 577600, Note_on_c, 6, 46, 87
12, 577639, Note_on_c, 6, 46, 0
12, 577640, Note_on_c, 6, 46, 86
12, 577679, Note_on_c, 6, 46, 0
12, 577680, Note_on_c, 6, 46, 84
12, 577719, Note_on_c, 6, 46, 0
12, 577720, Note_on_c, 6, 46, 81
12, 577759, Note_on_c, 6, 46, 0
12, 577760, Note_on_c, 6, 46, 81
12, 577799, Note_on_c, 6, 46, 0
12, 577800, Note_on_c, 6, 46, 86
12, 577839, Note_on_c, 6, 46, 0
12, 577840, Note_on_c, 6, 46, 83
12, 577879, Note_on_c, 6, 46, 0
12, 577880, Note_on_c, 6, 46, 81
12, 577919, Note_on_c, 6, 46, 0
12, 577920, Note_on_c, 6, 46, 92
12, 577959, Note_on_c, 6, 46, 0
12, 577960, Note_on_c, 6, 46, 85
12, 577999, Note_on_c, 6, 46, 0
12, 578000, Note_on_c, 6, 46, 83
12, 578039, Note_on_c, 6, 46, 0
12, 578040, Note_on_c, 6, 46, 82
12, 578079, Note_on_c, 6, 46, 0
12, 578080, Note_on_c, 6, 46, 84
12, 578119, Note_on_c, 6, 46, 0
12, 578120, Note_on_c, 6, 46, 85
12, 578159, Note_on_c, 6, 46, 0
12, 578160, Note_on_c, 6, 46, 86
12, 578199, Note_on_c, 6, 46, 0
12, 578200, Note_on_c, 6, 46, 85
12, 578239, Note_on_c, 6, 46, 0
12, 578240, Note_on_c, 6, 46, 83
12, 578279, Note_on_c, 6, 46, 0
12, 578280, Note_on_c, 6, 46, 80
12, 578319, Note_on_c, 6, 46, 0
12, 578320, Note_on_c, 6, 46, 82
12, 578359, Note_on_c, 6, 46, 0
12, 578360, Note_on_c, 6, 46, 86
12, 578399, Note_on_c, 6, 46, 0
12, 578400, Note_on_c, 6, 46, 80
12, 578439, Note_on_c, 6, 46, 0
12, 578440, Note_on_c, 6, 46, 84
12, 578479, Note_on_c, 6, 46, 0
12, 578480, Note_on_c, 6, 46, 85
12, 578519, Note_on_c, 6, 46, 0
12, 578520, Note_on_c, 6, 46, 83
12, 578559, Note_on_c, 6, 46, 0
12, 578560, Note_on_c, 6, 46, 80
12, 578599, Note_on_c, 6, 46, 0
12, 578600, Note_on_c, 6, 46, 87
12, 578639, Note_on_c, 6, 46, 0
12, 578640, Note_on_c, 6, 46, 87
12, 578679, Note_on_c, 6, 46, 0
12, 578680, Note_on_c, 6, 46, 84
12, 578719, Note_on_c, 6, 46, 0
12, 578720, Note_on_c, 6, 46, 82
12, 578759, Note_on_c, 6, 46, 0
12, 578760, Note_on_c, 6, 46, 83
12, 578799, Note_on_c, 6, 46, 0
12, 578800, Note_on_c, 6, 46, 82
12, 578839, Note_on_c, 6, 46, 0
12, 578840, Note_on_c, 6, 46, 86
12, 578879, Note_on_c, 6, 46, 0
12, 578880, Note_on_c, 6, 41, 82
12, 578919, Note_on_c, 6, 41, 0
12, 578920, Note_on_c, 6, 41, 83
12, 578959, Note_on_c, 6, 41, 0
12, 578960, Note_on_c, 6, 41, 82
12, 578999, Note_on_c, 6, 41, 0
12, 579000, Note_on_c, 6, 41, 87
12, 579039, Note_on_c, 6, 41, 0
12, 579040, Note_on_c, 6, 41, 82
12, 579079, Note_on_c, 6, 41, 0
12, 579080, Note_on_c, 6, 41, 85
12, 579119, Note_on_c, 6, 41, 0
12, 579120, Note_on_c, 6, 41, 84
12, 579159, Note_on_c, 6, 41, 0
12, 579160, Note_on_c, 6, 41, 81
12, 579199, Note_on_c, 6, 41, 0
12, 579200, Note_on_c, 6, 41, 86
12, 579239, Note_on_c, 6, 41, 0
12, 579240, Note_on_c, 6, 41, 86
12, 579279, Note_on_c, 6, 41, 0
12, 579280, Note_on_c, 6, 41, 83
12, 579319, Note_on_c, 6, 41, 0
12, 579320, Note_on_c, 6, 41, 84
12, 579359, Note_on_c, 6, 41, 0
12, 579360, Note_on_c, 6, 41, 87
12, 579399, Note_on_c, 6, 41, 0
12, 579400, Note_on_c, 6, 41, 80
12, 579439, Note_on_c, 6, 41, 0
12, 579440, Note_on_c, 6, 41, 87
12, 579479, Note_on_c, 6, 41, 0
12, 579480, Note_on_c, 6, 41, 84
12, 579519, Note_on_c, 6, 41, 0
12, 579520, Note_on_c, 6, 41, 80
12, 579559, Note_on_c, 6, 41, 0
12, 579560, Note_on_c, 6, 41, 84
12, 579599, Note_on_c, 6, 41, 0
12, 579600, Note_on_c, 6, 41, 81
12, 579639, Note_on_c, 6, 41, 0
12, 579640, Note_on_c, 6, 41, 86
12, 579679, Note_on_c, 6, 41, 0
12, 579680, Note_on_c, 6, 41, 85
12, 579719, Note_on_c, 6, 41, 0
12, 579720, Note_on_c, 6, 41, 85
12, 579759, Note_on_c, 6, 41, 0
12, 579760, Note_on_c, 6, 41, 81
12, 579799, Note_on_c, 6, 41, 0
12, 579800, Note_on_c, 6, 41, 86
12, 579839, Note_on_c, 6, 41, 0
12, 579840, Note_on_c, 6, 46, 84
12, 580079, Note_on_c, 6, 46, 0
12, 582960, Note_on_c, 6, 41, 84
12, 583199, Note_on_c, 6, 41, 0
12, 583200, Note_on_c, 6, 41, 84
12, 583439, Note_on_c, 6, 41, 0
12, 583440, Note_on_c, 6, 41, 84
12, 583679, Note_on_c, 6, 41, 0
12, 583680, Note_on_c, 6, 46, 84
12, 583919, Note_on_c, 6, 46, 0
12, 586800, Note_on_c, 6, 41, 84
12, 587039, Note_on_c, 6, 41, 0
12, 587040, Note_on_c, 6, 41, 84
12, 587279, Note_on_c, 6, 41, 0
12, 587280, Note_on_c, 6, 41, 84
12, 587519, Note_on_c, 6, 41, 0
12, 587520, Note_on_c, 6, 46, 84
12, 587759, Note_on_c, 6, 46, 0
12, 588720, Note_on_c, 6, 41, 84
12, 588959, Note_on_c, 6, 41, 0
12, 588960, Note_on_c, 6, 41, 84
12, 589199, Note_on_c, 6, 41, 0
12, 589200, Note_on_c, 6, 41, 84
12, 589439, Note_on_c, 6, 41, 0
12, 589440, Note_on_c, 6, 41, 80
12, 589479, Note_on_c, 6, 41, 0
12, 589480, Note_on_c, 6, 41, 80
12, 589519, Note_on_c, 6, 41, 0
12, 589520, Note_on_c, 6, 41, 85
12, 589559, Note_on_c, 6, 41, 0
12, 589560, Note_on_c, 6, 41, 82
12, 589599, Note_on_c, 6, 41, 0
12, 589600, Note_on_c, 6, 41, 87
12, 589639, Note_on_c, 6, 41, 0
12, 589640, Note_on_c, 6, 41, 82
12, 589679, Note_on_c, 6, 41, 0
12, 589680, Note_on_c, 6, 41, 82
12, 589719, Note_on_c, 6, 41, 0
12, 589720, Note_on_c, 6, 41, 81
12, 589759, Note_on_c, 6, 41, 0
12, 589760, Note_on_c, 6, 41, 85
12, 589799, Note_on_c, 6, 41, 0
12, 589800, Note_on_c, 6, 41, 86
12, 589839, Note_on_c, 6, 41, 0
12, 589840, Note_on_c, 6, 41, 85
12, 589879, Note_on_c, 6, 41, 0
12, 589880, Note_on_c, 6, 41, 84
12, 589919, Note_on_c, 6, 41, 0
12, 589920, Note_on_c, 6, 41, 85
12, 589959, Note_on_c, 6, 41, 0
12, 589960, Note_on_c, 6, 41, 82
12, 589999, Note_on_c, 6, 41, 0
12, 590000, Note_on_c, 6, 41, 81
12, 590039, Note_on_c, 6, 41, 0
12, 590040, Note_on_c, 6, 41, 80
12, 590079, Note_on_c, 6, 41, 0
12, 590080, Note_on_c, 6, 41, 80
12, 590119, Note_on_c, 6, 41, 0
12, 590120, Note_on_c, 6, 41, 86
12, 590159, Note_on_c, 6, 41, 0
12, 590160, Note_on_c, 6, 41, 86
12, 590199, Note_on_c, 6, 41, 0
12, 590200, Note_on_c, 6, 41, 81
12, 590239, Note_on_c, 6, 41, 0
12, 590240, Note_on_c, 6, 41, 80
12, 590279, Note_on_c, 6, 41, 0
12, 590280, Note_on_c, 6, 41, 84
12, 590319, Note_on_c, 6, 41, 0
12, 590320, Note_on_c, 6, 41, 80
12, 590359, Note_on_c, 6, 41, 0
12, 590360, Note_on_c, 6, 41, 80
12, 590399, Note_on_c, 6, 41, 0
12, 590400, Note_on_c, 6, 41, 83
12, 590439, Note_on_c, 6, 41, 0
12, 590440, Note_on_c, 6, 41, 86
12, 590479, Note_on_c, 6, 41, 0
12, 590480, Note_on_c, 6, 41, 85
12, 590519, Note_on_c, 6, 41, 0
12, 590520, Note_on_c, 6, 41, 84
12, 590559, Note_on_c, 6, 41, 0
12, 590560, Note_on_c, 6, 41, 80
12, 590599, Note_on_c, 6, 41, 0
12, 590600, Note_on_c, 6, 41, 83
12, 590639, Note_on_c, 6, 41, 0
12, 590640, Note_on_c, 6, 41, 81
12, 590679, Note_on_c, 6, 41, 0
12, 590680, Note_on_c, 6, 41, 85
12, 590719, Note_on_c, 6, 41, 0
12, 590720, Note_on_c, 6, 41, 82
12, 590759, Note_on_c, 6, 41, 0
12, 590760, Note_on_c, 6, 41, 83
12, 590799, Note_on_c, 6, 41, 0
12, 590800, Note_on_c, 6, 41, 81
12, 590839, Note_on_c, 6, 41, 0
12, 590840, Note_on_c, 6, 41, 84
12, 590879, Note_on_c, 6, 41, 0
12, 590880, Note_on_c, 6, 41, 84
12, 590919, Note_on_c, 6, 41, 0
12, 590920, Note_on_c, 6, 41, 85
12, 590959, Note_on_c, 6, 41, 0
12, 590960, Note_on_c, 6, 41, 81
12, 590999, Note_on_c, 6, 41, 0
12, 591000, Note_on_c, 6, 41, 84
12, 591039, Note_on_c, 6, 41, 0
12, 591040, Note_on_c, 6, 41, 87
12, 591079, Note_on_c, 6, 41, 0
12, 591080, Note_on_c, 6, 41, 85
12, 591119, Note_on_c, 6, 41, 0
12, 591120, Note_on_c, 6, 41, 87
12, 591159, Note_on_c, 6, 41, 0
12, 591160, Note_on_c, 6, 41, 81
12, 591199, Note_on_c, 6, 41, 0
12, 591200, Note_on_c, 6, 41, 82
12, 591239, Note_on_c, 6, 41, 0
12, 591240, Note_on_c, 6, 41, 81
12, 591279, Note_on_c, 6, 41, 0
12, 591280, Note_on_c, 6, 41, 87
12, 591319, Note_on_c, 6, 41, 0
12, 591320, Note_on_c, 6, 41, 83
12, 591359, Note_on_c, 6, 41, 0
12, 591360, Note_on_c, 6, 41, 84
12, 591599, Note_on_c, 6, 41, 0
12, 592320, Note_on_c, 6, 41, 84
12, 592559, Note_on_c, 6, 41, 0
12, 593280, Note_on_c, 6, 41, 84
12, 593459, Note_on_c, 6, 41, 0
12, 593760, Note_on_c, 6, 41, 84
12, 593939, Note_on_c, 6, 41, 0
12, 594240, Note_on_c, 6, 41, 84
12, 594419, Note_on_c, 6, 41, 0
12, 594720, Note_on_c, 6, 41, 84
12, 594899, Note_on_c, 6, 41, 0
12, 595200, Note_on_c, 6, 46, 84
12, 595439, Note_on_c, 6, 46, 0
12, 596160, Note_on_c, 6, 46, 84
12, 596399, Note_on_c, 6, 46, 0
12, 597120, Note_on_c, 6, 46, 84
12, 597359, Note_on_c, 6, 46, 0
12, 598080, Note_on_c, 6, 46, 84
12, 598319, Note_on_c, 6, 46, 0
12, 599040, Note_on_c, 6, 46, 84
12, 599279, Note_on_c, 6, 46, 0
12, 600000, Note_on_c, 6, 46, 84
12, 600239, Note_on_c, 6, 46, 0
12, 600960, Note_on_c, 6, 46, 84
12, 601199, Note_on_c, 6, 46, 0
12, 601920, Note_on_c, 6, 46, 84
12, 602159, Note_on_c, 6, 46, 0
12, 604800, Note_on_c, 6, 41, 76
12, 605039, Note_on_c, 6, 41, 0
12, 605760, Note_on_c, 6, 41, 76
12, 605999, Note_on_c, 6, 41, 0
12, 606660, Note_on_c, 6, 41, 76
12, 606719, Note_on_c, 6, 41, 0
12, 606720, Note_on_c, 6, 46, 76
12, 606959, Note_on_c, 6, 46, 0
12, 608640, Note_on_c, 6, 41, 76
12, 608879, Note_on_c, 6, 41, 0
12, 609600, Note_on_c, 6, 41, 76
12, 609839, Note_on_c, 6, 41, 0
12, 610500, Note_on_c, 6, 41, 76
12, 610559, Note_on_c, 6, 41, 0
12, 610560, Note_on_c, 6, 46, 52
12, 610799, Note_on_c, 6, 46, 0
12, 614400, Note_on_c, 6, 46, 68
12, 614439, Note_on_c, 6, 46, 0
12, 614440, Note_on_c, 6, 46, 68
12, 614479, Note_on_c, 6, 46, 0
12, 614480, Note_on_c, 6, 46, 68
12, 614519, Note_on_c, 6, 46, 0
12, 614520, Note_on_c, 6, 46, 68
12, 614559, Note_on_c, 6, 46, 0
12, 614560, Note_on_c, 6, 46, 68
12, 614599, Note_on_c, 6, 46, 0
12, 614600, Note_on_c, 6, 46, 68
12, 614639, Note_on_c, 6, 46, 0
12, 614640, Note_on_c, 6, 46, 69
12, 614679, Note_on_c, 6, 46, 0
12, 614680, Note_on_c, 6, 46, 69
12, 614719, Note_on_c, 6, 46, 0
12, 614720, Note_on_c, 6, 46, 69
12, 614759, Note_on_c, 6, 46, 0
12, 614760, Note_on_c, 6, 46, 69
12, 614799, Note_on_c, 6, 46, 0
12, 614800, Note_on_c, 6, 46, 69
12, 614839, Note_on_c, 6, 46, 0
12, 614840, Note_on_c, 6, 46, 69
12, 614879, Note_on_c, 6, 46, 0
12, 614880, Note_on_c, 6, 46, 70
12, 614919, Note_on_c, 6, 46, 0
12, 614920, Note_on_c, 6, 46, 70
12, 614959, Note_on_c, 6, 46, 0
12, 614960, Note_on_c, 6, 46, 70
12, 614999, Note_on_c, 6, 46, 0
12, 615000, Note_on_c, 6, 46, 70
12, 615039, Note_on_c, 6, 46, 0
12, 615040, Note_on_c, 6, 46, 70
12, 615079, Note_on_c, 6, 46, 0
12, 615080, Note_on_c, 6, 46, 70
12, 615119, Note_on_c, 6, 46, 0
12, 615120, Note_on_c, 6, 46, 71
12, 615159, Note_on_c, 6, 46, 0
12, 615160, Note_on_c, 6, 46, 71
12, 615199, Note_on_c, 6, 46, 0
12, 615200, Note_on_c, 6, 46, 71
12, 615239, Note_on_c, 6, 46, 0
12, 615240, Note_on_c, 6, 46, 71
12, 615279, Note_on_c, 6, 46, 0
12, 615280, Note_on_c, 6, 46, 71
12, 615319, Note_on_c, 6, 46, 0
12, 615320, Note_on_c, 6, 46, 71
12, 615359, Note_on_c, 6, 46, 0
12, 615360, Note_on_c, 6, 46, 72
12, 615399, Note_on_c, 6, 46, 0
12, 615400, Note_on_c, 6, 46, 72
12, 615439, Note_on_c, 6, 46, 0
12, 615440, Note_on_c, 6, 46, 72
12, 615479, Note_on_c, 6, 46, 0
12, 615480, Note_on_c, 6, 46, 72
12, 615519, Note_on_c, 6, 46, 0
12, 615520, Note_on_c, 6, 46, 72
12, 615559, Note_on_c, 6, 46, 0
12, 615560, Note_on_c, 6, 46, 72
12, 615599, Note_on_c, 6, 46, 0
12, 615600, Note_on_c, 6, 46, 73
12, 615639, Note_on_c, 6, 46, 0
12, 615640, Note_on_c, 6, 46, 73
12, 615679, Note_on_c, 6, 46, 0
12, 615680, Note_on_c, 6, 46, 73
12, 615719, Note_on_c, 6, 46, 0
12, 615720, Note_on_c, 6, 46, 73
12, 615759, Note_on_c, 6, 46, 0
12, 615760, Note_on_c, 6, 46, 73
12, 615799, Note_on_c, 6, 46, 0
12, 615800, Note_on_c, 6, 46, 73
12, 615839, Note_on_c, 6, 46, 0
12, 615840, Note_on_c, 6, 46, 74
12, 615879, Note_on_c, 6, 46, 0
12, 615880, Note_on_c, 6, 46, 74
12, 615919, Note_on_c, 6, 46, 0
12, 615920, Note_on_c, 6, 46, 74
12, 615959, Note_on_c, 6, 46, 0
12, 615960, Note_on_c, 6, 46, 74
12, 615999, Note_on_c, 6, 46, 0
12, 616000, Note_on_c, 6, 46, 74
12, 616039, Note_on_c, 6, 46, 0
12, 616040, Note_on_c, 6, 46, 74
12, 616079, Note_on_c, 6, 46, 0
12, 616080, Note_on_c, 6, 46, 75
12, 616119, Note_on_c, 6, 46, 0
12, 616120, Note_on_c, 6, 46, 75
12, 616159, Note_on_c, 6, 46, 0
12, 616160, Note_on_c, 6, 46, 75
12, 616199, Note_on_c, 6, 46, 0
12, 616200, Note_on_c, 6, 46, 75
12, 616239, Note_on_c, 6, 46, 0
12, 616240, Note_on_c, 6, 46, 75
12, 616279, Note_on_c, 6, 46, 0
12, 616280, Note_on_c, 6, 46, 75
12, 616319, Note_on_c, 6, 46, 0
12, 616320, Note_on_c, 6, 41, 76
12, 616359, Note_on_c, 6, 41, 0
12, 616360, Note_on_c, 6, 41, 76
12, 616399, Note_on_c, 6, 41, 0
12, 616400, Note_on_c, 6, 41, 76
12, 616439, Note_on_c, 6, 41, 0
12, 616440, Note_on_c, 6, 41, 76
12, 616479, Note_on_c, 6, 41, 0
12, 616480, Note_on_c, 6, 41, 76
12, 616519, Note_on_c, 6, 41, 0
12, 616520, Note_on_c, 6, 41, 76
12, 616559, Note_on_c, 6, 41, 0
12, 616560, Note_on_c, 6, 41, 77
12, 616599, Note_on_c, 6, 41, 0
12, 616600, Note_on_c, 6, 41, 77
12, 616639, Note_on_c, 6, 41, 0
12, 616640, Note_on_c, 6, 41, 77
12, 616679, Note_on_c, 6, 41, 0
12, 616680, Note_on_c, 6, 41, 77
12, 616719, Note_on_c, 6, 41, 0
12, 616720, Note_on_c, 6, 41, 77
12, 616759, Note_on_c, 6, 41, 0
12, 616760, Note_on_c, 6, 41, 77
12, 616799, Note_on_c, 6, 41, 0
12, 616800, Note_on_c, 6, 41, 78
12, 616839, Note_on_c, 6, 41, 0
12, 616840, Note_on_c, 6, 41, 78
12, 616879, Note_on_c, 6, 41, 0
12, 616880, Note_on_c, 6, 41, 78
12, 616919, Note_on_c, 6, 41, 0
12, 616920, Note_on_c, 6, 41, 78
12, 616959, Note_on_c, 6, 41, 0
12, 616960, Note_on_c, 6, 41, 78
12, 616999, Note_on_c, 6, 41, 0
12, 617000, Note_on_c, 6, 41, 78
12, 617039, Note_on_c, 6, 41, 0
12, 617040, Note_on_c, 6, 41, 79
12, 617079, Note_on_c, 6, 41, 0
12, 617080, Note_on_c, 6, 41, 79
12, 617119, Note_on_c, 6, 41, 0
12, 617120, Note_on_c, 6, 41, 79
12, 617159, Note_on_c, 6, 41, 0
12, 617160, Note_on_c, 6, 41, 79
12, 617199, Note_on_c, 6, 41, 0
12, 617200, Note_on_c, 6, 41, 79
12, 617239, Note_on_c, 6, 41, 0
12, 617240, Note_on_c, 6, 41, 79
12, 617279, Note_on_c, 6, 41, 0
12, 617280, Note_on_c, 6, 41, 80
12, 617319, Note_on_c, 6, 41, 0
12, 617320, Note_on_c, 6, 41, 80
12, 617359, Note_on_c, 6, 41, 0
12, 617360, Note_on_c, 6, 41, 80
12, 617399, Note_on_c, 6, 41, 0
12, 617400, Note_on_c, 6, 41, 80
12, 617439, Note_on_c, 6, 41, 0
12, 617440, Note_on_c, 6, 41, 80
12, 617479, Note_on_c, 6, 41, 0
12, 617480, Note_on_c, 6, 41, 80
12, 617519, Note_on_c, 6, 41, 0
12, 617520, Note_on_c, 6, 41, 81
12, 617559, Note_on_c, 6, 41, 0
12, 617560, Note_on_c, 6, 41, 81
12, 617599, Note_on_c, 6, 41, 0
12, 617600, Note_on_c, 6, 41, 81
12, 617639, Note_on_c, 6, 41, 0
12, 617640, Note_on_c, 6, 41, 81
12, 617679, Note_on_c, 6, 41, 0
12, 617680, Note_on_c, 6, 41, 81
12, 617719, Note_on_c, 6, 41, 0
12, 617720, Note_on_c, 6, 41, 81
12, 617759, Note_on_c, 6, 41, 0
12, 617760, Note_on_c, 6, 41, 82
12, 617799, Note_on_c, 6, 41, 0
12, 617800, Note_on_c, 6, 41, 82
12, 617839, Note_on_c, 6, 41, 0
12, 617840, Note_on_c, 6, 41, 82
12, 617879, Note_on_c, 6, 41, 0
12, 617880, Note_on_c, 6, 41, 82
12, 617919, Note_on_c, 6, 41, 0
12, 617920, Note_on_c, 6, 41, 82
12, 617959, Note_on_c, 6, 41, 0
12, 617960, Note_on_c, 6, 41, 82
12, 617999, Note_on_c, 6, 41, 0
12, 618000, Note_on_c, 6, 41, 83
12, 618039, Note_on_c, 6, 41, 0
12, 618040, Note_on_c, 6, 41, 83
12, 618079, Note_on_c, 6, 41, 0
12, 618080, Note_on_c, 6, 41, 83
12, 618119, Note_on_c, 6, 41, 0
12, 618120, Note_on_c, 6, 41, 83
12, 618159, Note_on_c, 6, 41, 0
12, 618160, Note_on_c, 6, 41, 83
12, 618199, Note_on_c, 6, 41, 0
12, 618200, Note_on_c, 6, 41, 83
12, 618239, Note_on_c, 6, 41, 0
12, 618240, Note_on_c, 6, 46, 87
12, 618279, Note_on_c, 6, 46, 0
12, 618280, Note_on_c, 6, 46, 80
12, 618319, Note_on_c, 6, 46, 0
12, 618320, Note_on_c, 6, 46, 85
12, 618359, Note_on_c, 6, 46, 0
12, 618360, Note_on_c, 6, 46, 80
12, 618399, Note_on_c, 6, 46, 0
12, 618400, Note_on_c, 6, 46, 83
12, 618439, Note_on_c, 6, 46, 0
12, 618440, Note_on_c, 6, 46, 87
12, 618479, Note_on_c, 6, 46, 0
12, 618480, Note_on_c, 6, 46, 80
12, 618519, Note_on_c, 6, 46, 0
12, 618520, Note_on_c, 6, 46, 87
12, 618559, Note_on_c, 6, 46, 0
12, 618560, Note_on_c, 6, 46, 82
12, 618599, Note_on_c, 6, 46, 0
12, 618600, Note_on_c, 6, 46, 81
12, 618639, Note_on_c, 6, 46, 0
12, 618640, Note_on_c, 6, 46, 86
12, 618679, Note_on_c, 6, 46, 0
12, 618680, Note_on_c, 6, 46, 83
12, 618719, Note_on_c, 6, 46, 0
12, 618720, Note_on_c, 6, 46, 81
12, 618759, Note_on_c, 6, 46, 0
12, 618760, Note_on_c, 6, 46, 85
12, 618799, Note_on_c, 6, 46, 0
12, 618800, Note_on_c, 6, 46, 84
12, 618839, Note_on_c, 6, 46, 0
12, 618840, Note_on_c, 6, 46, 83
12, 618879, Note_on_c, 6, 46, 0
12, 618880, Note_on_c, 6, 46, 83
12, 618919, Note_on_c, 6, 46, 0
12, 618920, Note_on_c, 6, 46, 84
12, 618959, Note_on_c, 6, 46, 0
12, 618960, Note_on_c, 6, 46, 85
12, 618999, Note_on_c, 6, 46, 0
12, 619000, Note_on_c, 6, 46, 86
12, 619039, Note_on_c, 6, 46, 0
12, 619040, Note_on_c, 6, 46, 86
12, 619079, Note_on_c, 6, 46, 0
12, 619080, Note_on_c, 6, 46, 84
12, 619119, Note_on_c, 6, 46, 0
12, 619120, Note_on_c, 6, 46, 85
12, 619159, Note_on_c, 6, 46, 0
12, 619160, Note_on_c, 6, 46, 84
12, 619199, Note_on_c, 6, 46, 0
12, 619200, Note_on_c, 6, 46, 83
12, 619239, Note_on_c, 6, 46, 0
12, 619240, Note_on_c, 6, 46, 81
12, 619279, Note_on_c, 6, 46, 0
12, 619280, Note_on_c, 6, 46, 85
12, 619319, Note_on_c, 6, 46, 0
12, 619320, Note_on_c, 6, 46, 84
12, 619359, Note_on_c, 6, 46, 0
12, 619360, Note_on_c, 6, 46, 87
12, 619399, Note_on_c, 6, 46, 0
12, 619400, Note_on_c, 6, 46, 81
12, 619439, Note_on_c, 6, 46, 0
12, 619440, Note_on_c, 6, 46, 81
12, 619479, Note_on_c, 6, 46, 0
12, 619480, Note_on_c, 6, 46, 84
12, 619519, Note_on_c, 6, 46, 0
12, 619520, Note_on_c, 6, 46, 85
12, 619559, Note_on_c, 6, 46, 0
12, 619560, Note_on_c, 6, 46, 84
12, 619599, Note_on_c, 6, 46, 0
12, 619600, Note_on_c, 6, 46, 82
12, 619639, Note_on_c, 6, 46, 0
12, 619640, Note_on_c, 6, 46, 83
12, 619679, Note_on_c, 6, 46, 0
12, 619680, Note_on_c, 6, 46, 80
12, 619719, Note_on_c, 6, 46, 0
12, 619720, Note_on_c, 6, 46, 85
12, 619759, Note_on_c, 6, 46, 0
12, 619760, Note_on_c, 6, 46, 84
12, 619799, Note_on_c, 6, 46, 0
12, 619800, Note_on_c, 6, 46, 84
12, 619839, Note_on_c, 6, 46, 0
12, 619840, Note_on_c, 6, 46, 85
12, 619879, Note_on_c, 6, 46, 0
12, 619880, Note_on_c, 6, 46, 86
12, 619919, Note_on_c, 6, 46, 0
12, 619920, Note_on_c, 6, 46, 81
12, 619959, Note_on_c, 6, 46, 0
12, 619960, Note_on_c, 6, 46, 84
12, 619999, Note_on_c, 6, 46, 0
12, 620000, Note_on_c, 6, 46, 86
12, 620039, Note_on_c, 6, 46, 0
12, 620040, Note_on_c, 6, 46, 87
12, 620079, Note_on_c, 6, 46, 0
12, 620080, Note_on_c, 6, 46, 84
12, 620119, Note_on_c, 6, 46, 0
12, 620120, Note_on_c, 6, 46, 85
12, 620159, Note_on_c, 6, 46, 0
12, 620160, Note_on_c, 6, 46, 80
12, 620199, Note_on_c, 6, 46, 0
12, 620200, Note_on_c, 6, 46, 85
12, 620239, Note_on_c, 6, 46, 0
12, 620240, Note_on_c, 6, 46, 87
12, 620279, Note_on_c, 6, 46, 0
12, 620280, Note_on_c, 6, 46, 82
12, 620319, Note_on_c, 6, 46, 0
12, 620320, Note_on_c, 6, 46, 84
12, 620359, Note_on_c, 6, 46, 0
12, 620360, Note_on_c, 6, 46, 82
12, 620399, Note_on_c, 6, 46, 0
12, 620400, Note_on_c, 6, 46, 81
12, 620439, Note_on_c, 6, 46, 0
12, 620440, Note_on_c, 6, 46, 80
12, 620479, Note_on_c, 6, 46, 0
12, 620480, Note_on_c, 6, 46, 86
12, 620519, Note_on_c, 6, 46, 0
12, 620520, Note_on_c, 6, 46, 86
12, 620559, Note_on_c, 6, 46, 0
12, 620560, Note_on_c, 6, 46, 85
12, 620599, Note_on_c, 6, 46, 0
12, 620600, Note_on_c, 6, 46, 81
12, 620639, Note_on_c, 6, 46, 0
12, 620640, Note_on_c, 6, 46, 82
12, 620679, Note_on_c, 6, 46, 0
12, 620680, Note_on_c, 6, 46, 80
12, 620719, Note_on_c, 6, 46, 0
12, 620720, Note_on_c, 6, 46, 80
12, 620759, Note_on_c, 6, 46, 0
12, 620760, Note_on_c, 6, 46, 85
12, 620799, Note_on_c, 6, 46, 0
12, 620800, Note_on_c, 6, 46, 86
12, 620839, Note_on_c, 6, 46, 0
12, 620840, Note_on_c, 6, 46, 84
12, 620879, Note_on_c, 6, 46, 0
12, 620880, Note_on_c, 6, 46, 83
12, 620919, Note_on_c, 6, 46, 0
12, 620920, Note_on_c, 6, 46, 83
12, 620959, Note_on_c, 6, 46, 0
12, 620960, Note_on_c, 6, 46, 82
12, 620999, Note_on_c, 6, 46, 0
12, 621000, Note_on_c, 6, 46, 83
12, 621039, Note_on_c, 6, 46, 0
12, 621040, Note_on_c, 6, 46, 84
12, 621079, Note_on_c, 6, 46, 0
12, 621080, Note_on_c, 6, 46, 81
12, 621119, Note_on_c, 6, 46, 0
12, 621120, Note_on_c, 6, 46, 82
12, 621159, Note_on_c, 6, 46, 0
12, 621160, Note_on_c, 6, 46, 85
12, 621199, Note_on_c, 6, 46, 0
12, 621200, Note_on_c, 6, 46, 82
12, 621239, Note_on_c, 6, 46, 0
12, 621240, Note_on_c, 6, 46, 86
12, 621279, Note_on_c, 6, 46, 0
12, 621280, Note_on_c, 6, 46, 87
12, 621319, Note_on_c, 6, 46, 0
12, 621320, Note_on_c, 6, 46, 86
12, 621359, Note_on_c, 6, 46, 0
12, 621360, Note_on_c, 6, 46, 85
12, 621399, Note_on_c, 6, 46, 0
12, 621400, Note_on_c, 6, 46, 82
12, 621439, Note_on_c, 6, 46, 0
12, 621440, Note_on_c, 6, 46, 87
12, 621479, Note_on_c, 6, 46, 0
12, 621480, Note_on_c, 6, 46, 81
12, 621519, Note_on_c, 6, 46, 0
12, 621520, Note_on_c, 6, 46, 80
12, 621559, Note_on_c, 6, 46, 0
12, 621560, Note_on_c, 6, 46, 86
12, 621599, Note_on_c, 6, 46, 0
12, 621600, Note_on_c, 6, 46, 84
12, 621639, Note_on_c, 6, 46, 0
12, 621640, Note_on_c, 6, 46, 84
12, 621679, Note_on_c, 6, 46, 0
12, 621680, Note_on_c, 6, 46, 87
12, 621719, Note_on_c, 6, 46, 0
12, 621720, Note_on_c, 6, 46, 80
12, 621759, Note_on_c, 6, 46, 0
12, 621760, Note_on_c, 6, 46, 87
12, 621799, Note_on_c, 6, 46, 0
12, 621800, Note_on_c, 6, 46, 85
12, 621839, Note_on_c, 6, 46, 0
12, 621840, Note_on_c, 6, 46, 82
12, 621879, Note_on_c, 6, 46, 0
12, 621880, Note_on_c, 6, 46, 80
12, 621919, Note_on_c, 6, 46, 0
12, 621920, Note_on_c, 6, 46, 84
12, 621959, Note_on_c, 6, 46, 0
12, 621960, Note_on_c, 6, 46, 81
12, 621999, Note_on_c, 6, 46, 0
12, 622000, Note_on_c, 6, 46, 82
12, 622039, Note_on_c, 6, 46, 0
12, 622040, Note_on_c, 6, 46, 87
12, 622079, Note_on_c, 6, 46, 0
12, 622080, Note_on_c, 6, 46, 84
12, 622319, Note_on_c, 6, 46, 0
12, 622560, Note_on_c, 6, 46, 84
12, 622799, Note_on_c, 6, 46, 0
12, 623040, Note_on_c, 6, 46, 84
12, 623279, Note_on_c, 6, 46, 0
12, 624000, Note_on_c, 6, 46, 84
12, 624239, Note_on_c, 6, 46, 0
12, 624960, Note_on_c, 6, 46, 84
12, 625199, Note_on_c, 6, 46, 0
12, 625199, End_track
13, 0, Start_track
13, 0, Title_t, "Violin I"
13, 0, MIDI_port, 0
13, 0, Program_c, 11, 45
13, 0, Control_c, 11, 7, 96
13, 0, Control_c, 11, 10, 48
13, 0, Control_c, 11, 11, 127
13, 0, Note_on_c, 11, 58, 44
13, 239, Note_on_c, 11, 58, 0
13, 720, Program_c, 11, 48
13, 720, Control_c, 11, 11, 96
13, 960, Note_on_c, 11, 66, 60
13, 1439, Note_on_c, 11, 66, 0
13, 1440, Note_on_c, 11, 63, 60
13, 1907, Note_on_c, 11, 63, 0
13, 1920, Note_on_c, 11, 65, 60
13, 2399, Note_on_c, 11, 65, 0
13, 2400, Note_on_c, 11, 61, 60
13, 2867, Note_on_c, 11, 61, 0
13, 2880, Note_on_c, 11, 63, 60
13, 3119, Note_on_c, 11, 63, 0
13, 3120, Note_on_c, 11, 60, 60
13, 3359, Note_on_c, 11, 60, 0
13, 3360, Note_on_c, 11, 61, 60
13, 3599, Note_on_c, 11, 61, 0
13, 3600, Note_on_c, 11, 58, 60
13, 3827, Note_on_c, 11, 58, 0
13, 3840, Note_on_c, 11, 66, 60
13, 3840, Control_c, 11, 11, 96
13, 3860, Control_c, 11, 11, 97
13, 3880, Control_c, 11, 11, 99
13, 3900, Control_c, 11, 11, 100
13, 3920, Control_c, 11, 11, 101
13, 3940, Control_c, 11, 11, 102
13, 3960, Control_c, 11, 11, 104
13, 3980, Control_c, 11, 11, 105
13, 4000, Control_c, 11, 11, 106
13, 4020, Control_c, 11, 11, 108
13, 4040, Control_c, 11, 11, 109
13, 4060, Control_c, 11, 11, 110
13, 4080, Control_c, 11, 11, 112
13, 4100, Control_c, 11, 11, 113
13, 4120, Control_c, 11, 11, 114
13, 4140, Control_c, 11, 11, 115
13, 4160, Control_c, 11, 11, 117
13, 4180, Control_c, 11, 11, 118
13, 4200, Control_c, 11, 11, 119
13, 4220, Control_c, 11, 11, 121
13, 4240, Control_c, 11, 11, 122
13, 4260, Control_c, 11, 11, 123
13, 4280, Control_c, 11, 11, 124
13, 4300, Control_c, 11, 11, 126
13, 4320, Control_c, 11, 11, 127
13, 4340, Control_c, 11, 11, 126
13, 4360, Control_c, 11, 11, 124
13, 4380, Control_c, 11, 11, 123
13, 4400, Control_c, 11, 11, 122
13, 4420, Control_c, 11, 11, 121
13, 4440, Control_c, 11, 11, 119
13, 4460, Control_c, 11, 11, 118
13, 4480, Control_c, 11, 11, 117
13, 4500, Control_c, 11, 11, 115
13, 4520, Control_c, 11, 11, 114
13, 4540, Control_c, 11, 11, 113
13, 4560, Control_c, 11, 11, 112
13, 4580, Control_c, 11, 11, 110
13, 4600, Control_c, 11, 11, 109
13, 4620, Control_c, 11, 11, 108
13, 4640, Control_c, 11, 11, 106
13, 4660, Control_c, 11, 11, 105
13, 4680, Control_c, 11, 11, 104
13, 4700, Control_c, 11, 11, 102
13, 4720, Control_c, 11, 11, 101
13, 4740, Control_c, 11, 11, 100
13, 4760, Control_c, 11, 11, 99
13, 4780, Control_c, 11, 11, 96
13, 4787, Note_on_c, 11, 66, 0
13, 4800, Note_on_c, 11, 65, 60
13, 4919, Note_on_c, 11, 65, 0
13, 5040, Note_on_c, 11, 72, 60
13, 5159, Note_on_c, 11, 72, 0
13, 5280, Note_on_c, 11, 76, 60
13, 5399, Note_on_c, 11, 76, 0
13, 5520, Note_on_c, 11, 77, 60
13, 5639, Note_on_c, 11, 77, 0
13, 5760, Note_on_c, 11, 78, 60
13, 5879, Note_on_c, 11, 78, 0
13, 6000, Note_on_c, 11, 75, 60
13, 6119, Note_on_c, 11, 75, 0
13, 6240, Note_on_c, 11, 72, 60
13, 6359, Note_on_c, 11, 72, 0
13, 6480, Note_on_c, 11, 73, 60
13, 6719, Note_on_c, 11, 73, 0
13, 6720, Note_on_c, 11, 72, 60
13, 6839, Note_on_c, 11, 72, 0
13, 6960, Note_on_c, 11, 60, 60
13, 7079, Note_on_c, 11, 60, 0
13, 7200, Note_on_c, 11, 64, 60
13, 7319, Note_on_c, 11, 64, 0
13, 7440, Note_on_c, 11, 65, 60
13, 7559, Note_on_c, 11, 65, 0
13, 7680, Note_on_c, 11, 66, 60
13, 7799, Note_on_c, 11, 66, 0
13, 7920, Note_on_c, 11, 63, 60
13, 8039, Note_on_c, 11, 63, 0
13, 8160, Note_on_c, 11, 60, 60
13, 8279, Note_on_c, 11, 60, 0
13, 8400, Note_on_c, 11, 61, 60
13, 8639, Note_on_c, 11, 61, 0
13, 8640, Note_on_c, 11, 60, 60
13, 8759, Note_on_c, 11, 60, 0
13, 8880, Note_on_c, 11, 65, 60
13, 8999, Note_on_c, 11, 65, 0
13, 9120, Note_on_c, 11, 66, 60
13, 9239, Note_on_c, 11, 66, 0
13, 9600, Control_c, 11, 11, 127
13, 9840, Note_on_c, 11, 75, 44
13, 9959, Note_on_c, 11, 75, 0
13, 10080, Note_on_c, 11, 78, 44
13, 10199, Note_on_c, 11, 78, 0
13, 11040, Program_c, 11, 45
13, 11280, Note_on_c, 11, 69, 44
13, 11280, Note_on_c, 11, 60, 44
13, 11280, Note_on_c, 11, 63, 44
13, 11399, Note_on_c, 11, 69, 0
13, 11399, Note_on_c, 11, 60, 0
13, 11399, Note_on_c, 11, 63, 0
13, 11520, Note_on_c, 11, 58, 68
13, 11759, Note_on_c, 11, 58, 0
13, 12240, Program_c, 11, 48
13, 12240, Control_c, 11, 11, 96
13, 12480, Note_on_c, 11, 66, 60
13, 12959, Note_on_c, 11, 66, 0
13, 12960, Note_on_c, 11, 63, 60
13, 13427, Note_on_c, 11, 63, 0
13, 13440, Note_on_c, 11, 65, 60
13, 13919, Note_on_c, 11, 65, 0
13, 13920, Note_on_c, 11, 61, 60
13, 14387, Note_on_c, 11, 61, 0
13, 14400, Note_on_c, 11, 63, 60
13, 14639, Note_on_c, 11, 63, 0
13, 14640, Note_on_c, 11, 60, 60
13, 14879, Note_on_c, 11, 60, 0
13, 14880, Note_on_c, 11, 61, 60
13, 15119, Note_on_c, 11, 61, 0
13, 15120, Note_on_c, 11, 58, 60
13, 15347, Note_on_c, 11, 58, 0
13, 15360, Control_c, 11, 11, 96
13, 15360, Note_on_c, 11, 66, 60
13, 15380, Control_c, 11, 11, 97
13, 15400, Control_c, 11, 11, 99
13, 15420, Control_c, 11, 11, 100
13, 15440, Control_c, 11, 11, 101
13, 15460, Control_c, 11, 11, 102
13, 15480, Control_c, 11, 11, 104
13, 15500, Control_c, 11, 11, 105
13, 15520, Control_c, 11, 11, 106
13, 15540, Control_c, 11, 11, 108
13, 15560, Control_c, 11, 11, 109
13, 15580, Control_c, 11, 11, 110
13, 15600, Control_c, 11, 11, 112
13, 15620, Control_c, 11, 11, 113
13, 15640, Control_c, 11, 11, 114
13, 15660, Control_c, 11, 11, 115
13, 15680, Control_c, 11, 11, 117
13, 15700, Control_c, 11, 11, 118
13, 15720, Control_c, 11, 11, 119
13, 15740, Control_c, 11, 11, 121
13, 15760, Control_c, 11, 11, 122
13, 15780, Control_c, 11, 11, 123
13, 15800, Control_c, 11, 11, 124
13, 15820, Control_c, 11, 11, 126
13, 15840, Control_c, 11, 11, 127
13, 15860, Control_c, 11, 11, 126
13, 15880, Control_c, 11, 11, 124
13, 15900, Control_c, 11, 11, 123
13, 15920, Control_c, 11, 11, 122
13, 15940, Control_c, 11, 11, 121
13, 15960, Control_c, 11, 11, 119
13, 15980, Control_c, 11, 11, 118
13, 16000, Control_c, 11, 11, 117
13, 16020, Control_c, 11, 11, 115
13, 16040, Control_c, 11, 11, 114
13, 16060, Control_c, 11, 11, 113
13, 16080, Control_c, 11, 11, 112
13, 16100, Control_c, 11, 11, 110
13, 16120, Control_c, 11, 11, 109
13, 16140, Control_c, 11, 11, 108
13, 16160, Control_c, 11, 11, 106
13, 16180, Control_c, 11, 11, 105
13, 16200, Control_c, 11, 11, 104
13, 16220, Control_c, 11, 11, 102
13, 16240, Control_c, 11, 11, 101
13, 16260, Control_c, 11, 11, 100
13, 16280, Control_c, 11, 11, 99
13, 16300, Control_c, 11, 11, 96
13, 16439, Note_on_c, 11, 66, 0
13, 16560, Note_on_c, 11, 73, 60
13, 16679, Note_on_c, 11, 73, 0
13, 16800, Note_on_c, 11, 77, 60
13, 16919, Note_on_c, 11, 77, 0
13, 17040, Note_on_c, 11, 78, 60
13, 17159, Note_on_c, 11, 78, 0
13, 17280, Note_on_c, 11, 79, 60
13, 17399, Note_on_c, 11, 79, 0
13, 17520, Note_on_c, 11, 76, 60
13, 17639, Note_on_c, 11, 76, 0
13, 17760, Note_on_c, 11, 73, 60
13, 17879, Note_on_c, 11, 73, 0
13, 18000, Note_on_c, 11, 74, 60
13, 18239, Note_on_c, 11, 74, 0
13, 18240, Note_on_c, 11, 73, 60
13, 18359, Note_on_c, 11, 73, 0
13, 18480, Note_on_c, 11, 61, 60
13, 18599, Note_on_c, 11, 61, 0
13, 18720, Note_on_c, 11, 65, 60
13, 18839, Note_on_c, 11, 65, 0
13, 18960, Note_on_c, 11, 66, 60
13, 19079, Note_on_c, 11, 66, 0
13, 19200, Note_on_c, 11, 67, 60
13, 19319, Note_on_c, 11, 67, 0
13, 19440, Note_on_c, 11, 64, 60
13, 19559, Note_on_c, 11, 64, 0
13, 19680, Note_on_c, 11, 61, 60
13, 19799, Note_on_c, 11, 61, 0
13, 19920, Note_on_c, 11, 62, 60
13, 20159, Note_on_c, 11, 62, 0
13, 20160, Note_on_c, 11, 61, 60
13, 20279, Note_on_c, 11, 61, 0
13, 20400, Note_on_c, 11, 66, 60
13, 20519, Note_on_c, 11, 66, 0
13, 20640, Note_on_c, 11, 67, 60
13, 20759, Note_on_c, 11, 67, 0
13, 21120, Control_c, 11, 11, 127
13, 21360, Note_on_c, 11, 76, 44
13, 21479, Note_on_c, 11, 76, 0
13, 21600, Note_on_c, 11, 79, 44
13, 21719, Note_on_c, 11, 79, 0
13, 22560, Program_c, 11, 45
13, 22800, Note_on_c, 11, 64, 44
13, 22800, Note_on_c, 11, 70, 44
13, 22919, Note_on_c, 11, 64, 0
13, 22919, Note_on_c, 11, 70, 0
13, 23040, Note_on_c, 11, 59, 68
13, 23159, Note_on_c, 11, 59, 0
13, 24000, Program_c, 11, 48
13, 24240, Note_on_c, 11, 71, 52
13, 24359, Note_on_c, 11, 71, 0
13, 24480, Note_on_c, 11, 74, 52
13, 24599, Note_on_c, 11, 74, 0
13, 25200, Note_on_c, 11, 72, 52
13, 25319, Note_on_c, 11, 72, 0
13, 25440, Note_on_c, 11, 76, 52
13, 25559, Note_on_c, 11, 76, 0
13, 26160, Note_on_c, 11, 73, 52
13, 26279, Note_on_c, 11, 73, 0
13, 26400, Note_on_c, 11, 76, 52
13, 26519, Note_on_c, 11, 76, 0
13, 27120, Note_on_c, 11, 74, 52
13, 27239, Note_on_c, 11, 74, 0
13, 27360, Note_on_c, 11, 77, 52
13, 27479, Note_on_c, 11, 77, 0
13, 27600, Note_on_c, 11, 70, 76
13, 27600, Note_on_c, 11, 82, 76
13, 27629, Note_on_c, 11, 70, 0
13, 27629, Note_on_c, 11, 82, 0
13, 27630, Note_on_c, 11, 82, 52
13, 27630, Note_on_c, 11, 70, 52
13, 27959, Note_on_c, 11, 82, 0
13, 27959, Note_on_c, 11, 70, 0
13, 28080, Note_on_c, 11, 74, 52
13, 28199, Note_on_c, 11, 74, 0
13, 28320, Note_on_c, 11, 77, 52
13, 28439, Note_on_c, 11, 77, 0
13, 28560, Note_on_c, 11, 70, 68
13, 28589, Note_on_c, 11, 70, 0
13, 28590, Note_on_c, 11, 70, 52
13, 28799, Note_on_c, 11, 70, 0
13, 28800, Note_on_c, 11, 68, 52
13, 29747, Note_on_c, 11, 68, 0
13, 29760, Control_c, 11, 11, 127
13, 29760, Note_on_c, 11, 69, 52
13, 29824, Control_c, 11, 11, 126
13, 29888, Control_c, 11, 11, 125
13, 29952, Control_c, 11, 11, 124
13, 29999, Note_on_c, 11, 69, 0
13, 30000, Note_on_c, 11, 64, 52
13, 30016, Control_c, 11, 11, 123
13, 30080, Control_c, 11, 11, 122
13, 30144, Control_c, 11, 11, 121
13, 30208, Control_c, 11, 11, 120
13, 30239, Note_on_c, 11, 64, 0
13, 30240, Note_on_c, 11, 65, 52
13, 30272, Control_c, 11, 11, 119
13, 30336, Control_c, 11, 11, 118
13, 30400, Control_c, 11, 11, 117
13, 30464, Control_c, 11, 11, 116
13, 30479, Note_on_c, 11, 65, 0
13, 30480, Note_on_c, 11, 67, 52
13, 30528, Control_c, 11, 11, 115
13, 30592, Control_c, 11, 11, 114
13, 30599, Note_on_c, 11, 67, 0
13, 30600, Note_on_c, 11, 69, 52
13, 30656, Control_c, 11, 11, 112
13, 30707, Note_on_c, 11, 69, 0
13, 30720, Note_on_c, 11, 67, 52
13, 30959, Note_on_c, 11, 67, 0
13, 30960, Note_on_c, 11, 64, 52
13, 31199, Note_on_c, 11, 64, 0
13, 31200, Note_on_c, 11, 65, 52
13, 31439, Note_on_c, 11, 65, 0
13, 31440, Note_on_c, 11, 64, 52
13, 31559, Note_on_c, 11, 64, 0
13, 31560, Note_on_c, 11, 62, 52
13, 31667, Note_on_c, 11, 62, 0
13, 31680, Note_on_c, 11, 61, 52
13, 31799, Note_on_c, 11, 61, 0
13, 32040, Control_c, 11, 11, 127
13, 32160, Note_on_c, 11, 57, 44
13, 32160, Note_on_c, 11, 69, 44
13, 32279, Note_on_c, 11, 57, 0
13, 32279, Note_on_c, 11, 69, 0
13, 32640, Note_on_c, 11, 57, 44
13, 32640, Note_on_c, 11, 69, 44
13, 32759, Note_on_c, 11, 57, 0
13, 32759, Note_on_c, 11, 69, 0
13, 32880, Note_on_c, 11, 81, 44
13, 32999, Note_on_c, 11, 81, 0
13, 33120, Note_on_c, 11, 81, 57
13, 33239, Note_on_c, 11, 81, 0
13, 33360, Note_on_c, 11, 81, 70
13, 33479, Note_on_c, 11, 81, 0
13, 33600, Note_on_c, 11, 81, 84
13, 33600, Note_on_c, 11, 69, 84
13, 34427, Note_on_c, 11, 81, 0
13, 34427, Note_on_c, 11, 69, 0
13, 34440, Note_on_c, 11, 72, 84
13, 34463, Note_on_c, 11, 72, 0
13, 34464, Note_on_c, 11, 74, 84
13, 34487, Note_on_c, 11, 74, 0
13, 34488, Note_on_c, 11, 75, 84
13, 34511, Note_on_c, 11, 75, 0
13, 34512, Note_on_c, 11, 77, 84
13, 34535, Note_on_c, 11, 77, 0
13, 34536, Note_on_c, 11, 79, 84
13, 34555, Note_on_c, 11, 79, 0
13, 34560, Note_on_c, 11, 81, 84
13, 34560, Note_on_c, 11, 69, 84
13, 34679, Note_on_c, 11, 81, 0
13, 34679, Note_on_c, 11, 69, 0
13, 35520, Note_on_c, 11, 84, 84
13, 35520, Note_on_c, 11, 69, 84
13, 36347, Note_on_c, 11, 84, 0
13, 36347, Note_on_c, 11, 69, 0
13, 36360, Note_on_c, 11, 75, 84
13, 36383, Note_on_c, 11, 75, 0
13, 36384, Note_on_c, 11, 77, 84
13, 36407, Note_on_c, 11, 77, 0
13, 36408, Note_on_c, 11, 79, 84
13, 36431, Note_on_c, 11, 79, 0
13, 36432, Note_on_c, 11, 81, 84
13, 36455, Note_on_c, 11, 81, 0
13, 36456, Note_on_c, 11, 82, 84
13, 36475, Note_on_c, 11, 82, 0
13, 36480, Note_on_c, 11, 69, 84
13, 36480, Note_on_c, 11, 84, 84
13, 36659, Note_on_c, 11, 69, 0
13, 36659, Note_on_c, 11, 84, 0
13, 37200, Note_on_c, 11, 77, 84
13, 37259, Note_on_c, 11, 77, 0
13, 37260, Note_on_c, 11, 79, 84
13, 37319, Note_on_c, 11, 79, 0
13, 37320, Note_on_c, 11, 81, 84
13, 37379, Note_on_c, 11, 81, 0
13, 37380, Note_on_c, 11, 82, 84
13, 37431, Note_on_c, 11, 82, 0
13, 37440, Note_on_c, 11, 69, 84
13, 37440, Note_on_c, 11, 84, 84
13, 37619, Note_on_c, 11, 69, 0
13, 37619, Note_on_c, 11, 84, 0
13, 38160, Note_on_c, 11, 77, 84
13, 38219, Note_on_c, 11, 77, 0
13, 38220, Note_on_c, 11, 79, 84
13, 38279, Note_on_c, 11, 79, 0
13, 38280, Note_on_c, 11, 81, 84
13, 38339, Note_on_c, 11, 81, 0
13, 38340, Note_on_c, 11, 82, 84
13, 38391, Note_on_c, 11, 82, 0
13, 38400, Note_on_c, 11, 84, 84
13, 38400, Note_on_c, 11, 69, 84
13, 38579, Note_on_c, 11, 84, 0
13, 38579, Note_on_c, 11, 69, 0
13, 38760, Note_on_c, 11, 81, 84
13, 38819, Note_on_c, 11, 81, 0
13, 38820, Note_on_c, 11, 82, 84
13, 38871, Note_on_c, 11, 82, 0
13, 38880, Note_on_c, 11, 69, 84
13, 38880, Note_on_c, 11, 84, 84
13, 39059, Note_on_c, 11, 69, 0
13, 39059, Note_on_c, 11, 84, 0
13, 39240, Note_on_c, 11, 81, 84
13, 39299, Note_on_c, 11, 81, 0
13, 39300, Note_on_c, 11, 82, 84
13, 39351, Note_on_c, 11, 82, 0
13, 39360, Note_on_c, 11, 69, 84
13, 39360, Note_on_c, 11, 84, 84
13, 39539, Note_on_c, 11, 69, 0
13, 39539, Note_on_c, 11, 84, 0
13, 39720, Note_on_c, 11, 81, 84
13, 39779, Note_on_c, 11, 81, 0
13, 39780, Note_on_c, 11, 82, 84
13, 39831, Note_on_c, 11, 82, 0
13, 39840, Note_on_c, 11, 69, 84
13, 39840, Note_on_c, 11, 84, 84
13, 40019, Note_on_c, 11, 69, 0
13, 40019, Note_on_c, 11, 84, 0
13, 40200, Note_on_c, 11, 81, 84
13, 40239, Note_on_c, 11, 81, 0
13, 40240, Note_on_c, 11, 82, 84
13, 40279, Note_on_c, 11, 82, 0
13, 40280, Note_on_c, 11, 84, 84
13, 40311, Note_on_c, 11, 84, 0
13, 40320, Note_on_c, 11, 62, 76
13, 40320, Note_on_c, 11, 86, 76
13, 40320, Note_on_c, 11, 74, 76
13, 40409, Note_on_c, 11, 62, 0
13, 40409, Note_on_c, 11, 86, 0
13, 40409, Note_on_c, 11, 74, 0
13, 40560, Note_on_c, 11, 82, 52
13, 40679, Note_on_c, 11, 82, 0
13, 40800, Note_on_c, 11, 77, 52
13, 40919, Note_on_c, 11, 77, 0
13, 41040, Note_on_c, 11, 82, 52
13, 41159, Note_on_c, 11, 82, 0
13, 41280, Note_on_c, 11, 74, 52
13, 41399, Note_on_c, 11, 74, 0
13, 41520, Note_on_c, 11, 77, 52
13, 41639, Note_on_c, 11, 77, 0
13, 41760, Note_on_c, 11, 70, 52
13, 41879, Note_on_c, 11, 70, 0
13, 42000, Note_on_c, 11, 74, 52
13, 42119, Note_on_c, 11, 74, 0
13, 42240, Note_on_c, 11, 67, 52
13, 42359, Note_on_c, 11, 67, 0
13, 42480, Note_on_c, 11, 75, 52
13, 42599, Note_on_c, 11, 75, 0
13, 42720, Note_on_c, 11, 72, 52
13, 42839, Note_on_c, 11, 72, 0
13, 42960, Note_on_c, 11, 70, 52
13, 43079, Note_on_c, 11, 70, 0
13, 43200, Note_on_c, 11, 69, 52
13, 43319, Note_on_c, 11, 69, 0
13, 43440, Note_on_c, 11, 77, 52
13, 43559, Note_on_c, 11, 77, 0
13, 43680, Note_on_c, 11, 75, 52
13, 43799, Note_on_c, 11, 75, 0
13, 43920, Note_on_c, 11, 72, 52
13, 44039, Note_on_c, 11, 72, 0
13, 44160, Note_on_c, 11, 70, 52
13, 44399, Note_on_c, 11, 70, 0
13, 47760, Note_on_c, 11, 77, 52
13, 47819, Note_on_c, 11, 77, 0
13, 47820, Note_on_c, 11, 79, 52
13, 47879, Note_on_c, 11, 79, 0
13, 47880, Note_on_c, 11, 81, 52
13, 47939, Note_on_c, 11, 81, 0
13, 47940, Note_on_c, 11, 82, 52
13, 47991, Note_on_c, 11, 82, 0
13, 48000, Note_on_c, 11, 84, 84
13, 48000, Note_on_c, 11, 69, 84
13, 48179, Note_on_c, 11, 84, 0
13, 48179, Note_on_c, 11, 69, 0
13, 48720, Note_on_c, 11, 77, 84
13, 48779, Note_on_c, 11, 77, 0
13, 48780, Note_on_c, 11, 79, 84
13, 48839, Note_on_c, 11, 79, 0
13, 48840, Note_on_c, 11, 81, 84
13, 48899, Note_on_c, 11, 81, 0
13, 48900, Note_on_c, 11, 82, 84
13, 48951, Note_on_c, 11, 82, 0
13, 48960, Note_on_c, 11, 69, 84
13, 48960, Note_on_c, 11, 84, 84
13, 49139, Note_on_c, 11, 69, 0
13, 49139, Note_on_c, 11, 84, 0
13, 49320, Note_on_c, 11, 81, 84
13, 49379, Note_on_c, 11, 81, 0
13, 49380, Note_on_c, 11, 82, 84
13, 49431, Note_on_c, 11, 82, 0
13, 49440, Note_on_c, 11, 84, 84
13, 49440, Note_on_c, 11, 69, 84
13, 49619, Note_on_c, 11, 84, 0
13, 49619, Note_on_c, 11, 69, 0
13, 49800, Note_on_c, 11, 81, 84
13, 49839, Note_on_c, 11, 81, 0
13, 49840, Note_on_c, 11, 82, 84
13, 49879, Note_on_c, 11, 82, 0
13, 49880, Note_on_c, 11, 84, 84
13, 49911, Note_on_c, 11, 84, 0
13, 49920, Note_on_c, 11, 86, 84
13, 49920, Note_on_c, 11, 62, 84
13, 49920, Note_on_c, 11, 74, 84
13, 50039, Note_on_c, 11, 86, 0
13, 50039, Note_on_c, 11, 62, 0
13, 50039, Note_on_c, 11, 74, 0
13, 50160, Note_on_c, 11, 82, 84
13, 50279, Note_on_c, 11, 82, 0
13, 50400, Note_on_c, 11, 77, 84
13, 50519, Note_on_c, 11, 77, 0
13, 50640, Note_on_c, 11, 82, 84
13, 50759, Note_on_c, 11, 82, 0
13, 50880, Note_on_c, 11, 74, 84
13, 50999, Note_on_c, 11, 74, 0
13, 51120, Note_on_c, 11, 77, 84
13, 51239, Note_on_c, 11, 77, 0
13, 51360, Note_on_c, 11, 70, 84
13, 51479, Note_on_c, 11, 70, 0
13, 51600, Note_on_c, 11, 74, 84
13, 51719, Note_on_c, 11, 74, 0
13, 51840, Note_on_c, 11, 67, 84
13, 51959, Note_on_c, 11, 67, 0
13, 52080, Note_on_c, 11, 75, 84
13, 52199, Note_on_c, 11, 75, 0
13, 52320, Note_on_c, 11, 72, 84
13, 52439, Note_on_c, 11, 72, 0
13, 52560, Note_on_c, 11, 70, 84
13, 52679, Note_on_c, 11, 70, 0
13, 52800, Note_on_c, 11, 69, 84
13, 52919, Note_on_c, 11, 69, 0
13, 53040, Note_on_c, 11, 77, 84
13, 53159, Note_on_c, 11, 77, 0
13, 53280, Note_on_c, 11, 75, 84
13, 53399, Note_on_c, 11, 75, 0
13, 53520, Note_on_c, 11, 72, 84
13, 53639, Note_on_c, 11, 72, 0
13, 53760, Note_on_c, 11, 70, 84
13, 53879, Note_on_c, 11, 70, 0
13, 54000, Note_on_c, 11, 79, 84
13, 54104, Note_on_c, 11, 79, 0
13, 54120, Note_on_c, 11, 79, 84
13, 54224, Note_on_c, 11, 79, 0
13, 54240, Note_on_c, 11, 77, 84
13, 54344, Note_on_c, 11, 77, 0
13, 54360, Note_on_c, 11, 77, 84
13, 54464, Note_on_c, 11, 77, 0
13, 54480, Note_on_c, 11, 75, 84
13, 54584, Note_on_c, 11, 75, 0
13, 54600, Note_on_c, 11, 75, 84
13, 54704, Note_on_c, 11, 75, 0
13, 54720, Note_on_c, 11, 74, 84
13, 54824, Note_on_c, 11, 74, 0
13, 54840, Note_on_c, 11, 74, 84
13, 54944, Note_on_c, 11, 74, 0
13, 54960, Note_on_c, 11, 72, 84
13, 55064, Note_on_c, 11, 72, 0
13, 55080, Note_on_c, 11, 72, 84
13, 55184, Note_on_c, 11, 72, 0
13, 55200, Note_on_c, 11, 70, 84
13, 55304, Note_on_c, 11, 70, 0
13, 55320, Note_on_c, 11, 70, 84
13, 55424, Note_on_c, 11, 70, 0
13, 55440, Note_on_c, 11, 72, 84
13, 55544, Note_on_c, 11, 72, 0
13, 55560, Note_on_c, 11, 72, 84
13, 55664, Note_on_c, 11, 72, 0
13, 55680, Note_on_c, 11, 70, 92
13, 56639, Note_on_c, 11, 70, 0
13, 56640, Note_on_c, 11, 70, 84
13, 56759, Note_on_c, 11, 70, 0
13, 56760, Note_on_c, 11, 72, 84
13, 56879, Note_on_c, 11, 72, 0
13, 56880, Note_on_c, 11, 74, 84
13, 56999, Note_on_c, 11, 74, 0
13, 57000, Note_on_c, 11, 75, 84
13, 57119, Note_on_c, 11, 75, 0
13, 57120, Note_on_c, 11, 77, 84
13, 57239, Note_on_c, 11, 77, 0
13, 57240, Note_on_c, 11, 79, 84
13, 57359, Note_on_c, 11, 79, 0
13, 57360, Note_on_c, 11, 81, 84
13, 57479, Note_on_c, 11, 81, 0
13, 57480, Note_on_c, 11, 82, 84
13, 57584, Note_on_c, 11, 82, 0
13, 57600, Note_on_c, 11, 69, 84
13, 57600, Note_on_c, 11, 81, 84
13, 57839, Note_on_c, 11, 69, 0
13, 57839, Note_on_c, 11, 81, 0
13, 58560, Note_on_c, 11, 82, 84
13, 58560, Note_on_c, 11, 70, 84
13, 58799, Note_on_c, 11, 82, 0
13, 58799, Note_on_c, 11, 70, 0
13, 59520, Note_on_c, 11, 75, 84
13, 59520, Note_on_c, 11, 67, 84
13, 59520, Note_on_c, 11, 84, 84
13, 59759, Note_on_c, 11, 75, 0
13, 59759, Note_on_c, 11, 67, 0
13, 59759, Note_on_c, 11, 84, 0
13, 60480, Note_on_c, 11, 81, 84
13, 60480, Note_on_c, 11, 65, 84
13, 60480, Note_on_c, 11, 72, 84
13, 60719, Note_on_c, 11, 81, 0
13, 60719, Note_on_c, 11, 65, 0
13, 60719, Note_on_c, 11, 72, 0
13, 61440, Note_on_c, 11, 58, 44
13, 62624, Note_on_c, 11, 58, 0
13, 62640, Note_on_c, 11, 70, 44
13, 62759, Note_on_c, 11, 70, 0
13, 62760, Note_on_c, 11, 69, 44
13, 62879, Note_on_c, 11, 69, 0
13, 62880, Note_on_c, 11, 70, 44
13, 62999, Note_on_c, 11, 70, 0
13, 63000, Note_on_c, 11, 69, 44
13, 63119, Note_on_c, 11, 69, 0
13, 63120, Note_on_c, 11, 70, 44
13, 63239, Note_on_c, 11, 70, 0
13, 63240, Note_on_c, 11, 69, 44
13, 63344, Note_on_c, 11, 69, 0
13, 63360, Note_on_c, 11, 70, 44
13, 63539, Note_on_c, 11, 70, 0
13, 63600, Note_on_c, 11, 70, 44
13, 63719, Note_on_c, 11, 70, 0
13, 63720, Note_on_c, 11, 69, 44
13, 63839, Note_on_c, 11, 69, 0
13, 63840, Note_on_c, 11, 70, 44
13, 63959, Note_on_c, 11, 70, 0
13, 63960, Note_on_c, 11, 69, 44
13, 64079, Note_on_c, 11, 69, 0
13, 64080, Note_on_c, 11, 70, 44
13, 64199, Note_on_c, 11, 70, 0
13, 64200, Note_on_c, 11, 69, 44
13, 64304, Note_on_c, 11, 69, 0
13, 64320, Note_on_c, 11, 70, 44
13, 64499, Note_on_c, 11, 70, 0
13, 64560, Note_on_c, 11, 70, 44
13, 64679, Note_on_c, 11, 70, 0
13, 64680, Note_on_c, 11, 69, 44
13, 64799, Note_on_c, 11, 69, 0
13, 64800, Note_on_c, 11, 70, 44
13, 64919, Note_on_c, 11, 70, 0
13, 64920, Note_on_c, 11, 69, 44
13, 65039, Note_on_c, 11, 69, 0
13, 65040, Note_on_c, 11, 70, 44
13, 65159, Note_on_c, 11, 70, 0
13, 65160, Note_on_c, 11, 71, 44
13, 65264, Note_on_c, 11, 71, 0
13, 65280, Note_on_c, 11, 72, 44
13, 66464, Note_on_c, 11, 72, 0
13, 66480, Note_on_c, 11, 72, 44
13, 66599, Note_on_c, 11, 72, 0
13, 66600, Note_on_c, 11, 71, 44
13, 66719, Note_on_c, 11, 71, 0
13, 66720, Note_on_c, 11, 72, 44
13, 66839, Note_on_c, 11, 72, 0
13, 66840, Note_on_c, 11, 71, 44
13, 66959, Note_on_c, 11, 71, 0
13, 66960, Note_on_c, 11, 72, 44
13, 67079, Note_on_c, 11, 72, 0
13, 67080, Note_on_c, 11, 71, 44
13, 67184, Note_on_c, 11, 71, 0
13, 67200, Note_on_c, 11, 72, 44
13, 67379, Note_on_c, 11, 72, 0
13, 67440, Note_on_c, 11, 72, 44
13, 67559, Note_on_c, 11, 72, 0
13, 67560, Note_on_c, 11, 71, 44
13, 67679, Note_on_c, 11, 71, 0
13, 67680, Note_on_c, 11, 72, 44
13, 67799, Note_on_c, 11, 72, 0
13, 67800, Note_on_c, 11, 71, 44
13, 67919, Note_on_c, 11, 71, 0
13, 67920, Note_on_c, 11, 72, 44
13, 68039, Note_on_c, 11, 72, 0
13, 68040, Note_on_c, 11, 71, 44
13, 68144, Note_on_c, 11, 71, 0
13, 68160, Note_on_c, 11, 72, 44
13, 68339, Note_on_c, 11, 72, 0
13, 68400, Note_on_c, 11, 72, 44
13, 68519, Note_on_c, 11, 72, 0
13, 68520, Note_on_c, 11, 71, 44
13, 68639, Note_on_c, 11, 71, 0
13, 68640, Note_on_c, 11, 72, 44
13, 68759, Note_on_c, 11, 72, 0
13, 68760, Note_on_c, 11, 71, 44
13, 68879, Note_on_c, 11, 71, 0
13, 68880, Note_on_c, 11, 72, 44
13, 68999, Note_on_c, 11, 72, 0
13, 69000, Note_on_c, 11, 73, 44
13, 69104, Note_on_c, 11, 73, 0
13, 69120, Note_on_c, 11, 74, 44
13, 70304, Note_on_c, 11, 74, 0
13, 70320, Note_on_c, 11, 74, 44
13, 70439, Note_on_c, 11, 74, 0
13, 70440, Note_on_c, 11, 73, 44
13, 70559, Note_on_c, 11, 73, 0
13, 70560, Note_on_c, 11, 74, 44
13, 70679, Note_on_c, 11, 74, 0
13, 70680, Note_on_c, 11, 73, 44
13, 70799, Note_on_c, 11, 73, 0
13, 70800, Note_on_c, 11, 74, 44
13, 70904, Note_on_c, 11, 74, 0
13, 70920, Note_on_c, 11, 74, 44
13, 71024, Note_on_c, 11, 74, 0
13, 71040, Note_on_c, 11, 76, 44
13, 72224, Note_on_c, 11, 76, 0
13, 72240, Note_on_c, 11, 79, 44
13, 72359, Note_on_c, 11, 79, 0
13, 72360, Note_on_c, 11, 78, 44
13, 72479, Note_on_c, 11, 78, 0
13, 72480, Note_on_c, 11, 79, 44
13, 72599, Note_on_c, 11, 79, 0
13, 72600, Note_on_c, 11, 78, 44
13, 72719, Note_on_c, 11, 78, 0
13, 72720, Note_on_c, 11, 79, 44
13, 72824, Note_on_c, 11, 79, 0
13, 72840, Note_on_c, 11, 79, 44
13, 72944, Note_on_c, 11, 79, 0
13, 72960, Note_on_c, 11, 72, 44
13, 72960, Note_on_c, 11, 81, 44
13, 73079, Note_on_c, 11, 72, 0
13, 73079, Note_on_c, 11, 81, 0
13, 73080, Note_on_c, 11, 72, 45
13, 73080, Note_on_c, 11, 81, 45
13, 73199, Note_on_c, 11, 72, 0
13, 73199, Note_on_c, 11, 81, 0
13, 73200, Note_on_c, 11, 72, 46
13, 73200, Note_on_c, 11, 81, 46
13, 73319, Note_on_c, 11, 72, 0
13, 73319, Note_on_c, 11, 81, 0
13, 73320, Note_on_c, 11, 72, 47
13, 73320, Note_on_c, 11, 81, 47
13, 73439, Note_on_c, 11, 72, 0
13, 73439, Note_on_c, 11, 81, 0
13, 73440, Note_on_c, 11, 81, 49
13, 73440, Note_on_c, 11, 72, 49
13, 73559, Note_on_c, 11, 81, 0
13, 73559, Note_on_c, 11, 72, 0
13, 73560, Note_on_c, 11, 81, 50
13, 73560, Note_on_c, 11, 72, 50
13, 73679, Note_on_c, 11, 81, 0
13, 73679, Note_on_c, 11, 72, 0
13, 73680, Note_on_c, 11, 81, 51
13, 73680, Note_on_c, 11, 72, 51
13, 73799, Note_on_c, 11, 81, 0
13, 73799, Note_on_c, 11, 72, 0
13, 73800, Note_on_c, 11, 72, 52
13, 73800, Note_on_c, 11, 81, 52
13, 73919, Note_on_c, 11, 72, 0
13, 73919, Note_on_c, 11, 81, 0
13, 73920, Note_on_c, 11, 72, 54
13, 73920, Note_on_c, 11, 81, 54
13, 74039, Note_on_c, 11, 72, 0
13, 74039, Note_on_c, 11, 81, 0
13, 74040, Note_on_c, 11, 72, 55
13, 74040, Note_on_c, 11, 81, 55
13, 74159, Note_on_c, 11, 72, 0
13, 74159, Note_on_c, 11, 81, 0
13, 74160, Note_on_c, 11, 72, 56
13, 74160, Note_on_c, 11, 81, 56
13, 74279, Note_on_c, 11, 72, 0
13, 74279, Note_on_c, 11, 81, 0
13, 74280, Note_on_c, 11, 81, 57
13, 74280, Note_on_c, 11, 72, 57
13, 74399, Note_on_c, 11, 81, 0
13, 74399, Note_on_c, 11, 72, 0
13, 74400, Note_on_c, 11, 72, 59
13, 74400, Note_on_c, 11, 81, 59
13, 74519, Note_on_c, 11, 72, 0
13, 74519, Note_on_c, 11, 81, 0
13, 74520, Note_on_c, 11, 81, 60
13, 74520, Note_on_c, 11, 72, 60
13, 74639, Note_on_c, 11, 81, 0
13, 74639, Note_on_c, 11, 72, 0
13, 74640, Note_on_c, 11, 81, 61
13, 74640, Note_on_c, 11, 72, 61
13, 74759, Note_on_c, 11, 81, 0
13, 74759, Note_on_c, 11, 72, 0
13, 74760, Note_on_c, 11, 72, 62
13, 74760, Note_on_c, 11, 81, 62
13, 74879, Note_on_c, 11, 72, 0
13, 74879, Note_on_c, 11, 81, 0
13, 74880, Note_on_c, 11, 81, 64
13, 74880, Note_on_c, 11, 72, 64
13, 74999, Note_on_c, 11, 81, 0
13, 74999, Note_on_c, 11, 72, 0
13, 75000, Note_on_c, 11, 72, 65
13, 75000, Note_on_c, 11, 81, 65
13, 75119, Note_on_c, 11, 72, 0
13, 75119, Note_on_c, 11, 81, 0
13, 75120, Note_on_c, 11, 81, 66
13, 75120, Note_on_c, 11, 72, 66
13, 75239, Note_on_c, 11, 81, 0
13, 75239, Note_on_c, 11, 72, 0
13, 75240, Note_on_c, 11, 72, 67
13, 75240, Note_on_c, 11, 81, 67
13, 75359, Note_on_c, 11, 72, 0
13, 75359, Note_on_c, 11, 81, 0
13, 75360, Note_on_c, 11, 72, 69
13, 75360, Note_on_c, 11, 81, 69
13, 75479, Note_on_c, 11, 72, 0
13, 75479, Note_on_c, 11, 81, 0
13, 75480, Note_on_c, 11, 81, 70
13, 75480, Note_on_c, 11, 72, 70
13, 75599, Note_on_c, 11, 81, 0
13, 75599, Note_on_c, 11, 72, 0
13, 75600, Note_on_c, 11, 72, 71
13, 75600, Note_on_c, 11, 81, 71
13, 75719, Note_on_c, 11, 72, 0
13, 75719, Note_on_c, 11, 81, 0
13, 75720, Note_on_c, 11, 72, 72
13, 75720, Note_on_c, 11, 81, 72
13, 75839, Note_on_c, 11, 72, 0
13, 75839, Note_on_c, 11, 81, 0
13, 75840, Note_on_c, 11, 81, 74
13, 75840, Note_on_c, 11, 72, 74
13, 75959, Note_on_c, 11, 81, 0
13, 75959, Note_on_c, 11, 72, 0
13, 75960, Note_on_c, 11, 72, 75
13, 75960, Note_on_c, 11, 81, 75
13, 76079, Note_on_c, 11, 72, 0
13, 76079, Note_on_c, 11, 81, 0
13, 76080, Note_on_c, 11, 81, 76
13, 76080, Note_on_c, 11, 72, 76
13, 76199, Note_on_c, 11, 81, 0
13, 76199, Note_on_c, 11, 72, 0
13, 76200, Note_on_c, 11, 81, 77
13, 76200, Note_on_c, 11, 72, 77
13, 76319, Note_on_c, 11, 81, 0
13, 76319, Note_on_c, 11, 72, 0
13, 76320, Note_on_c, 11, 81, 79
13, 76320, Note_on_c, 11, 72, 79
13, 76439, Note_on_c, 11, 81, 0
13, 76439, Note_on_c, 11, 72, 0
13, 76440, Note_on_c, 11, 81, 80
13, 76440, Note_on_c, 11, 72, 80
13, 76559, Note_on_c, 11, 81, 0
13, 76559, Note_on_c, 11, 72, 0
13, 76560, Note_on_c, 11, 72, 81
13, 76560, Note_on_c, 11, 81, 81
13, 76679, Note_on_c, 11, 72, 0
13, 76679, Note_on_c, 11, 81, 0
13, 76680, Note_on_c, 11, 81, 82
13, 76680, Note_on_c, 11, 72, 82
13, 76799, Note_on_c, 11, 81, 0
13, 76799, Note_on_c, 11, 72, 0
13, 76800, Note_on_c, 11, 70, 84
13, 76800, Note_on_c, 11, 82, 84
13, 77759, Note_on_c, 11, 70, 0
13, 77759, Note_on_c, 11, 82, 0
13, 77760, Note_on_c, 11, 70, 84
13, 77760, Note_on_c, 11, 82, 84
13, 78704, Note_on_c, 11, 70, 0
13, 78704, Note_on_c, 11, 82, 0
13, 78720, Note_on_c, 11, 87, 92
13, 79649, Note_on_c, 11, 87, 0
13, 79680, Note_on_c, 11, 89, 92
13, 80369, Note_on_c, 11, 89, 0
13, 80400, Note_on_c, 11, 77, 84
13, 80447, Note_on_c, 11, 77, 0
13, 80448, Note_on_c, 11, 79, 84
13, 80495, Note_on_c, 11, 79, 0
13, 80496, Note_on_c, 11, 81, 84
13, 80543, Note_on_c, 11, 81, 0
13, 80544, Note_on_c, 11, 82, 84
13, 80591, Note_on_c, 11, 82, 0
13, 80592, Note_on_c, 11, 84, 84
13, 80631, Note_on_c, 11, 84, 0
13, 80640, Note_on_c, 11, 86, 92
13, 80744, Note_on_c, 11, 86, 0
13, 80760, Note_on_c, 11, 86, 84
13, 80864, Note_on_c, 11, 86, 0
13, 80880, Note_on_c, 11, 82, 84
13, 80984, Note_on_c, 11, 82, 0
13, 81000, Note_on_c, 11, 82, 84
13, 81104, Note_on_c, 11, 82, 0
13, 81120, Note_on_c, 11, 77, 84
13, 81224, Note_on_c, 11, 77, 0
13, 81240, Note_on_c, 11, 77, 84
13, 81344, Note_on_c, 11, 77, 0
13, 81360, Note_on_c, 11, 82, 84
13, 81464, Note_on_c, 11, 82, 0
13, 81480, Note_on_c, 11, 82, 84
13, 81584, Note_on_c, 11, 82, 0
13, 81600, Note_on_c, 11, 74, 84
13, 81704, Note_on_c, 11, 74, 0
13, 81720, Note_on_c, 11, 74, 84
13, 81824, Note_on_c, 11, 74, 0
13, 81840, Note_on_c, 11, 77, 84
13, 81944, Note_on_c, 11, 77, 0
13, 81960, Note_on_c, 11, 77, 84
13, 82064, Note_on_c, 11, 77, 0
13, 82080, Note_on_c, 11, 70, 84
13, 82184, Note_on_c, 11, 70, 0
13, 82200, Note_on_c, 11, 70, 84
13, 82304, Note_on_c, 11, 70, 0
13, 82320, Note_on_c, 11, 74, 84
13, 82424, Note_on_c, 11, 74, 0
13, 82440, Note_on_c, 11, 74, 84
13, 82544, Note_on_c, 11, 74, 0
13, 82560, Note_on_c, 11, 67, 84
13, 82664, Note_on_c, 11, 67, 0
13, 82680, Note_on_c, 11, 67, 84
13, 82784, Note_on_c, 11, 67, 0
13, 82800, Note_on_c, 11, 75, 84
13, 82904, Note_on_c, 11, 75, 0
13, 82920, Note_on_c, 11, 75, 84
13, 83024, Note_on_c, 11, 75, 0
13, 83040, Note_on_c, 11, 72, 84
13, 83144, Note_on_c, 11, 72, 0
13, 83160, Note_on_c, 11, 72, 84
13, 83264, Note_on_c, 11, 72, 0
13, 83280, Note_on_c, 11, 70, 84
13, 83384, Note_on_c, 11, 70, 0
13, 83400, Note_on_c, 11, 70, 84
13, 83504, Note_on_c, 11, 70, 0
13, 83520, Note_on_c, 11, 69, 84
13, 83624, Note_on_c, 11, 69, 0
13, 83640, Note_on_c, 11, 69, 84
13, 83744, Note_on_c, 11, 69, 0
13, 83760, Note_on_c, 11, 77, 84
13, 83864, Note_on_c, 11, 77, 0
13, 83880, Note_on_c, 11, 77, 84
13, 83984, Note_on_c, 11, 77, 0
13, 84000, Note_on_c, 11, 75, 84
13, 84104, Note_on_c, 11, 75, 0
13, 84120, Note_on_c, 11, 75, 84
13, 84224, Note_on_c, 11, 75, 0
13, 84240, Note_on_c, 11, 72, 84
13, 84344, Note_on_c, 11, 72, 0
13, 84360, Note_on_c, 11, 72, 84
13, 84464, Note_on_c, 11, 72, 0
13, 84480, Note_on_c, 11, 70, 84
13, 84584, Note_on_c, 11, 70, 0
13, 84600, Note_on_c, 11, 70, 84
13, 84704, Note_on_c, 11, 70, 0
13, 84720, Note_on_c, 11, 79, 84
13, 84824, Note_on_c, 11, 79, 0
13, 84840, Note_on_c, 11, 79, 84
13, 84944, Note_on_c, 11, 79, 0
13, 84960, Note_on_c, 11, 76, 84
13, 85064, Note_on_c, 11, 76, 0
13, 85080, Note_on_c, 11, 76, 84
13, 85184, Note_on_c, 11, 76, 0
13, 85200, Note_on_c, 11, 74, 84
13, 85304, Note_on_c, 11, 74, 0
13, 85320, Note_on_c, 11, 74, 84
13, 85424, Note_on_c, 11, 74, 0
13, 85440, Note_on_c, 11, 73, 84
13, 85544, Note_on_c, 11, 73, 0
13, 85560, Note_on_c, 11, 73, 84
13, 85664, Note_on_c, 11, 73, 0
13, 85680, Note_on_c, 11, 81, 84
13, 85784, Note_on_c, 11, 81, 0
13, 85800, Note_on_c, 11, 81, 84
13, 85904, Note_on_c, 11, 81, 0
13, 85920, Note_on_c, 11, 79, 84
13, 86024, Note_on_c, 11, 79, 0
13, 86040, Note_on_c, 11, 79, 84
13, 86144, Note_on_c, 11, 79, 0
13, 86160, Note_on_c, 11, 76, 84
13, 86264, Note_on_c, 11, 76, 0
13, 86280, Note_on_c, 11, 76, 84
13, 86384, Note_on_c, 11, 76, 0
13, 86400, Note_on_c, 11, 74, 84
13, 86504, Note_on_c, 11, 74, 0
13, 86520, Note_on_c, 11, 74, 84
13, 86624, Note_on_c, 11, 74, 0
13, 86640, Note_on_c, 11, 83, 84
13, 86744, Note_on_c, 11, 83, 0
13, 86760, Note_on_c, 11, 83, 84
13, 86864, Note_on_c, 11, 83, 0
13, 86880, Note_on_c, 11, 80, 84
13, 86984, Note_on_c, 11, 80, 0
13, 87000, Note_on_c, 11, 80, 84
13, 87104, Note_on_c, 11, 80, 0
13, 87120, Note_on_c, 11, 77, 84
13, 87224, Note_on_c, 11, 77, 0
13, 87240, Note_on_c, 11, 77, 84
13, 87344, Note_on_c, 11, 77, 0
13, 87360, Note_on_c, 11, 76, 84
13, 87464, Note_on_c, 11, 76, 0
13, 87480, Note_on_c, 11, 76, 84
13, 87584, Note_on_c, 11, 76, 0
13, 87600, Note_on_c, 11, 84, 84
13, 87704, Note_on_c, 11, 84, 0
13, 87720, Note_on_c, 11, 84, 84
13, 87824, Note_on_c, 11, 84, 0
13, 87840, Note_on_c, 11, 82, 84
13, 87944, Note_on_c, 11, 82, 0
13, 87960, Note_on_c, 11, 82, 84
13, 88064, Note_on_c, 11, 82, 0
13, 88080, Note_on_c, 11, 79, 84
13, 88184, Note_on_c, 11, 79, 0
13, 88200, Note_on_c, 11, 79, 84
13, 88304, Note_on_c, 11, 79, 0
13, 88320, Note_on_c, 11, 76, 84
13, 88424, Note_on_c, 11, 76, 0
13, 88440, Note_on_c, 11, 76, 84
13, 88544, Note_on_c, 11, 76, 0
13, 88560, Note_on_c, 11, 72, 84
13, 88664, Note_on_c, 11, 72, 0
13, 88680, Note_on_c, 11, 72, 84
13, 88784, Note_on_c, 11, 72, 0
13, 88800, Note_on_c, 11, 70, 84
13, 88904, Note_on_c, 11, 70, 0
13, 88920, Note_on_c, 11, 70, 84
13, 89024, Note_on_c, 11, 70, 0
13, 89040, Note_on_c, 11, 67, 84
13, 89144, Note_on_c, 11, 67, 0
13, 89160, Note_on_c, 11, 67, 84
13, 89264, Note_on_c, 11, 67, 0
13, 89280, Note_on_c, 11, 68, 84
13, 89384, Note_on_c, 11, 68, 0
13, 89400, Note_on_c, 11, 68, 84
13, 89504, Note_on_c, 11, 68, 0
13, 89520, Note_on_c, 11, 65, 84
13, 89624, Note_on_c, 11, 65, 0
13, 89640, Note_on_c, 11, 65, 84
13, 89744, Note_on_c, 11, 65, 0
13, 89760, Note_on_c, 11, 63, 84
13, 89864, Note_on_c, 11, 63, 0
13, 89880, Note_on_c, 11, 63, 84
13, 89984, Note_on_c, 11, 63, 0
13, 90000, Note_on_c, 11, 61, 84
13, 90104, Note_on_c, 11, 61, 0
13, 90120, Note_on_c, 11, 61, 84
13, 90224, Note_on_c, 11, 61, 0
13, 90240, Note_on_c, 11, 60, 84
13, 90479, Note_on_c, 11, 60, 0
13, 93360, Note_on_c, 11, 83, 92
13, 93839, Note_on_c, 11, 83, 0
13, 93840, Note_on_c, 11, 84, 84
13, 94064, Note_on_c, 11, 84, 0
13, 94080, Note_on_c, 11, 84, 84
13, 94259, Note_on_c, 11, 84, 0
13, 94320, Note_on_c, 11, 79, 84
13, 94784, Note_on_c, 11, 79, 0
13, 94800, Note_on_c, 11, 80, 84
13, 95264, Note_on_c, 11, 80, 0
13, 95280, Note_on_c, 11, 82, 84
13, 95744, Note_on_c, 11, 82, 0
13, 95760, Note_on_c, 11, 77, 84
13, 96224, Note_on_c, 11, 77, 0
13, 96240, Note_on_c, 11, 79, 84
13, 96704, Note_on_c, 11, 79, 0
13, 96720, Note_on_c, 11, 80, 84
13, 97184, Note_on_c, 11, 80, 0
13, 97200, Note_on_c, 11, 83, 92
13, 97679, Note_on_c, 11, 83, 0
13, 97680, Note_on_c, 11, 84, 84
13, 97904, Note_on_c, 11, 84, 0
13, 97920, Note_on_c, 11, 84, 92
13, 97980, Control_c, 11, 11, 112
13, 98138, Control_c, 11, 11, 110
13, 98295, Control_c, 11, 11, 108
13, 98453, Control_c, 11, 11, 106
13, 98610, Control_c, 11, 11, 104
13, 98768, Control_c, 11, 11, 102
13, 98879, Note_on_c, 11, 84, 0
13, 98880, Note_on_c, 11, 84, 84
13, 98925, Control_c, 11, 11, 100
13, 99083, Control_c, 11, 11, 98
13, 99240, Control_c, 11, 11, 96
13, 99398, Control_c, 11, 11, 94
13, 99555, Control_c, 11, 11, 92
13, 99713, Control_c, 11, 11, 90
13, 99839, Note_on_c, 11, 84, 0
13, 99840, Note_on_c, 11, 84, 84
13, 99870, Control_c, 11, 11, 88
13, 100028, Control_c, 11, 11, 86
13, 100185, Control_c, 11, 11, 84
13, 100304, Note_on_c, 11, 84, 0
13, 100320, Note_on_c, 11, 72, 84
13, 100343, Control_c, 11, 11, 82
13, 100500, Control_c, 11, 11, 80
13, 100658, Control_c, 11, 11, 78
13, 100815, Control_c, 11, 11, 76
13, 100973, Control_c, 11, 11, 74
13, 101130, Control_c, 11, 11, 72
13, 101279, Note_on_c, 11, 72, 0
13, 101280, Note_on_c, 11, 64, 84
13, 101288, Control_c, 11, 11, 70
13, 101445, Control_c, 11, 11, 68
13, 101603, Control_c, 11, 11, 64
13, 101752, Control_c, 11, 11, 80
13, 101759, Note_on_c, 11, 64, 0
13, 101760, Note_on_c, 11, 65, 76
13, 103679, Note_on_c, 11, 65, 0
13, 103680, Note_on_c, 11, 65, 76
13, 105584, Note_on_c, 11, 65, 0
13, 105592, Control_c, 11, 11, 96
13, 105600, Note_on_c, 11, 65, 68
13, 107504, Note_on_c, 11, 65, 0
13, 107512, Control_c, 11, 11, 112
13, 107520, Note_on_c, 11, 64, 60
13, 107699, Note_on_c, 11, 64, 0
13, 107760, Note_on_c, 11, 61, 60
13, 107939, Note_on_c, 11, 61, 0
13, 108000, Note_on_c, 11, 64, 60
13, 108179, Note_on_c, 11, 64, 0
13, 108480, Control_c, 11, 11, 127
13, 108720, Note_on_c, 11, 62, 52
13, 108899, Note_on_c, 11, 62, 0
13, 108960, Note_on_c, 11, 65, 52
13, 109139, Note_on_c, 11, 65, 0
13, 109680, Note_on_c, 11, 64, 52
13, 109859, Note_on_c, 11, 64, 0
13, 109920, Note_on_c, 11, 67, 52
13, 110099, Note_on_c, 11, 67, 0
13, 110640, Note_on_c, 11, 62, 52
13, 110819, Note_on_c, 11, 62, 0
13, 110880, Note_on_c, 11, 65, 52
13, 111059, Note_on_c, 11, 65, 0
13, 111360, Note_on_c, 11, 81, 52
13, 111599, Note_on_c, 11, 81, 0
13, 111600, Note_on_c, 11, 80, 52
13, 111839, Note_on_c, 11, 80, 0
13, 111840, Note_on_c, 11, 81, 52
13, 112079, Note_on_c, 11, 81, 0
13, 112080, Note_on_c, 11, 79, 52
13, 112319, Note_on_c, 11, 79, 0
13, 112320, Note_on_c, 11, 77, 52
13, 112559, Note_on_c, 11, 77, 0
13, 112560, Note_on_c, 11, 76, 52
13, 112799, Note_on_c, 11, 76, 0
13, 112800, Note_on_c, 11, 77, 52
13, 113039, Note_on_c, 11, 77, 0
13, 113040, Note_on_c, 11, 74, 52
13, 113279, Note_on_c, 11, 74, 0
13, 113280, Note_on_c, 11, 73, 52
13, 113519, Note_on_c, 11, 73, 0
13, 113520, Note_on_c, 11, 71, 52
13, 113759, Note_on_c, 11, 71, 0
13, 113760, Note_on_c, 11, 73, 52
13, 113999, Note_on_c, 11, 73, 0
13, 114000, Note_on_c, 11, 76, 52
13, 114191, Note_on_c, 11, 76, 0
13, 114200, Note_on_c, 11, 76, 52
13, 114239, Note_on_c, 11, 76, 0
13, 114240, Note_on_c, 11, 74, 52
13, 114479, Note_on_c, 11, 74, 0
13, 114480, Note_on_c, 11, 73, 52
13, 114719, Note_on_c, 11, 73, 0
13, 114720, Note_on_c, 11, 74, 52
13, 114959, Note_on_c, 11, 74, 0
13, 114960, Note_on_c, 11, 70, 52
13, 115184, Note_on_c, 11, 70, 0
13, 115198, Control_c, 11, 11, 64
13, 115200, Note_on_c, 11, 69, 76
13, 115559, Note_on_c, 11, 69, 0
13, 115680, Note_on_c, 11, 70, 76
13, 116039, Note_on_c, 11, 70, 0
13, 116160, Note_on_c, 11, 67, 76
13, 116519, Note_on_c, 11, 67, 0
13, 116640, Note_on_c, 11, 71, 76
13, 116999, Note_on_c, 11, 71, 0
13, 117120, Note_on_c, 11, 72, 76
13, 117479, Note_on_c, 11, 72, 0
13, 117600, Note_on_c, 11, 69, 76
13, 117959, Note_on_c, 11, 69, 0
13, 118080, Note_on_c, 11, 72, 76
13, 118080, Control_c, 11, 11, 64
13, 118293, Control_c, 11, 11, 66
13, 118439, Note_on_c, 11, 72, 0
13, 118507, Control_c, 11, 11, 68
13, 118560, Note_on_c, 11, 74, 76
13, 118720, Control_c, 11, 11, 69
13, 118919, Note_on_c, 11, 74, 0
13, 118933, Control_c, 11, 11, 71
13, 119040, Note_on_c, 11, 70, 76
13, 119147, Control_c, 11, 11, 73
13, 119360, Control_c, 11, 11, 75
13, 119399, Note_on_c, 11, 70, 0
13, 119520, Note_on_c, 11, 74, 76
13, 119573, Control_c, 11, 11, 76
13, 119787, Control_c, 11, 11, 78
13, 119879, Note_on_c, 11, 74, 0
13, 120000, Control_c, 11, 11, 80
13, 120000, Note_on_c, 11, 76, 76
13, 120213, Control_c, 11, 11, 82
13, 120359, Note_on_c, 11, 76, 0
13, 120427, Control_c, 11, 11, 83
13, 120480, Note_on_c, 11, 72, 76
13, 120640, Control_c, 11, 11, 85
13, 120839, Note_on_c, 11, 72, 0
13, 120853, Control_c, 11, 11, 87
13, 120960, Note_on_c, 11, 76, 76
13, 121067, Control_c, 11, 11, 89
13, 121280, Control_c, 11, 11, 90
13, 121319, Note_on_c, 11, 76, 0
13, 121440, Note_on_c, 11, 77, 76
13, 121493, Control_c, 11, 11, 92
13, 121707, Control_c, 11, 11, 94
13, 121799, Note_on_c, 11, 77, 0
13, 121920, Control_c, 11, 11, 96
13, 121920, Note_on_c, 11, 74, 76
13, 122133, Control_c, 11, 11, 97
13, 122279, Note_on_c, 11, 74, 0
13, 122347, Control_c, 11, 11, 99
13, 122400, Note_on_c, 11, 78, 76
13, 122560, Control_c, 11, 11, 101
13, 122759, Note_on_c, 11, 78, 0
13, 122773, Control_c, 11, 11, 103
13, 122880, Note_on_c, 11, 79, 76
13, 122987, Control_c, 11, 11, 104
13, 123200, Control_c, 11, 11, 106
13, 123239, Note_on_c, 11, 79, 0
13, 123360, Note_on_c, 11, 76, 76
13, 123413, Control_c, 11, 11, 108
13, 123627, Control_c, 11, 11, 110
13, 123719, Note_on_c, 11, 76, 0
13, 123840, Control_c, 11, 11, 111
13, 123840, Note_on_c, 11, 79, 76
13, 124053, Control_c, 11, 11, 113
13, 124199, Note_on_c, 11, 79, 0
13, 124267, Control_c, 11, 11, 115
13, 124320, Note_on_c, 11, 81, 76
13, 124480, Control_c, 11, 11, 117
13, 124679, Note_on_c, 11, 81, 0
13, 124693, Control_c, 11, 11, 118
13, 124800, Note_on_c, 11, 82, 76
13, 124907, Control_c, 11, 11, 120
13, 125120, Control_c, 11, 11, 122
13, 125159, Note_on_c, 11, 82, 0
13, 125280, Note_on_c, 11, 83, 76
13, 125333, Control_c, 11, 11, 124
13, 125547, Control_c, 11, 11, 127
13, 125639, Note_on_c, 11, 83, 0
13, 125760, Note_on_c, 11, 84, 76
13, 126119, Note_on_c, 11, 84, 0
13, 126240, Note_on_c, 11, 84, 76
13, 126599, Note_on_c, 11, 84, 0
13, 126720, Note_on_c, 11, 84, 76
13, 127079, Note_on_c, 11, 84, 0
13, 127200, Note_on_c, 11, 84, 76
13, 127559, Note_on_c, 11, 84, 0
13, 127680, Note_on_c, 11, 84, 76
13, 128039, Note_on_c, 11, 84, 0
13, 128160, Note_on_c, 11, 84, 76
13, 128519, Note_on_c, 11, 84, 0
13, 128640, Note_on_c, 11, 84, 76
13, 129344, Note_on_c, 11, 84, 0
13, 129360, Note_on_c, 11, 81, 76
13, 129584, Note_on_c, 11, 81, 0
13, 129600, Note_on_c, 11, 86, 76
13, 130304, Note_on_c, 11, 86, 0
13, 130320, Note_on_c, 11, 82, 76
13, 130544, Note_on_c, 11, 82, 0
13, 130560, Note_on_c, 11, 81, 76
13, 131264, Note_on_c, 11, 81, 0
13, 131280, Note_on_c, 11, 81, 76
13, 131504, Note_on_c, 11, 81, 0
13, 131520, Note_on_c, 11, 79, 76
13, 131744, Note_on_c, 11, 79, 0
13, 131760, Note_on_c, 11, 79, 76
13, 131984, Note_on_c, 11, 79, 0
13, 132000, Note_on_c, 11, 79, 76
13, 132059, Note_on_c, 11, 79, 0
13, 132060, Note_on_c, 11, 81, 76
13, 132119, Note_on_c, 11, 81, 0
13, 132120, Note_on_c, 11, 79, 76
13, 132179, Note_on_c, 11, 79, 0
13, 132180, Note_on_c, 11, 81, 76
13, 132239, Note_on_c, 11, 81, 0
13, 132240, Note_on_c, 11, 79, 76
13, 132299, Note_on_c, 11, 79, 0
13, 132300, Note_on_c, 11, 81, 76
13, 132359, Note_on_c, 11, 81, 0
13, 132360, Note_on_c, 11, 77, 76
13, 132419, Note_on_c, 11, 77, 0
13, 132420, Note_on_c, 11, 79, 76
13, 132471, Note_on_c, 11, 79, 0
13, 132480, Note_on_c, 11, 84, 76
13, 132719, Note_on_c, 11, 84, 0
13, 132720, Note_on_c, 11, 81, 76
13, 132944, Note_on_c, 11, 81, 0
13, 132960, Note_on_c, 11, 86, 76
13, 133199, Note_on_c, 11, 86, 0
13, 133200, Note_on_c, 11, 82, 76
13, 133424, Note_on_c, 11, 82, 0
13, 133440, Note_on_c, 11, 81, 76
13, 133664, Note_on_c, 11, 81, 0
13, 133680, Note_on_c, 11, 81, 76
13, 133904, Note_on_c, 11, 81, 0
13, 133920, Note_on_c, 11, 79, 76
13, 133979, Note_on_c, 11, 79, 0
13, 133980, Note_on_c, 11, 81, 76
13, 134039, Note_on_c, 11, 81, 0
13, 134040, Note_on_c, 11, 79, 76
13, 134099, Note_on_c, 11, 79, 0
13, 134100, Note_on_c, 11, 81, 76
13, 134159, Note_on_c, 11, 81, 0
13, 134160, Note_on_c, 11, 79, 76
13, 134219, Note_on_c, 11, 79, 0
13, 134220, Note_on_c, 11, 81, 76
13, 134279, Note_on_c, 11, 81, 0
13, 134280, Note_on_c, 11, 77, 76
13, 134339, Note_on_c, 11, 77, 0
13, 134340, Note_on_c, 11, 79, 76
13, 134391, Note_on_c, 11, 79, 0
13, 134400, Note_on_c, 11, 77, 52
13, 134639, Note_on_c, 11, 77, 0
13, 135360, Note_on_c, 11, 65, 52
13, 136079, Note_on_c, 11, 65, 0
13, 136080, Note_on_c, 11, 67, 52
13, 136319, Note_on_c, 11, 67, 0
13, 136320, Note_on_c, 11, 69, 52
13, 136559, Note_on_c, 11, 69, 0
13, 137280, Note_on_c, 11, 72, 52
13, 137999, Note_on_c, 11, 72, 0
13, 138000, Note_on_c, 11, 74, 52
13, 138239, Note_on_c, 11, 74, 0
13, 138240, Note_on_c, 11, 76, 52
13, 138479, Note_on_c, 11, 76, 0
13, 139200, Note_on_c, 11, 76, 52
13, 139919, Note_on_c, 11, 76, 0
13, 139920, Note_on_c, 11, 74, 52
13, 140159, Note_on_c, 11, 74, 0
13, 140160, Note_on_c, 11, 72, 52
13, 140399, Note_on_c, 11, 72, 0
13, 141120, Note_on_c, 11, 72, 52
13, 141824, Note_on_c, 11, 72, 0
13, 141840, Note_on_c, 11, 82, 76
13, 141944, Note_on_c, 11, 82, 0
13, 141960, Note_on_c, 11, 82, 76
13, 142064, Note_on_c, 11, 82, 0
13, 142080, Note_on_c, 11, 81, 76
13, 142184, Note_on_c, 11, 81, 0
13, 142200, Note_on_c, 11, 81, 76
13, 142304, Note_on_c, 11, 81, 0
13, 142320, Note_on_c, 11, 82, 76
13, 142424, Note_on_c, 11, 82, 0
13, 142440, Note_on_c, 11, 82, 76
13, 142544, Note_on_c, 11, 82, 0
13, 142560, Note_on_c, 11, 84, 76
13, 142664, Note_on_c, 11, 84, 0
13, 142680, Note_on_c, 11, 84, 76
13, 142784, Note_on_c, 11, 84, 0
13, 142800, Note_on_c, 11, 72, 76
13, 142904, Note_on_c, 11, 72, 0
13, 142920, Note_on_c, 11, 72, 76
13, 143024, Note_on_c, 11, 72, 0
13, 143040, Note_on_c, 11, 77, 76
13, 143744, Note_on_c, 11, 77, 0
13, 143760, Note_on_c, 11, 79, 76
13, 143864, Note_on_c, 11, 79, 0
13, 143880, Note_on_c, 11, 79, 76
13, 143984, Note_on_c, 11, 79, 0
13, 144000, Note_on_c, 11, 81, 76
13, 144104, Note_on_c, 11, 81, 0
13, 144120, Note_on_c, 11, 81, 76
13, 144224, Note_on_c, 11, 81, 0
13, 144240, Note_on_c, 11, 77, 76
13, 144344, Note_on_c, 11, 77, 0
13, 144360, Note_on_c, 11, 77, 76
13, 144464, Note_on_c, 11, 77, 0
13, 144480, Note_on_c, 11, 81, 76
13, 144584, Note_on_c, 11, 81, 0
13, 144600, Note_on_c, 11, 81, 76
13, 144704, Note_on_c, 11, 81, 0
13, 144720, Note_on_c, 11, 82, 76
13, 144824, Note_on_c, 11, 82, 0
13, 144840, Note_on_c, 11, 82, 76
13, 144944, Note_on_c, 11, 82, 0
13, 144960, Note_on_c, 11, 84, 76
13, 145664, Note_on_c, 11, 84, 0
13, 145680, Note_on_c, 11, 86, 76
13, 145784, Note_on_c, 11, 86, 0
13, 145800, Note_on_c, 11, 86, 76
13, 145904, Note_on_c, 11, 86, 0
13, 145920, Note_on_c, 11, 88, 76
13, 146024, Note_on_c, 11, 88, 0
13, 146040, Note_on_c, 11, 88, 76
13, 146144, Note_on_c, 11, 88, 0
13, 146160, Note_on_c, 11, 89, 76
13, 146264, Note_on_c, 11, 89, 0
13, 146280, Note_on_c, 11, 89, 76
13, 146384, Note_on_c, 11, 89, 0
13, 146400, Note_on_c, 11, 91, 76
13, 146504, Note_on_c, 11, 91, 0
13, 146520, Note_on_c, 11, 91, 76
13, 146624, Note_on_c, 11, 91, 0
13, 146640, Note_on_c, 11, 89, 76
13, 146744, Note_on_c, 11, 89, 0
13, 146760, Note_on_c, 11, 89, 76
13, 146864, Note_on_c, 11, 89, 0
13, 146880, Note_on_c, 11, 88, 76
13, 147584, Note_on_c, 11, 88, 0
13, 147600, Note_on_c, 11, 86, 76
13, 147704, Note_on_c, 11, 86, 0
13, 147720, Note_on_c, 11, 86, 76
13, 147824, Note_on_c, 11, 86, 0
13, 147840, Note_on_c, 11, 84, 76
13, 147944, Note_on_c, 11, 84, 0
13, 147960, Note_on_c, 11, 84, 76
13, 148064, Note_on_c, 11, 84, 0
13, 148080, Note_on_c, 11, 86, 76
13, 148184, Note_on_c, 11, 86, 0
13, 148200, Note_on_c, 11, 86, 76
13, 148304, Note_on_c, 11, 86, 0
13, 148320, Note_on_c, 11, 82, 76
13, 148424, Note_on_c, 11, 82, 0
13, 148440, Note_on_c, 11, 82, 76
13, 148544, Note_on_c, 11, 82, 0
13, 148560, Note_on_c, 11, 79, 76
13, 148664, Note_on_c, 11, 79, 0
13, 148680, Note_on_c, 11, 79, 76
13, 148784, Note_on_c, 11, 79, 0
13, 148800, Note_on_c, 11, 76, 76
13, 149759, Note_on_c, 11, 76, 0
13, 150960, Note_on_c, 11, 76, 52
13, 151199, Note_on_c, 11, 76, 0
13, 151200, Note_on_c, 11, 79, 52
13, 151439, Note_on_c, 11, 79, 0
13, 151440, Note_on_c, 11, 82, 52
13, 151664, Note_on_c, 11, 82, 0
13, 151680, Note_on_c, 11, 86, 44
13, 151784, Note_on_c, 11, 86, 0
13, 151800, Note_on_c, 11, 86, 44
13, 151904, Note_on_c, 11, 86, 0
13, 151920, Note_on_c, 11, 86, 44
13, 152024, Note_on_c, 11, 86, 0
13, 152040, Note_on_c, 11, 86, 44
13, 152144, Note_on_c, 11, 86, 0
13, 152160, Note_on_c, 11, 86, 44
13, 152264, Note_on_c, 11, 86, 0
13, 152280, Note_on_c, 11, 86, 44
13, 152384, Note_on_c, 11, 86, 0
13, 152400, Note_on_c, 11, 86, 44
13, 152504, Note_on_c, 11, 86, 0
13, 152520, Note_on_c, 11, 86, 44
13, 152624, Note_on_c, 11, 86, 0
13, 152640, Note_on_c, 11, 86, 44
13, 152744, Note_on_c, 11, 86, 0
13, 152760, Note_on_c, 11, 86, 44
13, 152864, Note_on_c, 11, 86, 0
13, 152880, Note_on_c, 11, 86, 44
13, 152984, Note_on_c, 11, 86, 0
13, 153000, Note_on_c, 11, 86, 44
13, 153104, Note_on_c, 11, 86, 0
13, 153120, Note_on_c, 11, 86, 44
13, 153224, Note_on_c, 11, 86, 0
13, 153240, Note_on_c, 11, 86, 44
13, 153344, Note_on_c, 11, 86, 0
13, 153360, Note_on_c, 11, 86, 44
13, 153464, Note_on_c, 11, 86, 0
13, 153480, Note_on_c, 11, 86, 44
13, 153584, Note_on_c, 11, 86, 0
13, 153600, Note_on_c, 11, 69, 84
13, 153600, Note_on_c, 11, 84, 84
13, 153839, Note_on_c, 11, 69, 0
13, 153839, Note_on_c, 11, 84, 0
13, 154320, Note_on_c, 11, 77, 84
13, 154320, Note_on_c, 11, 69, 84
13, 154544, Note_on_c, 11, 77, 0
13, 154544, Note_on_c, 11, 69, 0
13, 154560, Note_on_c, 11, 77, 84
13, 154560, Note_on_c, 11, 67, 84
13, 154799, Note_on_c, 11, 77, 0
13, 154799, Note_on_c, 11, 67, 0
13, 155040, Note_on_c, 11, 67, 84
13, 155040, Note_on_c, 11, 76, 84
13, 155279, Note_on_c, 11, 67, 0
13, 155279, Note_on_c, 11, 76, 0
13, 155520, Note_on_c, 11, 86, 44
13, 155624, Note_on_c, 11, 86, 0
13, 155640, Note_on_c, 11, 86, 44
13, 155744, Note_on_c, 11, 86, 0
13, 155760, Note_on_c, 11, 86, 44
13, 155864, Note_on_c, 11, 86, 0
13, 155880, Note_on_c, 11, 86, 44
13, 155984, Note_on_c, 11, 86, 0
13, 156000, Note_on_c, 11, 86, 44
13, 156104, Note_on_c, 11, 86, 0
13, 156120, Note_on_c, 11, 86, 44
13, 156224, Note_on_c, 11, 86, 0
13, 156240, Note_on_c, 11, 86, 44
13, 156344, Note_on_c, 11, 86, 0
13, 156360, Note_on_c, 11, 86, 44
13, 156464, Note_on_c, 11, 86, 0
13, 156480, Note_on_c, 11, 86, 44
13, 156584, Note_on_c, 11, 86, 0
13, 156600, Note_on_c, 11, 86, 44
13, 156704, Note_on_c, 11, 86, 0
13, 156720, Note_on_c, 11, 86, 44
13, 156824, Note_on_c, 11, 86, 0
13, 156840, Note_on_c, 11, 86, 44
13, 156944, Note_on_c, 11, 86, 0
13, 156960, Note_on_c, 11, 86, 44
13, 157064, Note_on_c, 11, 86, 0
13, 157080, Note_on_c, 11, 86, 44
13, 157184, Note_on_c, 11, 86, 0
13, 157200, Note_on_c, 11, 86, 44
13, 157304, Note_on_c, 11, 86, 0
13, 157320, Note_on_c, 11, 86, 44
13, 157424, Note_on_c, 11, 86, 0
13, 157440, Note_on_c, 11, 69, 84
13, 157440, Note_on_c, 11, 84, 84
13, 157679, Note_on_c, 11, 69, 0
13, 157679, Note_on_c, 11, 84, 0
13, 158160, Note_on_c, 11, 77, 84
13, 158160, Note_on_c, 11, 69, 84
13, 158384, Note_on_c, 11, 77, 0
13, 158384, Note_on_c, 11, 69, 0
13, 158400, Note_on_c, 11, 77, 84
13, 158400, Note_on_c, 11, 67, 84
13, 158639, Note_on_c, 11, 77, 0
13, 158639, Note_on_c, 11, 67, 0
13, 158880, Note_on_c, 11, 76, 84
13, 158880, Note_on_c, 11, 67, 84
13, 159119, Note_on_c, 11, 76, 0
13, 159119, Note_on_c, 11, 67, 0
13, 159360, Note_on_c, 11, 86, 44
13, 159464, Note_on_c, 11, 86, 0
13, 159480, Note_on_c, 11, 86, 46
13, 159584, Note_on_c, 11, 86, 0
13, 159600, Note_on_c, 11, 86, 48
13, 159704, Note_on_c, 11, 86, 0
13, 159720, Note_on_c, 11, 86, 50
13, 159824, Note_on_c, 11, 86, 0
13, 159840, Note_on_c, 11, 86, 52
13, 159944, Note_on_c, 11, 86, 0
13, 159960, Note_on_c, 11, 86, 54
13, 160064, Note_on_c, 11, 86, 0
13, 160080, Note_on_c, 11, 86, 56
13, 160184, Note_on_c, 11, 86, 0
13, 160200, Note_on_c, 11, 86, 58
13, 160304, Note_on_c, 11, 86, 0
13, 160320, Note_on_c, 11, 86, 60
13, 160424, Note_on_c, 11, 86, 0
13, 160440, Note_on_c, 11, 86, 62
13, 160544, Note_on_c, 11, 86, 0
13, 160560, Note_on_c, 11, 86, 64
13, 160664, Note_on_c, 11, 86, 0
13, 160680, Note_on_c, 11, 86, 66
13, 160784, Note_on_c, 11, 86, 0
13, 160800, Note_on_c, 11, 86, 68
13, 160904, Note_on_c, 11, 86, 0
13, 160920, Note_on_c, 11, 86, 70
13, 161024, Note_on_c, 11, 86, 0
13, 161040, Note_on_c, 11, 86, 72
13, 161144, Note_on_c, 11, 86, 0
13, 161160, Note_on_c, 11, 86, 74
13, 161264, Note_on_c, 11, 86, 0
13, 161280, Note_on_c, 11, 86, 76
13, 161384, Note_on_c, 11, 86, 0
13, 161400, Note_on_c, 11, 86, 76
13, 161504, Note_on_c, 11, 86, 0
13, 161520, Note_on_c, 11, 86, 76
13, 161624, Note_on_c, 11, 86, 0
13, 161640, Note_on_c, 11, 86, 76
13, 161744, Note_on_c, 11, 86, 0
13, 161760, Note_on_c, 11, 86, 76
13, 161864, Note_on_c, 11, 86, 0
13, 161880, Note_on_c, 11, 86, 76
13, 161984, Note_on_c, 11, 86, 0
13, 162000, Note_on_c, 11, 86, 76
13, 162104, Note_on_c, 11, 86, 0
13, 162120, Note_on_c, 11, 86, 76
13, 162224, Note_on_c, 11, 86, 0
13, 162240, Note_on_c, 11, 84, 76
13, 162344, Note_on_c, 11, 84, 0
13, 162360, Note_on_c, 11, 84, 76
13, 162464, Note_on_c, 11, 84, 0
13, 162480, Note_on_c, 11, 84, 76
13, 162584, Note_on_c, 11, 84, 0
13, 162600, Note_on_c, 11, 84, 76
13, 162704, Note_on_c, 11, 84, 0
13, 162720, Note_on_c, 11, 84, 76
13, 162824, Note_on_c, 11, 84, 0
13, 162840, Note_on_c, 11, 84, 76
13, 162944, Note_on_c, 11, 84, 0
13, 162960, Note_on_c, 11, 84, 76
13, 163064, Note_on_c, 11, 84, 0
13, 163080, Note_on_c, 11, 84, 76
13, 163184, Note_on_c, 11, 84, 0
13, 163200, Note_on_c, 11, 84, 76
13, 163304, Note_on_c, 11, 84, 0
13, 163320, Note_on_c, 11, 84, 76
13, 163424, Note_on_c, 11, 84, 0
13, 163440, Note_on_c, 11, 84, 76
13, 163544, Note_on_c, 11, 84, 0
13, 163560, Note_on_c, 11, 84, 76
13, 163664, Note_on_c, 11, 84, 0
13, 163680, Note_on_c, 11, 84, 76
13, 163784, Note_on_c, 11, 84, 0
13, 163800, Note_on_c, 11, 84, 76
13, 163904, Note_on_c, 11, 84, 0
13, 163920, Note_on_c, 11, 84, 76
13, 164024, Note_on_c, 11, 84, 0
13, 164040, Note_on_c, 11, 84, 76
13, 164144, Note_on_c, 11, 84, 0
13, 164160, Note_on_c, 11, 84, 76
13, 164264, Note_on_c, 11, 84, 0
13, 164280, Note_on_c, 11, 84, 76
13, 164384, Note_on_c, 11, 84, 0
13, 164400, Note_on_c, 11, 84, 76
13, 164504, Note_on_c, 11, 84, 0
13, 164520, Note_on_c, 11, 84, 76
13, 164624, Note_on_c, 11, 84, 0
13, 164640, Note_on_c, 11, 84, 76
13, 164744, Note_on_c, 11, 84, 0
13, 164760, Note_on_c, 11, 84, 76
13, 164864, Note_on_c, 11, 84, 0
13, 164880, Note_on_c, 11, 84, 76
13, 164984, Note_on_c, 11, 84, 0
13, 165000, Note_on_c, 11, 84, 76
13, 165104, Note_on_c, 11, 84, 0
13, 165120, Note_on_c, 11, 84, 84
13, 165224, Note_on_c, 11, 84, 0
13, 165240, Note_on_c, 11, 89, 84
13, 165344, Note_on_c, 11, 89, 0
13, 165360, Note_on_c, 11, 89, 84
13, 165464, Note_on_c, 11, 89, 0
13, 165480, Note_on_c, 11, 89, 84
13, 165584, Note_on_c, 11, 89, 0
13, 165600, Note_on_c, 11, 89, 84
13, 165704, Note_on_c, 11, 89, 0
13, 165720, Note_on_c, 11, 89, 84
13, 165824, Note_on_c, 11, 89, 0
13, 165840, Note_on_c, 11, 89, 84
13, 165944, Note_on_c, 11, 89, 0
13, 165960, Note_on_c, 11, 89, 84
13, 166064, Note_on_c, 11, 89, 0
13, 166080, Note_on_c, 11, 89, 84
13, 166184, Note_on_c, 11, 89, 0
13, 166200, Note_on_c, 11, 89, 84
13, 166304, Note_on_c, 11, 89, 0
13, 166320, Note_on_c, 11, 89, 84
13, 166424, Note_on_c, 11, 89, 0
13, 166440, Note_on_c, 11, 89, 84
13, 166544, Note_on_c, 11, 89, 0
13, 166560, Note_on_c, 11, 89, 84
13, 166664, Note_on_c, 11, 89, 0
13, 166680, Note_on_c, 11, 89, 84
13, 166784, Note_on_c, 11, 89, 0
13, 166800, Note_on_c, 11, 89, 84
13, 166904, Note_on_c, 11, 89, 0
13, 166920, Note_on_c, 11, 89, 84
13, 167024, Note_on_c, 11, 89, 0
13, 167040, Note_on_c, 11, 89, 84
13, 167144, Note_on_c, 11, 89, 0
13, 167160, Note_on_c, 11, 89, 84
13, 167264, Note_on_c, 11, 89, 0
13, 167280, Note_on_c, 11, 89, 84
13, 167384, Note_on_c, 11, 89, 0
13, 167400, Note_on_c, 11, 89, 84
13, 167504, Note_on_c, 11, 89, 0
13, 167520, Note_on_c, 11, 89, 84
13, 167624, Note_on_c, 11, 89, 0
13, 167640, Note_on_c, 11, 89, 84
13, 167744, Note_on_c, 11, 89, 0
13, 167760, Note_on_c, 11, 89, 84
13, 167864, Note_on_c, 11, 89, 0
13, 167880, Note_on_c, 11, 89, 84
13, 167984, Note_on_c, 11, 89, 0
13, 168000, Note_on_c, 11, 88, 84
13, 168104, Note_on_c, 11, 88, 0
13, 168120, Note_on_c, 11, 88, 84
13, 168224, Note_on_c, 11, 88, 0
13, 168240, Note_on_c, 11, 88, 84
13, 168344, Note_on_c, 11, 88, 0
13, 168360, Note_on_c, 11, 88, 84
13, 168464, Note_on_c, 11, 88, 0
13, 168480, Note_on_c, 11, 88, 84
13, 168584, Note_on_c, 11, 88, 0
13, 168600, Note_on_c, 11, 88, 84
13, 168704, Note_on_c, 11, 88, 0
13, 168720, Note_on_c, 11, 88, 84
13, 168824, Note_on_c, 11, 88, 0
13, 168840, Note_on_c, 11, 88, 84
13, 168944, Note_on_c, 11, 88, 0
13, 168960, Note_on_c, 11, 89, 76
13, 169184, Note_on_c, 11, 89, 0
13, 169200, Note_on_c, 11, 81, 76
13, 169664, Note_on_c, 11, 81, 0
13, 169680, Note_on_c, 11, 82, 76
13, 170144, Note_on_c, 11, 82, 0
13, 170160, Note_on_c, 11, 84, 76
13, 170624, Note_on_c, 11, 84, 0
13, 170640, Note_on_c, 11, 77, 76
13, 171104, Note_on_c, 11, 77, 0
13, 171120, Note_on_c, 11, 79, 76
13, 171584, Note_on_c, 11, 79, 0
13, 171600, Note_on_c, 11, 81, 76
13, 172064, Note_on_c, 11, 81, 0
13, 172080, Note_on_c, 11, 72, 76
13, 172544, Note_on_c, 11, 72, 0
13, 172560, Note_on_c, 11, 70, 76
13, 172560, Note_on_c, 11, 76, 76
13, 172560, Note_on_c, 11, 67, 76
13, 172739, Note_on_c, 11, 70, 0
13, 172739, Note_on_c, 11, 76, 0
13, 172739, Note_on_c, 11, 67, 0
13, 172800, Note_on_c, 11, 69, 76
13, 172800, Note_on_c, 11, 77, 76
13, 172979, Note_on_c, 11, 69, 0
13, 172979, Note_on_c, 11, 77, 0
13, 173040, Note_on_c, 11, 81, 76
13, 173504, Note_on_c, 11, 81, 0
13, 173520, Note_on_c, 11, 82, 76
13, 173984, Note_on_c, 11, 82, 0
13, 174000, Note_on_c, 11, 84, 76
13, 174464, Note_on_c, 11, 84, 0
13, 174480, Note_on_c, 11, 77, 76
13, 174944, Note_on_c, 11, 77, 0
13, 174960, Note_on_c, 11, 79, 76
13, 175424, Note_on_c, 11, 79, 0
13, 175440, Note_on_c, 11, 81, 76
13, 175904, Note_on_c, 11, 81, 0
13, 175920, Note_on_c, 11, 72, 76
13, 176384, Note_on_c, 11, 72, 0
13, 176400, Note_on_c, 11, 67, 76
13, 176400, Note_on_c, 11, 76, 76
13, 176400, Note_on_c, 11, 70, 76
13, 176624, Note_on_c, 11, 67, 0
13, 176624, Note_on_c, 11, 76, 0
13, 176624, Note_on_c, 11, 70, 0
13, 176640, Note_on_c, 11, 77, 76
13, 176640, Note_on_c, 11, 69, 76
13, 176864, Note_on_c, 11, 77, 0
13, 176864, Note_on_c, 11, 69, 0
13, 176880, Note_on_c, 11, 79, 76
13, 177344, Note_on_c, 11, 79, 0
13, 177360, Note_on_c, 11, 81, 76
13, 177824, Note_on_c, 11, 81, 0
13, 177840, Note_on_c, 11, 72, 76
13, 178304, Note_on_c, 11, 72, 0
13, 178320, Note_on_c, 11, 70, 76
13, 178320, Note_on_c, 11, 76, 76
13, 178320, Note_on_c, 11, 67, 76
13, 178544, Note_on_c, 11, 70, 0
13, 178544, Note_on_c, 11, 76, 0
13, 178544, Note_on_c, 11, 67, 0
13, 178560, Note_on_c, 11, 69, 84
13, 178560, Note_on_c, 11, 77, 84
13, 180224, Note_on_c, 11, 69, 0
13, 180224, Note_on_c, 11, 77, 0
13, 180240, Note_on_c, 11, 72, 84
13, 180287, Note_on_c, 11, 72, 0
13, 180288, Note_on_c, 11, 74, 84
13, 180335, Note_on_c, 11, 74, 0
13, 180336, Note_on_c, 11, 76, 84
13, 180383, Note_on_c, 11, 76, 0
13, 180384, Note_on_c, 11, 77, 84
13, 180431, Note_on_c, 11, 77, 0
13, 180432, Note_on_c, 11, 79, 84
13, 180471, Note_on_c, 11, 79, 0
13, 180480, Note_on_c, 11, 81, 84
13, 180719, Note_on_c, 11, 81, 0
13, 182400, Note_on_c, 11, 69, 84
13, 182400, Note_on_c, 11, 81, 84
13, 184064, Note_on_c, 11, 69, 0
13, 184064, Note_on_c, 11, 81, 0
13, 184080, Note_on_c, 11, 75, 84
13, 184127, Note_on_c, 11, 75, 0
13, 184128, Note_on_c, 11, 77, 84
13, 184175, Note_on_c, 11, 77, 0
13, 184176, Note_on_c, 11, 79, 84
13, 184223, Note_on_c, 11, 79, 0
13, 184224, Note_on_c, 11, 81, 84
13, 184271, Note_on_c, 11, 81, 0
13, 184272, Note_on_c, 11, 82, 84
13, 184311, Note_on_c, 11, 82, 0
13, 184320, Note_on_c, 11, 84, 84
13, 184320, Note_on_c, 11, 69, 84
13, 184499, Note_on_c, 11, 84, 0
13, 184499, Note_on_c, 11, 69, 0
13, 185040, Note_on_c, 11, 77, 84
13, 185099, Note_on_c, 11, 77, 0
13, 185100, Note_on_c, 11, 79, 84
13, 185159, Note_on_c, 11, 79, 0
13, 185160, Note_on_c, 11, 81, 84
13, 185219, Note_on_c, 11, 81, 0
13, 185220, Note_on_c, 11, 82, 84
13, 185271, Note_on_c, 11, 82, 0
13, 185280, Note_on_c, 11, 84, 84
13, 185280, Note_on_c, 11, 69, 84
13, 185459, Note_on_c, 11, 84, 0
13, 185459, Note_on_c, 11, 69, 0
13, 186000, Note_on_c, 11, 77, 84
13, 186059, Note_on_c, 11, 77, 0
13, 186060, Note_on_c, 11, 79, 84
13, 186119, Note_on_c, 11, 79, 0
13, 186120, Note_on_c, 11, 81, 84
13, 186179, Note_on_c, 11, 81, 0
13, 186180, Note_on_c, 11, 82, 84
13, 186231, Note_on_c, 11, 82, 0
13, 186240, Note_on_c, 11, 69, 84
13, 186240, Note_on_c, 11, 84, 84
13, 186419, Note_on_c, 11, 69, 0
13, 186419, Note_on_c, 11, 84, 0
13, 186600, Note_on_c, 11, 81, 84
13, 186659, Note_on_c, 11, 81, 0
13, 186660, Note_on_c, 11, 82, 84
13, 186711, Note_on_c, 11, 82, 0
13, 186720, Note_on_c, 11, 69, 84
13, 186720, Note_on_c, 11, 84, 84
13, 186899, Note_on_c, 11, 69, 0
13, 186899, Note_on_c, 11, 84, 0
13, 187080, Note_on_c, 11, 81, 84
13, 187139, Note_on_c, 11, 81, 0
13, 187140, Note_on_c, 11, 82, 84
13, 187191, Note_on_c, 11, 82, 0
13, 187200, Note_on_c, 11, 69, 84
13, 187200, Note_on_c, 11, 84, 84
13, 187379, Note_on_c, 11, 69, 0
13, 187379, Note_on_c, 11, 84, 0
13, 187560, Note_on_c, 11, 81, 84
13, 187619, Note_on_c, 11, 81, 0
13, 187620, Note_on_c, 11, 82, 84
13, 187671, Note_on_c, 11, 82, 0
13, 187680, Note_on_c, 11, 69, 84
13, 187680, Note_on_c, 11, 84, 84
13, 187859, Note_on_c, 11, 69, 0
13, 187859, Note_on_c, 11, 84, 0
13, 188040, Note_on_c, 11, 81, 84
13, 188079, Note_on_c, 11, 81, 0
13, 188080, Note_on_c, 11, 82, 84
13, 188119, Note_on_c, 11, 82, 0
13, 188120, Note_on_c, 11, 84, 84
13, 188151, Note_on_c, 11, 84, 0
13, 188160, Note_on_c, 11, 86, 76
13, 188160, Note_on_c, 11, 74, 76
13, 188160, Note_on_c, 11, 62, 76
13, 188279, Note_on_c, 11, 86, 0
13, 188279, Note_on_c, 11, 74, 0
13, 188279, Note_on_c, 11, 62, 0
13, 188400, Note_on_c, 11, 82, 52
13, 188519, Note_on_c, 11, 82, 0
13, 188640, Note_on_c, 11, 77, 52
13, 188759, Note_on_c, 11, 77, 0
13, 188880, Note_on_c, 11, 82, 52
13, 188999, Note_on_c, 11, 82, 0
13, 189120, Note_on_c, 11, 74, 52
13, 189239, Note_on_c, 11, 74, 0
13, 189360, Note_on_c, 11, 77, 52
13, 189479, Note_on_c, 11, 77, 0
13, 189600, Note_on_c, 11, 70, 52
13, 189719, Note_on_c, 11, 70, 0
13, 189840, Note_on_c, 11, 74, 52
13, 189959, Note_on_c, 11, 74, 0
13, 190080, Note_on_c, 11, 67, 52
13, 190199, Note_on_c, 11, 67, 0
13, 190320, Note_on_c, 11, 75, 52
13, 190439, Note_on_c, 11, 75, 0
13, 190560, Note_on_c, 11, 72, 52
13, 190679, Note_on_c, 11, 72, 0
13, 190800, Note_on_c, 11, 70, 52
13, 190919, Note_on_c, 11, 70, 0
13, 191040, Note_on_c, 11, 69, 52
13, 191159, Note_on_c, 11, 69, 0
13, 191280, Note_on_c, 11, 77, 52
13, 191399, Note_on_c, 11, 77, 0
13, 191520, Note_on_c, 11, 75, 52
13, 191639, Note_on_c, 11, 75, 0
13, 191760, Note_on_c, 11, 72, 52
13, 191879, Note_on_c, 11, 72, 0
13, 192000, Note_on_c, 11, 70, 52
13, 192239, Note_on_c, 11, 70, 0
13, 195600, Note_on_c, 11, 77, 52
13, 195659, Note_on_c, 11, 77, 0
13, 195660, Note_on_c, 11, 79, 52
13, 195719, Note_on_c, 11, 79, 0
13, 195720, Note_on_c, 11, 81, 52
13, 195779, Note_on_c, 11, 81, 0
13, 195780, Note_on_c, 11, 82, 52
13, 195831, Note_on_c, 11, 82, 0
13, 195840, Note_on_c, 11, 69, 84
13, 195840, Note_on_c, 11, 84, 84
13, 196019, Note_on_c, 11, 69, 0
13, 196019, Note_on_c, 11, 84, 0
13, 196560, Note_on_c, 11, 77, 84
13, 196619, Note_on_c, 11, 77, 0
13, 196620, Note_on_c, 11, 79, 84
13, 196679, Note_on_c, 11, 79, 0
13, 196680, Note_on_c, 11, 81, 84
13, 196739, Note_on_c, 11, 81, 0
13, 196740, Note_on_c, 11, 82, 84
13, 196791, Note_on_c, 11, 82, 0
13, 196800, Note_on_c, 11, 84, 84
13, 196800, Note_on_c, 11, 69, 84
13, 196979, Note_on_c, 11, 84, 0
13, 196979, Note_on_c, 11, 69, 0
13, 197160, Note_on_c, 11, 81, 84
13, 197219, Note_on_c, 11, 81, 0
13, 197220, Note_on_c, 11, 82, 84
13, 197271, Note_on_c, 11, 82, 0
13, 197280, Note_on_c, 11, 84, 84
13, 197280, Note_on_c, 11, 69, 84
13, 197459, Note_on_c, 11, 84, 0
13, 197459, Note_on_c, 11, 69, 0
13, 197640, Note_on_c, 11, 81, 84
13, 197679, Note_on_c, 11, 81, 0
13, 197680, Note_on_c, 11, 82, 84
13, 197719, Note_on_c, 11, 82, 0
13, 197720, Note_on_c, 11, 84, 84
13, 197751, Note_on_c, 11, 84, 0
13, 197760, Note_on_c, 11, 62, 84
13, 197760, Note_on_c, 11, 74, 84
13, 197760, Note_on_c, 11, 86, 84
13, 197879, Note_on_c, 11, 62, 0
13, 197879, Note_on_c, 11, 74, 0
13, 197879, Note_on_c, 11, 86, 0
13, 198000, Note_on_c, 11, 82, 84
13, 198119, Note_on_c, 11, 82, 0
13, 198240, Note_on_c, 11, 77, 84
13, 198359, Note_on_c, 11, 77, 0
13, 198480, Note_on_c, 11, 82, 84
13, 198599, Note_on_c, 11, 82, 0
13, 198720, Note_on_c, 11, 74, 84
13, 198839, Note_on_c, 11, 74, 0
13, 198960, Note_on_c, 11, 77, 84
13, 199079, Note_on_c, 11, 77, 0
13, 199200, Note_on_c, 11, 70, 84
13, 199319, Note_on_c, 11, 70, 0
13, 199440, Note_on_c, 11, 74, 84
13, 199559, Note_on_c, 11, 74, 0
13, 199680, Note_on_c, 11, 67, 84
13, 199799, Note_on_c, 11, 67, 0
13, 199920, Note_on_c, 11, 75, 84
13, 200039, Note_on_c, 11, 75, 0
13, 200160, Note_on_c, 11, 72, 84
13, 200279, Note_on_c, 11, 72, 0
13, 200400, Note_on_c, 11, 70, 84
13, 200519, Note_on_c, 11, 70, 0
13, 200640, Note_on_c, 11, 69, 84
13, 200759, Note_on_c, 11, 69, 0
13, 200880, Note_on_c, 11, 77, 84
13, 200999, Note_on_c, 11, 77, 0
13, 201120, Note_on_c, 11, 75, 84
13, 201239, Note_on_c, 11, 75, 0
13, 201360, Note_on_c, 11, 72, 84
13, 201479, Note_on_c, 11, 72, 0
13, 201600, Note_on_c, 11, 70, 84
13, 201719, Note_on_c, 11, 70, 0
13, 201840, Note_on_c, 11, 79, 84
13, 201944, Note_on_c, 11, 79, 0
13, 201960, Note_on_c, 11, 79, 84
13, 202064, Note_on_c, 11, 79, 0
13, 202080, Note_on_c, 11, 77, 84
13, 202184, Note_on_c, 11, 77, 0
13, 202200, Note_on_c, 11, 77, 84
13, 202304, Note_on_c, 11, 77, 0
13, 202320, Note_on_c, 11, 75, 84
13, 202424, Note_on_c, 11, 75, 0
13, 202440, Note_on_c, 11, 75, 84
13, 202544, Note_on_c, 11, 75, 0
13, 202560, Note_on_c, 11, 74, 84
13, 202664, Note_on_c, 11, 74, 0
13, 202680, Note_on_c, 11, 74, 84
13, 202784, Note_on_c, 11, 74, 0
13, 202800, Note_on_c, 11, 72, 84
13, 202904, Note_on_c, 11, 72, 0
13, 202920, Note_on_c, 11, 72, 84
13, 203024, Note_on_c, 11, 72, 0
13, 203040, Note_on_c, 11, 70, 84
13, 203144, Note_on_c, 11, 70, 0
13, 203160, Note_on_c, 11, 70, 84
13, 203264, Note_on_c, 11, 70, 0
13, 203280, Note_on_c, 11, 72, 84
13, 203384, Note_on_c, 11, 72, 0
13, 203400, Note_on_c, 11, 72, 84
13, 203504, Note_on_c, 11, 72, 0
13, 203520, Note_on_c, 11, 70, 92
13, 204479, Note_on_c, 11, 70, 0
13, 204480, Note_on_c, 11, 70, 84
13, 204599, Note_on_c, 11, 70, 0
13, 204600, Note_on_c, 11, 72, 84
13, 204719, Note_on_c, 11, 72, 0
13, 204720, Note_on_c, 11, 74, 84
13, 204839, Note_on_c, 11, 74, 0
13, 204840, Note_on_c, 11, 75, 84
13, 204959, Note_on_c, 11, 75, 0
13, 204960, Note_on_c, 11, 77, 84
13, 205079, Note_on_c, 11, 77, 0
13, 205080, Note_on_c, 11, 79, 84
13, 205199, Note_on_c, 11, 79, 0
13, 205200, Note_on_c, 11, 81, 84
13, 205319, Note_on_c, 11, 81, 0
13, 205320, Note_on_c, 11, 82, 84
13, 205424, Note_on_c, 11, 82, 0
13, 205440, Note_on_c, 11, 69, 84
13, 205440, Note_on_c, 11, 81, 84
13, 205679, Note_on_c, 11, 69, 0
13, 205679, Note_on_c, 11, 81, 0
13, 206400, Note_on_c, 11, 82, 84
13, 206400, Note_on_c, 11, 70, 84
13, 206639, Note_on_c, 11, 82, 0
13, 206639, Note_on_c, 11, 70, 0
13, 207360, Note_on_c, 11, 75, 84
13, 207360, Note_on_c, 11, 67, 84
13, 207360, Note_on_c, 11, 84, 84
13, 207599, Note_on_c, 11, 75, 0
13, 207599, Note_on_c, 11, 67, 0
13, 207599, Note_on_c, 11, 84, 0
13, 208320, Note_on_c, 11, 72, 84
13, 208320, Note_on_c, 11, 81, 84
13, 208320, Note_on_c, 11, 65, 84
13, 208559, Note_on_c, 11, 72, 0
13, 208559, Note_on_c, 11, 81, 0
13, 208559, Note_on_c, 11, 65, 0
13, 209280, Note_on_c, 11, 58, 44
13, 210464, Note_on_c, 11, 58, 0
13, 210480, Note_on_c, 11, 70, 44
13, 210599, Note_on_c, 11, 70, 0
13, 210600, Note_on_c, 11, 69, 44
13, 210719, Note_on_c, 11, 69, 0
13, 210720, Note_on_c, 11, 70, 44
13, 210839, Note_on_c, 11, 70, 0
13, 210840, Note_on_c, 11, 69, 44
13, 210959, Note_on_c, 11, 69, 0
13, 210960, Note_on_c, 11, 70, 44
13, 211079, Note_on_c, 11, 70, 0
13, 211080, Note_on_c, 11, 69, 44
13, 211184, Note_on_c, 11, 69, 0
13, 211200, Note_on_c, 11, 70, 44
13, 211379, Note_on_c, 11, 70, 0
13, 211440, Note_on_c, 11, 70, 44
13, 211559, Note_on_c, 11, 70, 0
13, 211560, Note_on_c, 11, 69, 44
13, 211679, Note_on_c, 11, 69, 0
13, 211680, Note_on_c, 11, 70, 44
13, 211799, Note_on_c, 11, 70, 0
13, 211800, Note_on_c, 11, 69, 44
13, 211919, Note_on_c, 11, 69, 0
13, 211920, Note_on_c, 11, 70, 44
13, 212039, Note_on_c, 11, 70, 0
13, 212040, Note_on_c, 11, 69, 44
13, 212144, Note_on_c, 11, 69, 0
13, 212160, Note_on_c, 11, 70, 44
13, 212339, Note_on_c, 11, 70, 0
13, 212400, Note_on_c, 11, 70, 44
13, 212519, Note_on_c, 11, 70, 0
13, 212520, Note_on_c, 11, 69, 44
13, 212639, Note_on_c, 11, 69, 0
13, 212640, Note_on_c, 11, 70, 44
13, 212759, Note_on_c, 11, 70, 0
13, 212760, Note_on_c, 11, 69, 44
13, 212879, Note_on_c, 11, 69, 0
13, 212880, Note_on_c, 11, 70, 44
13, 212999, Note_on_c, 11, 70, 0
13, 213000, Note_on_c, 11, 71, 44
13, 213104, Note_on_c, 11, 71, 0
13, 213120, Note_on_c, 11, 72, 44
13, 214304, Note_on_c, 11, 72, 0
13, 214320, Note_on_c, 11, 72, 44
13, 214439, Note_on_c, 11, 72, 0
13, 214440, Note_on_c, 11, 71, 44
13, 214559, Note_on_c, 11, 71, 0
13, 214560, Note_on_c, 11, 72, 44
13, 214679, Note_on_c, 11, 72, 0
13, 214680, Note_on_c, 11, 71, 44
13, 214799, Note_on_c, 11, 71, 0
13, 214800, Note_on_c, 11, 72, 44
13, 214919, Note_on_c, 11, 72, 0
13, 214920, Note_on_c, 11, 71, 44
13, 215024, Note_on_c, 11, 71, 0
13, 215040, Note_on_c, 11, 72, 44
13, 215219, Note_on_c, 11, 72, 0
13, 215280, Note_on_c, 11, 72, 44
13, 215399, Note_on_c, 11, 72, 0
13, 215400, Note_on_c, 11, 71, 44
13, 215519, Note_on_c, 11, 71, 0
13, 215520, Note_on_c, 11, 72, 44
13, 215639, Note_on_c, 11, 72, 0
13, 215640, Note_on_c, 11, 71, 44
13, 215759, Note_on_c, 11, 71, 0
13, 215760, Note_on_c, 11, 72, 44
13, 215879, Note_on_c, 11, 72, 0
13, 215880, Note_on_c, 11, 71, 44
13, 215984, Note_on_c, 11, 71, 0
13, 216000, Note_on_c, 11, 72, 44
13, 216179, Note_on_c, 11, 72, 0
13, 216240, Note_on_c, 11, 72, 44
13, 216359, Note_on_c, 11, 72, 0
13, 216360, Note_on_c, 11, 71, 44
13, 216479, Note_on_c, 11, 71, 0
13, 216480, Note_on_c, 11, 72, 44
13, 216599, Note_on_c, 11, 72, 0
13, 216600, Note_on_c, 11, 71, 44
13, 216719, Note_on_c, 11, 71, 0
13, 216720, Note_on_c, 11, 72, 44
13, 216839, Note_on_c, 11, 72, 0
13, 216840, Note_on_c, 11, 73, 44
13, 216944, Note_on_c, 11, 73, 0
13, 216960, Note_on_c, 11, 74, 44
13, 218144, Note_on_c, 11, 74, 0
13, 218160, Note_on_c, 11, 74, 44
13, 218279, Note_on_c, 11, 74, 0
13, 218280, Note_on_c, 11, 73, 44
13, 218399, Note_on_c, 11, 73, 0
13, 218400, Note_on_c, 11, 74, 44
13, 218519, Note_on_c, 11, 74, 0
13, 218520, Note_on_c, 11, 73, 44
13, 218639, Note_on_c, 11, 73, 0
13, 218640, Note_on_c, 11, 74, 44
13, 218744, Note_on_c, 11, 74, 0
13, 218760, Note_on_c, 11, 74, 44
13, 218864, Note_on_c, 11, 74, 0
13, 218880, Note_on_c, 11, 76, 44
13, 220064, Note_on_c, 11, 76, 0
13, 220080, Note_on_c, 11, 79, 44
13, 220199, Note_on_c, 11, 79, 0
13, 220200, Note_on_c, 11, 78, 44
13, 220319, Note_on_c, 11, 78, 0
13, 220320, Note_on_c, 11, 79, 44
13, 220439, Note_on_c, 11, 79, 0
13, 220440, Note_on_c, 11, 78, 44
13, 220559, Note_on_c, 11, 78, 0
13, 220560, Note_on_c, 11, 79, 44
13, 220664, Note_on_c, 11, 79, 0
13, 220680, Note_on_c, 11, 79, 44
13, 220784, Note_on_c, 11, 79, 0
13, 220800, Note_on_c, 11, 81, 44
13, 220800, Note_on_c, 11, 72, 44
13, 220919, Note_on_c, 11, 81, 0
13, 220919, Note_on_c, 11, 72, 0
13, 220920, Note_on_c, 11, 81, 45
13, 220920, Note_on_c, 11, 72, 45
13, 221039, Note_on_c, 11, 81, 0
13, 221039, Note_on_c, 11, 72, 0
13, 221040, Note_on_c, 11, 72, 46
13, 221040, Note_on_c, 11, 81, 46
13, 221159, Note_on_c, 11, 72, 0
13, 221159, Note_on_c, 11, 81, 0
13, 221160, Note_on_c, 11, 72, 47
13, 221160, Note_on_c, 11, 81, 47
13, 221279, Note_on_c, 11, 72, 0
13, 221279, Note_on_c, 11, 81, 0
13, 221280, Note_on_c, 11, 81, 49
13, 221280, Note_on_c, 11, 72, 49
13, 221399, Note_on_c, 11, 81, 0
13, 221399, Note_on_c, 11, 72, 0
13, 221400, Note_on_c, 11, 81, 50
13, 221400, Note_on_c, 11, 72, 50
13, 221519, Note_on_c, 11, 81, 0
13, 221519, Note_on_c, 11, 72, 0
13, 221520, Note_on_c, 11, 81, 51
13, 221520, Note_on_c, 11, 72, 51
13, 221639, Note_on_c, 11, 81, 0
13, 221639, Note_on_c, 11, 72, 0
13, 221640, Note_on_c, 11, 81, 52
13, 221640, Note_on_c, 11, 72, 52
13, 221759, Note_on_c, 11, 81, 0
13, 221759, Note_on_c, 11, 72, 0
13, 221760, Note_on_c, 11, 81, 54
13, 221760, Note_on_c, 11, 72, 54
13, 221879, Note_on_c, 11, 81, 0
13, 221879, Note_on_c, 11, 72, 0
13, 221880, Note_on_c, 11, 72, 55
13, 221880, Note_on_c, 11, 81, 55
13, 221999, Note_on_c, 11, 72, 0
13, 221999, Note_on_c, 11, 81, 0
13, 222000, Note_on_c, 11, 81, 56
13, 222000, Note_on_c, 11, 72, 56
13, 222119, Note_on_c, 11, 81, 0
13, 222119, Note_on_c, 11, 72, 0
13, 222120, Note_on_c, 11, 72, 57
13, 222120, Note_on_c, 11, 81, 57
13, 222239, Note_on_c, 11, 72, 0
13, 222239, Note_on_c, 11, 81, 0
13, 222240, Note_on_c, 11, 72, 59
13, 222240, Note_on_c, 11, 81, 59
13, 222359, Note_on_c, 11, 72, 0
13, 222359, Note_on_c, 11, 81, 0
13, 222360, Note_on_c, 11, 72, 60
13, 222360, Note_on_c, 11, 81, 60
13, 222479, Note_on_c, 11, 72, 0
13, 222479, Note_on_c, 11, 81, 0
13, 222480, Note_on_c, 11, 81, 61
13, 222480, Note_on_c, 11, 72, 61
13, 222599, Note_on_c, 11, 81, 0
13, 222599, Note_on_c, 11, 72, 0
13, 222600, Note_on_c, 11, 81, 62
13, 222600, Note_on_c, 11, 72, 62
13, 222719, Note_on_c, 11, 81, 0
13, 222719, Note_on_c, 11, 72, 0
13, 222720, Note_on_c, 11, 81, 64
13, 222720, Note_on_c, 11, 72, 64
13, 222839, Note_on_c, 11, 81, 0
13, 222839, Note_on_c, 11, 72, 0
13, 222840, Note_on_c, 11, 72, 65
13, 222840, Note_on_c, 11, 81, 65
13, 222959, Note_on_c, 11, 72, 0
13, 222959, Note_on_c, 11, 81, 0
13, 222960, Note_on_c, 11, 81, 66
13, 222960, Note_on_c, 11, 72, 66
13, 223079, Note_on_c, 11, 81, 0
13, 223079, Note_on_c, 11, 72, 0
13, 223080, Note_on_c, 11, 72, 67
13, 223080, Note_on_c, 11, 81, 67
13, 223199, Note_on_c, 11, 72, 0
13, 223199, Note_on_c, 11, 81, 0
13, 223200, Note_on_c, 11, 81, 69
13, 223200, Note_on_c, 11, 72, 69
13, 223319, Note_on_c, 11, 81, 0
13, 223319, Note_on_c, 11, 72, 0
13, 223320, Note_on_c, 11, 72, 70
13, 223320, Note_on_c, 11, 81, 70
13, 223439, Note_on_c, 11, 72, 0
13, 223439, Note_on_c, 11, 81, 0
13, 223440, Note_on_c, 11, 81, 71
13, 223440, Note_on_c, 11, 72, 71
13, 223559, Note_on_c, 11, 81, 0
13, 223559, Note_on_c, 11, 72, 0
13, 223560, Note_on_c, 11, 72, 72
13, 223560, Note_on_c, 11, 81, 72
13, 223679, Note_on_c, 11, 72, 0
13, 223679, Note_on_c, 11, 81, 0
13, 223680, Note_on_c, 11, 72, 74
13, 223680, Note_on_c, 11, 81, 74
13, 223799, Note_on_c, 11, 72, 0
13, 223799, Note_on_c, 11, 81, 0
13, 223800, Note_on_c, 11, 81, 75
13, 223800, Note_on_c, 11, 72, 75
13, 223919, Note_on_c, 11, 81, 0
13, 223919, Note_on_c, 11, 72, 0
13, 223920, Note_on_c, 11, 81, 76
13, 223920, Note_on_c, 11, 72, 76
13, 224039, Note_on_c, 11, 81, 0
13, 224039, Note_on_c, 11, 72, 0
13, 224040, Note_on_c, 11, 72, 77
13, 224040, Note_on_c, 11, 81, 77
13, 224159, Note_on_c, 11, 72, 0
13, 224159, Note_on_c, 11, 81, 0
13, 224160, Note_on_c, 11, 81, 79
13, 224160, Note_on_c, 11, 72, 79
13, 224279, Note_on_c, 11, 81, 0
13, 224279, Note_on_c, 11, 72, 0
13, 224280, Note_on_c, 11, 81, 80
13, 224280, Note_on_c, 11, 72, 80
13, 224399, Note_on_c, 11, 81, 0
13, 224399, Note_on_c, 11, 72, 0
13, 224400, Note_on_c, 11, 72, 81
13, 224400, Note_on_c, 11, 81, 81
13, 224519, Note_on_c, 11, 72, 0
13, 224519, Note_on_c, 11, 81, 0
13, 224520, Note_on_c, 11, 81, 82
13, 224520, Note_on_c, 11, 72, 82
13, 224639, Note_on_c, 11, 81, 0
13, 224639, Note_on_c, 11, 72, 0
13, 224640, Note_on_c, 11, 70, 84
13, 224640, Note_on_c, 11, 82, 84
13, 225599, Note_on_c, 11, 70, 0
13, 225599, Note_on_c, 11, 82, 0
13, 225600, Note_on_c, 11, 82, 84
13, 225600, Note_on_c, 11, 70, 84
13, 226544, Note_on_c, 11, 82, 0
13, 226544, Note_on_c, 11, 70, 0
13, 226560, Note_on_c, 11, 87, 92
13, 227489, Note_on_c, 11, 87, 0
13, 227520, Note_on_c, 11, 89, 92
13, 228209, Note_on_c, 11, 89, 0
13, 228240, Note_on_c, 11, 77, 84
13, 228287, Note_on_c, 11, 77, 0
13, 228288, Note_on_c, 11, 79, 84
13, 228335, Note_on_c, 11, 79, 0
13, 228336, Note_on_c, 11, 81, 84
13, 228383, Note_on_c, 11, 81, 0
13, 228384, Note_on_c, 11, 82, 84
13, 228431, Note_on_c, 11, 82, 0
13, 228432, Note_on_c, 11, 84, 84
13, 228471, Note_on_c, 11, 84, 0
13, 228480, Note_on_c, 11, 86, 92
13, 228584, Note_on_c, 11, 86, 0
13, 228600, Note_on_c, 11, 86, 84
13, 228704, Note_on_c, 11, 86, 0
13, 228720, Note_on_c, 11, 82, 84
13, 228824, Note_on_c, 11, 82, 0
13, 228840, Note_on_c, 11, 82, 84
13, 228944, Note_on_c, 11, 82, 0
13, 228960, Note_on_c, 11, 77, 84
13, 229064, Note_on_c, 11, 77, 0
13, 229080, Note_on_c, 11, 77, 84
13, 229184, Note_on_c, 11, 77, 0
13, 229200, Note_on_c, 11, 82, 84
13, 229304, Note_on_c, 11, 82, 0
13, 229320, Note_on_c, 11, 82, 84
13, 229424, Note_on_c, 11, 82, 0
13, 229440, Note_on_c, 11, 74, 84
13, 229544, Note_on_c, 11, 74, 0
13, 229560, Note_on_c, 11, 74, 84
13, 229664, Note_on_c, 11, 74, 0
13, 229680, Note_on_c, 11, 77, 84
13, 229784, Note_on_c, 11, 77, 0
13, 229800, Note_on_c, 11, 77, 84
13, 229904, Note_on_c, 11, 77, 0
13, 229920, Note_on_c, 11, 70, 84
13, 230024, Note_on_c, 11, 70, 0
13, 230040, Note_on_c, 11, 70, 84
13, 230144, Note_on_c, 11, 70, 0
13, 230160, Note_on_c, 11, 74, 84
13, 230264, Note_on_c, 11, 74, 0
13, 230280, Note_on_c, 11, 74, 84
13, 230384, Note_on_c, 11, 74, 0
13, 230400, Note_on_c, 11, 67, 84
13, 230504, Note_on_c, 11, 67, 0
13, 230520, Note_on_c, 11, 67, 84
13, 230624, Note_on_c, 11, 67, 0
13, 230640, Note_on_c, 11, 75, 84
13, 230744, Note_on_c, 11, 75, 0
13, 230760, Note_on_c, 11, 75, 84
13, 230864, Note_on_c, 11, 75, 0
13, 230880, Note_on_c, 11, 72, 84
13, 230984, Note_on_c, 11, 72, 0
13, 231000, Note_on_c, 11, 72, 84
13, 231104, Note_on_c, 11, 72, 0
13, 231120, Note_on_c, 11, 70, 84
13, 231224, Note_on_c, 11, 70, 0
13, 231240, Note_on_c, 11, 70, 84
13, 231344, Note_on_c, 11, 70, 0
13, 231360, Note_on_c, 11, 69, 84
13, 231464, Note_on_c, 11, 69, 0
13, 231480, Note_on_c, 11, 69, 84
13, 231584, Note_on_c, 11, 69, 0
13, 231600, Note_on_c, 11, 77, 84
13, 231704, Note_on_c, 11, 77, 0
13, 231720, Note_on_c, 11, 77, 84
13, 231824, Note_on_c, 11, 77, 0
13, 231840, Note_on_c, 11, 75, 84
13, 231944, Note_on_c, 11, 75, 0
13, 231960, Note_on_c, 11, 75, 84
13, 232064, Note_on_c, 11, 75, 0
13, 232080, Note_on_c, 11, 72, 84
13, 232184, Note_on_c, 11, 72, 0
13, 232200, Note_on_c, 11, 72, 84
13, 232304, Note_on_c, 11, 72, 0
13, 232320, Note_on_c, 11, 70, 84
13, 232424, Note_on_c, 11, 70, 0
13, 232440, Note_on_c, 11, 70, 84
13, 232544, Note_on_c, 11, 70, 0
13, 232560, Note_on_c, 11, 79, 84
13, 232664, Note_on_c, 11, 79, 0
13, 232680, Note_on_c, 11, 79, 84
13, 232784, Note_on_c, 11, 79, 0
13, 232800, Note_on_c, 11, 76, 84
13, 232904, Note_on_c, 11, 76, 0
13, 232920, Note_on_c, 11, 76, 84
13, 233024, Note_on_c, 11, 76, 0
13, 233040, Note_on_c, 11, 74, 84
13, 233144, Note_on_c, 11, 74, 0
13, 233160, Note_on_c, 11, 74, 84
13, 233264, Note_on_c, 11, 74, 0
13, 233280, Note_on_c, 11, 73, 84
13, 233384, Note_on_c, 11, 73, 0
13, 233400, Note_on_c, 11, 73, 84
13, 233504, Note_on_c, 11, 73, 0
13, 233520, Note_on_c, 11, 81, 84
13, 233624, Note_on_c, 11, 81, 0
13, 233640, Note_on_c, 11, 81, 84
13, 233744, Note_on_c, 11, 81, 0
13, 233760, Note_on_c, 11, 79, 84
13, 233864, Note_on_c, 11, 79, 0
13, 233880, Note_on_c, 11, 79, 84
13, 233984, Note_on_c, 11, 79, 0
13, 234000, Note_on_c, 11, 76, 84
13, 234104, Note_on_c, 11, 76, 0
13, 234120, Note_on_c, 11, 76, 84
13, 234224, Note_on_c, 11, 76, 0
13, 234240, Note_on_c, 11, 74, 84
13, 234344, Note_on_c, 11, 74, 0
13, 234360, Note_on_c, 11, 74, 84
13, 234464, Note_on_c, 11, 74, 0
13, 234480, Note_on_c, 11, 83, 84
13, 234584, Note_on_c, 11, 83, 0
13, 234600, Note_on_c, 11, 83, 84
13, 234704, Note_on_c, 11, 83, 0
13, 234720, Note_on_c, 11, 80, 84
13, 234824, Note_on_c, 11, 80, 0
13, 234840, Note_on_c, 11, 80, 84
13, 234944, Note_on_c, 11, 80, 0
13, 234960, Note_on_c, 11, 77, 84
13, 235064, Note_on_c, 11, 77, 0
13, 235080, Note_on_c, 11, 77, 84
13, 235184, Note_on_c, 11, 77, 0
13, 235200, Note_on_c, 11, 76, 84
13, 235304, Note_on_c, 11, 76, 0
13, 235320, Note_on_c, 11, 76, 84
13, 235424, Note_on_c, 11, 76, 0
13, 235440, Note_on_c, 11, 84, 84
13, 235544, Note_on_c, 11, 84, 0
13, 235560, Note_on_c, 11, 84, 84
13, 235664, Note_on_c, 11, 84, 0
13, 235680, Note_on_c, 11, 82, 84
13, 235784, Note_on_c, 11, 82, 0
13, 235800, Note_on_c, 11, 82, 84
13, 235904, Note_on_c, 11, 82, 0
13, 235920, Note_on_c, 11, 79, 84
13, 236024, Note_on_c, 11, 79, 0
13, 236040, Note_on_c, 11, 79, 84
13, 236144, Note_on_c, 11, 79, 0
13, 236160, Note_on_c, 11, 76, 84
13, 236264, Note_on_c, 11, 76, 0
13, 236280, Note_on_c, 11, 76, 84
13, 236384, Note_on_c, 11, 76, 0
13, 236400, Note_on_c, 11, 72, 84
13, 236504, Note_on_c, 11, 72, 0
13, 236520, Note_on_c, 11, 72, 84
13, 236624, Note_on_c, 11, 72, 0
13, 236640, Note_on_c, 11, 70, 84
13, 236744, Note_on_c, 11, 70, 0
13, 236760, Note_on_c, 11, 70, 84
13, 236864, Note_on_c, 11, 70, 0
13, 236880, Note_on_c, 11, 67, 84
13, 236984, Note_on_c, 11, 67, 0
13, 237000, Note_on_c, 11, 67, 84
13, 237104, Note_on_c, 11, 67, 0
13, 237120, Note_on_c, 11, 68, 84
13, 237224, Note_on_c, 11, 68, 0
13, 237240, Note_on_c, 11, 68, 84
13, 237344, Note_on_c, 11, 68, 0
13, 237360, Note_on_c, 11, 65, 84
13, 237464, Note_on_c, 11, 65, 0
13, 237480, Note_on_c, 11, 65, 84
13, 237584, Note_on_c, 11, 65, 0
13, 237600, Note_on_c, 11, 63, 84
13, 237704, Note_on_c, 11, 63, 0
13, 237720, Note_on_c, 11, 63, 84
13, 237824, Note_on_c, 11, 63, 0
13, 237840, Note_on_c, 11, 61, 84
13, 237944, Note_on_c, 11, 61, 0
13, 237960, Note_on_c, 11, 61, 84
13, 238064, Note_on_c, 11, 61, 0
13, 238080, Note_on_c, 11, 60, 84
13, 238319, Note_on_c, 11, 60, 0
13, 241200, Note_on_c, 11, 83, 92
13, 241679, Note_on_c, 11, 83, 0
13, 241680, Note_on_c, 11, 84, 84
13, 241904, Note_on_c, 11, 84, 0
13, 241920, Note_on_c, 11, 84, 84
13, 242099, Note_on_c, 11, 84, 0
13, 242160, Note_on_c, 11, 79, 84
13, 242624, Note_on_c, 11, 79, 0
13, 242640, Note_on_c, 11, 80, 84
13, 243104, Note_on_c, 11, 80, 0
13, 243120, Note_on_c, 11, 82, 84
13, 243584, Note_on_c, 11, 82, 0
13, 243600, Note_on_c, 11, 77, 84
13, 244064, Note_on_c, 11, 77, 0
13, 244080, Note_on_c, 11, 79, 84
13, 244544, Note_on_c, 11, 79, 0
13, 244560, Note_on_c, 11, 80, 84
13, 245024, Note_on_c, 11, 80, 0
13, 245040, Note_on_c, 11, 83, 92
13, 245519, Note_on_c, 11, 83, 0
13, 245520, Note_on_c, 11, 84, 84
13, 245744, Note_on_c, 11, 84, 0
13, 245760, Note_on_c, 11, 84, 92
13, 245820, Control_c, 11, 11, 112
13, 245978, Control_c, 11, 11, 110
13, 246135, Control_c, 11, 11, 108
13, 246293, Control_c, 11, 11, 106
13, 246450, Control_c, 11, 11, 104
13, 246608, Control_c, 11, 11, 102
13, 246719, Note_on_c, 11, 84, 0
13, 246720, Note_on_c, 11, 84, 84
13, 246765, Control_c, 11, 11, 100
13, 246923, Control_c, 11, 11, 98
13, 247080, Control_c, 11, 11, 96
13, 247238, Control_c, 11, 11, 94
13, 247395, Control_c, 11, 11, 92
13, 247553, Control_c, 11, 11, 90
13, 247679, Note_on_c, 11, 84, 0
13, 247680, Note_on_c, 11, 84, 84
13, 247710, Control_c, 11, 11, 88
13, 247868, Control_c, 11, 11, 86
13, 248025, Control_c, 11, 11, 84
13, 248144, Note_on_c, 11, 84, 0
13, 248160, Note_on_c, 11, 72, 84
13, 248183, Control_c, 11, 11, 82
13, 248340, Control_c, 11, 11, 80
13, 248498, Control_c, 11, 11, 78
13, 248655, Control_c, 11, 11, 76
13, 248813, Control_c, 11, 11, 74
13, 248970, Control_c, 11, 11, 72
13, 249119, Note_on_c, 11, 72, 0
13, 249120, Note_on_c, 11, 64, 84
13, 249128, Control_c, 11, 11, 70
13, 249285, Control_c, 11, 11, 68
13, 249443, Control_c, 11, 11, 64
13, 249592, Control_c, 11, 11, 80
13, 249599, Note_on_c, 11, 64, 0
13, 249600, Note_on_c, 11, 65, 76
13, 251519, Note_on_c, 11, 65, 0
13, 251520, Note_on_c, 11, 65, 76
13, 253424, Note_on_c, 11, 65, 0
13, 253432, Control_c, 11, 11, 96
13, 253440, Note_on_c, 11, 65, 68
13, 255344, Note_on_c, 11, 65, 0
13, 255352, Control_c, 11, 11, 112
13, 255360, Note_on_c, 11, 64, 60
13, 255539, Note_on_c, 11, 64, 0
13, 255600, Note_on_c, 11, 61, 60
13, 255779, Note_on_c, 11, 61, 0
13, 255840, Note_on_c, 11, 64, 60
13, 256019, Note_on_c, 11, 64, 0
13, 256320, Control_c, 11, 11, 127
13, 256560, Note_on_c, 11, 62, 52
13, 256739, Note_on_c, 11, 62, 0
13, 256800, Note_on_c, 11, 65, 52
13, 256979, Note_on_c, 11, 65, 0
13, 257520, Note_on_c, 11, 64, 52
13, 257699, Note_on_c, 11, 64, 0
13, 257760, Note_on_c, 11, 67, 52
13, 257939, Note_on_c, 11, 67, 0
13, 258480, Note_on_c, 11, 62, 52
13, 258659, Note_on_c, 11, 62, 0
13, 258720, Note_on_c, 11, 65, 52
13, 258899, Note_on_c, 11, 65, 0
13, 259200, Note_on_c, 11, 81, 52
13, 259439, Note_on_c, 11, 81, 0
13, 259440, Note_on_c, 11, 80, 52
13, 259679, Note_on_c, 11, 80, 0
13, 259680, Note_on_c, 11, 81, 52
13, 259919, Note_on_c, 11, 81, 0
13, 259920, Note_on_c, 11, 79, 52
13, 260159, Note_on_c, 11, 79, 0
13, 260160, Note_on_c, 11, 77, 52
13, 260399, Note_on_c, 11, 77, 0
13, 260400, Note_on_c, 11, 76, 52
13, 260639, Note_on_c, 11, 76, 0
13, 260640, Note_on_c, 11, 77, 52
13, 260879, Note_on_c, 11, 77, 0
13, 260880, Note_on_c, 11, 74, 52
13, 261119, Note_on_c, 11, 74, 0
13, 261120, Note_on_c, 11, 73, 52
13, 261359, Note_on_c, 11, 73, 0
13, 261360, Note_on_c, 11, 71, 52
13, 261599, Note_on_c, 11, 71, 0
13, 261600, Note_on_c, 11, 73, 52
13, 261839, Note_on_c, 11, 73, 0
13, 261840, Note_on_c, 11, 76, 52
13, 262031, Note_on_c, 11, 76, 0
13, 262040, Note_on_c, 11, 76, 52
13, 262079, Note_on_c, 11, 76, 0
13, 262080, Note_on_c, 11, 74, 52
13, 262319, Note_on_c, 11, 74, 0
13, 262320, Note_on_c, 11, 73, 52
13, 262559, Note_on_c, 11, 73, 0
13, 262560, Note_on_c, 11, 74, 52
13, 262799, Note_on_c, 11, 74, 0
13, 262800, Note_on_c, 11, 70, 52
13, 263024, Note_on_c, 11, 70, 0
13, 263038, Control_c, 11, 11, 64
13, 263040, Note_on_c, 11, 69, 76
13, 263399, Note_on_c, 11, 69, 0
13, 263520, Note_on_c, 11, 70, 76
13, 263879, Note_on_c, 11, 70, 0
13, 264000, Note_on_c, 11, 67, 76
13, 264359, Note_on_c, 11, 67, 0
13, 264480, Note_on_c, 11, 71, 76
13, 264839, Note_on_c, 11, 71, 0
13, 264960, Note_on_c, 11, 72, 76
13, 265319, Note_on_c, 11, 72, 0
13, 265440, Note_on_c, 11, 69, 76
13, 265799, Note_on_c, 11, 69, 0
13, 265920, Note_on_c, 11, 72, 76
13, 265920, Control_c, 11, 11, 64
13, 266133, Control_c, 11, 11, 66
13, 266279, Note_on_c, 11, 72, 0
13, 266347, Control_c, 11, 11, 68
13, 266400, Note_on_c, 11, 74, 76
13, 266560, Control_c, 11, 11, 69
13, 266759, Note_on_c, 11, 74, 0
13, 266773, Control_c, 11, 11, 71
13, 266880, Note_on_c, 11, 70, 76
13, 266987, Control_c, 11, 11, 73
13, 267200, Control_c, 11, 11, 75
13, 267239, Note_on_c, 11, 70, 0
13, 267360, Note_on_c, 11, 74, 76
13, 267413, Control_c, 11, 11, 76
13, 267627, Control_c, 11, 11, 78
13, 267719, Note_on_c, 11, 74, 0
13, 267840, Control_c, 11, 11, 80
13, 267840, Note_on_c, 11, 76, 76
13, 268053, Control_c, 11, 11, 82
13, 268199, Note_on_c, 11, 76, 0
13, 268267, Control_c, 11, 11, 83
13, 268320, Note_on_c, 11, 72, 76
13, 268480, Control_c, 11, 11, 85
13, 268679, Note_on_c, 11, 72, 0
13, 268693, Control_c, 11, 11, 87
13, 268800, Note_on_c, 11, 76, 76
13, 268907, Control_c, 11, 11, 89
13, 269120, Control_c, 11, 11, 90
13, 269159, Note_on_c, 11, 76, 0
13, 269280, Note_on_c, 11, 77, 76
13, 269333, Control_c, 11, 11, 92
13, 269547, Control_c, 11, 11, 94
13, 269639, Note_on_c, 11, 77, 0
13, 269760, Control_c, 11, 11, 96
13, 269760, Note_on_c, 11, 74, 76
13, 269973, Control_c, 11, 11, 97
13, 270119, Note_on_c, 11, 74, 0
13, 270187, Control_c, 11, 11, 99
13, 270240, Note_on_c, 11, 78, 76
13, 270400, Control_c, 11, 11, 101
13, 270599, Note_on_c, 11, 78, 0
13, 270613, Control_c, 11, 11, 103
13, 270720, Note_on_c, 11, 79, 76
13, 270827, Control_c, 11, 11, 104
13, 271040, Control_c, 11, 11, 106
13, 271079, Note_on_c, 11, 79, 0
13, 271200, Note_on_c, 11, 76, 76
13, 271253, Control_c, 11, 11, 108
13, 271467, Control_c, 11, 11, 110
13, 271559, Note_on_c, 11, 76, 0
13, 271680, Note_on_c, 11, 79, 76
13, 271680, Control_c, 11, 11, 111
13, 271893, Control_c, 11, 11, 113
13, 272039, Note_on_c, 11, 79, 0
13, 272107, Control_c, 11, 11, 115
13, 272160, Note_on_c, 11, 81, 76
13, 272320, Control_c, 11, 11, 117
13, 272519, Note_on_c, 11, 81, 0
13, 272533, Control_c, 11, 11, 118
13, 272640, Note_on_c, 11, 82, 76
13, 272747, Control_c, 11, 11, 120
13, 272960, Control_c, 11, 11, 122
13, 272999, Note_on_c, 11, 82, 0
13, 273120, Note_on_c, 11, 83, 76
13, 273173, Control_c, 11, 11, 124
13, 273387, Control_c, 11, 11, 127
13, 273479, Note_on_c, 11, 83, 0
13, 273600, Note_on_c, 11, 84, 76
13, 273959, Note_on_c, 11, 84, 0
13, 274080, Note_on_c, 11, 84, 76
13, 274439, Note_on_c, 11, 84, 0
13, 274560, Note_on_c, 11, 84, 76
13, 274919, Note_on_c, 11, 84, 0
13, 275040, Note_on_c, 11, 84, 76
13, 275399, Note_on_c, 11, 84, 0
13, 275520, Note_on_c, 11, 84, 76
13, 275879, Note_on_c, 11, 84, 0
13, 276000, Note_on_c, 11, 84, 76
13, 276359, Note_on_c, 11, 84, 0
13, 276480, Note_on_c, 11, 84, 76
13, 277184, Note_on_c, 11, 84, 0
13, 277200, Note_on_c, 11, 81, 76
13, 277424, Note_on_c, 11, 81, 0
13, 277440, Note_on_c, 11, 86, 76
13, 278144, Note_on_c, 11, 86, 0
13, 278160, Note_on_c, 11, 82, 76
13, 278384, Note_on_c, 11, 82, 0
13, 278400, Note_on_c, 11, 81, 76
13, 279104, Note_on_c, 11, 81, 0
13, 279120, Note_on_c, 11, 81, 76
13, 279344, Note_on_c, 11, 81, 0
13, 279360, Note_on_c, 11, 79, 76
13, 279584, Note_on_c, 11, 79, 0
13, 279600, Note_on_c, 11, 79, 76
13, 279824, Note_on_c, 11, 79, 0
13, 279840, Note_on_c, 11, 79, 76
13, 279899, Note_on_c, 11, 79, 0
13, 279900, Note_on_c, 11, 81, 76
13, 279959, Note_on_c, 11, 81, 0
13, 279960, Note_on_c, 11, 79, 76
13, 280019, Note_on_c, 11, 79, 0
13, 280020, Note_on_c, 11, 81, 76
13, 280079, Note_on_c, 11, 81, 0
13, 280080, Note_on_c, 11, 79, 76
13, 280139, Note_on_c, 11, 79, 0
13, 280140, Note_on_c, 11, 81, 76
13, 280199, Note_on_c, 11, 81, 0
13, 280200, Note_on_c, 11, 77, 76
13, 280259, Note_on_c, 11, 77, 0
13, 280260, Note_on_c, 11, 79, 76
13, 280311, Note_on_c, 11, 79, 0
13, 280320, Note_on_c, 11, 84, 76
13, 280559, Note_on_c, 11, 84, 0
13, 280560, Note_on_c, 11, 81, 76
13, 280784, Note_on_c, 11, 81, 0
13, 280800, Note_on_c, 11, 86, 76
13, 281039, Note_on_c, 11, 86, 0
13, 281040, Note_on_c, 11, 82, 76
13, 281264, Note_on_c, 11, 82, 0
13, 281280, Note_on_c, 11, 81, 76
13, 281504, Note_on_c, 11, 81, 0
13, 281520, Note_on_c, 11, 81, 76
13, 281744, Note_on_c, 11, 81, 0
13, 281760, Note_on_c, 11, 79, 76
13, 281819, Note_on_c, 11, 79, 0
13, 281820, Note_on_c, 11, 81, 76
13, 281879, Note_on_c, 11, 81, 0
13, 281880, Note_on_c, 11, 79, 76
13, 281939, Note_on_c, 11, 79, 0
13, 281940, Note_on_c, 11, 81, 76
13, 281999, Note_on_c, 11, 81, 0
13, 282000, Note_on_c, 11, 79, 76
13, 282059, Note_on_c, 11, 79, 0
13, 282060, Note_on_c, 11, 81, 76
13, 282119, Note_on_c, 11, 81, 0
13, 282120, Note_on_c, 11, 77, 76
13, 282179, Note_on_c, 11, 77, 0
13, 282180, Note_on_c, 11, 79, 76
13, 282231, Note_on_c, 11, 79, 0
13, 282240, Note_on_c, 11, 77, 52
13, 282479, Note_on_c, 11, 77, 0
13, 283200, Note_on_c, 11, 65, 52
13, 283919, Note_on_c, 11, 65, 0
13, 283920, Note_on_c, 11, 67, 52
13, 284159, Note_on_c, 11, 67, 0
13, 284160, Note_on_c, 11, 69, 52
13, 284399, Note_on_c, 11, 69, 0
13, 285120, Note_on_c, 11, 72, 52
13, 285839, Note_on_c, 11, 72, 0
13, 285840, Note_on_c, 11, 74, 52
13, 286079, Note_on_c, 11, 74, 0
13, 286080, Note_on_c, 11, 76, 52
13, 286319, Note_on_c, 11, 76, 0
13, 287040, Note_on_c, 11, 76, 52
13, 287759, Note_on_c, 11, 76, 0
13, 287760, Note_on_c, 11, 74, 52
13, 287999, Note_on_c, 11, 74, 0
13, 288000, Note_on_c, 11, 72, 52
13, 288239, Note_on_c, 11, 72, 0
13, 288960, Note_on_c, 11, 72, 52
13, 289664, Note_on_c, 11, 72, 0
13, 289680, Note_on_c, 11, 82, 76
13, 289784, Note_on_c, 11, 82, 0
13, 289800, Note_on_c, 11, 82, 76
13, 289904, Note_on_c, 11, 82, 0
13, 289920, Note_on_c, 11, 81, 76
13, 290024, Note_on_c, 11, 81, 0
13, 290040, Note_on_c, 11, 81, 76
13, 290144, Note_on_c, 11, 81, 0
13, 290160, Note_on_c, 11, 82, 76
13, 290264, Note_on_c, 11, 82, 0
13, 290280, Note_on_c, 11, 82, 76
13, 290384, Note_on_c, 11, 82, 0
13, 290400, Note_on_c, 11, 84, 76
13, 290504, Note_on_c, 11, 84, 0
13, 290520, Note_on_c, 11, 84, 76
13, 290624, Note_on_c, 11, 84, 0
13, 290640, Note_on_c, 11, 72, 76
13, 290744, Note_on_c, 11, 72, 0
13, 290760, Note_on_c, 11, 72, 76
13, 290864, Note_on_c, 11, 72, 0
13, 290880, Note_on_c, 11, 77, 76
13, 291584, Note_on_c, 11, 77, 0
13, 291600, Note_on_c, 11, 79, 76
13, 291704, Note_on_c, 11, 79, 0
13, 291720, Note_on_c, 11, 79, 76
13, 291824, Note_on_c, 11, 79, 0
13, 291840, Note_on_c, 11, 81, 76
13, 291944, Note_on_c, 11, 81, 0
13, 291960, Note_on_c, 11, 81, 76
13, 292064, Note_on_c, 11, 81, 0
13, 292080, Note_on_c, 11, 77, 76
13, 292184, Note_on_c, 11, 77, 0
13, 292200, Note_on_c, 11, 77, 76
13, 292304, Note_on_c, 11, 77, 0
13, 292320, Note_on_c, 11, 81, 76
13, 292424, Note_on_c, 11, 81, 0
13, 292440, Note_on_c, 11, 81, 76
13, 292544, Note_on_c, 11, 81, 0
13, 292560, Note_on_c, 11, 82, 76
13, 292664, Note_on_c, 11, 82, 0
13, 292680, Note_on_c, 11, 82, 76
13, 292784, Note_on_c, 11, 82, 0
13, 292800, Note_on_c, 11, 84, 76
13, 293504, Note_on_c, 11, 84, 0
13, 293520, Note_on_c, 11, 86, 76
13, 293624, Note_on_c, 11, 86, 0
13, 293640, Note_on_c, 11, 86, 76
13, 293744, Note_on_c, 11, 86, 0
13, 293760, Note_on_c, 11, 88, 76
13, 293864, Note_on_c, 11, 88, 0
13, 293880, Note_on_c, 11, 88, 76
13, 293984, Note_on_c, 11, 88, 0
13, 294000, Note_on_c, 11, 89, 76
13, 294104, Note_on_c, 11, 89, 0
13, 294120, Note_on_c, 11, 89, 76
13, 294224, Note_on_c, 11, 89, 0
13, 294240, Note_on_c, 11, 91, 76
13, 294344, Note_on_c, 11, 91, 0
13, 294360, Note_on_c, 11, 91, 76
13, 294464, Note_on_c, 11, 91, 0
13, 294480, Note_on_c, 11, 89, 76
13, 294584, Note_on_c, 11, 89, 0
13, 294600, Note_on_c, 11, 89, 76
13, 294704, Note_on_c, 11, 89, 0
13, 294720, Note_on_c, 11, 88, 76
13, 295424, Note_on_c, 11, 88, 0
13, 295440, Note_on_c, 11, 86, 76
13, 295544, Note_on_c, 11, 86, 0
13, 295560, Note_on_c, 11, 86, 76
13, 295664, Note_on_c, 11, 86, 0
13, 295680, Note_on_c, 11, 84, 76
13, 295784, Note_on_c, 11, 84, 0
13, 295800, Note_on_c, 11, 84, 76
13, 295904, Note_on_c, 11, 84, 0
13, 295920, Note_on_c, 11, 86, 76
13, 296024, Note_on_c, 11, 86, 0
13, 296040, Note_on_c, 11, 86, 76
13, 296144, Note_on_c, 11, 86, 0
13, 296160, Note_on_c, 11, 82, 76
13, 296264, Note_on_c, 11, 82, 0
13, 296280, Note_on_c, 11, 82, 76
13, 296384, Note_on_c, 11, 82, 0
13, 296400, Note_on_c, 11, 79, 76
13, 296504, Note_on_c, 11, 79, 0
13, 296520, Note_on_c, 11, 79, 76
13, 296624, Note_on_c, 11, 79, 0
13, 296640, Note_on_c, 11, 76, 76
13, 297599, Note_on_c, 11, 76, 0
13, 298800, Note_on_c, 11, 76, 52
13, 299039, Note_on_c, 11, 76, 0
13, 299040, Note_on_c, 11, 79, 52
13, 299279, Note_on_c, 11, 79, 0
13, 299280, Note_on_c, 11, 82, 52
13, 299504, Note_on_c, 11, 82, 0
13, 299520, Note_on_c, 11, 86, 44
13, 299624, Note_on_c, 11, 86, 0
13, 299640, Note_on_c, 11, 86, 44
13, 299744, Note_on_c, 11, 86, 0
13, 299760, Note_on_c, 11, 86, 44
13, 299864, Note_on_c, 11, 86, 0
13, 299880, Note_on_c, 11, 86, 44
13, 299984, Note_on_c, 11, 86, 0
13, 300000, Note_on_c, 11, 86, 44
13, 300104, Note_on_c, 11, 86, 0
13, 300120, Note_on_c, 11, 86, 44
13, 300224, Note_on_c, 11, 86, 0
13, 300240, Note_on_c, 11, 86, 44
13, 300344, Note_on_c, 11, 86, 0
13, 300360, Note_on_c, 11, 86, 44
13, 300464, Note_on_c, 11, 86, 0
13, 300480, Note_on_c, 11, 86, 44
13, 300584, Note_on_c, 11, 86, 0
13, 300600, Note_on_c, 11, 86, 44
13, 300704, Note_on_c, 11, 86, 0
13, 300720, Note_on_c, 11, 86, 44
13, 300824, Note_on_c, 11, 86, 0
13, 300840, Note_on_c, 11, 86, 44
13, 300944, Note_on_c, 11, 86, 0
13, 300960, Note_on_c, 11, 86, 44
13, 301064, Note_on_c, 11, 86, 0
13, 301080, Note_on_c, 11, 86, 44
13, 301184, Note_on_c, 11, 86, 0
13, 301200, Note_on_c, 11, 86, 44
13, 301304, Note_on_c, 11, 86, 0
13, 301320, Note_on_c, 11, 86, 44
13, 301424, Note_on_c, 11, 86, 0
13, 301440, Note_on_c, 11, 69, 84
13, 301440, Note_on_c, 11, 84, 84
13, 301679, Note_on_c, 11, 69, 0
13, 301679, Note_on_c, 11, 84, 0
13, 302160, Note_on_c, 11, 69, 84
13, 302160, Note_on_c, 11, 77, 84
13, 302384, Note_on_c, 11, 69, 0
13, 302384, Note_on_c, 11, 77, 0
13, 302400, Note_on_c, 11, 77, 84
13, 302400, Note_on_c, 11, 67, 84
13, 302639, Note_on_c, 11, 77, 0
13, 302639, Note_on_c, 11, 67, 0
13, 302880, Note_on_c, 11, 76, 84
13, 302880, Note_on_c, 11, 67, 84
13, 303119, Note_on_c, 11, 76, 0
13, 303119, Note_on_c, 11, 67, 0
13, 303360, Note_on_c, 11, 86, 44
13, 303464, Note_on_c, 11, 86, 0
13, 303480, Note_on_c, 11, 86, 44
13, 303584, Note_on_c, 11, 86, 0
13, 303600, Note_on_c, 11, 86, 44
13, 303704, Note_on_c, 11, 86, 0
13, 303720, Note_on_c, 11, 86, 44
13, 303824, Note_on_c, 11, 86, 0
13, 303840, Note_on_c, 11, 86, 44
13, 303944, Note_on_c, 11, 86, 0
13, 303960, Note_on_c, 11, 86, 44
13, 304064, Note_on_c, 11, 86, 0
13, 304080, Note_on_c, 11, 86, 44
13, 304184, Note_on_c, 11, 86, 0
13, 304200, Note_on_c, 11, 86, 44
13, 304304, Note_on_c, 11, 86, 0
13, 304320, Note_on_c, 11, 86, 44
13, 304424, Note_on_c, 11, 86, 0
13, 304440, Note_on_c, 11, 86, 44
13, 304544, Note_on_c, 11, 86, 0
13, 304560, Note_on_c, 11, 86, 44
13, 304664, Note_on_c, 11, 86, 0
13, 304680, Note_on_c, 11, 86, 44
13, 304784, Note_on_c, 11, 86, 0
13, 304800, Note_on_c, 11, 86, 44
13, 304904, Note_on_c, 11, 86, 0
13, 304920, Note_on_c, 11, 86, 44
13, 305024, Note_on_c, 11, 86, 0
13, 305040, Note_on_c, 11, 86, 44
13, 305144, Note_on_c, 11, 86, 0
13, 305160, Note_on_c, 11, 86, 44
13, 305264, Note_on_c, 11, 86, 0
13, 305280, Note_on_c, 11, 84, 84
13, 305280, Note_on_c, 11, 69, 84
13, 305519, Note_on_c, 11, 84, 0
13, 305519, Note_on_c, 11, 69, 0
13, 306000, Note_on_c, 11, 69, 84
13, 306000, Note_on_c, 11, 77, 84
13, 306224, Note_on_c, 11, 69, 0
13, 306224, Note_on_c, 11, 77, 0
13, 306240, Note_on_c, 11, 67, 84
13, 306240, Note_on_c, 11, 77, 84
13, 306479, Note_on_c, 11, 67, 0
13, 306479, Note_on_c, 11, 77, 0
13, 306720, Note_on_c, 11, 67, 84
13, 306720, Note_on_c, 11, 76, 84
13, 306959, Note_on_c, 11, 67, 0
13, 306959, Note_on_c, 11, 76, 0
13, 307200, Note_on_c, 11, 86, 44
13, 307304, Note_on_c, 11, 86, 0
13, 307320, Note_on_c, 11, 86, 46
13, 307424, Note_on_c, 11, 86, 0
13, 307440, Note_on_c, 11, 86, 48
13, 307544, Note_on_c, 11, 86, 0
13, 307560, Note_on_c, 11, 86, 50
13, 307664, Note_on_c, 11, 86, 0
13, 307680, Note_on_c, 11, 86, 52
13, 307784, Note_on_c, 11, 86, 0
13, 307800, Note_on_c, 11, 86, 54
13, 307904, Note_on_c, 11, 86, 0
13, 307920, Note_on_c, 11, 86, 56
13, 308024, Note_on_c, 11, 86, 0
13, 308040, Note_on_c, 11, 86, 58
13, 308144, Note_on_c, 11, 86, 0
13, 308160, Note_on_c, 11, 86, 60
13, 308264, Note_on_c, 11, 86, 0
13, 308280, Note_on_c, 11, 86, 62
13, 308384, Note_on_c, 11, 86, 0
13, 308400, Note_on_c, 11, 86, 64
13, 308504, Note_on_c, 11, 86, 0
13, 308520, Note_on_c, 11, 86, 66
13, 308624, Note_on_c, 11, 86, 0
13, 308640, Note_on_c, 11, 86, 68
13, 308744, Note_on_c, 11, 86, 0
13, 308760, Note_on_c, 11, 86, 70
13, 308864, Note_on_c, 11, 86, 0
13, 308880, Note_on_c, 11, 86, 72
13, 308984, Note_on_c, 11, 86, 0
13, 309000, Note_on_c, 11, 86, 74
13, 309104, Note_on_c, 11, 86, 0
13, 309120, Note_on_c, 11, 86, 76
13, 309224, Note_on_c, 11, 86, 0
13, 309240, Note_on_c, 11, 86, 76
13, 309344, Note_on_c, 11, 86, 0
13, 309360, Note_on_c, 11, 86, 76
13, 309464, Note_on_c, 11, 86, 0
13, 309480, Note_on_c, 11, 86, 76
13, 309584, Note_on_c, 11, 86, 0
13, 309600, Note_on_c, 11, 86, 76
13, 309704, Note_on_c, 11, 86, 0
13, 309720, Note_on_c, 11, 86, 76
13, 309824, Note_on_c, 11, 86, 0
13, 309840, Note_on_c, 11, 86, 76
13, 309944, Note_on_c, 11, 86, 0
13, 309960, Note_on_c, 11, 86, 76
13, 310064, Note_on_c, 11, 86, 0
13, 310080, Note_on_c, 11, 84, 76
13, 310184, Note_on_c, 11, 84, 0
13, 310200, Note_on_c, 11, 84, 76
13, 310304, Note_on_c, 11, 84, 0
13, 310320, Note_on_c, 11, 84, 76
13, 310424, Note_on_c, 11, 84, 0
13, 310440, Note_on_c, 11, 84, 76
13, 310544, Note_on_c, 11, 84, 0
13, 310560, Note_on_c, 11, 84, 76
13, 310664, Note_on_c, 11, 84, 0
13, 310680, Note_on_c, 11, 84, 76
13, 310784, Note_on_c, 11, 84, 0
13, 310800, Note_on_c, 11, 84, 76
13, 310904, Note_on_c, 11, 84, 0
13, 310920, Note_on_c, 11, 84, 76
13, 311024, Note_on_c, 11, 84, 0
13, 311040, Note_on_c, 11, 84, 76
13, 311144, Note_on_c, 11, 84, 0
13, 311160, Note_on_c, 11, 84, 76
13, 311264, Note_on_c, 11, 84, 0
13, 311280, Note_on_c, 11, 84, 76
13, 311384, Note_on_c, 11, 84, 0
13, 311400, Note_on_c, 11, 84, 76
13, 311504, Note_on_c, 11, 84, 0
13, 311520, Note_on_c, 11, 84, 76
13, 311624, Note_on_c, 11, 84, 0
13, 311640, Note_on_c, 11, 84, 76
13, 311744, Note_on_c, 11, 84, 0
13, 311760, Note_on_c, 11, 84, 76
13, 311864, Note_on_c, 11, 84, 0
13, 311880, Note_on_c, 11, 84, 76
13, 311984, Note_on_c, 11, 84, 0
13, 312000, Note_on_c, 11, 84, 76
13, 312104, Note_on_c, 11, 84, 0
13, 312120, Note_on_c, 11, 84, 76
13, 312224, Note_on_c, 11, 84, 0
13, 312240, Note_on_c, 11, 84, 76
13, 312344, Note_on_c, 11, 84, 0
13, 312360, Note_on_c, 11, 84, 76
13, 312464, Note_on_c, 11, 84, 0
13, 312480, Note_on_c, 11, 84, 76
13, 312584, Note_on_c, 11, 84, 0
13, 312600, Note_on_c, 11, 84, 76
13, 312704, Note_on_c, 11, 84, 0
13, 312720, Note_on_c, 11, 84, 76
13, 312824, Note_on_c, 11, 84, 0
13, 312840, Note_on_c, 11, 84, 76
13, 312944, Note_on_c, 11, 84, 0
13, 312960, Note_on_c, 11, 84, 84
13, 313064, Note_on_c, 11, 84, 0
13, 313080, Note_on_c, 11, 89, 84
13, 313184, Note_on_c, 11, 89, 0
13, 313200, Note_on_c, 11, 89, 84
13, 313304, Note_on_c, 11, 89, 0
13, 313320, Note_on_c, 11, 89, 84
13, 313424, Note_on_c, 11, 89, 0
13, 313440, Note_on_c, 11, 89, 84
13, 313544, Note_on_c, 11, 89, 0
13, 313560, Note_on_c, 11, 89, 84
13, 313664, Note_on_c, 11, 89, 0
13, 313680, Note_on_c, 11, 89, 84
13, 313784, Note_on_c, 11, 89, 0
13, 313800, Note_on_c, 11, 89, 84
13, 313904, Note_on_c, 11, 89, 0
13, 313920, Note_on_c, 11, 89, 84
13, 314024, Note_on_c, 11, 89, 0
13, 314040, Note_on_c, 11, 89, 84
13, 314144, Note_on_c, 11, 89, 0
13, 314160, Note_on_c, 11, 89, 84
13, 314264, Note_on_c, 11, 89, 0
13, 314280, Note_on_c, 11, 89, 84
13, 314384, Note_on_c, 11, 89, 0
13, 314400, Note_on_c, 11, 89, 84
13, 314504, Note_on_c, 11, 89, 0
13, 314520, Note_on_c, 11, 89, 84
13, 314624, Note_on_c, 11, 89, 0
13, 314640, Note_on_c, 11, 89, 84
13, 314744, Note_on_c, 11, 89, 0
13, 314760, Note_on_c, 11, 89, 84
13, 314864, Note_on_c, 11, 89, 0
13, 314880, Note_on_c, 11, 89, 84
13, 314984, Note_on_c, 11, 89, 0
13, 315000, Note_on_c, 11, 89, 84
13, 315104, Note_on_c, 11, 89, 0
13, 315120, Note_on_c, 11, 89, 84
13, 315224, Note_on_c, 11, 89, 0
13, 315240, Note_on_c, 11, 89, 84
13, 315344, Note_on_c, 11, 89, 0
13, 315360, Note_on_c, 11, 89, 84
13, 315464, Note_on_c, 11, 89, 0
13, 315480, Note_on_c, 11, 89, 84
13, 315584, Note_on_c, 11, 89, 0
13, 315600, Note_on_c, 11, 89, 84
13, 315704, Note_on_c, 11, 89, 0
13, 315720, Note_on_c, 11, 89, 84
13, 315824, Note_on_c, 11, 89, 0
13, 315840, Note_on_c, 11, 88, 84
13, 315944, Note_on_c, 11, 88, 0
13, 315960, Note_on_c, 11, 88, 84
13, 316064, Note_on_c, 11, 88, 0
13, 316080, Note_on_c, 11, 88, 84
13, 316184, Note_on_c, 11, 88, 0
13, 316200, Note_on_c, 11, 88, 84
13, 316304, Note_on_c, 11, 88, 0
13, 316320, Note_on_c, 11, 88, 84
13, 316424, Note_on_c, 11, 88, 0
13, 316440, Note_on_c, 11, 88, 84
13, 316544, Note_on_c, 11, 88, 0
13, 316560, Note_on_c, 11, 88, 84
13, 316664, Note_on_c, 11, 88, 0
13, 316680, Note_on_c, 11, 88, 84
13, 316784, Note_on_c, 11, 88, 0
13, 316800, Note_on_c, 11, 89, 76
13, 317024, Note_on_c, 11, 89, 0
13, 317040, Note_on_c, 11, 81, 76
13, 317504, Note_on_c, 11, 81, 0
13, 317520, Note_on_c, 11, 82, 76
13, 317984, Note_on_c, 11, 82, 0
13, 318000, Note_on_c, 11, 84, 76
13, 318464, Note_on_c, 11, 84, 0
13, 318480, Note_on_c, 11, 77, 76
13, 318944, Note_on_c, 11, 77, 0
13, 318960, Note_on_c, 11, 79, 76
13, 319424, Note_on_c, 11, 79, 0
13, 319440, Note_on_c, 11, 81, 76
13, 319904, Note_on_c, 11, 81, 0
13, 319920, Note_on_c, 11, 72, 76
13, 320384, Note_on_c, 11, 72, 0
13, 320400, Note_on_c, 11, 76, 76
13, 320400, Note_on_c, 11, 67, 76
13, 320400, Note_on_c, 11, 70, 76
13, 320579, Note_on_c, 11, 76, 0
13, 320579, Note_on_c, 11, 67, 0
13, 320579, Note_on_c, 11, 70, 0
13, 320640, Note_on_c, 11, 77, 76
13, 320640, Note_on_c, 11, 69, 76
13, 320819, Note_on_c, 11, 77, 0
13, 320819, Note_on_c, 11, 69, 0
13, 320880, Note_on_c, 11, 81, 76
13, 321344, Note_on_c, 11, 81, 0
13, 321360, Note_on_c, 11, 82, 76
13, 321824, Note_on_c, 11, 82, 0
13, 321840, Note_on_c, 11, 84, 76
13, 322304, Note_on_c, 11, 84, 0
13, 322320, Note_on_c, 11, 77, 76
13, 322784, Note_on_c, 11, 77, 0
13, 322800, Note_on_c, 11, 79, 76
13, 323264, Note_on_c, 11, 79, 0
13, 323280, Note_on_c, 11, 81, 76
13, 323744, Note_on_c, 11, 81, 0
13, 323760, Note_on_c, 11, 72, 76
13, 324224, Note_on_c, 11, 72, 0
13, 324240, Note_on_c, 11, 67, 76
13, 324240, Note_on_c, 11, 70, 76
13, 324240, Note_on_c, 11, 76, 76
13, 324464, Note_on_c, 11, 67, 0
13, 324464, Note_on_c, 11, 70, 0
13, 324464, Note_on_c, 11, 76, 0
13, 324480, Note_on_c, 11, 69, 76
13, 324480, Note_on_c, 11, 77, 76
13, 324704, Note_on_c, 11, 69, 0
13, 324704, Note_on_c, 11, 77, 0
13, 324720, Note_on_c, 11, 79, 76
13, 325184, Note_on_c, 11, 79, 0
13, 325200, Note_on_c, 11, 81, 76
13, 325664, Note_on_c, 11, 81, 0
13, 325680, Note_on_c, 11, 82, 76
13, 326144, Note_on_c, 11, 82, 0
13, 326160, Note_on_c, 11, 84, 76
13, 326519, Note_on_c, 11, 84, 0
13, 326640, Note_on_c, 11, 81, 76
13, 326759, Note_on_c, 11, 81, 0
13, 326880, Note_on_c, 11, 77, 76
13, 326999, Note_on_c, 11, 77, 0
13, 327120, Note_on_c, 11, 81, 76
13, 327239, Note_on_c, 11, 81, 0
13, 327360, Note_on_c, 11, 72, 76
13, 327479, Note_on_c, 11, 72, 0
13, 327600, Note_on_c, 11, 77, 76
13, 327719, Note_on_c, 11, 77, 0
13, 327840, Note_on_c, 11, 69, 76
13, 327959, Note_on_c, 11, 69, 0
13, 328080, Note_on_c, 11, 72, 76
13, 328199, Note_on_c, 11, 72, 0
13, 328320, Note_on_c, 11, 65, 76
13, 328439, Note_on_c, 11, 65, 0
13, 328560, Note_on_c, 11, 69, 76
13, 328679, Note_on_c, 11, 69, 0
13, 328800, Note_on_c, 11, 60, 76
13, 328919, Note_on_c, 11, 60, 0
13, 329040, Note_on_c, 11, 65, 76
13, 329159, Note_on_c, 11, 65, 0
13, 329280, Note_on_c, 11, 57, 76
13, 329519, Note_on_c, 11, 57, 0
13, 330120, Note_on_c, 11, 77, 76
13, 330159, Note_on_c, 11, 77, 0
13, 330160, Note_on_c, 11, 79, 76
13, 330199, Note_on_c, 11, 79, 0
13, 330200, Note_on_c, 11, 81, 76
13, 330231, Note_on_c, 11, 81, 0
13, 330240, Note_on_c, 11, 82, 84
13, 330359, Note_on_c, 11, 82, 0
13, 330480, Note_on_c, 11, 79, 76
13, 330599, Note_on_c, 11, 79, 0
13, 330720, Note_on_c, 11, 76, 76
13, 330839, Note_on_c, 11, 76, 0
13, 330960, Note_on_c, 11, 79, 76
13, 331079, Note_on_c, 11, 79, 0
13, 331200, Note_on_c, 11, 70, 76
13, 331319, Note_on_c, 11, 70, 0
13, 331440, Note_on_c, 11, 76, 76
13, 331559, Note_on_c, 11, 76, 0
13, 331680, Note_on_c, 11, 67, 76
13, 331799, Note_on_c, 11, 67, 0
13, 331920, Note_on_c, 11, 70, 76
13, 332039, Note_on_c, 11, 70, 0
13, 332160, Note_on_c, 11, 64, 76
13, 332279, Note_on_c, 11, 64, 0
13, 332400, Note_on_c, 11, 67, 76
13, 332519, Note_on_c, 11, 67, 0
13, 332640, Note_on_c, 11, 58, 76
13, 332759, Note_on_c, 11, 58, 0
13, 332880, Note_on_c, 11, 64, 76
13, 332999, Note_on_c, 11, 64, 0
13, 333120, Note_on_c, 11, 55, 76
13, 333359, Note_on_c, 11, 55, 0
13, 333960, Note_on_c, 11, 76, 76
13, 333999, Note_on_c, 11, 76, 0
13, 334000, Note_on_c, 11, 77, 76
13, 334039, Note_on_c, 11, 77, 0
13, 334040, Note_on_c, 11, 79, 76
13, 334071, Note_on_c, 11, 79, 0
13, 334080, Note_on_c, 11, 81, 84
13, 334199, Note_on_c, 11, 81, 0
13, 334320, Note_on_c, 11, 77, 76
13, 334439, Note_on_c, 11, 77, 0
13, 334560, Note_on_c, 11, 72, 76
13, 334679, Note_on_c, 11, 72, 0
13, 334800, Note_on_c, 11, 77, 76
13, 334919, Note_on_c, 11, 77, 0
13, 335880, Note_on_c, 11, 74, 76
13, 335919, Note_on_c, 11, 74, 0
13, 335920, Note_on_c, 11, 76, 76
13, 335959, Note_on_c, 11, 76, 0
13, 335960, Note_on_c, 11, 77, 76
13, 335991, Note_on_c, 11, 77, 0
13, 336000, Note_on_c, 11, 79, 84
13, 336119, Note_on_c, 11, 79, 0
13, 336240, Note_on_c, 11, 74, 76
13, 336359, Note_on_c, 11, 74, 0
13, 336480, Note_on_c, 11, 70, 76
13, 336599, Note_on_c, 11, 70, 0
13, 336720, Note_on_c, 11, 74, 76
13, 336839, Note_on_c, 11, 74, 0
13, 337800, Note_on_c, 11, 72, 76
13, 337839, Note_on_c, 11, 72, 0
13, 337840, Note_on_c, 11, 74, 76
13, 337879, Note_on_c, 11, 74, 0
13, 337880, Note_on_c, 11, 76, 76
13, 337911, Note_on_c, 11, 76, 0
13, 337920, Note_on_c, 11, 77, 84
13, 338039, Note_on_c, 11, 77, 0
13, 338160, Note_on_c, 11, 72, 76
13, 338279, Note_on_c, 11, 72, 0
13, 338400, Note_on_c, 11, 69, 76
13, 338519, Note_on_c, 11, 69, 0
13, 338640, Note_on_c, 11, 72, 76
13, 338759, Note_on_c, 11, 72, 0
13, 339720, Note_on_c, 11, 67, 76
13, 339759, Note_on_c, 11, 67, 0
13, 339760, Note_on_c, 11, 69, 76
13, 339799, Note_on_c, 11, 69, 0
13, 339800, Note_on_c, 11, 71, 76
13, 339831, Note_on_c, 11, 71, 0
13, 339840, Note_on_c, 11, 72, 84
13, 339959, Note_on_c, 11, 72, 0
13, 340080, Note_on_c, 11, 67, 76
13, 340199, Note_on_c, 11, 67, 0
13, 340320, Note_on_c, 11, 64, 76
13, 340439, Note_on_c, 11, 64, 0
13, 340560, Note_on_c, 11, 67, 76
13, 340679, Note_on_c, 11, 67, 0
13, 341640, Note_on_c, 11, 64, 76
13, 341679, Note_on_c, 11, 64, 0
13, 341680, Note_on_c, 11, 65, 76
13, 341719, Note_on_c, 11, 65, 0
13, 341720, Note_on_c, 11, 67, 76
13, 341751, Note_on_c, 11, 67, 0
13, 341760, Note_on_c, 11, 57, 52
13, 341760, Control_c, 11, 11, 127
13, 341760, Note_on_c, 11, 69, 52
13, 341872, Control_c, 11, 11, 126
13, 341984, Control_c, 11, 11, 125
13, 342096, Control_c, 11, 11, 124
13, 342208, Control_c, 11, 11, 123
13, 342320, Control_c, 11, 11, 122
13, 342432, Control_c, 11, 11, 121
13, 342544, Control_c, 11, 11, 120
13, 342656, Control_c, 11, 11, 119
13, 342719, Note_on_c, 11, 57, 0
13, 342719, Note_on_c, 11, 69, 0
13, 342720, Note_on_c, 11, 69, 52
13, 342720, Note_on_c, 11, 57, 52
13, 342768, Control_c, 11, 11, 118
13, 342880, Control_c, 11, 11, 117
13, 342992, Control_c, 11, 11, 116
13, 343104, Control_c, 11, 11, 115
13, 343216, Control_c, 11, 11, 114
13, 343328, Control_c, 11, 11, 112
13, 343424, Note_on_c, 11, 69, 0
13, 343424, Note_on_c, 11, 57, 0
13, 343438, Control_c, 11, 11, 127
13, 343440, Note_on_c, 11, 57, 44
13, 343499, Note_on_c, 11, 57, 0
13, 343500, Note_on_c, 11, 59, 44
13, 343559, Note_on_c, 11, 59, 0
13, 343560, Note_on_c, 11, 61, 44
13, 343619, Note_on_c, 11, 61, 0
13, 343620, Note_on_c, 11, 62, 44
13, 343671, Note_on_c, 11, 62, 0
13, 343680, Note_on_c, 11, 64, 44
13, 344639, Note_on_c, 11, 64, 0
13, 344640, Note_on_c, 11, 64, 44
13, 345344, Note_on_c, 11, 64, 0
13, 345360, Note_on_c, 11, 57, 44
13, 345419, Note_on_c, 11, 57, 0
13, 345420, Note_on_c, 11, 59, 44
13, 345479, Note_on_c, 11, 59, 0
13, 345480, Note_on_c, 11, 61, 44
13, 345539, Note_on_c, 11, 61, 0
13, 345540, Note_on_c, 11, 62, 44
13, 345591, Note_on_c, 11, 62, 0
13, 345600, Note_on_c, 11, 64, 44
13, 346304, Note_on_c, 11, 64, 0
13, 346320, Note_on_c, 11, 57, 44
13, 346379, Note_on_c, 11, 57, 0
13, 346380, Note_on_c, 11, 59, 44
13, 346439, Note_on_c, 11, 59, 0
13, 346440, Note_on_c, 11, 61, 44
13, 346499, Note_on_c, 11, 61, 0
13, 346500, Note_on_c, 11, 62, 44
13, 346551, Note_on_c, 11, 62, 0
13, 346560, Note_on_c, 11, 64, 44
13, 347264, Note_on_c, 11, 64, 0
13, 347280, Note_on_c, 11, 57, 44
13, 347339, Note_on_c, 11, 57, 0
13, 347340, Note_on_c, 11, 59, 44
13, 347399, Note_on_c, 11, 59, 0
13, 347400, Note_on_c, 11, 61, 44
13, 347459, Note_on_c, 11, 61, 0
13, 347460, Note_on_c, 11, 62, 44
13, 347511, Note_on_c, 11, 62, 0
13, 347520, Note_on_c, 11, 64, 44
13, 348224, Note_on_c, 11, 64, 0
13, 348240, Note_on_c, 11, 57, 44
13, 348299, Note_on_c, 11, 57, 0
13, 348300, Note_on_c, 11, 59, 44
13, 348359, Note_on_c, 11, 59, 0
13, 348360, Note_on_c, 11, 61, 44
13, 348419, Note_on_c, 11, 61, 0
13, 348420, Note_on_c, 11, 62, 44
13, 348471, Note_on_c, 11, 62, 0
13, 348480, Note_on_c, 11, 64, 44
13, 349184, Note_on_c, 11, 64, 0
13, 349200, Note_on_c, 11, 57, 44
13, 349259, Note_on_c, 11, 57, 0
13, 349260, Note_on_c, 11, 59, 44
13, 349319, Note_on_c, 11, 59, 0
13, 349320, Note_on_c, 11, 61, 44
13, 349379, Note_on_c, 11, 61, 0
13, 349380, Note_on_c, 11, 62, 44
13, 349431, Note_on_c, 11, 62, 0
13, 349440, Note_on_c, 11, 64, 44
13, 350144, Note_on_c, 11, 64, 0
13, 350160, Note_on_c, 11, 61, 44
13, 350219, Note_on_c, 11, 61, 0
13, 350220, Note_on_c, 11, 62, 44
13, 350279, Note_on_c, 11, 62, 0
13, 350280, Note_on_c, 11, 64, 44
13, 350339, Note_on_c, 11, 64, 0
13, 350340, Note_on_c, 11, 66, 44
13, 350391, Note_on_c, 11, 66, 0
13, 350400, Note_on_c, 11, 67, 44
13, 351104, Note_on_c, 11, 67, 0
13, 351120, Note_on_c, 11, 61, 44
13, 351179, Note_on_c, 11, 61, 0
13, 351180, Note_on_c, 11, 62, 44
13, 351239, Note_on_c, 11, 62, 0
13, 351240, Note_on_c, 11, 64, 44
13, 351299, Note_on_c, 11, 64, 0
13, 351300, Note_on_c, 11, 66, 44
13, 351351, Note_on_c, 11, 66, 0
13, 351360, Note_on_c, 11, 67, 44
13, 352064, Note_on_c, 11, 67, 0
13, 352080, Note_on_c, 11, 61, 44
13, 352139, Note_on_c, 11, 61, 0
13, 352140, Note_on_c, 11, 62, 44
13, 352199, Note_on_c, 11, 62, 0
13, 352200, Note_on_c, 11, 64, 44
13, 352259, Note_on_c, 11, 64, 0
13, 352260, Note_on_c, 11, 66, 44
13, 352311, Note_on_c, 11, 66, 0
13, 352320, Note_on_c, 11, 67, 44
13, 353024, Note_on_c, 11, 67, 0
13, 353038, Control_c, 11, 11, 64
13, 353040, Note_on_c, 11, 61, 76
13, 353099, Note_on_c, 11, 61, 0
13, 353100, Note_on_c, 11, 62, 76
13, 353159, Note_on_c, 11, 62, 0
13, 353160, Note_on_c, 11, 64, 76
13, 353219, Note_on_c, 11, 64, 0
13, 353220, Note_on_c, 11, 66, 76
13, 353271, Note_on_c, 11, 66, 0
13, 353280, Control_c, 11, 11, 64
13, 353280, Note_on_c, 11, 67, 76
13, 353440, Control_c, 11, 11, 69
13, 353459, Note_on_c, 11, 67, 0
13, 353520, Note_on_c, 11, 67, 76
13, 353600, Control_c, 11, 11, 75
13, 353699, Note_on_c, 11, 67, 0
13, 353760, Control_c, 11, 11, 80
13, 353760, Note_on_c, 11, 64, 76
13, 353920, Control_c, 11, 11, 85
13, 353939, Note_on_c, 11, 64, 0
13, 354000, Note_on_c, 11, 67, 76
13, 354080, Control_c, 11, 11, 90
13, 354179, Note_on_c, 11, 67, 0
13, 354240, Note_on_c, 11, 64, 76
13, 354240, Control_c, 11, 11, 96
13, 354400, Control_c, 11, 11, 101
13, 354419, Note_on_c, 11, 64, 0
13, 354480, Note_on_c, 11, 67, 76
13, 354560, Control_c, 11, 11, 106
13, 354659, Note_on_c, 11, 67, 0
13, 354720, Note_on_c, 11, 64, 76
13, 354720, Control_c, 11, 11, 111
13, 354880, Control_c, 11, 11, 117
13, 354899, Note_on_c, 11, 64, 0
13, 354960, Note_on_c, 11, 66, 76
13, 355040, Control_c, 11, 11, 127
13, 355139, Note_on_c, 11, 66, 0
13, 355200, Note_on_c, 11, 62, 76
13, 355304, Note_on_c, 11, 62, 0
13, 355320, Note_on_c, 11, 69, 52
13, 355424, Note_on_c, 11, 69, 0
13, 355440, Note_on_c, 11, 69, 52
13, 355544, Note_on_c, 11, 69, 0
13, 355560, Note_on_c, 11, 69, 52
13, 355664, Note_on_c, 11, 69, 0
13, 355680, Note_on_c, 11, 69, 52
13, 355784, Note_on_c, 11, 69, 0
13, 355800, Note_on_c, 11, 69, 52
13, 355904, Note_on_c, 11, 69, 0
13, 355920, Note_on_c, 11, 69, 52
13, 356024, Note_on_c, 11, 69, 0
13, 356040, Note_on_c, 11, 69, 52
13, 356144, Note_on_c, 11, 69, 0
13, 356160, Note_on_c, 11, 69, 52
13, 356264, Note_on_c, 11, 69, 0
13, 356280, Note_on_c, 11, 69, 52
13, 356384, Note_on_c, 11, 69, 0
13, 356400, Note_on_c, 11, 69, 52
13, 356504, Note_on_c, 11, 69, 0
13, 356520, Note_on_c, 11, 69, 52
13, 356624, Note_on_c, 11, 69, 0
13, 356640, Note_on_c, 11, 69, 52
13, 356744, Note_on_c, 11, 69, 0
13, 356760, Note_on_c, 11, 69, 52
13, 356864, Note_on_c, 11, 69, 0
13, 356880, Note_on_c, 11, 69, 52
13, 356984, Note_on_c, 11, 69, 0
13, 357000, Note_on_c, 11, 69, 52
13, 357104, Note_on_c, 11, 69, 0
13, 357120, Note_on_c, 11, 71, 52
13, 357224, Note_on_c, 11, 71, 0
13, 357240, Note_on_c, 11, 71, 52
13, 357344, Note_on_c, 11, 71, 0
13, 357360, Note_on_c, 11, 71, 52
13, 357464, Note_on_c, 11, 71, 0
13, 357480, Note_on_c, 11, 71, 52
13, 357584, Note_on_c, 11, 71, 0
13, 357600, Note_on_c, 11, 71, 52
13, 357704, Note_on_c, 11, 71, 0
13, 357720, Note_on_c, 11, 71, 52
13, 357824, Note_on_c, 11, 71, 0
13, 357840, Note_on_c, 11, 71, 52
13, 357944, Note_on_c, 11, 71, 0
13, 357960, Note_on_c, 11, 71, 52
13, 358064, Note_on_c, 11, 71, 0
13, 358080, Note_on_c, 11, 73, 52
13, 358184, Note_on_c, 11, 73, 0
13, 358200, Note_on_c, 11, 73, 52
13, 358304, Note_on_c, 11, 73, 0
13, 358320, Note_on_c, 11, 73, 52
13, 358424, Note_on_c, 11, 73, 0
13, 358440, Note_on_c, 11, 73, 52
13, 358544, Note_on_c, 11, 73, 0
13, 358560, Note_on_c, 11, 73, 52
13, 358664, Note_on_c, 11, 73, 0
13, 358680, Note_on_c, 11, 73, 52
13, 358784, Note_on_c, 11, 73, 0
13, 358800, Note_on_c, 11, 73, 52
13, 358904, Note_on_c, 11, 73, 0
13, 358920, Note_on_c, 11, 73, 52
13, 359024, Note_on_c, 11, 73, 0
13, 359040, Note_on_c, 11, 74, 52
13, 359999, Note_on_c, 11, 74, 0
13, 360000, Note_on_c, 11, 74, 52
13, 360479, Note_on_c, 11, 74, 0
13, 360480, Note_on_c, 11, 76, 52
13, 360719, Note_on_c, 11, 76, 0
13, 360720, Note_on_c, 11, 78, 52
13, 360911, Note_on_c, 11, 78, 0
13, 360920, Note_on_c, 11, 81, 52
13, 360959, Note_on_c, 11, 81, 0
13, 360960, Note_on_c, 11, 79, 52
13, 361439, Note_on_c, 11, 79, 0
13, 361440, Note_on_c, 11, 78, 52
13, 361679, Note_on_c, 11, 78, 0
13, 361680, Note_on_c, 11, 79, 52
13, 361904, Note_on_c, 11, 79, 0
13, 361920, Note_on_c, 11, 76, 52
13, 362399, Note_on_c, 11, 76, 0
13, 362400, Note_on_c, 11, 81, 52
13, 362864, Note_on_c, 11, 81, 0
13, 362880, Note_on_c, 11, 74, 52
13, 362999, Note_on_c, 11, 74, 0
13, 363120, Note_on_c, 11, 79, 52
13, 363239, Note_on_c, 11, 79, 0
13, 363360, Note_on_c, 11, 74, 52
13, 363479, Note_on_c, 11, 74, 0
13, 363600, Note_on_c, 11, 79, 52
13, 363719, Note_on_c, 11, 79, 0
13, 363840, Note_on_c, 11, 70, 52
13, 363959, Note_on_c, 11, 70, 0
13, 364080, Note_on_c, 11, 74, 52
13, 364199, Note_on_c, 11, 74, 0
13, 364320, Note_on_c, 11, 67, 52
13, 364439, Note_on_c, 11, 67, 0
13, 364560, Note_on_c, 11, 70, 52
13, 364679, Note_on_c, 11, 70, 0
13, 364800, Note_on_c, 11, 63, 52
13, 364919, Note_on_c, 11, 63, 0
13, 365040, Note_on_c, 11, 72, 52
13, 365159, Note_on_c, 11, 72, 0
13, 365280, Note_on_c, 11, 69, 52
13, 365399, Note_on_c, 11, 69, 0
13, 365520, Note_on_c, 11, 67, 52
13, 365639, Note_on_c, 11, 67, 0
13, 365760, Note_on_c, 11, 66, 52
13, 365879, Note_on_c, 11, 66, 0
13, 366000, Note_on_c, 11, 74, 52
13, 366119, Note_on_c, 11, 74, 0
13, 366240, Note_on_c, 11, 72, 52
13, 366359, Note_on_c, 11, 72, 0
13, 366480, Note_on_c, 11, 69, 52
13, 366599, Note_on_c, 11, 69, 0
13, 366720, Note_on_c, 11, 79, 52
13, 367679, Note_on_c, 11, 79, 0
13, 367680, Note_on_c, 11, 79, 52
13, 368159, Note_on_c, 11, 79, 0
13, 368160, Note_on_c, 11, 80, 52
13, 368399, Note_on_c, 11, 80, 0
13, 368400, Note_on_c, 11, 82, 52
13, 368624, Note_on_c, 11, 82, 0
13, 368640, Note_on_c, 11, 84, 52
13, 369119, Note_on_c, 11, 84, 0
13, 369120, Note_on_c, 11, 82, 52
13, 369359, Note_on_c, 11, 82, 0
13, 369360, Note_on_c, 11, 84, 52
13, 369584, Note_on_c, 11, 84, 0
13, 369600, Note_on_c, 11, 86, 52
13, 370079, Note_on_c, 11, 86, 0
13, 370080, Note_on_c, 11, 84, 52
13, 370319, Note_on_c, 11, 84, 0
13, 370320, Note_on_c, 11, 86, 52
13, 370544, Note_on_c, 11, 86, 0
13, 370560, Note_on_c, 11, 87, 52
13, 370799, Note_on_c, 11, 87, 0
13, 371280, Program_c, 11, 45
13, 371520, Note_on_c, 11, 67, 48
13, 371520, Note_on_c, 11, 75, 48
13, 371759, Note_on_c, 11, 67, 0
13, 371759, Note_on_c, 11, 75, 0
13, 372480, Note_on_c, 11, 65, 48
13, 372480, Note_on_c, 11, 75, 48
13, 372719, Note_on_c, 11, 65, 0
13, 372719, Note_on_c, 11, 75, 0
13, 373440, Note_on_c, 11, 65, 48
13, 373440, Note_on_c, 11, 74, 48
13, 373679, Note_on_c, 11, 65, 0
13, 373679, Note_on_c, 11, 74, 0
13, 374160, Control_c, 11, 11, 64
13, 374160, Program_c, 11, 48
13, 374400, Note_on_c, 11, 75, 84
13, 374400, Control_c, 11, 11, 64
13, 374507, Control_c, 11, 11, 66
13, 374613, Control_c, 11, 11, 68
13, 374720, Control_c, 11, 11, 69
13, 374827, Control_c, 11, 11, 71
13, 374933, Control_c, 11, 11, 73
13, 375040, Control_c, 11, 11, 75
13, 375147, Control_c, 11, 11, 76
13, 375253, Control_c, 11, 11, 78
13, 375359, Note_on_c, 11, 75, 0
13, 375360, Control_c, 11, 11, 80
13, 375360, Note_on_c, 11, 75, 84
13, 375467, Control_c, 11, 11, 82
13, 375573, Control_c, 11, 11, 83
13, 375680, Control_c, 11, 11, 85
13, 375787, Control_c, 11, 11, 87
13, 375839, Note_on_c, 11, 75, 0
13, 375840, Note_on_c, 11, 77, 84
13, 375893, Control_c, 11, 11, 89
13, 376000, Control_c, 11, 11, 90
13, 376079, Note_on_c, 11, 77, 0
13, 376080, Note_on_c, 11, 79, 84
13, 376107, Control_c, 11, 11, 92
13, 376213, Control_c, 11, 11, 94
13, 376304, Note_on_c, 11, 79, 0
13, 376320, Note_on_c, 11, 80, 84
13, 376320, Control_c, 11, 11, 96
13, 376427, Control_c, 11, 11, 97
13, 376533, Control_c, 11, 11, 99
13, 376640, Control_c, 11, 11, 101
13, 376747, Control_c, 11, 11, 103
13, 376799, Note_on_c, 11, 80, 0
13, 376800, Note_on_c, 11, 79, 84
13, 376853, Control_c, 11, 11, 104
13, 376960, Control_c, 11, 11, 106
13, 377039, Note_on_c, 11, 79, 0
13, 377040, Note_on_c, 11, 80, 84
13, 377067, Control_c, 11, 11, 108
13, 377173, Control_c, 11, 11, 110
13, 377264, Note_on_c, 11, 80, 0
13, 377280, Control_c, 11, 11, 111
13, 377280, Note_on_c, 11, 77, 84
13, 377387, Control_c, 11, 11, 113
13, 377493, Control_c, 11, 11, 115
13, 377600, Control_c, 11, 11, 117
13, 377707, Control_c, 11, 11, 118
13, 377759, Note_on_c, 11, 77, 0
13, 377760, Note_on_c, 11, 82, 84
13, 377813, Control_c, 11, 11, 120
13, 377920, Control_c, 11, 11, 122
13, 377999, Note_on_c, 11, 82, 0
13, 378027, Control_c, 11, 11, 124
13, 378120, Note_on_c, 11, 82, 84
13, 378133, Control_c, 11, 11, 127
13, 378159, Note_on_c, 11, 82, 0
13, 378160, Note_on_c, 11, 84, 84
13, 378199, Note_on_c, 11, 84, 0
13, 378200, Note_on_c, 11, 86, 84
13, 378231, Note_on_c, 11, 86, 0
13, 378240, Note_on_c, 11, 87, 84
13, 379199, Note_on_c, 11, 87, 0
13, 379200, Note_on_c, 11, 87, 84
13, 380024, Note_on_c, 11, 87, 0
13, 380040, Note_on_c, 11, 82, 84
13, 380079, Note_on_c, 11, 82, 0
13, 380080, Note_on_c, 11, 84, 84
13, 380119, Note_on_c, 11, 84, 0
13, 380120, Note_on_c, 11, 86, 84
13, 380151, Note_on_c, 11, 86, 0
13, 380160, Note_on_c, 11, 87, 84
13, 380984, Note_on_c, 11, 87, 0
13, 381000, Note_on_c, 11, 82, 84
13, 381039, Note_on_c, 11, 82, 0
13, 381040, Note_on_c, 11, 84, 84
13, 381079, Note_on_c, 11, 84, 0
13, 381080, Note_on_c, 11, 86, 84
13, 381111, Note_on_c, 11, 86, 0
13, 381120, Note_on_c, 11, 87, 84
13, 381299, Note_on_c, 11, 87, 0
13, 381480, Note_on_c, 11, 82, 84
13, 381519, Note_on_c, 11, 82, 0
13, 381520, Note_on_c, 11, 84, 84
13, 381559, Note_on_c, 11, 84, 0
13, 381560, Note_on_c, 11, 86, 84
13, 381591, Note_on_c, 11, 86, 0
13, 381600, Note_on_c, 11, 87, 84
13, 381779, Note_on_c, 11, 87, 0
13, 381960, Note_on_c, 11, 82, 84
13, 381999, Note_on_c, 11, 82, 0
13, 382000, Note_on_c, 11, 84, 84
13, 382039, Note_on_c, 11, 84, 0
13, 382040, Note_on_c, 11, 86, 84
13, 382071, Note_on_c, 11, 86, 0
13, 382080, Note_on_c, 11, 87, 76
13, 382259, Note_on_c, 11, 87, 0
13, 382320, Note_on_c, 11, 82, 52
13, 382499, Note_on_c, 11, 82, 0
13, 382560, Note_on_c, 11, 79, 52
13, 382739, Note_on_c, 11, 79, 0
13, 382800, Note_on_c, 11, 82, 52
13, 382979, Note_on_c, 11, 82, 0
13, 383280, Note_on_c, 11, 79, 52
13, 383459, Note_on_c, 11, 79, 0
13, 383520, Note_on_c, 11, 75, 52
13, 383699, Note_on_c, 11, 75, 0
13, 383760, Note_on_c, 11, 79, 52
13, 383939, Note_on_c, 11, 79, 0
13, 384240, Note_on_c, 11, 75, 52
13, 384419, Note_on_c, 11, 75, 0
13, 384480, Note_on_c, 11, 70, 52
13, 384659, Note_on_c, 11, 70, 0
13, 384720, Note_on_c, 11, 75, 52
13, 384899, Note_on_c, 11, 75, 0
13, 385200, Note_on_c, 11, 70, 52
13, 385379, Note_on_c, 11, 70, 0
13, 385440, Note_on_c, 11, 67, 52
13, 385619, Note_on_c, 11, 67, 0
13, 385800, Note_on_c, 11, 83, 52
13, 385859, Note_on_c, 11, 83, 0
13, 385860, Note_on_c, 11, 84, 52
13, 385911, Note_on_c, 11, 84, 0
13, 385920, Note_on_c, 11, 86, 84
13, 386879, Note_on_c, 11, 86, 0
13, 386880, Note_on_c, 11, 86, 84
13, 387704, Note_on_c, 11, 86, 0
13, 387720, Note_on_c, 11, 83, 84
13, 387779, Note_on_c, 11, 83, 0
13, 387780, Note_on_c, 11, 84, 84
13, 387831, Note_on_c, 11, 84, 0
13, 387840, Note_on_c, 11, 86, 84
13, 388664, Note_on_c, 11, 86, 0
13, 388680, Note_on_c, 11, 83, 84
13, 388739, Note_on_c, 11, 83, 0
13, 388740, Note_on_c, 11, 84, 84
13, 388791, Note_on_c, 11, 84, 0
13, 388800, Note_on_c, 11, 86, 84
13, 388979, Note_on_c, 11, 86, 0
13, 389160, Note_on_c, 11, 83, 84
13, 389219, Note_on_c, 11, 83, 0
13, 389220, Note_on_c, 11, 84, 84
13, 389271, Note_on_c, 11, 84, 0
13, 389280, Note_on_c, 11, 86, 84
13, 389459, Note_on_c, 11, 86, 0
13, 389640, Note_on_c, 11, 83, 84
13, 389699, Note_on_c, 11, 83, 0
13, 389700, Note_on_c, 11, 84, 84
13, 389751, Note_on_c, 11, 84, 0
13, 389760, Note_on_c, 11, 86, 76
13, 389939, Note_on_c, 11, 86, 0
13, 390000, Note_on_c, 11, 83, 52
13, 390179, Note_on_c, 11, 83, 0
13, 390240, Note_on_c, 11, 79, 52
13, 390419, Note_on_c, 11, 79, 0
13, 390480, Note_on_c, 11, 83, 52
13, 390659, Note_on_c, 11, 83, 0
13, 390960, Note_on_c, 11, 79, 52
13, 391139, Note_on_c, 11, 79, 0
13, 391200, Note_on_c, 11, 74, 52
13, 391379, Note_on_c, 11, 74, 0
13, 391440, Note_on_c, 11, 79, 52
13, 391619, Note_on_c, 11, 79, 0
13, 391920, Note_on_c, 11, 74, 52
13, 392099, Note_on_c, 11, 74, 0
13, 392160, Note_on_c, 11, 71, 52
13, 392339, Note_on_c, 11, 71, 0
13, 392400, Note_on_c, 11, 74, 52
13, 392579, Note_on_c, 11, 74, 0
13, 392880, Note_on_c, 11, 71, 52
13, 393059, Note_on_c, 11, 71, 0
13, 393120, Note_on_c, 11, 67, 52
13, 393299, Note_on_c, 11, 67, 0
13, 393480, Note_on_c, 11, 82, 52
13, 393539, Note_on_c, 11, 82, 0
13, 393540, Note_on_c, 11, 84, 52
13, 393591, Note_on_c, 11, 84, 0
13, 393600, Note_on_c, 11, 85, 84
13, 394559, Note_on_c, 11, 85, 0
13, 394560, Note_on_c, 11, 85, 84
13, 395384, Note_on_c, 11, 85, 0
13, 395400, Note_on_c, 11, 82, 84
13, 395459, Note_on_c, 11, 82, 0
13, 395460, Note_on_c, 11, 84, 84
13, 395511, Note_on_c, 11, 84, 0
13, 395520, Note_on_c, 11, 85, 84
13, 396344, Note_on_c, 11, 85, 0
13, 396360, Note_on_c, 11, 82, 84
13, 396419, Note_on_c, 11, 82, 0
13, 396420, Note_on_c, 11, 84, 84
13, 396471, Note_on_c, 11, 84, 0
13, 396480, Note_on_c, 11, 85, 84
13, 396659, Note_on_c, 11, 85, 0
13, 396840, Note_on_c, 11, 82, 84
13, 396899, Note_on_c, 11, 82, 0
13, 396900, Note_on_c, 11, 84, 84
13, 396951, Note_on_c, 11, 84, 0
13, 396960, Note_on_c, 11, 85, 84
13, 397139, Note_on_c, 11, 85, 0
13, 397320, Note_on_c, 11, 82, 84
13, 397379, Note_on_c, 11, 82, 0
13, 397380, Note_on_c, 11, 84, 84
13, 397431, Note_on_c, 11, 84, 0
13, 397440, Note_on_c, 11, 85, 76
13, 397619, Note_on_c, 11, 85, 0
13, 397680, Note_on_c, 11, 82, 76
13, 397859, Note_on_c, 11, 82, 0
13, 397920, Note_on_c, 11, 79, 76
13, 398099, Note_on_c, 11, 79, 0
13, 398160, Note_on_c, 11, 82, 76
13, 398339, Note_on_c, 11, 82, 0
13, 398640, Note_on_c, 11, 79, 76
13, 398819, Note_on_c, 11, 79, 0
13, 398880, Note_on_c, 11, 76, 76
13, 399059, Note_on_c, 11, 76, 0
13, 399120, Note_on_c, 11, 79, 76
13, 399299, Note_on_c, 11, 79, 0
13, 399600, Note_on_c, 11, 76, 76
13, 399779, Note_on_c, 11, 76, 0
13, 399840, Note_on_c, 11, 73, 76
13, 400019, Note_on_c, 11, 73, 0
13, 400080, Note_on_c, 11, 76, 76
13, 400259, Note_on_c, 11, 76, 0
13, 400560, Note_on_c, 11, 73, 76
13, 400739, Note_on_c, 11, 73, 0
13, 400800, Note_on_c, 11, 70, 76
13, 400979, Note_on_c, 11, 70, 0
13, 401040, Note_on_c, 11, 73, 76
13, 401219, Note_on_c, 11, 73, 0
13, 401520, Note_on_c, 11, 70, 73
13, 401699, Note_on_c, 11, 70, 0
13, 401760, Note_on_c, 11, 67, 70
13, 401939, Note_on_c, 11, 67, 0
13, 402000, Note_on_c, 11, 70, 67
13, 402179, Note_on_c, 11, 70, 0
13, 402480, Note_on_c, 11, 73, 61
13, 402659, Note_on_c, 11, 73, 0
13, 402720, Note_on_c, 11, 70, 58
13, 402899, Note_on_c, 11, 70, 0
13, 402960, Note_on_c, 11, 73, 55
13, 403139, Note_on_c, 11, 73, 0
13, 403440, Note_on_c, 11, 70, 52
13, 403619, Note_on_c, 11, 70, 0
13, 403680, Note_on_c, 11, 67, 52
13, 403859, Note_on_c, 11, 67, 0
13, 403920, Note_on_c, 11, 70, 52
13, 404099, Note_on_c, 11, 70, 0
13, 404400, Note_on_c, 11, 73, 52
13, 404579, Note_on_c, 11, 73, 0
13, 404640, Note_on_c, 11, 70, 52
13, 404819, Note_on_c, 11, 70, 0
13, 404880, Note_on_c, 11, 73, 52
13, 405059, Note_on_c, 11, 73, 0
13, 405360, Note_on_c, 11, 73, 44
13, 405539, Note_on_c, 11, 73, 0
13, 405600, Note_on_c, 11, 70, 44
13, 405779, Note_on_c, 11, 70, 0
13, 406320, Note_on_c, 11, 73, 44
13, 406499, Note_on_c, 11, 73, 0
13, 406560, Note_on_c, 11, 70, 44
13, 406739, Note_on_c, 11, 70, 0
13, 407280, Note_on_c, 11, 73, 44
13, 407459, Note_on_c, 11, 73, 0
13, 407520, Note_on_c, 11, 70, 44
13, 407699, Note_on_c, 11, 70, 0
13, 408240, Note_on_c, 11, 73, 44
13, 408419, Note_on_c, 11, 73, 0
13, 408480, Note_on_c, 11, 70, 44
13, 408659, Note_on_c, 11, 70, 0
13, 409200, Note_on_c, 11, 73, 44
13, 409439, Note_on_c, 11, 73, 0
13, 409440, Note_on_c, 11, 70, 44
13, 409679, Note_on_c, 11, 70, 0
13, 409680, Note_on_c, 11, 73, 44
13, 409919, Note_on_c, 11, 73, 0
13, 410160, Note_on_c, 11, 73, 44
13, 410399, Note_on_c, 11, 73, 0
13, 410400, Note_on_c, 11, 70, 44
13, 410639, Note_on_c, 11, 70, 0
13, 410640, Note_on_c, 11, 73, 44
13, 410879, Note_on_c, 11, 73, 0
13, 411120, Note_on_c, 11, 73, 44
13, 411359, Note_on_c, 11, 73, 0
13, 411360, Note_on_c, 11, 70, 44
13, 411599, Note_on_c, 11, 70, 0
13, 411600, Note_on_c, 11, 73, 44
13, 411839, Note_on_c, 11, 73, 0
13, 412080, Note_on_c, 11, 73, 44
13, 412319, Note_on_c, 11, 73, 0
13, 412320, Note_on_c, 11, 70, 44
13, 412559, Note_on_c, 11, 70, 0
13, 412560, Note_on_c, 11, 73, 44
13, 412799, Note_on_c, 11, 73, 0
13, 413040, Note_on_c, 11, 73, 44
13, 413279, Note_on_c, 11, 73, 0
13, 413280, Note_on_c, 11, 70, 44
13, 413519, Note_on_c, 11, 70, 0
13, 413520, Note_on_c, 11, 73, 44
13, 413759, Note_on_c, 11, 73, 0
13, 413760, Note_on_c, 11, 70, 44
13, 413984, Note_on_c, 11, 70, 0
13, 414000, Note_on_c, 11, 73, 44
13, 414239, Note_on_c, 11, 73, 0
13, 414240, Note_on_c, 11, 70, 44
13, 414464, Note_on_c, 11, 70, 0
13, 414480, Note_on_c, 11, 73, 44
13, 414719, Note_on_c, 11, 73, 0
13, 414720, Note_on_c, 11, 70, 44
13, 414944, Note_on_c, 11, 70, 0
13, 414960, Note_on_c, 11, 73, 44
13, 415199, Note_on_c, 11, 73, 0
13, 415200, Note_on_c, 11, 70, 44
13, 415424, Note_on_c, 11, 70, 0
13, 415440, Note_on_c, 11, 73, 44
13, 415679, Note_on_c, 11, 73, 0
13, 415680, Note_on_c, 11, 70, 44
13, 415904, Note_on_c, 11, 70, 0
13, 415920, Note_on_c, 11, 73, 44
13, 416159, Note_on_c, 11, 73, 0
13, 416160, Note_on_c, 11, 70, 44
13, 416384, Note_on_c, 11, 70, 0
13, 416400, Note_on_c, 11, 73, 44
13, 416624, Note_on_c, 11, 73, 0
13, 416640, Note_on_c, 11, 73, 40
13, 417599, Note_on_c, 11, 73, 0
13, 417600, Note_on_c, 11, 73, 40
13, 418304, Note_on_c, 11, 73, 0
13, 418320, Note_on_c, 11, 70, 40
13, 418379, Note_on_c, 11, 70, 0
13, 418380, Note_on_c, 11, 71, 40
13, 418439, Note_on_c, 11, 71, 0
13, 418440, Note_on_c, 11, 73, 40
13, 418499, Note_on_c, 11, 73, 0
13, 418500, Note_on_c, 11, 75, 40
13, 418551, Note_on_c, 11, 75, 0
13, 418560, Note_on_c, 11, 76, 40
13, 418799, Note_on_c, 11, 76, 0
13, 420480, Note_on_c, 11, 76, 40
13, 421439, Note_on_c, 11, 76, 0
13, 421440, Note_on_c, 11, 76, 40
13, 422144, Note_on_c, 11, 76, 0
13, 422160, Note_on_c, 11, 73, 40
13, 422219, Note_on_c, 11, 73, 0
13, 422220, Note_on_c, 11, 75, 40
13, 422279, Note_on_c, 11, 75, 0
13, 422280, Note_on_c, 11, 76, 40
13, 422339, Note_on_c, 11, 76, 0
13, 422340, Note_on_c, 11, 78, 40
13, 422391, Note_on_c, 11, 78, 0
13, 422400, Note_on_c, 11, 80, 40
13, 422639, Note_on_c, 11, 80, 0
13, 424560, Note_on_c, 11, 80, 40
13, 424799, Note_on_c, 11, 80, 0
13, 424800, Note_on_c, 11, 78, 40
13, 425039, Note_on_c, 11, 78, 0
13, 425040, Note_on_c, 11, 76, 40
13, 425279, Note_on_c, 11, 76, 0
13, 425280, Note_on_c, 11, 75, 40
13, 425519, Note_on_c, 11, 75, 0
13, 425520, Note_on_c, 11, 73, 40
13, 425759, Note_on_c, 11, 73, 0
13, 425760, Note_on_c, 11, 71, 40
13, 425999, Note_on_c, 11, 71, 0
13, 426000, Note_on_c, 11, 73, 40
13, 426224, Note_on_c, 11, 73, 0
13, 426240, Note_on_c, 11, 71, 40
13, 427199, Note_on_c, 11, 71, 0
13, 427200, Note_on_c, 11, 71, 40
13, 428159, Note_on_c, 11, 71, 0
13, 428160, Note_on_c, 11, 70, 40
13, 428384, Note_on_c, 11, 70, 0
13, 428400, Note_on_c, 11, 80, 44
13, 428639, Note_on_c, 11, 80, 0
13, 428640, Note_on_c, 11, 78, 44
13, 428879, Note_on_c, 11, 78, 0
13, 428880, Note_on_c, 11, 76, 44
13, 429119, Note_on_c, 11, 76, 0
13, 429120, Note_on_c, 11, 75, 44
13, 429359, Note_on_c, 11, 75, 0
13, 429360, Note_on_c, 11, 73, 44
13, 429599, Note_on_c, 11, 73, 0
13, 429600, Note_on_c, 11, 71, 44
13, 429839, Note_on_c, 11, 71, 0
13, 429840, Note_on_c, 11, 70, 44
13, 430079, Note_on_c, 11, 70, 0
13, 430320, Note_on_c, 11, 80, 44
13, 430559, Note_on_c, 11, 80, 0
13, 430560, Note_on_c, 11, 78, 44
13, 430799, Note_on_c, 11, 78, 0
13, 430800, Note_on_c, 11, 76, 44
13, 431039, Note_on_c, 11, 76, 0
13, 431040, Note_on_c, 11, 75, 44
13, 431279, Note_on_c, 11, 75, 0
13, 431280, Note_on_c, 11, 73, 44
13, 431519, Note_on_c, 11, 73, 0
13, 431520, Note_on_c, 11, 71, 44
13, 431759, Note_on_c, 11, 71, 0
13, 431760, Note_on_c, 11, 70, 44
13, 431999, Note_on_c, 11, 70, 0
13, 437760, Note_on_c, 11, 64, 44
13, 437999, Note_on_c, 11, 64, 0
13, 438000, Note_on_c, 11, 70, 44
13, 438239, Note_on_c, 11, 70, 0
13, 438240, Note_on_c, 11, 73, 44
13, 439664, Note_on_c, 11, 73, 0
13, 439680, Note_on_c, 11, 74, 44
13, 440639, Note_on_c, 11, 74, 0
13, 440640, Note_on_c, 11, 74, 44
13, 441344, Note_on_c, 11, 74, 0
13, 441360, Note_on_c, 11, 70, 44
13, 441419, Note_on_c, 11, 70, 0
13, 441420, Note_on_c, 11, 72, 44
13, 441479, Note_on_c, 11, 72, 0
13, 441480, Note_on_c, 11, 74, 44
13, 441539, Note_on_c, 11, 74, 0
13, 441540, Note_on_c, 11, 75, 44
13, 441591, Note_on_c, 11, 75, 0
13, 441600, Note_on_c, 11, 77, 44
13, 441839, Note_on_c, 11, 77, 0
13, 443520, Note_on_c, 11, 77, 44
13, 444479, Note_on_c, 11, 77, 0
13, 444480, Note_on_c, 11, 77, 44
13, 445184, Note_on_c, 11, 77, 0
13, 445200, Note_on_c, 11, 74, 44
13, 445247, Note_on_c, 11, 74, 0
13, 445248, Note_on_c, 11, 75, 44
13, 445295, Note_on_c, 11, 75, 0
13, 445296, Note_on_c, 11, 77, 44
13, 445343, Note_on_c, 11, 77, 0
13, 445344, Note_on_c, 11, 79, 44
13, 445391, Note_on_c, 11, 79, 0
13, 445392, Note_on_c, 11, 81, 44
13, 445431, Note_on_c, 11, 81, 0
13, 445440, Note_on_c, 11, 82, 44
13, 445679, Note_on_c, 11, 82, 0
13, 448200, Note_on_c, 11, 77, 44
13, 448239, Note_on_c, 11, 77, 0
13, 448240, Note_on_c, 11, 79, 44
13, 448279, Note_on_c, 11, 79, 0
13, 448280, Note_on_c, 11, 81, 44
13, 448311, Note_on_c, 11, 81, 0
13, 448320, Note_on_c, 11, 82, 44
13, 449279, Note_on_c, 11, 82, 0
13, 450120, Note_on_c, 11, 74, 44
13, 450179, Note_on_c, 11, 74, 0
13, 450180, Note_on_c, 11, 75, 44
13, 450231, Note_on_c, 11, 75, 0
13, 450240, Note_on_c, 11, 77, 44
13, 451199, Note_on_c, 11, 77, 0
13, 452040, Note_on_c, 11, 70, 44
13, 452099, Note_on_c, 11, 70, 0
13, 452100, Note_on_c, 11, 72, 44
13, 452151, Note_on_c, 11, 72, 0
13, 452160, Note_on_c, 11, 74, 44
13, 453119, Note_on_c, 11, 74, 0
13, 453960, Note_on_c, 11, 65, 44
13, 453999, Note_on_c, 11, 65, 0
13, 454000, Note_on_c, 11, 67, 44
13, 454039, Note_on_c, 11, 67, 0
13, 454040, Note_on_c, 11, 69, 44
13, 454071, Note_on_c, 11, 69, 0
13, 454080, Note_on_c, 11, 70, 44
13, 455039, Note_on_c, 11, 70, 0
13, 455400, Note_on_c, 11, 62, 44
13, 455459, Note_on_c, 11, 62, 0
13, 455460, Note_on_c, 11, 63, 44
13, 455511, Note_on_c, 11, 63, 0
13, 455520, Note_on_c, 11, 65, 44
13, 455999, Note_on_c, 11, 65, 0
13, 456360, Note_on_c, 11, 58, 44
13, 456419, Note_on_c, 11, 58, 0
13, 456420, Note_on_c, 11, 60, 44
13, 456471, Note_on_c, 11, 60, 0
13, 456480, Note_on_c, 11, 62, 44
13, 456959, Note_on_c, 11, 62, 0
13, 457320, Note_on_c, 11, 62, 44
13, 457379, Note_on_c, 11, 62, 0
13, 457380, Note_on_c, 11, 63, 44
13, 457431, Note_on_c, 11, 63, 0
13, 457440, Note_on_c, 11, 65, 44
13, 457919, Note_on_c, 11, 65, 0
13, 458280, Note_on_c, 11, 65, 44
13, 458319, Note_on_c, 11, 65, 0
13, 458320, Note_on_c, 11, 67, 44
13, 458359, Note_on_c, 11, 67, 0
13, 458360, Note_on_c, 11, 69, 44
13, 458391, Note_on_c, 11, 69, 0
13, 458400, Note_on_c, 11, 70, 44
13, 459119, Note_on_c, 11, 70, 0
13, 459240, Note_on_c, 11, 58, 44
13, 459299, Note_on_c, 11, 58, 0
13, 459300, Note_on_c, 11, 60, 44
13, 459359, Note_on_c, 11, 60, 0
13, 459360, Note_on_c, 11, 62, 44
13, 459539, Note_on_c, 11, 62, 0
13, 459720, Note_on_c, 11, 62, 46
13, 459779, Note_on_c, 11, 62, 0
13, 459780, Note_on_c, 11, 63, 46
13, 459839, Note_on_c, 11, 63, 0
13, 459840, Note_on_c, 11, 65, 47
13, 460019, Note_on_c, 11, 65, 0
13, 460200, Note_on_c, 11, 65, 49
13, 460239, Note_on_c, 11, 65, 0
13, 460240, Note_on_c, 11, 67, 49
13, 460279, Note_on_c, 11, 67, 0
13, 460280, Note_on_c, 11, 69, 49
13, 460319, Note_on_c, 11, 69, 0
13, 460320, Note_on_c, 11, 70, 49
13, 460499, Note_on_c, 11, 70, 0
13, 460680, Note_on_c, 11, 70, 51
13, 460739, Note_on_c, 11, 70, 0
13, 460740, Note_on_c, 11, 72, 52
13, 460799, Note_on_c, 11, 72, 0
13, 460800, Note_on_c, 11, 74, 52
13, 460979, Note_on_c, 11, 74, 0
13, 461160, Note_on_c, 11, 62, 54
13, 461219, Note_on_c, 11, 62, 0
13, 461220, Note_on_c, 11, 63, 54
13, 461279, Note_on_c, 11, 63, 0
13, 461280, Note_on_c, 11, 65, 55
13, 461459, Note_on_c, 11, 65, 0
13, 461640, Note_on_c, 11, 65, 57
13, 461679, Note_on_c, 11, 65, 0
13, 461680, Note_on_c, 11, 67, 57
13, 461719, Note_on_c, 11, 67, 0
13, 461720, Note_on_c, 11, 69, 57
13, 461759, Note_on_c, 11, 69, 0
13, 461760, Note_on_c, 11, 70, 57
13, 461939, Note_on_c, 11, 70, 0
13, 462120, Note_on_c, 11, 70, 59
13, 462179, Note_on_c, 11, 70, 0
13, 462180, Note_on_c, 11, 72, 60
13, 462239, Note_on_c, 11, 72, 0
13, 462240, Note_on_c, 11, 74, 60
13, 462419, Note_on_c, 11, 74, 0
13, 462600, Note_on_c, 11, 74, 62
13, 462659, Note_on_c, 11, 74, 0
13, 462660, Note_on_c, 11, 75, 62
13, 462719, Note_on_c, 11, 75, 0
13, 462720, Note_on_c, 11, 77, 63
13, 462899, Note_on_c, 11, 77, 0
13, 463080, Note_on_c, 11, 65, 64
13, 463119, Note_on_c, 11, 65, 0
13, 463120, Note_on_c, 11, 67, 65
13, 463159, Note_on_c, 11, 67, 0
13, 463160, Note_on_c, 11, 69, 65
13, 463199, Note_on_c, 11, 69, 0
13, 463200, Note_on_c, 11, 70, 65
13, 463379, Note_on_c, 11, 70, 0
13, 463560, Note_on_c, 11, 70, 67
13, 463619, Note_on_c, 11, 70, 0
13, 463620, Note_on_c, 11, 72, 67
13, 463679, Note_on_c, 11, 72, 0
13, 463680, Note_on_c, 11, 74, 68
13, 463859, Note_on_c, 11, 74, 0
13, 464040, Note_on_c, 11, 74, 70
13, 464099, Note_on_c, 11, 74, 0
13, 464100, Note_on_c, 11, 75, 70
13, 464159, Note_on_c, 11, 75, 0
13, 464160, Note_on_c, 11, 77, 70
13, 464339, Note_on_c, 11, 77, 0
13, 464520, Note_on_c, 11, 77, 72
13, 464559, Note_on_c, 11, 77, 0
13, 464560, Note_on_c, 11, 79, 73
13, 464599, Note_on_c, 11, 79, 0
13, 464600, Note_on_c, 11, 81, 73
13, 464639, Note_on_c, 11, 81, 0
13, 464640, Note_on_c, 11, 82, 73
13, 464819, Note_on_c, 11, 82, 0
13, 465000, Note_on_c, 11, 70, 75
13, 465059, Note_on_c, 11, 70, 0
13, 465060, Note_on_c, 11, 72, 75
13, 465119, Note_on_c, 11, 72, 0
13, 465120, Note_on_c, 11, 74, 76
13, 465299, Note_on_c, 11, 74, 0
13, 465480, Note_on_c, 11, 74, 78
13, 465539, Note_on_c, 11, 74, 0
13, 465540, Note_on_c, 11, 75, 78
13, 465599, Note_on_c, 11, 75, 0
13, 465600, Note_on_c, 11, 77, 78
13, 465779, Note_on_c, 11, 77, 0
13, 465960, Note_on_c, 11, 77, 80
13, 465999, Note_on_c, 11, 77, 0
13, 466000, Note_on_c, 11, 79, 80
13, 466039, Note_on_c, 11, 79, 0
13, 466040, Note_on_c, 11, 81, 81
13, 466079, Note_on_c, 11, 81, 0
13, 466080, Note_on_c, 11, 82, 81
13, 466259, Note_on_c, 11, 82, 0
13, 466440, Note_on_c, 11, 81, 83
13, 466479, Note_on_c, 11, 81, 0
13, 466480, Note_on_c, 11, 82, 83
13, 466519, Note_on_c, 11, 82, 0
13, 466520, Note_on_c, 11, 84, 83
13, 466559, Note_on_c, 11, 84, 0
13, 466560, Note_on_c, 11, 77, 84
13, 466560, Note_on_c, 11, 86, 84
13, 466664, Note_on_c, 11, 77, 0
13, 466664, Note_on_c, 11, 86, 0
13, 466680, Note_on_c, 11, 77, 84
13, 466680, Note_on_c, 11, 86, 84
13, 466784, Note_on_c, 11, 77, 0
13, 466784, Note_on_c, 11, 86, 0
13, 466800, Note_on_c, 11, 77, 84
13, 466800, Note_on_c, 11, 86, 84
13, 466904, Note_on_c, 11, 77, 0
13, 466904, Note_on_c, 11, 86, 0
13, 466920, Note_on_c, 11, 77, 84
13, 466920, Note_on_c, 11, 86, 84
13, 467024, Note_on_c, 11, 77, 0
13, 467024, Note_on_c, 11, 86, 0
13, 467040, Note_on_c, 11, 77, 84
13, 467040, Note_on_c, 11, 86, 84
13, 467144, Note_on_c, 11, 77, 0
13, 467144, Note_on_c, 11, 86, 0
13, 467160, Note_on_c, 11, 86, 84
13, 467160, Note_on_c, 11, 77, 84
13, 467264, Note_on_c, 11, 86, 0
13, 467264, Note_on_c, 11, 77, 0
13, 467280, Note_on_c, 11, 77, 84
13, 467280, Note_on_c, 11, 86, 84
13, 467384, Note_on_c, 11, 77, 0
13, 467384, Note_on_c, 11, 86, 0
13, 467400, Note_on_c, 11, 86, 84
13, 467400, Note_on_c, 11, 77, 84
13, 467504, Note_on_c, 11, 86, 0
13, 467504, Note_on_c, 11, 77, 0
13, 467520, Note_on_c, 11, 86, 84
13, 467520, Note_on_c, 11, 77, 84
13, 467624, Note_on_c, 11, 86, 0
13, 467624, Note_on_c, 11, 77, 0
13, 467640, Note_on_c, 11, 77, 84
13, 467640, Note_on_c, 11, 86, 84
13, 467744, Note_on_c, 11, 77, 0
13, 467744, Note_on_c, 11, 86, 0
13, 467760, Note_on_c, 11, 77, 84
13, 467760, Note_on_c, 11, 86, 84
13, 467864, Note_on_c, 11, 77, 0
13, 467864, Note_on_c, 11, 86, 0
13, 467880, Note_on_c, 11, 77, 84
13, 467880, Note_on_c, 11, 86, 84
13, 467984, Note_on_c, 11, 77, 0
13, 467984, Note_on_c, 11, 86, 0
13, 468000, Note_on_c, 11, 86, 84
13, 468000, Note_on_c, 11, 77, 84
13, 468104, Note_on_c, 11, 86, 0
13, 468104, Note_on_c, 11, 77, 0
13, 468120, Note_on_c, 11, 86, 84
13, 468120, Note_on_c, 11, 77, 84
13, 468224, Note_on_c, 11, 86, 0
13, 468224, Note_on_c, 11, 77, 0
13, 468240, Note_on_c, 11, 86, 84
13, 468240, Note_on_c, 11, 77, 84
13, 468344, Note_on_c, 11, 86, 0
13, 468344, Note_on_c, 11, 77, 0
13, 468360, Note_on_c, 11, 77, 84
13, 468360, Note_on_c, 11, 86, 84
13, 468464, Note_on_c, 11, 77, 0
13, 468464, Note_on_c, 11, 86, 0
13, 468480, Note_on_c, 11, 86, 84
13, 468480, Note_on_c, 11, 77, 84
13, 468584, Note_on_c, 11, 86, 0
13, 468584, Note_on_c, 11, 77, 0
13, 468600, Note_on_c, 11, 77, 84
13, 468600, Note_on_c, 11, 86, 84
13, 468704, Note_on_c, 11, 77, 0
13, 468704, Note_on_c, 11, 86, 0
13, 468720, Note_on_c, 11, 86, 84
13, 468720, Note_on_c, 11, 77, 84
13, 468824, Note_on_c, 11, 86, 0
13, 468824, Note_on_c, 11, 77, 0
13, 468840, Note_on_c, 11, 77, 84
13, 468840, Note_on_c, 11, 86, 84
13, 468944, Note_on_c, 11, 77, 0
13, 468944, Note_on_c, 11, 86, 0
13, 468960, Note_on_c, 11, 77, 84
13, 468960, Note_on_c, 11, 86, 84
13, 469064, Note_on_c, 11, 77, 0
13, 469064, Note_on_c, 11, 86, 0
13, 469080, Note_on_c, 11, 77, 84
13, 469080, Note_on_c, 11, 86, 84
13, 469184, Note_on_c, 11, 77, 0
13, 469184, Note_on_c, 11, 86, 0
13, 469200, Note_on_c, 11, 77, 84
13, 469200, Note_on_c, 11, 86, 84
13, 469304, Note_on_c, 11, 77, 0
13, 469304, Note_on_c, 11, 86, 0
13, 469320, Note_on_c, 11, 82, 84
13, 469379, Note_on_c, 11, 82, 0
13, 469380, Note_on_c, 11, 84, 84
13, 469431, Note_on_c, 11, 84, 0
13, 469440, Note_on_c, 11, 77, 84
13, 469440, Note_on_c, 11, 86, 84
13, 469619, Note_on_c, 11, 77, 0
13, 469619, Note_on_c, 11, 86, 0
13, 469800, Note_on_c, 11, 82, 84
13, 469859, Note_on_c, 11, 82, 0
13, 469860, Note_on_c, 11, 84, 84
13, 469911, Note_on_c, 11, 84, 0
13, 469920, Note_on_c, 11, 86, 84
13, 469920, Note_on_c, 11, 77, 84
13, 470099, Note_on_c, 11, 86, 0
13, 470099, Note_on_c, 11, 77, 0
13, 470280, Note_on_c, 11, 82, 84
13, 470339, Note_on_c, 11, 82, 0
13, 470340, Note_on_c, 11, 84, 84
13, 470391, Note_on_c, 11, 84, 0
13, 470400, Note_on_c, 11, 77, 84
13, 470400, Note_on_c, 11, 86, 84
13, 470519, Note_on_c, 11, 77, 0
13, 470519, Note_on_c, 11, 86, 0
13, 470640, Note_on_c, 11, 82, 84
13, 470759, Note_on_c, 11, 82, 0
13, 470880, Note_on_c, 11, 77, 84
13, 470999, Note_on_c, 11, 77, 0
13, 471120, Note_on_c, 11, 82, 84
13, 471239, Note_on_c, 11, 82, 0
13, 471360, Note_on_c, 11, 74, 84
13, 471479, Note_on_c, 11, 74, 0
13, 471600, Note_on_c, 11, 77, 84
13, 471719, Note_on_c, 11, 77, 0
13, 471840, Note_on_c, 11, 70, 84
13, 471959, Note_on_c, 11, 70, 0
13, 472080, Note_on_c, 11, 74, 84
13, 472199, Note_on_c, 11, 74, 0
13, 472320, Note_on_c, 11, 67, 84
13, 472439, Note_on_c, 11, 67, 0
13, 472560, Note_on_c, 11, 75, 84
13, 472679, Note_on_c, 11, 75, 0
13, 472800, Note_on_c, 11, 72, 84
13, 472919, Note_on_c, 11, 72, 0
13, 473040, Note_on_c, 11, 70, 84
13, 473159, Note_on_c, 11, 70, 0
13, 473280, Note_on_c, 11, 69, 84
13, 473399, Note_on_c, 11, 69, 0
13, 473520, Note_on_c, 11, 77, 84
13, 473639, Note_on_c, 11, 77, 0
13, 473760, Note_on_c, 11, 75, 84
13, 473879, Note_on_c, 11, 75, 0
13, 474000, Note_on_c, 11, 72, 84
13, 474119, Note_on_c, 11, 72, 0
13, 474240, Note_on_c, 11, 70, 76
13, 474344, Note_on_c, 11, 70, 0
13, 474360, Note_on_c, 11, 65, 52
13, 474464, Note_on_c, 11, 65, 0
13, 474480, Note_on_c, 11, 65, 52
13, 474584, Note_on_c, 11, 65, 0
13, 474600, Note_on_c, 11, 65, 52
13, 474704, Note_on_c, 11, 65, 0
13, 474720, Note_on_c, 11, 65, 52
13, 474824, Note_on_c, 11, 65, 0
13, 474840, Note_on_c, 11, 65, 52
13, 474944, Note_on_c, 11, 65, 0
13, 474960, Note_on_c, 11, 65, 52
13, 475064, Note_on_c, 11, 65, 0
13, 475080, Note_on_c, 11, 65, 52
13, 475184, Note_on_c, 11, 65, 0
13, 475200, Note_on_c, 11, 65, 52
13, 475304, Note_on_c, 11, 65, 0
13, 475320, Note_on_c, 11, 65, 52
13, 475424, Note_on_c, 11, 65, 0
13, 475440, Note_on_c, 11, 65, 52
13, 475544, Note_on_c, 11, 65, 0
13, 475560, Note_on_c, 11, 65, 52
13, 475664, Note_on_c, 11, 65, 0
13, 475680, Note_on_c, 11, 65, 52
13, 475784, Note_on_c, 11, 65, 0
13, 475800, Note_on_c, 11, 65, 52
13, 475904, Note_on_c, 11, 65, 0
13, 475920, Note_on_c, 11, 65, 52
13, 476024, Note_on_c, 11, 65, 0
13, 476040, Note_on_c, 11, 65, 52
13, 476144, Note_on_c, 11, 65, 0
13, 476160, Note_on_c, 11, 67, 52
13, 476264, Note_on_c, 11, 67, 0
13, 476280, Note_on_c, 11, 67, 52
13, 476384, Note_on_c, 11, 67, 0
13, 476400, Note_on_c, 11, 67, 52
13, 476504, Note_on_c, 11, 67, 0
13, 476520, Note_on_c, 11, 67, 52
13, 476624, Note_on_c, 11, 67, 0
13, 476640, Note_on_c, 11, 67, 52
13, 476744, Note_on_c, 11, 67, 0
13, 476760, Note_on_c, 11, 67, 52
13, 476864, Note_on_c, 11, 67, 0
13, 476880, Note_on_c, 11, 67, 52
13, 476984, Note_on_c, 11, 67, 0
13, 477000, Note_on_c, 11, 67, 52
13, 477104, Note_on_c, 11, 67, 0
13, 477120, Note_on_c, 11, 69, 52
13, 477224, Note_on_c, 11, 69, 0
13, 477240, Note_on_c, 11, 69, 52
13, 477344, Note_on_c, 11, 69, 0
13, 477360, Note_on_c, 11, 69, 52
13, 477464, Note_on_c, 11, 69, 0
13, 477480, Note_on_c, 11, 69, 52
13, 477584, Note_on_c, 11, 69, 0
13, 477600, Note_on_c, 11, 69, 52
13, 477704, Note_on_c, 11, 69, 0
13, 477720, Note_on_c, 11, 69, 52
13, 477824, Note_on_c, 11, 69, 0
13, 477840, Note_on_c, 11, 69, 52
13, 477944, Note_on_c, 11, 69, 0
13, 477960, Note_on_c, 11, 69, 52
13, 478064, Note_on_c, 11, 69, 0
13, 478080, Note_on_c, 11, 70, 52
13, 478304, Note_on_c, 11, 70, 0
13, 478320, Note_on_c, 11, 79, 48
13, 478559, Note_on_c, 11, 79, 0
13, 478560, Note_on_c, 11, 77, 48
13, 478799, Note_on_c, 11, 77, 0
13, 478800, Note_on_c, 11, 75, 48
13, 479039, Note_on_c, 11, 75, 0
13, 479040, Note_on_c, 11, 74, 48
13, 479279, Note_on_c, 11, 74, 0
13, 479280, Note_on_c, 11, 72, 48
13, 479519, Note_on_c, 11, 72, 0
13, 479520, Note_on_c, 11, 70, 48
13, 479759, Note_on_c, 11, 70, 0
13, 479760, Note_on_c, 11, 72, 48
13, 479984, Note_on_c, 11, 72, 0
13, 480000, Note_on_c, 11, 70, 52
13, 480959, Note_on_c, 11, 70, 0
13, 480960, Note_on_c, 11, 70, 52
13, 481904, Note_on_c, 11, 70, 0
13, 481920, Note_on_c, 11, 69, 52
13, 482159, Note_on_c, 11, 69, 0
13, 482880, Control_c, 11, 11, 64
13, 482960, Control_c, 11, 11, 69
13, 483040, Control_c, 11, 11, 75
13, 483120, Note_on_c, 11, 72, 84
13, 483120, Control_c, 11, 11, 80
13, 483200, Control_c, 11, 11, 85
13, 483280, Control_c, 11, 11, 90
13, 483359, Note_on_c, 11, 72, 0
13, 483360, Note_on_c, 11, 75, 84
13, 483360, Control_c, 11, 11, 96
13, 483440, Control_c, 11, 11, 101
13, 483520, Control_c, 11, 11, 106
13, 483599, Note_on_c, 11, 75, 0
13, 483600, Note_on_c, 11, 69, 84
13, 483600, Control_c, 11, 11, 111
13, 483680, Control_c, 11, 11, 117
13, 483760, Control_c, 11, 11, 122
13, 483824, Note_on_c, 11, 69, 0
13, 483825, Control_c, 11, 11, 127
13, 483840, Note_on_c, 11, 70, 84
13, 484799, Note_on_c, 11, 70, 0
13, 484800, Note_on_c, 11, 70, 84
13, 485744, Note_on_c, 11, 70, 0
13, 485760, Note_on_c, 11, 75, 92
13, 486689, Note_on_c, 11, 75, 0
13, 486720, Note_on_c, 11, 77, 92
13, 487649, Note_on_c, 11, 77, 0
13, 487680, Note_on_c, 11, 74, 92
13, 488639, Note_on_c, 11, 74, 0
13, 488640, Note_on_c, 11, 74, 84
13, 489104, Note_on_c, 11, 74, 0
13, 489120, Note_on_c, 11, 79, 84
13, 489584, Note_on_c, 11, 79, 0
13, 489600, Note_on_c, 11, 75, 92
13, 490529, Note_on_c, 11, 75, 0
13, 490560, Note_on_c, 11, 80, 92
13, 491489, Note_on_c, 11, 80, 0
13, 491520, Note_on_c, 11, 77, 92
13, 492479, Note_on_c, 11, 77, 0
13, 492480, Note_on_c, 11, 77, 84
13, 492944, Note_on_c, 11, 77, 0
13, 492960, Note_on_c, 11, 82, 92
13, 493409, Note_on_c, 11, 82, 0
13, 493440, Note_on_c, 11, 79, 84
13, 493904, Note_on_c, 11, 79, 0
13, 493920, Note_on_c, 11, 84, 92
13, 494369, Note_on_c, 11, 84, 0
13, 494400, Note_on_c, 11, 81, 84
13, 494864, Note_on_c, 11, 81, 0
13, 494880, Note_on_c, 11, 86, 92
13, 495329, Note_on_c, 11, 86, 0
13, 495360, Note_on_c, 11, 82, 84
13, 495824, Note_on_c, 11, 82, 0
13, 495840, Note_on_c, 11, 87, 92
13, 496289, Note_on_c, 11, 87, 0
13, 496320, Note_on_c, 11, 84, 84
13, 496784, Note_on_c, 11, 84, 0
13, 496800, Note_on_c, 11, 89, 92
13, 497159, Note_on_c, 11, 89, 0
13, 497280, Note_on_c, 11, 86, 84
13, 497639, Note_on_c, 11, 86, 0
13, 497760, Note_on_c, 11, 82, 84
13, 498119, Note_on_c, 11, 82, 0
13, 498240, Note_on_c, 11, 77, 84
13, 498599, Note_on_c, 11, 77, 0
13, 498720, Note_on_c, 11, 74, 84
13, 499079, Note_on_c, 11, 74, 0
13, 499200, Note_on_c, 11, 70, 84
13, 499559, Note_on_c, 11, 70, 0
13, 499680, Note_on_c, 11, 65, 84
13, 500039, Note_on_c, 11, 65, 0
13, 500160, Note_on_c, 11, 62, 84
13, 500519, Note_on_c, 11, 62, 0
13, 500640, Note_on_c, 11, 58, 84
13, 500999, Note_on_c, 11, 58, 0
13, 501120, Note_on_c, 11, 65, 84
13, 501359, Note_on_c, 11, 65, 0
13, 504240, Note_on_c, 11, 76, 92
13, 504719, Note_on_c, 11, 76, 0
13, 504720, Note_on_c, 11, 77, 84
13, 504944, Note_on_c, 11, 77, 0
13, 504960, Note_on_c, 11, 77, 84
13, 505139, Note_on_c, 11, 77, 0
13, 505200, Note_on_c, 11, 84, 84
13, 505664, Note_on_c, 11, 84, 0
13, 505680, Note_on_c, 11, 85, 84
13, 506144, Note_on_c, 11, 85, 0
13, 506160, Note_on_c, 11, 87, 84
13, 506624, Note_on_c, 11, 87, 0
13, 506640, Note_on_c, 11, 82, 84
13, 507104, Note_on_c, 11, 82, 0
13, 507120, Note_on_c, 11, 84, 84
13, 507584, Note_on_c, 11, 84, 0
13, 507600, Note_on_c, 11, 85, 84
13, 508064, Note_on_c, 11, 85, 0
13, 508080, Note_on_c, 11, 76, 92
13, 508559, Note_on_c, 11, 76, 0
13, 508560, Note_on_c, 11, 77, 84
13, 508784, Note_on_c, 11, 77, 0
13, 508800, Note_on_c, 11, 77, 76
13, 508919, Note_on_c, 11, 77, 0
13, 508920, Note_on_c, 11, 77, 52
13, 509759, Note_on_c, 11, 77, 0
13, 509760, Note_on_c, 11, 77, 52
13, 511184, Note_on_c, 11, 77, 0
13, 511200, Note_on_c, 11, 65, 52
13, 512144, Note_on_c, 11, 65, 0
13, 512160, Note_on_c, 11, 69, 52
13, 512624, Note_on_c, 11, 69, 0
13, 512640, Note_on_c, 11, 70, 52
13, 513599, Note_on_c, 11, 70, 0
13, 513600, Note_on_c, 11, 70, 52
13, 514544, Note_on_c, 11, 70, 0
13, 514560, Note_on_c, 11, 62, 52
13, 515519, Note_on_c, 11, 62, 0
13, 515520, Note_on_c, 11, 62, 52
13, 516479, Note_on_c, 11, 62, 0
13, 516480, Note_on_c, 11, 62, 52
13, 517439, Note_on_c, 11, 62, 0
13, 517440, Note_on_c, 11, 62, 52
13, 518384, Note_on_c, 11, 62, 0
13, 518400, Note_on_c, 11, 62, 52
13, 518639, Note_on_c, 11, 62, 0
13, 519120, Note_on_c, 11, 62, 52
13, 519344, Note_on_c, 11, 62, 0
13, 519360, Note_on_c, 11, 62, 52
13, 519599, Note_on_c, 11, 62, 0
13, 520080, Note_on_c, 11, 62, 52
13, 520304, Note_on_c, 11, 62, 0
13, 520320, Note_on_c, 11, 62, 52
13, 520559, Note_on_c, 11, 62, 0
13, 521040, Note_on_c, 11, 62, 52
13, 521264, Note_on_c, 11, 62, 0
13, 521280, Note_on_c, 11, 62, 52
13, 521519, Note_on_c, 11, 62, 0
13, 522000, Note_on_c, 11, 62, 52
13, 522224, Note_on_c, 11, 62, 0
13, 522240, Note_on_c, 11, 74, 52
13, 522479, Note_on_c, 11, 74, 0
13, 522480, Note_on_c, 11, 73, 52
13, 522719, Note_on_c, 11, 73, 0
13, 522720, Note_on_c, 11, 74, 52
13, 522959, Note_on_c, 11, 74, 0
13, 522960, Note_on_c, 11, 72, 52
13, 523199, Note_on_c, 11, 72, 0
13, 523200, Note_on_c, 11, 70, 52
13, 523439, Note_on_c, 11, 70, 0
13, 523440, Note_on_c, 11, 69, 52
13, 523679, Note_on_c, 11, 69, 0
13, 523680, Note_on_c, 11, 70, 52
13, 523919, Note_on_c, 11, 70, 0
13, 523920, Note_on_c, 11, 67, 52
13, 524111, Note_on_c, 11, 67, 0
13, 524120, Note_on_c, 11, 67, 52
13, 524159, Note_on_c, 11, 67, 0
13, 524160, Note_on_c, 11, 66, 52
13, 524399, Note_on_c, 11, 66, 0
13, 524400, Note_on_c, 11, 65, 52
13, 524639, Note_on_c, 11, 65, 0
13, 524640, Note_on_c, 11, 66, 52
13, 524879, Note_on_c, 11, 66, 0
13, 524880, Note_on_c, 11, 69, 52
13, 525119, Note_on_c, 11, 69, 0
13, 525120, Note_on_c, 11, 67, 52
13, 525359, Note_on_c, 11, 67, 0
13, 525360, Note_on_c, 11, 66, 52
13, 525599, Note_on_c, 11, 66, 0
13, 525600, Note_on_c, 11, 67, 52
13, 525839, Note_on_c, 11, 67, 0
13, 525840, Note_on_c, 11, 63, 52
13, 526064, Note_on_c, 11, 63, 0
13, 526078, Control_c, 11, 11, 64
13, 526080, Control_c, 11, 11, 64
13, 526080, Note_on_c, 11, 62, 76
13, 526248, Control_c, 11, 11, 65
13, 526415, Control_c, 11, 11, 66
13, 526439, Note_on_c, 11, 62, 0
13, 526560, Note_on_c, 11, 63, 76
13, 526583, Control_c, 11, 11, 67
13, 526750, Control_c, 11, 11, 68
13, 526918, Control_c, 11, 11, 69
13, 526919, Note_on_c, 11, 63, 0
13, 527040, Note_on_c, 11, 60, 76
13, 527086, Control_c, 11, 11, 70
13, 527253, Control_c, 11, 11, 71
13, 527399, Note_on_c, 11, 60, 0
13, 527421, Control_c, 11, 11, 72
13, 527520, Note_on_c, 11, 64, 76
13, 527589, Control_c, 11, 11, 73
13, 527756, Control_c, 11, 11, 74
13, 527879, Note_on_c, 11, 64, 0
13, 527924, Control_c, 11, 11, 75
13, 528000, Note_on_c, 11, 65, 76
13, 528091, Control_c, 11, 11, 76
13, 528259, Control_c, 11, 11, 77
13, 528359, Note_on_c, 11, 65, 0
13, 528427, Control_c, 11, 11, 78
13, 528480, Note_on_c, 11, 62, 76
13, 528594, Control_c, 11, 11, 79
13, 528762, Control_c, 11, 11, 80
13, 528839, Note_on_c, 11, 62, 0
13, 528930, Control_c, 11, 11, 81
13, 528960, Note_on_c, 11, 65, 76
13, 529097, Control_c, 11, 11, 82
13, 529265, Control_c, 11, 11, 83
13, 529319, Note_on_c, 11, 65, 0
13, 529432, Control_c, 11, 11, 84
13, 529440, Note_on_c, 11, 67, 76
13, 529600, Control_c, 11, 11, 85
13, 529768, Control_c, 11, 11, 86
13, 529799, Note_on_c, 11, 67, 0
13, 529920, Note_on_c, 11, 63, 76
13, 529935, Control_c, 11, 11, 87
13, 530103, Control_c, 11, 11, 88
13, 530270, Control_c, 11, 11, 89
13, 530279, Note_on_c, 11, 63, 0
13, 530400, Note_on_c, 11, 67, 76
13, 530438, Control_c, 11, 11, 90
13, 530606, Control_c, 11, 11, 91
13, 530759, Note_on_c, 11, 67, 0
13, 530773, Control_c, 11, 11, 92
13, 530880, Note_on_c, 11, 69, 76
13, 530941, Control_c, 11, 11, 93
13, 531109, Control_c, 11, 11, 94
13, 531239, Note_on_c, 11, 69, 0
13, 531276, Control_c, 11, 11, 95
13, 531360, Note_on_c, 11, 65, 76
13, 531444, Control_c, 11, 11, 96
13, 531611, Control_c, 11, 11, 97
13, 531719, Note_on_c, 11, 65, 0
13, 531779, Control_c, 11, 11, 98
13, 531840, Note_on_c, 11, 69, 76
13, 531947, Control_c, 11, 11, 99
13, 532114, Control_c, 11, 11, 100
13, 532199, Note_on_c, 11, 69, 0
13, 532282, Control_c, 11, 11, 101
13, 532320, Note_on_c, 11, 70, 76
13, 532450, Control_c, 11, 11, 102
13, 532617, Control_c, 11, 11, 103
13, 532679, Note_on_c, 11, 70, 0
13, 532785, Control_c, 11, 11, 104
13, 532800, Note_on_c, 11, 67, 76
13, 532952, Control_c, 11, 11, 105
13, 533120, Control_c, 11, 11, 106
13, 533159, Note_on_c, 11, 67, 0
13, 533280, Note_on_c, 11, 71, 76
13, 533288, Control_c, 11, 11, 107
13, 533455, Control_c, 11, 11, 108
13, 533623, Control_c, 11, 11, 109
13, 533639, Note_on_c, 11, 71, 0
13, 533760, Note_on_c, 11, 72, 76
13, 533790, Control_c, 11, 11, 110
13, 533958, Control_c, 11, 11, 111
13, 534119, Note_on_c, 11, 72, 0
13, 534126, Control_c, 11, 11, 112
13, 534240, Note_on_c, 11, 69, 76
13, 534293, Control_c, 11, 11, 113
13, 534461, Control_c, 11, 11, 114
13, 534599, Note_on_c, 11, 69, 0
13, 534629, Control_c, 11, 11, 115
13, 534720, Note_on_c, 11, 72, 76
13, 534796, Control_c, 11, 11, 116
13, 534964, Control_c, 11, 11, 117
13, 535079, Note_on_c, 11, 72, 0
13, 535131, Control_c, 11, 11, 118
13, 535200, Note_on_c, 11, 74, 76
13, 535299, Control_c, 11, 11, 119
13, 535467, Control_c, 11, 11, 120
13, 535559, Note_on_c, 11, 74, 0
13, 535634, Control_c, 11, 11, 121
13, 535680, Note_on_c, 11, 75, 76
13, 535802, Control_c, 11, 11, 122
13, 535970, Control_c, 11, 11, 123
13, 536039, Note_on_c, 11, 75, 0
13, 536137, Control_c, 11, 11, 124
13, 536160, Note_on_c, 11, 76, 76
13, 536305, Control_c, 11, 11, 125
13, 536472, Control_c, 11, 11, 127
13, 536519, Note_on_c, 11, 76, 0
13, 536640, Note_on_c, 11, 77, 76
13, 536999, Note_on_c, 11, 77, 0
13, 537120, Note_on_c, 11, 77, 76
13, 537120, Note_on_c, 11, 69, 76
13, 537479, Note_on_c, 11, 77, 0
13, 537479, Note_on_c, 11, 69, 0
13, 537600, Note_on_c, 11, 69, 76
13, 537600, Note_on_c, 11, 77, 76
13, 537959, Note_on_c, 11, 69, 0
13, 537959, Note_on_c, 11, 77, 0
13, 538080, Note_on_c, 11, 77, 76
13, 538080, Note_on_c, 11, 69, 76
13, 538439, Note_on_c, 11, 77, 0
13, 538439, Note_on_c, 11, 69, 0
13, 538560, Note_on_c, 11, 77, 76
13, 538560, Note_on_c, 11, 69, 76
13, 538919, Note_on_c, 11, 77, 0
13, 538919, Note_on_c, 11, 69, 0
13, 539040, Note_on_c, 11, 77, 76
13, 539040, Note_on_c, 11, 69, 76
13, 539399, Note_on_c, 11, 77, 0
13, 539399, Note_on_c, 11, 69, 0
13, 539520, Note_on_c, 11, 77, 76
13, 539520, Note_on_c, 11, 70, 76
13, 540224, Note_on_c, 11, 77, 0
13, 540224, Note_on_c, 11, 70, 0
13, 540240, Note_on_c, 11, 74, 76
13, 540464, Note_on_c, 11, 74, 0
13, 540480, Note_on_c, 11, 79, 76
13, 541184, Note_on_c, 11, 79, 0
13, 541200, Note_on_c, 11, 75, 76
13, 541424, Note_on_c, 11, 75, 0
13, 541440, Note_on_c, 11, 74, 76
13, 542144, Note_on_c, 11, 74, 0
13, 542160, Note_on_c, 11, 74, 76
13, 542384, Note_on_c, 11, 74, 0
13, 542400, Note_on_c, 11, 72, 76
13, 542624, Note_on_c, 11, 72, 0
13, 542640, Note_on_c, 11, 72, 76
13, 542864, Note_on_c, 11, 72, 0
13, 542880, Note_on_c, 11, 72, 76
13, 542939, Note_on_c, 11, 72, 0
13, 542940, Note_on_c, 11, 74, 76
13, 542999, Note_on_c, 11, 74, 0
13, 543000, Note_on_c, 11, 72, 76
13, 543059, Note_on_c, 11, 72, 0
13, 543060, Note_on_c, 11, 74, 76
13, 543119, Note_on_c, 11, 74, 0
13, 543120, Note_on_c, 11, 72, 76
13, 543179, Note_on_c, 11, 72, 0
13, 543180, Note_on_c, 11, 74, 76
13, 543239, Note_on_c, 11, 74, 0
13, 543240, Note_on_c, 11, 70, 76
13, 543299, Note_on_c, 11, 70, 0
13, 543300, Note_on_c, 11, 72, 76
13, 543351, Note_on_c, 11, 72, 0
13, 543360, Note_on_c, 11, 77, 76
13, 543599, Note_on_c, 11, 77, 0
13, 543600, Note_on_c, 11, 74, 76
13, 543824, Note_on_c, 11, 74, 0
13, 543840, Note_on_c, 11, 79, 76
13, 544079, Note_on_c, 11, 79, 0
13, 544080, Note_on_c, 11, 75, 76
13, 544304, Note_on_c, 11, 75, 0
13, 544320, Note_on_c, 11, 74, 76
13, 544544, Note_on_c, 11, 74, 0
13, 544560, Note_on_c, 11, 74, 76
13, 544784, Note_on_c, 11, 74, 0
13, 544800, Note_on_c, 11, 72, 76
13, 544859, Note_on_c, 11, 72, 0
13, 544860, Note_on_c, 11, 74, 76
13, 544919, Note_on_c, 11, 74, 0
13, 544920, Note_on_c, 11, 72, 76
13, 544979, Note_on_c, 11, 72, 0
13, 544980, Note_on_c, 11, 74, 76
13, 545039, Note_on_c, 11, 74, 0
13, 545040, Note_on_c, 11, 72, 76
13, 545099, Note_on_c, 11, 72, 0
13, 545100, Note_on_c, 11, 74, 76
13, 545159, Note_on_c, 11, 74, 0
13, 545160, Note_on_c, 11, 70, 76
13, 545219, Note_on_c, 11, 70, 0
13, 545220, Note_on_c, 11, 72, 76
13, 545271, Note_on_c, 11, 72, 0
13, 545280, Note_on_c, 11, 70, 52
13, 545519, Note_on_c, 11, 70, 0
13, 552720, Note_on_c, 11, 77, 76
13, 552824, Note_on_c, 11, 77, 0
13, 552840, Note_on_c, 11, 77, 76
13, 552944, Note_on_c, 11, 77, 0
13, 552960, Note_on_c, 11, 74, 76
13, 553064, Note_on_c, 11, 74, 0
13, 553080, Note_on_c, 11, 74, 76
13, 553184, Note_on_c, 11, 74, 0
13, 553200, Note_on_c, 11, 75, 76
13, 553304, Note_on_c, 11, 75, 0
13, 553320, Note_on_c, 11, 75, 76
13, 553424, Note_on_c, 11, 75, 0
13, 553440, Note_on_c, 11, 77, 76
13, 553544, Note_on_c, 11, 77, 0
13, 553560, Note_on_c, 11, 77, 76
13, 553664, Note_on_c, 11, 77, 0
13, 553680, Note_on_c, 11, 65, 76
13, 553784, Note_on_c, 11, 65, 0
13, 553800, Note_on_c, 11, 65, 76
13, 553904, Note_on_c, 11, 65, 0
13, 553920, Note_on_c, 11, 70, 76
13, 554624, Note_on_c, 11, 70, 0
13, 554640, Note_on_c, 11, 72, 76
13, 554744, Note_on_c, 11, 72, 0
13, 554760, Note_on_c, 11, 72, 76
13, 554864, Note_on_c, 11, 72, 0
13, 554880, Note_on_c, 11, 74, 76
13, 554984, Note_on_c, 11, 74, 0
13, 555000, Note_on_c, 11, 74, 76
13, 555104, Note_on_c, 11, 74, 0
13, 555120, Note_on_c, 11, 70, 76
13, 555224, Note_on_c, 11, 70, 0
13, 555240, Note_on_c, 11, 70, 76
13, 555344, Note_on_c, 11, 70, 0
13, 555360, Note_on_c, 11, 74, 76
13, 555464, Note_on_c, 11, 74, 0
13, 555480, Note_on_c, 11, 74, 76
13, 555584, Note_on_c, 11, 74, 0
13, 555600, Note_on_c, 11, 75, 76
13, 555704, Note_on_c, 11, 75, 0
13, 555720, Note_on_c, 11, 75, 76
13, 555824, Note_on_c, 11, 75, 0
13, 555840, Note_on_c, 11, 77, 76
13, 556544, Note_on_c, 11, 77, 0
13, 556560, Note_on_c, 11, 79, 76
13, 556664, Note_on_c, 11, 79, 0
13, 556680, Note_on_c, 11, 79, 76
13, 556784, Note_on_c, 11, 79, 0
13, 556800, Note_on_c, 11, 81, 76
13, 556904, Note_on_c, 11, 81, 0
13, 556920, Note_on_c, 11, 81, 76
13, 557024, Note_on_c, 11, 81, 0
13, 557040, Note_on_c, 11, 82, 76
13, 557144, Note_on_c, 11, 82, 0
13, 557160, Note_on_c, 11, 82, 76
13, 557264, Note_on_c, 11, 82, 0
13, 557280, Note_on_c, 11, 84, 76
13, 557384, Note_on_c, 11, 84, 0
13, 557400, Note_on_c, 11, 84, 76
13, 557504, Note_on_c, 11, 84, 0
13, 557520, Note_on_c, 11, 82, 76
13, 557624, Note_on_c, 11, 82, 0
13, 557640, Note_on_c, 11, 82, 76
13, 557744, Note_on_c, 11, 82, 0
13, 557760, Note_on_c, 11, 81, 76
13, 558464, Note_on_c, 11, 81, 0
13, 558480, Note_on_c, 11, 79, 76
13, 558584, Note_on_c, 11, 79, 0
13, 558600, Note_on_c, 11, 79, 76
13, 558704, Note_on_c, 11, 79, 0
13, 558720, Note_on_c, 11, 77, 76
13, 558824, Note_on_c, 11, 77, 0
13, 558840, Note_on_c, 11, 77, 76
13, 558944, Note_on_c, 11, 77, 0
13, 558960, Note_on_c, 11, 79, 76
13, 559064, Note_on_c, 11, 79, 0
13, 559080, Note_on_c, 11, 79, 76
13, 559184, Note_on_c, 11, 79, 0
13, 559200, Note_on_c, 11, 75, 76
13, 559304, Note_on_c, 11, 75, 0
13, 559320, Note_on_c, 11, 75, 76
13, 559424, Note_on_c, 11, 75, 0
13, 559440, Note_on_c, 11, 72, 76
13, 559544, Note_on_c, 11, 72, 0
13, 559560, Note_on_c, 11, 72, 76
13, 559664, Note_on_c, 11, 72, 0
13, 559680, Note_on_c, 11, 69, 76
13, 560639, Note_on_c, 11, 69, 0
13, 561840, Note_on_c, 11, 69, 52
13, 562079, Note_on_c, 11, 69, 0
13, 562080, Note_on_c, 11, 72, 52
13, 562319, Note_on_c, 11, 72, 0
13, 562320, Note_on_c, 11, 75, 52
13, 562544, Note_on_c, 11, 75, 0
13, 562560, Note_on_c, 11, 79, 44
13, 562664, Note_on_c, 11, 79, 0
13, 562680, Note_on_c, 11, 79, 44
13, 562784, Note_on_c, 11, 79, 0
13, 562800, Note_on_c, 11, 79, 44
13, 562904, Note_on_c, 11, 79, 0
13, 562920, Note_on_c, 11, 79, 44
13, 563024, Note_on_c, 11, 79, 0
13, 563040, Note_on_c, 11, 79, 44
13, 563144, Note_on_c, 11, 79, 0
13, 563160, Note_on_c, 11, 79, 44
13, 563264, Note_on_c, 11, 79, 0
13, 563280, Note_on_c, 11, 79, 44
13, 563384, Note_on_c, 11, 79, 0
13, 563400, Note_on_c, 11, 79, 44
13, 563504, Note_on_c, 11, 79, 0
13, 563520, Note_on_c, 11, 79, 44
13, 563624, Note_on_c, 11, 79, 0
13, 563640, Note_on_c, 11, 79, 44
13, 563744, Note_on_c, 11, 79, 0
13, 563760, Note_on_c, 11, 79, 44
13, 563864, Note_on_c, 11, 79, 0
13, 563880, Note_on_c, 11, 79, 44
13, 563984, Note_on_c, 11, 79, 0
13, 564000, Note_on_c, 11, 79, 44
13, 564104, Note_on_c, 11, 79, 0
13, 564120, Note_on_c, 11, 79, 44
13, 564224, Note_on_c, 11, 79, 0
13, 564240, Note_on_c, 11, 79, 44
13, 564344, Note_on_c, 11, 79, 0
13, 564360, Note_on_c, 11, 79, 44
13, 564464, Note_on_c, 11, 79, 0
13, 564480, Note_on_c, 11, 77, 84
13, 564719, Note_on_c, 11, 77, 0
13, 565200, Note_on_c, 11, 70, 84
13, 565200, Note_on_c, 11, 62, 84
13, 565424, Note_on_c, 11, 70, 0
13, 565424, Note_on_c, 11, 62, 0
13, 565440, Note_on_c, 11, 70, 84
13, 565440, Note_on_c, 11, 67, 84
13, 565679, Note_on_c, 11, 70, 0
13, 565679, Note_on_c, 11, 67, 0
13, 565920, Note_on_c, 11, 69, 84
13, 565920, Note_on_c, 11, 63, 84
13, 566159, Note_on_c, 11, 69, 0
13, 566159, Note_on_c, 11, 63, 0
13, 566400, Note_on_c, 11, 79, 44
13, 566504, Note_on_c, 11, 79, 0
13, 566520, Note_on_c, 11, 79, 44
13, 566624, Note_on_c, 11, 79, 0
13, 566640, Note_on_c, 11, 79, 44
13, 566744, Note_on_c, 11, 79, 0
13, 566760, Note_on_c, 11, 79, 44
13, 566864, Note_on_c, 11, 79, 0
13, 566880, Note_on_c, 11, 79, 44
13, 566984, Note_on_c, 11, 79, 0
13, 567000, Note_on_c, 11, 79, 44
13, 567104, Note_on_c, 11, 79, 0
13, 567120, Note_on_c, 11, 79, 44
13, 567224, Note_on_c, 11, 79, 0
13, 567240, Note_on_c, 11, 79, 44
13, 567344, Note_on_c, 11, 79, 0
13, 567360, Note_on_c, 11, 79, 44
13, 567464, Note_on_c, 11, 79, 0
13, 567480, Note_on_c, 11, 79, 44
13, 567584, Note_on_c, 11, 79, 0
13, 567600, Note_on_c, 11, 79, 44
13, 567704, Note_on_c, 11, 79, 0
13, 567720, Note_on_c, 11, 79, 44
13, 567824, Note_on_c, 11, 79, 0
13, 567840, Note_on_c, 11, 79, 44
13, 567944, Note_on_c, 11, 79, 0
13, 567960, Note_on_c, 11, 79, 44
13, 568064, Note_on_c, 11, 79, 0
13, 568080, Note_on_c, 11, 79, 44
13, 568184, Note_on_c, 11, 79, 0
13, 568200, Note_on_c, 11, 79, 44
13, 568304, Note_on_c, 11, 79, 0
13, 568320, Note_on_c, 11, 62, 84
13, 568320, Note_on_c, 11, 70, 84
13, 568320, Note_on_c, 11, 77, 84
13, 568559, Note_on_c, 11, 62, 0
13, 568559, Note_on_c, 11, 70, 0
13, 568559, Note_on_c, 11, 77, 0
13, 569040, Note_on_c, 11, 62, 84
13, 569040, Note_on_c, 11, 70, 84
13, 569264, Note_on_c, 11, 62, 0
13, 569264, Note_on_c, 11, 70, 0
13, 569280, Note_on_c, 11, 67, 84
13, 569280, Note_on_c, 11, 70, 84
13, 569519, Note_on_c, 11, 67, 0
13, 569519, Note_on_c, 11, 70, 0
13, 569760, Note_on_c, 11, 69, 84
13, 569760, Note_on_c, 11, 63, 84
13, 569999, Note_on_c, 11, 69, 0
13, 569999, Note_on_c, 11, 63, 0
13, 570240, Note_on_c, 11, 79, 44
13, 570344, Note_on_c, 11, 79, 0
13, 570360, Note_on_c, 11, 79, 46
13, 570464, Note_on_c, 11, 79, 0
13, 570480, Note_on_c, 11, 79, 48
13, 570584, Note_on_c, 11, 79, 0
13, 570600, Note_on_c, 11, 79, 50
13, 570704, Note_on_c, 11, 79, 0
13, 570720, Note_on_c, 11, 79, 52
13, 570824, Note_on_c, 11, 79, 0
13, 570840, Note_on_c, 11, 79, 54
13, 570944, Note_on_c, 11, 79, 0
13, 570960, Note_on_c, 11, 79, 56
13, 571064, Note_on_c, 11, 79, 0
13, 571080, Note_on_c, 11, 79, 58
13, 571184, Note_on_c, 11, 79, 0
13, 571200, Note_on_c, 11, 79, 60
13, 571304, Note_on_c, 11, 79, 0
13, 571320, Note_on_c, 11, 79, 62
13, 571424, Note_on_c, 11, 79, 0
13, 571440, Note_on_c, 11, 79, 64
13, 571544, Note_on_c, 11, 79, 0
13, 571560, Note_on_c, 11, 79, 66
13, 571664, Note_on_c, 11, 79, 0
13, 571680, Note_on_c, 11, 79, 68
13, 571784, Note_on_c, 11, 79, 0
13, 571800, Note_on_c, 11, 79, 70
13, 571904, Note_on_c, 11, 79, 0
13, 571920, Note_on_c, 11, 79, 72
13, 572024, Note_on_c, 11, 79, 0
13, 572040, Note_on_c, 11, 79, 74
13, 572144, Note_on_c, 11, 79, 0
13, 572160, Note_on_c, 11, 79, 76
13, 572264, Note_on_c, 11, 79, 0
13, 572280, Note_on_c, 11, 79, 76
13, 572384, Note_on_c, 11, 79, 0
13, 572400, Note_on_c, 11, 79, 76
13, 572504, Note_on_c, 11, 79, 0
13, 572520, Note_on_c, 11, 79, 76
13, 572624, Note_on_c, 11, 79, 0
13, 572640, Note_on_c, 11, 79, 76
13, 572744, Note_on_c, 11, 79, 0
13, 572760, Note_on_c, 11, 79, 76
13, 572864, Note_on_c, 11, 79, 0
13, 572880, Note_on_c, 11, 79, 76
13, 572984, Note_on_c, 11, 79, 0
13, 573000, Note_on_c, 11, 79, 76
13, 573104, Note_on_c, 11, 79, 0
13, 573120, Note_on_c, 11, 77, 76
13, 573224, Note_on_c, 11, 77, 0
13, 573240, Note_on_c, 11, 77, 76
13, 573344, Note_on_c, 11, 77, 0
13, 573360, Note_on_c, 11, 77, 76
13, 573464, Note_on_c, 11, 77, 0
13, 573480, Note_on_c, 11, 77, 76
13, 573584, Note_on_c, 11, 77, 0
13, 573600, Note_on_c, 11, 77, 76
13, 573704, Note_on_c, 11, 77, 0
13, 573720, Note_on_c, 11, 77, 76
13, 573824, Note_on_c, 11, 77, 0
13, 573840, Note_on_c, 11, 77, 76
13, 573944, Note_on_c, 11, 77, 0
13, 573960, Note_on_c, 11, 77, 76
13, 574064, Note_on_c, 11, 77, 0
13, 574080, Note_on_c, 11, 77, 76
13, 574184, Note_on_c, 11, 77, 0
13, 574200, Note_on_c, 11, 77, 76
13, 574304, Note_on_c, 11, 77, 0
13, 574320, Note_on_c, 11, 77, 76
13, 574424, Note_on_c, 11, 77, 0
13, 574440, Note_on_c, 11, 77, 76
13, 574544, Note_on_c, 11, 77, 0
13, 574560, Note_on_c, 11, 77, 76
13, 574664, Note_on_c, 11, 77, 0
13, 574680, Note_on_c, 11, 77, 76
13, 574784, Note_on_c, 11, 77, 0
13, 574800, Note_on_c, 11, 77, 76
13, 574904, Note_on_c, 11, 77, 0
13, 574920, Note_on_c, 11, 77, 76
13, 575024, Note_on_c, 11, 77, 0
13, 575040, Note_on_c, 11, 77, 76
13, 575144, Note_on_c, 11, 77, 0
13, 575160, Note_on_c, 11, 77, 76
13, 575264, Note_on_c, 11, 77, 0
13, 575280, Note_on_c, 11, 77, 76
13, 575384, Note_on_c, 11, 77, 0
13, 575400, Note_on_c, 11, 77, 76
13, 575504, Note_on_c, 11, 77, 0
13, 575520, Note_on_c, 11, 77, 76
13, 575624, Note_on_c, 11, 77, 0
13, 575640, Note_on_c, 11, 77, 76
13, 575744, Note_on_c, 11, 77, 0
13, 575760, Note_on_c, 11, 77, 76
13, 575864, Note_on_c, 11, 77, 0
13, 575880, Note_on_c, 11, 77, 76
13, 575984, Note_on_c, 11, 77, 0
13, 576000, Note_on_c, 11, 77, 84
13, 576000, Note_on_c, 11, 70, 84
13, 576104, Note_on_c, 11, 77, 0
13, 576104, Note_on_c, 11, 70, 0
13, 576120, Note_on_c, 11, 82, 84
13, 576120, Note_on_c, 11, 70, 84
13, 576224, Note_on_c, 11, 82, 0
13, 576224, Note_on_c, 11, 70, 0
13, 576240, Note_on_c, 11, 70, 84
13, 576240, Note_on_c, 11, 82, 84
13, 576344, Note_on_c, 11, 70, 0
13, 576344, Note_on_c, 11, 82, 0
13, 576360, Note_on_c, 11, 82, 84
13, 576360, Note_on_c, 11, 70, 84
13, 576464, Note_on_c, 11, 82, 0
13, 576464, Note_on_c, 11, 70, 0
13, 576480, Note_on_c, 11, 82, 84
13, 576480, Note_on_c, 11, 70, 84
13, 576584, Note_on_c, 11, 82, 0
13, 576584, Note_on_c, 11, 70, 0
13, 576600, Note_on_c, 11, 82, 84
13, 576600, Note_on_c, 11, 70, 84
13, 576704, Note_on_c, 11, 82, 0
13, 576704, Note_on_c, 11, 70, 0
13, 576720, Note_on_c, 11, 82, 84
13, 576720, Note_on_c, 11, 70, 84
13, 576824, Note_on_c, 11, 82, 0
13, 576824, Note_on_c, 11, 70, 0
13, 576840, Note_on_c, 11, 82, 84
13, 576840, Note_on_c, 11, 70, 84
13, 576944, Note_on_c, 11, 82, 0
13, 576944, Note_on_c, 11, 70, 0
13, 576960, Note_on_c, 11, 70, 84
13, 576960, Note_on_c, 11, 82, 84
13, 577064, Note_on_c, 11, 70, 0
13, 577064, Note_on_c, 11, 82, 0
13, 577080, Note_on_c, 11, 82, 84
13, 577080, Note_on_c, 11, 70, 84
13, 577184, Note_on_c, 11, 82, 0
13, 577184, Note_on_c, 11, 70, 0
13, 577200, Note_on_c, 11, 82, 84
13, 577200, Note_on_c, 11, 70, 84
13, 577304, Note_on_c, 11, 82, 0
13, 577304, Note_on_c, 11, 70, 0
13, 577320, Note_on_c, 11, 70, 84
13, 577320, Note_on_c, 11, 82, 84
13, 577424, Note_on_c, 11, 70, 0
13, 577424, Note_on_c, 11, 82, 0
13, 577440, Note_on_c, 11, 70, 84
13, 577440, Note_on_c, 11, 82, 84
13, 577544, Note_on_c, 11, 70, 0
13, 577544, Note_on_c, 11, 82, 0
13, 577560, Note_on_c, 11, 82, 84
13, 577560, Note_on_c, 11, 70, 84
13, 577664, Note_on_c, 11, 82, 0
13, 577664, Note_on_c, 11, 70, 0
13, 577680, Note_on_c, 11, 82, 84
13, 577680, Note_on_c, 11, 70, 84
13, 577784, Note_on_c, 11, 82, 0
13, 577784, Note_on_c, 11, 70, 0
13, 577800, Note_on_c, 11, 70, 84
13, 577800, Note_on_c, 11, 82, 84
13, 577904, Note_on_c, 11, 70, 0
13, 577904, Note_on_c, 11, 82, 0
13, 577920, Note_on_c, 11, 70, 92
13, 577920, Note_on_c, 11, 82, 92
13, 578024, Note_on_c, 11, 70, 0
13, 578024, Note_on_c, 11, 82, 0
13, 578040, Note_on_c, 11, 82, 84
13, 578040, Note_on_c, 11, 70, 84
13, 578144, Note_on_c, 11, 82, 0
13, 578144, Note_on_c, 11, 70, 0
13, 578160, Note_on_c, 11, 70, 84
13, 578160, Note_on_c, 11, 82, 84
13, 578264, Note_on_c, 11, 70, 0
13, 578264, Note_on_c, 11, 82, 0
13, 578280, Note_on_c, 11, 82, 84
13, 578280, Note_on_c, 11, 70, 84
13, 578384, Note_on_c, 11, 82, 0
13, 578384, Note_on_c, 11, 70, 0
13, 578400, Note_on_c, 11, 70, 84
13, 578400, Note_on_c, 11, 82, 84
13, 578504, Note_on_c, 11, 70, 0
13, 578504, Note_on_c, 11, 82, 0
13, 578520, Note_on_c, 11, 70, 84
13, 578520, Note_on_c, 11, 82, 84
13, 578624, Note_on_c, 11, 70, 0
13, 578624, Note_on_c, 11, 82, 0
13, 578640, Note_on_c, 11, 82, 84
13, 578640, Note_on_c, 11, 70, 84
13, 578744, Note_on_c, 11, 82, 0
13, 578744, Note_on_c, 11, 70, 0
13, 578760, Note_on_c, 11, 82, 84
13, 578760, Note_on_c, 11, 70, 84
13, 578864, Note_on_c, 11, 82, 0
13, 578864, Note_on_c, 11, 70, 0
13, 578880, Note_on_c, 11, 69, 84
13, 578880, Note_on_c, 11, 81, 84
13, 578984, Note_on_c, 11, 69, 0
13, 578984, Note_on_c, 11, 81, 0
13, 579000, Note_on_c, 11, 81, 84
13, 579000, Note_on_c, 11, 69, 84
13, 579104, Note_on_c, 11, 81, 0
13, 579104, Note_on_c, 11, 69, 0
13, 579120, Note_on_c, 11, 69, 84
13, 579120, Note_on_c, 11, 81, 84
13, 579224, Note_on_c, 11, 69, 0
13, 579224, Note_on_c, 11, 81, 0
13, 579240, Note_on_c, 11, 69, 84
13, 579240, Note_on_c, 11, 81, 84
13, 579344, Note_on_c, 11, 69, 0
13, 579344, Note_on_c, 11, 81, 0
13, 579360, Note_on_c, 11, 81, 84
13, 579360, Note_on_c, 11, 69, 84
13, 579464, Note_on_c, 11, 81, 0
13, 579464, Note_on_c, 11, 69, 0
13, 579480, Note_on_c, 11, 69, 84
13, 579480, Note_on_c, 11, 81, 84
13, 579584, Note_on_c, 11, 69, 0
13, 579584, Note_on_c, 11, 81, 0
13, 579600, Note_on_c, 11, 69, 84
13, 579600, Note_on_c, 11, 81, 84
13, 579704, Note_on_c, 11, 69, 0
13, 579704, Note_on_c, 11, 81, 0
13, 579720, Note_on_c, 11, 81, 84
13, 579720, Note_on_c, 11, 69, 84
13, 579824, Note_on_c, 11, 81, 0
13, 579824, Note_on_c, 11, 69, 0
13, 579840, Note_on_c, 11, 70, 84
13, 579840, Note_on_c, 11, 82, 84
13, 580064, Note_on_c, 11, 70, 0
13, 580064, Note_on_c, 11, 82, 0
13, 580080, Note_on_c, 11, 74, 84
13, 580544, Note_on_c, 11, 74, 0
13, 580560, Note_on_c, 11, 75, 84
13, 581024, Note_on_c, 11, 75, 0
13, 581040, Note_on_c, 11, 77, 84
13, 581504, Note_on_c, 11, 77, 0
13, 581520, Note_on_c, 11, 70, 84
13, 581984, Note_on_c, 11, 70, 0
13, 582000, Note_on_c, 11, 72, 84
13, 582464, Note_on_c, 11, 72, 0
13, 582480, Note_on_c, 11, 74, 84
13, 582944, Note_on_c, 11, 74, 0
13, 582960, Note_on_c, 11, 65, 84
13, 583424, Note_on_c, 11, 65, 0
13, 583440, Note_on_c, 11, 81, 84
13, 583440, Note_on_c, 11, 72, 84
13, 583619, Note_on_c, 11, 81, 0
13, 583619, Note_on_c, 11, 72, 0
13, 583680, Note_on_c, 11, 74, 84
13, 583680, Note_on_c, 11, 82, 84
13, 583859, Note_on_c, 11, 74, 0
13, 583859, Note_on_c, 11, 82, 0
13, 583920, Note_on_c, 11, 74, 84
13, 584384, Note_on_c, 11, 74, 0
13, 584400, Note_on_c, 11, 75, 84
13, 584864, Note_on_c, 11, 75, 0
13, 584880, Note_on_c, 11, 77, 84
13, 585344, Note_on_c, 11, 77, 0
13, 585360, Note_on_c, 11, 70, 84
13, 585824, Note_on_c, 11, 70, 0
13, 585840, Note_on_c, 11, 72, 84
13, 586304, Note_on_c, 11, 72, 0
13, 586320, Note_on_c, 11, 74, 84
13, 586784, Note_on_c, 11, 74, 0
13, 586800, Note_on_c, 11, 65, 84
13, 587264, Note_on_c, 11, 65, 0
13, 587280, Note_on_c, 11, 72, 84
13, 587280, Note_on_c, 11, 81, 84
13, 587459, Note_on_c, 11, 72, 0
13, 587459, Note_on_c, 11, 81, 0
13, 587520, Note_on_c, 11, 82, 84
13, 587520, Note_on_c, 11, 74, 84
13, 587699, Note_on_c, 11, 82, 0
13, 587699, Note_on_c, 11, 74, 0
13, 587760, Note_on_c, 11, 84, 84
13, 588224, Note_on_c, 11, 84, 0
13, 588240, Note_on_c, 11, 86, 84
13, 588704, Note_on_c, 11, 86, 0
13, 588720, Note_on_c, 11, 77, 84
13, 589184, Note_on_c, 11, 77, 0
13, 589200, Note_on_c, 11, 69, 84
13, 589200, Note_on_c, 11, 81, 84
13, 589424, Note_on_c, 11, 69, 0
13, 589424, Note_on_c, 11, 81, 0
13, 589440, Note_on_c, 11, 81, 84
13, 589440, Note_on_c, 11, 69, 84
13, 590399, Note_on_c, 11, 81, 0
13, 590399, Note_on_c, 11, 69, 0
13, 590400, Note_on_c, 11, 69, 84
13, 590400, Note_on_c, 11, 81, 84
13, 591104, Note_on_c, 11, 69, 0
13, 591104, Note_on_c, 11, 81, 0
13, 591120, Note_on_c, 11, 77, 84
13, 591179, Note_on_c, 11, 77, 0
13, 591180, Note_on_c, 11, 79, 84
13, 591239, Note_on_c, 11, 79, 0
13, 591240, Note_on_c, 11, 81, 84
13, 591299, Note_on_c, 11, 81, 0
13, 591300, Note_on_c, 11, 82, 84
13, 591351, Note_on_c, 11, 82, 0
13, 591360, Note_on_c, 11, 84, 84
13, 591360, Note_on_c, 11, 69, 84
13, 591539, Note_on_c, 11, 84, 0
13, 591539, Note_on_c, 11, 69, 0
13, 592080, Note_on_c, 11, 77, 84
13, 592139, Note_on_c, 11, 77, 0
13, 592140, Note_on_c, 11, 79, 84
13, 592199, Note_on_c, 11, 79, 0
13, 592200, Note_on_c, 11, 81, 84
13, 592259, Note_on_c, 11, 81, 0
13, 592260, Note_on_c, 11, 82, 84
13, 592311, Note_on_c, 11, 82, 0
13, 592320, Note_on_c, 11, 69, 84
13, 592320, Note_on_c, 11, 84, 84
13, 592499, Note_on_c, 11, 69, 0
13, 592499, Note_on_c, 11, 84, 0
13, 593040, Note_on_c, 11, 77, 84
13, 593099, Note_on_c, 11, 77, 0
13, 593100, Note_on_c, 11, 79, 84
13, 593159, Note_on_c, 11, 79, 0
13, 593160, Note_on_c, 11, 81, 84
13, 593219, Note_on_c, 11, 81, 0
13, 593220, Note_on_c, 11, 82, 84
13, 593271, Note_on_c, 11, 82, 0
13, 593280, Note_on_c, 11, 84, 84
13, 593280, Note_on_c, 11, 69, 84
13, 593459, Note_on_c, 11, 84, 0
13, 593459, Note_on_c, 11, 69, 0
13, 593640, Note_on_c, 11, 81, 84
13, 593699, Note_on_c, 11, 81, 0
13, 593700, Note_on_c, 11, 82, 84
13, 593751, Note_on_c, 11, 82, 0
13, 593760, Note_on_c, 11, 84, 84
13, 593760, Note_on_c, 11, 69, 84
13, 593939, Note_on_c, 11, 84, 0
13, 593939, Note_on_c, 11, 69, 0
13, 594120, Note_on_c, 11, 81, 84
13, 594179, Note_on_c, 11, 81, 0
13, 594180, Note_on_c, 11, 82, 84
13, 594231, Note_on_c, 11, 82, 0
13, 594240, Note_on_c, 11, 69, 84
13, 594240, Note_on_c, 11, 84, 84
13, 594419, Note_on_c, 11, 69, 0
13, 594419, Note_on_c, 11, 84, 0
13, 594600, Note_on_c, 11, 81, 84
13, 594659, Note_on_c, 11, 81, 0
13, 594660, Note_on_c, 11, 82, 84
13, 594711, Note_on_c, 11, 82, 0
13, 594720, Note_on_c, 11, 69, 84
13, 594720, Note_on_c, 11, 84, 84
13, 594899, Note_on_c, 11, 69, 0
13, 594899, Note_on_c, 11, 84, 0
13, 595080, Note_on_c, 11, 81, 84
13, 595119, Note_on_c, 11, 81, 0
13, 595120, Note_on_c, 11, 82, 84
13, 595159, Note_on_c, 11, 82, 0
13, 595160, Note_on_c, 11, 84, 84
13, 595191, Note_on_c, 11, 84, 0
13, 595200, Note_on_c, 11, 86, 84
13, 595379, Note_on_c, 11, 86, 0
13, 595440, Note_on_c, 11, 82, 84
13, 595619, Note_on_c, 11, 82, 0
13, 595920, Note_on_c, 11, 86, 84
13, 596099, Note_on_c, 11, 86, 0
13, 596160, Note_on_c, 11, 82, 84
13, 596339, Note_on_c, 11, 82, 0
13, 596400, Note_on_c, 11, 77, 84
13, 596579, Note_on_c, 11, 77, 0
13, 596880, Note_on_c, 11, 82, 84
13, 597059, Note_on_c, 11, 82, 0
13, 597120, Note_on_c, 11, 77, 84
13, 597299, Note_on_c, 11, 77, 0
13, 597360, Note_on_c, 11, 74, 84
13, 597539, Note_on_c, 11, 74, 0
13, 597840, Note_on_c, 11, 77, 84
13, 598019, Note_on_c, 11, 77, 0
13, 598080, Note_on_c, 11, 74, 84
13, 598259, Note_on_c, 11, 74, 0
13, 598320, Note_on_c, 11, 70, 84
13, 598499, Note_on_c, 11, 70, 0
13, 598920, Note_on_c, 11, 86, 84
13, 598979, Note_on_c, 11, 86, 0
13, 598980, Note_on_c, 11, 87, 84
13, 599031, Note_on_c, 11, 87, 0
13, 599040, Note_on_c, 11, 89, 84
13, 599219, Note_on_c, 11, 89, 0
13, 599280, Note_on_c, 11, 86, 84
13, 599459, Note_on_c, 11, 86, 0
13, 599760, Note_on_c, 11, 89, 84
13, 599939, Note_on_c, 11, 89, 0
13, 600000, Note_on_c, 11, 86, 84
13, 600179, Note_on_c, 11, 86, 0
13, 600240, Note_on_c, 11, 82, 84
13, 600419, Note_on_c, 11, 82, 0
13, 600720, Note_on_c, 11, 86, 84
13, 600899, Note_on_c, 11, 86, 0
13, 600960, Note_on_c, 11, 82, 84
13, 601139, Note_on_c, 11, 82, 0
13, 601200, Note_on_c, 11, 77, 84
13, 601379, Note_on_c, 11, 77, 0
13, 601680, Note_on_c, 11, 82, 84
13, 601859, Note_on_c, 11, 82, 0
13, 601920, Note_on_c, 11, 77, 84
13, 602099, Note_on_c, 11, 77, 0
13, 602160, Note_on_c, 11, 74, 84
13, 602339, Note_on_c, 11, 74, 0
13, 602640, Note_on_c, 11, 77, 84
13, 602819, Note_on_c, 11, 77, 0
13, 602880, Note_on_c, 11, 70, 52
13, 603119, Note_on_c, 11, 70, 0
13, 604800, Note_on_c, 11, 72, 76
13, 604800, Note_on_c, 11, 81, 76
13, 605744, Note_on_c, 11, 72, 0
13, 605744, Note_on_c, 11, 81, 0
13, 605760, Note_on_c, 11, 72, 76
13, 605760, Note_on_c, 11, 81, 76
13, 606647, Note_on_c, 11, 72, 0
13, 606647, Note_on_c, 11, 81, 0
13, 606660, Note_on_c, 11, 81, 76
13, 606660, Note_on_c, 11, 72, 76
13, 606711, Note_on_c, 11, 81, 0
13, 606711, Note_on_c, 11, 72, 0
13, 606720, Note_on_c, 11, 74, 76
13, 606720, Note_on_c, 11, 82, 76
13, 606959, Note_on_c, 11, 74, 0
13, 606959, Note_on_c, 11, 82, 0
13, 608640, Note_on_c, 11, 81, 76
13, 608640, Note_on_c, 11, 72, 76
13, 609584, Note_on_c, 11, 81, 0
13, 609584, Note_on_c, 11, 72, 0
13, 609600, Note_on_c, 11, 81, 76
13, 609600, Note_on_c, 11, 72, 76
13, 610487, Note_on_c, 11, 81, 0
13, 610487, Note_on_c, 11, 72, 0
13, 610500, Note_on_c, 11, 81, 76
13, 610500, Note_on_c, 11, 72, 76
13, 610551, Note_on_c, 11, 81, 0
13, 610551, Note_on_c, 11, 72, 0
13, 610558, Control_c, 11, 11, 64
13, 610560, Control_c, 11, 11, 64
13, 610560, Note_on_c, 11, 82, 84
13, 610560, Note_on_c, 11, 74, 84
13, 610773, Control_c, 11, 11, 66
13, 610799, Note_on_c, 11, 82, 0
13, 610799, Note_on_c, 11, 74, 0
13, 611200, Control_c, 11, 11, 69
13, 611400, Note_on_c, 11, 77, 84
13, 611413, Control_c, 11, 11, 71
13, 611439, Note_on_c, 11, 77, 0
13, 611440, Note_on_c, 11, 79, 84
13, 611479, Note_on_c, 11, 79, 0
13, 611480, Note_on_c, 11, 81, 84
13, 611511, Note_on_c, 11, 81, 0
13, 611520, Note_on_c, 11, 82, 84
13, 611627, Control_c, 11, 11, 73
13, 611759, Note_on_c, 11, 82, 0
13, 611840, Control_c, 11, 11, 75
13, 613120, Control_c, 11, 11, 85
13, 613200, Note_on_c, 11, 77, 84
13, 613259, Note_on_c, 11, 77, 0
13, 613260, Note_on_c, 11, 79, 84
13, 613319, Note_on_c, 11, 79, 0
13, 613320, Note_on_c, 11, 81, 84
13, 613333, Control_c, 11, 11, 87
13, 613379, Note_on_c, 11, 81, 0
13, 613380, Note_on_c, 11, 82, 84
13, 613439, Note_on_c, 11, 82, 0
13, 613440, Note_on_c, 11, 84, 84
13, 613547, Control_c, 11, 11, 89
13, 613679, Note_on_c, 11, 84, 0
13, 615040, Control_c, 11, 11, 101
13, 615120, Note_on_c, 11, 77, 84
13, 615167, Note_on_c, 11, 77, 0
13, 615168, Note_on_c, 11, 79, 84
13, 615215, Note_on_c, 11, 79, 0
13, 615216, Note_on_c, 11, 81, 84
13, 615253, Control_c, 11, 11, 103
13, 615263, Note_on_c, 11, 81, 0
13, 615264, Note_on_c, 11, 82, 84
13, 615311, Note_on_c, 11, 82, 0
13, 615312, Note_on_c, 11, 84, 84
13, 615351, Note_on_c, 11, 84, 0
13, 615360, Note_on_c, 11, 86, 84
13, 615467, Control_c, 11, 11, 104
13, 615599, Note_on_c, 11, 86, 0
13, 616533, Control_c, 11, 11, 113
13, 616680, Note_on_c, 11, 69, 84
13, 616739, Note_on_c, 11, 69, 0
13, 616740, Note_on_c, 11, 70, 84
13, 616747, Control_c, 11, 11, 115
13, 616799, Note_on_c, 11, 70, 0
13, 616800, Note_on_c, 11, 72, 84
13, 616960, Control_c, 11, 11, 117
13, 616979, Note_on_c, 11, 72, 0
13, 617160, Note_on_c, 11, 72, 84
13, 617173, Control_c, 11, 11, 118
13, 617219, Note_on_c, 11, 72, 0
13, 617220, Note_on_c, 11, 74, 84
13, 617279, Note_on_c, 11, 74, 0
13, 617280, Note_on_c, 11, 75, 84
13, 617387, Control_c, 11, 11, 120
13, 617459, Note_on_c, 11, 75, 0
13, 617600, Control_c, 11, 11, 122
13, 617640, Note_on_c, 11, 75, 84
13, 617699, Note_on_c, 11, 75, 0
13, 617700, Note_on_c, 11, 77, 84
13, 617759, Note_on_c, 11, 77, 0
13, 617760, Note_on_c, 11, 79, 84
13, 617813, Control_c, 11, 11, 124
13, 617939, Note_on_c, 11, 79, 0
13, 618027, Control_c, 11, 11, 125
13, 618120, Note_on_c, 11, 79, 84
13, 618179, Note_on_c, 11, 79, 0
13, 618180, Control_c, 11, 11, 127
13, 618180, Note_on_c, 11, 81, 84
13, 618231, Note_on_c, 11, 81, 0
13, 618240, Note_on_c, 11, 82, 84
13, 618240, Note_on_c, 11, 74, 84
13, 618344, Note_on_c, 11, 82, 0
13, 618344, Note_on_c, 11, 74, 0
13, 618360, Note_on_c, 11, 74, 84
13, 618360, Note_on_c, 11, 82, 84
13, 618464, Note_on_c, 11, 74, 0
13, 618464, Note_on_c, 11, 82, 0
13, 618480, Note_on_c, 11, 74, 84
13, 618480, Note_on_c, 11, 82, 84
13, 618584, Note_on_c, 11, 74, 0
13, 618584, Note_on_c, 11, 82, 0
13, 618600, Note_on_c, 11, 74, 84
13, 618600, Note_on_c, 11, 82, 84
13, 618704, Note_on_c, 11, 74, 0
13, 618704, Note_on_c, 11, 82, 0
13, 618720, Note_on_c, 11, 74, 84
13, 618720, Note_on_c, 11, 82, 84
13, 618824, Note_on_c, 11, 74, 0
13, 618824, Note_on_c, 11, 82, 0
13, 618840, Note_on_c, 11, 74, 84
13, 618840, Note_on_c, 11, 82, 84
13, 618944, Note_on_c, 11, 74, 0
13, 618944, Note_on_c, 11, 82, 0
13, 618960, Note_on_c, 11, 82, 84
13, 618960, Note_on_c, 11, 74, 84
13, 619064, Note_on_c, 11, 82, 0
13, 619064, Note_on_c, 11, 74, 0
13, 619080, Note_on_c, 11, 82, 84
13, 619080, Note_on_c, 11, 74, 84
13, 619184, Note_on_c, 11, 82, 0
13, 619184, Note_on_c, 11, 74, 0
13, 619200, Note_on_c, 11, 82, 84
13, 619200, Note_on_c, 11, 74, 84
13, 619304, Note_on_c, 11, 82, 0
13, 619304, Note_on_c, 11, 74, 0
13, 619320, Note_on_c, 11, 82, 84
13, 619320, Note_on_c, 11, 74, 84
13, 619424, Note_on_c, 11, 82, 0
13, 619424, Note_on_c, 11, 74, 0
13, 619440, Note_on_c, 11, 82, 84
13, 619440, Note_on_c, 11, 74, 84
13, 619544, Note_on_c, 11, 82, 0
13, 619544, Note_on_c, 11, 74, 0
13, 619560, Note_on_c, 11, 82, 84
13, 619560, Note_on_c, 11, 74, 84
13, 619664, Note_on_c, 11, 82, 0
13, 619664, Note_on_c, 11, 74, 0
13, 619680, Note_on_c, 11, 82, 84
13, 619680, Note_on_c, 11, 74, 84
13, 619784, Note_on_c, 11, 82, 0
13, 619784, Note_on_c, 11, 74, 0
13, 619800, Note_on_c, 11, 74, 84
13, 619800, Note_on_c, 11, 82, 84
13, 619904, Note_on_c, 11, 74, 0
13, 619904, Note_on_c, 11, 82, 0
13, 619920, Note_on_c, 11, 74, 84
13, 619920, Note_on_c, 11, 82, 84
13, 620024, Note_on_c, 11, 74, 0
13, 620024, Note_on_c, 11, 82, 0
13, 620040, Note_on_c, 11, 74, 84
13, 620040, Note_on_c, 11, 82, 84
13, 620144, Note_on_c, 11, 74, 0
13, 620144, Note_on_c, 11, 82, 0
13, 620160, Note_on_c, 11, 82, 84
13, 620160, Note_on_c, 11, 74, 84
13, 620264, Note_on_c, 11, 82, 0
13, 620264, Note_on_c, 11, 74, 0
13, 620280, Note_on_c, 11, 74, 84
13, 620280, Note_on_c, 11, 82, 84
13, 620384, Note_on_c, 11, 74, 0
13, 620384, Note_on_c, 11, 82, 0
13, 620400, Note_on_c, 11, 82, 84
13, 620400, Note_on_c, 11, 74, 84
13, 620504, Note_on_c, 11, 82, 0
13, 620504, Note_on_c, 11, 74, 0
13, 620520, Note_on_c, 11, 82, 84
13, 620520, Note_on_c, 11, 74, 84
13, 620624, Note_on_c, 11, 82, 0
13, 620624, Note_on_c, 11, 74, 0
13, 620640, Note_on_c, 11, 82, 84
13, 620640, Note_on_c, 11, 74, 84
13, 620744, Note_on_c, 11, 82, 0
13, 620744, Note_on_c, 11, 74, 0
13, 620760, Note_on_c, 11, 74, 84
13, 620760, Note_on_c, 11, 82, 84
13, 620864, Note_on_c, 11, 74, 0
13, 620864, Note_on_c, 11, 82, 0
13, 620880, Note_on_c, 11, 82, 84
13, 620880, Note_on_c, 11, 74, 84
13, 620984, Note_on_c, 11, 82, 0
13, 620984, Note_on_c, 11, 74, 0
13, 621000, Note_on_c, 11, 74, 84
13, 621000, Note_on_c, 11, 82, 84
13, 621104, Note_on_c, 11, 74, 0
13, 621104, Note_on_c, 11, 82, 0
13, 621120, Note_on_c, 11, 82, 84
13, 621120, Note_on_c, 11, 74, 84
13, 621224, Note_on_c, 11, 82, 0
13, 621224, Note_on_c, 11, 74, 0
13, 621240, Note_on_c, 11, 74, 84
13, 621240, Note_on_c, 11, 82, 84
13, 621344, Note_on_c, 11, 74, 0
13, 621344, Note_on_c, 11, 82, 0
13, 621360, Note_on_c, 11, 74, 84
13, 621360, Note_on_c, 11, 82, 84
13, 621464, Note_on_c, 11, 74, 0
13, 621464, Note_on_c, 11, 82, 0
13, 621480, Note_on_c, 11, 74, 84
13, 621480, Note_on_c, 11, 82, 84
13, 621584, Note_on_c, 11, 74, 0
13, 621584, Note_on_c, 11, 82, 0
13, 621600, Note_on_c, 11, 82, 84
13, 621600, Note_on_c, 11, 74, 84
13, 621704, Note_on_c, 11, 82, 0
13, 621704, Note_on_c, 11, 74, 0
13, 621720, Note_on_c, 11, 82, 84
13, 621720, Note_on_c, 11, 74, 84
13, 621824, Note_on_c, 11, 82, 0
13, 621824, Note_on_c, 11, 74, 0
13, 621840, Note_on_c, 11, 82, 84
13, 621840, Note_on_c, 11, 74, 84
13, 621944, Note_on_c, 11, 82, 0
13, 621944, Note_on_c, 11, 74, 0
13, 621960, Note_on_c, 11, 77, 84
13, 621999, Note_on_c, 11, 77, 0
13, 622000, Note_on_c, 11, 79, 84
13, 622039, Note_on_c, 11, 79, 0
13, 622040, Note_on_c, 11, 81, 84
13, 622071, Note_on_c, 11, 81, 0
13, 622080, Note_on_c, 11, 82, 84
13, 622080, Note_on_c, 11, 74, 84
13, 622319, Note_on_c, 11, 82, 0
13, 622319, Note_on_c, 11, 74, 0
13, 622440, Note_on_c, 11, 77, 84
13, 622479, Note_on_c, 11, 77, 0
13, 622480, Note_on_c, 11, 79, 84
13, 622519, Note_on_c, 11, 79, 0
13, 622520, Note_on_c, 11, 81, 84
13, 622551, Note_on_c, 11, 81, 0
13, 622560, Note_on_c, 11, 82, 84
13, 622560, Note_on_c, 11, 74, 84
13, 622799, Note_on_c, 11, 82, 0
13, 622799, Note_on_c, 11, 74, 0
13, 622920, Note_on_c, 11, 77, 84
13, 622959, Note_on_c, 11, 77, 0
13, 622960, Note_on_c, 11, 79, 84
13, 622999, Note_on_c, 11, 79, 0
13, 623000, Note_on_c, 11, 81, 84
13, 623031, Note_on_c, 11, 81, 0
13, 623040, Note_on_c, 11, 82, 84
13, 623040, Note_on_c, 11, 74, 84
13, 623279, Note_on_c, 11, 82, 0
13, 623279, Note_on_c, 11, 74, 0
13, 624000, Note_on_c, 11, 70, 84
13, 624000, Note_on_c, 11, 62, 84
13, 624239, Note_on_c, 11, 70, 0
13, 624239, Note_on_c, 11, 62, 0
13, 624960, Note_on_c, 11, 58, 84
13, 625199, Note_on_c, 11, 58, 0
13, 625199, End_track
14, 0, Start_track
14, 0, Title_t, "Violin II"
14, 0, MIDI_port, 0
14, 0, Program_c, 12, 45
14, 0, Control_c, 12, 7, 96
14, 0, Control_c, 12, 10, 24
14, 0, Control_c, 12, 11, 127
14, 0, Note_on_c, 12, 58, 44
14, 239, Note_on_c, 12, 58, 0
14, 720, Program_c, 12, 48
14, 720, Control_c, 12, 11, 96
14, 960, Note_on_c, 12, 66, 60
14, 1439, Note_on_c, 12, 66, 0
14, 1440, Note_on_c, 12, 63, 60
14, 1907, Note_on_c, 12, 63, 0
14, 1920, Note_on_c, 12, 65, 60
14, 2399, Note_on_c, 12, 65, 0
14, 2400, Note_on_c, 12, 61, 60
14, 2867, Note_on_c, 12, 61, 0
14, 2880, Note_on_c, 12, 63, 60
14, 3119, Note_on_c, 12, 63, 0
14, 3120, Note_on_c, 12, 60, 60
14, 3359, Note_on_c, 12, 60, 0
14, 3360, Note_on_c, 12, 61, 60
14, 3599, Note_on_c, 12, 61, 0
14, 3600, Note_on_c, 12, 58, 60
14, 3827, Note_on_c, 12, 58, 0
14, 3840, Control_c, 12, 11, 96
14, 3840, Note_on_c, 12, 66, 60
14, 3860, Control_c, 12, 11, 97
14, 3880, Control_c, 12, 11, 99
14, 3900, Control_c, 12, 11, 100
14, 3920, Control_c, 12, 11, 101
14, 3940, Control_c, 12, 11, 102
14, 3960, Control_c, 12, 11, 104
14, 3980, Control_c, 12, 11, 105
14, 4000, Control_c, 12, 11, 106
14, 4020, Control_c, 12, 11, 108
14, 4040, Control_c, 12, 11, 109
14, 4060, Control_c, 12, 11, 110
14, 4080, Control_c, 12, 11, 112
14, 4100, Control_c, 12, 11, 113
14, 4120, Control_c, 12, 11, 114
14, 4140, Control_c, 12, 11, 115
14, 4160, Control_c, 12, 11, 117
14, 4180, Control_c, 12, 11, 118
14, 4200, Control_c, 12, 11, 119
14, 4220, Control_c, 12, 11, 121
14, 4240, Control_c, 12, 11, 122
14, 4260, Control_c, 12, 11, 123
14, 4280, Control_c, 12, 11, 124
14, 4300, Control_c, 12, 11, 126
14, 4320, Control_c, 12, 11, 127
14, 4340, Control_c, 12, 11, 126
14, 4360, Control_c, 12, 11, 124
14, 4380, Control_c, 12, 11, 123
14, 4400, Control_c, 12, 11, 122
14, 4420, Control_c, 12, 11, 121
14, 4440, Control_c, 12, 11, 119
14, 4460, Control_c, 12, 11, 118
14, 4480, Control_c, 12, 11, 117
14, 4500, Control_c, 12, 11, 115
14, 4520, Control_c, 12, 11, 114
14, 4540, Control_c, 12, 11, 113
14, 4560, Control_c, 12, 11, 112
14, 4580, Control_c, 12, 11, 110
14, 4600, Control_c, 12, 11, 109
14, 4620, Control_c, 12, 11, 108
14, 4640, Control_c, 12, 11, 106
14, 4660, Control_c, 12, 11, 105
14, 4680, Control_c, 12, 11, 104
14, 4700, Control_c, 12, 11, 102
14, 4720, Control_c, 12, 11, 101
14, 4740, Control_c, 12, 11, 100
14, 4760, Control_c, 12, 11, 99
14, 4780, Control_c, 12, 11, 96
14, 4787, Note_on_c, 12, 66, 0
14, 4800, Note_on_c, 12, 65, 60
14, 4919, Note_on_c, 12, 65, 0
14, 6240, Control_c, 12, 11, 127
14, 6480, Note_on_c, 12, 70, 44
14, 6719, Note_on_c, 12, 70, 0
14, 6720, Note_on_c, 12, 69, 44
14, 6839, Note_on_c, 12, 69, 0
14, 8400, Note_on_c, 12, 58, 44
14, 8639, Note_on_c, 12, 58, 0
14, 8640, Note_on_c, 12, 57, 44
14, 8759, Note_on_c, 12, 57, 0
14, 10560, Program_c, 12, 45
14, 11280, Note_on_c, 12, 60, 44
14, 11280, Note_on_c, 12, 63, 44
14, 11399, Note_on_c, 12, 60, 0
14, 11399, Note_on_c, 12, 63, 0
14, 11520, Note_on_c, 12, 58, 68
14, 11759, Note_on_c, 12, 58, 0
14, 12240, Control_c, 12, 11, 96
14, 12240, Program_c, 12, 48
14, 12480, Note_on_c, 12, 66, 60
14, 12959, Note_on_c, 12, 66, 0
14, 12960, Note_on_c, 12, 63, 60
14, 13427, Note_on_c, 12, 63, 0
14, 13440, Note_on_c, 12, 65, 60
14, 13919, Note_on_c, 12, 65, 0
14, 13920, Note_on_c, 12, 61, 60
14, 14387, Note_on_c, 12, 61, 0
14, 14400, Note_on_c, 12, 63, 60
14, 14639, Note_on_c, 12, 63, 0
14, 14640, Note_on_c, 12, 60, 60
14, 14879, Note_on_c, 12, 60, 0
14, 14880, Note_on_c, 12, 61, 60
14, 15119, Note_on_c, 12, 61, 0
14, 15120, Note_on_c, 12, 58, 60
14, 15347, Note_on_c, 12, 58, 0
14, 15360, Note_on_c, 12, 66, 60
14, 15360, Control_c, 12, 11, 96
14, 15380, Control_c, 12, 11, 97
14, 15400, Control_c, 12, 11, 99
14, 15420, Control_c, 12, 11, 100
14, 15440, Control_c, 12, 11, 101
14, 15460, Control_c, 12, 11, 102
14, 15480, Control_c, 12, 11, 104
14, 15500, Control_c, 12, 11, 105
14, 15520, Control_c, 12, 11, 106
14, 15540, Control_c, 12, 11, 108
14, 15560, Control_c, 12, 11, 109
14, 15580, Control_c, 12, 11, 110
14, 15600, Control_c, 12, 11, 112
14, 15620, Control_c, 12, 11, 113
14, 15640, Control_c, 12, 11, 114
14, 15660, Control_c, 12, 11, 115
14, 15680, Control_c, 12, 11, 117
14, 15700, Control_c, 12, 11, 118
14, 15720, Control_c, 12, 11, 119
14, 15740, Control_c, 12, 11, 121
14, 15760, Control_c, 12, 11, 122
14, 15780, Control_c, 12, 11, 123
14, 15800, Control_c, 12, 11, 124
14, 15820, Control_c, 12, 11, 126
14, 15840, Control_c, 12, 11, 127
14, 15860, Control_c, 12, 11, 126
14, 15880, Control_c, 12, 11, 124
14, 15900, Control_c, 12, 11, 123
14, 15920, Control_c, 12, 11, 122
14, 15940, Control_c, 12, 11, 121
14, 15960, Control_c, 12, 11, 119
14, 15980, Control_c, 12, 11, 118
14, 16000, Control_c, 12, 11, 117
14, 16020, Control_c, 12, 11, 115
14, 16040, Control_c, 12, 11, 114
14, 16060, Control_c, 12, 11, 113
14, 16080, Control_c, 12, 11, 112
14, 16100, Control_c, 12, 11, 110
14, 16120, Control_c, 12, 11, 109
14, 16140, Control_c, 12, 11, 108
14, 16160, Control_c, 12, 11, 106
14, 16180, Control_c, 12, 11, 105
14, 16200, Control_c, 12, 11, 104
14, 16220, Control_c, 12, 11, 102
14, 16240, Control_c, 12, 11, 101
14, 16260, Control_c, 12, 11, 100
14, 16280, Control_c, 12, 11, 99
14, 16300, Control_c, 12, 11, 96
14, 16439, Note_on_c, 12, 66, 0
14, 17760, Control_c, 12, 11, 127
14, 18000, Note_on_c, 12, 71, 44
14, 18239, Note_on_c, 12, 71, 0
14, 18240, Note_on_c, 12, 70, 44
14, 18359, Note_on_c, 12, 70, 0
14, 19920, Note_on_c, 12, 59, 44
14, 20159, Note_on_c, 12, 59, 0
14, 20160, Note_on_c, 12, 58, 44
14, 20279, Note_on_c, 12, 58, 0
14, 22080, Program_c, 12, 45
14, 22800, Note_on_c, 12, 64, 44
14, 22800, Note_on_c, 12, 61, 44
14, 22919, Note_on_c, 12, 64, 0
14, 22919, Note_on_c, 12, 61, 0
14, 23040, Note_on_c, 12, 59, 68
14, 23159, Note_on_c, 12, 59, 0
14, 24240, Note_on_c, 12, 55, 48
14, 24240, Note_on_c, 12, 65, 48
14, 24467, Note_on_c, 12, 55, 0
14, 24467, Note_on_c, 12, 65, 0
14, 24480, Note_on_c, 12, 65, 48
14, 24480, Note_on_c, 12, 55, 48
14, 24719, Note_on_c, 12, 65, 0
14, 24719, Note_on_c, 12, 55, 0
14, 25200, Note_on_c, 12, 55, 48
14, 25200, Note_on_c, 12, 64, 48
14, 25427, Note_on_c, 12, 55, 0
14, 25427, Note_on_c, 12, 64, 0
14, 25440, Note_on_c, 12, 55, 48
14, 25440, Note_on_c, 12, 64, 48
14, 25679, Note_on_c, 12, 55, 0
14, 25679, Note_on_c, 12, 64, 0
14, 26160, Note_on_c, 12, 67, 48
14, 26160, Note_on_c, 12, 57, 48
14, 26387, Note_on_c, 12, 67, 0
14, 26387, Note_on_c, 12, 57, 0
14, 26400, Note_on_c, 12, 67, 48
14, 26400, Note_on_c, 12, 57, 48
14, 26639, Note_on_c, 12, 67, 0
14, 26639, Note_on_c, 12, 57, 0
14, 27120, Note_on_c, 12, 57, 48
14, 27120, Note_on_c, 12, 65, 48
14, 27347, Note_on_c, 12, 57, 0
14, 27347, Note_on_c, 12, 65, 0
14, 27360, Note_on_c, 12, 65, 48
14, 27360, Note_on_c, 12, 57, 48
14, 27587, Note_on_c, 12, 65, 0
14, 27587, Note_on_c, 12, 57, 0
14, 27592, Program_c, 12, 48
14, 27600, Note_on_c, 12, 65, 76
14, 27600, Note_on_c, 12, 70, 76
14, 27629, Note_on_c, 12, 65, 0
14, 27629, Note_on_c, 12, 70, 0
14, 27630, Note_on_c, 12, 70, 52
14, 27630, Note_on_c, 12, 65, 52
14, 27959, Note_on_c, 12, 70, 0
14, 27959, Note_on_c, 12, 65, 0
14, 28080, Note_on_c, 12, 62, 52
14, 28199, Note_on_c, 12, 62, 0
14, 28320, Note_on_c, 12, 65, 52
14, 28439, Note_on_c, 12, 65, 0
14, 28560, Note_on_c, 12, 62, 68
14, 28560, Note_on_c, 12, 58, 68
14, 28589, Note_on_c, 12, 62, 0
14, 28589, Note_on_c, 12, 58, 0
14, 28590, Note_on_c, 12, 62, 52
14, 28590, Note_on_c, 12, 58, 52
14, 28799, Note_on_c, 12, 58, 0
14, 28800, Note_on_c, 12, 59, 52
14, 29027, Note_on_c, 12, 62, 0
14, 29027, Note_on_c, 12, 59, 0
14, 29040, Note_on_c, 12, 62, 52
14, 29279, Note_on_c, 12, 62, 0
14, 29280, Note_on_c, 12, 64, 52
14, 29519, Note_on_c, 12, 64, 0
14, 29520, Note_on_c, 12, 59, 52
14, 29759, Note_on_c, 12, 59, 0
14, 29760, Control_c, 12, 11, 127
14, 29760, Note_on_c, 12, 61, 52
14, 29824, Control_c, 12, 11, 126
14, 29888, Control_c, 12, 11, 125
14, 29952, Control_c, 12, 11, 124
14, 29987, Note_on_c, 12, 61, 0
14, 30000, Note_on_c, 12, 61, 52
14, 30016, Control_c, 12, 11, 123
14, 30080, Control_c, 12, 11, 122
14, 30144, Control_c, 12, 11, 121
14, 30208, Control_c, 12, 11, 120
14, 30239, Note_on_c, 12, 61, 0
14, 30240, Note_on_c, 12, 62, 52
14, 30272, Control_c, 12, 11, 119
14, 30336, Control_c, 12, 11, 118
14, 30400, Control_c, 12, 11, 117
14, 30464, Control_c, 12, 11, 116
14, 30479, Note_on_c, 12, 62, 0
14, 30480, Note_on_c, 12, 64, 52
14, 30528, Control_c, 12, 11, 115
14, 30592, Control_c, 12, 11, 114
14, 30599, Note_on_c, 12, 64, 0
14, 30600, Note_on_c, 12, 65, 52
14, 30656, Control_c, 12, 11, 112
14, 30707, Note_on_c, 12, 65, 0
14, 30720, Note_on_c, 12, 64, 52
14, 30959, Note_on_c, 12, 64, 0
14, 30960, Note_on_c, 12, 61, 52
14, 31199, Note_on_c, 12, 61, 0
14, 31200, Note_on_c, 12, 62, 52
14, 31439, Note_on_c, 12, 62, 0
14, 31440, Note_on_c, 12, 57, 52
14, 31547, Note_on_c, 12, 57, 0
14, 31560, Note_on_c, 12, 57, 52
14, 31667, Note_on_c, 12, 57, 0
14, 31680, Note_on_c, 12, 57, 52
14, 31799, Note_on_c, 12, 57, 0
14, 32160, Note_on_c, 12, 69, 52
14, 32160, Note_on_c, 12, 57, 52
14, 32279, Note_on_c, 12, 69, 0
14, 32279, Note_on_c, 12, 57, 0
14, 32400, Control_c, 12, 11, 127
14, 32640, Note_on_c, 12, 57, 44
14, 32640, Note_on_c, 12, 69, 44
14, 32759, Note_on_c, 12, 57, 0
14, 32759, Note_on_c, 12, 69, 0
14, 32880, Note_on_c, 12, 69, 44
14, 32999, Note_on_c, 12, 69, 0
14, 33120, Note_on_c, 12, 69, 57
14, 33239, Note_on_c, 12, 69, 0
14, 33360, Note_on_c, 12, 69, 70
14, 33479, Note_on_c, 12, 69, 0
14, 33600, Note_on_c, 12, 81, 84
14, 33600, Note_on_c, 12, 69, 84
14, 34427, Note_on_c, 12, 81, 0
14, 34427, Note_on_c, 12, 69, 0
14, 34440, Note_on_c, 12, 72, 84
14, 34463, Note_on_c, 12, 72, 0
14, 34464, Note_on_c, 12, 74, 84
14, 34487, Note_on_c, 12, 74, 0
14, 34488, Note_on_c, 12, 75, 84
14, 34511, Note_on_c, 12, 75, 0
14, 34512, Note_on_c, 12, 77, 84
14, 34535, Note_on_c, 12, 77, 0
14, 34536, Note_on_c, 12, 79, 84
14, 34555, Note_on_c, 12, 79, 0
14, 34560, Note_on_c, 12, 69, 84
14, 34560, Note_on_c, 12, 81, 84
14, 34679, Note_on_c, 12, 69, 0
14, 34679, Note_on_c, 12, 81, 0
14, 35520, Note_on_c, 12, 84, 84
14, 35520, Note_on_c, 12, 69, 84
14, 36347, Note_on_c, 12, 84, 0
14, 36347, Note_on_c, 12, 69, 0
14, 36360, Note_on_c, 12, 75, 84
14, 36383, Note_on_c, 12, 75, 0
14, 36384, Note_on_c, 12, 77, 84
14, 36407, Note_on_c, 12, 77, 0
14, 36408, Note_on_c, 12, 79, 84
14, 36431, Note_on_c, 12, 79, 0
14, 36432, Note_on_c, 12, 81, 84
14, 36455, Note_on_c, 12, 81, 0
14, 36456, Note_on_c, 12, 82, 84
14, 36475, Note_on_c, 12, 82, 0
14, 36480, Note_on_c, 12, 84, 84
14, 36480, Note_on_c, 12, 69, 84
14, 36659, Note_on_c, 12, 84, 0
14, 36659, Note_on_c, 12, 69, 0
14, 37200, Note_on_c, 12, 77, 84
14, 37259, Note_on_c, 12, 77, 0
14, 37260, Note_on_c, 12, 79, 84
14, 37319, Note_on_c, 12, 79, 0
14, 37320, Note_on_c, 12, 81, 84
14, 37379, Note_on_c, 12, 81, 0
14, 37380, Note_on_c, 12, 82, 84
14, 37431, Note_on_c, 12, 82, 0
14, 37440, Note_on_c, 12, 84, 84
14, 37440, Note_on_c, 12, 69, 84
14, 37619, Note_on_c, 12, 84, 0
14, 37619, Note_on_c, 12, 69, 0
14, 38160, Note_on_c, 12, 77, 84
14, 38219, Note_on_c, 12, 77, 0
14, 38220, Note_on_c, 12, 79, 84
14, 38279, Note_on_c, 12, 79, 0
14, 38280, Note_on_c, 12, 81, 84
14, 38339, Note_on_c, 12, 81, 0
14, 38340, Note_on_c, 12, 82, 84
14, 38391, Note_on_c, 12, 82, 0
14, 38400, Note_on_c, 12, 69, 84
14, 38400, Note_on_c, 12, 84, 84
14, 38579, Note_on_c, 12, 69, 0
14, 38579, Note_on_c, 12, 84, 0
14, 38760, Note_on_c, 12, 81, 84
14, 38819, Note_on_c, 12, 81, 0
14, 38820, Note_on_c, 12, 82, 84
14, 38871, Note_on_c, 12, 82, 0
14, 38880, Note_on_c, 12, 84, 84
14, 38880, Note_on_c, 12, 69, 84
14, 39059, Note_on_c, 12, 84, 0
14, 39059, Note_on_c, 12, 69, 0
14, 39240, Note_on_c, 12, 81, 84
14, 39299, Note_on_c, 12, 81, 0
14, 39300, Note_on_c, 12, 82, 84
14, 39351, Note_on_c, 12, 82, 0
14, 39360, Note_on_c, 12, 84, 84
14, 39360, Note_on_c, 12, 69, 84
14, 39539, Note_on_c, 12, 84, 0
14, 39539, Note_on_c, 12, 69, 0
14, 39720, Note_on_c, 12, 81, 84
14, 39779, Note_on_c, 12, 81, 0
14, 39780, Note_on_c, 12, 82, 84
14, 39831, Note_on_c, 12, 82, 0
14, 39840, Note_on_c, 12, 69, 84
14, 39840, Note_on_c, 12, 84, 84
14, 40019, Note_on_c, 12, 69, 0
14, 40019, Note_on_c, 12, 84, 0
14, 40200, Note_on_c, 12, 81, 84
14, 40239, Note_on_c, 12, 81, 0
14, 40240, Note_on_c, 12, 82, 84
14, 40279, Note_on_c, 12, 82, 0
14, 40280, Note_on_c, 12, 84, 84
14, 40311, Note_on_c, 12, 84, 0
14, 40320, Note_on_c, 12, 86, 76
14, 40424, Note_on_c, 12, 86, 0
14, 40440, Note_on_c, 12, 62, 52
14, 40544, Note_on_c, 12, 62, 0
14, 40560, Note_on_c, 12, 62, 52
14, 40664, Note_on_c, 12, 62, 0
14, 40680, Note_on_c, 12, 62, 52
14, 40784, Note_on_c, 12, 62, 0
14, 40800, Note_on_c, 12, 62, 52
14, 40904, Note_on_c, 12, 62, 0
14, 40920, Note_on_c, 12, 62, 52
14, 41024, Note_on_c, 12, 62, 0
14, 41040, Note_on_c, 12, 62, 52
14, 41144, Note_on_c, 12, 62, 0
14, 41160, Note_on_c, 12, 62, 52
14, 41264, Note_on_c, 12, 62, 0
14, 41280, Note_on_c, 12, 62, 52
14, 41384, Note_on_c, 12, 62, 0
14, 41400, Note_on_c, 12, 62, 52
14, 41504, Note_on_c, 12, 62, 0
14, 41520, Note_on_c, 12, 62, 52
14, 41624, Note_on_c, 12, 62, 0
14, 41640, Note_on_c, 12, 62, 52
14, 41744, Note_on_c, 12, 62, 0
14, 41760, Note_on_c, 12, 62, 52
14, 41864, Note_on_c, 12, 62, 0
14, 41880, Note_on_c, 12, 62, 52
14, 41984, Note_on_c, 12, 62, 0
14, 42000, Note_on_c, 12, 62, 52
14, 42104, Note_on_c, 12, 62, 0
14, 42120, Note_on_c, 12, 62, 52
14, 42224, Note_on_c, 12, 62, 0
14, 42240, Note_on_c, 12, 67, 52
14, 42344, Note_on_c, 12, 67, 0
14, 42360, Note_on_c, 12, 67, 52
14, 42464, Note_on_c, 12, 67, 0
14, 42480, Note_on_c, 12, 67, 52
14, 42584, Note_on_c, 12, 67, 0
14, 42600, Note_on_c, 12, 67, 52
14, 42704, Note_on_c, 12, 67, 0
14, 42720, Note_on_c, 12, 67, 52
14, 42824, Note_on_c, 12, 67, 0
14, 42840, Note_on_c, 12, 67, 52
14, 42944, Note_on_c, 12, 67, 0
14, 42960, Note_on_c, 12, 67, 52
14, 43064, Note_on_c, 12, 67, 0
14, 43080, Note_on_c, 12, 67, 52
14, 43184, Note_on_c, 12, 67, 0
14, 43200, Note_on_c, 12, 65, 52
14, 43304, Note_on_c, 12, 65, 0
14, 43320, Note_on_c, 12, 65, 52
14, 43424, Note_on_c, 12, 65, 0
14, 43440, Note_on_c, 12, 65, 52
14, 43544, Note_on_c, 12, 65, 0
14, 43560, Note_on_c, 12, 65, 52
14, 43664, Note_on_c, 12, 65, 0
14, 43680, Note_on_c, 12, 65, 52
14, 43784, Note_on_c, 12, 65, 0
14, 43800, Note_on_c, 12, 65, 52
14, 43904, Note_on_c, 12, 65, 0
14, 43920, Note_on_c, 12, 65, 52
14, 44024, Note_on_c, 12, 65, 0
14, 44040, Note_on_c, 12, 65, 52
14, 44144, Note_on_c, 12, 65, 0
14, 44160, Note_on_c, 12, 65, 52
14, 44399, Note_on_c, 12, 65, 0
14, 47760, Note_on_c, 12, 77, 52
14, 47819, Note_on_c, 12, 77, 0
14, 47820, Note_on_c, 12, 79, 52
14, 47879, Note_on_c, 12, 79, 0
14, 47880, Note_on_c, 12, 81, 52
14, 47939, Note_on_c, 12, 81, 0
14, 47940, Note_on_c, 12, 82, 52
14, 47991, Note_on_c, 12, 82, 0
14, 48000, Note_on_c, 12, 69, 84
14, 48000, Note_on_c, 12, 84, 84
14, 48179, Note_on_c, 12, 69, 0
14, 48179, Note_on_c, 12, 84, 0
14, 48720, Note_on_c, 12, 77, 84
14, 48779, Note_on_c, 12, 77, 0
14, 48780, Note_on_c, 12, 79, 84
14, 48839, Note_on_c, 12, 79, 0
14, 48840, Note_on_c, 12, 81, 84
14, 48899, Note_on_c, 12, 81, 0
14, 48900, Note_on_c, 12, 82, 84
14, 48951, Note_on_c, 12, 82, 0
14, 48960, Note_on_c, 12, 84, 84
14, 48960, Note_on_c, 12, 69, 84
14, 49139, Note_on_c, 12, 84, 0
14, 49139, Note_on_c, 12, 69, 0
14, 49320, Note_on_c, 12, 81, 84
14, 49379, Note_on_c, 12, 81, 0
14, 49380, Note_on_c, 12, 82, 84
14, 49431, Note_on_c, 12, 82, 0
14, 49440, Note_on_c, 12, 69, 84
14, 49440, Note_on_c, 12, 84, 84
14, 49619, Note_on_c, 12, 69, 0
14, 49619, Note_on_c, 12, 84, 0
14, 49800, Note_on_c, 12, 81, 84
14, 49839, Note_on_c, 12, 81, 0
14, 49840, Note_on_c, 12, 82, 84
14, 49879, Note_on_c, 12, 82, 0
14, 49880, Note_on_c, 12, 84, 84
14, 49911, Note_on_c, 12, 84, 0
14, 49920, Note_on_c, 12, 86, 84
14, 49920, Note_on_c, 12, 62, 84
14, 49920, Note_on_c, 12, 74, 84
14, 50039, Note_on_c, 12, 86, 0
14, 50039, Note_on_c, 12, 62, 0
14, 50039, Note_on_c, 12, 74, 0
14, 50160, Note_on_c, 12, 82, 84
14, 50279, Note_on_c, 12, 82, 0
14, 50400, Note_on_c, 12, 77, 84
14, 50519, Note_on_c, 12, 77, 0
14, 50640, Note_on_c, 12, 82, 84
14, 50759, Note_on_c, 12, 82, 0
14, 50880, Note_on_c, 12, 74, 84
14, 50999, Note_on_c, 12, 74, 0
14, 51120, Note_on_c, 12, 77, 84
14, 51239, Note_on_c, 12, 77, 0
14, 51360, Note_on_c, 12, 70, 84
14, 51479, Note_on_c, 12, 70, 0
14, 51600, Note_on_c, 12, 74, 84
14, 51719, Note_on_c, 12, 74, 0
14, 51840, Note_on_c, 12, 67, 84
14, 51959, Note_on_c, 12, 67, 0
14, 52080, Note_on_c, 12, 75, 84
14, 52199, Note_on_c, 12, 75, 0
14, 52320, Note_on_c, 12, 72, 84
14, 52439, Note_on_c, 12, 72, 0
14, 52560, Note_on_c, 12, 70, 84
14, 52679, Note_on_c, 12, 70, 0
14, 52800, Note_on_c, 12, 69, 84
14, 52919, Note_on_c, 12, 69, 0
14, 53040, Note_on_c, 12, 77, 84
14, 53159, Note_on_c, 12, 77, 0
14, 53280, Note_on_c, 12, 75, 84
14, 53399, Note_on_c, 12, 75, 0
14, 53520, Note_on_c, 12, 72, 84
14, 53639, Note_on_c, 12, 72, 0
14, 53760, Note_on_c, 12, 70, 84
14, 53879, Note_on_c, 12, 70, 0
14, 54000, Note_on_c, 12, 62, 84
14, 54104, Note_on_c, 12, 62, 0
14, 54120, Note_on_c, 12, 62, 84
14, 54224, Note_on_c, 12, 62, 0
14, 54240, Note_on_c, 12, 60, 84
14, 54344, Note_on_c, 12, 60, 0
14, 54360, Note_on_c, 12, 60, 84
14, 54464, Note_on_c, 12, 60, 0
14, 54480, Note_on_c, 12, 58, 84
14, 54584, Note_on_c, 12, 58, 0
14, 54600, Note_on_c, 12, 58, 84
14, 54704, Note_on_c, 12, 58, 0
14, 54720, Note_on_c, 12, 57, 84
14, 54824, Note_on_c, 12, 57, 0
14, 54840, Note_on_c, 12, 57, 84
14, 54944, Note_on_c, 12, 57, 0
14, 54960, Note_on_c, 12, 55, 84
14, 55064, Note_on_c, 12, 55, 0
14, 55080, Note_on_c, 12, 55, 84
14, 55184, Note_on_c, 12, 55, 0
14, 55200, Note_on_c, 12, 65, 84
14, 55304, Note_on_c, 12, 65, 0
14, 55320, Note_on_c, 12, 65, 84
14, 55424, Note_on_c, 12, 65, 0
14, 55440, Note_on_c, 12, 55, 84
14, 55544, Note_on_c, 12, 55, 0
14, 55560, Note_on_c, 12, 55, 84
14, 55664, Note_on_c, 12, 55, 0
14, 55680, Note_on_c, 12, 63, 92
14, 55799, Note_on_c, 12, 63, 0
14, 55800, Note_on_c, 12, 62, 84
14, 55919, Note_on_c, 12, 62, 0
14, 55920, Note_on_c, 12, 63, 84
14, 56039, Note_on_c, 12, 63, 0
14, 56040, Note_on_c, 12, 62, 84
14, 56159, Note_on_c, 12, 62, 0
14, 56160, Note_on_c, 12, 63, 84
14, 56279, Note_on_c, 12, 63, 0
14, 56280, Note_on_c, 12, 62, 84
14, 56399, Note_on_c, 12, 62, 0
14, 56400, Note_on_c, 12, 63, 84
14, 56519, Note_on_c, 12, 63, 0
14, 56520, Note_on_c, 12, 62, 84
14, 56624, Note_on_c, 12, 62, 0
14, 56640, Note_on_c, 12, 63, 84
14, 56744, Note_on_c, 12, 63, 0
14, 56760, Note_on_c, 12, 75, 84
14, 56864, Note_on_c, 12, 75, 0
14, 56880, Note_on_c, 12, 75, 84
14, 56984, Note_on_c, 12, 75, 0
14, 57000, Note_on_c, 12, 75, 84
14, 57104, Note_on_c, 12, 75, 0
14, 57120, Note_on_c, 12, 75, 84
14, 57224, Note_on_c, 12, 75, 0
14, 57240, Note_on_c, 12, 75, 84
14, 57344, Note_on_c, 12, 75, 0
14, 57360, Note_on_c, 12, 75, 84
14, 57464, Note_on_c, 12, 75, 0
14, 57480, Note_on_c, 12, 75, 84
14, 57584, Note_on_c, 12, 75, 0
14, 57600, Note_on_c, 12, 75, 84
14, 57839, Note_on_c, 12, 75, 0
14, 58560, Note_on_c, 12, 62, 84
14, 58560, Note_on_c, 12, 74, 84
14, 58799, Note_on_c, 12, 62, 0
14, 58799, Note_on_c, 12, 74, 0
14, 59520, Note_on_c, 12, 79, 84
14, 59520, Note_on_c, 12, 72, 84
14, 59520, Note_on_c, 12, 63, 84
14, 59759, Note_on_c, 12, 79, 0
14, 59759, Note_on_c, 12, 72, 0
14, 59759, Note_on_c, 12, 63, 0
14, 60480, Note_on_c, 12, 65, 84
14, 60480, Note_on_c, 12, 75, 84
14, 60719, Note_on_c, 12, 65, 0
14, 60719, Note_on_c, 12, 75, 0
14, 65520, Note_on_c, 12, 69, 44
14, 65639, Note_on_c, 12, 69, 0
14, 65640, Note_on_c, 12, 68, 44
14, 65759, Note_on_c, 12, 68, 0
14, 65760, Note_on_c, 12, 69, 44
14, 65879, Note_on_c, 12, 69, 0
14, 65880, Note_on_c, 12, 68, 44
14, 65999, Note_on_c, 12, 68, 0
14, 66000, Note_on_c, 12, 69, 44
14, 66119, Note_on_c, 12, 69, 0
14, 66120, Note_on_c, 12, 68, 44
14, 66224, Note_on_c, 12, 68, 0
14, 66240, Note_on_c, 12, 69, 44
14, 66479, Note_on_c, 12, 69, 0
14, 69360, Note_on_c, 12, 71, 44
14, 69479, Note_on_c, 12, 71, 0
14, 69480, Note_on_c, 12, 70, 44
14, 69599, Note_on_c, 12, 70, 0
14, 69600, Note_on_c, 12, 71, 44
14, 69719, Note_on_c, 12, 71, 0
14, 69720, Note_on_c, 12, 70, 44
14, 69839, Note_on_c, 12, 70, 0
14, 69840, Note_on_c, 12, 71, 44
14, 69959, Note_on_c, 12, 71, 0
14, 69960, Note_on_c, 12, 70, 44
14, 70064, Note_on_c, 12, 70, 0
14, 70080, Note_on_c, 12, 71, 44
14, 70319, Note_on_c, 12, 71, 0
14, 71280, Note_on_c, 12, 73, 44
14, 71399, Note_on_c, 12, 73, 0
14, 71400, Note_on_c, 12, 72, 44
14, 71519, Note_on_c, 12, 72, 0
14, 71520, Note_on_c, 12, 73, 44
14, 71639, Note_on_c, 12, 73, 0
14, 71640, Note_on_c, 12, 72, 44
14, 71759, Note_on_c, 12, 72, 0
14, 71760, Note_on_c, 12, 73, 44
14, 71879, Note_on_c, 12, 73, 0
14, 71880, Note_on_c, 12, 72, 44
14, 71984, Note_on_c, 12, 72, 0
14, 72000, Note_on_c, 12, 73, 44
14, 72239, Note_on_c, 12, 73, 0
14, 72960, Note_on_c, 12, 78, 44
14, 72960, Note_on_c, 12, 69, 44
14, 73064, Note_on_c, 12, 78, 0
14, 73064, Note_on_c, 12, 69, 0
14, 73080, Note_on_c, 12, 78, 45
14, 73080, Note_on_c, 12, 69, 45
14, 73184, Note_on_c, 12, 78, 0
14, 73184, Note_on_c, 12, 69, 0
14, 73200, Note_on_c, 12, 78, 46
14, 73200, Note_on_c, 12, 69, 46
14, 73304, Note_on_c, 12, 78, 0
14, 73304, Note_on_c, 12, 69, 0
14, 73320, Note_on_c, 12, 78, 47
14, 73320, Note_on_c, 12, 69, 47
14, 73424, Note_on_c, 12, 78, 0
14, 73424, Note_on_c, 12, 69, 0
14, 73440, Note_on_c, 12, 78, 49
14, 73440, Note_on_c, 12, 69, 49
14, 73544, Note_on_c, 12, 78, 0
14, 73544, Note_on_c, 12, 69, 0
14, 73560, Note_on_c, 12, 78, 50
14, 73560, Note_on_c, 12, 69, 50
14, 73664, Note_on_c, 12, 78, 0
14, 73664, Note_on_c, 12, 69, 0
14, 73680, Note_on_c, 12, 69, 51
14, 73680, Note_on_c, 12, 78, 51
14, 73784, Note_on_c, 12, 69, 0
14, 73784, Note_on_c, 12, 78, 0
14, 73800, Note_on_c, 12, 69, 52
14, 73800, Note_on_c, 12, 78, 52
14, 73904, Note_on_c, 12, 69, 0
14, 73904, Note_on_c, 12, 78, 0
14, 73920, Note_on_c, 12, 78, 54
14, 73920, Note_on_c, 12, 69, 54
14, 74024, Note_on_c, 12, 78, 0
14, 74024, Note_on_c, 12, 69, 0
14, 74040, Note_on_c, 12, 69, 55
14, 74040, Note_on_c, 12, 78, 55
14, 74144, Note_on_c, 12, 69, 0
14, 74144, Note_on_c, 12, 78, 0
14, 74160, Note_on_c, 12, 78, 56
14, 74160, Note_on_c, 12, 69, 56
14, 74264, Note_on_c, 12, 78, 0
14, 74264, Note_on_c, 12, 69, 0
14, 74280, Note_on_c, 12, 78, 57
14, 74280, Note_on_c, 12, 69, 57
14, 74384, Note_on_c, 12, 78, 0
14, 74384, Note_on_c, 12, 69, 0
14, 74400, Note_on_c, 12, 69, 59
14, 74400, Note_on_c, 12, 78, 59
14, 74504, Note_on_c, 12, 69, 0
14, 74504, Note_on_c, 12, 78, 0
14, 74520, Note_on_c, 12, 69, 60
14, 74520, Note_on_c, 12, 78, 60
14, 74624, Note_on_c, 12, 69, 0
14, 74624, Note_on_c, 12, 78, 0
14, 74640, Note_on_c, 12, 78, 61
14, 74640, Note_on_c, 12, 69, 61
14, 74744, Note_on_c, 12, 78, 0
14, 74744, Note_on_c, 12, 69, 0
14, 74760, Note_on_c, 12, 69, 62
14, 74760, Note_on_c, 12, 78, 62
14, 74864, Note_on_c, 12, 69, 0
14, 74864, Note_on_c, 12, 78, 0
14, 74880, Note_on_c, 12, 77, 64
14, 74880, Note_on_c, 12, 69, 64
14, 74984, Note_on_c, 12, 77, 0
14, 74984, Note_on_c, 12, 69, 0
14, 75000, Note_on_c, 12, 69, 65
14, 75000, Note_on_c, 12, 77, 65
14, 75104, Note_on_c, 12, 69, 0
14, 75104, Note_on_c, 12, 77, 0
14, 75120, Note_on_c, 12, 77, 66
14, 75120, Note_on_c, 12, 69, 66
14, 75224, Note_on_c, 12, 77, 0
14, 75224, Note_on_c, 12, 69, 0
14, 75240, Note_on_c, 12, 77, 67
14, 75240, Note_on_c, 12, 69, 67
14, 75344, Note_on_c, 12, 77, 0
14, 75344, Note_on_c, 12, 69, 0
14, 75360, Note_on_c, 12, 77, 69
14, 75360, Note_on_c, 12, 69, 69
14, 75464, Note_on_c, 12, 77, 0
14, 75464, Note_on_c, 12, 69, 0
14, 75480, Note_on_c, 12, 77, 70
14, 75480, Note_on_c, 12, 69, 70
14, 75584, Note_on_c, 12, 77, 0
14, 75584, Note_on_c, 12, 69, 0
14, 75600, Note_on_c, 12, 77, 71
14, 75600, Note_on_c, 12, 69, 71
14, 75704, Note_on_c, 12, 77, 0
14, 75704, Note_on_c, 12, 69, 0
14, 75720, Note_on_c, 12, 69, 72
14, 75720, Note_on_c, 12, 77, 72
14, 75824, Note_on_c, 12, 69, 0
14, 75824, Note_on_c, 12, 77, 0
14, 75840, Note_on_c, 12, 69, 74
14, 75840, Note_on_c, 12, 77, 74
14, 75944, Note_on_c, 12, 69, 0
14, 75944, Note_on_c, 12, 77, 0
14, 75960, Note_on_c, 12, 69, 75
14, 75960, Note_on_c, 12, 77, 75
14, 76064, Note_on_c, 12, 69, 0
14, 76064, Note_on_c, 12, 77, 0
14, 76080, Note_on_c, 12, 69, 76
14, 76080, Note_on_c, 12, 77, 76
14, 76184, Note_on_c, 12, 69, 0
14, 76184, Note_on_c, 12, 77, 0
14, 76200, Note_on_c, 12, 77, 77
14, 76200, Note_on_c, 12, 69, 77
14, 76304, Note_on_c, 12, 77, 0
14, 76304, Note_on_c, 12, 69, 0
14, 76320, Note_on_c, 12, 77, 79
14, 76320, Note_on_c, 12, 69, 79
14, 76424, Note_on_c, 12, 77, 0
14, 76424, Note_on_c, 12, 69, 0
14, 76440, Note_on_c, 12, 77, 80
14, 76440, Note_on_c, 12, 69, 80
14, 76544, Note_on_c, 12, 77, 0
14, 76544, Note_on_c, 12, 69, 0
14, 76560, Note_on_c, 12, 69, 81
14, 76560, Note_on_c, 12, 77, 81
14, 76664, Note_on_c, 12, 69, 0
14, 76664, Note_on_c, 12, 77, 0
14, 76680, Note_on_c, 12, 77, 82
14, 76680, Note_on_c, 12, 69, 82
14, 76784, Note_on_c, 12, 77, 0
14, 76784, Note_on_c, 12, 69, 0
14, 76800, Note_on_c, 12, 70, 84
14, 77759, Note_on_c, 12, 70, 0
14, 77760, Note_on_c, 12, 70, 84
14, 78704, Note_on_c, 12, 70, 0
14, 78720, Note_on_c, 12, 75, 92
14, 79649, Note_on_c, 12, 75, 0
14, 79680, Note_on_c, 12, 77, 92
14, 80369, Note_on_c, 12, 77, 0
14, 80400, Note_on_c, 12, 65, 84
14, 80447, Note_on_c, 12, 65, 0
14, 80448, Note_on_c, 12, 67, 84
14, 80495, Note_on_c, 12, 67, 0
14, 80496, Note_on_c, 12, 69, 84
14, 80543, Note_on_c, 12, 69, 0
14, 80544, Note_on_c, 12, 70, 84
14, 80591, Note_on_c, 12, 70, 0
14, 80592, Note_on_c, 12, 72, 84
14, 80631, Note_on_c, 12, 72, 0
14, 80640, Note_on_c, 12, 74, 92
14, 80744, Note_on_c, 12, 74, 0
14, 80760, Note_on_c, 12, 74, 84
14, 80864, Note_on_c, 12, 74, 0
14, 80880, Note_on_c, 12, 70, 84
14, 80984, Note_on_c, 12, 70, 0
14, 81000, Note_on_c, 12, 70, 84
14, 81104, Note_on_c, 12, 70, 0
14, 81120, Note_on_c, 12, 65, 84
14, 81224, Note_on_c, 12, 65, 0
14, 81240, Note_on_c, 12, 65, 84
14, 81344, Note_on_c, 12, 65, 0
14, 81360, Note_on_c, 12, 70, 84
14, 81464, Note_on_c, 12, 70, 0
14, 81480, Note_on_c, 12, 70, 84
14, 81584, Note_on_c, 12, 70, 0
14, 81600, Note_on_c, 12, 62, 84
14, 81704, Note_on_c, 12, 62, 0
14, 81720, Note_on_c, 12, 62, 84
14, 81824, Note_on_c, 12, 62, 0
14, 81840, Note_on_c, 12, 65, 84
14, 81944, Note_on_c, 12, 65, 0
14, 81960, Note_on_c, 12, 65, 84
14, 82064, Note_on_c, 12, 65, 0
14, 82080, Note_on_c, 12, 58, 84
14, 82184, Note_on_c, 12, 58, 0
14, 82200, Note_on_c, 12, 58, 84
14, 82304, Note_on_c, 12, 58, 0
14, 82320, Note_on_c, 12, 62, 84
14, 82424, Note_on_c, 12, 62, 0
14, 82440, Note_on_c, 12, 62, 84
14, 82544, Note_on_c, 12, 62, 0
14, 82560, Note_on_c, 12, 55, 84
14, 82664, Note_on_c, 12, 55, 0
14, 82680, Note_on_c, 12, 55, 84
14, 82784, Note_on_c, 12, 55, 0
14, 82800, Note_on_c, 12, 63, 84
14, 82904, Note_on_c, 12, 63, 0
14, 82920, Note_on_c, 12, 63, 84
14, 83024, Note_on_c, 12, 63, 0
14, 83040, Note_on_c, 12, 60, 84
14, 83144, Note_on_c, 12, 60, 0
14, 83160, Note_on_c, 12, 60, 84
14, 83264, Note_on_c, 12, 60, 0
14, 83280, Note_on_c, 12, 58, 84
14, 83384, Note_on_c, 12, 58, 0
14, 83400, Note_on_c, 12, 58, 84
14, 83504, Note_on_c, 12, 58, 0
14, 83520, Note_on_c, 12, 57, 84
14, 83624, Note_on_c, 12, 57, 0
14, 83640, Note_on_c, 12, 57, 84
14, 83744, Note_on_c, 12, 57, 0
14, 83760, Note_on_c, 12, 65, 84
14, 83864, Note_on_c, 12, 65, 0
14, 83880, Note_on_c, 12, 65, 84
14, 83984, Note_on_c, 12, 65, 0
14, 84000, Note_on_c, 12, 63, 84
14, 84104, Note_on_c, 12, 63, 0
14, 84120, Note_on_c, 12, 63, 84
14, 84224, Note_on_c, 12, 63, 0
14, 84240, Note_on_c, 12, 60, 84
14, 84344, Note_on_c, 12, 60, 0
14, 84360, Note_on_c, 12, 60, 84
14, 84464, Note_on_c, 12, 60, 0
14, 84480, Note_on_c, 12, 58, 84
14, 84584, Note_on_c, 12, 58, 0
14, 84600, Note_on_c, 12, 58, 84
14, 84704, Note_on_c, 12, 58, 0
14, 84720, Note_on_c, 12, 67, 84
14, 84824, Note_on_c, 12, 67, 0
14, 84840, Note_on_c, 12, 67, 84
14, 84944, Note_on_c, 12, 67, 0
14, 84960, Note_on_c, 12, 64, 84
14, 85064, Note_on_c, 12, 64, 0
14, 85080, Note_on_c, 12, 64, 84
14, 85184, Note_on_c, 12, 64, 0
14, 85200, Note_on_c, 12, 62, 84
14, 85304, Note_on_c, 12, 62, 0
14, 85320, Note_on_c, 12, 62, 84
14, 85424, Note_on_c, 12, 62, 0
14, 85440, Note_on_c, 12, 61, 84
14, 85544, Note_on_c, 12, 61, 0
14, 85560, Note_on_c, 12, 61, 84
14, 85664, Note_on_c, 12, 61, 0
14, 85680, Note_on_c, 12, 69, 84
14, 85784, Note_on_c, 12, 69, 0
14, 85800, Note_on_c, 12, 69, 84
14, 85904, Note_on_c, 12, 69, 0
14, 85920, Note_on_c, 12, 67, 84
14, 86024, Note_on_c, 12, 67, 0
14, 86040, Note_on_c, 12, 67, 84
14, 86144, Note_on_c, 12, 67, 0
14, 86160, Note_on_c, 12, 64, 84
14, 86264, Note_on_c, 12, 64, 0
14, 86280, Note_on_c, 12, 64, 84
14, 86384, Note_on_c, 12, 64, 0
14, 86400, Note_on_c, 12, 62, 84
14, 86504, Note_on_c, 12, 62, 0
14, 86520, Note_on_c, 12, 62, 84
14, 86624, Note_on_c, 12, 62, 0
14, 86640, Note_on_c, 12, 71, 84
14, 86744, Note_on_c, 12, 71, 0
14, 86760, Note_on_c, 12, 71, 84
14, 86864, Note_on_c, 12, 71, 0
14, 86880, Note_on_c, 12, 68, 84
14, 86984, Note_on_c, 12, 68, 0
14, 87000, Note_on_c, 12, 68, 84
14, 87104, Note_on_c, 12, 68, 0
14, 87120, Note_on_c, 12, 65, 84
14, 87224, Note_on_c, 12, 65, 0
14, 87240, Note_on_c, 12, 65, 84
14, 87344, Note_on_c, 12, 65, 0
14, 87360, Note_on_c, 12, 64, 84
14, 87464, Note_on_c, 12, 64, 0
14, 87480, Note_on_c, 12, 64, 84
14, 87584, Note_on_c, 12, 64, 0
14, 87600, Note_on_c, 12, 72, 84
14, 87704, Note_on_c, 12, 72, 0
14, 87720, Note_on_c, 12, 72, 84
14, 87824, Note_on_c, 12, 72, 0
14, 87840, Note_on_c, 12, 70, 84
14, 87944, Note_on_c, 12, 70, 0
14, 87960, Note_on_c, 12, 70, 84
14, 88064, Note_on_c, 12, 70, 0
14, 88080, Note_on_c, 12, 67, 84
14, 88184, Note_on_c, 12, 67, 0
14, 88200, Note_on_c, 12, 67, 84
14, 88304, Note_on_c, 12, 67, 0
14, 88320, Note_on_c, 12, 64, 84
14, 88424, Note_on_c, 12, 64, 0
14, 88440, Note_on_c, 12, 64, 84
14, 88544, Note_on_c, 12, 64, 0
14, 88560, Note_on_c, 12, 72, 84
14, 88664, Note_on_c, 12, 72, 0
14, 88680, Note_on_c, 12, 72, 84
14, 88784, Note_on_c, 12, 72, 0
14, 88800, Note_on_c, 12, 70, 84
14, 88904, Note_on_c, 12, 70, 0
14, 88920, Note_on_c, 12, 70, 84
14, 89024, Note_on_c, 12, 70, 0
14, 89040, Note_on_c, 12, 67, 84
14, 89144, Note_on_c, 12, 67, 0
14, 89160, Note_on_c, 12, 67, 84
14, 89264, Note_on_c, 12, 67, 0
14, 89280, Note_on_c, 12, 68, 84
14, 89384, Note_on_c, 12, 68, 0
14, 89400, Note_on_c, 12, 68, 84
14, 89504, Note_on_c, 12, 68, 0
14, 89520, Note_on_c, 12, 65, 84
14, 89624, Note_on_c, 12, 65, 0
14, 89640, Note_on_c, 12, 65, 84
14, 89744, Note_on_c, 12, 65, 0
14, 89760, Note_on_c, 12, 63, 84
14, 89864, Note_on_c, 12, 63, 0
14, 89880, Note_on_c, 12, 63, 84
14, 89984, Note_on_c, 12, 63, 0
14, 90000, Note_on_c, 12, 61, 84
14, 90104, Note_on_c, 12, 61, 0
14, 90120, Note_on_c, 12, 61, 84
14, 90224, Note_on_c, 12, 61, 0
14, 90240, Note_on_c, 12, 60, 84
14, 90479, Note_on_c, 12, 60, 0
14, 93360, Note_on_c, 12, 71, 92
14, 93839, Note_on_c, 12, 71, 0
14, 93840, Note_on_c, 12, 72, 84
14, 94064, Note_on_c, 12, 72, 0
14, 94080, Note_on_c, 12, 72, 84
14, 94259, Note_on_c, 12, 72, 0
14, 94320, Note_on_c, 12, 67, 84
14, 94784, Note_on_c, 12, 67, 0
14, 94800, Note_on_c, 12, 68, 84
14, 95264, Note_on_c, 12, 68, 0
14, 95280, Note_on_c, 12, 70, 84
14, 95744, Note_on_c, 12, 70, 0
14, 95760, Note_on_c, 12, 65, 84
14, 96224, Note_on_c, 12, 65, 0
14, 96240, Note_on_c, 12, 67, 84
14, 96704, Note_on_c, 12, 67, 0
14, 96720, Note_on_c, 12, 68, 84
14, 97184, Note_on_c, 12, 68, 0
14, 97200, Note_on_c, 12, 71, 92
14, 97679, Note_on_c, 12, 71, 0
14, 97680, Note_on_c, 12, 72, 84
14, 97904, Note_on_c, 12, 72, 0
14, 97920, Note_on_c, 12, 72, 92
14, 97980, Control_c, 12, 11, 112
14, 98138, Control_c, 12, 11, 110
14, 98295, Control_c, 12, 11, 108
14, 98453, Control_c, 12, 11, 106
14, 98610, Control_c, 12, 11, 104
14, 98768, Control_c, 12, 11, 102
14, 98879, Note_on_c, 12, 72, 0
14, 98880, Note_on_c, 12, 72, 84
14, 98925, Control_c, 12, 11, 100
14, 99083, Control_c, 12, 11, 98
14, 99240, Control_c, 12, 11, 96
14, 99398, Control_c, 12, 11, 94
14, 99555, Control_c, 12, 11, 92
14, 99713, Control_c, 12, 11, 90
14, 99839, Note_on_c, 12, 72, 0
14, 99840, Note_on_c, 12, 72, 84
14, 99870, Control_c, 12, 11, 88
14, 100028, Control_c, 12, 11, 86
14, 100185, Control_c, 12, 11, 84
14, 100304, Note_on_c, 12, 72, 0
14, 100320, Note_on_c, 12, 60, 84
14, 100343, Control_c, 12, 11, 82
14, 100500, Control_c, 12, 11, 80
14, 100658, Control_c, 12, 11, 78
14, 100815, Control_c, 12, 11, 76
14, 100973, Control_c, 12, 11, 74
14, 101130, Control_c, 12, 11, 72
14, 101279, Note_on_c, 12, 60, 0
14, 101280, Note_on_c, 12, 58, 84
14, 101288, Control_c, 12, 11, 70
14, 101445, Control_c, 12, 11, 68
14, 101519, Note_on_c, 12, 58, 0
14, 101520, Note_on_c, 12, 55, 84
14, 101603, Control_c, 12, 11, 64
14, 101744, Note_on_c, 12, 55, 0
14, 101752, Control_c, 12, 11, 80
14, 101760, Note_on_c, 12, 57, 76
14, 103679, Note_on_c, 12, 57, 0
14, 103680, Note_on_c, 12, 57, 76
14, 105584, Note_on_c, 12, 57, 0
14, 105592, Control_c, 12, 11, 96
14, 105600, Note_on_c, 12, 62, 68
14, 107504, Note_on_c, 12, 62, 0
14, 107512, Control_c, 12, 11, 112
14, 107520, Note_on_c, 12, 61, 60
14, 107699, Note_on_c, 12, 61, 0
14, 107760, Note_on_c, 12, 57, 60
14, 107939, Note_on_c, 12, 57, 0
14, 108000, Note_on_c, 12, 61, 60
14, 108179, Note_on_c, 12, 61, 0
14, 108480, Control_c, 12, 11, 127
14, 108720, Note_on_c, 12, 57, 52
14, 108899, Note_on_c, 12, 57, 0
14, 108960, Note_on_c, 12, 62, 52
14, 109139, Note_on_c, 12, 62, 0
14, 109710, Note_on_c, 12, 57, 52
14, 109889, Note_on_c, 12, 57, 0
14, 109920, Note_on_c, 12, 64, 52
14, 110099, Note_on_c, 12, 64, 0
14, 110640, Note_on_c, 12, 57, 52
14, 110819, Note_on_c, 12, 57, 0
14, 110880, Note_on_c, 12, 62, 52
14, 111059, Note_on_c, 12, 62, 0
14, 111360, Note_on_c, 12, 69, 52
14, 111599, Note_on_c, 12, 69, 0
14, 111600, Note_on_c, 12, 68, 52
14, 111839, Note_on_c, 12, 68, 0
14, 111840, Note_on_c, 12, 69, 52
14, 112079, Note_on_c, 12, 69, 0
14, 112080, Note_on_c, 12, 67, 52
14, 112319, Note_on_c, 12, 67, 0
14, 112320, Note_on_c, 12, 65, 52
14, 112559, Note_on_c, 12, 65, 0
14, 112560, Note_on_c, 12, 64, 52
14, 112799, Note_on_c, 12, 64, 0
14, 112800, Note_on_c, 12, 65, 52
14, 113039, Note_on_c, 12, 65, 0
14, 113040, Note_on_c, 12, 62, 52
14, 113279, Note_on_c, 12, 62, 0
14, 113280, Note_on_c, 12, 61, 52
14, 113519, Note_on_c, 12, 61, 0
14, 113520, Note_on_c, 12, 59, 52
14, 113759, Note_on_c, 12, 59, 0
14, 113760, Note_on_c, 12, 61, 52
14, 113999, Note_on_c, 12, 61, 0
14, 114000, Note_on_c, 12, 64, 52
14, 114191, Note_on_c, 12, 64, 0
14, 114200, Note_on_c, 12, 64, 52
14, 114239, Note_on_c, 12, 64, 0
14, 114240, Note_on_c, 12, 62, 52
14, 114479, Note_on_c, 12, 62, 0
14, 114480, Note_on_c, 12, 61, 52
14, 114719, Note_on_c, 12, 61, 0
14, 114720, Note_on_c, 12, 62, 52
14, 114959, Note_on_c, 12, 62, 0
14, 114960, Note_on_c, 12, 58, 52
14, 115184, Note_on_c, 12, 58, 0
14, 115198, Control_c, 12, 11, 64
14, 115200, Note_on_c, 12, 57, 76
14, 115559, Note_on_c, 12, 57, 0
14, 115680, Note_on_c, 12, 58, 76
14, 116039, Note_on_c, 12, 58, 0
14, 116160, Note_on_c, 12, 55, 76
14, 116519, Note_on_c, 12, 55, 0
14, 116640, Note_on_c, 12, 59, 76
14, 116999, Note_on_c, 12, 59, 0
14, 117120, Note_on_c, 12, 60, 76
14, 117479, Note_on_c, 12, 60, 0
14, 117600, Note_on_c, 12, 57, 76
14, 117959, Note_on_c, 12, 57, 0
14, 118080, Control_c, 12, 11, 64
14, 118080, Note_on_c, 12, 60, 76
14, 118293, Control_c, 12, 11, 66
14, 118439, Note_on_c, 12, 60, 0
14, 118507, Control_c, 12, 11, 68
14, 118560, Note_on_c, 12, 62, 76
14, 118720, Control_c, 12, 11, 69
14, 118919, Note_on_c, 12, 62, 0
14, 118933, Control_c, 12, 11, 71
14, 119040, Note_on_c, 12, 58, 76
14, 119147, Control_c, 12, 11, 73
14, 119360, Control_c, 12, 11, 75
14, 119399, Note_on_c, 12, 58, 0
14, 119520, Note_on_c, 12, 62, 76
14, 119573, Control_c, 12, 11, 76
14, 119787, Control_c, 12, 11, 78
14, 119879, Note_on_c, 12, 62, 0
14, 120000, Control_c, 12, 11, 80
14, 120000, Note_on_c, 12, 64, 76
14, 120213, Control_c, 12, 11, 82
14, 120359, Note_on_c, 12, 64, 0
14, 120427, Control_c, 12, 11, 83
14, 120480, Note_on_c, 12, 60, 76
14, 120640, Control_c, 12, 11, 85
14, 120839, Note_on_c, 12, 60, 0
14, 120853, Control_c, 12, 11, 87
14, 120960, Note_on_c, 12, 64, 76
14, 121067, Control_c, 12, 11, 89
14, 121280, Control_c, 12, 11, 90
14, 121319, Note_on_c, 12, 64, 0
14, 121440, Note_on_c, 12, 65, 76
14, 121493, Control_c, 12, 11, 92
14, 121707, Control_c, 12, 11, 94
14, 121799, Note_on_c, 12, 65, 0
14, 121920, Control_c, 12, 11, 96
14, 121920, Note_on_c, 12, 62, 76
14, 122133, Control_c, 12, 11, 97
14, 122279, Note_on_c, 12, 62, 0
14, 122347, Control_c, 12, 11, 99
14, 122400, Note_on_c, 12, 66, 76
14, 122560, Control_c, 12, 11, 101
14, 122759, Note_on_c, 12, 66, 0
14, 122773, Control_c, 12, 11, 103
14, 122880, Note_on_c, 12, 67, 76
14, 122987, Control_c, 12, 11, 104
14, 123200, Control_c, 12, 11, 106
14, 123239, Note_on_c, 12, 67, 0
14, 123360, Note_on_c, 12, 64, 76
14, 123413, Control_c, 12, 11, 108
14, 123627, Control_c, 12, 11, 110
14, 123719, Note_on_c, 12, 64, 0
14, 123840, Note_on_c, 12, 67, 76
14, 123840, Control_c, 12, 11, 111
14, 124053, Control_c, 12, 11, 113
14, 124199, Note_on_c, 12, 67, 0
14, 124267, Control_c, 12, 11, 115
14, 124320, Note_on_c, 12, 69, 76
14, 124480, Control_c, 12, 11, 117
14, 124679, Note_on_c, 12, 69, 0
14, 124693, Control_c, 12, 11, 118
14, 124800, Note_on_c, 12, 70, 76
14, 124907, Control_c, 12, 11, 120
14, 125120, Control_c, 12, 11, 122
14, 125159, Note_on_c, 12, 70, 0
14, 125280, Note_on_c, 12, 71, 76
14, 125333, Control_c, 12, 11, 124
14, 125547, Control_c, 12, 11, 127
14, 125639, Note_on_c, 12, 71, 0
14, 125760, Note_on_c, 12, 72, 76
14, 126119, Note_on_c, 12, 72, 0
14, 126240, Note_on_c, 12, 76, 76
14, 126240, Note_on_c, 12, 72, 76
14, 126599, Note_on_c, 12, 76, 0
14, 126599, Note_on_c, 12, 72, 0
14, 126720, Note_on_c, 12, 76, 76
14, 126720, Note_on_c, 12, 72, 76
14, 127079, Note_on_c, 12, 76, 0
14, 127079, Note_on_c, 12, 72, 0
14, 127200, Note_on_c, 12, 72, 76
14, 127200, Note_on_c, 12, 76, 76
14, 127559, Note_on_c, 12, 72, 0
14, 127559, Note_on_c, 12, 76, 0
14, 127680, Note_on_c, 12, 76, 76
14, 127680, Note_on_c, 12, 72, 76
14, 128039, Note_on_c, 12, 76, 0
14, 128039, Note_on_c, 12, 72, 0
14, 128160, Note_on_c, 12, 76, 76
14, 128160, Note_on_c, 12, 72, 76
14, 128519, Note_on_c, 12, 76, 0
14, 128519, Note_on_c, 12, 72, 0
14, 128640, Note_on_c, 12, 72, 76
14, 128640, Note_on_c, 12, 77, 76
14, 129344, Note_on_c, 12, 72, 0
14, 129344, Note_on_c, 12, 77, 0
14, 129360, Note_on_c, 12, 69, 76
14, 129584, Note_on_c, 12, 69, 0
14, 129600, Note_on_c, 12, 74, 76
14, 130304, Note_on_c, 12, 74, 0
14, 130320, Note_on_c, 12, 70, 76
14, 130544, Note_on_c, 12, 70, 0
14, 130560, Note_on_c, 12, 69, 76
14, 131264, Note_on_c, 12, 69, 0
14, 131280, Note_on_c, 12, 69, 76
14, 131504, Note_on_c, 12, 69, 0
14, 131520, Note_on_c, 12, 67, 76
14, 131744, Note_on_c, 12, 67, 0
14, 131760, Note_on_c, 12, 67, 76
14, 131984, Note_on_c, 12, 67, 0
14, 132000, Note_on_c, 12, 67, 76
14, 132059, Note_on_c, 12, 67, 0
14, 132060, Note_on_c, 12, 69, 76
14, 132119, Note_on_c, 12, 69, 0
14, 132120, Note_on_c, 12, 67, 76
14, 132179, Note_on_c, 12, 67, 0
14, 132180, Note_on_c, 12, 69, 76
14, 132239, Note_on_c, 12, 69, 0
14, 132240, Note_on_c, 12, 67, 76
14, 132299, Note_on_c, 12, 67, 0
14, 132300, Note_on_c, 12, 69, 76
14, 132359, Note_on_c, 12, 69, 0
14, 132360, Note_on_c, 12, 65, 76
14, 132419, Note_on_c, 12, 65, 0
14, 132420, Note_on_c, 12, 67, 76
14, 132471, Note_on_c, 12, 67, 0
14, 132480, Note_on_c, 12, 72, 76
14, 132719, Note_on_c, 12, 72, 0
14, 132720, Note_on_c, 12, 69, 76
14, 132944, Note_on_c, 12, 69, 0
14, 132960, Note_on_c, 12, 74, 76
14, 133199, Note_on_c, 12, 74, 0
14, 133200, Note_on_c, 12, 70, 76
14, 133424, Note_on_c, 12, 70, 0
14, 133440, Note_on_c, 12, 69, 76
14, 133664, Note_on_c, 12, 69, 0
14, 133680, Note_on_c, 12, 69, 76
14, 133904, Note_on_c, 12, 69, 0
14, 133920, Note_on_c, 12, 67, 76
14, 133979, Note_on_c, 12, 67, 0
14, 133980, Note_on_c, 12, 69, 76
14, 134039, Note_on_c, 12, 69, 0
14, 134040, Note_on_c, 12, 67, 76
14, 134099, Note_on_c, 12, 67, 0
14, 134100, Note_on_c, 12, 69, 76
14, 134159, Note_on_c, 12, 69, 0
14, 134160, Note_on_c, 12, 67, 76
14, 134219, Note_on_c, 12, 67, 0
14, 134220, Note_on_c, 12, 69, 76
14, 134279, Note_on_c, 12, 69, 0
14, 134280, Note_on_c, 12, 65, 76
14, 134339, Note_on_c, 12, 65, 0
14, 134340, Note_on_c, 12, 67, 76
14, 134391, Note_on_c, 12, 67, 0
14, 134400, Note_on_c, 12, 65, 52
14, 134639, Note_on_c, 12, 65, 0
14, 135360, Note_on_c, 12, 60, 52
14, 136079, Note_on_c, 12, 60, 0
14, 136080, Note_on_c, 12, 64, 52
14, 136319, Note_on_c, 12, 64, 0
14, 136320, Note_on_c, 12, 65, 52
14, 136559, Note_on_c, 12, 65, 0
14, 137280, Note_on_c, 12, 60, 52
14, 137999, Note_on_c, 12, 60, 0
14, 138000, Note_on_c, 12, 62, 52
14, 138239, Note_on_c, 12, 62, 0
14, 138240, Note_on_c, 12, 64, 52
14, 138479, Note_on_c, 12, 64, 0
14, 139200, Note_on_c, 12, 67, 52
14, 139919, Note_on_c, 12, 67, 0
14, 139920, Note_on_c, 12, 65, 52
14, 140159, Note_on_c, 12, 65, 0
14, 140160, Note_on_c, 12, 64, 52
14, 140399, Note_on_c, 12, 64, 0
14, 141120, Note_on_c, 12, 64, 52
14, 141824, Note_on_c, 12, 64, 0
14, 141840, Note_on_c, 12, 70, 76
14, 141944, Note_on_c, 12, 70, 0
14, 141960, Note_on_c, 12, 70, 76
14, 142064, Note_on_c, 12, 70, 0
14, 142080, Note_on_c, 12, 69, 76
14, 142184, Note_on_c, 12, 69, 0
14, 142200, Note_on_c, 12, 69, 76
14, 142304, Note_on_c, 12, 69, 0
14, 142320, Note_on_c, 12, 70, 76
14, 142424, Note_on_c, 12, 70, 0
14, 142440, Note_on_c, 12, 70, 76
14, 142544, Note_on_c, 12, 70, 0
14, 142560, Note_on_c, 12, 72, 76
14, 142664, Note_on_c, 12, 72, 0
14, 142680, Note_on_c, 12, 72, 76
14, 142784, Note_on_c, 12, 72, 0
14, 142800, Note_on_c, 12, 60, 76
14, 142904, Note_on_c, 12, 60, 0
14, 142920, Note_on_c, 12, 60, 76
14, 143024, Note_on_c, 12, 60, 0
14, 143040, Note_on_c, 12, 65, 76
14, 143744, Note_on_c, 12, 65, 0
14, 143760, Note_on_c, 12, 67, 76
14, 143864, Note_on_c, 12, 67, 0
14, 143880, Note_on_c, 12, 67, 76
14, 143984, Note_on_c, 12, 67, 0
14, 144000, Note_on_c, 12, 69, 76
14, 144104, Note_on_c, 12, 69, 0
14, 144120, Note_on_c, 12, 69, 76
14, 144224, Note_on_c, 12, 69, 0
14, 144240, Note_on_c, 12, 65, 76
14, 144344, Note_on_c, 12, 65, 0
14, 144360, Note_on_c, 12, 65, 76
14, 144464, Note_on_c, 12, 65, 0
14, 144480, Note_on_c, 12, 69, 76
14, 144584, Note_on_c, 12, 69, 0
14, 144600, Note_on_c, 12, 69, 76
14, 144704, Note_on_c, 12, 69, 0
14, 144720, Note_on_c, 12, 70, 76
14, 144824, Note_on_c, 12, 70, 0
14, 144840, Note_on_c, 12, 70, 76
14, 144944, Note_on_c, 12, 70, 0
14, 144960, Note_on_c, 12, 72, 76
14, 145664, Note_on_c, 12, 72, 0
14, 145680, Note_on_c, 12, 74, 76
14, 145784, Note_on_c, 12, 74, 0
14, 145800, Note_on_c, 12, 74, 76
14, 145904, Note_on_c, 12, 74, 0
14, 145920, Note_on_c, 12, 76, 76
14, 146024, Note_on_c, 12, 76, 0
14, 146040, Note_on_c, 12, 76, 76
14, 146144, Note_on_c, 12, 76, 0
14, 146160, Note_on_c, 12, 77, 76
14, 146264, Note_on_c, 12, 77, 0
14, 146280, Note_on_c, 12, 77, 76
14, 146384, Note_on_c, 12, 77, 0
14, 146400, Note_on_c, 12, 79, 76
14, 146504, Note_on_c, 12, 79, 0
14, 146520, Note_on_c, 12, 79, 76
14, 146624, Note_on_c, 12, 79, 0
14, 146640, Note_on_c, 12, 77, 76
14, 146744, Note_on_c, 12, 77, 0
14, 146760, Note_on_c, 12, 77, 76
14, 146864, Note_on_c, 12, 77, 0
14, 146880, Note_on_c, 12, 76, 76
14, 147584, Note_on_c, 12, 76, 0
14, 147600, Note_on_c, 12, 74, 76
14, 147704, Note_on_c, 12, 74, 0
14, 147720, Note_on_c, 12, 74, 76
14, 147824, Note_on_c, 12, 74, 0
14, 147840, Note_on_c, 12, 72, 76
14, 147944, Note_on_c, 12, 72, 0
14, 147960, Note_on_c, 12, 72, 76
14, 148064, Note_on_c, 12, 72, 0
14, 148080, Note_on_c, 12, 74, 76
14, 148184, Note_on_c, 12, 74, 0
14, 148200, Note_on_c, 12, 74, 76
14, 148304, Note_on_c, 12, 74, 0
14, 148320, Note_on_c, 12, 70, 76
14, 148424, Note_on_c, 12, 70, 0
14, 148440, Note_on_c, 12, 70, 76
14, 148544, Note_on_c, 12, 70, 0
14, 148560, Note_on_c, 12, 67, 76
14, 148664, Note_on_c, 12, 67, 0
14, 148680, Note_on_c, 12, 67, 76
14, 148784, Note_on_c, 12, 67, 0
14, 148800, Note_on_c, 12, 64, 76
14, 149759, Note_on_c, 12, 64, 0
14, 151680, Note_on_c, 12, 82, 44
14, 151784, Note_on_c, 12, 82, 0
14, 151800, Note_on_c, 12, 82, 44
14, 151904, Note_on_c, 12, 82, 0
14, 151920, Note_on_c, 12, 82, 44
14, 152024, Note_on_c, 12, 82, 0
14, 152040, Note_on_c, 12, 82, 44
14, 152144, Note_on_c, 12, 82, 0
14, 152160, Note_on_c, 12, 82, 44
14, 152264, Note_on_c, 12, 82, 0
14, 152280, Note_on_c, 12, 82, 44
14, 152384, Note_on_c, 12, 82, 0
14, 152400, Note_on_c, 12, 82, 44
14, 152504, Note_on_c, 12, 82, 0
14, 152520, Note_on_c, 12, 82, 44
14, 152624, Note_on_c, 12, 82, 0
14, 152640, Note_on_c, 12, 82, 44
14, 152744, Note_on_c, 12, 82, 0
14, 152760, Note_on_c, 12, 82, 44
14, 152864, Note_on_c, 12, 82, 0
14, 152880, Note_on_c, 12, 82, 44
14, 152984, Note_on_c, 12, 82, 0
14, 153000, Note_on_c, 12, 82, 44
14, 153104, Note_on_c, 12, 82, 0
14, 153120, Note_on_c, 12, 82, 44
14, 153224, Note_on_c, 12, 82, 0
14, 153240, Note_on_c, 12, 82, 44
14, 153344, Note_on_c, 12, 82, 0
14, 153360, Note_on_c, 12, 82, 44
14, 153464, Note_on_c, 12, 82, 0
14, 153480, Note_on_c, 12, 82, 44
14, 153584, Note_on_c, 12, 82, 0
14, 153600, Note_on_c, 12, 81, 84
14, 153600, Note_on_c, 12, 69, 84
14, 153839, Note_on_c, 12, 81, 0
14, 153839, Note_on_c, 12, 69, 0
14, 154320, Note_on_c, 12, 65, 84
14, 154320, Note_on_c, 12, 74, 84
14, 154544, Note_on_c, 12, 65, 0
14, 154544, Note_on_c, 12, 74, 0
14, 154560, Note_on_c, 12, 74, 84
14, 154560, Note_on_c, 12, 65, 84
14, 154799, Note_on_c, 12, 74, 0
14, 154799, Note_on_c, 12, 65, 0
14, 155040, Note_on_c, 12, 72, 84
14, 155040, Note_on_c, 12, 64, 84
14, 155279, Note_on_c, 12, 72, 0
14, 155279, Note_on_c, 12, 64, 0
14, 155520, Note_on_c, 12, 82, 44
14, 155624, Note_on_c, 12, 82, 0
14, 155640, Note_on_c, 12, 82, 44
14, 155744, Note_on_c, 12, 82, 0
14, 155760, Note_on_c, 12, 82, 44
14, 155864, Note_on_c, 12, 82, 0
14, 155880, Note_on_c, 12, 82, 44
14, 155984, Note_on_c, 12, 82, 0
14, 156000, Note_on_c, 12, 82, 44
14, 156104, Note_on_c, 12, 82, 0
14, 156120, Note_on_c, 12, 82, 44
14, 156224, Note_on_c, 12, 82, 0
14, 156240, Note_on_c, 12, 82, 44
14, 156344, Note_on_c, 12, 82, 0
14, 156360, Note_on_c, 12, 82, 44
14, 156464, Note_on_c, 12, 82, 0
14, 156480, Note_on_c, 12, 82, 44
14, 156584, Note_on_c, 12, 82, 0
14, 156600, Note_on_c, 12, 82, 44
14, 156704, Note_on_c, 12, 82, 0
14, 156720, Note_on_c, 12, 82, 44
14, 156824, Note_on_c, 12, 82, 0
14, 156840, Note_on_c, 12, 82, 44
14, 156944, Note_on_c, 12, 82, 0
14, 156960, Note_on_c, 12, 82, 44
14, 157064, Note_on_c, 12, 82, 0
14, 157080, Note_on_c, 12, 82, 44
14, 157184, Note_on_c, 12, 82, 0
14, 157200, Note_on_c, 12, 82, 44
14, 157304, Note_on_c, 12, 82, 0
14, 157320, Note_on_c, 12, 82, 44
14, 157424, Note_on_c, 12, 82, 0
14, 157440, Note_on_c, 12, 81, 84
14, 157440, Note_on_c, 12, 69, 84
14, 157679, Note_on_c, 12, 81, 0
14, 157679, Note_on_c, 12, 69, 0
14, 158160, Note_on_c, 12, 74, 84
14, 158160, Note_on_c, 12, 65, 84
14, 158384, Note_on_c, 12, 74, 0
14, 158384, Note_on_c, 12, 65, 0
14, 158400, Note_on_c, 12, 74, 84
14, 158400, Note_on_c, 12, 65, 84
14, 158639, Note_on_c, 12, 74, 0
14, 158639, Note_on_c, 12, 65, 0
14, 158880, Note_on_c, 12, 64, 84
14, 158880, Note_on_c, 12, 72, 84
14, 159119, Note_on_c, 12, 64, 0
14, 159119, Note_on_c, 12, 72, 0
14, 159360, Note_on_c, 12, 80, 44
14, 159464, Note_on_c, 12, 80, 0
14, 159480, Note_on_c, 12, 80, 46
14, 159584, Note_on_c, 12, 80, 0
14, 159600, Note_on_c, 12, 80, 48
14, 159704, Note_on_c, 12, 80, 0
14, 159720, Note_on_c, 12, 80, 50
14, 159824, Note_on_c, 12, 80, 0
14, 159840, Note_on_c, 12, 80, 52
14, 159944, Note_on_c, 12, 80, 0
14, 159960, Note_on_c, 12, 80, 54
14, 160064, Note_on_c, 12, 80, 0
14, 160080, Note_on_c, 12, 80, 56
14, 160184, Note_on_c, 12, 80, 0
14, 160200, Note_on_c, 12, 80, 58
14, 160304, Note_on_c, 12, 80, 0
14, 160320, Note_on_c, 12, 80, 60
14, 160424, Note_on_c, 12, 80, 0
14, 160440, Note_on_c, 12, 80, 62
14, 160544, Note_on_c, 12, 80, 0
14, 160560, Note_on_c, 12, 80, 64
14, 160664, Note_on_c, 12, 80, 0
14, 160680, Note_on_c, 12, 80, 66
14, 160784, Note_on_c, 12, 80, 0
14, 160800, Note_on_c, 12, 80, 68
14, 160904, Note_on_c, 12, 80, 0
14, 160920, Note_on_c, 12, 80, 70
14, 161024, Note_on_c, 12, 80, 0
14, 161040, Note_on_c, 12, 80, 72
14, 161144, Note_on_c, 12, 80, 0
14, 161160, Note_on_c, 12, 80, 74
14, 161264, Note_on_c, 12, 80, 0
14, 161280, Note_on_c, 12, 80, 76
14, 161384, Note_on_c, 12, 80, 0
14, 161400, Note_on_c, 12, 80, 76
14, 161504, Note_on_c, 12, 80, 0
14, 161520, Note_on_c, 12, 80, 76
14, 161624, Note_on_c, 12, 80, 0
14, 161640, Note_on_c, 12, 80, 76
14, 161744, Note_on_c, 12, 80, 0
14, 161760, Note_on_c, 12, 80, 76
14, 161864, Note_on_c, 12, 80, 0
14, 161880, Note_on_c, 12, 80, 76
14, 161984, Note_on_c, 12, 80, 0
14, 162000, Note_on_c, 12, 80, 76
14, 162104, Note_on_c, 12, 80, 0
14, 162120, Note_on_c, 12, 80, 76
14, 162224, Note_on_c, 12, 80, 0
14, 162240, Note_on_c, 12, 81, 76
14, 162240, Note_on_c, 12, 72, 76
14, 162344, Note_on_c, 12, 81, 0
14, 162344, Note_on_c, 12, 72, 0
14, 162360, Note_on_c, 12, 72, 76
14, 162360, Note_on_c, 12, 81, 76
14, 162464, Note_on_c, 12, 72, 0
14, 162464, Note_on_c, 12, 81, 0
14, 162480, Note_on_c, 12, 72, 76
14, 162480, Note_on_c, 12, 81, 76
14, 162584, Note_on_c, 12, 72, 0
14, 162584, Note_on_c, 12, 81, 0
14, 162600, Note_on_c, 12, 81, 76
14, 162600, Note_on_c, 12, 72, 76
14, 162704, Note_on_c, 12, 81, 0
14, 162704, Note_on_c, 12, 72, 0
14, 162720, Note_on_c, 12, 72, 76
14, 162720, Note_on_c, 12, 81, 76
14, 162824, Note_on_c, 12, 72, 0
14, 162824, Note_on_c, 12, 81, 0
14, 162840, Note_on_c, 12, 72, 76
14, 162840, Note_on_c, 12, 81, 76
14, 162944, Note_on_c, 12, 72, 0
14, 162944, Note_on_c, 12, 81, 0
14, 162960, Note_on_c, 12, 72, 76
14, 162960, Note_on_c, 12, 81, 76
14, 163064, Note_on_c, 12, 72, 0
14, 163064, Note_on_c, 12, 81, 0
14, 163080, Note_on_c, 12, 81, 76
14, 163080, Note_on_c, 12, 72, 76
14, 163184, Note_on_c, 12, 81, 0
14, 163184, Note_on_c, 12, 72, 0
14, 163200, Note_on_c, 12, 71, 76
14, 163200, Note_on_c, 12, 80, 76
14, 163304, Note_on_c, 12, 71, 0
14, 163304, Note_on_c, 12, 80, 0
14, 163320, Note_on_c, 12, 80, 76
14, 163320, Note_on_c, 12, 71, 76
14, 163424, Note_on_c, 12, 80, 0
14, 163424, Note_on_c, 12, 71, 0
14, 163440, Note_on_c, 12, 80, 76
14, 163440, Note_on_c, 12, 71, 76
14, 163544, Note_on_c, 12, 80, 0
14, 163544, Note_on_c, 12, 71, 0
14, 163560, Note_on_c, 12, 80, 76
14, 163560, Note_on_c, 12, 71, 76
14, 163664, Note_on_c, 12, 80, 0
14, 163664, Note_on_c, 12, 71, 0
14, 163680, Note_on_c, 12, 80, 76
14, 163680, Note_on_c, 12, 71, 76
14, 163784, Note_on_c, 12, 80, 0
14, 163784, Note_on_c, 12, 71, 0
14, 163800, Note_on_c, 12, 80, 76
14, 163800, Note_on_c, 12, 71, 76
14, 163904, Note_on_c, 12, 80, 0
14, 163904, Note_on_c, 12, 71, 0
14, 163920, Note_on_c, 12, 80, 76
14, 163920, Note_on_c, 12, 71, 76
14, 164024, Note_on_c, 12, 80, 0
14, 164024, Note_on_c, 12, 71, 0
14, 164040, Note_on_c, 12, 80, 76
14, 164040, Note_on_c, 12, 71, 76
14, 164144, Note_on_c, 12, 80, 0
14, 164144, Note_on_c, 12, 71, 0
14, 164160, Note_on_c, 12, 70, 76
14, 164160, Note_on_c, 12, 79, 76
14, 164264, Note_on_c, 12, 70, 0
14, 164264, Note_on_c, 12, 79, 0
14, 164280, Note_on_c, 12, 79, 76
14, 164280, Note_on_c, 12, 70, 76
14, 164384, Note_on_c, 12, 79, 0
14, 164384, Note_on_c, 12, 70, 0
14, 164400, Note_on_c, 12, 79, 76
14, 164400, Note_on_c, 12, 70, 76
14, 164504, Note_on_c, 12, 79, 0
14, 164504, Note_on_c, 12, 70, 0
14, 164520, Note_on_c, 12, 79, 76
14, 164520, Note_on_c, 12, 70, 76
14, 164624, Note_on_c, 12, 79, 0
14, 164624, Note_on_c, 12, 70, 0
14, 164640, Note_on_c, 12, 70, 76
14, 164640, Note_on_c, 12, 79, 76
14, 164744, Note_on_c, 12, 70, 0
14, 164744, Note_on_c, 12, 79, 0
14, 164760, Note_on_c, 12, 70, 76
14, 164760, Note_on_c, 12, 79, 76
14, 164864, Note_on_c, 12, 70, 0
14, 164864, Note_on_c, 12, 79, 0
14, 164880, Note_on_c, 12, 70, 76
14, 164880, Note_on_c, 12, 79, 76
14, 164984, Note_on_c, 12, 70, 0
14, 164984, Note_on_c, 12, 79, 0
14, 165000, Note_on_c, 12, 79, 76
14, 165000, Note_on_c, 12, 70, 76
14, 165104, Note_on_c, 12, 79, 0
14, 165104, Note_on_c, 12, 70, 0
14, 165120, Note_on_c, 12, 68, 84
14, 165224, Note_on_c, 12, 68, 0
14, 165240, Note_on_c, 12, 80, 84
14, 165344, Note_on_c, 12, 80, 0
14, 165360, Note_on_c, 12, 80, 84
14, 165464, Note_on_c, 12, 80, 0
14, 165480, Note_on_c, 12, 80, 84
14, 165584, Note_on_c, 12, 80, 0
14, 165600, Note_on_c, 12, 80, 84
14, 165704, Note_on_c, 12, 80, 0
14, 165720, Note_on_c, 12, 80, 84
14, 165824, Note_on_c, 12, 80, 0
14, 165840, Note_on_c, 12, 80, 84
14, 165944, Note_on_c, 12, 80, 0
14, 165960, Note_on_c, 12, 80, 84
14, 166064, Note_on_c, 12, 80, 0
14, 166080, Note_on_c, 12, 80, 84
14, 166184, Note_on_c, 12, 80, 0
14, 166200, Note_on_c, 12, 80, 84
14, 166304, Note_on_c, 12, 80, 0
14, 166320, Note_on_c, 12, 80, 84
14, 166424, Note_on_c, 12, 80, 0
14, 166440, Note_on_c, 12, 80, 84
14, 166544, Note_on_c, 12, 80, 0
14, 166560, Note_on_c, 12, 80, 84
14, 166664, Note_on_c, 12, 80, 0
14, 166680, Note_on_c, 12, 80, 84
14, 166784, Note_on_c, 12, 80, 0
14, 166800, Note_on_c, 12, 80, 84
14, 166904, Note_on_c, 12, 80, 0
14, 166920, Note_on_c, 12, 80, 84
14, 167024, Note_on_c, 12, 80, 0
14, 167040, Note_on_c, 12, 81, 84
14, 167040, Note_on_c, 12, 72, 84
14, 167144, Note_on_c, 12, 81, 0
14, 167144, Note_on_c, 12, 72, 0
14, 167160, Note_on_c, 12, 81, 84
14, 167160, Note_on_c, 12, 72, 84
14, 167264, Note_on_c, 12, 81, 0
14, 167264, Note_on_c, 12, 72, 0
14, 167280, Note_on_c, 12, 81, 84
14, 167280, Note_on_c, 12, 72, 84
14, 167384, Note_on_c, 12, 81, 0
14, 167384, Note_on_c, 12, 72, 0
14, 167400, Note_on_c, 12, 72, 84
14, 167400, Note_on_c, 12, 81, 84
14, 167504, Note_on_c, 12, 72, 0
14, 167504, Note_on_c, 12, 81, 0
14, 167520, Note_on_c, 12, 81, 84
14, 167520, Note_on_c, 12, 72, 84
14, 167624, Note_on_c, 12, 81, 0
14, 167624, Note_on_c, 12, 72, 0
14, 167640, Note_on_c, 12, 81, 84
14, 167640, Note_on_c, 12, 72, 84
14, 167744, Note_on_c, 12, 81, 0
14, 167744, Note_on_c, 12, 72, 0
14, 167760, Note_on_c, 12, 72, 84
14, 167760, Note_on_c, 12, 81, 84
14, 167864, Note_on_c, 12, 72, 0
14, 167864, Note_on_c, 12, 81, 0
14, 167880, Note_on_c, 12, 81, 84
14, 167880, Note_on_c, 12, 72, 84
14, 167984, Note_on_c, 12, 81, 0
14, 167984, Note_on_c, 12, 72, 0
14, 168000, Note_on_c, 12, 79, 84
14, 168000, Note_on_c, 12, 70, 84
14, 168104, Note_on_c, 12, 79, 0
14, 168104, Note_on_c, 12, 70, 0
14, 168120, Note_on_c, 12, 70, 84
14, 168120, Note_on_c, 12, 79, 84
14, 168224, Note_on_c, 12, 70, 0
14, 168224, Note_on_c, 12, 79, 0
14, 168240, Note_on_c, 12, 70, 84
14, 168240, Note_on_c, 12, 79, 84
14, 168344, Note_on_c, 12, 70, 0
14, 168344, Note_on_c, 12, 79, 0
14, 168360, Note_on_c, 12, 70, 84
14, 168360, Note_on_c, 12, 79, 84
14, 168464, Note_on_c, 12, 70, 0
14, 168464, Note_on_c, 12, 79, 0
14, 168480, Note_on_c, 12, 79, 84
14, 168480, Note_on_c, 12, 70, 84
14, 168584, Note_on_c, 12, 79, 0
14, 168584, Note_on_c, 12, 70, 0
14, 168600, Note_on_c, 12, 79, 84
14, 168600, Note_on_c, 12, 70, 84
14, 168704, Note_on_c, 12, 79, 0
14, 168704, Note_on_c, 12, 70, 0
14, 168720, Note_on_c, 12, 70, 84
14, 168720, Note_on_c, 12, 79, 84
14, 168824, Note_on_c, 12, 70, 0
14, 168824, Note_on_c, 12, 79, 0
14, 168840, Note_on_c, 12, 70, 84
14, 168840, Note_on_c, 12, 79, 84
14, 168944, Note_on_c, 12, 70, 0
14, 168944, Note_on_c, 12, 79, 0
14, 168960, Note_on_c, 12, 69, 76
14, 168960, Note_on_c, 12, 77, 76
14, 169184, Note_on_c, 12, 69, 0
14, 169184, Note_on_c, 12, 77, 0
14, 169200, Note_on_c, 12, 69, 76
14, 169664, Note_on_c, 12, 69, 0
14, 169680, Note_on_c, 12, 70, 76
14, 170144, Note_on_c, 12, 70, 0
14, 170160, Note_on_c, 12, 72, 76
14, 170624, Note_on_c, 12, 72, 0
14, 170640, Note_on_c, 12, 65, 76
14, 171104, Note_on_c, 12, 65, 0
14, 171120, Note_on_c, 12, 67, 76
14, 171584, Note_on_c, 12, 67, 0
14, 171600, Note_on_c, 12, 69, 76
14, 172064, Note_on_c, 12, 69, 0
14, 172080, Note_on_c, 12, 60, 76
14, 172544, Note_on_c, 12, 60, 0
14, 172560, Note_on_c, 12, 64, 76
14, 172739, Note_on_c, 12, 64, 0
14, 172800, Note_on_c, 12, 65, 76
14, 172979, Note_on_c, 12, 65, 0
14, 173040, Note_on_c, 12, 69, 76
14, 173504, Note_on_c, 12, 69, 0
14, 173520, Note_on_c, 12, 70, 76
14, 173984, Note_on_c, 12, 70, 0
14, 174000, Note_on_c, 12, 72, 76
14, 174464, Note_on_c, 12, 72, 0
14, 174480, Note_on_c, 12, 65, 76
14, 174944, Note_on_c, 12, 65, 0
14, 174960, Note_on_c, 12, 67, 76
14, 175424, Note_on_c, 12, 67, 0
14, 175440, Note_on_c, 12, 69, 76
14, 175904, Note_on_c, 12, 69, 0
14, 175920, Note_on_c, 12, 60, 76
14, 176384, Note_on_c, 12, 60, 0
14, 176400, Note_on_c, 12, 64, 76
14, 176624, Note_on_c, 12, 64, 0
14, 176640, Note_on_c, 12, 65, 76
14, 176864, Note_on_c, 12, 65, 0
14, 176880, Note_on_c, 12, 67, 76
14, 177344, Note_on_c, 12, 67, 0
14, 177360, Note_on_c, 12, 69, 76
14, 177824, Note_on_c, 12, 69, 0
14, 177840, Note_on_c, 12, 60, 76
14, 178304, Note_on_c, 12, 60, 0
14, 178320, Note_on_c, 12, 67, 76
14, 178320, Note_on_c, 12, 76, 76
14, 178320, Note_on_c, 12, 70, 76
14, 178544, Note_on_c, 12, 67, 0
14, 178544, Note_on_c, 12, 76, 0
14, 178544, Note_on_c, 12, 70, 0
14, 178560, Note_on_c, 12, 69, 84
14, 178560, Note_on_c, 12, 77, 84
14, 180224, Note_on_c, 12, 69, 0
14, 180224, Note_on_c, 12, 77, 0
14, 180240, Note_on_c, 12, 72, 84
14, 180287, Note_on_c, 12, 72, 0
14, 180288, Note_on_c, 12, 74, 84
14, 180335, Note_on_c, 12, 74, 0
14, 180336, Note_on_c, 12, 76, 84
14, 180383, Note_on_c, 12, 76, 0
14, 180384, Note_on_c, 12, 77, 84
14, 180431, Note_on_c, 12, 77, 0
14, 180432, Note_on_c, 12, 79, 84
14, 180471, Note_on_c, 12, 79, 0
14, 180480, Note_on_c, 12, 81, 84
14, 180719, Note_on_c, 12, 81, 0
14, 182400, Note_on_c, 12, 81, 84
14, 182400, Note_on_c, 12, 69, 84
14, 184064, Note_on_c, 12, 81, 0
14, 184064, Note_on_c, 12, 69, 0
14, 184080, Note_on_c, 12, 75, 84
14, 184127, Note_on_c, 12, 75, 0
14, 184128, Note_on_c, 12, 77, 84
14, 184175, Note_on_c, 12, 77, 0
14, 184176, Note_on_c, 12, 79, 84
14, 184223, Note_on_c, 12, 79, 0
14, 184224, Note_on_c, 12, 81, 84
14, 184271, Note_on_c, 12, 81, 0
14, 184272, Note_on_c, 12, 82, 84
14, 184311, Note_on_c, 12, 82, 0
14, 184320, Note_on_c, 12, 69, 84
14, 184320, Note_on_c, 12, 84, 84
14, 184499, Note_on_c, 12, 69, 0
14, 184499, Note_on_c, 12, 84, 0
14, 185040, Note_on_c, 12, 77, 84
14, 185099, Note_on_c, 12, 77, 0
14, 185100, Note_on_c, 12, 79, 84
14, 185159, Note_on_c, 12, 79, 0
14, 185160, Note_on_c, 12, 81, 84
14, 185219, Note_on_c, 12, 81, 0
14, 185220, Note_on_c, 12, 82, 84
14, 185271, Note_on_c, 12, 82, 0
14, 185280, Note_on_c, 12, 69, 84
14, 185280, Note_on_c, 12, 84, 84
14, 185459, Note_on_c, 12, 69, 0
14, 185459, Note_on_c, 12, 84, 0
14, 186000, Note_on_c, 12, 77, 84
14, 186059, Note_on_c, 12, 77, 0
14, 186060, Note_on_c, 12, 79, 84
14, 186119, Note_on_c, 12, 79, 0
14, 186120, Note_on_c, 12, 81, 84
14, 186179, Note_on_c, 12, 81, 0
14, 186180, Note_on_c, 12, 82, 84
14, 186231, Note_on_c, 12, 82, 0
14, 186240, Note_on_c, 12, 84, 84
14, 186240, Note_on_c, 12, 69, 84
14, 186419, Note_on_c, 12, 84, 0
14, 186419, Note_on_c, 12, 69, 0
14, 186600, Note_on_c, 12, 81, 84
14, 186659, Note_on_c, 12, 81, 0
14, 186660, Note_on_c, 12, 82, 84
14, 186711, Note_on_c, 12, 82, 0
14, 186720, Note_on_c, 12, 84, 84
14, 186720, Note_on_c, 12, 69, 84
14, 186899, Note_on_c, 12, 84, 0
14, 186899, Note_on_c, 12, 69, 0
14, 187080, Note_on_c, 12, 81, 84
14, 187139, Note_on_c, 12, 81, 0
14, 187140, Note_on_c, 12, 82, 84
14, 187191, Note_on_c, 12, 82, 0
14, 187200, Note_on_c, 12, 69, 84
14, 187200, Note_on_c, 12, 84, 84
14, 187379, Note_on_c, 12, 69, 0
14, 187379, Note_on_c, 12, 84, 0
14, 187560, Note_on_c, 12, 81, 84
14, 187619, Note_on_c, 12, 81, 0
14, 187620, Note_on_c, 12, 82, 84
14, 187671, Note_on_c, 12, 82, 0
14, 187680, Note_on_c, 12, 84, 84
14, 187680, Note_on_c, 12, 69, 84
14, 187859, Note_on_c, 12, 84, 0
14, 187859, Note_on_c, 12, 69, 0
14, 188040, Note_on_c, 12, 81, 84
14, 188079, Note_on_c, 12, 81, 0
14, 188080, Note_on_c, 12, 82, 84
14, 188119, Note_on_c, 12, 82, 0
14, 188120, Note_on_c, 12, 84, 84
14, 188151, Note_on_c, 12, 84, 0
14, 188160, Note_on_c, 12, 86, 76
14, 188264, Note_on_c, 12, 86, 0
14, 188280, Note_on_c, 12, 62, 52
14, 188384, Note_on_c, 12, 62, 0
14, 188400, Note_on_c, 12, 62, 52
14, 188504, Note_on_c, 12, 62, 0
14, 188520, Note_on_c, 12, 62, 52
14, 188624, Note_on_c, 12, 62, 0
14, 188640, Note_on_c, 12, 62, 52
14, 188744, Note_on_c, 12, 62, 0
14, 188760, Note_on_c, 12, 62, 52
14, 188864, Note_on_c, 12, 62, 0
14, 188880, Note_on_c, 12, 62, 52
14, 188984, Note_on_c, 12, 62, 0
14, 189000, Note_on_c, 12, 62, 52
14, 189104, Note_on_c, 12, 62, 0
14, 189120, Note_on_c, 12, 62, 52
14, 189224, Note_on_c, 12, 62, 0
14, 189240, Note_on_c, 12, 62, 52
14, 189344, Note_on_c, 12, 62, 0
14, 189360, Note_on_c, 12, 62, 52
14, 189464, Note_on_c, 12, 62, 0
14, 189480, Note_on_c, 12, 62, 52
14, 189584, Note_on_c, 12, 62, 0
14, 189600, Note_on_c, 12, 62, 52
14, 189704, Note_on_c, 12, 62, 0
14, 189720, Note_on_c, 12, 62, 52
14, 189824, Note_on_c, 12, 62, 0
14, 189840, Note_on_c, 12, 62, 52
14, 189944, Note_on_c, 12, 62, 0
14, 189960, Note_on_c, 12, 62, 52
14, 190064, Note_on_c, 12, 62, 0
14, 190080, Note_on_c, 12, 67, 52
14, 190184, Note_on_c, 12, 67, 0
14, 190200, Note_on_c, 12, 67, 52
14, 190304, Note_on_c, 12, 67, 0
14, 190320, Note_on_c, 12, 67, 52
14, 190424, Note_on_c, 12, 67, 0
14, 190440, Note_on_c, 12, 67, 52
14, 190544, Note_on_c, 12, 67, 0
14, 190560, Note_on_c, 12, 67, 52
14, 190664, Note_on_c, 12, 67, 0
14, 190680, Note_on_c, 12, 67, 52
14, 190784, Note_on_c, 12, 67, 0
14, 190800, Note_on_c, 12, 67, 52
14, 190904, Note_on_c, 12, 67, 0
14, 190920, Note_on_c, 12, 67, 52
14, 191024, Note_on_c, 12, 67, 0
14, 191040, Note_on_c, 12, 65, 52
14, 191144, Note_on_c, 12, 65, 0
14, 191160, Note_on_c, 12, 65, 52
14, 191264, Note_on_c, 12, 65, 0
14, 191280, Note_on_c, 12, 65, 52
14, 191384, Note_on_c, 12, 65, 0
14, 191400, Note_on_c, 12, 65, 52
14, 191504, Note_on_c, 12, 65, 0
14, 191520, Note_on_c, 12, 65, 52
14, 191624, Note_on_c, 12, 65, 0
14, 191640, Note_on_c, 12, 65, 52
14, 191744, Note_on_c, 12, 65, 0
14, 191760, Note_on_c, 12, 65, 52
14, 191864, Note_on_c, 12, 65, 0
14, 191880, Note_on_c, 12, 65, 52
14, 191984, Note_on_c, 12, 65, 0
14, 192000, Note_on_c, 12, 65, 52
14, 192239, Note_on_c, 12, 65, 0
14, 195600, Note_on_c, 12, 77, 52
14, 195659, Note_on_c, 12, 77, 0
14, 195660, Note_on_c, 12, 79, 52
14, 195719, Note_on_c, 12, 79, 0
14, 195720, Note_on_c, 12, 81, 52
14, 195779, Note_on_c, 12, 81, 0
14, 195780, Note_on_c, 12, 82, 52
14, 195831, Note_on_c, 12, 82, 0
14, 195840, Note_on_c, 12, 69, 84
14, 195840, Note_on_c, 12, 84, 84
14, 196019, Note_on_c, 12, 69, 0
14, 196019, Note_on_c, 12, 84, 0
14, 196560, Note_on_c, 12, 77, 84
14, 196619, Note_on_c, 12, 77, 0
14, 196620, Note_on_c, 12, 79, 84
14, 196679, Note_on_c, 12, 79, 0
14, 196680, Note_on_c, 12, 81, 84
14, 196739, Note_on_c, 12, 81, 0
14, 196740, Note_on_c, 12, 82, 84
14, 196791, Note_on_c, 12, 82, 0
14, 196800, Note_on_c, 12, 69, 84
14, 196800, Note_on_c, 12, 84, 84
14, 196979, Note_on_c, 12, 69, 0
14, 196979, Note_on_c, 12, 84, 0
14, 197160, Note_on_c, 12, 81, 84
14, 197219, Note_on_c, 12, 81, 0
14, 197220, Note_on_c, 12, 82, 84
14, 197271, Note_on_c, 12, 82, 0
14, 197280, Note_on_c, 12, 84, 84
14, 197280, Note_on_c, 12, 69, 84
14, 197459, Note_on_c, 12, 84, 0
14, 197459, Note_on_c, 12, 69, 0
14, 197640, Note_on_c, 12, 81, 84
14, 197679, Note_on_c, 12, 81, 0
14, 197680, Note_on_c, 12, 82, 84
14, 197719, Note_on_c, 12, 82, 0
14, 197720, Note_on_c, 12, 84, 84
14, 197751, Note_on_c, 12, 84, 0
14, 197760, Note_on_c, 12, 62, 84
14, 197760, Note_on_c, 12, 86, 84
14, 197760, Note_on_c, 12, 74, 84
14, 197879, Note_on_c, 12, 62, 0
14, 197879, Note_on_c, 12, 86, 0
14, 197879, Note_on_c, 12, 74, 0
14, 198000, Note_on_c, 12, 82, 84
14, 198119, Note_on_c, 12, 82, 0
14, 198240, Note_on_c, 12, 77, 84
14, 198359, Note_on_c, 12, 77, 0
14, 198480, Note_on_c, 12, 82, 84
14, 198599, Note_on_c, 12, 82, 0
14, 198720, Note_on_c, 12, 74, 84
14, 198839, Note_on_c, 12, 74, 0
14, 198960, Note_on_c, 12, 77, 84
14, 199079, Note_on_c, 12, 77, 0
14, 199200, Note_on_c, 12, 70, 84
14, 199319, Note_on_c, 12, 70, 0
14, 199440, Note_on_c, 12, 74, 84
14, 199559, Note_on_c, 12, 74, 0
14, 199680, Note_on_c, 12, 67, 84
14, 199799, Note_on_c, 12, 67, 0
14, 199920, Note_on_c, 12, 75, 84
14, 200039, Note_on_c, 12, 75, 0
14, 200160, Note_on_c, 12, 72, 84
14, 200279, Note_on_c, 12, 72, 0
14, 200400, Note_on_c, 12, 70, 84
14, 200519, Note_on_c, 12, 70, 0
14, 200640, Note_on_c, 12, 69, 84
14, 200759, Note_on_c, 12, 69, 0
14, 200880, Note_on_c, 12, 77, 84
14, 200999, Note_on_c, 12, 77, 0
14, 201120, Note_on_c, 12, 75, 84
14, 201239, Note_on_c, 12, 75, 0
14, 201360, Note_on_c, 12, 72, 84
14, 201479, Note_on_c, 12, 72, 0
14, 201600, Note_on_c, 12, 70, 84
14, 201719, Note_on_c, 12, 70, 0
14, 201840, Note_on_c, 12, 62, 84
14, 201944, Note_on_c, 12, 62, 0
14, 201960, Note_on_c, 12, 62, 84
14, 202064, Note_on_c, 12, 62, 0
14, 202080, Note_on_c, 12, 60, 84
14, 202184, Note_on_c, 12, 60, 0
14, 202200, Note_on_c, 12, 60, 84
14, 202304, Note_on_c, 12, 60, 0
14, 202320, Note_on_c, 12, 58, 84
14, 202424, Note_on_c, 12, 58, 0
14, 202440, Note_on_c, 12, 58, 84
14, 202544, Note_on_c, 12, 58, 0
14, 202560, Note_on_c, 12, 57, 84
14, 202664, Note_on_c, 12, 57, 0
14, 202680, Note_on_c, 12, 57, 84
14, 202784, Note_on_c, 12, 57, 0
14, 202800, Note_on_c, 12, 55, 84
14, 202904, Note_on_c, 12, 55, 0
14, 202920, Note_on_c, 12, 55, 84
14, 203024, Note_on_c, 12, 55, 0
14, 203040, Note_on_c, 12, 65, 84
14, 203144, Note_on_c, 12, 65, 0
14, 203160, Note_on_c, 12, 65, 84
14, 203264, Note_on_c, 12, 65, 0
14, 203280, Note_on_c, 12, 55, 84
14, 203384, Note_on_c, 12, 55, 0
14, 203400, Note_on_c, 12, 55, 84
14, 203504, Note_on_c, 12, 55, 0
14, 203520, Note_on_c, 12, 63, 92
14, 203639, Note_on_c, 12, 63, 0
14, 203640, Note_on_c, 12, 62, 84
14, 203759, Note_on_c, 12, 62, 0
14, 203760, Note_on_c, 12, 63, 84
14, 203879, Note_on_c, 12, 63, 0
14, 203880, Note_on_c, 12, 62, 84
14, 203999, Note_on_c, 12, 62, 0
14, 204000, Note_on_c, 12, 63, 84
14, 204119, Note_on_c, 12, 63, 0
14, 204120, Note_on_c, 12, 62, 84
14, 204239, Note_on_c, 12, 62, 0
14, 204240, Note_on_c, 12, 63, 84
14, 204359, Note_on_c, 12, 63, 0
14, 204360, Note_on_c, 12, 62, 84
14, 204464, Note_on_c, 12, 62, 0
14, 204480, Note_on_c, 12, 63, 84
14, 204584, Note_on_c, 12, 63, 0
14, 204600, Note_on_c, 12, 75, 84
14, 204704, Note_on_c, 12, 75, 0
14, 204720, Note_on_c, 12, 75, 84
14, 204824, Note_on_c, 12, 75, 0
14, 204840, Note_on_c, 12, 75, 84
14, 204944, Note_on_c, 12, 75, 0
14, 204960, Note_on_c, 12, 75, 84
14, 205064, Note_on_c, 12, 75, 0
14, 205080, Note_on_c, 12, 75, 84
14, 205184, Note_on_c, 12, 75, 0
14, 205200, Note_on_c, 12, 75, 84
14, 205304, Note_on_c, 12, 75, 0
14, 205320, Note_on_c, 12, 75, 84
14, 205424, Note_on_c, 12, 75, 0
14, 205440, Note_on_c, 12, 75, 84
14, 205679, Note_on_c, 12, 75, 0
14, 206400, Note_on_c, 12, 74, 84
14, 206400, Note_on_c, 12, 62, 84
14, 206639, Note_on_c, 12, 74, 0
14, 206639, Note_on_c, 12, 62, 0
14, 207360, Note_on_c, 12, 72, 84
14, 207360, Note_on_c, 12, 79, 84
14, 207360, Note_on_c, 12, 63, 84
14, 207599, Note_on_c, 12, 72, 0
14, 207599, Note_on_c, 12, 79, 0
14, 207599, Note_on_c, 12, 63, 0
14, 208320, Note_on_c, 12, 65, 84
14, 208320, Note_on_c, 12, 75, 84
14, 208559, Note_on_c, 12, 65, 0
14, 208559, Note_on_c, 12, 75, 0
14, 213360, Note_on_c, 12, 69, 44
14, 213479, Note_on_c, 12, 69, 0
14, 213480, Note_on_c, 12, 68, 44
14, 213599, Note_on_c, 12, 68, 0
14, 213600, Note_on_c, 12, 69, 44
14, 213719, Note_on_c, 12, 69, 0
14, 213720, Note_on_c, 12, 68, 44
14, 213839, Note_on_c, 12, 68, 0
14, 213840, Note_on_c, 12, 69, 44
14, 213959, Note_on_c, 12, 69, 0
14, 213960, Note_on_c, 12, 68, 44
14, 214064, Note_on_c, 12, 68, 0
14, 214080, Note_on_c, 12, 69, 44
14, 214319, Note_on_c, 12, 69, 0
14, 217200, Note_on_c, 12, 71, 44
14, 217319, Note_on_c, 12, 71, 0
14, 217320, Note_on_c, 12, 70, 44
14, 217439, Note_on_c, 12, 70, 0
14, 217440, Note_on_c, 12, 71, 44
14, 217559, Note_on_c, 12, 71, 0
14, 217560, Note_on_c, 12, 70, 44
14, 217679, Note_on_c, 12, 70, 0
14, 217680, Note_on_c, 12, 71, 44
14, 217799, Note_on_c, 12, 71, 0
14, 217800, Note_on_c, 12, 70, 44
14, 217904, Note_on_c, 12, 70, 0
14, 217920, Note_on_c, 12, 71, 44
14, 218159, Note_on_c, 12, 71, 0
14, 219120, Note_on_c, 12, 73, 44
14, 219239, Note_on_c, 12, 73, 0
14, 219240, Note_on_c, 12, 72, 44
14, 219359, Note_on_c, 12, 72, 0
14, 219360, Note_on_c, 12, 73, 44
14, 219479, Note_on_c, 12, 73, 0
14, 219480, Note_on_c, 12, 72, 44
14, 219599, Note_on_c, 12, 72, 0
14, 219600, Note_on_c, 12, 73, 44
14, 219719, Note_on_c, 12, 73, 0
14, 219720, Note_on_c, 12, 72, 44
14, 219824, Note_on_c, 12, 72, 0
14, 219840, Note_on_c, 12, 73, 44
14, 220079, Note_on_c, 12, 73, 0
14, 220800, Note_on_c, 12, 78, 44
14, 220800, Note_on_c, 12, 69, 44
14, 220904, Note_on_c, 12, 78, 0
14, 220904, Note_on_c, 12, 69, 0
14, 220920, Note_on_c, 12, 69, 45
14, 220920, Note_on_c, 12, 78, 45
14, 221024, Note_on_c, 12, 69, 0
14, 221024, Note_on_c, 12, 78, 0
14, 221040, Note_on_c, 12, 78, 46
14, 221040, Note_on_c, 12, 69, 46
14, 221144, Note_on_c, 12, 78, 0
14, 221144, Note_on_c, 12, 69, 0
14, 221160, Note_on_c, 12, 69, 47
14, 221160, Note_on_c, 12, 78, 47
14, 221264, Note_on_c, 12, 69, 0
14, 221264, Note_on_c, 12, 78, 0
14, 221280, Note_on_c, 12, 78, 49
14, 221280, Note_on_c, 12, 69, 49
14, 221384, Note_on_c, 12, 78, 0
14, 221384, Note_on_c, 12, 69, 0
14, 221400, Note_on_c, 12, 78, 50
14, 221400, Note_on_c, 12, 69, 50
14, 221504, Note_on_c, 12, 78, 0
14, 221504, Note_on_c, 12, 69, 0
14, 221520, Note_on_c, 12, 69, 51
14, 221520, Note_on_c, 12, 78, 51
14, 221624, Note_on_c, 12, 69, 0
14, 221624, Note_on_c, 12, 78, 0
14, 221640, Note_on_c, 12, 78, 52
14, 221640, Note_on_c, 12, 69, 52
14, 221744, Note_on_c, 12, 78, 0
14, 221744, Note_on_c, 12, 69, 0
14, 221760, Note_on_c, 12, 69, 54
14, 221760, Note_on_c, 12, 78, 54
14, 221864, Note_on_c, 12, 69, 0
14, 221864, Note_on_c, 12, 78, 0
14, 221880, Note_on_c, 12, 78, 55
14, 221880, Note_on_c, 12, 69, 55
14, 221984, Note_on_c, 12, 78, 0
14, 221984, Note_on_c, 12, 69, 0
14, 222000, Note_on_c, 12, 78, 56
14, 222000, Note_on_c, 12, 69, 56
14, 222104, Note_on_c, 12, 78, 0
14, 222104, Note_on_c, 12, 69, 0
14, 222120, Note_on_c, 12, 78, 57
14, 222120, Note_on_c, 12, 69, 57
14, 222224, Note_on_c, 12, 78, 0
14, 222224, Note_on_c, 12, 69, 0
14, 222240, Note_on_c, 12, 78, 59
14, 222240, Note_on_c, 12, 69, 59
14, 222344, Note_on_c, 12, 78, 0
14, 222344, Note_on_c, 12, 69, 0
14, 222360, Note_on_c, 12, 69, 60
14, 222360, Note_on_c, 12, 78, 60
14, 222464, Note_on_c, 12, 69, 0
14, 222464, Note_on_c, 12, 78, 0
14, 222480, Note_on_c, 12, 69, 61
14, 222480, Note_on_c, 12, 78, 61
14, 222584, Note_on_c, 12, 69, 0
14, 222584, Note_on_c, 12, 78, 0
14, 222600, Note_on_c, 12, 78, 62
14, 222600, Note_on_c, 12, 69, 62
14, 222704, Note_on_c, 12, 78, 0
14, 222704, Note_on_c, 12, 69, 0
14, 222720, Note_on_c, 12, 69, 64
14, 222720, Note_on_c, 12, 77, 64
14, 222824, Note_on_c, 12, 69, 0
14, 222824, Note_on_c, 12, 77, 0
14, 222840, Note_on_c, 12, 77, 65
14, 222840, Note_on_c, 12, 69, 65
14, 222944, Note_on_c, 12, 77, 0
14, 222944, Note_on_c, 12, 69, 0
14, 222960, Note_on_c, 12, 69, 66
14, 222960, Note_on_c, 12, 77, 66
14, 223064, Note_on_c, 12, 69, 0
14, 223064, Note_on_c, 12, 77, 0
14, 223080, Note_on_c, 12, 77, 67
14, 223080, Note_on_c, 12, 69, 67
14, 223184, Note_on_c, 12, 77, 0
14, 223184, Note_on_c, 12, 69, 0
14, 223200, Note_on_c, 12, 77, 69
14, 223200, Note_on_c, 12, 69, 69
14, 223304, Note_on_c, 12, 77, 0
14, 223304, Note_on_c, 12, 69, 0
14, 223320, Note_on_c, 12, 69, 70
14, 223320, Note_on_c, 12, 77, 70
14, 223424, Note_on_c, 12, 69, 0
14, 223424, Note_on_c, 12, 77, 0
14, 223440, Note_on_c, 12, 69, 71
14, 223440, Note_on_c, 12, 77, 71
14, 223544, Note_on_c, 12, 69, 0
14, 223544, Note_on_c, 12, 77, 0
14, 223560, Note_on_c, 12, 69, 72
14, 223560, Note_on_c, 12, 77, 72
14, 223664, Note_on_c, 12, 69, 0
14, 223664, Note_on_c, 12, 77, 0
14, 223680, Note_on_c, 12, 69, 74
14, 223680, Note_on_c, 12, 77, 74
14, 223784, Note_on_c, 12, 69, 0
14, 223784, Note_on_c, 12, 77, 0
14, 223800, Note_on_c, 12, 77, 75
14, 223800, Note_on_c, 12, 69, 75
14, 223904, Note_on_c, 12, 77, 0
14, 223904, Note_on_c, 12, 69, 0
14, 223920, Note_on_c, 12, 69, 76
14, 223920, Note_on_c, 12, 77, 76
14, 224024, Note_on_c, 12, 69, 0
14, 224024, Note_on_c, 12, 77, 0
14, 224040, Note_on_c, 12, 77, 77
14, 224040, Note_on_c, 12, 69, 77
14, 224144, Note_on_c, 12, 77, 0
14, 224144, Note_on_c, 12, 69, 0
14, 224160, Note_on_c, 12, 77, 79
14, 224160, Note_on_c, 12, 69, 79
14, 224264, Note_on_c, 12, 77, 0
14, 224264, Note_on_c, 12, 69, 0
14, 224280, Note_on_c, 12, 77, 80
14, 224280, Note_on_c, 12, 69, 80
14, 224384, Note_on_c, 12, 77, 0
14, 224384, Note_on_c, 12, 69, 0
14, 224400, Note_on_c, 12, 77, 81
14, 224400, Note_on_c, 12, 69, 81
14, 224504, Note_on_c, 12, 77, 0
14, 224504, Note_on_c, 12, 69, 0
14, 224520, Note_on_c, 12, 69, 82
14, 224520, Note_on_c, 12, 77, 82
14, 224624, Note_on_c, 12, 69, 0
14, 224624, Note_on_c, 12, 77, 0
14, 224640, Note_on_c, 12, 70, 84
14, 225599, Note_on_c, 12, 70, 0
14, 225600, Note_on_c, 12, 70, 84
14, 226544, Note_on_c, 12, 70, 0
14, 226560, Note_on_c, 12, 75, 92
14, 227489, Note_on_c, 12, 75, 0
14, 227520, Note_on_c, 12, 77, 92
14, 228209, Note_on_c, 12, 77, 0
14, 228240, Note_on_c, 12, 65, 84
14, 228287, Note_on_c, 12, 65, 0
14, 228288, Note_on_c, 12, 67, 84
14, 228335, Note_on_c, 12, 67, 0
14, 228336, Note_on_c, 12, 69, 84
14, 228383, Note_on_c, 12, 69, 0
14, 228384, Note_on_c, 12, 70, 84
14, 228431, Note_on_c, 12, 70, 0
14, 228432, Note_on_c, 12, 72, 84
14, 228471, Note_on_c, 12, 72, 0
14, 228480, Note_on_c, 12, 74, 92
14, 228584, Note_on_c, 12, 74, 0
14, 228600, Note_on_c, 12, 74, 84
14, 228704, Note_on_c, 12, 74, 0
14, 228720, Note_on_c, 12, 70, 84
14, 228824, Note_on_c, 12, 70, 0
14, 228840, Note_on_c, 12, 70, 84
14, 228944, Note_on_c, 12, 70, 0
14, 228960, Note_on_c, 12, 65, 84
14, 229064, Note_on_c, 12, 65, 0
14, 229080, Note_on_c, 12, 65, 84
14, 229184, Note_on_c, 12, 65, 0
14, 229200, Note_on_c, 12, 70, 84
14, 229304, Note_on_c, 12, 70, 0
14, 229320, Note_on_c, 12, 70, 84
14, 229424, Note_on_c, 12, 70, 0
14, 229440, Note_on_c, 12, 62, 84
14, 229544, Note_on_c, 12, 62, 0
14, 229560, Note_on_c, 12, 62, 84
14, 229664, Note_on_c, 12, 62, 0
14, 229680, Note_on_c, 12, 65, 84
14, 229784, Note_on_c, 12, 65, 0
14, 229800, Note_on_c, 12, 65, 84
14, 229904, Note_on_c, 12, 65, 0
14, 229920, Note_on_c, 12, 58, 84
14, 230024, Note_on_c, 12, 58, 0
14, 230040, Note_on_c, 12, 58, 84
14, 230144, Note_on_c, 12, 58, 0
14, 230160, Note_on_c, 12, 62, 84
14, 230264, Note_on_c, 12, 62, 0
14, 230280, Note_on_c, 12, 62, 84
14, 230384, Note_on_c, 12, 62, 0
14, 230400, Note_on_c, 12, 55, 84
14, 230504, Note_on_c, 12, 55, 0
14, 230520, Note_on_c, 12, 55, 84
14, 230624, Note_on_c, 12, 55, 0
14, 230640, Note_on_c, 12, 63, 84
14, 230744, Note_on_c, 12, 63, 0
14, 230760, Note_on_c, 12, 63, 84
14, 230864, Note_on_c, 12, 63, 0
14, 230880, Note_on_c, 12, 60, 84
14, 230984, Note_on_c, 12, 60, 0
14, 231000, Note_on_c, 12, 60, 84
14, 231104, Note_on_c, 12, 60, 0
14, 231120, Note_on_c, 12, 58, 84
14, 231224, Note_on_c, 12, 58, 0
14, 231240, Note_on_c, 12, 58, 84
14, 231344, Note_on_c, 12, 58, 0
14, 231360, Note_on_c, 12, 57, 84
14, 231464, Note_on_c, 12, 57, 0
14, 231480, Note_on_c, 12, 57, 84
14, 231584, Note_on_c, 12, 57, 0
14, 231600, Note_on_c, 12, 65, 84
14, 231704, Note_on_c, 12, 65, 0
14, 231720, Note_on_c, 12, 65, 84
14, 231824, Note_on_c, 12, 65, 0
14, 231840, Note_on_c, 12, 63, 84
14, 231944, Note_on_c, 12, 63, 0
14, 231960, Note_on_c, 12, 63, 84
14, 232064, Note_on_c, 12, 63, 0
14, 232080, Note_on_c, 12, 60, 84
14, 232184, Note_on_c, 12, 60, 0
14, 232200, Note_on_c, 12, 60, 84
14, 232304, Note_on_c, 12, 60, 0
14, 232320, Note_on_c, 12, 58, 84
14, 232424, Note_on_c, 12, 58, 0
14, 232440, Note_on_c, 12, 58, 84
14, 232544, Note_on_c, 12, 58, 0
14, 232560, Note_on_c, 12, 67, 84
14, 232664, Note_on_c, 12, 67, 0
14, 232680, Note_on_c, 12, 67, 84
14, 232784, Note_on_c, 12, 67, 0
14, 232800, Note_on_c, 12, 64, 84
14, 232904, Note_on_c, 12, 64, 0
14, 232920, Note_on_c, 12, 64, 84
14, 233024, Note_on_c, 12, 64, 0
14, 233040, Note_on_c, 12, 62, 84
14, 233144, Note_on_c, 12, 62, 0
14, 233160, Note_on_c, 12, 62, 84
14, 233264, Note_on_c, 12, 62, 0
14, 233280, Note_on_c, 12, 61, 84
14, 233384, Note_on_c, 12, 61, 0
14, 233400, Note_on_c, 12, 61, 84
14, 233504, Note_on_c, 12, 61, 0
14, 233520, Note_on_c, 12, 69, 84
14, 233624, Note_on_c, 12, 69, 0
14, 233640, Note_on_c, 12, 69, 84
14, 233744, Note_on_c, 12, 69, 0
14, 233760, Note_on_c, 12, 67, 84
14, 233864, Note_on_c, 12, 67, 0
14, 233880, Note_on_c, 12, 67, 84
14, 233984, Note_on_c, 12, 67, 0
14, 234000, Note_on_c, 12, 64, 84
14, 234104, Note_on_c, 12, 64, 0
14, 234120, Note_on_c, 12, 64, 84
14, 234224, Note_on_c, 12, 64, 0
14, 234240, Note_on_c, 12, 62, 84
14, 234344, Note_on_c, 12, 62, 0
14, 234360, Note_on_c, 12, 62, 84
14, 234464, Note_on_c, 12, 62, 0
14, 234480, Note_on_c, 12, 71, 84
14, 234584, Note_on_c, 12, 71, 0
14, 234600, Note_on_c, 12, 71, 84
14, 234704, Note_on_c, 12, 71, 0
14, 234720, Note_on_c, 12, 68, 84
14, 234824, Note_on_c, 12, 68, 0
14, 234840, Note_on_c, 12, 68, 84
14, 234944, Note_on_c, 12, 68, 0
14, 234960, Note_on_c, 12, 65, 84
14, 235064, Note_on_c, 12, 65, 0
14, 235080, Note_on_c, 12, 65, 84
14, 235184, Note_on_c, 12, 65, 0
14, 235200, Note_on_c, 12, 64, 84
14, 235304, Note_on_c, 12, 64, 0
14, 235320, Note_on_c, 12, 64, 84
14, 235424, Note_on_c, 12, 64, 0
14, 235440, Note_on_c, 12, 72, 84
14, 235544, Note_on_c, 12, 72, 0
14, 235560, Note_on_c, 12, 72, 84
14, 235664, Note_on_c, 12, 72, 0
14, 235680, Note_on_c, 12, 70, 84
14, 235784, Note_on_c, 12, 70, 0
14, 235800, Note_on_c, 12, 70, 84
14, 235904, Note_on_c, 12, 70, 0
14, 235920, Note_on_c, 12, 67, 84
14, 236024, Note_on_c, 12, 67, 0
14, 236040, Note_on_c, 12, 67, 84
14, 236144, Note_on_c, 12, 67, 0
14, 236160, Note_on_c, 12, 64, 84
14, 236264, Note_on_c, 12, 64, 0
14, 236280, Note_on_c, 12, 64, 84
14, 236384, Note_on_c, 12, 64, 0
14, 236400, Note_on_c, 12, 72, 84
14, 236504, Note_on_c, 12, 72, 0
14, 236520, Note_on_c, 12, 72, 84
14, 236624, Note_on_c, 12, 72, 0
14, 236640, Note_on_c, 12, 70, 84
14, 236744, Note_on_c, 12, 70, 0
14, 236760, Note_on_c, 12, 70, 84
14, 236864, Note_on_c, 12, 70, 0
14, 236880, Note_on_c, 12, 67, 84
14, 236984, Note_on_c, 12, 67, 0
14, 237000, Note_on_c, 12, 67, 84
14, 237104, Note_on_c, 12, 67, 0
14, 237120, Note_on_c, 12, 68, 84
14, 237224, Note_on_c, 12, 68, 0
14, 237240, Note_on_c, 12, 68, 84
14, 237344, Note_on_c, 12, 68, 0
14, 237360, Note_on_c, 12, 65, 84
14, 237464, Note_on_c, 12, 65, 0
14, 237480, Note_on_c, 12, 65, 84
14, 237584, Note_on_c, 12, 65, 0
14, 237600, Note_on_c, 12, 63, 84
14, 237704, Note_on_c, 12, 63, 0
14, 237720, Note_on_c, 12, 63, 84
14, 237824, Note_on_c, 12, 63, 0
14, 237840, Note_on_c, 12, 61, 84
14, 237944, Note_on_c, 12, 61, 0
14, 237960, Note_on_c, 12, 61, 84
14, 238064, Note_on_c, 12, 61, 0
14, 238080, Note_on_c, 12, 60, 84
14, 238319, Note_on_c, 12, 60, 0
14, 241200, Note_on_c, 12, 71, 92
14, 241679, Note_on_c, 12, 71, 0
14, 241680, Note_on_c, 12, 72, 84
14, 241904, Note_on_c, 12, 72, 0
14, 241920, Note_on_c, 12, 72, 84
14, 242099, Note_on_c, 12, 72, 0
14, 242160, Note_on_c, 12, 67, 84
14, 242624, Note_on_c, 12, 67, 0
14, 242640, Note_on_c, 12, 68, 84
14, 243104, Note_on_c, 12, 68, 0
14, 243120, Note_on_c, 12, 70, 84
14, 243584, Note_on_c, 12, 70, 0
14, 243600, Note_on_c, 12, 65, 84
14, 244064, Note_on_c, 12, 65, 0
14, 244080, Note_on_c, 12, 67, 84
14, 244544, Note_on_c, 12, 67, 0
14, 244560, Note_on_c, 12, 68, 84
14, 245024, Note_on_c, 12, 68, 0
14, 245040, Note_on_c, 12, 71, 92
14, 245519, Note_on_c, 12, 71, 0
14, 245520, Note_on_c, 12, 72, 84
14, 245744, Note_on_c, 12, 72, 0
14, 245760, Note_on_c, 12, 72, 92
14, 245820, Control_c, 12, 11, 112
14, 245978, Control_c, 12, 11, 110
14, 246135, Control_c, 12, 11, 108
14, 246293, Control_c, 12, 11, 106
14, 246450, Control_c, 12, 11, 104
14, 246608, Control_c, 12, 11, 102
14, 246719, Note_on_c, 12, 72, 0
14, 246720, Note_on_c, 12, 72, 84
14, 246765, Control_c, 12, 11, 100
14, 246923, Control_c, 12, 11, 98
14, 247080, Control_c, 12, 11, 96
14, 247238, Control_c, 12, 11, 94
14, 247395, Control_c, 12, 11, 92
14, 247553, Control_c, 12, 11, 90
14, 247679, Note_on_c, 12, 72, 0
14, 247680, Note_on_c, 12, 72, 84
14, 247710, Control_c, 12, 11, 88
14, 247868, Control_c, 12, 11, 86
14, 248025, Control_c, 12, 11, 84
14, 248144, Note_on_c, 12, 72, 0
14, 248160, Note_on_c, 12, 60, 84
14, 248183, Control_c, 12, 11, 82
14, 248340, Control_c, 12, 11, 80
14, 248498, Control_c, 12, 11, 78
14, 248655, Control_c, 12, 11, 76
14, 248813, Control_c, 12, 11, 74
14, 248970, Control_c, 12, 11, 72
14, 249119, Note_on_c, 12, 60, 0
14, 249120, Note_on_c, 12, 58, 84
14, 249128, Control_c, 12, 11, 70
14, 249285, Control_c, 12, 11, 68
14, 249359, Note_on_c, 12, 58, 0
14, 249360, Note_on_c, 12, 55, 84
14, 249443, Control_c, 12, 11, 64
14, 249584, Note_on_c, 12, 55, 0
14, 249592, Control_c, 12, 11, 80
14, 249600, Note_on_c, 12, 57, 76
14, 251519, Note_on_c, 12, 57, 0
14, 251520, Note_on_c, 12, 57, 76
14, 253424, Note_on_c, 12, 57, 0
14, 253432, Control_c, 12, 11, 96
14, 253440, Note_on_c, 12, 62, 68
14, 255344, Note_on_c, 12, 62, 0
14, 255352, Control_c, 12, 11, 112
14, 255360, Note_on_c, 12, 61, 60
14, 255539, Note_on_c, 12, 61, 0
14, 255600, Note_on_c, 12, 57, 60
14, 255779, Note_on_c, 12, 57, 0
14, 255840, Note_on_c, 12, 61, 60
14, 256019, Note_on_c, 12, 61, 0
14, 256320, Control_c, 12, 11, 127
14, 256560, Note_on_c, 12, 57, 52
14, 256739, Note_on_c, 12, 57, 0
14, 256800, Note_on_c, 12, 62, 52
14, 256979, Note_on_c, 12, 62, 0
14, 257550, Note_on_c, 12, 57, 52
14, 257729, Note_on_c, 12, 57, 0
14, 257760, Note_on_c, 12, 64, 52
14, 257939, Note_on_c, 12, 64, 0
14, 258480, Note_on_c, 12, 57, 52
14, 258659, Note_on_c, 12, 57, 0
14, 258720, Note_on_c, 12, 62, 52
14, 258899, Note_on_c, 12, 62, 0
14, 259200, Note_on_c, 12, 69, 52
14, 259439, Note_on_c, 12, 69, 0
14, 259440, Note_on_c, 12, 68, 52
14, 259679, Note_on_c, 12, 68, 0
14, 259680, Note_on_c, 12, 69, 52
14, 259919, Note_on_c, 12, 69, 0
14, 259920, Note_on_c, 12, 67, 52
14, 260159, Note_on_c, 12, 67, 0
14, 260160, Note_on_c, 12, 65, 52
14, 260399, Note_on_c, 12, 65, 0
14, 260400, Note_on_c, 12, 64, 52
14, 260639, Note_on_c, 12, 64, 0
14, 260640, Note_on_c, 12, 65, 52
14, 260879, Note_on_c, 12, 65, 0
14, 260880, Note_on_c, 12, 62, 52
14, 261119, Note_on_c, 12, 62, 0
14, 261120, Note_on_c, 12, 61, 52
14, 261359, Note_on_c, 12, 61, 0
14, 261360, Note_on_c, 12, 59, 52
14, 261599, Note_on_c, 12, 59, 0
14, 261600, Note_on_c, 12, 61, 52
14, 261839, Note_on_c, 12, 61, 0
14, 261840, Note_on_c, 12, 64, 52
14, 262031, Note_on_c, 12, 64, 0
14, 262040, Note_on_c, 12, 64, 52
14, 262079, Note_on_c, 12, 64, 0
14, 262080, Note_on_c, 12, 62, 52
14, 262319, Note_on_c, 12, 62, 0
14, 262320, Note_on_c, 12, 61, 52
14, 262559, Note_on_c, 12, 61, 0
14, 262560, Note_on_c, 12, 62, 52
14, 262799, Note_on_c, 12, 62, 0
14, 262800, Note_on_c, 12, 58, 52
14, 263024, Note_on_c, 12, 58, 0
14, 263038, Control_c, 12, 11, 64
14, 263040, Note_on_c, 12, 57, 76
14, 263399, Note_on_c, 12, 57, 0
14, 263520, Note_on_c, 12, 58, 76
14, 263879, Note_on_c, 12, 58, 0
14, 264000, Note_on_c, 12, 55, 76
14, 264359, Note_on_c, 12, 55, 0
14, 264480, Note_on_c, 12, 59, 76
14, 264839, Note_on_c, 12, 59, 0
14, 264960, Note_on_c, 12, 60, 76
14, 265319, Note_on_c, 12, 60, 0
14, 265440, Note_on_c, 12, 57, 76
14, 265799, Note_on_c, 12, 57, 0
14, 265920, Note_on_c, 12, 60, 76
14, 265920, Control_c, 12, 11, 64
14, 266133, Control_c, 12, 11, 66
14, 266279, Note_on_c, 12, 60, 0
14, 266347, Control_c, 12, 11, 68
14, 266400, Note_on_c, 12, 62, 76
14, 266560, Control_c, 12, 11, 69
14, 266759, Note_on_c, 12, 62, 0
14, 266773, Control_c, 12, 11, 71
14, 266880, Note_on_c, 12, 58, 76
14, 266987, Control_c, 12, 11, 73
14, 267200, Control_c, 12, 11, 75
14, 267239, Note_on_c, 12, 58, 0
14, 267360, Note_on_c, 12, 62, 76
14, 267413, Control_c, 12, 11, 76
14, 267627, Control_c, 12, 11, 78
14, 267719, Note_on_c, 12, 62, 0
14, 267840, Note_on_c, 12, 64, 76
14, 267840, Control_c, 12, 11, 80
14, 268053, Control_c, 12, 11, 82
14, 268199, Note_on_c, 12, 64, 0
14, 268267, Control_c, 12, 11, 83
14, 268320, Note_on_c, 12, 60, 76
14, 268480, Control_c, 12, 11, 85
14, 268679, Note_on_c, 12, 60, 0
14, 268693, Control_c, 12, 11, 87
14, 268800, Note_on_c, 12, 64, 76
14, 268907, Control_c, 12, 11, 89
14, 269120, Control_c, 12, 11, 90
14, 269159, Note_on_c, 12, 64, 0
14, 269280, Note_on_c, 12, 65, 76
14, 269333, Control_c, 12, 11, 92
14, 269547, Control_c, 12, 11, 94
14, 269639, Note_on_c, 12, 65, 0
14, 269760, Control_c, 12, 11, 96
14, 269760, Note_on_c, 12, 62, 76
14, 269973, Control_c, 12, 11, 97
14, 270119, Note_on_c, 12, 62, 0
14, 270187, Control_c, 12, 11, 99
14, 270240, Note_on_c, 12, 66, 76
14, 270400, Control_c, 12, 11, 101
14, 270599, Note_on_c, 12, 66, 0
14, 270613, Control_c, 12, 11, 103
14, 270720, Note_on_c, 12, 67, 76
14, 270827, Control_c, 12, 11, 104
14, 271040, Control_c, 12, 11, 106
14, 271079, Note_on_c, 12, 67, 0
14, 271200, Note_on_c, 12, 64, 76
14, 271253, Control_c, 12, 11, 108
14, 271467, Control_c, 12, 11, 110
14, 271559, Note_on_c, 12, 64, 0
14, 271680, Note_on_c, 12, 67, 76
14, 271680, Control_c, 12, 11, 111
14, 271893, Control_c, 12, 11, 113
14, 272039, Note_on_c, 12, 67, 0
14, 272107, Control_c, 12, 11, 115
14, 272160, Note_on_c, 12, 69, 76
14, 272320, Control_c, 12, 11, 117
14, 272519, Note_on_c, 12, 69, 0
14, 272533, Control_c, 12, 11, 118
14, 272640, Note_on_c, 12, 70, 76
14, 272747, Control_c, 12, 11, 120
14, 272960, Control_c, 12, 11, 122
14, 272999, Note_on_c, 12, 70, 0
14, 273120, Note_on_c, 12, 71, 76
14, 273173, Control_c, 12, 11, 124
14, 273387, Control_c, 12, 11, 127
14, 273479, Note_on_c, 12, 71, 0
14, 273600, Note_on_c, 12, 72, 76
14, 273959, Note_on_c, 12, 72, 0
14, 274080, Note_on_c, 12, 72, 76
14, 274080, Note_on_c, 12, 76, 76
14, 274439, Note_on_c, 12, 72, 0
14, 274439, Note_on_c, 12, 76, 0
14, 274560, Note_on_c, 12, 72, 76
14, 274560, Note_on_c, 12, 76, 76
14, 274919, Note_on_c, 12, 72, 0
14, 274919, Note_on_c, 12, 76, 0
14, 275040, Note_on_c, 12, 72, 76
14, 275040, Note_on_c, 12, 76, 76
14, 275399, Note_on_c, 12, 72, 0
14, 275399, Note_on_c, 12, 76, 0
14, 275520, Note_on_c, 12, 76, 76
14, 275520, Note_on_c, 12, 72, 76
14, 275879, Note_on_c, 12, 76, 0
14, 275879, Note_on_c, 12, 72, 0
14, 276000, Note_on_c, 12, 76, 76
14, 276000, Note_on_c, 12, 72, 76
14, 276359, Note_on_c, 12, 76, 0
14, 276359, Note_on_c, 12, 72, 0
14, 276480, Note_on_c, 12, 72, 76
14, 276480, Note_on_c, 12, 77, 76
14, 277184, Note_on_c, 12, 72, 0
14, 277184, Note_on_c, 12, 77, 0
14, 277200, Note_on_c, 12, 69, 76
14, 277424, Note_on_c, 12, 69, 0
14, 277440, Note_on_c, 12, 74, 76
14, 278144, Note_on_c, 12, 74, 0
14, 278160, Note_on_c, 12, 70, 76
14, 278384, Note_on_c, 12, 70, 0
14, 278400, Note_on_c, 12, 69, 76
14, 279104, Note_on_c, 12, 69, 0
14, 279120, Note_on_c, 12, 69, 76
14, 279344, Note_on_c, 12, 69, 0
14, 279360, Note_on_c, 12, 67, 76
14, 279584, Note_on_c, 12, 67, 0
14, 279600, Note_on_c, 12, 67, 76
14, 279824, Note_on_c, 12, 67, 0
14, 279840, Note_on_c, 12, 67, 76
14, 279899, Note_on_c, 12, 67, 0
14, 279900, Note_on_c, 12, 69, 76
14, 279959, Note_on_c, 12, 69, 0
14, 279960, Note_on_c, 12, 67, 76
14, 280019, Note_on_c, 12, 67, 0
14, 280020, Note_on_c, 12, 69, 76
14, 280079, Note_on_c, 12, 69, 0
14, 280080, Note_on_c, 12, 67, 76
14, 280139, Note_on_c, 12, 67, 0
14, 280140, Note_on_c, 12, 69, 76
14, 280199, Note_on_c, 12, 69, 0
14, 280200, Note_on_c, 12, 65, 76
14, 280259, Note_on_c, 12, 65, 0
14, 280260, Note_on_c, 12, 67, 76
14, 280311, Note_on_c, 12, 67, 0
14, 280320, Note_on_c, 12, 72, 76
14, 280559, Note_on_c, 12, 72, 0
14, 280560, Note_on_c, 12, 69, 76
14, 280784, Note_on_c, 12, 69, 0
14, 280800, Note_on_c, 12, 74, 76
14, 281039, Note_on_c, 12, 74, 0
14, 281040, Note_on_c, 12, 70, 76
14, 281264, Note_on_c, 12, 70, 0
14, 281280, Note_on_c, 12, 69, 76
14, 281504, Note_on_c, 12, 69, 0
14, 281520, Note_on_c, 12, 69, 76
14, 281744, Note_on_c, 12, 69, 0
14, 281760, Note_on_c, 12, 67, 76
14, 281819, Note_on_c, 12, 67, 0
14, 281820, Note_on_c, 12, 69, 76
14, 281879, Note_on_c, 12, 69, 0
14, 281880, Note_on_c, 12, 67, 76
14, 281939, Note_on_c, 12, 67, 0
14, 281940, Note_on_c, 12, 69, 76
14, 281999, Note_on_c, 12, 69, 0
14, 282000, Note_on_c, 12, 67, 76
14, 282059, Note_on_c, 12, 67, 0
14, 282060, Note_on_c, 12, 69, 76
14, 282119, Note_on_c, 12, 69, 0
14, 282120, Note_on_c, 12, 65, 76
14, 282179, Note_on_c, 12, 65, 0
14, 282180, Note_on_c, 12, 67, 76
14, 282231, Note_on_c, 12, 67, 0
14, 282240, Note_on_c, 12, 65, 52
14, 282479, Note_on_c, 12, 65, 0
14, 283200, Note_on_c, 12, 60, 52
14, 283919, Note_on_c, 12, 60, 0
14, 283920, Note_on_c, 12, 64, 52
14, 284159, Note_on_c, 12, 64, 0
14, 284160, Note_on_c, 12, 65, 52
14, 284399, Note_on_c, 12, 65, 0
14, 285120, Note_on_c, 12, 60, 52
14, 285839, Note_on_c, 12, 60, 0
14, 285840, Note_on_c, 12, 62, 52
14, 286079, Note_on_c, 12, 62, 0
14, 286080, Note_on_c, 12, 64, 52
14, 286319, Note_on_c, 12, 64, 0
14, 287040, Note_on_c, 12, 67, 52
14, 287759, Note_on_c, 12, 67, 0
14, 287760, Note_on_c, 12, 65, 52
14, 287999, Note_on_c, 12, 65, 0
14, 288000, Note_on_c, 12, 64, 52
14, 288239, Note_on_c, 12, 64, 0
14, 288960, Note_on_c, 12, 64, 52
14, 289664, Note_on_c, 12, 64, 0
14, 289680, Note_on_c, 12, 70, 76
14, 289784, Note_on_c, 12, 70, 0
14, 289800, Note_on_c, 12, 70, 76
14, 289904, Note_on_c, 12, 70, 0
14, 289920, Note_on_c, 12, 69, 76
14, 290024, Note_on_c, 12, 69, 0
14, 290040, Note_on_c, 12, 69, 76
14, 290144, Note_on_c, 12, 69, 0
14, 290160, Note_on_c, 12, 70, 76
14, 290264, Note_on_c, 12, 70, 0
14, 290280, Note_on_c, 12, 70, 76
14, 290384, Note_on_c, 12, 70, 0
14, 290400, Note_on_c, 12, 72, 76
14, 290504, Note_on_c, 12, 72, 0
14, 290520, Note_on_c, 12, 72, 76
14, 290624, Note_on_c, 12, 72, 0
14, 290640, Note_on_c, 12, 60, 76
14, 290744, Note_on_c, 12, 60, 0
14, 290760, Note_on_c, 12, 60, 76
14, 290864, Note_on_c, 12, 60, 0
14, 290880, Note_on_c, 12, 65, 76
14, 291584, Note_on_c, 12, 65, 0
14, 291600, Note_on_c, 12, 67, 76
14, 291704, Note_on_c, 12, 67, 0
14, 291720, Note_on_c, 12, 67, 76
14, 291824, Note_on_c, 12, 67, 0
14, 291840, Note_on_c, 12, 69, 76
14, 291944, Note_on_c, 12, 69, 0
14, 291960, Note_on_c, 12, 69, 76
14, 292064, Note_on_c, 12, 69, 0
14, 292080, Note_on_c, 12, 65, 76
14, 292184, Note_on_c, 12, 65, 0
14, 292200, Note_on_c, 12, 65, 76
14, 292304, Note_on_c, 12, 65, 0
14, 292320, Note_on_c, 12, 69, 76
14, 292424, Note_on_c, 12, 69, 0
14, 292440, Note_on_c, 12, 69, 76
14, 292544, Note_on_c, 12, 69, 0
14, 292560, Note_on_c, 12, 70, 76
14, 292664, Note_on_c, 12, 70, 0
14, 292680, Note_on_c, 12, 70, 76
14, 292784, Note_on_c, 12, 70, 0
14, 292800, Note_on_c, 12, 72, 76
14, 293504, Note_on_c, 12, 72, 0
14, 293520, Note_on_c, 12, 74, 76
14, 293624, Note_on_c, 12, 74, 0
14, 293640, Note_on_c, 12, 74, 76
14, 293744, Note_on_c, 12, 74, 0
14, 293760, Note_on_c, 12, 76, 76
14, 293864, Note_on_c, 12, 76, 0
14, 293880, Note_on_c, 12, 76, 76
14, 293984, Note_on_c, 12, 76, 0
14, 294000, Note_on_c, 12, 77, 76
14, 294104, Note_on_c, 12, 77, 0
14, 294120, Note_on_c, 12, 77, 76
14, 294224, Note_on_c, 12, 77, 0
14, 294240, Note_on_c, 12, 79, 76
14, 294344, Note_on_c, 12, 79, 0
14, 294360, Note_on_c, 12, 79, 76
14, 294464, Note_on_c, 12, 79, 0
14, 294480, Note_on_c, 12, 77, 76
14, 294584, Note_on_c, 12, 77, 0
14, 294600, Note_on_c, 12, 77, 76
14, 294704, Note_on_c, 12, 77, 0
14, 294720, Note_on_c, 12, 76, 76
14, 295424, Note_on_c, 12, 76, 0
14, 295440, Note_on_c, 12, 74, 76
14, 295544, Note_on_c, 12, 74, 0
14, 295560, Note_on_c, 12, 74, 76
14, 295664, Note_on_c, 12, 74, 0
14, 295680, Note_on_c, 12, 72, 76
14, 295784, Note_on_c, 12, 72, 0
14, 295800, Note_on_c, 12, 72, 76
14, 295904, Note_on_c, 12, 72, 0
14, 295920, Note_on_c, 12, 74, 76
14, 296024, Note_on_c, 12, 74, 0
14, 296040, Note_on_c, 12, 74, 76
14, 296144, Note_on_c, 12, 74, 0
14, 296160, Note_on_c, 12, 70, 76
14, 296264, Note_on_c, 12, 70, 0
14, 296280, Note_on_c, 12, 70, 76
14, 296384, Note_on_c, 12, 70, 0
14, 296400, Note_on_c, 12, 67, 76
14, 296504, Note_on_c, 12, 67, 0
14, 296520, Note_on_c, 12, 67, 76
14, 296624, Note_on_c, 12, 67, 0
14, 296640, Note_on_c, 12, 64, 76
14, 297599, Note_on_c, 12, 64, 0
14, 299520, Note_on_c, 12, 82, 44
14, 299624, Note_on_c, 12, 82, 0
14, 299640, Note_on_c, 12, 82, 44
14, 299744, Note_on_c, 12, 82, 0
14, 299760, Note_on_c, 12, 82, 44
14, 299864, Note_on_c, 12, 82, 0
14, 299880, Note_on_c, 12, 82, 44
14, 299984, Note_on_c, 12, 82, 0
14, 300000, Note_on_c, 12, 82, 44
14, 300104, Note_on_c, 12, 82, 0
14, 300120, Note_on_c, 12, 82, 44
14, 300224, Note_on_c, 12, 82, 0
14, 300240, Note_on_c, 12, 82, 44
14, 300344, Note_on_c, 12, 82, 0
14, 300360, Note_on_c, 12, 82, 44
14, 300464, Note_on_c, 12, 82, 0
14, 300480, Note_on_c, 12, 82, 44
14, 300584, Note_on_c, 12, 82, 0
14, 300600, Note_on_c, 12, 82, 44
14, 300704, Note_on_c, 12, 82, 0
14, 300720, Note_on_c, 12, 82, 44
14, 300824, Note_on_c, 12, 82, 0
14, 300840, Note_on_c, 12, 82, 44
14, 300944, Note_on_c, 12, 82, 0
14, 300960, Note_on_c, 12, 82, 44
14, 301064, Note_on_c, 12, 82, 0
14, 301080, Note_on_c, 12, 82, 44
14, 301184, Note_on_c, 12, 82, 0
14, 301200, Note_on_c, 12, 82, 44
14, 301304, Note_on_c, 12, 82, 0
14, 301320, Note_on_c, 12, 82, 44
14, 301424, Note_on_c, 12, 82, 0
14, 301440, Note_on_c, 12, 81, 84
14, 301440, Note_on_c, 12, 69, 84
14, 301679, Note_on_c, 12, 81, 0
14, 301679, Note_on_c, 12, 69, 0
14, 302160, Note_on_c, 12, 65, 84
14, 302160, Note_on_c, 12, 74, 84
14, 302384, Note_on_c, 12, 65, 0
14, 302384, Note_on_c, 12, 74, 0
14, 302400, Note_on_c, 12, 65, 84
14, 302400, Note_on_c, 12, 74, 84
14, 302639, Note_on_c, 12, 65, 0
14, 302639, Note_on_c, 12, 74, 0
14, 302880, Note_on_c, 12, 72, 84
14, 302880, Note_on_c, 12, 64, 84
14, 303119, Note_on_c, 12, 72, 0
14, 303119, Note_on_c, 12, 64, 0
14, 303360, Note_on_c, 12, 82, 44
14, 303464, Note_on_c, 12, 82, 0
14, 303480, Note_on_c, 12, 82, 44
14, 303584, Note_on_c, 12, 82, 0
14, 303600, Note_on_c, 12, 82, 44
14, 303704, Note_on_c, 12, 82, 0
14, 303720, Note_on_c, 12, 82, 44
14, 303824, Note_on_c, 12, 82, 0
14, 303840, Note_on_c, 12, 82, 44
14, 303944, Note_on_c, 12, 82, 0
14, 303960, Note_on_c, 12, 82, 44
14, 304064, Note_on_c, 12, 82, 0
14, 304080, Note_on_c, 12, 82, 44
14, 304184, Note_on_c, 12, 82, 0
14, 304200, Note_on_c, 12, 82, 44
14, 304304, Note_on_c, 12, 82, 0
14, 304320, Note_on_c, 12, 82, 44
14, 304424, Note_on_c, 12, 82, 0
14, 304440, Note_on_c, 12, 82, 44
14, 304544, Note_on_c, 12, 82, 0
14, 304560, Note_on_c, 12, 82, 44
14, 304664, Note_on_c, 12, 82, 0
14, 304680, Note_on_c, 12, 82, 44
14, 304784, Note_on_c, 12, 82, 0
14, 304800, Note_on_c, 12, 82, 44
14, 304904, Note_on_c, 12, 82, 0
14, 304920, Note_on_c, 12, 82, 44
14, 305024, Note_on_c, 12, 82, 0
14, 305040, Note_on_c, 12, 82, 44
14, 305144, Note_on_c, 12, 82, 0
14, 305160, Note_on_c, 12, 82, 44
14, 305264, Note_on_c, 12, 82, 0
14, 305280, Note_on_c, 12, 81, 84
14, 305280, Note_on_c, 12, 69, 84
14, 305519, Note_on_c, 12, 81, 0
14, 305519, Note_on_c, 12, 69, 0
14, 306000, Note_on_c, 12, 74, 84
14, 306000, Note_on_c, 12, 65, 84
14, 306224, Note_on_c, 12, 74, 0
14, 306224, Note_on_c, 12, 65, 0
14, 306240, Note_on_c, 12, 65, 84
14, 306240, Note_on_c, 12, 74, 84
14, 306479, Note_on_c, 12, 65, 0
14, 306479, Note_on_c, 12, 74, 0
14, 306720, Note_on_c, 12, 72, 84
14, 306720, Note_on_c, 12, 64, 84
14, 306959, Note_on_c, 12, 72, 0
14, 306959, Note_on_c, 12, 64, 0
14, 307200, Note_on_c, 12, 80, 44
14, 307304, Note_on_c, 12, 80, 0
14, 307320, Note_on_c, 12, 80, 46
14, 307424, Note_on_c, 12, 80, 0
14, 307440, Note_on_c, 12, 80, 48
14, 307544, Note_on_c, 12, 80, 0
14, 307560, Note_on_c, 12, 80, 50
14, 307664, Note_on_c, 12, 80, 0
14, 307680, Note_on_c, 12, 80, 52
14, 307784, Note_on_c, 12, 80, 0
14, 307800, Note_on_c, 12, 80, 54
14, 307904, Note_on_c, 12, 80, 0
14, 307920, Note_on_c, 12, 80, 56
14, 308024, Note_on_c, 12, 80, 0
14, 308040, Note_on_c, 12, 80, 58
14, 308144, Note_on_c, 12, 80, 0
14, 308160, Note_on_c, 12, 80, 60
14, 308264, Note_on_c, 12, 80, 0
14, 308280, Note_on_c, 12, 80, 62
14, 308384, Note_on_c, 12, 80, 0
14, 308400, Note_on_c, 12, 80, 64
14, 308504, Note_on_c, 12, 80, 0
14, 308520, Note_on_c, 12, 80, 66
14, 308624, Note_on_c, 12, 80, 0
14, 308640, Note_on_c, 12, 80, 68
14, 308744, Note_on_c, 12, 80, 0
14, 308760, Note_on_c, 12, 80, 70
14, 308864, Note_on_c, 12, 80, 0
14, 308880, Note_on_c, 12, 80, 72
14, 308984, Note_on_c, 12, 80, 0
14, 309000, Note_on_c, 12, 80, 74
14, 309104, Note_on_c, 12, 80, 0
14, 309120, Note_on_c, 12, 80, 76
14, 309224, Note_on_c, 12, 80, 0
14, 309240, Note_on_c, 12, 80, 76
14, 309344, Note_on_c, 12, 80, 0
14, 309360, Note_on_c, 12, 80, 76
14, 309464, Note_on_c, 12, 80, 0
14, 309480, Note_on_c, 12, 80, 76
14, 309584, Note_on_c, 12, 80, 0
14, 309600, Note_on_c, 12, 80, 76
14, 309704, Note_on_c, 12, 80, 0
14, 309720, Note_on_c, 12, 80, 76
14, 309824, Note_on_c, 12, 80, 0
14, 309840, Note_on_c, 12, 80, 76
14, 309944, Note_on_c, 12, 80, 0
14, 309960, Note_on_c, 12, 80, 76
14, 310064, Note_on_c, 12, 80, 0
14, 310080, Note_on_c, 12, 72, 76
14, 310080, Note_on_c, 12, 81, 76
14, 310184, Note_on_c, 12, 72, 0
14, 310184, Note_on_c, 12, 81, 0
14, 310200, Note_on_c, 12, 81, 76
14, 310200, Note_on_c, 12, 72, 76
14, 310304, Note_on_c, 12, 81, 0
14, 310304, Note_on_c, 12, 72, 0
14, 310320, Note_on_c, 12, 81, 76
14, 310320, Note_on_c, 12, 72, 76
14, 310424, Note_on_c, 12, 81, 0
14, 310424, Note_on_c, 12, 72, 0
14, 310440, Note_on_c, 12, 81, 76
14, 310440, Note_on_c, 12, 72, 76
14, 310544, Note_on_c, 12, 81, 0
14, 310544, Note_on_c, 12, 72, 0
14, 310560, Note_on_c, 12, 72, 76
14, 310560, Note_on_c, 12, 81, 76
14, 310664, Note_on_c, 12, 72, 0
14, 310664, Note_on_c, 12, 81, 0
14, 310680, Note_on_c, 12, 72, 76
14, 310680, Note_on_c, 12, 81, 76
14, 310784, Note_on_c, 12, 72, 0
14, 310784, Note_on_c, 12, 81, 0
14, 310800, Note_on_c, 12, 72, 76
14, 310800, Note_on_c, 12, 81, 76
14, 310904, Note_on_c, 12, 72, 0
14, 310904, Note_on_c, 12, 81, 0
14, 310920, Note_on_c, 12, 81, 76
14, 310920, Note_on_c, 12, 72, 76
14, 311024, Note_on_c, 12, 81, 0
14, 311024, Note_on_c, 12, 72, 0
14, 311040, Note_on_c, 12, 71, 76
14, 311040, Note_on_c, 12, 80, 76
14, 311144, Note_on_c, 12, 71, 0
14, 311144, Note_on_c, 12, 80, 0
14, 311160, Note_on_c, 12, 71, 76
14, 311160, Note_on_c, 12, 80, 76
14, 311264, Note_on_c, 12, 71, 0
14, 311264, Note_on_c, 12, 80, 0
14, 311280, Note_on_c, 12, 80, 76
14, 311280, Note_on_c, 12, 71, 76
14, 311384, Note_on_c, 12, 80, 0
14, 311384, Note_on_c, 12, 71, 0
14, 311400, Note_on_c, 12, 80, 76
14, 311400, Note_on_c, 12, 71, 76
14, 311504, Note_on_c, 12, 80, 0
14, 311504, Note_on_c, 12, 71, 0
14, 311520, Note_on_c, 12, 71, 76
14, 311520, Note_on_c, 12, 80, 76
14, 311624, Note_on_c, 12, 71, 0
14, 311624, Note_on_c, 12, 80, 0
14, 311640, Note_on_c, 12, 71, 76
14, 311640, Note_on_c, 12, 80, 76
14, 311744, Note_on_c, 12, 71, 0
14, 311744, Note_on_c, 12, 80, 0
14, 311760, Note_on_c, 12, 80, 76
14, 311760, Note_on_c, 12, 71, 76
14, 311864, Note_on_c, 12, 80, 0
14, 311864, Note_on_c, 12, 71, 0
14, 311880, Note_on_c, 12, 80, 76
14, 311880, Note_on_c, 12, 71, 76
14, 311984, Note_on_c, 12, 80, 0
14, 311984, Note_on_c, 12, 71, 0
14, 312000, Note_on_c, 12, 79, 76
14, 312000, Note_on_c, 12, 70, 76
14, 312104, Note_on_c, 12, 79, 0
14, 312104, Note_on_c, 12, 70, 0
14, 312120, Note_on_c, 12, 70, 76
14, 312120, Note_on_c, 12, 79, 76
14, 312224, Note_on_c, 12, 70, 0
14, 312224, Note_on_c, 12, 79, 0
14, 312240, Note_on_c, 12, 79, 76
14, 312240, Note_on_c, 12, 70, 76
14, 312344, Note_on_c, 12, 79, 0
14, 312344, Note_on_c, 12, 70, 0
14, 312360, Note_on_c, 12, 79, 76
14, 312360, Note_on_c, 12, 70, 76
14, 312464, Note_on_c, 12, 79, 0
14, 312464, Note_on_c, 12, 70, 0
14, 312480, Note_on_c, 12, 70, 76
14, 312480, Note_on_c, 12, 79, 76
14, 312584, Note_on_c, 12, 70, 0
14, 312584, Note_on_c, 12, 79, 0
14, 312600, Note_on_c, 12, 70, 76
14, 312600, Note_on_c, 12, 79, 76
14, 312704, Note_on_c, 12, 70, 0
14, 312704, Note_on_c, 12, 79, 0
14, 312720, Note_on_c, 12, 79, 76
14, 312720, Note_on_c, 12, 70, 76
14, 312824, Note_on_c, 12, 79, 0
14, 312824, Note_on_c, 12, 70, 0
14, 312840, Note_on_c, 12, 79, 76
14, 312840, Note_on_c, 12, 70, 76
14, 312944, Note_on_c, 12, 79, 0
14, 312944, Note_on_c, 12, 70, 0
14, 312960, Note_on_c, 12, 68, 84
14, 313064, Note_on_c, 12, 68, 0
14, 313080, Note_on_c, 12, 80, 84
14, 313184, Note_on_c, 12, 80, 0
14, 313200, Note_on_c, 12, 80, 84
14, 313304, Note_on_c, 12, 80, 0
14, 313320, Note_on_c, 12, 80, 84
14, 313424, Note_on_c, 12, 80, 0
14, 313440, Note_on_c, 12, 80, 84
14, 313544, Note_on_c, 12, 80, 0
14, 313560, Note_on_c, 12, 80, 84
14, 313664, Note_on_c, 12, 80, 0
14, 313680, Note_on_c, 12, 80, 84
14, 313784, Note_on_c, 12, 80, 0
14, 313800, Note_on_c, 12, 80, 84
14, 313904, Note_on_c, 12, 80, 0
14, 313920, Note_on_c, 12, 80, 84
14, 314024, Note_on_c, 12, 80, 0
14, 314040, Note_on_c, 12, 80, 84
14, 314144, Note_on_c, 12, 80, 0
14, 314160, Note_on_c, 12, 80, 84
14, 314264, Note_on_c, 12, 80, 0
14, 314280, Note_on_c, 12, 80, 84
14, 314384, Note_on_c, 12, 80, 0
14, 314400, Note_on_c, 12, 80, 84
14, 314504, Note_on_c, 12, 80, 0
14, 314520, Note_on_c, 12, 80, 84
14, 314624, Note_on_c, 12, 80, 0
14, 314640, Note_on_c, 12, 80, 84
14, 314744, Note_on_c, 12, 80, 0
14, 314760, Note_on_c, 12, 80, 84
14, 314864, Note_on_c, 12, 80, 0
14, 314880, Note_on_c, 12, 81, 84
14, 314880, Note_on_c, 12, 72, 84
14, 314984, Note_on_c, 12, 81, 0
14, 314984, Note_on_c, 12, 72, 0
14, 315000, Note_on_c, 12, 72, 84
14, 315000, Note_on_c, 12, 81, 84
14, 315104, Note_on_c, 12, 72, 0
14, 315104, Note_on_c, 12, 81, 0
14, 315120, Note_on_c, 12, 81, 84
14, 315120, Note_on_c, 12, 72, 84
14, 315224, Note_on_c, 12, 81, 0
14, 315224, Note_on_c, 12, 72, 0
14, 315240, Note_on_c, 12, 72, 84
14, 315240, Note_on_c, 12, 81, 84
14, 315344, Note_on_c, 12, 72, 0
14, 315344, Note_on_c, 12, 81, 0
14, 315360, Note_on_c, 12, 81, 84
14, 315360, Note_on_c, 12, 72, 84
14, 315464, Note_on_c, 12, 81, 0
14, 315464, Note_on_c, 12, 72, 0
14, 315480, Note_on_c, 12, 81, 84
14, 315480, Note_on_c, 12, 72, 84
14, 315584, Note_on_c, 12, 81, 0
14, 315584, Note_on_c, 12, 72, 0
14, 315600, Note_on_c, 12, 72, 84
14, 315600, Note_on_c, 12, 81, 84
14, 315704, Note_on_c, 12, 72, 0
14, 315704, Note_on_c, 12, 81, 0
14, 315720, Note_on_c, 12, 72, 84
14, 315720, Note_on_c, 12, 81, 84
14, 315824, Note_on_c, 12, 72, 0
14, 315824, Note_on_c, 12, 81, 0
14, 315840, Note_on_c, 12, 70, 84
14, 315840, Note_on_c, 12, 79, 84
14, 315944, Note_on_c, 12, 70, 0
14, 315944, Note_on_c, 12, 79, 0
14, 315960, Note_on_c, 12, 79, 84
14, 315960, Note_on_c, 12, 70, 84
14, 316064, Note_on_c, 12, 79, 0
14, 316064, Note_on_c, 12, 70, 0
14, 316080, Note_on_c, 12, 70, 84
14, 316080, Note_on_c, 12, 79, 84
14, 316184, Note_on_c, 12, 70, 0
14, 316184, Note_on_c, 12, 79, 0
14, 316200, Note_on_c, 12, 70, 84
14, 316200, Note_on_c, 12, 79, 84
14, 316304, Note_on_c, 12, 70, 0
14, 316304, Note_on_c, 12, 79, 0
14, 316320, Note_on_c, 12, 79, 84
14, 316320, Note_on_c, 12, 70, 84
14, 316424, Note_on_c, 12, 79, 0
14, 316424, Note_on_c, 12, 70, 0
14, 316440, Note_on_c, 12, 79, 84
14, 316440, Note_on_c, 12, 70, 84
14, 316544, Note_on_c, 12, 79, 0
14, 316544, Note_on_c, 12, 70, 0
14, 316560, Note_on_c, 12, 70, 84
14, 316560, Note_on_c, 12, 79, 84
14, 316664, Note_on_c, 12, 70, 0
14, 316664, Note_on_c, 12, 79, 0
14, 316680, Note_on_c, 12, 70, 84
14, 316680, Note_on_c, 12, 79, 84
14, 316784, Note_on_c, 12, 70, 0
14, 316784, Note_on_c, 12, 79, 0
14, 316800, Note_on_c, 12, 77, 76
14, 316800, Note_on_c, 12, 69, 76
14, 317024, Note_on_c, 12, 77, 0
14, 317024, Note_on_c, 12, 69, 0
14, 317040, Note_on_c, 12, 69, 76
14, 317504, Note_on_c, 12, 69, 0
14, 317520, Note_on_c, 12, 70, 76
14, 317984, Note_on_c, 12, 70, 0
14, 318000, Note_on_c, 12, 72, 76
14, 318464, Note_on_c, 12, 72, 0
14, 318480, Note_on_c, 12, 65, 76
14, 318944, Note_on_c, 12, 65, 0
14, 318960, Note_on_c, 12, 67, 76
14, 319424, Note_on_c, 12, 67, 0
14, 319440, Note_on_c, 12, 69, 76
14, 319904, Note_on_c, 12, 69, 0
14, 319920, Note_on_c, 12, 60, 76
14, 320384, Note_on_c, 12, 60, 0
14, 320400, Note_on_c, 12, 64, 76
14, 320579, Note_on_c, 12, 64, 0
14, 320640, Note_on_c, 12, 65, 76
14, 320819, Note_on_c, 12, 65, 0
14, 320880, Note_on_c, 12, 69, 76
14, 321344, Note_on_c, 12, 69, 0
14, 321360, Note_on_c, 12, 70, 76
14, 321824, Note_on_c, 12, 70, 0
14, 321840, Note_on_c, 12, 72, 76
14, 322304, Note_on_c, 12, 72, 0
14, 322320, Note_on_c, 12, 65, 76
14, 322784, Note_on_c, 12, 65, 0
14, 322800, Note_on_c, 12, 67, 76
14, 323264, Note_on_c, 12, 67, 0
14, 323280, Note_on_c, 12, 69, 76
14, 323744, Note_on_c, 12, 69, 0
14, 323760, Note_on_c, 12, 60, 76
14, 324224, Note_on_c, 12, 60, 0
14, 324240, Note_on_c, 12, 64, 76
14, 324464, Note_on_c, 12, 64, 0
14, 324480, Note_on_c, 12, 69, 76
14, 324480, Note_on_c, 12, 77, 76
14, 324704, Note_on_c, 12, 69, 0
14, 324704, Note_on_c, 12, 77, 0
14, 324720, Note_on_c, 12, 67, 76
14, 325184, Note_on_c, 12, 67, 0
14, 325200, Note_on_c, 12, 69, 76
14, 325664, Note_on_c, 12, 69, 0
14, 325680, Note_on_c, 12, 70, 76
14, 326144, Note_on_c, 12, 70, 0
14, 326160, Note_on_c, 12, 72, 76
14, 326639, Note_on_c, 12, 72, 0
14, 329280, Note_on_c, 12, 69, 76
14, 329399, Note_on_c, 12, 69, 0
14, 329520, Note_on_c, 12, 72, 76
14, 329639, Note_on_c, 12, 72, 0
14, 329760, Note_on_c, 12, 65, 76
14, 329879, Note_on_c, 12, 65, 0
14, 330000, Note_on_c, 12, 69, 76
14, 330119, Note_on_c, 12, 69, 0
14, 330240, Note_on_c, 12, 60, 76
14, 330479, Note_on_c, 12, 60, 0
14, 333120, Note_on_c, 12, 67, 76
14, 333239, Note_on_c, 12, 67, 0
14, 333360, Note_on_c, 12, 70, 76
14, 333479, Note_on_c, 12, 70, 0
14, 333600, Note_on_c, 12, 64, 76
14, 333719, Note_on_c, 12, 64, 0
14, 333840, Note_on_c, 12, 67, 76
14, 333959, Note_on_c, 12, 67, 0
14, 334080, Note_on_c, 12, 69, 76
14, 334319, Note_on_c, 12, 69, 0
14, 335040, Note_on_c, 12, 69, 76
14, 335159, Note_on_c, 12, 69, 0
14, 335280, Note_on_c, 12, 72, 76
14, 335399, Note_on_c, 12, 72, 0
14, 335520, Note_on_c, 12, 65, 76
14, 335639, Note_on_c, 12, 65, 0
14, 335760, Note_on_c, 12, 69, 76
14, 335879, Note_on_c, 12, 69, 0
14, 336960, Note_on_c, 12, 67, 76
14, 337079, Note_on_c, 12, 67, 0
14, 337200, Note_on_c, 12, 70, 76
14, 337319, Note_on_c, 12, 70, 0
14, 337440, Note_on_c, 12, 62, 76
14, 337559, Note_on_c, 12, 62, 0
14, 337680, Note_on_c, 12, 67, 76
14, 337799, Note_on_c, 12, 67, 0
14, 338880, Note_on_c, 12, 65, 76
14, 338999, Note_on_c, 12, 65, 0
14, 339120, Note_on_c, 12, 69, 76
14, 339239, Note_on_c, 12, 69, 0
14, 339360, Note_on_c, 12, 60, 76
14, 339479, Note_on_c, 12, 60, 0
14, 339600, Note_on_c, 12, 65, 76
14, 339719, Note_on_c, 12, 65, 0
14, 340800, Note_on_c, 12, 60, 76
14, 340919, Note_on_c, 12, 60, 0
14, 341040, Note_on_c, 12, 64, 76
14, 341159, Note_on_c, 12, 64, 0
14, 341280, Note_on_c, 12, 55, 76
14, 341399, Note_on_c, 12, 55, 0
14, 341520, Note_on_c, 12, 60, 76
14, 341639, Note_on_c, 12, 60, 0
14, 341760, Note_on_c, 12, 64, 52
14, 341760, Control_c, 12, 11, 127
14, 341760, Note_on_c, 12, 61, 52
14, 341872, Control_c, 12, 11, 126
14, 341984, Control_c, 12, 11, 125
14, 342096, Control_c, 12, 11, 124
14, 342208, Control_c, 12, 11, 123
14, 342320, Control_c, 12, 11, 122
14, 342432, Control_c, 12, 11, 121
14, 342544, Control_c, 12, 11, 120
14, 342656, Control_c, 12, 11, 119
14, 342719, Note_on_c, 12, 64, 0
14, 342719, Note_on_c, 12, 61, 0
14, 342720, Note_on_c, 12, 61, 52
14, 342720, Note_on_c, 12, 64, 52
14, 342768, Control_c, 12, 11, 118
14, 342880, Control_c, 12, 11, 117
14, 342992, Control_c, 12, 11, 116
14, 343104, Control_c, 12, 11, 115
14, 343216, Control_c, 12, 11, 114
14, 343328, Control_c, 12, 11, 112
14, 343439, Note_on_c, 12, 61, 0
14, 343439, Note_on_c, 12, 64, 0
14, 353280, Control_c, 12, 11, 64
14, 353440, Control_c, 12, 11, 69
14, 353520, Note_on_c, 12, 67, 76
14, 353600, Control_c, 12, 11, 75
14, 353699, Note_on_c, 12, 67, 0
14, 353760, Note_on_c, 12, 64, 76
14, 353760, Control_c, 12, 11, 80
14, 353920, Control_c, 12, 11, 85
14, 353939, Note_on_c, 12, 64, 0
14, 354000, Note_on_c, 12, 67, 76
14, 354080, Control_c, 12, 11, 90
14, 354179, Note_on_c, 12, 67, 0
14, 354240, Note_on_c, 12, 64, 76
14, 354240, Control_c, 12, 11, 96
14, 354400, Control_c, 12, 11, 101
14, 354419, Note_on_c, 12, 64, 0
14, 354480, Note_on_c, 12, 67, 76
14, 354560, Control_c, 12, 11, 106
14, 354659, Note_on_c, 12, 67, 0
14, 354720, Control_c, 12, 11, 111
14, 354720, Note_on_c, 12, 64, 76
14, 354880, Control_c, 12, 11, 117
14, 354899, Note_on_c, 12, 64, 0
14, 354960, Note_on_c, 12, 66, 76
14, 355040, Control_c, 12, 11, 122
14, 355120, Control_c, 12, 11, 127
14, 355139, Note_on_c, 12, 66, 0
14, 355200, Note_on_c, 12, 62, 76
14, 355304, Note_on_c, 12, 62, 0
14, 355320, Note_on_c, 12, 66, 52
14, 355424, Note_on_c, 12, 66, 0
14, 355440, Note_on_c, 12, 66, 52
14, 355544, Note_on_c, 12, 66, 0
14, 355560, Note_on_c, 12, 66, 52
14, 355664, Note_on_c, 12, 66, 0
14, 355680, Note_on_c, 12, 66, 52
14, 355784, Note_on_c, 12, 66, 0
14, 355800, Note_on_c, 12, 66, 52
14, 355904, Note_on_c, 12, 66, 0
14, 355920, Note_on_c, 12, 66, 52
14, 356024, Note_on_c, 12, 66, 0
14, 356040, Note_on_c, 12, 66, 52
14, 356144, Note_on_c, 12, 66, 0
14, 356160, Note_on_c, 12, 66, 52
14, 356264, Note_on_c, 12, 66, 0
14, 356280, Note_on_c, 12, 66, 52
14, 356384, Note_on_c, 12, 66, 0
14, 356400, Note_on_c, 12, 66, 52
14, 356504, Note_on_c, 12, 66, 0
14, 356520, Note_on_c, 12, 66, 52
14, 356624, Note_on_c, 12, 66, 0
14, 356640, Note_on_c, 12, 66, 52
14, 356744, Note_on_c, 12, 66, 0
14, 356760, Note_on_c, 12, 66, 52
14, 356864, Note_on_c, 12, 66, 0
14, 356880, Note_on_c, 12, 66, 52
14, 356984, Note_on_c, 12, 66, 0
14, 357000, Note_on_c, 12, 66, 52
14, 357104, Note_on_c, 12, 66, 0
14, 357120, Note_on_c, 12, 67, 52
14, 357224, Note_on_c, 12, 67, 0
14, 357240, Note_on_c, 12, 67, 52
14, 357344, Note_on_c, 12, 67, 0
14, 357360, Note_on_c, 12, 67, 52
14, 357464, Note_on_c, 12, 67, 0
14, 357480, Note_on_c, 12, 67, 52
14, 357584, Note_on_c, 12, 67, 0
14, 357600, Note_on_c, 12, 67, 52
14, 357704, Note_on_c, 12, 67, 0
14, 357720, Note_on_c, 12, 67, 52
14, 357824, Note_on_c, 12, 67, 0
14, 357840, Note_on_c, 12, 67, 52
14, 357944, Note_on_c, 12, 67, 0
14, 357960, Note_on_c, 12, 67, 52
14, 358064, Note_on_c, 12, 67, 0
14, 358080, Note_on_c, 12, 67, 52
14, 358080, Note_on_c, 12, 69, 52
14, 358184, Note_on_c, 12, 67, 0
14, 358184, Note_on_c, 12, 69, 0
14, 358200, Note_on_c, 12, 67, 52
14, 358200, Note_on_c, 12, 69, 52
14, 358304, Note_on_c, 12, 67, 0
14, 358304, Note_on_c, 12, 69, 0
14, 358320, Note_on_c, 12, 69, 52
14, 358320, Note_on_c, 12, 67, 52
14, 358424, Note_on_c, 12, 69, 0
14, 358424, Note_on_c, 12, 67, 0
14, 358440, Note_on_c, 12, 69, 52
14, 358440, Note_on_c, 12, 67, 52
14, 358544, Note_on_c, 12, 69, 0
14, 358544, Note_on_c, 12, 67, 0
14, 358560, Note_on_c, 12, 69, 52
14, 358560, Note_on_c, 12, 67, 52
14, 358664, Note_on_c, 12, 69, 0
14, 358664, Note_on_c, 12, 67, 0
14, 358680, Note_on_c, 12, 69, 52
14, 358680, Note_on_c, 12, 67, 52
14, 358784, Note_on_c, 12, 69, 0
14, 358784, Note_on_c, 12, 67, 0
14, 358800, Note_on_c, 12, 69, 52
14, 358800, Note_on_c, 12, 67, 52
14, 358904, Note_on_c, 12, 69, 0
14, 358904, Note_on_c, 12, 67, 0
14, 358920, Note_on_c, 12, 69, 52
14, 358920, Note_on_c, 12, 67, 52
14, 359024, Note_on_c, 12, 69, 0
14, 359024, Note_on_c, 12, 67, 0
14, 359040, Note_on_c, 12, 69, 52
14, 359040, Note_on_c, 12, 66, 52
14, 359279, Note_on_c, 12, 69, 0
14, 359279, Note_on_c, 12, 66, 0
14, 359760, Program_c, 12, 45
14, 360000, Note_on_c, 12, 57, 48
14, 360000, Note_on_c, 12, 66, 48
14, 360239, Note_on_c, 12, 57, 0
14, 360239, Note_on_c, 12, 66, 0
14, 360960, Note_on_c, 12, 59, 48
14, 360960, Note_on_c, 12, 67, 48
14, 361199, Note_on_c, 12, 59, 0
14, 361199, Note_on_c, 12, 67, 0
14, 361920, Note_on_c, 12, 67, 48
14, 361920, Note_on_c, 12, 57, 48
14, 362159, Note_on_c, 12, 67, 0
14, 362159, Note_on_c, 12, 57, 0
14, 362880, Note_on_c, 12, 66, 48
14, 362880, Note_on_c, 12, 57, 48
14, 363119, Note_on_c, 12, 66, 0
14, 363119, Note_on_c, 12, 57, 0
14, 363840, Note_on_c, 12, 67, 48
14, 363840, Note_on_c, 12, 58, 48
14, 364079, Note_on_c, 12, 67, 0
14, 364079, Note_on_c, 12, 58, 0
14, 364800, Note_on_c, 12, 67, 48
14, 364800, Note_on_c, 12, 57, 48
14, 365039, Note_on_c, 12, 67, 0
14, 365039, Note_on_c, 12, 57, 0
14, 365760, Note_on_c, 12, 66, 48
14, 365760, Note_on_c, 12, 57, 48
14, 365999, Note_on_c, 12, 66, 0
14, 365999, Note_on_c, 12, 57, 0
14, 366480, Program_c, 12, 48
14, 366720, Note_on_c, 12, 67, 52
14, 367679, Note_on_c, 12, 67, 0
14, 367680, Note_on_c, 12, 67, 52
14, 368159, Note_on_c, 12, 67, 0
14, 368160, Note_on_c, 12, 68, 52
14, 368399, Note_on_c, 12, 68, 0
14, 368400, Note_on_c, 12, 70, 52
14, 368624, Note_on_c, 12, 70, 0
14, 368640, Note_on_c, 12, 72, 52
14, 369119, Note_on_c, 12, 72, 0
14, 369120, Note_on_c, 12, 70, 52
14, 369359, Note_on_c, 12, 70, 0
14, 369360, Note_on_c, 12, 72, 52
14, 369584, Note_on_c, 12, 72, 0
14, 369600, Note_on_c, 12, 74, 52
14, 370079, Note_on_c, 12, 74, 0
14, 370080, Note_on_c, 12, 72, 52
14, 370319, Note_on_c, 12, 72, 0
14, 370320, Note_on_c, 12, 74, 52
14, 370544, Note_on_c, 12, 74, 0
14, 370560, Note_on_c, 12, 75, 52
14, 370799, Note_on_c, 12, 75, 0
14, 371280, Program_c, 12, 45
14, 371520, Note_on_c, 12, 67, 48
14, 371520, Note_on_c, 12, 58, 48
14, 371759, Note_on_c, 12, 67, 0
14, 371759, Note_on_c, 12, 58, 0
14, 372480, Note_on_c, 12, 68, 48
14, 372480, Note_on_c, 12, 60, 48
14, 372719, Note_on_c, 12, 68, 0
14, 372719, Note_on_c, 12, 60, 0
14, 373440, Note_on_c, 12, 68, 48
14, 373440, Note_on_c, 12, 58, 48
14, 373679, Note_on_c, 12, 68, 0
14, 373679, Note_on_c, 12, 58, 0
14, 374160, Control_c, 12, 11, 64
14, 374160, Program_c, 12, 48
14, 374400, Note_on_c, 12, 63, 84
14, 374400, Control_c, 12, 11, 64
14, 374507, Control_c, 12, 11, 66
14, 374613, Control_c, 12, 11, 68
14, 374720, Control_c, 12, 11, 69
14, 374827, Control_c, 12, 11, 71
14, 374933, Control_c, 12, 11, 73
14, 375040, Control_c, 12, 11, 75
14, 375147, Control_c, 12, 11, 76
14, 375253, Control_c, 12, 11, 78
14, 375359, Note_on_c, 12, 63, 0
14, 375360, Note_on_c, 12, 63, 84
14, 375360, Control_c, 12, 11, 80
14, 375467, Control_c, 12, 11, 82
14, 375573, Control_c, 12, 11, 83
14, 375680, Control_c, 12, 11, 85
14, 375787, Control_c, 12, 11, 87
14, 375839, Note_on_c, 12, 63, 0
14, 375840, Note_on_c, 12, 65, 84
14, 375893, Control_c, 12, 11, 89
14, 376000, Control_c, 12, 11, 90
14, 376079, Note_on_c, 12, 65, 0
14, 376080, Note_on_c, 12, 67, 84
14, 376107, Control_c, 12, 11, 92
14, 376213, Control_c, 12, 11, 94
14, 376304, Note_on_c, 12, 67, 0
14, 376320, Control_c, 12, 11, 96
14, 376320, Note_on_c, 12, 68, 84
14, 376427, Control_c, 12, 11, 97
14, 376533, Control_c, 12, 11, 99
14, 376640, Control_c, 12, 11, 101
14, 376747, Control_c, 12, 11, 103
14, 376799, Note_on_c, 12, 68, 0
14, 376800, Note_on_c, 12, 67, 84
14, 376853, Control_c, 12, 11, 104
14, 376960, Control_c, 12, 11, 106
14, 377039, Note_on_c, 12, 67, 0
14, 377040, Note_on_c, 12, 68, 84
14, 377067, Control_c, 12, 11, 108
14, 377173, Control_c, 12, 11, 110
14, 377264, Note_on_c, 12, 68, 0
14, 377280, Note_on_c, 12, 65, 84
14, 377280, Control_c, 12, 11, 111
14, 377387, Control_c, 12, 11, 113
14, 377493, Control_c, 12, 11, 115
14, 377600, Control_c, 12, 11, 117
14, 377707, Control_c, 12, 11, 118
14, 377759, Note_on_c, 12, 65, 0
14, 377760, Note_on_c, 12, 70, 84
14, 377813, Control_c, 12, 11, 120
14, 377920, Control_c, 12, 11, 122
14, 377999, Note_on_c, 12, 70, 0
14, 378027, Control_c, 12, 11, 124
14, 378120, Note_on_c, 12, 70, 84
14, 378133, Control_c, 12, 11, 127
14, 378159, Note_on_c, 12, 70, 0
14, 378160, Note_on_c, 12, 72, 84
14, 378199, Note_on_c, 12, 72, 0
14, 378200, Note_on_c, 12, 74, 84
14, 378231, Note_on_c, 12, 74, 0
14, 378240, Note_on_c, 12, 79, 84
14, 378240, Note_on_c, 12, 70, 84
14, 378344, Note_on_c, 12, 79, 0
14, 378344, Note_on_c, 12, 70, 0
14, 378360, Note_on_c, 12, 79, 84
14, 378360, Note_on_c, 12, 70, 84
14, 378464, Note_on_c, 12, 79, 0
14, 378464, Note_on_c, 12, 70, 0
14, 378480, Note_on_c, 12, 70, 84
14, 378480, Note_on_c, 12, 79, 84
14, 378584, Note_on_c, 12, 70, 0
14, 378584, Note_on_c, 12, 79, 0
14, 378600, Note_on_c, 12, 70, 84
14, 378600, Note_on_c, 12, 79, 84
14, 378704, Note_on_c, 12, 70, 0
14, 378704, Note_on_c, 12, 79, 0
14, 378720, Note_on_c, 12, 79, 84
14, 378720, Note_on_c, 12, 70, 84
14, 378824, Note_on_c, 12, 79, 0
14, 378824, Note_on_c, 12, 70, 0
14, 378840, Note_on_c, 12, 79, 84
14, 378840, Note_on_c, 12, 70, 84
14, 378944, Note_on_c, 12, 79, 0
14, 378944, Note_on_c, 12, 70, 0
14, 378960, Note_on_c, 12, 79, 84
14, 378960, Note_on_c, 12, 70, 84
14, 379064, Note_on_c, 12, 79, 0
14, 379064, Note_on_c, 12, 70, 0
14, 379080, Note_on_c, 12, 79, 84
14, 379080, Note_on_c, 12, 70, 84
14, 379184, Note_on_c, 12, 79, 0
14, 379184, Note_on_c, 12, 70, 0
14, 379200, Note_on_c, 12, 79, 84
14, 379200, Note_on_c, 12, 70, 84
14, 379304, Note_on_c, 12, 79, 0
14, 379304, Note_on_c, 12, 70, 0
14, 379320, Note_on_c, 12, 79, 84
14, 379320, Note_on_c, 12, 70, 84
14, 379424, Note_on_c, 12, 79, 0
14, 379424, Note_on_c, 12, 70, 0
14, 379440, Note_on_c, 12, 79, 84
14, 379440, Note_on_c, 12, 70, 84
14, 379544, Note_on_c, 12, 79, 0
14, 379544, Note_on_c, 12, 70, 0
14, 379560, Note_on_c, 12, 70, 84
14, 379560, Note_on_c, 12, 79, 84
14, 379664, Note_on_c, 12, 70, 0
14, 379664, Note_on_c, 12, 79, 0
14, 379680, Note_on_c, 12, 70, 84
14, 379680, Note_on_c, 12, 79, 84
14, 379784, Note_on_c, 12, 70, 0
14, 379784, Note_on_c, 12, 79, 0
14, 379800, Note_on_c, 12, 70, 84
14, 379800, Note_on_c, 12, 79, 84
14, 379904, Note_on_c, 12, 70, 0
14, 379904, Note_on_c, 12, 79, 0
14, 379920, Note_on_c, 12, 79, 84
14, 379920, Note_on_c, 12, 70, 84
14, 380024, Note_on_c, 12, 79, 0
14, 380024, Note_on_c, 12, 70, 0
14, 380040, Note_on_c, 12, 79, 84
14, 380040, Note_on_c, 12, 70, 84
14, 380144, Note_on_c, 12, 79, 0
14, 380144, Note_on_c, 12, 70, 0
14, 380160, Note_on_c, 12, 79, 84
14, 380160, Note_on_c, 12, 70, 84
14, 380264, Note_on_c, 12, 79, 0
14, 380264, Note_on_c, 12, 70, 0
14, 380280, Note_on_c, 12, 79, 84
14, 380280, Note_on_c, 12, 70, 84
14, 380384, Note_on_c, 12, 79, 0
14, 380384, Note_on_c, 12, 70, 0
14, 380400, Note_on_c, 12, 79, 84
14, 380400, Note_on_c, 12, 70, 84
14, 380504, Note_on_c, 12, 79, 0
14, 380504, Note_on_c, 12, 70, 0
14, 380520, Note_on_c, 12, 70, 84
14, 380520, Note_on_c, 12, 79, 84
14, 380624, Note_on_c, 12, 70, 0
14, 380624, Note_on_c, 12, 79, 0
14, 380640, Note_on_c, 12, 70, 84
14, 380640, Note_on_c, 12, 79, 84
14, 380744, Note_on_c, 12, 70, 0
14, 380744, Note_on_c, 12, 79, 0
14, 380760, Note_on_c, 12, 79, 84
14, 380760, Note_on_c, 12, 70, 84
14, 380864, Note_on_c, 12, 79, 0
14, 380864, Note_on_c, 12, 70, 0
14, 380880, Note_on_c, 12, 79, 84
14, 380880, Note_on_c, 12, 70, 84
14, 380984, Note_on_c, 12, 79, 0
14, 380984, Note_on_c, 12, 70, 0
14, 381000, Note_on_c, 12, 79, 84
14, 381000, Note_on_c, 12, 70, 84
14, 381104, Note_on_c, 12, 79, 0
14, 381104, Note_on_c, 12, 70, 0
14, 381120, Note_on_c, 12, 70, 84
14, 381120, Note_on_c, 12, 79, 84
14, 381224, Note_on_c, 12, 70, 0
14, 381224, Note_on_c, 12, 79, 0
14, 381240, Note_on_c, 12, 79, 84
14, 381240, Note_on_c, 12, 70, 84
14, 381344, Note_on_c, 12, 79, 0
14, 381344, Note_on_c, 12, 70, 0
14, 381360, Note_on_c, 12, 79, 84
14, 381360, Note_on_c, 12, 70, 84
14, 381464, Note_on_c, 12, 79, 0
14, 381464, Note_on_c, 12, 70, 0
14, 381480, Note_on_c, 12, 70, 84
14, 381480, Note_on_c, 12, 79, 84
14, 381584, Note_on_c, 12, 70, 0
14, 381584, Note_on_c, 12, 79, 0
14, 381600, Note_on_c, 12, 70, 84
14, 381600, Note_on_c, 12, 79, 84
14, 381704, Note_on_c, 12, 70, 0
14, 381704, Note_on_c, 12, 79, 0
14, 381720, Note_on_c, 12, 70, 84
14, 381720, Note_on_c, 12, 79, 84
14, 381824, Note_on_c, 12, 70, 0
14, 381824, Note_on_c, 12, 79, 0
14, 381840, Note_on_c, 12, 70, 84
14, 381840, Note_on_c, 12, 79, 84
14, 381944, Note_on_c, 12, 70, 0
14, 381944, Note_on_c, 12, 79, 0
14, 381960, Note_on_c, 12, 70, 84
14, 381960, Note_on_c, 12, 79, 84
14, 382064, Note_on_c, 12, 70, 0
14, 382064, Note_on_c, 12, 79, 0
14, 382080, Note_on_c, 12, 79, 84
14, 382080, Note_on_c, 12, 70, 84
14, 382319, Note_on_c, 12, 79, 0
14, 382319, Note_on_c, 12, 70, 0
14, 382800, Note_on_c, 12, 79, 52
14, 382979, Note_on_c, 12, 79, 0
14, 383040, Note_on_c, 12, 75, 52
14, 383219, Note_on_c, 12, 75, 0
14, 383280, Note_on_c, 12, 79, 52
14, 383459, Note_on_c, 12, 79, 0
14, 383760, Note_on_c, 12, 75, 52
14, 383939, Note_on_c, 12, 75, 0
14, 384000, Note_on_c, 12, 70, 52
14, 384179, Note_on_c, 12, 70, 0
14, 384240, Note_on_c, 12, 75, 52
14, 384419, Note_on_c, 12, 75, 0
14, 384720, Note_on_c, 12, 70, 52
14, 384899, Note_on_c, 12, 70, 0
14, 384960, Note_on_c, 12, 67, 52
14, 385139, Note_on_c, 12, 67, 0
14, 385200, Note_on_c, 12, 70, 52
14, 385379, Note_on_c, 12, 70, 0
14, 385920, Note_on_c, 12, 74, 84
14, 385920, Note_on_c, 12, 77, 84
14, 386024, Note_on_c, 12, 74, 0
14, 386024, Note_on_c, 12, 77, 0
14, 386040, Note_on_c, 12, 77, 84
14, 386040, Note_on_c, 12, 74, 84
14, 386144, Note_on_c, 12, 77, 0
14, 386144, Note_on_c, 12, 74, 0
14, 386160, Note_on_c, 12, 74, 84
14, 386160, Note_on_c, 12, 77, 84
14, 386264, Note_on_c, 12, 74, 0
14, 386264, Note_on_c, 12, 77, 0
14, 386280, Note_on_c, 12, 74, 84
14, 386280, Note_on_c, 12, 77, 84
14, 386384, Note_on_c, 12, 74, 0
14, 386384, Note_on_c, 12, 77, 0
14, 386400, Note_on_c, 12, 77, 84
14, 386400, Note_on_c, 12, 74, 84
14, 386504, Note_on_c, 12, 77, 0
14, 386504, Note_on_c, 12, 74, 0
14, 386520, Note_on_c, 12, 77, 84
14, 386520, Note_on_c, 12, 74, 84
14, 386624, Note_on_c, 12, 77, 0
14, 386624, Note_on_c, 12, 74, 0
14, 386640, Note_on_c, 12, 77, 84
14, 386640, Note_on_c, 12, 74, 84
14, 386744, Note_on_c, 12, 77, 0
14, 386744, Note_on_c, 12, 74, 0
14, 386760, Note_on_c, 12, 77, 84
14, 386760, Note_on_c, 12, 74, 84
14, 386864, Note_on_c, 12, 77, 0
14, 386864, Note_on_c, 12, 74, 0
14, 386880, Note_on_c, 12, 74, 84
14, 386880, Note_on_c, 12, 77, 84
14, 386984, Note_on_c, 12, 74, 0
14, 386984, Note_on_c, 12, 77, 0
14, 387000, Note_on_c, 12, 74, 84
14, 387000, Note_on_c, 12, 77, 84
14, 387104, Note_on_c, 12, 74, 0
14, 387104, Note_on_c, 12, 77, 0
14, 387120, Note_on_c, 12, 77, 84
14, 387120, Note_on_c, 12, 74, 84
14, 387224, Note_on_c, 12, 77, 0
14, 387224, Note_on_c, 12, 74, 0
14, 387240, Note_on_c, 12, 77, 84
14, 387240, Note_on_c, 12, 74, 84
14, 387344, Note_on_c, 12, 77, 0
14, 387344, Note_on_c, 12, 74, 0
14, 387360, Note_on_c, 12, 74, 84
14, 387360, Note_on_c, 12, 77, 84
14, 387464, Note_on_c, 12, 74, 0
14, 387464, Note_on_c, 12, 77, 0
14, 387480, Note_on_c, 12, 77, 84
14, 387480, Note_on_c, 12, 74, 84
14, 387584, Note_on_c, 12, 77, 0
14, 387584, Note_on_c, 12, 74, 0
14, 387600, Note_on_c, 12, 77, 84
14, 387600, Note_on_c, 12, 74, 84
14, 387704, Note_on_c, 12, 77, 0
14, 387704, Note_on_c, 12, 74, 0
14, 387720, Note_on_c, 12, 77, 84
14, 387720, Note_on_c, 12, 74, 84
14, 387824, Note_on_c, 12, 77, 0
14, 387824, Note_on_c, 12, 74, 0
14, 387840, Note_on_c, 12, 74, 84
14, 387840, Note_on_c, 12, 77, 84
14, 387944, Note_on_c, 12, 74, 0
14, 387944, Note_on_c, 12, 77, 0
14, 387960, Note_on_c, 12, 77, 84
14, 387960, Note_on_c, 12, 74, 84
14, 388064, Note_on_c, 12, 77, 0
14, 388064, Note_on_c, 12, 74, 0
14, 388080, Note_on_c, 12, 74, 84
14, 388080, Note_on_c, 12, 77, 84
14, 388184, Note_on_c, 12, 74, 0
14, 388184, Note_on_c, 12, 77, 0
14, 388200, Note_on_c, 12, 74, 84
14, 388200, Note_on_c, 12, 77, 84
14, 388304, Note_on_c, 12, 74, 0
14, 388304, Note_on_c, 12, 77, 0
14, 388320, Note_on_c, 12, 74, 84
14, 388320, Note_on_c, 12, 77, 84
14, 388424, Note_on_c, 12, 74, 0
14, 388424, Note_on_c, 12, 77, 0
14, 388440, Note_on_c, 12, 77, 84
14, 388440, Note_on_c, 12, 74, 84
14, 388544, Note_on_c, 12, 77, 0
14, 388544, Note_on_c, 12, 74, 0
14, 388560, Note_on_c, 12, 74, 84
14, 388560, Note_on_c, 12, 77, 84
14, 388664, Note_on_c, 12, 74, 0
14, 388664, Note_on_c, 12, 77, 0
14, 388680, Note_on_c, 12, 74, 84
14, 388680, Note_on_c, 12, 77, 84
14, 388784, Note_on_c, 12, 74, 0
14, 388784, Note_on_c, 12, 77, 0
14, 388800, Note_on_c, 12, 77, 84
14, 388800, Note_on_c, 12, 74, 84
14, 388904, Note_on_c, 12, 77, 0
14, 388904, Note_on_c, 12, 74, 0
14, 388920, Note_on_c, 12, 77, 84
14, 388920, Note_on_c, 12, 74, 84
14, 389024, Note_on_c, 12, 77, 0
14, 389024, Note_on_c, 12, 74, 0
14, 389040, Note_on_c, 12, 74, 84
14, 389040, Note_on_c, 12, 77, 84
14, 389144, Note_on_c, 12, 74, 0
14, 389144, Note_on_c, 12, 77, 0
14, 389160, Note_on_c, 12, 74, 84
14, 389160, Note_on_c, 12, 77, 84
14, 389264, Note_on_c, 12, 74, 0
14, 389264, Note_on_c, 12, 77, 0
14, 389280, Note_on_c, 12, 77, 84
14, 389280, Note_on_c, 12, 74, 84
14, 389384, Note_on_c, 12, 77, 0
14, 389384, Note_on_c, 12, 74, 0
14, 389400, Note_on_c, 12, 74, 84
14, 389400, Note_on_c, 12, 77, 84
14, 389504, Note_on_c, 12, 74, 0
14, 389504, Note_on_c, 12, 77, 0
14, 389520, Note_on_c, 12, 74, 84
14, 389520, Note_on_c, 12, 77, 84
14, 389624, Note_on_c, 12, 74, 0
14, 389624, Note_on_c, 12, 77, 0
14, 389640, Note_on_c, 12, 74, 84
14, 389640, Note_on_c, 12, 77, 84
14, 389744, Note_on_c, 12, 74, 0
14, 389744, Note_on_c, 12, 77, 0
14, 389760, Note_on_c, 12, 77, 84
14, 389760, Note_on_c, 12, 74, 84
14, 389999, Note_on_c, 12, 77, 0
14, 389999, Note_on_c, 12, 74, 0
14, 390480, Note_on_c, 12, 79, 52
14, 390659, Note_on_c, 12, 79, 0
14, 390720, Note_on_c, 12, 74, 52
14, 390899, Note_on_c, 12, 74, 0
14, 390960, Note_on_c, 12, 79, 52
14, 391139, Note_on_c, 12, 79, 0
14, 391440, Note_on_c, 12, 74, 52
14, 391619, Note_on_c, 12, 74, 0
14, 391680, Note_on_c, 12, 71, 52
14, 391859, Note_on_c, 12, 71, 0
14, 391920, Note_on_c, 12, 74, 52
14, 392099, Note_on_c, 12, 74, 0
14, 392400, Note_on_c, 12, 71, 52
14, 392579, Note_on_c, 12, 71, 0
14, 392640, Note_on_c, 12, 67, 52
14, 392819, Note_on_c, 12, 67, 0
14, 392880, Note_on_c, 12, 71, 52
14, 393059, Note_on_c, 12, 71, 0
14, 393600, Note_on_c, 12, 82, 84
14, 393600, Note_on_c, 12, 73, 84
14, 393704, Note_on_c, 12, 82, 0
14, 393704, Note_on_c, 12, 73, 0
14, 393720, Note_on_c, 12, 73, 84
14, 393720, Note_on_c, 12, 82, 84
14, 393824, Note_on_c, 12, 73, 0
14, 393824, Note_on_c, 12, 82, 0
14, 393840, Note_on_c, 12, 82, 84
14, 393840, Note_on_c, 12, 73, 84
14, 393944, Note_on_c, 12, 82, 0
14, 393944, Note_on_c, 12, 73, 0
14, 393960, Note_on_c, 12, 82, 84
14, 393960, Note_on_c, 12, 73, 84
14, 394064, Note_on_c, 12, 82, 0
14, 394064, Note_on_c, 12, 73, 0
14, 394080, Note_on_c, 12, 73, 84
14, 394080, Note_on_c, 12, 82, 84
14, 394184, Note_on_c, 12, 73, 0
14, 394184, Note_on_c, 12, 82, 0
14, 394200, Note_on_c, 12, 73, 84
14, 394200, Note_on_c, 12, 82, 84
14, 394304, Note_on_c, 12, 73, 0
14, 394304, Note_on_c, 12, 82, 0
14, 394320, Note_on_c, 12, 73, 84
14, 394320, Note_on_c, 12, 82, 84
14, 394424, Note_on_c, 12, 73, 0
14, 394424, Note_on_c, 12, 82, 0
14, 394440, Note_on_c, 12, 73, 84
14, 394440, Note_on_c, 12, 82, 84
14, 394544, Note_on_c, 12, 73, 0
14, 394544, Note_on_c, 12, 82, 0
14, 394560, Note_on_c, 12, 73, 84
14, 394560, Note_on_c, 12, 82, 84
14, 394664, Note_on_c, 12, 73, 0
14, 394664, Note_on_c, 12, 82, 0
14, 394680, Note_on_c, 12, 82, 84
14, 394680, Note_on_c, 12, 73, 84
14, 394784, Note_on_c, 12, 82, 0
14, 394784, Note_on_c, 12, 73, 0
14, 394800, Note_on_c, 12, 82, 84
14, 394800, Note_on_c, 12, 73, 84
14, 394904, Note_on_c, 12, 82, 0
14, 394904, Note_on_c, 12, 73, 0
14, 394920, Note_on_c, 12, 82, 84
14, 394920, Note_on_c, 12, 73, 84
14, 395024, Note_on_c, 12, 82, 0
14, 395024, Note_on_c, 12, 73, 0
14, 395040, Note_on_c, 12, 73, 84
14, 395040, Note_on_c, 12, 82, 84
14, 395144, Note_on_c, 12, 73, 0
14, 395144, Note_on_c, 12, 82, 0
14, 395160, Note_on_c, 12, 82, 84
14, 395160, Note_on_c, 12, 73, 84
14, 395264, Note_on_c, 12, 82, 0
14, 395264, Note_on_c, 12, 73, 0
14, 395280, Note_on_c, 12, 82, 84
14, 395280, Note_on_c, 12, 73, 84
14, 395384, Note_on_c, 12, 82, 0
14, 395384, Note_on_c, 12, 73, 0
14, 395400, Note_on_c, 12, 73, 84
14, 395400, Note_on_c, 12, 82, 84
14, 395504, Note_on_c, 12, 73, 0
14, 395504, Note_on_c, 12, 82, 0
14, 395520, Note_on_c, 12, 82, 84
14, 395520, Note_on_c, 12, 73, 84
14, 395624, Note_on_c, 12, 82, 0
14, 395624, Note_on_c, 12, 73, 0
14, 395640, Note_on_c, 12, 82, 84
14, 395640, Note_on_c, 12, 73, 84
14, 395744, Note_on_c, 12, 82, 0
14, 395744, Note_on_c, 12, 73, 0
14, 395760, Note_on_c, 12, 82, 84
14, 395760, Note_on_c, 12, 73, 84
14, 395864, Note_on_c, 12, 82, 0
14, 395864, Note_on_c, 12, 73, 0
14, 395880, Note_on_c, 12, 73, 84
14, 395880, Note_on_c, 12, 82, 84
14, 395984, Note_on_c, 12, 73, 0
14, 395984, Note_on_c, 12, 82, 0
14, 396000, Note_on_c, 12, 82, 84
14, 396000, Note_on_c, 12, 73, 84
14, 396104, Note_on_c, 12, 82, 0
14, 396104, Note_on_c, 12, 73, 0
14, 396120, Note_on_c, 12, 73, 84
14, 396120, Note_on_c, 12, 82, 84
14, 396224, Note_on_c, 12, 73, 0
14, 396224, Note_on_c, 12, 82, 0
14, 396240, Note_on_c, 12, 82, 84
14, 396240, Note_on_c, 12, 73, 84
14, 396344, Note_on_c, 12, 82, 0
14, 396344, Note_on_c, 12, 73, 0
14, 396360, Note_on_c, 12, 82, 84
14, 396360, Note_on_c, 12, 73, 84
14, 396464, Note_on_c, 12, 82, 0
14, 396464, Note_on_c, 12, 73, 0
14, 396480, Note_on_c, 12, 73, 84
14, 396480, Note_on_c, 12, 82, 84
14, 396584, Note_on_c, 12, 73, 0
14, 396584, Note_on_c, 12, 82, 0
14, 396600, Note_on_c, 12, 82, 84
14, 396600, Note_on_c, 12, 73, 84
14, 396704, Note_on_c, 12, 82, 0
14, 396704, Note_on_c, 12, 73, 0
14, 396720, Note_on_c, 12, 82, 84
14, 396720, Note_on_c, 12, 73, 84
14, 396824, Note_on_c, 12, 82, 0
14, 396824, Note_on_c, 12, 73, 0
14, 396840, Note_on_c, 12, 73, 84
14, 396840, Note_on_c, 12, 82, 84
14, 396944, Note_on_c, 12, 73, 0
14, 396944, Note_on_c, 12, 82, 0
14, 396960, Note_on_c, 12, 82, 84
14, 396960, Note_on_c, 12, 73, 84
14, 397064, Note_on_c, 12, 82, 0
14, 397064, Note_on_c, 12, 73, 0
14, 397080, Note_on_c, 12, 73, 84
14, 397080, Note_on_c, 12, 82, 84
14, 397184, Note_on_c, 12, 73, 0
14, 397184, Note_on_c, 12, 82, 0
14, 397200, Note_on_c, 12, 73, 84
14, 397200, Note_on_c, 12, 82, 84
14, 397304, Note_on_c, 12, 73, 0
14, 397304, Note_on_c, 12, 82, 0
14, 397320, Note_on_c, 12, 73, 84
14, 397320, Note_on_c, 12, 82, 84
14, 397424, Note_on_c, 12, 73, 0
14, 397424, Note_on_c, 12, 82, 0
14, 397440, Note_on_c, 12, 82, 84
14, 397440, Note_on_c, 12, 73, 84
14, 397679, Note_on_c, 12, 82, 0
14, 397679, Note_on_c, 12, 73, 0
14, 398160, Note_on_c, 12, 79, 76
14, 398339, Note_on_c, 12, 79, 0
14, 398400, Note_on_c, 12, 76, 76
14, 398579, Note_on_c, 12, 76, 0
14, 398640, Note_on_c, 12, 79, 76
14, 398819, Note_on_c, 12, 79, 0
14, 399120, Note_on_c, 12, 76, 76
14, 399299, Note_on_c, 12, 76, 0
14, 399360, Note_on_c, 12, 73, 76
14, 399539, Note_on_c, 12, 73, 0
14, 399600, Note_on_c, 12, 76, 76
14, 399779, Note_on_c, 12, 76, 0
14, 400080, Note_on_c, 12, 73, 76
14, 400259, Note_on_c, 12, 73, 0
14, 400320, Note_on_c, 12, 70, 76
14, 400499, Note_on_c, 12, 70, 0
14, 400560, Note_on_c, 12, 73, 76
14, 400739, Note_on_c, 12, 73, 0
14, 401040, Note_on_c, 12, 70, 76
14, 401219, Note_on_c, 12, 70, 0
14, 401280, Note_on_c, 12, 67, 76
14, 401459, Note_on_c, 12, 67, 0
14, 401520, Note_on_c, 12, 70, 73
14, 401699, Note_on_c, 12, 70, 0
14, 402000, Note_on_c, 12, 67, 67
14, 402179, Note_on_c, 12, 67, 0
14, 402240, Note_on_c, 12, 64, 64
14, 402419, Note_on_c, 12, 64, 0
14, 402480, Note_on_c, 12, 67, 61
14, 402659, Note_on_c, 12, 67, 0
14, 402960, Note_on_c, 12, 67, 55
14, 403139, Note_on_c, 12, 67, 0
14, 403200, Note_on_c, 12, 64, 52
14, 403379, Note_on_c, 12, 64, 0
14, 403440, Note_on_c, 12, 67, 52
14, 403619, Note_on_c, 12, 67, 0
14, 403920, Note_on_c, 12, 67, 52
14, 404099, Note_on_c, 12, 67, 0
14, 404160, Note_on_c, 12, 64, 52
14, 404339, Note_on_c, 12, 64, 0
14, 404400, Note_on_c, 12, 67, 52
14, 404579, Note_on_c, 12, 67, 0
14, 404880, Note_on_c, 12, 67, 52
14, 405059, Note_on_c, 12, 67, 0
14, 405120, Note_on_c, 12, 64, 52
14, 405299, Note_on_c, 12, 64, 0
14, 405840, Note_on_c, 12, 67, 44
14, 406019, Note_on_c, 12, 67, 0
14, 406080, Note_on_c, 12, 64, 44
14, 406259, Note_on_c, 12, 64, 0
14, 406800, Note_on_c, 12, 67, 44
14, 406979, Note_on_c, 12, 67, 0
14, 407040, Note_on_c, 12, 64, 44
14, 407219, Note_on_c, 12, 64, 0
14, 407760, Note_on_c, 12, 67, 44
14, 407939, Note_on_c, 12, 67, 0
14, 408000, Note_on_c, 12, 64, 44
14, 408179, Note_on_c, 12, 64, 0
14, 408720, Note_on_c, 12, 67, 44
14, 408899, Note_on_c, 12, 67, 0
14, 408960, Note_on_c, 12, 64, 44
14, 409139, Note_on_c, 12, 64, 0
14, 409680, Note_on_c, 12, 67, 44
14, 409919, Note_on_c, 12, 67, 0
14, 409920, Note_on_c, 12, 64, 44
14, 410159, Note_on_c, 12, 64, 0
14, 410160, Note_on_c, 12, 67, 44
14, 410399, Note_on_c, 12, 67, 0
14, 410640, Note_on_c, 12, 67, 44
14, 410879, Note_on_c, 12, 67, 0
14, 410880, Note_on_c, 12, 64, 44
14, 411119, Note_on_c, 12, 64, 0
14, 411120, Note_on_c, 12, 67, 44
14, 411359, Note_on_c, 12, 67, 0
14, 411600, Note_on_c, 12, 67, 44
14, 411839, Note_on_c, 12, 67, 0
14, 411840, Note_on_c, 12, 64, 44
14, 412079, Note_on_c, 12, 64, 0
14, 412080, Note_on_c, 12, 67, 44
14, 412319, Note_on_c, 12, 67, 0
14, 412560, Note_on_c, 12, 67, 44
14, 412799, Note_on_c, 12, 67, 0
14, 412800, Note_on_c, 12, 64, 44
14, 413039, Note_on_c, 12, 64, 0
14, 416640, Note_on_c, 12, 61, 36
14, 417599, Note_on_c, 12, 61, 0
14, 417600, Note_on_c, 12, 61, 36
14, 418799, Note_on_c, 12, 61, 0
14, 420480, Note_on_c, 12, 61, 36
14, 421439, Note_on_c, 12, 61, 0
14, 421440, Note_on_c, 12, 61, 36
14, 422639, Note_on_c, 12, 61, 0
14, 426240, Note_on_c, 12, 64, 36
14, 427199, Note_on_c, 12, 64, 0
14, 427200, Note_on_c, 12, 64, 36
14, 428399, Note_on_c, 12, 64, 0
14, 428880, Note_on_c, 12, 64, 36
14, 429104, Note_on_c, 12, 64, 0
14, 429120, Note_on_c, 12, 64, 44
14, 429359, Note_on_c, 12, 64, 0
14, 429840, Note_on_c, 12, 64, 44
14, 430064, Note_on_c, 12, 64, 0
14, 430080, Note_on_c, 12, 64, 44
14, 430319, Note_on_c, 12, 64, 0
14, 430800, Note_on_c, 12, 64, 44
14, 431024, Note_on_c, 12, 64, 0
14, 431040, Note_on_c, 12, 64, 44
14, 431279, Note_on_c, 12, 64, 0
14, 431760, Note_on_c, 12, 64, 44
14, 431984, Note_on_c, 12, 64, 0
14, 432000, Note_on_c, 12, 64, 44
14, 432224, Note_on_c, 12, 64, 0
14, 432240, Note_on_c, 12, 68, 44
14, 432479, Note_on_c, 12, 68, 0
14, 432480, Note_on_c, 12, 66, 44
14, 432719, Note_on_c, 12, 66, 0
14, 432720, Note_on_c, 12, 64, 44
14, 432959, Note_on_c, 12, 64, 0
14, 432960, Note_on_c, 12, 63, 44
14, 433199, Note_on_c, 12, 63, 0
14, 433200, Note_on_c, 12, 61, 44
14, 433439, Note_on_c, 12, 61, 0
14, 433440, Note_on_c, 12, 59, 44
14, 433679, Note_on_c, 12, 59, 0
14, 433680, Note_on_c, 12, 58, 44
14, 433919, Note_on_c, 12, 58, 0
14, 437280, Note_on_c, 12, 58, 44
14, 437519, Note_on_c, 12, 58, 0
14, 437520, Note_on_c, 12, 61, 44
14, 438719, Note_on_c, 12, 61, 0
14, 438720, Note_on_c, 12, 61, 44
14, 439664, Note_on_c, 12, 61, 0
14, 439680, Note_on_c, 12, 62, 44
14, 440639, Note_on_c, 12, 62, 0
14, 440640, Note_on_c, 12, 62, 44
14, 441839, Note_on_c, 12, 62, 0
14, 443520, Note_on_c, 12, 62, 44
14, 444479, Note_on_c, 12, 62, 0
14, 444480, Note_on_c, 12, 62, 44
14, 445679, Note_on_c, 12, 62, 0
14, 447240, Note_on_c, 12, 65, 44
14, 447279, Note_on_c, 12, 65, 0
14, 447280, Note_on_c, 12, 67, 44
14, 447319, Note_on_c, 12, 67, 0
14, 447320, Note_on_c, 12, 69, 44
14, 447351, Note_on_c, 12, 69, 0
14, 447360, Note_on_c, 12, 70, 44
14, 448319, Note_on_c, 12, 70, 0
14, 449160, Note_on_c, 12, 62, 44
14, 449219, Note_on_c, 12, 62, 0
14, 449220, Note_on_c, 12, 63, 44
14, 449271, Note_on_c, 12, 63, 0
14, 449280, Note_on_c, 12, 65, 44
14, 450239, Note_on_c, 12, 65, 0
14, 451080, Note_on_c, 12, 58, 44
14, 451139, Note_on_c, 12, 58, 0
14, 451140, Note_on_c, 12, 60, 44
14, 451191, Note_on_c, 12, 60, 0
14, 451200, Note_on_c, 12, 62, 44
14, 452159, Note_on_c, 12, 62, 0
14, 459240, Note_on_c, 12, 58, 44
14, 459299, Note_on_c, 12, 58, 0
14, 459300, Note_on_c, 12, 60, 44
14, 459359, Note_on_c, 12, 60, 0
14, 459360, Note_on_c, 12, 62, 44
14, 459539, Note_on_c, 12, 62, 0
14, 459720, Note_on_c, 12, 62, 46
14, 459779, Note_on_c, 12, 62, 0
14, 459780, Note_on_c, 12, 63, 46
14, 459839, Note_on_c, 12, 63, 0
14, 459840, Note_on_c, 12, 65, 47
14, 460019, Note_on_c, 12, 65, 0
14, 460200, Note_on_c, 12, 65, 49
14, 460239, Note_on_c, 12, 65, 0
14, 460240, Note_on_c, 12, 67, 49
14, 460279, Note_on_c, 12, 67, 0
14, 460280, Note_on_c, 12, 69, 49
14, 460319, Note_on_c, 12, 69, 0
14, 460320, Note_on_c, 12, 70, 49
14, 460499, Note_on_c, 12, 70, 0
14, 460680, Note_on_c, 12, 70, 51
14, 460739, Note_on_c, 12, 70, 0
14, 460740, Note_on_c, 12, 72, 52
14, 460799, Note_on_c, 12, 72, 0
14, 460800, Note_on_c, 12, 74, 52
14, 460979, Note_on_c, 12, 74, 0
14, 461160, Note_on_c, 12, 62, 54
14, 461219, Note_on_c, 12, 62, 0
14, 461220, Note_on_c, 12, 63, 54
14, 461279, Note_on_c, 12, 63, 0
14, 461280, Note_on_c, 12, 65, 55
14, 461459, Note_on_c, 12, 65, 0
14, 461640, Note_on_c, 12, 65, 57
14, 461679, Note_on_c, 12, 65, 0
14, 461680, Note_on_c, 12, 67, 57
14, 461719, Note_on_c, 12, 67, 0
14, 461720, Note_on_c, 12, 69, 57
14, 461759, Note_on_c, 12, 69, 0
14, 461760, Note_on_c, 12, 70, 57
14, 461939, Note_on_c, 12, 70, 0
14, 462120, Note_on_c, 12, 70, 59
14, 462179, Note_on_c, 12, 70, 0
14, 462180, Note_on_c, 12, 72, 60
14, 462239, Note_on_c, 12, 72, 0
14, 462240, Note_on_c, 12, 74, 60
14, 462419, Note_on_c, 12, 74, 0
14, 462600, Note_on_c, 12, 74, 62
14, 462659, Note_on_c, 12, 74, 0
14, 462660, Note_on_c, 12, 75, 62
14, 462719, Note_on_c, 12, 75, 0
14, 462720, Note_on_c, 12, 77, 63
14, 462899, Note_on_c, 12, 77, 0
14, 463080, Note_on_c, 12, 65, 64
14, 463119, Note_on_c, 12, 65, 0
14, 463120, Note_on_c, 12, 67, 65
14, 463159, Note_on_c, 12, 67, 0
14, 463160, Note_on_c, 12, 69, 65
14, 463199, Note_on_c, 12, 69, 0
14, 463200, Note_on_c, 12, 70, 65
14, 463379, Note_on_c, 12, 70, 0
14, 463560, Note_on_c, 12, 70, 67
14, 463619, Note_on_c, 12, 70, 0
14, 463620, Note_on_c, 12, 72, 67
14, 463679, Note_on_c, 12, 72, 0
14, 463680, Note_on_c, 12, 74, 68
14, 463859, Note_on_c, 12, 74, 0
14, 464040, Note_on_c, 12, 74, 70
14, 464099, Note_on_c, 12, 74, 0
14, 464100, Note_on_c, 12, 75, 70
14, 464159, Note_on_c, 12, 75, 0
14, 464160, Note_on_c, 12, 77, 70
14, 464339, Note_on_c, 12, 77, 0
14, 464520, Note_on_c, 12, 77, 72
14, 464559, Note_on_c, 12, 77, 0
14, 464560, Note_on_c, 12, 79, 73
14, 464599, Note_on_c, 12, 79, 0
14, 464600, Note_on_c, 12, 81, 73
14, 464639, Note_on_c, 12, 81, 0
14, 464640, Note_on_c, 12, 82, 73
14, 464819, Note_on_c, 12, 82, 0
14, 465000, Note_on_c, 12, 70, 75
14, 465059, Note_on_c, 12, 70, 0
14, 465060, Note_on_c, 12, 72, 75
14, 465119, Note_on_c, 12, 72, 0
14, 465120, Note_on_c, 12, 74, 76
14, 465299, Note_on_c, 12, 74, 0
14, 465480, Note_on_c, 12, 74, 78
14, 465539, Note_on_c, 12, 74, 0
14, 465540, Note_on_c, 12, 75, 78
14, 465599, Note_on_c, 12, 75, 0
14, 465600, Note_on_c, 12, 77, 78
14, 465779, Note_on_c, 12, 77, 0
14, 465960, Note_on_c, 12, 77, 80
14, 465999, Note_on_c, 12, 77, 0
14, 466000, Note_on_c, 12, 79, 80
14, 466039, Note_on_c, 12, 79, 0
14, 466040, Note_on_c, 12, 81, 81
14, 466079, Note_on_c, 12, 81, 0
14, 466080, Note_on_c, 12, 82, 81
14, 466259, Note_on_c, 12, 82, 0
14, 466440, Note_on_c, 12, 81, 83
14, 466479, Note_on_c, 12, 81, 0
14, 466480, Note_on_c, 12, 82, 83
14, 466519, Note_on_c, 12, 82, 0
14, 466520, Note_on_c, 12, 84, 83
14, 466559, Note_on_c, 12, 84, 0
14, 466560, Note_on_c, 12, 77, 84
14, 466560, Note_on_c, 12, 86, 84
14, 466664, Note_on_c, 12, 77, 0
14, 466664, Note_on_c, 12, 86, 0
14, 466680, Note_on_c, 12, 77, 84
14, 466680, Note_on_c, 12, 86, 84
14, 466784, Note_on_c, 12, 77, 0
14, 466784, Note_on_c, 12, 86, 0
14, 466800, Note_on_c, 12, 77, 84
14, 466800, Note_on_c, 12, 86, 84
14, 466904, Note_on_c, 12, 77, 0
14, 466904, Note_on_c, 12, 86, 0
14, 466920, Note_on_c, 12, 86, 84
14, 466920, Note_on_c, 12, 77, 84
14, 467024, Note_on_c, 12, 86, 0
14, 467024, Note_on_c, 12, 77, 0
14, 467040, Note_on_c, 12, 86, 84
14, 467040, Note_on_c, 12, 77, 84
14, 467144, Note_on_c, 12, 86, 0
14, 467144, Note_on_c, 12, 77, 0
14, 467160, Note_on_c, 12, 86, 84
14, 467160, Note_on_c, 12, 77, 84
14, 467264, Note_on_c, 12, 86, 0
14, 467264, Note_on_c, 12, 77, 0
14, 467280, Note_on_c, 12, 77, 84
14, 467280, Note_on_c, 12, 86, 84
14, 467384, Note_on_c, 12, 77, 0
14, 467384, Note_on_c, 12, 86, 0
14, 467400, Note_on_c, 12, 77, 84
14, 467400, Note_on_c, 12, 86, 84
14, 467504, Note_on_c, 12, 77, 0
14, 467504, Note_on_c, 12, 86, 0
14, 467520, Note_on_c, 12, 86, 84
14, 467520, Note_on_c, 12, 77, 84
14, 467624, Note_on_c, 12, 86, 0
14, 467624, Note_on_c, 12, 77, 0
14, 467640, Note_on_c, 12, 77, 84
14, 467640, Note_on_c, 12, 86, 84
14, 467744, Note_on_c, 12, 77, 0
14, 467744, Note_on_c, 12, 86, 0
14, 467760, Note_on_c, 12, 86, 84
14, 467760, Note_on_c, 12, 77, 84
14, 467864, Note_on_c, 12, 86, 0
14, 467864, Note_on_c, 12, 77, 0
14, 467880, Note_on_c, 12, 86, 84
14, 467880, Note_on_c, 12, 77, 84
14, 467984, Note_on_c, 12, 86, 0
14, 467984, Note_on_c, 12, 77, 0
14, 468000, Note_on_c, 12, 77, 84
14, 468000, Note_on_c, 12, 86, 84
14, 468104, Note_on_c, 12, 77, 0
14, 468104, Note_on_c, 12, 86, 0
14, 468120, Note_on_c, 12, 77, 84
14, 468120, Note_on_c, 12, 86, 84
14, 468224, Note_on_c, 12, 77, 0
14, 468224, Note_on_c, 12, 86, 0
14, 468240, Note_on_c, 12, 86, 84
14, 468240, Note_on_c, 12, 77, 84
14, 468344, Note_on_c, 12, 86, 0
14, 468344, Note_on_c, 12, 77, 0
14, 468360, Note_on_c, 12, 77, 84
14, 468360, Note_on_c, 12, 86, 84
14, 468464, Note_on_c, 12, 77, 0
14, 468464, Note_on_c, 12, 86, 0
14, 468480, Note_on_c, 12, 86, 84
14, 468480, Note_on_c, 12, 77, 84
14, 468584, Note_on_c, 12, 86, 0
14, 468584, Note_on_c, 12, 77, 0
14, 468600, Note_on_c, 12, 77, 84
14, 468600, Note_on_c, 12, 86, 84
14, 468704, Note_on_c, 12, 77, 0
14, 468704, Note_on_c, 12, 86, 0
14, 468720, Note_on_c, 12, 86, 84
14, 468720, Note_on_c, 12, 77, 84
14, 468824, Note_on_c, 12, 86, 0
14, 468824, Note_on_c, 12, 77, 0
14, 468840, Note_on_c, 12, 86, 84
14, 468840, Note_on_c, 12, 77, 84
14, 468944, Note_on_c, 12, 86, 0
14, 468944, Note_on_c, 12, 77, 0
14, 468960, Note_on_c, 12, 86, 84
14, 468960, Note_on_c, 12, 77, 84
14, 469064, Note_on_c, 12, 86, 0
14, 469064, Note_on_c, 12, 77, 0
14, 469080, Note_on_c, 12, 77, 84
14, 469080, Note_on_c, 12, 86, 84
14, 469184, Note_on_c, 12, 77, 0
14, 469184, Note_on_c, 12, 86, 0
14, 469200, Note_on_c, 12, 77, 84
14, 469200, Note_on_c, 12, 86, 84
14, 469304, Note_on_c, 12, 77, 0
14, 469304, Note_on_c, 12, 86, 0
14, 469320, Note_on_c, 12, 82, 84
14, 469379, Note_on_c, 12, 82, 0
14, 469380, Note_on_c, 12, 84, 84
14, 469431, Note_on_c, 12, 84, 0
14, 469440, Note_on_c, 12, 86, 84
14, 469440, Note_on_c, 12, 77, 84
14, 469619, Note_on_c, 12, 86, 0
14, 469619, Note_on_c, 12, 77, 0
14, 469800, Note_on_c, 12, 82, 84
14, 469859, Note_on_c, 12, 82, 0
14, 469860, Note_on_c, 12, 84, 84
14, 469911, Note_on_c, 12, 84, 0
14, 469920, Note_on_c, 12, 77, 84
14, 469920, Note_on_c, 12, 86, 84
14, 470099, Note_on_c, 12, 77, 0
14, 470099, Note_on_c, 12, 86, 0
14, 470280, Note_on_c, 12, 82, 84
14, 470339, Note_on_c, 12, 82, 0
14, 470340, Note_on_c, 12, 84, 84
14, 470391, Note_on_c, 12, 84, 0
14, 470400, Note_on_c, 12, 86, 84
14, 470400, Note_on_c, 12, 77, 84
14, 470519, Note_on_c, 12, 86, 0
14, 470519, Note_on_c, 12, 77, 0
14, 470640, Note_on_c, 12, 82, 84
14, 470759, Note_on_c, 12, 82, 0
14, 470880, Note_on_c, 12, 77, 84
14, 470999, Note_on_c, 12, 77, 0
14, 471120, Note_on_c, 12, 82, 84
14, 471239, Note_on_c, 12, 82, 0
14, 471360, Note_on_c, 12, 74, 84
14, 471479, Note_on_c, 12, 74, 0
14, 471600, Note_on_c, 12, 77, 84
14, 471719, Note_on_c, 12, 77, 0
14, 471840, Note_on_c, 12, 70, 84
14, 471959, Note_on_c, 12, 70, 0
14, 472080, Note_on_c, 12, 74, 84
14, 472199, Note_on_c, 12, 74, 0
14, 472320, Note_on_c, 12, 67, 84
14, 472439, Note_on_c, 12, 67, 0
14, 472560, Note_on_c, 12, 75, 84
14, 472679, Note_on_c, 12, 75, 0
14, 472800, Note_on_c, 12, 72, 84
14, 472919, Note_on_c, 12, 72, 0
14, 473040, Note_on_c, 12, 70, 84
14, 473159, Note_on_c, 12, 70, 0
14, 473280, Note_on_c, 12, 69, 84
14, 473399, Note_on_c, 12, 69, 0
14, 473520, Note_on_c, 12, 77, 84
14, 473639, Note_on_c, 12, 77, 0
14, 473760, Note_on_c, 12, 75, 84
14, 473879, Note_on_c, 12, 75, 0
14, 474000, Note_on_c, 12, 72, 84
14, 474119, Note_on_c, 12, 72, 0
14, 474240, Note_on_c, 12, 70, 76
14, 474344, Note_on_c, 12, 70, 0
14, 474360, Note_on_c, 12, 62, 52
14, 474464, Note_on_c, 12, 62, 0
14, 474480, Note_on_c, 12, 62, 52
14, 474584, Note_on_c, 12, 62, 0
14, 474600, Note_on_c, 12, 62, 52
14, 474704, Note_on_c, 12, 62, 0
14, 474720, Note_on_c, 12, 62, 52
14, 474824, Note_on_c, 12, 62, 0
14, 474840, Note_on_c, 12, 62, 52
14, 474944, Note_on_c, 12, 62, 0
14, 474960, Note_on_c, 12, 62, 52
14, 475064, Note_on_c, 12, 62, 0
14, 475080, Note_on_c, 12, 62, 52
14, 475184, Note_on_c, 12, 62, 0
14, 475200, Note_on_c, 12, 62, 52
14, 475304, Note_on_c, 12, 62, 0
14, 475320, Note_on_c, 12, 62, 52
14, 475424, Note_on_c, 12, 62, 0
14, 475440, Note_on_c, 12, 62, 52
14, 475544, Note_on_c, 12, 62, 0
14, 475560, Note_on_c, 12, 62, 52
14, 475664, Note_on_c, 12, 62, 0
14, 475680, Note_on_c, 12, 62, 52
14, 475784, Note_on_c, 12, 62, 0
14, 475800, Note_on_c, 12, 62, 52
14, 475904, Note_on_c, 12, 62, 0
14, 475920, Note_on_c, 12, 62, 52
14, 476024, Note_on_c, 12, 62, 0
14, 476040, Note_on_c, 12, 62, 52
14, 476144, Note_on_c, 12, 62, 0
14, 476160, Note_on_c, 12, 63, 52
14, 476264, Note_on_c, 12, 63, 0
14, 476280, Note_on_c, 12, 63, 52
14, 476384, Note_on_c, 12, 63, 0
14, 476400, Note_on_c, 12, 63, 52
14, 476504, Note_on_c, 12, 63, 0
14, 476520, Note_on_c, 12, 63, 52
14, 476624, Note_on_c, 12, 63, 0
14, 476640, Note_on_c, 12, 63, 52
14, 476744, Note_on_c, 12, 63, 0
14, 476760, Note_on_c, 12, 63, 52
14, 476864, Note_on_c, 12, 63, 0
14, 476880, Note_on_c, 12, 63, 52
14, 476984, Note_on_c, 12, 63, 0
14, 477000, Note_on_c, 12, 63, 52
14, 477104, Note_on_c, 12, 63, 0
14, 477120, Note_on_c, 12, 60, 52
14, 477120, Note_on_c, 12, 63, 52
14, 477224, Note_on_c, 12, 60, 0
14, 477224, Note_on_c, 12, 63, 0
14, 477240, Note_on_c, 12, 60, 52
14, 477240, Note_on_c, 12, 63, 52
14, 477344, Note_on_c, 12, 60, 0
14, 477344, Note_on_c, 12, 63, 0
14, 477360, Note_on_c, 12, 60, 52
14, 477360, Note_on_c, 12, 63, 52
14, 477464, Note_on_c, 12, 60, 0
14, 477464, Note_on_c, 12, 63, 0
14, 477480, Note_on_c, 12, 63, 52
14, 477480, Note_on_c, 12, 60, 52
14, 477584, Note_on_c, 12, 63, 0
14, 477584, Note_on_c, 12, 60, 0
14, 477600, Note_on_c, 12, 60, 52
14, 477600, Note_on_c, 12, 63, 52
14, 477704, Note_on_c, 12, 60, 0
14, 477704, Note_on_c, 12, 63, 0
14, 477720, Note_on_c, 12, 63, 52
14, 477720, Note_on_c, 12, 60, 52
14, 477824, Note_on_c, 12, 63, 0
14, 477824, Note_on_c, 12, 60, 0
14, 477840, Note_on_c, 12, 63, 52
14, 477840, Note_on_c, 12, 60, 52
14, 477944, Note_on_c, 12, 63, 0
14, 477944, Note_on_c, 12, 60, 0
14, 477960, Note_on_c, 12, 60, 52
14, 477960, Note_on_c, 12, 63, 52
14, 478064, Note_on_c, 12, 60, 0
14, 478064, Note_on_c, 12, 63, 0
14, 478080, Note_on_c, 12, 62, 52
14, 478304, Note_on_c, 12, 62, 0
14, 478320, Note_on_c, 12, 74, 48
14, 478559, Note_on_c, 12, 74, 0
14, 478560, Note_on_c, 12, 72, 48
14, 478799, Note_on_c, 12, 72, 0
14, 478800, Note_on_c, 12, 70, 48
14, 479039, Note_on_c, 12, 70, 0
14, 479040, Note_on_c, 12, 69, 48
14, 479279, Note_on_c, 12, 69, 0
14, 479280, Note_on_c, 12, 67, 48
14, 479519, Note_on_c, 12, 67, 0
14, 479520, Note_on_c, 12, 65, 48
14, 479759, Note_on_c, 12, 65, 0
14, 479760, Note_on_c, 12, 67, 48
14, 479984, Note_on_c, 12, 67, 0
14, 480000, Note_on_c, 12, 63, 48
14, 480959, Note_on_c, 12, 63, 0
14, 480960, Note_on_c, 12, 63, 48
14, 482159, Note_on_c, 12, 63, 0
14, 482880, Control_c, 12, 11, 64
14, 482960, Control_c, 12, 11, 69
14, 483040, Control_c, 12, 11, 75
14, 483120, Note_on_c, 12, 63, 84
14, 483120, Control_c, 12, 11, 80
14, 483200, Control_c, 12, 11, 85
14, 483280, Control_c, 12, 11, 90
14, 483360, Control_c, 12, 11, 96
14, 483440, Control_c, 12, 11, 101
14, 483520, Control_c, 12, 11, 106
14, 483584, Note_on_c, 12, 63, 0
14, 483600, Control_c, 12, 11, 111
14, 483600, Note_on_c, 12, 63, 84
14, 483680, Control_c, 12, 11, 117
14, 483760, Control_c, 12, 11, 122
14, 483824, Note_on_c, 12, 63, 0
14, 483825, Control_c, 12, 11, 127
14, 483840, Note_on_c, 12, 62, 84
14, 484064, Note_on_c, 12, 62, 0
14, 484080, Note_on_c, 12, 70, 84
14, 484184, Note_on_c, 12, 70, 0
14, 484200, Note_on_c, 12, 70, 84
14, 484304, Note_on_c, 12, 70, 0
14, 484320, Note_on_c, 12, 65, 84
14, 484424, Note_on_c, 12, 65, 0
14, 484440, Note_on_c, 12, 65, 84
14, 484544, Note_on_c, 12, 65, 0
14, 484560, Note_on_c, 12, 70, 84
14, 484664, Note_on_c, 12, 70, 0
14, 484680, Note_on_c, 12, 70, 84
14, 484784, Note_on_c, 12, 70, 0
14, 484800, Note_on_c, 12, 62, 84
14, 484904, Note_on_c, 12, 62, 0
14, 484920, Note_on_c, 12, 62, 84
14, 485024, Note_on_c, 12, 62, 0
14, 485040, Note_on_c, 12, 65, 84
14, 485144, Note_on_c, 12, 65, 0
14, 485160, Note_on_c, 12, 65, 84
14, 485264, Note_on_c, 12, 65, 0
14, 485280, Note_on_c, 12, 58, 84
14, 485384, Note_on_c, 12, 58, 0
14, 485400, Note_on_c, 12, 58, 84
14, 485504, Note_on_c, 12, 58, 0
14, 485520, Note_on_c, 12, 62, 84
14, 485624, Note_on_c, 12, 62, 0
14, 485640, Note_on_c, 12, 62, 84
14, 485744, Note_on_c, 12, 62, 0
14, 485760, Note_on_c, 12, 55, 84
14, 485864, Note_on_c, 12, 55, 0
14, 485880, Note_on_c, 12, 55, 84
14, 485984, Note_on_c, 12, 55, 0
14, 486000, Note_on_c, 12, 63, 84
14, 486104, Note_on_c, 12, 63, 0
14, 486120, Note_on_c, 12, 63, 84
14, 486224, Note_on_c, 12, 63, 0
14, 486240, Note_on_c, 12, 60, 84
14, 486344, Note_on_c, 12, 60, 0
14, 486360, Note_on_c, 12, 60, 84
14, 486464, Note_on_c, 12, 60, 0
14, 486480, Note_on_c, 12, 58, 84
14, 486584, Note_on_c, 12, 58, 0
14, 486600, Note_on_c, 12, 58, 84
14, 486704, Note_on_c, 12, 58, 0
14, 486720, Note_on_c, 12, 57, 84
14, 486824, Note_on_c, 12, 57, 0
14, 486840, Note_on_c, 12, 57, 84
14, 486944, Note_on_c, 12, 57, 0
14, 486960, Note_on_c, 12, 65, 84
14, 487064, Note_on_c, 12, 65, 0
14, 487080, Note_on_c, 12, 65, 84
14, 487184, Note_on_c, 12, 65, 0
14, 487200, Note_on_c, 12, 63, 84
14, 487304, Note_on_c, 12, 63, 0
14, 487320, Note_on_c, 12, 63, 84
14, 487424, Note_on_c, 12, 63, 0
14, 487440, Note_on_c, 12, 60, 84
14, 487544, Note_on_c, 12, 60, 0
14, 487560, Note_on_c, 12, 60, 84
14, 487664, Note_on_c, 12, 60, 0
14, 487680, Note_on_c, 12, 58, 84
14, 487784, Note_on_c, 12, 58, 0
14, 487800, Note_on_c, 12, 58, 84
14, 487904, Note_on_c, 12, 58, 0
14, 487920, Note_on_c, 12, 65, 84
14, 488024, Note_on_c, 12, 65, 0
14, 488040, Note_on_c, 12, 65, 84
14, 488144, Note_on_c, 12, 65, 0
14, 488160, Note_on_c, 12, 62, 84
14, 488264, Note_on_c, 12, 62, 0
14, 488280, Note_on_c, 12, 62, 84
14, 488384, Note_on_c, 12, 62, 0
14, 488400, Note_on_c, 12, 60, 84
14, 488504, Note_on_c, 12, 60, 0
14, 488520, Note_on_c, 12, 60, 84
14, 488624, Note_on_c, 12, 60, 0
14, 488640, Note_on_c, 12, 59, 84
14, 488744, Note_on_c, 12, 59, 0
14, 488760, Note_on_c, 12, 59, 84
14, 488864, Note_on_c, 12, 59, 0
14, 488880, Note_on_c, 12, 67, 84
14, 488984, Note_on_c, 12, 67, 0
14, 489000, Note_on_c, 12, 67, 84
14, 489104, Note_on_c, 12, 67, 0
14, 489120, Note_on_c, 12, 62, 84
14, 489224, Note_on_c, 12, 62, 0
14, 489240, Note_on_c, 12, 62, 84
14, 489344, Note_on_c, 12, 62, 0
14, 489360, Note_on_c, 12, 59, 84
14, 489464, Note_on_c, 12, 59, 0
14, 489480, Note_on_c, 12, 59, 84
14, 489584, Note_on_c, 12, 59, 0
14, 489600, Note_on_c, 12, 60, 92
14, 489704, Note_on_c, 12, 60, 0
14, 489720, Note_on_c, 12, 60, 84
14, 489824, Note_on_c, 12, 60, 0
14, 489840, Note_on_c, 12, 67, 84
14, 489944, Note_on_c, 12, 67, 0
14, 489960, Note_on_c, 12, 67, 84
14, 490064, Note_on_c, 12, 67, 0
14, 490080, Note_on_c, 12, 63, 84
14, 490184, Note_on_c, 12, 63, 0
14, 490200, Note_on_c, 12, 63, 84
14, 490304, Note_on_c, 12, 63, 0
14, 490320, Note_on_c, 12, 62, 84
14, 490424, Note_on_c, 12, 62, 0
14, 490440, Note_on_c, 12, 62, 84
14, 490544, Note_on_c, 12, 62, 0
14, 490560, Note_on_c, 12, 60, 92
14, 490664, Note_on_c, 12, 60, 0
14, 490680, Note_on_c, 12, 60, 84
14, 490784, Note_on_c, 12, 60, 0
14, 490800, Note_on_c, 12, 68, 84
14, 490904, Note_on_c, 12, 68, 0
14, 490920, Note_on_c, 12, 68, 84
14, 491024, Note_on_c, 12, 68, 0
14, 491040, Note_on_c, 12, 63, 84
14, 491144, Note_on_c, 12, 63, 0
14, 491160, Note_on_c, 12, 63, 84
14, 491264, Note_on_c, 12, 63, 0
14, 491280, Note_on_c, 12, 60, 84
14, 491384, Note_on_c, 12, 60, 0
14, 491400, Note_on_c, 12, 60, 84
14, 491504, Note_on_c, 12, 60, 0
14, 491520, Note_on_c, 12, 62, 92
14, 491624, Note_on_c, 12, 62, 0
14, 491640, Note_on_c, 12, 62, 84
14, 491744, Note_on_c, 12, 62, 0
14, 491760, Note_on_c, 12, 68, 84
14, 491864, Note_on_c, 12, 68, 0
14, 491880, Note_on_c, 12, 68, 84
14, 491984, Note_on_c, 12, 68, 0
14, 492000, Note_on_c, 12, 65, 84
14, 492104, Note_on_c, 12, 65, 0
14, 492120, Note_on_c, 12, 65, 84
14, 492224, Note_on_c, 12, 65, 0
14, 492240, Note_on_c, 12, 63, 84
14, 492344, Note_on_c, 12, 63, 0
14, 492360, Note_on_c, 12, 63, 84
14, 492464, Note_on_c, 12, 63, 0
14, 492480, Note_on_c, 12, 62, 84
14, 492584, Note_on_c, 12, 62, 0
14, 492600, Note_on_c, 12, 62, 84
14, 492704, Note_on_c, 12, 62, 0
14, 492720, Note_on_c, 12, 70, 84
14, 492824, Note_on_c, 12, 70, 0
14, 492840, Note_on_c, 12, 70, 84
14, 492944, Note_on_c, 12, 70, 0
14, 492960, Note_on_c, 12, 65, 92
14, 493064, Note_on_c, 12, 65, 0
14, 493080, Note_on_c, 12, 65, 84
14, 493184, Note_on_c, 12, 65, 0
14, 493200, Note_on_c, 12, 62, 84
14, 493304, Note_on_c, 12, 62, 0
14, 493320, Note_on_c, 12, 62, 84
14, 493424, Note_on_c, 12, 62, 0
14, 493440, Note_on_c, 12, 63, 84
14, 493544, Note_on_c, 12, 63, 0
14, 493560, Note_on_c, 12, 63, 84
14, 493664, Note_on_c, 12, 63, 0
14, 493680, Note_on_c, 12, 67, 84
14, 493784, Note_on_c, 12, 67, 0
14, 493800, Note_on_c, 12, 67, 84
14, 493904, Note_on_c, 12, 67, 0
14, 493920, Note_on_c, 12, 64, 92
14, 494024, Note_on_c, 12, 64, 0
14, 494040, Note_on_c, 12, 64, 84
14, 494144, Note_on_c, 12, 64, 0
14, 494160, Note_on_c, 12, 72, 84
14, 494264, Note_on_c, 12, 72, 0
14, 494280, Note_on_c, 12, 72, 84
14, 494384, Note_on_c, 12, 72, 0
14, 494400, Note_on_c, 12, 65, 84
14, 494504, Note_on_c, 12, 65, 0
14, 494520, Note_on_c, 12, 65, 84
14, 494624, Note_on_c, 12, 65, 0
14, 494640, Note_on_c, 12, 69, 84
14, 494744, Note_on_c, 12, 69, 0
14, 494760, Note_on_c, 12, 69, 84
14, 494864, Note_on_c, 12, 69, 0
14, 494880, Note_on_c, 12, 66, 84
14, 494984, Note_on_c, 12, 66, 0
14, 495000, Note_on_c, 12, 66, 84
14, 495104, Note_on_c, 12, 66, 0
14, 495120, Note_on_c, 12, 74, 84
14, 495224, Note_on_c, 12, 74, 0
14, 495240, Note_on_c, 12, 74, 84
14, 495344, Note_on_c, 12, 74, 0
14, 495360, Note_on_c, 12, 67, 84
14, 495464, Note_on_c, 12, 67, 0
14, 495480, Note_on_c, 12, 67, 84
14, 495584, Note_on_c, 12, 67, 0
14, 495600, Note_on_c, 12, 70, 84
14, 495704, Note_on_c, 12, 70, 0
14, 495720, Note_on_c, 12, 70, 84
14, 495824, Note_on_c, 12, 70, 0
14, 495840, Note_on_c, 12, 67, 92
14, 495944, Note_on_c, 12, 67, 0
14, 495960, Note_on_c, 12, 67, 84
14, 496064, Note_on_c, 12, 67, 0
14, 496080, Note_on_c, 12, 75, 84
14, 496184, Note_on_c, 12, 75, 0
14, 496200, Note_on_c, 12, 75, 84
14, 496304, Note_on_c, 12, 75, 0
14, 496320, Note_on_c, 12, 68, 84
14, 496424, Note_on_c, 12, 68, 0
14, 496440, Note_on_c, 12, 68, 84
14, 496544, Note_on_c, 12, 68, 0
14, 496560, Note_on_c, 12, 72, 84
14, 496664, Note_on_c, 12, 72, 0
14, 496680, Note_on_c, 12, 72, 84
14, 496784, Note_on_c, 12, 72, 0
14, 496800, Note_on_c, 12, 69, 92
14, 496904, Note_on_c, 12, 69, 0
14, 496920, Note_on_c, 12, 69, 84
14, 497024, Note_on_c, 12, 69, 0
14, 497040, Note_on_c, 12, 72, 84
14, 497144, Note_on_c, 12, 72, 0
14, 497160, Note_on_c, 12, 72, 84
14, 497264, Note_on_c, 12, 72, 0
14, 497280, Note_on_c, 12, 70, 84
14, 497384, Note_on_c, 12, 70, 0
14, 497400, Note_on_c, 12, 70, 84
14, 497504, Note_on_c, 12, 70, 0
14, 497520, Note_on_c, 12, 72, 84
14, 497624, Note_on_c, 12, 72, 0
14, 497640, Note_on_c, 12, 72, 84
14, 497744, Note_on_c, 12, 72, 0
14, 497760, Note_on_c, 12, 74, 84
14, 497864, Note_on_c, 12, 74, 0
14, 497880, Note_on_c, 12, 74, 84
14, 497984, Note_on_c, 12, 74, 0
14, 498000, Note_on_c, 12, 75, 84
14, 498104, Note_on_c, 12, 75, 0
14, 498120, Note_on_c, 12, 75, 84
14, 498224, Note_on_c, 12, 75, 0
14, 498240, Note_on_c, 12, 77, 84
14, 498344, Note_on_c, 12, 77, 0
14, 498360, Note_on_c, 12, 77, 84
14, 498464, Note_on_c, 12, 77, 0
14, 498480, Note_on_c, 12, 75, 84
14, 498584, Note_on_c, 12, 75, 0
14, 498600, Note_on_c, 12, 75, 84
14, 498704, Note_on_c, 12, 75, 0
14, 498720, Note_on_c, 12, 74, 84
14, 498824, Note_on_c, 12, 74, 0
14, 498840, Note_on_c, 12, 74, 84
14, 498944, Note_on_c, 12, 74, 0
14, 498960, Note_on_c, 12, 72, 84
14, 499064, Note_on_c, 12, 72, 0
14, 499080, Note_on_c, 12, 72, 84
14, 499184, Note_on_c, 12, 72, 0
14, 499200, Note_on_c, 12, 70, 84
14, 499304, Note_on_c, 12, 70, 0
14, 499320, Note_on_c, 12, 70, 84
14, 499424, Note_on_c, 12, 70, 0
14, 499440, Note_on_c, 12, 69, 84
14, 499544, Note_on_c, 12, 69, 0
14, 499560, Note_on_c, 12, 69, 84
14, 499664, Note_on_c, 12, 69, 0
14, 499680, Note_on_c, 12, 67, 84
14, 499784, Note_on_c, 12, 67, 0
14, 499800, Note_on_c, 12, 67, 84
14, 499904, Note_on_c, 12, 67, 0
14, 499920, Note_on_c, 12, 65, 84
14, 500024, Note_on_c, 12, 65, 0
14, 500040, Note_on_c, 12, 65, 84
14, 500144, Note_on_c, 12, 65, 0
14, 500160, Note_on_c, 12, 63, 84
14, 500264, Note_on_c, 12, 63, 0
14, 500280, Note_on_c, 12, 63, 84
14, 500384, Note_on_c, 12, 63, 0
14, 500400, Note_on_c, 12, 62, 84
14, 500504, Note_on_c, 12, 62, 0
14, 500520, Note_on_c, 12, 62, 84
14, 500624, Note_on_c, 12, 62, 0
14, 500640, Note_on_c, 12, 60, 84
14, 500744, Note_on_c, 12, 60, 0
14, 500760, Note_on_c, 12, 60, 84
14, 500864, Note_on_c, 12, 60, 0
14, 500880, Note_on_c, 12, 58, 84
14, 500984, Note_on_c, 12, 58, 0
14, 501000, Note_on_c, 12, 58, 84
14, 501104, Note_on_c, 12, 58, 0
14, 501120, Note_on_c, 12, 65, 84
14, 501359, Note_on_c, 12, 65, 0
14, 504240, Note_on_c, 12, 64, 92
14, 504719, Note_on_c, 12, 64, 0
14, 504720, Note_on_c, 12, 65, 84
14, 504944, Note_on_c, 12, 65, 0
14, 504960, Note_on_c, 12, 65, 84
14, 505139, Note_on_c, 12, 65, 0
14, 505200, Note_on_c, 12, 69, 84
14, 505664, Note_on_c, 12, 69, 0
14, 505680, Note_on_c, 12, 70, 84
14, 506144, Note_on_c, 12, 70, 0
14, 506160, Note_on_c, 12, 72, 84
14, 506624, Note_on_c, 12, 72, 0
14, 506640, Note_on_c, 12, 65, 84
14, 507104, Note_on_c, 12, 65, 0
14, 507120, Note_on_c, 12, 69, 84
14, 507584, Note_on_c, 12, 69, 0
14, 507600, Note_on_c, 12, 70, 84
14, 508064, Note_on_c, 12, 70, 0
14, 508080, Note_on_c, 12, 73, 92
14, 508559, Note_on_c, 12, 73, 0
14, 508560, Note_on_c, 12, 72, 84
14, 508784, Note_on_c, 12, 72, 0
14, 508800, Note_on_c, 12, 65, 76
14, 508919, Note_on_c, 12, 65, 0
14, 508920, Note_on_c, 12, 65, 52
14, 509759, Note_on_c, 12, 65, 0
14, 509760, Note_on_c, 12, 65, 52
14, 510719, Note_on_c, 12, 65, 0
14, 510720, Note_on_c, 12, 65, 52
14, 511679, Note_on_c, 12, 65, 0
14, 511680, Note_on_c, 12, 65, 52
14, 512159, Note_on_c, 12, 65, 0
14, 512160, Note_on_c, 12, 63, 52
14, 512399, Note_on_c, 12, 63, 0
14, 512400, Note_on_c, 12, 60, 52
14, 512624, Note_on_c, 12, 60, 0
14, 512640, Note_on_c, 12, 58, 52
14, 513599, Note_on_c, 12, 58, 0
14, 513600, Note_on_c, 12, 58, 52
14, 514559, Note_on_c, 12, 58, 0
14, 514560, Note_on_c, 12, 58, 52
14, 515519, Note_on_c, 12, 58, 0
14, 515520, Note_on_c, 12, 58, 52
14, 516479, Note_on_c, 12, 58, 0
14, 516480, Note_on_c, 12, 58, 52
14, 517439, Note_on_c, 12, 58, 0
14, 517440, Note_on_c, 12, 58, 52
14, 518384, Note_on_c, 12, 58, 0
14, 518400, Note_on_c, 12, 57, 52
14, 518624, Note_on_c, 12, 57, 0
14, 518640, Note_on_c, 12, 57, 52
14, 518864, Note_on_c, 12, 57, 0
14, 518880, Note_on_c, 12, 62, 52
14, 519119, Note_on_c, 12, 62, 0
14, 519600, Note_on_c, 12, 58, 52
14, 519824, Note_on_c, 12, 58, 0
14, 519840, Note_on_c, 12, 62, 52
14, 520079, Note_on_c, 12, 62, 0
14, 520560, Note_on_c, 12, 60, 52
14, 520784, Note_on_c, 12, 60, 0
14, 520800, Note_on_c, 12, 62, 52
14, 521039, Note_on_c, 12, 62, 0
14, 521520, Note_on_c, 12, 58, 52
14, 521744, Note_on_c, 12, 58, 0
14, 521760, Note_on_c, 12, 62, 52
14, 521999, Note_on_c, 12, 62, 0
14, 522240, Note_on_c, 12, 57, 52
14, 523199, Note_on_c, 12, 57, 0
14, 523200, Note_on_c, 12, 58, 52
14, 524159, Note_on_c, 12, 58, 0
14, 524160, Note_on_c, 12, 60, 52
14, 525119, Note_on_c, 12, 60, 0
14, 525120, Note_on_c, 12, 58, 52
14, 526064, Note_on_c, 12, 58, 0
14, 526078, Control_c, 12, 11, 64
14, 526080, Note_on_c, 12, 62, 76
14, 526080, Control_c, 12, 11, 64
14, 526248, Control_c, 12, 11, 65
14, 526415, Control_c, 12, 11, 66
14, 526439, Note_on_c, 12, 62, 0
14, 526560, Note_on_c, 12, 63, 76
14, 526583, Control_c, 12, 11, 67
14, 526750, Control_c, 12, 11, 68
14, 526918, Control_c, 12, 11, 69
14, 526919, Note_on_c, 12, 63, 0
14, 527040, Note_on_c, 12, 60, 76
14, 527086, Control_c, 12, 11, 70
14, 527253, Control_c, 12, 11, 71
14, 527399, Note_on_c, 12, 60, 0
14, 527421, Control_c, 12, 11, 72
14, 527520, Note_on_c, 12, 64, 76
14, 527589, Control_c, 12, 11, 73
14, 527756, Control_c, 12, 11, 74
14, 527879, Note_on_c, 12, 64, 0
14, 527924, Control_c, 12, 11, 75
14, 528000, Note_on_c, 12, 65, 76
14, 528091, Control_c, 12, 11, 76
14, 528259, Control_c, 12, 11, 77
14, 528359, Note_on_c, 12, 65, 0
14, 528427, Control_c, 12, 11, 78
14, 528480, Note_on_c, 12, 62, 76
14, 528594, Control_c, 12, 11, 79
14, 528762, Control_c, 12, 11, 80
14, 528839, Note_on_c, 12, 62, 0
14, 528930, Control_c, 12, 11, 81
14, 528960, Note_on_c, 12, 65, 76
14, 529097, Control_c, 12, 11, 82
14, 529265, Control_c, 12, 11, 83
14, 529319, Note_on_c, 12, 65, 0
14, 529432, Control_c, 12, 11, 84
14, 529440, Note_on_c, 12, 67, 76
14, 529600, Control_c, 12, 11, 85
14, 529768, Control_c, 12, 11, 86
14, 529799, Note_on_c, 12, 67, 0
14, 529920, Note_on_c, 12, 63, 76
14, 529935, Control_c, 12, 11, 87
14, 530103, Control_c, 12, 11, 88
14, 530270, Control_c, 12, 11, 89
14, 530279, Note_on_c, 12, 63, 0
14, 530400, Note_on_c, 12, 67, 76
14, 530438, Control_c, 12, 11, 90
14, 530606, Control_c, 12, 11, 91
14, 530759, Note_on_c, 12, 67, 0
14, 530773, Control_c, 12, 11, 92
14, 530880, Note_on_c, 12, 69, 76
14, 530941, Control_c, 12, 11, 93
14, 531109, Control_c, 12, 11, 94
14, 531239, Note_on_c, 12, 69, 0
14, 531276, Control_c, 12, 11, 95
14, 531360, Note_on_c, 12, 65, 76
14, 531444, Control_c, 12, 11, 96
14, 531611, Control_c, 12, 11, 97
14, 531719, Note_on_c, 12, 65, 0
14, 531779, Control_c, 12, 11, 98
14, 531840, Note_on_c, 12, 69, 76
14, 531947, Control_c, 12, 11, 99
14, 532114, Control_c, 12, 11, 100
14, 532199, Note_on_c, 12, 69, 0
14, 532282, Control_c, 12, 11, 101
14, 532320, Note_on_c, 12, 70, 76
14, 532450, Control_c, 12, 11, 102
14, 532617, Control_c, 12, 11, 103
14, 532679, Note_on_c, 12, 70, 0
14, 532785, Control_c, 12, 11, 104
14, 532800, Note_on_c, 12, 67, 76
14, 532952, Control_c, 12, 11, 105
14, 533120, Control_c, 12, 11, 106
14, 533159, Note_on_c, 12, 67, 0
14, 533280, Note_on_c, 12, 71, 76
14, 533288, Control_c, 12, 11, 107
14, 533455, Control_c, 12, 11, 108
14, 533623, Control_c, 12, 11, 109
14, 533639, Note_on_c, 12, 71, 0
14, 533760, Note_on_c, 12, 60, 76
14, 533790, Control_c, 12, 11, 110
14, 533958, Control_c, 12, 11, 111
14, 534119, Note_on_c, 12, 60, 0
14, 534126, Control_c, 12, 11, 112
14, 534240, Note_on_c, 12, 57, 76
14, 534293, Control_c, 12, 11, 113
14, 534461, Control_c, 12, 11, 114
14, 534599, Note_on_c, 12, 57, 0
14, 534629, Control_c, 12, 11, 115
14, 534720, Note_on_c, 12, 60, 76
14, 534796, Control_c, 12, 11, 116
14, 534964, Control_c, 12, 11, 117
14, 535079, Note_on_c, 12, 60, 0
14, 535131, Control_c, 12, 11, 118
14, 535200, Note_on_c, 12, 62, 76
14, 535299, Control_c, 12, 11, 119
14, 535467, Control_c, 12, 11, 120
14, 535559, Note_on_c, 12, 62, 0
14, 535634, Control_c, 12, 11, 121
14, 535680, Note_on_c, 12, 63, 76
14, 535802, Control_c, 12, 11, 122
14, 535970, Control_c, 12, 11, 123
14, 536039, Note_on_c, 12, 63, 0
14, 536137, Control_c, 12, 11, 124
14, 536160, Note_on_c, 12, 64, 76
14, 536305, Control_c, 12, 11, 125
14, 536472, Control_c, 12, 11, 127
14, 536519, Note_on_c, 12, 64, 0
14, 536640, Note_on_c, 12, 65, 76
14, 536999, Note_on_c, 12, 65, 0
14, 537120, Note_on_c, 12, 65, 76
14, 537120, Note_on_c, 12, 72, 76
14, 537479, Note_on_c, 12, 65, 0
14, 537479, Note_on_c, 12, 72, 0
14, 537600, Note_on_c, 12, 65, 76
14, 537600, Note_on_c, 12, 72, 76
14, 537959, Note_on_c, 12, 65, 0
14, 537959, Note_on_c, 12, 72, 0
14, 538080, Note_on_c, 12, 72, 76
14, 538080, Note_on_c, 12, 65, 76
14, 538439, Note_on_c, 12, 72, 0
14, 538439, Note_on_c, 12, 65, 0
14, 538560, Note_on_c, 12, 72, 76
14, 538560, Note_on_c, 12, 65, 76
14, 538919, Note_on_c, 12, 72, 0
14, 538919, Note_on_c, 12, 65, 0
14, 539040, Note_on_c, 12, 65, 76
14, 539040, Note_on_c, 12, 72, 76
14, 539399, Note_on_c, 12, 65, 0
14, 539399, Note_on_c, 12, 72, 0
14, 539520, Note_on_c, 12, 74, 76
14, 539520, Note_on_c, 12, 65, 76
14, 539744, Note_on_c, 12, 74, 0
14, 539744, Note_on_c, 12, 65, 0
14, 539760, Note_on_c, 12, 70, 76
14, 540224, Note_on_c, 12, 70, 0
14, 540240, Note_on_c, 12, 70, 76
14, 540464, Note_on_c, 12, 70, 0
14, 540480, Note_on_c, 12, 70, 76
14, 540704, Note_on_c, 12, 70, 0
14, 540720, Note_on_c, 12, 67, 76
14, 541184, Note_on_c, 12, 67, 0
14, 541200, Note_on_c, 12, 72, 76
14, 541424, Note_on_c, 12, 72, 0
14, 541440, Note_on_c, 12, 70, 76
14, 541664, Note_on_c, 12, 70, 0
14, 541680, Note_on_c, 12, 65, 76
14, 542144, Note_on_c, 12, 65, 0
14, 542160, Note_on_c, 12, 70, 76
14, 542384, Note_on_c, 12, 70, 0
14, 542400, Note_on_c, 12, 65, 76
14, 542624, Note_on_c, 12, 65, 0
14, 542640, Note_on_c, 12, 65, 76
14, 542640, Note_on_c, 12, 69, 76
14, 542864, Note_on_c, 12, 65, 0
14, 542864, Note_on_c, 12, 69, 0
14, 542880, Note_on_c, 12, 69, 76
14, 542880, Note_on_c, 12, 65, 76
14, 543104, Note_on_c, 12, 69, 0
14, 543104, Note_on_c, 12, 65, 0
14, 543120, Note_on_c, 12, 69, 76
14, 543120, Note_on_c, 12, 65, 76
14, 543344, Note_on_c, 12, 69, 0
14, 543344, Note_on_c, 12, 65, 0
14, 543360, Note_on_c, 12, 65, 76
14, 543360, Note_on_c, 12, 70, 76
14, 543599, Note_on_c, 12, 65, 0
14, 543599, Note_on_c, 12, 70, 0
14, 543600, Note_on_c, 12, 65, 76
14, 543824, Note_on_c, 12, 65, 0
14, 543840, Note_on_c, 12, 67, 76
14, 544079, Note_on_c, 12, 67, 0
14, 544080, Note_on_c, 12, 72, 76
14, 544304, Note_on_c, 12, 72, 0
14, 544320, Note_on_c, 12, 65, 76
14, 544559, Note_on_c, 12, 65, 0
14, 544560, Note_on_c, 12, 70, 76
14, 544784, Note_on_c, 12, 70, 0
14, 544800, Note_on_c, 12, 63, 76
14, 545039, Note_on_c, 12, 63, 0
14, 545040, Note_on_c, 12, 69, 76
14, 545264, Note_on_c, 12, 69, 0
14, 545280, Note_on_c, 12, 62, 52
14, 545519, Note_on_c, 12, 62, 0
14, 552720, Note_on_c, 12, 77, 76
14, 552824, Note_on_c, 12, 77, 0
14, 552840, Note_on_c, 12, 77, 76
14, 552944, Note_on_c, 12, 77, 0
14, 552960, Note_on_c, 12, 74, 76
14, 553064, Note_on_c, 12, 74, 0
14, 553080, Note_on_c, 12, 74, 76
14, 553184, Note_on_c, 12, 74, 0
14, 553200, Note_on_c, 12, 75, 76
14, 553304, Note_on_c, 12, 75, 0
14, 553320, Note_on_c, 12, 75, 76
14, 553424, Note_on_c, 12, 75, 0
14, 553440, Note_on_c, 12, 77, 76
14, 553544, Note_on_c, 12, 77, 0
14, 553560, Note_on_c, 12, 77, 76
14, 553664, Note_on_c, 12, 77, 0
14, 553680, Note_on_c, 12, 65, 76
14, 553784, Note_on_c, 12, 65, 0
14, 553800, Note_on_c, 12, 65, 76
14, 553904, Note_on_c, 12, 65, 0
14, 553920, Note_on_c, 12, 70, 76
14, 554624, Note_on_c, 12, 70, 0
14, 554640, Note_on_c, 12, 72, 76
14, 554744, Note_on_c, 12, 72, 0
14, 554760, Note_on_c, 12, 72, 76
14, 554864, Note_on_c, 12, 72, 0
14, 554880, Note_on_c, 12, 74, 76
14, 554984, Note_on_c, 12, 74, 0
14, 555000, Note_on_c, 12, 74, 76
14, 555104, Note_on_c, 12, 74, 0
14, 555120, Note_on_c, 12, 70, 76
14, 555224, Note_on_c, 12, 70, 0
14, 555240, Note_on_c, 12, 70, 76
14, 555344, Note_on_c, 12, 70, 0
14, 555360, Note_on_c, 12, 74, 76
14, 555464, Note_on_c, 12, 74, 0
14, 555480, Note_on_c, 12, 74, 76
14, 555584, Note_on_c, 12, 74, 0
14, 555600, Note_on_c, 12, 75, 76
14, 555704, Note_on_c, 12, 75, 0
14, 555720, Note_on_c, 12, 75, 76
14, 555824, Note_on_c, 12, 75, 0
14, 555840, Note_on_c, 12, 77, 76
14, 556544, Note_on_c, 12, 77, 0
14, 556560, Note_on_c, 12, 67, 76
14, 556664, Note_on_c, 12, 67, 0
14, 556680, Note_on_c, 12, 67, 76
14, 556784, Note_on_c, 12, 67, 0
14, 556800, Note_on_c, 12, 69, 76
14, 556904, Note_on_c, 12, 69, 0
14, 556920, Note_on_c, 12, 69, 76
14, 557024, Note_on_c, 12, 69, 0
14, 557040, Note_on_c, 12, 70, 76
14, 557144, Note_on_c, 12, 70, 0
14, 557160, Note_on_c, 12, 70, 76
14, 557264, Note_on_c, 12, 70, 0
14, 557280, Note_on_c, 12, 72, 76
14, 557384, Note_on_c, 12, 72, 0
14, 557400, Note_on_c, 12, 72, 76
14, 557504, Note_on_c, 12, 72, 0
14, 557520, Note_on_c, 12, 70, 76
14, 557624, Note_on_c, 12, 70, 0
14, 557640, Note_on_c, 12, 70, 76
14, 557744, Note_on_c, 12, 70, 0
14, 557760, Note_on_c, 12, 69, 76
14, 558464, Note_on_c, 12, 69, 0
14, 558480, Note_on_c, 12, 67, 76
14, 558584, Note_on_c, 12, 67, 0
14, 558600, Note_on_c, 12, 67, 76
14, 558704, Note_on_c, 12, 67, 0
14, 558720, Note_on_c, 12, 65, 76
14, 558824, Note_on_c, 12, 65, 0
14, 558840, Note_on_c, 12, 65, 76
14, 558944, Note_on_c, 12, 65, 0
14, 558960, Note_on_c, 12, 67, 76
14, 559064, Note_on_c, 12, 67, 0
14, 559080, Note_on_c, 12, 67, 76
14, 559184, Note_on_c, 12, 67, 0
14, 559200, Note_on_c, 12, 63, 76
14, 559304, Note_on_c, 12, 63, 0
14, 559320, Note_on_c, 12, 63, 76
14, 559424, Note_on_c, 12, 63, 0
14, 559440, Note_on_c, 12, 60, 76
14, 559544, Note_on_c, 12, 60, 0
14, 559560, Note_on_c, 12, 60, 76
14, 559664, Note_on_c, 12, 60, 0
14, 559680, Note_on_c, 12, 57, 76
14, 560639, Note_on_c, 12, 57, 0
14, 562560, Note_on_c, 12, 75, 44
14, 562664, Note_on_c, 12, 75, 0
14, 562680, Note_on_c, 12, 75, 44
14, 562784, Note_on_c, 12, 75, 0
14, 562800, Note_on_c, 12, 75, 44
14, 562904, Note_on_c, 12, 75, 0
14, 562920, Note_on_c, 12, 75, 44
14, 563024, Note_on_c, 12, 75, 0
14, 563040, Note_on_c, 12, 75, 44
14, 563144, Note_on_c, 12, 75, 0
14, 563160, Note_on_c, 12, 75, 44
14, 563264, Note_on_c, 12, 75, 0
14, 563280, Note_on_c, 12, 75, 44
14, 563384, Note_on_c, 12, 75, 0
14, 563400, Note_on_c, 12, 75, 44
14, 563504, Note_on_c, 12, 75, 0
14, 563520, Note_on_c, 12, 75, 44
14, 563624, Note_on_c, 12, 75, 0
14, 563640, Note_on_c, 12, 75, 44
14, 563744, Note_on_c, 12, 75, 0
14, 563760, Note_on_c, 12, 75, 44
14, 563864, Note_on_c, 12, 75, 0
14, 563880, Note_on_c, 12, 75, 44
14, 563984, Note_on_c, 12, 75, 0
14, 564000, Note_on_c, 12, 75, 44
14, 564104, Note_on_c, 12, 75, 0
14, 564120, Note_on_c, 12, 75, 44
14, 564224, Note_on_c, 12, 75, 0
14, 564240, Note_on_c, 12, 75, 44
14, 564344, Note_on_c, 12, 75, 0
14, 564360, Note_on_c, 12, 75, 44
14, 564464, Note_on_c, 12, 75, 0
14, 564480, Note_on_c, 12, 62, 84
14, 564480, Note_on_c, 12, 74, 84
14, 564719, Note_on_c, 12, 62, 0
14, 564719, Note_on_c, 12, 74, 0
14, 565200, Note_on_c, 12, 62, 84
14, 565424, Note_on_c, 12, 62, 0
14, 565440, Note_on_c, 12, 67, 84
14, 565679, Note_on_c, 12, 67, 0
14, 565920, Note_on_c, 12, 60, 84
14, 565920, Note_on_c, 12, 63, 84
14, 566159, Note_on_c, 12, 60, 0
14, 566159, Note_on_c, 12, 63, 0
14, 566400, Note_on_c, 12, 75, 44
14, 566504, Note_on_c, 12, 75, 0
14, 566520, Note_on_c, 12, 75, 44
14, 566624, Note_on_c, 12, 75, 0
14, 566640, Note_on_c, 12, 75, 44
14, 566744, Note_on_c, 12, 75, 0
14, 566760, Note_on_c, 12, 75, 44
14, 566864, Note_on_c, 12, 75, 0
14, 566880, Note_on_c, 12, 75, 44
14, 566984, Note_on_c, 12, 75, 0
14, 567000, Note_on_c, 12, 75, 44
14, 567104, Note_on_c, 12, 75, 0
14, 567120, Note_on_c, 12, 75, 44
14, 567224, Note_on_c, 12, 75, 0
14, 567240, Note_on_c, 12, 75, 44
14, 567344, Note_on_c, 12, 75, 0
14, 567360, Note_on_c, 12, 75, 44
14, 567464, Note_on_c, 12, 75, 0
14, 567480, Note_on_c, 12, 75, 44
14, 567584, Note_on_c, 12, 75, 0
14, 567600, Note_on_c, 12, 75, 44
14, 567704, Note_on_c, 12, 75, 0
14, 567720, Note_on_c, 12, 75, 44
14, 567824, Note_on_c, 12, 75, 0
14, 567840, Note_on_c, 12, 75, 44
14, 567944, Note_on_c, 12, 75, 0
14, 567960, Note_on_c, 12, 75, 44
14, 568064, Note_on_c, 12, 75, 0
14, 568080, Note_on_c, 12, 75, 44
14, 568184, Note_on_c, 12, 75, 0
14, 568200, Note_on_c, 12, 75, 44
14, 568304, Note_on_c, 12, 75, 0
14, 568320, Note_on_c, 12, 62, 84
14, 568320, Note_on_c, 12, 74, 84
14, 568559, Note_on_c, 12, 62, 0
14, 568559, Note_on_c, 12, 74, 0
14, 569040, Note_on_c, 12, 62, 84
14, 569040, Note_on_c, 12, 58, 84
14, 569264, Note_on_c, 12, 62, 0
14, 569264, Note_on_c, 12, 58, 0
14, 569280, Note_on_c, 12, 67, 84
14, 569519, Note_on_c, 12, 67, 0
14, 569760, Note_on_c, 12, 60, 84
14, 569760, Note_on_c, 12, 63, 84
14, 569999, Note_on_c, 12, 60, 0
14, 569999, Note_on_c, 12, 63, 0
14, 570240, Note_on_c, 12, 73, 44
14, 570344, Note_on_c, 12, 73, 0
14, 570360, Note_on_c, 12, 73, 46
14, 570464, Note_on_c, 12, 73, 0
14, 570480, Note_on_c, 12, 73, 48
14, 570584, Note_on_c, 12, 73, 0
14, 570600, Note_on_c, 12, 73, 50
14, 570704, Note_on_c, 12, 73, 0
14, 570720, Note_on_c, 12, 73, 52
14, 570824, Note_on_c, 12, 73, 0
14, 570840, Note_on_c, 12, 73, 54
14, 570944, Note_on_c, 12, 73, 0
14, 570960, Note_on_c, 12, 73, 56
14, 571064, Note_on_c, 12, 73, 0
14, 571080, Note_on_c, 12, 73, 58
14, 571184, Note_on_c, 12, 73, 0
14, 571200, Note_on_c, 12, 73, 60
14, 571304, Note_on_c, 12, 73, 0
14, 571320, Note_on_c, 12, 73, 62
14, 571424, Note_on_c, 12, 73, 0
14, 571440, Note_on_c, 12, 73, 64
14, 571544, Note_on_c, 12, 73, 0
14, 571560, Note_on_c, 12, 73, 66
14, 571664, Note_on_c, 12, 73, 0
14, 571680, Note_on_c, 12, 73, 68
14, 571784, Note_on_c, 12, 73, 0
14, 571800, Note_on_c, 12, 73, 70
14, 571904, Note_on_c, 12, 73, 0
14, 571920, Note_on_c, 12, 73, 72
14, 572024, Note_on_c, 12, 73, 0
14, 572040, Note_on_c, 12, 73, 74
14, 572144, Note_on_c, 12, 73, 0
14, 572160, Note_on_c, 12, 73, 76
14, 572264, Note_on_c, 12, 73, 0
14, 572280, Note_on_c, 12, 73, 76
14, 572384, Note_on_c, 12, 73, 0
14, 572400, Note_on_c, 12, 73, 76
14, 572504, Note_on_c, 12, 73, 0
14, 572520, Note_on_c, 12, 73, 76
14, 572624, Note_on_c, 12, 73, 0
14, 572640, Note_on_c, 12, 73, 76
14, 572744, Note_on_c, 12, 73, 0
14, 572760, Note_on_c, 12, 73, 76
14, 572864, Note_on_c, 12, 73, 0
14, 572880, Note_on_c, 12, 73, 76
14, 572984, Note_on_c, 12, 73, 0
14, 573000, Note_on_c, 12, 73, 76
14, 573104, Note_on_c, 12, 73, 0
14, 573120, Note_on_c, 12, 74, 76
14, 573224, Note_on_c, 12, 74, 0
14, 573240, Note_on_c, 12, 74, 76
14, 573344, Note_on_c, 12, 74, 0
14, 573360, Note_on_c, 12, 74, 76
14, 573464, Note_on_c, 12, 74, 0
14, 573480, Note_on_c, 12, 74, 76
14, 573584, Note_on_c, 12, 74, 0
14, 573600, Note_on_c, 12, 74, 76
14, 573704, Note_on_c, 12, 74, 0
14, 573720, Note_on_c, 12, 74, 76
14, 573824, Note_on_c, 12, 74, 0
14, 573840, Note_on_c, 12, 74, 76
14, 573944, Note_on_c, 12, 74, 0
14, 573960, Note_on_c, 12, 74, 76
14, 574064, Note_on_c, 12, 74, 0
14, 574080, Note_on_c, 12, 64, 76
14, 574080, Note_on_c, 12, 73, 76
14, 574184, Note_on_c, 12, 64, 0
14, 574184, Note_on_c, 12, 73, 0
14, 574200, Note_on_c, 12, 73, 76
14, 574200, Note_on_c, 12, 64, 76
14, 574304, Note_on_c, 12, 73, 0
14, 574304, Note_on_c, 12, 64, 0
14, 574320, Note_on_c, 12, 64, 76
14, 574320, Note_on_c, 12, 73, 76
14, 574424, Note_on_c, 12, 64, 0
14, 574424, Note_on_c, 12, 73, 0
14, 574440, Note_on_c, 12, 73, 76
14, 574440, Note_on_c, 12, 64, 76
14, 574544, Note_on_c, 12, 73, 0
14, 574544, Note_on_c, 12, 64, 0
14, 574560, Note_on_c, 12, 73, 76
14, 574560, Note_on_c, 12, 64, 76
14, 574664, Note_on_c, 12, 73, 0
14, 574664, Note_on_c, 12, 64, 0
14, 574680, Note_on_c, 12, 64, 76
14, 574680, Note_on_c, 12, 73, 76
14, 574784, Note_on_c, 12, 64, 0
14, 574784, Note_on_c, 12, 73, 0
14, 574800, Note_on_c, 12, 64, 76
14, 574800, Note_on_c, 12, 73, 76
14, 574904, Note_on_c, 12, 64, 0
14, 574904, Note_on_c, 12, 73, 0
14, 574920, Note_on_c, 12, 64, 76
14, 574920, Note_on_c, 12, 73, 76
14, 575024, Note_on_c, 12, 64, 0
14, 575024, Note_on_c, 12, 73, 0
14, 575040, Note_on_c, 12, 72, 76
14, 575040, Note_on_c, 12, 63, 76
14, 575144, Note_on_c, 12, 72, 0
14, 575144, Note_on_c, 12, 63, 0
14, 575160, Note_on_c, 12, 72, 76
14, 575160, Note_on_c, 12, 63, 76
14, 575264, Note_on_c, 12, 72, 0
14, 575264, Note_on_c, 12, 63, 0
14, 575280, Note_on_c, 12, 63, 76
14, 575280, Note_on_c, 12, 72, 76
14, 575384, Note_on_c, 12, 63, 0
14, 575384, Note_on_c, 12, 72, 0
14, 575400, Note_on_c, 12, 63, 76
14, 575400, Note_on_c, 12, 72, 76
14, 575504, Note_on_c, 12, 63, 0
14, 575504, Note_on_c, 12, 72, 0
14, 575520, Note_on_c, 12, 72, 76
14, 575520, Note_on_c, 12, 63, 76
14, 575624, Note_on_c, 12, 72, 0
14, 575624, Note_on_c, 12, 63, 0
14, 575640, Note_on_c, 12, 63, 76
14, 575640, Note_on_c, 12, 72, 76
14, 575744, Note_on_c, 12, 63, 0
14, 575744, Note_on_c, 12, 72, 0
14, 575760, Note_on_c, 12, 72, 76
14, 575760, Note_on_c, 12, 63, 76
14, 575864, Note_on_c, 12, 72, 0
14, 575864, Note_on_c, 12, 63, 0
14, 575880, Note_on_c, 12, 72, 76
14, 575880, Note_on_c, 12, 63, 76
14, 575984, Note_on_c, 12, 72, 0
14, 575984, Note_on_c, 12, 63, 0
14, 576000, Note_on_c, 12, 73, 84
14, 576104, Note_on_c, 12, 73, 0
14, 576120, Note_on_c, 12, 73, 84
14, 576120, Note_on_c, 12, 64, 84
14, 576224, Note_on_c, 12, 73, 0
14, 576224, Note_on_c, 12, 64, 0
14, 576240, Note_on_c, 12, 64, 84
14, 576240, Note_on_c, 12, 73, 84
14, 576344, Note_on_c, 12, 64, 0
14, 576344, Note_on_c, 12, 73, 0
14, 576360, Note_on_c, 12, 73, 84
14, 576360, Note_on_c, 12, 64, 84
14, 576464, Note_on_c, 12, 73, 0
14, 576464, Note_on_c, 12, 64, 0
14, 576480, Note_on_c, 12, 73, 84
14, 576480, Note_on_c, 12, 64, 84
14, 576584, Note_on_c, 12, 73, 0
14, 576584, Note_on_c, 12, 64, 0
14, 576600, Note_on_c, 12, 73, 84
14, 576600, Note_on_c, 12, 64, 84
14, 576704, Note_on_c, 12, 73, 0
14, 576704, Note_on_c, 12, 64, 0
14, 576720, Note_on_c, 12, 64, 84
14, 576720, Note_on_c, 12, 73, 84
14, 576824, Note_on_c, 12, 64, 0
14, 576824, Note_on_c, 12, 73, 0
14, 576840, Note_on_c, 12, 73, 84
14, 576840, Note_on_c, 12, 64, 84
14, 576944, Note_on_c, 12, 73, 0
14, 576944, Note_on_c, 12, 64, 0
14, 576960, Note_on_c, 12, 73, 84
14, 576960, Note_on_c, 12, 64, 84
14, 577064, Note_on_c, 12, 73, 0
14, 577064, Note_on_c, 12, 64, 0
14, 577080, Note_on_c, 12, 73, 84
14, 577080, Note_on_c, 12, 64, 84
14, 577184, Note_on_c, 12, 73, 0
14, 577184, Note_on_c, 12, 64, 0
14, 577200, Note_on_c, 12, 73, 84
14, 577200, Note_on_c, 12, 64, 84
14, 577304, Note_on_c, 12, 73, 0
14, 577304, Note_on_c, 12, 64, 0
14, 577320, Note_on_c, 12, 64, 84
14, 577320, Note_on_c, 12, 73, 84
14, 577424, Note_on_c, 12, 64, 0
14, 577424, Note_on_c, 12, 73, 0
14, 577440, Note_on_c, 12, 73, 84
14, 577440, Note_on_c, 12, 64, 84
14, 577544, Note_on_c, 12, 73, 0
14, 577544, Note_on_c, 12, 64, 0
14, 577560, Note_on_c, 12, 73, 84
14, 577560, Note_on_c, 12, 64, 84
14, 577664, Note_on_c, 12, 73, 0
14, 577664, Note_on_c, 12, 64, 0
14, 577680, Note_on_c, 12, 64, 84
14, 577680, Note_on_c, 12, 73, 84
14, 577784, Note_on_c, 12, 64, 0
14, 577784, Note_on_c, 12, 73, 0
14, 577800, Note_on_c, 12, 73, 84
14, 577800, Note_on_c, 12, 64, 84
14, 577904, Note_on_c, 12, 73, 0
14, 577904, Note_on_c, 12, 64, 0
14, 577920, Note_on_c, 12, 65, 92
14, 577920, Note_on_c, 12, 74, 92
14, 578024, Note_on_c, 12, 65, 0
14, 578024, Note_on_c, 12, 74, 0
14, 578040, Note_on_c, 12, 65, 84
14, 578040, Note_on_c, 12, 74, 84
14, 578144, Note_on_c, 12, 65, 0
14, 578144, Note_on_c, 12, 74, 0
14, 578160, Note_on_c, 12, 74, 84
14, 578160, Note_on_c, 12, 65, 84
14, 578264, Note_on_c, 12, 74, 0
14, 578264, Note_on_c, 12, 65, 0
14, 578280, Note_on_c, 12, 65, 84
14, 578280, Note_on_c, 12, 74, 84
14, 578384, Note_on_c, 12, 65, 0
14, 578384, Note_on_c, 12, 74, 0
14, 578400, Note_on_c, 12, 65, 84
14, 578400, Note_on_c, 12, 74, 84
14, 578504, Note_on_c, 12, 65, 0
14, 578504, Note_on_c, 12, 74, 0
14, 578520, Note_on_c, 12, 74, 84
14, 578520, Note_on_c, 12, 65, 84
14, 578624, Note_on_c, 12, 74, 0
14, 578624, Note_on_c, 12, 65, 0
14, 578640, Note_on_c, 12, 65, 84
14, 578640, Note_on_c, 12, 74, 84
14, 578744, Note_on_c, 12, 65, 0
14, 578744, Note_on_c, 12, 74, 0
14, 578760, Note_on_c, 12, 65, 84
14, 578760, Note_on_c, 12, 74, 84
14, 578864, Note_on_c, 12, 65, 0
14, 578864, Note_on_c, 12, 74, 0
14, 578880, Note_on_c, 12, 75, 84
14, 578880, Note_on_c, 12, 65, 84
14, 578984, Note_on_c, 12, 75, 0
14, 578984, Note_on_c, 12, 65, 0
14, 579000, Note_on_c, 12, 65, 84
14, 579000, Note_on_c, 12, 75, 84
14, 579104, Note_on_c, 12, 65, 0
14, 579104, Note_on_c, 12, 75, 0
14, 579120, Note_on_c, 12, 75, 84
14, 579120, Note_on_c, 12, 65, 84
14, 579224, Note_on_c, 12, 75, 0
14, 579224, Note_on_c, 12, 65, 0
14, 579240, Note_on_c, 12, 75, 84
14, 579240, Note_on_c, 12, 65, 84
14, 579344, Note_on_c, 12, 75, 0
14, 579344, Note_on_c, 12, 65, 0
14, 579360, Note_on_c, 12, 75, 84
14, 579360, Note_on_c, 12, 65, 84
14, 579464, Note_on_c, 12, 75, 0
14, 579464, Note_on_c, 12, 65, 0
14, 579480, Note_on_c, 12, 65, 84
14, 579480, Note_on_c, 12, 75, 84
14, 579584, Note_on_c, 12, 65, 0
14, 579584, Note_on_c, 12, 75, 0
14, 579600, Note_on_c, 12, 65, 84
14, 579600, Note_on_c, 12, 75, 84
14, 579704, Note_on_c, 12, 65, 0
14, 579704, Note_on_c, 12, 75, 0
14, 579720, Note_on_c, 12, 65, 84
14, 579720, Note_on_c, 12, 75, 84
14, 579824, Note_on_c, 12, 65, 0
14, 579824, Note_on_c, 12, 75, 0
14, 579840, Note_on_c, 12, 65, 84
14, 579840, Note_on_c, 12, 74, 84
14, 579944, Note_on_c, 12, 65, 0
14, 579944, Note_on_c, 12, 74, 0
14, 579960, Note_on_c, 12, 65, 84
14, 580064, Note_on_c, 12, 65, 0
14, 580080, Note_on_c, 12, 65, 84
14, 580184, Note_on_c, 12, 65, 0
14, 580200, Note_on_c, 12, 65, 84
14, 580304, Note_on_c, 12, 65, 0
14, 580320, Note_on_c, 12, 62, 84
14, 580424, Note_on_c, 12, 62, 0
14, 580440, Note_on_c, 12, 65, 84
14, 580544, Note_on_c, 12, 65, 0
14, 580560, Note_on_c, 12, 65, 84
14, 580664, Note_on_c, 12, 65, 0
14, 580680, Note_on_c, 12, 65, 84
14, 580784, Note_on_c, 12, 65, 0
14, 580800, Note_on_c, 12, 62, 84
14, 580904, Note_on_c, 12, 62, 0
14, 580920, Note_on_c, 12, 65, 84
14, 581024, Note_on_c, 12, 65, 0
14, 581040, Note_on_c, 12, 65, 84
14, 581144, Note_on_c, 12, 65, 0
14, 581160, Note_on_c, 12, 65, 84
14, 581264, Note_on_c, 12, 65, 0
14, 581280, Note_on_c, 12, 62, 84
14, 581384, Note_on_c, 12, 62, 0
14, 581400, Note_on_c, 12, 65, 84
14, 581504, Note_on_c, 12, 65, 0
14, 581520, Note_on_c, 12, 65, 84
14, 581624, Note_on_c, 12, 65, 0
14, 581640, Note_on_c, 12, 65, 84
14, 581744, Note_on_c, 12, 65, 0
14, 581760, Note_on_c, 12, 62, 84
14, 581864, Note_on_c, 12, 62, 0
14, 581880, Note_on_c, 12, 65, 84
14, 581984, Note_on_c, 12, 65, 0
14, 582000, Note_on_c, 12, 65, 84
14, 582104, Note_on_c, 12, 65, 0
14, 582120, Note_on_c, 12, 65, 84
14, 582224, Note_on_c, 12, 65, 0
14, 582240, Note_on_c, 12, 62, 84
14, 582344, Note_on_c, 12, 62, 0
14, 582360, Note_on_c, 12, 65, 84
14, 582464, Note_on_c, 12, 65, 0
14, 582480, Note_on_c, 12, 65, 84
14, 582584, Note_on_c, 12, 65, 0
14, 582600, Note_on_c, 12, 65, 84
14, 582704, Note_on_c, 12, 65, 0
14, 582720, Note_on_c, 12, 62, 84
14, 582824, Note_on_c, 12, 62, 0
14, 582840, Note_on_c, 12, 62, 84
14, 582944, Note_on_c, 12, 62, 0
14, 582960, Note_on_c, 12, 63, 84
14, 583064, Note_on_c, 12, 63, 0
14, 583080, Note_on_c, 12, 63, 84
14, 583184, Note_on_c, 12, 63, 0
14, 583200, Note_on_c, 12, 60, 84
14, 583304, Note_on_c, 12, 60, 0
14, 583320, Note_on_c, 12, 60, 84
14, 583424, Note_on_c, 12, 60, 0
14, 583440, Note_on_c, 12, 63, 84
14, 583544, Note_on_c, 12, 63, 0
14, 583560, Note_on_c, 12, 63, 84
14, 583664, Note_on_c, 12, 63, 0
14, 583680, Note_on_c, 12, 62, 84
14, 583784, Note_on_c, 12, 62, 0
14, 583800, Note_on_c, 12, 65, 84
14, 583904, Note_on_c, 12, 65, 0
14, 583920, Note_on_c, 12, 65, 84
14, 584024, Note_on_c, 12, 65, 0
14, 584040, Note_on_c, 12, 65, 84
14, 584144, Note_on_c, 12, 65, 0
14, 584160, Note_on_c, 12, 62, 84
14, 584264, Note_on_c, 12, 62, 0
14, 584280, Note_on_c, 12, 65, 84
14, 584384, Note_on_c, 12, 65, 0
14, 584400, Note_on_c, 12, 65, 84
14, 584504, Note_on_c, 12, 65, 0
14, 584520, Note_on_c, 12, 65, 84
14, 584624, Note_on_c, 12, 65, 0
14, 584640, Note_on_c, 12, 62, 84
14, 584744, Note_on_c, 12, 62, 0
14, 584760, Note_on_c, 12, 65, 84
14, 584864, Note_on_c, 12, 65, 0
14, 584880, Note_on_c, 12, 65, 84
14, 584984, Note_on_c, 12, 65, 0
14, 585000, Note_on_c, 12, 65, 84
14, 585104, Note_on_c, 12, 65, 0
14, 585120, Note_on_c, 12, 62, 84
14, 585224, Note_on_c, 12, 62, 0
14, 585240, Note_on_c, 12, 65, 84
14, 585344, Note_on_c, 12, 65, 0
14, 585360, Note_on_c, 12, 65, 84
14, 585464, Note_on_c, 12, 65, 0
14, 585480, Note_on_c, 12, 65, 84
14, 585584, Note_on_c, 12, 65, 0
14, 585600, Note_on_c, 12, 62, 84
14, 585704, Note_on_c, 12, 62, 0
14, 585720, Note_on_c, 12, 65, 84
14, 585824, Note_on_c, 12, 65, 0
14, 585840, Note_on_c, 12, 65, 84
14, 585944, Note_on_c, 12, 65, 0
14, 585960, Note_on_c, 12, 65, 84
14, 586064, Note_on_c, 12, 65, 0
14, 586080, Note_on_c, 12, 62, 84
14, 586184, Note_on_c, 12, 62, 0
14, 586200, Note_on_c, 12, 65, 84
14, 586304, Note_on_c, 12, 65, 0
14, 586320, Note_on_c, 12, 65, 84
14, 586424, Note_on_c, 12, 65, 0
14, 586440, Note_on_c, 12, 65, 84
14, 586544, Note_on_c, 12, 65, 0
14, 586560, Note_on_c, 12, 62, 84
14, 586664, Note_on_c, 12, 62, 0
14, 586680, Note_on_c, 12, 62, 84
14, 586784, Note_on_c, 12, 62, 0
14, 586800, Note_on_c, 12, 63, 84
14, 586904, Note_on_c, 12, 63, 0
14, 586920, Note_on_c, 12, 63, 84
14, 587024, Note_on_c, 12, 63, 0
14, 587040, Note_on_c, 12, 60, 84
14, 587144, Note_on_c, 12, 60, 0
14, 587160, Note_on_c, 12, 60, 84
14, 587264, Note_on_c, 12, 60, 0
14, 587280, Note_on_c, 12, 63, 84
14, 587384, Note_on_c, 12, 63, 0
14, 587400, Note_on_c, 12, 63, 84
14, 587504, Note_on_c, 12, 63, 0
14, 587520, Note_on_c, 12, 62, 84
14, 587744, Note_on_c, 12, 62, 0
14, 587760, Note_on_c, 12, 72, 84
14, 588224, Note_on_c, 12, 72, 0
14, 588240, Note_on_c, 12, 74, 84
14, 588704, Note_on_c, 12, 74, 0
14, 588720, Note_on_c, 12, 65, 84
14, 589184, Note_on_c, 12, 65, 0
14, 589200, Note_on_c, 12, 81, 84
14, 589200, Note_on_c, 12, 69, 84
14, 589424, Note_on_c, 12, 81, 0
14, 589424, Note_on_c, 12, 69, 0
14, 589440, Note_on_c, 12, 69, 84
14, 589440, Note_on_c, 12, 81, 84
14, 590399, Note_on_c, 12, 69, 0
14, 590399, Note_on_c, 12, 81, 0
14, 590400, Note_on_c, 12, 81, 84
14, 590400, Note_on_c, 12, 69, 84
14, 591104, Note_on_c, 12, 81, 0
14, 591104, Note_on_c, 12, 69, 0
14, 591120, Note_on_c, 12, 77, 84
14, 591179, Note_on_c, 12, 77, 0
14, 591180, Note_on_c, 12, 79, 84
14, 591239, Note_on_c, 12, 79, 0
14, 591240, Note_on_c, 12, 81, 84
14, 591299, Note_on_c, 12, 81, 0
14, 591300, Note_on_c, 12, 82, 84
14, 591351, Note_on_c, 12, 82, 0
14, 591360, Note_on_c, 12, 84, 84
14, 591360, Note_on_c, 12, 69, 84
14, 591539, Note_on_c, 12, 84, 0
14, 591539, Note_on_c, 12, 69, 0
14, 592080, Note_on_c, 12, 77, 84
14, 592139, Note_on_c, 12, 77, 0
14, 592140, Note_on_c, 12, 79, 84
14, 592199, Note_on_c, 12, 79, 0
14, 592200, Note_on_c, 12, 81, 84
14, 592259, Note_on_c, 12, 81, 0
14, 592260, Note_on_c, 12, 82, 84
14, 592311, Note_on_c, 12, 82, 0
14, 592320, Note_on_c, 12, 84, 84
14, 592320, Note_on_c, 12, 69, 84
14, 592499, Note_on_c, 12, 84, 0
14, 592499, Note_on_c, 12, 69, 0
14, 593040, Note_on_c, 12, 77, 84
14, 593099, Note_on_c, 12, 77, 0
14, 593100, Note_on_c, 12, 79, 84
14, 593159, Note_on_c, 12, 79, 0
14, 593160, Note_on_c, 12, 81, 84
14, 593219, Note_on_c, 12, 81, 0
14, 593220, Note_on_c, 12, 82, 84
14, 593271, Note_on_c, 12, 82, 0
14, 593280, Note_on_c, 12, 69, 84
14, 593280, Note_on_c, 12, 84, 84
14, 593459, Note_on_c, 12, 69, 0
14, 593459, Note_on_c, 12, 84, 0
14, 593640, Note_on_c, 12, 81, 84
14, 593699, Note_on_c, 12, 81, 0
14, 593700, Note_on_c, 12, 82, 84
14, 593751, Note_on_c, 12, 82, 0
14, 593760, Note_on_c, 12, 84, 84
14, 593760, Note_on_c, 12, 69, 84
14, 593939, Note_on_c, 12, 84, 0
14, 593939, Note_on_c, 12, 69, 0
14, 594120, Note_on_c, 12, 81, 84
14, 594179, Note_on_c, 12, 81, 0
14, 594180, Note_on_c, 12, 82, 84
14, 594231, Note_on_c, 12, 82, 0
14, 594240, Note_on_c, 12, 69, 84
14, 594240, Note_on_c, 12, 84, 84
14, 594419, Note_on_c, 12, 69, 0
14, 594419, Note_on_c, 12, 84, 0
14, 594600, Note_on_c, 12, 81, 84
14, 594659, Note_on_c, 12, 81, 0
14, 594660, Note_on_c, 12, 82, 84
14, 594711, Note_on_c, 12, 82, 0
14, 594720, Note_on_c, 12, 69, 84
14, 594720, Note_on_c, 12, 84, 84
14, 594899, Note_on_c, 12, 69, 0
14, 594899, Note_on_c, 12, 84, 0
14, 595080, Note_on_c, 12, 81, 84
14, 595119, Note_on_c, 12, 81, 0
14, 595120, Note_on_c, 12, 82, 84
14, 595159, Note_on_c, 12, 82, 0
14, 595160, Note_on_c, 12, 84, 84
14, 595191, Note_on_c, 12, 84, 0
14, 595200, Note_on_c, 12, 86, 84
14, 595379, Note_on_c, 12, 86, 0
14, 595440, Note_on_c, 12, 70, 84
14, 595619, Note_on_c, 12, 70, 0
14, 595920, Note_on_c, 12, 74, 84
14, 596099, Note_on_c, 12, 74, 0
14, 596160, Note_on_c, 12, 70, 84
14, 596339, Note_on_c, 12, 70, 0
14, 596400, Note_on_c, 12, 65, 84
14, 596579, Note_on_c, 12, 65, 0
14, 596880, Note_on_c, 12, 70, 84
14, 597059, Note_on_c, 12, 70, 0
14, 597120, Note_on_c, 12, 65, 84
14, 597299, Note_on_c, 12, 65, 0
14, 597360, Note_on_c, 12, 62, 84
14, 597539, Note_on_c, 12, 62, 0
14, 597840, Note_on_c, 12, 65, 84
14, 598019, Note_on_c, 12, 65, 0
14, 598080, Note_on_c, 12, 62, 84
14, 598259, Note_on_c, 12, 62, 0
14, 598320, Note_on_c, 12, 58, 84
14, 598499, Note_on_c, 12, 58, 0
14, 598920, Note_on_c, 12, 74, 84
14, 598979, Note_on_c, 12, 74, 0
14, 598980, Note_on_c, 12, 75, 84
14, 599031, Note_on_c, 12, 75, 0
14, 599040, Note_on_c, 12, 77, 84
14, 599219, Note_on_c, 12, 77, 0
14, 599280, Note_on_c, 12, 74, 84
14, 599459, Note_on_c, 12, 74, 0
14, 599760, Note_on_c, 12, 77, 84
14, 599939, Note_on_c, 12, 77, 0
14, 600000, Note_on_c, 12, 74, 84
14, 600179, Note_on_c, 12, 74, 0
14, 600240, Note_on_c, 12, 70, 84
14, 600419, Note_on_c, 12, 70, 0
14, 600720, Note_on_c, 12, 74, 84
14, 600899, Note_on_c, 12, 74, 0
14, 600960, Note_on_c, 12, 70, 84
14, 601139, Note_on_c, 12, 70, 0
14, 601200, Note_on_c, 12, 65, 84
14, 601379, Note_on_c, 12, 65, 0
14, 601680, Note_on_c, 12, 70, 84
14, 601859, Note_on_c, 12, 70, 0
14, 601920, Note_on_c, 12, 65, 84
14, 602099, Note_on_c, 12, 65, 0
14, 602160, Note_on_c, 12, 62, 84
14, 602339, Note_on_c, 12, 62, 0
14, 602640, Note_on_c, 12, 65, 84
14, 602819, Note_on_c, 12, 65, 0
14, 602880, Note_on_c, 12, 58, 52
14, 603119, Note_on_c, 12, 58, 0
14, 604800, Note_on_c, 12, 81, 76
14, 604800, Note_on_c, 12, 72, 76
14, 605744, Note_on_c, 12, 81, 0
14, 605744, Note_on_c, 12, 72, 0
14, 605760, Note_on_c, 12, 72, 76
14, 605760, Note_on_c, 12, 81, 76
14, 606647, Note_on_c, 12, 72, 0
14, 606647, Note_on_c, 12, 81, 0
14, 606660, Note_on_c, 12, 72, 76
14, 606660, Note_on_c, 12, 81, 76
14, 606711, Note_on_c, 12, 72, 0
14, 606711, Note_on_c, 12, 81, 0
14, 606720, Note_on_c, 12, 74, 76
14, 606720, Note_on_c, 12, 82, 76
14, 606959, Note_on_c, 12, 74, 0
14, 606959, Note_on_c, 12, 82, 0
14, 608640, Note_on_c, 12, 72, 76
14, 608640, Note_on_c, 12, 81, 76
14, 609584, Note_on_c, 12, 72, 0
14, 609584, Note_on_c, 12, 81, 0
14, 609600, Note_on_c, 12, 72, 76
14, 609600, Note_on_c, 12, 81, 76
14, 610487, Note_on_c, 12, 72, 0
14, 610487, Note_on_c, 12, 81, 0
14, 610500, Note_on_c, 12, 81, 76
14, 610500, Note_on_c, 12, 72, 76
14, 610551, Note_on_c, 12, 81, 0
14, 610551, Note_on_c, 12, 72, 0
14, 610560, Note_on_c, 12, 82, 52
14, 610664, Note_on_c, 12, 82, 0
14, 610680, Note_on_c, 12, 70, 52
14, 610680, Note_on_c, 12, 62, 52
14, 610784, Note_on_c, 12, 70, 0
14, 610784, Note_on_c, 12, 62, 0
14, 610800, Note_on_c, 12, 70, 53
14, 610800, Note_on_c, 12, 62, 53
14, 610904, Note_on_c, 12, 70, 0
14, 610904, Note_on_c, 12, 62, 0
14, 610920, Note_on_c, 12, 62, 53
14, 610920, Note_on_c, 12, 70, 53
14, 611024, Note_on_c, 12, 62, 0
14, 611024, Note_on_c, 12, 70, 0
14, 611040, Note_on_c, 12, 70, 54
14, 611040, Note_on_c, 12, 62, 54
14, 611144, Note_on_c, 12, 70, 0
14, 611144, Note_on_c, 12, 62, 0
14, 611160, Note_on_c, 12, 70, 54
14, 611160, Note_on_c, 12, 62, 54
14, 611264, Note_on_c, 12, 70, 0
14, 611264, Note_on_c, 12, 62, 0
14, 611280, Note_on_c, 12, 70, 55
14, 611280, Note_on_c, 12, 62, 55
14, 611384, Note_on_c, 12, 70, 0
14, 611384, Note_on_c, 12, 62, 0
14, 611400, Note_on_c, 12, 70, 55
14, 611400, Note_on_c, 12, 62, 55
14, 611504, Note_on_c, 12, 70, 0
14, 611504, Note_on_c, 12, 62, 0
14, 611520, Note_on_c, 12, 70, 56
14, 611520, Note_on_c, 12, 62, 56
14, 611624, Note_on_c, 12, 70, 0
14, 611624, Note_on_c, 12, 62, 0
14, 611640, Note_on_c, 12, 62, 56
14, 611640, Note_on_c, 12, 70, 56
14, 611744, Note_on_c, 12, 62, 0
14, 611744, Note_on_c, 12, 70, 0
14, 611760, Note_on_c, 12, 70, 57
14, 611760, Note_on_c, 12, 62, 57
14, 611864, Note_on_c, 12, 70, 0
14, 611864, Note_on_c, 12, 62, 0
14, 611880, Note_on_c, 12, 70, 57
14, 611880, Note_on_c, 12, 62, 57
14, 611984, Note_on_c, 12, 70, 0
14, 611984, Note_on_c, 12, 62, 0
14, 612000, Note_on_c, 12, 62, 58
14, 612000, Note_on_c, 12, 70, 58
14, 612104, Note_on_c, 12, 62, 0
14, 612104, Note_on_c, 12, 70, 0
14, 612120, Note_on_c, 12, 62, 58
14, 612120, Note_on_c, 12, 70, 58
14, 612224, Note_on_c, 12, 62, 0
14, 612224, Note_on_c, 12, 70, 0
14, 612240, Note_on_c, 12, 70, 59
14, 612240, Note_on_c, 12, 62, 59
14, 612344, Note_on_c, 12, 70, 0
14, 612344, Note_on_c, 12, 62, 0
14, 612360, Note_on_c, 12, 70, 59
14, 612360, Note_on_c, 12, 62, 59
14, 612464, Note_on_c, 12, 70, 0
14, 612464, Note_on_c, 12, 62, 0
14, 612480, Note_on_c, 12, 65, 60
14, 612480, Note_on_c, 12, 69, 60
14, 612584, Note_on_c, 12, 65, 0
14, 612584, Note_on_c, 12, 69, 0
14, 612600, Note_on_c, 12, 72, 60
14, 612600, Note_on_c, 12, 65, 60
14, 612704, Note_on_c, 12, 72, 0
14, 612704, Note_on_c, 12, 65, 0
14, 612720, Note_on_c, 12, 72, 61
14, 612720, Note_on_c, 12, 65, 61
14, 612824, Note_on_c, 12, 72, 0
14, 612824, Note_on_c, 12, 65, 0
14, 612840, Note_on_c, 12, 65, 61
14, 612840, Note_on_c, 12, 72, 61
14, 612944, Note_on_c, 12, 65, 0
14, 612944, Note_on_c, 12, 72, 0
14, 612960, Note_on_c, 12, 65, 62
14, 612960, Note_on_c, 12, 72, 62
14, 613064, Note_on_c, 12, 65, 0
14, 613064, Note_on_c, 12, 72, 0
14, 613080, Note_on_c, 12, 65, 62
14, 613080, Note_on_c, 12, 72, 62
14, 613184, Note_on_c, 12, 65, 0
14, 613184, Note_on_c, 12, 72, 0
14, 613200, Note_on_c, 12, 65, 63
14, 613200, Note_on_c, 12, 72, 63
14, 613304, Note_on_c, 12, 65, 0
14, 613304, Note_on_c, 12, 72, 0
14, 613320, Note_on_c, 12, 72, 63
14, 613320, Note_on_c, 12, 65, 63
14, 613424, Note_on_c, 12, 72, 0
14, 613424, Note_on_c, 12, 65, 0
14, 613440, Note_on_c, 12, 72, 64
14, 613440, Note_on_c, 12, 65, 64
14, 613544, Note_on_c, 12, 72, 0
14, 613544, Note_on_c, 12, 65, 0
14, 613560, Note_on_c, 12, 65, 64
14, 613560, Note_on_c, 12, 72, 64
14, 613664, Note_on_c, 12, 65, 0
14, 613664, Note_on_c, 12, 72, 0
14, 613680, Note_on_c, 12, 65, 65
14, 613680, Note_on_c, 12, 72, 65
14, 613784, Note_on_c, 12, 65, 0
14, 613784, Note_on_c, 12, 72, 0
14, 613800, Note_on_c, 12, 72, 65
14, 613800, Note_on_c, 12, 65, 65
14, 613904, Note_on_c, 12, 72, 0
14, 613904, Note_on_c, 12, 65, 0
14, 613920, Note_on_c, 12, 65, 66
14, 613920, Note_on_c, 12, 72, 66
14, 614024, Note_on_c, 12, 65, 0
14, 614024, Note_on_c, 12, 72, 0
14, 614040, Note_on_c, 12, 72, 66
14, 614040, Note_on_c, 12, 65, 66
14, 614144, Note_on_c, 12, 72, 0
14, 614144, Note_on_c, 12, 65, 0
14, 614160, Note_on_c, 12, 72, 67
14, 614160, Note_on_c, 12, 65, 67
14, 614264, Note_on_c, 12, 72, 0
14, 614264, Note_on_c, 12, 65, 0
14, 614280, Note_on_c, 12, 72, 67
14, 614280, Note_on_c, 12, 65, 67
14, 614384, Note_on_c, 12, 72, 0
14, 614384, Note_on_c, 12, 65, 0
14, 614400, Note_on_c, 12, 74, 68
14, 614400, Note_on_c, 12, 65, 68
14, 614504, Note_on_c, 12, 74, 0
14, 614504, Note_on_c, 12, 65, 0
14, 614520, Note_on_c, 12, 74, 68
14, 614520, Note_on_c, 12, 65, 68
14, 614624, Note_on_c, 12, 74, 0
14, 614624, Note_on_c, 12, 65, 0
14, 614640, Note_on_c, 12, 74, 69
14, 614640, Note_on_c, 12, 65, 69
14, 614744, Note_on_c, 12, 74, 0
14, 614744, Note_on_c, 12, 65, 0
14, 614760, Note_on_c, 12, 74, 69
14, 614760, Note_on_c, 12, 65, 69
14, 614864, Note_on_c, 12, 74, 0
14, 614864, Note_on_c, 12, 65, 0
14, 614880, Note_on_c, 12, 65, 70
14, 614880, Note_on_c, 12, 74, 70
14, 614984, Note_on_c, 12, 65, 0
14, 614984, Note_on_c, 12, 74, 0
14, 615000, Note_on_c, 12, 74, 70
14, 615000, Note_on_c, 12, 65, 70
14, 615104, Note_on_c, 12, 74, 0
14, 615104, Note_on_c, 12, 65, 0
14, 615120, Note_on_c, 12, 65, 71
14, 615120, Note_on_c, 12, 74, 71
14, 615224, Note_on_c, 12, 65, 0
14, 615224, Note_on_c, 12, 74, 0
14, 615240, Note_on_c, 12, 74, 71
14, 615240, Note_on_c, 12, 65, 71
14, 615344, Note_on_c, 12, 74, 0
14, 615344, Note_on_c, 12, 65, 0
14, 615360, Note_on_c, 12, 65, 72
14, 615360, Note_on_c, 12, 74, 72
14, 615464, Note_on_c, 12, 65, 0
14, 615464, Note_on_c, 12, 74, 0
14, 615480, Note_on_c, 12, 65, 72
14, 615480, Note_on_c, 12, 74, 72
14, 615584, Note_on_c, 12, 65, 0
14, 615584, Note_on_c, 12, 74, 0
14, 615600, Note_on_c, 12, 65, 73
14, 615600, Note_on_c, 12, 74, 73
14, 615704, Note_on_c, 12, 65, 0
14, 615704, Note_on_c, 12, 74, 0
14, 615720, Note_on_c, 12, 65, 73
14, 615720, Note_on_c, 12, 74, 73
14, 615824, Note_on_c, 12, 65, 0
14, 615824, Note_on_c, 12, 74, 0
14, 615840, Note_on_c, 12, 65, 74
14, 615840, Note_on_c, 12, 74, 74
14, 615944, Note_on_c, 12, 65, 0
14, 615944, Note_on_c, 12, 74, 0
14, 615960, Note_on_c, 12, 74, 74
14, 615960, Note_on_c, 12, 65, 74
14, 616064, Note_on_c, 12, 74, 0
14, 616064, Note_on_c, 12, 65, 0
14, 616080, Note_on_c, 12, 74, 75
14, 616080, Note_on_c, 12, 65, 75
14, 616184, Note_on_c, 12, 74, 0
14, 616184, Note_on_c, 12, 65, 0
14, 616200, Note_on_c, 12, 74, 75
14, 616200, Note_on_c, 12, 65, 75
14, 616304, Note_on_c, 12, 74, 0
14, 616304, Note_on_c, 12, 65, 0
14, 616320, Note_on_c, 12, 65, 76
14, 616320, Note_on_c, 12, 72, 76
14, 616424, Note_on_c, 12, 65, 0
14, 616424, Note_on_c, 12, 72, 0
14, 616440, Note_on_c, 12, 65, 76
14, 616440, Note_on_c, 12, 72, 76
14, 616544, Note_on_c, 12, 65, 0
14, 616544, Note_on_c, 12, 72, 0
14, 616560, Note_on_c, 12, 72, 77
14, 616560, Note_on_c, 12, 65, 77
14, 616664, Note_on_c, 12, 72, 0
14, 616664, Note_on_c, 12, 65, 0
14, 616680, Note_on_c, 12, 65, 77
14, 616680, Note_on_c, 12, 72, 77
14, 616784, Note_on_c, 12, 65, 0
14, 616784, Note_on_c, 12, 72, 0
14, 616800, Note_on_c, 12, 65, 78
14, 616800, Note_on_c, 12, 72, 78
14, 616904, Note_on_c, 12, 65, 0
14, 616904, Note_on_c, 12, 72, 0
14, 616920, Note_on_c, 12, 72, 78
14, 616920, Note_on_c, 12, 65, 78
14, 617024, Note_on_c, 12, 72, 0
14, 617024, Note_on_c, 12, 65, 0
14, 617040, Note_on_c, 12, 65, 79
14, 617040, Note_on_c, 12, 72, 79
14, 617144, Note_on_c, 12, 65, 0
14, 617144, Note_on_c, 12, 72, 0
14, 617160, Note_on_c, 12, 72, 79
14, 617160, Note_on_c, 12, 65, 79
14, 617264, Note_on_c, 12, 72, 0
14, 617264, Note_on_c, 12, 65, 0
14, 617280, Note_on_c, 12, 65, 80
14, 617280, Note_on_c, 12, 72, 80
14, 617384, Note_on_c, 12, 65, 0
14, 617384, Note_on_c, 12, 72, 0
14, 617400, Note_on_c, 12, 72, 80
14, 617400, Note_on_c, 12, 65, 80
14, 617504, Note_on_c, 12, 72, 0
14, 617504, Note_on_c, 12, 65, 0
14, 617520, Note_on_c, 12, 72, 81
14, 617520, Note_on_c, 12, 65, 81
14, 617624, Note_on_c, 12, 72, 0
14, 617624, Note_on_c, 12, 65, 0
14, 617640, Note_on_c, 12, 72, 81
14, 617640, Note_on_c, 12, 65, 81
14, 617744, Note_on_c, 12, 72, 0
14, 617744, Note_on_c, 12, 65, 0
14, 617760, Note_on_c, 12, 72, 82
14, 617760, Note_on_c, 12, 65, 82
14, 617864, Note_on_c, 12, 72, 0
14, 617864, Note_on_c, 12, 65, 0
14, 617880, Note_on_c, 12, 72, 82
14, 617880, Note_on_c, 12, 65, 82
14, 617984, Note_on_c, 12, 72, 0
14, 617984, Note_on_c, 12, 65, 0
14, 618000, Note_on_c, 12, 72, 83
14, 618000, Note_on_c, 12, 65, 83
14, 618104, Note_on_c, 12, 72, 0
14, 618104, Note_on_c, 12, 65, 0
14, 618120, Note_on_c, 12, 65, 83
14, 618120, Note_on_c, 12, 72, 83
14, 618224, Note_on_c, 12, 65, 0
14, 618224, Note_on_c, 12, 72, 0
14, 618240, Note_on_c, 12, 74, 84
14, 618344, Note_on_c, 12, 74, 0
14, 618360, Note_on_c, 12, 82, 84
14, 618360, Note_on_c, 12, 74, 84
14, 618464, Note_on_c, 12, 82, 0
14, 618464, Note_on_c, 12, 74, 0
14, 618480, Note_on_c, 12, 74, 84
14, 618480, Note_on_c, 12, 82, 84
14, 618584, Note_on_c, 12, 74, 0
14, 618584, Note_on_c, 12, 82, 0
14, 618600, Note_on_c, 12, 82, 84
14, 618600, Note_on_c, 12, 74, 84
14, 618704, Note_on_c, 12, 82, 0
14, 618704, Note_on_c, 12, 74, 0
14, 618720, Note_on_c, 12, 82, 84
14, 618720, Note_on_c, 12, 74, 84
14, 618824, Note_on_c, 12, 82, 0
14, 618824, Note_on_c, 12, 74, 0
14, 618840, Note_on_c, 12, 82, 84
14, 618840, Note_on_c, 12, 74, 84
14, 618944, Note_on_c, 12, 82, 0
14, 618944, Note_on_c, 12, 74, 0
14, 618960, Note_on_c, 12, 82, 84
14, 618960, Note_on_c, 12, 74, 84
14, 619064, Note_on_c, 12, 82, 0
14, 619064, Note_on_c, 12, 74, 0
14, 619080, Note_on_c, 12, 74, 84
14, 619080, Note_on_c, 12, 82, 84
14, 619184, Note_on_c, 12, 74, 0
14, 619184, Note_on_c, 12, 82, 0
14, 619200, Note_on_c, 12, 74, 84
14, 619200, Note_on_c, 12, 82, 84
14, 619304, Note_on_c, 12, 74, 0
14, 619304, Note_on_c, 12, 82, 0
14, 619320, Note_on_c, 12, 82, 84
14, 619320, Note_on_c, 12, 74, 84
14, 619424, Note_on_c, 12, 82, 0
14, 619424, Note_on_c, 12, 74, 0
14, 619440, Note_on_c, 12, 82, 84
14, 619440, Note_on_c, 12, 74, 84
14, 619544, Note_on_c, 12, 82, 0
14, 619544, Note_on_c, 12, 74, 0
14, 619560, Note_on_c, 12, 74, 84
14, 619560, Note_on_c, 12, 82, 84
14, 619664, Note_on_c, 12, 74, 0
14, 619664, Note_on_c, 12, 82, 0
14, 619680, Note_on_c, 12, 74, 84
14, 619680, Note_on_c, 12, 82, 84
14, 619784, Note_on_c, 12, 74, 0
14, 619784, Note_on_c, 12, 82, 0
14, 619800, Note_on_c, 12, 82, 84
14, 619800, Note_on_c, 12, 74, 84
14, 619904, Note_on_c, 12, 82, 0
14, 619904, Note_on_c, 12, 74, 0
14, 619920, Note_on_c, 12, 82, 84
14, 619920, Note_on_c, 12, 74, 84
14, 620024, Note_on_c, 12, 82, 0
14, 620024, Note_on_c, 12, 74, 0
14, 620040, Note_on_c, 12, 82, 84
14, 620040, Note_on_c, 12, 74, 84
14, 620144, Note_on_c, 12, 82, 0
14, 620144, Note_on_c, 12, 74, 0
14, 620160, Note_on_c, 12, 82, 84
14, 620160, Note_on_c, 12, 74, 84
14, 620264, Note_on_c, 12, 82, 0
14, 620264, Note_on_c, 12, 74, 0
14, 620280, Note_on_c, 12, 74, 84
14, 620280, Note_on_c, 12, 82, 84
14, 620384, Note_on_c, 12, 74, 0
14, 620384, Note_on_c, 12, 82, 0
14, 620400, Note_on_c, 12, 82, 84
14, 620400, Note_on_c, 12, 74, 84
14, 620504, Note_on_c, 12, 82, 0
14, 620504, Note_on_c, 12, 74, 0
14, 620520, Note_on_c, 12, 82, 84
14, 620520, Note_on_c, 12, 74, 84
14, 620624, Note_on_c, 12, 82, 0
14, 620624, Note_on_c, 12, 74, 0
14, 620640, Note_on_c, 12, 82, 84
14, 620640, Note_on_c, 12, 74, 84
14, 620744, Note_on_c, 12, 82, 0
14, 620744, Note_on_c, 12, 74, 0
14, 620760, Note_on_c, 12, 82, 84
14, 620760, Note_on_c, 12, 74, 84
14, 620864, Note_on_c, 12, 82, 0
14, 620864, Note_on_c, 12, 74, 0
14, 620880, Note_on_c, 12, 82, 84
14, 620880, Note_on_c, 12, 74, 84
14, 620984, Note_on_c, 12, 82, 0
14, 620984, Note_on_c, 12, 74, 0
14, 621000, Note_on_c, 12, 82, 84
14, 621000, Note_on_c, 12, 74, 84
14, 621104, Note_on_c, 12, 82, 0
14, 621104, Note_on_c, 12, 74, 0
14, 621120, Note_on_c, 12, 74, 84
14, 621120, Note_on_c, 12, 82, 84
14, 621224, Note_on_c, 12, 74, 0
14, 621224, Note_on_c, 12, 82, 0
14, 621240, Note_on_c, 12, 74, 84
14, 621240, Note_on_c, 12, 82, 84
14, 621344, Note_on_c, 12, 74, 0
14, 621344, Note_on_c, 12, 82, 0
14, 621360, Note_on_c, 12, 74, 84
14, 621360, Note_on_c, 12, 82, 84
14, 621464, Note_on_c, 12, 74, 0
14, 621464, Note_on_c, 12, 82, 0
14, 621480, Note_on_c, 12, 74, 84
14, 621480, Note_on_c, 12, 82, 84
14, 621584, Note_on_c, 12, 74, 0
14, 621584, Note_on_c, 12, 82, 0
14, 621600, Note_on_c, 12, 74, 84
14, 621600, Note_on_c, 12, 82, 84
14, 621704, Note_on_c, 12, 74, 0
14, 621704, Note_on_c, 12, 82, 0
14, 621720, Note_on_c, 12, 74, 84
14, 621720, Note_on_c, 12, 82, 84
14, 621824, Note_on_c, 12, 74, 0
14, 621824, Note_on_c, 12, 82, 0
14, 621840, Note_on_c, 12, 74, 84
14, 621840, Note_on_c, 12, 82, 84
14, 621944, Note_on_c, 12, 74, 0
14, 621944, Note_on_c, 12, 82, 0
14, 621960, Note_on_c, 12, 77, 84
14, 621999, Note_on_c, 12, 77, 0
14, 622000, Note_on_c, 12, 79, 84
14, 622039, Note_on_c, 12, 79, 0
14, 622040, Note_on_c, 12, 81, 84
14, 622071, Note_on_c, 12, 81, 0
14, 622080, Note_on_c, 12, 82, 84
14, 622080, Note_on_c, 12, 74, 84
14, 622319, Note_on_c, 12, 82, 0
14, 622319, Note_on_c, 12, 74, 0
14, 622440, Note_on_c, 12, 77, 84
14, 622479, Note_on_c, 12, 77, 0
14, 622480, Note_on_c, 12, 79, 84
14, 622519, Note_on_c, 12, 79, 0
14, 622520, Note_on_c, 12, 81, 84
14, 622551, Note_on_c, 12, 81, 0
14, 622560, Note_on_c, 12, 74, 84
14, 622560, Note_on_c, 12, 82, 84
14, 622799, Note_on_c, 12, 74, 0
14, 622799, Note_on_c, 12, 82, 0
14, 622920, Note_on_c, 12, 77, 84
14, 622959, Note_on_c, 12, 77, 0
14, 622960, Note_on_c, 12, 79, 84
14, 622999, Note_on_c, 12, 79, 0
14, 623000, Note_on_c, 12, 81, 84
14, 623031, Note_on_c, 12, 81, 0
14, 623040, Note_on_c, 12, 74, 84
14, 623040, Note_on_c, 12, 82, 84
14, 623279, Note_on_c, 12, 74, 0
14, 623279, Note_on_c, 12, 82, 0
14, 624000, Note_on_c, 12, 70, 84
14, 624000, Note_on_c, 12, 62, 84
14, 624239, Note_on_c, 12, 70, 0
14, 624239, Note_on_c, 12, 62, 0
14, 624960, Note_on_c, 12, 58, 84
14, 625199, Note_on_c, 12, 58, 0
14, 625199, End_track
15, 0, Start_track
15, 0, Title_t, "Viola "
15, 0, MIDI_port, 0
15, 0, Program_c, 13, 45
15, 0, Control_c, 13, 11, 127
15, 0, Control_c, 13, 10, 70
15, 0, Control_c, 13, 7, 96
15, 0, Note_on_c, 13, 58, 44
15, 239, Note_on_c, 13, 58, 0
15, 720, Program_c, 13, 48
15, 720, Control_c, 13, 11, 96
15, 960, Note_on_c, 13, 54, 60
15, 1439, Note_on_c, 13, 54, 0
15, 1440, Note_on_c, 13, 51, 60
15, 1907, Note_on_c, 13, 51, 0
15, 1920, Note_on_c, 13, 53, 60
15, 2399, Note_on_c, 13, 53, 0
15, 2400, Note_on_c, 13, 49, 60
15, 2867, Note_on_c, 13, 49, 0
15, 2880, Note_on_c, 13, 51, 60
15, 3119, Note_on_c, 13, 51, 0
15, 3120, Note_on_c, 13, 48, 60
15, 3359, Note_on_c, 13, 48, 0
15, 3360, Note_on_c, 13, 49, 60
15, 3599, Note_on_c, 13, 49, 0
15, 3600, Note_on_c, 13, 58, 60
15, 3827, Note_on_c, 13, 58, 0
15, 3840, Note_on_c, 13, 54, 60
15, 3840, Control_c, 13, 11, 96
15, 3860, Control_c, 13, 11, 97
15, 3880, Control_c, 13, 11, 99
15, 3900, Control_c, 13, 11, 100
15, 3920, Control_c, 13, 11, 101
15, 3940, Control_c, 13, 11, 102
15, 3960, Control_c, 13, 11, 104
15, 3980, Control_c, 13, 11, 105
15, 4000, Control_c, 13, 11, 106
15, 4020, Control_c, 13, 11, 108
15, 4040, Control_c, 13, 11, 109
15, 4060, Control_c, 13, 11, 110
15, 4080, Control_c, 13, 11, 112
15, 4100, Control_c, 13, 11, 113
15, 4120, Control_c, 13, 11, 114
15, 4140, Control_c, 13, 11, 115
15, 4160, Control_c, 13, 11, 117
15, 4180, Control_c, 13, 11, 118
15, 4200, Control_c, 13, 11, 119
15, 4220, Control_c, 13, 11, 121
15, 4240, Control_c, 13, 11, 122
15, 4260, Control_c, 13, 11, 123
15, 4280, Control_c, 13, 11, 124
15, 4300, Control_c, 13, 11, 126
15, 4320, Control_c, 13, 11, 127
15, 4340, Control_c, 13, 11, 126
15, 4360, Control_c, 13, 11, 124
15, 4380, Control_c, 13, 11, 123
15, 4400, Control_c, 13, 11, 122
15, 4420, Control_c, 13, 11, 121
15, 4440, Control_c, 13, 11, 119
15, 4460, Control_c, 13, 11, 118
15, 4480, Control_c, 13, 11, 117
15, 4500, Control_c, 13, 11, 115
15, 4520, Control_c, 13, 11, 114
15, 4540, Control_c, 13, 11, 113
15, 4560, Control_c, 13, 11, 112
15, 4580, Control_c, 13, 11, 110
15, 4600, Control_c, 13, 11, 109
15, 4620, Control_c, 13, 11, 108
15, 4640, Control_c, 13, 11, 106
15, 4660, Control_c, 13, 11, 105
15, 4680, Control_c, 13, 11, 104
15, 4700, Control_c, 13, 11, 102
15, 4720, Control_c, 13, 11, 101
15, 4740, Control_c, 13, 11, 100
15, 4760, Control_c, 13, 11, 99
15, 4780, Control_c, 13, 11, 96
15, 4787, Note_on_c, 13, 54, 0
15, 4800, Note_on_c, 13, 53, 60
15, 4919, Note_on_c, 13, 53, 0
15, 6240, Control_c, 13, 11, 127
15, 6480, Note_on_c, 13, 64, 44
15, 6719, Note_on_c, 13, 64, 0
15, 6720, Note_on_c, 13, 65, 44
15, 6839, Note_on_c, 13, 65, 0
15, 8400, Note_on_c, 13, 55, 44
15, 8639, Note_on_c, 13, 55, 0
15, 8640, Note_on_c, 13, 48, 44
15, 8759, Note_on_c, 13, 48, 0
15, 9360, Note_on_c, 13, 53, 44
15, 9360, Note_on_c, 13, 57, 44
15, 9479, Note_on_c, 13, 53, 0
15, 9479, Note_on_c, 13, 57, 0
15, 9600, Note_on_c, 13, 57, 44
15, 9600, Note_on_c, 13, 53, 44
15, 9719, Note_on_c, 13, 57, 0
15, 9719, Note_on_c, 13, 53, 0
15, 10320, Note_on_c, 13, 57, 44
15, 10320, Note_on_c, 13, 53, 44
15, 10439, Note_on_c, 13, 57, 0
15, 10439, Note_on_c, 13, 53, 0
15, 10560, Note_on_c, 13, 57, 44
15, 10560, Note_on_c, 13, 53, 44
15, 10679, Note_on_c, 13, 57, 0
15, 10679, Note_on_c, 13, 53, 0
15, 10800, Note_on_c, 13, 53, 44
15, 10800, Note_on_c, 13, 57, 44
15, 10919, Note_on_c, 13, 53, 0
15, 10919, Note_on_c, 13, 57, 0
15, 11040, Note_on_c, 13, 57, 44
15, 11040, Note_on_c, 13, 53, 44
15, 11159, Note_on_c, 13, 57, 0
15, 11159, Note_on_c, 13, 53, 0
15, 11220, Program_c, 13, 45
15, 11280, Note_on_c, 13, 53, 44
15, 11399, Note_on_c, 13, 53, 0
15, 11520, Note_on_c, 13, 58, 68
15, 11759, Note_on_c, 13, 58, 0
15, 12240, Control_c, 13, 11, 96
15, 12240, Program_c, 13, 48
15, 12480, Note_on_c, 13, 54, 60
15, 12959, Note_on_c, 13, 54, 0
15, 12960, Note_on_c, 13, 51, 60
15, 13427, Note_on_c, 13, 51, 0
15, 13440, Note_on_c, 13, 53, 60
15, 13919, Note_on_c, 13, 53, 0
15, 13920, Note_on_c, 13, 49, 60
15, 14387, Note_on_c, 13, 49, 0
15, 14400, Note_on_c, 13, 51, 60
15, 14639, Note_on_c, 13, 51, 0
15, 14640, Note_on_c, 13, 48, 60
15, 14879, Note_on_c, 13, 48, 0
15, 14880, Note_on_c, 13, 49, 60
15, 15119, Note_on_c, 13, 49, 0
15, 15120, Note_on_c, 13, 58, 60
15, 15347, Note_on_c, 13, 58, 0
15, 15360, Control_c, 13, 11, 96
15, 15360, Note_on_c, 13, 54, 60
15, 15380, Control_c, 13, 11, 97
15, 15400, Control_c, 13, 11, 99
15, 15420, Control_c, 13, 11, 100
15, 15440, Control_c, 13, 11, 101
15, 15460, Control_c, 13, 11, 102
15, 15480, Control_c, 13, 11, 104
15, 15500, Control_c, 13, 11, 105
15, 15520, Control_c, 13, 11, 106
15, 15540, Control_c, 13, 11, 108
15, 15560, Control_c, 13, 11, 109
15, 15580, Control_c, 13, 11, 110
15, 15600, Control_c, 13, 11, 112
15, 15620, Control_c, 13, 11, 113
15, 15640, Control_c, 13, 11, 114
15, 15660, Control_c, 13, 11, 115
15, 15680, Control_c, 13, 11, 117
15, 15700, Control_c, 13, 11, 118
15, 15720, Control_c, 13, 11, 119
15, 15740, Control_c, 13, 11, 121
15, 15760, Control_c, 13, 11, 122
15, 15780, Control_c, 13, 11, 123
15, 15800, Control_c, 13, 11, 124
15, 15820, Control_c, 13, 11, 126
15, 15840, Control_c, 13, 11, 127
15, 15860, Control_c, 13, 11, 126
15, 15880, Control_c, 13, 11, 124
15, 15900, Control_c, 13, 11, 123
15, 15920, Control_c, 13, 11, 122
15, 15940, Control_c, 13, 11, 121
15, 15960, Control_c, 13, 11, 119
15, 15980, Control_c, 13, 11, 118
15, 16000, Control_c, 13, 11, 117
15, 16020, Control_c, 13, 11, 115
15, 16040, Control_c, 13, 11, 114
15, 16060, Control_c, 13, 11, 113
15, 16080, Control_c, 13, 11, 112
15, 16100, Control_c, 13, 11, 110
15, 16120, Control_c, 13, 11, 109
15, 16140, Control_c, 13, 11, 108
15, 16160, Control_c, 13, 11, 106
15, 16180, Control_c, 13, 11, 105
15, 16200, Control_c, 13, 11, 104
15, 16220, Control_c, 13, 11, 102
15, 16240, Control_c, 13, 11, 101
15, 16260, Control_c, 13, 11, 100
15, 16280, Control_c, 13, 11, 99
15, 16300, Control_c, 13, 11, 96
15, 16439, Note_on_c, 13, 54, 0
15, 17760, Control_c, 13, 11, 127
15, 18000, Note_on_c, 13, 65, 44
15, 18239, Note_on_c, 13, 65, 0
15, 18240, Note_on_c, 13, 66, 44
15, 18359, Note_on_c, 13, 66, 0
15, 19680, Note_on_c, 13, 52, 44
15, 19919, Note_on_c, 13, 52, 0
15, 19920, Note_on_c, 13, 53, 44
15, 20159, Note_on_c, 13, 53, 0
15, 20160, Note_on_c, 13, 54, 44
15, 20279, Note_on_c, 13, 54, 0
15, 20880, Note_on_c, 13, 61, 44
15, 20880, Note_on_c, 13, 64, 44
15, 20999, Note_on_c, 13, 61, 0
15, 20999, Note_on_c, 13, 64, 0
15, 21120, Note_on_c, 13, 64, 44
15, 21120, Note_on_c, 13, 61, 44
15, 21239, Note_on_c, 13, 64, 0
15, 21239, Note_on_c, 13, 61, 0
15, 21840, Note_on_c, 13, 64, 44
15, 21840, Note_on_c, 13, 61, 44
15, 21959, Note_on_c, 13, 64, 0
15, 21959, Note_on_c, 13, 61, 0
15, 22080, Note_on_c, 13, 61, 44
15, 22080, Note_on_c, 13, 64, 44
15, 22199, Note_on_c, 13, 61, 0
15, 22199, Note_on_c, 13, 64, 0
15, 22320, Note_on_c, 13, 64, 44
15, 22320, Note_on_c, 13, 61, 44
15, 22439, Note_on_c, 13, 64, 0
15, 22439, Note_on_c, 13, 61, 0
15, 22560, Note_on_c, 13, 64, 44
15, 22560, Note_on_c, 13, 61, 44
15, 22679, Note_on_c, 13, 64, 0
15, 22679, Note_on_c, 13, 61, 0
15, 22740, Program_c, 13, 45
15, 22800, Note_on_c, 13, 54, 44
15, 22919, Note_on_c, 13, 54, 0
15, 23040, Note_on_c, 13, 55, 68
15, 23159, Note_on_c, 13, 55, 0
15, 24240, Note_on_c, 13, 59, 48
15, 24240, Note_on_c, 13, 62, 48
15, 24479, Note_on_c, 13, 59, 0
15, 24479, Note_on_c, 13, 62, 0
15, 24480, Note_on_c, 13, 62, 48
15, 24480, Note_on_c, 13, 59, 48
15, 24719, Note_on_c, 13, 62, 0
15, 24719, Note_on_c, 13, 59, 0
15, 25200, Note_on_c, 13, 60, 48
15, 25439, Note_on_c, 13, 60, 0
15, 25440, Note_on_c, 13, 60, 48
15, 25679, Note_on_c, 13, 60, 0
15, 26160, Note_on_c, 13, 64, 48
15, 26160, Note_on_c, 13, 61, 48
15, 26399, Note_on_c, 13, 64, 0
15, 26399, Note_on_c, 13, 61, 0
15, 26400, Note_on_c, 13, 61, 48
15, 26400, Note_on_c, 13, 64, 48
15, 26639, Note_on_c, 13, 61, 0
15, 26639, Note_on_c, 13, 64, 0
15, 27120, Note_on_c, 13, 62, 48
15, 27359, Note_on_c, 13, 62, 0
15, 27360, Note_on_c, 13, 62, 48
15, 27587, Note_on_c, 13, 62, 0
15, 27592, Program_c, 13, 48
15, 27600, Note_on_c, 13, 58, 76
15, 27600, Note_on_c, 13, 62, 76
15, 27629, Note_on_c, 13, 58, 0
15, 27629, Note_on_c, 13, 62, 0
15, 27630, Note_on_c, 13, 62, 52
15, 27630, Note_on_c, 13, 58, 52
15, 27959, Note_on_c, 13, 62, 0
15, 27959, Note_on_c, 13, 58, 0
15, 28560, Note_on_c, 13, 53, 52
15, 28799, Note_on_c, 13, 53, 0
15, 28800, Note_on_c, 13, 52, 52
15, 29027, Note_on_c, 13, 52, 0
15, 29040, Note_on_c, 13, 52, 52
15, 29040, Note_on_c, 13, 59, 52
15, 29507, Note_on_c, 13, 52, 0
15, 29507, Note_on_c, 13, 59, 0
15, 29520, Note_on_c, 13, 52, 52
15, 29760, Control_c, 13, 11, 127
15, 29824, Control_c, 13, 11, 126
15, 29888, Control_c, 13, 11, 125
15, 29952, Control_c, 13, 11, 124
15, 29987, Note_on_c, 13, 52, 0
15, 30000, Note_on_c, 13, 55, 52
15, 30016, Control_c, 13, 11, 123
15, 30080, Control_c, 13, 11, 122
15, 30144, Control_c, 13, 11, 121
15, 30208, Control_c, 13, 11, 120
15, 30239, Note_on_c, 13, 55, 0
15, 30240, Note_on_c, 13, 53, 52
15, 30272, Control_c, 13, 11, 119
15, 30336, Control_c, 13, 11, 118
15, 30400, Control_c, 13, 11, 117
15, 30464, Control_c, 13, 11, 116
15, 30479, Note_on_c, 13, 53, 0
15, 30480, Note_on_c, 13, 52, 52
15, 30528, Control_c, 13, 11, 115
15, 30592, Control_c, 13, 11, 114
15, 30599, Note_on_c, 13, 52, 0
15, 30600, Note_on_c, 13, 50, 52
15, 30656, Control_c, 13, 11, 112
15, 30707, Note_on_c, 13, 50, 0
15, 30720, Note_on_c, 13, 49, 52
15, 30959, Note_on_c, 13, 49, 0
15, 30960, Note_on_c, 13, 55, 52
15, 31199, Note_on_c, 13, 55, 0
15, 31200, Note_on_c, 13, 53, 52
15, 31439, Note_on_c, 13, 53, 0
15, 31440, Note_on_c, 13, 55, 52
15, 31559, Note_on_c, 13, 55, 0
15, 31560, Note_on_c, 13, 53, 52
15, 31667, Note_on_c, 13, 53, 0
15, 31680, Note_on_c, 13, 52, 52
15, 31799, Note_on_c, 13, 52, 0
15, 32160, Note_on_c, 13, 57, 52
15, 32279, Note_on_c, 13, 57, 0
15, 32640, Note_on_c, 13, 57, 52
15, 32759, Note_on_c, 13, 57, 0
15, 33360, Control_c, 13, 11, 127
15, 33600, Note_on_c, 13, 60, 84
15, 33600, Note_on_c, 13, 63, 84
15, 34487, Note_on_c, 13, 60, 0
15, 34487, Note_on_c, 13, 63, 0
15, 34500, Note_on_c, 13, 63, 84
15, 34500, Note_on_c, 13, 60, 84
15, 34551, Note_on_c, 13, 63, 0
15, 34551, Note_on_c, 13, 60, 0
15, 34560, Note_on_c, 13, 63, 84
15, 34560, Note_on_c, 13, 60, 84
15, 34679, Note_on_c, 13, 63, 0
15, 34679, Note_on_c, 13, 60, 0
15, 35520, Note_on_c, 13, 57, 84
15, 35520, Note_on_c, 13, 53, 84
15, 36407, Note_on_c, 13, 57, 0
15, 36407, Note_on_c, 13, 53, 0
15, 36420, Note_on_c, 13, 57, 84
15, 36420, Note_on_c, 13, 53, 84
15, 36471, Note_on_c, 13, 57, 0
15, 36471, Note_on_c, 13, 53, 0
15, 36480, Note_on_c, 13, 57, 84
15, 36480, Note_on_c, 13, 53, 84
15, 36659, Note_on_c, 13, 57, 0
15, 36659, Note_on_c, 13, 53, 0
15, 37440, Note_on_c, 13, 57, 84
15, 37440, Note_on_c, 13, 53, 84
15, 37619, Note_on_c, 13, 57, 0
15, 37619, Note_on_c, 13, 53, 0
15, 38400, Note_on_c, 13, 57, 84
15, 38400, Note_on_c, 13, 53, 84
15, 38579, Note_on_c, 13, 57, 0
15, 38579, Note_on_c, 13, 53, 0
15, 38880, Note_on_c, 13, 57, 84
15, 38880, Note_on_c, 13, 53, 84
15, 39059, Note_on_c, 13, 57, 0
15, 39059, Note_on_c, 13, 53, 0
15, 39360, Note_on_c, 13, 57, 84
15, 39360, Note_on_c, 13, 53, 84
15, 39539, Note_on_c, 13, 57, 0
15, 39539, Note_on_c, 13, 53, 0
15, 39840, Note_on_c, 13, 57, 84
15, 39840, Note_on_c, 13, 65, 84
15, 40019, Note_on_c, 13, 57, 0
15, 40019, Note_on_c, 13, 65, 0
15, 40320, Note_on_c, 13, 58, 76
15, 40320, Note_on_c, 13, 65, 76
15, 40424, Note_on_c, 13, 58, 0
15, 40424, Note_on_c, 13, 65, 0
15, 40440, Note_on_c, 13, 65, 52
15, 40440, Note_on_c, 13, 58, 52
15, 40544, Note_on_c, 13, 65, 0
15, 40544, Note_on_c, 13, 58, 0
15, 40560, Note_on_c, 13, 58, 52
15, 40560, Note_on_c, 13, 65, 52
15, 40664, Note_on_c, 13, 58, 0
15, 40664, Note_on_c, 13, 65, 0
15, 40680, Note_on_c, 13, 58, 52
15, 40680, Note_on_c, 13, 65, 52
15, 40784, Note_on_c, 13, 58, 0
15, 40784, Note_on_c, 13, 65, 0
15, 40800, Note_on_c, 13, 65, 52
15, 40800, Note_on_c, 13, 58, 52
15, 40904, Note_on_c, 13, 65, 0
15, 40904, Note_on_c, 13, 58, 0
15, 40920, Note_on_c, 13, 58, 52
15, 40920, Note_on_c, 13, 65, 52
15, 41024, Note_on_c, 13, 58, 0
15, 41024, Note_on_c, 13, 65, 0
15, 41040, Note_on_c, 13, 65, 52
15, 41040, Note_on_c, 13, 58, 52
15, 41144, Note_on_c, 13, 65, 0
15, 41144, Note_on_c, 13, 58, 0
15, 41160, Note_on_c, 13, 58, 52
15, 41160, Note_on_c, 13, 65, 52
15, 41264, Note_on_c, 13, 58, 0
15, 41264, Note_on_c, 13, 65, 0
15, 41280, Note_on_c, 13, 58, 52
15, 41280, Note_on_c, 13, 65, 52
15, 41384, Note_on_c, 13, 58, 0
15, 41384, Note_on_c, 13, 65, 0
15, 41400, Note_on_c, 13, 58, 52
15, 41400, Note_on_c, 13, 65, 52
15, 41504, Note_on_c, 13, 58, 0
15, 41504, Note_on_c, 13, 65, 0
15, 41520, Note_on_c, 13, 65, 52
15, 41520, Note_on_c, 13, 58, 52
15, 41624, Note_on_c, 13, 65, 0
15, 41624, Note_on_c, 13, 58, 0
15, 41640, Note_on_c, 13, 58, 52
15, 41640, Note_on_c, 13, 65, 52
15, 41744, Note_on_c, 13, 58, 0
15, 41744, Note_on_c, 13, 65, 0
15, 41760, Note_on_c, 13, 58, 52
15, 41760, Note_on_c, 13, 65, 52
15, 41864, Note_on_c, 13, 58, 0
15, 41864, Note_on_c, 13, 65, 0
15, 41880, Note_on_c, 13, 65, 52
15, 41880, Note_on_c, 13, 58, 52
15, 41984, Note_on_c, 13, 65, 0
15, 41984, Note_on_c, 13, 58, 0
15, 42000, Note_on_c, 13, 65, 52
15, 42000, Note_on_c, 13, 58, 52
15, 42104, Note_on_c, 13, 65, 0
15, 42104, Note_on_c, 13, 58, 0
15, 42120, Note_on_c, 13, 58, 52
15, 42120, Note_on_c, 13, 65, 52
15, 42224, Note_on_c, 13, 58, 0
15, 42224, Note_on_c, 13, 65, 0
15, 42240, Note_on_c, 13, 63, 52
15, 42240, Note_on_c, 13, 58, 52
15, 42344, Note_on_c, 13, 63, 0
15, 42344, Note_on_c, 13, 58, 0
15, 42360, Note_on_c, 13, 63, 52
15, 42360, Note_on_c, 13, 58, 52
15, 42464, Note_on_c, 13, 63, 0
15, 42464, Note_on_c, 13, 58, 0
15, 42480, Note_on_c, 13, 58, 52
15, 42480, Note_on_c, 13, 63, 52
15, 42584, Note_on_c, 13, 58, 0
15, 42584, Note_on_c, 13, 63, 0
15, 42600, Note_on_c, 13, 63, 52
15, 42600, Note_on_c, 13, 58, 52
15, 42704, Note_on_c, 13, 63, 0
15, 42704, Note_on_c, 13, 58, 0
15, 42720, Note_on_c, 13, 58, 52
15, 42720, Note_on_c, 13, 63, 52
15, 42824, Note_on_c, 13, 58, 0
15, 42824, Note_on_c, 13, 63, 0
15, 42840, Note_on_c, 13, 58, 52
15, 42840, Note_on_c, 13, 63, 52
15, 42944, Note_on_c, 13, 58, 0
15, 42944, Note_on_c, 13, 63, 0
15, 42960, Note_on_c, 13, 63, 52
15, 42960, Note_on_c, 13, 58, 52
15, 43064, Note_on_c, 13, 63, 0
15, 43064, Note_on_c, 13, 58, 0
15, 43080, Note_on_c, 13, 63, 52
15, 43080, Note_on_c, 13, 58, 52
15, 43184, Note_on_c, 13, 63, 0
15, 43184, Note_on_c, 13, 58, 0
15, 43200, Note_on_c, 13, 63, 52
15, 43200, Note_on_c, 13, 60, 52
15, 43304, Note_on_c, 13, 63, 0
15, 43304, Note_on_c, 13, 60, 0
15, 43320, Note_on_c, 13, 63, 52
15, 43320, Note_on_c, 13, 60, 52
15, 43424, Note_on_c, 13, 63, 0
15, 43424, Note_on_c, 13, 60, 0
15, 43440, Note_on_c, 13, 63, 52
15, 43440, Note_on_c, 13, 60, 52
15, 43544, Note_on_c, 13, 63, 0
15, 43544, Note_on_c, 13, 60, 0
15, 43560, Note_on_c, 13, 60, 52
15, 43560, Note_on_c, 13, 63, 52
15, 43664, Note_on_c, 13, 60, 0
15, 43664, Note_on_c, 13, 63, 0
15, 43680, Note_on_c, 13, 60, 52
15, 43680, Note_on_c, 13, 63, 52
15, 43784, Note_on_c, 13, 60, 0
15, 43784, Note_on_c, 13, 63, 0
15, 43800, Note_on_c, 13, 60, 52
15, 43800, Note_on_c, 13, 63, 52
15, 43904, Note_on_c, 13, 60, 0
15, 43904, Note_on_c, 13, 63, 0
15, 43920, Note_on_c, 13, 63, 52
15, 43920, Note_on_c, 13, 60, 52
15, 44024, Note_on_c, 13, 63, 0
15, 44024, Note_on_c, 13, 60, 0
15, 44040, Note_on_c, 13, 60, 52
15, 44040, Note_on_c, 13, 63, 52
15, 44144, Note_on_c, 13, 60, 0
15, 44144, Note_on_c, 13, 63, 0
15, 44160, Note_on_c, 13, 62, 52
15, 44160, Note_on_c, 13, 58, 52
15, 44399, Note_on_c, 13, 62, 0
15, 44399, Note_on_c, 13, 58, 0
15, 48000, Note_on_c, 13, 69, 84
15, 48000, Note_on_c, 13, 65, 84
15, 48179, Note_on_c, 13, 69, 0
15, 48179, Note_on_c, 13, 65, 0
15, 48960, Note_on_c, 13, 65, 84
15, 48960, Note_on_c, 13, 69, 84
15, 49139, Note_on_c, 13, 65, 0
15, 49139, Note_on_c, 13, 69, 0
15, 49440, Note_on_c, 13, 69, 84
15, 49440, Note_on_c, 13, 65, 84
15, 49619, Note_on_c, 13, 69, 0
15, 49619, Note_on_c, 13, 65, 0
15, 49920, Note_on_c, 13, 65, 84
15, 49920, Note_on_c, 13, 70, 84
15, 49920, Note_on_c, 13, 58, 84
15, 50024, Note_on_c, 13, 65, 0
15, 50024, Note_on_c, 13, 70, 0
15, 50024, Note_on_c, 13, 58, 0
15, 50040, Note_on_c, 13, 53, 84
15, 50040, Note_on_c, 13, 50, 84
15, 50144, Note_on_c, 13, 53, 0
15, 50144, Note_on_c, 13, 50, 0
15, 50160, Note_on_c, 13, 50, 84
15, 50160, Note_on_c, 13, 53, 84
15, 50264, Note_on_c, 13, 50, 0
15, 50264, Note_on_c, 13, 53, 0
15, 50280, Note_on_c, 13, 53, 84
15, 50280, Note_on_c, 13, 50, 84
15, 50384, Note_on_c, 13, 53, 0
15, 50384, Note_on_c, 13, 50, 0
15, 50400, Note_on_c, 13, 53, 84
15, 50400, Note_on_c, 13, 50, 84
15, 50504, Note_on_c, 13, 53, 0
15, 50504, Note_on_c, 13, 50, 0
15, 50520, Note_on_c, 13, 50, 84
15, 50520, Note_on_c, 13, 53, 84
15, 50624, Note_on_c, 13, 50, 0
15, 50624, Note_on_c, 13, 53, 0
15, 50640, Note_on_c, 13, 50, 84
15, 50640, Note_on_c, 13, 53, 84
15, 50744, Note_on_c, 13, 50, 0
15, 50744, Note_on_c, 13, 53, 0
15, 50760, Note_on_c, 13, 53, 84
15, 50760, Note_on_c, 13, 50, 84
15, 50864, Note_on_c, 13, 53, 0
15, 50864, Note_on_c, 13, 50, 0
15, 50880, Note_on_c, 13, 50, 84
15, 50880, Note_on_c, 13, 53, 84
15, 50984, Note_on_c, 13, 50, 0
15, 50984, Note_on_c, 13, 53, 0
15, 51000, Note_on_c, 13, 53, 84
15, 51000, Note_on_c, 13, 50, 84
15, 51104, Note_on_c, 13, 53, 0
15, 51104, Note_on_c, 13, 50, 0
15, 51120, Note_on_c, 13, 50, 84
15, 51120, Note_on_c, 13, 53, 84
15, 51224, Note_on_c, 13, 50, 0
15, 51224, Note_on_c, 13, 53, 0
15, 51240, Note_on_c, 13, 53, 84
15, 51240, Note_on_c, 13, 50, 84
15, 51344, Note_on_c, 13, 53, 0
15, 51344, Note_on_c, 13, 50, 0
15, 51360, Note_on_c, 13, 53, 84
15, 51360, Note_on_c, 13, 50, 84
15, 51464, Note_on_c, 13, 53, 0
15, 51464, Note_on_c, 13, 50, 0
15, 51480, Note_on_c, 13, 50, 84
15, 51480, Note_on_c, 13, 53, 84
15, 51584, Note_on_c, 13, 50, 0
15, 51584, Note_on_c, 13, 53, 0
15, 51600, Note_on_c, 13, 53, 84
15, 51600, Note_on_c, 13, 50, 84
15, 51704, Note_on_c, 13, 53, 0
15, 51704, Note_on_c, 13, 50, 0
15, 51720, Note_on_c, 13, 53, 84
15, 51720, Note_on_c, 13, 50, 84
15, 51824, Note_on_c, 13, 53, 0
15, 51824, Note_on_c, 13, 50, 0
15, 51840, Note_on_c, 13, 51, 84
15, 51840, Note_on_c, 13, 55, 84
15, 51944, Note_on_c, 13, 51, 0
15, 51944, Note_on_c, 13, 55, 0
15, 51960, Note_on_c, 13, 51, 84
15, 51960, Note_on_c, 13, 55, 84
15, 52064, Note_on_c, 13, 51, 0
15, 52064, Note_on_c, 13, 55, 0
15, 52080, Note_on_c, 13, 51, 84
15, 52080, Note_on_c, 13, 55, 84
15, 52184, Note_on_c, 13, 51, 0
15, 52184, Note_on_c, 13, 55, 0
15, 52200, Note_on_c, 13, 51, 84
15, 52200, Note_on_c, 13, 55, 84
15, 52304, Note_on_c, 13, 51, 0
15, 52304, Note_on_c, 13, 55, 0
15, 52320, Note_on_c, 13, 51, 84
15, 52320, Note_on_c, 13, 55, 84
15, 52424, Note_on_c, 13, 51, 0
15, 52424, Note_on_c, 13, 55, 0
15, 52440, Note_on_c, 13, 55, 84
15, 52440, Note_on_c, 13, 51, 84
15, 52544, Note_on_c, 13, 55, 0
15, 52544, Note_on_c, 13, 51, 0
15, 52560, Note_on_c, 13, 51, 84
15, 52560, Note_on_c, 13, 55, 84
15, 52664, Note_on_c, 13, 51, 0
15, 52664, Note_on_c, 13, 55, 0
15, 52680, Note_on_c, 13, 55, 84
15, 52680, Note_on_c, 13, 51, 84
15, 52784, Note_on_c, 13, 55, 0
15, 52784, Note_on_c, 13, 51, 0
15, 52800, Note_on_c, 13, 57, 84
15, 52800, Note_on_c, 13, 53, 84
15, 52904, Note_on_c, 13, 57, 0
15, 52904, Note_on_c, 13, 53, 0
15, 52920, Note_on_c, 13, 53, 84
15, 52920, Note_on_c, 13, 57, 84
15, 53024, Note_on_c, 13, 53, 0
15, 53024, Note_on_c, 13, 57, 0
15, 53040, Note_on_c, 13, 53, 84
15, 53040, Note_on_c, 13, 57, 84
15, 53144, Note_on_c, 13, 53, 0
15, 53144, Note_on_c, 13, 57, 0
15, 53160, Note_on_c, 13, 57, 84
15, 53160, Note_on_c, 13, 53, 84
15, 53264, Note_on_c, 13, 57, 0
15, 53264, Note_on_c, 13, 53, 0
15, 53280, Note_on_c, 13, 53, 84
15, 53280, Note_on_c, 13, 57, 84
15, 53384, Note_on_c, 13, 53, 0
15, 53384, Note_on_c, 13, 57, 0
15, 53400, Note_on_c, 13, 57, 84
15, 53400, Note_on_c, 13, 53, 84
15, 53504, Note_on_c, 13, 57, 0
15, 53504, Note_on_c, 13, 53, 0
15, 53520, Note_on_c, 13, 53, 84
15, 53520, Note_on_c, 13, 57, 84
15, 53624, Note_on_c, 13, 53, 0
15, 53624, Note_on_c, 13, 57, 0
15, 53640, Note_on_c, 13, 57, 84
15, 53640, Note_on_c, 13, 53, 84
15, 53744, Note_on_c, 13, 57, 0
15, 53744, Note_on_c, 13, 53, 0
15, 53760, Note_on_c, 13, 50, 84
15, 53760, Note_on_c, 13, 58, 84
15, 53864, Note_on_c, 13, 50, 0
15, 53864, Note_on_c, 13, 58, 0
15, 53880, Note_on_c, 13, 50, 84
15, 53880, Note_on_c, 13, 58, 84
15, 53984, Note_on_c, 13, 50, 0
15, 53984, Note_on_c, 13, 58, 0
15, 54000, Note_on_c, 13, 58, 84
15, 54104, Note_on_c, 13, 58, 0
15, 54120, Note_on_c, 13, 58, 84
15, 54224, Note_on_c, 13, 58, 0
15, 54240, Note_on_c, 13, 57, 84
15, 54344, Note_on_c, 13, 57, 0
15, 54360, Note_on_c, 13, 57, 84
15, 54464, Note_on_c, 13, 57, 0
15, 54480, Note_on_c, 13, 55, 84
15, 54584, Note_on_c, 13, 55, 0
15, 54600, Note_on_c, 13, 55, 84
15, 54704, Note_on_c, 13, 55, 0
15, 54720, Note_on_c, 13, 53, 84
15, 54824, Note_on_c, 13, 53, 0
15, 54840, Note_on_c, 13, 53, 84
15, 54944, Note_on_c, 13, 53, 0
15, 54960, Note_on_c, 13, 51, 84
15, 55064, Note_on_c, 13, 51, 0
15, 55080, Note_on_c, 13, 51, 84
15, 55184, Note_on_c, 13, 51, 0
15, 55200, Note_on_c, 13, 50, 84
15, 55304, Note_on_c, 13, 50, 0
15, 55320, Note_on_c, 13, 50, 84
15, 55424, Note_on_c, 13, 50, 0
15, 55440, Note_on_c, 13, 51, 84
15, 55544, Note_on_c, 13, 51, 0
15, 55560, Note_on_c, 13, 51, 84
15, 55664, Note_on_c, 13, 51, 0
15, 55680, Note_on_c, 13, 60, 92
15, 55799, Note_on_c, 13, 60, 0
15, 55800, Note_on_c, 13, 59, 84
15, 55919, Note_on_c, 13, 59, 0
15, 55920, Note_on_c, 13, 60, 84
15, 56039, Note_on_c, 13, 60, 0
15, 56040, Note_on_c, 13, 59, 84
15, 56159, Note_on_c, 13, 59, 0
15, 56160, Note_on_c, 13, 60, 84
15, 56279, Note_on_c, 13, 60, 0
15, 56280, Note_on_c, 13, 59, 84
15, 56399, Note_on_c, 13, 59, 0
15, 56400, Note_on_c, 13, 60, 84
15, 56519, Note_on_c, 13, 60, 0
15, 56520, Note_on_c, 13, 59, 84
15, 56624, Note_on_c, 13, 59, 0
15, 56640, Note_on_c, 13, 60, 84
15, 56744, Note_on_c, 13, 60, 0
15, 56760, Note_on_c, 13, 60, 84
15, 56864, Note_on_c, 13, 60, 0
15, 56880, Note_on_c, 13, 60, 84
15, 56984, Note_on_c, 13, 60, 0
15, 57000, Note_on_c, 13, 60, 84
15, 57104, Note_on_c, 13, 60, 0
15, 57120, Note_on_c, 13, 60, 84
15, 57224, Note_on_c, 13, 60, 0
15, 57240, Note_on_c, 13, 60, 84
15, 57344, Note_on_c, 13, 60, 0
15, 57360, Note_on_c, 13, 60, 84
15, 57464, Note_on_c, 13, 60, 0
15, 57480, Note_on_c, 13, 60, 84
15, 57584, Note_on_c, 13, 60, 0
15, 57600, Note_on_c, 13, 60, 84
15, 57839, Note_on_c, 13, 60, 0
15, 58560, Note_on_c, 13, 58, 84
15, 58799, Note_on_c, 13, 58, 0
15, 59520, Note_on_c, 13, 60, 84
15, 59520, Note_on_c, 13, 63, 84
15, 59759, Note_on_c, 13, 60, 0
15, 59759, Note_on_c, 13, 63, 0
15, 60480, Note_on_c, 13, 53, 84
15, 60719, Note_on_c, 13, 53, 0
15, 61440, Note_on_c, 13, 53, 44
15, 61440, Note_on_c, 13, 50, 44
15, 61544, Note_on_c, 13, 53, 0
15, 61544, Note_on_c, 13, 50, 0
15, 61560, Note_on_c, 13, 53, 44
15, 61560, Note_on_c, 13, 50, 44
15, 61664, Note_on_c, 13, 53, 0
15, 61664, Note_on_c, 13, 50, 0
15, 61680, Note_on_c, 13, 53, 44
15, 61680, Note_on_c, 13, 50, 44
15, 61784, Note_on_c, 13, 53, 0
15, 61784, Note_on_c, 13, 50, 0
15, 61800, Note_on_c, 13, 53, 44
15, 61800, Note_on_c, 13, 50, 44
15, 61904, Note_on_c, 13, 53, 0
15, 61904, Note_on_c, 13, 50, 0
15, 61920, Note_on_c, 13, 53, 44
15, 61920, Note_on_c, 13, 50, 44
15, 62024, Note_on_c, 13, 53, 0
15, 62024, Note_on_c, 13, 50, 0
15, 62040, Note_on_c, 13, 53, 44
15, 62040, Note_on_c, 13, 50, 44
15, 62144, Note_on_c, 13, 53, 0
15, 62144, Note_on_c, 13, 50, 0
15, 62160, Note_on_c, 13, 50, 44
15, 62160, Note_on_c, 13, 53, 44
15, 62264, Note_on_c, 13, 50, 0
15, 62264, Note_on_c, 13, 53, 0
15, 62280, Note_on_c, 13, 53, 44
15, 62280, Note_on_c, 13, 50, 44
15, 62384, Note_on_c, 13, 53, 0
15, 62384, Note_on_c, 13, 50, 0
15, 62400, Note_on_c, 13, 50, 44
15, 62400, Note_on_c, 13, 53, 44
15, 62504, Note_on_c, 13, 50, 0
15, 62504, Note_on_c, 13, 53, 0
15, 62520, Note_on_c, 13, 50, 44
15, 62520, Note_on_c, 13, 53, 44
15, 62624, Note_on_c, 13, 50, 0
15, 62624, Note_on_c, 13, 53, 0
15, 62640, Note_on_c, 13, 53, 44
15, 62640, Note_on_c, 13, 50, 44
15, 62744, Note_on_c, 13, 53, 0
15, 62744, Note_on_c, 13, 50, 0
15, 62760, Note_on_c, 13, 50, 44
15, 62760, Note_on_c, 13, 53, 44
15, 62864, Note_on_c, 13, 50, 0
15, 62864, Note_on_c, 13, 53, 0
15, 62880, Note_on_c, 13, 53, 44
15, 62880, Note_on_c, 13, 50, 44
15, 62984, Note_on_c, 13, 53, 0
15, 62984, Note_on_c, 13, 50, 0
15, 63000, Note_on_c, 13, 53, 44
15, 63000, Note_on_c, 13, 50, 44
15, 63104, Note_on_c, 13, 53, 0
15, 63104, Note_on_c, 13, 50, 0
15, 63120, Note_on_c, 13, 50, 44
15, 63120, Note_on_c, 13, 53, 44
15, 63224, Note_on_c, 13, 50, 0
15, 63224, Note_on_c, 13, 53, 0
15, 63240, Note_on_c, 13, 50, 44
15, 63240, Note_on_c, 13, 53, 44
15, 63344, Note_on_c, 13, 50, 0
15, 63344, Note_on_c, 13, 53, 0
15, 63360, Note_on_c, 13, 50, 44
15, 63360, Note_on_c, 13, 53, 44
15, 63464, Note_on_c, 13, 50, 0
15, 63464, Note_on_c, 13, 53, 0
15, 63480, Note_on_c, 13, 50, 44
15, 63480, Note_on_c, 13, 53, 44
15, 63584, Note_on_c, 13, 50, 0
15, 63584, Note_on_c, 13, 53, 0
15, 63600, Note_on_c, 13, 50, 44
15, 63600, Note_on_c, 13, 53, 44
15, 63704, Note_on_c, 13, 50, 0
15, 63704, Note_on_c, 13, 53, 0
15, 63720, Note_on_c, 13, 53, 44
15, 63720, Note_on_c, 13, 50, 44
15, 63824, Note_on_c, 13, 53, 0
15, 63824, Note_on_c, 13, 50, 0
15, 63840, Note_on_c, 13, 53, 44
15, 63840, Note_on_c, 13, 50, 44
15, 63944, Note_on_c, 13, 53, 0
15, 63944, Note_on_c, 13, 50, 0
15, 63960, Note_on_c, 13, 50, 44
15, 63960, Note_on_c, 13, 53, 44
15, 64064, Note_on_c, 13, 50, 0
15, 64064, Note_on_c, 13, 53, 0
15, 64080, Note_on_c, 13, 50, 44
15, 64080, Note_on_c, 13, 53, 44
15, 64184, Note_on_c, 13, 50, 0
15, 64184, Note_on_c, 13, 53, 0
15, 64200, Note_on_c, 13, 50, 44
15, 64200, Note_on_c, 13, 53, 44
15, 64304, Note_on_c, 13, 50, 0
15, 64304, Note_on_c, 13, 53, 0
15, 64320, Note_on_c, 13, 50, 44
15, 64320, Note_on_c, 13, 53, 44
15, 64424, Note_on_c, 13, 50, 0
15, 64424, Note_on_c, 13, 53, 0
15, 64440, Note_on_c, 13, 50, 44
15, 64440, Note_on_c, 13, 53, 44
15, 64544, Note_on_c, 13, 50, 0
15, 64544, Note_on_c, 13, 53, 0
15, 64560, Note_on_c, 13, 53, 44
15, 64560, Note_on_c, 13, 50, 44
15, 64664, Note_on_c, 13, 53, 0
15, 64664, Note_on_c, 13, 50, 0
15, 64680, Note_on_c, 13, 50, 44
15, 64680, Note_on_c, 13, 53, 44
15, 64784, Note_on_c, 13, 50, 0
15, 64784, Note_on_c, 13, 53, 0
15, 64800, Note_on_c, 13, 50, 44
15, 64800, Note_on_c, 13, 53, 44
15, 64904, Note_on_c, 13, 50, 0
15, 64904, Note_on_c, 13, 53, 0
15, 64920, Note_on_c, 13, 50, 44
15, 64920, Note_on_c, 13, 53, 44
15, 65024, Note_on_c, 13, 50, 0
15, 65024, Note_on_c, 13, 53, 0
15, 65040, Note_on_c, 13, 50, 44
15, 65040, Note_on_c, 13, 53, 44
15, 65144, Note_on_c, 13, 50, 0
15, 65144, Note_on_c, 13, 53, 0
15, 65160, Note_on_c, 13, 50, 44
15, 65160, Note_on_c, 13, 53, 44
15, 65264, Note_on_c, 13, 50, 0
15, 65264, Note_on_c, 13, 53, 0
15, 65280, Note_on_c, 13, 54, 44
15, 65280, Note_on_c, 13, 51, 44
15, 65384, Note_on_c, 13, 54, 0
15, 65384, Note_on_c, 13, 51, 0
15, 65400, Note_on_c, 13, 51, 44
15, 65400, Note_on_c, 13, 54, 44
15, 65504, Note_on_c, 13, 51, 0
15, 65504, Note_on_c, 13, 54, 0
15, 65520, Note_on_c, 13, 54, 44
15, 65520, Note_on_c, 13, 51, 44
15, 65624, Note_on_c, 13, 54, 0
15, 65624, Note_on_c, 13, 51, 0
15, 65640, Note_on_c, 13, 51, 44
15, 65640, Note_on_c, 13, 54, 44
15, 65744, Note_on_c, 13, 51, 0
15, 65744, Note_on_c, 13, 54, 0
15, 65760, Note_on_c, 13, 51, 44
15, 65760, Note_on_c, 13, 54, 44
15, 65864, Note_on_c, 13, 51, 0
15, 65864, Note_on_c, 13, 54, 0
15, 65880, Note_on_c, 13, 51, 44
15, 65880, Note_on_c, 13, 54, 44
15, 65984, Note_on_c, 13, 51, 0
15, 65984, Note_on_c, 13, 54, 0
15, 66000, Note_on_c, 13, 51, 44
15, 66000, Note_on_c, 13, 54, 44
15, 66104, Note_on_c, 13, 51, 0
15, 66104, Note_on_c, 13, 54, 0
15, 66120, Note_on_c, 13, 51, 44
15, 66120, Note_on_c, 13, 54, 44
15, 66224, Note_on_c, 13, 51, 0
15, 66224, Note_on_c, 13, 54, 0
15, 66240, Note_on_c, 13, 51, 44
15, 66240, Note_on_c, 13, 54, 44
15, 66344, Note_on_c, 13, 51, 0
15, 66344, Note_on_c, 13, 54, 0
15, 66360, Note_on_c, 13, 54, 44
15, 66360, Note_on_c, 13, 51, 44
15, 66464, Note_on_c, 13, 54, 0
15, 66464, Note_on_c, 13, 51, 0
15, 66480, Note_on_c, 13, 54, 44
15, 66480, Note_on_c, 13, 51, 44
15, 66584, Note_on_c, 13, 54, 0
15, 66584, Note_on_c, 13, 51, 0
15, 66600, Note_on_c, 13, 51, 44
15, 66600, Note_on_c, 13, 54, 44
15, 66704, Note_on_c, 13, 51, 0
15, 66704, Note_on_c, 13, 54, 0
15, 66720, Note_on_c, 13, 51, 44
15, 66720, Note_on_c, 13, 54, 44
15, 66824, Note_on_c, 13, 51, 0
15, 66824, Note_on_c, 13, 54, 0
15, 66840, Note_on_c, 13, 51, 44
15, 66840, Note_on_c, 13, 54, 44
15, 66944, Note_on_c, 13, 51, 0
15, 66944, Note_on_c, 13, 54, 0
15, 66960, Note_on_c, 13, 51, 44
15, 66960, Note_on_c, 13, 54, 44
15, 67064, Note_on_c, 13, 51, 0
15, 67064, Note_on_c, 13, 54, 0
15, 67080, Note_on_c, 13, 54, 44
15, 67080, Note_on_c, 13, 51, 44
15, 67184, Note_on_c, 13, 54, 0
15, 67184, Note_on_c, 13, 51, 0
15, 67200, Note_on_c, 13, 54, 44
15, 67200, Note_on_c, 13, 51, 44
15, 67304, Note_on_c, 13, 54, 0
15, 67304, Note_on_c, 13, 51, 0
15, 67320, Note_on_c, 13, 54, 44
15, 67320, Note_on_c, 13, 51, 44
15, 67424, Note_on_c, 13, 54, 0
15, 67424, Note_on_c, 13, 51, 0
15, 67440, Note_on_c, 13, 54, 44
15, 67440, Note_on_c, 13, 51, 44
15, 67544, Note_on_c, 13, 54, 0
15, 67544, Note_on_c, 13, 51, 0
15, 67560, Note_on_c, 13, 51, 44
15, 67560, Note_on_c, 13, 54, 44
15, 67664, Note_on_c, 13, 51, 0
15, 67664, Note_on_c, 13, 54, 0
15, 67680, Note_on_c, 13, 54, 44
15, 67680, Note_on_c, 13, 51, 44
15, 67784, Note_on_c, 13, 54, 0
15, 67784, Note_on_c, 13, 51, 0
15, 67800, Note_on_c, 13, 51, 44
15, 67800, Note_on_c, 13, 54, 44
15, 67904, Note_on_c, 13, 51, 0
15, 67904, Note_on_c, 13, 54, 0
15, 67920, Note_on_c, 13, 51, 44
15, 67920, Note_on_c, 13, 54, 44
15, 68024, Note_on_c, 13, 51, 0
15, 68024, Note_on_c, 13, 54, 0
15, 68040, Note_on_c, 13, 54, 44
15, 68040, Note_on_c, 13, 51, 44
15, 68144, Note_on_c, 13, 54, 0
15, 68144, Note_on_c, 13, 51, 0
15, 68160, Note_on_c, 13, 54, 44
15, 68160, Note_on_c, 13, 51, 44
15, 68264, Note_on_c, 13, 54, 0
15, 68264, Note_on_c, 13, 51, 0
15, 68280, Note_on_c, 13, 51, 44
15, 68280, Note_on_c, 13, 54, 44
15, 68384, Note_on_c, 13, 51, 0
15, 68384, Note_on_c, 13, 54, 0
15, 68400, Note_on_c, 13, 54, 44
15, 68400, Note_on_c, 13, 51, 44
15, 68504, Note_on_c, 13, 54, 0
15, 68504, Note_on_c, 13, 51, 0
15, 68520, Note_on_c, 13, 51, 44
15, 68520, Note_on_c, 13, 54, 44
15, 68624, Note_on_c, 13, 51, 0
15, 68624, Note_on_c, 13, 54, 0
15, 68640, Note_on_c, 13, 51, 44
15, 68640, Note_on_c, 13, 54, 44
15, 68744, Note_on_c, 13, 51, 0
15, 68744, Note_on_c, 13, 54, 0
15, 68760, Note_on_c, 13, 54, 44
15, 68760, Note_on_c, 13, 51, 44
15, 68864, Note_on_c, 13, 54, 0
15, 68864, Note_on_c, 13, 51, 0
15, 68880, Note_on_c, 13, 51, 44
15, 68880, Note_on_c, 13, 54, 44
15, 68984, Note_on_c, 13, 51, 0
15, 68984, Note_on_c, 13, 54, 0
15, 69000, Note_on_c, 13, 54, 44
15, 69000, Note_on_c, 13, 51, 44
15, 69104, Note_on_c, 13, 54, 0
15, 69104, Note_on_c, 13, 51, 0
15, 69120, Note_on_c, 13, 53, 44
15, 69120, Note_on_c, 13, 56, 44
15, 69224, Note_on_c, 13, 53, 0
15, 69224, Note_on_c, 13, 56, 0
15, 69240, Note_on_c, 13, 56, 44
15, 69240, Note_on_c, 13, 53, 44
15, 69344, Note_on_c, 13, 56, 0
15, 69344, Note_on_c, 13, 53, 0
15, 69360, Note_on_c, 13, 56, 44
15, 69360, Note_on_c, 13, 53, 44
15, 69464, Note_on_c, 13, 56, 0
15, 69464, Note_on_c, 13, 53, 0
15, 69480, Note_on_c, 13, 56, 44
15, 69480, Note_on_c, 13, 53, 44
15, 69584, Note_on_c, 13, 56, 0
15, 69584, Note_on_c, 13, 53, 0
15, 69600, Note_on_c, 13, 53, 44
15, 69600, Note_on_c, 13, 56, 44
15, 69704, Note_on_c, 13, 53, 0
15, 69704, Note_on_c, 13, 56, 0
15, 69720, Note_on_c, 13, 53, 44
15, 69720, Note_on_c, 13, 56, 44
15, 69824, Note_on_c, 13, 53, 0
15, 69824, Note_on_c, 13, 56, 0
15, 69840, Note_on_c, 13, 53, 44
15, 69840, Note_on_c, 13, 56, 44
15, 69944, Note_on_c, 13, 53, 0
15, 69944, Note_on_c, 13, 56, 0
15, 69960, Note_on_c, 13, 56, 44
15, 69960, Note_on_c, 13, 53, 44
15, 70064, Note_on_c, 13, 56, 0
15, 70064, Note_on_c, 13, 53, 0
15, 70080, Note_on_c, 13, 56, 44
15, 70080, Note_on_c, 13, 53, 44
15, 70184, Note_on_c, 13, 56, 0
15, 70184, Note_on_c, 13, 53, 0
15, 70200, Note_on_c, 13, 56, 44
15, 70200, Note_on_c, 13, 53, 44
15, 70304, Note_on_c, 13, 56, 0
15, 70304, Note_on_c, 13, 53, 0
15, 70320, Note_on_c, 13, 53, 44
15, 70320, Note_on_c, 13, 56, 44
15, 70424, Note_on_c, 13, 53, 0
15, 70424, Note_on_c, 13, 56, 0
15, 70440, Note_on_c, 13, 56, 44
15, 70440, Note_on_c, 13, 53, 44
15, 70544, Note_on_c, 13, 56, 0
15, 70544, Note_on_c, 13, 53, 0
15, 70560, Note_on_c, 13, 56, 44
15, 70560, Note_on_c, 13, 53, 44
15, 70664, Note_on_c, 13, 56, 0
15, 70664, Note_on_c, 13, 53, 0
15, 70680, Note_on_c, 13, 53, 44
15, 70680, Note_on_c, 13, 56, 44
15, 70784, Note_on_c, 13, 53, 0
15, 70784, Note_on_c, 13, 56, 0
15, 70800, Note_on_c, 13, 53, 44
15, 70800, Note_on_c, 13, 56, 44
15, 70904, Note_on_c, 13, 53, 0
15, 70904, Note_on_c, 13, 56, 0
15, 70920, Note_on_c, 13, 56, 44
15, 70920, Note_on_c, 13, 53, 44
15, 71024, Note_on_c, 13, 56, 0
15, 71024, Note_on_c, 13, 53, 0
15, 71040, Note_on_c, 13, 55, 44
15, 71040, Note_on_c, 13, 58, 44
15, 71144, Note_on_c, 13, 55, 0
15, 71144, Note_on_c, 13, 58, 0
15, 71160, Note_on_c, 13, 58, 44
15, 71160, Note_on_c, 13, 55, 44
15, 71264, Note_on_c, 13, 58, 0
15, 71264, Note_on_c, 13, 55, 0
15, 71280, Note_on_c, 13, 55, 44
15, 71280, Note_on_c, 13, 58, 44
15, 71384, Note_on_c, 13, 55, 0
15, 71384, Note_on_c, 13, 58, 0
15, 71400, Note_on_c, 13, 55, 44
15, 71400, Note_on_c, 13, 58, 44
15, 71504, Note_on_c, 13, 55, 0
15, 71504, Note_on_c, 13, 58, 0
15, 71520, Note_on_c, 13, 58, 44
15, 71520, Note_on_c, 13, 55, 44
15, 71624, Note_on_c, 13, 58, 0
15, 71624, Note_on_c, 13, 55, 0
15, 71640, Note_on_c, 13, 58, 44
15, 71640, Note_on_c, 13, 55, 44
15, 71744, Note_on_c, 13, 58, 0
15, 71744, Note_on_c, 13, 55, 0
15, 71760, Note_on_c, 13, 55, 44
15, 71760, Note_on_c, 13, 58, 44
15, 71864, Note_on_c, 13, 55, 0
15, 71864, Note_on_c, 13, 58, 0
15, 71880, Note_on_c, 13, 55, 44
15, 71880, Note_on_c, 13, 58, 44
15, 71984, Note_on_c, 13, 55, 0
15, 71984, Note_on_c, 13, 58, 0
15, 72000, Note_on_c, 13, 58, 44
15, 72000, Note_on_c, 13, 55, 44
15, 72104, Note_on_c, 13, 58, 0
15, 72104, Note_on_c, 13, 55, 0
15, 72120, Note_on_c, 13, 55, 44
15, 72120, Note_on_c, 13, 58, 44
15, 72224, Note_on_c, 13, 55, 0
15, 72224, Note_on_c, 13, 58, 0
15, 72240, Note_on_c, 13, 55, 44
15, 72240, Note_on_c, 13, 58, 44
15, 72344, Note_on_c, 13, 55, 0
15, 72344, Note_on_c, 13, 58, 0
15, 72360, Note_on_c, 13, 58, 44
15, 72360, Note_on_c, 13, 55, 44
15, 72464, Note_on_c, 13, 58, 0
15, 72464, Note_on_c, 13, 55, 0
15, 72480, Note_on_c, 13, 58, 44
15, 72480, Note_on_c, 13, 55, 44
15, 72584, Note_on_c, 13, 58, 0
15, 72584, Note_on_c, 13, 55, 0
15, 72600, Note_on_c, 13, 55, 44
15, 72600, Note_on_c, 13, 58, 44
15, 72704, Note_on_c, 13, 55, 0
15, 72704, Note_on_c, 13, 58, 0
15, 72720, Note_on_c, 13, 55, 44
15, 72720, Note_on_c, 13, 58, 44
15, 72824, Note_on_c, 13, 55, 0
15, 72824, Note_on_c, 13, 58, 0
15, 72840, Note_on_c, 13, 55, 44
15, 72840, Note_on_c, 13, 58, 44
15, 72944, Note_on_c, 13, 55, 0
15, 72944, Note_on_c, 13, 58, 0
15, 72960, Note_on_c, 13, 63, 44
15, 72960, Note_on_c, 13, 60, 44
15, 73064, Note_on_c, 13, 63, 0
15, 73064, Note_on_c, 13, 60, 0
15, 73080, Note_on_c, 13, 60, 45
15, 73080, Note_on_c, 13, 63, 45
15, 73184, Note_on_c, 13, 60, 0
15, 73184, Note_on_c, 13, 63, 0
15, 73200, Note_on_c, 13, 60, 46
15, 73200, Note_on_c, 13, 63, 46
15, 73304, Note_on_c, 13, 60, 0
15, 73304, Note_on_c, 13, 63, 0
15, 73320, Note_on_c, 13, 60, 47
15, 73320, Note_on_c, 13, 63, 47
15, 73424, Note_on_c, 13, 60, 0
15, 73424, Note_on_c, 13, 63, 0
15, 73440, Note_on_c, 13, 60, 49
15, 73440, Note_on_c, 13, 63, 49
15, 73544, Note_on_c, 13, 60, 0
15, 73544, Note_on_c, 13, 63, 0
15, 73560, Note_on_c, 13, 63, 50
15, 73560, Note_on_c, 13, 60, 50
15, 73664, Note_on_c, 13, 63, 0
15, 73664, Note_on_c, 13, 60, 0
15, 73680, Note_on_c, 13, 63, 51
15, 73680, Note_on_c, 13, 60, 51
15, 73784, Note_on_c, 13, 63, 0
15, 73784, Note_on_c, 13, 60, 0
15, 73800, Note_on_c, 13, 60, 52
15, 73800, Note_on_c, 13, 63, 52
15, 73904, Note_on_c, 13, 60, 0
15, 73904, Note_on_c, 13, 63, 0
15, 73920, Note_on_c, 13, 63, 54
15, 73920, Note_on_c, 13, 60, 54
15, 74024, Note_on_c, 13, 63, 0
15, 74024, Note_on_c, 13, 60, 0
15, 74040, Note_on_c, 13, 60, 55
15, 74040, Note_on_c, 13, 63, 55
15, 74144, Note_on_c, 13, 60, 0
15, 74144, Note_on_c, 13, 63, 0
15, 74160, Note_on_c, 13, 63, 56
15, 74160, Note_on_c, 13, 60, 56
15, 74264, Note_on_c, 13, 63, 0
15, 74264, Note_on_c, 13, 60, 0
15, 74280, Note_on_c, 13, 63, 57
15, 74280, Note_on_c, 13, 60, 57
15, 74384, Note_on_c, 13, 63, 0
15, 74384, Note_on_c, 13, 60, 0
15, 74400, Note_on_c, 13, 60, 59
15, 74400, Note_on_c, 13, 63, 59
15, 74504, Note_on_c, 13, 60, 0
15, 74504, Note_on_c, 13, 63, 0
15, 74520, Note_on_c, 13, 63, 60
15, 74520, Note_on_c, 13, 60, 60
15, 74624, Note_on_c, 13, 63, 0
15, 74624, Note_on_c, 13, 60, 0
15, 74640, Note_on_c, 13, 60, 61
15, 74640, Note_on_c, 13, 63, 61
15, 74744, Note_on_c, 13, 60, 0
15, 74744, Note_on_c, 13, 63, 0
15, 74760, Note_on_c, 13, 60, 62
15, 74760, Note_on_c, 13, 63, 62
15, 74864, Note_on_c, 13, 60, 0
15, 74864, Note_on_c, 13, 63, 0
15, 74880, Note_on_c, 13, 60, 64
15, 74880, Note_on_c, 13, 63, 64
15, 74984, Note_on_c, 13, 60, 0
15, 74984, Note_on_c, 13, 63, 0
15, 75000, Note_on_c, 13, 63, 65
15, 75000, Note_on_c, 13, 60, 65
15, 75104, Note_on_c, 13, 63, 0
15, 75104, Note_on_c, 13, 60, 0
15, 75120, Note_on_c, 13, 60, 66
15, 75120, Note_on_c, 13, 63, 66
15, 75224, Note_on_c, 13, 60, 0
15, 75224, Note_on_c, 13, 63, 0
15, 75240, Note_on_c, 13, 60, 67
15, 75240, Note_on_c, 13, 63, 67
15, 75344, Note_on_c, 13, 60, 0
15, 75344, Note_on_c, 13, 63, 0
15, 75360, Note_on_c, 13, 60, 69
15, 75360, Note_on_c, 13, 63, 69
15, 75464, Note_on_c, 13, 60, 0
15, 75464, Note_on_c, 13, 63, 0
15, 75480, Note_on_c, 13, 63, 70
15, 75480, Note_on_c, 13, 60, 70
15, 75584, Note_on_c, 13, 63, 0
15, 75584, Note_on_c, 13, 60, 0
15, 75600, Note_on_c, 13, 63, 71
15, 75600, Note_on_c, 13, 60, 71
15, 75704, Note_on_c, 13, 63, 0
15, 75704, Note_on_c, 13, 60, 0
15, 75720, Note_on_c, 13, 60, 72
15, 75720, Note_on_c, 13, 63, 72
15, 75824, Note_on_c, 13, 60, 0
15, 75824, Note_on_c, 13, 63, 0
15, 75840, Note_on_c, 13, 63, 74
15, 75840, Note_on_c, 13, 60, 74
15, 75944, Note_on_c, 13, 63, 0
15, 75944, Note_on_c, 13, 60, 0
15, 75960, Note_on_c, 13, 60, 75
15, 75960, Note_on_c, 13, 63, 75
15, 76064, Note_on_c, 13, 60, 0
15, 76064, Note_on_c, 13, 63, 0
15, 76080, Note_on_c, 13, 63, 76
15, 76080, Note_on_c, 13, 60, 76
15, 76184, Note_on_c, 13, 63, 0
15, 76184, Note_on_c, 13, 60, 0
15, 76200, Note_on_c, 13, 63, 77
15, 76200, Note_on_c, 13, 60, 77
15, 76304, Note_on_c, 13, 63, 0
15, 76304, Note_on_c, 13, 60, 0
15, 76320, Note_on_c, 13, 60, 79
15, 76320, Note_on_c, 13, 63, 79
15, 76544, Note_on_c, 13, 60, 0
15, 76544, Note_on_c, 13, 63, 0
15, 76560, Note_on_c, 13, 65, 81
15, 76607, Note_on_c, 13, 65, 0
15, 76608, Note_on_c, 13, 67, 82
15, 76655, Note_on_c, 13, 67, 0
15, 76656, Note_on_c, 13, 69, 82
15, 76703, Note_on_c, 13, 69, 0
15, 76704, Note_on_c, 13, 70, 83
15, 76751, Note_on_c, 13, 70, 0
15, 76752, Note_on_c, 13, 72, 83
15, 76791, Note_on_c, 13, 72, 0
15, 76800, Note_on_c, 13, 74, 84
15, 76904, Note_on_c, 13, 74, 0
15, 76920, Note_on_c, 13, 74, 84
15, 77024, Note_on_c, 13, 74, 0
15, 77040, Note_on_c, 13, 70, 84
15, 77144, Note_on_c, 13, 70, 0
15, 77160, Note_on_c, 13, 70, 84
15, 77264, Note_on_c, 13, 70, 0
15, 77280, Note_on_c, 13, 65, 84
15, 77384, Note_on_c, 13, 65, 0
15, 77400, Note_on_c, 13, 65, 84
15, 77504, Note_on_c, 13, 65, 0
15, 77520, Note_on_c, 13, 70, 84
15, 77624, Note_on_c, 13, 70, 0
15, 77640, Note_on_c, 13, 70, 84
15, 77744, Note_on_c, 13, 70, 0
15, 77760, Note_on_c, 13, 62, 84
15, 77864, Note_on_c, 13, 62, 0
15, 77880, Note_on_c, 13, 62, 84
15, 77984, Note_on_c, 13, 62, 0
15, 78000, Note_on_c, 13, 65, 84
15, 78104, Note_on_c, 13, 65, 0
15, 78120, Note_on_c, 13, 65, 84
15, 78224, Note_on_c, 13, 65, 0
15, 78240, Note_on_c, 13, 58, 84
15, 78344, Note_on_c, 13, 58, 0
15, 78360, Note_on_c, 13, 58, 84
15, 78464, Note_on_c, 13, 58, 0
15, 78480, Note_on_c, 13, 62, 84
15, 78584, Note_on_c, 13, 62, 0
15, 78600, Note_on_c, 13, 62, 84
15, 78704, Note_on_c, 13, 62, 0
15, 78720, Note_on_c, 13, 55, 84
15, 78824, Note_on_c, 13, 55, 0
15, 78840, Note_on_c, 13, 55, 84
15, 78944, Note_on_c, 13, 55, 0
15, 78960, Note_on_c, 13, 63, 84
15, 79064, Note_on_c, 13, 63, 0
15, 79080, Note_on_c, 13, 63, 84
15, 79184, Note_on_c, 13, 63, 0
15, 79200, Note_on_c, 13, 60, 84
15, 79304, Note_on_c, 13, 60, 0
15, 79320, Note_on_c, 13, 60, 84
15, 79424, Note_on_c, 13, 60, 0
15, 79440, Note_on_c, 13, 58, 84
15, 79544, Note_on_c, 13, 58, 0
15, 79560, Note_on_c, 13, 58, 84
15, 79664, Note_on_c, 13, 58, 0
15, 79680, Note_on_c, 13, 57, 84
15, 79784, Note_on_c, 13, 57, 0
15, 79800, Note_on_c, 13, 57, 84
15, 79904, Note_on_c, 13, 57, 0
15, 79920, Note_on_c, 13, 65, 84
15, 80024, Note_on_c, 13, 65, 0
15, 80040, Note_on_c, 13, 65, 84
15, 80144, Note_on_c, 13, 65, 0
15, 80160, Note_on_c, 13, 63, 84
15, 80264, Note_on_c, 13, 63, 0
15, 80280, Note_on_c, 13, 63, 84
15, 80384, Note_on_c, 13, 63, 0
15, 80400, Note_on_c, 13, 60, 84
15, 80504, Note_on_c, 13, 60, 0
15, 80520, Note_on_c, 13, 60, 84
15, 80624, Note_on_c, 13, 60, 0
15, 80640, Note_on_c, 13, 58, 92
15, 81599, Note_on_c, 13, 58, 0
15, 81600, Note_on_c, 13, 58, 84
15, 82544, Note_on_c, 13, 58, 0
15, 82560, Note_on_c, 13, 63, 92
15, 83489, Note_on_c, 13, 63, 0
15, 83520, Note_on_c, 13, 65, 92
15, 84449, Note_on_c, 13, 65, 0
15, 84480, Note_on_c, 13, 58, 92
15, 85409, Note_on_c, 13, 58, 0
15, 85440, Note_on_c, 13, 57, 92
15, 86369, Note_on_c, 13, 57, 0
15, 86400, Note_on_c, 13, 62, 92
15, 87329, Note_on_c, 13, 62, 0
15, 87360, Note_on_c, 13, 60, 92
15, 88319, Note_on_c, 13, 60, 0
15, 88320, Note_on_c, 13, 60, 84
15, 88544, Note_on_c, 13, 60, 0
15, 88560, Note_on_c, 13, 60, 84
15, 88664, Note_on_c, 13, 60, 0
15, 88680, Note_on_c, 13, 60, 84
15, 88784, Note_on_c, 13, 60, 0
15, 88800, Note_on_c, 13, 58, 84
15, 88904, Note_on_c, 13, 58, 0
15, 88920, Note_on_c, 13, 58, 84
15, 89024, Note_on_c, 13, 58, 0
15, 89040, Note_on_c, 13, 55, 84
15, 89144, Note_on_c, 13, 55, 0
15, 89160, Note_on_c, 13, 55, 84
15, 89264, Note_on_c, 13, 55, 0
15, 89280, Note_on_c, 13, 56, 84
15, 89384, Note_on_c, 13, 56, 0
15, 89400, Note_on_c, 13, 56, 84
15, 89504, Note_on_c, 13, 56, 0
15, 89520, Note_on_c, 13, 53, 84
15, 89624, Note_on_c, 13, 53, 0
15, 89640, Note_on_c, 13, 53, 84
15, 89744, Note_on_c, 13, 53, 0
15, 89760, Note_on_c, 13, 51, 84
15, 89864, Note_on_c, 13, 51, 0
15, 89880, Note_on_c, 13, 51, 84
15, 89984, Note_on_c, 13, 51, 0
15, 90000, Note_on_c, 13, 49, 84
15, 90104, Note_on_c, 13, 49, 0
15, 90120, Note_on_c, 13, 49, 84
15, 90224, Note_on_c, 13, 49, 0
15, 90240, Note_on_c, 13, 48, 84
15, 90479, Note_on_c, 13, 48, 0
15, 93360, Note_on_c, 13, 53, 92
15, 93839, Note_on_c, 13, 53, 0
15, 93840, Note_on_c, 13, 48, 84
15, 94064, Note_on_c, 13, 48, 0
15, 94080, Note_on_c, 13, 48, 84
15, 94259, Note_on_c, 13, 48, 0
15, 94320, Note_on_c, 13, 60, 84
15, 94320, Note_on_c, 13, 48, 84
15, 94784, Note_on_c, 13, 60, 0
15, 94784, Note_on_c, 13, 48, 0
15, 94800, Note_on_c, 13, 60, 84
15, 94800, Note_on_c, 13, 48, 84
15, 95264, Note_on_c, 13, 60, 0
15, 95264, Note_on_c, 13, 48, 0
15, 95280, Note_on_c, 13, 60, 84
15, 95280, Note_on_c, 13, 48, 84
15, 95744, Note_on_c, 13, 60, 0
15, 95744, Note_on_c, 13, 48, 0
15, 95760, Note_on_c, 13, 60, 84
15, 95760, Note_on_c, 13, 48, 84
15, 96224, Note_on_c, 13, 60, 0
15, 96224, Note_on_c, 13, 48, 0
15, 96240, Note_on_c, 13, 60, 84
15, 96240, Note_on_c, 13, 48, 84
15, 96704, Note_on_c, 13, 60, 0
15, 96704, Note_on_c, 13, 48, 0
15, 96720, Note_on_c, 13, 60, 84
15, 96720, Note_on_c, 13, 48, 84
15, 97184, Note_on_c, 13, 60, 0
15, 97184, Note_on_c, 13, 48, 0
15, 97200, Note_on_c, 13, 60, 92
15, 97200, Note_on_c, 13, 48, 92
15, 97649, Note_on_c, 13, 60, 0
15, 97649, Note_on_c, 13, 48, 0
15, 97680, Note_on_c, 13, 48, 84
15, 97680, Note_on_c, 13, 60, 84
15, 97904, Note_on_c, 13, 48, 0
15, 97904, Note_on_c, 13, 60, 0
15, 97920, Note_on_c, 13, 48, 92
15, 97920, Note_on_c, 13, 60, 92
15, 97980, Control_c, 13, 11, 112
15, 98138, Control_c, 13, 11, 110
15, 98295, Control_c, 13, 11, 108
15, 98453, Control_c, 13, 11, 106
15, 98610, Control_c, 13, 11, 104
15, 98639, Note_on_c, 13, 48, 0
15, 98639, Note_on_c, 13, 60, 0
15, 98640, Note_on_c, 13, 62, 84
15, 98768, Control_c, 13, 11, 102
15, 98879, Note_on_c, 13, 62, 0
15, 98880, Note_on_c, 13, 55, 84
15, 98925, Control_c, 13, 11, 100
15, 99083, Control_c, 13, 11, 98
15, 99119, Note_on_c, 13, 55, 0
15, 99120, Note_on_c, 13, 57, 84
15, 99240, Control_c, 13, 11, 96
15, 99359, Note_on_c, 13, 57, 0
15, 99360, Note_on_c, 13, 58, 84
15, 99398, Control_c, 13, 11, 94
15, 99555, Control_c, 13, 11, 92
15, 99599, Note_on_c, 13, 58, 0
15, 99600, Note_on_c, 13, 52, 84
15, 99713, Control_c, 13, 11, 90
15, 99839, Note_on_c, 13, 52, 0
15, 99840, Note_on_c, 13, 53, 84
15, 99870, Control_c, 13, 11, 88
15, 100028, Control_c, 13, 11, 86
15, 100079, Note_on_c, 13, 53, 0
15, 100080, Note_on_c, 13, 55, 84
15, 100185, Control_c, 13, 11, 84
15, 100319, Note_on_c, 13, 55, 0
15, 100320, Note_on_c, 13, 48, 84
15, 100343, Control_c, 13, 11, 82
15, 100500, Control_c, 13, 11, 80
15, 100559, Note_on_c, 13, 48, 0
15, 100560, Note_on_c, 13, 62, 84
15, 100658, Control_c, 13, 11, 78
15, 100799, Note_on_c, 13, 62, 0
15, 100800, Note_on_c, 13, 58, 84
15, 100815, Control_c, 13, 11, 76
15, 100973, Control_c, 13, 11, 74
15, 101039, Note_on_c, 13, 58, 0
15, 101040, Note_on_c, 13, 57, 84
15, 101130, Control_c, 13, 11, 72
15, 101279, Note_on_c, 13, 57, 0
15, 101280, Note_on_c, 13, 55, 84
15, 101288, Control_c, 13, 11, 70
15, 101445, Control_c, 13, 11, 68
15, 101519, Note_on_c, 13, 55, 0
15, 101520, Note_on_c, 13, 60, 84
15, 101603, Control_c, 13, 11, 66
15, 101744, Note_on_c, 13, 60, 0
15, 101752, Control_c, 13, 11, 80
15, 101760, Note_on_c, 13, 53, 76
15, 103664, Note_on_c, 13, 53, 0
15, 103672, Control_c, 13, 11, 96
15, 103680, Note_on_c, 13, 60, 68
15, 105584, Note_on_c, 13, 60, 0
15, 105592, Control_c, 13, 11, 112
15, 105600, Note_on_c, 13, 57, 60
15, 107504, Note_on_c, 13, 57, 0
15, 107512, Control_c, 13, 11, 127
15, 107520, Note_on_c, 13, 57, 52
15, 107759, Note_on_c, 13, 57, 0
15, 108240, Note_on_c, 13, 57, 52
15, 108464, Note_on_c, 13, 57, 0
15, 108480, Note_on_c, 13, 57, 52
15, 108719, Note_on_c, 13, 57, 0
15, 109200, Note_on_c, 13, 57, 52
15, 109424, Note_on_c, 13, 57, 0
15, 109440, Note_on_c, 13, 57, 52
15, 109679, Note_on_c, 13, 57, 0
15, 110160, Note_on_c, 13, 57, 52
15, 110384, Note_on_c, 13, 57, 0
15, 110400, Note_on_c, 13, 57, 52
15, 110639, Note_on_c, 13, 57, 0
15, 111120, Note_on_c, 13, 57, 52
15, 111344, Note_on_c, 13, 57, 0
15, 111360, Note_on_c, 13, 57, 52
15, 111584, Note_on_c, 13, 57, 0
15, 111600, Note_on_c, 13, 52, 52
15, 111600, Note_on_c, 13, 49, 52
15, 111824, Note_on_c, 13, 52, 0
15, 111824, Note_on_c, 13, 49, 0
15, 111840, Note_on_c, 13, 52, 52
15, 111840, Note_on_c, 13, 57, 52
15, 112079, Note_on_c, 13, 52, 0
15, 112079, Note_on_c, 13, 57, 0
15, 112560, Note_on_c, 13, 50, 52
15, 112560, Note_on_c, 13, 53, 52
15, 112784, Note_on_c, 13, 50, 0
15, 112784, Note_on_c, 13, 53, 0
15, 112800, Note_on_c, 13, 57, 52
15, 112800, Note_on_c, 13, 53, 52
15, 113039, Note_on_c, 13, 57, 0
15, 113039, Note_on_c, 13, 53, 0
15, 113520, Note_on_c, 13, 52, 52
15, 113520, Note_on_c, 13, 55, 52
15, 113744, Note_on_c, 13, 52, 0
15, 113744, Note_on_c, 13, 55, 0
15, 113760, Note_on_c, 13, 57, 52
15, 113760, Note_on_c, 13, 55, 52
15, 113999, Note_on_c, 13, 57, 0
15, 113999, Note_on_c, 13, 55, 0
15, 114480, Note_on_c, 13, 53, 52
15, 114480, Note_on_c, 13, 50, 52
15, 114704, Note_on_c, 13, 53, 0
15, 114704, Note_on_c, 13, 50, 0
15, 114720, Note_on_c, 13, 53, 52
15, 114720, Note_on_c, 13, 50, 52
15, 114944, Note_on_c, 13, 53, 0
15, 114944, Note_on_c, 13, 50, 0
15, 114960, Note_on_c, 13, 53, 52
15, 114960, Note_on_c, 13, 50, 52
15, 115184, Note_on_c, 13, 53, 0
15, 115184, Note_on_c, 13, 50, 0
15, 115198, Control_c, 13, 11, 64
15, 115200, Note_on_c, 13, 57, 76
15, 115559, Note_on_c, 13, 57, 0
15, 115680, Note_on_c, 13, 58, 76
15, 116039, Note_on_c, 13, 58, 0
15, 116160, Note_on_c, 13, 55, 76
15, 116519, Note_on_c, 13, 55, 0
15, 116640, Note_on_c, 13, 59, 76
15, 116999, Note_on_c, 13, 59, 0
15, 117120, Note_on_c, 13, 60, 76
15, 117479, Note_on_c, 13, 60, 0
15, 117600, Note_on_c, 13, 57, 76
15, 117959, Note_on_c, 13, 57, 0
15, 118080, Control_c, 13, 11, 64
15, 118080, Note_on_c, 13, 60, 76
15, 118293, Control_c, 13, 11, 66
15, 118439, Note_on_c, 13, 60, 0
15, 118507, Control_c, 13, 11, 68
15, 118560, Note_on_c, 13, 62, 76
15, 118720, Control_c, 13, 11, 69
15, 118919, Note_on_c, 13, 62, 0
15, 118933, Control_c, 13, 11, 71
15, 119040, Note_on_c, 13, 58, 76
15, 119147, Control_c, 13, 11, 73
15, 119360, Control_c, 13, 11, 75
15, 119399, Note_on_c, 13, 58, 0
15, 119520, Note_on_c, 13, 62, 76
15, 119573, Control_c, 13, 11, 76
15, 119787, Control_c, 13, 11, 78
15, 119879, Note_on_c, 13, 62, 0
15, 120000, Control_c, 13, 11, 80
15, 120000, Note_on_c, 13, 64, 76
15, 120213, Control_c, 13, 11, 82
15, 120359, Note_on_c, 13, 64, 0
15, 120427, Control_c, 13, 11, 83
15, 120480, Note_on_c, 13, 60, 76
15, 120640, Control_c, 13, 11, 85
15, 120839, Note_on_c, 13, 60, 0
15, 120853, Control_c, 13, 11, 87
15, 120960, Note_on_c, 13, 64, 76
15, 121067, Control_c, 13, 11, 89
15, 121280, Control_c, 13, 11, 90
15, 121319, Note_on_c, 13, 64, 0
15, 121440, Note_on_c, 13, 65, 76
15, 121493, Control_c, 13, 11, 92
15, 121707, Control_c, 13, 11, 94
15, 121799, Note_on_c, 13, 65, 0
15, 121920, Note_on_c, 13, 62, 76
15, 121920, Control_c, 13, 11, 96
15, 122133, Control_c, 13, 11, 97
15, 122279, Note_on_c, 13, 62, 0
15, 122347, Control_c, 13, 11, 99
15, 122400, Note_on_c, 13, 66, 76
15, 122560, Control_c, 13, 11, 101
15, 122759, Note_on_c, 13, 66, 0
15, 122773, Control_c, 13, 11, 103
15, 122880, Note_on_c, 13, 67, 76
15, 122987, Control_c, 13, 11, 104
15, 123200, Control_c, 13, 11, 106
15, 123239, Note_on_c, 13, 67, 0
15, 123360, Note_on_c, 13, 52, 76
15, 123413, Control_c, 13, 11, 108
15, 123627, Control_c, 13, 11, 110
15, 123719, Note_on_c, 13, 52, 0
15, 123840, Note_on_c, 13, 55, 76
15, 123840, Control_c, 13, 11, 111
15, 124053, Control_c, 13, 11, 113
15, 124199, Note_on_c, 13, 55, 0
15, 124267, Control_c, 13, 11, 115
15, 124320, Note_on_c, 13, 57, 76
15, 124480, Control_c, 13, 11, 117
15, 124679, Note_on_c, 13, 57, 0
15, 124693, Control_c, 13, 11, 118
15, 124800, Note_on_c, 13, 58, 76
15, 124907, Control_c, 13, 11, 120
15, 125120, Control_c, 13, 11, 122
15, 125159, Note_on_c, 13, 58, 0
15, 125280, Note_on_c, 13, 59, 76
15, 125333, Control_c, 13, 11, 124
15, 125547, Control_c, 13, 11, 127
15, 125639, Note_on_c, 13, 59, 0
15, 125760, Note_on_c, 13, 60, 76
15, 126119, Note_on_c, 13, 60, 0
15, 126240, Note_on_c, 13, 70, 76
15, 126599, Note_on_c, 13, 70, 0
15, 126720, Note_on_c, 13, 67, 76
15, 127079, Note_on_c, 13, 67, 0
15, 127200, Note_on_c, 13, 64, 76
15, 127559, Note_on_c, 13, 64, 0
15, 127680, Note_on_c, 13, 60, 76
15, 128039, Note_on_c, 13, 60, 0
15, 128160, Note_on_c, 13, 58, 76
15, 128519, Note_on_c, 13, 58, 0
15, 128640, Note_on_c, 13, 57, 76
15, 128864, Note_on_c, 13, 57, 0
15, 128880, Note_on_c, 13, 65, 76
15, 129344, Note_on_c, 13, 65, 0
15, 129360, Note_on_c, 13, 65, 76
15, 129584, Note_on_c, 13, 65, 0
15, 129600, Note_on_c, 13, 65, 76
15, 129824, Note_on_c, 13, 65, 0
15, 129840, Note_on_c, 13, 62, 76
15, 130304, Note_on_c, 13, 62, 0
15, 130320, Note_on_c, 13, 67, 76
15, 130544, Note_on_c, 13, 67, 0
15, 130560, Note_on_c, 13, 65, 76
15, 130784, Note_on_c, 13, 65, 0
15, 130800, Note_on_c, 13, 60, 76
15, 131264, Note_on_c, 13, 60, 0
15, 131280, Note_on_c, 13, 60, 76
15, 131280, Note_on_c, 13, 65, 76
15, 131504, Note_on_c, 13, 60, 0
15, 131504, Note_on_c, 13, 65, 0
15, 131520, Note_on_c, 13, 60, 76
15, 131520, Note_on_c, 13, 64, 76
15, 131744, Note_on_c, 13, 60, 0
15, 131744, Note_on_c, 13, 64, 0
15, 131760, Note_on_c, 13, 64, 76
15, 131760, Note_on_c, 13, 60, 76
15, 131984, Note_on_c, 13, 64, 0
15, 131984, Note_on_c, 13, 60, 0
15, 132000, Note_on_c, 13, 60, 76
15, 132000, Note_on_c, 13, 64, 76
15, 132224, Note_on_c, 13, 60, 0
15, 132224, Note_on_c, 13, 64, 0
15, 132240, Note_on_c, 13, 60, 76
15, 132240, Note_on_c, 13, 64, 76
15, 132464, Note_on_c, 13, 60, 0
15, 132464, Note_on_c, 13, 64, 0
15, 132480, Note_on_c, 13, 65, 76
15, 132480, Note_on_c, 13, 60, 76
15, 132719, Note_on_c, 13, 65, 0
15, 132719, Note_on_c, 13, 60, 0
15, 132720, Note_on_c, 13, 60, 76
15, 132944, Note_on_c, 13, 60, 0
15, 132960, Note_on_c, 13, 62, 76
15, 133199, Note_on_c, 13, 62, 0
15, 133200, Note_on_c, 13, 67, 76
15, 133424, Note_on_c, 13, 67, 0
15, 133440, Note_on_c, 13, 60, 76
15, 133679, Note_on_c, 13, 60, 0
15, 133680, Note_on_c, 13, 65, 76
15, 133904, Note_on_c, 13, 65, 0
15, 133920, Note_on_c, 13, 58, 76
15, 134159, Note_on_c, 13, 58, 0
15, 134160, Note_on_c, 13, 64, 76
15, 134384, Note_on_c, 13, 64, 0
15, 134400, Note_on_c, 13, 57, 52
15, 134639, Note_on_c, 13, 57, 0
15, 135360, Note_on_c, 13, 57, 52
15, 136079, Note_on_c, 13, 57, 0
15, 136080, Note_on_c, 13, 60, 52
15, 136304, Note_on_c, 13, 60, 0
15, 136320, Note_on_c, 13, 60, 52
15, 136559, Note_on_c, 13, 60, 0
15, 137280, Note_on_c, 13, 57, 52
15, 137999, Note_on_c, 13, 57, 0
15, 138000, Note_on_c, 13, 58, 52
15, 138224, Note_on_c, 13, 58, 0
15, 138240, Note_on_c, 13, 58, 52
15, 138479, Note_on_c, 13, 58, 0
15, 139200, Note_on_c, 13, 58, 52
15, 139904, Note_on_c, 13, 58, 0
15, 139920, Note_on_c, 13, 58, 52
15, 140144, Note_on_c, 13, 58, 0
15, 140160, Note_on_c, 13, 58, 52
15, 140399, Note_on_c, 13, 58, 0
15, 141120, Note_on_c, 13, 55, 52
15, 141824, Note_on_c, 13, 55, 0
15, 141840, Note_on_c, 13, 64, 76
15, 141944, Note_on_c, 13, 64, 0
15, 141960, Note_on_c, 13, 64, 76
15, 142064, Note_on_c, 13, 64, 0
15, 142080, Note_on_c, 13, 65, 76
15, 142319, Note_on_c, 13, 65, 0
15, 142800, Note_on_c, 13, 60, 76
15, 142904, Note_on_c, 13, 60, 0
15, 142920, Note_on_c, 13, 60, 76
15, 143024, Note_on_c, 13, 60, 0
15, 143040, Note_on_c, 13, 57, 76
15, 143144, Note_on_c, 13, 57, 0
15, 143160, Note_on_c, 13, 57, 76
15, 143264, Note_on_c, 13, 57, 0
15, 143280, Note_on_c, 13, 58, 76
15, 143384, Note_on_c, 13, 58, 0
15, 143400, Note_on_c, 13, 58, 76
15, 143504, Note_on_c, 13, 58, 0
15, 143520, Note_on_c, 13, 60, 76
15, 143624, Note_on_c, 13, 60, 0
15, 143640, Note_on_c, 13, 60, 76
15, 143744, Note_on_c, 13, 60, 0
15, 143760, Note_on_c, 13, 48, 76
15, 143864, Note_on_c, 13, 48, 0
15, 143880, Note_on_c, 13, 48, 76
15, 143984, Note_on_c, 13, 48, 0
15, 144000, Note_on_c, 13, 53, 76
15, 144704, Note_on_c, 13, 53, 0
15, 144720, Note_on_c, 13, 55, 76
15, 144824, Note_on_c, 13, 55, 0
15, 144840, Note_on_c, 13, 55, 76
15, 144944, Note_on_c, 13, 55, 0
15, 144960, Note_on_c, 13, 57, 76
15, 145064, Note_on_c, 13, 57, 0
15, 145080, Note_on_c, 13, 57, 76
15, 145184, Note_on_c, 13, 57, 0
15, 145200, Note_on_c, 13, 53, 76
15, 145304, Note_on_c, 13, 53, 0
15, 145320, Note_on_c, 13, 53, 76
15, 145424, Note_on_c, 13, 53, 0
15, 145440, Note_on_c, 13, 57, 76
15, 145544, Note_on_c, 13, 57, 0
15, 145560, Note_on_c, 13, 57, 76
15, 145664, Note_on_c, 13, 57, 0
15, 145680, Note_on_c, 13, 58, 76
15, 145784, Note_on_c, 13, 58, 0
15, 145800, Note_on_c, 13, 58, 76
15, 145904, Note_on_c, 13, 58, 0
15, 145920, Note_on_c, 13, 60, 76
15, 146624, Note_on_c, 13, 60, 0
15, 146640, Note_on_c, 13, 62, 76
15, 146744, Note_on_c, 13, 62, 0
15, 146760, Note_on_c, 13, 62, 76
15, 146864, Note_on_c, 13, 62, 0
15, 146880, Note_on_c, 13, 64, 76
15, 146984, Note_on_c, 13, 64, 0
15, 147000, Note_on_c, 13, 64, 76
15, 147104, Note_on_c, 13, 64, 0
15, 147120, Note_on_c, 13, 65, 76
15, 147224, Note_on_c, 13, 65, 0
15, 147240, Note_on_c, 13, 65, 76
15, 147344, Note_on_c, 13, 65, 0
15, 147360, Note_on_c, 13, 67, 76
15, 147464, Note_on_c, 13, 67, 0
15, 147480, Note_on_c, 13, 67, 76
15, 147584, Note_on_c, 13, 67, 0
15, 147600, Note_on_c, 13, 65, 76
15, 147704, Note_on_c, 13, 65, 0
15, 147720, Note_on_c, 13, 65, 76
15, 147824, Note_on_c, 13, 65, 0
15, 147840, Note_on_c, 13, 64, 76
15, 148544, Note_on_c, 13, 64, 0
15, 148560, Note_on_c, 13, 62, 76
15, 148664, Note_on_c, 13, 62, 0
15, 148680, Note_on_c, 13, 62, 76
15, 148784, Note_on_c, 13, 62, 0
15, 148800, Note_on_c, 13, 60, 76
15, 148904, Note_on_c, 13, 60, 0
15, 148920, Note_on_c, 13, 60, 76
15, 149024, Note_on_c, 13, 60, 0
15, 149040, Note_on_c, 13, 62, 76
15, 149144, Note_on_c, 13, 62, 0
15, 149160, Note_on_c, 13, 62, 76
15, 149264, Note_on_c, 13, 62, 0
15, 149280, Note_on_c, 13, 58, 76
15, 149384, Note_on_c, 13, 58, 0
15, 149400, Note_on_c, 13, 58, 76
15, 149504, Note_on_c, 13, 58, 0
15, 149520, Note_on_c, 13, 55, 76
15, 149624, Note_on_c, 13, 55, 0
15, 149640, Note_on_c, 13, 55, 76
15, 149744, Note_on_c, 13, 55, 0
15, 149760, Note_on_c, 13, 52, 76
15, 149999, Note_on_c, 13, 52, 0
15, 150960, Note_on_c, 13, 74, 52
15, 151199, Note_on_c, 13, 74, 0
15, 151200, Note_on_c, 13, 70, 52
15, 151439, Note_on_c, 13, 70, 0
15, 151440, Note_on_c, 13, 67, 52
15, 151664, Note_on_c, 13, 67, 0
15, 151680, Note_on_c, 13, 64, 44
15, 151784, Note_on_c, 13, 64, 0
15, 151800, Note_on_c, 13, 64, 44
15, 151904, Note_on_c, 13, 64, 0
15, 151920, Note_on_c, 13, 64, 44
15, 152024, Note_on_c, 13, 64, 0
15, 152040, Note_on_c, 13, 64, 44
15, 152144, Note_on_c, 13, 64, 0
15, 152160, Note_on_c, 13, 64, 44
15, 152264, Note_on_c, 13, 64, 0
15, 152280, Note_on_c, 13, 64, 44
15, 152384, Note_on_c, 13, 64, 0
15, 152400, Note_on_c, 13, 64, 44
15, 152504, Note_on_c, 13, 64, 0
15, 152520, Note_on_c, 13, 64, 44
15, 152624, Note_on_c, 13, 64, 0
15, 152640, Note_on_c, 13, 64, 44
15, 152744, Note_on_c, 13, 64, 0
15, 152760, Note_on_c, 13, 64, 44
15, 152864, Note_on_c, 13, 64, 0
15, 152880, Note_on_c, 13, 64, 44
15, 152984, Note_on_c, 13, 64, 0
15, 153000, Note_on_c, 13, 64, 44
15, 153104, Note_on_c, 13, 64, 0
15, 153120, Note_on_c, 13, 64, 44
15, 153224, Note_on_c, 13, 64, 0
15, 153240, Note_on_c, 13, 64, 44
15, 153344, Note_on_c, 13, 64, 0
15, 153360, Note_on_c, 13, 64, 44
15, 153464, Note_on_c, 13, 64, 0
15, 153480, Note_on_c, 13, 64, 44
15, 153584, Note_on_c, 13, 64, 0
15, 153600, Note_on_c, 13, 65, 84
15, 153839, Note_on_c, 13, 65, 0
15, 154320, Note_on_c, 13, 62, 84
15, 154544, Note_on_c, 13, 62, 0
15, 154560, Note_on_c, 13, 58, 84
15, 154799, Note_on_c, 13, 58, 0
15, 155040, Note_on_c, 13, 48, 84
15, 155040, Note_on_c, 13, 60, 84
15, 155279, Note_on_c, 13, 48, 0
15, 155279, Note_on_c, 13, 60, 0
15, 155520, Note_on_c, 13, 64, 44
15, 155624, Note_on_c, 13, 64, 0
15, 155640, Note_on_c, 13, 64, 44
15, 155744, Note_on_c, 13, 64, 0
15, 155760, Note_on_c, 13, 64, 44
15, 155864, Note_on_c, 13, 64, 0
15, 155880, Note_on_c, 13, 64, 44
15, 155984, Note_on_c, 13, 64, 0
15, 156000, Note_on_c, 13, 64, 44
15, 156104, Note_on_c, 13, 64, 0
15, 156120, Note_on_c, 13, 64, 44
15, 156224, Note_on_c, 13, 64, 0
15, 156240, Note_on_c, 13, 64, 44
15, 156344, Note_on_c, 13, 64, 0
15, 156360, Note_on_c, 13, 64, 44
15, 156464, Note_on_c, 13, 64, 0
15, 156480, Note_on_c, 13, 64, 44
15, 156584, Note_on_c, 13, 64, 0
15, 156600, Note_on_c, 13, 64, 44
15, 156704, Note_on_c, 13, 64, 0
15, 156720, Note_on_c, 13, 64, 44
15, 156824, Note_on_c, 13, 64, 0
15, 156840, Note_on_c, 13, 64, 44
15, 156944, Note_on_c, 13, 64, 0
15, 156960, Note_on_c, 13, 64, 44
15, 157064, Note_on_c, 13, 64, 0
15, 157080, Note_on_c, 13, 64, 44
15, 157184, Note_on_c, 13, 64, 0
15, 157200, Note_on_c, 13, 64, 44
15, 157304, Note_on_c, 13, 64, 0
15, 157320, Note_on_c, 13, 64, 44
15, 157424, Note_on_c, 13, 64, 0
15, 157440, Note_on_c, 13, 65, 84
15, 157679, Note_on_c, 13, 65, 0
15, 158160, Note_on_c, 13, 62, 84
15, 158384, Note_on_c, 13, 62, 0
15, 158400, Note_on_c, 13, 58, 84
15, 158639, Note_on_c, 13, 58, 0
15, 158880, Note_on_c, 13, 60, 84
15, 159119, Note_on_c, 13, 60, 0
15, 159360, Note_on_c, 13, 59, 44
15, 159464, Note_on_c, 13, 59, 0
15, 159480, Note_on_c, 13, 59, 46
15, 159584, Note_on_c, 13, 59, 0
15, 159600, Note_on_c, 13, 59, 48
15, 159704, Note_on_c, 13, 59, 0
15, 159720, Note_on_c, 13, 59, 50
15, 159824, Note_on_c, 13, 59, 0
15, 159840, Note_on_c, 13, 59, 52
15, 159944, Note_on_c, 13, 59, 0
15, 159960, Note_on_c, 13, 59, 54
15, 160064, Note_on_c, 13, 59, 0
15, 160080, Note_on_c, 13, 59, 56
15, 160184, Note_on_c, 13, 59, 0
15, 160200, Note_on_c, 13, 59, 58
15, 160304, Note_on_c, 13, 59, 0
15, 160320, Note_on_c, 13, 59, 60
15, 160424, Note_on_c, 13, 59, 0
15, 160440, Note_on_c, 13, 59, 62
15, 160544, Note_on_c, 13, 59, 0
15, 160560, Note_on_c, 13, 59, 64
15, 160664, Note_on_c, 13, 59, 0
15, 160680, Note_on_c, 13, 59, 66
15, 160784, Note_on_c, 13, 59, 0
15, 160800, Note_on_c, 13, 59, 68
15, 160904, Note_on_c, 13, 59, 0
15, 160920, Note_on_c, 13, 59, 70
15, 161024, Note_on_c, 13, 59, 0
15, 161040, Note_on_c, 13, 59, 72
15, 161144, Note_on_c, 13, 59, 0
15, 161160, Note_on_c, 13, 59, 74
15, 161264, Note_on_c, 13, 59, 0
15, 161280, Note_on_c, 13, 59, 76
15, 161384, Note_on_c, 13, 59, 0
15, 161400, Note_on_c, 13, 59, 76
15, 161504, Note_on_c, 13, 59, 0
15, 161520, Note_on_c, 13, 59, 76
15, 161624, Note_on_c, 13, 59, 0
15, 161640, Note_on_c, 13, 59, 76
15, 161744, Note_on_c, 13, 59, 0
15, 161760, Note_on_c, 13, 59, 76
15, 161864, Note_on_c, 13, 59, 0
15, 161880, Note_on_c, 13, 59, 76
15, 161984, Note_on_c, 13, 59, 0
15, 162000, Note_on_c, 13, 59, 76
15, 162104, Note_on_c, 13, 59, 0
15, 162120, Note_on_c, 13, 59, 76
15, 162224, Note_on_c, 13, 59, 0
15, 162240, Note_on_c, 13, 60, 76
15, 162344, Note_on_c, 13, 60, 0
15, 162360, Note_on_c, 13, 60, 76
15, 162464, Note_on_c, 13, 60, 0
15, 162480, Note_on_c, 13, 60, 76
15, 162584, Note_on_c, 13, 60, 0
15, 162600, Note_on_c, 13, 60, 76
15, 162704, Note_on_c, 13, 60, 0
15, 162720, Note_on_c, 13, 60, 76
15, 162824, Note_on_c, 13, 60, 0
15, 162840, Note_on_c, 13, 60, 76
15, 162944, Note_on_c, 13, 60, 0
15, 162960, Note_on_c, 13, 60, 76
15, 163064, Note_on_c, 13, 60, 0
15, 163080, Note_on_c, 13, 60, 76
15, 163184, Note_on_c, 13, 60, 0
15, 163200, Note_on_c, 13, 62, 76
15, 163304, Note_on_c, 13, 62, 0
15, 163320, Note_on_c, 13, 62, 76
15, 163424, Note_on_c, 13, 62, 0
15, 163440, Note_on_c, 13, 62, 76
15, 163544, Note_on_c, 13, 62, 0
15, 163560, Note_on_c, 13, 62, 76
15, 163664, Note_on_c, 13, 62, 0
15, 163680, Note_on_c, 13, 62, 76
15, 163784, Note_on_c, 13, 62, 0
15, 163800, Note_on_c, 13, 62, 76
15, 163904, Note_on_c, 13, 62, 0
15, 163920, Note_on_c, 13, 62, 76
15, 164024, Note_on_c, 13, 62, 0
15, 164040, Note_on_c, 13, 62, 76
15, 164144, Note_on_c, 13, 62, 0
15, 164160, Note_on_c, 13, 64, 76
15, 164264, Note_on_c, 13, 64, 0
15, 164280, Note_on_c, 13, 64, 76
15, 164384, Note_on_c, 13, 64, 0
15, 164400, Note_on_c, 13, 64, 76
15, 164504, Note_on_c, 13, 64, 0
15, 164520, Note_on_c, 13, 64, 76
15, 164624, Note_on_c, 13, 64, 0
15, 164640, Note_on_c, 13, 64, 76
15, 164744, Note_on_c, 13, 64, 0
15, 164760, Note_on_c, 13, 64, 76
15, 164864, Note_on_c, 13, 64, 0
15, 164880, Note_on_c, 13, 64, 76
15, 164984, Note_on_c, 13, 64, 0
15, 165000, Note_on_c, 13, 64, 76
15, 165104, Note_on_c, 13, 64, 0
15, 165120, Note_on_c, 13, 65, 84
15, 165224, Note_on_c, 13, 65, 0
15, 165240, Note_on_c, 13, 61, 84
15, 165344, Note_on_c, 13, 61, 0
15, 165360, Note_on_c, 13, 61, 84
15, 165464, Note_on_c, 13, 61, 0
15, 165480, Note_on_c, 13, 61, 84
15, 165584, Note_on_c, 13, 61, 0
15, 165600, Note_on_c, 13, 61, 84
15, 165704, Note_on_c, 13, 61, 0
15, 165720, Note_on_c, 13, 61, 84
15, 165824, Note_on_c, 13, 61, 0
15, 165840, Note_on_c, 13, 61, 84
15, 165944, Note_on_c, 13, 61, 0
15, 165960, Note_on_c, 13, 61, 84
15, 166064, Note_on_c, 13, 61, 0
15, 166080, Note_on_c, 13, 61, 84
15, 166184, Note_on_c, 13, 61, 0
15, 166200, Note_on_c, 13, 61, 84
15, 166304, Note_on_c, 13, 61, 0
15, 166320, Note_on_c, 13, 61, 84
15, 166424, Note_on_c, 13, 61, 0
15, 166440, Note_on_c, 13, 61, 84
15, 166544, Note_on_c, 13, 61, 0
15, 166560, Note_on_c, 13, 61, 84
15, 166664, Note_on_c, 13, 61, 0
15, 166680, Note_on_c, 13, 61, 84
15, 166784, Note_on_c, 13, 61, 0
15, 166800, Note_on_c, 13, 61, 84
15, 166904, Note_on_c, 13, 61, 0
15, 166920, Note_on_c, 13, 61, 84
15, 167024, Note_on_c, 13, 61, 0
15, 167040, Note_on_c, 13, 60, 84
15, 167144, Note_on_c, 13, 60, 0
15, 167160, Note_on_c, 13, 60, 84
15, 167264, Note_on_c, 13, 60, 0
15, 167280, Note_on_c, 13, 60, 84
15, 167384, Note_on_c, 13, 60, 0
15, 167400, Note_on_c, 13, 60, 84
15, 167504, Note_on_c, 13, 60, 0
15, 167520, Note_on_c, 13, 60, 84
15, 167624, Note_on_c, 13, 60, 0
15, 167640, Note_on_c, 13, 60, 84
15, 167744, Note_on_c, 13, 60, 0
15, 167760, Note_on_c, 13, 60, 84
15, 167864, Note_on_c, 13, 60, 0
15, 167880, Note_on_c, 13, 60, 84
15, 167984, Note_on_c, 13, 60, 0
15, 168000, Note_on_c, 13, 48, 84
15, 168000, Note_on_c, 13, 58, 84
15, 168104, Note_on_c, 13, 48, 0
15, 168104, Note_on_c, 13, 58, 0
15, 168120, Note_on_c, 13, 58, 84
15, 168120, Note_on_c, 13, 48, 84
15, 168224, Note_on_c, 13, 58, 0
15, 168224, Note_on_c, 13, 48, 0
15, 168240, Note_on_c, 13, 58, 84
15, 168240, Note_on_c, 13, 48, 84
15, 168344, Note_on_c, 13, 58, 0
15, 168344, Note_on_c, 13, 48, 0
15, 168360, Note_on_c, 13, 58, 84
15, 168360, Note_on_c, 13, 48, 84
15, 168464, Note_on_c, 13, 58, 0
15, 168464, Note_on_c, 13, 48, 0
15, 168480, Note_on_c, 13, 58, 84
15, 168480, Note_on_c, 13, 48, 84
15, 168584, Note_on_c, 13, 58, 0
15, 168584, Note_on_c, 13, 48, 0
15, 168600, Note_on_c, 13, 48, 84
15, 168600, Note_on_c, 13, 58, 84
15, 168704, Note_on_c, 13, 48, 0
15, 168704, Note_on_c, 13, 58, 0
15, 168720, Note_on_c, 13, 48, 84
15, 168720, Note_on_c, 13, 58, 84
15, 168824, Note_on_c, 13, 48, 0
15, 168824, Note_on_c, 13, 58, 0
15, 168840, Note_on_c, 13, 48, 84
15, 168840, Note_on_c, 13, 58, 84
15, 168944, Note_on_c, 13, 48, 0
15, 168944, Note_on_c, 13, 58, 0
15, 168960, Note_on_c, 13, 57, 76
15, 168960, Note_on_c, 13, 53, 76
15, 169064, Note_on_c, 13, 57, 0
15, 169064, Note_on_c, 13, 53, 0
15, 169080, Note_on_c, 13, 57, 76
15, 169080, Note_on_c, 13, 60, 76
15, 169184, Note_on_c, 13, 57, 0
15, 169184, Note_on_c, 13, 60, 0
15, 169200, Note_on_c, 13, 60, 76
15, 169200, Note_on_c, 13, 57, 76
15, 169304, Note_on_c, 13, 60, 0
15, 169304, Note_on_c, 13, 57, 0
15, 169320, Note_on_c, 13, 60, 76
15, 169320, Note_on_c, 13, 57, 76
15, 169424, Note_on_c, 13, 60, 0
15, 169424, Note_on_c, 13, 57, 0
15, 169440, Note_on_c, 13, 57, 76
15, 169440, Note_on_c, 13, 53, 76
15, 169544, Note_on_c, 13, 57, 0
15, 169544, Note_on_c, 13, 53, 0
15, 169560, Note_on_c, 13, 60, 76
15, 169560, Note_on_c, 13, 57, 76
15, 169664, Note_on_c, 13, 60, 0
15, 169664, Note_on_c, 13, 57, 0
15, 169680, Note_on_c, 13, 60, 76
15, 169680, Note_on_c, 13, 57, 76
15, 169784, Note_on_c, 13, 60, 0
15, 169784, Note_on_c, 13, 57, 0
15, 169800, Note_on_c, 13, 57, 76
15, 169800, Note_on_c, 13, 60, 76
15, 169904, Note_on_c, 13, 57, 0
15, 169904, Note_on_c, 13, 60, 0
15, 169920, Note_on_c, 13, 53, 76
15, 169920, Note_on_c, 13, 57, 76
15, 170024, Note_on_c, 13, 53, 0
15, 170024, Note_on_c, 13, 57, 0
15, 170040, Note_on_c, 13, 60, 76
15, 170040, Note_on_c, 13, 57, 76
15, 170144, Note_on_c, 13, 60, 0
15, 170144, Note_on_c, 13, 57, 0
15, 170160, Note_on_c, 13, 60, 76
15, 170160, Note_on_c, 13, 57, 76
15, 170264, Note_on_c, 13, 60, 0
15, 170264, Note_on_c, 13, 57, 0
15, 170280, Note_on_c, 13, 57, 76
15, 170280, Note_on_c, 13, 60, 76
15, 170384, Note_on_c, 13, 57, 0
15, 170384, Note_on_c, 13, 60, 0
15, 170400, Note_on_c, 13, 53, 76
15, 170400, Note_on_c, 13, 57, 76
15, 170504, Note_on_c, 13, 53, 0
15, 170504, Note_on_c, 13, 57, 0
15, 170520, Note_on_c, 13, 57, 76
15, 170520, Note_on_c, 13, 60, 76
15, 170624, Note_on_c, 13, 57, 0
15, 170624, Note_on_c, 13, 60, 0
15, 170640, Note_on_c, 13, 60, 76
15, 170640, Note_on_c, 13, 57, 76
15, 170744, Note_on_c, 13, 60, 0
15, 170744, Note_on_c, 13, 57, 0
15, 170760, Note_on_c, 13, 60, 76
15, 170760, Note_on_c, 13, 57, 76
15, 170864, Note_on_c, 13, 60, 0
15, 170864, Note_on_c, 13, 57, 0
15, 170880, Note_on_c, 13, 57, 76
15, 170880, Note_on_c, 13, 53, 76
15, 170984, Note_on_c, 13, 57, 0
15, 170984, Note_on_c, 13, 53, 0
15, 171000, Note_on_c, 13, 60, 76
15, 171000, Note_on_c, 13, 57, 76
15, 171104, Note_on_c, 13, 60, 0
15, 171104, Note_on_c, 13, 57, 0
15, 171120, Note_on_c, 13, 60, 76
15, 171120, Note_on_c, 13, 57, 76
15, 171224, Note_on_c, 13, 60, 0
15, 171224, Note_on_c, 13, 57, 0
15, 171240, Note_on_c, 13, 57, 76
15, 171240, Note_on_c, 13, 60, 76
15, 171344, Note_on_c, 13, 57, 0
15, 171344, Note_on_c, 13, 60, 0
15, 171360, Note_on_c, 13, 53, 76
15, 171360, Note_on_c, 13, 57, 76
15, 171464, Note_on_c, 13, 53, 0
15, 171464, Note_on_c, 13, 57, 0
15, 171480, Note_on_c, 13, 60, 76
15, 171480, Note_on_c, 13, 57, 76
15, 171584, Note_on_c, 13, 60, 0
15, 171584, Note_on_c, 13, 57, 0
15, 171600, Note_on_c, 13, 60, 76
15, 171600, Note_on_c, 13, 57, 76
15, 171704, Note_on_c, 13, 60, 0
15, 171704, Note_on_c, 13, 57, 0
15, 171720, Note_on_c, 13, 57, 76
15, 171720, Note_on_c, 13, 60, 76
15, 171824, Note_on_c, 13, 57, 0
15, 171824, Note_on_c, 13, 60, 0
15, 171840, Note_on_c, 13, 53, 76
15, 171840, Note_on_c, 13, 57, 76
15, 171944, Note_on_c, 13, 53, 0
15, 171944, Note_on_c, 13, 57, 0
15, 171960, Note_on_c, 13, 57, 76
15, 171960, Note_on_c, 13, 53, 76
15, 172064, Note_on_c, 13, 57, 0
15, 172064, Note_on_c, 13, 53, 0
15, 172080, Note_on_c, 13, 58, 76
15, 172080, Note_on_c, 13, 55, 76
15, 172184, Note_on_c, 13, 58, 0
15, 172184, Note_on_c, 13, 55, 0
15, 172200, Note_on_c, 13, 58, 76
15, 172200, Note_on_c, 13, 55, 76
15, 172304, Note_on_c, 13, 58, 0
15, 172304, Note_on_c, 13, 55, 0
15, 172320, Note_on_c, 13, 55, 76
15, 172320, Note_on_c, 13, 52, 76
15, 172424, Note_on_c, 13, 55, 0
15, 172424, Note_on_c, 13, 52, 0
15, 172440, Note_on_c, 13, 55, 76
15, 172440, Note_on_c, 13, 52, 76
15, 172544, Note_on_c, 13, 55, 0
15, 172544, Note_on_c, 13, 52, 0
15, 172560, Note_on_c, 13, 55, 76
15, 172560, Note_on_c, 13, 58, 76
15, 172664, Note_on_c, 13, 55, 0
15, 172664, Note_on_c, 13, 58, 0
15, 172680, Note_on_c, 13, 58, 76
15, 172680, Note_on_c, 13, 55, 76
15, 172784, Note_on_c, 13, 58, 0
15, 172784, Note_on_c, 13, 55, 0
15, 172800, Note_on_c, 13, 53, 76
15, 172800, Note_on_c, 13, 57, 76
15, 172904, Note_on_c, 13, 53, 0
15, 172904, Note_on_c, 13, 57, 0
15, 172920, Note_on_c, 13, 57, 76
15, 172920, Note_on_c, 13, 60, 76
15, 173024, Note_on_c, 13, 57, 0
15, 173024, Note_on_c, 13, 60, 0
15, 173040, Note_on_c, 13, 60, 76
15, 173040, Note_on_c, 13, 57, 76
15, 173144, Note_on_c, 13, 60, 0
15, 173144, Note_on_c, 13, 57, 0
15, 173160, Note_on_c, 13, 60, 76
15, 173160, Note_on_c, 13, 57, 76
15, 173264, Note_on_c, 13, 60, 0
15, 173264, Note_on_c, 13, 57, 0
15, 173280, Note_on_c, 13, 53, 76
15, 173280, Note_on_c, 13, 57, 76
15, 173384, Note_on_c, 13, 53, 0
15, 173384, Note_on_c, 13, 57, 0
15, 173400, Note_on_c, 13, 60, 76
15, 173400, Note_on_c, 13, 57, 76
15, 173504, Note_on_c, 13, 60, 0
15, 173504, Note_on_c, 13, 57, 0
15, 173520, Note_on_c, 13, 60, 76
15, 173520, Note_on_c, 13, 57, 76
15, 173624, Note_on_c, 13, 60, 0
15, 173624, Note_on_c, 13, 57, 0
15, 173640, Note_on_c, 13, 57, 76
15, 173640, Note_on_c, 13, 60, 76
15, 173744, Note_on_c, 13, 57, 0
15, 173744, Note_on_c, 13, 60, 0
15, 173760, Note_on_c, 13, 57, 76
15, 173760, Note_on_c, 13, 53, 76
15, 173864, Note_on_c, 13, 57, 0
15, 173864, Note_on_c, 13, 53, 0
15, 173880, Note_on_c, 13, 57, 76
15, 173880, Note_on_c, 13, 60, 76
15, 173984, Note_on_c, 13, 57, 0
15, 173984, Note_on_c, 13, 60, 0
15, 174000, Note_on_c, 13, 60, 76
15, 174000, Note_on_c, 13, 57, 76
15, 174104, Note_on_c, 13, 60, 0
15, 174104, Note_on_c, 13, 57, 0
15, 174120, Note_on_c, 13, 60, 76
15, 174120, Note_on_c, 13, 57, 76
15, 174224, Note_on_c, 13, 60, 0
15, 174224, Note_on_c, 13, 57, 0
15, 174240, Note_on_c, 13, 53, 76
15, 174240, Note_on_c, 13, 57, 76
15, 174344, Note_on_c, 13, 53, 0
15, 174344, Note_on_c, 13, 57, 0
15, 174360, Note_on_c, 13, 57, 76
15, 174360, Note_on_c, 13, 60, 76
15, 174464, Note_on_c, 13, 57, 0
15, 174464, Note_on_c, 13, 60, 0
15, 174480, Note_on_c, 13, 57, 76
15, 174480, Note_on_c, 13, 60, 76
15, 174584, Note_on_c, 13, 57, 0
15, 174584, Note_on_c, 13, 60, 0
15, 174600, Note_on_c, 13, 60, 76
15, 174600, Note_on_c, 13, 57, 76
15, 174704, Note_on_c, 13, 60, 0
15, 174704, Note_on_c, 13, 57, 0
15, 174720, Note_on_c, 13, 57, 76
15, 174720, Note_on_c, 13, 53, 76
15, 174824, Note_on_c, 13, 57, 0
15, 174824, Note_on_c, 13, 53, 0
15, 174840, Note_on_c, 13, 57, 76
15, 174840, Note_on_c, 13, 60, 76
15, 174944, Note_on_c, 13, 57, 0
15, 174944, Note_on_c, 13, 60, 0
15, 174960, Note_on_c, 13, 60, 76
15, 174960, Note_on_c, 13, 57, 76
15, 175064, Note_on_c, 13, 60, 0
15, 175064, Note_on_c, 13, 57, 0
15, 175080, Note_on_c, 13, 57, 76
15, 175080, Note_on_c, 13, 60, 76
15, 175184, Note_on_c, 13, 57, 0
15, 175184, Note_on_c, 13, 60, 0
15, 175200, Note_on_c, 13, 53, 76
15, 175200, Note_on_c, 13, 57, 76
15, 175304, Note_on_c, 13, 53, 0
15, 175304, Note_on_c, 13, 57, 0
15, 175320, Note_on_c, 13, 60, 76
15, 175320, Note_on_c, 13, 57, 76
15, 175424, Note_on_c, 13, 60, 0
15, 175424, Note_on_c, 13, 57, 0
15, 175440, Note_on_c, 13, 60, 76
15, 175440, Note_on_c, 13, 57, 76
15, 175544, Note_on_c, 13, 60, 0
15, 175544, Note_on_c, 13, 57, 0
15, 175560, Note_on_c, 13, 57, 76
15, 175560, Note_on_c, 13, 60, 76
15, 175664, Note_on_c, 13, 57, 0
15, 175664, Note_on_c, 13, 60, 0
15, 175680, Note_on_c, 13, 57, 76
15, 175680, Note_on_c, 13, 53, 76
15, 175784, Note_on_c, 13, 57, 0
15, 175784, Note_on_c, 13, 53, 0
15, 175800, Note_on_c, 13, 57, 76
15, 175800, Note_on_c, 13, 53, 76
15, 175904, Note_on_c, 13, 57, 0
15, 175904, Note_on_c, 13, 53, 0
15, 175920, Note_on_c, 13, 58, 76
15, 175920, Note_on_c, 13, 55, 76
15, 176024, Note_on_c, 13, 58, 0
15, 176024, Note_on_c, 13, 55, 0
15, 176040, Note_on_c, 13, 58, 76
15, 176040, Note_on_c, 13, 55, 76
15, 176144, Note_on_c, 13, 58, 0
15, 176144, Note_on_c, 13, 55, 0
15, 176160, Note_on_c, 13, 52, 76
15, 176160, Note_on_c, 13, 55, 76
15, 176264, Note_on_c, 13, 52, 0
15, 176264, Note_on_c, 13, 55, 0
15, 176280, Note_on_c, 13, 55, 76
15, 176280, Note_on_c, 13, 52, 76
15, 176384, Note_on_c, 13, 55, 0
15, 176384, Note_on_c, 13, 52, 0
15, 176400, Note_on_c, 13, 58, 76
15, 176400, Note_on_c, 13, 55, 76
15, 176504, Note_on_c, 13, 58, 0
15, 176504, Note_on_c, 13, 55, 0
15, 176520, Note_on_c, 13, 58, 76
15, 176520, Note_on_c, 13, 55, 76
15, 176624, Note_on_c, 13, 58, 0
15, 176624, Note_on_c, 13, 55, 0
15, 176640, Note_on_c, 13, 57, 76
15, 176640, Note_on_c, 13, 53, 76
15, 176744, Note_on_c, 13, 57, 0
15, 176744, Note_on_c, 13, 53, 0
15, 176760, Note_on_c, 13, 60, 76
15, 176760, Note_on_c, 13, 57, 76
15, 176864, Note_on_c, 13, 60, 0
15, 176864, Note_on_c, 13, 57, 0
15, 176880, Note_on_c, 13, 60, 76
15, 176880, Note_on_c, 13, 57, 76
15, 176984, Note_on_c, 13, 60, 0
15, 176984, Note_on_c, 13, 57, 0
15, 177000, Note_on_c, 13, 57, 76
15, 177000, Note_on_c, 13, 60, 76
15, 177104, Note_on_c, 13, 57, 0
15, 177104, Note_on_c, 13, 60, 0
15, 177120, Note_on_c, 13, 57, 76
15, 177120, Note_on_c, 13, 53, 76
15, 177224, Note_on_c, 13, 57, 0
15, 177224, Note_on_c, 13, 53, 0
15, 177240, Note_on_c, 13, 60, 76
15, 177240, Note_on_c, 13, 57, 76
15, 177344, Note_on_c, 13, 60, 0
15, 177344, Note_on_c, 13, 57, 0
15, 177360, Note_on_c, 13, 57, 76
15, 177360, Note_on_c, 13, 60, 76
15, 177464, Note_on_c, 13, 57, 0
15, 177464, Note_on_c, 13, 60, 0
15, 177480, Note_on_c, 13, 60, 76
15, 177480, Note_on_c, 13, 57, 76
15, 177584, Note_on_c, 13, 60, 0
15, 177584, Note_on_c, 13, 57, 0
15, 177600, Note_on_c, 13, 57, 76
15, 177600, Note_on_c, 13, 53, 76
15, 177704, Note_on_c, 13, 57, 0
15, 177704, Note_on_c, 13, 53, 0
15, 177720, Note_on_c, 13, 53, 76
15, 177720, Note_on_c, 13, 57, 76
15, 177824, Note_on_c, 13, 53, 0
15, 177824, Note_on_c, 13, 57, 0
15, 177840, Note_on_c, 13, 58, 76
15, 177840, Note_on_c, 13, 55, 76
15, 177944, Note_on_c, 13, 58, 0
15, 177944, Note_on_c, 13, 55, 0
15, 177960, Note_on_c, 13, 58, 76
15, 177960, Note_on_c, 13, 55, 76
15, 178064, Note_on_c, 13, 58, 0
15, 178064, Note_on_c, 13, 55, 0
15, 178080, Note_on_c, 13, 52, 76
15, 178080, Note_on_c, 13, 55, 76
15, 178184, Note_on_c, 13, 52, 0
15, 178184, Note_on_c, 13, 55, 0
15, 178200, Note_on_c, 13, 55, 76
15, 178200, Note_on_c, 13, 52, 76
15, 178304, Note_on_c, 13, 55, 0
15, 178304, Note_on_c, 13, 52, 0
15, 178320, Note_on_c, 13, 55, 76
15, 178320, Note_on_c, 13, 58, 76
15, 178424, Note_on_c, 13, 55, 0
15, 178424, Note_on_c, 13, 58, 0
15, 178440, Note_on_c, 13, 58, 76
15, 178440, Note_on_c, 13, 55, 76
15, 178544, Note_on_c, 13, 58, 0
15, 178544, Note_on_c, 13, 55, 0
15, 178560, Note_on_c, 13, 53, 84
15, 178560, Note_on_c, 13, 57, 84
15, 180224, Note_on_c, 13, 53, 0
15, 180224, Note_on_c, 13, 57, 0
15, 180240, Note_on_c, 13, 60, 84
15, 180287, Note_on_c, 13, 60, 0
15, 180288, Note_on_c, 13, 62, 84
15, 180335, Note_on_c, 13, 62, 0
15, 180336, Note_on_c, 13, 64, 84
15, 180383, Note_on_c, 13, 64, 0
15, 180384, Note_on_c, 13, 65, 84
15, 180431, Note_on_c, 13, 65, 0
15, 180432, Note_on_c, 13, 67, 84
15, 180471, Note_on_c, 13, 67, 0
15, 180480, Note_on_c, 13, 69, 84
15, 180719, Note_on_c, 13, 69, 0
15, 182400, Note_on_c, 13, 60, 84
15, 182400, Note_on_c, 13, 63, 84
15, 184064, Note_on_c, 13, 60, 0
15, 184064, Note_on_c, 13, 63, 0
15, 184080, Note_on_c, 13, 63, 84
15, 184127, Note_on_c, 13, 63, 0
15, 184128, Note_on_c, 13, 65, 84
15, 184175, Note_on_c, 13, 65, 0
15, 184176, Note_on_c, 13, 67, 84
15, 184223, Note_on_c, 13, 67, 0
15, 184224, Note_on_c, 13, 69, 84
15, 184271, Note_on_c, 13, 69, 0
15, 184272, Note_on_c, 13, 70, 84
15, 184311, Note_on_c, 13, 70, 0
15, 184320, Note_on_c, 13, 57, 84
15, 184320, Note_on_c, 13, 65, 84
15, 184320, Note_on_c, 13, 72, 84
15, 184499, Note_on_c, 13, 57, 0
15, 184499, Note_on_c, 13, 65, 0
15, 184499, Note_on_c, 13, 72, 0
15, 185040, Note_on_c, 13, 65, 84
15, 185099, Note_on_c, 13, 65, 0
15, 185100, Note_on_c, 13, 67, 84
15, 185159, Note_on_c, 13, 67, 0
15, 185160, Note_on_c, 13, 69, 84
15, 185219, Note_on_c, 13, 69, 0
15, 185220, Note_on_c, 13, 70, 84
15, 185271, Note_on_c, 13, 70, 0
15, 185280, Note_on_c, 13, 65, 84
15, 185280, Note_on_c, 13, 72, 84
15, 185280, Note_on_c, 13, 57, 84
15, 185459, Note_on_c, 13, 65, 0
15, 185459, Note_on_c, 13, 72, 0
15, 185459, Note_on_c, 13, 57, 0
15, 186000, Note_on_c, 13, 65, 84
15, 186059, Note_on_c, 13, 65, 0
15, 186060, Note_on_c, 13, 67, 84
15, 186119, Note_on_c, 13, 67, 0
15, 186120, Note_on_c, 13, 69, 84
15, 186179, Note_on_c, 13, 69, 0
15, 186180, Note_on_c, 13, 70, 84
15, 186231, Note_on_c, 13, 70, 0
15, 186240, Note_on_c, 13, 72, 84
15, 186419, Note_on_c, 13, 72, 0
15, 186600, Note_on_c, 13, 69, 84
15, 186659, Note_on_c, 13, 69, 0
15, 186660, Note_on_c, 13, 70, 84
15, 186711, Note_on_c, 13, 70, 0
15, 186720, Note_on_c, 13, 72, 84
15, 186899, Note_on_c, 13, 72, 0
15, 187080, Note_on_c, 13, 69, 84
15, 187139, Note_on_c, 13, 69, 0
15, 187140, Note_on_c, 13, 70, 84
15, 187191, Note_on_c, 13, 70, 0
15, 187200, Note_on_c, 13, 72, 84
15, 187379, Note_on_c, 13, 72, 0
15, 187560, Note_on_c, 13, 69, 84
15, 187619, Note_on_c, 13, 69, 0
15, 187620, Note_on_c, 13, 70, 84
15, 187671, Note_on_c, 13, 70, 0
15, 187680, Note_on_c, 13, 72, 84
15, 187859, Note_on_c, 13, 72, 0
15, 188040, Note_on_c, 13, 69, 84
15, 188079, Note_on_c, 13, 69, 0
15, 188080, Note_on_c, 13, 70, 84
15, 188119, Note_on_c, 13, 70, 0
15, 188120, Note_on_c, 13, 72, 84
15, 188151, Note_on_c, 13, 72, 0
15, 188160, Note_on_c, 13, 74, 76
15, 188264, Note_on_c, 13, 74, 0
15, 188280, Note_on_c, 13, 65, 52
15, 188384, Note_on_c, 13, 65, 0
15, 188400, Note_on_c, 13, 65, 52
15, 188504, Note_on_c, 13, 65, 0
15, 188520, Note_on_c, 13, 65, 52
15, 188624, Note_on_c, 13, 65, 0
15, 188640, Note_on_c, 13, 65, 52
15, 188744, Note_on_c, 13, 65, 0
15, 188760, Note_on_c, 13, 65, 52
15, 188864, Note_on_c, 13, 65, 0
15, 188880, Note_on_c, 13, 65, 52
15, 188984, Note_on_c, 13, 65, 0
15, 189000, Note_on_c, 13, 65, 52
15, 189104, Note_on_c, 13, 65, 0
15, 189120, Note_on_c, 13, 65, 52
15, 189224, Note_on_c, 13, 65, 0
15, 189240, Note_on_c, 13, 65, 52
15, 189344, Note_on_c, 13, 65, 0
15, 189360, Note_on_c, 13, 65, 52
15, 189464, Note_on_c, 13, 65, 0
15, 189480, Note_on_c, 13, 65, 52
15, 189584, Note_on_c, 13, 65, 0
15, 189600, Note_on_c, 13, 65, 52
15, 189704, Note_on_c, 13, 65, 0
15, 189720, Note_on_c, 13, 65, 52
15, 189824, Note_on_c, 13, 65, 0
15, 189840, Note_on_c, 13, 65, 52
15, 189944, Note_on_c, 13, 65, 0
15, 189960, Note_on_c, 13, 65, 52
15, 190064, Note_on_c, 13, 65, 0
15, 190080, Note_on_c, 13, 58, 52
15, 190080, Note_on_c, 13, 63, 52
15, 190184, Note_on_c, 13, 58, 0
15, 190184, Note_on_c, 13, 63, 0
15, 190200, Note_on_c, 13, 63, 52
15, 190200, Note_on_c, 13, 58, 52
15, 190304, Note_on_c, 13, 63, 0
15, 190304, Note_on_c, 13, 58, 0
15, 190320, Note_on_c, 13, 63, 52
15, 190320, Note_on_c, 13, 58, 52
15, 190424, Note_on_c, 13, 63, 0
15, 190424, Note_on_c, 13, 58, 0
15, 190440, Note_on_c, 13, 58, 52
15, 190440, Note_on_c, 13, 63, 52
15, 190544, Note_on_c, 13, 58, 0
15, 190544, Note_on_c, 13, 63, 0
15, 190560, Note_on_c, 13, 63, 52
15, 190560, Note_on_c, 13, 58, 52
15, 190664, Note_on_c, 13, 63, 0
15, 190664, Note_on_c, 13, 58, 0
15, 190680, Note_on_c, 13, 58, 52
15, 190680, Note_on_c, 13, 63, 52
15, 190784, Note_on_c, 13, 58, 0
15, 190784, Note_on_c, 13, 63, 0
15, 190800, Note_on_c, 13, 63, 52
15, 190800, Note_on_c, 13, 58, 52
15, 190904, Note_on_c, 13, 63, 0
15, 190904, Note_on_c, 13, 58, 0
15, 190920, Note_on_c, 13, 63, 52
15, 190920, Note_on_c, 13, 58, 52
15, 191024, Note_on_c, 13, 63, 0
15, 191024, Note_on_c, 13, 58, 0
15, 191040, Note_on_c, 13, 60, 52
15, 191040, Note_on_c, 13, 63, 52
15, 191144, Note_on_c, 13, 60, 0
15, 191144, Note_on_c, 13, 63, 0
15, 191160, Note_on_c, 13, 60, 52
15, 191160, Note_on_c, 13, 63, 52
15, 191264, Note_on_c, 13, 60, 0
15, 191264, Note_on_c, 13, 63, 0
15, 191280, Note_on_c, 13, 60, 52
15, 191280, Note_on_c, 13, 63, 52
15, 191384, Note_on_c, 13, 60, 0
15, 191384, Note_on_c, 13, 63, 0
15, 191400, Note_on_c, 13, 63, 52
15, 191400, Note_on_c, 13, 60, 52
15, 191504, Note_on_c, 13, 63, 0
15, 191504, Note_on_c, 13, 60, 0
15, 191520, Note_on_c, 13, 63, 52
15, 191520, Note_on_c, 13, 60, 52
15, 191624, Note_on_c, 13, 63, 0
15, 191624, Note_on_c, 13, 60, 0
15, 191640, Note_on_c, 13, 63, 52
15, 191640, Note_on_c, 13, 60, 52
15, 191744, Note_on_c, 13, 63, 0
15, 191744, Note_on_c, 13, 60, 0
15, 191760, Note_on_c, 13, 63, 52
15, 191760, Note_on_c, 13, 60, 52
15, 191864, Note_on_c, 13, 63, 0
15, 191864, Note_on_c, 13, 60, 0
15, 191880, Note_on_c, 13, 63, 52
15, 191880, Note_on_c, 13, 60, 52
15, 191984, Note_on_c, 13, 63, 0
15, 191984, Note_on_c, 13, 60, 0
15, 192000, Note_on_c, 13, 62, 52
15, 192000, Note_on_c, 13, 58, 52
15, 192239, Note_on_c, 13, 62, 0
15, 192239, Note_on_c, 13, 58, 0
15, 195840, Note_on_c, 13, 69, 84
15, 195840, Note_on_c, 13, 65, 84
15, 196019, Note_on_c, 13, 69, 0
15, 196019, Note_on_c, 13, 65, 0
15, 196800, Note_on_c, 13, 65, 84
15, 196800, Note_on_c, 13, 69, 84
15, 196979, Note_on_c, 13, 65, 0
15, 196979, Note_on_c, 13, 69, 0
15, 197280, Note_on_c, 13, 65, 84
15, 197280, Note_on_c, 13, 69, 84
15, 197459, Note_on_c, 13, 65, 0
15, 197459, Note_on_c, 13, 69, 0
15, 197760, Note_on_c, 13, 70, 84
15, 197760, Note_on_c, 13, 58, 84
15, 197760, Note_on_c, 13, 65, 84
15, 197864, Note_on_c, 13, 70, 0
15, 197864, Note_on_c, 13, 58, 0
15, 197864, Note_on_c, 13, 65, 0
15, 197880, Note_on_c, 13, 53, 84
15, 197880, Note_on_c, 13, 50, 84
15, 197984, Note_on_c, 13, 53, 0
15, 197984, Note_on_c, 13, 50, 0
15, 198000, Note_on_c, 13, 53, 84
15, 198000, Note_on_c, 13, 50, 84
15, 198104, Note_on_c, 13, 53, 0
15, 198104, Note_on_c, 13, 50, 0
15, 198120, Note_on_c, 13, 53, 84
15, 198120, Note_on_c, 13, 50, 84
15, 198224, Note_on_c, 13, 53, 0
15, 198224, Note_on_c, 13, 50, 0
15, 198240, Note_on_c, 13, 50, 84
15, 198240, Note_on_c, 13, 53, 84
15, 198344, Note_on_c, 13, 50, 0
15, 198344, Note_on_c, 13, 53, 0
15, 198360, Note_on_c, 13, 53, 84
15, 198360, Note_on_c, 13, 50, 84
15, 198464, Note_on_c, 13, 53, 0
15, 198464, Note_on_c, 13, 50, 0
15, 198480, Note_on_c, 13, 50, 84
15, 198480, Note_on_c, 13, 53, 84
15, 198584, Note_on_c, 13, 50, 0
15, 198584, Note_on_c, 13, 53, 0
15, 198600, Note_on_c, 13, 53, 84
15, 198600, Note_on_c, 13, 50, 84
15, 198704, Note_on_c, 13, 53, 0
15, 198704, Note_on_c, 13, 50, 0
15, 198720, Note_on_c, 13, 50, 84
15, 198720, Note_on_c, 13, 53, 84
15, 198824, Note_on_c, 13, 50, 0
15, 198824, Note_on_c, 13, 53, 0
15, 198840, Note_on_c, 13, 50, 84
15, 198840, Note_on_c, 13, 53, 84
15, 198944, Note_on_c, 13, 50, 0
15, 198944, Note_on_c, 13, 53, 0
15, 198960, Note_on_c, 13, 53, 84
15, 198960, Note_on_c, 13, 50, 84
15, 199064, Note_on_c, 13, 53, 0
15, 199064, Note_on_c, 13, 50, 0
15, 199080, Note_on_c, 13, 53, 84
15, 199080, Note_on_c, 13, 50, 84
15, 199184, Note_on_c, 13, 53, 0
15, 199184, Note_on_c, 13, 50, 0
15, 199200, Note_on_c, 13, 50, 84
15, 199200, Note_on_c, 13, 53, 84
15, 199304, Note_on_c, 13, 50, 0
15, 199304, Note_on_c, 13, 53, 0
15, 199320, Note_on_c, 13, 50, 84
15, 199320, Note_on_c, 13, 53, 84
15, 199424, Note_on_c, 13, 50, 0
15, 199424, Note_on_c, 13, 53, 0
15, 199440, Note_on_c, 13, 53, 84
15, 199440, Note_on_c, 13, 50, 84
15, 199544, Note_on_c, 13, 53, 0
15, 199544, Note_on_c, 13, 50, 0
15, 199560, Note_on_c, 13, 53, 84
15, 199560, Note_on_c, 13, 50, 84
15, 199664, Note_on_c, 13, 53, 0
15, 199664, Note_on_c, 13, 50, 0
15, 199680, Note_on_c, 13, 55, 84
15, 199680, Note_on_c, 13, 51, 84
15, 199784, Note_on_c, 13, 55, 0
15, 199784, Note_on_c, 13, 51, 0
15, 199800, Note_on_c, 13, 55, 84
15, 199800, Note_on_c, 13, 51, 84
15, 199904, Note_on_c, 13, 55, 0
15, 199904, Note_on_c, 13, 51, 0
15, 199920, Note_on_c, 13, 55, 84
15, 199920, Note_on_c, 13, 51, 84
15, 200024, Note_on_c, 13, 55, 0
15, 200024, Note_on_c, 13, 51, 0
15, 200040, Note_on_c, 13, 55, 84
15, 200040, Note_on_c, 13, 51, 84
15, 200144, Note_on_c, 13, 55, 0
15, 200144, Note_on_c, 13, 51, 0
15, 200160, Note_on_c, 13, 55, 84
15, 200160, Note_on_c, 13, 51, 84
15, 200264, Note_on_c, 13, 55, 0
15, 200264, Note_on_c, 13, 51, 0
15, 200280, Note_on_c, 13, 51, 84
15, 200280, Note_on_c, 13, 55, 84
15, 200384, Note_on_c, 13, 51, 0
15, 200384, Note_on_c, 13, 55, 0
15, 200400, Note_on_c, 13, 55, 84
15, 200400, Note_on_c, 13, 51, 84
15, 200504, Note_on_c, 13, 55, 0
15, 200504, Note_on_c, 13, 51, 0
15, 200520, Note_on_c, 13, 55, 84
15, 200520, Note_on_c, 13, 51, 84
15, 200624, Note_on_c, 13, 55, 0
15, 200624, Note_on_c, 13, 51, 0
15, 200640, Note_on_c, 13, 57, 84
15, 200640, Note_on_c, 13, 53, 84
15, 200744, Note_on_c, 13, 57, 0
15, 200744, Note_on_c, 13, 53, 0
15, 200760, Note_on_c, 13, 53, 84
15, 200760, Note_on_c, 13, 57, 84
15, 200864, Note_on_c, 13, 53, 0
15, 200864, Note_on_c, 13, 57, 0
15, 200880, Note_on_c, 13, 57, 84
15, 200880, Note_on_c, 13, 53, 84
15, 200984, Note_on_c, 13, 57, 0
15, 200984, Note_on_c, 13, 53, 0
15, 201000, Note_on_c, 13, 53, 84
15, 201000, Note_on_c, 13, 57, 84
15, 201104, Note_on_c, 13, 53, 0
15, 201104, Note_on_c, 13, 57, 0
15, 201120, Note_on_c, 13, 53, 84
15, 201120, Note_on_c, 13, 57, 84
15, 201224, Note_on_c, 13, 53, 0
15, 201224, Note_on_c, 13, 57, 0
15, 201240, Note_on_c, 13, 57, 84
15, 201240, Note_on_c, 13, 53, 84
15, 201344, Note_on_c, 13, 57, 0
15, 201344, Note_on_c, 13, 53, 0
15, 201360, Note_on_c, 13, 57, 84
15, 201360, Note_on_c, 13, 53, 84
15, 201464, Note_on_c, 13, 57, 0
15, 201464, Note_on_c, 13, 53, 0
15, 201480, Note_on_c, 13, 57, 84
15, 201480, Note_on_c, 13, 53, 84
15, 201584, Note_on_c, 13, 57, 0
15, 201584, Note_on_c, 13, 53, 0
15, 201600, Note_on_c, 13, 58, 84
15, 201600, Note_on_c, 13, 50, 84
15, 201704, Note_on_c, 13, 58, 0
15, 201704, Note_on_c, 13, 50, 0
15, 201720, Note_on_c, 13, 58, 84
15, 201720, Note_on_c, 13, 50, 84
15, 201824, Note_on_c, 13, 58, 0
15, 201824, Note_on_c, 13, 50, 0
15, 201840, Note_on_c, 13, 58, 84
15, 201944, Note_on_c, 13, 58, 0
15, 201960, Note_on_c, 13, 58, 84
15, 202064, Note_on_c, 13, 58, 0
15, 202080, Note_on_c, 13, 57, 84
15, 202184, Note_on_c, 13, 57, 0
15, 202200, Note_on_c, 13, 57, 84
15, 202304, Note_on_c, 13, 57, 0
15, 202320, Note_on_c, 13, 55, 84
15, 202424, Note_on_c, 13, 55, 0
15, 202440, Note_on_c, 13, 55, 84
15, 202544, Note_on_c, 13, 55, 0
15, 202560, Note_on_c, 13, 53, 84
15, 202664, Note_on_c, 13, 53, 0
15, 202680, Note_on_c, 13, 53, 84
15, 202784, Note_on_c, 13, 53, 0
15, 202800, Note_on_c, 13, 51, 84
15, 202904, Note_on_c, 13, 51, 0
15, 202920, Note_on_c, 13, 51, 84
15, 203024, Note_on_c, 13, 51, 0
15, 203040, Note_on_c, 13, 50, 84
15, 203144, Note_on_c, 13, 50, 0
15, 203160, Note_on_c, 13, 50, 84
15, 203264, Note_on_c, 13, 50, 0
15, 203280, Note_on_c, 13, 51, 84
15, 203384, Note_on_c, 13, 51, 0
15, 203400, Note_on_c, 13, 51, 84
15, 203504, Note_on_c, 13, 51, 0
15, 203520, Note_on_c, 13, 60, 92
15, 203639, Note_on_c, 13, 60, 0
15, 203640, Note_on_c, 13, 59, 84
15, 203759, Note_on_c, 13, 59, 0
15, 203760, Note_on_c, 13, 60, 84
15, 203879, Note_on_c, 13, 60, 0
15, 203880, Note_on_c, 13, 59, 84
15, 203999, Note_on_c, 13, 59, 0
15, 204000, Note_on_c, 13, 60, 84
15, 204119, Note_on_c, 13, 60, 0
15, 204120, Note_on_c, 13, 59, 84
15, 204239, Note_on_c, 13, 59, 0
15, 204240, Note_on_c, 13, 60, 84
15, 204359, Note_on_c, 13, 60, 0
15, 204360, Note_on_c, 13, 59, 84
15, 204464, Note_on_c, 13, 59, 0
15, 204480, Note_on_c, 13, 60, 84
15, 204584, Note_on_c, 13, 60, 0
15, 204600, Note_on_c, 13, 60, 84
15, 204704, Note_on_c, 13, 60, 0
15, 204720, Note_on_c, 13, 60, 84
15, 204824, Note_on_c, 13, 60, 0
15, 204840, Note_on_c, 13, 60, 84
15, 204944, Note_on_c, 13, 60, 0
15, 204960, Note_on_c, 13, 60, 84
15, 205064, Note_on_c, 13, 60, 0
15, 205080, Note_on_c, 13, 60, 84
15, 205184, Note_on_c, 13, 60, 0
15, 205200, Note_on_c, 13, 60, 84
15, 205304, Note_on_c, 13, 60, 0
15, 205320, Note_on_c, 13, 60, 84
15, 205424, Note_on_c, 13, 60, 0
15, 205440, Note_on_c, 13, 60, 84
15, 205679, Note_on_c, 13, 60, 0
15, 206400, Note_on_c, 13, 58, 84
15, 206639, Note_on_c, 13, 58, 0
15, 207360, Note_on_c, 13, 60, 84
15, 207360, Note_on_c, 13, 63, 84
15, 207599, Note_on_c, 13, 60, 0
15, 207599, Note_on_c, 13, 63, 0
15, 208320, Note_on_c, 13, 53, 84
15, 208559, Note_on_c, 13, 53, 0
15, 209280, Note_on_c, 13, 53, 44
15, 209280, Note_on_c, 13, 50, 44
15, 209384, Note_on_c, 13, 53, 0
15, 209384, Note_on_c, 13, 50, 0
15, 209400, Note_on_c, 13, 50, 44
15, 209400, Note_on_c, 13, 53, 44
15, 209504, Note_on_c, 13, 50, 0
15, 209504, Note_on_c, 13, 53, 0
15, 209520, Note_on_c, 13, 50, 44
15, 209520, Note_on_c, 13, 53, 44
15, 209624, Note_on_c, 13, 50, 0
15, 209624, Note_on_c, 13, 53, 0
15, 209640, Note_on_c, 13, 53, 44
15, 209640, Note_on_c, 13, 50, 44
15, 209744, Note_on_c, 13, 53, 0
15, 209744, Note_on_c, 13, 50, 0
15, 209760, Note_on_c, 13, 53, 44
15, 209760, Note_on_c, 13, 50, 44
15, 209864, Note_on_c, 13, 53, 0
15, 209864, Note_on_c, 13, 50, 0
15, 209880, Note_on_c, 13, 53, 44
15, 209880, Note_on_c, 13, 50, 44
15, 209984, Note_on_c, 13, 53, 0
15, 209984, Note_on_c, 13, 50, 0
15, 210000, Note_on_c, 13, 53, 44
15, 210000, Note_on_c, 13, 50, 44
15, 210104, Note_on_c, 13, 53, 0
15, 210104, Note_on_c, 13, 50, 0
15, 210120, Note_on_c, 13, 50, 44
15, 210120, Note_on_c, 13, 53, 44
15, 210224, Note_on_c, 13, 50, 0
15, 210224, Note_on_c, 13, 53, 0
15, 210240, Note_on_c, 13, 50, 44
15, 210240, Note_on_c, 13, 53, 44
15, 210344, Note_on_c, 13, 50, 0
15, 210344, Note_on_c, 13, 53, 0
15, 210360, Note_on_c, 13, 50, 44
15, 210360, Note_on_c, 13, 53, 44
15, 210464, Note_on_c, 13, 50, 0
15, 210464, Note_on_c, 13, 53, 0
15, 210480, Note_on_c, 13, 53, 44
15, 210480, Note_on_c, 13, 50, 44
15, 210584, Note_on_c, 13, 53, 0
15, 210584, Note_on_c, 13, 50, 0
15, 210600, Note_on_c, 13, 53, 44
15, 210600, Note_on_c, 13, 50, 44
15, 210704, Note_on_c, 13, 53, 0
15, 210704, Note_on_c, 13, 50, 0
15, 210720, Note_on_c, 13, 50, 44
15, 210720, Note_on_c, 13, 53, 44
15, 210824, Note_on_c, 13, 50, 0
15, 210824, Note_on_c, 13, 53, 0
15, 210840, Note_on_c, 13, 53, 44
15, 210840, Note_on_c, 13, 50, 44
15, 210944, Note_on_c, 13, 53, 0
15, 210944, Note_on_c, 13, 50, 0
15, 210960, Note_on_c, 13, 53, 44
15, 210960, Note_on_c, 13, 50, 44
15, 211064, Note_on_c, 13, 53, 0
15, 211064, Note_on_c, 13, 50, 0
15, 211080, Note_on_c, 13, 50, 44
15, 211080, Note_on_c, 13, 53, 44
15, 211184, Note_on_c, 13, 50, 0
15, 211184, Note_on_c, 13, 53, 0
15, 211200, Note_on_c, 13, 50, 44
15, 211200, Note_on_c, 13, 53, 44
15, 211304, Note_on_c, 13, 50, 0
15, 211304, Note_on_c, 13, 53, 0
15, 211320, Note_on_c, 13, 53, 44
15, 211320, Note_on_c, 13, 50, 44
15, 211424, Note_on_c, 13, 53, 0
15, 211424, Note_on_c, 13, 50, 0
15, 211440, Note_on_c, 13, 50, 44
15, 211440, Note_on_c, 13, 53, 44
15, 211544, Note_on_c, 13, 50, 0
15, 211544, Note_on_c, 13, 53, 0
15, 211560, Note_on_c, 13, 53, 44
15, 211560, Note_on_c, 13, 50, 44
15, 211664, Note_on_c, 13, 53, 0
15, 211664, Note_on_c, 13, 50, 0
15, 211680, Note_on_c, 13, 50, 44
15, 211680, Note_on_c, 13, 53, 44
15, 211784, Note_on_c, 13, 50, 0
15, 211784, Note_on_c, 13, 53, 0
15, 211800, Note_on_c, 13, 53, 44
15, 211800, Note_on_c, 13, 50, 44
15, 211904, Note_on_c, 13, 53, 0
15, 211904, Note_on_c, 13, 50, 0
15, 211920, Note_on_c, 13, 50, 44
15, 211920, Note_on_c, 13, 53, 44
15, 212024, Note_on_c, 13, 50, 0
15, 212024, Note_on_c, 13, 53, 0
15, 212040, Note_on_c, 13, 53, 44
15, 212040, Note_on_c, 13, 50, 44
15, 212144, Note_on_c, 13, 53, 0
15, 212144, Note_on_c, 13, 50, 0
15, 212160, Note_on_c, 13, 50, 44
15, 212160, Note_on_c, 13, 53, 44
15, 212264, Note_on_c, 13, 50, 0
15, 212264, Note_on_c, 13, 53, 0
15, 212280, Note_on_c, 13, 50, 44
15, 212280, Note_on_c, 13, 53, 44
15, 212384, Note_on_c, 13, 50, 0
15, 212384, Note_on_c, 13, 53, 0
15, 212400, Note_on_c, 13, 53, 44
15, 212400, Note_on_c, 13, 50, 44
15, 212504, Note_on_c, 13, 53, 0
15, 212504, Note_on_c, 13, 50, 0
15, 212520, Note_on_c, 13, 50, 44
15, 212520, Note_on_c, 13, 53, 44
15, 212624, Note_on_c, 13, 50, 0
15, 212624, Note_on_c, 13, 53, 0
15, 212640, Note_on_c, 13, 53, 44
15, 212640, Note_on_c, 13, 50, 44
15, 212744, Note_on_c, 13, 53, 0
15, 212744, Note_on_c, 13, 50, 0
15, 212760, Note_on_c, 13, 53, 44
15, 212760, Note_on_c, 13, 50, 44
15, 212864, Note_on_c, 13, 53, 0
15, 212864, Note_on_c, 13, 50, 0
15, 212880, Note_on_c, 13, 53, 44
15, 212880, Note_on_c, 13, 50, 44
15, 212984, Note_on_c, 13, 53, 0
15, 212984, Note_on_c, 13, 50, 0
15, 213000, Note_on_c, 13, 53, 44
15, 213000, Note_on_c, 13, 50, 44
15, 213104, Note_on_c, 13, 53, 0
15, 213104, Note_on_c, 13, 50, 0
15, 213120, Note_on_c, 13, 51, 44
15, 213120, Note_on_c, 13, 54, 44
15, 213224, Note_on_c, 13, 51, 0
15, 213224, Note_on_c, 13, 54, 0
15, 213240, Note_on_c, 13, 54, 44
15, 213240, Note_on_c, 13, 51, 44
15, 213344, Note_on_c, 13, 54, 0
15, 213344, Note_on_c, 13, 51, 0
15, 213360, Note_on_c, 13, 54, 44
15, 213360, Note_on_c, 13, 51, 44
15, 213464, Note_on_c, 13, 54, 0
15, 213464, Note_on_c, 13, 51, 0
15, 213480, Note_on_c, 13, 51, 44
15, 213480, Note_on_c, 13, 54, 44
15, 213584, Note_on_c, 13, 51, 0
15, 213584, Note_on_c, 13, 54, 0
15, 213600, Note_on_c, 13, 51, 44
15, 213600, Note_on_c, 13, 54, 44
15, 213704, Note_on_c, 13, 51, 0
15, 213704, Note_on_c, 13, 54, 0
15, 213720, Note_on_c, 13, 54, 44
15, 213720, Note_on_c, 13, 51, 44
15, 213824, Note_on_c, 13, 54, 0
15, 213824, Note_on_c, 13, 51, 0
15, 213840, Note_on_c, 13, 54, 44
15, 213840, Note_on_c, 13, 51, 44
15, 213944, Note_on_c, 13, 54, 0
15, 213944, Note_on_c, 13, 51, 0
15, 213960, Note_on_c, 13, 51, 44
15, 213960, Note_on_c, 13, 54, 44
15, 214064, Note_on_c, 13, 51, 0
15, 214064, Note_on_c, 13, 54, 0
15, 214080, Note_on_c, 13, 54, 44
15, 214080, Note_on_c, 13, 51, 44
15, 214184, Note_on_c, 13, 54, 0
15, 214184, Note_on_c, 13, 51, 0
15, 214200, Note_on_c, 13, 51, 44
15, 214200, Note_on_c, 13, 54, 44
15, 214304, Note_on_c, 13, 51, 0
15, 214304, Note_on_c, 13, 54, 0
15, 214320, Note_on_c, 13, 54, 44
15, 214320, Note_on_c, 13, 51, 44
15, 214424, Note_on_c, 13, 54, 0
15, 214424, Note_on_c, 13, 51, 0
15, 214440, Note_on_c, 13, 51, 44
15, 214440, Note_on_c, 13, 54, 44
15, 214544, Note_on_c, 13, 51, 0
15, 214544, Note_on_c, 13, 54, 0
15, 214560, Note_on_c, 13, 54, 44
15, 214560, Note_on_c, 13, 51, 44
15, 214664, Note_on_c, 13, 54, 0
15, 214664, Note_on_c, 13, 51, 0
15, 214680, Note_on_c, 13, 51, 44
15, 214680, Note_on_c, 13, 54, 44
15, 214784, Note_on_c, 13, 51, 0
15, 214784, Note_on_c, 13, 54, 0
15, 214800, Note_on_c, 13, 54, 44
15, 214800, Note_on_c, 13, 51, 44
15, 214904, Note_on_c, 13, 54, 0
15, 214904, Note_on_c, 13, 51, 0
15, 214920, Note_on_c, 13, 51, 44
15, 214920, Note_on_c, 13, 54, 44
15, 215024, Note_on_c, 13, 51, 0
15, 215024, Note_on_c, 13, 54, 0
15, 215040, Note_on_c, 13, 54, 44
15, 215040, Note_on_c, 13, 51, 44
15, 215144, Note_on_c, 13, 54, 0
15, 215144, Note_on_c, 13, 51, 0
15, 215160, Note_on_c, 13, 54, 44
15, 215160, Note_on_c, 13, 51, 44
15, 215264, Note_on_c, 13, 54, 0
15, 215264, Note_on_c, 13, 51, 0
15, 215280, Note_on_c, 13, 54, 44
15, 215280, Note_on_c, 13, 51, 44
15, 215384, Note_on_c, 13, 54, 0
15, 215384, Note_on_c, 13, 51, 0
15, 215400, Note_on_c, 13, 51, 44
15, 215400, Note_on_c, 13, 54, 44
15, 215504, Note_on_c, 13, 51, 0
15, 215504, Note_on_c, 13, 54, 0
15, 215520, Note_on_c, 13, 54, 44
15, 215520, Note_on_c, 13, 51, 44
15, 215624, Note_on_c, 13, 54, 0
15, 215624, Note_on_c, 13, 51, 0
15, 215640, Note_on_c, 13, 51, 44
15, 215640, Note_on_c, 13, 54, 44
15, 215744, Note_on_c, 13, 51, 0
15, 215744, Note_on_c, 13, 54, 0
15, 215760, Note_on_c, 13, 51, 44
15, 215760, Note_on_c, 13, 54, 44
15, 215864, Note_on_c, 13, 51, 0
15, 215864, Note_on_c, 13, 54, 0
15, 215880, Note_on_c, 13, 54, 44
15, 215880, Note_on_c, 13, 51, 44
15, 215984, Note_on_c, 13, 54, 0
15, 215984, Note_on_c, 13, 51, 0
15, 216000, Note_on_c, 13, 51, 44
15, 216000, Note_on_c, 13, 54, 44
15, 216104, Note_on_c, 13, 51, 0
15, 216104, Note_on_c, 13, 54, 0
15, 216120, Note_on_c, 13, 51, 44
15, 216120, Note_on_c, 13, 54, 44
15, 216224, Note_on_c, 13, 51, 0
15, 216224, Note_on_c, 13, 54, 0
15, 216240, Note_on_c, 13, 54, 44
15, 216240, Note_on_c, 13, 51, 44
15, 216344, Note_on_c, 13, 54, 0
15, 216344, Note_on_c, 13, 51, 0
15, 216360, Note_on_c, 13, 54, 44
15, 216360, Note_on_c, 13, 51, 44
15, 216464, Note_on_c, 13, 54, 0
15, 216464, Note_on_c, 13, 51, 0
15, 216480, Note_on_c, 13, 54, 44
15, 216480, Note_on_c, 13, 51, 44
15, 216584, Note_on_c, 13, 54, 0
15, 216584, Note_on_c, 13, 51, 0
15, 216600, Note_on_c, 13, 54, 44
15, 216600, Note_on_c, 13, 51, 44
15, 216704, Note_on_c, 13, 54, 0
15, 216704, Note_on_c, 13, 51, 0
15, 216720, Note_on_c, 13, 51, 44
15, 216720, Note_on_c, 13, 54, 44
15, 216824, Note_on_c, 13, 51, 0
15, 216824, Note_on_c, 13, 54, 0
15, 216840, Note_on_c, 13, 54, 44
15, 216840, Note_on_c, 13, 51, 44
15, 216944, Note_on_c, 13, 54, 0
15, 216944, Note_on_c, 13, 51, 0
15, 216960, Note_on_c, 13, 56, 44
15, 216960, Note_on_c, 13, 53, 44
15, 217064, Note_on_c, 13, 56, 0
15, 217064, Note_on_c, 13, 53, 0
15, 217080, Note_on_c, 13, 53, 44
15, 217080, Note_on_c, 13, 56, 44
15, 217184, Note_on_c, 13, 53, 0
15, 217184, Note_on_c, 13, 56, 0
15, 217200, Note_on_c, 13, 56, 44
15, 217200, Note_on_c, 13, 53, 44
15, 217304, Note_on_c, 13, 56, 0
15, 217304, Note_on_c, 13, 53, 0
15, 217320, Note_on_c, 13, 53, 44
15, 217320, Note_on_c, 13, 56, 44
15, 217424, Note_on_c, 13, 53, 0
15, 217424, Note_on_c, 13, 56, 0
15, 217440, Note_on_c, 13, 56, 44
15, 217440, Note_on_c, 13, 53, 44
15, 217544, Note_on_c, 13, 56, 0
15, 217544, Note_on_c, 13, 53, 0
15, 217560, Note_on_c, 13, 53, 44
15, 217560, Note_on_c, 13, 56, 44
15, 217664, Note_on_c, 13, 53, 0
15, 217664, Note_on_c, 13, 56, 0
15, 217680, Note_on_c, 13, 53, 44
15, 217680, Note_on_c, 13, 56, 44
15, 217784, Note_on_c, 13, 53, 0
15, 217784, Note_on_c, 13, 56, 0
15, 217800, Note_on_c, 13, 53, 44
15, 217800, Note_on_c, 13, 56, 44
15, 217904, Note_on_c, 13, 53, 0
15, 217904, Note_on_c, 13, 56, 0
15, 217920, Note_on_c, 13, 53, 44
15, 217920, Note_on_c, 13, 56, 44
15, 218024, Note_on_c, 13, 53, 0
15, 218024, Note_on_c, 13, 56, 0
15, 218040, Note_on_c, 13, 53, 44
15, 218040, Note_on_c, 13, 56, 44
15, 218144, Note_on_c, 13, 53, 0
15, 218144, Note_on_c, 13, 56, 0
15, 218160, Note_on_c, 13, 53, 44
15, 218160, Note_on_c, 13, 56, 44
15, 218264, Note_on_c, 13, 53, 0
15, 218264, Note_on_c, 13, 56, 0
15, 218280, Note_on_c, 13, 53, 44
15, 218280, Note_on_c, 13, 56, 44
15, 218384, Note_on_c, 13, 53, 0
15, 218384, Note_on_c, 13, 56, 0
15, 218400, Note_on_c, 13, 56, 44
15, 218400, Note_on_c, 13, 53, 44
15, 218504, Note_on_c, 13, 56, 0
15, 218504, Note_on_c, 13, 53, 0
15, 218520, Note_on_c, 13, 53, 44
15, 218520, Note_on_c, 13, 56, 44
15, 218624, Note_on_c, 13, 53, 0
15, 218624, Note_on_c, 13, 56, 0
15, 218640, Note_on_c, 13, 56, 44
15, 218640, Note_on_c, 13, 53, 44
15, 218744, Note_on_c, 13, 56, 0
15, 218744, Note_on_c, 13, 53, 0
15, 218760, Note_on_c, 13, 56, 44
15, 218760, Note_on_c, 13, 53, 44
15, 218864, Note_on_c, 13, 56, 0
15, 218864, Note_on_c, 13, 53, 0
15, 218880, Note_on_c, 13, 58, 44
15, 218880, Note_on_c, 13, 55, 44
15, 218984, Note_on_c, 13, 58, 0
15, 218984, Note_on_c, 13, 55, 0
15, 219000, Note_on_c, 13, 58, 44
15, 219000, Note_on_c, 13, 55, 44
15, 219104, Note_on_c, 13, 58, 0
15, 219104, Note_on_c, 13, 55, 0
15, 219120, Note_on_c, 13, 58, 44
15, 219120, Note_on_c, 13, 55, 44
15, 219224, Note_on_c, 13, 58, 0
15, 219224, Note_on_c, 13, 55, 0
15, 219240, Note_on_c, 13, 55, 44
15, 219240, Note_on_c, 13, 58, 44
15, 219344, Note_on_c, 13, 55, 0
15, 219344, Note_on_c, 13, 58, 0
15, 219360, Note_on_c, 13, 55, 44
15, 219360, Note_on_c, 13, 58, 44
15, 219464, Note_on_c, 13, 55, 0
15, 219464, Note_on_c, 13, 58, 0
15, 219480, Note_on_c, 13, 58, 44
15, 219480, Note_on_c, 13, 55, 44
15, 219584, Note_on_c, 13, 58, 0
15, 219584, Note_on_c, 13, 55, 0
15, 219600, Note_on_c, 13, 58, 44
15, 219600, Note_on_c, 13, 55, 44
15, 219704, Note_on_c, 13, 58, 0
15, 219704, Note_on_c, 13, 55, 0
15, 219720, Note_on_c, 13, 55, 44
15, 219720, Note_on_c, 13, 58, 44
15, 219824, Note_on_c, 13, 55, 0
15, 219824, Note_on_c, 13, 58, 0
15, 219840, Note_on_c, 13, 58, 44
15, 219840, Note_on_c, 13, 55, 44
15, 219944, Note_on_c, 13, 58, 0
15, 219944, Note_on_c, 13, 55, 0
15, 219960, Note_on_c, 13, 55, 44
15, 219960, Note_on_c, 13, 58, 44
15, 220064, Note_on_c, 13, 55, 0
15, 220064, Note_on_c, 13, 58, 0
15, 220080, Note_on_c, 13, 55, 44
15, 220080, Note_on_c, 13, 58, 44
15, 220184, Note_on_c, 13, 55, 0
15, 220184, Note_on_c, 13, 58, 0
15, 220200, Note_on_c, 13, 55, 44
15, 220200, Note_on_c, 13, 58, 44
15, 220304, Note_on_c, 13, 55, 0
15, 220304, Note_on_c, 13, 58, 0
15, 220320, Note_on_c, 13, 55, 44
15, 220320, Note_on_c, 13, 58, 44
15, 220424, Note_on_c, 13, 55, 0
15, 220424, Note_on_c, 13, 58, 0
15, 220440, Note_on_c, 13, 55, 44
15, 220440, Note_on_c, 13, 58, 44
15, 220544, Note_on_c, 13, 55, 0
15, 220544, Note_on_c, 13, 58, 0
15, 220560, Note_on_c, 13, 58, 44
15, 220560, Note_on_c, 13, 55, 44
15, 220664, Note_on_c, 13, 58, 0
15, 220664, Note_on_c, 13, 55, 0
15, 220680, Note_on_c, 13, 58, 44
15, 220680, Note_on_c, 13, 55, 44
15, 220784, Note_on_c, 13, 58, 0
15, 220784, Note_on_c, 13, 55, 0
15, 220800, Note_on_c, 13, 63, 44
15, 220800, Note_on_c, 13, 60, 44
15, 220904, Note_on_c, 13, 63, 0
15, 220904, Note_on_c, 13, 60, 0
15, 220920, Note_on_c, 13, 60, 45
15, 220920, Note_on_c, 13, 63, 45
15, 221024, Note_on_c, 13, 60, 0
15, 221024, Note_on_c, 13, 63, 0
15, 221040, Note_on_c, 13, 60, 46
15, 221040, Note_on_c, 13, 63, 46
15, 221144, Note_on_c, 13, 60, 0
15, 221144, Note_on_c, 13, 63, 0
15, 221160, Note_on_c, 13, 63, 47
15, 221160, Note_on_c, 13, 60, 47
15, 221264, Note_on_c, 13, 63, 0
15, 221264, Note_on_c, 13, 60, 0
15, 221280, Note_on_c, 13, 60, 49
15, 221280, Note_on_c, 13, 63, 49
15, 221384, Note_on_c, 13, 60, 0
15, 221384, Note_on_c, 13, 63, 0
15, 221400, Note_on_c, 13, 63, 50
15, 221400, Note_on_c, 13, 60, 50
15, 221504, Note_on_c, 13, 63, 0
15, 221504, Note_on_c, 13, 60, 0
15, 221520, Note_on_c, 13, 60, 51
15, 221520, Note_on_c, 13, 63, 51
15, 221624, Note_on_c, 13, 60, 0
15, 221624, Note_on_c, 13, 63, 0
15, 221640, Note_on_c, 13, 60, 52
15, 221640, Note_on_c, 13, 63, 52
15, 221744, Note_on_c, 13, 60, 0
15, 221744, Note_on_c, 13, 63, 0
15, 221760, Note_on_c, 13, 63, 54
15, 221760, Note_on_c, 13, 60, 54
15, 221864, Note_on_c, 13, 63, 0
15, 221864, Note_on_c, 13, 60, 0
15, 221880, Note_on_c, 13, 60, 55
15, 221880, Note_on_c, 13, 63, 55
15, 221984, Note_on_c, 13, 60, 0
15, 221984, Note_on_c, 13, 63, 0
15, 222000, Note_on_c, 13, 60, 56
15, 222000, Note_on_c, 13, 63, 56
15, 222104, Note_on_c, 13, 60, 0
15, 222104, Note_on_c, 13, 63, 0
15, 222120, Note_on_c, 13, 63, 57
15, 222120, Note_on_c, 13, 60, 57
15, 222224, Note_on_c, 13, 63, 0
15, 222224, Note_on_c, 13, 60, 0
15, 222240, Note_on_c, 13, 60, 59
15, 222240, Note_on_c, 13, 63, 59
15, 222344, Note_on_c, 13, 60, 0
15, 222344, Note_on_c, 13, 63, 0
15, 222360, Note_on_c, 13, 63, 60
15, 222360, Note_on_c, 13, 60, 60
15, 222464, Note_on_c, 13, 63, 0
15, 222464, Note_on_c, 13, 60, 0
15, 222480, Note_on_c, 13, 63, 61
15, 222480, Note_on_c, 13, 60, 61
15, 222584, Note_on_c, 13, 63, 0
15, 222584, Note_on_c, 13, 60, 0
15, 222600, Note_on_c, 13, 63, 62
15, 222600, Note_on_c, 13, 60, 62
15, 222704, Note_on_c, 13, 63, 0
15, 222704, Note_on_c, 13, 60, 0
15, 222720, Note_on_c, 13, 60, 64
15, 222720, Note_on_c, 13, 63, 64
15, 222824, Note_on_c, 13, 60, 0
15, 222824, Note_on_c, 13, 63, 0
15, 222840, Note_on_c, 13, 60, 65
15, 222840, Note_on_c, 13, 63, 65
15, 222944, Note_on_c, 13, 60, 0
15, 222944, Note_on_c, 13, 63, 0
15, 222960, Note_on_c, 13, 63, 66
15, 222960, Note_on_c, 13, 60, 66
15, 223064, Note_on_c, 13, 63, 0
15, 223064, Note_on_c, 13, 60, 0
15, 223080, Note_on_c, 13, 60, 67
15, 223080, Note_on_c, 13, 63, 67
15, 223184, Note_on_c, 13, 60, 0
15, 223184, Note_on_c, 13, 63, 0
15, 223200, Note_on_c, 13, 60, 69
15, 223200, Note_on_c, 13, 63, 69
15, 223304, Note_on_c, 13, 60, 0
15, 223304, Note_on_c, 13, 63, 0
15, 223320, Note_on_c, 13, 63, 70
15, 223320, Note_on_c, 13, 60, 70
15, 223424, Note_on_c, 13, 63, 0
15, 223424, Note_on_c, 13, 60, 0
15, 223440, Note_on_c, 13, 60, 71
15, 223440, Note_on_c, 13, 63, 71
15, 223544, Note_on_c, 13, 60, 0
15, 223544, Note_on_c, 13, 63, 0
15, 223560, Note_on_c, 13, 60, 72
15, 223560, Note_on_c, 13, 63, 72
15, 223664, Note_on_c, 13, 60, 0
15, 223664, Note_on_c, 13, 63, 0
15, 223680, Note_on_c, 13, 60, 74
15, 223680, Note_on_c, 13, 63, 74
15, 223784, Note_on_c, 13, 60, 0
15, 223784, Note_on_c, 13, 63, 0
15, 223800, Note_on_c, 13, 60, 75
15, 223800, Note_on_c, 13, 63, 75
15, 223904, Note_on_c, 13, 60, 0
15, 223904, Note_on_c, 13, 63, 0
15, 223920, Note_on_c, 13, 60, 76
15, 223920, Note_on_c, 13, 63, 76
15, 224024, Note_on_c, 13, 60, 0
15, 224024, Note_on_c, 13, 63, 0
15, 224040, Note_on_c, 13, 63, 77
15, 224040, Note_on_c, 13, 60, 77
15, 224144, Note_on_c, 13, 63, 0
15, 224144, Note_on_c, 13, 60, 0
15, 224160, Note_on_c, 13, 63, 79
15, 224160, Note_on_c, 13, 60, 79
15, 224384, Note_on_c, 13, 63, 0
15, 224384, Note_on_c, 13, 60, 0
15, 224400, Note_on_c, 13, 65, 81
15, 224447, Note_on_c, 13, 65, 0
15, 224448, Note_on_c, 13, 67, 82
15, 224495, Note_on_c, 13, 67, 0
15, 224496, Note_on_c, 13, 69, 82
15, 224543, Note_on_c, 13, 69, 0
15, 224544, Note_on_c, 13, 70, 83
15, 224591, Note_on_c, 13, 70, 0
15, 224592, Note_on_c, 13, 72, 83
15, 224631, Note_on_c, 13, 72, 0
15, 224640, Note_on_c, 13, 74, 84
15, 224744, Note_on_c, 13, 74, 0
15, 224760, Note_on_c, 13, 74, 84
15, 224864, Note_on_c, 13, 74, 0
15, 224880, Note_on_c, 13, 70, 84
15, 224984, Note_on_c, 13, 70, 0
15, 225000, Note_on_c, 13, 70, 84
15, 225104, Note_on_c, 13, 70, 0
15, 225120, Note_on_c, 13, 65, 84
15, 225224, Note_on_c, 13, 65, 0
15, 225240, Note_on_c, 13, 65, 84
15, 225344, Note_on_c, 13, 65, 0
15, 225360, Note_on_c, 13, 70, 84
15, 225464, Note_on_c, 13, 70, 0
15, 225480, Note_on_c, 13, 70, 84
15, 225584, Note_on_c, 13, 70, 0
15, 225600, Note_on_c, 13, 62, 84
15, 225704, Note_on_c, 13, 62, 0
15, 225720, Note_on_c, 13, 62, 84
15, 225824, Note_on_c, 13, 62, 0
15, 225840, Note_on_c, 13, 65, 84
15, 225944, Note_on_c, 13, 65, 0
15, 225960, Note_on_c, 13, 65, 84
15, 226064, Note_on_c, 13, 65, 0
15, 226080, Note_on_c, 13, 58, 84
15, 226184, Note_on_c, 13, 58, 0
15, 226200, Note_on_c, 13, 58, 84
15, 226304, Note_on_c, 13, 58, 0
15, 226320, Note_on_c, 13, 62, 84
15, 226424, Note_on_c, 13, 62, 0
15, 226440, Note_on_c, 13, 62, 84
15, 226544, Note_on_c, 13, 62, 0
15, 226560, Note_on_c, 13, 55, 84
15, 226664, Note_on_c, 13, 55, 0
15, 226680, Note_on_c, 13, 55, 84
15, 226784, Note_on_c, 13, 55, 0
15, 226800, Note_on_c, 13, 63, 84
15, 226904, Note_on_c, 13, 63, 0
15, 226920, Note_on_c, 13, 63, 84
15, 227024, Note_on_c, 13, 63, 0
15, 227040, Note_on_c, 13, 60, 84
15, 227144, Note_on_c, 13, 60, 0
15, 227160, Note_on_c, 13, 60, 84
15, 227264, Note_on_c, 13, 60, 0
15, 227280, Note_on_c, 13, 58, 84
15, 227384, Note_on_c, 13, 58, 0
15, 227400, Note_on_c, 13, 58, 84
15, 227504, Note_on_c, 13, 58, 0
15, 227520, Note_on_c, 13, 57, 84
15, 227624, Note_on_c, 13, 57, 0
15, 227640, Note_on_c, 13, 57, 84
15, 227744, Note_on_c, 13, 57, 0
15, 227760, Note_on_c, 13, 65, 84
15, 227864, Note_on_c, 13, 65, 0
15, 227880, Note_on_c, 13, 65, 84
15, 227984, Note_on_c, 13, 65, 0
15, 228000, Note_on_c, 13, 63, 84
15, 228104, Note_on_c, 13, 63, 0
15, 228120, Note_on_c, 13, 63, 84
15, 228224, Note_on_c, 13, 63, 0
15, 228240, Note_on_c, 13, 60, 84
15, 228344, Note_on_c, 13, 60, 0
15, 228360, Note_on_c, 13, 60, 84
15, 228464, Note_on_c, 13, 60, 0
15, 228480, Note_on_c, 13, 58, 92
15, 229439, Note_on_c, 13, 58, 0
15, 229440, Note_on_c, 13, 58, 84
15, 230384, Note_on_c, 13, 58, 0
15, 230400, Note_on_c, 13, 63, 92
15, 231329, Note_on_c, 13, 63, 0
15, 231360, Note_on_c, 13, 65, 92
15, 232289, Note_on_c, 13, 65, 0
15, 232320, Note_on_c, 13, 58, 92
15, 233249, Note_on_c, 13, 58, 0
15, 233280, Note_on_c, 13, 57, 92
15, 234209, Note_on_c, 13, 57, 0
15, 234240, Note_on_c, 13, 62, 92
15, 235169, Note_on_c, 13, 62, 0
15, 235200, Note_on_c, 13, 60, 92
15, 236159, Note_on_c, 13, 60, 0
15, 236160, Note_on_c, 13, 60, 84
15, 236384, Note_on_c, 13, 60, 0
15, 236400, Note_on_c, 13, 60, 84
15, 236504, Note_on_c, 13, 60, 0
15, 236520, Note_on_c, 13, 60, 84
15, 236624, Note_on_c, 13, 60, 0
15, 236640, Note_on_c, 13, 58, 84
15, 236744, Note_on_c, 13, 58, 0
15, 236760, Note_on_c, 13, 58, 84
15, 236864, Note_on_c, 13, 58, 0
15, 236880, Note_on_c, 13, 55, 84
15, 236984, Note_on_c, 13, 55, 0
15, 237000, Note_on_c, 13, 55, 84
15, 237104, Note_on_c, 13, 55, 0
15, 237120, Note_on_c, 13, 56, 84
15, 237224, Note_on_c, 13, 56, 0
15, 237240, Note_on_c, 13, 56, 84
15, 237344, Note_on_c, 13, 56, 0
15, 237360, Note_on_c, 13, 53, 84
15, 237464, Note_on_c, 13, 53, 0
15, 237480, Note_on_c, 13, 53, 84
15, 237584, Note_on_c, 13, 53, 0
15, 237600, Note_on_c, 13, 51, 84
15, 237704, Note_on_c, 13, 51, 0
15, 237720, Note_on_c, 13, 51, 84
15, 237824, Note_on_c, 13, 51, 0
15, 237840, Note_on_c, 13, 49, 84
15, 237944, Note_on_c, 13, 49, 0
15, 237960, Note_on_c, 13, 49, 84
15, 238064, Note_on_c, 13, 49, 0
15, 238080, Note_on_c, 13, 48, 84
15, 238319, Note_on_c, 13, 48, 0
15, 241200, Note_on_c, 13, 53, 92
15, 241679, Note_on_c, 13, 53, 0
15, 241680, Note_on_c, 13, 48, 84
15, 241904, Note_on_c, 13, 48, 0
15, 241920, Note_on_c, 13, 48, 84
15, 242099, Note_on_c, 13, 48, 0
15, 242160, Note_on_c, 13, 48, 84
15, 242160, Note_on_c, 13, 60, 84
15, 242624, Note_on_c, 13, 48, 0
15, 242624, Note_on_c, 13, 60, 0
15, 242640, Note_on_c, 13, 60, 84
15, 242640, Note_on_c, 13, 48, 84
15, 243104, Note_on_c, 13, 60, 0
15, 243104, Note_on_c, 13, 48, 0
15, 243120, Note_on_c, 13, 60, 84
15, 243120, Note_on_c, 13, 48, 84
15, 243584, Note_on_c, 13, 60, 0
15, 243584, Note_on_c, 13, 48, 0
15, 243600, Note_on_c, 13, 48, 84
15, 243600, Note_on_c, 13, 60, 84
15, 244064, Note_on_c, 13, 48, 0
15, 244064, Note_on_c, 13, 60, 0
15, 244080, Note_on_c, 13, 48, 84
15, 244080, Note_on_c, 13, 60, 84
15, 244544, Note_on_c, 13, 48, 0
15, 244544, Note_on_c, 13, 60, 0
15, 244560, Note_on_c, 13, 60, 84
15, 244560, Note_on_c, 13, 48, 84
15, 245024, Note_on_c, 13, 60, 0
15, 245024, Note_on_c, 13, 48, 0
15, 245040, Note_on_c, 13, 60, 92
15, 245040, Note_on_c, 13, 48, 92
15, 245489, Note_on_c, 13, 60, 0
15, 245489, Note_on_c, 13, 48, 0
15, 245520, Note_on_c, 13, 48, 84
15, 245520, Note_on_c, 13, 60, 84
15, 245744, Note_on_c, 13, 48, 0
15, 245744, Note_on_c, 13, 60, 0
15, 245760, Note_on_c, 13, 60, 92
15, 245760, Note_on_c, 13, 48, 92
15, 245820, Control_c, 13, 11, 112
15, 245978, Control_c, 13, 11, 110
15, 246135, Control_c, 13, 11, 108
15, 246293, Control_c, 13, 11, 106
15, 246450, Control_c, 13, 11, 104
15, 246479, Note_on_c, 13, 60, 0
15, 246479, Note_on_c, 13, 48, 0
15, 246480, Note_on_c, 13, 62, 84
15, 246608, Control_c, 13, 11, 102
15, 246719, Note_on_c, 13, 62, 0
15, 246720, Note_on_c, 13, 55, 84
15, 246765, Control_c, 13, 11, 100
15, 246923, Control_c, 13, 11, 98
15, 246959, Note_on_c, 13, 55, 0
15, 246960, Note_on_c, 13, 57, 84
15, 247080, Control_c, 13, 11, 96
15, 247199, Note_on_c, 13, 57, 0
15, 247200, Note_on_c, 13, 58, 84
15, 247238, Control_c, 13, 11, 94
15, 247395, Control_c, 13, 11, 92
15, 247439, Note_on_c, 13, 58, 0
15, 247440, Note_on_c, 13, 52, 84
15, 247553, Control_c, 13, 11, 90
15, 247679, Note_on_c, 13, 52, 0
15, 247680, Note_on_c, 13, 53, 84
15, 247710, Control_c, 13, 11, 88
15, 247868, Control_c, 13, 11, 86
15, 247919, Note_on_c, 13, 53, 0
15, 247920, Note_on_c, 13, 55, 84
15, 248025, Control_c, 13, 11, 84
15, 248159, Note_on_c, 13, 55, 0
15, 248160, Note_on_c, 13, 48, 84
15, 248183, Control_c, 13, 11, 82
15, 248340, Control_c, 13, 11, 80
15, 248399, Note_on_c, 13, 48, 0
15, 248400, Note_on_c, 13, 62, 84
15, 248498, Control_c, 13, 11, 78
15, 248639, Note_on_c, 13, 62, 0
15, 248640, Note_on_c, 13, 58, 84
15, 248655, Control_c, 13, 11, 76
15, 248813, Control_c, 13, 11, 74
15, 248879, Note_on_c, 13, 58, 0
15, 248880, Note_on_c, 13, 57, 84
15, 248970, Control_c, 13, 11, 72
15, 249119, Note_on_c, 13, 57, 0
15, 249120, Note_on_c, 13, 55, 84
15, 249128, Control_c, 13, 11, 70
15, 249285, Control_c, 13, 11, 68
15, 249359, Note_on_c, 13, 55, 0
15, 249360, Note_on_c, 13, 60, 84
15, 249443, Control_c, 13, 11, 66
15, 249584, Note_on_c, 13, 60, 0
15, 249592, Control_c, 13, 11, 80
15, 249600, Note_on_c, 13, 53, 76
15, 251504, Note_on_c, 13, 53, 0
15, 251512, Control_c, 13, 11, 96
15, 251520, Note_on_c, 13, 60, 68
15, 253424, Note_on_c, 13, 60, 0
15, 253432, Control_c, 13, 11, 112
15, 253440, Note_on_c, 13, 57, 60
15, 255344, Note_on_c, 13, 57, 0
15, 255352, Control_c, 13, 11, 127
15, 255360, Note_on_c, 13, 57, 52
15, 255599, Note_on_c, 13, 57, 0
15, 256080, Note_on_c, 13, 57, 52
15, 256304, Note_on_c, 13, 57, 0
15, 256320, Note_on_c, 13, 57, 52
15, 256559, Note_on_c, 13, 57, 0
15, 257040, Note_on_c, 13, 57, 52
15, 257264, Note_on_c, 13, 57, 0
15, 257280, Note_on_c, 13, 57, 52
15, 257519, Note_on_c, 13, 57, 0
15, 258000, Note_on_c, 13, 57, 52
15, 258224, Note_on_c, 13, 57, 0
15, 258240, Note_on_c, 13, 57, 52
15, 258479, Note_on_c, 13, 57, 0
15, 258960, Note_on_c, 13, 57, 52
15, 259184, Note_on_c, 13, 57, 0
15, 259200, Note_on_c, 13, 57, 52
15, 259424, Note_on_c, 13, 57, 0
15, 259440, Note_on_c, 13, 49, 52
15, 259440, Note_on_c, 13, 52, 52
15, 259664, Note_on_c, 13, 49, 0
15, 259664, Note_on_c, 13, 52, 0
15, 259680, Note_on_c, 13, 57, 52
15, 259680, Note_on_c, 13, 52, 52
15, 259919, Note_on_c, 13, 57, 0
15, 259919, Note_on_c, 13, 52, 0
15, 260400, Note_on_c, 13, 53, 52
15, 260400, Note_on_c, 13, 50, 52
15, 260624, Note_on_c, 13, 53, 0
15, 260624, Note_on_c, 13, 50, 0
15, 260640, Note_on_c, 13, 53, 52
15, 260640, Note_on_c, 13, 57, 52
15, 260879, Note_on_c, 13, 53, 0
15, 260879, Note_on_c, 13, 57, 0
15, 261360, Note_on_c, 13, 52, 52
15, 261360, Note_on_c, 13, 55, 52
15, 261584, Note_on_c, 13, 52, 0
15, 261584, Note_on_c, 13, 55, 0
15, 261600, Note_on_c, 13, 55, 52
15, 261600, Note_on_c, 13, 57, 52
15, 261839, Note_on_c, 13, 55, 0
15, 261839, Note_on_c, 13, 57, 0
15, 262320, Note_on_c, 13, 50, 52
15, 262320, Note_on_c, 13, 53, 52
15, 262544, Note_on_c, 13, 50, 0
15, 262544, Note_on_c, 13, 53, 0
15, 262560, Note_on_c, 13, 50, 52
15, 262560, Note_on_c, 13, 53, 52
15, 262784, Note_on_c, 13, 50, 0
15, 262784, Note_on_c, 13, 53, 0
15, 262800, Note_on_c, 13, 53, 52
15, 262800, Note_on_c, 13, 50, 52
15, 263024, Note_on_c, 13, 53, 0
15, 263024, Note_on_c, 13, 50, 0
15, 263038, Control_c, 13, 11, 64
15, 263040, Note_on_c, 13, 57, 76
15, 263399, Note_on_c, 13, 57, 0
15, 263520, Note_on_c, 13, 58, 76
15, 263879, Note_on_c, 13, 58, 0
15, 264000, Note_on_c, 13, 55, 76
15, 264359, Note_on_c, 13, 55, 0
15, 264480, Note_on_c, 13, 59, 76
15, 264839, Note_on_c, 13, 59, 0
15, 264960, Note_on_c, 13, 60, 76
15, 265319, Note_on_c, 13, 60, 0
15, 265440, Note_on_c, 13, 57, 76
15, 265799, Note_on_c, 13, 57, 0
15, 265920, Control_c, 13, 11, 64
15, 265920, Note_on_c, 13, 60, 76
15, 266133, Control_c, 13, 11, 66
15, 266279, Note_on_c, 13, 60, 0
15, 266347, Control_c, 13, 11, 68
15, 266400, Note_on_c, 13, 62, 76
15, 266560, Control_c, 13, 11, 69
15, 266759, Note_on_c, 13, 62, 0
15, 266773, Control_c, 13, 11, 71
15, 266880, Note_on_c, 13, 58, 76
15, 266987, Control_c, 13, 11, 73
15, 267200, Control_c, 13, 11, 75
15, 267239, Note_on_c, 13, 58, 0
15, 267360, Note_on_c, 13, 62, 76
15, 267413, Control_c, 13, 11, 76
15, 267627, Control_c, 13, 11, 78
15, 267719, Note_on_c, 13, 62, 0
15, 267840, Note_on_c, 13, 64, 76
15, 267840, Control_c, 13, 11, 80
15, 268053, Control_c, 13, 11, 82
15, 268199, Note_on_c, 13, 64, 0
15, 268267, Control_c, 13, 11, 83
15, 268320, Note_on_c, 13, 60, 76
15, 268480, Control_c, 13, 11, 85
15, 268679, Note_on_c, 13, 60, 0
15, 268693, Control_c, 13, 11, 87
15, 268800, Note_on_c, 13, 64, 76
15, 268907, Control_c, 13, 11, 89
15, 269120, Control_c, 13, 11, 90
15, 269159, Note_on_c, 13, 64, 0
15, 269280, Note_on_c, 13, 65, 76
15, 269333, Control_c, 13, 11, 92
15, 269547, Control_c, 13, 11, 94
15, 269639, Note_on_c, 13, 65, 0
15, 269760, Note_on_c, 13, 62, 76
15, 269760, Control_c, 13, 11, 96
15, 269973, Control_c, 13, 11, 97
15, 270119, Note_on_c, 13, 62, 0
15, 270187, Control_c, 13, 11, 99
15, 270240, Note_on_c, 13, 66, 76
15, 270400, Control_c, 13, 11, 101
15, 270599, Note_on_c, 13, 66, 0
15, 270613, Control_c, 13, 11, 103
15, 270720, Note_on_c, 13, 67, 76
15, 270827, Control_c, 13, 11, 104
15, 271040, Control_c, 13, 11, 106
15, 271079, Note_on_c, 13, 67, 0
15, 271200, Note_on_c, 13, 52, 76
15, 271253, Control_c, 13, 11, 108
15, 271467, Control_c, 13, 11, 110
15, 271559, Note_on_c, 13, 52, 0
15, 271680, Control_c, 13, 11, 111
15, 271680, Note_on_c, 13, 55, 76
15, 271893, Control_c, 13, 11, 113
15, 272039, Note_on_c, 13, 55, 0
15, 272107, Control_c, 13, 11, 115
15, 272160, Note_on_c, 13, 57, 76
15, 272320, Control_c, 13, 11, 117
15, 272519, Note_on_c, 13, 57, 0
15, 272533, Control_c, 13, 11, 118
15, 272640, Note_on_c, 13, 58, 76
15, 272747, Control_c, 13, 11, 120
15, 272960, Control_c, 13, 11, 122
15, 272999, Note_on_c, 13, 58, 0
15, 273120, Note_on_c, 13, 59, 76
15, 273173, Control_c, 13, 11, 124
15, 273387, Control_c, 13, 11, 127
15, 273479, Note_on_c, 13, 59, 0
15, 273600, Note_on_c, 13, 60, 76
15, 273959, Note_on_c, 13, 60, 0
15, 274080, Note_on_c, 13, 70, 76
15, 274439, Note_on_c, 13, 70, 0
15, 274560, Note_on_c, 13, 67, 76
15, 274919, Note_on_c, 13, 67, 0
15, 275040, Note_on_c, 13, 64, 76
15, 275399, Note_on_c, 13, 64, 0
15, 275520, Note_on_c, 13, 60, 76
15, 275879, Note_on_c, 13, 60, 0
15, 276000, Note_on_c, 13, 58, 76
15, 276359, Note_on_c, 13, 58, 0
15, 276480, Note_on_c, 13, 57, 76
15, 276704, Note_on_c, 13, 57, 0
15, 276720, Note_on_c, 13, 65, 76
15, 277184, Note_on_c, 13, 65, 0
15, 277200, Note_on_c, 13, 65, 76
15, 277424, Note_on_c, 13, 65, 0
15, 277440, Note_on_c, 13, 65, 76
15, 277664, Note_on_c, 13, 65, 0
15, 277680, Note_on_c, 13, 62, 76
15, 278144, Note_on_c, 13, 62, 0
15, 278160, Note_on_c, 13, 67, 76
15, 278384, Note_on_c, 13, 67, 0
15, 278400, Note_on_c, 13, 65, 76
15, 278624, Note_on_c, 13, 65, 0
15, 278640, Note_on_c, 13, 60, 76
15, 279104, Note_on_c, 13, 60, 0
15, 279120, Note_on_c, 13, 60, 76
15, 279120, Note_on_c, 13, 65, 76
15, 279344, Note_on_c, 13, 60, 0
15, 279344, Note_on_c, 13, 65, 0
15, 279360, Note_on_c, 13, 60, 76
15, 279360, Note_on_c, 13, 64, 76
15, 279584, Note_on_c, 13, 60, 0
15, 279584, Note_on_c, 13, 64, 0
15, 279600, Note_on_c, 13, 60, 76
15, 279600, Note_on_c, 13, 64, 76
15, 279824, Note_on_c, 13, 60, 0
15, 279824, Note_on_c, 13, 64, 0
15, 279840, Note_on_c, 13, 60, 76
15, 279840, Note_on_c, 13, 64, 76
15, 280064, Note_on_c, 13, 60, 0
15, 280064, Note_on_c, 13, 64, 0
15, 280080, Note_on_c, 13, 60, 76
15, 280080, Note_on_c, 13, 64, 76
15, 280304, Note_on_c, 13, 60, 0
15, 280304, Note_on_c, 13, 64, 0
15, 280320, Note_on_c, 13, 65, 76
15, 280320, Note_on_c, 13, 60, 76
15, 280559, Note_on_c, 13, 65, 0
15, 280559, Note_on_c, 13, 60, 0
15, 280560, Note_on_c, 13, 60, 76
15, 280784, Note_on_c, 13, 60, 0
15, 280800, Note_on_c, 13, 62, 76
15, 281039, Note_on_c, 13, 62, 0
15, 281040, Note_on_c, 13, 67, 76
15, 281264, Note_on_c, 13, 67, 0
15, 281280, Note_on_c, 13, 60, 76
15, 281519, Note_on_c, 13, 60, 0
15, 281520, Note_on_c, 13, 65, 76
15, 281744, Note_on_c, 13, 65, 0
15, 281760, Note_on_c, 13, 58, 76
15, 281999, Note_on_c, 13, 58, 0
15, 282000, Note_on_c, 13, 64, 76
15, 282224, Note_on_c, 13, 64, 0
15, 282240, Note_on_c, 13, 57, 52
15, 282479, Note_on_c, 13, 57, 0
15, 283200, Note_on_c, 13, 57, 52
15, 283919, Note_on_c, 13, 57, 0
15, 283920, Note_on_c, 13, 60, 52
15, 284144, Note_on_c, 13, 60, 0
15, 284160, Note_on_c, 13, 60, 52
15, 284399, Note_on_c, 13, 60, 0
15, 285120, Note_on_c, 13, 57, 52
15, 285839, Note_on_c, 13, 57, 0
15, 285840, Note_on_c, 13, 58, 52
15, 286064, Note_on_c, 13, 58, 0
15, 286080, Note_on_c, 13, 58, 52
15, 286319, Note_on_c, 13, 58, 0
15, 287040, Note_on_c, 13, 58, 52
15, 287744, Note_on_c, 13, 58, 0
15, 287760, Note_on_c, 13, 58, 52
15, 287984, Note_on_c, 13, 58, 0
15, 288000, Note_on_c, 13, 58, 52
15, 288239, Note_on_c, 13, 58, 0
15, 288960, Note_on_c, 13, 55, 52
15, 289664, Note_on_c, 13, 55, 0
15, 289680, Note_on_c, 13, 64, 76
15, 289784, Note_on_c, 13, 64, 0
15, 289800, Note_on_c, 13, 64, 76
15, 289904, Note_on_c, 13, 64, 0
15, 289920, Note_on_c, 13, 65, 76
15, 290159, Note_on_c, 13, 65, 0
15, 290640, Note_on_c, 13, 60, 76
15, 290744, Note_on_c, 13, 60, 0
15, 290760, Note_on_c, 13, 60, 76
15, 290864, Note_on_c, 13, 60, 0
15, 290880, Note_on_c, 13, 57, 76
15, 290984, Note_on_c, 13, 57, 0
15, 291000, Note_on_c, 13, 57, 76
15, 291104, Note_on_c, 13, 57, 0
15, 291120, Note_on_c, 13, 58, 76
15, 291224, Note_on_c, 13, 58, 0
15, 291240, Note_on_c, 13, 58, 76
15, 291344, Note_on_c, 13, 58, 0
15, 291360, Note_on_c, 13, 60, 76
15, 291464, Note_on_c, 13, 60, 0
15, 291480, Note_on_c, 13, 60, 76
15, 291584, Note_on_c, 13, 60, 0
15, 291600, Note_on_c, 13, 48, 76
15, 291704, Note_on_c, 13, 48, 0
15, 291720, Note_on_c, 13, 48, 76
15, 291824, Note_on_c, 13, 48, 0
15, 291840, Note_on_c, 13, 53, 76
15, 292544, Note_on_c, 13, 53, 0
15, 292560, Note_on_c, 13, 55, 76
15, 292664, Note_on_c, 13, 55, 0
15, 292680, Note_on_c, 13, 55, 76
15, 292784, Note_on_c, 13, 55, 0
15, 292800, Note_on_c, 13, 57, 76
15, 292904, Note_on_c, 13, 57, 0
15, 292920, Note_on_c, 13, 57, 76
15, 293024, Note_on_c, 13, 57, 0
15, 293040, Note_on_c, 13, 53, 76
15, 293144, Note_on_c, 13, 53, 0
15, 293160, Note_on_c, 13, 53, 76
15, 293264, Note_on_c, 13, 53, 0
15, 293280, Note_on_c, 13, 57, 76
15, 293384, Note_on_c, 13, 57, 0
15, 293400, Note_on_c, 13, 57, 76
15, 293504, Note_on_c, 13, 57, 0
15, 293520, Note_on_c, 13, 58, 76
15, 293624, Note_on_c, 13, 58, 0
15, 293640, Note_on_c, 13, 58, 76
15, 293744, Note_on_c, 13, 58, 0
15, 293760, Note_on_c, 13, 60, 76
15, 294464, Note_on_c, 13, 60, 0
15, 294480, Note_on_c, 13, 62, 76
15, 294584, Note_on_c, 13, 62, 0
15, 294600, Note_on_c, 13, 62, 76
15, 294704, Note_on_c, 13, 62, 0
15, 294720, Note_on_c, 13, 64, 76
15, 294824, Note_on_c, 13, 64, 0
15, 294840, Note_on_c, 13, 64, 76
15, 294944, Note_on_c, 13, 64, 0
15, 294960, Note_on_c, 13, 65, 76
15, 295064, Note_on_c, 13, 65, 0
15, 295080, Note_on_c, 13, 65, 76
15, 295184, Note_on_c, 13, 65, 0
15, 295200, Note_on_c, 13, 67, 76
15, 295304, Note_on_c, 13, 67, 0
15, 295320, Note_on_c, 13, 67, 76
15, 295424, Note_on_c, 13, 67, 0
15, 295440, Note_on_c, 13, 65, 76
15, 295544, Note_on_c, 13, 65, 0
15, 295560, Note_on_c, 13, 65, 76
15, 295664, Note_on_c, 13, 65, 0
15, 295680, Note_on_c, 13, 64, 76
15, 296384, Note_on_c, 13, 64, 0
15, 296400, Note_on_c, 13, 62, 76
15, 296504, Note_on_c, 13, 62, 0
15, 296520, Note_on_c, 13, 62, 76
15, 296624, Note_on_c, 13, 62, 0
15, 296640, Note_on_c, 13, 60, 76
15, 296744, Note_on_c, 13, 60, 0
15, 296760, Note_on_c, 13, 60, 76
15, 296864, Note_on_c, 13, 60, 0
15, 296880, Note_on_c, 13, 62, 76
15, 296984, Note_on_c, 13, 62, 0
15, 297000, Note_on_c, 13, 62, 76
15, 297104, Note_on_c, 13, 62, 0
15, 297120, Note_on_c, 13, 58, 76
15, 297224, Note_on_c, 13, 58, 0
15, 297240, Note_on_c, 13, 58, 76
15, 297344, Note_on_c, 13, 58, 0
15, 297360, Note_on_c, 13, 55, 76
15, 297464, Note_on_c, 13, 55, 0
15, 297480, Note_on_c, 13, 55, 76
15, 297584, Note_on_c, 13, 55, 0
15, 297600, Note_on_c, 13, 52, 76
15, 297839, Note_on_c, 13, 52, 0
15, 298800, Note_on_c, 13, 74, 52
15, 299039, Note_on_c, 13, 74, 0
15, 299040, Note_on_c, 13, 70, 52
15, 299279, Note_on_c, 13, 70, 0
15, 299280, Note_on_c, 13, 67, 52
15, 299504, Note_on_c, 13, 67, 0
15, 299520, Note_on_c, 13, 64, 44
15, 299624, Note_on_c, 13, 64, 0
15, 299640, Note_on_c, 13, 64, 44
15, 299744, Note_on_c, 13, 64, 0
15, 299760, Note_on_c, 13, 64, 44
15, 299864, Note_on_c, 13, 64, 0
15, 299880, Note_on_c, 13, 64, 44
15, 299984, Note_on_c, 13, 64, 0
15, 300000, Note_on_c, 13, 64, 44
15, 300104, Note_on_c, 13, 64, 0
15, 300120, Note_on_c, 13, 64, 44
15, 300224, Note_on_c, 13, 64, 0
15, 300240, Note_on_c, 13, 64, 44
15, 300344, Note_on_c, 13, 64, 0
15, 300360, Note_on_c, 13, 64, 44
15, 300464, Note_on_c, 13, 64, 0
15, 300480, Note_on_c, 13, 64, 44
15, 300584, Note_on_c, 13, 64, 0
15, 300600, Note_on_c, 13, 64, 44
15, 300704, Note_on_c, 13, 64, 0
15, 300720, Note_on_c, 13, 64, 44
15, 300824, Note_on_c, 13, 64, 0
15, 300840, Note_on_c, 13, 64, 44
15, 300944, Note_on_c, 13, 64, 0
15, 300960, Note_on_c, 13, 64, 44
15, 301064, Note_on_c, 13, 64, 0
15, 301080, Note_on_c, 13, 64, 44
15, 301184, Note_on_c, 13, 64, 0
15, 301200, Note_on_c, 13, 64, 44
15, 301304, Note_on_c, 13, 64, 0
15, 301320, Note_on_c, 13, 64, 44
15, 301424, Note_on_c, 13, 64, 0
15, 301440, Note_on_c, 13, 65, 84
15, 301679, Note_on_c, 13, 65, 0
15, 302160, Note_on_c, 13, 62, 84
15, 302384, Note_on_c, 13, 62, 0
15, 302400, Note_on_c, 13, 58, 84
15, 302639, Note_on_c, 13, 58, 0
15, 302880, Note_on_c, 13, 60, 84
15, 302880, Note_on_c, 13, 48, 84
15, 303119, Note_on_c, 13, 60, 0
15, 303119, Note_on_c, 13, 48, 0
15, 303360, Note_on_c, 13, 64, 44
15, 303464, Note_on_c, 13, 64, 0
15, 303480, Note_on_c, 13, 64, 44
15, 303584, Note_on_c, 13, 64, 0
15, 303600, Note_on_c, 13, 64, 44
15, 303704, Note_on_c, 13, 64, 0
15, 303720, Note_on_c, 13, 64, 44
15, 303824, Note_on_c, 13, 64, 0
15, 303840, Note_on_c, 13, 64, 44
15, 303944, Note_on_c, 13, 64, 0
15, 303960, Note_on_c, 13, 64, 44
15, 304064, Note_on_c, 13, 64, 0
15, 304080, Note_on_c, 13, 64, 44
15, 304184, Note_on_c, 13, 64, 0
15, 304200, Note_on_c, 13, 64, 44
15, 304304, Note_on_c, 13, 64, 0
15, 304320, Note_on_c, 13, 64, 44
15, 304424, Note_on_c, 13, 64, 0
15, 304440, Note_on_c, 13, 64, 44
15, 304544, Note_on_c, 13, 64, 0
15, 304560, Note_on_c, 13, 64, 44
15, 304664, Note_on_c, 13, 64, 0
15, 304680, Note_on_c, 13, 64, 44
15, 304784, Note_on_c, 13, 64, 0
15, 304800, Note_on_c, 13, 64, 44
15, 304904, Note_on_c, 13, 64, 0
15, 304920, Note_on_c, 13, 64, 44
15, 305024, Note_on_c, 13, 64, 0
15, 305040, Note_on_c, 13, 64, 44
15, 305144, Note_on_c, 13, 64, 0
15, 305160, Note_on_c, 13, 64, 44
15, 305264, Note_on_c, 13, 64, 0
15, 305280, Note_on_c, 13, 65, 84
15, 305519, Note_on_c, 13, 65, 0
15, 306000, Note_on_c, 13, 62, 84
15, 306224, Note_on_c, 13, 62, 0
15, 306240, Note_on_c, 13, 58, 84
15, 306479, Note_on_c, 13, 58, 0
15, 306720, Note_on_c, 13, 60, 84
15, 306959, Note_on_c, 13, 60, 0
15, 307200, Note_on_c, 13, 59, 44
15, 307304, Note_on_c, 13, 59, 0
15, 307320, Note_on_c, 13, 59, 46
15, 307424, Note_on_c, 13, 59, 0
15, 307440, Note_on_c, 13, 59, 48
15, 307544, Note_on_c, 13, 59, 0
15, 307560, Note_on_c, 13, 59, 50
15, 307664, Note_on_c, 13, 59, 0
15, 307680, Note_on_c, 13, 59, 52
15, 307784, Note_on_c, 13, 59, 0
15, 307800, Note_on_c, 13, 59, 54
15, 307904, Note_on_c, 13, 59, 0
15, 307920, Note_on_c, 13, 59, 56
15, 308024, Note_on_c, 13, 59, 0
15, 308040, Note_on_c, 13, 59, 58
15, 308144, Note_on_c, 13, 59, 0
15, 308160, Note_on_c, 13, 59, 60
15, 308264, Note_on_c, 13, 59, 0
15, 308280, Note_on_c, 13, 59, 62
15, 308384, Note_on_c, 13, 59, 0
15, 308400, Note_on_c, 13, 59, 64
15, 308504, Note_on_c, 13, 59, 0
15, 308520, Note_on_c, 13, 59, 66
15, 308624, Note_on_c, 13, 59, 0
15, 308640, Note_on_c, 13, 59, 68
15, 308744, Note_on_c, 13, 59, 0
15, 308760, Note_on_c, 13, 59, 70
15, 308864, Note_on_c, 13, 59, 0
15, 308880, Note_on_c, 13, 59, 72
15, 308984, Note_on_c, 13, 59, 0
15, 309000, Note_on_c, 13, 59, 74
15, 309104, Note_on_c, 13, 59, 0
15, 309120, Note_on_c, 13, 59, 76
15, 309224, Note_on_c, 13, 59, 0
15, 309240, Note_on_c, 13, 59, 76
15, 309344, Note_on_c, 13, 59, 0
15, 309360, Note_on_c, 13, 59, 76
15, 309464, Note_on_c, 13, 59, 0
15, 309480, Note_on_c, 13, 59, 76
15, 309584, Note_on_c, 13, 59, 0
15, 309600, Note_on_c, 13, 59, 76
15, 309704, Note_on_c, 13, 59, 0
15, 309720, Note_on_c, 13, 59, 76
15, 309824, Note_on_c, 13, 59, 0
15, 309840, Note_on_c, 13, 59, 76
15, 309944, Note_on_c, 13, 59, 0
15, 309960, Note_on_c, 13, 59, 76
15, 310064, Note_on_c, 13, 59, 0
15, 310080, Note_on_c, 13, 60, 76
15, 310184, Note_on_c, 13, 60, 0
15, 310200, Note_on_c, 13, 60, 76
15, 310304, Note_on_c, 13, 60, 0
15, 310320, Note_on_c, 13, 60, 76
15, 310424, Note_on_c, 13, 60, 0
15, 310440, Note_on_c, 13, 60, 76
15, 310544, Note_on_c, 13, 60, 0
15, 310560, Note_on_c, 13, 60, 76
15, 310664, Note_on_c, 13, 60, 0
15, 310680, Note_on_c, 13, 60, 76
15, 310784, Note_on_c, 13, 60, 0
15, 310800, Note_on_c, 13, 60, 76
15, 310904, Note_on_c, 13, 60, 0
15, 310920, Note_on_c, 13, 60, 76
15, 311024, Note_on_c, 13, 60, 0
15, 311040, Note_on_c, 13, 62, 76
15, 311144, Note_on_c, 13, 62, 0
15, 311160, Note_on_c, 13, 62, 76
15, 311264, Note_on_c, 13, 62, 0
15, 311280, Note_on_c, 13, 62, 76
15, 311384, Note_on_c, 13, 62, 0
15, 311400, Note_on_c, 13, 62, 76
15, 311504, Note_on_c, 13, 62, 0
15, 311520, Note_on_c, 13, 62, 76
15, 311624, Note_on_c, 13, 62, 0
15, 311640, Note_on_c, 13, 62, 76
15, 311744, Note_on_c, 13, 62, 0
15, 311760, Note_on_c, 13, 62, 76
15, 311864, Note_on_c, 13, 62, 0
15, 311880, Note_on_c, 13, 62, 76
15, 311984, Note_on_c, 13, 62, 0
15, 312000, Note_on_c, 13, 64, 76
15, 312104, Note_on_c, 13, 64, 0
15, 312120, Note_on_c, 13, 64, 76
15, 312224, Note_on_c, 13, 64, 0
15, 312240, Note_on_c, 13, 64, 76
15, 312344, Note_on_c, 13, 64, 0
15, 312360, Note_on_c, 13, 64, 76
15, 312464, Note_on_c, 13, 64, 0
15, 312480, Note_on_c, 13, 64, 76
15, 312584, Note_on_c, 13, 64, 0
15, 312600, Note_on_c, 13, 64, 76
15, 312704, Note_on_c, 13, 64, 0
15, 312720, Note_on_c, 13, 64, 76
15, 312824, Note_on_c, 13, 64, 0
15, 312840, Note_on_c, 13, 64, 76
15, 312944, Note_on_c, 13, 64, 0
15, 312960, Note_on_c, 13, 65, 84
15, 313064, Note_on_c, 13, 65, 0
15, 313080, Note_on_c, 13, 61, 84
15, 313184, Note_on_c, 13, 61, 0
15, 313200, Note_on_c, 13, 61, 84
15, 313304, Note_on_c, 13, 61, 0
15, 313320, Note_on_c, 13, 61, 84
15, 313424, Note_on_c, 13, 61, 0
15, 313440, Note_on_c, 13, 61, 84
15, 313544, Note_on_c, 13, 61, 0
15, 313560, Note_on_c, 13, 61, 84
15, 313664, Note_on_c, 13, 61, 0
15, 313680, Note_on_c, 13, 61, 84
15, 313784, Note_on_c, 13, 61, 0
15, 313800, Note_on_c, 13, 61, 84
15, 313904, Note_on_c, 13, 61, 0
15, 313920, Note_on_c, 13, 61, 84
15, 314024, Note_on_c, 13, 61, 0
15, 314040, Note_on_c, 13, 61, 84
15, 314144, Note_on_c, 13, 61, 0
15, 314160, Note_on_c, 13, 61, 84
15, 314264, Note_on_c, 13, 61, 0
15, 314280, Note_on_c, 13, 61, 84
15, 314384, Note_on_c, 13, 61, 0
15, 314400, Note_on_c, 13, 61, 84
15, 314504, Note_on_c, 13, 61, 0
15, 314520, Note_on_c, 13, 61, 84
15, 314624, Note_on_c, 13, 61, 0
15, 314640, Note_on_c, 13, 61, 84
15, 314744, Note_on_c, 13, 61, 0
15, 314760, Note_on_c, 13, 61, 84
15, 314864, Note_on_c, 13, 61, 0
15, 314880, Note_on_c, 13, 60, 84
15, 314984, Note_on_c, 13, 60, 0
15, 315000, Note_on_c, 13, 60, 84
15, 315104, Note_on_c, 13, 60, 0
15, 315120, Note_on_c, 13, 60, 84
15, 315224, Note_on_c, 13, 60, 0
15, 315240, Note_on_c, 13, 60, 84
15, 315344, Note_on_c, 13, 60, 0
15, 315360, Note_on_c, 13, 60, 84
15, 315464, Note_on_c, 13, 60, 0
15, 315480, Note_on_c, 13, 60, 84
15, 315584, Note_on_c, 13, 60, 0
15, 315600, Note_on_c, 13, 60, 84
15, 315704, Note_on_c, 13, 60, 0
15, 315720, Note_on_c, 13, 60, 84
15, 315824, Note_on_c, 13, 60, 0
15, 315840, Note_on_c, 13, 48, 84
15, 315840, Note_on_c, 13, 58, 84
15, 315944, Note_on_c, 13, 48, 0
15, 315944, Note_on_c, 13, 58, 0
15, 315960, Note_on_c, 13, 48, 84
15, 315960, Note_on_c, 13, 58, 84
15, 316064, Note_on_c, 13, 48, 0
15, 316064, Note_on_c, 13, 58, 0
15, 316080, Note_on_c, 13, 58, 84
15, 316080, Note_on_c, 13, 48, 84
15, 316184, Note_on_c, 13, 58, 0
15, 316184, Note_on_c, 13, 48, 0
15, 316200, Note_on_c, 13, 58, 84
15, 316200, Note_on_c, 13, 48, 84
15, 316304, Note_on_c, 13, 58, 0
15, 316304, Note_on_c, 13, 48, 0
15, 316320, Note_on_c, 13, 48, 84
15, 316320, Note_on_c, 13, 58, 84
15, 316424, Note_on_c, 13, 48, 0
15, 316424, Note_on_c, 13, 58, 0
15, 316440, Note_on_c, 13, 48, 84
15, 316440, Note_on_c, 13, 58, 84
15, 316544, Note_on_c, 13, 48, 0
15, 316544, Note_on_c, 13, 58, 0
15, 316560, Note_on_c, 13, 48, 84
15, 316560, Note_on_c, 13, 58, 84
15, 316664, Note_on_c, 13, 48, 0
15, 316664, Note_on_c, 13, 58, 0
15, 316680, Note_on_c, 13, 48, 84
15, 316680, Note_on_c, 13, 58, 84
15, 316784, Note_on_c, 13, 48, 0
15, 316784, Note_on_c, 13, 58, 0
15, 316800, Note_on_c, 13, 53, 76
15, 316800, Note_on_c, 13, 57, 76
15, 316904, Note_on_c, 13, 53, 0
15, 316904, Note_on_c, 13, 57, 0
15, 316920, Note_on_c, 13, 60, 76
15, 316920, Note_on_c, 13, 57, 76
15, 317024, Note_on_c, 13, 60, 0
15, 317024, Note_on_c, 13, 57, 0
15, 317040, Note_on_c, 13, 60, 76
15, 317040, Note_on_c, 13, 57, 76
15, 317144, Note_on_c, 13, 60, 0
15, 317144, Note_on_c, 13, 57, 0
15, 317160, Note_on_c, 13, 57, 76
15, 317160, Note_on_c, 13, 60, 76
15, 317264, Note_on_c, 13, 57, 0
15, 317264, Note_on_c, 13, 60, 0
15, 317280, Note_on_c, 13, 53, 76
15, 317280, Note_on_c, 13, 57, 76
15, 317384, Note_on_c, 13, 53, 0
15, 317384, Note_on_c, 13, 57, 0
15, 317400, Note_on_c, 13, 57, 76
15, 317400, Note_on_c, 13, 60, 76
15, 317504, Note_on_c, 13, 57, 0
15, 317504, Note_on_c, 13, 60, 0
15, 317520, Note_on_c, 13, 57, 76
15, 317520, Note_on_c, 13, 60, 76
15, 317624, Note_on_c, 13, 57, 0
15, 317624, Note_on_c, 13, 60, 0
15, 317640, Note_on_c, 13, 57, 76
15, 317640, Note_on_c, 13, 60, 76
15, 317744, Note_on_c, 13, 57, 0
15, 317744, Note_on_c, 13, 60, 0
15, 317760, Note_on_c, 13, 57, 76
15, 317760, Note_on_c, 13, 53, 76
15, 317864, Note_on_c, 13, 57, 0
15, 317864, Note_on_c, 13, 53, 0
15, 317880, Note_on_c, 13, 60, 76
15, 317880, Note_on_c, 13, 57, 76
15, 317984, Note_on_c, 13, 60, 0
15, 317984, Note_on_c, 13, 57, 0
15, 318000, Note_on_c, 13, 60, 76
15, 318000, Note_on_c, 13, 57, 76
15, 318104, Note_on_c, 13, 60, 0
15, 318104, Note_on_c, 13, 57, 0
15, 318120, Note_on_c, 13, 57, 76
15, 318120, Note_on_c, 13, 60, 76
15, 318224, Note_on_c, 13, 57, 0
15, 318224, Note_on_c, 13, 60, 0
15, 318240, Note_on_c, 13, 57, 76
15, 318240, Note_on_c, 13, 53, 76
15, 318344, Note_on_c, 13, 57, 0
15, 318344, Note_on_c, 13, 53, 0
15, 318360, Note_on_c, 13, 57, 76
15, 318360, Note_on_c, 13, 60, 76
15, 318464, Note_on_c, 13, 57, 0
15, 318464, Note_on_c, 13, 60, 0
15, 318480, Note_on_c, 13, 57, 76
15, 318480, Note_on_c, 13, 60, 76
15, 318584, Note_on_c, 13, 57, 0
15, 318584, Note_on_c, 13, 60, 0
15, 318600, Note_on_c, 13, 60, 76
15, 318600, Note_on_c, 13, 57, 76
15, 318704, Note_on_c, 13, 60, 0
15, 318704, Note_on_c, 13, 57, 0
15, 318720, Note_on_c, 13, 57, 76
15, 318720, Note_on_c, 13, 53, 76
15, 318824, Note_on_c, 13, 57, 0
15, 318824, Note_on_c, 13, 53, 0
15, 318840, Note_on_c, 13, 57, 76
15, 318840, Note_on_c, 13, 60, 76
15, 318944, Note_on_c, 13, 57, 0
15, 318944, Note_on_c, 13, 60, 0
15, 318960, Note_on_c, 13, 57, 76
15, 318960, Note_on_c, 13, 60, 76
15, 319064, Note_on_c, 13, 57, 0
15, 319064, Note_on_c, 13, 60, 0
15, 319080, Note_on_c, 13, 57, 76
15, 319080, Note_on_c, 13, 60, 76
15, 319184, Note_on_c, 13, 57, 0
15, 319184, Note_on_c, 13, 60, 0
15, 319200, Note_on_c, 13, 53, 76
15, 319200, Note_on_c, 13, 57, 76
15, 319304, Note_on_c, 13, 53, 0
15, 319304, Note_on_c, 13, 57, 0
15, 319320, Note_on_c, 13, 57, 76
15, 319320, Note_on_c, 13, 60, 76
15, 319424, Note_on_c, 13, 57, 0
15, 319424, Note_on_c, 13, 60, 0
15, 319440, Note_on_c, 13, 60, 76
15, 319440, Note_on_c, 13, 57, 76
15, 319544, Note_on_c, 13, 60, 0
15, 319544, Note_on_c, 13, 57, 0
15, 319560, Note_on_c, 13, 57, 76
15, 319560, Note_on_c, 13, 60, 76
15, 319664, Note_on_c, 13, 57, 0
15, 319664, Note_on_c, 13, 60, 0
15, 319680, Note_on_c, 13, 57, 76
15, 319680, Note_on_c, 13, 53, 76
15, 319784, Note_on_c, 13, 57, 0
15, 319784, Note_on_c, 13, 53, 0
15, 319800, Note_on_c, 13, 53, 76
15, 319800, Note_on_c, 13, 57, 76
15, 319904, Note_on_c, 13, 53, 0
15, 319904, Note_on_c, 13, 57, 0
15, 319920, Note_on_c, 13, 55, 76
15, 319920, Note_on_c, 13, 58, 76
15, 320024, Note_on_c, 13, 55, 0
15, 320024, Note_on_c, 13, 58, 0
15, 320040, Note_on_c, 13, 58, 76
15, 320040, Note_on_c, 13, 55, 76
15, 320144, Note_on_c, 13, 58, 0
15, 320144, Note_on_c, 13, 55, 0
15, 320160, Note_on_c, 13, 55, 76
15, 320160, Note_on_c, 13, 52, 76
15, 320264, Note_on_c, 13, 55, 0
15, 320264, Note_on_c, 13, 52, 0
15, 320280, Note_on_c, 13, 52, 76
15, 320280, Note_on_c, 13, 55, 76
15, 320384, Note_on_c, 13, 52, 0
15, 320384, Note_on_c, 13, 55, 0
15, 320400, Note_on_c, 13, 55, 76
15, 320400, Note_on_c, 13, 58, 76
15, 320504, Note_on_c, 13, 55, 0
15, 320504, Note_on_c, 13, 58, 0
15, 320520, Note_on_c, 13, 55, 76
15, 320520, Note_on_c, 13, 58, 76
15, 320624, Note_on_c, 13, 55, 0
15, 320624, Note_on_c, 13, 58, 0
15, 320640, Note_on_c, 13, 53, 76
15, 320640, Note_on_c, 13, 57, 76
15, 320744, Note_on_c, 13, 53, 0
15, 320744, Note_on_c, 13, 57, 0
15, 320760, Note_on_c, 13, 60, 76
15, 320760, Note_on_c, 13, 57, 76
15, 320864, Note_on_c, 13, 60, 0
15, 320864, Note_on_c, 13, 57, 0
15, 320880, Note_on_c, 13, 57, 76
15, 320880, Note_on_c, 13, 60, 76
15, 320984, Note_on_c, 13, 57, 0
15, 320984, Note_on_c, 13, 60, 0
15, 321000, Note_on_c, 13, 57, 76
15, 321000, Note_on_c, 13, 60, 76
15, 321104, Note_on_c, 13, 57, 0
15, 321104, Note_on_c, 13, 60, 0
15, 321120, Note_on_c, 13, 53, 76
15, 321120, Note_on_c, 13, 57, 76
15, 321224, Note_on_c, 13, 53, 0
15, 321224, Note_on_c, 13, 57, 0
15, 321240, Note_on_c, 13, 60, 76
15, 321240, Note_on_c, 13, 57, 76
15, 321344, Note_on_c, 13, 60, 0
15, 321344, Note_on_c, 13, 57, 0
15, 321360, Note_on_c, 13, 57, 76
15, 321360, Note_on_c, 13, 60, 76
15, 321464, Note_on_c, 13, 57, 0
15, 321464, Note_on_c, 13, 60, 0
15, 321480, Note_on_c, 13, 57, 76
15, 321480, Note_on_c, 13, 60, 76
15, 321584, Note_on_c, 13, 57, 0
15, 321584, Note_on_c, 13, 60, 0
15, 321600, Note_on_c, 13, 53, 76
15, 321600, Note_on_c, 13, 57, 76
15, 321704, Note_on_c, 13, 53, 0
15, 321704, Note_on_c, 13, 57, 0
15, 321720, Note_on_c, 13, 57, 76
15, 321720, Note_on_c, 13, 60, 76
15, 321824, Note_on_c, 13, 57, 0
15, 321824, Note_on_c, 13, 60, 0
15, 321840, Note_on_c, 13, 60, 76
15, 321840, Note_on_c, 13, 57, 76
15, 321944, Note_on_c, 13, 60, 0
15, 321944, Note_on_c, 13, 57, 0
15, 321960, Note_on_c, 13, 57, 76
15, 321960, Note_on_c, 13, 60, 76
15, 322064, Note_on_c, 13, 57, 0
15, 322064, Note_on_c, 13, 60, 0
15, 322080, Note_on_c, 13, 57, 76
15, 322080, Note_on_c, 13, 53, 76
15, 322184, Note_on_c, 13, 57, 0
15, 322184, Note_on_c, 13, 53, 0
15, 322200, Note_on_c, 13, 60, 76
15, 322200, Note_on_c, 13, 57, 76
15, 322304, Note_on_c, 13, 60, 0
15, 322304, Note_on_c, 13, 57, 0
15, 322320, Note_on_c, 13, 57, 76
15, 322320, Note_on_c, 13, 60, 76
15, 322424, Note_on_c, 13, 57, 0
15, 322424, Note_on_c, 13, 60, 0
15, 322440, Note_on_c, 13, 57, 76
15, 322440, Note_on_c, 13, 60, 76
15, 322544, Note_on_c, 13, 57, 0
15, 322544, Note_on_c, 13, 60, 0
15, 322560, Note_on_c, 13, 57, 76
15, 322560, Note_on_c, 13, 53, 76
15, 322664, Note_on_c, 13, 57, 0
15, 322664, Note_on_c, 13, 53, 0
15, 322680, Note_on_c, 13, 60, 76
15, 322680, Note_on_c, 13, 57, 76
15, 322784, Note_on_c, 13, 60, 0
15, 322784, Note_on_c, 13, 57, 0
15, 322800, Note_on_c, 13, 57, 76
15, 322800, Note_on_c, 13, 60, 76
15, 322904, Note_on_c, 13, 57, 0
15, 322904, Note_on_c, 13, 60, 0
15, 322920, Note_on_c, 13, 60, 76
15, 322920, Note_on_c, 13, 57, 76
15, 323024, Note_on_c, 13, 60, 0
15, 323024, Note_on_c, 13, 57, 0
15, 323040, Note_on_c, 13, 53, 76
15, 323040, Note_on_c, 13, 57, 76
15, 323144, Note_on_c, 13, 53, 0
15, 323144, Note_on_c, 13, 57, 0
15, 323160, Note_on_c, 13, 60, 76
15, 323160, Note_on_c, 13, 57, 76
15, 323264, Note_on_c, 13, 60, 0
15, 323264, Note_on_c, 13, 57, 0
15, 323280, Note_on_c, 13, 60, 76
15, 323280, Note_on_c, 13, 57, 76
15, 323384, Note_on_c, 13, 60, 0
15, 323384, Note_on_c, 13, 57, 0
15, 323400, Note_on_c, 13, 57, 76
15, 323400, Note_on_c, 13, 60, 76
15, 323504, Note_on_c, 13, 57, 0
15, 323504, Note_on_c, 13, 60, 0
15, 323520, Note_on_c, 13, 57, 76
15, 323520, Note_on_c, 13, 53, 76
15, 323624, Note_on_c, 13, 57, 0
15, 323624, Note_on_c, 13, 53, 0
15, 323640, Note_on_c, 13, 53, 76
15, 323640, Note_on_c, 13, 57, 76
15, 323744, Note_on_c, 13, 53, 0
15, 323744, Note_on_c, 13, 57, 0
15, 323760, Note_on_c, 13, 58, 76
15, 323760, Note_on_c, 13, 55, 76
15, 323864, Note_on_c, 13, 58, 0
15, 323864, Note_on_c, 13, 55, 0
15, 323880, Note_on_c, 13, 58, 76
15, 323880, Note_on_c, 13, 55, 76
15, 323984, Note_on_c, 13, 58, 0
15, 323984, Note_on_c, 13, 55, 0
15, 324000, Note_on_c, 13, 55, 76
15, 324000, Note_on_c, 13, 52, 76
15, 324104, Note_on_c, 13, 55, 0
15, 324104, Note_on_c, 13, 52, 0
15, 324120, Note_on_c, 13, 52, 76
15, 324120, Note_on_c, 13, 55, 76
15, 324224, Note_on_c, 13, 52, 0
15, 324224, Note_on_c, 13, 55, 0
15, 324240, Note_on_c, 13, 58, 76
15, 324240, Note_on_c, 13, 55, 76
15, 324344, Note_on_c, 13, 58, 0
15, 324344, Note_on_c, 13, 55, 0
15, 324360, Note_on_c, 13, 58, 76
15, 324360, Note_on_c, 13, 55, 76
15, 324464, Note_on_c, 13, 58, 0
15, 324464, Note_on_c, 13, 55, 0
15, 324480, Note_on_c, 13, 57, 76
15, 324704, Note_on_c, 13, 57, 0
15, 324720, Note_on_c, 13, 52, 76
15, 325184, Note_on_c, 13, 52, 0
15, 325200, Note_on_c, 13, 53, 76
15, 325664, Note_on_c, 13, 53, 0
15, 325680, Note_on_c, 13, 55, 76
15, 326144, Note_on_c, 13, 55, 0
15, 326160, Note_on_c, 13, 57, 76
15, 326639, Note_on_c, 13, 57, 0
15, 329280, Note_on_c, 13, 57, 76
15, 329399, Note_on_c, 13, 57, 0
15, 329520, Note_on_c, 13, 60, 76
15, 329639, Note_on_c, 13, 60, 0
15, 329760, Note_on_c, 13, 53, 76
15, 329879, Note_on_c, 13, 53, 0
15, 330000, Note_on_c, 13, 57, 76
15, 330119, Note_on_c, 13, 57, 0
15, 330240, Note_on_c, 13, 48, 76
15, 330479, Note_on_c, 13, 48, 0
15, 333120, Note_on_c, 13, 55, 76
15, 333239, Note_on_c, 13, 55, 0
15, 333360, Note_on_c, 13, 58, 76
15, 333479, Note_on_c, 13, 58, 0
15, 333600, Note_on_c, 13, 52, 76
15, 333719, Note_on_c, 13, 52, 0
15, 333840, Note_on_c, 13, 60, 76
15, 333959, Note_on_c, 13, 60, 0
15, 334080, Note_on_c, 13, 60, 76
15, 334319, Note_on_c, 13, 60, 0
15, 335040, Note_on_c, 13, 57, 76
15, 335159, Note_on_c, 13, 57, 0
15, 335280, Note_on_c, 13, 60, 76
15, 335399, Note_on_c, 13, 60, 0
15, 335520, Note_on_c, 13, 53, 76
15, 335639, Note_on_c, 13, 53, 0
15, 335760, Note_on_c, 13, 57, 76
15, 335879, Note_on_c, 13, 57, 0
15, 336960, Note_on_c, 13, 55, 76
15, 337079, Note_on_c, 13, 55, 0
15, 337200, Note_on_c, 13, 58, 76
15, 337319, Note_on_c, 13, 58, 0
15, 337440, Note_on_c, 13, 50, 76
15, 337559, Note_on_c, 13, 50, 0
15, 337680, Note_on_c, 13, 55, 76
15, 337799, Note_on_c, 13, 55, 0
15, 338880, Note_on_c, 13, 53, 76
15, 338999, Note_on_c, 13, 53, 0
15, 339120, Note_on_c, 13, 57, 76
15, 339239, Note_on_c, 13, 57, 0
15, 339360, Note_on_c, 13, 48, 76
15, 339479, Note_on_c, 13, 48, 0
15, 339600, Note_on_c, 13, 53, 76
15, 339719, Note_on_c, 13, 53, 0
15, 340800, Note_on_c, 13, 60, 76
15, 340919, Note_on_c, 13, 60, 0
15, 341040, Note_on_c, 13, 64, 76
15, 341159, Note_on_c, 13, 64, 0
15, 341280, Note_on_c, 13, 55, 76
15, 341399, Note_on_c, 13, 55, 0
15, 341520, Note_on_c, 13, 60, 76
15, 341639, Note_on_c, 13, 60, 0
15, 341760, Control_c, 13, 11, 127
15, 341760, Note_on_c, 13, 52, 52
15, 341872, Control_c, 13, 11, 126
15, 341984, Control_c, 13, 11, 125
15, 342096, Control_c, 13, 11, 124
15, 342208, Control_c, 13, 11, 123
15, 342320, Control_c, 13, 11, 122
15, 342432, Control_c, 13, 11, 121
15, 342544, Control_c, 13, 11, 120
15, 342656, Control_c, 13, 11, 119
15, 342719, Note_on_c, 13, 52, 0
15, 342720, Note_on_c, 13, 52, 52
15, 342768, Control_c, 13, 11, 118
15, 342880, Control_c, 13, 11, 117
15, 342992, Control_c, 13, 11, 116
15, 343104, Control_c, 13, 11, 115
15, 343216, Control_c, 13, 11, 114
15, 343328, Control_c, 13, 11, 112
15, 343439, Note_on_c, 13, 52, 0
15, 353280, Control_c, 13, 11, 64
15, 353440, Control_c, 13, 11, 69
15, 353520, Note_on_c, 13, 55, 76
15, 353600, Control_c, 13, 11, 75
15, 353699, Note_on_c, 13, 55, 0
15, 353760, Note_on_c, 13, 52, 76
15, 353760, Control_c, 13, 11, 80
15, 353920, Control_c, 13, 11, 85
15, 353939, Note_on_c, 13, 52, 0
15, 354000, Note_on_c, 13, 55, 76
15, 354080, Control_c, 13, 11, 90
15, 354179, Note_on_c, 13, 55, 0
15, 354240, Note_on_c, 13, 52, 76
15, 354240, Control_c, 13, 11, 96
15, 354400, Control_c, 13, 11, 101
15, 354419, Note_on_c, 13, 52, 0
15, 354480, Note_on_c, 13, 55, 76
15, 354560, Control_c, 13, 11, 106
15, 354659, Note_on_c, 13, 55, 0
15, 354720, Note_on_c, 13, 52, 76
15, 354720, Control_c, 13, 11, 111
15, 354880, Control_c, 13, 11, 117
15, 354899, Note_on_c, 13, 52, 0
15, 354960, Note_on_c, 13, 54, 76
15, 355040, Control_c, 13, 11, 122
15, 355120, Control_c, 13, 11, 127
15, 355139, Note_on_c, 13, 54, 0
15, 355200, Note_on_c, 13, 50, 76
15, 355304, Note_on_c, 13, 50, 0
15, 355320, Note_on_c, 13, 62, 52
15, 355424, Note_on_c, 13, 62, 0
15, 355440, Note_on_c, 13, 62, 52
15, 355544, Note_on_c, 13, 62, 0
15, 355560, Note_on_c, 13, 62, 52
15, 355664, Note_on_c, 13, 62, 0
15, 355680, Note_on_c, 13, 62, 52
15, 355784, Note_on_c, 13, 62, 0
15, 355800, Note_on_c, 13, 62, 52
15, 355904, Note_on_c, 13, 62, 0
15, 355920, Note_on_c, 13, 62, 52
15, 356024, Note_on_c, 13, 62, 0
15, 356040, Note_on_c, 13, 62, 52
15, 356144, Note_on_c, 13, 62, 0
15, 356160, Note_on_c, 13, 62, 52
15, 356264, Note_on_c, 13, 62, 0
15, 356280, Note_on_c, 13, 62, 52
15, 356384, Note_on_c, 13, 62, 0
15, 356400, Note_on_c, 13, 62, 52
15, 356504, Note_on_c, 13, 62, 0
15, 356520, Note_on_c, 13, 62, 52
15, 356624, Note_on_c, 13, 62, 0
15, 356640, Note_on_c, 13, 62, 52
15, 356744, Note_on_c, 13, 62, 0
15, 356760, Note_on_c, 13, 62, 52
15, 356864, Note_on_c, 13, 62, 0
15, 356880, Note_on_c, 13, 62, 52
15, 356984, Note_on_c, 13, 62, 0
15, 357000, Note_on_c, 13, 62, 52
15, 357104, Note_on_c, 13, 62, 0
15, 357120, Note_on_c, 13, 62, 52
15, 357224, Note_on_c, 13, 62, 0
15, 357240, Note_on_c, 13, 62, 52
15, 357344, Note_on_c, 13, 62, 0
15, 357360, Note_on_c, 13, 62, 52
15, 357464, Note_on_c, 13, 62, 0
15, 357480, Note_on_c, 13, 62, 52
15, 357584, Note_on_c, 13, 62, 0
15, 357600, Note_on_c, 13, 62, 52
15, 357704, Note_on_c, 13, 62, 0
15, 357720, Note_on_c, 13, 62, 52
15, 357824, Note_on_c, 13, 62, 0
15, 357840, Note_on_c, 13, 62, 52
15, 357944, Note_on_c, 13, 62, 0
15, 357960, Note_on_c, 13, 62, 52
15, 358064, Note_on_c, 13, 62, 0
15, 358080, Note_on_c, 13, 64, 52
15, 358184, Note_on_c, 13, 64, 0
15, 358200, Note_on_c, 13, 64, 52
15, 358304, Note_on_c, 13, 64, 0
15, 358320, Note_on_c, 13, 64, 52
15, 358424, Note_on_c, 13, 64, 0
15, 358440, Note_on_c, 13, 64, 52
15, 358544, Note_on_c, 13, 64, 0
15, 358560, Note_on_c, 13, 64, 52
15, 358664, Note_on_c, 13, 64, 0
15, 358680, Note_on_c, 13, 64, 52
15, 358784, Note_on_c, 13, 64, 0
15, 358800, Note_on_c, 13, 64, 52
15, 358904, Note_on_c, 13, 64, 0
15, 358920, Note_on_c, 13, 64, 52
15, 359024, Note_on_c, 13, 64, 0
15, 359040, Note_on_c, 13, 62, 52
15, 359279, Note_on_c, 13, 62, 0
15, 359760, Program_c, 13, 45
15, 360000, Note_on_c, 13, 62, 48
15, 360239, Note_on_c, 13, 62, 0
15, 360960, Note_on_c, 13, 62, 48
15, 360960, Note_on_c, 13, 64, 48
15, 361199, Note_on_c, 13, 62, 0
15, 361199, Note_on_c, 13, 64, 0
15, 361920, Note_on_c, 13, 64, 48
15, 361920, Note_on_c, 13, 61, 48
15, 362159, Note_on_c, 13, 64, 0
15, 362159, Note_on_c, 13, 61, 0
15, 362880, Note_on_c, 13, 62, 48
15, 363119, Note_on_c, 13, 62, 0
15, 363840, Note_on_c, 13, 58, 48
15, 363840, Note_on_c, 13, 62, 48
15, 364079, Note_on_c, 13, 58, 0
15, 364079, Note_on_c, 13, 62, 0
15, 364800, Note_on_c, 13, 63, 48
15, 364800, Note_on_c, 13, 60, 48
15, 365039, Note_on_c, 13, 63, 0
15, 365039, Note_on_c, 13, 60, 0
15, 365760, Note_on_c, 13, 62, 48
15, 365760, Note_on_c, 13, 60, 48
15, 365999, Note_on_c, 13, 62, 0
15, 365999, Note_on_c, 13, 60, 0
15, 366720, Note_on_c, 13, 62, 48
15, 366720, Note_on_c, 13, 58, 48
15, 366959, Note_on_c, 13, 62, 0
15, 366959, Note_on_c, 13, 58, 0
15, 367680, Note_on_c, 13, 63, 48
15, 367680, Note_on_c, 13, 58, 48
15, 367919, Note_on_c, 13, 63, 0
15, 367919, Note_on_c, 13, 58, 0
15, 368640, Note_on_c, 13, 63, 48
15, 368640, Note_on_c, 13, 56, 48
15, 368879, Note_on_c, 13, 63, 0
15, 368879, Note_on_c, 13, 56, 0
15, 369600, Note_on_c, 13, 65, 48
15, 369600, Note_on_c, 13, 56, 48
15, 369839, Note_on_c, 13, 65, 0
15, 369839, Note_on_c, 13, 56, 0
15, 370560, Note_on_c, 13, 55, 48
15, 370560, Note_on_c, 13, 63, 48
15, 370799, Note_on_c, 13, 55, 0
15, 370799, Note_on_c, 13, 63, 0
15, 371520, Note_on_c, 13, 63, 48
15, 371759, Note_on_c, 13, 63, 0
15, 372480, Note_on_c, 13, 63, 48
15, 372719, Note_on_c, 13, 63, 0
15, 373440, Note_on_c, 13, 65, 48
15, 373440, Note_on_c, 13, 62, 48
15, 373679, Note_on_c, 13, 65, 0
15, 373679, Note_on_c, 13, 62, 0
15, 374400, Note_on_c, 13, 67, 48
15, 374400, Note_on_c, 13, 58, 48
15, 374639, Note_on_c, 13, 67, 0
15, 374639, Note_on_c, 13, 58, 0
15, 375360, Note_on_c, 13, 60, 55
15, 375360, Note_on_c, 13, 63, 55
15, 375599, Note_on_c, 13, 60, 0
15, 375599, Note_on_c, 13, 63, 0
15, 376320, Note_on_c, 13, 60, 62
15, 376320, Note_on_c, 13, 63, 62
15, 376559, Note_on_c, 13, 60, 0
15, 376559, Note_on_c, 13, 63, 0
15, 377280, Note_on_c, 13, 56, 69
15, 377280, Note_on_c, 13, 62, 69
15, 377519, Note_on_c, 13, 56, 0
15, 377519, Note_on_c, 13, 62, 0
15, 378000, Program_c, 13, 48
15, 378240, Note_on_c, 13, 75, 84
15, 378419, Note_on_c, 13, 75, 0
15, 378480, Note_on_c, 13, 70, 84
15, 378659, Note_on_c, 13, 70, 0
15, 378720, Note_on_c, 13, 67, 84
15, 378899, Note_on_c, 13, 67, 0
15, 378960, Note_on_c, 13, 70, 84
15, 379139, Note_on_c, 13, 70, 0
15, 379200, Note_on_c, 13, 70, 84
15, 379379, Note_on_c, 13, 70, 0
15, 379440, Note_on_c, 13, 67, 84
15, 379619, Note_on_c, 13, 67, 0
15, 379680, Note_on_c, 13, 63, 84
15, 379859, Note_on_c, 13, 63, 0
15, 379920, Note_on_c, 13, 67, 84
15, 380099, Note_on_c, 13, 67, 0
15, 380160, Note_on_c, 13, 67, 84
15, 380339, Note_on_c, 13, 67, 0
15, 380400, Note_on_c, 13, 63, 84
15, 380579, Note_on_c, 13, 63, 0
15, 380640, Note_on_c, 13, 58, 84
15, 380819, Note_on_c, 13, 58, 0
15, 380880, Note_on_c, 13, 63, 84
15, 381059, Note_on_c, 13, 63, 0
15, 381120, Note_on_c, 13, 63, 84
15, 381299, Note_on_c, 13, 63, 0
15, 381360, Note_on_c, 13, 58, 84
15, 381539, Note_on_c, 13, 58, 0
15, 381600, Note_on_c, 13, 55, 84
15, 381779, Note_on_c, 13, 55, 0
15, 381840, Note_on_c, 13, 58, 84
15, 382019, Note_on_c, 13, 58, 0
15, 382080, Note_on_c, 13, 51, 84
15, 382080, Note_on_c, 13, 55, 84
15, 382259, Note_on_c, 13, 51, 0
15, 382259, Note_on_c, 13, 55, 0
15, 385920, Note_on_c, 13, 67, 84
15, 386099, Note_on_c, 13, 67, 0
15, 386160, Note_on_c, 13, 74, 84
15, 386339, Note_on_c, 13, 74, 0
15, 386400, Note_on_c, 13, 71, 84
15, 386579, Note_on_c, 13, 71, 0
15, 386640, Note_on_c, 13, 74, 84
15, 386819, Note_on_c, 13, 74, 0
15, 386880, Note_on_c, 13, 74, 84
15, 387059, Note_on_c, 13, 74, 0
15, 387120, Note_on_c, 13, 71, 84
15, 387299, Note_on_c, 13, 71, 0
15, 387360, Note_on_c, 13, 67, 84
15, 387539, Note_on_c, 13, 67, 0
15, 387600, Note_on_c, 13, 71, 84
15, 387779, Note_on_c, 13, 71, 0
15, 387840, Note_on_c, 13, 71, 84
15, 388019, Note_on_c, 13, 71, 0
15, 388080, Note_on_c, 13, 67, 84
15, 388259, Note_on_c, 13, 67, 0
15, 388320, Note_on_c, 13, 62, 84
15, 388499, Note_on_c, 13, 62, 0
15, 388560, Note_on_c, 13, 67, 84
15, 388739, Note_on_c, 13, 67, 0
15, 388800, Note_on_c, 13, 67, 84
15, 388979, Note_on_c, 13, 67, 0
15, 389040, Note_on_c, 13, 62, 84
15, 389219, Note_on_c, 13, 62, 0
15, 389280, Note_on_c, 13, 59, 84
15, 389459, Note_on_c, 13, 59, 0
15, 389520, Note_on_c, 13, 62, 84
15, 389699, Note_on_c, 13, 62, 0
15, 389760, Note_on_c, 13, 55, 84
15, 389939, Note_on_c, 13, 55, 0
15, 393600, Note_on_c, 13, 67, 84
15, 393779, Note_on_c, 13, 67, 0
15, 393840, Note_on_c, 13, 76, 84
15, 394019, Note_on_c, 13, 76, 0
15, 394080, Note_on_c, 13, 73, 84
15, 394259, Note_on_c, 13, 73, 0
15, 394320, Note_on_c, 13, 76, 84
15, 394499, Note_on_c, 13, 76, 0
15, 394560, Note_on_c, 13, 76, 84
15, 394739, Note_on_c, 13, 76, 0
15, 394800, Note_on_c, 13, 73, 84
15, 394979, Note_on_c, 13, 73, 0
15, 395040, Note_on_c, 13, 70, 84
15, 395219, Note_on_c, 13, 70, 0
15, 395280, Note_on_c, 13, 73, 84
15, 395459, Note_on_c, 13, 73, 0
15, 395520, Note_on_c, 13, 73, 84
15, 395699, Note_on_c, 13, 73, 0
15, 395760, Note_on_c, 13, 70, 84
15, 395939, Note_on_c, 13, 70, 0
15, 396000, Note_on_c, 13, 67, 84
15, 396179, Note_on_c, 13, 67, 0
15, 396240, Note_on_c, 13, 70, 84
15, 396419, Note_on_c, 13, 70, 0
15, 396480, Note_on_c, 13, 67, 84
15, 396659, Note_on_c, 13, 67, 0
15, 396720, Note_on_c, 13, 64, 84
15, 396899, Note_on_c, 13, 64, 0
15, 396960, Note_on_c, 13, 61, 84
15, 397139, Note_on_c, 13, 61, 0
15, 397200, Note_on_c, 13, 58, 84
15, 397379, Note_on_c, 13, 58, 0
15, 397440, Note_on_c, 13, 55, 76
15, 397679, Note_on_c, 13, 55, 0
15, 398400, Note_on_c, 13, 55, 76
15, 398400, Note_on_c, 13, 58, 76
15, 398639, Note_on_c, 13, 55, 0
15, 398639, Note_on_c, 13, 58, 0
15, 399360, Note_on_c, 13, 55, 76
15, 399360, Note_on_c, 13, 58, 76
15, 399599, Note_on_c, 13, 55, 0
15, 399599, Note_on_c, 13, 58, 0
15, 400320, Note_on_c, 13, 58, 76
15, 400320, Note_on_c, 13, 55, 76
15, 400559, Note_on_c, 13, 58, 0
15, 400559, Note_on_c, 13, 55, 0
15, 401280, Note_on_c, 13, 58, 76
15, 401280, Note_on_c, 13, 55, 76
15, 401519, Note_on_c, 13, 58, 0
15, 401519, Note_on_c, 13, 55, 0
15, 403200, Note_on_c, 13, 58, 52
15, 403200, Note_on_c, 13, 55, 52
15, 403439, Note_on_c, 13, 58, 0
15, 403439, Note_on_c, 13, 55, 0
15, 405120, Note_on_c, 13, 58, 44
15, 405120, Note_on_c, 13, 55, 44
15, 405359, Note_on_c, 13, 58, 0
15, 405359, Note_on_c, 13, 55, 0
15, 416640, Note_on_c, 13, 58, 36
15, 417599, Note_on_c, 13, 58, 0
15, 417600, Note_on_c, 13, 58, 36
15, 418799, Note_on_c, 13, 58, 0
15, 419520, Note_on_c, 13, 58, 36
15, 420479, Note_on_c, 13, 58, 0
15, 420480, Note_on_c, 13, 58, 36
15, 421679, Note_on_c, 13, 58, 0
15, 426240, Note_on_c, 13, 61, 36
15, 427199, Note_on_c, 13, 61, 0
15, 427200, Note_on_c, 13, 61, 36
15, 428399, Note_on_c, 13, 61, 0
15, 428880, Note_on_c, 13, 61, 36
15, 429104, Note_on_c, 13, 61, 0
15, 429120, Note_on_c, 13, 61, 44
15, 429359, Note_on_c, 13, 61, 0
15, 429840, Note_on_c, 13, 61, 44
15, 430064, Note_on_c, 13, 61, 0
15, 430080, Note_on_c, 13, 61, 44
15, 430319, Note_on_c, 13, 61, 0
15, 430800, Note_on_c, 13, 61, 44
15, 431024, Note_on_c, 13, 61, 0
15, 431040, Note_on_c, 13, 61, 44
15, 431279, Note_on_c, 13, 61, 0
15, 431760, Note_on_c, 13, 61, 44
15, 431984, Note_on_c, 13, 61, 0
15, 432000, Note_on_c, 13, 61, 44
15, 432224, Note_on_c, 13, 61, 0
15, 432240, Note_on_c, 13, 68, 44
15, 432479, Note_on_c, 13, 68, 0
15, 432480, Note_on_c, 13, 66, 44
15, 432719, Note_on_c, 13, 66, 0
15, 432720, Note_on_c, 13, 64, 44
15, 432959, Note_on_c, 13, 64, 0
15, 432960, Note_on_c, 13, 63, 44
15, 433199, Note_on_c, 13, 63, 0
15, 433200, Note_on_c, 13, 61, 44
15, 433439, Note_on_c, 13, 61, 0
15, 433440, Note_on_c, 13, 59, 44
15, 433679, Note_on_c, 13, 59, 0
15, 433680, Note_on_c, 13, 58, 44
15, 433919, Note_on_c, 13, 58, 0
15, 437280, Note_on_c, 13, 58, 44
15, 438719, Note_on_c, 13, 58, 0
15, 438720, Note_on_c, 13, 58, 44
15, 439664, Note_on_c, 13, 58, 0
15, 439680, Note_on_c, 13, 58, 44
15, 440639, Note_on_c, 13, 58, 0
15, 440640, Note_on_c, 13, 58, 44
15, 441839, Note_on_c, 13, 58, 0
15, 443520, Note_on_c, 13, 58, 44
15, 444479, Note_on_c, 13, 58, 0
15, 444480, Note_on_c, 13, 58, 44
15, 445679, Note_on_c, 13, 58, 0
15, 451080, Note_on_c, 13, 58, 44
15, 451139, Note_on_c, 13, 58, 0
15, 451140, Note_on_c, 13, 60, 44
15, 451191, Note_on_c, 13, 60, 0
15, 451200, Note_on_c, 13, 62, 44
15, 452159, Note_on_c, 13, 62, 0
15, 453000, Note_on_c, 13, 53, 44
15, 453039, Note_on_c, 13, 53, 0
15, 453040, Note_on_c, 13, 55, 44
15, 453079, Note_on_c, 13, 55, 0
15, 453080, Note_on_c, 13, 57, 44
15, 453111, Note_on_c, 13, 57, 0
15, 453120, Note_on_c, 13, 58, 44
15, 454079, Note_on_c, 13, 58, 0
15, 454920, Note_on_c, 13, 50, 44
15, 454979, Note_on_c, 13, 50, 0
15, 454980, Note_on_c, 13, 51, 44
15, 455031, Note_on_c, 13, 51, 0
15, 455040, Note_on_c, 13, 53, 44
15, 455519, Note_on_c, 13, 53, 0
15, 456000, Note_on_c, 13, 50, 44
15, 456479, Note_on_c, 13, 50, 0
15, 456840, Note_on_c, 13, 50, 44
15, 456899, Note_on_c, 13, 50, 0
15, 456900, Note_on_c, 13, 51, 44
15, 456951, Note_on_c, 13, 51, 0
15, 456960, Note_on_c, 13, 53, 44
15, 457439, Note_on_c, 13, 53, 0
15, 457800, Note_on_c, 13, 50, 44
15, 457859, Note_on_c, 13, 50, 0
15, 457860, Note_on_c, 13, 51, 44
15, 457911, Note_on_c, 13, 51, 0
15, 457920, Note_on_c, 13, 53, 44
15, 458399, Note_on_c, 13, 53, 0
15, 458760, Note_on_c, 13, 53, 44
15, 458799, Note_on_c, 13, 53, 0
15, 458800, Note_on_c, 13, 55, 44
15, 458839, Note_on_c, 13, 55, 0
15, 458840, Note_on_c, 13, 57, 44
15, 458871, Note_on_c, 13, 57, 0
15, 458880, Note_on_c, 13, 58, 44
15, 459119, Note_on_c, 13, 58, 0
15, 459360, Note_on_c, 13, 50, 44
15, 459539, Note_on_c, 13, 50, 0
15, 459720, Note_on_c, 13, 50, 46
15, 459779, Note_on_c, 13, 50, 0
15, 459780, Note_on_c, 13, 51, 46
15, 459839, Note_on_c, 13, 51, 0
15, 459840, Note_on_c, 13, 53, 47
15, 460019, Note_on_c, 13, 53, 0
15, 460200, Note_on_c, 13, 53, 49
15, 460239, Note_on_c, 13, 53, 0
15, 460240, Note_on_c, 13, 55, 49
15, 460279, Note_on_c, 13, 55, 0
15, 460280, Note_on_c, 13, 57, 49
15, 460319, Note_on_c, 13, 57, 0
15, 460320, Note_on_c, 13, 58, 49
15, 460499, Note_on_c, 13, 58, 0
15, 460680, Note_on_c, 13, 58, 51
15, 460739, Note_on_c, 13, 58, 0
15, 460740, Note_on_c, 13, 60, 52
15, 460799, Note_on_c, 13, 60, 0
15, 460800, Note_on_c, 13, 62, 52
15, 460979, Note_on_c, 13, 62, 0
15, 461160, Note_on_c, 13, 50, 54
15, 461219, Note_on_c, 13, 50, 0
15, 461220, Note_on_c, 13, 51, 54
15, 461279, Note_on_c, 13, 51, 0
15, 461280, Note_on_c, 13, 53, 55
15, 461459, Note_on_c, 13, 53, 0
15, 461640, Note_on_c, 13, 53, 57
15, 461679, Note_on_c, 13, 53, 0
15, 461680, Note_on_c, 13, 55, 57
15, 461719, Note_on_c, 13, 55, 0
15, 461720, Note_on_c, 13, 57, 57
15, 461759, Note_on_c, 13, 57, 0
15, 461760, Note_on_c, 13, 58, 57
15, 461939, Note_on_c, 13, 58, 0
15, 462120, Note_on_c, 13, 58, 59
15, 462179, Note_on_c, 13, 58, 0
15, 462180, Note_on_c, 13, 60, 60
15, 462239, Note_on_c, 13, 60, 0
15, 462240, Note_on_c, 13, 62, 60
15, 462419, Note_on_c, 13, 62, 0
15, 462600, Note_on_c, 13, 62, 62
15, 462659, Note_on_c, 13, 62, 0
15, 462660, Note_on_c, 13, 63, 62
15, 462719, Note_on_c, 13, 63, 0
15, 462720, Note_on_c, 13, 65, 63
15, 462899, Note_on_c, 13, 65, 0
15, 463080, Note_on_c, 13, 53, 64
15, 463119, Note_on_c, 13, 53, 0
15, 463120, Note_on_c, 13, 55, 65
15, 463159, Note_on_c, 13, 55, 0
15, 463160, Note_on_c, 13, 57, 65
15, 463199, Note_on_c, 13, 57, 0
15, 463200, Note_on_c, 13, 58, 65
15, 463379, Note_on_c, 13, 58, 0
15, 463560, Note_on_c, 13, 58, 67
15, 463619, Note_on_c, 13, 58, 0
15, 463620, Note_on_c, 13, 60, 67
15, 463679, Note_on_c, 13, 60, 0
15, 463680, Note_on_c, 13, 62, 68
15, 463859, Note_on_c, 13, 62, 0
15, 464040, Note_on_c, 13, 62, 70
15, 464099, Note_on_c, 13, 62, 0
15, 464100, Note_on_c, 13, 63, 70
15, 464159, Note_on_c, 13, 63, 0
15, 464160, Note_on_c, 13, 65, 70
15, 464339, Note_on_c, 13, 65, 0
15, 464520, Note_on_c, 13, 65, 72
15, 464559, Note_on_c, 13, 65, 0
15, 464560, Note_on_c, 13, 67, 73
15, 464599, Note_on_c, 13, 67, 0
15, 464600, Note_on_c, 13, 69, 73
15, 464639, Note_on_c, 13, 69, 0
15, 464640, Note_on_c, 13, 70, 73
15, 464819, Note_on_c, 13, 70, 0
15, 465000, Note_on_c, 13, 58, 75
15, 465059, Note_on_c, 13, 58, 0
15, 465060, Note_on_c, 13, 60, 75
15, 465119, Note_on_c, 13, 60, 0
15, 465120, Note_on_c, 13, 62, 76
15, 465299, Note_on_c, 13, 62, 0
15, 465480, Note_on_c, 13, 62, 78
15, 465539, Note_on_c, 13, 62, 0
15, 465540, Note_on_c, 13, 63, 78
15, 465599, Note_on_c, 13, 63, 0
15, 465600, Note_on_c, 13, 65, 78
15, 465779, Note_on_c, 13, 65, 0
15, 465960, Note_on_c, 13, 65, 80
15, 465999, Note_on_c, 13, 65, 0
15, 466000, Note_on_c, 13, 67, 80
15, 466039, Note_on_c, 13, 67, 0
15, 466040, Note_on_c, 13, 69, 81
15, 466079, Note_on_c, 13, 69, 0
15, 466080, Note_on_c, 13, 70, 81
15, 466259, Note_on_c, 13, 70, 0
15, 466440, Note_on_c, 13, 69, 83
15, 466479, Note_on_c, 13, 69, 0
15, 466480, Note_on_c, 13, 70, 83
15, 466519, Note_on_c, 13, 70, 0
15, 466520, Note_on_c, 13, 72, 83
15, 466559, Note_on_c, 13, 72, 0
15, 466560, Note_on_c, 13, 74, 84
15, 466560, Note_on_c, 13, 65, 84
15, 466664, Note_on_c, 13, 74, 0
15, 466664, Note_on_c, 13, 65, 0
15, 466680, Note_on_c, 13, 74, 84
15, 466680, Note_on_c, 13, 65, 84
15, 466784, Note_on_c, 13, 74, 0
15, 466784, Note_on_c, 13, 65, 0
15, 466800, Note_on_c, 13, 65, 84
15, 466800, Note_on_c, 13, 74, 84
15, 466904, Note_on_c, 13, 65, 0
15, 466904, Note_on_c, 13, 74, 0
15, 466920, Note_on_c, 13, 74, 84
15, 466920, Note_on_c, 13, 65, 84
15, 467024, Note_on_c, 13, 74, 0
15, 467024, Note_on_c, 13, 65, 0
15, 467040, Note_on_c, 13, 65, 84
15, 467040, Note_on_c, 13, 74, 84
15, 467144, Note_on_c, 13, 65, 0
15, 467144, Note_on_c, 13, 74, 0
15, 467160, Note_on_c, 13, 65, 84
15, 467160, Note_on_c, 13, 74, 84
15, 467264, Note_on_c, 13, 65, 0
15, 467264, Note_on_c, 13, 74, 0
15, 467280, Note_on_c, 13, 65, 84
15, 467280, Note_on_c, 13, 74, 84
15, 467384, Note_on_c, 13, 65, 0
15, 467384, Note_on_c, 13, 74, 0
15, 467400, Note_on_c, 13, 65, 84
15, 467400, Note_on_c, 13, 74, 84
15, 467504, Note_on_c, 13, 65, 0
15, 467504, Note_on_c, 13, 74, 0
15, 467520, Note_on_c, 13, 74, 84
15, 467520, Note_on_c, 13, 65, 84
15, 467624, Note_on_c, 13, 74, 0
15, 467624, Note_on_c, 13, 65, 0
15, 467640, Note_on_c, 13, 74, 84
15, 467640, Note_on_c, 13, 65, 84
15, 467744, Note_on_c, 13, 74, 0
15, 467744, Note_on_c, 13, 65, 0
15, 467760, Note_on_c, 13, 65, 84
15, 467760, Note_on_c, 13, 74, 84
15, 467864, Note_on_c, 13, 65, 0
15, 467864, Note_on_c, 13, 74, 0
15, 467880, Note_on_c, 13, 65, 84
15, 467880, Note_on_c, 13, 74, 84
15, 467984, Note_on_c, 13, 65, 0
15, 467984, Note_on_c, 13, 74, 0
15, 468000, Note_on_c, 13, 74, 84
15, 468000, Note_on_c, 13, 65, 84
15, 468104, Note_on_c, 13, 74, 0
15, 468104, Note_on_c, 13, 65, 0
15, 468120, Note_on_c, 13, 74, 84
15, 468120, Note_on_c, 13, 65, 84
15, 468224, Note_on_c, 13, 74, 0
15, 468224, Note_on_c, 13, 65, 0
15, 468240, Note_on_c, 13, 65, 84
15, 468240, Note_on_c, 13, 74, 84
15, 468344, Note_on_c, 13, 65, 0
15, 468344, Note_on_c, 13, 74, 0
15, 468360, Note_on_c, 13, 65, 84
15, 468360, Note_on_c, 13, 74, 84
15, 468464, Note_on_c, 13, 65, 0
15, 468464, Note_on_c, 13, 74, 0
15, 468480, Note_on_c, 13, 65, 84
15, 468480, Note_on_c, 13, 74, 84
15, 468584, Note_on_c, 13, 65, 0
15, 468584, Note_on_c, 13, 74, 0
15, 468600, Note_on_c, 13, 65, 84
15, 468600, Note_on_c, 13, 74, 84
15, 468704, Note_on_c, 13, 65, 0
15, 468704, Note_on_c, 13, 74, 0
15, 468720, Note_on_c, 13, 74, 84
15, 468720, Note_on_c, 13, 65, 84
15, 468824, Note_on_c, 13, 74, 0
15, 468824, Note_on_c, 13, 65, 0
15, 468840, Note_on_c, 13, 65, 84
15, 468840, Note_on_c, 13, 74, 84
15, 468944, Note_on_c, 13, 65, 0
15, 468944, Note_on_c, 13, 74, 0
15, 468960, Note_on_c, 13, 65, 84
15, 468960, Note_on_c, 13, 74, 84
15, 469064, Note_on_c, 13, 65, 0
15, 469064, Note_on_c, 13, 74, 0
15, 469080, Note_on_c, 13, 74, 84
15, 469080, Note_on_c, 13, 65, 84
15, 469184, Note_on_c, 13, 74, 0
15, 469184, Note_on_c, 13, 65, 0
15, 469200, Note_on_c, 13, 65, 84
15, 469200, Note_on_c, 13, 74, 84
15, 469304, Note_on_c, 13, 65, 0
15, 469304, Note_on_c, 13, 74, 0
15, 469320, Note_on_c, 13, 70, 84
15, 469379, Note_on_c, 13, 70, 0
15, 469380, Note_on_c, 13, 72, 84
15, 469431, Note_on_c, 13, 72, 0
15, 469440, Note_on_c, 13, 74, 84
15, 469440, Note_on_c, 13, 65, 84
15, 469619, Note_on_c, 13, 74, 0
15, 469619, Note_on_c, 13, 65, 0
15, 469800, Note_on_c, 13, 70, 84
15, 469859, Note_on_c, 13, 70, 0
15, 469860, Note_on_c, 13, 72, 84
15, 469911, Note_on_c, 13, 72, 0
15, 469920, Note_on_c, 13, 74, 84
15, 469920, Note_on_c, 13, 65, 84
15, 470099, Note_on_c, 13, 74, 0
15, 470099, Note_on_c, 13, 65, 0
15, 470280, Note_on_c, 13, 70, 84
15, 470339, Note_on_c, 13, 70, 0
15, 470340, Note_on_c, 13, 72, 84
15, 470391, Note_on_c, 13, 72, 0
15, 470400, Note_on_c, 13, 74, 84
15, 470400, Note_on_c, 13, 65, 84
15, 470504, Note_on_c, 13, 74, 0
15, 470504, Note_on_c, 13, 65, 0
15, 470520, Note_on_c, 13, 50, 84
15, 470520, Note_on_c, 13, 53, 84
15, 470624, Note_on_c, 13, 50, 0
15, 470624, Note_on_c, 13, 53, 0
15, 470640, Note_on_c, 13, 53, 84
15, 470640, Note_on_c, 13, 50, 84
15, 470744, Note_on_c, 13, 53, 0
15, 470744, Note_on_c, 13, 50, 0
15, 470760, Note_on_c, 13, 53, 84
15, 470760, Note_on_c, 13, 50, 84
15, 470864, Note_on_c, 13, 53, 0
15, 470864, Note_on_c, 13, 50, 0
15, 470880, Note_on_c, 13, 50, 84
15, 470880, Note_on_c, 13, 53, 84
15, 470984, Note_on_c, 13, 50, 0
15, 470984, Note_on_c, 13, 53, 0
15, 471000, Note_on_c, 13, 53, 84
15, 471000, Note_on_c, 13, 50, 84
15, 471104, Note_on_c, 13, 53, 0
15, 471104, Note_on_c, 13, 50, 0
15, 471120, Note_on_c, 13, 53, 84
15, 471120, Note_on_c, 13, 50, 84
15, 471224, Note_on_c, 13, 53, 0
15, 471224, Note_on_c, 13, 50, 0
15, 471240, Note_on_c, 13, 53, 84
15, 471240, Note_on_c, 13, 50, 84
15, 471344, Note_on_c, 13, 53, 0
15, 471344, Note_on_c, 13, 50, 0
15, 471360, Note_on_c, 13, 53, 84
15, 471360, Note_on_c, 13, 50, 84
15, 471464, Note_on_c, 13, 53, 0
15, 471464, Note_on_c, 13, 50, 0
15, 471480, Note_on_c, 13, 53, 84
15, 471480, Note_on_c, 13, 50, 84
15, 471584, Note_on_c, 13, 53, 0
15, 471584, Note_on_c, 13, 50, 0
15, 471600, Note_on_c, 13, 50, 84
15, 471600, Note_on_c, 13, 53, 84
15, 471704, Note_on_c, 13, 50, 0
15, 471704, Note_on_c, 13, 53, 0
15, 471720, Note_on_c, 13, 50, 84
15, 471720, Note_on_c, 13, 53, 84
15, 471824, Note_on_c, 13, 50, 0
15, 471824, Note_on_c, 13, 53, 0
15, 471840, Note_on_c, 13, 50, 84
15, 471840, Note_on_c, 13, 53, 84
15, 471944, Note_on_c, 13, 50, 0
15, 471944, Note_on_c, 13, 53, 0
15, 471960, Note_on_c, 13, 50, 84
15, 471960, Note_on_c, 13, 53, 84
15, 472064, Note_on_c, 13, 50, 0
15, 472064, Note_on_c, 13, 53, 0
15, 472080, Note_on_c, 13, 50, 84
15, 472080, Note_on_c, 13, 53, 84
15, 472184, Note_on_c, 13, 50, 0
15, 472184, Note_on_c, 13, 53, 0
15, 472200, Note_on_c, 13, 50, 84
15, 472200, Note_on_c, 13, 53, 84
15, 472304, Note_on_c, 13, 50, 0
15, 472304, Note_on_c, 13, 53, 0
15, 472320, Note_on_c, 13, 51, 84
15, 472320, Note_on_c, 13, 55, 84
15, 472424, Note_on_c, 13, 51, 0
15, 472424, Note_on_c, 13, 55, 0
15, 472440, Note_on_c, 13, 51, 84
15, 472440, Note_on_c, 13, 55, 84
15, 472544, Note_on_c, 13, 51, 0
15, 472544, Note_on_c, 13, 55, 0
15, 472560, Note_on_c, 13, 51, 84
15, 472560, Note_on_c, 13, 55, 84
15, 472664, Note_on_c, 13, 51, 0
15, 472664, Note_on_c, 13, 55, 0
15, 472680, Note_on_c, 13, 51, 84
15, 472680, Note_on_c, 13, 55, 84
15, 472784, Note_on_c, 13, 51, 0
15, 472784, Note_on_c, 13, 55, 0
15, 472800, Note_on_c, 13, 55, 84
15, 472800, Note_on_c, 13, 51, 84
15, 472904, Note_on_c, 13, 55, 0
15, 472904, Note_on_c, 13, 51, 0
15, 472920, Note_on_c, 13, 55, 84
15, 472920, Note_on_c, 13, 51, 84
15, 473024, Note_on_c, 13, 55, 0
15, 473024, Note_on_c, 13, 51, 0
15, 473040, Note_on_c, 13, 51, 84
15, 473040, Note_on_c, 13, 55, 84
15, 473144, Note_on_c, 13, 51, 0
15, 473144, Note_on_c, 13, 55, 0
15, 473160, Note_on_c, 13, 51, 84
15, 473160, Note_on_c, 13, 55, 84
15, 473264, Note_on_c, 13, 51, 0
15, 473264, Note_on_c, 13, 55, 0
15, 473280, Note_on_c, 13, 53, 84
15, 473280, Note_on_c, 13, 57, 84
15, 473384, Note_on_c, 13, 53, 0
15, 473384, Note_on_c, 13, 57, 0
15, 473400, Note_on_c, 13, 53, 84
15, 473400, Note_on_c, 13, 57, 84
15, 473504, Note_on_c, 13, 53, 0
15, 473504, Note_on_c, 13, 57, 0
15, 473520, Note_on_c, 13, 53, 84
15, 473520, Note_on_c, 13, 57, 84
15, 473624, Note_on_c, 13, 53, 0
15, 473624, Note_on_c, 13, 57, 0
15, 473640, Note_on_c, 13, 53, 84
15, 473640, Note_on_c, 13, 57, 84
15, 473744, Note_on_c, 13, 53, 0
15, 473744, Note_on_c, 13, 57, 0
15, 473760, Note_on_c, 13, 57, 84
15, 473760, Note_on_c, 13, 53, 84
15, 473864, Note_on_c, 13, 57, 0
15, 473864, Note_on_c, 13, 53, 0
15, 473880, Note_on_c, 13, 53, 84
15, 473880, Note_on_c, 13, 57, 84
15, 473984, Note_on_c, 13, 53, 0
15, 473984, Note_on_c, 13, 57, 0
15, 474000, Note_on_c, 13, 53, 84
15, 474000, Note_on_c, 13, 57, 84
15, 474104, Note_on_c, 13, 53, 0
15, 474104, Note_on_c, 13, 57, 0
15, 474120, Note_on_c, 13, 53, 84
15, 474120, Note_on_c, 13, 57, 84
15, 474224, Note_on_c, 13, 53, 0
15, 474224, Note_on_c, 13, 57, 0
15, 474240, Note_on_c, 13, 58, 76
15, 474344, Note_on_c, 13, 58, 0
15, 474360, Note_on_c, 13, 58, 52
15, 474464, Note_on_c, 13, 58, 0
15, 474480, Note_on_c, 13, 58, 52
15, 474584, Note_on_c, 13, 58, 0
15, 474600, Note_on_c, 13, 58, 52
15, 474704, Note_on_c, 13, 58, 0
15, 474720, Note_on_c, 13, 58, 52
15, 474824, Note_on_c, 13, 58, 0
15, 474840, Note_on_c, 13, 58, 52
15, 474944, Note_on_c, 13, 58, 0
15, 474960, Note_on_c, 13, 58, 52
15, 475064, Note_on_c, 13, 58, 0
15, 475080, Note_on_c, 13, 58, 52
15, 475184, Note_on_c, 13, 58, 0
15, 475200, Note_on_c, 13, 58, 52
15, 475304, Note_on_c, 13, 58, 0
15, 475320, Note_on_c, 13, 58, 52
15, 475424, Note_on_c, 13, 58, 0
15, 475440, Note_on_c, 13, 58, 52
15, 475544, Note_on_c, 13, 58, 0
15, 475560, Note_on_c, 13, 58, 52
15, 475664, Note_on_c, 13, 58, 0
15, 475680, Note_on_c, 13, 58, 52
15, 475784, Note_on_c, 13, 58, 0
15, 475800, Note_on_c, 13, 58, 52
15, 475904, Note_on_c, 13, 58, 0
15, 475920, Note_on_c, 13, 58, 52
15, 476024, Note_on_c, 13, 58, 0
15, 476040, Note_on_c, 13, 58, 52
15, 476144, Note_on_c, 13, 58, 0
15, 476160, Note_on_c, 13, 58, 52
15, 476264, Note_on_c, 13, 58, 0
15, 476280, Note_on_c, 13, 58, 52
15, 476384, Note_on_c, 13, 58, 0
15, 476400, Note_on_c, 13, 58, 52
15, 476504, Note_on_c, 13, 58, 0
15, 476520, Note_on_c, 13, 58, 52
15, 476624, Note_on_c, 13, 58, 0
15, 476640, Note_on_c, 13, 58, 52
15, 476744, Note_on_c, 13, 58, 0
15, 476760, Note_on_c, 13, 58, 52
15, 476864, Note_on_c, 13, 58, 0
15, 476880, Note_on_c, 13, 58, 52
15, 476984, Note_on_c, 13, 58, 0
15, 477000, Note_on_c, 13, 58, 52
15, 477104, Note_on_c, 13, 58, 0
15, 477120, Note_on_c, 13, 58, 52
15, 477224, Note_on_c, 13, 58, 0
15, 477240, Note_on_c, 13, 58, 52
15, 477344, Note_on_c, 13, 58, 0
15, 477360, Note_on_c, 13, 58, 52
15, 477464, Note_on_c, 13, 58, 0
15, 477480, Note_on_c, 13, 58, 52
15, 477584, Note_on_c, 13, 58, 0
15, 477600, Note_on_c, 13, 58, 52
15, 477704, Note_on_c, 13, 58, 0
15, 477720, Note_on_c, 13, 58, 52
15, 477824, Note_on_c, 13, 58, 0
15, 477840, Note_on_c, 13, 58, 52
15, 477944, Note_on_c, 13, 58, 0
15, 477960, Note_on_c, 13, 58, 52
15, 478064, Note_on_c, 13, 58, 0
15, 478080, Note_on_c, 13, 58, 52
15, 478304, Note_on_c, 13, 58, 0
15, 478320, Note_on_c, 13, 70, 48
15, 478559, Note_on_c, 13, 70, 0
15, 478560, Note_on_c, 13, 69, 48
15, 478799, Note_on_c, 13, 69, 0
15, 478800, Note_on_c, 13, 67, 48
15, 479039, Note_on_c, 13, 67, 0
15, 479040, Note_on_c, 13, 65, 48
15, 479279, Note_on_c, 13, 65, 0
15, 479280, Note_on_c, 13, 63, 48
15, 479519, Note_on_c, 13, 63, 0
15, 479520, Note_on_c, 13, 62, 48
15, 479759, Note_on_c, 13, 62, 0
15, 479760, Note_on_c, 13, 63, 48
15, 479984, Note_on_c, 13, 63, 0
15, 480000, Note_on_c, 13, 60, 48
15, 480959, Note_on_c, 13, 60, 0
15, 480960, Note_on_c, 13, 60, 48
15, 482159, Note_on_c, 13, 60, 0
15, 482880, Control_c, 13, 11, 64
15, 482960, Control_c, 13, 11, 69
15, 483040, Control_c, 13, 11, 75
15, 483120, Control_c, 13, 11, 80
15, 483120, Note_on_c, 13, 60, 84
15, 483200, Control_c, 13, 11, 85
15, 483280, Control_c, 13, 11, 90
15, 483360, Control_c, 13, 11, 96
15, 483440, Control_c, 13, 11, 101
15, 483520, Control_c, 13, 11, 106
15, 483584, Note_on_c, 13, 60, 0
15, 483600, Note_on_c, 13, 60, 84
15, 483600, Control_c, 13, 11, 111
15, 483680, Control_c, 13, 11, 117
15, 483760, Control_c, 13, 11, 122
15, 483824, Note_on_c, 13, 60, 0
15, 483825, Control_c, 13, 11, 127
15, 483840, Note_on_c, 13, 62, 84
15, 483944, Note_on_c, 13, 62, 0
15, 483960, Note_on_c, 13, 62, 84
15, 484064, Note_on_c, 13, 62, 0
15, 484080, Note_on_c, 13, 70, 84
15, 484184, Note_on_c, 13, 70, 0
15, 484200, Note_on_c, 13, 70, 84
15, 484304, Note_on_c, 13, 70, 0
15, 484320, Note_on_c, 13, 65, 84
15, 484424, Note_on_c, 13, 65, 0
15, 484440, Note_on_c, 13, 65, 84
15, 484544, Note_on_c, 13, 65, 0
15, 484560, Note_on_c, 13, 70, 84
15, 484664, Note_on_c, 13, 70, 0
15, 484680, Note_on_c, 13, 70, 84
15, 484784, Note_on_c, 13, 70, 0
15, 484800, Note_on_c, 13, 62, 84
15, 484904, Note_on_c, 13, 62, 0
15, 484920, Note_on_c, 13, 62, 84
15, 485024, Note_on_c, 13, 62, 0
15, 485040, Note_on_c, 13, 65, 84
15, 485144, Note_on_c, 13, 65, 0
15, 485160, Note_on_c, 13, 65, 84
15, 485264, Note_on_c, 13, 65, 0
15, 485280, Note_on_c, 13, 58, 84
15, 485384, Note_on_c, 13, 58, 0
15, 485400, Note_on_c, 13, 58, 84
15, 485504, Note_on_c, 13, 58, 0
15, 485520, Note_on_c, 13, 62, 84
15, 485624, Note_on_c, 13, 62, 0
15, 485640, Note_on_c, 13, 62, 84
15, 485744, Note_on_c, 13, 62, 0
15, 485760, Note_on_c, 13, 55, 84
15, 485864, Note_on_c, 13, 55, 0
15, 485880, Note_on_c, 13, 55, 84
15, 485984, Note_on_c, 13, 55, 0
15, 486000, Note_on_c, 13, 63, 84
15, 486104, Note_on_c, 13, 63, 0
15, 486120, Note_on_c, 13, 63, 84
15, 486224, Note_on_c, 13, 63, 0
15, 486240, Note_on_c, 13, 60, 84
15, 486344, Note_on_c, 13, 60, 0
15, 486360, Note_on_c, 13, 60, 84
15, 486464, Note_on_c, 13, 60, 0
15, 486480, Note_on_c, 13, 58, 84
15, 486584, Note_on_c, 13, 58, 0
15, 486600, Note_on_c, 13, 58, 84
15, 486704, Note_on_c, 13, 58, 0
15, 486720, Note_on_c, 13, 57, 84
15, 486824, Note_on_c, 13, 57, 0
15, 486840, Note_on_c, 13, 57, 84
15, 486944, Note_on_c, 13, 57, 0
15, 486960, Note_on_c, 13, 65, 84
15, 487064, Note_on_c, 13, 65, 0
15, 487080, Note_on_c, 13, 65, 84
15, 487184, Note_on_c, 13, 65, 0
15, 487200, Note_on_c, 13, 63, 84
15, 487304, Note_on_c, 13, 63, 0
15, 487320, Note_on_c, 13, 63, 84
15, 487424, Note_on_c, 13, 63, 0
15, 487440, Note_on_c, 13, 60, 84
15, 487544, Note_on_c, 13, 60, 0
15, 487560, Note_on_c, 13, 60, 84
15, 487664, Note_on_c, 13, 60, 0
15, 487680, Note_on_c, 13, 58, 84
15, 487784, Note_on_c, 13, 58, 0
15, 487800, Note_on_c, 13, 58, 84
15, 487904, Note_on_c, 13, 58, 0
15, 487920, Note_on_c, 13, 65, 84
15, 488024, Note_on_c, 13, 65, 0
15, 488040, Note_on_c, 13, 65, 84
15, 488144, Note_on_c, 13, 65, 0
15, 488160, Note_on_c, 13, 62, 84
15, 488264, Note_on_c, 13, 62, 0
15, 488280, Note_on_c, 13, 62, 84
15, 488384, Note_on_c, 13, 62, 0
15, 488400, Note_on_c, 13, 60, 84
15, 488504, Note_on_c, 13, 60, 0
15, 488520, Note_on_c, 13, 60, 84
15, 488624, Note_on_c, 13, 60, 0
15, 488640, Note_on_c, 13, 59, 84
15, 488744, Note_on_c, 13, 59, 0
15, 488760, Note_on_c, 13, 59, 84
15, 488864, Note_on_c, 13, 59, 0
15, 488880, Note_on_c, 13, 67, 84
15, 488984, Note_on_c, 13, 67, 0
15, 489000, Note_on_c, 13, 67, 84
15, 489104, Note_on_c, 13, 67, 0
15, 489120, Note_on_c, 13, 62, 84
15, 489224, Note_on_c, 13, 62, 0
15, 489240, Note_on_c, 13, 62, 84
15, 489344, Note_on_c, 13, 62, 0
15, 489360, Note_on_c, 13, 59, 84
15, 489464, Note_on_c, 13, 59, 0
15, 489480, Note_on_c, 13, 59, 84
15, 489584, Note_on_c, 13, 59, 0
15, 489600, Note_on_c, 13, 60, 92
15, 489704, Note_on_c, 13, 60, 0
15, 489720, Note_on_c, 13, 60, 84
15, 489824, Note_on_c, 13, 60, 0
15, 489840, Note_on_c, 13, 55, 84
15, 489944, Note_on_c, 13, 55, 0
15, 489960, Note_on_c, 13, 55, 84
15, 490064, Note_on_c, 13, 55, 0
15, 490080, Note_on_c, 13, 51, 84
15, 490184, Note_on_c, 13, 51, 0
15, 490200, Note_on_c, 13, 51, 84
15, 490304, Note_on_c, 13, 51, 0
15, 490320, Note_on_c, 13, 50, 84
15, 490424, Note_on_c, 13, 50, 0
15, 490440, Note_on_c, 13, 50, 84
15, 490544, Note_on_c, 13, 50, 0
15, 490560, Note_on_c, 13, 48, 92
15, 490664, Note_on_c, 13, 48, 0
15, 490680, Note_on_c, 13, 48, 84
15, 490784, Note_on_c, 13, 48, 0
15, 490800, Note_on_c, 13, 56, 84
15, 490904, Note_on_c, 13, 56, 0
15, 490920, Note_on_c, 13, 56, 84
15, 491024, Note_on_c, 13, 56, 0
15, 491040, Note_on_c, 13, 51, 84
15, 491144, Note_on_c, 13, 51, 0
15, 491160, Note_on_c, 13, 51, 84
15, 491264, Note_on_c, 13, 51, 0
15, 491280, Note_on_c, 13, 48, 84
15, 491384, Note_on_c, 13, 48, 0
15, 491400, Note_on_c, 13, 48, 84
15, 491504, Note_on_c, 13, 48, 0
15, 491520, Note_on_c, 13, 50, 92
15, 491624, Note_on_c, 13, 50, 0
15, 491640, Note_on_c, 13, 50, 84
15, 491744, Note_on_c, 13, 50, 0
15, 491760, Note_on_c, 13, 56, 84
15, 491864, Note_on_c, 13, 56, 0
15, 491880, Note_on_c, 13, 56, 84
15, 491984, Note_on_c, 13, 56, 0
15, 492000, Note_on_c, 13, 53, 84
15, 492104, Note_on_c, 13, 53, 0
15, 492120, Note_on_c, 13, 53, 84
15, 492224, Note_on_c, 13, 53, 0
15, 492240, Note_on_c, 13, 51, 84
15, 492344, Note_on_c, 13, 51, 0
15, 492360, Note_on_c, 13, 51, 84
15, 492464, Note_on_c, 13, 51, 0
15, 492480, Note_on_c, 13, 50, 84
15, 492584, Note_on_c, 13, 50, 0
15, 492600, Note_on_c, 13, 50, 84
15, 492704, Note_on_c, 13, 50, 0
15, 492720, Note_on_c, 13, 58, 84
15, 492824, Note_on_c, 13, 58, 0
15, 492840, Note_on_c, 13, 58, 84
15, 492944, Note_on_c, 13, 58, 0
15, 492960, Note_on_c, 13, 53, 92
15, 493064, Note_on_c, 13, 53, 0
15, 493080, Note_on_c, 13, 53, 84
15, 493184, Note_on_c, 13, 53, 0
15, 493200, Note_on_c, 13, 50, 84
15, 493304, Note_on_c, 13, 50, 0
15, 493320, Note_on_c, 13, 50, 84
15, 493424, Note_on_c, 13, 50, 0
15, 493440, Note_on_c, 13, 51, 84
15, 493544, Note_on_c, 13, 51, 0
15, 493560, Note_on_c, 13, 51, 84
15, 493664, Note_on_c, 13, 51, 0
15, 493680, Note_on_c, 13, 55, 84
15, 493784, Note_on_c, 13, 55, 0
15, 493800, Note_on_c, 13, 55, 84
15, 493904, Note_on_c, 13, 55, 0
15, 493920, Note_on_c, 13, 52, 92
15, 494024, Note_on_c, 13, 52, 0
15, 494040, Note_on_c, 13, 52, 84
15, 494144, Note_on_c, 13, 52, 0
15, 494160, Note_on_c, 13, 60, 84
15, 494264, Note_on_c, 13, 60, 0
15, 494280, Note_on_c, 13, 60, 84
15, 494384, Note_on_c, 13, 60, 0
15, 494400, Note_on_c, 13, 53, 84
15, 494504, Note_on_c, 13, 53, 0
15, 494520, Note_on_c, 13, 53, 84
15, 494624, Note_on_c, 13, 53, 0
15, 494640, Note_on_c, 13, 57, 84
15, 494744, Note_on_c, 13, 57, 0
15, 494760, Note_on_c, 13, 57, 84
15, 494864, Note_on_c, 13, 57, 0
15, 494880, Note_on_c, 13, 54, 84
15, 494984, Note_on_c, 13, 54, 0
15, 495000, Note_on_c, 13, 54, 84
15, 495104, Note_on_c, 13, 54, 0
15, 495120, Note_on_c, 13, 62, 84
15, 495224, Note_on_c, 13, 62, 0
15, 495240, Note_on_c, 13, 62, 84
15, 495344, Note_on_c, 13, 62, 0
15, 495360, Note_on_c, 13, 55, 84
15, 495464, Note_on_c, 13, 55, 0
15, 495480, Note_on_c, 13, 55, 84
15, 495584, Note_on_c, 13, 55, 0
15, 495600, Note_on_c, 13, 58, 84
15, 495704, Note_on_c, 13, 58, 0
15, 495720, Note_on_c, 13, 58, 84
15, 495824, Note_on_c, 13, 58, 0
15, 495840, Note_on_c, 13, 55, 92
15, 495944, Note_on_c, 13, 55, 0
15, 495960, Note_on_c, 13, 55, 84
15, 496064, Note_on_c, 13, 55, 0
15, 496080, Note_on_c, 13, 63, 84
15, 496184, Note_on_c, 13, 63, 0
15, 496200, Note_on_c, 13, 63, 84
15, 496304, Note_on_c, 13, 63, 0
15, 496320, Note_on_c, 13, 56, 84
15, 496424, Note_on_c, 13, 56, 0
15, 496440, Note_on_c, 13, 56, 84
15, 496544, Note_on_c, 13, 56, 0
15, 496560, Note_on_c, 13, 60, 84
15, 496664, Note_on_c, 13, 60, 0
15, 496680, Note_on_c, 13, 60, 84
15, 496784, Note_on_c, 13, 60, 0
15, 496800, Note_on_c, 13, 57, 92
15, 496904, Note_on_c, 13, 57, 0
15, 496920, Note_on_c, 13, 57, 84
15, 497024, Note_on_c, 13, 57, 0
15, 497040, Note_on_c, 13, 60, 84
15, 497144, Note_on_c, 13, 60, 0
15, 497160, Note_on_c, 13, 60, 84
15, 497264, Note_on_c, 13, 60, 0
15, 497280, Note_on_c, 13, 58, 84
15, 497384, Note_on_c, 13, 58, 0
15, 497400, Note_on_c, 13, 58, 84
15, 497504, Note_on_c, 13, 58, 0
15, 497520, Note_on_c, 13, 60, 84
15, 497624, Note_on_c, 13, 60, 0
15, 497640, Note_on_c, 13, 60, 84
15, 497744, Note_on_c, 13, 60, 0
15, 497760, Note_on_c, 13, 62, 84
15, 497864, Note_on_c, 13, 62, 0
15, 497880, Note_on_c, 13, 62, 84
15, 497984, Note_on_c, 13, 62, 0
15, 498000, Note_on_c, 13, 63, 84
15, 498104, Note_on_c, 13, 63, 0
15, 498120, Note_on_c, 13, 63, 84
15, 498224, Note_on_c, 13, 63, 0
15, 498240, Note_on_c, 13, 65, 84
15, 498344, Note_on_c, 13, 65, 0
15, 498360, Note_on_c, 13, 65, 84
15, 498464, Note_on_c, 13, 65, 0
15, 498480, Note_on_c, 13, 63, 84
15, 498584, Note_on_c, 13, 63, 0
15, 498600, Note_on_c, 13, 63, 84
15, 498704, Note_on_c, 13, 63, 0
15, 498720, Note_on_c, 13, 62, 84
15, 498824, Note_on_c, 13, 62, 0
15, 498840, Note_on_c, 13, 62, 84
15, 498944, Note_on_c, 13, 62, 0
15, 498960, Note_on_c, 13, 60, 84
15, 499064, Note_on_c, 13, 60, 0
15, 499080, Note_on_c, 13, 60, 84
15, 499184, Note_on_c, 13, 60, 0
15, 499200, Note_on_c, 13, 58, 84
15, 499304, Note_on_c, 13, 58, 0
15, 499320, Note_on_c, 13, 58, 84
15, 499424, Note_on_c, 13, 58, 0
15, 499440, Note_on_c, 13, 57, 84
15, 499544, Note_on_c, 13, 57, 0
15, 499560, Note_on_c, 13, 57, 84
15, 499664, Note_on_c, 13, 57, 0
15, 499680, Note_on_c, 13, 55, 84
15, 499784, Note_on_c, 13, 55, 0
15, 499800, Note_on_c, 13, 55, 84
15, 499904, Note_on_c, 13, 55, 0
15, 499920, Note_on_c, 13, 53, 84
15, 500024, Note_on_c, 13, 53, 0
15, 500040, Note_on_c, 13, 53, 84
15, 500144, Note_on_c, 13, 53, 0
15, 500160, Note_on_c, 13, 51, 84
15, 500264, Note_on_c, 13, 51, 0
15, 500280, Note_on_c, 13, 51, 84
15, 500384, Note_on_c, 13, 51, 0
15, 500400, Note_on_c, 13, 50, 84
15, 500504, Note_on_c, 13, 50, 0
15, 500520, Note_on_c, 13, 50, 84
15, 500624, Note_on_c, 13, 50, 0
15, 500640, Note_on_c, 13, 48, 84
15, 500744, Note_on_c, 13, 48, 0
15, 500760, Note_on_c, 13, 48, 84
15, 500864, Note_on_c, 13, 48, 0
15, 500880, Note_on_c, 13, 58, 84
15, 500984, Note_on_c, 13, 58, 0
15, 501000, Note_on_c, 13, 58, 84
15, 501104, Note_on_c, 13, 58, 0
15, 501120, Note_on_c, 13, 53, 84
15, 501359, Note_on_c, 13, 53, 0
15, 504240, Note_on_c, 13, 58, 92
15, 504240, Note_on_c, 13, 61, 92
15, 504719, Note_on_c, 13, 58, 0
15, 504719, Note_on_c, 13, 61, 0
15, 504720, Note_on_c, 13, 60, 84
15, 504720, Note_on_c, 13, 57, 84
15, 504959, Note_on_c, 13, 60, 0
15, 504959, Note_on_c, 13, 57, 0
15, 504960, Note_on_c, 13, 60, 84
15, 504960, Note_on_c, 13, 57, 84
15, 505139, Note_on_c, 13, 60, 0
15, 505139, Note_on_c, 13, 57, 0
15, 505200, Note_on_c, 13, 72, 84
15, 505664, Note_on_c, 13, 72, 0
15, 505680, Note_on_c, 13, 73, 84
15, 506144, Note_on_c, 13, 73, 0
15, 506160, Note_on_c, 13, 75, 84
15, 506624, Note_on_c, 13, 75, 0
15, 506640, Note_on_c, 13, 70, 84
15, 507104, Note_on_c, 13, 70, 0
15, 507120, Note_on_c, 13, 72, 84
15, 507584, Note_on_c, 13, 72, 0
15, 507600, Note_on_c, 13, 73, 84
15, 508064, Note_on_c, 13, 73, 0
15, 508080, Note_on_c, 13, 67, 92
15, 508559, Note_on_c, 13, 67, 0
15, 508560, Note_on_c, 13, 69, 84
15, 508784, Note_on_c, 13, 69, 0
15, 508800, Note_on_c, 13, 65, 76
15, 508919, Note_on_c, 13, 65, 0
15, 508920, Note_on_c, 13, 65, 52
15, 509519, Note_on_c, 13, 65, 0
15, 509520, Note_on_c, 13, 67, 52
15, 509759, Note_on_c, 13, 67, 0
15, 509760, Note_on_c, 13, 60, 52
15, 509999, Note_on_c, 13, 60, 0
15, 510000, Note_on_c, 13, 62, 52
15, 510239, Note_on_c, 13, 62, 0
15, 510240, Note_on_c, 13, 63, 52
15, 510479, Note_on_c, 13, 63, 0
15, 510480, Note_on_c, 13, 57, 52
15, 510719, Note_on_c, 13, 57, 0
15, 510720, Note_on_c, 13, 58, 52
15, 510959, Note_on_c, 13, 58, 0
15, 510960, Note_on_c, 13, 60, 52
15, 511199, Note_on_c, 13, 60, 0
15, 511200, Note_on_c, 13, 53, 52
15, 511439, Note_on_c, 13, 53, 0
15, 511440, Note_on_c, 13, 55, 52
15, 511679, Note_on_c, 13, 55, 0
15, 511680, Note_on_c, 13, 51, 52
15, 511919, Note_on_c, 13, 51, 0
15, 511920, Note_on_c, 13, 50, 52
15, 512159, Note_on_c, 13, 50, 0
15, 512160, Note_on_c, 13, 48, 52
15, 512399, Note_on_c, 13, 48, 0
15, 512400, Note_on_c, 13, 53, 52
15, 512624, Note_on_c, 13, 53, 0
15, 512640, Note_on_c, 13, 50, 52
15, 513599, Note_on_c, 13, 50, 0
15, 513600, Note_on_c, 13, 50, 52
15, 514559, Note_on_c, 13, 50, 0
15, 514560, Note_on_c, 13, 50, 52
15, 515519, Note_on_c, 13, 50, 0
15, 515520, Note_on_c, 13, 50, 52
15, 516464, Note_on_c, 13, 50, 0
15, 516480, Note_on_c, 13, 55, 52
15, 517439, Note_on_c, 13, 55, 0
15, 517440, Note_on_c, 13, 55, 52
15, 518384, Note_on_c, 13, 55, 0
15, 518400, Note_on_c, 13, 54, 52
15, 518624, Note_on_c, 13, 54, 0
15, 518640, Note_on_c, 13, 54, 52
15, 518864, Note_on_c, 13, 54, 0
15, 518880, Note_on_c, 13, 57, 52
15, 519119, Note_on_c, 13, 57, 0
15, 519600, Note_on_c, 13, 55, 52
15, 519824, Note_on_c, 13, 55, 0
15, 519840, Note_on_c, 13, 58, 52
15, 520079, Note_on_c, 13, 58, 0
15, 520560, Note_on_c, 13, 57, 52
15, 520784, Note_on_c, 13, 57, 0
15, 520800, Note_on_c, 13, 60, 52
15, 521039, Note_on_c, 13, 60, 0
15, 521520, Note_on_c, 13, 55, 52
15, 521744, Note_on_c, 13, 55, 0
15, 521760, Note_on_c, 13, 58, 52
15, 521999, Note_on_c, 13, 58, 0
15, 522240, Note_on_c, 13, 54, 52
15, 523199, Note_on_c, 13, 54, 0
15, 523200, Note_on_c, 13, 55, 52
15, 524159, Note_on_c, 13, 55, 0
15, 524160, Note_on_c, 13, 57, 52
15, 525119, Note_on_c, 13, 57, 0
15, 525120, Note_on_c, 13, 55, 52
15, 526064, Note_on_c, 13, 55, 0
15, 526078, Control_c, 13, 11, 64
15, 526080, Control_c, 13, 11, 64
15, 526080, Note_on_c, 13, 50, 76
15, 526248, Control_c, 13, 11, 65
15, 526415, Control_c, 13, 11, 66
15, 526439, Note_on_c, 13, 50, 0
15, 526560, Note_on_c, 13, 51, 76
15, 526583, Control_c, 13, 11, 67
15, 526750, Control_c, 13, 11, 68
15, 526918, Control_c, 13, 11, 69
15, 526919, Note_on_c, 13, 51, 0
15, 527040, Note_on_c, 13, 48, 76
15, 527086, Control_c, 13, 11, 70
15, 527253, Control_c, 13, 11, 71
15, 527399, Note_on_c, 13, 48, 0
15, 527421, Control_c, 13, 11, 72
15, 527520, Note_on_c, 13, 52, 76
15, 527589, Control_c, 13, 11, 73
15, 527756, Control_c, 13, 11, 74
15, 527879, Note_on_c, 13, 52, 0
15, 527924, Control_c, 13, 11, 75
15, 528000, Note_on_c, 13, 53, 76
15, 528091, Control_c, 13, 11, 76
15, 528259, Control_c, 13, 11, 77
15, 528359, Note_on_c, 13, 53, 0
15, 528427, Control_c, 13, 11, 78
15, 528480, Note_on_c, 13, 50, 76
15, 528594, Control_c, 13, 11, 79
15, 528762, Control_c, 13, 11, 80
15, 528839, Note_on_c, 13, 50, 0
15, 528930, Control_c, 13, 11, 81
15, 528960, Note_on_c, 13, 53, 76
15, 529097, Control_c, 13, 11, 82
15, 529265, Control_c, 13, 11, 83
15, 529319, Note_on_c, 13, 53, 0
15, 529432, Control_c, 13, 11, 84
15, 529440, Note_on_c, 13, 55, 76
15, 529600, Control_c, 13, 11, 85
15, 529768, Control_c, 13, 11, 86
15, 529799, Note_on_c, 13, 55, 0
15, 529920, Note_on_c, 13, 51, 76
15, 529935, Control_c, 13, 11, 87
15, 530103, Control_c, 13, 11, 88
15, 530270, Control_c, 13, 11, 89
15, 530279, Note_on_c, 13, 51, 0
15, 530400, Note_on_c, 13, 55, 76
15, 530438, Control_c, 13, 11, 90
15, 530606, Control_c, 13, 11, 91
15, 530759, Note_on_c, 13, 55, 0
15, 530773, Control_c, 13, 11, 92
15, 530880, Note_on_c, 13, 57, 76
15, 530941, Control_c, 13, 11, 93
15, 531109, Control_c, 13, 11, 94
15, 531239, Note_on_c, 13, 57, 0
15, 531276, Control_c, 13, 11, 95
15, 531360, Note_on_c, 13, 53, 76
15, 531444, Control_c, 13, 11, 96
15, 531611, Control_c, 13, 11, 97
15, 531719, Note_on_c, 13, 53, 0
15, 531779, Control_c, 13, 11, 98
15, 531840, Note_on_c, 13, 57, 76
15, 531947, Control_c, 13, 11, 99
15, 532114, Control_c, 13, 11, 100
15, 532199, Note_on_c, 13, 57, 0
15, 532282, Control_c, 13, 11, 101
15, 532320, Note_on_c, 13, 58, 76
15, 532450, Control_c, 13, 11, 102
15, 532617, Control_c, 13, 11, 103
15, 532679, Note_on_c, 13, 58, 0
15, 532785, Control_c, 13, 11, 104
15, 532800, Note_on_c, 13, 55, 76
15, 532952, Control_c, 13, 11, 105
15, 533120, Control_c, 13, 11, 106
15, 533159, Note_on_c, 13, 55, 0
15, 533280, Note_on_c, 13, 59, 76
15, 533288, Control_c, 13, 11, 107
15, 533455, Control_c, 13, 11, 108
15, 533623, Control_c, 13, 11, 109
15, 533639, Note_on_c, 13, 59, 0
15, 533760, Note_on_c, 13, 60, 76
15, 533790, Control_c, 13, 11, 110
15, 533958, Control_c, 13, 11, 111
15, 534119, Note_on_c, 13, 60, 0
15, 534126, Control_c, 13, 11, 112
15, 534240, Note_on_c, 13, 57, 76
15, 534293, Control_c, 13, 11, 113
15, 534461, Control_c, 13, 11, 114
15, 534599, Note_on_c, 13, 57, 0
15, 534629, Control_c, 13, 11, 115
15, 534720, Note_on_c, 13, 60, 76
15, 534796, Control_c, 13, 11, 116
15, 534964, Control_c, 13, 11, 117
15, 535079, Note_on_c, 13, 60, 0
15, 535131, Control_c, 13, 11, 118
15, 535200, Note_on_c, 13, 62, 76
15, 535299, Control_c, 13, 11, 119
15, 535467, Control_c, 13, 11, 120
15, 535559, Note_on_c, 13, 62, 0
15, 535634, Control_c, 13, 11, 121
15, 535680, Note_on_c, 13, 63, 76
15, 535802, Control_c, 13, 11, 122
15, 535970, Control_c, 13, 11, 123
15, 536039, Note_on_c, 13, 63, 0
15, 536137, Control_c, 13, 11, 124
15, 536160, Note_on_c, 13, 64, 76
15, 536305, Control_c, 13, 11, 125
15, 536472, Control_c, 13, 11, 127
15, 536519, Note_on_c, 13, 64, 0
15, 536640, Note_on_c, 13, 65, 76
15, 536999, Note_on_c, 13, 65, 0
15, 537120, Note_on_c, 13, 63, 76
15, 537479, Note_on_c, 13, 63, 0
15, 537600, Note_on_c, 13, 60, 76
15, 537959, Note_on_c, 13, 60, 0
15, 538080, Note_on_c, 13, 57, 76
15, 538439, Note_on_c, 13, 57, 0
15, 538560, Note_on_c, 13, 53, 76
15, 538919, Note_on_c, 13, 53, 0
15, 539040, Note_on_c, 13, 51, 76
15, 539399, Note_on_c, 13, 51, 0
15, 539520, Note_on_c, 13, 50, 76
15, 539744, Note_on_c, 13, 50, 0
15, 539760, Note_on_c, 13, 58, 76
15, 540224, Note_on_c, 13, 58, 0
15, 540240, Note_on_c, 13, 58, 76
15, 540464, Note_on_c, 13, 58, 0
15, 540480, Note_on_c, 13, 58, 76
15, 540704, Note_on_c, 13, 58, 0
15, 540720, Note_on_c, 13, 55, 76
15, 541184, Note_on_c, 13, 55, 0
15, 541200, Note_on_c, 13, 60, 76
15, 541424, Note_on_c, 13, 60, 0
15, 541440, Note_on_c, 13, 58, 76
15, 541664, Note_on_c, 13, 58, 0
15, 541680, Note_on_c, 13, 53, 76
15, 542144, Note_on_c, 13, 53, 0
15, 542160, Note_on_c, 13, 58, 76
15, 542384, Note_on_c, 13, 58, 0
15, 542400, Note_on_c, 13, 57, 76
15, 542624, Note_on_c, 13, 57, 0
15, 542640, Note_on_c, 13, 57, 76
15, 542864, Note_on_c, 13, 57, 0
15, 542880, Note_on_c, 13, 57, 76
15, 543104, Note_on_c, 13, 57, 0
15, 543120, Note_on_c, 13, 57, 76
15, 543344, Note_on_c, 13, 57, 0
15, 543360, Note_on_c, 13, 58, 76
15, 543599, Note_on_c, 13, 58, 0
15, 543600, Note_on_c, 13, 53, 76
15, 543824, Note_on_c, 13, 53, 0
15, 543840, Note_on_c, 13, 55, 76
15, 544079, Note_on_c, 13, 55, 0
15, 544080, Note_on_c, 13, 60, 76
15, 544304, Note_on_c, 13, 60, 0
15, 544320, Note_on_c, 13, 53, 76
15, 544559, Note_on_c, 13, 53, 0
15, 544560, Note_on_c, 13, 58, 76
15, 544784, Note_on_c, 13, 58, 0
15, 544800, Note_on_c, 13, 51, 76
15, 545039, Note_on_c, 13, 51, 0
15, 545040, Note_on_c, 13, 57, 76
15, 545264, Note_on_c, 13, 57, 0
15, 545280, Note_on_c, 13, 50, 52
15, 545519, Note_on_c, 13, 50, 0
15, 549840, Note_on_c, 13, 55, 52
15, 550079, Note_on_c, 13, 55, 0
15, 550080, Note_on_c, 13, 57, 52
15, 550319, Note_on_c, 13, 57, 0
15, 550320, Note_on_c, 13, 58, 52
15, 550559, Note_on_c, 13, 58, 0
15, 550560, Note_on_c, 13, 60, 52
15, 550799, Note_on_c, 13, 60, 0
15, 550800, Note_on_c, 13, 58, 52
15, 551024, Note_on_c, 13, 58, 0
15, 551040, Note_on_c, 13, 57, 52
15, 551759, Note_on_c, 13, 57, 0
15, 551760, Note_on_c, 13, 55, 52
15, 551999, Note_on_c, 13, 55, 0
15, 552000, Note_on_c, 13, 53, 52
15, 552239, Note_on_c, 13, 53, 0
15, 552240, Note_on_c, 13, 55, 52
15, 552479, Note_on_c, 13, 55, 0
15, 552480, Note_on_c, 13, 51, 52
15, 552719, Note_on_c, 13, 51, 0
15, 552720, Note_on_c, 13, 48, 52
15, 552944, Note_on_c, 13, 48, 0
15, 553680, Note_on_c, 13, 65, 76
15, 553784, Note_on_c, 13, 65, 0
15, 553800, Note_on_c, 13, 65, 76
15, 553904, Note_on_c, 13, 65, 0
15, 553920, Note_on_c, 13, 62, 76
15, 554024, Note_on_c, 13, 62, 0
15, 554040, Note_on_c, 13, 62, 76
15, 554144, Note_on_c, 13, 62, 0
15, 554160, Note_on_c, 13, 63, 76
15, 554264, Note_on_c, 13, 63, 0
15, 554280, Note_on_c, 13, 63, 76
15, 554384, Note_on_c, 13, 63, 0
15, 554400, Note_on_c, 13, 65, 76
15, 554504, Note_on_c, 13, 65, 0
15, 554520, Note_on_c, 13, 65, 76
15, 554624, Note_on_c, 13, 65, 0
15, 554640, Note_on_c, 13, 53, 76
15, 554744, Note_on_c, 13, 53, 0
15, 554760, Note_on_c, 13, 53, 76
15, 554864, Note_on_c, 13, 53, 0
15, 554880, Note_on_c, 13, 58, 76
15, 555584, Note_on_c, 13, 58, 0
15, 555600, Note_on_c, 13, 60, 76
15, 555704, Note_on_c, 13, 60, 0
15, 555720, Note_on_c, 13, 60, 76
15, 555824, Note_on_c, 13, 60, 0
15, 555840, Note_on_c, 13, 62, 76
15, 555944, Note_on_c, 13, 62, 0
15, 555960, Note_on_c, 13, 62, 76
15, 556064, Note_on_c, 13, 62, 0
15, 556080, Note_on_c, 13, 58, 76
15, 556184, Note_on_c, 13, 58, 0
15, 556200, Note_on_c, 13, 58, 76
15, 556304, Note_on_c, 13, 58, 0
15, 556320, Note_on_c, 13, 62, 76
15, 556424, Note_on_c, 13, 62, 0
15, 556440, Note_on_c, 13, 62, 76
15, 556544, Note_on_c, 13, 62, 0
15, 556560, Note_on_c, 13, 63, 76
15, 556664, Note_on_c, 13, 63, 0
15, 556680, Note_on_c, 13, 63, 76
15, 556784, Note_on_c, 13, 63, 0
15, 556800, Note_on_c, 13, 65, 76
15, 557504, Note_on_c, 13, 65, 0
15, 557520, Note_on_c, 13, 67, 76
15, 557624, Note_on_c, 13, 67, 0
15, 557640, Note_on_c, 13, 67, 76
15, 557744, Note_on_c, 13, 67, 0
15, 557760, Note_on_c, 13, 69, 76
15, 557864, Note_on_c, 13, 69, 0
15, 557880, Note_on_c, 13, 69, 76
15, 557984, Note_on_c, 13, 69, 0
15, 558000, Note_on_c, 13, 70, 76
15, 558104, Note_on_c, 13, 70, 0
15, 558120, Note_on_c, 13, 70, 76
15, 558224, Note_on_c, 13, 70, 0
15, 558240, Note_on_c, 13, 72, 76
15, 558344, Note_on_c, 13, 72, 0
15, 558360, Note_on_c, 13, 72, 76
15, 558464, Note_on_c, 13, 72, 0
15, 558480, Note_on_c, 13, 70, 76
15, 558584, Note_on_c, 13, 70, 0
15, 558600, Note_on_c, 13, 70, 76
15, 558704, Note_on_c, 13, 70, 0
15, 558720, Note_on_c, 13, 69, 76
15, 559424, Note_on_c, 13, 69, 0
15, 559440, Note_on_c, 13, 67, 76
15, 559544, Note_on_c, 13, 67, 0
15, 559560, Note_on_c, 13, 67, 76
15, 559664, Note_on_c, 13, 67, 0
15, 559680, Note_on_c, 13, 65, 76
15, 559784, Note_on_c, 13, 65, 0
15, 559800, Note_on_c, 13, 65, 76
15, 559904, Note_on_c, 13, 65, 0
15, 559920, Note_on_c, 13, 67, 76
15, 560024, Note_on_c, 13, 67, 0
15, 560040, Note_on_c, 13, 67, 76
15, 560144, Note_on_c, 13, 67, 0
15, 560160, Note_on_c, 13, 63, 76
15, 560264, Note_on_c, 13, 63, 0
15, 560280, Note_on_c, 13, 63, 76
15, 560384, Note_on_c, 13, 63, 0
15, 560400, Note_on_c, 13, 60, 76
15, 560504, Note_on_c, 13, 60, 0
15, 560520, Note_on_c, 13, 60, 76
15, 560624, Note_on_c, 13, 60, 0
15, 560640, Note_on_c, 13, 57, 76
15, 560879, Note_on_c, 13, 57, 0
15, 561840, Note_on_c, 13, 67, 52
15, 562079, Note_on_c, 13, 67, 0
15, 562080, Note_on_c, 13, 63, 52
15, 562319, Note_on_c, 13, 63, 0
15, 562320, Note_on_c, 13, 60, 52
15, 562544, Note_on_c, 13, 60, 0
15, 562560, Note_on_c, 13, 57, 44
15, 562664, Note_on_c, 13, 57, 0
15, 562680, Note_on_c, 13, 57, 44
15, 562784, Note_on_c, 13, 57, 0
15, 562800, Note_on_c, 13, 57, 44
15, 562904, Note_on_c, 13, 57, 0
15, 562920, Note_on_c, 13, 57, 44
15, 563024, Note_on_c, 13, 57, 0
15, 563040, Note_on_c, 13, 57, 44
15, 563144, Note_on_c, 13, 57, 0
15, 563160, Note_on_c, 13, 57, 44
15, 563264, Note_on_c, 13, 57, 0
15, 563280, Note_on_c, 13, 57, 44
15, 563384, Note_on_c, 13, 57, 0
15, 563400, Note_on_c, 13, 57, 44
15, 563504, Note_on_c, 13, 57, 0
15, 563520, Note_on_c, 13, 57, 44
15, 563624, Note_on_c, 13, 57, 0
15, 563640, Note_on_c, 13, 57, 44
15, 563744, Note_on_c, 13, 57, 0
15, 563760, Note_on_c, 13, 57, 44
15, 563864, Note_on_c, 13, 57, 0
15, 563880, Note_on_c, 13, 57, 44
15, 563984, Note_on_c, 13, 57, 0
15, 564000, Note_on_c, 13, 57, 44
15, 564104, Note_on_c, 13, 57, 0
15, 564120, Note_on_c, 13, 57, 44
15, 564224, Note_on_c, 13, 57, 0
15, 564240, Note_on_c, 13, 57, 44
15, 564344, Note_on_c, 13, 57, 0
15, 564360, Note_on_c, 13, 57, 44
15, 564464, Note_on_c, 13, 57, 0
15, 564480, Note_on_c, 13, 58, 84
15, 564719, Note_on_c, 13, 58, 0
15, 565200, Note_on_c, 13, 58, 84
15, 565424, Note_on_c, 13, 58, 0
15, 565440, Note_on_c, 13, 60, 84
15, 565679, Note_on_c, 13, 60, 0
15, 565920, Note_on_c, 13, 60, 84
15, 565920, Note_on_c, 13, 53, 84
15, 566159, Note_on_c, 13, 60, 0
15, 566159, Note_on_c, 13, 53, 0
15, 566400, Note_on_c, 13, 57, 44
15, 566504, Note_on_c, 13, 57, 0
15, 566520, Note_on_c, 13, 57, 44
15, 566624, Note_on_c, 13, 57, 0
15, 566640, Note_on_c, 13, 57, 44
15, 566744, Note_on_c, 13, 57, 0
15, 566760, Note_on_c, 13, 57, 44
15, 566864, Note_on_c, 13, 57, 0
15, 566880, Note_on_c, 13, 57, 44
15, 566984, Note_on_c, 13, 57, 0
15, 567000, Note_on_c, 13, 57, 44
15, 567104, Note_on_c, 13, 57, 0
15, 567120, Note_on_c, 13, 57, 44
15, 567224, Note_on_c, 13, 57, 0
15, 567240, Note_on_c, 13, 57, 44
15, 567344, Note_on_c, 13, 57, 0
15, 567360, Note_on_c, 13, 57, 44
15, 567464, Note_on_c, 13, 57, 0
15, 567480, Note_on_c, 13, 57, 44
15, 567584, Note_on_c, 13, 57, 0
15, 567600, Note_on_c, 13, 57, 44
15, 567704, Note_on_c, 13, 57, 0
15, 567720, Note_on_c, 13, 57, 44
15, 567824, Note_on_c, 13, 57, 0
15, 567840, Note_on_c, 13, 57, 44
15, 567944, Note_on_c, 13, 57, 0
15, 567960, Note_on_c, 13, 57, 44
15, 568064, Note_on_c, 13, 57, 0
15, 568080, Note_on_c, 13, 57, 44
15, 568184, Note_on_c, 13, 57, 0
15, 568200, Note_on_c, 13, 57, 44
15, 568304, Note_on_c, 13, 57, 0
15, 568320, Note_on_c, 13, 58, 84
15, 568559, Note_on_c, 13, 58, 0
15, 569040, Note_on_c, 13, 55, 84
15, 569264, Note_on_c, 13, 55, 0
15, 569280, Note_on_c, 13, 60, 84
15, 569519, Note_on_c, 13, 60, 0
15, 569760, Note_on_c, 13, 53, 84
15, 569999, Note_on_c, 13, 53, 0
15, 570240, Note_on_c, 13, 52, 44
15, 570344, Note_on_c, 13, 52, 0
15, 570360, Note_on_c, 13, 52, 46
15, 570464, Note_on_c, 13, 52, 0
15, 570480, Note_on_c, 13, 52, 48
15, 570584, Note_on_c, 13, 52, 0
15, 570600, Note_on_c, 13, 52, 50
15, 570704, Note_on_c, 13, 52, 0
15, 570720, Note_on_c, 13, 52, 52
15, 570824, Note_on_c, 13, 52, 0
15, 570840, Note_on_c, 13, 52, 54
15, 570944, Note_on_c, 13, 52, 0
15, 570960, Note_on_c, 13, 52, 56
15, 571064, Note_on_c, 13, 52, 0
15, 571080, Note_on_c, 13, 52, 58
15, 571184, Note_on_c, 13, 52, 0
15, 571200, Note_on_c, 13, 52, 60
15, 571304, Note_on_c, 13, 52, 0
15, 571320, Note_on_c, 13, 52, 62
15, 571424, Note_on_c, 13, 52, 0
15, 571440, Note_on_c, 13, 52, 64
15, 571544, Note_on_c, 13, 52, 0
15, 571560, Note_on_c, 13, 52, 66
15, 571664, Note_on_c, 13, 52, 0
15, 571680, Note_on_c, 13, 52, 68
15, 571784, Note_on_c, 13, 52, 0
15, 571800, Note_on_c, 13, 52, 70
15, 571904, Note_on_c, 13, 52, 0
15, 571920, Note_on_c, 13, 52, 72
15, 572024, Note_on_c, 13, 52, 0
15, 572040, Note_on_c, 13, 52, 74
15, 572144, Note_on_c, 13, 52, 0
15, 572160, Note_on_c, 13, 52, 76
15, 572264, Note_on_c, 13, 52, 0
15, 572280, Note_on_c, 13, 52, 76
15, 572384, Note_on_c, 13, 52, 0
15, 572400, Note_on_c, 13, 52, 76
15, 572504, Note_on_c, 13, 52, 0
15, 572520, Note_on_c, 13, 52, 76
15, 572624, Note_on_c, 13, 52, 0
15, 572640, Note_on_c, 13, 52, 76
15, 572744, Note_on_c, 13, 52, 0
15, 572760, Note_on_c, 13, 52, 76
15, 572864, Note_on_c, 13, 52, 0
15, 572880, Note_on_c, 13, 52, 76
15, 572984, Note_on_c, 13, 52, 0
15, 573000, Note_on_c, 13, 52, 76
15, 573104, Note_on_c, 13, 52, 0
15, 573120, Note_on_c, 13, 53, 76
15, 573224, Note_on_c, 13, 53, 0
15, 573240, Note_on_c, 13, 53, 76
15, 573344, Note_on_c, 13, 53, 0
15, 573360, Note_on_c, 13, 53, 76
15, 573464, Note_on_c, 13, 53, 0
15, 573480, Note_on_c, 13, 53, 76
15, 573584, Note_on_c, 13, 53, 0
15, 573600, Note_on_c, 13, 53, 76
15, 573704, Note_on_c, 13, 53, 0
15, 573720, Note_on_c, 13, 53, 76
15, 573824, Note_on_c, 13, 53, 0
15, 573840, Note_on_c, 13, 53, 76
15, 573944, Note_on_c, 13, 53, 0
15, 573960, Note_on_c, 13, 53, 76
15, 574064, Note_on_c, 13, 53, 0
15, 574080, Note_on_c, 13, 55, 76
15, 574184, Note_on_c, 13, 55, 0
15, 574200, Note_on_c, 13, 55, 76
15, 574304, Note_on_c, 13, 55, 0
15, 574320, Note_on_c, 13, 55, 76
15, 574424, Note_on_c, 13, 55, 0
15, 574440, Note_on_c, 13, 55, 76
15, 574544, Note_on_c, 13, 55, 0
15, 574560, Note_on_c, 13, 55, 76
15, 574664, Note_on_c, 13, 55, 0
15, 574680, Note_on_c, 13, 55, 76
15, 574784, Note_on_c, 13, 55, 0
15, 574800, Note_on_c, 13, 55, 76
15, 574904, Note_on_c, 13, 55, 0
15, 574920, Note_on_c, 13, 55, 76
15, 575024, Note_on_c, 13, 55, 0
15, 575040, Note_on_c, 13, 57, 76
15, 575144, Note_on_c, 13, 57, 0
15, 575160, Note_on_c, 13, 57, 76
15, 575264, Note_on_c, 13, 57, 0
15, 575280, Note_on_c, 13, 57, 76
15, 575384, Note_on_c, 13, 57, 0
15, 575400, Note_on_c, 13, 57, 76
15, 575504, Note_on_c, 13, 57, 0
15, 575520, Note_on_c, 13, 57, 76
15, 575624, Note_on_c, 13, 57, 0
15, 575640, Note_on_c, 13, 57, 76
15, 575744, Note_on_c, 13, 57, 0
15, 575760, Note_on_c, 13, 57, 76
15, 575864, Note_on_c, 13, 57, 0
15, 575880, Note_on_c, 13, 57, 76
15, 575984, Note_on_c, 13, 57, 0
15, 576000, Note_on_c, 13, 58, 84
15, 576104, Note_on_c, 13, 58, 0
15, 576120, Note_on_c, 13, 54, 84
15, 576224, Note_on_c, 13, 54, 0
15, 576240, Note_on_c, 13, 54, 84
15, 576344, Note_on_c, 13, 54, 0
15, 576360, Note_on_c, 13, 54, 84
15, 576464, Note_on_c, 13, 54, 0
15, 576480, Note_on_c, 13, 54, 84
15, 576584, Note_on_c, 13, 54, 0
15, 576600, Note_on_c, 13, 54, 84
15, 576704, Note_on_c, 13, 54, 0
15, 576720, Note_on_c, 13, 54, 84
15, 576824, Note_on_c, 13, 54, 0
15, 576840, Note_on_c, 13, 54, 84
15, 576944, Note_on_c, 13, 54, 0
15, 576960, Note_on_c, 13, 54, 84
15, 577064, Note_on_c, 13, 54, 0
15, 577080, Note_on_c, 13, 54, 84
15, 577184, Note_on_c, 13, 54, 0
15, 577200, Note_on_c, 13, 54, 84
15, 577304, Note_on_c, 13, 54, 0
15, 577320, Note_on_c, 13, 54, 84
15, 577424, Note_on_c, 13, 54, 0
15, 577440, Note_on_c, 13, 54, 84
15, 577544, Note_on_c, 13, 54, 0
15, 577560, Note_on_c, 13, 54, 84
15, 577664, Note_on_c, 13, 54, 0
15, 577680, Note_on_c, 13, 54, 84
15, 577784, Note_on_c, 13, 54, 0
15, 577800, Note_on_c, 13, 54, 84
15, 577904, Note_on_c, 13, 54, 0
15, 577920, Note_on_c, 13, 53, 92
15, 578024, Note_on_c, 13, 53, 0
15, 578040, Note_on_c, 13, 53, 84
15, 578144, Note_on_c, 13, 53, 0
15, 578160, Note_on_c, 13, 53, 84
15, 578264, Note_on_c, 13, 53, 0
15, 578280, Note_on_c, 13, 53, 84
15, 578384, Note_on_c, 13, 53, 0
15, 578400, Note_on_c, 13, 53, 84
15, 578504, Note_on_c, 13, 53, 0
15, 578520, Note_on_c, 13, 53, 84
15, 578624, Note_on_c, 13, 53, 0
15, 578640, Note_on_c, 13, 53, 84
15, 578744, Note_on_c, 13, 53, 0
15, 578760, Note_on_c, 13, 53, 84
15, 578864, Note_on_c, 13, 53, 0
15, 578880, Note_on_c, 13, 53, 84
15, 578984, Note_on_c, 13, 53, 0
15, 579000, Note_on_c, 13, 53, 84
15, 579104, Note_on_c, 13, 53, 0
15, 579120, Note_on_c, 13, 53, 84
15, 579224, Note_on_c, 13, 53, 0
15, 579240, Note_on_c, 13, 53, 84
15, 579344, Note_on_c, 13, 53, 0
15, 579360, Note_on_c, 13, 53, 84
15, 579464, Note_on_c, 13, 53, 0
15, 579480, Note_on_c, 13, 53, 84
15, 579584, Note_on_c, 13, 53, 0
15, 579600, Note_on_c, 13, 53, 84
15, 579704, Note_on_c, 13, 53, 0
15, 579720, Note_on_c, 13, 53, 84
15, 579824, Note_on_c, 13, 53, 0
15, 579840, Note_on_c, 13, 58, 84
15, 579944, Note_on_c, 13, 58, 0
15, 579960, Note_on_c, 13, 62, 84
15, 580064, Note_on_c, 13, 62, 0
15, 580080, Note_on_c, 13, 62, 84
15, 580184, Note_on_c, 13, 62, 0
15, 580200, Note_on_c, 13, 62, 84
15, 580304, Note_on_c, 13, 62, 0
15, 580320, Note_on_c, 13, 58, 84
15, 580424, Note_on_c, 13, 58, 0
15, 580440, Note_on_c, 13, 62, 84
15, 580544, Note_on_c, 13, 62, 0
15, 580560, Note_on_c, 13, 62, 84
15, 580664, Note_on_c, 13, 62, 0
15, 580680, Note_on_c, 13, 62, 84
15, 580784, Note_on_c, 13, 62, 0
15, 580800, Note_on_c, 13, 58, 84
15, 580904, Note_on_c, 13, 58, 0
15, 580920, Note_on_c, 13, 62, 84
15, 581024, Note_on_c, 13, 62, 0
15, 581040, Note_on_c, 13, 62, 84
15, 581144, Note_on_c, 13, 62, 0
15, 581160, Note_on_c, 13, 62, 84
15, 581264, Note_on_c, 13, 62, 0
15, 581280, Note_on_c, 13, 58, 84
15, 581384, Note_on_c, 13, 58, 0
15, 581400, Note_on_c, 13, 62, 84
15, 581504, Note_on_c, 13, 62, 0
15, 581520, Note_on_c, 13, 62, 84
15, 581624, Note_on_c, 13, 62, 0
15, 581640, Note_on_c, 13, 62, 84
15, 581744, Note_on_c, 13, 62, 0
15, 581760, Note_on_c, 13, 58, 84
15, 581864, Note_on_c, 13, 58, 0
15, 581880, Note_on_c, 13, 62, 84
15, 581984, Note_on_c, 13, 62, 0
15, 582000, Note_on_c, 13, 62, 84
15, 582104, Note_on_c, 13, 62, 0
15, 582120, Note_on_c, 13, 62, 84
15, 582224, Note_on_c, 13, 62, 0
15, 582240, Note_on_c, 13, 58, 84
15, 582344, Note_on_c, 13, 58, 0
15, 582360, Note_on_c, 13, 62, 84
15, 582464, Note_on_c, 13, 62, 0
15, 582480, Note_on_c, 13, 62, 84
15, 582584, Note_on_c, 13, 62, 0
15, 582600, Note_on_c, 13, 62, 84
15, 582704, Note_on_c, 13, 62, 0
15, 582720, Note_on_c, 13, 58, 84
15, 582824, Note_on_c, 13, 58, 0
15, 582840, Note_on_c, 13, 58, 84
15, 582944, Note_on_c, 13, 58, 0
15, 582960, Note_on_c, 13, 60, 84
15, 583064, Note_on_c, 13, 60, 0
15, 583080, Note_on_c, 13, 60, 84
15, 583184, Note_on_c, 13, 60, 0
15, 583200, Note_on_c, 13, 57, 84
15, 583304, Note_on_c, 13, 57, 0
15, 583320, Note_on_c, 13, 57, 84
15, 583424, Note_on_c, 13, 57, 0
15, 583440, Note_on_c, 13, 60, 84
15, 583544, Note_on_c, 13, 60, 0
15, 583560, Note_on_c, 13, 60, 84
15, 583664, Note_on_c, 13, 60, 0
15, 583680, Note_on_c, 13, 58, 84
15, 583784, Note_on_c, 13, 58, 0
15, 583800, Note_on_c, 13, 62, 84
15, 583904, Note_on_c, 13, 62, 0
15, 583920, Note_on_c, 13, 62, 84
15, 584024, Note_on_c, 13, 62, 0
15, 584040, Note_on_c, 13, 62, 84
15, 584144, Note_on_c, 13, 62, 0
15, 584160, Note_on_c, 13, 58, 84
15, 584264, Note_on_c, 13, 58, 0
15, 584280, Note_on_c, 13, 62, 84
15, 584384, Note_on_c, 13, 62, 0
15, 584400, Note_on_c, 13, 62, 84
15, 584504, Note_on_c, 13, 62, 0
15, 584520, Note_on_c, 13, 62, 84
15, 584624, Note_on_c, 13, 62, 0
15, 584640, Note_on_c, 13, 58, 84
15, 584744, Note_on_c, 13, 58, 0
15, 584760, Note_on_c, 13, 62, 84
15, 584864, Note_on_c, 13, 62, 0
15, 584880, Note_on_c, 13, 62, 84
15, 584984, Note_on_c, 13, 62, 0
15, 585000, Note_on_c, 13, 62, 84
15, 585104, Note_on_c, 13, 62, 0
15, 585120, Note_on_c, 13, 58, 84
15, 585224, Note_on_c, 13, 58, 0
15, 585240, Note_on_c, 13, 62, 84
15, 585344, Note_on_c, 13, 62, 0
15, 585360, Note_on_c, 13, 62, 84
15, 585464, Note_on_c, 13, 62, 0
15, 585480, Note_on_c, 13, 62, 84
15, 585584, Note_on_c, 13, 62, 0
15, 585600, Note_on_c, 13, 58, 84
15, 585704, Note_on_c, 13, 58, 0
15, 585720, Note_on_c, 13, 62, 84
15, 585824, Note_on_c, 13, 62, 0
15, 585840, Note_on_c, 13, 62, 84
15, 585944, Note_on_c, 13, 62, 0
15, 585960, Note_on_c, 13, 62, 84
15, 586064, Note_on_c, 13, 62, 0
15, 586080, Note_on_c, 13, 58, 84
15, 586184, Note_on_c, 13, 58, 0
15, 586200, Note_on_c, 13, 62, 84
15, 586304, Note_on_c, 13, 62, 0
15, 586320, Note_on_c, 13, 62, 84
15, 586424, Note_on_c, 13, 62, 0
15, 586440, Note_on_c, 13, 62, 84
15, 586544, Note_on_c, 13, 62, 0
15, 586560, Note_on_c, 13, 58, 84
15, 586664, Note_on_c, 13, 58, 0
15, 586680, Note_on_c, 13, 58, 84
15, 586784, Note_on_c, 13, 58, 0
15, 586800, Note_on_c, 13, 60, 84
15, 586904, Note_on_c, 13, 60, 0
15, 586920, Note_on_c, 13, 60, 84
15, 587024, Note_on_c, 13, 60, 0
15, 587040, Note_on_c, 13, 57, 84
15, 587144, Note_on_c, 13, 57, 0
15, 587160, Note_on_c, 13, 57, 84
15, 587264, Note_on_c, 13, 57, 0
15, 587280, Note_on_c, 13, 60, 84
15, 587384, Note_on_c, 13, 60, 0
15, 587400, Note_on_c, 13, 60, 84
15, 587504, Note_on_c, 13, 60, 0
15, 587520, Note_on_c, 13, 58, 84
15, 587520, Note_on_c, 13, 62, 84
15, 587624, Note_on_c, 13, 58, 0
15, 587624, Note_on_c, 13, 62, 0
15, 587640, Note_on_c, 13, 62, 84
15, 587640, Note_on_c, 13, 65, 84
15, 587744, Note_on_c, 13, 62, 0
15, 587744, Note_on_c, 13, 65, 0
15, 587760, Note_on_c, 13, 65, 84
15, 587760, Note_on_c, 13, 62, 84
15, 587864, Note_on_c, 13, 65, 0
15, 587864, Note_on_c, 13, 62, 0
15, 587880, Note_on_c, 13, 62, 84
15, 587880, Note_on_c, 13, 65, 84
15, 587984, Note_on_c, 13, 62, 0
15, 587984, Note_on_c, 13, 65, 0
15, 588000, Note_on_c, 13, 58, 84
15, 588000, Note_on_c, 13, 62, 84
15, 588104, Note_on_c, 13, 58, 0
15, 588104, Note_on_c, 13, 62, 0
15, 588120, Note_on_c, 13, 65, 84
15, 588120, Note_on_c, 13, 62, 84
15, 588224, Note_on_c, 13, 65, 0
15, 588224, Note_on_c, 13, 62, 0
15, 588240, Note_on_c, 13, 65, 84
15, 588240, Note_on_c, 13, 62, 84
15, 588344, Note_on_c, 13, 65, 0
15, 588344, Note_on_c, 13, 62, 0
15, 588360, Note_on_c, 13, 65, 84
15, 588360, Note_on_c, 13, 62, 84
15, 588464, Note_on_c, 13, 65, 0
15, 588464, Note_on_c, 13, 62, 0
15, 588480, Note_on_c, 13, 58, 84
15, 588480, Note_on_c, 13, 62, 84
15, 588584, Note_on_c, 13, 58, 0
15, 588584, Note_on_c, 13, 62, 0
15, 588600, Note_on_c, 13, 58, 84
15, 588600, Note_on_c, 13, 62, 84
15, 588704, Note_on_c, 13, 58, 0
15, 588704, Note_on_c, 13, 62, 0
15, 588720, Note_on_c, 13, 60, 84
15, 588720, Note_on_c, 13, 63, 84
15, 588824, Note_on_c, 13, 60, 0
15, 588824, Note_on_c, 13, 63, 0
15, 588840, Note_on_c, 13, 60, 84
15, 588840, Note_on_c, 13, 63, 84
15, 588944, Note_on_c, 13, 60, 0
15, 588944, Note_on_c, 13, 63, 0
15, 588960, Note_on_c, 13, 60, 84
15, 588960, Note_on_c, 13, 57, 84
15, 589064, Note_on_c, 13, 60, 0
15, 589064, Note_on_c, 13, 57, 0
15, 589080, Note_on_c, 13, 57, 84
15, 589080, Note_on_c, 13, 60, 84
15, 589184, Note_on_c, 13, 57, 0
15, 589184, Note_on_c, 13, 60, 0
15, 589200, Note_on_c, 13, 60, 84
15, 589200, Note_on_c, 13, 63, 84
15, 589304, Note_on_c, 13, 60, 0
15, 589304, Note_on_c, 13, 63, 0
15, 589320, Note_on_c, 13, 60, 84
15, 589320, Note_on_c, 13, 63, 84
15, 589424, Note_on_c, 13, 60, 0
15, 589424, Note_on_c, 13, 63, 0
15, 589440, Note_on_c, 13, 60, 84
15, 589440, Note_on_c, 13, 63, 84
15, 590399, Note_on_c, 13, 60, 0
15, 590399, Note_on_c, 13, 63, 0
15, 590400, Note_on_c, 13, 60, 84
15, 590400, Note_on_c, 13, 63, 84
15, 591287, Note_on_c, 13, 60, 0
15, 591287, Note_on_c, 13, 63, 0
15, 591300, Note_on_c, 13, 60, 84
15, 591300, Note_on_c, 13, 63, 84
15, 591351, Note_on_c, 13, 60, 0
15, 591351, Note_on_c, 13, 63, 0
15, 591360, Note_on_c, 13, 63, 84
15, 591360, Note_on_c, 13, 60, 84
15, 591599, Note_on_c, 13, 63, 0
15, 591599, Note_on_c, 13, 60, 0
15, 592320, Note_on_c, 13, 63, 84
15, 592320, Note_on_c, 13, 60, 84
15, 592559, Note_on_c, 13, 63, 0
15, 592559, Note_on_c, 13, 60, 0
15, 593280, Note_on_c, 13, 60, 84
15, 593280, Note_on_c, 13, 63, 84
15, 593459, Note_on_c, 13, 60, 0
15, 593459, Note_on_c, 13, 63, 0
15, 593760, Note_on_c, 13, 60, 84
15, 593760, Note_on_c, 13, 63, 84
15, 593939, Note_on_c, 13, 60, 0
15, 593939, Note_on_c, 13, 63, 0
15, 594240, Note_on_c, 13, 60, 84
15, 594240, Note_on_c, 13, 63, 84
15, 594419, Note_on_c, 13, 60, 0
15, 594419, Note_on_c, 13, 63, 0
15, 594720, Note_on_c, 13, 60, 84
15, 594720, Note_on_c, 13, 63, 84
15, 594899, Note_on_c, 13, 60, 0
15, 594899, Note_on_c, 13, 63, 0
15, 595200, Note_on_c, 13, 62, 84
15, 595200, Note_on_c, 13, 58, 84
15, 595304, Note_on_c, 13, 62, 0
15, 595304, Note_on_c, 13, 58, 0
15, 595320, Note_on_c, 13, 62, 84
15, 595320, Note_on_c, 13, 58, 84
15, 595424, Note_on_c, 13, 62, 0
15, 595424, Note_on_c, 13, 58, 0
15, 595440, Note_on_c, 13, 58, 84
15, 595440, Note_on_c, 13, 62, 84
15, 595544, Note_on_c, 13, 58, 0
15, 595544, Note_on_c, 13, 62, 0
15, 595560, Note_on_c, 13, 62, 84
15, 595560, Note_on_c, 13, 58, 84
15, 595664, Note_on_c, 13, 62, 0
15, 595664, Note_on_c, 13, 58, 0
15, 595680, Note_on_c, 13, 58, 84
15, 595680, Note_on_c, 13, 62, 84
15, 595784, Note_on_c, 13, 58, 0
15, 595784, Note_on_c, 13, 62, 0
15, 595800, Note_on_c, 13, 58, 84
15, 595800, Note_on_c, 13, 62, 84
15, 595904, Note_on_c, 13, 58, 0
15, 595904, Note_on_c, 13, 62, 0
15, 595920, Note_on_c, 13, 62, 84
15, 595920, Note_on_c, 13, 58, 84
15, 596024, Note_on_c, 13, 62, 0
15, 596024, Note_on_c, 13, 58, 0
15, 596040, Note_on_c, 13, 62, 84
15, 596040, Note_on_c, 13, 58, 84
15, 596144, Note_on_c, 13, 62, 0
15, 596144, Note_on_c, 13, 58, 0
15, 596160, Note_on_c, 13, 58, 84
15, 596160, Note_on_c, 13, 62, 84
15, 596264, Note_on_c, 13, 58, 0
15, 596264, Note_on_c, 13, 62, 0
15, 596280, Note_on_c, 13, 62, 84
15, 596280, Note_on_c, 13, 58, 84
15, 596384, Note_on_c, 13, 62, 0
15, 596384, Note_on_c, 13, 58, 0
15, 596400, Note_on_c, 13, 58, 84
15, 596400, Note_on_c, 13, 62, 84
15, 596504, Note_on_c, 13, 58, 0
15, 596504, Note_on_c, 13, 62, 0
15, 596520, Note_on_c, 13, 62, 84
15, 596520, Note_on_c, 13, 58, 84
15, 596624, Note_on_c, 13, 62, 0
15, 596624, Note_on_c, 13, 58, 0
15, 596640, Note_on_c, 13, 62, 84
15, 596640, Note_on_c, 13, 58, 84
15, 596744, Note_on_c, 13, 62, 0
15, 596744, Note_on_c, 13, 58, 0
15, 596760, Note_on_c, 13, 58, 84
15, 596760, Note_on_c, 13, 62, 84
15, 596864, Note_on_c, 13, 58, 0
15, 596864, Note_on_c, 13, 62, 0
15, 596880, Note_on_c, 13, 58, 84
15, 596880, Note_on_c, 13, 62, 84
15, 596984, Note_on_c, 13, 58, 0
15, 596984, Note_on_c, 13, 62, 0
15, 597000, Note_on_c, 13, 62, 84
15, 597000, Note_on_c, 13, 58, 84
15, 597104, Note_on_c, 13, 62, 0
15, 597104, Note_on_c, 13, 58, 0
15, 597120, Note_on_c, 13, 62, 84
15, 597120, Note_on_c, 13, 58, 84
15, 597224, Note_on_c, 13, 62, 0
15, 597224, Note_on_c, 13, 58, 0
15, 597240, Note_on_c, 13, 58, 84
15, 597240, Note_on_c, 13, 62, 84
15, 597344, Note_on_c, 13, 58, 0
15, 597344, Note_on_c, 13, 62, 0
15, 597360, Note_on_c, 13, 62, 84
15, 597360, Note_on_c, 13, 58, 84
15, 597464, Note_on_c, 13, 62, 0
15, 597464, Note_on_c, 13, 58, 0
15, 597480, Note_on_c, 13, 58, 84
15, 597480, Note_on_c, 13, 62, 84
15, 597584, Note_on_c, 13, 58, 0
15, 597584, Note_on_c, 13, 62, 0
15, 597600, Note_on_c, 13, 62, 84
15, 597600, Note_on_c, 13, 58, 84
15, 597704, Note_on_c, 13, 62, 0
15, 597704, Note_on_c, 13, 58, 0
15, 597720, Note_on_c, 13, 62, 84
15, 597720, Note_on_c, 13, 58, 84
15, 597824, Note_on_c, 13, 62, 0
15, 597824, Note_on_c, 13, 58, 0
15, 597840, Note_on_c, 13, 62, 84
15, 597840, Note_on_c, 13, 58, 84
15, 597944, Note_on_c, 13, 62, 0
15, 597944, Note_on_c, 13, 58, 0
15, 597960, Note_on_c, 13, 58, 84
15, 597960, Note_on_c, 13, 62, 84
15, 598064, Note_on_c, 13, 58, 0
15, 598064, Note_on_c, 13, 62, 0
15, 598080, Note_on_c, 13, 58, 84
15, 598080, Note_on_c, 13, 62, 84
15, 598184, Note_on_c, 13, 58, 0
15, 598184, Note_on_c, 13, 62, 0
15, 598200, Note_on_c, 13, 58, 84
15, 598200, Note_on_c, 13, 62, 84
15, 598304, Note_on_c, 13, 58, 0
15, 598304, Note_on_c, 13, 62, 0
15, 598320, Note_on_c, 13, 58, 84
15, 598320, Note_on_c, 13, 62, 84
15, 598424, Note_on_c, 13, 58, 0
15, 598424, Note_on_c, 13, 62, 0
15, 598440, Note_on_c, 13, 58, 84
15, 598440, Note_on_c, 13, 62, 84
15, 598544, Note_on_c, 13, 58, 0
15, 598544, Note_on_c, 13, 62, 0
15, 598560, Note_on_c, 13, 58, 84
15, 598560, Note_on_c, 13, 62, 84
15, 598664, Note_on_c, 13, 58, 0
15, 598664, Note_on_c, 13, 62, 0
15, 598680, Note_on_c, 13, 62, 84
15, 598680, Note_on_c, 13, 58, 84
15, 598784, Note_on_c, 13, 62, 0
15, 598784, Note_on_c, 13, 58, 0
15, 598800, Note_on_c, 13, 58, 84
15, 598800, Note_on_c, 13, 62, 84
15, 598904, Note_on_c, 13, 58, 0
15, 598904, Note_on_c, 13, 62, 0
15, 598920, Note_on_c, 13, 58, 84
15, 598920, Note_on_c, 13, 62, 84
15, 599024, Note_on_c, 13, 58, 0
15, 599024, Note_on_c, 13, 62, 0
15, 599040, Note_on_c, 13, 58, 84
15, 599040, Note_on_c, 13, 62, 84
15, 599144, Note_on_c, 13, 58, 0
15, 599144, Note_on_c, 13, 62, 0
15, 599160, Note_on_c, 13, 58, 84
15, 599160, Note_on_c, 13, 62, 84
15, 599264, Note_on_c, 13, 58, 0
15, 599264, Note_on_c, 13, 62, 0
15, 599280, Note_on_c, 13, 62, 84
15, 599280, Note_on_c, 13, 58, 84
15, 599384, Note_on_c, 13, 62, 0
15, 599384, Note_on_c, 13, 58, 0
15, 599400, Note_on_c, 13, 62, 84
15, 599400, Note_on_c, 13, 58, 84
15, 599504, Note_on_c, 13, 62, 0
15, 599504, Note_on_c, 13, 58, 0
15, 599520, Note_on_c, 13, 58, 84
15, 599520, Note_on_c, 13, 62, 84
15, 599624, Note_on_c, 13, 58, 0
15, 599624, Note_on_c, 13, 62, 0
15, 599640, Note_on_c, 13, 58, 84
15, 599640, Note_on_c, 13, 62, 84
15, 599744, Note_on_c, 13, 58, 0
15, 599744, Note_on_c, 13, 62, 0
15, 599760, Note_on_c, 13, 62, 84
15, 599760, Note_on_c, 13, 58, 84
15, 599864, Note_on_c, 13, 62, 0
15, 599864, Note_on_c, 13, 58, 0
15, 599880, Note_on_c, 13, 62, 84
15, 599880, Note_on_c, 13, 58, 84
15, 599984, Note_on_c, 13, 62, 0
15, 599984, Note_on_c, 13, 58, 0
15, 600000, Note_on_c, 13, 62, 84
15, 600000, Note_on_c, 13, 58, 84
15, 600104, Note_on_c, 13, 62, 0
15, 600104, Note_on_c, 13, 58, 0
15, 600120, Note_on_c, 13, 62, 84
15, 600120, Note_on_c, 13, 58, 84
15, 600224, Note_on_c, 13, 62, 0
15, 600224, Note_on_c, 13, 58, 0
15, 600240, Note_on_c, 13, 62, 84
15, 600240, Note_on_c, 13, 58, 84
15, 600344, Note_on_c, 13, 62, 0
15, 600344, Note_on_c, 13, 58, 0
15, 600360, Note_on_c, 13, 62, 84
15, 600360, Note_on_c, 13, 58, 84
15, 600464, Note_on_c, 13, 62, 0
15, 600464, Note_on_c, 13, 58, 0
15, 600480, Note_on_c, 13, 58, 84
15, 600480, Note_on_c, 13, 62, 84
15, 600584, Note_on_c, 13, 58, 0
15, 600584, Note_on_c, 13, 62, 0
15, 600600, Note_on_c, 13, 58, 84
15, 600600, Note_on_c, 13, 62, 84
15, 600704, Note_on_c, 13, 58, 0
15, 600704, Note_on_c, 13, 62, 0
15, 600720, Note_on_c, 13, 62, 84
15, 600720, Note_on_c, 13, 58, 84
15, 600824, Note_on_c, 13, 62, 0
15, 600824, Note_on_c, 13, 58, 0
15, 600840, Note_on_c, 13, 62, 84
15, 600840, Note_on_c, 13, 58, 84
15, 600944, Note_on_c, 13, 62, 0
15, 600944, Note_on_c, 13, 58, 0
15, 600960, Note_on_c, 13, 62, 84
15, 600960, Note_on_c, 13, 58, 84
15, 601064, Note_on_c, 13, 62, 0
15, 601064, Note_on_c, 13, 58, 0
15, 601080, Note_on_c, 13, 58, 84
15, 601080, Note_on_c, 13, 62, 84
15, 601184, Note_on_c, 13, 58, 0
15, 601184, Note_on_c, 13, 62, 0
15, 601200, Note_on_c, 13, 62, 84
15, 601200, Note_on_c, 13, 58, 84
15, 601304, Note_on_c, 13, 62, 0
15, 601304, Note_on_c, 13, 58, 0
15, 601320, Note_on_c, 13, 58, 84
15, 601320, Note_on_c, 13, 62, 84
15, 601424, Note_on_c, 13, 58, 0
15, 601424, Note_on_c, 13, 62, 0
15, 601440, Note_on_c, 13, 62, 84
15, 601440, Note_on_c, 13, 58, 84
15, 601544, Note_on_c, 13, 62, 0
15, 601544, Note_on_c, 13, 58, 0
15, 601560, Note_on_c, 13, 62, 84
15, 601560, Note_on_c, 13, 58, 84
15, 601664, Note_on_c, 13, 62, 0
15, 601664, Note_on_c, 13, 58, 0
15, 601680, Note_on_c, 13, 62, 84
15, 601680, Note_on_c, 13, 58, 84
15, 601784, Note_on_c, 13, 62, 0
15, 601784, Note_on_c, 13, 58, 0
15, 601800, Note_on_c, 13, 58, 84
15, 601800, Note_on_c, 13, 62, 84
15, 601904, Note_on_c, 13, 58, 0
15, 601904, Note_on_c, 13, 62, 0
15, 601920, Note_on_c, 13, 62, 84
15, 601920, Note_on_c, 13, 58, 84
15, 602024, Note_on_c, 13, 62, 0
15, 602024, Note_on_c, 13, 58, 0
15, 602040, Note_on_c, 13, 58, 84
15, 602040, Note_on_c, 13, 62, 84
15, 602144, Note_on_c, 13, 58, 0
15, 602144, Note_on_c, 13, 62, 0
15, 602160, Note_on_c, 13, 62, 84
15, 602160, Note_on_c, 13, 58, 84
15, 602264, Note_on_c, 13, 62, 0
15, 602264, Note_on_c, 13, 58, 0
15, 602280, Note_on_c, 13, 62, 84
15, 602280, Note_on_c, 13, 58, 84
15, 602384, Note_on_c, 13, 62, 0
15, 602384, Note_on_c, 13, 58, 0
15, 602400, Note_on_c, 13, 62, 84
15, 602400, Note_on_c, 13, 58, 84
15, 602504, Note_on_c, 13, 62, 0
15, 602504, Note_on_c, 13, 58, 0
15, 602520, Note_on_c, 13, 62, 84
15, 602520, Note_on_c, 13, 58, 84
15, 602624, Note_on_c, 13, 62, 0
15, 602624, Note_on_c, 13, 58, 0
15, 602640, Note_on_c, 13, 62, 84
15, 602640, Note_on_c, 13, 58, 84
15, 602744, Note_on_c, 13, 62, 0
15, 602744, Note_on_c, 13, 58, 0
15, 602760, Note_on_c, 13, 58, 84
15, 602760, Note_on_c, 13, 62, 84
15, 602864, Note_on_c, 13, 58, 0
15, 602864, Note_on_c, 13, 62, 0
15, 602880, Note_on_c, 13, 62, 52
15, 602880, Note_on_c, 13, 58, 52
15, 602984, Note_on_c, 13, 62, 0
15, 602984, Note_on_c, 13, 58, 0
15, 603000, Note_on_c, 13, 62, 52
15, 603000, Note_on_c, 13, 58, 52
15, 603104, Note_on_c, 13, 62, 0
15, 603104, Note_on_c, 13, 58, 0
15, 603120, Note_on_c, 13, 62, 52
15, 603120, Note_on_c, 13, 58, 52
15, 603224, Note_on_c, 13, 62, 0
15, 603224, Note_on_c, 13, 58, 0
15, 603240, Note_on_c, 13, 58, 52
15, 603240, Note_on_c, 13, 62, 52
15, 603344, Note_on_c, 13, 58, 0
15, 603344, Note_on_c, 13, 62, 0
15, 603360, Note_on_c, 13, 57, 52
15, 603360, Note_on_c, 13, 60, 52
15, 603464, Note_on_c, 13, 57, 0
15, 603464, Note_on_c, 13, 60, 0
15, 603480, Note_on_c, 13, 57, 52
15, 603480, Note_on_c, 13, 60, 52
15, 603584, Note_on_c, 13, 57, 0
15, 603584, Note_on_c, 13, 60, 0
15, 603600, Note_on_c, 13, 55, 52
15, 603600, Note_on_c, 13, 58, 52
15, 603704, Note_on_c, 13, 55, 0
15, 603704, Note_on_c, 13, 58, 0
15, 603720, Note_on_c, 13, 55, 52
15, 603720, Note_on_c, 13, 58, 52
15, 603824, Note_on_c, 13, 55, 0
15, 603824, Note_on_c, 13, 58, 0
15, 603840, Note_on_c, 13, 53, 52
15, 603840, Note_on_c, 13, 57, 52
15, 603944, Note_on_c, 13, 53, 0
15, 603944, Note_on_c, 13, 57, 0
15, 603960, Note_on_c, 13, 53, 52
15, 603960, Note_on_c, 13, 57, 52
15, 604064, Note_on_c, 13, 53, 0
15, 604064, Note_on_c, 13, 57, 0
15, 604080, Note_on_c, 13, 55, 52
15, 604080, Note_on_c, 13, 51, 52
15, 604184, Note_on_c, 13, 55, 0
15, 604184, Note_on_c, 13, 51, 0
15, 604200, Note_on_c, 13, 51, 52
15, 604200, Note_on_c, 13, 55, 52
15, 604304, Note_on_c, 13, 51, 0
15, 604304, Note_on_c, 13, 55, 0
15, 604320, Note_on_c, 13, 50, 52
15, 604320, Note_on_c, 13, 53, 52
15, 604424, Note_on_c, 13, 50, 0
15, 604424, Note_on_c, 13, 53, 0
15, 604440, Note_on_c, 13, 50, 52
15, 604440, Note_on_c, 13, 53, 52
15, 604544, Note_on_c, 13, 50, 0
15, 604544, Note_on_c, 13, 53, 0
15, 604560, Note_on_c, 13, 51, 52
15, 604560, Note_on_c, 13, 55, 52
15, 604664, Note_on_c, 13, 51, 0
15, 604664, Note_on_c, 13, 55, 0
15, 604680, Note_on_c, 13, 55, 52
15, 604680, Note_on_c, 13, 51, 52
15, 604784, Note_on_c, 13, 55, 0
15, 604784, Note_on_c, 13, 51, 0
15, 604800, Note_on_c, 13, 48, 76
15, 604800, Note_on_c, 13, 51, 76
15, 604904, Note_on_c, 13, 48, 0
15, 604904, Note_on_c, 13, 51, 0
15, 604920, Note_on_c, 13, 48, 76
15, 604920, Note_on_c, 13, 51, 76
15, 605024, Note_on_c, 13, 48, 0
15, 605024, Note_on_c, 13, 51, 0
15, 605040, Note_on_c, 13, 51, 76
15, 605040, Note_on_c, 13, 57, 76
15, 605144, Note_on_c, 13, 51, 0
15, 605144, Note_on_c, 13, 57, 0
15, 605160, Note_on_c, 13, 57, 76
15, 605160, Note_on_c, 13, 51, 76
15, 605264, Note_on_c, 13, 57, 0
15, 605264, Note_on_c, 13, 51, 0
15, 605280, Note_on_c, 13, 57, 76
15, 605280, Note_on_c, 13, 60, 76
15, 605384, Note_on_c, 13, 57, 0
15, 605384, Note_on_c, 13, 60, 0
15, 605400, Note_on_c, 13, 60, 76
15, 605400, Note_on_c, 13, 57, 76
15, 605504, Note_on_c, 13, 60, 0
15, 605504, Note_on_c, 13, 57, 0
15, 605520, Note_on_c, 13, 60, 76
15, 605520, Note_on_c, 13, 63, 76
15, 605624, Note_on_c, 13, 60, 0
15, 605624, Note_on_c, 13, 63, 0
15, 605640, Note_on_c, 13, 63, 76
15, 605640, Note_on_c, 13, 60, 76
15, 605744, Note_on_c, 13, 63, 0
15, 605744, Note_on_c, 13, 60, 0
15, 605760, Note_on_c, 13, 48, 76
15, 605760, Note_on_c, 13, 51, 76
15, 605864, Note_on_c, 13, 48, 0
15, 605864, Note_on_c, 13, 51, 0
15, 605880, Note_on_c, 13, 51, 76
15, 605880, Note_on_c, 13, 48, 76
15, 605984, Note_on_c, 13, 51, 0
15, 605984, Note_on_c, 13, 48, 0
15, 606000, Note_on_c, 13, 57, 76
15, 606000, Note_on_c, 13, 51, 76
15, 606104, Note_on_c, 13, 57, 0
15, 606104, Note_on_c, 13, 51, 0
15, 606120, Note_on_c, 13, 51, 76
15, 606120, Note_on_c, 13, 57, 76
15, 606224, Note_on_c, 13, 51, 0
15, 606224, Note_on_c, 13, 57, 0
15, 606240, Note_on_c, 13, 57, 76
15, 606240, Note_on_c, 13, 60, 76
15, 606344, Note_on_c, 13, 57, 0
15, 606344, Note_on_c, 13, 60, 0
15, 606360, Note_on_c, 13, 57, 76
15, 606360, Note_on_c, 13, 60, 76
15, 606464, Note_on_c, 13, 57, 0
15, 606464, Note_on_c, 13, 60, 0
15, 606480, Note_on_c, 13, 63, 76
15, 606480, Note_on_c, 13, 60, 76
15, 606584, Note_on_c, 13, 63, 0
15, 606584, Note_on_c, 13, 60, 0
15, 606600, Note_on_c, 13, 60, 76
15, 606600, Note_on_c, 13, 63, 76
15, 606704, Note_on_c, 13, 60, 0
15, 606704, Note_on_c, 13, 63, 0
15, 606720, Note_on_c, 13, 58, 76
15, 606720, Note_on_c, 13, 62, 76
15, 606824, Note_on_c, 13, 58, 0
15, 606824, Note_on_c, 13, 62, 0
15, 606840, Note_on_c, 13, 62, 76
15, 606840, Note_on_c, 13, 58, 76
15, 606944, Note_on_c, 13, 62, 0
15, 606944, Note_on_c, 13, 58, 0
15, 606960, Note_on_c, 13, 62, 52
15, 606960, Note_on_c, 13, 58, 52
15, 607064, Note_on_c, 13, 62, 0
15, 607064, Note_on_c, 13, 58, 0
15, 607080, Note_on_c, 13, 62, 52
15, 607080, Note_on_c, 13, 58, 52
15, 607184, Note_on_c, 13, 62, 0
15, 607184, Note_on_c, 13, 58, 0
15, 607200, Note_on_c, 13, 57, 52
15, 607200, Note_on_c, 13, 60, 52
15, 607304, Note_on_c, 13, 57, 0
15, 607304, Note_on_c, 13, 60, 0
15, 607320, Note_on_c, 13, 60, 52
15, 607320, Note_on_c, 13, 57, 52
15, 607424, Note_on_c, 13, 60, 0
15, 607424, Note_on_c, 13, 57, 0
15, 607440, Note_on_c, 13, 55, 52
15, 607440, Note_on_c, 13, 58, 52
15, 607544, Note_on_c, 13, 55, 0
15, 607544, Note_on_c, 13, 58, 0
15, 607560, Note_on_c, 13, 58, 52
15, 607560, Note_on_c, 13, 55, 52
15, 607664, Note_on_c, 13, 58, 0
15, 607664, Note_on_c, 13, 55, 0
15, 607680, Note_on_c, 13, 57, 52
15, 607680, Note_on_c, 13, 53, 52
15, 607784, Note_on_c, 13, 57, 0
15, 607784, Note_on_c, 13, 53, 0
15, 607800, Note_on_c, 13, 57, 52
15, 607800, Note_on_c, 13, 53, 52
15, 607904, Note_on_c, 13, 57, 0
15, 607904, Note_on_c, 13, 53, 0
15, 607920, Note_on_c, 13, 55, 52
15, 607920, Note_on_c, 13, 51, 52
15, 608024, Note_on_c, 13, 55, 0
15, 608024, Note_on_c, 13, 51, 0
15, 608040, Note_on_c, 13, 51, 52
15, 608040, Note_on_c, 13, 55, 52
15, 608144, Note_on_c, 13, 51, 0
15, 608144, Note_on_c, 13, 55, 0
15, 608160, Note_on_c, 13, 50, 52
15, 608160, Note_on_c, 13, 53, 52
15, 608264, Note_on_c, 13, 50, 0
15, 608264, Note_on_c, 13, 53, 0
15, 608280, Note_on_c, 13, 53, 52
15, 608280, Note_on_c, 13, 50, 52
15, 608384, Note_on_c, 13, 53, 0
15, 608384, Note_on_c, 13, 50, 0
15, 608400, Note_on_c, 13, 55, 52
15, 608400, Note_on_c, 13, 51, 52
15, 608504, Note_on_c, 13, 55, 0
15, 608504, Note_on_c, 13, 51, 0
15, 608520, Note_on_c, 13, 51, 52
15, 608520, Note_on_c, 13, 55, 52
15, 608624, Note_on_c, 13, 51, 0
15, 608624, Note_on_c, 13, 55, 0
15, 608640, Note_on_c, 13, 48, 76
15, 608640, Note_on_c, 13, 51, 76
15, 608744, Note_on_c, 13, 48, 0
15, 608744, Note_on_c, 13, 51, 0
15, 608760, Note_on_c, 13, 48, 76
15, 608760, Note_on_c, 13, 51, 76
15, 608864, Note_on_c, 13, 48, 0
15, 608864, Note_on_c, 13, 51, 0
15, 608880, Note_on_c, 13, 51, 76
15, 608880, Note_on_c, 13, 57, 76
15, 608984, Note_on_c, 13, 51, 0
15, 608984, Note_on_c, 13, 57, 0
15, 609000, Note_on_c, 13, 57, 76
15, 609000, Note_on_c, 13, 51, 76
15, 609104, Note_on_c, 13, 57, 0
15, 609104, Note_on_c, 13, 51, 0
15, 609120, Note_on_c, 13, 60, 76
15, 609120, Note_on_c, 13, 57, 76
15, 609224, Note_on_c, 13, 60, 0
15, 609224, Note_on_c, 13, 57, 0
15, 609240, Note_on_c, 13, 60, 76
15, 609240, Note_on_c, 13, 57, 76
15, 609344, Note_on_c, 13, 60, 0
15, 609344, Note_on_c, 13, 57, 0
15, 609360, Note_on_c, 13, 63, 76
15, 609360, Note_on_c, 13, 60, 76
15, 609464, Note_on_c, 13, 63, 0
15, 609464, Note_on_c, 13, 60, 0
15, 609480, Note_on_c, 13, 63, 76
15, 609480, Note_on_c, 13, 60, 76
15, 609584, Note_on_c, 13, 63, 0
15, 609584, Note_on_c, 13, 60, 0
15, 609600, Note_on_c, 13, 51, 52
15, 609600, Note_on_c, 13, 48, 52
15, 609704, Note_on_c, 13, 51, 0
15, 609704, Note_on_c, 13, 48, 0
15, 609720, Note_on_c, 13, 48, 52
15, 609720, Note_on_c, 13, 51, 52
15, 609824, Note_on_c, 13, 48, 0
15, 609824, Note_on_c, 13, 51, 0
15, 609840, Note_on_c, 13, 57, 52
15, 609840, Note_on_c, 13, 51, 52
15, 609944, Note_on_c, 13, 57, 0
15, 609944, Note_on_c, 13, 51, 0
15, 609960, Note_on_c, 13, 57, 52
15, 609960, Note_on_c, 13, 51, 52
15, 610064, Note_on_c, 13, 57, 0
15, 610064, Note_on_c, 13, 51, 0
15, 610080, Note_on_c, 13, 60, 52
15, 610080, Note_on_c, 13, 57, 52
15, 610184, Note_on_c, 13, 60, 0
15, 610184, Note_on_c, 13, 57, 0
15, 610200, Note_on_c, 13, 57, 52
15, 610200, Note_on_c, 13, 60, 52
15, 610304, Note_on_c, 13, 57, 0
15, 610304, Note_on_c, 13, 60, 0
15, 610320, Note_on_c, 13, 60, 52
15, 610320, Note_on_c, 13, 63, 52
15, 610424, Note_on_c, 13, 60, 0
15, 610424, Note_on_c, 13, 63, 0
15, 610440, Note_on_c, 13, 60, 52
15, 610440, Note_on_c, 13, 63, 52
15, 610544, Note_on_c, 13, 60, 0
15, 610544, Note_on_c, 13, 63, 0
15, 610558, Control_c, 13, 11, 64
15, 610560, Note_on_c, 13, 58, 84
15, 610560, Control_c, 13, 11, 64
15, 610560, Note_on_c, 13, 62, 84
15, 610664, Note_on_c, 13, 58, 0
15, 610664, Note_on_c, 13, 62, 0
15, 610680, Note_on_c, 13, 62, 84
15, 610680, Note_on_c, 13, 65, 84
15, 610682, Control_c, 13, 11, 65
15, 610784, Note_on_c, 13, 62, 0
15, 610784, Note_on_c, 13, 65, 0
15, 610800, Note_on_c, 13, 65, 84
15, 610800, Note_on_c, 13, 62, 84
15, 610804, Control_c, 13, 11, 66
15, 610904, Note_on_c, 13, 65, 0
15, 610904, Note_on_c, 13, 62, 0
15, 610920, Note_on_c, 13, 65, 84
15, 610920, Note_on_c, 13, 62, 84
15, 610926, Control_c, 13, 11, 67
15, 611024, Note_on_c, 13, 65, 0
15, 611024, Note_on_c, 13, 62, 0
15, 611040, Note_on_c, 13, 65, 84
15, 611040, Note_on_c, 13, 62, 84
15, 611048, Control_c, 13, 11, 68
15, 611144, Note_on_c, 13, 65, 0
15, 611144, Note_on_c, 13, 62, 0
15, 611160, Note_on_c, 13, 65, 84
15, 611160, Note_on_c, 13, 62, 84
15, 611170, Control_c, 13, 11, 69
15, 611264, Note_on_c, 13, 65, 0
15, 611264, Note_on_c, 13, 62, 0
15, 611280, Note_on_c, 13, 65, 84
15, 611280, Note_on_c, 13, 62, 84
15, 611291, Control_c, 13, 11, 70
15, 611384, Note_on_c, 13, 65, 0
15, 611384, Note_on_c, 13, 62, 0
15, 611400, Note_on_c, 13, 62, 84
15, 611400, Note_on_c, 13, 65, 84
15, 611413, Control_c, 13, 11, 71
15, 611504, Note_on_c, 13, 62, 0
15, 611504, Note_on_c, 13, 65, 0
15, 611520, Note_on_c, 13, 65, 84
15, 611520, Note_on_c, 13, 62, 84
15, 611535, Control_c, 13, 11, 72
15, 611624, Note_on_c, 13, 65, 0
15, 611624, Note_on_c, 13, 62, 0
15, 611640, Note_on_c, 13, 62, 84
15, 611640, Note_on_c, 13, 65, 84
15, 611657, Control_c, 13, 11, 73
15, 611744, Note_on_c, 13, 62, 0
15, 611744, Note_on_c, 13, 65, 0
15, 611760, Note_on_c, 13, 65, 84
15, 611760, Note_on_c, 13, 62, 84
15, 611779, Control_c, 13, 11, 74
15, 611864, Note_on_c, 13, 65, 0
15, 611864, Note_on_c, 13, 62, 0
15, 611880, Note_on_c, 13, 65, 84
15, 611880, Note_on_c, 13, 62, 84
15, 611901, Control_c, 13, 11, 75
15, 611984, Note_on_c, 13, 65, 0
15, 611984, Note_on_c, 13, 62, 0
15, 612000, Note_on_c, 13, 62, 84
15, 612000, Note_on_c, 13, 65, 84
15, 612023, Control_c, 13, 11, 76
15, 612104, Note_on_c, 13, 62, 0
15, 612104, Note_on_c, 13, 65, 0
15, 612120, Note_on_c, 13, 65, 84
15, 612120, Note_on_c, 13, 62, 84
15, 612145, Control_c, 13, 11, 77
15, 612224, Note_on_c, 13, 65, 0
15, 612224, Note_on_c, 13, 62, 0
15, 612240, Note_on_c, 13, 65, 84
15, 612240, Note_on_c, 13, 62, 84
15, 612267, Control_c, 13, 11, 78
15, 612344, Note_on_c, 13, 65, 0
15, 612344, Note_on_c, 13, 62, 0
15, 612360, Note_on_c, 13, 65, 84
15, 612360, Note_on_c, 13, 62, 84
15, 612389, Control_c, 13, 11, 79
15, 612464, Note_on_c, 13, 65, 0
15, 612464, Note_on_c, 13, 62, 0
15, 612480, Note_on_c, 13, 69, 84
15, 612510, Control_c, 13, 11, 80
15, 612584, Note_on_c, 13, 69, 0
15, 612600, Note_on_c, 13, 69, 84
15, 612632, Control_c, 13, 11, 81
15, 612704, Note_on_c, 13, 69, 0
15, 612720, Note_on_c, 13, 69, 84
15, 612754, Control_c, 13, 11, 82
15, 612824, Note_on_c, 13, 69, 0
15, 612840, Note_on_c, 13, 69, 84
15, 612876, Control_c, 13, 11, 83
15, 612944, Note_on_c, 13, 69, 0
15, 612960, Note_on_c, 13, 69, 84
15, 612998, Control_c, 13, 11, 84
15, 613064, Note_on_c, 13, 69, 0
15, 613080, Note_on_c, 13, 69, 84
15, 613120, Control_c, 13, 11, 85
15, 613184, Note_on_c, 13, 69, 0
15, 613200, Note_on_c, 13, 69, 84
15, 613242, Control_c, 13, 11, 86
15, 613304, Note_on_c, 13, 69, 0
15, 613320, Note_on_c, 13, 69, 84
15, 613364, Control_c, 13, 11, 87
15, 613424, Note_on_c, 13, 69, 0
15, 613440, Note_on_c, 13, 69, 84
15, 613486, Control_c, 13, 11, 88
15, 613544, Note_on_c, 13, 69, 0
15, 613560, Note_on_c, 13, 69, 84
15, 613608, Control_c, 13, 11, 89
15, 613664, Note_on_c, 13, 69, 0
15, 613680, Note_on_c, 13, 69, 84
15, 613730, Control_c, 13, 11, 90
15, 613784, Note_on_c, 13, 69, 0
15, 613800, Note_on_c, 13, 69, 84
15, 613851, Control_c, 13, 11, 91
15, 613904, Note_on_c, 13, 69, 0
15, 613920, Note_on_c, 13, 69, 84
15, 613973, Control_c, 13, 11, 92
15, 614024, Note_on_c, 13, 69, 0
15, 614040, Note_on_c, 13, 69, 84
15, 614095, Control_c, 13, 11, 93
15, 614144, Note_on_c, 13, 69, 0
15, 614160, Note_on_c, 13, 69, 84
15, 614217, Control_c, 13, 11, 94
15, 614264, Note_on_c, 13, 69, 0
15, 614280, Note_on_c, 13, 69, 84
15, 614339, Control_c, 13, 11, 95
15, 614384, Note_on_c, 13, 69, 0
15, 614400, Note_on_c, 13, 70, 84
15, 614461, Control_c, 13, 11, 96
15, 614583, Control_c, 13, 11, 97
15, 614639, Note_on_c, 13, 70, 0
15, 614640, Note_on_c, 13, 65, 84
15, 614705, Control_c, 13, 11, 98
15, 614827, Control_c, 13, 11, 99
15, 614879, Note_on_c, 13, 65, 0
15, 614880, Note_on_c, 13, 63, 84
15, 614949, Control_c, 13, 11, 100
15, 615070, Control_c, 13, 11, 101
15, 615119, Note_on_c, 13, 63, 0
15, 615120, Note_on_c, 13, 62, 84
15, 615192, Control_c, 13, 11, 102
15, 615314, Control_c, 13, 11, 103
15, 615359, Note_on_c, 13, 62, 0
15, 615360, Note_on_c, 13, 60, 84
15, 615436, Control_c, 13, 11, 104
15, 615558, Control_c, 13, 11, 105
15, 615599, Note_on_c, 13, 60, 0
15, 615600, Note_on_c, 13, 58, 84
15, 615680, Control_c, 13, 11, 106
15, 615802, Control_c, 13, 11, 107
15, 615839, Note_on_c, 13, 58, 0
15, 615840, Note_on_c, 13, 57, 84
15, 615924, Control_c, 13, 11, 108
15, 616046, Control_c, 13, 11, 109
15, 616079, Note_on_c, 13, 57, 0
15, 616080, Note_on_c, 13, 58, 84
15, 616168, Control_c, 13, 11, 110
15, 616290, Control_c, 13, 11, 111
15, 616304, Note_on_c, 13, 58, 0
15, 616320, Note_on_c, 13, 53, 84
15, 616411, Control_c, 13, 11, 112
15, 616499, Note_on_c, 13, 53, 0
15, 616533, Control_c, 13, 11, 113
15, 616560, Note_on_c, 13, 60, 84
15, 616655, Control_c, 13, 11, 114
15, 616777, Control_c, 13, 11, 115
15, 616799, Note_on_c, 13, 60, 0
15, 616800, Note_on_c, 13, 58, 84
15, 616899, Control_c, 13, 11, 116
15, 617021, Control_c, 13, 11, 117
15, 617039, Note_on_c, 13, 58, 0
15, 617040, Note_on_c, 13, 57, 84
15, 617143, Control_c, 13, 11, 118
15, 617265, Control_c, 13, 11, 119
15, 617279, Note_on_c, 13, 57, 0
15, 617280, Note_on_c, 13, 55, 84
15, 617387, Control_c, 13, 11, 120
15, 617509, Control_c, 13, 11, 121
15, 617519, Note_on_c, 13, 55, 0
15, 617520, Note_on_c, 13, 53, 84
15, 617630, Control_c, 13, 11, 122
15, 617744, Note_on_c, 13, 53, 0
15, 617752, Control_c, 13, 11, 123
15, 617760, Note_on_c, 13, 65, 84
15, 617874, Control_c, 13, 11, 124
15, 617984, Note_on_c, 13, 65, 0
15, 617996, Control_c, 13, 11, 125
15, 618000, Note_on_c, 13, 65, 84
15, 618118, Control_c, 13, 11, 127
15, 618224, Note_on_c, 13, 65, 0
15, 618240, Note_on_c, 13, 62, 84
15, 618240, Note_on_c, 13, 65, 84
15, 618344, Note_on_c, 13, 62, 0
15, 618344, Note_on_c, 13, 65, 0
15, 618360, Note_on_c, 13, 65, 84
15, 618360, Note_on_c, 13, 62, 84
15, 618464, Note_on_c, 13, 65, 0
15, 618464, Note_on_c, 13, 62, 0
15, 618480, Note_on_c, 13, 62, 84
15, 618480, Note_on_c, 13, 65, 84
15, 618584, Note_on_c, 13, 62, 0
15, 618584, Note_on_c, 13, 65, 0
15, 618600, Note_on_c, 13, 65, 84
15, 618600, Note_on_c, 13, 62, 84
15, 618704, Note_on_c, 13, 65, 0
15, 618704, Note_on_c, 13, 62, 0
15, 618720, Note_on_c, 13, 62, 84
15, 618720, Note_on_c, 13, 65, 84
15, 618824, Note_on_c, 13, 62, 0
15, 618824, Note_on_c, 13, 65, 0
15, 618840, Note_on_c, 13, 62, 84
15, 618840, Note_on_c, 13, 65, 84
15, 618944, Note_on_c, 13, 62, 0
15, 618944, Note_on_c, 13, 65, 0
15, 618960, Note_on_c, 13, 62, 84
15, 618960, Note_on_c, 13, 65, 84
15, 619064, Note_on_c, 13, 62, 0
15, 619064, Note_on_c, 13, 65, 0
15, 619080, Note_on_c, 13, 62, 84
15, 619080, Note_on_c, 13, 65, 84
15, 619184, Note_on_c, 13, 62, 0
15, 619184, Note_on_c, 13, 65, 0
15, 619200, Note_on_c, 13, 65, 84
15, 619200, Note_on_c, 13, 62, 84
15, 619304, Note_on_c, 13, 65, 0
15, 619304, Note_on_c, 13, 62, 0
15, 619320, Note_on_c, 13, 62, 84
15, 619320, Note_on_c, 13, 65, 84
15, 619424, Note_on_c, 13, 62, 0
15, 619424, Note_on_c, 13, 65, 0
15, 619440, Note_on_c, 13, 65, 84
15, 619440, Note_on_c, 13, 62, 84
15, 619544, Note_on_c, 13, 65, 0
15, 619544, Note_on_c, 13, 62, 0
15, 619560, Note_on_c, 13, 62, 84
15, 619560, Note_on_c, 13, 65, 84
15, 619664, Note_on_c, 13, 62, 0
15, 619664, Note_on_c, 13, 65, 0
15, 619680, Note_on_c, 13, 62, 84
15, 619680, Note_on_c, 13, 65, 84
15, 619784, Note_on_c, 13, 62, 0
15, 619784, Note_on_c, 13, 65, 0
15, 619800, Note_on_c, 13, 65, 84
15, 619800, Note_on_c, 13, 62, 84
15, 619904, Note_on_c, 13, 65, 0
15, 619904, Note_on_c, 13, 62, 0
15, 619920, Note_on_c, 13, 65, 84
15, 619920, Note_on_c, 13, 62, 84
15, 620024, Note_on_c, 13, 65, 0
15, 620024, Note_on_c, 13, 62, 0
15, 620040, Note_on_c, 13, 62, 84
15, 620040, Note_on_c, 13, 65, 84
15, 620144, Note_on_c, 13, 62, 0
15, 620144, Note_on_c, 13, 65, 0
15, 620160, Note_on_c, 13, 65, 84
15, 620160, Note_on_c, 13, 62, 84
15, 620264, Note_on_c, 13, 65, 0
15, 620264, Note_on_c, 13, 62, 0
15, 620280, Note_on_c, 13, 65, 84
15, 620280, Note_on_c, 13, 62, 84
15, 620384, Note_on_c, 13, 65, 0
15, 620384, Note_on_c, 13, 62, 0
15, 620400, Note_on_c, 13, 65, 84
15, 620400, Note_on_c, 13, 62, 84
15, 620504, Note_on_c, 13, 65, 0
15, 620504, Note_on_c, 13, 62, 0
15, 620520, Note_on_c, 13, 62, 84
15, 620520, Note_on_c, 13, 65, 84
15, 620624, Note_on_c, 13, 62, 0
15, 620624, Note_on_c, 13, 65, 0
15, 620640, Note_on_c, 13, 65, 84
15, 620640, Note_on_c, 13, 62, 84
15, 620744, Note_on_c, 13, 65, 0
15, 620744, Note_on_c, 13, 62, 0
15, 620760, Note_on_c, 13, 65, 84
15, 620760, Note_on_c, 13, 62, 84
15, 620864, Note_on_c, 13, 65, 0
15, 620864, Note_on_c, 13, 62, 0
15, 620880, Note_on_c, 13, 62, 84
15, 620880, Note_on_c, 13, 65, 84
15, 620984, Note_on_c, 13, 62, 0
15, 620984, Note_on_c, 13, 65, 0
15, 621000, Note_on_c, 13, 65, 84
15, 621000, Note_on_c, 13, 62, 84
15, 621104, Note_on_c, 13, 65, 0
15, 621104, Note_on_c, 13, 62, 0
15, 621120, Note_on_c, 13, 62, 84
15, 621120, Note_on_c, 13, 65, 84
15, 621224, Note_on_c, 13, 62, 0
15, 621224, Note_on_c, 13, 65, 0
15, 621240, Note_on_c, 13, 62, 84
15, 621240, Note_on_c, 13, 65, 84
15, 621344, Note_on_c, 13, 62, 0
15, 621344, Note_on_c, 13, 65, 0
15, 621360, Note_on_c, 13, 62, 84
15, 621360, Note_on_c, 13, 65, 84
15, 621464, Note_on_c, 13, 62, 0
15, 621464, Note_on_c, 13, 65, 0
15, 621480, Note_on_c, 13, 62, 84
15, 621480, Note_on_c, 13, 65, 84
15, 621584, Note_on_c, 13, 62, 0
15, 621584, Note_on_c, 13, 65, 0
15, 621600, Note_on_c, 13, 65, 84
15, 621600, Note_on_c, 13, 62, 84
15, 621704, Note_on_c, 13, 65, 0
15, 621704, Note_on_c, 13, 62, 0
15, 621720, Note_on_c, 13, 65, 84
15, 621720, Note_on_c, 13, 62, 84
15, 621824, Note_on_c, 13, 65, 0
15, 621824, Note_on_c, 13, 62, 0
15, 621840, Note_on_c, 13, 65, 84
15, 621840, Note_on_c, 13, 62, 84
15, 621944, Note_on_c, 13, 65, 0
15, 621944, Note_on_c, 13, 62, 0
15, 621960, Note_on_c, 13, 65, 84
15, 621999, Note_on_c, 13, 65, 0
15, 622000, Note_on_c, 13, 67, 84
15, 622039, Note_on_c, 13, 67, 0
15, 622040, Note_on_c, 13, 69, 84
15, 622071, Note_on_c, 13, 69, 0
15, 622080, Note_on_c, 13, 70, 84
15, 622319, Note_on_c, 13, 70, 0
15, 622440, Note_on_c, 13, 65, 84
15, 622479, Note_on_c, 13, 65, 0
15, 622480, Note_on_c, 13, 67, 84
15, 622519, Note_on_c, 13, 67, 0
15, 622520, Note_on_c, 13, 69, 84
15, 622551, Note_on_c, 13, 69, 0
15, 622560, Note_on_c, 13, 70, 84
15, 622799, Note_on_c, 13, 70, 0
15, 622920, Note_on_c, 13, 65, 84
15, 622959, Note_on_c, 13, 65, 0
15, 622960, Note_on_c, 13, 67, 84
15, 622999, Note_on_c, 13, 67, 0
15, 623000, Note_on_c, 13, 69, 84
15, 623031, Note_on_c, 13, 69, 0
15, 623040, Note_on_c, 13, 70, 84
15, 623279, Note_on_c, 13, 70, 0
15, 624000, Note_on_c, 13, 62, 84
15, 624000, Note_on_c, 13, 58, 84
15, 624239, Note_on_c, 13, 62, 0
15, 624239, Note_on_c, 13, 58, 0
15, 624960, Note_on_c, 13, 58, 84
15, 625199, Note_on_c, 13, 58, 0
15, 625199, End_track
16, 0, Start_track
16, 0, Title_t, "Cello"
16, 0, MIDI_port, 0
16, 0, Program_c, 14, 45
16, 0, Control_c, 14, 7, 96
16, 0, Control_c, 14, 10, 90
16, 0, Control_c, 14, 11, 127
16, 0, Note_on_c, 14, 46, 44
16, 239, Note_on_c, 14, 46, 0
16, 720, Program_c, 14, 48
16, 720, Control_c, 14, 11, 96
16, 960, Note_on_c, 14, 42, 60
16, 1439, Note_on_c, 14, 42, 0
16, 1440, Note_on_c, 14, 39, 60
16, 1907, Note_on_c, 14, 39, 0
16, 1920, Note_on_c, 14, 41, 60
16, 2399, Note_on_c, 14, 41, 0
16, 2400, Note_on_c, 14, 37, 60
16, 2867, Note_on_c, 14, 37, 0
16, 2880, Note_on_c, 14, 39, 60
16, 3119, Note_on_c, 14, 39, 0
16, 3120, Note_on_c, 14, 36, 60
16, 3359, Note_on_c, 14, 36, 0
16, 3360, Note_on_c, 14, 37, 60
16, 3599, Note_on_c, 14, 37, 0
16, 3600, Note_on_c, 14, 46, 60
16, 3827, Note_on_c, 14, 46, 0
16, 3840, Control_c, 14, 11, 96
16, 3840, Note_on_c, 14, 42, 60
16, 3860, Control_c, 14, 11, 97
16, 3880, Control_c, 14, 11, 99
16, 3900, Control_c, 14, 11, 100
16, 3920, Control_c, 14, 11, 101
16, 3940, Control_c, 14, 11, 102
16, 3960, Control_c, 14, 11, 104
16, 3980, Control_c, 14, 11, 105
16, 4000, Control_c, 14, 11, 106
16, 4020, Control_c, 14, 11, 108
16, 4040, Control_c, 14, 11, 109
16, 4060, Control_c, 14, 11, 110
16, 4080, Control_c, 14, 11, 112
16, 4100, Control_c, 14, 11, 113
16, 4120, Control_c, 14, 11, 114
16, 4140, Control_c, 14, 11, 115
16, 4160, Control_c, 14, 11, 117
16, 4180, Control_c, 14, 11, 118
16, 4200, Control_c, 14, 11, 119
16, 4220, Control_c, 14, 11, 121
16, 4240, Control_c, 14, 11, 122
16, 4260, Control_c, 14, 11, 123
16, 4280, Control_c, 14, 11, 124
16, 4300, Control_c, 14, 11, 126
16, 4320, Control_c, 14, 11, 127
16, 4340, Control_c, 14, 11, 126
16, 4360, Control_c, 14, 11, 124
16, 4380, Control_c, 14, 11, 123
16, 4400, Control_c, 14, 11, 122
16, 4420, Control_c, 14, 11, 121
16, 4440, Control_c, 14, 11, 119
16, 4460, Control_c, 14, 11, 118
16, 4480, Control_c, 14, 11, 117
16, 4500, Control_c, 14, 11, 115
16, 4520, Control_c, 14, 11, 114
16, 4540, Control_c, 14, 11, 113
16, 4560, Control_c, 14, 11, 112
16, 4580, Control_c, 14, 11, 110
16, 4600, Control_c, 14, 11, 109
16, 4620, Control_c, 14, 11, 108
16, 4640, Control_c, 14, 11, 106
16, 4660, Control_c, 14, 11, 105
16, 4680, Control_c, 14, 11, 104
16, 4700, Control_c, 14, 11, 102
16, 4720, Control_c, 14, 11, 101
16, 4740, Control_c, 14, 11, 100
16, 4760, Control_c, 14, 11, 99
16, 4780, Control_c, 14, 11, 96
16, 4787, Note_on_c, 14, 42, 0
16, 4800, Control_c, 14, 11, 96
16, 4800, Note_on_c, 14, 41, 60
16, 4919, Note_on_c, 14, 41, 0
16, 7440, Control_c, 14, 11, 127
16, 7680, Note_on_c, 14, 42, 44
16, 8399, Note_on_c, 14, 42, 0
16, 8400, Note_on_c, 14, 40, 44
16, 8639, Note_on_c, 14, 40, 0
16, 8640, Note_on_c, 14, 41, 44
16, 8759, Note_on_c, 14, 41, 0
16, 10560, Program_c, 14, 45
16, 11280, Note_on_c, 14, 41, 44
16, 11399, Note_on_c, 14, 41, 0
16, 11520, Note_on_c, 14, 46, 68
16, 11759, Note_on_c, 14, 46, 0
16, 12240, Program_c, 14, 48
16, 12240, Control_c, 14, 11, 96
16, 12480, Note_on_c, 14, 42, 60
16, 12959, Note_on_c, 14, 42, 0
16, 12960, Note_on_c, 14, 39, 60
16, 13427, Note_on_c, 14, 39, 0
16, 13440, Note_on_c, 14, 41, 60
16, 13919, Note_on_c, 14, 41, 0
16, 13920, Note_on_c, 14, 37, 60
16, 14387, Note_on_c, 14, 37, 0
16, 14400, Note_on_c, 14, 39, 60
16, 14639, Note_on_c, 14, 39, 0
16, 14640, Note_on_c, 14, 36, 60
16, 14879, Note_on_c, 14, 36, 0
16, 14880, Note_on_c, 14, 37, 60
16, 15119, Note_on_c, 14, 37, 0
16, 15120, Note_on_c, 14, 46, 60
16, 15347, Note_on_c, 14, 46, 0
16, 15360, Note_on_c, 14, 42, 60
16, 15360, Control_c, 14, 11, 96
16, 15380, Control_c, 14, 11, 97
16, 15400, Control_c, 14, 11, 99
16, 15420, Control_c, 14, 11, 100
16, 15440, Control_c, 14, 11, 101
16, 15460, Control_c, 14, 11, 102
16, 15480, Control_c, 14, 11, 104
16, 15500, Control_c, 14, 11, 105
16, 15520, Control_c, 14, 11, 106
16, 15540, Control_c, 14, 11, 108
16, 15560, Control_c, 14, 11, 109
16, 15580, Control_c, 14, 11, 110
16, 15600, Control_c, 14, 11, 112
16, 15620, Control_c, 14, 11, 113
16, 15640, Control_c, 14, 11, 114
16, 15660, Control_c, 14, 11, 115
16, 15680, Control_c, 14, 11, 117
16, 15700, Control_c, 14, 11, 118
16, 15720, Control_c, 14, 11, 119
16, 15740, Control_c, 14, 11, 121
16, 15760, Control_c, 14, 11, 122
16, 15780, Control_c, 14, 11, 123
16, 15800, Control_c, 14, 11, 124
16, 15820, Control_c, 14, 11, 126
16, 15840, Control_c, 14, 11, 127
16, 15860, Control_c, 14, 11, 126
16, 15880, Control_c, 14, 11, 124
16, 15900, Control_c, 14, 11, 123
16, 15920, Control_c, 14, 11, 122
16, 15940, Control_c, 14, 11, 121
16, 15960, Control_c, 14, 11, 119
16, 15980, Control_c, 14, 11, 118
16, 16000, Control_c, 14, 11, 117
16, 16020, Control_c, 14, 11, 115
16, 16040, Control_c, 14, 11, 114
16, 16060, Control_c, 14, 11, 113
16, 16080, Control_c, 14, 11, 112
16, 16100, Control_c, 14, 11, 110
16, 16120, Control_c, 14, 11, 109
16, 16140, Control_c, 14, 11, 108
16, 16160, Control_c, 14, 11, 106
16, 16180, Control_c, 14, 11, 105
16, 16200, Control_c, 14, 11, 104
16, 16220, Control_c, 14, 11, 102
16, 16240, Control_c, 14, 11, 101
16, 16260, Control_c, 14, 11, 100
16, 16280, Control_c, 14, 11, 99
16, 16300, Control_c, 14, 11, 96
16, 16439, Note_on_c, 14, 42, 0
16, 18240, Control_c, 14, 11, 127
16, 19200, Note_on_c, 14, 43, 44
16, 19919, Note_on_c, 14, 43, 0
16, 19920, Note_on_c, 14, 41, 44
16, 20159, Note_on_c, 14, 41, 0
16, 20160, Note_on_c, 14, 42, 44
16, 20279, Note_on_c, 14, 42, 0
16, 22080, Program_c, 14, 45
16, 22800, Note_on_c, 14, 42, 44
16, 22919, Note_on_c, 14, 42, 0
16, 23040, Note_on_c, 14, 43, 68
16, 23159, Note_on_c, 14, 43, 0
16, 23280, Note_on_c, 14, 62, 48
16, 23399, Note_on_c, 14, 62, 0
16, 23520, Note_on_c, 14, 59, 48
16, 23639, Note_on_c, 14, 59, 0
16, 23760, Note_on_c, 14, 55, 48
16, 23879, Note_on_c, 14, 55, 0
16, 24000, Note_on_c, 14, 53, 48
16, 24119, Note_on_c, 14, 53, 0
16, 24240, Note_on_c, 14, 50, 48
16, 24359, Note_on_c, 14, 50, 0
16, 24480, Note_on_c, 14, 47, 48
16, 24599, Note_on_c, 14, 47, 0
16, 24720, Note_on_c, 14, 43, 48
16, 24839, Note_on_c, 14, 43, 0
16, 24960, Note_on_c, 14, 48, 48
16, 25199, Note_on_c, 14, 48, 0
16, 25200, Note_on_c, 14, 55, 48
16, 25439, Note_on_c, 14, 55, 0
16, 25440, Note_on_c, 14, 52, 48
16, 25679, Note_on_c, 14, 52, 0
16, 25680, Note_on_c, 14, 48, 48
16, 25919, Note_on_c, 14, 48, 0
16, 26160, Note_on_c, 14, 55, 48
16, 26399, Note_on_c, 14, 55, 0
16, 26400, Note_on_c, 14, 52, 48
16, 26639, Note_on_c, 14, 52, 0
16, 26640, Note_on_c, 14, 45, 48
16, 26879, Note_on_c, 14, 45, 0
16, 27120, Note_on_c, 14, 57, 48
16, 27359, Note_on_c, 14, 57, 0
16, 27360, Note_on_c, 14, 53, 48
16, 27599, Note_on_c, 14, 53, 0
16, 27600, Note_on_c, 14, 50, 48
16, 27839, Note_on_c, 14, 50, 0
16, 28080, Note_on_c, 14, 58, 48
16, 28319, Note_on_c, 14, 58, 0
16, 28320, Note_on_c, 14, 53, 48
16, 28559, Note_on_c, 14, 53, 0
16, 28560, Note_on_c, 14, 50, 48
16, 28799, Note_on_c, 14, 50, 0
16, 28800, Note_on_c, 14, 52, 48
16, 29039, Note_on_c, 14, 52, 0
16, 29040, Note_on_c, 14, 47, 48
16, 29279, Note_on_c, 14, 47, 0
16, 29280, Note_on_c, 14, 40, 48
16, 29519, Note_on_c, 14, 40, 0
16, 29520, Note_on_c, 14, 52, 48
16, 29747, Note_on_c, 14, 52, 0
16, 29752, Program_c, 14, 48
16, 29760, Control_c, 14, 11, 127
16, 29760, Note_on_c, 14, 45, 52
16, 29824, Control_c, 14, 11, 126
16, 29888, Control_c, 14, 11, 125
16, 29952, Control_c, 14, 11, 124
16, 29999, Note_on_c, 14, 45, 0
16, 30000, Note_on_c, 14, 55, 52
16, 30016, Control_c, 14, 11, 123
16, 30080, Control_c, 14, 11, 122
16, 30144, Control_c, 14, 11, 121
16, 30208, Control_c, 14, 11, 120
16, 30239, Note_on_c, 14, 55, 0
16, 30240, Note_on_c, 14, 53, 52
16, 30272, Control_c, 14, 11, 119
16, 30336, Control_c, 14, 11, 118
16, 30400, Control_c, 14, 11, 117
16, 30464, Control_c, 14, 11, 116
16, 30479, Note_on_c, 14, 53, 0
16, 30480, Note_on_c, 14, 52, 52
16, 30528, Control_c, 14, 11, 115
16, 30592, Control_c, 14, 11, 114
16, 30599, Note_on_c, 14, 52, 0
16, 30600, Note_on_c, 14, 50, 52
16, 30656, Control_c, 14, 11, 112
16, 30707, Note_on_c, 14, 50, 0
16, 30720, Note_on_c, 14, 49, 52
16, 30959, Note_on_c, 14, 49, 0
16, 30960, Note_on_c, 14, 45, 52
16, 31199, Note_on_c, 14, 45, 0
16, 31200, Note_on_c, 14, 50, 52
16, 31439, Note_on_c, 14, 50, 0
16, 31440, Note_on_c, 14, 49, 52
16, 31559, Note_on_c, 14, 49, 0
16, 31560, Note_on_c, 14, 50, 52
16, 31667, Note_on_c, 14, 50, 0
16, 31680, Note_on_c, 14, 45, 52
16, 31799, Note_on_c, 14, 45, 0
16, 32160, Note_on_c, 14, 45, 52
16, 32279, Note_on_c, 14, 45, 0
16, 32640, Note_on_c, 14, 45, 52
16, 32759, Note_on_c, 14, 45, 0
16, 33360, Control_c, 14, 11, 127
16, 33600, Note_on_c, 14, 41, 84
16, 34487, Note_on_c, 14, 41, 0
16, 34500, Note_on_c, 14, 41, 84
16, 34551, Note_on_c, 14, 41, 0
16, 34560, Note_on_c, 14, 41, 84
16, 34679, Note_on_c, 14, 41, 0
16, 35520, Note_on_c, 14, 41, 84
16, 36407, Note_on_c, 14, 41, 0
16, 36420, Note_on_c, 14, 41, 84
16, 36471, Note_on_c, 14, 41, 0
16, 36480, Note_on_c, 14, 41, 84
16, 36659, Note_on_c, 14, 41, 0
16, 37440, Note_on_c, 14, 41, 84
16, 37619, Note_on_c, 14, 41, 0
16, 38400, Note_on_c, 14, 41, 84
16, 38579, Note_on_c, 14, 41, 0
16, 38880, Note_on_c, 14, 41, 84
16, 39059, Note_on_c, 14, 41, 0
16, 39360, Note_on_c, 14, 41, 84
16, 39539, Note_on_c, 14, 41, 0
16, 39840, Note_on_c, 14, 41, 84
16, 40019, Note_on_c, 14, 41, 0
16, 40320, Note_on_c, 14, 46, 76
16, 40424, Note_on_c, 14, 46, 0
16, 40440, Note_on_c, 14, 58, 52
16, 40544, Note_on_c, 14, 58, 0
16, 40560, Note_on_c, 14, 58, 52
16, 40664, Note_on_c, 14, 58, 0
16, 40680, Note_on_c, 14, 58, 52
16, 40784, Note_on_c, 14, 58, 0
16, 40800, Note_on_c, 14, 58, 52
16, 40904, Note_on_c, 14, 58, 0
16, 40920, Note_on_c, 14, 58, 52
16, 41024, Note_on_c, 14, 58, 0
16, 41040, Note_on_c, 14, 58, 52
16, 41144, Note_on_c, 14, 58, 0
16, 41160, Note_on_c, 14, 58, 52
16, 41264, Note_on_c, 14, 58, 0
16, 41280, Note_on_c, 14, 58, 52
16, 41384, Note_on_c, 14, 58, 0
16, 41400, Note_on_c, 14, 58, 52
16, 41504, Note_on_c, 14, 58, 0
16, 41520, Note_on_c, 14, 58, 52
16, 41624, Note_on_c, 14, 58, 0
16, 41640, Note_on_c, 14, 58, 52
16, 41744, Note_on_c, 14, 58, 0
16, 41760, Note_on_c, 14, 58, 52
16, 41864, Note_on_c, 14, 58, 0
16, 41880, Note_on_c, 14, 58, 52
16, 41984, Note_on_c, 14, 58, 0
16, 42000, Note_on_c, 14, 58, 52
16, 42104, Note_on_c, 14, 58, 0
16, 42120, Note_on_c, 14, 58, 52
16, 42224, Note_on_c, 14, 58, 0
16, 42240, Note_on_c, 14, 58, 52
16, 42344, Note_on_c, 14, 58, 0
16, 42360, Note_on_c, 14, 58, 52
16, 42464, Note_on_c, 14, 58, 0
16, 42480, Note_on_c, 14, 58, 52
16, 42584, Note_on_c, 14, 58, 0
16, 42600, Note_on_c, 14, 58, 52
16, 42704, Note_on_c, 14, 58, 0
16, 42720, Note_on_c, 14, 58, 52
16, 42824, Note_on_c, 14, 58, 0
16, 42840, Note_on_c, 14, 58, 52
16, 42944, Note_on_c, 14, 58, 0
16, 42960, Note_on_c, 14, 58, 52
16, 43064, Note_on_c, 14, 58, 0
16, 43080, Note_on_c, 14, 58, 52
16, 43184, Note_on_c, 14, 58, 0
16, 43200, Note_on_c, 14, 58, 52
16, 43304, Note_on_c, 14, 58, 0
16, 43320, Note_on_c, 14, 58, 52
16, 43424, Note_on_c, 14, 58, 0
16, 43440, Note_on_c, 14, 58, 52
16, 43544, Note_on_c, 14, 58, 0
16, 43560, Note_on_c, 14, 58, 52
16, 43664, Note_on_c, 14, 58, 0
16, 43680, Note_on_c, 14, 58, 52
16, 43784, Note_on_c, 14, 58, 0
16, 43800, Note_on_c, 14, 58, 52
16, 43904, Note_on_c, 14, 58, 0
16, 43920, Note_on_c, 14, 58, 52
16, 44024, Note_on_c, 14, 58, 0
16, 44040, Note_on_c, 14, 58, 52
16, 44144, Note_on_c, 14, 58, 0
16, 44160, Note_on_c, 14, 58, 52
16, 44399, Note_on_c, 14, 58, 0
16, 48000, Note_on_c, 14, 41, 84
16, 48179, Note_on_c, 14, 41, 0
16, 48960, Note_on_c, 14, 41, 84
16, 49139, Note_on_c, 14, 41, 0
16, 49440, Note_on_c, 14, 41, 84
16, 49619, Note_on_c, 14, 41, 0
16, 49920, Note_on_c, 14, 46, 84
16, 50039, Note_on_c, 14, 46, 0
16, 50160, Note_on_c, 14, 46, 84
16, 50279, Note_on_c, 14, 46, 0
16, 50400, Note_on_c, 14, 46, 84
16, 50519, Note_on_c, 14, 46, 0
16, 50640, Note_on_c, 14, 46, 84
16, 50759, Note_on_c, 14, 46, 0
16, 50880, Note_on_c, 14, 46, 84
16, 50999, Note_on_c, 14, 46, 0
16, 51120, Note_on_c, 14, 46, 84
16, 51239, Note_on_c, 14, 46, 0
16, 51360, Note_on_c, 14, 46, 84
16, 51479, Note_on_c, 14, 46, 0
16, 51600, Note_on_c, 14, 46, 84
16, 51719, Note_on_c, 14, 46, 0
16, 51840, Note_on_c, 14, 46, 84
16, 51959, Note_on_c, 14, 46, 0
16, 52080, Note_on_c, 14, 46, 84
16, 52199, Note_on_c, 14, 46, 0
16, 52320, Note_on_c, 14, 46, 84
16, 52439, Note_on_c, 14, 46, 0
16, 52560, Note_on_c, 14, 46, 84
16, 52679, Note_on_c, 14, 46, 0
16, 52800, Note_on_c, 14, 46, 84
16, 52919, Note_on_c, 14, 46, 0
16, 53040, Note_on_c, 14, 46, 84
16, 53159, Note_on_c, 14, 46, 0
16, 53280, Note_on_c, 14, 46, 84
16, 53399, Note_on_c, 14, 46, 0
16, 53520, Note_on_c, 14, 46, 84
16, 53639, Note_on_c, 14, 46, 0
16, 53760, Note_on_c, 14, 46, 84
16, 53879, Note_on_c, 14, 46, 0
16, 54000, Note_on_c, 14, 58, 84
16, 54239, Note_on_c, 14, 58, 0
16, 54240, Note_on_c, 14, 57, 84
16, 54479, Note_on_c, 14, 57, 0
16, 54480, Note_on_c, 14, 55, 84
16, 54719, Note_on_c, 14, 55, 0
16, 54720, Note_on_c, 14, 53, 84
16, 54959, Note_on_c, 14, 53, 0
16, 54960, Note_on_c, 14, 51, 84
16, 55199, Note_on_c, 14, 51, 0
16, 55200, Note_on_c, 14, 50, 84
16, 55439, Note_on_c, 14, 50, 0
16, 55440, Note_on_c, 14, 51, 84
16, 55664, Note_on_c, 14, 51, 0
16, 55680, Note_on_c, 14, 53, 92
16, 56639, Note_on_c, 14, 53, 0
16, 56640, Note_on_c, 14, 53, 84
16, 57584, Note_on_c, 14, 53, 0
16, 57600, Note_on_c, 14, 53, 84
16, 57839, Note_on_c, 14, 53, 0
16, 58560, Note_on_c, 14, 55, 84
16, 58799, Note_on_c, 14, 55, 0
16, 59520, Note_on_c, 14, 48, 84
16, 59759, Note_on_c, 14, 48, 0
16, 60480, Note_on_c, 14, 53, 84
16, 60719, Note_on_c, 14, 53, 0
16, 61200, Program_c, 14, 45
16, 61440, Note_on_c, 14, 46, 44
16, 61679, Note_on_c, 14, 46, 0
16, 63360, Note_on_c, 14, 46, 44
16, 63599, Note_on_c, 14, 46, 0
16, 64320, Note_on_c, 14, 46, 44
16, 64559, Note_on_c, 14, 46, 0
16, 65280, Note_on_c, 14, 46, 44
16, 65519, Note_on_c, 14, 46, 0
16, 67200, Note_on_c, 14, 46, 44
16, 67439, Note_on_c, 14, 46, 0
16, 68160, Note_on_c, 14, 46, 44
16, 68399, Note_on_c, 14, 46, 0
16, 69120, Note_on_c, 14, 46, 44
16, 69359, Note_on_c, 14, 46, 0
16, 70800, Note_on_c, 14, 46, 44
16, 71039, Note_on_c, 14, 46, 0
16, 71040, Note_on_c, 14, 46, 44
16, 71279, Note_on_c, 14, 46, 0
16, 72000, Program_c, 14, 48
16, 72720, Note_on_c, 14, 46, 44
16, 72944, Note_on_c, 14, 46, 0
16, 72960, Note_on_c, 14, 46, 44
16, 73064, Note_on_c, 14, 46, 0
16, 73080, Note_on_c, 14, 46, 45
16, 73184, Note_on_c, 14, 46, 0
16, 73200, Note_on_c, 14, 46, 46
16, 73304, Note_on_c, 14, 46, 0
16, 73320, Note_on_c, 14, 46, 47
16, 73424, Note_on_c, 14, 46, 0
16, 73440, Note_on_c, 14, 46, 49
16, 73544, Note_on_c, 14, 46, 0
16, 73560, Note_on_c, 14, 46, 50
16, 73664, Note_on_c, 14, 46, 0
16, 73680, Note_on_c, 14, 46, 51
16, 73784, Note_on_c, 14, 46, 0
16, 73800, Note_on_c, 14, 46, 52
16, 73904, Note_on_c, 14, 46, 0
16, 73920, Note_on_c, 14, 46, 54
16, 74024, Note_on_c, 14, 46, 0
16, 74040, Note_on_c, 14, 46, 55
16, 74144, Note_on_c, 14, 46, 0
16, 74160, Note_on_c, 14, 46, 56
16, 74264, Note_on_c, 14, 46, 0
16, 74280, Note_on_c, 14, 46, 57
16, 74384, Note_on_c, 14, 46, 0
16, 74400, Note_on_c, 14, 46, 59
16, 74504, Note_on_c, 14, 46, 0
16, 74520, Note_on_c, 14, 46, 60
16, 74624, Note_on_c, 14, 46, 0
16, 74640, Note_on_c, 14, 46, 61
16, 74744, Note_on_c, 14, 46, 0
16, 74760, Note_on_c, 14, 46, 62
16, 74864, Note_on_c, 14, 46, 0
16, 74880, Note_on_c, 14, 46, 64
16, 74984, Note_on_c, 14, 46, 0
16, 75000, Note_on_c, 14, 46, 65
16, 75104, Note_on_c, 14, 46, 0
16, 75120, Note_on_c, 14, 46, 66
16, 75224, Note_on_c, 14, 46, 0
16, 75240, Note_on_c, 14, 46, 67
16, 75344, Note_on_c, 14, 46, 0
16, 75360, Note_on_c, 14, 46, 69
16, 75464, Note_on_c, 14, 46, 0
16, 75480, Note_on_c, 14, 46, 70
16, 75584, Note_on_c, 14, 46, 0
16, 75600, Note_on_c, 14, 46, 71
16, 75704, Note_on_c, 14, 46, 0
16, 75720, Note_on_c, 14, 46, 72
16, 75824, Note_on_c, 14, 46, 0
16, 75840, Note_on_c, 14, 46, 74
16, 75944, Note_on_c, 14, 46, 0
16, 75960, Note_on_c, 14, 46, 75
16, 76064, Note_on_c, 14, 46, 0
16, 76080, Note_on_c, 14, 46, 76
16, 76184, Note_on_c, 14, 46, 0
16, 76200, Note_on_c, 14, 46, 77
16, 76304, Note_on_c, 14, 46, 0
16, 76320, Note_on_c, 14, 46, 79
16, 76544, Note_on_c, 14, 46, 0
16, 76560, Note_on_c, 14, 53, 81
16, 76607, Note_on_c, 14, 53, 0
16, 76608, Note_on_c, 14, 55, 82
16, 76655, Note_on_c, 14, 55, 0
16, 76656, Note_on_c, 14, 57, 82
16, 76703, Note_on_c, 14, 57, 0
16, 76704, Note_on_c, 14, 58, 83
16, 76751, Note_on_c, 14, 58, 0
16, 76752, Note_on_c, 14, 60, 83
16, 76791, Note_on_c, 14, 60, 0
16, 76800, Note_on_c, 14, 62, 84
16, 76919, Note_on_c, 14, 62, 0
16, 77040, Note_on_c, 14, 58, 84
16, 77159, Note_on_c, 14, 58, 0
16, 77280, Note_on_c, 14, 53, 84
16, 77399, Note_on_c, 14, 53, 0
16, 77520, Note_on_c, 14, 58, 84
16, 77639, Note_on_c, 14, 58, 0
16, 77760, Note_on_c, 14, 50, 84
16, 77879, Note_on_c, 14, 50, 0
16, 78000, Note_on_c, 14, 53, 84
16, 78119, Note_on_c, 14, 53, 0
16, 78240, Note_on_c, 14, 46, 84
16, 78359, Note_on_c, 14, 46, 0
16, 78480, Note_on_c, 14, 50, 84
16, 78599, Note_on_c, 14, 50, 0
16, 78720, Note_on_c, 14, 43, 84
16, 78839, Note_on_c, 14, 43, 0
16, 78960, Note_on_c, 14, 51, 84
16, 79079, Note_on_c, 14, 51, 0
16, 79200, Note_on_c, 14, 48, 84
16, 79319, Note_on_c, 14, 48, 0
16, 79440, Note_on_c, 14, 46, 84
16, 79559, Note_on_c, 14, 46, 0
16, 79680, Note_on_c, 14, 45, 84
16, 79799, Note_on_c, 14, 45, 0
16, 79920, Note_on_c, 14, 53, 84
16, 80039, Note_on_c, 14, 53, 0
16, 80160, Note_on_c, 14, 51, 84
16, 80279, Note_on_c, 14, 51, 0
16, 80400, Note_on_c, 14, 48, 84
16, 80519, Note_on_c, 14, 48, 0
16, 80640, Note_on_c, 14, 46, 92
16, 81599, Note_on_c, 14, 46, 0
16, 81600, Note_on_c, 14, 46, 84
16, 82544, Note_on_c, 14, 46, 0
16, 82560, Note_on_c, 14, 51, 92
16, 83489, Note_on_c, 14, 51, 0
16, 83520, Note_on_c, 14, 53, 92
16, 84449, Note_on_c, 14, 53, 0
16, 84480, Note_on_c, 14, 46, 92
16, 85409, Note_on_c, 14, 46, 0
16, 85440, Note_on_c, 14, 45, 92
16, 86369, Note_on_c, 14, 45, 0
16, 86400, Note_on_c, 14, 50, 92
16, 87329, Note_on_c, 14, 50, 0
16, 87360, Note_on_c, 14, 48, 92
16, 88529, Note_on_c, 14, 48, 0
16, 88560, Note_on_c, 14, 60, 84
16, 88679, Note_on_c, 14, 60, 0
16, 88800, Note_on_c, 14, 58, 84
16, 88919, Note_on_c, 14, 58, 0
16, 89040, Note_on_c, 14, 55, 84
16, 89159, Note_on_c, 14, 55, 0
16, 89280, Note_on_c, 14, 56, 84
16, 89399, Note_on_c, 14, 56, 0
16, 89520, Note_on_c, 14, 53, 84
16, 89639, Note_on_c, 14, 53, 0
16, 89760, Note_on_c, 14, 51, 84
16, 89879, Note_on_c, 14, 51, 0
16, 90000, Note_on_c, 14, 49, 84
16, 90119, Note_on_c, 14, 49, 0
16, 90240, Note_on_c, 14, 48, 84
16, 90479, Note_on_c, 14, 48, 0
16, 93360, Note_on_c, 14, 53, 92
16, 93839, Note_on_c, 14, 53, 0
16, 93840, Note_on_c, 14, 48, 84
16, 94064, Note_on_c, 14, 48, 0
16, 94080, Note_on_c, 14, 48, 84
16, 94259, Note_on_c, 14, 48, 0
16, 94320, Note_on_c, 14, 58, 84
16, 94784, Note_on_c, 14, 58, 0
16, 94800, Note_on_c, 14, 56, 84
16, 95264, Note_on_c, 14, 56, 0
16, 95280, Note_on_c, 14, 55, 84
16, 95744, Note_on_c, 14, 55, 0
16, 95760, Note_on_c, 14, 56, 84
16, 96224, Note_on_c, 14, 56, 0
16, 96240, Note_on_c, 14, 55, 84
16, 96704, Note_on_c, 14, 55, 0
16, 96720, Note_on_c, 14, 53, 84
16, 97184, Note_on_c, 14, 53, 0
16, 97200, Note_on_c, 14, 53, 92
16, 97679, Note_on_c, 14, 53, 0
16, 97680, Note_on_c, 14, 48, 84
16, 97904, Note_on_c, 14, 48, 0
16, 97920, Note_on_c, 14, 60, 92
16, 97980, Control_c, 14, 11, 112
16, 98138, Control_c, 14, 11, 110
16, 98295, Control_c, 14, 11, 108
16, 98453, Control_c, 14, 11, 106
16, 98610, Control_c, 14, 11, 104
16, 98639, Note_on_c, 14, 60, 0
16, 98640, Note_on_c, 14, 62, 92
16, 98768, Control_c, 14, 11, 102
16, 98879, Note_on_c, 14, 62, 0
16, 98880, Note_on_c, 14, 55, 84
16, 98925, Control_c, 14, 11, 100
16, 99083, Control_c, 14, 11, 98
16, 99119, Note_on_c, 14, 55, 0
16, 99120, Note_on_c, 14, 57, 84
16, 99240, Control_c, 14, 11, 96
16, 99359, Note_on_c, 14, 57, 0
16, 99360, Note_on_c, 14, 58, 84
16, 99398, Control_c, 14, 11, 94
16, 99555, Control_c, 14, 11, 92
16, 99599, Note_on_c, 14, 58, 0
16, 99600, Note_on_c, 14, 52, 84
16, 99713, Control_c, 14, 11, 90
16, 99839, Note_on_c, 14, 52, 0
16, 99840, Note_on_c, 14, 53, 84
16, 99870, Control_c, 14, 11, 88
16, 100028, Control_c, 14, 11, 86
16, 100079, Note_on_c, 14, 53, 0
16, 100080, Note_on_c, 14, 55, 84
16, 100185, Control_c, 14, 11, 84
16, 100319, Note_on_c, 14, 55, 0
16, 100320, Note_on_c, 14, 48, 84
16, 100343, Control_c, 14, 11, 82
16, 100500, Control_c, 14, 11, 80
16, 100559, Note_on_c, 14, 48, 0
16, 100560, Note_on_c, 14, 50, 84
16, 100658, Control_c, 14, 11, 78
16, 100799, Note_on_c, 14, 50, 0
16, 100800, Note_on_c, 14, 46, 84
16, 100815, Control_c, 14, 11, 76
16, 100973, Control_c, 14, 11, 74
16, 101039, Note_on_c, 14, 46, 0
16, 101040, Note_on_c, 14, 45, 84
16, 101130, Control_c, 14, 11, 72
16, 101279, Note_on_c, 14, 45, 0
16, 101280, Note_on_c, 14, 43, 84
16, 101288, Control_c, 14, 11, 70
16, 101445, Control_c, 14, 11, 68
16, 101519, Note_on_c, 14, 43, 0
16, 101520, Note_on_c, 14, 48, 84
16, 101603, Control_c, 14, 11, 66
16, 101744, Note_on_c, 14, 48, 0
16, 101752, Control_c, 14, 11, 80
16, 101760, Note_on_c, 14, 41, 76
16, 103679, Note_on_c, 14, 41, 0
16, 103680, Note_on_c, 14, 41, 76
16, 105584, Note_on_c, 14, 41, 0
16, 105592, Control_c, 14, 11, 96
16, 105600, Note_on_c, 14, 50, 68
16, 107504, Note_on_c, 14, 50, 0
16, 107505, Control_c, 14, 11, 112
16, 107520, Note_on_c, 14, 45, 60
16, 107759, Note_on_c, 14, 45, 0
16, 108000, Control_c, 14, 11, 127
16, 108240, Note_on_c, 14, 45, 52
16, 108464, Note_on_c, 14, 45, 0
16, 108480, Note_on_c, 14, 45, 52
16, 108719, Note_on_c, 14, 45, 0
16, 109200, Note_on_c, 14, 45, 52
16, 109424, Note_on_c, 14, 45, 0
16, 109440, Note_on_c, 14, 45, 52
16, 109679, Note_on_c, 14, 45, 0
16, 110160, Note_on_c, 14, 45, 52
16, 110384, Note_on_c, 14, 45, 0
16, 110400, Note_on_c, 14, 45, 52
16, 110639, Note_on_c, 14, 45, 0
16, 111120, Note_on_c, 14, 45, 52
16, 111344, Note_on_c, 14, 45, 0
16, 111360, Note_on_c, 14, 45, 52
16, 111599, Note_on_c, 14, 45, 0
16, 112080, Note_on_c, 14, 45, 52
16, 112304, Note_on_c, 14, 45, 0
16, 112320, Note_on_c, 14, 45, 52
16, 112559, Note_on_c, 14, 45, 0
16, 113040, Note_on_c, 14, 45, 52
16, 113264, Note_on_c, 14, 45, 0
16, 113280, Note_on_c, 14, 45, 52
16, 113519, Note_on_c, 14, 45, 0
16, 114000, Note_on_c, 14, 45, 52
16, 114224, Note_on_c, 14, 45, 0
16, 114240, Note_on_c, 14, 45, 52
16, 114479, Note_on_c, 14, 45, 0
16, 114960, Note_on_c, 14, 45, 52
16, 115184, Note_on_c, 14, 45, 0
16, 115198, Control_c, 14, 11, 64
16, 115200, Note_on_c, 14, 45, 76
16, 115559, Note_on_c, 14, 45, 0
16, 115680, Note_on_c, 14, 46, 76
16, 116039, Note_on_c, 14, 46, 0
16, 116160, Note_on_c, 14, 43, 76
16, 116519, Note_on_c, 14, 43, 0
16, 116640, Note_on_c, 14, 47, 76
16, 116999, Note_on_c, 14, 47, 0
16, 117120, Note_on_c, 14, 48, 76
16, 117479, Note_on_c, 14, 48, 0
16, 117600, Note_on_c, 14, 45, 76
16, 117959, Note_on_c, 14, 45, 0
16, 118080, Control_c, 14, 11, 64
16, 118080, Note_on_c, 14, 48, 76
16, 118293, Control_c, 14, 11, 66
16, 118439, Note_on_c, 14, 48, 0
16, 118507, Control_c, 14, 11, 68
16, 118560, Note_on_c, 14, 50, 76
16, 118720, Control_c, 14, 11, 69
16, 118919, Note_on_c, 14, 50, 0
16, 118933, Control_c, 14, 11, 71
16, 119040, Note_on_c, 14, 46, 76
16, 119147, Control_c, 14, 11, 73
16, 119360, Control_c, 14, 11, 75
16, 119399, Note_on_c, 14, 46, 0
16, 119520, Note_on_c, 14, 50, 76
16, 119573, Control_c, 14, 11, 76
16, 119787, Control_c, 14, 11, 78
16, 119879, Note_on_c, 14, 50, 0
16, 120000, Note_on_c, 14, 52, 76
16, 120000, Control_c, 14, 11, 80
16, 120213, Control_c, 14, 11, 82
16, 120359, Note_on_c, 14, 52, 0
16, 120427, Control_c, 14, 11, 83
16, 120480, Note_on_c, 14, 48, 76
16, 120640, Control_c, 14, 11, 85
16, 120839, Note_on_c, 14, 48, 0
16, 120853, Control_c, 14, 11, 87
16, 120960, Note_on_c, 14, 52, 76
16, 121067, Control_c, 14, 11, 89
16, 121280, Control_c, 14, 11, 90
16, 121319, Note_on_c, 14, 52, 0
16, 121440, Note_on_c, 14, 53, 76
16, 121493, Control_c, 14, 11, 92
16, 121707, Control_c, 14, 11, 94
16, 121799, Note_on_c, 14, 53, 0
16, 121920, Control_c, 14, 11, 96
16, 121920, Note_on_c, 14, 50, 76
16, 122133, Control_c, 14, 11, 97
16, 122279, Note_on_c, 14, 50, 0
16, 122347, Control_c, 14, 11, 99
16, 122400, Note_on_c, 14, 54, 76
16, 122560, Control_c, 14, 11, 101
16, 122759, Note_on_c, 14, 54, 0
16, 122773, Control_c, 14, 11, 103
16, 122880, Note_on_c, 14, 55, 76
16, 122987, Control_c, 14, 11, 104
16, 123200, Control_c, 14, 11, 106
16, 123239, Note_on_c, 14, 55, 0
16, 123360, Note_on_c, 14, 52, 76
16, 123413, Control_c, 14, 11, 108
16, 123627, Control_c, 14, 11, 110
16, 123719, Note_on_c, 14, 52, 0
16, 123840, Control_c, 14, 11, 111
16, 123840, Note_on_c, 14, 55, 76
16, 124053, Control_c, 14, 11, 113
16, 124199, Note_on_c, 14, 55, 0
16, 124267, Control_c, 14, 11, 115
16, 124320, Note_on_c, 14, 57, 76
16, 124480, Control_c, 14, 11, 117
16, 124679, Note_on_c, 14, 57, 0
16, 124693, Control_c, 14, 11, 118
16, 124800, Note_on_c, 14, 58, 76
16, 124907, Control_c, 14, 11, 120
16, 125120, Control_c, 14, 11, 122
16, 125159, Note_on_c, 14, 58, 0
16, 125280, Note_on_c, 14, 59, 76
16, 125333, Control_c, 14, 11, 124
16, 125547, Control_c, 14, 11, 127
16, 125639, Note_on_c, 14, 59, 0
16, 125760, Note_on_c, 14, 48, 76
16, 126119, Note_on_c, 14, 48, 0
16, 126240, Note_on_c, 14, 58, 76
16, 126599, Note_on_c, 14, 58, 0
16, 126720, Note_on_c, 14, 55, 76
16, 127079, Note_on_c, 14, 55, 0
16, 127200, Note_on_c, 14, 52, 76
16, 127559, Note_on_c, 14, 52, 0
16, 127680, Note_on_c, 14, 48, 76
16, 128039, Note_on_c, 14, 48, 0
16, 128160, Note_on_c, 14, 46, 76
16, 128519, Note_on_c, 14, 46, 0
16, 128640, Note_on_c, 14, 45, 76
16, 129344, Note_on_c, 14, 45, 0
16, 129360, Note_on_c, 14, 41, 76
16, 129584, Note_on_c, 14, 41, 0
16, 129600, Note_on_c, 14, 46, 76
16, 130304, Note_on_c, 14, 46, 0
16, 130320, Note_on_c, 14, 43, 76
16, 130544, Note_on_c, 14, 43, 0
16, 130560, Note_on_c, 14, 48, 76
16, 131264, Note_on_c, 14, 48, 0
16, 131280, Note_on_c, 14, 48, 76
16, 131504, Note_on_c, 14, 48, 0
16, 131520, Note_on_c, 14, 46, 76
16, 131744, Note_on_c, 14, 46, 0
16, 131760, Note_on_c, 14, 46, 76
16, 131984, Note_on_c, 14, 46, 0
16, 132000, Note_on_c, 14, 46, 76
16, 132224, Note_on_c, 14, 46, 0
16, 132240, Note_on_c, 14, 46, 76
16, 132464, Note_on_c, 14, 46, 0
16, 132480, Note_on_c, 14, 45, 76
16, 132719, Note_on_c, 14, 45, 0
16, 132720, Note_on_c, 14, 41, 76
16, 132944, Note_on_c, 14, 41, 0
16, 132960, Note_on_c, 14, 46, 76
16, 133199, Note_on_c, 14, 46, 0
16, 133200, Note_on_c, 14, 43, 76
16, 133424, Note_on_c, 14, 43, 0
16, 133440, Note_on_c, 14, 48, 76
16, 133664, Note_on_c, 14, 48, 0
16, 133680, Note_on_c, 14, 60, 76
16, 133904, Note_on_c, 14, 60, 0
16, 133920, Note_on_c, 14, 48, 76
16, 134144, Note_on_c, 14, 48, 0
16, 134160, Note_on_c, 14, 48, 76
16, 134384, Note_on_c, 14, 48, 0
16, 134400, Note_on_c, 14, 53, 52
16, 134639, Note_on_c, 14, 53, 0
16, 135360, Note_on_c, 14, 53, 52
16, 136079, Note_on_c, 14, 53, 0
16, 136080, Note_on_c, 14, 48, 52
16, 136319, Note_on_c, 14, 48, 0
16, 136320, Note_on_c, 14, 53, 52
16, 136559, Note_on_c, 14, 53, 0
16, 137280, Note_on_c, 14, 53, 52
16, 137984, Note_on_c, 14, 53, 0
16, 138000, Note_on_c, 14, 53, 52
16, 138224, Note_on_c, 14, 53, 0
16, 138240, Note_on_c, 14, 48, 52
16, 138479, Note_on_c, 14, 48, 0
16, 139200, Note_on_c, 14, 48, 52
16, 139904, Note_on_c, 14, 48, 0
16, 139920, Note_on_c, 14, 48, 52
16, 140144, Note_on_c, 14, 48, 0
16, 140160, Note_on_c, 14, 48, 52
16, 140399, Note_on_c, 14, 48, 0
16, 141120, Note_on_c, 14, 48, 52
16, 141824, Note_on_c, 14, 48, 0
16, 141840, Note_on_c, 14, 48, 76
16, 142064, Note_on_c, 14, 48, 0
16, 142080, Note_on_c, 14, 53, 76
16, 142319, Note_on_c, 14, 53, 0
16, 142800, Note_on_c, 14, 60, 76
16, 142979, Note_on_c, 14, 60, 0
16, 143040, Note_on_c, 14, 57, 76
16, 143279, Note_on_c, 14, 57, 0
16, 143280, Note_on_c, 14, 58, 76
16, 143504, Note_on_c, 14, 58, 0
16, 143520, Note_on_c, 14, 60, 76
16, 143699, Note_on_c, 14, 60, 0
16, 143760, Note_on_c, 14, 48, 76
16, 143939, Note_on_c, 14, 48, 0
16, 144000, Note_on_c, 14, 53, 76
16, 144704, Note_on_c, 14, 53, 0
16, 144720, Note_on_c, 14, 55, 76
16, 144899, Note_on_c, 14, 55, 0
16, 144960, Note_on_c, 14, 57, 76
16, 145199, Note_on_c, 14, 57, 0
16, 145200, Note_on_c, 14, 53, 76
16, 145424, Note_on_c, 14, 53, 0
16, 145440, Note_on_c, 14, 57, 76
16, 145619, Note_on_c, 14, 57, 0
16, 145680, Note_on_c, 14, 58, 76
16, 145859, Note_on_c, 14, 58, 0
16, 145920, Note_on_c, 14, 60, 76
16, 146624, Note_on_c, 14, 60, 0
16, 146640, Note_on_c, 14, 62, 76
16, 146819, Note_on_c, 14, 62, 0
16, 146880, Note_on_c, 14, 64, 76
16, 147119, Note_on_c, 14, 64, 0
16, 147120, Note_on_c, 14, 65, 76
16, 147344, Note_on_c, 14, 65, 0
16, 147360, Note_on_c, 14, 67, 76
16, 147539, Note_on_c, 14, 67, 0
16, 147600, Note_on_c, 14, 65, 76
16, 147779, Note_on_c, 14, 65, 0
16, 147840, Note_on_c, 14, 64, 76
16, 148544, Note_on_c, 14, 64, 0
16, 148560, Note_on_c, 14, 62, 76
16, 148739, Note_on_c, 14, 62, 0
16, 148800, Note_on_c, 14, 60, 76
16, 149039, Note_on_c, 14, 60, 0
16, 149040, Note_on_c, 14, 62, 76
16, 149264, Note_on_c, 14, 62, 0
16, 149280, Note_on_c, 14, 58, 76
16, 149459, Note_on_c, 14, 58, 0
16, 149520, Note_on_c, 14, 55, 76
16, 149699, Note_on_c, 14, 55, 0
16, 149760, Note_on_c, 14, 52, 76
16, 149999, Note_on_c, 14, 52, 0
16, 153600, Note_on_c, 14, 41, 84
16, 153839, Note_on_c, 14, 41, 0
16, 154320, Note_on_c, 14, 50, 84
16, 154544, Note_on_c, 14, 50, 0
16, 154560, Note_on_c, 14, 46, 84
16, 154799, Note_on_c, 14, 46, 0
16, 155040, Note_on_c, 14, 48, 84
16, 155279, Note_on_c, 14, 48, 0
16, 157440, Note_on_c, 14, 41, 84
16, 157679, Note_on_c, 14, 41, 0
16, 158160, Note_on_c, 14, 50, 84
16, 158384, Note_on_c, 14, 50, 0
16, 158400, Note_on_c, 14, 46, 84
16, 158639, Note_on_c, 14, 46, 0
16, 158880, Note_on_c, 14, 48, 84
16, 159119, Note_on_c, 14, 48, 0
16, 159360, Note_on_c, 14, 59, 44
16, 159464, Note_on_c, 14, 59, 0
16, 159480, Note_on_c, 14, 59, 46
16, 159584, Note_on_c, 14, 59, 0
16, 159600, Note_on_c, 14, 59, 48
16, 159704, Note_on_c, 14, 59, 0
16, 159720, Note_on_c, 14, 59, 50
16, 159824, Note_on_c, 14, 59, 0
16, 159840, Note_on_c, 14, 59, 52
16, 159944, Note_on_c, 14, 59, 0
16, 159960, Note_on_c, 14, 59, 54
16, 160064, Note_on_c, 14, 59, 0
16, 160080, Note_on_c, 14, 59, 56
16, 160184, Note_on_c, 14, 59, 0
16, 160200, Note_on_c, 14, 59, 58
16, 160304, Note_on_c, 14, 59, 0
16, 160320, Note_on_c, 14, 59, 60
16, 160424, Note_on_c, 14, 59, 0
16, 160440, Note_on_c, 14, 59, 62
16, 160544, Note_on_c, 14, 59, 0
16, 160560, Note_on_c, 14, 59, 64
16, 160664, Note_on_c, 14, 59, 0
16, 160680, Note_on_c, 14, 59, 66
16, 160784, Note_on_c, 14, 59, 0
16, 160800, Note_on_c, 14, 59, 68
16, 160904, Note_on_c, 14, 59, 0
16, 160920, Note_on_c, 14, 59, 70
16, 161024, Note_on_c, 14, 59, 0
16, 161040, Note_on_c, 14, 59, 72
16, 161144, Note_on_c, 14, 59, 0
16, 161160, Note_on_c, 14, 59, 74
16, 161264, Note_on_c, 14, 59, 0
16, 161280, Note_on_c, 14, 59, 76
16, 161384, Note_on_c, 14, 59, 0
16, 161400, Note_on_c, 14, 59, 76
16, 161504, Note_on_c, 14, 59, 0
16, 161520, Note_on_c, 14, 59, 76
16, 161624, Note_on_c, 14, 59, 0
16, 161640, Note_on_c, 14, 59, 76
16, 161744, Note_on_c, 14, 59, 0
16, 161760, Note_on_c, 14, 59, 76
16, 161864, Note_on_c, 14, 59, 0
16, 161880, Note_on_c, 14, 59, 76
16, 161984, Note_on_c, 14, 59, 0
16, 162000, Note_on_c, 14, 59, 76
16, 162104, Note_on_c, 14, 59, 0
16, 162120, Note_on_c, 14, 59, 76
16, 162224, Note_on_c, 14, 59, 0
16, 162240, Note_on_c, 14, 60, 76
16, 162344, Note_on_c, 14, 60, 0
16, 162360, Note_on_c, 14, 60, 76
16, 162464, Note_on_c, 14, 60, 0
16, 162480, Note_on_c, 14, 60, 76
16, 162584, Note_on_c, 14, 60, 0
16, 162600, Note_on_c, 14, 60, 76
16, 162704, Note_on_c, 14, 60, 0
16, 162720, Note_on_c, 14, 60, 76
16, 162824, Note_on_c, 14, 60, 0
16, 162840, Note_on_c, 14, 60, 76
16, 162944, Note_on_c, 14, 60, 0
16, 162960, Note_on_c, 14, 60, 76
16, 163064, Note_on_c, 14, 60, 0
16, 163080, Note_on_c, 14, 60, 76
16, 163184, Note_on_c, 14, 60, 0
16, 163200, Note_on_c, 14, 62, 76
16, 163304, Note_on_c, 14, 62, 0
16, 163320, Note_on_c, 14, 62, 76
16, 163424, Note_on_c, 14, 62, 0
16, 163440, Note_on_c, 14, 62, 76
16, 163544, Note_on_c, 14, 62, 0
16, 163560, Note_on_c, 14, 62, 76
16, 163664, Note_on_c, 14, 62, 0
16, 163680, Note_on_c, 14, 62, 76
16, 163784, Note_on_c, 14, 62, 0
16, 163800, Note_on_c, 14, 62, 76
16, 163904, Note_on_c, 14, 62, 0
16, 163920, Note_on_c, 14, 62, 76
16, 164024, Note_on_c, 14, 62, 0
16, 164040, Note_on_c, 14, 62, 76
16, 164144, Note_on_c, 14, 62, 0
16, 164160, Note_on_c, 14, 64, 76
16, 164264, Note_on_c, 14, 64, 0
16, 164280, Note_on_c, 14, 64, 76
16, 164384, Note_on_c, 14, 64, 0
16, 164400, Note_on_c, 14, 64, 76
16, 164504, Note_on_c, 14, 64, 0
16, 164520, Note_on_c, 14, 64, 76
16, 164624, Note_on_c, 14, 64, 0
16, 164640, Note_on_c, 14, 64, 76
16, 164744, Note_on_c, 14, 64, 0
16, 164760, Note_on_c, 14, 64, 76
16, 164864, Note_on_c, 14, 64, 0
16, 164880, Note_on_c, 14, 64, 76
16, 164984, Note_on_c, 14, 64, 0
16, 165000, Note_on_c, 14, 64, 76
16, 165104, Note_on_c, 14, 64, 0
16, 165120, Note_on_c, 14, 65, 84
16, 165224, Note_on_c, 14, 65, 0
16, 165240, Note_on_c, 14, 49, 84
16, 165344, Note_on_c, 14, 49, 0
16, 165360, Note_on_c, 14, 49, 84
16, 165464, Note_on_c, 14, 49, 0
16, 165480, Note_on_c, 14, 49, 84
16, 165584, Note_on_c, 14, 49, 0
16, 165600, Note_on_c, 14, 49, 84
16, 165704, Note_on_c, 14, 49, 0
16, 165720, Note_on_c, 14, 49, 84
16, 165824, Note_on_c, 14, 49, 0
16, 165840, Note_on_c, 14, 49, 84
16, 165944, Note_on_c, 14, 49, 0
16, 165960, Note_on_c, 14, 49, 84
16, 166064, Note_on_c, 14, 49, 0
16, 166080, Note_on_c, 14, 49, 84
16, 166184, Note_on_c, 14, 49, 0
16, 166200, Note_on_c, 14, 49, 84
16, 166304, Note_on_c, 14, 49, 0
16, 166320, Note_on_c, 14, 49, 84
16, 166424, Note_on_c, 14, 49, 0
16, 166440, Note_on_c, 14, 49, 84
16, 166544, Note_on_c, 14, 49, 0
16, 166560, Note_on_c, 14, 49, 84
16, 166664, Note_on_c, 14, 49, 0
16, 166680, Note_on_c, 14, 49, 84
16, 166784, Note_on_c, 14, 49, 0
16, 166800, Note_on_c, 14, 49, 84
16, 166904, Note_on_c, 14, 49, 0
16, 166920, Note_on_c, 14, 49, 84
16, 167024, Note_on_c, 14, 49, 0
16, 167040, Note_on_c, 14, 48, 84
16, 167144, Note_on_c, 14, 48, 0
16, 167160, Note_on_c, 14, 48, 84
16, 167264, Note_on_c, 14, 48, 0
16, 167280, Note_on_c, 14, 48, 84
16, 167384, Note_on_c, 14, 48, 0
16, 167400, Note_on_c, 14, 48, 84
16, 167504, Note_on_c, 14, 48, 0
16, 167520, Note_on_c, 14, 48, 84
16, 167624, Note_on_c, 14, 48, 0
16, 167640, Note_on_c, 14, 48, 84
16, 167744, Note_on_c, 14, 48, 0
16, 167760, Note_on_c, 14, 48, 84
16, 167864, Note_on_c, 14, 48, 0
16, 167880, Note_on_c, 14, 48, 84
16, 167984, Note_on_c, 14, 48, 0
16, 168000, Note_on_c, 14, 36, 84
16, 168104, Note_on_c, 14, 36, 0
16, 168120, Note_on_c, 14, 36, 84
16, 168224, Note_on_c, 14, 36, 0
16, 168240, Note_on_c, 14, 36, 84
16, 168344, Note_on_c, 14, 36, 0
16, 168360, Note_on_c, 14, 36, 84
16, 168464, Note_on_c, 14, 36, 0
16, 168480, Note_on_c, 14, 36, 84
16, 168584, Note_on_c, 14, 36, 0
16, 168600, Note_on_c, 14, 36, 84
16, 168704, Note_on_c, 14, 36, 0
16, 168720, Note_on_c, 14, 36, 84
16, 168824, Note_on_c, 14, 36, 0
16, 168840, Note_on_c, 14, 36, 84
16, 168944, Note_on_c, 14, 36, 0
16, 168960, Note_on_c, 14, 41, 84
16, 169199, Note_on_c, 14, 41, 0
16, 172080, Note_on_c, 14, 48, 76
16, 172544, Note_on_c, 14, 48, 0
16, 172560, Note_on_c, 14, 48, 76
16, 172739, Note_on_c, 14, 48, 0
16, 172800, Note_on_c, 14, 41, 76
16, 172979, Note_on_c, 14, 41, 0
16, 174720, Note_on_c, 14, 41, 76
16, 174959, Note_on_c, 14, 41, 0
16, 175920, Note_on_c, 14, 48, 76
16, 176384, Note_on_c, 14, 48, 0
16, 176400, Note_on_c, 14, 48, 76
16, 176624, Note_on_c, 14, 48, 0
16, 176640, Note_on_c, 14, 41, 76
16, 176879, Note_on_c, 14, 41, 0
16, 177840, Note_on_c, 14, 48, 76
16, 178304, Note_on_c, 14, 48, 0
16, 178320, Note_on_c, 14, 48, 76
16, 178544, Note_on_c, 14, 48, 0
16, 178560, Note_on_c, 14, 41, 84
16, 179519, Note_on_c, 14, 41, 0
16, 179520, Note_on_c, 14, 41, 84
16, 180407, Note_on_c, 14, 41, 0
16, 180420, Note_on_c, 14, 41, 84
16, 180471, Note_on_c, 14, 41, 0
16, 180480, Note_on_c, 14, 41, 84
16, 180719, Note_on_c, 14, 41, 0
16, 182400, Note_on_c, 14, 41, 84
16, 183359, Note_on_c, 14, 41, 0
16, 183360, Note_on_c, 14, 41, 84
16, 184247, Note_on_c, 14, 41, 0
16, 184260, Note_on_c, 14, 41, 84
16, 184311, Note_on_c, 14, 41, 0
16, 184320, Note_on_c, 14, 41, 84
16, 184559, Note_on_c, 14, 41, 0
16, 185280, Note_on_c, 14, 41, 84
16, 185459, Note_on_c, 14, 41, 0
16, 186240, Note_on_c, 14, 41, 84
16, 186419, Note_on_c, 14, 41, 0
16, 186720, Note_on_c, 14, 41, 84
16, 186899, Note_on_c, 14, 41, 0
16, 187200, Note_on_c, 14, 41, 84
16, 187379, Note_on_c, 14, 41, 0
16, 187680, Note_on_c, 14, 41, 84
16, 187859, Note_on_c, 14, 41, 0
16, 188160, Note_on_c, 14, 46, 76
16, 188264, Note_on_c, 14, 46, 0
16, 188280, Note_on_c, 14, 58, 52
16, 188384, Note_on_c, 14, 58, 0
16, 188400, Note_on_c, 14, 58, 52
16, 188504, Note_on_c, 14, 58, 0
16, 188520, Note_on_c, 14, 58, 52
16, 188624, Note_on_c, 14, 58, 0
16, 188640, Note_on_c, 14, 58, 52
16, 188744, Note_on_c, 14, 58, 0
16, 188760, Note_on_c, 14, 58, 52
16, 188864, Note_on_c, 14, 58, 0
16, 188880, Note_on_c, 14, 58, 52
16, 188984, Note_on_c, 14, 58, 0
16, 189000, Note_on_c, 14, 58, 52
16, 189104, Note_on_c, 14, 58, 0
16, 189120, Note_on_c, 14, 58, 52
16, 189224, Note_on_c, 14, 58, 0
16, 189240, Note_on_c, 14, 58, 52
16, 189344, Note_on_c, 14, 58, 0
16, 189360, Note_on_c, 14, 58, 52
16, 189464, Note_on_c, 14, 58, 0
16, 189480, Note_on_c, 14, 58, 52
16, 189584, Note_on_c, 14, 58, 0
16, 189600, Note_on_c, 14, 58, 52
16, 189704, Note_on_c, 14, 58, 0
16, 189720, Note_on_c, 14, 58, 52
16, 189824, Note_on_c, 14, 58, 0
16, 189840, Note_on_c, 14, 58, 52
16, 189944, Note_on_c, 14, 58, 0
16, 189960, Note_on_c, 14, 58, 52
16, 190064, Note_on_c, 14, 58, 0
16, 190080, Note_on_c, 14, 58, 52
16, 190184, Note_on_c, 14, 58, 0
16, 190200, Note_on_c, 14, 58, 52
16, 190304, Note_on_c, 14, 58, 0
16, 190320, Note_on_c, 14, 58, 52
16, 190424, Note_on_c, 14, 58, 0
16, 190440, Note_on_c, 14, 58, 52
16, 190544, Note_on_c, 14, 58, 0
16, 190560, Note_on_c, 14, 58, 52
16, 190664, Note_on_c, 14, 58, 0
16, 190680, Note_on_c, 14, 58, 52
16, 190784, Note_on_c, 14, 58, 0
16, 190800, Note_on_c, 14, 58, 52
16, 190904, Note_on_c, 14, 58, 0
16, 190920, Note_on_c, 14, 58, 52
16, 191024, Note_on_c, 14, 58, 0
16, 191040, Note_on_c, 14, 58, 52
16, 191144, Note_on_c, 14, 58, 0
16, 191160, Note_on_c, 14, 58, 52
16, 191264, Note_on_c, 14, 58, 0
16, 191280, Note_on_c, 14, 58, 52
16, 191384, Note_on_c, 14, 58, 0
16, 191400, Note_on_c, 14, 58, 52
16, 191504, Note_on_c, 14, 58, 0
16, 191520, Note_on_c, 14, 58, 52
16, 191624, Note_on_c, 14, 58, 0
16, 191640, Note_on_c, 14, 58, 52
16, 191744, Note_on_c, 14, 58, 0
16, 191760, Note_on_c, 14, 58, 52
16, 191864, Note_on_c, 14, 58, 0
16, 191880, Note_on_c, 14, 58, 52
16, 191984, Note_on_c, 14, 58, 0
16, 192000, Note_on_c, 14, 58, 52
16, 192239, Note_on_c, 14, 58, 0
16, 195840, Note_on_c, 14, 41, 84
16, 196019, Note_on_c, 14, 41, 0
16, 196800, Note_on_c, 14, 41, 84
16, 196979, Note_on_c, 14, 41, 0
16, 197280, Note_on_c, 14, 41, 84
16, 197459, Note_on_c, 14, 41, 0
16, 197760, Note_on_c, 14, 46, 84
16, 197879, Note_on_c, 14, 46, 0
16, 198000, Note_on_c, 14, 46, 84
16, 198119, Note_on_c, 14, 46, 0
16, 198240, Note_on_c, 14, 46, 84
16, 198359, Note_on_c, 14, 46, 0
16, 198480, Note_on_c, 14, 46, 84
16, 198599, Note_on_c, 14, 46, 0
16, 198720, Note_on_c, 14, 46, 84
16, 198839, Note_on_c, 14, 46, 0
16, 198960, Note_on_c, 14, 46, 84
16, 199079, Note_on_c, 14, 46, 0
16, 199200, Note_on_c, 14, 46, 84
16, 199319, Note_on_c, 14, 46, 0
16, 199440, Note_on_c, 14, 46, 84
16, 199559, Note_on_c, 14, 46, 0
16, 199680, Note_on_c, 14, 46, 84
16, 199799, Note_on_c, 14, 46, 0
16, 199920, Note_on_c, 14, 46, 84
16, 200039, Note_on_c, 14, 46, 0
16, 200160, Note_on_c, 14, 46, 84
16, 200279, Note_on_c, 14, 46, 0
16, 200400, Note_on_c, 14, 46, 84
16, 200519, Note_on_c, 14, 46, 0
16, 200640, Note_on_c, 14, 46, 84
16, 200759, Note_on_c, 14, 46, 0
16, 200880, Note_on_c, 14, 46, 84
16, 200999, Note_on_c, 14, 46, 0
16, 201120, Note_on_c, 14, 46, 84
16, 201239, Note_on_c, 14, 46, 0
16, 201360, Note_on_c, 14, 46, 84
16, 201479, Note_on_c, 14, 46, 0
16, 201600, Note_on_c, 14, 46, 84
16, 201719, Note_on_c, 14, 46, 0
16, 201840, Note_on_c, 14, 58, 84
16, 202079, Note_on_c, 14, 58, 0
16, 202080, Note_on_c, 14, 57, 84
16, 202319, Note_on_c, 14, 57, 0
16, 202320, Note_on_c, 14, 55, 84
16, 202559, Note_on_c, 14, 55, 0
16, 202560, Note_on_c, 14, 53, 84
16, 202799, Note_on_c, 14, 53, 0
16, 202800, Note_on_c, 14, 51, 84
16, 203039, Note_on_c, 14, 51, 0
16, 203040, Note_on_c, 14, 50, 84
16, 203279, Note_on_c, 14, 50, 0
16, 203280, Note_on_c, 14, 51, 84
16, 203504, Note_on_c, 14, 51, 0
16, 203520, Note_on_c, 14, 53, 92
16, 204479, Note_on_c, 14, 53, 0
16, 204480, Note_on_c, 14, 53, 84
16, 205424, Note_on_c, 14, 53, 0
16, 205440, Note_on_c, 14, 53, 84
16, 205679, Note_on_c, 14, 53, 0
16, 206400, Note_on_c, 14, 55, 84
16, 206639, Note_on_c, 14, 55, 0
16, 207360, Note_on_c, 14, 48, 84
16, 207599, Note_on_c, 14, 48, 0
16, 208320, Note_on_c, 14, 53, 84
16, 208559, Note_on_c, 14, 53, 0
16, 209040, Program_c, 14, 45
16, 209280, Note_on_c, 14, 46, 44
16, 209519, Note_on_c, 14, 46, 0
16, 211200, Note_on_c, 14, 46, 44
16, 211439, Note_on_c, 14, 46, 0
16, 212160, Note_on_c, 14, 46, 44
16, 212399, Note_on_c, 14, 46, 0
16, 213120, Note_on_c, 14, 46, 44
16, 213359, Note_on_c, 14, 46, 0
16, 215040, Note_on_c, 14, 46, 44
16, 215279, Note_on_c, 14, 46, 0
16, 216000, Note_on_c, 14, 46, 44
16, 216239, Note_on_c, 14, 46, 0
16, 216960, Note_on_c, 14, 46, 44
16, 217199, Note_on_c, 14, 46, 0
16, 218640, Note_on_c, 14, 46, 44
16, 218879, Note_on_c, 14, 46, 0
16, 218880, Note_on_c, 14, 46, 44
16, 219119, Note_on_c, 14, 46, 0
16, 219840, Program_c, 14, 48
16, 220560, Note_on_c, 14, 46, 44
16, 220784, Note_on_c, 14, 46, 0
16, 220800, Note_on_c, 14, 46, 44
16, 220904, Note_on_c, 14, 46, 0
16, 220920, Note_on_c, 14, 46, 45
16, 221024, Note_on_c, 14, 46, 0
16, 221040, Note_on_c, 14, 46, 46
16, 221144, Note_on_c, 14, 46, 0
16, 221160, Note_on_c, 14, 46, 47
16, 221264, Note_on_c, 14, 46, 0
16, 221280, Note_on_c, 14, 46, 49
16, 221384, Note_on_c, 14, 46, 0
16, 221400, Note_on_c, 14, 46, 50
16, 221504, Note_on_c, 14, 46, 0
16, 221520, Note_on_c, 14, 46, 51
16, 221624, Note_on_c, 14, 46, 0
16, 221640, Note_on_c, 14, 46, 52
16, 221744, Note_on_c, 14, 46, 0
16, 221760, Note_on_c, 14, 46, 54
16, 221864, Note_on_c, 14, 46, 0
16, 221880, Note_on_c, 14, 46, 55
16, 221984, Note_on_c, 14, 46, 0
16, 222000, Note_on_c, 14, 46, 56
16, 222104, Note_on_c, 14, 46, 0
16, 222120, Note_on_c, 14, 46, 57
16, 222224, Note_on_c, 14, 46, 0
16, 222240, Note_on_c, 14, 46, 59
16, 222344, Note_on_c, 14, 46, 0
16, 222360, Note_on_c, 14, 46, 60
16, 222464, Note_on_c, 14, 46, 0
16, 222480, Note_on_c, 14, 46, 61
16, 222584, Note_on_c, 14, 46, 0
16, 222600, Note_on_c, 14, 46, 62
16, 222704, Note_on_c, 14, 46, 0
16, 222720, Note_on_c, 14, 46, 64
16, 222824, Note_on_c, 14, 46, 0
16, 222840, Note_on_c, 14, 46, 65
16, 222944, Note_on_c, 14, 46, 0
16, 222960, Note_on_c, 14, 46, 66
16, 223064, Note_on_c, 14, 46, 0
16, 223080, Note_on_c, 14, 46, 67
16, 223184, Note_on_c, 14, 46, 0
16, 223200, Note_on_c, 14, 46, 69
16, 223304, Note_on_c, 14, 46, 0
16, 223320, Note_on_c, 14, 46, 70
16, 223424, Note_on_c, 14, 46, 0
16, 223440, Note_on_c, 14, 46, 71
16, 223544, Note_on_c, 14, 46, 0
16, 223560, Note_on_c, 14, 46, 72
16, 223664, Note_on_c, 14, 46, 0
16, 223680, Note_on_c, 14, 46, 74
16, 223784, Note_on_c, 14, 46, 0
16, 223800, Note_on_c, 14, 46, 75
16, 223904, Note_on_c, 14, 46, 0
16, 223920, Note_on_c, 14, 46, 76
16, 224024, Note_on_c, 14, 46, 0
16, 224040, Note_on_c, 14, 46, 77
16, 224144, Note_on_c, 14, 46, 0
16, 224160, Note_on_c, 14, 46, 79
16, 224384, Note_on_c, 14, 46, 0
16, 224400, Note_on_c, 14, 53, 81
16, 224447, Note_on_c, 14, 53, 0
16, 224448, Note_on_c, 14, 55, 82
16, 224495, Note_on_c, 14, 55, 0
16, 224496, Note_on_c, 14, 57, 82
16, 224543, Note_on_c, 14, 57, 0
16, 224544, Note_on_c, 14, 58, 83
16, 224591, Note_on_c, 14, 58, 0
16, 224592, Note_on_c, 14, 60, 83
16, 224631, Note_on_c, 14, 60, 0
16, 224640, Note_on_c, 14, 62, 84
16, 224759, Note_on_c, 14, 62, 0
16, 224880, Note_on_c, 14, 58, 84
16, 224999, Note_on_c, 14, 58, 0
16, 225120, Note_on_c, 14, 53, 84
16, 225239, Note_on_c, 14, 53, 0
16, 225360, Note_on_c, 14, 58, 84
16, 225479, Note_on_c, 14, 58, 0
16, 225600, Note_on_c, 14, 50, 84
16, 225719, Note_on_c, 14, 50, 0
16, 225840, Note_on_c, 14, 53, 84
16, 225959, Note_on_c, 14, 53, 0
16, 226080, Note_on_c, 14, 46, 84
16, 226199, Note_on_c, 14, 46, 0
16, 226320, Note_on_c, 14, 50, 84
16, 226439, Note_on_c, 14, 50, 0
16, 226560, Note_on_c, 14, 43, 84
16, 226679, Note_on_c, 14, 43, 0
16, 226800, Note_on_c, 14, 51, 84
16, 226919, Note_on_c, 14, 51, 0
16, 227040, Note_on_c, 14, 48, 84
16, 227159, Note_on_c, 14, 48, 0
16, 227280, Note_on_c, 14, 46, 84
16, 227399, Note_on_c, 14, 46, 0
16, 227520, Note_on_c, 14, 45, 84
16, 227639, Note_on_c, 14, 45, 0
16, 227760, Note_on_c, 14, 53, 84
16, 227879, Note_on_c, 14, 53, 0
16, 228000, Note_on_c, 14, 51, 84
16, 228119, Note_on_c, 14, 51, 0
16, 228240, Note_on_c, 14, 48, 84
16, 228359, Note_on_c, 14, 48, 0
16, 228480, Note_on_c, 14, 46, 92
16, 229439, Note_on_c, 14, 46, 0
16, 229440, Note_on_c, 14, 46, 84
16, 230384, Note_on_c, 14, 46, 0
16, 230400, Note_on_c, 14, 51, 92
16, 231329, Note_on_c, 14, 51, 0
16, 231360, Note_on_c, 14, 53, 92
16, 232289, Note_on_c, 14, 53, 0
16, 232320, Note_on_c, 14, 46, 92
16, 233249, Note_on_c, 14, 46, 0
16, 233280, Note_on_c, 14, 45, 92
16, 234209, Note_on_c, 14, 45, 0
16, 234240, Note_on_c, 14, 50, 92
16, 235169, Note_on_c, 14, 50, 0
16, 235200, Note_on_c, 14, 48, 92
16, 236369, Note_on_c, 14, 48, 0
16, 236400, Note_on_c, 14, 60, 84
16, 236519, Note_on_c, 14, 60, 0
16, 236640, Note_on_c, 14, 58, 84
16, 236759, Note_on_c, 14, 58, 0
16, 236880, Note_on_c, 14, 55, 84
16, 236999, Note_on_c, 14, 55, 0
16, 237120, Note_on_c, 14, 56, 84
16, 237239, Note_on_c, 14, 56, 0
16, 237360, Note_on_c, 14, 53, 84
16, 237479, Note_on_c, 14, 53, 0
16, 237600, Note_on_c, 14, 51, 84
16, 237719, Note_on_c, 14, 51, 0
16, 237840, Note_on_c, 14, 49, 84
16, 237959, Note_on_c, 14, 49, 0
16, 238080, Note_on_c, 14, 48, 84
16, 238319, Note_on_c, 14, 48, 0
16, 241200, Note_on_c, 14, 53, 92
16, 241679, Note_on_c, 14, 53, 0
16, 241680, Note_on_c, 14, 48, 84
16, 241904, Note_on_c, 14, 48, 0
16, 241920, Note_on_c, 14, 48, 84
16, 242099, Note_on_c, 14, 48, 0
16, 242160, Note_on_c, 14, 58, 84
16, 242624, Note_on_c, 14, 58, 0
16, 242640, Note_on_c, 14, 56, 84
16, 243104, Note_on_c, 14, 56, 0
16, 243120, Note_on_c, 14, 55, 84
16, 243584, Note_on_c, 14, 55, 0
16, 243600, Note_on_c, 14, 56, 84
16, 244064, Note_on_c, 14, 56, 0
16, 244080, Note_on_c, 14, 55, 84
16, 244544, Note_on_c, 14, 55, 0
16, 244560, Note_on_c, 14, 53, 84
16, 245024, Note_on_c, 14, 53, 0
16, 245040, Note_on_c, 14, 53, 92
16, 245519, Note_on_c, 14, 53, 0
16, 245520, Note_on_c, 14, 48, 84
16, 245744, Note_on_c, 14, 48, 0
16, 245760, Note_on_c, 14, 60, 92
16, 245820, Control_c, 14, 11, 112
16, 245978, Control_c, 14, 11, 110
16, 246135, Control_c, 14, 11, 108
16, 246293, Control_c, 14, 11, 106
16, 246450, Control_c, 14, 11, 104
16, 246479, Note_on_c, 14, 60, 0
16, 246480, Note_on_c, 14, 62, 92
16, 246608, Control_c, 14, 11, 102
16, 246719, Note_on_c, 14, 62, 0
16, 246720, Note_on_c, 14, 55, 84
16, 246765, Control_c, 14, 11, 100
16, 246923, Control_c, 14, 11, 98
16, 246959, Note_on_c, 14, 55, 0
16, 246960, Note_on_c, 14, 57, 84
16, 247080, Control_c, 14, 11, 96
16, 247199, Note_on_c, 14, 57, 0
16, 247200, Note_on_c, 14, 58, 84
16, 247238, Control_c, 14, 11, 94
16, 247395, Control_c, 14, 11, 92
16, 247439, Note_on_c, 14, 58, 0
16, 247440, Note_on_c, 14, 52, 84
16, 247553, Control_c, 14, 11, 90
16, 247679, Note_on_c, 14, 52, 0
16, 247680, Note_on_c, 14, 53, 84
16, 247710, Control_c, 14, 11, 88
16, 247868, Control_c, 14, 11, 86
16, 247919, Note_on_c, 14, 53, 0
16, 247920, Note_on_c, 14, 55, 84
16, 248025, Control_c, 14, 11, 84
16, 248159, Note_on_c, 14, 55, 0
16, 248160, Note_on_c, 14, 48, 84
16, 248183, Control_c, 14, 11, 82
16, 248340, Control_c, 14, 11, 80
16, 248399, Note_on_c, 14, 48, 0
16, 248400, Note_on_c, 14, 50, 84
16, 248498, Control_c, 14, 11, 78
16, 248639, Note_on_c, 14, 50, 0
16, 248640, Note_on_c, 14, 46, 84
16, 248655, Control_c, 14, 11, 76
16, 248813, Control_c, 14, 11, 74
16, 248879, Note_on_c, 14, 46, 0
16, 248880, Note_on_c, 14, 45, 84
16, 248970, Control_c, 14, 11, 72
16, 249119, Note_on_c, 14, 45, 0
16, 249120, Note_on_c, 14, 43, 84
16, 249128, Control_c, 14, 11, 70
16, 249285, Control_c, 14, 11, 68
16, 249359, Note_on_c, 14, 43, 0
16, 249360, Note_on_c, 14, 48, 84
16, 249443, Control_c, 14, 11, 66
16, 249584, Note_on_c, 14, 48, 0
16, 249592, Control_c, 14, 11, 80
16, 249600, Note_on_c, 14, 41, 76
16, 251519, Note_on_c, 14, 41, 0
16, 251520, Note_on_c, 14, 41, 76
16, 253424, Note_on_c, 14, 41, 0
16, 253432, Control_c, 14, 11, 96
16, 253440, Note_on_c, 14, 50, 68
16, 255344, Note_on_c, 14, 50, 0
16, 255345, Control_c, 14, 11, 112
16, 255360, Note_on_c, 14, 45, 60
16, 255599, Note_on_c, 14, 45, 0
16, 255840, Control_c, 14, 11, 127
16, 256080, Note_on_c, 14, 45, 52
16, 256304, Note_on_c, 14, 45, 0
16, 256320, Note_on_c, 14, 45, 52
16, 256559, Note_on_c, 14, 45, 0
16, 257040, Note_on_c, 14, 45, 52
16, 257264, Note_on_c, 14, 45, 0
16, 257280, Note_on_c, 14, 45, 52
16, 257519, Note_on_c, 14, 45, 0
16, 258000, Note_on_c, 14, 45, 52
16, 258224, Note_on_c, 14, 45, 0
16, 258240, Note_on_c, 14, 45, 52
16, 258479, Note_on_c, 14, 45, 0
16, 258960, Note_on_c, 14, 45, 52
16, 259184, Note_on_c, 14, 45, 0
16, 259200, Note_on_c, 14, 45, 52
16, 259439, Note_on_c, 14, 45, 0
16, 259920, Note_on_c, 14, 45, 52
16, 260144, Note_on_c, 14, 45, 0
16, 260160, Note_on_c, 14, 45, 52
16, 260399, Note_on_c, 14, 45, 0
16, 260880, Note_on_c, 14, 45, 52
16, 261104, Note_on_c, 14, 45, 0
16, 261120, Note_on_c, 14, 45, 52
16, 261359, Note_on_c, 14, 45, 0
16, 261840, Note_on_c, 14, 45, 52
16, 262064, Note_on_c, 14, 45, 0
16, 262080, Note_on_c, 14, 45, 52
16, 262319, Note_on_c, 14, 45, 0
16, 262800, Note_on_c, 14, 45, 52
16, 263024, Note_on_c, 14, 45, 0
16, 263038, Control_c, 14, 11, 64
16, 263040, Note_on_c, 14, 45, 76
16, 263399, Note_on_c, 14, 45, 0
16, 263520, Note_on_c, 14, 46, 76
16, 263879, Note_on_c, 14, 46, 0
16, 264000, Note_on_c, 14, 43, 76
16, 264359, Note_on_c, 14, 43, 0
16, 264480, Note_on_c, 14, 47, 76
16, 264839, Note_on_c, 14, 47, 0
16, 264960, Note_on_c, 14, 48, 76
16, 265319, Note_on_c, 14, 48, 0
16, 265440, Note_on_c, 14, 45, 76
16, 265799, Note_on_c, 14, 45, 0
16, 265920, Note_on_c, 14, 48, 76
16, 265920, Control_c, 14, 11, 64
16, 266133, Control_c, 14, 11, 66
16, 266279, Note_on_c, 14, 48, 0
16, 266347, Control_c, 14, 11, 68
16, 266400, Note_on_c, 14, 50, 76
16, 266560, Control_c, 14, 11, 69
16, 266759, Note_on_c, 14, 50, 0
16, 266773, Control_c, 14, 11, 71
16, 266880, Note_on_c, 14, 46, 76
16, 266987, Control_c, 14, 11, 73
16, 267200, Control_c, 14, 11, 75
16, 267239, Note_on_c, 14, 46, 0
16, 267360, Note_on_c, 14, 50, 76
16, 267413, Control_c, 14, 11, 76
16, 267627, Control_c, 14, 11, 78
16, 267719, Note_on_c, 14, 50, 0
16, 267840, Control_c, 14, 11, 80
16, 267840, Note_on_c, 14, 52, 76
16, 268053, Control_c, 14, 11, 82
16, 268199, Note_on_c, 14, 52, 0
16, 268267, Control_c, 14, 11, 83
16, 268320, Note_on_c, 14, 48, 76
16, 268480, Control_c, 14, 11, 85
16, 268679, Note_on_c, 14, 48, 0
16, 268693, Control_c, 14, 11, 87
16, 268800, Note_on_c, 14, 52, 76
16, 268907, Control_c, 14, 11, 89
16, 269120, Control_c, 14, 11, 90
16, 269159, Note_on_c, 14, 52, 0
16, 269280, Note_on_c, 14, 53, 76
16, 269333, Control_c, 14, 11, 92
16, 269547, Control_c, 14, 11, 94
16, 269639, Note_on_c, 14, 53, 0
16, 269760, Note_on_c, 14, 50, 76
16, 269760, Control_c, 14, 11, 96
16, 269973, Control_c, 14, 11, 97
16, 270119, Note_on_c, 14, 50, 0
16, 270187, Control_c, 14, 11, 99
16, 270240, Note_on_c, 14, 54, 76
16, 270400, Control_c, 14, 11, 101
16, 270599, Note_on_c, 14, 54, 0
16, 270613, Control_c, 14, 11, 103
16, 270720, Note_on_c, 14, 55, 76
16, 270827, Control_c, 14, 11, 104
16, 271040, Control_c, 14, 11, 106
16, 271079, Note_on_c, 14, 55, 0
16, 271200, Note_on_c, 14, 52, 76
16, 271253, Control_c, 14, 11, 108
16, 271467, Control_c, 14, 11, 110
16, 271559, Note_on_c, 14, 52, 0
16, 271680, Control_c, 14, 11, 111
16, 271680, Note_on_c, 14, 55, 76
16, 271893, Control_c, 14, 11, 113
16, 272039, Note_on_c, 14, 55, 0
16, 272107, Control_c, 14, 11, 115
16, 272160, Note_on_c, 14, 57, 76
16, 272320, Control_c, 14, 11, 117
16, 272519, Note_on_c, 14, 57, 0
16, 272533, Control_c, 14, 11, 118
16, 272640, Note_on_c, 14, 58, 76
16, 272747, Control_c, 14, 11, 120
16, 272960, Control_c, 14, 11, 122
16, 272999, Note_on_c, 14, 58, 0
16, 273120, Note_on_c, 14, 59, 76
16, 273173, Control_c, 14, 11, 124
16, 273387, Control_c, 14, 11, 127
16, 273479, Note_on_c, 14, 59, 0
16, 273600, Note_on_c, 14, 48, 76
16, 273959, Note_on_c, 14, 48, 0
16, 274080, Note_on_c, 14, 58, 76
16, 274439, Note_on_c, 14, 58, 0
16, 274560, Note_on_c, 14, 55, 76
16, 274919, Note_on_c, 14, 55, 0
16, 275040, Note_on_c, 14, 52, 76
16, 275399, Note_on_c, 14, 52, 0
16, 275520, Note_on_c, 14, 48, 76
16, 275879, Note_on_c, 14, 48, 0
16, 276000, Note_on_c, 14, 46, 76
16, 276359, Note_on_c, 14, 46, 0
16, 276480, Note_on_c, 14, 45, 76
16, 277184, Note_on_c, 14, 45, 0
16, 277200, Note_on_c, 14, 41, 76
16, 277424, Note_on_c, 14, 41, 0
16, 277440, Note_on_c, 14, 46, 76
16, 278144, Note_on_c, 14, 46, 0
16, 278160, Note_on_c, 14, 43, 76
16, 278384, Note_on_c, 14, 43, 0
16, 278400, Note_on_c, 14, 48, 76
16, 279104, Note_on_c, 14, 48, 0
16, 279120, Note_on_c, 14, 48, 76
16, 279344, Note_on_c, 14, 48, 0
16, 279360, Note_on_c, 14, 46, 76
16, 279584, Note_on_c, 14, 46, 0
16, 279600, Note_on_c, 14, 46, 76
16, 279824, Note_on_c, 14, 46, 0
16, 279840, Note_on_c, 14, 46, 76
16, 280064, Note_on_c, 14, 46, 0
16, 280080, Note_on_c, 14, 46, 76
16, 280304, Note_on_c, 14, 46, 0
16, 280320, Note_on_c, 14, 45, 76
16, 280559, Note_on_c, 14, 45, 0
16, 280560, Note_on_c, 14, 41, 76
16, 280784, Note_on_c, 14, 41, 0
16, 280800, Note_on_c, 14, 46, 76
16, 281039, Note_on_c, 14, 46, 0
16, 281040, Note_on_c, 14, 43, 76
16, 281264, Note_on_c, 14, 43, 0
16, 281280, Note_on_c, 14, 48, 76
16, 281504, Note_on_c, 14, 48, 0
16, 281520, Note_on_c, 14, 60, 76
16, 281744, Note_on_c, 14, 60, 0
16, 281760, Note_on_c, 14, 48, 76
16, 281984, Note_on_c, 14, 48, 0
16, 282000, Note_on_c, 14, 48, 76
16, 282224, Note_on_c, 14, 48, 0
16, 282240, Note_on_c, 14, 53, 52
16, 282479, Note_on_c, 14, 53, 0
16, 283200, Note_on_c, 14, 53, 52
16, 283919, Note_on_c, 14, 53, 0
16, 283920, Note_on_c, 14, 48, 52
16, 284159, Note_on_c, 14, 48, 0
16, 284160, Note_on_c, 14, 53, 52
16, 284399, Note_on_c, 14, 53, 0
16, 285120, Note_on_c, 14, 53, 52
16, 285824, Note_on_c, 14, 53, 0
16, 285840, Note_on_c, 14, 53, 52
16, 286064, Note_on_c, 14, 53, 0
16, 286080, Note_on_c, 14, 48, 52
16, 286319, Note_on_c, 14, 48, 0
16, 287040, Note_on_c, 14, 48, 52
16, 287744, Note_on_c, 14, 48, 0
16, 287760, Note_on_c, 14, 48, 52
16, 287984, Note_on_c, 14, 48, 0
16, 288000, Note_on_c, 14, 48, 52
16, 288239, Note_on_c, 14, 48, 0
16, 288960, Note_on_c, 14, 48, 52
16, 289664, Note_on_c, 14, 48, 0
16, 289680, Note_on_c, 14, 48, 76
16, 289904, Note_on_c, 14, 48, 0
16, 289920, Note_on_c, 14, 53, 76
16, 290159, Note_on_c, 14, 53, 0
16, 290640, Note_on_c, 14, 60, 76
16, 290819, Note_on_c, 14, 60, 0
16, 290880, Note_on_c, 14, 57, 76
16, 291119, Note_on_c, 14, 57, 0
16, 291120, Note_on_c, 14, 58, 76
16, 291344, Note_on_c, 14, 58, 0
16, 291360, Note_on_c, 14, 60, 76
16, 291539, Note_on_c, 14, 60, 0
16, 291600, Note_on_c, 14, 48, 76
16, 291779, Note_on_c, 14, 48, 0
16, 291840, Note_on_c, 14, 53, 76
16, 292544, Note_on_c, 14, 53, 0
16, 292560, Note_on_c, 14, 55, 76
16, 292739, Note_on_c, 14, 55, 0
16, 292800, Note_on_c, 14, 57, 76
16, 293039, Note_on_c, 14, 57, 0
16, 293040, Note_on_c, 14, 53, 76
16, 293264, Note_on_c, 14, 53, 0
16, 293280, Note_on_c, 14, 57, 76
16, 293459, Note_on_c, 14, 57, 0
16, 293520, Note_on_c, 14, 58, 76
16, 293699, Note_on_c, 14, 58, 0
16, 293760, Note_on_c, 14, 60, 76
16, 294464, Note_on_c, 14, 60, 0
16, 294480, Note_on_c, 14, 62, 76
16, 294659, Note_on_c, 14, 62, 0
16, 294720, Note_on_c, 14, 64, 76
16, 294959, Note_on_c, 14, 64, 0
16, 294960, Note_on_c, 14, 65, 76
16, 295184, Note_on_c, 14, 65, 0
16, 295200, Note_on_c, 14, 67, 76
16, 295379, Note_on_c, 14, 67, 0
16, 295440, Note_on_c, 14, 65, 76
16, 295619, Note_on_c, 14, 65, 0
16, 295680, Note_on_c, 14, 64, 76
16, 296384, Note_on_c, 14, 64, 0
16, 296400, Note_on_c, 14, 62, 76
16, 296579, Note_on_c, 14, 62, 0
16, 296640, Note_on_c, 14, 60, 76
16, 296879, Note_on_c, 14, 60, 0
16, 296880, Note_on_c, 14, 62, 76
16, 297104, Note_on_c, 14, 62, 0
16, 297120, Note_on_c, 14, 58, 76
16, 297299, Note_on_c, 14, 58, 0
16, 297360, Note_on_c, 14, 55, 76
16, 297539, Note_on_c, 14, 55, 0
16, 297600, Note_on_c, 14, 52, 76
16, 297839, Note_on_c, 14, 52, 0
16, 301440, Note_on_c, 14, 41, 84
16, 301679, Note_on_c, 14, 41, 0
16, 302160, Note_on_c, 14, 50, 84
16, 302384, Note_on_c, 14, 50, 0
16, 302400, Note_on_c, 14, 46, 84
16, 302639, Note_on_c, 14, 46, 0
16, 302880, Note_on_c, 14, 48, 84
16, 303119, Note_on_c, 14, 48, 0
16, 305280, Note_on_c, 14, 41, 84
16, 305519, Note_on_c, 14, 41, 0
16, 306000, Note_on_c, 14, 50, 84
16, 306224, Note_on_c, 14, 50, 0
16, 306240, Note_on_c, 14, 46, 84
16, 306479, Note_on_c, 14, 46, 0
16, 306720, Note_on_c, 14, 48, 84
16, 306959, Note_on_c, 14, 48, 0
16, 307200, Note_on_c, 14, 59, 44
16, 307304, Note_on_c, 14, 59, 0
16, 307320, Note_on_c, 14, 59, 46
16, 307424, Note_on_c, 14, 59, 0
16, 307440, Note_on_c, 14, 59, 48
16, 307544, Note_on_c, 14, 59, 0
16, 307560, Note_on_c, 14, 59, 50
16, 307664, Note_on_c, 14, 59, 0
16, 307680, Note_on_c, 14, 59, 52
16, 307784, Note_on_c, 14, 59, 0
16, 307800, Note_on_c, 14, 59, 54
16, 307904, Note_on_c, 14, 59, 0
16, 307920, Note_on_c, 14, 59, 56
16, 308024, Note_on_c, 14, 59, 0
16, 308040, Note_on_c, 14, 59, 58
16, 308144, Note_on_c, 14, 59, 0
16, 308160, Note_on_c, 14, 59, 60
16, 308264, Note_on_c, 14, 59, 0
16, 308280, Note_on_c, 14, 59, 62
16, 308384, Note_on_c, 14, 59, 0
16, 308400, Note_on_c, 14, 59, 64
16, 308504, Note_on_c, 14, 59, 0
16, 308520, Note_on_c, 14, 59, 66
16, 308624, Note_on_c, 14, 59, 0
16, 308640, Note_on_c, 14, 59, 68
16, 308744, Note_on_c, 14, 59, 0
16, 308760, Note_on_c, 14, 59, 70
16, 308864, Note_on_c, 14, 59, 0
16, 308880, Note_on_c, 14, 59, 72
16, 308984, Note_on_c, 14, 59, 0
16, 309000, Note_on_c, 14, 59, 74
16, 309104, Note_on_c, 14, 59, 0
16, 309120, Note_on_c, 14, 59, 76
16, 309224, Note_on_c, 14, 59, 0
16, 309240, Note_on_c, 14, 59, 76
16, 309344, Note_on_c, 14, 59, 0
16, 309360, Note_on_c, 14, 59, 76
16, 309464, Note_on_c, 14, 59, 0
16, 309480, Note_on_c, 14, 59, 76
16, 309584, Note_on_c, 14, 59, 0
16, 309600, Note_on_c, 14, 59, 76
16, 309704, Note_on_c, 14, 59, 0
16, 309720, Note_on_c, 14, 59, 76
16, 309824, Note_on_c, 14, 59, 0
16, 309840, Note_on_c, 14, 59, 76
16, 309944, Note_on_c, 14, 59, 0
16, 309960, Note_on_c, 14, 59, 76
16, 310064, Note_on_c, 14, 59, 0
16, 310080, Note_on_c, 14, 60, 76
16, 310184, Note_on_c, 14, 60, 0
16, 310200, Note_on_c, 14, 60, 76
16, 310304, Note_on_c, 14, 60, 0
16, 310320, Note_on_c, 14, 60, 76
16, 310424, Note_on_c, 14, 60, 0
16, 310440, Note_on_c, 14, 60, 76
16, 310544, Note_on_c, 14, 60, 0
16, 310560, Note_on_c, 14, 60, 76
16, 310664, Note_on_c, 14, 60, 0
16, 310680, Note_on_c, 14, 60, 76
16, 310784, Note_on_c, 14, 60, 0
16, 310800, Note_on_c, 14, 60, 76
16, 310904, Note_on_c, 14, 60, 0
16, 310920, Note_on_c, 14, 60, 76
16, 311024, Note_on_c, 14, 60, 0
16, 311040, Note_on_c, 14, 62, 76
16, 311144, Note_on_c, 14, 62, 0
16, 311160, Note_on_c, 14, 62, 76
16, 311264, Note_on_c, 14, 62, 0
16, 311280, Note_on_c, 14, 62, 76
16, 311384, Note_on_c, 14, 62, 0
16, 311400, Note_on_c, 14, 62, 76
16, 311504, Note_on_c, 14, 62, 0
16, 311520, Note_on_c, 14, 62, 76
16, 311624, Note_on_c, 14, 62, 0
16, 311640, Note_on_c, 14, 62, 76
16, 311744, Note_on_c, 14, 62, 0
16, 311760, Note_on_c, 14, 62, 76
16, 311864, Note_on_c, 14, 62, 0
16, 311880, Note_on_c, 14, 62, 76
16, 311984, Note_on_c, 14, 62, 0
16, 312000, Note_on_c, 14, 64, 76
16, 312104, Note_on_c, 14, 64, 0
16, 312120, Note_on_c, 14, 64, 76
16, 312224, Note_on_c, 14, 64, 0
16, 312240, Note_on_c, 14, 64, 76
16, 312344, Note_on_c, 14, 64, 0
16, 312360, Note_on_c, 14, 64, 76
16, 312464, Note_on_c, 14, 64, 0
16, 312480, Note_on_c, 14, 64, 76
16, 312584, Note_on_c, 14, 64, 0
16, 312600, Note_on_c, 14, 64, 76
16, 312704, Note_on_c, 14, 64, 0
16, 312720, Note_on_c, 14, 64, 76
16, 312824, Note_on_c, 14, 64, 0
16, 312840, Note_on_c, 14, 64, 76
16, 312944, Note_on_c, 14, 64, 0
16, 312960, Note_on_c, 14, 65, 84
16, 313064, Note_on_c, 14, 65, 0
16, 313080, Note_on_c, 14, 49, 84
16, 313184, Note_on_c, 14, 49, 0
16, 313200, Note_on_c, 14, 49, 84
16, 313304, Note_on_c, 14, 49, 0
16, 313320, Note_on_c, 14, 49, 84
16, 313424, Note_on_c, 14, 49, 0
16, 313440, Note_on_c, 14, 49, 84
16, 313544, Note_on_c, 14, 49, 0
16, 313560, Note_on_c, 14, 49, 84
16, 313664, Note_on_c, 14, 49, 0
16, 313680, Note_on_c, 14, 49, 84
16, 313784, Note_on_c, 14, 49, 0
16, 313800, Note_on_c, 14, 49, 84
16, 313904, Note_on_c, 14, 49, 0
16, 313920, Note_on_c, 14, 49, 84
16, 314024, Note_on_c, 14, 49, 0
16, 314040, Note_on_c, 14, 49, 84
16, 314144, Note_on_c, 14, 49, 0
16, 314160, Note_on_c, 14, 49, 84
16, 314264, Note_on_c, 14, 49, 0
16, 314280, Note_on_c, 14, 49, 84
16, 314384, Note_on_c, 14, 49, 0
16, 314400, Note_on_c, 14, 49, 84
16, 314504, Note_on_c, 14, 49, 0
16, 314520, Note_on_c, 14, 49, 84
16, 314624, Note_on_c, 14, 49, 0
16, 314640, Note_on_c, 14, 49, 84
16, 314744, Note_on_c, 14, 49, 0
16, 314760, Note_on_c, 14, 49, 84
16, 314864, Note_on_c, 14, 49, 0
16, 314880, Note_on_c, 14, 48, 84
16, 314984, Note_on_c, 14, 48, 0
16, 315000, Note_on_c, 14, 48, 84
16, 315104, Note_on_c, 14, 48, 0
16, 315120, Note_on_c, 14, 48, 84
16, 315224, Note_on_c, 14, 48, 0
16, 315240, Note_on_c, 14, 48, 84
16, 315344, Note_on_c, 14, 48, 0
16, 315360, Note_on_c, 14, 48, 84
16, 315464, Note_on_c, 14, 48, 0
16, 315480, Note_on_c, 14, 48, 84
16, 315584, Note_on_c, 14, 48, 0
16, 315600, Note_on_c, 14, 48, 84
16, 315704, Note_on_c, 14, 48, 0
16, 315720, Note_on_c, 14, 48, 84
16, 315824, Note_on_c, 14, 48, 0
16, 315840, Note_on_c, 14, 36, 84
16, 315944, Note_on_c, 14, 36, 0
16, 315960, Note_on_c, 14, 36, 84
16, 316064, Note_on_c, 14, 36, 0
16, 316080, Note_on_c, 14, 36, 84
16, 316184, Note_on_c, 14, 36, 0
16, 316200, Note_on_c, 14, 36, 84
16, 316304, Note_on_c, 14, 36, 0
16, 316320, Note_on_c, 14, 36, 84
16, 316424, Note_on_c, 14, 36, 0
16, 316440, Note_on_c, 14, 36, 84
16, 316544, Note_on_c, 14, 36, 0
16, 316560, Note_on_c, 14, 36, 84
16, 316664, Note_on_c, 14, 36, 0
16, 316680, Note_on_c, 14, 36, 84
16, 316784, Note_on_c, 14, 36, 0
16, 316800, Note_on_c, 14, 41, 84
16, 317039, Note_on_c, 14, 41, 0
16, 319920, Note_on_c, 14, 48, 76
16, 320384, Note_on_c, 14, 48, 0
16, 320400, Note_on_c, 14, 48, 76
16, 320579, Note_on_c, 14, 48, 0
16, 320640, Note_on_c, 14, 41, 76
16, 320819, Note_on_c, 14, 41, 0
16, 322560, Note_on_c, 14, 41, 76
16, 322799, Note_on_c, 14, 41, 0
16, 323760, Note_on_c, 14, 48, 76
16, 324224, Note_on_c, 14, 48, 0
16, 324240, Note_on_c, 14, 48, 76
16, 324464, Note_on_c, 14, 48, 0
16, 324480, Note_on_c, 14, 41, 76
16, 324719, Note_on_c, 14, 41, 0
16, 324960, Note_on_c, 14, 41, 76
16, 325199, Note_on_c, 14, 41, 0
16, 325440, Note_on_c, 14, 41, 76
16, 325679, Note_on_c, 14, 41, 0
16, 325920, Note_on_c, 14, 41, 76
16, 326159, Note_on_c, 14, 41, 0
16, 326400, Note_on_c, 14, 41, 76
16, 326639, Note_on_c, 14, 41, 0
16, 329280, Note_on_c, 14, 57, 76
16, 329399, Note_on_c, 14, 57, 0
16, 329520, Note_on_c, 14, 60, 76
16, 329639, Note_on_c, 14, 60, 0
16, 329760, Note_on_c, 14, 53, 76
16, 329879, Note_on_c, 14, 53, 0
16, 330000, Note_on_c, 14, 57, 76
16, 330119, Note_on_c, 14, 57, 0
16, 330240, Note_on_c, 14, 48, 76
16, 330479, Note_on_c, 14, 48, 0
16, 333120, Note_on_c, 14, 52, 76
16, 333239, Note_on_c, 14, 52, 0
16, 333360, Note_on_c, 14, 55, 76
16, 333479, Note_on_c, 14, 55, 0
16, 333600, Note_on_c, 14, 48, 76
16, 333719, Note_on_c, 14, 48, 0
16, 333840, Note_on_c, 14, 48, 76
16, 333959, Note_on_c, 14, 48, 0
16, 334080, Note_on_c, 14, 41, 76
16, 334319, Note_on_c, 14, 41, 0
16, 335040, Note_on_c, 14, 57, 76
16, 335159, Note_on_c, 14, 57, 0
16, 335280, Note_on_c, 14, 60, 76
16, 335399, Note_on_c, 14, 60, 0
16, 335520, Note_on_c, 14, 53, 76
16, 335639, Note_on_c, 14, 53, 0
16, 335760, Note_on_c, 14, 57, 76
16, 335879, Note_on_c, 14, 57, 0
16, 336960, Note_on_c, 14, 55, 76
16, 337079, Note_on_c, 14, 55, 0
16, 337200, Note_on_c, 14, 58, 76
16, 337319, Note_on_c, 14, 58, 0
16, 337440, Note_on_c, 14, 50, 76
16, 337559, Note_on_c, 14, 50, 0
16, 337680, Note_on_c, 14, 55, 76
16, 337799, Note_on_c, 14, 55, 0
16, 338880, Note_on_c, 14, 53, 76
16, 338999, Note_on_c, 14, 53, 0
16, 339120, Note_on_c, 14, 57, 76
16, 339239, Note_on_c, 14, 57, 0
16, 339360, Note_on_c, 14, 48, 76
16, 339479, Note_on_c, 14, 48, 0
16, 339600, Note_on_c, 14, 53, 76
16, 339719, Note_on_c, 14, 53, 0
16, 340800, Note_on_c, 14, 48, 76
16, 340919, Note_on_c, 14, 48, 0
16, 341040, Note_on_c, 14, 52, 76
16, 341159, Note_on_c, 14, 52, 0
16, 341280, Note_on_c, 14, 43, 76
16, 341399, Note_on_c, 14, 43, 0
16, 341520, Note_on_c, 14, 48, 76
16, 341639, Note_on_c, 14, 48, 0
16, 341760, Note_on_c, 14, 49, 52
16, 341760, Control_c, 14, 11, 127
16, 341872, Control_c, 14, 11, 126
16, 341879, Note_on_c, 14, 49, 0
16, 341984, Control_c, 14, 11, 125
16, 342000, Note_on_c, 14, 52, 52
16, 342096, Control_c, 14, 11, 124
16, 342179, Note_on_c, 14, 52, 0
16, 342208, Control_c, 14, 11, 123
16, 342240, Note_on_c, 14, 49, 52
16, 342320, Control_c, 14, 11, 122
16, 342419, Note_on_c, 14, 49, 0
16, 342432, Control_c, 14, 11, 121
16, 342480, Note_on_c, 14, 52, 52
16, 342544, Control_c, 14, 11, 120
16, 342656, Control_c, 14, 11, 119
16, 342659, Note_on_c, 14, 52, 0
16, 342720, Note_on_c, 14, 45, 52
16, 342768, Control_c, 14, 11, 118
16, 342880, Control_c, 14, 11, 117
16, 342899, Note_on_c, 14, 45, 0
16, 342960, Note_on_c, 14, 52, 52
16, 342992, Control_c, 14, 11, 116
16, 343104, Control_c, 14, 11, 115
16, 343139, Note_on_c, 14, 52, 0
16, 343200, Note_on_c, 14, 49, 52
16, 343216, Control_c, 14, 11, 114
16, 343328, Control_c, 14, 11, 113
16, 343379, Note_on_c, 14, 49, 0
16, 343440, Note_on_c, 14, 52, 52
16, 343619, Note_on_c, 14, 52, 0
16, 343672, Control_c, 14, 11, 127
16, 343680, Note_on_c, 14, 49, 44
16, 343799, Note_on_c, 14, 49, 0
16, 343920, Note_on_c, 14, 52, 44
16, 344039, Note_on_c, 14, 52, 0
16, 344160, Note_on_c, 14, 49, 44
16, 344279, Note_on_c, 14, 49, 0
16, 344400, Note_on_c, 14, 52, 44
16, 344519, Note_on_c, 14, 52, 0
16, 344640, Note_on_c, 14, 45, 44
16, 344819, Note_on_c, 14, 45, 0
16, 344880, Note_on_c, 14, 52, 44
16, 345059, Note_on_c, 14, 52, 0
16, 345120, Note_on_c, 14, 49, 44
16, 345299, Note_on_c, 14, 49, 0
16, 345360, Note_on_c, 14, 52, 44
16, 345539, Note_on_c, 14, 52, 0
16, 345840, Note_on_c, 14, 52, 44
16, 346019, Note_on_c, 14, 52, 0
16, 346080, Note_on_c, 14, 49, 44
16, 346259, Note_on_c, 14, 49, 0
16, 346320, Note_on_c, 14, 52, 44
16, 346499, Note_on_c, 14, 52, 0
16, 346800, Note_on_c, 14, 52, 44
16, 346979, Note_on_c, 14, 52, 0
16, 347040, Note_on_c, 14, 49, 44
16, 347219, Note_on_c, 14, 49, 0
16, 347280, Note_on_c, 14, 52, 44
16, 347459, Note_on_c, 14, 52, 0
16, 347760, Note_on_c, 14, 52, 44
16, 347939, Note_on_c, 14, 52, 0
16, 348000, Note_on_c, 14, 49, 44
16, 348179, Note_on_c, 14, 49, 0
16, 348240, Note_on_c, 14, 52, 44
16, 348419, Note_on_c, 14, 52, 0
16, 348720, Note_on_c, 14, 52, 44
16, 348899, Note_on_c, 14, 52, 0
16, 348960, Note_on_c, 14, 49, 44
16, 349139, Note_on_c, 14, 49, 0
16, 349200, Note_on_c, 14, 52, 44
16, 349379, Note_on_c, 14, 52, 0
16, 349680, Note_on_c, 14, 52, 44
16, 349859, Note_on_c, 14, 52, 0
16, 349920, Note_on_c, 14, 49, 44
16, 350099, Note_on_c, 14, 49, 0
16, 350160, Note_on_c, 14, 55, 44
16, 350339, Note_on_c, 14, 55, 0
16, 350640, Note_on_c, 14, 55, 44
16, 350819, Note_on_c, 14, 55, 0
16, 350880, Note_on_c, 14, 52, 44
16, 351059, Note_on_c, 14, 52, 0
16, 351120, Note_on_c, 14, 55, 44
16, 351299, Note_on_c, 14, 55, 0
16, 351600, Note_on_c, 14, 55, 44
16, 351779, Note_on_c, 14, 55, 0
16, 351840, Note_on_c, 14, 52, 44
16, 352019, Note_on_c, 14, 52, 0
16, 352080, Note_on_c, 14, 55, 44
16, 352259, Note_on_c, 14, 55, 0
16, 352560, Note_on_c, 14, 55, 44
16, 352739, Note_on_c, 14, 55, 0
16, 352800, Note_on_c, 14, 52, 44
16, 352979, Note_on_c, 14, 52, 0
16, 353040, Note_on_c, 14, 55, 44
16, 353219, Note_on_c, 14, 55, 0
16, 353280, Control_c, 14, 11, 64
16, 353440, Control_c, 14, 11, 69
16, 353520, Note_on_c, 14, 55, 76
16, 353600, Control_c, 14, 11, 75
16, 353699, Note_on_c, 14, 55, 0
16, 353760, Control_c, 14, 11, 80
16, 353760, Note_on_c, 14, 52, 76
16, 353920, Control_c, 14, 11, 85
16, 353939, Note_on_c, 14, 52, 0
16, 354000, Note_on_c, 14, 55, 76
16, 354080, Control_c, 14, 11, 90
16, 354179, Note_on_c, 14, 55, 0
16, 354240, Note_on_c, 14, 52, 76
16, 354240, Control_c, 14, 11, 96
16, 354400, Control_c, 14, 11, 101
16, 354419, Note_on_c, 14, 52, 0
16, 354480, Note_on_c, 14, 55, 76
16, 354560, Control_c, 14, 11, 106
16, 354659, Note_on_c, 14, 55, 0
16, 354720, Note_on_c, 14, 52, 76
16, 354720, Control_c, 14, 11, 111
16, 354880, Control_c, 14, 11, 117
16, 354899, Note_on_c, 14, 52, 0
16, 354960, Note_on_c, 14, 54, 76
16, 355040, Control_c, 14, 11, 122
16, 355120, Control_c, 14, 11, 127
16, 355139, Note_on_c, 14, 54, 0
16, 355200, Note_on_c, 14, 50, 76
16, 355304, Note_on_c, 14, 50, 0
16, 355320, Note_on_c, 14, 62, 52
16, 355424, Note_on_c, 14, 62, 0
16, 355440, Note_on_c, 14, 62, 52
16, 355544, Note_on_c, 14, 62, 0
16, 355560, Note_on_c, 14, 62, 52
16, 355664, Note_on_c, 14, 62, 0
16, 355680, Note_on_c, 14, 62, 52
16, 355784, Note_on_c, 14, 62, 0
16, 355800, Note_on_c, 14, 62, 52
16, 355904, Note_on_c, 14, 62, 0
16, 355920, Note_on_c, 14, 62, 52
16, 356024, Note_on_c, 14, 62, 0
16, 356040, Note_on_c, 14, 62, 52
16, 356144, Note_on_c, 14, 62, 0
16, 356160, Note_on_c, 14, 62, 52
16, 356264, Note_on_c, 14, 62, 0
16, 356280, Note_on_c, 14, 62, 52
16, 356384, Note_on_c, 14, 62, 0
16, 356400, Note_on_c, 14, 62, 52
16, 356504, Note_on_c, 14, 62, 0
16, 356520, Note_on_c, 14, 62, 52
16, 356624, Note_on_c, 14, 62, 0
16, 356640, Note_on_c, 14, 62, 52
16, 356744, Note_on_c, 14, 62, 0
16, 356760, Note_on_c, 14, 62, 52
16, 356864, Note_on_c, 14, 62, 0
16, 356880, Note_on_c, 14, 62, 52
16, 356984, Note_on_c, 14, 62, 0
16, 357000, Note_on_c, 14, 62, 52
16, 357104, Note_on_c, 14, 62, 0
16, 357120, Note_on_c, 14, 62, 52
16, 357224, Note_on_c, 14, 62, 0
16, 357240, Note_on_c, 14, 62, 52
16, 357344, Note_on_c, 14, 62, 0
16, 357360, Note_on_c, 14, 62, 52
16, 357464, Note_on_c, 14, 62, 0
16, 357480, Note_on_c, 14, 62, 52
16, 357584, Note_on_c, 14, 62, 0
16, 357600, Note_on_c, 14, 62, 52
16, 357704, Note_on_c, 14, 62, 0
16, 357720, Note_on_c, 14, 62, 52
16, 357824, Note_on_c, 14, 62, 0
16, 357840, Note_on_c, 14, 62, 52
16, 357944, Note_on_c, 14, 62, 0
16, 357960, Note_on_c, 14, 62, 52
16, 358064, Note_on_c, 14, 62, 0
16, 358080, Note_on_c, 14, 62, 52
16, 358184, Note_on_c, 14, 62, 0
16, 358200, Note_on_c, 14, 62, 52
16, 358304, Note_on_c, 14, 62, 0
16, 358320, Note_on_c, 14, 62, 52
16, 358424, Note_on_c, 14, 62, 0
16, 358440, Note_on_c, 14, 62, 52
16, 358544, Note_on_c, 14, 62, 0
16, 358560, Note_on_c, 14, 62, 52
16, 358664, Note_on_c, 14, 62, 0
16, 358680, Note_on_c, 14, 62, 52
16, 358784, Note_on_c, 14, 62, 0
16, 358800, Note_on_c, 14, 62, 52
16, 358904, Note_on_c, 14, 62, 0
16, 358920, Note_on_c, 14, 62, 52
16, 359024, Note_on_c, 14, 62, 0
16, 359040, Note_on_c, 14, 62, 52
16, 359999, Note_on_c, 14, 62, 0
16, 360000, Note_on_c, 14, 62, 52
16, 360479, Note_on_c, 14, 62, 0
16, 360480, Note_on_c, 14, 64, 52
16, 360719, Note_on_c, 14, 64, 0
16, 360720, Note_on_c, 14, 66, 52
16, 360911, Note_on_c, 14, 66, 0
16, 360920, Note_on_c, 14, 69, 52
16, 360959, Note_on_c, 14, 69, 0
16, 360960, Note_on_c, 14, 67, 52
16, 361439, Note_on_c, 14, 67, 0
16, 361440, Note_on_c, 14, 66, 52
16, 361679, Note_on_c, 14, 66, 0
16, 361680, Note_on_c, 14, 67, 52
16, 361904, Note_on_c, 14, 67, 0
16, 361920, Note_on_c, 14, 64, 52
16, 362399, Note_on_c, 14, 64, 0
16, 362400, Note_on_c, 14, 69, 52
16, 362864, Note_on_c, 14, 69, 0
16, 362880, Note_on_c, 14, 62, 52
16, 362999, Note_on_c, 14, 62, 0
16, 363120, Note_on_c, 14, 67, 52
16, 363239, Note_on_c, 14, 67, 0
16, 363360, Note_on_c, 14, 62, 52
16, 363479, Note_on_c, 14, 62, 0
16, 363600, Note_on_c, 14, 67, 52
16, 363719, Note_on_c, 14, 67, 0
16, 363840, Note_on_c, 14, 58, 52
16, 363959, Note_on_c, 14, 58, 0
16, 364080, Note_on_c, 14, 62, 52
16, 364199, Note_on_c, 14, 62, 0
16, 364320, Note_on_c, 14, 55, 52
16, 364439, Note_on_c, 14, 55, 0
16, 364560, Note_on_c, 14, 58, 52
16, 364679, Note_on_c, 14, 58, 0
16, 364800, Note_on_c, 14, 51, 52
16, 364919, Note_on_c, 14, 51, 0
16, 365040, Note_on_c, 14, 60, 52
16, 365159, Note_on_c, 14, 60, 0
16, 365280, Note_on_c, 14, 57, 52
16, 365399, Note_on_c, 14, 57, 0
16, 365520, Note_on_c, 14, 55, 52
16, 365639, Note_on_c, 14, 55, 0
16, 365760, Note_on_c, 14, 54, 52
16, 365879, Note_on_c, 14, 54, 0
16, 366000, Note_on_c, 14, 62, 52
16, 366119, Note_on_c, 14, 62, 0
16, 366240, Note_on_c, 14, 60, 52
16, 366359, Note_on_c, 14, 60, 0
16, 366480, Note_on_c, 14, 57, 52
16, 366599, Note_on_c, 14, 57, 0
16, 366720, Note_on_c, 14, 55, 52
16, 366959, Note_on_c, 14, 55, 0
16, 367440, Program_c, 14, 45
16, 367680, Note_on_c, 14, 55, 48
16, 367919, Note_on_c, 14, 55, 0
16, 368640, Note_on_c, 14, 53, 48
16, 368879, Note_on_c, 14, 53, 0
16, 369600, Note_on_c, 14, 46, 48
16, 369839, Note_on_c, 14, 46, 0
16, 370560, Note_on_c, 14, 51, 48
16, 370799, Note_on_c, 14, 51, 0
16, 371520, Note_on_c, 14, 55, 48
16, 371759, Note_on_c, 14, 55, 0
16, 372480, Note_on_c, 14, 53, 48
16, 372719, Note_on_c, 14, 53, 0
16, 373440, Note_on_c, 14, 46, 48
16, 373679, Note_on_c, 14, 46, 0
16, 374400, Note_on_c, 14, 51, 48
16, 374639, Note_on_c, 14, 51, 0
16, 375360, Note_on_c, 14, 48, 55
16, 375599, Note_on_c, 14, 48, 0
16, 376320, Note_on_c, 14, 44, 62
16, 376559, Note_on_c, 14, 44, 0
16, 377280, Note_on_c, 14, 46, 69
16, 377519, Note_on_c, 14, 46, 0
16, 378000, Program_c, 14, 48
16, 378240, Note_on_c, 14, 63, 84
16, 378419, Note_on_c, 14, 63, 0
16, 378480, Note_on_c, 14, 58, 84
16, 378659, Note_on_c, 14, 58, 0
16, 378720, Note_on_c, 14, 55, 84
16, 378899, Note_on_c, 14, 55, 0
16, 378960, Note_on_c, 14, 58, 84
16, 379139, Note_on_c, 14, 58, 0
16, 379200, Note_on_c, 14, 58, 84
16, 379379, Note_on_c, 14, 58, 0
16, 379440, Note_on_c, 14, 55, 84
16, 379619, Note_on_c, 14, 55, 0
16, 379680, Note_on_c, 14, 51, 84
16, 379859, Note_on_c, 14, 51, 0
16, 379920, Note_on_c, 14, 55, 84
16, 380099, Note_on_c, 14, 55, 0
16, 380160, Note_on_c, 14, 55, 84
16, 380339, Note_on_c, 14, 55, 0
16, 380400, Note_on_c, 14, 51, 84
16, 380579, Note_on_c, 14, 51, 0
16, 380640, Note_on_c, 14, 46, 84
16, 380819, Note_on_c, 14, 46, 0
16, 380880, Note_on_c, 14, 51, 84
16, 381059, Note_on_c, 14, 51, 0
16, 381120, Note_on_c, 14, 51, 84
16, 381299, Note_on_c, 14, 51, 0
16, 381360, Note_on_c, 14, 46, 84
16, 381539, Note_on_c, 14, 46, 0
16, 381600, Note_on_c, 14, 43, 84
16, 381779, Note_on_c, 14, 43, 0
16, 381840, Note_on_c, 14, 46, 84
16, 382019, Note_on_c, 14, 46, 0
16, 382080, Note_on_c, 14, 39, 84
16, 382259, Note_on_c, 14, 39, 0
16, 385920, Note_on_c, 14, 67, 84
16, 386099, Note_on_c, 14, 67, 0
16, 386160, Note_on_c, 14, 62, 84
16, 386339, Note_on_c, 14, 62, 0
16, 386400, Note_on_c, 14, 59, 84
16, 386579, Note_on_c, 14, 59, 0
16, 386640, Note_on_c, 14, 62, 84
16, 386819, Note_on_c, 14, 62, 0
16, 386880, Note_on_c, 14, 62, 84
16, 387059, Note_on_c, 14, 62, 0
16, 387120, Note_on_c, 14, 59, 84
16, 387299, Note_on_c, 14, 59, 0
16, 387360, Note_on_c, 14, 55, 84
16, 387539, Note_on_c, 14, 55, 0
16, 387600, Note_on_c, 14, 59, 84
16, 387779, Note_on_c, 14, 59, 0
16, 387840, Note_on_c, 14, 59, 84
16, 388019, Note_on_c, 14, 59, 0
16, 388080, Note_on_c, 14, 55, 84
16, 388259, Note_on_c, 14, 55, 0
16, 388320, Note_on_c, 14, 50, 84
16, 388499, Note_on_c, 14, 50, 0
16, 388560, Note_on_c, 14, 55, 84
16, 388739, Note_on_c, 14, 55, 0
16, 388800, Note_on_c, 14, 55, 84
16, 388979, Note_on_c, 14, 55, 0
16, 389040, Note_on_c, 14, 50, 84
16, 389219, Note_on_c, 14, 50, 0
16, 389280, Note_on_c, 14, 47, 84
16, 389459, Note_on_c, 14, 47, 0
16, 389520, Note_on_c, 14, 50, 84
16, 389699, Note_on_c, 14, 50, 0
16, 389760, Note_on_c, 14, 43, 84
16, 389939, Note_on_c, 14, 43, 0
16, 393600, Note_on_c, 14, 67, 84
16, 393779, Note_on_c, 14, 67, 0
16, 393840, Note_on_c, 14, 64, 84
16, 394019, Note_on_c, 14, 64, 0
16, 394080, Note_on_c, 14, 61, 84
16, 394259, Note_on_c, 14, 61, 0
16, 394320, Note_on_c, 14, 64, 84
16, 394499, Note_on_c, 14, 64, 0
16, 394560, Note_on_c, 14, 64, 84
16, 394739, Note_on_c, 14, 64, 0
16, 394800, Note_on_c, 14, 61, 84
16, 394979, Note_on_c, 14, 61, 0
16, 395040, Note_on_c, 14, 58, 84
16, 395219, Note_on_c, 14, 58, 0
16, 395280, Note_on_c, 14, 61, 84
16, 395459, Note_on_c, 14, 61, 0
16, 395520, Note_on_c, 14, 61, 84
16, 395699, Note_on_c, 14, 61, 0
16, 395760, Note_on_c, 14, 58, 84
16, 395939, Note_on_c, 14, 58, 0
16, 396000, Note_on_c, 14, 55, 84
16, 396179, Note_on_c, 14, 55, 0
16, 396240, Note_on_c, 14, 58, 84
16, 396419, Note_on_c, 14, 58, 0
16, 396480, Note_on_c, 14, 55, 84
16, 396659, Note_on_c, 14, 55, 0
16, 396720, Note_on_c, 14, 52, 84
16, 396899, Note_on_c, 14, 52, 0
16, 396960, Note_on_c, 14, 49, 84
16, 397139, Note_on_c, 14, 49, 0
16, 397200, Note_on_c, 14, 46, 84
16, 397379, Note_on_c, 14, 46, 0
16, 397440, Note_on_c, 14, 43, 76
16, 397679, Note_on_c, 14, 43, 0
16, 398400, Note_on_c, 14, 43, 76
16, 398639, Note_on_c, 14, 43, 0
16, 399360, Note_on_c, 14, 43, 76
16, 399599, Note_on_c, 14, 43, 0
16, 400320, Note_on_c, 14, 43, 76
16, 400559, Note_on_c, 14, 43, 0
16, 401280, Note_on_c, 14, 43, 76
16, 401519, Note_on_c, 14, 43, 0
16, 403200, Note_on_c, 14, 43, 52
16, 403439, Note_on_c, 14, 43, 0
16, 405120, Note_on_c, 14, 43, 44
16, 405359, Note_on_c, 14, 43, 0
16, 416640, Note_on_c, 14, 42, 36
16, 417599, Note_on_c, 14, 42, 0
16, 417600, Note_on_c, 14, 42, 36
16, 418799, Note_on_c, 14, 42, 0
16, 420480, Note_on_c, 14, 42, 36
16, 421439, Note_on_c, 14, 42, 0
16, 421440, Note_on_c, 14, 42, 36
16, 422639, Note_on_c, 14, 42, 0
16, 426240, Note_on_c, 14, 54, 36
16, 427199, Note_on_c, 14, 54, 0
16, 427200, Note_on_c, 14, 54, 36
16, 428399, Note_on_c, 14, 54, 0
16, 428880, Note_on_c, 14, 54, 36
16, 429104, Note_on_c, 14, 54, 0
16, 429120, Note_on_c, 14, 54, 44
16, 429359, Note_on_c, 14, 54, 0
16, 429840, Note_on_c, 14, 54, 44
16, 430064, Note_on_c, 14, 54, 0
16, 430080, Note_on_c, 14, 54, 44
16, 430319, Note_on_c, 14, 54, 0
16, 430800, Note_on_c, 14, 54, 44
16, 431024, Note_on_c, 14, 54, 0
16, 431040, Note_on_c, 14, 54, 44
16, 431279, Note_on_c, 14, 54, 0
16, 431760, Note_on_c, 14, 54, 44
16, 431984, Note_on_c, 14, 54, 0
16, 432000, Note_on_c, 14, 54, 44
16, 432239, Note_on_c, 14, 54, 0
16, 433680, Note_on_c, 14, 58, 44
16, 433919, Note_on_c, 14, 58, 0
16, 433920, Note_on_c, 14, 56, 44
16, 434159, Note_on_c, 14, 56, 0
16, 434160, Note_on_c, 14, 54, 44
16, 434399, Note_on_c, 14, 54, 0
16, 434400, Note_on_c, 14, 52, 44
16, 434639, Note_on_c, 14, 52, 0
16, 434640, Note_on_c, 14, 51, 44
16, 434879, Note_on_c, 14, 51, 0
16, 434880, Note_on_c, 14, 49, 44
16, 435119, Note_on_c, 14, 49, 0
16, 435120, Note_on_c, 14, 47, 44
16, 435359, Note_on_c, 14, 47, 0
16, 435360, Note_on_c, 14, 46, 44
16, 435599, Note_on_c, 14, 46, 0
16, 435600, Note_on_c, 14, 44, 44
16, 435839, Note_on_c, 14, 44, 0
16, 435840, Note_on_c, 14, 42, 44
16, 436079, Note_on_c, 14, 42, 0
16, 436080, Note_on_c, 14, 41, 44
16, 436319, Note_on_c, 14, 41, 0
16, 436320, Note_on_c, 14, 42, 44
16, 436559, Note_on_c, 14, 42, 0
16, 436560, Note_on_c, 14, 46, 44
16, 436799, Note_on_c, 14, 46, 0
16, 436800, Note_on_c, 14, 49, 44
16, 437039, Note_on_c, 14, 49, 0
16, 437040, Note_on_c, 14, 52, 44
16, 437279, Note_on_c, 14, 52, 0
16, 439440, Note_on_c, 14, 42, 44
16, 439679, Note_on_c, 14, 42, 0
16, 439680, Note_on_c, 14, 41, 44
16, 440639, Note_on_c, 14, 41, 0
16, 440640, Note_on_c, 14, 41, 44
16, 441839, Note_on_c, 14, 41, 0
16, 443520, Note_on_c, 14, 41, 44
16, 444479, Note_on_c, 14, 41, 0
16, 444480, Note_on_c, 14, 41, 44
16, 445679, Note_on_c, 14, 41, 0
16, 453000, Note_on_c, 14, 53, 44
16, 453039, Note_on_c, 14, 53, 0
16, 453040, Note_on_c, 14, 55, 44
16, 453079, Note_on_c, 14, 55, 0
16, 453080, Note_on_c, 14, 57, 44
16, 453111, Note_on_c, 14, 57, 0
16, 453120, Note_on_c, 14, 58, 44
16, 454079, Note_on_c, 14, 58, 0
16, 454920, Note_on_c, 14, 50, 44
16, 454979, Note_on_c, 14, 50, 0
16, 454980, Note_on_c, 14, 51, 44
16, 455031, Note_on_c, 14, 51, 0
16, 455040, Note_on_c, 14, 53, 44
16, 455519, Note_on_c, 14, 53, 0
16, 455880, Note_on_c, 14, 46, 44
16, 455939, Note_on_c, 14, 46, 0
16, 455940, Note_on_c, 14, 48, 44
16, 455991, Note_on_c, 14, 48, 0
16, 456000, Note_on_c, 14, 50, 44
16, 456479, Note_on_c, 14, 50, 0
16, 456840, Note_on_c, 14, 50, 44
16, 456899, Note_on_c, 14, 50, 0
16, 456900, Note_on_c, 14, 51, 44
16, 456951, Note_on_c, 14, 51, 0
16, 456960, Note_on_c, 14, 53, 44
16, 457439, Note_on_c, 14, 53, 0
16, 457800, Note_on_c, 14, 50, 44
16, 457859, Note_on_c, 14, 50, 0
16, 457860, Note_on_c, 14, 51, 44
16, 457911, Note_on_c, 14, 51, 0
16, 457920, Note_on_c, 14, 53, 44
16, 458399, Note_on_c, 14, 53, 0
16, 458760, Note_on_c, 14, 53, 44
16, 458799, Note_on_c, 14, 53, 0
16, 458800, Note_on_c, 14, 55, 44
16, 458839, Note_on_c, 14, 55, 0
16, 458840, Note_on_c, 14, 57, 44
16, 458871, Note_on_c, 14, 57, 0
16, 458880, Note_on_c, 14, 58, 44
16, 459119, Note_on_c, 14, 58, 0
16, 459240, Note_on_c, 14, 46, 44
16, 459299, Note_on_c, 14, 46, 0
16, 459300, Note_on_c, 14, 48, 44
16, 459359, Note_on_c, 14, 48, 0
16, 459360, Note_on_c, 14, 50, 45
16, 459539, Note_on_c, 14, 50, 0
16, 459720, Note_on_c, 14, 50, 47
16, 459779, Note_on_c, 14, 50, 0
16, 459780, Note_on_c, 14, 51, 47
16, 459839, Note_on_c, 14, 51, 0
16, 459840, Note_on_c, 14, 53, 47
16, 460019, Note_on_c, 14, 53, 0
16, 460200, Note_on_c, 14, 53, 49
16, 460239, Note_on_c, 14, 53, 0
16, 460240, Note_on_c, 14, 55, 50
16, 460279, Note_on_c, 14, 55, 0
16, 460280, Note_on_c, 14, 57, 50
16, 460319, Note_on_c, 14, 57, 0
16, 460320, Note_on_c, 14, 58, 50
16, 460499, Note_on_c, 14, 58, 0
16, 460680, Note_on_c, 14, 58, 52
16, 460739, Note_on_c, 14, 58, 0
16, 460740, Note_on_c, 14, 60, 52
16, 460799, Note_on_c, 14, 60, 0
16, 460800, Note_on_c, 14, 62, 53
16, 460979, Note_on_c, 14, 62, 0
16, 461160, Note_on_c, 14, 50, 54
16, 461219, Note_on_c, 14, 50, 0
16, 461220, Note_on_c, 14, 51, 55
16, 461279, Note_on_c, 14, 51, 0
16, 461280, Note_on_c, 14, 53, 55
16, 461459, Note_on_c, 14, 53, 0
16, 461640, Note_on_c, 14, 53, 57
16, 461679, Note_on_c, 14, 53, 0
16, 461680, Note_on_c, 14, 55, 57
16, 461719, Note_on_c, 14, 55, 0
16, 461720, Note_on_c, 14, 57, 57
16, 461759, Note_on_c, 14, 57, 0
16, 461760, Note_on_c, 14, 58, 58
16, 461939, Note_on_c, 14, 58, 0
16, 462120, Note_on_c, 14, 58, 60
16, 462179, Note_on_c, 14, 58, 0
16, 462180, Note_on_c, 14, 60, 60
16, 462239, Note_on_c, 14, 60, 0
16, 462240, Note_on_c, 14, 62, 60
16, 462419, Note_on_c, 14, 62, 0
16, 462600, Note_on_c, 14, 62, 62
16, 462659, Note_on_c, 14, 62, 0
16, 462660, Note_on_c, 14, 63, 63
16, 462719, Note_on_c, 14, 63, 0
16, 462720, Note_on_c, 14, 65, 63
16, 462899, Note_on_c, 14, 65, 0
16, 463080, Note_on_c, 14, 41, 65
16, 463119, Note_on_c, 14, 41, 0
16, 463120, Note_on_c, 14, 43, 65
16, 463159, Note_on_c, 14, 43, 0
16, 463160, Note_on_c, 14, 45, 65
16, 463199, Note_on_c, 14, 45, 0
16, 463200, Note_on_c, 14, 46, 65
16, 463379, Note_on_c, 14, 46, 0
16, 463560, Note_on_c, 14, 46, 67
16, 463619, Note_on_c, 14, 46, 0
16, 463620, Note_on_c, 14, 48, 68
16, 463679, Note_on_c, 14, 48, 0
16, 463680, Note_on_c, 14, 50, 68
16, 463859, Note_on_c, 14, 50, 0
16, 464040, Note_on_c, 14, 50, 70
16, 464099, Note_on_c, 14, 50, 0
16, 464100, Note_on_c, 14, 51, 70
16, 464159, Note_on_c, 14, 51, 0
16, 464160, Note_on_c, 14, 53, 71
16, 464339, Note_on_c, 14, 53, 0
16, 464520, Note_on_c, 14, 53, 73
16, 464559, Note_on_c, 14, 53, 0
16, 464560, Note_on_c, 14, 55, 73
16, 464599, Note_on_c, 14, 55, 0
16, 464600, Note_on_c, 14, 57, 73
16, 464639, Note_on_c, 14, 57, 0
16, 464640, Note_on_c, 14, 58, 73
16, 464819, Note_on_c, 14, 58, 0
16, 465000, Note_on_c, 14, 41, 75
16, 465039, Note_on_c, 14, 41, 0
16, 465040, Note_on_c, 14, 43, 75
16, 465079, Note_on_c, 14, 43, 0
16, 465080, Note_on_c, 14, 45, 76
16, 465119, Note_on_c, 14, 45, 0
16, 465120, Note_on_c, 14, 46, 76
16, 465299, Note_on_c, 14, 46, 0
16, 465480, Note_on_c, 14, 46, 78
16, 465539, Note_on_c, 14, 46, 0
16, 465540, Note_on_c, 14, 48, 78
16, 465599, Note_on_c, 14, 48, 0
16, 465600, Note_on_c, 14, 50, 78
16, 465779, Note_on_c, 14, 50, 0
16, 465960, Note_on_c, 14, 50, 80
16, 466019, Note_on_c, 14, 50, 0
16, 466020, Note_on_c, 14, 51, 81
16, 466079, Note_on_c, 14, 51, 0
16, 466080, Note_on_c, 14, 53, 81
16, 466259, Note_on_c, 14, 53, 0
16, 466440, Note_on_c, 14, 53, 83
16, 466479, Note_on_c, 14, 53, 0
16, 466480, Note_on_c, 14, 55, 83
16, 466519, Note_on_c, 14, 55, 0
16, 466520, Note_on_c, 14, 57, 83
16, 466551, Note_on_c, 14, 57, 0
16, 466560, Note_on_c, 14, 58, 84
16, 466664, Note_on_c, 14, 58, 0
16, 466680, Note_on_c, 14, 46, 84
16, 466784, Note_on_c, 14, 46, 0
16, 466800, Note_on_c, 14, 46, 84
16, 466904, Note_on_c, 14, 46, 0
16, 466920, Note_on_c, 14, 46, 84
16, 467024, Note_on_c, 14, 46, 0
16, 467040, Note_on_c, 14, 46, 84
16, 467144, Note_on_c, 14, 46, 0
16, 467160, Note_on_c, 14, 46, 84
16, 467264, Note_on_c, 14, 46, 0
16, 467280, Note_on_c, 14, 46, 84
16, 467384, Note_on_c, 14, 46, 0
16, 467400, Note_on_c, 14, 46, 84
16, 467504, Note_on_c, 14, 46, 0
16, 467520, Note_on_c, 14, 46, 84
16, 467624, Note_on_c, 14, 46, 0
16, 467640, Note_on_c, 14, 46, 84
16, 467744, Note_on_c, 14, 46, 0
16, 467760, Note_on_c, 14, 46, 84
16, 467864, Note_on_c, 14, 46, 0
16, 467880, Note_on_c, 14, 46, 84
16, 467984, Note_on_c, 14, 46, 0
16, 468000, Note_on_c, 14, 46, 84
16, 468104, Note_on_c, 14, 46, 0
16, 468120, Note_on_c, 14, 46, 84
16, 468224, Note_on_c, 14, 46, 0
16, 468240, Note_on_c, 14, 46, 84
16, 468344, Note_on_c, 14, 46, 0
16, 468360, Note_on_c, 14, 46, 84
16, 468464, Note_on_c, 14, 46, 0
16, 468480, Note_on_c, 14, 46, 84
16, 468584, Note_on_c, 14, 46, 0
16, 468600, Note_on_c, 14, 46, 84
16, 468704, Note_on_c, 14, 46, 0
16, 468720, Note_on_c, 14, 46, 84
16, 468824, Note_on_c, 14, 46, 0
16, 468840, Note_on_c, 14, 46, 84
16, 468944, Note_on_c, 14, 46, 0
16, 468960, Note_on_c, 14, 46, 84
16, 469064, Note_on_c, 14, 46, 0
16, 469080, Note_on_c, 14, 46, 84
16, 469184, Note_on_c, 14, 46, 0
16, 469200, Note_on_c, 14, 46, 84
16, 469304, Note_on_c, 14, 46, 0
16, 469320, Note_on_c, 14, 46, 84
16, 469424, Note_on_c, 14, 46, 0
16, 469440, Note_on_c, 14, 46, 84
16, 469619, Note_on_c, 14, 46, 0
16, 469920, Note_on_c, 14, 46, 84
16, 470099, Note_on_c, 14, 46, 0
16, 470400, Note_on_c, 14, 46, 84
16, 470519, Note_on_c, 14, 46, 0
16, 470640, Note_on_c, 14, 46, 84
16, 470759, Note_on_c, 14, 46, 0
16, 470880, Note_on_c, 14, 46, 84
16, 470999, Note_on_c, 14, 46, 0
16, 471120, Note_on_c, 14, 46, 84
16, 471239, Note_on_c, 14, 46, 0
16, 471360, Note_on_c, 14, 46, 84
16, 471479, Note_on_c, 14, 46, 0
16, 471600, Note_on_c, 14, 46, 84
16, 471719, Note_on_c, 14, 46, 0
16, 471840, Note_on_c, 14, 46, 84
16, 471959, Note_on_c, 14, 46, 0
16, 472080, Note_on_c, 14, 46, 84
16, 472199, Note_on_c, 14, 46, 0
16, 472320, Note_on_c, 14, 46, 84
16, 472439, Note_on_c, 14, 46, 0
16, 472560, Note_on_c, 14, 46, 84
16, 472679, Note_on_c, 14, 46, 0
16, 472800, Note_on_c, 14, 46, 84
16, 472919, Note_on_c, 14, 46, 0
16, 473040, Note_on_c, 14, 46, 84
16, 473159, Note_on_c, 14, 46, 0
16, 473280, Note_on_c, 14, 46, 84
16, 473399, Note_on_c, 14, 46, 0
16, 473520, Note_on_c, 14, 46, 84
16, 473639, Note_on_c, 14, 46, 0
16, 473760, Note_on_c, 14, 46, 84
16, 473879, Note_on_c, 14, 46, 0
16, 474000, Note_on_c, 14, 46, 84
16, 474119, Note_on_c, 14, 46, 0
16, 474240, Note_on_c, 14, 46, 76
16, 474344, Note_on_c, 14, 46, 0
16, 474360, Note_on_c, 14, 58, 52
16, 474464, Note_on_c, 14, 58, 0
16, 474480, Note_on_c, 14, 58, 52
16, 474584, Note_on_c, 14, 58, 0
16, 474600, Note_on_c, 14, 58, 52
16, 474704, Note_on_c, 14, 58, 0
16, 474720, Note_on_c, 14, 58, 52
16, 474824, Note_on_c, 14, 58, 0
16, 474840, Note_on_c, 14, 58, 52
16, 474944, Note_on_c, 14, 58, 0
16, 474960, Note_on_c, 14, 58, 52
16, 475064, Note_on_c, 14, 58, 0
16, 475080, Note_on_c, 14, 58, 52
16, 475184, Note_on_c, 14, 58, 0
16, 475200, Note_on_c, 14, 58, 52
16, 475304, Note_on_c, 14, 58, 0
16, 475320, Note_on_c, 14, 58, 52
16, 475424, Note_on_c, 14, 58, 0
16, 475440, Note_on_c, 14, 58, 52
16, 475544, Note_on_c, 14, 58, 0
16, 475560, Note_on_c, 14, 58, 52
16, 475664, Note_on_c, 14, 58, 0
16, 475680, Note_on_c, 14, 58, 52
16, 475784, Note_on_c, 14, 58, 0
16, 475800, Note_on_c, 14, 58, 52
16, 475904, Note_on_c, 14, 58, 0
16, 475920, Note_on_c, 14, 58, 52
16, 476024, Note_on_c, 14, 58, 0
16, 476040, Note_on_c, 14, 58, 52
16, 476144, Note_on_c, 14, 58, 0
16, 476160, Note_on_c, 14, 58, 52
16, 476264, Note_on_c, 14, 58, 0
16, 476280, Note_on_c, 14, 58, 52
16, 476384, Note_on_c, 14, 58, 0
16, 476400, Note_on_c, 14, 58, 52
16, 476504, Note_on_c, 14, 58, 0
16, 476520, Note_on_c, 14, 58, 52
16, 476624, Note_on_c, 14, 58, 0
16, 476640, Note_on_c, 14, 58, 52
16, 476744, Note_on_c, 14, 58, 0
16, 476760, Note_on_c, 14, 58, 52
16, 476864, Note_on_c, 14, 58, 0
16, 476880, Note_on_c, 14, 58, 52
16, 476984, Note_on_c, 14, 58, 0
16, 477000, Note_on_c, 14, 58, 52
16, 477104, Note_on_c, 14, 58, 0
16, 477120, Note_on_c, 14, 58, 52
16, 477224, Note_on_c, 14, 58, 0
16, 477240, Note_on_c, 14, 58, 52
16, 477344, Note_on_c, 14, 58, 0
16, 477360, Note_on_c, 14, 58, 52
16, 477464, Note_on_c, 14, 58, 0
16, 477480, Note_on_c, 14, 58, 52
16, 477584, Note_on_c, 14, 58, 0
16, 477600, Note_on_c, 14, 58, 52
16, 477704, Note_on_c, 14, 58, 0
16, 477720, Note_on_c, 14, 58, 52
16, 477824, Note_on_c, 14, 58, 0
16, 477840, Note_on_c, 14, 58, 52
16, 477944, Note_on_c, 14, 58, 0
16, 477960, Note_on_c, 14, 58, 52
16, 478064, Note_on_c, 14, 58, 0
16, 478080, Note_on_c, 14, 58, 52
16, 478319, Note_on_c, 14, 58, 0
16, 479760, Note_on_c, 14, 51, 52
16, 479984, Note_on_c, 14, 51, 0
16, 480000, Note_on_c, 14, 53, 52
16, 480959, Note_on_c, 14, 53, 0
16, 480960, Note_on_c, 14, 53, 52
16, 482159, Note_on_c, 14, 53, 0
16, 482880, Control_c, 14, 11, 77
16, 483120, Control_c, 14, 11, 80
16, 483120, Note_on_c, 14, 53, 84
16, 483160, Control_c, 14, 11, 82
16, 483200, Control_c, 14, 11, 85
16, 483240, Control_c, 14, 11, 88
16, 483280, Control_c, 14, 11, 90
16, 483320, Control_c, 14, 11, 93
16, 483360, Control_c, 14, 11, 96
16, 483400, Control_c, 14, 11, 98
16, 483440, Control_c, 14, 11, 101
16, 483480, Control_c, 14, 11, 103
16, 483520, Control_c, 14, 11, 106
16, 483560, Control_c, 14, 11, 109
16, 483584, Note_on_c, 14, 53, 0
16, 483600, Control_c, 14, 11, 111
16, 483600, Note_on_c, 14, 53, 84
16, 483640, Control_c, 14, 11, 114
16, 483659, Note_on_c, 14, 53, 0
16, 483660, Note_on_c, 14, 55, 84
16, 483680, Control_c, 14, 11, 117
16, 483719, Note_on_c, 14, 55, 0
16, 483720, Control_c, 14, 11, 119
16, 483720, Note_on_c, 14, 57, 84
16, 483760, Control_c, 14, 11, 122
16, 483779, Note_on_c, 14, 57, 0
16, 483780, Note_on_c, 14, 58, 84
16, 483800, Control_c, 14, 11, 127
16, 483809, Note_on_c, 14, 58, 0
16, 483810, Note_on_c, 14, 60, 84
16, 483835, Note_on_c, 14, 60, 0
16, 483840, Note_on_c, 14, 62, 84
16, 483959, Note_on_c, 14, 62, 0
16, 484080, Note_on_c, 14, 58, 84
16, 484199, Note_on_c, 14, 58, 0
16, 484320, Note_on_c, 14, 53, 84
16, 484439, Note_on_c, 14, 53, 0
16, 484560, Note_on_c, 14, 58, 84
16, 484679, Note_on_c, 14, 58, 0
16, 484800, Note_on_c, 14, 50, 84
16, 484979, Note_on_c, 14, 50, 0
16, 485040, Note_on_c, 14, 53, 84
16, 485219, Note_on_c, 14, 53, 0
16, 485280, Note_on_c, 14, 46, 84
16, 485459, Note_on_c, 14, 46, 0
16, 485520, Note_on_c, 14, 50, 84
16, 485699, Note_on_c, 14, 50, 0
16, 485760, Note_on_c, 14, 43, 84
16, 485939, Note_on_c, 14, 43, 0
16, 486000, Note_on_c, 14, 51, 84
16, 486179, Note_on_c, 14, 51, 0
16, 486240, Note_on_c, 14, 48, 84
16, 486419, Note_on_c, 14, 48, 0
16, 486480, Note_on_c, 14, 46, 84
16, 486659, Note_on_c, 14, 46, 0
16, 486720, Note_on_c, 14, 45, 84
16, 486899, Note_on_c, 14, 45, 0
16, 486960, Note_on_c, 14, 53, 84
16, 487139, Note_on_c, 14, 53, 0
16, 487200, Note_on_c, 14, 51, 84
16, 487379, Note_on_c, 14, 51, 0
16, 487440, Note_on_c, 14, 48, 84
16, 487619, Note_on_c, 14, 48, 0
16, 487680, Note_on_c, 14, 46, 84
16, 487859, Note_on_c, 14, 46, 0
16, 487920, Note_on_c, 14, 53, 84
16, 488099, Note_on_c, 14, 53, 0
16, 488160, Note_on_c, 14, 50, 84
16, 488339, Note_on_c, 14, 50, 0
16, 488400, Note_on_c, 14, 48, 84
16, 488579, Note_on_c, 14, 48, 0
16, 488640, Note_on_c, 14, 47, 84
16, 488819, Note_on_c, 14, 47, 0
16, 488880, Note_on_c, 14, 55, 84
16, 489059, Note_on_c, 14, 55, 0
16, 489120, Note_on_c, 14, 50, 84
16, 489299, Note_on_c, 14, 50, 0
16, 489360, Note_on_c, 14, 47, 84
16, 489539, Note_on_c, 14, 47, 0
16, 489600, Note_on_c, 14, 48, 92
16, 489779, Note_on_c, 14, 48, 0
16, 489840, Note_on_c, 14, 55, 84
16, 490019, Note_on_c, 14, 55, 0
16, 490080, Note_on_c, 14, 51, 84
16, 490259, Note_on_c, 14, 51, 0
16, 490320, Note_on_c, 14, 50, 84
16, 490499, Note_on_c, 14, 50, 0
16, 490560, Note_on_c, 14, 48, 92
16, 490739, Note_on_c, 14, 48, 0
16, 490800, Note_on_c, 14, 56, 84
16, 490979, Note_on_c, 14, 56, 0
16, 491040, Note_on_c, 14, 51, 84
16, 491219, Note_on_c, 14, 51, 0
16, 491280, Note_on_c, 14, 48, 84
16, 491459, Note_on_c, 14, 48, 0
16, 491520, Note_on_c, 14, 50, 92
16, 491729, Note_on_c, 14, 50, 0
16, 491760, Note_on_c, 14, 56, 84
16, 491984, Note_on_c, 14, 56, 0
16, 492000, Note_on_c, 14, 53, 84
16, 492224, Note_on_c, 14, 53, 0
16, 492240, Note_on_c, 14, 51, 84
16, 492464, Note_on_c, 14, 51, 0
16, 492480, Note_on_c, 14, 50, 84
16, 492704, Note_on_c, 14, 50, 0
16, 492720, Note_on_c, 14, 58, 84
16, 492944, Note_on_c, 14, 58, 0
16, 492960, Note_on_c, 14, 53, 92
16, 493169, Note_on_c, 14, 53, 0
16, 493200, Note_on_c, 14, 50, 84
16, 493424, Note_on_c, 14, 50, 0
16, 493440, Note_on_c, 14, 51, 84
16, 493664, Note_on_c, 14, 51, 0
16, 493680, Note_on_c, 14, 55, 84
16, 493904, Note_on_c, 14, 55, 0
16, 493920, Note_on_c, 14, 52, 92
16, 494129, Note_on_c, 14, 52, 0
16, 494160, Note_on_c, 14, 60, 84
16, 494384, Note_on_c, 14, 60, 0
16, 494400, Note_on_c, 14, 53, 84
16, 494624, Note_on_c, 14, 53, 0
16, 494640, Note_on_c, 14, 57, 84
16, 494864, Note_on_c, 14, 57, 0
16, 494880, Note_on_c, 14, 54, 92
16, 495089, Note_on_c, 14, 54, 0
16, 495120, Note_on_c, 14, 62, 84
16, 495344, Note_on_c, 14, 62, 0
16, 495360, Note_on_c, 14, 55, 84
16, 495584, Note_on_c, 14, 55, 0
16, 495600, Note_on_c, 14, 58, 84
16, 495824, Note_on_c, 14, 58, 0
16, 495840, Note_on_c, 14, 55, 92
16, 496049, Note_on_c, 14, 55, 0
16, 496080, Note_on_c, 14, 63, 84
16, 496304, Note_on_c, 14, 63, 0
16, 496320, Note_on_c, 14, 56, 84
16, 496544, Note_on_c, 14, 56, 0
16, 496560, Note_on_c, 14, 60, 84
16, 496784, Note_on_c, 14, 60, 0
16, 496800, Note_on_c, 14, 57, 92
16, 497009, Note_on_c, 14, 57, 0
16, 497040, Note_on_c, 14, 60, 84
16, 497264, Note_on_c, 14, 60, 0
16, 497280, Note_on_c, 14, 58, 84
16, 497504, Note_on_c, 14, 58, 0
16, 497520, Note_on_c, 14, 60, 84
16, 497744, Note_on_c, 14, 60, 0
16, 497760, Note_on_c, 14, 62, 84
16, 497984, Note_on_c, 14, 62, 0
16, 498000, Note_on_c, 14, 63, 84
16, 498224, Note_on_c, 14, 63, 0
16, 498240, Note_on_c, 14, 65, 84
16, 498464, Note_on_c, 14, 65, 0
16, 498480, Note_on_c, 14, 63, 84
16, 498704, Note_on_c, 14, 63, 0
16, 498720, Note_on_c, 14, 62, 84
16, 498944, Note_on_c, 14, 62, 0
16, 498960, Note_on_c, 14, 60, 84
16, 499184, Note_on_c, 14, 60, 0
16, 499200, Note_on_c, 14, 58, 84
16, 499424, Note_on_c, 14, 58, 0
16, 499440, Note_on_c, 14, 57, 84
16, 499664, Note_on_c, 14, 57, 0
16, 499680, Note_on_c, 14, 55, 84
16, 499904, Note_on_c, 14, 55, 0
16, 499920, Note_on_c, 14, 53, 84
16, 500144, Note_on_c, 14, 53, 0
16, 500160, Note_on_c, 14, 51, 84
16, 500384, Note_on_c, 14, 51, 0
16, 500400, Note_on_c, 14, 50, 84
16, 500624, Note_on_c, 14, 50, 0
16, 500640, Note_on_c, 14, 48, 84
16, 500864, Note_on_c, 14, 48, 0
16, 500880, Note_on_c, 14, 46, 84
16, 501104, Note_on_c, 14, 46, 0
16, 501120, Note_on_c, 14, 41, 84
16, 501359, Note_on_c, 14, 41, 0
16, 504240, Note_on_c, 14, 46, 92
16, 504719, Note_on_c, 14, 46, 0
16, 504720, Note_on_c, 14, 41, 84
16, 504944, Note_on_c, 14, 41, 0
16, 504960, Note_on_c, 14, 41, 84
16, 505139, Note_on_c, 14, 41, 0
16, 505200, Note_on_c, 14, 63, 84
16, 505664, Note_on_c, 14, 63, 0
16, 505680, Note_on_c, 14, 61, 84
16, 506144, Note_on_c, 14, 61, 0
16, 506160, Note_on_c, 14, 60, 84
16, 506624, Note_on_c, 14, 60, 0
16, 506640, Note_on_c, 14, 61, 84
16, 507104, Note_on_c, 14, 61, 0
16, 507120, Note_on_c, 14, 60, 84
16, 507584, Note_on_c, 14, 60, 0
16, 507600, Note_on_c, 14, 58, 84
16, 508064, Note_on_c, 14, 58, 0
16, 508080, Note_on_c, 14, 58, 92
16, 508559, Note_on_c, 14, 58, 0
16, 508560, Note_on_c, 14, 53, 84
16, 508784, Note_on_c, 14, 53, 0
16, 508800, Note_on_c, 14, 53, 76
16, 508919, Note_on_c, 14, 53, 0
16, 508920, Note_on_c, 14, 53, 52
16, 509519, Note_on_c, 14, 53, 0
16, 509520, Note_on_c, 14, 55, 52
16, 509759, Note_on_c, 14, 55, 0
16, 509760, Note_on_c, 14, 48, 52
16, 509999, Note_on_c, 14, 48, 0
16, 510000, Note_on_c, 14, 50, 52
16, 510239, Note_on_c, 14, 50, 0
16, 510240, Note_on_c, 14, 51, 52
16, 510479, Note_on_c, 14, 51, 0
16, 510480, Note_on_c, 14, 45, 52
16, 510719, Note_on_c, 14, 45, 0
16, 510720, Note_on_c, 14, 46, 52
16, 510959, Note_on_c, 14, 46, 0
16, 510960, Note_on_c, 14, 48, 52
16, 511199, Note_on_c, 14, 48, 0
16, 511200, Note_on_c, 14, 41, 52
16, 511439, Note_on_c, 14, 41, 0
16, 511440, Note_on_c, 14, 43, 52
16, 511679, Note_on_c, 14, 43, 0
16, 511680, Note_on_c, 14, 39, 52
16, 511919, Note_on_c, 14, 39, 0
16, 511920, Note_on_c, 14, 38, 52
16, 512159, Note_on_c, 14, 38, 0
16, 512160, Note_on_c, 14, 36, 52
16, 512399, Note_on_c, 14, 36, 0
16, 512400, Note_on_c, 14, 41, 52
16, 512624, Note_on_c, 14, 41, 0
16, 512640, Note_on_c, 14, 46, 52
16, 513599, Note_on_c, 14, 46, 0
16, 513600, Note_on_c, 14, 46, 52
16, 514559, Note_on_c, 14, 46, 0
16, 514560, Note_on_c, 14, 46, 52
16, 515519, Note_on_c, 14, 46, 0
16, 515520, Note_on_c, 14, 46, 52
16, 516464, Note_on_c, 14, 46, 0
16, 516480, Note_on_c, 14, 43, 52
16, 517439, Note_on_c, 14, 43, 0
16, 517440, Note_on_c, 14, 43, 52
16, 518384, Note_on_c, 14, 43, 0
16, 518400, Note_on_c, 14, 50, 52
16, 518639, Note_on_c, 14, 50, 0
16, 519120, Note_on_c, 14, 50, 52
16, 519344, Note_on_c, 14, 50, 0
16, 519360, Note_on_c, 14, 50, 52
16, 519599, Note_on_c, 14, 50, 0
16, 520080, Note_on_c, 14, 50, 52
16, 520304, Note_on_c, 14, 50, 0
16, 520320, Note_on_c, 14, 50, 52
16, 520559, Note_on_c, 14, 50, 0
16, 521040, Note_on_c, 14, 50, 52
16, 521264, Note_on_c, 14, 50, 0
16, 521280, Note_on_c, 14, 50, 52
16, 521519, Note_on_c, 14, 50, 0
16, 522000, Note_on_c, 14, 50, 52
16, 522224, Note_on_c, 14, 50, 0
16, 522240, Note_on_c, 14, 50, 52
16, 522464, Note_on_c, 14, 50, 0
16, 522480, Note_on_c, 14, 50, 52
16, 522704, Note_on_c, 14, 50, 0
16, 522720, Note_on_c, 14, 50, 52
16, 522959, Note_on_c, 14, 50, 0
16, 523440, Note_on_c, 14, 50, 52
16, 523664, Note_on_c, 14, 50, 0
16, 523680, Note_on_c, 14, 50, 52
16, 523919, Note_on_c, 14, 50, 0
16, 524400, Note_on_c, 14, 50, 52
16, 524624, Note_on_c, 14, 50, 0
16, 524640, Note_on_c, 14, 50, 52
16, 524879, Note_on_c, 14, 50, 0
16, 525360, Note_on_c, 14, 50, 52
16, 525584, Note_on_c, 14, 50, 0
16, 525600, Note_on_c, 14, 50, 52
16, 525839, Note_on_c, 14, 50, 0
16, 526072, Control_c, 14, 11, 64
16, 526080, Control_c, 14, 11, 64
16, 526080, Note_on_c, 14, 50, 76
16, 526248, Control_c, 14, 11, 65
16, 526415, Control_c, 14, 11, 66
16, 526439, Note_on_c, 14, 50, 0
16, 526560, Note_on_c, 14, 51, 76
16, 526583, Control_c, 14, 11, 67
16, 526750, Control_c, 14, 11, 68
16, 526918, Control_c, 14, 11, 69
16, 526919, Note_on_c, 14, 51, 0
16, 527040, Note_on_c, 14, 48, 76
16, 527086, Control_c, 14, 11, 70
16, 527253, Control_c, 14, 11, 71
16, 527399, Note_on_c, 14, 48, 0
16, 527421, Control_c, 14, 11, 72
16, 527520, Note_on_c, 14, 52, 76
16, 527589, Control_c, 14, 11, 73
16, 527756, Control_c, 14, 11, 74
16, 527879, Note_on_c, 14, 52, 0
16, 527924, Control_c, 14, 11, 75
16, 528000, Note_on_c, 14, 53, 76
16, 528091, Control_c, 14, 11, 76
16, 528259, Control_c, 14, 11, 77
16, 528359, Note_on_c, 14, 53, 0
16, 528427, Control_c, 14, 11, 78
16, 528480, Note_on_c, 14, 50, 76
16, 528594, Control_c, 14, 11, 79
16, 528762, Control_c, 14, 11, 80
16, 528839, Note_on_c, 14, 50, 0
16, 528930, Control_c, 14, 11, 81
16, 528960, Note_on_c, 14, 53, 76
16, 529097, Control_c, 14, 11, 82
16, 529265, Control_c, 14, 11, 83
16, 529319, Note_on_c, 14, 53, 0
16, 529432, Control_c, 14, 11, 84
16, 529440, Note_on_c, 14, 55, 76
16, 529600, Control_c, 14, 11, 85
16, 529768, Control_c, 14, 11, 86
16, 529799, Note_on_c, 14, 55, 0
16, 529920, Note_on_c, 14, 51, 76
16, 529935, Control_c, 14, 11, 87
16, 530103, Control_c, 14, 11, 88
16, 530270, Control_c, 14, 11, 89
16, 530279, Note_on_c, 14, 51, 0
16, 530400, Note_on_c, 14, 55, 76
16, 530438, Control_c, 14, 11, 90
16, 530606, Control_c, 14, 11, 91
16, 530759, Note_on_c, 14, 55, 0
16, 530773, Control_c, 14, 11, 92
16, 530880, Note_on_c, 14, 57, 76
16, 530941, Control_c, 14, 11, 93
16, 531109, Control_c, 14, 11, 94
16, 531239, Note_on_c, 14, 57, 0
16, 531276, Control_c, 14, 11, 95
16, 531360, Note_on_c, 14, 53, 76
16, 531444, Control_c, 14, 11, 96
16, 531611, Control_c, 14, 11, 97
16, 531719, Note_on_c, 14, 53, 0
16, 531779, Control_c, 14, 11, 98
16, 531840, Note_on_c, 14, 57, 76
16, 531947, Control_c, 14, 11, 99
16, 532114, Control_c, 14, 11, 100
16, 532199, Note_on_c, 14, 57, 0
16, 532282, Control_c, 14, 11, 101
16, 532320, Note_on_c, 14, 58, 76
16, 532450, Control_c, 14, 11, 102
16, 532617, Control_c, 14, 11, 103
16, 532679, Note_on_c, 14, 58, 0
16, 532785, Control_c, 14, 11, 104
16, 532800, Note_on_c, 14, 55, 76
16, 532952, Control_c, 14, 11, 105
16, 533120, Control_c, 14, 11, 106
16, 533159, Note_on_c, 14, 55, 0
16, 533280, Note_on_c, 14, 59, 76
16, 533288, Control_c, 14, 11, 107
16, 533455, Control_c, 14, 11, 108
16, 533623, Control_c, 14, 11, 109
16, 533639, Note_on_c, 14, 59, 0
16, 533760, Note_on_c, 14, 60, 76
16, 533790, Control_c, 14, 11, 110
16, 533958, Control_c, 14, 11, 111
16, 534119, Note_on_c, 14, 60, 0
16, 534126, Control_c, 14, 11, 112
16, 534240, Note_on_c, 14, 57, 76
16, 534293, Control_c, 14, 11, 113
16, 534461, Control_c, 14, 11, 114
16, 534599, Note_on_c, 14, 57, 0
16, 534629, Control_c, 14, 11, 115
16, 534720, Note_on_c, 14, 60, 76
16, 534796, Control_c, 14, 11, 116
16, 534964, Control_c, 14, 11, 117
16, 535079, Note_on_c, 14, 60, 0
16, 535131, Control_c, 14, 11, 118
16, 535200, Note_on_c, 14, 62, 76
16, 535299, Control_c, 14, 11, 119
16, 535467, Control_c, 14, 11, 120
16, 535559, Note_on_c, 14, 62, 0
16, 535634, Control_c, 14, 11, 121
16, 535680, Note_on_c, 14, 63, 76
16, 535802, Control_c, 14, 11, 122
16, 535970, Control_c, 14, 11, 123
16, 536039, Note_on_c, 14, 63, 0
16, 536137, Control_c, 14, 11, 124
16, 536160, Note_on_c, 14, 64, 76
16, 536305, Control_c, 14, 11, 125
16, 536472, Control_c, 14, 11, 127
16, 536519, Note_on_c, 14, 64, 0
16, 536640, Note_on_c, 14, 65, 76
16, 536999, Note_on_c, 14, 65, 0
16, 537120, Note_on_c, 14, 63, 76
16, 537479, Note_on_c, 14, 63, 0
16, 537600, Note_on_c, 14, 60, 76
16, 537959, Note_on_c, 14, 60, 0
16, 538080, Note_on_c, 14, 57, 76
16, 538439, Note_on_c, 14, 57, 0
16, 538560, Note_on_c, 14, 53, 76
16, 538919, Note_on_c, 14, 53, 0
16, 539040, Note_on_c, 14, 51, 76
16, 539399, Note_on_c, 14, 51, 0
16, 539520, Note_on_c, 14, 50, 76
16, 540224, Note_on_c, 14, 50, 0
16, 540240, Note_on_c, 14, 46, 76
16, 540464, Note_on_c, 14, 46, 0
16, 540480, Note_on_c, 14, 51, 76
16, 541184, Note_on_c, 14, 51, 0
16, 541200, Note_on_c, 14, 48, 76
16, 541424, Note_on_c, 14, 48, 0
16, 541440, Note_on_c, 14, 53, 76
16, 542144, Note_on_c, 14, 53, 0
16, 542160, Note_on_c, 14, 53, 76
16, 542384, Note_on_c, 14, 53, 0
16, 542400, Note_on_c, 14, 51, 76
16, 542624, Note_on_c, 14, 51, 0
16, 542640, Note_on_c, 14, 51, 76
16, 542864, Note_on_c, 14, 51, 0
16, 542880, Note_on_c, 14, 51, 76
16, 543104, Note_on_c, 14, 51, 0
16, 543120, Note_on_c, 14, 51, 76
16, 543344, Note_on_c, 14, 51, 0
16, 543360, Note_on_c, 14, 50, 76
16, 543599, Note_on_c, 14, 50, 0
16, 543600, Note_on_c, 14, 46, 76
16, 543824, Note_on_c, 14, 46, 0
16, 543840, Note_on_c, 14, 51, 76
16, 544079, Note_on_c, 14, 51, 0
16, 544080, Note_on_c, 14, 48, 76
16, 544304, Note_on_c, 14, 48, 0
16, 544320, Note_on_c, 14, 53, 76
16, 544544, Note_on_c, 14, 53, 0
16, 544560, Note_on_c, 14, 53, 76
16, 544784, Note_on_c, 14, 53, 0
16, 544800, Note_on_c, 14, 41, 76
16, 545024, Note_on_c, 14, 41, 0
16, 545040, Note_on_c, 14, 41, 76
16, 545264, Note_on_c, 14, 41, 0
16, 545280, Note_on_c, 14, 46, 52
16, 545519, Note_on_c, 14, 46, 0
16, 549840, Note_on_c, 14, 55, 52
16, 550079, Note_on_c, 14, 55, 0
16, 550080, Note_on_c, 14, 57, 52
16, 550319, Note_on_c, 14, 57, 0
16, 550320, Note_on_c, 14, 58, 52
16, 550559, Note_on_c, 14, 58, 0
16, 550560, Note_on_c, 14, 60, 52
16, 550799, Note_on_c, 14, 60, 0
16, 550800, Note_on_c, 14, 58, 52
16, 551024, Note_on_c, 14, 58, 0
16, 551040, Note_on_c, 14, 57, 52
16, 551759, Note_on_c, 14, 57, 0
16, 551760, Note_on_c, 14, 55, 52
16, 551999, Note_on_c, 14, 55, 0
16, 552000, Note_on_c, 14, 53, 52
16, 552239, Note_on_c, 14, 53, 0
16, 552240, Note_on_c, 14, 55, 52
16, 552479, Note_on_c, 14, 55, 0
16, 552480, Note_on_c, 14, 51, 52
16, 552719, Note_on_c, 14, 51, 0
16, 552720, Note_on_c, 14, 48, 52
16, 552944, Note_on_c, 14, 48, 0
16, 552960, Note_on_c, 14, 46, 76
16, 553664, Note_on_c, 14, 46, 0
16, 553680, Note_on_c, 14, 53, 76
16, 553859, Note_on_c, 14, 53, 0
16, 553920, Note_on_c, 14, 50, 76
16, 554159, Note_on_c, 14, 50, 0
16, 554160, Note_on_c, 14, 51, 76
16, 554384, Note_on_c, 14, 51, 0
16, 554400, Note_on_c, 14, 53, 76
16, 554579, Note_on_c, 14, 53, 0
16, 554640, Note_on_c, 14, 41, 76
16, 554819, Note_on_c, 14, 41, 0
16, 554880, Note_on_c, 14, 46, 76
16, 555584, Note_on_c, 14, 46, 0
16, 555600, Note_on_c, 14, 48, 76
16, 555779, Note_on_c, 14, 48, 0
16, 555840, Note_on_c, 14, 50, 76
16, 556079, Note_on_c, 14, 50, 0
16, 556080, Note_on_c, 14, 46, 76
16, 556304, Note_on_c, 14, 46, 0
16, 556320, Note_on_c, 14, 50, 76
16, 556499, Note_on_c, 14, 50, 0
16, 556560, Note_on_c, 14, 51, 76
16, 556739, Note_on_c, 14, 51, 0
16, 556800, Note_on_c, 14, 53, 76
16, 557519, Note_on_c, 14, 53, 0
16, 557520, Note_on_c, 14, 55, 76
16, 557699, Note_on_c, 14, 55, 0
16, 557760, Note_on_c, 14, 57, 76
16, 557999, Note_on_c, 14, 57, 0
16, 558000, Note_on_c, 14, 58, 76
16, 558224, Note_on_c, 14, 58, 0
16, 558240, Note_on_c, 14, 60, 76
16, 558419, Note_on_c, 14, 60, 0
16, 558480, Note_on_c, 14, 58, 76
16, 558659, Note_on_c, 14, 58, 0
16, 558720, Note_on_c, 14, 57, 76
16, 559424, Note_on_c, 14, 57, 0
16, 559440, Note_on_c, 14, 55, 76
16, 559619, Note_on_c, 14, 55, 0
16, 559680, Note_on_c, 14, 53, 76
16, 559919, Note_on_c, 14, 53, 0
16, 559920, Note_on_c, 14, 55, 76
16, 560144, Note_on_c, 14, 55, 0
16, 560160, Note_on_c, 14, 51, 76
16, 560339, Note_on_c, 14, 51, 0
16, 560400, Note_on_c, 14, 48, 76
16, 560579, Note_on_c, 14, 48, 0
16, 560640, Note_on_c, 14, 45, 76
16, 560879, Note_on_c, 14, 45, 0
16, 564480, Note_on_c, 14, 46, 84
16, 564719, Note_on_c, 14, 46, 0
16, 565200, Note_on_c, 14, 55, 84
16, 565424, Note_on_c, 14, 55, 0
16, 565440, Note_on_c, 14, 51, 84
16, 565679, Note_on_c, 14, 51, 0
16, 565920, Note_on_c, 14, 53, 84
16, 566159, Note_on_c, 14, 53, 0
16, 568320, Note_on_c, 14, 46, 84
16, 568559, Note_on_c, 14, 46, 0
16, 569040, Note_on_c, 14, 55, 84
16, 569264, Note_on_c, 14, 55, 0
16, 569280, Note_on_c, 14, 51, 84
16, 569519, Note_on_c, 14, 51, 0
16, 569760, Note_on_c, 14, 53, 84
16, 569999, Note_on_c, 14, 53, 0
16, 570240, Note_on_c, 14, 52, 44
16, 570344, Note_on_c, 14, 52, 0
16, 570360, Note_on_c, 14, 52, 46
16, 570464, Note_on_c, 14, 52, 0
16, 570480, Note_on_c, 14, 52, 48
16, 570584, Note_on_c, 14, 52, 0
16, 570600, Note_on_c, 14, 52, 50
16, 570704, Note_on_c, 14, 52, 0
16, 570720, Note_on_c, 14, 52, 52
16, 570824, Note_on_c, 14, 52, 0
16, 570840, Note_on_c, 14, 52, 54
16, 570944, Note_on_c, 14, 52, 0
16, 570960, Note_on_c, 14, 52, 56
16, 571064, Note_on_c, 14, 52, 0
16, 571080, Note_on_c, 14, 52, 58
16, 571184, Note_on_c, 14, 52, 0
16, 571200, Note_on_c, 14, 52, 60
16, 571304, Note_on_c, 14, 52, 0
16, 571320, Note_on_c, 14, 52, 62
16, 571424, Note_on_c, 14, 52, 0
16, 571440, Note_on_c, 14, 52, 64
16, 571544, Note_on_c, 14, 52, 0
16, 571560, Note_on_c, 14, 52, 66
16, 571664, Note_on_c, 14, 52, 0
16, 571680, Note_on_c, 14, 52, 68
16, 571784, Note_on_c, 14, 52, 0
16, 571800, Note_on_c, 14, 52, 70
16, 571904, Note_on_c, 14, 52, 0
16, 571920, Note_on_c, 14, 52, 72
16, 572024, Note_on_c, 14, 52, 0
16, 572040, Note_on_c, 14, 52, 74
16, 572144, Note_on_c, 14, 52, 0
16, 572160, Note_on_c, 14, 52, 76
16, 572264, Note_on_c, 14, 52, 0
16, 572280, Note_on_c, 14, 52, 76
16, 572384, Note_on_c, 14, 52, 0
16, 572400, Note_on_c, 14, 52, 76
16, 572504, Note_on_c, 14, 52, 0
16, 572520, Note_on_c, 14, 52, 76
16, 572624, Note_on_c, 14, 52, 0
16, 572640, Note_on_c, 14, 52, 76
16, 572744, Note_on_c, 14, 52, 0
16, 572760, Note_on_c, 14, 52, 76
16, 572864, Note_on_c, 14, 52, 0
16, 572880, Note_on_c, 14, 52, 76
16, 572984, Note_on_c, 14, 52, 0
16, 573000, Note_on_c, 14, 52, 76
16, 573104, Note_on_c, 14, 52, 0
16, 573120, Note_on_c, 14, 53, 76
16, 573224, Note_on_c, 14, 53, 0
16, 573240, Note_on_c, 14, 53, 76
16, 573344, Note_on_c, 14, 53, 0
16, 573360, Note_on_c, 14, 53, 76
16, 573464, Note_on_c, 14, 53, 0
16, 573480, Note_on_c, 14, 53, 76
16, 573584, Note_on_c, 14, 53, 0
16, 573600, Note_on_c, 14, 53, 76
16, 573704, Note_on_c, 14, 53, 0
16, 573720, Note_on_c, 14, 53, 76
16, 573824, Note_on_c, 14, 53, 0
16, 573840, Note_on_c, 14, 53, 76
16, 573944, Note_on_c, 14, 53, 0
16, 573960, Note_on_c, 14, 53, 76
16, 574064, Note_on_c, 14, 53, 0
16, 574080, Note_on_c, 14, 55, 76
16, 574184, Note_on_c, 14, 55, 0
16, 574200, Note_on_c, 14, 55, 76
16, 574304, Note_on_c, 14, 55, 0
16, 574320, Note_on_c, 14, 55, 76
16, 574424, Note_on_c, 14, 55, 0
16, 574440, Note_on_c, 14, 55, 76
16, 574544, Note_on_c, 14, 55, 0
16, 574560, Note_on_c, 14, 55, 76
16, 574664, Note_on_c, 14, 55, 0
16, 574680, Note_on_c, 14, 55, 76
16, 574784, Note_on_c, 14, 55, 0
16, 574800, Note_on_c, 14, 55, 76
16, 574904, Note_on_c, 14, 55, 0
16, 574920, Note_on_c, 14, 55, 76
16, 575024, Note_on_c, 14, 55, 0
16, 575040, Note_on_c, 14, 57, 76
16, 575144, Note_on_c, 14, 57, 0
16, 575160, Note_on_c, 14, 57, 76
16, 575264, Note_on_c, 14, 57, 0
16, 575280, Note_on_c, 14, 57, 76
16, 575384, Note_on_c, 14, 57, 0
16, 575400, Note_on_c, 14, 57, 76
16, 575504, Note_on_c, 14, 57, 0
16, 575520, Note_on_c, 14, 57, 76
16, 575624, Note_on_c, 14, 57, 0
16, 575640, Note_on_c, 14, 57, 76
16, 575744, Note_on_c, 14, 57, 0
16, 575760, Note_on_c, 14, 57, 76
16, 575864, Note_on_c, 14, 57, 0
16, 575880, Note_on_c, 14, 57, 76
16, 575984, Note_on_c, 14, 57, 0
16, 576000, Note_on_c, 14, 46, 84
16, 576104, Note_on_c, 14, 46, 0
16, 576120, Note_on_c, 14, 42, 84
16, 576224, Note_on_c, 14, 42, 0
16, 576240, Note_on_c, 14, 42, 84
16, 576344, Note_on_c, 14, 42, 0
16, 576360, Note_on_c, 14, 42, 84
16, 576464, Note_on_c, 14, 42, 0
16, 576480, Note_on_c, 14, 42, 84
16, 576584, Note_on_c, 14, 42, 0
16, 576600, Note_on_c, 14, 42, 84
16, 576704, Note_on_c, 14, 42, 0
16, 576720, Note_on_c, 14, 42, 84
16, 576824, Note_on_c, 14, 42, 0
16, 576840, Note_on_c, 14, 42, 84
16, 576944, Note_on_c, 14, 42, 0
16, 576960, Note_on_c, 14, 42, 84
16, 577064, Note_on_c, 14, 42, 0
16, 577080, Note_on_c, 14, 42, 84
16, 577184, Note_on_c, 14, 42, 0
16, 577200, Note_on_c, 14, 42, 84
16, 577304, Note_on_c, 14, 42, 0
16, 577320, Note_on_c, 14, 42, 84
16, 577424, Note_on_c, 14, 42, 0
16, 577440, Note_on_c, 14, 42, 84
16, 577544, Note_on_c, 14, 42, 0
16, 577560, Note_on_c, 14, 42, 84
16, 577664, Note_on_c, 14, 42, 0
16, 577680, Note_on_c, 14, 42, 84
16, 577784, Note_on_c, 14, 42, 0
16, 577800, Note_on_c, 14, 42, 84
16, 577904, Note_on_c, 14, 42, 0
16, 577920, Note_on_c, 14, 41, 92
16, 578024, Note_on_c, 14, 41, 0
16, 578040, Note_on_c, 14, 41, 84
16, 578144, Note_on_c, 14, 41, 0
16, 578160, Note_on_c, 14, 41, 84
16, 578264, Note_on_c, 14, 41, 0
16, 578280, Note_on_c, 14, 41, 84
16, 578384, Note_on_c, 14, 41, 0
16, 578400, Note_on_c, 14, 41, 84
16, 578504, Note_on_c, 14, 41, 0
16, 578520, Note_on_c, 14, 41, 84
16, 578624, Note_on_c, 14, 41, 0
16, 578640, Note_on_c, 14, 41, 84
16, 578744, Note_on_c, 14, 41, 0
16, 578760, Note_on_c, 14, 41, 84
16, 578864, Note_on_c, 14, 41, 0
16, 578880, Note_on_c, 14, 41, 84
16, 578984, Note_on_c, 14, 41, 0
16, 579000, Note_on_c, 14, 41, 84
16, 579104, Note_on_c, 14, 41, 0
16, 579120, Note_on_c, 14, 41, 84
16, 579224, Note_on_c, 14, 41, 0
16, 579240, Note_on_c, 14, 41, 84
16, 579344, Note_on_c, 14, 41, 0
16, 579360, Note_on_c, 14, 41, 84
16, 579464, Note_on_c, 14, 41, 0
16, 579480, Note_on_c, 14, 41, 84
16, 579584, Note_on_c, 14, 41, 0
16, 579600, Note_on_c, 14, 41, 84
16, 579704, Note_on_c, 14, 41, 0
16, 579720, Note_on_c, 14, 41, 84
16, 579824, Note_on_c, 14, 41, 0
16, 579840, Note_on_c, 14, 46, 84
16, 580079, Note_on_c, 14, 46, 0
16, 582960, Note_on_c, 14, 41, 84
16, 583424, Note_on_c, 14, 41, 0
16, 583440, Note_on_c, 14, 41, 84
16, 583619, Note_on_c, 14, 41, 0
16, 583680, Note_on_c, 14, 46, 84
16, 583859, Note_on_c, 14, 46, 0
16, 586800, Note_on_c, 14, 41, 84
16, 587264, Note_on_c, 14, 41, 0
16, 587280, Note_on_c, 14, 41, 84
16, 587459, Note_on_c, 14, 41, 0
16, 587520, Note_on_c, 14, 46, 84
16, 587699, Note_on_c, 14, 46, 0
16, 588720, Note_on_c, 14, 41, 84
16, 589184, Note_on_c, 14, 41, 0
16, 589200, Note_on_c, 14, 41, 84
16, 589424, Note_on_c, 14, 41, 0
16, 589440, Note_on_c, 14, 41, 84
16, 590399, Note_on_c, 14, 41, 0
16, 590400, Note_on_c, 14, 41, 84
16, 591287, Note_on_c, 14, 41, 0
16, 591300, Note_on_c, 14, 41, 84
16, 591351, Note_on_c, 14, 41, 0
16, 591360, Note_on_c, 14, 41, 84
16, 591599, Note_on_c, 14, 41, 0
16, 592320, Note_on_c, 14, 41, 84
16, 592559, Note_on_c, 14, 41, 0
16, 593280, Note_on_c, 14, 41, 84
16, 593459, Note_on_c, 14, 41, 0
16, 593760, Note_on_c, 14, 41, 84
16, 593939, Note_on_c, 14, 41, 0
16, 594240, Note_on_c, 14, 41, 84
16, 594419, Note_on_c, 14, 41, 0
16, 594720, Note_on_c, 14, 41, 84
16, 594899, Note_on_c, 14, 41, 0
16, 595200, Note_on_c, 14, 46, 84
16, 595379, Note_on_c, 14, 46, 0
16, 595440, Note_on_c, 14, 62, 84
16, 595619, Note_on_c, 14, 62, 0
16, 595680, Note_on_c, 14, 58, 84
16, 595859, Note_on_c, 14, 58, 0
16, 595920, Note_on_c, 14, 62, 84
16, 596099, Note_on_c, 14, 62, 0
16, 596400, Note_on_c, 14, 58, 84
16, 596579, Note_on_c, 14, 58, 0
16, 596640, Note_on_c, 14, 53, 84
16, 596819, Note_on_c, 14, 53, 0
16, 596880, Note_on_c, 14, 58, 84
16, 597059, Note_on_c, 14, 58, 0
16, 597360, Note_on_c, 14, 53, 84
16, 597539, Note_on_c, 14, 53, 0
16, 597600, Note_on_c, 14, 50, 84
16, 597779, Note_on_c, 14, 50, 0
16, 597840, Note_on_c, 14, 53, 84
16, 598019, Note_on_c, 14, 53, 0
16, 598320, Note_on_c, 14, 50, 84
16, 598499, Note_on_c, 14, 50, 0
16, 598560, Note_on_c, 14, 46, 84
16, 598739, Note_on_c, 14, 46, 0
16, 598800, Note_on_c, 14, 50, 84
16, 598979, Note_on_c, 14, 50, 0
16, 599280, Note_on_c, 14, 65, 84
16, 599459, Note_on_c, 14, 65, 0
16, 599520, Note_on_c, 14, 62, 84
16, 599699, Note_on_c, 14, 62, 0
16, 599760, Note_on_c, 14, 65, 84
16, 599939, Note_on_c, 14, 65, 0
16, 600240, Note_on_c, 14, 62, 84
16, 600419, Note_on_c, 14, 62, 0
16, 600480, Note_on_c, 14, 58, 84
16, 600659, Note_on_c, 14, 58, 0
16, 600720, Note_on_c, 14, 62, 84
16, 600899, Note_on_c, 14, 62, 0
16, 601200, Note_on_c, 14, 58, 84
16, 601379, Note_on_c, 14, 58, 0
16, 601440, Note_on_c, 14, 53, 84
16, 601619, Note_on_c, 14, 53, 0
16, 601680, Note_on_c, 14, 58, 84
16, 601859, Note_on_c, 14, 58, 0
16, 602160, Note_on_c, 14, 53, 84
16, 602339, Note_on_c, 14, 53, 0
16, 602400, Note_on_c, 14, 50, 84
16, 602579, Note_on_c, 14, 50, 0
16, 602640, Note_on_c, 14, 53, 84
16, 602819, Note_on_c, 14, 53, 0
16, 602880, Note_on_c, 14, 46, 52
16, 603119, Note_on_c, 14, 46, 0
16, 604800, Note_on_c, 14, 41, 76
16, 605744, Note_on_c, 14, 41, 0
16, 605760, Note_on_c, 14, 41, 76
16, 606647, Note_on_c, 14, 41, 0
16, 606660, Note_on_c, 14, 41, 76
16, 606711, Note_on_c, 14, 41, 0
16, 606720, Note_on_c, 14, 46, 76
16, 606959, Note_on_c, 14, 46, 0
16, 608640, Note_on_c, 14, 41, 76
16, 609584, Note_on_c, 14, 41, 0
16, 609600, Note_on_c, 14, 41, 76
16, 610487, Note_on_c, 14, 41, 0
16, 610500, Note_on_c, 14, 41, 76
16, 610551, Note_on_c, 14, 41, 0
16, 610558, Control_c, 14, 11, 64
16, 610560, Note_on_c, 14, 46, 84
16, 610560, Control_c, 14, 11, 64
16, 610682, Control_c, 14, 11, 65
16, 610739, Note_on_c, 14, 46, 0
16, 610800, Note_on_c, 14, 65, 84
16, 610804, Control_c, 14, 11, 66
16, 610926, Control_c, 14, 11, 67
16, 611039, Note_on_c, 14, 65, 0
16, 611040, Note_on_c, 14, 63, 84
16, 611048, Control_c, 14, 11, 68
16, 611170, Control_c, 14, 11, 69
16, 611279, Note_on_c, 14, 63, 0
16, 611280, Note_on_c, 14, 62, 84
16, 611291, Control_c, 14, 11, 70
16, 611413, Control_c, 14, 11, 71
16, 611519, Note_on_c, 14, 62, 0
16, 611520, Note_on_c, 14, 60, 84
16, 611535, Control_c, 14, 11, 72
16, 611657, Control_c, 14, 11, 73
16, 611759, Note_on_c, 14, 60, 0
16, 611760, Note_on_c, 14, 58, 84
16, 611779, Control_c, 14, 11, 74
16, 611901, Control_c, 14, 11, 75
16, 611999, Note_on_c, 14, 58, 0
16, 612000, Note_on_c, 14, 57, 84
16, 612023, Control_c, 14, 11, 76
16, 612145, Control_c, 14, 11, 77
16, 612239, Note_on_c, 14, 57, 0
16, 612240, Note_on_c, 14, 58, 84
16, 612267, Control_c, 14, 11, 78
16, 612389, Control_c, 14, 11, 79
16, 612464, Note_on_c, 14, 58, 0
16, 612480, Note_on_c, 14, 53, 84
16, 612510, Control_c, 14, 11, 80
16, 612632, Control_c, 14, 11, 81
16, 612659, Note_on_c, 14, 53, 0
16, 612720, Note_on_c, 14, 60, 84
16, 612754, Control_c, 14, 11, 82
16, 612876, Control_c, 14, 11, 83
16, 612959, Note_on_c, 14, 60, 0
16, 612960, Note_on_c, 14, 58, 84
16, 612998, Control_c, 14, 11, 84
16, 613120, Control_c, 14, 11, 85
16, 613199, Note_on_c, 14, 58, 0
16, 613200, Note_on_c, 14, 57, 84
16, 613242, Control_c, 14, 11, 86
16, 613364, Control_c, 14, 11, 87
16, 613439, Note_on_c, 14, 57, 0
16, 613440, Note_on_c, 14, 55, 84
16, 613486, Control_c, 14, 11, 88
16, 613608, Control_c, 14, 11, 89
16, 613679, Note_on_c, 14, 55, 0
16, 613680, Note_on_c, 14, 53, 84
16, 613730, Control_c, 14, 11, 90
16, 613851, Control_c, 14, 11, 91
16, 613919, Note_on_c, 14, 53, 0
16, 613920, Note_on_c, 14, 52, 84
16, 613973, Control_c, 14, 11, 92
16, 614095, Control_c, 14, 11, 93
16, 614159, Note_on_c, 14, 52, 0
16, 614160, Note_on_c, 14, 53, 84
16, 614217, Control_c, 14, 11, 94
16, 614339, Control_c, 14, 11, 95
16, 614384, Note_on_c, 14, 53, 0
16, 614400, Note_on_c, 14, 46, 84
16, 614461, Control_c, 14, 11, 96
16, 614579, Note_on_c, 14, 46, 0
16, 614583, Control_c, 14, 11, 97
16, 614640, Note_on_c, 14, 53, 84
16, 614705, Control_c, 14, 11, 98
16, 614827, Control_c, 14, 11, 99
16, 614879, Note_on_c, 14, 53, 0
16, 614880, Note_on_c, 14, 51, 84
16, 614949, Control_c, 14, 11, 100
16, 615070, Control_c, 14, 11, 101
16, 615119, Note_on_c, 14, 51, 0
16, 615120, Note_on_c, 14, 50, 84
16, 615192, Control_c, 14, 11, 102
16, 615314, Control_c, 14, 11, 103
16, 615359, Note_on_c, 14, 50, 0
16, 615360, Note_on_c, 14, 48, 84
16, 615436, Control_c, 14, 11, 104
16, 615558, Control_c, 14, 11, 105
16, 615599, Note_on_c, 14, 48, 0
16, 615600, Note_on_c, 14, 46, 84
16, 615680, Control_c, 14, 11, 106
16, 615802, Control_c, 14, 11, 107
16, 615839, Note_on_c, 14, 46, 0
16, 615840, Note_on_c, 14, 45, 84
16, 615924, Control_c, 14, 11, 108
16, 616046, Control_c, 14, 11, 109
16, 616079, Note_on_c, 14, 45, 0
16, 616080, Note_on_c, 14, 46, 84
16, 616168, Control_c, 14, 11, 110
16, 616290, Control_c, 14, 11, 111
16, 616304, Note_on_c, 14, 46, 0
16, 616320, Note_on_c, 14, 41, 84
16, 616411, Control_c, 14, 11, 112
16, 616499, Note_on_c, 14, 41, 0
16, 616533, Control_c, 14, 11, 113
16, 616560, Note_on_c, 14, 48, 84
16, 616655, Control_c, 14, 11, 114
16, 616777, Control_c, 14, 11, 115
16, 616799, Note_on_c, 14, 48, 0
16, 616800, Note_on_c, 14, 46, 84
16, 616899, Control_c, 14, 11, 116
16, 617021, Control_c, 14, 11, 117
16, 617039, Note_on_c, 14, 46, 0
16, 617040, Note_on_c, 14, 45, 84
16, 617143, Control_c, 14, 11, 118
16, 617265, Control_c, 14, 11, 119
16, 617279, Note_on_c, 14, 45, 0
16, 617280, Note_on_c, 14, 43, 84
16, 617387, Control_c, 14, 11, 120
16, 617509, Control_c, 14, 11, 121
16, 617519, Note_on_c, 14, 43, 0
16, 617520, Note_on_c, 14, 41, 84
16, 617630, Control_c, 14, 11, 122
16, 617752, Control_c, 14, 11, 123
16, 617759, Note_on_c, 14, 41, 0
16, 617760, Note_on_c, 14, 40, 84
16, 617874, Control_c, 14, 11, 124
16, 617996, Control_c, 14, 11, 125
16, 617999, Note_on_c, 14, 40, 0
16, 618000, Note_on_c, 14, 41, 84
16, 618118, Control_c, 14, 11, 127
16, 618224, Note_on_c, 14, 41, 0
16, 618240, Note_on_c, 14, 46, 84
16, 618344, Note_on_c, 14, 46, 0
16, 618360, Note_on_c, 14, 46, 84
16, 618464, Note_on_c, 14, 46, 0
16, 618480, Note_on_c, 14, 46, 84
16, 618584, Note_on_c, 14, 46, 0
16, 618600, Note_on_c, 14, 46, 84
16, 618704, Note_on_c, 14, 46, 0
16, 618720, Note_on_c, 14, 46, 84
16, 618824, Note_on_c, 14, 46, 0
16, 618840, Note_on_c, 14, 46, 84
16, 618944, Note_on_c, 14, 46, 0
16, 618960, Note_on_c, 14, 46, 84
16, 619064, Note_on_c, 14, 46, 0
16, 619080, Note_on_c, 14, 46, 84
16, 619184, Note_on_c, 14, 46, 0
16, 619200, Note_on_c, 14, 46, 84
16, 619304, Note_on_c, 14, 46, 0
16, 619320, Note_on_c, 14, 46, 84
16, 619424, Note_on_c, 14, 46, 0
16, 619440, Note_on_c, 14, 46, 84
16, 619544, Note_on_c, 14, 46, 0
16, 619560, Note_on_c, 14, 46, 84
16, 619664, Note_on_c, 14, 46, 0
16, 619680, Note_on_c, 14, 46, 84
16, 619784, Note_on_c, 14, 46, 0
16, 619800, Note_on_c, 14, 46, 84
16, 619904, Note_on_c, 14, 46, 0
16, 619920, Note_on_c, 14, 46, 84
16, 620024, Note_on_c, 14, 46, 0
16, 620040, Note_on_c, 14, 46, 84
16, 620144, Note_on_c, 14, 46, 0
16, 620160, Note_on_c, 14, 46, 84
16, 620264, Note_on_c, 14, 46, 0
16, 620280, Note_on_c, 14, 46, 84
16, 620384, Note_on_c, 14, 46, 0
16, 620400, Note_on_c, 14, 46, 84
16, 620504, Note_on_c, 14, 46, 0
16, 620520, Note_on_c, 14, 46, 84
16, 620624, Note_on_c, 14, 46, 0
16, 620640, Note_on_c, 14, 46, 84
16, 620744, Note_on_c, 14, 46, 0
16, 620760, Note_on_c, 14, 46, 84
16, 620864, Note_on_c, 14, 46, 0
16, 620880, Note_on_c, 14, 46, 84
16, 620984, Note_on_c, 14, 46, 0
16, 621000, Note_on_c, 14, 46, 84
16, 621104, Note_on_c, 14, 46, 0
16, 621120, Note_on_c, 14, 46, 84
16, 621224, Note_on_c, 14, 46, 0
16, 621240, Note_on_c, 14, 46, 84
16, 621344, Note_on_c, 14, 46, 0
16, 621360, Note_on_c, 14, 46, 84
16, 621464, Note_on_c, 14, 46, 0
16, 621480, Note_on_c, 14, 46, 84
16, 621584, Note_on_c, 14, 46, 0
16, 621600, Note_on_c, 14, 46, 84
16, 621704, Note_on_c, 14, 46, 0
16, 621720, Note_on_c, 14, 46, 84
16, 621824, Note_on_c, 14, 46, 0
16, 621840, Note_on_c, 14, 46, 84
16, 621944, Note_on_c, 14, 46, 0
16, 621960, Note_on_c, 14, 53, 84
16, 621999, Note_on_c, 14, 53, 0
16, 622000, Note_on_c, 14, 55, 84
16, 622039, Note_on_c, 14, 55, 0
16, 622040, Note_on_c, 14, 57, 84
16, 622071, Note_on_c, 14, 57, 0
16, 622080, Note_on_c, 14, 58, 84
16, 622319, Note_on_c, 14, 58, 0
16, 622440, Note_on_c, 14, 53, 84
16, 622479, Note_on_c, 14, 53, 0
16, 622480, Note_on_c, 14, 55, 84
16, 622519, Note_on_c, 14, 55, 0
16, 622520, Note_on_c, 14, 57, 84
16, 622551, Note_on_c, 14, 57, 0
16, 622560, Note_on_c, 14, 58, 84
16, 622799, Note_on_c, 14, 58, 0
16, 622920, Note_on_c, 14, 53, 84
16, 622959, Note_on_c, 14, 53, 0
16, 622960, Note_on_c, 14, 55, 84
16, 622999, Note_on_c, 14, 55, 0
16, 623000, Note_on_c, 14, 57, 84
16, 623031, Note_on_c, 14, 57, 0
16, 623040, Note_on_c, 14, 58, 84
16, 623279, Note_on_c, 14, 58, 0
16, 624000, Note_on_c, 14, 46, 84
16, 624239, Note_on_c, 14, 46, 0
16, 624960, Note_on_c, 14, 46, 84
16, 625199, Note_on_c, 14, 46, 0
16, 625199, End_track
17, 0, Start_track
17, 0, Title_t, "Contrabass"
17, 0, MIDI_port, 0
17, 0, Program_c, 15, 45
17, 0, Control_c, 15, 7, 88
17, 0, Control_c, 15, 10, 100
17, 0, Control_c, 15, 11, 127
17, 0, Note_on_c, 15, 34, 44
17, 239, Note_on_c, 15, 34, 0
17, 720, Program_c, 15, 48
17, 720, Control_c, 15, 11, 96
17, 960, Note_on_c, 15, 42, 60
17, 1439, Note_on_c, 15, 42, 0
17, 1440, Note_on_c, 15, 39, 60
17, 1907, Note_on_c, 15, 39, 0
17, 1920, Note_on_c, 15, 41, 60
17, 2399, Note_on_c, 15, 41, 0
17, 2400, Note_on_c, 15, 37, 60
17, 2867, Note_on_c, 15, 37, 0
17, 2880, Note_on_c, 15, 39, 60
17, 3119, Note_on_c, 15, 39, 0
17, 3120, Note_on_c, 15, 36, 60
17, 3359, Note_on_c, 15, 36, 0
17, 3360, Note_on_c, 15, 37, 60
17, 3599, Note_on_c, 15, 37, 0
17, 3600, Note_on_c, 15, 34, 60
17, 3827, Note_on_c, 15, 34, 0
17, 3840, Control_c, 15, 11, 96
17, 3840, Note_on_c, 15, 30, 60
17, 3860, Control_c, 15, 11, 97
17, 3880, Control_c, 15, 11, 99
17, 3900, Control_c, 15, 11, 100
17, 3920, Control_c, 15, 11, 101
17, 3940, Control_c, 15, 11, 102
17, 3960, Control_c, 15, 11, 104
17, 3980, Control_c, 15, 11, 105
17, 4000, Control_c, 15, 11, 106
17, 4020, Control_c, 15, 11, 108
17, 4040, Control_c, 15, 11, 109
17, 4060, Control_c, 15, 11, 110
17, 4080, Control_c, 15, 11, 112
17, 4100, Control_c, 15, 11, 113
17, 4120, Control_c, 15, 11, 114
17, 4140, Control_c, 15, 11, 115
17, 4160, Control_c, 15, 11, 117
17, 4180, Control_c, 15, 11, 118
17, 4200, Control_c, 15, 11, 119
17, 4220, Control_c, 15, 11, 121
17, 4240, Control_c, 15, 11, 122
17, 4260, Control_c, 15, 11, 123
17, 4280, Control_c, 15, 11, 124
17, 4300, Control_c, 15, 11, 126
17, 4320, Control_c, 15, 11, 127
17, 4340, Control_c, 15, 11, 126
17, 4360, Control_c, 15, 11, 124
17, 4380, Control_c, 15, 11, 123
17, 4400, Control_c, 15, 11, 122
17, 4420, Control_c, 15, 11, 121
17, 4440, Control_c, 15, 11, 119
17, 4460, Control_c, 15, 11, 118
17, 4480, Control_c, 15, 11, 117
17, 4500, Control_c, 15, 11, 115
17, 4520, Control_c, 15, 11, 114
17, 4540, Control_c, 15, 11, 113
17, 4560, Control_c, 15, 11, 112
17, 4580, Control_c, 15, 11, 110
17, 4600, Control_c, 15, 11, 109
17, 4620, Control_c, 15, 11, 108
17, 4640, Control_c, 15, 11, 106
17, 4660, Control_c, 15, 11, 105
17, 4680, Control_c, 15, 11, 104
17, 4700, Control_c, 15, 11, 102
17, 4720, Control_c, 15, 11, 101
17, 4740, Control_c, 15, 11, 100
17, 4760, Control_c, 15, 11, 99
17, 4780, Control_c, 15, 11, 96
17, 4787, Note_on_c, 15, 30, 0
17, 4800, Control_c, 15, 11, 96
17, 4800, Note_on_c, 15, 29, 60
17, 4919, Note_on_c, 15, 29, 0
17, 7440, Control_c, 15, 11, 127
17, 7680, Note_on_c, 15, 30, 44
17, 8399, Note_on_c, 15, 30, 0
17, 8400, Note_on_c, 15, 28, 44
17, 8639, Note_on_c, 15, 28, 0
17, 8640, Note_on_c, 15, 29, 44
17, 8759, Note_on_c, 15, 29, 0
17, 10560, Program_c, 15, 45
17, 11280, Note_on_c, 15, 29, 44
17, 11399, Note_on_c, 15, 29, 0
17, 11520, Note_on_c, 15, 34, 68
17, 11759, Note_on_c, 15, 34, 0
17, 12240, Program_c, 15, 48
17, 12240, Control_c, 15, 11, 96
17, 12480, Note_on_c, 15, 42, 60
17, 12959, Note_on_c, 15, 42, 0
17, 12960, Note_on_c, 15, 39, 60
17, 13427, Note_on_c, 15, 39, 0
17, 13440, Note_on_c, 15, 41, 60
17, 13919, Note_on_c, 15, 41, 0
17, 13920, Note_on_c, 15, 37, 60
17, 14387, Note_on_c, 15, 37, 0
17, 14400, Note_on_c, 15, 39, 60
17, 14639, Note_on_c, 15, 39, 0
17, 14640, Note_on_c, 15, 36, 60
17, 14879, Note_on_c, 15, 36, 0
17, 14880, Note_on_c, 15, 37, 60
17, 15119, Note_on_c, 15, 37, 0
17, 15120, Note_on_c, 15, 34, 60
17, 15347, Note_on_c, 15, 34, 0
17, 15360, Control_c, 15, 11, 96
17, 15360, Note_on_c, 15, 30, 60
17, 15380, Control_c, 15, 11, 97
17, 15400, Control_c, 15, 11, 99
17, 15420, Control_c, 15, 11, 100
17, 15440, Control_c, 15, 11, 101
17, 15460, Control_c, 15, 11, 102
17, 15480, Control_c, 15, 11, 104
17, 15500, Control_c, 15, 11, 105
17, 15520, Control_c, 15, 11, 106
17, 15540, Control_c, 15, 11, 108
17, 15560, Control_c, 15, 11, 109
17, 15580, Control_c, 15, 11, 110
17, 15600, Control_c, 15, 11, 112
17, 15620, Control_c, 15, 11, 113
17, 15640, Control_c, 15, 11, 114
17, 15660, Control_c, 15, 11, 115
17, 15680, Control_c, 15, 11, 117
17, 15700, Control_c, 15, 11, 118
17, 15720, Control_c, 15, 11, 119
17, 15740, Control_c, 15, 11, 121
17, 15760, Control_c, 15, 11, 122
17, 15780, Control_c, 15, 11, 123
17, 15800, Control_c, 15, 11, 124
17, 15820, Control_c, 15, 11, 126
17, 15840, Control_c, 15, 11, 127
17, 15860, Control_c, 15, 11, 126
17, 15880, Control_c, 15, 11, 124
17, 15900, Control_c, 15, 11, 123
17, 15920, Control_c, 15, 11, 122
17, 15940, Control_c, 15, 11, 121
17, 15960, Control_c, 15, 11, 119
17, 15980, Control_c, 15, 11, 118
17, 16000, Control_c, 15, 11, 117
17, 16020, Control_c, 15, 11, 115
17, 16040, Control_c, 15, 11, 114
17, 16060, Control_c, 15, 11, 113
17, 16080, Control_c, 15, 11, 112
17, 16100, Control_c, 15, 11, 110
17, 16120, Control_c, 15, 11, 109
17, 16140, Control_c, 15, 11, 108
17, 16160, Control_c, 15, 11, 106
17, 16180, Control_c, 15, 11, 105
17, 16200, Control_c, 15, 11, 104
17, 16220, Control_c, 15, 11, 102
17, 16240, Control_c, 15, 11, 101
17, 16260, Control_c, 15, 11, 100
17, 16280, Control_c, 15, 11, 99
17, 16300, Control_c, 15, 11, 96
17, 16439, Note_on_c, 15, 30, 0
17, 18240, Control_c, 15, 11, 127
17, 19200, Note_on_c, 15, 31, 44
17, 19919, Note_on_c, 15, 31, 0
17, 19920, Note_on_c, 15, 29, 44
17, 20159, Note_on_c, 15, 29, 0
17, 20160, Note_on_c, 15, 30, 44
17, 20279, Note_on_c, 15, 30, 0
17, 22080, Program_c, 15, 45
17, 22800, Note_on_c, 15, 30, 44
17, 22919, Note_on_c, 15, 30, 0
17, 23040, Note_on_c, 15, 31, 68
17, 23159, Note_on_c, 15, 31, 0
17, 23280, Note_on_c, 15, 50, 48
17, 23399, Note_on_c, 15, 50, 0
17, 23520, Note_on_c, 15, 47, 48
17, 23639, Note_on_c, 15, 47, 0
17, 23760, Note_on_c, 15, 43, 48
17, 23879, Note_on_c, 15, 43, 0
17, 24000, Note_on_c, 15, 41, 48
17, 24119, Note_on_c, 15, 41, 0
17, 24240, Note_on_c, 15, 38, 48
17, 24359, Note_on_c, 15, 38, 0
17, 24480, Note_on_c, 15, 35, 48
17, 24599, Note_on_c, 15, 35, 0
17, 24720, Note_on_c, 15, 31, 48
17, 24839, Note_on_c, 15, 31, 0
17, 24960, Note_on_c, 15, 36, 48
17, 25199, Note_on_c, 15, 36, 0
17, 25680, Note_on_c, 15, 43, 48
17, 25919, Note_on_c, 15, 43, 0
17, 25920, Note_on_c, 15, 40, 48
17, 26159, Note_on_c, 15, 40, 0
17, 26160, Note_on_c, 15, 33, 48
17, 26399, Note_on_c, 15, 33, 0
17, 26640, Note_on_c, 15, 45, 48
17, 26879, Note_on_c, 15, 45, 0
17, 26880, Note_on_c, 15, 41, 48
17, 27119, Note_on_c, 15, 41, 0
17, 27120, Note_on_c, 15, 38, 48
17, 27359, Note_on_c, 15, 38, 0
17, 27600, Note_on_c, 15, 46, 48
17, 27839, Note_on_c, 15, 46, 0
17, 27840, Note_on_c, 15, 41, 48
17, 28079, Note_on_c, 15, 41, 0
17, 28080, Note_on_c, 15, 38, 48
17, 28319, Note_on_c, 15, 38, 0
17, 28560, Note_on_c, 15, 38, 48
17, 28799, Note_on_c, 15, 38, 0
17, 28800, Note_on_c, 15, 40, 48
17, 29039, Note_on_c, 15, 40, 0
17, 29040, Note_on_c, 15, 35, 48
17, 29279, Note_on_c, 15, 35, 0
17, 29280, Note_on_c, 15, 28, 48
17, 29519, Note_on_c, 15, 28, 0
17, 29520, Note_on_c, 15, 40, 48
17, 29759, Note_on_c, 15, 40, 0
17, 29760, Note_on_c, 15, 33, 48
17, 29999, Note_on_c, 15, 33, 0
17, 30480, Program_c, 15, 48
17, 30720, Note_on_c, 15, 37, 44
17, 30959, Note_on_c, 15, 37, 0
17, 30960, Note_on_c, 15, 33, 44
17, 31199, Note_on_c, 15, 33, 0
17, 31200, Note_on_c, 15, 38, 44
17, 31439, Note_on_c, 15, 38, 0
17, 31440, Note_on_c, 15, 37, 44
17, 31559, Note_on_c, 15, 37, 0
17, 31560, Note_on_c, 15, 38, 44
17, 31667, Note_on_c, 15, 38, 0
17, 31680, Note_on_c, 15, 33, 44
17, 31799, Note_on_c, 15, 33, 0
17, 32160, Note_on_c, 15, 33, 44
17, 32279, Note_on_c, 15, 33, 0
17, 32640, Note_on_c, 15, 33, 44
17, 32759, Note_on_c, 15, 33, 0
17, 33600, Note_on_c, 15, 29, 84
17, 34487, Note_on_c, 15, 29, 0
17, 34500, Note_on_c, 15, 29, 84
17, 34551, Note_on_c, 15, 29, 0
17, 34560, Note_on_c, 15, 29, 84
17, 34679, Note_on_c, 15, 29, 0
17, 35520, Note_on_c, 15, 29, 84
17, 36407, Note_on_c, 15, 29, 0
17, 36420, Note_on_c, 15, 29, 84
17, 36471, Note_on_c, 15, 29, 0
17, 36480, Note_on_c, 15, 29, 84
17, 36659, Note_on_c, 15, 29, 0
17, 37440, Note_on_c, 15, 29, 84
17, 37619, Note_on_c, 15, 29, 0
17, 38400, Note_on_c, 15, 29, 84
17, 38579, Note_on_c, 15, 29, 0
17, 38880, Note_on_c, 15, 29, 84
17, 39059, Note_on_c, 15, 29, 0
17, 39360, Note_on_c, 15, 29, 84
17, 39539, Note_on_c, 15, 29, 0
17, 39840, Note_on_c, 15, 29, 84
17, 40019, Note_on_c, 15, 29, 0
17, 40320, Note_on_c, 15, 34, 76
17, 40439, Note_on_c, 15, 34, 0
17, 40440, Note_on_c, 15, 34, 52
17, 40559, Note_on_c, 15, 34, 0
17, 48000, Note_on_c, 15, 29, 84
17, 48179, Note_on_c, 15, 29, 0
17, 48960, Note_on_c, 15, 29, 84
17, 49139, Note_on_c, 15, 29, 0
17, 49440, Note_on_c, 15, 29, 84
17, 49619, Note_on_c, 15, 29, 0
17, 49920, Note_on_c, 15, 34, 84
17, 50039, Note_on_c, 15, 34, 0
17, 50160, Note_on_c, 15, 34, 84
17, 50279, Note_on_c, 15, 34, 0
17, 50400, Note_on_c, 15, 34, 84
17, 50519, Note_on_c, 15, 34, 0
17, 50640, Note_on_c, 15, 34, 84
17, 50759, Note_on_c, 15, 34, 0
17, 50880, Note_on_c, 15, 34, 84
17, 50999, Note_on_c, 15, 34, 0
17, 51120, Note_on_c, 15, 34, 84
17, 51239, Note_on_c, 15, 34, 0
17, 51360, Note_on_c, 15, 34, 84
17, 51479, Note_on_c, 15, 34, 0
17, 51600, Note_on_c, 15, 34, 84
17, 51719, Note_on_c, 15, 34, 0
17, 51840, Note_on_c, 15, 34, 84
17, 51959, Note_on_c, 15, 34, 0
17, 52080, Note_on_c, 15, 34, 84
17, 52199, Note_on_c, 15, 34, 0
17, 52320, Note_on_c, 15, 34, 84
17, 52439, Note_on_c, 15, 34, 0
17, 52560, Note_on_c, 15, 34, 84
17, 52679, Note_on_c, 15, 34, 0
17, 52800, Note_on_c, 15, 34, 84
17, 52919, Note_on_c, 15, 34, 0
17, 53040, Note_on_c, 15, 34, 84
17, 53159, Note_on_c, 15, 34, 0
17, 53280, Note_on_c, 15, 34, 84
17, 53399, Note_on_c, 15, 34, 0
17, 53520, Note_on_c, 15, 34, 84
17, 53639, Note_on_c, 15, 34, 0
17, 53760, Note_on_c, 15, 34, 84
17, 53879, Note_on_c, 15, 34, 0
17, 54000, Note_on_c, 15, 46, 84
17, 54239, Note_on_c, 15, 46, 0
17, 54240, Note_on_c, 15, 45, 84
17, 54479, Note_on_c, 15, 45, 0
17, 54480, Note_on_c, 15, 43, 84
17, 54719, Note_on_c, 15, 43, 0
17, 54720, Note_on_c, 15, 41, 84
17, 54959, Note_on_c, 15, 41, 0
17, 54960, Note_on_c, 15, 39, 84
17, 55199, Note_on_c, 15, 39, 0
17, 55200, Note_on_c, 15, 38, 84
17, 55439, Note_on_c, 15, 38, 0
17, 55440, Note_on_c, 15, 39, 84
17, 55664, Note_on_c, 15, 39, 0
17, 55680, Note_on_c, 15, 41, 92
17, 56639, Note_on_c, 15, 41, 0
17, 56640, Note_on_c, 15, 41, 84
17, 57584, Note_on_c, 15, 41, 0
17, 57600, Note_on_c, 15, 41, 84
17, 57839, Note_on_c, 15, 41, 0
17, 58560, Note_on_c, 15, 43, 84
17, 58799, Note_on_c, 15, 43, 0
17, 59520, Note_on_c, 15, 36, 84
17, 59759, Note_on_c, 15, 36, 0
17, 60480, Note_on_c, 15, 41, 84
17, 60719, Note_on_c, 15, 41, 0
17, 61200, Program_c, 15, 45
17, 61440, Note_on_c, 15, 34, 44
17, 61679, Note_on_c, 15, 34, 0
17, 63360, Note_on_c, 15, 34, 44
17, 63599, Note_on_c, 15, 34, 0
17, 64320, Note_on_c, 15, 34, 44
17, 64559, Note_on_c, 15, 34, 0
17, 65280, Note_on_c, 15, 34, 44
17, 65519, Note_on_c, 15, 34, 0
17, 67200, Note_on_c, 15, 34, 44
17, 67439, Note_on_c, 15, 34, 0
17, 68160, Note_on_c, 15, 34, 44
17, 68399, Note_on_c, 15, 34, 0
17, 69120, Note_on_c, 15, 34, 44
17, 69359, Note_on_c, 15, 34, 0
17, 70800, Note_on_c, 15, 34, 44
17, 71039, Note_on_c, 15, 34, 0
17, 71040, Note_on_c, 15, 34, 44
17, 71279, Note_on_c, 15, 34, 0
17, 72000, Program_c, 15, 48
17, 72720, Note_on_c, 15, 34, 44
17, 72944, Note_on_c, 15, 34, 0
17, 72960, Note_on_c, 15, 34, 44
17, 73064, Note_on_c, 15, 34, 0
17, 73080, Note_on_c, 15, 34, 45
17, 73184, Note_on_c, 15, 34, 0
17, 73200, Note_on_c, 15, 34, 46
17, 73304, Note_on_c, 15, 34, 0
17, 73320, Note_on_c, 15, 34, 47
17, 73424, Note_on_c, 15, 34, 0
17, 73440, Note_on_c, 15, 34, 49
17, 73544, Note_on_c, 15, 34, 0
17, 73560, Note_on_c, 15, 34, 50
17, 73664, Note_on_c, 15, 34, 0
17, 73680, Note_on_c, 15, 34, 51
17, 73784, Note_on_c, 15, 34, 0
17, 73800, Note_on_c, 15, 34, 52
17, 73904, Note_on_c, 15, 34, 0
17, 73920, Note_on_c, 15, 34, 54
17, 74024, Note_on_c, 15, 34, 0
17, 74040, Note_on_c, 15, 34, 55
17, 74144, Note_on_c, 15, 34, 0
17, 74160, Note_on_c, 15, 34, 56
17, 74264, Note_on_c, 15, 34, 0
17, 74280, Note_on_c, 15, 34, 57
17, 74384, Note_on_c, 15, 34, 0
17, 74400, Note_on_c, 15, 34, 59
17, 74504, Note_on_c, 15, 34, 0
17, 74520, Note_on_c, 15, 34, 60
17, 74624, Note_on_c, 15, 34, 0
17, 74640, Note_on_c, 15, 34, 61
17, 74744, Note_on_c, 15, 34, 0
17, 74760, Note_on_c, 15, 34, 62
17, 74864, Note_on_c, 15, 34, 0
17, 74880, Note_on_c, 15, 34, 64
17, 74984, Note_on_c, 15, 34, 0
17, 75000, Note_on_c, 15, 34, 65
17, 75104, Note_on_c, 15, 34, 0
17, 75120, Note_on_c, 15, 34, 66
17, 75224, Note_on_c, 15, 34, 0
17, 75240, Note_on_c, 15, 34, 67
17, 75344, Note_on_c, 15, 34, 0
17, 75360, Note_on_c, 15, 34, 69
17, 75464, Note_on_c, 15, 34, 0
17, 75480, Note_on_c, 15, 34, 70
17, 75584, Note_on_c, 15, 34, 0
17, 75600, Note_on_c, 15, 34, 71
17, 75704, Note_on_c, 15, 34, 0
17, 75720, Note_on_c, 15, 34, 72
17, 75824, Note_on_c, 15, 34, 0
17, 75840, Note_on_c, 15, 34, 74
17, 75944, Note_on_c, 15, 34, 0
17, 75960, Note_on_c, 15, 34, 75
17, 76064, Note_on_c, 15, 34, 0
17, 76080, Note_on_c, 15, 34, 76
17, 76184, Note_on_c, 15, 34, 0
17, 76200, Note_on_c, 15, 34, 77
17, 76304, Note_on_c, 15, 34, 0
17, 76320, Note_on_c, 15, 34, 79
17, 76544, Note_on_c, 15, 34, 0
17, 76560, Note_on_c, 15, 41, 81
17, 76607, Note_on_c, 15, 41, 0
17, 76608, Note_on_c, 15, 43, 82
17, 76655, Note_on_c, 15, 43, 0
17, 76656, Note_on_c, 15, 45, 82
17, 76703, Note_on_c, 15, 45, 0
17, 76704, Note_on_c, 15, 46, 83
17, 76751, Note_on_c, 15, 46, 0
17, 76752, Note_on_c, 15, 48, 83
17, 76791, Note_on_c, 15, 48, 0
17, 76800, Note_on_c, 15, 50, 84
17, 76919, Note_on_c, 15, 50, 0
17, 77040, Note_on_c, 15, 46, 84
17, 77159, Note_on_c, 15, 46, 0
17, 77280, Note_on_c, 15, 41, 84
17, 77399, Note_on_c, 15, 41, 0
17, 77520, Note_on_c, 15, 46, 84
17, 77639, Note_on_c, 15, 46, 0
17, 77760, Note_on_c, 15, 38, 84
17, 77879, Note_on_c, 15, 38, 0
17, 78000, Note_on_c, 15, 41, 84
17, 78119, Note_on_c, 15, 41, 0
17, 78240, Note_on_c, 15, 34, 84
17, 78359, Note_on_c, 15, 34, 0
17, 78480, Note_on_c, 15, 38, 84
17, 78599, Note_on_c, 15, 38, 0
17, 78720, Note_on_c, 15, 31, 84
17, 78839, Note_on_c, 15, 31, 0
17, 78960, Note_on_c, 15, 39, 84
17, 79079, Note_on_c, 15, 39, 0
17, 79200, Note_on_c, 15, 36, 84
17, 79319, Note_on_c, 15, 36, 0
17, 79440, Note_on_c, 15, 34, 84
17, 79559, Note_on_c, 15, 34, 0
17, 79680, Note_on_c, 15, 33, 84
17, 79799, Note_on_c, 15, 33, 0
17, 79920, Note_on_c, 15, 41, 84
17, 80039, Note_on_c, 15, 41, 0
17, 80160, Note_on_c, 15, 39, 84
17, 80279, Note_on_c, 15, 39, 0
17, 80400, Note_on_c, 15, 36, 84
17, 80519, Note_on_c, 15, 36, 0
17, 80640, Note_on_c, 15, 34, 92
17, 81599, Note_on_c, 15, 34, 0
17, 81600, Note_on_c, 15, 34, 84
17, 82544, Note_on_c, 15, 34, 0
17, 82560, Note_on_c, 15, 39, 92
17, 83489, Note_on_c, 15, 39, 0
17, 83520, Note_on_c, 15, 41, 92
17, 84449, Note_on_c, 15, 41, 0
17, 84480, Note_on_c, 15, 34, 92
17, 85409, Note_on_c, 15, 34, 0
17, 85440, Note_on_c, 15, 33, 92
17, 86369, Note_on_c, 15, 33, 0
17, 86400, Note_on_c, 15, 38, 92
17, 87329, Note_on_c, 15, 38, 0
17, 87360, Note_on_c, 15, 36, 92
17, 88529, Note_on_c, 15, 36, 0
17, 88560, Note_on_c, 15, 48, 84
17, 88679, Note_on_c, 15, 48, 0
17, 88800, Note_on_c, 15, 46, 84
17, 88919, Note_on_c, 15, 46, 0
17, 89040, Note_on_c, 15, 43, 84
17, 89159, Note_on_c, 15, 43, 0
17, 89280, Note_on_c, 15, 44, 84
17, 89399, Note_on_c, 15, 44, 0
17, 89520, Note_on_c, 15, 41, 84
17, 89639, Note_on_c, 15, 41, 0
17, 89760, Note_on_c, 15, 39, 84
17, 89879, Note_on_c, 15, 39, 0
17, 90000, Note_on_c, 15, 37, 84
17, 90119, Note_on_c, 15, 37, 0
17, 90240, Note_on_c, 15, 36, 84
17, 90479, Note_on_c, 15, 36, 0
17, 93360, Note_on_c, 15, 41, 92
17, 93839, Note_on_c, 15, 41, 0
17, 93840, Note_on_c, 15, 36, 84
17, 94064, Note_on_c, 15, 36, 0
17, 94080, Note_on_c, 15, 36, 84
17, 94259, Note_on_c, 15, 36, 0
17, 94320, Note_on_c, 15, 46, 84
17, 94784, Note_on_c, 15, 46, 0
17, 94800, Note_on_c, 15, 44, 84
17, 95264, Note_on_c, 15, 44, 0
17, 95280, Note_on_c, 15, 43, 84
17, 95744, Note_on_c, 15, 43, 0
17, 95760, Note_on_c, 15, 44, 84
17, 96224, Note_on_c, 15, 44, 0
17, 96240, Note_on_c, 15, 43, 84
17, 96704, Note_on_c, 15, 43, 0
17, 96720, Note_on_c, 15, 41, 84
17, 97184, Note_on_c, 15, 41, 0
17, 97200, Note_on_c, 15, 41, 92
17, 97679, Note_on_c, 15, 41, 0
17, 97680, Note_on_c, 15, 36, 84
17, 97904, Note_on_c, 15, 36, 0
17, 97920, Note_on_c, 15, 36, 92
17, 97980, Control_c, 15, 11, 112
17, 98138, Control_c, 15, 11, 110
17, 98295, Control_c, 15, 11, 108
17, 98453, Control_c, 15, 11, 106
17, 98610, Control_c, 15, 11, 104
17, 98768, Control_c, 15, 11, 102
17, 98879, Note_on_c, 15, 36, 0
17, 98880, Note_on_c, 15, 36, 84
17, 98925, Control_c, 15, 11, 100
17, 99083, Control_c, 15, 11, 98
17, 99240, Control_c, 15, 11, 96
17, 99398, Control_c, 15, 11, 94
17, 99555, Control_c, 15, 11, 92
17, 99713, Control_c, 15, 11, 90
17, 99839, Note_on_c, 15, 36, 0
17, 99840, Note_on_c, 15, 36, 84
17, 99870, Control_c, 15, 11, 88
17, 100028, Control_c, 15, 11, 86
17, 100185, Control_c, 15, 11, 84
17, 100343, Control_c, 15, 11, 82
17, 100500, Control_c, 15, 11, 80
17, 100658, Control_c, 15, 11, 78
17, 100799, Note_on_c, 15, 36, 0
17, 100800, Note_on_c, 15, 36, 84
17, 100815, Control_c, 15, 11, 76
17, 100973, Control_c, 15, 11, 74
17, 101130, Control_c, 15, 11, 72
17, 101264, Note_on_c, 15, 36, 0
17, 101280, Note_on_c, 15, 36, 84
17, 101288, Control_c, 15, 11, 70
17, 101445, Control_c, 15, 11, 68
17, 101603, Control_c, 15, 11, 66
17, 101744, Note_on_c, 15, 36, 0
17, 101752, Control_c, 15, 11, 80
17, 101760, Note_on_c, 15, 29, 76
17, 103679, Note_on_c, 15, 29, 0
17, 103680, Note_on_c, 15, 29, 76
17, 105584, Note_on_c, 15, 29, 0
17, 105592, Control_c, 15, 11, 96
17, 105600, Note_on_c, 15, 38, 68
17, 107504, Note_on_c, 15, 38, 0
17, 107505, Control_c, 15, 11, 112
17, 107520, Note_on_c, 15, 33, 60
17, 107759, Note_on_c, 15, 33, 0
17, 108000, Control_c, 15, 11, 127
17, 108240, Note_on_c, 15, 33, 52
17, 108464, Note_on_c, 15, 33, 0
17, 108480, Note_on_c, 15, 33, 52
17, 108719, Note_on_c, 15, 33, 0
17, 109200, Note_on_c, 15, 33, 52
17, 109424, Note_on_c, 15, 33, 0
17, 109440, Note_on_c, 15, 33, 52
17, 109679, Note_on_c, 15, 33, 0
17, 110160, Note_on_c, 15, 33, 52
17, 110384, Note_on_c, 15, 33, 0
17, 110400, Note_on_c, 15, 33, 52
17, 110639, Note_on_c, 15, 33, 0
17, 111120, Note_on_c, 15, 33, 52
17, 111344, Note_on_c, 15, 33, 0
17, 111360, Note_on_c, 15, 33, 52
17, 111599, Note_on_c, 15, 33, 0
17, 112080, Note_on_c, 15, 33, 52
17, 112304, Note_on_c, 15, 33, 0
17, 112320, Note_on_c, 15, 33, 52
17, 112559, Note_on_c, 15, 33, 0
17, 113040, Note_on_c, 15, 33, 52
17, 113264, Note_on_c, 15, 33, 0
17, 113280, Note_on_c, 15, 33, 52
17, 113519, Note_on_c, 15, 33, 0
17, 114000, Note_on_c, 15, 33, 52
17, 114224, Note_on_c, 15, 33, 0
17, 114240, Note_on_c, 15, 33, 52
17, 114479, Note_on_c, 15, 33, 0
17, 114960, Note_on_c, 15, 33, 52
17, 115184, Note_on_c, 15, 33, 0
17, 115198, Control_c, 15, 11, 64
17, 115200, Note_on_c, 15, 33, 76
17, 115559, Note_on_c, 15, 33, 0
17, 115680, Note_on_c, 15, 34, 76
17, 116039, Note_on_c, 15, 34, 0
17, 116160, Note_on_c, 15, 31, 76
17, 116519, Note_on_c, 15, 31, 0
17, 116640, Note_on_c, 15, 35, 76
17, 116999, Note_on_c, 15, 35, 0
17, 117120, Note_on_c, 15, 36, 76
17, 117479, Note_on_c, 15, 36, 0
17, 117600, Note_on_c, 15, 33, 76
17, 117959, Note_on_c, 15, 33, 0
17, 118080, Control_c, 15, 11, 64
17, 118080, Note_on_c, 15, 36, 76
17, 118293, Control_c, 15, 11, 66
17, 118439, Note_on_c, 15, 36, 0
17, 118507, Control_c, 15, 11, 68
17, 118560, Note_on_c, 15, 38, 76
17, 118720, Control_c, 15, 11, 69
17, 118919, Note_on_c, 15, 38, 0
17, 118933, Control_c, 15, 11, 71
17, 119040, Note_on_c, 15, 34, 76
17, 119147, Control_c, 15, 11, 73
17, 119360, Control_c, 15, 11, 75
17, 119399, Note_on_c, 15, 34, 0
17, 119520, Note_on_c, 15, 38, 76
17, 119573, Control_c, 15, 11, 76
17, 119787, Control_c, 15, 11, 78
17, 119879, Note_on_c, 15, 38, 0
17, 120000, Control_c, 15, 11, 80
17, 120000, Note_on_c, 15, 40, 76
17, 120213, Control_c, 15, 11, 82
17, 120359, Note_on_c, 15, 40, 0
17, 120427, Control_c, 15, 11, 83
17, 120480, Note_on_c, 15, 36, 76
17, 120640, Control_c, 15, 11, 85
17, 120839, Note_on_c, 15, 36, 0
17, 120853, Control_c, 15, 11, 87
17, 120960, Note_on_c, 15, 40, 76
17, 121067, Control_c, 15, 11, 89
17, 121280, Control_c, 15, 11, 90
17, 121319, Note_on_c, 15, 40, 0
17, 121440, Note_on_c, 15, 41, 76
17, 121493, Control_c, 15, 11, 92
17, 121707, Control_c, 15, 11, 94
17, 121799, Note_on_c, 15, 41, 0
17, 121920, Control_c, 15, 11, 96
17, 121920, Note_on_c, 15, 38, 76
17, 122133, Control_c, 15, 11, 97
17, 122279, Note_on_c, 15, 38, 0
17, 122347, Control_c, 15, 11, 99
17, 122400, Note_on_c, 15, 42, 76
17, 122560, Control_c, 15, 11, 101
17, 122759, Note_on_c, 15, 42, 0
17, 122773, Control_c, 15, 11, 103
17, 122880, Note_on_c, 15, 43, 76
17, 122987, Control_c, 15, 11, 104
17, 123200, Control_c, 15, 11, 106
17, 123239, Note_on_c, 15, 43, 0
17, 123360, Note_on_c, 15, 40, 76
17, 123413, Control_c, 15, 11, 108
17, 123627, Control_c, 15, 11, 110
17, 123719, Note_on_c, 15, 40, 0
17, 123840, Note_on_c, 15, 43, 76
17, 123840, Control_c, 15, 11, 111
17, 124053, Control_c, 15, 11, 113
17, 124199, Note_on_c, 15, 43, 0
17, 124267, Control_c, 15, 11, 115
17, 124320, Note_on_c, 15, 45, 76
17, 124480, Control_c, 15, 11, 117
17, 124679, Note_on_c, 15, 45, 0
17, 124693, Control_c, 15, 11, 118
17, 124800, Note_on_c, 15, 46, 76
17, 124907, Control_c, 15, 11, 120
17, 125120, Control_c, 15, 11, 122
17, 125159, Note_on_c, 15, 46, 0
17, 125280, Note_on_c, 15, 47, 76
17, 125333, Control_c, 15, 11, 124
17, 125547, Control_c, 15, 11, 127
17, 125639, Note_on_c, 15, 47, 0
17, 125760, Note_on_c, 15, 36, 76
17, 126119, Note_on_c, 15, 36, 0
17, 126240, Note_on_c, 15, 46, 76
17, 126599, Note_on_c, 15, 46, 0
17, 126720, Note_on_c, 15, 43, 76
17, 127079, Note_on_c, 15, 43, 0
17, 127200, Note_on_c, 15, 40, 76
17, 127559, Note_on_c, 15, 40, 0
17, 127680, Note_on_c, 15, 36, 76
17, 128039, Note_on_c, 15, 36, 0
17, 128160, Note_on_c, 15, 34, 76
17, 128519, Note_on_c, 15, 34, 0
17, 128640, Note_on_c, 15, 33, 76
17, 129344, Note_on_c, 15, 33, 0
17, 129360, Note_on_c, 15, 29, 76
17, 129584, Note_on_c, 15, 29, 0
17, 129600, Note_on_c, 15, 34, 76
17, 130304, Note_on_c, 15, 34, 0
17, 130320, Note_on_c, 15, 31, 76
17, 130544, Note_on_c, 15, 31, 0
17, 130560, Note_on_c, 15, 36, 76
17, 131264, Note_on_c, 15, 36, 0
17, 131280, Note_on_c, 15, 36, 76
17, 131504, Note_on_c, 15, 36, 0
17, 131520, Note_on_c, 15, 34, 76
17, 131744, Note_on_c, 15, 34, 0
17, 131760, Note_on_c, 15, 34, 76
17, 131984, Note_on_c, 15, 34, 0
17, 132000, Note_on_c, 15, 34, 76
17, 132224, Note_on_c, 15, 34, 0
17, 132240, Note_on_c, 15, 34, 76
17, 132464, Note_on_c, 15, 34, 0
17, 132480, Note_on_c, 15, 33, 76
17, 132719, Note_on_c, 15, 33, 0
17, 132720, Note_on_c, 15, 29, 76
17, 132944, Note_on_c, 15, 29, 0
17, 132960, Note_on_c, 15, 34, 76
17, 133199, Note_on_c, 15, 34, 0
17, 133200, Note_on_c, 15, 31, 76
17, 133424, Note_on_c, 15, 31, 0
17, 133440, Note_on_c, 15, 36, 76
17, 133664, Note_on_c, 15, 36, 0
17, 133680, Note_on_c, 15, 48, 76
17, 133904, Note_on_c, 15, 48, 0
17, 133920, Note_on_c, 15, 36, 76
17, 134144, Note_on_c, 15, 36, 0
17, 134160, Note_on_c, 15, 36, 76
17, 134384, Note_on_c, 15, 36, 0
17, 134400, Note_on_c, 15, 41, 52
17, 134639, Note_on_c, 15, 41, 0
17, 135360, Note_on_c, 15, 41, 52
17, 136079, Note_on_c, 15, 41, 0
17, 136080, Note_on_c, 15, 36, 52
17, 136319, Note_on_c, 15, 36, 0
17, 136320, Note_on_c, 15, 41, 52
17, 136559, Note_on_c, 15, 41, 0
17, 137280, Note_on_c, 15, 41, 52
17, 137984, Note_on_c, 15, 41, 0
17, 138000, Note_on_c, 15, 41, 52
17, 138224, Note_on_c, 15, 41, 0
17, 138240, Note_on_c, 15, 36, 52
17, 138479, Note_on_c, 15, 36, 0
17, 139200, Note_on_c, 15, 36, 52
17, 139904, Note_on_c, 15, 36, 0
17, 139920, Note_on_c, 15, 36, 52
17, 140144, Note_on_c, 15, 36, 0
17, 140160, Note_on_c, 15, 36, 52
17, 140399, Note_on_c, 15, 36, 0
17, 141120, Note_on_c, 15, 36, 52
17, 141824, Note_on_c, 15, 36, 0
17, 141840, Note_on_c, 15, 36, 76
17, 142064, Note_on_c, 15, 36, 0
17, 142080, Note_on_c, 15, 41, 76
17, 142319, Note_on_c, 15, 41, 0
17, 142800, Note_on_c, 15, 48, 76
17, 142979, Note_on_c, 15, 48, 0
17, 143040, Note_on_c, 15, 45, 76
17, 143279, Note_on_c, 15, 45, 0
17, 143280, Note_on_c, 15, 46, 76
17, 143504, Note_on_c, 15, 46, 0
17, 143520, Note_on_c, 15, 48, 76
17, 143699, Note_on_c, 15, 48, 0
17, 143760, Note_on_c, 15, 36, 76
17, 143939, Note_on_c, 15, 36, 0
17, 144000, Note_on_c, 15, 41, 76
17, 144704, Note_on_c, 15, 41, 0
17, 144720, Note_on_c, 15, 43, 76
17, 144899, Note_on_c, 15, 43, 0
17, 144960, Note_on_c, 15, 45, 76
17, 145199, Note_on_c, 15, 45, 0
17, 145200, Note_on_c, 15, 41, 76
17, 145424, Note_on_c, 15, 41, 0
17, 145440, Note_on_c, 15, 45, 76
17, 145619, Note_on_c, 15, 45, 0
17, 145680, Note_on_c, 15, 46, 76
17, 145859, Note_on_c, 15, 46, 0
17, 145920, Note_on_c, 15, 48, 76
17, 146624, Note_on_c, 15, 48, 0
17, 146640, Note_on_c, 15, 50, 76
17, 146819, Note_on_c, 15, 50, 0
17, 146880, Note_on_c, 15, 52, 76
17, 147119, Note_on_c, 15, 52, 0
17, 147120, Note_on_c, 15, 53, 76
17, 147344, Note_on_c, 15, 53, 0
17, 147360, Note_on_c, 15, 55, 76
17, 147539, Note_on_c, 15, 55, 0
17, 147600, Note_on_c, 15, 53, 76
17, 147779, Note_on_c, 15, 53, 0
17, 147840, Note_on_c, 15, 52, 76
17, 148544, Note_on_c, 15, 52, 0
17, 148560, Note_on_c, 15, 50, 76
17, 148739, Note_on_c, 15, 50, 0
17, 148800, Note_on_c, 15, 48, 76
17, 149039, Note_on_c, 15, 48, 0
17, 149040, Note_on_c, 15, 50, 76
17, 149264, Note_on_c, 15, 50, 0
17, 149280, Note_on_c, 15, 46, 76
17, 149459, Note_on_c, 15, 46, 0
17, 149520, Note_on_c, 15, 43, 76
17, 149699, Note_on_c, 15, 43, 0
17, 149760, Note_on_c, 15, 40, 76
17, 149999, Note_on_c, 15, 40, 0
17, 153600, Note_on_c, 15, 29, 84
17, 153839, Note_on_c, 15, 29, 0
17, 154320, Note_on_c, 15, 38, 84
17, 154544, Note_on_c, 15, 38, 0
17, 154560, Note_on_c, 15, 34, 84
17, 154799, Note_on_c, 15, 34, 0
17, 155040, Note_on_c, 15, 36, 84
17, 155279, Note_on_c, 15, 36, 0
17, 157440, Note_on_c, 15, 29, 84
17, 157679, Note_on_c, 15, 29, 0
17, 158160, Note_on_c, 15, 38, 84
17, 158384, Note_on_c, 15, 38, 0
17, 158400, Note_on_c, 15, 34, 84
17, 158639, Note_on_c, 15, 34, 0
17, 158880, Note_on_c, 15, 36, 84
17, 159119, Note_on_c, 15, 36, 0
17, 161280, Note_on_c, 15, 29, 76
17, 162224, Note_on_c, 15, 29, 0
17, 162240, Note_on_c, 15, 29, 76
17, 163184, Note_on_c, 15, 29, 0
17, 163200, Note_on_c, 15, 29, 76
17, 164144, Note_on_c, 15, 29, 0
17, 164160, Note_on_c, 15, 29, 76
17, 165104, Note_on_c, 15, 29, 0
17, 165120, Note_on_c, 15, 29, 84
17, 165224, Note_on_c, 15, 29, 0
17, 165240, Note_on_c, 15, 37, 84
17, 165344, Note_on_c, 15, 37, 0
17, 165360, Note_on_c, 15, 37, 84
17, 165464, Note_on_c, 15, 37, 0
17, 165480, Note_on_c, 15, 37, 84
17, 165584, Note_on_c, 15, 37, 0
17, 165600, Note_on_c, 15, 37, 84
17, 165704, Note_on_c, 15, 37, 0
17, 165720, Note_on_c, 15, 37, 84
17, 165824, Note_on_c, 15, 37, 0
17, 165840, Note_on_c, 15, 37, 84
17, 165944, Note_on_c, 15, 37, 0
17, 165960, Note_on_c, 15, 37, 84
17, 166064, Note_on_c, 15, 37, 0
17, 166080, Note_on_c, 15, 37, 84
17, 166184, Note_on_c, 15, 37, 0
17, 166200, Note_on_c, 15, 37, 84
17, 166304, Note_on_c, 15, 37, 0
17, 166320, Note_on_c, 15, 37, 84
17, 166424, Note_on_c, 15, 37, 0
17, 166440, Note_on_c, 15, 37, 84
17, 166544, Note_on_c, 15, 37, 0
17, 166560, Note_on_c, 15, 37, 84
17, 166664, Note_on_c, 15, 37, 0
17, 166680, Note_on_c, 15, 37, 84
17, 166784, Note_on_c, 15, 37, 0
17, 166800, Note_on_c, 15, 37, 84
17, 166904, Note_on_c, 15, 37, 0
17, 166920, Note_on_c, 15, 37, 84
17, 167024, Note_on_c, 15, 37, 0
17, 167040, Note_on_c, 15, 36, 84
17, 167144, Note_on_c, 15, 36, 0
17, 167160, Note_on_c, 15, 36, 84
17, 167264, Note_on_c, 15, 36, 0
17, 167280, Note_on_c, 15, 36, 84
17, 167384, Note_on_c, 15, 36, 0
17, 167400, Note_on_c, 15, 36, 84
17, 167504, Note_on_c, 15, 36, 0
17, 167520, Note_on_c, 15, 36, 84
17, 167624, Note_on_c, 15, 36, 0
17, 167640, Note_on_c, 15, 36, 84
17, 167744, Note_on_c, 15, 36, 0
17, 167760, Note_on_c, 15, 36, 84
17, 167864, Note_on_c, 15, 36, 0
17, 167880, Note_on_c, 15, 36, 84
17, 167984, Note_on_c, 15, 36, 0
17, 168000, Note_on_c, 15, 36, 84
17, 168104, Note_on_c, 15, 36, 0
17, 168120, Note_on_c, 15, 36, 84
17, 168224, Note_on_c, 15, 36, 0
17, 168240, Note_on_c, 15, 36, 84
17, 168344, Note_on_c, 15, 36, 0
17, 168360, Note_on_c, 15, 36, 84
17, 168464, Note_on_c, 15, 36, 0
17, 168480, Note_on_c, 15, 36, 84
17, 168584, Note_on_c, 15, 36, 0
17, 168600, Note_on_c, 15, 36, 84
17, 168704, Note_on_c, 15, 36, 0
17, 168720, Note_on_c, 15, 36, 84
17, 168824, Note_on_c, 15, 36, 0
17, 168840, Note_on_c, 15, 36, 84
17, 168944, Note_on_c, 15, 36, 0
17, 168960, Note_on_c, 15, 29, 84
17, 169199, Note_on_c, 15, 29, 0
17, 172080, Note_on_c, 15, 36, 76
17, 172544, Note_on_c, 15, 36, 0
17, 172560, Note_on_c, 15, 36, 76
17, 172739, Note_on_c, 15, 36, 0
17, 172800, Note_on_c, 15, 29, 76
17, 172979, Note_on_c, 15, 29, 0
17, 174720, Note_on_c, 15, 29, 76
17, 174959, Note_on_c, 15, 29, 0
17, 175920, Note_on_c, 15, 36, 76
17, 176384, Note_on_c, 15, 36, 0
17, 176400, Note_on_c, 15, 36, 76
17, 176624, Note_on_c, 15, 36, 0
17, 176640, Note_on_c, 15, 29, 76
17, 176879, Note_on_c, 15, 29, 0
17, 177840, Note_on_c, 15, 36, 76
17, 178304, Note_on_c, 15, 36, 0
17, 178320, Note_on_c, 15, 36, 76
17, 178544, Note_on_c, 15, 36, 0
17, 178560, Note_on_c, 15, 29, 84
17, 179519, Note_on_c, 15, 29, 0
17, 179520, Note_on_c, 15, 29, 84
17, 180407, Note_on_c, 15, 29, 0
17, 180420, Note_on_c, 15, 29, 84
17, 180471, Note_on_c, 15, 29, 0
17, 180480, Note_on_c, 15, 29, 84
17, 180719, Note_on_c, 15, 29, 0
17, 182400, Note_on_c, 15, 29, 84
17, 183359, Note_on_c, 15, 29, 0
17, 183360, Note_on_c, 15, 29, 84
17, 184247, Note_on_c, 15, 29, 0
17, 184260, Note_on_c, 15, 29, 84
17, 184311, Note_on_c, 15, 29, 0
17, 184320, Note_on_c, 15, 29, 84
17, 184559, Note_on_c, 15, 29, 0
17, 185280, Note_on_c, 15, 29, 84
17, 185459, Note_on_c, 15, 29, 0
17, 186240, Note_on_c, 15, 29, 84
17, 186419, Note_on_c, 15, 29, 0
17, 186720, Note_on_c, 15, 29, 84
17, 186899, Note_on_c, 15, 29, 0
17, 187200, Note_on_c, 15, 29, 84
17, 187379, Note_on_c, 15, 29, 0
17, 187680, Note_on_c, 15, 29, 84
17, 187859, Note_on_c, 15, 29, 0
17, 188160, Note_on_c, 15, 34, 76
17, 188399, Note_on_c, 15, 34, 0
17, 195840, Note_on_c, 15, 29, 84
17, 196019, Note_on_c, 15, 29, 0
17, 196800, Note_on_c, 15, 29, 84
17, 196979, Note_on_c, 15, 29, 0
17, 197280, Note_on_c, 15, 29, 84
17, 197459, Note_on_c, 15, 29, 0
17, 197760, Note_on_c, 15, 34, 84
17, 197879, Note_on_c, 15, 34, 0
17, 198000, Note_on_c, 15, 34, 84
17, 198119, Note_on_c, 15, 34, 0
17, 198240, Note_on_c, 15, 34, 84
17, 198359, Note_on_c, 15, 34, 0
17, 198480, Note_on_c, 15, 34, 84
17, 198599, Note_on_c, 15, 34, 0
17, 198720, Note_on_c, 15, 34, 84
17, 198839, Note_on_c, 15, 34, 0
17, 198960, Note_on_c, 15, 34, 84
17, 199079, Note_on_c, 15, 34, 0
17, 199200, Note_on_c, 15, 34, 84
17, 199319, Note_on_c, 15, 34, 0
17, 199440, Note_on_c, 15, 34, 84
17, 199559, Note_on_c, 15, 34, 0
17, 199680, Note_on_c, 15, 34, 84
17, 199799, Note_on_c, 15, 34, 0
17, 199920, Note_on_c, 15, 34, 84
17, 200039, Note_on_c, 15, 34, 0
17, 200160, Note_on_c, 15, 34, 84
17, 200279, Note_on_c, 15, 34, 0
17, 200400, Note_on_c, 15, 34, 84
17, 200519, Note_on_c, 15, 34, 0
17, 200640, Note_on_c, 15, 34, 84
17, 200759, Note_on_c, 15, 34, 0
17, 200880, Note_on_c, 15, 34, 84
17, 200999, Note_on_c, 15, 34, 0
17, 201120, Note_on_c, 15, 34, 84
17, 201239, Note_on_c, 15, 34, 0
17, 201360, Note_on_c, 15, 34, 84
17, 201479, Note_on_c, 15, 34, 0
17, 201600, Note_on_c, 15, 34, 84
17, 201719, Note_on_c, 15, 34, 0
17, 201840, Note_on_c, 15, 46, 84
17, 202079, Note_on_c, 15, 46, 0
17, 202080, Note_on_c, 15, 45, 84
17, 202319, Note_on_c, 15, 45, 0
17, 202320, Note_on_c, 15, 43, 84
17, 202559, Note_on_c, 15, 43, 0
17, 202560, Note_on_c, 15, 41, 84
17, 202799, Note_on_c, 15, 41, 0
17, 202800, Note_on_c, 15, 39, 84
17, 203039, Note_on_c, 15, 39, 0
17, 203040, Note_on_c, 15, 38, 84
17, 203279, Note_on_c, 15, 38, 0
17, 203280, Note_on_c, 15, 39, 84
17, 203504, Note_on_c, 15, 39, 0
17, 203520, Note_on_c, 15, 41, 92
17, 204479, Note_on_c, 15, 41, 0
17, 204480, Note_on_c, 15, 41, 84
17, 205424, Note_on_c, 15, 41, 0
17, 205440, Note_on_c, 15, 41, 84
17, 205679, Note_on_c, 15, 41, 0
17, 206400, Note_on_c, 15, 43, 84
17, 206639, Note_on_c, 15, 43, 0
17, 207360, Note_on_c, 15, 36, 84
17, 207599, Note_on_c, 15, 36, 0
17, 208320, Note_on_c, 15, 41, 84
17, 208559, Note_on_c, 15, 41, 0
17, 209040, Program_c, 15, 45
17, 209280, Note_on_c, 15, 34, 44
17, 209519, Note_on_c, 15, 34, 0
17, 211200, Note_on_c, 15, 34, 44
17, 211439, Note_on_c, 15, 34, 0
17, 212160, Note_on_c, 15, 34, 44
17, 212399, Note_on_c, 15, 34, 0
17, 213120, Note_on_c, 15, 34, 44
17, 213359, Note_on_c, 15, 34, 0
17, 215040, Note_on_c, 15, 34, 44
17, 215279, Note_on_c, 15, 34, 0
17, 216000, Note_on_c, 15, 34, 44
17, 216239, Note_on_c, 15, 34, 0
17, 216960, Note_on_c, 15, 34, 44
17, 217199, Note_on_c, 15, 34, 0
17, 218640, Note_on_c, 15, 34, 44
17, 218879, Note_on_c, 15, 34, 0
17, 218880, Note_on_c, 15, 34, 44
17, 219119, Note_on_c, 15, 34, 0
17, 219840, Program_c, 15, 48
17, 220560, Note_on_c, 15, 34, 44
17, 220784, Note_on_c, 15, 34, 0
17, 220800, Note_on_c, 15, 34, 44
17, 220904, Note_on_c, 15, 34, 0
17, 220920, Note_on_c, 15, 34, 45
17, 221024, Note_on_c, 15, 34, 0
17, 221040, Note_on_c, 15, 34, 46
17, 221144, Note_on_c, 15, 34, 0
17, 221160, Note_on_c, 15, 34, 47
17, 221264, Note_on_c, 15, 34, 0
17, 221280, Note_on_c, 15, 34, 49
17, 221384, Note_on_c, 15, 34, 0
17, 221400, Note_on_c, 15, 34, 50
17, 221504, Note_on_c, 15, 34, 0
17, 221520, Note_on_c, 15, 34, 51
17, 221624, Note_on_c, 15, 34, 0
17, 221640, Note_on_c, 15, 34, 52
17, 221744, Note_on_c, 15, 34, 0
17, 221760, Note_on_c, 15, 34, 54
17, 221864, Note_on_c, 15, 34, 0
17, 221880, Note_on_c, 15, 34, 55
17, 221984, Note_on_c, 15, 34, 0
17, 222000, Note_on_c, 15, 34, 56
17, 222104, Note_on_c, 15, 34, 0
17, 222120, Note_on_c, 15, 34, 57
17, 222224, Note_on_c, 15, 34, 0
17, 222240, Note_on_c, 15, 34, 59
17, 222344, Note_on_c, 15, 34, 0
17, 222360, Note_on_c, 15, 34, 60
17, 222464, Note_on_c, 15, 34, 0
17, 222480, Note_on_c, 15, 34, 61
17, 222584, Note_on_c, 15, 34, 0
17, 222600, Note_on_c, 15, 34, 62
17, 222704, Note_on_c, 15, 34, 0
17, 222720, Note_on_c, 15, 34, 64
17, 222824, Note_on_c, 15, 34, 0
17, 222840, Note_on_c, 15, 34, 65
17, 222944, Note_on_c, 15, 34, 0
17, 222960, Note_on_c, 15, 34, 66
17, 223064, Note_on_c, 15, 34, 0
17, 223080, Note_on_c, 15, 34, 67
17, 223184, Note_on_c, 15, 34, 0
17, 223200, Note_on_c, 15, 34, 69
17, 223304, Note_on_c, 15, 34, 0
17, 223320, Note_on_c, 15, 34, 70
17, 223424, Note_on_c, 15, 34, 0
17, 223440, Note_on_c, 15, 34, 71
17, 223544, Note_on_c, 15, 34, 0
17, 223560, Note_on_c, 15, 34, 72
17, 223664, Note_on_c, 15, 34, 0
17, 223680, Note_on_c, 15, 34, 74
17, 223784, Note_on_c, 15, 34, 0
17, 223800, Note_on_c, 15, 34, 75
17, 223904, Note_on_c, 15, 34, 0
17, 223920, Note_on_c, 15, 34, 76
17, 224024, Note_on_c, 15, 34, 0
17, 224040, Note_on_c, 15, 34, 77
17, 224144, Note_on_c, 15, 34, 0
17, 224160, Note_on_c, 15, 34, 79
17, 224384, Note_on_c, 15, 34, 0
17, 224400, Note_on_c, 15, 41, 81
17, 224447, Note_on_c, 15, 41, 0
17, 224448, Note_on_c, 15, 43, 82
17, 224495, Note_on_c, 15, 43, 0
17, 224496, Note_on_c, 15, 45, 82
17, 224543, Note_on_c, 15, 45, 0
17, 224544, Note_on_c, 15, 46, 83
17, 224591, Note_on_c, 15, 46, 0
17, 224592, Note_on_c, 15, 48, 83
17, 224631, Note_on_c, 15, 48, 0
17, 224640, Note_on_c, 15, 50, 84
17, 224759, Note_on_c, 15, 50, 0
17, 224880, Note_on_c, 15, 46, 84
17, 224999, Note_on_c, 15, 46, 0
17, 225120, Note_on_c, 15, 41, 84
17, 225239, Note_on_c, 15, 41, 0
17, 225360, Note_on_c, 15, 46, 84
17, 225479, Note_on_c, 15, 46, 0
17, 225600, Note_on_c, 15, 38, 84
17, 225719, Note_on_c, 15, 38, 0
17, 225840, Note_on_c, 15, 41, 84
17, 225959, Note_on_c, 15, 41, 0
17, 226080, Note_on_c, 15, 34, 84
17, 226199, Note_on_c, 15, 34, 0
17, 226320, Note_on_c, 15, 38, 84
17, 226439, Note_on_c, 15, 38, 0
17, 226560, Note_on_c, 15, 31, 84
17, 226679, Note_on_c, 15, 31, 0
17, 226800, Note_on_c, 15, 39, 84
17, 226919, Note_on_c, 15, 39, 0
17, 227040, Note_on_c, 15, 36, 84
17, 227159, Note_on_c, 15, 36, 0
17, 227280, Note_on_c, 15, 34, 84
17, 227399, Note_on_c, 15, 34, 0
17, 227520, Note_on_c, 15, 33, 84
17, 227639, Note_on_c, 15, 33, 0
17, 227760, Note_on_c, 15, 41, 84
17, 227879, Note_on_c, 15, 41, 0
17, 228000, Note_on_c, 15, 39, 84
17, 228119, Note_on_c, 15, 39, 0
17, 228240, Note_on_c, 15, 36, 84
17, 228359, Note_on_c, 15, 36, 0
17, 228480, Note_on_c, 15, 34, 92
17, 229439, Note_on_c, 15, 34, 0
17, 229440, Note_on_c, 15, 34, 84
17, 230384, Note_on_c, 15, 34, 0
17, 230400, Note_on_c, 15, 39, 92
17, 231329, Note_on_c, 15, 39, 0
17, 231360, Note_on_c, 15, 41, 92
17, 232289, Note_on_c, 15, 41, 0
17, 232320, Note_on_c, 15, 34, 92
17, 233249, Note_on_c, 15, 34, 0
17, 233280, Note_on_c, 15, 33, 92
17, 234209, Note_on_c, 15, 33, 0
17, 234240, Note_on_c, 15, 38, 92
17, 235169, Note_on_c, 15, 38, 0
17, 235200, Note_on_c, 15, 36, 92
17, 236369, Note_on_c, 15, 36, 0
17, 236400, Note_on_c, 15, 48, 84
17, 236519, Note_on_c, 15, 48, 0
17, 236640, Note_on_c, 15, 46, 84
17, 236759, Note_on_c, 15, 46, 0
17, 236880, Note_on_c, 15, 43, 84
17, 236999, Note_on_c, 15, 43, 0
17, 237120, Note_on_c, 15, 44, 84
17, 237239, Note_on_c, 15, 44, 0
17, 237360, Note_on_c, 15, 41, 84
17, 237479, Note_on_c, 15, 41, 0
17, 237600, Note_on_c, 15, 39, 84
17, 237719, Note_on_c, 15, 39, 0
17, 237840, Note_on_c, 15, 37, 84
17, 237959, Note_on_c, 15, 37, 0
17, 238080, Note_on_c, 15, 36, 84
17, 238319, Note_on_c, 15, 36, 0
17, 241200, Note_on_c, 15, 41, 92
17, 241679, Note_on_c, 15, 41, 0
17, 241680, Note_on_c, 15, 36, 84
17, 241904, Note_on_c, 15, 36, 0
17, 241920, Note_on_c, 15, 36, 84
17, 242099, Note_on_c, 15, 36, 0
17, 242160, Note_on_c, 15, 46, 84
17, 242624, Note_on_c, 15, 46, 0
17, 242640, Note_on_c, 15, 44, 84
17, 243104, Note_on_c, 15, 44, 0
17, 243120, Note_on_c, 15, 43, 84
17, 243584, Note_on_c, 15, 43, 0
17, 243600, Note_on_c, 15, 44, 84
17, 244064, Note_on_c, 15, 44, 0
17, 244080, Note_on_c, 15, 43, 84
17, 244544, Note_on_c, 15, 43, 0
17, 244560, Note_on_c, 15, 41, 84
17, 245024, Note_on_c, 15, 41, 0
17, 245040, Note_on_c, 15, 41, 92
17, 245519, Note_on_c, 15, 41, 0
17, 245520, Note_on_c, 15, 36, 84
17, 245744, Note_on_c, 15, 36, 0
17, 245760, Note_on_c, 15, 36, 92
17, 245820, Control_c, 15, 11, 112
17, 245978, Control_c, 15, 11, 110
17, 246135, Control_c, 15, 11, 108
17, 246293, Control_c, 15, 11, 106
17, 246450, Control_c, 15, 11, 104
17, 246608, Control_c, 15, 11, 102
17, 246719, Note_on_c, 15, 36, 0
17, 246720, Note_on_c, 15, 36, 84
17, 246765, Control_c, 15, 11, 100
17, 246923, Control_c, 15, 11, 98
17, 247080, Control_c, 15, 11, 96
17, 247238, Control_c, 15, 11, 94
17, 247395, Control_c, 15, 11, 92
17, 247553, Control_c, 15, 11, 90
17, 247679, Note_on_c, 15, 36, 0
17, 247680, Note_on_c, 15, 36, 84
17, 247710, Control_c, 15, 11, 88
17, 247868, Control_c, 15, 11, 86
17, 248025, Control_c, 15, 11, 84
17, 248183, Control_c, 15, 11, 82
17, 248340, Control_c, 15, 11, 80
17, 248498, Control_c, 15, 11, 78
17, 248639, Note_on_c, 15, 36, 0
17, 248640, Note_on_c, 15, 36, 84
17, 248655, Control_c, 15, 11, 76
17, 248813, Control_c, 15, 11, 74
17, 248970, Control_c, 15, 11, 72
17, 249104, Note_on_c, 15, 36, 0
17, 249120, Note_on_c, 15, 36, 84
17, 249128, Control_c, 15, 11, 70
17, 249285, Control_c, 15, 11, 68
17, 249443, Control_c, 15, 11, 66
17, 249584, Note_on_c, 15, 36, 0
17, 249592, Control_c, 15, 11, 80
17, 249600, Note_on_c, 15, 29, 76
17, 251519, Note_on_c, 15, 29, 0
17, 251520, Note_on_c, 15, 29, 76
17, 253424, Note_on_c, 15, 29, 0
17, 253432, Control_c, 15, 11, 96
17, 253440, Note_on_c, 15, 38, 68
17, 255344, Note_on_c, 15, 38, 0
17, 255345, Control_c, 15, 11, 112
17, 255360, Note_on_c, 15, 33, 60
17, 255599, Note_on_c, 15, 33, 0
17, 255840, Control_c, 15, 11, 127
17, 256080, Note_on_c, 15, 33, 52
17, 256304, Note_on_c, 15, 33, 0
17, 256320, Note_on_c, 15, 33, 52
17, 256559, Note_on_c, 15, 33, 0
17, 257040, Note_on_c, 15, 33, 52
17, 257264, Note_on_c, 15, 33, 0
17, 257280, Note_on_c, 15, 33, 52
17, 257519, Note_on_c, 15, 33, 0
17, 258000, Note_on_c, 15, 33, 52
17, 258224, Note_on_c, 15, 33, 0
17, 258240, Note_on_c, 15, 33, 52
17, 258479, Note_on_c, 15, 33, 0
17, 258960, Note_on_c, 15, 33, 52
17, 259184, Note_on_c, 15, 33, 0
17, 259200, Note_on_c, 15, 33, 52
17, 259439, Note_on_c, 15, 33, 0
17, 259920, Note_on_c, 15, 33, 52
17, 260144, Note_on_c, 15, 33, 0
17, 260160, Note_on_c, 15, 33, 52
17, 260399, Note_on_c, 15, 33, 0
17, 260880, Note_on_c, 15, 33, 52
17, 261104, Note_on_c, 15, 33, 0
17, 261120, Note_on_c, 15, 33, 52
17, 261359, Note_on_c, 15, 33, 0
17, 261840, Note_on_c, 15, 33, 52
17, 262064, Note_on_c, 15, 33, 0
17, 262080, Note_on_c, 15, 33, 52
17, 262319, Note_on_c, 15, 33, 0
17, 262800, Note_on_c, 15, 33, 52
17, 263024, Note_on_c, 15, 33, 0
17, 263038, Control_c, 15, 11, 64
17, 263040, Note_on_c, 15, 33, 76
17, 263399, Note_on_c, 15, 33, 0
17, 263520, Note_on_c, 15, 34, 76
17, 263879, Note_on_c, 15, 34, 0
17, 264000, Note_on_c, 15, 31, 76
17, 264359, Note_on_c, 15, 31, 0
17, 264480, Note_on_c, 15, 35, 76
17, 264839, Note_on_c, 15, 35, 0
17, 264960, Note_on_c, 15, 36, 76
17, 265319, Note_on_c, 15, 36, 0
17, 265440, Note_on_c, 15, 33, 76
17, 265799, Note_on_c, 15, 33, 0
17, 265920, Note_on_c, 15, 36, 76
17, 265920, Control_c, 15, 11, 64
17, 266133, Control_c, 15, 11, 66
17, 266279, Note_on_c, 15, 36, 0
17, 266347, Control_c, 15, 11, 68
17, 266400, Note_on_c, 15, 38, 76
17, 266560, Control_c, 15, 11, 69
17, 266759, Note_on_c, 15, 38, 0
17, 266773, Control_c, 15, 11, 71
17, 266880, Note_on_c, 15, 34, 76
17, 266987, Control_c, 15, 11, 73
17, 267200, Control_c, 15, 11, 75
17, 267239, Note_on_c, 15, 34, 0
17, 267360, Note_on_c, 15, 38, 76
17, 267413, Control_c, 15, 11, 76
17, 267627, Control_c, 15, 11, 78
17, 267719, Note_on_c, 15, 38, 0
17, 267840, Control_c, 15, 11, 80
17, 267840, Note_on_c, 15, 40, 76
17, 268053, Control_c, 15, 11, 82
17, 268199, Note_on_c, 15, 40, 0
17, 268267, Control_c, 15, 11, 83
17, 268320, Note_on_c, 15, 36, 76
17, 268480, Control_c, 15, 11, 85
17, 268679, Note_on_c, 15, 36, 0
17, 268693, Control_c, 15, 11, 87
17, 268800, Note_on_c, 15, 40, 76
17, 268907, Control_c, 15, 11, 89
17, 269120, Control_c, 15, 11, 90
17, 269159, Note_on_c, 15, 40, 0
17, 269280, Note_on_c, 15, 41, 76
17, 269333, Control_c, 15, 11, 92
17, 269547, Control_c, 15, 11, 94
17, 269639, Note_on_c, 15, 41, 0
17, 269760, Control_c, 15, 11, 96
17, 269760, Note_on_c, 15, 38, 76
17, 269973, Control_c, 15, 11, 97
17, 270119, Note_on_c, 15, 38, 0
17, 270187, Control_c, 15, 11, 99
17, 270240, Note_on_c, 15, 42, 76
17, 270400, Control_c, 15, 11, 101
17, 270599, Note_on_c, 15, 42, 0
17, 270613, Control_c, 15, 11, 103
17, 270720, Note_on_c, 15, 43, 76
17, 270827, Control_c, 15, 11, 104
17, 271040, Control_c, 15, 11, 106
17, 271079, Note_on_c, 15, 43, 0
17, 271200, Note_on_c, 15, 40, 76
17, 271253, Control_c, 15, 11, 108
17, 271467, Control_c, 15, 11, 110
17, 271559, Note_on_c, 15, 40, 0
17, 271680, Note_on_c, 15, 43, 76
17, 271680, Control_c, 15, 11, 111
17, 271893, Control_c, 15, 11, 113
17, 272039, Note_on_c, 15, 43, 0
17, 272107, Control_c, 15, 11, 115
17, 272160, Note_on_c, 15, 45, 76
17, 272320, Control_c, 15, 11, 117
17, 272519, Note_on_c, 15, 45, 0
17, 272533, Control_c, 15, 11, 118
17, 272640, Note_on_c, 15, 46, 76
17, 272747, Control_c, 15, 11, 120
17, 272960, Control_c, 15, 11, 122
17, 272999, Note_on_c, 15, 46, 0
17, 273120, Note_on_c, 15, 47, 76
17, 273173, Control_c, 15, 11, 124
17, 273387, Control_c, 15, 11, 127
17, 273479, Note_on_c, 15, 47, 0
17, 273600, Note_on_c, 15, 36, 76
17, 273959, Note_on_c, 15, 36, 0
17, 274080, Note_on_c, 15, 46, 76
17, 274439, Note_on_c, 15, 46, 0
17, 274560, Note_on_c, 15, 43, 76
17, 274919, Note_on_c, 15, 43, 0
17, 275040, Note_on_c, 15, 40, 76
17, 275399, Note_on_c, 15, 40, 0
17, 275520, Note_on_c, 15, 36, 76
17, 275879, Note_on_c, 15, 36, 0
17, 276000, Note_on_c, 15, 34, 76
17, 276359, Note_on_c, 15, 34, 0
17, 276480, Note_on_c, 15, 33, 76
17, 277184, Note_on_c, 15, 33, 0
17, 277200, Note_on_c, 15, 29, 76
17, 277424, Note_on_c, 15, 29, 0
17, 277440, Note_on_c, 15, 34, 76
17, 278144, Note_on_c, 15, 34, 0
17, 278160, Note_on_c, 15, 31, 76
17, 278384, Note_on_c, 15, 31, 0
17, 278400, Note_on_c, 15, 36, 76
17, 279104, Note_on_c, 15, 36, 0
17, 279120, Note_on_c, 15, 36, 76
17, 279344, Note_on_c, 15, 36, 0
17, 279360, Note_on_c, 15, 34, 76
17, 279584, Note_on_c, 15, 34, 0
17, 279600, Note_on_c, 15, 34, 76
17, 279824, Note_on_c, 15, 34, 0
17, 279840, Note_on_c, 15, 34, 76
17, 280064, Note_on_c, 15, 34, 0
17, 280080, Note_on_c, 15, 34, 76
17, 280304, Note_on_c, 15, 34, 0
17, 280320, Note_on_c, 15, 33, 76
17, 280559, Note_on_c, 15, 33, 0
17, 280560, Note_on_c, 15, 29, 76
17, 280784, Note_on_c, 15, 29, 0
17, 280800, Note_on_c, 15, 34, 76
17, 281039, Note_on_c, 15, 34, 0
17, 281040, Note_on_c, 15, 31, 76
17, 281264, Note_on_c, 15, 31, 0
17, 281280, Note_on_c, 15, 36, 76
17, 281504, Note_on_c, 15, 36, 0
17, 281520, Note_on_c, 15, 48, 76
17, 281744, Note_on_c, 15, 48, 0
17, 281760, Note_on_c, 15, 36, 76
17, 281984, Note_on_c, 15, 36, 0
17, 282000, Note_on_c, 15, 36, 76
17, 282224, Note_on_c, 15, 36, 0
17, 282240, Note_on_c, 15, 41, 52
17, 282479, Note_on_c, 15, 41, 0
17, 283200, Note_on_c, 15, 41, 52
17, 283919, Note_on_c, 15, 41, 0
17, 283920, Note_on_c, 15, 36, 52
17, 284159, Note_on_c, 15, 36, 0
17, 284160, Note_on_c, 15, 41, 52
17, 284399, Note_on_c, 15, 41, 0
17, 285120, Note_on_c, 15, 41, 52
17, 285824, Note_on_c, 15, 41, 0
17, 285840, Note_on_c, 15, 41, 52
17, 286064, Note_on_c, 15, 41, 0
17, 286080, Note_on_c, 15, 36, 52
17, 286319, Note_on_c, 15, 36, 0
17, 287040, Note_on_c, 15, 36, 52
17, 287744, Note_on_c, 15, 36, 0
17, 287760, Note_on_c, 15, 36, 52
17, 287984, Note_on_c, 15, 36, 0
17, 288000, Note_on_c, 15, 36, 52
17, 288239, Note_on_c, 15, 36, 0
17, 288960, Note_on_c, 15, 36, 52
17, 289664, Note_on_c, 15, 36, 0
17, 289680, Note_on_c, 15, 36, 76
17, 289904, Note_on_c, 15, 36, 0
17, 289920, Note_on_c, 15, 41, 76
17, 290159, Note_on_c, 15, 41, 0
17, 290640, Note_on_c, 15, 48, 76
17, 290819, Note_on_c, 15, 48, 0
17, 290880, Note_on_c, 15, 45, 76
17, 291119, Note_on_c, 15, 45, 0
17, 291120, Note_on_c, 15, 46, 76
17, 291344, Note_on_c, 15, 46, 0
17, 291360, Note_on_c, 15, 48, 76
17, 291539, Note_on_c, 15, 48, 0
17, 291600, Note_on_c, 15, 36, 76
17, 291779, Note_on_c, 15, 36, 0
17, 291840, Note_on_c, 15, 41, 76
17, 292544, Note_on_c, 15, 41, 0
17, 292560, Note_on_c, 15, 43, 76
17, 292739, Note_on_c, 15, 43, 0
17, 292800, Note_on_c, 15, 45, 76
17, 293039, Note_on_c, 15, 45, 0
17, 293040, Note_on_c, 15, 41, 76
17, 293264, Note_on_c, 15, 41, 0
17, 293280, Note_on_c, 15, 45, 76
17, 293459, Note_on_c, 15, 45, 0
17, 293520, Note_on_c, 15, 46, 76
17, 293699, Note_on_c, 15, 46, 0
17, 293760, Note_on_c, 15, 48, 76
17, 294464, Note_on_c, 15, 48, 0
17, 294480, Note_on_c, 15, 50, 76
17, 294659, Note_on_c, 15, 50, 0
17, 294720, Note_on_c, 15, 52, 76
17, 294959, Note_on_c, 15, 52, 0
17, 294960, Note_on_c, 15, 53, 76
17, 295184, Note_on_c, 15, 53, 0
17, 295200, Note_on_c, 15, 55, 76
17, 295379, Note_on_c, 15, 55, 0
17, 295440, Note_on_c, 15, 53, 76
17, 295619, Note_on_c, 15, 53, 0
17, 295680, Note_on_c, 15, 52, 76
17, 296384, Note_on_c, 15, 52, 0
17, 296400, Note_on_c, 15, 50, 76
17, 296579, Note_on_c, 15, 50, 0
17, 296640, Note_on_c, 15, 48, 76
17, 296879, Note_on_c, 15, 48, 0
17, 296880, Note_on_c, 15, 50, 76
17, 297104, Note_on_c, 15, 50, 0
17, 297120, Note_on_c, 15, 46, 76
17, 297299, Note_on_c, 15, 46, 0
17, 297360, Note_on_c, 15, 43, 76
17, 297539, Note_on_c, 15, 43, 0
17, 297600, Note_on_c, 15, 40, 76
17, 297839, Note_on_c, 15, 40, 0
17, 301440, Note_on_c, 15, 29, 84
17, 301679, Note_on_c, 15, 29, 0
17, 302160, Note_on_c, 15, 38, 84
17, 302384, Note_on_c, 15, 38, 0
17, 302400, Note_on_c, 15, 34, 84
17, 302639, Note_on_c, 15, 34, 0
17, 302880, Note_on_c, 15, 36, 84
17, 303119, Note_on_c, 15, 36, 0
17, 305280, Note_on_c, 15, 29, 84
17, 305519, Note_on_c, 15, 29, 0
17, 306000, Note_on_c, 15, 38, 84
17, 306224, Note_on_c, 15, 38, 0
17, 306240, Note_on_c, 15, 34, 84
17, 306479, Note_on_c, 15, 34, 0
17, 306720, Note_on_c, 15, 36, 84
17, 306959, Note_on_c, 15, 36, 0
17, 309120, Note_on_c, 15, 29, 76
17, 310064, Note_on_c, 15, 29, 0
17, 310080, Note_on_c, 15, 29, 76
17, 311024, Note_on_c, 15, 29, 0
17, 311040, Note_on_c, 15, 29, 76
17, 311984, Note_on_c, 15, 29, 0
17, 312000, Note_on_c, 15, 29, 76
17, 312944, Note_on_c, 15, 29, 0
17, 312960, Note_on_c, 15, 29, 84
17, 313064, Note_on_c, 15, 29, 0
17, 313080, Note_on_c, 15, 37, 84
17, 313184, Note_on_c, 15, 37, 0
17, 313200, Note_on_c, 15, 37, 84
17, 313304, Note_on_c, 15, 37, 0
17, 313320, Note_on_c, 15, 37, 84
17, 313424, Note_on_c, 15, 37, 0
17, 313440, Note_on_c, 15, 37, 84
17, 313544, Note_on_c, 15, 37, 0
17, 313560, Note_on_c, 15, 37, 84
17, 313664, Note_on_c, 15, 37, 0
17, 313680, Note_on_c, 15, 37, 84
17, 313784, Note_on_c, 15, 37, 0
17, 313800, Note_on_c, 15, 37, 84
17, 313904, Note_on_c, 15, 37, 0
17, 313920, Note_on_c, 15, 37, 84
17, 314024, Note_on_c, 15, 37, 0
17, 314040, Note_on_c, 15, 37, 84
17, 314144, Note_on_c, 15, 37, 0
17, 314160, Note_on_c, 15, 37, 84
17, 314264, Note_on_c, 15, 37, 0
17, 314280, Note_on_c, 15, 37, 84
17, 314384, Note_on_c, 15, 37, 0
17, 314400, Note_on_c, 15, 37, 84
17, 314504, Note_on_c, 15, 37, 0
17, 314520, Note_on_c, 15, 37, 84
17, 314624, Note_on_c, 15, 37, 0
17, 314640, Note_on_c, 15, 37, 84
17, 314744, Note_on_c, 15, 37, 0
17, 314760, Note_on_c, 15, 37, 84
17, 314864, Note_on_c, 15, 37, 0
17, 314880, Note_on_c, 15, 36, 84
17, 314984, Note_on_c, 15, 36, 0
17, 315000, Note_on_c, 15, 36, 84
17, 315104, Note_on_c, 15, 36, 0
17, 315120, Note_on_c, 15, 36, 84
17, 315224, Note_on_c, 15, 36, 0
17, 315240, Note_on_c, 15, 36, 84
17, 315344, Note_on_c, 15, 36, 0
17, 315360, Note_on_c, 15, 36, 84
17, 315464, Note_on_c, 15, 36, 0
17, 315480, Note_on_c, 15, 36, 84
17, 315584, Note_on_c, 15, 36, 0
17, 315600, Note_on_c, 15, 36, 84
17, 315704, Note_on_c, 15, 36, 0
17, 315720, Note_on_c, 15, 36, 84
17, 315824, Note_on_c, 15, 36, 0
17, 315840, Note_on_c, 15, 36, 84
17, 315944, Note_on_c, 15, 36, 0
17, 315960, Note_on_c, 15, 36, 84
17, 316064, Note_on_c, 15, 36, 0
17, 316080, Note_on_c, 15, 36, 84
17, 316184, Note_on_c, 15, 36, 0
17, 316200, Note_on_c, 15, 36, 84
17, 316304, Note_on_c, 15, 36, 0
17, 316320, Note_on_c, 15, 36, 84
17, 316424, Note_on_c, 15, 36, 0
17, 316440, Note_on_c, 15, 36, 84
17, 316544, Note_on_c, 15, 36, 0
17, 316560, Note_on_c, 15, 36, 84
17, 316664, Note_on_c, 15, 36, 0
17, 316680, Note_on_c, 15, 36, 84
17, 316784, Note_on_c, 15, 36, 0
17, 316800, Note_on_c, 15, 29, 84
17, 317039, Note_on_c, 15, 29, 0
17, 319920, Note_on_c, 15, 36, 76
17, 320384, Note_on_c, 15, 36, 0
17, 320400, Note_on_c, 15, 36, 76
17, 320579, Note_on_c, 15, 36, 0
17, 320640, Note_on_c, 15, 29, 76
17, 320819, Note_on_c, 15, 29, 0
17, 322560, Note_on_c, 15, 29, 76
17, 322799, Note_on_c, 15, 29, 0
17, 323760, Note_on_c, 15, 36, 76
17, 324224, Note_on_c, 15, 36, 0
17, 324240, Note_on_c, 15, 36, 76
17, 324464, Note_on_c, 15, 36, 0
17, 324480, Note_on_c, 15, 29, 76
17, 324719, Note_on_c, 15, 29, 0
17, 324960, Note_on_c, 15, 29, 76
17, 325199, Note_on_c, 15, 29, 0
17, 325440, Note_on_c, 15, 29, 76
17, 325679, Note_on_c, 15, 29, 0
17, 325920, Note_on_c, 15, 29, 76
17, 326159, Note_on_c, 15, 29, 0
17, 326400, Note_on_c, 15, 29, 76
17, 326639, Note_on_c, 15, 29, 0
17, 329280, Note_on_c, 15, 45, 76
17, 329399, Note_on_c, 15, 45, 0
17, 329520, Note_on_c, 15, 48, 76
17, 329639, Note_on_c, 15, 48, 0
17, 329760, Note_on_c, 15, 41, 76
17, 329879, Note_on_c, 15, 41, 0
17, 330000, Note_on_c, 15, 45, 76
17, 330119, Note_on_c, 15, 45, 0
17, 330240, Note_on_c, 15, 36, 76
17, 330479, Note_on_c, 15, 36, 0
17, 333120, Note_on_c, 15, 40, 76
17, 333239, Note_on_c, 15, 40, 0
17, 333360, Note_on_c, 15, 43, 76
17, 333479, Note_on_c, 15, 43, 0
17, 333600, Note_on_c, 15, 36, 76
17, 333719, Note_on_c, 15, 36, 0
17, 333840, Note_on_c, 15, 36, 76
17, 333959, Note_on_c, 15, 36, 0
17, 334080, Note_on_c, 15, 29, 76
17, 334319, Note_on_c, 15, 29, 0
17, 336000, Note_on_c, 15, 34, 76
17, 336239, Note_on_c, 15, 34, 0
17, 337920, Note_on_c, 15, 36, 76
17, 338159, Note_on_c, 15, 36, 0
17, 339840, Note_on_c, 15, 36, 76
17, 340079, Note_on_c, 15, 36, 0
17, 341760, Note_on_c, 15, 37, 52
17, 341760, Control_c, 15, 11, 127
17, 341872, Control_c, 15, 11, 126
17, 341984, Control_c, 15, 11, 125
17, 342096, Control_c, 15, 11, 124
17, 342208, Control_c, 15, 11, 123
17, 342320, Control_c, 15, 11, 122
17, 342432, Control_c, 15, 11, 121
17, 342544, Control_c, 15, 11, 120
17, 342656, Control_c, 15, 11, 119
17, 342719, Note_on_c, 15, 37, 0
17, 342720, Note_on_c, 15, 37, 52
17, 342768, Control_c, 15, 11, 118
17, 342880, Control_c, 15, 11, 117
17, 342992, Control_c, 15, 11, 116
17, 343104, Control_c, 15, 11, 115
17, 343216, Control_c, 15, 11, 114
17, 343328, Control_c, 15, 11, 113
17, 343439, Note_on_c, 15, 37, 0
17, 354240, Control_c, 15, 11, 127
17, 354960, Note_on_c, 15, 42, 52
17, 355139, Note_on_c, 15, 42, 0
17, 355200, Note_on_c, 15, 38, 76
17, 355439, Note_on_c, 15, 38, 0
17, 358800, Program_c, 15, 45
17, 359040, Note_on_c, 15, 38, 48
17, 359279, Note_on_c, 15, 38, 0
17, 360000, Note_on_c, 15, 42, 48
17, 360239, Note_on_c, 15, 42, 0
17, 360960, Note_on_c, 15, 40, 48
17, 361199, Note_on_c, 15, 40, 0
17, 361920, Note_on_c, 15, 33, 48
17, 362159, Note_on_c, 15, 33, 0
17, 362880, Note_on_c, 15, 38, 48
17, 363119, Note_on_c, 15, 38, 0
17, 363840, Note_on_c, 15, 34, 48
17, 364079, Note_on_c, 15, 34, 0
17, 364800, Note_on_c, 15, 33, 48
17, 365039, Note_on_c, 15, 33, 0
17, 365760, Note_on_c, 15, 38, 48
17, 365999, Note_on_c, 15, 38, 0
17, 366720, Note_on_c, 15, 43, 48
17, 366959, Note_on_c, 15, 43, 0
17, 367680, Note_on_c, 15, 43, 48
17, 367919, Note_on_c, 15, 43, 0
17, 368640, Note_on_c, 15, 41, 48
17, 368879, Note_on_c, 15, 41, 0
17, 369600, Note_on_c, 15, 34, 48
17, 369839, Note_on_c, 15, 34, 0
17, 370560, Note_on_c, 15, 39, 48
17, 370799, Note_on_c, 15, 39, 0
17, 371520, Note_on_c, 15, 43, 48
17, 371759, Note_on_c, 15, 43, 0
17, 372480, Note_on_c, 15, 41, 48
17, 372719, Note_on_c, 15, 41, 0
17, 373440, Note_on_c, 15, 34, 48
17, 373679, Note_on_c, 15, 34, 0
17, 374400, Note_on_c, 15, 39, 48
17, 374639, Note_on_c, 15, 39, 0
17, 375360, Note_on_c, 15, 36, 55
17, 375599, Note_on_c, 15, 36, 0
17, 376320, Note_on_c, 15, 32, 62
17, 376559, Note_on_c, 15, 32, 0
17, 377280, Note_on_c, 15, 34, 69
17, 377519, Note_on_c, 15, 34, 0
17, 378000, Program_c, 15, 48
17, 378240, Note_on_c, 15, 51, 84
17, 378419, Note_on_c, 15, 51, 0
17, 378480, Note_on_c, 15, 46, 84
17, 378659, Note_on_c, 15, 46, 0
17, 378720, Note_on_c, 15, 43, 84
17, 378899, Note_on_c, 15, 43, 0
17, 378960, Note_on_c, 15, 46, 84
17, 379139, Note_on_c, 15, 46, 0
17, 379200, Note_on_c, 15, 46, 84
17, 379379, Note_on_c, 15, 46, 0
17, 379440, Note_on_c, 15, 43, 84
17, 379619, Note_on_c, 15, 43, 0
17, 379680, Note_on_c, 15, 39, 84
17, 379859, Note_on_c, 15, 39, 0
17, 379920, Note_on_c, 15, 43, 84
17, 380099, Note_on_c, 15, 43, 0
17, 380160, Note_on_c, 15, 43, 84
17, 380339, Note_on_c, 15, 43, 0
17, 380400, Note_on_c, 15, 39, 84
17, 380579, Note_on_c, 15, 39, 0
17, 380640, Note_on_c, 15, 34, 84
17, 380819, Note_on_c, 15, 34, 0
17, 380880, Note_on_c, 15, 39, 84
17, 381059, Note_on_c, 15, 39, 0
17, 381120, Note_on_c, 15, 39, 84
17, 381299, Note_on_c, 15, 39, 0
17, 381360, Note_on_c, 15, 34, 84
17, 381539, Note_on_c, 15, 34, 0
17, 381600, Note_on_c, 15, 31, 84
17, 381779, Note_on_c, 15, 31, 0
17, 381840, Note_on_c, 15, 34, 84
17, 382019, Note_on_c, 15, 34, 0
17, 382080, Note_on_c, 15, 27, 84
17, 382259, Note_on_c, 15, 27, 0
17, 385920, Note_on_c, 15, 55, 84
17, 386099, Note_on_c, 15, 55, 0
17, 386160, Note_on_c, 15, 50, 84
17, 386339, Note_on_c, 15, 50, 0
17, 386400, Note_on_c, 15, 47, 84
17, 386579, Note_on_c, 15, 47, 0
17, 386640, Note_on_c, 15, 50, 84
17, 386819, Note_on_c, 15, 50, 0
17, 386880, Note_on_c, 15, 50, 84
17, 387059, Note_on_c, 15, 50, 0
17, 387120, Note_on_c, 15, 47, 84
17, 387299, Note_on_c, 15, 47, 0
17, 387360, Note_on_c, 15, 43, 84
17, 387539, Note_on_c, 15, 43, 0
17, 387600, Note_on_c, 15, 47, 84
17, 387779, Note_on_c, 15, 47, 0
17, 387840, Note_on_c, 15, 47, 84
17, 388019, Note_on_c, 15, 47, 0
17, 388080, Note_on_c, 15, 43, 84
17, 388259, Note_on_c, 15, 43, 0
17, 388320, Note_on_c, 15, 38, 84
17, 388499, Note_on_c, 15, 38, 0
17, 388560, Note_on_c, 15, 43, 84
17, 388739, Note_on_c, 15, 43, 0
17, 388800, Note_on_c, 15, 43, 84
17, 388979, Note_on_c, 15, 43, 0
17, 389040, Note_on_c, 15, 38, 84
17, 389219, Note_on_c, 15, 38, 0
17, 389280, Note_on_c, 15, 35, 84
17, 389459, Note_on_c, 15, 35, 0
17, 389520, Note_on_c, 15, 38, 84
17, 389699, Note_on_c, 15, 38, 0
17, 389760, Note_on_c, 15, 31, 84
17, 389939, Note_on_c, 15, 31, 0
17, 393600, Note_on_c, 15, 55, 84
17, 393779, Note_on_c, 15, 55, 0
17, 393840, Note_on_c, 15, 52, 84
17, 394019, Note_on_c, 15, 52, 0
17, 394080, Note_on_c, 15, 49, 84
17, 394259, Note_on_c, 15, 49, 0
17, 394320, Note_on_c, 15, 52, 84
17, 394499, Note_on_c, 15, 52, 0
17, 394560, Note_on_c, 15, 52, 84
17, 394739, Note_on_c, 15, 52, 0
17, 394800, Note_on_c, 15, 49, 84
17, 394979, Note_on_c, 15, 49, 0
17, 395040, Note_on_c, 15, 46, 84
17, 395219, Note_on_c, 15, 46, 0
17, 395280, Note_on_c, 15, 49, 84
17, 395459, Note_on_c, 15, 49, 0
17, 395520, Note_on_c, 15, 49, 84
17, 395699, Note_on_c, 15, 49, 0
17, 395760, Note_on_c, 15, 46, 84
17, 395939, Note_on_c, 15, 46, 0
17, 396000, Note_on_c, 15, 43, 84
17, 396179, Note_on_c, 15, 43, 0
17, 396240, Note_on_c, 15, 46, 84
17, 396419, Note_on_c, 15, 46, 0
17, 396480, Note_on_c, 15, 43, 84
17, 396659, Note_on_c, 15, 43, 0
17, 396720, Note_on_c, 15, 40, 84
17, 396899, Note_on_c, 15, 40, 0
17, 396960, Note_on_c, 15, 37, 84
17, 397139, Note_on_c, 15, 37, 0
17, 397200, Note_on_c, 15, 34, 84
17, 397379, Note_on_c, 15, 34, 0
17, 397440, Note_on_c, 15, 31, 76
17, 397679, Note_on_c, 15, 31, 0
17, 398400, Note_on_c, 15, 31, 76
17, 398639, Note_on_c, 15, 31, 0
17, 399360, Note_on_c, 15, 31, 76
17, 399599, Note_on_c, 15, 31, 0
17, 400320, Note_on_c, 15, 31, 76
17, 400559, Note_on_c, 15, 31, 0
17, 401280, Note_on_c, 15, 31, 76
17, 401519, Note_on_c, 15, 31, 0
17, 403200, Note_on_c, 15, 31, 52
17, 403439, Note_on_c, 15, 31, 0
17, 405120, Note_on_c, 15, 31, 44
17, 405359, Note_on_c, 15, 31, 0
17, 416640, Note_on_c, 15, 30, 36
17, 417599, Note_on_c, 15, 30, 0
17, 417600, Note_on_c, 15, 30, 36
17, 418799, Note_on_c, 15, 30, 0
17, 420480, Note_on_c, 15, 30, 36
17, 421439, Note_on_c, 15, 30, 0
17, 421440, Note_on_c, 15, 30, 36
17, 422639, Note_on_c, 15, 30, 0
17, 426240, Note_on_c, 15, 30, 36
17, 427199, Note_on_c, 15, 30, 0
17, 427200, Note_on_c, 15, 30, 36
17, 428399, Note_on_c, 15, 30, 0
17, 439440, Note_on_c, 15, 30, 44
17, 439679, Note_on_c, 15, 30, 0
17, 439680, Note_on_c, 15, 29, 44
17, 440639, Note_on_c, 15, 29, 0
17, 440640, Note_on_c, 15, 29, 44
17, 441839, Note_on_c, 15, 29, 0
17, 443520, Note_on_c, 15, 29, 44
17, 444479, Note_on_c, 15, 29, 0
17, 444480, Note_on_c, 15, 29, 44
17, 445679, Note_on_c, 15, 29, 0
17, 465000, Note_on_c, 15, 29, 75
17, 465039, Note_on_c, 15, 29, 0
17, 465040, Note_on_c, 15, 31, 75
17, 465079, Note_on_c, 15, 31, 0
17, 465080, Note_on_c, 15, 33, 76
17, 465119, Note_on_c, 15, 33, 0
17, 465120, Note_on_c, 15, 34, 76
17, 465299, Note_on_c, 15, 34, 0
17, 465480, Note_on_c, 15, 34, 78
17, 465539, Note_on_c, 15, 34, 0
17, 465540, Note_on_c, 15, 36, 78
17, 465599, Note_on_c, 15, 36, 0
17, 465600, Note_on_c, 15, 38, 78
17, 465779, Note_on_c, 15, 38, 0
17, 465960, Note_on_c, 15, 38, 80
17, 466019, Note_on_c, 15, 38, 0
17, 466020, Note_on_c, 15, 39, 81
17, 466079, Note_on_c, 15, 39, 0
17, 466080, Note_on_c, 15, 41, 81
17, 466259, Note_on_c, 15, 41, 0
17, 466440, Note_on_c, 15, 41, 83
17, 466479, Note_on_c, 15, 41, 0
17, 466480, Note_on_c, 15, 43, 83
17, 466519, Note_on_c, 15, 43, 0
17, 466520, Note_on_c, 15, 45, 83
17, 466551, Note_on_c, 15, 45, 0
17, 466560, Note_on_c, 15, 46, 84
17, 466664, Note_on_c, 15, 46, 0
17, 466680, Note_on_c, 15, 34, 84
17, 466784, Note_on_c, 15, 34, 0
17, 466800, Note_on_c, 15, 34, 84
17, 466904, Note_on_c, 15, 34, 0
17, 466920, Note_on_c, 15, 34, 84
17, 467024, Note_on_c, 15, 34, 0
17, 467040, Note_on_c, 15, 34, 84
17, 467144, Note_on_c, 15, 34, 0
17, 467160, Note_on_c, 15, 34, 84
17, 467264, Note_on_c, 15, 34, 0
17, 467280, Note_on_c, 15, 34, 84
17, 467384, Note_on_c, 15, 34, 0
17, 467400, Note_on_c, 15, 34, 84
17, 467504, Note_on_c, 15, 34, 0
17, 467520, Note_on_c, 15, 34, 84
17, 467624, Note_on_c, 15, 34, 0
17, 467640, Note_on_c, 15, 34, 84
17, 467744, Note_on_c, 15, 34, 0
17, 467760, Note_on_c, 15, 34, 84
17, 467864, Note_on_c, 15, 34, 0
17, 467880, Note_on_c, 15, 34, 84
17, 467984, Note_on_c, 15, 34, 0
17, 468000, Note_on_c, 15, 34, 84
17, 468104, Note_on_c, 15, 34, 0
17, 468120, Note_on_c, 15, 34, 84
17, 468224, Note_on_c, 15, 34, 0
17, 468240, Note_on_c, 15, 34, 84
17, 468344, Note_on_c, 15, 34, 0
17, 468360, Note_on_c, 15, 34, 84
17, 468464, Note_on_c, 15, 34, 0
17, 468480, Note_on_c, 15, 34, 84
17, 468584, Note_on_c, 15, 34, 0
17, 468600, Note_on_c, 15, 34, 84
17, 468704, Note_on_c, 15, 34, 0
17, 468720, Note_on_c, 15, 34, 84
17, 468824, Note_on_c, 15, 34, 0
17, 468840, Note_on_c, 15, 34, 84
17, 468944, Note_on_c, 15, 34, 0
17, 468960, Note_on_c, 15, 34, 84
17, 469064, Note_on_c, 15, 34, 0
17, 469080, Note_on_c, 15, 34, 84
17, 469184, Note_on_c, 15, 34, 0
17, 469200, Note_on_c, 15, 34, 84
17, 469304, Note_on_c, 15, 34, 0
17, 469320, Note_on_c, 15, 34, 84
17, 469424, Note_on_c, 15, 34, 0
17, 469440, Note_on_c, 15, 34, 84
17, 469619, Note_on_c, 15, 34, 0
17, 469920, Note_on_c, 15, 34, 84
17, 470099, Note_on_c, 15, 34, 0
17, 470400, Note_on_c, 15, 34, 84
17, 470519, Note_on_c, 15, 34, 0
17, 470640, Note_on_c, 15, 34, 84
17, 470759, Note_on_c, 15, 34, 0
17, 470880, Note_on_c, 15, 34, 84
17, 470999, Note_on_c, 15, 34, 0
17, 471120, Note_on_c, 15, 34, 84
17, 471239, Note_on_c, 15, 34, 0
17, 471360, Note_on_c, 15, 34, 84
17, 471479, Note_on_c, 15, 34, 0
17, 471600, Note_on_c, 15, 34, 84
17, 471719, Note_on_c, 15, 34, 0
17, 471840, Note_on_c, 15, 34, 84
17, 471959, Note_on_c, 15, 34, 0
17, 472080, Note_on_c, 15, 34, 84
17, 472199, Note_on_c, 15, 34, 0
17, 472320, Note_on_c, 15, 34, 84
17, 472439, Note_on_c, 15, 34, 0
17, 472560, Note_on_c, 15, 34, 84
17, 472679, Note_on_c, 15, 34, 0
17, 472800, Note_on_c, 15, 34, 84
17, 472919, Note_on_c, 15, 34, 0
17, 473040, Note_on_c, 15, 34, 84
17, 473159, Note_on_c, 15, 34, 0
17, 473280, Note_on_c, 15, 34, 84
17, 473399, Note_on_c, 15, 34, 0
17, 473520, Note_on_c, 15, 34, 84
17, 473639, Note_on_c, 15, 34, 0
17, 473760, Note_on_c, 15, 34, 84
17, 473879, Note_on_c, 15, 34, 0
17, 474000, Note_on_c, 15, 34, 84
17, 474119, Note_on_c, 15, 34, 0
17, 474240, Note_on_c, 15, 34, 76
17, 474479, Note_on_c, 15, 34, 0
17, 482880, Control_c, 15, 11, 77
17, 483120, Note_on_c, 15, 41, 84
17, 483120, Control_c, 15, 11, 80
17, 483160, Control_c, 15, 11, 82
17, 483200, Control_c, 15, 11, 85
17, 483240, Control_c, 15, 11, 88
17, 483280, Control_c, 15, 11, 90
17, 483320, Control_c, 15, 11, 93
17, 483360, Control_c, 15, 11, 96
17, 483400, Control_c, 15, 11, 98
17, 483440, Control_c, 15, 11, 101
17, 483480, Control_c, 15, 11, 103
17, 483520, Control_c, 15, 11, 106
17, 483560, Control_c, 15, 11, 109
17, 483584, Note_on_c, 15, 41, 0
17, 483600, Note_on_c, 15, 41, 84
17, 483600, Control_c, 15, 11, 111
17, 483640, Control_c, 15, 11, 114
17, 483659, Note_on_c, 15, 41, 0
17, 483660, Note_on_c, 15, 43, 84
17, 483680, Control_c, 15, 11, 117
17, 483719, Note_on_c, 15, 43, 0
17, 483720, Note_on_c, 15, 45, 84
17, 483720, Control_c, 15, 11, 119
17, 483760, Control_c, 15, 11, 122
17, 483779, Note_on_c, 15, 45, 0
17, 483780, Note_on_c, 15, 46, 84
17, 483800, Control_c, 15, 11, 127
17, 483809, Note_on_c, 15, 46, 0
17, 483810, Note_on_c, 15, 48, 84
17, 483835, Note_on_c, 15, 48, 0
17, 483840, Note_on_c, 15, 50, 84
17, 483959, Note_on_c, 15, 50, 0
17, 484080, Note_on_c, 15, 46, 84
17, 484199, Note_on_c, 15, 46, 0
17, 484320, Note_on_c, 15, 41, 84
17, 484439, Note_on_c, 15, 41, 0
17, 484560, Note_on_c, 15, 46, 84
17, 484679, Note_on_c, 15, 46, 0
17, 484800, Note_on_c, 15, 38, 84
17, 484979, Note_on_c, 15, 38, 0
17, 485040, Note_on_c, 15, 41, 84
17, 485219, Note_on_c, 15, 41, 0
17, 485280, Note_on_c, 15, 34, 84
17, 485459, Note_on_c, 15, 34, 0
17, 485520, Note_on_c, 15, 38, 84
17, 485699, Note_on_c, 15, 38, 0
17, 485760, Note_on_c, 15, 31, 84
17, 485939, Note_on_c, 15, 31, 0
17, 486000, Note_on_c, 15, 39, 84
17, 486179, Note_on_c, 15, 39, 0
17, 486240, Note_on_c, 15, 36, 84
17, 486419, Note_on_c, 15, 36, 0
17, 486480, Note_on_c, 15, 34, 84
17, 486659, Note_on_c, 15, 34, 0
17, 486720, Note_on_c, 15, 33, 84
17, 486899, Note_on_c, 15, 33, 0
17, 486960, Note_on_c, 15, 41, 84
17, 487139, Note_on_c, 15, 41, 0
17, 487200, Note_on_c, 15, 39, 84
17, 487379, Note_on_c, 15, 39, 0
17, 487440, Note_on_c, 15, 36, 84
17, 487619, Note_on_c, 15, 36, 0
17, 487680, Note_on_c, 15, 34, 84
17, 487859, Note_on_c, 15, 34, 0
17, 487920, Note_on_c, 15, 41, 84
17, 488099, Note_on_c, 15, 41, 0
17, 488160, Note_on_c, 15, 38, 84
17, 488339, Note_on_c, 15, 38, 0
17, 488400, Note_on_c, 15, 36, 84
17, 488579, Note_on_c, 15, 36, 0
17, 488640, Note_on_c, 15, 35, 84
17, 488819, Note_on_c, 15, 35, 0
17, 488880, Note_on_c, 15, 43, 84
17, 489059, Note_on_c, 15, 43, 0
17, 489120, Note_on_c, 15, 38, 84
17, 489299, Note_on_c, 15, 38, 0
17, 489360, Note_on_c, 15, 35, 84
17, 489539, Note_on_c, 15, 35, 0
17, 489600, Note_on_c, 15, 36, 92
17, 489779, Note_on_c, 15, 36, 0
17, 489840, Note_on_c, 15, 43, 84
17, 490019, Note_on_c, 15, 43, 0
17, 490080, Note_on_c, 15, 39, 84
17, 490259, Note_on_c, 15, 39, 0
17, 490320, Note_on_c, 15, 38, 84
17, 490499, Note_on_c, 15, 38, 0
17, 490560, Note_on_c, 15, 36, 92
17, 490739, Note_on_c, 15, 36, 0
17, 490800, Note_on_c, 15, 44, 84
17, 490979, Note_on_c, 15, 44, 0
17, 491040, Note_on_c, 15, 39, 84
17, 491219, Note_on_c, 15, 39, 0
17, 491280, Note_on_c, 15, 36, 84
17, 491459, Note_on_c, 15, 36, 0
17, 491520, Note_on_c, 15, 38, 92
17, 491729, Note_on_c, 15, 38, 0
17, 491760, Note_on_c, 15, 44, 84
17, 491984, Note_on_c, 15, 44, 0
17, 492000, Note_on_c, 15, 41, 84
17, 492224, Note_on_c, 15, 41, 0
17, 492240, Note_on_c, 15, 39, 84
17, 492464, Note_on_c, 15, 39, 0
17, 492480, Note_on_c, 15, 38, 84
17, 492704, Note_on_c, 15, 38, 0
17, 492720, Note_on_c, 15, 46, 84
17, 492944, Note_on_c, 15, 46, 0
17, 492960, Note_on_c, 15, 41, 92
17, 493169, Note_on_c, 15, 41, 0
17, 493200, Note_on_c, 15, 38, 84
17, 493424, Note_on_c, 15, 38, 0
17, 493440, Note_on_c, 15, 39, 84
17, 493664, Note_on_c, 15, 39, 0
17, 493680, Note_on_c, 15, 43, 84
17, 493904, Note_on_c, 15, 43, 0
17, 493920, Note_on_c, 15, 40, 92
17, 494129, Note_on_c, 15, 40, 0
17, 494160, Note_on_c, 15, 48, 84
17, 494384, Note_on_c, 15, 48, 0
17, 494400, Note_on_c, 15, 41, 84
17, 494624, Note_on_c, 15, 41, 0
17, 494640, Note_on_c, 15, 45, 84
17, 494864, Note_on_c, 15, 45, 0
17, 494880, Note_on_c, 15, 42, 92
17, 495089, Note_on_c, 15, 42, 0
17, 495120, Note_on_c, 15, 50, 84
17, 495344, Note_on_c, 15, 50, 0
17, 495360, Note_on_c, 15, 43, 84
17, 495584, Note_on_c, 15, 43, 0
17, 495600, Note_on_c, 15, 46, 84
17, 495824, Note_on_c, 15, 46, 0
17, 495840, Note_on_c, 15, 43, 92
17, 496049, Note_on_c, 15, 43, 0
17, 496080, Note_on_c, 15, 51, 84
17, 496304, Note_on_c, 15, 51, 0
17, 496320, Note_on_c, 15, 44, 84
17, 496544, Note_on_c, 15, 44, 0
17, 496560, Note_on_c, 15, 48, 84
17, 496784, Note_on_c, 15, 48, 0
17, 496800, Note_on_c, 15, 45, 92
17, 497009, Note_on_c, 15, 45, 0
17, 497040, Note_on_c, 15, 48, 84
17, 497264, Note_on_c, 15, 48, 0
17, 497280, Note_on_c, 15, 46, 84
17, 497504, Note_on_c, 15, 46, 0
17, 497520, Note_on_c, 15, 48, 84
17, 497744, Note_on_c, 15, 48, 0
17, 497760, Note_on_c, 15, 50, 84
17, 497984, Note_on_c, 15, 50, 0
17, 498000, Note_on_c, 15, 51, 84
17, 498224, Note_on_c, 15, 51, 0
17, 498240, Note_on_c, 15, 53, 84
17, 498464, Note_on_c, 15, 53, 0
17, 498480, Note_on_c, 15, 51, 84
17, 498704, Note_on_c, 15, 51, 0
17, 498720, Note_on_c, 15, 50, 84
17, 498944, Note_on_c, 15, 50, 0
17, 498960, Note_on_c, 15, 48, 84
17, 499184, Note_on_c, 15, 48, 0
17, 499200, Note_on_c, 15, 46, 84
17, 499424, Note_on_c, 15, 46, 0
17, 499440, Note_on_c, 15, 45, 84
17, 499664, Note_on_c, 15, 45, 0
17, 499680, Note_on_c, 15, 43, 84
17, 499904, Note_on_c, 15, 43, 0
17, 499920, Note_on_c, 15, 41, 84
17, 500144, Note_on_c, 15, 41, 0
17, 500160, Note_on_c, 15, 39, 84
17, 500384, Note_on_c, 15, 39, 0
17, 500400, Note_on_c, 15, 38, 84
17, 500624, Note_on_c, 15, 38, 0
17, 500640, Note_on_c, 15, 36, 84
17, 500864, Note_on_c, 15, 36, 0
17, 500880, Note_on_c, 15, 34, 84
17, 501104, Note_on_c, 15, 34, 0
17, 501120, Note_on_c, 15, 29, 84
17, 501359, Note_on_c, 15, 29, 0
17, 504240, Note_on_c, 15, 34, 92
17, 504719, Note_on_c, 15, 34, 0
17, 504720, Note_on_c, 15, 29, 84
17, 504944, Note_on_c, 15, 29, 0
17, 504960, Note_on_c, 15, 29, 84
17, 505139, Note_on_c, 15, 29, 0
17, 505200, Note_on_c, 15, 51, 84
17, 505664, Note_on_c, 15, 51, 0
17, 505680, Note_on_c, 15, 49, 84
17, 506144, Note_on_c, 15, 49, 0
17, 506160, Note_on_c, 15, 48, 84
17, 506624, Note_on_c, 15, 48, 0
17, 506640, Note_on_c, 15, 49, 84
17, 507104, Note_on_c, 15, 49, 0
17, 507120, Note_on_c, 15, 48, 84
17, 507584, Note_on_c, 15, 48, 0
17, 507600, Note_on_c, 15, 46, 84
17, 508064, Note_on_c, 15, 46, 0
17, 508080, Note_on_c, 15, 34, 92
17, 508559, Note_on_c, 15, 34, 0
17, 508560, Note_on_c, 15, 29, 84
17, 508799, Note_on_c, 15, 29, 0
17, 508800, Note_on_c, 15, 29, 76
17, 508919, Note_on_c, 15, 29, 0
17, 508920, Note_on_c, 15, 29, 52
17, 509759, Note_on_c, 15, 29, 0
17, 509760, Note_on_c, 15, 29, 52
17, 510719, Note_on_c, 15, 29, 0
17, 510720, Note_on_c, 15, 29, 52
17, 511679, Note_on_c, 15, 29, 0
17, 511680, Note_on_c, 15, 29, 52
17, 512624, Note_on_c, 15, 29, 0
17, 512640, Note_on_c, 15, 34, 52
17, 513599, Note_on_c, 15, 34, 0
17, 513600, Note_on_c, 15, 34, 52
17, 514559, Note_on_c, 15, 34, 0
17, 514560, Note_on_c, 15, 34, 52
17, 515519, Note_on_c, 15, 34, 0
17, 515520, Note_on_c, 15, 34, 52
17, 516464, Note_on_c, 15, 34, 0
17, 516480, Note_on_c, 15, 31, 52
17, 517439, Note_on_c, 15, 31, 0
17, 517440, Note_on_c, 15, 31, 52
17, 518384, Note_on_c, 15, 31, 0
17, 518400, Note_on_c, 15, 38, 52
17, 518639, Note_on_c, 15, 38, 0
17, 519120, Note_on_c, 15, 38, 52
17, 519344, Note_on_c, 15, 38, 0
17, 519360, Note_on_c, 15, 38, 52
17, 519599, Note_on_c, 15, 38, 0
17, 520080, Note_on_c, 15, 38, 52
17, 520304, Note_on_c, 15, 38, 0
17, 520320, Note_on_c, 15, 38, 52
17, 520559, Note_on_c, 15, 38, 0
17, 521040, Note_on_c, 15, 38, 52
17, 521264, Note_on_c, 15, 38, 0
17, 521280, Note_on_c, 15, 38, 52
17, 521519, Note_on_c, 15, 38, 0
17, 522000, Note_on_c, 15, 38, 52
17, 522224, Note_on_c, 15, 38, 0
17, 522240, Note_on_c, 15, 38, 52
17, 522464, Note_on_c, 15, 38, 0
17, 522480, Note_on_c, 15, 38, 52
17, 522704, Note_on_c, 15, 38, 0
17, 522720, Note_on_c, 15, 38, 52
17, 522959, Note_on_c, 15, 38, 0
17, 523440, Note_on_c, 15, 38, 52
17, 523664, Note_on_c, 15, 38, 0
17, 523680, Note_on_c, 15, 38, 52
17, 523919, Note_on_c, 15, 38, 0
17, 524400, Note_on_c, 15, 38, 52
17, 524624, Note_on_c, 15, 38, 0
17, 524640, Note_on_c, 15, 38, 52
17, 524879, Note_on_c, 15, 38, 0
17, 525360, Note_on_c, 15, 38, 52
17, 525584, Note_on_c, 15, 38, 0
17, 525600, Note_on_c, 15, 38, 52
17, 525839, Note_on_c, 15, 38, 0
17, 526072, Control_c, 15, 11, 64
17, 526080, Control_c, 15, 11, 64
17, 526080, Note_on_c, 15, 38, 76
17, 526248, Control_c, 15, 11, 65
17, 526415, Control_c, 15, 11, 66
17, 526439, Note_on_c, 15, 38, 0
17, 526560, Note_on_c, 15, 39, 76
17, 526583, Control_c, 15, 11, 67
17, 526750, Control_c, 15, 11, 68
17, 526918, Control_c, 15, 11, 69
17, 526919, Note_on_c, 15, 39, 0
17, 527040, Note_on_c, 15, 36, 76
17, 527086, Control_c, 15, 11, 70
17, 527253, Control_c, 15, 11, 71
17, 527399, Note_on_c, 15, 36, 0
17, 527421, Control_c, 15, 11, 72
17, 527520, Note_on_c, 15, 40, 76
17, 527589, Control_c, 15, 11, 73
17, 527756, Control_c, 15, 11, 74
17, 527879, Note_on_c, 15, 40, 0
17, 527924, Control_c, 15, 11, 75
17, 528000, Note_on_c, 15, 41, 76
17, 528091, Control_c, 15, 11, 76
17, 528259, Control_c, 15, 11, 77
17, 528359, Note_on_c, 15, 41, 0
17, 528427, Control_c, 15, 11, 78
17, 528480, Note_on_c, 15, 38, 76
17, 528594, Control_c, 15, 11, 79
17, 528762, Control_c, 15, 11, 80
17, 528839, Note_on_c, 15, 38, 0
17, 528930, Control_c, 15, 11, 81
17, 528960, Note_on_c, 15, 41, 76
17, 529097, Control_c, 15, 11, 82
17, 529265, Control_c, 15, 11, 83
17, 529319, Note_on_c, 15, 41, 0
17, 529432, Control_c, 15, 11, 84
17, 529440, Note_on_c, 15, 43, 76
17, 529600, Control_c, 15, 11, 85
17, 529768, Control_c, 15, 11, 86
17, 529799, Note_on_c, 15, 43, 0
17, 529920, Note_on_c, 15, 39, 76
17, 529935, Control_c, 15, 11, 87
17, 530103, Control_c, 15, 11, 88
17, 530270, Control_c, 15, 11, 89
17, 530279, Note_on_c, 15, 39, 0
17, 530400, Note_on_c, 15, 43, 76
17, 530438, Control_c, 15, 11, 90
17, 530606, Control_c, 15, 11, 91
17, 530759, Note_on_c, 15, 43, 0
17, 530773, Control_c, 15, 11, 92
17, 530880, Note_on_c, 15, 45, 76
17, 530941, Control_c, 15, 11, 93
17, 531109, Control_c, 15, 11, 94
17, 531239, Note_on_c, 15, 45, 0
17, 531276, Control_c, 15, 11, 95
17, 531360, Note_on_c, 15, 41, 76
17, 531444, Control_c, 15, 11, 96
17, 531611, Control_c, 15, 11, 97
17, 531719, Note_on_c, 15, 41, 0
17, 531779, Control_c, 15, 11, 98
17, 531840, Note_on_c, 15, 45, 76
17, 531947, Control_c, 15, 11, 99
17, 532114, Control_c, 15, 11, 100
17, 532199, Note_on_c, 15, 45, 0
17, 532282, Control_c, 15, 11, 101
17, 532320, Note_on_c, 15, 46, 76
17, 532450, Control_c, 15, 11, 102
17, 532617, Control_c, 15, 11, 103
17, 532679, Note_on_c, 15, 46, 0
17, 532785, Control_c, 15, 11, 104
17, 532800, Note_on_c, 15, 43, 76
17, 532952, Control_c, 15, 11, 105
17, 533120, Control_c, 15, 11, 106
17, 533159, Note_on_c, 15, 43, 0
17, 533280, Note_on_c, 15, 47, 76
17, 533288, Control_c, 15, 11, 107
17, 533455, Control_c, 15, 11, 108
17, 533623, Control_c, 15, 11, 109
17, 533639, Note_on_c, 15, 47, 0
17, 533760, Note_on_c, 15, 48, 76
17, 533790, Control_c, 15, 11, 110
17, 533958, Control_c, 15, 11, 111
17, 534119, Note_on_c, 15, 48, 0
17, 534126, Control_c, 15, 11, 112
17, 534240, Note_on_c, 15, 45, 76
17, 534293, Control_c, 15, 11, 113
17, 534461, Control_c, 15, 11, 114
17, 534599, Note_on_c, 15, 45, 0
17, 534629, Control_c, 15, 11, 115
17, 534720, Note_on_c, 15, 48, 76
17, 534796, Control_c, 15, 11, 116
17, 534964, Control_c, 15, 11, 117
17, 535079, Note_on_c, 15, 48, 0
17, 535131, Control_c, 15, 11, 118
17, 535200, Note_on_c, 15, 50, 76
17, 535299, Control_c, 15, 11, 119
17, 535467, Control_c, 15, 11, 120
17, 535559, Note_on_c, 15, 50, 0
17, 535634, Control_c, 15, 11, 121
17, 535680, Note_on_c, 15, 51, 76
17, 535802, Control_c, 15, 11, 122
17, 535970, Control_c, 15, 11, 123
17, 536039, Note_on_c, 15, 51, 0
17, 536137, Control_c, 15, 11, 124
17, 536160, Note_on_c, 15, 52, 76
17, 536305, Control_c, 15, 11, 125
17, 536472, Control_c, 15, 11, 127
17, 536519, Note_on_c, 15, 52, 0
17, 536640, Note_on_c, 15, 53, 76
17, 536999, Note_on_c, 15, 53, 0
17, 537120, Note_on_c, 15, 51, 76
17, 537479, Note_on_c, 15, 51, 0
17, 537600, Note_on_c, 15, 48, 76
17, 537959, Note_on_c, 15, 48, 0
17, 538080, Note_on_c, 15, 45, 76
17, 538439, Note_on_c, 15, 45, 0
17, 538560, Note_on_c, 15, 41, 76
17, 538919, Note_on_c, 15, 41, 0
17, 539040, Note_on_c, 15, 39, 76
17, 539399, Note_on_c, 15, 39, 0
17, 539520, Note_on_c, 15, 38, 76
17, 540224, Note_on_c, 15, 38, 0
17, 540240, Note_on_c, 15, 34, 76
17, 540464, Note_on_c, 15, 34, 0
17, 540480, Note_on_c, 15, 39, 76
17, 541184, Note_on_c, 15, 39, 0
17, 541200, Note_on_c, 15, 36, 76
17, 541424, Note_on_c, 15, 36, 0
17, 541440, Note_on_c, 15, 41, 76
17, 542144, Note_on_c, 15, 41, 0
17, 542160, Note_on_c, 15, 41, 76
17, 542384, Note_on_c, 15, 41, 0
17, 542400, Note_on_c, 15, 39, 76
17, 542624, Note_on_c, 15, 39, 0
17, 542640, Note_on_c, 15, 39, 76
17, 542864, Note_on_c, 15, 39, 0
17, 542880, Note_on_c, 15, 39, 76
17, 543104, Note_on_c, 15, 39, 0
17, 543120, Note_on_c, 15, 39, 76
17, 543344, Note_on_c, 15, 39, 0
17, 543360, Note_on_c, 15, 38, 76
17, 543599, Note_on_c, 15, 38, 0
17, 543600, Note_on_c, 15, 34, 76
17, 543824, Note_on_c, 15, 34, 0
17, 543840, Note_on_c, 15, 39, 76
17, 544079, Note_on_c, 15, 39, 0
17, 544080, Note_on_c, 15, 36, 76
17, 544304, Note_on_c, 15, 36, 0
17, 544320, Note_on_c, 15, 41, 76
17, 544544, Note_on_c, 15, 41, 0
17, 544560, Note_on_c, 15, 41, 76
17, 544784, Note_on_c, 15, 41, 0
17, 544800, Note_on_c, 15, 29, 76
17, 545024, Note_on_c, 15, 29, 0
17, 545040, Note_on_c, 15, 29, 76
17, 545264, Note_on_c, 15, 29, 0
17, 545280, Note_on_c, 15, 34, 52
17, 545519, Note_on_c, 15, 34, 0
17, 552960, Note_on_c, 15, 34, 76
17, 553664, Note_on_c, 15, 34, 0
17, 553680, Note_on_c, 15, 41, 76
17, 553859, Note_on_c, 15, 41, 0
17, 553920, Note_on_c, 15, 38, 76
17, 554159, Note_on_c, 15, 38, 0
17, 554160, Note_on_c, 15, 39, 76
17, 554384, Note_on_c, 15, 39, 0
17, 554400, Note_on_c, 15, 41, 76
17, 554579, Note_on_c, 15, 41, 0
17, 554640, Note_on_c, 15, 29, 76
17, 554819, Note_on_c, 15, 29, 0
17, 554880, Note_on_c, 15, 34, 76
17, 555584, Note_on_c, 15, 34, 0
17, 555600, Note_on_c, 15, 36, 76
17, 555779, Note_on_c, 15, 36, 0
17, 555840, Note_on_c, 15, 38, 76
17, 556079, Note_on_c, 15, 38, 0
17, 556080, Note_on_c, 15, 34, 76
17, 556304, Note_on_c, 15, 34, 0
17, 556320, Note_on_c, 15, 38, 76
17, 556499, Note_on_c, 15, 38, 0
17, 556560, Note_on_c, 15, 39, 76
17, 556739, Note_on_c, 15, 39, 0
17, 556800, Note_on_c, 15, 41, 76
17, 557519, Note_on_c, 15, 41, 0
17, 557520, Note_on_c, 15, 43, 76
17, 557699, Note_on_c, 15, 43, 0
17, 557760, Note_on_c, 15, 45, 76
17, 557999, Note_on_c, 15, 45, 0
17, 558000, Note_on_c, 15, 46, 76
17, 558224, Note_on_c, 15, 46, 0
17, 558240, Note_on_c, 15, 48, 76
17, 558419, Note_on_c, 15, 48, 0
17, 558480, Note_on_c, 15, 46, 76
17, 558659, Note_on_c, 15, 46, 0
17, 558720, Note_on_c, 15, 45, 76
17, 559424, Note_on_c, 15, 45, 0
17, 559440, Note_on_c, 15, 43, 76
17, 559619, Note_on_c, 15, 43, 0
17, 559680, Note_on_c, 15, 41, 76
17, 559919, Note_on_c, 15, 41, 0
17, 559920, Note_on_c, 15, 43, 76
17, 560144, Note_on_c, 15, 43, 0
17, 560160, Note_on_c, 15, 39, 76
17, 560339, Note_on_c, 15, 39, 0
17, 560400, Note_on_c, 15, 36, 76
17, 560579, Note_on_c, 15, 36, 0
17, 560640, Note_on_c, 15, 33, 76
17, 560879, Note_on_c, 15, 33, 0
17, 564480, Note_on_c, 15, 34, 84
17, 564719, Note_on_c, 15, 34, 0
17, 565200, Note_on_c, 15, 43, 84
17, 565424, Note_on_c, 15, 43, 0
17, 565440, Note_on_c, 15, 39, 84
17, 565679, Note_on_c, 15, 39, 0
17, 565920, Note_on_c, 15, 41, 84
17, 566159, Note_on_c, 15, 41, 0
17, 568320, Note_on_c, 15, 34, 84
17, 568559, Note_on_c, 15, 34, 0
17, 569040, Note_on_c, 15, 43, 84
17, 569264, Note_on_c, 15, 43, 0
17, 569280, Note_on_c, 15, 39, 84
17, 569519, Note_on_c, 15, 39, 0
17, 569760, Note_on_c, 15, 41, 84
17, 569999, Note_on_c, 15, 41, 0
17, 572160, Note_on_c, 15, 34, 76
17, 573104, Note_on_c, 15, 34, 0
17, 573120, Note_on_c, 15, 34, 76
17, 574064, Note_on_c, 15, 34, 0
17, 574080, Note_on_c, 15, 34, 76
17, 575024, Note_on_c, 15, 34, 0
17, 575040, Note_on_c, 15, 34, 76
17, 575984, Note_on_c, 15, 34, 0
17, 576000, Note_on_c, 15, 34, 84
17, 576104, Note_on_c, 15, 34, 0
17, 576120, Note_on_c, 15, 30, 84
17, 576224, Note_on_c, 15, 30, 0
17, 576240, Note_on_c, 15, 30, 84
17, 576344, Note_on_c, 15, 30, 0
17, 576360, Note_on_c, 15, 30, 84
17, 576464, Note_on_c, 15, 30, 0
17, 576480, Note_on_c, 15, 30, 84
17, 576584, Note_on_c, 15, 30, 0
17, 576600, Note_on_c, 15, 30, 84
17, 576704, Note_on_c, 15, 30, 0
17, 576720, Note_on_c, 15, 30, 84
17, 576824, Note_on_c, 15, 30, 0
17, 576840, Note_on_c, 15, 30, 84
17, 576944, Note_on_c, 15, 30, 0
17, 576960, Note_on_c, 15, 30, 84
17, 577064, Note_on_c, 15, 30, 0
17, 577080, Note_on_c, 15, 30, 84
17, 577184, Note_on_c, 15, 30, 0
17, 577200, Note_on_c, 15, 30, 84
17, 577304, Note_on_c, 15, 30, 0
17, 577320, Note_on_c, 15, 30, 84
17, 577424, Note_on_c, 15, 30, 0
17, 577440, Note_on_c, 15, 30, 84
17, 577544, Note_on_c, 15, 30, 0
17, 577560, Note_on_c, 15, 30, 84
17, 577664, Note_on_c, 15, 30, 0
17, 577680, Note_on_c, 15, 30, 84
17, 577784, Note_on_c, 15, 30, 0
17, 577800, Note_on_c, 15, 30, 84
17, 577904, Note_on_c, 15, 30, 0
17, 577920, Note_on_c, 15, 29, 92
17, 578024, Note_on_c, 15, 29, 0
17, 578040, Note_on_c, 15, 29, 84
17, 578144, Note_on_c, 15, 29, 0
17, 578160, Note_on_c, 15, 29, 84
17, 578264, Note_on_c, 15, 29, 0
17, 578280, Note_on_c, 15, 29, 84
17, 578384, Note_on_c, 15, 29, 0
17, 578400, Note_on_c, 15, 29, 84
17, 578504, Note_on_c, 15, 29, 0
17, 578520, Note_on_c, 15, 29, 84
17, 578624, Note_on_c, 15, 29, 0
17, 578640, Note_on_c, 15, 29, 84
17, 578744, Note_on_c, 15, 29, 0
17, 578760, Note_on_c, 15, 29, 84
17, 578864, Note_on_c, 15, 29, 0
17, 578880, Note_on_c, 15, 29, 84
17, 578984, Note_on_c, 15, 29, 0
17, 579000, Note_on_c, 15, 29, 84
17, 579104, Note_on_c, 15, 29, 0
17, 579120, Note_on_c, 15, 29, 84
17, 579224, Note_on_c, 15, 29, 0
17, 579240, Note_on_c, 15, 29, 84
17, 579344, Note_on_c, 15, 29, 0
17, 579360, Note_on_c, 15, 29, 84
17, 579464, Note_on_c, 15, 29, 0
17, 579480, Note_on_c, 15, 29, 84
17, 579584, Note_on_c, 15, 29, 0
17, 579600, Note_on_c, 15, 29, 84
17, 579704, Note_on_c, 15, 29, 0
17, 579720, Note_on_c, 15, 29, 84
17, 579824, Note_on_c, 15, 29, 0
17, 579840, Note_on_c, 15, 34, 84
17, 580079, Note_on_c, 15, 34, 0
17, 582960, Note_on_c, 15, 29, 84
17, 583424, Note_on_c, 15, 29, 0
17, 583440, Note_on_c, 15, 29, 84
17, 583619, Note_on_c, 15, 29, 0
17, 583680, Note_on_c, 15, 34, 84
17, 583859, Note_on_c, 15, 34, 0
17, 586800, Note_on_c, 15, 29, 84
17, 587264, Note_on_c, 15, 29, 0
17, 587280, Note_on_c, 15, 29, 84
17, 587459, Note_on_c, 15, 29, 0
17, 587520, Note_on_c, 15, 34, 84
17, 587699, Note_on_c, 15, 34, 0
17, 588720, Note_on_c, 15, 29, 84
17, 589184, Note_on_c, 15, 29, 0
17, 589200, Note_on_c, 15, 29, 84
17, 589424, Note_on_c, 15, 29, 0
17, 589440, Note_on_c, 15, 29, 84
17, 590399, Note_on_c, 15, 29, 0
17, 590400, Note_on_c, 15, 29, 84
17, 591287, Note_on_c, 15, 29, 0
17, 591300, Note_on_c, 15, 29, 84
17, 591351, Note_on_c, 15, 29, 0
17, 591360, Note_on_c, 15, 29, 84
17, 591599, Note_on_c, 15, 29, 0
17, 592320, Note_on_c, 15, 29, 84
17, 592559, Note_on_c, 15, 29, 0
17, 593280, Note_on_c, 15, 29, 84
17, 593459, Note_on_c, 15, 29, 0
17, 593760, Note_on_c, 15, 29, 84
17, 593939, Note_on_c, 15, 29, 0
17, 594240, Note_on_c, 15, 29, 84
17, 594419, Note_on_c, 15, 29, 0
17, 594720, Note_on_c, 15, 29, 84
17, 594899, Note_on_c, 15, 29, 0
17, 595200, Note_on_c, 15, 34, 84
17, 595379, Note_on_c, 15, 34, 0
17, 595440, Note_on_c, 15, 50, 84
17, 595619, Note_on_c, 15, 50, 0
17, 595680, Note_on_c, 15, 46, 84
17, 595859, Note_on_c, 15, 46, 0
17, 595920, Note_on_c, 15, 50, 84
17, 596099, Note_on_c, 15, 50, 0
17, 596400, Note_on_c, 15, 46, 84
17, 596579, Note_on_c, 15, 46, 0
17, 596640, Note_on_c, 15, 41, 84
17, 596819, Note_on_c, 15, 41, 0
17, 596880, Note_on_c, 15, 46, 84
17, 597059, Note_on_c, 15, 46, 0
17, 597360, Note_on_c, 15, 41, 84
17, 597539, Note_on_c, 15, 41, 0
17, 597600, Note_on_c, 15, 38, 84
17, 597779, Note_on_c, 15, 38, 0
17, 597840, Note_on_c, 15, 41, 84
17, 598019, Note_on_c, 15, 41, 0
17, 598320, Note_on_c, 15, 38, 84
17, 598499, Note_on_c, 15, 38, 0
17, 598560, Note_on_c, 15, 34, 84
17, 598739, Note_on_c, 15, 34, 0
17, 598800, Note_on_c, 15, 38, 84
17, 598979, Note_on_c, 15, 38, 0
17, 599280, Note_on_c, 15, 53, 84
17, 599459, Note_on_c, 15, 53, 0
17, 599520, Note_on_c, 15, 50, 84
17, 599699, Note_on_c, 15, 50, 0
17, 599760, Note_on_c, 15, 53, 84
17, 599939, Note_on_c, 15, 53, 0
17, 600240, Note_on_c, 15, 50, 84
17, 600419, Note_on_c, 15, 50, 0
17, 600480, Note_on_c, 15, 46, 84
17, 600659, Note_on_c, 15, 46, 0
17, 600720, Note_on_c, 15, 50, 84
17, 600899, Note_on_c, 15, 50, 0
17, 601200, Note_on_c, 15, 46, 84
17, 601379, Note_on_c, 15, 46, 0
17, 601440, Note_on_c, 15, 41, 84
17, 601619, Note_on_c, 15, 41, 0
17, 601680, Note_on_c, 15, 46, 84
17, 601859, Note_on_c, 15, 46, 0
17, 602160, Note_on_c, 15, 41, 84
17, 602339, Note_on_c, 15, 41, 0
17, 602400, Note_on_c, 15, 38, 84
17, 602579, Note_on_c, 15, 38, 0
17, 602640, Note_on_c, 15, 41, 84
17, 602819, Note_on_c, 15, 41, 0
17, 602880, Note_on_c, 15, 34, 52
17, 603119, Note_on_c, 15, 34, 0
17, 604800, Note_on_c, 15, 29, 76
17, 605744, Note_on_c, 15, 29, 0
17, 605760, Note_on_c, 15, 29, 76
17, 606647, Note_on_c, 15, 29, 0
17, 606660, Note_on_c, 15, 29, 76
17, 606711, Note_on_c, 15, 29, 0
17, 606720, Note_on_c, 15, 34, 76
17, 606959, Note_on_c, 15, 34, 0
17, 608640, Note_on_c, 15, 29, 76
17, 609584, Note_on_c, 15, 29, 0
17, 609600, Note_on_c, 15, 29, 76
17, 610487, Note_on_c, 15, 29, 0
17, 610500, Note_on_c, 15, 29, 76
17, 610551, Note_on_c, 15, 29, 0
17, 610558, Control_c, 15, 11, 64
17, 610560, Note_on_c, 15, 34, 84
17, 610560, Control_c, 15, 11, 64
17, 610682, Control_c, 15, 11, 65
17, 610739, Note_on_c, 15, 34, 0
17, 610800, Note_on_c, 15, 53, 84
17, 610804, Control_c, 15, 11, 66
17, 610926, Control_c, 15, 11, 67
17, 611039, Note_on_c, 15, 53, 0
17, 611040, Note_on_c, 15, 51, 84
17, 611048, Control_c, 15, 11, 68
17, 611170, Control_c, 15, 11, 69
17, 611279, Note_on_c, 15, 51, 0
17, 611280, Note_on_c, 15, 50, 84
17, 611291, Control_c, 15, 11, 70
17, 611413, Control_c, 15, 11, 71
17, 611519, Note_on_c, 15, 50, 0
17, 611520, Note_on_c, 15, 48, 84
17, 611535, Control_c, 15, 11, 72
17, 611657, Control_c, 15, 11, 73
17, 611759, Note_on_c, 15, 48, 0
17, 611760, Note_on_c, 15, 46, 84
17, 611779, Control_c, 15, 11, 74
17, 611901, Control_c, 15, 11, 75
17, 611999, Note_on_c, 15, 46, 0
17, 612000, Note_on_c, 15, 45, 84
17, 612023, Control_c, 15, 11, 76
17, 612145, Control_c, 15, 11, 77
17, 612239, Note_on_c, 15, 45, 0
17, 612240, Note_on_c, 15, 46, 84
17, 612267, Control_c, 15, 11, 78
17, 612389, Control_c, 15, 11, 79
17, 612464, Note_on_c, 15, 46, 0
17, 612480, Note_on_c, 15, 41, 84
17, 612510, Control_c, 15, 11, 80
17, 612632, Control_c, 15, 11, 81
17, 612659, Note_on_c, 15, 41, 0
17, 612720, Note_on_c, 15, 48, 84
17, 612754, Control_c, 15, 11, 82
17, 612876, Control_c, 15, 11, 83
17, 612959, Note_on_c, 15, 48, 0
17, 612960, Note_on_c, 15, 46, 84
17, 612998, Control_c, 15, 11, 84
17, 613120, Control_c, 15, 11, 85
17, 613199, Note_on_c, 15, 46, 0
17, 613200, Note_on_c, 15, 45, 84
17, 613242, Control_c, 15, 11, 86
17, 613364, Control_c, 15, 11, 87
17, 613439, Note_on_c, 15, 45, 0
17, 613440, Note_on_c, 15, 43, 84
17, 613486, Control_c, 15, 11, 88
17, 613608, Control_c, 15, 11, 89
17, 613679, Note_on_c, 15, 43, 0
17, 613680, Note_on_c, 15, 41, 84
17, 613730, Control_c, 15, 11, 90
17, 613851, Control_c, 15, 11, 91
17, 613919, Note_on_c, 15, 41, 0
17, 613920, Note_on_c, 15, 40, 84
17, 613973, Control_c, 15, 11, 92
17, 614095, Control_c, 15, 11, 93
17, 614159, Note_on_c, 15, 40, 0
17, 614160, Note_on_c, 15, 41, 84
17, 614217, Control_c, 15, 11, 94
17, 614339, Control_c, 15, 11, 95
17, 614384, Note_on_c, 15, 41, 0
17, 614400, Note_on_c, 15, 34, 84
17, 614461, Control_c, 15, 11, 96
17, 614579, Note_on_c, 15, 34, 0
17, 614583, Control_c, 15, 11, 97
17, 614640, Note_on_c, 15, 41, 84
17, 614705, Control_c, 15, 11, 98
17, 614827, Control_c, 15, 11, 99
17, 614879, Note_on_c, 15, 41, 0
17, 614880, Note_on_c, 15, 39, 84
17, 614949, Control_c, 15, 11, 100
17, 615070, Control_c, 15, 11, 101
17, 615119, Note_on_c, 15, 39, 0
17, 615120, Note_on_c, 15, 38, 84
17, 615192, Control_c, 15, 11, 102
17, 615314, Control_c, 15, 11, 103
17, 615359, Note_on_c, 15, 38, 0
17, 615360, Note_on_c, 15, 36, 84
17, 615436, Control_c, 15, 11, 104
17, 615558, Control_c, 15, 11, 105
17, 615599, Note_on_c, 15, 36, 0
17, 615600, Note_on_c, 15, 34, 84
17, 615680, Control_c, 15, 11, 106
17, 615802, Control_c, 15, 11, 107
17, 615839, Note_on_c, 15, 34, 0
17, 615840, Note_on_c, 15, 33, 84
17, 615924, Control_c, 15, 11, 108
17, 616046, Control_c, 15, 11, 109
17, 616079, Note_on_c, 15, 33, 0
17, 616080, Note_on_c, 15, 34, 84
17, 616168, Control_c, 15, 11, 110
17, 616290, Control_c, 15, 11, 111
17, 616304, Note_on_c, 15, 34, 0
17, 616320, Note_on_c, 15, 29, 84
17, 616411, Control_c, 15, 11, 112
17, 616499, Note_on_c, 15, 29, 0
17, 616533, Control_c, 15, 11, 113
17, 616560, Note_on_c, 15, 36, 84
17, 616655, Control_c, 15, 11, 114
17, 616777, Control_c, 15, 11, 115
17, 616799, Note_on_c, 15, 36, 0
17, 616800, Note_on_c, 15, 34, 84
17, 616899, Control_c, 15, 11, 116
17, 617021, Control_c, 15, 11, 117
17, 617039, Note_on_c, 15, 34, 0
17, 617040, Note_on_c, 15, 33, 84
17, 617143, Control_c, 15, 11, 118
17, 617265, Control_c, 15, 11, 119
17, 617279, Note_on_c, 15, 33, 0
17, 617280, Note_on_c, 15, 31, 84
17, 617387, Control_c, 15, 11, 120
17, 617509, Control_c, 15, 11, 121
17, 617519, Note_on_c, 15, 31, 0
17, 617520, Note_on_c, 15, 29, 84
17, 617630, Control_c, 15, 11, 122
17, 617752, Control_c, 15, 11, 123
17, 617759, Note_on_c, 15, 29, 0
17, 617760, Note_on_c, 15, 28, 84
17, 617874, Control_c, 15, 11, 124
17, 617996, Control_c, 15, 11, 125
17, 617999, Note_on_c, 15, 28, 0
17, 618000, Note_on_c, 15, 29, 84
17, 618118, Control_c, 15, 11, 127
17, 618224, Note_on_c, 15, 29, 0
17, 618240, Note_on_c, 15, 34, 84
17, 618344, Note_on_c, 15, 34, 0
17, 618360, Note_on_c, 15, 34, 84
17, 618464, Note_on_c, 15, 34, 0
17, 618480, Note_on_c, 15, 34, 84
17, 618584, Note_on_c, 15, 34, 0
17, 618600, Note_on_c, 15, 34, 84
17, 618704, Note_on_c, 15, 34, 0
17, 618720, Note_on_c, 15, 34, 84
17, 618824, Note_on_c, 15, 34, 0
17, 618840, Note_on_c, 15, 34, 84
17, 618944, Note_on_c, 15, 34, 0
17, 618960, Note_on_c, 15, 34, 84
17, 619064, Note_on_c, 15, 34, 0
17, 619080, Note_on_c, 15, 34, 84
17, 619184, Note_on_c, 15, 34, 0
17, 619200, Note_on_c, 15, 34, 84
17, 619304, Note_on_c, 15, 34, 0
17, 619320, Note_on_c, 15, 34, 84
17, 619424, Note_on_c, 15, 34, 0
17, 619440, Note_on_c, 15, 34, 84
17, 619544, Note_on_c, 15, 34, 0
17, 619560, Note_on_c, 15, 34, 84
17, 619664, Note_on_c, 15, 34, 0
17, 619680, Note_on_c, 15, 34, 84
17, 619784, Note_on_c, 15, 34, 0
17, 619800, Note_on_c, 15, 34, 84
17, 619904, Note_on_c, 15, 34, 0
17, 619920, Note_on_c, 15, 34, 84
17, 620024, Note_on_c, 15, 34, 0
17, 620040, Note_on_c, 15, 34, 84
17, 620144, Note_on_c, 15, 34, 0
17, 620160, Note_on_c, 15, 34, 84
17, 620264, Note_on_c, 15, 34, 0
17, 620280, Note_on_c, 15, 34, 84
17, 620384, Note_on_c, 15, 34, 0
17, 620400, Note_on_c, 15, 34, 84
17, 620504, Note_on_c, 15, 34, 0
17, 620520, Note_on_c, 15, 34, 84
17, 620624, Note_on_c, 15, 34, 0
17, 620640, Note_on_c, 15, 34, 84
17, 620744, Note_on_c, 15, 34, 0
17, 620760, Note_on_c, 15, 34, 84
17, 620864, Note_on_c, 15, 34, 0
17, 620880, Note_on_c, 15, 34, 84
17, 620984, Note_on_c, 15, 34, 0
17, 621000, Note_on_c, 15, 34, 84
17, 621104, Note_on_c, 15, 34, 0
17, 621120, Note_on_c, 15, 34, 84
17, 621224, Note_on_c, 15, 34, 0
17, 621240, Note_on_c, 15, 34, 84
17, 621344, Note_on_c, 15, 34, 0
17, 621360, Note_on_c, 15, 34, 84
17, 621464, Note_on_c, 15, 34, 0
17, 621480, Note_on_c, 15, 34, 84
17, 621584, Note_on_c, 15, 34, 0
17, 621600, Note_on_c, 15, 34, 84
17, 621704, Note_on_c, 15, 34, 0
17, 621720, Note_on_c, 15, 34, 84
17, 621824, Note_on_c, 15, 34, 0
17, 621840, Note_on_c, 15, 34, 84
17, 621944, Note_on_c, 15, 34, 0
17, 621960, Note_on_c, 15, 41, 84
17, 621999, Note_on_c, 15, 41, 0
17, 622000, Note_on_c, 15, 43, 84
17, 622039, Note_on_c, 15, 43, 0
17, 622040, Note_on_c, 15, 45, 84
17, 622071, Note_on_c, 15, 45, 0
17, 622080, Note_on_c, 15, 46, 84
17, 622319, Note_on_c, 15, 46, 0
17, 622440, Note_on_c, 15, 41, 84
17, 622479, Note_on_c, 15, 41, 0
17, 622480, Note_on_c, 15, 43, 84
17, 622519, Note_on_c, 15, 43, 0
17, 622520, Note_on_c, 15, 45, 84
17, 622551, Note_on_c, 15, 45, 0
17, 622560, Note_on_c, 15, 46, 84
17, 622799, Note_on_c, 15, 46, 0
17, 622920, Note_on_c, 15, 41, 84
17, 622959, Note_on_c, 15, 41, 0
17, 622960, Note_on_c, 15, 43, 84
17, 622999, Note_on_c, 15, 43, 0
17, 623000, Note_on_c, 15, 45, 84
17, 623031, Note_on_c, 15, 45, 0
17, 623040, Note_on_c, 15, 46, 84
17, 623279, Note_on_c, 15, 46, 0
17, 624000, Note_on_c, 15, 34, 84
17, 624239, Note_on_c, 15, 34, 0
17, 624960, Note_on_c, 15, 34, 84
17, 625199, Note_on_c, 15, 34, 0
17, 625199, End_track
18, 0, Start_track
18, 0, Title_t, "Ludwig van Beethoven - Symphony No. 4, Op.60 - No. 1 Adagio--Allegro vivace"
18, 0, MIDI_port, 0
18, 0, End_track
0, 0, End_of_file
