0, 0, Header, 1, 18, 240
1, 0, Start_track
1, 0, Sequencer_specific, 10, 0, 0, 91, 35, 1, 0, 5, 6, 42, 0
1, 0, Title_t, "Ludwig van Beethoven - Symphony No. 5 in C minor, Op.67"
1, 0, Instrument_name_t, "Conductor Track"
1, 0, SMPTE_offset, 96, 0, 3, 0, 0
1, 0, MIDI_port, 0
1, 0, Key_signature, -3, "minor"
1, 0, Tempo, 277777
1, 0, Time_signature, 2, 2, 24, 8
1, 480, Tempo, 1000000
1, 960, Tempo, 277777
1, 1920, Tempo, 1000000
1, 2400, Tempo, 277777
1, 9840, Tempo, 1000000
1, 10080, Tempo, 277777
1, 11040, Tempo, 1000000
1, 11520, Tempo, 277777
1, 60000, Tempo, 1000000
1, 60480, Tempo, 277777
1, 61440, Tempo, 1000000
1, 61920, Tempo, 277777
1, 69360, Tempo, 1000000
1, 69600, Tempo, 277777
1, 70560, Tempo, 1000000
1, 71040, Tempo, 277777
1, 120480, Tempo, 1000000
1, 120960, Tempo, 277777
1, 178080, Tempo, 277777
1, 178180, Tempo, 280373
1, 178280, Tempo, 281690
1, 178380, Tempo, 284360
1, 178480, Tempo, 287081
1, 178560, Tempo, 333333
1, 178560, Time_signature, 6, 2, 72, 8
1, 180000, Time_signature, 2, 2, 24, 8
1, 180080, Tempo, 327868
1, 180180, Tempo, 331491
1, 180280, Tempo, 335195
1, 180380, Tempo, 337078
1, 180480, Tempo, 340909
1, 180960, Time_signature, 6, 2, 72, 8
1, 182400, Time_signature, 2, 2, 24, 8
1, 182400, Tempo, 277777
1, 189600, Time_signature, 10, 2, 24, 8
1, 189840, Tempo, 2000000
1, 190080, Tempo, 652173
1, 191040, Tempo, 789473
1, 191280, Tempo, 882352
1, 191520, Tempo, 1500000
1, 192000, Time_signature, 2, 2, 24, 8
1, 192120, Tempo, 277777
1, 292800, Time_signature, 6, 2, 72, 8
1, 292800, Tempo, 277777
1, 292900, Tempo, 280373
1, 293000, Tempo, 281690
1, 293100, Tempo, 284360
1, 293200, Tempo, 287081
1, 293280, Tempo, 333333
1, 294240, Time_signature, 2, 2, 24, 8
1, 294800, Tempo, 327868
1, 294900, Tempo, 331491
1, 295000, Tempo, 335195
1, 295100, Tempo, 337078
1, 295200, Tempo, 340909
1, 295200, Time_signature, 6, 2, 72, 8
1, 296640, Tempo, 277777
1, 296640, Time_signature, 2, 2, 24, 8
1, 306000, Tempo, 1000000
1, 307440, Tempo, 1304347
1, 307440, End_track
2, 0, Start_track
2, 0, Title_t, "1st Movement - Allegro con brio"
2, 0, MIDI_port, 0
2, 0, End_track
3, 0, Start_track
3, 0, Title_t, "Sequenced by D. L. Viens 17 Jun 2000"
3, 0, MIDI_port, 0
3, 0, End_track
4, 0, Start_track
4, 0, Title_t, "dlviens@empire.net"
4, 0, MIDI_port, 0
4, 0, End_track
5, 0, Start_track
5, 0, MIDI_port, 0
5, 0, End_track
6, 0, Start_track
6, 0, Title_t, "Flute"
6, 0, MIDI_port, 0
6, 0, Program_c, 0, 73
6, 0, Control_c, 0, 7, 72
6, 0, Control_c, 0, 10, 60
6, 0, Control_c, 0, 11, 127
6, 8280, Note_on_c, 0, 91, 58
6, 8280, Note_on_c, 0, 86, 58
6, 8379, Note_on_c, 0, 91, 0
6, 8379, Note_on_c, 0, 86, 0
6, 8400, Note_on_c, 0, 91, 64
6, 8400, Note_on_c, 0, 86, 64
6, 8499, Note_on_c, 0, 91, 0
6, 8499, Note_on_c, 0, 86, 0
6, 8520, Note_on_c, 0, 89, 70
6, 8520, Note_on_c, 0, 86, 70
6, 8619, Note_on_c, 0, 89, 0
6, 8619, Note_on_c, 0, 86, 0
6, 8640, Note_on_c, 0, 87, 76
6, 8640, Note_on_c, 0, 84, 76
6, 8879, Note_on_c, 0, 87, 0
6, 8879, Note_on_c, 0, 84, 0
6, 9120, Note_on_c, 0, 84, 76
6, 9359, Note_on_c, 0, 84, 0
6, 9600, Note_on_c, 0, 91, 76
6, 9600, Note_on_c, 0, 83, 76
6, 9839, Note_on_c, 0, 91, 0
6, 9839, Note_on_c, 0, 83, 0
6, 10200, Note_on_c, 0, 80, 84
6, 10299, Note_on_c, 0, 80, 0
6, 10320, Note_on_c, 0, 80, 84
6, 10419, Note_on_c, 0, 80, 0
6, 10440, Note_on_c, 0, 80, 84
6, 10539, Note_on_c, 0, 80, 0
6, 10560, Note_on_c, 0, 77, 84
6, 11519, Note_on_c, 0, 77, 0
6, 18240, Note_on_c, 0, 84, 76
6, 18479, Note_on_c, 0, 84, 0
6, 18720, Note_on_c, 0, 84, 76
6, 18959, Note_on_c, 0, 84, 0
6, 19200, Note_on_c, 0, 84, 76
6, 19439, Note_on_c, 0, 84, 0
6, 19680, Note_on_c, 0, 84, 76
6, 19919, Note_on_c, 0, 84, 0
6, 20160, Note_on_c, 0, 83, 76
6, 20160, Note_on_c, 0, 86, 76
6, 20399, Note_on_c, 0, 83, 0
6, 20399, Note_on_c, 0, 86, 0
6, 20640, Note_on_c, 0, 84, 76
6, 20640, Note_on_c, 0, 87, 76
6, 22539, Note_on_c, 0, 84, 0
6, 22539, Note_on_c, 0, 87, 0
6, 22560, Note_on_c, 0, 86, 76
6, 22560, Note_on_c, 0, 89, 76
6, 24219, Note_on_c, 0, 86, 0
6, 24219, Note_on_c, 0, 89, 0
6, 24240, Note_on_c, 0, 84, 76
6, 24240, Note_on_c, 0, 87, 76
6, 24459, Note_on_c, 0, 84, 0
6, 24459, Note_on_c, 0, 87, 0
6, 24480, Note_on_c, 0, 84, 84
6, 24480, Note_on_c, 0, 87, 84
6, 26379, Note_on_c, 0, 84, 0
6, 26379, Note_on_c, 0, 87, 0
6, 26400, Note_on_c, 0, 90, 84
6, 26400, Note_on_c, 0, 81, 84
6, 26639, Note_on_c, 0, 90, 0
6, 26639, Note_on_c, 0, 81, 0
6, 27360, Note_on_c, 0, 82, 84
6, 27599, Note_on_c, 0, 82, 0
6, 33600, Note_on_c, 0, 82, 52
6, 33839, Note_on_c, 0, 82, 0
6, 33840, Note_on_c, 0, 87, 52
6, 34079, Note_on_c, 0, 87, 0
6, 34080, Note_on_c, 0, 86, 52
6, 34319, Note_on_c, 0, 86, 0
6, 34320, Note_on_c, 0, 87, 52
6, 34559, Note_on_c, 0, 87, 0
6, 34560, Note_on_c, 0, 89, 52
6, 34799, Note_on_c, 0, 89, 0
6, 34800, Note_on_c, 0, 84, 52
6, 35019, Note_on_c, 0, 84, 0
6, 35040, Note_on_c, 0, 84, 52
6, 35279, Note_on_c, 0, 84, 0
6, 35280, Note_on_c, 0, 82, 52
6, 35519, Note_on_c, 0, 82, 0
6, 43140, Control_c, 0, 11, 107
6, 43200, Note_on_c, 0, 87, 84
6, 43240, Control_c, 0, 11, 109
6, 43340, Control_c, 0, 11, 110
6, 43439, Note_on_c, 0, 87, 0
6, 43440, Control_c, 0, 11, 111
6, 43440, Note_on_c, 0, 89, 84
6, 43540, Control_c, 0, 11, 113
6, 43640, Control_c, 0, 11, 114
6, 43679, Note_on_c, 0, 89, 0
6, 43680, Note_on_c, 0, 90, 84
6, 43740, Control_c, 0, 11, 115
6, 43840, Control_c, 0, 11, 117
6, 43919, Note_on_c, 0, 90, 0
6, 43920, Note_on_c, 0, 89, 84
6, 43940, Control_c, 0, 11, 118
6, 44040, Control_c, 0, 11, 119
6, 44140, Control_c, 0, 11, 120
6, 44159, Note_on_c, 0, 89, 0
6, 44160, Note_on_c, 0, 90, 84
6, 44240, Control_c, 0, 11, 122
6, 44340, Control_c, 0, 11, 123
6, 44399, Note_on_c, 0, 90, 0
6, 44400, Note_on_c, 0, 90, 84
6, 44440, Control_c, 0, 11, 124
6, 44540, Control_c, 0, 11, 126
6, 44639, Note_on_c, 0, 90, 0
6, 44640, Control_c, 0, 11, 127
6, 44640, Note_on_c, 0, 82, 84
6, 44640, Note_on_c, 0, 89, 84
6, 45339, Note_on_c, 0, 82, 0
6, 45339, Note_on_c, 0, 89, 0
6, 45360, Note_on_c, 0, 82, 84
6, 45360, Note_on_c, 0, 89, 84
6, 45579, Note_on_c, 0, 82, 0
6, 45579, Note_on_c, 0, 89, 0
6, 45600, Note_on_c, 0, 91, 84
6, 45600, Note_on_c, 0, 82, 84
6, 45839, Note_on_c, 0, 91, 0
6, 45839, Note_on_c, 0, 82, 0
6, 46080, Note_on_c, 0, 82, 84
6, 46080, Note_on_c, 0, 89, 84
6, 46319, Note_on_c, 0, 82, 0
6, 46319, Note_on_c, 0, 89, 0
6, 46560, Note_on_c, 0, 87, 84
6, 46560, Note_on_c, 0, 82, 84
6, 46799, Note_on_c, 0, 87, 0
6, 46799, Note_on_c, 0, 82, 0
6, 47040, Note_on_c, 0, 87, 84
6, 47040, Note_on_c, 0, 84, 84
6, 47279, Note_on_c, 0, 87, 0
6, 47279, Note_on_c, 0, 84, 0
6, 47520, Note_on_c, 0, 87, 84
6, 47520, Note_on_c, 0, 82, 84
6, 47759, Note_on_c, 0, 87, 0
6, 47759, Note_on_c, 0, 82, 0
6, 48000, Note_on_c, 0, 82, 84
6, 48000, Note_on_c, 0, 86, 84
6, 48239, Note_on_c, 0, 82, 0
6, 48239, Note_on_c, 0, 86, 0
6, 48480, Note_on_c, 0, 82, 84
6, 48480, Note_on_c, 0, 89, 84
6, 49419, Note_on_c, 0, 82, 0
6, 49419, Note_on_c, 0, 89, 0
6, 49440, Note_on_c, 0, 91, 84
6, 49440, Note_on_c, 0, 82, 84
6, 49659, Note_on_c, 0, 91, 0
6, 49659, Note_on_c, 0, 82, 0
6, 49680, Note_on_c, 0, 82, 84
6, 49680, Note_on_c, 0, 91, 84
6, 49919, Note_on_c, 0, 82, 0
6, 49919, Note_on_c, 0, 91, 0
6, 50160, Note_on_c, 0, 82, 84
6, 50160, Note_on_c, 0, 86, 84
6, 50399, Note_on_c, 0, 82, 0
6, 50399, Note_on_c, 0, 86, 0
6, 50640, Note_on_c, 0, 87, 84
6, 50640, Note_on_c, 0, 82, 84
6, 50879, Note_on_c, 0, 87, 0
6, 50879, Note_on_c, 0, 82, 0
6, 51120, Note_on_c, 0, 80, 84
6, 51120, Note_on_c, 0, 87, 84
6, 51359, Note_on_c, 0, 80, 0
6, 51359, Note_on_c, 0, 87, 0
6, 51600, Note_on_c, 0, 87, 84
6, 51600, Note_on_c, 0, 82, 84
6, 51839, Note_on_c, 0, 87, 0
6, 51839, Note_on_c, 0, 82, 0
6, 52080, Note_on_c, 0, 82, 84
6, 52080, Note_on_c, 0, 86, 84
6, 52299, Note_on_c, 0, 82, 0
6, 52299, Note_on_c, 0, 86, 0
6, 52320, Note_on_c, 0, 82, 84
6, 52320, Note_on_c, 0, 87, 84
6, 52419, Note_on_c, 0, 82, 0
6, 52419, Note_on_c, 0, 87, 0
6, 52440, Note_on_c, 0, 91, 84
6, 52539, Note_on_c, 0, 91, 0
6, 52560, Note_on_c, 0, 91, 84
6, 52659, Note_on_c, 0, 91, 0
6, 52680, Note_on_c, 0, 91, 84
6, 52779, Note_on_c, 0, 91, 0
6, 52800, Note_on_c, 0, 87, 84
6, 52899, Note_on_c, 0, 87, 0
6, 52920, Note_on_c, 0, 82, 84
6, 53019, Note_on_c, 0, 82, 0
6, 53040, Note_on_c, 0, 82, 84
6, 53139, Note_on_c, 0, 82, 0
6, 53160, Note_on_c, 0, 82, 84
6, 53259, Note_on_c, 0, 82, 0
6, 53280, Note_on_c, 0, 79, 84
6, 53379, Note_on_c, 0, 79, 0
6, 53400, Note_on_c, 0, 75, 84
6, 53499, Note_on_c, 0, 75, 0
6, 53520, Note_on_c, 0, 75, 84
6, 53619, Note_on_c, 0, 75, 0
6, 53640, Note_on_c, 0, 75, 84
6, 53739, Note_on_c, 0, 75, 0
6, 53760, Note_on_c, 0, 70, 84
6, 54339, Note_on_c, 0, 70, 0
6, 54360, Note_on_c, 0, 91, 84
6, 54459, Note_on_c, 0, 91, 0
6, 54480, Note_on_c, 0, 91, 84
6, 54579, Note_on_c, 0, 91, 0
6, 54600, Note_on_c, 0, 91, 84
6, 54699, Note_on_c, 0, 91, 0
6, 54720, Note_on_c, 0, 87, 84
6, 54819, Note_on_c, 0, 87, 0
6, 54840, Note_on_c, 0, 82, 84
6, 54939, Note_on_c, 0, 82, 0
6, 54960, Note_on_c, 0, 82, 84
6, 55059, Note_on_c, 0, 82, 0
6, 55080, Note_on_c, 0, 82, 84
6, 55179, Note_on_c, 0, 82, 0
6, 55200, Note_on_c, 0, 79, 84
6, 55299, Note_on_c, 0, 79, 0
6, 55320, Note_on_c, 0, 75, 84
6, 55419, Note_on_c, 0, 75, 0
6, 55440, Note_on_c, 0, 75, 84
6, 55539, Note_on_c, 0, 75, 0
6, 55560, Note_on_c, 0, 75, 84
6, 55659, Note_on_c, 0, 75, 0
6, 55680, Note_on_c, 0, 70, 84
6, 56399, Note_on_c, 0, 70, 0
6, 56760, Note_on_c, 0, 82, 84
6, 56859, Note_on_c, 0, 82, 0
6, 56880, Note_on_c, 0, 82, 84
6, 56979, Note_on_c, 0, 82, 0
6, 57000, Note_on_c, 0, 82, 84
6, 57099, Note_on_c, 0, 82, 0
6, 57120, Note_on_c, 0, 82, 84
6, 57359, Note_on_c, 0, 82, 0
6, 57720, Note_on_c, 0, 86, 84
6, 57720, Note_on_c, 0, 77, 84
6, 57819, Note_on_c, 0, 86, 0
6, 57819, Note_on_c, 0, 77, 0
6, 57840, Note_on_c, 0, 77, 84
6, 57840, Note_on_c, 0, 86, 84
6, 57939, Note_on_c, 0, 77, 0
6, 57939, Note_on_c, 0, 86, 0
6, 57960, Note_on_c, 0, 77, 84
6, 57960, Note_on_c, 0, 86, 84
6, 58059, Note_on_c, 0, 77, 0
6, 58059, Note_on_c, 0, 86, 0
6, 58080, Note_on_c, 0, 87, 84
6, 58080, Note_on_c, 0, 79, 84
6, 58319, Note_on_c, 0, 87, 0
6, 58319, Note_on_c, 0, 79, 0
6, 67800, Note_on_c, 0, 91, 58
6, 67800, Note_on_c, 0, 86, 58
6, 67899, Note_on_c, 0, 91, 0
6, 67899, Note_on_c, 0, 86, 0
6, 67920, Note_on_c, 0, 91, 64
6, 67920, Note_on_c, 0, 86, 64
6, 68019, Note_on_c, 0, 91, 0
6, 68019, Note_on_c, 0, 86, 0
6, 68040, Note_on_c, 0, 86, 70
6, 68040, Note_on_c, 0, 89, 70
6, 68139, Note_on_c, 0, 86, 0
6, 68139, Note_on_c, 0, 89, 0
6, 68160, Note_on_c, 0, 84, 76
6, 68160, Note_on_c, 0, 87, 76
6, 68399, Note_on_c, 0, 84, 0
6, 68399, Note_on_c, 0, 87, 0
6, 68640, Note_on_c, 0, 84, 76
6, 68879, Note_on_c, 0, 84, 0
6, 69120, Note_on_c, 0, 91, 76
6, 69120, Note_on_c, 0, 83, 76
6, 69359, Note_on_c, 0, 91, 0
6, 69359, Note_on_c, 0, 83, 0
6, 69720, Note_on_c, 0, 80, 84
6, 69819, Note_on_c, 0, 80, 0
6, 69840, Note_on_c, 0, 80, 84
6, 69939, Note_on_c, 0, 80, 0
6, 69960, Note_on_c, 0, 80, 84
6, 70059, Note_on_c, 0, 80, 0
6, 70080, Note_on_c, 0, 77, 84
6, 71039, Note_on_c, 0, 77, 0
6, 77760, Note_on_c, 0, 84, 76
6, 77999, Note_on_c, 0, 84, 0
6, 78240, Note_on_c, 0, 84, 76
6, 78479, Note_on_c, 0, 84, 0
6, 78720, Note_on_c, 0, 84, 76
6, 78959, Note_on_c, 0, 84, 0
6, 79200, Note_on_c, 0, 84, 76
6, 79439, Note_on_c, 0, 84, 0
6, 79680, Note_on_c, 0, 86, 76
6, 79680, Note_on_c, 0, 83, 76
6, 79919, Note_on_c, 0, 86, 0
6, 79919, Note_on_c, 0, 83, 0
6, 80160, Note_on_c, 0, 84, 76
6, 80160, Note_on_c, 0, 87, 76
6, 82059, Note_on_c, 0, 84, 0
6, 82059, Note_on_c, 0, 87, 0
6, 82080, Note_on_c, 0, 86, 76
6, 82080, Note_on_c, 0, 89, 76
6, 83739, Note_on_c, 0, 86, 0
6, 83739, Note_on_c, 0, 89, 0
6, 83760, Note_on_c, 0, 87, 76
6, 83760, Note_on_c, 0, 84, 76
6, 83979, Note_on_c, 0, 87, 0
6, 83979, Note_on_c, 0, 84, 0
6, 84000, Note_on_c, 0, 87, 84
6, 84000, Note_on_c, 0, 84, 84
6, 85899, Note_on_c, 0, 87, 0
6, 85899, Note_on_c, 0, 84, 0
6, 85920, Note_on_c, 0, 81, 84
6, 85920, Note_on_c, 0, 90, 84
6, 86159, Note_on_c, 0, 81, 0
6, 86159, Note_on_c, 0, 90, 0
6, 86880, Note_on_c, 0, 82, 84
6, 87119, Note_on_c, 0, 82, 0
6, 93120, Note_on_c, 0, 82, 52
6, 93359, Note_on_c, 0, 82, 0
6, 93360, Note_on_c, 0, 87, 52
6, 93599, Note_on_c, 0, 87, 0
6, 93600, Note_on_c, 0, 86, 52
6, 93839, Note_on_c, 0, 86, 0
6, 93840, Note_on_c, 0, 87, 52
6, 94079, Note_on_c, 0, 87, 0
6, 94080, Note_on_c, 0, 89, 52
6, 94319, Note_on_c, 0, 89, 0
6, 94320, Note_on_c, 0, 84, 52
6, 94539, Note_on_c, 0, 84, 0
6, 94560, Note_on_c, 0, 84, 52
6, 94799, Note_on_c, 0, 84, 0
6, 94800, Note_on_c, 0, 82, 52
6, 95039, Note_on_c, 0, 82, 0
6, 102660, Control_c, 0, 11, 107
6, 102720, Note_on_c, 0, 87, 84
6, 102760, Control_c, 0, 11, 109
6, 102860, Control_c, 0, 11, 110
6, 102959, Note_on_c, 0, 87, 0
6, 102960, Control_c, 0, 11, 111
6, 102960, Note_on_c, 0, 89, 84
6, 103060, Control_c, 0, 11, 113
6, 103160, Control_c, 0, 11, 114
6, 103199, Note_on_c, 0, 89, 0
6, 103200, Note_on_c, 0, 90, 84
6, 103260, Control_c, 0, 11, 115
6, 103360, Control_c, 0, 11, 117
6, 103439, Note_on_c, 0, 90, 0
6, 103440, Note_on_c, 0, 89, 84
6, 103460, Control_c, 0, 11, 118
6, 103560, Control_c, 0, 11, 119
6, 103660, Control_c, 0, 11, 120
6, 103679, Note_on_c, 0, 89, 0
6, 103680, Note_on_c, 0, 90, 84
6, 103760, Control_c, 0, 11, 122
6, 103860, Control_c, 0, 11, 123
6, 103919, Note_on_c, 0, 90, 0
6, 103920, Note_on_c, 0, 90, 84
6, 103960, Control_c, 0, 11, 124
6, 104060, Control_c, 0, 11, 126
6, 104159, Note_on_c, 0, 90, 0
6, 104160, Control_c, 0, 11, 127
6, 104160, Note_on_c, 0, 89, 84
6, 104160, Note_on_c, 0, 82, 84
6, 104859, Note_on_c, 0, 89, 0
6, 104859, Note_on_c, 0, 82, 0
6, 104880, Note_on_c, 0, 82, 84
6, 104880, Note_on_c, 0, 89, 84
6, 105099, Note_on_c, 0, 82, 0
6, 105099, Note_on_c, 0, 89, 0
6, 105120, Note_on_c, 0, 82, 84
6, 105120, Note_on_c, 0, 91, 84
6, 105359, Note_on_c, 0, 82, 0
6, 105359, Note_on_c, 0, 91, 0
6, 105600, Note_on_c, 0, 82, 84
6, 105600, Note_on_c, 0, 89, 84
6, 105839, Note_on_c, 0, 82, 0
6, 105839, Note_on_c, 0, 89, 0
6, 106080, Note_on_c, 0, 82, 84
6, 106080, Note_on_c, 0, 87, 84
6, 106319, Note_on_c, 0, 82, 0
6, 106319, Note_on_c, 0, 87, 0
6, 106560, Note_on_c, 0, 87, 84
6, 106560, Note_on_c, 0, 84, 84
6, 106799, Note_on_c, 0, 87, 0
6, 106799, Note_on_c, 0, 84, 0
6, 107040, Note_on_c, 0, 87, 84
6, 107040, Note_on_c, 0, 82, 84
6, 107279, Note_on_c, 0, 87, 0
6, 107279, Note_on_c, 0, 82, 0
6, 107520, Note_on_c, 0, 82, 84
6, 107520, Note_on_c, 0, 86, 84
6, 107759, Note_on_c, 0, 82, 0
6, 107759, Note_on_c, 0, 86, 0
6, 108000, Note_on_c, 0, 82, 84
6, 108000, Note_on_c, 0, 89, 84
6, 108939, Note_on_c, 0, 82, 0
6, 108939, Note_on_c, 0, 89, 0
6, 108960, Note_on_c, 0, 91, 84
6, 108960, Note_on_c, 0, 82, 84
6, 109179, Note_on_c, 0, 91, 0
6, 109179, Note_on_c, 0, 82, 0
6, 109200, Note_on_c, 0, 91, 84
6, 109200, Note_on_c, 0, 82, 84
6, 109439, Note_on_c, 0, 91, 0
6, 109439, Note_on_c, 0, 82, 0
6, 109680, Note_on_c, 0, 82, 84
6, 109680, Note_on_c, 0, 86, 84
6, 109919, Note_on_c, 0, 82, 0
6, 109919, Note_on_c, 0, 86, 0
6, 110160, Note_on_c, 0, 82, 84
6, 110160, Note_on_c, 0, 87, 84
6, 110399, Note_on_c, 0, 82, 0
6, 110399, Note_on_c, 0, 87, 0
6, 110640, Note_on_c, 0, 80, 84
6, 110640, Note_on_c, 0, 87, 84
6, 110879, Note_on_c, 0, 80, 0
6, 110879, Note_on_c, 0, 87, 0
6, 111120, Note_on_c, 0, 87, 84
6, 111120, Note_on_c, 0, 82, 84
6, 111359, Note_on_c, 0, 87, 0
6, 111359, Note_on_c, 0, 82, 0
6, 111600, Note_on_c, 0, 82, 84
6, 111600, Note_on_c, 0, 86, 84
6, 111819, Note_on_c, 0, 82, 0
6, 111819, Note_on_c, 0, 86, 0
6, 111840, Note_on_c, 0, 87, 84
6, 111840, Note_on_c, 0, 82, 84
6, 111939, Note_on_c, 0, 87, 0
6, 111939, Note_on_c, 0, 82, 0
6, 111960, Note_on_c, 0, 91, 84
6, 112059, Note_on_c, 0, 91, 0
6, 112080, Note_on_c, 0, 91, 84
6, 112179, Note_on_c, 0, 91, 0
6, 112200, Note_on_c, 0, 91, 84
6, 112299, Note_on_c, 0, 91, 0
6, 112320, Note_on_c, 0, 87, 84
6, 112419, Note_on_c, 0, 87, 0
6, 112440, Note_on_c, 0, 82, 84
6, 112539, Note_on_c, 0, 82, 0
6, 112560, Note_on_c, 0, 82, 84
6, 112659, Note_on_c, 0, 82, 0
6, 112680, Note_on_c, 0, 82, 84
6, 112779, Note_on_c, 0, 82, 0
6, 112800, Note_on_c, 0, 79, 84
6, 112899, Note_on_c, 0, 79, 0
6, 112920, Note_on_c, 0, 75, 84
6, 113019, Note_on_c, 0, 75, 0
6, 113040, Note_on_c, 0, 75, 84
6, 113139, Note_on_c, 0, 75, 0
6, 113160, Note_on_c, 0, 75, 84
6, 113259, Note_on_c, 0, 75, 0
6, 113280, Note_on_c, 0, 70, 84
6, 113859, Note_on_c, 0, 70, 0
6, 113880, Note_on_c, 0, 91, 84
6, 113979, Note_on_c, 0, 91, 0
6, 114000, Note_on_c, 0, 91, 84
6, 114099, Note_on_c, 0, 91, 0
6, 114120, Note_on_c, 0, 91, 84
6, 114219, Note_on_c, 0, 91, 0
6, 114240, Note_on_c, 0, 87, 84
6, 114339, Note_on_c, 0, 87, 0
6, 114360, Note_on_c, 0, 82, 84
6, 114459, Note_on_c, 0, 82, 0
6, 114480, Note_on_c, 0, 82, 84
6, 114579, Note_on_c, 0, 82, 0
6, 114600, Note_on_c, 0, 82, 84
6, 114699, Note_on_c, 0, 82, 0
6, 114720, Note_on_c, 0, 79, 84
6, 114819, Note_on_c, 0, 79, 0
6, 114840, Note_on_c, 0, 75, 84
6, 114939, Note_on_c, 0, 75, 0
6, 114960, Note_on_c, 0, 75, 84
6, 115059, Note_on_c, 0, 75, 0
6, 115080, Note_on_c, 0, 75, 84
6, 115179, Note_on_c, 0, 75, 0
6, 115200, Note_on_c, 0, 70, 84
6, 115919, Note_on_c, 0, 70, 0
6, 116280, Note_on_c, 0, 82, 84
6, 116379, Note_on_c, 0, 82, 0
6, 116400, Note_on_c, 0, 82, 84
6, 116499, Note_on_c, 0, 82, 0
6, 116520, Note_on_c, 0, 82, 84
6, 116619, Note_on_c, 0, 82, 0
6, 116640, Note_on_c, 0, 82, 84
6, 116879, Note_on_c, 0, 82, 0
6, 117240, Note_on_c, 0, 86, 84
6, 117240, Note_on_c, 0, 77, 84
6, 117339, Note_on_c, 0, 86, 0
6, 117339, Note_on_c, 0, 77, 0
6, 117360, Note_on_c, 0, 86, 84
6, 117360, Note_on_c, 0, 77, 84
6, 117459, Note_on_c, 0, 86, 0
6, 117459, Note_on_c, 0, 77, 0
6, 117480, Note_on_c, 0, 86, 84
6, 117480, Note_on_c, 0, 77, 84
6, 117579, Note_on_c, 0, 86, 0
6, 117579, Note_on_c, 0, 77, 0
6, 117600, Note_on_c, 0, 87, 84
6, 117600, Note_on_c, 0, 79, 84
6, 117839, Note_on_c, 0, 87, 0
6, 117839, Note_on_c, 0, 79, 0
6, 132600, Note_on_c, 0, 86, 52
6, 132699, Note_on_c, 0, 86, 0
6, 132720, Note_on_c, 0, 86, 52
6, 132819, Note_on_c, 0, 86, 0
6, 132840, Note_on_c, 0, 84, 52
6, 132939, Note_on_c, 0, 84, 0
6, 132960, Note_on_c, 0, 82, 52
6, 133419, Note_on_c, 0, 82, 0
6, 133440, Note_on_c, 0, 81, 52
6, 133539, Note_on_c, 0, 81, 0
6, 133560, Note_on_c, 0, 86, 52
6, 133659, Note_on_c, 0, 86, 0
6, 133680, Note_on_c, 0, 86, 52
6, 133779, Note_on_c, 0, 86, 0
6, 133800, Note_on_c, 0, 84, 52
6, 133899, Note_on_c, 0, 84, 0
6, 133920, Note_on_c, 0, 82, 52
6, 134379, Note_on_c, 0, 82, 0
6, 134400, Note_on_c, 0, 81, 52
6, 134859, Note_on_c, 0, 81, 0
6, 134880, Note_on_c, 0, 82, 52
6, 135459, Note_on_c, 0, 82, 0
6, 135480, Note_on_c, 0, 79, 52
6, 135579, Note_on_c, 0, 79, 0
6, 135600, Note_on_c, 0, 81, 52
6, 135699, Note_on_c, 0, 81, 0
6, 135720, Note_on_c, 0, 82, 52
6, 135819, Note_on_c, 0, 82, 0
6, 135840, Note_on_c, 0, 84, 52
6, 136079, Note_on_c, 0, 84, 0
6, 136440, Note_on_c, 0, 78, 52
6, 136539, Note_on_c, 0, 78, 0
6, 136560, Note_on_c, 0, 81, 52
6, 136659, Note_on_c, 0, 81, 0
6, 136680, Note_on_c, 0, 82, 52
6, 136779, Note_on_c, 0, 82, 0
6, 136800, Note_on_c, 0, 84, 52
6, 137039, Note_on_c, 0, 84, 0
6, 137400, Note_on_c, 0, 81, 52
6, 137499, Note_on_c, 0, 81, 0
6, 137520, Note_on_c, 0, 82, 52
6, 137619, Note_on_c, 0, 82, 0
6, 137640, Note_on_c, 0, 84, 52
6, 137739, Note_on_c, 0, 84, 0
6, 137760, Note_on_c, 0, 86, 52
6, 137999, Note_on_c, 0, 86, 0
6, 138360, Note_on_c, 0, 79, 52
6, 138459, Note_on_c, 0, 79, 0
6, 138480, Note_on_c, 0, 82, 52
6, 138579, Note_on_c, 0, 82, 0
6, 138600, Note_on_c, 0, 84, 52
6, 138699, Note_on_c, 0, 84, 0
6, 138720, Note_on_c, 0, 86, 52
6, 138959, Note_on_c, 0, 86, 0
6, 139320, Note_on_c, 0, 82, 67
6, 139419, Note_on_c, 0, 82, 0
6, 139440, Note_on_c, 0, 84, 70
6, 139539, Note_on_c, 0, 84, 0
6, 139560, Note_on_c, 0, 86, 73
6, 139659, Note_on_c, 0, 86, 0
6, 139680, Note_on_c, 0, 87, 76
6, 139680, Note_on_c, 0, 81, 76
6, 140619, Note_on_c, 0, 87, 0
6, 140619, Note_on_c, 0, 81, 0
6, 140640, Note_on_c, 0, 87, 76
6, 140640, Note_on_c, 0, 81, 76
6, 140879, Note_on_c, 0, 87, 0
6, 140879, Note_on_c, 0, 81, 0
6, 141240, Note_on_c, 0, 88, 76
6, 141240, Note_on_c, 0, 79, 76
6, 141339, Note_on_c, 0, 88, 0
6, 141339, Note_on_c, 0, 79, 0
6, 141360, Note_on_c, 0, 88, 76
6, 141360, Note_on_c, 0, 79, 76
6, 141459, Note_on_c, 0, 88, 0
6, 141459, Note_on_c, 0, 79, 0
6, 141480, Note_on_c, 0, 88, 76
6, 141480, Note_on_c, 0, 79, 76
6, 141579, Note_on_c, 0, 88, 0
6, 141579, Note_on_c, 0, 79, 0
6, 141600, Note_on_c, 0, 88, 76
6, 141600, Note_on_c, 0, 79, 76
6, 142539, Note_on_c, 0, 88, 0
6, 142539, Note_on_c, 0, 79, 0
6, 142560, Note_on_c, 0, 88, 76
6, 142560, Note_on_c, 0, 79, 76
6, 142799, Note_on_c, 0, 88, 0
6, 142799, Note_on_c, 0, 79, 0
6, 143160, Note_on_c, 0, 86, 80
6, 143160, Note_on_c, 0, 82, 80
6, 143259, Note_on_c, 0, 86, 0
6, 143259, Note_on_c, 0, 82, 0
6, 143280, Note_on_c, 0, 86, 80
6, 143280, Note_on_c, 0, 82, 80
6, 143379, Note_on_c, 0, 86, 0
6, 143379, Note_on_c, 0, 82, 0
6, 143400, Note_on_c, 0, 86, 80
6, 143400, Note_on_c, 0, 82, 80
6, 143499, Note_on_c, 0, 86, 0
6, 143499, Note_on_c, 0, 82, 0
6, 143520, Note_on_c, 0, 86, 80
6, 143520, Note_on_c, 0, 82, 80
6, 143759, Note_on_c, 0, 86, 0
6, 143759, Note_on_c, 0, 82, 0
6, 144240, Note_on_c, 0, 85, 80
6, 144240, Note_on_c, 0, 73, 80
6, 144339, Note_on_c, 0, 85, 0
6, 144339, Note_on_c, 0, 73, 0
6, 144360, Note_on_c, 0, 85, 80
6, 144360, Note_on_c, 0, 73, 80
6, 144459, Note_on_c, 0, 85, 0
6, 144459, Note_on_c, 0, 73, 0
6, 144480, Note_on_c, 0, 85, 80
6, 144480, Note_on_c, 0, 73, 80
6, 144699, Note_on_c, 0, 85, 0
6, 144699, Note_on_c, 0, 73, 0
6, 144720, Note_on_c, 0, 86, 80
6, 144720, Note_on_c, 0, 74, 80
6, 144819, Note_on_c, 0, 86, 0
6, 144819, Note_on_c, 0, 74, 0
6, 144840, Note_on_c, 0, 86, 80
6, 144840, Note_on_c, 0, 74, 80
6, 144939, Note_on_c, 0, 86, 0
6, 144939, Note_on_c, 0, 74, 0
6, 144960, Note_on_c, 0, 86, 80
6, 144960, Note_on_c, 0, 74, 80
6, 145199, Note_on_c, 0, 86, 0
6, 145199, Note_on_c, 0, 74, 0
6, 148560, Note_on_c, 0, 86, 80
6, 148659, Note_on_c, 0, 86, 0
6, 148680, Note_on_c, 0, 86, 80
6, 148779, Note_on_c, 0, 86, 0
6, 148800, Note_on_c, 0, 86, 80
6, 148800, Note_on_c, 0, 91, 80
6, 149039, Note_on_c, 0, 86, 0
6, 149039, Note_on_c, 0, 91, 0
6, 152400, Note_on_c, 0, 86, 80
6, 152400, Note_on_c, 0, 83, 80
6, 152499, Note_on_c, 0, 86, 0
6, 152499, Note_on_c, 0, 83, 0
6, 152520, Note_on_c, 0, 86, 80
6, 152520, Note_on_c, 0, 83, 80
6, 152619, Note_on_c, 0, 86, 0
6, 152619, Note_on_c, 0, 83, 0
6, 152640, Note_on_c, 0, 88, 80
6, 152640, Note_on_c, 0, 84, 80
6, 152739, Note_on_c, 0, 88, 0
6, 152739, Note_on_c, 0, 84, 0
6, 152760, Note_on_c, 0, 84, 84
6, 152859, Note_on_c, 0, 84, 0
6, 152880, Note_on_c, 0, 84, 84
6, 152979, Note_on_c, 0, 84, 0
6, 153000, Note_on_c, 0, 84, 84
6, 153099, Note_on_c, 0, 84, 0
6, 153120, Note_on_c, 0, 77, 84
6, 153579, Note_on_c, 0, 77, 0
6, 153600, Note_on_c, 0, 79, 84
6, 154079, Note_on_c, 0, 79, 0
6, 155040, Note_on_c, 0, 77, 84
6, 155499, Note_on_c, 0, 77, 0
6, 155520, Note_on_c, 0, 79, 84
6, 155999, Note_on_c, 0, 79, 0
6, 156960, Note_on_c, 0, 77, 84
6, 157419, Note_on_c, 0, 77, 0
6, 157440, Note_on_c, 0, 78, 84
6, 157919, Note_on_c, 0, 78, 0
6, 158880, Note_on_c, 0, 81, 84
6, 159339, Note_on_c, 0, 81, 0
6, 159360, Note_on_c, 0, 82, 84
6, 159839, Note_on_c, 0, 82, 0
6, 160320, Note_on_c, 0, 83, 78
6, 160799, Note_on_c, 0, 83, 0
6, 161280, Note_on_c, 0, 85, 65
6, 161759, Note_on_c, 0, 85, 0
6, 162240, Note_on_c, 0, 85, 52
6, 162719, Note_on_c, 0, 85, 0
6, 163200, Note_on_c, 0, 85, 52
6, 163679, Note_on_c, 0, 85, 0
6, 164160, Note_on_c, 0, 85, 48
6, 164639, Note_on_c, 0, 85, 0
6, 165120, Note_on_c, 0, 86, 44
6, 165599, Note_on_c, 0, 86, 0
6, 166080, Note_on_c, 0, 86, 44
6, 166559, Note_on_c, 0, 86, 0
6, 167040, Note_on_c, 0, 86, 44
6, 167519, Note_on_c, 0, 86, 0
6, 168000, Note_on_c, 0, 86, 44
6, 168479, Note_on_c, 0, 86, 0
6, 168600, Note_on_c, 0, 86, 84
6, 168699, Note_on_c, 0, 86, 0
6, 168720, Note_on_c, 0, 86, 84
6, 168819, Note_on_c, 0, 86, 0
6, 168840, Note_on_c, 0, 86, 84
6, 168939, Note_on_c, 0, 86, 0
6, 168960, Note_on_c, 0, 86, 84
6, 168960, Note_on_c, 0, 83, 84
6, 169419, Note_on_c, 0, 86, 0
6, 169419, Note_on_c, 0, 83, 0
6, 169440, Note_on_c, 0, 86, 84
6, 169440, Note_on_c, 0, 84, 84
6, 169899, Note_on_c, 0, 86, 0
6, 169899, Note_on_c, 0, 84, 0
6, 169920, Note_on_c, 0, 86, 84
6, 169920, Note_on_c, 0, 81, 84
6, 170879, Note_on_c, 0, 86, 0
6, 170879, Note_on_c, 0, 81, 0
6, 170880, Note_on_c, 0, 86, 44
6, 171359, Note_on_c, 0, 86, 0
6, 171840, Note_on_c, 0, 86, 44
6, 172319, Note_on_c, 0, 86, 0
6, 172800, Note_on_c, 0, 86, 44
6, 173279, Note_on_c, 0, 86, 0
6, 173760, Note_on_c, 0, 86, 44
6, 174239, Note_on_c, 0, 86, 0
6, 174840, Note_on_c, 0, 92, 84
6, 174840, Note_on_c, 0, 80, 84
6, 174939, Note_on_c, 0, 92, 0
6, 174939, Note_on_c, 0, 80, 0
6, 174960, Note_on_c, 0, 92, 84
6, 174960, Note_on_c, 0, 80, 84
6, 175059, Note_on_c, 0, 92, 0
6, 175059, Note_on_c, 0, 80, 0
6, 175080, Note_on_c, 0, 92, 84
6, 175080, Note_on_c, 0, 80, 84
6, 175179, Note_on_c, 0, 92, 0
6, 175179, Note_on_c, 0, 80, 0
6, 175200, Note_on_c, 0, 89, 84
6, 175200, Note_on_c, 0, 77, 84
6, 175779, Note_on_c, 0, 89, 0
6, 175779, Note_on_c, 0, 77, 0
6, 175800, Note_on_c, 0, 92, 84
6, 175800, Note_on_c, 0, 80, 84
6, 175899, Note_on_c, 0, 92, 0
6, 175899, Note_on_c, 0, 80, 0
6, 175920, Note_on_c, 0, 92, 84
6, 175920, Note_on_c, 0, 80, 84
6, 176019, Note_on_c, 0, 92, 0
6, 176019, Note_on_c, 0, 80, 0
6, 176040, Note_on_c, 0, 92, 84
6, 176040, Note_on_c, 0, 80, 84
6, 176139, Note_on_c, 0, 92, 0
6, 176139, Note_on_c, 0, 80, 0
6, 176160, Note_on_c, 0, 89, 84
6, 176160, Note_on_c, 0, 77, 84
6, 176739, Note_on_c, 0, 89, 0
6, 176739, Note_on_c, 0, 77, 0
6, 176760, Note_on_c, 0, 92, 84
6, 176760, Note_on_c, 0, 80, 84
6, 176859, Note_on_c, 0, 92, 0
6, 176859, Note_on_c, 0, 80, 0
6, 176880, Note_on_c, 0, 92, 84
6, 176880, Note_on_c, 0, 80, 84
6, 176979, Note_on_c, 0, 92, 0
6, 176979, Note_on_c, 0, 80, 0
6, 177000, Note_on_c, 0, 92, 84
6, 177000, Note_on_c, 0, 80, 84
6, 177099, Note_on_c, 0, 92, 0
6, 177099, Note_on_c, 0, 80, 0
6, 177120, Note_on_c, 0, 89, 84
6, 177120, Note_on_c, 0, 77, 84
6, 177219, Note_on_c, 0, 89, 0
6, 177219, Note_on_c, 0, 77, 0
6, 177240, Note_on_c, 0, 92, 84
6, 177240, Note_on_c, 0, 80, 84
6, 177339, Note_on_c, 0, 92, 0
6, 177339, Note_on_c, 0, 80, 0
6, 177360, Note_on_c, 0, 92, 84
6, 177360, Note_on_c, 0, 80, 84
6, 177459, Note_on_c, 0, 92, 0
6, 177459, Note_on_c, 0, 80, 0
6, 177480, Note_on_c, 0, 92, 84
6, 177480, Note_on_c, 0, 80, 84
6, 177579, Note_on_c, 0, 92, 0
6, 177579, Note_on_c, 0, 80, 0
6, 177600, Note_on_c, 0, 89, 84
6, 177600, Note_on_c, 0, 77, 84
6, 177699, Note_on_c, 0, 89, 0
6, 177699, Note_on_c, 0, 77, 0
6, 177720, Note_on_c, 0, 92, 84
6, 177720, Note_on_c, 0, 80, 84
6, 177819, Note_on_c, 0, 92, 0
6, 177819, Note_on_c, 0, 80, 0
6, 177840, Note_on_c, 0, 92, 84
6, 177840, Note_on_c, 0, 80, 84
6, 177939, Note_on_c, 0, 92, 0
6, 177939, Note_on_c, 0, 80, 0
6, 177960, Note_on_c, 0, 92, 84
6, 177960, Note_on_c, 0, 80, 84
6, 178059, Note_on_c, 0, 92, 0
6, 178059, Note_on_c, 0, 80, 0
6, 178080, Note_on_c, 0, 89, 84
6, 178080, Note_on_c, 0, 77, 84
6, 178179, Note_on_c, 0, 89, 0
6, 178179, Note_on_c, 0, 77, 0
6, 178200, Note_on_c, 0, 91, 84
6, 178200, Note_on_c, 0, 79, 84
6, 178299, Note_on_c, 0, 91, 0
6, 178299, Note_on_c, 0, 79, 0
6, 178320, Note_on_c, 0, 91, 84
6, 178320, Note_on_c, 0, 79, 84
6, 178419, Note_on_c, 0, 91, 0
6, 178419, Note_on_c, 0, 79, 0
6, 178440, Note_on_c, 0, 91, 84
6, 178440, Note_on_c, 0, 79, 84
6, 178539, Note_on_c, 0, 91, 0
6, 178539, Note_on_c, 0, 79, 0
6, 178560, Note_on_c, 0, 91, 84
6, 178560, Note_on_c, 0, 87, 84
6, 179999, Note_on_c, 0, 91, 0
6, 179999, Note_on_c, 0, 87, 0
6, 180120, Note_on_c, 0, 91, 84
6, 180120, Note_on_c, 0, 89, 84
6, 180219, Note_on_c, 0, 91, 0
6, 180219, Note_on_c, 0, 89, 0
6, 180240, Note_on_c, 0, 91, 84
6, 180240, Note_on_c, 0, 89, 84
6, 180339, Note_on_c, 0, 91, 0
6, 180339, Note_on_c, 0, 89, 0
6, 180360, Note_on_c, 0, 91, 84
6, 180360, Note_on_c, 0, 89, 84
6, 180459, Note_on_c, 0, 91, 0
6, 180459, Note_on_c, 0, 89, 0
6, 180480, Note_on_c, 0, 91, 84
6, 180480, Note_on_c, 0, 86, 84
6, 182399, Note_on_c, 0, 91, 0
6, 182399, Note_on_c, 0, 86, 0
6, 185760, Note_on_c, 0, 65, 52
6, 186699, Note_on_c, 0, 65, 0
6, 186720, Note_on_c, 0, 63, 52
6, 186959, Note_on_c, 0, 63, 0
6, 189080, Control_c, 0, 11, 102
6, 189120, Control_c, 0, 11, 104
6, 189120, Note_on_c, 0, 84, 76
6, 189120, Note_on_c, 0, 78, 76
6, 189160, Control_c, 0, 11, 105
6, 189200, Control_c, 0, 11, 107
6, 189240, Control_c, 0, 11, 109
6, 189280, Control_c, 0, 11, 111
6, 189320, Control_c, 0, 11, 113
6, 189360, Control_c, 0, 11, 115
6, 189400, Control_c, 0, 11, 117
6, 189440, Control_c, 0, 11, 119
6, 189480, Control_c, 0, 11, 121
6, 189520, Control_c, 0, 11, 123
6, 189560, Control_c, 0, 11, 127
6, 189579, Note_on_c, 0, 84, 0
6, 189579, Note_on_c, 0, 78, 0
6, 189600, Note_on_c, 0, 83, 76
6, 189600, Note_on_c, 0, 79, 76
6, 189839, Note_on_c, 0, 83, 0
6, 189839, Note_on_c, 0, 79, 0
6, 198720, Note_on_c, 0, 84, 84
6, 198959, Note_on_c, 0, 84, 0
6, 199200, Note_on_c, 0, 84, 84
6, 199439, Note_on_c, 0, 84, 0
6, 199680, Note_on_c, 0, 84, 84
6, 199919, Note_on_c, 0, 84, 0
6, 200160, Note_on_c, 0, 84, 84
6, 200399, Note_on_c, 0, 84, 0
6, 200640, Note_on_c, 0, 86, 84
6, 200640, Note_on_c, 0, 83, 84
6, 200879, Note_on_c, 0, 86, 0
6, 200879, Note_on_c, 0, 83, 0
6, 201120, Note_on_c, 0, 87, 76
6, 201120, Note_on_c, 0, 84, 76
6, 203019, Note_on_c, 0, 87, 0
6, 203019, Note_on_c, 0, 84, 0
6, 203040, Note_on_c, 0, 89, 76
6, 203040, Note_on_c, 0, 86, 76
6, 204699, Note_on_c, 0, 89, 0
6, 204699, Note_on_c, 0, 86, 0
6, 204720, Note_on_c, 0, 87, 76
6, 204720, Note_on_c, 0, 84, 76
6, 204939, Note_on_c, 0, 87, 0
6, 204939, Note_on_c, 0, 84, 0
6, 204960, Note_on_c, 0, 90, 84
6, 204960, Note_on_c, 0, 84, 84
6, 206859, Note_on_c, 0, 90, 0
6, 206859, Note_on_c, 0, 84, 0
6, 206880, Note_on_c, 0, 90, 84
6, 206880, Note_on_c, 0, 84, 84
6, 207119, Note_on_c, 0, 90, 0
6, 207119, Note_on_c, 0, 84, 0
6, 207840, Note_on_c, 0, 91, 84
6, 207840, Note_on_c, 0, 79, 84
6, 208079, Note_on_c, 0, 91, 0
6, 208079, Note_on_c, 0, 79, 0
6, 212160, Note_on_c, 0, 79, 52
6, 212399, Note_on_c, 0, 79, 0
6, 212400, Note_on_c, 0, 84, 52
6, 212639, Note_on_c, 0, 84, 0
6, 212640, Note_on_c, 0, 83, 52
6, 212879, Note_on_c, 0, 83, 0
6, 212880, Note_on_c, 0, 84, 52
6, 213119, Note_on_c, 0, 84, 0
6, 213120, Note_on_c, 0, 86, 52
6, 213359, Note_on_c, 0, 86, 0
6, 213360, Note_on_c, 0, 81, 52
6, 213579, Note_on_c, 0, 81, 0
6, 213600, Note_on_c, 0, 81, 52
6, 213839, Note_on_c, 0, 81, 0
6, 213840, Note_on_c, 0, 79, 52
6, 214079, Note_on_c, 0, 79, 0
6, 216000, Note_on_c, 0, 79, 52
6, 216239, Note_on_c, 0, 79, 0
6, 216240, Note_on_c, 0, 84, 52
6, 216479, Note_on_c, 0, 84, 0
6, 216480, Note_on_c, 0, 83, 52
6, 216719, Note_on_c, 0, 83, 0
6, 216720, Note_on_c, 0, 84, 52
6, 216959, Note_on_c, 0, 84, 0
6, 216960, Note_on_c, 0, 86, 52
6, 217199, Note_on_c, 0, 86, 0
6, 217200, Note_on_c, 0, 81, 52
6, 217419, Note_on_c, 0, 81, 0
6, 217440, Note_on_c, 0, 81, 52
6, 217679, Note_on_c, 0, 81, 0
6, 217680, Note_on_c, 0, 79, 52
6, 217919, Note_on_c, 0, 79, 0
6, 218880, Note_on_c, 0, 82, 52
6, 219119, Note_on_c, 0, 82, 0
6, 219120, Note_on_c, 0, 84, 52
6, 219359, Note_on_c, 0, 84, 0
6, 219360, Note_on_c, 0, 82, 52
6, 219599, Note_on_c, 0, 82, 0
6, 219600, Note_on_c, 0, 81, 52
6, 219839, Note_on_c, 0, 81, 0
6, 220800, Note_on_c, 0, 84, 52
6, 221039, Note_on_c, 0, 84, 0
6, 221040, Note_on_c, 0, 86, 52
6, 221279, Note_on_c, 0, 86, 0
6, 221280, Note_on_c, 0, 84, 52
6, 221519, Note_on_c, 0, 84, 0
6, 221520, Note_on_c, 0, 83, 52
6, 221759, Note_on_c, 0, 83, 0
6, 225013, Control_c, 0, 11, 90
6, 225120, Control_c, 0, 11, 91
6, 225120, Note_on_c, 0, 92, 84
6, 225227, Control_c, 0, 11, 92
6, 225333, Control_c, 0, 11, 93
6, 225359, Note_on_c, 0, 92, 0
6, 225360, Note_on_c, 0, 91, 84
6, 225440, Control_c, 0, 11, 94
6, 225547, Control_c, 0, 11, 95
6, 225599, Note_on_c, 0, 91, 0
6, 225600, Note_on_c, 0, 90, 84
6, 225653, Control_c, 0, 11, 96
6, 225760, Control_c, 0, 11, 97
6, 225839, Note_on_c, 0, 90, 0
6, 225840, Note_on_c, 0, 91, 84
6, 225867, Control_c, 0, 11, 98
6, 225973, Control_c, 0, 11, 99
6, 226059, Note_on_c, 0, 91, 0
6, 226080, Note_on_c, 0, 93, 84
6, 226080, Control_c, 0, 11, 100
6, 226187, Control_c, 0, 11, 101
6, 226293, Control_c, 0, 11, 102
6, 226319, Note_on_c, 0, 93, 0
6, 226320, Note_on_c, 0, 91, 84
6, 226400, Control_c, 0, 11, 103
6, 226507, Control_c, 0, 11, 104
6, 226559, Note_on_c, 0, 91, 0
6, 226560, Note_on_c, 0, 90, 84
6, 226613, Control_c, 0, 11, 105
6, 226720, Control_c, 0, 11, 106
6, 226799, Note_on_c, 0, 90, 0
6, 226800, Note_on_c, 0, 91, 84
6, 226827, Control_c, 0, 11, 107
6, 226933, Control_c, 0, 11, 108
6, 227019, Note_on_c, 0, 91, 0
6, 227040, Control_c, 0, 11, 109
6, 227040, Note_on_c, 0, 93, 84
6, 227147, Control_c, 0, 11, 110
6, 227253, Control_c, 0, 11, 111
6, 227279, Note_on_c, 0, 93, 0
6, 227280, Note_on_c, 0, 91, 84
6, 227360, Control_c, 0, 11, 112
6, 227467, Control_c, 0, 11, 113
6, 227519, Note_on_c, 0, 91, 0
6, 227520, Note_on_c, 0, 90, 84
6, 227573, Control_c, 0, 11, 114
6, 227680, Control_c, 0, 11, 115
6, 227759, Note_on_c, 0, 90, 0
6, 227760, Note_on_c, 0, 91, 84
6, 227787, Control_c, 0, 11, 116
6, 227893, Control_c, 0, 11, 117
6, 227999, Note_on_c, 0, 91, 0
6, 228000, Note_on_c, 0, 90, 84
6, 228000, Control_c, 0, 11, 118
6, 228107, Control_c, 0, 11, 119
6, 228213, Control_c, 0, 11, 120
6, 228239, Note_on_c, 0, 90, 0
6, 228240, Note_on_c, 0, 91, 84
6, 228320, Control_c, 0, 11, 121
6, 228427, Control_c, 0, 11, 122
6, 228479, Note_on_c, 0, 91, 0
6, 228480, Note_on_c, 0, 90, 84
6, 228533, Control_c, 0, 11, 123
6, 228640, Control_c, 0, 11, 124
6, 228719, Note_on_c, 0, 90, 0
6, 228720, Note_on_c, 0, 91, 84
6, 228747, Control_c, 0, 11, 125
6, 228853, Control_c, 0, 11, 127
6, 228939, Note_on_c, 0, 91, 0
6, 228960, Note_on_c, 0, 91, 84
6, 228960, Note_on_c, 0, 89, 84
6, 229659, Note_on_c, 0, 91, 0
6, 229659, Note_on_c, 0, 89, 0
6, 229680, Note_on_c, 0, 91, 84
6, 229680, Note_on_c, 0, 89, 84
6, 229899, Note_on_c, 0, 91, 0
6, 229899, Note_on_c, 0, 89, 0
6, 229920, Note_on_c, 0, 88, 84
6, 229920, Note_on_c, 0, 91, 84
6, 230159, Note_on_c, 0, 88, 0
6, 230159, Note_on_c, 0, 91, 0
6, 230400, Note_on_c, 0, 91, 84
6, 230400, Note_on_c, 0, 83, 84
6, 230639, Note_on_c, 0, 91, 0
6, 230639, Note_on_c, 0, 83, 0
6, 230880, Note_on_c, 0, 91, 84
6, 230880, Note_on_c, 0, 84, 84
6, 231119, Note_on_c, 0, 91, 0
6, 231119, Note_on_c, 0, 84, 0
6, 231360, Note_on_c, 0, 84, 84
6, 231360, Note_on_c, 0, 93, 84
6, 231599, Note_on_c, 0, 84, 0
6, 231599, Note_on_c, 0, 93, 0
6, 231840, Note_on_c, 0, 88, 84
6, 231840, Note_on_c, 0, 91, 84
6, 232079, Note_on_c, 0, 88, 0
6, 232079, Note_on_c, 0, 91, 0
6, 232320, Note_on_c, 0, 91, 84
6, 232320, Note_on_c, 0, 83, 84
6, 232439, Note_on_c, 0, 91, 0
6, 232440, Note_on_c, 0, 90, 84
6, 232559, Note_on_c, 0, 83, 0
6, 232559, Note_on_c, 0, 90, 0
6, 232560, Note_on_c, 0, 91, 84
6, 232679, Note_on_c, 0, 91, 0
6, 232680, Note_on_c, 0, 90, 84
6, 232779, Note_on_c, 0, 90, 0
6, 232800, Note_on_c, 0, 89, 84
6, 232800, Note_on_c, 0, 91, 84
6, 233739, Note_on_c, 0, 89, 0
6, 233739, Note_on_c, 0, 91, 0
6, 233760, Note_on_c, 0, 91, 84
6, 233760, Note_on_c, 0, 88, 84
6, 233979, Note_on_c, 0, 91, 0
6, 233979, Note_on_c, 0, 88, 0
6, 234000, Note_on_c, 0, 91, 84
6, 234000, Note_on_c, 0, 88, 84
6, 234239, Note_on_c, 0, 91, 0
6, 234239, Note_on_c, 0, 88, 0
6, 234480, Note_on_c, 0, 83, 84
6, 234480, Note_on_c, 0, 91, 84
6, 234719, Note_on_c, 0, 83, 0
6, 234719, Note_on_c, 0, 91, 0
6, 234960, Note_on_c, 0, 84, 84
6, 234960, Note_on_c, 0, 91, 84
6, 235199, Note_on_c, 0, 84, 0
6, 235199, Note_on_c, 0, 91, 0
6, 235440, Note_on_c, 0, 86, 84
6, 235440, Note_on_c, 0, 89, 84
6, 235679, Note_on_c, 0, 86, 0
6, 235679, Note_on_c, 0, 89, 0
6, 235920, Note_on_c, 0, 91, 84
6, 235920, Note_on_c, 0, 88, 84
6, 236159, Note_on_c, 0, 91, 0
6, 236159, Note_on_c, 0, 88, 0
6, 236400, Note_on_c, 0, 86, 84
6, 236400, Note_on_c, 0, 91, 84
6, 236619, Note_on_c, 0, 86, 0
6, 236619, Note_on_c, 0, 91, 0
6, 236640, Note_on_c, 0, 84, 84
6, 236739, Note_on_c, 0, 84, 0
6, 236760, Note_on_c, 0, 88, 84
6, 236859, Note_on_c, 0, 88, 0
6, 236880, Note_on_c, 0, 88, 84
6, 236979, Note_on_c, 0, 88, 0
6, 237000, Note_on_c, 0, 88, 84
6, 237099, Note_on_c, 0, 88, 0
6, 237120, Note_on_c, 0, 84, 84
6, 237219, Note_on_c, 0, 84, 0
6, 237240, Note_on_c, 0, 79, 84
6, 237339, Note_on_c, 0, 79, 0
6, 237360, Note_on_c, 0, 79, 84
6, 237459, Note_on_c, 0, 79, 0
6, 237480, Note_on_c, 0, 79, 84
6, 237579, Note_on_c, 0, 79, 0
6, 237600, Note_on_c, 0, 76, 84
6, 237699, Note_on_c, 0, 76, 0
6, 237720, Note_on_c, 0, 72, 84
6, 237819, Note_on_c, 0, 72, 0
6, 237840, Note_on_c, 0, 72, 84
6, 237939, Note_on_c, 0, 72, 0
6, 237960, Note_on_c, 0, 72, 84
6, 238059, Note_on_c, 0, 72, 0
6, 238080, Note_on_c, 0, 67, 84
6, 238659, Note_on_c, 0, 67, 0
6, 238680, Note_on_c, 0, 88, 84
6, 238779, Note_on_c, 0, 88, 0
6, 238800, Note_on_c, 0, 88, 84
6, 238899, Note_on_c, 0, 88, 0
6, 238920, Note_on_c, 0, 88, 84
6, 239019, Note_on_c, 0, 88, 0
6, 239040, Note_on_c, 0, 84, 84
6, 239139, Note_on_c, 0, 84, 0
6, 239160, Note_on_c, 0, 79, 84
6, 239259, Note_on_c, 0, 79, 0
6, 239280, Note_on_c, 0, 79, 84
6, 239379, Note_on_c, 0, 79, 0
6, 239400, Note_on_c, 0, 79, 84
6, 239499, Note_on_c, 0, 79, 0
6, 239520, Note_on_c, 0, 76, 84
6, 239619, Note_on_c, 0, 76, 0
6, 239640, Note_on_c, 0, 72, 84
6, 239739, Note_on_c, 0, 72, 0
6, 239760, Note_on_c, 0, 72, 84
6, 239859, Note_on_c, 0, 72, 0
6, 239880, Note_on_c, 0, 72, 84
6, 239979, Note_on_c, 0, 72, 0
6, 240000, Note_on_c, 0, 67, 84
6, 240099, Note_on_c, 0, 67, 0
6, 240120, Note_on_c, 0, 74, 84
6, 240120, Note_on_c, 0, 79, 84
6, 240219, Note_on_c, 0, 74, 0
6, 240219, Note_on_c, 0, 79, 0
6, 240240, Note_on_c, 0, 74, 84
6, 240240, Note_on_c, 0, 79, 84
6, 240339, Note_on_c, 0, 74, 0
6, 240339, Note_on_c, 0, 79, 0
6, 240360, Note_on_c, 0, 79, 84
6, 240360, Note_on_c, 0, 74, 84
6, 240459, Note_on_c, 0, 79, 0
6, 240459, Note_on_c, 0, 74, 0
6, 240480, Note_on_c, 0, 79, 84
6, 240480, Note_on_c, 0, 76, 84
6, 240719, Note_on_c, 0, 79, 0
6, 240719, Note_on_c, 0, 76, 0
6, 241080, Note_on_c, 0, 79, 84
6, 241080, Note_on_c, 0, 74, 84
6, 241179, Note_on_c, 0, 79, 0
6, 241179, Note_on_c, 0, 74, 0
6, 241200, Note_on_c, 0, 79, 84
6, 241200, Note_on_c, 0, 74, 84
6, 241299, Note_on_c, 0, 79, 0
6, 241299, Note_on_c, 0, 74, 0
6, 241320, Note_on_c, 0, 79, 84
6, 241320, Note_on_c, 0, 74, 84
6, 241419, Note_on_c, 0, 79, 0
6, 241419, Note_on_c, 0, 74, 0
6, 241440, Note_on_c, 0, 76, 84
6, 241440, Note_on_c, 0, 79, 84
6, 241679, Note_on_c, 0, 76, 0
6, 241679, Note_on_c, 0, 79, 0
6, 242040, Note_on_c, 0, 83, 84
6, 242040, Note_on_c, 0, 74, 84
6, 242139, Note_on_c, 0, 83, 0
6, 242139, Note_on_c, 0, 74, 0
6, 242160, Note_on_c, 0, 74, 84
6, 242160, Note_on_c, 0, 83, 84
6, 242259, Note_on_c, 0, 74, 0
6, 242259, Note_on_c, 0, 83, 0
6, 242280, Note_on_c, 0, 83, 84
6, 242280, Note_on_c, 0, 74, 84
6, 242379, Note_on_c, 0, 83, 0
6, 242379, Note_on_c, 0, 74, 0
6, 242400, Note_on_c, 0, 84, 84
6, 242400, Note_on_c, 0, 76, 84
6, 242499, Note_on_c, 0, 84, 0
6, 242499, Note_on_c, 0, 76, 0
6, 242520, Note_on_c, 0, 72, 84
6, 242520, Note_on_c, 0, 84, 84
6, 242619, Note_on_c, 0, 72, 0
6, 242619, Note_on_c, 0, 84, 0
6, 242640, Note_on_c, 0, 84, 84
6, 242640, Note_on_c, 0, 72, 84
6, 242739, Note_on_c, 0, 84, 0
6, 242739, Note_on_c, 0, 72, 0
6, 242760, Note_on_c, 0, 72, 84
6, 242760, Note_on_c, 0, 84, 84
6, 242859, Note_on_c, 0, 72, 0
6, 242859, Note_on_c, 0, 84, 0
6, 242880, Note_on_c, 0, 84, 84
6, 242880, Note_on_c, 0, 72, 84
6, 243359, Note_on_c, 0, 84, 0
6, 243359, Note_on_c, 0, 72, 0
6, 243360, Note_on_c, 0, 72, 84
6, 243360, Note_on_c, 0, 84, 84
6, 243459, Note_on_c, 0, 72, 0
6, 243459, Note_on_c, 0, 84, 0
6, 243480, Note_on_c, 0, 84, 84
6, 243480, Note_on_c, 0, 72, 84
6, 243579, Note_on_c, 0, 84, 0
6, 243579, Note_on_c, 0, 72, 0
6, 243600, Note_on_c, 0, 84, 84
6, 243600, Note_on_c, 0, 72, 84
6, 243699, Note_on_c, 0, 84, 0
6, 243699, Note_on_c, 0, 72, 0
6, 243720, Note_on_c, 0, 72, 84
6, 243720, Note_on_c, 0, 84, 84
6, 243819, Note_on_c, 0, 72, 0
6, 243819, Note_on_c, 0, 84, 0
6, 243840, Note_on_c, 0, 84, 84
6, 243840, Note_on_c, 0, 72, 84
6, 244319, Note_on_c, 0, 84, 0
6, 244319, Note_on_c, 0, 72, 0
6, 244320, Note_on_c, 0, 72, 84
6, 244320, Note_on_c, 0, 84, 84
6, 244419, Note_on_c, 0, 72, 0
6, 244419, Note_on_c, 0, 84, 0
6, 244440, Note_on_c, 0, 84, 84
6, 244440, Note_on_c, 0, 72, 84
6, 244539, Note_on_c, 0, 84, 0
6, 244539, Note_on_c, 0, 72, 0
6, 244560, Note_on_c, 0, 72, 84
6, 244560, Note_on_c, 0, 84, 84
6, 244659, Note_on_c, 0, 72, 0
6, 244659, Note_on_c, 0, 84, 0
6, 244680, Note_on_c, 0, 84, 84
6, 244680, Note_on_c, 0, 72, 84
6, 244779, Note_on_c, 0, 84, 0
6, 244779, Note_on_c, 0, 72, 0
6, 244800, Note_on_c, 0, 84, 84
6, 244800, Note_on_c, 0, 72, 84
6, 245279, Note_on_c, 0, 84, 0
6, 245279, Note_on_c, 0, 72, 0
6, 245280, Note_on_c, 0, 72, 84
6, 245280, Note_on_c, 0, 84, 84
6, 245379, Note_on_c, 0, 72, 0
6, 245379, Note_on_c, 0, 84, 0
6, 245400, Note_on_c, 0, 84, 84
6, 245400, Note_on_c, 0, 72, 84
6, 245499, Note_on_c, 0, 84, 0
6, 245499, Note_on_c, 0, 72, 0
6, 245520, Note_on_c, 0, 72, 84
6, 245520, Note_on_c, 0, 84, 84
6, 245619, Note_on_c, 0, 72, 0
6, 245619, Note_on_c, 0, 84, 0
6, 245640, Note_on_c, 0, 84, 84
6, 245640, Note_on_c, 0, 72, 84
6, 245739, Note_on_c, 0, 84, 0
6, 245739, Note_on_c, 0, 72, 0
6, 245760, Note_on_c, 0, 72, 84
6, 245760, Note_on_c, 0, 84, 84
6, 246219, Note_on_c, 0, 72, 0
6, 246219, Note_on_c, 0, 84, 0
6, 246240, Note_on_c, 0, 85, 84
6, 246240, Note_on_c, 0, 80, 84
6, 248139, Note_on_c, 0, 85, 0
6, 248139, Note_on_c, 0, 80, 0
6, 248160, Note_on_c, 0, 85, 84
6, 248160, Note_on_c, 0, 80, 84
6, 248399, Note_on_c, 0, 85, 0
6, 248399, Note_on_c, 0, 80, 0
6, 250200, Note_on_c, 0, 87, 84
6, 250200, Note_on_c, 0, 84, 84
6, 250299, Note_on_c, 0, 87, 0
6, 250299, Note_on_c, 0, 84, 0
6, 250320, Note_on_c, 0, 84, 84
6, 250320, Note_on_c, 0, 87, 84
6, 250419, Note_on_c, 0, 84, 0
6, 250419, Note_on_c, 0, 87, 0
6, 250440, Note_on_c, 0, 84, 84
6, 250440, Note_on_c, 0, 87, 84
6, 250539, Note_on_c, 0, 84, 0
6, 250539, Note_on_c, 0, 87, 0
6, 250560, Note_on_c, 0, 87, 84
6, 250560, Note_on_c, 0, 84, 84
6, 252459, Note_on_c, 0, 87, 0
6, 252459, Note_on_c, 0, 84, 0
6, 252480, Note_on_c, 0, 84, 84
6, 252480, Note_on_c, 0, 87, 84
6, 252719, Note_on_c, 0, 84, 0
6, 252719, Note_on_c, 0, 87, 0
6, 253080, Note_on_c, 0, 84, 84
6, 253179, Note_on_c, 0, 84, 0
6, 253200, Note_on_c, 0, 84, 84
6, 253299, Note_on_c, 0, 84, 0
6, 253320, Note_on_c, 0, 84, 84
6, 253419, Note_on_c, 0, 84, 0
6, 253440, Note_on_c, 0, 87, 84
6, 253679, Note_on_c, 0, 87, 0
6, 255360, Note_on_c, 0, 83, 76
6, 255360, Note_on_c, 0, 89, 76
6, 256319, Note_on_c, 0, 83, 0
6, 256319, Note_on_c, 0, 89, 0
6, 257280, Note_on_c, 0, 83, 76
6, 257280, Note_on_c, 0, 89, 76
6, 258239, Note_on_c, 0, 83, 0
6, 258239, Note_on_c, 0, 89, 0
6, 259200, Note_on_c, 0, 87, 76
6, 259419, Note_on_c, 0, 87, 0
6, 259440, Note_on_c, 0, 89, 76
6, 259659, Note_on_c, 0, 89, 0
6, 259680, Note_on_c, 0, 86, 76
6, 259899, Note_on_c, 0, 86, 0
6, 259920, Note_on_c, 0, 87, 76
6, 260139, Note_on_c, 0, 87, 0
6, 260160, Note_on_c, 0, 84, 76
6, 260379, Note_on_c, 0, 84, 0
6, 260400, Note_on_c, 0, 86, 76
6, 260619, Note_on_c, 0, 86, 0
6, 260640, Note_on_c, 0, 82, 76
6, 260859, Note_on_c, 0, 82, 0
6, 260880, Note_on_c, 0, 84, 76
6, 261099, Note_on_c, 0, 84, 0
6, 261120, Note_on_c, 0, 80, 76
6, 261339, Note_on_c, 0, 80, 0
6, 261360, Note_on_c, 0, 82, 76
6, 261579, Note_on_c, 0, 82, 0
6, 261600, Note_on_c, 0, 79, 76
6, 261819, Note_on_c, 0, 79, 0
6, 261840, Note_on_c, 0, 80, 76
6, 262059, Note_on_c, 0, 80, 0
6, 262080, Note_on_c, 0, 77, 76
6, 262299, Note_on_c, 0, 77, 0
6, 262320, Note_on_c, 0, 79, 76
6, 262539, Note_on_c, 0, 79, 0
6, 262560, Note_on_c, 0, 79, 76
6, 262779, Note_on_c, 0, 79, 0
6, 262800, Note_on_c, 0, 79, 76
6, 263019, Note_on_c, 0, 79, 0
6, 263040, Note_on_c, 0, 79, 76
6, 263259, Note_on_c, 0, 79, 0
6, 263280, Note_on_c, 0, 79, 76
6, 263499, Note_on_c, 0, 79, 0
6, 263520, Note_on_c, 0, 79, 76
6, 263739, Note_on_c, 0, 79, 0
6, 263760, Note_on_c, 0, 84, 76
6, 263979, Note_on_c, 0, 84, 0
6, 264000, Note_on_c, 0, 84, 76
6, 264219, Note_on_c, 0, 84, 0
6, 264240, Note_on_c, 0, 84, 76
6, 264459, Note_on_c, 0, 84, 0
6, 264480, Note_on_c, 0, 84, 76
6, 264699, Note_on_c, 0, 84, 0
6, 264720, Note_on_c, 0, 89, 76
6, 264720, Note_on_c, 0, 83, 76
6, 264939, Note_on_c, 0, 89, 0
6, 264939, Note_on_c, 0, 83, 0
6, 264960, Note_on_c, 0, 84, 76
6, 264960, Note_on_c, 0, 89, 76
6, 265179, Note_on_c, 0, 84, 0
6, 265179, Note_on_c, 0, 89, 0
6, 265200, Note_on_c, 0, 89, 76
6, 265200, Note_on_c, 0, 83, 76
6, 265419, Note_on_c, 0, 89, 0
6, 265419, Note_on_c, 0, 83, 0
6, 265440, Note_on_c, 0, 89, 76
6, 265440, Note_on_c, 0, 84, 76
6, 265659, Note_on_c, 0, 89, 0
6, 265659, Note_on_c, 0, 84, 0
6, 265680, Note_on_c, 0, 86, 76
6, 265680, Note_on_c, 0, 89, 76
6, 265899, Note_on_c, 0, 86, 0
6, 265899, Note_on_c, 0, 89, 0
6, 265920, Note_on_c, 0, 84, 76
6, 265920, Note_on_c, 0, 87, 76
6, 266859, Note_on_c, 0, 84, 0
6, 266859, Note_on_c, 0, 87, 0
6, 266880, Note_on_c, 0, 89, 76
6, 266880, Note_on_c, 0, 84, 76
6, 267819, Note_on_c, 0, 89, 0
6, 267819, Note_on_c, 0, 84, 0
6, 267840, Note_on_c, 0, 91, 76
6, 267840, Note_on_c, 0, 84, 76
6, 268779, Note_on_c, 0, 91, 0
6, 268779, Note_on_c, 0, 84, 0
6, 268800, Note_on_c, 0, 89, 76
6, 268800, Note_on_c, 0, 84, 76
6, 269739, Note_on_c, 0, 89, 0
6, 269739, Note_on_c, 0, 84, 0
6, 269760, Note_on_c, 0, 89, 76
6, 269760, Note_on_c, 0, 86, 76
6, 270219, Note_on_c, 0, 89, 0
6, 270219, Note_on_c, 0, 86, 0
6, 270240, Note_on_c, 0, 91, 76
6, 270240, Note_on_c, 0, 86, 76
6, 270699, Note_on_c, 0, 91, 0
6, 270699, Note_on_c, 0, 86, 0
6, 270720, Note_on_c, 0, 87, 76
6, 270720, Note_on_c, 0, 91, 76
6, 270899, Note_on_c, 0, 87, 0
6, 270899, Note_on_c, 0, 91, 0
6, 271200, Note_on_c, 0, 92, 76
6, 271200, Note_on_c, 0, 87, 76
6, 271379, Note_on_c, 0, 92, 0
6, 271379, Note_on_c, 0, 87, 0
6, 271680, Note_on_c, 0, 86, 76
6, 271680, Note_on_c, 0, 92, 76
6, 271859, Note_on_c, 0, 86, 0
6, 271859, Note_on_c, 0, 92, 0
6, 272160, Note_on_c, 0, 92, 76
6, 272160, Note_on_c, 0, 86, 76
6, 272339, Note_on_c, 0, 92, 0
6, 272339, Note_on_c, 0, 86, 0
6, 272640, Note_on_c, 0, 91, 76
6, 272640, Note_on_c, 0, 86, 76
6, 272819, Note_on_c, 0, 91, 0
6, 272819, Note_on_c, 0, 86, 0
6, 273120, Note_on_c, 0, 86, 76
6, 273120, Note_on_c, 0, 91, 76
6, 273299, Note_on_c, 0, 86, 0
6, 273299, Note_on_c, 0, 91, 0
6, 273600, Note_on_c, 0, 84, 84
6, 274059, Note_on_c, 0, 84, 0
6, 274080, Note_on_c, 0, 86, 84
6, 274259, Note_on_c, 0, 86, 0
6, 274320, Note_on_c, 0, 87, 84
6, 274499, Note_on_c, 0, 87, 0
6, 274560, Note_on_c, 0, 89, 84
6, 274799, Note_on_c, 0, 89, 0
6, 274800, Note_on_c, 0, 86, 84
6, 275039, Note_on_c, 0, 86, 0
6, 276000, Note_on_c, 0, 77, 84
6, 276000, Note_on_c, 0, 89, 84
6, 276179, Note_on_c, 0, 77, 0
6, 276179, Note_on_c, 0, 89, 0
6, 276240, Note_on_c, 0, 91, 84
6, 276240, Note_on_c, 0, 79, 84
6, 276419, Note_on_c, 0, 91, 0
6, 276419, Note_on_c, 0, 79, 0
6, 276480, Note_on_c, 0, 80, 84
6, 276480, Note_on_c, 0, 92, 84
6, 276719, Note_on_c, 0, 80, 0
6, 276719, Note_on_c, 0, 92, 0
6, 276720, Note_on_c, 0, 89, 84
6, 276720, Note_on_c, 0, 77, 84
6, 276959, Note_on_c, 0, 89, 0
6, 276959, Note_on_c, 0, 77, 0
6, 277920, Note_on_c, 0, 81, 84
6, 277920, Note_on_c, 0, 84, 84
6, 278099, Note_on_c, 0, 81, 0
6, 278099, Note_on_c, 0, 84, 0
6, 278160, Note_on_c, 0, 86, 84
6, 278160, Note_on_c, 0, 83, 84
6, 278339, Note_on_c, 0, 86, 0
6, 278339, Note_on_c, 0, 83, 0
6, 278400, Note_on_c, 0, 87, 84
6, 278400, Note_on_c, 0, 84, 84
6, 278639, Note_on_c, 0, 87, 0
6, 278639, Note_on_c, 0, 84, 0
6, 278640, Note_on_c, 0, 79, 84
6, 278640, Note_on_c, 0, 84, 84
6, 278879, Note_on_c, 0, 79, 0
6, 278879, Note_on_c, 0, 84, 0
6, 279840, Note_on_c, 0, 84, 84
6, 279840, Note_on_c, 0, 81, 84
6, 280019, Note_on_c, 0, 84, 0
6, 280019, Note_on_c, 0, 81, 0
6, 280080, Note_on_c, 0, 83, 84
6, 280080, Note_on_c, 0, 86, 84
6, 280259, Note_on_c, 0, 83, 0
6, 280259, Note_on_c, 0, 86, 0
6, 280320, Note_on_c, 0, 87, 84
6, 280320, Note_on_c, 0, 84, 84
6, 280559, Note_on_c, 0, 87, 0
6, 280559, Note_on_c, 0, 84, 0
6, 280560, Note_on_c, 0, 82, 84
6, 280560, Note_on_c, 0, 86, 84
6, 280799, Note_on_c, 0, 82, 0
6, 280799, Note_on_c, 0, 86, 0
6, 280800, Note_on_c, 0, 84, 84
6, 280800, Note_on_c, 0, 80, 84
6, 281039, Note_on_c, 0, 84, 0
6, 281039, Note_on_c, 0, 80, 0
6, 281040, Note_on_c, 0, 82, 84
6, 281040, Note_on_c, 0, 79, 84
6, 281279, Note_on_c, 0, 82, 0
6, 281279, Note_on_c, 0, 79, 0
6, 281280, Note_on_c, 0, 77, 84
6, 281280, Note_on_c, 0, 80, 84
6, 281519, Note_on_c, 0, 77, 0
6, 281519, Note_on_c, 0, 80, 0
6, 281520, Note_on_c, 0, 79, 84
6, 281520, Note_on_c, 0, 75, 84
6, 281759, Note_on_c, 0, 79, 0
6, 281759, Note_on_c, 0, 75, 0
6, 282240, Note_on_c, 0, 80, 92
6, 282240, Note_on_c, 0, 77, 92
6, 282479, Note_on_c, 0, 80, 0
6, 282479, Note_on_c, 0, 77, 0
6, 282480, Note_on_c, 0, 75, 84
6, 282480, Note_on_c, 0, 79, 84
6, 282699, Note_on_c, 0, 75, 0
6, 282699, Note_on_c, 0, 79, 0
6, 282720, Note_on_c, 0, 89, 84
6, 282720, Note_on_c, 0, 92, 84
6, 282959, Note_on_c, 0, 89, 0
6, 282959, Note_on_c, 0, 92, 0
6, 282960, Note_on_c, 0, 91, 84
6, 282960, Note_on_c, 0, 87, 84
6, 283199, Note_on_c, 0, 91, 0
6, 283199, Note_on_c, 0, 87, 0
6, 283440, Note_on_c, 0, 91, 84
6, 283440, Note_on_c, 0, 84, 84
6, 283679, Note_on_c, 0, 91, 0
6, 283679, Note_on_c, 0, 84, 0
6, 283920, Note_on_c, 0, 86, 84
6, 283920, Note_on_c, 0, 91, 84
6, 284159, Note_on_c, 0, 86, 0
6, 284159, Note_on_c, 0, 91, 0
6, 285600, Note_on_c, 0, 80, 84
6, 285839, Note_on_c, 0, 80, 0
6, 285840, Note_on_c, 0, 79, 84
6, 286079, Note_on_c, 0, 79, 0
6, 286560, Note_on_c, 0, 89, 84
6, 286560, Note_on_c, 0, 92, 84
6, 286799, Note_on_c, 0, 89, 0
6, 286799, Note_on_c, 0, 92, 0
6, 286800, Note_on_c, 0, 91, 84
6, 286800, Note_on_c, 0, 87, 84
6, 287039, Note_on_c, 0, 91, 0
6, 287039, Note_on_c, 0, 87, 0
6, 287280, Note_on_c, 0, 87, 84
6, 287280, Note_on_c, 0, 91, 84
6, 287519, Note_on_c, 0, 87, 0
6, 287519, Note_on_c, 0, 91, 0
6, 287760, Note_on_c, 0, 91, 84
6, 287760, Note_on_c, 0, 86, 84
6, 287979, Note_on_c, 0, 91, 0
6, 287979, Note_on_c, 0, 86, 0
6, 288000, Note_on_c, 0, 84, 84
6, 288239, Note_on_c, 0, 84, 0
6, 288600, Note_on_c, 0, 91, 84
6, 288600, Note_on_c, 0, 86, 84
6, 288719, Note_on_c, 0, 91, 0
6, 288719, Note_on_c, 0, 86, 0
6, 288720, Note_on_c, 0, 86, 84
6, 288720, Note_on_c, 0, 91, 84
6, 288839, Note_on_c, 0, 86, 0
6, 288839, Note_on_c, 0, 91, 0
6, 288840, Note_on_c, 0, 91, 84
6, 288840, Note_on_c, 0, 86, 84
6, 288959, Note_on_c, 0, 91, 0
6, 288959, Note_on_c, 0, 86, 0
6, 288960, Note_on_c, 0, 91, 84
6, 288960, Note_on_c, 0, 86, 84
6, 289679, Note_on_c, 0, 86, 0
6, 289680, Note_on_c, 0, 87, 84
6, 289919, Note_on_c, 0, 87, 0
6, 289920, Note_on_c, 0, 89, 84
6, 290159, Note_on_c, 0, 89, 0
6, 290160, Note_on_c, 0, 86, 84
6, 290399, Note_on_c, 0, 86, 0
6, 290400, Note_on_c, 0, 87, 84
6, 290639, Note_on_c, 0, 87, 0
6, 290640, Note_on_c, 0, 89, 84
6, 290859, Note_on_c, 0, 91, 0
6, 290859, Note_on_c, 0, 89, 0
6, 290880, Note_on_c, 0, 91, 84
6, 290880, Note_on_c, 0, 87, 84
6, 291119, Note_on_c, 0, 91, 0
6, 291119, Note_on_c, 0, 87, 0
6, 291480, Note_on_c, 0, 79, 84
6, 291480, Note_on_c, 0, 91, 84
6, 291579, Note_on_c, 0, 79, 0
6, 291579, Note_on_c, 0, 91, 0
6, 291600, Note_on_c, 0, 79, 84
6, 291600, Note_on_c, 0, 91, 84
6, 291699, Note_on_c, 0, 79, 0
6, 291699, Note_on_c, 0, 91, 0
6, 291720, Note_on_c, 0, 79, 84
6, 291720, Note_on_c, 0, 91, 84
6, 291819, Note_on_c, 0, 79, 0
6, 291819, Note_on_c, 0, 91, 0
6, 291840, Note_on_c, 0, 91, 84
6, 291840, Note_on_c, 0, 79, 84
6, 291939, Note_on_c, 0, 91, 0
6, 291939, Note_on_c, 0, 79, 0
6, 291960, Note_on_c, 0, 79, 84
6, 291960, Note_on_c, 0, 91, 84
6, 292059, Note_on_c, 0, 79, 0
6, 292059, Note_on_c, 0, 91, 0
6, 292080, Note_on_c, 0, 91, 84
6, 292080, Note_on_c, 0, 79, 84
6, 292179, Note_on_c, 0, 91, 0
6, 292179, Note_on_c, 0, 79, 0
6, 292200, Note_on_c, 0, 91, 84
6, 292200, Note_on_c, 0, 79, 84
6, 292299, Note_on_c, 0, 91, 0
6, 292299, Note_on_c, 0, 79, 0
6, 292320, Note_on_c, 0, 79, 84
6, 292320, Note_on_c, 0, 91, 84
6, 292419, Note_on_c, 0, 79, 0
6, 292419, Note_on_c, 0, 91, 0
6, 292440, Note_on_c, 0, 79, 84
6, 292440, Note_on_c, 0, 91, 84
6, 292539, Note_on_c, 0, 79, 0
6, 292539, Note_on_c, 0, 91, 0
6, 292560, Note_on_c, 0, 91, 84
6, 292560, Note_on_c, 0, 79, 84
6, 292659, Note_on_c, 0, 91, 0
6, 292659, Note_on_c, 0, 79, 0
6, 292680, Note_on_c, 0, 91, 84
6, 292680, Note_on_c, 0, 79, 84
6, 292779, Note_on_c, 0, 91, 0
6, 292779, Note_on_c, 0, 79, 0
6, 292800, Note_on_c, 0, 91, 84
6, 292800, Note_on_c, 0, 87, 84
6, 294219, Note_on_c, 0, 91, 0
6, 294219, Note_on_c, 0, 87, 0
6, 294360, Note_on_c, 0, 91, 84
6, 294360, Note_on_c, 0, 89, 84
6, 294459, Note_on_c, 0, 91, 0
6, 294459, Note_on_c, 0, 89, 0
6, 294480, Note_on_c, 0, 91, 84
6, 294480, Note_on_c, 0, 89, 84
6, 294579, Note_on_c, 0, 91, 0
6, 294579, Note_on_c, 0, 89, 0
6, 294600, Note_on_c, 0, 89, 84
6, 294600, Note_on_c, 0, 91, 84
6, 294699, Note_on_c, 0, 89, 0
6, 294699, Note_on_c, 0, 91, 0
6, 294720, Note_on_c, 0, 91, 84
6, 294720, Note_on_c, 0, 86, 84
6, 296639, Note_on_c, 0, 91, 0
6, 296639, Note_on_c, 0, 86, 0
6, 300600, Note_on_c, 0, 83, 84
6, 300600, Note_on_c, 0, 86, 84
6, 300699, Note_on_c, 0, 83, 0
6, 300699, Note_on_c, 0, 86, 0
6, 300720, Note_on_c, 0, 86, 84
6, 300720, Note_on_c, 0, 83, 84
6, 300819, Note_on_c, 0, 86, 0
6, 300819, Note_on_c, 0, 83, 0
6, 300840, Note_on_c, 0, 86, 84
6, 300840, Note_on_c, 0, 83, 84
6, 300939, Note_on_c, 0, 86, 0
6, 300939, Note_on_c, 0, 83, 0
6, 300960, Note_on_c, 0, 84, 84
6, 300960, Note_on_c, 0, 87, 84
6, 301199, Note_on_c, 0, 84, 0
6, 301199, Note_on_c, 0, 87, 0
6, 301560, Note_on_c, 0, 86, 84
6, 301560, Note_on_c, 0, 83, 84
6, 301659, Note_on_c, 0, 86, 0
6, 301659, Note_on_c, 0, 83, 0
6, 301680, Note_on_c, 0, 83, 84
6, 301680, Note_on_c, 0, 86, 84
6, 301779, Note_on_c, 0, 83, 0
6, 301779, Note_on_c, 0, 86, 0
6, 301800, Note_on_c, 0, 86, 84
6, 301800, Note_on_c, 0, 83, 84
6, 301899, Note_on_c, 0, 86, 0
6, 301899, Note_on_c, 0, 83, 0
6, 301920, Note_on_c, 0, 84, 84
6, 301920, Note_on_c, 0, 87, 84
6, 302159, Note_on_c, 0, 84, 0
6, 302159, Note_on_c, 0, 87, 0
6, 302520, Note_on_c, 0, 86, 84
6, 302520, Note_on_c, 0, 83, 84
6, 302619, Note_on_c, 0, 86, 0
6, 302619, Note_on_c, 0, 83, 0
6, 302640, Note_on_c, 0, 86, 84
6, 302640, Note_on_c, 0, 83, 84
6, 302739, Note_on_c, 0, 86, 0
6, 302739, Note_on_c, 0, 83, 0
6, 302760, Note_on_c, 0, 83, 84
6, 302760, Note_on_c, 0, 86, 84
6, 302859, Note_on_c, 0, 83, 0
6, 302859, Note_on_c, 0, 86, 0
6, 302880, Note_on_c, 0, 87, 84
6, 302880, Note_on_c, 0, 84, 84
6, 303099, Note_on_c, 0, 87, 0
6, 303099, Note_on_c, 0, 84, 0
6, 303120, Note_on_c, 0, 86, 84
6, 303120, Note_on_c, 0, 91, 84
6, 303339, Note_on_c, 0, 86, 0
6, 303339, Note_on_c, 0, 91, 0
6, 303360, Note_on_c, 0, 91, 84
6, 303360, Note_on_c, 0, 87, 84
6, 303579, Note_on_c, 0, 91, 0
6, 303579, Note_on_c, 0, 87, 0
6, 303600, Note_on_c, 0, 86, 84
6, 303600, Note_on_c, 0, 91, 84
6, 303819, Note_on_c, 0, 86, 0
6, 303819, Note_on_c, 0, 91, 0
6, 303840, Note_on_c, 0, 91, 84
6, 303840, Note_on_c, 0, 87, 84
6, 304059, Note_on_c, 0, 91, 0
6, 304059, Note_on_c, 0, 87, 0
6, 304080, Note_on_c, 0, 91, 84
6, 304080, Note_on_c, 0, 86, 84
6, 304299, Note_on_c, 0, 91, 0
6, 304299, Note_on_c, 0, 86, 0
6, 304320, Note_on_c, 0, 87, 84
6, 304320, Note_on_c, 0, 91, 84
6, 304539, Note_on_c, 0, 87, 0
6, 304539, Note_on_c, 0, 91, 0
6, 304560, Note_on_c, 0, 91, 84
6, 304560, Note_on_c, 0, 86, 84
6, 304779, Note_on_c, 0, 91, 0
6, 304779, Note_on_c, 0, 86, 0
6, 304800, Note_on_c, 0, 87, 84
6, 304800, Note_on_c, 0, 91, 84
6, 305039, Note_on_c, 0, 87, 0
6, 305039, Note_on_c, 0, 91, 0
6, 305280, Note_on_c, 0, 83, 84
6, 305280, Note_on_c, 0, 79, 84
6, 305519, Note_on_c, 0, 83, 0
6, 305519, Note_on_c, 0, 79, 0
6, 305760, Note_on_c, 0, 79, 84
6, 305760, Note_on_c, 0, 84, 84
6, 305999, Note_on_c, 0, 79, 0
6, 305999, Note_on_c, 0, 84, 0
6, 305999, End_track
7, 0, Start_track
7, 0, Title_t, "Oboe"
7, 0, MIDI_port, 0
7, 0, Program_c, 1, 68
7, 0, Control_c, 1, 7, 80
7, 0, Control_c, 1, 10, 70
7, 0, Control_c, 1, 11, 127
7, 8280, Note_on_c, 1, 74, 58
7, 8280, Note_on_c, 1, 79, 58
7, 8379, Note_on_c, 1, 74, 0
7, 8379, Note_on_c, 1, 79, 0
7, 8400, Note_on_c, 1, 79, 64
7, 8400, Note_on_c, 1, 74, 64
7, 8499, Note_on_c, 1, 79, 0
7, 8499, Note_on_c, 1, 74, 0
7, 8520, Note_on_c, 1, 77, 70
7, 8520, Note_on_c, 1, 74, 70
7, 8619, Note_on_c, 1, 77, 0
7, 8619, Note_on_c, 1, 74, 0
7, 8640, Note_on_c, 1, 75, 76
7, 8640, Note_on_c, 1, 72, 76
7, 8879, Note_on_c, 1, 75, 0
7, 8879, Note_on_c, 1, 72, 0
7, 9120, Note_on_c, 1, 78, 76
7, 9120, Note_on_c, 1, 72, 76
7, 9359, Note_on_c, 1, 78, 0
7, 9359, Note_on_c, 1, 72, 0
7, 9600, Note_on_c, 1, 71, 76
7, 9600, Note_on_c, 1, 79, 76
7, 9839, Note_on_c, 1, 71, 0
7, 9839, Note_on_c, 1, 79, 0
7, 10200, Note_on_c, 1, 80, 84
7, 10299, Note_on_c, 1, 80, 0
7, 10320, Note_on_c, 1, 80, 84
7, 10419, Note_on_c, 1, 80, 0
7, 10440, Note_on_c, 1, 80, 84
7, 10539, Note_on_c, 1, 80, 0
7, 10560, Note_on_c, 1, 77, 84
7, 11519, Note_on_c, 1, 77, 0
7, 15000, Note_on_c, 1, 77, 52
7, 15099, Note_on_c, 1, 77, 0
7, 15120, Note_on_c, 1, 77, 52
7, 15219, Note_on_c, 1, 77, 0
7, 15240, Note_on_c, 1, 77, 52
7, 15339, Note_on_c, 1, 77, 0
7, 15360, Note_on_c, 1, 75, 52
7, 15599, Note_on_c, 1, 75, 0
7, 16720, Control_c, 1, 11, 102
7, 16800, Note_on_c, 1, 79, 68
7, 16800, Note_on_c, 1, 75, 68
7, 16800, Control_c, 1, 11, 104
7, 16880, Control_c, 1, 11, 105
7, 16960, Control_c, 1, 11, 107
7, 17040, Control_c, 1, 11, 109
7, 17120, Control_c, 1, 11, 111
7, 17200, Control_c, 1, 11, 113
7, 17280, Control_c, 1, 11, 115
7, 17360, Control_c, 1, 11, 117
7, 17440, Control_c, 1, 11, 119
7, 17519, Note_on_c, 1, 79, 0
7, 17519, Note_on_c, 1, 75, 0
7, 17520, Control_c, 1, 11, 121
7, 17600, Control_c, 1, 11, 123
7, 17680, Control_c, 1, 11, 127
7, 17760, Note_on_c, 1, 80, 76
7, 17760, Note_on_c, 1, 77, 76
7, 17999, Note_on_c, 1, 80, 0
7, 17999, Note_on_c, 1, 77, 0
7, 18240, Note_on_c, 1, 79, 76
7, 18240, Note_on_c, 1, 76, 76
7, 18479, Note_on_c, 1, 79, 0
7, 18479, Note_on_c, 1, 76, 0
7, 18720, Note_on_c, 1, 80, 76
7, 18720, Note_on_c, 1, 77, 76
7, 18959, Note_on_c, 1, 80, 0
7, 18959, Note_on_c, 1, 77, 0
7, 19200, Note_on_c, 1, 82, 76
7, 19200, Note_on_c, 1, 79, 76
7, 19439, Note_on_c, 1, 82, 0
7, 19439, Note_on_c, 1, 79, 0
7, 19680, Note_on_c, 1, 77, 76
7, 19680, Note_on_c, 1, 80, 76
7, 19919, Note_on_c, 1, 77, 0
7, 19919, Note_on_c, 1, 80, 0
7, 20160, Note_on_c, 1, 77, 76
7, 20160, Note_on_c, 1, 80, 76
7, 20399, Note_on_c, 1, 77, 0
7, 20399, Note_on_c, 1, 80, 0
7, 20640, Note_on_c, 1, 79, 76
7, 20640, Note_on_c, 1, 75, 76
7, 22539, Note_on_c, 1, 79, 0
7, 22539, Note_on_c, 1, 75, 0
7, 22560, Note_on_c, 1, 79, 76
7, 22560, Note_on_c, 1, 77, 76
7, 24219, Note_on_c, 1, 79, 0
7, 24219, Note_on_c, 1, 77, 0
7, 24240, Note_on_c, 1, 75, 76
7, 24240, Note_on_c, 1, 79, 76
7, 24459, Note_on_c, 1, 75, 0
7, 24459, Note_on_c, 1, 79, 0
7, 24480, Note_on_c, 1, 75, 84
7, 24480, Note_on_c, 1, 78, 84
7, 26379, Note_on_c, 1, 75, 0
7, 26379, Note_on_c, 1, 78, 0
7, 26400, Note_on_c, 1, 78, 84
7, 26400, Note_on_c, 1, 75, 84
7, 26639, Note_on_c, 1, 78, 0
7, 26639, Note_on_c, 1, 75, 0
7, 27360, Note_on_c, 1, 77, 84
7, 27360, Note_on_c, 1, 70, 84
7, 27599, Note_on_c, 1, 77, 0
7, 27599, Note_on_c, 1, 70, 0
7, 39360, Control_c, 1, 11, 64
7, 39840, Control_c, 1, 11, 64
7, 39840, Note_on_c, 1, 84, 84
7, 39940, Control_c, 1, 11, 65
7, 40040, Control_c, 1, 11, 67
7, 40140, Control_c, 1, 11, 68
7, 40240, Control_c, 1, 11, 69
7, 40340, Control_c, 1, 11, 71
7, 40440, Control_c, 1, 11, 72
7, 40540, Control_c, 1, 11, 73
7, 40640, Control_c, 1, 11, 75
7, 40740, Control_c, 1, 11, 76
7, 40779, Note_on_c, 1, 84, 0
7, 40800, Note_on_c, 1, 82, 84
7, 40840, Control_c, 1, 11, 77
7, 40940, Control_c, 1, 11, 78
7, 41040, Control_c, 1, 11, 80
7, 41140, Control_c, 1, 11, 81
7, 41240, Control_c, 1, 11, 82
7, 41340, Control_c, 1, 11, 84
7, 41440, Control_c, 1, 11, 85
7, 41540, Control_c, 1, 11, 86
7, 41640, Control_c, 1, 11, 88
7, 41739, Note_on_c, 1, 82, 0
7, 41740, Control_c, 1, 11, 89
7, 41760, Note_on_c, 1, 81, 84
7, 41840, Control_c, 1, 11, 90
7, 41940, Control_c, 1, 11, 92
7, 42040, Control_c, 1, 11, 93
7, 42140, Control_c, 1, 11, 94
7, 42240, Control_c, 1, 11, 96
7, 42340, Control_c, 1, 11, 97
7, 42440, Control_c, 1, 11, 98
7, 42540, Control_c, 1, 11, 99
7, 42640, Control_c, 1, 11, 101
7, 42740, Control_c, 1, 11, 102
7, 42840, Control_c, 1, 11, 103
7, 42940, Control_c, 1, 11, 105
7, 43040, Control_c, 1, 11, 106
7, 43140, Control_c, 1, 11, 107
7, 43240, Control_c, 1, 11, 109
7, 43340, Control_c, 1, 11, 110
7, 43440, Control_c, 1, 11, 111
7, 43540, Control_c, 1, 11, 113
7, 43640, Control_c, 1, 11, 114
7, 43740, Control_c, 1, 11, 115
7, 43840, Control_c, 1, 11, 117
7, 43899, Note_on_c, 1, 81, 0
7, 43920, Note_on_c, 1, 81, 84
7, 43940, Control_c, 1, 11, 118
7, 44040, Control_c, 1, 11, 119
7, 44139, Note_on_c, 1, 81, 0
7, 44140, Control_c, 1, 11, 120
7, 44160, Note_on_c, 1, 81, 84
7, 44240, Control_c, 1, 11, 122
7, 44340, Control_c, 1, 11, 123
7, 44379, Note_on_c, 1, 81, 0
7, 44400, Note_on_c, 1, 81, 84
7, 44440, Control_c, 1, 11, 124
7, 44540, Control_c, 1, 11, 127
7, 44619, Note_on_c, 1, 81, 0
7, 44640, Note_on_c, 1, 77, 84
7, 44640, Note_on_c, 1, 80, 84
7, 45339, Note_on_c, 1, 77, 0
7, 45339, Note_on_c, 1, 80, 0
7, 45360, Note_on_c, 1, 80, 84
7, 45360, Note_on_c, 1, 77, 84
7, 45579, Note_on_c, 1, 80, 0
7, 45579, Note_on_c, 1, 77, 0
7, 45600, Note_on_c, 1, 79, 84
7, 45600, Note_on_c, 1, 75, 84
7, 45839, Note_on_c, 1, 79, 0
7, 45839, Note_on_c, 1, 75, 0
7, 46080, Note_on_c, 1, 80, 84
7, 46319, Note_on_c, 1, 80, 0
7, 46560, Note_on_c, 1, 75, 84
7, 46560, Note_on_c, 1, 82, 84
7, 46799, Note_on_c, 1, 75, 0
7, 46799, Note_on_c, 1, 82, 0
7, 47040, Note_on_c, 1, 75, 84
7, 47040, Note_on_c, 1, 84, 84
7, 47279, Note_on_c, 1, 75, 0
7, 47279, Note_on_c, 1, 84, 0
7, 47520, Note_on_c, 1, 75, 84
7, 47520, Note_on_c, 1, 79, 84
7, 47759, Note_on_c, 1, 75, 0
7, 47759, Note_on_c, 1, 79, 0
7, 48000, Note_on_c, 1, 77, 84
7, 48000, Note_on_c, 1, 74, 84
7, 48239, Note_on_c, 1, 77, 0
7, 48239, Note_on_c, 1, 74, 0
7, 48480, Note_on_c, 1, 77, 84
7, 48480, Note_on_c, 1, 80, 84
7, 49419, Note_on_c, 1, 77, 0
7, 49419, Note_on_c, 1, 80, 0
7, 49440, Note_on_c, 1, 75, 84
7, 49440, Note_on_c, 1, 79, 84
7, 49659, Note_on_c, 1, 75, 0
7, 49659, Note_on_c, 1, 79, 0
7, 49680, Note_on_c, 1, 79, 84
7, 49680, Note_on_c, 1, 75, 84
7, 49919, Note_on_c, 1, 79, 0
7, 49919, Note_on_c, 1, 75, 0
7, 50160, Note_on_c, 1, 74, 84
7, 50160, Note_on_c, 1, 77, 84
7, 50399, Note_on_c, 1, 74, 0
7, 50399, Note_on_c, 1, 77, 0
7, 50640, Note_on_c, 1, 75, 84
7, 50640, Note_on_c, 1, 79, 84
7, 50879, Note_on_c, 1, 75, 0
7, 50879, Note_on_c, 1, 79, 0
7, 51120, Note_on_c, 1, 75, 84
7, 51120, Note_on_c, 1, 77, 84
7, 51359, Note_on_c, 1, 75, 0
7, 51359, Note_on_c, 1, 77, 0
7, 51600, Note_on_c, 1, 79, 84
7, 51600, Note_on_c, 1, 75, 84
7, 51839, Note_on_c, 1, 79, 0
7, 51839, Note_on_c, 1, 75, 0
7, 52080, Note_on_c, 1, 74, 84
7, 52080, Note_on_c, 1, 77, 84
7, 52299, Note_on_c, 1, 74, 0
7, 52299, Note_on_c, 1, 77, 0
7, 52320, Note_on_c, 1, 79, 84
7, 52320, Note_on_c, 1, 75, 84
7, 52419, Note_on_c, 1, 79, 0
7, 52419, Note_on_c, 1, 75, 0
7, 52440, Note_on_c, 1, 79, 84
7, 52539, Note_on_c, 1, 79, 0
7, 52560, Note_on_c, 1, 79, 84
7, 52659, Note_on_c, 1, 79, 0
7, 52680, Note_on_c, 1, 79, 84
7, 52779, Note_on_c, 1, 79, 0
7, 52800, Note_on_c, 1, 75, 84
7, 52899, Note_on_c, 1, 75, 0
7, 52920, Note_on_c, 1, 82, 84
7, 53019, Note_on_c, 1, 82, 0
7, 53040, Note_on_c, 1, 82, 84
7, 53139, Note_on_c, 1, 82, 0
7, 53160, Note_on_c, 1, 82, 84
7, 53259, Note_on_c, 1, 82, 0
7, 53280, Note_on_c, 1, 79, 84
7, 53379, Note_on_c, 1, 79, 0
7, 53400, Note_on_c, 1, 75, 84
7, 53499, Note_on_c, 1, 75, 0
7, 53520, Note_on_c, 1, 75, 84
7, 53619, Note_on_c, 1, 75, 0
7, 53640, Note_on_c, 1, 75, 84
7, 53739, Note_on_c, 1, 75, 0
7, 53760, Note_on_c, 1, 70, 84
7, 54339, Note_on_c, 1, 70, 0
7, 54360, Note_on_c, 1, 79, 84
7, 54459, Note_on_c, 1, 79, 0
7, 54480, Note_on_c, 1, 79, 84
7, 54579, Note_on_c, 1, 79, 0
7, 54600, Note_on_c, 1, 79, 84
7, 54699, Note_on_c, 1, 79, 0
7, 54720, Note_on_c, 1, 75, 84
7, 54819, Note_on_c, 1, 75, 0
7, 54840, Note_on_c, 1, 82, 84
7, 54939, Note_on_c, 1, 82, 0
7, 54960, Note_on_c, 1, 82, 84
7, 55059, Note_on_c, 1, 82, 0
7, 55080, Note_on_c, 1, 82, 84
7, 55179, Note_on_c, 1, 82, 0
7, 55200, Note_on_c, 1, 79, 84
7, 55299, Note_on_c, 1, 79, 0
7, 55320, Note_on_c, 1, 75, 84
7, 55419, Note_on_c, 1, 75, 0
7, 55440, Note_on_c, 1, 75, 84
7, 55539, Note_on_c, 1, 75, 0
7, 55560, Note_on_c, 1, 75, 84
7, 55659, Note_on_c, 1, 75, 0
7, 55680, Note_on_c, 1, 70, 84
7, 56399, Note_on_c, 1, 70, 0
7, 56760, Note_on_c, 1, 74, 84
7, 56760, Note_on_c, 1, 77, 84
7, 56859, Note_on_c, 1, 74, 0
7, 56859, Note_on_c, 1, 77, 0
7, 56880, Note_on_c, 1, 74, 84
7, 56880, Note_on_c, 1, 77, 84
7, 56979, Note_on_c, 1, 74, 0
7, 56979, Note_on_c, 1, 77, 0
7, 57000, Note_on_c, 1, 77, 84
7, 57000, Note_on_c, 1, 74, 84
7, 57099, Note_on_c, 1, 77, 0
7, 57099, Note_on_c, 1, 74, 0
7, 57120, Note_on_c, 1, 79, 84
7, 57120, Note_on_c, 1, 75, 84
7, 57359, Note_on_c, 1, 79, 0
7, 57359, Note_on_c, 1, 75, 0
7, 57720, Note_on_c, 1, 77, 84
7, 57720, Note_on_c, 1, 82, 84
7, 57819, Note_on_c, 1, 77, 0
7, 57819, Note_on_c, 1, 82, 0
7, 57840, Note_on_c, 1, 82, 84
7, 57840, Note_on_c, 1, 77, 84
7, 57939, Note_on_c, 1, 82, 0
7, 57939, Note_on_c, 1, 77, 0
7, 57960, Note_on_c, 1, 82, 84
7, 57960, Note_on_c, 1, 77, 84
7, 58059, Note_on_c, 1, 82, 0
7, 58059, Note_on_c, 1, 77, 0
7, 58080, Note_on_c, 1, 75, 84
7, 58080, Note_on_c, 1, 79, 84
7, 58319, Note_on_c, 1, 75, 0
7, 58319, Note_on_c, 1, 79, 0
7, 67800, Note_on_c, 1, 79, 58
7, 67800, Note_on_c, 1, 74, 58
7, 67899, Note_on_c, 1, 79, 0
7, 67899, Note_on_c, 1, 74, 0
7, 67920, Note_on_c, 1, 79, 64
7, 67920, Note_on_c, 1, 74, 64
7, 68019, Note_on_c, 1, 79, 0
7, 68019, Note_on_c, 1, 74, 0
7, 68040, Note_on_c, 1, 74, 70
7, 68040, Note_on_c, 1, 77, 70
7, 68139, Note_on_c, 1, 74, 0
7, 68139, Note_on_c, 1, 77, 0
7, 68160, Note_on_c, 1, 72, 76
7, 68160, Note_on_c, 1, 75, 76
7, 68399, Note_on_c, 1, 72, 0
7, 68399, Note_on_c, 1, 75, 0
7, 68640, Note_on_c, 1, 72, 76
7, 68640, Note_on_c, 1, 78, 76
7, 68879, Note_on_c, 1, 72, 0
7, 68879, Note_on_c, 1, 78, 0
7, 69120, Note_on_c, 1, 71, 76
7, 69120, Note_on_c, 1, 79, 76
7, 69359, Note_on_c, 1, 71, 0
7, 69359, Note_on_c, 1, 79, 0
7, 69720, Note_on_c, 1, 80, 84
7, 69819, Note_on_c, 1, 80, 0
7, 69840, Note_on_c, 1, 80, 84
7, 69939, Note_on_c, 1, 80, 0
7, 69960, Note_on_c, 1, 80, 84
7, 70059, Note_on_c, 1, 80, 0
7, 70080, Note_on_c, 1, 77, 84
7, 71039, Note_on_c, 1, 77, 0
7, 74520, Note_on_c, 1, 77, 52
7, 74619, Note_on_c, 1, 77, 0
7, 74640, Note_on_c, 1, 77, 52
7, 74739, Note_on_c, 1, 77, 0
7, 74760, Note_on_c, 1, 77, 52
7, 74859, Note_on_c, 1, 77, 0
7, 74880, Note_on_c, 1, 75, 52
7, 75119, Note_on_c, 1, 75, 0
7, 76240, Control_c, 1, 11, 102
7, 76320, Note_on_c, 1, 75, 68
7, 76320, Note_on_c, 1, 79, 68
7, 76320, Control_c, 1, 11, 104
7, 76400, Control_c, 1, 11, 105
7, 76480, Control_c, 1, 11, 107
7, 76560, Control_c, 1, 11, 109
7, 76640, Control_c, 1, 11, 111
7, 76720, Control_c, 1, 11, 113
7, 76800, Control_c, 1, 11, 115
7, 76880, Control_c, 1, 11, 117
7, 76960, Control_c, 1, 11, 119
7, 77039, Note_on_c, 1, 75, 0
7, 77039, Note_on_c, 1, 79, 0
7, 77040, Control_c, 1, 11, 121
7, 77120, Control_c, 1, 11, 123
7, 77200, Control_c, 1, 11, 127
7, 77280, Note_on_c, 1, 80, 76
7, 77280, Note_on_c, 1, 77, 76
7, 77519, Note_on_c, 1, 80, 0
7, 77519, Note_on_c, 1, 77, 0
7, 77760, Note_on_c, 1, 76, 76
7, 77760, Note_on_c, 1, 79, 76
7, 77999, Note_on_c, 1, 76, 0
7, 77999, Note_on_c, 1, 79, 0
7, 78240, Note_on_c, 1, 77, 76
7, 78240, Note_on_c, 1, 80, 76
7, 78479, Note_on_c, 1, 77, 0
7, 78479, Note_on_c, 1, 80, 0
7, 78720, Note_on_c, 1, 79, 76
7, 78720, Note_on_c, 1, 82, 76
7, 78959, Note_on_c, 1, 79, 0
7, 78959, Note_on_c, 1, 82, 0
7, 79200, Note_on_c, 1, 80, 76
7, 79200, Note_on_c, 1, 77, 76
7, 79439, Note_on_c, 1, 80, 0
7, 79439, Note_on_c, 1, 77, 0
7, 79680, Note_on_c, 1, 77, 76
7, 79680, Note_on_c, 1, 80, 76
7, 79919, Note_on_c, 1, 77, 0
7, 79919, Note_on_c, 1, 80, 0
7, 80160, Note_on_c, 1, 75, 76
7, 80160, Note_on_c, 1, 79, 76
7, 82059, Note_on_c, 1, 75, 0
7, 82059, Note_on_c, 1, 79, 0
7, 82080, Note_on_c, 1, 79, 76
7, 82080, Note_on_c, 1, 77, 76
7, 83739, Note_on_c, 1, 79, 0
7, 83739, Note_on_c, 1, 77, 0
7, 83760, Note_on_c, 1, 79, 76
7, 83760, Note_on_c, 1, 75, 76
7, 83979, Note_on_c, 1, 79, 0
7, 83979, Note_on_c, 1, 75, 0
7, 84000, Note_on_c, 1, 78, 84
7, 84000, Note_on_c, 1, 75, 84
7, 85899, Note_on_c, 1, 78, 0
7, 85899, Note_on_c, 1, 75, 0
7, 85920, Note_on_c, 1, 78, 84
7, 85920, Note_on_c, 1, 75, 84
7, 86159, Note_on_c, 1, 78, 0
7, 86159, Note_on_c, 1, 75, 0
7, 86880, Note_on_c, 1, 70, 84
7, 86880, Note_on_c, 1, 77, 84
7, 87119, Note_on_c, 1, 70, 0
7, 87119, Note_on_c, 1, 77, 0
7, 98880, Control_c, 1, 11, 64
7, 99360, Control_c, 1, 11, 64
7, 99360, Note_on_c, 1, 84, 84
7, 99460, Control_c, 1, 11, 65
7, 99560, Control_c, 1, 11, 67
7, 99660, Control_c, 1, 11, 68
7, 99760, Control_c, 1, 11, 69
7, 99860, Control_c, 1, 11, 71
7, 99960, Control_c, 1, 11, 72
7, 100060, Control_c, 1, 11, 73
7, 100160, Control_c, 1, 11, 75
7, 100260, Control_c, 1, 11, 76
7, 100299, Note_on_c, 1, 84, 0
7, 100320, Note_on_c, 1, 82, 84
7, 100360, Control_c, 1, 11, 77
7, 100460, Control_c, 1, 11, 78
7, 100560, Control_c, 1, 11, 80
7, 100660, Control_c, 1, 11, 81
7, 100760, Control_c, 1, 11, 82
7, 100860, Control_c, 1, 11, 84
7, 100960, Control_c, 1, 11, 85
7, 101060, Control_c, 1, 11, 86
7, 101160, Control_c, 1, 11, 88
7, 101259, Note_on_c, 1, 82, 0
7, 101260, Control_c, 1, 11, 89
7, 101280, Note_on_c, 1, 81, 84
7, 101360, Control_c, 1, 11, 90
7, 101460, Control_c, 1, 11, 92
7, 101560, Control_c, 1, 11, 93
7, 101660, Control_c, 1, 11, 94
7, 101760, Control_c, 1, 11, 96
7, 101860, Control_c, 1, 11, 97
7, 101960, Control_c, 1, 11, 98
7, 102060, Control_c, 1, 11, 99
7, 102160, Control_c, 1, 11, 101
7, 102260, Control_c, 1, 11, 102
7, 102360, Control_c, 1, 11, 103
7, 102460, Control_c, 1, 11, 105
7, 102560, Control_c, 1, 11, 106
7, 102660, Control_c, 1, 11, 107
7, 102760, Control_c, 1, 11, 109
7, 102860, Control_c, 1, 11, 110
7, 102960, Control_c, 1, 11, 111
7, 103060, Control_c, 1, 11, 113
7, 103160, Control_c, 1, 11, 114
7, 103260, Control_c, 1, 11, 115
7, 103360, Control_c, 1, 11, 117
7, 103419, Note_on_c, 1, 81, 0
7, 103440, Note_on_c, 1, 81, 84
7, 103460, Control_c, 1, 11, 118
7, 103560, Control_c, 1, 11, 119
7, 103659, Note_on_c, 1, 81, 0
7, 103660, Control_c, 1, 11, 120
7, 103680, Note_on_c, 1, 81, 84
7, 103760, Control_c, 1, 11, 122
7, 103860, Control_c, 1, 11, 123
7, 103899, Note_on_c, 1, 81, 0
7, 103920, Note_on_c, 1, 81, 84
7, 103960, Control_c, 1, 11, 124
7, 104060, Control_c, 1, 11, 127
7, 104139, Note_on_c, 1, 81, 0
7, 104160, Note_on_c, 1, 80, 84
7, 104160, Note_on_c, 1, 77, 84
7, 104859, Note_on_c, 1, 80, 0
7, 104859, Note_on_c, 1, 77, 0
7, 104880, Note_on_c, 1, 77, 84
7, 104880, Note_on_c, 1, 80, 84
7, 105099, Note_on_c, 1, 77, 0
7, 105099, Note_on_c, 1, 80, 0
7, 105120, Note_on_c, 1, 75, 84
7, 105120, Note_on_c, 1, 79, 84
7, 105359, Note_on_c, 1, 75, 0
7, 105359, Note_on_c, 1, 79, 0
7, 105600, Note_on_c, 1, 80, 84
7, 105839, Note_on_c, 1, 80, 0
7, 106080, Note_on_c, 1, 82, 84
7, 106080, Note_on_c, 1, 75, 84
7, 106319, Note_on_c, 1, 82, 0
7, 106319, Note_on_c, 1, 75, 0
7, 106560, Note_on_c, 1, 84, 84
7, 106560, Note_on_c, 1, 75, 84
7, 106799, Note_on_c, 1, 84, 0
7, 106799, Note_on_c, 1, 75, 0
7, 107040, Note_on_c, 1, 79, 84
7, 107040, Note_on_c, 1, 75, 84
7, 107279, Note_on_c, 1, 79, 0
7, 107279, Note_on_c, 1, 75, 0
7, 107520, Note_on_c, 1, 74, 84
7, 107520, Note_on_c, 1, 77, 84
7, 107759, Note_on_c, 1, 74, 0
7, 107759, Note_on_c, 1, 77, 0
7, 108000, Note_on_c, 1, 80, 84
7, 108000, Note_on_c, 1, 77, 84
7, 108939, Note_on_c, 1, 80, 0
7, 108939, Note_on_c, 1, 77, 0
7, 108960, Note_on_c, 1, 79, 84
7, 108960, Note_on_c, 1, 75, 84
7, 109179, Note_on_c, 1, 79, 0
7, 109179, Note_on_c, 1, 75, 0
7, 109200, Note_on_c, 1, 75, 84
7, 109200, Note_on_c, 1, 79, 84
7, 109439, Note_on_c, 1, 75, 0
7, 109439, Note_on_c, 1, 79, 0
7, 109680, Note_on_c, 1, 74, 84
7, 109680, Note_on_c, 1, 77, 84
7, 109919, Note_on_c, 1, 74, 0
7, 109919, Note_on_c, 1, 77, 0
7, 110160, Note_on_c, 1, 75, 84
7, 110160, Note_on_c, 1, 79, 84
7, 110399, Note_on_c, 1, 75, 0
7, 110399, Note_on_c, 1, 79, 0
7, 110640, Note_on_c, 1, 75, 84
7, 110640, Note_on_c, 1, 77, 84
7, 110879, Note_on_c, 1, 75, 0
7, 110879, Note_on_c, 1, 77, 0
7, 111120, Note_on_c, 1, 79, 84
7, 111120, Note_on_c, 1, 75, 84
7, 111359, Note_on_c, 1, 79, 0
7, 111359, Note_on_c, 1, 75, 0
7, 111600, Note_on_c, 1, 74, 84
7, 111600, Note_on_c, 1, 77, 84
7, 111819, Note_on_c, 1, 74, 0
7, 111819, Note_on_c, 1, 77, 0
7, 111840, Note_on_c, 1, 75, 84
7, 111840, Note_on_c, 1, 79, 84
7, 111939, Note_on_c, 1, 75, 0
7, 111939, Note_on_c, 1, 79, 0
7, 111960, Note_on_c, 1, 79, 84
7, 112059, Note_on_c, 1, 79, 0
7, 112080, Note_on_c, 1, 79, 84
7, 112179, Note_on_c, 1, 79, 0
7, 112200, Note_on_c, 1, 79, 84
7, 112299, Note_on_c, 1, 79, 0
7, 112320, Note_on_c, 1, 75, 84
7, 112419, Note_on_c, 1, 75, 0
7, 112440, Note_on_c, 1, 82, 84
7, 112539, Note_on_c, 1, 82, 0
7, 112560, Note_on_c, 1, 82, 84
7, 112659, Note_on_c, 1, 82, 0
7, 112680, Note_on_c, 1, 82, 84
7, 112779, Note_on_c, 1, 82, 0
7, 112800, Note_on_c, 1, 79, 84
7, 112899, Note_on_c, 1, 79, 0
7, 112920, Note_on_c, 1, 75, 84
7, 113019, Note_on_c, 1, 75, 0
7, 113040, Note_on_c, 1, 75, 84
7, 113139, Note_on_c, 1, 75, 0
7, 113160, Note_on_c, 1, 75, 84
7, 113259, Note_on_c, 1, 75, 0
7, 113280, Note_on_c, 1, 70, 84
7, 113859, Note_on_c, 1, 70, 0
7, 113880, Note_on_c, 1, 79, 84
7, 113979, Note_on_c, 1, 79, 0
7, 114000, Note_on_c, 1, 79, 84
7, 114099, Note_on_c, 1, 79, 0
7, 114120, Note_on_c, 1, 79, 84
7, 114219, Note_on_c, 1, 79, 0
7, 114240, Note_on_c, 1, 75, 84
7, 114339, Note_on_c, 1, 75, 0
7, 114360, Note_on_c, 1, 82, 84
7, 114459, Note_on_c, 1, 82, 0
7, 114480, Note_on_c, 1, 82, 84
7, 114579, Note_on_c, 1, 82, 0
7, 114600, Note_on_c, 1, 82, 84
7, 114699, Note_on_c, 1, 82, 0
7, 114720, Note_on_c, 1, 79, 84
7, 114819, Note_on_c, 1, 79, 0
7, 114840, Note_on_c, 1, 75, 84
7, 114939, Note_on_c, 1, 75, 0
7, 114960, Note_on_c, 1, 75, 84
7, 115059, Note_on_c, 1, 75, 0
7, 115080, Note_on_c, 1, 75, 84
7, 115179, Note_on_c, 1, 75, 0
7, 115200, Note_on_c, 1, 70, 84
7, 115919, Note_on_c, 1, 70, 0
7, 116280, Note_on_c, 1, 77, 84
7, 116280, Note_on_c, 1, 74, 84
7, 116379, Note_on_c, 1, 77, 0
7, 116379, Note_on_c, 1, 74, 0
7, 116400, Note_on_c, 1, 74, 84
7, 116400, Note_on_c, 1, 77, 84
7, 116499, Note_on_c, 1, 74, 0
7, 116499, Note_on_c, 1, 77, 0
7, 116520, Note_on_c, 1, 77, 84
7, 116520, Note_on_c, 1, 74, 84
7, 116619, Note_on_c, 1, 77, 0
7, 116619, Note_on_c, 1, 74, 0
7, 116640, Note_on_c, 1, 79, 84
7, 116640, Note_on_c, 1, 75, 84
7, 116879, Note_on_c, 1, 79, 0
7, 116879, Note_on_c, 1, 75, 0
7, 117240, Note_on_c, 1, 77, 84
7, 117240, Note_on_c, 1, 82, 84
7, 117339, Note_on_c, 1, 77, 0
7, 117339, Note_on_c, 1, 82, 0
7, 117360, Note_on_c, 1, 77, 84
7, 117360, Note_on_c, 1, 82, 84
7, 117459, Note_on_c, 1, 77, 0
7, 117459, Note_on_c, 1, 82, 0
7, 117480, Note_on_c, 1, 82, 84
7, 117480, Note_on_c, 1, 77, 84
7, 117579, Note_on_c, 1, 82, 0
7, 117579, Note_on_c, 1, 77, 0
7, 117600, Note_on_c, 1, 79, 84
7, 117600, Note_on_c, 1, 75, 84
7, 117839, Note_on_c, 1, 79, 0
7, 117839, Note_on_c, 1, 75, 0
7, 132600, Note_on_c, 1, 78, 52
7, 132699, Note_on_c, 1, 78, 0
7, 132720, Note_on_c, 1, 78, 52
7, 132819, Note_on_c, 1, 78, 0
7, 132840, Note_on_c, 1, 81, 52
7, 132939, Note_on_c, 1, 81, 0
7, 132960, Note_on_c, 1, 79, 52
7, 133419, Note_on_c, 1, 79, 0
7, 133440, Note_on_c, 1, 78, 52
7, 133539, Note_on_c, 1, 78, 0
7, 133560, Note_on_c, 1, 78, 52
7, 133659, Note_on_c, 1, 78, 0
7, 133680, Note_on_c, 1, 78, 52
7, 133779, Note_on_c, 1, 78, 0
7, 133800, Note_on_c, 1, 81, 52
7, 133899, Note_on_c, 1, 81, 0
7, 133920, Note_on_c, 1, 79, 52
7, 134379, Note_on_c, 1, 79, 0
7, 134400, Note_on_c, 1, 78, 52
7, 134859, Note_on_c, 1, 78, 0
7, 134880, Note_on_c, 1, 79, 52
7, 135479, Note_on_c, 1, 79, 0
7, 135840, Note_on_c, 1, 72, 52
7, 135840, Note_on_c, 1, 78, 52
7, 136079, Note_on_c, 1, 72, 0
7, 136079, Note_on_c, 1, 78, 0
7, 136800, Note_on_c, 1, 72, 52
7, 136800, Note_on_c, 1, 78, 52
7, 137039, Note_on_c, 1, 72, 0
7, 137039, Note_on_c, 1, 78, 0
7, 137760, Note_on_c, 1, 79, 52
7, 137760, Note_on_c, 1, 67, 52
7, 137999, Note_on_c, 1, 79, 0
7, 137999, Note_on_c, 1, 67, 0
7, 138720, Note_on_c, 1, 79, 52
7, 138720, Note_on_c, 1, 74, 52
7, 138959, Note_on_c, 1, 79, 0
7, 138959, Note_on_c, 1, 74, 0
7, 139320, Note_on_c, 1, 79, 67
7, 139419, Note_on_c, 1, 79, 0
7, 139440, Note_on_c, 1, 81, 70
7, 139539, Note_on_c, 1, 81, 0
7, 139560, Note_on_c, 1, 82, 73
7, 139659, Note_on_c, 1, 82, 0
7, 139680, Note_on_c, 1, 78, 76
7, 139680, Note_on_c, 1, 81, 76
7, 140619, Note_on_c, 1, 78, 0
7, 140619, Note_on_c, 1, 81, 0
7, 140640, Note_on_c, 1, 78, 76
7, 140640, Note_on_c, 1, 81, 76
7, 140879, Note_on_c, 1, 78, 0
7, 140879, Note_on_c, 1, 81, 0
7, 141240, Note_on_c, 1, 79, 76
7, 141240, Note_on_c, 1, 82, 76
7, 141339, Note_on_c, 1, 79, 0
7, 141339, Note_on_c, 1, 82, 0
7, 141360, Note_on_c, 1, 79, 76
7, 141360, Note_on_c, 1, 82, 76
7, 141459, Note_on_c, 1, 79, 0
7, 141459, Note_on_c, 1, 82, 0
7, 141480, Note_on_c, 1, 82, 76
7, 141480, Note_on_c, 1, 79, 76
7, 141579, Note_on_c, 1, 82, 0
7, 141579, Note_on_c, 1, 79, 0
7, 141600, Note_on_c, 1, 79, 76
7, 141600, Note_on_c, 1, 82, 76
7, 142539, Note_on_c, 1, 79, 0
7, 142539, Note_on_c, 1, 82, 0
7, 142560, Note_on_c, 1, 82, 76
7, 142560, Note_on_c, 1, 79, 76
7, 142799, Note_on_c, 1, 82, 0
7, 142799, Note_on_c, 1, 79, 0
7, 143160, Note_on_c, 1, 82, 80
7, 143160, Note_on_c, 1, 79, 80
7, 143259, Note_on_c, 1, 82, 0
7, 143259, Note_on_c, 1, 79, 0
7, 143280, Note_on_c, 1, 79, 80
7, 143280, Note_on_c, 1, 82, 80
7, 143379, Note_on_c, 1, 79, 0
7, 143379, Note_on_c, 1, 82, 0
7, 143400, Note_on_c, 1, 82, 80
7, 143400, Note_on_c, 1, 79, 80
7, 143499, Note_on_c, 1, 82, 0
7, 143499, Note_on_c, 1, 79, 0
7, 143520, Note_on_c, 1, 79, 80
7, 143520, Note_on_c, 1, 82, 80
7, 143759, Note_on_c, 1, 79, 0
7, 143759, Note_on_c, 1, 82, 0
7, 144240, Note_on_c, 1, 79, 80
7, 144240, Note_on_c, 1, 82, 80
7, 144339, Note_on_c, 1, 79, 0
7, 144339, Note_on_c, 1, 82, 0
7, 144360, Note_on_c, 1, 79, 80
7, 144360, Note_on_c, 1, 82, 80
7, 144459, Note_on_c, 1, 79, 0
7, 144459, Note_on_c, 1, 82, 0
7, 144480, Note_on_c, 1, 79, 80
7, 144480, Note_on_c, 1, 82, 80
7, 144699, Note_on_c, 1, 79, 0
7, 144699, Note_on_c, 1, 82, 0
7, 144720, Note_on_c, 1, 74, 80
7, 144720, Note_on_c, 1, 81, 80
7, 144819, Note_on_c, 1, 74, 0
7, 144819, Note_on_c, 1, 81, 0
7, 144840, Note_on_c, 1, 81, 80
7, 144840, Note_on_c, 1, 74, 80
7, 144939, Note_on_c, 1, 81, 0
7, 144939, Note_on_c, 1, 74, 0
7, 144960, Note_on_c, 1, 81, 80
7, 144960, Note_on_c, 1, 74, 80
7, 145199, Note_on_c, 1, 81, 0
7, 145199, Note_on_c, 1, 74, 0
7, 148080, Note_on_c, 1, 78, 80
7, 148179, Note_on_c, 1, 78, 0
7, 148200, Note_on_c, 1, 78, 80
7, 148299, Note_on_c, 1, 78, 0
7, 148320, Note_on_c, 1, 78, 80
7, 148539, Note_on_c, 1, 78, 0
7, 148560, Note_on_c, 1, 81, 80
7, 148560, Note_on_c, 1, 78, 80
7, 148659, Note_on_c, 1, 81, 0
7, 148659, Note_on_c, 1, 78, 0
7, 148680, Note_on_c, 1, 81, 80
7, 148680, Note_on_c, 1, 78, 80
7, 148779, Note_on_c, 1, 81, 0
7, 148779, Note_on_c, 1, 78, 0
7, 148800, Note_on_c, 1, 83, 80
7, 148800, Note_on_c, 1, 79, 80
7, 149039, Note_on_c, 1, 83, 0
7, 149039, Note_on_c, 1, 79, 0
7, 151920, Note_on_c, 1, 77, 80
7, 152019, Note_on_c, 1, 77, 0
7, 152040, Note_on_c, 1, 77, 80
7, 152139, Note_on_c, 1, 77, 0
7, 152160, Note_on_c, 1, 77, 80
7, 152399, Note_on_c, 1, 77, 0
7, 152760, Note_on_c, 1, 84, 84
7, 152760, Note_on_c, 1, 72, 84
7, 152859, Note_on_c, 1, 84, 0
7, 152859, Note_on_c, 1, 72, 0
7, 152880, Note_on_c, 1, 72, 84
7, 152880, Note_on_c, 1, 84, 84
7, 152979, Note_on_c, 1, 72, 0
7, 152979, Note_on_c, 1, 84, 0
7, 153000, Note_on_c, 1, 84, 84
7, 153000, Note_on_c, 1, 72, 84
7, 153099, Note_on_c, 1, 84, 0
7, 153099, Note_on_c, 1, 72, 0
7, 153120, Note_on_c, 1, 77, 84
7, 153579, Note_on_c, 1, 77, 0
7, 153600, Note_on_c, 1, 79, 84
7, 154079, Note_on_c, 1, 79, 0
7, 155040, Note_on_c, 1, 77, 84
7, 155040, Note_on_c, 1, 65, 84
7, 155499, Note_on_c, 1, 77, 0
7, 155499, Note_on_c, 1, 65, 0
7, 155520, Note_on_c, 1, 67, 84
7, 155520, Note_on_c, 1, 79, 84
7, 155999, Note_on_c, 1, 67, 0
7, 155999, Note_on_c, 1, 79, 0
7, 156960, Note_on_c, 1, 77, 84
7, 157419, Note_on_c, 1, 77, 0
7, 157440, Note_on_c, 1, 78, 84
7, 157919, Note_on_c, 1, 78, 0
7, 158880, Note_on_c, 1, 81, 84
7, 159339, Note_on_c, 1, 81, 0
7, 159360, Note_on_c, 1, 82, 84
7, 159839, Note_on_c, 1, 82, 0
7, 163200, Note_on_c, 1, 81, 52
7, 163679, Note_on_c, 1, 81, 0
7, 164160, Note_on_c, 1, 81, 48
7, 164639, Note_on_c, 1, 81, 0
7, 165120, Note_on_c, 1, 81, 44
7, 165599, Note_on_c, 1, 81, 0
7, 166080, Note_on_c, 1, 81, 44
7, 166559, Note_on_c, 1, 81, 0
7, 167040, Note_on_c, 1, 81, 44
7, 167519, Note_on_c, 1, 81, 0
7, 168000, Note_on_c, 1, 81, 44
7, 168479, Note_on_c, 1, 81, 0
7, 168600, Note_on_c, 1, 86, 84
7, 168600, Note_on_c, 1, 74, 84
7, 168699, Note_on_c, 1, 86, 0
7, 168699, Note_on_c, 1, 74, 0
7, 168720, Note_on_c, 1, 74, 84
7, 168720, Note_on_c, 1, 86, 84
7, 168819, Note_on_c, 1, 74, 0
7, 168819, Note_on_c, 1, 86, 0
7, 168840, Note_on_c, 1, 74, 84
7, 168840, Note_on_c, 1, 86, 84
7, 168939, Note_on_c, 1, 74, 0
7, 168939, Note_on_c, 1, 86, 0
7, 168960, Note_on_c, 1, 71, 84
7, 168960, Note_on_c, 1, 83, 84
7, 169419, Note_on_c, 1, 71, 0
7, 169419, Note_on_c, 1, 83, 0
7, 169440, Note_on_c, 1, 72, 84
7, 169440, Note_on_c, 1, 84, 84
7, 169899, Note_on_c, 1, 72, 0
7, 169899, Note_on_c, 1, 84, 0
7, 169920, Note_on_c, 1, 69, 84
7, 169920, Note_on_c, 1, 81, 84
7, 170859, Note_on_c, 1, 69, 0
7, 170859, Note_on_c, 1, 81, 0
7, 170880, Note_on_c, 1, 80, 44
7, 171359, Note_on_c, 1, 80, 0
7, 171840, Note_on_c, 1, 80, 44
7, 172319, Note_on_c, 1, 80, 0
7, 172800, Note_on_c, 1, 80, 44
7, 173279, Note_on_c, 1, 80, 0
7, 173760, Note_on_c, 1, 80, 44
7, 174239, Note_on_c, 1, 80, 0
7, 174840, Note_on_c, 1, 80, 84
7, 174939, Note_on_c, 1, 80, 0
7, 174960, Note_on_c, 1, 80, 84
7, 175059, Note_on_c, 1, 80, 0
7, 175080, Note_on_c, 1, 80, 84
7, 175179, Note_on_c, 1, 80, 0
7, 175200, Note_on_c, 1, 77, 84
7, 175779, Note_on_c, 1, 77, 0
7, 175800, Note_on_c, 1, 80, 84
7, 175899, Note_on_c, 1, 80, 0
7, 175920, Note_on_c, 1, 80, 84
7, 176019, Note_on_c, 1, 80, 0
7, 176040, Note_on_c, 1, 80, 84
7, 176139, Note_on_c, 1, 80, 0
7, 176160, Note_on_c, 1, 77, 84
7, 176739, Note_on_c, 1, 77, 0
7, 176760, Note_on_c, 1, 80, 84
7, 176859, Note_on_c, 1, 80, 0
7, 176880, Note_on_c, 1, 80, 84
7, 176979, Note_on_c, 1, 80, 0
7, 177000, Note_on_c, 1, 80, 84
7, 177099, Note_on_c, 1, 80, 0
7, 177120, Note_on_c, 1, 77, 84
7, 177219, Note_on_c, 1, 77, 0
7, 177240, Note_on_c, 1, 80, 84
7, 177339, Note_on_c, 1, 80, 0
7, 177360, Note_on_c, 1, 80, 84
7, 177459, Note_on_c, 1, 80, 0
7, 177480, Note_on_c, 1, 80, 84
7, 177579, Note_on_c, 1, 80, 0
7, 177600, Note_on_c, 1, 77, 84
7, 177699, Note_on_c, 1, 77, 0
7, 177720, Note_on_c, 1, 80, 84
7, 177819, Note_on_c, 1, 80, 0
7, 177840, Note_on_c, 1, 80, 84
7, 177939, Note_on_c, 1, 80, 0
7, 177960, Note_on_c, 1, 80, 84
7, 178059, Note_on_c, 1, 80, 0
7, 178080, Note_on_c, 1, 77, 84
7, 178080, Note_on_c, 1, 65, 84
7, 178179, Note_on_c, 1, 77, 0
7, 178179, Note_on_c, 1, 65, 0
7, 178200, Note_on_c, 1, 79, 84
7, 178200, Note_on_c, 1, 67, 84
7, 178299, Note_on_c, 1, 79, 0
7, 178299, Note_on_c, 1, 67, 0
7, 178320, Note_on_c, 1, 67, 84
7, 178320, Note_on_c, 1, 79, 84
7, 178419, Note_on_c, 1, 67, 0
7, 178419, Note_on_c, 1, 79, 0
7, 178440, Note_on_c, 1, 67, 84
7, 178440, Note_on_c, 1, 79, 84
7, 178539, Note_on_c, 1, 67, 0
7, 178539, Note_on_c, 1, 79, 0
7, 178560, Note_on_c, 1, 79, 84
7, 178560, Note_on_c, 1, 75, 84
7, 179999, Note_on_c, 1, 79, 0
7, 179999, Note_on_c, 1, 75, 0
7, 180120, Note_on_c, 1, 79, 84
7, 180120, Note_on_c, 1, 77, 84
7, 180219, Note_on_c, 1, 79, 0
7, 180219, Note_on_c, 1, 77, 0
7, 180240, Note_on_c, 1, 79, 84
7, 180240, Note_on_c, 1, 77, 84
7, 180339, Note_on_c, 1, 79, 0
7, 180339, Note_on_c, 1, 77, 0
7, 180360, Note_on_c, 1, 79, 84
7, 180360, Note_on_c, 1, 77, 84
7, 180459, Note_on_c, 1, 79, 0
7, 180459, Note_on_c, 1, 77, 0
7, 180480, Note_on_c, 1, 74, 84
7, 180480, Note_on_c, 1, 79, 84
7, 182399, Note_on_c, 1, 74, 0
7, 182399, Note_on_c, 1, 79, 0
7, 182880, Note_on_c, 1, 72, 52
7, 184779, Note_on_c, 1, 72, 0
7, 184800, Note_on_c, 1, 74, 52
7, 186699, Note_on_c, 1, 74, 0
7, 186720, Note_on_c, 1, 75, 52
7, 187199, Note_on_c, 1, 75, 0
7, 187200, Note_on_c, 1, 74, 52
7, 187679, Note_on_c, 1, 74, 0
7, 187680, Note_on_c, 1, 72, 52
7, 188159, Note_on_c, 1, 72, 0
7, 188160, Note_on_c, 1, 71, 52
7, 188399, Note_on_c, 1, 71, 0
7, 188400, Note_on_c, 1, 72, 52
7, 188519, Note_on_c, 1, 72, 0
7, 188520, Note_on_c, 1, 74, 52
7, 188619, Note_on_c, 1, 74, 0
7, 188638, Control_c, 1, 11, 80
7, 188640, Note_on_c, 1, 75, 76
7, 188680, Control_c, 1, 11, 82
7, 188720, Control_c, 1, 11, 84
7, 188760, Control_c, 1, 11, 86
7, 188800, Control_c, 1, 11, 88
7, 188840, Control_c, 1, 11, 90
7, 188880, Control_c, 1, 11, 92
7, 188920, Control_c, 1, 11, 94
7, 188960, Control_c, 1, 11, 96
7, 189000, Control_c, 1, 11, 98
7, 189040, Control_c, 1, 11, 100
7, 189080, Control_c, 1, 11, 102
7, 189119, Note_on_c, 1, 75, 0
7, 189120, Note_on_c, 1, 72, 76
7, 189120, Control_c, 1, 11, 104
7, 189160, Control_c, 1, 11, 105
7, 189200, Control_c, 1, 11, 107
7, 189240, Control_c, 1, 11, 109
7, 189280, Control_c, 1, 11, 111
7, 189320, Control_c, 1, 11, 113
7, 189360, Control_c, 1, 11, 115
7, 189400, Control_c, 1, 11, 117
7, 189440, Control_c, 1, 11, 119
7, 189480, Control_c, 1, 11, 121
7, 189520, Control_c, 1, 11, 123
7, 189560, Control_c, 1, 11, 127
7, 189579, Note_on_c, 1, 72, 0
7, 189600, Control_c, 1, 11, 127
7, 189600, Note_on_c, 1, 79, 76
7, 189640, Control_c, 1, 11, 125
7, 189680, Control_c, 1, 11, 123
7, 189720, Control_c, 1, 11, 121
7, 189760, Control_c, 1, 11, 119
7, 189800, Control_c, 1, 11, 117
7, 189840, Control_c, 1, 11, 115
7, 189880, Control_c, 1, 11, 113
7, 189920, Control_c, 1, 11, 111
7, 189960, Control_c, 1, 11, 109
7, 190000, Control_c, 1, 11, 107
7, 190039, Note_on_c, 1, 79, 0
7, 190040, Control_c, 1, 11, 105
7, 190080, Control_c, 1, 11, 104
7, 190080, Note_on_c, 1, 77, 76
7, 190120, Control_c, 1, 11, 102
7, 190160, Control_c, 1, 11, 100
7, 190200, Control_c, 1, 11, 98
7, 190240, Control_c, 1, 11, 96
7, 190280, Control_c, 1, 11, 94
7, 190319, Note_on_c, 1, 77, 0
7, 190320, Control_c, 1, 11, 92
7, 190320, Note_on_c, 1, 75, 76
7, 190360, Control_c, 1, 11, 90
7, 190400, Control_c, 1, 11, 88
7, 190440, Control_c, 1, 11, 86
7, 190480, Control_c, 1, 11, 84
7, 190520, Control_c, 1, 11, 80
7, 190559, Note_on_c, 1, 75, 0
7, 190560, Note_on_c, 1, 74, 76
7, 190919, Note_on_c, 1, 74, 0
7, 190920, Note_on_c, 1, 75, 76
7, 190949, Note_on_c, 1, 75, 0
7, 190950, Note_on_c, 1, 74, 76
7, 190979, Note_on_c, 1, 74, 0
7, 190980, Note_on_c, 1, 72, 76
7, 191009, Note_on_c, 1, 72, 0
7, 191010, Note_on_c, 1, 74, 76
7, 191039, Note_on_c, 1, 74, 0
7, 191040, Note_on_c, 1, 77, 76
7, 191279, Note_on_c, 1, 77, 0
7, 191280, Note_on_c, 1, 75, 76
7, 191519, Note_on_c, 1, 75, 0
7, 191520, Note_on_c, 1, 74, 76
7, 191999, Note_on_c, 1, 74, 0
7, 192480, Note_on_c, 1, 77, 52
7, 192480, Note_on_c, 1, 74, 52
7, 193899, Note_on_c, 1, 77, 0
7, 193899, Note_on_c, 1, 74, 0
7, 193920, Note_on_c, 1, 72, 52
7, 193920, Note_on_c, 1, 75, 52
7, 194159, Note_on_c, 1, 72, 0
7, 194159, Note_on_c, 1, 75, 0
7, 194840, Control_c, 1, 11, 102
7, 194880, Control_c, 1, 11, 104
7, 194880, Note_on_c, 1, 83, 76
7, 194920, Control_c, 1, 11, 105
7, 194960, Control_c, 1, 11, 107
7, 195000, Control_c, 1, 11, 109
7, 195040, Control_c, 1, 11, 111
7, 195080, Control_c, 1, 11, 113
7, 195120, Control_c, 1, 11, 115
7, 195160, Control_c, 1, 11, 117
7, 195200, Control_c, 1, 11, 119
7, 195240, Control_c, 1, 11, 121
7, 195280, Control_c, 1, 11, 123
7, 195320, Control_c, 1, 11, 127
7, 195819, Note_on_c, 1, 83, 0
7, 195840, Note_on_c, 1, 84, 76
7, 196079, Note_on_c, 1, 84, 0
7, 196800, Note_on_c, 1, 77, 76
7, 196800, Note_on_c, 1, 80, 76
7, 197039, Note_on_c, 1, 77, 0
7, 197039, Note_on_c, 1, 80, 0
7, 197400, Note_on_c, 1, 79, 76
7, 197400, Note_on_c, 1, 75, 76
7, 197499, Note_on_c, 1, 79, 0
7, 197499, Note_on_c, 1, 75, 0
7, 197520, Note_on_c, 1, 79, 76
7, 197520, Note_on_c, 1, 75, 76
7, 197619, Note_on_c, 1, 79, 0
7, 197619, Note_on_c, 1, 75, 0
7, 197640, Note_on_c, 1, 75, 76
7, 197640, Note_on_c, 1, 79, 76
7, 197739, Note_on_c, 1, 75, 0
7, 197739, Note_on_c, 1, 79, 0
7, 197760, Note_on_c, 1, 75, 76
7, 197760, Note_on_c, 1, 79, 76
7, 197999, Note_on_c, 1, 75, 0
7, 197999, Note_on_c, 1, 79, 0
7, 198240, Note_on_c, 1, 77, 84
7, 198240, Note_on_c, 1, 80, 84
7, 198479, Note_on_c, 1, 77, 0
7, 198479, Note_on_c, 1, 80, 0
7, 198720, Note_on_c, 1, 76, 84
7, 198720, Note_on_c, 1, 79, 84
7, 198959, Note_on_c, 1, 76, 0
7, 198959, Note_on_c, 1, 79, 0
7, 199200, Note_on_c, 1, 80, 84
7, 199200, Note_on_c, 1, 77, 84
7, 199439, Note_on_c, 1, 80, 0
7, 199439, Note_on_c, 1, 77, 0
7, 199680, Note_on_c, 1, 82, 84
7, 199680, Note_on_c, 1, 79, 84
7, 199919, Note_on_c, 1, 82, 0
7, 199919, Note_on_c, 1, 79, 0
7, 200160, Note_on_c, 1, 80, 84
7, 200160, Note_on_c, 1, 77, 84
7, 200399, Note_on_c, 1, 80, 0
7, 200399, Note_on_c, 1, 77, 0
7, 200640, Note_on_c, 1, 77, 84
7, 200640, Note_on_c, 1, 80, 84
7, 200879, Note_on_c, 1, 77, 0
7, 200879, Note_on_c, 1, 80, 0
7, 201120, Note_on_c, 1, 75, 76
7, 201120, Note_on_c, 1, 79, 76
7, 203019, Note_on_c, 1, 75, 0
7, 203019, Note_on_c, 1, 79, 0
7, 203040, Note_on_c, 1, 79, 76
7, 203040, Note_on_c, 1, 77, 76
7, 204699, Note_on_c, 1, 79, 0
7, 204699, Note_on_c, 1, 77, 0
7, 204720, Note_on_c, 1, 75, 76
7, 204720, Note_on_c, 1, 79, 76
7, 204939, Note_on_c, 1, 75, 0
7, 204939, Note_on_c, 1, 79, 0
7, 204960, Note_on_c, 1, 81, 84
7, 204960, Note_on_c, 1, 78, 84
7, 206859, Note_on_c, 1, 81, 0
7, 206859, Note_on_c, 1, 78, 0
7, 206880, Note_on_c, 1, 78, 84
7, 206880, Note_on_c, 1, 81, 84
7, 207119, Note_on_c, 1, 78, 0
7, 207119, Note_on_c, 1, 81, 0
7, 207840, Note_on_c, 1, 74, 84
7, 207840, Note_on_c, 1, 79, 84
7, 208079, Note_on_c, 1, 74, 0
7, 208079, Note_on_c, 1, 79, 0
7, 212160, Note_on_c, 1, 76, 52
7, 212160, Note_on_c, 1, 72, 52
7, 212639, Note_on_c, 1, 76, 0
7, 212639, Note_on_c, 1, 72, 0
7, 212640, Note_on_c, 1, 77, 52
7, 212640, Note_on_c, 1, 74, 52
7, 213099, Note_on_c, 1, 77, 0
7, 213099, Note_on_c, 1, 74, 0
7, 213120, Note_on_c, 1, 77, 52
7, 213120, Note_on_c, 1, 71, 52
7, 213599, Note_on_c, 1, 77, 0
7, 213599, Note_on_c, 1, 71, 0
7, 213600, Note_on_c, 1, 72, 52
7, 213600, Note_on_c, 1, 76, 52
7, 214079, Note_on_c, 1, 72, 0
7, 214079, Note_on_c, 1, 76, 0
7, 216000, Note_on_c, 1, 76, 52
7, 216000, Note_on_c, 1, 72, 52
7, 216479, Note_on_c, 1, 76, 0
7, 216479, Note_on_c, 1, 72, 0
7, 216480, Note_on_c, 1, 77, 52
7, 216480, Note_on_c, 1, 74, 52
7, 216939, Note_on_c, 1, 77, 0
7, 216939, Note_on_c, 1, 74, 0
7, 216960, Note_on_c, 1, 71, 52
7, 216960, Note_on_c, 1, 77, 52
7, 217439, Note_on_c, 1, 71, 0
7, 217439, Note_on_c, 1, 77, 0
7, 217440, Note_on_c, 1, 72, 52
7, 217440, Note_on_c, 1, 76, 52
7, 217919, Note_on_c, 1, 72, 0
7, 217919, Note_on_c, 1, 76, 0
7, 228960, Note_on_c, 1, 83, 84
7, 228960, Note_on_c, 1, 79, 84
7, 229659, Note_on_c, 1, 83, 0
7, 229659, Note_on_c, 1, 79, 0
7, 229680, Note_on_c, 1, 79, 84
7, 229680, Note_on_c, 1, 86, 84
7, 229899, Note_on_c, 1, 79, 0
7, 229899, Note_on_c, 1, 86, 0
7, 229920, Note_on_c, 1, 79, 84
7, 229920, Note_on_c, 1, 84, 84
7, 230159, Note_on_c, 1, 79, 0
7, 230159, Note_on_c, 1, 84, 0
7, 230400, Note_on_c, 1, 79, 84
7, 230400, Note_on_c, 1, 77, 84
7, 230639, Note_on_c, 1, 79, 0
7, 230639, Note_on_c, 1, 77, 0
7, 230880, Note_on_c, 1, 72, 84
7, 230880, Note_on_c, 1, 79, 84
7, 231119, Note_on_c, 1, 72, 0
7, 231119, Note_on_c, 1, 79, 0
7, 231360, Note_on_c, 1, 84, 84
7, 231360, Note_on_c, 1, 74, 84
7, 231599, Note_on_c, 1, 84, 0
7, 231599, Note_on_c, 1, 74, 0
7, 231840, Note_on_c, 1, 84, 84
7, 231840, Note_on_c, 1, 76, 84
7, 232079, Note_on_c, 1, 84, 0
7, 232079, Note_on_c, 1, 76, 0
7, 232320, Note_on_c, 1, 74, 84
7, 232320, Note_on_c, 1, 83, 84
7, 232559, Note_on_c, 1, 74, 0
7, 232559, Note_on_c, 1, 83, 0
7, 232800, Note_on_c, 1, 77, 84
7, 232800, Note_on_c, 1, 86, 84
7, 233739, Note_on_c, 1, 77, 0
7, 233739, Note_on_c, 1, 86, 0
7, 233760, Note_on_c, 1, 84, 84
7, 233760, Note_on_c, 1, 76, 84
7, 233979, Note_on_c, 1, 84, 0
7, 233979, Note_on_c, 1, 76, 0
7, 234000, Note_on_c, 1, 84, 84
7, 234000, Note_on_c, 1, 76, 84
7, 234239, Note_on_c, 1, 84, 0
7, 234239, Note_on_c, 1, 76, 0
7, 234480, Note_on_c, 1, 74, 84
7, 234480, Note_on_c, 1, 83, 84
7, 234719, Note_on_c, 1, 74, 0
7, 234719, Note_on_c, 1, 83, 0
7, 234960, Note_on_c, 1, 84, 84
7, 234960, Note_on_c, 1, 76, 84
7, 235199, Note_on_c, 1, 84, 0
7, 235199, Note_on_c, 1, 76, 0
7, 235440, Note_on_c, 1, 74, 84
7, 235440, Note_on_c, 1, 84, 84
7, 235679, Note_on_c, 1, 74, 0
7, 235679, Note_on_c, 1, 84, 0
7, 235920, Note_on_c, 1, 76, 84
7, 235920, Note_on_c, 1, 84, 84
7, 236159, Note_on_c, 1, 76, 0
7, 236159, Note_on_c, 1, 84, 0
7, 236400, Note_on_c, 1, 74, 84
7, 236400, Note_on_c, 1, 83, 84
7, 236619, Note_on_c, 1, 74, 0
7, 236619, Note_on_c, 1, 83, 0
7, 236640, Note_on_c, 1, 76, 84
7, 236640, Note_on_c, 1, 84, 84
7, 236739, Note_on_c, 1, 76, 0
7, 236739, Note_on_c, 1, 84, 0
7, 236760, Note_on_c, 1, 76, 84
7, 236859, Note_on_c, 1, 76, 0
7, 236880, Note_on_c, 1, 76, 84
7, 236979, Note_on_c, 1, 76, 0
7, 237000, Note_on_c, 1, 76, 84
7, 237099, Note_on_c, 1, 76, 0
7, 237120, Note_on_c, 1, 72, 84
7, 237219, Note_on_c, 1, 72, 0
7, 237240, Note_on_c, 1, 79, 84
7, 237339, Note_on_c, 1, 79, 0
7, 237360, Note_on_c, 1, 79, 84
7, 237459, Note_on_c, 1, 79, 0
7, 237480, Note_on_c, 1, 79, 84
7, 237579, Note_on_c, 1, 79, 0
7, 237600, Note_on_c, 1, 76, 84
7, 237699, Note_on_c, 1, 76, 0
7, 237720, Note_on_c, 1, 72, 84
7, 237819, Note_on_c, 1, 72, 0
7, 237840, Note_on_c, 1, 72, 84
7, 237939, Note_on_c, 1, 72, 0
7, 237960, Note_on_c, 1, 72, 84
7, 238059, Note_on_c, 1, 72, 0
7, 238080, Note_on_c, 1, 67, 84
7, 238659, Note_on_c, 1, 67, 0
7, 238680, Note_on_c, 1, 76, 84
7, 238779, Note_on_c, 1, 76, 0
7, 238800, Note_on_c, 1, 76, 84
7, 238899, Note_on_c, 1, 76, 0
7, 238920, Note_on_c, 1, 76, 84
7, 239019, Note_on_c, 1, 76, 0
7, 239040, Note_on_c, 1, 72, 84
7, 239139, Note_on_c, 1, 72, 0
7, 239160, Note_on_c, 1, 79, 84
7, 239259, Note_on_c, 1, 79, 0
7, 239280, Note_on_c, 1, 79, 84
7, 239379, Note_on_c, 1, 79, 0
7, 239400, Note_on_c, 1, 79, 84
7, 239499, Note_on_c, 1, 79, 0
7, 239520, Note_on_c, 1, 76, 84
7, 239619, Note_on_c, 1, 76, 0
7, 239640, Note_on_c, 1, 72, 84
7, 239739, Note_on_c, 1, 72, 0
7, 239760, Note_on_c, 1, 72, 84
7, 239859, Note_on_c, 1, 72, 0
7, 239880, Note_on_c, 1, 72, 84
7, 239979, Note_on_c, 1, 72, 0
7, 240000, Note_on_c, 1, 67, 84
7, 240099, Note_on_c, 1, 67, 0
7, 240120, Note_on_c, 1, 74, 84
7, 240120, Note_on_c, 1, 71, 84
7, 240219, Note_on_c, 1, 74, 0
7, 240219, Note_on_c, 1, 71, 0
7, 240240, Note_on_c, 1, 71, 84
7, 240240, Note_on_c, 1, 74, 84
7, 240339, Note_on_c, 1, 71, 0
7, 240339, Note_on_c, 1, 74, 0
7, 240360, Note_on_c, 1, 71, 84
7, 240360, Note_on_c, 1, 74, 84
7, 240459, Note_on_c, 1, 71, 0
7, 240459, Note_on_c, 1, 74, 0
7, 240480, Note_on_c, 1, 76, 84
7, 240480, Note_on_c, 1, 72, 84
7, 240719, Note_on_c, 1, 76, 0
7, 240719, Note_on_c, 1, 72, 0
7, 241080, Note_on_c, 1, 71, 84
7, 241080, Note_on_c, 1, 74, 84
7, 241179, Note_on_c, 1, 71, 0
7, 241179, Note_on_c, 1, 74, 0
7, 241200, Note_on_c, 1, 71, 84
7, 241200, Note_on_c, 1, 74, 84
7, 241299, Note_on_c, 1, 71, 0
7, 241299, Note_on_c, 1, 74, 0
7, 241320, Note_on_c, 1, 74, 84
7, 241320, Note_on_c, 1, 71, 84
7, 241419, Note_on_c, 1, 74, 0
7, 241419, Note_on_c, 1, 71, 0
7, 241440, Note_on_c, 1, 76, 84
7, 241440, Note_on_c, 1, 72, 84
7, 241679, Note_on_c, 1, 76, 0
7, 241679, Note_on_c, 1, 72, 0
7, 242040, Note_on_c, 1, 74, 84
7, 242040, Note_on_c, 1, 79, 84
7, 242139, Note_on_c, 1, 74, 0
7, 242139, Note_on_c, 1, 79, 0
7, 242160, Note_on_c, 1, 79, 84
7, 242160, Note_on_c, 1, 74, 84
7, 242259, Note_on_c, 1, 79, 0
7, 242259, Note_on_c, 1, 74, 0
7, 242280, Note_on_c, 1, 74, 84
7, 242280, Note_on_c, 1, 79, 84
7, 242379, Note_on_c, 1, 74, 0
7, 242379, Note_on_c, 1, 79, 0
7, 242400, Note_on_c, 1, 76, 84
7, 242400, Note_on_c, 1, 79, 84
7, 242499, Note_on_c, 1, 76, 0
7, 242499, Note_on_c, 1, 79, 0
7, 242520, Note_on_c, 1, 72, 84
7, 242520, Note_on_c, 1, 84, 84
7, 242619, Note_on_c, 1, 72, 0
7, 242619, Note_on_c, 1, 84, 0
7, 242640, Note_on_c, 1, 84, 84
7, 242640, Note_on_c, 1, 72, 84
7, 242739, Note_on_c, 1, 84, 0
7, 242739, Note_on_c, 1, 72, 0
7, 242760, Note_on_c, 1, 84, 84
7, 242760, Note_on_c, 1, 72, 84
7, 242859, Note_on_c, 1, 84, 0
7, 242859, Note_on_c, 1, 72, 0
7, 242880, Note_on_c, 1, 72, 84
7, 242880, Note_on_c, 1, 84, 84
7, 243359, Note_on_c, 1, 72, 0
7, 243359, Note_on_c, 1, 84, 0
7, 243360, Note_on_c, 1, 84, 84
7, 243360, Note_on_c, 1, 72, 84
7, 243459, Note_on_c, 1, 84, 0
7, 243459, Note_on_c, 1, 72, 0
7, 243480, Note_on_c, 1, 72, 84
7, 243480, Note_on_c, 1, 84, 84
7, 243579, Note_on_c, 1, 72, 0
7, 243579, Note_on_c, 1, 84, 0
7, 243600, Note_on_c, 1, 84, 84
7, 243600, Note_on_c, 1, 72, 84
7, 243699, Note_on_c, 1, 84, 0
7, 243699, Note_on_c, 1, 72, 0
7, 243720, Note_on_c, 1, 72, 84
7, 243720, Note_on_c, 1, 84, 84
7, 243819, Note_on_c, 1, 72, 0
7, 243819, Note_on_c, 1, 84, 0
7, 243840, Note_on_c, 1, 84, 84
7, 243840, Note_on_c, 1, 72, 84
7, 244319, Note_on_c, 1, 84, 0
7, 244319, Note_on_c, 1, 72, 0
7, 244320, Note_on_c, 1, 84, 84
7, 244320, Note_on_c, 1, 72, 84
7, 244419, Note_on_c, 1, 84, 0
7, 244419, Note_on_c, 1, 72, 0
7, 244440, Note_on_c, 1, 72, 84
7, 244440, Note_on_c, 1, 84, 84
7, 244539, Note_on_c, 1, 72, 0
7, 244539, Note_on_c, 1, 84, 0
7, 244560, Note_on_c, 1, 84, 84
7, 244560, Note_on_c, 1, 72, 84
7, 244659, Note_on_c, 1, 84, 0
7, 244659, Note_on_c, 1, 72, 0
7, 244680, Note_on_c, 1, 84, 84
7, 244680, Note_on_c, 1, 72, 84
7, 244779, Note_on_c, 1, 84, 0
7, 244779, Note_on_c, 1, 72, 0
7, 244800, Note_on_c, 1, 72, 84
7, 244800, Note_on_c, 1, 84, 84
7, 245279, Note_on_c, 1, 72, 0
7, 245279, Note_on_c, 1, 84, 0
7, 245280, Note_on_c, 1, 72, 84
7, 245280, Note_on_c, 1, 84, 84
7, 245379, Note_on_c, 1, 72, 0
7, 245379, Note_on_c, 1, 84, 0
7, 245400, Note_on_c, 1, 84, 84
7, 245400, Note_on_c, 1, 72, 84
7, 245499, Note_on_c, 1, 84, 0
7, 245499, Note_on_c, 1, 72, 0
7, 245520, Note_on_c, 1, 84, 84
7, 245520, Note_on_c, 1, 72, 84
7, 245619, Note_on_c, 1, 84, 0
7, 245619, Note_on_c, 1, 72, 0
7, 245640, Note_on_c, 1, 84, 84
7, 245640, Note_on_c, 1, 72, 84
7, 245739, Note_on_c, 1, 84, 0
7, 245739, Note_on_c, 1, 72, 0
7, 245760, Note_on_c, 1, 84, 84
7, 245760, Note_on_c, 1, 72, 84
7, 246219, Note_on_c, 1, 84, 0
7, 246219, Note_on_c, 1, 72, 0
7, 246240, Note_on_c, 1, 73, 84
7, 246240, Note_on_c, 1, 85, 84
7, 246479, Note_on_c, 1, 85, 0
7, 246480, Note_on_c, 1, 80, 84
7, 248139, Note_on_c, 1, 73, 0
7, 248139, Note_on_c, 1, 80, 0
7, 248160, Note_on_c, 1, 73, 84
7, 248160, Note_on_c, 1, 80, 84
7, 248399, Note_on_c, 1, 73, 0
7, 248399, Note_on_c, 1, 80, 0
7, 250200, Note_on_c, 1, 75, 84
7, 250200, Note_on_c, 1, 81, 84
7, 250299, Note_on_c, 1, 75, 0
7, 250299, Note_on_c, 1, 81, 0
7, 250320, Note_on_c, 1, 75, 84
7, 250320, Note_on_c, 1, 81, 84
7, 250419, Note_on_c, 1, 75, 0
7, 250419, Note_on_c, 1, 81, 0
7, 250440, Note_on_c, 1, 75, 84
7, 250440, Note_on_c, 1, 81, 84
7, 250539, Note_on_c, 1, 75, 0
7, 250539, Note_on_c, 1, 81, 0
7, 250560, Note_on_c, 1, 81, 84
7, 250560, Note_on_c, 1, 75, 84
7, 252459, Note_on_c, 1, 81, 0
7, 252459, Note_on_c, 1, 75, 0
7, 252480, Note_on_c, 1, 81, 84
7, 252480, Note_on_c, 1, 75, 84
7, 252719, Note_on_c, 1, 81, 0
7, 252719, Note_on_c, 1, 75, 0
7, 253080, Note_on_c, 1, 72, 84
7, 253179, Note_on_c, 1, 72, 0
7, 253200, Note_on_c, 1, 72, 84
7, 253299, Note_on_c, 1, 72, 0
7, 253320, Note_on_c, 1, 72, 84
7, 253419, Note_on_c, 1, 72, 0
7, 253440, Note_on_c, 1, 75, 84
7, 253679, Note_on_c, 1, 75, 0
7, 255840, Note_on_c, 1, 83, 76
7, 255840, Note_on_c, 1, 77, 76
7, 256799, Note_on_c, 1, 83, 0
7, 256799, Note_on_c, 1, 77, 0
7, 257760, Note_on_c, 1, 83, 76
7, 257760, Note_on_c, 1, 77, 76
7, 258719, Note_on_c, 1, 83, 0
7, 258719, Note_on_c, 1, 77, 0
7, 260160, Note_on_c, 1, 84, 76
7, 260160, Note_on_c, 1, 72, 76
7, 260379, Note_on_c, 1, 84, 0
7, 260379, Note_on_c, 1, 72, 0
7, 260400, Note_on_c, 1, 74, 76
7, 260400, Note_on_c, 1, 86, 76
7, 260619, Note_on_c, 1, 74, 0
7, 260619, Note_on_c, 1, 86, 0
7, 260640, Note_on_c, 1, 70, 76
7, 260640, Note_on_c, 1, 82, 76
7, 260859, Note_on_c, 1, 70, 0
7, 260859, Note_on_c, 1, 82, 0
7, 260880, Note_on_c, 1, 72, 76
7, 260880, Note_on_c, 1, 84, 76
7, 261099, Note_on_c, 1, 72, 0
7, 261099, Note_on_c, 1, 84, 0
7, 261120, Note_on_c, 1, 80, 76
7, 261120, Note_on_c, 1, 68, 76
7, 261339, Note_on_c, 1, 80, 0
7, 261339, Note_on_c, 1, 68, 0
7, 261360, Note_on_c, 1, 82, 76
7, 261360, Note_on_c, 1, 70, 76
7, 261579, Note_on_c, 1, 82, 0
7, 261579, Note_on_c, 1, 70, 0
7, 261600, Note_on_c, 1, 67, 76
7, 261600, Note_on_c, 1, 79, 76
7, 261819, Note_on_c, 1, 67, 0
7, 261819, Note_on_c, 1, 79, 0
7, 261840, Note_on_c, 1, 80, 76
7, 262059, Note_on_c, 1, 80, 0
7, 262080, Note_on_c, 1, 77, 76
7, 262299, Note_on_c, 1, 77, 0
7, 262320, Note_on_c, 1, 75, 76
7, 262539, Note_on_c, 1, 75, 0
7, 262560, Note_on_c, 1, 74, 76
7, 262779, Note_on_c, 1, 74, 0
7, 262800, Note_on_c, 1, 75, 76
7, 263019, Note_on_c, 1, 75, 0
7, 263040, Note_on_c, 1, 77, 76
7, 263259, Note_on_c, 1, 77, 0
7, 263280, Note_on_c, 1, 75, 76
7, 263499, Note_on_c, 1, 75, 0
7, 263520, Note_on_c, 1, 77, 76
7, 263739, Note_on_c, 1, 77, 0
7, 263760, Note_on_c, 1, 79, 76
7, 263979, Note_on_c, 1, 79, 0
7, 264000, Note_on_c, 1, 80, 76
7, 264219, Note_on_c, 1, 80, 0
7, 264240, Note_on_c, 1, 79, 76
7, 264459, Note_on_c, 1, 79, 0
7, 264480, Note_on_c, 1, 80, 76
7, 264699, Note_on_c, 1, 80, 0
7, 264720, Note_on_c, 1, 71, 76
7, 264720, Note_on_c, 1, 77, 76
7, 264939, Note_on_c, 1, 71, 0
7, 264939, Note_on_c, 1, 77, 0
7, 264960, Note_on_c, 1, 72, 76
7, 264960, Note_on_c, 1, 77, 76
7, 265179, Note_on_c, 1, 72, 0
7, 265179, Note_on_c, 1, 77, 0
7, 265200, Note_on_c, 1, 71, 76
7, 265200, Note_on_c, 1, 77, 76
7, 265419, Note_on_c, 1, 71, 0
7, 265419, Note_on_c, 1, 77, 0
7, 265440, Note_on_c, 1, 72, 76
7, 265440, Note_on_c, 1, 77, 76
7, 265659, Note_on_c, 1, 72, 0
7, 265659, Note_on_c, 1, 77, 0
7, 265680, Note_on_c, 1, 77, 76
7, 265680, Note_on_c, 1, 74, 76
7, 265899, Note_on_c, 1, 77, 0
7, 265899, Note_on_c, 1, 74, 0
7, 265920, Note_on_c, 1, 75, 76
7, 265920, Note_on_c, 1, 72, 76
7, 266859, Note_on_c, 1, 75, 0
7, 266859, Note_on_c, 1, 72, 0
7, 266880, Note_on_c, 1, 77, 76
7, 266880, Note_on_c, 1, 72, 76
7, 267819, Note_on_c, 1, 77, 0
7, 267819, Note_on_c, 1, 72, 0
7, 267840, Note_on_c, 1, 79, 76
7, 267840, Note_on_c, 1, 72, 76
7, 268779, Note_on_c, 1, 79, 0
7, 268779, Note_on_c, 1, 72, 0
7, 268800, Note_on_c, 1, 72, 76
7, 268800, Note_on_c, 1, 80, 76
7, 269259, Note_on_c, 1, 80, 0
7, 269280, Note_on_c, 1, 77, 76
7, 269739, Note_on_c, 1, 72, 0
7, 269739, Note_on_c, 1, 77, 0
7, 269760, Note_on_c, 1, 71, 76
7, 269760, Note_on_c, 1, 77, 76
7, 270219, Note_on_c, 1, 71, 0
7, 270219, Note_on_c, 1, 77, 0
7, 270240, Note_on_c, 1, 74, 76
7, 270240, Note_on_c, 1, 79, 76
7, 270699, Note_on_c, 1, 74, 0
7, 270699, Note_on_c, 1, 79, 0
7, 270720, Note_on_c, 1, 75, 76
7, 270720, Note_on_c, 1, 79, 76
7, 270899, Note_on_c, 1, 75, 0
7, 270899, Note_on_c, 1, 79, 0
7, 271200, Note_on_c, 1, 75, 76
7, 271200, Note_on_c, 1, 84, 76
7, 271379, Note_on_c, 1, 75, 0
7, 271379, Note_on_c, 1, 84, 0
7, 271680, Note_on_c, 1, 80, 76
7, 271680, Note_on_c, 1, 84, 76
7, 271859, Note_on_c, 1, 80, 0
7, 271859, Note_on_c, 1, 84, 0
7, 272160, Note_on_c, 1, 84, 76
7, 272160, Note_on_c, 1, 80, 76
7, 272339, Note_on_c, 1, 84, 0
7, 272339, Note_on_c, 1, 80, 0
7, 272640, Note_on_c, 1, 79, 76
7, 272640, Note_on_c, 1, 84, 76
7, 272819, Note_on_c, 1, 79, 0
7, 272819, Note_on_c, 1, 84, 0
7, 273120, Note_on_c, 1, 79, 76
7, 273120, Note_on_c, 1, 83, 76
7, 273299, Note_on_c, 1, 79, 0
7, 273299, Note_on_c, 1, 83, 0
7, 273600, Note_on_c, 1, 72, 84
7, 273600, Note_on_c, 1, 84, 84
7, 274059, Note_on_c, 1, 72, 0
7, 274059, Note_on_c, 1, 84, 0
7, 274080, Note_on_c, 1, 72, 84
7, 274080, Note_on_c, 1, 84, 84
7, 274259, Note_on_c, 1, 72, 0
7, 274259, Note_on_c, 1, 84, 0
7, 274320, Note_on_c, 1, 84, 84
7, 274320, Note_on_c, 1, 72, 84
7, 274499, Note_on_c, 1, 84, 0
7, 274499, Note_on_c, 1, 72, 0
7, 274560, Note_on_c, 1, 84, 84
7, 274560, Note_on_c, 1, 72, 84
7, 275039, Note_on_c, 1, 84, 0
7, 275039, Note_on_c, 1, 72, 0
7, 276000, Note_on_c, 1, 84, 84
7, 276000, Note_on_c, 1, 72, 84
7, 276179, Note_on_c, 1, 84, 0
7, 276179, Note_on_c, 1, 72, 0
7, 276240, Note_on_c, 1, 84, 84
7, 276240, Note_on_c, 1, 72, 84
7, 276419, Note_on_c, 1, 84, 0
7, 276419, Note_on_c, 1, 72, 0
7, 276480, Note_on_c, 1, 84, 84
7, 276480, Note_on_c, 1, 72, 84
7, 276959, Note_on_c, 1, 84, 0
7, 276959, Note_on_c, 1, 72, 0
7, 277920, Note_on_c, 1, 79, 84
7, 277920, Note_on_c, 1, 67, 84
7, 278099, Note_on_c, 1, 79, 0
7, 278099, Note_on_c, 1, 67, 0
7, 278160, Note_on_c, 1, 67, 84
7, 278160, Note_on_c, 1, 79, 84
7, 278339, Note_on_c, 1, 67, 0
7, 278339, Note_on_c, 1, 79, 0
7, 278400, Note_on_c, 1, 67, 84
7, 278400, Note_on_c, 1, 79, 84
7, 278879, Note_on_c, 1, 67, 0
7, 278879, Note_on_c, 1, 79, 0
7, 279840, Note_on_c, 1, 79, 84
7, 279840, Note_on_c, 1, 67, 84
7, 280019, Note_on_c, 1, 79, 0
7, 280019, Note_on_c, 1, 67, 0
7, 280080, Note_on_c, 1, 67, 84
7, 280080, Note_on_c, 1, 79, 84
7, 280259, Note_on_c, 1, 67, 0
7, 280259, Note_on_c, 1, 79, 0
7, 280320, Note_on_c, 1, 79, 84
7, 280320, Note_on_c, 1, 67, 84
7, 280779, Note_on_c, 1, 79, 0
7, 280779, Note_on_c, 1, 67, 0
7, 280800, Note_on_c, 1, 84, 84
7, 280800, Note_on_c, 1, 80, 84
7, 281039, Note_on_c, 1, 84, 0
7, 281039, Note_on_c, 1, 80, 0
7, 281040, Note_on_c, 1, 82, 84
7, 281040, Note_on_c, 1, 79, 84
7, 281279, Note_on_c, 1, 82, 0
7, 281279, Note_on_c, 1, 79, 0
7, 281280, Note_on_c, 1, 80, 84
7, 281280, Note_on_c, 1, 77, 84
7, 281519, Note_on_c, 1, 80, 0
7, 281519, Note_on_c, 1, 77, 0
7, 281520, Note_on_c, 1, 75, 84
7, 281520, Note_on_c, 1, 79, 84
7, 281759, Note_on_c, 1, 75, 0
7, 281759, Note_on_c, 1, 79, 0
7, 282240, Note_on_c, 1, 80, 92
7, 282240, Note_on_c, 1, 77, 92
7, 282479, Note_on_c, 1, 80, 0
7, 282479, Note_on_c, 1, 77, 0
7, 282480, Note_on_c, 1, 75, 84
7, 282480, Note_on_c, 1, 79, 84
7, 282699, Note_on_c, 1, 75, 0
7, 282699, Note_on_c, 1, 79, 0
7, 282720, Note_on_c, 1, 84, 84
7, 282720, Note_on_c, 1, 77, 84
7, 282939, Note_on_c, 1, 84, 0
7, 282959, Note_on_c, 1, 77, 0
7, 282960, Note_on_c, 1, 84, 84
7, 282960, Note_on_c, 1, 75, 84
7, 283199, Note_on_c, 1, 84, 0
7, 283199, Note_on_c, 1, 75, 0
7, 283440, Note_on_c, 1, 84, 84
7, 283440, Note_on_c, 1, 75, 84
7, 283679, Note_on_c, 1, 84, 0
7, 283679, Note_on_c, 1, 75, 0
7, 283920, Note_on_c, 1, 83, 84
7, 283920, Note_on_c, 1, 74, 84
7, 284159, Note_on_c, 1, 83, 0
7, 284159, Note_on_c, 1, 74, 0
7, 285600, Note_on_c, 1, 80, 84
7, 285600, Note_on_c, 1, 77, 84
7, 285839, Note_on_c, 1, 80, 0
7, 285839, Note_on_c, 1, 77, 0
7, 285840, Note_on_c, 1, 75, 84
7, 285840, Note_on_c, 1, 79, 84
7, 286079, Note_on_c, 1, 75, 0
7, 286079, Note_on_c, 1, 79, 0
7, 286560, Note_on_c, 1, 84, 84
7, 286560, Note_on_c, 1, 77, 84
7, 286779, Note_on_c, 1, 84, 0
7, 286799, Note_on_c, 1, 77, 0
7, 286800, Note_on_c, 1, 75, 84
7, 286800, Note_on_c, 1, 84, 84
7, 287039, Note_on_c, 1, 75, 0
7, 287039, Note_on_c, 1, 84, 0
7, 287280, Note_on_c, 1, 84, 84
7, 287280, Note_on_c, 1, 75, 84
7, 287519, Note_on_c, 1, 84, 0
7, 287519, Note_on_c, 1, 75, 0
7, 287760, Note_on_c, 1, 83, 84
7, 287760, Note_on_c, 1, 74, 84
7, 287979, Note_on_c, 1, 83, 0
7, 287979, Note_on_c, 1, 74, 0
7, 288000, Note_on_c, 1, 84, 84
7, 288000, Note_on_c, 1, 75, 84
7, 288239, Note_on_c, 1, 84, 0
7, 288239, Note_on_c, 1, 75, 0
7, 288600, Note_on_c, 1, 74, 84
7, 288600, Note_on_c, 1, 83, 84
7, 288699, Note_on_c, 1, 74, 0
7, 288699, Note_on_c, 1, 83, 0
7, 288720, Note_on_c, 1, 83, 84
7, 288720, Note_on_c, 1, 74, 84
7, 288819, Note_on_c, 1, 83, 0
7, 288819, Note_on_c, 1, 74, 0
7, 288840, Note_on_c, 1, 83, 84
7, 288840, Note_on_c, 1, 74, 84
7, 288939, Note_on_c, 1, 83, 0
7, 288939, Note_on_c, 1, 74, 0
7, 288960, Note_on_c, 1, 83, 84
7, 288960, Note_on_c, 1, 74, 84
7, 289679, Note_on_c, 1, 83, 0
7, 289679, Note_on_c, 1, 74, 0
7, 289680, Note_on_c, 1, 75, 84
7, 289680, Note_on_c, 1, 84, 84
7, 289919, Note_on_c, 1, 75, 0
7, 289919, Note_on_c, 1, 84, 0
7, 289920, Note_on_c, 1, 77, 84
7, 289920, Note_on_c, 1, 86, 84
7, 290159, Note_on_c, 1, 77, 0
7, 290159, Note_on_c, 1, 86, 0
7, 290160, Note_on_c, 1, 83, 84
7, 290160, Note_on_c, 1, 74, 84
7, 290399, Note_on_c, 1, 83, 0
7, 290399, Note_on_c, 1, 74, 0
7, 290400, Note_on_c, 1, 84, 84
7, 290400, Note_on_c, 1, 75, 84
7, 290639, Note_on_c, 1, 84, 0
7, 290639, Note_on_c, 1, 75, 0
7, 290640, Note_on_c, 1, 86, 84
7, 290640, Note_on_c, 1, 77, 84
7, 290859, Note_on_c, 1, 86, 0
7, 290859, Note_on_c, 1, 77, 0
7, 290880, Note_on_c, 1, 75, 84
7, 290880, Note_on_c, 1, 84, 84
7, 291119, Note_on_c, 1, 75, 0
7, 291119, Note_on_c, 1, 84, 0
7, 291480, Note_on_c, 1, 79, 84
7, 291579, Note_on_c, 1, 79, 0
7, 291600, Note_on_c, 1, 79, 84
7, 291699, Note_on_c, 1, 79, 0
7, 291720, Note_on_c, 1, 79, 84
7, 291819, Note_on_c, 1, 79, 0
7, 291840, Note_on_c, 1, 79, 84
7, 291939, Note_on_c, 1, 79, 0
7, 291960, Note_on_c, 1, 79, 84
7, 292059, Note_on_c, 1, 79, 0
7, 292080, Note_on_c, 1, 79, 84
7, 292179, Note_on_c, 1, 79, 0
7, 292200, Note_on_c, 1, 79, 84
7, 292299, Note_on_c, 1, 79, 0
7, 292320, Note_on_c, 1, 79, 84
7, 292419, Note_on_c, 1, 79, 0
7, 292440, Note_on_c, 1, 79, 84
7, 292539, Note_on_c, 1, 79, 0
7, 292560, Note_on_c, 1, 79, 84
7, 292659, Note_on_c, 1, 79, 0
7, 292680, Note_on_c, 1, 79, 84
7, 292779, Note_on_c, 1, 79, 0
7, 292800, Note_on_c, 1, 75, 84
7, 292800, Note_on_c, 1, 79, 84
7, 294239, Note_on_c, 1, 75, 0
7, 294239, Note_on_c, 1, 79, 0
7, 294360, Note_on_c, 1, 77, 84
7, 294360, Note_on_c, 1, 79, 84
7, 294459, Note_on_c, 1, 77, 0
7, 294459, Note_on_c, 1, 79, 0
7, 294480, Note_on_c, 1, 79, 84
7, 294480, Note_on_c, 1, 77, 84
7, 294579, Note_on_c, 1, 79, 0
7, 294579, Note_on_c, 1, 77, 0
7, 294600, Note_on_c, 1, 79, 84
7, 294600, Note_on_c, 1, 77, 84
7, 294699, Note_on_c, 1, 79, 0
7, 294699, Note_on_c, 1, 77, 0
7, 294720, Note_on_c, 1, 74, 84
7, 294720, Note_on_c, 1, 79, 84
7, 296639, Note_on_c, 1, 74, 0
7, 296639, Note_on_c, 1, 79, 0
7, 298320, Note_on_c, 1, 80, 52
7, 298559, Note_on_c, 1, 80, 0
7, 298560, Note_on_c, 1, 79, 52
7, 299039, Note_on_c, 1, 79, 0
7, 300240, Note_on_c, 1, 80, 52
7, 300479, Note_on_c, 1, 80, 0
7, 300480, Note_on_c, 1, 79, 52
7, 300579, Note_on_c, 1, 79, 0
7, 300600, Note_on_c, 1, 79, 84
7, 300600, Note_on_c, 1, 74, 84
7, 300699, Note_on_c, 1, 79, 0
7, 300699, Note_on_c, 1, 74, 0
7, 300720, Note_on_c, 1, 79, 84
7, 300720, Note_on_c, 1, 74, 84
7, 300819, Note_on_c, 1, 79, 0
7, 300819, Note_on_c, 1, 74, 0
7, 300840, Note_on_c, 1, 74, 84
7, 300840, Note_on_c, 1, 79, 84
7, 300939, Note_on_c, 1, 74, 0
7, 300939, Note_on_c, 1, 79, 0
7, 300960, Note_on_c, 1, 75, 84
7, 300960, Note_on_c, 1, 79, 84
7, 301199, Note_on_c, 1, 75, 0
7, 301199, Note_on_c, 1, 79, 0
7, 301560, Note_on_c, 1, 83, 84
7, 301560, Note_on_c, 1, 74, 84
7, 301659, Note_on_c, 1, 83, 0
7, 301659, Note_on_c, 1, 74, 0
7, 301680, Note_on_c, 1, 74, 84
7, 301680, Note_on_c, 1, 83, 84
7, 301779, Note_on_c, 1, 74, 0
7, 301779, Note_on_c, 1, 83, 0
7, 301800, Note_on_c, 1, 83, 84
7, 301800, Note_on_c, 1, 74, 84
7, 301899, Note_on_c, 1, 83, 0
7, 301899, Note_on_c, 1, 74, 0
7, 301920, Note_on_c, 1, 84, 84
7, 301920, Note_on_c, 1, 75, 84
7, 302159, Note_on_c, 1, 84, 0
7, 302159, Note_on_c, 1, 75, 0
7, 302520, Note_on_c, 1, 83, 84
7, 302520, Note_on_c, 1, 74, 84
7, 302619, Note_on_c, 1, 83, 0
7, 302619, Note_on_c, 1, 74, 0
7, 302640, Note_on_c, 1, 83, 84
7, 302640, Note_on_c, 1, 74, 84
7, 302739, Note_on_c, 1, 83, 0
7, 302739, Note_on_c, 1, 74, 0
7, 302760, Note_on_c, 1, 74, 84
7, 302760, Note_on_c, 1, 83, 84
7, 302859, Note_on_c, 1, 74, 0
7, 302859, Note_on_c, 1, 83, 0
7, 302880, Note_on_c, 1, 84, 84
7, 302880, Note_on_c, 1, 75, 84
7, 303099, Note_on_c, 1, 84, 0
7, 303099, Note_on_c, 1, 75, 0
7, 303120, Note_on_c, 1, 74, 84
7, 303120, Note_on_c, 1, 83, 84
7, 303339, Note_on_c, 1, 74, 0
7, 303339, Note_on_c, 1, 83, 0
7, 303360, Note_on_c, 1, 84, 84
7, 303360, Note_on_c, 1, 75, 84
7, 303579, Note_on_c, 1, 84, 0
7, 303579, Note_on_c, 1, 75, 0
7, 303600, Note_on_c, 1, 83, 84
7, 303600, Note_on_c, 1, 74, 84
7, 303819, Note_on_c, 1, 83, 0
7, 303819, Note_on_c, 1, 74, 0
7, 303840, Note_on_c, 1, 75, 84
7, 303840, Note_on_c, 1, 84, 84
7, 304059, Note_on_c, 1, 75, 0
7, 304059, Note_on_c, 1, 84, 0
7, 304080, Note_on_c, 1, 83, 84
7, 304080, Note_on_c, 1, 74, 84
7, 304299, Note_on_c, 1, 83, 0
7, 304299, Note_on_c, 1, 74, 0
7, 304320, Note_on_c, 1, 75, 84
7, 304320, Note_on_c, 1, 84, 84
7, 304539, Note_on_c, 1, 75, 0
7, 304539, Note_on_c, 1, 84, 0
7, 304560, Note_on_c, 1, 74, 84
7, 304560, Note_on_c, 1, 83, 84
7, 304779, Note_on_c, 1, 74, 0
7, 304779, Note_on_c, 1, 83, 0
7, 304800, Note_on_c, 1, 84, 84
7, 304800, Note_on_c, 1, 75, 84
7, 305039, Note_on_c, 1, 84, 0
7, 305039, Note_on_c, 1, 75, 0
7, 305280, Note_on_c, 1, 83, 84
7, 305280, Note_on_c, 1, 74, 84
7, 305519, Note_on_c, 1, 83, 0
7, 305519, Note_on_c, 1, 74, 0
7, 305760, Note_on_c, 1, 84, 84
7, 305760, Note_on_c, 1, 75, 84
7, 305999, Note_on_c, 1, 84, 0
7, 305999, Note_on_c, 1, 75, 0
7, 305999, End_track
8, 0, Start_track
8, 0, Title_t, "Clarinet in B-flat"
8, 0, MIDI_port, 0
8, 0, Program_c, 2, 71
8, 0, Control_c, 2, 7, 88
8, 0, Control_c, 2, 10, 75
8, 0, Control_c, 2, 11, 127
8, 120, Note_on_c, 2, 67, 84
8, 219, Note_on_c, 2, 67, 0
8, 240, Note_on_c, 2, 67, 84
8, 339, Note_on_c, 2, 67, 0
8, 360, Note_on_c, 2, 67, 84
8, 459, Note_on_c, 2, 67, 0
8, 480, Note_on_c, 2, 63, 84
8, 959, Note_on_c, 2, 63, 0
8, 1080, Note_on_c, 2, 65, 84
8, 1179, Note_on_c, 2, 65, 0
8, 1200, Note_on_c, 2, 65, 84
8, 1299, Note_on_c, 2, 65, 0
8, 1320, Note_on_c, 2, 65, 84
8, 1419, Note_on_c, 2, 65, 0
8, 1440, Note_on_c, 2, 62, 84
8, 2399, Note_on_c, 2, 62, 0
8, 8280, Note_on_c, 2, 55, 58
8, 8280, Note_on_c, 2, 59, 58
8, 8379, Note_on_c, 2, 55, 0
8, 8379, Note_on_c, 2, 59, 0
8, 8400, Note_on_c, 2, 62, 64
8, 8400, Note_on_c, 2, 59, 64
8, 8499, Note_on_c, 2, 62, 0
8, 8499, Note_on_c, 2, 59, 0
8, 8520, Note_on_c, 2, 62, 70
8, 8520, Note_on_c, 2, 67, 70
8, 8619, Note_on_c, 2, 62, 0
8, 8619, Note_on_c, 2, 67, 0
8, 8640, Note_on_c, 2, 63, 76
8, 8640, Note_on_c, 2, 67, 76
8, 8879, Note_on_c, 2, 63, 0
8, 8879, Note_on_c, 2, 67, 0
8, 9120, Note_on_c, 2, 66, 76
8, 9120, Note_on_c, 2, 60, 76
8, 9359, Note_on_c, 2, 66, 0
8, 9359, Note_on_c, 2, 60, 0
8, 9600, Note_on_c, 2, 59, 76
8, 9600, Note_on_c, 2, 62, 76
8, 9839, Note_on_c, 2, 59, 0
8, 9839, Note_on_c, 2, 62, 0
8, 10200, Note_on_c, 2, 68, 84
8, 10299, Note_on_c, 2, 68, 0
8, 10320, Note_on_c, 2, 68, 84
8, 10419, Note_on_c, 2, 68, 0
8, 10440, Note_on_c, 2, 68, 84
8, 10539, Note_on_c, 2, 68, 0
8, 10560, Note_on_c, 2, 65, 84
8, 11519, Note_on_c, 2, 65, 0
8, 15000, Note_on_c, 2, 74, 52
8, 15099, Note_on_c, 2, 74, 0
8, 15120, Note_on_c, 2, 74, 52
8, 15219, Note_on_c, 2, 74, 0
8, 15240, Note_on_c, 2, 74, 52
8, 15339, Note_on_c, 2, 74, 0
8, 15360, Note_on_c, 2, 72, 52
8, 15599, Note_on_c, 2, 72, 0
8, 17760, Note_on_c, 2, 65, 76
8, 17760, Note_on_c, 2, 68, 76
8, 17999, Note_on_c, 2, 65, 0
8, 17999, Note_on_c, 2, 68, 0
8, 18240, Note_on_c, 2, 67, 76
8, 18240, Note_on_c, 2, 64, 76
8, 18479, Note_on_c, 2, 67, 0
8, 18479, Note_on_c, 2, 64, 0
8, 18720, Note_on_c, 2, 65, 76
8, 18720, Note_on_c, 2, 68, 76
8, 18959, Note_on_c, 2, 65, 0
8, 18959, Note_on_c, 2, 68, 0
8, 19200, Note_on_c, 2, 67, 76
8, 19200, Note_on_c, 2, 70, 76
8, 19439, Note_on_c, 2, 67, 0
8, 19439, Note_on_c, 2, 70, 0
8, 19680, Note_on_c, 2, 65, 76
8, 19680, Note_on_c, 2, 68, 76
8, 19919, Note_on_c, 2, 65, 0
8, 19919, Note_on_c, 2, 68, 0
8, 20160, Note_on_c, 2, 65, 76
8, 20160, Note_on_c, 2, 62, 76
8, 20399, Note_on_c, 2, 65, 0
8, 20399, Note_on_c, 2, 62, 0
8, 20640, Note_on_c, 2, 67, 76
8, 20640, Note_on_c, 2, 63, 76
8, 22539, Note_on_c, 2, 67, 0
8, 22539, Note_on_c, 2, 63, 0
8, 22560, Note_on_c, 2, 65, 76
8, 22560, Note_on_c, 2, 62, 76
8, 24219, Note_on_c, 2, 65, 0
8, 24219, Note_on_c, 2, 62, 0
8, 24240, Note_on_c, 2, 60, 76
8, 24240, Note_on_c, 2, 63, 76
8, 24459, Note_on_c, 2, 60, 0
8, 24459, Note_on_c, 2, 63, 0
8, 24480, Note_on_c, 2, 75, 84
8, 24480, Note_on_c, 2, 66, 84
8, 26379, Note_on_c, 2, 75, 0
8, 26379, Note_on_c, 2, 66, 0
8, 26400, Note_on_c, 2, 66, 84
8, 26400, Note_on_c, 2, 75, 84
8, 26639, Note_on_c, 2, 66, 0
8, 26639, Note_on_c, 2, 75, 0
8, 27360, Note_on_c, 2, 70, 84
8, 27599, Note_on_c, 2, 70, 0
8, 31680, Note_on_c, 2, 70, 52
8, 31919, Note_on_c, 2, 70, 0
8, 31920, Note_on_c, 2, 75, 52
8, 32159, Note_on_c, 2, 75, 0
8, 32160, Note_on_c, 2, 74, 52
8, 32399, Note_on_c, 2, 74, 0
8, 32400, Note_on_c, 2, 75, 52
8, 32639, Note_on_c, 2, 75, 0
8, 32640, Note_on_c, 2, 77, 52
8, 32879, Note_on_c, 2, 77, 0
8, 32880, Note_on_c, 2, 72, 52
8, 33099, Note_on_c, 2, 72, 0
8, 33120, Note_on_c, 2, 72, 52
8, 33359, Note_on_c, 2, 72, 0
8, 33360, Note_on_c, 2, 70, 52
8, 33599, Note_on_c, 2, 70, 0
8, 39120, Control_c, 2, 11, 64
8, 39360, Control_c, 2, 11, 64
8, 39360, Note_on_c, 2, 72, 84
8, 39360, Note_on_c, 2, 75, 84
8, 39470, Control_c, 2, 11, 65
8, 39580, Control_c, 2, 11, 67
8, 39690, Control_c, 2, 11, 68
8, 39800, Control_c, 2, 11, 69
8, 39910, Control_c, 2, 11, 71
8, 40020, Control_c, 2, 11, 72
8, 40130, Control_c, 2, 11, 73
8, 40240, Control_c, 2, 11, 75
8, 40350, Control_c, 2, 11, 76
8, 40460, Control_c, 2, 11, 77
8, 40570, Control_c, 2, 11, 78
8, 40680, Control_c, 2, 11, 80
8, 40779, Note_on_c, 2, 72, 0
8, 40779, Note_on_c, 2, 75, 0
8, 40790, Control_c, 2, 11, 81
8, 40800, Note_on_c, 2, 75, 84
8, 40800, Note_on_c, 2, 70, 84
8, 40900, Control_c, 2, 11, 82
8, 41010, Control_c, 2, 11, 84
8, 41120, Control_c, 2, 11, 85
8, 41230, Control_c, 2, 11, 86
8, 41340, Control_c, 2, 11, 88
8, 41450, Control_c, 2, 11, 89
8, 41560, Control_c, 2, 11, 90
8, 41670, Control_c, 2, 11, 92
8, 41739, Note_on_c, 2, 75, 0
8, 41739, Note_on_c, 2, 70, 0
8, 41760, Note_on_c, 2, 75, 84
8, 41760, Note_on_c, 2, 69, 84
8, 41780, Control_c, 2, 11, 93
8, 41890, Control_c, 2, 11, 94
8, 42000, Control_c, 2, 11, 96
8, 42110, Control_c, 2, 11, 97
8, 42220, Control_c, 2, 11, 98
8, 42330, Control_c, 2, 11, 99
8, 42440, Control_c, 2, 11, 101
8, 42550, Control_c, 2, 11, 102
8, 42660, Control_c, 2, 11, 103
8, 42770, Control_c, 2, 11, 105
8, 42880, Control_c, 2, 11, 106
8, 42990, Control_c, 2, 11, 107
8, 43100, Control_c, 2, 11, 109
8, 43210, Control_c, 2, 11, 110
8, 43320, Control_c, 2, 11, 111
8, 43430, Control_c, 2, 11, 113
8, 43540, Control_c, 2, 11, 114
8, 43650, Control_c, 2, 11, 115
8, 43760, Control_c, 2, 11, 117
8, 43870, Control_c, 2, 11, 118
8, 43899, Note_on_c, 2, 75, 0
8, 43899, Note_on_c, 2, 69, 0
8, 43920, Note_on_c, 2, 69, 84
8, 43920, Note_on_c, 2, 75, 84
8, 43980, Control_c, 2, 11, 119
8, 44090, Control_c, 2, 11, 120
8, 44139, Note_on_c, 2, 69, 0
8, 44139, Note_on_c, 2, 75, 0
8, 44160, Note_on_c, 2, 75, 84
8, 44160, Note_on_c, 2, 69, 84
8, 44200, Control_c, 2, 11, 122
8, 44310, Control_c, 2, 11, 123
8, 44379, Note_on_c, 2, 75, 0
8, 44379, Note_on_c, 2, 69, 0
8, 44400, Note_on_c, 2, 75, 84
8, 44400, Note_on_c, 2, 69, 84
8, 44420, Control_c, 2, 11, 124
8, 44530, Control_c, 2, 11, 127
8, 44619, Note_on_c, 2, 75, 0
8, 44619, Note_on_c, 2, 69, 0
8, 44640, Note_on_c, 2, 70, 84
8, 44640, Note_on_c, 2, 68, 84
8, 45339, Note_on_c, 2, 70, 0
8, 45339, Note_on_c, 2, 68, 0
8, 45360, Note_on_c, 2, 70, 84
8, 45360, Note_on_c, 2, 65, 84
8, 45579, Note_on_c, 2, 70, 0
8, 45579, Note_on_c, 2, 65, 0
8, 45600, Note_on_c, 2, 67, 84
8, 45600, Note_on_c, 2, 70, 84
8, 45839, Note_on_c, 2, 67, 0
8, 45839, Note_on_c, 2, 70, 0
8, 46080, Note_on_c, 2, 70, 84
8, 46080, Note_on_c, 2, 68, 84
8, 46319, Note_on_c, 2, 70, 0
8, 46319, Note_on_c, 2, 68, 0
8, 46560, Note_on_c, 2, 67, 84
8, 46560, Note_on_c, 2, 70, 84
8, 46799, Note_on_c, 2, 67, 0
8, 46799, Note_on_c, 2, 70, 0
8, 47040, Note_on_c, 2, 65, 84
8, 47040, Note_on_c, 2, 72, 84
8, 47279, Note_on_c, 2, 65, 0
8, 47279, Note_on_c, 2, 72, 0
8, 47520, Note_on_c, 2, 67, 84
8, 47520, Note_on_c, 2, 70, 84
8, 47759, Note_on_c, 2, 67, 0
8, 47759, Note_on_c, 2, 70, 0
8, 48000, Note_on_c, 2, 70, 84
8, 48000, Note_on_c, 2, 65, 84
8, 48099, Note_on_c, 2, 70, 0
8, 48099, Note_on_c, 2, 65, 0
8, 48120, Note_on_c, 2, 69, 84
8, 48120, Note_on_c, 2, 81, 84
8, 48239, Note_on_c, 2, 69, 0
8, 48239, Note_on_c, 2, 81, 0
8, 48240, Note_on_c, 2, 70, 84
8, 48240, Note_on_c, 2, 82, 84
8, 48359, Note_on_c, 2, 70, 0
8, 48359, Note_on_c, 2, 82, 0
8, 48360, Note_on_c, 2, 81, 84
8, 48360, Note_on_c, 2, 69, 84
8, 48479, Note_on_c, 2, 81, 0
8, 48479, Note_on_c, 2, 69, 0
8, 48480, Note_on_c, 2, 82, 84
8, 48480, Note_on_c, 2, 70, 84
8, 48599, Note_on_c, 2, 82, 0
8, 48599, Note_on_c, 2, 70, 0
8, 48600, Note_on_c, 2, 81, 84
8, 48600, Note_on_c, 2, 69, 84
8, 48719, Note_on_c, 2, 81, 0
8, 48719, Note_on_c, 2, 69, 0
8, 48720, Note_on_c, 2, 70, 84
8, 48720, Note_on_c, 2, 82, 84
8, 48839, Note_on_c, 2, 70, 0
8, 48839, Note_on_c, 2, 82, 0
8, 48840, Note_on_c, 2, 81, 84
8, 48840, Note_on_c, 2, 69, 84
8, 48939, Note_on_c, 2, 81, 0
8, 48939, Note_on_c, 2, 69, 0
8, 48960, Note_on_c, 2, 70, 84
8, 48960, Note_on_c, 2, 82, 84
8, 49049, Note_on_c, 2, 70, 0
8, 49049, Note_on_c, 2, 82, 0
8, 49080, Note_on_c, 2, 84, 84
8, 49080, Note_on_c, 2, 72, 84
8, 49169, Note_on_c, 2, 84, 0
8, 49169, Note_on_c, 2, 72, 0
8, 49200, Note_on_c, 2, 70, 84
8, 49200, Note_on_c, 2, 82, 84
8, 49289, Note_on_c, 2, 70, 0
8, 49289, Note_on_c, 2, 82, 0
8, 49320, Note_on_c, 2, 68, 84
8, 49320, Note_on_c, 2, 80, 84
8, 49409, Note_on_c, 2, 68, 0
8, 49409, Note_on_c, 2, 80, 0
8, 49440, Note_on_c, 2, 67, 84
8, 49440, Note_on_c, 2, 79, 84
8, 49659, Note_on_c, 2, 67, 0
8, 49659, Note_on_c, 2, 79, 0
8, 49680, Note_on_c, 2, 67, 84
8, 49680, Note_on_c, 2, 79, 84
8, 49919, Note_on_c, 2, 67, 0
8, 49919, Note_on_c, 2, 79, 0
8, 50160, Note_on_c, 2, 74, 84
8, 50160, Note_on_c, 2, 65, 84
8, 50399, Note_on_c, 2, 74, 0
8, 50399, Note_on_c, 2, 65, 0
8, 50640, Note_on_c, 2, 67, 84
8, 50640, Note_on_c, 2, 75, 84
8, 50879, Note_on_c, 2, 67, 0
8, 50879, Note_on_c, 2, 75, 0
8, 51120, Note_on_c, 2, 65, 84
8, 51120, Note_on_c, 2, 68, 84
8, 51359, Note_on_c, 2, 65, 0
8, 51359, Note_on_c, 2, 68, 0
8, 51600, Note_on_c, 2, 63, 84
8, 51600, Note_on_c, 2, 67, 84
8, 51839, Note_on_c, 2, 63, 0
8, 51839, Note_on_c, 2, 67, 0
8, 52080, Note_on_c, 2, 65, 84
8, 52080, Note_on_c, 2, 74, 84
8, 52299, Note_on_c, 2, 65, 0
8, 52299, Note_on_c, 2, 74, 0
8, 52320, Note_on_c, 2, 67, 84
8, 52320, Note_on_c, 2, 75, 84
8, 52419, Note_on_c, 2, 67, 0
8, 52419, Note_on_c, 2, 75, 0
8, 52440, Note_on_c, 2, 79, 84
8, 52539, Note_on_c, 2, 79, 0
8, 52560, Note_on_c, 2, 79, 84
8, 52659, Note_on_c, 2, 79, 0
8, 52680, Note_on_c, 2, 79, 84
8, 52779, Note_on_c, 2, 79, 0
8, 52800, Note_on_c, 2, 75, 84
8, 52899, Note_on_c, 2, 75, 0
8, 52920, Note_on_c, 2, 82, 84
8, 52920, Note_on_c, 2, 70, 84
8, 53019, Note_on_c, 2, 82, 0
8, 53019, Note_on_c, 2, 70, 0
8, 53040, Note_on_c, 2, 82, 84
8, 53040, Note_on_c, 2, 70, 84
8, 53139, Note_on_c, 2, 82, 0
8, 53139, Note_on_c, 2, 70, 0
8, 53160, Note_on_c, 2, 82, 84
8, 53160, Note_on_c, 2, 70, 84
8, 53259, Note_on_c, 2, 82, 0
8, 53259, Note_on_c, 2, 70, 0
8, 53280, Note_on_c, 2, 67, 84
8, 53280, Note_on_c, 2, 79, 84
8, 53379, Note_on_c, 2, 67, 0
8, 53379, Note_on_c, 2, 79, 0
8, 53400, Note_on_c, 2, 63, 84
8, 53400, Note_on_c, 2, 75, 84
8, 53499, Note_on_c, 2, 63, 0
8, 53499, Note_on_c, 2, 75, 0
8, 53520, Note_on_c, 2, 75, 84
8, 53520, Note_on_c, 2, 63, 84
8, 53619, Note_on_c, 2, 75, 0
8, 53619, Note_on_c, 2, 63, 0
8, 53640, Note_on_c, 2, 63, 84
8, 53640, Note_on_c, 2, 75, 84
8, 53739, Note_on_c, 2, 63, 0
8, 53739, Note_on_c, 2, 75, 0
8, 53760, Note_on_c, 2, 58, 84
8, 53760, Note_on_c, 2, 70, 84
8, 54339, Note_on_c, 2, 58, 0
8, 54339, Note_on_c, 2, 70, 0
8, 54360, Note_on_c, 2, 79, 84
8, 54459, Note_on_c, 2, 79, 0
8, 54480, Note_on_c, 2, 79, 84
8, 54579, Note_on_c, 2, 79, 0
8, 54600, Note_on_c, 2, 79, 84
8, 54699, Note_on_c, 2, 79, 0
8, 54720, Note_on_c, 2, 75, 84
8, 54819, Note_on_c, 2, 75, 0
8, 54840, Note_on_c, 2, 82, 84
8, 54840, Note_on_c, 2, 70, 84
8, 54939, Note_on_c, 2, 82, 0
8, 54939, Note_on_c, 2, 70, 0
8, 54960, Note_on_c, 2, 70, 84
8, 54960, Note_on_c, 2, 82, 84
8, 55059, Note_on_c, 2, 70, 0
8, 55059, Note_on_c, 2, 82, 0
8, 55080, Note_on_c, 2, 70, 84
8, 55080, Note_on_c, 2, 82, 84
8, 55179, Note_on_c, 2, 70, 0
8, 55179, Note_on_c, 2, 82, 0
8, 55200, Note_on_c, 2, 79, 84
8, 55200, Note_on_c, 2, 67, 84
8, 55299, Note_on_c, 2, 79, 0
8, 55299, Note_on_c, 2, 67, 0
8, 55320, Note_on_c, 2, 63, 84
8, 55320, Note_on_c, 2, 75, 84
8, 55419, Note_on_c, 2, 63, 0
8, 55419, Note_on_c, 2, 75, 0
8, 55440, Note_on_c, 2, 63, 84
8, 55440, Note_on_c, 2, 75, 84
8, 55539, Note_on_c, 2, 63, 0
8, 55539, Note_on_c, 2, 75, 0
8, 55560, Note_on_c, 2, 75, 84
8, 55560, Note_on_c, 2, 63, 84
8, 55659, Note_on_c, 2, 75, 0
8, 55659, Note_on_c, 2, 63, 0
8, 55680, Note_on_c, 2, 58, 84
8, 55680, Note_on_c, 2, 70, 84
8, 56399, Note_on_c, 2, 58, 0
8, 56399, Note_on_c, 2, 70, 0
8, 56760, Note_on_c, 2, 74, 84
8, 56760, Note_on_c, 2, 65, 84
8, 56859, Note_on_c, 2, 74, 0
8, 56859, Note_on_c, 2, 65, 0
8, 56880, Note_on_c, 2, 65, 84
8, 56880, Note_on_c, 2, 74, 84
8, 56979, Note_on_c, 2, 65, 0
8, 56979, Note_on_c, 2, 74, 0
8, 57000, Note_on_c, 2, 65, 84
8, 57000, Note_on_c, 2, 74, 84
8, 57099, Note_on_c, 2, 65, 0
8, 57099, Note_on_c, 2, 74, 0
8, 57120, Note_on_c, 2, 67, 84
8, 57120, Note_on_c, 2, 75, 84
8, 57359, Note_on_c, 2, 67, 0
8, 57359, Note_on_c, 2, 75, 0
8, 57720, Note_on_c, 2, 74, 84
8, 57720, Note_on_c, 2, 77, 84
8, 57819, Note_on_c, 2, 74, 0
8, 57819, Note_on_c, 2, 77, 0
8, 57840, Note_on_c, 2, 77, 84
8, 57840, Note_on_c, 2, 74, 84
8, 57939, Note_on_c, 2, 77, 0
8, 57939, Note_on_c, 2, 74, 0
8, 57960, Note_on_c, 2, 77, 84
8, 57960, Note_on_c, 2, 74, 84
8, 58059, Note_on_c, 2, 77, 0
8, 58059, Note_on_c, 2, 74, 0
8, 58080, Note_on_c, 2, 75, 84
8, 58080, Note_on_c, 2, 67, 84
8, 58319, Note_on_c, 2, 75, 0
8, 58319, Note_on_c, 2, 67, 0
8, 59640, Note_on_c, 2, 67, 84
8, 59739, Note_on_c, 2, 67, 0
8, 59760, Note_on_c, 2, 67, 84
8, 59859, Note_on_c, 2, 67, 0
8, 59880, Note_on_c, 2, 67, 84
8, 59979, Note_on_c, 2, 67, 0
8, 60000, Note_on_c, 2, 63, 84
8, 60479, Note_on_c, 2, 63, 0
8, 60600, Note_on_c, 2, 65, 84
8, 60699, Note_on_c, 2, 65, 0
8, 60720, Note_on_c, 2, 65, 84
8, 60819, Note_on_c, 2, 65, 0
8, 60840, Note_on_c, 2, 65, 84
8, 60939, Note_on_c, 2, 65, 0
8, 60960, Note_on_c, 2, 62, 84
8, 61919, Note_on_c, 2, 62, 0
8, 67800, Note_on_c, 2, 59, 58
8, 67800, Note_on_c, 2, 55, 58
8, 67899, Note_on_c, 2, 59, 0
8, 67899, Note_on_c, 2, 55, 0
8, 67920, Note_on_c, 2, 59, 64
8, 67920, Note_on_c, 2, 62, 64
8, 68019, Note_on_c, 2, 59, 0
8, 68019, Note_on_c, 2, 62, 0
8, 68040, Note_on_c, 2, 67, 70
8, 68040, Note_on_c, 2, 62, 70
8, 68139, Note_on_c, 2, 67, 0
8, 68139, Note_on_c, 2, 62, 0
8, 68160, Note_on_c, 2, 63, 76
8, 68160, Note_on_c, 2, 67, 76
8, 68399, Note_on_c, 2, 63, 0
8, 68399, Note_on_c, 2, 67, 0
8, 68640, Note_on_c, 2, 66, 76
8, 68640, Note_on_c, 2, 60, 76
8, 68879, Note_on_c, 2, 66, 0
8, 68879, Note_on_c, 2, 60, 0
8, 69120, Note_on_c, 2, 62, 76
8, 69120, Note_on_c, 2, 59, 76
8, 69359, Note_on_c, 2, 62, 0
8, 69359, Note_on_c, 2, 59, 0
8, 69720, Note_on_c, 2, 68, 84
8, 69819, Note_on_c, 2, 68, 0
8, 69840, Note_on_c, 2, 68, 84
8, 69939, Note_on_c, 2, 68, 0
8, 69960, Note_on_c, 2, 68, 84
8, 70059, Note_on_c, 2, 68, 0
8, 70080, Note_on_c, 2, 65, 84
8, 71039, Note_on_c, 2, 65, 0
8, 74520, Note_on_c, 2, 74, 52
8, 74619, Note_on_c, 2, 74, 0
8, 74640, Note_on_c, 2, 74, 52
8, 74739, Note_on_c, 2, 74, 0
8, 74760, Note_on_c, 2, 74, 52
8, 74859, Note_on_c, 2, 74, 0
8, 74880, Note_on_c, 2, 72, 52
8, 75119, Note_on_c, 2, 72, 0
8, 77280, Note_on_c, 2, 68, 76
8, 77280, Note_on_c, 2, 65, 76
8, 77519, Note_on_c, 2, 68, 0
8, 77519, Note_on_c, 2, 65, 0
8, 77760, Note_on_c, 2, 64, 76
8, 77760, Note_on_c, 2, 67, 76
8, 77999, Note_on_c, 2, 64, 0
8, 77999, Note_on_c, 2, 67, 0
8, 78240, Note_on_c, 2, 65, 76
8, 78240, Note_on_c, 2, 68, 76
8, 78479, Note_on_c, 2, 65, 0
8, 78479, Note_on_c, 2, 68, 0
8, 78720, Note_on_c, 2, 67, 76
8, 78720, Note_on_c, 2, 70, 76
8, 78959, Note_on_c, 2, 67, 0
8, 78959, Note_on_c, 2, 70, 0
8, 79200, Note_on_c, 2, 68, 76
8, 79200, Note_on_c, 2, 65, 76
8, 79439, Note_on_c, 2, 68, 0
8, 79439, Note_on_c, 2, 65, 0
8, 79680, Note_on_c, 2, 62, 76
8, 79680, Note_on_c, 2, 65, 76
8, 79919, Note_on_c, 2, 62, 0
8, 79919, Note_on_c, 2, 65, 0
8, 80160, Note_on_c, 2, 63, 76
8, 80160, Note_on_c, 2, 67, 76
8, 82059, Note_on_c, 2, 63, 0
8, 82059, Note_on_c, 2, 67, 0
8, 82080, Note_on_c, 2, 65, 76
8, 82080, Note_on_c, 2, 62, 76
8, 83739, Note_on_c, 2, 65, 0
8, 83739, Note_on_c, 2, 62, 0
8, 83760, Note_on_c, 2, 63, 76
8, 83760, Note_on_c, 2, 60, 76
8, 83979, Note_on_c, 2, 63, 0
8, 83979, Note_on_c, 2, 60, 0
8, 84000, Note_on_c, 2, 75, 84
8, 84000, Note_on_c, 2, 66, 84
8, 85899, Note_on_c, 2, 75, 0
8, 85899, Note_on_c, 2, 66, 0
8, 85920, Note_on_c, 2, 66, 84
8, 85920, Note_on_c, 2, 75, 84
8, 86159, Note_on_c, 2, 66, 0
8, 86159, Note_on_c, 2, 75, 0
8, 86880, Note_on_c, 2, 70, 84
8, 87119, Note_on_c, 2, 70, 0
8, 91200, Note_on_c, 2, 70, 52
8, 91439, Note_on_c, 2, 70, 0
8, 91440, Note_on_c, 2, 75, 52
8, 91679, Note_on_c, 2, 75, 0
8, 91680, Note_on_c, 2, 74, 52
8, 91919, Note_on_c, 2, 74, 0
8, 91920, Note_on_c, 2, 75, 52
8, 92159, Note_on_c, 2, 75, 0
8, 92160, Note_on_c, 2, 77, 52
8, 92399, Note_on_c, 2, 77, 0
8, 92400, Note_on_c, 2, 72, 52
8, 92619, Note_on_c, 2, 72, 0
8, 92640, Note_on_c, 2, 72, 52
8, 92879, Note_on_c, 2, 72, 0
8, 92880, Note_on_c, 2, 70, 52
8, 93119, Note_on_c, 2, 70, 0
8, 98640, Control_c, 2, 11, 64
8, 98880, Note_on_c, 2, 75, 84
8, 98880, Control_c, 2, 11, 64
8, 98880, Note_on_c, 2, 72, 84
8, 98990, Control_c, 2, 11, 65
8, 99100, Control_c, 2, 11, 67
8, 99210, Control_c, 2, 11, 68
8, 99320, Control_c, 2, 11, 69
8, 99430, Control_c, 2, 11, 71
8, 99540, Control_c, 2, 11, 72
8, 99650, Control_c, 2, 11, 73
8, 99760, Control_c, 2, 11, 75
8, 99870, Control_c, 2, 11, 76
8, 99980, Control_c, 2, 11, 77
8, 100090, Control_c, 2, 11, 78
8, 100200, Control_c, 2, 11, 80
8, 100299, Note_on_c, 2, 75, 0
8, 100299, Note_on_c, 2, 72, 0
8, 100310, Control_c, 2, 11, 81
8, 100320, Note_on_c, 2, 70, 84
8, 100320, Note_on_c, 2, 75, 84
8, 100420, Control_c, 2, 11, 82
8, 100530, Control_c, 2, 11, 84
8, 100640, Control_c, 2, 11, 85
8, 100750, Control_c, 2, 11, 86
8, 100860, Control_c, 2, 11, 88
8, 100970, Control_c, 2, 11, 89
8, 101080, Control_c, 2, 11, 90
8, 101190, Control_c, 2, 11, 92
8, 101259, Note_on_c, 2, 70, 0
8, 101259, Note_on_c, 2, 75, 0
8, 101280, Note_on_c, 2, 69, 84
8, 101280, Note_on_c, 2, 75, 84
8, 101300, Control_c, 2, 11, 93
8, 101410, Control_c, 2, 11, 94
8, 101520, Control_c, 2, 11, 96
8, 101630, Control_c, 2, 11, 97
8, 101740, Control_c, 2, 11, 98
8, 101850, Control_c, 2, 11, 99
8, 101960, Control_c, 2, 11, 101
8, 102070, Control_c, 2, 11, 102
8, 102180, Control_c, 2, 11, 103
8, 102290, Control_c, 2, 11, 105
8, 102400, Control_c, 2, 11, 106
8, 102510, Control_c, 2, 11, 107
8, 102620, Control_c, 2, 11, 109
8, 102730, Control_c, 2, 11, 110
8, 102840, Control_c, 2, 11, 111
8, 102950, Control_c, 2, 11, 113
8, 103060, Control_c, 2, 11, 114
8, 103170, Control_c, 2, 11, 115
8, 103280, Control_c, 2, 11, 117
8, 103390, Control_c, 2, 11, 118
8, 103419, Note_on_c, 2, 69, 0
8, 103419, Note_on_c, 2, 75, 0
8, 103440, Note_on_c, 2, 69, 84
8, 103440, Note_on_c, 2, 75, 84
8, 103500, Control_c, 2, 11, 119
8, 103610, Control_c, 2, 11, 120
8, 103659, Note_on_c, 2, 69, 0
8, 103659, Note_on_c, 2, 75, 0
8, 103680, Note_on_c, 2, 75, 84
8, 103680, Note_on_c, 2, 69, 84
8, 103720, Control_c, 2, 11, 122
8, 103830, Control_c, 2, 11, 123
8, 103899, Note_on_c, 2, 75, 0
8, 103899, Note_on_c, 2, 69, 0
8, 103920, Note_on_c, 2, 75, 84
8, 103920, Note_on_c, 2, 69, 84
8, 103940, Control_c, 2, 11, 124
8, 104050, Control_c, 2, 11, 127
8, 104139, Note_on_c, 2, 75, 0
8, 104139, Note_on_c, 2, 69, 0
8, 104160, Note_on_c, 2, 70, 84
8, 104160, Note_on_c, 2, 68, 84
8, 104859, Note_on_c, 2, 70, 0
8, 104859, Note_on_c, 2, 68, 0
8, 104880, Note_on_c, 2, 65, 84
8, 104880, Note_on_c, 2, 70, 84
8, 105099, Note_on_c, 2, 65, 0
8, 105099, Note_on_c, 2, 70, 0
8, 105120, Note_on_c, 2, 67, 84
8, 105120, Note_on_c, 2, 70, 84
8, 105359, Note_on_c, 2, 67, 0
8, 105359, Note_on_c, 2, 70, 0
8, 105600, Note_on_c, 2, 70, 84
8, 105600, Note_on_c, 2, 68, 84
8, 105839, Note_on_c, 2, 70, 0
8, 105839, Note_on_c, 2, 68, 0
8, 106080, Note_on_c, 2, 67, 84
8, 106080, Note_on_c, 2, 70, 84
8, 106319, Note_on_c, 2, 67, 0
8, 106319, Note_on_c, 2, 70, 0
8, 106560, Note_on_c, 2, 72, 84
8, 106560, Note_on_c, 2, 65, 84
8, 106799, Note_on_c, 2, 72, 0
8, 106799, Note_on_c, 2, 65, 0
8, 107040, Note_on_c, 2, 70, 84
8, 107040, Note_on_c, 2, 67, 84
8, 107279, Note_on_c, 2, 70, 0
8, 107279, Note_on_c, 2, 67, 0
8, 107520, Note_on_c, 2, 70, 84
8, 107520, Note_on_c, 2, 65, 84
8, 107619, Note_on_c, 2, 70, 0
8, 107619, Note_on_c, 2, 65, 0
8, 107640, Note_on_c, 2, 81, 84
8, 107640, Note_on_c, 2, 69, 84
8, 107759, Note_on_c, 2, 81, 0
8, 107759, Note_on_c, 2, 69, 0
8, 107760, Note_on_c, 2, 70, 84
8, 107760, Note_on_c, 2, 82, 84
8, 107879, Note_on_c, 2, 70, 0
8, 107879, Note_on_c, 2, 82, 0
8, 107880, Note_on_c, 2, 81, 84
8, 107880, Note_on_c, 2, 69, 84
8, 107999, Note_on_c, 2, 81, 0
8, 107999, Note_on_c, 2, 69, 0
8, 108000, Note_on_c, 2, 82, 84
8, 108000, Note_on_c, 2, 70, 84
8, 108119, Note_on_c, 2, 82, 0
8, 108119, Note_on_c, 2, 70, 0
8, 108120, Note_on_c, 2, 81, 84
8, 108120, Note_on_c, 2, 69, 84
8, 108239, Note_on_c, 2, 81, 0
8, 108239, Note_on_c, 2, 69, 0
8, 108240, Note_on_c, 2, 70, 84
8, 108240, Note_on_c, 2, 82, 84
8, 108359, Note_on_c, 2, 70, 0
8, 108359, Note_on_c, 2, 82, 0
8, 108360, Note_on_c, 2, 81, 84
8, 108360, Note_on_c, 2, 69, 84
8, 108459, Note_on_c, 2, 81, 0
8, 108459, Note_on_c, 2, 69, 0
8, 108480, Note_on_c, 2, 82, 84
8, 108480, Note_on_c, 2, 70, 84
8, 108569, Note_on_c, 2, 82, 0
8, 108569, Note_on_c, 2, 70, 0
8, 108600, Note_on_c, 2, 72, 84
8, 108600, Note_on_c, 2, 84, 84
8, 108689, Note_on_c, 2, 72, 0
8, 108689, Note_on_c, 2, 84, 0
8, 108720, Note_on_c, 2, 82, 84
8, 108720, Note_on_c, 2, 70, 84
8, 108809, Note_on_c, 2, 82, 0
8, 108809, Note_on_c, 2, 70, 0
8, 108840, Note_on_c, 2, 80, 84
8, 108840, Note_on_c, 2, 68, 84
8, 108929, Note_on_c, 2, 80, 0
8, 108929, Note_on_c, 2, 68, 0
8, 108960, Note_on_c, 2, 79, 84
8, 108960, Note_on_c, 2, 67, 84
8, 109179, Note_on_c, 2, 79, 0
8, 109179, Note_on_c, 2, 67, 0
8, 109200, Note_on_c, 2, 67, 84
8, 109200, Note_on_c, 2, 79, 84
8, 109439, Note_on_c, 2, 67, 0
8, 109439, Note_on_c, 2, 79, 0
8, 109680, Note_on_c, 2, 65, 84
8, 109680, Note_on_c, 2, 74, 84
8, 109919, Note_on_c, 2, 65, 0
8, 109919, Note_on_c, 2, 74, 0
8, 110160, Note_on_c, 2, 75, 84
8, 110160, Note_on_c, 2, 67, 84
8, 110399, Note_on_c, 2, 75, 0
8, 110399, Note_on_c, 2, 67, 0
8, 110640, Note_on_c, 2, 68, 84
8, 110640, Note_on_c, 2, 65, 84
8, 110879, Note_on_c, 2, 68, 0
8, 110879, Note_on_c, 2, 65, 0
8, 111120, Note_on_c, 2, 63, 84
8, 111120, Note_on_c, 2, 67, 84
8, 111359, Note_on_c, 2, 63, 0
8, 111359, Note_on_c, 2, 67, 0
8, 111600, Note_on_c, 2, 65, 84
8, 111600, Note_on_c, 2, 74, 84
8, 111819, Note_on_c, 2, 65, 0
8, 111819, Note_on_c, 2, 74, 0
8, 111840, Note_on_c, 2, 75, 84
8, 111840, Note_on_c, 2, 67, 84
8, 111939, Note_on_c, 2, 75, 0
8, 111939, Note_on_c, 2, 67, 0
8, 111960, Note_on_c, 2, 79, 84
8, 112059, Note_on_c, 2, 79, 0
8, 112080, Note_on_c, 2, 79, 84
8, 112179, Note_on_c, 2, 79, 0
8, 112200, Note_on_c, 2, 79, 84
8, 112299, Note_on_c, 2, 79, 0
8, 112320, Note_on_c, 2, 75, 84
8, 112419, Note_on_c, 2, 75, 0
8, 112440, Note_on_c, 2, 82, 84
8, 112440, Note_on_c, 2, 70, 84
8, 112539, Note_on_c, 2, 82, 0
8, 112539, Note_on_c, 2, 70, 0
8, 112560, Note_on_c, 2, 82, 84
8, 112560, Note_on_c, 2, 70, 84
8, 112659, Note_on_c, 2, 82, 0
8, 112659, Note_on_c, 2, 70, 0
8, 112680, Note_on_c, 2, 70, 84
8, 112680, Note_on_c, 2, 82, 84
8, 112779, Note_on_c, 2, 70, 0
8, 112779, Note_on_c, 2, 82, 0
8, 112800, Note_on_c, 2, 79, 84
8, 112800, Note_on_c, 2, 67, 84
8, 112899, Note_on_c, 2, 79, 0
8, 112899, Note_on_c, 2, 67, 0
8, 112920, Note_on_c, 2, 63, 84
8, 112920, Note_on_c, 2, 75, 84
8, 113019, Note_on_c, 2, 63, 0
8, 113019, Note_on_c, 2, 75, 0
8, 113040, Note_on_c, 2, 63, 84
8, 113040, Note_on_c, 2, 75, 84
8, 113139, Note_on_c, 2, 63, 0
8, 113139, Note_on_c, 2, 75, 0
8, 113160, Note_on_c, 2, 63, 84
8, 113160, Note_on_c, 2, 75, 84
8, 113259, Note_on_c, 2, 63, 0
8, 113259, Note_on_c, 2, 75, 0
8, 113280, Note_on_c, 2, 70, 84
8, 113280, Note_on_c, 2, 58, 84
8, 113859, Note_on_c, 2, 70, 0
8, 113859, Note_on_c, 2, 58, 0
8, 113880, Note_on_c, 2, 79, 84
8, 113979, Note_on_c, 2, 79, 0
8, 114000, Note_on_c, 2, 79, 84
8, 114099, Note_on_c, 2, 79, 0
8, 114120, Note_on_c, 2, 79, 84
8, 114219, Note_on_c, 2, 79, 0
8, 114240, Note_on_c, 2, 75, 84
8, 114339, Note_on_c, 2, 75, 0
8, 114360, Note_on_c, 2, 70, 84
8, 114360, Note_on_c, 2, 82, 84
8, 114459, Note_on_c, 2, 70, 0
8, 114459, Note_on_c, 2, 82, 0
8, 114480, Note_on_c, 2, 70, 84
8, 114480, Note_on_c, 2, 82, 84
8, 114579, Note_on_c, 2, 70, 0
8, 114579, Note_on_c, 2, 82, 0
8, 114600, Note_on_c, 2, 70, 84
8, 114600, Note_on_c, 2, 82, 84
8, 114699, Note_on_c, 2, 70, 0
8, 114699, Note_on_c, 2, 82, 0
8, 114720, Note_on_c, 2, 79, 84
8, 114720, Note_on_c, 2, 67, 84
8, 114819, Note_on_c, 2, 79, 0
8, 114819, Note_on_c, 2, 67, 0
8, 114840, Note_on_c, 2, 75, 84
8, 114840, Note_on_c, 2, 63, 84
8, 114939, Note_on_c, 2, 75, 0
8, 114939, Note_on_c, 2, 63, 0
8, 114960, Note_on_c, 2, 75, 84
8, 114960, Note_on_c, 2, 63, 84
8, 115059, Note_on_c, 2, 75, 0
8, 115059, Note_on_c, 2, 63, 0
8, 115080, Note_on_c, 2, 75, 84
8, 115080, Note_on_c, 2, 63, 84
8, 115179, Note_on_c, 2, 75, 0
8, 115179, Note_on_c, 2, 63, 0
8, 115200, Note_on_c, 2, 70, 84
8, 115200, Note_on_c, 2, 58, 84
8, 115919, Note_on_c, 2, 70, 0
8, 115919, Note_on_c, 2, 58, 0
8, 116280, Note_on_c, 2, 65, 84
8, 116280, Note_on_c, 2, 74, 84
8, 116379, Note_on_c, 2, 65, 0
8, 116379, Note_on_c, 2, 74, 0
8, 116400, Note_on_c, 2, 65, 84
8, 116400, Note_on_c, 2, 74, 84
8, 116499, Note_on_c, 2, 65, 0
8, 116499, Note_on_c, 2, 74, 0
8, 116520, Note_on_c, 2, 65, 84
8, 116520, Note_on_c, 2, 74, 84
8, 116619, Note_on_c, 2, 65, 0
8, 116619, Note_on_c, 2, 74, 0
8, 116640, Note_on_c, 2, 75, 84
8, 116640, Note_on_c, 2, 67, 84
8, 116879, Note_on_c, 2, 75, 0
8, 116879, Note_on_c, 2, 67, 0
8, 117240, Note_on_c, 2, 74, 84
8, 117240, Note_on_c, 2, 77, 84
8, 117339, Note_on_c, 2, 74, 0
8, 117339, Note_on_c, 2, 77, 0
8, 117360, Note_on_c, 2, 77, 84
8, 117360, Note_on_c, 2, 74, 84
8, 117459, Note_on_c, 2, 77, 0
8, 117459, Note_on_c, 2, 74, 0
8, 117480, Note_on_c, 2, 77, 84
8, 117480, Note_on_c, 2, 74, 84
8, 117579, Note_on_c, 2, 77, 0
8, 117579, Note_on_c, 2, 74, 0
8, 117600, Note_on_c, 2, 67, 84
8, 117600, Note_on_c, 2, 75, 84
8, 117839, Note_on_c, 2, 67, 0
8, 117839, Note_on_c, 2, 75, 0
8, 119160, Note_on_c, 2, 70, 84
8, 119259, Note_on_c, 2, 70, 0
8, 119280, Note_on_c, 2, 70, 84
8, 119379, Note_on_c, 2, 70, 0
8, 119400, Note_on_c, 2, 70, 84
8, 119499, Note_on_c, 2, 70, 0
8, 119520, Note_on_c, 2, 67, 84
8, 120959, Note_on_c, 2, 67, 0
8, 121560, Note_on_c, 2, 73, 52
8, 121659, Note_on_c, 2, 73, 0
8, 121680, Note_on_c, 2, 73, 52
8, 121779, Note_on_c, 2, 73, 0
8, 121800, Note_on_c, 2, 73, 52
8, 121899, Note_on_c, 2, 73, 0
8, 121920, Note_on_c, 2, 72, 52
8, 123459, Note_on_c, 2, 72, 0
8, 123480, Note_on_c, 2, 73, 52
8, 123579, Note_on_c, 2, 73, 0
8, 123600, Note_on_c, 2, 73, 52
8, 123699, Note_on_c, 2, 73, 0
8, 123720, Note_on_c, 2, 73, 52
8, 123819, Note_on_c, 2, 73, 0
8, 123840, Note_on_c, 2, 72, 52
8, 125259, Note_on_c, 2, 72, 0
8, 125280, Note_on_c, 2, 72, 52
8, 125280, Note_on_c, 2, 68, 52
8, 125759, Note_on_c, 2, 68, 0
8, 125760, Note_on_c, 2, 67, 52
8, 126239, Note_on_c, 2, 67, 0
8, 126240, Note_on_c, 2, 68, 52
8, 126719, Note_on_c, 2, 68, 0
8, 126720, Note_on_c, 2, 67, 52
8, 127199, Note_on_c, 2, 67, 0
8, 127200, Note_on_c, 2, 68, 52
8, 127439, Note_on_c, 2, 72, 0
8, 127439, Note_on_c, 2, 68, 0
8, 129120, Note_on_c, 2, 75, 52
8, 129120, Note_on_c, 2, 72, 52
8, 129599, Note_on_c, 2, 75, 0
8, 129599, Note_on_c, 2, 72, 0
8, 129600, Note_on_c, 2, 71, 52
8, 129600, Note_on_c, 2, 74, 52
8, 130079, Note_on_c, 2, 71, 0
8, 130079, Note_on_c, 2, 74, 0
8, 130080, Note_on_c, 2, 72, 52
8, 130080, Note_on_c, 2, 75, 52
8, 130559, Note_on_c, 2, 72, 0
8, 130559, Note_on_c, 2, 75, 0
8, 130560, Note_on_c, 2, 74, 52
8, 130560, Note_on_c, 2, 71, 52
8, 131039, Note_on_c, 2, 74, 0
8, 131039, Note_on_c, 2, 71, 0
8, 131040, Note_on_c, 2, 75, 52
8, 131040, Note_on_c, 2, 72, 52
8, 131279, Note_on_c, 2, 75, 0
8, 131279, Note_on_c, 2, 72, 0
8, 132600, Note_on_c, 2, 66, 52
8, 132600, Note_on_c, 2, 74, 52
8, 132699, Note_on_c, 2, 66, 0
8, 132699, Note_on_c, 2, 74, 0
8, 132720, Note_on_c, 2, 66, 52
8, 132720, Note_on_c, 2, 74, 52
8, 132819, Note_on_c, 2, 66, 0
8, 132819, Note_on_c, 2, 74, 0
8, 132840, Note_on_c, 2, 72, 52
8, 132840, Note_on_c, 2, 69, 52
8, 132939, Note_on_c, 2, 72, 0
8, 132939, Note_on_c, 2, 69, 0
8, 132960, Note_on_c, 2, 67, 52
8, 132960, Note_on_c, 2, 70, 52
8, 133419, Note_on_c, 2, 67, 0
8, 133419, Note_on_c, 2, 70, 0
8, 133440, Note_on_c, 2, 69, 52
8, 133440, Note_on_c, 2, 66, 52
8, 133539, Note_on_c, 2, 69, 0
8, 133539, Note_on_c, 2, 66, 0
8, 133560, Note_on_c, 2, 74, 52
8, 133560, Note_on_c, 2, 66, 52
8, 133659, Note_on_c, 2, 74, 0
8, 133659, Note_on_c, 2, 66, 0
8, 133680, Note_on_c, 2, 74, 52
8, 133680, Note_on_c, 2, 66, 52
8, 133779, Note_on_c, 2, 74, 0
8, 133779, Note_on_c, 2, 66, 0
8, 133800, Note_on_c, 2, 69, 52
8, 133800, Note_on_c, 2, 72, 52
8, 133899, Note_on_c, 2, 69, 0
8, 133899, Note_on_c, 2, 72, 0
8, 133920, Note_on_c, 2, 67, 52
8, 133920, Note_on_c, 2, 70, 52
8, 134379, Note_on_c, 2, 67, 0
8, 134379, Note_on_c, 2, 70, 0
8, 134400, Note_on_c, 2, 69, 52
8, 134400, Note_on_c, 2, 66, 52
8, 134859, Note_on_c, 2, 69, 0
8, 134859, Note_on_c, 2, 66, 0
8, 134880, Note_on_c, 2, 67, 52
8, 134880, Note_on_c, 2, 70, 52
8, 135459, Note_on_c, 2, 67, 0
8, 135459, Note_on_c, 2, 70, 0
8, 135480, Note_on_c, 2, 67, 52
8, 135579, Note_on_c, 2, 67, 0
8, 135600, Note_on_c, 2, 69, 52
8, 135699, Note_on_c, 2, 69, 0
8, 135720, Note_on_c, 2, 70, 52
8, 135819, Note_on_c, 2, 70, 0
8, 135840, Note_on_c, 2, 66, 52
8, 135840, Note_on_c, 2, 72, 52
8, 136079, Note_on_c, 2, 66, 0
8, 136079, Note_on_c, 2, 72, 0
8, 136440, Note_on_c, 2, 66, 52
8, 136539, Note_on_c, 2, 66, 0
8, 136560, Note_on_c, 2, 69, 52
8, 136659, Note_on_c, 2, 69, 0
8, 136680, Note_on_c, 2, 70, 52
8, 136779, Note_on_c, 2, 70, 0
8, 136800, Note_on_c, 2, 72, 52
8, 136800, Note_on_c, 2, 66, 52
8, 137039, Note_on_c, 2, 72, 0
8, 137039, Note_on_c, 2, 66, 0
8, 137400, Note_on_c, 2, 69, 52
8, 137499, Note_on_c, 2, 69, 0
8, 137520, Note_on_c, 2, 70, 52
8, 137619, Note_on_c, 2, 70, 0
8, 137640, Note_on_c, 2, 72, 52
8, 137739, Note_on_c, 2, 72, 0
8, 137760, Note_on_c, 2, 74, 52
8, 137760, Note_on_c, 2, 67, 52
8, 137999, Note_on_c, 2, 74, 0
8, 137999, Note_on_c, 2, 67, 0
8, 138360, Note_on_c, 2, 67, 52
8, 138459, Note_on_c, 2, 67, 0
8, 138480, Note_on_c, 2, 70, 52
8, 138579, Note_on_c, 2, 70, 0
8, 138600, Note_on_c, 2, 72, 52
8, 138699, Note_on_c, 2, 72, 0
8, 138720, Note_on_c, 2, 67, 52
8, 138720, Note_on_c, 2, 74, 52
8, 138959, Note_on_c, 2, 67, 0
8, 138959, Note_on_c, 2, 74, 0
8, 139320, Note_on_c, 2, 70, 67
8, 139320, Note_on_c, 2, 67, 67
8, 139419, Note_on_c, 2, 70, 0
8, 139419, Note_on_c, 2, 67, 0
8, 139440, Note_on_c, 2, 72, 70
8, 139440, Note_on_c, 2, 69, 70
8, 139539, Note_on_c, 2, 72, 0
8, 139539, Note_on_c, 2, 69, 0
8, 139560, Note_on_c, 2, 74, 73
8, 139560, Note_on_c, 2, 70, 73
8, 139659, Note_on_c, 2, 74, 0
8, 139659, Note_on_c, 2, 70, 0
8, 139680, Note_on_c, 2, 66, 76
8, 139680, Note_on_c, 2, 69, 76
8, 140619, Note_on_c, 2, 66, 0
8, 140619, Note_on_c, 2, 69, 0
8, 140640, Note_on_c, 2, 66, 76
8, 140640, Note_on_c, 2, 69, 76
8, 140879, Note_on_c, 2, 66, 0
8, 140879, Note_on_c, 2, 69, 0
8, 141240, Note_on_c, 2, 70, 76
8, 141240, Note_on_c, 2, 67, 76
8, 141339, Note_on_c, 2, 70, 0
8, 141339, Note_on_c, 2, 67, 0
8, 141360, Note_on_c, 2, 70, 76
8, 141360, Note_on_c, 2, 67, 76
8, 141459, Note_on_c, 2, 70, 0
8, 141459, Note_on_c, 2, 67, 0
8, 141480, Note_on_c, 2, 70, 76
8, 141480, Note_on_c, 2, 67, 76
8, 141579, Note_on_c, 2, 70, 0
8, 141579, Note_on_c, 2, 67, 0
8, 141600, Note_on_c, 2, 70, 76
8, 141600, Note_on_c, 2, 67, 76
8, 142539, Note_on_c, 2, 70, 0
8, 142539, Note_on_c, 2, 67, 0
8, 142560, Note_on_c, 2, 67, 76
8, 142560, Note_on_c, 2, 70, 76
8, 142799, Note_on_c, 2, 67, 0
8, 142799, Note_on_c, 2, 70, 0
8, 143160, Note_on_c, 2, 70, 80
8, 143160, Note_on_c, 2, 67, 80
8, 143259, Note_on_c, 2, 70, 0
8, 143259, Note_on_c, 2, 67, 0
8, 143280, Note_on_c, 2, 70, 80
8, 143280, Note_on_c, 2, 67, 80
8, 143379, Note_on_c, 2, 70, 0
8, 143379, Note_on_c, 2, 67, 0
8, 143400, Note_on_c, 2, 67, 80
8, 143400, Note_on_c, 2, 70, 80
8, 143499, Note_on_c, 2, 67, 0
8, 143499, Note_on_c, 2, 70, 0
8, 143520, Note_on_c, 2, 67, 80
8, 143520, Note_on_c, 2, 70, 80
8, 143759, Note_on_c, 2, 67, 0
8, 143759, Note_on_c, 2, 70, 0
8, 144240, Note_on_c, 2, 70, 80
8, 144240, Note_on_c, 2, 67, 80
8, 144339, Note_on_c, 2, 70, 0
8, 144339, Note_on_c, 2, 67, 0
8, 144360, Note_on_c, 2, 67, 80
8, 144360, Note_on_c, 2, 70, 80
8, 144459, Note_on_c, 2, 67, 0
8, 144459, Note_on_c, 2, 70, 0
8, 144480, Note_on_c, 2, 67, 80
8, 144480, Note_on_c, 2, 70, 80
8, 144699, Note_on_c, 2, 67, 0
8, 144699, Note_on_c, 2, 70, 0
8, 144720, Note_on_c, 2, 62, 80
8, 144720, Note_on_c, 2, 69, 80
8, 144819, Note_on_c, 2, 62, 0
8, 144819, Note_on_c, 2, 69, 0
8, 144840, Note_on_c, 2, 69, 80
8, 144840, Note_on_c, 2, 62, 80
8, 144939, Note_on_c, 2, 69, 0
8, 144939, Note_on_c, 2, 62, 0
8, 144960, Note_on_c, 2, 69, 80
8, 144960, Note_on_c, 2, 62, 80
8, 145199, Note_on_c, 2, 69, 0
8, 145199, Note_on_c, 2, 62, 0
8, 147600, Note_on_c, 2, 72, 80
8, 147699, Note_on_c, 2, 72, 0
8, 147720, Note_on_c, 2, 72, 80
8, 147819, Note_on_c, 2, 72, 0
8, 147840, Note_on_c, 2, 72, 80
8, 148079, Note_on_c, 2, 72, 0
8, 148560, Note_on_c, 2, 69, 80
8, 148560, Note_on_c, 2, 66, 80
8, 148659, Note_on_c, 2, 69, 0
8, 148659, Note_on_c, 2, 66, 0
8, 148680, Note_on_c, 2, 66, 80
8, 148680, Note_on_c, 2, 69, 80
8, 148779, Note_on_c, 2, 66, 0
8, 148779, Note_on_c, 2, 69, 0
8, 148800, Note_on_c, 2, 71, 80
8, 148800, Note_on_c, 2, 67, 80
8, 149039, Note_on_c, 2, 71, 0
8, 149039, Note_on_c, 2, 67, 0
8, 151440, Note_on_c, 2, 71, 80
8, 151539, Note_on_c, 2, 71, 0
8, 151560, Note_on_c, 2, 71, 80
8, 151659, Note_on_c, 2, 71, 0
8, 151680, Note_on_c, 2, 71, 80
8, 151919, Note_on_c, 2, 71, 0
8, 152400, Note_on_c, 2, 74, 80
8, 152400, Note_on_c, 2, 71, 80
8, 152499, Note_on_c, 2, 74, 0
8, 152499, Note_on_c, 2, 71, 0
8, 152520, Note_on_c, 2, 71, 80
8, 152520, Note_on_c, 2, 74, 80
8, 152619, Note_on_c, 2, 71, 0
8, 152619, Note_on_c, 2, 74, 0
8, 152640, Note_on_c, 2, 72, 80
8, 152640, Note_on_c, 2, 76, 80
8, 152739, Note_on_c, 2, 72, 0
8, 152739, Note_on_c, 2, 76, 0
8, 152760, Note_on_c, 2, 72, 84
8, 152760, Note_on_c, 2, 84, 84
8, 152859, Note_on_c, 2, 72, 0
8, 152859, Note_on_c, 2, 84, 0
8, 152880, Note_on_c, 2, 72, 84
8, 152880, Note_on_c, 2, 84, 84
8, 152979, Note_on_c, 2, 72, 0
8, 152979, Note_on_c, 2, 84, 0
8, 153000, Note_on_c, 2, 84, 84
8, 153000, Note_on_c, 2, 72, 84
8, 153099, Note_on_c, 2, 84, 0
8, 153099, Note_on_c, 2, 72, 0
8, 153120, Note_on_c, 2, 77, 84
8, 153120, Note_on_c, 2, 65, 84
8, 153579, Note_on_c, 2, 77, 0
8, 153579, Note_on_c, 2, 65, 0
8, 153600, Note_on_c, 2, 67, 84
8, 153600, Note_on_c, 2, 79, 84
8, 154079, Note_on_c, 2, 67, 0
8, 154079, Note_on_c, 2, 79, 0
8, 155040, Note_on_c, 2, 77, 84
8, 155040, Note_on_c, 2, 65, 84
8, 155499, Note_on_c, 2, 77, 0
8, 155499, Note_on_c, 2, 65, 0
8, 155520, Note_on_c, 2, 79, 84
8, 155520, Note_on_c, 2, 67, 84
8, 155999, Note_on_c, 2, 79, 0
8, 155999, Note_on_c, 2, 67, 0
8, 156960, Note_on_c, 2, 68, 84
8, 156960, Note_on_c, 2, 72, 84
8, 157419, Note_on_c, 2, 68, 0
8, 157419, Note_on_c, 2, 72, 0
8, 157440, Note_on_c, 2, 73, 84
8, 157440, Note_on_c, 2, 66, 84
8, 157919, Note_on_c, 2, 73, 0
8, 157919, Note_on_c, 2, 66, 0
8, 158880, Note_on_c, 2, 69, 84
8, 158880, Note_on_c, 2, 75, 84
8, 159339, Note_on_c, 2, 69, 0
8, 159339, Note_on_c, 2, 75, 0
8, 159360, Note_on_c, 2, 73, 84
8, 159360, Note_on_c, 2, 70, 84
8, 159839, Note_on_c, 2, 73, 0
8, 159839, Note_on_c, 2, 70, 0
8, 160320, Note_on_c, 2, 71, 78
8, 160799, Note_on_c, 2, 71, 0
8, 161280, Note_on_c, 2, 73, 65
8, 161280, Note_on_c, 2, 68, 65
8, 161759, Note_on_c, 2, 73, 0
8, 161759, Note_on_c, 2, 68, 0
8, 162240, Note_on_c, 2, 73, 52
8, 162240, Note_on_c, 2, 69, 52
8, 162719, Note_on_c, 2, 73, 0
8, 162719, Note_on_c, 2, 69, 0
8, 163200, Note_on_c, 2, 73, 52
8, 163200, Note_on_c, 2, 69, 52
8, 163679, Note_on_c, 2, 73, 0
8, 163679, Note_on_c, 2, 69, 0
8, 164160, Note_on_c, 2, 69, 48
8, 164160, Note_on_c, 2, 73, 48
8, 164639, Note_on_c, 2, 69, 0
8, 164639, Note_on_c, 2, 73, 0
8, 165120, Note_on_c, 2, 69, 44
8, 165120, Note_on_c, 2, 74, 44
8, 165599, Note_on_c, 2, 69, 0
8, 165599, Note_on_c, 2, 74, 0
8, 166080, Note_on_c, 2, 74, 44
8, 166080, Note_on_c, 2, 69, 44
8, 166559, Note_on_c, 2, 74, 0
8, 166559, Note_on_c, 2, 69, 0
8, 167040, Note_on_c, 2, 74, 44
8, 167040, Note_on_c, 2, 69, 44
8, 167519, Note_on_c, 2, 74, 0
8, 167519, Note_on_c, 2, 69, 0
8, 168000, Note_on_c, 2, 74, 44
8, 168000, Note_on_c, 2, 69, 44
8, 168479, Note_on_c, 2, 74, 0
8, 168479, Note_on_c, 2, 69, 0
8, 168600, Note_on_c, 2, 74, 84
8, 168699, Note_on_c, 2, 74, 0
8, 168720, Note_on_c, 2, 74, 84
8, 168819, Note_on_c, 2, 74, 0
8, 168840, Note_on_c, 2, 74, 84
8, 168939, Note_on_c, 2, 74, 0
8, 168960, Note_on_c, 2, 71, 84
8, 169419, Note_on_c, 2, 71, 0
8, 169440, Note_on_c, 2, 72, 84
8, 169899, Note_on_c, 2, 72, 0
8, 169920, Note_on_c, 2, 69, 84
8, 170859, Note_on_c, 2, 69, 0
8, 170880, Note_on_c, 2, 74, 44
8, 170880, Note_on_c, 2, 68, 44
8, 171359, Note_on_c, 2, 74, 0
8, 171359, Note_on_c, 2, 68, 0
8, 171840, Note_on_c, 2, 74, 44
8, 171840, Note_on_c, 2, 68, 44
8, 172319, Note_on_c, 2, 74, 0
8, 172319, Note_on_c, 2, 68, 0
8, 172800, Note_on_c, 2, 68, 44
8, 172800, Note_on_c, 2, 74, 44
8, 173279, Note_on_c, 2, 68, 0
8, 173279, Note_on_c, 2, 74, 0
8, 173760, Note_on_c, 2, 74, 44
8, 173760, Note_on_c, 2, 68, 44
8, 174239, Note_on_c, 2, 74, 0
8, 174239, Note_on_c, 2, 68, 0
8, 174840, Note_on_c, 2, 80, 84
8, 174840, Note_on_c, 2, 68, 84
8, 174939, Note_on_c, 2, 80, 0
8, 174939, Note_on_c, 2, 68, 0
8, 174960, Note_on_c, 2, 80, 84
8, 174960, Note_on_c, 2, 68, 84
8, 175059, Note_on_c, 2, 80, 0
8, 175059, Note_on_c, 2, 68, 0
8, 175080, Note_on_c, 2, 80, 84
8, 175080, Note_on_c, 2, 68, 84
8, 175179, Note_on_c, 2, 80, 0
8, 175179, Note_on_c, 2, 68, 0
8, 175200, Note_on_c, 2, 65, 84
8, 175200, Note_on_c, 2, 77, 84
8, 175779, Note_on_c, 2, 65, 0
8, 175779, Note_on_c, 2, 77, 0
8, 175800, Note_on_c, 2, 68, 84
8, 175800, Note_on_c, 2, 80, 84
8, 175899, Note_on_c, 2, 68, 0
8, 175899, Note_on_c, 2, 80, 0
8, 175920, Note_on_c, 2, 80, 84
8, 175920, Note_on_c, 2, 68, 84
8, 176019, Note_on_c, 2, 80, 0
8, 176019, Note_on_c, 2, 68, 0
8, 176040, Note_on_c, 2, 68, 84
8, 176040, Note_on_c, 2, 80, 84
8, 176139, Note_on_c, 2, 68, 0
8, 176139, Note_on_c, 2, 80, 0
8, 176160, Note_on_c, 2, 77, 84
8, 176160, Note_on_c, 2, 65, 84
8, 176739, Note_on_c, 2, 77, 0
8, 176739, Note_on_c, 2, 65, 0
8, 176760, Note_on_c, 2, 80, 84
8, 176760, Note_on_c, 2, 68, 84
8, 176859, Note_on_c, 2, 80, 0
8, 176859, Note_on_c, 2, 68, 0
8, 176880, Note_on_c, 2, 68, 84
8, 176880, Note_on_c, 2, 80, 84
8, 176979, Note_on_c, 2, 68, 0
8, 176979, Note_on_c, 2, 80, 0
8, 177000, Note_on_c, 2, 68, 84
8, 177000, Note_on_c, 2, 80, 84
8, 177099, Note_on_c, 2, 68, 0
8, 177099, Note_on_c, 2, 80, 0
8, 177120, Note_on_c, 2, 65, 84
8, 177120, Note_on_c, 2, 77, 84
8, 177219, Note_on_c, 2, 65, 0
8, 177219, Note_on_c, 2, 77, 0
8, 177240, Note_on_c, 2, 80, 84
8, 177240, Note_on_c, 2, 68, 84
8, 177339, Note_on_c, 2, 80, 0
8, 177339, Note_on_c, 2, 68, 0
8, 177360, Note_on_c, 2, 80, 84
8, 177360, Note_on_c, 2, 68, 84
8, 177459, Note_on_c, 2, 80, 0
8, 177459, Note_on_c, 2, 68, 0
8, 177480, Note_on_c, 2, 68, 84
8, 177480, Note_on_c, 2, 80, 84
8, 177579, Note_on_c, 2, 68, 0
8, 177579, Note_on_c, 2, 80, 0
8, 177600, Note_on_c, 2, 77, 84
8, 177600, Note_on_c, 2, 65, 84
8, 177699, Note_on_c, 2, 77, 0
8, 177699, Note_on_c, 2, 65, 0
8, 177720, Note_on_c, 2, 68, 84
8, 177720, Note_on_c, 2, 80, 84
8, 177819, Note_on_c, 2, 68, 0
8, 177819, Note_on_c, 2, 80, 0
8, 177840, Note_on_c, 2, 80, 84
8, 177840, Note_on_c, 2, 68, 84
8, 177939, Note_on_c, 2, 80, 0
8, 177939, Note_on_c, 2, 68, 0
8, 177960, Note_on_c, 2, 68, 84
8, 177960, Note_on_c, 2, 80, 84
8, 178059, Note_on_c, 2, 68, 0
8, 178059, Note_on_c, 2, 80, 0
8, 178080, Note_on_c, 2, 77, 84
8, 178080, Note_on_c, 2, 65, 84
8, 178179, Note_on_c, 2, 77, 0
8, 178179, Note_on_c, 2, 65, 0
8, 178200, Note_on_c, 2, 79, 84
8, 178200, Note_on_c, 2, 67, 84
8, 178299, Note_on_c, 2, 79, 0
8, 178299, Note_on_c, 2, 67, 0
8, 178320, Note_on_c, 2, 79, 84
8, 178320, Note_on_c, 2, 67, 84
8, 178419, Note_on_c, 2, 79, 0
8, 178419, Note_on_c, 2, 67, 0
8, 178440, Note_on_c, 2, 67, 84
8, 178440, Note_on_c, 2, 79, 84
8, 178539, Note_on_c, 2, 67, 0
8, 178539, Note_on_c, 2, 79, 0
8, 178560, Note_on_c, 2, 75, 84
8, 178560, Note_on_c, 2, 63, 84
8, 179999, Note_on_c, 2, 75, 0
8, 179999, Note_on_c, 2, 63, 0
8, 180120, Note_on_c, 2, 65, 84
8, 180120, Note_on_c, 2, 77, 84
8, 180219, Note_on_c, 2, 65, 0
8, 180219, Note_on_c, 2, 77, 0
8, 180240, Note_on_c, 2, 77, 84
8, 180240, Note_on_c, 2, 65, 84
8, 180339, Note_on_c, 2, 77, 0
8, 180339, Note_on_c, 2, 65, 0
8, 180360, Note_on_c, 2, 65, 84
8, 180360, Note_on_c, 2, 77, 84
8, 180459, Note_on_c, 2, 65, 0
8, 180459, Note_on_c, 2, 77, 0
8, 180480, Note_on_c, 2, 74, 84
8, 180480, Note_on_c, 2, 62, 84
8, 182399, Note_on_c, 2, 74, 0
8, 182399, Note_on_c, 2, 62, 0
8, 183840, Note_on_c, 2, 67, 52
8, 183840, Note_on_c, 2, 63, 52
8, 184779, Note_on_c, 2, 67, 0
8, 184779, Note_on_c, 2, 63, 0
8, 184800, Note_on_c, 2, 62, 52
8, 184800, Note_on_c, 2, 67, 52
8, 185039, Note_on_c, 2, 62, 0
8, 185039, Note_on_c, 2, 67, 0
8, 185760, Note_on_c, 2, 67, 52
8, 185760, Note_on_c, 2, 62, 52
8, 186699, Note_on_c, 2, 67, 0
8, 186699, Note_on_c, 2, 62, 0
8, 186720, Note_on_c, 2, 67, 52
8, 186720, Note_on_c, 2, 63, 52
8, 186959, Note_on_c, 2, 67, 0
8, 186959, Note_on_c, 2, 63, 0
8, 189080, Control_c, 2, 11, 102
8, 189120, Control_c, 2, 11, 104
8, 189120, Note_on_c, 2, 60, 76
8, 189120, Note_on_c, 2, 66, 76
8, 189160, Control_c, 2, 11, 105
8, 189200, Control_c, 2, 11, 107
8, 189240, Control_c, 2, 11, 109
8, 189280, Control_c, 2, 11, 111
8, 189320, Control_c, 2, 11, 113
8, 189360, Control_c, 2, 11, 115
8, 189400, Control_c, 2, 11, 117
8, 189440, Control_c, 2, 11, 119
8, 189480, Control_c, 2, 11, 121
8, 189520, Control_c, 2, 11, 123
8, 189560, Control_c, 2, 11, 127
8, 189579, Note_on_c, 2, 60, 0
8, 189579, Note_on_c, 2, 66, 0
8, 189600, Note_on_c, 2, 59, 76
8, 189600, Note_on_c, 2, 67, 76
8, 189839, Note_on_c, 2, 59, 0
8, 189839, Note_on_c, 2, 67, 0
8, 194880, Note_on_c, 2, 71, 76
8, 194880, Control_c, 2, 11, 104
8, 194920, Control_c, 2, 11, 105
8, 194960, Control_c, 2, 11, 107
8, 195000, Control_c, 2, 11, 109
8, 195040, Control_c, 2, 11, 111
8, 195080, Control_c, 2, 11, 113
8, 195120, Control_c, 2, 11, 115
8, 195160, Control_c, 2, 11, 117
8, 195200, Control_c, 2, 11, 119
8, 195240, Control_c, 2, 11, 121
8, 195280, Control_c, 2, 11, 123
8, 195320, Control_c, 2, 11, 127
8, 195819, Note_on_c, 2, 71, 0
8, 195840, Note_on_c, 2, 72, 76
8, 196079, Note_on_c, 2, 72, 0
8, 198240, Note_on_c, 2, 65, 84
8, 198240, Note_on_c, 2, 68, 84
8, 198479, Note_on_c, 2, 65, 0
8, 198479, Note_on_c, 2, 68, 0
8, 198720, Note_on_c, 2, 64, 84
8, 198720, Note_on_c, 2, 67, 84
8, 198959, Note_on_c, 2, 64, 0
8, 198959, Note_on_c, 2, 67, 0
8, 199200, Note_on_c, 2, 68, 84
8, 199200, Note_on_c, 2, 65, 84
8, 199439, Note_on_c, 2, 68, 0
8, 199439, Note_on_c, 2, 65, 0
8, 199680, Note_on_c, 2, 70, 84
8, 199680, Note_on_c, 2, 67, 84
8, 199919, Note_on_c, 2, 70, 0
8, 199919, Note_on_c, 2, 67, 0
8, 200160, Note_on_c, 2, 68, 84
8, 200160, Note_on_c, 2, 65, 84
8, 200399, Note_on_c, 2, 68, 0
8, 200399, Note_on_c, 2, 65, 0
8, 200640, Note_on_c, 2, 65, 84
8, 200640, Note_on_c, 2, 62, 84
8, 200879, Note_on_c, 2, 65, 0
8, 200879, Note_on_c, 2, 62, 0
8, 201120, Note_on_c, 2, 63, 76
8, 201120, Note_on_c, 2, 67, 76
8, 203019, Note_on_c, 2, 63, 0
8, 203019, Note_on_c, 2, 67, 0
8, 203040, Note_on_c, 2, 62, 76
8, 203040, Note_on_c, 2, 65, 76
8, 204699, Note_on_c, 2, 62, 0
8, 204699, Note_on_c, 2, 65, 0
8, 204720, Note_on_c, 2, 63, 76
8, 204720, Note_on_c, 2, 60, 76
8, 204939, Note_on_c, 2, 63, 0
8, 204939, Note_on_c, 2, 60, 0
8, 204960, Note_on_c, 2, 75, 84
8, 204960, Note_on_c, 2, 66, 84
8, 206859, Note_on_c, 2, 75, 0
8, 206859, Note_on_c, 2, 66, 0
8, 206880, Note_on_c, 2, 69, 84
8, 206880, Note_on_c, 2, 75, 84
8, 207119, Note_on_c, 2, 69, 0
8, 207119, Note_on_c, 2, 75, 0
8, 207360, Note_on_c, 2, 71, 84
8, 207360, Note_on_c, 2, 74, 84
8, 207599, Note_on_c, 2, 71, 0
8, 207599, Note_on_c, 2, 74, 0
8, 218880, Note_on_c, 2, 70, 52
8, 219119, Note_on_c, 2, 70, 0
8, 219120, Note_on_c, 2, 72, 52
8, 219359, Note_on_c, 2, 72, 0
8, 219360, Note_on_c, 2, 70, 52
8, 219599, Note_on_c, 2, 70, 0
8, 219600, Note_on_c, 2, 69, 52
8, 219839, Note_on_c, 2, 69, 0
8, 220800, Note_on_c, 2, 72, 52
8, 221039, Note_on_c, 2, 72, 0
8, 221040, Note_on_c, 2, 74, 52
8, 221279, Note_on_c, 2, 74, 0
8, 221280, Note_on_c, 2, 72, 52
8, 221519, Note_on_c, 2, 72, 0
8, 221520, Note_on_c, 2, 71, 52
8, 221759, Note_on_c, 2, 71, 0
8, 224053, Control_c, 2, 11, 81
8, 224160, Control_c, 2, 11, 82
8, 224160, Note_on_c, 2, 68, 84
8, 224160, Note_on_c, 2, 80, 84
8, 224267, Control_c, 2, 11, 83
8, 224373, Control_c, 2, 11, 84
8, 224399, Note_on_c, 2, 68, 0
8, 224399, Note_on_c, 2, 80, 0
8, 224400, Note_on_c, 2, 67, 84
8, 224400, Note_on_c, 2, 79, 84
8, 224480, Control_c, 2, 11, 85
8, 224587, Control_c, 2, 11, 86
8, 224639, Note_on_c, 2, 67, 0
8, 224639, Note_on_c, 2, 79, 0
8, 224640, Note_on_c, 2, 77, 84
8, 224640, Note_on_c, 2, 65, 84
8, 224693, Control_c, 2, 11, 87
8, 224800, Control_c, 2, 11, 88
8, 224879, Note_on_c, 2, 77, 0
8, 224879, Note_on_c, 2, 65, 0
8, 224880, Note_on_c, 2, 67, 84
8, 224880, Note_on_c, 2, 79, 84
8, 224907, Control_c, 2, 11, 89
8, 225013, Control_c, 2, 11, 90
8, 225099, Note_on_c, 2, 67, 0
8, 225099, Note_on_c, 2, 79, 0
8, 225120, Control_c, 2, 11, 91
8, 225120, Note_on_c, 2, 80, 84
8, 225120, Note_on_c, 2, 68, 84
8, 225227, Control_c, 2, 11, 92
8, 225333, Control_c, 2, 11, 93
8, 225359, Note_on_c, 2, 80, 0
8, 225359, Note_on_c, 2, 68, 0
8, 225360, Note_on_c, 2, 67, 84
8, 225360, Note_on_c, 2, 79, 84
8, 225440, Control_c, 2, 11, 94
8, 225547, Control_c, 2, 11, 95
8, 225599, Note_on_c, 2, 67, 0
8, 225599, Note_on_c, 2, 79, 0
8, 225600, Note_on_c, 2, 78, 84
8, 225600, Note_on_c, 2, 66, 84
8, 225653, Control_c, 2, 11, 96
8, 225760, Control_c, 2, 11, 97
8, 225839, Note_on_c, 2, 78, 0
8, 225839, Note_on_c, 2, 66, 0
8, 225840, Note_on_c, 2, 79, 84
8, 225840, Note_on_c, 2, 67, 84
8, 225867, Control_c, 2, 11, 98
8, 225973, Control_c, 2, 11, 99
8, 226059, Note_on_c, 2, 79, 0
8, 226059, Note_on_c, 2, 67, 0
8, 226080, Note_on_c, 2, 81, 84
8, 226080, Note_on_c, 2, 69, 84
8, 226080, Control_c, 2, 11, 100
8, 226187, Control_c, 2, 11, 101
8, 226293, Control_c, 2, 11, 102
8, 226319, Note_on_c, 2, 81, 0
8, 226319, Note_on_c, 2, 69, 0
8, 226320, Note_on_c, 2, 79, 84
8, 226320, Note_on_c, 2, 67, 84
8, 226400, Control_c, 2, 11, 103
8, 226507, Control_c, 2, 11, 104
8, 226559, Note_on_c, 2, 79, 0
8, 226559, Note_on_c, 2, 67, 0
8, 226560, Note_on_c, 2, 78, 84
8, 226560, Note_on_c, 2, 66, 84
8, 226613, Control_c, 2, 11, 105
8, 226720, Control_c, 2, 11, 106
8, 226799, Note_on_c, 2, 78, 0
8, 226799, Note_on_c, 2, 66, 0
8, 226800, Note_on_c, 2, 79, 84
8, 226800, Note_on_c, 2, 67, 84
8, 226827, Control_c, 2, 11, 107
8, 226933, Control_c, 2, 11, 108
8, 227019, Note_on_c, 2, 79, 0
8, 227019, Note_on_c, 2, 67, 0
8, 227040, Control_c, 2, 11, 109
8, 227040, Note_on_c, 2, 81, 84
8, 227040, Note_on_c, 2, 69, 84
8, 227147, Control_c, 2, 11, 110
8, 227253, Control_c, 2, 11, 111
8, 227279, Note_on_c, 2, 81, 0
8, 227279, Note_on_c, 2, 69, 0
8, 227280, Note_on_c, 2, 79, 84
8, 227280, Note_on_c, 2, 67, 84
8, 227360, Control_c, 2, 11, 112
8, 227467, Control_c, 2, 11, 113
8, 227519, Note_on_c, 2, 79, 0
8, 227519, Note_on_c, 2, 67, 0
8, 227520, Note_on_c, 2, 78, 84
8, 227520, Note_on_c, 2, 66, 84
8, 227573, Control_c, 2, 11, 114
8, 227680, Control_c, 2, 11, 115
8, 227759, Note_on_c, 2, 78, 0
8, 227759, Note_on_c, 2, 66, 0
8, 227760, Note_on_c, 2, 79, 84
8, 227760, Note_on_c, 2, 67, 84
8, 227787, Control_c, 2, 11, 116
8, 227893, Control_c, 2, 11, 117
8, 227999, Note_on_c, 2, 79, 0
8, 227999, Note_on_c, 2, 67, 0
8, 228000, Note_on_c, 2, 66, 84
8, 228000, Control_c, 2, 11, 118
8, 228000, Note_on_c, 2, 78, 84
8, 228107, Control_c, 2, 11, 119
8, 228213, Control_c, 2, 11, 120
8, 228239, Note_on_c, 2, 66, 0
8, 228239, Note_on_c, 2, 78, 0
8, 228240, Note_on_c, 2, 67, 84
8, 228240, Note_on_c, 2, 79, 84
8, 228320, Control_c, 2, 11, 121
8, 228427, Control_c, 2, 11, 122
8, 228479, Note_on_c, 2, 67, 0
8, 228479, Note_on_c, 2, 79, 0
8, 228480, Note_on_c, 2, 66, 84
8, 228480, Note_on_c, 2, 78, 84
8, 228533, Control_c, 2, 11, 123
8, 228640, Control_c, 2, 11, 124
8, 228719, Note_on_c, 2, 66, 0
8, 228719, Note_on_c, 2, 78, 0
8, 228720, Note_on_c, 2, 67, 84
8, 228720, Note_on_c, 2, 79, 84
8, 228747, Control_c, 2, 11, 125
8, 228853, Control_c, 2, 11, 127
8, 228939, Note_on_c, 2, 67, 0
8, 228939, Note_on_c, 2, 79, 0
8, 228960, Note_on_c, 2, 77, 84
8, 228960, Note_on_c, 2, 79, 84
8, 229659, Note_on_c, 2, 77, 0
8, 229659, Note_on_c, 2, 79, 0
8, 229680, Note_on_c, 2, 74, 84
8, 229680, Note_on_c, 2, 79, 84
8, 229899, Note_on_c, 2, 74, 0
8, 229899, Note_on_c, 2, 79, 0
8, 229920, Note_on_c, 2, 76, 84
8, 229920, Note_on_c, 2, 79, 84
8, 230159, Note_on_c, 2, 76, 0
8, 230159, Note_on_c, 2, 79, 0
8, 230400, Note_on_c, 2, 77, 84
8, 230400, Note_on_c, 2, 71, 84
8, 230639, Note_on_c, 2, 77, 0
8, 230639, Note_on_c, 2, 71, 0
8, 230880, Note_on_c, 2, 76, 84
8, 230880, Note_on_c, 2, 72, 84
8, 231119, Note_on_c, 2, 76, 0
8, 231119, Note_on_c, 2, 72, 0
8, 231360, Note_on_c, 2, 74, 84
8, 231360, Note_on_c, 2, 72, 84
8, 231599, Note_on_c, 2, 74, 0
8, 231599, Note_on_c, 2, 72, 0
8, 231840, Note_on_c, 2, 72, 84
8, 231840, Note_on_c, 2, 76, 84
8, 232079, Note_on_c, 2, 72, 0
8, 232079, Note_on_c, 2, 76, 0
8, 232320, Note_on_c, 2, 74, 84
8, 232320, Note_on_c, 2, 71, 84
8, 232559, Note_on_c, 2, 74, 0
8, 232559, Note_on_c, 2, 71, 0
8, 232800, Note_on_c, 2, 74, 84
8, 232800, Note_on_c, 2, 77, 84
8, 233739, Note_on_c, 2, 74, 0
8, 233739, Note_on_c, 2, 77, 0
8, 233760, Note_on_c, 2, 76, 84
8, 233760, Note_on_c, 2, 72, 84
8, 233979, Note_on_c, 2, 76, 0
8, 233979, Note_on_c, 2, 72, 0
8, 234000, Note_on_c, 2, 72, 84
8, 234000, Note_on_c, 2, 76, 84
8, 234219, Note_on_c, 2, 72, 0
8, 234219, Note_on_c, 2, 76, 0
8, 234480, Note_on_c, 2, 74, 84
8, 234480, Note_on_c, 2, 71, 84
8, 234719, Note_on_c, 2, 74, 0
8, 234719, Note_on_c, 2, 71, 0
8, 234960, Note_on_c, 2, 72, 84
8, 234960, Note_on_c, 2, 76, 84
8, 235199, Note_on_c, 2, 72, 0
8, 235199, Note_on_c, 2, 76, 0
8, 235440, Note_on_c, 2, 72, 84
8, 235440, Note_on_c, 2, 74, 84
8, 235679, Note_on_c, 2, 72, 0
8, 235679, Note_on_c, 2, 74, 0
8, 235920, Note_on_c, 2, 72, 84
8, 235920, Note_on_c, 2, 76, 84
8, 236159, Note_on_c, 2, 72, 0
8, 236159, Note_on_c, 2, 76, 0
8, 236400, Note_on_c, 2, 71, 84
8, 236400, Note_on_c, 2, 74, 84
8, 236619, Note_on_c, 2, 71, 0
8, 236619, Note_on_c, 2, 74, 0
8, 236640, Note_on_c, 2, 72, 84
8, 236640, Note_on_c, 2, 64, 84
8, 236739, Note_on_c, 2, 72, 0
8, 236739, Note_on_c, 2, 64, 0
8, 236760, Note_on_c, 2, 76, 84
8, 236760, Note_on_c, 2, 64, 84
8, 236859, Note_on_c, 2, 76, 0
8, 236859, Note_on_c, 2, 64, 0
8, 236880, Note_on_c, 2, 76, 84
8, 236880, Note_on_c, 2, 64, 84
8, 236979, Note_on_c, 2, 76, 0
8, 236979, Note_on_c, 2, 64, 0
8, 237000, Note_on_c, 2, 76, 84
8, 237000, Note_on_c, 2, 64, 84
8, 237099, Note_on_c, 2, 76, 0
8, 237099, Note_on_c, 2, 64, 0
8, 237120, Note_on_c, 2, 60, 84
8, 237120, Note_on_c, 2, 72, 84
8, 237219, Note_on_c, 2, 60, 0
8, 237219, Note_on_c, 2, 72, 0
8, 237240, Note_on_c, 2, 79, 84
8, 237240, Note_on_c, 2, 67, 84
8, 237339, Note_on_c, 2, 79, 0
8, 237339, Note_on_c, 2, 67, 0
8, 237360, Note_on_c, 2, 67, 84
8, 237360, Note_on_c, 2, 79, 84
8, 237459, Note_on_c, 2, 67, 0
8, 237459, Note_on_c, 2, 79, 0
8, 237480, Note_on_c, 2, 67, 84
8, 237480, Note_on_c, 2, 79, 84
8, 237579, Note_on_c, 2, 67, 0
8, 237579, Note_on_c, 2, 79, 0
8, 237600, Note_on_c, 2, 76, 84
8, 237600, Note_on_c, 2, 64, 84
8, 237699, Note_on_c, 2, 76, 0
8, 237699, Note_on_c, 2, 64, 0
8, 237720, Note_on_c, 2, 72, 84
8, 237720, Note_on_c, 2, 60, 84
8, 237819, Note_on_c, 2, 72, 0
8, 237819, Note_on_c, 2, 60, 0
8, 237840, Note_on_c, 2, 60, 84
8, 237840, Note_on_c, 2, 72, 84
8, 237939, Note_on_c, 2, 60, 0
8, 237939, Note_on_c, 2, 72, 0
8, 237960, Note_on_c, 2, 60, 84
8, 237960, Note_on_c, 2, 72, 84
8, 238059, Note_on_c, 2, 60, 0
8, 238059, Note_on_c, 2, 72, 0
8, 238080, Note_on_c, 2, 67, 84
8, 238080, Note_on_c, 2, 55, 84
8, 238659, Note_on_c, 2, 67, 0
8, 238659, Note_on_c, 2, 55, 0
8, 238680, Note_on_c, 2, 76, 84
8, 238680, Note_on_c, 2, 64, 84
8, 238779, Note_on_c, 2, 76, 0
8, 238779, Note_on_c, 2, 64, 0
8, 238800, Note_on_c, 2, 76, 84
8, 238800, Note_on_c, 2, 64, 84
8, 238899, Note_on_c, 2, 76, 0
8, 238899, Note_on_c, 2, 64, 0
8, 238920, Note_on_c, 2, 76, 84
8, 238920, Note_on_c, 2, 64, 84
8, 239019, Note_on_c, 2, 76, 0
8, 239019, Note_on_c, 2, 64, 0
8, 239040, Note_on_c, 2, 60, 84
8, 239040, Note_on_c, 2, 72, 84
8, 239139, Note_on_c, 2, 60, 0
8, 239139, Note_on_c, 2, 72, 0
8, 239160, Note_on_c, 2, 79, 84
8, 239160, Note_on_c, 2, 67, 84
8, 239259, Note_on_c, 2, 79, 0
8, 239259, Note_on_c, 2, 67, 0
8, 239280, Note_on_c, 2, 79, 84
8, 239280, Note_on_c, 2, 67, 84
8, 239379, Note_on_c, 2, 79, 0
8, 239379, Note_on_c, 2, 67, 0
8, 239400, Note_on_c, 2, 79, 84
8, 239400, Note_on_c, 2, 67, 84
8, 239499, Note_on_c, 2, 79, 0
8, 239499, Note_on_c, 2, 67, 0
8, 239520, Note_on_c, 2, 76, 84
8, 239520, Note_on_c, 2, 64, 84
8, 239619, Note_on_c, 2, 76, 0
8, 239619, Note_on_c, 2, 64, 0
8, 239640, Note_on_c, 2, 60, 84
8, 239640, Note_on_c, 2, 72, 84
8, 239739, Note_on_c, 2, 60, 0
8, 239739, Note_on_c, 2, 72, 0
8, 239760, Note_on_c, 2, 60, 84
8, 239760, Note_on_c, 2, 72, 84
8, 239859, Note_on_c, 2, 60, 0
8, 239859, Note_on_c, 2, 72, 0
8, 239880, Note_on_c, 2, 60, 84
8, 239880, Note_on_c, 2, 72, 84
8, 239979, Note_on_c, 2, 60, 0
8, 239979, Note_on_c, 2, 72, 0
8, 240000, Note_on_c, 2, 67, 84
8, 240000, Note_on_c, 2, 55, 84
8, 240099, Note_on_c, 2, 67, 0
8, 240099, Note_on_c, 2, 55, 0
8, 240120, Note_on_c, 2, 71, 84
8, 240120, Note_on_c, 2, 67, 84
8, 240219, Note_on_c, 2, 71, 0
8, 240219, Note_on_c, 2, 67, 0
8, 240240, Note_on_c, 2, 71, 84
8, 240240, Note_on_c, 2, 67, 84
8, 240339, Note_on_c, 2, 71, 0
8, 240339, Note_on_c, 2, 67, 0
8, 240360, Note_on_c, 2, 67, 84
8, 240360, Note_on_c, 2, 71, 84
8, 240459, Note_on_c, 2, 67, 0
8, 240459, Note_on_c, 2, 71, 0
8, 240480, Note_on_c, 2, 72, 84
8, 240480, Note_on_c, 2, 67, 84
8, 240719, Note_on_c, 2, 72, 0
8, 240719, Note_on_c, 2, 67, 0
8, 241080, Note_on_c, 2, 67, 84
8, 241080, Note_on_c, 2, 71, 84
8, 241179, Note_on_c, 2, 67, 0
8, 241179, Note_on_c, 2, 71, 0
8, 241200, Note_on_c, 2, 67, 84
8, 241200, Note_on_c, 2, 71, 84
8, 241299, Note_on_c, 2, 67, 0
8, 241299, Note_on_c, 2, 71, 0
8, 241320, Note_on_c, 2, 71, 84
8, 241320, Note_on_c, 2, 67, 84
8, 241419, Note_on_c, 2, 71, 0
8, 241419, Note_on_c, 2, 67, 0
8, 241440, Note_on_c, 2, 67, 84
8, 241440, Note_on_c, 2, 72, 84
8, 241679, Note_on_c, 2, 67, 0
8, 241679, Note_on_c, 2, 72, 0
8, 242040, Note_on_c, 2, 74, 84
8, 242040, Note_on_c, 2, 71, 84
8, 242139, Note_on_c, 2, 74, 0
8, 242139, Note_on_c, 2, 71, 0
8, 242160, Note_on_c, 2, 74, 84
8, 242160, Note_on_c, 2, 71, 84
8, 242259, Note_on_c, 2, 74, 0
8, 242259, Note_on_c, 2, 71, 0
8, 242280, Note_on_c, 2, 71, 84
8, 242280, Note_on_c, 2, 74, 84
8, 242379, Note_on_c, 2, 71, 0
8, 242379, Note_on_c, 2, 74, 0
8, 242400, Note_on_c, 2, 76, 84
8, 242400, Note_on_c, 2, 72, 84
8, 242499, Note_on_c, 2, 76, 0
8, 242499, Note_on_c, 2, 72, 0
8, 242520, Note_on_c, 2, 72, 84
8, 242520, Note_on_c, 2, 60, 84
8, 242619, Note_on_c, 2, 72, 0
8, 242619, Note_on_c, 2, 60, 0
8, 242640, Note_on_c, 2, 72, 84
8, 242640, Note_on_c, 2, 60, 84
8, 242739, Note_on_c, 2, 72, 0
8, 242739, Note_on_c, 2, 60, 0
8, 242760, Note_on_c, 2, 60, 84
8, 242760, Note_on_c, 2, 72, 84
8, 242859, Note_on_c, 2, 60, 0
8, 242859, Note_on_c, 2, 72, 0
8, 242880, Note_on_c, 2, 72, 84
8, 242880, Note_on_c, 2, 60, 84
8, 243359, Note_on_c, 2, 72, 0
8, 243359, Note_on_c, 2, 60, 0
8, 243360, Note_on_c, 2, 72, 84
8, 243360, Note_on_c, 2, 60, 84
8, 243459, Note_on_c, 2, 72, 0
8, 243459, Note_on_c, 2, 60, 0
8, 243480, Note_on_c, 2, 60, 84
8, 243480, Note_on_c, 2, 72, 84
8, 243579, Note_on_c, 2, 60, 0
8, 243579, Note_on_c, 2, 72, 0
8, 243600, Note_on_c, 2, 72, 84
8, 243600, Note_on_c, 2, 60, 84
8, 243699, Note_on_c, 2, 72, 0
8, 243699, Note_on_c, 2, 60, 0
8, 243720, Note_on_c, 2, 72, 84
8, 243720, Note_on_c, 2, 60, 84
8, 243819, Note_on_c, 2, 72, 0
8, 243819, Note_on_c, 2, 60, 0
8, 243840, Note_on_c, 2, 72, 84
8, 243840, Note_on_c, 2, 60, 84
8, 244319, Note_on_c, 2, 72, 0
8, 244319, Note_on_c, 2, 60, 0
8, 244320, Note_on_c, 2, 60, 84
8, 244320, Note_on_c, 2, 72, 84
8, 244419, Note_on_c, 2, 60, 0
8, 244419, Note_on_c, 2, 72, 0
8, 244440, Note_on_c, 2, 72, 84
8, 244440, Note_on_c, 2, 60, 84
8, 244539, Note_on_c, 2, 72, 0
8, 244539, Note_on_c, 2, 60, 0
8, 244560, Note_on_c, 2, 72, 84
8, 244560, Note_on_c, 2, 60, 84
8, 244659, Note_on_c, 2, 72, 0
8, 244659, Note_on_c, 2, 60, 0
8, 244680, Note_on_c, 2, 72, 84
8, 244680, Note_on_c, 2, 60, 84
8, 244779, Note_on_c, 2, 72, 0
8, 244779, Note_on_c, 2, 60, 0
8, 244800, Note_on_c, 2, 60, 84
8, 244800, Note_on_c, 2, 72, 84
8, 245279, Note_on_c, 2, 60, 0
8, 245279, Note_on_c, 2, 72, 0
8, 245280, Note_on_c, 2, 72, 84
8, 245280, Note_on_c, 2, 60, 84
8, 245379, Note_on_c, 2, 72, 0
8, 245379, Note_on_c, 2, 60, 0
8, 245400, Note_on_c, 2, 60, 84
8, 245400, Note_on_c, 2, 72, 84
8, 245499, Note_on_c, 2, 60, 0
8, 245499, Note_on_c, 2, 72, 0
8, 245520, Note_on_c, 2, 72, 84
8, 245520, Note_on_c, 2, 60, 84
8, 245619, Note_on_c, 2, 72, 0
8, 245619, Note_on_c, 2, 60, 0
8, 245640, Note_on_c, 2, 60, 84
8, 245640, Note_on_c, 2, 72, 84
8, 245739, Note_on_c, 2, 60, 0
8, 245739, Note_on_c, 2, 72, 0
8, 245760, Note_on_c, 2, 60, 84
8, 245760, Note_on_c, 2, 72, 84
8, 246219, Note_on_c, 2, 60, 0
8, 246219, Note_on_c, 2, 72, 0
8, 246240, Note_on_c, 2, 68, 84
8, 246240, Note_on_c, 2, 73, 84
8, 248139, Note_on_c, 2, 68, 0
8, 248139, Note_on_c, 2, 73, 0
8, 248160, Note_on_c, 2, 73, 84
8, 248160, Note_on_c, 2, 68, 84
8, 248399, Note_on_c, 2, 73, 0
8, 248399, Note_on_c, 2, 68, 0
8, 248760, Note_on_c, 2, 65, 52
8, 248859, Note_on_c, 2, 65, 0
8, 248880, Note_on_c, 2, 65, 52
8, 248979, Note_on_c, 2, 65, 0
8, 249000, Note_on_c, 2, 65, 52
8, 249099, Note_on_c, 2, 65, 0
8, 249120, Note_on_c, 2, 68, 52
8, 249359, Note_on_c, 2, 68, 0
8, 250200, Note_on_c, 2, 69, 84
8, 250200, Note_on_c, 2, 72, 84
8, 250299, Note_on_c, 2, 69, 0
8, 250299, Note_on_c, 2, 72, 0
8, 250320, Note_on_c, 2, 69, 84
8, 250320, Note_on_c, 2, 72, 84
8, 250419, Note_on_c, 2, 69, 0
8, 250419, Note_on_c, 2, 72, 0
8, 250440, Note_on_c, 2, 72, 84
8, 250440, Note_on_c, 2, 69, 84
8, 250539, Note_on_c, 2, 72, 0
8, 250539, Note_on_c, 2, 69, 0
8, 250560, Note_on_c, 2, 72, 84
8, 250560, Note_on_c, 2, 69, 84
8, 252459, Note_on_c, 2, 72, 0
8, 252459, Note_on_c, 2, 69, 0
8, 252480, Note_on_c, 2, 69, 84
8, 252480, Note_on_c, 2, 72, 84
8, 252719, Note_on_c, 2, 69, 0
8, 252719, Note_on_c, 2, 72, 0
8, 253080, Note_on_c, 2, 60, 84
8, 253080, Note_on_c, 2, 72, 84
8, 253179, Note_on_c, 2, 60, 0
8, 253179, Note_on_c, 2, 72, 0
8, 253200, Note_on_c, 2, 60, 84
8, 253200, Note_on_c, 2, 72, 84
8, 253299, Note_on_c, 2, 60, 0
8, 253299, Note_on_c, 2, 72, 0
8, 253320, Note_on_c, 2, 72, 84
8, 253320, Note_on_c, 2, 60, 84
8, 253419, Note_on_c, 2, 72, 0
8, 253419, Note_on_c, 2, 60, 0
8, 253440, Note_on_c, 2, 75, 84
8, 253440, Note_on_c, 2, 63, 84
8, 253679, Note_on_c, 2, 75, 0
8, 253679, Note_on_c, 2, 63, 0
8, 255360, Note_on_c, 2, 71, 76
8, 255360, Note_on_c, 2, 80, 76
8, 256059, Note_on_c, 2, 80, 0
8, 256080, Note_on_c, 2, 79, 76
8, 256319, Note_on_c, 2, 71, 0
8, 256319, Note_on_c, 2, 79, 0
8, 257280, Note_on_c, 2, 71, 76
8, 257280, Note_on_c, 2, 80, 76
8, 257979, Note_on_c, 2, 80, 0
8, 258000, Note_on_c, 2, 79, 76
8, 258239, Note_on_c, 2, 71, 0
8, 258239, Note_on_c, 2, 79, 0
8, 259200, Note_on_c, 2, 75, 76
8, 259419, Note_on_c, 2, 75, 0
8, 259440, Note_on_c, 2, 77, 76
8, 259659, Note_on_c, 2, 77, 0
8, 259680, Note_on_c, 2, 74, 76
8, 259899, Note_on_c, 2, 74, 0
8, 259920, Note_on_c, 2, 75, 76
8, 260139, Note_on_c, 2, 75, 0
8, 260160, Note_on_c, 2, 72, 76
8, 260379, Note_on_c, 2, 72, 0
8, 260400, Note_on_c, 2, 74, 76
8, 260619, Note_on_c, 2, 74, 0
8, 260640, Note_on_c, 2, 70, 76
8, 260859, Note_on_c, 2, 70, 0
8, 260880, Note_on_c, 2, 72, 76
8, 261099, Note_on_c, 2, 72, 0
8, 261120, Note_on_c, 2, 68, 76
8, 261339, Note_on_c, 2, 68, 0
8, 261360, Note_on_c, 2, 70, 76
8, 261579, Note_on_c, 2, 70, 0
8, 261600, Note_on_c, 2, 67, 76
8, 261819, Note_on_c, 2, 67, 0
8, 261840, Note_on_c, 2, 68, 76
8, 262059, Note_on_c, 2, 68, 0
8, 262080, Note_on_c, 2, 65, 76
8, 262299, Note_on_c, 2, 65, 0
8, 262320, Note_on_c, 2, 67, 76
8, 262320, Note_on_c, 2, 63, 76
8, 262539, Note_on_c, 2, 67, 0
8, 262539, Note_on_c, 2, 63, 0
8, 262560, Note_on_c, 2, 67, 76
8, 262560, Note_on_c, 2, 62, 76
8, 262779, Note_on_c, 2, 67, 0
8, 262779, Note_on_c, 2, 62, 0
8, 262800, Note_on_c, 2, 67, 76
8, 262800, Note_on_c, 2, 63, 76
8, 263019, Note_on_c, 2, 67, 0
8, 263019, Note_on_c, 2, 63, 0
8, 263040, Note_on_c, 2, 65, 76
8, 263040, Note_on_c, 2, 67, 76
8, 263259, Note_on_c, 2, 65, 0
8, 263259, Note_on_c, 2, 67, 0
8, 263280, Note_on_c, 2, 63, 76
8, 263280, Note_on_c, 2, 67, 76
8, 263499, Note_on_c, 2, 63, 0
8, 263499, Note_on_c, 2, 67, 0
8, 263520, Note_on_c, 2, 67, 76
8, 263520, Note_on_c, 2, 65, 76
8, 263739, Note_on_c, 2, 67, 0
8, 263739, Note_on_c, 2, 65, 0
8, 263760, Note_on_c, 2, 72, 76
8, 263760, Note_on_c, 2, 67, 76
8, 263979, Note_on_c, 2, 72, 0
8, 263979, Note_on_c, 2, 67, 0
8, 264000, Note_on_c, 2, 72, 76
8, 264000, Note_on_c, 2, 68, 76
8, 264219, Note_on_c, 2, 72, 0
8, 264219, Note_on_c, 2, 68, 0
8, 264240, Note_on_c, 2, 67, 76
8, 264240, Note_on_c, 2, 72, 76
8, 264459, Note_on_c, 2, 67, 0
8, 264459, Note_on_c, 2, 72, 0
8, 264480, Note_on_c, 2, 68, 76
8, 264480, Note_on_c, 2, 72, 76
8, 264699, Note_on_c, 2, 68, 0
8, 264699, Note_on_c, 2, 72, 0
8, 264720, Note_on_c, 2, 71, 76
8, 264720, Note_on_c, 2, 59, 76
8, 264939, Note_on_c, 2, 71, 0
8, 264939, Note_on_c, 2, 59, 0
8, 264960, Note_on_c, 2, 72, 76
8, 264960, Note_on_c, 2, 60, 76
8, 265179, Note_on_c, 2, 72, 0
8, 265179, Note_on_c, 2, 60, 0
8, 265200, Note_on_c, 2, 59, 76
8, 265200, Note_on_c, 2, 71, 76
8, 265419, Note_on_c, 2, 59, 0
8, 265419, Note_on_c, 2, 71, 0
8, 265440, Note_on_c, 2, 72, 76
8, 265440, Note_on_c, 2, 60, 76
8, 265659, Note_on_c, 2, 72, 0
8, 265659, Note_on_c, 2, 60, 0
8, 265680, Note_on_c, 2, 62, 76
8, 265680, Note_on_c, 2, 74, 76
8, 265899, Note_on_c, 2, 62, 0
8, 265899, Note_on_c, 2, 74, 0
8, 265920, Note_on_c, 2, 63, 76
8, 265920, Note_on_c, 2, 72, 76
8, 266859, Note_on_c, 2, 63, 0
8, 266859, Note_on_c, 2, 72, 0
8, 266880, Note_on_c, 2, 65, 76
8, 266880, Note_on_c, 2, 72, 76
8, 267819, Note_on_c, 2, 65, 0
8, 267819, Note_on_c, 2, 72, 0
8, 267840, Note_on_c, 2, 72, 76
8, 267840, Note_on_c, 2, 67, 76
8, 268779, Note_on_c, 2, 72, 0
8, 268779, Note_on_c, 2, 67, 0
8, 268800, Note_on_c, 2, 68, 76
8, 268800, Note_on_c, 2, 72, 76
8, 269259, Note_on_c, 2, 68, 0
8, 269280, Note_on_c, 2, 65, 76
8, 269739, Note_on_c, 2, 72, 0
8, 269739, Note_on_c, 2, 65, 0
8, 269760, Note_on_c, 2, 71, 76
8, 269760, Note_on_c, 2, 65, 76
8, 270219, Note_on_c, 2, 71, 0
8, 270219, Note_on_c, 2, 65, 0
8, 270240, Note_on_c, 2, 71, 76
8, 270240, Note_on_c, 2, 67, 76
8, 270699, Note_on_c, 2, 71, 0
8, 270699, Note_on_c, 2, 67, 0
8, 270720, Note_on_c, 2, 72, 76
8, 270720, Note_on_c, 2, 67, 76
8, 270899, Note_on_c, 2, 72, 0
8, 270899, Note_on_c, 2, 67, 0
8, 271200, Note_on_c, 2, 68, 76
8, 271200, Note_on_c, 2, 72, 76
8, 271379, Note_on_c, 2, 68, 0
8, 271379, Note_on_c, 2, 72, 0
8, 271680, Note_on_c, 2, 68, 76
8, 271680, Note_on_c, 2, 72, 76
8, 271859, Note_on_c, 2, 68, 0
8, 271859, Note_on_c, 2, 72, 0
8, 272160, Note_on_c, 2, 74, 76
8, 272160, Note_on_c, 2, 72, 76
8, 272339, Note_on_c, 2, 74, 0
8, 272339, Note_on_c, 2, 72, 0
8, 272640, Note_on_c, 2, 72, 76
8, 272640, Note_on_c, 2, 74, 76
8, 272819, Note_on_c, 2, 72, 0
8, 272819, Note_on_c, 2, 74, 0
8, 273120, Note_on_c, 2, 71, 76
8, 273120, Note_on_c, 2, 74, 76
8, 273299, Note_on_c, 2, 71, 0
8, 273299, Note_on_c, 2, 74, 0
8, 273600, Note_on_c, 2, 72, 84
8, 274059, Note_on_c, 2, 72, 0
8, 274080, Note_on_c, 2, 74, 84
8, 274259, Note_on_c, 2, 74, 0
8, 274320, Note_on_c, 2, 75, 84
8, 274499, Note_on_c, 2, 75, 0
8, 274560, Note_on_c, 2, 77, 84
8, 274799, Note_on_c, 2, 77, 0
8, 274800, Note_on_c, 2, 74, 84
8, 275039, Note_on_c, 2, 74, 0
8, 276000, Note_on_c, 2, 77, 84
8, 276179, Note_on_c, 2, 77, 0
8, 276240, Note_on_c, 2, 79, 84
8, 276419, Note_on_c, 2, 79, 0
8, 276480, Note_on_c, 2, 80, 84
8, 276719, Note_on_c, 2, 80, 0
8, 276720, Note_on_c, 2, 77, 84
8, 276959, Note_on_c, 2, 77, 0
8, 277920, Note_on_c, 2, 72, 84
8, 277920, Note_on_c, 2, 69, 84
8, 278099, Note_on_c, 2, 72, 0
8, 278099, Note_on_c, 2, 69, 0
8, 278160, Note_on_c, 2, 74, 84
8, 278160, Note_on_c, 2, 71, 84
8, 278339, Note_on_c, 2, 74, 0
8, 278339, Note_on_c, 2, 71, 0
8, 278400, Note_on_c, 2, 75, 84
8, 278400, Note_on_c, 2, 72, 84
8, 278639, Note_on_c, 2, 75, 0
8, 278639, Note_on_c, 2, 72, 0
8, 278640, Note_on_c, 2, 67, 84
8, 278640, Note_on_c, 2, 72, 84
8, 278879, Note_on_c, 2, 67, 0
8, 278879, Note_on_c, 2, 72, 0
8, 279840, Note_on_c, 2, 69, 84
8, 279840, Note_on_c, 2, 72, 84
8, 280019, Note_on_c, 2, 69, 0
8, 280019, Note_on_c, 2, 72, 0
8, 280080, Note_on_c, 2, 71, 84
8, 280080, Note_on_c, 2, 74, 84
8, 280259, Note_on_c, 2, 71, 0
8, 280259, Note_on_c, 2, 74, 0
8, 280320, Note_on_c, 2, 72, 84
8, 280320, Note_on_c, 2, 75, 84
8, 280559, Note_on_c, 2, 72, 0
8, 280559, Note_on_c, 2, 75, 0
8, 280560, Note_on_c, 2, 74, 84
8, 280560, Note_on_c, 2, 71, 84
8, 280799, Note_on_c, 2, 74, 0
8, 280799, Note_on_c, 2, 71, 0
8, 280800, Note_on_c, 2, 68, 84
8, 280800, Note_on_c, 2, 72, 84
8, 281039, Note_on_c, 2, 68, 0
8, 281039, Note_on_c, 2, 72, 0
8, 281040, Note_on_c, 2, 70, 84
8, 281040, Note_on_c, 2, 67, 84
8, 281279, Note_on_c, 2, 70, 0
8, 281279, Note_on_c, 2, 67, 0
8, 281280, Note_on_c, 2, 65, 84
8, 281280, Note_on_c, 2, 68, 84
8, 281519, Note_on_c, 2, 65, 0
8, 281519, Note_on_c, 2, 68, 0
8, 281520, Note_on_c, 2, 63, 84
8, 281520, Note_on_c, 2, 67, 84
8, 281759, Note_on_c, 2, 63, 0
8, 281759, Note_on_c, 2, 67, 0
8, 282240, Note_on_c, 2, 60, 84
8, 282240, Note_on_c, 2, 72, 84
8, 282459, Note_on_c, 2, 60, 0
8, 282459, Note_on_c, 2, 72, 0
8, 282480, Note_on_c, 2, 72, 84
8, 282480, Note_on_c, 2, 60, 84
8, 282699, Note_on_c, 2, 72, 0
8, 282699, Note_on_c, 2, 60, 0
8, 282720, Note_on_c, 2, 80, 84
8, 282720, Note_on_c, 2, 77, 84
8, 282959, Note_on_c, 2, 80, 0
8, 282959, Note_on_c, 2, 77, 0
8, 282960, Note_on_c, 2, 79, 84
8, 282960, Note_on_c, 2, 75, 84
8, 283199, Note_on_c, 2, 79, 0
8, 283199, Note_on_c, 2, 75, 0
8, 283440, Note_on_c, 2, 72, 84
8, 283440, Note_on_c, 2, 75, 84
8, 283679, Note_on_c, 2, 72, 0
8, 283679, Note_on_c, 2, 75, 0
8, 283920, Note_on_c, 2, 79, 84
8, 283920, Note_on_c, 2, 71, 84
8, 284159, Note_on_c, 2, 79, 0
8, 284159, Note_on_c, 2, 71, 0
8, 285600, Note_on_c, 2, 60, 84
8, 285600, Note_on_c, 2, 72, 84
8, 285819, Note_on_c, 2, 60, 0
8, 285819, Note_on_c, 2, 72, 0
8, 285840, Note_on_c, 2, 60, 84
8, 285840, Note_on_c, 2, 72, 84
8, 286079, Note_on_c, 2, 60, 0
8, 286079, Note_on_c, 2, 72, 0
8, 286560, Note_on_c, 2, 68, 84
8, 286560, Note_on_c, 2, 65, 84
8, 286799, Note_on_c, 2, 68, 0
8, 286799, Note_on_c, 2, 65, 0
8, 286800, Note_on_c, 2, 63, 84
8, 286800, Note_on_c, 2, 67, 84
8, 287039, Note_on_c, 2, 63, 0
8, 287039, Note_on_c, 2, 67, 0
8, 287280, Note_on_c, 2, 79, 84
8, 287280, Note_on_c, 2, 75, 84
8, 287519, Note_on_c, 2, 79, 0
8, 287519, Note_on_c, 2, 75, 0
8, 287760, Note_on_c, 2, 79, 84
8, 287760, Note_on_c, 2, 74, 84
8, 287979, Note_on_c, 2, 79, 0
8, 287979, Note_on_c, 2, 74, 0
8, 288000, Note_on_c, 2, 72, 84
8, 288239, Note_on_c, 2, 72, 0
8, 288600, Note_on_c, 2, 71, 84
8, 288600, Note_on_c, 2, 74, 84
8, 288699, Note_on_c, 2, 71, 0
8, 288699, Note_on_c, 2, 74, 0
8, 288720, Note_on_c, 2, 71, 84
8, 288720, Note_on_c, 2, 74, 84
8, 288819, Note_on_c, 2, 71, 0
8, 288819, Note_on_c, 2, 74, 0
8, 288840, Note_on_c, 2, 74, 84
8, 288840, Note_on_c, 2, 71, 84
8, 288939, Note_on_c, 2, 74, 0
8, 288939, Note_on_c, 2, 71, 0
8, 288960, Note_on_c, 2, 71, 84
8, 288960, Note_on_c, 2, 74, 84
8, 289679, Note_on_c, 2, 71, 0
8, 289679, Note_on_c, 2, 74, 0
8, 289680, Note_on_c, 2, 75, 84
8, 289680, Note_on_c, 2, 72, 84
8, 289919, Note_on_c, 2, 75, 0
8, 289919, Note_on_c, 2, 72, 0
8, 289920, Note_on_c, 2, 74, 84
8, 289920, Note_on_c, 2, 77, 84
8, 290159, Note_on_c, 2, 74, 0
8, 290159, Note_on_c, 2, 77, 0
8, 290160, Note_on_c, 2, 71, 84
8, 290160, Note_on_c, 2, 74, 84
8, 290399, Note_on_c, 2, 71, 0
8, 290399, Note_on_c, 2, 74, 0
8, 290400, Note_on_c, 2, 72, 84
8, 290400, Note_on_c, 2, 75, 84
8, 290639, Note_on_c, 2, 72, 0
8, 290639, Note_on_c, 2, 75, 0
8, 290640, Note_on_c, 2, 77, 84
8, 290640, Note_on_c, 2, 74, 84
8, 290859, Note_on_c, 2, 77, 0
8, 290859, Note_on_c, 2, 74, 0
8, 290880, Note_on_c, 2, 75, 84
8, 290880, Note_on_c, 2, 72, 84
8, 291119, Note_on_c, 2, 75, 0
8, 291119, Note_on_c, 2, 72, 0
8, 291480, Note_on_c, 2, 79, 84
8, 291480, Note_on_c, 2, 67, 84
8, 291579, Note_on_c, 2, 79, 0
8, 291579, Note_on_c, 2, 67, 0
8, 291600, Note_on_c, 2, 67, 84
8, 291600, Note_on_c, 2, 79, 84
8, 291699, Note_on_c, 2, 67, 0
8, 291699, Note_on_c, 2, 79, 0
8, 291720, Note_on_c, 2, 79, 84
8, 291720, Note_on_c, 2, 67, 84
8, 291819, Note_on_c, 2, 79, 0
8, 291819, Note_on_c, 2, 67, 0
8, 291840, Note_on_c, 2, 67, 84
8, 291840, Note_on_c, 2, 79, 84
8, 291939, Note_on_c, 2, 67, 0
8, 291939, Note_on_c, 2, 79, 0
8, 291960, Note_on_c, 2, 67, 84
8, 291960, Note_on_c, 2, 79, 84
8, 292059, Note_on_c, 2, 67, 0
8, 292059, Note_on_c, 2, 79, 0
8, 292080, Note_on_c, 2, 79, 84
8, 292080, Note_on_c, 2, 67, 84
8, 292179, Note_on_c, 2, 79, 0
8, 292179, Note_on_c, 2, 67, 0
8, 292200, Note_on_c, 2, 67, 84
8, 292200, Note_on_c, 2, 79, 84
8, 292299, Note_on_c, 2, 67, 0
8, 292299, Note_on_c, 2, 79, 0
8, 292320, Note_on_c, 2, 79, 84
8, 292320, Note_on_c, 2, 67, 84
8, 292419, Note_on_c, 2, 79, 0
8, 292419, Note_on_c, 2, 67, 0
8, 292440, Note_on_c, 2, 79, 84
8, 292440, Note_on_c, 2, 67, 84
8, 292539, Note_on_c, 2, 79, 0
8, 292539, Note_on_c, 2, 67, 0
8, 292560, Note_on_c, 2, 79, 84
8, 292560, Note_on_c, 2, 67, 84
8, 292659, Note_on_c, 2, 79, 0
8, 292659, Note_on_c, 2, 67, 0
8, 292680, Note_on_c, 2, 67, 84
8, 292680, Note_on_c, 2, 79, 84
8, 292779, Note_on_c, 2, 67, 0
8, 292779, Note_on_c, 2, 79, 0
8, 292800, Note_on_c, 2, 63, 84
8, 292800, Note_on_c, 2, 75, 84
8, 294239, Note_on_c, 2, 63, 0
8, 294239, Note_on_c, 2, 75, 0
8, 294360, Note_on_c, 2, 77, 84
8, 294360, Note_on_c, 2, 65, 84
8, 294459, Note_on_c, 2, 77, 0
8, 294459, Note_on_c, 2, 65, 0
8, 294480, Note_on_c, 2, 77, 84
8, 294480, Note_on_c, 2, 65, 84
8, 294579, Note_on_c, 2, 77, 0
8, 294579, Note_on_c, 2, 65, 0
8, 294600, Note_on_c, 2, 65, 84
8, 294600, Note_on_c, 2, 77, 84
8, 294699, Note_on_c, 2, 65, 0
8, 294699, Note_on_c, 2, 77, 0
8, 294720, Note_on_c, 2, 74, 84
8, 294720, Note_on_c, 2, 62, 84
8, 296639, Note_on_c, 2, 74, 0
8, 296639, Note_on_c, 2, 62, 0
8, 297360, Note_on_c, 2, 68, 52
8, 297599, Note_on_c, 2, 68, 0
8, 297600, Note_on_c, 2, 67, 52
8, 297839, Note_on_c, 2, 67, 0
8, 297840, Note_on_c, 2, 75, 52
8, 298079, Note_on_c, 2, 75, 0
8, 298080, Note_on_c, 2, 72, 52
8, 298799, Note_on_c, 2, 72, 0
8, 299280, Note_on_c, 2, 68, 52
8, 299519, Note_on_c, 2, 68, 0
8, 299520, Note_on_c, 2, 67, 52
8, 299759, Note_on_c, 2, 67, 0
8, 299760, Note_on_c, 2, 75, 52
8, 299999, Note_on_c, 2, 75, 0
8, 300000, Note_on_c, 2, 72, 52
8, 300579, Note_on_c, 2, 72, 0
8, 300600, Note_on_c, 2, 71, 84
8, 300600, Note_on_c, 2, 74, 84
8, 300699, Note_on_c, 2, 71, 0
8, 300699, Note_on_c, 2, 74, 0
8, 300720, Note_on_c, 2, 71, 84
8, 300720, Note_on_c, 2, 74, 84
8, 300819, Note_on_c, 2, 71, 0
8, 300819, Note_on_c, 2, 74, 0
8, 300840, Note_on_c, 2, 74, 84
8, 300840, Note_on_c, 2, 71, 84
8, 300939, Note_on_c, 2, 74, 0
8, 300939, Note_on_c, 2, 71, 0
8, 300960, Note_on_c, 2, 75, 84
8, 300960, Note_on_c, 2, 72, 84
8, 301199, Note_on_c, 2, 75, 0
8, 301199, Note_on_c, 2, 72, 0
8, 301560, Note_on_c, 2, 74, 84
8, 301560, Note_on_c, 2, 71, 84
8, 301659, Note_on_c, 2, 74, 0
8, 301659, Note_on_c, 2, 71, 0
8, 301680, Note_on_c, 2, 74, 84
8, 301680, Note_on_c, 2, 71, 84
8, 301779, Note_on_c, 2, 74, 0
8, 301779, Note_on_c, 2, 71, 0
8, 301800, Note_on_c, 2, 74, 84
8, 301800, Note_on_c, 2, 71, 84
8, 301899, Note_on_c, 2, 74, 0
8, 301899, Note_on_c, 2, 71, 0
8, 301920, Note_on_c, 2, 72, 84
8, 301920, Note_on_c, 2, 75, 84
8, 302159, Note_on_c, 2, 72, 0
8, 302159, Note_on_c, 2, 75, 0
8, 302520, Note_on_c, 2, 71, 84
8, 302520, Note_on_c, 2, 74, 84
8, 302619, Note_on_c, 2, 71, 0
8, 302619, Note_on_c, 2, 74, 0
8, 302640, Note_on_c, 2, 71, 84
8, 302640, Note_on_c, 2, 74, 84
8, 302739, Note_on_c, 2, 71, 0
8, 302739, Note_on_c, 2, 74, 0
8, 302760, Note_on_c, 2, 71, 84
8, 302760, Note_on_c, 2, 74, 84
8, 302859, Note_on_c, 2, 71, 0
8, 302859, Note_on_c, 2, 74, 0
8, 302880, Note_on_c, 2, 75, 84
8, 302880, Note_on_c, 2, 72, 84
8, 303099, Note_on_c, 2, 75, 0
8, 303099, Note_on_c, 2, 72, 0
8, 303120, Note_on_c, 2, 71, 84
8, 303120, Note_on_c, 2, 74, 84
8, 303339, Note_on_c, 2, 71, 0
8, 303339, Note_on_c, 2, 74, 0
8, 303360, Note_on_c, 2, 75, 84
8, 303360, Note_on_c, 2, 72, 84
8, 303579, Note_on_c, 2, 75, 0
8, 303579, Note_on_c, 2, 72, 0
8, 303600, Note_on_c, 2, 74, 84
8, 303600, Note_on_c, 2, 71, 84
8, 303819, Note_on_c, 2, 74, 0
8, 303819, Note_on_c, 2, 71, 0
8, 303840, Note_on_c, 2, 75, 84
8, 303840, Note_on_c, 2, 72, 84
8, 304059, Note_on_c, 2, 75, 0
8, 304059, Note_on_c, 2, 72, 0
8, 304080, Note_on_c, 2, 74, 84
8, 304080, Note_on_c, 2, 71, 84
8, 304299, Note_on_c, 2, 74, 0
8, 304299, Note_on_c, 2, 71, 0
8, 304320, Note_on_c, 2, 75, 84
8, 304320, Note_on_c, 2, 72, 84
8, 304539, Note_on_c, 2, 75, 0
8, 304539, Note_on_c, 2, 72, 0
8, 304560, Note_on_c, 2, 74, 84
8, 304560, Note_on_c, 2, 71, 84
8, 304779, Note_on_c, 2, 74, 0
8, 304779, Note_on_c, 2, 71, 0
8, 304800, Note_on_c, 2, 75, 84
8, 304800, Note_on_c, 2, 72, 84
8, 305039, Note_on_c, 2, 75, 0
8, 305039, Note_on_c, 2, 72, 0
8, 305280, Note_on_c, 2, 74, 84
8, 305280, Note_on_c, 2, 71, 84
8, 305519, Note_on_c, 2, 74, 0
8, 305519, Note_on_c, 2, 71, 0
8, 305760, Note_on_c, 2, 72, 84
8, 305999, Note_on_c, 2, 72, 0
8, 305999, End_track
9, 0, Start_track
9, 0, Title_t, "Bassoon"
9, 0, MIDI_port, 0
9, 0, Program_c, 3, 70
9, 0, Control_c, 3, 7, 96
9, 0, Control_c, 3, 10, 65
9, 0, Control_c, 3, 11, 127
9, 2880, Note_on_c, 3, 60, 52
9, 4779, Note_on_c, 3, 60, 0
9, 4800, Note_on_c, 3, 59, 52
9, 6699, Note_on_c, 3, 59, 0
9, 6720, Note_on_c, 3, 60, 52
9, 7179, Note_on_c, 3, 60, 0
9, 7200, Note_on_c, 3, 59, 52
9, 7659, Note_on_c, 3, 59, 0
9, 7680, Note_on_c, 3, 60, 52
9, 8139, Note_on_c, 3, 60, 0
9, 8160, Note_on_c, 3, 59, 52
9, 8259, Note_on_c, 3, 59, 0
9, 8280, Note_on_c, 3, 59, 58
9, 8379, Note_on_c, 3, 59, 0
9, 8400, Note_on_c, 3, 59, 64
9, 8499, Note_on_c, 3, 59, 0
9, 8520, Note_on_c, 3, 59, 70
9, 8619, Note_on_c, 3, 59, 0
9, 8640, Note_on_c, 3, 60, 76
9, 8879, Note_on_c, 3, 60, 0
9, 9120, Note_on_c, 3, 44, 76
9, 9359, Note_on_c, 3, 44, 0
9, 9600, Note_on_c, 3, 43, 76
9, 9839, Note_on_c, 3, 43, 0
9, 10200, Note_on_c, 3, 44, 84
9, 10299, Note_on_c, 3, 44, 0
9, 10320, Note_on_c, 3, 44, 84
9, 10419, Note_on_c, 3, 44, 0
9, 10440, Note_on_c, 3, 44, 84
9, 10539, Note_on_c, 3, 44, 0
9, 10560, Note_on_c, 3, 41, 84
9, 11519, Note_on_c, 3, 41, 0
9, 16720, Control_c, 3, 11, 102
9, 16800, Note_on_c, 3, 67, 68
9, 16800, Note_on_c, 3, 63, 68
9, 16800, Control_c, 3, 11, 104
9, 16880, Control_c, 3, 11, 105
9, 16960, Control_c, 3, 11, 107
9, 17040, Control_c, 3, 11, 109
9, 17120, Control_c, 3, 11, 111
9, 17200, Control_c, 3, 11, 113
9, 17280, Control_c, 3, 11, 115
9, 17360, Control_c, 3, 11, 117
9, 17440, Control_c, 3, 11, 119
9, 17519, Note_on_c, 3, 67, 0
9, 17519, Note_on_c, 3, 63, 0
9, 17520, Control_c, 3, 11, 121
9, 17600, Control_c, 3, 11, 123
9, 17680, Control_c, 3, 11, 127
9, 17760, Note_on_c, 3, 59, 76
9, 17999, Note_on_c, 3, 59, 0
9, 18240, Note_on_c, 3, 48, 76
9, 18240, Note_on_c, 3, 58, 76
9, 18479, Note_on_c, 3, 48, 0
9, 18479, Note_on_c, 3, 58, 0
9, 18720, Note_on_c, 3, 56, 76
9, 18720, Note_on_c, 3, 48, 76
9, 18959, Note_on_c, 3, 56, 0
9, 18959, Note_on_c, 3, 48, 0
9, 19200, Note_on_c, 3, 48, 76
9, 19200, Note_on_c, 3, 52, 76
9, 19439, Note_on_c, 3, 48, 0
9, 19439, Note_on_c, 3, 52, 0
9, 19680, Note_on_c, 3, 53, 76
9, 19680, Note_on_c, 3, 48, 76
9, 19919, Note_on_c, 3, 53, 0
9, 19919, Note_on_c, 3, 48, 0
9, 20160, Note_on_c, 3, 48, 76
9, 20160, Note_on_c, 3, 60, 76
9, 20399, Note_on_c, 3, 48, 0
9, 20399, Note_on_c, 3, 60, 0
9, 20640, Note_on_c, 3, 48, 76
9, 20640, Note_on_c, 3, 51, 76
9, 22539, Note_on_c, 3, 48, 0
9, 22539, Note_on_c, 3, 51, 0
9, 22560, Note_on_c, 3, 50, 76
9, 22560, Note_on_c, 3, 47, 76
9, 24219, Note_on_c, 3, 50, 0
9, 24219, Note_on_c, 3, 47, 0
9, 24240, Note_on_c, 3, 51, 76
9, 24240, Note_on_c, 3, 48, 76
9, 24459, Note_on_c, 3, 51, 0
9, 24459, Note_on_c, 3, 48, 0
9, 24480, Note_on_c, 3, 57, 84
9, 24480, Note_on_c, 3, 51, 84
9, 26379, Note_on_c, 3, 57, 0
9, 26379, Note_on_c, 3, 51, 0
9, 26400, Note_on_c, 3, 51, 84
9, 26400, Note_on_c, 3, 57, 84
9, 26639, Note_on_c, 3, 51, 0
9, 26639, Note_on_c, 3, 57, 0
9, 27360, Note_on_c, 3, 53, 84
9, 27360, Note_on_c, 3, 50, 84
9, 27599, Note_on_c, 3, 53, 0
9, 27599, Note_on_c, 3, 50, 0
9, 31680, Note_on_c, 3, 55, 52
9, 31680, Note_on_c, 3, 58, 52
9, 32159, Note_on_c, 3, 55, 0
9, 32159, Note_on_c, 3, 58, 0
9, 32160, Note_on_c, 3, 56, 52
9, 32160, Note_on_c, 3, 53, 52
9, 32619, Note_on_c, 3, 56, 0
9, 32619, Note_on_c, 3, 53, 0
9, 32640, Note_on_c, 3, 53, 52
9, 32640, Note_on_c, 3, 46, 52
9, 33119, Note_on_c, 3, 53, 0
9, 33119, Note_on_c, 3, 46, 0
9, 33120, Note_on_c, 3, 55, 52
9, 33120, Note_on_c, 3, 51, 52
9, 33579, Note_on_c, 3, 55, 0
9, 33579, Note_on_c, 3, 51, 0
9, 33600, Note_on_c, 3, 55, 52
9, 33600, Note_on_c, 3, 58, 52
9, 34079, Note_on_c, 3, 55, 0
9, 34079, Note_on_c, 3, 58, 0
9, 34080, Note_on_c, 3, 56, 52
9, 34080, Note_on_c, 3, 53, 52
9, 34539, Note_on_c, 3, 56, 0
9, 34539, Note_on_c, 3, 53, 0
9, 34560, Note_on_c, 3, 46, 52
9, 34560, Note_on_c, 3, 53, 52
9, 35039, Note_on_c, 3, 46, 0
9, 35039, Note_on_c, 3, 53, 0
9, 35040, Note_on_c, 3, 55, 52
9, 35040, Note_on_c, 3, 51, 52
9, 35499, Note_on_c, 3, 55, 0
9, 35499, Note_on_c, 3, 51, 0
9, 35520, Note_on_c, 3, 55, 52
9, 35520, Note_on_c, 3, 58, 52
9, 35999, Note_on_c, 3, 55, 0
9, 35999, Note_on_c, 3, 58, 0
9, 36000, Note_on_c, 3, 52, 52
9, 36000, Note_on_c, 3, 55, 52
9, 36459, Note_on_c, 3, 52, 0
9, 36459, Note_on_c, 3, 55, 0
9, 36480, Note_on_c, 3, 52, 52
9, 36480, Note_on_c, 3, 48, 52
9, 36959, Note_on_c, 3, 52, 0
9, 36959, Note_on_c, 3, 48, 0
9, 36960, Note_on_c, 3, 56, 52
9, 36960, Note_on_c, 3, 53, 52
9, 37419, Note_on_c, 3, 56, 0
9, 37419, Note_on_c, 3, 53, 0
9, 37440, Note_on_c, 3, 61, 52
9, 37440, Note_on_c, 3, 56, 52
9, 37919, Note_on_c, 3, 61, 0
9, 37919, Note_on_c, 3, 56, 0
9, 37920, Note_on_c, 3, 58, 52
9, 37920, Note_on_c, 3, 55, 52
9, 38379, Note_on_c, 3, 58, 0
9, 38379, Note_on_c, 3, 55, 0
9, 38400, Note_on_c, 3, 51, 52
9, 38400, Note_on_c, 3, 55, 52
9, 38879, Note_on_c, 3, 51, 0
9, 38879, Note_on_c, 3, 55, 0
9, 38880, Note_on_c, 3, 60, 52
9, 38880, Note_on_c, 3, 56, 52
9, 39339, Note_on_c, 3, 60, 0
9, 39339, Note_on_c, 3, 56, 0
9, 39358, Control_c, 3, 11, 64
9, 39360, Control_c, 3, 11, 64
9, 39360, Note_on_c, 3, 44, 84
9, 39360, Note_on_c, 3, 56, 84
9, 39470, Control_c, 3, 11, 65
9, 39580, Control_c, 3, 11, 67
9, 39690, Control_c, 3, 11, 68
9, 39800, Control_c, 3, 11, 69
9, 39819, Note_on_c, 3, 44, 0
9, 39819, Note_on_c, 3, 56, 0
9, 39840, Note_on_c, 3, 57, 84
9, 39840, Note_on_c, 3, 45, 84
9, 39910, Control_c, 3, 11, 71
9, 40020, Control_c, 3, 11, 72
9, 40130, Control_c, 3, 11, 73
9, 40240, Control_c, 3, 11, 75
9, 40350, Control_c, 3, 11, 76
9, 40460, Control_c, 3, 11, 77
9, 40570, Control_c, 3, 11, 78
9, 40680, Control_c, 3, 11, 80
9, 40779, Note_on_c, 3, 57, 0
9, 40779, Note_on_c, 3, 45, 0
9, 40790, Control_c, 3, 11, 81
9, 40800, Note_on_c, 3, 46, 84
9, 40800, Note_on_c, 3, 58, 84
9, 40900, Control_c, 3, 11, 82
9, 41010, Control_c, 3, 11, 84
9, 41120, Control_c, 3, 11, 85
9, 41230, Control_c, 3, 11, 86
9, 41340, Control_c, 3, 11, 88
9, 41450, Control_c, 3, 11, 89
9, 41560, Control_c, 3, 11, 90
9, 41670, Control_c, 3, 11, 92
9, 41739, Note_on_c, 3, 46, 0
9, 41739, Note_on_c, 3, 58, 0
9, 41760, Note_on_c, 3, 59, 84
9, 41760, Note_on_c, 3, 47, 84
9, 41780, Control_c, 3, 11, 93
9, 41890, Control_c, 3, 11, 94
9, 42000, Control_c, 3, 11, 96
9, 42110, Control_c, 3, 11, 97
9, 42220, Control_c, 3, 11, 98
9, 42330, Control_c, 3, 11, 99
9, 42440, Control_c, 3, 11, 101
9, 42550, Control_c, 3, 11, 102
9, 42660, Control_c, 3, 11, 103
9, 42699, Note_on_c, 3, 59, 0
9, 42699, Note_on_c, 3, 47, 0
9, 42720, Note_on_c, 3, 48, 84
9, 42720, Note_on_c, 3, 60, 84
9, 42770, Control_c, 3, 11, 105
9, 42880, Control_c, 3, 11, 106
9, 42990, Control_c, 3, 11, 107
9, 43100, Control_c, 3, 11, 109
9, 43210, Control_c, 3, 11, 110
9, 43320, Control_c, 3, 11, 111
9, 43430, Control_c, 3, 11, 113
9, 43540, Control_c, 3, 11, 114
9, 43650, Control_c, 3, 11, 115
9, 43760, Control_c, 3, 11, 117
9, 43870, Control_c, 3, 11, 118
9, 43899, Note_on_c, 3, 48, 0
9, 43899, Note_on_c, 3, 60, 0
9, 43920, Note_on_c, 3, 48, 84
9, 43920, Note_on_c, 3, 60, 84
9, 43980, Control_c, 3, 11, 119
9, 44090, Control_c, 3, 11, 120
9, 44139, Note_on_c, 3, 48, 0
9, 44139, Note_on_c, 3, 60, 0
9, 44160, Note_on_c, 3, 48, 84
9, 44160, Note_on_c, 3, 60, 84
9, 44200, Control_c, 3, 11, 122
9, 44310, Control_c, 3, 11, 123
9, 44379, Note_on_c, 3, 48, 0
9, 44379, Note_on_c, 3, 60, 0
9, 44400, Note_on_c, 3, 48, 84
9, 44400, Note_on_c, 3, 60, 84
9, 44420, Control_c, 3, 11, 124
9, 44530, Control_c, 3, 11, 127
9, 44619, Note_on_c, 3, 48, 0
9, 44619, Note_on_c, 3, 60, 0
9, 44640, Note_on_c, 3, 50, 84
9, 44640, Note_on_c, 3, 62, 84
9, 45339, Note_on_c, 3, 50, 0
9, 45339, Note_on_c, 3, 62, 0
9, 45360, Note_on_c, 3, 50, 84
9, 45360, Note_on_c, 3, 53, 84
9, 45579, Note_on_c, 3, 50, 0
9, 45579, Note_on_c, 3, 53, 0
9, 45600, Note_on_c, 3, 55, 84
9, 45600, Note_on_c, 3, 51, 84
9, 45839, Note_on_c, 3, 55, 0
9, 45839, Note_on_c, 3, 51, 0
9, 46080, Note_on_c, 3, 56, 84
9, 46080, Note_on_c, 3, 53, 84
9, 46319, Note_on_c, 3, 56, 0
9, 46319, Note_on_c, 3, 53, 0
9, 46560, Note_on_c, 3, 55, 84
9, 46560, Note_on_c, 3, 58, 84
9, 46799, Note_on_c, 3, 55, 0
9, 46799, Note_on_c, 3, 58, 0
9, 47040, Note_on_c, 3, 56, 84
9, 47040, Note_on_c, 3, 60, 84
9, 47279, Note_on_c, 3, 56, 0
9, 47279, Note_on_c, 3, 60, 0
9, 47520, Note_on_c, 3, 58, 84
9, 47759, Note_on_c, 3, 58, 0
9, 48000, Note_on_c, 3, 46, 84
9, 48239, Note_on_c, 3, 46, 0
9, 48480, Note_on_c, 3, 65, 84
9, 48480, Note_on_c, 3, 68, 84
9, 49179, Note_on_c, 3, 65, 0
9, 49179, Note_on_c, 3, 68, 0
9, 49200, Note_on_c, 3, 65, 84
9, 49200, Note_on_c, 3, 58, 84
9, 49419, Note_on_c, 3, 65, 0
9, 49419, Note_on_c, 3, 58, 0
9, 49440, Note_on_c, 3, 67, 84
9, 49440, Note_on_c, 3, 63, 84
9, 49659, Note_on_c, 3, 67, 0
9, 49659, Note_on_c, 3, 63, 0
9, 49680, Note_on_c, 3, 67, 84
9, 49680, Note_on_c, 3, 63, 84
9, 49919, Note_on_c, 3, 67, 0
9, 49919, Note_on_c, 3, 63, 0
9, 50160, Note_on_c, 3, 65, 84
9, 50160, Note_on_c, 3, 58, 84
9, 50399, Note_on_c, 3, 65, 0
9, 50399, Note_on_c, 3, 58, 0
9, 50640, Note_on_c, 3, 58, 84
9, 50640, Note_on_c, 3, 63, 84
9, 50879, Note_on_c, 3, 58, 0
9, 50879, Note_on_c, 3, 63, 0
9, 51120, Note_on_c, 3, 56, 84
9, 51120, Note_on_c, 3, 60, 84
9, 51359, Note_on_c, 3, 56, 0
9, 51359, Note_on_c, 3, 60, 0
9, 51600, Note_on_c, 3, 58, 84
9, 51600, Note_on_c, 3, 55, 84
9, 51839, Note_on_c, 3, 58, 0
9, 51839, Note_on_c, 3, 55, 0
9, 52080, Note_on_c, 3, 58, 84
9, 52080, Note_on_c, 3, 46, 84
9, 52299, Note_on_c, 3, 58, 0
9, 52299, Note_on_c, 3, 46, 0
9, 52320, Note_on_c, 3, 63, 84
9, 52320, Note_on_c, 3, 51, 84
9, 52419, Note_on_c, 3, 63, 0
9, 52419, Note_on_c, 3, 51, 0
9, 52440, Note_on_c, 3, 67, 84
9, 52539, Note_on_c, 3, 67, 0
9, 52560, Note_on_c, 3, 67, 84
9, 52659, Note_on_c, 3, 67, 0
9, 52680, Note_on_c, 3, 67, 84
9, 52779, Note_on_c, 3, 67, 0
9, 52800, Note_on_c, 3, 63, 84
9, 52899, Note_on_c, 3, 63, 0
9, 52920, Note_on_c, 3, 58, 84
9, 53019, Note_on_c, 3, 58, 0
9, 53040, Note_on_c, 3, 58, 84
9, 53139, Note_on_c, 3, 58, 0
9, 53160, Note_on_c, 3, 58, 84
9, 53259, Note_on_c, 3, 58, 0
9, 53280, Note_on_c, 3, 55, 84
9, 53379, Note_on_c, 3, 55, 0
9, 53400, Note_on_c, 3, 51, 84
9, 53499, Note_on_c, 3, 51, 0
9, 53520, Note_on_c, 3, 51, 84
9, 53619, Note_on_c, 3, 51, 0
9, 53640, Note_on_c, 3, 51, 84
9, 53739, Note_on_c, 3, 51, 0
9, 53760, Note_on_c, 3, 46, 84
9, 54339, Note_on_c, 3, 46, 0
9, 54360, Note_on_c, 3, 67, 84
9, 54459, Note_on_c, 3, 67, 0
9, 54480, Note_on_c, 3, 67, 84
9, 54579, Note_on_c, 3, 67, 0
9, 54600, Note_on_c, 3, 67, 84
9, 54699, Note_on_c, 3, 67, 0
9, 54720, Note_on_c, 3, 63, 84
9, 54819, Note_on_c, 3, 63, 0
9, 54840, Note_on_c, 3, 58, 84
9, 54939, Note_on_c, 3, 58, 0
9, 54960, Note_on_c, 3, 58, 84
9, 55059, Note_on_c, 3, 58, 0
9, 55080, Note_on_c, 3, 58, 84
9, 55179, Note_on_c, 3, 58, 0
9, 55200, Note_on_c, 3, 55, 84
9, 55299, Note_on_c, 3, 55, 0
9, 55320, Note_on_c, 3, 51, 84
9, 55419, Note_on_c, 3, 51, 0
9, 55440, Note_on_c, 3, 51, 84
9, 55539, Note_on_c, 3, 51, 0
9, 55560, Note_on_c, 3, 51, 84
9, 55659, Note_on_c, 3, 51, 0
9, 55680, Note_on_c, 3, 46, 84
9, 56399, Note_on_c, 3, 46, 0
9, 56760, Note_on_c, 3, 62, 84
9, 56760, Note_on_c, 3, 58, 84
9, 56859, Note_on_c, 3, 62, 0
9, 56859, Note_on_c, 3, 58, 0
9, 56880, Note_on_c, 3, 62, 84
9, 56880, Note_on_c, 3, 58, 84
9, 56979, Note_on_c, 3, 62, 0
9, 56979, Note_on_c, 3, 58, 0
9, 57000, Note_on_c, 3, 62, 84
9, 57000, Note_on_c, 3, 58, 84
9, 57099, Note_on_c, 3, 62, 0
9, 57099, Note_on_c, 3, 58, 0
9, 57120, Note_on_c, 3, 63, 84
9, 57120, Note_on_c, 3, 58, 84
9, 57359, Note_on_c, 3, 63, 0
9, 57359, Note_on_c, 3, 58, 0
9, 57720, Note_on_c, 3, 46, 84
9, 57819, Note_on_c, 3, 46, 0
9, 57840, Note_on_c, 3, 46, 84
9, 57939, Note_on_c, 3, 46, 0
9, 57960, Note_on_c, 3, 46, 84
9, 58059, Note_on_c, 3, 46, 0
9, 58080, Note_on_c, 3, 51, 84
9, 58319, Note_on_c, 3, 51, 0
9, 62400, Note_on_c, 3, 60, 52
9, 64299, Note_on_c, 3, 60, 0
9, 64320, Note_on_c, 3, 59, 52
9, 66219, Note_on_c, 3, 59, 0
9, 66240, Note_on_c, 3, 60, 52
9, 66699, Note_on_c, 3, 60, 0
9, 66720, Note_on_c, 3, 59, 52
9, 67179, Note_on_c, 3, 59, 0
9, 67200, Note_on_c, 3, 60, 52
9, 67659, Note_on_c, 3, 60, 0
9, 67680, Note_on_c, 3, 59, 52
9, 67779, Note_on_c, 3, 59, 0
9, 67800, Note_on_c, 3, 59, 58
9, 67899, Note_on_c, 3, 59, 0
9, 67920, Note_on_c, 3, 59, 64
9, 68019, Note_on_c, 3, 59, 0
9, 68040, Note_on_c, 3, 59, 70
9, 68139, Note_on_c, 3, 59, 0
9, 68160, Note_on_c, 3, 60, 76
9, 68399, Note_on_c, 3, 60, 0
9, 68640, Note_on_c, 3, 44, 76
9, 68879, Note_on_c, 3, 44, 0
9, 69120, Note_on_c, 3, 43, 76
9, 69359, Note_on_c, 3, 43, 0
9, 69720, Note_on_c, 3, 44, 84
9, 69819, Note_on_c, 3, 44, 0
9, 69840, Note_on_c, 3, 44, 84
9, 69939, Note_on_c, 3, 44, 0
9, 69960, Note_on_c, 3, 44, 84
9, 70059, Note_on_c, 3, 44, 0
9, 70080, Note_on_c, 3, 41, 84
9, 71039, Note_on_c, 3, 41, 0
9, 76240, Control_c, 3, 11, 102
9, 76320, Control_c, 3, 11, 104
9, 76320, Note_on_c, 3, 67, 68
9, 76320, Note_on_c, 3, 63, 68
9, 76400, Control_c, 3, 11, 105
9, 76480, Control_c, 3, 11, 107
9, 76560, Control_c, 3, 11, 109
9, 76640, Control_c, 3, 11, 111
9, 76720, Control_c, 3, 11, 113
9, 76800, Control_c, 3, 11, 115
9, 76880, Control_c, 3, 11, 117
9, 76960, Control_c, 3, 11, 119
9, 77039, Note_on_c, 3, 67, 0
9, 77039, Note_on_c, 3, 63, 0
9, 77040, Control_c, 3, 11, 121
9, 77120, Control_c, 3, 11, 123
9, 77200, Control_c, 3, 11, 127
9, 77280, Note_on_c, 3, 59, 76
9, 77519, Note_on_c, 3, 59, 0
9, 77760, Note_on_c, 3, 48, 76
9, 77760, Note_on_c, 3, 58, 76
9, 77999, Note_on_c, 3, 48, 0
9, 77999, Note_on_c, 3, 58, 0
9, 78240, Note_on_c, 3, 56, 76
9, 78240, Note_on_c, 3, 48, 76
9, 78479, Note_on_c, 3, 56, 0
9, 78479, Note_on_c, 3, 48, 0
9, 78720, Note_on_c, 3, 52, 76
9, 78720, Note_on_c, 3, 48, 76
9, 78959, Note_on_c, 3, 52, 0
9, 78959, Note_on_c, 3, 48, 0
9, 79200, Note_on_c, 3, 53, 76
9, 79200, Note_on_c, 3, 48, 76
9, 79439, Note_on_c, 3, 53, 0
9, 79439, Note_on_c, 3, 48, 0
9, 79680, Note_on_c, 3, 60, 76
9, 79680, Note_on_c, 3, 48, 76
9, 79919, Note_on_c, 3, 60, 0
9, 79919, Note_on_c, 3, 48, 0
9, 80160, Note_on_c, 3, 48, 76
9, 80160, Note_on_c, 3, 51, 76
9, 82059, Note_on_c, 3, 48, 0
9, 82059, Note_on_c, 3, 51, 0
9, 82080, Note_on_c, 3, 50, 76
9, 82080, Note_on_c, 3, 47, 76
9, 83739, Note_on_c, 3, 50, 0
9, 83739, Note_on_c, 3, 47, 0
9, 83760, Note_on_c, 3, 48, 76
9, 83760, Note_on_c, 3, 51, 76
9, 83979, Note_on_c, 3, 48, 0
9, 83979, Note_on_c, 3, 51, 0
9, 84000, Note_on_c, 3, 57, 84
9, 84000, Note_on_c, 3, 51, 84
9, 85899, Note_on_c, 3, 57, 0
9, 85899, Note_on_c, 3, 51, 0
9, 85920, Note_on_c, 3, 57, 84
9, 85920, Note_on_c, 3, 51, 84
9, 86159, Note_on_c, 3, 57, 0
9, 86159, Note_on_c, 3, 51, 0
9, 86880, Note_on_c, 3, 53, 84
9, 86880, Note_on_c, 3, 50, 84
9, 87119, Note_on_c, 3, 53, 0
9, 87119, Note_on_c, 3, 50, 0
9, 91200, Note_on_c, 3, 55, 52
9, 91200, Note_on_c, 3, 58, 52
9, 91679, Note_on_c, 3, 55, 0
9, 91679, Note_on_c, 3, 58, 0
9, 91680, Note_on_c, 3, 56, 52
9, 91680, Note_on_c, 3, 53, 52
9, 92139, Note_on_c, 3, 56, 0
9, 92139, Note_on_c, 3, 53, 0
9, 92160, Note_on_c, 3, 46, 52
9, 92160, Note_on_c, 3, 53, 52
9, 92639, Note_on_c, 3, 46, 0
9, 92639, Note_on_c, 3, 53, 0
9, 92640, Note_on_c, 3, 55, 52
9, 92640, Note_on_c, 3, 51, 52
9, 93099, Note_on_c, 3, 55, 0
9, 93099, Note_on_c, 3, 51, 0
9, 93120, Note_on_c, 3, 58, 52
9, 93120, Note_on_c, 3, 55, 52
9, 93599, Note_on_c, 3, 58, 0
9, 93599, Note_on_c, 3, 55, 0
9, 93600, Note_on_c, 3, 53, 52
9, 93600, Note_on_c, 3, 56, 52
9, 94059, Note_on_c, 3, 53, 0
9, 94059, Note_on_c, 3, 56, 0
9, 94080, Note_on_c, 3, 46, 52
9, 94080, Note_on_c, 3, 53, 52
9, 94559, Note_on_c, 3, 46, 0
9, 94559, Note_on_c, 3, 53, 0
9, 94560, Note_on_c, 3, 55, 52
9, 94560, Note_on_c, 3, 51, 52
9, 95019, Note_on_c, 3, 55, 0
9, 95019, Note_on_c, 3, 51, 0
9, 95040, Note_on_c, 3, 58, 52
9, 95040, Note_on_c, 3, 55, 52
9, 95519, Note_on_c, 3, 58, 0
9, 95519, Note_on_c, 3, 55, 0
9, 95520, Note_on_c, 3, 52, 52
9, 95520, Note_on_c, 3, 55, 52
9, 95979, Note_on_c, 3, 52, 0
9, 95979, Note_on_c, 3, 55, 0
9, 96000, Note_on_c, 3, 52, 52
9, 96000, Note_on_c, 3, 48, 52
9, 96479, Note_on_c, 3, 52, 0
9, 96479, Note_on_c, 3, 48, 0
9, 96480, Note_on_c, 3, 53, 52
9, 96480, Note_on_c, 3, 56, 52
9, 96939, Note_on_c, 3, 53, 0
9, 96939, Note_on_c, 3, 56, 0
9, 96960, Note_on_c, 3, 61, 52
9, 96960, Note_on_c, 3, 56, 52
9, 97439, Note_on_c, 3, 61, 0
9, 97439, Note_on_c, 3, 56, 0
9, 97440, Note_on_c, 3, 55, 52
9, 97440, Note_on_c, 3, 58, 52
9, 97899, Note_on_c, 3, 55, 0
9, 97899, Note_on_c, 3, 58, 0
9, 97920, Note_on_c, 3, 55, 52
9, 97920, Note_on_c, 3, 51, 52
9, 98399, Note_on_c, 3, 55, 0
9, 98399, Note_on_c, 3, 51, 0
9, 98400, Note_on_c, 3, 56, 52
9, 98400, Note_on_c, 3, 60, 52
9, 98859, Note_on_c, 3, 56, 0
9, 98859, Note_on_c, 3, 60, 0
9, 98878, Control_c, 3, 11, 64
9, 98880, Control_c, 3, 11, 64
9, 98880, Note_on_c, 3, 44, 84
9, 98880, Note_on_c, 3, 56, 84
9, 98990, Control_c, 3, 11, 65
9, 99100, Control_c, 3, 11, 67
9, 99210, Control_c, 3, 11, 68
9, 99320, Control_c, 3, 11, 69
9, 99339, Note_on_c, 3, 44, 0
9, 99339, Note_on_c, 3, 56, 0
9, 99360, Note_on_c, 3, 57, 84
9, 99360, Note_on_c, 3, 45, 84
9, 99430, Control_c, 3, 11, 71
9, 99540, Control_c, 3, 11, 72
9, 99650, Control_c, 3, 11, 73
9, 99760, Control_c, 3, 11, 75
9, 99870, Control_c, 3, 11, 76
9, 99980, Control_c, 3, 11, 77
9, 100090, Control_c, 3, 11, 78
9, 100200, Control_c, 3, 11, 80
9, 100299, Note_on_c, 3, 57, 0
9, 100299, Note_on_c, 3, 45, 0
9, 100310, Control_c, 3, 11, 81
9, 100320, Note_on_c, 3, 46, 84
9, 100320, Note_on_c, 3, 58, 84
9, 100420, Control_c, 3, 11, 82
9, 100530, Control_c, 3, 11, 84
9, 100640, Control_c, 3, 11, 85
9, 100750, Control_c, 3, 11, 86
9, 100860, Control_c, 3, 11, 88
9, 100970, Control_c, 3, 11, 89
9, 101080, Control_c, 3, 11, 90
9, 101190, Control_c, 3, 11, 92
9, 101259, Note_on_c, 3, 46, 0
9, 101259, Note_on_c, 3, 58, 0
9, 101280, Note_on_c, 3, 47, 84
9, 101280, Note_on_c, 3, 59, 84
9, 101300, Control_c, 3, 11, 93
9, 101410, Control_c, 3, 11, 94
9, 101520, Control_c, 3, 11, 96
9, 101630, Control_c, 3, 11, 97
9, 101740, Control_c, 3, 11, 98
9, 101850, Control_c, 3, 11, 99
9, 101960, Control_c, 3, 11, 101
9, 102070, Control_c, 3, 11, 102
9, 102180, Control_c, 3, 11, 103
9, 102219, Note_on_c, 3, 47, 0
9, 102219, Note_on_c, 3, 59, 0
9, 102240, Note_on_c, 3, 48, 84
9, 102240, Note_on_c, 3, 60, 84
9, 102290, Control_c, 3, 11, 105
9, 102400, Control_c, 3, 11, 106
9, 102510, Control_c, 3, 11, 107
9, 102620, Control_c, 3, 11, 109
9, 102730, Control_c, 3, 11, 110
9, 102840, Control_c, 3, 11, 111
9, 102950, Control_c, 3, 11, 113
9, 103060, Control_c, 3, 11, 114
9, 103170, Control_c, 3, 11, 115
9, 103280, Control_c, 3, 11, 117
9, 103390, Control_c, 3, 11, 118
9, 103419, Note_on_c, 3, 48, 0
9, 103419, Note_on_c, 3, 60, 0
9, 103440, Note_on_c, 3, 48, 84
9, 103440, Note_on_c, 3, 60, 84
9, 103500, Control_c, 3, 11, 119
9, 103610, Control_c, 3, 11, 120
9, 103659, Note_on_c, 3, 48, 0
9, 103659, Note_on_c, 3, 60, 0
9, 103680, Note_on_c, 3, 60, 84
9, 103680, Note_on_c, 3, 48, 84
9, 103720, Control_c, 3, 11, 122
9, 103830, Control_c, 3, 11, 123
9, 103899, Note_on_c, 3, 60, 0
9, 103899, Note_on_c, 3, 48, 0
9, 103920, Note_on_c, 3, 60, 84
9, 103920, Note_on_c, 3, 48, 84
9, 103940, Control_c, 3, 11, 124
9, 104050, Control_c, 3, 11, 127
9, 104139, Note_on_c, 3, 60, 0
9, 104139, Note_on_c, 3, 48, 0
9, 104160, Note_on_c, 3, 62, 84
9, 104160, Note_on_c, 3, 50, 84
9, 104859, Note_on_c, 3, 62, 0
9, 104859, Note_on_c, 3, 50, 0
9, 104880, Note_on_c, 3, 53, 84
9, 104880, Note_on_c, 3, 50, 84
9, 105099, Note_on_c, 3, 53, 0
9, 105099, Note_on_c, 3, 50, 0
9, 105120, Note_on_c, 3, 51, 84
9, 105120, Note_on_c, 3, 55, 84
9, 105359, Note_on_c, 3, 51, 0
9, 105359, Note_on_c, 3, 55, 0
9, 105600, Note_on_c, 3, 56, 84
9, 105600, Note_on_c, 3, 53, 84
9, 105839, Note_on_c, 3, 56, 0
9, 105839, Note_on_c, 3, 53, 0
9, 106080, Note_on_c, 3, 55, 84
9, 106080, Note_on_c, 3, 58, 84
9, 106319, Note_on_c, 3, 55, 0
9, 106319, Note_on_c, 3, 58, 0
9, 106560, Note_on_c, 3, 60, 84
9, 106560, Note_on_c, 3, 56, 84
9, 106799, Note_on_c, 3, 60, 0
9, 106799, Note_on_c, 3, 56, 0
9, 107040, Note_on_c, 3, 58, 84
9, 107279, Note_on_c, 3, 58, 0
9, 107520, Note_on_c, 3, 46, 84
9, 107759, Note_on_c, 3, 46, 0
9, 108000, Note_on_c, 3, 68, 84
9, 108000, Note_on_c, 3, 65, 84
9, 108699, Note_on_c, 3, 68, 0
9, 108699, Note_on_c, 3, 65, 0
9, 108720, Note_on_c, 3, 65, 84
9, 108720, Note_on_c, 3, 58, 84
9, 108939, Note_on_c, 3, 65, 0
9, 108939, Note_on_c, 3, 58, 0
9, 108960, Note_on_c, 3, 67, 84
9, 108960, Note_on_c, 3, 63, 84
9, 109179, Note_on_c, 3, 67, 0
9, 109179, Note_on_c, 3, 63, 0
9, 109200, Note_on_c, 3, 67, 84
9, 109200, Note_on_c, 3, 63, 84
9, 109439, Note_on_c, 3, 67, 0
9, 109439, Note_on_c, 3, 63, 0
9, 109680, Note_on_c, 3, 65, 84
9, 109680, Note_on_c, 3, 58, 84
9, 109919, Note_on_c, 3, 65, 0
9, 109919, Note_on_c, 3, 58, 0
9, 110160, Note_on_c, 3, 58, 84
9, 110160, Note_on_c, 3, 63, 84
9, 110399, Note_on_c, 3, 58, 0
9, 110399, Note_on_c, 3, 63, 0
9, 110640, Note_on_c, 3, 56, 84
9, 110640, Note_on_c, 3, 60, 84
9, 110879, Note_on_c, 3, 56, 0
9, 110879, Note_on_c, 3, 60, 0
9, 111120, Note_on_c, 3, 55, 84
9, 111120, Note_on_c, 3, 58, 84
9, 111359, Note_on_c, 3, 55, 0
9, 111359, Note_on_c, 3, 58, 0
9, 111600, Note_on_c, 3, 58, 84
9, 111600, Note_on_c, 3, 46, 84
9, 111819, Note_on_c, 3, 58, 0
9, 111819, Note_on_c, 3, 46, 0
9, 111840, Note_on_c, 3, 51, 84
9, 111840, Note_on_c, 3, 63, 84
9, 111939, Note_on_c, 3, 51, 0
9, 111939, Note_on_c, 3, 63, 0
9, 111960, Note_on_c, 3, 67, 84
9, 112059, Note_on_c, 3, 67, 0
9, 112080, Note_on_c, 3, 67, 84
9, 112179, Note_on_c, 3, 67, 0
9, 112200, Note_on_c, 3, 67, 84
9, 112299, Note_on_c, 3, 67, 0
9, 112320, Note_on_c, 3, 63, 84
9, 112419, Note_on_c, 3, 63, 0
9, 112440, Note_on_c, 3, 58, 84
9, 112539, Note_on_c, 3, 58, 0
9, 112560, Note_on_c, 3, 58, 84
9, 112659, Note_on_c, 3, 58, 0
9, 112680, Note_on_c, 3, 58, 84
9, 112779, Note_on_c, 3, 58, 0
9, 112800, Note_on_c, 3, 55, 84
9, 112899, Note_on_c, 3, 55, 0
9, 112920, Note_on_c, 3, 51, 84
9, 113019, Note_on_c, 3, 51, 0
9, 113040, Note_on_c, 3, 51, 84
9, 113139, Note_on_c, 3, 51, 0
9, 113160, Note_on_c, 3, 51, 84
9, 113259, Note_on_c, 3, 51, 0
9, 113280, Note_on_c, 3, 46, 84
9, 113859, Note_on_c, 3, 46, 0
9, 113880, Note_on_c, 3, 67, 84
9, 113979, Note_on_c, 3, 67, 0
9, 114000, Note_on_c, 3, 67, 84
9, 114099, Note_on_c, 3, 67, 0
9, 114120, Note_on_c, 3, 67, 84
9, 114219, Note_on_c, 3, 67, 0
9, 114240, Note_on_c, 3, 63, 84
9, 114339, Note_on_c, 3, 63, 0
9, 114360, Note_on_c, 3, 58, 84
9, 114459, Note_on_c, 3, 58, 0
9, 114480, Note_on_c, 3, 58, 84
9, 114579, Note_on_c, 3, 58, 0
9, 114600, Note_on_c, 3, 58, 84
9, 114699, Note_on_c, 3, 58, 0
9, 114720, Note_on_c, 3, 55, 84
9, 114819, Note_on_c, 3, 55, 0
9, 114840, Note_on_c, 3, 51, 84
9, 114939, Note_on_c, 3, 51, 0
9, 114960, Note_on_c, 3, 51, 84
9, 115059, Note_on_c, 3, 51, 0
9, 115080, Note_on_c, 3, 51, 84
9, 115179, Note_on_c, 3, 51, 0
9, 115200, Note_on_c, 3, 46, 84
9, 115919, Note_on_c, 3, 46, 0
9, 116280, Note_on_c, 3, 62, 84
9, 116280, Note_on_c, 3, 58, 84
9, 116379, Note_on_c, 3, 62, 0
9, 116379, Note_on_c, 3, 58, 0
9, 116400, Note_on_c, 3, 62, 84
9, 116400, Note_on_c, 3, 58, 84
9, 116499, Note_on_c, 3, 62, 0
9, 116499, Note_on_c, 3, 58, 0
9, 116520, Note_on_c, 3, 62, 84
9, 116520, Note_on_c, 3, 58, 84
9, 116619, Note_on_c, 3, 62, 0
9, 116619, Note_on_c, 3, 58, 0
9, 116640, Note_on_c, 3, 63, 84
9, 116640, Note_on_c, 3, 58, 84
9, 116879, Note_on_c, 3, 63, 0
9, 116879, Note_on_c, 3, 58, 0
9, 117240, Note_on_c, 3, 46, 84
9, 117339, Note_on_c, 3, 46, 0
9, 117360, Note_on_c, 3, 46, 84
9, 117459, Note_on_c, 3, 46, 0
9, 117480, Note_on_c, 3, 46, 84
9, 117579, Note_on_c, 3, 46, 0
9, 117600, Note_on_c, 3, 51, 84
9, 117839, Note_on_c, 3, 51, 0
9, 119520, Note_on_c, 3, 67, 84
9, 120959, Note_on_c, 3, 67, 0
9, 121440, Note_on_c, 3, 53, 52
9, 121440, Note_on_c, 3, 65, 52
9, 123339, Note_on_c, 3, 53, 0
9, 123339, Note_on_c, 3, 65, 0
9, 123360, Note_on_c, 3, 64, 52
9, 123360, Note_on_c, 3, 52, 52
9, 125259, Note_on_c, 3, 64, 0
9, 125259, Note_on_c, 3, 52, 0
9, 125280, Note_on_c, 3, 53, 52
9, 125280, Note_on_c, 3, 65, 52
9, 125759, Note_on_c, 3, 53, 0
9, 125759, Note_on_c, 3, 65, 0
9, 125760, Note_on_c, 3, 52, 52
9, 125760, Note_on_c, 3, 64, 52
9, 126239, Note_on_c, 3, 52, 0
9, 126239, Note_on_c, 3, 64, 0
9, 126240, Note_on_c, 3, 53, 52
9, 126240, Note_on_c, 3, 65, 52
9, 126719, Note_on_c, 3, 53, 0
9, 126719, Note_on_c, 3, 65, 0
9, 126720, Note_on_c, 3, 64, 52
9, 126720, Note_on_c, 3, 52, 52
9, 127199, Note_on_c, 3, 64, 0
9, 127199, Note_on_c, 3, 52, 0
9, 127200, Note_on_c, 3, 65, 52
9, 127200, Note_on_c, 3, 53, 52
9, 127439, Note_on_c, 3, 65, 0
9, 127439, Note_on_c, 3, 53, 0
9, 129120, Note_on_c, 3, 63, 52
9, 129120, Note_on_c, 3, 60, 52
9, 129599, Note_on_c, 3, 63, 0
9, 129599, Note_on_c, 3, 60, 0
9, 129600, Note_on_c, 3, 59, 52
9, 129600, Note_on_c, 3, 62, 52
9, 130079, Note_on_c, 3, 59, 0
9, 130079, Note_on_c, 3, 62, 0
9, 130080, Note_on_c, 3, 60, 52
9, 130080, Note_on_c, 3, 63, 52
9, 130559, Note_on_c, 3, 60, 0
9, 130559, Note_on_c, 3, 63, 0
9, 130560, Note_on_c, 3, 62, 52
9, 130560, Note_on_c, 3, 59, 52
9, 131039, Note_on_c, 3, 62, 0
9, 131039, Note_on_c, 3, 59, 0
9, 131040, Note_on_c, 3, 60, 52
9, 131040, Note_on_c, 3, 63, 52
9, 131279, Note_on_c, 3, 60, 0
9, 131279, Note_on_c, 3, 63, 0
9, 131640, Note_on_c, 3, 63, 58
9, 131739, Note_on_c, 3, 63, 0
9, 131760, Note_on_c, 3, 63, 60
9, 131859, Note_on_c, 3, 63, 0
9, 131880, Note_on_c, 3, 62, 61
9, 131979, Note_on_c, 3, 62, 0
9, 132000, Note_on_c, 3, 60, 62
9, 132099, Note_on_c, 3, 60, 0
9, 132120, Note_on_c, 3, 60, 64
9, 132219, Note_on_c, 3, 60, 0
9, 132240, Note_on_c, 3, 60, 65
9, 132339, Note_on_c, 3, 60, 0
9, 132360, Note_on_c, 3, 58, 66
9, 132459, Note_on_c, 3, 58, 0
9, 132480, Note_on_c, 3, 57, 52
9, 132579, Note_on_c, 3, 57, 0
9, 132600, Note_on_c, 3, 62, 52
9, 132600, Note_on_c, 3, 54, 52
9, 132699, Note_on_c, 3, 62, 0
9, 132699, Note_on_c, 3, 54, 0
9, 132720, Note_on_c, 3, 54, 52
9, 132720, Note_on_c, 3, 62, 52
9, 132819, Note_on_c, 3, 54, 0
9, 132819, Note_on_c, 3, 62, 0
9, 132840, Note_on_c, 3, 60, 52
9, 132840, Note_on_c, 3, 57, 52
9, 132939, Note_on_c, 3, 60, 0
9, 132939, Note_on_c, 3, 57, 0
9, 132960, Note_on_c, 3, 58, 52
9, 132960, Note_on_c, 3, 55, 52
9, 133419, Note_on_c, 3, 58, 0
9, 133419, Note_on_c, 3, 55, 0
9, 133440, Note_on_c, 3, 54, 52
9, 133440, Note_on_c, 3, 57, 52
9, 133539, Note_on_c, 3, 54, 0
9, 133539, Note_on_c, 3, 57, 0
9, 133560, Note_on_c, 3, 54, 52
9, 133560, Note_on_c, 3, 62, 52
9, 133659, Note_on_c, 3, 54, 0
9, 133659, Note_on_c, 3, 62, 0
9, 133680, Note_on_c, 3, 54, 52
9, 133680, Note_on_c, 3, 62, 52
9, 133779, Note_on_c, 3, 54, 0
9, 133779, Note_on_c, 3, 62, 0
9, 133800, Note_on_c, 3, 60, 52
9, 133800, Note_on_c, 3, 57, 52
9, 133899, Note_on_c, 3, 60, 0
9, 133899, Note_on_c, 3, 57, 0
9, 133920, Note_on_c, 3, 55, 52
9, 133920, Note_on_c, 3, 58, 52
9, 134379, Note_on_c, 3, 55, 0
9, 134379, Note_on_c, 3, 58, 0
9, 134400, Note_on_c, 3, 57, 52
9, 134400, Note_on_c, 3, 54, 52
9, 134859, Note_on_c, 3, 57, 0
9, 134859, Note_on_c, 3, 54, 0
9, 134880, Note_on_c, 3, 58, 52
9, 134880, Note_on_c, 3, 55, 52
9, 135119, Note_on_c, 3, 58, 0
9, 135119, Note_on_c, 3, 55, 0
9, 135360, Note_on_c, 3, 43, 52
9, 135459, Note_on_c, 3, 43, 0
9, 135480, Note_on_c, 3, 43, 52
9, 135480, Note_on_c, 3, 55, 52
9, 135579, Note_on_c, 3, 43, 0
9, 135579, Note_on_c, 3, 55, 0
9, 135600, Note_on_c, 3, 43, 52
9, 135600, Note_on_c, 3, 57, 52
9, 135699, Note_on_c, 3, 43, 0
9, 135699, Note_on_c, 3, 57, 0
9, 135720, Note_on_c, 3, 43, 52
9, 135720, Note_on_c, 3, 58, 52
9, 135819, Note_on_c, 3, 43, 0
9, 135819, Note_on_c, 3, 58, 0
9, 135840, Note_on_c, 3, 45, 52
9, 135840, Note_on_c, 3, 60, 52
9, 136079, Note_on_c, 3, 60, 0
9, 136319, Note_on_c, 3, 45, 0
9, 136320, Note_on_c, 3, 45, 52
9, 136419, Note_on_c, 3, 45, 0
9, 136440, Note_on_c, 3, 45, 52
9, 136440, Note_on_c, 3, 54, 52
9, 136539, Note_on_c, 3, 45, 0
9, 136539, Note_on_c, 3, 54, 0
9, 136560, Note_on_c, 3, 45, 52
9, 136560, Note_on_c, 3, 57, 52
9, 136659, Note_on_c, 3, 45, 0
9, 136659, Note_on_c, 3, 57, 0
9, 136680, Note_on_c, 3, 58, 52
9, 136680, Note_on_c, 3, 45, 52
9, 136779, Note_on_c, 3, 58, 0
9, 136779, Note_on_c, 3, 45, 0
9, 136800, Note_on_c, 3, 45, 52
9, 136800, Note_on_c, 3, 60, 52
9, 137039, Note_on_c, 3, 60, 0
9, 137279, Note_on_c, 3, 45, 0
9, 137280, Note_on_c, 3, 45, 52
9, 137379, Note_on_c, 3, 45, 0
9, 137400, Note_on_c, 3, 57, 52
9, 137400, Note_on_c, 3, 45, 52
9, 137499, Note_on_c, 3, 57, 0
9, 137499, Note_on_c, 3, 45, 0
9, 137520, Note_on_c, 3, 45, 52
9, 137520, Note_on_c, 3, 58, 52
9, 137619, Note_on_c, 3, 45, 0
9, 137619, Note_on_c, 3, 58, 0
9, 137640, Note_on_c, 3, 60, 52
9, 137640, Note_on_c, 3, 45, 52
9, 137739, Note_on_c, 3, 60, 0
9, 137739, Note_on_c, 3, 45, 0
9, 137760, Note_on_c, 3, 62, 52
9, 137760, Note_on_c, 3, 46, 52
9, 137999, Note_on_c, 3, 62, 0
9, 138239, Note_on_c, 3, 46, 0
9, 138240, Note_on_c, 3, 46, 52
9, 138339, Note_on_c, 3, 46, 0
9, 138360, Note_on_c, 3, 55, 52
9, 138360, Note_on_c, 3, 46, 52
9, 138459, Note_on_c, 3, 55, 0
9, 138459, Note_on_c, 3, 46, 0
9, 138480, Note_on_c, 3, 58, 52
9, 138480, Note_on_c, 3, 46, 52
9, 138579, Note_on_c, 3, 58, 0
9, 138579, Note_on_c, 3, 46, 0
9, 138600, Note_on_c, 3, 46, 52
9, 138600, Note_on_c, 3, 60, 52
9, 138699, Note_on_c, 3, 46, 0
9, 138699, Note_on_c, 3, 60, 0
9, 138720, Note_on_c, 3, 46, 52
9, 138720, Note_on_c, 3, 62, 52
9, 138959, Note_on_c, 3, 62, 0
9, 139199, Note_on_c, 3, 46, 0
9, 139320, Note_on_c, 3, 58, 67
9, 139320, Note_on_c, 3, 55, 67
9, 139419, Note_on_c, 3, 58, 0
9, 139419, Note_on_c, 3, 55, 0
9, 139440, Note_on_c, 3, 60, 70
9, 139440, Note_on_c, 3, 57, 70
9, 139539, Note_on_c, 3, 60, 0
9, 139539, Note_on_c, 3, 57, 0
9, 139560, Note_on_c, 3, 62, 73
9, 139560, Note_on_c, 3, 58, 73
9, 139659, Note_on_c, 3, 62, 0
9, 139659, Note_on_c, 3, 58, 0
9, 139680, Note_on_c, 3, 54, 76
9, 139680, Note_on_c, 3, 57, 76
9, 140619, Note_on_c, 3, 54, 0
9, 140619, Note_on_c, 3, 57, 0
9, 140640, Note_on_c, 3, 57, 76
9, 140640, Note_on_c, 3, 54, 76
9, 140879, Note_on_c, 3, 57, 0
9, 140879, Note_on_c, 3, 54, 0
9, 141240, Note_on_c, 3, 61, 76
9, 141240, Note_on_c, 3, 49, 76
9, 141339, Note_on_c, 3, 61, 0
9, 141339, Note_on_c, 3, 49, 0
9, 141360, Note_on_c, 3, 49, 76
9, 141360, Note_on_c, 3, 61, 76
9, 141459, Note_on_c, 3, 49, 0
9, 141459, Note_on_c, 3, 61, 0
9, 141480, Note_on_c, 3, 61, 76
9, 141480, Note_on_c, 3, 49, 76
9, 141579, Note_on_c, 3, 61, 0
9, 141579, Note_on_c, 3, 49, 0
9, 141600, Note_on_c, 3, 61, 76
9, 141600, Note_on_c, 3, 49, 76
9, 142539, Note_on_c, 3, 61, 0
9, 142539, Note_on_c, 3, 49, 0
9, 142560, Note_on_c, 3, 61, 76
9, 142560, Note_on_c, 3, 49, 76
9, 142799, Note_on_c, 3, 61, 0
9, 142799, Note_on_c, 3, 49, 0
9, 143160, Note_on_c, 3, 62, 80
9, 143160, Note_on_c, 3, 50, 80
9, 143259, Note_on_c, 3, 62, 0
9, 143259, Note_on_c, 3, 50, 0
9, 143280, Note_on_c, 3, 62, 80
9, 143280, Note_on_c, 3, 50, 80
9, 143379, Note_on_c, 3, 62, 0
9, 143379, Note_on_c, 3, 50, 0
9, 143400, Note_on_c, 3, 62, 80
9, 143400, Note_on_c, 3, 50, 80
9, 143499, Note_on_c, 3, 62, 0
9, 143499, Note_on_c, 3, 50, 0
9, 143520, Note_on_c, 3, 62, 80
9, 143520, Note_on_c, 3, 50, 80
9, 143759, Note_on_c, 3, 62, 0
9, 143759, Note_on_c, 3, 50, 0
9, 144240, Note_on_c, 3, 64, 80
9, 144240, Note_on_c, 3, 52, 80
9, 144339, Note_on_c, 3, 64, 0
9, 144339, Note_on_c, 3, 52, 0
9, 144360, Note_on_c, 3, 64, 80
9, 144360, Note_on_c, 3, 52, 80
9, 144459, Note_on_c, 3, 64, 0
9, 144459, Note_on_c, 3, 52, 0
9, 144480, Note_on_c, 3, 64, 80
9, 144480, Note_on_c, 3, 52, 80
9, 144699, Note_on_c, 3, 64, 0
9, 144699, Note_on_c, 3, 52, 0
9, 144720, Note_on_c, 3, 54, 80
9, 144720, Note_on_c, 3, 66, 80
9, 144819, Note_on_c, 3, 54, 0
9, 144819, Note_on_c, 3, 66, 0
9, 144840, Note_on_c, 3, 54, 80
9, 144840, Note_on_c, 3, 66, 80
9, 144939, Note_on_c, 3, 54, 0
9, 144939, Note_on_c, 3, 66, 0
9, 144960, Note_on_c, 3, 54, 80
9, 144960, Note_on_c, 3, 66, 80
9, 145199, Note_on_c, 3, 54, 0
9, 145199, Note_on_c, 3, 66, 0
9, 147120, Note_on_c, 3, 66, 80
9, 147219, Note_on_c, 3, 66, 0
9, 147240, Note_on_c, 3, 66, 80
9, 147339, Note_on_c, 3, 66, 0
9, 147360, Note_on_c, 3, 66, 80
9, 147599, Note_on_c, 3, 66, 0
9, 148560, Note_on_c, 3, 50, 80
9, 148560, Note_on_c, 3, 62, 80
9, 148659, Note_on_c, 3, 50, 0
9, 148659, Note_on_c, 3, 62, 0
9, 148680, Note_on_c, 3, 62, 80
9, 148680, Note_on_c, 3, 50, 80
9, 148779, Note_on_c, 3, 62, 0
9, 148779, Note_on_c, 3, 50, 0
9, 148800, Note_on_c, 3, 43, 80
9, 148800, Note_on_c, 3, 55, 80
9, 149039, Note_on_c, 3, 43, 0
9, 149039, Note_on_c, 3, 55, 0
9, 150480, Note_on_c, 3, 59, 80
9, 150579, Note_on_c, 3, 59, 0
9, 150600, Note_on_c, 3, 59, 80
9, 150699, Note_on_c, 3, 59, 0
9, 150720, Note_on_c, 3, 59, 80
9, 150959, Note_on_c, 3, 59, 0
9, 152760, Note_on_c, 3, 60, 84
9, 152859, Note_on_c, 3, 60, 0
9, 152880, Note_on_c, 3, 60, 84
9, 152979, Note_on_c, 3, 60, 0
9, 153000, Note_on_c, 3, 60, 84
9, 153099, Note_on_c, 3, 60, 0
9, 153120, Note_on_c, 3, 60, 84
9, 153120, Note_on_c, 3, 56, 84
9, 153579, Note_on_c, 3, 60, 0
9, 153579, Note_on_c, 3, 56, 0
9, 153600, Note_on_c, 3, 61, 84
9, 153600, Note_on_c, 3, 58, 84
9, 154079, Note_on_c, 3, 61, 0
9, 154079, Note_on_c, 3, 58, 0
9, 155040, Note_on_c, 3, 60, 84
9, 155040, Note_on_c, 3, 56, 84
9, 155499, Note_on_c, 3, 60, 0
9, 155499, Note_on_c, 3, 56, 0
9, 155520, Note_on_c, 3, 61, 84
9, 155520, Note_on_c, 3, 58, 84
9, 155999, Note_on_c, 3, 61, 0
9, 155999, Note_on_c, 3, 58, 0
9, 156960, Note_on_c, 3, 60, 84
9, 156960, Note_on_c, 3, 56, 84
9, 157419, Note_on_c, 3, 60, 0
9, 157419, Note_on_c, 3, 56, 0
9, 157440, Note_on_c, 3, 61, 84
9, 157440, Note_on_c, 3, 58, 84
9, 157919, Note_on_c, 3, 61, 0
9, 157919, Note_on_c, 3, 58, 0
9, 158880, Note_on_c, 3, 60, 84
9, 158880, Note_on_c, 3, 63, 84
9, 159339, Note_on_c, 3, 60, 0
9, 159339, Note_on_c, 3, 63, 0
9, 159360, Note_on_c, 3, 65, 84
9, 159360, Note_on_c, 3, 61, 84
9, 159839, Note_on_c, 3, 65, 0
9, 159839, Note_on_c, 3, 61, 0
9, 160320, Note_on_c, 3, 66, 78
9, 160320, Note_on_c, 3, 63, 78
9, 160799, Note_on_c, 3, 66, 0
9, 160799, Note_on_c, 3, 63, 0
9, 161280, Note_on_c, 3, 68, 65
9, 161280, Note_on_c, 3, 65, 65
9, 161759, Note_on_c, 3, 68, 0
9, 161759, Note_on_c, 3, 65, 0
9, 162240, Note_on_c, 3, 69, 52
9, 162240, Note_on_c, 3, 66, 52
9, 162719, Note_on_c, 3, 69, 0
9, 162719, Note_on_c, 3, 66, 0
9, 163200, Note_on_c, 3, 69, 52
9, 163200, Note_on_c, 3, 66, 52
9, 163679, Note_on_c, 3, 69, 0
9, 163679, Note_on_c, 3, 66, 0
9, 164160, Note_on_c, 3, 69, 48
9, 164160, Note_on_c, 3, 66, 48
9, 164639, Note_on_c, 3, 69, 0
9, 164639, Note_on_c, 3, 66, 0
9, 165120, Note_on_c, 3, 69, 44
9, 165120, Note_on_c, 3, 66, 44
9, 165599, Note_on_c, 3, 69, 0
9, 165599, Note_on_c, 3, 66, 0
9, 166080, Note_on_c, 3, 66, 44
9, 166080, Note_on_c, 3, 69, 44
9, 166559, Note_on_c, 3, 66, 0
9, 166559, Note_on_c, 3, 69, 0
9, 167040, Note_on_c, 3, 66, 44
9, 167040, Note_on_c, 3, 69, 44
9, 167519, Note_on_c, 3, 66, 0
9, 167519, Note_on_c, 3, 69, 0
9, 168000, Note_on_c, 3, 69, 44
9, 168000, Note_on_c, 3, 66, 44
9, 168479, Note_on_c, 3, 69, 0
9, 168479, Note_on_c, 3, 66, 0
9, 168600, Note_on_c, 3, 62, 84
9, 168600, Note_on_c, 3, 50, 84
9, 168699, Note_on_c, 3, 62, 0
9, 168699, Note_on_c, 3, 50, 0
9, 168720, Note_on_c, 3, 62, 84
9, 168720, Note_on_c, 3, 50, 84
9, 168819, Note_on_c, 3, 62, 0
9, 168819, Note_on_c, 3, 50, 0
9, 168840, Note_on_c, 3, 62, 84
9, 168840, Note_on_c, 3, 50, 84
9, 168939, Note_on_c, 3, 62, 0
9, 168939, Note_on_c, 3, 50, 0
9, 168960, Note_on_c, 3, 59, 84
9, 168960, Note_on_c, 3, 47, 84
9, 169419, Note_on_c, 3, 59, 0
9, 169419, Note_on_c, 3, 47, 0
9, 169440, Note_on_c, 3, 60, 84
9, 169440, Note_on_c, 3, 48, 84
9, 169899, Note_on_c, 3, 60, 0
9, 169899, Note_on_c, 3, 48, 0
9, 169920, Note_on_c, 3, 45, 84
9, 169920, Note_on_c, 3, 57, 84
9, 170859, Note_on_c, 3, 45, 0
9, 170859, Note_on_c, 3, 57, 0
9, 170880, Note_on_c, 3, 65, 44
9, 170880, Note_on_c, 3, 59, 44
9, 171359, Note_on_c, 3, 65, 0
9, 171359, Note_on_c, 3, 59, 0
9, 171840, Note_on_c, 3, 65, 44
9, 171840, Note_on_c, 3, 59, 44
9, 172319, Note_on_c, 3, 65, 0
9, 172319, Note_on_c, 3, 59, 0
9, 172800, Note_on_c, 3, 65, 44
9, 172800, Note_on_c, 3, 59, 44
9, 173279, Note_on_c, 3, 65, 0
9, 173279, Note_on_c, 3, 59, 0
9, 173760, Note_on_c, 3, 59, 44
9, 173760, Note_on_c, 3, 65, 44
9, 174239, Note_on_c, 3, 59, 0
9, 174239, Note_on_c, 3, 65, 0
9, 174360, Note_on_c, 3, 56, 84
9, 174360, Note_on_c, 3, 44, 84
9, 174459, Note_on_c, 3, 56, 0
9, 174459, Note_on_c, 3, 44, 0
9, 174480, Note_on_c, 3, 44, 84
9, 174480, Note_on_c, 3, 56, 84
9, 174579, Note_on_c, 3, 44, 0
9, 174579, Note_on_c, 3, 56, 0
9, 174600, Note_on_c, 3, 56, 84
9, 174600, Note_on_c, 3, 44, 84
9, 174699, Note_on_c, 3, 56, 0
9, 174699, Note_on_c, 3, 44, 0
9, 174720, Note_on_c, 3, 53, 84
9, 174720, Note_on_c, 3, 41, 84
9, 175299, Note_on_c, 3, 53, 0
9, 175299, Note_on_c, 3, 41, 0
9, 175320, Note_on_c, 3, 56, 84
9, 175320, Note_on_c, 3, 44, 84
9, 175419, Note_on_c, 3, 56, 0
9, 175419, Note_on_c, 3, 44, 0
9, 175440, Note_on_c, 3, 56, 84
9, 175440, Note_on_c, 3, 44, 84
9, 175539, Note_on_c, 3, 56, 0
9, 175539, Note_on_c, 3, 44, 0
9, 175560, Note_on_c, 3, 56, 84
9, 175560, Note_on_c, 3, 44, 84
9, 175659, Note_on_c, 3, 56, 0
9, 175659, Note_on_c, 3, 44, 0
9, 175680, Note_on_c, 3, 53, 84
9, 175680, Note_on_c, 3, 41, 84
9, 176259, Note_on_c, 3, 53, 0
9, 176259, Note_on_c, 3, 41, 0
9, 176280, Note_on_c, 3, 56, 84
9, 176280, Note_on_c, 3, 44, 84
9, 176379, Note_on_c, 3, 56, 0
9, 176379, Note_on_c, 3, 44, 0
9, 176400, Note_on_c, 3, 56, 84
9, 176400, Note_on_c, 3, 44, 84
9, 176499, Note_on_c, 3, 56, 0
9, 176499, Note_on_c, 3, 44, 0
9, 176520, Note_on_c, 3, 56, 84
9, 176520, Note_on_c, 3, 44, 84
9, 176619, Note_on_c, 3, 56, 0
9, 176619, Note_on_c, 3, 44, 0
9, 176640, Note_on_c, 3, 53, 84
9, 176640, Note_on_c, 3, 41, 84
9, 176739, Note_on_c, 3, 53, 0
9, 176739, Note_on_c, 3, 41, 0
9, 176760, Note_on_c, 3, 56, 84
9, 176760, Note_on_c, 3, 44, 84
9, 176859, Note_on_c, 3, 56, 0
9, 176859, Note_on_c, 3, 44, 0
9, 176880, Note_on_c, 3, 44, 84
9, 176880, Note_on_c, 3, 56, 84
9, 176979, Note_on_c, 3, 44, 0
9, 176979, Note_on_c, 3, 56, 0
9, 177000, Note_on_c, 3, 56, 84
9, 177000, Note_on_c, 3, 44, 84
9, 177099, Note_on_c, 3, 56, 0
9, 177099, Note_on_c, 3, 44, 0
9, 177120, Note_on_c, 3, 53, 84
9, 177120, Note_on_c, 3, 41, 84
9, 177219, Note_on_c, 3, 53, 0
9, 177219, Note_on_c, 3, 41, 0
9, 177240, Note_on_c, 3, 44, 84
9, 177240, Note_on_c, 3, 56, 84
9, 177339, Note_on_c, 3, 44, 0
9, 177339, Note_on_c, 3, 56, 0
9, 177360, Note_on_c, 3, 56, 84
9, 177360, Note_on_c, 3, 44, 84
9, 177459, Note_on_c, 3, 56, 0
9, 177459, Note_on_c, 3, 44, 0
9, 177480, Note_on_c, 3, 44, 84
9, 177480, Note_on_c, 3, 56, 84
9, 177579, Note_on_c, 3, 44, 0
9, 177579, Note_on_c, 3, 56, 0
9, 177600, Note_on_c, 3, 53, 84
9, 177600, Note_on_c, 3, 41, 84
9, 177699, Note_on_c, 3, 53, 0
9, 177699, Note_on_c, 3, 41, 0
9, 177720, Note_on_c, 3, 56, 84
9, 177720, Note_on_c, 3, 44, 84
9, 177819, Note_on_c, 3, 56, 0
9, 177819, Note_on_c, 3, 44, 0
9, 177840, Note_on_c, 3, 44, 84
9, 177840, Note_on_c, 3, 56, 84
9, 177939, Note_on_c, 3, 44, 0
9, 177939, Note_on_c, 3, 56, 0
9, 177960, Note_on_c, 3, 44, 84
9, 177960, Note_on_c, 3, 56, 84
9, 178059, Note_on_c, 3, 44, 0
9, 178059, Note_on_c, 3, 56, 0
9, 178080, Note_on_c, 3, 53, 84
9, 178080, Note_on_c, 3, 41, 84
9, 178179, Note_on_c, 3, 53, 0
9, 178179, Note_on_c, 3, 41, 0
9, 178200, Note_on_c, 3, 55, 84
9, 178200, Note_on_c, 3, 43, 84
9, 178299, Note_on_c, 3, 55, 0
9, 178299, Note_on_c, 3, 43, 0
9, 178320, Note_on_c, 3, 43, 84
9, 178320, Note_on_c, 3, 55, 84
9, 178419, Note_on_c, 3, 43, 0
9, 178419, Note_on_c, 3, 55, 0
9, 178440, Note_on_c, 3, 55, 84
9, 178440, Note_on_c, 3, 43, 84
9, 178539, Note_on_c, 3, 55, 0
9, 178539, Note_on_c, 3, 43, 0
9, 178560, Note_on_c, 3, 51, 84
9, 178560, Note_on_c, 3, 39, 84
9, 179999, Note_on_c, 3, 51, 0
9, 179999, Note_on_c, 3, 39, 0
9, 180120, Note_on_c, 3, 41, 84
9, 180120, Note_on_c, 3, 53, 84
9, 180219, Note_on_c, 3, 41, 0
9, 180219, Note_on_c, 3, 53, 0
9, 180240, Note_on_c, 3, 53, 84
9, 180240, Note_on_c, 3, 41, 84
9, 180339, Note_on_c, 3, 53, 0
9, 180339, Note_on_c, 3, 41, 0
9, 180360, Note_on_c, 3, 41, 84
9, 180360, Note_on_c, 3, 53, 84
9, 180459, Note_on_c, 3, 41, 0
9, 180459, Note_on_c, 3, 53, 0
9, 180480, Note_on_c, 3, 50, 84
9, 180480, Note_on_c, 3, 38, 84
9, 182399, Note_on_c, 3, 50, 0
9, 182399, Note_on_c, 3, 38, 0
9, 182880, Note_on_c, 3, 60, 52
9, 182880, Note_on_c, 3, 48, 52
9, 184059, Note_on_c, 3, 60, 0
9, 184059, Note_on_c, 3, 48, 0
9, 184080, Note_on_c, 3, 48, 52
9, 184080, Note_on_c, 3, 60, 52
9, 184319, Note_on_c, 3, 48, 0
9, 184319, Note_on_c, 3, 60, 0
9, 184320, Note_on_c, 3, 63, 52
9, 184320, Note_on_c, 3, 51, 52
9, 184559, Note_on_c, 3, 63, 0
9, 184559, Note_on_c, 3, 51, 0
9, 184560, Note_on_c, 3, 48, 52
9, 184560, Note_on_c, 3, 60, 52
9, 184779, Note_on_c, 3, 48, 0
9, 184779, Note_on_c, 3, 60, 0
9, 184800, Note_on_c, 3, 59, 52
9, 184800, Note_on_c, 3, 47, 52
9, 185979, Note_on_c, 3, 59, 0
9, 185979, Note_on_c, 3, 47, 0
9, 186000, Note_on_c, 3, 43, 52
9, 186000, Note_on_c, 3, 55, 52
9, 186239, Note_on_c, 3, 43, 0
9, 186239, Note_on_c, 3, 55, 0
9, 186240, Note_on_c, 3, 59, 52
9, 186240, Note_on_c, 3, 47, 52
9, 186479, Note_on_c, 3, 59, 0
9, 186479, Note_on_c, 3, 47, 0
9, 186480, Note_on_c, 3, 43, 52
9, 186480, Note_on_c, 3, 55, 52
9, 186699, Note_on_c, 3, 43, 0
9, 186699, Note_on_c, 3, 55, 0
9, 186720, Note_on_c, 3, 48, 52
9, 186720, Note_on_c, 3, 60, 52
9, 187179, Note_on_c, 3, 48, 0
9, 187179, Note_on_c, 3, 60, 0
9, 187200, Note_on_c, 3, 59, 52
9, 187200, Note_on_c, 3, 47, 52
9, 187659, Note_on_c, 3, 59, 0
9, 187659, Note_on_c, 3, 47, 0
9, 187680, Note_on_c, 3, 60, 52
9, 187680, Note_on_c, 3, 48, 52
9, 188139, Note_on_c, 3, 60, 0
9, 188139, Note_on_c, 3, 48, 0
9, 188160, Note_on_c, 3, 55, 52
9, 188160, Note_on_c, 3, 43, 52
9, 188619, Note_on_c, 3, 55, 0
9, 188619, Note_on_c, 3, 43, 0
9, 188638, Control_c, 3, 11, 80
9, 188640, Note_on_c, 3, 48, 76
9, 188640, Note_on_c, 3, 60, 76
9, 188680, Control_c, 3, 11, 82
9, 188720, Control_c, 3, 11, 84
9, 188760, Control_c, 3, 11, 86
9, 188800, Control_c, 3, 11, 88
9, 188840, Control_c, 3, 11, 90
9, 188880, Control_c, 3, 11, 92
9, 188920, Control_c, 3, 11, 94
9, 188960, Control_c, 3, 11, 96
9, 189000, Control_c, 3, 11, 98
9, 189040, Control_c, 3, 11, 100
9, 189080, Control_c, 3, 11, 102
9, 189099, Note_on_c, 3, 48, 0
9, 189099, Note_on_c, 3, 60, 0
9, 189120, Note_on_c, 3, 56, 76
9, 189120, Note_on_c, 3, 44, 76
9, 189120, Control_c, 3, 11, 104
9, 189160, Control_c, 3, 11, 105
9, 189200, Control_c, 3, 11, 107
9, 189240, Control_c, 3, 11, 109
9, 189280, Control_c, 3, 11, 111
9, 189320, Control_c, 3, 11, 113
9, 189360, Control_c, 3, 11, 115
9, 189400, Control_c, 3, 11, 117
9, 189440, Control_c, 3, 11, 119
9, 189480, Control_c, 3, 11, 121
9, 189520, Control_c, 3, 11, 123
9, 189560, Control_c, 3, 11, 127
9, 189579, Note_on_c, 3, 56, 0
9, 189579, Note_on_c, 3, 44, 0
9, 189600, Note_on_c, 3, 43, 76
9, 189600, Note_on_c, 3, 55, 76
9, 189839, Note_on_c, 3, 43, 0
9, 189839, Note_on_c, 3, 55, 0
9, 193920, Control_c, 3, 11, 80
9, 194400, Control_c, 3, 11, 80
9, 194400, Note_on_c, 3, 62, 76
9, 194460, Control_c, 3, 11, 82
9, 194520, Control_c, 3, 11, 84
9, 194580, Control_c, 3, 11, 86
9, 194640, Control_c, 3, 11, 88
9, 194700, Control_c, 3, 11, 90
9, 194760, Control_c, 3, 11, 92
9, 194820, Control_c, 3, 11, 94
9, 194880, Control_c, 3, 11, 96
9, 194940, Control_c, 3, 11, 98
9, 195000, Control_c, 3, 11, 100
9, 195060, Control_c, 3, 11, 102
9, 195120, Control_c, 3, 11, 104
9, 195180, Control_c, 3, 11, 105
9, 195240, Control_c, 3, 11, 107
9, 195300, Control_c, 3, 11, 109
9, 195360, Control_c, 3, 11, 111
9, 195420, Control_c, 3, 11, 113
9, 195480, Control_c, 3, 11, 115
9, 195540, Control_c, 3, 11, 117
9, 195600, Control_c, 3, 11, 119
9, 195660, Control_c, 3, 11, 121
9, 195720, Control_c, 3, 11, 123
9, 195780, Control_c, 3, 11, 127
9, 195819, Note_on_c, 3, 62, 0
9, 195840, Note_on_c, 3, 60, 76
9, 196079, Note_on_c, 3, 60, 0
9, 196440, Note_on_c, 3, 65, 76
9, 196440, Note_on_c, 3, 68, 76
9, 196539, Note_on_c, 3, 65, 0
9, 196539, Note_on_c, 3, 68, 0
9, 196560, Note_on_c, 3, 65, 76
9, 196560, Note_on_c, 3, 68, 76
9, 196659, Note_on_c, 3, 65, 0
9, 196659, Note_on_c, 3, 68, 0
9, 196680, Note_on_c, 3, 65, 76
9, 196680, Note_on_c, 3, 68, 76
9, 196779, Note_on_c, 3, 65, 0
9, 196779, Note_on_c, 3, 68, 0
9, 196800, Note_on_c, 3, 65, 76
9, 196800, Note_on_c, 3, 68, 76
9, 197039, Note_on_c, 3, 65, 0
9, 197039, Note_on_c, 3, 68, 0
9, 197400, Note_on_c, 3, 67, 76
9, 197400, Note_on_c, 3, 63, 76
9, 197499, Note_on_c, 3, 67, 0
9, 197499, Note_on_c, 3, 63, 0
9, 197520, Note_on_c, 3, 67, 76
9, 197520, Note_on_c, 3, 63, 76
9, 197619, Note_on_c, 3, 67, 0
9, 197619, Note_on_c, 3, 63, 0
9, 197640, Note_on_c, 3, 67, 76
9, 197640, Note_on_c, 3, 63, 76
9, 197739, Note_on_c, 3, 67, 0
9, 197739, Note_on_c, 3, 63, 0
9, 197760, Note_on_c, 3, 67, 76
9, 197760, Note_on_c, 3, 63, 76
9, 197999, Note_on_c, 3, 67, 0
9, 197999, Note_on_c, 3, 63, 0
9, 198240, Note_on_c, 3, 59, 76
9, 198479, Note_on_c, 3, 59, 0
9, 198720, Note_on_c, 3, 48, 84
9, 198720, Note_on_c, 3, 58, 84
9, 198959, Note_on_c, 3, 48, 0
9, 198959, Note_on_c, 3, 58, 0
9, 199200, Note_on_c, 3, 48, 84
9, 199200, Note_on_c, 3, 56, 84
9, 199439, Note_on_c, 3, 48, 0
9, 199439, Note_on_c, 3, 56, 0
9, 199680, Note_on_c, 3, 52, 84
9, 199680, Note_on_c, 3, 48, 84
9, 199919, Note_on_c, 3, 52, 0
9, 199919, Note_on_c, 3, 48, 0
9, 200160, Note_on_c, 3, 53, 84
9, 200160, Note_on_c, 3, 48, 84
9, 200399, Note_on_c, 3, 53, 0
9, 200399, Note_on_c, 3, 48, 0
9, 200640, Note_on_c, 3, 60, 84
9, 200640, Note_on_c, 3, 48, 84
9, 200879, Note_on_c, 3, 60, 0
9, 200879, Note_on_c, 3, 48, 0
9, 201120, Note_on_c, 3, 51, 76
9, 201120, Note_on_c, 3, 48, 76
9, 203019, Note_on_c, 3, 51, 0
9, 203019, Note_on_c, 3, 48, 0
9, 203040, Note_on_c, 3, 47, 76
9, 203040, Note_on_c, 3, 50, 76
9, 204699, Note_on_c, 3, 47, 0
9, 204699, Note_on_c, 3, 50, 0
9, 204720, Note_on_c, 3, 48, 76
9, 204720, Note_on_c, 3, 51, 76
9, 204939, Note_on_c, 3, 48, 0
9, 204939, Note_on_c, 3, 51, 0
9, 204960, Note_on_c, 3, 63, 84
9, 204960, Note_on_c, 3, 60, 84
9, 206859, Note_on_c, 3, 63, 0
9, 206859, Note_on_c, 3, 60, 0
9, 206880, Note_on_c, 3, 60, 84
9, 206880, Note_on_c, 3, 63, 84
9, 207119, Note_on_c, 3, 60, 0
9, 207119, Note_on_c, 3, 63, 0
9, 207840, Note_on_c, 3, 62, 84
9, 207840, Note_on_c, 3, 59, 84
9, 208079, Note_on_c, 3, 62, 0
9, 208079, Note_on_c, 3, 59, 0
9, 208440, Note_on_c, 3, 67, 84
9, 208559, Note_on_c, 3, 67, 0
9, 208560, Note_on_c, 3, 67, 84
9, 208679, Note_on_c, 3, 67, 0
9, 208680, Note_on_c, 3, 67, 84
9, 208799, Note_on_c, 3, 67, 0
9, 208800, Note_on_c, 3, 60, 92
9, 209239, Note_on_c, 3, 60, 0
9, 209280, Note_on_c, 3, 62, 92
9, 209719, Note_on_c, 3, 62, 0
9, 209760, Note_on_c, 3, 55, 92
9, 209880, Control_c, 3, 11, 112
9, 209910, Control_c, 3, 11, 107
9, 209940, Control_c, 3, 11, 101
9, 209970, Control_c, 3, 11, 96
9, 210000, Control_c, 3, 11, 91
9, 210030, Control_c, 3, 11, 85
9, 210060, Control_c, 3, 11, 80
9, 210090, Control_c, 3, 11, 75
9, 210120, Control_c, 3, 11, 69
9, 210150, Control_c, 3, 11, 64
9, 210180, Control_c, 3, 11, 59
9, 210210, Control_c, 3, 11, 48
9, 212139, Note_on_c, 3, 55, 0
9, 212158, Control_c, 3, 11, 64
9, 212160, Note_on_c, 3, 67, 84
9, 212160, Note_on_c, 3, 64, 84
9, 212639, Note_on_c, 3, 67, 0
9, 212639, Note_on_c, 3, 64, 0
9, 212640, Note_on_c, 3, 65, 84
9, 212640, Note_on_c, 3, 62, 84
9, 213099, Note_on_c, 3, 65, 0
9, 213099, Note_on_c, 3, 62, 0
9, 213120, Note_on_c, 3, 55, 84
9, 213120, Note_on_c, 3, 62, 84
9, 213599, Note_on_c, 3, 55, 0
9, 213599, Note_on_c, 3, 62, 0
9, 213600, Note_on_c, 3, 64, 84
9, 213600, Note_on_c, 3, 60, 84
9, 214059, Note_on_c, 3, 64, 0
9, 214059, Note_on_c, 3, 60, 0
9, 214080, Note_on_c, 3, 55, 84
9, 214080, Note_on_c, 3, 52, 84
9, 214559, Note_on_c, 3, 55, 0
9, 214559, Note_on_c, 3, 52, 0
9, 214560, Note_on_c, 3, 50, 84
9, 214560, Note_on_c, 3, 53, 84
9, 215019, Note_on_c, 3, 50, 0
9, 215019, Note_on_c, 3, 53, 0
9, 215040, Note_on_c, 3, 43, 84
9, 215040, Note_on_c, 3, 50, 84
9, 215519, Note_on_c, 3, 43, 0
9, 215519, Note_on_c, 3, 50, 0
9, 215520, Note_on_c, 3, 52, 84
9, 215520, Note_on_c, 3, 48, 84
9, 215979, Note_on_c, 3, 52, 0
9, 215979, Note_on_c, 3, 48, 0
9, 216000, Note_on_c, 3, 64, 84
9, 216000, Note_on_c, 3, 67, 84
9, 216479, Note_on_c, 3, 64, 0
9, 216479, Note_on_c, 3, 67, 0
9, 216480, Note_on_c, 3, 65, 84
9, 216480, Note_on_c, 3, 62, 84
9, 216939, Note_on_c, 3, 65, 0
9, 216939, Note_on_c, 3, 62, 0
9, 216960, Note_on_c, 3, 55, 84
9, 216960, Note_on_c, 3, 62, 84
9, 217439, Note_on_c, 3, 55, 0
9, 217439, Note_on_c, 3, 62, 0
9, 217440, Note_on_c, 3, 64, 84
9, 217440, Note_on_c, 3, 60, 84
9, 217899, Note_on_c, 3, 64, 0
9, 217899, Note_on_c, 3, 60, 0
9, 217920, Note_on_c, 3, 55, 84
9, 217920, Note_on_c, 3, 58, 84
9, 218399, Note_on_c, 3, 55, 0
9, 218399, Note_on_c, 3, 58, 0
9, 218400, Note_on_c, 3, 52, 84
9, 218400, Note_on_c, 3, 55, 84
9, 218859, Note_on_c, 3, 52, 0
9, 218859, Note_on_c, 3, 55, 0
9, 218880, Note_on_c, 3, 48, 84
9, 218880, Note_on_c, 3, 52, 84
9, 219359, Note_on_c, 3, 48, 0
9, 219359, Note_on_c, 3, 52, 0
9, 219360, Note_on_c, 3, 53, 84
9, 219819, Note_on_c, 3, 53, 0
9, 219840, Note_on_c, 3, 60, 84
9, 219840, Note_on_c, 3, 57, 84
9, 220319, Note_on_c, 3, 60, 0
9, 220319, Note_on_c, 3, 57, 0
9, 220320, Note_on_c, 3, 54, 84
9, 220320, Note_on_c, 3, 57, 84
9, 220779, Note_on_c, 3, 54, 0
9, 220779, Note_on_c, 3, 57, 0
9, 220800, Note_on_c, 3, 54, 84
9, 220800, Note_on_c, 3, 50, 84
9, 221279, Note_on_c, 3, 54, 0
9, 221279, Note_on_c, 3, 50, 0
9, 221280, Note_on_c, 3, 55, 84
9, 221739, Note_on_c, 3, 55, 0
9, 221760, Note_on_c, 3, 44, 84
9, 221760, Note_on_c, 3, 56, 84
9, 222240, Control_c, 3, 11, 64
9, 222347, Control_c, 3, 11, 65
9, 222453, Control_c, 3, 11, 66
9, 222560, Control_c, 3, 11, 67
9, 222667, Control_c, 3, 11, 68
9, 222773, Control_c, 3, 11, 69
9, 222880, Control_c, 3, 11, 70
9, 222987, Control_c, 3, 11, 71
9, 223093, Control_c, 3, 11, 72
9, 223179, Note_on_c, 3, 44, 0
9, 223179, Note_on_c, 3, 56, 0
9, 223200, Note_on_c, 3, 47, 84
9, 223200, Control_c, 3, 11, 73
9, 223200, Note_on_c, 3, 59, 84
9, 223307, Control_c, 3, 11, 74
9, 223413, Control_c, 3, 11, 75
9, 223520, Control_c, 3, 11, 76
9, 223627, Control_c, 3, 11, 77
9, 223733, Control_c, 3, 11, 78
9, 223840, Control_c, 3, 11, 79
9, 223947, Control_c, 3, 11, 80
9, 224053, Control_c, 3, 11, 81
9, 224139, Note_on_c, 3, 47, 0
9, 224139, Note_on_c, 3, 59, 0
9, 224160, Note_on_c, 3, 62, 84
9, 224160, Note_on_c, 3, 50, 84
9, 224160, Control_c, 3, 11, 82
9, 224267, Control_c, 3, 11, 83
9, 224373, Control_c, 3, 11, 84
9, 224480, Control_c, 3, 11, 85
9, 224587, Control_c, 3, 11, 86
9, 224693, Control_c, 3, 11, 87
9, 224800, Control_c, 3, 11, 88
9, 224907, Control_c, 3, 11, 89
9, 225013, Control_c, 3, 11, 90
9, 225120, Control_c, 3, 11, 91
9, 225227, Control_c, 3, 11, 92
9, 225333, Control_c, 3, 11, 93
9, 225440, Control_c, 3, 11, 94
9, 225547, Control_c, 3, 11, 95
9, 225653, Control_c, 3, 11, 96
9, 225760, Control_c, 3, 11, 97
9, 225867, Control_c, 3, 11, 98
9, 225973, Control_c, 3, 11, 99
9, 226059, Note_on_c, 3, 62, 0
9, 226059, Note_on_c, 3, 50, 0
9, 226080, Note_on_c, 3, 62, 84
9, 226080, Control_c, 3, 11, 100
9, 226080, Note_on_c, 3, 50, 84
9, 226187, Control_c, 3, 11, 101
9, 226293, Control_c, 3, 11, 102
9, 226400, Control_c, 3, 11, 103
9, 226507, Control_c, 3, 11, 104
9, 226613, Control_c, 3, 11, 105
9, 226720, Control_c, 3, 11, 106
9, 226827, Control_c, 3, 11, 107
9, 226933, Control_c, 3, 11, 108
9, 227019, Note_on_c, 3, 62, 0
9, 227019, Note_on_c, 3, 50, 0
9, 227040, Control_c, 3, 11, 109
9, 227040, Note_on_c, 3, 50, 84
9, 227040, Note_on_c, 3, 62, 84
9, 227147, Control_c, 3, 11, 110
9, 227253, Control_c, 3, 11, 111
9, 227360, Control_c, 3, 11, 112
9, 227467, Control_c, 3, 11, 113
9, 227573, Control_c, 3, 11, 114
9, 227680, Control_c, 3, 11, 115
9, 227787, Control_c, 3, 11, 116
9, 227893, Control_c, 3, 11, 117
9, 228000, Control_c, 3, 11, 118
9, 228107, Control_c, 3, 11, 119
9, 228213, Control_c, 3, 11, 120
9, 228320, Control_c, 3, 11, 121
9, 228427, Control_c, 3, 11, 122
9, 228533, Control_c, 3, 11, 123
9, 228640, Control_c, 3, 11, 124
9, 228747, Control_c, 3, 11, 125
9, 228853, Control_c, 3, 11, 127
9, 228939, Note_on_c, 3, 50, 0
9, 228939, Note_on_c, 3, 62, 0
9, 228960, Note_on_c, 3, 62, 84
9, 228960, Note_on_c, 3, 65, 84
9, 229659, Note_on_c, 3, 62, 0
9, 229659, Note_on_c, 3, 65, 0
9, 229680, Note_on_c, 3, 65, 84
9, 229680, Note_on_c, 3, 59, 84
9, 229919, Note_on_c, 3, 65, 0
9, 229919, Note_on_c, 3, 59, 0
9, 229920, Note_on_c, 3, 64, 84
9, 229920, Note_on_c, 3, 60, 84
9, 230159, Note_on_c, 3, 64, 0
9, 230159, Note_on_c, 3, 60, 0
9, 230400, Note_on_c, 3, 65, 84
9, 230400, Note_on_c, 3, 59, 84
9, 230639, Note_on_c, 3, 65, 0
9, 230639, Note_on_c, 3, 59, 0
9, 230880, Note_on_c, 3, 64, 84
9, 230880, Note_on_c, 3, 60, 84
9, 231119, Note_on_c, 3, 64, 0
9, 231119, Note_on_c, 3, 60, 0
9, 231360, Note_on_c, 3, 53, 84
9, 231360, Note_on_c, 3, 65, 84
9, 231599, Note_on_c, 3, 53, 0
9, 231599, Note_on_c, 3, 65, 0
9, 231840, Note_on_c, 3, 55, 84
9, 231840, Note_on_c, 3, 67, 84
9, 232079, Note_on_c, 3, 55, 0
9, 232079, Note_on_c, 3, 67, 0
9, 232320, Note_on_c, 3, 43, 84
9, 232320, Note_on_c, 3, 55, 84
9, 232559, Note_on_c, 3, 43, 0
9, 232559, Note_on_c, 3, 55, 0
9, 232800, Note_on_c, 3, 47, 84
9, 232800, Note_on_c, 3, 50, 84
9, 233739, Note_on_c, 3, 47, 0
9, 233739, Note_on_c, 3, 50, 0
9, 233760, Note_on_c, 3, 52, 84
9, 233760, Note_on_c, 3, 48, 84
9, 233979, Note_on_c, 3, 52, 0
9, 233979, Note_on_c, 3, 48, 0
9, 234000, Note_on_c, 3, 48, 84
9, 234000, Note_on_c, 3, 52, 84
9, 234239, Note_on_c, 3, 48, 0
9, 234239, Note_on_c, 3, 52, 0
9, 234480, Note_on_c, 3, 50, 84
9, 234480, Note_on_c, 3, 53, 84
9, 234719, Note_on_c, 3, 50, 0
9, 234719, Note_on_c, 3, 53, 0
9, 234960, Note_on_c, 3, 52, 84
9, 234960, Note_on_c, 3, 55, 84
9, 235199, Note_on_c, 3, 52, 0
9, 235199, Note_on_c, 3, 55, 0
9, 235440, Note_on_c, 3, 53, 84
9, 235440, Note_on_c, 3, 57, 84
9, 235679, Note_on_c, 3, 53, 0
9, 235679, Note_on_c, 3, 57, 0
9, 235920, Note_on_c, 3, 60, 84
9, 235920, Note_on_c, 3, 55, 84
9, 236159, Note_on_c, 3, 60, 0
9, 236159, Note_on_c, 3, 55, 0
9, 236400, Note_on_c, 3, 59, 84
9, 236400, Note_on_c, 3, 55, 84
9, 236619, Note_on_c, 3, 59, 0
9, 236619, Note_on_c, 3, 55, 0
9, 236640, Note_on_c, 3, 60, 84
9, 236640, Note_on_c, 3, 55, 84
9, 236739, Note_on_c, 3, 60, 0
9, 236739, Note_on_c, 3, 55, 0
9, 236760, Note_on_c, 3, 52, 84
9, 236760, Note_on_c, 3, 64, 84
9, 236859, Note_on_c, 3, 52, 0
9, 236859, Note_on_c, 3, 64, 0
9, 236880, Note_on_c, 3, 64, 84
9, 236880, Note_on_c, 3, 52, 84
9, 236979, Note_on_c, 3, 64, 0
9, 236979, Note_on_c, 3, 52, 0
9, 237000, Note_on_c, 3, 64, 84
9, 237000, Note_on_c, 3, 52, 84
9, 237099, Note_on_c, 3, 64, 0
9, 237099, Note_on_c, 3, 52, 0
9, 237120, Note_on_c, 3, 48, 84
9, 237120, Note_on_c, 3, 60, 84
9, 237219, Note_on_c, 3, 48, 0
9, 237219, Note_on_c, 3, 60, 0
9, 237240, Note_on_c, 3, 55, 84
9, 237240, Note_on_c, 3, 67, 84
9, 237339, Note_on_c, 3, 55, 0
9, 237339, Note_on_c, 3, 67, 0
9, 237360, Note_on_c, 3, 55, 84
9, 237360, Note_on_c, 3, 67, 84
9, 237459, Note_on_c, 3, 55, 0
9, 237459, Note_on_c, 3, 67, 0
9, 237480, Note_on_c, 3, 67, 84
9, 237480, Note_on_c, 3, 55, 84
9, 237579, Note_on_c, 3, 67, 0
9, 237579, Note_on_c, 3, 55, 0
9, 237600, Note_on_c, 3, 64, 84
9, 237600, Note_on_c, 3, 52, 84
9, 237699, Note_on_c, 3, 64, 0
9, 237699, Note_on_c, 3, 52, 0
9, 237720, Note_on_c, 3, 60, 84
9, 237720, Note_on_c, 3, 48, 84
9, 237819, Note_on_c, 3, 60, 0
9, 237819, Note_on_c, 3, 48, 0
9, 237840, Note_on_c, 3, 48, 84
9, 237840, Note_on_c, 3, 60, 84
9, 237939, Note_on_c, 3, 48, 0
9, 237939, Note_on_c, 3, 60, 0
9, 237960, Note_on_c, 3, 48, 84
9, 237960, Note_on_c, 3, 60, 84
9, 238059, Note_on_c, 3, 48, 0
9, 238059, Note_on_c, 3, 60, 0
9, 238080, Note_on_c, 3, 43, 84
9, 238080, Note_on_c, 3, 55, 84
9, 238659, Note_on_c, 3, 43, 0
9, 238659, Note_on_c, 3, 55, 0
9, 238680, Note_on_c, 3, 64, 84
9, 238779, Note_on_c, 3, 64, 0
9, 238800, Note_on_c, 3, 64, 84
9, 238899, Note_on_c, 3, 64, 0
9, 238920, Note_on_c, 3, 64, 84
9, 239019, Note_on_c, 3, 64, 0
9, 239040, Note_on_c, 3, 60, 84
9, 239139, Note_on_c, 3, 60, 0
9, 239160, Note_on_c, 3, 55, 84
9, 239160, Note_on_c, 3, 67, 84
9, 239259, Note_on_c, 3, 55, 0
9, 239259, Note_on_c, 3, 67, 0
9, 239280, Note_on_c, 3, 55, 84
9, 239280, Note_on_c, 3, 67, 84
9, 239379, Note_on_c, 3, 55, 0
9, 239379, Note_on_c, 3, 67, 0
9, 239400, Note_on_c, 3, 55, 84
9, 239400, Note_on_c, 3, 67, 84
9, 239499, Note_on_c, 3, 55, 0
9, 239499, Note_on_c, 3, 67, 0
9, 239520, Note_on_c, 3, 64, 84
9, 239520, Note_on_c, 3, 52, 84
9, 239619, Note_on_c, 3, 64, 0
9, 239619, Note_on_c, 3, 52, 0
9, 239640, Note_on_c, 3, 48, 84
9, 239640, Note_on_c, 3, 60, 84
9, 239739, Note_on_c, 3, 48, 0
9, 239739, Note_on_c, 3, 60, 0
9, 239760, Note_on_c, 3, 60, 84
9, 239760, Note_on_c, 3, 48, 84
9, 239859, Note_on_c, 3, 60, 0
9, 239859, Note_on_c, 3, 48, 0
9, 239880, Note_on_c, 3, 60, 84
9, 239880, Note_on_c, 3, 48, 84
9, 239979, Note_on_c, 3, 60, 0
9, 239979, Note_on_c, 3, 48, 0
9, 240000, Note_on_c, 3, 43, 84
9, 240000, Note_on_c, 3, 55, 84
9, 240099, Note_on_c, 3, 43, 0
9, 240099, Note_on_c, 3, 55, 0
9, 240120, Note_on_c, 3, 59, 84
9, 240120, Note_on_c, 3, 62, 84
9, 240219, Note_on_c, 3, 59, 0
9, 240219, Note_on_c, 3, 62, 0
9, 240240, Note_on_c, 3, 59, 84
9, 240240, Note_on_c, 3, 62, 84
9, 240339, Note_on_c, 3, 59, 0
9, 240339, Note_on_c, 3, 62, 0
9, 240360, Note_on_c, 3, 62, 84
9, 240360, Note_on_c, 3, 59, 84
9, 240459, Note_on_c, 3, 62, 0
9, 240459, Note_on_c, 3, 59, 0
9, 240480, Note_on_c, 3, 60, 84
9, 240480, Note_on_c, 3, 64, 84
9, 240719, Note_on_c, 3, 60, 0
9, 240719, Note_on_c, 3, 64, 0
9, 241080, Note_on_c, 3, 62, 84
9, 241080, Note_on_c, 3, 59, 84
9, 241179, Note_on_c, 3, 62, 0
9, 241179, Note_on_c, 3, 59, 0
9, 241200, Note_on_c, 3, 62, 84
9, 241200, Note_on_c, 3, 59, 84
9, 241299, Note_on_c, 3, 62, 0
9, 241299, Note_on_c, 3, 59, 0
9, 241320, Note_on_c, 3, 62, 84
9, 241320, Note_on_c, 3, 59, 84
9, 241419, Note_on_c, 3, 62, 0
9, 241419, Note_on_c, 3, 59, 0
9, 241440, Note_on_c, 3, 64, 84
9, 241440, Note_on_c, 3, 60, 84
9, 241679, Note_on_c, 3, 64, 0
9, 241679, Note_on_c, 3, 60, 0
9, 242040, Note_on_c, 3, 55, 84
9, 242040, Note_on_c, 3, 62, 84
9, 242139, Note_on_c, 3, 55, 0
9, 242139, Note_on_c, 3, 62, 0
9, 242160, Note_on_c, 3, 55, 84
9, 242160, Note_on_c, 3, 62, 84
9, 242259, Note_on_c, 3, 55, 0
9, 242259, Note_on_c, 3, 62, 0
9, 242280, Note_on_c, 3, 55, 84
9, 242280, Note_on_c, 3, 62, 84
9, 242379, Note_on_c, 3, 55, 0
9, 242379, Note_on_c, 3, 62, 0
9, 242400, Note_on_c, 3, 48, 84
9, 242400, Note_on_c, 3, 60, 84
9, 242499, Note_on_c, 3, 48, 0
9, 242499, Note_on_c, 3, 60, 0
9, 242520, Note_on_c, 3, 48, 84
9, 242520, Note_on_c, 3, 60, 84
9, 242619, Note_on_c, 3, 48, 0
9, 242619, Note_on_c, 3, 60, 0
9, 242640, Note_on_c, 3, 60, 84
9, 242640, Note_on_c, 3, 48, 84
9, 242739, Note_on_c, 3, 60, 0
9, 242739, Note_on_c, 3, 48, 0
9, 242760, Note_on_c, 3, 48, 84
9, 242760, Note_on_c, 3, 60, 84
9, 242859, Note_on_c, 3, 48, 0
9, 242859, Note_on_c, 3, 60, 0
9, 242880, Note_on_c, 3, 48, 84
9, 242880, Note_on_c, 3, 60, 84
9, 243359, Note_on_c, 3, 48, 0
9, 243359, Note_on_c, 3, 60, 0
9, 243360, Note_on_c, 3, 48, 84
9, 243360, Note_on_c, 3, 60, 84
9, 243459, Note_on_c, 3, 48, 0
9, 243459, Note_on_c, 3, 60, 0
9, 243480, Note_on_c, 3, 60, 84
9, 243480, Note_on_c, 3, 48, 84
9, 243579, Note_on_c, 3, 60, 0
9, 243579, Note_on_c, 3, 48, 0
9, 243600, Note_on_c, 3, 60, 84
9, 243600, Note_on_c, 3, 48, 84
9, 243699, Note_on_c, 3, 60, 0
9, 243699, Note_on_c, 3, 48, 0
9, 243720, Note_on_c, 3, 60, 84
9, 243720, Note_on_c, 3, 48, 84
9, 243819, Note_on_c, 3, 60, 0
9, 243819, Note_on_c, 3, 48, 0
9, 243840, Note_on_c, 3, 60, 84
9, 243840, Note_on_c, 3, 48, 84
9, 244319, Note_on_c, 3, 60, 0
9, 244319, Note_on_c, 3, 48, 0
9, 244320, Note_on_c, 3, 48, 84
9, 244320, Note_on_c, 3, 60, 84
9, 244419, Note_on_c, 3, 48, 0
9, 244419, Note_on_c, 3, 60, 0
9, 244440, Note_on_c, 3, 60, 84
9, 244440, Note_on_c, 3, 48, 84
9, 244539, Note_on_c, 3, 60, 0
9, 244539, Note_on_c, 3, 48, 0
9, 244560, Note_on_c, 3, 48, 84
9, 244560, Note_on_c, 3, 60, 84
9, 244659, Note_on_c, 3, 48, 0
9, 244659, Note_on_c, 3, 60, 0
9, 244680, Note_on_c, 3, 48, 84
9, 244680, Note_on_c, 3, 60, 84
9, 244779, Note_on_c, 3, 48, 0
9, 244779, Note_on_c, 3, 60, 0
9, 244800, Note_on_c, 3, 60, 84
9, 244800, Note_on_c, 3, 48, 84
9, 245279, Note_on_c, 3, 60, 0
9, 245279, Note_on_c, 3, 48, 0
9, 245280, Note_on_c, 3, 48, 84
9, 245280, Note_on_c, 3, 60, 84
9, 245379, Note_on_c, 3, 48, 0
9, 245379, Note_on_c, 3, 60, 0
9, 245400, Note_on_c, 3, 48, 84
9, 245400, Note_on_c, 3, 60, 84
9, 245499, Note_on_c, 3, 48, 0
9, 245499, Note_on_c, 3, 60, 0
9, 245520, Note_on_c, 3, 48, 84
9, 245520, Note_on_c, 3, 60, 84
9, 245619, Note_on_c, 3, 48, 0
9, 245619, Note_on_c, 3, 60, 0
9, 245640, Note_on_c, 3, 48, 84
9, 245640, Note_on_c, 3, 60, 84
9, 245739, Note_on_c, 3, 48, 0
9, 245739, Note_on_c, 3, 60, 0
9, 245760, Note_on_c, 3, 60, 84
9, 245760, Note_on_c, 3, 48, 84
9, 245859, Note_on_c, 3, 60, 0
9, 245859, Note_on_c, 3, 48, 0
9, 245880, Note_on_c, 3, 56, 84
9, 245880, Note_on_c, 3, 53, 84
9, 245979, Note_on_c, 3, 56, 0
9, 245979, Note_on_c, 3, 53, 0
9, 246000, Note_on_c, 3, 56, 84
9, 246000, Note_on_c, 3, 53, 84
9, 246099, Note_on_c, 3, 56, 0
9, 246099, Note_on_c, 3, 53, 0
9, 246120, Note_on_c, 3, 56, 84
9, 246120, Note_on_c, 3, 53, 84
9, 246219, Note_on_c, 3, 56, 0
9, 246219, Note_on_c, 3, 53, 0
9, 246240, Note_on_c, 3, 56, 84
9, 246240, Note_on_c, 3, 53, 84
9, 248139, Note_on_c, 3, 56, 0
9, 248139, Note_on_c, 3, 53, 0
9, 248160, Note_on_c, 3, 56, 84
9, 248160, Note_on_c, 3, 53, 84
9, 248399, Note_on_c, 3, 56, 0
9, 248399, Note_on_c, 3, 53, 0
9, 248760, Note_on_c, 3, 65, 52
9, 248859, Note_on_c, 3, 65, 0
9, 248880, Note_on_c, 3, 65, 52
9, 248979, Note_on_c, 3, 65, 0
9, 249000, Note_on_c, 3, 65, 52
9, 249099, Note_on_c, 3, 65, 0
9, 249120, Note_on_c, 3, 68, 52
9, 249359, Note_on_c, 3, 68, 0
9, 250200, Note_on_c, 3, 54, 84
9, 250200, Note_on_c, 3, 57, 84
9, 250299, Note_on_c, 3, 54, 0
9, 250299, Note_on_c, 3, 57, 0
9, 250320, Note_on_c, 3, 57, 84
9, 250320, Note_on_c, 3, 54, 84
9, 250419, Note_on_c, 3, 57, 0
9, 250419, Note_on_c, 3, 54, 0
9, 250440, Note_on_c, 3, 54, 84
9, 250440, Note_on_c, 3, 57, 84
9, 250539, Note_on_c, 3, 54, 0
9, 250539, Note_on_c, 3, 57, 0
9, 250560, Note_on_c, 3, 54, 84
9, 250560, Note_on_c, 3, 57, 84
9, 252459, Note_on_c, 3, 54, 0
9, 252459, Note_on_c, 3, 57, 0
9, 252480, Note_on_c, 3, 54, 84
9, 252480, Note_on_c, 3, 57, 84
9, 252719, Note_on_c, 3, 54, 0
9, 252719, Note_on_c, 3, 57, 0
9, 253080, Note_on_c, 3, 60, 84
9, 253179, Note_on_c, 3, 60, 0
9, 253200, Note_on_c, 3, 60, 84
9, 253299, Note_on_c, 3, 60, 0
9, 253320, Note_on_c, 3, 60, 84
9, 253419, Note_on_c, 3, 60, 0
9, 253440, Note_on_c, 3, 63, 84
9, 253679, Note_on_c, 3, 63, 0
9, 254040, Note_on_c, 3, 67, 76
9, 254139, Note_on_c, 3, 67, 0
9, 254160, Note_on_c, 3, 67, 76
9, 254259, Note_on_c, 3, 67, 0
9, 254280, Note_on_c, 3, 67, 76
9, 254379, Note_on_c, 3, 67, 0
9, 254400, Note_on_c, 3, 63, 76
9, 254859, Note_on_c, 3, 63, 0
9, 254880, Note_on_c, 3, 65, 76
9, 255339, Note_on_c, 3, 65, 0
9, 255360, Note_on_c, 3, 62, 76
9, 255939, Note_on_c, 3, 62, 0
9, 255960, Note_on_c, 3, 67, 76
9, 256059, Note_on_c, 3, 67, 0
9, 256080, Note_on_c, 3, 67, 76
9, 256179, Note_on_c, 3, 67, 0
9, 256200, Note_on_c, 3, 67, 76
9, 256299, Note_on_c, 3, 67, 0
9, 256320, Note_on_c, 3, 63, 76
9, 256779, Note_on_c, 3, 63, 0
9, 256800, Note_on_c, 3, 65, 76
9, 257259, Note_on_c, 3, 65, 0
9, 257280, Note_on_c, 3, 62, 76
9, 257859, Note_on_c, 3, 62, 0
9, 257880, Note_on_c, 3, 67, 76
9, 257979, Note_on_c, 3, 67, 0
9, 258000, Note_on_c, 3, 67, 76
9, 258099, Note_on_c, 3, 67, 0
9, 258120, Note_on_c, 3, 67, 76
9, 258219, Note_on_c, 3, 67, 0
9, 258240, Note_on_c, 3, 63, 76
9, 258459, Note_on_c, 3, 63, 0
9, 258480, Note_on_c, 3, 65, 76
9, 258699, Note_on_c, 3, 65, 0
9, 258720, Note_on_c, 3, 62, 76
9, 258939, Note_on_c, 3, 62, 0
9, 258960, Note_on_c, 3, 63, 76
9, 259179, Note_on_c, 3, 63, 0
9, 259200, Note_on_c, 3, 60, 76
9, 259419, Note_on_c, 3, 60, 0
9, 259440, Note_on_c, 3, 62, 76
9, 259659, Note_on_c, 3, 62, 0
9, 259680, Note_on_c, 3, 58, 76
9, 259899, Note_on_c, 3, 58, 0
9, 259920, Note_on_c, 3, 60, 76
9, 260139, Note_on_c, 3, 60, 0
9, 260160, Note_on_c, 3, 56, 76
9, 260379, Note_on_c, 3, 56, 0
9, 260400, Note_on_c, 3, 58, 76
9, 260619, Note_on_c, 3, 58, 0
9, 260640, Note_on_c, 3, 55, 76
9, 260859, Note_on_c, 3, 55, 0
9, 260880, Note_on_c, 3, 56, 76
9, 261099, Note_on_c, 3, 56, 0
9, 261120, Note_on_c, 3, 53, 76
9, 261339, Note_on_c, 3, 53, 0
9, 261360, Note_on_c, 3, 55, 76
9, 261579, Note_on_c, 3, 55, 0
9, 261600, Note_on_c, 3, 51, 76
9, 261819, Note_on_c, 3, 51, 0
9, 261840, Note_on_c, 3, 53, 76
9, 262059, Note_on_c, 3, 53, 0
9, 262080, Note_on_c, 3, 50, 76
9, 262299, Note_on_c, 3, 50, 0
9, 262320, Note_on_c, 3, 48, 76
9, 262539, Note_on_c, 3, 48, 0
9, 262560, Note_on_c, 3, 47, 76
9, 262779, Note_on_c, 3, 47, 0
9, 262800, Note_on_c, 3, 48, 76
9, 263019, Note_on_c, 3, 48, 0
9, 263040, Note_on_c, 3, 50, 76
9, 263259, Note_on_c, 3, 50, 0
9, 263280, Note_on_c, 3, 48, 76
9, 263499, Note_on_c, 3, 48, 0
9, 263520, Note_on_c, 3, 50, 76
9, 263739, Note_on_c, 3, 50, 0
9, 263760, Note_on_c, 3, 52, 76
9, 263979, Note_on_c, 3, 52, 0
9, 264000, Note_on_c, 3, 53, 76
9, 264219, Note_on_c, 3, 53, 0
9, 264240, Note_on_c, 3, 52, 76
9, 264459, Note_on_c, 3, 52, 0
9, 264480, Note_on_c, 3, 53, 76
9, 264699, Note_on_c, 3, 53, 0
9, 264720, Note_on_c, 3, 55, 76
9, 264939, Note_on_c, 3, 55, 0
9, 264960, Note_on_c, 3, 44, 76
9, 264960, Note_on_c, 3, 56, 76
9, 265179, Note_on_c, 3, 44, 0
9, 265179, Note_on_c, 3, 56, 0
9, 265200, Note_on_c, 3, 43, 76
9, 265200, Note_on_c, 3, 55, 76
9, 265419, Note_on_c, 3, 43, 0
9, 265419, Note_on_c, 3, 55, 0
9, 265440, Note_on_c, 3, 45, 76
9, 265440, Note_on_c, 3, 57, 76
9, 265659, Note_on_c, 3, 45, 0
9, 265659, Note_on_c, 3, 57, 0
9, 265680, Note_on_c, 3, 47, 76
9, 265680, Note_on_c, 3, 59, 76
9, 265899, Note_on_c, 3, 47, 0
9, 265899, Note_on_c, 3, 59, 0
9, 265920, Note_on_c, 3, 60, 76
9, 265920, Note_on_c, 3, 48, 76
9, 266859, Note_on_c, 3, 60, 0
9, 266859, Note_on_c, 3, 48, 0
9, 266880, Note_on_c, 3, 44, 76
9, 266880, Note_on_c, 3, 56, 76
9, 267819, Note_on_c, 3, 44, 0
9, 267819, Note_on_c, 3, 56, 0
9, 267840, Note_on_c, 3, 39, 76
9, 267840, Note_on_c, 3, 51, 76
9, 268779, Note_on_c, 3, 39, 0
9, 268779, Note_on_c, 3, 51, 0
9, 268800, Note_on_c, 3, 41, 76
9, 268800, Note_on_c, 3, 53, 76
9, 269259, Note_on_c, 3, 41, 0
9, 269259, Note_on_c, 3, 53, 0
9, 269280, Note_on_c, 3, 51, 76
9, 269280, Note_on_c, 3, 39, 76
9, 269739, Note_on_c, 3, 51, 0
9, 269739, Note_on_c, 3, 39, 0
9, 269760, Note_on_c, 3, 50, 76
9, 269760, Note_on_c, 3, 38, 76
9, 270219, Note_on_c, 3, 50, 0
9, 270219, Note_on_c, 3, 38, 0
9, 270240, Note_on_c, 3, 53, 76
9, 270240, Note_on_c, 3, 41, 76
9, 270699, Note_on_c, 3, 53, 0
9, 270699, Note_on_c, 3, 41, 0
9, 270720, Note_on_c, 3, 51, 76
9, 270720, Note_on_c, 3, 39, 76
9, 270899, Note_on_c, 3, 51, 0
9, 270899, Note_on_c, 3, 39, 0
9, 271200, Note_on_c, 3, 36, 76
9, 271200, Note_on_c, 3, 48, 76
9, 271379, Note_on_c, 3, 36, 0
9, 271379, Note_on_c, 3, 48, 0
9, 271680, Note_on_c, 3, 41, 76
9, 271680, Note_on_c, 3, 53, 76
9, 271859, Note_on_c, 3, 41, 0
9, 271859, Note_on_c, 3, 53, 0
9, 272160, Note_on_c, 3, 38, 76
9, 272160, Note_on_c, 3, 50, 76
9, 272339, Note_on_c, 3, 38, 0
9, 272339, Note_on_c, 3, 50, 0
9, 272640, Note_on_c, 3, 55, 76
9, 272640, Note_on_c, 3, 43, 76
9, 272819, Note_on_c, 3, 55, 0
9, 272819, Note_on_c, 3, 43, 0
9, 273120, Note_on_c, 3, 43, 76
9, 273299, Note_on_c, 3, 43, 0
9, 273600, Note_on_c, 3, 48, 84
9, 273600, Note_on_c, 3, 60, 84
9, 274059, Note_on_c, 3, 48, 0
9, 274059, Note_on_c, 3, 60, 0
9, 274080, Note_on_c, 3, 50, 84
9, 274080, Note_on_c, 3, 62, 84
9, 274259, Note_on_c, 3, 50, 0
9, 274259, Note_on_c, 3, 62, 0
9, 274320, Note_on_c, 3, 63, 84
9, 274320, Note_on_c, 3, 51, 84
9, 274499, Note_on_c, 3, 63, 0
9, 274499, Note_on_c, 3, 51, 0
9, 274560, Note_on_c, 3, 53, 84
9, 274560, Note_on_c, 3, 65, 84
9, 274799, Note_on_c, 3, 53, 0
9, 274799, Note_on_c, 3, 65, 0
9, 274800, Note_on_c, 3, 62, 84
9, 274800, Note_on_c, 3, 50, 84
9, 275039, Note_on_c, 3, 62, 0
9, 275039, Note_on_c, 3, 50, 0
9, 276000, Note_on_c, 3, 53, 84
9, 276000, Note_on_c, 3, 65, 84
9, 276179, Note_on_c, 3, 53, 0
9, 276179, Note_on_c, 3, 65, 0
9, 276240, Note_on_c, 3, 55, 84
9, 276240, Note_on_c, 3, 67, 84
9, 276419, Note_on_c, 3, 55, 0
9, 276419, Note_on_c, 3, 67, 0
9, 276480, Note_on_c, 3, 56, 84
9, 276480, Note_on_c, 3, 68, 84
9, 276719, Note_on_c, 3, 56, 0
9, 276719, Note_on_c, 3, 68, 0
9, 276720, Note_on_c, 3, 53, 84
9, 276720, Note_on_c, 3, 65, 84
9, 276959, Note_on_c, 3, 53, 0
9, 276959, Note_on_c, 3, 65, 0
9, 277920, Note_on_c, 3, 60, 84
9, 277920, Note_on_c, 3, 57, 84
9, 278099, Note_on_c, 3, 60, 0
9, 278099, Note_on_c, 3, 57, 0
9, 278160, Note_on_c, 3, 59, 84
9, 278160, Note_on_c, 3, 62, 84
9, 278339, Note_on_c, 3, 59, 0
9, 278339, Note_on_c, 3, 62, 0
9, 278400, Note_on_c, 3, 60, 84
9, 278400, Note_on_c, 3, 63, 84
9, 278639, Note_on_c, 3, 60, 0
9, 278639, Note_on_c, 3, 63, 0
9, 278640, Note_on_c, 3, 55, 84
9, 278640, Note_on_c, 3, 60, 84
9, 278879, Note_on_c, 3, 55, 0
9, 278879, Note_on_c, 3, 60, 0
9, 279840, Note_on_c, 3, 57, 84
9, 279840, Note_on_c, 3, 60, 84
9, 280019, Note_on_c, 3, 57, 0
9, 280019, Note_on_c, 3, 60, 0
9, 280080, Note_on_c, 3, 62, 84
9, 280080, Note_on_c, 3, 59, 84
9, 280259, Note_on_c, 3, 62, 0
9, 280259, Note_on_c, 3, 59, 0
9, 280320, Note_on_c, 3, 60, 84
9, 280320, Note_on_c, 3, 63, 84
9, 280559, Note_on_c, 3, 60, 0
9, 280559, Note_on_c, 3, 63, 0
9, 280560, Note_on_c, 3, 62, 84
9, 280560, Note_on_c, 3, 55, 84
9, 280799, Note_on_c, 3, 62, 0
9, 280799, Note_on_c, 3, 55, 0
9, 280800, Note_on_c, 3, 56, 84
9, 280800, Note_on_c, 3, 60, 84
9, 281039, Note_on_c, 3, 56, 0
9, 281039, Note_on_c, 3, 60, 0
9, 281040, Note_on_c, 3, 51, 84
9, 281040, Note_on_c, 3, 58, 84
9, 281279, Note_on_c, 3, 51, 0
9, 281279, Note_on_c, 3, 58, 0
9, 281280, Note_on_c, 3, 53, 84
9, 281280, Note_on_c, 3, 56, 84
9, 281519, Note_on_c, 3, 53, 0
9, 281519, Note_on_c, 3, 56, 0
9, 281520, Note_on_c, 3, 48, 84
9, 281520, Note_on_c, 3, 55, 84
9, 281759, Note_on_c, 3, 48, 0
9, 281759, Note_on_c, 3, 55, 0
9, 282240, Note_on_c, 3, 53, 92
9, 282240, Note_on_c, 3, 56, 92
9, 282479, Note_on_c, 3, 53, 0
9, 282479, Note_on_c, 3, 56, 0
9, 282480, Note_on_c, 3, 48, 84
9, 282480, Note_on_c, 3, 55, 84
9, 282699, Note_on_c, 3, 48, 0
9, 282699, Note_on_c, 3, 55, 0
9, 282720, Note_on_c, 3, 56, 84
9, 282720, Note_on_c, 3, 53, 84
9, 282959, Note_on_c, 3, 56, 0
9, 282959, Note_on_c, 3, 53, 0
9, 282960, Note_on_c, 3, 51, 84
9, 282960, Note_on_c, 3, 55, 84
9, 283199, Note_on_c, 3, 51, 0
9, 283199, Note_on_c, 3, 55, 0
9, 283440, Note_on_c, 3, 63, 84
9, 283440, Note_on_c, 3, 60, 84
9, 283679, Note_on_c, 3, 63, 0
9, 283679, Note_on_c, 3, 60, 0
9, 283920, Note_on_c, 3, 59, 84
9, 283920, Note_on_c, 3, 62, 84
9, 284159, Note_on_c, 3, 59, 0
9, 284159, Note_on_c, 3, 62, 0
9, 285600, Note_on_c, 3, 53, 84
9, 285600, Note_on_c, 3, 56, 84
9, 285839, Note_on_c, 3, 53, 0
9, 285839, Note_on_c, 3, 56, 0
9, 285840, Note_on_c, 3, 51, 84
9, 285840, Note_on_c, 3, 55, 84
9, 286079, Note_on_c, 3, 51, 0
9, 286079, Note_on_c, 3, 55, 0
9, 286560, Note_on_c, 3, 53, 84
9, 286560, Note_on_c, 3, 56, 84
9, 286799, Note_on_c, 3, 53, 0
9, 286799, Note_on_c, 3, 56, 0
9, 286800, Note_on_c, 3, 55, 84
9, 286800, Note_on_c, 3, 51, 84
9, 287039, Note_on_c, 3, 55, 0
9, 287039, Note_on_c, 3, 51, 0
9, 287280, Note_on_c, 3, 55, 84
9, 287280, Note_on_c, 3, 60, 84
9, 287519, Note_on_c, 3, 55, 0
9, 287519, Note_on_c, 3, 60, 0
9, 287760, Note_on_c, 3, 55, 84
9, 287760, Note_on_c, 3, 59, 84
9, 287979, Note_on_c, 3, 55, 0
9, 287979, Note_on_c, 3, 59, 0
9, 288000, Note_on_c, 3, 51, 84
9, 288000, Note_on_c, 3, 60, 84
9, 288239, Note_on_c, 3, 51, 0
9, 288239, Note_on_c, 3, 60, 0
9, 288600, Note_on_c, 3, 62, 84
9, 288600, Note_on_c, 3, 65, 84
9, 288699, Note_on_c, 3, 62, 0
9, 288699, Note_on_c, 3, 65, 0
9, 288720, Note_on_c, 3, 65, 84
9, 288720, Note_on_c, 3, 62, 84
9, 288819, Note_on_c, 3, 65, 0
9, 288819, Note_on_c, 3, 62, 0
9, 288840, Note_on_c, 3, 65, 84
9, 288840, Note_on_c, 3, 62, 84
9, 288939, Note_on_c, 3, 65, 0
9, 288939, Note_on_c, 3, 62, 0
9, 288960, Note_on_c, 3, 65, 84
9, 288960, Note_on_c, 3, 62, 84
9, 289679, Note_on_c, 3, 65, 0
9, 289679, Note_on_c, 3, 62, 0
9, 289680, Note_on_c, 3, 63, 84
9, 289680, Note_on_c, 3, 60, 84
9, 289919, Note_on_c, 3, 63, 0
9, 289919, Note_on_c, 3, 60, 0
9, 289920, Note_on_c, 3, 59, 84
9, 289920, Note_on_c, 3, 62, 84
9, 290159, Note_on_c, 3, 59, 0
9, 290159, Note_on_c, 3, 62, 0
9, 290160, Note_on_c, 3, 65, 84
9, 290160, Note_on_c, 3, 62, 84
9, 290399, Note_on_c, 3, 65, 0
9, 290399, Note_on_c, 3, 62, 0
9, 290400, Note_on_c, 3, 63, 84
9, 290400, Note_on_c, 3, 60, 84
9, 290639, Note_on_c, 3, 63, 0
9, 290639, Note_on_c, 3, 60, 0
9, 290640, Note_on_c, 3, 59, 84
9, 290640, Note_on_c, 3, 62, 84
9, 290859, Note_on_c, 3, 59, 0
9, 290859, Note_on_c, 3, 62, 0
9, 290880, Note_on_c, 3, 60, 84
9, 290880, Note_on_c, 3, 63, 84
9, 291119, Note_on_c, 3, 60, 0
9, 291119, Note_on_c, 3, 63, 0
9, 291480, Note_on_c, 3, 55, 84
9, 291480, Note_on_c, 3, 43, 84
9, 291579, Note_on_c, 3, 55, 0
9, 291579, Note_on_c, 3, 43, 0
9, 291600, Note_on_c, 3, 55, 84
9, 291600, Note_on_c, 3, 43, 84
9, 291699, Note_on_c, 3, 55, 0
9, 291699, Note_on_c, 3, 43, 0
9, 291720, Note_on_c, 3, 43, 84
9, 291720, Note_on_c, 3, 55, 84
9, 291819, Note_on_c, 3, 43, 0
9, 291819, Note_on_c, 3, 55, 0
9, 291840, Note_on_c, 3, 43, 84
9, 291840, Note_on_c, 3, 55, 84
9, 291939, Note_on_c, 3, 43, 0
9, 291939, Note_on_c, 3, 55, 0
9, 291960, Note_on_c, 3, 43, 84
9, 291960, Note_on_c, 3, 55, 84
9, 292059, Note_on_c, 3, 43, 0
9, 292059, Note_on_c, 3, 55, 0
9, 292080, Note_on_c, 3, 43, 84
9, 292080, Note_on_c, 3, 55, 84
9, 292179, Note_on_c, 3, 43, 0
9, 292179, Note_on_c, 3, 55, 0
9, 292200, Note_on_c, 3, 43, 84
9, 292200, Note_on_c, 3, 55, 84
9, 292299, Note_on_c, 3, 43, 0
9, 292299, Note_on_c, 3, 55, 0
9, 292320, Note_on_c, 3, 55, 84
9, 292320, Note_on_c, 3, 43, 84
9, 292419, Note_on_c, 3, 55, 0
9, 292419, Note_on_c, 3, 43, 0
9, 292440, Note_on_c, 3, 43, 84
9, 292440, Note_on_c, 3, 55, 84
9, 292539, Note_on_c, 3, 43, 0
9, 292539, Note_on_c, 3, 55, 0
9, 292560, Note_on_c, 3, 55, 84
9, 292560, Note_on_c, 3, 43, 84
9, 292659, Note_on_c, 3, 55, 0
9, 292659, Note_on_c, 3, 43, 0
9, 292680, Note_on_c, 3, 55, 84
9, 292680, Note_on_c, 3, 43, 84
9, 292779, Note_on_c, 3, 55, 0
9, 292779, Note_on_c, 3, 43, 0
9, 292800, Note_on_c, 3, 39, 84
9, 292800, Note_on_c, 3, 51, 84
9, 294239, Note_on_c, 3, 39, 0
9, 294239, Note_on_c, 3, 51, 0
9, 294360, Note_on_c, 3, 41, 84
9, 294360, Note_on_c, 3, 53, 84
9, 294459, Note_on_c, 3, 41, 0
9, 294459, Note_on_c, 3, 53, 0
9, 294480, Note_on_c, 3, 53, 84
9, 294480, Note_on_c, 3, 41, 84
9, 294579, Note_on_c, 3, 53, 0
9, 294579, Note_on_c, 3, 41, 0
9, 294600, Note_on_c, 3, 41, 84
9, 294600, Note_on_c, 3, 53, 84
9, 294699, Note_on_c, 3, 41, 0
9, 294699, Note_on_c, 3, 53, 0
9, 294720, Note_on_c, 3, 50, 84
9, 294720, Note_on_c, 3, 38, 84
9, 296639, Note_on_c, 3, 50, 0
9, 296639, Note_on_c, 3, 38, 0
9, 296880, Note_on_c, 3, 67, 52
9, 297119, Note_on_c, 3, 67, 0
9, 297120, Note_on_c, 3, 63, 52
9, 298779, Note_on_c, 3, 63, 0
9, 298800, Note_on_c, 3, 67, 52
9, 299039, Note_on_c, 3, 67, 0
9, 299040, Note_on_c, 3, 63, 52
9, 300579, Note_on_c, 3, 63, 0
9, 300600, Note_on_c, 3, 62, 84
9, 300600, Note_on_c, 3, 59, 84
9, 300699, Note_on_c, 3, 62, 0
9, 300699, Note_on_c, 3, 59, 0
9, 300720, Note_on_c, 3, 59, 84
9, 300720, Note_on_c, 3, 62, 84
9, 300819, Note_on_c, 3, 59, 0
9, 300819, Note_on_c, 3, 62, 0
9, 300840, Note_on_c, 3, 59, 84
9, 300840, Note_on_c, 3, 62, 84
9, 300939, Note_on_c, 3, 59, 0
9, 300939, Note_on_c, 3, 62, 0
9, 300960, Note_on_c, 3, 63, 84
9, 300960, Note_on_c, 3, 60, 84
9, 301199, Note_on_c, 3, 63, 0
9, 301199, Note_on_c, 3, 60, 0
9, 301560, Note_on_c, 3, 62, 84
9, 301560, Note_on_c, 3, 59, 84
9, 301659, Note_on_c, 3, 62, 0
9, 301659, Note_on_c, 3, 59, 0
9, 301680, Note_on_c, 3, 59, 84
9, 301680, Note_on_c, 3, 62, 84
9, 301779, Note_on_c, 3, 59, 0
9, 301779, Note_on_c, 3, 62, 0
9, 301800, Note_on_c, 3, 59, 84
9, 301800, Note_on_c, 3, 62, 84
9, 301899, Note_on_c, 3, 59, 0
9, 301899, Note_on_c, 3, 62, 0
9, 301920, Note_on_c, 3, 60, 84
9, 301920, Note_on_c, 3, 63, 84
9, 302159, Note_on_c, 3, 60, 0
9, 302159, Note_on_c, 3, 63, 0
9, 302520, Note_on_c, 3, 59, 84
9, 302520, Note_on_c, 3, 62, 84
9, 302619, Note_on_c, 3, 59, 0
9, 302619, Note_on_c, 3, 62, 0
9, 302640, Note_on_c, 3, 59, 84
9, 302640, Note_on_c, 3, 62, 84
9, 302739, Note_on_c, 3, 59, 0
9, 302739, Note_on_c, 3, 62, 0
9, 302760, Note_on_c, 3, 62, 84
9, 302760, Note_on_c, 3, 59, 84
9, 302859, Note_on_c, 3, 62, 0
9, 302859, Note_on_c, 3, 59, 0
9, 302880, Note_on_c, 3, 60, 84
9, 302880, Note_on_c, 3, 63, 84
9, 303099, Note_on_c, 3, 60, 0
9, 303099, Note_on_c, 3, 63, 0
9, 303120, Note_on_c, 3, 62, 84
9, 303120, Note_on_c, 3, 59, 84
9, 303339, Note_on_c, 3, 62, 0
9, 303339, Note_on_c, 3, 59, 0
9, 303360, Note_on_c, 3, 63, 84
9, 303360, Note_on_c, 3, 60, 84
9, 303579, Note_on_c, 3, 63, 0
9, 303579, Note_on_c, 3, 60, 0
9, 303600, Note_on_c, 3, 59, 84
9, 303600, Note_on_c, 3, 62, 84
9, 303819, Note_on_c, 3, 59, 0
9, 303819, Note_on_c, 3, 62, 0
9, 303840, Note_on_c, 3, 60, 84
9, 303840, Note_on_c, 3, 63, 84
9, 304059, Note_on_c, 3, 60, 0
9, 304059, Note_on_c, 3, 63, 0
9, 304080, Note_on_c, 3, 62, 84
9, 304080, Note_on_c, 3, 59, 84
9, 304299, Note_on_c, 3, 62, 0
9, 304299, Note_on_c, 3, 59, 0
9, 304320, Note_on_c, 3, 60, 84
9, 304320, Note_on_c, 3, 63, 84
9, 304539, Note_on_c, 3, 60, 0
9, 304539, Note_on_c, 3, 63, 0
9, 304560, Note_on_c, 3, 59, 84
9, 304560, Note_on_c, 3, 62, 84
9, 304779, Note_on_c, 3, 59, 0
9, 304779, Note_on_c, 3, 62, 0
9, 304800, Note_on_c, 3, 63, 84
9, 304800, Note_on_c, 3, 60, 84
9, 305039, Note_on_c, 3, 63, 0
9, 305039, Note_on_c, 3, 60, 0
9, 305280, Note_on_c, 3, 59, 84
9, 305280, Note_on_c, 3, 55, 84
9, 305519, Note_on_c, 3, 59, 0
9, 305519, Note_on_c, 3, 55, 0
9, 305760, Note_on_c, 3, 60, 84
9, 305760, Note_on_c, 3, 48, 84
9, 305999, Note_on_c, 3, 60, 0
9, 305999, Note_on_c, 3, 48, 0
9, 305999, End_track
10, 0, Start_track
10, 0, Title_t, "French Horn I and II in E-flat"
10, 0, MIDI_port, 0
10, 0, Program_c, 4, 60
10, 0, Control_c, 4, 7, 96
10, 0, Control_c, 4, 10, 45
10, 0, Control_c, 4, 11, 127
10, 8280, Note_on_c, 4, 67, 58
10, 8379, Note_on_c, 4, 67, 0
10, 8400, Note_on_c, 4, 67, 64
10, 8499, Note_on_c, 4, 67, 0
10, 8520, Note_on_c, 4, 67, 70
10, 8619, Note_on_c, 4, 67, 0
10, 8640, Note_on_c, 4, 67, 76
10, 8879, Note_on_c, 4, 67, 0
10, 9120, Note_on_c, 4, 51, 76
10, 9120, Note_on_c, 4, 63, 76
10, 9359, Note_on_c, 4, 51, 0
10, 9359, Note_on_c, 4, 63, 0
10, 9600, Note_on_c, 4, 67, 76
10, 9600, Note_on_c, 4, 55, 76
10, 9839, Note_on_c, 4, 67, 0
10, 9839, Note_on_c, 4, 55, 0
10, 10200, Note_on_c, 4, 68, 84
10, 10299, Note_on_c, 4, 68, 0
10, 10320, Note_on_c, 4, 68, 84
10, 10419, Note_on_c, 4, 68, 0
10, 10440, Note_on_c, 4, 68, 84
10, 10539, Note_on_c, 4, 68, 0
10, 10560, Note_on_c, 4, 65, 84
10, 11519, Note_on_c, 4, 65, 0
10, 15000, Note_on_c, 4, 55, 52
10, 15000, Note_on_c, 4, 67, 52
10, 15099, Note_on_c, 4, 55, 0
10, 15099, Note_on_c, 4, 67, 0
10, 15120, Note_on_c, 4, 55, 52
10, 15120, Note_on_c, 4, 67, 52
10, 15219, Note_on_c, 4, 55, 0
10, 15219, Note_on_c, 4, 67, 0
10, 15240, Note_on_c, 4, 55, 52
10, 15240, Note_on_c, 4, 67, 52
10, 15339, Note_on_c, 4, 55, 0
10, 15339, Note_on_c, 4, 67, 0
10, 15360, Note_on_c, 4, 55, 52
10, 15360, Note_on_c, 4, 67, 52
10, 15599, Note_on_c, 4, 55, 0
10, 15599, Note_on_c, 4, 67, 0
10, 15840, Note_on_c, 4, 68, 52
10, 15840, Note_on_c, 4, 65, 52
10, 16559, Note_on_c, 4, 68, 0
10, 16559, Note_on_c, 4, 65, 0
10, 20160, Note_on_c, 4, 65, 76
10, 20160, Note_on_c, 4, 68, 76
10, 20399, Note_on_c, 4, 65, 0
10, 20399, Note_on_c, 4, 68, 0
10, 20640, Note_on_c, 4, 63, 76
10, 20640, Note_on_c, 4, 67, 76
10, 22539, Note_on_c, 4, 63, 0
10, 22539, Note_on_c, 4, 67, 0
10, 22560, Note_on_c, 4, 67, 76
10, 22560, Note_on_c, 4, 65, 76
10, 24219, Note_on_c, 4, 67, 0
10, 24219, Note_on_c, 4, 65, 0
10, 24240, Note_on_c, 4, 67, 76
10, 24240, Note_on_c, 4, 63, 76
10, 24459, Note_on_c, 4, 67, 0
10, 24459, Note_on_c, 4, 63, 0
10, 24480, Note_on_c, 4, 63, 84
10, 24480, Note_on_c, 4, 66, 84
10, 26379, Note_on_c, 4, 63, 0
10, 26379, Note_on_c, 4, 66, 0
10, 26400, Note_on_c, 4, 63, 84
10, 26400, Note_on_c, 4, 66, 84
10, 26639, Note_on_c, 4, 63, 0
10, 26639, Note_on_c, 4, 66, 0
10, 27360, Note_on_c, 4, 58, 84
10, 27360, Note_on_c, 4, 65, 84
10, 27599, Note_on_c, 4, 58, 0
10, 27599, Note_on_c, 4, 65, 0
10, 27960, Note_on_c, 4, 70, 84
10, 28059, Note_on_c, 4, 70, 0
10, 28080, Note_on_c, 4, 70, 84
10, 28179, Note_on_c, 4, 70, 0
10, 28200, Note_on_c, 4, 70, 84
10, 28299, Note_on_c, 4, 70, 0
10, 28320, Note_on_c, 4, 63, 92
10, 28759, Note_on_c, 4, 63, 0
10, 28800, Note_on_c, 4, 65, 92
10, 29239, Note_on_c, 4, 65, 0
10, 29280, Note_on_c, 4, 58, 92
10, 29400, Control_c, 4, 11, 112
10, 29440, Control_c, 4, 11, 105
10, 29480, Control_c, 4, 11, 98
10, 29520, Control_c, 4, 11, 91
10, 29560, Control_c, 4, 11, 84
10, 29600, Control_c, 4, 11, 76
10, 29640, Control_c, 4, 11, 69
10, 29680, Control_c, 4, 11, 62
10, 29720, Control_c, 4, 11, 55
10, 29760, Control_c, 4, 11, 48
10, 31199, Note_on_c, 4, 58, 0
10, 31200, Note_on_c, 4, 58, 92
10, 33119, Note_on_c, 4, 58, 0
10, 33120, Note_on_c, 4, 58, 92
10, 35519, Note_on_c, 4, 58, 0
10, 39120, Control_c, 4, 11, 64
10, 39360, Note_on_c, 4, 51, 84
10, 39360, Note_on_c, 4, 63, 84
10, 39840, Control_c, 4, 11, 64
10, 39940, Control_c, 4, 11, 65
10, 40040, Control_c, 4, 11, 67
10, 40140, Control_c, 4, 11, 68
10, 40240, Control_c, 4, 11, 69
10, 40340, Control_c, 4, 11, 71
10, 40440, Control_c, 4, 11, 72
10, 40540, Control_c, 4, 11, 73
10, 40640, Control_c, 4, 11, 75
10, 40740, Control_c, 4, 11, 76
10, 40840, Control_c, 4, 11, 77
10, 40940, Control_c, 4, 11, 78
10, 41040, Control_c, 4, 11, 80
10, 41140, Control_c, 4, 11, 81
10, 41240, Control_c, 4, 11, 82
10, 41279, Note_on_c, 4, 51, 0
10, 41279, Note_on_c, 4, 63, 0
10, 41280, Note_on_c, 4, 63, 84
10, 41280, Note_on_c, 4, 51, 84
10, 41340, Control_c, 4, 11, 84
10, 41440, Control_c, 4, 11, 85
10, 41540, Control_c, 4, 11, 86
10, 41640, Control_c, 4, 11, 88
10, 41740, Control_c, 4, 11, 89
10, 41840, Control_c, 4, 11, 90
10, 41940, Control_c, 4, 11, 92
10, 42040, Control_c, 4, 11, 93
10, 42140, Control_c, 4, 11, 94
10, 42240, Control_c, 4, 11, 96
10, 42340, Control_c, 4, 11, 97
10, 42440, Control_c, 4, 11, 98
10, 42540, Control_c, 4, 11, 99
10, 42640, Control_c, 4, 11, 101
10, 42740, Control_c, 4, 11, 102
10, 42840, Control_c, 4, 11, 103
10, 42940, Control_c, 4, 11, 105
10, 43040, Control_c, 4, 11, 106
10, 43140, Control_c, 4, 11, 107
10, 43240, Control_c, 4, 11, 109
10, 43340, Control_c, 4, 11, 110
10, 43440, Control_c, 4, 11, 111
10, 43540, Control_c, 4, 11, 113
10, 43640, Control_c, 4, 11, 114
10, 43740, Control_c, 4, 11, 115
10, 43840, Control_c, 4, 11, 117
10, 43899, Note_on_c, 4, 63, 0
10, 43899, Note_on_c, 4, 51, 0
10, 43920, Note_on_c, 4, 63, 84
10, 43920, Note_on_c, 4, 51, 84
10, 43940, Control_c, 4, 11, 118
10, 44040, Control_c, 4, 11, 119
10, 44139, Note_on_c, 4, 63, 0
10, 44139, Note_on_c, 4, 51, 0
10, 44140, Control_c, 4, 11, 120
10, 44160, Note_on_c, 4, 63, 84
10, 44160, Note_on_c, 4, 51, 84
10, 44240, Control_c, 4, 11, 122
10, 44340, Control_c, 4, 11, 123
10, 44379, Note_on_c, 4, 63, 0
10, 44379, Note_on_c, 4, 51, 0
10, 44400, Note_on_c, 4, 51, 84
10, 44400, Note_on_c, 4, 63, 84
10, 44440, Control_c, 4, 11, 124
10, 44540, Control_c, 4, 11, 127
10, 44619, Note_on_c, 4, 51, 0
10, 44619, Note_on_c, 4, 63, 0
10, 44640, Note_on_c, 4, 58, 84
10, 44640, Note_on_c, 4, 65, 84
10, 45339, Note_on_c, 4, 58, 0
10, 45339, Note_on_c, 4, 65, 0
10, 45360, Note_on_c, 4, 46, 84
10, 45360, Note_on_c, 4, 58, 84
10, 45599, Note_on_c, 4, 46, 0
10, 45599, Note_on_c, 4, 58, 0
10, 45600, Note_on_c, 4, 58, 84
10, 45600, Note_on_c, 4, 46, 84
10, 45839, Note_on_c, 4, 58, 0
10, 45839, Note_on_c, 4, 46, 0
10, 46080, Note_on_c, 4, 46, 84
10, 46080, Note_on_c, 4, 58, 84
10, 46319, Note_on_c, 4, 46, 0
10, 46319, Note_on_c, 4, 58, 0
10, 46560, Note_on_c, 4, 46, 84
10, 46560, Note_on_c, 4, 58, 84
10, 46799, Note_on_c, 4, 46, 0
10, 46799, Note_on_c, 4, 58, 0
10, 47040, Note_on_c, 4, 51, 84
10, 47040, Note_on_c, 4, 63, 84
10, 47279, Note_on_c, 4, 51, 0
10, 47279, Note_on_c, 4, 63, 0
10, 47520, Note_on_c, 4, 67, 84
10, 47520, Note_on_c, 4, 63, 84
10, 47759, Note_on_c, 4, 67, 0
10, 47759, Note_on_c, 4, 63, 0
10, 48000, Note_on_c, 4, 65, 84
10, 48000, Note_on_c, 4, 58, 84
10, 48219, Note_on_c, 4, 65, 0
10, 48219, Note_on_c, 4, 58, 0
10, 48240, Note_on_c, 4, 58, 84
10, 48240, Note_on_c, 4, 46, 84
10, 49659, Note_on_c, 4, 58, 0
10, 49659, Note_on_c, 4, 46, 0
10, 49680, Note_on_c, 4, 58, 84
10, 49680, Note_on_c, 4, 46, 84
10, 49919, Note_on_c, 4, 58, 0
10, 49919, Note_on_c, 4, 46, 0
10, 50160, Note_on_c, 4, 46, 84
10, 50160, Note_on_c, 4, 58, 84
10, 50399, Note_on_c, 4, 46, 0
10, 50399, Note_on_c, 4, 58, 0
10, 50640, Note_on_c, 4, 51, 84
10, 50640, Note_on_c, 4, 63, 84
10, 50879, Note_on_c, 4, 51, 0
10, 50879, Note_on_c, 4, 63, 0
10, 51120, Note_on_c, 4, 51, 84
10, 51120, Note_on_c, 4, 63, 84
10, 51359, Note_on_c, 4, 51, 0
10, 51359, Note_on_c, 4, 63, 0
10, 51600, Note_on_c, 4, 63, 84
10, 51600, Note_on_c, 4, 51, 84
10, 51839, Note_on_c, 4, 63, 0
10, 51839, Note_on_c, 4, 51, 0
10, 52080, Note_on_c, 4, 58, 84
10, 52080, Note_on_c, 4, 46, 84
10, 52299, Note_on_c, 4, 58, 0
10, 52299, Note_on_c, 4, 46, 0
10, 52320, Note_on_c, 4, 63, 84
10, 52320, Note_on_c, 4, 51, 84
10, 52559, Note_on_c, 4, 63, 0
10, 52559, Note_on_c, 4, 51, 0
10, 52920, Note_on_c, 4, 70, 84
10, 52920, Note_on_c, 4, 58, 84
10, 53019, Note_on_c, 4, 70, 0
10, 53019, Note_on_c, 4, 58, 0
10, 53040, Note_on_c, 4, 58, 84
10, 53040, Note_on_c, 4, 70, 84
10, 53139, Note_on_c, 4, 58, 0
10, 53139, Note_on_c, 4, 70, 0
10, 53160, Note_on_c, 4, 58, 84
10, 53160, Note_on_c, 4, 70, 84
10, 53259, Note_on_c, 4, 58, 0
10, 53259, Note_on_c, 4, 70, 0
10, 53280, Note_on_c, 4, 67, 84
10, 53280, Note_on_c, 4, 55, 84
10, 53379, Note_on_c, 4, 67, 0
10, 53379, Note_on_c, 4, 55, 0
10, 53400, Note_on_c, 4, 63, 84
10, 53400, Note_on_c, 4, 51, 84
10, 53499, Note_on_c, 4, 63, 0
10, 53499, Note_on_c, 4, 51, 0
10, 53520, Note_on_c, 4, 63, 84
10, 53520, Note_on_c, 4, 51, 84
10, 53619, Note_on_c, 4, 63, 0
10, 53619, Note_on_c, 4, 51, 0
10, 53640, Note_on_c, 4, 51, 84
10, 53640, Note_on_c, 4, 63, 84
10, 53739, Note_on_c, 4, 51, 0
10, 53739, Note_on_c, 4, 63, 0
10, 53760, Note_on_c, 4, 58, 84
10, 53760, Note_on_c, 4, 46, 84
10, 54479, Note_on_c, 4, 58, 0
10, 54479, Note_on_c, 4, 46, 0
10, 54840, Note_on_c, 4, 70, 84
10, 54840, Note_on_c, 4, 58, 84
10, 54939, Note_on_c, 4, 70, 0
10, 54939, Note_on_c, 4, 58, 0
10, 54960, Note_on_c, 4, 58, 84
10, 54960, Note_on_c, 4, 70, 84
10, 55059, Note_on_c, 4, 58, 0
10, 55059, Note_on_c, 4, 70, 0
10, 55080, Note_on_c, 4, 70, 84
10, 55080, Note_on_c, 4, 58, 84
10, 55179, Note_on_c, 4, 70, 0
10, 55179, Note_on_c, 4, 58, 0
10, 55200, Note_on_c, 4, 55, 84
10, 55200, Note_on_c, 4, 67, 84
10, 55299, Note_on_c, 4, 55, 0
10, 55299, Note_on_c, 4, 67, 0
10, 55320, Note_on_c, 4, 63, 84
10, 55320, Note_on_c, 4, 51, 84
10, 55419, Note_on_c, 4, 63, 0
10, 55419, Note_on_c, 4, 51, 0
10, 55440, Note_on_c, 4, 51, 84
10, 55440, Note_on_c, 4, 63, 84
10, 55539, Note_on_c, 4, 51, 0
10, 55539, Note_on_c, 4, 63, 0
10, 55560, Note_on_c, 4, 63, 84
10, 55560, Note_on_c, 4, 51, 84
10, 55659, Note_on_c, 4, 63, 0
10, 55659, Note_on_c, 4, 51, 0
10, 55680, Note_on_c, 4, 46, 84
10, 55680, Note_on_c, 4, 58, 84
10, 56399, Note_on_c, 4, 46, 0
10, 56399, Note_on_c, 4, 58, 0
10, 56760, Note_on_c, 4, 46, 84
10, 56760, Note_on_c, 4, 58, 84
10, 56859, Note_on_c, 4, 46, 0
10, 56859, Note_on_c, 4, 58, 0
10, 56880, Note_on_c, 4, 58, 84
10, 56880, Note_on_c, 4, 46, 84
10, 56979, Note_on_c, 4, 58, 0
10, 56979, Note_on_c, 4, 46, 0
10, 57000, Note_on_c, 4, 58, 84
10, 57000, Note_on_c, 4, 46, 84
10, 57099, Note_on_c, 4, 58, 0
10, 57099, Note_on_c, 4, 46, 0
10, 57120, Note_on_c, 4, 63, 84
10, 57120, Note_on_c, 4, 51, 84
10, 57359, Note_on_c, 4, 63, 0
10, 57359, Note_on_c, 4, 51, 0
10, 57720, Note_on_c, 4, 65, 84
10, 57720, Note_on_c, 4, 58, 84
10, 57819, Note_on_c, 4, 65, 0
10, 57819, Note_on_c, 4, 58, 0
10, 57840, Note_on_c, 4, 58, 84
10, 57840, Note_on_c, 4, 65, 84
10, 57939, Note_on_c, 4, 58, 0
10, 57939, Note_on_c, 4, 65, 0
10, 57960, Note_on_c, 4, 58, 84
10, 57960, Note_on_c, 4, 65, 84
10, 58059, Note_on_c, 4, 58, 0
10, 58059, Note_on_c, 4, 65, 0
10, 58080, Note_on_c, 4, 63, 84
10, 58080, Note_on_c, 4, 51, 84
10, 58319, Note_on_c, 4, 63, 0
10, 58319, Note_on_c, 4, 51, 0
10, 67800, Note_on_c, 4, 67, 58
10, 67899, Note_on_c, 4, 67, 0
10, 67920, Note_on_c, 4, 67, 64
10, 68019, Note_on_c, 4, 67, 0
10, 68040, Note_on_c, 4, 67, 70
10, 68139, Note_on_c, 4, 67, 0
10, 68160, Note_on_c, 4, 67, 76
10, 68399, Note_on_c, 4, 67, 0
10, 68640, Note_on_c, 4, 51, 76
10, 68640, Note_on_c, 4, 63, 76
10, 68879, Note_on_c, 4, 51, 0
10, 68879, Note_on_c, 4, 63, 0
10, 69120, Note_on_c, 4, 67, 76
10, 69120, Note_on_c, 4, 55, 76
10, 69359, Note_on_c, 4, 67, 0
10, 69359, Note_on_c, 4, 55, 0
10, 69720, Note_on_c, 4, 68, 84
10, 69819, Note_on_c, 4, 68, 0
10, 69840, Note_on_c, 4, 68, 84
10, 69939, Note_on_c, 4, 68, 0
10, 69960, Note_on_c, 4, 68, 84
10, 70059, Note_on_c, 4, 68, 0
10, 70080, Note_on_c, 4, 65, 84
10, 71039, Note_on_c, 4, 65, 0
10, 74520, Note_on_c, 4, 67, 52
10, 74520, Note_on_c, 4, 55, 52
10, 74619, Note_on_c, 4, 67, 0
10, 74619, Note_on_c, 4, 55, 0
10, 74640, Note_on_c, 4, 55, 52
10, 74640, Note_on_c, 4, 67, 52
10, 74739, Note_on_c, 4, 55, 0
10, 74739, Note_on_c, 4, 67, 0
10, 74760, Note_on_c, 4, 55, 52
10, 74760, Note_on_c, 4, 67, 52
10, 74859, Note_on_c, 4, 55, 0
10, 74859, Note_on_c, 4, 67, 0
10, 74880, Note_on_c, 4, 55, 52
10, 74880, Note_on_c, 4, 67, 52
10, 75119, Note_on_c, 4, 55, 0
10, 75119, Note_on_c, 4, 67, 0
10, 75360, Note_on_c, 4, 68, 52
10, 75360, Note_on_c, 4, 65, 52
10, 76079, Note_on_c, 4, 68, 0
10, 76079, Note_on_c, 4, 65, 0
10, 79680, Note_on_c, 4, 68, 76
10, 79680, Note_on_c, 4, 65, 76
10, 79919, Note_on_c, 4, 68, 0
10, 79919, Note_on_c, 4, 65, 0
10, 80160, Note_on_c, 4, 67, 76
10, 80160, Note_on_c, 4, 63, 76
10, 82059, Note_on_c, 4, 67, 0
10, 82059, Note_on_c, 4, 63, 0
10, 82080, Note_on_c, 4, 67, 76
10, 82080, Note_on_c, 4, 65, 76
10, 83739, Note_on_c, 4, 67, 0
10, 83739, Note_on_c, 4, 65, 0
10, 83760, Note_on_c, 4, 63, 76
10, 83760, Note_on_c, 4, 67, 76
10, 83979, Note_on_c, 4, 63, 0
10, 83979, Note_on_c, 4, 67, 0
10, 84000, Note_on_c, 4, 63, 84
10, 84000, Note_on_c, 4, 66, 84
10, 85899, Note_on_c, 4, 63, 0
10, 85899, Note_on_c, 4, 66, 0
10, 85920, Note_on_c, 4, 63, 84
10, 85920, Note_on_c, 4, 66, 84
10, 86159, Note_on_c, 4, 63, 0
10, 86159, Note_on_c, 4, 66, 0
10, 86880, Note_on_c, 4, 58, 84
10, 86880, Note_on_c, 4, 65, 84
10, 87119, Note_on_c, 4, 58, 0
10, 87119, Note_on_c, 4, 65, 0
10, 87480, Note_on_c, 4, 70, 84
10, 87579, Note_on_c, 4, 70, 0
10, 87600, Note_on_c, 4, 70, 84
10, 87699, Note_on_c, 4, 70, 0
10, 87720, Note_on_c, 4, 70, 84
10, 87819, Note_on_c, 4, 70, 0
10, 87840, Note_on_c, 4, 63, 92
10, 88279, Note_on_c, 4, 63, 0
10, 88320, Note_on_c, 4, 65, 92
10, 88759, Note_on_c, 4, 65, 0
10, 88800, Note_on_c, 4, 58, 92
10, 88920, Control_c, 4, 11, 112
10, 88960, Control_c, 4, 11, 105
10, 89000, Control_c, 4, 11, 98
10, 89040, Control_c, 4, 11, 91
10, 89080, Control_c, 4, 11, 84
10, 89120, Control_c, 4, 11, 76
10, 89160, Control_c, 4, 11, 69
10, 89200, Control_c, 4, 11, 62
10, 89240, Control_c, 4, 11, 55
10, 89280, Control_c, 4, 11, 48
10, 90719, Note_on_c, 4, 58, 0
10, 90720, Note_on_c, 4, 58, 92
10, 92639, Note_on_c, 4, 58, 0
10, 92640, Note_on_c, 4, 58, 92
10, 95039, Note_on_c, 4, 58, 0
10, 98640, Control_c, 4, 11, 64
10, 98880, Note_on_c, 4, 51, 84
10, 98880, Note_on_c, 4, 63, 84
10, 99360, Control_c, 4, 11, 64
10, 99460, Control_c, 4, 11, 65
10, 99560, Control_c, 4, 11, 67
10, 99660, Control_c, 4, 11, 68
10, 99760, Control_c, 4, 11, 69
10, 99860, Control_c, 4, 11, 71
10, 99960, Control_c, 4, 11, 72
10, 100060, Control_c, 4, 11, 73
10, 100160, Control_c, 4, 11, 75
10, 100260, Control_c, 4, 11, 76
10, 100360, Control_c, 4, 11, 77
10, 100460, Control_c, 4, 11, 78
10, 100560, Control_c, 4, 11, 80
10, 100660, Control_c, 4, 11, 81
10, 100760, Control_c, 4, 11, 82
10, 100799, Note_on_c, 4, 51, 0
10, 100799, Note_on_c, 4, 63, 0
10, 100800, Note_on_c, 4, 51, 84
10, 100800, Note_on_c, 4, 63, 84
10, 100860, Control_c, 4, 11, 84
10, 100960, Control_c, 4, 11, 85
10, 101060, Control_c, 4, 11, 86
10, 101160, Control_c, 4, 11, 88
10, 101260, Control_c, 4, 11, 89
10, 101360, Control_c, 4, 11, 90
10, 101460, Control_c, 4, 11, 92
10, 101560, Control_c, 4, 11, 93
10, 101660, Control_c, 4, 11, 94
10, 101760, Control_c, 4, 11, 96
10, 101860, Control_c, 4, 11, 97
10, 101960, Control_c, 4, 11, 98
10, 102060, Control_c, 4, 11, 99
10, 102160, Control_c, 4, 11, 101
10, 102260, Control_c, 4, 11, 102
10, 102360, Control_c, 4, 11, 103
10, 102460, Control_c, 4, 11, 105
10, 102560, Control_c, 4, 11, 106
10, 102660, Control_c, 4, 11, 107
10, 102760, Control_c, 4, 11, 109
10, 102860, Control_c, 4, 11, 110
10, 102960, Control_c, 4, 11, 111
10, 103060, Control_c, 4, 11, 113
10, 103160, Control_c, 4, 11, 114
10, 103260, Control_c, 4, 11, 115
10, 103360, Control_c, 4, 11, 117
10, 103419, Note_on_c, 4, 51, 0
10, 103419, Note_on_c, 4, 63, 0
10, 103440, Note_on_c, 4, 51, 84
10, 103440, Note_on_c, 4, 63, 84
10, 103460, Control_c, 4, 11, 118
10, 103560, Control_c, 4, 11, 119
10, 103659, Note_on_c, 4, 51, 0
10, 103659, Note_on_c, 4, 63, 0
10, 103660, Control_c, 4, 11, 120
10, 103680, Note_on_c, 4, 63, 84
10, 103680, Note_on_c, 4, 51, 84
10, 103760, Control_c, 4, 11, 122
10, 103860, Control_c, 4, 11, 123
10, 103899, Note_on_c, 4, 63, 0
10, 103899, Note_on_c, 4, 51, 0
10, 103920, Note_on_c, 4, 51, 84
10, 103920, Note_on_c, 4, 63, 84
10, 103960, Control_c, 4, 11, 124
10, 104060, Control_c, 4, 11, 127
10, 104139, Note_on_c, 4, 51, 0
10, 104139, Note_on_c, 4, 63, 0
10, 104160, Note_on_c, 4, 58, 84
10, 104160, Note_on_c, 4, 65, 84
10, 104859, Note_on_c, 4, 58, 0
10, 104859, Note_on_c, 4, 65, 0
10, 104880, Note_on_c, 4, 58, 84
10, 104880, Note_on_c, 4, 46, 84
10, 105119, Note_on_c, 4, 58, 0
10, 105119, Note_on_c, 4, 46, 0
10, 105120, Note_on_c, 4, 46, 84
10, 105120, Note_on_c, 4, 58, 84
10, 105359, Note_on_c, 4, 46, 0
10, 105359, Note_on_c, 4, 58, 0
10, 105600, Note_on_c, 4, 58, 84
10, 105600, Note_on_c, 4, 46, 84
10, 105839, Note_on_c, 4, 58, 0
10, 105839, Note_on_c, 4, 46, 0
10, 106080, Note_on_c, 4, 46, 84
10, 106080, Note_on_c, 4, 58, 84
10, 106319, Note_on_c, 4, 46, 0
10, 106319, Note_on_c, 4, 58, 0
10, 106560, Note_on_c, 4, 51, 84
10, 106560, Note_on_c, 4, 63, 84
10, 106799, Note_on_c, 4, 51, 0
10, 106799, Note_on_c, 4, 63, 0
10, 107040, Note_on_c, 4, 63, 84
10, 107040, Note_on_c, 4, 67, 84
10, 107279, Note_on_c, 4, 63, 0
10, 107279, Note_on_c, 4, 67, 0
10, 107520, Note_on_c, 4, 65, 84
10, 107520, Note_on_c, 4, 58, 84
10, 107739, Note_on_c, 4, 65, 0
10, 107739, Note_on_c, 4, 58, 0
10, 107760, Note_on_c, 4, 58, 84
10, 107760, Note_on_c, 4, 46, 84
10, 109179, Note_on_c, 4, 58, 0
10, 109179, Note_on_c, 4, 46, 0
10, 109200, Note_on_c, 4, 46, 84
10, 109200, Note_on_c, 4, 58, 84
10, 109439, Note_on_c, 4, 46, 0
10, 109439, Note_on_c, 4, 58, 0
10, 109680, Note_on_c, 4, 46, 84
10, 109680, Note_on_c, 4, 58, 84
10, 109919, Note_on_c, 4, 46, 0
10, 109919, Note_on_c, 4, 58, 0
10, 110160, Note_on_c, 4, 51, 84
10, 110160, Note_on_c, 4, 63, 84
10, 110399, Note_on_c, 4, 51, 0
10, 110399, Note_on_c, 4, 63, 0
10, 110640, Note_on_c, 4, 63, 84
10, 110640, Note_on_c, 4, 51, 84
10, 110879, Note_on_c, 4, 63, 0
10, 110879, Note_on_c, 4, 51, 0
10, 111120, Note_on_c, 4, 51, 84
10, 111120, Note_on_c, 4, 63, 84
10, 111359, Note_on_c, 4, 51, 0
10, 111359, Note_on_c, 4, 63, 0
10, 111600, Note_on_c, 4, 46, 84
10, 111600, Note_on_c, 4, 58, 84
10, 111819, Note_on_c, 4, 46, 0
10, 111819, Note_on_c, 4, 58, 0
10, 111840, Note_on_c, 4, 51, 84
10, 111840, Note_on_c, 4, 63, 84
10, 112079, Note_on_c, 4, 51, 0
10, 112079, Note_on_c, 4, 63, 0
10, 112440, Note_on_c, 4, 58, 84
10, 112440, Note_on_c, 4, 70, 84
10, 112539, Note_on_c, 4, 58, 0
10, 112539, Note_on_c, 4, 70, 0
10, 112560, Note_on_c, 4, 70, 84
10, 112560, Note_on_c, 4, 58, 84
10, 112659, Note_on_c, 4, 70, 0
10, 112659, Note_on_c, 4, 58, 0
10, 112680, Note_on_c, 4, 70, 84
10, 112680, Note_on_c, 4, 58, 84
10, 112779, Note_on_c, 4, 70, 0
10, 112779, Note_on_c, 4, 58, 0
10, 112800, Note_on_c, 4, 67, 84
10, 112800, Note_on_c, 4, 55, 84
10, 112899, Note_on_c, 4, 67, 0
10, 112899, Note_on_c, 4, 55, 0
10, 112920, Note_on_c, 4, 51, 84
10, 112920, Note_on_c, 4, 63, 84
10, 113019, Note_on_c, 4, 51, 0
10, 113019, Note_on_c, 4, 63, 0
10, 113040, Note_on_c, 4, 63, 84
10, 113040, Note_on_c, 4, 51, 84
10, 113139, Note_on_c, 4, 63, 0
10, 113139, Note_on_c, 4, 51, 0
10, 113160, Note_on_c, 4, 63, 84
10, 113160, Note_on_c, 4, 51, 84
10, 113259, Note_on_c, 4, 63, 0
10, 113259, Note_on_c, 4, 51, 0
10, 113280, Note_on_c, 4, 58, 84
10, 113280, Note_on_c, 4, 46, 84
10, 113999, Note_on_c, 4, 58, 0
10, 113999, Note_on_c, 4, 46, 0
10, 114360, Note_on_c, 4, 70, 84
10, 114360, Note_on_c, 4, 58, 84
10, 114459, Note_on_c, 4, 70, 0
10, 114459, Note_on_c, 4, 58, 0
10, 114480, Note_on_c, 4, 70, 84
10, 114480, Note_on_c, 4, 58, 84
10, 114579, Note_on_c, 4, 70, 0
10, 114579, Note_on_c, 4, 58, 0
10, 114600, Note_on_c, 4, 70, 84
10, 114600, Note_on_c, 4, 58, 84
10, 114699, Note_on_c, 4, 70, 0
10, 114699, Note_on_c, 4, 58, 0
10, 114720, Note_on_c, 4, 67, 84
10, 114720, Note_on_c, 4, 55, 84
10, 114819, Note_on_c, 4, 67, 0
10, 114819, Note_on_c, 4, 55, 0
10, 114840, Note_on_c, 4, 63, 84
10, 114840, Note_on_c, 4, 51, 84
10, 114939, Note_on_c, 4, 63, 0
10, 114939, Note_on_c, 4, 51, 0
10, 114960, Note_on_c, 4, 51, 84
10, 114960, Note_on_c, 4, 63, 84
10, 115059, Note_on_c, 4, 51, 0
10, 115059, Note_on_c, 4, 63, 0
10, 115080, Note_on_c, 4, 63, 84
10, 115080, Note_on_c, 4, 51, 84
10, 115179, Note_on_c, 4, 63, 0
10, 115179, Note_on_c, 4, 51, 0
10, 115200, Note_on_c, 4, 58, 84
10, 115200, Note_on_c, 4, 46, 84
10, 115919, Note_on_c, 4, 58, 0
10, 115919, Note_on_c, 4, 46, 0
10, 116280, Note_on_c, 4, 46, 84
10, 116280, Note_on_c, 4, 58, 84
10, 116379, Note_on_c, 4, 46, 0
10, 116379, Note_on_c, 4, 58, 0
10, 116400, Note_on_c, 4, 46, 84
10, 116400, Note_on_c, 4, 58, 84
10, 116499, Note_on_c, 4, 46, 0
10, 116499, Note_on_c, 4, 58, 0
10, 116520, Note_on_c, 4, 58, 84
10, 116520, Note_on_c, 4, 46, 84
10, 116619, Note_on_c, 4, 58, 0
10, 116619, Note_on_c, 4, 46, 0
10, 116640, Note_on_c, 4, 63, 84
10, 116640, Note_on_c, 4, 51, 84
10, 116879, Note_on_c, 4, 63, 0
10, 116879, Note_on_c, 4, 51, 0
10, 117240, Note_on_c, 4, 58, 84
10, 117240, Note_on_c, 4, 65, 84
10, 117339, Note_on_c, 4, 58, 0
10, 117339, Note_on_c, 4, 65, 0
10, 117360, Note_on_c, 4, 65, 84
10, 117360, Note_on_c, 4, 58, 84
10, 117459, Note_on_c, 4, 65, 0
10, 117459, Note_on_c, 4, 58, 0
10, 117480, Note_on_c, 4, 58, 84
10, 117480, Note_on_c, 4, 65, 84
10, 117579, Note_on_c, 4, 58, 0
10, 117579, Note_on_c, 4, 65, 0
10, 117600, Note_on_c, 4, 63, 84
10, 117600, Note_on_c, 4, 51, 84
10, 117839, Note_on_c, 4, 63, 0
10, 117839, Note_on_c, 4, 51, 0
10, 119160, Note_on_c, 4, 70, 84
10, 119279, Note_on_c, 4, 70, 0
10, 119280, Note_on_c, 4, 70, 84
10, 119399, Note_on_c, 4, 70, 0
10, 119400, Note_on_c, 4, 70, 84
10, 119519, Note_on_c, 4, 70, 0
10, 119520, Note_on_c, 4, 67, 84
10, 120959, Note_on_c, 4, 67, 0
10, 127920, Note_on_c, 4, 63, 52
10, 128139, Note_on_c, 4, 63, 0
10, 128160, Note_on_c, 4, 65, 60
10, 128379, Note_on_c, 4, 65, 0
10, 128400, Note_on_c, 4, 66, 68
10, 128619, Note_on_c, 4, 66, 0
10, 128640, Note_on_c, 4, 55, 52
10, 128640, Note_on_c, 4, 67, 52
10, 131279, Note_on_c, 4, 55, 0
10, 131279, Note_on_c, 4, 67, 0
10, 135000, Note_on_c, 4, 55, 52
10, 135000, Note_on_c, 4, 67, 52
10, 135099, Note_on_c, 4, 55, 0
10, 135099, Note_on_c, 4, 67, 0
10, 135120, Note_on_c, 4, 55, 52
10, 135120, Note_on_c, 4, 67, 52
10, 135219, Note_on_c, 4, 55, 0
10, 135219, Note_on_c, 4, 67, 0
10, 135240, Note_on_c, 4, 55, 52
10, 135240, Note_on_c, 4, 67, 52
10, 135339, Note_on_c, 4, 55, 0
10, 135339, Note_on_c, 4, 67, 0
10, 135360, Note_on_c, 4, 67, 52
10, 135360, Note_on_c, 4, 55, 52
10, 135599, Note_on_c, 4, 67, 0
10, 135599, Note_on_c, 4, 55, 0
10, 135960, Note_on_c, 4, 63, 52
10, 135960, Note_on_c, 4, 51, 52
10, 136059, Note_on_c, 4, 63, 0
10, 136059, Note_on_c, 4, 51, 0
10, 136080, Note_on_c, 4, 63, 52
10, 136080, Note_on_c, 4, 51, 52
10, 136179, Note_on_c, 4, 63, 0
10, 136179, Note_on_c, 4, 51, 0
10, 136200, Note_on_c, 4, 63, 52
10, 136200, Note_on_c, 4, 51, 52
10, 136299, Note_on_c, 4, 63, 0
10, 136299, Note_on_c, 4, 51, 0
10, 136320, Note_on_c, 4, 63, 52
10, 136320, Note_on_c, 4, 51, 52
10, 136559, Note_on_c, 4, 63, 0
10, 136559, Note_on_c, 4, 51, 0
10, 136920, Note_on_c, 4, 63, 52
10, 136920, Note_on_c, 4, 51, 52
10, 137019, Note_on_c, 4, 63, 0
10, 137019, Note_on_c, 4, 51, 0
10, 137040, Note_on_c, 4, 63, 52
10, 137040, Note_on_c, 4, 51, 52
10, 137139, Note_on_c, 4, 63, 0
10, 137139, Note_on_c, 4, 51, 0
10, 137160, Note_on_c, 4, 51, 52
10, 137160, Note_on_c, 4, 63, 52
10, 137259, Note_on_c, 4, 51, 0
10, 137259, Note_on_c, 4, 63, 0
10, 137280, Note_on_c, 4, 51, 52
10, 137280, Note_on_c, 4, 63, 52
10, 137519, Note_on_c, 4, 51, 0
10, 137519, Note_on_c, 4, 63, 0
10, 137880, Note_on_c, 4, 55, 52
10, 137880, Note_on_c, 4, 67, 52
10, 137979, Note_on_c, 4, 55, 0
10, 137979, Note_on_c, 4, 67, 0
10, 138000, Note_on_c, 4, 67, 52
10, 138000, Note_on_c, 4, 55, 52
10, 138099, Note_on_c, 4, 67, 0
10, 138099, Note_on_c, 4, 55, 0
10, 138120, Note_on_c, 4, 67, 52
10, 138120, Note_on_c, 4, 55, 52
10, 138219, Note_on_c, 4, 67, 0
10, 138219, Note_on_c, 4, 55, 0
10, 138240, Note_on_c, 4, 55, 52
10, 138240, Note_on_c, 4, 67, 52
10, 138479, Note_on_c, 4, 55, 0
10, 138479, Note_on_c, 4, 67, 0
10, 138840, Note_on_c, 4, 55, 55
10, 138840, Note_on_c, 4, 67, 55
10, 138939, Note_on_c, 4, 55, 0
10, 138939, Note_on_c, 4, 67, 0
10, 138960, Note_on_c, 4, 55, 58
10, 138960, Note_on_c, 4, 67, 58
10, 139059, Note_on_c, 4, 55, 0
10, 139059, Note_on_c, 4, 67, 0
10, 139080, Note_on_c, 4, 67, 61
10, 139080, Note_on_c, 4, 55, 61
10, 139179, Note_on_c, 4, 67, 0
10, 139179, Note_on_c, 4, 55, 0
10, 139200, Note_on_c, 4, 67, 64
10, 139200, Note_on_c, 4, 55, 64
10, 139419, Note_on_c, 4, 67, 0
10, 139419, Note_on_c, 4, 55, 0
10, 139440, Note_on_c, 4, 55, 70
10, 139440, Note_on_c, 4, 67, 70
10, 139659, Note_on_c, 4, 55, 0
10, 139659, Note_on_c, 4, 67, 0
10, 139680, Note_on_c, 4, 51, 76
10, 139680, Note_on_c, 4, 63, 76
10, 140619, Note_on_c, 4, 51, 0
10, 140619, Note_on_c, 4, 63, 0
10, 140640, Note_on_c, 4, 51, 76
10, 140640, Note_on_c, 4, 63, 76
10, 140879, Note_on_c, 4, 51, 0
10, 140879, Note_on_c, 4, 63, 0
10, 141240, Note_on_c, 4, 55, 76
10, 141240, Note_on_c, 4, 67, 76
10, 141339, Note_on_c, 4, 55, 0
10, 141339, Note_on_c, 4, 67, 0
10, 141360, Note_on_c, 4, 67, 76
10, 141360, Note_on_c, 4, 55, 76
10, 141459, Note_on_c, 4, 67, 0
10, 141459, Note_on_c, 4, 55, 0
10, 141480, Note_on_c, 4, 67, 76
10, 141480, Note_on_c, 4, 55, 76
10, 141579, Note_on_c, 4, 67, 0
10, 141579, Note_on_c, 4, 55, 0
10, 141600, Note_on_c, 4, 67, 76
10, 141600, Note_on_c, 4, 55, 76
10, 142539, Note_on_c, 4, 67, 0
10, 142539, Note_on_c, 4, 55, 0
10, 142560, Note_on_c, 4, 67, 76
10, 142560, Note_on_c, 4, 55, 76
10, 142799, Note_on_c, 4, 67, 0
10, 142799, Note_on_c, 4, 55, 0
10, 143160, Note_on_c, 4, 55, 80
10, 143160, Note_on_c, 4, 67, 80
10, 143259, Note_on_c, 4, 55, 0
10, 143259, Note_on_c, 4, 67, 0
10, 143280, Note_on_c, 4, 67, 80
10, 143280, Note_on_c, 4, 55, 80
10, 143379, Note_on_c, 4, 67, 0
10, 143379, Note_on_c, 4, 55, 0
10, 143400, Note_on_c, 4, 67, 80
10, 143400, Note_on_c, 4, 55, 80
10, 143499, Note_on_c, 4, 67, 0
10, 143499, Note_on_c, 4, 55, 0
10, 143520, Note_on_c, 4, 55, 80
10, 143520, Note_on_c, 4, 67, 80
10, 143759, Note_on_c, 4, 55, 0
10, 143759, Note_on_c, 4, 67, 0
10, 150960, Note_on_c, 4, 65, 80
10, 151059, Note_on_c, 4, 65, 0
10, 151080, Note_on_c, 4, 65, 80
10, 151179, Note_on_c, 4, 65, 0
10, 151200, Note_on_c, 4, 65, 80
10, 151439, Note_on_c, 4, 65, 0
10, 152400, Note_on_c, 4, 67, 80
10, 152499, Note_on_c, 4, 67, 0
10, 152520, Note_on_c, 4, 67, 80
10, 152619, Note_on_c, 4, 67, 0
10, 152640, Note_on_c, 4, 67, 80
10, 152879, Note_on_c, 4, 67, 0
10, 153120, Note_on_c, 4, 65, 84
10, 153579, Note_on_c, 4, 65, 0
10, 153600, Note_on_c, 4, 67, 84
10, 154079, Note_on_c, 4, 67, 0
10, 155040, Note_on_c, 4, 65, 84
10, 155499, Note_on_c, 4, 65, 0
10, 155520, Note_on_c, 4, 67, 84
10, 155999, Note_on_c, 4, 67, 0
10, 156960, Note_on_c, 4, 65, 84
10, 157419, Note_on_c, 4, 65, 0
10, 157440, Note_on_c, 4, 66, 84
10, 157919, Note_on_c, 4, 66, 0
10, 158880, Note_on_c, 4, 65, 84
10, 159339, Note_on_c, 4, 65, 0
10, 159360, Note_on_c, 4, 65, 84
10, 159839, Note_on_c, 4, 65, 0
10, 171360, Note_on_c, 4, 68, 44
10, 171360, Note_on_c, 4, 65, 44
10, 171839, Note_on_c, 4, 68, 0
10, 171839, Note_on_c, 4, 65, 0
10, 172320, Note_on_c, 4, 68, 44
10, 172320, Note_on_c, 4, 65, 44
10, 172799, Note_on_c, 4, 68, 0
10, 172799, Note_on_c, 4, 65, 0
10, 173280, Note_on_c, 4, 65, 44
10, 173280, Note_on_c, 4, 68, 44
10, 173759, Note_on_c, 4, 65, 0
10, 173759, Note_on_c, 4, 68, 0
10, 174360, Note_on_c, 4, 68, 84
10, 174459, Note_on_c, 4, 68, 0
10, 174480, Note_on_c, 4, 68, 84
10, 174579, Note_on_c, 4, 68, 0
10, 174600, Note_on_c, 4, 68, 84
10, 174699, Note_on_c, 4, 68, 0
10, 174720, Note_on_c, 4, 65, 84
10, 175299, Note_on_c, 4, 65, 0
10, 175320, Note_on_c, 4, 68, 84
10, 175419, Note_on_c, 4, 68, 0
10, 175440, Note_on_c, 4, 68, 84
10, 175539, Note_on_c, 4, 68, 0
10, 175560, Note_on_c, 4, 68, 84
10, 175659, Note_on_c, 4, 68, 0
10, 175680, Note_on_c, 4, 65, 84
10, 176259, Note_on_c, 4, 65, 0
10, 176280, Note_on_c, 4, 68, 84
10, 176379, Note_on_c, 4, 68, 0
10, 176400, Note_on_c, 4, 68, 84
10, 176499, Note_on_c, 4, 68, 0
10, 176520, Note_on_c, 4, 68, 84
10, 176619, Note_on_c, 4, 68, 0
10, 176640, Note_on_c, 4, 65, 84
10, 176859, Note_on_c, 4, 65, 0
10, 176880, Note_on_c, 4, 68, 84
10, 177099, Note_on_c, 4, 68, 0
10, 177120, Note_on_c, 4, 65, 84
10, 177339, Note_on_c, 4, 65, 0
10, 177360, Note_on_c, 4, 68, 84
10, 177579, Note_on_c, 4, 68, 0
10, 177600, Note_on_c, 4, 65, 84
10, 177819, Note_on_c, 4, 65, 0
10, 177840, Note_on_c, 4, 68, 84
10, 178059, Note_on_c, 4, 68, 0
10, 178080, Note_on_c, 4, 65, 84
10, 178179, Note_on_c, 4, 65, 0
10, 178200, Note_on_c, 4, 68, 84
10, 178299, Note_on_c, 4, 68, 0
10, 178320, Note_on_c, 4, 68, 84
10, 178419, Note_on_c, 4, 68, 0
10, 178440, Note_on_c, 4, 68, 84
10, 178539, Note_on_c, 4, 68, 0
10, 178560, Note_on_c, 4, 63, 84
10, 179999, Note_on_c, 4, 63, 0
10, 180120, Note_on_c, 4, 55, 84
10, 180120, Note_on_c, 4, 67, 84
10, 180219, Note_on_c, 4, 55, 0
10, 180219, Note_on_c, 4, 67, 0
10, 180240, Note_on_c, 4, 55, 84
10, 180240, Note_on_c, 4, 67, 84
10, 180339, Note_on_c, 4, 55, 0
10, 180339, Note_on_c, 4, 67, 0
10, 180360, Note_on_c, 4, 67, 84
10, 180360, Note_on_c, 4, 55, 84
10, 180459, Note_on_c, 4, 67, 0
10, 180459, Note_on_c, 4, 55, 0
10, 180480, Note_on_c, 4, 67, 84
10, 180480, Note_on_c, 4, 55, 84
10, 182399, Note_on_c, 4, 67, 0
10, 182399, Note_on_c, 4, 55, 0
10, 193920, Control_c, 4, 11, 80
10, 194400, Note_on_c, 4, 65, 76
10, 194400, Control_c, 4, 11, 80
10, 194460, Control_c, 4, 11, 82
10, 194520, Control_c, 4, 11, 84
10, 194580, Control_c, 4, 11, 86
10, 194640, Control_c, 4, 11, 88
10, 194700, Control_c, 4, 11, 90
10, 194760, Control_c, 4, 11, 92
10, 194820, Control_c, 4, 11, 94
10, 194880, Control_c, 4, 11, 96
10, 194940, Control_c, 4, 11, 98
10, 195000, Control_c, 4, 11, 100
10, 195060, Control_c, 4, 11, 102
10, 195120, Control_c, 4, 11, 104
10, 195180, Control_c, 4, 11, 105
10, 195240, Control_c, 4, 11, 107
10, 195300, Control_c, 4, 11, 109
10, 195360, Control_c, 4, 11, 111
10, 195420, Control_c, 4, 11, 113
10, 195480, Control_c, 4, 11, 115
10, 195540, Control_c, 4, 11, 117
10, 195600, Control_c, 4, 11, 119
10, 195660, Control_c, 4, 11, 121
10, 195720, Control_c, 4, 11, 123
10, 195780, Control_c, 4, 11, 127
10, 195819, Note_on_c, 4, 65, 0
10, 195840, Note_on_c, 4, 63, 76
10, 196079, Note_on_c, 4, 63, 0
10, 196440, Note_on_c, 4, 68, 76
10, 196440, Note_on_c, 4, 65, 76
10, 196539, Note_on_c, 4, 68, 0
10, 196539, Note_on_c, 4, 65, 0
10, 196560, Note_on_c, 4, 68, 76
10, 196560, Note_on_c, 4, 65, 76
10, 196659, Note_on_c, 4, 68, 0
10, 196659, Note_on_c, 4, 65, 0
10, 196680, Note_on_c, 4, 65, 76
10, 196680, Note_on_c, 4, 68, 76
10, 196779, Note_on_c, 4, 65, 0
10, 196779, Note_on_c, 4, 68, 0
10, 196800, Note_on_c, 4, 68, 76
10, 196800, Note_on_c, 4, 65, 76
10, 197039, Note_on_c, 4, 68, 0
10, 197039, Note_on_c, 4, 65, 0
10, 197400, Note_on_c, 4, 67, 76
10, 197400, Note_on_c, 4, 63, 76
10, 197499, Note_on_c, 4, 67, 0
10, 197499, Note_on_c, 4, 63, 0
10, 197520, Note_on_c, 4, 67, 76
10, 197520, Note_on_c, 4, 63, 76
10, 197619, Note_on_c, 4, 67, 0
10, 197619, Note_on_c, 4, 63, 0
10, 197640, Note_on_c, 4, 63, 76
10, 197640, Note_on_c, 4, 67, 76
10, 197739, Note_on_c, 4, 63, 0
10, 197739, Note_on_c, 4, 67, 0
10, 197760, Note_on_c, 4, 63, 76
10, 197760, Note_on_c, 4, 67, 76
10, 197999, Note_on_c, 4, 63, 0
10, 197999, Note_on_c, 4, 67, 0
10, 200640, Note_on_c, 4, 65, 76
10, 200640, Note_on_c, 4, 68, 76
10, 200879, Note_on_c, 4, 65, 0
10, 200879, Note_on_c, 4, 68, 0
10, 201120, Note_on_c, 4, 67, 76
10, 201120, Note_on_c, 4, 63, 76
10, 203019, Note_on_c, 4, 67, 0
10, 203019, Note_on_c, 4, 63, 0
10, 203040, Note_on_c, 4, 65, 76
10, 203040, Note_on_c, 4, 67, 76
10, 204699, Note_on_c, 4, 65, 0
10, 204699, Note_on_c, 4, 67, 0
10, 204720, Note_on_c, 4, 67, 76
10, 204720, Note_on_c, 4, 63, 76
10, 204939, Note_on_c, 4, 67, 0
10, 204939, Note_on_c, 4, 63, 0
10, 204960, Note_on_c, 4, 63, 84
10, 204960, Note_on_c, 4, 51, 84
10, 206859, Note_on_c, 4, 63, 0
10, 206859, Note_on_c, 4, 51, 0
10, 206880, Note_on_c, 4, 51, 84
10, 206880, Note_on_c, 4, 63, 84
10, 207119, Note_on_c, 4, 51, 0
10, 207119, Note_on_c, 4, 63, 0
10, 207840, Note_on_c, 4, 55, 84
10, 207840, Note_on_c, 4, 67, 84
10, 208079, Note_on_c, 4, 55, 0
10, 208079, Note_on_c, 4, 67, 0
10, 209760, Note_on_c, 4, 55, 92
10, 209880, Control_c, 4, 11, 112
10, 209910, Control_c, 4, 11, 107
10, 209940, Control_c, 4, 11, 101
10, 209970, Control_c, 4, 11, 96
10, 210000, Control_c, 4, 11, 91
10, 210030, Control_c, 4, 11, 85
10, 210060, Control_c, 4, 11, 80
10, 210090, Control_c, 4, 11, 75
10, 210120, Control_c, 4, 11, 69
10, 210150, Control_c, 4, 11, 64
10, 210180, Control_c, 4, 11, 59
10, 210210, Control_c, 4, 11, 48
10, 211679, Note_on_c, 4, 55, 0
10, 211680, Note_on_c, 4, 55, 92
10, 213599, Note_on_c, 4, 55, 0
10, 213600, Note_on_c, 4, 55, 92
10, 215519, Note_on_c, 4, 55, 0
10, 215520, Note_on_c, 4, 55, 92
10, 217439, Note_on_c, 4, 55, 0
10, 227253, Control_c, 4, 11, 111
10, 227280, Note_on_c, 4, 65, 84
10, 227360, Control_c, 4, 11, 112
10, 227467, Control_c, 4, 11, 113
10, 227519, Note_on_c, 4, 65, 0
10, 227573, Control_c, 4, 11, 114
10, 227680, Control_c, 4, 11, 115
10, 227760, Note_on_c, 4, 65, 84
10, 227787, Control_c, 4, 11, 116
10, 227893, Control_c, 4, 11, 117
10, 227999, Note_on_c, 4, 65, 0
10, 228000, Control_c, 4, 11, 118
10, 228107, Control_c, 4, 11, 119
10, 228213, Control_c, 4, 11, 120
10, 228240, Note_on_c, 4, 65, 84
10, 228320, Control_c, 4, 11, 121
10, 228427, Control_c, 4, 11, 122
10, 228479, Note_on_c, 4, 65, 0
10, 228533, Control_c, 4, 11, 123
10, 228640, Control_c, 4, 11, 124
10, 228720, Note_on_c, 4, 65, 84
10, 228747, Control_c, 4, 11, 125
10, 228853, Control_c, 4, 11, 127
10, 228939, Note_on_c, 4, 65, 0
10, 228960, Note_on_c, 4, 67, 84
10, 229659, Note_on_c, 4, 67, 0
10, 229680, Note_on_c, 4, 67, 84
10, 229899, Note_on_c, 4, 67, 0
10, 229920, Note_on_c, 4, 67, 84
10, 230159, Note_on_c, 4, 67, 0
10, 230400, Note_on_c, 4, 67, 84
10, 230400, Note_on_c, 4, 65, 84
10, 230639, Note_on_c, 4, 67, 0
10, 230639, Note_on_c, 4, 65, 0
10, 230880, Note_on_c, 4, 67, 84
10, 231119, Note_on_c, 4, 67, 0
10, 231360, Note_on_c, 4, 65, 84
10, 231599, Note_on_c, 4, 65, 0
10, 231840, Note_on_c, 4, 67, 84
10, 232079, Note_on_c, 4, 67, 0
10, 232320, Note_on_c, 4, 67, 84
10, 232559, Note_on_c, 4, 67, 0
10, 232800, Note_on_c, 4, 55, 84
10, 232800, Note_on_c, 4, 67, 84
10, 233739, Note_on_c, 4, 55, 0
10, 233739, Note_on_c, 4, 67, 0
10, 233760, Note_on_c, 4, 55, 84
10, 233760, Note_on_c, 4, 67, 84
10, 233979, Note_on_c, 4, 55, 0
10, 233979, Note_on_c, 4, 67, 0
10, 234000, Note_on_c, 4, 55, 84
10, 234000, Note_on_c, 4, 67, 84
10, 234239, Note_on_c, 4, 55, 0
10, 234239, Note_on_c, 4, 67, 0
10, 234480, Note_on_c, 4, 55, 84
10, 234480, Note_on_c, 4, 67, 84
10, 234719, Note_on_c, 4, 55, 0
10, 234719, Note_on_c, 4, 67, 0
10, 234960, Note_on_c, 4, 67, 84
10, 234960, Note_on_c, 4, 55, 84
10, 235199, Note_on_c, 4, 67, 0
10, 235199, Note_on_c, 4, 55, 0
10, 235440, Note_on_c, 4, 65, 84
10, 235679, Note_on_c, 4, 65, 0
10, 235920, Note_on_c, 4, 67, 84
10, 236159, Note_on_c, 4, 67, 0
10, 236400, Note_on_c, 4, 67, 84
10, 236619, Note_on_c, 4, 67, 0
10, 236640, Note_on_c, 4, 67, 84
10, 236879, Note_on_c, 4, 67, 0
10, 238200, Note_on_c, 4, 67, 84
10, 238299, Note_on_c, 4, 67, 0
10, 238320, Note_on_c, 4, 67, 84
10, 238419, Note_on_c, 4, 67, 0
10, 238440, Note_on_c, 4, 67, 84
10, 238539, Note_on_c, 4, 67, 0
10, 238560, Note_on_c, 4, 67, 84
10, 238799, Note_on_c, 4, 67, 0
10, 240120, Note_on_c, 4, 67, 84
10, 240219, Note_on_c, 4, 67, 0
10, 240240, Note_on_c, 4, 67, 84
10, 240339, Note_on_c, 4, 67, 0
10, 240360, Note_on_c, 4, 67, 84
10, 240459, Note_on_c, 4, 67, 0
10, 240480, Note_on_c, 4, 67, 84
10, 240719, Note_on_c, 4, 67, 0
10, 241080, Note_on_c, 4, 55, 84
10, 241080, Note_on_c, 4, 67, 84
10, 241179, Note_on_c, 4, 55, 0
10, 241179, Note_on_c, 4, 67, 0
10, 241200, Note_on_c, 4, 67, 84
10, 241200, Note_on_c, 4, 55, 84
10, 241299, Note_on_c, 4, 67, 0
10, 241299, Note_on_c, 4, 55, 0
10, 241320, Note_on_c, 4, 55, 84
10, 241320, Note_on_c, 4, 67, 84
10, 241419, Note_on_c, 4, 55, 0
10, 241419, Note_on_c, 4, 67, 0
10, 241440, Note_on_c, 4, 55, 84
10, 241440, Note_on_c, 4, 67, 84
10, 241679, Note_on_c, 4, 55, 0
10, 241679, Note_on_c, 4, 67, 0
10, 242040, Note_on_c, 4, 55, 84
10, 242040, Note_on_c, 4, 67, 84
10, 242139, Note_on_c, 4, 55, 0
10, 242139, Note_on_c, 4, 67, 0
10, 242160, Note_on_c, 4, 55, 84
10, 242160, Note_on_c, 4, 67, 84
10, 242259, Note_on_c, 4, 55, 0
10, 242259, Note_on_c, 4, 67, 0
10, 242280, Note_on_c, 4, 67, 84
10, 242280, Note_on_c, 4, 55, 84
10, 242379, Note_on_c, 4, 67, 0
10, 242379, Note_on_c, 4, 55, 0
10, 242400, Note_on_c, 4, 67, 84
10, 242639, Note_on_c, 4, 67, 0
10, 243360, Note_on_c, 4, 65, 84
10, 243599, Note_on_c, 4, 65, 0
10, 244320, Note_on_c, 4, 67, 84
10, 244559, Note_on_c, 4, 67, 0
10, 245280, Note_on_c, 4, 68, 84
10, 245519, Note_on_c, 4, 68, 0
10, 246240, Note_on_c, 4, 68, 84
10, 246240, Note_on_c, 4, 65, 84
10, 248139, Note_on_c, 4, 68, 0
10, 248139, Note_on_c, 4, 65, 0
10, 248160, Note_on_c, 4, 65, 84
10, 248160, Note_on_c, 4, 68, 84
10, 248399, Note_on_c, 4, 65, 0
10, 248399, Note_on_c, 4, 68, 0
10, 248760, Note_on_c, 4, 65, 52
10, 248859, Note_on_c, 4, 65, 0
10, 248880, Note_on_c, 4, 65, 52
10, 248979, Note_on_c, 4, 65, 0
10, 249000, Note_on_c, 4, 65, 52
10, 249099, Note_on_c, 4, 65, 0
10, 249120, Note_on_c, 4, 68, 52
10, 249359, Note_on_c, 4, 68, 0
10, 250200, Note_on_c, 4, 63, 84
10, 250299, Note_on_c, 4, 63, 0
10, 250320, Note_on_c, 4, 63, 84
10, 250419, Note_on_c, 4, 63, 0
10, 250440, Note_on_c, 4, 63, 84
10, 250539, Note_on_c, 4, 63, 0
10, 250560, Note_on_c, 4, 63, 84
10, 252459, Note_on_c, 4, 63, 0
10, 252480, Note_on_c, 4, 63, 84
10, 252719, Note_on_c, 4, 63, 0
10, 255360, Note_on_c, 4, 65, 76
10, 255360, Note_on_c, 4, 68, 76
10, 256059, Note_on_c, 4, 68, 0
10, 256080, Note_on_c, 4, 67, 76
10, 256319, Note_on_c, 4, 65, 0
10, 256319, Note_on_c, 4, 67, 0
10, 257280, Note_on_c, 4, 68, 76
10, 257280, Note_on_c, 4, 65, 76
10, 257979, Note_on_c, 4, 68, 0
10, 258000, Note_on_c, 4, 67, 76
10, 258239, Note_on_c, 4, 65, 0
10, 258239, Note_on_c, 4, 67, 0
10, 261120, Note_on_c, 4, 68, 76
10, 261339, Note_on_c, 4, 68, 0
10, 261360, Note_on_c, 4, 70, 76
10, 261579, Note_on_c, 4, 70, 0
10, 261600, Note_on_c, 4, 67, 76
10, 261819, Note_on_c, 4, 67, 0
10, 261840, Note_on_c, 4, 68, 76
10, 262059, Note_on_c, 4, 68, 0
10, 262080, Note_on_c, 4, 65, 76
10, 262319, Note_on_c, 4, 65, 0
10, 262800, Note_on_c, 4, 63, 76
10, 263019, Note_on_c, 4, 63, 0
10, 263040, Note_on_c, 4, 65, 76
10, 263279, Note_on_c, 4, 65, 0
10, 263760, Note_on_c, 4, 67, 76
10, 263979, Note_on_c, 4, 67, 0
10, 264000, Note_on_c, 4, 68, 76
10, 264219, Note_on_c, 4, 68, 0
10, 264240, Note_on_c, 4, 67, 76
10, 264459, Note_on_c, 4, 67, 0
10, 264480, Note_on_c, 4, 68, 76
10, 264699, Note_on_c, 4, 68, 0
10, 264720, Note_on_c, 4, 67, 76
10, 264959, Note_on_c, 4, 67, 0
10, 265200, Note_on_c, 4, 67, 76
10, 265419, Note_on_c, 4, 67, 0
10, 265440, Note_on_c, 4, 67, 76
10, 265440, Note_on_c, 4, 65, 76
10, 265659, Note_on_c, 4, 67, 0
10, 265659, Note_on_c, 4, 65, 0
10, 265680, Note_on_c, 4, 67, 76
10, 265680, Note_on_c, 4, 65, 76
10, 265899, Note_on_c, 4, 67, 0
10, 265899, Note_on_c, 4, 65, 0
10, 265920, Note_on_c, 4, 63, 76
10, 266859, Note_on_c, 4, 63, 0
10, 266880, Note_on_c, 4, 65, 76
10, 267819, Note_on_c, 4, 65, 0
10, 267840, Note_on_c, 4, 67, 76
10, 268779, Note_on_c, 4, 67, 0
10, 268800, Note_on_c, 4, 68, 76
10, 269259, Note_on_c, 4, 68, 0
10, 269280, Note_on_c, 4, 65, 76
10, 269499, Note_on_c, 4, 65, 0
10, 269520, Note_on_c, 4, 65, 76
10, 269739, Note_on_c, 4, 65, 0
10, 269760, Note_on_c, 4, 65, 76
10, 270219, Note_on_c, 4, 65, 0
10, 270240, Note_on_c, 4, 67, 76
10, 270699, Note_on_c, 4, 67, 0
10, 270720, Note_on_c, 4, 67, 76
10, 270899, Note_on_c, 4, 67, 0
10, 271200, Note_on_c, 4, 68, 76
10, 271379, Note_on_c, 4, 68, 0
10, 271680, Note_on_c, 4, 68, 76
10, 271680, Note_on_c, 4, 65, 76
10, 271859, Note_on_c, 4, 68, 0
10, 271859, Note_on_c, 4, 65, 0
10, 272160, Note_on_c, 4, 68, 76
10, 272160, Note_on_c, 4, 65, 76
10, 272339, Note_on_c, 4, 68, 0
10, 272339, Note_on_c, 4, 65, 0
10, 272640, Note_on_c, 4, 67, 76
10, 272819, Note_on_c, 4, 67, 0
10, 273120, Note_on_c, 4, 67, 76
10, 273299, Note_on_c, 4, 67, 0
10, 277920, Note_on_c, 4, 67, 76
10, 278139, Note_on_c, 4, 67, 0
10, 278160, Note_on_c, 4, 67, 76
10, 278379, Note_on_c, 4, 67, 0
10, 278400, Note_on_c, 4, 67, 76
10, 278879, Note_on_c, 4, 67, 0
10, 279840, Note_on_c, 4, 67, 76
10, 280059, Note_on_c, 4, 67, 0
10, 280080, Note_on_c, 4, 67, 76
10, 280299, Note_on_c, 4, 67, 0
10, 280320, Note_on_c, 4, 67, 76
10, 280779, Note_on_c, 4, 67, 0
10, 280800, Note_on_c, 4, 63, 76
10, 281019, Note_on_c, 4, 63, 0
10, 281040, Note_on_c, 4, 63, 76
10, 281259, Note_on_c, 4, 63, 0
10, 281280, Note_on_c, 4, 65, 76
10, 281499, Note_on_c, 4, 65, 0
10, 281520, Note_on_c, 4, 63, 76
10, 281520, Note_on_c, 4, 51, 76
10, 281759, Note_on_c, 4, 63, 0
10, 281759, Note_on_c, 4, 51, 0
10, 282240, Note_on_c, 4, 68, 84
10, 282240, Note_on_c, 4, 65, 84
10, 282479, Note_on_c, 4, 68, 0
10, 282479, Note_on_c, 4, 65, 0
10, 282480, Note_on_c, 4, 67, 76
10, 282480, Note_on_c, 4, 63, 76
10, 282699, Note_on_c, 4, 67, 0
10, 282699, Note_on_c, 4, 63, 0
10, 282720, Note_on_c, 4, 68, 76
10, 282720, Note_on_c, 4, 65, 76
10, 282959, Note_on_c, 4, 68, 0
10, 282959, Note_on_c, 4, 65, 0
10, 282960, Note_on_c, 4, 67, 76
10, 282960, Note_on_c, 4, 63, 76
10, 283199, Note_on_c, 4, 67, 0
10, 283199, Note_on_c, 4, 63, 0
10, 283440, Note_on_c, 4, 63, 76
10, 283679, Note_on_c, 4, 63, 0
10, 283920, Note_on_c, 4, 67, 76
10, 284159, Note_on_c, 4, 67, 0
10, 285120, Note_on_c, 4, 68, 76
10, 285120, Note_on_c, 4, 65, 76
10, 285359, Note_on_c, 4, 68, 0
10, 285359, Note_on_c, 4, 65, 0
10, 285360, Note_on_c, 4, 67, 76
10, 285360, Note_on_c, 4, 63, 76
10, 285579, Note_on_c, 4, 67, 0
10, 285579, Note_on_c, 4, 63, 0
10, 285600, Note_on_c, 4, 68, 76
10, 285600, Note_on_c, 4, 65, 76
10, 285839, Note_on_c, 4, 68, 0
10, 285839, Note_on_c, 4, 65, 0
10, 285840, Note_on_c, 4, 67, 76
10, 285840, Note_on_c, 4, 63, 76
10, 286059, Note_on_c, 4, 67, 0
10, 286059, Note_on_c, 4, 63, 0
10, 286080, Note_on_c, 4, 68, 76
10, 286080, Note_on_c, 4, 65, 76
10, 286319, Note_on_c, 4, 68, 0
10, 286319, Note_on_c, 4, 65, 0
10, 286320, Note_on_c, 4, 67, 76
10, 286320, Note_on_c, 4, 63, 76
10, 286539, Note_on_c, 4, 67, 0
10, 286539, Note_on_c, 4, 63, 0
10, 286560, Note_on_c, 4, 68, 76
10, 286560, Note_on_c, 4, 65, 76
10, 286799, Note_on_c, 4, 68, 0
10, 286799, Note_on_c, 4, 65, 0
10, 286800, Note_on_c, 4, 67, 76
10, 286800, Note_on_c, 4, 63, 76
10, 287039, Note_on_c, 4, 67, 0
10, 287039, Note_on_c, 4, 63, 0
10, 287280, Note_on_c, 4, 67, 76
10, 287519, Note_on_c, 4, 67, 0
10, 287760, Note_on_c, 4, 67, 76
10, 287979, Note_on_c, 4, 67, 0
10, 288000, Note_on_c, 4, 67, 76
10, 288000, Note_on_c, 4, 63, 76
10, 288239, Note_on_c, 4, 67, 0
10, 288239, Note_on_c, 4, 63, 0
10, 290160, Note_on_c, 4, 67, 76
10, 290160, Note_on_c, 4, 65, 76
10, 290379, Note_on_c, 4, 67, 0
10, 290379, Note_on_c, 4, 65, 0
10, 290400, Note_on_c, 4, 67, 76
10, 290400, Note_on_c, 4, 63, 76
10, 290619, Note_on_c, 4, 67, 0
10, 290619, Note_on_c, 4, 63, 0
10, 290640, Note_on_c, 4, 67, 76
10, 290640, Note_on_c, 4, 65, 76
10, 290859, Note_on_c, 4, 67, 0
10, 290859, Note_on_c, 4, 65, 0
10, 290880, Note_on_c, 4, 63, 76
10, 291119, Note_on_c, 4, 63, 0
10, 291480, Note_on_c, 4, 67, 76
10, 291579, Note_on_c, 4, 67, 0
10, 291600, Note_on_c, 4, 67, 76
10, 291699, Note_on_c, 4, 67, 0
10, 291720, Note_on_c, 4, 67, 76
10, 291819, Note_on_c, 4, 67, 0
10, 291840, Note_on_c, 4, 67, 76
10, 291939, Note_on_c, 4, 67, 0
10, 291960, Note_on_c, 4, 67, 76
10, 292059, Note_on_c, 4, 67, 0
10, 292080, Note_on_c, 4, 67, 76
10, 292179, Note_on_c, 4, 67, 0
10, 292200, Note_on_c, 4, 67, 76
10, 292299, Note_on_c, 4, 67, 0
10, 292320, Note_on_c, 4, 67, 76
10, 292419, Note_on_c, 4, 67, 0
10, 292440, Note_on_c, 4, 67, 76
10, 292539, Note_on_c, 4, 67, 0
10, 292560, Note_on_c, 4, 67, 76
10, 292659, Note_on_c, 4, 67, 0
10, 292680, Note_on_c, 4, 67, 76
10, 292779, Note_on_c, 4, 67, 0
10, 292800, Note_on_c, 4, 63, 84
10, 294239, Note_on_c, 4, 63, 0
10, 294360, Note_on_c, 4, 67, 84
10, 294459, Note_on_c, 4, 67, 0
10, 294480, Note_on_c, 4, 67, 84
10, 294579, Note_on_c, 4, 67, 0
10, 294600, Note_on_c, 4, 67, 84
10, 294699, Note_on_c, 4, 67, 0
10, 294720, Note_on_c, 4, 67, 84
10, 296639, Note_on_c, 4, 67, 0
10, 300600, Note_on_c, 4, 67, 84
10, 300699, Note_on_c, 4, 67, 0
10, 300720, Note_on_c, 4, 67, 84
10, 300819, Note_on_c, 4, 67, 0
10, 300840, Note_on_c, 4, 67, 84
10, 300939, Note_on_c, 4, 67, 0
10, 300960, Note_on_c, 4, 67, 84
10, 301199, Note_on_c, 4, 67, 0
10, 301560, Note_on_c, 4, 67, 84
10, 301659, Note_on_c, 4, 67, 0
10, 301680, Note_on_c, 4, 67, 84
10, 301779, Note_on_c, 4, 67, 0
10, 301800, Note_on_c, 4, 67, 84
10, 301899, Note_on_c, 4, 67, 0
10, 301920, Note_on_c, 4, 67, 84
10, 302159, Note_on_c, 4, 67, 0
10, 302520, Note_on_c, 4, 67, 84
10, 302619, Note_on_c, 4, 67, 0
10, 302640, Note_on_c, 4, 67, 84
10, 302739, Note_on_c, 4, 67, 0
10, 302760, Note_on_c, 4, 67, 84
10, 302859, Note_on_c, 4, 67, 0
10, 302880, Note_on_c, 4, 67, 84
10, 303099, Note_on_c, 4, 67, 0
10, 303120, Note_on_c, 4, 67, 84
10, 303339, Note_on_c, 4, 67, 0
10, 303360, Note_on_c, 4, 67, 84
10, 303579, Note_on_c, 4, 67, 0
10, 303600, Note_on_c, 4, 67, 84
10, 303819, Note_on_c, 4, 67, 0
10, 303840, Note_on_c, 4, 67, 84
10, 304059, Note_on_c, 4, 67, 0
10, 304080, Note_on_c, 4, 67, 84
10, 304299, Note_on_c, 4, 67, 0
10, 304320, Note_on_c, 4, 67, 84
10, 304539, Note_on_c, 4, 67, 0
10, 304560, Note_on_c, 4, 67, 84
10, 304779, Note_on_c, 4, 67, 0
10, 304800, Note_on_c, 4, 67, 84
10, 305039, Note_on_c, 4, 67, 0
10, 305280, Note_on_c, 4, 67, 84
10, 305519, Note_on_c, 4, 67, 0
10, 305760, Note_on_c, 4, 67, 84
10, 305999, Note_on_c, 4, 67, 0
10, 305999, End_track
11, 0, Start_track
11, 0, Title_t, "Trumpet in C"
11, 0, MIDI_port, 0
11, 0, Program_c, 5, 56
11, 0, Control_c, 5, 7, 96
11, 0, Control_c, 5, 10, 60
11, 0, Control_c, 5, 11, 127
11, 8280, Note_on_c, 5, 55, 58
11, 8280, Note_on_c, 5, 67, 58
11, 8379, Note_on_c, 5, 55, 0
11, 8379, Note_on_c, 5, 67, 0
11, 8400, Note_on_c, 5, 67, 64
11, 8400, Note_on_c, 5, 55, 64
11, 8499, Note_on_c, 5, 67, 0
11, 8499, Note_on_c, 5, 55, 0
11, 8520, Note_on_c, 5, 67, 70
11, 8520, Note_on_c, 5, 55, 70
11, 8619, Note_on_c, 5, 67, 0
11, 8619, Note_on_c, 5, 55, 0
11, 8640, Note_on_c, 5, 72, 76
11, 8640, Note_on_c, 5, 60, 76
11, 8879, Note_on_c, 5, 72, 0
11, 8879, Note_on_c, 5, 60, 0
11, 9120, Note_on_c, 5, 60, 76
11, 9120, Note_on_c, 5, 72, 76
11, 9359, Note_on_c, 5, 60, 0
11, 9359, Note_on_c, 5, 72, 0
11, 9600, Note_on_c, 5, 55, 76
11, 9600, Note_on_c, 5, 67, 76
11, 9839, Note_on_c, 5, 55, 0
11, 9839, Note_on_c, 5, 67, 0
11, 20160, Note_on_c, 5, 60, 76
11, 20160, Note_on_c, 5, 72, 76
11, 20399, Note_on_c, 5, 60, 0
11, 20399, Note_on_c, 5, 72, 0
11, 20640, Note_on_c, 5, 60, 76
11, 20640, Note_on_c, 5, 72, 76
11, 20879, Note_on_c, 5, 60, 0
11, 20879, Note_on_c, 5, 72, 0
11, 22320, Note_on_c, 5, 72, 76
11, 22320, Note_on_c, 5, 60, 76
11, 22419, Note_on_c, 5, 72, 0
11, 22419, Note_on_c, 5, 60, 0
11, 22440, Note_on_c, 5, 60, 76
11, 22440, Note_on_c, 5, 72, 76
11, 22539, Note_on_c, 5, 60, 0
11, 22539, Note_on_c, 5, 72, 0
11, 22560, Note_on_c, 5, 55, 76
11, 22560, Note_on_c, 5, 67, 76
11, 22799, Note_on_c, 5, 55, 0
11, 22799, Note_on_c, 5, 67, 0
11, 24240, Note_on_c, 5, 72, 76
11, 24240, Note_on_c, 5, 60, 76
11, 24339, Note_on_c, 5, 72, 0
11, 24339, Note_on_c, 5, 60, 0
11, 24360, Note_on_c, 5, 60, 76
11, 24360, Note_on_c, 5, 72, 76
11, 24459, Note_on_c, 5, 60, 0
11, 24459, Note_on_c, 5, 72, 0
11, 24480, Note_on_c, 5, 72, 84
11, 24480, Note_on_c, 5, 60, 84
11, 26379, Note_on_c, 5, 72, 0
11, 26379, Note_on_c, 5, 60, 0
11, 26400, Note_on_c, 5, 60, 84
11, 26400, Note_on_c, 5, 72, 84
11, 26639, Note_on_c, 5, 60, 0
11, 26639, Note_on_c, 5, 72, 0
11, 44640, Note_on_c, 5, 77, 84
11, 45359, Note_on_c, 5, 77, 0
11, 46560, Note_on_c, 5, 67, 76
11, 46560, Note_on_c, 5, 55, 76
11, 46799, Note_on_c, 5, 67, 0
11, 46799, Note_on_c, 5, 55, 0
11, 47040, Note_on_c, 5, 60, 76
11, 47040, Note_on_c, 5, 72, 76
11, 47279, Note_on_c, 5, 60, 0
11, 47279, Note_on_c, 5, 72, 0
11, 48480, Note_on_c, 5, 77, 84
11, 49419, Note_on_c, 5, 77, 0
11, 49440, Note_on_c, 5, 79, 84
11, 49659, Note_on_c, 5, 79, 0
11, 49680, Note_on_c, 5, 67, 84
11, 49680, Note_on_c, 5, 79, 84
11, 49919, Note_on_c, 5, 67, 0
11, 49919, Note_on_c, 5, 79, 0
11, 50640, Note_on_c, 5, 67, 84
11, 50640, Note_on_c, 5, 55, 84
11, 50879, Note_on_c, 5, 67, 0
11, 50879, Note_on_c, 5, 55, 0
11, 51120, Note_on_c, 5, 72, 84
11, 51120, Note_on_c, 5, 60, 84
11, 51359, Note_on_c, 5, 72, 0
11, 51359, Note_on_c, 5, 60, 0
11, 67800, Note_on_c, 5, 67, 58
11, 67800, Note_on_c, 5, 55, 58
11, 67899, Note_on_c, 5, 67, 0
11, 67899, Note_on_c, 5, 55, 0
11, 67920, Note_on_c, 5, 67, 64
11, 67920, Note_on_c, 5, 55, 64
11, 68019, Note_on_c, 5, 67, 0
11, 68019, Note_on_c, 5, 55, 0
11, 68040, Note_on_c, 5, 67, 70
11, 68040, Note_on_c, 5, 55, 70
11, 68139, Note_on_c, 5, 67, 0
11, 68139, Note_on_c, 5, 55, 0
11, 68160, Note_on_c, 5, 60, 76
11, 68160, Note_on_c, 5, 72, 76
11, 68399, Note_on_c, 5, 60, 0
11, 68399, Note_on_c, 5, 72, 0
11, 68640, Note_on_c, 5, 72, 76
11, 68640, Note_on_c, 5, 60, 76
11, 68879, Note_on_c, 5, 72, 0
11, 68879, Note_on_c, 5, 60, 0
11, 69120, Note_on_c, 5, 55, 76
11, 69120, Note_on_c, 5, 67, 76
11, 69359, Note_on_c, 5, 55, 0
11, 69359, Note_on_c, 5, 67, 0
11, 79680, Note_on_c, 5, 60, 76
11, 79680, Note_on_c, 5, 72, 76
11, 79919, Note_on_c, 5, 60, 0
11, 79919, Note_on_c, 5, 72, 0
11, 80160, Note_on_c, 5, 72, 76
11, 80160, Note_on_c, 5, 60, 76
11, 80399, Note_on_c, 5, 72, 0
11, 80399, Note_on_c, 5, 60, 0
11, 81840, Note_on_c, 5, 72, 76
11, 81840, Note_on_c, 5, 60, 76
11, 81939, Note_on_c, 5, 72, 0
11, 81939, Note_on_c, 5, 60, 0
11, 81960, Note_on_c, 5, 60, 76
11, 81960, Note_on_c, 5, 72, 76
11, 82059, Note_on_c, 5, 60, 0
11, 82059, Note_on_c, 5, 72, 0
11, 82080, Note_on_c, 5, 55, 76
11, 82080, Note_on_c, 5, 67, 76
11, 82319, Note_on_c, 5, 55, 0
11, 82319, Note_on_c, 5, 67, 0
11, 83760, Note_on_c, 5, 72, 76
11, 83760, Note_on_c, 5, 60, 76
11, 83859, Note_on_c, 5, 72, 0
11, 83859, Note_on_c, 5, 60, 0
11, 83880, Note_on_c, 5, 72, 76
11, 83880, Note_on_c, 5, 60, 76
11, 83979, Note_on_c, 5, 72, 0
11, 83979, Note_on_c, 5, 60, 0
11, 84000, Note_on_c, 5, 72, 84
11, 84000, Note_on_c, 5, 60, 84
11, 85899, Note_on_c, 5, 72, 0
11, 85899, Note_on_c, 5, 60, 0
11, 85920, Note_on_c, 5, 60, 84
11, 85920, Note_on_c, 5, 72, 84
11, 86159, Note_on_c, 5, 60, 0
11, 86159, Note_on_c, 5, 72, 0
11, 104160, Note_on_c, 5, 77, 84
11, 104879, Note_on_c, 5, 77, 0
11, 106080, Note_on_c, 5, 67, 76
11, 106080, Note_on_c, 5, 55, 76
11, 106319, Note_on_c, 5, 67, 0
11, 106319, Note_on_c, 5, 55, 0
11, 106560, Note_on_c, 5, 72, 76
11, 106560, Note_on_c, 5, 60, 76
11, 106799, Note_on_c, 5, 72, 0
11, 106799, Note_on_c, 5, 60, 0
11, 108000, Note_on_c, 5, 77, 84
11, 108939, Note_on_c, 5, 77, 0
11, 108960, Note_on_c, 5, 79, 84
11, 109179, Note_on_c, 5, 79, 0
11, 109200, Note_on_c, 5, 79, 84
11, 109200, Note_on_c, 5, 67, 84
11, 109439, Note_on_c, 5, 79, 0
11, 109439, Note_on_c, 5, 67, 0
11, 110160, Note_on_c, 5, 67, 84
11, 110160, Note_on_c, 5, 55, 84
11, 110399, Note_on_c, 5, 67, 0
11, 110399, Note_on_c, 5, 55, 0
11, 110640, Note_on_c, 5, 72, 84
11, 110640, Note_on_c, 5, 60, 84
11, 110879, Note_on_c, 5, 72, 0
11, 110879, Note_on_c, 5, 60, 0
11, 134880, Note_on_c, 5, 55, 44
11, 134880, Note_on_c, 5, 67, 44
11, 135119, Note_on_c, 5, 55, 0
11, 135119, Note_on_c, 5, 67, 0
11, 135840, Note_on_c, 5, 60, 44
11, 136079, Note_on_c, 5, 60, 0
11, 136800, Note_on_c, 5, 60, 44
11, 137039, Note_on_c, 5, 60, 0
11, 137760, Note_on_c, 5, 55, 44
11, 137760, Note_on_c, 5, 67, 44
11, 137999, Note_on_c, 5, 55, 0
11, 137999, Note_on_c, 5, 67, 0
11, 138720, Note_on_c, 5, 55, 44
11, 138720, Note_on_c, 5, 67, 44
11, 138959, Note_on_c, 5, 55, 0
11, 138959, Note_on_c, 5, 67, 0
11, 139680, Note_on_c, 5, 60, 76
11, 139680, Note_on_c, 5, 72, 76
11, 140619, Note_on_c, 5, 60, 0
11, 140619, Note_on_c, 5, 72, 0
11, 140640, Note_on_c, 5, 72, 76
11, 140640, Note_on_c, 5, 60, 76
11, 140879, Note_on_c, 5, 72, 0
11, 140879, Note_on_c, 5, 60, 0
11, 141240, Note_on_c, 5, 76, 76
11, 141240, Note_on_c, 5, 64, 76
11, 141359, Note_on_c, 5, 76, 0
11, 141359, Note_on_c, 5, 64, 0
11, 141360, Note_on_c, 5, 64, 76
11, 141360, Note_on_c, 5, 76, 76
11, 141479, Note_on_c, 5, 64, 0
11, 141479, Note_on_c, 5, 76, 0
11, 141480, Note_on_c, 5, 76, 76
11, 141480, Note_on_c, 5, 64, 76
11, 141599, Note_on_c, 5, 76, 0
11, 141599, Note_on_c, 5, 64, 0
11, 141600, Note_on_c, 5, 76, 76
11, 141600, Note_on_c, 5, 64, 76
11, 142559, Note_on_c, 5, 76, 0
11, 142559, Note_on_c, 5, 64, 0
11, 142560, Note_on_c, 5, 64, 76
11, 142560, Note_on_c, 5, 76, 76
11, 142799, Note_on_c, 5, 64, 0
11, 142799, Note_on_c, 5, 76, 0
11, 143160, Note_on_c, 5, 67, 80
11, 143160, Note_on_c, 5, 79, 80
11, 143279, Note_on_c, 5, 67, 0
11, 143279, Note_on_c, 5, 79, 0
11, 143280, Note_on_c, 5, 79, 80
11, 143280, Note_on_c, 5, 67, 80
11, 143399, Note_on_c, 5, 79, 0
11, 143399, Note_on_c, 5, 67, 0
11, 143400, Note_on_c, 5, 67, 80
11, 143400, Note_on_c, 5, 79, 80
11, 143519, Note_on_c, 5, 67, 0
11, 143519, Note_on_c, 5, 79, 0
11, 143520, Note_on_c, 5, 67, 80
11, 143520, Note_on_c, 5, 79, 80
11, 143759, Note_on_c, 5, 67, 0
11, 143759, Note_on_c, 5, 79, 0
11, 144240, Note_on_c, 5, 79, 80
11, 144240, Note_on_c, 5, 67, 80
11, 144359, Note_on_c, 5, 79, 0
11, 144359, Note_on_c, 5, 67, 0
11, 144360, Note_on_c, 5, 67, 80
11, 144360, Note_on_c, 5, 79, 80
11, 144479, Note_on_c, 5, 67, 0
11, 144479, Note_on_c, 5, 79, 0
11, 144480, Note_on_c, 5, 79, 80
11, 144480, Note_on_c, 5, 67, 80
11, 144719, Note_on_c, 5, 79, 0
11, 144719, Note_on_c, 5, 67, 0
11, 144960, Note_on_c, 5, 74, 80
11, 145199, Note_on_c, 5, 74, 0
11, 146640, Note_on_c, 5, 60, 80
11, 146739, Note_on_c, 5, 60, 0
11, 146760, Note_on_c, 5, 60, 80
11, 146859, Note_on_c, 5, 60, 0
11, 146880, Note_on_c, 5, 60, 80
11, 147119, Note_on_c, 5, 60, 0
11, 148560, Note_on_c, 5, 74, 80
11, 148659, Note_on_c, 5, 74, 0
11, 148680, Note_on_c, 5, 74, 80
11, 148779, Note_on_c, 5, 74, 0
11, 148800, Note_on_c, 5, 67, 80
11, 148800, Note_on_c, 5, 74, 80
11, 149039, Note_on_c, 5, 67, 0
11, 149039, Note_on_c, 5, 74, 0
11, 152400, Note_on_c, 5, 55, 80
11, 152400, Note_on_c, 5, 67, 80
11, 152499, Note_on_c, 5, 55, 0
11, 152499, Note_on_c, 5, 67, 0
11, 152520, Note_on_c, 5, 55, 80
11, 152520, Note_on_c, 5, 67, 80
11, 152619, Note_on_c, 5, 55, 0
11, 152619, Note_on_c, 5, 67, 0
11, 152640, Note_on_c, 5, 60, 80
11, 152640, Note_on_c, 5, 72, 80
11, 152879, Note_on_c, 5, 60, 0
11, 152879, Note_on_c, 5, 72, 0
11, 153120, Note_on_c, 5, 60, 84
11, 153579, Note_on_c, 5, 60, 0
11, 153600, Note_on_c, 5, 60, 84
11, 154079, Note_on_c, 5, 60, 0
11, 155040, Note_on_c, 5, 60, 84
11, 155499, Note_on_c, 5, 60, 0
11, 155520, Note_on_c, 5, 60, 84
11, 155999, Note_on_c, 5, 60, 0
11, 168600, Note_on_c, 5, 74, 84
11, 168699, Note_on_c, 5, 74, 0
11, 168720, Note_on_c, 5, 74, 84
11, 168819, Note_on_c, 5, 74, 0
11, 168840, Note_on_c, 5, 74, 84
11, 168939, Note_on_c, 5, 74, 0
11, 168960, Note_on_c, 5, 74, 84
11, 169419, Note_on_c, 5, 74, 0
11, 169440, Note_on_c, 5, 74, 84
11, 169899, Note_on_c, 5, 74, 0
11, 169920, Note_on_c, 5, 74, 84
11, 170879, Note_on_c, 5, 74, 0
11, 178200, Note_on_c, 5, 67, 84
11, 178200, Note_on_c, 5, 79, 84
11, 178299, Note_on_c, 5, 67, 0
11, 178299, Note_on_c, 5, 79, 0
11, 178320, Note_on_c, 5, 67, 84
11, 178320, Note_on_c, 5, 79, 84
11, 178419, Note_on_c, 5, 67, 0
11, 178419, Note_on_c, 5, 79, 0
11, 178440, Note_on_c, 5, 79, 84
11, 178440, Note_on_c, 5, 67, 84
11, 178539, Note_on_c, 5, 79, 0
11, 178539, Note_on_c, 5, 67, 0
11, 178560, Note_on_c, 5, 79, 84
11, 178560, Note_on_c, 5, 67, 84
11, 179999, Note_on_c, 5, 79, 0
11, 179999, Note_on_c, 5, 67, 0
11, 180120, Note_on_c, 5, 79, 84
11, 180120, Note_on_c, 5, 67, 84
11, 180219, Note_on_c, 5, 79, 0
11, 180219, Note_on_c, 5, 67, 0
11, 180240, Note_on_c, 5, 67, 84
11, 180240, Note_on_c, 5, 79, 84
11, 180339, Note_on_c, 5, 67, 0
11, 180339, Note_on_c, 5, 79, 0
11, 180360, Note_on_c, 5, 79, 84
11, 180360, Note_on_c, 5, 67, 84
11, 180459, Note_on_c, 5, 79, 0
11, 180459, Note_on_c, 5, 67, 0
11, 180480, Note_on_c, 5, 67, 84
11, 180480, Note_on_c, 5, 79, 84
11, 182399, Note_on_c, 5, 67, 0
11, 182399, Note_on_c, 5, 79, 0
11, 189120, Note_on_c, 5, 60, 52
11, 189120, Note_on_c, 5, 72, 52
11, 189359, Note_on_c, 5, 60, 0
11, 189359, Note_on_c, 5, 72, 0
11, 189600, Note_on_c, 5, 67, 76
11, 189600, Note_on_c, 5, 55, 76
11, 189839, Note_on_c, 5, 67, 0
11, 189839, Note_on_c, 5, 55, 0
11, 196320, Note_on_c, 5, 72, 76
11, 196320, Note_on_c, 5, 60, 76
11, 196559, Note_on_c, 5, 72, 0
11, 196559, Note_on_c, 5, 60, 0
11, 197280, Note_on_c, 5, 60, 76
11, 197280, Note_on_c, 5, 72, 76
11, 197519, Note_on_c, 5, 60, 0
11, 197519, Note_on_c, 5, 72, 0
11, 200640, Note_on_c, 5, 60, 76
11, 200640, Note_on_c, 5, 72, 76
11, 200879, Note_on_c, 5, 60, 0
11, 200879, Note_on_c, 5, 72, 0
11, 201120, Note_on_c, 5, 60, 76
11, 201120, Note_on_c, 5, 72, 76
11, 201359, Note_on_c, 5, 60, 0
11, 201359, Note_on_c, 5, 72, 0
11, 202800, Note_on_c, 5, 60, 76
11, 202800, Note_on_c, 5, 72, 76
11, 202899, Note_on_c, 5, 60, 0
11, 202899, Note_on_c, 5, 72, 0
11, 202920, Note_on_c, 5, 72, 76
11, 202920, Note_on_c, 5, 60, 76
11, 203019, Note_on_c, 5, 72, 0
11, 203019, Note_on_c, 5, 60, 0
11, 203040, Note_on_c, 5, 67, 76
11, 203040, Note_on_c, 5, 55, 76
11, 203279, Note_on_c, 5, 67, 0
11, 203279, Note_on_c, 5, 55, 0
11, 204720, Note_on_c, 5, 60, 76
11, 204720, Note_on_c, 5, 72, 76
11, 204819, Note_on_c, 5, 60, 0
11, 204819, Note_on_c, 5, 72, 0
11, 204840, Note_on_c, 5, 72, 76
11, 204840, Note_on_c, 5, 60, 76
11, 204939, Note_on_c, 5, 72, 0
11, 204939, Note_on_c, 5, 60, 0
11, 204960, Note_on_c, 5, 72, 84
11, 204960, Note_on_c, 5, 60, 84
11, 206859, Note_on_c, 5, 72, 0
11, 206859, Note_on_c, 5, 60, 0
11, 206880, Note_on_c, 5, 72, 84
11, 206880, Note_on_c, 5, 60, 84
11, 207119, Note_on_c, 5, 72, 0
11, 207119, Note_on_c, 5, 60, 0
11, 207840, Note_on_c, 5, 67, 84
11, 207840, Note_on_c, 5, 55, 84
11, 208079, Note_on_c, 5, 67, 0
11, 208079, Note_on_c, 5, 55, 0
11, 228960, Note_on_c, 5, 74, 84
11, 228960, Note_on_c, 5, 67, 84
11, 229659, Note_on_c, 5, 74, 0
11, 229659, Note_on_c, 5, 67, 0
11, 229680, Note_on_c, 5, 74, 84
11, 229680, Note_on_c, 5, 67, 84
11, 229899, Note_on_c, 5, 74, 0
11, 229899, Note_on_c, 5, 67, 0
11, 229920, Note_on_c, 5, 72, 84
11, 229920, Note_on_c, 5, 64, 84
11, 230159, Note_on_c, 5, 72, 0
11, 230159, Note_on_c, 5, 64, 0
11, 230400, Note_on_c, 5, 55, 84
11, 230400, Note_on_c, 5, 67, 84
11, 230639, Note_on_c, 5, 55, 0
11, 230639, Note_on_c, 5, 67, 0
11, 230880, Note_on_c, 5, 72, 84
11, 230880, Note_on_c, 5, 60, 84
11, 231119, Note_on_c, 5, 72, 0
11, 231119, Note_on_c, 5, 60, 0
11, 231360, Note_on_c, 5, 60, 84
11, 231360, Note_on_c, 5, 72, 84
11, 231599, Note_on_c, 5, 60, 0
11, 231599, Note_on_c, 5, 72, 0
11, 231840, Note_on_c, 5, 60, 84
11, 231840, Note_on_c, 5, 72, 84
11, 232079, Note_on_c, 5, 60, 0
11, 232079, Note_on_c, 5, 72, 0
11, 232320, Note_on_c, 5, 67, 84
11, 232320, Note_on_c, 5, 55, 84
11, 232559, Note_on_c, 5, 67, 0
11, 232559, Note_on_c, 5, 55, 0
11, 232800, Note_on_c, 5, 74, 84
11, 232800, Note_on_c, 5, 67, 84
11, 233739, Note_on_c, 5, 74, 0
11, 233739, Note_on_c, 5, 67, 0
11, 233760, Note_on_c, 5, 72, 84
11, 233760, Note_on_c, 5, 76, 84
11, 233979, Note_on_c, 5, 72, 0
11, 233979, Note_on_c, 5, 76, 0
11, 234000, Note_on_c, 5, 60, 84
11, 234000, Note_on_c, 5, 72, 84
11, 234239, Note_on_c, 5, 60, 0
11, 234239, Note_on_c, 5, 72, 0
11, 234480, Note_on_c, 5, 67, 84
11, 234480, Note_on_c, 5, 55, 84
11, 234719, Note_on_c, 5, 67, 0
11, 234719, Note_on_c, 5, 55, 0
11, 234960, Note_on_c, 5, 72, 84
11, 234960, Note_on_c, 5, 60, 84
11, 235199, Note_on_c, 5, 72, 0
11, 235199, Note_on_c, 5, 60, 0
11, 235440, Note_on_c, 5, 72, 84
11, 235440, Note_on_c, 5, 60, 84
11, 235679, Note_on_c, 5, 72, 0
11, 235679, Note_on_c, 5, 60, 0
11, 235920, Note_on_c, 5, 72, 84
11, 235920, Note_on_c, 5, 76, 84
11, 236159, Note_on_c, 5, 72, 0
11, 236159, Note_on_c, 5, 76, 0
11, 236400, Note_on_c, 5, 74, 84
11, 236400, Note_on_c, 5, 67, 84
11, 236619, Note_on_c, 5, 74, 0
11, 236619, Note_on_c, 5, 67, 0
11, 236640, Note_on_c, 5, 72, 84
11, 236640, Note_on_c, 5, 64, 84
11, 236879, Note_on_c, 5, 72, 0
11, 236879, Note_on_c, 5, 64, 0
11, 238200, Note_on_c, 5, 55, 84
11, 238200, Note_on_c, 5, 67, 84
11, 238299, Note_on_c, 5, 55, 0
11, 238299, Note_on_c, 5, 67, 0
11, 238320, Note_on_c, 5, 55, 84
11, 238320, Note_on_c, 5, 67, 84
11, 238419, Note_on_c, 5, 55, 0
11, 238419, Note_on_c, 5, 67, 0
11, 238440, Note_on_c, 5, 55, 84
11, 238440, Note_on_c, 5, 67, 84
11, 238539, Note_on_c, 5, 55, 0
11, 238539, Note_on_c, 5, 67, 0
11, 238560, Note_on_c, 5, 60, 84
11, 238560, Note_on_c, 5, 72, 84
11, 238799, Note_on_c, 5, 60, 0
11, 238799, Note_on_c, 5, 72, 0
11, 240120, Note_on_c, 5, 67, 84
11, 240120, Note_on_c, 5, 55, 84
11, 240219, Note_on_c, 5, 67, 0
11, 240219, Note_on_c, 5, 55, 0
11, 240240, Note_on_c, 5, 55, 84
11, 240240, Note_on_c, 5, 67, 84
11, 240339, Note_on_c, 5, 55, 0
11, 240339, Note_on_c, 5, 67, 0
11, 240360, Note_on_c, 5, 55, 84
11, 240360, Note_on_c, 5, 67, 84
11, 240459, Note_on_c, 5, 55, 0
11, 240459, Note_on_c, 5, 67, 0
11, 240480, Note_on_c, 5, 72, 84
11, 240480, Note_on_c, 5, 60, 84
11, 240719, Note_on_c, 5, 72, 0
11, 240719, Note_on_c, 5, 60, 0
11, 241080, Note_on_c, 5, 55, 84
11, 241080, Note_on_c, 5, 67, 84
11, 241179, Note_on_c, 5, 55, 0
11, 241179, Note_on_c, 5, 67, 0
11, 241200, Note_on_c, 5, 67, 84
11, 241200, Note_on_c, 5, 55, 84
11, 241299, Note_on_c, 5, 67, 0
11, 241299, Note_on_c, 5, 55, 0
11, 241320, Note_on_c, 5, 55, 84
11, 241320, Note_on_c, 5, 67, 84
11, 241419, Note_on_c, 5, 55, 0
11, 241419, Note_on_c, 5, 67, 0
11, 241440, Note_on_c, 5, 72, 84
11, 241440, Note_on_c, 5, 60, 84
11, 241679, Note_on_c, 5, 72, 0
11, 241679, Note_on_c, 5, 60, 0
11, 242040, Note_on_c, 5, 55, 84
11, 242040, Note_on_c, 5, 67, 84
11, 242139, Note_on_c, 5, 55, 0
11, 242139, Note_on_c, 5, 67, 0
11, 242160, Note_on_c, 5, 67, 84
11, 242160, Note_on_c, 5, 55, 84
11, 242259, Note_on_c, 5, 67, 0
11, 242259, Note_on_c, 5, 55, 0
11, 242280, Note_on_c, 5, 55, 84
11, 242280, Note_on_c, 5, 67, 84
11, 242379, Note_on_c, 5, 55, 0
11, 242379, Note_on_c, 5, 67, 0
11, 242400, Note_on_c, 5, 72, 84
11, 242400, Note_on_c, 5, 60, 84
11, 242499, Note_on_c, 5, 72, 0
11, 242499, Note_on_c, 5, 60, 0
11, 242520, Note_on_c, 5, 60, 84
11, 242520, Note_on_c, 5, 72, 84
11, 242619, Note_on_c, 5, 60, 0
11, 242619, Note_on_c, 5, 72, 0
11, 242640, Note_on_c, 5, 60, 84
11, 242640, Note_on_c, 5, 72, 84
11, 242739, Note_on_c, 5, 60, 0
11, 242739, Note_on_c, 5, 72, 0
11, 242760, Note_on_c, 5, 72, 84
11, 242760, Note_on_c, 5, 60, 84
11, 242859, Note_on_c, 5, 72, 0
11, 242859, Note_on_c, 5, 60, 0
11, 242880, Note_on_c, 5, 72, 84
11, 242880, Note_on_c, 5, 60, 84
11, 243359, Note_on_c, 5, 72, 0
11, 243359, Note_on_c, 5, 60, 0
11, 243360, Note_on_c, 5, 60, 84
11, 243360, Note_on_c, 5, 72, 84
11, 243459, Note_on_c, 5, 60, 0
11, 243459, Note_on_c, 5, 72, 0
11, 243480, Note_on_c, 5, 72, 84
11, 243480, Note_on_c, 5, 60, 84
11, 243579, Note_on_c, 5, 72, 0
11, 243579, Note_on_c, 5, 60, 0
11, 243600, Note_on_c, 5, 72, 84
11, 243600, Note_on_c, 5, 60, 84
11, 243699, Note_on_c, 5, 72, 0
11, 243699, Note_on_c, 5, 60, 0
11, 243720, Note_on_c, 5, 60, 84
11, 243720, Note_on_c, 5, 72, 84
11, 243819, Note_on_c, 5, 60, 0
11, 243819, Note_on_c, 5, 72, 0
11, 243840, Note_on_c, 5, 72, 84
11, 243840, Note_on_c, 5, 60, 84
11, 244319, Note_on_c, 5, 72, 0
11, 244319, Note_on_c, 5, 60, 0
11, 244320, Note_on_c, 5, 60, 84
11, 244320, Note_on_c, 5, 72, 84
11, 244419, Note_on_c, 5, 60, 0
11, 244419, Note_on_c, 5, 72, 0
11, 244440, Note_on_c, 5, 60, 84
11, 244440, Note_on_c, 5, 72, 84
11, 244539, Note_on_c, 5, 60, 0
11, 244539, Note_on_c, 5, 72, 0
11, 244560, Note_on_c, 5, 60, 84
11, 244560, Note_on_c, 5, 72, 84
11, 244659, Note_on_c, 5, 60, 0
11, 244659, Note_on_c, 5, 72, 0
11, 244680, Note_on_c, 5, 72, 84
11, 244680, Note_on_c, 5, 60, 84
11, 244779, Note_on_c, 5, 72, 0
11, 244779, Note_on_c, 5, 60, 0
11, 244800, Note_on_c, 5, 60, 84
11, 244800, Note_on_c, 5, 72, 84
11, 245279, Note_on_c, 5, 60, 0
11, 245279, Note_on_c, 5, 72, 0
11, 245280, Note_on_c, 5, 72, 84
11, 245280, Note_on_c, 5, 60, 84
11, 245379, Note_on_c, 5, 72, 0
11, 245379, Note_on_c, 5, 60, 0
11, 245400, Note_on_c, 5, 72, 84
11, 245400, Note_on_c, 5, 60, 84
11, 245499, Note_on_c, 5, 72, 0
11, 245499, Note_on_c, 5, 60, 0
11, 245520, Note_on_c, 5, 60, 84
11, 245520, Note_on_c, 5, 72, 84
11, 245619, Note_on_c, 5, 60, 0
11, 245619, Note_on_c, 5, 72, 0
11, 245640, Note_on_c, 5, 72, 84
11, 245640, Note_on_c, 5, 60, 84
11, 245739, Note_on_c, 5, 72, 0
11, 245739, Note_on_c, 5, 60, 0
11, 245760, Note_on_c, 5, 60, 84
11, 245760, Note_on_c, 5, 72, 84
11, 246239, Note_on_c, 5, 60, 0
11, 246239, Note_on_c, 5, 72, 0
11, 250200, Note_on_c, 5, 60, 84
11, 250200, Note_on_c, 5, 72, 84
11, 250299, Note_on_c, 5, 60, 0
11, 250299, Note_on_c, 5, 72, 0
11, 250320, Note_on_c, 5, 60, 84
11, 250320, Note_on_c, 5, 72, 84
11, 250419, Note_on_c, 5, 60, 0
11, 250419, Note_on_c, 5, 72, 0
11, 250440, Note_on_c, 5, 60, 84
11, 250440, Note_on_c, 5, 72, 84
11, 250539, Note_on_c, 5, 60, 0
11, 250539, Note_on_c, 5, 72, 0
11, 250560, Note_on_c, 5, 72, 84
11, 250560, Note_on_c, 5, 60, 84
11, 252459, Note_on_c, 5, 72, 0
11, 252459, Note_on_c, 5, 60, 0
11, 252480, Note_on_c, 5, 60, 84
11, 252480, Note_on_c, 5, 72, 84
11, 252719, Note_on_c, 5, 60, 0
11, 252719, Note_on_c, 5, 72, 0
11, 253080, Note_on_c, 5, 72, 84
11, 253080, Note_on_c, 5, 60, 84
11, 253179, Note_on_c, 5, 72, 0
11, 253179, Note_on_c, 5, 60, 0
11, 253200, Note_on_c, 5, 60, 84
11, 253200, Note_on_c, 5, 72, 84
11, 253299, Note_on_c, 5, 60, 0
11, 253299, Note_on_c, 5, 72, 0
11, 253320, Note_on_c, 5, 60, 84
11, 253320, Note_on_c, 5, 72, 84
11, 253419, Note_on_c, 5, 60, 0
11, 253419, Note_on_c, 5, 72, 0
11, 253440, Note_on_c, 5, 60, 84
11, 253440, Note_on_c, 5, 72, 84
11, 253679, Note_on_c, 5, 60, 0
11, 253679, Note_on_c, 5, 72, 0
11, 254400, Note_on_c, 5, 55, 76
11, 254400, Note_on_c, 5, 67, 76
11, 254639, Note_on_c, 5, 55, 0
11, 254639, Note_on_c, 5, 67, 0
11, 256320, Note_on_c, 5, 55, 76
11, 256320, Note_on_c, 5, 67, 76
11, 256559, Note_on_c, 5, 55, 0
11, 256559, Note_on_c, 5, 67, 0
11, 262320, Note_on_c, 5, 55, 76
11, 262320, Note_on_c, 5, 67, 76
11, 262539, Note_on_c, 5, 55, 0
11, 262539, Note_on_c, 5, 67, 0
11, 262560, Note_on_c, 5, 67, 76
11, 262560, Note_on_c, 5, 55, 76
11, 262779, Note_on_c, 5, 67, 0
11, 262779, Note_on_c, 5, 55, 0
11, 262800, Note_on_c, 5, 67, 76
11, 262800, Note_on_c, 5, 55, 76
11, 263019, Note_on_c, 5, 67, 0
11, 263019, Note_on_c, 5, 55, 0
11, 263040, Note_on_c, 5, 67, 76
11, 263040, Note_on_c, 5, 55, 76
11, 263259, Note_on_c, 5, 67, 0
11, 263259, Note_on_c, 5, 55, 0
11, 263280, Note_on_c, 5, 67, 76
11, 263280, Note_on_c, 5, 55, 76
11, 263499, Note_on_c, 5, 67, 0
11, 263499, Note_on_c, 5, 55, 0
11, 263520, Note_on_c, 5, 67, 76
11, 263520, Note_on_c, 5, 55, 76
11, 263739, Note_on_c, 5, 67, 0
11, 263739, Note_on_c, 5, 55, 0
11, 263760, Note_on_c, 5, 60, 76
11, 263760, Note_on_c, 5, 72, 76
11, 263979, Note_on_c, 5, 60, 0
11, 263979, Note_on_c, 5, 72, 0
11, 264000, Note_on_c, 5, 72, 76
11, 264000, Note_on_c, 5, 60, 76
11, 264219, Note_on_c, 5, 72, 0
11, 264219, Note_on_c, 5, 60, 0
11, 264240, Note_on_c, 5, 60, 76
11, 264240, Note_on_c, 5, 72, 76
11, 264459, Note_on_c, 5, 60, 0
11, 264459, Note_on_c, 5, 72, 0
11, 264480, Note_on_c, 5, 60, 76
11, 264480, Note_on_c, 5, 72, 76
11, 264699, Note_on_c, 5, 60, 0
11, 264699, Note_on_c, 5, 72, 0
11, 264720, Note_on_c, 5, 55, 76
11, 264720, Note_on_c, 5, 67, 76
11, 264939, Note_on_c, 5, 55, 0
11, 264939, Note_on_c, 5, 67, 0
11, 264960, Note_on_c, 5, 55, 76
11, 264960, Note_on_c, 5, 67, 76
11, 265179, Note_on_c, 5, 55, 0
11, 265179, Note_on_c, 5, 67, 0
11, 265200, Note_on_c, 5, 67, 76
11, 265200, Note_on_c, 5, 55, 76
11, 265419, Note_on_c, 5, 67, 0
11, 265419, Note_on_c, 5, 55, 0
11, 265440, Note_on_c, 5, 55, 76
11, 265440, Note_on_c, 5, 67, 76
11, 265659, Note_on_c, 5, 55, 0
11, 265659, Note_on_c, 5, 67, 0
11, 265680, Note_on_c, 5, 55, 76
11, 265680, Note_on_c, 5, 67, 76
11, 265899, Note_on_c, 5, 55, 0
11, 265899, Note_on_c, 5, 67, 0
11, 265920, Note_on_c, 5, 60, 76
11, 265920, Note_on_c, 5, 72, 76
11, 266859, Note_on_c, 5, 60, 0
11, 266859, Note_on_c, 5, 72, 0
11, 266880, Note_on_c, 5, 72, 76
11, 266880, Note_on_c, 5, 60, 76
11, 267819, Note_on_c, 5, 72, 0
11, 267819, Note_on_c, 5, 60, 0
11, 267840, Note_on_c, 5, 72, 76
11, 267840, Note_on_c, 5, 60, 76
11, 268779, Note_on_c, 5, 72, 0
11, 268779, Note_on_c, 5, 60, 0
11, 268800, Note_on_c, 5, 60, 76
11, 268800, Note_on_c, 5, 72, 76
11, 269739, Note_on_c, 5, 60, 0
11, 269739, Note_on_c, 5, 72, 0
11, 269760, Note_on_c, 5, 55, 76
11, 269760, Note_on_c, 5, 67, 76
11, 270219, Note_on_c, 5, 55, 0
11, 270219, Note_on_c, 5, 67, 0
11, 270240, Note_on_c, 5, 55, 76
11, 270240, Note_on_c, 5, 67, 76
11, 270699, Note_on_c, 5, 55, 0
11, 270699, Note_on_c, 5, 67, 0
11, 270720, Note_on_c, 5, 72, 76
11, 270720, Note_on_c, 5, 60, 76
11, 270899, Note_on_c, 5, 72, 0
11, 270899, Note_on_c, 5, 60, 0
11, 271200, Note_on_c, 5, 60, 76
11, 271200, Note_on_c, 5, 72, 76
11, 271379, Note_on_c, 5, 60, 0
11, 271379, Note_on_c, 5, 72, 0
11, 271680, Note_on_c, 5, 72, 76
11, 271680, Note_on_c, 5, 60, 76
11, 271859, Note_on_c, 5, 72, 0
11, 271859, Note_on_c, 5, 60, 0
11, 272160, Note_on_c, 5, 60, 76
11, 272160, Note_on_c, 5, 72, 76
11, 272339, Note_on_c, 5, 60, 0
11, 272339, Note_on_c, 5, 72, 0
11, 272640, Note_on_c, 5, 55, 76
11, 272640, Note_on_c, 5, 67, 76
11, 272819, Note_on_c, 5, 55, 0
11, 272819, Note_on_c, 5, 67, 0
11, 273120, Note_on_c, 5, 55, 76
11, 273120, Note_on_c, 5, 67, 76
11, 273299, Note_on_c, 5, 55, 0
11, 273299, Note_on_c, 5, 67, 0
11, 273600, Note_on_c, 5, 60, 76
11, 273600, Note_on_c, 5, 72, 76
11, 274059, Note_on_c, 5, 60, 0
11, 274059, Note_on_c, 5, 72, 0
11, 274080, Note_on_c, 5, 60, 76
11, 274080, Note_on_c, 5, 72, 76
11, 274299, Note_on_c, 5, 60, 0
11, 274299, Note_on_c, 5, 72, 0
11, 274320, Note_on_c, 5, 60, 76
11, 274320, Note_on_c, 5, 72, 76
11, 274539, Note_on_c, 5, 60, 0
11, 274539, Note_on_c, 5, 72, 0
11, 274560, Note_on_c, 5, 72, 76
11, 274560, Note_on_c, 5, 60, 76
11, 275019, Note_on_c, 5, 72, 0
11, 275019, Note_on_c, 5, 60, 0
11, 275040, Note_on_c, 5, 60, 76
11, 275040, Note_on_c, 5, 72, 76
11, 275259, Note_on_c, 5, 60, 0
11, 275259, Note_on_c, 5, 72, 0
11, 275280, Note_on_c, 5, 60, 76
11, 275280, Note_on_c, 5, 72, 76
11, 275499, Note_on_c, 5, 60, 0
11, 275499, Note_on_c, 5, 72, 0
11, 275520, Note_on_c, 5, 60, 76
11, 275520, Note_on_c, 5, 72, 76
11, 275979, Note_on_c, 5, 60, 0
11, 275979, Note_on_c, 5, 72, 0
11, 276000, Note_on_c, 5, 60, 76
11, 276000, Note_on_c, 5, 72, 76
11, 276219, Note_on_c, 5, 60, 0
11, 276219, Note_on_c, 5, 72, 0
11, 276240, Note_on_c, 5, 72, 76
11, 276240, Note_on_c, 5, 60, 76
11, 276459, Note_on_c, 5, 72, 0
11, 276459, Note_on_c, 5, 60, 0
11, 276480, Note_on_c, 5, 60, 76
11, 276480, Note_on_c, 5, 72, 76
11, 276939, Note_on_c, 5, 60, 0
11, 276939, Note_on_c, 5, 72, 0
11, 276960, Note_on_c, 5, 67, 76
11, 276960, Note_on_c, 5, 55, 76
11, 277179, Note_on_c, 5, 67, 0
11, 277179, Note_on_c, 5, 55, 0
11, 277200, Note_on_c, 5, 67, 76
11, 277200, Note_on_c, 5, 55, 76
11, 277419, Note_on_c, 5, 67, 0
11, 277419, Note_on_c, 5, 55, 0
11, 277440, Note_on_c, 5, 67, 76
11, 277440, Note_on_c, 5, 55, 76
11, 277899, Note_on_c, 5, 67, 0
11, 277899, Note_on_c, 5, 55, 0
11, 277920, Note_on_c, 5, 55, 76
11, 277920, Note_on_c, 5, 67, 76
11, 278139, Note_on_c, 5, 55, 0
11, 278139, Note_on_c, 5, 67, 0
11, 278160, Note_on_c, 5, 55, 76
11, 278160, Note_on_c, 5, 67, 76
11, 278379, Note_on_c, 5, 55, 0
11, 278379, Note_on_c, 5, 67, 0
11, 278400, Note_on_c, 5, 67, 76
11, 278400, Note_on_c, 5, 55, 76
11, 278859, Note_on_c, 5, 67, 0
11, 278859, Note_on_c, 5, 55, 0
11, 278880, Note_on_c, 5, 67, 76
11, 278880, Note_on_c, 5, 55, 76
11, 279099, Note_on_c, 5, 67, 0
11, 279099, Note_on_c, 5, 55, 0
11, 279120, Note_on_c, 5, 67, 76
11, 279120, Note_on_c, 5, 55, 76
11, 279339, Note_on_c, 5, 67, 0
11, 279339, Note_on_c, 5, 55, 0
11, 279360, Note_on_c, 5, 55, 76
11, 279360, Note_on_c, 5, 67, 76
11, 279819, Note_on_c, 5, 55, 0
11, 279819, Note_on_c, 5, 67, 0
11, 279840, Note_on_c, 5, 67, 76
11, 279840, Note_on_c, 5, 55, 76
11, 280059, Note_on_c, 5, 67, 0
11, 280059, Note_on_c, 5, 55, 0
11, 280080, Note_on_c, 5, 55, 76
11, 280080, Note_on_c, 5, 67, 76
11, 280299, Note_on_c, 5, 55, 0
11, 280299, Note_on_c, 5, 67, 0
11, 280320, Note_on_c, 5, 60, 76
11, 280320, Note_on_c, 5, 67, 76
11, 280559, Note_on_c, 5, 60, 0
11, 280559, Note_on_c, 5, 67, 0
11, 281760, Note_on_c, 5, 60, 76
11, 281760, Note_on_c, 5, 72, 76
11, 281979, Note_on_c, 5, 60, 0
11, 281979, Note_on_c, 5, 72, 0
11, 282000, Note_on_c, 5, 72, 76
11, 282000, Note_on_c, 5, 60, 76
11, 282239, Note_on_c, 5, 72, 0
11, 282239, Note_on_c, 5, 60, 0
11, 282720, Note_on_c, 5, 72, 76
11, 282720, Note_on_c, 5, 60, 76
11, 282939, Note_on_c, 5, 72, 0
11, 282939, Note_on_c, 5, 60, 0
11, 282960, Note_on_c, 5, 72, 76
11, 282960, Note_on_c, 5, 60, 76
11, 283199, Note_on_c, 5, 72, 0
11, 283199, Note_on_c, 5, 60, 0
11, 283440, Note_on_c, 5, 67, 76
11, 283440, Note_on_c, 5, 55, 76
11, 283679, Note_on_c, 5, 67, 0
11, 283679, Note_on_c, 5, 55, 0
11, 283920, Note_on_c, 5, 55, 76
11, 283920, Note_on_c, 5, 67, 76
11, 284159, Note_on_c, 5, 55, 0
11, 284159, Note_on_c, 5, 67, 0
11, 285120, Note_on_c, 5, 60, 76
11, 285120, Note_on_c, 5, 72, 76
11, 285339, Note_on_c, 5, 60, 0
11, 285339, Note_on_c, 5, 72, 0
11, 285360, Note_on_c, 5, 60, 76
11, 285360, Note_on_c, 5, 72, 76
11, 285579, Note_on_c, 5, 60, 0
11, 285579, Note_on_c, 5, 72, 0
11, 285600, Note_on_c, 5, 72, 76
11, 285600, Note_on_c, 5, 60, 76
11, 285819, Note_on_c, 5, 72, 0
11, 285819, Note_on_c, 5, 60, 0
11, 285840, Note_on_c, 5, 60, 76
11, 285840, Note_on_c, 5, 72, 76
11, 286059, Note_on_c, 5, 60, 0
11, 286059, Note_on_c, 5, 72, 0
11, 286080, Note_on_c, 5, 60, 76
11, 286080, Note_on_c, 5, 72, 76
11, 286299, Note_on_c, 5, 60, 0
11, 286299, Note_on_c, 5, 72, 0
11, 286320, Note_on_c, 5, 72, 76
11, 286320, Note_on_c, 5, 60, 76
11, 286539, Note_on_c, 5, 72, 0
11, 286539, Note_on_c, 5, 60, 0
11, 286560, Note_on_c, 5, 60, 76
11, 286560, Note_on_c, 5, 72, 76
11, 286779, Note_on_c, 5, 60, 0
11, 286779, Note_on_c, 5, 72, 0
11, 286800, Note_on_c, 5, 60, 76
11, 286800, Note_on_c, 5, 72, 76
11, 287039, Note_on_c, 5, 60, 0
11, 287039, Note_on_c, 5, 72, 0
11, 287280, Note_on_c, 5, 67, 76
11, 287280, Note_on_c, 5, 55, 76
11, 287519, Note_on_c, 5, 67, 0
11, 287519, Note_on_c, 5, 55, 0
11, 287760, Note_on_c, 5, 55, 76
11, 287760, Note_on_c, 5, 67, 76
11, 287979, Note_on_c, 5, 55, 0
11, 287979, Note_on_c, 5, 67, 0
11, 288000, Note_on_c, 5, 60, 76
11, 288000, Note_on_c, 5, 72, 76
11, 288239, Note_on_c, 5, 60, 0
11, 288239, Note_on_c, 5, 72, 0
11, 290520, Note_on_c, 5, 55, 76
11, 290520, Note_on_c, 5, 67, 76
11, 290619, Note_on_c, 5, 55, 0
11, 290619, Note_on_c, 5, 67, 0
11, 290640, Note_on_c, 5, 55, 76
11, 290640, Note_on_c, 5, 67, 76
11, 290739, Note_on_c, 5, 55, 0
11, 290739, Note_on_c, 5, 67, 0
11, 290760, Note_on_c, 5, 67, 76
11, 290760, Note_on_c, 5, 55, 76
11, 290859, Note_on_c, 5, 67, 0
11, 290859, Note_on_c, 5, 55, 0
11, 290880, Note_on_c, 5, 72, 76
11, 290880, Note_on_c, 5, 60, 76
11, 291119, Note_on_c, 5, 72, 0
11, 291119, Note_on_c, 5, 60, 0
11, 292440, Note_on_c, 5, 55, 76
11, 292440, Note_on_c, 5, 67, 76
11, 292539, Note_on_c, 5, 55, 0
11, 292539, Note_on_c, 5, 67, 0
11, 292560, Note_on_c, 5, 55, 76
11, 292560, Note_on_c, 5, 67, 76
11, 292659, Note_on_c, 5, 55, 0
11, 292659, Note_on_c, 5, 67, 0
11, 292680, Note_on_c, 5, 67, 76
11, 292680, Note_on_c, 5, 55, 76
11, 292779, Note_on_c, 5, 67, 0
11, 292779, Note_on_c, 5, 55, 0
11, 292800, Note_on_c, 5, 67, 84
11, 292800, Note_on_c, 5, 55, 84
11, 294239, Note_on_c, 5, 67, 0
11, 294239, Note_on_c, 5, 55, 0
11, 294360, Note_on_c, 5, 55, 84
11, 294360, Note_on_c, 5, 67, 84
11, 294459, Note_on_c, 5, 55, 0
11, 294459, Note_on_c, 5, 67, 0
11, 294480, Note_on_c, 5, 55, 84
11, 294480, Note_on_c, 5, 67, 84
11, 294579, Note_on_c, 5, 55, 0
11, 294579, Note_on_c, 5, 67, 0
11, 294600, Note_on_c, 5, 55, 84
11, 294600, Note_on_c, 5, 67, 84
11, 294699, Note_on_c, 5, 55, 0
11, 294699, Note_on_c, 5, 67, 0
11, 294720, Note_on_c, 5, 55, 84
11, 294720, Note_on_c, 5, 67, 84
11, 296639, Note_on_c, 5, 55, 0
11, 296639, Note_on_c, 5, 67, 0
11, 300600, Note_on_c, 5, 67, 84
11, 300600, Note_on_c, 5, 55, 84
11, 300699, Note_on_c, 5, 67, 0
11, 300699, Note_on_c, 5, 55, 0
11, 300720, Note_on_c, 5, 67, 84
11, 300720, Note_on_c, 5, 55, 84
11, 300819, Note_on_c, 5, 67, 0
11, 300819, Note_on_c, 5, 55, 0
11, 300840, Note_on_c, 5, 67, 84
11, 300840, Note_on_c, 5, 55, 84
11, 300939, Note_on_c, 5, 67, 0
11, 300939, Note_on_c, 5, 55, 0
11, 300960, Note_on_c, 5, 60, 84
11, 300960, Note_on_c, 5, 72, 84
11, 301199, Note_on_c, 5, 60, 0
11, 301199, Note_on_c, 5, 72, 0
11, 301560, Note_on_c, 5, 55, 84
11, 301560, Note_on_c, 5, 67, 84
11, 301659, Note_on_c, 5, 55, 0
11, 301659, Note_on_c, 5, 67, 0
11, 301680, Note_on_c, 5, 55, 84
11, 301680, Note_on_c, 5, 67, 84
11, 301779, Note_on_c, 5, 55, 0
11, 301779, Note_on_c, 5, 67, 0
11, 301800, Note_on_c, 5, 67, 84
11, 301800, Note_on_c, 5, 55, 84
11, 301899, Note_on_c, 5, 67, 0
11, 301899, Note_on_c, 5, 55, 0
11, 301920, Note_on_c, 5, 60, 84
11, 301920, Note_on_c, 5, 72, 84
11, 302159, Note_on_c, 5, 60, 0
11, 302159, Note_on_c, 5, 72, 0
11, 302520, Note_on_c, 5, 67, 84
11, 302520, Note_on_c, 5, 55, 84
11, 302619, Note_on_c, 5, 67, 0
11, 302619, Note_on_c, 5, 55, 0
11, 302640, Note_on_c, 5, 55, 84
11, 302640, Note_on_c, 5, 67, 84
11, 302739, Note_on_c, 5, 55, 0
11, 302739, Note_on_c, 5, 67, 0
11, 302760, Note_on_c, 5, 55, 84
11, 302760, Note_on_c, 5, 67, 84
11, 302859, Note_on_c, 5, 55, 0
11, 302859, Note_on_c, 5, 67, 0
11, 302880, Note_on_c, 5, 72, 84
11, 302880, Note_on_c, 5, 60, 84
11, 303099, Note_on_c, 5, 72, 0
11, 303099, Note_on_c, 5, 60, 0
11, 303120, Note_on_c, 5, 55, 84
11, 303120, Note_on_c, 5, 67, 84
11, 303339, Note_on_c, 5, 55, 0
11, 303339, Note_on_c, 5, 67, 0
11, 303360, Note_on_c, 5, 72, 84
11, 303360, Note_on_c, 5, 60, 84
11, 303579, Note_on_c, 5, 72, 0
11, 303579, Note_on_c, 5, 60, 0
11, 303600, Note_on_c, 5, 55, 84
11, 303600, Note_on_c, 5, 67, 84
11, 303819, Note_on_c, 5, 55, 0
11, 303819, Note_on_c, 5, 67, 0
11, 303840, Note_on_c, 5, 72, 84
11, 303840, Note_on_c, 5, 60, 84
11, 304059, Note_on_c, 5, 72, 0
11, 304059, Note_on_c, 5, 60, 0
11, 304080, Note_on_c, 5, 55, 84
11, 304080, Note_on_c, 5, 67, 84
11, 304299, Note_on_c, 5, 55, 0
11, 304299, Note_on_c, 5, 67, 0
11, 304320, Note_on_c, 5, 60, 84
11, 304320, Note_on_c, 5, 72, 84
11, 304539, Note_on_c, 5, 60, 0
11, 304539, Note_on_c, 5, 72, 0
11, 304560, Note_on_c, 5, 67, 84
11, 304560, Note_on_c, 5, 55, 84
11, 304779, Note_on_c, 5, 67, 0
11, 304779, Note_on_c, 5, 55, 0
11, 304800, Note_on_c, 5, 72, 84
11, 304800, Note_on_c, 5, 60, 84
11, 305039, Note_on_c, 5, 72, 0
11, 305039, Note_on_c, 5, 60, 0
11, 305280, Note_on_c, 5, 67, 84
11, 305280, Note_on_c, 5, 55, 84
11, 305519, Note_on_c, 5, 67, 0
11, 305519, Note_on_c, 5, 55, 0
11, 305760, Note_on_c, 5, 60, 84
11, 305999, Note_on_c, 5, 60, 0
11, 305999, End_track
12, 0, Start_track
12, 0, Title_t, "Timpani"
12, 0, MIDI_port, 0
12, 0, Program_c, 6, 47
12, 0, Control_c, 6, 7, 96
12, 0, Control_c, 6, 10, 25
12, 0, Control_c, 6, 11, 127
12, 8280, Note_on_c, 6, 43, 58
12, 8399, Note_on_c, 6, 43, 0
12, 8400, Note_on_c, 6, 43, 64
12, 8519, Note_on_c, 6, 43, 0
12, 8520, Note_on_c, 6, 43, 70
12, 8639, Note_on_c, 6, 43, 0
12, 8640, Note_on_c, 6, 48, 76
12, 8879, Note_on_c, 6, 48, 0
12, 9120, Note_on_c, 6, 48, 76
12, 9359, Note_on_c, 6, 48, 0
12, 9600, Note_on_c, 6, 43, 76
12, 9839, Note_on_c, 6, 43, 0
12, 20160, Note_on_c, 6, 48, 76
12, 20399, Note_on_c, 6, 48, 0
12, 20640, Note_on_c, 6, 48, 76
12, 20879, Note_on_c, 6, 48, 0
12, 22320, Note_on_c, 6, 48, 76
12, 22439, Note_on_c, 6, 48, 0
12, 22440, Note_on_c, 6, 48, 76
12, 22559, Note_on_c, 6, 48, 0
12, 22560, Note_on_c, 6, 43, 76
12, 22799, Note_on_c, 6, 43, 0
12, 24240, Note_on_c, 6, 48, 76
12, 24359, Note_on_c, 6, 48, 0
12, 24360, Note_on_c, 6, 48, 76
12, 24479, Note_on_c, 6, 48, 0
12, 24480, Note_on_c, 6, 48, 84
12, 24599, Note_on_c, 6, 48, 0
12, 24600, Note_on_c, 6, 48, 84
12, 24719, Note_on_c, 6, 48, 0
12, 24720, Note_on_c, 6, 48, 84
12, 24839, Note_on_c, 6, 48, 0
12, 24840, Note_on_c, 6, 48, 84
12, 24959, Note_on_c, 6, 48, 0
12, 24960, Note_on_c, 6, 48, 84
12, 25079, Note_on_c, 6, 48, 0
12, 25080, Note_on_c, 6, 48, 84
12, 25199, Note_on_c, 6, 48, 0
12, 25200, Note_on_c, 6, 48, 84
12, 25319, Note_on_c, 6, 48, 0
12, 25320, Note_on_c, 6, 48, 84
12, 25439, Note_on_c, 6, 48, 0
12, 25440, Note_on_c, 6, 48, 84
12, 25559, Note_on_c, 6, 48, 0
12, 25560, Note_on_c, 6, 48, 84
12, 25679, Note_on_c, 6, 48, 0
12, 25680, Note_on_c, 6, 48, 84
12, 25799, Note_on_c, 6, 48, 0
12, 25800, Note_on_c, 6, 48, 84
12, 25919, Note_on_c, 6, 48, 0
12, 25920, Note_on_c, 6, 48, 84
12, 26039, Note_on_c, 6, 48, 0
12, 26040, Note_on_c, 6, 48, 84
12, 26159, Note_on_c, 6, 48, 0
12, 26160, Note_on_c, 6, 48, 84
12, 26279, Note_on_c, 6, 48, 0
12, 26280, Note_on_c, 6, 48, 84
12, 26399, Note_on_c, 6, 48, 0
12, 26400, Note_on_c, 6, 48, 84
12, 26639, Note_on_c, 6, 48, 0
12, 46560, Note_on_c, 6, 43, 76
12, 46799, Note_on_c, 6, 43, 0
12, 47040, Note_on_c, 6, 48, 76
12, 47279, Note_on_c, 6, 48, 0
12, 49680, Note_on_c, 6, 43, 76
12, 49919, Note_on_c, 6, 43, 0
12, 50640, Note_on_c, 6, 43, 76
12, 50879, Note_on_c, 6, 43, 0
12, 51120, Note_on_c, 6, 48, 76
12, 51359, Note_on_c, 6, 48, 0
12, 67800, Note_on_c, 6, 43, 58
12, 67919, Note_on_c, 6, 43, 0
12, 67920, Note_on_c, 6, 43, 64
12, 68039, Note_on_c, 6, 43, 0
12, 68040, Note_on_c, 6, 43, 70
12, 68159, Note_on_c, 6, 43, 0
12, 68160, Note_on_c, 6, 48, 76
12, 68399, Note_on_c, 6, 48, 0
12, 68640, Note_on_c, 6, 48, 76
12, 68879, Note_on_c, 6, 48, 0
12, 69120, Note_on_c, 6, 43, 76
12, 69359, Note_on_c, 6, 43, 0
12, 79680, Note_on_c, 6, 48, 76
12, 79919, Note_on_c, 6, 48, 0
12, 80160, Note_on_c, 6, 48, 76
12, 80399, Note_on_c, 6, 48, 0
12, 81840, Note_on_c, 6, 48, 76
12, 81959, Note_on_c, 6, 48, 0
12, 81960, Note_on_c, 6, 48, 76
12, 82079, Note_on_c, 6, 48, 0
12, 82080, Note_on_c, 6, 43, 76
12, 82319, Note_on_c, 6, 43, 0
12, 83760, Note_on_c, 6, 48, 76
12, 83879, Note_on_c, 6, 48, 0
12, 83880, Note_on_c, 6, 48, 76
12, 83999, Note_on_c, 6, 48, 0
12, 84000, Note_on_c, 6, 48, 84
12, 84119, Note_on_c, 6, 48, 0
12, 84120, Note_on_c, 6, 48, 84
12, 84239, Note_on_c, 6, 48, 0
12, 84240, Note_on_c, 6, 48, 84
12, 84359, Note_on_c, 6, 48, 0
12, 84360, Note_on_c, 6, 48, 84
12, 84479, Note_on_c, 6, 48, 0
12, 84480, Note_on_c, 6, 48, 84
12, 84599, Note_on_c, 6, 48, 0
12, 84600, Note_on_c, 6, 48, 84
12, 84719, Note_on_c, 6, 48, 0
12, 84720, Note_on_c, 6, 48, 84
12, 84839, Note_on_c, 6, 48, 0
12, 84840, Note_on_c, 6, 48, 84
12, 84959, Note_on_c, 6, 48, 0
12, 84960, Note_on_c, 6, 48, 84
12, 85079, Note_on_c, 6, 48, 0
12, 85080, Note_on_c, 6, 48, 84
12, 85199, Note_on_c, 6, 48, 0
12, 85200, Note_on_c, 6, 48, 84
12, 85319, Note_on_c, 6, 48, 0
12, 85320, Note_on_c, 6, 48, 84
12, 85439, Note_on_c, 6, 48, 0
12, 85440, Note_on_c, 6, 48, 84
12, 85559, Note_on_c, 6, 48, 0
12, 85560, Note_on_c, 6, 48, 84
12, 85679, Note_on_c, 6, 48, 0
12, 85680, Note_on_c, 6, 48, 84
12, 85799, Note_on_c, 6, 48, 0
12, 85800, Note_on_c, 6, 48, 84
12, 85919, Note_on_c, 6, 48, 0
12, 85920, Note_on_c, 6, 48, 84
12, 86159, Note_on_c, 6, 48, 0
12, 106080, Note_on_c, 6, 43, 76
12, 106319, Note_on_c, 6, 43, 0
12, 106560, Note_on_c, 6, 48, 76
12, 106799, Note_on_c, 6, 48, 0
12, 109200, Note_on_c, 6, 43, 76
12, 109439, Note_on_c, 6, 43, 0
12, 110160, Note_on_c, 6, 43, 76
12, 110399, Note_on_c, 6, 43, 0
12, 110640, Note_on_c, 6, 48, 76
12, 110879, Note_on_c, 6, 48, 0
12, 134880, Note_on_c, 6, 43, 44
12, 135119, Note_on_c, 6, 43, 0
12, 135840, Note_on_c, 6, 48, 44
12, 136079, Note_on_c, 6, 48, 0
12, 136800, Note_on_c, 6, 48, 44
12, 137039, Note_on_c, 6, 48, 0
12, 137760, Note_on_c, 6, 43, 44
12, 137999, Note_on_c, 6, 43, 0
12, 138720, Note_on_c, 6, 43, 44
12, 138959, Note_on_c, 6, 43, 0
12, 139680, Note_on_c, 6, 48, 76
12, 139799, Note_on_c, 6, 48, 0
12, 139800, Note_on_c, 6, 48, 76
12, 139919, Note_on_c, 6, 48, 0
12, 139920, Note_on_c, 6, 48, 76
12, 140039, Note_on_c, 6, 48, 0
12, 140040, Note_on_c, 6, 48, 76
12, 140159, Note_on_c, 6, 48, 0
12, 140160, Note_on_c, 6, 48, 76
12, 140279, Note_on_c, 6, 48, 0
12, 140280, Note_on_c, 6, 48, 76
12, 140399, Note_on_c, 6, 48, 0
12, 140400, Note_on_c, 6, 48, 76
12, 140519, Note_on_c, 6, 48, 0
12, 140520, Note_on_c, 6, 48, 76
12, 140639, Note_on_c, 6, 48, 0
12, 140640, Note_on_c, 6, 48, 76
12, 140879, Note_on_c, 6, 48, 0
12, 141240, Note_on_c, 6, 43, 76
12, 141359, Note_on_c, 6, 43, 0
12, 141360, Note_on_c, 6, 43, 76
12, 141479, Note_on_c, 6, 43, 0
12, 141480, Note_on_c, 6, 43, 76
12, 141599, Note_on_c, 6, 43, 0
12, 141600, Note_on_c, 6, 43, 76
12, 141719, Note_on_c, 6, 43, 0
12, 141720, Note_on_c, 6, 43, 76
12, 141839, Note_on_c, 6, 43, 0
12, 141840, Note_on_c, 6, 43, 76
12, 141959, Note_on_c, 6, 43, 0
12, 141960, Note_on_c, 6, 43, 76
12, 142079, Note_on_c, 6, 43, 0
12, 142080, Note_on_c, 6, 43, 76
12, 142199, Note_on_c, 6, 43, 0
12, 142200, Note_on_c, 6, 43, 76
12, 142319, Note_on_c, 6, 43, 0
12, 142320, Note_on_c, 6, 43, 76
12, 142439, Note_on_c, 6, 43, 0
12, 142440, Note_on_c, 6, 43, 76
12, 142559, Note_on_c, 6, 43, 0
12, 142560, Note_on_c, 6, 43, 76
12, 142799, Note_on_c, 6, 43, 0
12, 143160, Note_on_c, 6, 43, 80
12, 143279, Note_on_c, 6, 43, 0
12, 143280, Note_on_c, 6, 43, 80
12, 143399, Note_on_c, 6, 43, 0
12, 143400, Note_on_c, 6, 43, 80
12, 143519, Note_on_c, 6, 43, 0
12, 143520, Note_on_c, 6, 43, 80
12, 143759, Note_on_c, 6, 43, 0
12, 144240, Note_on_c, 6, 43, 80
12, 144359, Note_on_c, 6, 43, 0
12, 144360, Note_on_c, 6, 43, 80
12, 144479, Note_on_c, 6, 43, 0
12, 144480, Note_on_c, 6, 43, 80
12, 144719, Note_on_c, 6, 43, 0
12, 148800, Note_on_c, 6, 43, 80
12, 149039, Note_on_c, 6, 43, 0
12, 152400, Note_on_c, 6, 43, 80
12, 152519, Note_on_c, 6, 43, 0
12, 152520, Note_on_c, 6, 43, 80
12, 152639, Note_on_c, 6, 43, 0
12, 152640, Note_on_c, 6, 48, 80
12, 152879, Note_on_c, 6, 48, 0
12, 178200, Note_on_c, 6, 43, 84
12, 178319, Note_on_c, 6, 43, 0
12, 178320, Note_on_c, 6, 43, 84
12, 178439, Note_on_c, 6, 43, 0
12, 178440, Note_on_c, 6, 43, 84
12, 178559, Note_on_c, 6, 43, 0
12, 178560, Note_on_c, 6, 43, 80
12, 178619, Note_on_c, 6, 43, 0
12, 178620, Note_on_c, 6, 43, 84
12, 178679, Note_on_c, 6, 43, 0
12, 178680, Note_on_c, 6, 43, 81
12, 178739, Note_on_c, 6, 43, 0
12, 178740, Note_on_c, 6, 43, 86
12, 178799, Note_on_c, 6, 43, 0
12, 178800, Note_on_c, 6, 43, 84
12, 178859, Note_on_c, 6, 43, 0
12, 178860, Note_on_c, 6, 43, 83
12, 178919, Note_on_c, 6, 43, 0
12, 178920, Note_on_c, 6, 43, 82
12, 178979, Note_on_c, 6, 43, 0
12, 178980, Note_on_c, 6, 43, 87
12, 179039, Note_on_c, 6, 43, 0
12, 179040, Note_on_c, 6, 43, 86
12, 179099, Note_on_c, 6, 43, 0
12, 179100, Note_on_c, 6, 43, 85
12, 179159, Note_on_c, 6, 43, 0
12, 179160, Note_on_c, 6, 43, 81
12, 179219, Note_on_c, 6, 43, 0
12, 179220, Note_on_c, 6, 43, 86
12, 179279, Note_on_c, 6, 43, 0
12, 179280, Note_on_c, 6, 43, 85
12, 179339, Note_on_c, 6, 43, 0
12, 179340, Note_on_c, 6, 43, 84
12, 179399, Note_on_c, 6, 43, 0
12, 179400, Note_on_c, 6, 43, 82
12, 179459, Note_on_c, 6, 43, 0
12, 179460, Note_on_c, 6, 43, 80
12, 179519, Note_on_c, 6, 43, 0
12, 179520, Note_on_c, 6, 43, 80
12, 179579, Note_on_c, 6, 43, 0
12, 179580, Note_on_c, 6, 43, 82
12, 179639, Note_on_c, 6, 43, 0
12, 179640, Note_on_c, 6, 43, 81
12, 179699, Note_on_c, 6, 43, 0
12, 179700, Note_on_c, 6, 43, 81
12, 179759, Note_on_c, 6, 43, 0
12, 179760, Note_on_c, 6, 43, 87
12, 179819, Note_on_c, 6, 43, 0
12, 179820, Note_on_c, 6, 43, 83
12, 179879, Note_on_c, 6, 43, 0
12, 179880, Note_on_c, 6, 43, 80
12, 179939, Note_on_c, 6, 43, 0
12, 179940, Note_on_c, 6, 43, 80
12, 179999, Note_on_c, 6, 43, 0
12, 180120, Note_on_c, 6, 43, 84
12, 180239, Note_on_c, 6, 43, 0
12, 180240, Note_on_c, 6, 43, 84
12, 180359, Note_on_c, 6, 43, 0
12, 180360, Note_on_c, 6, 43, 84
12, 180479, Note_on_c, 6, 43, 0
12, 180480, Note_on_c, 6, 43, 80
12, 180539, Note_on_c, 6, 43, 0
12, 180540, Note_on_c, 6, 43, 83
12, 180599, Note_on_c, 6, 43, 0
12, 180600, Note_on_c, 6, 43, 84
12, 180659, Note_on_c, 6, 43, 0
12, 180660, Note_on_c, 6, 43, 84
12, 180719, Note_on_c, 6, 43, 0
12, 180720, Note_on_c, 6, 43, 84
12, 180779, Note_on_c, 6, 43, 0
12, 180780, Note_on_c, 6, 43, 84
12, 180839, Note_on_c, 6, 43, 0
12, 180840, Note_on_c, 6, 43, 81
12, 180899, Note_on_c, 6, 43, 0
12, 180900, Note_on_c, 6, 43, 85
12, 180959, Note_on_c, 6, 43, 0
12, 180960, Note_on_c, 6, 43, 83
12, 181019, Note_on_c, 6, 43, 0
12, 181020, Note_on_c, 6, 43, 82
12, 181079, Note_on_c, 6, 43, 0
12, 181080, Note_on_c, 6, 43, 80
12, 181139, Note_on_c, 6, 43, 0
12, 181140, Note_on_c, 6, 43, 84
12, 181199, Note_on_c, 6, 43, 0
12, 181200, Note_on_c, 6, 43, 86
12, 181259, Note_on_c, 6, 43, 0
12, 181260, Note_on_c, 6, 43, 86
12, 181319, Note_on_c, 6, 43, 0
12, 181320, Note_on_c, 6, 43, 84
12, 181379, Note_on_c, 6, 43, 0
12, 181380, Note_on_c, 6, 43, 82
12, 181439, Note_on_c, 6, 43, 0
12, 181440, Note_on_c, 6, 43, 87
12, 181499, Note_on_c, 6, 43, 0
12, 181500, Note_on_c, 6, 43, 85
12, 181559, Note_on_c, 6, 43, 0
12, 181560, Note_on_c, 6, 43, 87
12, 181619, Note_on_c, 6, 43, 0
12, 181620, Note_on_c, 6, 43, 87
12, 181679, Note_on_c, 6, 43, 0
12, 181680, Note_on_c, 6, 43, 84
12, 181739, Note_on_c, 6, 43, 0
12, 181740, Note_on_c, 6, 43, 81
12, 181799, Note_on_c, 6, 43, 0
12, 181800, Note_on_c, 6, 43, 83
12, 181859, Note_on_c, 6, 43, 0
12, 181860, Note_on_c, 6, 43, 81
12, 181919, Note_on_c, 6, 43, 0
12, 181920, Note_on_c, 6, 43, 86
12, 181979, Note_on_c, 6, 43, 0
12, 181980, Note_on_c, 6, 43, 81
12, 182039, Note_on_c, 6, 43, 0
12, 182040, Note_on_c, 6, 43, 86
12, 182099, Note_on_c, 6, 43, 0
12, 182100, Note_on_c, 6, 43, 86
12, 182159, Note_on_c, 6, 43, 0
12, 182160, Note_on_c, 6, 43, 87
12, 182219, Note_on_c, 6, 43, 0
12, 182220, Note_on_c, 6, 43, 87
12, 182279, Note_on_c, 6, 43, 0
12, 182280, Note_on_c, 6, 43, 84
12, 182339, Note_on_c, 6, 43, 0
12, 182340, Note_on_c, 6, 43, 83
12, 182399, Note_on_c, 6, 43, 0
12, 189360, Note_on_c, 6, 48, 52
12, 189599, Note_on_c, 6, 48, 0
12, 189600, Note_on_c, 6, 43, 76
12, 189839, Note_on_c, 6, 43, 0
12, 196320, Note_on_c, 6, 48, 76
12, 196559, Note_on_c, 6, 48, 0
12, 197280, Note_on_c, 6, 48, 76
12, 197519, Note_on_c, 6, 48, 0
12, 200640, Note_on_c, 6, 48, 76
12, 200879, Note_on_c, 6, 48, 0
12, 201120, Note_on_c, 6, 48, 76
12, 201359, Note_on_c, 6, 48, 0
12, 202800, Note_on_c, 6, 48, 76
12, 202919, Note_on_c, 6, 48, 0
12, 202920, Note_on_c, 6, 48, 76
12, 203039, Note_on_c, 6, 48, 0
12, 203040, Note_on_c, 6, 43, 76
12, 203279, Note_on_c, 6, 43, 0
12, 204720, Note_on_c, 6, 48, 76
12, 204839, Note_on_c, 6, 48, 0
12, 204840, Note_on_c, 6, 48, 76
12, 204959, Note_on_c, 6, 48, 0
12, 204960, Note_on_c, 6, 48, 84
12, 205079, Note_on_c, 6, 48, 0
12, 205080, Note_on_c, 6, 48, 84
12, 205199, Note_on_c, 6, 48, 0
12, 205200, Note_on_c, 6, 48, 84
12, 205319, Note_on_c, 6, 48, 0
12, 205320, Note_on_c, 6, 48, 84
12, 205439, Note_on_c, 6, 48, 0
12, 205440, Note_on_c, 6, 48, 84
12, 205559, Note_on_c, 6, 48, 0
12, 205560, Note_on_c, 6, 48, 84
12, 205679, Note_on_c, 6, 48, 0
12, 205680, Note_on_c, 6, 48, 84
12, 205799, Note_on_c, 6, 48, 0
12, 205800, Note_on_c, 6, 48, 84
12, 205919, Note_on_c, 6, 48, 0
12, 205920, Note_on_c, 6, 48, 84
12, 206039, Note_on_c, 6, 48, 0
12, 206040, Note_on_c, 6, 48, 84
12, 206159, Note_on_c, 6, 48, 0
12, 206160, Note_on_c, 6, 48, 84
12, 206279, Note_on_c, 6, 48, 0
12, 206280, Note_on_c, 6, 48, 84
12, 206399, Note_on_c, 6, 48, 0
12, 206400, Note_on_c, 6, 48, 84
12, 206519, Note_on_c, 6, 48, 0
12, 206520, Note_on_c, 6, 48, 84
12, 206639, Note_on_c, 6, 48, 0
12, 206640, Note_on_c, 6, 48, 84
12, 206759, Note_on_c, 6, 48, 0
12, 206760, Note_on_c, 6, 48, 84
12, 206879, Note_on_c, 6, 48, 0
12, 206880, Note_on_c, 6, 48, 84
12, 207119, Note_on_c, 6, 48, 0
12, 207840, Note_on_c, 6, 43, 84
12, 208079, Note_on_c, 6, 43, 0
12, 213240, Note_on_c, 6, 43, 52
12, 213359, Note_on_c, 6, 43, 0
12, 213360, Note_on_c, 6, 43, 52
12, 213479, Note_on_c, 6, 43, 0
12, 213480, Note_on_c, 6, 43, 52
12, 213599, Note_on_c, 6, 43, 0
12, 213600, Note_on_c, 6, 48, 52
12, 213839, Note_on_c, 6, 48, 0
12, 217080, Note_on_c, 6, 43, 52
12, 217199, Note_on_c, 6, 43, 0
12, 217200, Note_on_c, 6, 43, 52
12, 217319, Note_on_c, 6, 43, 0
12, 217320, Note_on_c, 6, 43, 52
12, 217439, Note_on_c, 6, 43, 0
12, 217440, Note_on_c, 6, 48, 52
12, 217679, Note_on_c, 6, 48, 0
12, 228960, Note_on_c, 6, 43, 80
12, 229019, Note_on_c, 6, 43, 0
12, 229020, Note_on_c, 6, 43, 84
12, 229079, Note_on_c, 6, 43, 0
12, 229080, Note_on_c, 6, 43, 81
12, 229139, Note_on_c, 6, 43, 0
12, 229140, Note_on_c, 6, 43, 86
12, 229199, Note_on_c, 6, 43, 0
12, 229200, Note_on_c, 6, 43, 84
12, 229259, Note_on_c, 6, 43, 0
12, 229260, Note_on_c, 6, 43, 83
12, 229319, Note_on_c, 6, 43, 0
12, 229320, Note_on_c, 6, 43, 82
12, 229379, Note_on_c, 6, 43, 0
12, 229380, Note_on_c, 6, 43, 87
12, 229439, Note_on_c, 6, 43, 0
12, 229440, Note_on_c, 6, 43, 86
12, 229499, Note_on_c, 6, 43, 0
12, 229500, Note_on_c, 6, 43, 85
12, 229559, Note_on_c, 6, 43, 0
12, 229560, Note_on_c, 6, 43, 81
12, 229619, Note_on_c, 6, 43, 0
12, 229620, Note_on_c, 6, 43, 86
12, 229679, Note_on_c, 6, 43, 0
12, 229680, Note_on_c, 6, 43, 84
12, 229919, Note_on_c, 6, 43, 0
12, 229920, Note_on_c, 6, 48, 84
12, 230159, Note_on_c, 6, 48, 0
12, 230400, Note_on_c, 6, 43, 84
12, 230639, Note_on_c, 6, 43, 0
12, 230880, Note_on_c, 6, 48, 84
12, 231119, Note_on_c, 6, 48, 0
12, 231360, Note_on_c, 6, 48, 84
12, 231599, Note_on_c, 6, 48, 0
12, 231840, Note_on_c, 6, 43, 84
12, 232079, Note_on_c, 6, 43, 0
12, 232320, Note_on_c, 6, 43, 84
12, 232559, Note_on_c, 6, 43, 0
12, 232800, Note_on_c, 6, 43, 85
12, 232859, Note_on_c, 6, 43, 0
12, 232860, Note_on_c, 6, 43, 84
12, 232919, Note_on_c, 6, 43, 0
12, 232920, Note_on_c, 6, 43, 82
12, 232979, Note_on_c, 6, 43, 0
12, 232980, Note_on_c, 6, 43, 86
12, 233039, Note_on_c, 6, 43, 0
12, 233040, Note_on_c, 6, 43, 80
12, 233099, Note_on_c, 6, 43, 0
12, 233100, Note_on_c, 6, 43, 82
12, 233159, Note_on_c, 6, 43, 0
12, 233160, Note_on_c, 6, 43, 81
12, 233219, Note_on_c, 6, 43, 0
12, 233220, Note_on_c, 6, 43, 81
12, 233279, Note_on_c, 6, 43, 0
12, 233280, Note_on_c, 6, 43, 87
12, 233339, Note_on_c, 6, 43, 0
12, 233340, Note_on_c, 6, 43, 83
12, 233399, Note_on_c, 6, 43, 0
12, 233400, Note_on_c, 6, 43, 80
12, 233459, Note_on_c, 6, 43, 0
12, 233460, Note_on_c, 6, 43, 86
12, 233519, Note_on_c, 6, 43, 0
12, 233520, Note_on_c, 6, 43, 80
12, 233579, Note_on_c, 6, 43, 0
12, 233580, Note_on_c, 6, 43, 83
12, 233639, Note_on_c, 6, 43, 0
12, 233640, Note_on_c, 6, 43, 84
12, 233699, Note_on_c, 6, 43, 0
12, 233700, Note_on_c, 6, 43, 84
12, 233759, Note_on_c, 6, 43, 0
12, 233760, Note_on_c, 6, 48, 84
12, 233999, Note_on_c, 6, 48, 0
12, 234000, Note_on_c, 6, 48, 84
12, 234239, Note_on_c, 6, 48, 0
12, 234480, Note_on_c, 6, 43, 84
12, 234719, Note_on_c, 6, 43, 0
12, 234960, Note_on_c, 6, 48, 84
12, 235199, Note_on_c, 6, 48, 0
12, 235440, Note_on_c, 6, 48, 84
12, 235679, Note_on_c, 6, 48, 0
12, 235920, Note_on_c, 6, 43, 84
12, 236159, Note_on_c, 6, 43, 0
12, 236400, Note_on_c, 6, 43, 84
12, 236639, Note_on_c, 6, 43, 0
12, 236640, Note_on_c, 6, 48, 84
12, 236879, Note_on_c, 6, 48, 0
12, 238200, Note_on_c, 6, 43, 84
12, 238319, Note_on_c, 6, 43, 0
12, 238320, Note_on_c, 6, 43, 84
12, 238439, Note_on_c, 6, 43, 0
12, 238440, Note_on_c, 6, 43, 84
12, 238559, Note_on_c, 6, 43, 0
12, 238560, Note_on_c, 6, 48, 84
12, 238799, Note_on_c, 6, 48, 0
12, 240120, Note_on_c, 6, 43, 84
12, 240239, Note_on_c, 6, 43, 0
12, 240240, Note_on_c, 6, 43, 84
12, 240359, Note_on_c, 6, 43, 0
12, 240360, Note_on_c, 6, 43, 84
12, 240479, Note_on_c, 6, 43, 0
12, 240480, Note_on_c, 6, 48, 84
12, 240719, Note_on_c, 6, 48, 0
12, 241080, Note_on_c, 6, 43, 84
12, 241199, Note_on_c, 6, 43, 0
12, 241200, Note_on_c, 6, 43, 84
12, 241319, Note_on_c, 6, 43, 0
12, 241320, Note_on_c, 6, 43, 84
12, 241439, Note_on_c, 6, 43, 0
12, 241440, Note_on_c, 6, 48, 84
12, 241679, Note_on_c, 6, 48, 0
12, 242040, Note_on_c, 6, 43, 84
12, 242159, Note_on_c, 6, 43, 0
12, 242160, Note_on_c, 6, 43, 84
12, 242279, Note_on_c, 6, 43, 0
12, 242280, Note_on_c, 6, 43, 84
12, 242399, Note_on_c, 6, 43, 0
12, 242400, Note_on_c, 6, 48, 84
12, 242519, Note_on_c, 6, 48, 0
12, 242520, Note_on_c, 6, 48, 84
12, 242639, Note_on_c, 6, 48, 0
12, 242640, Note_on_c, 6, 48, 84
12, 242759, Note_on_c, 6, 48, 0
12, 242760, Note_on_c, 6, 48, 84
12, 242879, Note_on_c, 6, 48, 0
12, 242880, Note_on_c, 6, 48, 84
12, 243119, Note_on_c, 6, 48, 0
12, 243480, Note_on_c, 6, 48, 84
12, 243599, Note_on_c, 6, 48, 0
12, 243600, Note_on_c, 6, 48, 84
12, 243719, Note_on_c, 6, 48, 0
12, 243720, Note_on_c, 6, 48, 84
12, 243839, Note_on_c, 6, 48, 0
12, 243840, Note_on_c, 6, 48, 84
12, 244079, Note_on_c, 6, 48, 0
12, 244440, Note_on_c, 6, 48, 84
12, 244559, Note_on_c, 6, 48, 0
12, 244560, Note_on_c, 6, 48, 84
12, 244679, Note_on_c, 6, 48, 0
12, 244680, Note_on_c, 6, 48, 84
12, 244799, Note_on_c, 6, 48, 0
12, 244800, Note_on_c, 6, 48, 84
12, 245039, Note_on_c, 6, 48, 0
12, 245400, Note_on_c, 6, 48, 84
12, 245519, Note_on_c, 6, 48, 0
12, 245520, Note_on_c, 6, 48, 84
12, 245639, Note_on_c, 6, 48, 0
12, 245640, Note_on_c, 6, 48, 84
12, 245759, Note_on_c, 6, 48, 0
12, 245760, Note_on_c, 6, 48, 84
12, 245999, Note_on_c, 6, 48, 0
12, 250200, Note_on_c, 6, 48, 84
12, 250319, Note_on_c, 6, 48, 0
12, 250320, Note_on_c, 6, 48, 84
12, 250439, Note_on_c, 6, 48, 0
12, 250440, Note_on_c, 6, 48, 84
12, 250559, Note_on_c, 6, 48, 0
12, 250560, Note_on_c, 6, 48, 84
12, 250679, Note_on_c, 6, 48, 0
12, 250680, Note_on_c, 6, 48, 84
12, 250799, Note_on_c, 6, 48, 0
12, 250800, Note_on_c, 6, 48, 84
12, 250919, Note_on_c, 6, 48, 0
12, 250920, Note_on_c, 6, 48, 84
12, 251039, Note_on_c, 6, 48, 0
12, 251040, Note_on_c, 6, 48, 84
12, 251159, Note_on_c, 6, 48, 0
12, 251160, Note_on_c, 6, 48, 84
12, 251279, Note_on_c, 6, 48, 0
12, 251280, Note_on_c, 6, 48, 84
12, 251399, Note_on_c, 6, 48, 0
12, 251400, Note_on_c, 6, 48, 84
12, 251519, Note_on_c, 6, 48, 0
12, 251520, Note_on_c, 6, 48, 84
12, 251639, Note_on_c, 6, 48, 0
12, 251640, Note_on_c, 6, 48, 84
12, 251759, Note_on_c, 6, 48, 0
12, 251760, Note_on_c, 6, 48, 84
12, 251879, Note_on_c, 6, 48, 0
12, 251880, Note_on_c, 6, 48, 84
12, 251999, Note_on_c, 6, 48, 0
12, 252000, Note_on_c, 6, 48, 84
12, 252119, Note_on_c, 6, 48, 0
12, 252120, Note_on_c, 6, 48, 84
12, 252239, Note_on_c, 6, 48, 0
12, 252240, Note_on_c, 6, 48, 84
12, 252359, Note_on_c, 6, 48, 0
12, 252360, Note_on_c, 6, 48, 84
12, 252479, Note_on_c, 6, 48, 0
12, 252480, Note_on_c, 6, 48, 84
12, 252719, Note_on_c, 6, 48, 0
12, 253080, Note_on_c, 6, 48, 84
12, 253199, Note_on_c, 6, 48, 0
12, 253200, Note_on_c, 6, 48, 84
12, 253319, Note_on_c, 6, 48, 0
12, 253320, Note_on_c, 6, 48, 84
12, 253439, Note_on_c, 6, 48, 0
12, 253440, Note_on_c, 6, 48, 84
12, 253679, Note_on_c, 6, 48, 0
12, 254400, Note_on_c, 6, 43, 76
12, 254639, Note_on_c, 6, 43, 0
12, 256320, Note_on_c, 6, 43, 76
12, 256559, Note_on_c, 6, 43, 0
12, 262320, Note_on_c, 6, 43, 76
12, 262559, Note_on_c, 6, 43, 0
12, 262560, Note_on_c, 6, 43, 76
12, 262799, Note_on_c, 6, 43, 0
12, 262800, Note_on_c, 6, 43, 76
12, 263039, Note_on_c, 6, 43, 0
12, 263040, Note_on_c, 6, 43, 76
12, 263279, Note_on_c, 6, 43, 0
12, 263280, Note_on_c, 6, 43, 76
12, 263519, Note_on_c, 6, 43, 0
12, 263520, Note_on_c, 6, 43, 76
12, 263759, Note_on_c, 6, 43, 0
12, 263760, Note_on_c, 6, 48, 76
12, 263999, Note_on_c, 6, 48, 0
12, 264000, Note_on_c, 6, 48, 76
12, 264239, Note_on_c, 6, 48, 0
12, 264240, Note_on_c, 6, 48, 76
12, 264479, Note_on_c, 6, 48, 0
12, 264480, Note_on_c, 6, 48, 76
12, 264719, Note_on_c, 6, 48, 0
12, 264720, Note_on_c, 6, 43, 76
12, 264959, Note_on_c, 6, 43, 0
12, 264960, Note_on_c, 6, 43, 76
12, 265199, Note_on_c, 6, 43, 0
12, 265200, Note_on_c, 6, 43, 76
12, 265439, Note_on_c, 6, 43, 0
12, 265440, Note_on_c, 6, 43, 76
12, 265679, Note_on_c, 6, 43, 0
12, 265680, Note_on_c, 6, 43, 76
12, 265919, Note_on_c, 6, 43, 0
12, 265920, Note_on_c, 6, 48, 76
12, 266039, Note_on_c, 6, 48, 0
12, 266040, Note_on_c, 6, 48, 76
12, 266159, Note_on_c, 6, 48, 0
12, 266160, Note_on_c, 6, 48, 76
12, 266279, Note_on_c, 6, 48, 0
12, 266280, Note_on_c, 6, 48, 76
12, 266399, Note_on_c, 6, 48, 0
12, 266400, Note_on_c, 6, 48, 76
12, 266639, Note_on_c, 6, 48, 0
12, 266880, Note_on_c, 6, 48, 76
12, 266999, Note_on_c, 6, 48, 0
12, 267000, Note_on_c, 6, 48, 76
12, 267119, Note_on_c, 6, 48, 0
12, 267120, Note_on_c, 6, 48, 76
12, 267239, Note_on_c, 6, 48, 0
12, 267240, Note_on_c, 6, 48, 76
12, 267359, Note_on_c, 6, 48, 0
12, 267360, Note_on_c, 6, 48, 76
12, 267599, Note_on_c, 6, 48, 0
12, 267840, Note_on_c, 6, 48, 76
12, 267959, Note_on_c, 6, 48, 0
12, 267960, Note_on_c, 6, 48, 76
12, 268079, Note_on_c, 6, 48, 0
12, 268080, Note_on_c, 6, 48, 76
12, 268199, Note_on_c, 6, 48, 0
12, 268200, Note_on_c, 6, 48, 76
12, 268319, Note_on_c, 6, 48, 0
12, 268320, Note_on_c, 6, 48, 76
12, 268559, Note_on_c, 6, 48, 0
12, 268800, Note_on_c, 6, 48, 76
12, 268919, Note_on_c, 6, 48, 0
12, 268920, Note_on_c, 6, 48, 76
12, 269039, Note_on_c, 6, 48, 0
12, 269040, Note_on_c, 6, 48, 76
12, 269159, Note_on_c, 6, 48, 0
12, 269160, Note_on_c, 6, 48, 76
12, 269279, Note_on_c, 6, 48, 0
12, 269280, Note_on_c, 6, 48, 76
12, 269519, Note_on_c, 6, 48, 0
12, 269760, Note_on_c, 6, 43, 76
12, 269879, Note_on_c, 6, 43, 0
12, 269880, Note_on_c, 6, 43, 76
12, 269999, Note_on_c, 6, 43, 0
12, 270000, Note_on_c, 6, 43, 76
12, 270119, Note_on_c, 6, 43, 0
12, 270120, Note_on_c, 6, 43, 76
12, 270239, Note_on_c, 6, 43, 0
12, 270240, Note_on_c, 6, 43, 76
12, 270479, Note_on_c, 6, 43, 0
12, 270720, Note_on_c, 6, 48, 76
12, 270959, Note_on_c, 6, 48, 0
12, 271200, Note_on_c, 6, 48, 76
12, 271439, Note_on_c, 6, 48, 0
12, 271680, Note_on_c, 6, 48, 76
12, 271859, Note_on_c, 6, 48, 0
12, 272160, Note_on_c, 6, 48, 76
12, 272339, Note_on_c, 6, 48, 0
12, 272640, Note_on_c, 6, 43, 76
12, 272819, Note_on_c, 6, 43, 0
12, 273120, Note_on_c, 6, 43, 76
12, 273299, Note_on_c, 6, 43, 0
12, 273600, Note_on_c, 6, 48, 76
12, 273839, Note_on_c, 6, 48, 0
12, 274080, Note_on_c, 6, 48, 76
12, 274319, Note_on_c, 6, 48, 0
12, 274320, Note_on_c, 6, 48, 76
12, 274559, Note_on_c, 6, 48, 0
12, 274560, Note_on_c, 6, 48, 76
12, 274799, Note_on_c, 6, 48, 0
12, 275040, Note_on_c, 6, 48, 76
12, 275279, Note_on_c, 6, 48, 0
12, 275280, Note_on_c, 6, 48, 76
12, 275519, Note_on_c, 6, 48, 0
12, 275520, Note_on_c, 6, 48, 76
12, 275759, Note_on_c, 6, 48, 0
12, 276000, Note_on_c, 6, 48, 76
12, 276239, Note_on_c, 6, 48, 0
12, 276240, Note_on_c, 6, 48, 76
12, 276479, Note_on_c, 6, 48, 0
12, 276480, Note_on_c, 6, 48, 76
12, 276719, Note_on_c, 6, 48, 0
12, 276960, Note_on_c, 6, 43, 76
12, 277199, Note_on_c, 6, 43, 0
12, 277200, Note_on_c, 6, 43, 76
12, 277439, Note_on_c, 6, 43, 0
12, 277440, Note_on_c, 6, 43, 76
12, 277679, Note_on_c, 6, 43, 0
12, 278880, Note_on_c, 6, 43, 76
12, 279119, Note_on_c, 6, 43, 0
12, 279120, Note_on_c, 6, 43, 76
12, 279359, Note_on_c, 6, 43, 0
12, 279360, Note_on_c, 6, 43, 76
12, 279599, Note_on_c, 6, 43, 0
12, 281760, Note_on_c, 6, 48, 76
12, 281999, Note_on_c, 6, 48, 0
12, 282000, Note_on_c, 6, 48, 76
12, 282239, Note_on_c, 6, 48, 0
12, 282720, Note_on_c, 6, 48, 76
12, 282959, Note_on_c, 6, 48, 0
12, 282960, Note_on_c, 6, 48, 76
12, 283199, Note_on_c, 6, 48, 0
12, 283440, Note_on_c, 6, 43, 76
12, 283679, Note_on_c, 6, 43, 0
12, 283920, Note_on_c, 6, 43, 76
12, 284159, Note_on_c, 6, 43, 0
12, 285120, Note_on_c, 6, 48, 76
12, 285359, Note_on_c, 6, 48, 0
12, 285360, Note_on_c, 6, 48, 76
12, 285599, Note_on_c, 6, 48, 0
12, 285600, Note_on_c, 6, 48, 76
12, 285839, Note_on_c, 6, 48, 0
12, 285840, Note_on_c, 6, 48, 76
12, 286079, Note_on_c, 6, 48, 0
12, 286080, Note_on_c, 6, 48, 76
12, 286319, Note_on_c, 6, 48, 0
12, 286320, Note_on_c, 6, 48, 76
12, 286559, Note_on_c, 6, 48, 0
12, 286560, Note_on_c, 6, 48, 76
12, 286799, Note_on_c, 6, 48, 0
12, 286800, Note_on_c, 6, 48, 76
12, 287039, Note_on_c, 6, 48, 0
12, 287280, Note_on_c, 6, 43, 76
12, 287519, Note_on_c, 6, 43, 0
12, 287760, Note_on_c, 6, 43, 76
12, 287999, Note_on_c, 6, 43, 0
12, 288000, Note_on_c, 6, 48, 76
12, 288239, Note_on_c, 6, 48, 0
12, 290520, Note_on_c, 6, 43, 76
12, 290639, Note_on_c, 6, 43, 0
12, 290640, Note_on_c, 6, 43, 76
12, 290759, Note_on_c, 6, 43, 0
12, 290760, Note_on_c, 6, 43, 76
12, 290879, Note_on_c, 6, 43, 0
12, 290880, Note_on_c, 6, 48, 76
12, 291119, Note_on_c, 6, 48, 0
12, 292440, Note_on_c, 6, 43, 76
12, 292559, Note_on_c, 6, 43, 0
12, 292560, Note_on_c, 6, 43, 76
12, 292679, Note_on_c, 6, 43, 0
12, 292680, Note_on_c, 6, 43, 76
12, 292799, Note_on_c, 6, 43, 0
12, 292800, Note_on_c, 6, 43, 84
12, 292859, Note_on_c, 6, 43, 0
12, 292860, Note_on_c, 6, 43, 84
12, 292919, Note_on_c, 6, 43, 0
12, 292920, Note_on_c, 6, 43, 81
12, 292979, Note_on_c, 6, 43, 0
12, 292980, Note_on_c, 6, 43, 85
12, 293039, Note_on_c, 6, 43, 0
12, 293040, Note_on_c, 6, 43, 83
12, 293099, Note_on_c, 6, 43, 0
12, 293100, Note_on_c, 6, 43, 82
12, 293159, Note_on_c, 6, 43, 0
12, 293160, Note_on_c, 6, 43, 80
12, 293219, Note_on_c, 6, 43, 0
12, 293220, Note_on_c, 6, 43, 84
12, 293279, Note_on_c, 6, 43, 0
12, 293280, Note_on_c, 6, 43, 86
12, 293339, Note_on_c, 6, 43, 0
12, 293340, Note_on_c, 6, 43, 86
12, 293399, Note_on_c, 6, 43, 0
12, 293400, Note_on_c, 6, 43, 84
12, 293459, Note_on_c, 6, 43, 0
12, 293460, Note_on_c, 6, 43, 82
12, 293519, Note_on_c, 6, 43, 0
12, 293520, Note_on_c, 6, 43, 87
12, 293579, Note_on_c, 6, 43, 0
12, 293580, Note_on_c, 6, 43, 85
12, 293639, Note_on_c, 6, 43, 0
12, 293640, Note_on_c, 6, 43, 87
12, 293699, Note_on_c, 6, 43, 0
12, 293700, Note_on_c, 6, 43, 87
12, 293759, Note_on_c, 6, 43, 0
12, 293760, Note_on_c, 6, 43, 84
12, 293819, Note_on_c, 6, 43, 0
12, 293820, Note_on_c, 6, 43, 81
12, 293879, Note_on_c, 6, 43, 0
12, 293880, Note_on_c, 6, 43, 83
12, 293939, Note_on_c, 6, 43, 0
12, 293940, Note_on_c, 6, 43, 81
12, 293999, Note_on_c, 6, 43, 0
12, 294000, Note_on_c, 6, 43, 86
12, 294059, Note_on_c, 6, 43, 0
12, 294060, Note_on_c, 6, 43, 81
12, 294119, Note_on_c, 6, 43, 0
12, 294120, Note_on_c, 6, 43, 86
12, 294179, Note_on_c, 6, 43, 0
12, 294180, Note_on_c, 6, 43, 86
12, 294239, Note_on_c, 6, 43, 0
12, 294360, Note_on_c, 6, 43, 84
12, 294479, Note_on_c, 6, 43, 0
12, 294480, Note_on_c, 6, 43, 84
12, 294599, Note_on_c, 6, 43, 0
12, 294600, Note_on_c, 6, 43, 84
12, 294719, Note_on_c, 6, 43, 0
12, 294720, Note_on_c, 6, 43, 87
12, 294779, Note_on_c, 6, 43, 0
12, 294780, Note_on_c, 6, 43, 87
12, 294839, Note_on_c, 6, 43, 0
12, 294840, Note_on_c, 6, 43, 84
12, 294899, Note_on_c, 6, 43, 0
12, 294900, Note_on_c, 6, 43, 83
12, 294959, Note_on_c, 6, 43, 0
12, 294960, Note_on_c, 6, 43, 82
12, 295019, Note_on_c, 6, 43, 0
12, 295020, Note_on_c, 6, 43, 82
12, 295079, Note_on_c, 6, 43, 0
12, 295080, Note_on_c, 6, 43, 86
12, 295139, Note_on_c, 6, 43, 0
12, 295140, Note_on_c, 6, 43, 80
12, 295199, Note_on_c, 6, 43, 0
12, 295200, Note_on_c, 6, 43, 83
12, 295259, Note_on_c, 6, 43, 0
12, 295260, Note_on_c, 6, 43, 80
12, 295319, Note_on_c, 6, 43, 0
12, 295320, Note_on_c, 6, 43, 85
12, 295379, Note_on_c, 6, 43, 0
12, 295380, Note_on_c, 6, 43, 80
12, 295439, Note_on_c, 6, 43, 0
12, 295440, Note_on_c, 6, 43, 80
12, 295499, Note_on_c, 6, 43, 0
12, 295500, Note_on_c, 6, 43, 87
12, 295559, Note_on_c, 6, 43, 0
12, 295560, Note_on_c, 6, 43, 82
12, 295619, Note_on_c, 6, 43, 0
12, 295620, Note_on_c, 6, 43, 82
12, 295679, Note_on_c, 6, 43, 0
12, 295680, Note_on_c, 6, 43, 84
12, 295739, Note_on_c, 6, 43, 0
12, 295740, Note_on_c, 6, 43, 85
12, 295799, Note_on_c, 6, 43, 0
12, 295800, Note_on_c, 6, 43, 86
12, 295859, Note_on_c, 6, 43, 0
12, 295860, Note_on_c, 6, 43, 85
12, 295919, Note_on_c, 6, 43, 0
12, 295920, Note_on_c, 6, 43, 83
12, 295979, Note_on_c, 6, 43, 0
12, 295980, Note_on_c, 6, 43, 81
12, 296039, Note_on_c, 6, 43, 0
12, 296040, Note_on_c, 6, 43, 85
12, 296099, Note_on_c, 6, 43, 0
12, 296100, Note_on_c, 6, 43, 83
12, 296159, Note_on_c, 6, 43, 0
12, 296160, Note_on_c, 6, 43, 83
12, 296219, Note_on_c, 6, 43, 0
12, 296220, Note_on_c, 6, 43, 87
12, 296279, Note_on_c, 6, 43, 0
12, 296280, Note_on_c, 6, 43, 85
12, 296339, Note_on_c, 6, 43, 0
12, 296340, Note_on_c, 6, 43, 80
12, 296399, Note_on_c, 6, 43, 0
12, 296400, Note_on_c, 6, 43, 84
12, 296459, Note_on_c, 6, 43, 0
12, 296460, Note_on_c, 6, 43, 83
12, 296519, Note_on_c, 6, 43, 0
12, 296520, Note_on_c, 6, 43, 85
12, 296579, Note_on_c, 6, 43, 0
12, 296580, Note_on_c, 6, 43, 84
12, 296639, Note_on_c, 6, 43, 0
12, 300600, Note_on_c, 6, 43, 84
12, 300719, Note_on_c, 6, 43, 0
12, 300720, Note_on_c, 6, 43, 84
12, 300839, Note_on_c, 6, 43, 0
12, 300840, Note_on_c, 6, 43, 84
12, 300959, Note_on_c, 6, 43, 0
12, 300960, Note_on_c, 6, 48, 84
12, 301199, Note_on_c, 6, 48, 0
12, 301560, Note_on_c, 6, 43, 84
12, 301679, Note_on_c, 6, 43, 0
12, 301680, Note_on_c, 6, 43, 84
12, 301799, Note_on_c, 6, 43, 0
12, 301800, Note_on_c, 6, 43, 84
12, 301919, Note_on_c, 6, 43, 0
12, 301920, Note_on_c, 6, 48, 84
12, 302159, Note_on_c, 6, 48, 0
12, 302520, Note_on_c, 6, 43, 84
12, 302639, Note_on_c, 6, 43, 0
12, 302640, Note_on_c, 6, 43, 84
12, 302759, Note_on_c, 6, 43, 0
12, 302760, Note_on_c, 6, 43, 84
12, 302879, Note_on_c, 6, 43, 0
12, 302880, Note_on_c, 6, 48, 84
12, 303119, Note_on_c, 6, 48, 0
12, 303120, Note_on_c, 6, 43, 84
12, 303359, Note_on_c, 6, 43, 0
12, 303360, Note_on_c, 6, 48, 84
12, 303599, Note_on_c, 6, 48, 0
12, 303600, Note_on_c, 6, 43, 84
12, 303839, Note_on_c, 6, 43, 0
12, 303840, Note_on_c, 6, 48, 84
12, 304079, Note_on_c, 6, 48, 0
12, 304080, Note_on_c, 6, 43, 84
12, 304319, Note_on_c, 6, 43, 0
12, 304320, Note_on_c, 6, 48, 84
12, 304559, Note_on_c, 6, 48, 0
12, 304560, Note_on_c, 6, 43, 84
12, 304799, Note_on_c, 6, 43, 0
12, 304800, Note_on_c, 6, 48, 84
12, 305039, Note_on_c, 6, 48, 0
12, 305280, Note_on_c, 6, 43, 84
12, 305519, Note_on_c, 6, 43, 0
12, 305760, Note_on_c, 6, 48, 84
12, 305999, Note_on_c, 6, 48, 0
12, 305999, End_track
13, 0, Start_track
13, 0, Title_t, "Violin I"
13, 0, MIDI_port, 0
13, 0, Program_c, 11, 48
13, 0, Control_c, 11, 7, 96
13, 0, Control_c, 11, 10, 48
13, 0, Control_c, 11, 11, 127
13, 120, Note_on_c, 11, 67, 84
13, 219, Note_on_c, 11, 67, 0
13, 240, Note_on_c, 11, 67, 84
13, 339, Note_on_c, 11, 67, 0
13, 360, Note_on_c, 11, 67, 84
13, 459, Note_on_c, 11, 67, 0
13, 480, Note_on_c, 11, 63, 84
13, 959, Note_on_c, 11, 63, 0
13, 1080, Note_on_c, 11, 65, 84
13, 1179, Note_on_c, 11, 65, 0
13, 1200, Note_on_c, 11, 65, 84
13, 1299, Note_on_c, 11, 65, 0
13, 1320, Note_on_c, 11, 65, 84
13, 1419, Note_on_c, 11, 65, 0
13, 1440, Note_on_c, 11, 62, 84
13, 2399, Note_on_c, 11, 62, 0
13, 3480, Note_on_c, 11, 75, 52
13, 3579, Note_on_c, 11, 75, 0
13, 3600, Note_on_c, 11, 75, 52
13, 3699, Note_on_c, 11, 75, 0
13, 3720, Note_on_c, 11, 75, 52
13, 3819, Note_on_c, 11, 75, 0
13, 3840, Note_on_c, 11, 72, 52
13, 4559, Note_on_c, 11, 72, 0
13, 5400, Note_on_c, 11, 77, 52
13, 5499, Note_on_c, 11, 77, 0
13, 5520, Note_on_c, 11, 77, 52
13, 5619, Note_on_c, 11, 77, 0
13, 5640, Note_on_c, 11, 77, 52
13, 5739, Note_on_c, 11, 77, 0
13, 5760, Note_on_c, 11, 74, 52
13, 6339, Note_on_c, 11, 74, 0
13, 6360, Note_on_c, 11, 79, 52
13, 6459, Note_on_c, 11, 79, 0
13, 6480, Note_on_c, 11, 79, 52
13, 6579, Note_on_c, 11, 79, 0
13, 6600, Note_on_c, 11, 77, 52
13, 6699, Note_on_c, 11, 77, 0
13, 6720, Note_on_c, 11, 75, 52
13, 7199, Note_on_c, 11, 75, 0
13, 7200, Note_on_c, 11, 74, 52
13, 7299, Note_on_c, 11, 74, 0
13, 7320, Note_on_c, 11, 79, 52
13, 7419, Note_on_c, 11, 79, 0
13, 7440, Note_on_c, 11, 79, 52
13, 7539, Note_on_c, 11, 79, 0
13, 7560, Note_on_c, 11, 77, 52
13, 7659, Note_on_c, 11, 77, 0
13, 7680, Note_on_c, 11, 75, 52
13, 8159, Note_on_c, 11, 75, 0
13, 8160, Note_on_c, 11, 74, 52
13, 8259, Note_on_c, 11, 74, 0
13, 8280, Note_on_c, 11, 79, 58
13, 8379, Note_on_c, 11, 79, 0
13, 8400, Note_on_c, 11, 79, 64
13, 8499, Note_on_c, 11, 79, 0
13, 8520, Note_on_c, 11, 77, 70
13, 8619, Note_on_c, 11, 77, 0
13, 8640, Note_on_c, 11, 75, 76
13, 8879, Note_on_c, 11, 75, 0
13, 9120, Note_on_c, 11, 66, 76
13, 9120, Note_on_c, 11, 56, 76
13, 9120, Note_on_c, 11, 72, 76
13, 9359, Note_on_c, 11, 66, 0
13, 9359, Note_on_c, 11, 56, 0
13, 9359, Note_on_c, 11, 72, 0
13, 9600, Note_on_c, 11, 79, 76
13, 9600, Note_on_c, 11, 55, 76
13, 9600, Note_on_c, 11, 71, 76
13, 9600, Note_on_c, 11, 62, 76
13, 9839, Note_on_c, 11, 55, 0
13, 9839, Note_on_c, 11, 71, 0
13, 9839, Note_on_c, 11, 62, 0
13, 10079, Note_on_c, 11, 79, 0
13, 10200, Note_on_c, 11, 68, 84
13, 10299, Note_on_c, 11, 68, 0
13, 10320, Note_on_c, 11, 68, 84
13, 10419, Note_on_c, 11, 68, 0
13, 10440, Note_on_c, 11, 68, 84
13, 10539, Note_on_c, 11, 68, 0
13, 10560, Note_on_c, 11, 65, 84
13, 11519, Note_on_c, 11, 65, 0
13, 11640, Note_on_c, 11, 68, 52
13, 11739, Note_on_c, 11, 68, 0
13, 11760, Note_on_c, 11, 68, 52
13, 11859, Note_on_c, 11, 68, 0
13, 11880, Note_on_c, 11, 68, 52
13, 11979, Note_on_c, 11, 68, 0
13, 12000, Note_on_c, 11, 65, 52
13, 13419, Note_on_c, 11, 65, 0
13, 13440, Note_on_c, 11, 63, 52
13, 13539, Note_on_c, 11, 63, 0
13, 13560, Note_on_c, 11, 68, 52
13, 13659, Note_on_c, 11, 68, 0
13, 13680, Note_on_c, 11, 68, 52
13, 13779, Note_on_c, 11, 68, 0
13, 13800, Note_on_c, 11, 68, 52
13, 13899, Note_on_c, 11, 68, 0
13, 13920, Note_on_c, 11, 65, 52
13, 15339, Note_on_c, 11, 65, 0
13, 15360, Note_on_c, 11, 63, 52
13, 15459, Note_on_c, 11, 63, 0
13, 15480, Note_on_c, 11, 67, 52
13, 15579, Note_on_c, 11, 67, 0
13, 15600, Note_on_c, 11, 72, 52
13, 15699, Note_on_c, 11, 72, 0
13, 15720, Note_on_c, 11, 72, 52
13, 15819, Note_on_c, 11, 72, 0
13, 15838, Control_c, 11, 11, 96
13, 15840, Control_c, 11, 11, 96
13, 15840, Note_on_c, 11, 72, 68
13, 15920, Control_c, 11, 11, 97
13, 16000, Control_c, 11, 11, 99
13, 16080, Control_c, 11, 11, 100
13, 16160, Control_c, 11, 11, 101
13, 16240, Control_c, 11, 11, 102
13, 16299, Note_on_c, 11, 72, 0
13, 16320, Control_c, 11, 11, 104
13, 16320, Note_on_c, 11, 71, 68
13, 16400, Control_c, 11, 11, 105
13, 16419, Note_on_c, 11, 71, 0
13, 16440, Note_on_c, 11, 71, 68
13, 16480, Control_c, 11, 11, 106
13, 16539, Note_on_c, 11, 71, 0
13, 16560, Note_on_c, 11, 71, 68
13, 16560, Control_c, 11, 11, 108
13, 16640, Control_c, 11, 11, 109
13, 16659, Note_on_c, 11, 71, 0
13, 16680, Note_on_c, 11, 74, 68
13, 16720, Control_c, 11, 11, 110
13, 16779, Note_on_c, 11, 74, 0
13, 16800, Note_on_c, 11, 74, 68
13, 16800, Control_c, 11, 11, 112
13, 16880, Control_c, 11, 11, 113
13, 16960, Control_c, 11, 11, 114
13, 17040, Control_c, 11, 11, 115
13, 17120, Control_c, 11, 11, 117
13, 17200, Control_c, 11, 11, 118
13, 17259, Note_on_c, 11, 74, 0
13, 17280, Note_on_c, 11, 72, 68
13, 17280, Control_c, 11, 11, 119
13, 17360, Control_c, 11, 11, 121
13, 17379, Note_on_c, 11, 72, 0
13, 17400, Note_on_c, 11, 72, 68
13, 17440, Control_c, 11, 11, 122
13, 17499, Note_on_c, 11, 72, 0
13, 17520, Control_c, 11, 11, 123
13, 17520, Note_on_c, 11, 72, 68
13, 17600, Control_c, 11, 11, 124
13, 17619, Note_on_c, 11, 72, 0
13, 17640, Note_on_c, 11, 75, 68
13, 17680, Control_c, 11, 11, 127
13, 17739, Note_on_c, 11, 75, 0
13, 17760, Note_on_c, 11, 75, 76
13, 17879, Note_on_c, 11, 75, 0
13, 17880, Note_on_c, 11, 74, 68
13, 17979, Note_on_c, 11, 74, 0
13, 18000, Note_on_c, 11, 74, 68
13, 18089, Note_on_c, 11, 74, 0
13, 18120, Note_on_c, 11, 77, 68
13, 18209, Note_on_c, 11, 77, 0
13, 18240, Note_on_c, 11, 77, 76
13, 18359, Note_on_c, 11, 77, 0
13, 18360, Note_on_c, 11, 76, 68
13, 18459, Note_on_c, 11, 76, 0
13, 18480, Note_on_c, 11, 76, 68
13, 18569, Note_on_c, 11, 76, 0
13, 18600, Note_on_c, 11, 79, 68
13, 18689, Note_on_c, 11, 79, 0
13, 18720, Note_on_c, 11, 79, 76
13, 18839, Note_on_c, 11, 79, 0
13, 18840, Note_on_c, 11, 77, 68
13, 18939, Note_on_c, 11, 77, 0
13, 18960, Note_on_c, 11, 77, 68
13, 19049, Note_on_c, 11, 77, 0
13, 19080, Note_on_c, 11, 80, 68
13, 19169, Note_on_c, 11, 80, 0
13, 19200, Note_on_c, 11, 80, 76
13, 19319, Note_on_c, 11, 80, 0
13, 19320, Note_on_c, 11, 79, 68
13, 19419, Note_on_c, 11, 79, 0
13, 19440, Note_on_c, 11, 79, 68
13, 19529, Note_on_c, 11, 79, 0
13, 19560, Note_on_c, 11, 82, 68
13, 19649, Note_on_c, 11, 82, 0
13, 19680, Note_on_c, 11, 82, 76
13, 19799, Note_on_c, 11, 82, 0
13, 19800, Note_on_c, 11, 80, 68
13, 19899, Note_on_c, 11, 80, 0
13, 19920, Note_on_c, 11, 80, 68
13, 20009, Note_on_c, 11, 80, 0
13, 20040, Note_on_c, 11, 84, 68
13, 20129, Note_on_c, 11, 84, 0
13, 20160, Note_on_c, 11, 84, 76
13, 20279, Note_on_c, 11, 84, 0
13, 20280, Note_on_c, 11, 83, 68
13, 20379, Note_on_c, 11, 83, 0
13, 20400, Note_on_c, 11, 83, 68
13, 20489, Note_on_c, 11, 83, 0
13, 20520, Note_on_c, 11, 86, 68
13, 20609, Note_on_c, 11, 86, 0
13, 20640, Note_on_c, 11, 84, 76
13, 20739, Note_on_c, 11, 84, 0
13, 20760, Note_on_c, 11, 87, 76
13, 20859, Note_on_c, 11, 87, 0
13, 20880, Note_on_c, 11, 87, 76
13, 20979, Note_on_c, 11, 87, 0
13, 21000, Note_on_c, 11, 87, 76
13, 21099, Note_on_c, 11, 87, 0
13, 21120, Note_on_c, 11, 84, 76
13, 21219, Note_on_c, 11, 84, 0
13, 21240, Note_on_c, 11, 79, 76
13, 21339, Note_on_c, 11, 79, 0
13, 21360, Note_on_c, 11, 79, 76
13, 21459, Note_on_c, 11, 79, 0
13, 21480, Note_on_c, 11, 79, 76
13, 21579, Note_on_c, 11, 79, 0
13, 21600, Note_on_c, 11, 75, 76
13, 21699, Note_on_c, 11, 75, 0
13, 21720, Note_on_c, 11, 72, 76
13, 21819, Note_on_c, 11, 72, 0
13, 21840, Note_on_c, 11, 67, 76
13, 21939, Note_on_c, 11, 67, 0
13, 21960, Note_on_c, 11, 67, 76
13, 22059, Note_on_c, 11, 67, 0
13, 22080, Note_on_c, 11, 63, 76
13, 22179, Note_on_c, 11, 63, 0
13, 22200, Note_on_c, 11, 60, 76
13, 22299, Note_on_c, 11, 60, 0
13, 22320, Note_on_c, 11, 60, 76
13, 22419, Note_on_c, 11, 60, 0
13, 22440, Note_on_c, 11, 60, 76
13, 22539, Note_on_c, 11, 60, 0
13, 22560, Note_on_c, 11, 59, 76
13, 22659, Note_on_c, 11, 59, 0
13, 22680, Note_on_c, 11, 89, 76
13, 22779, Note_on_c, 11, 89, 0
13, 22800, Note_on_c, 11, 86, 76
13, 22899, Note_on_c, 11, 86, 0
13, 22920, Note_on_c, 11, 86, 76
13, 23019, Note_on_c, 11, 86, 0
13, 23040, Note_on_c, 11, 83, 76
13, 23139, Note_on_c, 11, 83, 0
13, 23160, Note_on_c, 11, 79, 76
13, 23259, Note_on_c, 11, 79, 0
13, 23280, Note_on_c, 11, 77, 76
13, 23379, Note_on_c, 11, 77, 0
13, 23400, Note_on_c, 11, 77, 76
13, 23499, Note_on_c, 11, 77, 0
13, 23520, Note_on_c, 11, 74, 76
13, 23619, Note_on_c, 11, 74, 0
13, 23640, Note_on_c, 11, 71, 76
13, 23739, Note_on_c, 11, 71, 0
13, 23760, Note_on_c, 11, 67, 76
13, 23859, Note_on_c, 11, 67, 0
13, 23880, Note_on_c, 11, 65, 76
13, 23979, Note_on_c, 11, 65, 0
13, 24000, Note_on_c, 11, 62, 76
13, 24099, Note_on_c, 11, 62, 0
13, 24120, Note_on_c, 11, 59, 76
13, 24219, Note_on_c, 11, 59, 0
13, 24240, Note_on_c, 11, 60, 76
13, 24339, Note_on_c, 11, 60, 0
13, 24360, Note_on_c, 11, 60, 76
13, 24459, Note_on_c, 11, 60, 0
13, 24480, Note_on_c, 11, 60, 84
13, 24579, Note_on_c, 11, 60, 0
13, 24600, Note_on_c, 11, 87, 84
13, 24699, Note_on_c, 11, 87, 0
13, 24720, Note_on_c, 11, 87, 84
13, 24819, Note_on_c, 11, 87, 0
13, 24840, Note_on_c, 11, 87, 84
13, 24939, Note_on_c, 11, 87, 0
13, 24960, Note_on_c, 11, 84, 84
13, 25059, Note_on_c, 11, 84, 0
13, 25080, Note_on_c, 11, 81, 84
13, 25179, Note_on_c, 11, 81, 0
13, 25200, Note_on_c, 11, 81, 84
13, 25299, Note_on_c, 11, 81, 0
13, 25320, Note_on_c, 11, 81, 84
13, 25419, Note_on_c, 11, 81, 0
13, 25440, Note_on_c, 11, 78, 84
13, 25539, Note_on_c, 11, 78, 0
13, 25560, Note_on_c, 11, 75, 84
13, 25659, Note_on_c, 11, 75, 0
13, 25680, Note_on_c, 11, 75, 84
13, 25779, Note_on_c, 11, 75, 0
13, 25800, Note_on_c, 11, 75, 84
13, 25899, Note_on_c, 11, 75, 0
13, 25920, Note_on_c, 11, 72, 84
13, 26019, Note_on_c, 11, 72, 0
13, 26040, Note_on_c, 11, 57, 84
13, 26040, Note_on_c, 11, 69, 84
13, 26139, Note_on_c, 11, 57, 0
13, 26139, Note_on_c, 11, 69, 0
13, 26160, Note_on_c, 11, 69, 84
13, 26160, Note_on_c, 11, 57, 84
13, 26259, Note_on_c, 11, 69, 0
13, 26259, Note_on_c, 11, 57, 0
13, 26280, Note_on_c, 11, 57, 84
13, 26280, Note_on_c, 11, 69, 84
13, 26379, Note_on_c, 11, 57, 0
13, 26379, Note_on_c, 11, 69, 0
13, 26400, Note_on_c, 11, 57, 84
13, 26400, Note_on_c, 11, 69, 84
13, 26639, Note_on_c, 11, 57, 0
13, 26639, Note_on_c, 11, 69, 0
13, 27360, Note_on_c, 11, 70, 84
13, 27360, Note_on_c, 11, 58, 84
13, 27360, Note_on_c, 11, 65, 84
13, 27599, Note_on_c, 11, 70, 0
13, 27599, Note_on_c, 11, 58, 0
13, 27599, Note_on_c, 11, 65, 0
13, 29760, Note_on_c, 11, 70, 48
13, 29999, Note_on_c, 11, 70, 0
13, 30000, Note_on_c, 11, 75, 48
13, 30239, Note_on_c, 11, 75, 0
13, 30240, Note_on_c, 11, 74, 48
13, 30479, Note_on_c, 11, 74, 0
13, 30480, Note_on_c, 11, 75, 48
13, 30719, Note_on_c, 11, 75, 0
13, 30720, Note_on_c, 11, 77, 48
13, 30959, Note_on_c, 11, 77, 0
13, 30960, Note_on_c, 11, 72, 48
13, 31179, Note_on_c, 11, 72, 0
13, 31200, Note_on_c, 11, 72, 48
13, 31439, Note_on_c, 11, 72, 0
13, 31440, Note_on_c, 11, 70, 48
13, 31679, Note_on_c, 11, 70, 0
13, 33600, Note_on_c, 11, 70, 52
13, 33839, Note_on_c, 11, 70, 0
13, 33840, Note_on_c, 11, 75, 52
13, 34079, Note_on_c, 11, 75, 0
13, 34080, Note_on_c, 11, 74, 52
13, 34319, Note_on_c, 11, 74, 0
13, 34320, Note_on_c, 11, 75, 52
13, 34559, Note_on_c, 11, 75, 0
13, 34560, Note_on_c, 11, 77, 52
13, 34799, Note_on_c, 11, 77, 0
13, 34800, Note_on_c, 11, 72, 52
13, 35019, Note_on_c, 11, 72, 0
13, 35040, Note_on_c, 11, 72, 52
13, 35279, Note_on_c, 11, 72, 0
13, 35280, Note_on_c, 11, 70, 52
13, 35499, Note_on_c, 11, 70, 0
13, 35520, Note_on_c, 11, 70, 52
13, 35759, Note_on_c, 11, 70, 0
13, 35760, Note_on_c, 11, 72, 52
13, 35999, Note_on_c, 11, 72, 0
13, 36000, Note_on_c, 11, 73, 52
13, 36239, Note_on_c, 11, 73, 0
13, 36240, Note_on_c, 11, 72, 52
13, 36459, Note_on_c, 11, 72, 0
13, 36480, Note_on_c, 11, 70, 52
13, 36719, Note_on_c, 11, 70, 0
13, 36720, Note_on_c, 11, 72, 52
13, 36959, Note_on_c, 11, 72, 0
13, 36960, Note_on_c, 11, 70, 52
13, 37199, Note_on_c, 11, 70, 0
13, 37200, Note_on_c, 11, 68, 52
13, 37419, Note_on_c, 11, 68, 0
13, 37440, Note_on_c, 11, 73, 52
13, 37679, Note_on_c, 11, 73, 0
13, 37680, Note_on_c, 11, 75, 52
13, 37919, Note_on_c, 11, 75, 0
13, 37920, Note_on_c, 11, 77, 52
13, 38159, Note_on_c, 11, 77, 0
13, 38160, Note_on_c, 11, 75, 52
13, 38379, Note_on_c, 11, 75, 0
13, 38400, Note_on_c, 11, 73, 52
13, 38639, Note_on_c, 11, 73, 0
13, 38640, Note_on_c, 11, 75, 52
13, 38879, Note_on_c, 11, 75, 0
13, 38880, Note_on_c, 11, 73, 52
13, 39119, Note_on_c, 11, 73, 0
13, 39120, Note_on_c, 11, 72, 52
13, 39339, Note_on_c, 11, 72, 0
13, 39358, Control_c, 11, 11, 64
13, 39360, Note_on_c, 11, 75, 84
13, 39599, Note_on_c, 11, 75, 0
13, 39600, Note_on_c, 11, 77, 84
13, 39839, Note_on_c, 11, 77, 0
13, 39840, Note_on_c, 11, 78, 84
13, 39840, Control_c, 11, 11, 64
13, 39940, Control_c, 11, 11, 65
13, 40040, Control_c, 11, 11, 67
13, 40079, Note_on_c, 11, 78, 0
13, 40080, Note_on_c, 11, 77, 84
13, 40140, Control_c, 11, 11, 68
13, 40240, Control_c, 11, 11, 69
13, 40319, Note_on_c, 11, 77, 0
13, 40320, Note_on_c, 11, 75, 84
13, 40340, Control_c, 11, 11, 71
13, 40440, Control_c, 11, 11, 72
13, 40540, Control_c, 11, 11, 73
13, 40559, Note_on_c, 11, 75, 0
13, 40560, Note_on_c, 11, 77, 84
13, 40640, Control_c, 11, 11, 75
13, 40740, Control_c, 11, 11, 76
13, 40779, Note_on_c, 11, 77, 0
13, 40800, Note_on_c, 11, 78, 84
13, 40840, Control_c, 11, 11, 77
13, 40940, Control_c, 11, 11, 78
13, 41039, Note_on_c, 11, 78, 0
13, 41040, Control_c, 11, 11, 80
13, 41040, Note_on_c, 11, 77, 84
13, 41140, Control_c, 11, 11, 81
13, 41240, Control_c, 11, 11, 82
13, 41279, Note_on_c, 11, 77, 0
13, 41280, Note_on_c, 11, 75, 84
13, 41340, Control_c, 11, 11, 84
13, 41440, Control_c, 11, 11, 85
13, 41519, Note_on_c, 11, 75, 0
13, 41520, Note_on_c, 11, 77, 84
13, 41540, Control_c, 11, 11, 86
13, 41640, Control_c, 11, 11, 88
13, 41739, Note_on_c, 11, 77, 0
13, 41740, Control_c, 11, 11, 89
13, 41760, Note_on_c, 11, 78, 84
13, 41840, Control_c, 11, 11, 90
13, 41940, Control_c, 11, 11, 92
13, 41999, Note_on_c, 11, 78, 0
13, 42000, Note_on_c, 11, 77, 84
13, 42040, Control_c, 11, 11, 93
13, 42140, Control_c, 11, 11, 94
13, 42239, Note_on_c, 11, 77, 0
13, 42240, Control_c, 11, 11, 96
13, 42240, Note_on_c, 11, 75, 84
13, 42340, Control_c, 11, 11, 97
13, 42440, Control_c, 11, 11, 98
13, 42479, Note_on_c, 11, 75, 0
13, 42480, Note_on_c, 11, 77, 84
13, 42540, Control_c, 11, 11, 99
13, 42640, Control_c, 11, 11, 101
13, 42699, Note_on_c, 11, 77, 0
13, 42720, Note_on_c, 11, 78, 84
13, 42740, Control_c, 11, 11, 102
13, 42840, Control_c, 11, 11, 103
13, 42940, Control_c, 11, 11, 105
13, 42959, Note_on_c, 11, 78, 0
13, 42960, Note_on_c, 11, 77, 84
13, 43040, Control_c, 11, 11, 106
13, 43140, Control_c, 11, 11, 107
13, 43199, Note_on_c, 11, 77, 0
13, 43200, Note_on_c, 11, 75, 84
13, 43240, Control_c, 11, 11, 109
13, 43340, Control_c, 11, 11, 110
13, 43439, Note_on_c, 11, 75, 0
13, 43440, Control_c, 11, 11, 111
13, 43440, Note_on_c, 11, 77, 84
13, 43540, Control_c, 11, 11, 113
13, 43640, Control_c, 11, 11, 114
13, 43679, Note_on_c, 11, 77, 0
13, 43680, Note_on_c, 11, 78, 84
13, 43740, Control_c, 11, 11, 115
13, 43840, Control_c, 11, 11, 117
13, 43919, Note_on_c, 11, 78, 0
13, 43920, Note_on_c, 11, 77, 84
13, 43940, Control_c, 11, 11, 118
13, 44040, Control_c, 11, 11, 119
13, 44140, Control_c, 11, 11, 120
13, 44159, Note_on_c, 11, 77, 0
13, 44160, Note_on_c, 11, 78, 84
13, 44240, Control_c, 11, 11, 122
13, 44340, Control_c, 11, 11, 123
13, 44399, Note_on_c, 11, 78, 0
13, 44400, Note_on_c, 11, 81, 84
13, 44440, Control_c, 11, 11, 124
13, 44540, Control_c, 11, 11, 127
13, 44619, Note_on_c, 11, 81, 0
13, 44640, Note_on_c, 11, 70, 84
13, 44640, Note_on_c, 11, 82, 84
13, 45219, Note_on_c, 11, 70, 0
13, 45219, Note_on_c, 11, 82, 0
13, 45240, Note_on_c, 11, 84, 84
13, 45329, Note_on_c, 11, 84, 0
13, 45360, Note_on_c, 11, 82, 84
13, 45449, Note_on_c, 11, 82, 0
13, 45480, Note_on_c, 11, 80, 84
13, 45569, Note_on_c, 11, 80, 0
13, 45600, Note_on_c, 11, 80, 84
13, 45719, Note_on_c, 11, 80, 0
13, 45720, Note_on_c, 11, 79, 84
13, 45819, Note_on_c, 11, 79, 0
13, 45840, Note_on_c, 11, 77, 84
13, 45929, Note_on_c, 11, 77, 0
13, 45960, Note_on_c, 11, 75, 84
13, 46049, Note_on_c, 11, 75, 0
13, 46080, Note_on_c, 11, 75, 84
13, 46199, Note_on_c, 11, 75, 0
13, 46200, Note_on_c, 11, 74, 84
13, 46299, Note_on_c, 11, 74, 0
13, 46320, Note_on_c, 11, 72, 84
13, 46409, Note_on_c, 11, 72, 0
13, 46440, Note_on_c, 11, 74, 84
13, 46529, Note_on_c, 11, 74, 0
13, 46560, Note_on_c, 11, 77, 84
13, 46679, Note_on_c, 11, 77, 0
13, 46680, Note_on_c, 11, 75, 84
13, 46779, Note_on_c, 11, 75, 0
13, 46800, Note_on_c, 11, 70, 84
13, 46889, Note_on_c, 11, 70, 0
13, 46920, Note_on_c, 11, 67, 84
13, 47009, Note_on_c, 11, 67, 0
13, 47040, Note_on_c, 11, 74, 84
13, 47159, Note_on_c, 11, 74, 0
13, 47160, Note_on_c, 11, 72, 84
13, 47259, Note_on_c, 11, 72, 0
13, 47280, Note_on_c, 11, 68, 84
13, 47369, Note_on_c, 11, 68, 0
13, 47400, Note_on_c, 11, 65, 84
13, 47489, Note_on_c, 11, 65, 0
13, 47520, Note_on_c, 11, 72, 84
13, 47639, Note_on_c, 11, 72, 0
13, 47640, Note_on_c, 11, 70, 84
13, 47739, Note_on_c, 11, 70, 0
13, 47760, Note_on_c, 11, 67, 84
13, 47849, Note_on_c, 11, 67, 0
13, 47880, Note_on_c, 11, 63, 84
13, 47969, Note_on_c, 11, 63, 0
13, 48000, Note_on_c, 11, 58, 84
13, 48099, Note_on_c, 11, 58, 0
13, 48120, Note_on_c, 11, 81, 84
13, 48239, Note_on_c, 11, 81, 0
13, 48240, Note_on_c, 11, 82, 84
13, 48359, Note_on_c, 11, 82, 0
13, 48360, Note_on_c, 11, 81, 84
13, 48479, Note_on_c, 11, 81, 0
13, 48480, Note_on_c, 11, 82, 84
13, 48599, Note_on_c, 11, 82, 0
13, 48600, Note_on_c, 11, 81, 84
13, 48719, Note_on_c, 11, 81, 0
13, 48720, Note_on_c, 11, 82, 84
13, 48839, Note_on_c, 11, 82, 0
13, 48840, Note_on_c, 11, 81, 84
13, 48939, Note_on_c, 11, 81, 0
13, 48960, Note_on_c, 11, 82, 84
13, 49049, Note_on_c, 11, 82, 0
13, 49080, Note_on_c, 11, 84, 84
13, 49169, Note_on_c, 11, 84, 0
13, 49200, Note_on_c, 11, 82, 84
13, 49289, Note_on_c, 11, 82, 0
13, 49320, Note_on_c, 11, 80, 84
13, 49409, Note_on_c, 11, 80, 0
13, 49440, Note_on_c, 11, 80, 84
13, 49559, Note_on_c, 11, 80, 0
13, 49560, Note_on_c, 11, 79, 84
13, 49659, Note_on_c, 11, 79, 0
13, 49680, Note_on_c, 11, 77, 84
13, 49769, Note_on_c, 11, 77, 0
13, 49800, Note_on_c, 11, 75, 84
13, 49889, Note_on_c, 11, 75, 0
13, 49920, Note_on_c, 11, 75, 84
13, 50039, Note_on_c, 11, 75, 0
13, 50040, Note_on_c, 11, 74, 84
13, 50139, Note_on_c, 11, 74, 0
13, 50160, Note_on_c, 11, 72, 84
13, 50249, Note_on_c, 11, 72, 0
13, 50280, Note_on_c, 11, 74, 84
13, 50369, Note_on_c, 11, 74, 0
13, 50400, Note_on_c, 11, 77, 84
13, 50519, Note_on_c, 11, 77, 0
13, 50520, Note_on_c, 11, 75, 84
13, 50619, Note_on_c, 11, 75, 0
13, 50640, Note_on_c, 11, 70, 84
13, 50729, Note_on_c, 11, 70, 0
13, 50760, Note_on_c, 11, 67, 84
13, 50849, Note_on_c, 11, 67, 0
13, 50880, Note_on_c, 11, 74, 84
13, 50999, Note_on_c, 11, 74, 0
13, 51000, Note_on_c, 11, 72, 84
13, 51099, Note_on_c, 11, 72, 0
13, 51120, Note_on_c, 11, 68, 84
13, 51209, Note_on_c, 11, 68, 0
13, 51240, Note_on_c, 11, 65, 84
13, 51329, Note_on_c, 11, 65, 0
13, 51360, Note_on_c, 11, 72, 84
13, 51479, Note_on_c, 11, 72, 0
13, 51480, Note_on_c, 11, 70, 84
13, 51579, Note_on_c, 11, 70, 0
13, 51600, Note_on_c, 11, 67, 84
13, 51689, Note_on_c, 11, 67, 0
13, 51720, Note_on_c, 11, 63, 84
13, 51809, Note_on_c, 11, 63, 0
13, 51840, Note_on_c, 11, 58, 84
13, 51939, Note_on_c, 11, 58, 0
13, 51960, Note_on_c, 11, 70, 84
13, 52059, Note_on_c, 11, 70, 0
13, 52080, Note_on_c, 11, 82, 84
13, 52179, Note_on_c, 11, 82, 0
13, 52200, Note_on_c, 11, 82, 84
13, 52299, Note_on_c, 11, 82, 0
13, 52320, Note_on_c, 11, 75, 84
13, 53859, Note_on_c, 11, 75, 0
13, 53880, Note_on_c, 11, 77, 84
13, 53979, Note_on_c, 11, 77, 0
13, 54000, Note_on_c, 11, 77, 84
13, 54099, Note_on_c, 11, 77, 0
13, 54120, Note_on_c, 11, 77, 84
13, 54219, Note_on_c, 11, 77, 0
13, 54240, Note_on_c, 11, 79, 84
13, 55779, Note_on_c, 11, 79, 0
13, 55800, Note_on_c, 11, 82, 84
13, 55800, Note_on_c, 11, 70, 84
13, 55899, Note_on_c, 11, 82, 0
13, 55899, Note_on_c, 11, 70, 0
13, 55920, Note_on_c, 11, 70, 84
13, 55920, Note_on_c, 11, 82, 84
13, 56019, Note_on_c, 11, 70, 0
13, 56019, Note_on_c, 11, 82, 0
13, 56040, Note_on_c, 11, 82, 84
13, 56040, Note_on_c, 11, 70, 84
13, 56139, Note_on_c, 11, 82, 0
13, 56139, Note_on_c, 11, 70, 0
13, 56160, Note_on_c, 11, 82, 84
13, 56160, Note_on_c, 11, 70, 84
13, 56399, Note_on_c, 11, 82, 0
13, 56399, Note_on_c, 11, 70, 0
13, 56760, Note_on_c, 11, 82, 84
13, 56760, Note_on_c, 11, 70, 84
13, 56859, Note_on_c, 11, 82, 0
13, 56859, Note_on_c, 11, 70, 0
13, 56880, Note_on_c, 11, 82, 84
13, 56880, Note_on_c, 11, 70, 84
13, 56979, Note_on_c, 11, 82, 0
13, 56979, Note_on_c, 11, 70, 0
13, 57000, Note_on_c, 11, 70, 84
13, 57000, Note_on_c, 11, 82, 84
13, 57099, Note_on_c, 11, 70, 0
13, 57099, Note_on_c, 11, 82, 0
13, 57120, Note_on_c, 11, 82, 84
13, 57120, Note_on_c, 11, 70, 84
13, 57359, Note_on_c, 11, 82, 0
13, 57359, Note_on_c, 11, 70, 0
13, 57720, Note_on_c, 11, 77, 84
13, 57720, Note_on_c, 11, 86, 84
13, 57819, Note_on_c, 11, 77, 0
13, 57819, Note_on_c, 11, 86, 0
13, 57840, Note_on_c, 11, 86, 84
13, 57840, Note_on_c, 11, 77, 84
13, 57939, Note_on_c, 11, 86, 0
13, 57939, Note_on_c, 11, 77, 0
13, 57960, Note_on_c, 11, 77, 84
13, 57960, Note_on_c, 11, 86, 84
13, 58059, Note_on_c, 11, 77, 0
13, 58059, Note_on_c, 11, 86, 0
13, 58080, Note_on_c, 11, 87, 84
13, 58080, Note_on_c, 11, 79, 84
13, 58319, Note_on_c, 11, 87, 0
13, 58319, Note_on_c, 11, 79, 0
13, 59640, Note_on_c, 11, 67, 84
13, 59739, Note_on_c, 11, 67, 0
13, 59760, Note_on_c, 11, 67, 84
13, 59859, Note_on_c, 11, 67, 0
13, 59880, Note_on_c, 11, 67, 84
13, 59979, Note_on_c, 11, 67, 0
13, 60000, Note_on_c, 11, 63, 84
13, 60479, Note_on_c, 11, 63, 0
13, 60600, Note_on_c, 11, 65, 84
13, 60699, Note_on_c, 11, 65, 0
13, 60720, Note_on_c, 11, 65, 84
13, 60819, Note_on_c, 11, 65, 0
13, 60840, Note_on_c, 11, 65, 84
13, 60939, Note_on_c, 11, 65, 0
13, 60960, Note_on_c, 11, 62, 84
13, 61919, Note_on_c, 11, 62, 0
13, 63000, Note_on_c, 11, 75, 52
13, 63099, Note_on_c, 11, 75, 0
13, 63120, Note_on_c, 11, 75, 52
13, 63219, Note_on_c, 11, 75, 0
13, 63240, Note_on_c, 11, 75, 52
13, 63339, Note_on_c, 11, 75, 0
13, 63360, Note_on_c, 11, 72, 52
13, 64079, Note_on_c, 11, 72, 0
13, 64920, Note_on_c, 11, 77, 52
13, 65019, Note_on_c, 11, 77, 0
13, 65040, Note_on_c, 11, 77, 52
13, 65139, Note_on_c, 11, 77, 0
13, 65160, Note_on_c, 11, 77, 52
13, 65259, Note_on_c, 11, 77, 0
13, 65280, Note_on_c, 11, 74, 52
13, 65859, Note_on_c, 11, 74, 0
13, 65880, Note_on_c, 11, 79, 52
13, 65979, Note_on_c, 11, 79, 0
13, 66000, Note_on_c, 11, 79, 52
13, 66099, Note_on_c, 11, 79, 0
13, 66120, Note_on_c, 11, 77, 52
13, 66219, Note_on_c, 11, 77, 0
13, 66240, Note_on_c, 11, 75, 52
13, 66719, Note_on_c, 11, 75, 0
13, 66720, Note_on_c, 11, 74, 52
13, 66819, Note_on_c, 11, 74, 0
13, 66840, Note_on_c, 11, 79, 52
13, 66939, Note_on_c, 11, 79, 0
13, 66960, Note_on_c, 11, 79, 52
13, 67059, Note_on_c, 11, 79, 0
13, 67080, Note_on_c, 11, 77, 52
13, 67179, Note_on_c, 11, 77, 0
13, 67200, Note_on_c, 11, 75, 52
13, 67679, Note_on_c, 11, 75, 0
13, 67680, Note_on_c, 11, 74, 52
13, 67779, Note_on_c, 11, 74, 0
13, 67800, Note_on_c, 11, 79, 58
13, 67899, Note_on_c, 11, 79, 0
13, 67920, Note_on_c, 11, 79, 64
13, 68019, Note_on_c, 11, 79, 0
13, 68040, Note_on_c, 11, 77, 70
13, 68139, Note_on_c, 11, 77, 0
13, 68160, Note_on_c, 11, 75, 76
13, 68399, Note_on_c, 11, 75, 0
13, 68640, Note_on_c, 11, 66, 76
13, 68640, Note_on_c, 11, 56, 76
13, 68640, Note_on_c, 11, 72, 76
13, 68879, Note_on_c, 11, 66, 0
13, 68879, Note_on_c, 11, 56, 0
13, 68879, Note_on_c, 11, 72, 0
13, 69120, Note_on_c, 11, 62, 76
13, 69120, Note_on_c, 11, 79, 76
13, 69120, Note_on_c, 11, 71, 76
13, 69120, Note_on_c, 11, 55, 76
13, 69359, Note_on_c, 11, 62, 0
13, 69359, Note_on_c, 11, 71, 0
13, 69359, Note_on_c, 11, 55, 0
13, 69599, Note_on_c, 11, 79, 0
13, 69720, Note_on_c, 11, 68, 84
13, 69819, Note_on_c, 11, 68, 0
13, 69840, Note_on_c, 11, 68, 84
13, 69939, Note_on_c, 11, 68, 0
13, 69960, Note_on_c, 11, 68, 84
13, 70059, Note_on_c, 11, 68, 0
13, 70080, Note_on_c, 11, 65, 84
13, 71039, Note_on_c, 11, 65, 0
13, 71160, Note_on_c, 11, 68, 52
13, 71259, Note_on_c, 11, 68, 0
13, 71280, Note_on_c, 11, 68, 52
13, 71379, Note_on_c, 11, 68, 0
13, 71400, Note_on_c, 11, 68, 52
13, 71499, Note_on_c, 11, 68, 0
13, 71520, Note_on_c, 11, 65, 52
13, 72939, Note_on_c, 11, 65, 0
13, 72960, Note_on_c, 11, 63, 52
13, 73059, Note_on_c, 11, 63, 0
13, 73080, Note_on_c, 11, 68, 52
13, 73179, Note_on_c, 11, 68, 0
13, 73200, Note_on_c, 11, 68, 52
13, 73299, Note_on_c, 11, 68, 0
13, 73320, Note_on_c, 11, 68, 52
13, 73419, Note_on_c, 11, 68, 0
13, 73440, Note_on_c, 11, 65, 52
13, 74859, Note_on_c, 11, 65, 0
13, 74880, Note_on_c, 11, 63, 52
13, 74979, Note_on_c, 11, 63, 0
13, 75000, Note_on_c, 11, 67, 52
13, 75099, Note_on_c, 11, 67, 0
13, 75120, Note_on_c, 11, 72, 52
13, 75219, Note_on_c, 11, 72, 0
13, 75240, Note_on_c, 11, 72, 52
13, 75339, Note_on_c, 11, 72, 0
13, 75358, Control_c, 11, 11, 96
13, 75360, Note_on_c, 11, 72, 68
13, 75360, Control_c, 11, 11, 96
13, 75440, Control_c, 11, 11, 97
13, 75520, Control_c, 11, 11, 99
13, 75600, Control_c, 11, 11, 100
13, 75680, Control_c, 11, 11, 101
13, 75760, Control_c, 11, 11, 102
13, 75819, Note_on_c, 11, 72, 0
13, 75840, Note_on_c, 11, 71, 68
13, 75840, Control_c, 11, 11, 104
13, 75920, Control_c, 11, 11, 105
13, 75939, Note_on_c, 11, 71, 0
13, 75960, Note_on_c, 11, 71, 68
13, 76000, Control_c, 11, 11, 106
13, 76059, Note_on_c, 11, 71, 0
13, 76080, Note_on_c, 11, 71, 68
13, 76080, Control_c, 11, 11, 108
13, 76160, Control_c, 11, 11, 109
13, 76179, Note_on_c, 11, 71, 0
13, 76200, Note_on_c, 11, 74, 68
13, 76240, Control_c, 11, 11, 110
13, 76299, Note_on_c, 11, 74, 0
13, 76320, Note_on_c, 11, 74, 68
13, 76320, Control_c, 11, 11, 112
13, 76400, Control_c, 11, 11, 113
13, 76480, Control_c, 11, 11, 114
13, 76560, Control_c, 11, 11, 115
13, 76640, Control_c, 11, 11, 117
13, 76720, Control_c, 11, 11, 118
13, 76779, Note_on_c, 11, 74, 0
13, 76800, Note_on_c, 11, 72, 68
13, 76800, Control_c, 11, 11, 119
13, 76880, Control_c, 11, 11, 121
13, 76899, Note_on_c, 11, 72, 0
13, 76920, Note_on_c, 11, 72, 68
13, 76960, Control_c, 11, 11, 122
13, 77019, Note_on_c, 11, 72, 0
13, 77040, Note_on_c, 11, 72, 68
13, 77040, Control_c, 11, 11, 123
13, 77120, Control_c, 11, 11, 124
13, 77139, Note_on_c, 11, 72, 0
13, 77160, Note_on_c, 11, 75, 68
13, 77200, Control_c, 11, 11, 127
13, 77259, Note_on_c, 11, 75, 0
13, 77280, Note_on_c, 11, 75, 76
13, 77399, Note_on_c, 11, 75, 0
13, 77400, Note_on_c, 11, 74, 68
13, 77499, Note_on_c, 11, 74, 0
13, 77520, Note_on_c, 11, 74, 68
13, 77609, Note_on_c, 11, 74, 0
13, 77640, Note_on_c, 11, 77, 68
13, 77729, Note_on_c, 11, 77, 0
13, 77760, Note_on_c, 11, 77, 76
13, 77879, Note_on_c, 11, 77, 0
13, 77880, Note_on_c, 11, 76, 68
13, 77979, Note_on_c, 11, 76, 0
13, 78000, Note_on_c, 11, 76, 68
13, 78089, Note_on_c, 11, 76, 0
13, 78120, Note_on_c, 11, 79, 68
13, 78209, Note_on_c, 11, 79, 0
13, 78240, Note_on_c, 11, 79, 76
13, 78359, Note_on_c, 11, 79, 0
13, 78360, Note_on_c, 11, 77, 68
13, 78459, Note_on_c, 11, 77, 0
13, 78480, Note_on_c, 11, 77, 68
13, 78569, Note_on_c, 11, 77, 0
13, 78600, Note_on_c, 11, 80, 68
13, 78689, Note_on_c, 11, 80, 0
13, 78720, Note_on_c, 11, 80, 76
13, 78839, Note_on_c, 11, 80, 0
13, 78840, Note_on_c, 11, 79, 68
13, 78939, Note_on_c, 11, 79, 0
13, 78960, Note_on_c, 11, 79, 68
13, 79049, Note_on_c, 11, 79, 0
13, 79080, Note_on_c, 11, 82, 68
13, 79169, Note_on_c, 11, 82, 0
13, 79200, Note_on_c, 11, 82, 76
13, 79319, Note_on_c, 11, 82, 0
13, 79320, Note_on_c, 11, 80, 68
13, 79419, Note_on_c, 11, 80, 0
13, 79440, Note_on_c, 11, 80, 68
13, 79529, Note_on_c, 11, 80, 0
13, 79560, Note_on_c, 11, 84, 68
13, 79649, Note_on_c, 11, 84, 0
13, 79680, Note_on_c, 11, 84, 76
13, 79799, Note_on_c, 11, 84, 0
13, 79800, Note_on_c, 11, 83, 68
13, 79899, Note_on_c, 11, 83, 0
13, 79920, Note_on_c, 11, 83, 68
13, 80009, Note_on_c, 11, 83, 0
13, 80040, Note_on_c, 11, 86, 68
13, 80129, Note_on_c, 11, 86, 0
13, 80160, Note_on_c, 11, 84, 76
13, 80259, Note_on_c, 11, 84, 0
13, 80280, Note_on_c, 11, 87, 76
13, 80379, Note_on_c, 11, 87, 0
13, 80400, Note_on_c, 11, 87, 76
13, 80499, Note_on_c, 11, 87, 0
13, 80520, Note_on_c, 11, 87, 76
13, 80619, Note_on_c, 11, 87, 0
13, 80640, Note_on_c, 11, 84, 76
13, 80739, Note_on_c, 11, 84, 0
13, 80760, Note_on_c, 11, 79, 76
13, 80859, Note_on_c, 11, 79, 0
13, 80880, Note_on_c, 11, 79, 76
13, 80979, Note_on_c, 11, 79, 0
13, 81000, Note_on_c, 11, 79, 76
13, 81099, Note_on_c, 11, 79, 0
13, 81120, Note_on_c, 11, 75, 76
13, 81219, Note_on_c, 11, 75, 0
13, 81240, Note_on_c, 11, 72, 76
13, 81339, Note_on_c, 11, 72, 0
13, 81360, Note_on_c, 11, 67, 76
13, 81459, Note_on_c, 11, 67, 0
13, 81480, Note_on_c, 11, 67, 76
13, 81579, Note_on_c, 11, 67, 0
13, 81600, Note_on_c, 11, 63, 76
13, 81699, Note_on_c, 11, 63, 0
13, 81720, Note_on_c, 11, 60, 76
13, 81819, Note_on_c, 11, 60, 0
13, 81840, Note_on_c, 11, 60, 76
13, 81939, Note_on_c, 11, 60, 0
13, 81960, Note_on_c, 11, 60, 76
13, 82059, Note_on_c, 11, 60, 0
13, 82080, Note_on_c, 11, 59, 76
13, 82179, Note_on_c, 11, 59, 0
13, 82200, Note_on_c, 11, 89, 76
13, 82299, Note_on_c, 11, 89, 0
13, 82320, Note_on_c, 11, 86, 76
13, 82419, Note_on_c, 11, 86, 0
13, 82440, Note_on_c, 11, 86, 76
13, 82539, Note_on_c, 11, 86, 0
13, 82560, Note_on_c, 11, 83, 76
13, 82659, Note_on_c, 11, 83, 0
13, 82680, Note_on_c, 11, 79, 76
13, 82779, Note_on_c, 11, 79, 0
13, 82800, Note_on_c, 11, 77, 76
13, 82899, Note_on_c, 11, 77, 0
13, 82920, Note_on_c, 11, 77, 76
13, 83019, Note_on_c, 11, 77, 0
13, 83040, Note_on_c, 11, 74, 76
13, 83139, Note_on_c, 11, 74, 0
13, 83160, Note_on_c, 11, 71, 76
13, 83259, Note_on_c, 11, 71, 0
13, 83280, Note_on_c, 11, 67, 76
13, 83379, Note_on_c, 11, 67, 0
13, 83400, Note_on_c, 11, 65, 76
13, 83499, Note_on_c, 11, 65, 0
13, 83520, Note_on_c, 11, 62, 76
13, 83619, Note_on_c, 11, 62, 0
13, 83640, Note_on_c, 11, 59, 76
13, 83739, Note_on_c, 11, 59, 0
13, 83760, Note_on_c, 11, 60, 76
13, 83859, Note_on_c, 11, 60, 0
13, 83880, Note_on_c, 11, 60, 76
13, 83979, Note_on_c, 11, 60, 0
13, 84000, Note_on_c, 11, 60, 84
13, 84099, Note_on_c, 11, 60, 0
13, 84120, Note_on_c, 11, 87, 84
13, 84219, Note_on_c, 11, 87, 0
13, 84240, Note_on_c, 11, 87, 84
13, 84339, Note_on_c, 11, 87, 0
13, 84360, Note_on_c, 11, 87, 84
13, 84459, Note_on_c, 11, 87, 0
13, 84480, Note_on_c, 11, 84, 84
13, 84579, Note_on_c, 11, 84, 0
13, 84600, Note_on_c, 11, 81, 84
13, 84699, Note_on_c, 11, 81, 0
13, 84720, Note_on_c, 11, 81, 84
13, 84819, Note_on_c, 11, 81, 0
13, 84840, Note_on_c, 11, 81, 84
13, 84939, Note_on_c, 11, 81, 0
13, 84960, Note_on_c, 11, 78, 84
13, 85059, Note_on_c, 11, 78, 0
13, 85080, Note_on_c, 11, 75, 84
13, 85179, Note_on_c, 11, 75, 0
13, 85200, Note_on_c, 11, 75, 84
13, 85299, Note_on_c, 11, 75, 0
13, 85320, Note_on_c, 11, 75, 84
13, 85419, Note_on_c, 11, 75, 0
13, 85440, Note_on_c, 11, 72, 84
13, 85539, Note_on_c, 11, 72, 0
13, 85560, Note_on_c, 11, 57, 84
13, 85560, Note_on_c, 11, 69, 84
13, 85659, Note_on_c, 11, 57, 0
13, 85659, Note_on_c, 11, 69, 0
13, 85680, Note_on_c, 11, 57, 84
13, 85680, Note_on_c, 11, 69, 84
13, 85779, Note_on_c, 11, 57, 0
13, 85779, Note_on_c, 11, 69, 0
13, 85800, Note_on_c, 11, 57, 84
13, 85800, Note_on_c, 11, 69, 84
13, 85899, Note_on_c, 11, 57, 0
13, 85899, Note_on_c, 11, 69, 0
13, 85920, Note_on_c, 11, 57, 84
13, 85920, Note_on_c, 11, 69, 84
13, 86159, Note_on_c, 11, 57, 0
13, 86159, Note_on_c, 11, 69, 0
13, 86880, Note_on_c, 11, 65, 84
13, 86880, Note_on_c, 11, 58, 84
13, 86880, Note_on_c, 11, 70, 84
13, 87119, Note_on_c, 11, 65, 0
13, 87119, Note_on_c, 11, 58, 0
13, 87119, Note_on_c, 11, 70, 0
13, 89280, Note_on_c, 11, 70, 48
13, 89519, Note_on_c, 11, 70, 0
13, 89520, Note_on_c, 11, 75, 48
13, 89759, Note_on_c, 11, 75, 0
13, 89760, Note_on_c, 11, 74, 48
13, 89999, Note_on_c, 11, 74, 0
13, 90000, Note_on_c, 11, 75, 48
13, 90239, Note_on_c, 11, 75, 0
13, 90240, Note_on_c, 11, 77, 48
13, 90479, Note_on_c, 11, 77, 0
13, 90480, Note_on_c, 11, 72, 48
13, 90699, Note_on_c, 11, 72, 0
13, 90720, Note_on_c, 11, 72, 48
13, 90959, Note_on_c, 11, 72, 0
13, 90960, Note_on_c, 11, 70, 48
13, 91199, Note_on_c, 11, 70, 0
13, 93120, Note_on_c, 11, 70, 52
13, 93359, Note_on_c, 11, 70, 0
13, 93360, Note_on_c, 11, 75, 52
13, 93599, Note_on_c, 11, 75, 0
13, 93600, Note_on_c, 11, 74, 52
13, 93839, Note_on_c, 11, 74, 0
13, 93840, Note_on_c, 11, 75, 52
13, 94079, Note_on_c, 11, 75, 0
13, 94080, Note_on_c, 11, 77, 52
13, 94319, Note_on_c, 11, 77, 0
13, 94320, Note_on_c, 11, 72, 52
13, 94539, Note_on_c, 11, 72, 0
13, 94560, Note_on_c, 11, 72, 52
13, 94799, Note_on_c, 11, 72, 0
13, 94800, Note_on_c, 11, 70, 52
13, 95019, Note_on_c, 11, 70, 0
13, 95040, Note_on_c, 11, 70, 52
13, 95279, Note_on_c, 11, 70, 0
13, 95280, Note_on_c, 11, 72, 52
13, 95519, Note_on_c, 11, 72, 0
13, 95520, Note_on_c, 11, 73, 52
13, 95759, Note_on_c, 11, 73, 0
13, 95760, Note_on_c, 11, 72, 52
13, 95979, Note_on_c, 11, 72, 0
13, 96000, Note_on_c, 11, 70, 52
13, 96239, Note_on_c, 11, 70, 0
13, 96240, Note_on_c, 11, 72, 52
13, 96479, Note_on_c, 11, 72, 0
13, 96480, Note_on_c, 11, 70, 52
13, 96719, Note_on_c, 11, 70, 0
13, 96720, Note_on_c, 11, 68, 52
13, 96939, Note_on_c, 11, 68, 0
13, 96960, Note_on_c, 11, 73, 52
13, 97199, Note_on_c, 11, 73, 0
13, 97200, Note_on_c, 11, 75, 52
13, 97439, Note_on_c, 11, 75, 0
13, 97440, Note_on_c, 11, 77, 52
13, 97679, Note_on_c, 11, 77, 0
13, 97680, Note_on_c, 11, 75, 52
13, 97899, Note_on_c, 11, 75, 0
13, 97920, Note_on_c, 11, 73, 52
13, 98159, Note_on_c, 11, 73, 0
13, 98160, Note_on_c, 11, 75, 52
13, 98399, Note_on_c, 11, 75, 0
13, 98400, Note_on_c, 11, 73, 52
13, 98639, Note_on_c, 11, 73, 0
13, 98640, Note_on_c, 11, 72, 52
13, 98859, Note_on_c, 11, 72, 0
13, 98878, Control_c, 11, 11, 64
13, 98880, Note_on_c, 11, 75, 84
13, 99119, Note_on_c, 11, 75, 0
13, 99120, Note_on_c, 11, 77, 84
13, 99359, Note_on_c, 11, 77, 0
13, 99360, Control_c, 11, 11, 64
13, 99360, Note_on_c, 11, 78, 84
13, 99460, Control_c, 11, 11, 65
13, 99560, Control_c, 11, 11, 67
13, 99599, Note_on_c, 11, 78, 0
13, 99600, Note_on_c, 11, 77, 84
13, 99660, Control_c, 11, 11, 68
13, 99760, Control_c, 11, 11, 69
13, 99839, Note_on_c, 11, 77, 0
13, 99840, Note_on_c, 11, 75, 84
13, 99860, Control_c, 11, 11, 71
13, 99960, Control_c, 11, 11, 72
13, 100060, Control_c, 11, 11, 73
13, 100079, Note_on_c, 11, 75, 0
13, 100080, Note_on_c, 11, 77, 84
13, 100160, Control_c, 11, 11, 75
13, 100260, Control_c, 11, 11, 76
13, 100299, Note_on_c, 11, 77, 0
13, 100320, Note_on_c, 11, 78, 84
13, 100360, Control_c, 11, 11, 77
13, 100460, Control_c, 11, 11, 78
13, 100559, Note_on_c, 11, 78, 0
13, 100560, Note_on_c, 11, 77, 84
13, 100560, Control_c, 11, 11, 80
13, 100660, Control_c, 11, 11, 81
13, 100760, Control_c, 11, 11, 82
13, 100799, Note_on_c, 11, 77, 0
13, 100800, Note_on_c, 11, 75, 84
13, 100860, Control_c, 11, 11, 84
13, 100960, Control_c, 11, 11, 85
13, 101039, Note_on_c, 11, 75, 0
13, 101040, Note_on_c, 11, 77, 84
13, 101060, Control_c, 11, 11, 86
13, 101160, Control_c, 11, 11, 88
13, 101259, Note_on_c, 11, 77, 0
13, 101260, Control_c, 11, 11, 89
13, 101280, Note_on_c, 11, 78, 84
13, 101360, Control_c, 11, 11, 90
13, 101460, Control_c, 11, 11, 92
13, 101519, Note_on_c, 11, 78, 0
13, 101520, Note_on_c, 11, 77, 84
13, 101560, Control_c, 11, 11, 93
13, 101660, Control_c, 11, 11, 94
13, 101759, Note_on_c, 11, 77, 0
13, 101760, Control_c, 11, 11, 96
13, 101760, Note_on_c, 11, 75, 84
13, 101860, Control_c, 11, 11, 97
13, 101960, Control_c, 11, 11, 98
13, 101999, Note_on_c, 11, 75, 0
13, 102000, Note_on_c, 11, 77, 84
13, 102060, Control_c, 11, 11, 99
13, 102160, Control_c, 11, 11, 101
13, 102219, Note_on_c, 11, 77, 0
13, 102240, Note_on_c, 11, 78, 84
13, 102260, Control_c, 11, 11, 102
13, 102360, Control_c, 11, 11, 103
13, 102460, Control_c, 11, 11, 105
13, 102479, Note_on_c, 11, 78, 0
13, 102480, Note_on_c, 11, 77, 84
13, 102560, Control_c, 11, 11, 106
13, 102660, Control_c, 11, 11, 107
13, 102719, Note_on_c, 11, 77, 0
13, 102720, Note_on_c, 11, 75, 84
13, 102760, Control_c, 11, 11, 109
13, 102860, Control_c, 11, 11, 110
13, 102959, Note_on_c, 11, 75, 0
13, 102960, Control_c, 11, 11, 111
13, 102960, Note_on_c, 11, 77, 84
13, 103060, Control_c, 11, 11, 113
13, 103160, Control_c, 11, 11, 114
13, 103199, Note_on_c, 11, 77, 0
13, 103200, Note_on_c, 11, 78, 84
13, 103260, Control_c, 11, 11, 115
13, 103360, Control_c, 11, 11, 117
13, 103439, Note_on_c, 11, 78, 0
13, 103440, Note_on_c, 11, 77, 84
13, 103460, Control_c, 11, 11, 118
13, 103560, Control_c, 11, 11, 119
13, 103660, Control_c, 11, 11, 120
13, 103679, Note_on_c, 11, 77, 0
13, 103680, Note_on_c, 11, 78, 84
13, 103760, Control_c, 11, 11, 122
13, 103860, Control_c, 11, 11, 123
13, 103919, Note_on_c, 11, 78, 0
13, 103920, Note_on_c, 11, 81, 84
13, 103960, Control_c, 11, 11, 124
13, 104060, Control_c, 11, 11, 127
13, 104139, Note_on_c, 11, 81, 0
13, 104160, Note_on_c, 11, 70, 84
13, 104160, Note_on_c, 11, 82, 84
13, 104739, Note_on_c, 11, 70, 0
13, 104739, Note_on_c, 11, 82, 0
13, 104760, Note_on_c, 11, 84, 84
13, 104849, Note_on_c, 11, 84, 0
13, 104880, Note_on_c, 11, 82, 84
13, 104969, Note_on_c, 11, 82, 0
13, 105000, Note_on_c, 11, 80, 84
13, 105089, Note_on_c, 11, 80, 0
13, 105120, Note_on_c, 11, 80, 84
13, 105239, Note_on_c, 11, 80, 0
13, 105240, Note_on_c, 11, 79, 84
13, 105339, Note_on_c, 11, 79, 0
13, 105360, Note_on_c, 11, 77, 84
13, 105449, Note_on_c, 11, 77, 0
13, 105480, Note_on_c, 11, 75, 84
13, 105569, Note_on_c, 11, 75, 0
13, 105600, Note_on_c, 11, 75, 84
13, 105719, Note_on_c, 11, 75, 0
13, 105720, Note_on_c, 11, 74, 84
13, 105819, Note_on_c, 11, 74, 0
13, 105840, Note_on_c, 11, 72, 84
13, 105929, Note_on_c, 11, 72, 0
13, 105960, Note_on_c, 11, 74, 84
13, 106049, Note_on_c, 11, 74, 0
13, 106080, Note_on_c, 11, 77, 84
13, 106199, Note_on_c, 11, 77, 0
13, 106200, Note_on_c, 11, 75, 84
13, 106299, Note_on_c, 11, 75, 0
13, 106320, Note_on_c, 11, 70, 84
13, 106409, Note_on_c, 11, 70, 0
13, 106440, Note_on_c, 11, 67, 84
13, 106529, Note_on_c, 11, 67, 0
13, 106560, Note_on_c, 11, 74, 84
13, 106679, Note_on_c, 11, 74, 0
13, 106680, Note_on_c, 11, 72, 84
13, 106779, Note_on_c, 11, 72, 0
13, 106800, Note_on_c, 11, 68, 84
13, 106889, Note_on_c, 11, 68, 0
13, 106920, Note_on_c, 11, 65, 84
13, 107009, Note_on_c, 11, 65, 0
13, 107040, Note_on_c, 11, 72, 84
13, 107159, Note_on_c, 11, 72, 0
13, 107160, Note_on_c, 11, 70, 84
13, 107259, Note_on_c, 11, 70, 0
13, 107280, Note_on_c, 11, 67, 84
13, 107369, Note_on_c, 11, 67, 0
13, 107400, Note_on_c, 11, 63, 84
13, 107489, Note_on_c, 11, 63, 0
13, 107520, Note_on_c, 11, 58, 84
13, 107619, Note_on_c, 11, 58, 0
13, 107640, Note_on_c, 11, 81, 84
13, 107759, Note_on_c, 11, 81, 0
13, 107760, Note_on_c, 11, 82, 84
13, 107879, Note_on_c, 11, 82, 0
13, 107880, Note_on_c, 11, 81, 84
13, 107999, Note_on_c, 11, 81, 0
13, 108000, Note_on_c, 11, 82, 84
13, 108119, Note_on_c, 11, 82, 0
13, 108120, Note_on_c, 11, 81, 84
13, 108239, Note_on_c, 11, 81, 0
13, 108240, Note_on_c, 11, 82, 84
13, 108359, Note_on_c, 11, 82, 0
13, 108360, Note_on_c, 11, 81, 84
13, 108459, Note_on_c, 11, 81, 0
13, 108480, Note_on_c, 11, 82, 84
13, 108569, Note_on_c, 11, 82, 0
13, 108600, Note_on_c, 11, 84, 84
13, 108689, Note_on_c, 11, 84, 0
13, 108720, Note_on_c, 11, 82, 84
13, 108809, Note_on_c, 11, 82, 0
13, 108840, Note_on_c, 11, 80, 84
13, 108929, Note_on_c, 11, 80, 0
13, 108960, Note_on_c, 11, 80, 84
13, 109079, Note_on_c, 11, 80, 0
13, 109080, Note_on_c, 11, 79, 84
13, 109179, Note_on_c, 11, 79, 0
13, 109200, Note_on_c, 11, 77, 84
13, 109289, Note_on_c, 11, 77, 0
13, 109320, Note_on_c, 11, 75, 84
13, 109409, Note_on_c, 11, 75, 0
13, 109440, Note_on_c, 11, 75, 84
13, 109559, Note_on_c, 11, 75, 0
13, 109560, Note_on_c, 11, 74, 84
13, 109659, Note_on_c, 11, 74, 0
13, 109680, Note_on_c, 11, 72, 84
13, 109769, Note_on_c, 11, 72, 0
13, 109800, Note_on_c, 11, 74, 84
13, 109889, Note_on_c, 11, 74, 0
13, 109920, Note_on_c, 11, 77, 84
13, 110039, Note_on_c, 11, 77, 0
13, 110040, Note_on_c, 11, 75, 84
13, 110139, Note_on_c, 11, 75, 0
13, 110160, Note_on_c, 11, 70, 84
13, 110249, Note_on_c, 11, 70, 0
13, 110280, Note_on_c, 11, 67, 84
13, 110369, Note_on_c, 11, 67, 0
13, 110400, Note_on_c, 11, 74, 84
13, 110519, Note_on_c, 11, 74, 0
13, 110520, Note_on_c, 11, 72, 84
13, 110619, Note_on_c, 11, 72, 0
13, 110640, Note_on_c, 11, 68, 84
13, 110729, Note_on_c, 11, 68, 0
13, 110760, Note_on_c, 11, 65, 84
13, 110849, Note_on_c, 11, 65, 0
13, 110880, Note_on_c, 11, 72, 84
13, 110999, Note_on_c, 11, 72, 0
13, 111000, Note_on_c, 11, 70, 84
13, 111099, Note_on_c, 11, 70, 0
13, 111120, Note_on_c, 11, 67, 84
13, 111209, Note_on_c, 11, 67, 0
13, 111240, Note_on_c, 11, 63, 84
13, 111329, Note_on_c, 11, 63, 0
13, 111360, Note_on_c, 11, 58, 84
13, 111459, Note_on_c, 11, 58, 0
13, 111480, Note_on_c, 11, 70, 84
13, 111579, Note_on_c, 11, 70, 0
13, 111600, Note_on_c, 11, 82, 84
13, 111699, Note_on_c, 11, 82, 0
13, 111720, Note_on_c, 11, 82, 84
13, 111819, Note_on_c, 11, 82, 0
13, 111840, Note_on_c, 11, 75, 84
13, 113379, Note_on_c, 11, 75, 0
13, 113400, Note_on_c, 11, 77, 84
13, 113499, Note_on_c, 11, 77, 0
13, 113520, Note_on_c, 11, 77, 84
13, 113619, Note_on_c, 11, 77, 0
13, 113640, Note_on_c, 11, 77, 84
13, 113739, Note_on_c, 11, 77, 0
13, 113760, Note_on_c, 11, 79, 84
13, 115299, Note_on_c, 11, 79, 0
13, 115320, Note_on_c, 11, 82, 84
13, 115320, Note_on_c, 11, 70, 84
13, 115419, Note_on_c, 11, 82, 0
13, 115419, Note_on_c, 11, 70, 0
13, 115440, Note_on_c, 11, 82, 84
13, 115440, Note_on_c, 11, 70, 84
13, 115539, Note_on_c, 11, 82, 0
13, 115539, Note_on_c, 11, 70, 0
13, 115560, Note_on_c, 11, 82, 84
13, 115560, Note_on_c, 11, 70, 84
13, 115659, Note_on_c, 11, 82, 0
13, 115659, Note_on_c, 11, 70, 0
13, 115680, Note_on_c, 11, 82, 84
13, 115680, Note_on_c, 11, 70, 84
13, 115919, Note_on_c, 11, 82, 0
13, 115919, Note_on_c, 11, 70, 0
13, 116280, Note_on_c, 11, 82, 84
13, 116280, Note_on_c, 11, 70, 84
13, 116379, Note_on_c, 11, 82, 0
13, 116379, Note_on_c, 11, 70, 0
13, 116400, Note_on_c, 11, 82, 84
13, 116400, Note_on_c, 11, 70, 84
13, 116499, Note_on_c, 11, 82, 0
13, 116499, Note_on_c, 11, 70, 0
13, 116520, Note_on_c, 11, 70, 84
13, 116520, Note_on_c, 11, 82, 84
13, 116619, Note_on_c, 11, 70, 0
13, 116619, Note_on_c, 11, 82, 0
13, 116640, Note_on_c, 11, 70, 84
13, 116640, Note_on_c, 11, 82, 84
13, 116879, Note_on_c, 11, 70, 0
13, 116879, Note_on_c, 11, 82, 0
13, 117240, Note_on_c, 11, 77, 84
13, 117240, Note_on_c, 11, 86, 84
13, 117339, Note_on_c, 11, 77, 0
13, 117339, Note_on_c, 11, 86, 0
13, 117360, Note_on_c, 11, 86, 84
13, 117360, Note_on_c, 11, 77, 84
13, 117459, Note_on_c, 11, 86, 0
13, 117459, Note_on_c, 11, 77, 0
13, 117480, Note_on_c, 11, 77, 84
13, 117480, Note_on_c, 11, 86, 84
13, 117579, Note_on_c, 11, 77, 0
13, 117579, Note_on_c, 11, 86, 0
13, 117600, Note_on_c, 11, 79, 84
13, 117600, Note_on_c, 11, 87, 84
13, 117839, Note_on_c, 11, 79, 0
13, 117839, Note_on_c, 11, 87, 0
13, 119640, Note_on_c, 11, 61, 84
13, 119739, Note_on_c, 11, 61, 0
13, 119760, Note_on_c, 11, 61, 84
13, 119859, Note_on_c, 11, 61, 0
13, 119880, Note_on_c, 11, 61, 84
13, 119979, Note_on_c, 11, 61, 0
13, 120000, Note_on_c, 11, 60, 84
13, 120959, Note_on_c, 11, 60, 0
13, 122040, Note_on_c, 11, 80, 52
13, 122139, Note_on_c, 11, 80, 0
13, 122160, Note_on_c, 11, 80, 52
13, 122259, Note_on_c, 11, 80, 0
13, 122280, Note_on_c, 11, 80, 52
13, 122379, Note_on_c, 11, 80, 0
13, 122400, Note_on_c, 11, 77, 52
13, 123119, Note_on_c, 11, 77, 0
13, 123960, Note_on_c, 11, 82, 52
13, 124059, Note_on_c, 11, 82, 0
13, 124080, Note_on_c, 11, 82, 52
13, 124179, Note_on_c, 11, 82, 0
13, 124200, Note_on_c, 11, 82, 52
13, 124299, Note_on_c, 11, 82, 0
13, 124320, Note_on_c, 11, 79, 52
13, 124899, Note_on_c, 11, 79, 0
13, 124920, Note_on_c, 11, 84, 52
13, 125019, Note_on_c, 11, 84, 0
13, 125040, Note_on_c, 11, 84, 52
13, 125139, Note_on_c, 11, 84, 0
13, 125160, Note_on_c, 11, 82, 52
13, 125259, Note_on_c, 11, 82, 0
13, 125280, Note_on_c, 11, 80, 52
13, 125759, Note_on_c, 11, 80, 0
13, 125760, Note_on_c, 11, 79, 52
13, 125859, Note_on_c, 11, 79, 0
13, 125880, Note_on_c, 11, 84, 52
13, 125979, Note_on_c, 11, 84, 0
13, 126000, Note_on_c, 11, 84, 52
13, 126099, Note_on_c, 11, 84, 0
13, 126120, Note_on_c, 11, 82, 52
13, 126219, Note_on_c, 11, 82, 0
13, 126240, Note_on_c, 11, 80, 52
13, 126719, Note_on_c, 11, 80, 0
13, 126720, Note_on_c, 11, 79, 52
13, 126819, Note_on_c, 11, 79, 0
13, 126840, Note_on_c, 11, 84, 52
13, 126939, Note_on_c, 11, 84, 0
13, 126960, Note_on_c, 11, 84, 52
13, 127059, Note_on_c, 11, 84, 0
13, 127080, Note_on_c, 11, 82, 52
13, 127179, Note_on_c, 11, 82, 0
13, 127200, Note_on_c, 11, 80, 52
13, 127299, Note_on_c, 11, 80, 0
13, 127320, Note_on_c, 11, 80, 53
13, 127419, Note_on_c, 11, 80, 0
13, 127440, Note_on_c, 11, 80, 54
13, 127539, Note_on_c, 11, 80, 0
13, 127560, Note_on_c, 11, 79, 56
13, 127659, Note_on_c, 11, 79, 0
13, 127680, Note_on_c, 11, 77, 57
13, 127779, Note_on_c, 11, 77, 0
13, 127800, Note_on_c, 11, 77, 58
13, 127899, Note_on_c, 11, 77, 0
13, 127920, Note_on_c, 11, 77, 60
13, 128019, Note_on_c, 11, 77, 0
13, 128040, Note_on_c, 11, 75, 61
13, 128139, Note_on_c, 11, 75, 0
13, 128160, Note_on_c, 11, 74, 62
13, 128259, Note_on_c, 11, 74, 0
13, 128280, Note_on_c, 11, 74, 64
13, 128379, Note_on_c, 11, 74, 0
13, 128400, Note_on_c, 11, 74, 65
13, 128499, Note_on_c, 11, 74, 0
13, 128520, Note_on_c, 11, 72, 66
13, 128619, Note_on_c, 11, 72, 0
13, 128640, Note_on_c, 11, 71, 52
13, 128879, Note_on_c, 11, 71, 0
13, 129120, Control_c, 11, 11, 96
13, 129240, Note_on_c, 11, 75, 68
13, 129339, Note_on_c, 11, 75, 0
13, 129360, Note_on_c, 11, 75, 68
13, 129459, Note_on_c, 11, 75, 0
13, 129480, Note_on_c, 11, 77, 68
13, 129579, Note_on_c, 11, 77, 0
13, 129600, Note_on_c, 11, 79, 68
13, 130179, Note_on_c, 11, 79, 0
13, 130200, Note_on_c, 11, 75, 68
13, 130299, Note_on_c, 11, 75, 0
13, 130320, Note_on_c, 11, 75, 68
13, 130419, Note_on_c, 11, 75, 0
13, 130440, Note_on_c, 11, 77, 68
13, 130539, Note_on_c, 11, 77, 0
13, 130560, Note_on_c, 11, 79, 68
13, 131040, Control_c, 11, 11, 96
13, 131100, Control_c, 11, 11, 97
13, 131160, Control_c, 11, 11, 99
13, 131220, Control_c, 11, 11, 100
13, 131280, Control_c, 11, 11, 101
13, 131340, Control_c, 11, 11, 102
13, 131400, Control_c, 11, 11, 104
13, 131460, Control_c, 11, 11, 105
13, 131519, Note_on_c, 11, 79, 0
13, 131520, Control_c, 11, 11, 106
13, 131520, Note_on_c, 11, 81, 68
13, 131580, Control_c, 11, 11, 108
13, 131640, Control_c, 11, 11, 109
13, 131700, Control_c, 11, 11, 110
13, 131759, Note_on_c, 11, 81, 0
13, 131760, Note_on_c, 11, 82, 68
13, 131760, Control_c, 11, 11, 112
13, 131820, Control_c, 11, 11, 113
13, 131880, Control_c, 11, 11, 114
13, 131940, Control_c, 11, 11, 115
13, 131999, Note_on_c, 11, 82, 0
13, 132000, Control_c, 11, 11, 117
13, 132000, Note_on_c, 11, 84, 68
13, 132060, Control_c, 11, 11, 118
13, 132120, Control_c, 11, 11, 119
13, 132180, Control_c, 11, 11, 121
13, 132239, Note_on_c, 11, 84, 0
13, 132240, Note_on_c, 11, 85, 68
13, 132240, Control_c, 11, 11, 122
13, 132300, Control_c, 11, 11, 123
13, 132360, Control_c, 11, 11, 124
13, 132420, Control_c, 11, 11, 127
13, 132459, Note_on_c, 11, 85, 0
13, 132480, Note_on_c, 11, 74, 52
13, 132480, Note_on_c, 11, 86, 52
13, 133439, Note_on_c, 11, 74, 0
13, 133439, Note_on_c, 11, 86, 0
13, 133440, Note_on_c, 11, 86, 52
13, 133440, Note_on_c, 11, 74, 52
13, 134399, Note_on_c, 11, 86, 0
13, 134399, Note_on_c, 11, 74, 0
13, 134400, Note_on_c, 11, 74, 52
13, 134400, Note_on_c, 11, 86, 52
13, 134979, Note_on_c, 11, 74, 0
13, 134979, Note_on_c, 11, 86, 0
13, 135000, Note_on_c, 11, 79, 52
13, 135099, Note_on_c, 11, 79, 0
13, 135120, Note_on_c, 11, 79, 52
13, 135219, Note_on_c, 11, 79, 0
13, 135240, Note_on_c, 11, 81, 52
13, 135339, Note_on_c, 11, 81, 0
13, 135360, Note_on_c, 11, 82, 52
13, 135599, Note_on_c, 11, 82, 0
13, 135960, Note_on_c, 11, 78, 52
13, 136059, Note_on_c, 11, 78, 0
13, 136080, Note_on_c, 11, 81, 52
13, 136179, Note_on_c, 11, 81, 0
13, 136200, Note_on_c, 11, 82, 52
13, 136299, Note_on_c, 11, 82, 0
13, 136320, Note_on_c, 11, 84, 52
13, 136559, Note_on_c, 11, 84, 0
13, 136920, Note_on_c, 11, 78, 52
13, 137019, Note_on_c, 11, 78, 0
13, 137040, Note_on_c, 11, 81, 52
13, 137139, Note_on_c, 11, 81, 0
13, 137160, Note_on_c, 11, 82, 52
13, 137259, Note_on_c, 11, 82, 0
13, 137280, Note_on_c, 11, 84, 52
13, 137519, Note_on_c, 11, 84, 0
13, 137880, Note_on_c, 11, 79, 52
13, 137979, Note_on_c, 11, 79, 0
13, 138000, Note_on_c, 11, 82, 52
13, 138099, Note_on_c, 11, 82, 0
13, 138120, Note_on_c, 11, 84, 52
13, 138219, Note_on_c, 11, 84, 0
13, 138240, Note_on_c, 11, 86, 52
13, 138479, Note_on_c, 11, 86, 0
13, 138840, Note_on_c, 11, 79, 55
13, 138939, Note_on_c, 11, 79, 0
13, 138960, Note_on_c, 11, 82, 58
13, 139059, Note_on_c, 11, 82, 0
13, 139080, Note_on_c, 11, 84, 61
13, 139179, Note_on_c, 11, 84, 0
13, 139200, Note_on_c, 11, 86, 64
13, 139299, Note_on_c, 11, 86, 0
13, 139320, Note_on_c, 11, 82, 67
13, 139419, Note_on_c, 11, 82, 0
13, 139440, Note_on_c, 11, 84, 70
13, 139539, Note_on_c, 11, 84, 0
13, 139560, Note_on_c, 11, 86, 73
13, 139659, Note_on_c, 11, 86, 0
13, 139680, Note_on_c, 11, 75, 76
13, 139680, Note_on_c, 11, 87, 76
13, 139779, Note_on_c, 11, 75, 0
13, 139779, Note_on_c, 11, 87, 0
13, 139800, Note_on_c, 11, 75, 76
13, 139800, Note_on_c, 11, 87, 76
13, 139899, Note_on_c, 11, 75, 0
13, 139899, Note_on_c, 11, 87, 0
13, 139920, Note_on_c, 11, 75, 76
13, 139920, Note_on_c, 11, 87, 76
13, 140019, Note_on_c, 11, 75, 0
13, 140019, Note_on_c, 11, 87, 0
13, 140040, Note_on_c, 11, 75, 76
13, 140040, Note_on_c, 11, 87, 76
13, 140139, Note_on_c, 11, 75, 0
13, 140139, Note_on_c, 11, 87, 0
13, 140160, Note_on_c, 11, 87, 76
13, 140160, Note_on_c, 11, 75, 76
13, 140259, Note_on_c, 11, 87, 0
13, 140259, Note_on_c, 11, 75, 0
13, 140280, Note_on_c, 11, 75, 76
13, 140280, Note_on_c, 11, 87, 76
13, 140379, Note_on_c, 11, 75, 0
13, 140379, Note_on_c, 11, 87, 0
13, 140400, Note_on_c, 11, 87, 76
13, 140400, Note_on_c, 11, 75, 76
13, 140499, Note_on_c, 11, 87, 0
13, 140499, Note_on_c, 11, 75, 0
13, 140520, Note_on_c, 11, 87, 76
13, 140520, Note_on_c, 11, 75, 76
13, 140619, Note_on_c, 11, 87, 0
13, 140619, Note_on_c, 11, 75, 0
13, 140640, Note_on_c, 11, 87, 76
13, 140640, Note_on_c, 11, 75, 76
13, 140879, Note_on_c, 11, 87, 0
13, 140879, Note_on_c, 11, 75, 0
13, 141240, Note_on_c, 11, 88, 76
13, 141240, Note_on_c, 11, 76, 76
13, 141339, Note_on_c, 11, 88, 0
13, 141339, Note_on_c, 11, 76, 0
13, 141360, Note_on_c, 11, 88, 76
13, 141360, Note_on_c, 11, 76, 76
13, 141459, Note_on_c, 11, 88, 0
13, 141459, Note_on_c, 11, 76, 0
13, 141480, Note_on_c, 11, 76, 76
13, 141480, Note_on_c, 11, 88, 76
13, 141579, Note_on_c, 11, 76, 0
13, 141579, Note_on_c, 11, 88, 0
13, 141600, Note_on_c, 11, 88, 76
13, 141600, Note_on_c, 11, 76, 76
13, 141699, Note_on_c, 11, 88, 0
13, 141699, Note_on_c, 11, 76, 0
13, 141720, Note_on_c, 11, 76, 76
13, 141720, Note_on_c, 11, 88, 76
13, 141819, Note_on_c, 11, 76, 0
13, 141819, Note_on_c, 11, 88, 0
13, 141840, Note_on_c, 11, 88, 76
13, 141840, Note_on_c, 11, 76, 76
13, 141939, Note_on_c, 11, 88, 0
13, 141939, Note_on_c, 11, 76, 0
13, 141960, Note_on_c, 11, 76, 76
13, 141960, Note_on_c, 11, 88, 76
13, 142059, Note_on_c, 11, 76, 0
13, 142059, Note_on_c, 11, 88, 0
13, 142080, Note_on_c, 11, 76, 76
13, 142080, Note_on_c, 11, 88, 76
13, 142179, Note_on_c, 11, 76, 0
13, 142179, Note_on_c, 11, 88, 0
13, 142200, Note_on_c, 11, 76, 76
13, 142200, Note_on_c, 11, 88, 76
13, 142299, Note_on_c, 11, 76, 0
13, 142299, Note_on_c, 11, 88, 0
13, 142320, Note_on_c, 11, 76, 76
13, 142320, Note_on_c, 11, 88, 76
13, 142419, Note_on_c, 11, 76, 0
13, 142419, Note_on_c, 11, 88, 0
13, 142440, Note_on_c, 11, 88, 76
13, 142440, Note_on_c, 11, 76, 76
13, 142539, Note_on_c, 11, 88, 0
13, 142539, Note_on_c, 11, 76, 0
13, 142560, Note_on_c, 11, 76, 76
13, 142560, Note_on_c, 11, 88, 76
13, 142799, Note_on_c, 11, 76, 0
13, 142799, Note_on_c, 11, 88, 0
13, 143160, Note_on_c, 11, 74, 80
13, 143160, Note_on_c, 11, 86, 80
13, 143259, Note_on_c, 11, 74, 0
13, 143259, Note_on_c, 11, 86, 0
13, 143280, Note_on_c, 11, 86, 80
13, 143280, Note_on_c, 11, 74, 80
13, 143379, Note_on_c, 11, 86, 0
13, 143379, Note_on_c, 11, 74, 0
13, 143400, Note_on_c, 11, 74, 80
13, 143400, Note_on_c, 11, 86, 80
13, 143499, Note_on_c, 11, 74, 0
13, 143499, Note_on_c, 11, 86, 0
13, 143520, Note_on_c, 11, 86, 80
13, 143520, Note_on_c, 11, 74, 80
13, 143759, Note_on_c, 11, 86, 0
13, 143759, Note_on_c, 11, 74, 0
13, 144240, Note_on_c, 11, 85, 80
13, 144339, Note_on_c, 11, 85, 0
13, 144360, Note_on_c, 11, 85, 80
13, 144459, Note_on_c, 11, 85, 0
13, 144480, Note_on_c, 11, 85, 80
13, 144699, Note_on_c, 11, 85, 0
13, 144720, Note_on_c, 11, 86, 80
13, 144819, Note_on_c, 11, 86, 0
13, 144840, Note_on_c, 11, 86, 80
13, 144939, Note_on_c, 11, 86, 0
13, 144960, Note_on_c, 11, 86, 80
13, 145059, Note_on_c, 11, 86, 0
13, 145080, Note_on_c, 11, 86, 84
13, 145179, Note_on_c, 11, 86, 0
13, 145200, Note_on_c, 11, 86, 84
13, 145299, Note_on_c, 11, 86, 0
13, 145320, Note_on_c, 11, 86, 84
13, 145419, Note_on_c, 11, 86, 0
13, 145440, Note_on_c, 11, 79, 92
13, 145879, Note_on_c, 11, 79, 0
13, 145920, Note_on_c, 11, 81, 92
13, 146359, Note_on_c, 11, 81, 0
13, 146400, Note_on_c, 11, 74, 92
13, 146519, Note_on_c, 11, 74, 0
13, 146520, Note_on_c, 11, 74, 84
13, 148059, Note_on_c, 11, 74, 0
13, 148080, Note_on_c, 11, 78, 84
13, 148179, Note_on_c, 11, 78, 0
13, 148200, Note_on_c, 11, 78, 84
13, 148299, Note_on_c, 11, 78, 0
13, 148320, Note_on_c, 11, 81, 84
13, 148539, Note_on_c, 11, 81, 0
13, 148560, Note_on_c, 11, 86, 84
13, 148659, Note_on_c, 11, 86, 0
13, 148680, Note_on_c, 11, 86, 84
13, 148779, Note_on_c, 11, 86, 0
13, 148800, Note_on_c, 11, 83, 84
13, 148899, Note_on_c, 11, 83, 0
13, 148920, Note_on_c, 11, 79, 84
13, 149019, Note_on_c, 11, 79, 0
13, 149040, Note_on_c, 11, 79, 84
13, 149139, Note_on_c, 11, 79, 0
13, 149160, Note_on_c, 11, 79, 84
13, 149259, Note_on_c, 11, 79, 0
13, 149280, Note_on_c, 11, 72, 92
13, 149719, Note_on_c, 11, 72, 0
13, 149760, Note_on_c, 11, 74, 92
13, 150199, Note_on_c, 11, 74, 0
13, 150240, Note_on_c, 11, 67, 92
13, 150359, Note_on_c, 11, 67, 0
13, 150360, Note_on_c, 11, 67, 84
13, 151899, Note_on_c, 11, 67, 0
13, 151920, Note_on_c, 11, 71, 84
13, 152019, Note_on_c, 11, 71, 0
13, 152040, Note_on_c, 11, 71, 84
13, 152139, Note_on_c, 11, 71, 0
13, 152160, Note_on_c, 11, 74, 84
13, 152379, Note_on_c, 11, 74, 0
13, 152400, Note_on_c, 11, 79, 84
13, 152499, Note_on_c, 11, 79, 0
13, 152520, Note_on_c, 11, 79, 84
13, 152619, Note_on_c, 11, 79, 0
13, 152640, Note_on_c, 11, 76, 84
13, 152879, Note_on_c, 11, 76, 0
13, 154080, Note_on_c, 11, 64, 84
13, 154080, Note_on_c, 11, 55, 84
13, 154539, Note_on_c, 11, 64, 0
13, 154539, Note_on_c, 11, 55, 0
13, 154560, Note_on_c, 11, 65, 84
13, 154560, Note_on_c, 11, 56, 84
13, 155039, Note_on_c, 11, 65, 0
13, 155039, Note_on_c, 11, 56, 0
13, 156000, Note_on_c, 11, 55, 84
13, 156000, Note_on_c, 11, 64, 84
13, 156459, Note_on_c, 11, 55, 0
13, 156459, Note_on_c, 11, 64, 0
13, 156480, Note_on_c, 11, 65, 84
13, 156480, Note_on_c, 11, 56, 84
13, 156959, Note_on_c, 11, 65, 0
13, 156959, Note_on_c, 11, 56, 0
13, 157920, Note_on_c, 11, 66, 84
13, 158379, Note_on_c, 11, 66, 0
13, 158400, Note_on_c, 11, 69, 84
13, 158879, Note_on_c, 11, 69, 0
13, 159840, Note_on_c, 11, 70, 84
13, 160319, Note_on_c, 11, 70, 0
13, 160800, Note_on_c, 11, 71, 74
13, 161279, Note_on_c, 11, 71, 0
13, 161760, Note_on_c, 11, 73, 63
13, 162239, Note_on_c, 11, 73, 0
13, 162720, Note_on_c, 11, 61, 52
13, 163199, Note_on_c, 11, 61, 0
13, 163680, Note_on_c, 11, 61, 51
13, 164159, Note_on_c, 11, 61, 0
13, 164640, Note_on_c, 11, 61, 48
13, 165119, Note_on_c, 11, 61, 0
13, 165600, Note_on_c, 11, 62, 44
13, 166079, Note_on_c, 11, 62, 0
13, 166560, Note_on_c, 11, 62, 44
13, 167039, Note_on_c, 11, 62, 0
13, 167520, Note_on_c, 11, 62, 44
13, 167999, Note_on_c, 11, 62, 0
13, 168480, Note_on_c, 11, 62, 84
13, 168579, Note_on_c, 11, 62, 0
13, 168600, Note_on_c, 11, 74, 84
13, 168699, Note_on_c, 11, 74, 0
13, 168720, Note_on_c, 11, 74, 84
13, 168819, Note_on_c, 11, 74, 0
13, 168840, Note_on_c, 11, 74, 84
13, 168939, Note_on_c, 11, 74, 0
13, 168960, Note_on_c, 11, 71, 84
13, 169419, Note_on_c, 11, 71, 0
13, 169440, Note_on_c, 11, 72, 84
13, 169899, Note_on_c, 11, 72, 0
13, 169920, Note_on_c, 11, 69, 84
13, 170879, Note_on_c, 11, 69, 0
13, 171360, Note_on_c, 11, 62, 44
13, 171839, Note_on_c, 11, 62, 0
13, 172320, Note_on_c, 11, 62, 44
13, 172799, Note_on_c, 11, 62, 0
13, 173280, Note_on_c, 11, 62, 44
13, 173759, Note_on_c, 11, 62, 0
13, 174240, Note_on_c, 11, 62, 76
13, 174479, Note_on_c, 11, 62, 0
13, 174840, Note_on_c, 11, 80, 84
13, 174939, Note_on_c, 11, 80, 0
13, 174960, Note_on_c, 11, 80, 84
13, 175059, Note_on_c, 11, 80, 0
13, 175080, Note_on_c, 11, 80, 84
13, 175179, Note_on_c, 11, 80, 0
13, 175200, Note_on_c, 11, 77, 84
13, 175779, Note_on_c, 11, 77, 0
13, 175800, Note_on_c, 11, 80, 84
13, 175899, Note_on_c, 11, 80, 0
13, 175920, Note_on_c, 11, 80, 84
13, 176019, Note_on_c, 11, 80, 0
13, 176040, Note_on_c, 11, 80, 84
13, 176139, Note_on_c, 11, 80, 0
13, 176160, Note_on_c, 11, 77, 84
13, 176739, Note_on_c, 11, 77, 0
13, 176760, Note_on_c, 11, 80, 84
13, 176859, Note_on_c, 11, 80, 0
13, 176880, Note_on_c, 11, 80, 84
13, 176979, Note_on_c, 11, 80, 0
13, 177000, Note_on_c, 11, 80, 84
13, 177099, Note_on_c, 11, 80, 0
13, 177120, Note_on_c, 11, 77, 84
13, 177219, Note_on_c, 11, 77, 0
13, 177240, Note_on_c, 11, 80, 84
13, 177339, Note_on_c, 11, 80, 0
13, 177360, Note_on_c, 11, 80, 84
13, 177459, Note_on_c, 11, 80, 0
13, 177480, Note_on_c, 11, 80, 84
13, 177579, Note_on_c, 11, 80, 0
13, 177600, Note_on_c, 11, 77, 84
13, 177699, Note_on_c, 11, 77, 0
13, 177720, Note_on_c, 11, 80, 84
13, 177819, Note_on_c, 11, 80, 0
13, 177840, Note_on_c, 11, 80, 84
13, 177939, Note_on_c, 11, 80, 0
13, 177960, Note_on_c, 11, 80, 84
13, 178059, Note_on_c, 11, 80, 0
13, 178080, Note_on_c, 11, 77, 84
13, 178179, Note_on_c, 11, 77, 0
13, 178200, Note_on_c, 11, 79, 84
13, 178299, Note_on_c, 11, 79, 0
13, 178320, Note_on_c, 11, 79, 84
13, 178419, Note_on_c, 11, 79, 0
13, 178440, Note_on_c, 11, 79, 84
13, 178539, Note_on_c, 11, 79, 0
13, 178560, Note_on_c, 11, 75, 84
13, 179999, Note_on_c, 11, 75, 0
13, 180120, Note_on_c, 11, 77, 84
13, 180219, Note_on_c, 11, 77, 0
13, 180240, Note_on_c, 11, 77, 84
13, 180339, Note_on_c, 11, 77, 0
13, 180360, Note_on_c, 11, 77, 84
13, 180459, Note_on_c, 11, 77, 0
13, 180480, Note_on_c, 11, 74, 84
13, 182399, Note_on_c, 11, 74, 0
13, 183000, Note_on_c, 11, 68, 52
13, 183099, Note_on_c, 11, 68, 0
13, 183120, Note_on_c, 11, 68, 52
13, 183219, Note_on_c, 11, 68, 0
13, 183240, Note_on_c, 11, 68, 52
13, 183339, Note_on_c, 11, 68, 0
13, 183360, Note_on_c, 11, 67, 52
13, 183459, Note_on_c, 11, 67, 0
13, 183480, Note_on_c, 11, 75, 52
13, 183579, Note_on_c, 11, 75, 0
13, 183600, Note_on_c, 11, 75, 52
13, 183699, Note_on_c, 11, 75, 0
13, 183720, Note_on_c, 11, 75, 52
13, 183819, Note_on_c, 11, 75, 0
13, 183840, Note_on_c, 11, 72, 52
13, 184079, Note_on_c, 11, 72, 0
13, 184920, Note_on_c, 11, 68, 52
13, 185019, Note_on_c, 11, 68, 0
13, 185040, Note_on_c, 11, 68, 52
13, 185139, Note_on_c, 11, 68, 0
13, 185160, Note_on_c, 11, 68, 52
13, 185259, Note_on_c, 11, 68, 0
13, 185280, Note_on_c, 11, 67, 52
13, 185379, Note_on_c, 11, 67, 0
13, 185400, Note_on_c, 11, 77, 52
13, 185499, Note_on_c, 11, 77, 0
13, 185520, Note_on_c, 11, 77, 52
13, 185619, Note_on_c, 11, 77, 0
13, 185640, Note_on_c, 11, 77, 52
13, 185739, Note_on_c, 11, 77, 0
13, 185760, Note_on_c, 11, 74, 52
13, 186339, Note_on_c, 11, 74, 0
13, 186360, Note_on_c, 11, 79, 52
13, 186459, Note_on_c, 11, 79, 0
13, 186480, Note_on_c, 11, 79, 52
13, 186579, Note_on_c, 11, 79, 0
13, 186600, Note_on_c, 11, 77, 52
13, 186699, Note_on_c, 11, 77, 0
13, 186720, Note_on_c, 11, 75, 52
13, 187179, Note_on_c, 11, 75, 0
13, 187200, Note_on_c, 11, 74, 52
13, 187299, Note_on_c, 11, 74, 0
13, 187320, Note_on_c, 11, 79, 52
13, 187419, Note_on_c, 11, 79, 0
13, 187440, Note_on_c, 11, 79, 52
13, 187539, Note_on_c, 11, 79, 0
13, 187560, Note_on_c, 11, 77, 52
13, 187659, Note_on_c, 11, 77, 0
13, 187680, Note_on_c, 11, 75, 52
13, 188139, Note_on_c, 11, 75, 0
13, 188160, Note_on_c, 11, 74, 52
13, 188259, Note_on_c, 11, 74, 0
13, 188280, Note_on_c, 11, 79, 52
13, 188379, Note_on_c, 11, 79, 0
13, 188400, Note_on_c, 11, 79, 52
13, 188499, Note_on_c, 11, 79, 0
13, 188520, Note_on_c, 11, 77, 52
13, 188619, Note_on_c, 11, 77, 0
13, 188640, Note_on_c, 11, 75, 52
13, 188879, Note_on_c, 11, 75, 0
13, 189120, Note_on_c, 11, 56, 68
13, 189120, Note_on_c, 11, 72, 68
13, 189120, Note_on_c, 11, 66, 68
13, 189359, Note_on_c, 11, 56, 0
13, 189359, Note_on_c, 11, 72, 0
13, 189359, Note_on_c, 11, 66, 0
13, 189600, Note_on_c, 11, 62, 84
13, 189600, Note_on_c, 11, 79, 84
13, 189600, Note_on_c, 11, 71, 84
13, 189600, Note_on_c, 11, 55, 84
13, 189839, Note_on_c, 11, 62, 0
13, 189839, Note_on_c, 11, 79, 0
13, 189839, Note_on_c, 11, 71, 0
13, 189839, Note_on_c, 11, 55, 0
13, 192120, Note_on_c, 11, 68, 52
13, 192219, Note_on_c, 11, 68, 0
13, 192240, Note_on_c, 11, 68, 52
13, 192339, Note_on_c, 11, 68, 0
13, 192360, Note_on_c, 11, 68, 52
13, 192459, Note_on_c, 11, 68, 0
13, 192480, Note_on_c, 11, 65, 52
13, 193899, Note_on_c, 11, 65, 0
13, 193920, Note_on_c, 11, 63, 52
13, 194019, Note_on_c, 11, 63, 0
13, 194040, Note_on_c, 11, 68, 52
13, 194139, Note_on_c, 11, 68, 0
13, 194160, Note_on_c, 11, 68, 53
13, 194259, Note_on_c, 11, 68, 0
13, 194280, Note_on_c, 11, 68, 55
13, 194379, Note_on_c, 11, 68, 0
13, 194400, Note_on_c, 11, 65, 56
13, 194499, Note_on_c, 11, 65, 0
13, 194520, Note_on_c, 11, 62, 58
13, 194619, Note_on_c, 11, 62, 0
13, 194640, Note_on_c, 11, 62, 60
13, 194739, Note_on_c, 11, 62, 0
13, 194760, Note_on_c, 11, 62, 61
13, 194859, Note_on_c, 11, 62, 0
13, 194880, Note_on_c, 11, 59, 63
13, 194979, Note_on_c, 11, 59, 0
13, 195000, Note_on_c, 11, 56, 64
13, 195099, Note_on_c, 11, 56, 0
13, 195120, Note_on_c, 11, 56, 66
13, 195219, Note_on_c, 11, 56, 0
13, 195240, Note_on_c, 11, 56, 68
13, 195339, Note_on_c, 11, 56, 0
13, 195360, Note_on_c, 11, 55, 69
13, 195459, Note_on_c, 11, 55, 0
13, 195480, Note_on_c, 11, 71, 71
13, 195579, Note_on_c, 11, 71, 0
13, 195600, Note_on_c, 11, 71, 72
13, 195699, Note_on_c, 11, 71, 0
13, 195720, Note_on_c, 11, 71, 74
13, 195819, Note_on_c, 11, 71, 0
13, 195840, Note_on_c, 11, 72, 76
13, 195939, Note_on_c, 11, 72, 0
13, 195960, Note_on_c, 11, 67, 76
13, 196059, Note_on_c, 11, 67, 0
13, 196080, Note_on_c, 11, 72, 76
13, 196179, Note_on_c, 11, 72, 0
13, 196200, Note_on_c, 11, 72, 76
13, 196299, Note_on_c, 11, 72, 0
13, 196320, Note_on_c, 11, 72, 76
13, 196779, Note_on_c, 11, 72, 0
13, 196800, Note_on_c, 11, 71, 76
13, 196899, Note_on_c, 11, 71, 0
13, 196920, Note_on_c, 11, 71, 76
13, 197019, Note_on_c, 11, 71, 0
13, 197040, Note_on_c, 11, 71, 76
13, 197139, Note_on_c, 11, 71, 0
13, 197160, Note_on_c, 11, 74, 76
13, 197259, Note_on_c, 11, 74, 0
13, 197280, Note_on_c, 11, 74, 76
13, 197739, Note_on_c, 11, 74, 0
13, 197760, Note_on_c, 11, 72, 76
13, 197859, Note_on_c, 11, 72, 0
13, 197880, Note_on_c, 11, 72, 76
13, 197979, Note_on_c, 11, 72, 0
13, 198000, Note_on_c, 11, 72, 76
13, 198099, Note_on_c, 11, 72, 0
13, 198120, Note_on_c, 11, 75, 76
13, 198219, Note_on_c, 11, 75, 0
13, 198240, Note_on_c, 11, 75, 84
13, 198359, Note_on_c, 11, 75, 0
13, 198360, Note_on_c, 11, 74, 76
13, 198459, Note_on_c, 11, 74, 0
13, 198480, Note_on_c, 11, 74, 76
13, 198569, Note_on_c, 11, 74, 0
13, 198600, Note_on_c, 11, 77, 76
13, 198689, Note_on_c, 11, 77, 0
13, 198720, Note_on_c, 11, 77, 84
13, 198839, Note_on_c, 11, 77, 0
13, 198840, Note_on_c, 11, 76, 76
13, 198939, Note_on_c, 11, 76, 0
13, 198960, Note_on_c, 11, 76, 76
13, 199049, Note_on_c, 11, 76, 0
13, 199080, Note_on_c, 11, 79, 76
13, 199169, Note_on_c, 11, 79, 0
13, 199200, Note_on_c, 11, 79, 84
13, 199319, Note_on_c, 11, 79, 0
13, 199320, Note_on_c, 11, 77, 76
13, 199419, Note_on_c, 11, 77, 0
13, 199440, Note_on_c, 11, 77, 76
13, 199529, Note_on_c, 11, 77, 0
13, 199560, Note_on_c, 11, 80, 76
13, 199649, Note_on_c, 11, 80, 0
13, 199680, Note_on_c, 11, 80, 84
13, 199799, Note_on_c, 11, 80, 0
13, 199800, Note_on_c, 11, 79, 76
13, 199899, Note_on_c, 11, 79, 0
13, 199920, Note_on_c, 11, 79, 76
13, 200009, Note_on_c, 11, 79, 0
13, 200040, Note_on_c, 11, 82, 76
13, 200129, Note_on_c, 11, 82, 0
13, 200160, Note_on_c, 11, 82, 84
13, 200279, Note_on_c, 11, 82, 0
13, 200280, Note_on_c, 11, 80, 76
13, 200379, Note_on_c, 11, 80, 0
13, 200400, Note_on_c, 11, 80, 76
13, 200489, Note_on_c, 11, 80, 0
13, 200520, Note_on_c, 11, 84, 76
13, 200609, Note_on_c, 11, 84, 0
13, 200640, Note_on_c, 11, 84, 84
13, 200759, Note_on_c, 11, 84, 0
13, 200760, Note_on_c, 11, 83, 76
13, 200859, Note_on_c, 11, 83, 0
13, 200880, Note_on_c, 11, 83, 76
13, 200969, Note_on_c, 11, 83, 0
13, 201000, Note_on_c, 11, 86, 76
13, 201089, Note_on_c, 11, 86, 0
13, 201120, Note_on_c, 11, 84, 76
13, 201219, Note_on_c, 11, 84, 0
13, 201240, Note_on_c, 11, 87, 76
13, 201339, Note_on_c, 11, 87, 0
13, 201360, Note_on_c, 11, 87, 76
13, 201459, Note_on_c, 11, 87, 0
13, 201480, Note_on_c, 11, 87, 76
13, 201579, Note_on_c, 11, 87, 0
13, 201600, Note_on_c, 11, 84, 76
13, 201699, Note_on_c, 11, 84, 0
13, 201720, Note_on_c, 11, 79, 76
13, 201819, Note_on_c, 11, 79, 0
13, 201840, Note_on_c, 11, 79, 76
13, 201939, Note_on_c, 11, 79, 0
13, 201960, Note_on_c, 11, 79, 76
13, 202059, Note_on_c, 11, 79, 0
13, 202080, Note_on_c, 11, 75, 76
13, 202179, Note_on_c, 11, 75, 0
13, 202200, Note_on_c, 11, 72, 76
13, 202299, Note_on_c, 11, 72, 0
13, 202320, Note_on_c, 11, 67, 76
13, 202419, Note_on_c, 11, 67, 0
13, 202440, Note_on_c, 11, 67, 76
13, 202539, Note_on_c, 11, 67, 0
13, 202560, Note_on_c, 11, 63, 76
13, 202659, Note_on_c, 11, 63, 0
13, 202680, Note_on_c, 11, 60, 76
13, 202779, Note_on_c, 11, 60, 0
13, 202800, Note_on_c, 11, 60, 76
13, 202899, Note_on_c, 11, 60, 0
13, 202920, Note_on_c, 11, 60, 76
13, 203019, Note_on_c, 11, 60, 0
13, 203040, Note_on_c, 11, 59, 76
13, 203139, Note_on_c, 11, 59, 0
13, 203160, Note_on_c, 11, 89, 76
13, 203259, Note_on_c, 11, 89, 0
13, 203280, Note_on_c, 11, 86, 76
13, 203379, Note_on_c, 11, 86, 0
13, 203400, Note_on_c, 11, 86, 76
13, 203499, Note_on_c, 11, 86, 0
13, 203520, Note_on_c, 11, 83, 76
13, 203619, Note_on_c, 11, 83, 0
13, 203640, Note_on_c, 11, 79, 76
13, 203739, Note_on_c, 11, 79, 0
13, 203760, Note_on_c, 11, 77, 76
13, 203859, Note_on_c, 11, 77, 0
13, 203880, Note_on_c, 11, 77, 76
13, 203979, Note_on_c, 11, 77, 0
13, 204000, Note_on_c, 11, 74, 76
13, 204099, Note_on_c, 11, 74, 0
13, 204120, Note_on_c, 11, 71, 76
13, 204219, Note_on_c, 11, 71, 0
13, 204240, Note_on_c, 11, 67, 76
13, 204339, Note_on_c, 11, 67, 0
13, 204360, Note_on_c, 11, 65, 76
13, 204459, Note_on_c, 11, 65, 0
13, 204480, Note_on_c, 11, 62, 76
13, 204579, Note_on_c, 11, 62, 0
13, 204600, Note_on_c, 11, 59, 76
13, 204699, Note_on_c, 11, 59, 0
13, 204720, Note_on_c, 11, 60, 76
13, 204819, Note_on_c, 11, 60, 0
13, 204840, Note_on_c, 11, 60, 76
13, 204939, Note_on_c, 11, 60, 0
13, 204960, Note_on_c, 11, 60, 84
13, 205059, Note_on_c, 11, 60, 0
13, 205080, Note_on_c, 11, 87, 84
13, 205179, Note_on_c, 11, 87, 0
13, 205200, Note_on_c, 11, 87, 84
13, 205299, Note_on_c, 11, 87, 0
13, 205320, Note_on_c, 11, 87, 84
13, 205419, Note_on_c, 11, 87, 0
13, 205440, Note_on_c, 11, 84, 84
13, 205539, Note_on_c, 11, 84, 0
13, 205560, Note_on_c, 11, 81, 84
13, 205659, Note_on_c, 11, 81, 0
13, 205680, Note_on_c, 11, 81, 84
13, 205779, Note_on_c, 11, 81, 0
13, 205800, Note_on_c, 11, 81, 84
13, 205899, Note_on_c, 11, 81, 0
13, 205920, Note_on_c, 11, 78, 84
13, 206019, Note_on_c, 11, 78, 0
13, 206040, Note_on_c, 11, 75, 84
13, 206139, Note_on_c, 11, 75, 0
13, 206160, Note_on_c, 11, 75, 84
13, 206259, Note_on_c, 11, 75, 0
13, 206280, Note_on_c, 11, 75, 84
13, 206379, Note_on_c, 11, 75, 0
13, 206400, Note_on_c, 11, 72, 84
13, 206499, Note_on_c, 11, 72, 0
13, 206520, Note_on_c, 11, 69, 84
13, 206619, Note_on_c, 11, 69, 0
13, 206640, Note_on_c, 11, 69, 84
13, 206739, Note_on_c, 11, 69, 0
13, 206760, Note_on_c, 11, 69, 84
13, 206859, Note_on_c, 11, 69, 0
13, 206880, Note_on_c, 11, 66, 84
13, 207119, Note_on_c, 11, 66, 0
13, 207840, Note_on_c, 11, 55, 84
13, 207840, Note_on_c, 11, 67, 84
13, 208079, Note_on_c, 11, 55, 0
13, 208079, Note_on_c, 11, 67, 0
13, 210240, Note_on_c, 11, 67, 48
13, 210479, Note_on_c, 11, 67, 0
13, 210480, Note_on_c, 11, 72, 48
13, 210719, Note_on_c, 11, 72, 0
13, 210720, Note_on_c, 11, 71, 48
13, 210959, Note_on_c, 11, 71, 0
13, 210960, Note_on_c, 11, 72, 48
13, 211199, Note_on_c, 11, 72, 0
13, 211200, Note_on_c, 11, 74, 48
13, 211439, Note_on_c, 11, 74, 0
13, 211440, Note_on_c, 11, 69, 48
13, 211659, Note_on_c, 11, 69, 0
13, 211680, Note_on_c, 11, 69, 48
13, 211919, Note_on_c, 11, 69, 0
13, 211920, Note_on_c, 11, 67, 48
13, 212159, Note_on_c, 11, 67, 0
13, 214080, Note_on_c, 11, 67, 48
13, 214319, Note_on_c, 11, 67, 0
13, 214320, Note_on_c, 11, 72, 48
13, 214559, Note_on_c, 11, 72, 0
13, 214560, Note_on_c, 11, 71, 48
13, 214799, Note_on_c, 11, 71, 0
13, 214800, Note_on_c, 11, 72, 48
13, 215039, Note_on_c, 11, 72, 0
13, 215040, Note_on_c, 11, 74, 48
13, 215279, Note_on_c, 11, 74, 0
13, 215280, Note_on_c, 11, 69, 48
13, 215499, Note_on_c, 11, 69, 0
13, 215520, Note_on_c, 11, 69, 48
13, 215759, Note_on_c, 11, 69, 0
13, 215760, Note_on_c, 11, 67, 48
13, 215999, Note_on_c, 11, 67, 0
13, 217920, Note_on_c, 11, 70, 52
13, 218159, Note_on_c, 11, 70, 0
13, 218160, Note_on_c, 11, 72, 52
13, 218399, Note_on_c, 11, 72, 0
13, 218400, Note_on_c, 11, 73, 52
13, 218639, Note_on_c, 11, 73, 0
13, 218640, Note_on_c, 11, 72, 52
13, 218879, Note_on_c, 11, 72, 0
13, 219840, Note_on_c, 11, 72, 52
13, 220079, Note_on_c, 11, 72, 0
13, 220080, Note_on_c, 11, 74, 52
13, 220319, Note_on_c, 11, 74, 0
13, 220320, Note_on_c, 11, 75, 52
13, 220559, Note_on_c, 11, 75, 0
13, 220560, Note_on_c, 11, 74, 52
13, 220799, Note_on_c, 11, 74, 0
13, 221280, Control_c, 11, 11, 64
13, 221760, Note_on_c, 11, 77, 84
13, 221999, Note_on_c, 11, 77, 0
13, 222000, Note_on_c, 11, 79, 84
13, 222239, Note_on_c, 11, 79, 0
13, 222240, Note_on_c, 11, 80, 84
13, 222240, Control_c, 11, 11, 64
13, 222347, Control_c, 11, 11, 65
13, 222453, Control_c, 11, 11, 66
13, 222479, Note_on_c, 11, 80, 0
13, 222480, Note_on_c, 11, 79, 84
13, 222560, Control_c, 11, 11, 67
13, 222667, Control_c, 11, 11, 68
13, 222719, Note_on_c, 11, 79, 0
13, 222720, Note_on_c, 11, 77, 84
13, 222773, Control_c, 11, 11, 69
13, 222880, Control_c, 11, 11, 70
13, 222959, Note_on_c, 11, 77, 0
13, 222960, Note_on_c, 11, 79, 84
13, 222987, Control_c, 11, 11, 71
13, 223093, Control_c, 11, 11, 72
13, 223179, Note_on_c, 11, 79, 0
13, 223200, Note_on_c, 11, 80, 84
13, 223200, Control_c, 11, 11, 73
13, 223307, Control_c, 11, 11, 74
13, 223413, Control_c, 11, 11, 75
13, 223439, Note_on_c, 11, 80, 0
13, 223440, Note_on_c, 11, 79, 84
13, 223520, Control_c, 11, 11, 76
13, 223627, Control_c, 11, 11, 77
13, 223679, Note_on_c, 11, 79, 0
13, 223680, Note_on_c, 11, 77, 84
13, 223733, Control_c, 11, 11, 78
13, 223840, Control_c, 11, 11, 79
13, 223919, Note_on_c, 11, 77, 0
13, 223920, Note_on_c, 11, 79, 84
13, 223947, Control_c, 11, 11, 80
13, 224053, Control_c, 11, 11, 81
13, 224139, Note_on_c, 11, 79, 0
13, 224160, Note_on_c, 11, 80, 84
13, 224160, Control_c, 11, 11, 82
13, 224267, Control_c, 11, 11, 83
13, 224373, Control_c, 11, 11, 84
13, 224399, Note_on_c, 11, 80, 0
13, 224400, Note_on_c, 11, 79, 84
13, 224480, Control_c, 11, 11, 85
13, 224587, Control_c, 11, 11, 86
13, 224639, Note_on_c, 11, 79, 0
13, 224640, Note_on_c, 11, 77, 84
13, 224693, Control_c, 11, 11, 87
13, 224800, Control_c, 11, 11, 88
13, 224879, Note_on_c, 11, 77, 0
13, 224880, Note_on_c, 11, 79, 84
13, 224907, Control_c, 11, 11, 89
13, 225013, Control_c, 11, 11, 90
13, 225099, Note_on_c, 11, 79, 0
13, 225120, Control_c, 11, 11, 91
13, 225120, Note_on_c, 11, 80, 84
13, 225227, Control_c, 11, 11, 92
13, 225333, Control_c, 11, 11, 93
13, 225359, Note_on_c, 11, 80, 0
13, 225360, Note_on_c, 11, 79, 84
13, 225440, Control_c, 11, 11, 94
13, 225547, Control_c, 11, 11, 95
13, 225599, Note_on_c, 11, 79, 0
13, 225600, Note_on_c, 11, 78, 84
13, 225653, Control_c, 11, 11, 96
13, 225760, Control_c, 11, 11, 97
13, 225839, Note_on_c, 11, 78, 0
13, 225840, Note_on_c, 11, 79, 84
13, 225867, Control_c, 11, 11, 98
13, 225973, Control_c, 11, 11, 99
13, 226059, Note_on_c, 11, 79, 0
13, 226080, Note_on_c, 11, 81, 84
13, 226080, Control_c, 11, 11, 100
13, 226187, Control_c, 11, 11, 101
13, 226293, Control_c, 11, 11, 102
13, 226319, Note_on_c, 11, 81, 0
13, 226320, Note_on_c, 11, 79, 84
13, 226400, Control_c, 11, 11, 103
13, 226507, Control_c, 11, 11, 104
13, 226559, Note_on_c, 11, 79, 0
13, 226560, Note_on_c, 11, 78, 84
13, 226613, Control_c, 11, 11, 105
13, 226720, Control_c, 11, 11, 106
13, 226799, Note_on_c, 11, 78, 0
13, 226800, Note_on_c, 11, 79, 84
13, 226827, Control_c, 11, 11, 107
13, 226933, Control_c, 11, 11, 108
13, 227019, Note_on_c, 11, 79, 0
13, 227040, Note_on_c, 11, 81, 84
13, 227040, Control_c, 11, 11, 109
13, 227147, Control_c, 11, 11, 110
13, 227253, Control_c, 11, 11, 111
13, 227279, Note_on_c, 11, 81, 0
13, 227280, Note_on_c, 11, 79, 84
13, 227360, Control_c, 11, 11, 112
13, 227467, Control_c, 11, 11, 113
13, 227519, Note_on_c, 11, 79, 0
13, 227520, Note_on_c, 11, 78, 84
13, 227573, Control_c, 11, 11, 114
13, 227680, Control_c, 11, 11, 115
13, 227759, Note_on_c, 11, 78, 0
13, 227760, Note_on_c, 11, 79, 84
13, 227787, Control_c, 11, 11, 116
13, 227893, Control_c, 11, 11, 117
13, 227999, Note_on_c, 11, 79, 0
13, 228000, Note_on_c, 11, 78, 84
13, 228000, Control_c, 11, 11, 118
13, 228107, Control_c, 11, 11, 119
13, 228213, Control_c, 11, 11, 120
13, 228239, Note_on_c, 11, 78, 0
13, 228240, Note_on_c, 11, 79, 84
13, 228320, Control_c, 11, 11, 121
13, 228427, Control_c, 11, 11, 122
13, 228479, Note_on_c, 11, 79, 0
13, 228480, Note_on_c, 11, 78, 84
13, 228533, Control_c, 11, 11, 123
13, 228640, Control_c, 11, 11, 124
13, 228719, Note_on_c, 11, 78, 0
13, 228720, Note_on_c, 11, 79, 84
13, 228747, Control_c, 11, 11, 125
13, 228853, Control_c, 11, 11, 127
13, 228939, Note_on_c, 11, 79, 0
13, 228960, Note_on_c, 11, 79, 84
13, 229539, Note_on_c, 11, 79, 0
13, 229560, Note_on_c, 11, 81, 84
13, 229649, Note_on_c, 11, 81, 0
13, 229680, Note_on_c, 11, 79, 84
13, 229769, Note_on_c, 11, 79, 0
13, 229800, Note_on_c, 11, 77, 84
13, 229889, Note_on_c, 11, 77, 0
13, 229920, Note_on_c, 11, 77, 84
13, 230039, Note_on_c, 11, 77, 0
13, 230040, Note_on_c, 11, 76, 84
13, 230139, Note_on_c, 11, 76, 0
13, 230160, Note_on_c, 11, 74, 84
13, 230249, Note_on_c, 11, 74, 0
13, 230280, Note_on_c, 11, 72, 84
13, 230369, Note_on_c, 11, 72, 0
13, 230400, Note_on_c, 11, 72, 84
13, 230519, Note_on_c, 11, 72, 0
13, 230520, Note_on_c, 11, 71, 84
13, 230619, Note_on_c, 11, 71, 0
13, 230640, Note_on_c, 11, 69, 84
13, 230729, Note_on_c, 11, 69, 0
13, 230760, Note_on_c, 11, 71, 84
13, 230849, Note_on_c, 11, 71, 0
13, 230880, Note_on_c, 11, 74, 84
13, 230999, Note_on_c, 11, 74, 0
13, 231000, Note_on_c, 11, 72, 84
13, 231099, Note_on_c, 11, 72, 0
13, 231120, Note_on_c, 11, 67, 84
13, 231209, Note_on_c, 11, 67, 0
13, 231240, Note_on_c, 11, 64, 84
13, 231329, Note_on_c, 11, 64, 0
13, 231360, Note_on_c, 11, 71, 84
13, 231479, Note_on_c, 11, 71, 0
13, 231480, Note_on_c, 11, 69, 84
13, 231579, Note_on_c, 11, 69, 0
13, 231600, Note_on_c, 11, 65, 84
13, 231689, Note_on_c, 11, 65, 0
13, 231720, Note_on_c, 11, 62, 84
13, 231809, Note_on_c, 11, 62, 0
13, 231840, Note_on_c, 11, 69, 84
13, 231959, Note_on_c, 11, 69, 0
13, 231960, Note_on_c, 11, 67, 84
13, 232059, Note_on_c, 11, 67, 0
13, 232080, Note_on_c, 11, 64, 84
13, 232169, Note_on_c, 11, 64, 0
13, 232200, Note_on_c, 11, 60, 84
13, 232289, Note_on_c, 11, 60, 0
13, 232320, Note_on_c, 11, 55, 84
13, 232409, Note_on_c, 11, 55, 0
13, 232440, Note_on_c, 11, 78, 84
13, 232559, Note_on_c, 11, 78, 0
13, 232560, Note_on_c, 11, 79, 84
13, 232679, Note_on_c, 11, 79, 0
13, 232680, Note_on_c, 11, 78, 84
13, 232799, Note_on_c, 11, 78, 0
13, 232800, Note_on_c, 11, 79, 84
13, 232919, Note_on_c, 11, 79, 0
13, 232920, Note_on_c, 11, 78, 84
13, 233039, Note_on_c, 11, 78, 0
13, 233040, Note_on_c, 11, 79, 84
13, 233159, Note_on_c, 11, 79, 0
13, 233160, Note_on_c, 11, 78, 84
13, 233259, Note_on_c, 11, 78, 0
13, 233280, Note_on_c, 11, 79, 84
13, 233369, Note_on_c, 11, 79, 0
13, 233400, Note_on_c, 11, 81, 84
13, 233489, Note_on_c, 11, 81, 0
13, 233520, Note_on_c, 11, 79, 84
13, 233609, Note_on_c, 11, 79, 0
13, 233640, Note_on_c, 11, 77, 84
13, 233729, Note_on_c, 11, 77, 0
13, 233760, Note_on_c, 11, 77, 84
13, 233879, Note_on_c, 11, 77, 0
13, 233880, Note_on_c, 11, 76, 84
13, 233979, Note_on_c, 11, 76, 0
13, 234000, Note_on_c, 11, 74, 84
13, 234089, Note_on_c, 11, 74, 0
13, 234120, Note_on_c, 11, 72, 84
13, 234209, Note_on_c, 11, 72, 0
13, 234240, Note_on_c, 11, 72, 84
13, 234359, Note_on_c, 11, 72, 0
13, 234360, Note_on_c, 11, 71, 84
13, 234459, Note_on_c, 11, 71, 0
13, 234480, Note_on_c, 11, 69, 84
13, 234569, Note_on_c, 11, 69, 0
13, 234600, Note_on_c, 11, 71, 84
13, 234689, Note_on_c, 11, 71, 0
13, 234720, Note_on_c, 11, 74, 84
13, 234839, Note_on_c, 11, 74, 0
13, 234840, Note_on_c, 11, 72, 84
13, 234939, Note_on_c, 11, 72, 0
13, 234960, Note_on_c, 11, 67, 84
13, 235049, Note_on_c, 11, 67, 0
13, 235080, Note_on_c, 11, 64, 84
13, 235169, Note_on_c, 11, 64, 0
13, 235200, Note_on_c, 11, 71, 84
13, 235319, Note_on_c, 11, 71, 0
13, 235320, Note_on_c, 11, 69, 84
13, 235419, Note_on_c, 11, 69, 0
13, 235440, Note_on_c, 11, 65, 84
13, 235529, Note_on_c, 11, 65, 0
13, 235560, Note_on_c, 11, 62, 84
13, 235649, Note_on_c, 11, 62, 0
13, 235680, Note_on_c, 11, 69, 84
13, 235799, Note_on_c, 11, 69, 0
13, 235800, Note_on_c, 11, 67, 84
13, 235899, Note_on_c, 11, 67, 0
13, 235920, Note_on_c, 11, 64, 84
13, 236009, Note_on_c, 11, 64, 0
13, 236040, Note_on_c, 11, 60, 84
13, 236129, Note_on_c, 11, 60, 0
13, 236160, Note_on_c, 11, 55, 84
13, 236259, Note_on_c, 11, 55, 0
13, 236280, Note_on_c, 11, 67, 84
13, 236379, Note_on_c, 11, 67, 0
13, 236400, Note_on_c, 11, 79, 84
13, 236499, Note_on_c, 11, 79, 0
13, 236520, Note_on_c, 11, 79, 84
13, 236619, Note_on_c, 11, 79, 0
13, 236640, Note_on_c, 11, 72, 84
13, 237599, Note_on_c, 11, 72, 0
13, 237600, Note_on_c, 11, 72, 84
13, 238179, Note_on_c, 11, 72, 0
13, 238200, Note_on_c, 11, 74, 84
13, 238299, Note_on_c, 11, 74, 0
13, 238320, Note_on_c, 11, 74, 84
13, 238419, Note_on_c, 11, 74, 0
13, 238440, Note_on_c, 11, 74, 84
13, 238539, Note_on_c, 11, 74, 0
13, 238560, Note_on_c, 11, 76, 84
13, 239519, Note_on_c, 11, 76, 0
13, 239520, Note_on_c, 11, 76, 84
13, 240099, Note_on_c, 11, 76, 0
13, 240120, Note_on_c, 11, 79, 84
13, 240219, Note_on_c, 11, 79, 0
13, 240240, Note_on_c, 11, 79, 84
13, 240339, Note_on_c, 11, 79, 0
13, 240360, Note_on_c, 11, 79, 84
13, 240459, Note_on_c, 11, 79, 0
13, 240480, Note_on_c, 11, 79, 84
13, 240719, Note_on_c, 11, 79, 0
13, 241080, Note_on_c, 11, 79, 84
13, 241179, Note_on_c, 11, 79, 0
13, 241200, Note_on_c, 11, 79, 84
13, 241299, Note_on_c, 11, 79, 0
13, 241320, Note_on_c, 11, 79, 84
13, 241419, Note_on_c, 11, 79, 0
13, 241440, Note_on_c, 11, 79, 84
13, 241679, Note_on_c, 11, 79, 0
13, 242040, Note_on_c, 11, 74, 84
13, 242040, Note_on_c, 11, 83, 84
13, 242139, Note_on_c, 11, 74, 0
13, 242139, Note_on_c, 11, 83, 0
13, 242160, Note_on_c, 11, 74, 84
13, 242160, Note_on_c, 11, 83, 84
13, 242259, Note_on_c, 11, 74, 0
13, 242259, Note_on_c, 11, 83, 0
13, 242280, Note_on_c, 11, 83, 84
13, 242280, Note_on_c, 11, 74, 84
13, 242379, Note_on_c, 11, 83, 0
13, 242379, Note_on_c, 11, 74, 0
13, 242400, Note_on_c, 11, 84, 92
13, 242519, Note_on_c, 11, 84, 0
13, 242520, Note_on_c, 11, 84, 84
13, 242879, Note_on_c, 11, 84, 0
13, 242880, Note_on_c, 11, 84, 84
13, 242979, Note_on_c, 11, 84, 0
13, 243000, Note_on_c, 11, 84, 84
13, 243099, Note_on_c, 11, 84, 0
13, 243120, Note_on_c, 11, 84, 84
13, 243219, Note_on_c, 11, 84, 0
13, 243240, Note_on_c, 11, 84, 84
13, 243339, Note_on_c, 11, 84, 0
13, 243360, Note_on_c, 11, 84, 92
13, 243479, Note_on_c, 11, 84, 0
13, 243480, Note_on_c, 11, 84, 84
13, 243839, Note_on_c, 11, 84, 0
13, 243840, Note_on_c, 11, 84, 84
13, 243939, Note_on_c, 11, 84, 0
13, 243960, Note_on_c, 11, 84, 84
13, 244059, Note_on_c, 11, 84, 0
13, 244080, Note_on_c, 11, 84, 84
13, 244179, Note_on_c, 11, 84, 0
13, 244200, Note_on_c, 11, 84, 84
13, 244299, Note_on_c, 11, 84, 0
13, 244320, Note_on_c, 11, 84, 92
13, 244439, Note_on_c, 11, 84, 0
13, 244440, Note_on_c, 11, 84, 84
13, 244799, Note_on_c, 11, 84, 0
13, 244800, Note_on_c, 11, 84, 84
13, 244899, Note_on_c, 11, 84, 0
13, 244920, Note_on_c, 11, 84, 84
13, 245019, Note_on_c, 11, 84, 0
13, 245040, Note_on_c, 11, 84, 84
13, 245139, Note_on_c, 11, 84, 0
13, 245160, Note_on_c, 11, 84, 84
13, 245259, Note_on_c, 11, 84, 0
13, 245280, Note_on_c, 11, 84, 92
13, 245399, Note_on_c, 11, 84, 0
13, 245400, Note_on_c, 11, 84, 84
13, 245759, Note_on_c, 11, 84, 0
13, 245760, Note_on_c, 11, 84, 84
13, 245859, Note_on_c, 11, 84, 0
13, 245880, Note_on_c, 11, 84, 84
13, 245979, Note_on_c, 11, 84, 0
13, 246000, Note_on_c, 11, 84, 84
13, 246099, Note_on_c, 11, 84, 0
13, 246120, Note_on_c, 11, 84, 84
13, 246219, Note_on_c, 11, 84, 0
13, 246240, Note_on_c, 11, 85, 84
13, 246339, Note_on_c, 11, 85, 0
13, 246360, Note_on_c, 11, 85, 84
13, 246459, Note_on_c, 11, 85, 0
13, 246480, Note_on_c, 11, 85, 84
13, 246579, Note_on_c, 11, 85, 0
13, 246600, Note_on_c, 11, 85, 84
13, 246699, Note_on_c, 11, 85, 0
13, 246720, Note_on_c, 11, 85, 84
13, 246819, Note_on_c, 11, 85, 0
13, 246840, Note_on_c, 11, 85, 84
13, 246939, Note_on_c, 11, 85, 0
13, 246960, Note_on_c, 11, 85, 84
13, 247059, Note_on_c, 11, 85, 0
13, 247080, Note_on_c, 11, 85, 84
13, 247179, Note_on_c, 11, 85, 0
13, 247200, Note_on_c, 11, 85, 84
13, 247299, Note_on_c, 11, 85, 0
13, 247320, Note_on_c, 11, 85, 84
13, 247419, Note_on_c, 11, 85, 0
13, 247440, Note_on_c, 11, 85, 84
13, 247539, Note_on_c, 11, 85, 0
13, 247560, Note_on_c, 11, 85, 84
13, 247659, Note_on_c, 11, 85, 0
13, 247680, Note_on_c, 11, 85, 84
13, 247779, Note_on_c, 11, 85, 0
13, 247800, Note_on_c, 11, 85, 84
13, 247899, Note_on_c, 11, 85, 0
13, 247920, Note_on_c, 11, 85, 84
13, 248019, Note_on_c, 11, 85, 0
13, 248040, Note_on_c, 11, 85, 84
13, 248139, Note_on_c, 11, 85, 0
13, 248160, Note_on_c, 11, 85, 84
13, 248399, Note_on_c, 11, 85, 0
13, 250200, Note_on_c, 11, 75, 84
13, 250200, Note_on_c, 11, 87, 84
13, 250299, Note_on_c, 11, 75, 0
13, 250299, Note_on_c, 11, 87, 0
13, 250320, Note_on_c, 11, 75, 84
13, 250320, Note_on_c, 11, 87, 84
13, 250419, Note_on_c, 11, 75, 0
13, 250419, Note_on_c, 11, 87, 0
13, 250440, Note_on_c, 11, 87, 84
13, 250440, Note_on_c, 11, 75, 84
13, 250539, Note_on_c, 11, 87, 0
13, 250539, Note_on_c, 11, 75, 0
13, 250560, Note_on_c, 11, 75, 84
13, 250560, Note_on_c, 11, 87, 84
13, 250659, Note_on_c, 11, 75, 0
13, 250659, Note_on_c, 11, 87, 0
13, 250680, Note_on_c, 11, 87, 84
13, 250680, Note_on_c, 11, 75, 84
13, 250779, Note_on_c, 11, 87, 0
13, 250779, Note_on_c, 11, 75, 0
13, 250800, Note_on_c, 11, 87, 84
13, 250800, Note_on_c, 11, 75, 84
13, 250899, Note_on_c, 11, 87, 0
13, 250899, Note_on_c, 11, 75, 0
13, 250920, Note_on_c, 11, 87, 84
13, 250920, Note_on_c, 11, 75, 84
13, 251019, Note_on_c, 11, 87, 0
13, 251019, Note_on_c, 11, 75, 0
13, 251040, Note_on_c, 11, 87, 84
13, 251040, Note_on_c, 11, 75, 84
13, 251139, Note_on_c, 11, 87, 0
13, 251139, Note_on_c, 11, 75, 0
13, 251160, Note_on_c, 11, 75, 84
13, 251160, Note_on_c, 11, 87, 84
13, 251259, Note_on_c, 11, 75, 0
13, 251259, Note_on_c, 11, 87, 0
13, 251280, Note_on_c, 11, 75, 84
13, 251280, Note_on_c, 11, 87, 84
13, 251379, Note_on_c, 11, 75, 0
13, 251379, Note_on_c, 11, 87, 0
13, 251400, Note_on_c, 11, 75, 84
13, 251400, Note_on_c, 11, 87, 84
13, 251499, Note_on_c, 11, 75, 0
13, 251499, Note_on_c, 11, 87, 0
13, 251520, Note_on_c, 11, 87, 84
13, 251520, Note_on_c, 11, 75, 84
13, 251619, Note_on_c, 11, 87, 0
13, 251619, Note_on_c, 11, 75, 0
13, 251640, Note_on_c, 11, 75, 84
13, 251640, Note_on_c, 11, 87, 84
13, 251739, Note_on_c, 11, 75, 0
13, 251739, Note_on_c, 11, 87, 0
13, 251760, Note_on_c, 11, 87, 84
13, 251760, Note_on_c, 11, 75, 84
13, 251859, Note_on_c, 11, 87, 0
13, 251859, Note_on_c, 11, 75, 0
13, 251880, Note_on_c, 11, 75, 84
13, 251880, Note_on_c, 11, 87, 84
13, 251979, Note_on_c, 11, 75, 0
13, 251979, Note_on_c, 11, 87, 0
13, 252000, Note_on_c, 11, 75, 84
13, 252000, Note_on_c, 11, 87, 84
13, 252099, Note_on_c, 11, 75, 0
13, 252099, Note_on_c, 11, 87, 0
13, 252120, Note_on_c, 11, 87, 84
13, 252120, Note_on_c, 11, 75, 84
13, 252219, Note_on_c, 11, 87, 0
13, 252219, Note_on_c, 11, 75, 0
13, 252240, Note_on_c, 11, 75, 84
13, 252240, Note_on_c, 11, 87, 84
13, 252339, Note_on_c, 11, 75, 0
13, 252339, Note_on_c, 11, 87, 0
13, 252360, Note_on_c, 11, 75, 84
13, 252360, Note_on_c, 11, 87, 84
13, 252459, Note_on_c, 11, 75, 0
13, 252459, Note_on_c, 11, 87, 0
13, 252480, Note_on_c, 11, 87, 84
13, 252480, Note_on_c, 11, 75, 84
13, 252719, Note_on_c, 11, 87, 0
13, 252719, Note_on_c, 11, 75, 0
13, 254880, Note_on_c, 11, 71, 76
13, 254999, Note_on_c, 11, 71, 0
13, 255000, Note_on_c, 11, 72, 76
13, 255119, Note_on_c, 11, 72, 0
13, 255120, Note_on_c, 11, 74, 76
13, 255239, Note_on_c, 11, 74, 0
13, 255240, Note_on_c, 11, 75, 76
13, 255359, Note_on_c, 11, 75, 0
13, 255360, Note_on_c, 11, 77, 76
13, 255479, Note_on_c, 11, 77, 0
13, 255480, Note_on_c, 11, 79, 76
13, 255599, Note_on_c, 11, 79, 0
13, 255600, Note_on_c, 11, 80, 76
13, 255719, Note_on_c, 11, 80, 0
13, 255720, Note_on_c, 11, 79, 76
13, 255839, Note_on_c, 11, 79, 0
13, 255840, Note_on_c, 11, 80, 76
13, 255959, Note_on_c, 11, 80, 0
13, 255960, Note_on_c, 11, 79, 76
13, 256079, Note_on_c, 11, 79, 0
13, 256080, Note_on_c, 11, 80, 76
13, 256199, Note_on_c, 11, 80, 0
13, 256200, Note_on_c, 11, 79, 76
13, 256319, Note_on_c, 11, 79, 0
13, 256800, Note_on_c, 11, 71, 76
13, 256919, Note_on_c, 11, 71, 0
13, 256920, Note_on_c, 11, 72, 76
13, 257039, Note_on_c, 11, 72, 0
13, 257040, Note_on_c, 11, 74, 76
13, 257159, Note_on_c, 11, 74, 0
13, 257160, Note_on_c, 11, 75, 76
13, 257279, Note_on_c, 11, 75, 0
13, 257280, Note_on_c, 11, 77, 76
13, 257399, Note_on_c, 11, 77, 0
13, 257400, Note_on_c, 11, 79, 76
13, 257519, Note_on_c, 11, 79, 0
13, 257520, Note_on_c, 11, 80, 76
13, 257639, Note_on_c, 11, 80, 0
13, 257640, Note_on_c, 11, 79, 76
13, 257759, Note_on_c, 11, 79, 0
13, 257760, Note_on_c, 11, 80, 76
13, 257879, Note_on_c, 11, 80, 0
13, 257880, Note_on_c, 11, 79, 76
13, 257999, Note_on_c, 11, 79, 0
13, 258000, Note_on_c, 11, 80, 76
13, 258119, Note_on_c, 11, 80, 0
13, 258120, Note_on_c, 11, 79, 76
13, 258219, Note_on_c, 11, 79, 0
13, 258240, Note_on_c, 11, 80, 76
13, 258339, Note_on_c, 11, 80, 0
13, 258360, Note_on_c, 11, 79, 76
13, 258459, Note_on_c, 11, 79, 0
13, 258480, Note_on_c, 11, 82, 76
13, 258579, Note_on_c, 11, 82, 0
13, 258600, Note_on_c, 11, 80, 76
13, 258699, Note_on_c, 11, 80, 0
13, 258720, Note_on_c, 11, 79, 76
13, 258819, Note_on_c, 11, 79, 0
13, 258840, Note_on_c, 11, 77, 76
13, 258939, Note_on_c, 11, 77, 0
13, 258960, Note_on_c, 11, 80, 76
13, 259059, Note_on_c, 11, 80, 0
13, 259080, Note_on_c, 11, 79, 76
13, 259179, Note_on_c, 11, 79, 0
13, 259200, Note_on_c, 11, 77, 76
13, 259299, Note_on_c, 11, 77, 0
13, 259320, Note_on_c, 11, 75, 76
13, 259419, Note_on_c, 11, 75, 0
13, 259440, Note_on_c, 11, 79, 76
13, 259539, Note_on_c, 11, 79, 0
13, 259560, Note_on_c, 11, 77, 76
13, 259659, Note_on_c, 11, 77, 0
13, 259680, Note_on_c, 11, 75, 76
13, 259779, Note_on_c, 11, 75, 0
13, 259800, Note_on_c, 11, 74, 76
13, 259899, Note_on_c, 11, 74, 0
13, 259920, Note_on_c, 11, 77, 76
13, 260019, Note_on_c, 11, 77, 0
13, 260040, Note_on_c, 11, 75, 76
13, 260139, Note_on_c, 11, 75, 0
13, 260160, Note_on_c, 11, 74, 76
13, 260259, Note_on_c, 11, 74, 0
13, 260280, Note_on_c, 11, 72, 76
13, 260379, Note_on_c, 11, 72, 0
13, 260400, Note_on_c, 11, 75, 76
13, 260499, Note_on_c, 11, 75, 0
13, 260520, Note_on_c, 11, 74, 76
13, 260619, Note_on_c, 11, 74, 0
13, 260640, Note_on_c, 11, 72, 76
13, 260739, Note_on_c, 11, 72, 0
13, 260760, Note_on_c, 11, 70, 76
13, 260859, Note_on_c, 11, 70, 0
13, 260880, Note_on_c, 11, 74, 76
13, 260979, Note_on_c, 11, 74, 0
13, 261000, Note_on_c, 11, 72, 76
13, 261099, Note_on_c, 11, 72, 0
13, 261120, Note_on_c, 11, 70, 76
13, 261219, Note_on_c, 11, 70, 0
13, 261240, Note_on_c, 11, 68, 76
13, 261339, Note_on_c, 11, 68, 0
13, 261360, Note_on_c, 11, 72, 76
13, 261459, Note_on_c, 11, 72, 0
13, 261480, Note_on_c, 11, 70, 76
13, 261579, Note_on_c, 11, 70, 0
13, 261600, Note_on_c, 11, 68, 76
13, 261699, Note_on_c, 11, 68, 0
13, 261720, Note_on_c, 11, 67, 76
13, 261819, Note_on_c, 11, 67, 0
13, 261840, Note_on_c, 11, 70, 76
13, 261939, Note_on_c, 11, 70, 0
13, 261960, Note_on_c, 11, 68, 76
13, 262059, Note_on_c, 11, 68, 0
13, 262080, Note_on_c, 11, 65, 76
13, 262179, Note_on_c, 11, 65, 0
13, 262200, Note_on_c, 11, 67, 76
13, 262299, Note_on_c, 11, 67, 0
13, 262320, Note_on_c, 11, 63, 76
13, 262419, Note_on_c, 11, 63, 0
13, 262440, Note_on_c, 11, 67, 76
13, 262539, Note_on_c, 11, 67, 0
13, 262560, Note_on_c, 11, 62, 76
13, 262659, Note_on_c, 11, 62, 0
13, 262680, Note_on_c, 11, 67, 76
13, 262779, Note_on_c, 11, 67, 0
13, 262800, Note_on_c, 11, 63, 76
13, 262899, Note_on_c, 11, 63, 0
13, 262920, Note_on_c, 11, 67, 76
13, 263019, Note_on_c, 11, 67, 0
13, 263040, Note_on_c, 11, 65, 76
13, 263139, Note_on_c, 11, 65, 0
13, 263160, Note_on_c, 11, 67, 76
13, 263259, Note_on_c, 11, 67, 0
13, 263280, Note_on_c, 11, 63, 76
13, 263379, Note_on_c, 11, 63, 0
13, 263400, Note_on_c, 11, 67, 76
13, 263499, Note_on_c, 11, 67, 0
13, 263520, Note_on_c, 11, 65, 76
13, 263619, Note_on_c, 11, 65, 0
13, 263640, Note_on_c, 11, 67, 76
13, 263739, Note_on_c, 11, 67, 0
13, 263760, Note_on_c, 11, 67, 76
13, 263859, Note_on_c, 11, 67, 0
13, 263880, Note_on_c, 11, 72, 76
13, 263979, Note_on_c, 11, 72, 0
13, 264000, Note_on_c, 11, 68, 76
13, 264099, Note_on_c, 11, 68, 0
13, 264120, Note_on_c, 11, 72, 76
13, 264219, Note_on_c, 11, 72, 0
13, 264240, Note_on_c, 11, 67, 76
13, 264339, Note_on_c, 11, 67, 0
13, 264360, Note_on_c, 11, 72, 76
13, 264459, Note_on_c, 11, 72, 0
13, 264480, Note_on_c, 11, 68, 76
13, 264579, Note_on_c, 11, 68, 0
13, 264600, Note_on_c, 11, 72, 76
13, 264699, Note_on_c, 11, 72, 0
13, 264720, Note_on_c, 11, 71, 76
13, 264819, Note_on_c, 11, 71, 0
13, 264840, Note_on_c, 11, 77, 76
13, 264939, Note_on_c, 11, 77, 0
13, 264960, Note_on_c, 11, 72, 76
13, 265059, Note_on_c, 11, 72, 0
13, 265080, Note_on_c, 11, 77, 76
13, 265179, Note_on_c, 11, 77, 0
13, 265200, Note_on_c, 11, 71, 76
13, 265299, Note_on_c, 11, 71, 0
13, 265320, Note_on_c, 11, 77, 76
13, 265419, Note_on_c, 11, 77, 0
13, 265440, Note_on_c, 11, 72, 76
13, 265539, Note_on_c, 11, 72, 0
13, 265560, Note_on_c, 11, 77, 76
13, 265659, Note_on_c, 11, 77, 0
13, 265680, Note_on_c, 11, 74, 76
13, 265779, Note_on_c, 11, 74, 0
13, 265800, Note_on_c, 11, 79, 76
13, 265899, Note_on_c, 11, 79, 0
13, 265920, Note_on_c, 11, 75, 84
13, 266159, Note_on_c, 11, 75, 0
13, 266160, Note_on_c, 11, 72, 76
13, 266379, Note_on_c, 11, 72, 0
13, 266400, Note_on_c, 11, 74, 76
13, 266579, Note_on_c, 11, 74, 0
13, 266640, Note_on_c, 11, 75, 76
13, 266819, Note_on_c, 11, 75, 0
13, 266880, Note_on_c, 11, 77, 84
13, 267119, Note_on_c, 11, 77, 0
13, 267120, Note_on_c, 11, 74, 76
13, 267339, Note_on_c, 11, 74, 0
13, 267360, Note_on_c, 11, 75, 76
13, 267539, Note_on_c, 11, 75, 0
13, 267600, Note_on_c, 11, 77, 76
13, 267779, Note_on_c, 11, 77, 0
13, 267840, Note_on_c, 11, 79, 76
13, 268079, Note_on_c, 11, 79, 0
13, 268080, Note_on_c, 11, 75, 76
13, 268299, Note_on_c, 11, 75, 0
13, 268320, Note_on_c, 11, 77, 76
13, 268499, Note_on_c, 11, 77, 0
13, 268560, Note_on_c, 11, 79, 76
13, 268739, Note_on_c, 11, 79, 0
13, 268800, Note_on_c, 11, 80, 76
13, 269039, Note_on_c, 11, 80, 0
13, 269040, Note_on_c, 11, 77, 76
13, 269259, Note_on_c, 11, 77, 0
13, 269280, Note_on_c, 11, 79, 76
13, 269459, Note_on_c, 11, 79, 0
13, 269520, Note_on_c, 11, 81, 76
13, 269699, Note_on_c, 11, 81, 0
13, 269760, Note_on_c, 11, 83, 76
13, 269999, Note_on_c, 11, 83, 0
13, 270000, Note_on_c, 11, 79, 76
13, 270219, Note_on_c, 11, 79, 0
13, 270240, Note_on_c, 11, 81, 76
13, 270419, Note_on_c, 11, 81, 0
13, 270480, Note_on_c, 11, 83, 76
13, 270659, Note_on_c, 11, 83, 0
13, 270720, Note_on_c, 11, 84, 76
13, 270959, Note_on_c, 11, 84, 0
13, 270960, Note_on_c, 11, 79, 76
13, 271179, Note_on_c, 11, 79, 0
13, 271200, Note_on_c, 11, 80, 76
13, 271379, Note_on_c, 11, 80, 0
13, 271440, Note_on_c, 11, 75, 76
13, 271619, Note_on_c, 11, 75, 0
13, 271680, Note_on_c, 11, 77, 76
13, 271859, Note_on_c, 11, 77, 0
13, 271920, Note_on_c, 11, 74, 76
13, 272099, Note_on_c, 11, 74, 0
13, 272160, Note_on_c, 11, 75, 76
13, 272339, Note_on_c, 11, 75, 0
13, 272400, Note_on_c, 11, 77, 76
13, 272579, Note_on_c, 11, 77, 0
13, 272640, Note_on_c, 11, 79, 76
13, 272819, Note_on_c, 11, 79, 0
13, 272880, Note_on_c, 11, 78, 76
13, 273059, Note_on_c, 11, 78, 0
13, 273120, Note_on_c, 11, 79, 76
13, 273299, Note_on_c, 11, 79, 0
13, 273360, Note_on_c, 11, 67, 76
13, 273539, Note_on_c, 11, 67, 0
13, 273600, Note_on_c, 11, 72, 76
13, 273839, Note_on_c, 11, 72, 0
13, 275040, Note_on_c, 11, 63, 76
13, 275219, Note_on_c, 11, 63, 0
13, 275280, Note_on_c, 11, 65, 76
13, 275459, Note_on_c, 11, 65, 0
13, 275520, Note_on_c, 11, 67, 76
13, 275759, Note_on_c, 11, 67, 0
13, 275760, Note_on_c, 11, 63, 76
13, 275999, Note_on_c, 11, 63, 0
13, 276960, Note_on_c, 11, 71, 76
13, 277139, Note_on_c, 11, 71, 0
13, 277200, Note_on_c, 11, 72, 76
13, 277379, Note_on_c, 11, 72, 0
13, 277440, Note_on_c, 11, 74, 76
13, 277679, Note_on_c, 11, 74, 0
13, 277680, Note_on_c, 11, 71, 76
13, 277919, Note_on_c, 11, 71, 0
13, 278880, Note_on_c, 11, 71, 76
13, 279059, Note_on_c, 11, 71, 0
13, 279120, Note_on_c, 11, 72, 76
13, 279299, Note_on_c, 11, 72, 0
13, 279360, Note_on_c, 11, 74, 76
13, 279599, Note_on_c, 11, 74, 0
13, 279600, Note_on_c, 11, 71, 76
13, 279839, Note_on_c, 11, 71, 0
13, 281760, Note_on_c, 11, 68, 84
13, 281999, Note_on_c, 11, 68, 0
13, 282000, Note_on_c, 11, 67, 76
13, 282239, Note_on_c, 11, 67, 0
13, 282720, Note_on_c, 11, 80, 76
13, 282959, Note_on_c, 11, 80, 0
13, 282960, Note_on_c, 11, 79, 76
13, 283179, Note_on_c, 11, 79, 0
13, 283200, Note_on_c, 11, 79, 76
13, 283200, Note_on_c, 11, 72, 76
13, 283200, Note_on_c, 11, 63, 76
13, 283200, Note_on_c, 11, 55, 76
13, 283439, Note_on_c, 11, 79, 0
13, 283439, Note_on_c, 11, 72, 0
13, 283439, Note_on_c, 11, 63, 0
13, 283439, Note_on_c, 11, 55, 0
13, 283680, Note_on_c, 11, 79, 76
13, 283680, Note_on_c, 11, 71, 76
13, 283680, Note_on_c, 11, 62, 76
13, 283680, Note_on_c, 11, 55, 76
13, 283919, Note_on_c, 11, 79, 0
13, 283919, Note_on_c, 11, 71, 0
13, 283919, Note_on_c, 11, 62, 0
13, 283919, Note_on_c, 11, 55, 0
13, 284160, Note_on_c, 11, 75, 76
13, 284399, Note_on_c, 11, 75, 0
13, 284400, Note_on_c, 11, 74, 76
13, 284639, Note_on_c, 11, 74, 0
13, 284640, Note_on_c, 11, 72, 76
13, 284879, Note_on_c, 11, 72, 0
13, 284880, Note_on_c, 11, 70, 76
13, 285119, Note_on_c, 11, 70, 0
13, 285120, Note_on_c, 11, 68, 76
13, 285359, Note_on_c, 11, 68, 0
13, 285360, Note_on_c, 11, 67, 76
13, 285599, Note_on_c, 11, 67, 0
13, 286080, Note_on_c, 11, 68, 76
13, 286319, Note_on_c, 11, 68, 0
13, 286320, Note_on_c, 11, 67, 76
13, 286539, Note_on_c, 11, 67, 0
13, 286560, Note_on_c, 11, 80, 76
13, 286799, Note_on_c, 11, 80, 0
13, 286800, Note_on_c, 11, 79, 76
13, 287019, Note_on_c, 11, 79, 0
13, 287040, Note_on_c, 11, 79, 76
13, 287040, Note_on_c, 11, 72, 76
13, 287040, Note_on_c, 11, 63, 76
13, 287040, Note_on_c, 11, 55, 76
13, 287279, Note_on_c, 11, 79, 0
13, 287279, Note_on_c, 11, 72, 0
13, 287279, Note_on_c, 11, 63, 0
13, 287279, Note_on_c, 11, 55, 0
13, 287520, Note_on_c, 11, 79, 76
13, 287520, Note_on_c, 11, 71, 76
13, 287520, Note_on_c, 11, 62, 76
13, 287520, Note_on_c, 11, 55, 76
13, 287759, Note_on_c, 11, 79, 0
13, 287759, Note_on_c, 11, 71, 0
13, 287759, Note_on_c, 11, 62, 0
13, 287759, Note_on_c, 11, 55, 0
13, 288000, Note_on_c, 11, 72, 76
13, 288000, Note_on_c, 11, 63, 76
13, 288000, Note_on_c, 11, 55, 76
13, 288099, Note_on_c, 11, 72, 0
13, 288099, Note_on_c, 11, 63, 0
13, 288099, Note_on_c, 11, 55, 0
13, 288120, Note_on_c, 11, 79, 76
13, 288219, Note_on_c, 11, 79, 0
13, 288240, Note_on_c, 11, 79, 76
13, 288339, Note_on_c, 11, 79, 0
13, 288360, Note_on_c, 11, 79, 76
13, 288459, Note_on_c, 11, 79, 0
13, 288480, Note_on_c, 11, 79, 76
13, 289439, Note_on_c, 11, 79, 0
13, 289440, Note_on_c, 11, 79, 76
13, 290399, Note_on_c, 11, 79, 0
13, 290400, Note_on_c, 11, 79, 76
13, 290499, Note_on_c, 11, 79, 0
13, 290520, Note_on_c, 11, 79, 76
13, 290619, Note_on_c, 11, 79, 0
13, 290640, Note_on_c, 11, 79, 76
13, 290739, Note_on_c, 11, 79, 0
13, 290760, Note_on_c, 11, 79, 76
13, 290859, Note_on_c, 11, 79, 0
13, 290880, Note_on_c, 11, 72, 76
13, 290979, Note_on_c, 11, 72, 0
13, 291000, Note_on_c, 11, 79, 76
13, 291099, Note_on_c, 11, 79, 0
13, 291120, Note_on_c, 11, 79, 76
13, 291219, Note_on_c, 11, 79, 0
13, 291240, Note_on_c, 11, 79, 76
13, 291339, Note_on_c, 11, 79, 0
13, 291360, Note_on_c, 11, 79, 76
13, 291459, Note_on_c, 11, 79, 0
13, 291480, Note_on_c, 11, 79, 76
13, 291579, Note_on_c, 11, 79, 0
13, 291600, Note_on_c, 11, 79, 76
13, 291699, Note_on_c, 11, 79, 0
13, 291720, Note_on_c, 11, 79, 76
13, 291819, Note_on_c, 11, 79, 0
13, 291840, Note_on_c, 11, 79, 76
13, 291939, Note_on_c, 11, 79, 0
13, 291960, Note_on_c, 11, 79, 76
13, 292059, Note_on_c, 11, 79, 0
13, 292080, Note_on_c, 11, 79, 76
13, 292179, Note_on_c, 11, 79, 0
13, 292200, Note_on_c, 11, 79, 76
13, 292299, Note_on_c, 11, 79, 0
13, 292320, Note_on_c, 11, 79, 76
13, 292419, Note_on_c, 11, 79, 0
13, 292440, Note_on_c, 11, 79, 76
13, 292539, Note_on_c, 11, 79, 0
13, 292560, Note_on_c, 11, 79, 76
13, 292659, Note_on_c, 11, 79, 0
13, 292680, Note_on_c, 11, 79, 76
13, 292779, Note_on_c, 11, 79, 0
13, 292800, Note_on_c, 11, 75, 84
13, 294239, Note_on_c, 11, 75, 0
13, 294360, Note_on_c, 11, 77, 84
13, 294459, Note_on_c, 11, 77, 0
13, 294480, Note_on_c, 11, 77, 84
13, 294579, Note_on_c, 11, 77, 0
13, 294600, Note_on_c, 11, 77, 84
13, 294699, Note_on_c, 11, 77, 0
13, 294720, Note_on_c, 11, 74, 84
13, 296639, Note_on_c, 11, 74, 0
13, 297240, Note_on_c, 11, 68, 44
13, 297339, Note_on_c, 11, 68, 0
13, 297360, Note_on_c, 11, 68, 44
13, 297459, Note_on_c, 11, 68, 0
13, 297480, Note_on_c, 11, 68, 44
13, 297579, Note_on_c, 11, 68, 0
13, 297600, Note_on_c, 11, 67, 44
13, 297699, Note_on_c, 11, 67, 0
13, 297720, Note_on_c, 11, 75, 44
13, 297819, Note_on_c, 11, 75, 0
13, 297840, Note_on_c, 11, 75, 44
13, 297939, Note_on_c, 11, 75, 0
13, 297960, Note_on_c, 11, 75, 44
13, 298059, Note_on_c, 11, 75, 0
13, 298080, Note_on_c, 11, 72, 44
13, 298799, Note_on_c, 11, 72, 0
13, 299160, Note_on_c, 11, 68, 44
13, 299259, Note_on_c, 11, 68, 0
13, 299280, Note_on_c, 11, 68, 44
13, 299379, Note_on_c, 11, 68, 0
13, 299400, Note_on_c, 11, 68, 44
13, 299499, Note_on_c, 11, 68, 0
13, 299520, Note_on_c, 11, 67, 44
13, 299619, Note_on_c, 11, 67, 0
13, 299640, Note_on_c, 11, 75, 44
13, 299739, Note_on_c, 11, 75, 0
13, 299760, Note_on_c, 11, 75, 44
13, 299859, Note_on_c, 11, 75, 0
13, 299880, Note_on_c, 11, 75, 44
13, 299979, Note_on_c, 11, 75, 0
13, 300000, Note_on_c, 11, 72, 44
13, 300579, Note_on_c, 11, 72, 0
13, 300600, Note_on_c, 11, 79, 84
13, 300600, Note_on_c, 11, 71, 84
13, 300699, Note_on_c, 11, 79, 0
13, 300699, Note_on_c, 11, 71, 0
13, 300720, Note_on_c, 11, 79, 84
13, 300720, Note_on_c, 11, 71, 84
13, 300819, Note_on_c, 11, 79, 0
13, 300819, Note_on_c, 11, 71, 0
13, 300840, Note_on_c, 11, 79, 84
13, 300840, Note_on_c, 11, 71, 84
13, 300939, Note_on_c, 11, 79, 0
13, 300939, Note_on_c, 11, 71, 0
13, 300960, Note_on_c, 11, 79, 84
13, 300960, Note_on_c, 11, 72, 84
13, 301199, Note_on_c, 11, 79, 0
13, 301199, Note_on_c, 11, 72, 0
13, 301560, Note_on_c, 11, 79, 84
13, 301560, Note_on_c, 11, 71, 84
13, 301659, Note_on_c, 11, 79, 0
13, 301659, Note_on_c, 11, 71, 0
13, 301680, Note_on_c, 11, 79, 84
13, 301680, Note_on_c, 11, 71, 84
13, 301779, Note_on_c, 11, 79, 0
13, 301779, Note_on_c, 11, 71, 0
13, 301800, Note_on_c, 11, 79, 84
13, 301800, Note_on_c, 11, 71, 84
13, 301899, Note_on_c, 11, 79, 0
13, 301899, Note_on_c, 11, 71, 0
13, 301920, Note_on_c, 11, 79, 84
13, 301920, Note_on_c, 11, 72, 84
13, 302159, Note_on_c, 11, 79, 0
13, 302159, Note_on_c, 11, 72, 0
13, 302520, Note_on_c, 11, 79, 84
13, 302520, Note_on_c, 11, 71, 84
13, 302619, Note_on_c, 11, 79, 0
13, 302619, Note_on_c, 11, 71, 0
13, 302640, Note_on_c, 11, 79, 84
13, 302640, Note_on_c, 11, 71, 84
13, 302739, Note_on_c, 11, 79, 0
13, 302739, Note_on_c, 11, 71, 0
13, 302760, Note_on_c, 11, 79, 84
13, 302760, Note_on_c, 11, 71, 84
13, 302859, Note_on_c, 11, 79, 0
13, 302859, Note_on_c, 11, 71, 0
13, 302880, Note_on_c, 11, 79, 84
13, 302880, Note_on_c, 11, 72, 84
13, 303099, Note_on_c, 11, 79, 0
13, 303099, Note_on_c, 11, 72, 0
13, 303120, Note_on_c, 11, 79, 84
13, 303120, Note_on_c, 11, 71, 84
13, 303120, Note_on_c, 11, 62, 84
13, 303339, Note_on_c, 11, 79, 0
13, 303339, Note_on_c, 11, 71, 0
13, 303339, Note_on_c, 11, 62, 0
13, 303360, Note_on_c, 11, 79, 84
13, 303360, Note_on_c, 11, 72, 84
13, 303360, Note_on_c, 11, 63, 84
13, 303579, Note_on_c, 11, 79, 0
13, 303579, Note_on_c, 11, 72, 0
13, 303579, Note_on_c, 11, 63, 0
13, 303600, Note_on_c, 11, 79, 84
13, 303600, Note_on_c, 11, 71, 84
13, 303600, Note_on_c, 11, 62, 84
13, 303819, Note_on_c, 11, 79, 0
13, 303819, Note_on_c, 11, 71, 0
13, 303819, Note_on_c, 11, 62, 0
13, 303840, Note_on_c, 11, 79, 84
13, 303840, Note_on_c, 11, 72, 84
13, 303840, Note_on_c, 11, 63, 84
13, 304059, Note_on_c, 11, 79, 0
13, 304059, Note_on_c, 11, 72, 0
13, 304059, Note_on_c, 11, 63, 0
13, 304080, Note_on_c, 11, 83, 84
13, 304080, Note_on_c, 11, 74, 84
13, 304080, Note_on_c, 11, 67, 84
13, 304299, Note_on_c, 11, 83, 0
13, 304299, Note_on_c, 11, 74, 0
13, 304299, Note_on_c, 11, 67, 0
13, 304320, Note_on_c, 11, 84, 84
13, 304320, Note_on_c, 11, 75, 84
13, 304320, Note_on_c, 11, 67, 84
13, 304539, Note_on_c, 11, 84, 0
13, 304539, Note_on_c, 11, 75, 0
13, 304539, Note_on_c, 11, 67, 0
13, 304560, Note_on_c, 11, 83, 84
13, 304560, Note_on_c, 11, 74, 84
13, 304560, Note_on_c, 11, 67, 84
13, 304779, Note_on_c, 11, 83, 0
13, 304779, Note_on_c, 11, 74, 0
13, 304779, Note_on_c, 11, 67, 0
13, 304800, Note_on_c, 11, 84, 84
13, 304800, Note_on_c, 11, 75, 84
13, 304800, Note_on_c, 11, 67, 84
13, 305039, Note_on_c, 11, 84, 0
13, 305039, Note_on_c, 11, 75, 0
13, 305039, Note_on_c, 11, 67, 0
13, 305280, Note_on_c, 11, 71, 84
13, 305280, Note_on_c, 11, 62, 84
13, 305280, Note_on_c, 11, 55, 84
13, 305519, Note_on_c, 11, 71, 0
13, 305519, Note_on_c, 11, 62, 0
13, 305519, Note_on_c, 11, 55, 0
13, 305760, Note_on_c, 11, 72, 84
13, 305760, Note_on_c, 11, 63, 84
13, 305760, Note_on_c, 11, 55, 84
13, 305999, Note_on_c, 11, 72, 0
13, 305999, Note_on_c, 11, 63, 0
13, 305999, Note_on_c, 11, 55, 0
13, 305999, End_track
14, 0, Start_track
14, 0, Title_t, "Violin II"
14, 0, MIDI_port, 0
14, 0, Program_c, 12, 48
14, 0, Control_c, 12, 7, 96
14, 0, Control_c, 12, 10, 24
14, 0, Control_c, 12, 11, 127
14, 120, Note_on_c, 12, 67, 84
14, 219, Note_on_c, 12, 67, 0
14, 240, Note_on_c, 12, 67, 84
14, 339, Note_on_c, 12, 67, 0
14, 360, Note_on_c, 12, 67, 84
14, 459, Note_on_c, 12, 67, 0
14, 480, Note_on_c, 12, 63, 84
14, 959, Note_on_c, 12, 63, 0
14, 1080, Note_on_c, 12, 65, 84
14, 1179, Note_on_c, 12, 65, 0
14, 1200, Note_on_c, 12, 65, 84
14, 1299, Note_on_c, 12, 65, 0
14, 1320, Note_on_c, 12, 65, 84
14, 1419, Note_on_c, 12, 65, 0
14, 1440, Note_on_c, 12, 62, 84
14, 2399, Note_on_c, 12, 62, 0
14, 2520, Note_on_c, 12, 67, 52
14, 2619, Note_on_c, 12, 67, 0
14, 2640, Note_on_c, 12, 67, 52
14, 2739, Note_on_c, 12, 67, 0
14, 2760, Note_on_c, 12, 67, 52
14, 2859, Note_on_c, 12, 67, 0
14, 2880, Note_on_c, 12, 63, 52
14, 4419, Note_on_c, 12, 63, 0
14, 4440, Note_on_c, 12, 67, 52
14, 4539, Note_on_c, 12, 67, 0
14, 4560, Note_on_c, 12, 67, 52
14, 4659, Note_on_c, 12, 67, 0
14, 4680, Note_on_c, 12, 67, 52
14, 4779, Note_on_c, 12, 67, 0
14, 4800, Note_on_c, 12, 62, 52
14, 5739, Note_on_c, 12, 62, 0
14, 5760, Note_on_c, 12, 67, 52
14, 6819, Note_on_c, 12, 67, 0
14, 6840, Note_on_c, 12, 63, 52
14, 6939, Note_on_c, 12, 63, 0
14, 6960, Note_on_c, 12, 63, 52
14, 7059, Note_on_c, 12, 63, 0
14, 7080, Note_on_c, 12, 65, 52
14, 7179, Note_on_c, 12, 65, 0
14, 7200, Note_on_c, 12, 67, 52
14, 7779, Note_on_c, 12, 67, 0
14, 7800, Note_on_c, 12, 63, 52
14, 7899, Note_on_c, 12, 63, 0
14, 7920, Note_on_c, 12, 63, 52
14, 8019, Note_on_c, 12, 63, 0
14, 8040, Note_on_c, 12, 65, 52
14, 8139, Note_on_c, 12, 65, 0
14, 8160, Note_on_c, 12, 67, 52
14, 8259, Note_on_c, 12, 67, 0
14, 8280, Note_on_c, 12, 74, 58
14, 8379, Note_on_c, 12, 74, 0
14, 8400, Note_on_c, 12, 74, 64
14, 8499, Note_on_c, 12, 74, 0
14, 8520, Note_on_c, 12, 67, 70
14, 8619, Note_on_c, 12, 67, 0
14, 8640, Note_on_c, 12, 75, 76
14, 8640, Note_on_c, 12, 67, 76
14, 8640, Note_on_c, 12, 60, 76
14, 8879, Note_on_c, 12, 75, 0
14, 8879, Note_on_c, 12, 67, 0
14, 8879, Note_on_c, 12, 60, 0
14, 9120, Note_on_c, 12, 56, 76
14, 9120, Note_on_c, 12, 66, 76
14, 9120, Note_on_c, 12, 72, 76
14, 9359, Note_on_c, 12, 56, 0
14, 9359, Note_on_c, 12, 66, 0
14, 9359, Note_on_c, 12, 72, 0
14, 9600, Note_on_c, 12, 62, 76
14, 9600, Note_on_c, 12, 71, 76
14, 9600, Note_on_c, 12, 55, 76
14, 9839, Note_on_c, 12, 62, 0
14, 9839, Note_on_c, 12, 71, 0
14, 9839, Note_on_c, 12, 55, 0
14, 10200, Note_on_c, 12, 68, 84
14, 10299, Note_on_c, 12, 68, 0
14, 10320, Note_on_c, 12, 68, 84
14, 10419, Note_on_c, 12, 68, 0
14, 10440, Note_on_c, 12, 68, 84
14, 10539, Note_on_c, 12, 68, 0
14, 10560, Note_on_c, 12, 65, 84
14, 11519, Note_on_c, 12, 65, 0
14, 12120, Note_on_c, 12, 62, 52
14, 12219, Note_on_c, 12, 62, 0
14, 12240, Note_on_c, 12, 62, 52
14, 12339, Note_on_c, 12, 62, 0
14, 12360, Note_on_c, 12, 62, 52
14, 12459, Note_on_c, 12, 62, 0
14, 12480, Note_on_c, 12, 59, 52
14, 13419, Note_on_c, 12, 59, 0
14, 13440, Note_on_c, 12, 60, 52
14, 13679, Note_on_c, 12, 60, 0
14, 14040, Note_on_c, 12, 62, 52
14, 14139, Note_on_c, 12, 62, 0
14, 14160, Note_on_c, 12, 62, 52
14, 14259, Note_on_c, 12, 62, 0
14, 14280, Note_on_c, 12, 62, 52
14, 14379, Note_on_c, 12, 62, 0
14, 14400, Note_on_c, 12, 59, 52
14, 15339, Note_on_c, 12, 59, 0
14, 15360, Note_on_c, 12, 60, 52
14, 15459, Note_on_c, 12, 60, 0
14, 15480, Note_on_c, 12, 67, 52
14, 15579, Note_on_c, 12, 67, 0
14, 15600, Note_on_c, 12, 67, 52
14, 15699, Note_on_c, 12, 67, 0
14, 15720, Note_on_c, 12, 63, 52
14, 15819, Note_on_c, 12, 63, 0
14, 15838, Control_c, 12, 11, 96
14, 15840, Control_c, 12, 11, 96
14, 15840, Note_on_c, 12, 65, 68
14, 15920, Control_c, 12, 11, 97
14, 16000, Control_c, 12, 11, 99
14, 16080, Control_c, 12, 11, 100
14, 16160, Control_c, 12, 11, 101
14, 16240, Control_c, 12, 11, 102
14, 16320, Control_c, 12, 11, 104
14, 16400, Control_c, 12, 11, 105
14, 16419, Note_on_c, 12, 65, 0
14, 16440, Note_on_c, 12, 68, 68
14, 16480, Control_c, 12, 11, 106
14, 16539, Note_on_c, 12, 68, 0
14, 16560, Note_on_c, 12, 68, 68
14, 16560, Control_c, 12, 11, 108
14, 16640, Control_c, 12, 11, 109
14, 16659, Note_on_c, 12, 68, 0
14, 16680, Note_on_c, 12, 65, 68
14, 16720, Control_c, 12, 11, 110
14, 16779, Note_on_c, 12, 65, 0
14, 16800, Note_on_c, 12, 67, 68
14, 16800, Control_c, 12, 11, 112
14, 16880, Control_c, 12, 11, 113
14, 16960, Control_c, 12, 11, 114
14, 17040, Control_c, 12, 11, 115
14, 17120, Control_c, 12, 11, 117
14, 17200, Control_c, 12, 11, 118
14, 17280, Control_c, 12, 11, 119
14, 17360, Control_c, 12, 11, 121
14, 17379, Note_on_c, 12, 67, 0
14, 17400, Note_on_c, 12, 67, 68
14, 17440, Control_c, 12, 11, 122
14, 17499, Note_on_c, 12, 67, 0
14, 17520, Note_on_c, 12, 67, 68
14, 17520, Control_c, 12, 11, 123
14, 17600, Control_c, 12, 11, 124
14, 17619, Note_on_c, 12, 67, 0
14, 17640, Note_on_c, 12, 63, 68
14, 17680, Control_c, 12, 11, 127
14, 17739, Note_on_c, 12, 63, 0
14, 17760, Note_on_c, 12, 68, 76
14, 17859, Note_on_c, 12, 68, 0
14, 17880, Note_on_c, 12, 68, 68
14, 17979, Note_on_c, 12, 68, 0
14, 18000, Note_on_c, 12, 68, 68
14, 18099, Note_on_c, 12, 68, 0
14, 18120, Note_on_c, 12, 65, 68
14, 18219, Note_on_c, 12, 65, 0
14, 18240, Note_on_c, 12, 70, 76
14, 18339, Note_on_c, 12, 70, 0
14, 18360, Note_on_c, 12, 70, 68
14, 18459, Note_on_c, 12, 70, 0
14, 18480, Note_on_c, 12, 70, 68
14, 18579, Note_on_c, 12, 70, 0
14, 18600, Note_on_c, 12, 67, 68
14, 18699, Note_on_c, 12, 67, 0
14, 18720, Note_on_c, 12, 72, 76
14, 18819, Note_on_c, 12, 72, 0
14, 18840, Note_on_c, 12, 60, 68
14, 18939, Note_on_c, 12, 60, 0
14, 18960, Note_on_c, 12, 60, 68
14, 19059, Note_on_c, 12, 60, 0
14, 19080, Note_on_c, 12, 56, 68
14, 19179, Note_on_c, 12, 56, 0
14, 19200, Note_on_c, 12, 64, 76
14, 19299, Note_on_c, 12, 64, 0
14, 19320, Note_on_c, 12, 64, 68
14, 19419, Note_on_c, 12, 64, 0
14, 19440, Note_on_c, 12, 64, 68
14, 19539, Note_on_c, 12, 64, 0
14, 19560, Note_on_c, 12, 58, 68
14, 19659, Note_on_c, 12, 58, 0
14, 19680, Note_on_c, 12, 65, 76
14, 19779, Note_on_c, 12, 65, 0
14, 19800, Note_on_c, 12, 65, 68
14, 19899, Note_on_c, 12, 65, 0
14, 19920, Note_on_c, 12, 65, 68
14, 20019, Note_on_c, 12, 65, 0
14, 20040, Note_on_c, 12, 60, 68
14, 20139, Note_on_c, 12, 60, 0
14, 20160, Note_on_c, 12, 68, 76
14, 20259, Note_on_c, 12, 68, 0
14, 20280, Note_on_c, 12, 68, 68
14, 20379, Note_on_c, 12, 68, 0
14, 20400, Note_on_c, 12, 68, 68
14, 20499, Note_on_c, 12, 68, 0
14, 20520, Note_on_c, 12, 65, 68
14, 20619, Note_on_c, 12, 65, 0
14, 20640, Note_on_c, 12, 67, 76
14, 20739, Note_on_c, 12, 67, 0
14, 20760, Note_on_c, 12, 72, 76
14, 20760, Note_on_c, 12, 63, 76
14, 20859, Note_on_c, 12, 72, 0
14, 20859, Note_on_c, 12, 63, 0
14, 20880, Note_on_c, 12, 63, 76
14, 20880, Note_on_c, 12, 72, 76
14, 20979, Note_on_c, 12, 63, 0
14, 20979, Note_on_c, 12, 72, 0
14, 21000, Note_on_c, 12, 72, 76
14, 21000, Note_on_c, 12, 63, 76
14, 21099, Note_on_c, 12, 72, 0
14, 21099, Note_on_c, 12, 63, 0
14, 21120, Note_on_c, 12, 72, 76
14, 21120, Note_on_c, 12, 63, 76
14, 21219, Note_on_c, 12, 72, 0
14, 21219, Note_on_c, 12, 63, 0
14, 21240, Note_on_c, 12, 72, 76
14, 21240, Note_on_c, 12, 63, 76
14, 21339, Note_on_c, 12, 72, 0
14, 21339, Note_on_c, 12, 63, 0
14, 21360, Note_on_c, 12, 72, 76
14, 21360, Note_on_c, 12, 63, 76
14, 21459, Note_on_c, 12, 72, 0
14, 21459, Note_on_c, 12, 63, 0
14, 21480, Note_on_c, 12, 63, 76
14, 21480, Note_on_c, 12, 72, 76
14, 21579, Note_on_c, 12, 63, 0
14, 21579, Note_on_c, 12, 72, 0
14, 21600, Note_on_c, 12, 72, 76
14, 21600, Note_on_c, 12, 63, 76
14, 21699, Note_on_c, 12, 72, 0
14, 21699, Note_on_c, 12, 63, 0
14, 21720, Note_on_c, 12, 63, 76
14, 21720, Note_on_c, 12, 72, 76
14, 21819, Note_on_c, 12, 63, 0
14, 21819, Note_on_c, 12, 72, 0
14, 21840, Note_on_c, 12, 63, 76
14, 21840, Note_on_c, 12, 72, 76
14, 21939, Note_on_c, 12, 63, 0
14, 21939, Note_on_c, 12, 72, 0
14, 21960, Note_on_c, 12, 72, 76
14, 21960, Note_on_c, 12, 63, 76
14, 22059, Note_on_c, 12, 72, 0
14, 22059, Note_on_c, 12, 63, 0
14, 22080, Note_on_c, 12, 63, 76
14, 22080, Note_on_c, 12, 72, 76
14, 22179, Note_on_c, 12, 63, 0
14, 22179, Note_on_c, 12, 72, 0
14, 22200, Note_on_c, 12, 72, 76
14, 22200, Note_on_c, 12, 63, 76
14, 22299, Note_on_c, 12, 72, 0
14, 22299, Note_on_c, 12, 63, 0
14, 22320, Note_on_c, 12, 72, 76
14, 22320, Note_on_c, 12, 63, 76
14, 22419, Note_on_c, 12, 72, 0
14, 22419, Note_on_c, 12, 63, 0
14, 22440, Note_on_c, 12, 72, 76
14, 22440, Note_on_c, 12, 63, 76
14, 22539, Note_on_c, 12, 72, 0
14, 22539, Note_on_c, 12, 63, 0
14, 22560, Note_on_c, 12, 71, 76
14, 22560, Note_on_c, 12, 62, 76
14, 22659, Note_on_c, 12, 71, 0
14, 22659, Note_on_c, 12, 62, 0
14, 22680, Note_on_c, 12, 77, 76
14, 22779, Note_on_c, 12, 77, 0
14, 22800, Note_on_c, 12, 74, 76
14, 22899, Note_on_c, 12, 74, 0
14, 22920, Note_on_c, 12, 74, 76
14, 23019, Note_on_c, 12, 74, 0
14, 23040, Note_on_c, 12, 71, 76
14, 23139, Note_on_c, 12, 71, 0
14, 23160, Note_on_c, 12, 67, 76
14, 23259, Note_on_c, 12, 67, 0
14, 23280, Note_on_c, 12, 65, 76
14, 23379, Note_on_c, 12, 65, 0
14, 23400, Note_on_c, 12, 65, 76
14, 23499, Note_on_c, 12, 65, 0
14, 23520, Note_on_c, 12, 62, 76
14, 23619, Note_on_c, 12, 62, 0
14, 23640, Note_on_c, 12, 59, 76
14, 23739, Note_on_c, 12, 59, 0
14, 23760, Note_on_c, 12, 55, 76
14, 23859, Note_on_c, 12, 55, 0
14, 23880, Note_on_c, 12, 65, 76
14, 23979, Note_on_c, 12, 65, 0
14, 24000, Note_on_c, 12, 62, 76
14, 24099, Note_on_c, 12, 62, 0
14, 24120, Note_on_c, 12, 59, 76
14, 24219, Note_on_c, 12, 59, 0
14, 24240, Note_on_c, 12, 60, 76
14, 24339, Note_on_c, 12, 60, 0
14, 24360, Note_on_c, 12, 60, 76
14, 24459, Note_on_c, 12, 60, 0
14, 24480, Note_on_c, 12, 72, 84
14, 24579, Note_on_c, 12, 72, 0
14, 24600, Note_on_c, 12, 75, 84
14, 24699, Note_on_c, 12, 75, 0
14, 24720, Note_on_c, 12, 75, 84
14, 24819, Note_on_c, 12, 75, 0
14, 24840, Note_on_c, 12, 75, 84
14, 24939, Note_on_c, 12, 75, 0
14, 24960, Note_on_c, 12, 72, 84
14, 25059, Note_on_c, 12, 72, 0
14, 25080, Note_on_c, 12, 69, 84
14, 25179, Note_on_c, 12, 69, 0
14, 25200, Note_on_c, 12, 69, 84
14, 25299, Note_on_c, 12, 69, 0
14, 25320, Note_on_c, 12, 69, 84
14, 25419, Note_on_c, 12, 69, 0
14, 25440, Note_on_c, 12, 66, 84
14, 25539, Note_on_c, 12, 66, 0
14, 25560, Note_on_c, 12, 63, 84
14, 25659, Note_on_c, 12, 63, 0
14, 25680, Note_on_c, 12, 63, 84
14, 25779, Note_on_c, 12, 63, 0
14, 25800, Note_on_c, 12, 63, 84
14, 25899, Note_on_c, 12, 63, 0
14, 25920, Note_on_c, 12, 60, 84
14, 26019, Note_on_c, 12, 60, 0
14, 26040, Note_on_c, 12, 57, 84
14, 26040, Note_on_c, 12, 69, 84
14, 26139, Note_on_c, 12, 57, 0
14, 26139, Note_on_c, 12, 69, 0
14, 26160, Note_on_c, 12, 69, 84
14, 26160, Note_on_c, 12, 57, 84
14, 26259, Note_on_c, 12, 69, 0
14, 26259, Note_on_c, 12, 57, 0
14, 26280, Note_on_c, 12, 57, 84
14, 26280, Note_on_c, 12, 69, 84
14, 26379, Note_on_c, 12, 57, 0
14, 26379, Note_on_c, 12, 69, 0
14, 26400, Note_on_c, 12, 57, 84
14, 26400, Note_on_c, 12, 69, 84
14, 26639, Note_on_c, 12, 57, 0
14, 26639, Note_on_c, 12, 69, 0
14, 27360, Note_on_c, 12, 70, 84
14, 27360, Note_on_c, 12, 65, 84
14, 27360, Note_on_c, 12, 58, 84
14, 27599, Note_on_c, 12, 70, 0
14, 27599, Note_on_c, 12, 65, 0
14, 27599, Note_on_c, 12, 58, 0
14, 29760, Note_on_c, 12, 67, 52
14, 30239, Note_on_c, 12, 67, 0
14, 30240, Note_on_c, 12, 68, 52
14, 30699, Note_on_c, 12, 68, 0
14, 30720, Note_on_c, 12, 68, 52
14, 31199, Note_on_c, 12, 68, 0
14, 31200, Note_on_c, 12, 67, 52
14, 31659, Note_on_c, 12, 67, 0
14, 31680, Note_on_c, 12, 67, 52
14, 32159, Note_on_c, 12, 67, 0
14, 32160, Note_on_c, 12, 68, 52
14, 32619, Note_on_c, 12, 68, 0
14, 32640, Note_on_c, 12, 68, 52
14, 33119, Note_on_c, 12, 68, 0
14, 33120, Note_on_c, 12, 67, 52
14, 33579, Note_on_c, 12, 67, 0
14, 33600, Note_on_c, 12, 67, 52
14, 34079, Note_on_c, 12, 67, 0
14, 34080, Note_on_c, 12, 68, 52
14, 34539, Note_on_c, 12, 68, 0
14, 34560, Note_on_c, 12, 68, 52
14, 35039, Note_on_c, 12, 68, 0
14, 35040, Note_on_c, 12, 67, 52
14, 35499, Note_on_c, 12, 67, 0
14, 35520, Note_on_c, 12, 67, 52
14, 36459, Note_on_c, 12, 67, 0
14, 36480, Note_on_c, 12, 67, 52
14, 36959, Note_on_c, 12, 67, 0
14, 36960, Note_on_c, 12, 65, 52
14, 37419, Note_on_c, 12, 65, 0
14, 37440, Note_on_c, 12, 68, 52
14, 37919, Note_on_c, 12, 68, 0
14, 37920, Note_on_c, 12, 70, 52
14, 38379, Note_on_c, 12, 70, 0
14, 38400, Note_on_c, 12, 70, 52
14, 38879, Note_on_c, 12, 70, 0
14, 38880, Note_on_c, 12, 68, 52
14, 39339, Note_on_c, 12, 68, 0
14, 39358, Control_c, 12, 11, 64
14, 39360, Note_on_c, 12, 63, 84
14, 39599, Note_on_c, 12, 63, 0
14, 39600, Note_on_c, 12, 65, 84
14, 39839, Note_on_c, 12, 65, 0
14, 39840, Note_on_c, 12, 66, 84
14, 39840, Control_c, 12, 11, 64
14, 39940, Control_c, 12, 11, 65
14, 40040, Control_c, 12, 11, 67
14, 40079, Note_on_c, 12, 66, 0
14, 40080, Note_on_c, 12, 65, 84
14, 40140, Control_c, 12, 11, 68
14, 40240, Control_c, 12, 11, 69
14, 40319, Note_on_c, 12, 65, 0
14, 40320, Note_on_c, 12, 63, 84
14, 40340, Control_c, 12, 11, 71
14, 40440, Control_c, 12, 11, 72
14, 40540, Control_c, 12, 11, 73
14, 40559, Note_on_c, 12, 63, 0
14, 40560, Note_on_c, 12, 65, 84
14, 40640, Control_c, 12, 11, 75
14, 40740, Control_c, 12, 11, 76
14, 40779, Note_on_c, 12, 65, 0
14, 40800, Note_on_c, 12, 66, 84
14, 40840, Control_c, 12, 11, 77
14, 40940, Control_c, 12, 11, 78
14, 41039, Note_on_c, 12, 66, 0
14, 41040, Control_c, 12, 11, 80
14, 41040, Note_on_c, 12, 65, 84
14, 41140, Control_c, 12, 11, 81
14, 41240, Control_c, 12, 11, 82
14, 41279, Note_on_c, 12, 65, 0
14, 41280, Note_on_c, 12, 63, 84
14, 41340, Control_c, 12, 11, 84
14, 41440, Control_c, 12, 11, 85
14, 41519, Note_on_c, 12, 63, 0
14, 41520, Note_on_c, 12, 65, 84
14, 41540, Control_c, 12, 11, 86
14, 41640, Control_c, 12, 11, 88
14, 41739, Note_on_c, 12, 65, 0
14, 41740, Control_c, 12, 11, 89
14, 41760, Note_on_c, 12, 66, 84
14, 41840, Control_c, 12, 11, 90
14, 41940, Control_c, 12, 11, 92
14, 41999, Note_on_c, 12, 66, 0
14, 42000, Note_on_c, 12, 65, 84
14, 42040, Control_c, 12, 11, 93
14, 42140, Control_c, 12, 11, 94
14, 42239, Note_on_c, 12, 65, 0
14, 42240, Note_on_c, 12, 63, 84
14, 42240, Control_c, 12, 11, 96
14, 42340, Control_c, 12, 11, 97
14, 42440, Control_c, 12, 11, 98
14, 42479, Note_on_c, 12, 63, 0
14, 42480, Note_on_c, 12, 65, 84
14, 42540, Control_c, 12, 11, 99
14, 42640, Control_c, 12, 11, 101
14, 42699, Note_on_c, 12, 65, 0
14, 42720, Note_on_c, 12, 66, 84
14, 42740, Control_c, 12, 11, 102
14, 42840, Control_c, 12, 11, 103
14, 42940, Control_c, 12, 11, 105
14, 42959, Note_on_c, 12, 66, 0
14, 42960, Note_on_c, 12, 65, 84
14, 43040, Control_c, 12, 11, 106
14, 43140, Control_c, 12, 11, 107
14, 43199, Note_on_c, 12, 65, 0
14, 43200, Note_on_c, 12, 63, 84
14, 43240, Control_c, 12, 11, 109
14, 43340, Control_c, 12, 11, 110
14, 43439, Note_on_c, 12, 63, 0
14, 43440, Control_c, 12, 11, 111
14, 43440, Note_on_c, 12, 65, 84
14, 43540, Control_c, 12, 11, 113
14, 43640, Control_c, 12, 11, 114
14, 43679, Note_on_c, 12, 65, 0
14, 43680, Note_on_c, 12, 66, 84
14, 43740, Control_c, 12, 11, 115
14, 43840, Control_c, 12, 11, 117
14, 43919, Note_on_c, 12, 66, 0
14, 43920, Note_on_c, 12, 65, 84
14, 43940, Control_c, 12, 11, 118
14, 44040, Control_c, 12, 11, 119
14, 44140, Control_c, 12, 11, 120
14, 44159, Note_on_c, 12, 65, 0
14, 44160, Note_on_c, 12, 66, 84
14, 44240, Control_c, 12, 11, 122
14, 44340, Control_c, 12, 11, 123
14, 44399, Note_on_c, 12, 66, 0
14, 44400, Note_on_c, 12, 69, 84
14, 44440, Control_c, 12, 11, 124
14, 44540, Control_c, 12, 11, 127
14, 44619, Note_on_c, 12, 69, 0
14, 44640, Note_on_c, 12, 70, 84
14, 44640, Note_on_c, 12, 82, 84
14, 45219, Note_on_c, 12, 70, 0
14, 45219, Note_on_c, 12, 82, 0
14, 45240, Note_on_c, 12, 84, 84
14, 45329, Note_on_c, 12, 84, 0
14, 45360, Note_on_c, 12, 82, 84
14, 45449, Note_on_c, 12, 82, 0
14, 45480, Note_on_c, 12, 80, 84
14, 45569, Note_on_c, 12, 80, 0
14, 45600, Note_on_c, 12, 80, 84
14, 45719, Note_on_c, 12, 80, 0
14, 45720, Note_on_c, 12, 79, 84
14, 45819, Note_on_c, 12, 79, 0
14, 45840, Note_on_c, 12, 77, 84
14, 45929, Note_on_c, 12, 77, 0
14, 45960, Note_on_c, 12, 75, 84
14, 46049, Note_on_c, 12, 75, 0
14, 46080, Note_on_c, 12, 75, 84
14, 46199, Note_on_c, 12, 75, 0
14, 46200, Note_on_c, 12, 74, 84
14, 46299, Note_on_c, 12, 74, 0
14, 46320, Note_on_c, 12, 72, 84
14, 46409, Note_on_c, 12, 72, 0
14, 46440, Note_on_c, 12, 74, 84
14, 46529, Note_on_c, 12, 74, 0
14, 46560, Note_on_c, 12, 77, 84
14, 46679, Note_on_c, 12, 77, 0
14, 46680, Note_on_c, 12, 75, 84
14, 46779, Note_on_c, 12, 75, 0
14, 46800, Note_on_c, 12, 70, 84
14, 46889, Note_on_c, 12, 70, 0
14, 46920, Note_on_c, 12, 67, 84
14, 47009, Note_on_c, 12, 67, 0
14, 47040, Note_on_c, 12, 74, 84
14, 47159, Note_on_c, 12, 74, 0
14, 47160, Note_on_c, 12, 72, 84
14, 47259, Note_on_c, 12, 72, 0
14, 47280, Note_on_c, 12, 68, 84
14, 47369, Note_on_c, 12, 68, 0
14, 47400, Note_on_c, 12, 65, 84
14, 47489, Note_on_c, 12, 65, 0
14, 47520, Note_on_c, 12, 72, 84
14, 47639, Note_on_c, 12, 72, 0
14, 47640, Note_on_c, 12, 70, 84
14, 47739, Note_on_c, 12, 70, 0
14, 47760, Note_on_c, 12, 67, 84
14, 47849, Note_on_c, 12, 67, 0
14, 47880, Note_on_c, 12, 63, 84
14, 47969, Note_on_c, 12, 63, 0
14, 48000, Note_on_c, 12, 58, 84
14, 48099, Note_on_c, 12, 58, 0
14, 48120, Note_on_c, 12, 69, 84
14, 48239, Note_on_c, 12, 69, 0
14, 48240, Note_on_c, 12, 70, 84
14, 48359, Note_on_c, 12, 70, 0
14, 48360, Note_on_c, 12, 69, 84
14, 48479, Note_on_c, 12, 69, 0
14, 48480, Note_on_c, 12, 70, 84
14, 48599, Note_on_c, 12, 70, 0
14, 48600, Note_on_c, 12, 69, 84
14, 48719, Note_on_c, 12, 69, 0
14, 48720, Note_on_c, 12, 70, 84
14, 48839, Note_on_c, 12, 70, 0
14, 48840, Note_on_c, 12, 69, 84
14, 48939, Note_on_c, 12, 69, 0
14, 48960, Note_on_c, 12, 70, 84
14, 49049, Note_on_c, 12, 70, 0
14, 49080, Note_on_c, 12, 84, 84
14, 49169, Note_on_c, 12, 84, 0
14, 49200, Note_on_c, 12, 82, 84
14, 49289, Note_on_c, 12, 82, 0
14, 49320, Note_on_c, 12, 80, 84
14, 49409, Note_on_c, 12, 80, 0
14, 49440, Note_on_c, 12, 80, 84
14, 49559, Note_on_c, 12, 80, 0
14, 49560, Note_on_c, 12, 79, 84
14, 49659, Note_on_c, 12, 79, 0
14, 49680, Note_on_c, 12, 77, 84
14, 49769, Note_on_c, 12, 77, 0
14, 49800, Note_on_c, 12, 75, 84
14, 49889, Note_on_c, 12, 75, 0
14, 49920, Note_on_c, 12, 75, 84
14, 50039, Note_on_c, 12, 75, 0
14, 50040, Note_on_c, 12, 74, 84
14, 50139, Note_on_c, 12, 74, 0
14, 50160, Note_on_c, 12, 72, 84
14, 50249, Note_on_c, 12, 72, 0
14, 50280, Note_on_c, 12, 74, 84
14, 50369, Note_on_c, 12, 74, 0
14, 50400, Note_on_c, 12, 77, 84
14, 50519, Note_on_c, 12, 77, 0
14, 50520, Note_on_c, 12, 75, 84
14, 50619, Note_on_c, 12, 75, 0
14, 50640, Note_on_c, 12, 70, 84
14, 50729, Note_on_c, 12, 70, 0
14, 50760, Note_on_c, 12, 67, 84
14, 50849, Note_on_c, 12, 67, 0
14, 50880, Note_on_c, 12, 74, 84
14, 50999, Note_on_c, 12, 74, 0
14, 51000, Note_on_c, 12, 72, 84
14, 51099, Note_on_c, 12, 72, 0
14, 51120, Note_on_c, 12, 68, 84
14, 51209, Note_on_c, 12, 68, 0
14, 51240, Note_on_c, 12, 65, 84
14, 51329, Note_on_c, 12, 65, 0
14, 51360, Note_on_c, 12, 72, 84
14, 51479, Note_on_c, 12, 72, 0
14, 51480, Note_on_c, 12, 70, 84
14, 51579, Note_on_c, 12, 70, 0
14, 51600, Note_on_c, 12, 67, 84
14, 51689, Note_on_c, 12, 67, 0
14, 51720, Note_on_c, 12, 63, 84
14, 51809, Note_on_c, 12, 63, 0
14, 51840, Note_on_c, 12, 58, 84
14, 51939, Note_on_c, 12, 58, 0
14, 51960, Note_on_c, 12, 70, 84
14, 52059, Note_on_c, 12, 70, 0
14, 52080, Note_on_c, 12, 82, 84
14, 52179, Note_on_c, 12, 82, 0
14, 52200, Note_on_c, 12, 82, 84
14, 52299, Note_on_c, 12, 82, 0
14, 52320, Note_on_c, 12, 63, 84
14, 53859, Note_on_c, 12, 63, 0
14, 53880, Note_on_c, 12, 62, 84
14, 53979, Note_on_c, 12, 62, 0
14, 54000, Note_on_c, 12, 62, 84
14, 54099, Note_on_c, 12, 62, 0
14, 54120, Note_on_c, 12, 62, 84
14, 54219, Note_on_c, 12, 62, 0
14, 54240, Note_on_c, 12, 63, 84
14, 55779, Note_on_c, 12, 63, 0
14, 55800, Note_on_c, 12, 65, 84
14, 55800, Note_on_c, 12, 74, 84
14, 55899, Note_on_c, 12, 65, 0
14, 55899, Note_on_c, 12, 74, 0
14, 55920, Note_on_c, 12, 74, 84
14, 55920, Note_on_c, 12, 65, 84
14, 56019, Note_on_c, 12, 74, 0
14, 56019, Note_on_c, 12, 65, 0
14, 56040, Note_on_c, 12, 74, 84
14, 56040, Note_on_c, 12, 65, 84
14, 56139, Note_on_c, 12, 74, 0
14, 56139, Note_on_c, 12, 65, 0
14, 56160, Note_on_c, 12, 75, 84
14, 56160, Note_on_c, 12, 67, 84
14, 56399, Note_on_c, 12, 75, 0
14, 56399, Note_on_c, 12, 67, 0
14, 56760, Note_on_c, 12, 74, 84
14, 56760, Note_on_c, 12, 65, 84
14, 56859, Note_on_c, 12, 74, 0
14, 56859, Note_on_c, 12, 65, 0
14, 56880, Note_on_c, 12, 74, 84
14, 56880, Note_on_c, 12, 65, 84
14, 56979, Note_on_c, 12, 74, 0
14, 56979, Note_on_c, 12, 65, 0
14, 57000, Note_on_c, 12, 65, 84
14, 57000, Note_on_c, 12, 74, 84
14, 57099, Note_on_c, 12, 65, 0
14, 57099, Note_on_c, 12, 74, 0
14, 57120, Note_on_c, 12, 67, 84
14, 57120, Note_on_c, 12, 75, 84
14, 57359, Note_on_c, 12, 67, 0
14, 57359, Note_on_c, 12, 75, 0
14, 57720, Note_on_c, 12, 77, 84
14, 57720, Note_on_c, 12, 70, 84
14, 57819, Note_on_c, 12, 77, 0
14, 57819, Note_on_c, 12, 70, 0
14, 57840, Note_on_c, 12, 77, 84
14, 57840, Note_on_c, 12, 70, 84
14, 57939, Note_on_c, 12, 77, 0
14, 57939, Note_on_c, 12, 70, 0
14, 57960, Note_on_c, 12, 70, 84
14, 57960, Note_on_c, 12, 77, 84
14, 58059, Note_on_c, 12, 70, 0
14, 58059, Note_on_c, 12, 77, 0
14, 58080, Note_on_c, 12, 70, 84
14, 58080, Note_on_c, 12, 63, 84
14, 58080, Note_on_c, 12, 79, 84
14, 58319, Note_on_c, 12, 70, 0
14, 58319, Note_on_c, 12, 63, 0
14, 58319, Note_on_c, 12, 79, 0
14, 59640, Note_on_c, 12, 67, 84
14, 59739, Note_on_c, 12, 67, 0
14, 59760, Note_on_c, 12, 67, 84
14, 59859, Note_on_c, 12, 67, 0
14, 59880, Note_on_c, 12, 67, 84
14, 59979, Note_on_c, 12, 67, 0
14, 60000, Note_on_c, 12, 63, 84
14, 60479, Note_on_c, 12, 63, 0
14, 60600, Note_on_c, 12, 65, 84
14, 60699, Note_on_c, 12, 65, 0
14, 60720, Note_on_c, 12, 65, 84
14, 60819, Note_on_c, 12, 65, 0
14, 60840, Note_on_c, 12, 65, 84
14, 60939, Note_on_c, 12, 65, 0
14, 60960, Note_on_c, 12, 62, 84
14, 61919, Note_on_c, 12, 62, 0
14, 62040, Note_on_c, 12, 67, 52
14, 62139, Note_on_c, 12, 67, 0
14, 62160, Note_on_c, 12, 67, 52
14, 62259, Note_on_c, 12, 67, 0
14, 62280, Note_on_c, 12, 67, 52
14, 62379, Note_on_c, 12, 67, 0
14, 62400, Note_on_c, 12, 63, 52
14, 63939, Note_on_c, 12, 63, 0
14, 63960, Note_on_c, 12, 67, 52
14, 64059, Note_on_c, 12, 67, 0
14, 64080, Note_on_c, 12, 67, 52
14, 64179, Note_on_c, 12, 67, 0
14, 64200, Note_on_c, 12, 67, 52
14, 64299, Note_on_c, 12, 67, 0
14, 64320, Note_on_c, 12, 62, 52
14, 65259, Note_on_c, 12, 62, 0
14, 65280, Note_on_c, 12, 67, 52
14, 66339, Note_on_c, 12, 67, 0
14, 66360, Note_on_c, 12, 63, 52
14, 66459, Note_on_c, 12, 63, 0
14, 66480, Note_on_c, 12, 63, 52
14, 66579, Note_on_c, 12, 63, 0
14, 66600, Note_on_c, 12, 65, 52
14, 66699, Note_on_c, 12, 65, 0
14, 66720, Note_on_c, 12, 67, 52
14, 67299, Note_on_c, 12, 67, 0
14, 67320, Note_on_c, 12, 63, 52
14, 67419, Note_on_c, 12, 63, 0
14, 67440, Note_on_c, 12, 63, 52
14, 67539, Note_on_c, 12, 63, 0
14, 67560, Note_on_c, 12, 65, 52
14, 67659, Note_on_c, 12, 65, 0
14, 67680, Note_on_c, 12, 67, 52
14, 67779, Note_on_c, 12, 67, 0
14, 67800, Note_on_c, 12, 74, 58
14, 67899, Note_on_c, 12, 74, 0
14, 67920, Note_on_c, 12, 74, 64
14, 68019, Note_on_c, 12, 74, 0
14, 68040, Note_on_c, 12, 67, 70
14, 68139, Note_on_c, 12, 67, 0
14, 68160, Note_on_c, 12, 75, 76
14, 68160, Note_on_c, 12, 67, 76
14, 68160, Note_on_c, 12, 60, 76
14, 68399, Note_on_c, 12, 75, 0
14, 68399, Note_on_c, 12, 67, 0
14, 68399, Note_on_c, 12, 60, 0
14, 68640, Note_on_c, 12, 72, 76
14, 68640, Note_on_c, 12, 66, 76
14, 68640, Note_on_c, 12, 56, 76
14, 68879, Note_on_c, 12, 72, 0
14, 68879, Note_on_c, 12, 66, 0
14, 68879, Note_on_c, 12, 56, 0
14, 69120, Note_on_c, 12, 55, 76
14, 69120, Note_on_c, 12, 71, 76
14, 69120, Note_on_c, 12, 62, 76
14, 69359, Note_on_c, 12, 55, 0
14, 69359, Note_on_c, 12, 71, 0
14, 69359, Note_on_c, 12, 62, 0
14, 69720, Note_on_c, 12, 68, 84
14, 69819, Note_on_c, 12, 68, 0
14, 69840, Note_on_c, 12, 68, 84
14, 69939, Note_on_c, 12, 68, 0
14, 69960, Note_on_c, 12, 68, 84
14, 70059, Note_on_c, 12, 68, 0
14, 70080, Note_on_c, 12, 65, 84
14, 71039, Note_on_c, 12, 65, 0
14, 71640, Note_on_c, 12, 62, 52
14, 71739, Note_on_c, 12, 62, 0
14, 71760, Note_on_c, 12, 62, 52
14, 71859, Note_on_c, 12, 62, 0
14, 71880, Note_on_c, 12, 62, 52
14, 71979, Note_on_c, 12, 62, 0
14, 72000, Note_on_c, 12, 59, 52
14, 72939, Note_on_c, 12, 59, 0
14, 72960, Note_on_c, 12, 60, 52
14, 73199, Note_on_c, 12, 60, 0
14, 73560, Note_on_c, 12, 62, 52
14, 73659, Note_on_c, 12, 62, 0
14, 73680, Note_on_c, 12, 62, 52
14, 73779, Note_on_c, 12, 62, 0
14, 73800, Note_on_c, 12, 62, 52
14, 73899, Note_on_c, 12, 62, 0
14, 73920, Note_on_c, 12, 59, 52
14, 74859, Note_on_c, 12, 59, 0
14, 74880, Note_on_c, 12, 60, 52
14, 74979, Note_on_c, 12, 60, 0
14, 75000, Note_on_c, 12, 67, 52
14, 75099, Note_on_c, 12, 67, 0
14, 75120, Note_on_c, 12, 67, 52
14, 75219, Note_on_c, 12, 67, 0
14, 75240, Note_on_c, 12, 63, 52
14, 75339, Note_on_c, 12, 63, 0
14, 75358, Control_c, 12, 11, 96
14, 75360, Note_on_c, 12, 65, 68
14, 75360, Control_c, 12, 11, 96
14, 75440, Control_c, 12, 11, 97
14, 75520, Control_c, 12, 11, 99
14, 75600, Control_c, 12, 11, 100
14, 75680, Control_c, 12, 11, 101
14, 75760, Control_c, 12, 11, 102
14, 75840, Control_c, 12, 11, 104
14, 75920, Control_c, 12, 11, 105
14, 75939, Note_on_c, 12, 65, 0
14, 75960, Note_on_c, 12, 68, 68
14, 76000, Control_c, 12, 11, 106
14, 76059, Note_on_c, 12, 68, 0
14, 76080, Note_on_c, 12, 68, 68
14, 76080, Control_c, 12, 11, 108
14, 76160, Control_c, 12, 11, 109
14, 76179, Note_on_c, 12, 68, 0
14, 76200, Note_on_c, 12, 65, 68
14, 76240, Control_c, 12, 11, 110
14, 76299, Note_on_c, 12, 65, 0
14, 76320, Note_on_c, 12, 67, 68
14, 76320, Control_c, 12, 11, 112
14, 76400, Control_c, 12, 11, 113
14, 76480, Control_c, 12, 11, 114
14, 76560, Control_c, 12, 11, 115
14, 76640, Control_c, 12, 11, 117
14, 76720, Control_c, 12, 11, 118
14, 76800, Control_c, 12, 11, 119
14, 76880, Control_c, 12, 11, 121
14, 76899, Note_on_c, 12, 67, 0
14, 76920, Note_on_c, 12, 67, 68
14, 76960, Control_c, 12, 11, 122
14, 77019, Note_on_c, 12, 67, 0
14, 77040, Control_c, 12, 11, 123
14, 77040, Note_on_c, 12, 67, 68
14, 77120, Control_c, 12, 11, 124
14, 77139, Note_on_c, 12, 67, 0
14, 77160, Note_on_c, 12, 63, 68
14, 77200, Control_c, 12, 11, 127
14, 77259, Note_on_c, 12, 63, 0
14, 77280, Note_on_c, 12, 68, 76
14, 77379, Note_on_c, 12, 68, 0
14, 77400, Note_on_c, 12, 68, 68
14, 77499, Note_on_c, 12, 68, 0
14, 77520, Note_on_c, 12, 68, 68
14, 77619, Note_on_c, 12, 68, 0
14, 77640, Note_on_c, 12, 65, 68
14, 77739, Note_on_c, 12, 65, 0
14, 77760, Note_on_c, 12, 70, 76
14, 77859, Note_on_c, 12, 70, 0
14, 77880, Note_on_c, 12, 70, 68
14, 77979, Note_on_c, 12, 70, 0
14, 78000, Note_on_c, 12, 70, 68
14, 78099, Note_on_c, 12, 70, 0
14, 78120, Note_on_c, 12, 67, 68
14, 78219, Note_on_c, 12, 67, 0
14, 78240, Note_on_c, 12, 72, 76
14, 78339, Note_on_c, 12, 72, 0
14, 78360, Note_on_c, 12, 60, 68
14, 78459, Note_on_c, 12, 60, 0
14, 78480, Note_on_c, 12, 60, 68
14, 78579, Note_on_c, 12, 60, 0
14, 78600, Note_on_c, 12, 56, 68
14, 78699, Note_on_c, 12, 56, 0
14, 78720, Note_on_c, 12, 64, 76
14, 78819, Note_on_c, 12, 64, 0
14, 78840, Note_on_c, 12, 64, 68
14, 78939, Note_on_c, 12, 64, 0
14, 78960, Note_on_c, 12, 64, 68
14, 79059, Note_on_c, 12, 64, 0
14, 79080, Note_on_c, 12, 58, 68
14, 79179, Note_on_c, 12, 58, 0
14, 79200, Note_on_c, 12, 65, 76
14, 79299, Note_on_c, 12, 65, 0
14, 79320, Note_on_c, 12, 65, 68
14, 79419, Note_on_c, 12, 65, 0
14, 79440, Note_on_c, 12, 65, 68
14, 79539, Note_on_c, 12, 65, 0
14, 79560, Note_on_c, 12, 60, 68
14, 79659, Note_on_c, 12, 60, 0
14, 79680, Note_on_c, 12, 68, 76
14, 79779, Note_on_c, 12, 68, 0
14, 79800, Note_on_c, 12, 68, 68
14, 79899, Note_on_c, 12, 68, 0
14, 79920, Note_on_c, 12, 68, 68
14, 80019, Note_on_c, 12, 68, 0
14, 80040, Note_on_c, 12, 65, 68
14, 80139, Note_on_c, 12, 65, 0
14, 80160, Note_on_c, 12, 67, 76
14, 80259, Note_on_c, 12, 67, 0
14, 80280, Note_on_c, 12, 63, 76
14, 80280, Note_on_c, 12, 72, 76
14, 80379, Note_on_c, 12, 63, 0
14, 80379, Note_on_c, 12, 72, 0
14, 80400, Note_on_c, 12, 63, 76
14, 80400, Note_on_c, 12, 72, 76
14, 80499, Note_on_c, 12, 63, 0
14, 80499, Note_on_c, 12, 72, 0
14, 80520, Note_on_c, 12, 72, 76
14, 80520, Note_on_c, 12, 63, 76
14, 80619, Note_on_c, 12, 72, 0
14, 80619, Note_on_c, 12, 63, 0
14, 80640, Note_on_c, 12, 63, 76
14, 80640, Note_on_c, 12, 72, 76
14, 80739, Note_on_c, 12, 63, 0
14, 80739, Note_on_c, 12, 72, 0
14, 80760, Note_on_c, 12, 72, 76
14, 80760, Note_on_c, 12, 63, 76
14, 80859, Note_on_c, 12, 72, 0
14, 80859, Note_on_c, 12, 63, 0
14, 80880, Note_on_c, 12, 63, 76
14, 80880, Note_on_c, 12, 72, 76
14, 80979, Note_on_c, 12, 63, 0
14, 80979, Note_on_c, 12, 72, 0
14, 81000, Note_on_c, 12, 72, 76
14, 81000, Note_on_c, 12, 63, 76
14, 81099, Note_on_c, 12, 72, 0
14, 81099, Note_on_c, 12, 63, 0
14, 81120, Note_on_c, 12, 72, 76
14, 81120, Note_on_c, 12, 63, 76
14, 81219, Note_on_c, 12, 72, 0
14, 81219, Note_on_c, 12, 63, 0
14, 81240, Note_on_c, 12, 72, 76
14, 81240, Note_on_c, 12, 63, 76
14, 81339, Note_on_c, 12, 72, 0
14, 81339, Note_on_c, 12, 63, 0
14, 81360, Note_on_c, 12, 72, 76
14, 81360, Note_on_c, 12, 63, 76
14, 81459, Note_on_c, 12, 72, 0
14, 81459, Note_on_c, 12, 63, 0
14, 81480, Note_on_c, 12, 72, 76
14, 81480, Note_on_c, 12, 63, 76
14, 81579, Note_on_c, 12, 72, 0
14, 81579, Note_on_c, 12, 63, 0
14, 81600, Note_on_c, 12, 63, 76
14, 81600, Note_on_c, 12, 72, 76
14, 81699, Note_on_c, 12, 63, 0
14, 81699, Note_on_c, 12, 72, 0
14, 81720, Note_on_c, 12, 63, 76
14, 81720, Note_on_c, 12, 72, 76
14, 81819, Note_on_c, 12, 63, 0
14, 81819, Note_on_c, 12, 72, 0
14, 81840, Note_on_c, 12, 63, 76
14, 81840, Note_on_c, 12, 72, 76
14, 81939, Note_on_c, 12, 63, 0
14, 81939, Note_on_c, 12, 72, 0
14, 81960, Note_on_c, 12, 63, 76
14, 81960, Note_on_c, 12, 72, 76
14, 82059, Note_on_c, 12, 63, 0
14, 82059, Note_on_c, 12, 72, 0
14, 82080, Note_on_c, 12, 62, 76
14, 82080, Note_on_c, 12, 71, 76
14, 82179, Note_on_c, 12, 62, 0
14, 82179, Note_on_c, 12, 71, 0
14, 82200, Note_on_c, 12, 77, 76
14, 82299, Note_on_c, 12, 77, 0
14, 82320, Note_on_c, 12, 74, 76
14, 82419, Note_on_c, 12, 74, 0
14, 82440, Note_on_c, 12, 74, 76
14, 82539, Note_on_c, 12, 74, 0
14, 82560, Note_on_c, 12, 71, 76
14, 82659, Note_on_c, 12, 71, 0
14, 82680, Note_on_c, 12, 67, 76
14, 82779, Note_on_c, 12, 67, 0
14, 82800, Note_on_c, 12, 65, 76
14, 82899, Note_on_c, 12, 65, 0
14, 82920, Note_on_c, 12, 65, 76
14, 83019, Note_on_c, 12, 65, 0
14, 83040, Note_on_c, 12, 62, 76
14, 83139, Note_on_c, 12, 62, 0
14, 83160, Note_on_c, 12, 59, 76
14, 83259, Note_on_c, 12, 59, 0
14, 83280, Note_on_c, 12, 55, 76
14, 83379, Note_on_c, 12, 55, 0
14, 83400, Note_on_c, 12, 65, 76
14, 83499, Note_on_c, 12, 65, 0
14, 83520, Note_on_c, 12, 62, 76
14, 83619, Note_on_c, 12, 62, 0
14, 83640, Note_on_c, 12, 59, 76
14, 83739, Note_on_c, 12, 59, 0
14, 83760, Note_on_c, 12, 60, 76
14, 83859, Note_on_c, 12, 60, 0
14, 83880, Note_on_c, 12, 60, 76
14, 83979, Note_on_c, 12, 60, 0
14, 84000, Note_on_c, 12, 72, 84
14, 84099, Note_on_c, 12, 72, 0
14, 84120, Note_on_c, 12, 75, 84
14, 84219, Note_on_c, 12, 75, 0
14, 84240, Note_on_c, 12, 75, 84
14, 84339, Note_on_c, 12, 75, 0
14, 84360, Note_on_c, 12, 75, 84
14, 84459, Note_on_c, 12, 75, 0
14, 84480, Note_on_c, 12, 72, 84
14, 84579, Note_on_c, 12, 72, 0
14, 84600, Note_on_c, 12, 69, 84
14, 84699, Note_on_c, 12, 69, 0
14, 84720, Note_on_c, 12, 69, 84
14, 84819, Note_on_c, 12, 69, 0
14, 84840, Note_on_c, 12, 69, 84
14, 84939, Note_on_c, 12, 69, 0
14, 84960, Note_on_c, 12, 66, 84
14, 85059, Note_on_c, 12, 66, 0
14, 85080, Note_on_c, 12, 63, 84
14, 85179, Note_on_c, 12, 63, 0
14, 85200, Note_on_c, 12, 63, 84
14, 85299, Note_on_c, 12, 63, 0
14, 85320, Note_on_c, 12, 63, 84
14, 85419, Note_on_c, 12, 63, 0
14, 85440, Note_on_c, 12, 60, 84
14, 85539, Note_on_c, 12, 60, 0
14, 85560, Note_on_c, 12, 57, 84
14, 85560, Note_on_c, 12, 69, 84
14, 85659, Note_on_c, 12, 57, 0
14, 85659, Note_on_c, 12, 69, 0
14, 85680, Note_on_c, 12, 57, 84
14, 85680, Note_on_c, 12, 69, 84
14, 85779, Note_on_c, 12, 57, 0
14, 85779, Note_on_c, 12, 69, 0
14, 85800, Note_on_c, 12, 57, 84
14, 85800, Note_on_c, 12, 69, 84
14, 85899, Note_on_c, 12, 57, 0
14, 85899, Note_on_c, 12, 69, 0
14, 85920, Note_on_c, 12, 69, 84
14, 85920, Note_on_c, 12, 57, 84
14, 86159, Note_on_c, 12, 69, 0
14, 86159, Note_on_c, 12, 57, 0
14, 86880, Note_on_c, 12, 65, 84
14, 86880, Note_on_c, 12, 58, 84
14, 86880, Note_on_c, 12, 70, 84
14, 87119, Note_on_c, 12, 65, 0
14, 87119, Note_on_c, 12, 58, 0
14, 87119, Note_on_c, 12, 70, 0
14, 89280, Note_on_c, 12, 67, 52
14, 89759, Note_on_c, 12, 67, 0
14, 89760, Note_on_c, 12, 68, 52
14, 90219, Note_on_c, 12, 68, 0
14, 90240, Note_on_c, 12, 68, 52
14, 90719, Note_on_c, 12, 68, 0
14, 90720, Note_on_c, 12, 67, 52
14, 91179, Note_on_c, 12, 67, 0
14, 91200, Note_on_c, 12, 67, 52
14, 91679, Note_on_c, 12, 67, 0
14, 91680, Note_on_c, 12, 68, 52
14, 92139, Note_on_c, 12, 68, 0
14, 92160, Note_on_c, 12, 68, 52
14, 92639, Note_on_c, 12, 68, 0
14, 92640, Note_on_c, 12, 67, 52
14, 93099, Note_on_c, 12, 67, 0
14, 93120, Note_on_c, 12, 67, 52
14, 93599, Note_on_c, 12, 67, 0
14, 93600, Note_on_c, 12, 68, 52
14, 94059, Note_on_c, 12, 68, 0
14, 94080, Note_on_c, 12, 68, 52
14, 94559, Note_on_c, 12, 68, 0
14, 94560, Note_on_c, 12, 67, 52
14, 95019, Note_on_c, 12, 67, 0
14, 95040, Note_on_c, 12, 67, 52
14, 95979, Note_on_c, 12, 67, 0
14, 96000, Note_on_c, 12, 67, 52
14, 96479, Note_on_c, 12, 67, 0
14, 96480, Note_on_c, 12, 65, 52
14, 96939, Note_on_c, 12, 65, 0
14, 96960, Note_on_c, 12, 68, 52
14, 97439, Note_on_c, 12, 68, 0
14, 97440, Note_on_c, 12, 70, 52
14, 97899, Note_on_c, 12, 70, 0
14, 97920, Note_on_c, 12, 70, 52
14, 98399, Note_on_c, 12, 70, 0
14, 98400, Note_on_c, 12, 68, 52
14, 98859, Note_on_c, 12, 68, 0
14, 98878, Control_c, 12, 11, 64
14, 98880, Note_on_c, 12, 63, 84
14, 99119, Note_on_c, 12, 63, 0
14, 99120, Note_on_c, 12, 65, 84
14, 99359, Note_on_c, 12, 65, 0
14, 99360, Note_on_c, 12, 66, 84
14, 99360, Control_c, 12, 11, 64
14, 99460, Control_c, 12, 11, 65
14, 99560, Control_c, 12, 11, 67
14, 99599, Note_on_c, 12, 66, 0
14, 99600, Note_on_c, 12, 65, 84
14, 99660, Control_c, 12, 11, 68
14, 99760, Control_c, 12, 11, 69
14, 99839, Note_on_c, 12, 65, 0
14, 99840, Note_on_c, 12, 63, 84
14, 99860, Control_c, 12, 11, 71
14, 99960, Control_c, 12, 11, 72
14, 100060, Control_c, 12, 11, 73
14, 100079, Note_on_c, 12, 63, 0
14, 100080, Note_on_c, 12, 65, 84
14, 100160, Control_c, 12, 11, 75
14, 100260, Control_c, 12, 11, 76
14, 100299, Note_on_c, 12, 65, 0
14, 100320, Note_on_c, 12, 66, 84
14, 100360, Control_c, 12, 11, 77
14, 100460, Control_c, 12, 11, 78
14, 100559, Note_on_c, 12, 66, 0
14, 100560, Note_on_c, 12, 65, 84
14, 100560, Control_c, 12, 11, 80
14, 100660, Control_c, 12, 11, 81
14, 100760, Control_c, 12, 11, 82
14, 100799, Note_on_c, 12, 65, 0
14, 100800, Note_on_c, 12, 63, 84
14, 100860, Control_c, 12, 11, 84
14, 100960, Control_c, 12, 11, 85
14, 101039, Note_on_c, 12, 63, 0
14, 101040, Note_on_c, 12, 65, 84
14, 101060, Control_c, 12, 11, 86
14, 101160, Control_c, 12, 11, 88
14, 101259, Note_on_c, 12, 65, 0
14, 101260, Control_c, 12, 11, 89
14, 101280, Note_on_c, 12, 66, 84
14, 101360, Control_c, 12, 11, 90
14, 101460, Control_c, 12, 11, 92
14, 101519, Note_on_c, 12, 66, 0
14, 101520, Note_on_c, 12, 65, 84
14, 101560, Control_c, 12, 11, 93
14, 101660, Control_c, 12, 11, 94
14, 101759, Note_on_c, 12, 65, 0
14, 101760, Note_on_c, 12, 63, 84
14, 101760, Control_c, 12, 11, 96
14, 101860, Control_c, 12, 11, 97
14, 101960, Control_c, 12, 11, 98
14, 101999, Note_on_c, 12, 63, 0
14, 102000, Note_on_c, 12, 65, 84
14, 102060, Control_c, 12, 11, 99
14, 102160, Control_c, 12, 11, 101
14, 102219, Note_on_c, 12, 65, 0
14, 102240, Note_on_c, 12, 66, 84
14, 102260, Control_c, 12, 11, 102
14, 102360, Control_c, 12, 11, 103
14, 102460, Control_c, 12, 11, 105
14, 102479, Note_on_c, 12, 66, 0
14, 102480, Note_on_c, 12, 65, 84
14, 102560, Control_c, 12, 11, 106
14, 102660, Control_c, 12, 11, 107
14, 102719, Note_on_c, 12, 65, 0
14, 102720, Note_on_c, 12, 63, 84
14, 102760, Control_c, 12, 11, 109
14, 102860, Control_c, 12, 11, 110
14, 102959, Note_on_c, 12, 63, 0
14, 102960, Control_c, 12, 11, 111
14, 102960, Note_on_c, 12, 65, 84
14, 103060, Control_c, 12, 11, 113
14, 103160, Control_c, 12, 11, 114
14, 103199, Note_on_c, 12, 65, 0
14, 103200, Note_on_c, 12, 66, 84
14, 103260, Control_c, 12, 11, 115
14, 103360, Control_c, 12, 11, 117
14, 103439, Note_on_c, 12, 66, 0
14, 103440, Note_on_c, 12, 65, 84
14, 103460, Control_c, 12, 11, 118
14, 103560, Control_c, 12, 11, 119
14, 103660, Control_c, 12, 11, 120
14, 103679, Note_on_c, 12, 65, 0
14, 103680, Note_on_c, 12, 66, 84
14, 103760, Control_c, 12, 11, 122
14, 103860, Control_c, 12, 11, 123
14, 103919, Note_on_c, 12, 66, 0
14, 103920, Note_on_c, 12, 69, 84
14, 103960, Control_c, 12, 11, 124
14, 104060, Control_c, 12, 11, 127
14, 104139, Note_on_c, 12, 69, 0
14, 104160, Note_on_c, 12, 82, 84
14, 104160, Note_on_c, 12, 70, 84
14, 104739, Note_on_c, 12, 82, 0
14, 104739, Note_on_c, 12, 70, 0
14, 104760, Note_on_c, 12, 84, 84
14, 104849, Note_on_c, 12, 84, 0
14, 104880, Note_on_c, 12, 82, 84
14, 104969, Note_on_c, 12, 82, 0
14, 105000, Note_on_c, 12, 80, 84
14, 105089, Note_on_c, 12, 80, 0
14, 105120, Note_on_c, 12, 80, 84
14, 105239, Note_on_c, 12, 80, 0
14, 105240, Note_on_c, 12, 79, 84
14, 105339, Note_on_c, 12, 79, 0
14, 105360, Note_on_c, 12, 77, 84
14, 105449, Note_on_c, 12, 77, 0
14, 105480, Note_on_c, 12, 75, 84
14, 105569, Note_on_c, 12, 75, 0
14, 105600, Note_on_c, 12, 75, 84
14, 105719, Note_on_c, 12, 75, 0
14, 105720, Note_on_c, 12, 74, 84
14, 105819, Note_on_c, 12, 74, 0
14, 105840, Note_on_c, 12, 72, 84
14, 105929, Note_on_c, 12, 72, 0
14, 105960, Note_on_c, 12, 74, 84
14, 106049, Note_on_c, 12, 74, 0
14, 106080, Note_on_c, 12, 77, 84
14, 106199, Note_on_c, 12, 77, 0
14, 106200, Note_on_c, 12, 75, 84
14, 106299, Note_on_c, 12, 75, 0
14, 106320, Note_on_c, 12, 70, 84
14, 106409, Note_on_c, 12, 70, 0
14, 106440, Note_on_c, 12, 67, 84
14, 106529, Note_on_c, 12, 67, 0
14, 106560, Note_on_c, 12, 74, 84
14, 106679, Note_on_c, 12, 74, 0
14, 106680, Note_on_c, 12, 72, 84
14, 106779, Note_on_c, 12, 72, 0
14, 106800, Note_on_c, 12, 68, 84
14, 106889, Note_on_c, 12, 68, 0
14, 106920, Note_on_c, 12, 65, 84
14, 107009, Note_on_c, 12, 65, 0
14, 107040, Note_on_c, 12, 72, 84
14, 107159, Note_on_c, 12, 72, 0
14, 107160, Note_on_c, 12, 70, 84
14, 107259, Note_on_c, 12, 70, 0
14, 107280, Note_on_c, 12, 67, 84
14, 107369, Note_on_c, 12, 67, 0
14, 107400, Note_on_c, 12, 63, 84
14, 107489, Note_on_c, 12, 63, 0
14, 107520, Note_on_c, 12, 58, 84
14, 107619, Note_on_c, 12, 58, 0
14, 107640, Note_on_c, 12, 69, 84
14, 107759, Note_on_c, 12, 69, 0
14, 107760, Note_on_c, 12, 70, 84
14, 107879, Note_on_c, 12, 70, 0
14, 107880, Note_on_c, 12, 69, 84
14, 107999, Note_on_c, 12, 69, 0
14, 108000, Note_on_c, 12, 70, 84
14, 108119, Note_on_c, 12, 70, 0
14, 108120, Note_on_c, 12, 69, 84
14, 108239, Note_on_c, 12, 69, 0
14, 108240, Note_on_c, 12, 70, 84
14, 108359, Note_on_c, 12, 70, 0
14, 108360, Note_on_c, 12, 69, 84
14, 108459, Note_on_c, 12, 69, 0
14, 108480, Note_on_c, 12, 70, 84
14, 108569, Note_on_c, 12, 70, 0
14, 108600, Note_on_c, 12, 84, 84
14, 108689, Note_on_c, 12, 84, 0
14, 108720, Note_on_c, 12, 82, 84
14, 108809, Note_on_c, 12, 82, 0
14, 108840, Note_on_c, 12, 80, 84
14, 108929, Note_on_c, 12, 80, 0
14, 108960, Note_on_c, 12, 80, 84
14, 109079, Note_on_c, 12, 80, 0
14, 109080, Note_on_c, 12, 79, 84
14, 109179, Note_on_c, 12, 79, 0
14, 109200, Note_on_c, 12, 77, 84
14, 109289, Note_on_c, 12, 77, 0
14, 109320, Note_on_c, 12, 75, 84
14, 109409, Note_on_c, 12, 75, 0
14, 109440, Note_on_c, 12, 75, 84
14, 109559, Note_on_c, 12, 75, 0
14, 109560, Note_on_c, 12, 74, 84
14, 109659, Note_on_c, 12, 74, 0
14, 109680, Note_on_c, 12, 72, 84
14, 109769, Note_on_c, 12, 72, 0
14, 109800, Note_on_c, 12, 74, 84
14, 109889, Note_on_c, 12, 74, 0
14, 109920, Note_on_c, 12, 77, 84
14, 110039, Note_on_c, 12, 77, 0
14, 110040, Note_on_c, 12, 75, 84
14, 110139, Note_on_c, 12, 75, 0
14, 110160, Note_on_c, 12, 70, 84
14, 110249, Note_on_c, 12, 70, 0
14, 110280, Note_on_c, 12, 67, 84
14, 110369, Note_on_c, 12, 67, 0
14, 110400, Note_on_c, 12, 74, 84
14, 110519, Note_on_c, 12, 74, 0
14, 110520, Note_on_c, 12, 72, 84
14, 110619, Note_on_c, 12, 72, 0
14, 110640, Note_on_c, 12, 68, 84
14, 110729, Note_on_c, 12, 68, 0
14, 110760, Note_on_c, 12, 65, 84
14, 110849, Note_on_c, 12, 65, 0
14, 110880, Note_on_c, 12, 72, 84
14, 110999, Note_on_c, 12, 72, 0
14, 111000, Note_on_c, 12, 70, 84
14, 111099, Note_on_c, 12, 70, 0
14, 111120, Note_on_c, 12, 67, 84
14, 111209, Note_on_c, 12, 67, 0
14, 111240, Note_on_c, 12, 63, 84
14, 111329, Note_on_c, 12, 63, 0
14, 111360, Note_on_c, 12, 58, 84
14, 111459, Note_on_c, 12, 58, 0
14, 111480, Note_on_c, 12, 70, 84
14, 111579, Note_on_c, 12, 70, 0
14, 111600, Note_on_c, 12, 82, 84
14, 111699, Note_on_c, 12, 82, 0
14, 111720, Note_on_c, 12, 82, 84
14, 111819, Note_on_c, 12, 82, 0
14, 111840, Note_on_c, 12, 63, 84
14, 113379, Note_on_c, 12, 63, 0
14, 113400, Note_on_c, 12, 62, 84
14, 113499, Note_on_c, 12, 62, 0
14, 113520, Note_on_c, 12, 62, 84
14, 113619, Note_on_c, 12, 62, 0
14, 113640, Note_on_c, 12, 62, 84
14, 113739, Note_on_c, 12, 62, 0
14, 113760, Note_on_c, 12, 63, 84
14, 115299, Note_on_c, 12, 63, 0
14, 115320, Note_on_c, 12, 74, 84
14, 115320, Note_on_c, 12, 65, 84
14, 115419, Note_on_c, 12, 74, 0
14, 115419, Note_on_c, 12, 65, 0
14, 115440, Note_on_c, 12, 74, 84
14, 115440, Note_on_c, 12, 65, 84
14, 115539, Note_on_c, 12, 74, 0
14, 115539, Note_on_c, 12, 65, 0
14, 115560, Note_on_c, 12, 74, 84
14, 115560, Note_on_c, 12, 65, 84
14, 115659, Note_on_c, 12, 74, 0
14, 115659, Note_on_c, 12, 65, 0
14, 115680, Note_on_c, 12, 67, 84
14, 115680, Note_on_c, 12, 75, 84
14, 115919, Note_on_c, 12, 67, 0
14, 115919, Note_on_c, 12, 75, 0
14, 116280, Note_on_c, 12, 65, 84
14, 116280, Note_on_c, 12, 74, 84
14, 116379, Note_on_c, 12, 65, 0
14, 116379, Note_on_c, 12, 74, 0
14, 116400, Note_on_c, 12, 65, 84
14, 116400, Note_on_c, 12, 74, 84
14, 116499, Note_on_c, 12, 65, 0
14, 116499, Note_on_c, 12, 74, 0
14, 116520, Note_on_c, 12, 65, 84
14, 116520, Note_on_c, 12, 74, 84
14, 116619, Note_on_c, 12, 65, 0
14, 116619, Note_on_c, 12, 74, 0
14, 116640, Note_on_c, 12, 75, 84
14, 116640, Note_on_c, 12, 67, 84
14, 116879, Note_on_c, 12, 75, 0
14, 116879, Note_on_c, 12, 67, 0
14, 117240, Note_on_c, 12, 70, 84
14, 117240, Note_on_c, 12, 77, 84
14, 117339, Note_on_c, 12, 70, 0
14, 117339, Note_on_c, 12, 77, 0
14, 117360, Note_on_c, 12, 70, 84
14, 117360, Note_on_c, 12, 77, 84
14, 117459, Note_on_c, 12, 70, 0
14, 117459, Note_on_c, 12, 77, 0
14, 117480, Note_on_c, 12, 77, 84
14, 117480, Note_on_c, 12, 70, 84
14, 117579, Note_on_c, 12, 77, 0
14, 117579, Note_on_c, 12, 70, 0
14, 117600, Note_on_c, 12, 79, 84
14, 117600, Note_on_c, 12, 63, 84
14, 117600, Note_on_c, 12, 70, 84
14, 117839, Note_on_c, 12, 79, 0
14, 117839, Note_on_c, 12, 63, 0
14, 117839, Note_on_c, 12, 70, 0
14, 119640, Note_on_c, 12, 61, 84
14, 119739, Note_on_c, 12, 61, 0
14, 119760, Note_on_c, 12, 61, 84
14, 119859, Note_on_c, 12, 61, 0
14, 119880, Note_on_c, 12, 61, 84
14, 119979, Note_on_c, 12, 61, 0
14, 120000, Note_on_c, 12, 60, 84
14, 120959, Note_on_c, 12, 60, 0
14, 121080, Note_on_c, 12, 72, 52
14, 121179, Note_on_c, 12, 72, 0
14, 121200, Note_on_c, 12, 72, 52
14, 121299, Note_on_c, 12, 72, 0
14, 121320, Note_on_c, 12, 72, 52
14, 121419, Note_on_c, 12, 72, 0
14, 121440, Note_on_c, 12, 68, 52
14, 122979, Note_on_c, 12, 68, 0
14, 123000, Note_on_c, 12, 72, 52
14, 123099, Note_on_c, 12, 72, 0
14, 123120, Note_on_c, 12, 72, 52
14, 123219, Note_on_c, 12, 72, 0
14, 123240, Note_on_c, 12, 72, 52
14, 123339, Note_on_c, 12, 72, 0
14, 123360, Note_on_c, 12, 67, 52
14, 125259, Note_on_c, 12, 67, 0
14, 125280, Note_on_c, 12, 68, 52
14, 125379, Note_on_c, 12, 68, 0
14, 125400, Note_on_c, 12, 68, 52
14, 125499, Note_on_c, 12, 68, 0
14, 125520, Note_on_c, 12, 68, 52
14, 125619, Note_on_c, 12, 68, 0
14, 125640, Note_on_c, 12, 70, 52
14, 125739, Note_on_c, 12, 70, 0
14, 125760, Note_on_c, 12, 72, 52
14, 126339, Note_on_c, 12, 72, 0
14, 126360, Note_on_c, 12, 68, 52
14, 126459, Note_on_c, 12, 68, 0
14, 126480, Note_on_c, 12, 68, 52
14, 126579, Note_on_c, 12, 68, 0
14, 126600, Note_on_c, 12, 70, 52
14, 126699, Note_on_c, 12, 70, 0
14, 126720, Note_on_c, 12, 72, 52
14, 127439, Note_on_c, 12, 72, 0
14, 129120, Control_c, 12, 11, 96
14, 129240, Note_on_c, 12, 63, 68
14, 129339, Note_on_c, 12, 63, 0
14, 129360, Note_on_c, 12, 63, 68
14, 129459, Note_on_c, 12, 63, 0
14, 129480, Note_on_c, 12, 65, 68
14, 129579, Note_on_c, 12, 65, 0
14, 129600, Note_on_c, 12, 67, 68
14, 130179, Note_on_c, 12, 67, 0
14, 130200, Note_on_c, 12, 63, 68
14, 130299, Note_on_c, 12, 63, 0
14, 130320, Note_on_c, 12, 63, 68
14, 130419, Note_on_c, 12, 63, 0
14, 130440, Note_on_c, 12, 65, 68
14, 130539, Note_on_c, 12, 65, 0
14, 130560, Note_on_c, 12, 67, 68
14, 131040, Control_c, 12, 11, 96
14, 131100, Control_c, 12, 11, 97
14, 131160, Control_c, 12, 11, 99
14, 131220, Control_c, 12, 11, 100
14, 131280, Control_c, 12, 11, 101
14, 131340, Control_c, 12, 11, 102
14, 131400, Control_c, 12, 11, 104
14, 131460, Control_c, 12, 11, 105
14, 131519, Note_on_c, 12, 67, 0
14, 131520, Note_on_c, 12, 69, 68
14, 131520, Control_c, 12, 11, 106
14, 131580, Control_c, 12, 11, 108
14, 131640, Control_c, 12, 11, 109
14, 131700, Control_c, 12, 11, 110
14, 131759, Note_on_c, 12, 69, 0
14, 131760, Control_c, 12, 11, 112
14, 131760, Note_on_c, 12, 70, 68
14, 131820, Control_c, 12, 11, 113
14, 131880, Control_c, 12, 11, 114
14, 131940, Control_c, 12, 11, 115
14, 131999, Note_on_c, 12, 70, 0
14, 132000, Control_c, 12, 11, 117
14, 132000, Note_on_c, 12, 72, 68
14, 132060, Control_c, 12, 11, 118
14, 132120, Control_c, 12, 11, 119
14, 132180, Control_c, 12, 11, 121
14, 132239, Note_on_c, 12, 72, 0
14, 132240, Note_on_c, 12, 73, 68
14, 132240, Control_c, 12, 11, 122
14, 132300, Control_c, 12, 11, 123
14, 132360, Control_c, 12, 11, 124
14, 132420, Control_c, 12, 11, 127
14, 132459, Note_on_c, 12, 73, 0
14, 132480, Note_on_c, 12, 74, 52
14, 133059, Note_on_c, 12, 74, 0
14, 133080, Note_on_c, 12, 67, 52
14, 133179, Note_on_c, 12, 67, 0
14, 133200, Note_on_c, 12, 67, 52
14, 133299, Note_on_c, 12, 67, 0
14, 133320, Note_on_c, 12, 69, 52
14, 133419, Note_on_c, 12, 69, 0
14, 133440, Note_on_c, 12, 66, 52
14, 133679, Note_on_c, 12, 66, 0
14, 134040, Note_on_c, 12, 79, 52
14, 134139, Note_on_c, 12, 79, 0
14, 134160, Note_on_c, 12, 79, 52
14, 134259, Note_on_c, 12, 79, 0
14, 134280, Note_on_c, 12, 81, 52
14, 134379, Note_on_c, 12, 81, 0
14, 134400, Note_on_c, 12, 78, 52
14, 134619, Note_on_c, 12, 78, 0
14, 134640, Note_on_c, 12, 74, 52
14, 134979, Note_on_c, 12, 74, 0
14, 135000, Note_on_c, 12, 67, 52
14, 135099, Note_on_c, 12, 67, 0
14, 135120, Note_on_c, 12, 67, 52
14, 135219, Note_on_c, 12, 67, 0
14, 135240, Note_on_c, 12, 69, 52
14, 135339, Note_on_c, 12, 69, 0
14, 135360, Note_on_c, 12, 70, 52
14, 135599, Note_on_c, 12, 70, 0
14, 135960, Note_on_c, 12, 66, 52
14, 136059, Note_on_c, 12, 66, 0
14, 136080, Note_on_c, 12, 69, 52
14, 136179, Note_on_c, 12, 69, 0
14, 136200, Note_on_c, 12, 70, 52
14, 136299, Note_on_c, 12, 70, 0
14, 136320, Note_on_c, 12, 72, 52
14, 136559, Note_on_c, 12, 72, 0
14, 136920, Note_on_c, 12, 66, 52
14, 137019, Note_on_c, 12, 66, 0
14, 137040, Note_on_c, 12, 69, 52
14, 137139, Note_on_c, 12, 69, 0
14, 137160, Note_on_c, 12, 70, 52
14, 137259, Note_on_c, 12, 70, 0
14, 137280, Note_on_c, 12, 72, 52
14, 137519, Note_on_c, 12, 72, 0
14, 137880, Note_on_c, 12, 67, 52
14, 137979, Note_on_c, 12, 67, 0
14, 138000, Note_on_c, 12, 70, 52
14, 138099, Note_on_c, 12, 70, 0
14, 138120, Note_on_c, 12, 72, 52
14, 138219, Note_on_c, 12, 72, 0
14, 138240, Note_on_c, 12, 74, 52
14, 138479, Note_on_c, 12, 74, 0
14, 138840, Note_on_c, 12, 67, 55
14, 138939, Note_on_c, 12, 67, 0
14, 138960, Note_on_c, 12, 70, 58
14, 139059, Note_on_c, 12, 70, 0
14, 139080, Note_on_c, 12, 72, 61
14, 139179, Note_on_c, 12, 72, 0
14, 139200, Note_on_c, 12, 74, 64
14, 139299, Note_on_c, 12, 74, 0
14, 139320, Note_on_c, 12, 70, 67
14, 139419, Note_on_c, 12, 70, 0
14, 139440, Note_on_c, 12, 72, 70
14, 139539, Note_on_c, 12, 72, 0
14, 139560, Note_on_c, 12, 74, 73
14, 139659, Note_on_c, 12, 74, 0
14, 139680, Note_on_c, 12, 69, 76
14, 139779, Note_on_c, 12, 69, 0
14, 139800, Note_on_c, 12, 69, 76
14, 139800, Note_on_c, 12, 78, 76
14, 139899, Note_on_c, 12, 69, 0
14, 139899, Note_on_c, 12, 78, 0
14, 139920, Note_on_c, 12, 69, 76
14, 139920, Note_on_c, 12, 78, 76
14, 140019, Note_on_c, 12, 69, 0
14, 140019, Note_on_c, 12, 78, 0
14, 140040, Note_on_c, 12, 78, 76
14, 140040, Note_on_c, 12, 69, 76
14, 140139, Note_on_c, 12, 78, 0
14, 140139, Note_on_c, 12, 69, 0
14, 140160, Note_on_c, 12, 78, 76
14, 140160, Note_on_c, 12, 69, 76
14, 140259, Note_on_c, 12, 78, 0
14, 140259, Note_on_c, 12, 69, 0
14, 140280, Note_on_c, 12, 69, 76
14, 140280, Note_on_c, 12, 78, 76
14, 140379, Note_on_c, 12, 69, 0
14, 140379, Note_on_c, 12, 78, 0
14, 140400, Note_on_c, 12, 78, 76
14, 140400, Note_on_c, 12, 69, 76
14, 140499, Note_on_c, 12, 78, 0
14, 140499, Note_on_c, 12, 69, 0
14, 140520, Note_on_c, 12, 78, 76
14, 140520, Note_on_c, 12, 69, 76
14, 140619, Note_on_c, 12, 78, 0
14, 140619, Note_on_c, 12, 69, 0
14, 140640, Note_on_c, 12, 69, 76
14, 140640, Note_on_c, 12, 78, 76
14, 140879, Note_on_c, 12, 69, 0
14, 140879, Note_on_c, 12, 78, 0
14, 141240, Note_on_c, 12, 67, 76
14, 141240, Note_on_c, 12, 70, 76
14, 141339, Note_on_c, 12, 67, 0
14, 141339, Note_on_c, 12, 70, 0
14, 141360, Note_on_c, 12, 67, 76
14, 141360, Note_on_c, 12, 70, 76
14, 141459, Note_on_c, 12, 67, 0
14, 141459, Note_on_c, 12, 70, 0
14, 141480, Note_on_c, 12, 67, 76
14, 141480, Note_on_c, 12, 70, 76
14, 141579, Note_on_c, 12, 67, 0
14, 141579, Note_on_c, 12, 70, 0
14, 141600, Note_on_c, 12, 70, 76
14, 141600, Note_on_c, 12, 67, 76
14, 141699, Note_on_c, 12, 70, 0
14, 141699, Note_on_c, 12, 67, 0
14, 141720, Note_on_c, 12, 70, 76
14, 141720, Note_on_c, 12, 79, 76
14, 141819, Note_on_c, 12, 70, 0
14, 141819, Note_on_c, 12, 79, 0
14, 141840, Note_on_c, 12, 70, 76
14, 141840, Note_on_c, 12, 79, 76
14, 141939, Note_on_c, 12, 70, 0
14, 141939, Note_on_c, 12, 79, 0
14, 141960, Note_on_c, 12, 70, 76
14, 141960, Note_on_c, 12, 79, 76
14, 142059, Note_on_c, 12, 70, 0
14, 142059, Note_on_c, 12, 79, 0
14, 142080, Note_on_c, 12, 79, 76
14, 142080, Note_on_c, 12, 70, 76
14, 142179, Note_on_c, 12, 79, 0
14, 142179, Note_on_c, 12, 70, 0
14, 142200, Note_on_c, 12, 79, 76
14, 142200, Note_on_c, 12, 70, 76
14, 142299, Note_on_c, 12, 79, 0
14, 142299, Note_on_c, 12, 70, 0
14, 142320, Note_on_c, 12, 70, 76
14, 142320, Note_on_c, 12, 79, 76
14, 142419, Note_on_c, 12, 70, 0
14, 142419, Note_on_c, 12, 79, 0
14, 142440, Note_on_c, 12, 70, 76
14, 142440, Note_on_c, 12, 79, 76
14, 142539, Note_on_c, 12, 70, 0
14, 142539, Note_on_c, 12, 79, 0
14, 142560, Note_on_c, 12, 79, 76
14, 142560, Note_on_c, 12, 70, 76
14, 142799, Note_on_c, 12, 79, 0
14, 142799, Note_on_c, 12, 70, 0
14, 143160, Note_on_c, 12, 70, 80
14, 143160, Note_on_c, 12, 79, 80
14, 143259, Note_on_c, 12, 70, 0
14, 143259, Note_on_c, 12, 79, 0
14, 143280, Note_on_c, 12, 79, 80
14, 143280, Note_on_c, 12, 70, 80
14, 143379, Note_on_c, 12, 79, 0
14, 143379, Note_on_c, 12, 70, 0
14, 143400, Note_on_c, 12, 79, 80
14, 143400, Note_on_c, 12, 70, 80
14, 143499, Note_on_c, 12, 79, 0
14, 143499, Note_on_c, 12, 70, 0
14, 143520, Note_on_c, 12, 70, 80
14, 143520, Note_on_c, 12, 79, 80
14, 143759, Note_on_c, 12, 70, 0
14, 143759, Note_on_c, 12, 79, 0
14, 144240, Note_on_c, 12, 73, 80
14, 144339, Note_on_c, 12, 73, 0
14, 144360, Note_on_c, 12, 73, 80
14, 144459, Note_on_c, 12, 73, 0
14, 144480, Note_on_c, 12, 73, 80
14, 144699, Note_on_c, 12, 73, 0
14, 144720, Note_on_c, 12, 74, 80
14, 144819, Note_on_c, 12, 74, 0
14, 144840, Note_on_c, 12, 74, 80
14, 144939, Note_on_c, 12, 74, 0
14, 144960, Note_on_c, 12, 74, 80
14, 145059, Note_on_c, 12, 74, 0
14, 145080, Note_on_c, 12, 74, 84
14, 145179, Note_on_c, 12, 74, 0
14, 145200, Note_on_c, 12, 74, 84
14, 145299, Note_on_c, 12, 74, 0
14, 145320, Note_on_c, 12, 74, 84
14, 145419, Note_on_c, 12, 74, 0
14, 145440, Note_on_c, 12, 67, 92
14, 145879, Note_on_c, 12, 67, 0
14, 145920, Note_on_c, 12, 69, 92
14, 146359, Note_on_c, 12, 69, 0
14, 146400, Note_on_c, 12, 62, 92
14, 146519, Note_on_c, 12, 62, 0
14, 146520, Note_on_c, 12, 62, 84
14, 148059, Note_on_c, 12, 62, 0
14, 148080, Note_on_c, 12, 66, 84
14, 148179, Note_on_c, 12, 66, 0
14, 148200, Note_on_c, 12, 66, 84
14, 148299, Note_on_c, 12, 66, 0
14, 148320, Note_on_c, 12, 69, 84
14, 148539, Note_on_c, 12, 69, 0
14, 148560, Note_on_c, 12, 74, 84
14, 148659, Note_on_c, 12, 74, 0
14, 148680, Note_on_c, 12, 74, 84
14, 148779, Note_on_c, 12, 74, 0
14, 148800, Note_on_c, 12, 71, 84
14, 148899, Note_on_c, 12, 71, 0
14, 148920, Note_on_c, 12, 67, 84
14, 149019, Note_on_c, 12, 67, 0
14, 149040, Note_on_c, 12, 67, 84
14, 149139, Note_on_c, 12, 67, 0
14, 149160, Note_on_c, 12, 67, 84
14, 149259, Note_on_c, 12, 67, 0
14, 149280, Note_on_c, 12, 60, 92
14, 149719, Note_on_c, 12, 60, 0
14, 149760, Note_on_c, 12, 62, 92
14, 150199, Note_on_c, 12, 62, 0
14, 150240, Note_on_c, 12, 55, 92
14, 150359, Note_on_c, 12, 55, 0
14, 150360, Note_on_c, 12, 55, 84
14, 151899, Note_on_c, 12, 55, 0
14, 151920, Note_on_c, 12, 59, 84
14, 152019, Note_on_c, 12, 59, 0
14, 152040, Note_on_c, 12, 59, 84
14, 152139, Note_on_c, 12, 59, 0
14, 152160, Note_on_c, 12, 62, 84
14, 152379, Note_on_c, 12, 62, 0
14, 152400, Note_on_c, 12, 67, 84
14, 152499, Note_on_c, 12, 67, 0
14, 152520, Note_on_c, 12, 67, 84
14, 152619, Note_on_c, 12, 67, 0
14, 152640, Note_on_c, 12, 64, 84
14, 152879, Note_on_c, 12, 64, 0
14, 154080, Note_on_c, 12, 58, 84
14, 154539, Note_on_c, 12, 58, 0
14, 154560, Note_on_c, 12, 60, 84
14, 155039, Note_on_c, 12, 60, 0
14, 156000, Note_on_c, 12, 58, 84
14, 156459, Note_on_c, 12, 58, 0
14, 156480, Note_on_c, 12, 60, 84
14, 156959, Note_on_c, 12, 60, 0
14, 157920, Note_on_c, 12, 61, 84
14, 158379, Note_on_c, 12, 61, 0
14, 158400, Note_on_c, 12, 57, 84
14, 158879, Note_on_c, 12, 57, 0
14, 159840, Note_on_c, 12, 65, 84
14, 160319, Note_on_c, 12, 65, 0
14, 160800, Note_on_c, 12, 59, 74
14, 161279, Note_on_c, 12, 59, 0
14, 161760, Note_on_c, 12, 56, 63
14, 162239, Note_on_c, 12, 56, 0
14, 162720, Note_on_c, 12, 57, 52
14, 163199, Note_on_c, 12, 57, 0
14, 163680, Note_on_c, 12, 57, 51
14, 164159, Note_on_c, 12, 57, 0
14, 164640, Note_on_c, 12, 57, 48
14, 165119, Note_on_c, 12, 57, 0
14, 165600, Note_on_c, 12, 57, 44
14, 166079, Note_on_c, 12, 57, 0
14, 166560, Note_on_c, 12, 57, 44
14, 167039, Note_on_c, 12, 57, 0
14, 167520, Note_on_c, 12, 57, 44
14, 167999, Note_on_c, 12, 57, 0
14, 168480, Note_on_c, 12, 57, 84
14, 168579, Note_on_c, 12, 57, 0
14, 168600, Note_on_c, 12, 62, 84
14, 168699, Note_on_c, 12, 62, 0
14, 168720, Note_on_c, 12, 62, 84
14, 168819, Note_on_c, 12, 62, 0
14, 168840, Note_on_c, 12, 62, 84
14, 168939, Note_on_c, 12, 62, 0
14, 168960, Note_on_c, 12, 59, 84
14, 169419, Note_on_c, 12, 59, 0
14, 169440, Note_on_c, 12, 60, 84
14, 169899, Note_on_c, 12, 60, 0
14, 169920, Note_on_c, 12, 57, 84
14, 170879, Note_on_c, 12, 57, 0
14, 171360, Note_on_c, 12, 56, 44
14, 171839, Note_on_c, 12, 56, 0
14, 172320, Note_on_c, 12, 56, 44
14, 172799, Note_on_c, 12, 56, 0
14, 173280, Note_on_c, 12, 56, 44
14, 173759, Note_on_c, 12, 56, 0
14, 174240, Note_on_c, 12, 56, 76
14, 174479, Note_on_c, 12, 56, 0
14, 174840, Note_on_c, 12, 68, 84
14, 174939, Note_on_c, 12, 68, 0
14, 174960, Note_on_c, 12, 68, 84
14, 175059, Note_on_c, 12, 68, 0
14, 175080, Note_on_c, 12, 68, 84
14, 175179, Note_on_c, 12, 68, 0
14, 175200, Note_on_c, 12, 65, 84
14, 175779, Note_on_c, 12, 65, 0
14, 175800, Note_on_c, 12, 68, 84
14, 175899, Note_on_c, 12, 68, 0
14, 175920, Note_on_c, 12, 68, 84
14, 176019, Note_on_c, 12, 68, 0
14, 176040, Note_on_c, 12, 68, 84
14, 176139, Note_on_c, 12, 68, 0
14, 176160, Note_on_c, 12, 65, 84
14, 176739, Note_on_c, 12, 65, 0
14, 176760, Note_on_c, 12, 68, 84
14, 176859, Note_on_c, 12, 68, 0
14, 176880, Note_on_c, 12, 68, 84
14, 176979, Note_on_c, 12, 68, 0
14, 177000, Note_on_c, 12, 68, 84
14, 177099, Note_on_c, 12, 68, 0
14, 177120, Note_on_c, 12, 65, 84
14, 177219, Note_on_c, 12, 65, 0
14, 177240, Note_on_c, 12, 68, 84
14, 177339, Note_on_c, 12, 68, 0
14, 177360, Note_on_c, 12, 68, 84
14, 177459, Note_on_c, 12, 68, 0
14, 177480, Note_on_c, 12, 68, 84
14, 177579, Note_on_c, 12, 68, 0
14, 177600, Note_on_c, 12, 65, 84
14, 177699, Note_on_c, 12, 65, 0
14, 177720, Note_on_c, 12, 68, 84
14, 177819, Note_on_c, 12, 68, 0
14, 177840, Note_on_c, 12, 68, 84
14, 177939, Note_on_c, 12, 68, 0
14, 177960, Note_on_c, 12, 68, 84
14, 178059, Note_on_c, 12, 68, 0
14, 178080, Note_on_c, 12, 65, 84
14, 178179, Note_on_c, 12, 65, 0
14, 178200, Note_on_c, 12, 67, 84
14, 178299, Note_on_c, 12, 67, 0
14, 178320, Note_on_c, 12, 67, 84
14, 178419, Note_on_c, 12, 67, 0
14, 178440, Note_on_c, 12, 67, 84
14, 178539, Note_on_c, 12, 67, 0
14, 178560, Note_on_c, 12, 63, 84
14, 179999, Note_on_c, 12, 63, 0
14, 180120, Note_on_c, 12, 65, 84
14, 180219, Note_on_c, 12, 65, 0
14, 180240, Note_on_c, 12, 65, 84
14, 180339, Note_on_c, 12, 65, 0
14, 180360, Note_on_c, 12, 65, 84
14, 180459, Note_on_c, 12, 65, 0
14, 180480, Note_on_c, 12, 62, 84
14, 182399, Note_on_c, 12, 62, 0
14, 182520, Note_on_c, 12, 67, 52
14, 182619, Note_on_c, 12, 67, 0
14, 182640, Note_on_c, 12, 67, 52
14, 182739, Note_on_c, 12, 67, 0
14, 182760, Note_on_c, 12, 67, 52
14, 182859, Note_on_c, 12, 67, 0
14, 182880, Note_on_c, 12, 63, 52
14, 184079, Note_on_c, 12, 63, 0
14, 184440, Note_on_c, 12, 67, 52
14, 184539, Note_on_c, 12, 67, 0
14, 184560, Note_on_c, 12, 67, 52
14, 184659, Note_on_c, 12, 67, 0
14, 184680, Note_on_c, 12, 67, 52
14, 184779, Note_on_c, 12, 67, 0
14, 184800, Note_on_c, 12, 62, 52
14, 185999, Note_on_c, 12, 62, 0
14, 186840, Note_on_c, 12, 63, 52
14, 186939, Note_on_c, 12, 63, 0
14, 186960, Note_on_c, 12, 63, 52
14, 187059, Note_on_c, 12, 63, 0
14, 187080, Note_on_c, 12, 65, 52
14, 187179, Note_on_c, 12, 65, 0
14, 187200, Note_on_c, 12, 67, 52
14, 187779, Note_on_c, 12, 67, 0
14, 187800, Note_on_c, 12, 63, 52
14, 187899, Note_on_c, 12, 63, 0
14, 187920, Note_on_c, 12, 63, 52
14, 188019, Note_on_c, 12, 63, 0
14, 188040, Note_on_c, 12, 65, 52
14, 188139, Note_on_c, 12, 65, 0
14, 188160, Note_on_c, 12, 67, 52
14, 188259, Note_on_c, 12, 67, 0
14, 188280, Note_on_c, 12, 59, 52
14, 188379, Note_on_c, 12, 59, 0
14, 188400, Note_on_c, 12, 60, 52
14, 188499, Note_on_c, 12, 60, 0
14, 188520, Note_on_c, 12, 62, 52
14, 188619, Note_on_c, 12, 62, 0
14, 188640, Note_on_c, 12, 63, 52
14, 188879, Note_on_c, 12, 63, 0
14, 189120, Note_on_c, 12, 56, 68
14, 189120, Note_on_c, 12, 72, 68
14, 189120, Note_on_c, 12, 66, 68
14, 189359, Note_on_c, 12, 56, 0
14, 189359, Note_on_c, 12, 72, 0
14, 189359, Note_on_c, 12, 66, 0
14, 189600, Note_on_c, 12, 71, 84
14, 189600, Note_on_c, 12, 79, 84
14, 189600, Note_on_c, 12, 62, 84
14, 189600, Note_on_c, 12, 55, 84
14, 189839, Note_on_c, 12, 71, 0
14, 189839, Note_on_c, 12, 79, 0
14, 189839, Note_on_c, 12, 62, 0
14, 189839, Note_on_c, 12, 55, 0
14, 192600, Note_on_c, 12, 62, 52
14, 192699, Note_on_c, 12, 62, 0
14, 192720, Note_on_c, 12, 62, 52
14, 192819, Note_on_c, 12, 62, 0
14, 192840, Note_on_c, 12, 62, 52
14, 192939, Note_on_c, 12, 62, 0
14, 192960, Note_on_c, 12, 59, 52
14, 193899, Note_on_c, 12, 59, 0
14, 193920, Note_on_c, 12, 60, 52
14, 194019, Note_on_c, 12, 60, 0
14, 194040, Note_on_c, 12, 68, 52
14, 194139, Note_on_c, 12, 68, 0
14, 194160, Note_on_c, 12, 68, 53
14, 194259, Note_on_c, 12, 68, 0
14, 194280, Note_on_c, 12, 68, 55
14, 194379, Note_on_c, 12, 68, 0
14, 194400, Note_on_c, 12, 65, 56
14, 194499, Note_on_c, 12, 65, 0
14, 194520, Note_on_c, 12, 62, 58
14, 194619, Note_on_c, 12, 62, 0
14, 194640, Note_on_c, 12, 62, 60
14, 194739, Note_on_c, 12, 62, 0
14, 194760, Note_on_c, 12, 62, 61
14, 194859, Note_on_c, 12, 62, 0
14, 194880, Note_on_c, 12, 59, 63
14, 194979, Note_on_c, 12, 59, 0
14, 195000, Note_on_c, 12, 56, 64
14, 195099, Note_on_c, 12, 56, 0
14, 195120, Note_on_c, 12, 56, 66
14, 195219, Note_on_c, 12, 56, 0
14, 195240, Note_on_c, 12, 56, 68
14, 195339, Note_on_c, 12, 56, 0
14, 195360, Note_on_c, 12, 55, 69
14, 195459, Note_on_c, 12, 55, 0
14, 195480, Note_on_c, 12, 62, 71
14, 195579, Note_on_c, 12, 62, 0
14, 195600, Note_on_c, 12, 62, 72
14, 195699, Note_on_c, 12, 62, 0
14, 195720, Note_on_c, 12, 62, 74
14, 195819, Note_on_c, 12, 62, 0
14, 195840, Note_on_c, 12, 63, 76
14, 195939, Note_on_c, 12, 63, 0
14, 195960, Note_on_c, 12, 63, 76
14, 196059, Note_on_c, 12, 63, 0
14, 196080, Note_on_c, 12, 67, 76
14, 196179, Note_on_c, 12, 67, 0
14, 196200, Note_on_c, 12, 67, 76
14, 196299, Note_on_c, 12, 67, 0
14, 196320, Note_on_c, 12, 65, 76
14, 196899, Note_on_c, 12, 65, 0
14, 196920, Note_on_c, 12, 68, 76
14, 197019, Note_on_c, 12, 68, 0
14, 197040, Note_on_c, 12, 68, 76
14, 197139, Note_on_c, 12, 68, 0
14, 197160, Note_on_c, 12, 65, 76
14, 197259, Note_on_c, 12, 65, 0
14, 197280, Note_on_c, 12, 67, 76
14, 197859, Note_on_c, 12, 67, 0
14, 197880, Note_on_c, 12, 67, 76
14, 197979, Note_on_c, 12, 67, 0
14, 198000, Note_on_c, 12, 67, 76
14, 198099, Note_on_c, 12, 67, 0
14, 198120, Note_on_c, 12, 63, 76
14, 198219, Note_on_c, 12, 63, 0
14, 198240, Note_on_c, 12, 68, 84
14, 198339, Note_on_c, 12, 68, 0
14, 198360, Note_on_c, 12, 68, 76
14, 198459, Note_on_c, 12, 68, 0
14, 198480, Note_on_c, 12, 68, 76
14, 198579, Note_on_c, 12, 68, 0
14, 198600, Note_on_c, 12, 65, 76
14, 198699, Note_on_c, 12, 65, 0
14, 198720, Note_on_c, 12, 70, 84
14, 198819, Note_on_c, 12, 70, 0
14, 198840, Note_on_c, 12, 70, 76
14, 198939, Note_on_c, 12, 70, 0
14, 198960, Note_on_c, 12, 70, 76
14, 199059, Note_on_c, 12, 70, 0
14, 199080, Note_on_c, 12, 67, 76
14, 199179, Note_on_c, 12, 67, 0
14, 199200, Note_on_c, 12, 72, 84
14, 199299, Note_on_c, 12, 72, 0
14, 199320, Note_on_c, 12, 60, 76
14, 199419, Note_on_c, 12, 60, 0
14, 199440, Note_on_c, 12, 60, 76
14, 199539, Note_on_c, 12, 60, 0
14, 199560, Note_on_c, 12, 56, 76
14, 199659, Note_on_c, 12, 56, 0
14, 199680, Note_on_c, 12, 64, 84
14, 199779, Note_on_c, 12, 64, 0
14, 199800, Note_on_c, 12, 64, 76
14, 199899, Note_on_c, 12, 64, 0
14, 199920, Note_on_c, 12, 64, 76
14, 200019, Note_on_c, 12, 64, 0
14, 200040, Note_on_c, 12, 58, 76
14, 200139, Note_on_c, 12, 58, 0
14, 200160, Note_on_c, 12, 65, 84
14, 200259, Note_on_c, 12, 65, 0
14, 200280, Note_on_c, 12, 65, 76
14, 200379, Note_on_c, 12, 65, 0
14, 200400, Note_on_c, 12, 65, 76
14, 200499, Note_on_c, 12, 65, 0
14, 200520, Note_on_c, 12, 60, 76
14, 200619, Note_on_c, 12, 60, 0
14, 200640, Note_on_c, 12, 68, 84
14, 200739, Note_on_c, 12, 68, 0
14, 200760, Note_on_c, 12, 68, 76
14, 200859, Note_on_c, 12, 68, 0
14, 200880, Note_on_c, 12, 68, 76
14, 200979, Note_on_c, 12, 68, 0
14, 201000, Note_on_c, 12, 65, 76
14, 201099, Note_on_c, 12, 65, 0
14, 201120, Note_on_c, 12, 67, 76
14, 201219, Note_on_c, 12, 67, 0
14, 201240, Note_on_c, 12, 63, 76
14, 201240, Note_on_c, 12, 72, 76
14, 201339, Note_on_c, 12, 63, 0
14, 201339, Note_on_c, 12, 72, 0
14, 201360, Note_on_c, 12, 63, 76
14, 201360, Note_on_c, 12, 72, 76
14, 201459, Note_on_c, 12, 63, 0
14, 201459, Note_on_c, 12, 72, 0
14, 201480, Note_on_c, 12, 63, 76
14, 201480, Note_on_c, 12, 72, 76
14, 201579, Note_on_c, 12, 63, 0
14, 201579, Note_on_c, 12, 72, 0
14, 201600, Note_on_c, 12, 72, 76
14, 201600, Note_on_c, 12, 63, 76
14, 201699, Note_on_c, 12, 72, 0
14, 201699, Note_on_c, 12, 63, 0
14, 201720, Note_on_c, 12, 63, 76
14, 201720, Note_on_c, 12, 72, 76
14, 201819, Note_on_c, 12, 63, 0
14, 201819, Note_on_c, 12, 72, 0
14, 201840, Note_on_c, 12, 63, 76
14, 201840, Note_on_c, 12, 72, 76
14, 201939, Note_on_c, 12, 63, 0
14, 201939, Note_on_c, 12, 72, 0
14, 201960, Note_on_c, 12, 63, 76
14, 201960, Note_on_c, 12, 72, 76
14, 202059, Note_on_c, 12, 63, 0
14, 202059, Note_on_c, 12, 72, 0
14, 202080, Note_on_c, 12, 63, 76
14, 202080, Note_on_c, 12, 72, 76
14, 202179, Note_on_c, 12, 63, 0
14, 202179, Note_on_c, 12, 72, 0
14, 202200, Note_on_c, 12, 63, 76
14, 202200, Note_on_c, 12, 72, 76
14, 202299, Note_on_c, 12, 63, 0
14, 202299, Note_on_c, 12, 72, 0
14, 202320, Note_on_c, 12, 63, 76
14, 202320, Note_on_c, 12, 72, 76
14, 202419, Note_on_c, 12, 63, 0
14, 202419, Note_on_c, 12, 72, 0
14, 202440, Note_on_c, 12, 63, 76
14, 202440, Note_on_c, 12, 72, 76
14, 202539, Note_on_c, 12, 63, 0
14, 202539, Note_on_c, 12, 72, 0
14, 202560, Note_on_c, 12, 63, 76
14, 202560, Note_on_c, 12, 72, 76
14, 202659, Note_on_c, 12, 63, 0
14, 202659, Note_on_c, 12, 72, 0
14, 202680, Note_on_c, 12, 72, 76
14, 202680, Note_on_c, 12, 63, 76
14, 202779, Note_on_c, 12, 72, 0
14, 202779, Note_on_c, 12, 63, 0
14, 202800, Note_on_c, 12, 72, 76
14, 202800, Note_on_c, 12, 63, 76
14, 202899, Note_on_c, 12, 72, 0
14, 202899, Note_on_c, 12, 63, 0
14, 202920, Note_on_c, 12, 63, 76
14, 202920, Note_on_c, 12, 72, 76
14, 203019, Note_on_c, 12, 63, 0
14, 203019, Note_on_c, 12, 72, 0
14, 203040, Note_on_c, 12, 71, 76
14, 203040, Note_on_c, 12, 62, 76
14, 203139, Note_on_c, 12, 71, 0
14, 203139, Note_on_c, 12, 62, 0
14, 203160, Note_on_c, 12, 77, 76
14, 203259, Note_on_c, 12, 77, 0
14, 203280, Note_on_c, 12, 74, 76
14, 203379, Note_on_c, 12, 74, 0
14, 203400, Note_on_c, 12, 74, 76
14, 203499, Note_on_c, 12, 74, 0
14, 203520, Note_on_c, 12, 71, 76
14, 203619, Note_on_c, 12, 71, 0
14, 203640, Note_on_c, 12, 67, 76
14, 203739, Note_on_c, 12, 67, 0
14, 203760, Note_on_c, 12, 65, 76
14, 203859, Note_on_c, 12, 65, 0
14, 203880, Note_on_c, 12, 65, 76
14, 203979, Note_on_c, 12, 65, 0
14, 204000, Note_on_c, 12, 62, 76
14, 204099, Note_on_c, 12, 62, 0
14, 204120, Note_on_c, 12, 59, 76
14, 204219, Note_on_c, 12, 59, 0
14, 204240, Note_on_c, 12, 55, 76
14, 204339, Note_on_c, 12, 55, 0
14, 204360, Note_on_c, 12, 65, 76
14, 204459, Note_on_c, 12, 65, 0
14, 204480, Note_on_c, 12, 62, 76
14, 204579, Note_on_c, 12, 62, 0
14, 204600, Note_on_c, 12, 59, 76
14, 204699, Note_on_c, 12, 59, 0
14, 204720, Note_on_c, 12, 60, 76
14, 204819, Note_on_c, 12, 60, 0
14, 204840, Note_on_c, 12, 60, 76
14, 204939, Note_on_c, 12, 60, 0
14, 204960, Note_on_c, 12, 72, 84
14, 205059, Note_on_c, 12, 72, 0
14, 205080, Note_on_c, 12, 87, 84
14, 205179, Note_on_c, 12, 87, 0
14, 205200, Note_on_c, 12, 87, 84
14, 205299, Note_on_c, 12, 87, 0
14, 205320, Note_on_c, 12, 87, 84
14, 205419, Note_on_c, 12, 87, 0
14, 205440, Note_on_c, 12, 84, 84
14, 205539, Note_on_c, 12, 84, 0
14, 205560, Note_on_c, 12, 81, 84
14, 205659, Note_on_c, 12, 81, 0
14, 205680, Note_on_c, 12, 81, 84
14, 205779, Note_on_c, 12, 81, 0
14, 205800, Note_on_c, 12, 81, 84
14, 205899, Note_on_c, 12, 81, 0
14, 205920, Note_on_c, 12, 78, 84
14, 206019, Note_on_c, 12, 78, 0
14, 206040, Note_on_c, 12, 75, 84
14, 206139, Note_on_c, 12, 75, 0
14, 206160, Note_on_c, 12, 75, 84
14, 206259, Note_on_c, 12, 75, 0
14, 206280, Note_on_c, 12, 75, 84
14, 206379, Note_on_c, 12, 75, 0
14, 206400, Note_on_c, 12, 72, 84
14, 206499, Note_on_c, 12, 72, 0
14, 206520, Note_on_c, 12, 69, 84
14, 206619, Note_on_c, 12, 69, 0
14, 206640, Note_on_c, 12, 69, 84
14, 206739, Note_on_c, 12, 69, 0
14, 206760, Note_on_c, 12, 69, 84
14, 206859, Note_on_c, 12, 69, 0
14, 206880, Note_on_c, 12, 57, 84
14, 207119, Note_on_c, 12, 57, 0
14, 207360, Note_on_c, 12, 55, 84
14, 207360, Note_on_c, 12, 67, 84
14, 207599, Note_on_c, 12, 55, 0
14, 207599, Note_on_c, 12, 67, 0
14, 210240, Note_on_c, 12, 64, 52
14, 210719, Note_on_c, 12, 64, 0
14, 210720, Note_on_c, 12, 65, 52
14, 211179, Note_on_c, 12, 65, 0
14, 211200, Note_on_c, 12, 65, 52
14, 211679, Note_on_c, 12, 65, 0
14, 211680, Note_on_c, 12, 64, 52
14, 212159, Note_on_c, 12, 64, 0
14, 214080, Note_on_c, 12, 64, 52
14, 214559, Note_on_c, 12, 64, 0
14, 214560, Note_on_c, 12, 65, 52
14, 215019, Note_on_c, 12, 65, 0
14, 215040, Note_on_c, 12, 65, 52
14, 215519, Note_on_c, 12, 65, 0
14, 215520, Note_on_c, 12, 64, 52
14, 215999, Note_on_c, 12, 64, 0
14, 217920, Note_on_c, 12, 70, 52
14, 218399, Note_on_c, 12, 70, 0
14, 218400, Note_on_c, 12, 67, 52
14, 218859, Note_on_c, 12, 67, 0
14, 218880, Note_on_c, 12, 67, 52
14, 219359, Note_on_c, 12, 67, 0
14, 219360, Note_on_c, 12, 65, 52
14, 219819, Note_on_c, 12, 65, 0
14, 219840, Note_on_c, 12, 69, 52
14, 220779, Note_on_c, 12, 69, 0
14, 220800, Note_on_c, 12, 69, 52
14, 221279, Note_on_c, 12, 69, 0
14, 221280, Note_on_c, 12, 67, 52
14, 221739, Note_on_c, 12, 67, 0
14, 221758, Control_c, 12, 11, 64
14, 221760, Note_on_c, 12, 65, 84
14, 221999, Note_on_c, 12, 65, 0
14, 222000, Note_on_c, 12, 67, 84
14, 222239, Note_on_c, 12, 67, 0
14, 222240, Note_on_c, 12, 68, 84
14, 222240, Control_c, 12, 11, 64
14, 222347, Control_c, 12, 11, 65
14, 222453, Control_c, 12, 11, 66
14, 222479, Note_on_c, 12, 68, 0
14, 222480, Note_on_c, 12, 67, 84
14, 222560, Control_c, 12, 11, 67
14, 222667, Control_c, 12, 11, 68
14, 222719, Note_on_c, 12, 67, 0
14, 222720, Note_on_c, 12, 65, 84
14, 222773, Control_c, 12, 11, 69
14, 222880, Control_c, 12, 11, 70
14, 222959, Note_on_c, 12, 65, 0
14, 222960, Note_on_c, 12, 67, 84
14, 222987, Control_c, 12, 11, 71
14, 223093, Control_c, 12, 11, 72
14, 223179, Note_on_c, 12, 67, 0
14, 223200, Control_c, 12, 11, 73
14, 223200, Note_on_c, 12, 68, 84
14, 223307, Control_c, 12, 11, 74
14, 223413, Control_c, 12, 11, 75
14, 223439, Note_on_c, 12, 68, 0
14, 223440, Note_on_c, 12, 67, 84
14, 223520, Control_c, 12, 11, 76
14, 223627, Control_c, 12, 11, 77
14, 223679, Note_on_c, 12, 67, 0
14, 223680, Note_on_c, 12, 65, 84
14, 223733, Control_c, 12, 11, 78
14, 223840, Control_c, 12, 11, 79
14, 223919, Note_on_c, 12, 65, 0
14, 223920, Note_on_c, 12, 67, 84
14, 223947, Control_c, 12, 11, 80
14, 224053, Control_c, 12, 11, 81
14, 224139, Note_on_c, 12, 67, 0
14, 224160, Note_on_c, 12, 68, 84
14, 224160, Control_c, 12, 11, 82
14, 224267, Control_c, 12, 11, 83
14, 224373, Control_c, 12, 11, 84
14, 224399, Note_on_c, 12, 68, 0
14, 224400, Note_on_c, 12, 67, 84
14, 224480, Control_c, 12, 11, 85
14, 224587, Control_c, 12, 11, 86
14, 224639, Note_on_c, 12, 67, 0
14, 224640, Note_on_c, 12, 65, 84
14, 224693, Control_c, 12, 11, 87
14, 224800, Control_c, 12, 11, 88
14, 224879, Note_on_c, 12, 65, 0
14, 224880, Note_on_c, 12, 67, 84
14, 224907, Control_c, 12, 11, 89
14, 225013, Control_c, 12, 11, 90
14, 225099, Note_on_c, 12, 67, 0
14, 225120, Control_c, 12, 11, 91
14, 225120, Note_on_c, 12, 68, 84
14, 225227, Control_c, 12, 11, 92
14, 225333, Control_c, 12, 11, 93
14, 225359, Note_on_c, 12, 68, 0
14, 225360, Note_on_c, 12, 67, 84
14, 225440, Control_c, 12, 11, 94
14, 225547, Control_c, 12, 11, 95
14, 225599, Note_on_c, 12, 67, 0
14, 225600, Note_on_c, 12, 66, 84
14, 225653, Control_c, 12, 11, 96
14, 225760, Control_c, 12, 11, 97
14, 225839, Note_on_c, 12, 66, 0
14, 225840, Note_on_c, 12, 67, 84
14, 225867, Control_c, 12, 11, 98
14, 225973, Control_c, 12, 11, 99
14, 226059, Note_on_c, 12, 67, 0
14, 226080, Control_c, 12, 11, 100
14, 226080, Note_on_c, 12, 69, 84
14, 226187, Control_c, 12, 11, 101
14, 226293, Control_c, 12, 11, 102
14, 226319, Note_on_c, 12, 69, 0
14, 226320, Note_on_c, 12, 67, 84
14, 226400, Control_c, 12, 11, 103
14, 226507, Control_c, 12, 11, 104
14, 226559, Note_on_c, 12, 67, 0
14, 226560, Note_on_c, 12, 66, 84
14, 226613, Control_c, 12, 11, 105
14, 226720, Control_c, 12, 11, 106
14, 226799, Note_on_c, 12, 66, 0
14, 226800, Note_on_c, 12, 67, 84
14, 226827, Control_c, 12, 11, 107
14, 226933, Control_c, 12, 11, 108
14, 227019, Note_on_c, 12, 67, 0
14, 227040, Note_on_c, 12, 69, 84
14, 227040, Control_c, 12, 11, 109
14, 227147, Control_c, 12, 11, 110
14, 227253, Control_c, 12, 11, 111
14, 227279, Note_on_c, 12, 69, 0
14, 227280, Note_on_c, 12, 67, 84
14, 227360, Control_c, 12, 11, 112
14, 227467, Control_c, 12, 11, 113
14, 227519, Note_on_c, 12, 67, 0
14, 227520, Note_on_c, 12, 66, 84
14, 227573, Control_c, 12, 11, 114
14, 227680, Control_c, 12, 11, 115
14, 227759, Note_on_c, 12, 66, 0
14, 227760, Note_on_c, 12, 67, 84
14, 227787, Control_c, 12, 11, 116
14, 227893, Control_c, 12, 11, 117
14, 227999, Note_on_c, 12, 67, 0
14, 228000, Note_on_c, 12, 66, 84
14, 228000, Control_c, 12, 11, 118
14, 228107, Control_c, 12, 11, 119
14, 228213, Control_c, 12, 11, 120
14, 228239, Note_on_c, 12, 66, 0
14, 228240, Note_on_c, 12, 67, 84
14, 228320, Control_c, 12, 11, 121
14, 228427, Control_c, 12, 11, 122
14, 228479, Note_on_c, 12, 67, 0
14, 228480, Note_on_c, 12, 66, 84
14, 228533, Control_c, 12, 11, 123
14, 228640, Control_c, 12, 11, 124
14, 228719, Note_on_c, 12, 66, 0
14, 228720, Note_on_c, 12, 67, 84
14, 228747, Control_c, 12, 11, 125
14, 228853, Control_c, 12, 11, 127
14, 228939, Note_on_c, 12, 67, 0
14, 228960, Note_on_c, 12, 79, 84
14, 229539, Note_on_c, 12, 79, 0
14, 229560, Note_on_c, 12, 81, 84
14, 229649, Note_on_c, 12, 81, 0
14, 229680, Note_on_c, 12, 79, 84
14, 229769, Note_on_c, 12, 79, 0
14, 229800, Note_on_c, 12, 77, 84
14, 229889, Note_on_c, 12, 77, 0
14, 229920, Note_on_c, 12, 77, 84
14, 230039, Note_on_c, 12, 77, 0
14, 230040, Note_on_c, 12, 76, 84
14, 230139, Note_on_c, 12, 76, 0
14, 230160, Note_on_c, 12, 74, 84
14, 230249, Note_on_c, 12, 74, 0
14, 230280, Note_on_c, 12, 72, 84
14, 230369, Note_on_c, 12, 72, 0
14, 230400, Note_on_c, 12, 72, 84
14, 230519, Note_on_c, 12, 72, 0
14, 230520, Note_on_c, 12, 71, 84
14, 230619, Note_on_c, 12, 71, 0
14, 230640, Note_on_c, 12, 69, 84
14, 230729, Note_on_c, 12, 69, 0
14, 230760, Note_on_c, 12, 71, 84
14, 230849, Note_on_c, 12, 71, 0
14, 230880, Note_on_c, 12, 74, 84
14, 230999, Note_on_c, 12, 74, 0
14, 231000, Note_on_c, 12, 72, 84
14, 231099, Note_on_c, 12, 72, 0
14, 231120, Note_on_c, 12, 67, 84
14, 231209, Note_on_c, 12, 67, 0
14, 231240, Note_on_c, 12, 64, 84
14, 231329, Note_on_c, 12, 64, 0
14, 231360, Note_on_c, 12, 71, 84
14, 231479, Note_on_c, 12, 71, 0
14, 231480, Note_on_c, 12, 69, 84
14, 231579, Note_on_c, 12, 69, 0
14, 231600, Note_on_c, 12, 65, 84
14, 231689, Note_on_c, 12, 65, 0
14, 231720, Note_on_c, 12, 62, 84
14, 231809, Note_on_c, 12, 62, 0
14, 231840, Note_on_c, 12, 55, 84
14, 231939, Note_on_c, 12, 55, 0
14, 231960, Note_on_c, 12, 55, 84
14, 232059, Note_on_c, 12, 55, 0
14, 232080, Note_on_c, 12, 60, 84
14, 232179, Note_on_c, 12, 60, 0
14, 232200, Note_on_c, 12, 60, 84
14, 232299, Note_on_c, 12, 60, 0
14, 232320, Note_on_c, 12, 59, 84
14, 232409, Note_on_c, 12, 59, 0
14, 232440, Note_on_c, 12, 66, 84
14, 232559, Note_on_c, 12, 66, 0
14, 232560, Note_on_c, 12, 67, 84
14, 232679, Note_on_c, 12, 67, 0
14, 232680, Note_on_c, 12, 66, 84
14, 232799, Note_on_c, 12, 66, 0
14, 232800, Note_on_c, 12, 67, 84
14, 232919, Note_on_c, 12, 67, 0
14, 232920, Note_on_c, 12, 66, 84
14, 233039, Note_on_c, 12, 66, 0
14, 233040, Note_on_c, 12, 67, 84
14, 233159, Note_on_c, 12, 67, 0
14, 233160, Note_on_c, 12, 66, 84
14, 233259, Note_on_c, 12, 66, 0
14, 233280, Note_on_c, 12, 67, 84
14, 233369, Note_on_c, 12, 67, 0
14, 233400, Note_on_c, 12, 81, 84
14, 233489, Note_on_c, 12, 81, 0
14, 233520, Note_on_c, 12, 79, 84
14, 233609, Note_on_c, 12, 79, 0
14, 233640, Note_on_c, 12, 77, 84
14, 233729, Note_on_c, 12, 77, 0
14, 233760, Note_on_c, 12, 77, 84
14, 233879, Note_on_c, 12, 77, 0
14, 233880, Note_on_c, 12, 76, 84
14, 233979, Note_on_c, 12, 76, 0
14, 234000, Note_on_c, 12, 74, 84
14, 234089, Note_on_c, 12, 74, 0
14, 234120, Note_on_c, 12, 72, 84
14, 234209, Note_on_c, 12, 72, 0
14, 234240, Note_on_c, 12, 72, 84
14, 234359, Note_on_c, 12, 72, 0
14, 234360, Note_on_c, 12, 71, 84
14, 234459, Note_on_c, 12, 71, 0
14, 234480, Note_on_c, 12, 69, 84
14, 234569, Note_on_c, 12, 69, 0
14, 234600, Note_on_c, 12, 71, 84
14, 234689, Note_on_c, 12, 71, 0
14, 234720, Note_on_c, 12, 74, 84
14, 234839, Note_on_c, 12, 74, 0
14, 234840, Note_on_c, 12, 72, 84
14, 234939, Note_on_c, 12, 72, 0
14, 234960, Note_on_c, 12, 67, 84
14, 235049, Note_on_c, 12, 67, 0
14, 235080, Note_on_c, 12, 64, 84
14, 235169, Note_on_c, 12, 64, 0
14, 235200, Note_on_c, 12, 71, 84
14, 235319, Note_on_c, 12, 71, 0
14, 235320, Note_on_c, 12, 69, 84
14, 235419, Note_on_c, 12, 69, 0
14, 235440, Note_on_c, 12, 65, 84
14, 235529, Note_on_c, 12, 65, 0
14, 235560, Note_on_c, 12, 62, 84
14, 235649, Note_on_c, 12, 62, 0
14, 235680, Note_on_c, 12, 69, 84
14, 235799, Note_on_c, 12, 69, 0
14, 235800, Note_on_c, 12, 67, 84
14, 235899, Note_on_c, 12, 67, 0
14, 235920, Note_on_c, 12, 64, 84
14, 236009, Note_on_c, 12, 64, 0
14, 236040, Note_on_c, 12, 60, 84
14, 236129, Note_on_c, 12, 60, 0
14, 236160, Note_on_c, 12, 55, 84
14, 236259, Note_on_c, 12, 55, 0
14, 236280, Note_on_c, 12, 67, 84
14, 236379, Note_on_c, 12, 67, 0
14, 236400, Note_on_c, 12, 79, 84
14, 236499, Note_on_c, 12, 79, 0
14, 236520, Note_on_c, 12, 79, 84
14, 236619, Note_on_c, 12, 79, 0
14, 236640, Note_on_c, 12, 64, 84
14, 237599, Note_on_c, 12, 64, 0
14, 237600, Note_on_c, 12, 64, 84
14, 238179, Note_on_c, 12, 64, 0
14, 238200, Note_on_c, 12, 59, 84
14, 238299, Note_on_c, 12, 59, 0
14, 238320, Note_on_c, 12, 59, 84
14, 238419, Note_on_c, 12, 59, 0
14, 238440, Note_on_c, 12, 59, 84
14, 238539, Note_on_c, 12, 59, 0
14, 238560, Note_on_c, 12, 60, 84
14, 239519, Note_on_c, 12, 60, 0
14, 239520, Note_on_c, 12, 60, 84
14, 240099, Note_on_c, 12, 60, 0
14, 240120, Note_on_c, 12, 62, 84
14, 240120, Note_on_c, 12, 71, 84
14, 240219, Note_on_c, 12, 62, 0
14, 240219, Note_on_c, 12, 71, 0
14, 240240, Note_on_c, 12, 71, 84
14, 240240, Note_on_c, 12, 62, 84
14, 240339, Note_on_c, 12, 71, 0
14, 240339, Note_on_c, 12, 62, 0
14, 240360, Note_on_c, 12, 62, 84
14, 240360, Note_on_c, 12, 71, 84
14, 240459, Note_on_c, 12, 62, 0
14, 240459, Note_on_c, 12, 71, 0
14, 240480, Note_on_c, 12, 64, 84
14, 240480, Note_on_c, 12, 72, 84
14, 240719, Note_on_c, 12, 64, 0
14, 240719, Note_on_c, 12, 72, 0
14, 241080, Note_on_c, 12, 62, 84
14, 241080, Note_on_c, 12, 71, 84
14, 241179, Note_on_c, 12, 62, 0
14, 241179, Note_on_c, 12, 71, 0
14, 241200, Note_on_c, 12, 71, 84
14, 241200, Note_on_c, 12, 62, 84
14, 241299, Note_on_c, 12, 71, 0
14, 241299, Note_on_c, 12, 62, 0
14, 241320, Note_on_c, 12, 71, 84
14, 241320, Note_on_c, 12, 62, 84
14, 241419, Note_on_c, 12, 71, 0
14, 241419, Note_on_c, 12, 62, 0
14, 241440, Note_on_c, 12, 72, 84
14, 241440, Note_on_c, 12, 64, 84
14, 241679, Note_on_c, 12, 72, 0
14, 241679, Note_on_c, 12, 64, 0
14, 242040, Note_on_c, 12, 71, 84
14, 242040, Note_on_c, 12, 79, 84
14, 242139, Note_on_c, 12, 71, 0
14, 242139, Note_on_c, 12, 79, 0
14, 242160, Note_on_c, 12, 79, 84
14, 242160, Note_on_c, 12, 71, 84
14, 242259, Note_on_c, 12, 79, 0
14, 242259, Note_on_c, 12, 71, 0
14, 242280, Note_on_c, 12, 79, 84
14, 242280, Note_on_c, 12, 71, 84
14, 242379, Note_on_c, 12, 79, 0
14, 242379, Note_on_c, 12, 71, 0
14, 242400, Note_on_c, 12, 76, 92
14, 242519, Note_on_c, 12, 76, 0
14, 242520, Note_on_c, 12, 76, 84
14, 242879, Note_on_c, 12, 76, 0
14, 242880, Note_on_c, 12, 76, 84
14, 242979, Note_on_c, 12, 76, 0
14, 243000, Note_on_c, 12, 76, 84
14, 243099, Note_on_c, 12, 76, 0
14, 243120, Note_on_c, 12, 76, 84
14, 243219, Note_on_c, 12, 76, 0
14, 243240, Note_on_c, 12, 76, 84
14, 243339, Note_on_c, 12, 76, 0
14, 243360, Note_on_c, 12, 72, 92
14, 243360, Note_on_c, 12, 77, 92
14, 243479, Note_on_c, 12, 72, 0
14, 243479, Note_on_c, 12, 77, 0
14, 243480, Note_on_c, 12, 77, 84
14, 243480, Note_on_c, 12, 72, 84
14, 243839, Note_on_c, 12, 77, 0
14, 243839, Note_on_c, 12, 72, 0
14, 243840, Note_on_c, 12, 77, 84
14, 243840, Note_on_c, 12, 72, 84
14, 243939, Note_on_c, 12, 77, 0
14, 243939, Note_on_c, 12, 72, 0
14, 243960, Note_on_c, 12, 77, 84
14, 243960, Note_on_c, 12, 72, 84
14, 244059, Note_on_c, 12, 77, 0
14, 244059, Note_on_c, 12, 72, 0
14, 244080, Note_on_c, 12, 77, 84
14, 244080, Note_on_c, 12, 72, 84
14, 244179, Note_on_c, 12, 77, 0
14, 244179, Note_on_c, 12, 72, 0
14, 244200, Note_on_c, 12, 72, 84
14, 244200, Note_on_c, 12, 77, 84
14, 244299, Note_on_c, 12, 72, 0
14, 244299, Note_on_c, 12, 77, 0
14, 244320, Note_on_c, 12, 79, 92
14, 244320, Note_on_c, 12, 72, 92
14, 244439, Note_on_c, 12, 79, 0
14, 244439, Note_on_c, 12, 72, 0
14, 244440, Note_on_c, 12, 79, 84
14, 244440, Note_on_c, 12, 72, 84
14, 244799, Note_on_c, 12, 79, 0
14, 244799, Note_on_c, 12, 72, 0
14, 244800, Note_on_c, 12, 79, 84
14, 244800, Note_on_c, 12, 72, 84
14, 244899, Note_on_c, 12, 79, 0
14, 244899, Note_on_c, 12, 72, 0
14, 244920, Note_on_c, 12, 72, 84
14, 244920, Note_on_c, 12, 79, 84
14, 245019, Note_on_c, 12, 72, 0
14, 245019, Note_on_c, 12, 79, 0
14, 245040, Note_on_c, 12, 79, 84
14, 245040, Note_on_c, 12, 72, 84
14, 245139, Note_on_c, 12, 79, 0
14, 245139, Note_on_c, 12, 72, 0
14, 245160, Note_on_c, 12, 79, 84
14, 245160, Note_on_c, 12, 72, 84
14, 245259, Note_on_c, 12, 79, 0
14, 245259, Note_on_c, 12, 72, 0
14, 245280, Note_on_c, 12, 80, 92
14, 245280, Note_on_c, 12, 72, 92
14, 245399, Note_on_c, 12, 80, 0
14, 245399, Note_on_c, 12, 72, 0
14, 245400, Note_on_c, 12, 80, 84
14, 245400, Note_on_c, 12, 72, 84
14, 245759, Note_on_c, 12, 80, 0
14, 245759, Note_on_c, 12, 72, 0
14, 245760, Note_on_c, 12, 72, 84
14, 245760, Note_on_c, 12, 80, 84
14, 245859, Note_on_c, 12, 72, 0
14, 245859, Note_on_c, 12, 80, 0
14, 245880, Note_on_c, 12, 72, 84
14, 245880, Note_on_c, 12, 80, 84
14, 245979, Note_on_c, 12, 72, 0
14, 245979, Note_on_c, 12, 80, 0
14, 246000, Note_on_c, 12, 72, 84
14, 246000, Note_on_c, 12, 80, 84
14, 246099, Note_on_c, 12, 72, 0
14, 246099, Note_on_c, 12, 80, 0
14, 246120, Note_on_c, 12, 72, 84
14, 246120, Note_on_c, 12, 80, 84
14, 246219, Note_on_c, 12, 72, 0
14, 246219, Note_on_c, 12, 80, 0
14, 246240, Note_on_c, 12, 73, 84
14, 246339, Note_on_c, 12, 73, 0
14, 246360, Note_on_c, 12, 73, 84
14, 246459, Note_on_c, 12, 73, 0
14, 246480, Note_on_c, 12, 73, 84
14, 246579, Note_on_c, 12, 73, 0
14, 246600, Note_on_c, 12, 73, 84
14, 246699, Note_on_c, 12, 73, 0
14, 246720, Note_on_c, 12, 73, 84
14, 246819, Note_on_c, 12, 73, 0
14, 246840, Note_on_c, 12, 73, 84
14, 246939, Note_on_c, 12, 73, 0
14, 246960, Note_on_c, 12, 73, 84
14, 247059, Note_on_c, 12, 73, 0
14, 247080, Note_on_c, 12, 73, 84
14, 247179, Note_on_c, 12, 73, 0
14, 247200, Note_on_c, 12, 73, 84
14, 247299, Note_on_c, 12, 73, 0
14, 247320, Note_on_c, 12, 73, 84
14, 247419, Note_on_c, 12, 73, 0
14, 247440, Note_on_c, 12, 73, 84
14, 247539, Note_on_c, 12, 73, 0
14, 247560, Note_on_c, 12, 73, 84
14, 247659, Note_on_c, 12, 73, 0
14, 247680, Note_on_c, 12, 73, 84
14, 247779, Note_on_c, 12, 73, 0
14, 247800, Note_on_c, 12, 73, 84
14, 247899, Note_on_c, 12, 73, 0
14, 247920, Note_on_c, 12, 73, 84
14, 248019, Note_on_c, 12, 73, 0
14, 248040, Note_on_c, 12, 73, 84
14, 248139, Note_on_c, 12, 73, 0
14, 248160, Note_on_c, 12, 73, 84
14, 248399, Note_on_c, 12, 73, 0
14, 250200, Note_on_c, 12, 84, 84
14, 250200, Note_on_c, 12, 75, 84
14, 250299, Note_on_c, 12, 84, 0
14, 250299, Note_on_c, 12, 75, 0
14, 250320, Note_on_c, 12, 84, 84
14, 250320, Note_on_c, 12, 75, 84
14, 250419, Note_on_c, 12, 84, 0
14, 250419, Note_on_c, 12, 75, 0
14, 250440, Note_on_c, 12, 84, 84
14, 250440, Note_on_c, 12, 75, 84
14, 250539, Note_on_c, 12, 84, 0
14, 250539, Note_on_c, 12, 75, 0
14, 250560, Note_on_c, 12, 75, 84
14, 250560, Note_on_c, 12, 84, 84
14, 250659, Note_on_c, 12, 75, 0
14, 250659, Note_on_c, 12, 84, 0
14, 250680, Note_on_c, 12, 75, 84
14, 250680, Note_on_c, 12, 84, 84
14, 250779, Note_on_c, 12, 75, 0
14, 250779, Note_on_c, 12, 84, 0
14, 250800, Note_on_c, 12, 75, 84
14, 250800, Note_on_c, 12, 84, 84
14, 250899, Note_on_c, 12, 75, 0
14, 250899, Note_on_c, 12, 84, 0
14, 250920, Note_on_c, 12, 75, 84
14, 250920, Note_on_c, 12, 84, 84
14, 251019, Note_on_c, 12, 75, 0
14, 251019, Note_on_c, 12, 84, 0
14, 251040, Note_on_c, 12, 84, 84
14, 251040, Note_on_c, 12, 75, 84
14, 251139, Note_on_c, 12, 84, 0
14, 251139, Note_on_c, 12, 75, 0
14, 251160, Note_on_c, 12, 84, 84
14, 251160, Note_on_c, 12, 75, 84
14, 251259, Note_on_c, 12, 84, 0
14, 251259, Note_on_c, 12, 75, 0
14, 251280, Note_on_c, 12, 84, 84
14, 251280, Note_on_c, 12, 75, 84
14, 251379, Note_on_c, 12, 84, 0
14, 251379, Note_on_c, 12, 75, 0
14, 251400, Note_on_c, 12, 75, 84
14, 251400, Note_on_c, 12, 84, 84
14, 251499, Note_on_c, 12, 75, 0
14, 251499, Note_on_c, 12, 84, 0
14, 251520, Note_on_c, 12, 84, 84
14, 251520, Note_on_c, 12, 75, 84
14, 251619, Note_on_c, 12, 84, 0
14, 251619, Note_on_c, 12, 75, 0
14, 251640, Note_on_c, 12, 84, 84
14, 251640, Note_on_c, 12, 75, 84
14, 251739, Note_on_c, 12, 84, 0
14, 251739, Note_on_c, 12, 75, 0
14, 251760, Note_on_c, 12, 84, 84
14, 251760, Note_on_c, 12, 75, 84
14, 251859, Note_on_c, 12, 84, 0
14, 251859, Note_on_c, 12, 75, 0
14, 251880, Note_on_c, 12, 84, 84
14, 251880, Note_on_c, 12, 75, 84
14, 251979, Note_on_c, 12, 84, 0
14, 251979, Note_on_c, 12, 75, 0
14, 252000, Note_on_c, 12, 84, 84
14, 252000, Note_on_c, 12, 75, 84
14, 252099, Note_on_c, 12, 84, 0
14, 252099, Note_on_c, 12, 75, 0
14, 252120, Note_on_c, 12, 75, 84
14, 252120, Note_on_c, 12, 84, 84
14, 252219, Note_on_c, 12, 75, 0
14, 252219, Note_on_c, 12, 84, 0
14, 252240, Note_on_c, 12, 75, 84
14, 252240, Note_on_c, 12, 84, 84
14, 252339, Note_on_c, 12, 75, 0
14, 252339, Note_on_c, 12, 84, 0
14, 252360, Note_on_c, 12, 84, 84
14, 252360, Note_on_c, 12, 75, 84
14, 252459, Note_on_c, 12, 84, 0
14, 252459, Note_on_c, 12, 75, 0
14, 252480, Note_on_c, 12, 84, 84
14, 252480, Note_on_c, 12, 75, 84
14, 252719, Note_on_c, 12, 84, 0
14, 252719, Note_on_c, 12, 75, 0
14, 254880, Note_on_c, 12, 71, 76
14, 254999, Note_on_c, 12, 71, 0
14, 255000, Note_on_c, 12, 72, 76
14, 255119, Note_on_c, 12, 72, 0
14, 255120, Note_on_c, 12, 74, 76
14, 255239, Note_on_c, 12, 74, 0
14, 255240, Note_on_c, 12, 75, 76
14, 255359, Note_on_c, 12, 75, 0
14, 255360, Note_on_c, 12, 77, 76
14, 255479, Note_on_c, 12, 77, 0
14, 255480, Note_on_c, 12, 79, 76
14, 255599, Note_on_c, 12, 79, 0
14, 255600, Note_on_c, 12, 80, 76
14, 255719, Note_on_c, 12, 80, 0
14, 255720, Note_on_c, 12, 79, 76
14, 255839, Note_on_c, 12, 79, 0
14, 255840, Note_on_c, 12, 80, 76
14, 255959, Note_on_c, 12, 80, 0
14, 255960, Note_on_c, 12, 79, 76
14, 256079, Note_on_c, 12, 79, 0
14, 256080, Note_on_c, 12, 80, 76
14, 256199, Note_on_c, 12, 80, 0
14, 256200, Note_on_c, 12, 79, 76
14, 256319, Note_on_c, 12, 79, 0
14, 256800, Note_on_c, 12, 71, 76
14, 256919, Note_on_c, 12, 71, 0
14, 256920, Note_on_c, 12, 72, 76
14, 257039, Note_on_c, 12, 72, 0
14, 257040, Note_on_c, 12, 74, 76
14, 257159, Note_on_c, 12, 74, 0
14, 257160, Note_on_c, 12, 75, 76
14, 257279, Note_on_c, 12, 75, 0
14, 257280, Note_on_c, 12, 77, 76
14, 257399, Note_on_c, 12, 77, 0
14, 257400, Note_on_c, 12, 79, 76
14, 257519, Note_on_c, 12, 79, 0
14, 257520, Note_on_c, 12, 80, 76
14, 257639, Note_on_c, 12, 80, 0
14, 257640, Note_on_c, 12, 79, 76
14, 257759, Note_on_c, 12, 79, 0
14, 257760, Note_on_c, 12, 80, 76
14, 257879, Note_on_c, 12, 80, 0
14, 257880, Note_on_c, 12, 79, 76
14, 257999, Note_on_c, 12, 79, 0
14, 258000, Note_on_c, 12, 80, 76
14, 258119, Note_on_c, 12, 80, 0
14, 258120, Note_on_c, 12, 79, 76
14, 258219, Note_on_c, 12, 79, 0
14, 258240, Note_on_c, 12, 80, 76
14, 258339, Note_on_c, 12, 80, 0
14, 258360, Note_on_c, 12, 79, 76
14, 258459, Note_on_c, 12, 79, 0
14, 258480, Note_on_c, 12, 82, 76
14, 258579, Note_on_c, 12, 82, 0
14, 258600, Note_on_c, 12, 80, 76
14, 258699, Note_on_c, 12, 80, 0
14, 258720, Note_on_c, 12, 79, 76
14, 258819, Note_on_c, 12, 79, 0
14, 258840, Note_on_c, 12, 77, 76
14, 258939, Note_on_c, 12, 77, 0
14, 258960, Note_on_c, 12, 80, 76
14, 259059, Note_on_c, 12, 80, 0
14, 259080, Note_on_c, 12, 79, 76
14, 259179, Note_on_c, 12, 79, 0
14, 259200, Note_on_c, 12, 77, 76
14, 259299, Note_on_c, 12, 77, 0
14, 259320, Note_on_c, 12, 75, 76
14, 259419, Note_on_c, 12, 75, 0
14, 259440, Note_on_c, 12, 79, 76
14, 259539, Note_on_c, 12, 79, 0
14, 259560, Note_on_c, 12, 77, 76
14, 259659, Note_on_c, 12, 77, 0
14, 259680, Note_on_c, 12, 75, 76
14, 259779, Note_on_c, 12, 75, 0
14, 259800, Note_on_c, 12, 74, 76
14, 259899, Note_on_c, 12, 74, 0
14, 259920, Note_on_c, 12, 77, 76
14, 260019, Note_on_c, 12, 77, 0
14, 260040, Note_on_c, 12, 75, 76
14, 260139, Note_on_c, 12, 75, 0
14, 260160, Note_on_c, 12, 74, 76
14, 260259, Note_on_c, 12, 74, 0
14, 260280, Note_on_c, 12, 72, 76
14, 260379, Note_on_c, 12, 72, 0
14, 260400, Note_on_c, 12, 75, 76
14, 260499, Note_on_c, 12, 75, 0
14, 260520, Note_on_c, 12, 74, 76
14, 260619, Note_on_c, 12, 74, 0
14, 260640, Note_on_c, 12, 72, 76
14, 260739, Note_on_c, 12, 72, 0
14, 260760, Note_on_c, 12, 70, 76
14, 260859, Note_on_c, 12, 70, 0
14, 260880, Note_on_c, 12, 74, 76
14, 260979, Note_on_c, 12, 74, 0
14, 261000, Note_on_c, 12, 72, 76
14, 261099, Note_on_c, 12, 72, 0
14, 261120, Note_on_c, 12, 70, 76
14, 261219, Note_on_c, 12, 70, 0
14, 261240, Note_on_c, 12, 68, 76
14, 261339, Note_on_c, 12, 68, 0
14, 261360, Note_on_c, 12, 72, 76
14, 261459, Note_on_c, 12, 72, 0
14, 261480, Note_on_c, 12, 70, 76
14, 261579, Note_on_c, 12, 70, 0
14, 261600, Note_on_c, 12, 68, 76
14, 261699, Note_on_c, 12, 68, 0
14, 261720, Note_on_c, 12, 67, 76
14, 261819, Note_on_c, 12, 67, 0
14, 261840, Note_on_c, 12, 70, 76
14, 261939, Note_on_c, 12, 70, 0
14, 261960, Note_on_c, 12, 68, 76
14, 262059, Note_on_c, 12, 68, 0
14, 262080, Note_on_c, 12, 65, 76
14, 262179, Note_on_c, 12, 65, 0
14, 262200, Note_on_c, 12, 67, 76
14, 262299, Note_on_c, 12, 67, 0
14, 262320, Note_on_c, 12, 63, 76
14, 262419, Note_on_c, 12, 63, 0
14, 262440, Note_on_c, 12, 67, 76
14, 262539, Note_on_c, 12, 67, 0
14, 262560, Note_on_c, 12, 62, 76
14, 262659, Note_on_c, 12, 62, 0
14, 262680, Note_on_c, 12, 67, 76
14, 262779, Note_on_c, 12, 67, 0
14, 262800, Note_on_c, 12, 63, 76
14, 262899, Note_on_c, 12, 63, 0
14, 262920, Note_on_c, 12, 67, 76
14, 263019, Note_on_c, 12, 67, 0
14, 263040, Note_on_c, 12, 65, 76
14, 263139, Note_on_c, 12, 65, 0
14, 263160, Note_on_c, 12, 67, 76
14, 263259, Note_on_c, 12, 67, 0
14, 263280, Note_on_c, 12, 63, 76
14, 263379, Note_on_c, 12, 63, 0
14, 263400, Note_on_c, 12, 67, 76
14, 263499, Note_on_c, 12, 67, 0
14, 263520, Note_on_c, 12, 65, 76
14, 263619, Note_on_c, 12, 65, 0
14, 263640, Note_on_c, 12, 67, 76
14, 263739, Note_on_c, 12, 67, 0
14, 263760, Note_on_c, 12, 67, 76
14, 263859, Note_on_c, 12, 67, 0
14, 263880, Note_on_c, 12, 72, 76
14, 263979, Note_on_c, 12, 72, 0
14, 264000, Note_on_c, 12, 68, 76
14, 264099, Note_on_c, 12, 68, 0
14, 264120, Note_on_c, 12, 72, 76
14, 264219, Note_on_c, 12, 72, 0
14, 264240, Note_on_c, 12, 67, 76
14, 264339, Note_on_c, 12, 67, 0
14, 264360, Note_on_c, 12, 72, 76
14, 264459, Note_on_c, 12, 72, 0
14, 264480, Note_on_c, 12, 68, 76
14, 264579, Note_on_c, 12, 68, 0
14, 264600, Note_on_c, 12, 72, 76
14, 264699, Note_on_c, 12, 72, 0
14, 264720, Note_on_c, 12, 71, 76
14, 264819, Note_on_c, 12, 71, 0
14, 264840, Note_on_c, 12, 77, 76
14, 264939, Note_on_c, 12, 77, 0
14, 264960, Note_on_c, 12, 72, 76
14, 265059, Note_on_c, 12, 72, 0
14, 265080, Note_on_c, 12, 77, 76
14, 265179, Note_on_c, 12, 77, 0
14, 265200, Note_on_c, 12, 71, 76
14, 265299, Note_on_c, 12, 71, 0
14, 265320, Note_on_c, 12, 77, 76
14, 265419, Note_on_c, 12, 77, 0
14, 265440, Note_on_c, 12, 72, 76
14, 265539, Note_on_c, 12, 72, 0
14, 265560, Note_on_c, 12, 77, 76
14, 265659, Note_on_c, 12, 77, 0
14, 265680, Note_on_c, 12, 74, 76
14, 265779, Note_on_c, 12, 74, 0
14, 265800, Note_on_c, 12, 79, 76
14, 265899, Note_on_c, 12, 79, 0
14, 265920, Note_on_c, 12, 75, 84
14, 266159, Note_on_c, 12, 75, 0
14, 266160, Note_on_c, 12, 72, 76
14, 266379, Note_on_c, 12, 72, 0
14, 266400, Note_on_c, 12, 74, 76
14, 266579, Note_on_c, 12, 74, 0
14, 266640, Note_on_c, 12, 75, 76
14, 266819, Note_on_c, 12, 75, 0
14, 266880, Note_on_c, 12, 77, 84
14, 267119, Note_on_c, 12, 77, 0
14, 267120, Note_on_c, 12, 74, 76
14, 267339, Note_on_c, 12, 74, 0
14, 267360, Note_on_c, 12, 75, 76
14, 267539, Note_on_c, 12, 75, 0
14, 267600, Note_on_c, 12, 77, 76
14, 267779, Note_on_c, 12, 77, 0
14, 267840, Note_on_c, 12, 79, 76
14, 268079, Note_on_c, 12, 79, 0
14, 268080, Note_on_c, 12, 75, 76
14, 268299, Note_on_c, 12, 75, 0
14, 268320, Note_on_c, 12, 77, 76
14, 268499, Note_on_c, 12, 77, 0
14, 268560, Note_on_c, 12, 79, 76
14, 268739, Note_on_c, 12, 79, 0
14, 268800, Note_on_c, 12, 80, 76
14, 269039, Note_on_c, 12, 80, 0
14, 269040, Note_on_c, 12, 77, 76
14, 269259, Note_on_c, 12, 77, 0
14, 269280, Note_on_c, 12, 79, 76
14, 269459, Note_on_c, 12, 79, 0
14, 269520, Note_on_c, 12, 81, 76
14, 269699, Note_on_c, 12, 81, 0
14, 269760, Note_on_c, 12, 83, 76
14, 269999, Note_on_c, 12, 83, 0
14, 270000, Note_on_c, 12, 79, 76
14, 270219, Note_on_c, 12, 79, 0
14, 270240, Note_on_c, 12, 81, 76
14, 270419, Note_on_c, 12, 81, 0
14, 270480, Note_on_c, 12, 83, 76
14, 270659, Note_on_c, 12, 83, 0
14, 270720, Note_on_c, 12, 84, 76
14, 270959, Note_on_c, 12, 84, 0
14, 270960, Note_on_c, 12, 79, 76
14, 271179, Note_on_c, 12, 79, 0
14, 271200, Note_on_c, 12, 80, 76
14, 271379, Note_on_c, 12, 80, 0
14, 271440, Note_on_c, 12, 75, 76
14, 271619, Note_on_c, 12, 75, 0
14, 271680, Note_on_c, 12, 77, 76
14, 271859, Note_on_c, 12, 77, 0
14, 271920, Note_on_c, 12, 74, 76
14, 272099, Note_on_c, 12, 74, 0
14, 272160, Note_on_c, 12, 75, 76
14, 272339, Note_on_c, 12, 75, 0
14, 272400, Note_on_c, 12, 77, 76
14, 272579, Note_on_c, 12, 77, 0
14, 272640, Note_on_c, 12, 79, 76
14, 272819, Note_on_c, 12, 79, 0
14, 272880, Note_on_c, 12, 78, 76
14, 273059, Note_on_c, 12, 78, 0
14, 273120, Note_on_c, 12, 79, 76
14, 273299, Note_on_c, 12, 79, 0
14, 273360, Note_on_c, 12, 67, 76
14, 273539, Note_on_c, 12, 67, 0
14, 273600, Note_on_c, 12, 72, 76
14, 273839, Note_on_c, 12, 72, 0
14, 275040, Note_on_c, 12, 63, 76
14, 275219, Note_on_c, 12, 63, 0
14, 275280, Note_on_c, 12, 65, 76
14, 275459, Note_on_c, 12, 65, 0
14, 275520, Note_on_c, 12, 67, 76
14, 275759, Note_on_c, 12, 67, 0
14, 275760, Note_on_c, 12, 63, 76
14, 275999, Note_on_c, 12, 63, 0
14, 276960, Note_on_c, 12, 59, 76
14, 277139, Note_on_c, 12, 59, 0
14, 277200, Note_on_c, 12, 60, 76
14, 277379, Note_on_c, 12, 60, 0
14, 277440, Note_on_c, 12, 62, 76
14, 277679, Note_on_c, 12, 62, 0
14, 277680, Note_on_c, 12, 59, 76
14, 277919, Note_on_c, 12, 59, 0
14, 278880, Note_on_c, 12, 59, 76
14, 279059, Note_on_c, 12, 59, 0
14, 279120, Note_on_c, 12, 60, 76
14, 279299, Note_on_c, 12, 60, 0
14, 279360, Note_on_c, 12, 62, 76
14, 279599, Note_on_c, 12, 62, 0
14, 279600, Note_on_c, 12, 59, 76
14, 279839, Note_on_c, 12, 59, 0
14, 281760, Note_on_c, 12, 65, 84
14, 281999, Note_on_c, 12, 65, 0
14, 282000, Note_on_c, 12, 63, 76
14, 282239, Note_on_c, 12, 63, 0
14, 282720, Note_on_c, 12, 65, 76
14, 282959, Note_on_c, 12, 65, 0
14, 282960, Note_on_c, 12, 63, 76
14, 283179, Note_on_c, 12, 63, 0
14, 283200, Note_on_c, 12, 72, 76
14, 283200, Note_on_c, 12, 79, 76
14, 283200, Note_on_c, 12, 55, 76
14, 283200, Note_on_c, 12, 63, 76
14, 283439, Note_on_c, 12, 72, 0
14, 283439, Note_on_c, 12, 79, 0
14, 283439, Note_on_c, 12, 55, 0
14, 283439, Note_on_c, 12, 63, 0
14, 283680, Note_on_c, 12, 79, 76
14, 283680, Note_on_c, 12, 71, 76
14, 283680, Note_on_c, 12, 55, 76
14, 283680, Note_on_c, 12, 62, 76
14, 283919, Note_on_c, 12, 79, 0
14, 283919, Note_on_c, 12, 71, 0
14, 283919, Note_on_c, 12, 55, 0
14, 283919, Note_on_c, 12, 62, 0
14, 284160, Note_on_c, 12, 63, 76
14, 284399, Note_on_c, 12, 63, 0
14, 284400, Note_on_c, 12, 70, 76
14, 284639, Note_on_c, 12, 70, 0
14, 284640, Note_on_c, 12, 60, 76
14, 284879, Note_on_c, 12, 60, 0
14, 284880, Note_on_c, 12, 67, 76
14, 285119, Note_on_c, 12, 67, 0
14, 285120, Note_on_c, 12, 56, 76
14, 285359, Note_on_c, 12, 56, 0
14, 285360, Note_on_c, 12, 63, 76
14, 285599, Note_on_c, 12, 63, 0
14, 286080, Note_on_c, 12, 65, 76
14, 286319, Note_on_c, 12, 65, 0
14, 286320, Note_on_c, 12, 63, 76
14, 286539, Note_on_c, 12, 63, 0
14, 286560, Note_on_c, 12, 77, 76
14, 286799, Note_on_c, 12, 77, 0
14, 286800, Note_on_c, 12, 75, 76
14, 287019, Note_on_c, 12, 75, 0
14, 287040, Note_on_c, 12, 72, 76
14, 287040, Note_on_c, 12, 55, 76
14, 287040, Note_on_c, 12, 63, 76
14, 287040, Note_on_c, 12, 79, 76
14, 287279, Note_on_c, 12, 72, 0
14, 287279, Note_on_c, 12, 55, 0
14, 287279, Note_on_c, 12, 63, 0
14, 287279, Note_on_c, 12, 79, 0
14, 287520, Note_on_c, 12, 55, 76
14, 287520, Note_on_c, 12, 79, 76
14, 287520, Note_on_c, 12, 62, 76
14, 287520, Note_on_c, 12, 71, 76
14, 287759, Note_on_c, 12, 55, 0
14, 287759, Note_on_c, 12, 79, 0
14, 287759, Note_on_c, 12, 62, 0
14, 287759, Note_on_c, 12, 71, 0
14, 288000, Note_on_c, 12, 55, 76
14, 288000, Note_on_c, 12, 72, 76
14, 288000, Note_on_c, 12, 63, 76
14, 288099, Note_on_c, 12, 55, 0
14, 288099, Note_on_c, 12, 72, 0
14, 288099, Note_on_c, 12, 63, 0
14, 288120, Note_on_c, 12, 67, 76
14, 288219, Note_on_c, 12, 67, 0
14, 288240, Note_on_c, 12, 67, 76
14, 288339, Note_on_c, 12, 67, 0
14, 288360, Note_on_c, 12, 67, 76
14, 288459, Note_on_c, 12, 67, 0
14, 288480, Note_on_c, 12, 67, 76
14, 289439, Note_on_c, 12, 67, 0
14, 289440, Note_on_c, 12, 67, 76
14, 290399, Note_on_c, 12, 67, 0
14, 290400, Note_on_c, 12, 67, 76
14, 290499, Note_on_c, 12, 67, 0
14, 290520, Note_on_c, 12, 67, 76
14, 290619, Note_on_c, 12, 67, 0
14, 290640, Note_on_c, 12, 67, 76
14, 290739, Note_on_c, 12, 67, 0
14, 290760, Note_on_c, 12, 67, 76
14, 290859, Note_on_c, 12, 67, 0
14, 290880, Note_on_c, 12, 60, 76
14, 290979, Note_on_c, 12, 60, 0
14, 291000, Note_on_c, 12, 67, 76
14, 291099, Note_on_c, 12, 67, 0
14, 291120, Note_on_c, 12, 67, 76
14, 291219, Note_on_c, 12, 67, 0
14, 291240, Note_on_c, 12, 67, 76
14, 291339, Note_on_c, 12, 67, 0
14, 291360, Note_on_c, 12, 67, 76
14, 291459, Note_on_c, 12, 67, 0
14, 291480, Note_on_c, 12, 67, 76
14, 291579, Note_on_c, 12, 67, 0
14, 291600, Note_on_c, 12, 67, 76
14, 291699, Note_on_c, 12, 67, 0
14, 291720, Note_on_c, 12, 67, 76
14, 291819, Note_on_c, 12, 67, 0
14, 291840, Note_on_c, 12, 67, 76
14, 291939, Note_on_c, 12, 67, 0
14, 291960, Note_on_c, 12, 67, 76
14, 292059, Note_on_c, 12, 67, 0
14, 292080, Note_on_c, 12, 67, 76
14, 292179, Note_on_c, 12, 67, 0
14, 292200, Note_on_c, 12, 67, 76
14, 292299, Note_on_c, 12, 67, 0
14, 292320, Note_on_c, 12, 67, 76
14, 292419, Note_on_c, 12, 67, 0
14, 292440, Note_on_c, 12, 67, 76
14, 292539, Note_on_c, 12, 67, 0
14, 292560, Note_on_c, 12, 67, 76
14, 292659, Note_on_c, 12, 67, 0
14, 292680, Note_on_c, 12, 67, 76
14, 292779, Note_on_c, 12, 67, 0
14, 292800, Note_on_c, 12, 63, 84
14, 294239, Note_on_c, 12, 63, 0
14, 294360, Note_on_c, 12, 65, 84
14, 294459, Note_on_c, 12, 65, 0
14, 294480, Note_on_c, 12, 65, 84
14, 294579, Note_on_c, 12, 65, 0
14, 294600, Note_on_c, 12, 65, 84
14, 294699, Note_on_c, 12, 65, 0
14, 294720, Note_on_c, 12, 62, 84
14, 296639, Note_on_c, 12, 62, 0
14, 296760, Note_on_c, 12, 67, 44
14, 296859, Note_on_c, 12, 67, 0
14, 296880, Note_on_c, 12, 67, 44
14, 296979, Note_on_c, 12, 67, 0
14, 297000, Note_on_c, 12, 67, 44
14, 297099, Note_on_c, 12, 67, 0
14, 297120, Note_on_c, 12, 63, 44
14, 298079, Note_on_c, 12, 63, 0
14, 298080, Note_on_c, 12, 63, 44
14, 298659, Note_on_c, 12, 63, 0
14, 298680, Note_on_c, 12, 67, 44
14, 298779, Note_on_c, 12, 67, 0
14, 298800, Note_on_c, 12, 67, 44
14, 298899, Note_on_c, 12, 67, 0
14, 298920, Note_on_c, 12, 67, 44
14, 299019, Note_on_c, 12, 67, 0
14, 299040, Note_on_c, 12, 63, 44
14, 299999, Note_on_c, 12, 63, 0
14, 300000, Note_on_c, 12, 63, 44
14, 300579, Note_on_c, 12, 63, 0
14, 300600, Note_on_c, 12, 71, 84
14, 300600, Note_on_c, 12, 62, 84
14, 300699, Note_on_c, 12, 71, 0
14, 300699, Note_on_c, 12, 62, 0
14, 300720, Note_on_c, 12, 71, 84
14, 300720, Note_on_c, 12, 62, 84
14, 300819, Note_on_c, 12, 71, 0
14, 300819, Note_on_c, 12, 62, 0
14, 300840, Note_on_c, 12, 71, 84
14, 300840, Note_on_c, 12, 62, 84
14, 300939, Note_on_c, 12, 71, 0
14, 300939, Note_on_c, 12, 62, 0
14, 300960, Note_on_c, 12, 72, 84
14, 300960, Note_on_c, 12, 63, 84
14, 301199, Note_on_c, 12, 72, 0
14, 301199, Note_on_c, 12, 63, 0
14, 301560, Note_on_c, 12, 71, 84
14, 301560, Note_on_c, 12, 62, 84
14, 301659, Note_on_c, 12, 71, 0
14, 301659, Note_on_c, 12, 62, 0
14, 301680, Note_on_c, 12, 71, 84
14, 301680, Note_on_c, 12, 62, 84
14, 301779, Note_on_c, 12, 71, 0
14, 301779, Note_on_c, 12, 62, 0
14, 301800, Note_on_c, 12, 71, 84
14, 301800, Note_on_c, 12, 62, 84
14, 301899, Note_on_c, 12, 71, 0
14, 301899, Note_on_c, 12, 62, 0
14, 301920, Note_on_c, 12, 72, 84
14, 301920, Note_on_c, 12, 63, 84
14, 302159, Note_on_c, 12, 72, 0
14, 302159, Note_on_c, 12, 63, 0
14, 302520, Note_on_c, 12, 71, 84
14, 302520, Note_on_c, 12, 62, 84
14, 302619, Note_on_c, 12, 71, 0
14, 302619, Note_on_c, 12, 62, 0
14, 302640, Note_on_c, 12, 71, 84
14, 302640, Note_on_c, 12, 62, 84
14, 302739, Note_on_c, 12, 71, 0
14, 302739, Note_on_c, 12, 62, 0
14, 302760, Note_on_c, 12, 71, 84
14, 302760, Note_on_c, 12, 62, 84
14, 302859, Note_on_c, 12, 71, 0
14, 302859, Note_on_c, 12, 62, 0
14, 302880, Note_on_c, 12, 72, 84
14, 302880, Note_on_c, 12, 63, 84
14, 303099, Note_on_c, 12, 72, 0
14, 303099, Note_on_c, 12, 63, 0
14, 303120, Note_on_c, 12, 71, 84
14, 303120, Note_on_c, 12, 62, 84
14, 303120, Note_on_c, 12, 55, 84
14, 303339, Note_on_c, 12, 71, 0
14, 303339, Note_on_c, 12, 62, 0
14, 303339, Note_on_c, 12, 55, 0
14, 303360, Note_on_c, 12, 72, 84
14, 303360, Note_on_c, 12, 63, 84
14, 303360, Note_on_c, 12, 55, 84
14, 303579, Note_on_c, 12, 72, 0
14, 303579, Note_on_c, 12, 63, 0
14, 303579, Note_on_c, 12, 55, 0
14, 303600, Note_on_c, 12, 71, 84
14, 303600, Note_on_c, 12, 62, 84
14, 303600, Note_on_c, 12, 55, 84
14, 303819, Note_on_c, 12, 71, 0
14, 303819, Note_on_c, 12, 62, 0
14, 303819, Note_on_c, 12, 55, 0
14, 303840, Note_on_c, 12, 72, 84
14, 303840, Note_on_c, 12, 63, 84
14, 303840, Note_on_c, 12, 55, 84
14, 304059, Note_on_c, 12, 72, 0
14, 304059, Note_on_c, 12, 63, 0
14, 304059, Note_on_c, 12, 55, 0
14, 304080, Note_on_c, 12, 79, 84
14, 304080, Note_on_c, 12, 71, 84
14, 304080, Note_on_c, 12, 62, 84
14, 304299, Note_on_c, 12, 79, 0
14, 304299, Note_on_c, 12, 71, 0
14, 304299, Note_on_c, 12, 62, 0
14, 304320, Note_on_c, 12, 79, 84
14, 304320, Note_on_c, 12, 72, 84
14, 304320, Note_on_c, 12, 63, 84
14, 304539, Note_on_c, 12, 79, 0
14, 304539, Note_on_c, 12, 72, 0
14, 304539, Note_on_c, 12, 63, 0
14, 304560, Note_on_c, 12, 79, 84
14, 304560, Note_on_c, 12, 71, 84
14, 304560, Note_on_c, 12, 62, 84
14, 304779, Note_on_c, 12, 79, 0
14, 304779, Note_on_c, 12, 71, 0
14, 304779, Note_on_c, 12, 62, 0
14, 304800, Note_on_c, 12, 79, 84
14, 304800, Note_on_c, 12, 72, 84
14, 304800, Note_on_c, 12, 63, 84
14, 305039, Note_on_c, 12, 79, 0
14, 305039, Note_on_c, 12, 72, 0
14, 305039, Note_on_c, 12, 63, 0
14, 305280, Note_on_c, 12, 71, 84
14, 305280, Note_on_c, 12, 62, 84
14, 305280, Note_on_c, 12, 55, 84
14, 305519, Note_on_c, 12, 71, 0
14, 305519, Note_on_c, 12, 62, 0
14, 305519, Note_on_c, 12, 55, 0
14, 305760, Note_on_c, 12, 72, 84
14, 305760, Note_on_c, 12, 63, 84
14, 305760, Note_on_c, 12, 55, 84
14, 305999, Note_on_c, 12, 72, 0
14, 305999, Note_on_c, 12, 63, 0
14, 305999, Note_on_c, 12, 55, 0
14, 305999, End_track
15, 0, Start_track
15, 0, Title_t, "Viola "
15, 0, MIDI_port, 0
15, 0, Program_c, 13, 48
15, 0, Control_c, 13, 11, 127
15, 0, Control_c, 13, 10, 70
15, 0, Control_c, 13, 7, 96
15, 120, Note_on_c, 13, 55, 84
15, 219, Note_on_c, 13, 55, 0
15, 240, Note_on_c, 13, 55, 84
15, 339, Note_on_c, 13, 55, 0
15, 360, Note_on_c, 13, 55, 84
15, 459, Note_on_c, 13, 55, 0
15, 480, Note_on_c, 13, 51, 84
15, 959, Note_on_c, 13, 51, 0
15, 1080, Note_on_c, 13, 53, 84
15, 1179, Note_on_c, 13, 53, 0
15, 1200, Note_on_c, 13, 53, 84
15, 1299, Note_on_c, 13, 53, 0
15, 1320, Note_on_c, 13, 53, 84
15, 1419, Note_on_c, 13, 53, 0
15, 1440, Note_on_c, 13, 50, 84
15, 2399, Note_on_c, 13, 50, 0
15, 3000, Note_on_c, 13, 68, 52
15, 3099, Note_on_c, 13, 68, 0
15, 3120, Note_on_c, 13, 68, 52
15, 3219, Note_on_c, 13, 68, 0
15, 3240, Note_on_c, 13, 68, 52
15, 3339, Note_on_c, 13, 68, 0
15, 3360, Note_on_c, 13, 67, 52
15, 4539, Note_on_c, 13, 67, 0
15, 4920, Note_on_c, 13, 68, 52
15, 5019, Note_on_c, 13, 68, 0
15, 5040, Note_on_c, 13, 68, 52
15, 5139, Note_on_c, 13, 68, 0
15, 5160, Note_on_c, 13, 68, 52
15, 5259, Note_on_c, 13, 68, 0
15, 5280, Note_on_c, 13, 67, 52
15, 5739, Note_on_c, 13, 67, 0
15, 5760, Note_on_c, 13, 62, 52
15, 6699, Note_on_c, 13, 62, 0
15, 6720, Note_on_c, 13, 63, 52
15, 6819, Note_on_c, 13, 63, 0
15, 6840, Note_on_c, 13, 63, 52
15, 6939, Note_on_c, 13, 63, 0
15, 6960, Note_on_c, 13, 63, 52
15, 7059, Note_on_c, 13, 63, 0
15, 7080, Note_on_c, 13, 65, 52
15, 7179, Note_on_c, 13, 65, 0
15, 7200, Note_on_c, 13, 67, 52
15, 7779, Note_on_c, 13, 67, 0
15, 7800, Note_on_c, 13, 63, 52
15, 7899, Note_on_c, 13, 63, 0
15, 7920, Note_on_c, 13, 63, 52
15, 8019, Note_on_c, 13, 63, 0
15, 8040, Note_on_c, 13, 65, 52
15, 8139, Note_on_c, 13, 65, 0
15, 8158, Control_c, 13, 11, 80
15, 8160, Note_on_c, 13, 67, 76
15, 8200, Control_c, 13, 11, 84
15, 8240, Control_c, 13, 11, 88
15, 8280, Control_c, 13, 11, 92
15, 8320, Control_c, 13, 11, 96
15, 8360, Control_c, 13, 11, 100
15, 8400, Control_c, 13, 11, 104
15, 8440, Control_c, 13, 11, 107
15, 8480, Control_c, 13, 11, 111
15, 8499, Note_on_c, 13, 67, 0
15, 8520, Note_on_c, 13, 62, 76
15, 8520, Control_c, 13, 11, 115
15, 8560, Control_c, 13, 11, 119
15, 8600, Control_c, 13, 11, 127
15, 8619, Note_on_c, 13, 62, 0
15, 8640, Note_on_c, 13, 63, 76
15, 8879, Note_on_c, 13, 63, 0
15, 9120, Note_on_c, 13, 56, 76
15, 9359, Note_on_c, 13, 56, 0
15, 9600, Note_on_c, 13, 55, 76
15, 9839, Note_on_c, 13, 55, 0
15, 10200, Note_on_c, 13, 56, 84
15, 10299, Note_on_c, 13, 56, 0
15, 10320, Note_on_c, 13, 56, 84
15, 10419, Note_on_c, 13, 56, 0
15, 10440, Note_on_c, 13, 56, 84
15, 10539, Note_on_c, 13, 56, 0
15, 10560, Note_on_c, 13, 53, 84
15, 11519, Note_on_c, 13, 53, 0
15, 12600, Note_on_c, 13, 56, 52
15, 12699, Note_on_c, 13, 56, 0
15, 12720, Note_on_c, 13, 56, 52
15, 12819, Note_on_c, 13, 56, 0
15, 12840, Note_on_c, 13, 56, 52
15, 12939, Note_on_c, 13, 56, 0
15, 12960, Note_on_c, 13, 55, 52
15, 13679, Note_on_c, 13, 55, 0
15, 14520, Note_on_c, 13, 56, 52
15, 14619, Note_on_c, 13, 56, 0
15, 14640, Note_on_c, 13, 56, 52
15, 14739, Note_on_c, 13, 56, 0
15, 14760, Note_on_c, 13, 56, 52
15, 14859, Note_on_c, 13, 56, 0
15, 14880, Note_on_c, 13, 55, 52
15, 15459, Note_on_c, 13, 55, 0
15, 15480, Note_on_c, 13, 63, 52
15, 15579, Note_on_c, 13, 63, 0
15, 15600, Note_on_c, 13, 63, 52
15, 15699, Note_on_c, 13, 63, 0
15, 15720, Note_on_c, 13, 60, 52
15, 15819, Note_on_c, 13, 60, 0
15, 15838, Control_c, 13, 11, 96
15, 15840, Control_c, 13, 11, 96
15, 15840, Note_on_c, 13, 62, 68
15, 15920, Control_c, 13, 11, 97
15, 16000, Control_c, 13, 11, 99
15, 16080, Control_c, 13, 11, 100
15, 16160, Control_c, 13, 11, 101
15, 16240, Control_c, 13, 11, 102
15, 16320, Control_c, 13, 11, 104
15, 16400, Control_c, 13, 11, 105
15, 16419, Note_on_c, 13, 62, 0
15, 16440, Note_on_c, 13, 65, 68
15, 16480, Control_c, 13, 11, 106
15, 16539, Note_on_c, 13, 65, 0
15, 16560, Note_on_c, 13, 65, 68
15, 16560, Control_c, 13, 11, 108
15, 16640, Control_c, 13, 11, 109
15, 16659, Note_on_c, 13, 65, 0
15, 16680, Note_on_c, 13, 62, 68
15, 16720, Control_c, 13, 11, 110
15, 16779, Note_on_c, 13, 62, 0
15, 16800, Note_on_c, 13, 63, 68
15, 16800, Control_c, 13, 11, 112
15, 16880, Control_c, 13, 11, 113
15, 16960, Control_c, 13, 11, 114
15, 17040, Control_c, 13, 11, 115
15, 17120, Control_c, 13, 11, 117
15, 17200, Control_c, 13, 11, 118
15, 17280, Control_c, 13, 11, 119
15, 17360, Control_c, 13, 11, 121
15, 17379, Note_on_c, 13, 63, 0
15, 17400, Note_on_c, 13, 63, 68
15, 17440, Control_c, 13, 11, 122
15, 17499, Note_on_c, 13, 63, 0
15, 17520, Control_c, 13, 11, 123
15, 17520, Note_on_c, 13, 63, 68
15, 17600, Control_c, 13, 11, 124
15, 17619, Note_on_c, 13, 63, 0
15, 17640, Note_on_c, 13, 60, 68
15, 17680, Control_c, 13, 11, 127
15, 17739, Note_on_c, 13, 60, 0
15, 17760, Note_on_c, 13, 65, 76
15, 17859, Note_on_c, 13, 65, 0
15, 17880, Note_on_c, 13, 65, 68
15, 17979, Note_on_c, 13, 65, 0
15, 18000, Note_on_c, 13, 65, 68
15, 18099, Note_on_c, 13, 65, 0
15, 18120, Note_on_c, 13, 59, 68
15, 18219, Note_on_c, 13, 59, 0
15, 18240, Note_on_c, 13, 67, 76
15, 18339, Note_on_c, 13, 67, 0
15, 18360, Note_on_c, 13, 67, 68
15, 18459, Note_on_c, 13, 67, 0
15, 18480, Note_on_c, 13, 67, 68
15, 18579, Note_on_c, 13, 67, 0
15, 18600, Note_on_c, 13, 58, 68
15, 18699, Note_on_c, 13, 58, 0
15, 18720, Note_on_c, 13, 68, 76
15, 18819, Note_on_c, 13, 68, 0
15, 18840, Note_on_c, 13, 56, 68
15, 18939, Note_on_c, 13, 56, 0
15, 18960, Note_on_c, 13, 56, 68
15, 19059, Note_on_c, 13, 56, 0
15, 19080, Note_on_c, 13, 53, 68
15, 19179, Note_on_c, 13, 53, 0
15, 19200, Note_on_c, 13, 58, 76
15, 19299, Note_on_c, 13, 58, 0
15, 19320, Note_on_c, 13, 58, 68
15, 19419, Note_on_c, 13, 58, 0
15, 19440, Note_on_c, 13, 58, 68
15, 19539, Note_on_c, 13, 58, 0
15, 19560, Note_on_c, 13, 55, 68
15, 19659, Note_on_c, 13, 55, 0
15, 19680, Note_on_c, 13, 60, 76
15, 19779, Note_on_c, 13, 60, 0
15, 19800, Note_on_c, 13, 60, 68
15, 19899, Note_on_c, 13, 60, 0
15, 19920, Note_on_c, 13, 60, 68
15, 20019, Note_on_c, 13, 60, 0
15, 20040, Note_on_c, 13, 56, 68
15, 20139, Note_on_c, 13, 56, 0
15, 20160, Note_on_c, 13, 65, 76
15, 20259, Note_on_c, 13, 65, 0
15, 20280, Note_on_c, 13, 65, 68
15, 20379, Note_on_c, 13, 65, 0
15, 20400, Note_on_c, 13, 65, 68
15, 20499, Note_on_c, 13, 65, 0
15, 20520, Note_on_c, 13, 62, 68
15, 20619, Note_on_c, 13, 62, 0
15, 20640, Note_on_c, 13, 63, 76
15, 20739, Note_on_c, 13, 63, 0
15, 20760, Note_on_c, 13, 48, 76
15, 20760, Note_on_c, 13, 51, 76
15, 20859, Note_on_c, 13, 48, 0
15, 20859, Note_on_c, 13, 51, 0
15, 20880, Note_on_c, 13, 48, 76
15, 20880, Note_on_c, 13, 51, 76
15, 20979, Note_on_c, 13, 48, 0
15, 20979, Note_on_c, 13, 51, 0
15, 21000, Note_on_c, 13, 48, 76
15, 21000, Note_on_c, 13, 51, 76
15, 21099, Note_on_c, 13, 48, 0
15, 21099, Note_on_c, 13, 51, 0
15, 21120, Note_on_c, 13, 51, 76
15, 21120, Note_on_c, 13, 48, 76
15, 21219, Note_on_c, 13, 51, 0
15, 21219, Note_on_c, 13, 48, 0
15, 21240, Note_on_c, 13, 51, 76
15, 21240, Note_on_c, 13, 48, 76
15, 21339, Note_on_c, 13, 51, 0
15, 21339, Note_on_c, 13, 48, 0
15, 21360, Note_on_c, 13, 51, 76
15, 21360, Note_on_c, 13, 48, 76
15, 21459, Note_on_c, 13, 51, 0
15, 21459, Note_on_c, 13, 48, 0
15, 21480, Note_on_c, 13, 48, 76
15, 21480, Note_on_c, 13, 51, 76
15, 21579, Note_on_c, 13, 48, 0
15, 21579, Note_on_c, 13, 51, 0
15, 21600, Note_on_c, 13, 48, 76
15, 21600, Note_on_c, 13, 51, 76
15, 21699, Note_on_c, 13, 48, 0
15, 21699, Note_on_c, 13, 51, 0
15, 21720, Note_on_c, 13, 51, 76
15, 21720, Note_on_c, 13, 48, 76
15, 21819, Note_on_c, 13, 51, 0
15, 21819, Note_on_c, 13, 48, 0
15, 21840, Note_on_c, 13, 48, 76
15, 21840, Note_on_c, 13, 51, 76
15, 21939, Note_on_c, 13, 48, 0
15, 21939, Note_on_c, 13, 51, 0
15, 21960, Note_on_c, 13, 51, 76
15, 21960, Note_on_c, 13, 48, 76
15, 22059, Note_on_c, 13, 51, 0
15, 22059, Note_on_c, 13, 48, 0
15, 22080, Note_on_c, 13, 48, 76
15, 22080, Note_on_c, 13, 51, 76
15, 22179, Note_on_c, 13, 48, 0
15, 22179, Note_on_c, 13, 51, 0
15, 22200, Note_on_c, 13, 51, 76
15, 22200, Note_on_c, 13, 48, 76
15, 22299, Note_on_c, 13, 51, 0
15, 22299, Note_on_c, 13, 48, 0
15, 22320, Note_on_c, 13, 48, 76
15, 22320, Note_on_c, 13, 51, 76
15, 22419, Note_on_c, 13, 48, 0
15, 22419, Note_on_c, 13, 51, 0
15, 22440, Note_on_c, 13, 51, 76
15, 22440, Note_on_c, 13, 48, 76
15, 22539, Note_on_c, 13, 51, 0
15, 22539, Note_on_c, 13, 48, 0
15, 22560, Note_on_c, 13, 50, 76
15, 22560, Note_on_c, 13, 53, 76
15, 22659, Note_on_c, 13, 50, 0
15, 22659, Note_on_c, 13, 53, 0
15, 22680, Note_on_c, 13, 53, 76
15, 22680, Note_on_c, 13, 50, 76
15, 22779, Note_on_c, 13, 53, 0
15, 22779, Note_on_c, 13, 50, 0
15, 22800, Note_on_c, 13, 50, 76
15, 22800, Note_on_c, 13, 53, 76
15, 22899, Note_on_c, 13, 50, 0
15, 22899, Note_on_c, 13, 53, 0
15, 22920, Note_on_c, 13, 50, 76
15, 22920, Note_on_c, 13, 53, 76
15, 23019, Note_on_c, 13, 50, 0
15, 23019, Note_on_c, 13, 53, 0
15, 23040, Note_on_c, 13, 53, 76
15, 23040, Note_on_c, 13, 50, 76
15, 23139, Note_on_c, 13, 53, 0
15, 23139, Note_on_c, 13, 50, 0
15, 23160, Note_on_c, 13, 53, 76
15, 23160, Note_on_c, 13, 50, 76
15, 23259, Note_on_c, 13, 53, 0
15, 23259, Note_on_c, 13, 50, 0
15, 23280, Note_on_c, 13, 50, 76
15, 23280, Note_on_c, 13, 53, 76
15, 23379, Note_on_c, 13, 50, 0
15, 23379, Note_on_c, 13, 53, 0
15, 23400, Note_on_c, 13, 50, 76
15, 23400, Note_on_c, 13, 53, 76
15, 23499, Note_on_c, 13, 50, 0
15, 23499, Note_on_c, 13, 53, 0
15, 23520, Note_on_c, 13, 53, 76
15, 23520, Note_on_c, 13, 50, 76
15, 23619, Note_on_c, 13, 53, 0
15, 23619, Note_on_c, 13, 50, 0
15, 23640, Note_on_c, 13, 53, 76
15, 23640, Note_on_c, 13, 50, 76
15, 23739, Note_on_c, 13, 53, 0
15, 23739, Note_on_c, 13, 50, 0
15, 23760, Note_on_c, 13, 50, 76
15, 23760, Note_on_c, 13, 53, 76
15, 23859, Note_on_c, 13, 50, 0
15, 23859, Note_on_c, 13, 53, 0
15, 23880, Note_on_c, 13, 50, 76
15, 23880, Note_on_c, 13, 53, 76
15, 23979, Note_on_c, 13, 50, 0
15, 23979, Note_on_c, 13, 53, 0
15, 24000, Note_on_c, 13, 53, 76
15, 24000, Note_on_c, 13, 50, 76
15, 24099, Note_on_c, 13, 53, 0
15, 24099, Note_on_c, 13, 50, 0
15, 24120, Note_on_c, 13, 50, 76
15, 24120, Note_on_c, 13, 53, 76
15, 24219, Note_on_c, 13, 50, 0
15, 24219, Note_on_c, 13, 53, 0
15, 24240, Note_on_c, 13, 48, 76
15, 24240, Note_on_c, 13, 51, 76
15, 24339, Note_on_c, 13, 48, 0
15, 24339, Note_on_c, 13, 51, 0
15, 24360, Note_on_c, 13, 48, 76
15, 24360, Note_on_c, 13, 51, 76
15, 24459, Note_on_c, 13, 48, 0
15, 24459, Note_on_c, 13, 51, 0
15, 24480, Note_on_c, 13, 51, 84
15, 24480, Note_on_c, 13, 48, 84
15, 24579, Note_on_c, 13, 51, 0
15, 24579, Note_on_c, 13, 48, 0
15, 24600, Note_on_c, 13, 51, 84
15, 24600, Note_on_c, 13, 54, 84
15, 24699, Note_on_c, 13, 51, 0
15, 24699, Note_on_c, 13, 54, 0
15, 24720, Note_on_c, 13, 54, 84
15, 24720, Note_on_c, 13, 51, 84
15, 24819, Note_on_c, 13, 54, 0
15, 24819, Note_on_c, 13, 51, 0
15, 24840, Note_on_c, 13, 54, 84
15, 24840, Note_on_c, 13, 51, 84
15, 24939, Note_on_c, 13, 54, 0
15, 24939, Note_on_c, 13, 51, 0
15, 24960, Note_on_c, 13, 54, 84
15, 24960, Note_on_c, 13, 51, 84
15, 25059, Note_on_c, 13, 54, 0
15, 25059, Note_on_c, 13, 51, 0
15, 25080, Note_on_c, 13, 54, 84
15, 25080, Note_on_c, 13, 51, 84
15, 25179, Note_on_c, 13, 54, 0
15, 25179, Note_on_c, 13, 51, 0
15, 25200, Note_on_c, 13, 51, 84
15, 25200, Note_on_c, 13, 54, 84
15, 25299, Note_on_c, 13, 51, 0
15, 25299, Note_on_c, 13, 54, 0
15, 25320, Note_on_c, 13, 51, 84
15, 25320, Note_on_c, 13, 54, 84
15, 25419, Note_on_c, 13, 51, 0
15, 25419, Note_on_c, 13, 54, 0
15, 25440, Note_on_c, 13, 54, 84
15, 25440, Note_on_c, 13, 51, 84
15, 25539, Note_on_c, 13, 54, 0
15, 25539, Note_on_c, 13, 51, 0
15, 25560, Note_on_c, 13, 54, 84
15, 25560, Note_on_c, 13, 51, 84
15, 25659, Note_on_c, 13, 54, 0
15, 25659, Note_on_c, 13, 51, 0
15, 25680, Note_on_c, 13, 51, 84
15, 25680, Note_on_c, 13, 54, 84
15, 25779, Note_on_c, 13, 51, 0
15, 25779, Note_on_c, 13, 54, 0
15, 25800, Note_on_c, 13, 54, 84
15, 25800, Note_on_c, 13, 51, 84
15, 25899, Note_on_c, 13, 54, 0
15, 25899, Note_on_c, 13, 51, 0
15, 25920, Note_on_c, 13, 54, 84
15, 25920, Note_on_c, 13, 51, 84
15, 26019, Note_on_c, 13, 54, 0
15, 26019, Note_on_c, 13, 51, 0
15, 26040, Note_on_c, 13, 54, 84
15, 26040, Note_on_c, 13, 51, 84
15, 26139, Note_on_c, 13, 54, 0
15, 26139, Note_on_c, 13, 51, 0
15, 26160, Note_on_c, 13, 51, 84
15, 26160, Note_on_c, 13, 54, 84
15, 26259, Note_on_c, 13, 51, 0
15, 26259, Note_on_c, 13, 54, 0
15, 26280, Note_on_c, 13, 54, 84
15, 26280, Note_on_c, 13, 51, 84
15, 26379, Note_on_c, 13, 54, 0
15, 26379, Note_on_c, 13, 51, 0
15, 26400, Note_on_c, 13, 54, 84
15, 26400, Note_on_c, 13, 51, 84
15, 26639, Note_on_c, 13, 54, 0
15, 26639, Note_on_c, 13, 51, 0
15, 27360, Note_on_c, 13, 53, 84
15, 27599, Note_on_c, 13, 53, 0
15, 29760, Note_on_c, 13, 63, 52
15, 30239, Note_on_c, 13, 63, 0
15, 30240, Note_on_c, 13, 65, 52
15, 30699, Note_on_c, 13, 65, 0
15, 30720, Note_on_c, 13, 62, 52
15, 31199, Note_on_c, 13, 62, 0
15, 31200, Note_on_c, 13, 63, 52
15, 31659, Note_on_c, 13, 63, 0
15, 31680, Note_on_c, 13, 63, 52
15, 32159, Note_on_c, 13, 63, 0
15, 32160, Note_on_c, 13, 65, 52
15, 32619, Note_on_c, 13, 65, 0
15, 32640, Note_on_c, 13, 62, 52
15, 33119, Note_on_c, 13, 62, 0
15, 33120, Note_on_c, 13, 63, 52
15, 33579, Note_on_c, 13, 63, 0
15, 33600, Note_on_c, 13, 63, 52
15, 34079, Note_on_c, 13, 63, 0
15, 34080, Note_on_c, 13, 65, 52
15, 34539, Note_on_c, 13, 65, 0
15, 34560, Note_on_c, 13, 62, 52
15, 35039, Note_on_c, 13, 62, 0
15, 35040, Note_on_c, 13, 63, 52
15, 35499, Note_on_c, 13, 63, 0
15, 35520, Note_on_c, 13, 63, 52
15, 35999, Note_on_c, 13, 63, 0
15, 36000, Note_on_c, 13, 64, 52
15, 36459, Note_on_c, 13, 64, 0
15, 36480, Note_on_c, 13, 64, 52
15, 36959, Note_on_c, 13, 64, 0
15, 36960, Note_on_c, 13, 60, 52
15, 37419, Note_on_c, 13, 60, 0
15, 37440, Note_on_c, 13, 65, 52
15, 37919, Note_on_c, 13, 65, 0
15, 37920, Note_on_c, 13, 67, 52
15, 38379, Note_on_c, 13, 67, 0
15, 38400, Note_on_c, 13, 67, 52
15, 38879, Note_on_c, 13, 67, 0
15, 38880, Note_on_c, 13, 63, 52
15, 39339, Note_on_c, 13, 63, 0
15, 39360, Control_c, 13, 11, 64
15, 39840, Control_c, 13, 11, 64
15, 39940, Control_c, 13, 11, 65
15, 39960, Note_on_c, 13, 57, 84
15, 40040, Control_c, 13, 11, 67
15, 40059, Note_on_c, 13, 57, 0
15, 40080, Note_on_c, 13, 57, 84
15, 40140, Control_c, 13, 11, 68
15, 40179, Note_on_c, 13, 57, 0
15, 40200, Note_on_c, 13, 57, 84
15, 40240, Control_c, 13, 11, 69
15, 40299, Note_on_c, 13, 57, 0
15, 40320, Note_on_c, 13, 57, 84
15, 40340, Control_c, 13, 11, 71
15, 40440, Control_c, 13, 11, 72
15, 40540, Control_c, 13, 11, 73
15, 40559, Note_on_c, 13, 57, 0
15, 40640, Control_c, 13, 11, 75
15, 40740, Control_c, 13, 11, 76
15, 40840, Control_c, 13, 11, 77
15, 40920, Note_on_c, 13, 58, 84
15, 40940, Control_c, 13, 11, 78
15, 41019, Note_on_c, 13, 58, 0
15, 41040, Control_c, 13, 11, 80
15, 41040, Note_on_c, 13, 58, 84
15, 41139, Note_on_c, 13, 58, 0
15, 41140, Control_c, 13, 11, 81
15, 41160, Note_on_c, 13, 58, 84
15, 41240, Control_c, 13, 11, 82
15, 41259, Note_on_c, 13, 58, 0
15, 41280, Note_on_c, 13, 58, 84
15, 41340, Control_c, 13, 11, 84
15, 41440, Control_c, 13, 11, 85
15, 41519, Note_on_c, 13, 58, 0
15, 41540, Control_c, 13, 11, 86
15, 41640, Control_c, 13, 11, 88
15, 41740, Control_c, 13, 11, 89
15, 41840, Control_c, 13, 11, 90
15, 41880, Note_on_c, 13, 59, 84
15, 41940, Control_c, 13, 11, 92
15, 41979, Note_on_c, 13, 59, 0
15, 42000, Note_on_c, 13, 59, 84
15, 42040, Control_c, 13, 11, 93
15, 42099, Note_on_c, 13, 59, 0
15, 42120, Note_on_c, 13, 59, 84
15, 42140, Control_c, 13, 11, 94
15, 42219, Note_on_c, 13, 59, 0
15, 42240, Control_c, 13, 11, 96
15, 42240, Note_on_c, 13, 59, 84
15, 42340, Control_c, 13, 11, 97
15, 42440, Control_c, 13, 11, 98
15, 42479, Note_on_c, 13, 59, 0
15, 42540, Control_c, 13, 11, 99
15, 42640, Control_c, 13, 11, 101
15, 42740, Control_c, 13, 11, 102
15, 42840, Note_on_c, 13, 60, 84
15, 42840, Control_c, 13, 11, 103
15, 42939, Note_on_c, 13, 60, 0
15, 42940, Control_c, 13, 11, 105
15, 42960, Note_on_c, 13, 60, 84
15, 43040, Control_c, 13, 11, 106
15, 43059, Note_on_c, 13, 60, 0
15, 43080, Note_on_c, 13, 60, 84
15, 43140, Control_c, 13, 11, 107
15, 43179, Note_on_c, 13, 60, 0
15, 43200, Note_on_c, 13, 60, 84
15, 43240, Control_c, 13, 11, 109
15, 43340, Control_c, 13, 11, 110
15, 43439, Note_on_c, 13, 60, 0
15, 43440, Control_c, 13, 11, 111
15, 43540, Control_c, 13, 11, 113
15, 43640, Control_c, 13, 11, 114
15, 43740, Control_c, 13, 11, 115
15, 43800, Note_on_c, 13, 60, 84
15, 43840, Control_c, 13, 11, 117
15, 43899, Note_on_c, 13, 60, 0
15, 43920, Note_on_c, 13, 60, 84
15, 43940, Control_c, 13, 11, 118
15, 44019, Note_on_c, 13, 60, 0
15, 44040, Note_on_c, 13, 60, 84
15, 44040, Control_c, 13, 11, 119
15, 44139, Note_on_c, 13, 60, 0
15, 44140, Control_c, 13, 11, 120
15, 44160, Note_on_c, 13, 60, 84
15, 44240, Control_c, 13, 11, 122
15, 44340, Control_c, 13, 11, 123
15, 44379, Note_on_c, 13, 60, 0
15, 44400, Note_on_c, 13, 60, 84
15, 44440, Control_c, 13, 11, 124
15, 44499, Note_on_c, 13, 60, 0
15, 44520, Note_on_c, 13, 60, 84
15, 44540, Control_c, 13, 11, 127
15, 44619, Note_on_c, 13, 60, 0
15, 44640, Note_on_c, 13, 62, 84
15, 45339, Note_on_c, 13, 62, 0
15, 45360, Note_on_c, 13, 50, 84
15, 45599, Note_on_c, 13, 50, 0
15, 45600, Note_on_c, 13, 51, 84
15, 45839, Note_on_c, 13, 51, 0
15, 46080, Note_on_c, 13, 53, 84
15, 46319, Note_on_c, 13, 53, 0
15, 46560, Note_on_c, 13, 55, 84
15, 46799, Note_on_c, 13, 55, 0
15, 47040, Note_on_c, 13, 56, 84
15, 47279, Note_on_c, 13, 56, 0
15, 47520, Note_on_c, 13, 58, 84
15, 47759, Note_on_c, 13, 58, 0
15, 48000, Note_on_c, 13, 58, 84
15, 48239, Note_on_c, 13, 58, 0
15, 48480, Note_on_c, 13, 53, 84
15, 48579, Note_on_c, 13, 53, 0
15, 48600, Note_on_c, 13, 53, 84
15, 48699, Note_on_c, 13, 53, 0
15, 48720, Note_on_c, 13, 58, 84
15, 48819, Note_on_c, 13, 58, 0
15, 48840, Note_on_c, 13, 58, 84
15, 48939, Note_on_c, 13, 58, 0
15, 48960, Note_on_c, 13, 53, 84
15, 49059, Note_on_c, 13, 53, 0
15, 49080, Note_on_c, 13, 53, 84
15, 49179, Note_on_c, 13, 53, 0
15, 49200, Note_on_c, 13, 58, 84
15, 49299, Note_on_c, 13, 58, 0
15, 49320, Note_on_c, 13, 58, 84
15, 49419, Note_on_c, 13, 58, 0
15, 49440, Note_on_c, 13, 55, 84
15, 49539, Note_on_c, 13, 55, 0
15, 49560, Note_on_c, 13, 55, 84
15, 49659, Note_on_c, 13, 55, 0
15, 49680, Note_on_c, 13, 58, 84
15, 49779, Note_on_c, 13, 58, 0
15, 49800, Note_on_c, 13, 58, 84
15, 49899, Note_on_c, 13, 58, 0
15, 49920, Note_on_c, 13, 56, 84
15, 50019, Note_on_c, 13, 56, 0
15, 50040, Note_on_c, 13, 56, 84
15, 50139, Note_on_c, 13, 56, 0
15, 50160, Note_on_c, 13, 58, 84
15, 50259, Note_on_c, 13, 58, 0
15, 50280, Note_on_c, 13, 58, 84
15, 50379, Note_on_c, 13, 58, 0
15, 50400, Note_on_c, 13, 65, 84
15, 50519, Note_on_c, 13, 65, 0
15, 50520, Note_on_c, 13, 63, 84
15, 50619, Note_on_c, 13, 63, 0
15, 50640, Note_on_c, 13, 58, 84
15, 50729, Note_on_c, 13, 58, 0
15, 50760, Note_on_c, 13, 55, 84
15, 50849, Note_on_c, 13, 55, 0
15, 50880, Note_on_c, 13, 62, 84
15, 50999, Note_on_c, 13, 62, 0
15, 51000, Note_on_c, 13, 60, 84
15, 51099, Note_on_c, 13, 60, 0
15, 51120, Note_on_c, 13, 56, 84
15, 51209, Note_on_c, 13, 56, 0
15, 51240, Note_on_c, 13, 53, 84
15, 51329, Note_on_c, 13, 53, 0
15, 51360, Note_on_c, 13, 60, 84
15, 51479, Note_on_c, 13, 60, 0
15, 51480, Note_on_c, 13, 58, 84
15, 51579, Note_on_c, 13, 58, 0
15, 51600, Note_on_c, 13, 55, 84
15, 51689, Note_on_c, 13, 55, 0
15, 51720, Note_on_c, 13, 51, 84
15, 51809, Note_on_c, 13, 51, 0
15, 51840, Note_on_c, 13, 50, 84
15, 51939, Note_on_c, 13, 50, 0
15, 51960, Note_on_c, 13, 53, 84
15, 51960, Note_on_c, 13, 62, 84
15, 52059, Note_on_c, 13, 53, 0
15, 52059, Note_on_c, 13, 62, 0
15, 52080, Note_on_c, 13, 56, 84
15, 52080, Note_on_c, 13, 65, 84
15, 52179, Note_on_c, 13, 56, 0
15, 52179, Note_on_c, 13, 65, 0
15, 52200, Note_on_c, 13, 53, 84
15, 52200, Note_on_c, 13, 62, 84
15, 52299, Note_on_c, 13, 53, 0
15, 52299, Note_on_c, 13, 62, 0
15, 52320, Note_on_c, 13, 55, 84
15, 53859, Note_on_c, 13, 55, 0
15, 53880, Note_on_c, 13, 58, 84
15, 53979, Note_on_c, 13, 58, 0
15, 54000, Note_on_c, 13, 58, 84
15, 54099, Note_on_c, 13, 58, 0
15, 54120, Note_on_c, 13, 58, 84
15, 54219, Note_on_c, 13, 58, 0
15, 54240, Note_on_c, 13, 58, 84
15, 55779, Note_on_c, 13, 58, 0
15, 55800, Note_on_c, 13, 58, 84
15, 55899, Note_on_c, 13, 58, 0
15, 55920, Note_on_c, 13, 58, 84
15, 56019, Note_on_c, 13, 58, 0
15, 56040, Note_on_c, 13, 58, 84
15, 56139, Note_on_c, 13, 58, 0
15, 56160, Note_on_c, 13, 58, 84
15, 56399, Note_on_c, 13, 58, 0
15, 56760, Note_on_c, 13, 58, 84
15, 56859, Note_on_c, 13, 58, 0
15, 56880, Note_on_c, 13, 58, 84
15, 56979, Note_on_c, 13, 58, 0
15, 57000, Note_on_c, 13, 58, 84
15, 57099, Note_on_c, 13, 58, 0
15, 57120, Note_on_c, 13, 58, 84
15, 57359, Note_on_c, 13, 58, 0
15, 57720, Note_on_c, 13, 58, 84
15, 57819, Note_on_c, 13, 58, 0
15, 57840, Note_on_c, 13, 58, 84
15, 57939, Note_on_c, 13, 58, 0
15, 57960, Note_on_c, 13, 58, 84
15, 58059, Note_on_c, 13, 58, 0
15, 58080, Note_on_c, 13, 63, 84
15, 58319, Note_on_c, 13, 63, 0
15, 59640, Note_on_c, 13, 55, 84
15, 59739, Note_on_c, 13, 55, 0
15, 59760, Note_on_c, 13, 55, 84
15, 59859, Note_on_c, 13, 55, 0
15, 59880, Note_on_c, 13, 55, 84
15, 59979, Note_on_c, 13, 55, 0
15, 60000, Note_on_c, 13, 51, 84
15, 60479, Note_on_c, 13, 51, 0
15, 60600, Note_on_c, 13, 53, 84
15, 60699, Note_on_c, 13, 53, 0
15, 60720, Note_on_c, 13, 53, 84
15, 60819, Note_on_c, 13, 53, 0
15, 60840, Note_on_c, 13, 53, 84
15, 60939, Note_on_c, 13, 53, 0
15, 60960, Note_on_c, 13, 50, 84
15, 61919, Note_on_c, 13, 50, 0
15, 62520, Note_on_c, 13, 68, 52
15, 62619, Note_on_c, 13, 68, 0
15, 62640, Note_on_c, 13, 68, 52
15, 62739, Note_on_c, 13, 68, 0
15, 62760, Note_on_c, 13, 68, 52
15, 62859, Note_on_c, 13, 68, 0
15, 62880, Note_on_c, 13, 67, 52
15, 64059, Note_on_c, 13, 67, 0
15, 64440, Note_on_c, 13, 68, 52
15, 64539, Note_on_c, 13, 68, 0
15, 64560, Note_on_c, 13, 68, 52
15, 64659, Note_on_c, 13, 68, 0
15, 64680, Note_on_c, 13, 68, 52
15, 64779, Note_on_c, 13, 68, 0
15, 64800, Note_on_c, 13, 67, 52
15, 65259, Note_on_c, 13, 67, 0
15, 65280, Note_on_c, 13, 62, 52
15, 66219, Note_on_c, 13, 62, 0
15, 66240, Note_on_c, 13, 63, 52
15, 66339, Note_on_c, 13, 63, 0
15, 66360, Note_on_c, 13, 63, 52
15, 66459, Note_on_c, 13, 63, 0
15, 66480, Note_on_c, 13, 63, 52
15, 66579, Note_on_c, 13, 63, 0
15, 66600, Note_on_c, 13, 65, 52
15, 66699, Note_on_c, 13, 65, 0
15, 66720, Note_on_c, 13, 67, 52
15, 67299, Note_on_c, 13, 67, 0
15, 67320, Note_on_c, 13, 63, 52
15, 67419, Note_on_c, 13, 63, 0
15, 67440, Note_on_c, 13, 63, 52
15, 67539, Note_on_c, 13, 63, 0
15, 67560, Note_on_c, 13, 65, 52
15, 67659, Note_on_c, 13, 65, 0
15, 67678, Control_c, 13, 11, 80
15, 67680, Note_on_c, 13, 67, 76
15, 67720, Control_c, 13, 11, 84
15, 67760, Control_c, 13, 11, 88
15, 67800, Control_c, 13, 11, 92
15, 67840, Control_c, 13, 11, 96
15, 67880, Control_c, 13, 11, 100
15, 67920, Control_c, 13, 11, 104
15, 67960, Control_c, 13, 11, 107
15, 68000, Control_c, 13, 11, 111
15, 68019, Note_on_c, 13, 67, 0
15, 68040, Control_c, 13, 11, 115
15, 68040, Note_on_c, 13, 62, 76
15, 68080, Control_c, 13, 11, 119
15, 68120, Control_c, 13, 11, 127
15, 68139, Note_on_c, 13, 62, 0
15, 68160, Note_on_c, 13, 63, 76
15, 68399, Note_on_c, 13, 63, 0
15, 68640, Note_on_c, 13, 56, 76
15, 68879, Note_on_c, 13, 56, 0
15, 69120, Note_on_c, 13, 55, 76
15, 69359, Note_on_c, 13, 55, 0
15, 69720, Note_on_c, 13, 56, 84
15, 69819, Note_on_c, 13, 56, 0
15, 69840, Note_on_c, 13, 56, 84
15, 69939, Note_on_c, 13, 56, 0
15, 69960, Note_on_c, 13, 56, 84
15, 70059, Note_on_c, 13, 56, 0
15, 70080, Note_on_c, 13, 53, 84
15, 71039, Note_on_c, 13, 53, 0
15, 72120, Note_on_c, 13, 56, 52
15, 72219, Note_on_c, 13, 56, 0
15, 72240, Note_on_c, 13, 56, 52
15, 72339, Note_on_c, 13, 56, 0
15, 72360, Note_on_c, 13, 56, 52
15, 72459, Note_on_c, 13, 56, 0
15, 72480, Note_on_c, 13, 55, 52
15, 73199, Note_on_c, 13, 55, 0
15, 74040, Note_on_c, 13, 56, 52
15, 74139, Note_on_c, 13, 56, 0
15, 74160, Note_on_c, 13, 56, 52
15, 74259, Note_on_c, 13, 56, 0
15, 74280, Note_on_c, 13, 56, 52
15, 74379, Note_on_c, 13, 56, 0
15, 74400, Note_on_c, 13, 55, 52
15, 74979, Note_on_c, 13, 55, 0
15, 75000, Note_on_c, 13, 63, 52
15, 75099, Note_on_c, 13, 63, 0
15, 75120, Note_on_c, 13, 63, 52
15, 75219, Note_on_c, 13, 63, 0
15, 75240, Note_on_c, 13, 60, 52
15, 75339, Note_on_c, 13, 60, 0
15, 75358, Control_c, 13, 11, 96
15, 75360, Note_on_c, 13, 62, 68
15, 75360, Control_c, 13, 11, 96
15, 75440, Control_c, 13, 11, 97
15, 75520, Control_c, 13, 11, 99
15, 75600, Control_c, 13, 11, 100
15, 75680, Control_c, 13, 11, 101
15, 75760, Control_c, 13, 11, 102
15, 75840, Control_c, 13, 11, 104
15, 75920, Control_c, 13, 11, 105
15, 75939, Note_on_c, 13, 62, 0
15, 75960, Note_on_c, 13, 65, 68
15, 76000, Control_c, 13, 11, 106
15, 76059, Note_on_c, 13, 65, 0
15, 76080, Control_c, 13, 11, 108
15, 76080, Note_on_c, 13, 65, 68
15, 76160, Control_c, 13, 11, 109
15, 76179, Note_on_c, 13, 65, 0
15, 76200, Note_on_c, 13, 62, 68
15, 76240, Control_c, 13, 11, 110
15, 76299, Note_on_c, 13, 62, 0
15, 76320, Note_on_c, 13, 63, 68
15, 76320, Control_c, 13, 11, 112
15, 76400, Control_c, 13, 11, 113
15, 76480, Control_c, 13, 11, 114
15, 76560, Control_c, 13, 11, 115
15, 76640, Control_c, 13, 11, 117
15, 76720, Control_c, 13, 11, 118
15, 76800, Control_c, 13, 11, 119
15, 76880, Control_c, 13, 11, 121
15, 76899, Note_on_c, 13, 63, 0
15, 76920, Note_on_c, 13, 63, 68
15, 76960, Control_c, 13, 11, 122
15, 77019, Note_on_c, 13, 63, 0
15, 77040, Note_on_c, 13, 63, 68
15, 77040, Control_c, 13, 11, 123
15, 77120, Control_c, 13, 11, 124
15, 77139, Note_on_c, 13, 63, 0
15, 77160, Note_on_c, 13, 60, 68
15, 77200, Control_c, 13, 11, 127
15, 77259, Note_on_c, 13, 60, 0
15, 77280, Note_on_c, 13, 65, 76
15, 77379, Note_on_c, 13, 65, 0
15, 77400, Note_on_c, 13, 65, 68
15, 77499, Note_on_c, 13, 65, 0
15, 77520, Note_on_c, 13, 65, 68
15, 77619, Note_on_c, 13, 65, 0
15, 77640, Note_on_c, 13, 59, 68
15, 77739, Note_on_c, 13, 59, 0
15, 77760, Note_on_c, 13, 67, 76
15, 77859, Note_on_c, 13, 67, 0
15, 77880, Note_on_c, 13, 67, 68
15, 77979, Note_on_c, 13, 67, 0
15, 78000, Note_on_c, 13, 67, 68
15, 78099, Note_on_c, 13, 67, 0
15, 78120, Note_on_c, 13, 58, 68
15, 78219, Note_on_c, 13, 58, 0
15, 78240, Note_on_c, 13, 68, 76
15, 78339, Note_on_c, 13, 68, 0
15, 78360, Note_on_c, 13, 56, 68
15, 78459, Note_on_c, 13, 56, 0
15, 78480, Note_on_c, 13, 56, 68
15, 78579, Note_on_c, 13, 56, 0
15, 78600, Note_on_c, 13, 53, 68
15, 78699, Note_on_c, 13, 53, 0
15, 78720, Note_on_c, 13, 58, 76
15, 78819, Note_on_c, 13, 58, 0
15, 78840, Note_on_c, 13, 58, 68
15, 78939, Note_on_c, 13, 58, 0
15, 78960, Note_on_c, 13, 58, 68
15, 79059, Note_on_c, 13, 58, 0
15, 79080, Note_on_c, 13, 55, 68
15, 79179, Note_on_c, 13, 55, 0
15, 79200, Note_on_c, 13, 60, 76
15, 79299, Note_on_c, 13, 60, 0
15, 79320, Note_on_c, 13, 60, 68
15, 79419, Note_on_c, 13, 60, 0
15, 79440, Note_on_c, 13, 60, 68
15, 79539, Note_on_c, 13, 60, 0
15, 79560, Note_on_c, 13, 56, 68
15, 79659, Note_on_c, 13, 56, 0
15, 79680, Note_on_c, 13, 65, 76
15, 79779, Note_on_c, 13, 65, 0
15, 79800, Note_on_c, 13, 65, 68
15, 79899, Note_on_c, 13, 65, 0
15, 79920, Note_on_c, 13, 65, 68
15, 80019, Note_on_c, 13, 65, 0
15, 80040, Note_on_c, 13, 62, 68
15, 80139, Note_on_c, 13, 62, 0
15, 80160, Note_on_c, 13, 63, 76
15, 80259, Note_on_c, 13, 63, 0
15, 80280, Note_on_c, 13, 48, 76
15, 80280, Note_on_c, 13, 51, 76
15, 80379, Note_on_c, 13, 48, 0
15, 80379, Note_on_c, 13, 51, 0
15, 80400, Note_on_c, 13, 51, 76
15, 80400, Note_on_c, 13, 48, 76
15, 80499, Note_on_c, 13, 51, 0
15, 80499, Note_on_c, 13, 48, 0
15, 80520, Note_on_c, 13, 48, 76
15, 80520, Note_on_c, 13, 51, 76
15, 80619, Note_on_c, 13, 48, 0
15, 80619, Note_on_c, 13, 51, 0
15, 80640, Note_on_c, 13, 51, 76
15, 80640, Note_on_c, 13, 48, 76
15, 80739, Note_on_c, 13, 51, 0
15, 80739, Note_on_c, 13, 48, 0
15, 80760, Note_on_c, 13, 51, 76
15, 80760, Note_on_c, 13, 48, 76
15, 80859, Note_on_c, 13, 51, 0
15, 80859, Note_on_c, 13, 48, 0
15, 80880, Note_on_c, 13, 48, 76
15, 80880, Note_on_c, 13, 51, 76
15, 80979, Note_on_c, 13, 48, 0
15, 80979, Note_on_c, 13, 51, 0
15, 81000, Note_on_c, 13, 48, 76
15, 81000, Note_on_c, 13, 51, 76
15, 81099, Note_on_c, 13, 48, 0
15, 81099, Note_on_c, 13, 51, 0
15, 81120, Note_on_c, 13, 51, 76
15, 81120, Note_on_c, 13, 48, 76
15, 81219, Note_on_c, 13, 51, 0
15, 81219, Note_on_c, 13, 48, 0
15, 81240, Note_on_c, 13, 48, 76
15, 81240, Note_on_c, 13, 51, 76
15, 81339, Note_on_c, 13, 48, 0
15, 81339, Note_on_c, 13, 51, 0
15, 81360, Note_on_c, 13, 51, 76
15, 81360, Note_on_c, 13, 48, 76
15, 81459, Note_on_c, 13, 51, 0
15, 81459, Note_on_c, 13, 48, 0
15, 81480, Note_on_c, 13, 48, 76
15, 81480, Note_on_c, 13, 51, 76
15, 81579, Note_on_c, 13, 48, 0
15, 81579, Note_on_c, 13, 51, 0
15, 81600, Note_on_c, 13, 51, 76
15, 81600, Note_on_c, 13, 48, 76
15, 81699, Note_on_c, 13, 51, 0
15, 81699, Note_on_c, 13, 48, 0
15, 81720, Note_on_c, 13, 51, 76
15, 81720, Note_on_c, 13, 48, 76
15, 81819, Note_on_c, 13, 51, 0
15, 81819, Note_on_c, 13, 48, 0
15, 81840, Note_on_c, 13, 51, 76
15, 81840, Note_on_c, 13, 48, 76
15, 81939, Note_on_c, 13, 51, 0
15, 81939, Note_on_c, 13, 48, 0
15, 81960, Note_on_c, 13, 51, 76
15, 81960, Note_on_c, 13, 48, 76
15, 82059, Note_on_c, 13, 51, 0
15, 82059, Note_on_c, 13, 48, 0
15, 82080, Note_on_c, 13, 53, 76
15, 82080, Note_on_c, 13, 50, 76
15, 82179, Note_on_c, 13, 53, 0
15, 82179, Note_on_c, 13, 50, 0
15, 82200, Note_on_c, 13, 53, 76
15, 82200, Note_on_c, 13, 50, 76
15, 82299, Note_on_c, 13, 53, 0
15, 82299, Note_on_c, 13, 50, 0
15, 82320, Note_on_c, 13, 53, 76
15, 82320, Note_on_c, 13, 50, 76
15, 82419, Note_on_c, 13, 53, 0
15, 82419, Note_on_c, 13, 50, 0
15, 82440, Note_on_c, 13, 50, 76
15, 82440, Note_on_c, 13, 53, 76
15, 82539, Note_on_c, 13, 50, 0
15, 82539, Note_on_c, 13, 53, 0
15, 82560, Note_on_c, 13, 50, 76
15, 82560, Note_on_c, 13, 53, 76
15, 82659, Note_on_c, 13, 50, 0
15, 82659, Note_on_c, 13, 53, 0
15, 82680, Note_on_c, 13, 50, 76
15, 82680, Note_on_c, 13, 53, 76
15, 82779, Note_on_c, 13, 50, 0
15, 82779, Note_on_c, 13, 53, 0
15, 82800, Note_on_c, 13, 53, 76
15, 82800, Note_on_c, 13, 50, 76
15, 82899, Note_on_c, 13, 53, 0
15, 82899, Note_on_c, 13, 50, 0
15, 82920, Note_on_c, 13, 50, 76
15, 82920, Note_on_c, 13, 53, 76
15, 83019, Note_on_c, 13, 50, 0
15, 83019, Note_on_c, 13, 53, 0
15, 83040, Note_on_c, 13, 53, 76
15, 83040, Note_on_c, 13, 50, 76
15, 83139, Note_on_c, 13, 53, 0
15, 83139, Note_on_c, 13, 50, 0
15, 83160, Note_on_c, 13, 53, 76
15, 83160, Note_on_c, 13, 50, 76
15, 83259, Note_on_c, 13, 53, 0
15, 83259, Note_on_c, 13, 50, 0
15, 83280, Note_on_c, 13, 53, 76
15, 83280, Note_on_c, 13, 50, 76
15, 83379, Note_on_c, 13, 53, 0
15, 83379, Note_on_c, 13, 50, 0
15, 83400, Note_on_c, 13, 50, 76
15, 83400, Note_on_c, 13, 53, 76
15, 83499, Note_on_c, 13, 50, 0
15, 83499, Note_on_c, 13, 53, 0
15, 83520, Note_on_c, 13, 53, 76
15, 83520, Note_on_c, 13, 50, 76
15, 83619, Note_on_c, 13, 53, 0
15, 83619, Note_on_c, 13, 50, 0
15, 83640, Note_on_c, 13, 50, 76
15, 83640, Note_on_c, 13, 53, 76
15, 83739, Note_on_c, 13, 50, 0
15, 83739, Note_on_c, 13, 53, 0
15, 83760, Note_on_c, 13, 51, 76
15, 83760, Note_on_c, 13, 48, 76
15, 83859, Note_on_c, 13, 51, 0
15, 83859, Note_on_c, 13, 48, 0
15, 83880, Note_on_c, 13, 48, 76
15, 83880, Note_on_c, 13, 51, 76
15, 83979, Note_on_c, 13, 48, 0
15, 83979, Note_on_c, 13, 51, 0
15, 84000, Note_on_c, 13, 48, 84
15, 84000, Note_on_c, 13, 51, 84
15, 84099, Note_on_c, 13, 48, 0
15, 84099, Note_on_c, 13, 51, 0
15, 84120, Note_on_c, 13, 51, 84
15, 84120, Note_on_c, 13, 54, 84
15, 84219, Note_on_c, 13, 51, 0
15, 84219, Note_on_c, 13, 54, 0
15, 84240, Note_on_c, 13, 54, 84
15, 84240, Note_on_c, 13, 51, 84
15, 84339, Note_on_c, 13, 54, 0
15, 84339, Note_on_c, 13, 51, 0
15, 84360, Note_on_c, 13, 54, 84
15, 84360, Note_on_c, 13, 51, 84
15, 84459, Note_on_c, 13, 54, 0
15, 84459, Note_on_c, 13, 51, 0
15, 84480, Note_on_c, 13, 54, 84
15, 84480, Note_on_c, 13, 51, 84
15, 84579, Note_on_c, 13, 54, 0
15, 84579, Note_on_c, 13, 51, 0
15, 84600, Note_on_c, 13, 54, 84
15, 84600, Note_on_c, 13, 51, 84
15, 84699, Note_on_c, 13, 54, 0
15, 84699, Note_on_c, 13, 51, 0
15, 84720, Note_on_c, 13, 54, 84
15, 84720, Note_on_c, 13, 51, 84
15, 84819, Note_on_c, 13, 54, 0
15, 84819, Note_on_c, 13, 51, 0
15, 84840, Note_on_c, 13, 54, 84
15, 84840, Note_on_c, 13, 51, 84
15, 84939, Note_on_c, 13, 54, 0
15, 84939, Note_on_c, 13, 51, 0
15, 84960, Note_on_c, 13, 54, 84
15, 84960, Note_on_c, 13, 51, 84
15, 85059, Note_on_c, 13, 54, 0
15, 85059, Note_on_c, 13, 51, 0
15, 85080, Note_on_c, 13, 51, 84
15, 85080, Note_on_c, 13, 54, 84
15, 85179, Note_on_c, 13, 51, 0
15, 85179, Note_on_c, 13, 54, 0
15, 85200, Note_on_c, 13, 54, 84
15, 85200, Note_on_c, 13, 51, 84
15, 85299, Note_on_c, 13, 54, 0
15, 85299, Note_on_c, 13, 51, 0
15, 85320, Note_on_c, 13, 54, 84
15, 85320, Note_on_c, 13, 51, 84
15, 85419, Note_on_c, 13, 54, 0
15, 85419, Note_on_c, 13, 51, 0
15, 85440, Note_on_c, 13, 51, 84
15, 85440, Note_on_c, 13, 54, 84
15, 85539, Note_on_c, 13, 51, 0
15, 85539, Note_on_c, 13, 54, 0
15, 85560, Note_on_c, 13, 54, 84
15, 85560, Note_on_c, 13, 51, 84
15, 85659, Note_on_c, 13, 54, 0
15, 85659, Note_on_c, 13, 51, 0
15, 85680, Note_on_c, 13, 51, 84
15, 85680, Note_on_c, 13, 54, 84
15, 85779, Note_on_c, 13, 51, 0
15, 85779, Note_on_c, 13, 54, 0
15, 85800, Note_on_c, 13, 51, 84
15, 85800, Note_on_c, 13, 54, 84
15, 85899, Note_on_c, 13, 51, 0
15, 85899, Note_on_c, 13, 54, 0
15, 85920, Note_on_c, 13, 51, 84
15, 85920, Note_on_c, 13, 54, 84
15, 86159, Note_on_c, 13, 51, 0
15, 86159, Note_on_c, 13, 54, 0
15, 86880, Note_on_c, 13, 53, 84
15, 87119, Note_on_c, 13, 53, 0
15, 89280, Note_on_c, 13, 63, 52
15, 89759, Note_on_c, 13, 63, 0
15, 89760, Note_on_c, 13, 65, 52
15, 90219, Note_on_c, 13, 65, 0
15, 90240, Note_on_c, 13, 62, 52
15, 90719, Note_on_c, 13, 62, 0
15, 90720, Note_on_c, 13, 63, 52
15, 91179, Note_on_c, 13, 63, 0
15, 91200, Note_on_c, 13, 63, 52
15, 91679, Note_on_c, 13, 63, 0
15, 91680, Note_on_c, 13, 65, 52
15, 92139, Note_on_c, 13, 65, 0
15, 92160, Note_on_c, 13, 62, 52
15, 92639, Note_on_c, 13, 62, 0
15, 92640, Note_on_c, 13, 63, 52
15, 93099, Note_on_c, 13, 63, 0
15, 93120, Note_on_c, 13, 63, 52
15, 93599, Note_on_c, 13, 63, 0
15, 93600, Note_on_c, 13, 65, 52
15, 94059, Note_on_c, 13, 65, 0
15, 94080, Note_on_c, 13, 62, 52
15, 94559, Note_on_c, 13, 62, 0
15, 94560, Note_on_c, 13, 63, 52
15, 95019, Note_on_c, 13, 63, 0
15, 95040, Note_on_c, 13, 63, 52
15, 95519, Note_on_c, 13, 63, 0
15, 95520, Note_on_c, 13, 64, 52
15, 95979, Note_on_c, 13, 64, 0
15, 96000, Note_on_c, 13, 64, 52
15, 96479, Note_on_c, 13, 64, 0
15, 96480, Note_on_c, 13, 60, 52
15, 96939, Note_on_c, 13, 60, 0
15, 96960, Note_on_c, 13, 65, 52
15, 97439, Note_on_c, 13, 65, 0
15, 97440, Note_on_c, 13, 67, 52
15, 97899, Note_on_c, 13, 67, 0
15, 97920, Note_on_c, 13, 67, 52
15, 98399, Note_on_c, 13, 67, 0
15, 98400, Note_on_c, 13, 63, 52
15, 98859, Note_on_c, 13, 63, 0
15, 98880, Control_c, 13, 11, 64
15, 99360, Control_c, 13, 11, 64
15, 99460, Control_c, 13, 11, 65
15, 99480, Note_on_c, 13, 57, 84
15, 99560, Control_c, 13, 11, 67
15, 99579, Note_on_c, 13, 57, 0
15, 99600, Note_on_c, 13, 57, 84
15, 99660, Control_c, 13, 11, 68
15, 99699, Note_on_c, 13, 57, 0
15, 99720, Note_on_c, 13, 57, 84
15, 99760, Control_c, 13, 11, 69
15, 99819, Note_on_c, 13, 57, 0
15, 99840, Note_on_c, 13, 57, 84
15, 99860, Control_c, 13, 11, 71
15, 99960, Control_c, 13, 11, 72
15, 100060, Control_c, 13, 11, 73
15, 100079, Note_on_c, 13, 57, 0
15, 100160, Control_c, 13, 11, 75
15, 100260, Control_c, 13, 11, 76
15, 100360, Control_c, 13, 11, 77
15, 100440, Note_on_c, 13, 58, 84
15, 100460, Control_c, 13, 11, 78
15, 100539, Note_on_c, 13, 58, 0
15, 100560, Note_on_c, 13, 58, 84
15, 100560, Control_c, 13, 11, 80
15, 100659, Note_on_c, 13, 58, 0
15, 100660, Control_c, 13, 11, 81
15, 100680, Note_on_c, 13, 58, 84
15, 100760, Control_c, 13, 11, 82
15, 100779, Note_on_c, 13, 58, 0
15, 100800, Note_on_c, 13, 58, 84
15, 100860, Control_c, 13, 11, 84
15, 100960, Control_c, 13, 11, 85
15, 101039, Note_on_c, 13, 58, 0
15, 101060, Control_c, 13, 11, 86
15, 101160, Control_c, 13, 11, 88
15, 101260, Control_c, 13, 11, 89
15, 101360, Control_c, 13, 11, 90
15, 101400, Note_on_c, 13, 59, 84
15, 101460, Control_c, 13, 11, 92
15, 101499, Note_on_c, 13, 59, 0
15, 101520, Note_on_c, 13, 59, 84
15, 101560, Control_c, 13, 11, 93
15, 101619, Note_on_c, 13, 59, 0
15, 101640, Note_on_c, 13, 59, 84
15, 101660, Control_c, 13, 11, 94
15, 101739, Note_on_c, 13, 59, 0
15, 101760, Control_c, 13, 11, 96
15, 101760, Note_on_c, 13, 59, 84
15, 101860, Control_c, 13, 11, 97
15, 101960, Control_c, 13, 11, 98
15, 101999, Note_on_c, 13, 59, 0
15, 102060, Control_c, 13, 11, 99
15, 102160, Control_c, 13, 11, 101
15, 102260, Control_c, 13, 11, 102
15, 102360, Control_c, 13, 11, 103
15, 102360, Note_on_c, 13, 60, 84
15, 102459, Note_on_c, 13, 60, 0
15, 102460, Control_c, 13, 11, 105
15, 102480, Note_on_c, 13, 60, 84
15, 102560, Control_c, 13, 11, 106
15, 102579, Note_on_c, 13, 60, 0
15, 102600, Note_on_c, 13, 60, 84
15, 102660, Control_c, 13, 11, 107
15, 102699, Note_on_c, 13, 60, 0
15, 102720, Note_on_c, 13, 60, 84
15, 102760, Control_c, 13, 11, 109
15, 102860, Control_c, 13, 11, 110
15, 102959, Note_on_c, 13, 60, 0
15, 102960, Control_c, 13, 11, 111
15, 103060, Control_c, 13, 11, 113
15, 103160, Control_c, 13, 11, 114
15, 103260, Control_c, 13, 11, 115
15, 103320, Note_on_c, 13, 60, 84
15, 103360, Control_c, 13, 11, 117
15, 103419, Note_on_c, 13, 60, 0
15, 103440, Note_on_c, 13, 60, 84
15, 103460, Control_c, 13, 11, 118
15, 103539, Note_on_c, 13, 60, 0
15, 103560, Note_on_c, 13, 60, 84
15, 103560, Control_c, 13, 11, 119
15, 103659, Note_on_c, 13, 60, 0
15, 103660, Control_c, 13, 11, 120
15, 103680, Note_on_c, 13, 60, 84
15, 103760, Control_c, 13, 11, 122
15, 103860, Control_c, 13, 11, 123
15, 103899, Note_on_c, 13, 60, 0
15, 103920, Note_on_c, 13, 60, 84
15, 103960, Control_c, 13, 11, 124
15, 104019, Note_on_c, 13, 60, 0
15, 104040, Note_on_c, 13, 60, 84
15, 104060, Control_c, 13, 11, 127
15, 104139, Note_on_c, 13, 60, 0
15, 104160, Note_on_c, 13, 62, 84
15, 104859, Note_on_c, 13, 62, 0
15, 104880, Note_on_c, 13, 50, 84
15, 105119, Note_on_c, 13, 50, 0
15, 105120, Note_on_c, 13, 51, 84
15, 105359, Note_on_c, 13, 51, 0
15, 105600, Note_on_c, 13, 53, 84
15, 105839, Note_on_c, 13, 53, 0
15, 106080, Note_on_c, 13, 55, 84
15, 106319, Note_on_c, 13, 55, 0
15, 106560, Note_on_c, 13, 56, 84
15, 106799, Note_on_c, 13, 56, 0
15, 107040, Note_on_c, 13, 58, 84
15, 107279, Note_on_c, 13, 58, 0
15, 107520, Note_on_c, 13, 58, 84
15, 107759, Note_on_c, 13, 58, 0
15, 108000, Note_on_c, 13, 53, 84
15, 108099, Note_on_c, 13, 53, 0
15, 108120, Note_on_c, 13, 53, 84
15, 108219, Note_on_c, 13, 53, 0
15, 108240, Note_on_c, 13, 58, 84
15, 108339, Note_on_c, 13, 58, 0
15, 108360, Note_on_c, 13, 58, 84
15, 108459, Note_on_c, 13, 58, 0
15, 108480, Note_on_c, 13, 53, 84
15, 108579, Note_on_c, 13, 53, 0
15, 108600, Note_on_c, 13, 53, 84
15, 108699, Note_on_c, 13, 53, 0
15, 108720, Note_on_c, 13, 58, 84
15, 108819, Note_on_c, 13, 58, 0
15, 108840, Note_on_c, 13, 58, 84
15, 108939, Note_on_c, 13, 58, 0
15, 108960, Note_on_c, 13, 55, 84
15, 109059, Note_on_c, 13, 55, 0
15, 109080, Note_on_c, 13, 55, 84
15, 109179, Note_on_c, 13, 55, 0
15, 109200, Note_on_c, 13, 58, 84
15, 109299, Note_on_c, 13, 58, 0
15, 109320, Note_on_c, 13, 58, 84
15, 109419, Note_on_c, 13, 58, 0
15, 109440, Note_on_c, 13, 56, 84
15, 109539, Note_on_c, 13, 56, 0
15, 109560, Note_on_c, 13, 56, 84
15, 109659, Note_on_c, 13, 56, 0
15, 109680, Note_on_c, 13, 58, 84
15, 109779, Note_on_c, 13, 58, 0
15, 109800, Note_on_c, 13, 58, 84
15, 109899, Note_on_c, 13, 58, 0
15, 109920, Note_on_c, 13, 65, 84
15, 110039, Note_on_c, 13, 65, 0
15, 110040, Note_on_c, 13, 63, 84
15, 110139, Note_on_c, 13, 63, 0
15, 110160, Note_on_c, 13, 58, 84
15, 110249, Note_on_c, 13, 58, 0
15, 110280, Note_on_c, 13, 55, 84
15, 110369, Note_on_c, 13, 55, 0
15, 110400, Note_on_c, 13, 62, 84
15, 110519, Note_on_c, 13, 62, 0
15, 110520, Note_on_c, 13, 60, 84
15, 110619, Note_on_c, 13, 60, 0
15, 110640, Note_on_c, 13, 56, 84
15, 110729, Note_on_c, 13, 56, 0
15, 110760, Note_on_c, 13, 53, 84
15, 110849, Note_on_c, 13, 53, 0
15, 110880, Note_on_c, 13, 60, 84
15, 110999, Note_on_c, 13, 60, 0
15, 111000, Note_on_c, 13, 58, 84
15, 111099, Note_on_c, 13, 58, 0
15, 111120, Note_on_c, 13, 55, 84
15, 111209, Note_on_c, 13, 55, 0
15, 111240, Note_on_c, 13, 51, 84
15, 111329, Note_on_c, 13, 51, 0
15, 111360, Note_on_c, 13, 50, 84
15, 111459, Note_on_c, 13, 50, 0
15, 111480, Note_on_c, 13, 62, 84
15, 111480, Note_on_c, 13, 53, 84
15, 111579, Note_on_c, 13, 62, 0
15, 111579, Note_on_c, 13, 53, 0
15, 111600, Note_on_c, 13, 65, 84
15, 111600, Note_on_c, 13, 56, 84
15, 111699, Note_on_c, 13, 65, 0
15, 111699, Note_on_c, 13, 56, 0
15, 111720, Note_on_c, 13, 62, 84
15, 111720, Note_on_c, 13, 53, 84
15, 111819, Note_on_c, 13, 62, 0
15, 111819, Note_on_c, 13, 53, 0
15, 111840, Note_on_c, 13, 55, 84
15, 113379, Note_on_c, 13, 55, 0
15, 113400, Note_on_c, 13, 58, 84
15, 113499, Note_on_c, 13, 58, 0
15, 113520, Note_on_c, 13, 58, 84
15, 113619, Note_on_c, 13, 58, 0
15, 113640, Note_on_c, 13, 58, 84
15, 113739, Note_on_c, 13, 58, 0
15, 113760, Note_on_c, 13, 58, 84
15, 115299, Note_on_c, 13, 58, 0
15, 115320, Note_on_c, 13, 58, 84
15, 115419, Note_on_c, 13, 58, 0
15, 115440, Note_on_c, 13, 58, 84
15, 115539, Note_on_c, 13, 58, 0
15, 115560, Note_on_c, 13, 58, 84
15, 115659, Note_on_c, 13, 58, 0
15, 115680, Note_on_c, 13, 58, 84
15, 115919, Note_on_c, 13, 58, 0
15, 116280, Note_on_c, 13, 58, 84
15, 116379, Note_on_c, 13, 58, 0
15, 116400, Note_on_c, 13, 58, 84
15, 116499, Note_on_c, 13, 58, 0
15, 116520, Note_on_c, 13, 58, 84
15, 116619, Note_on_c, 13, 58, 0
15, 116640, Note_on_c, 13, 58, 84
15, 116879, Note_on_c, 13, 58, 0
15, 117240, Note_on_c, 13, 58, 84
15, 117339, Note_on_c, 13, 58, 0
15, 117360, Note_on_c, 13, 58, 84
15, 117459, Note_on_c, 13, 58, 0
15, 117480, Note_on_c, 13, 58, 84
15, 117579, Note_on_c, 13, 58, 0
15, 117600, Note_on_c, 13, 63, 84
15, 117839, Note_on_c, 13, 63, 0
15, 119640, Note_on_c, 13, 49, 84
15, 119739, Note_on_c, 13, 49, 0
15, 119760, Note_on_c, 13, 49, 84
15, 119859, Note_on_c, 13, 49, 0
15, 119880, Note_on_c, 13, 49, 84
15, 119979, Note_on_c, 13, 49, 0
15, 120000, Note_on_c, 13, 48, 84
15, 120959, Note_on_c, 13, 48, 0
15, 121440, Note_on_c, 13, 60, 52
15, 122499, Note_on_c, 13, 60, 0
15, 122520, Note_on_c, 13, 61, 52
15, 122619, Note_on_c, 13, 61, 0
15, 122640, Note_on_c, 13, 61, 52
15, 122739, Note_on_c, 13, 61, 0
15, 122760, Note_on_c, 13, 61, 52
15, 122859, Note_on_c, 13, 61, 0
15, 122880, Note_on_c, 13, 60, 52
15, 124419, Note_on_c, 13, 60, 0
15, 124440, Note_on_c, 13, 61, 52
15, 124539, Note_on_c, 13, 61, 0
15, 124560, Note_on_c, 13, 61, 52
15, 124659, Note_on_c, 13, 61, 0
15, 124680, Note_on_c, 13, 61, 52
15, 124779, Note_on_c, 13, 61, 0
15, 124798, Control_c, 13, 11, 96
15, 124800, Note_on_c, 13, 60, 68
15, 126239, Note_on_c, 13, 60, 0
15, 126240, Note_on_c, 13, 60, 68
15, 127200, Control_c, 13, 11, 96
15, 127260, Control_c, 13, 11, 97
15, 127320, Control_c, 13, 11, 99
15, 127380, Control_c, 13, 11, 100
15, 127440, Control_c, 13, 11, 101
15, 127500, Control_c, 13, 11, 102
15, 127560, Control_c, 13, 11, 104
15, 127620, Control_c, 13, 11, 105
15, 127679, Note_on_c, 13, 60, 0
15, 127680, Note_on_c, 13, 62, 68
15, 127680, Control_c, 13, 11, 106
15, 127740, Control_c, 13, 11, 108
15, 127800, Control_c, 13, 11, 109
15, 127860, Control_c, 13, 11, 110
15, 127919, Note_on_c, 13, 62, 0
15, 127920, Control_c, 13, 11, 112
15, 127920, Note_on_c, 13, 63, 68
15, 127980, Control_c, 13, 11, 113
15, 128040, Control_c, 13, 11, 114
15, 128100, Control_c, 13, 11, 115
15, 128159, Note_on_c, 13, 63, 0
15, 128160, Note_on_c, 13, 65, 68
15, 128160, Control_c, 13, 11, 117
15, 128220, Control_c, 13, 11, 118
15, 128280, Control_c, 13, 11, 119
15, 128340, Control_c, 13, 11, 121
15, 128399, Note_on_c, 13, 65, 0
15, 128400, Control_c, 13, 11, 122
15, 128400, Note_on_c, 13, 66, 68
15, 128460, Control_c, 13, 11, 123
15, 128520, Control_c, 13, 11, 124
15, 128580, Control_c, 13, 11, 127
15, 128619, Note_on_c, 13, 66, 0
15, 128640, Note_on_c, 13, 67, 52
15, 128739, Note_on_c, 13, 67, 0
15, 128760, Note_on_c, 13, 67, 52
15, 128859, Note_on_c, 13, 67, 0
15, 128880, Note_on_c, 13, 67, 52
15, 128979, Note_on_c, 13, 67, 0
15, 129000, Note_on_c, 13, 65, 52
15, 129099, Note_on_c, 13, 65, 0
15, 129120, Note_on_c, 13, 63, 52
15, 129579, Note_on_c, 13, 63, 0
15, 129600, Note_on_c, 13, 62, 52
15, 129699, Note_on_c, 13, 62, 0
15, 129720, Note_on_c, 13, 67, 52
15, 129819, Note_on_c, 13, 67, 0
15, 129840, Note_on_c, 13, 67, 52
15, 129939, Note_on_c, 13, 67, 0
15, 129960, Note_on_c, 13, 65, 52
15, 130059, Note_on_c, 13, 65, 0
15, 130080, Note_on_c, 13, 63, 52
15, 130539, Note_on_c, 13, 63, 0
15, 130560, Note_on_c, 13, 62, 52
15, 130659, Note_on_c, 13, 62, 0
15, 130680, Note_on_c, 13, 67, 52
15, 130779, Note_on_c, 13, 67, 0
15, 130800, Note_on_c, 13, 67, 52
15, 130899, Note_on_c, 13, 67, 0
15, 130920, Note_on_c, 13, 65, 52
15, 131019, Note_on_c, 13, 65, 0
15, 131040, Note_on_c, 13, 63, 52
15, 131139, Note_on_c, 13, 63, 0
15, 131160, Note_on_c, 13, 63, 53
15, 131259, Note_on_c, 13, 63, 0
15, 131280, Note_on_c, 13, 63, 54
15, 131379, Note_on_c, 13, 63, 0
15, 131400, Note_on_c, 13, 62, 56
15, 131499, Note_on_c, 13, 62, 0
15, 131520, Note_on_c, 13, 60, 57
15, 131619, Note_on_c, 13, 60, 0
15, 131640, Note_on_c, 13, 60, 58
15, 131739, Note_on_c, 13, 60, 0
15, 131760, Note_on_c, 13, 60, 60
15, 131859, Note_on_c, 13, 60, 0
15, 131880, Note_on_c, 13, 58, 61
15, 131979, Note_on_c, 13, 58, 0
15, 132000, Note_on_c, 13, 57, 62
15, 132099, Note_on_c, 13, 57, 0
15, 132120, Note_on_c, 13, 57, 64
15, 132219, Note_on_c, 13, 57, 0
15, 132240, Note_on_c, 13, 57, 65
15, 132339, Note_on_c, 13, 57, 0
15, 132360, Note_on_c, 13, 55, 66
15, 132459, Note_on_c, 13, 55, 0
15, 132480, Note_on_c, 13, 54, 52
15, 132719, Note_on_c, 13, 54, 0
15, 133080, Note_on_c, 13, 58, 52
15, 133179, Note_on_c, 13, 58, 0
15, 133200, Note_on_c, 13, 58, 52
15, 133299, Note_on_c, 13, 58, 0
15, 133320, Note_on_c, 13, 60, 52
15, 133419, Note_on_c, 13, 60, 0
15, 133440, Note_on_c, 13, 62, 52
15, 134019, Note_on_c, 13, 62, 0
15, 134040, Note_on_c, 13, 58, 52
15, 134139, Note_on_c, 13, 58, 0
15, 134160, Note_on_c, 13, 58, 52
15, 134259, Note_on_c, 13, 58, 0
15, 134280, Note_on_c, 13, 60, 52
15, 134379, Note_on_c, 13, 60, 0
15, 134400, Note_on_c, 13, 62, 52
15, 134499, Note_on_c, 13, 62, 0
15, 134520, Note_on_c, 13, 62, 52
15, 134619, Note_on_c, 13, 62, 0
15, 134640, Note_on_c, 13, 62, 52
15, 134739, Note_on_c, 13, 62, 0
15, 134760, Note_on_c, 13, 60, 52
15, 134859, Note_on_c, 13, 60, 0
15, 134880, Note_on_c, 13, 58, 52
15, 134979, Note_on_c, 13, 58, 0
15, 135000, Note_on_c, 13, 58, 52
15, 135099, Note_on_c, 13, 58, 0
15, 135120, Note_on_c, 13, 58, 52
15, 135219, Note_on_c, 13, 58, 0
15, 135240, Note_on_c, 13, 57, 52
15, 135339, Note_on_c, 13, 57, 0
15, 135360, Note_on_c, 13, 55, 52
15, 135459, Note_on_c, 13, 55, 0
15, 135480, Note_on_c, 13, 55, 52
15, 135579, Note_on_c, 13, 55, 0
15, 135600, Note_on_c, 13, 55, 52
15, 135699, Note_on_c, 13, 55, 0
15, 135720, Note_on_c, 13, 53, 52
15, 135819, Note_on_c, 13, 53, 0
15, 135840, Note_on_c, 13, 51, 52
15, 135939, Note_on_c, 13, 51, 0
15, 135960, Note_on_c, 13, 51, 52
15, 136059, Note_on_c, 13, 51, 0
15, 136080, Note_on_c, 13, 51, 52
15, 136179, Note_on_c, 13, 51, 0
15, 136200, Note_on_c, 13, 50, 52
15, 136299, Note_on_c, 13, 50, 0
15, 136320, Note_on_c, 13, 48, 52
15, 136419, Note_on_c, 13, 48, 0
15, 136440, Note_on_c, 13, 60, 52
15, 136539, Note_on_c, 13, 60, 0
15, 136560, Note_on_c, 13, 60, 52
15, 136659, Note_on_c, 13, 60, 0
15, 136680, Note_on_c, 13, 58, 52
15, 136779, Note_on_c, 13, 58, 0
15, 136800, Note_on_c, 13, 57, 52
15, 136899, Note_on_c, 13, 57, 0
15, 136920, Note_on_c, 13, 57, 52
15, 137019, Note_on_c, 13, 57, 0
15, 137040, Note_on_c, 13, 57, 52
15, 137139, Note_on_c, 13, 57, 0
15, 137160, Note_on_c, 13, 55, 52
15, 137259, Note_on_c, 13, 55, 0
15, 137280, Note_on_c, 13, 54, 52
15, 137379, Note_on_c, 13, 54, 0
15, 137400, Note_on_c, 13, 54, 52
15, 137499, Note_on_c, 13, 54, 0
15, 137520, Note_on_c, 13, 54, 52
15, 137619, Note_on_c, 13, 54, 0
15, 137640, Note_on_c, 13, 51, 52
15, 137739, Note_on_c, 13, 51, 0
15, 137760, Note_on_c, 13, 50, 52
15, 137859, Note_on_c, 13, 50, 0
15, 137880, Note_on_c, 13, 50, 52
15, 137979, Note_on_c, 13, 50, 0
15, 138000, Note_on_c, 13, 50, 52
15, 138099, Note_on_c, 13, 50, 0
15, 138120, Note_on_c, 13, 48, 52
15, 138219, Note_on_c, 13, 48, 0
15, 138240, Note_on_c, 13, 58, 52
15, 138339, Note_on_c, 13, 58, 0
15, 138360, Note_on_c, 13, 62, 52
15, 138459, Note_on_c, 13, 62, 0
15, 138480, Note_on_c, 13, 62, 52
15, 138579, Note_on_c, 13, 62, 0
15, 138600, Note_on_c, 13, 60, 52
15, 138699, Note_on_c, 13, 60, 0
15, 138720, Note_on_c, 13, 58, 52
15, 138819, Note_on_c, 13, 58, 0
15, 138840, Note_on_c, 13, 58, 55
15, 138939, Note_on_c, 13, 58, 0
15, 138960, Note_on_c, 13, 58, 58
15, 139059, Note_on_c, 13, 58, 0
15, 139080, Note_on_c, 13, 57, 61
15, 139179, Note_on_c, 13, 57, 0
15, 139200, Note_on_c, 13, 55, 64
15, 139299, Note_on_c, 13, 55, 0
15, 139320, Note_on_c, 13, 53, 67
15, 139419, Note_on_c, 13, 53, 0
15, 139440, Note_on_c, 13, 51, 70
15, 139539, Note_on_c, 13, 51, 0
15, 139560, Note_on_c, 13, 50, 73
15, 139659, Note_on_c, 13, 50, 0
15, 139680, Note_on_c, 13, 48, 76
15, 139779, Note_on_c, 13, 48, 0
15, 139800, Note_on_c, 13, 60, 76
15, 139800, Note_on_c, 13, 48, 76
15, 139899, Note_on_c, 13, 60, 0
15, 139899, Note_on_c, 13, 48, 0
15, 139920, Note_on_c, 13, 60, 76
15, 139920, Note_on_c, 13, 48, 76
15, 140019, Note_on_c, 13, 60, 0
15, 140019, Note_on_c, 13, 48, 0
15, 140040, Note_on_c, 13, 48, 76
15, 140040, Note_on_c, 13, 60, 76
15, 140139, Note_on_c, 13, 48, 0
15, 140139, Note_on_c, 13, 60, 0
15, 140160, Note_on_c, 13, 48, 76
15, 140160, Note_on_c, 13, 60, 76
15, 140259, Note_on_c, 13, 48, 0
15, 140259, Note_on_c, 13, 60, 0
15, 140280, Note_on_c, 13, 60, 76
15, 140280, Note_on_c, 13, 48, 76
15, 140379, Note_on_c, 13, 60, 0
15, 140379, Note_on_c, 13, 48, 0
15, 140400, Note_on_c, 13, 48, 76
15, 140400, Note_on_c, 13, 60, 76
15, 140499, Note_on_c, 13, 48, 0
15, 140499, Note_on_c, 13, 60, 0
15, 140520, Note_on_c, 13, 60, 76
15, 140520, Note_on_c, 13, 48, 76
15, 140619, Note_on_c, 13, 60, 0
15, 140619, Note_on_c, 13, 48, 0
15, 140640, Note_on_c, 13, 60, 76
15, 140640, Note_on_c, 13, 48, 76
15, 140879, Note_on_c, 13, 60, 0
15, 140879, Note_on_c, 13, 48, 0
15, 141240, Note_on_c, 13, 49, 76
15, 141339, Note_on_c, 13, 49, 0
15, 141360, Note_on_c, 13, 49, 76
15, 141459, Note_on_c, 13, 49, 0
15, 141480, Note_on_c, 13, 49, 76
15, 141579, Note_on_c, 13, 49, 0
15, 141600, Note_on_c, 13, 49, 76
15, 141699, Note_on_c, 13, 49, 0
15, 141720, Note_on_c, 13, 61, 76
15, 141819, Note_on_c, 13, 61, 0
15, 141840, Note_on_c, 13, 61, 76
15, 141939, Note_on_c, 13, 61, 0
15, 141960, Note_on_c, 13, 61, 76
15, 142059, Note_on_c, 13, 61, 0
15, 142080, Note_on_c, 13, 61, 76
15, 142179, Note_on_c, 13, 61, 0
15, 142200, Note_on_c, 13, 61, 76
15, 142299, Note_on_c, 13, 61, 0
15, 142320, Note_on_c, 13, 61, 76
15, 142419, Note_on_c, 13, 61, 0
15, 142440, Note_on_c, 13, 61, 76
15, 142539, Note_on_c, 13, 61, 0
15, 142560, Note_on_c, 13, 61, 76
15, 142799, Note_on_c, 13, 61, 0
15, 143160, Note_on_c, 13, 62, 80
15, 143259, Note_on_c, 13, 62, 0
15, 143280, Note_on_c, 13, 62, 80
15, 143379, Note_on_c, 13, 62, 0
15, 143400, Note_on_c, 13, 62, 80
15, 143499, Note_on_c, 13, 62, 0
15, 143520, Note_on_c, 13, 62, 80
15, 143759, Note_on_c, 13, 62, 0
15, 144240, Note_on_c, 13, 64, 80
15, 144339, Note_on_c, 13, 64, 0
15, 144360, Note_on_c, 13, 64, 80
15, 144459, Note_on_c, 13, 64, 0
15, 144480, Note_on_c, 13, 64, 80
15, 144699, Note_on_c, 13, 64, 0
15, 144720, Note_on_c, 13, 54, 80
15, 144819, Note_on_c, 13, 54, 0
15, 144840, Note_on_c, 13, 54, 80
15, 144939, Note_on_c, 13, 54, 0
15, 144960, Note_on_c, 13, 54, 80
15, 145199, Note_on_c, 13, 54, 0
15, 146640, Note_on_c, 13, 72, 80
15, 147099, Note_on_c, 13, 72, 0
15, 147120, Note_on_c, 13, 69, 80
15, 147299, Note_on_c, 13, 69, 0
15, 147360, Note_on_c, 13, 66, 80
15, 147539, Note_on_c, 13, 66, 0
15, 147600, Note_on_c, 13, 62, 80
15, 147779, Note_on_c, 13, 62, 0
15, 147840, Note_on_c, 13, 60, 80
15, 148019, Note_on_c, 13, 60, 0
15, 148080, Note_on_c, 13, 57, 80
15, 148259, Note_on_c, 13, 57, 0
15, 148320, Note_on_c, 13, 54, 80
15, 148499, Note_on_c, 13, 54, 0
15, 148560, Note_on_c, 13, 50, 80
15, 148739, Note_on_c, 13, 50, 0
15, 148800, Note_on_c, 13, 55, 80
15, 149039, Note_on_c, 13, 55, 0
15, 150480, Note_on_c, 13, 77, 84
15, 150939, Note_on_c, 13, 77, 0
15, 150960, Note_on_c, 13, 74, 84
15, 151139, Note_on_c, 13, 74, 0
15, 151200, Note_on_c, 13, 71, 84
15, 151379, Note_on_c, 13, 71, 0
15, 151440, Note_on_c, 13, 67, 84
15, 151619, Note_on_c, 13, 67, 0
15, 151680, Note_on_c, 13, 65, 84
15, 151859, Note_on_c, 13, 65, 0
15, 151920, Note_on_c, 13, 62, 84
15, 152099, Note_on_c, 13, 62, 0
15, 152160, Note_on_c, 13, 59, 84
15, 152339, Note_on_c, 13, 59, 0
15, 152400, Note_on_c, 13, 55, 84
15, 152579, Note_on_c, 13, 55, 0
15, 152640, Note_on_c, 13, 60, 84
15, 152879, Note_on_c, 13, 60, 0
15, 154080, Note_on_c, 13, 60, 84
15, 154080, Note_on_c, 13, 48, 84
15, 154539, Note_on_c, 13, 60, 0
15, 154539, Note_on_c, 13, 48, 0
15, 154560, Note_on_c, 13, 48, 84
15, 154560, Note_on_c, 13, 60, 84
15, 155039, Note_on_c, 13, 48, 0
15, 155039, Note_on_c, 13, 60, 0
15, 156000, Note_on_c, 13, 55, 84
15, 156459, Note_on_c, 13, 55, 0
15, 156480, Note_on_c, 13, 56, 84
15, 156959, Note_on_c, 13, 56, 0
15, 157920, Note_on_c, 13, 58, 84
15, 158379, Note_on_c, 13, 58, 0
15, 158400, Note_on_c, 13, 51, 84
15, 158879, Note_on_c, 13, 51, 0
15, 159840, Note_on_c, 13, 53, 84
15, 160319, Note_on_c, 13, 53, 0
15, 160800, Note_on_c, 13, 54, 74
15, 161279, Note_on_c, 13, 54, 0
15, 161760, Note_on_c, 13, 53, 63
15, 162239, Note_on_c, 13, 53, 0
15, 162720, Note_on_c, 13, 54, 52
15, 163199, Note_on_c, 13, 54, 0
15, 163680, Note_on_c, 13, 54, 52
15, 164159, Note_on_c, 13, 54, 0
15, 164640, Note_on_c, 13, 54, 48
15, 165119, Note_on_c, 13, 54, 0
15, 165600, Note_on_c, 13, 50, 44
15, 166079, Note_on_c, 13, 50, 0
15, 166560, Note_on_c, 13, 50, 44
15, 167039, Note_on_c, 13, 50, 0
15, 167520, Note_on_c, 13, 50, 44
15, 167999, Note_on_c, 13, 50, 0
15, 168480, Note_on_c, 13, 50, 84
15, 168579, Note_on_c, 13, 50, 0
15, 168600, Note_on_c, 13, 62, 84
15, 168600, Note_on_c, 13, 50, 84
15, 168699, Note_on_c, 13, 62, 0
15, 168699, Note_on_c, 13, 50, 0
15, 168720, Note_on_c, 13, 62, 84
15, 168720, Note_on_c, 13, 50, 84
15, 168819, Note_on_c, 13, 62, 0
15, 168819, Note_on_c, 13, 50, 0
15, 168840, Note_on_c, 13, 62, 84
15, 168840, Note_on_c, 13, 50, 84
15, 168939, Note_on_c, 13, 62, 0
15, 168939, Note_on_c, 13, 50, 0
15, 168960, Note_on_c, 13, 62, 84
15, 168960, Note_on_c, 13, 50, 84
15, 169419, Note_on_c, 13, 62, 0
15, 169419, Note_on_c, 13, 50, 0
15, 169440, Note_on_c, 13, 62, 84
15, 169440, Note_on_c, 13, 50, 84
15, 169899, Note_on_c, 13, 62, 0
15, 169899, Note_on_c, 13, 50, 0
15, 169920, Note_on_c, 13, 50, 84
15, 169920, Note_on_c, 13, 62, 84
15, 170879, Note_on_c, 13, 50, 0
15, 170879, Note_on_c, 13, 62, 0
15, 171360, Note_on_c, 13, 53, 44
15, 171839, Note_on_c, 13, 53, 0
15, 172320, Note_on_c, 13, 53, 44
15, 172799, Note_on_c, 13, 53, 0
15, 173280, Note_on_c, 13, 53, 44
15, 173759, Note_on_c, 13, 53, 0
15, 174240, Note_on_c, 13, 53, 76
15, 174479, Note_on_c, 13, 53, 0
15, 174840, Note_on_c, 13, 56, 84
15, 174939, Note_on_c, 13, 56, 0
15, 174960, Note_on_c, 13, 56, 84
15, 175059, Note_on_c, 13, 56, 0
15, 175080, Note_on_c, 13, 56, 84
15, 175179, Note_on_c, 13, 56, 0
15, 175200, Note_on_c, 13, 53, 84
15, 175779, Note_on_c, 13, 53, 0
15, 175800, Note_on_c, 13, 56, 84
15, 175899, Note_on_c, 13, 56, 0
15, 175920, Note_on_c, 13, 56, 84
15, 176019, Note_on_c, 13, 56, 0
15, 176040, Note_on_c, 13, 56, 84
15, 176139, Note_on_c, 13, 56, 0
15, 176160, Note_on_c, 13, 53, 84
15, 176739, Note_on_c, 13, 53, 0
15, 176760, Note_on_c, 13, 56, 84
15, 176859, Note_on_c, 13, 56, 0
15, 176880, Note_on_c, 13, 56, 84
15, 176979, Note_on_c, 13, 56, 0
15, 177000, Note_on_c, 13, 56, 84
15, 177099, Note_on_c, 13, 56, 0
15, 177120, Note_on_c, 13, 53, 84
15, 177219, Note_on_c, 13, 53, 0
15, 177240, Note_on_c, 13, 56, 84
15, 177339, Note_on_c, 13, 56, 0
15, 177360, Note_on_c, 13, 56, 84
15, 177459, Note_on_c, 13, 56, 0
15, 177480, Note_on_c, 13, 56, 84
15, 177579, Note_on_c, 13, 56, 0
15, 177600, Note_on_c, 13, 53, 84
15, 177699, Note_on_c, 13, 53, 0
15, 177720, Note_on_c, 13, 56, 84
15, 177819, Note_on_c, 13, 56, 0
15, 177840, Note_on_c, 13, 56, 84
15, 177939, Note_on_c, 13, 56, 0
15, 177960, Note_on_c, 13, 56, 84
15, 178059, Note_on_c, 13, 56, 0
15, 178080, Note_on_c, 13, 53, 84
15, 178179, Note_on_c, 13, 53, 0
15, 178200, Note_on_c, 13, 55, 84
15, 178299, Note_on_c, 13, 55, 0
15, 178320, Note_on_c, 13, 55, 84
15, 178419, Note_on_c, 13, 55, 0
15, 178440, Note_on_c, 13, 55, 84
15, 178539, Note_on_c, 13, 55, 0
15, 178560, Note_on_c, 13, 51, 84
15, 179999, Note_on_c, 13, 51, 0
15, 180120, Note_on_c, 13, 53, 84
15, 180219, Note_on_c, 13, 53, 0
15, 180240, Note_on_c, 13, 53, 84
15, 180339, Note_on_c, 13, 53, 0
15, 180360, Note_on_c, 13, 53, 84
15, 180459, Note_on_c, 13, 53, 0
15, 180480, Note_on_c, 13, 50, 84
15, 182399, Note_on_c, 13, 50, 0
15, 182640, Program_c, 13, 45
15, 182880, Note_on_c, 13, 60, 48
15, 183119, Note_on_c, 13, 60, 0
15, 183840, Note_on_c, 13, 60, 48
15, 184079, Note_on_c, 13, 60, 0
15, 184800, Note_on_c, 13, 59, 48
15, 185039, Note_on_c, 13, 59, 0
15, 185760, Note_on_c, 13, 59, 48
15, 185999, Note_on_c, 13, 59, 0
15, 186720, Note_on_c, 13, 60, 48
15, 186959, Note_on_c, 13, 60, 0
15, 187200, Note_on_c, 13, 59, 48
15, 187439, Note_on_c, 13, 59, 0
15, 187680, Program_c, 13, 48
15, 187800, Note_on_c, 13, 51, 52
15, 187899, Note_on_c, 13, 51, 0
15, 187920, Note_on_c, 13, 51, 52
15, 188019, Note_on_c, 13, 51, 0
15, 188040, Note_on_c, 13, 53, 52
15, 188139, Note_on_c, 13, 53, 0
15, 188160, Note_on_c, 13, 55, 52
15, 188259, Note_on_c, 13, 55, 0
15, 188280, Note_on_c, 13, 55, 52
15, 188379, Note_on_c, 13, 55, 0
15, 188400, Note_on_c, 13, 57, 52
15, 188499, Note_on_c, 13, 57, 0
15, 188520, Note_on_c, 13, 59, 52
15, 188619, Note_on_c, 13, 59, 0
15, 188640, Note_on_c, 13, 60, 52
15, 188879, Note_on_c, 13, 60, 0
15, 189120, Note_on_c, 13, 56, 68
15, 189359, Note_on_c, 13, 56, 0
15, 189600, Note_on_c, 13, 55, 84
15, 189839, Note_on_c, 13, 55, 0
15, 193080, Note_on_c, 13, 56, 52
15, 193179, Note_on_c, 13, 56, 0
15, 193200, Note_on_c, 13, 56, 52
15, 193299, Note_on_c, 13, 56, 0
15, 193320, Note_on_c, 13, 56, 52
15, 193419, Note_on_c, 13, 56, 0
15, 193440, Note_on_c, 13, 55, 52
15, 193899, Note_on_c, 13, 55, 0
15, 193920, Note_on_c, 13, 55, 52
15, 194019, Note_on_c, 13, 55, 0
15, 194040, Note_on_c, 13, 56, 52
15, 194139, Note_on_c, 13, 56, 0
15, 194160, Note_on_c, 13, 56, 53
15, 194259, Note_on_c, 13, 56, 0
15, 194280, Note_on_c, 13, 56, 55
15, 194379, Note_on_c, 13, 56, 0
15, 194400, Note_on_c, 13, 53, 56
15, 194499, Note_on_c, 13, 53, 0
15, 194520, Note_on_c, 13, 50, 58
15, 194619, Note_on_c, 13, 50, 0
15, 194640, Note_on_c, 13, 50, 60
15, 194739, Note_on_c, 13, 50, 0
15, 194760, Note_on_c, 13, 50, 61
15, 194859, Note_on_c, 13, 50, 0
15, 194880, Note_on_c, 13, 59, 63
15, 194979, Note_on_c, 13, 59, 0
15, 195000, Note_on_c, 13, 56, 64
15, 195099, Note_on_c, 13, 56, 0
15, 195120, Note_on_c, 13, 56, 66
15, 195219, Note_on_c, 13, 56, 0
15, 195240, Note_on_c, 13, 56, 68
15, 195339, Note_on_c, 13, 56, 0
15, 195360, Note_on_c, 13, 55, 69
15, 195459, Note_on_c, 13, 55, 0
15, 195480, Note_on_c, 13, 55, 71
15, 195579, Note_on_c, 13, 55, 0
15, 195600, Note_on_c, 13, 55, 72
15, 195699, Note_on_c, 13, 55, 0
15, 195720, Note_on_c, 13, 55, 74
15, 195819, Note_on_c, 13, 55, 0
15, 195840, Note_on_c, 13, 55, 76
15, 195939, Note_on_c, 13, 55, 0
15, 195960, Note_on_c, 13, 60, 76
15, 196059, Note_on_c, 13, 60, 0
15, 196080, Note_on_c, 13, 63, 76
15, 196179, Note_on_c, 13, 63, 0
15, 196200, Note_on_c, 13, 63, 76
15, 196299, Note_on_c, 13, 63, 0
15, 196320, Note_on_c, 13, 62, 76
15, 196899, Note_on_c, 13, 62, 0
15, 196920, Note_on_c, 13, 65, 76
15, 197019, Note_on_c, 13, 65, 0
15, 197040, Note_on_c, 13, 65, 76
15, 197139, Note_on_c, 13, 65, 0
15, 197160, Note_on_c, 13, 62, 76
15, 197259, Note_on_c, 13, 62, 0
15, 197280, Note_on_c, 13, 63, 76
15, 197859, Note_on_c, 13, 63, 0
15, 197880, Note_on_c, 13, 63, 76
15, 197979, Note_on_c, 13, 63, 0
15, 198000, Note_on_c, 13, 63, 76
15, 198099, Note_on_c, 13, 63, 0
15, 198120, Note_on_c, 13, 60, 76
15, 198219, Note_on_c, 13, 60, 0
15, 198240, Note_on_c, 13, 65, 84
15, 198339, Note_on_c, 13, 65, 0
15, 198360, Note_on_c, 13, 65, 76
15, 198459, Note_on_c, 13, 65, 0
15, 198480, Note_on_c, 13, 65, 76
15, 198579, Note_on_c, 13, 65, 0
15, 198600, Note_on_c, 13, 59, 76
15, 198699, Note_on_c, 13, 59, 0
15, 198720, Note_on_c, 13, 67, 84
15, 198819, Note_on_c, 13, 67, 0
15, 198840, Note_on_c, 13, 67, 76
15, 198939, Note_on_c, 13, 67, 0
15, 198960, Note_on_c, 13, 67, 76
15, 199059, Note_on_c, 13, 67, 0
15, 199080, Note_on_c, 13, 58, 76
15, 199179, Note_on_c, 13, 58, 0
15, 199200, Note_on_c, 13, 68, 84
15, 199299, Note_on_c, 13, 68, 0
15, 199320, Note_on_c, 13, 56, 76
15, 199419, Note_on_c, 13, 56, 0
15, 199440, Note_on_c, 13, 56, 76
15, 199539, Note_on_c, 13, 56, 0
15, 199560, Note_on_c, 13, 53, 76
15, 199659, Note_on_c, 13, 53, 0
15, 199680, Note_on_c, 13, 58, 84
15, 199779, Note_on_c, 13, 58, 0
15, 199800, Note_on_c, 13, 58, 76
15, 199899, Note_on_c, 13, 58, 0
15, 199920, Note_on_c, 13, 58, 76
15, 200019, Note_on_c, 13, 58, 0
15, 200040, Note_on_c, 13, 55, 76
15, 200139, Note_on_c, 13, 55, 0
15, 200160, Note_on_c, 13, 60, 84
15, 200259, Note_on_c, 13, 60, 0
15, 200280, Note_on_c, 13, 60, 76
15, 200379, Note_on_c, 13, 60, 0
15, 200400, Note_on_c, 13, 60, 76
15, 200499, Note_on_c, 13, 60, 0
15, 200520, Note_on_c, 13, 56, 76
15, 200619, Note_on_c, 13, 56, 0
15, 200640, Note_on_c, 13, 65, 84
15, 200739, Note_on_c, 13, 65, 0
15, 200760, Note_on_c, 13, 65, 76
15, 200859, Note_on_c, 13, 65, 0
15, 200880, Note_on_c, 13, 65, 76
15, 200979, Note_on_c, 13, 65, 0
15, 201000, Note_on_c, 13, 62, 76
15, 201099, Note_on_c, 13, 62, 0
15, 201120, Note_on_c, 13, 63, 76
15, 201219, Note_on_c, 13, 63, 0
15, 201240, Note_on_c, 13, 48, 76
15, 201240, Note_on_c, 13, 51, 76
15, 201339, Note_on_c, 13, 48, 0
15, 201339, Note_on_c, 13, 51, 0
15, 201360, Note_on_c, 13, 48, 76
15, 201360, Note_on_c, 13, 51, 76
15, 201459, Note_on_c, 13, 48, 0
15, 201459, Note_on_c, 13, 51, 0
15, 201480, Note_on_c, 13, 48, 76
15, 201480, Note_on_c, 13, 51, 76
15, 201579, Note_on_c, 13, 48, 0
15, 201579, Note_on_c, 13, 51, 0
15, 201600, Note_on_c, 13, 51, 76
15, 201600, Note_on_c, 13, 48, 76
15, 201699, Note_on_c, 13, 51, 0
15, 201699, Note_on_c, 13, 48, 0
15, 201720, Note_on_c, 13, 51, 76
15, 201720, Note_on_c, 13, 48, 76
15, 201819, Note_on_c, 13, 51, 0
15, 201819, Note_on_c, 13, 48, 0
15, 201840, Note_on_c, 13, 48, 76
15, 201840, Note_on_c, 13, 51, 76
15, 201939, Note_on_c, 13, 48, 0
15, 201939, Note_on_c, 13, 51, 0
15, 201960, Note_on_c, 13, 51, 76
15, 201960, Note_on_c, 13, 48, 76
15, 202059, Note_on_c, 13, 51, 0
15, 202059, Note_on_c, 13, 48, 0
15, 202080, Note_on_c, 13, 51, 76
15, 202080, Note_on_c, 13, 48, 76
15, 202179, Note_on_c, 13, 51, 0
15, 202179, Note_on_c, 13, 48, 0
15, 202200, Note_on_c, 13, 48, 76
15, 202200, Note_on_c, 13, 51, 76
15, 202299, Note_on_c, 13, 48, 0
15, 202299, Note_on_c, 13, 51, 0
15, 202320, Note_on_c, 13, 51, 76
15, 202320, Note_on_c, 13, 48, 76
15, 202419, Note_on_c, 13, 51, 0
15, 202419, Note_on_c, 13, 48, 0
15, 202440, Note_on_c, 13, 51, 76
15, 202440, Note_on_c, 13, 48, 76
15, 202539, Note_on_c, 13, 51, 0
15, 202539, Note_on_c, 13, 48, 0
15, 202560, Note_on_c, 13, 48, 76
15, 202560, Note_on_c, 13, 51, 76
15, 202659, Note_on_c, 13, 48, 0
15, 202659, Note_on_c, 13, 51, 0
15, 202680, Note_on_c, 13, 48, 76
15, 202680, Note_on_c, 13, 51, 76
15, 202779, Note_on_c, 13, 48, 0
15, 202779, Note_on_c, 13, 51, 0
15, 202800, Note_on_c, 13, 48, 76
15, 202800, Note_on_c, 13, 51, 76
15, 202899, Note_on_c, 13, 48, 0
15, 202899, Note_on_c, 13, 51, 0
15, 202920, Note_on_c, 13, 51, 76
15, 202920, Note_on_c, 13, 48, 76
15, 203019, Note_on_c, 13, 51, 0
15, 203019, Note_on_c, 13, 48, 0
15, 203040, Note_on_c, 13, 50, 76
15, 203040, Note_on_c, 13, 53, 76
15, 203139, Note_on_c, 13, 50, 0
15, 203139, Note_on_c, 13, 53, 0
15, 203160, Note_on_c, 13, 50, 76
15, 203160, Note_on_c, 13, 53, 76
15, 203259, Note_on_c, 13, 50, 0
15, 203259, Note_on_c, 13, 53, 0
15, 203280, Note_on_c, 13, 53, 76
15, 203280, Note_on_c, 13, 50, 76
15, 203379, Note_on_c, 13, 53, 0
15, 203379, Note_on_c, 13, 50, 0
15, 203400, Note_on_c, 13, 50, 76
15, 203400, Note_on_c, 13, 53, 76
15, 203499, Note_on_c, 13, 50, 0
15, 203499, Note_on_c, 13, 53, 0
15, 203520, Note_on_c, 13, 50, 76
15, 203520, Note_on_c, 13, 53, 76
15, 203619, Note_on_c, 13, 50, 0
15, 203619, Note_on_c, 13, 53, 0
15, 203640, Note_on_c, 13, 50, 76
15, 203640, Note_on_c, 13, 53, 76
15, 203739, Note_on_c, 13, 50, 0
15, 203739, Note_on_c, 13, 53, 0
15, 203760, Note_on_c, 13, 50, 76
15, 203760, Note_on_c, 13, 53, 76
15, 203859, Note_on_c, 13, 50, 0
15, 203859, Note_on_c, 13, 53, 0
15, 203880, Note_on_c, 13, 50, 76
15, 203880, Note_on_c, 13, 53, 76
15, 203979, Note_on_c, 13, 50, 0
15, 203979, Note_on_c, 13, 53, 0
15, 204000, Note_on_c, 13, 53, 76
15, 204000, Note_on_c, 13, 50, 76
15, 204099, Note_on_c, 13, 53, 0
15, 204099, Note_on_c, 13, 50, 0
15, 204120, Note_on_c, 13, 50, 76
15, 204120, Note_on_c, 13, 53, 76
15, 204219, Note_on_c, 13, 50, 0
15, 204219, Note_on_c, 13, 53, 0
15, 204240, Note_on_c, 13, 50, 76
15, 204240, Note_on_c, 13, 53, 76
15, 204339, Note_on_c, 13, 50, 0
15, 204339, Note_on_c, 13, 53, 0
15, 204360, Note_on_c, 13, 50, 76
15, 204360, Note_on_c, 13, 53, 76
15, 204459, Note_on_c, 13, 50, 0
15, 204459, Note_on_c, 13, 53, 0
15, 204480, Note_on_c, 13, 53, 76
15, 204480, Note_on_c, 13, 50, 76
15, 204579, Note_on_c, 13, 53, 0
15, 204579, Note_on_c, 13, 50, 0
15, 204600, Note_on_c, 13, 53, 76
15, 204600, Note_on_c, 13, 50, 76
15, 204699, Note_on_c, 13, 53, 0
15, 204699, Note_on_c, 13, 50, 0
15, 204720, Note_on_c, 13, 51, 76
15, 204720, Note_on_c, 13, 48, 76
15, 204819, Note_on_c, 13, 51, 0
15, 204819, Note_on_c, 13, 48, 0
15, 204840, Note_on_c, 13, 51, 76
15, 204840, Note_on_c, 13, 48, 76
15, 204939, Note_on_c, 13, 51, 0
15, 204939, Note_on_c, 13, 48, 0
15, 204960, Note_on_c, 13, 51, 84
15, 204960, Note_on_c, 13, 57, 84
15, 205059, Note_on_c, 13, 51, 0
15, 205059, Note_on_c, 13, 57, 0
15, 205080, Note_on_c, 13, 75, 84
15, 205179, Note_on_c, 13, 75, 0
15, 205200, Note_on_c, 13, 75, 84
15, 205299, Note_on_c, 13, 75, 0
15, 205320, Note_on_c, 13, 75, 84
15, 205419, Note_on_c, 13, 75, 0
15, 205440, Note_on_c, 13, 72, 84
15, 205539, Note_on_c, 13, 72, 0
15, 205560, Note_on_c, 13, 69, 84
15, 205659, Note_on_c, 13, 69, 0
15, 205680, Note_on_c, 13, 69, 84
15, 205779, Note_on_c, 13, 69, 0
15, 205800, Note_on_c, 13, 69, 84
15, 205899, Note_on_c, 13, 69, 0
15, 205920, Note_on_c, 13, 66, 84
15, 206019, Note_on_c, 13, 66, 0
15, 206040, Note_on_c, 13, 63, 84
15, 206139, Note_on_c, 13, 63, 0
15, 206160, Note_on_c, 13, 63, 84
15, 206259, Note_on_c, 13, 63, 0
15, 206280, Note_on_c, 13, 63, 84
15, 206379, Note_on_c, 13, 63, 0
15, 206400, Note_on_c, 13, 60, 84
15, 206499, Note_on_c, 13, 60, 0
15, 206520, Note_on_c, 13, 57, 84
15, 206619, Note_on_c, 13, 57, 0
15, 206640, Note_on_c, 13, 57, 84
15, 206739, Note_on_c, 13, 57, 0
15, 206760, Note_on_c, 13, 57, 84
15, 206859, Note_on_c, 13, 57, 0
15, 206880, Note_on_c, 13, 60, 84
15, 207119, Note_on_c, 13, 60, 0
15, 207840, Note_on_c, 13, 59, 84
15, 207840, Note_on_c, 13, 62, 84
15, 208079, Note_on_c, 13, 59, 0
15, 208079, Note_on_c, 13, 62, 0
15, 210240, Note_on_c, 13, 60, 52
15, 210719, Note_on_c, 13, 60, 0
15, 210720, Note_on_c, 13, 62, 52
15, 211179, Note_on_c, 13, 62, 0
15, 211200, Note_on_c, 13, 59, 52
15, 211679, Note_on_c, 13, 59, 0
15, 211680, Note_on_c, 13, 60, 52
15, 212159, Note_on_c, 13, 60, 0
15, 214080, Note_on_c, 13, 60, 52
15, 214559, Note_on_c, 13, 60, 0
15, 214560, Note_on_c, 13, 62, 52
15, 215019, Note_on_c, 13, 62, 0
15, 215040, Note_on_c, 13, 59, 52
15, 215519, Note_on_c, 13, 59, 0
15, 215520, Note_on_c, 13, 60, 52
15, 215999, Note_on_c, 13, 60, 0
15, 217920, Note_on_c, 13, 67, 52
15, 218399, Note_on_c, 13, 67, 0
15, 218400, Note_on_c, 13, 64, 52
15, 218859, Note_on_c, 13, 64, 0
15, 218880, Note_on_c, 13, 64, 52
15, 219359, Note_on_c, 13, 64, 0
15, 219360, Note_on_c, 13, 60, 52
15, 219819, Note_on_c, 13, 60, 0
15, 219840, Note_on_c, 13, 65, 52
15, 220319, Note_on_c, 13, 65, 0
15, 220320, Note_on_c, 13, 66, 52
15, 220779, Note_on_c, 13, 66, 0
15, 220800, Note_on_c, 13, 66, 52
15, 221279, Note_on_c, 13, 66, 0
15, 221280, Note_on_c, 13, 62, 52
15, 221759, Note_on_c, 13, 62, 0
15, 222240, Control_c, 13, 11, 64
15, 222347, Control_c, 13, 11, 65
15, 222360, Note_on_c, 13, 56, 84
15, 222453, Control_c, 13, 11, 66
15, 222459, Note_on_c, 13, 56, 0
15, 222480, Note_on_c, 13, 56, 84
15, 222560, Control_c, 13, 11, 67
15, 222579, Note_on_c, 13, 56, 0
15, 222600, Note_on_c, 13, 56, 84
15, 222667, Control_c, 13, 11, 68
15, 222699, Note_on_c, 13, 56, 0
15, 222720, Note_on_c, 13, 56, 84
15, 222773, Control_c, 13, 11, 69
15, 222880, Control_c, 13, 11, 70
15, 222959, Note_on_c, 13, 56, 0
15, 222987, Control_c, 13, 11, 71
15, 223093, Control_c, 13, 11, 72
15, 223200, Control_c, 13, 11, 73
15, 223307, Control_c, 13, 11, 74
15, 223320, Note_on_c, 13, 59, 84
15, 223413, Control_c, 13, 11, 75
15, 223419, Note_on_c, 13, 59, 0
15, 223440, Note_on_c, 13, 59, 84
15, 223520, Control_c, 13, 11, 76
15, 223539, Note_on_c, 13, 59, 0
15, 223560, Note_on_c, 13, 59, 84
15, 223627, Control_c, 13, 11, 77
15, 223659, Note_on_c, 13, 59, 0
15, 223680, Note_on_c, 13, 59, 84
15, 223733, Control_c, 13, 11, 78
15, 223840, Control_c, 13, 11, 79
15, 223919, Note_on_c, 13, 59, 0
15, 223947, Control_c, 13, 11, 80
15, 224053, Control_c, 13, 11, 81
15, 224160, Control_c, 13, 11, 82
15, 224267, Control_c, 13, 11, 83
15, 224373, Control_c, 13, 11, 84
15, 224480, Control_c, 13, 11, 85
15, 224587, Control_c, 13, 11, 86
15, 224640, Note_on_c, 13, 53, 84
15, 224693, Control_c, 13, 11, 87
15, 224800, Control_c, 13, 11, 88
15, 224879, Note_on_c, 13, 53, 0
15, 224880, Note_on_c, 13, 55, 84
15, 224907, Control_c, 13, 11, 89
15, 225013, Control_c, 13, 11, 90
15, 225099, Note_on_c, 13, 55, 0
15, 225120, Control_c, 13, 11, 91
15, 225120, Note_on_c, 13, 56, 84
15, 225227, Control_c, 13, 11, 92
15, 225333, Control_c, 13, 11, 93
15, 225359, Note_on_c, 13, 56, 0
15, 225360, Note_on_c, 13, 55, 84
15, 225440, Control_c, 13, 11, 94
15, 225547, Control_c, 13, 11, 95
15, 225599, Note_on_c, 13, 55, 0
15, 225600, Note_on_c, 13, 54, 84
15, 225653, Control_c, 13, 11, 96
15, 225760, Control_c, 13, 11, 97
15, 225839, Note_on_c, 13, 54, 0
15, 225840, Note_on_c, 13, 55, 84
15, 225867, Control_c, 13, 11, 98
15, 225973, Control_c, 13, 11, 99
15, 226059, Note_on_c, 13, 55, 0
15, 226080, Note_on_c, 13, 57, 84
15, 226080, Control_c, 13, 11, 100
15, 226187, Control_c, 13, 11, 101
15, 226293, Control_c, 13, 11, 102
15, 226319, Note_on_c, 13, 57, 0
15, 226320, Note_on_c, 13, 55, 84
15, 226400, Control_c, 13, 11, 103
15, 226507, Control_c, 13, 11, 104
15, 226559, Note_on_c, 13, 55, 0
15, 226560, Note_on_c, 13, 54, 84
15, 226613, Control_c, 13, 11, 105
15, 226720, Control_c, 13, 11, 106
15, 226799, Note_on_c, 13, 54, 0
15, 226800, Note_on_c, 13, 55, 84
15, 226827, Control_c, 13, 11, 107
15, 226933, Control_c, 13, 11, 108
15, 227019, Note_on_c, 13, 55, 0
15, 227040, Control_c, 13, 11, 109
15, 227040, Note_on_c, 13, 57, 84
15, 227147, Control_c, 13, 11, 110
15, 227253, Control_c, 13, 11, 111
15, 227279, Note_on_c, 13, 57, 0
15, 227280, Note_on_c, 13, 55, 84
15, 227360, Control_c, 13, 11, 112
15, 227467, Control_c, 13, 11, 113
15, 227519, Note_on_c, 13, 55, 0
15, 227520, Note_on_c, 13, 54, 84
15, 227573, Control_c, 13, 11, 114
15, 227680, Control_c, 13, 11, 115
15, 227759, Note_on_c, 13, 54, 0
15, 227760, Note_on_c, 13, 55, 84
15, 227787, Control_c, 13, 11, 116
15, 227893, Control_c, 13, 11, 117
15, 227999, Note_on_c, 13, 55, 0
15, 228000, Note_on_c, 13, 54, 84
15, 228000, Control_c, 13, 11, 118
15, 228107, Control_c, 13, 11, 119
15, 228213, Control_c, 13, 11, 120
15, 228239, Note_on_c, 13, 54, 0
15, 228240, Note_on_c, 13, 55, 84
15, 228320, Control_c, 13, 11, 121
15, 228427, Control_c, 13, 11, 122
15, 228479, Note_on_c, 13, 55, 0
15, 228480, Note_on_c, 13, 54, 84
15, 228533, Control_c, 13, 11, 123
15, 228640, Control_c, 13, 11, 124
15, 228719, Note_on_c, 13, 54, 0
15, 228720, Note_on_c, 13, 55, 84
15, 228747, Control_c, 13, 11, 125
15, 228853, Control_c, 13, 11, 127
15, 228939, Note_on_c, 13, 55, 0
15, 228960, Note_on_c, 13, 55, 84
15, 228960, Note_on_c, 13, 65, 84
15, 229659, Note_on_c, 13, 55, 0
15, 229659, Note_on_c, 13, 65, 0
15, 229680, Note_on_c, 13, 50, 84
15, 229779, Note_on_c, 13, 50, 0
15, 229800, Note_on_c, 13, 50, 84
15, 229899, Note_on_c, 13, 50, 0
15, 229920, Note_on_c, 13, 52, 84
15, 230019, Note_on_c, 13, 52, 0
15, 230040, Note_on_c, 13, 52, 84
15, 230139, Note_on_c, 13, 52, 0
15, 230160, Note_on_c, 13, 55, 84
15, 230259, Note_on_c, 13, 55, 0
15, 230280, Note_on_c, 13, 55, 84
15, 230379, Note_on_c, 13, 55, 0
15, 230400, Note_on_c, 13, 53, 84
15, 230499, Note_on_c, 13, 53, 0
15, 230520, Note_on_c, 13, 53, 84
15, 230619, Note_on_c, 13, 53, 0
15, 230640, Note_on_c, 13, 55, 84
15, 230739, Note_on_c, 13, 55, 0
15, 230760, Note_on_c, 13, 55, 84
15, 230859, Note_on_c, 13, 55, 0
15, 230880, Note_on_c, 13, 52, 84
15, 230979, Note_on_c, 13, 52, 0
15, 231000, Note_on_c, 13, 52, 84
15, 231099, Note_on_c, 13, 52, 0
15, 231120, Note_on_c, 13, 55, 84
15, 231219, Note_on_c, 13, 55, 0
15, 231240, Note_on_c, 13, 55, 84
15, 231339, Note_on_c, 13, 55, 0
15, 231360, Note_on_c, 13, 50, 84
15, 231459, Note_on_c, 13, 50, 0
15, 231480, Note_on_c, 13, 50, 84
15, 231579, Note_on_c, 13, 50, 0
15, 231600, Note_on_c, 13, 57, 84
15, 231699, Note_on_c, 13, 57, 0
15, 231720, Note_on_c, 13, 57, 84
15, 231819, Note_on_c, 13, 57, 0
15, 231840, Note_on_c, 13, 52, 84
15, 231939, Note_on_c, 13, 52, 0
15, 231960, Note_on_c, 13, 52, 84
15, 232059, Note_on_c, 13, 52, 0
15, 232080, Note_on_c, 13, 55, 84
15, 232179, Note_on_c, 13, 55, 0
15, 232200, Note_on_c, 13, 55, 84
15, 232299, Note_on_c, 13, 55, 0
15, 232320, Note_on_c, 13, 50, 84
15, 232559, Note_on_c, 13, 50, 0
15, 232800, Note_on_c, 13, 50, 84
15, 232899, Note_on_c, 13, 50, 0
15, 232920, Note_on_c, 13, 50, 84
15, 233019, Note_on_c, 13, 50, 0
15, 233040, Note_on_c, 13, 55, 84
15, 233139, Note_on_c, 13, 55, 0
15, 233160, Note_on_c, 13, 55, 84
15, 233259, Note_on_c, 13, 55, 0
15, 233280, Note_on_c, 13, 50, 84
15, 233379, Note_on_c, 13, 50, 0
15, 233400, Note_on_c, 13, 50, 84
15, 233499, Note_on_c, 13, 50, 0
15, 233520, Note_on_c, 13, 55, 84
15, 233619, Note_on_c, 13, 55, 0
15, 233640, Note_on_c, 13, 55, 84
15, 233739, Note_on_c, 13, 55, 0
15, 233760, Note_on_c, 13, 52, 84
15, 233859, Note_on_c, 13, 52, 0
15, 233880, Note_on_c, 13, 52, 84
15, 233979, Note_on_c, 13, 52, 0
15, 234000, Note_on_c, 13, 55, 84
15, 234099, Note_on_c, 13, 55, 0
15, 234120, Note_on_c, 13, 55, 84
15, 234219, Note_on_c, 13, 55, 0
15, 234240, Note_on_c, 13, 53, 84
15, 234339, Note_on_c, 13, 53, 0
15, 234360, Note_on_c, 13, 53, 84
15, 234459, Note_on_c, 13, 53, 0
15, 234480, Note_on_c, 13, 59, 84
15, 234579, Note_on_c, 13, 59, 0
15, 234600, Note_on_c, 13, 59, 84
15, 234699, Note_on_c, 13, 59, 0
15, 234720, Note_on_c, 13, 62, 84
15, 234839, Note_on_c, 13, 62, 0
15, 234840, Note_on_c, 13, 60, 84
15, 234939, Note_on_c, 13, 60, 0
15, 234960, Note_on_c, 13, 55, 84
15, 235049, Note_on_c, 13, 55, 0
15, 235080, Note_on_c, 13, 52, 84
15, 235169, Note_on_c, 13, 52, 0
15, 235200, Note_on_c, 13, 59, 84
15, 235319, Note_on_c, 13, 59, 0
15, 235320, Note_on_c, 13, 57, 84
15, 235419, Note_on_c, 13, 57, 0
15, 235440, Note_on_c, 13, 53, 84
15, 235529, Note_on_c, 13, 53, 0
15, 235560, Note_on_c, 13, 50, 84
15, 235649, Note_on_c, 13, 50, 0
15, 235680, Note_on_c, 13, 57, 84
15, 235799, Note_on_c, 13, 57, 0
15, 235800, Note_on_c, 13, 55, 84
15, 235899, Note_on_c, 13, 55, 0
15, 235920, Note_on_c, 13, 52, 84
15, 236009, Note_on_c, 13, 52, 0
15, 236040, Note_on_c, 13, 48, 84
15, 236129, Note_on_c, 13, 48, 0
15, 236160, Note_on_c, 13, 59, 84
15, 236160, Note_on_c, 13, 50, 84
15, 236259, Note_on_c, 13, 59, 0
15, 236259, Note_on_c, 13, 50, 0
15, 236280, Note_on_c, 13, 59, 84
15, 236280, Note_on_c, 13, 50, 84
15, 236379, Note_on_c, 13, 59, 0
15, 236379, Note_on_c, 13, 50, 0
15, 236400, Note_on_c, 13, 53, 84
15, 236400, Note_on_c, 13, 62, 84
15, 236499, Note_on_c, 13, 53, 0
15, 236499, Note_on_c, 13, 62, 0
15, 236520, Note_on_c, 13, 53, 84
15, 236520, Note_on_c, 13, 62, 84
15, 236619, Note_on_c, 13, 53, 0
15, 236619, Note_on_c, 13, 62, 0
15, 236640, Note_on_c, 13, 55, 84
15, 237599, Note_on_c, 13, 55, 0
15, 237600, Note_on_c, 13, 55, 84
15, 238179, Note_on_c, 13, 55, 0
15, 238200, Note_on_c, 13, 55, 84
15, 238299, Note_on_c, 13, 55, 0
15, 238320, Note_on_c, 13, 55, 84
15, 238419, Note_on_c, 13, 55, 0
15, 238440, Note_on_c, 13, 55, 84
15, 238539, Note_on_c, 13, 55, 0
15, 238560, Note_on_c, 13, 55, 84
15, 239519, Note_on_c, 13, 55, 0
15, 239520, Note_on_c, 13, 55, 84
15, 240099, Note_on_c, 13, 55, 0
15, 240120, Note_on_c, 13, 67, 84
15, 240219, Note_on_c, 13, 67, 0
15, 240240, Note_on_c, 13, 67, 84
15, 240339, Note_on_c, 13, 67, 0
15, 240360, Note_on_c, 13, 67, 84
15, 240459, Note_on_c, 13, 67, 0
15, 240480, Note_on_c, 13, 67, 84
15, 240719, Note_on_c, 13, 67, 0
15, 241080, Note_on_c, 13, 67, 84
15, 241179, Note_on_c, 13, 67, 0
15, 241200, Note_on_c, 13, 67, 84
15, 241299, Note_on_c, 13, 67, 0
15, 241320, Note_on_c, 13, 67, 84
15, 241419, Note_on_c, 13, 67, 0
15, 241440, Note_on_c, 13, 67, 84
15, 241679, Note_on_c, 13, 67, 0
15, 242040, Note_on_c, 13, 55, 84
15, 242139, Note_on_c, 13, 55, 0
15, 242160, Note_on_c, 13, 55, 84
15, 242259, Note_on_c, 13, 55, 0
15, 242280, Note_on_c, 13, 55, 84
15, 242379, Note_on_c, 13, 55, 0
15, 242400, Note_on_c, 13, 67, 92
15, 242519, Note_on_c, 13, 67, 0
15, 242520, Note_on_c, 13, 67, 84
15, 242879, Note_on_c, 13, 67, 0
15, 242880, Note_on_c, 13, 67, 84
15, 242979, Note_on_c, 13, 67, 0
15, 243000, Note_on_c, 13, 67, 84
15, 243099, Note_on_c, 13, 67, 0
15, 243120, Note_on_c, 13, 67, 84
15, 243219, Note_on_c, 13, 67, 0
15, 243240, Note_on_c, 13, 67, 84
15, 243339, Note_on_c, 13, 67, 0
15, 243360, Note_on_c, 13, 65, 92
15, 243479, Note_on_c, 13, 65, 0
15, 243480, Note_on_c, 13, 65, 84
15, 243839, Note_on_c, 13, 65, 0
15, 243840, Note_on_c, 13, 65, 84
15, 243939, Note_on_c, 13, 65, 0
15, 243960, Note_on_c, 13, 65, 84
15, 244059, Note_on_c, 13, 65, 0
15, 244080, Note_on_c, 13, 65, 84
15, 244179, Note_on_c, 13, 65, 0
15, 244200, Note_on_c, 13, 65, 84
15, 244299, Note_on_c, 13, 65, 0
15, 244320, Note_on_c, 13, 60, 92
15, 244439, Note_on_c, 13, 60, 0
15, 244440, Note_on_c, 13, 60, 84
15, 244799, Note_on_c, 13, 60, 0
15, 244800, Note_on_c, 13, 60, 84
15, 244899, Note_on_c, 13, 60, 0
15, 244920, Note_on_c, 13, 60, 84
15, 245019, Note_on_c, 13, 60, 0
15, 245040, Note_on_c, 13, 60, 84
15, 245139, Note_on_c, 13, 60, 0
15, 245160, Note_on_c, 13, 60, 84
15, 245259, Note_on_c, 13, 60, 0
15, 245280, Note_on_c, 13, 56, 92
15, 245399, Note_on_c, 13, 56, 0
15, 245400, Note_on_c, 13, 56, 84
15, 245759, Note_on_c, 13, 56, 0
15, 245760, Note_on_c, 13, 56, 84
15, 245859, Note_on_c, 13, 56, 0
15, 245880, Note_on_c, 13, 56, 84
15, 245979, Note_on_c, 13, 56, 0
15, 246000, Note_on_c, 13, 56, 84
15, 246099, Note_on_c, 13, 56, 0
15, 246120, Note_on_c, 13, 56, 84
15, 246219, Note_on_c, 13, 56, 0
15, 246240, Note_on_c, 13, 56, 84
15, 246339, Note_on_c, 13, 56, 0
15, 246360, Note_on_c, 13, 68, 84
15, 246459, Note_on_c, 13, 68, 0
15, 246480, Note_on_c, 13, 68, 84
15, 246579, Note_on_c, 13, 68, 0
15, 246600, Note_on_c, 13, 68, 84
15, 246699, Note_on_c, 13, 68, 0
15, 246720, Note_on_c, 13, 68, 84
15, 246819, Note_on_c, 13, 68, 0
15, 246840, Note_on_c, 13, 68, 84
15, 246939, Note_on_c, 13, 68, 0
15, 246960, Note_on_c, 13, 68, 84
15, 247059, Note_on_c, 13, 68, 0
15, 247080, Note_on_c, 13, 68, 84
15, 247179, Note_on_c, 13, 68, 0
15, 247200, Note_on_c, 13, 68, 84
15, 247299, Note_on_c, 13, 68, 0
15, 247320, Note_on_c, 13, 68, 84
15, 247419, Note_on_c, 13, 68, 0
15, 247440, Note_on_c, 13, 68, 84
15, 247539, Note_on_c, 13, 68, 0
15, 247560, Note_on_c, 13, 68, 84
15, 247659, Note_on_c, 13, 68, 0
15, 247680, Note_on_c, 13, 68, 84
15, 247779, Note_on_c, 13, 68, 0
15, 247800, Note_on_c, 13, 68, 84
15, 247899, Note_on_c, 13, 68, 0
15, 247920, Note_on_c, 13, 68, 84
15, 248019, Note_on_c, 13, 68, 0
15, 248040, Note_on_c, 13, 68, 84
15, 248139, Note_on_c, 13, 68, 0
15, 248160, Note_on_c, 13, 68, 84
15, 248399, Note_on_c, 13, 68, 0
15, 250200, Note_on_c, 13, 57, 84
15, 250299, Note_on_c, 13, 57, 0
15, 250320, Note_on_c, 13, 57, 84
15, 250419, Note_on_c, 13, 57, 0
15, 250440, Note_on_c, 13, 57, 84
15, 250539, Note_on_c, 13, 57, 0
15, 250560, Note_on_c, 13, 57, 84
15, 250659, Note_on_c, 13, 57, 0
15, 250680, Note_on_c, 13, 69, 84
15, 250779, Note_on_c, 13, 69, 0
15, 250800, Note_on_c, 13, 69, 84
15, 250899, Note_on_c, 13, 69, 0
15, 250920, Note_on_c, 13, 69, 84
15, 251019, Note_on_c, 13, 69, 0
15, 251040, Note_on_c, 13, 69, 84
15, 251139, Note_on_c, 13, 69, 0
15, 251160, Note_on_c, 13, 69, 84
15, 251259, Note_on_c, 13, 69, 0
15, 251280, Note_on_c, 13, 69, 84
15, 251379, Note_on_c, 13, 69, 0
15, 251400, Note_on_c, 13, 69, 84
15, 251499, Note_on_c, 13, 69, 0
15, 251520, Note_on_c, 13, 69, 84
15, 251619, Note_on_c, 13, 69, 0
15, 251640, Note_on_c, 13, 69, 84
15, 251739, Note_on_c, 13, 69, 0
15, 251760, Note_on_c, 13, 69, 84
15, 251859, Note_on_c, 13, 69, 0
15, 251880, Note_on_c, 13, 69, 84
15, 251979, Note_on_c, 13, 69, 0
15, 252000, Note_on_c, 13, 69, 84
15, 252099, Note_on_c, 13, 69, 0
15, 252120, Note_on_c, 13, 69, 84
15, 252219, Note_on_c, 13, 69, 0
15, 252240, Note_on_c, 13, 69, 84
15, 252339, Note_on_c, 13, 69, 0
15, 252360, Note_on_c, 13, 69, 84
15, 252459, Note_on_c, 13, 69, 0
15, 252480, Note_on_c, 13, 69, 84
15, 252719, Note_on_c, 13, 69, 0
15, 254040, Note_on_c, 13, 67, 76
15, 254139, Note_on_c, 13, 67, 0
15, 254160, Note_on_c, 13, 67, 76
15, 254259, Note_on_c, 13, 67, 0
15, 254280, Note_on_c, 13, 67, 76
15, 254379, Note_on_c, 13, 67, 0
15, 254400, Note_on_c, 13, 63, 76
15, 254859, Note_on_c, 13, 63, 0
15, 254880, Note_on_c, 13, 65, 76
15, 255339, Note_on_c, 13, 65, 0
15, 255360, Note_on_c, 13, 62, 76
15, 255939, Note_on_c, 13, 62, 0
15, 255960, Note_on_c, 13, 67, 76
15, 256059, Note_on_c, 13, 67, 0
15, 256080, Note_on_c, 13, 67, 76
15, 256179, Note_on_c, 13, 67, 0
15, 256200, Note_on_c, 13, 67, 76
15, 256299, Note_on_c, 13, 67, 0
15, 256320, Note_on_c, 13, 63, 76
15, 256779, Note_on_c, 13, 63, 0
15, 256800, Note_on_c, 13, 65, 76
15, 257259, Note_on_c, 13, 65, 0
15, 257280, Note_on_c, 13, 62, 76
15, 257859, Note_on_c, 13, 62, 0
15, 257880, Note_on_c, 13, 67, 76
15, 257979, Note_on_c, 13, 67, 0
15, 258000, Note_on_c, 13, 67, 76
15, 258099, Note_on_c, 13, 67, 0
15, 258120, Note_on_c, 13, 67, 76
15, 258219, Note_on_c, 13, 67, 0
15, 258240, Note_on_c, 13, 63, 76
15, 258459, Note_on_c, 13, 63, 0
15, 258480, Note_on_c, 13, 65, 76
15, 258699, Note_on_c, 13, 65, 0
15, 258720, Note_on_c, 13, 62, 76
15, 258939, Note_on_c, 13, 62, 0
15, 258960, Note_on_c, 13, 63, 76
15, 259179, Note_on_c, 13, 63, 0
15, 259200, Note_on_c, 13, 60, 76
15, 259419, Note_on_c, 13, 60, 0
15, 259440, Note_on_c, 13, 62, 76
15, 259659, Note_on_c, 13, 62, 0
15, 259680, Note_on_c, 13, 58, 76
15, 259899, Note_on_c, 13, 58, 0
15, 259920, Note_on_c, 13, 60, 76
15, 260139, Note_on_c, 13, 60, 0
15, 260160, Note_on_c, 13, 56, 76
15, 260379, Note_on_c, 13, 56, 0
15, 260400, Note_on_c, 13, 58, 76
15, 260619, Note_on_c, 13, 58, 0
15, 260640, Note_on_c, 13, 55, 76
15, 260859, Note_on_c, 13, 55, 0
15, 260880, Note_on_c, 13, 56, 76
15, 261099, Note_on_c, 13, 56, 0
15, 261120, Note_on_c, 13, 53, 76
15, 261339, Note_on_c, 13, 53, 0
15, 261360, Note_on_c, 13, 55, 76
15, 261579, Note_on_c, 13, 55, 0
15, 261600, Note_on_c, 13, 51, 76
15, 261819, Note_on_c, 13, 51, 0
15, 261840, Note_on_c, 13, 53, 76
15, 262059, Note_on_c, 13, 53, 0
15, 262080, Note_on_c, 13, 50, 76
15, 262299, Note_on_c, 13, 50, 0
15, 262320, Note_on_c, 13, 60, 76
15, 262539, Note_on_c, 13, 60, 0
15, 262560, Note_on_c, 13, 59, 76
15, 262779, Note_on_c, 13, 59, 0
15, 262800, Note_on_c, 13, 60, 76
15, 263019, Note_on_c, 13, 60, 0
15, 263040, Note_on_c, 13, 62, 76
15, 263259, Note_on_c, 13, 62, 0
15, 263280, Note_on_c, 13, 60, 76
15, 263499, Note_on_c, 13, 60, 0
15, 263520, Note_on_c, 13, 62, 76
15, 263739, Note_on_c, 13, 62, 0
15, 263760, Note_on_c, 13, 64, 76
15, 263979, Note_on_c, 13, 64, 0
15, 264000, Note_on_c, 13, 65, 76
15, 264219, Note_on_c, 13, 65, 0
15, 264240, Note_on_c, 13, 64, 76
15, 264459, Note_on_c, 13, 64, 0
15, 264480, Note_on_c, 13, 65, 76
15, 264699, Note_on_c, 13, 65, 0
15, 264720, Note_on_c, 13, 67, 76
15, 264939, Note_on_c, 13, 67, 0
15, 264960, Note_on_c, 13, 68, 76
15, 265179, Note_on_c, 13, 68, 0
15, 265200, Note_on_c, 13, 55, 76
15, 265419, Note_on_c, 13, 55, 0
15, 265440, Note_on_c, 13, 57, 76
15, 265659, Note_on_c, 13, 57, 0
15, 265680, Note_on_c, 13, 59, 76
15, 265899, Note_on_c, 13, 59, 0
15, 265920, Note_on_c, 13, 60, 76
15, 266379, Note_on_c, 13, 60, 0
15, 266400, Note_on_c, 13, 62, 76
15, 266579, Note_on_c, 13, 62, 0
15, 266640, Note_on_c, 13, 63, 76
15, 266819, Note_on_c, 13, 63, 0
15, 266880, Note_on_c, 13, 65, 84
15, 267119, Note_on_c, 13, 65, 0
15, 267120, Note_on_c, 13, 62, 76
15, 267339, Note_on_c, 13, 62, 0
15, 267360, Note_on_c, 13, 63, 76
15, 267539, Note_on_c, 13, 63, 0
15, 267600, Note_on_c, 13, 65, 76
15, 267779, Note_on_c, 13, 65, 0
15, 267840, Note_on_c, 13, 67, 76
15, 268079, Note_on_c, 13, 67, 0
15, 268080, Note_on_c, 13, 63, 76
15, 268299, Note_on_c, 13, 63, 0
15, 268320, Note_on_c, 13, 65, 76
15, 268499, Note_on_c, 13, 65, 0
15, 268560, Note_on_c, 13, 67, 76
15, 268739, Note_on_c, 13, 67, 0
15, 268800, Note_on_c, 13, 68, 76
15, 269039, Note_on_c, 13, 68, 0
15, 269040, Note_on_c, 13, 65, 76
15, 269259, Note_on_c, 13, 65, 0
15, 269280, Note_on_c, 13, 67, 76
15, 269459, Note_on_c, 13, 67, 0
15, 269520, Note_on_c, 13, 69, 76
15, 269699, Note_on_c, 13, 69, 0
15, 269760, Note_on_c, 13, 71, 76
15, 269999, Note_on_c, 13, 71, 0
15, 270000, Note_on_c, 13, 67, 76
15, 270219, Note_on_c, 13, 67, 0
15, 270240, Note_on_c, 13, 69, 76
15, 270419, Note_on_c, 13, 69, 0
15, 270480, Note_on_c, 13, 71, 76
15, 270659, Note_on_c, 13, 71, 0
15, 270720, Note_on_c, 13, 72, 76
15, 270959, Note_on_c, 13, 72, 0
15, 270960, Note_on_c, 13, 67, 76
15, 271179, Note_on_c, 13, 67, 0
15, 271200, Note_on_c, 13, 68, 76
15, 271379, Note_on_c, 13, 68, 0
15, 271440, Note_on_c, 13, 63, 76
15, 271619, Note_on_c, 13, 63, 0
15, 271680, Note_on_c, 13, 65, 76
15, 271859, Note_on_c, 13, 65, 0
15, 271920, Note_on_c, 13, 62, 76
15, 272099, Note_on_c, 13, 62, 0
15, 272160, Note_on_c, 13, 63, 76
15, 272339, Note_on_c, 13, 63, 0
15, 272400, Note_on_c, 13, 65, 76
15, 272579, Note_on_c, 13, 65, 0
15, 272640, Note_on_c, 13, 67, 76
15, 272819, Note_on_c, 13, 67, 0
15, 272880, Note_on_c, 13, 66, 76
15, 273059, Note_on_c, 13, 66, 0
15, 273120, Note_on_c, 13, 67, 76
15, 273299, Note_on_c, 13, 67, 0
15, 273360, Note_on_c, 13, 55, 76
15, 273539, Note_on_c, 13, 55, 0
15, 273600, Note_on_c, 13, 60, 76
15, 273779, Note_on_c, 13, 60, 0
15, 275040, Note_on_c, 13, 51, 76
15, 275219, Note_on_c, 13, 51, 0
15, 275280, Note_on_c, 13, 53, 76
15, 275459, Note_on_c, 13, 53, 0
15, 275520, Note_on_c, 13, 55, 76
15, 275759, Note_on_c, 13, 55, 0
15, 275760, Note_on_c, 13, 51, 76
15, 275999, Note_on_c, 13, 51, 0
15, 276960, Note_on_c, 13, 55, 76
15, 277139, Note_on_c, 13, 55, 0
15, 277200, Note_on_c, 13, 57, 76
15, 277379, Note_on_c, 13, 57, 0
15, 277440, Note_on_c, 13, 59, 76
15, 277679, Note_on_c, 13, 59, 0
15, 277680, Note_on_c, 13, 55, 76
15, 277919, Note_on_c, 13, 55, 0
15, 278880, Note_on_c, 13, 55, 76
15, 279059, Note_on_c, 13, 55, 0
15, 279120, Note_on_c, 13, 57, 76
15, 279299, Note_on_c, 13, 57, 0
15, 279360, Note_on_c, 13, 59, 76
15, 279599, Note_on_c, 13, 59, 0
15, 279600, Note_on_c, 13, 55, 76
15, 279839, Note_on_c, 13, 55, 0
15, 281760, Note_on_c, 13, 56, 84
15, 281760, Note_on_c, 13, 53, 84
15, 281999, Note_on_c, 13, 56, 0
15, 281999, Note_on_c, 13, 53, 0
15, 282000, Note_on_c, 13, 55, 76
15, 282000, Note_on_c, 13, 51, 76
15, 282239, Note_on_c, 13, 55, 0
15, 282239, Note_on_c, 13, 51, 0
15, 282720, Note_on_c, 13, 53, 76
15, 282959, Note_on_c, 13, 53, 0
15, 282960, Note_on_c, 13, 60, 76
15, 283179, Note_on_c, 13, 60, 0
15, 283200, Note_on_c, 13, 67, 76
15, 283200, Note_on_c, 13, 55, 76
15, 283439, Note_on_c, 13, 67, 0
15, 283439, Note_on_c, 13, 55, 0
15, 283680, Note_on_c, 13, 55, 76
15, 283919, Note_on_c, 13, 55, 0
15, 284160, Note_on_c, 13, 60, 76
15, 284399, Note_on_c, 13, 60, 0
15, 284400, Note_on_c, 13, 58, 76
15, 284639, Note_on_c, 13, 58, 0
15, 284640, Note_on_c, 13, 56, 76
15, 284879, Note_on_c, 13, 56, 0
15, 284880, Note_on_c, 13, 55, 76
15, 285119, Note_on_c, 13, 55, 0
15, 285120, Note_on_c, 13, 53, 76
15, 285359, Note_on_c, 13, 53, 0
15, 285360, Note_on_c, 13, 51, 76
15, 285599, Note_on_c, 13, 51, 0
15, 286080, Note_on_c, 13, 56, 76
15, 286080, Note_on_c, 13, 53, 76
15, 286319, Note_on_c, 13, 56, 0
15, 286319, Note_on_c, 13, 53, 0
15, 286320, Note_on_c, 13, 55, 76
15, 286320, Note_on_c, 13, 51, 76
15, 286539, Note_on_c, 13, 55, 0
15, 286539, Note_on_c, 13, 51, 0
15, 286560, Note_on_c, 13, 65, 76
15, 286799, Note_on_c, 13, 65, 0
15, 286800, Note_on_c, 13, 60, 76
15, 287019, Note_on_c, 13, 60, 0
15, 287040, Note_on_c, 13, 67, 76
15, 287040, Note_on_c, 13, 55, 76
15, 287279, Note_on_c, 13, 67, 0
15, 287279, Note_on_c, 13, 55, 0
15, 287520, Note_on_c, 13, 67, 76
15, 287520, Note_on_c, 13, 55, 76
15, 287759, Note_on_c, 13, 67, 0
15, 287759, Note_on_c, 13, 55, 0
15, 288000, Note_on_c, 13, 60, 76
15, 288000, Note_on_c, 13, 48, 76
15, 288099, Note_on_c, 13, 60, 0
15, 288099, Note_on_c, 13, 48, 0
15, 288120, Note_on_c, 13, 55, 76
15, 288219, Note_on_c, 13, 55, 0
15, 288240, Note_on_c, 13, 55, 76
15, 288339, Note_on_c, 13, 55, 0
15, 288360, Note_on_c, 13, 55, 76
15, 288459, Note_on_c, 13, 55, 0
15, 288480, Note_on_c, 13, 55, 76
15, 289439, Note_on_c, 13, 55, 0
15, 289440, Note_on_c, 13, 55, 76
15, 290499, Note_on_c, 13, 55, 0
15, 290520, Note_on_c, 13, 55, 76
15, 290619, Note_on_c, 13, 55, 0
15, 290640, Note_on_c, 13, 55, 76
15, 290739, Note_on_c, 13, 55, 0
15, 290760, Note_on_c, 13, 55, 76
15, 290859, Note_on_c, 13, 55, 0
15, 290880, Note_on_c, 13, 60, 76
15, 290979, Note_on_c, 13, 60, 0
15, 291000, Note_on_c, 13, 55, 76
15, 291099, Note_on_c, 13, 55, 0
15, 291120, Note_on_c, 13, 55, 76
15, 291219, Note_on_c, 13, 55, 0
15, 291240, Note_on_c, 13, 55, 76
15, 291339, Note_on_c, 13, 55, 0
15, 291360, Note_on_c, 13, 55, 76
15, 291459, Note_on_c, 13, 55, 0
15, 291480, Note_on_c, 13, 55, 76
15, 291579, Note_on_c, 13, 55, 0
15, 291600, Note_on_c, 13, 55, 76
15, 291699, Note_on_c, 13, 55, 0
15, 291720, Note_on_c, 13, 55, 76
15, 291819, Note_on_c, 13, 55, 0
15, 291840, Note_on_c, 13, 55, 76
15, 291939, Note_on_c, 13, 55, 0
15, 291960, Note_on_c, 13, 55, 76
15, 292059, Note_on_c, 13, 55, 0
15, 292080, Note_on_c, 13, 55, 76
15, 292179, Note_on_c, 13, 55, 0
15, 292200, Note_on_c, 13, 55, 76
15, 292299, Note_on_c, 13, 55, 0
15, 292320, Note_on_c, 13, 55, 76
15, 292419, Note_on_c, 13, 55, 0
15, 292440, Note_on_c, 13, 55, 76
15, 292539, Note_on_c, 13, 55, 0
15, 292560, Note_on_c, 13, 55, 76
15, 292659, Note_on_c, 13, 55, 0
15, 292680, Note_on_c, 13, 55, 76
15, 292779, Note_on_c, 13, 55, 0
15, 292800, Note_on_c, 13, 51, 84
15, 294239, Note_on_c, 13, 51, 0
15, 294360, Note_on_c, 13, 53, 84
15, 294459, Note_on_c, 13, 53, 0
15, 294480, Note_on_c, 13, 53, 84
15, 294579, Note_on_c, 13, 53, 0
15, 294600, Note_on_c, 13, 53, 84
15, 294699, Note_on_c, 13, 53, 0
15, 294720, Note_on_c, 13, 50, 84
15, 296639, Note_on_c, 13, 50, 0
15, 300600, Note_on_c, 13, 55, 84
15, 300699, Note_on_c, 13, 55, 0
15, 300720, Note_on_c, 13, 55, 84
15, 300819, Note_on_c, 13, 55, 0
15, 300840, Note_on_c, 13, 55, 84
15, 300939, Note_on_c, 13, 55, 0
15, 300960, Note_on_c, 13, 60, 84
15, 301199, Note_on_c, 13, 60, 0
15, 301560, Note_on_c, 13, 55, 84
15, 301659, Note_on_c, 13, 55, 0
15, 301680, Note_on_c, 13, 55, 84
15, 301779, Note_on_c, 13, 55, 0
15, 301800, Note_on_c, 13, 55, 84
15, 301899, Note_on_c, 13, 55, 0
15, 301920, Note_on_c, 13, 60, 84
15, 302159, Note_on_c, 13, 60, 0
15, 302520, Note_on_c, 13, 55, 84
15, 302619, Note_on_c, 13, 55, 0
15, 302640, Note_on_c, 13, 55, 84
15, 302739, Note_on_c, 13, 55, 0
15, 302760, Note_on_c, 13, 55, 84
15, 302859, Note_on_c, 13, 55, 0
15, 302880, Note_on_c, 13, 60, 84
15, 303099, Note_on_c, 13, 60, 0
15, 303120, Note_on_c, 13, 55, 84
15, 303339, Note_on_c, 13, 55, 0
15, 303360, Note_on_c, 13, 60, 84
15, 303579, Note_on_c, 13, 60, 0
15, 303600, Note_on_c, 13, 55, 84
15, 303819, Note_on_c, 13, 55, 0
15, 303840, Note_on_c, 13, 60, 84
15, 304059, Note_on_c, 13, 60, 0
15, 304080, Note_on_c, 13, 67, 84
15, 304299, Note_on_c, 13, 67, 0
15, 304320, Note_on_c, 13, 72, 84
15, 304539, Note_on_c, 13, 72, 0
15, 304560, Note_on_c, 13, 67, 84
15, 304779, Note_on_c, 13, 67, 0
15, 304800, Note_on_c, 13, 72, 84
15, 305039, Note_on_c, 13, 72, 0
15, 305280, Note_on_c, 13, 55, 84
15, 305519, Note_on_c, 13, 55, 0
15, 305760, Note_on_c, 13, 48, 84
15, 305999, Note_on_c, 13, 48, 0
15, 305999, End_track
16, 0, Start_track
16, 0, Title_t, "Cello"
16, 0, MIDI_port, 0
16, 0, Program_c, 14, 48
16, 0, Control_c, 14, 7, 96
16, 0, Control_c, 14, 10, 90
16, 0, Control_c, 14, 11, 127
16, 120, Note_on_c, 14, 43, 84
16, 219, Note_on_c, 14, 43, 0
16, 240, Note_on_c, 14, 43, 84
16, 339, Note_on_c, 14, 43, 0
16, 360, Note_on_c, 14, 43, 84
16, 459, Note_on_c, 14, 43, 0
16, 480, Note_on_c, 14, 39, 84
16, 959, Note_on_c, 14, 39, 0
16, 1080, Note_on_c, 14, 41, 84
16, 1179, Note_on_c, 14, 41, 0
16, 1200, Note_on_c, 14, 41, 84
16, 1299, Note_on_c, 14, 41, 0
16, 1320, Note_on_c, 14, 41, 84
16, 1419, Note_on_c, 14, 41, 0
16, 1440, Note_on_c, 14, 38, 84
16, 2399, Note_on_c, 14, 38, 0
16, 2880, Note_on_c, 14, 60, 52
16, 4779, Note_on_c, 14, 60, 0
16, 4800, Note_on_c, 14, 59, 52
16, 6699, Note_on_c, 14, 59, 0
16, 6720, Note_on_c, 14, 60, 52
16, 7179, Note_on_c, 14, 60, 0
16, 7200, Note_on_c, 14, 59, 52
16, 7659, Note_on_c, 14, 59, 0
16, 7680, Note_on_c, 14, 60, 52
16, 8139, Note_on_c, 14, 60, 0
16, 8160, Note_on_c, 14, 59, 52
16, 8259, Note_on_c, 14, 59, 0
16, 8280, Note_on_c, 14, 59, 58
16, 8379, Note_on_c, 14, 59, 0
16, 8400, Note_on_c, 14, 59, 64
16, 8499, Note_on_c, 14, 59, 0
16, 8520, Note_on_c, 14, 59, 70
16, 8619, Note_on_c, 14, 59, 0
16, 8640, Note_on_c, 14, 60, 76
16, 8879, Note_on_c, 14, 60, 0
16, 9120, Note_on_c, 14, 44, 76
16, 9359, Note_on_c, 14, 44, 0
16, 9600, Note_on_c, 14, 43, 76
16, 9839, Note_on_c, 14, 43, 0
16, 10200, Note_on_c, 14, 44, 84
16, 10299, Note_on_c, 14, 44, 0
16, 10320, Note_on_c, 14, 44, 84
16, 10419, Note_on_c, 14, 44, 0
16, 10440, Note_on_c, 14, 44, 84
16, 10539, Note_on_c, 14, 44, 0
16, 10560, Note_on_c, 14, 41, 84
16, 11519, Note_on_c, 14, 41, 0
16, 13080, Note_on_c, 14, 43, 52
16, 13179, Note_on_c, 14, 43, 0
16, 13200, Note_on_c, 14, 43, 52
16, 13299, Note_on_c, 14, 43, 0
16, 13320, Note_on_c, 14, 43, 52
16, 13419, Note_on_c, 14, 43, 0
16, 13440, Note_on_c, 14, 48, 52
16, 13679, Note_on_c, 14, 48, 0
16, 15000, Note_on_c, 14, 43, 52
16, 15099, Note_on_c, 14, 43, 0
16, 15120, Note_on_c, 14, 43, 52
16, 15219, Note_on_c, 14, 43, 0
16, 15240, Note_on_c, 14, 43, 52
16, 15339, Note_on_c, 14, 43, 0
16, 15360, Note_on_c, 14, 48, 52
16, 15599, Note_on_c, 14, 48, 0
16, 15960, Note_on_c, 14, 48, 53
16, 16059, Note_on_c, 14, 48, 0
16, 16080, Note_on_c, 14, 48, 54
16, 16179, Note_on_c, 14, 48, 0
16, 16200, Note_on_c, 14, 48, 55
16, 16299, Note_on_c, 14, 48, 0
16, 16320, Note_on_c, 14, 48, 56
16, 16559, Note_on_c, 14, 48, 0
16, 16920, Note_on_c, 14, 48, 61
16, 17019, Note_on_c, 14, 48, 0
16, 17040, Note_on_c, 14, 48, 62
16, 17139, Note_on_c, 14, 48, 0
16, 17160, Note_on_c, 14, 48, 63
16, 17259, Note_on_c, 14, 48, 0
16, 17280, Note_on_c, 14, 48, 64
16, 17519, Note_on_c, 14, 48, 0
16, 17760, Note_on_c, 14, 48, 76
16, 17999, Note_on_c, 14, 48, 0
16, 18240, Note_on_c, 14, 48, 76
16, 18479, Note_on_c, 14, 48, 0
16, 18720, Note_on_c, 14, 48, 76
16, 18959, Note_on_c, 14, 48, 0
16, 19200, Note_on_c, 14, 48, 76
16, 19439, Note_on_c, 14, 48, 0
16, 19680, Note_on_c, 14, 48, 76
16, 19919, Note_on_c, 14, 48, 0
16, 20160, Note_on_c, 14, 48, 76
16, 20399, Note_on_c, 14, 48, 0
16, 20640, Note_on_c, 14, 48, 76
16, 22179, Note_on_c, 14, 48, 0
16, 22200, Note_on_c, 14, 48, 76
16, 22299, Note_on_c, 14, 48, 0
16, 22320, Note_on_c, 14, 48, 76
16, 22419, Note_on_c, 14, 48, 0
16, 22440, Note_on_c, 14, 48, 76
16, 22539, Note_on_c, 14, 48, 0
16, 22560, Note_on_c, 14, 43, 76
16, 24099, Note_on_c, 14, 43, 0
16, 24120, Note_on_c, 14, 43, 76
16, 24219, Note_on_c, 14, 43, 0
16, 24240, Note_on_c, 14, 48, 76
16, 24339, Note_on_c, 14, 48, 0
16, 24360, Note_on_c, 14, 48, 76
16, 24459, Note_on_c, 14, 48, 0
16, 24480, Note_on_c, 14, 48, 84
16, 24579, Note_on_c, 14, 48, 0
16, 24600, Note_on_c, 14, 48, 84
16, 24699, Note_on_c, 14, 48, 0
16, 24720, Note_on_c, 14, 48, 84
16, 24819, Note_on_c, 14, 48, 0
16, 24840, Note_on_c, 14, 48, 84
16, 24939, Note_on_c, 14, 48, 0
16, 24960, Note_on_c, 14, 48, 84
16, 25059, Note_on_c, 14, 48, 0
16, 25080, Note_on_c, 14, 48, 84
16, 25179, Note_on_c, 14, 48, 0
16, 25200, Note_on_c, 14, 48, 84
16, 25299, Note_on_c, 14, 48, 0
16, 25320, Note_on_c, 14, 48, 84
16, 25419, Note_on_c, 14, 48, 0
16, 25440, Note_on_c, 14, 48, 84
16, 25539, Note_on_c, 14, 48, 0
16, 25560, Note_on_c, 14, 48, 84
16, 25659, Note_on_c, 14, 48, 0
16, 25680, Note_on_c, 14, 48, 84
16, 25779, Note_on_c, 14, 48, 0
16, 25800, Note_on_c, 14, 48, 84
16, 25899, Note_on_c, 14, 48, 0
16, 25920, Note_on_c, 14, 48, 84
16, 26019, Note_on_c, 14, 48, 0
16, 26040, Note_on_c, 14, 48, 84
16, 26139, Note_on_c, 14, 48, 0
16, 26160, Note_on_c, 14, 48, 84
16, 26259, Note_on_c, 14, 48, 0
16, 26280, Note_on_c, 14, 48, 84
16, 26379, Note_on_c, 14, 48, 0
16, 26400, Note_on_c, 14, 48, 84
16, 26639, Note_on_c, 14, 48, 0
16, 27360, Note_on_c, 14, 50, 84
16, 27599, Note_on_c, 14, 50, 0
16, 30840, Note_on_c, 14, 46, 52
16, 30939, Note_on_c, 14, 46, 0
16, 30960, Note_on_c, 14, 46, 52
16, 31059, Note_on_c, 14, 46, 0
16, 31080, Note_on_c, 14, 46, 52
16, 31179, Note_on_c, 14, 46, 0
16, 31200, Note_on_c, 14, 51, 52
16, 31439, Note_on_c, 14, 51, 0
16, 32760, Note_on_c, 14, 46, 52
16, 32859, Note_on_c, 14, 46, 0
16, 32880, Note_on_c, 14, 46, 52
16, 32979, Note_on_c, 14, 46, 0
16, 33000, Note_on_c, 14, 46, 52
16, 33099, Note_on_c, 14, 46, 0
16, 33120, Note_on_c, 14, 51, 52
16, 33359, Note_on_c, 14, 51, 0
16, 34680, Note_on_c, 14, 46, 52
16, 34779, Note_on_c, 14, 46, 0
16, 34800, Note_on_c, 14, 46, 52
16, 34899, Note_on_c, 14, 46, 0
16, 34920, Note_on_c, 14, 46, 52
16, 35019, Note_on_c, 14, 46, 0
16, 35040, Note_on_c, 14, 51, 52
16, 35279, Note_on_c, 14, 51, 0
16, 36600, Note_on_c, 14, 48, 52
16, 36699, Note_on_c, 14, 48, 0
16, 36720, Note_on_c, 14, 48, 52
16, 36819, Note_on_c, 14, 48, 0
16, 36840, Note_on_c, 14, 48, 52
16, 36939, Note_on_c, 14, 48, 0
16, 36960, Note_on_c, 14, 53, 52
16, 37199, Note_on_c, 14, 53, 0
16, 38520, Note_on_c, 14, 51, 52
16, 38619, Note_on_c, 14, 51, 0
16, 38640, Note_on_c, 14, 51, 52
16, 38739, Note_on_c, 14, 51, 0
16, 38760, Note_on_c, 14, 51, 52
16, 38859, Note_on_c, 14, 51, 0
16, 38880, Note_on_c, 14, 56, 52
16, 39119, Note_on_c, 14, 56, 0
16, 39358, Control_c, 14, 11, 64
16, 39360, Note_on_c, 14, 63, 84
16, 39599, Note_on_c, 14, 63, 0
16, 39600, Note_on_c, 14, 65, 84
16, 39839, Note_on_c, 14, 65, 0
16, 39840, Note_on_c, 14, 66, 84
16, 39840, Control_c, 14, 11, 64
16, 39940, Control_c, 14, 11, 65
16, 40040, Control_c, 14, 11, 67
16, 40079, Note_on_c, 14, 66, 0
16, 40080, Note_on_c, 14, 65, 84
16, 40140, Control_c, 14, 11, 68
16, 40240, Control_c, 14, 11, 69
16, 40319, Note_on_c, 14, 65, 0
16, 40320, Note_on_c, 14, 63, 84
16, 40340, Control_c, 14, 11, 71
16, 40440, Control_c, 14, 11, 72
16, 40540, Control_c, 14, 11, 73
16, 40559, Note_on_c, 14, 63, 0
16, 40560, Note_on_c, 14, 65, 84
16, 40640, Control_c, 14, 11, 75
16, 40740, Control_c, 14, 11, 76
16, 40779, Note_on_c, 14, 65, 0
16, 40800, Note_on_c, 14, 66, 84
16, 40840, Control_c, 14, 11, 77
16, 40940, Control_c, 14, 11, 78
16, 41039, Note_on_c, 14, 66, 0
16, 41040, Control_c, 14, 11, 80
16, 41040, Note_on_c, 14, 65, 84
16, 41140, Control_c, 14, 11, 81
16, 41240, Control_c, 14, 11, 82
16, 41279, Note_on_c, 14, 65, 0
16, 41280, Note_on_c, 14, 63, 84
16, 41340, Control_c, 14, 11, 84
16, 41440, Control_c, 14, 11, 85
16, 41519, Note_on_c, 14, 63, 0
16, 41520, Note_on_c, 14, 65, 84
16, 41540, Control_c, 14, 11, 86
16, 41640, Control_c, 14, 11, 88
16, 41739, Note_on_c, 14, 65, 0
16, 41740, Control_c, 14, 11, 89
16, 41760, Note_on_c, 14, 66, 84
16, 41840, Control_c, 14, 11, 90
16, 41940, Control_c, 14, 11, 92
16, 41999, Note_on_c, 14, 66, 0
16, 42000, Note_on_c, 14, 65, 84
16, 42040, Control_c, 14, 11, 93
16, 42140, Control_c, 14, 11, 94
16, 42239, Note_on_c, 14, 65, 0
16, 42240, Control_c, 14, 11, 96
16, 42240, Note_on_c, 14, 63, 84
16, 42340, Control_c, 14, 11, 97
16, 42440, Control_c, 14, 11, 98
16, 42479, Note_on_c, 14, 63, 0
16, 42480, Note_on_c, 14, 65, 84
16, 42540, Control_c, 14, 11, 99
16, 42640, Control_c, 14, 11, 101
16, 42699, Note_on_c, 14, 65, 0
16, 42720, Note_on_c, 14, 66, 84
16, 42740, Control_c, 14, 11, 102
16, 42840, Control_c, 14, 11, 103
16, 42940, Control_c, 14, 11, 105
16, 42959, Note_on_c, 14, 66, 0
16, 42960, Note_on_c, 14, 65, 84
16, 43040, Control_c, 14, 11, 106
16, 43140, Control_c, 14, 11, 107
16, 43199, Note_on_c, 14, 65, 0
16, 43200, Note_on_c, 14, 63, 84
16, 43240, Control_c, 14, 11, 109
16, 43340, Control_c, 14, 11, 110
16, 43439, Note_on_c, 14, 63, 0
16, 43440, Control_c, 14, 11, 111
16, 43440, Note_on_c, 14, 65, 84
16, 43540, Control_c, 14, 11, 113
16, 43640, Control_c, 14, 11, 114
16, 43679, Note_on_c, 14, 65, 0
16, 43680, Note_on_c, 14, 66, 84
16, 43740, Control_c, 14, 11, 115
16, 43840, Control_c, 14, 11, 117
16, 43919, Note_on_c, 14, 66, 0
16, 43920, Note_on_c, 14, 65, 84
16, 43940, Control_c, 14, 11, 118
16, 44040, Control_c, 14, 11, 119
16, 44140, Control_c, 14, 11, 120
16, 44159, Note_on_c, 14, 65, 0
16, 44160, Note_on_c, 14, 66, 84
16, 44240, Control_c, 14, 11, 122
16, 44340, Control_c, 14, 11, 123
16, 44399, Note_on_c, 14, 66, 0
16, 44400, Note_on_c, 14, 60, 84
16, 44440, Control_c, 14, 11, 124
16, 44540, Control_c, 14, 11, 127
16, 44619, Note_on_c, 14, 60, 0
16, 44640, Note_on_c, 14, 62, 84
16, 45339, Note_on_c, 14, 62, 0
16, 45360, Note_on_c, 14, 50, 84
16, 45579, Note_on_c, 14, 50, 0
16, 45600, Note_on_c, 14, 51, 84
16, 45839, Note_on_c, 14, 51, 0
16, 46080, Note_on_c, 14, 53, 84
16, 46319, Note_on_c, 14, 53, 0
16, 46560, Note_on_c, 14, 55, 84
16, 46799, Note_on_c, 14, 55, 0
16, 47040, Note_on_c, 14, 56, 84
16, 47279, Note_on_c, 14, 56, 0
16, 47520, Note_on_c, 14, 58, 84
16, 47759, Note_on_c, 14, 58, 0
16, 48000, Note_on_c, 14, 46, 84
16, 48239, Note_on_c, 14, 46, 0
16, 48480, Note_on_c, 14, 50, 84
16, 48699, Note_on_c, 14, 50, 0
16, 48720, Note_on_c, 14, 53, 84
16, 48939, Note_on_c, 14, 53, 0
16, 48960, Note_on_c, 14, 50, 84
16, 49179, Note_on_c, 14, 50, 0
16, 49200, Note_on_c, 14, 53, 84
16, 49419, Note_on_c, 14, 53, 0
16, 49440, Note_on_c, 14, 51, 84
16, 49659, Note_on_c, 14, 51, 0
16, 49680, Note_on_c, 14, 55, 84
16, 49899, Note_on_c, 14, 55, 0
16, 49920, Note_on_c, 14, 53, 84
16, 50139, Note_on_c, 14, 53, 0
16, 50160, Note_on_c, 14, 56, 84
16, 50379, Note_on_c, 14, 56, 0
16, 50400, Note_on_c, 14, 55, 84
16, 50619, Note_on_c, 14, 55, 0
16, 50640, Note_on_c, 14, 58, 84
16, 50859, Note_on_c, 14, 58, 0
16, 50880, Note_on_c, 14, 56, 84
16, 51099, Note_on_c, 14, 56, 0
16, 51120, Note_on_c, 14, 60, 84
16, 51339, Note_on_c, 14, 60, 0
16, 51360, Note_on_c, 14, 58, 84
16, 51579, Note_on_c, 14, 58, 0
16, 51600, Note_on_c, 14, 46, 84
16, 51819, Note_on_c, 14, 46, 0
16, 51840, Note_on_c, 14, 58, 84
16, 52059, Note_on_c, 14, 58, 0
16, 52080, Note_on_c, 14, 46, 84
16, 52299, Note_on_c, 14, 46, 0
16, 52320, Note_on_c, 14, 51, 84
16, 53859, Note_on_c, 14, 51, 0
16, 53880, Note_on_c, 14, 46, 84
16, 53979, Note_on_c, 14, 46, 0
16, 54000, Note_on_c, 14, 46, 84
16, 54099, Note_on_c, 14, 46, 0
16, 54120, Note_on_c, 14, 46, 84
16, 54219, Note_on_c, 14, 46, 0
16, 54240, Note_on_c, 14, 51, 84
16, 55779, Note_on_c, 14, 51, 0
16, 55800, Note_on_c, 14, 46, 84
16, 55899, Note_on_c, 14, 46, 0
16, 55920, Note_on_c, 14, 46, 84
16, 56019, Note_on_c, 14, 46, 0
16, 56040, Note_on_c, 14, 46, 84
16, 56139, Note_on_c, 14, 46, 0
16, 56160, Note_on_c, 14, 51, 84
16, 56399, Note_on_c, 14, 51, 0
16, 56760, Note_on_c, 14, 46, 84
16, 56859, Note_on_c, 14, 46, 0
16, 56880, Note_on_c, 14, 46, 84
16, 56979, Note_on_c, 14, 46, 0
16, 57000, Note_on_c, 14, 46, 84
16, 57099, Note_on_c, 14, 46, 0
16, 57120, Note_on_c, 14, 51, 84
16, 57359, Note_on_c, 14, 51, 0
16, 57720, Note_on_c, 14, 46, 84
16, 57819, Note_on_c, 14, 46, 0
16, 57840, Note_on_c, 14, 46, 84
16, 57939, Note_on_c, 14, 46, 0
16, 57960, Note_on_c, 14, 46, 84
16, 58059, Note_on_c, 14, 46, 0
16, 58080, Note_on_c, 14, 51, 84
16, 58319, Note_on_c, 14, 51, 0
16, 59640, Note_on_c, 14, 43, 84
16, 59739, Note_on_c, 14, 43, 0
16, 59760, Note_on_c, 14, 43, 84
16, 59859, Note_on_c, 14, 43, 0
16, 59880, Note_on_c, 14, 43, 84
16, 59979, Note_on_c, 14, 43, 0
16, 60000, Note_on_c, 14, 39, 84
16, 60479, Note_on_c, 14, 39, 0
16, 60600, Note_on_c, 14, 41, 84
16, 60699, Note_on_c, 14, 41, 0
16, 60720, Note_on_c, 14, 41, 84
16, 60819, Note_on_c, 14, 41, 0
16, 60840, Note_on_c, 14, 41, 84
16, 60939, Note_on_c, 14, 41, 0
16, 60960, Note_on_c, 14, 38, 84
16, 61919, Note_on_c, 14, 38, 0
16, 62400, Note_on_c, 14, 60, 52
16, 64299, Note_on_c, 14, 60, 0
16, 64320, Note_on_c, 14, 59, 52
16, 66219, Note_on_c, 14, 59, 0
16, 66240, Note_on_c, 14, 60, 52
16, 66699, Note_on_c, 14, 60, 0
16, 66720, Note_on_c, 14, 59, 52
16, 67179, Note_on_c, 14, 59, 0
16, 67200, Note_on_c, 14, 60, 52
16, 67659, Note_on_c, 14, 60, 0
16, 67680, Note_on_c, 14, 59, 52
16, 67779, Note_on_c, 14, 59, 0
16, 67800, Note_on_c, 14, 59, 58
16, 67899, Note_on_c, 14, 59, 0
16, 67920, Note_on_c, 14, 59, 64
16, 68019, Note_on_c, 14, 59, 0
16, 68040, Note_on_c, 14, 59, 70
16, 68139, Note_on_c, 14, 59, 0
16, 68160, Note_on_c, 14, 60, 76
16, 68399, Note_on_c, 14, 60, 0
16, 68640, Note_on_c, 14, 44, 76
16, 68879, Note_on_c, 14, 44, 0
16, 69120, Note_on_c, 14, 43, 76
16, 69359, Note_on_c, 14, 43, 0
16, 69720, Note_on_c, 14, 44, 84
16, 69819, Note_on_c, 14, 44, 0
16, 69840, Note_on_c, 14, 44, 84
16, 69939, Note_on_c, 14, 44, 0
16, 69960, Note_on_c, 14, 44, 84
16, 70059, Note_on_c, 14, 44, 0
16, 70080, Note_on_c, 14, 41, 84
16, 71039, Note_on_c, 14, 41, 0
16, 72600, Note_on_c, 14, 43, 52
16, 72699, Note_on_c, 14, 43, 0
16, 72720, Note_on_c, 14, 43, 52
16, 72819, Note_on_c, 14, 43, 0
16, 72840, Note_on_c, 14, 43, 52
16, 72939, Note_on_c, 14, 43, 0
16, 72960, Note_on_c, 14, 48, 52
16, 73199, Note_on_c, 14, 48, 0
16, 74520, Note_on_c, 14, 43, 52
16, 74619, Note_on_c, 14, 43, 0
16, 74640, Note_on_c, 14, 43, 52
16, 74739, Note_on_c, 14, 43, 0
16, 74760, Note_on_c, 14, 43, 52
16, 74859, Note_on_c, 14, 43, 0
16, 74880, Note_on_c, 14, 48, 52
16, 75119, Note_on_c, 14, 48, 0
16, 75480, Note_on_c, 14, 48, 53
16, 75579, Note_on_c, 14, 48, 0
16, 75600, Note_on_c, 14, 48, 54
16, 75699, Note_on_c, 14, 48, 0
16, 75720, Note_on_c, 14, 48, 55
16, 75819, Note_on_c, 14, 48, 0
16, 75840, Note_on_c, 14, 48, 56
16, 76079, Note_on_c, 14, 48, 0
16, 76440, Note_on_c, 14, 48, 61
16, 76539, Note_on_c, 14, 48, 0
16, 76560, Note_on_c, 14, 48, 62
16, 76659, Note_on_c, 14, 48, 0
16, 76680, Note_on_c, 14, 48, 63
16, 76779, Note_on_c, 14, 48, 0
16, 76800, Note_on_c, 14, 48, 64
16, 77039, Note_on_c, 14, 48, 0
16, 77280, Note_on_c, 14, 48, 76
16, 77519, Note_on_c, 14, 48, 0
16, 77760, Note_on_c, 14, 48, 76
16, 77999, Note_on_c, 14, 48, 0
16, 78240, Note_on_c, 14, 48, 76
16, 78479, Note_on_c, 14, 48, 0
16, 78720, Note_on_c, 14, 48, 76
16, 78959, Note_on_c, 14, 48, 0
16, 79200, Note_on_c, 14, 48, 76
16, 79439, Note_on_c, 14, 48, 0
16, 79680, Note_on_c, 14, 48, 76
16, 79919, Note_on_c, 14, 48, 0
16, 80160, Note_on_c, 14, 48, 76
16, 81699, Note_on_c, 14, 48, 0
16, 81720, Note_on_c, 14, 48, 76
16, 81819, Note_on_c, 14, 48, 0
16, 81840, Note_on_c, 14, 48, 76
16, 81939, Note_on_c, 14, 48, 0
16, 81960, Note_on_c, 14, 48, 76
16, 82059, Note_on_c, 14, 48, 0
16, 82080, Note_on_c, 14, 43, 76
16, 83619, Note_on_c, 14, 43, 0
16, 83640, Note_on_c, 14, 43, 76
16, 83739, Note_on_c, 14, 43, 0
16, 83760, Note_on_c, 14, 48, 76
16, 83859, Note_on_c, 14, 48, 0
16, 83880, Note_on_c, 14, 48, 76
16, 83979, Note_on_c, 14, 48, 0
16, 84000, Note_on_c, 14, 48, 84
16, 84099, Note_on_c, 14, 48, 0
16, 84120, Note_on_c, 14, 48, 84
16, 84219, Note_on_c, 14, 48, 0
16, 84240, Note_on_c, 14, 48, 84
16, 84339, Note_on_c, 14, 48, 0
16, 84360, Note_on_c, 14, 48, 84
16, 84459, Note_on_c, 14, 48, 0
16, 84480, Note_on_c, 14, 48, 84
16, 84579, Note_on_c, 14, 48, 0
16, 84600, Note_on_c, 14, 48, 84
16, 84699, Note_on_c, 14, 48, 0
16, 84720, Note_on_c, 14, 48, 84
16, 84819, Note_on_c, 14, 48, 0
16, 84840, Note_on_c, 14, 48, 84
16, 84939, Note_on_c, 14, 48, 0
16, 84960, Note_on_c, 14, 48, 84
16, 85059, Note_on_c, 14, 48, 0
16, 85080, Note_on_c, 14, 48, 84
16, 85179, Note_on_c, 14, 48, 0
16, 85200, Note_on_c, 14, 48, 84
16, 85299, Note_on_c, 14, 48, 0
16, 85320, Note_on_c, 14, 48, 84
16, 85419, Note_on_c, 14, 48, 0
16, 85440, Note_on_c, 14, 48, 84
16, 85539, Note_on_c, 14, 48, 0
16, 85560, Note_on_c, 14, 48, 84
16, 85659, Note_on_c, 14, 48, 0
16, 85680, Note_on_c, 14, 48, 84
16, 85779, Note_on_c, 14, 48, 0
16, 85800, Note_on_c, 14, 48, 84
16, 85899, Note_on_c, 14, 48, 0
16, 85920, Note_on_c, 14, 48, 84
16, 86159, Note_on_c, 14, 48, 0
16, 86880, Note_on_c, 14, 50, 84
16, 87119, Note_on_c, 14, 50, 0
16, 90360, Note_on_c, 14, 46, 52
16, 90459, Note_on_c, 14, 46, 0
16, 90480, Note_on_c, 14, 46, 52
16, 90579, Note_on_c, 14, 46, 0
16, 90600, Note_on_c, 14, 46, 52
16, 90699, Note_on_c, 14, 46, 0
16, 90720, Note_on_c, 14, 51, 52
16, 90959, Note_on_c, 14, 51, 0
16, 92280, Note_on_c, 14, 46, 52
16, 92379, Note_on_c, 14, 46, 0
16, 92400, Note_on_c, 14, 46, 52
16, 92499, Note_on_c, 14, 46, 0
16, 92520, Note_on_c, 14, 46, 52
16, 92619, Note_on_c, 14, 46, 0
16, 92640, Note_on_c, 14, 51, 52
16, 92879, Note_on_c, 14, 51, 0
16, 94200, Note_on_c, 14, 46, 52
16, 94299, Note_on_c, 14, 46, 0
16, 94320, Note_on_c, 14, 46, 52
16, 94419, Note_on_c, 14, 46, 0
16, 94440, Note_on_c, 14, 46, 52
16, 94539, Note_on_c, 14, 46, 0
16, 94560, Note_on_c, 14, 51, 52
16, 94799, Note_on_c, 14, 51, 0
16, 96120, Note_on_c, 14, 48, 52
16, 96219, Note_on_c, 14, 48, 0
16, 96240, Note_on_c, 14, 48, 52
16, 96339, Note_on_c, 14, 48, 0
16, 96360, Note_on_c, 14, 48, 52
16, 96459, Note_on_c, 14, 48, 0
16, 96480, Note_on_c, 14, 53, 52
16, 96719, Note_on_c, 14, 53, 0
16, 98040, Note_on_c, 14, 51, 52
16, 98139, Note_on_c, 14, 51, 0
16, 98160, Note_on_c, 14, 51, 52
16, 98259, Note_on_c, 14, 51, 0
16, 98280, Note_on_c, 14, 51, 52
16, 98379, Note_on_c, 14, 51, 0
16, 98400, Note_on_c, 14, 56, 52
16, 98639, Note_on_c, 14, 56, 0
16, 98878, Control_c, 14, 11, 64
16, 98880, Note_on_c, 14, 63, 84
16, 99119, Note_on_c, 14, 63, 0
16, 99120, Note_on_c, 14, 65, 84
16, 99359, Note_on_c, 14, 65, 0
16, 99360, Control_c, 14, 11, 64
16, 99360, Note_on_c, 14, 66, 84
16, 99460, Control_c, 14, 11, 65
16, 99560, Control_c, 14, 11, 67
16, 99599, Note_on_c, 14, 66, 0
16, 99600, Note_on_c, 14, 65, 84
16, 99660, Control_c, 14, 11, 68
16, 99760, Control_c, 14, 11, 69
16, 99839, Note_on_c, 14, 65, 0
16, 99840, Note_on_c, 14, 63, 84
16, 99860, Control_c, 14, 11, 71
16, 99960, Control_c, 14, 11, 72
16, 100060, Control_c, 14, 11, 73
16, 100079, Note_on_c, 14, 63, 0
16, 100080, Note_on_c, 14, 65, 84
16, 100160, Control_c, 14, 11, 75
16, 100260, Control_c, 14, 11, 76
16, 100299, Note_on_c, 14, 65, 0
16, 100320, Note_on_c, 14, 66, 84
16, 100360, Control_c, 14, 11, 77
16, 100460, Control_c, 14, 11, 78
16, 100559, Note_on_c, 14, 66, 0
16, 100560, Control_c, 14, 11, 80
16, 100560, Note_on_c, 14, 65, 84
16, 100660, Control_c, 14, 11, 81
16, 100760, Control_c, 14, 11, 82
16, 100799, Note_on_c, 14, 65, 0
16, 100800, Note_on_c, 14, 63, 84
16, 100860, Control_c, 14, 11, 84
16, 100960, Control_c, 14, 11, 85
16, 101039, Note_on_c, 14, 63, 0
16, 101040, Note_on_c, 14, 65, 84
16, 101060, Control_c, 14, 11, 86
16, 101160, Control_c, 14, 11, 88
16, 101259, Note_on_c, 14, 65, 0
16, 101260, Control_c, 14, 11, 89
16, 101280, Note_on_c, 14, 66, 84
16, 101360, Control_c, 14, 11, 90
16, 101460, Control_c, 14, 11, 92
16, 101519, Note_on_c, 14, 66, 0
16, 101520, Note_on_c, 14, 65, 84
16, 101560, Control_c, 14, 11, 93
16, 101660, Control_c, 14, 11, 94
16, 101759, Note_on_c, 14, 65, 0
16, 101760, Note_on_c, 14, 63, 84
16, 101760, Control_c, 14, 11, 96
16, 101860, Control_c, 14, 11, 97
16, 101960, Control_c, 14, 11, 98
16, 101999, Note_on_c, 14, 63, 0
16, 102000, Note_on_c, 14, 65, 84
16, 102060, Control_c, 14, 11, 99
16, 102160, Control_c, 14, 11, 101
16, 102219, Note_on_c, 14, 65, 0
16, 102240, Note_on_c, 14, 66, 84
16, 102260, Control_c, 14, 11, 102
16, 102360, Control_c, 14, 11, 103
16, 102460, Control_c, 14, 11, 105
16, 102479, Note_on_c, 14, 66, 0
16, 102480, Note_on_c, 14, 65, 84
16, 102560, Control_c, 14, 11, 106
16, 102660, Control_c, 14, 11, 107
16, 102719, Note_on_c, 14, 65, 0
16, 102720, Note_on_c, 14, 63, 84
16, 102760, Control_c, 14, 11, 109
16, 102860, Control_c, 14, 11, 110
16, 102959, Note_on_c, 14, 63, 0
16, 102960, Note_on_c, 14, 65, 84
16, 102960, Control_c, 14, 11, 111
16, 103060, Control_c, 14, 11, 113
16, 103160, Control_c, 14, 11, 114
16, 103199, Note_on_c, 14, 65, 0
16, 103200, Note_on_c, 14, 66, 84
16, 103260, Control_c, 14, 11, 115
16, 103360, Control_c, 14, 11, 117
16, 103439, Note_on_c, 14, 66, 0
16, 103440, Note_on_c, 14, 65, 84
16, 103460, Control_c, 14, 11, 118
16, 103560, Control_c, 14, 11, 119
16, 103660, Control_c, 14, 11, 120
16, 103679, Note_on_c, 14, 65, 0
16, 103680, Note_on_c, 14, 66, 84
16, 103760, Control_c, 14, 11, 122
16, 103860, Control_c, 14, 11, 123
16, 103919, Note_on_c, 14, 66, 0
16, 103920, Note_on_c, 14, 60, 84
16, 103960, Control_c, 14, 11, 124
16, 104060, Control_c, 14, 11, 127
16, 104139, Note_on_c, 14, 60, 0
16, 104160, Note_on_c, 14, 62, 84
16, 104859, Note_on_c, 14, 62, 0
16, 104880, Note_on_c, 14, 50, 84
16, 105099, Note_on_c, 14, 50, 0
16, 105120, Note_on_c, 14, 51, 84
16, 105359, Note_on_c, 14, 51, 0
16, 105600, Note_on_c, 14, 53, 84
16, 105839, Note_on_c, 14, 53, 0
16, 106080, Note_on_c, 14, 55, 84
16, 106319, Note_on_c, 14, 55, 0
16, 106560, Note_on_c, 14, 56, 84
16, 106799, Note_on_c, 14, 56, 0
16, 107040, Note_on_c, 14, 58, 84
16, 107279, Note_on_c, 14, 58, 0
16, 107520, Note_on_c, 14, 46, 84
16, 107759, Note_on_c, 14, 46, 0
16, 108000, Note_on_c, 14, 50, 84
16, 108219, Note_on_c, 14, 50, 0
16, 108240, Note_on_c, 14, 53, 84
16, 108459, Note_on_c, 14, 53, 0
16, 108480, Note_on_c, 14, 50, 84
16, 108699, Note_on_c, 14, 50, 0
16, 108720, Note_on_c, 14, 53, 84
16, 108939, Note_on_c, 14, 53, 0
16, 108960, Note_on_c, 14, 51, 84
16, 109179, Note_on_c, 14, 51, 0
16, 109200, Note_on_c, 14, 55, 84
16, 109419, Note_on_c, 14, 55, 0
16, 109440, Note_on_c, 14, 53, 84
16, 109659, Note_on_c, 14, 53, 0
16, 109680, Note_on_c, 14, 56, 84
16, 109899, Note_on_c, 14, 56, 0
16, 109920, Note_on_c, 14, 55, 84
16, 110139, Note_on_c, 14, 55, 0
16, 110160, Note_on_c, 14, 58, 84
16, 110379, Note_on_c, 14, 58, 0
16, 110400, Note_on_c, 14, 56, 84
16, 110619, Note_on_c, 14, 56, 0
16, 110640, Note_on_c, 14, 60, 84
16, 110859, Note_on_c, 14, 60, 0
16, 110880, Note_on_c, 14, 58, 84
16, 111099, Note_on_c, 14, 58, 0
16, 111120, Note_on_c, 14, 46, 84
16, 111339, Note_on_c, 14, 46, 0
16, 111360, Note_on_c, 14, 58, 84
16, 111579, Note_on_c, 14, 58, 0
16, 111600, Note_on_c, 14, 46, 84
16, 111819, Note_on_c, 14, 46, 0
16, 111840, Note_on_c, 14, 51, 84
16, 113379, Note_on_c, 14, 51, 0
16, 113400, Note_on_c, 14, 46, 84
16, 113499, Note_on_c, 14, 46, 0
16, 113520, Note_on_c, 14, 46, 84
16, 113619, Note_on_c, 14, 46, 0
16, 113640, Note_on_c, 14, 46, 84
16, 113739, Note_on_c, 14, 46, 0
16, 113760, Note_on_c, 14, 51, 84
16, 115299, Note_on_c, 14, 51, 0
16, 115320, Note_on_c, 14, 46, 84
16, 115419, Note_on_c, 14, 46, 0
16, 115440, Note_on_c, 14, 46, 84
16, 115539, Note_on_c, 14, 46, 0
16, 115560, Note_on_c, 14, 46, 84
16, 115659, Note_on_c, 14, 46, 0
16, 115680, Note_on_c, 14, 51, 84
16, 115919, Note_on_c, 14, 51, 0
16, 116280, Note_on_c, 14, 46, 84
16, 116379, Note_on_c, 14, 46, 0
16, 116400, Note_on_c, 14, 46, 84
16, 116499, Note_on_c, 14, 46, 0
16, 116520, Note_on_c, 14, 46, 84
16, 116619, Note_on_c, 14, 46, 0
16, 116640, Note_on_c, 14, 51, 84
16, 116879, Note_on_c, 14, 51, 0
16, 117240, Note_on_c, 14, 46, 84
16, 117339, Note_on_c, 14, 46, 0
16, 117360, Note_on_c, 14, 46, 84
16, 117459, Note_on_c, 14, 46, 0
16, 117480, Note_on_c, 14, 46, 84
16, 117579, Note_on_c, 14, 46, 0
16, 117600, Note_on_c, 14, 51, 84
16, 117839, Note_on_c, 14, 51, 0
16, 119640, Note_on_c, 14, 37, 84
16, 119739, Note_on_c, 14, 37, 0
16, 119760, Note_on_c, 14, 37, 84
16, 119859, Note_on_c, 14, 37, 0
16, 119880, Note_on_c, 14, 37, 84
16, 119979, Note_on_c, 14, 37, 0
16, 120000, Note_on_c, 14, 36, 84
16, 120959, Note_on_c, 14, 36, 0
16, 121440, Note_on_c, 14, 60, 52
16, 122499, Note_on_c, 14, 60, 0
16, 122520, Note_on_c, 14, 61, 52
16, 122619, Note_on_c, 14, 61, 0
16, 122640, Note_on_c, 14, 61, 52
16, 122739, Note_on_c, 14, 61, 0
16, 122760, Note_on_c, 14, 61, 52
16, 122859, Note_on_c, 14, 61, 0
16, 122880, Note_on_c, 14, 60, 52
16, 124419, Note_on_c, 14, 60, 0
16, 124440, Note_on_c, 14, 61, 52
16, 124539, Note_on_c, 14, 61, 0
16, 124560, Note_on_c, 14, 61, 52
16, 124659, Note_on_c, 14, 61, 0
16, 124680, Note_on_c, 14, 61, 52
16, 124779, Note_on_c, 14, 61, 0
16, 124798, Control_c, 14, 11, 96
16, 124800, Note_on_c, 14, 60, 68
16, 126239, Note_on_c, 14, 60, 0
16, 126240, Note_on_c, 14, 60, 68
16, 127200, Control_c, 14, 11, 96
16, 127260, Control_c, 14, 11, 97
16, 127320, Control_c, 14, 11, 99
16, 127380, Control_c, 14, 11, 100
16, 127440, Control_c, 14, 11, 101
16, 127500, Control_c, 14, 11, 102
16, 127560, Control_c, 14, 11, 104
16, 127620, Control_c, 14, 11, 105
16, 127679, Note_on_c, 14, 60, 0
16, 127680, Control_c, 14, 11, 106
16, 127680, Note_on_c, 14, 62, 68
16, 127740, Control_c, 14, 11, 108
16, 127800, Control_c, 14, 11, 109
16, 127860, Control_c, 14, 11, 110
16, 127919, Note_on_c, 14, 62, 0
16, 127920, Note_on_c, 14, 63, 68
16, 127920, Control_c, 14, 11, 112
16, 127980, Control_c, 14, 11, 113
16, 128040, Control_c, 14, 11, 114
16, 128100, Control_c, 14, 11, 115
16, 128159, Note_on_c, 14, 63, 0
16, 128160, Note_on_c, 14, 65, 68
16, 128160, Control_c, 14, 11, 117
16, 128220, Control_c, 14, 11, 118
16, 128280, Control_c, 14, 11, 119
16, 128340, Control_c, 14, 11, 121
16, 128399, Note_on_c, 14, 65, 0
16, 128400, Note_on_c, 14, 66, 68
16, 128400, Control_c, 14, 11, 122
16, 128460, Control_c, 14, 11, 123
16, 128520, Control_c, 14, 11, 124
16, 128580, Control_c, 14, 11, 127
16, 128619, Note_on_c, 14, 66, 0
16, 128640, Note_on_c, 14, 67, 52
16, 128739, Note_on_c, 14, 67, 0
16, 128760, Note_on_c, 14, 67, 52
16, 128859, Note_on_c, 14, 67, 0
16, 128880, Note_on_c, 14, 67, 52
16, 128979, Note_on_c, 14, 67, 0
16, 129000, Note_on_c, 14, 65, 52
16, 129099, Note_on_c, 14, 65, 0
16, 129120, Note_on_c, 14, 63, 52
16, 129579, Note_on_c, 14, 63, 0
16, 129600, Note_on_c, 14, 62, 52
16, 129699, Note_on_c, 14, 62, 0
16, 129720, Note_on_c, 14, 67, 52
16, 129819, Note_on_c, 14, 67, 0
16, 129840, Note_on_c, 14, 67, 52
16, 129939, Note_on_c, 14, 67, 0
16, 129960, Note_on_c, 14, 65, 52
16, 130059, Note_on_c, 14, 65, 0
16, 130080, Note_on_c, 14, 63, 52
16, 130539, Note_on_c, 14, 63, 0
16, 130560, Note_on_c, 14, 62, 52
16, 130659, Note_on_c, 14, 62, 0
16, 130680, Note_on_c, 14, 67, 52
16, 130779, Note_on_c, 14, 67, 0
16, 130800, Note_on_c, 14, 67, 52
16, 130899, Note_on_c, 14, 67, 0
16, 130920, Note_on_c, 14, 65, 52
16, 131019, Note_on_c, 14, 65, 0
16, 131040, Note_on_c, 14, 63, 52
16, 131139, Note_on_c, 14, 63, 0
16, 131160, Note_on_c, 14, 63, 53
16, 131259, Note_on_c, 14, 63, 0
16, 131280, Note_on_c, 14, 63, 54
16, 131379, Note_on_c, 14, 63, 0
16, 131400, Note_on_c, 14, 62, 56
16, 131499, Note_on_c, 14, 62, 0
16, 131520, Note_on_c, 14, 60, 57
16, 131619, Note_on_c, 14, 60, 0
16, 131640, Note_on_c, 14, 60, 58
16, 131739, Note_on_c, 14, 60, 0
16, 131760, Note_on_c, 14, 60, 60
16, 131859, Note_on_c, 14, 60, 0
16, 131880, Note_on_c, 14, 58, 61
16, 131979, Note_on_c, 14, 58, 0
16, 132000, Note_on_c, 14, 57, 62
16, 132099, Note_on_c, 14, 57, 0
16, 132120, Note_on_c, 14, 57, 64
16, 132219, Note_on_c, 14, 57, 0
16, 132240, Note_on_c, 14, 57, 65
16, 132339, Note_on_c, 14, 57, 0
16, 132360, Note_on_c, 14, 55, 66
16, 132459, Note_on_c, 14, 55, 0
16, 132480, Note_on_c, 14, 54, 52
16, 132719, Note_on_c, 14, 54, 0
16, 133080, Note_on_c, 14, 58, 52
16, 133179, Note_on_c, 14, 58, 0
16, 133200, Note_on_c, 14, 58, 52
16, 133299, Note_on_c, 14, 58, 0
16, 133320, Note_on_c, 14, 60, 52
16, 133419, Note_on_c, 14, 60, 0
16, 133440, Note_on_c, 14, 62, 52
16, 134019, Note_on_c, 14, 62, 0
16, 134040, Note_on_c, 14, 58, 52
16, 134139, Note_on_c, 14, 58, 0
16, 134160, Note_on_c, 14, 58, 52
16, 134259, Note_on_c, 14, 58, 0
16, 134280, Note_on_c, 14, 60, 52
16, 134379, Note_on_c, 14, 60, 0
16, 134400, Note_on_c, 14, 62, 52
16, 134499, Note_on_c, 14, 62, 0
16, 134520, Note_on_c, 14, 62, 52
16, 134619, Note_on_c, 14, 62, 0
16, 134640, Note_on_c, 14, 62, 52
16, 134739, Note_on_c, 14, 62, 0
16, 134760, Note_on_c, 14, 60, 52
16, 134859, Note_on_c, 14, 60, 0
16, 134880, Note_on_c, 14, 58, 52
16, 134979, Note_on_c, 14, 58, 0
16, 135000, Note_on_c, 14, 58, 52
16, 135099, Note_on_c, 14, 58, 0
16, 135120, Note_on_c, 14, 58, 52
16, 135219, Note_on_c, 14, 58, 0
16, 135240, Note_on_c, 14, 57, 52
16, 135339, Note_on_c, 14, 57, 0
16, 135360, Note_on_c, 14, 55, 52
16, 135459, Note_on_c, 14, 55, 0
16, 135480, Note_on_c, 14, 55, 52
16, 135579, Note_on_c, 14, 55, 0
16, 135600, Note_on_c, 14, 55, 52
16, 135699, Note_on_c, 14, 55, 0
16, 135720, Note_on_c, 14, 53, 52
16, 135819, Note_on_c, 14, 53, 0
16, 135840, Note_on_c, 14, 51, 52
16, 135939, Note_on_c, 14, 51, 0
16, 135960, Note_on_c, 14, 51, 52
16, 136059, Note_on_c, 14, 51, 0
16, 136080, Note_on_c, 14, 51, 52
16, 136179, Note_on_c, 14, 51, 0
16, 136200, Note_on_c, 14, 50, 52
16, 136299, Note_on_c, 14, 50, 0
16, 136320, Note_on_c, 14, 48, 52
16, 136419, Note_on_c, 14, 48, 0
16, 136440, Note_on_c, 14, 60, 52
16, 136539, Note_on_c, 14, 60, 0
16, 136560, Note_on_c, 14, 60, 52
16, 136659, Note_on_c, 14, 60, 0
16, 136680, Note_on_c, 14, 58, 52
16, 136779, Note_on_c, 14, 58, 0
16, 136800, Note_on_c, 14, 57, 52
16, 136899, Note_on_c, 14, 57, 0
16, 136920, Note_on_c, 14, 57, 52
16, 137019, Note_on_c, 14, 57, 0
16, 137040, Note_on_c, 14, 57, 52
16, 137139, Note_on_c, 14, 57, 0
16, 137160, Note_on_c, 14, 55, 52
16, 137259, Note_on_c, 14, 55, 0
16, 137280, Note_on_c, 14, 54, 52
16, 137379, Note_on_c, 14, 54, 0
16, 137400, Note_on_c, 14, 54, 52
16, 137499, Note_on_c, 14, 54, 0
16, 137520, Note_on_c, 14, 54, 52
16, 137619, Note_on_c, 14, 54, 0
16, 137640, Note_on_c, 14, 51, 52
16, 137739, Note_on_c, 14, 51, 0
16, 137760, Note_on_c, 14, 50, 52
16, 137859, Note_on_c, 14, 50, 0
16, 137880, Note_on_c, 14, 50, 52
16, 137979, Note_on_c, 14, 50, 0
16, 138000, Note_on_c, 14, 50, 52
16, 138099, Note_on_c, 14, 50, 0
16, 138120, Note_on_c, 14, 48, 52
16, 138219, Note_on_c, 14, 48, 0
16, 138240, Note_on_c, 14, 46, 52
16, 138339, Note_on_c, 14, 46, 0
16, 138360, Note_on_c, 14, 62, 52
16, 138459, Note_on_c, 14, 62, 0
16, 138480, Note_on_c, 14, 62, 52
16, 138579, Note_on_c, 14, 62, 0
16, 138600, Note_on_c, 14, 60, 52
16, 138699, Note_on_c, 14, 60, 0
16, 138720, Note_on_c, 14, 58, 52
16, 138819, Note_on_c, 14, 58, 0
16, 138840, Note_on_c, 14, 58, 55
16, 138939, Note_on_c, 14, 58, 0
16, 138960, Note_on_c, 14, 58, 58
16, 139059, Note_on_c, 14, 58, 0
16, 139080, Note_on_c, 14, 57, 61
16, 139179, Note_on_c, 14, 57, 0
16, 139200, Note_on_c, 14, 55, 64
16, 139299, Note_on_c, 14, 55, 0
16, 139320, Note_on_c, 14, 53, 67
16, 139419, Note_on_c, 14, 53, 0
16, 139440, Note_on_c, 14, 51, 70
16, 139539, Note_on_c, 14, 51, 0
16, 139560, Note_on_c, 14, 50, 73
16, 139659, Note_on_c, 14, 50, 0
16, 139680, Note_on_c, 14, 36, 76
16, 139680, Note_on_c, 14, 48, 76
16, 139779, Note_on_c, 14, 36, 0
16, 139779, Note_on_c, 14, 48, 0
16, 139800, Note_on_c, 14, 48, 76
16, 139800, Note_on_c, 14, 36, 76
16, 139899, Note_on_c, 14, 48, 0
16, 139899, Note_on_c, 14, 36, 0
16, 139920, Note_on_c, 14, 48, 76
16, 139920, Note_on_c, 14, 36, 76
16, 140019, Note_on_c, 14, 48, 0
16, 140019, Note_on_c, 14, 36, 0
16, 140040, Note_on_c, 14, 36, 76
16, 140040, Note_on_c, 14, 48, 76
16, 140139, Note_on_c, 14, 36, 0
16, 140139, Note_on_c, 14, 48, 0
16, 140160, Note_on_c, 14, 48, 76
16, 140160, Note_on_c, 14, 36, 76
16, 140259, Note_on_c, 14, 48, 0
16, 140259, Note_on_c, 14, 36, 0
16, 140280, Note_on_c, 14, 48, 76
16, 140280, Note_on_c, 14, 36, 76
16, 140379, Note_on_c, 14, 48, 0
16, 140379, Note_on_c, 14, 36, 0
16, 140400, Note_on_c, 14, 36, 76
16, 140400, Note_on_c, 14, 48, 76
16, 140499, Note_on_c, 14, 36, 0
16, 140499, Note_on_c, 14, 48, 0
16, 140520, Note_on_c, 14, 36, 76
16, 140520, Note_on_c, 14, 48, 76
16, 140619, Note_on_c, 14, 36, 0
16, 140619, Note_on_c, 14, 48, 0
16, 140640, Note_on_c, 14, 48, 76
16, 140640, Note_on_c, 14, 36, 76
16, 140879, Note_on_c, 14, 48, 0
16, 140879, Note_on_c, 14, 36, 0
16, 141240, Note_on_c, 14, 49, 76
16, 141339, Note_on_c, 14, 49, 0
16, 141360, Note_on_c, 14, 49, 76
16, 141459, Note_on_c, 14, 49, 0
16, 141480, Note_on_c, 14, 49, 76
16, 141579, Note_on_c, 14, 49, 0
16, 141600, Note_on_c, 14, 49, 76
16, 141699, Note_on_c, 14, 49, 0
16, 141720, Note_on_c, 14, 49, 76
16, 141819, Note_on_c, 14, 49, 0
16, 141840, Note_on_c, 14, 49, 76
16, 141939, Note_on_c, 14, 49, 0
16, 141960, Note_on_c, 14, 49, 76
16, 142059, Note_on_c, 14, 49, 0
16, 142080, Note_on_c, 14, 49, 76
16, 142179, Note_on_c, 14, 49, 0
16, 142200, Note_on_c, 14, 49, 76
16, 142299, Note_on_c, 14, 49, 0
16, 142320, Note_on_c, 14, 49, 76
16, 142419, Note_on_c, 14, 49, 0
16, 142440, Note_on_c, 14, 49, 76
16, 142539, Note_on_c, 14, 49, 0
16, 142560, Note_on_c, 14, 49, 76
16, 142799, Note_on_c, 14, 49, 0
16, 143160, Note_on_c, 14, 50, 80
16, 143259, Note_on_c, 14, 50, 0
16, 143280, Note_on_c, 14, 50, 80
16, 143379, Note_on_c, 14, 50, 0
16, 143400, Note_on_c, 14, 50, 80
16, 143499, Note_on_c, 14, 50, 0
16, 143520, Note_on_c, 14, 50, 80
16, 143759, Note_on_c, 14, 50, 0
16, 144240, Note_on_c, 14, 52, 80
16, 144339, Note_on_c, 14, 52, 0
16, 144360, Note_on_c, 14, 52, 80
16, 144459, Note_on_c, 14, 52, 0
16, 144480, Note_on_c, 14, 52, 80
16, 144699, Note_on_c, 14, 52, 0
16, 144720, Note_on_c, 14, 54, 80
16, 144819, Note_on_c, 14, 54, 0
16, 144840, Note_on_c, 14, 54, 80
16, 144939, Note_on_c, 14, 54, 0
16, 144960, Note_on_c, 14, 54, 80
16, 145199, Note_on_c, 14, 54, 0
16, 146640, Note_on_c, 14, 60, 80
16, 147099, Note_on_c, 14, 60, 0
16, 147120, Note_on_c, 14, 57, 80
16, 147299, Note_on_c, 14, 57, 0
16, 147360, Note_on_c, 14, 54, 80
16, 147539, Note_on_c, 14, 54, 0
16, 147600, Note_on_c, 14, 50, 80
16, 147779, Note_on_c, 14, 50, 0
16, 147840, Note_on_c, 14, 48, 80
16, 148019, Note_on_c, 14, 48, 0
16, 148080, Note_on_c, 14, 45, 80
16, 148259, Note_on_c, 14, 45, 0
16, 148320, Note_on_c, 14, 42, 80
16, 148499, Note_on_c, 14, 42, 0
16, 148560, Note_on_c, 14, 34, 80
16, 148779, Note_on_c, 14, 34, 0
16, 148800, Note_on_c, 14, 43, 80
16, 149039, Note_on_c, 14, 43, 0
16, 150480, Note_on_c, 14, 65, 84
16, 150939, Note_on_c, 14, 65, 0
16, 150960, Note_on_c, 14, 62, 84
16, 151139, Note_on_c, 14, 62, 0
16, 151200, Note_on_c, 14, 59, 84
16, 151379, Note_on_c, 14, 59, 0
16, 151440, Note_on_c, 14, 55, 84
16, 151619, Note_on_c, 14, 55, 0
16, 151680, Note_on_c, 14, 53, 84
16, 151859, Note_on_c, 14, 53, 0
16, 151920, Note_on_c, 14, 50, 84
16, 152099, Note_on_c, 14, 50, 0
16, 152160, Note_on_c, 14, 47, 84
16, 152339, Note_on_c, 14, 47, 0
16, 152400, Note_on_c, 14, 43, 84
16, 152579, Note_on_c, 14, 43, 0
16, 152640, Note_on_c, 14, 48, 84
16, 152879, Note_on_c, 14, 48, 0
16, 154080, Note_on_c, 14, 43, 84
16, 154539, Note_on_c, 14, 43, 0
16, 154560, Note_on_c, 14, 44, 84
16, 155039, Note_on_c, 14, 44, 0
16, 156000, Note_on_c, 14, 43, 84
16, 156459, Note_on_c, 14, 43, 0
16, 156480, Note_on_c, 14, 44, 84
16, 156959, Note_on_c, 14, 44, 0
16, 157920, Note_on_c, 14, 46, 84
16, 158379, Note_on_c, 14, 46, 0
16, 158400, Note_on_c, 14, 48, 84
16, 158879, Note_on_c, 14, 48, 0
16, 159840, Note_on_c, 14, 49, 84
16, 160319, Note_on_c, 14, 49, 0
16, 160800, Note_on_c, 14, 51, 74
16, 161279, Note_on_c, 14, 51, 0
16, 161760, Note_on_c, 14, 53, 63
16, 162239, Note_on_c, 14, 53, 0
16, 162720, Note_on_c, 14, 42, 52
16, 163199, Note_on_c, 14, 42, 0
16, 163680, Note_on_c, 14, 42, 51
16, 164159, Note_on_c, 14, 42, 0
16, 164640, Note_on_c, 14, 42, 48
16, 165119, Note_on_c, 14, 42, 0
16, 165600, Note_on_c, 14, 42, 44
16, 166079, Note_on_c, 14, 42, 0
16, 166560, Note_on_c, 14, 42, 44
16, 167039, Note_on_c, 14, 42, 0
16, 167520, Note_on_c, 14, 42, 44
16, 167999, Note_on_c, 14, 42, 0
16, 168480, Note_on_c, 14, 42, 84
16, 168579, Note_on_c, 14, 42, 0
16, 168600, Note_on_c, 14, 50, 84
16, 168699, Note_on_c, 14, 50, 0
16, 168720, Note_on_c, 14, 50, 84
16, 168819, Note_on_c, 14, 50, 0
16, 168840, Note_on_c, 14, 50, 84
16, 168939, Note_on_c, 14, 50, 0
16, 168960, Note_on_c, 14, 47, 84
16, 169419, Note_on_c, 14, 47, 0
16, 169440, Note_on_c, 14, 48, 84
16, 169899, Note_on_c, 14, 48, 0
16, 169920, Note_on_c, 14, 45, 84
16, 170879, Note_on_c, 14, 45, 0
16, 171360, Note_on_c, 14, 47, 44
16, 171839, Note_on_c, 14, 47, 0
16, 172320, Note_on_c, 14, 47, 44
16, 172799, Note_on_c, 14, 47, 0
16, 173280, Note_on_c, 14, 47, 44
16, 173759, Note_on_c, 14, 47, 0
16, 174240, Note_on_c, 14, 47, 84
16, 174339, Note_on_c, 14, 47, 0
16, 174360, Note_on_c, 14, 44, 84
16, 174459, Note_on_c, 14, 44, 0
16, 174480, Note_on_c, 14, 44, 84
16, 174579, Note_on_c, 14, 44, 0
16, 174600, Note_on_c, 14, 44, 84
16, 174699, Note_on_c, 14, 44, 0
16, 174720, Note_on_c, 14, 41, 84
16, 175299, Note_on_c, 14, 41, 0
16, 175320, Note_on_c, 14, 44, 84
16, 175419, Note_on_c, 14, 44, 0
16, 175440, Note_on_c, 14, 44, 84
16, 175539, Note_on_c, 14, 44, 0
16, 175560, Note_on_c, 14, 44, 84
16, 175659, Note_on_c, 14, 44, 0
16, 175680, Note_on_c, 14, 41, 84
16, 176259, Note_on_c, 14, 41, 0
16, 176280, Note_on_c, 14, 44, 84
16, 176379, Note_on_c, 14, 44, 0
16, 176400, Note_on_c, 14, 44, 84
16, 176499, Note_on_c, 14, 44, 0
16, 176520, Note_on_c, 14, 44, 84
16, 176619, Note_on_c, 14, 44, 0
16, 176640, Note_on_c, 14, 41, 84
16, 176739, Note_on_c, 14, 41, 0
16, 176760, Note_on_c, 14, 44, 84
16, 176859, Note_on_c, 14, 44, 0
16, 176880, Note_on_c, 14, 44, 84
16, 176979, Note_on_c, 14, 44, 0
16, 177000, Note_on_c, 14, 44, 84
16, 177099, Note_on_c, 14, 44, 0
16, 177120, Note_on_c, 14, 41, 84
16, 177219, Note_on_c, 14, 41, 0
16, 177240, Note_on_c, 14, 44, 84
16, 177339, Note_on_c, 14, 44, 0
16, 177360, Note_on_c, 14, 44, 84
16, 177459, Note_on_c, 14, 44, 0
16, 177480, Note_on_c, 14, 44, 84
16, 177579, Note_on_c, 14, 44, 0
16, 177600, Note_on_c, 14, 41, 84
16, 177699, Note_on_c, 14, 41, 0
16, 177720, Note_on_c, 14, 44, 84
16, 177819, Note_on_c, 14, 44, 0
16, 177840, Note_on_c, 14, 44, 84
16, 177939, Note_on_c, 14, 44, 0
16, 177960, Note_on_c, 14, 44, 84
16, 178059, Note_on_c, 14, 44, 0
16, 178080, Note_on_c, 14, 41, 84
16, 178179, Note_on_c, 14, 41, 0
16, 178200, Note_on_c, 14, 43, 84
16, 178299, Note_on_c, 14, 43, 0
16, 178320, Note_on_c, 14, 43, 84
16, 178419, Note_on_c, 14, 43, 0
16, 178440, Note_on_c, 14, 43, 84
16, 178539, Note_on_c, 14, 43, 0
16, 178560, Note_on_c, 14, 39, 84
16, 179999, Note_on_c, 14, 39, 0
16, 180120, Note_on_c, 14, 41, 84
16, 180219, Note_on_c, 14, 41, 0
16, 180240, Note_on_c, 14, 41, 84
16, 180339, Note_on_c, 14, 41, 0
16, 180360, Note_on_c, 14, 41, 84
16, 180459, Note_on_c, 14, 41, 0
16, 180480, Note_on_c, 14, 38, 84
16, 182399, Note_on_c, 14, 38, 0
16, 182640, Program_c, 14, 45
16, 182880, Note_on_c, 14, 48, 48
16, 183119, Note_on_c, 14, 48, 0
16, 183840, Note_on_c, 14, 48, 48
16, 184079, Note_on_c, 14, 48, 0
16, 184800, Note_on_c, 14, 47, 48
16, 185039, Note_on_c, 14, 47, 0
16, 185760, Note_on_c, 14, 47, 48
16, 185999, Note_on_c, 14, 47, 0
16, 186720, Note_on_c, 14, 48, 48
16, 186959, Note_on_c, 14, 48, 0
16, 187200, Note_on_c, 14, 47, 48
16, 187439, Note_on_c, 14, 47, 0
16, 187680, Note_on_c, 14, 48, 48
16, 187919, Note_on_c, 14, 48, 0
16, 188160, Note_on_c, 14, 43, 48
16, 188399, Note_on_c, 14, 43, 0
16, 188640, Note_on_c, 14, 48, 48
16, 188879, Note_on_c, 14, 48, 0
16, 189120, Note_on_c, 14, 44, 60
16, 189359, Note_on_c, 14, 44, 0
16, 189480, Program_c, 14, 48
16, 189600, Note_on_c, 14, 43, 84
16, 189839, Note_on_c, 14, 43, 0
16, 193560, Note_on_c, 14, 43, 52
16, 193659, Note_on_c, 14, 43, 0
16, 193680, Note_on_c, 14, 43, 52
16, 193779, Note_on_c, 14, 43, 0
16, 193800, Note_on_c, 14, 43, 52
16, 193899, Note_on_c, 14, 43, 0
16, 193920, Note_on_c, 14, 48, 52
16, 194019, Note_on_c, 14, 48, 0
16, 194040, Note_on_c, 14, 56, 52
16, 194139, Note_on_c, 14, 56, 0
16, 194160, Note_on_c, 14, 56, 53
16, 194259, Note_on_c, 14, 56, 0
16, 194280, Note_on_c, 14, 56, 55
16, 194379, Note_on_c, 14, 56, 0
16, 194400, Note_on_c, 14, 53, 56
16, 194499, Note_on_c, 14, 53, 0
16, 194520, Note_on_c, 14, 50, 58
16, 194619, Note_on_c, 14, 50, 0
16, 194640, Note_on_c, 14, 50, 60
16, 194739, Note_on_c, 14, 50, 0
16, 194760, Note_on_c, 14, 50, 61
16, 194859, Note_on_c, 14, 50, 0
16, 194880, Note_on_c, 14, 47, 63
16, 194979, Note_on_c, 14, 47, 0
16, 195000, Note_on_c, 14, 44, 64
16, 195099, Note_on_c, 14, 44, 0
16, 195120, Note_on_c, 14, 44, 66
16, 195219, Note_on_c, 14, 44, 0
16, 195240, Note_on_c, 14, 44, 68
16, 195339, Note_on_c, 14, 44, 0
16, 195360, Note_on_c, 14, 43, 69
16, 195459, Note_on_c, 14, 43, 0
16, 195480, Note_on_c, 14, 55, 71
16, 195579, Note_on_c, 14, 55, 0
16, 195600, Note_on_c, 14, 55, 72
16, 195699, Note_on_c, 14, 55, 0
16, 195720, Note_on_c, 14, 55, 74
16, 195819, Note_on_c, 14, 55, 0
16, 195840, Note_on_c, 14, 48, 76
16, 195939, Note_on_c, 14, 48, 0
16, 195960, Note_on_c, 14, 48, 76
16, 196059, Note_on_c, 14, 48, 0
16, 196080, Note_on_c, 14, 48, 76
16, 196179, Note_on_c, 14, 48, 0
16, 196200, Note_on_c, 14, 48, 76
16, 196299, Note_on_c, 14, 48, 0
16, 196320, Note_on_c, 14, 48, 76
16, 196799, Note_on_c, 14, 48, 0
16, 196800, Note_on_c, 14, 48, 76
16, 196899, Note_on_c, 14, 48, 0
16, 196920, Note_on_c, 14, 48, 76
16, 197019, Note_on_c, 14, 48, 0
16, 197040, Note_on_c, 14, 48, 76
16, 197139, Note_on_c, 14, 48, 0
16, 197160, Note_on_c, 14, 48, 76
16, 197259, Note_on_c, 14, 48, 0
16, 197280, Note_on_c, 14, 48, 76
16, 197759, Note_on_c, 14, 48, 0
16, 197760, Note_on_c, 14, 48, 76
16, 197859, Note_on_c, 14, 48, 0
16, 197880, Note_on_c, 14, 48, 76
16, 197979, Note_on_c, 14, 48, 0
16, 198000, Note_on_c, 14, 48, 76
16, 198099, Note_on_c, 14, 48, 0
16, 198120, Note_on_c, 14, 48, 76
16, 198219, Note_on_c, 14, 48, 0
16, 198240, Note_on_c, 14, 48, 84
16, 198479, Note_on_c, 14, 48, 0
16, 198720, Note_on_c, 14, 48, 84
16, 198959, Note_on_c, 14, 48, 0
16, 199200, Note_on_c, 14, 48, 84
16, 199439, Note_on_c, 14, 48, 0
16, 199680, Note_on_c, 14, 48, 84
16, 199919, Note_on_c, 14, 48, 0
16, 200160, Note_on_c, 14, 48, 84
16, 200399, Note_on_c, 14, 48, 0
16, 200640, Note_on_c, 14, 48, 84
16, 200879, Note_on_c, 14, 48, 0
16, 201120, Note_on_c, 14, 48, 76
16, 202079, Note_on_c, 14, 48, 0
16, 202080, Note_on_c, 14, 48, 76
16, 202559, Note_on_c, 14, 48, 0
16, 202560, Note_on_c, 14, 48, 76
16, 202659, Note_on_c, 14, 48, 0
16, 202680, Note_on_c, 14, 48, 76
16, 202779, Note_on_c, 14, 48, 0
16, 202800, Note_on_c, 14, 48, 76
16, 202899, Note_on_c, 14, 48, 0
16, 202920, Note_on_c, 14, 48, 76
16, 203019, Note_on_c, 14, 48, 0
16, 203040, Note_on_c, 14, 43, 76
16, 203999, Note_on_c, 14, 43, 0
16, 204000, Note_on_c, 14, 43, 76
16, 204579, Note_on_c, 14, 43, 0
16, 204600, Note_on_c, 14, 43, 76
16, 204699, Note_on_c, 14, 43, 0
16, 204720, Note_on_c, 14, 48, 76
16, 204819, Note_on_c, 14, 48, 0
16, 204840, Note_on_c, 14, 48, 76
16, 204939, Note_on_c, 14, 48, 0
16, 204960, Note_on_c, 14, 48, 84
16, 205059, Note_on_c, 14, 48, 0
16, 205080, Note_on_c, 14, 63, 84
16, 205179, Note_on_c, 14, 63, 0
16, 205200, Note_on_c, 14, 63, 84
16, 205299, Note_on_c, 14, 63, 0
16, 205320, Note_on_c, 14, 63, 84
16, 205419, Note_on_c, 14, 63, 0
16, 205440, Note_on_c, 14, 60, 84
16, 205539, Note_on_c, 14, 60, 0
16, 205560, Note_on_c, 14, 57, 84
16, 205659, Note_on_c, 14, 57, 0
16, 205680, Note_on_c, 14, 57, 84
16, 205779, Note_on_c, 14, 57, 0
16, 205800, Note_on_c, 14, 57, 84
16, 205899, Note_on_c, 14, 57, 0
16, 205920, Note_on_c, 14, 54, 84
16, 206019, Note_on_c, 14, 54, 0
16, 206040, Note_on_c, 14, 51, 84
16, 206139, Note_on_c, 14, 51, 0
16, 206160, Note_on_c, 14, 51, 84
16, 206259, Note_on_c, 14, 51, 0
16, 206280, Note_on_c, 14, 51, 84
16, 206379, Note_on_c, 14, 51, 0
16, 206400, Note_on_c, 14, 48, 84
16, 206499, Note_on_c, 14, 48, 0
16, 206520, Note_on_c, 14, 45, 84
16, 206619, Note_on_c, 14, 45, 0
16, 206640, Note_on_c, 14, 45, 84
16, 206739, Note_on_c, 14, 45, 0
16, 206760, Note_on_c, 14, 45, 84
16, 206859, Note_on_c, 14, 45, 0
16, 206880, Note_on_c, 14, 48, 84
16, 207119, Note_on_c, 14, 48, 0
16, 207360, Note_on_c, 14, 47, 84
16, 207599, Note_on_c, 14, 47, 0
16, 211320, Note_on_c, 14, 43, 52
16, 211419, Note_on_c, 14, 43, 0
16, 211440, Note_on_c, 14, 43, 52
16, 211539, Note_on_c, 14, 43, 0
16, 211560, Note_on_c, 14, 43, 52
16, 211659, Note_on_c, 14, 43, 0
16, 211680, Note_on_c, 14, 48, 52
16, 211919, Note_on_c, 14, 48, 0
16, 215160, Note_on_c, 14, 43, 52
16, 215259, Note_on_c, 14, 43, 0
16, 215280, Note_on_c, 14, 43, 52
16, 215379, Note_on_c, 14, 43, 0
16, 215400, Note_on_c, 14, 43, 52
16, 215499, Note_on_c, 14, 43, 0
16, 215520, Note_on_c, 14, 48, 52
16, 215759, Note_on_c, 14, 48, 0
16, 219000, Note_on_c, 14, 48, 52
16, 219099, Note_on_c, 14, 48, 0
16, 219120, Note_on_c, 14, 48, 52
16, 219219, Note_on_c, 14, 48, 0
16, 219240, Note_on_c, 14, 48, 52
16, 219339, Note_on_c, 14, 48, 0
16, 219360, Note_on_c, 14, 53, 52
16, 219599, Note_on_c, 14, 53, 0
16, 220920, Note_on_c, 14, 50, 52
16, 221019, Note_on_c, 14, 50, 0
16, 221040, Note_on_c, 14, 50, 52
16, 221139, Note_on_c, 14, 50, 0
16, 221160, Note_on_c, 14, 50, 52
16, 221259, Note_on_c, 14, 50, 0
16, 221280, Note_on_c, 14, 55, 52
16, 221519, Note_on_c, 14, 55, 0
16, 221758, Control_c, 14, 11, 64
16, 221760, Note_on_c, 14, 65, 84
16, 221999, Note_on_c, 14, 65, 0
16, 222000, Note_on_c, 14, 67, 84
16, 222239, Note_on_c, 14, 67, 0
16, 222240, Note_on_c, 14, 68, 84
16, 222240, Control_c, 14, 11, 64
16, 222347, Control_c, 14, 11, 65
16, 222453, Control_c, 14, 11, 66
16, 222479, Note_on_c, 14, 68, 0
16, 222480, Note_on_c, 14, 67, 84
16, 222560, Control_c, 14, 11, 67
16, 222667, Control_c, 14, 11, 68
16, 222719, Note_on_c, 14, 67, 0
16, 222720, Note_on_c, 14, 65, 84
16, 222773, Control_c, 14, 11, 69
16, 222880, Control_c, 14, 11, 70
16, 222959, Note_on_c, 14, 65, 0
16, 222960, Note_on_c, 14, 67, 84
16, 222987, Control_c, 14, 11, 71
16, 223093, Control_c, 14, 11, 72
16, 223179, Note_on_c, 14, 67, 0
16, 223200, Note_on_c, 14, 68, 84
16, 223200, Control_c, 14, 11, 73
16, 223307, Control_c, 14, 11, 74
16, 223413, Control_c, 14, 11, 75
16, 223439, Note_on_c, 14, 68, 0
16, 223440, Note_on_c, 14, 67, 84
16, 223520, Control_c, 14, 11, 76
16, 223627, Control_c, 14, 11, 77
16, 223679, Note_on_c, 14, 67, 0
16, 223680, Note_on_c, 14, 65, 84
16, 223733, Control_c, 14, 11, 78
16, 223840, Control_c, 14, 11, 79
16, 223919, Note_on_c, 14, 65, 0
16, 223920, Note_on_c, 14, 67, 84
16, 223947, Control_c, 14, 11, 80
16, 224053, Control_c, 14, 11, 81
16, 224139, Note_on_c, 14, 67, 0
16, 224160, Note_on_c, 14, 68, 84
16, 224160, Control_c, 14, 11, 82
16, 224267, Control_c, 14, 11, 83
16, 224373, Control_c, 14, 11, 84
16, 224399, Note_on_c, 14, 68, 0
16, 224400, Note_on_c, 14, 67, 84
16, 224480, Control_c, 14, 11, 85
16, 224587, Control_c, 14, 11, 86
16, 224639, Note_on_c, 14, 67, 0
16, 224640, Note_on_c, 14, 65, 84
16, 224693, Control_c, 14, 11, 87
16, 224800, Control_c, 14, 11, 88
16, 224879, Note_on_c, 14, 65, 0
16, 224880, Note_on_c, 14, 67, 84
16, 224907, Control_c, 14, 11, 89
16, 225013, Control_c, 14, 11, 90
16, 225099, Note_on_c, 14, 67, 0
16, 225120, Control_c, 14, 11, 91
16, 225120, Note_on_c, 14, 68, 84
16, 225227, Control_c, 14, 11, 92
16, 225333, Control_c, 14, 11, 93
16, 225359, Note_on_c, 14, 68, 0
16, 225360, Note_on_c, 14, 67, 84
16, 225440, Control_c, 14, 11, 94
16, 225547, Control_c, 14, 11, 95
16, 225599, Note_on_c, 14, 67, 0
16, 225600, Note_on_c, 14, 66, 84
16, 225653, Control_c, 14, 11, 96
16, 225760, Control_c, 14, 11, 97
16, 225839, Note_on_c, 14, 66, 0
16, 225840, Note_on_c, 14, 67, 84
16, 225867, Control_c, 14, 11, 98
16, 225973, Control_c, 14, 11, 99
16, 226059, Note_on_c, 14, 67, 0
16, 226080, Control_c, 14, 11, 100
16, 226080, Note_on_c, 14, 69, 84
16, 226187, Control_c, 14, 11, 101
16, 226293, Control_c, 14, 11, 102
16, 226319, Note_on_c, 14, 69, 0
16, 226320, Note_on_c, 14, 67, 84
16, 226400, Control_c, 14, 11, 103
16, 226507, Control_c, 14, 11, 104
16, 226559, Note_on_c, 14, 67, 0
16, 226560, Note_on_c, 14, 66, 84
16, 226613, Control_c, 14, 11, 105
16, 226720, Control_c, 14, 11, 106
16, 226799, Note_on_c, 14, 66, 0
16, 226800, Note_on_c, 14, 67, 84
16, 226827, Control_c, 14, 11, 107
16, 226933, Control_c, 14, 11, 108
16, 227019, Note_on_c, 14, 67, 0
16, 227040, Control_c, 14, 11, 109
16, 227040, Note_on_c, 14, 69, 84
16, 227147, Control_c, 14, 11, 110
16, 227253, Control_c, 14, 11, 111
16, 227279, Note_on_c, 14, 69, 0
16, 227280, Note_on_c, 14, 67, 84
16, 227360, Control_c, 14, 11, 112
16, 227467, Control_c, 14, 11, 113
16, 227519, Note_on_c, 14, 67, 0
16, 227520, Note_on_c, 14, 66, 84
16, 227573, Control_c, 14, 11, 114
16, 227680, Control_c, 14, 11, 115
16, 227759, Note_on_c, 14, 66, 0
16, 227760, Note_on_c, 14, 67, 84
16, 227787, Control_c, 14, 11, 116
16, 227893, Control_c, 14, 11, 117
16, 227999, Note_on_c, 14, 67, 0
16, 228000, Note_on_c, 14, 66, 84
16, 228000, Control_c, 14, 11, 118
16, 228107, Control_c, 14, 11, 119
16, 228213, Control_c, 14, 11, 120
16, 228239, Note_on_c, 14, 66, 0
16, 228240, Note_on_c, 14, 67, 84
16, 228320, Control_c, 14, 11, 121
16, 228427, Control_c, 14, 11, 122
16, 228479, Note_on_c, 14, 67, 0
16, 228480, Note_on_c, 14, 66, 84
16, 228533, Control_c, 14, 11, 123
16, 228640, Control_c, 14, 11, 124
16, 228719, Note_on_c, 14, 66, 0
16, 228720, Note_on_c, 14, 67, 84
16, 228747, Control_c, 14, 11, 125
16, 228853, Control_c, 14, 11, 127
16, 228939, Note_on_c, 14, 67, 0
16, 228960, Note_on_c, 14, 62, 84
16, 229659, Note_on_c, 14, 62, 0
16, 229680, Note_on_c, 14, 59, 84
16, 229899, Note_on_c, 14, 59, 0
16, 229920, Note_on_c, 14, 60, 84
16, 230159, Note_on_c, 14, 60, 0
16, 230400, Note_on_c, 14, 62, 84
16, 230639, Note_on_c, 14, 62, 0
16, 230880, Note_on_c, 14, 64, 84
16, 231119, Note_on_c, 14, 64, 0
16, 231360, Note_on_c, 14, 65, 84
16, 231599, Note_on_c, 14, 65, 0
16, 231840, Note_on_c, 14, 67, 84
16, 232079, Note_on_c, 14, 67, 0
16, 232320, Note_on_c, 14, 55, 84
16, 232559, Note_on_c, 14, 55, 0
16, 232800, Note_on_c, 14, 47, 84
16, 233019, Note_on_c, 14, 47, 0
16, 233040, Note_on_c, 14, 50, 84
16, 233259, Note_on_c, 14, 50, 0
16, 233280, Note_on_c, 14, 47, 84
16, 233499, Note_on_c, 14, 47, 0
16, 233520, Note_on_c, 14, 50, 84
16, 233739, Note_on_c, 14, 50, 0
16, 233760, Note_on_c, 14, 48, 84
16, 233979, Note_on_c, 14, 48, 0
16, 234000, Note_on_c, 14, 52, 84
16, 234219, Note_on_c, 14, 52, 0
16, 234240, Note_on_c, 14, 50, 84
16, 234459, Note_on_c, 14, 50, 0
16, 234480, Note_on_c, 14, 53, 84
16, 234699, Note_on_c, 14, 53, 0
16, 234720, Note_on_c, 14, 52, 84
16, 234939, Note_on_c, 14, 52, 0
16, 234960, Note_on_c, 14, 55, 84
16, 235179, Note_on_c, 14, 55, 0
16, 235200, Note_on_c, 14, 53, 84
16, 235419, Note_on_c, 14, 53, 0
16, 235440, Note_on_c, 14, 57, 84
16, 235659, Note_on_c, 14, 57, 0
16, 235680, Note_on_c, 14, 55, 84
16, 235899, Note_on_c, 14, 55, 0
16, 235920, Note_on_c, 14, 43, 84
16, 236139, Note_on_c, 14, 43, 0
16, 236160, Note_on_c, 14, 55, 84
16, 236379, Note_on_c, 14, 55, 0
16, 236400, Note_on_c, 14, 43, 84
16, 236619, Note_on_c, 14, 43, 0
16, 236640, Note_on_c, 14, 48, 84
16, 237599, Note_on_c, 14, 48, 0
16, 237600, Note_on_c, 14, 48, 84
16, 238179, Note_on_c, 14, 48, 0
16, 238200, Note_on_c, 14, 43, 84
16, 238299, Note_on_c, 14, 43, 0
16, 238320, Note_on_c, 14, 43, 84
16, 238419, Note_on_c, 14, 43, 0
16, 238440, Note_on_c, 14, 43, 84
16, 238539, Note_on_c, 14, 43, 0
16, 238560, Note_on_c, 14, 48, 84
16, 239519, Note_on_c, 14, 48, 0
16, 239520, Note_on_c, 14, 48, 84
16, 240099, Note_on_c, 14, 48, 0
16, 240120, Note_on_c, 14, 43, 84
16, 240219, Note_on_c, 14, 43, 0
16, 240240, Note_on_c, 14, 43, 84
16, 240339, Note_on_c, 14, 43, 0
16, 240360, Note_on_c, 14, 43, 84
16, 240459, Note_on_c, 14, 43, 0
16, 240480, Note_on_c, 14, 48, 84
16, 240719, Note_on_c, 14, 48, 0
16, 241080, Note_on_c, 14, 43, 84
16, 241179, Note_on_c, 14, 43, 0
16, 241200, Note_on_c, 14, 43, 84
16, 241299, Note_on_c, 14, 43, 0
16, 241320, Note_on_c, 14, 43, 84
16, 241419, Note_on_c, 14, 43, 0
16, 241440, Note_on_c, 14, 48, 84
16, 241679, Note_on_c, 14, 48, 0
16, 242040, Note_on_c, 14, 43, 84
16, 242139, Note_on_c, 14, 43, 0
16, 242160, Note_on_c, 14, 43, 84
16, 242259, Note_on_c, 14, 43, 0
16, 242280, Note_on_c, 14, 43, 84
16, 242379, Note_on_c, 14, 43, 0
16, 242400, Note_on_c, 14, 48, 92
16, 242519, Note_on_c, 14, 48, 0
16, 242520, Note_on_c, 14, 48, 84
16, 242879, Note_on_c, 14, 48, 0
16, 242880, Note_on_c, 14, 48, 84
16, 242979, Note_on_c, 14, 48, 0
16, 243000, Note_on_c, 14, 48, 84
16, 243099, Note_on_c, 14, 48, 0
16, 243120, Note_on_c, 14, 48, 84
16, 243219, Note_on_c, 14, 48, 0
16, 243240, Note_on_c, 14, 48, 84
16, 243339, Note_on_c, 14, 48, 0
16, 243360, Note_on_c, 14, 44, 92
16, 243479, Note_on_c, 14, 44, 0
16, 243480, Note_on_c, 14, 44, 84
16, 243839, Note_on_c, 14, 44, 0
16, 243840, Note_on_c, 14, 44, 84
16, 243939, Note_on_c, 14, 44, 0
16, 243960, Note_on_c, 14, 44, 84
16, 244059, Note_on_c, 14, 44, 0
16, 244080, Note_on_c, 14, 44, 84
16, 244179, Note_on_c, 14, 44, 0
16, 244200, Note_on_c, 14, 44, 84
16, 244299, Note_on_c, 14, 44, 0
16, 244320, Note_on_c, 14, 52, 92
16, 244439, Note_on_c, 14, 52, 0
16, 244440, Note_on_c, 14, 52, 84
16, 244799, Note_on_c, 14, 52, 0
16, 244800, Note_on_c, 14, 52, 84
16, 244899, Note_on_c, 14, 52, 0
16, 244920, Note_on_c, 14, 52, 84
16, 245019, Note_on_c, 14, 52, 0
16, 245040, Note_on_c, 14, 52, 84
16, 245139, Note_on_c, 14, 52, 0
16, 245160, Note_on_c, 14, 52, 84
16, 245259, Note_on_c, 14, 52, 0
16, 245280, Note_on_c, 14, 53, 92
16, 245399, Note_on_c, 14, 53, 0
16, 245400, Note_on_c, 14, 53, 84
16, 245759, Note_on_c, 14, 53, 0
16, 245760, Note_on_c, 14, 53, 84
16, 245859, Note_on_c, 14, 53, 0
16, 245880, Note_on_c, 14, 53, 84
16, 245979, Note_on_c, 14, 53, 0
16, 246000, Note_on_c, 14, 53, 84
16, 246099, Note_on_c, 14, 53, 0
16, 246120, Note_on_c, 14, 53, 84
16, 246219, Note_on_c, 14, 53, 0
16, 246240, Note_on_c, 14, 41, 84
16, 246339, Note_on_c, 14, 41, 0
16, 246360, Note_on_c, 14, 53, 84
16, 246459, Note_on_c, 14, 53, 0
16, 246480, Note_on_c, 14, 53, 84
16, 246579, Note_on_c, 14, 53, 0
16, 246600, Note_on_c, 14, 53, 84
16, 246699, Note_on_c, 14, 53, 0
16, 246720, Note_on_c, 14, 53, 84
16, 246819, Note_on_c, 14, 53, 0
16, 246840, Note_on_c, 14, 53, 84
16, 246939, Note_on_c, 14, 53, 0
16, 246960, Note_on_c, 14, 53, 84
16, 247059, Note_on_c, 14, 53, 0
16, 247080, Note_on_c, 14, 53, 84
16, 247179, Note_on_c, 14, 53, 0
16, 247200, Note_on_c, 14, 53, 84
16, 247299, Note_on_c, 14, 53, 0
16, 247320, Note_on_c, 14, 53, 84
16, 247419, Note_on_c, 14, 53, 0
16, 247440, Note_on_c, 14, 53, 84
16, 247539, Note_on_c, 14, 53, 0
16, 247560, Note_on_c, 14, 53, 84
16, 247659, Note_on_c, 14, 53, 0
16, 247680, Note_on_c, 14, 53, 84
16, 247779, Note_on_c, 14, 53, 0
16, 247800, Note_on_c, 14, 53, 84
16, 247899, Note_on_c, 14, 53, 0
16, 247920, Note_on_c, 14, 53, 84
16, 248019, Note_on_c, 14, 53, 0
16, 248040, Note_on_c, 14, 53, 84
16, 248139, Note_on_c, 14, 53, 0
16, 248160, Note_on_c, 14, 53, 84
16, 248399, Note_on_c, 14, 53, 0
16, 250200, Note_on_c, 14, 42, 84
16, 250299, Note_on_c, 14, 42, 0
16, 250320, Note_on_c, 14, 42, 84
16, 250419, Note_on_c, 14, 42, 0
16, 250440, Note_on_c, 14, 42, 84
16, 250539, Note_on_c, 14, 42, 0
16, 250560, Note_on_c, 14, 42, 84
16, 250659, Note_on_c, 14, 42, 0
16, 250680, Note_on_c, 14, 54, 84
16, 250779, Note_on_c, 14, 54, 0
16, 250800, Note_on_c, 14, 54, 84
16, 250899, Note_on_c, 14, 54, 0
16, 250920, Note_on_c, 14, 54, 84
16, 251019, Note_on_c, 14, 54, 0
16, 251040, Note_on_c, 14, 54, 84
16, 251139, Note_on_c, 14, 54, 0
16, 251160, Note_on_c, 14, 54, 84
16, 251259, Note_on_c, 14, 54, 0
16, 251280, Note_on_c, 14, 54, 84
16, 251379, Note_on_c, 14, 54, 0
16, 251400, Note_on_c, 14, 54, 84
16, 251499, Note_on_c, 14, 54, 0
16, 251520, Note_on_c, 14, 54, 84
16, 251619, Note_on_c, 14, 54, 0
16, 251640, Note_on_c, 14, 54, 84
16, 251739, Note_on_c, 14, 54, 0
16, 251760, Note_on_c, 14, 54, 84
16, 251859, Note_on_c, 14, 54, 0
16, 251880, Note_on_c, 14, 54, 84
16, 251979, Note_on_c, 14, 54, 0
16, 252000, Note_on_c, 14, 54, 84
16, 252099, Note_on_c, 14, 54, 0
16, 252120, Note_on_c, 14, 54, 84
16, 252219, Note_on_c, 14, 54, 0
16, 252240, Note_on_c, 14, 54, 84
16, 252339, Note_on_c, 14, 54, 0
16, 252360, Note_on_c, 14, 54, 84
16, 252459, Note_on_c, 14, 54, 0
16, 252480, Note_on_c, 14, 54, 84
16, 252719, Note_on_c, 14, 54, 0
16, 254040, Note_on_c, 14, 67, 76
16, 254139, Note_on_c, 14, 67, 0
16, 254160, Note_on_c, 14, 67, 76
16, 254259, Note_on_c, 14, 67, 0
16, 254280, Note_on_c, 14, 67, 76
16, 254379, Note_on_c, 14, 67, 0
16, 254400, Note_on_c, 14, 63, 76
16, 254859, Note_on_c, 14, 63, 0
16, 254880, Note_on_c, 14, 65, 76
16, 255339, Note_on_c, 14, 65, 0
16, 255360, Note_on_c, 14, 62, 76
16, 255939, Note_on_c, 14, 62, 0
16, 255960, Note_on_c, 14, 67, 76
16, 256059, Note_on_c, 14, 67, 0
16, 256080, Note_on_c, 14, 67, 76
16, 256179, Note_on_c, 14, 67, 0
16, 256200, Note_on_c, 14, 67, 76
16, 256299, Note_on_c, 14, 67, 0
16, 256320, Note_on_c, 14, 63, 76
16, 256779, Note_on_c, 14, 63, 0
16, 256800, Note_on_c, 14, 65, 76
16, 257259, Note_on_c, 14, 65, 0
16, 257280, Note_on_c, 14, 62, 76
16, 257859, Note_on_c, 14, 62, 0
16, 257880, Note_on_c, 14, 67, 76
16, 257979, Note_on_c, 14, 67, 0
16, 258000, Note_on_c, 14, 67, 76
16, 258099, Note_on_c, 14, 67, 0
16, 258120, Note_on_c, 14, 67, 76
16, 258219, Note_on_c, 14, 67, 0
16, 258240, Note_on_c, 14, 63, 76
16, 258459, Note_on_c, 14, 63, 0
16, 258480, Note_on_c, 14, 65, 76
16, 258699, Note_on_c, 14, 65, 0
16, 258720, Note_on_c, 14, 62, 76
16, 258939, Note_on_c, 14, 62, 0
16, 258960, Note_on_c, 14, 63, 76
16, 259179, Note_on_c, 14, 63, 0
16, 259200, Note_on_c, 14, 60, 76
16, 259419, Note_on_c, 14, 60, 0
16, 259440, Note_on_c, 14, 62, 76
16, 259659, Note_on_c, 14, 62, 0
16, 259680, Note_on_c, 14, 58, 76
16, 259899, Note_on_c, 14, 58, 0
16, 259920, Note_on_c, 14, 60, 76
16, 260139, Note_on_c, 14, 60, 0
16, 260160, Note_on_c, 14, 56, 76
16, 260379, Note_on_c, 14, 56, 0
16, 260400, Note_on_c, 14, 58, 76
16, 260619, Note_on_c, 14, 58, 0
16, 260640, Note_on_c, 14, 55, 76
16, 260859, Note_on_c, 14, 55, 0
16, 260880, Note_on_c, 14, 56, 76
16, 261099, Note_on_c, 14, 56, 0
16, 261120, Note_on_c, 14, 53, 76
16, 261339, Note_on_c, 14, 53, 0
16, 261360, Note_on_c, 14, 55, 76
16, 261579, Note_on_c, 14, 55, 0
16, 261600, Note_on_c, 14, 51, 76
16, 261819, Note_on_c, 14, 51, 0
16, 261840, Note_on_c, 14, 53, 76
16, 262059, Note_on_c, 14, 53, 0
16, 262080, Note_on_c, 14, 50, 76
16, 262299, Note_on_c, 14, 50, 0
16, 262320, Note_on_c, 14, 48, 76
16, 262539, Note_on_c, 14, 48, 0
16, 262560, Note_on_c, 14, 47, 76
16, 262779, Note_on_c, 14, 47, 0
16, 262800, Note_on_c, 14, 48, 76
16, 263019, Note_on_c, 14, 48, 0
16, 263040, Note_on_c, 14, 50, 76
16, 263259, Note_on_c, 14, 50, 0
16, 263280, Note_on_c, 14, 48, 76
16, 263499, Note_on_c, 14, 48, 0
16, 263520, Note_on_c, 14, 50, 76
16, 263739, Note_on_c, 14, 50, 0
16, 263760, Note_on_c, 14, 52, 76
16, 263979, Note_on_c, 14, 52, 0
16, 264000, Note_on_c, 14, 53, 76
16, 264219, Note_on_c, 14, 53, 0
16, 264240, Note_on_c, 14, 52, 76
16, 264459, Note_on_c, 14, 52, 0
16, 264480, Note_on_c, 14, 53, 76
16, 264699, Note_on_c, 14, 53, 0
16, 264720, Note_on_c, 14, 55, 76
16, 264939, Note_on_c, 14, 55, 0
16, 264960, Note_on_c, 14, 56, 76
16, 265179, Note_on_c, 14, 56, 0
16, 265200, Note_on_c, 14, 55, 76
16, 265419, Note_on_c, 14, 55, 0
16, 265440, Note_on_c, 14, 57, 76
16, 265659, Note_on_c, 14, 57, 0
16, 265680, Note_on_c, 14, 59, 76
16, 265899, Note_on_c, 14, 59, 0
16, 265920, Note_on_c, 14, 60, 76
16, 266859, Note_on_c, 14, 60, 0
16, 266880, Note_on_c, 14, 56, 76
16, 267819, Note_on_c, 14, 56, 0
16, 267840, Note_on_c, 14, 51, 76
16, 268779, Note_on_c, 14, 51, 0
16, 268800, Note_on_c, 14, 53, 76
16, 269259, Note_on_c, 14, 53, 0
16, 269280, Note_on_c, 14, 51, 76
16, 269739, Note_on_c, 14, 51, 0
16, 269760, Note_on_c, 14, 50, 76
16, 270219, Note_on_c, 14, 50, 0
16, 270240, Note_on_c, 14, 53, 76
16, 270699, Note_on_c, 14, 53, 0
16, 270720, Note_on_c, 14, 51, 76
16, 270899, Note_on_c, 14, 51, 0
16, 271200, Note_on_c, 14, 48, 76
16, 271379, Note_on_c, 14, 48, 0
16, 271680, Note_on_c, 14, 53, 76
16, 271859, Note_on_c, 14, 53, 0
16, 272160, Note_on_c, 14, 50, 76
16, 272339, Note_on_c, 14, 50, 0
16, 272640, Note_on_c, 14, 55, 76
16, 272819, Note_on_c, 14, 55, 0
16, 273120, Note_on_c, 14, 43, 76
16, 273299, Note_on_c, 14, 43, 0
16, 273600, Note_on_c, 14, 48, 76
16, 273779, Note_on_c, 14, 48, 0
16, 275040, Note_on_c, 14, 39, 76
16, 275219, Note_on_c, 14, 39, 0
16, 275280, Note_on_c, 14, 41, 76
16, 275459, Note_on_c, 14, 41, 0
16, 275520, Note_on_c, 14, 43, 76
16, 275759, Note_on_c, 14, 43, 0
16, 275760, Note_on_c, 14, 39, 76
16, 275999, Note_on_c, 14, 39, 0
16, 276960, Note_on_c, 14, 43, 76
16, 277139, Note_on_c, 14, 43, 0
16, 277200, Note_on_c, 14, 45, 76
16, 277379, Note_on_c, 14, 45, 0
16, 277440, Note_on_c, 14, 47, 76
16, 277679, Note_on_c, 14, 47, 0
16, 277680, Note_on_c, 14, 43, 76
16, 277919, Note_on_c, 14, 43, 0
16, 278880, Note_on_c, 14, 43, 76
16, 279059, Note_on_c, 14, 43, 0
16, 279120, Note_on_c, 14, 45, 76
16, 279299, Note_on_c, 14, 45, 0
16, 279360, Note_on_c, 14, 47, 76
16, 279599, Note_on_c, 14, 47, 0
16, 279600, Note_on_c, 14, 43, 76
16, 279839, Note_on_c, 14, 43, 0
16, 281760, Note_on_c, 14, 53, 84
16, 281999, Note_on_c, 14, 53, 0
16, 282000, Note_on_c, 14, 48, 76
16, 282239, Note_on_c, 14, 48, 0
16, 282720, Note_on_c, 14, 53, 76
16, 282959, Note_on_c, 14, 53, 0
16, 282960, Note_on_c, 14, 48, 76
16, 283179, Note_on_c, 14, 48, 0
16, 283200, Note_on_c, 14, 55, 76
16, 283439, Note_on_c, 14, 55, 0
16, 283680, Note_on_c, 14, 43, 76
16, 283919, Note_on_c, 14, 43, 0
16, 284160, Note_on_c, 14, 60, 76
16, 284399, Note_on_c, 14, 60, 0
16, 284400, Note_on_c, 14, 55, 76
16, 284639, Note_on_c, 14, 55, 0
16, 284640, Note_on_c, 14, 56, 76
16, 284879, Note_on_c, 14, 56, 0
16, 284880, Note_on_c, 14, 51, 76
16, 285119, Note_on_c, 14, 51, 0
16, 285120, Note_on_c, 14, 53, 76
16, 285359, Note_on_c, 14, 53, 0
16, 285360, Note_on_c, 14, 48, 76
16, 285599, Note_on_c, 14, 48, 0
16, 286080, Note_on_c, 14, 53, 76
16, 286319, Note_on_c, 14, 53, 0
16, 286320, Note_on_c, 14, 48, 76
16, 286539, Note_on_c, 14, 48, 0
16, 286560, Note_on_c, 14, 53, 76
16, 286799, Note_on_c, 14, 53, 0
16, 286800, Note_on_c, 14, 48, 76
16, 287019, Note_on_c, 14, 48, 0
16, 287040, Note_on_c, 14, 55, 76
16, 287279, Note_on_c, 14, 55, 0
16, 287520, Note_on_c, 14, 43, 76
16, 287759, Note_on_c, 14, 43, 0
16, 288000, Note_on_c, 14, 48, 76
16, 288239, Note_on_c, 14, 48, 0
16, 290520, Note_on_c, 14, 43, 76
16, 290619, Note_on_c, 14, 43, 0
16, 290640, Note_on_c, 14, 43, 76
16, 290739, Note_on_c, 14, 43, 0
16, 290760, Note_on_c, 14, 43, 76
16, 290859, Note_on_c, 14, 43, 0
16, 290880, Note_on_c, 14, 48, 76
16, 290979, Note_on_c, 14, 48, 0
16, 291000, Note_on_c, 14, 43, 76
16, 291099, Note_on_c, 14, 43, 0
16, 291120, Note_on_c, 14, 43, 76
16, 291219, Note_on_c, 14, 43, 0
16, 291240, Note_on_c, 14, 43, 76
16, 291339, Note_on_c, 14, 43, 0
16, 291360, Note_on_c, 14, 43, 76
16, 291459, Note_on_c, 14, 43, 0
16, 291480, Note_on_c, 14, 43, 76
16, 291579, Note_on_c, 14, 43, 0
16, 291600, Note_on_c, 14, 43, 76
16, 291699, Note_on_c, 14, 43, 0
16, 291720, Note_on_c, 14, 43, 76
16, 291819, Note_on_c, 14, 43, 0
16, 291840, Note_on_c, 14, 43, 76
16, 291939, Note_on_c, 14, 43, 0
16, 291960, Note_on_c, 14, 43, 76
16, 292059, Note_on_c, 14, 43, 0
16, 292080, Note_on_c, 14, 43, 76
16, 292179, Note_on_c, 14, 43, 0
16, 292200, Note_on_c, 14, 43, 76
16, 292299, Note_on_c, 14, 43, 0
16, 292320, Note_on_c, 14, 43, 76
16, 292419, Note_on_c, 14, 43, 0
16, 292440, Note_on_c, 14, 43, 76
16, 292539, Note_on_c, 14, 43, 0
16, 292560, Note_on_c, 14, 43, 76
16, 292659, Note_on_c, 14, 43, 0
16, 292680, Note_on_c, 14, 43, 76
16, 292779, Note_on_c, 14, 43, 0
16, 292800, Note_on_c, 14, 39, 84
16, 294239, Note_on_c, 14, 39, 0
16, 294360, Note_on_c, 14, 41, 84
16, 294459, Note_on_c, 14, 41, 0
16, 294480, Note_on_c, 14, 41, 84
16, 294579, Note_on_c, 14, 41, 0
16, 294600, Note_on_c, 14, 41, 84
16, 294699, Note_on_c, 14, 41, 0
16, 294720, Note_on_c, 14, 38, 84
16, 296639, Note_on_c, 14, 38, 0
16, 297120, Note_on_c, 14, 43, 44
16, 298079, Note_on_c, 14, 43, 0
16, 298080, Note_on_c, 14, 43, 44
16, 299039, Note_on_c, 14, 43, 0
16, 299040, Note_on_c, 14, 43, 44
16, 299999, Note_on_c, 14, 43, 0
16, 300000, Note_on_c, 14, 43, 44
16, 300579, Note_on_c, 14, 43, 0
16, 300600, Note_on_c, 14, 43, 84
16, 300699, Note_on_c, 14, 43, 0
16, 300720, Note_on_c, 14, 43, 84
16, 300819, Note_on_c, 14, 43, 0
16, 300840, Note_on_c, 14, 43, 84
16, 300939, Note_on_c, 14, 43, 0
16, 300960, Note_on_c, 14, 48, 84
16, 301199, Note_on_c, 14, 48, 0
16, 301560, Note_on_c, 14, 43, 84
16, 301659, Note_on_c, 14, 43, 0
16, 301680, Note_on_c, 14, 43, 84
16, 301779, Note_on_c, 14, 43, 0
16, 301800, Note_on_c, 14, 43, 84
16, 301899, Note_on_c, 14, 43, 0
16, 301920, Note_on_c, 14, 48, 84
16, 302159, Note_on_c, 14, 48, 0
16, 302520, Note_on_c, 14, 43, 84
16, 302619, Note_on_c, 14, 43, 0
16, 302640, Note_on_c, 14, 43, 84
16, 302739, Note_on_c, 14, 43, 0
16, 302760, Note_on_c, 14, 43, 84
16, 302859, Note_on_c, 14, 43, 0
16, 302880, Note_on_c, 14, 48, 84
16, 303099, Note_on_c, 14, 48, 0
16, 303120, Note_on_c, 14, 43, 84
16, 303339, Note_on_c, 14, 43, 0
16, 303360, Note_on_c, 14, 48, 84
16, 303579, Note_on_c, 14, 48, 0
16, 303600, Note_on_c, 14, 43, 84
16, 303819, Note_on_c, 14, 43, 0
16, 303840, Note_on_c, 14, 48, 84
16, 304059, Note_on_c, 14, 48, 0
16, 304080, Note_on_c, 14, 55, 84
16, 304299, Note_on_c, 14, 55, 0
16, 304320, Note_on_c, 14, 60, 84
16, 304539, Note_on_c, 14, 60, 0
16, 304560, Note_on_c, 14, 55, 84
16, 304779, Note_on_c, 14, 55, 0
16, 304800, Note_on_c, 14, 60, 84
16, 305039, Note_on_c, 14, 60, 0
16, 305280, Note_on_c, 14, 43, 84
16, 305519, Note_on_c, 14, 43, 0
16, 305760, Note_on_c, 14, 48, 84
16, 305999, Note_on_c, 14, 48, 0
16, 305999, End_track
17, 0, Start_track
17, 0, Title_t, "Contrabass"
17, 0, MIDI_port, 0
17, 0, Program_c, 15, 48
17, 0, Control_c, 15, 7, 88
17, 0, Control_c, 15, 10, 100
17, 0, Control_c, 15, 11, 127
17, 120, Note_on_c, 15, 43, 84
17, 219, Note_on_c, 15, 43, 0
17, 240, Note_on_c, 15, 43, 84
17, 339, Note_on_c, 15, 43, 0
17, 360, Note_on_c, 15, 43, 84
17, 459, Note_on_c, 15, 43, 0
17, 480, Note_on_c, 15, 39, 84
17, 959, Note_on_c, 15, 39, 0
17, 1080, Note_on_c, 15, 41, 84
17, 1179, Note_on_c, 15, 41, 0
17, 1200, Note_on_c, 15, 41, 84
17, 1299, Note_on_c, 15, 41, 0
17, 1320, Note_on_c, 15, 41, 84
17, 1419, Note_on_c, 15, 41, 0
17, 1440, Note_on_c, 15, 38, 84
17, 2399, Note_on_c, 15, 38, 0
17, 8280, Note_on_c, 15, 35, 58
17, 8379, Note_on_c, 15, 35, 0
17, 8400, Note_on_c, 15, 35, 64
17, 8499, Note_on_c, 15, 35, 0
17, 8520, Note_on_c, 15, 35, 70
17, 8619, Note_on_c, 15, 35, 0
17, 8640, Note_on_c, 15, 36, 76
17, 8879, Note_on_c, 15, 36, 0
17, 9120, Note_on_c, 15, 32, 76
17, 9359, Note_on_c, 15, 32, 0
17, 9600, Note_on_c, 15, 31, 76
17, 9839, Note_on_c, 15, 31, 0
17, 10200, Note_on_c, 15, 32, 84
17, 10299, Note_on_c, 15, 32, 0
17, 10320, Note_on_c, 15, 32, 84
17, 10419, Note_on_c, 15, 32, 0
17, 10440, Note_on_c, 15, 32, 84
17, 10539, Note_on_c, 15, 32, 0
17, 10560, Note_on_c, 15, 29, 84
17, 11519, Note_on_c, 15, 29, 0
17, 13080, Note_on_c, 15, 31, 52
17, 13179, Note_on_c, 15, 31, 0
17, 13200, Note_on_c, 15, 31, 52
17, 13299, Note_on_c, 15, 31, 0
17, 13320, Note_on_c, 15, 31, 52
17, 13419, Note_on_c, 15, 31, 0
17, 13440, Note_on_c, 15, 36, 52
17, 13679, Note_on_c, 15, 36, 0
17, 15000, Note_on_c, 15, 31, 52
17, 15099, Note_on_c, 15, 31, 0
17, 15120, Note_on_c, 15, 31, 52
17, 15219, Note_on_c, 15, 31, 0
17, 15240, Note_on_c, 15, 31, 52
17, 15339, Note_on_c, 15, 31, 0
17, 15360, Note_on_c, 15, 36, 52
17, 15599, Note_on_c, 15, 36, 0
17, 15960, Note_on_c, 15, 36, 53
17, 16059, Note_on_c, 15, 36, 0
17, 16080, Note_on_c, 15, 36, 54
17, 16179, Note_on_c, 15, 36, 0
17, 16200, Note_on_c, 15, 36, 55
17, 16299, Note_on_c, 15, 36, 0
17, 16320, Note_on_c, 15, 36, 56
17, 16559, Note_on_c, 15, 36, 0
17, 16920, Note_on_c, 15, 36, 61
17, 17019, Note_on_c, 15, 36, 0
17, 17040, Note_on_c, 15, 36, 62
17, 17139, Note_on_c, 15, 36, 0
17, 17160, Note_on_c, 15, 36, 63
17, 17259, Note_on_c, 15, 36, 0
17, 17280, Note_on_c, 15, 36, 64
17, 17519, Note_on_c, 15, 36, 0
17, 17760, Note_on_c, 15, 36, 76
17, 17999, Note_on_c, 15, 36, 0
17, 18240, Note_on_c, 15, 36, 76
17, 18479, Note_on_c, 15, 36, 0
17, 18720, Note_on_c, 15, 36, 76
17, 18959, Note_on_c, 15, 36, 0
17, 19200, Note_on_c, 15, 36, 76
17, 19439, Note_on_c, 15, 36, 0
17, 19680, Note_on_c, 15, 36, 76
17, 19919, Note_on_c, 15, 36, 0
17, 20160, Note_on_c, 15, 36, 76
17, 20399, Note_on_c, 15, 36, 0
17, 20640, Note_on_c, 15, 36, 76
17, 22179, Note_on_c, 15, 36, 0
17, 22200, Note_on_c, 15, 36, 76
17, 22299, Note_on_c, 15, 36, 0
17, 22320, Note_on_c, 15, 36, 76
17, 22419, Note_on_c, 15, 36, 0
17, 22440, Note_on_c, 15, 36, 76
17, 22539, Note_on_c, 15, 36, 0
17, 22560, Note_on_c, 15, 31, 76
17, 24099, Note_on_c, 15, 31, 0
17, 24120, Note_on_c, 15, 31, 76
17, 24219, Note_on_c, 15, 31, 0
17, 24240, Note_on_c, 15, 36, 76
17, 24339, Note_on_c, 15, 36, 0
17, 24360, Note_on_c, 15, 36, 76
17, 24459, Note_on_c, 15, 36, 0
17, 24480, Note_on_c, 15, 36, 84
17, 24579, Note_on_c, 15, 36, 0
17, 24600, Note_on_c, 15, 36, 84
17, 24699, Note_on_c, 15, 36, 0
17, 24720, Note_on_c, 15, 36, 84
17, 24819, Note_on_c, 15, 36, 0
17, 24840, Note_on_c, 15, 36, 84
17, 24939, Note_on_c, 15, 36, 0
17, 24960, Note_on_c, 15, 36, 84
17, 25059, Note_on_c, 15, 36, 0
17, 25080, Note_on_c, 15, 36, 84
17, 25179, Note_on_c, 15, 36, 0
17, 25200, Note_on_c, 15, 36, 84
17, 25299, Note_on_c, 15, 36, 0
17, 25320, Note_on_c, 15, 36, 84
17, 25419, Note_on_c, 15, 36, 0
17, 25440, Note_on_c, 15, 36, 84
17, 25539, Note_on_c, 15, 36, 0
17, 25560, Note_on_c, 15, 36, 84
17, 25659, Note_on_c, 15, 36, 0
17, 25680, Note_on_c, 15, 36, 84
17, 25779, Note_on_c, 15, 36, 0
17, 25800, Note_on_c, 15, 36, 84
17, 25899, Note_on_c, 15, 36, 0
17, 25920, Note_on_c, 15, 36, 84
17, 26019, Note_on_c, 15, 36, 0
17, 26040, Note_on_c, 15, 36, 84
17, 26139, Note_on_c, 15, 36, 0
17, 26160, Note_on_c, 15, 36, 84
17, 26259, Note_on_c, 15, 36, 0
17, 26280, Note_on_c, 15, 36, 84
17, 26379, Note_on_c, 15, 36, 0
17, 26400, Note_on_c, 15, 36, 84
17, 26639, Note_on_c, 15, 36, 0
17, 27360, Note_on_c, 15, 38, 84
17, 27599, Note_on_c, 15, 38, 0
17, 30840, Note_on_c, 15, 34, 52
17, 30939, Note_on_c, 15, 34, 0
17, 30960, Note_on_c, 15, 34, 52
17, 31059, Note_on_c, 15, 34, 0
17, 31080, Note_on_c, 15, 34, 52
17, 31179, Note_on_c, 15, 34, 0
17, 31200, Note_on_c, 15, 39, 52
17, 31439, Note_on_c, 15, 39, 0
17, 32760, Note_on_c, 15, 34, 52
17, 32859, Note_on_c, 15, 34, 0
17, 32880, Note_on_c, 15, 34, 52
17, 32979, Note_on_c, 15, 34, 0
17, 33000, Note_on_c, 15, 34, 52
17, 33099, Note_on_c, 15, 34, 0
17, 33120, Note_on_c, 15, 39, 52
17, 33359, Note_on_c, 15, 39, 0
17, 34680, Note_on_c, 15, 34, 52
17, 34779, Note_on_c, 15, 34, 0
17, 34800, Note_on_c, 15, 34, 52
17, 34899, Note_on_c, 15, 34, 0
17, 34920, Note_on_c, 15, 34, 52
17, 35019, Note_on_c, 15, 34, 0
17, 35040, Note_on_c, 15, 39, 52
17, 35279, Note_on_c, 15, 39, 0
17, 36600, Note_on_c, 15, 36, 52
17, 36699, Note_on_c, 15, 36, 0
17, 36720, Note_on_c, 15, 36, 52
17, 36819, Note_on_c, 15, 36, 0
17, 36840, Note_on_c, 15, 36, 52
17, 36939, Note_on_c, 15, 36, 0
17, 36960, Note_on_c, 15, 41, 52
17, 37199, Note_on_c, 15, 41, 0
17, 38520, Note_on_c, 15, 39, 52
17, 38619, Note_on_c, 15, 39, 0
17, 38640, Note_on_c, 15, 39, 52
17, 38739, Note_on_c, 15, 39, 0
17, 38760, Note_on_c, 15, 39, 52
17, 38859, Note_on_c, 15, 39, 0
17, 38880, Note_on_c, 15, 44, 52
17, 39119, Note_on_c, 15, 44, 0
17, 39840, Control_c, 15, 11, 64
17, 39940, Control_c, 15, 11, 65
17, 39960, Note_on_c, 15, 45, 84
17, 40040, Control_c, 15, 11, 67
17, 40059, Note_on_c, 15, 45, 0
17, 40080, Note_on_c, 15, 45, 84
17, 40140, Control_c, 15, 11, 68
17, 40179, Note_on_c, 15, 45, 0
17, 40200, Note_on_c, 15, 45, 84
17, 40240, Control_c, 15, 11, 69
17, 40299, Note_on_c, 15, 45, 0
17, 40320, Note_on_c, 15, 45, 84
17, 40340, Control_c, 15, 11, 71
17, 40440, Control_c, 15, 11, 72
17, 40540, Control_c, 15, 11, 73
17, 40559, Note_on_c, 15, 45, 0
17, 40640, Control_c, 15, 11, 75
17, 40740, Control_c, 15, 11, 76
17, 40840, Control_c, 15, 11, 77
17, 40920, Note_on_c, 15, 46, 84
17, 40940, Control_c, 15, 11, 78
17, 41019, Note_on_c, 15, 46, 0
17, 41040, Control_c, 15, 11, 80
17, 41040, Note_on_c, 15, 46, 84
17, 41139, Note_on_c, 15, 46, 0
17, 41140, Control_c, 15, 11, 81
17, 41160, Note_on_c, 15, 46, 84
17, 41240, Control_c, 15, 11, 82
17, 41259, Note_on_c, 15, 46, 0
17, 41280, Note_on_c, 15, 46, 84
17, 41340, Control_c, 15, 11, 84
17, 41440, Control_c, 15, 11, 85
17, 41519, Note_on_c, 15, 46, 0
17, 41540, Control_c, 15, 11, 86
17, 41640, Control_c, 15, 11, 88
17, 41740, Control_c, 15, 11, 89
17, 41840, Control_c, 15, 11, 90
17, 41880, Note_on_c, 15, 47, 84
17, 41940, Control_c, 15, 11, 92
17, 41979, Note_on_c, 15, 47, 0
17, 42000, Note_on_c, 15, 47, 84
17, 42040, Control_c, 15, 11, 93
17, 42099, Note_on_c, 15, 47, 0
17, 42120, Note_on_c, 15, 47, 84
17, 42140, Control_c, 15, 11, 94
17, 42219, Note_on_c, 15, 47, 0
17, 42240, Note_on_c, 15, 47, 84
17, 42240, Control_c, 15, 11, 96
17, 42340, Control_c, 15, 11, 97
17, 42440, Control_c, 15, 11, 98
17, 42479, Note_on_c, 15, 47, 0
17, 42540, Control_c, 15, 11, 99
17, 42640, Control_c, 15, 11, 101
17, 42740, Control_c, 15, 11, 102
17, 42840, Note_on_c, 15, 48, 84
17, 42840, Control_c, 15, 11, 103
17, 42939, Note_on_c, 15, 48, 0
17, 42940, Control_c, 15, 11, 105
17, 42960, Note_on_c, 15, 48, 84
17, 43040, Control_c, 15, 11, 106
17, 43059, Note_on_c, 15, 48, 0
17, 43080, Note_on_c, 15, 48, 84
17, 43140, Control_c, 15, 11, 107
17, 43179, Note_on_c, 15, 48, 0
17, 43200, Note_on_c, 15, 48, 84
17, 43240, Control_c, 15, 11, 109
17, 43340, Control_c, 15, 11, 110
17, 43439, Note_on_c, 15, 48, 0
17, 43440, Control_c, 15, 11, 111
17, 43540, Control_c, 15, 11, 113
17, 43640, Control_c, 15, 11, 114
17, 43740, Control_c, 15, 11, 115
17, 43800, Note_on_c, 15, 48, 84
17, 43840, Control_c, 15, 11, 117
17, 43899, Note_on_c, 15, 48, 0
17, 43920, Note_on_c, 15, 48, 84
17, 43940, Control_c, 15, 11, 118
17, 44019, Note_on_c, 15, 48, 0
17, 44040, Control_c, 15, 11, 119
17, 44040, Note_on_c, 15, 48, 84
17, 44139, Note_on_c, 15, 48, 0
17, 44140, Control_c, 15, 11, 120
17, 44160, Note_on_c, 15, 48, 84
17, 44240, Control_c, 15, 11, 122
17, 44340, Control_c, 15, 11, 123
17, 44379, Note_on_c, 15, 48, 0
17, 44400, Note_on_c, 15, 48, 84
17, 44440, Control_c, 15, 11, 124
17, 44499, Note_on_c, 15, 48, 0
17, 44520, Note_on_c, 15, 48, 84
17, 44540, Control_c, 15, 11, 127
17, 44619, Note_on_c, 15, 48, 0
17, 44640, Note_on_c, 15, 50, 84
17, 45339, Note_on_c, 15, 50, 0
17, 45360, Note_on_c, 15, 38, 84
17, 45579, Note_on_c, 15, 38, 0
17, 45600, Note_on_c, 15, 39, 84
17, 45839, Note_on_c, 15, 39, 0
17, 46080, Note_on_c, 15, 41, 84
17, 46319, Note_on_c, 15, 41, 0
17, 46560, Note_on_c, 15, 43, 84
17, 46799, Note_on_c, 15, 43, 0
17, 47040, Note_on_c, 15, 44, 84
17, 47279, Note_on_c, 15, 44, 0
17, 47520, Note_on_c, 15, 46, 84
17, 47759, Note_on_c, 15, 46, 0
17, 48000, Note_on_c, 15, 34, 84
17, 48239, Note_on_c, 15, 34, 0
17, 48480, Note_on_c, 15, 38, 84
17, 48699, Note_on_c, 15, 38, 0
17, 48720, Note_on_c, 15, 41, 84
17, 48939, Note_on_c, 15, 41, 0
17, 48960, Note_on_c, 15, 38, 84
17, 49179, Note_on_c, 15, 38, 0
17, 49200, Note_on_c, 15, 41, 84
17, 49419, Note_on_c, 15, 41, 0
17, 49440, Note_on_c, 15, 39, 84
17, 49659, Note_on_c, 15, 39, 0
17, 49680, Note_on_c, 15, 43, 84
17, 49899, Note_on_c, 15, 43, 0
17, 49920, Note_on_c, 15, 41, 84
17, 50139, Note_on_c, 15, 41, 0
17, 50160, Note_on_c, 15, 44, 84
17, 50379, Note_on_c, 15, 44, 0
17, 50400, Note_on_c, 15, 43, 84
17, 50619, Note_on_c, 15, 43, 0
17, 50640, Note_on_c, 15, 46, 84
17, 50859, Note_on_c, 15, 46, 0
17, 50880, Note_on_c, 15, 44, 84
17, 51099, Note_on_c, 15, 44, 0
17, 51120, Note_on_c, 15, 48, 84
17, 51339, Note_on_c, 15, 48, 0
17, 51360, Note_on_c, 15, 46, 84
17, 51579, Note_on_c, 15, 46, 0
17, 51600, Note_on_c, 15, 34, 84
17, 51819, Note_on_c, 15, 34, 0
17, 51840, Note_on_c, 15, 46, 84
17, 52059, Note_on_c, 15, 46, 0
17, 52080, Note_on_c, 15, 34, 84
17, 52299, Note_on_c, 15, 34, 0
17, 52320, Note_on_c, 15, 39, 84
17, 53859, Note_on_c, 15, 39, 0
17, 53880, Note_on_c, 15, 34, 84
17, 53979, Note_on_c, 15, 34, 0
17, 54000, Note_on_c, 15, 34, 84
17, 54099, Note_on_c, 15, 34, 0
17, 54120, Note_on_c, 15, 34, 84
17, 54219, Note_on_c, 15, 34, 0
17, 54240, Note_on_c, 15, 39, 84
17, 55779, Note_on_c, 15, 39, 0
17, 55800, Note_on_c, 15, 34, 84
17, 55899, Note_on_c, 15, 34, 0
17, 55920, Note_on_c, 15, 34, 84
17, 56019, Note_on_c, 15, 34, 0
17, 56040, Note_on_c, 15, 34, 84
17, 56139, Note_on_c, 15, 34, 0
17, 56160, Note_on_c, 15, 39, 84
17, 56399, Note_on_c, 15, 39, 0
17, 56760, Note_on_c, 15, 34, 84
17, 56859, Note_on_c, 15, 34, 0
17, 56880, Note_on_c, 15, 34, 84
17, 56979, Note_on_c, 15, 34, 0
17, 57000, Note_on_c, 15, 34, 84
17, 57099, Note_on_c, 15, 34, 0
17, 57120, Note_on_c, 15, 39, 84
17, 57359, Note_on_c, 15, 39, 0
17, 57720, Note_on_c, 15, 34, 84
17, 57819, Note_on_c, 15, 34, 0
17, 57840, Note_on_c, 15, 34, 84
17, 57939, Note_on_c, 15, 34, 0
17, 57960, Note_on_c, 15, 34, 84
17, 58059, Note_on_c, 15, 34, 0
17, 58080, Note_on_c, 15, 39, 84
17, 58319, Note_on_c, 15, 39, 0
17, 59640, Note_on_c, 15, 43, 84
17, 59739, Note_on_c, 15, 43, 0
17, 59760, Note_on_c, 15, 43, 84
17, 59859, Note_on_c, 15, 43, 0
17, 59880, Note_on_c, 15, 43, 84
17, 59979, Note_on_c, 15, 43, 0
17, 60000, Note_on_c, 15, 39, 84
17, 60479, Note_on_c, 15, 39, 0
17, 60600, Note_on_c, 15, 41, 84
17, 60699, Note_on_c, 15, 41, 0
17, 60720, Note_on_c, 15, 41, 84
17, 60819, Note_on_c, 15, 41, 0
17, 60840, Note_on_c, 15, 41, 84
17, 60939, Note_on_c, 15, 41, 0
17, 60960, Note_on_c, 15, 38, 84
17, 61919, Note_on_c, 15, 38, 0
17, 67800, Note_on_c, 15, 35, 58
17, 67899, Note_on_c, 15, 35, 0
17, 67920, Note_on_c, 15, 35, 64
17, 68019, Note_on_c, 15, 35, 0
17, 68040, Note_on_c, 15, 35, 70
17, 68139, Note_on_c, 15, 35, 0
17, 68160, Note_on_c, 15, 36, 76
17, 68399, Note_on_c, 15, 36, 0
17, 68640, Note_on_c, 15, 32, 76
17, 68879, Note_on_c, 15, 32, 0
17, 69120, Note_on_c, 15, 31, 76
17, 69359, Note_on_c, 15, 31, 0
17, 69720, Note_on_c, 15, 32, 84
17, 69819, Note_on_c, 15, 32, 0
17, 69840, Note_on_c, 15, 32, 84
17, 69939, Note_on_c, 15, 32, 0
17, 69960, Note_on_c, 15, 32, 84
17, 70059, Note_on_c, 15, 32, 0
17, 70080, Note_on_c, 15, 29, 84
17, 71039, Note_on_c, 15, 29, 0
17, 72600, Note_on_c, 15, 31, 52
17, 72699, Note_on_c, 15, 31, 0
17, 72720, Note_on_c, 15, 31, 52
17, 72819, Note_on_c, 15, 31, 0
17, 72840, Note_on_c, 15, 31, 52
17, 72939, Note_on_c, 15, 31, 0
17, 72960, Note_on_c, 15, 36, 52
17, 73199, Note_on_c, 15, 36, 0
17, 74520, Note_on_c, 15, 31, 52
17, 74619, Note_on_c, 15, 31, 0
17, 74640, Note_on_c, 15, 31, 52
17, 74739, Note_on_c, 15, 31, 0
17, 74760, Note_on_c, 15, 31, 52
17, 74859, Note_on_c, 15, 31, 0
17, 74880, Note_on_c, 15, 36, 52
17, 75119, Note_on_c, 15, 36, 0
17, 75480, Note_on_c, 15, 36, 53
17, 75579, Note_on_c, 15, 36, 0
17, 75600, Note_on_c, 15, 36, 54
17, 75699, Note_on_c, 15, 36, 0
17, 75720, Note_on_c, 15, 36, 55
17, 75819, Note_on_c, 15, 36, 0
17, 75840, Note_on_c, 15, 36, 56
17, 76079, Note_on_c, 15, 36, 0
17, 76440, Note_on_c, 15, 36, 61
17, 76539, Note_on_c, 15, 36, 0
17, 76560, Note_on_c, 15, 36, 62
17, 76659, Note_on_c, 15, 36, 0
17, 76680, Note_on_c, 15, 36, 63
17, 76779, Note_on_c, 15, 36, 0
17, 76800, Note_on_c, 15, 36, 64
17, 77039, Note_on_c, 15, 36, 0
17, 77280, Note_on_c, 15, 36, 76
17, 77519, Note_on_c, 15, 36, 0
17, 77760, Note_on_c, 15, 36, 76
17, 77999, Note_on_c, 15, 36, 0
17, 78240, Note_on_c, 15, 36, 76
17, 78479, Note_on_c, 15, 36, 0
17, 78720, Note_on_c, 15, 36, 76
17, 78959, Note_on_c, 15, 36, 0
17, 79200, Note_on_c, 15, 36, 76
17, 79439, Note_on_c, 15, 36, 0
17, 79680, Note_on_c, 15, 36, 76
17, 79919, Note_on_c, 15, 36, 0
17, 80160, Note_on_c, 15, 36, 76
17, 81699, Note_on_c, 15, 36, 0
17, 81720, Note_on_c, 15, 36, 76
17, 81819, Note_on_c, 15, 36, 0
17, 81840, Note_on_c, 15, 36, 76
17, 81939, Note_on_c, 15, 36, 0
17, 81960, Note_on_c, 15, 36, 76
17, 82059, Note_on_c, 15, 36, 0
17, 82080, Note_on_c, 15, 31, 76
17, 83619, Note_on_c, 15, 31, 0
17, 83640, Note_on_c, 15, 31, 76
17, 83739, Note_on_c, 15, 31, 0
17, 83760, Note_on_c, 15, 36, 76
17, 83859, Note_on_c, 15, 36, 0
17, 83880, Note_on_c, 15, 36, 76
17, 83979, Note_on_c, 15, 36, 0
17, 84000, Note_on_c, 15, 36, 84
17, 84099, Note_on_c, 15, 36, 0
17, 84120, Note_on_c, 15, 36, 84
17, 84219, Note_on_c, 15, 36, 0
17, 84240, Note_on_c, 15, 36, 84
17, 84339, Note_on_c, 15, 36, 0
17, 84360, Note_on_c, 15, 36, 84
17, 84459, Note_on_c, 15, 36, 0
17, 84480, Note_on_c, 15, 36, 84
17, 84579, Note_on_c, 15, 36, 0
17, 84600, Note_on_c, 15, 36, 84
17, 84699, Note_on_c, 15, 36, 0
17, 84720, Note_on_c, 15, 36, 84
17, 84819, Note_on_c, 15, 36, 0
17, 84840, Note_on_c, 15, 36, 84
17, 84939, Note_on_c, 15, 36, 0
17, 84960, Note_on_c, 15, 36, 84
17, 85059, Note_on_c, 15, 36, 0
17, 85080, Note_on_c, 15, 36, 84
17, 85179, Note_on_c, 15, 36, 0
17, 85200, Note_on_c, 15, 36, 84
17, 85299, Note_on_c, 15, 36, 0
17, 85320, Note_on_c, 15, 36, 84
17, 85419, Note_on_c, 15, 36, 0
17, 85440, Note_on_c, 15, 36, 84
17, 85539, Note_on_c, 15, 36, 0
17, 85560, Note_on_c, 15, 36, 84
17, 85659, Note_on_c, 15, 36, 0
17, 85680, Note_on_c, 15, 36, 84
17, 85779, Note_on_c, 15, 36, 0
17, 85800, Note_on_c, 15, 36, 84
17, 85899, Note_on_c, 15, 36, 0
17, 85920, Note_on_c, 15, 36, 84
17, 86159, Note_on_c, 15, 36, 0
17, 86880, Note_on_c, 15, 38, 84
17, 87119, Note_on_c, 15, 38, 0
17, 90360, Note_on_c, 15, 34, 52
17, 90459, Note_on_c, 15, 34, 0
17, 90480, Note_on_c, 15, 34, 52
17, 90579, Note_on_c, 15, 34, 0
17, 90600, Note_on_c, 15, 34, 52
17, 90699, Note_on_c, 15, 34, 0
17, 90720, Note_on_c, 15, 39, 52
17, 90959, Note_on_c, 15, 39, 0
17, 92280, Note_on_c, 15, 34, 52
17, 92379, Note_on_c, 15, 34, 0
17, 92400, Note_on_c, 15, 34, 52
17, 92499, Note_on_c, 15, 34, 0
17, 92520, Note_on_c, 15, 34, 52
17, 92619, Note_on_c, 15, 34, 0
17, 92640, Note_on_c, 15, 39, 52
17, 92879, Note_on_c, 15, 39, 0
17, 94200, Note_on_c, 15, 34, 52
17, 94299, Note_on_c, 15, 34, 0
17, 94320, Note_on_c, 15, 34, 52
17, 94419, Note_on_c, 15, 34, 0
17, 94440, Note_on_c, 15, 34, 52
17, 94539, Note_on_c, 15, 34, 0
17, 94560, Note_on_c, 15, 39, 52
17, 94799, Note_on_c, 15, 39, 0
17, 96120, Note_on_c, 15, 36, 52
17, 96219, Note_on_c, 15, 36, 0
17, 96240, Note_on_c, 15, 36, 52
17, 96339, Note_on_c, 15, 36, 0
17, 96360, Note_on_c, 15, 36, 52
17, 96459, Note_on_c, 15, 36, 0
17, 96480, Note_on_c, 15, 41, 52
17, 96719, Note_on_c, 15, 41, 0
17, 98040, Note_on_c, 15, 39, 52
17, 98139, Note_on_c, 15, 39, 0
17, 98160, Note_on_c, 15, 39, 52
17, 98259, Note_on_c, 15, 39, 0
17, 98280, Note_on_c, 15, 39, 52
17, 98379, Note_on_c, 15, 39, 0
17, 98400, Note_on_c, 15, 44, 52
17, 98639, Note_on_c, 15, 44, 0
17, 99360, Control_c, 15, 11, 64
17, 99460, Control_c, 15, 11, 65
17, 99480, Note_on_c, 15, 45, 84
17, 99560, Control_c, 15, 11, 67
17, 99579, Note_on_c, 15, 45, 0
17, 99600, Note_on_c, 15, 45, 84
17, 99660, Control_c, 15, 11, 68
17, 99699, Note_on_c, 15, 45, 0
17, 99720, Note_on_c, 15, 45, 84
17, 99760, Control_c, 15, 11, 69
17, 99819, Note_on_c, 15, 45, 0
17, 99840, Note_on_c, 15, 45, 84
17, 99860, Control_c, 15, 11, 71
17, 99960, Control_c, 15, 11, 72
17, 100060, Control_c, 15, 11, 73
17, 100079, Note_on_c, 15, 45, 0
17, 100160, Control_c, 15, 11, 75
17, 100260, Control_c, 15, 11, 76
17, 100360, Control_c, 15, 11, 77
17, 100440, Note_on_c, 15, 46, 84
17, 100460, Control_c, 15, 11, 78
17, 100539, Note_on_c, 15, 46, 0
17, 100560, Control_c, 15, 11, 80
17, 100560, Note_on_c, 15, 46, 84
17, 100659, Note_on_c, 15, 46, 0
17, 100660, Control_c, 15, 11, 81
17, 100680, Note_on_c, 15, 46, 84
17, 100760, Control_c, 15, 11, 82
17, 100779, Note_on_c, 15, 46, 0
17, 100800, Note_on_c, 15, 46, 84
17, 100860, Control_c, 15, 11, 84
17, 100960, Control_c, 15, 11, 85
17, 101039, Note_on_c, 15, 46, 0
17, 101060, Control_c, 15, 11, 86
17, 101160, Control_c, 15, 11, 88
17, 101260, Control_c, 15, 11, 89
17, 101360, Control_c, 15, 11, 90
17, 101400, Note_on_c, 15, 47, 84
17, 101460, Control_c, 15, 11, 92
17, 101499, Note_on_c, 15, 47, 0
17, 101520, Note_on_c, 15, 47, 84
17, 101560, Control_c, 15, 11, 93
17, 101619, Note_on_c, 15, 47, 0
17, 101640, Note_on_c, 15, 47, 84
17, 101660, Control_c, 15, 11, 94
17, 101739, Note_on_c, 15, 47, 0
17, 101760, Control_c, 15, 11, 96
17, 101760, Note_on_c, 15, 47, 84
17, 101860, Control_c, 15, 11, 97
17, 101960, Control_c, 15, 11, 98
17, 101999, Note_on_c, 15, 47, 0
17, 102060, Control_c, 15, 11, 99
17, 102160, Control_c, 15, 11, 101
17, 102260, Control_c, 15, 11, 102
17, 102360, Note_on_c, 15, 48, 84
17, 102360, Control_c, 15, 11, 103
17, 102459, Note_on_c, 15, 48, 0
17, 102460, Control_c, 15, 11, 105
17, 102480, Note_on_c, 15, 48, 84
17, 102560, Control_c, 15, 11, 106
17, 102579, Note_on_c, 15, 48, 0
17, 102600, Note_on_c, 15, 48, 84
17, 102660, Control_c, 15, 11, 107
17, 102699, Note_on_c, 15, 48, 0
17, 102720, Note_on_c, 15, 48, 84
17, 102760, Control_c, 15, 11, 109
17, 102860, Control_c, 15, 11, 110
17, 102959, Note_on_c, 15, 48, 0
17, 102960, Control_c, 15, 11, 111
17, 103060, Control_c, 15, 11, 113
17, 103160, Control_c, 15, 11, 114
17, 103260, Control_c, 15, 11, 115
17, 103320, Note_on_c, 15, 48, 84
17, 103360, Control_c, 15, 11, 117
17, 103419, Note_on_c, 15, 48, 0
17, 103440, Note_on_c, 15, 48, 84
17, 103460, Control_c, 15, 11, 118
17, 103539, Note_on_c, 15, 48, 0
17, 103560, Note_on_c, 15, 48, 84
17, 103560, Control_c, 15, 11, 119
17, 103659, Note_on_c, 15, 48, 0
17, 103660, Control_c, 15, 11, 120
17, 103680, Note_on_c, 15, 48, 84
17, 103760, Control_c, 15, 11, 122
17, 103860, Control_c, 15, 11, 123
17, 103899, Note_on_c, 15, 48, 0
17, 103920, Note_on_c, 15, 48, 84
17, 103960, Control_c, 15, 11, 124
17, 104019, Note_on_c, 15, 48, 0
17, 104040, Note_on_c, 15, 48, 84
17, 104060, Control_c, 15, 11, 127
17, 104139, Note_on_c, 15, 48, 0
17, 104160, Note_on_c, 15, 50, 84
17, 104859, Note_on_c, 15, 50, 0
17, 104880, Note_on_c, 15, 38, 84
17, 105099, Note_on_c, 15, 38, 0
17, 105120, Note_on_c, 15, 39, 84
17, 105359, Note_on_c, 15, 39, 0
17, 105600, Note_on_c, 15, 41, 84
17, 105839, Note_on_c, 15, 41, 0
17, 106080, Note_on_c, 15, 43, 84
17, 106319, Note_on_c, 15, 43, 0
17, 106560, Note_on_c, 15, 44, 84
17, 106799, Note_on_c, 15, 44, 0
17, 107040, Note_on_c, 15, 46, 84
17, 107279, Note_on_c, 15, 46, 0
17, 107520, Note_on_c, 15, 34, 84
17, 107759, Note_on_c, 15, 34, 0
17, 108000, Note_on_c, 15, 38, 84
17, 108219, Note_on_c, 15, 38, 0
17, 108240, Note_on_c, 15, 41, 84
17, 108459, Note_on_c, 15, 41, 0
17, 108480, Note_on_c, 15, 38, 84
17, 108699, Note_on_c, 15, 38, 0
17, 108720, Note_on_c, 15, 41, 84
17, 108939, Note_on_c, 15, 41, 0
17, 108960, Note_on_c, 15, 39, 84
17, 109179, Note_on_c, 15, 39, 0
17, 109200, Note_on_c, 15, 43, 84
17, 109419, Note_on_c, 15, 43, 0
17, 109440, Note_on_c, 15, 41, 84
17, 109659, Note_on_c, 15, 41, 0
17, 109680, Note_on_c, 15, 44, 84
17, 109899, Note_on_c, 15, 44, 0
17, 109920, Note_on_c, 15, 43, 84
17, 110139, Note_on_c, 15, 43, 0
17, 110160, Note_on_c, 15, 46, 84
17, 110379, Note_on_c, 15, 46, 0
17, 110400, Note_on_c, 15, 44, 84
17, 110619, Note_on_c, 15, 44, 0
17, 110640, Note_on_c, 15, 48, 84
17, 110859, Note_on_c, 15, 48, 0
17, 110880, Note_on_c, 15, 46, 84
17, 111099, Note_on_c, 15, 46, 0
17, 111120, Note_on_c, 15, 34, 84
17, 111339, Note_on_c, 15, 34, 0
17, 111360, Note_on_c, 15, 46, 84
17, 111579, Note_on_c, 15, 46, 0
17, 111600, Note_on_c, 15, 34, 84
17, 111819, Note_on_c, 15, 34, 0
17, 111840, Note_on_c, 15, 39, 84
17, 113379, Note_on_c, 15, 39, 0
17, 113400, Note_on_c, 15, 34, 84
17, 113499, Note_on_c, 15, 34, 0
17, 113520, Note_on_c, 15, 34, 84
17, 113619, Note_on_c, 15, 34, 0
17, 113640, Note_on_c, 15, 34, 84
17, 113739, Note_on_c, 15, 34, 0
17, 113760, Note_on_c, 15, 39, 84
17, 115299, Note_on_c, 15, 39, 0
17, 115320, Note_on_c, 15, 34, 84
17, 115419, Note_on_c, 15, 34, 0
17, 115440, Note_on_c, 15, 34, 84
17, 115539, Note_on_c, 15, 34, 0
17, 115560, Note_on_c, 15, 34, 84
17, 115659, Note_on_c, 15, 34, 0
17, 115680, Note_on_c, 15, 39, 84
17, 115919, Note_on_c, 15, 39, 0
17, 116280, Note_on_c, 15, 34, 84
17, 116379, Note_on_c, 15, 34, 0
17, 116400, Note_on_c, 15, 34, 84
17, 116499, Note_on_c, 15, 34, 0
17, 116520, Note_on_c, 15, 34, 84
17, 116619, Note_on_c, 15, 34, 0
17, 116640, Note_on_c, 15, 39, 84
17, 116879, Note_on_c, 15, 39, 0
17, 117240, Note_on_c, 15, 34, 84
17, 117339, Note_on_c, 15, 34, 0
17, 117360, Note_on_c, 15, 34, 84
17, 117459, Note_on_c, 15, 34, 0
17, 117480, Note_on_c, 15, 34, 84
17, 117579, Note_on_c, 15, 34, 0
17, 117600, Note_on_c, 15, 39, 84
17, 117839, Note_on_c, 15, 39, 0
17, 119640, Note_on_c, 15, 37, 84
17, 119739, Note_on_c, 15, 37, 0
17, 119760, Note_on_c, 15, 37, 84
17, 119859, Note_on_c, 15, 37, 0
17, 119880, Note_on_c, 15, 37, 84
17, 119979, Note_on_c, 15, 37, 0
17, 120000, Note_on_c, 15, 36, 84
17, 120959, Note_on_c, 15, 36, 0
17, 128640, Program_c, 15, 45
17, 128880, Note_on_c, 15, 31, 48
17, 129119, Note_on_c, 15, 31, 0
17, 129120, Note_on_c, 15, 36, 48
17, 129359, Note_on_c, 15, 36, 0
17, 129600, Note_on_c, 15, 31, 48
17, 129839, Note_on_c, 15, 31, 0
17, 130080, Note_on_c, 15, 36, 48
17, 130319, Note_on_c, 15, 36, 0
17, 130560, Note_on_c, 15, 31, 48
17, 130799, Note_on_c, 15, 31, 0
17, 131040, Note_on_c, 15, 36, 48
17, 131279, Note_on_c, 15, 36, 0
17, 132000, Note_on_c, 15, 33, 48
17, 132239, Note_on_c, 15, 33, 0
17, 132480, Note_on_c, 15, 38, 48
17, 132719, Note_on_c, 15, 38, 0
17, 132960, Note_on_c, 15, 43, 48
17, 133199, Note_on_c, 15, 43, 0
17, 133440, Note_on_c, 15, 38, 48
17, 133679, Note_on_c, 15, 38, 0
17, 133920, Note_on_c, 15, 43, 48
17, 134159, Note_on_c, 15, 43, 0
17, 134400, Note_on_c, 15, 38, 48
17, 134639, Note_on_c, 15, 38, 0
17, 134878, Program_c, 15, 48
17, 134880, Note_on_c, 15, 31, 52
17, 135359, Note_on_c, 15, 31, 0
17, 135360, Note_on_c, 15, 31, 52
17, 135459, Note_on_c, 15, 31, 0
17, 135480, Note_on_c, 15, 31, 52
17, 135579, Note_on_c, 15, 31, 0
17, 135600, Note_on_c, 15, 31, 52
17, 135699, Note_on_c, 15, 31, 0
17, 135720, Note_on_c, 15, 31, 52
17, 135819, Note_on_c, 15, 31, 0
17, 135840, Note_on_c, 15, 33, 52
17, 136319, Note_on_c, 15, 33, 0
17, 136320, Note_on_c, 15, 33, 52
17, 136419, Note_on_c, 15, 33, 0
17, 136440, Note_on_c, 15, 33, 52
17, 136539, Note_on_c, 15, 33, 0
17, 136560, Note_on_c, 15, 33, 52
17, 136659, Note_on_c, 15, 33, 0
17, 136680, Note_on_c, 15, 33, 52
17, 136779, Note_on_c, 15, 33, 0
17, 136800, Note_on_c, 15, 33, 52
17, 137279, Note_on_c, 15, 33, 0
17, 137280, Note_on_c, 15, 33, 52
17, 137379, Note_on_c, 15, 33, 0
17, 137400, Note_on_c, 15, 33, 52
17, 137499, Note_on_c, 15, 33, 0
17, 137520, Note_on_c, 15, 33, 52
17, 137619, Note_on_c, 15, 33, 0
17, 137640, Note_on_c, 15, 33, 52
17, 137739, Note_on_c, 15, 33, 0
17, 137760, Note_on_c, 15, 34, 52
17, 138239, Note_on_c, 15, 34, 0
17, 138240, Note_on_c, 15, 34, 52
17, 138339, Note_on_c, 15, 34, 0
17, 138360, Note_on_c, 15, 34, 52
17, 138459, Note_on_c, 15, 34, 0
17, 138480, Note_on_c, 15, 34, 52
17, 138579, Note_on_c, 15, 34, 0
17, 138600, Note_on_c, 15, 34, 52
17, 138699, Note_on_c, 15, 34, 0
17, 138718, Control_c, 15, 11, 80
17, 138720, Note_on_c, 15, 34, 76
17, 138720, Control_c, 15, 11, 80
17, 138760, Control_c, 15, 11, 82
17, 138800, Control_c, 15, 11, 84
17, 138840, Control_c, 15, 11, 86
17, 138880, Control_c, 15, 11, 88
17, 138920, Control_c, 15, 11, 90
17, 138960, Control_c, 15, 11, 92
17, 139000, Control_c, 15, 11, 94
17, 139040, Control_c, 15, 11, 96
17, 139080, Control_c, 15, 11, 98
17, 139120, Control_c, 15, 11, 100
17, 139160, Control_c, 15, 11, 102
17, 139199, Note_on_c, 15, 34, 0
17, 139200, Note_on_c, 15, 34, 76
17, 139200, Control_c, 15, 11, 104
17, 139240, Control_c, 15, 11, 105
17, 139280, Control_c, 15, 11, 107
17, 139299, Note_on_c, 15, 34, 0
17, 139320, Note_on_c, 15, 34, 76
17, 139320, Control_c, 15, 11, 109
17, 139360, Control_c, 15, 11, 111
17, 139400, Control_c, 15, 11, 113
17, 139419, Note_on_c, 15, 34, 0
17, 139440, Note_on_c, 15, 34, 76
17, 139440, Control_c, 15, 11, 115
17, 139480, Control_c, 15, 11, 117
17, 139520, Control_c, 15, 11, 119
17, 139539, Note_on_c, 15, 34, 0
17, 139560, Control_c, 15, 11, 121
17, 139560, Note_on_c, 15, 34, 76
17, 139600, Control_c, 15, 11, 123
17, 139640, Control_c, 15, 11, 127
17, 139659, Note_on_c, 15, 34, 0
17, 139680, Note_on_c, 15, 36, 76
17, 139779, Note_on_c, 15, 36, 0
17, 139800, Note_on_c, 15, 36, 76
17, 139899, Note_on_c, 15, 36, 0
17, 139920, Note_on_c, 15, 36, 76
17, 140019, Note_on_c, 15, 36, 0
17, 140040, Note_on_c, 15, 36, 76
17, 140139, Note_on_c, 15, 36, 0
17, 140160, Note_on_c, 15, 36, 76
17, 140259, Note_on_c, 15, 36, 0
17, 140280, Note_on_c, 15, 36, 76
17, 140379, Note_on_c, 15, 36, 0
17, 140400, Note_on_c, 15, 36, 76
17, 140499, Note_on_c, 15, 36, 0
17, 140520, Note_on_c, 15, 36, 76
17, 140619, Note_on_c, 15, 36, 0
17, 140640, Note_on_c, 15, 36, 76
17, 140879, Note_on_c, 15, 36, 0
17, 141240, Note_on_c, 15, 37, 76
17, 141339, Note_on_c, 15, 37, 0
17, 141360, Note_on_c, 15, 37, 76
17, 141459, Note_on_c, 15, 37, 0
17, 141480, Note_on_c, 15, 37, 76
17, 141579, Note_on_c, 15, 37, 0
17, 141600, Note_on_c, 15, 37, 76
17, 141699, Note_on_c, 15, 37, 0
17, 141720, Note_on_c, 15, 37, 76
17, 141819, Note_on_c, 15, 37, 0
17, 141840, Note_on_c, 15, 37, 76
17, 141939, Note_on_c, 15, 37, 0
17, 141960, Note_on_c, 15, 37, 76
17, 142059, Note_on_c, 15, 37, 0
17, 142080, Note_on_c, 15, 37, 76
17, 142179, Note_on_c, 15, 37, 0
17, 142200, Note_on_c, 15, 37, 76
17, 142299, Note_on_c, 15, 37, 0
17, 142320, Note_on_c, 15, 37, 76
17, 142419, Note_on_c, 15, 37, 0
17, 142440, Note_on_c, 15, 37, 76
17, 142539, Note_on_c, 15, 37, 0
17, 142560, Note_on_c, 15, 37, 76
17, 142799, Note_on_c, 15, 37, 0
17, 143160, Note_on_c, 15, 38, 80
17, 143259, Note_on_c, 15, 38, 0
17, 143280, Note_on_c, 15, 38, 80
17, 143379, Note_on_c, 15, 38, 0
17, 143400, Note_on_c, 15, 38, 80
17, 143499, Note_on_c, 15, 38, 0
17, 143520, Note_on_c, 15, 38, 80
17, 143759, Note_on_c, 15, 38, 0
17, 144240, Note_on_c, 15, 40, 80
17, 144339, Note_on_c, 15, 40, 0
17, 144360, Note_on_c, 15, 40, 80
17, 144459, Note_on_c, 15, 40, 0
17, 144480, Note_on_c, 15, 40, 80
17, 144699, Note_on_c, 15, 40, 0
17, 144720, Note_on_c, 15, 42, 80
17, 144819, Note_on_c, 15, 42, 0
17, 144840, Note_on_c, 15, 42, 80
17, 144939, Note_on_c, 15, 42, 0
17, 144960, Note_on_c, 15, 42, 80
17, 145199, Note_on_c, 15, 42, 0
17, 146640, Note_on_c, 15, 48, 80
17, 147099, Note_on_c, 15, 48, 0
17, 147120, Note_on_c, 15, 45, 80
17, 147299, Note_on_c, 15, 45, 0
17, 147360, Note_on_c, 15, 42, 80
17, 147539, Note_on_c, 15, 42, 0
17, 147600, Note_on_c, 15, 38, 80
17, 147779, Note_on_c, 15, 38, 0
17, 147840, Note_on_c, 15, 36, 80
17, 148019, Note_on_c, 15, 36, 0
17, 148080, Note_on_c, 15, 33, 80
17, 148259, Note_on_c, 15, 33, 0
17, 148320, Note_on_c, 15, 30, 80
17, 148499, Note_on_c, 15, 30, 0
17, 148560, Note_on_c, 15, 34, 80
17, 148779, Note_on_c, 15, 34, 0
17, 148800, Note_on_c, 15, 31, 80
17, 149039, Note_on_c, 15, 31, 0
17, 150480, Note_on_c, 15, 53, 84
17, 150939, Note_on_c, 15, 53, 0
17, 150960, Note_on_c, 15, 50, 84
17, 151139, Note_on_c, 15, 50, 0
17, 151200, Note_on_c, 15, 47, 84
17, 151379, Note_on_c, 15, 47, 0
17, 151440, Note_on_c, 15, 43, 84
17, 151619, Note_on_c, 15, 43, 0
17, 151680, Note_on_c, 15, 41, 84
17, 151859, Note_on_c, 15, 41, 0
17, 151920, Note_on_c, 15, 38, 84
17, 152099, Note_on_c, 15, 38, 0
17, 152160, Note_on_c, 15, 35, 84
17, 152339, Note_on_c, 15, 35, 0
17, 152400, Note_on_c, 15, 31, 84
17, 152579, Note_on_c, 15, 31, 0
17, 152640, Note_on_c, 15, 36, 84
17, 152879, Note_on_c, 15, 36, 0
17, 154080, Note_on_c, 15, 31, 84
17, 154539, Note_on_c, 15, 31, 0
17, 154560, Note_on_c, 15, 32, 84
17, 155039, Note_on_c, 15, 32, 0
17, 156000, Note_on_c, 15, 31, 84
17, 156459, Note_on_c, 15, 31, 0
17, 156480, Note_on_c, 15, 32, 84
17, 156959, Note_on_c, 15, 32, 0
17, 157920, Note_on_c, 15, 34, 84
17, 158379, Note_on_c, 15, 34, 0
17, 158400, Note_on_c, 15, 36, 84
17, 158879, Note_on_c, 15, 36, 0
17, 159840, Note_on_c, 15, 37, 84
17, 160319, Note_on_c, 15, 37, 0
17, 160800, Note_on_c, 15, 39, 74
17, 161279, Note_on_c, 15, 39, 0
17, 161760, Note_on_c, 15, 41, 63
17, 162239, Note_on_c, 15, 41, 0
17, 162720, Note_on_c, 15, 30, 52
17, 163199, Note_on_c, 15, 30, 0
17, 163680, Note_on_c, 15, 30, 51
17, 164159, Note_on_c, 15, 30, 0
17, 164640, Note_on_c, 15, 30, 48
17, 165119, Note_on_c, 15, 30, 0
17, 165600, Note_on_c, 15, 30, 44
17, 166079, Note_on_c, 15, 30, 0
17, 166560, Note_on_c, 15, 30, 44
17, 167039, Note_on_c, 15, 30, 0
17, 167520, Note_on_c, 15, 30, 44
17, 167999, Note_on_c, 15, 30, 0
17, 168480, Note_on_c, 15, 30, 84
17, 168579, Note_on_c, 15, 30, 0
17, 168600, Note_on_c, 15, 38, 84
17, 168699, Note_on_c, 15, 38, 0
17, 168720, Note_on_c, 15, 38, 84
17, 168819, Note_on_c, 15, 38, 0
17, 168840, Note_on_c, 15, 38, 84
17, 168939, Note_on_c, 15, 38, 0
17, 168960, Note_on_c, 15, 35, 84
17, 169419, Note_on_c, 15, 35, 0
17, 169440, Note_on_c, 15, 36, 84
17, 169899, Note_on_c, 15, 36, 0
17, 169920, Note_on_c, 15, 33, 84
17, 170879, Note_on_c, 15, 33, 0
17, 171360, Note_on_c, 15, 35, 44
17, 171839, Note_on_c, 15, 35, 0
17, 172320, Note_on_c, 15, 35, 44
17, 172799, Note_on_c, 15, 35, 0
17, 173280, Note_on_c, 15, 35, 44
17, 173759, Note_on_c, 15, 35, 0
17, 174240, Note_on_c, 15, 35, 84
17, 174339, Note_on_c, 15, 35, 0
17, 174360, Note_on_c, 15, 44, 84
17, 174459, Note_on_c, 15, 44, 0
17, 174480, Note_on_c, 15, 44, 84
17, 174579, Note_on_c, 15, 44, 0
17, 174600, Note_on_c, 15, 44, 84
17, 174699, Note_on_c, 15, 44, 0
17, 174720, Note_on_c, 15, 41, 84
17, 175299, Note_on_c, 15, 41, 0
17, 175320, Note_on_c, 15, 44, 84
17, 175419, Note_on_c, 15, 44, 0
17, 175440, Note_on_c, 15, 44, 84
17, 175539, Note_on_c, 15, 44, 0
17, 175560, Note_on_c, 15, 44, 84
17, 175659, Note_on_c, 15, 44, 0
17, 175680, Note_on_c, 15, 41, 84
17, 176259, Note_on_c, 15, 41, 0
17, 176280, Note_on_c, 15, 44, 84
17, 176379, Note_on_c, 15, 44, 0
17, 176400, Note_on_c, 15, 44, 84
17, 176499, Note_on_c, 15, 44, 0
17, 176520, Note_on_c, 15, 44, 84
17, 176619, Note_on_c, 15, 44, 0
17, 176640, Note_on_c, 15, 41, 84
17, 176739, Note_on_c, 15, 41, 0
17, 176760, Note_on_c, 15, 44, 84
17, 176859, Note_on_c, 15, 44, 0
17, 176880, Note_on_c, 15, 44, 84
17, 176979, Note_on_c, 15, 44, 0
17, 177000, Note_on_c, 15, 44, 84
17, 177099, Note_on_c, 15, 44, 0
17, 177120, Note_on_c, 15, 41, 84
17, 177219, Note_on_c, 15, 41, 0
17, 177240, Note_on_c, 15, 44, 84
17, 177339, Note_on_c, 15, 44, 0
17, 177360, Note_on_c, 15, 44, 84
17, 177459, Note_on_c, 15, 44, 0
17, 177480, Note_on_c, 15, 44, 84
17, 177579, Note_on_c, 15, 44, 0
17, 177600, Note_on_c, 15, 41, 84
17, 177699, Note_on_c, 15, 41, 0
17, 177720, Note_on_c, 15, 44, 84
17, 177819, Note_on_c, 15, 44, 0
17, 177840, Note_on_c, 15, 44, 84
17, 177939, Note_on_c, 15, 44, 0
17, 177960, Note_on_c, 15, 44, 84
17, 178059, Note_on_c, 15, 44, 0
17, 178080, Note_on_c, 15, 41, 84
17, 178179, Note_on_c, 15, 41, 0
17, 178200, Note_on_c, 15, 43, 84
17, 178299, Note_on_c, 15, 43, 0
17, 178320, Note_on_c, 15, 43, 84
17, 178419, Note_on_c, 15, 43, 0
17, 178440, Note_on_c, 15, 43, 84
17, 178539, Note_on_c, 15, 43, 0
17, 178560, Note_on_c, 15, 39, 84
17, 179999, Note_on_c, 15, 39, 0
17, 180120, Note_on_c, 15, 41, 84
17, 180219, Note_on_c, 15, 41, 0
17, 180240, Note_on_c, 15, 41, 84
17, 180339, Note_on_c, 15, 41, 0
17, 180360, Note_on_c, 15, 41, 84
17, 180459, Note_on_c, 15, 41, 0
17, 180480, Note_on_c, 15, 38, 84
17, 182399, Note_on_c, 15, 38, 0
17, 182640, Program_c, 15, 45
17, 182880, Note_on_c, 15, 36, 48
17, 183119, Note_on_c, 15, 36, 0
17, 183840, Note_on_c, 15, 36, 48
17, 184079, Note_on_c, 15, 36, 0
17, 184800, Note_on_c, 15, 35, 48
17, 185039, Note_on_c, 15, 35, 0
17, 185760, Note_on_c, 15, 35, 48
17, 185999, Note_on_c, 15, 35, 0
17, 186720, Note_on_c, 15, 36, 48
17, 186959, Note_on_c, 15, 36, 0
17, 187200, Note_on_c, 15, 35, 48
17, 187439, Note_on_c, 15, 35, 0
17, 187680, Note_on_c, 15, 36, 48
17, 187919, Note_on_c, 15, 36, 0
17, 188160, Note_on_c, 15, 31, 48
17, 188399, Note_on_c, 15, 31, 0
17, 188640, Note_on_c, 15, 36, 48
17, 188879, Note_on_c, 15, 36, 0
17, 189120, Note_on_c, 15, 32, 60
17, 189359, Note_on_c, 15, 32, 0
17, 189480, Program_c, 15, 48
17, 189600, Note_on_c, 15, 31, 84
17, 189839, Note_on_c, 15, 31, 0
17, 193560, Note_on_c, 15, 31, 52
17, 193659, Note_on_c, 15, 31, 0
17, 193680, Note_on_c, 15, 31, 52
17, 193779, Note_on_c, 15, 31, 0
17, 193800, Note_on_c, 15, 31, 52
17, 193899, Note_on_c, 15, 31, 0
17, 193920, Note_on_c, 15, 36, 52
17, 194019, Note_on_c, 15, 36, 0
17, 194040, Note_on_c, 15, 44, 52
17, 194139, Note_on_c, 15, 44, 0
17, 194160, Note_on_c, 15, 44, 53
17, 194259, Note_on_c, 15, 44, 0
17, 194280, Note_on_c, 15, 44, 55
17, 194379, Note_on_c, 15, 44, 0
17, 194400, Note_on_c, 15, 41, 56
17, 194499, Note_on_c, 15, 41, 0
17, 194520, Note_on_c, 15, 38, 58
17, 194619, Note_on_c, 15, 38, 0
17, 194640, Note_on_c, 15, 38, 60
17, 194739, Note_on_c, 15, 38, 0
17, 194760, Note_on_c, 15, 38, 61
17, 194859, Note_on_c, 15, 38, 0
17, 194880, Note_on_c, 15, 35, 63
17, 194979, Note_on_c, 15, 35, 0
17, 195000, Note_on_c, 15, 32, 64
17, 195099, Note_on_c, 15, 32, 0
17, 195120, Note_on_c, 15, 32, 66
17, 195219, Note_on_c, 15, 32, 0
17, 195240, Note_on_c, 15, 32, 68
17, 195339, Note_on_c, 15, 32, 0
17, 195360, Note_on_c, 15, 31, 69
17, 195459, Note_on_c, 15, 31, 0
17, 195480, Note_on_c, 15, 43, 71
17, 195579, Note_on_c, 15, 43, 0
17, 195600, Note_on_c, 15, 43, 72
17, 195699, Note_on_c, 15, 43, 0
17, 195720, Note_on_c, 15, 43, 74
17, 195819, Note_on_c, 15, 43, 0
17, 195840, Note_on_c, 15, 36, 76
17, 195939, Note_on_c, 15, 36, 0
17, 195960, Note_on_c, 15, 36, 76
17, 196059, Note_on_c, 15, 36, 0
17, 196080, Note_on_c, 15, 36, 76
17, 196179, Note_on_c, 15, 36, 0
17, 196200, Note_on_c, 15, 36, 76
17, 196299, Note_on_c, 15, 36, 0
17, 196320, Note_on_c, 15, 36, 76
17, 196799, Note_on_c, 15, 36, 0
17, 196800, Note_on_c, 15, 36, 76
17, 196899, Note_on_c, 15, 36, 0
17, 196920, Note_on_c, 15, 36, 76
17, 197019, Note_on_c, 15, 36, 0
17, 197040, Note_on_c, 15, 36, 76
17, 197139, Note_on_c, 15, 36, 0
17, 197160, Note_on_c, 15, 36, 76
17, 197259, Note_on_c, 15, 36, 0
17, 197280, Note_on_c, 15, 36, 76
17, 197759, Note_on_c, 15, 36, 0
17, 197760, Note_on_c, 15, 36, 76
17, 197859, Note_on_c, 15, 36, 0
17, 197880, Note_on_c, 15, 36, 76
17, 197979, Note_on_c, 15, 36, 0
17, 198000, Note_on_c, 15, 36, 76
17, 198099, Note_on_c, 15, 36, 0
17, 198120, Note_on_c, 15, 36, 76
17, 198219, Note_on_c, 15, 36, 0
17, 198240, Note_on_c, 15, 36, 84
17, 198479, Note_on_c, 15, 36, 0
17, 198720, Note_on_c, 15, 36, 84
17, 198959, Note_on_c, 15, 36, 0
17, 199200, Note_on_c, 15, 36, 84
17, 199439, Note_on_c, 15, 36, 0
17, 199680, Note_on_c, 15, 36, 84
17, 199919, Note_on_c, 15, 36, 0
17, 200160, Note_on_c, 15, 36, 84
17, 200399, Note_on_c, 15, 36, 0
17, 200640, Note_on_c, 15, 36, 84
17, 200879, Note_on_c, 15, 36, 0
17, 201120, Note_on_c, 15, 36, 76
17, 202079, Note_on_c, 15, 36, 0
17, 202080, Note_on_c, 15, 36, 76
17, 202559, Note_on_c, 15, 36, 0
17, 202560, Note_on_c, 15, 36, 76
17, 202659, Note_on_c, 15, 36, 0
17, 202680, Note_on_c, 15, 36, 76
17, 202779, Note_on_c, 15, 36, 0
17, 202800, Note_on_c, 15, 36, 76
17, 202899, Note_on_c, 15, 36, 0
17, 202920, Note_on_c, 15, 36, 76
17, 203019, Note_on_c, 15, 36, 0
17, 203040, Note_on_c, 15, 31, 76
17, 203999, Note_on_c, 15, 31, 0
17, 204000, Note_on_c, 15, 31, 76
17, 204579, Note_on_c, 15, 31, 0
17, 204600, Note_on_c, 15, 31, 76
17, 204699, Note_on_c, 15, 31, 0
17, 204720, Note_on_c, 15, 36, 76
17, 204819, Note_on_c, 15, 36, 0
17, 204840, Note_on_c, 15, 36, 76
17, 204939, Note_on_c, 15, 36, 0
17, 204960, Note_on_c, 15, 36, 84
17, 205059, Note_on_c, 15, 36, 0
17, 205080, Note_on_c, 15, 51, 84
17, 205179, Note_on_c, 15, 51, 0
17, 205200, Note_on_c, 15, 51, 84
17, 205299, Note_on_c, 15, 51, 0
17, 205320, Note_on_c, 15, 51, 84
17, 205419, Note_on_c, 15, 51, 0
17, 205440, Note_on_c, 15, 48, 84
17, 205539, Note_on_c, 15, 48, 0
17, 205560, Note_on_c, 15, 45, 84
17, 205659, Note_on_c, 15, 45, 0
17, 205680, Note_on_c, 15, 45, 84
17, 205779, Note_on_c, 15, 45, 0
17, 205800, Note_on_c, 15, 45, 84
17, 205899, Note_on_c, 15, 45, 0
17, 205920, Note_on_c, 15, 42, 84
17, 206019, Note_on_c, 15, 42, 0
17, 206040, Note_on_c, 15, 39, 84
17, 206139, Note_on_c, 15, 39, 0
17, 206160, Note_on_c, 15, 39, 84
17, 206259, Note_on_c, 15, 39, 0
17, 206280, Note_on_c, 15, 39, 84
17, 206379, Note_on_c, 15, 39, 0
17, 206400, Note_on_c, 15, 36, 84
17, 206499, Note_on_c, 15, 36, 0
17, 206520, Note_on_c, 15, 33, 84
17, 206619, Note_on_c, 15, 33, 0
17, 206640, Note_on_c, 15, 33, 84
17, 206739, Note_on_c, 15, 33, 0
17, 206760, Note_on_c, 15, 33, 84
17, 206859, Note_on_c, 15, 33, 0
17, 206880, Note_on_c, 15, 36, 84
17, 207119, Note_on_c, 15, 36, 0
17, 207360, Note_on_c, 15, 35, 84
17, 207599, Note_on_c, 15, 35, 0
17, 211320, Note_on_c, 15, 31, 52
17, 211419, Note_on_c, 15, 31, 0
17, 211440, Note_on_c, 15, 31, 52
17, 211539, Note_on_c, 15, 31, 0
17, 211560, Note_on_c, 15, 31, 52
17, 211659, Note_on_c, 15, 31, 0
17, 211680, Note_on_c, 15, 36, 52
17, 211919, Note_on_c, 15, 36, 0
17, 215160, Note_on_c, 15, 31, 52
17, 215259, Note_on_c, 15, 31, 0
17, 215280, Note_on_c, 15, 31, 52
17, 215379, Note_on_c, 15, 31, 0
17, 215400, Note_on_c, 15, 31, 52
17, 215499, Note_on_c, 15, 31, 0
17, 215520, Note_on_c, 15, 36, 52
17, 215759, Note_on_c, 15, 36, 0
17, 219000, Note_on_c, 15, 36, 52
17, 219099, Note_on_c, 15, 36, 0
17, 219120, Note_on_c, 15, 36, 52
17, 219219, Note_on_c, 15, 36, 0
17, 219240, Note_on_c, 15, 36, 52
17, 219339, Note_on_c, 15, 36, 0
17, 219360, Note_on_c, 15, 41, 52
17, 219599, Note_on_c, 15, 41, 0
17, 220920, Note_on_c, 15, 38, 52
17, 221019, Note_on_c, 15, 38, 0
17, 221040, Note_on_c, 15, 38, 52
17, 221139, Note_on_c, 15, 38, 0
17, 221160, Note_on_c, 15, 38, 52
17, 221259, Note_on_c, 15, 38, 0
17, 221280, Note_on_c, 15, 43, 52
17, 221519, Note_on_c, 15, 43, 0
17, 222360, Note_on_c, 15, 44, 52
17, 222459, Note_on_c, 15, 44, 0
17, 222480, Note_on_c, 15, 44, 52
17, 222579, Note_on_c, 15, 44, 0
17, 222600, Note_on_c, 15, 44, 53
17, 222699, Note_on_c, 15, 44, 0
17, 222720, Note_on_c, 15, 44, 53
17, 222959, Note_on_c, 15, 44, 0
17, 223320, Note_on_c, 15, 47, 56
17, 223419, Note_on_c, 15, 47, 0
17, 223440, Note_on_c, 15, 47, 57
17, 223539, Note_on_c, 15, 47, 0
17, 223560, Note_on_c, 15, 47, 57
17, 223659, Note_on_c, 15, 47, 0
17, 223680, Note_on_c, 15, 47, 58
17, 223919, Note_on_c, 15, 47, 0
17, 224280, Note_on_c, 15, 50, 61
17, 224379, Note_on_c, 15, 50, 0
17, 224400, Note_on_c, 15, 50, 61
17, 224499, Note_on_c, 15, 50, 0
17, 224520, Note_on_c, 15, 50, 62
17, 224619, Note_on_c, 15, 50, 0
17, 224640, Note_on_c, 15, 50, 63
17, 224879, Note_on_c, 15, 50, 0
17, 225240, Note_on_c, 15, 50, 65
17, 225339, Note_on_c, 15, 50, 0
17, 225360, Note_on_c, 15, 50, 66
17, 225459, Note_on_c, 15, 50, 0
17, 225480, Note_on_c, 15, 50, 67
17, 225579, Note_on_c, 15, 50, 0
17, 225600, Note_on_c, 15, 50, 67
17, 225839, Note_on_c, 15, 50, 0
17, 226200, Note_on_c, 15, 50, 70
17, 226299, Note_on_c, 15, 50, 0
17, 226320, Note_on_c, 15, 50, 71
17, 226419, Note_on_c, 15, 50, 0
17, 226440, Note_on_c, 15, 50, 71
17, 226539, Note_on_c, 15, 50, 0
17, 226560, Note_on_c, 15, 50, 72
17, 226799, Note_on_c, 15, 50, 0
17, 227280, Note_on_c, 15, 50, 75
17, 227519, Note_on_c, 15, 50, 0
17, 227760, Note_on_c, 15, 50, 78
17, 227999, Note_on_c, 15, 50, 0
17, 228240, Note_on_c, 15, 50, 80
17, 228479, Note_on_c, 15, 50, 0
17, 228720, Note_on_c, 15, 50, 82
17, 228939, Note_on_c, 15, 50, 0
17, 228960, Note_on_c, 15, 50, 84
17, 229659, Note_on_c, 15, 50, 0
17, 229680, Note_on_c, 15, 47, 84
17, 229899, Note_on_c, 15, 47, 0
17, 229920, Note_on_c, 15, 48, 84
17, 230159, Note_on_c, 15, 48, 0
17, 230400, Note_on_c, 15, 50, 84
17, 230639, Note_on_c, 15, 50, 0
17, 230880, Note_on_c, 15, 52, 84
17, 231119, Note_on_c, 15, 52, 0
17, 231360, Note_on_c, 15, 53, 84
17, 231599, Note_on_c, 15, 53, 0
17, 231840, Note_on_c, 15, 55, 84
17, 232079, Note_on_c, 15, 55, 0
17, 232320, Note_on_c, 15, 43, 84
17, 232559, Note_on_c, 15, 43, 0
17, 232800, Note_on_c, 15, 35, 84
17, 233019, Note_on_c, 15, 35, 0
17, 233040, Note_on_c, 15, 38, 84
17, 233259, Note_on_c, 15, 38, 0
17, 233280, Note_on_c, 15, 35, 84
17, 233499, Note_on_c, 15, 35, 0
17, 233520, Note_on_c, 15, 38, 84
17, 233739, Note_on_c, 15, 38, 0
17, 233760, Note_on_c, 15, 36, 84
17, 233979, Note_on_c, 15, 36, 0
17, 234000, Note_on_c, 15, 40, 84
17, 234219, Note_on_c, 15, 40, 0
17, 234240, Note_on_c, 15, 38, 84
17, 234459, Note_on_c, 15, 38, 0
17, 234480, Note_on_c, 15, 41, 84
17, 234699, Note_on_c, 15, 41, 0
17, 234720, Note_on_c, 15, 40, 84
17, 234939, Note_on_c, 15, 40, 0
17, 234960, Note_on_c, 15, 43, 84
17, 235179, Note_on_c, 15, 43, 0
17, 235200, Note_on_c, 15, 41, 84
17, 235419, Note_on_c, 15, 41, 0
17, 235440, Note_on_c, 15, 45, 84
17, 235659, Note_on_c, 15, 45, 0
17, 235680, Note_on_c, 15, 43, 84
17, 235899, Note_on_c, 15, 43, 0
17, 235920, Note_on_c, 15, 31, 84
17, 236139, Note_on_c, 15, 31, 0
17, 236160, Note_on_c, 15, 43, 84
17, 236379, Note_on_c, 15, 43, 0
17, 236400, Note_on_c, 15, 31, 84
17, 236619, Note_on_c, 15, 31, 0
17, 236640, Note_on_c, 15, 36, 84
17, 237599, Note_on_c, 15, 36, 0
17, 237600, Note_on_c, 15, 36, 84
17, 238179, Note_on_c, 15, 36, 0
17, 238200, Note_on_c, 15, 31, 84
17, 238299, Note_on_c, 15, 31, 0
17, 238320, Note_on_c, 15, 31, 84
17, 238419, Note_on_c, 15, 31, 0
17, 238440, Note_on_c, 15, 31, 84
17, 238539, Note_on_c, 15, 31, 0
17, 238560, Note_on_c, 15, 36, 84
17, 239519, Note_on_c, 15, 36, 0
17, 239520, Note_on_c, 15, 36, 84
17, 240099, Note_on_c, 15, 36, 0
17, 240120, Note_on_c, 15, 31, 84
17, 240219, Note_on_c, 15, 31, 0
17, 240240, Note_on_c, 15, 31, 84
17, 240339, Note_on_c, 15, 31, 0
17, 240360, Note_on_c, 15, 31, 84
17, 240459, Note_on_c, 15, 31, 0
17, 240480, Note_on_c, 15, 36, 84
17, 240719, Note_on_c, 15, 36, 0
17, 241080, Note_on_c, 15, 31, 84
17, 241179, Note_on_c, 15, 31, 0
17, 241200, Note_on_c, 15, 31, 84
17, 241299, Note_on_c, 15, 31, 0
17, 241320, Note_on_c, 15, 31, 84
17, 241419, Note_on_c, 15, 31, 0
17, 241440, Note_on_c, 15, 36, 84
17, 241679, Note_on_c, 15, 36, 0
17, 242040, Note_on_c, 15, 31, 84
17, 242139, Note_on_c, 15, 31, 0
17, 242160, Note_on_c, 15, 31, 84
17, 242259, Note_on_c, 15, 31, 0
17, 242280, Note_on_c, 15, 31, 84
17, 242379, Note_on_c, 15, 31, 0
17, 242400, Note_on_c, 15, 36, 92
17, 242519, Note_on_c, 15, 36, 0
17, 242520, Note_on_c, 15, 36, 84
17, 242879, Note_on_c, 15, 36, 0
17, 242880, Note_on_c, 15, 36, 84
17, 242979, Note_on_c, 15, 36, 0
17, 243000, Note_on_c, 15, 36, 84
17, 243099, Note_on_c, 15, 36, 0
17, 243120, Note_on_c, 15, 36, 84
17, 243219, Note_on_c, 15, 36, 0
17, 243240, Note_on_c, 15, 36, 84
17, 243339, Note_on_c, 15, 36, 0
17, 243360, Note_on_c, 15, 32, 92
17, 243479, Note_on_c, 15, 32, 0
17, 243480, Note_on_c, 15, 32, 84
17, 243839, Note_on_c, 15, 32, 0
17, 243840, Note_on_c, 15, 32, 84
17, 243939, Note_on_c, 15, 32, 0
17, 243960, Note_on_c, 15, 32, 84
17, 244059, Note_on_c, 15, 32, 0
17, 244080, Note_on_c, 15, 32, 84
17, 244179, Note_on_c, 15, 32, 0
17, 244200, Note_on_c, 15, 32, 84
17, 244299, Note_on_c, 15, 32, 0
17, 244320, Note_on_c, 15, 40, 92
17, 244439, Note_on_c, 15, 40, 0
17, 244440, Note_on_c, 15, 40, 84
17, 244799, Note_on_c, 15, 40, 0
17, 244800, Note_on_c, 15, 40, 84
17, 244899, Note_on_c, 15, 40, 0
17, 244920, Note_on_c, 15, 40, 84
17, 245019, Note_on_c, 15, 40, 0
17, 245040, Note_on_c, 15, 40, 84
17, 245139, Note_on_c, 15, 40, 0
17, 245160, Note_on_c, 15, 40, 84
17, 245259, Note_on_c, 15, 40, 0
17, 245280, Note_on_c, 15, 41, 92
17, 245399, Note_on_c, 15, 41, 0
17, 245400, Note_on_c, 15, 41, 84
17, 245759, Note_on_c, 15, 41, 0
17, 245760, Note_on_c, 15, 41, 84
17, 245859, Note_on_c, 15, 41, 0
17, 245880, Note_on_c, 15, 41, 84
17, 245979, Note_on_c, 15, 41, 0
17, 246000, Note_on_c, 15, 41, 84
17, 246099, Note_on_c, 15, 41, 0
17, 246120, Note_on_c, 15, 41, 84
17, 246219, Note_on_c, 15, 41, 0
17, 246240, Note_on_c, 15, 29, 84
17, 246339, Note_on_c, 15, 29, 0
17, 246360, Note_on_c, 15, 41, 84
17, 246459, Note_on_c, 15, 41, 0
17, 246480, Note_on_c, 15, 41, 84
17, 246579, Note_on_c, 15, 41, 0
17, 246600, Note_on_c, 15, 41, 84
17, 246699, Note_on_c, 15, 41, 0
17, 246720, Note_on_c, 15, 41, 84
17, 246819, Note_on_c, 15, 41, 0
17, 246840, Note_on_c, 15, 41, 84
17, 246939, Note_on_c, 15, 41, 0
17, 246960, Note_on_c, 15, 41, 84
17, 247059, Note_on_c, 15, 41, 0
17, 247080, Note_on_c, 15, 41, 84
17, 247179, Note_on_c, 15, 41, 0
17, 247200, Note_on_c, 15, 41, 84
17, 247299, Note_on_c, 15, 41, 0
17, 247320, Note_on_c, 15, 41, 84
17, 247419, Note_on_c, 15, 41, 0
17, 247440, Note_on_c, 15, 41, 84
17, 247539, Note_on_c, 15, 41, 0
17, 247560, Note_on_c, 15, 41, 84
17, 247659, Note_on_c, 15, 41, 0
17, 247680, Note_on_c, 15, 41, 84
17, 247779, Note_on_c, 15, 41, 0
17, 247800, Note_on_c, 15, 41, 84
17, 247899, Note_on_c, 15, 41, 0
17, 247920, Note_on_c, 15, 41, 84
17, 248019, Note_on_c, 15, 41, 0
17, 248040, Note_on_c, 15, 41, 84
17, 248139, Note_on_c, 15, 41, 0
17, 248160, Note_on_c, 15, 41, 84
17, 248399, Note_on_c, 15, 41, 0
17, 250200, Note_on_c, 15, 30, 84
17, 250299, Note_on_c, 15, 30, 0
17, 250320, Note_on_c, 15, 30, 84
17, 250419, Note_on_c, 15, 30, 0
17, 250440, Note_on_c, 15, 30, 84
17, 250539, Note_on_c, 15, 30, 0
17, 250560, Note_on_c, 15, 30, 84
17, 250659, Note_on_c, 15, 30, 0
17, 250680, Note_on_c, 15, 42, 84
17, 250779, Note_on_c, 15, 42, 0
17, 250800, Note_on_c, 15, 42, 84
17, 250899, Note_on_c, 15, 42, 0
17, 250920, Note_on_c, 15, 42, 84
17, 251019, Note_on_c, 15, 42, 0
17, 251040, Note_on_c, 15, 42, 84
17, 251139, Note_on_c, 15, 42, 0
17, 251160, Note_on_c, 15, 42, 84
17, 251259, Note_on_c, 15, 42, 0
17, 251280, Note_on_c, 15, 42, 84
17, 251379, Note_on_c, 15, 42, 0
17, 251400, Note_on_c, 15, 42, 84
17, 251499, Note_on_c, 15, 42, 0
17, 251520, Note_on_c, 15, 42, 84
17, 251619, Note_on_c, 15, 42, 0
17, 251640, Note_on_c, 15, 42, 84
17, 251739, Note_on_c, 15, 42, 0
17, 251760, Note_on_c, 15, 42, 84
17, 251859, Note_on_c, 15, 42, 0
17, 251880, Note_on_c, 15, 42, 84
17, 251979, Note_on_c, 15, 42, 0
17, 252000, Note_on_c, 15, 42, 84
17, 252099, Note_on_c, 15, 42, 0
17, 252120, Note_on_c, 15, 42, 84
17, 252219, Note_on_c, 15, 42, 0
17, 252240, Note_on_c, 15, 42, 84
17, 252339, Note_on_c, 15, 42, 0
17, 252360, Note_on_c, 15, 42, 84
17, 252459, Note_on_c, 15, 42, 0
17, 252480, Note_on_c, 15, 42, 84
17, 252719, Note_on_c, 15, 42, 0
17, 254400, Note_on_c, 15, 31, 76
17, 254639, Note_on_c, 15, 31, 0
17, 256320, Note_on_c, 15, 31, 76
17, 256559, Note_on_c, 15, 31, 0
17, 260160, Note_on_c, 15, 44, 76
17, 260379, Note_on_c, 15, 44, 0
17, 260400, Note_on_c, 15, 46, 76
17, 260619, Note_on_c, 15, 46, 0
17, 260640, Note_on_c, 15, 43, 76
17, 260859, Note_on_c, 15, 43, 0
17, 260880, Note_on_c, 15, 44, 76
17, 261099, Note_on_c, 15, 44, 0
17, 261120, Note_on_c, 15, 41, 76
17, 261339, Note_on_c, 15, 41, 0
17, 261360, Note_on_c, 15, 43, 76
17, 261579, Note_on_c, 15, 43, 0
17, 261600, Note_on_c, 15, 39, 76
17, 261819, Note_on_c, 15, 39, 0
17, 261840, Note_on_c, 15, 41, 76
17, 262059, Note_on_c, 15, 41, 0
17, 262080, Note_on_c, 15, 38, 76
17, 262299, Note_on_c, 15, 38, 0
17, 262320, Note_on_c, 15, 36, 76
17, 262539, Note_on_c, 15, 36, 0
17, 262560, Note_on_c, 15, 35, 76
17, 262779, Note_on_c, 15, 35, 0
17, 262800, Note_on_c, 15, 36, 76
17, 263019, Note_on_c, 15, 36, 0
17, 263040, Note_on_c, 15, 38, 76
17, 263259, Note_on_c, 15, 38, 0
17, 263280, Note_on_c, 15, 36, 76
17, 263499, Note_on_c, 15, 36, 0
17, 263520, Note_on_c, 15, 38, 76
17, 263739, Note_on_c, 15, 38, 0
17, 263760, Note_on_c, 15, 40, 76
17, 263979, Note_on_c, 15, 40, 0
17, 264000, Note_on_c, 15, 41, 76
17, 264219, Note_on_c, 15, 41, 0
17, 264240, Note_on_c, 15, 40, 76
17, 264459, Note_on_c, 15, 40, 0
17, 264480, Note_on_c, 15, 41, 76
17, 264699, Note_on_c, 15, 41, 0
17, 264720, Note_on_c, 15, 43, 76
17, 264939, Note_on_c, 15, 43, 0
17, 264960, Note_on_c, 15, 44, 76
17, 265179, Note_on_c, 15, 44, 0
17, 265200, Note_on_c, 15, 43, 76
17, 265419, Note_on_c, 15, 43, 0
17, 265440, Note_on_c, 15, 45, 76
17, 265659, Note_on_c, 15, 45, 0
17, 265680, Note_on_c, 15, 47, 76
17, 265899, Note_on_c, 15, 47, 0
17, 265920, Note_on_c, 15, 48, 76
17, 266859, Note_on_c, 15, 48, 0
17, 266880, Note_on_c, 15, 44, 76
17, 267819, Note_on_c, 15, 44, 0
17, 267840, Note_on_c, 15, 39, 76
17, 268779, Note_on_c, 15, 39, 0
17, 268800, Note_on_c, 15, 41, 76
17, 269259, Note_on_c, 15, 41, 0
17, 269280, Note_on_c, 15, 39, 76
17, 269739, Note_on_c, 15, 39, 0
17, 269760, Note_on_c, 15, 38, 76
17, 270219, Note_on_c, 15, 38, 0
17, 270240, Note_on_c, 15, 41, 76
17, 270699, Note_on_c, 15, 41, 0
17, 270720, Note_on_c, 15, 39, 76
17, 270899, Note_on_c, 15, 39, 0
17, 271200, Note_on_c, 15, 36, 76
17, 271379, Note_on_c, 15, 36, 0
17, 271680, Note_on_c, 15, 41, 76
17, 271859, Note_on_c, 15, 41, 0
17, 272160, Note_on_c, 15, 38, 76
17, 272339, Note_on_c, 15, 38, 0
17, 272640, Note_on_c, 15, 43, 76
17, 272819, Note_on_c, 15, 43, 0
17, 273120, Note_on_c, 15, 31, 76
17, 273299, Note_on_c, 15, 31, 0
17, 273600, Note_on_c, 15, 36, 76
17, 273779, Note_on_c, 15, 36, 0
17, 275040, Note_on_c, 15, 39, 76
17, 275219, Note_on_c, 15, 39, 0
17, 275280, Note_on_c, 15, 41, 76
17, 275459, Note_on_c, 15, 41, 0
17, 275520, Note_on_c, 15, 43, 76
17, 275759, Note_on_c, 15, 43, 0
17, 275760, Note_on_c, 15, 39, 76
17, 275999, Note_on_c, 15, 39, 0
17, 276960, Note_on_c, 15, 31, 76
17, 277139, Note_on_c, 15, 31, 0
17, 277200, Note_on_c, 15, 33, 76
17, 277379, Note_on_c, 15, 33, 0
17, 277440, Note_on_c, 15, 35, 76
17, 277679, Note_on_c, 15, 35, 0
17, 277680, Note_on_c, 15, 31, 76
17, 277919, Note_on_c, 15, 31, 0
17, 278880, Note_on_c, 15, 31, 76
17, 279059, Note_on_c, 15, 31, 0
17, 279120, Note_on_c, 15, 33, 76
17, 279299, Note_on_c, 15, 33, 0
17, 279360, Note_on_c, 15, 35, 76
17, 279599, Note_on_c, 15, 35, 0
17, 279600, Note_on_c, 15, 31, 76
17, 279839, Note_on_c, 15, 31, 0
17, 281760, Note_on_c, 15, 41, 84
17, 281999, Note_on_c, 15, 41, 0
17, 282000, Note_on_c, 15, 36, 76
17, 282239, Note_on_c, 15, 36, 0
17, 282720, Note_on_c, 15, 41, 76
17, 282959, Note_on_c, 15, 41, 0
17, 282960, Note_on_c, 15, 36, 76
17, 283179, Note_on_c, 15, 36, 0
17, 283200, Note_on_c, 15, 43, 76
17, 283439, Note_on_c, 15, 43, 0
17, 283680, Note_on_c, 15, 31, 76
17, 283919, Note_on_c, 15, 31, 0
17, 284160, Note_on_c, 15, 48, 76
17, 284399, Note_on_c, 15, 48, 0
17, 284400, Note_on_c, 15, 43, 76
17, 284639, Note_on_c, 15, 43, 0
17, 284640, Note_on_c, 15, 44, 76
17, 284879, Note_on_c, 15, 44, 0
17, 284880, Note_on_c, 15, 39, 76
17, 285119, Note_on_c, 15, 39, 0
17, 285120, Note_on_c, 15, 41, 76
17, 285359, Note_on_c, 15, 41, 0
17, 285360, Note_on_c, 15, 36, 76
17, 285599, Note_on_c, 15, 36, 0
17, 286080, Note_on_c, 15, 41, 76
17, 286319, Note_on_c, 15, 41, 0
17, 286320, Note_on_c, 15, 36, 76
17, 286539, Note_on_c, 15, 36, 0
17, 286560, Note_on_c, 15, 41, 76
17, 286799, Note_on_c, 15, 41, 0
17, 286800, Note_on_c, 15, 36, 76
17, 287019, Note_on_c, 15, 36, 0
17, 287040, Note_on_c, 15, 43, 76
17, 287279, Note_on_c, 15, 43, 0
17, 287520, Note_on_c, 15, 31, 76
17, 287759, Note_on_c, 15, 31, 0
17, 288000, Note_on_c, 15, 36, 76
17, 288239, Note_on_c, 15, 36, 0
17, 290520, Note_on_c, 15, 31, 76
17, 290619, Note_on_c, 15, 31, 0
17, 290640, Note_on_c, 15, 31, 76
17, 290739, Note_on_c, 15, 31, 0
17, 290760, Note_on_c, 15, 31, 76
17, 290859, Note_on_c, 15, 31, 0
17, 290880, Note_on_c, 15, 36, 76
17, 290979, Note_on_c, 15, 36, 0
17, 291000, Note_on_c, 15, 31, 76
17, 291099, Note_on_c, 15, 31, 0
17, 291120, Note_on_c, 15, 31, 76
17, 291219, Note_on_c, 15, 31, 0
17, 291240, Note_on_c, 15, 31, 76
17, 291339, Note_on_c, 15, 31, 0
17, 291360, Note_on_c, 15, 31, 76
17, 291459, Note_on_c, 15, 31, 0
17, 291480, Note_on_c, 15, 31, 76
17, 291579, Note_on_c, 15, 31, 0
17, 291600, Note_on_c, 15, 31, 76
17, 291699, Note_on_c, 15, 31, 0
17, 291720, Note_on_c, 15, 31, 76
17, 291819, Note_on_c, 15, 31, 0
17, 291840, Note_on_c, 15, 31, 76
17, 291939, Note_on_c, 15, 31, 0
17, 291960, Note_on_c, 15, 31, 76
17, 292059, Note_on_c, 15, 31, 0
17, 292080, Note_on_c, 15, 31, 76
17, 292179, Note_on_c, 15, 31, 0
17, 292200, Note_on_c, 15, 31, 76
17, 292299, Note_on_c, 15, 31, 0
17, 292320, Note_on_c, 15, 31, 76
17, 292419, Note_on_c, 15, 31, 0
17, 292440, Note_on_c, 15, 31, 76
17, 292539, Note_on_c, 15, 31, 0
17, 292560, Note_on_c, 15, 31, 76
17, 292659, Note_on_c, 15, 31, 0
17, 292680, Note_on_c, 15, 31, 76
17, 292779, Note_on_c, 15, 31, 0
17, 292800, Note_on_c, 15, 27, 84
17, 294239, Note_on_c, 15, 27, 0
17, 294360, Note_on_c, 15, 29, 84
17, 294459, Note_on_c, 15, 29, 0
17, 294480, Note_on_c, 15, 29, 84
17, 294579, Note_on_c, 15, 29, 0
17, 294600, Note_on_c, 15, 29, 84
17, 294699, Note_on_c, 15, 29, 0
17, 294720, Note_on_c, 15, 26, 84
17, 296639, Note_on_c, 15, 26, 0
17, 297120, Note_on_c, 15, 24, 44
17, 298079, Note_on_c, 15, 24, 0
17, 298080, Note_on_c, 15, 24, 44
17, 299039, Note_on_c, 15, 24, 0
17, 299040, Note_on_c, 15, 24, 44
17, 299999, Note_on_c, 15, 24, 0
17, 300000, Note_on_c, 15, 24, 44
17, 300579, Note_on_c, 15, 24, 0
17, 300600, Note_on_c, 15, 31, 84
17, 300699, Note_on_c, 15, 31, 0
17, 300720, Note_on_c, 15, 31, 84
17, 300819, Note_on_c, 15, 31, 0
17, 300840, Note_on_c, 15, 31, 84
17, 300939, Note_on_c, 15, 31, 0
17, 300960, Note_on_c, 15, 36, 84
17, 301199, Note_on_c, 15, 36, 0
17, 301560, Note_on_c, 15, 31, 84
17, 301659, Note_on_c, 15, 31, 0
17, 301680, Note_on_c, 15, 31, 84
17, 301779, Note_on_c, 15, 31, 0
17, 301800, Note_on_c, 15, 31, 84
17, 301899, Note_on_c, 15, 31, 0
17, 301920, Note_on_c, 15, 36, 84
17, 302159, Note_on_c, 15, 36, 0
17, 302520, Note_on_c, 15, 31, 84
17, 302619, Note_on_c, 15, 31, 0
17, 302640, Note_on_c, 15, 31, 84
17, 302739, Note_on_c, 15, 31, 0
17, 302760, Note_on_c, 15, 31, 84
17, 302859, Note_on_c, 15, 31, 0
17, 302880, Note_on_c, 15, 36, 84
17, 303099, Note_on_c, 15, 36, 0
17, 303120, Note_on_c, 15, 31, 84
17, 303339, Note_on_c, 15, 31, 0
17, 303360, Note_on_c, 15, 36, 84
17, 303579, Note_on_c, 15, 36, 0
17, 303600, Note_on_c, 15, 31, 84
17, 303819, Note_on_c, 15, 31, 0
17, 303840, Note_on_c, 15, 36, 84
17, 304059, Note_on_c, 15, 36, 0
17, 304080, Note_on_c, 15, 43, 84
17, 304299, Note_on_c, 15, 43, 0
17, 304320, Note_on_c, 15, 48, 84
17, 304539, Note_on_c, 15, 48, 0
17, 304560, Note_on_c, 15, 43, 84
17, 304779, Note_on_c, 15, 43, 0
17, 304800, Note_on_c, 15, 48, 84
17, 305039, Note_on_c, 15, 48, 0
17, 305280, Note_on_c, 15, 31, 84
17, 305519, Note_on_c, 15, 31, 0
17, 305760, Note_on_c, 15, 24, 84
17, 305999, Note_on_c, 15, 24, 0
17, 305999, End_track
18, 0, Start_track
18, 0, Title_t, "Ludwig van Beethoven - Symphony No. 5, Op.67 - No. 1 Allegro con brio"
18, 0, MIDI_port, 0
18, 0, End_track
0, 0, End_of_file
