0, 0, Header, 1, 19, 120
1, 0, Start_track
1, 0, Title_t, "Symphony n° 1 in C major"
1, 0, Title_t, "III - Menuetto - trio : Allegro molto e vivace"
1, 0, Copyright_t, "Copyright © 2001 by J.F. Lucarelli - j-f.lucarelli@infonie.be  --  http://perso.infonie.fr/espace-midi"
1, 0, Text_t, "L. Van Beethoven (1770-1827)"
1, 0, Text_t, "\012"
1, 0, Text_t, "Tempo supérieur à 250 : adapter le tempo avant publication MIDI\012"
1, 0, Text_t, "Partition complète - durée : 00:03:44\012"
1, 0, Text_t, "Début du travail : 13 décembre 2000\012"
1, 0, Text_t, "Fin de la version 0 : 23 décembre 2000\012"
1, 0, Text_t, "Version 1.0 : 31 janvier 2001\012"
1, 0, Text_t, "Version 1.01 : 2 juin 2001 : révision avant publication\012"
1, 0, Text_t, "Version 1.02 : 4 juin 2001 : balance des bois\012"
1, 0, Text_t, "Durée d'édition et d'audition : 9 h\012"
1, 0, Text_t, "-----\012"
1, 0, Text_t, "Full score - length : 00:03:44\012"
1, 0, Text_t, "Beginning of writing : 13 december 2000\012"
1, 0, Text_t, "End of version 0 : 23 december 2000\012"
1, 0, Text_t, "Version 1.0 : 31 january 2001\012"
1, 0, Text_t, "Version 1.01 : 2 juni 2001 : revision before publication\012"
1, 0, Text_t, "Version 1.02 : 4 juni 2001 : balance of woodwinds\012"
1, 0, Text_t, "Editing and audition time : 9 h\012"
1, 0, Time_signature, 3, 2, 24, 8
1, 0, Key_signature, 0, "major"
1, 0, Tempo, 250000
1, 0, Marker_t, "L. Van Beethoven : Symphony n° 1 in C"
1, 360, Tempo, 187500
1, 360, Marker_t, "III - Menuetto - allegro molto e vivace"
1, 720, Tempo, 196078
1, 840, Tempo, 180722
1, 1080, Tempo, 196078
1, 1200, Tempo, 180722
1, 1440, Tempo, 196078
1, 1560, Tempo, 180722
1, 1800, Tempo, 196078
1, 1920, Tempo, 180722
1, 2160, Tempo, 196078
1, 2280, Tempo, 180722
1, 2520, Tempo, 196078
1, 2640, Tempo, 180722
1, 3240, Tempo, 196078
1, 3360, Tempo, 230769
1, 3480, Tempo, 187500
1, 3600, Tempo, 196078
1, 3720, Tempo, 180722
1, 3960, Tempo, 196078
1, 4080, Tempo, 180722
1, 4320, Tempo, 196078
1, 4440, Tempo, 180722
1, 4680, Tempo, 196078
1, 4800, Tempo, 180722
1, 5040, Tempo, 196078
1, 5160, Tempo, 180722
1, 5400, Tempo, 196078
1, 5520, Tempo, 180722
1, 6120, Tempo, 196078
1, 6240, Tempo, 250000
1, 6360, Tempo, 187500
1, 6480, Tempo, 196078
1, 6600, Tempo, 184049
1, 6840, Tempo, 196078
1, 6960, Tempo, 184049
1, 7200, Tempo, 196078
1, 7320, Tempo, 180722
1, 7560, Tempo, 196078
1, 7680, Tempo, 180722
1, 7920, Tempo, 196078
1, 8040, Tempo, 184049
1, 8280, Tempo, 196078
1, 8400, Tempo, 184049
1, 8640, Tempo, 196078
1, 8760, Tempo, 180722
1, 9000, Tempo, 196078
1, 9120, Tempo, 180722
1, 9360, Tempo, 196078
1, 9480, Tempo, 180722
1, 9720, Tempo, 196078
1, 9840, Tempo, 180722
1, 10080, Tempo, 196078
1, 10200, Tempo, 180722
1, 11160, Tempo, 196078
1, 11280, Tempo, 180722
1, 11520, Tempo, 196078
1, 11640, Tempo, 180722
1, 11880, Tempo, 196078
1, 12000, Tempo, 180722
1, 12240, Tempo, 223048
1, 12360, Tempo, 185185
1, 12600, Tempo, 196078
1, 12720, Tempo, 185185
1, 12960, Tempo, 196078
1, 13080, Tempo, 185185
1, 14040, Tempo, 196078
1, 14160, Tempo, 185185
1, 14400, Tempo, 196078
1, 14520, Tempo, 185185
1, 15120, Tempo, 214285
1, 15240, Tempo, 185185
1, 15480, Tempo, 196078
1, 15600, Tempo, 187500
1, 15840, Tempo, 196078
1, 15960, Tempo, 187500
1, 16200, Tempo, 196078
1, 16320, Tempo, 187500
1, 16560, Tempo, 196078
1, 16680, Tempo, 185185
1, 16920, Tempo, 196078
1, 17040, Tempo, 185185
1, 17280, Tempo, 196078
1, 17400, Tempo, 185185
1, 17640, Tempo, 196078
1, 17760, Tempo, 185185
1, 18000, Tempo, 196078
1, 18120, Tempo, 180722
1, 18360, Tempo, 196078
1, 18480, Tempo, 180722
1, 19080, Tempo, 196078
1, 19200, Tempo, 180722
1, 19320, Tempo, 200000
1, 19440, Tempo, 196078
1, 19560, Tempo, 180722
1, 19800, Tempo, 196078
1, 19920, Tempo, 180722
1, 20160, Tempo, 196078
1, 20280, Tempo, 180722
1, 20520, Tempo, 196078
1, 20640, Tempo, 180722
1, 20880, Tempo, 196078
1, 21000, Tempo, 180722
1, 21240, Tempo, 196078
1, 21360, Tempo, 180722
1, 21960, Tempo, 196078
1, 22080, Tempo, 180722
1, 22320, Tempo, 196078
1, 22440, Tempo, 180722
1, 22680, Tempo, 196078
1, 22800, Tempo, 180722
1, 23040, Tempo, 196078
1, 23160, Tempo, 180722
1, 23400, Tempo, 196078
1, 23520, Tempo, 180722
1, 23760, Tempo, 196078
1, 23880, Tempo, 180722
1, 24120, Tempo, 224719
1, 24240, Tempo, 180722
1, 24480, Tempo, 196078
1, 24600, Tempo, 180722
1, 24840, Tempo, 196078
1, 24960, Tempo, 180722
1, 25200, Tempo, 196078
1, 25320, Tempo, 180722
1, 25560, Tempo, 187500
1, 25680, Tempo, 180722
1, 25920, Tempo, 187500
1, 26040, Tempo, 180722
1, 26280, Tempo, 187500
1, 26400, Tempo, 180722
1, 26640, Tempo, 187500
1, 26760, Tempo, 180722
1, 27000, Tempo, 196078
1, 27120, Tempo, 180722
1, 27360, Tempo, 196078
1, 27480, Tempo, 185185
1, 27720, Tempo, 196078
1, 27840, Tempo, 185185
1, 28080, Tempo, 196078
1, 28200, Tempo, 185185
1, 28440, Tempo, 196078
1, 28560, Tempo, 185185
1, 28800, Tempo, 196078
1, 28920, Tempo, 185185
1, 29160, Tempo, 196078
1, 29280, Tempo, 185185
1, 29520, Tempo, 196078
1, 29640, Tempo, 185185
1, 29880, Tempo, 196078
1, 30000, Tempo, 180722
1, 30240, Tempo, 196078
1, 30360, Tempo, 180722
1, 30600, Tempo, 196078
1, 30720, Tempo, 180722
1, 30960, Tempo, 196078
1, 31080, Tempo, 180722
1, 31320, Tempo, 196078
1, 31440, Tempo, 185185
1, 31680, Tempo, 196078
1, 31800, Tempo, 250000
1, 31920, Tempo, 187500
1, 32040, Tempo, 196078
1, 32160, Tempo, 184049
1, 32400, Tempo, 196078
1, 32520, Tempo, 184049
1, 32760, Tempo, 196078
1, 32880, Tempo, 180722
1, 33120, Tempo, 196078
1, 33240, Tempo, 180722
1, 33480, Tempo, 196078
1, 33600, Tempo, 184049
1, 33840, Tempo, 196078
1, 33960, Tempo, 184049
1, 34200, Tempo, 196078
1, 34320, Tempo, 180722
1, 34560, Tempo, 196078
1, 34680, Tempo, 180722
1, 34920, Tempo, 196078
1, 35040, Tempo, 180722
1, 35280, Tempo, 196078
1, 35400, Tempo, 180722
1, 35640, Tempo, 196078
1, 35760, Tempo, 180722
1, 36720, Tempo, 196078
1, 36840, Tempo, 180722
1, 37080, Tempo, 196078
1, 37200, Tempo, 180722
1, 37440, Tempo, 196078
1, 37560, Tempo, 180722
1, 37800, Tempo, 223048
1, 37920, Tempo, 185185
1, 38160, Tempo, 196078
1, 38280, Tempo, 185185
1, 38520, Tempo, 196078
1, 38640, Tempo, 185185
1, 39600, Tempo, 196078
1, 39720, Tempo, 185185
1, 39960, Tempo, 196078
1, 40080, Tempo, 185185
1, 40680, Tempo, 214285
1, 40800, Tempo, 185185
1, 41040, Tempo, 196078
1, 41160, Tempo, 187500
1, 41400, Tempo, 196078
1, 41520, Tempo, 187500
1, 41760, Tempo, 196078
1, 41880, Tempo, 187500
1, 42120, Tempo, 196078
1, 42240, Tempo, 185185
1, 42480, Tempo, 196078
1, 42600, Tempo, 185185
1, 42840, Tempo, 196078
1, 42960, Tempo, 185185
1, 43200, Tempo, 196078
1, 43320, Tempo, 185185
1, 43560, Tempo, 196078
1, 43680, Tempo, 180722
1, 43920, Tempo, 196078
1, 44040, Tempo, 180722
1, 44640, Tempo, 196078
1, 44760, Tempo, 180722
1, 44880, Tempo, 200000
1, 45000, Tempo, 196078
1, 45120, Tempo, 180722
1, 45360, Tempo, 196078
1, 45480, Tempo, 180722
1, 45720, Tempo, 196078
1, 45840, Tempo, 180722
1, 46080, Tempo, 196078
1, 46200, Tempo, 180722
1, 46440, Tempo, 196078
1, 46560, Tempo, 180722
1, 46800, Tempo, 196078
1, 46920, Tempo, 180722
1, 47520, Tempo, 196078
1, 47640, Tempo, 180722
1, 47880, Tempo, 196078
1, 48000, Tempo, 180722
1, 48240, Tempo, 196078
1, 48360, Tempo, 180722
1, 48600, Tempo, 196078
1, 48720, Tempo, 180722
1, 48960, Tempo, 196078
1, 49080, Tempo, 180722
1, 49320, Tempo, 196078
1, 49440, Tempo, 180722
1, 49680, Tempo, 224719
1, 49800, Tempo, 180722
1, 50040, Tempo, 196078
1, 50160, Tempo, 180722
1, 50400, Tempo, 196078
1, 50520, Tempo, 180722
1, 50760, Tempo, 196078
1, 50880, Tempo, 180722
1, 51120, Tempo, 187500
1, 51240, Tempo, 180722
1, 51480, Tempo, 187500
1, 51600, Tempo, 180722
1, 51840, Tempo, 187500
1, 51960, Tempo, 180722
1, 52200, Tempo, 187500
1, 52320, Tempo, 180722
1, 52560, Tempo, 196078
1, 52680, Tempo, 180722
1, 52920, Tempo, 196078
1, 53040, Tempo, 185185
1, 53280, Tempo, 196078
1, 53400, Tempo, 185185
1, 53640, Tempo, 196078
1, 53760, Tempo, 185185
1, 54000, Tempo, 196078
1, 54120, Tempo, 185185
1, 54360, Tempo, 196078
1, 54480, Tempo, 185185
1, 54720, Tempo, 196078
1, 54840, Tempo, 185185
1, 55080, Tempo, 196078
1, 55200, Tempo, 185185
1, 55440, Tempo, 196078
1, 55560, Tempo, 180722
1, 55800, Tempo, 196078
1, 55920, Tempo, 180722
1, 56160, Tempo, 196078
1, 56280, Tempo, 180722
1, 56520, Tempo, 196078
1, 56640, Tempo, 180722
1, 56880, Tempo, 196078
1, 57000, Tempo, 185185
1, 57240, Tempo, 230769
1, 57360, Tempo, 431654
1, 57480, Tempo, 280373
1, 57480, Marker_t, "Trio"
1, 57600, Tempo, 244897
1, 57960, Tempo, 239043
1, 58320, Tempo, 236220
1, 58680, Tempo, 232558
1, 59040, Tempo, 240000
1, 59160, Tempo, 225563
1, 59400, Tempo, 243902
1, 59520, Tempo, 225563
1, 59760, Tempo, 243902
1, 59880, Tempo, 225563
1, 60120, Tempo, 243902
1, 60240, Tempo, 239043
1, 60360, Tempo, 269058
1, 60450, Tempo, 333333
1, 60480, Tempo, 250000
1, 60600, Tempo, 243902
1, 60840, Tempo, 240000
1, 61200, Tempo, 235294
1, 61560, Tempo, 229007
1, 61920, Tempo, 240000
1, 62040, Tempo, 225563
1, 62280, Tempo, 243902
1, 62400, Tempo, 225563
1, 62640, Tempo, 243902
1, 62760, Tempo, 225563
1, 63000, Tempo, 243902
1, 63120, Tempo, 235294
1, 63240, Tempo, 269058
1, 63360, Tempo, 272727
1, 63480, Tempo, 225563
1, 63600, Tempo, 250000
1, 63720, Tempo, 240000
1, 63840, Tempo, 225563
1, 63960, Tempo, 250000
1, 64080, Tempo, 240000
1, 64200, Tempo, 225563
1, 64320, Tempo, 250000
1, 64440, Tempo, 240000
1, 64560, Tempo, 225563
1, 64680, Tempo, 250000
1, 64800, Tempo, 240000
1, 64920, Tempo, 225563
1, 65160, Tempo, 243902
1, 65280, Tempo, 225563
1, 65400, Tempo, 236220
1, 65520, Tempo, 243902
1, 65640, Tempo, 236220
1, 65760, Tempo, 250000
1, 65880, Tempo, 300000
1, 66000, Tempo, 250000
1, 66120, Tempo, 258620
1, 66240, Tempo, 244897
1, 66600, Tempo, 239043
1, 66960, Tempo, 236220
1, 67320, Tempo, 232558
1, 67680, Tempo, 240000
1, 67800, Tempo, 225563
1, 68040, Tempo, 243902
1, 68160, Tempo, 225563
1, 68400, Tempo, 243902
1, 68520, Tempo, 225563
1, 68760, Tempo, 243902
1, 68880, Tempo, 239043
1, 69000, Tempo, 269058
1, 69090, Tempo, 333333
1, 69120, Tempo, 250000
1, 69240, Tempo, 243902
1, 69480, Tempo, 240000
1, 69840, Tempo, 235294
1, 70200, Tempo, 229007
1, 70560, Tempo, 240000
1, 70680, Tempo, 225563
1, 70920, Tempo, 243902
1, 71040, Tempo, 225563
1, 71280, Tempo, 243902
1, 71400, Tempo, 225563
1, 71640, Tempo, 243902
1, 71760, Tempo, 235294
1, 71880, Tempo, 269058
1, 72000, Tempo, 272727
1, 72120, Tempo, 225563
1, 72240, Tempo, 250000
1, 72360, Tempo, 240000
1, 72480, Tempo, 225563
1, 72600, Tempo, 250000
1, 72720, Tempo, 240000
1, 72840, Tempo, 225563
1, 72960, Tempo, 250000
1, 73080, Tempo, 240000
1, 73200, Tempo, 225563
1, 73320, Tempo, 250000
1, 73440, Tempo, 240000
1, 73560, Tempo, 225563
1, 73800, Tempo, 243902
1, 73920, Tempo, 225563
1, 74040, Tempo, 236220
1, 74160, Tempo, 243902
1, 74280, Tempo, 236220
1, 74400, Tempo, 250000
1, 74520, Tempo, 300000
1, 74640, Tempo, 272727
1, 74760, Tempo, 258620
1, 74880, Tempo, 247933
1, 75240, Tempo, 243902
1, 75600, Tempo, 240000
1, 75840, Tempo, 250000
1, 75960, Tempo, 240000
1, 76080, Tempo, 243902
1, 76200, Tempo, 260869
1, 76320, Tempo, 272727
1, 76440, Tempo, 247933
1, 76680, Tempo, 243902
1, 77040, Tempo, 240000
1, 77280, Tempo, 250000
1, 77400, Tempo, 240000
1, 77640, Tempo, 250000
1, 77760, Tempo, 240000
1, 77880, Tempo, 225563
1, 78000, Tempo, 250000
1, 78120, Tempo, 260869
1, 78240, Tempo, 225563
1, 78360, Tempo, 250000
1, 78480, Tempo, 240000
1, 78600, Tempo, 225563
1, 78720, Tempo, 250000
1, 78840, Tempo, 260869
1, 78960, Tempo, 225563
1, 79080, Tempo, 250000
1, 79200, Tempo, 240000
1, 79320, Tempo, 225563
1, 79440, Tempo, 250000
1, 79560, Tempo, 260869
1, 79680, Tempo, 225563
1, 79800, Tempo, 250000
1, 79920, Tempo, 240000
1, 80040, Tempo, 225563
1, 80160, Tempo, 250000
1, 80280, Tempo, 240000
1, 80400, Tempo, 225563
1, 80520, Tempo, 250000
1, 80640, Tempo, 240000
1, 80760, Tempo, 230769
1, 80880, Tempo, 255319
1, 81000, Tempo, 246913
1, 81120, Tempo, 239043
1, 81240, Tempo, 258620
1, 81300, Tempo, 298507
1, 81330, Tempo, 352941
1, 81360, Tempo, 259740
1, 81480, Tempo, 246913
1, 81720, Tempo, 242914
1, 82080, Tempo, 240000
1, 82440, Tempo, 236220
1, 82800, Tempo, 232558
1, 83160, Tempo, 240000
1, 83280, Tempo, 225563
1, 83400, Tempo, 250000
1, 83520, Tempo, 240000
1, 83640, Tempo, 225563
1, 83760, Tempo, 250000
1, 83880, Tempo, 240000
1, 84000, Tempo, 225563
1, 84120, Tempo, 250000
1, 84240, Tempo, 240000
1, 84360, Tempo, 225563
1, 84480, Tempo, 250000
1, 84600, Tempo, 240000
1, 84720, Tempo, 225563
1, 84840, Tempo, 250000
1, 84960, Tempo, 240000
1, 85080, Tempo, 225563
1, 85200, Tempo, 250000
1, 85320, Tempo, 240000
1, 85440, Tempo, 225563
1, 85560, Tempo, 250000
1, 85680, Tempo, 240000
1, 85800, Tempo, 225563
1, 85920, Tempo, 250000
1, 86040, Tempo, 240000
1, 86160, Tempo, 233463
1, 86280, Tempo, 258620
1, 86400, Tempo, 240963
1, 86520, Tempo, 247933
1, 86640, Tempo, 260869
1, 86760, Tempo, 272727
1, 86880, Tempo, 288461
1, 87000, Tempo, 258620
1, 87120, Tempo, 247933
1, 87480, Tempo, 243902
1, 87840, Tempo, 240000
1, 88080, Tempo, 250000
1, 88200, Tempo, 240000
1, 88320, Tempo, 243902
1, 88440, Tempo, 260869
1, 88560, Tempo, 272727
1, 88680, Tempo, 247933
1, 88920, Tempo, 243902
1, 89280, Tempo, 240000
1, 89520, Tempo, 250000
1, 89640, Tempo, 240000
1, 89880, Tempo, 250000
1, 90000, Tempo, 240000
1, 90120, Tempo, 225563
1, 90240, Tempo, 250000
1, 90360, Tempo, 260869
1, 90480, Tempo, 225563
1, 90600, Tempo, 250000
1, 90720, Tempo, 240000
1, 90840, Tempo, 225563
1, 90960, Tempo, 250000
1, 91080, Tempo, 260869
1, 91200, Tempo, 225563
1, 91320, Tempo, 250000
1, 91440, Tempo, 240000
1, 91560, Tempo, 225563
1, 91680, Tempo, 250000
1, 91800, Tempo, 260869
1, 91920, Tempo, 225563
1, 92040, Tempo, 250000
1, 92160, Tempo, 240000
1, 92280, Tempo, 225563
1, 92400, Tempo, 250000
1, 92520, Tempo, 240000
1, 92640, Tempo, 225563
1, 92760, Tempo, 250000
1, 92880, Tempo, 240000
1, 93000, Tempo, 230769
1, 93120, Tempo, 255319
1, 93240, Tempo, 246913
1, 93360, Tempo, 239043
1, 93480, Tempo, 258620
1, 93540, Tempo, 298507
1, 93570, Tempo, 352941
1, 93600, Tempo, 259740
1, 93720, Tempo, 246913
1, 93960, Tempo, 242914
1, 94320, Tempo, 240000
1, 94680, Tempo, 236220
1, 95040, Tempo, 232558
1, 95400, Tempo, 240000
1, 95520, Tempo, 225563
1, 95640, Tempo, 250000
1, 95760, Tempo, 240000
1, 95880, Tempo, 225563
1, 96000, Tempo, 250000
1, 96120, Tempo, 240000
1, 96240, Tempo, 225563
1, 96360, Tempo, 250000
1, 96480, Tempo, 240000
1, 96600, Tempo, 225563
1, 96720, Tempo, 250000
1, 96840, Tempo, 240000
1, 96960, Tempo, 225563
1, 97080, Tempo, 250000
1, 97200, Tempo, 240000
1, 97320, Tempo, 225563
1, 97440, Tempo, 250000
1, 97560, Tempo, 240000
1, 97680, Tempo, 225563
1, 97800, Tempo, 250000
1, 97920, Tempo, 240000
1, 98040, Tempo, 225563
1, 98160, Tempo, 250000
1, 98280, Tempo, 240000
1, 98400, Tempo, 233463
1, 98520, Tempo, 258620
1, 98640, Tempo, 240963
1, 98760, Tempo, 247933
1, 98880, Tempo, 260869
1, 99000, Tempo, 272727
1, 99120, Tempo, 264317
1, 99240, Tempo, 242914
1, 99240, Marker_t, "Menuetto"
1, 99360, Tempo, 210526
1, 99480, Tempo, 188679
1, 99720, Tempo, 196078
1, 99840, Tempo, 180722
1, 100080, Tempo, 196078
1, 100200, Tempo, 180722
1, 100440, Tempo, 196078
1, 100560, Tempo, 180722
1, 100800, Tempo, 196078
1, 100920, Tempo, 180722
1, 101160, Tempo, 196078
1, 101280, Tempo, 180722
1, 101880, Tempo, 196078
1, 102000, Tempo, 230769
1, 102120, Tempo, 187500
1, 102240, Tempo, 196078
1, 102360, Tempo, 180722
1, 102600, Tempo, 196078
1, 102720, Tempo, 180722
1, 102960, Tempo, 196078
1, 103080, Tempo, 180722
1, 103320, Tempo, 196078
1, 103440, Tempo, 180722
1, 103680, Tempo, 196078
1, 103800, Tempo, 180722
1, 104040, Tempo, 196078
1, 104160, Tempo, 180722
1, 104760, Tempo, 196078
1, 104880, Tempo, 250000
1, 105000, Tempo, 187500
1, 105120, Tempo, 196078
1, 105240, Tempo, 184049
1, 105480, Tempo, 196078
1, 105600, Tempo, 184049
1, 105840, Tempo, 196078
1, 105960, Tempo, 180722
1, 106200, Tempo, 196078
1, 106320, Tempo, 180722
1, 106560, Tempo, 196078
1, 106680, Tempo, 184049
1, 106920, Tempo, 196078
1, 107040, Tempo, 184049
1, 107280, Tempo, 196078
1, 107400, Tempo, 180722
1, 107640, Tempo, 196078
1, 107760, Tempo, 180722
1, 108000, Tempo, 196078
1, 108120, Tempo, 180722
1, 108360, Tempo, 196078
1, 108480, Tempo, 180722
1, 108720, Tempo, 196078
1, 108840, Tempo, 180722
1, 109800, Tempo, 196078
1, 109920, Tempo, 180722
1, 110160, Tempo, 196078
1, 110280, Tempo, 180722
1, 110520, Tempo, 196078
1, 110640, Tempo, 180722
1, 110880, Tempo, 223048
1, 111000, Tempo, 185185
1, 111240, Tempo, 196078
1, 111360, Tempo, 185185
1, 111600, Tempo, 196078
1, 111720, Tempo, 185185
1, 112680, Tempo, 196078
1, 112800, Tempo, 185185
1, 113040, Tempo, 196078
1, 113160, Tempo, 185185
1, 113760, Tempo, 214285
1, 113880, Tempo, 185185
1, 114120, Tempo, 196078
1, 114240, Tempo, 187500
1, 114480, Tempo, 196078
1, 114600, Tempo, 187500
1, 114840, Tempo, 196078
1, 114960, Tempo, 187500
1, 115200, Tempo, 196078
1, 115320, Tempo, 185185
1, 115560, Tempo, 196078
1, 115680, Tempo, 185185
1, 115920, Tempo, 196078
1, 116040, Tempo, 185185
1, 116280, Tempo, 196078
1, 116400, Tempo, 185185
1, 116640, Tempo, 196078
1, 116760, Tempo, 180722
1, 117000, Tempo, 196078
1, 117120, Tempo, 180722
1, 117720, Tempo, 196078
1, 117840, Tempo, 180722
1, 117960, Tempo, 200000
1, 118080, Tempo, 196078
1, 118200, Tempo, 180722
1, 118440, Tempo, 196078
1, 118560, Tempo, 180722
1, 118800, Tempo, 196078
1, 118920, Tempo, 180722
1, 119160, Tempo, 196078
1, 119280, Tempo, 180722
1, 119520, Tempo, 196078
1, 119640, Tempo, 180722
1, 119880, Tempo, 196078
1, 120000, Tempo, 180722
1, 120600, Tempo, 196078
1, 120720, Tempo, 180722
1, 120960, Tempo, 196078
1, 121080, Tempo, 180722
1, 121320, Tempo, 196078
1, 121440, Tempo, 180722
1, 121680, Tempo, 196078
1, 121800, Tempo, 180722
1, 122040, Tempo, 196078
1, 122160, Tempo, 180722
1, 122400, Tempo, 196078
1, 122520, Tempo, 180722
1, 122760, Tempo, 224719
1, 122880, Tempo, 180722
1, 123120, Tempo, 196078
1, 123240, Tempo, 180722
1, 123480, Tempo, 196078
1, 123600, Tempo, 180722
1, 123840, Tempo, 196078
1, 123960, Tempo, 180722
1, 124200, Tempo, 187500
1, 124320, Tempo, 180722
1, 124560, Tempo, 187500
1, 124680, Tempo, 180722
1, 124920, Tempo, 187500
1, 125040, Tempo, 180722
1, 125280, Tempo, 187500
1, 125400, Tempo, 180722
1, 125640, Tempo, 196078
1, 125760, Tempo, 180722
1, 126000, Tempo, 196078
1, 126120, Tempo, 185185
1, 126360, Tempo, 196078
1, 126480, Tempo, 185185
1, 126720, Tempo, 196078
1, 126840, Tempo, 185185
1, 127080, Tempo, 196078
1, 127200, Tempo, 185185
1, 127440, Tempo, 196078
1, 127560, Tempo, 185185
1, 127800, Tempo, 196078
1, 127920, Tempo, 185185
1, 128160, Tempo, 196078
1, 128280, Tempo, 185185
1, 128520, Tempo, 196078
1, 128640, Tempo, 180722
1, 128880, Tempo, 196078
1, 129000, Tempo, 180722
1, 129240, Tempo, 196078
1, 129360, Tempo, 180722
1, 129600, Tempo, 196078
1, 129720, Tempo, 180722
1, 129960, Tempo, 192307
1, 130080, Tempo, 198675
1, 130320, Tempo, 300000
1, 130320, End_track
2, 0, Start_track
2, 0, MIDI_port, 0
2, 0, Title_t, "2 Flauti"
2, 0, Program_c, 0, 73
2, 0, Control_c, 0, 10, 52
2, 1, Control_c, 0, 121, 0
2, 6, Program_c, 0, 73
2, 11, Pitch_bend_c, 0, 8192
2, 16, Control_c, 0, 11, 77
2, 21, Control_c, 0, 7, 127
2, 26, Control_c, 0, 91, 54
2, 31, Control_c, 0, 93, 0
2, 36, Control_c, 0, 10, 52
2, 2761, Note_on_c, 0, 85, 98
2, 2761, Control_c, 0, 11, 77
2, 2821, Note_on_c, 0, 85, 0
2, 2881, Note_on_c, 0, 86, 98
2, 2941, Note_on_c, 0, 86, 0
2, 3001, Note_on_c, 0, 86, 98
2, 3061, Note_on_c, 0, 86, 0
2, 3121, Note_on_c, 0, 86, 98
2, 3181, Note_on_c, 0, 86, 0
2, 3241, Note_on_c, 0, 79, 98
2, 3361, Note_on_c, 0, 79, 0
2, 5641, Note_on_c, 0, 85, 98
2, 5641, Control_c, 0, 11, 77
2, 5701, Note_on_c, 0, 85, 0
2, 5761, Note_on_c, 0, 86, 98
2, 5821, Note_on_c, 0, 86, 0
2, 5881, Note_on_c, 0, 86, 98
2, 5941, Note_on_c, 0, 86, 0
2, 6001, Note_on_c, 0, 86, 98
2, 6061, Note_on_c, 0, 86, 0
2, 6121, Note_on_c, 0, 79, 98
2, 6241, Note_on_c, 0, 79, 0
2, 8761, Control_c, 0, 11, 77
2, 8761, Note_on_c, 0, 77, 98
2, 8761, Note_on_c, 0, 89, 98
2, 8821, Note_on_c, 0, 89, 0
2, 8821, Note_on_c, 0, 77, 0
2, 8881, Note_on_c, 0, 77, 98
2, 8881, Note_on_c, 0, 89, 98
2, 8941, Note_on_c, 0, 89, 0
2, 8941, Note_on_c, 0, 77, 0
2, 9001, Note_on_c, 0, 77, 98
2, 9001, Note_on_c, 0, 89, 98
2, 9121, Note_on_c, 0, 89, 0
2, 9121, Note_on_c, 0, 77, 0
2, 9121, Note_on_c, 0, 75, 98
2, 9121, Note_on_c, 0, 87, 98
2, 9241, Note_on_c, 0, 87, 0
2, 9241, Note_on_c, 0, 75, 0
2, 10081, Note_on_c, 0, 82, 98
2, 10081, Control_c, 0, 11, 86
2, 10141, Note_on_c, 0, 82, 0
2, 10201, Note_on_c, 0, 82, 98
2, 10261, Note_on_c, 0, 82, 0
2, 10321, Note_on_c, 0, 82, 98
2, 10381, Note_on_c, 0, 82, 0
2, 10441, Note_on_c, 0, 82, 98
2, 10501, Note_on_c, 0, 82, 0
2, 10561, Note_on_c, 0, 82, 98
2, 10621, Note_on_c, 0, 82, 0
2, 10681, Note_on_c, 0, 82, 98
2, 10741, Note_on_c, 0, 82, 0
2, 10801, Note_on_c, 0, 82, 98
2, 10801, Note_on_c, 0, 77, 98
2, 10801, Control_c, 0, 11, 98
2, 10819, Control_c, 0, 11, 97
2, 10837, Control_c, 0, 11, 95
2, 10855, Control_c, 0, 11, 93
2, 10873, Control_c, 0, 11, 91
2, 10891, Control_c, 0, 11, 89
2, 10909, Control_c, 0, 11, 87
2, 10921, Note_on_c, 0, 77, 0
2, 10921, Note_on_c, 0, 82, 0
2, 10921, Note_on_c, 0, 80, 98
2, 11041, Note_on_c, 0, 80, 0
2, 11161, Control_c, 0, 11, 98
2, 11161, Note_on_c, 0, 75, 98
2, 11161, Note_on_c, 0, 80, 98
2, 11179, Control_c, 0, 11, 97
2, 11197, Control_c, 0, 11, 95
2, 11215, Control_c, 0, 11, 93
2, 11233, Control_c, 0, 11, 91
2, 11251, Control_c, 0, 11, 89
2, 11269, Control_c, 0, 11, 87
2, 11281, Note_on_c, 0, 80, 0
2, 11281, Note_on_c, 0, 75, 0
2, 11281, Note_on_c, 0, 78, 98
2, 11401, Note_on_c, 0, 78, 0
2, 11521, Note_on_c, 0, 78, 98
2, 11521, Control_c, 0, 11, 98
2, 11521, Note_on_c, 0, 73, 98
2, 11539, Control_c, 0, 11, 97
2, 11557, Control_c, 0, 11, 95
2, 11575, Control_c, 0, 11, 93
2, 11593, Control_c, 0, 11, 91
2, 11611, Control_c, 0, 11, 89
2, 11629, Control_c, 0, 11, 87
2, 11641, Note_on_c, 0, 73, 0
2, 11641, Note_on_c, 0, 78, 0
2, 11641, Note_on_c, 0, 77, 98
2, 11761, Note_on_c, 0, 77, 0
2, 11881, Note_on_c, 0, 77, 98
2, 11881, Note_on_c, 0, 72, 98
2, 11881, Control_c, 0, 11, 98
2, 11899, Control_c, 0, 11, 97
2, 11917, Control_c, 0, 11, 95
2, 11935, Control_c, 0, 11, 93
2, 11953, Control_c, 0, 11, 91
2, 11971, Control_c, 0, 11, 89
2, 11989, Control_c, 0, 11, 87
2, 12001, Note_on_c, 0, 72, 0
2, 12001, Note_on_c, 0, 77, 0
2, 12001, Note_on_c, 0, 75, 98
2, 12121, Note_on_c, 0, 75, 0
2, 12241, Note_on_c, 0, 65, 78
2, 12241, Note_on_c, 0, 73, 78
2, 12361, Note_on_c, 0, 73, 0
2, 12361, Note_on_c, 0, 65, 0
2, 13201, Note_on_c, 0, 87, 95
2, 13201, Control_c, 0, 11, 47
2, 13201, Note_on_c, 0, 78, 95
2, 13261, Note_on_c, 0, 78, 0
2, 13261, Note_on_c, 0, 87, 0
2, 13321, Note_on_c, 0, 87, 95
2, 13321, Note_on_c, 0, 78, 95
2, 13381, Note_on_c, 0, 78, 0
2, 13381, Note_on_c, 0, 87, 0
2, 13441, Note_on_c, 0, 78, 95
2, 13441, Note_on_c, 0, 87, 95
2, 13501, Note_on_c, 0, 87, 0
2, 13501, Note_on_c, 0, 78, 0
2, 13561, Note_on_c, 0, 87, 95
2, 13561, Note_on_c, 0, 78, 95
2, 13621, Note_on_c, 0, 78, 0
2, 13621, Note_on_c, 0, 87, 0
2, 13681, Note_on_c, 0, 78, 95
2, 13681, Note_on_c, 0, 87, 95
2, 13801, Note_on_c, 0, 87, 0
2, 13801, Note_on_c, 0, 78, 0
2, 13801, Note_on_c, 0, 77, 85
2, 13801, Note_on_c, 0, 85, 85
2, 13891, Note_on_c, 0, 85, 0
2, 13891, Note_on_c, 0, 77, 0
2, 14641, Note_on_c, 0, 87, 95
2, 14641, Note_on_c, 0, 78, 95
2, 14701, Note_on_c, 0, 78, 0
2, 14701, Note_on_c, 0, 87, 0
2, 14761, Note_on_c, 0, 78, 95
2, 14761, Note_on_c, 0, 87, 95
2, 14821, Note_on_c, 0, 87, 0
2, 14821, Note_on_c, 0, 78, 0
2, 14881, Note_on_c, 0, 87, 95
2, 14881, Note_on_c, 0, 78, 95
2, 14941, Note_on_c, 0, 78, 0
2, 14941, Note_on_c, 0, 87, 0
2, 15001, Note_on_c, 0, 78, 95
2, 15001, Note_on_c, 0, 87, 95
2, 15061, Note_on_c, 0, 87, 0
2, 15061, Note_on_c, 0, 78, 0
2, 15121, Note_on_c, 0, 77, 85
2, 15121, Note_on_c, 0, 85, 85
2, 15211, Note_on_c, 0, 85, 0
2, 15211, Note_on_c, 0, 77, 0
2, 19321, Note_on_c, 0, 79, 98
2, 19321, Note_on_c, 0, 76, 98
2, 19321, Control_c, 0, 11, 77
2, 19381, Note_on_c, 0, 76, 0
2, 19381, Note_on_c, 0, 79, 0
2, 19441, Note_on_c, 0, 81, 98
2, 19441, Note_on_c, 0, 77, 98
2, 19561, Note_on_c, 0, 77, 0
2, 19561, Note_on_c, 0, 81, 0
2, 19681, Note_on_c, 0, 83, 98
2, 19681, Note_on_c, 0, 74, 98
2, 19741, Note_on_c, 0, 74, 0
2, 19741, Note_on_c, 0, 83, 0
2, 19801, Note_on_c, 0, 84, 98
2, 19801, Note_on_c, 0, 76, 98
2, 19921, Note_on_c, 0, 76, 0
2, 19921, Note_on_c, 0, 84, 0
2, 20041, Note_on_c, 0, 79, 98
2, 20041, Note_on_c, 0, 86, 98
2, 20101, Note_on_c, 0, 86, 0
2, 20101, Note_on_c, 0, 79, 0
2, 20161, Note_on_c, 0, 79, 98
2, 20161, Note_on_c, 0, 88, 98
2, 20221, Note_on_c, 0, 88, 0
2, 20221, Note_on_c, 0, 79, 0
2, 20281, Note_on_c, 0, 79, 98
2, 20281, Note_on_c, 0, 88, 98
2, 20341, Note_on_c, 0, 88, 0
2, 20341, Note_on_c, 0, 79, 0
2, 20401, Note_on_c, 0, 84, 98
2, 20401, Note_on_c, 0, 90, 98
2, 20461, Note_on_c, 0, 90, 0
2, 20461, Note_on_c, 0, 84, 0
2, 20521, Control_c, 0, 11, 86
2, 20521, Note_on_c, 0, 79, 98
2, 20521, Note_on_c, 0, 91, 98
2, 21721, Note_on_c, 0, 91, 0
2, 21721, Note_on_c, 0, 79, 0
2, 21721, Note_on_c, 0, 88, 98
2, 21721, Note_on_c, 0, 76, 98
2, 21781, Note_on_c, 0, 76, 0
2, 21781, Note_on_c, 0, 88, 0
2, 21841, Note_on_c, 0, 78, 98
2, 21841, Note_on_c, 0, 90, 98
2, 21901, Note_on_c, 0, 90, 0
2, 21901, Note_on_c, 0, 78, 0
2, 21961, Control_c, 0, 11, 98
2, 21961, Note_on_c, 0, 79, 98
2, 21961, Note_on_c, 0, 91, 98
2, 21978, Control_c, 0, 11, 97
2, 21996, Control_c, 0, 11, 95
2, 22014, Control_c, 0, 11, 93
2, 22032, Control_c, 0, 11, 91
2, 22050, Control_c, 0, 11, 89
2, 22068, Control_c, 0, 11, 87
2, 22081, Note_on_c, 0, 91, 0
2, 22081, Note_on_c, 0, 79, 0
2, 22201, Note_on_c, 0, 84, 98
2, 22201, Note_on_c, 0, 72, 98
2, 22261, Note_on_c, 0, 72, 0
2, 22261, Note_on_c, 0, 84, 0
2, 22321, Note_on_c, 0, 74, 98
2, 22321, Note_on_c, 0, 86, 98
2, 22381, Note_on_c, 0, 86, 0
2, 22381, Note_on_c, 0, 74, 0
2, 22441, Note_on_c, 0, 74, 98
2, 22441, Note_on_c, 0, 86, 98
2, 22501, Note_on_c, 0, 86, 0
2, 22501, Note_on_c, 0, 74, 0
2, 22561, Note_on_c, 0, 88, 98
2, 22561, Note_on_c, 0, 76, 98
2, 22621, Note_on_c, 0, 76, 0
2, 22621, Note_on_c, 0, 88, 0
2, 22681, Note_on_c, 0, 89, 98
2, 22681, Note_on_c, 0, 77, 98
2, 22681, Control_c, 0, 11, 98
2, 22698, Control_c, 0, 11, 97
2, 22716, Control_c, 0, 11, 95
2, 22734, Control_c, 0, 11, 93
2, 22752, Control_c, 0, 11, 91
2, 22770, Control_c, 0, 11, 89
2, 22788, Control_c, 0, 11, 87
2, 22801, Note_on_c, 0, 77, 0
2, 22801, Note_on_c, 0, 89, 0
2, 22921, Note_on_c, 0, 79, 98
2, 22981, Note_on_c, 0, 79, 0
2, 23041, Note_on_c, 0, 81, 98
2, 23101, Note_on_c, 0, 81, 0
2, 23161, Note_on_c, 0, 81, 98
2, 23221, Note_on_c, 0, 81, 0
2, 23281, Note_on_c, 0, 83, 98
2, 23341, Note_on_c, 0, 83, 0
2, 23401, Note_on_c, 0, 84, 98
2, 23621, Note_on_c, 0, 84, 0
2, 23641, Note_on_c, 0, 81, 98
2, 23641, Note_on_c, 0, 89, 98
2, 23701, Note_on_c, 0, 89, 0
2, 23701, Note_on_c, 0, 81, 0
2, 23761, Note_on_c, 0, 88, 98
2, 23761, Note_on_c, 0, 79, 98
2, 23981, Note_on_c, 0, 79, 0
2, 23981, Note_on_c, 0, 88, 0
2, 24001, Note_on_c, 0, 83, 98
2, 24001, Note_on_c, 0, 77, 98
2, 24061, Note_on_c, 0, 77, 0
2, 24061, Note_on_c, 0, 83, 0
2, 24121, Note_on_c, 0, 76, 98
2, 24121, Note_on_c, 0, 84, 98
2, 24241, Note_on_c, 0, 84, 0
2, 24241, Note_on_c, 0, 76, 0
2, 25081, Note_on_c, 0, 84, 78
2, 25141, Note_on_c, 0, 84, 0
2, 25201, Note_on_c, 0, 86, 78
2, 25201, Control_c, 0, 11, 98
2, 25224, Control_c, 0, 11, 97
2, 25248, Control_c, 0, 11, 96
2, 25272, Control_c, 0, 11, 95
2, 25296, Control_c, 0, 11, 94
2, 25320, Control_c, 0, 11, 92
2, 25344, Control_c, 0, 11, 91
2, 25368, Control_c, 0, 11, 90
2, 25392, Control_c, 0, 11, 89
2, 25416, Control_c, 0, 11, 87
2, 25440, Control_c, 0, 11, 86
2, 25441, Note_on_c, 0, 86, 0
2, 25441, Note_on_c, 0, 83, 78
2, 25541, Note_on_c, 0, 83, 0
2, 25561, Note_on_c, 0, 84, 78
2, 25621, Note_on_c, 0, 84, 0
2, 25921, Note_on_c, 0, 84, 78
2, 25981, Note_on_c, 0, 84, 0
2, 26041, Control_c, 0, 11, 98
2, 26041, Note_on_c, 0, 86, 78
2, 26058, Control_c, 0, 11, 97
2, 26076, Control_c, 0, 11, 95
2, 26094, Control_c, 0, 11, 93
2, 26112, Control_c, 0, 11, 91
2, 26130, Control_c, 0, 11, 89
2, 26148, Control_c, 0, 11, 87
2, 26161, Note_on_c, 0, 86, 0
2, 26161, Note_on_c, 0, 83, 78
2, 26261, Note_on_c, 0, 83, 0
2, 26281, Note_on_c, 0, 84, 78
2, 26341, Note_on_c, 0, 84, 0
2, 26641, Note_on_c, 0, 84, 78
2, 26701, Note_on_c, 0, 84, 0
2, 26761, Note_on_c, 0, 86, 78
2, 26761, Control_c, 0, 11, 98
2, 26778, Control_c, 0, 11, 97
2, 26796, Control_c, 0, 11, 95
2, 26814, Control_c, 0, 11, 93
2, 26832, Control_c, 0, 11, 91
2, 26850, Control_c, 0, 11, 89
2, 26868, Control_c, 0, 11, 87
2, 26881, Note_on_c, 0, 86, 0
2, 26881, Note_on_c, 0, 83, 78
2, 26884, Control_c, 0, 11, 86
2, 26898, Control_c, 0, 11, 83
2, 26915, Control_c, 0, 11, 80
2, 26932, Control_c, 0, 11, 77
2, 26945, Control_c, 0, 11, 74
2, 26962, Control_c, 0, 11, 71
2, 26979, Control_c, 0, 11, 68
2, 26981, Note_on_c, 0, 83, 0
2, 26996, Control_c, 0, 11, 65
2, 27001, Note_on_c, 0, 84, 98
2, 27001, Control_c, 0, 11, 47
2, 27061, Note_on_c, 0, 84, 0
2, 27361, Note_on_c, 0, 83, 63
2, 27361, Note_on_c, 0, 89, 63
2, 27481, Note_on_c, 0, 89, 0
2, 27481, Note_on_c, 0, 83, 0
2, 27721, Note_on_c, 0, 88, 66
2, 27721, Note_on_c, 0, 84, 66
2, 27841, Note_on_c, 0, 84, 0
2, 27841, Note_on_c, 0, 88, 0
2, 28081, Note_on_c, 0, 83, 70
2, 28081, Note_on_c, 0, 77, 70
2, 28201, Note_on_c, 0, 77, 0
2, 28201, Note_on_c, 0, 83, 0
2, 28441, Note_on_c, 0, 76, 74
2, 28441, Note_on_c, 0, 84, 74
2, 28441, Control_c, 0, 11, 47
2, 28477, Control_c, 0, 11, 48
2, 28513, Control_c, 0, 11, 49
2, 28549, Control_c, 0, 11, 50
2, 28561, Note_on_c, 0, 84, 0
2, 28561, Note_on_c, 0, 76, 0
2, 28585, Control_c, 0, 11, 51
2, 28621, Control_c, 0, 11, 52
2, 28657, Control_c, 0, 11, 53
2, 28693, Control_c, 0, 11, 54
2, 28729, Control_c, 0, 11, 55
2, 28765, Control_c, 0, 11, 56
2, 28801, Note_on_c, 0, 89, 78
2, 28801, Note_on_c, 0, 83, 78
2, 28801, Control_c, 0, 11, 57
2, 28837, Control_c, 0, 11, 58
2, 28873, Control_c, 0, 11, 59
2, 28909, Control_c, 0, 11, 60
2, 28921, Note_on_c, 0, 83, 0
2, 28921, Note_on_c, 0, 89, 0
2, 28945, Control_c, 0, 11, 61
2, 28981, Control_c, 0, 11, 62
2, 29017, Control_c, 0, 11, 62
2, 29053, Control_c, 0, 11, 63
2, 29089, Control_c, 0, 11, 63
2, 29125, Control_c, 0, 11, 64
2, 29161, Control_c, 0, 11, 65
2, 29161, Note_on_c, 0, 88, 82
2, 29161, Note_on_c, 0, 84, 82
2, 29197, Control_c, 0, 11, 65
2, 29233, Control_c, 0, 11, 66
2, 29269, Control_c, 0, 11, 66
2, 29281, Note_on_c, 0, 84, 0
2, 29281, Note_on_c, 0, 88, 0
2, 29305, Control_c, 0, 11, 67
2, 29341, Control_c, 0, 11, 68
2, 29377, Control_c, 0, 11, 68
2, 29413, Control_c, 0, 11, 69
2, 29449, Control_c, 0, 11, 70
2, 29485, Control_c, 0, 11, 70
2, 29521, Control_c, 0, 11, 71
2, 29521, Note_on_c, 0, 83, 86
2, 29521, Note_on_c, 0, 77, 86
2, 29557, Control_c, 0, 11, 71
2, 29593, Control_c, 0, 11, 72
2, 29629, Control_c, 0, 11, 73
2, 29641, Note_on_c, 0, 77, 0
2, 29641, Note_on_c, 0, 83, 0
2, 29665, Control_c, 0, 11, 73
2, 29701, Control_c, 0, 11, 74
2, 29737, Control_c, 0, 11, 74
2, 29773, Control_c, 0, 11, 75
2, 29809, Control_c, 0, 11, 76
2, 29845, Control_c, 0, 11, 76
2, 29881, Note_on_c, 0, 84, 90
2, 29881, Note_on_c, 0, 76, 90
2, 29881, Control_c, 0, 11, 77
2, 30001, Note_on_c, 0, 76, 0
2, 30001, Note_on_c, 0, 84, 0
2, 30241, Note_on_c, 0, 83, 94
2, 30241, Note_on_c, 0, 77, 94
2, 30361, Note_on_c, 0, 77, 0
2, 30361, Note_on_c, 0, 83, 0
2, 30601, Control_c, 0, 11, 86
2, 30601, Note_on_c, 0, 72, 98
2, 30601, Note_on_c, 0, 84, 98
2, 30721, Note_on_c, 0, 84, 0
2, 30721, Note_on_c, 0, 72, 0
2, 30721, Note_on_c, 0, 76, 98
2, 30721, Note_on_c, 0, 88, 98
2, 30841, Note_on_c, 0, 88, 0
2, 30841, Note_on_c, 0, 76, 0
2, 30841, Note_on_c, 0, 91, 98
2, 30841, Control_c, 0, 11, 98
2, 30841, Note_on_c, 0, 79, 98
2, 30858, Control_c, 0, 11, 97
2, 30876, Control_c, 0, 11, 95
2, 30894, Control_c, 0, 11, 93
2, 30912, Control_c, 0, 11, 91
2, 30930, Control_c, 0, 11, 89
2, 30948, Control_c, 0, 11, 87
2, 31061, Note_on_c, 0, 79, 0
2, 31061, Note_on_c, 0, 91, 0
2, 31081, Note_on_c, 0, 77, 98
2, 31081, Note_on_c, 0, 89, 98
2, 31141, Note_on_c, 0, 89, 0
2, 31141, Note_on_c, 0, 77, 0
2, 31201, Note_on_c, 0, 74, 98
2, 31201, Note_on_c, 0, 86, 98
2, 31261, Note_on_c, 0, 86, 0
2, 31261, Note_on_c, 0, 74, 0
2, 31321, Note_on_c, 0, 84, 98
2, 31381, Note_on_c, 0, 84, 0
2, 31441, Note_on_c, 0, 79, 98
2, 31501, Note_on_c, 0, 79, 0
2, 31561, Note_on_c, 0, 76, 98
2, 31621, Note_on_c, 0, 76, 0
2, 31681, Note_on_c, 0, 72, 98
2, 31741, Note_on_c, 0, 72, 0
2, 34321, Control_c, 0, 11, 77
2, 34321, Note_on_c, 0, 77, 98
2, 34321, Note_on_c, 0, 89, 98
2, 34381, Note_on_c, 0, 89, 0
2, 34381, Note_on_c, 0, 77, 0
2, 34441, Note_on_c, 0, 77, 98
2, 34441, Note_on_c, 0, 89, 98
2, 34501, Note_on_c, 0, 89, 0
2, 34501, Note_on_c, 0, 77, 0
2, 34561, Note_on_c, 0, 77, 98
2, 34561, Note_on_c, 0, 89, 98
2, 34681, Note_on_c, 0, 89, 0
2, 34681, Note_on_c, 0, 77, 0
2, 34681, Note_on_c, 0, 75, 98
2, 34681, Note_on_c, 0, 87, 98
2, 34801, Note_on_c, 0, 87, 0
2, 34801, Note_on_c, 0, 75, 0
2, 35641, Control_c, 0, 11, 86
2, 35641, Note_on_c, 0, 82, 98
2, 35701, Note_on_c, 0, 82, 0
2, 35761, Note_on_c, 0, 82, 98
2, 35821, Note_on_c, 0, 82, 0
2, 35881, Note_on_c, 0, 82, 98
2, 35941, Note_on_c, 0, 82, 0
2, 36001, Note_on_c, 0, 82, 98
2, 36061, Note_on_c, 0, 82, 0
2, 36121, Note_on_c, 0, 82, 98
2, 36181, Note_on_c, 0, 82, 0
2, 36241, Note_on_c, 0, 82, 98
2, 36301, Note_on_c, 0, 82, 0
2, 36361, Note_on_c, 0, 82, 98
2, 36361, Note_on_c, 0, 77, 98
2, 36361, Control_c, 0, 11, 98
2, 36379, Control_c, 0, 11, 97
2, 36397, Control_c, 0, 11, 95
2, 36415, Control_c, 0, 11, 93
2, 36433, Control_c, 0, 11, 91
2, 36451, Control_c, 0, 11, 89
2, 36469, Control_c, 0, 11, 87
2, 36481, Note_on_c, 0, 77, 0
2, 36481, Note_on_c, 0, 82, 0
2, 36481, Note_on_c, 0, 80, 98
2, 36601, Note_on_c, 0, 80, 0
2, 36721, Note_on_c, 0, 80, 98
2, 36721, Note_on_c, 0, 75, 98
2, 36721, Control_c, 0, 11, 98
2, 36739, Control_c, 0, 11, 97
2, 36757, Control_c, 0, 11, 95
2, 36775, Control_c, 0, 11, 93
2, 36793, Control_c, 0, 11, 91
2, 36811, Control_c, 0, 11, 89
2, 36829, Control_c, 0, 11, 87
2, 36841, Note_on_c, 0, 75, 0
2, 36841, Note_on_c, 0, 80, 0
2, 36841, Note_on_c, 0, 78, 98
2, 36961, Note_on_c, 0, 78, 0
2, 37081, Note_on_c, 0, 78, 98
2, 37081, Control_c, 0, 11, 98
2, 37081, Note_on_c, 0, 73, 98
2, 37099, Control_c, 0, 11, 97
2, 37117, Control_c, 0, 11, 95
2, 37135, Control_c, 0, 11, 93
2, 37153, Control_c, 0, 11, 91
2, 37171, Control_c, 0, 11, 89
2, 37189, Control_c, 0, 11, 87
2, 37201, Note_on_c, 0, 73, 0
2, 37201, Note_on_c, 0, 78, 0
2, 37201, Note_on_c, 0, 77, 98
2, 37321, Note_on_c, 0, 77, 0
2, 37441, Control_c, 0, 11, 98
2, 37441, Note_on_c, 0, 72, 98
2, 37441, Note_on_c, 0, 77, 98
2, 37459, Control_c, 0, 11, 97
2, 37477, Control_c, 0, 11, 95
2, 37495, Control_c, 0, 11, 93
2, 37513, Control_c, 0, 11, 91
2, 37531, Control_c, 0, 11, 89
2, 37549, Control_c, 0, 11, 87
2, 37561, Note_on_c, 0, 77, 0
2, 37561, Note_on_c, 0, 72, 0
2, 37561, Note_on_c, 0, 75, 98
2, 37681, Note_on_c, 0, 75, 0
2, 37801, Note_on_c, 0, 73, 78
2, 37801, Note_on_c, 0, 65, 78
2, 37921, Note_on_c, 0, 65, 0
2, 37921, Note_on_c, 0, 73, 0
2, 38761, Control_c, 0, 11, 47
2, 38761, Note_on_c, 0, 78, 95
2, 38761, Note_on_c, 0, 87, 95
2, 38821, Note_on_c, 0, 87, 0
2, 38821, Note_on_c, 0, 78, 0
2, 38881, Note_on_c, 0, 78, 95
2, 38881, Note_on_c, 0, 87, 95
2, 38941, Note_on_c, 0, 87, 0
2, 38941, Note_on_c, 0, 78, 0
2, 39001, Note_on_c, 0, 87, 95
2, 39001, Note_on_c, 0, 78, 95
2, 39061, Note_on_c, 0, 78, 0
2, 39061, Note_on_c, 0, 87, 0
2, 39121, Note_on_c, 0, 78, 95
2, 39121, Note_on_c, 0, 87, 95
2, 39181, Note_on_c, 0, 87, 0
2, 39181, Note_on_c, 0, 78, 0
2, 39241, Note_on_c, 0, 87, 95
2, 39241, Note_on_c, 0, 78, 95
2, 39361, Note_on_c, 0, 78, 0
2, 39361, Note_on_c, 0, 87, 0
2, 39361, Note_on_c, 0, 77, 85
2, 39361, Note_on_c, 0, 85, 85
2, 39451, Note_on_c, 0, 85, 0
2, 39451, Note_on_c, 0, 77, 0
2, 40201, Note_on_c, 0, 87, 95
2, 40201, Note_on_c, 0, 78, 95
2, 40261, Note_on_c, 0, 78, 0
2, 40261, Note_on_c, 0, 87, 0
2, 40321, Note_on_c, 0, 78, 95
2, 40321, Note_on_c, 0, 87, 95
2, 40381, Note_on_c, 0, 87, 0
2, 40381, Note_on_c, 0, 78, 0
2, 40441, Note_on_c, 0, 87, 95
2, 40441, Note_on_c, 0, 78, 95
2, 40501, Note_on_c, 0, 78, 0
2, 40501, Note_on_c, 0, 87, 0
2, 40561, Note_on_c, 0, 78, 95
2, 40561, Note_on_c, 0, 87, 95
2, 40621, Note_on_c, 0, 87, 0
2, 40621, Note_on_c, 0, 78, 0
2, 40681, Note_on_c, 0, 85, 85
2, 40681, Note_on_c, 0, 77, 85
2, 40771, Note_on_c, 0, 77, 0
2, 40771, Note_on_c, 0, 85, 0
2, 44881, Control_c, 0, 11, 77
2, 44881, Note_on_c, 0, 76, 98
2, 44881, Note_on_c, 0, 79, 98
2, 44941, Note_on_c, 0, 79, 0
2, 44941, Note_on_c, 0, 76, 0
2, 45001, Note_on_c, 0, 77, 98
2, 45001, Note_on_c, 0, 81, 98
2, 45121, Note_on_c, 0, 81, 0
2, 45121, Note_on_c, 0, 77, 0
2, 45241, Note_on_c, 0, 83, 98
2, 45241, Note_on_c, 0, 74, 98
2, 45301, Note_on_c, 0, 74, 0
2, 45301, Note_on_c, 0, 83, 0
2, 45361, Note_on_c, 0, 76, 98
2, 45361, Note_on_c, 0, 84, 98
2, 45481, Note_on_c, 0, 84, 0
2, 45481, Note_on_c, 0, 76, 0
2, 45601, Note_on_c, 0, 86, 98
2, 45601, Note_on_c, 0, 79, 98
2, 45661, Note_on_c, 0, 79, 0
2, 45661, Note_on_c, 0, 86, 0
2, 45721, Note_on_c, 0, 88, 98
2, 45721, Note_on_c, 0, 79, 98
2, 45781, Note_on_c, 0, 79, 0
2, 45781, Note_on_c, 0, 88, 0
2, 45841, Note_on_c, 0, 88, 98
2, 45841, Note_on_c, 0, 79, 98
2, 45901, Note_on_c, 0, 79, 0
2, 45901, Note_on_c, 0, 88, 0
2, 45961, Note_on_c, 0, 90, 98
2, 45961, Note_on_c, 0, 84, 98
2, 46021, Note_on_c, 0, 84, 0
2, 46021, Note_on_c, 0, 90, 0
2, 46081, Note_on_c, 0, 91, 98
2, 46081, Control_c, 0, 11, 86
2, 46081, Note_on_c, 0, 79, 98
2, 47281, Note_on_c, 0, 79, 0
2, 47281, Note_on_c, 0, 91, 0
2, 47281, Note_on_c, 0, 76, 98
2, 47281, Note_on_c, 0, 88, 98
2, 47341, Note_on_c, 0, 88, 0
2, 47341, Note_on_c, 0, 76, 0
2, 47401, Note_on_c, 0, 90, 98
2, 47401, Note_on_c, 0, 78, 98
2, 47461, Note_on_c, 0, 78, 0
2, 47461, Note_on_c, 0, 90, 0
2, 47521, Control_c, 0, 11, 98
2, 47521, Note_on_c, 0, 79, 98
2, 47521, Note_on_c, 0, 91, 98
2, 47538, Control_c, 0, 11, 97
2, 47556, Control_c, 0, 11, 95
2, 47574, Control_c, 0, 11, 93
2, 47592, Control_c, 0, 11, 91
2, 47610, Control_c, 0, 11, 89
2, 47628, Control_c, 0, 11, 87
2, 47641, Note_on_c, 0, 91, 0
2, 47641, Note_on_c, 0, 79, 0
2, 47761, Note_on_c, 0, 72, 98
2, 47761, Note_on_c, 0, 84, 98
2, 47821, Note_on_c, 0, 84, 0
2, 47821, Note_on_c, 0, 72, 0
2, 47881, Note_on_c, 0, 86, 98
2, 47881, Note_on_c, 0, 74, 98
2, 47941, Note_on_c, 0, 74, 0
2, 47941, Note_on_c, 0, 86, 0
2, 48001, Note_on_c, 0, 86, 98
2, 48001, Note_on_c, 0, 74, 98
2, 48061, Note_on_c, 0, 74, 0
2, 48061, Note_on_c, 0, 86, 0
2, 48121, Note_on_c, 0, 76, 98
2, 48121, Note_on_c, 0, 88, 98
2, 48181, Note_on_c, 0, 88, 0
2, 48181, Note_on_c, 0, 76, 0
2, 48241, Control_c, 0, 11, 98
2, 48241, Note_on_c, 0, 77, 98
2, 48241, Note_on_c, 0, 89, 98
2, 48258, Control_c, 0, 11, 97
2, 48276, Control_c, 0, 11, 95
2, 48294, Control_c, 0, 11, 93
2, 48312, Control_c, 0, 11, 91
2, 48330, Control_c, 0, 11, 89
2, 48348, Control_c, 0, 11, 87
2, 48361, Note_on_c, 0, 89, 0
2, 48361, Note_on_c, 0, 77, 0
2, 48481, Note_on_c, 0, 79, 98
2, 48541, Note_on_c, 0, 79, 0
2, 48601, Note_on_c, 0, 81, 98
2, 48661, Note_on_c, 0, 81, 0
2, 48721, Note_on_c, 0, 81, 98
2, 48781, Note_on_c, 0, 81, 0
2, 48841, Note_on_c, 0, 83, 98
2, 48901, Note_on_c, 0, 83, 0
2, 48961, Note_on_c, 0, 84, 98
2, 49181, Note_on_c, 0, 84, 0
2, 49201, Note_on_c, 0, 89, 98
2, 49201, Note_on_c, 0, 81, 98
2, 49261, Note_on_c, 0, 81, 0
2, 49261, Note_on_c, 0, 89, 0
2, 49321, Note_on_c, 0, 79, 98
2, 49321, Note_on_c, 0, 88, 98
2, 49541, Note_on_c, 0, 88, 0
2, 49541, Note_on_c, 0, 79, 0
2, 49561, Note_on_c, 0, 83, 98
2, 49561, Note_on_c, 0, 77, 98
2, 49621, Note_on_c, 0, 77, 0
2, 49621, Note_on_c, 0, 83, 0
2, 49681, Note_on_c, 0, 76, 98
2, 49681, Note_on_c, 0, 84, 98
2, 49801, Note_on_c, 0, 84, 0
2, 49801, Note_on_c, 0, 76, 0
2, 50641, Note_on_c, 0, 84, 78
2, 50701, Note_on_c, 0, 84, 0
2, 50761, Note_on_c, 0, 86, 78
2, 50761, Control_c, 0, 11, 98
2, 50784, Control_c, 0, 11, 97
2, 50808, Control_c, 0, 11, 96
2, 50832, Control_c, 0, 11, 95
2, 50856, Control_c, 0, 11, 94
2, 50880, Control_c, 0, 11, 92
2, 50904, Control_c, 0, 11, 91
2, 50928, Control_c, 0, 11, 90
2, 50952, Control_c, 0, 11, 89
2, 50976, Control_c, 0, 11, 87
2, 51000, Control_c, 0, 11, 86
2, 51001, Note_on_c, 0, 86, 0
2, 51001, Note_on_c, 0, 83, 78
2, 51101, Note_on_c, 0, 83, 0
2, 51121, Note_on_c, 0, 84, 78
2, 51181, Note_on_c, 0, 84, 0
2, 51481, Note_on_c, 0, 84, 78
2, 51541, Note_on_c, 0, 84, 0
2, 51601, Note_on_c, 0, 86, 78
2, 51601, Control_c, 0, 11, 98
2, 51618, Control_c, 0, 11, 97
2, 51636, Control_c, 0, 11, 95
2, 51654, Control_c, 0, 11, 93
2, 51672, Control_c, 0, 11, 91
2, 51690, Control_c, 0, 11, 89
2, 51708, Control_c, 0, 11, 87
2, 51721, Note_on_c, 0, 86, 0
2, 51721, Note_on_c, 0, 83, 78
2, 51821, Note_on_c, 0, 83, 0
2, 51841, Note_on_c, 0, 84, 78
2, 51901, Note_on_c, 0, 84, 0
2, 52201, Note_on_c, 0, 84, 78
2, 52261, Note_on_c, 0, 84, 0
2, 52321, Control_c, 0, 11, 98
2, 52321, Note_on_c, 0, 86, 78
2, 52338, Control_c, 0, 11, 97
2, 52356, Control_c, 0, 11, 95
2, 52374, Control_c, 0, 11, 93
2, 52392, Control_c, 0, 11, 91
2, 52410, Control_c, 0, 11, 89
2, 52428, Control_c, 0, 11, 87
2, 52441, Note_on_c, 0, 86, 0
2, 52441, Note_on_c, 0, 83, 78
2, 52444, Control_c, 0, 11, 86
2, 52458, Control_c, 0, 11, 83
2, 52475, Control_c, 0, 11, 80
2, 52492, Control_c, 0, 11, 77
2, 52505, Control_c, 0, 11, 74
2, 52522, Control_c, 0, 11, 71
2, 52539, Control_c, 0, 11, 68
2, 52541, Note_on_c, 0, 83, 0
2, 52556, Control_c, 0, 11, 65
2, 52561, Control_c, 0, 11, 47
2, 52561, Note_on_c, 0, 84, 98
2, 52621, Note_on_c, 0, 84, 0
2, 52921, Note_on_c, 0, 89, 63
2, 52921, Note_on_c, 0, 83, 63
2, 53041, Note_on_c, 0, 83, 0
2, 53041, Note_on_c, 0, 89, 0
2, 53281, Note_on_c, 0, 84, 66
2, 53281, Note_on_c, 0, 88, 66
2, 53401, Note_on_c, 0, 88, 0
2, 53401, Note_on_c, 0, 84, 0
2, 53641, Note_on_c, 0, 77, 70
2, 53641, Note_on_c, 0, 83, 70
2, 53761, Note_on_c, 0, 83, 0
2, 53761, Note_on_c, 0, 77, 0
2, 54001, Control_c, 0, 11, 47
2, 54001, Note_on_c, 0, 84, 74
2, 54001, Note_on_c, 0, 76, 74
2, 54037, Control_c, 0, 11, 48
2, 54073, Control_c, 0, 11, 49
2, 54109, Control_c, 0, 11, 50
2, 54121, Note_on_c, 0, 76, 0
2, 54121, Note_on_c, 0, 84, 0
2, 54145, Control_c, 0, 11, 51
2, 54181, Control_c, 0, 11, 52
2, 54217, Control_c, 0, 11, 53
2, 54253, Control_c, 0, 11, 54
2, 54289, Control_c, 0, 11, 55
2, 54325, Control_c, 0, 11, 56
2, 54361, Control_c, 0, 11, 57
2, 54361, Note_on_c, 0, 83, 78
2, 54361, Note_on_c, 0, 89, 78
2, 54397, Control_c, 0, 11, 58
2, 54433, Control_c, 0, 11, 59
2, 54469, Control_c, 0, 11, 60
2, 54481, Note_on_c, 0, 89, 0
2, 54481, Note_on_c, 0, 83, 0
2, 54505, Control_c, 0, 11, 61
2, 54541, Control_c, 0, 11, 62
2, 54577, Control_c, 0, 11, 62
2, 54613, Control_c, 0, 11, 63
2, 54649, Control_c, 0, 11, 63
2, 54685, Control_c, 0, 11, 64
2, 54721, Note_on_c, 0, 84, 82
2, 54721, Control_c, 0, 11, 65
2, 54721, Note_on_c, 0, 88, 82
2, 54757, Control_c, 0, 11, 65
2, 54793, Control_c, 0, 11, 66
2, 54829, Control_c, 0, 11, 66
2, 54841, Note_on_c, 0, 88, 0
2, 54841, Note_on_c, 0, 84, 0
2, 54865, Control_c, 0, 11, 67
2, 54901, Control_c, 0, 11, 68
2, 54937, Control_c, 0, 11, 68
2, 54973, Control_c, 0, 11, 69
2, 55009, Control_c, 0, 11, 70
2, 55045, Control_c, 0, 11, 70
2, 55081, Note_on_c, 0, 77, 86
2, 55081, Control_c, 0, 11, 71
2, 55081, Note_on_c, 0, 83, 86
2, 55117, Control_c, 0, 11, 71
2, 55153, Control_c, 0, 11, 72
2, 55189, Control_c, 0, 11, 73
2, 55201, Note_on_c, 0, 83, 0
2, 55201, Note_on_c, 0, 77, 0
2, 55225, Control_c, 0, 11, 73
2, 55261, Control_c, 0, 11, 74
2, 55297, Control_c, 0, 11, 74
2, 55333, Control_c, 0, 11, 75
2, 55369, Control_c, 0, 11, 76
2, 55405, Control_c, 0, 11, 76
2, 55441, Note_on_c, 0, 84, 90
2, 55441, Note_on_c, 0, 76, 90
2, 55441, Control_c, 0, 11, 77
2, 55561, Note_on_c, 0, 76, 0
2, 55561, Note_on_c, 0, 84, 0
2, 55801, Note_on_c, 0, 83, 94
2, 55801, Note_on_c, 0, 77, 94
2, 55921, Note_on_c, 0, 77, 0
2, 55921, Note_on_c, 0, 83, 0
2, 56161, Control_c, 0, 11, 86
2, 56161, Note_on_c, 0, 72, 98
2, 56161, Note_on_c, 0, 84, 98
2, 56281, Note_on_c, 0, 84, 0
2, 56281, Note_on_c, 0, 72, 0
2, 56281, Note_on_c, 0, 76, 98
2, 56281, Note_on_c, 0, 88, 98
2, 56401, Note_on_c, 0, 88, 0
2, 56401, Note_on_c, 0, 76, 0
2, 56401, Control_c, 0, 11, 98
2, 56401, Note_on_c, 0, 79, 98
2, 56401, Note_on_c, 0, 91, 98
2, 56418, Control_c, 0, 11, 97
2, 56436, Control_c, 0, 11, 95
2, 56454, Control_c, 0, 11, 93
2, 56472, Control_c, 0, 11, 91
2, 56490, Control_c, 0, 11, 89
2, 56508, Control_c, 0, 11, 87
2, 56621, Note_on_c, 0, 91, 0
2, 56621, Note_on_c, 0, 79, 0
2, 56641, Note_on_c, 0, 89, 98
2, 56641, Note_on_c, 0, 77, 98
2, 56701, Note_on_c, 0, 77, 0
2, 56701, Note_on_c, 0, 89, 0
2, 56761, Note_on_c, 0, 86, 98
2, 56761, Note_on_c, 0, 74, 98
2, 56821, Note_on_c, 0, 74, 0
2, 56821, Note_on_c, 0, 86, 0
2, 56881, Note_on_c, 0, 84, 98
2, 56941, Note_on_c, 0, 84, 0
2, 57001, Note_on_c, 0, 79, 98
2, 57061, Note_on_c, 0, 79, 0
2, 57121, Note_on_c, 0, 76, 98
2, 57181, Note_on_c, 0, 76, 0
2, 57241, Note_on_c, 0, 72, 98
2, 57301, Note_on_c, 0, 72, 0
2, 82081, Control_c, 0, 11, 47
2, 82107, Control_c, 0, 11, 49
2, 82133, Control_c, 0, 11, 51
2, 82159, Control_c, 0, 11, 53
2, 82185, Control_c, 0, 11, 55
2, 82211, Control_c, 0, 11, 57
2, 82238, Control_c, 0, 11, 59
2, 82264, Control_c, 0, 11, 61
2, 82290, Control_c, 0, 11, 63
2, 82316, Control_c, 0, 11, 65
2, 82342, Control_c, 0, 11, 67
2, 82369, Control_c, 0, 11, 69
2, 82395, Control_c, 0, 11, 71
2, 82421, Control_c, 0, 11, 73
2, 82441, Note_on_c, 0, 88, 68
2, 82441, Note_on_c, 0, 84, 68
2, 82447, Control_c, 0, 11, 75
2, 82473, Control_c, 0, 11, 77
2, 82499, Control_c, 0, 11, 79
2, 82526, Control_c, 0, 11, 81
2, 82552, Control_c, 0, 11, 83
2, 82578, Control_c, 0, 11, 85
2, 82604, Control_c, 0, 11, 87
2, 82630, Note_on_c, 0, 84, 0
2, 82630, Note_on_c, 0, 88, 0
2, 82630, Control_c, 0, 11, 89
2, 82657, Control_c, 0, 11, 91
2, 82681, Note_on_c, 0, 88, 68
2, 82681, Note_on_c, 0, 84, 68
2, 82683, Control_c, 0, 11, 93
2, 82709, Control_c, 0, 11, 95
2, 82735, Control_c, 0, 11, 97
2, 82761, Control_c, 0, 11, 99
2, 82771, Note_on_c, 0, 84, 0
2, 82771, Note_on_c, 0, 88, 0
2, 82787, Control_c, 0, 11, 101
2, 82801, Note_on_c, 0, 84, 68
2, 82801, Note_on_c, 0, 88, 68
2, 82990, Note_on_c, 0, 88, 0
2, 82990, Note_on_c, 0, 84, 0
2, 83041, Note_on_c, 0, 88, 68
2, 83041, Note_on_c, 0, 84, 68
2, 83131, Note_on_c, 0, 84, 0
2, 83131, Note_on_c, 0, 88, 0
2, 83161, Control_c, 0, 11, 122
2, 83161, Note_on_c, 0, 81, 68
2, 83161, Note_on_c, 0, 93, 68
2, 83184, Control_c, 0, 11, 120
2, 83208, Control_c, 0, 11, 118
2, 83232, Control_c, 0, 11, 116
2, 83256, Control_c, 0, 11, 114
2, 83280, Control_c, 0, 11, 112
2, 83304, Control_c, 0, 11, 110
2, 83328, Control_c, 0, 11, 108
2, 83352, Control_c, 0, 11, 106
2, 83376, Control_c, 0, 11, 104
2, 83400, Control_c, 0, 11, 102
2, 83521, Note_on_c, 0, 93, 0
2, 83521, Note_on_c, 0, 81, 0
2, 83521, Note_on_c, 0, 91, 68
2, 83521, Note_on_c, 0, 88, 68
2, 83746, Note_on_c, 0, 88, 0
2, 83746, Note_on_c, 0, 91, 0
2, 83761, Note_on_c, 0, 91, 68
2, 83761, Note_on_c, 0, 88, 68
2, 83821, Note_on_c, 0, 88, 0
2, 83821, Note_on_c, 0, 91, 0
2, 83881, Control_c, 0, 11, 122
2, 83881, Note_on_c, 0, 83, 68
2, 83904, Control_c, 0, 11, 120
2, 83928, Control_c, 0, 11, 118
2, 83952, Control_c, 0, 11, 116
2, 83976, Control_c, 0, 11, 114
2, 84000, Control_c, 0, 11, 112
2, 84024, Control_c, 0, 11, 110
2, 84048, Control_c, 0, 11, 108
2, 84072, Control_c, 0, 11, 106
2, 84096, Control_c, 0, 11, 104
2, 84120, Control_c, 0, 11, 102
2, 84241, Note_on_c, 0, 83, 0
2, 84241, Note_on_c, 0, 88, 68
2, 84241, Note_on_c, 0, 84, 68
2, 84466, Note_on_c, 0, 84, 0
2, 84466, Note_on_c, 0, 88, 0
2, 84481, Note_on_c, 0, 88, 68
2, 84481, Note_on_c, 0, 84, 68
2, 84541, Note_on_c, 0, 84, 0
2, 84541, Note_on_c, 0, 88, 0
2, 84601, Note_on_c, 0, 93, 68
2, 84601, Note_on_c, 0, 81, 68
2, 84601, Control_c, 0, 11, 122
2, 84624, Control_c, 0, 11, 120
2, 84648, Control_c, 0, 11, 118
2, 84672, Control_c, 0, 11, 116
2, 84696, Control_c, 0, 11, 114
2, 84720, Control_c, 0, 11, 112
2, 84744, Control_c, 0, 11, 110
2, 84768, Control_c, 0, 11, 108
2, 84792, Control_c, 0, 11, 106
2, 84816, Control_c, 0, 11, 104
2, 84840, Control_c, 0, 11, 102
2, 84961, Note_on_c, 0, 81, 0
2, 84961, Note_on_c, 0, 93, 0
2, 84961, Note_on_c, 0, 91, 68
2, 84961, Note_on_c, 0, 79, 68
2, 85186, Note_on_c, 0, 79, 0
2, 85186, Note_on_c, 0, 91, 0
2, 85201, Note_on_c, 0, 79, 68
2, 85201, Note_on_c, 0, 91, 68
2, 85261, Note_on_c, 0, 91, 0
2, 85261, Note_on_c, 0, 79, 0
2, 85321, Note_on_c, 0, 83, 68
2, 85321, Control_c, 0, 11, 122
2, 85344, Control_c, 0, 11, 120
2, 85368, Control_c, 0, 11, 118
2, 85392, Control_c, 0, 11, 116
2, 85416, Control_c, 0, 11, 114
2, 85440, Control_c, 0, 11, 112
2, 85464, Control_c, 0, 11, 110
2, 85488, Control_c, 0, 11, 108
2, 85512, Control_c, 0, 11, 106
2, 85536, Control_c, 0, 11, 104
2, 85560, Control_c, 0, 11, 102
2, 85681, Note_on_c, 0, 83, 0
2, 85681, Note_on_c, 0, 84, 68
2, 85741, Note_on_c, 0, 84, 0
2, 85801, Note_on_c, 0, 83, 68
2, 85801, Control_c, 0, 11, 122
2, 85824, Control_c, 0, 11, 120
2, 85848, Control_c, 0, 11, 118
2, 85872, Control_c, 0, 11, 116
2, 85896, Control_c, 0, 11, 114
2, 85920, Control_c, 0, 11, 112
2, 85944, Control_c, 0, 11, 110
2, 85968, Control_c, 0, 11, 108
2, 85992, Control_c, 0, 11, 106
2, 86016, Control_c, 0, 11, 104
2, 86026, Note_on_c, 0, 83, 0
2, 86040, Control_c, 0, 11, 102
2, 86041, Note_on_c, 0, 84, 68
2, 86101, Note_on_c, 0, 84, 0
2, 86161, Control_c, 0, 11, 122
2, 86161, Note_on_c, 0, 83, 68
2, 86184, Control_c, 0, 11, 120
2, 86208, Control_c, 0, 11, 118
2, 86232, Control_c, 0, 11, 116
2, 86256, Control_c, 0, 11, 114
2, 86280, Control_c, 0, 11, 112
2, 86304, Control_c, 0, 11, 110
2, 86328, Control_c, 0, 11, 108
2, 86352, Control_c, 0, 11, 106
2, 86376, Control_c, 0, 11, 104
2, 86386, Note_on_c, 0, 83, 0
2, 86400, Control_c, 0, 11, 102
2, 86401, Note_on_c, 0, 86, 68
2, 86401, Control_c, 0, 11, 122
2, 86424, Control_c, 0, 11, 120
2, 86448, Control_c, 0, 11, 118
2, 86472, Control_c, 0, 11, 116
2, 86496, Control_c, 0, 11, 114
2, 86520, Control_c, 0, 11, 112
2, 86544, Control_c, 0, 11, 110
2, 86568, Control_c, 0, 11, 108
2, 86592, Control_c, 0, 11, 106
2, 86616, Control_c, 0, 11, 104
2, 86640, Control_c, 0, 11, 102
2, 86761, Note_on_c, 0, 86, 0
2, 86761, Note_on_c, 0, 84, 68
2, 86881, Note_on_c, 0, 84, 0
2, 94321, Control_c, 0, 11, 47
2, 94347, Control_c, 0, 11, 49
2, 94373, Control_c, 0, 11, 51
2, 94399, Control_c, 0, 11, 53
2, 94425, Control_c, 0, 11, 55
2, 94451, Control_c, 0, 11, 57
2, 94478, Control_c, 0, 11, 59
2, 94504, Control_c, 0, 11, 61
2, 94530, Control_c, 0, 11, 63
2, 94556, Control_c, 0, 11, 65
2, 94582, Control_c, 0, 11, 67
2, 94609, Control_c, 0, 11, 69
2, 94635, Control_c, 0, 11, 71
2, 94661, Control_c, 0, 11, 73
2, 94681, Note_on_c, 0, 84, 68
2, 94681, Note_on_c, 0, 88, 68
2, 94687, Control_c, 0, 11, 75
2, 94713, Control_c, 0, 11, 77
2, 94739, Control_c, 0, 11, 79
2, 94766, Control_c, 0, 11, 81
2, 94792, Control_c, 0, 11, 83
2, 94818, Control_c, 0, 11, 85
2, 94844, Control_c, 0, 11, 87
2, 94870, Note_on_c, 0, 88, 0
2, 94870, Note_on_c, 0, 84, 0
2, 94870, Control_c, 0, 11, 89
2, 94897, Control_c, 0, 11, 91
2, 94921, Note_on_c, 0, 84, 68
2, 94921, Note_on_c, 0, 88, 68
2, 94923, Control_c, 0, 11, 93
2, 94949, Control_c, 0, 11, 95
2, 94975, Control_c, 0, 11, 97
2, 95001, Control_c, 0, 11, 99
2, 95011, Note_on_c, 0, 88, 0
2, 95011, Note_on_c, 0, 84, 0
2, 95027, Control_c, 0, 11, 101
2, 95041, Note_on_c, 0, 88, 68
2, 95041, Note_on_c, 0, 84, 68
2, 95230, Note_on_c, 0, 84, 0
2, 95230, Note_on_c, 0, 88, 0
2, 95281, Note_on_c, 0, 88, 68
2, 95281, Note_on_c, 0, 84, 68
2, 95371, Note_on_c, 0, 84, 0
2, 95371, Note_on_c, 0, 88, 0
2, 95401, Note_on_c, 0, 93, 68
2, 95401, Note_on_c, 0, 81, 68
2, 95401, Control_c, 0, 11, 122
2, 95424, Control_c, 0, 11, 120
2, 95448, Control_c, 0, 11, 118
2, 95472, Control_c, 0, 11, 116
2, 95496, Control_c, 0, 11, 114
2, 95520, Control_c, 0, 11, 112
2, 95544, Control_c, 0, 11, 110
2, 95568, Control_c, 0, 11, 108
2, 95592, Control_c, 0, 11, 106
2, 95616, Control_c, 0, 11, 104
2, 95640, Control_c, 0, 11, 102
2, 95761, Note_on_c, 0, 81, 0
2, 95761, Note_on_c, 0, 93, 0
2, 95761, Note_on_c, 0, 88, 68
2, 95761, Note_on_c, 0, 91, 68
2, 95986, Note_on_c, 0, 91, 0
2, 95986, Note_on_c, 0, 88, 0
2, 96001, Note_on_c, 0, 88, 68
2, 96001, Note_on_c, 0, 91, 68
2, 96061, Note_on_c, 0, 91, 0
2, 96061, Note_on_c, 0, 88, 0
2, 96121, Control_c, 0, 11, 122
2, 96121, Note_on_c, 0, 83, 68
2, 96144, Control_c, 0, 11, 120
2, 96168, Control_c, 0, 11, 118
2, 96192, Control_c, 0, 11, 116
2, 96216, Control_c, 0, 11, 114
2, 96240, Control_c, 0, 11, 112
2, 96264, Control_c, 0, 11, 110
2, 96288, Control_c, 0, 11, 108
2, 96312, Control_c, 0, 11, 106
2, 96336, Control_c, 0, 11, 104
2, 96360, Control_c, 0, 11, 102
2, 96481, Note_on_c, 0, 83, 0
2, 96481, Note_on_c, 0, 84, 68
2, 96481, Note_on_c, 0, 88, 68
2, 96706, Note_on_c, 0, 88, 0
2, 96706, Note_on_c, 0, 84, 0
2, 96721, Note_on_c, 0, 84, 68
2, 96721, Note_on_c, 0, 88, 68
2, 96781, Note_on_c, 0, 88, 0
2, 96781, Note_on_c, 0, 84, 0
2, 96841, Note_on_c, 0, 93, 68
2, 96841, Control_c, 0, 11, 122
2, 96841, Note_on_c, 0, 81, 68
2, 96864, Control_c, 0, 11, 120
2, 96888, Control_c, 0, 11, 118
2, 96912, Control_c, 0, 11, 116
2, 96936, Control_c, 0, 11, 114
2, 96960, Control_c, 0, 11, 112
2, 96984, Control_c, 0, 11, 110
2, 97008, Control_c, 0, 11, 108
2, 97032, Control_c, 0, 11, 106
2, 97056, Control_c, 0, 11, 104
2, 97080, Control_c, 0, 11, 102
2, 97201, Note_on_c, 0, 81, 0
2, 97201, Note_on_c, 0, 93, 0
2, 97201, Note_on_c, 0, 79, 68
2, 97201, Note_on_c, 0, 91, 68
2, 97426, Note_on_c, 0, 91, 0
2, 97426, Note_on_c, 0, 79, 0
2, 97441, Note_on_c, 0, 91, 68
2, 97441, Note_on_c, 0, 79, 68
2, 97501, Note_on_c, 0, 79, 0
2, 97501, Note_on_c, 0, 91, 0
2, 97561, Control_c, 0, 11, 122
2, 97561, Note_on_c, 0, 83, 68
2, 97584, Control_c, 0, 11, 120
2, 97608, Control_c, 0, 11, 118
2, 97632, Control_c, 0, 11, 116
2, 97656, Control_c, 0, 11, 114
2, 97680, Control_c, 0, 11, 112
2, 97704, Control_c, 0, 11, 110
2, 97728, Control_c, 0, 11, 108
2, 97752, Control_c, 0, 11, 106
2, 97776, Control_c, 0, 11, 104
2, 97800, Control_c, 0, 11, 102
2, 97921, Note_on_c, 0, 83, 0
2, 97921, Note_on_c, 0, 84, 68
2, 97981, Note_on_c, 0, 84, 0
2, 98041, Control_c, 0, 11, 122
2, 98041, Note_on_c, 0, 83, 68
2, 98064, Control_c, 0, 11, 120
2, 98088, Control_c, 0, 11, 118
2, 98112, Control_c, 0, 11, 116
2, 98136, Control_c, 0, 11, 114
2, 98160, Control_c, 0, 11, 112
2, 98184, Control_c, 0, 11, 110
2, 98208, Control_c, 0, 11, 108
2, 98232, Control_c, 0, 11, 106
2, 98256, Control_c, 0, 11, 104
2, 98266, Note_on_c, 0, 83, 0
2, 98280, Control_c, 0, 11, 102
2, 98281, Note_on_c, 0, 84, 68
2, 98341, Note_on_c, 0, 84, 0
2, 98401, Note_on_c, 0, 83, 68
2, 98401, Control_c, 0, 11, 122
2, 98424, Control_c, 0, 11, 120
2, 98448, Control_c, 0, 11, 118
2, 98472, Control_c, 0, 11, 116
2, 98496, Control_c, 0, 11, 114
2, 98520, Control_c, 0, 11, 112
2, 98544, Control_c, 0, 11, 110
2, 98568, Control_c, 0, 11, 108
2, 98592, Control_c, 0, 11, 106
2, 98616, Control_c, 0, 11, 104
2, 98626, Note_on_c, 0, 83, 0
2, 98640, Control_c, 0, 11, 102
2, 98641, Note_on_c, 0, 86, 68
2, 98641, Control_c, 0, 11, 122
2, 98664, Control_c, 0, 11, 120
2, 98688, Control_c, 0, 11, 118
2, 98712, Control_c, 0, 11, 116
2, 98736, Control_c, 0, 11, 114
2, 98760, Control_c, 0, 11, 112
2, 98784, Control_c, 0, 11, 110
2, 98808, Control_c, 0, 11, 108
2, 98832, Control_c, 0, 11, 106
2, 98856, Control_c, 0, 11, 104
2, 98880, Control_c, 0, 11, 102
2, 99001, Note_on_c, 0, 86, 0
2, 99001, Note_on_c, 0, 84, 68
2, 99121, Note_on_c, 0, 84, 0
2, 101401, Note_on_c, 0, 85, 98
2, 101401, Control_c, 0, 11, 77
2, 101461, Note_on_c, 0, 85, 0
2, 101521, Note_on_c, 0, 86, 98
2, 101581, Note_on_c, 0, 86, 0
2, 101641, Note_on_c, 0, 86, 98
2, 101701, Note_on_c, 0, 86, 0
2, 101761, Note_on_c, 0, 86, 98
2, 101821, Note_on_c, 0, 86, 0
2, 101881, Note_on_c, 0, 79, 98
2, 102001, Note_on_c, 0, 79, 0
2, 104281, Note_on_c, 0, 85, 98
2, 104281, Control_c, 0, 11, 77
2, 104341, Note_on_c, 0, 85, 0
2, 104401, Note_on_c, 0, 86, 98
2, 104461, Note_on_c, 0, 86, 0
2, 104521, Note_on_c, 0, 86, 98
2, 104581, Note_on_c, 0, 86, 0
2, 104641, Note_on_c, 0, 86, 98
2, 104701, Note_on_c, 0, 86, 0
2, 104761, Note_on_c, 0, 79, 98
2, 104881, Note_on_c, 0, 79, 0
2, 107401, Control_c, 0, 11, 77
2, 107401, Note_on_c, 0, 89, 98
2, 107401, Note_on_c, 0, 77, 98
2, 107461, Note_on_c, 0, 77, 0
2, 107461, Note_on_c, 0, 89, 0
2, 107521, Note_on_c, 0, 77, 98
2, 107521, Note_on_c, 0, 89, 98
2, 107581, Note_on_c, 0, 89, 0
2, 107581, Note_on_c, 0, 77, 0
2, 107641, Note_on_c, 0, 89, 98
2, 107641, Note_on_c, 0, 77, 98
2, 107761, Note_on_c, 0, 77, 0
2, 107761, Note_on_c, 0, 89, 0
2, 107761, Note_on_c, 0, 75, 98
2, 107761, Note_on_c, 0, 87, 98
2, 107881, Note_on_c, 0, 87, 0
2, 107881, Note_on_c, 0, 75, 0
2, 108721, Control_c, 0, 11, 86
2, 108721, Note_on_c, 0, 82, 98
2, 108781, Note_on_c, 0, 82, 0
2, 108841, Note_on_c, 0, 82, 98
2, 108901, Note_on_c, 0, 82, 0
2, 108961, Note_on_c, 0, 82, 98
2, 109021, Note_on_c, 0, 82, 0
2, 109081, Note_on_c, 0, 82, 98
2, 109141, Note_on_c, 0, 82, 0
2, 109201, Note_on_c, 0, 82, 98
2, 109261, Note_on_c, 0, 82, 0
2, 109321, Note_on_c, 0, 82, 98
2, 109381, Note_on_c, 0, 82, 0
2, 109441, Note_on_c, 0, 77, 98
2, 109441, Note_on_c, 0, 82, 98
2, 109441, Control_c, 0, 11, 98
2, 109459, Control_c, 0, 11, 97
2, 109477, Control_c, 0, 11, 95
2, 109495, Control_c, 0, 11, 93
2, 109513, Control_c, 0, 11, 91
2, 109531, Control_c, 0, 11, 89
2, 109549, Control_c, 0, 11, 87
2, 109561, Note_on_c, 0, 82, 0
2, 109561, Note_on_c, 0, 77, 0
2, 109561, Note_on_c, 0, 80, 98
2, 109681, Note_on_c, 0, 80, 0
2, 109801, Note_on_c, 0, 75, 98
2, 109801, Note_on_c, 0, 80, 98
2, 109801, Control_c, 0, 11, 98
2, 109819, Control_c, 0, 11, 97
2, 109837, Control_c, 0, 11, 95
2, 109855, Control_c, 0, 11, 93
2, 109873, Control_c, 0, 11, 91
2, 109891, Control_c, 0, 11, 89
2, 109909, Control_c, 0, 11, 87
2, 109921, Note_on_c, 0, 80, 0
2, 109921, Note_on_c, 0, 75, 0
2, 109921, Note_on_c, 0, 78, 98
2, 110041, Note_on_c, 0, 78, 0
2, 110161, Control_c, 0, 11, 98
2, 110161, Note_on_c, 0, 73, 98
2, 110161, Note_on_c, 0, 78, 98
2, 110179, Control_c, 0, 11, 97
2, 110197, Control_c, 0, 11, 95
2, 110215, Control_c, 0, 11, 93
2, 110233, Control_c, 0, 11, 91
2, 110251, Control_c, 0, 11, 89
2, 110269, Control_c, 0, 11, 87
2, 110281, Note_on_c, 0, 78, 0
2, 110281, Note_on_c, 0, 73, 0
2, 110281, Note_on_c, 0, 77, 98
2, 110401, Note_on_c, 0, 77, 0
2, 110521, Note_on_c, 0, 77, 98
2, 110521, Note_on_c, 0, 72, 98
2, 110521, Control_c, 0, 11, 98
2, 110539, Control_c, 0, 11, 97
2, 110557, Control_c, 0, 11, 95
2, 110575, Control_c, 0, 11, 93
2, 110593, Control_c, 0, 11, 91
2, 110611, Control_c, 0, 11, 89
2, 110629, Control_c, 0, 11, 87
2, 110641, Note_on_c, 0, 72, 0
2, 110641, Note_on_c, 0, 77, 0
2, 110641, Note_on_c, 0, 75, 98
2, 110761, Note_on_c, 0, 75, 0
2, 110881, Note_on_c, 0, 73, 78
2, 110881, Note_on_c, 0, 65, 78
2, 111001, Note_on_c, 0, 65, 0
2, 111001, Note_on_c, 0, 73, 0
2, 111841, Control_c, 0, 11, 47
2, 111841, Note_on_c, 0, 87, 95
2, 111841, Note_on_c, 0, 78, 95
2, 111901, Note_on_c, 0, 78, 0
2, 111901, Note_on_c, 0, 87, 0
2, 111961, Note_on_c, 0, 87, 95
2, 111961, Note_on_c, 0, 78, 95
2, 112021, Note_on_c, 0, 78, 0
2, 112021, Note_on_c, 0, 87, 0
2, 112081, Note_on_c, 0, 78, 95
2, 112081, Note_on_c, 0, 87, 95
2, 112141, Note_on_c, 0, 87, 0
2, 112141, Note_on_c, 0, 78, 0
2, 112201, Note_on_c, 0, 87, 95
2, 112201, Note_on_c, 0, 78, 95
2, 112261, Note_on_c, 0, 78, 0
2, 112261, Note_on_c, 0, 87, 0
2, 112321, Note_on_c, 0, 78, 95
2, 112321, Note_on_c, 0, 87, 95
2, 112441, Note_on_c, 0, 87, 0
2, 112441, Note_on_c, 0, 78, 0
2, 112441, Note_on_c, 0, 77, 85
2, 112441, Note_on_c, 0, 85, 85
2, 112531, Note_on_c, 0, 85, 0
2, 112531, Note_on_c, 0, 77, 0
2, 113281, Note_on_c, 0, 78, 95
2, 113281, Note_on_c, 0, 87, 95
2, 113341, Note_on_c, 0, 87, 0
2, 113341, Note_on_c, 0, 78, 0
2, 113401, Note_on_c, 0, 78, 95
2, 113401, Note_on_c, 0, 87, 95
2, 113461, Note_on_c, 0, 87, 0
2, 113461, Note_on_c, 0, 78, 0
2, 113521, Note_on_c, 0, 78, 95
2, 113521, Note_on_c, 0, 87, 95
2, 113581, Note_on_c, 0, 87, 0
2, 113581, Note_on_c, 0, 78, 0
2, 113641, Note_on_c, 0, 78, 95
2, 113641, Note_on_c, 0, 87, 95
2, 113701, Note_on_c, 0, 87, 0
2, 113701, Note_on_c, 0, 78, 0
2, 113761, Note_on_c, 0, 85, 85
2, 113761, Note_on_c, 0, 77, 85
2, 113851, Note_on_c, 0, 77, 0
2, 113851, Note_on_c, 0, 85, 0
2, 117961, Note_on_c, 0, 79, 98
2, 117961, Note_on_c, 0, 76, 98
2, 117961, Control_c, 0, 11, 77
2, 118021, Note_on_c, 0, 76, 0
2, 118021, Note_on_c, 0, 79, 0
2, 118081, Note_on_c, 0, 77, 98
2, 118081, Note_on_c, 0, 81, 98
2, 118201, Note_on_c, 0, 81, 0
2, 118201, Note_on_c, 0, 77, 0
2, 118321, Note_on_c, 0, 74, 98
2, 118321, Note_on_c, 0, 83, 98
2, 118381, Note_on_c, 0, 83, 0
2, 118381, Note_on_c, 0, 74, 0
2, 118441, Note_on_c, 0, 84, 98
2, 118441, Note_on_c, 0, 76, 98
2, 118561, Note_on_c, 0, 76, 0
2, 118561, Note_on_c, 0, 84, 0
2, 118681, Note_on_c, 0, 86, 98
2, 118681, Note_on_c, 0, 79, 98
2, 118741, Note_on_c, 0, 79, 0
2, 118741, Note_on_c, 0, 86, 0
2, 118801, Note_on_c, 0, 79, 98
2, 118801, Note_on_c, 0, 88, 98
2, 118861, Note_on_c, 0, 88, 0
2, 118861, Note_on_c, 0, 79, 0
2, 118921, Note_on_c, 0, 88, 98
2, 118921, Note_on_c, 0, 79, 98
2, 118981, Note_on_c, 0, 79, 0
2, 118981, Note_on_c, 0, 88, 0
2, 119041, Note_on_c, 0, 84, 98
2, 119041, Note_on_c, 0, 90, 98
2, 119101, Note_on_c, 0, 90, 0
2, 119101, Note_on_c, 0, 84, 0
2, 119161, Control_c, 0, 11, 86
2, 119161, Note_on_c, 0, 79, 98
2, 119161, Note_on_c, 0, 91, 98
2, 120361, Note_on_c, 0, 91, 0
2, 120361, Note_on_c, 0, 79, 0
2, 120361, Note_on_c, 0, 76, 98
2, 120361, Note_on_c, 0, 88, 98
2, 120421, Note_on_c, 0, 88, 0
2, 120421, Note_on_c, 0, 76, 0
2, 120481, Note_on_c, 0, 78, 98
2, 120481, Note_on_c, 0, 90, 98
2, 120541, Note_on_c, 0, 90, 0
2, 120541, Note_on_c, 0, 78, 0
2, 120601, Control_c, 0, 11, 98
2, 120601, Note_on_c, 0, 91, 98
2, 120601, Note_on_c, 0, 79, 98
2, 120618, Control_c, 0, 11, 97
2, 120636, Control_c, 0, 11, 95
2, 120654, Control_c, 0, 11, 93
2, 120672, Control_c, 0, 11, 91
2, 120690, Control_c, 0, 11, 89
2, 120708, Control_c, 0, 11, 87
2, 120721, Note_on_c, 0, 79, 0
2, 120721, Note_on_c, 0, 91, 0
2, 120841, Note_on_c, 0, 72, 98
2, 120841, Note_on_c, 0, 84, 98
2, 120901, Note_on_c, 0, 84, 0
2, 120901, Note_on_c, 0, 72, 0
2, 120961, Note_on_c, 0, 74, 98
2, 120961, Note_on_c, 0, 86, 98
2, 121021, Note_on_c, 0, 86, 0
2, 121021, Note_on_c, 0, 74, 0
2, 121081, Note_on_c, 0, 86, 98
2, 121081, Note_on_c, 0, 74, 98
2, 121141, Note_on_c, 0, 74, 0
2, 121141, Note_on_c, 0, 86, 0
2, 121201, Note_on_c, 0, 88, 98
2, 121201, Note_on_c, 0, 76, 98
2, 121261, Note_on_c, 0, 76, 0
2, 121261, Note_on_c, 0, 88, 0
2, 121321, Control_c, 0, 11, 98
2, 121321, Note_on_c, 0, 89, 98
2, 121321, Note_on_c, 0, 77, 98
2, 121338, Control_c, 0, 11, 97
2, 121356, Control_c, 0, 11, 95
2, 121374, Control_c, 0, 11, 93
2, 121392, Control_c, 0, 11, 91
2, 121410, Control_c, 0, 11, 89
2, 121428, Control_c, 0, 11, 87
2, 121441, Note_on_c, 0, 77, 0
2, 121441, Note_on_c, 0, 89, 0
2, 121561, Note_on_c, 0, 79, 98
2, 121621, Note_on_c, 0, 79, 0
2, 121681, Note_on_c, 0, 81, 98
2, 121741, Note_on_c, 0, 81, 0
2, 121801, Note_on_c, 0, 81, 98
2, 121861, Note_on_c, 0, 81, 0
2, 121921, Note_on_c, 0, 83, 98
2, 121981, Note_on_c, 0, 83, 0
2, 122041, Note_on_c, 0, 84, 98
2, 122261, Note_on_c, 0, 84, 0
2, 122281, Note_on_c, 0, 81, 98
2, 122281, Note_on_c, 0, 89, 98
2, 122341, Note_on_c, 0, 89, 0
2, 122341, Note_on_c, 0, 81, 0
2, 122401, Note_on_c, 0, 88, 98
2, 122401, Note_on_c, 0, 79, 98
2, 122621, Note_on_c, 0, 79, 0
2, 122621, Note_on_c, 0, 88, 0
2, 122641, Note_on_c, 0, 83, 98
2, 122641, Note_on_c, 0, 77, 98
2, 122701, Note_on_c, 0, 77, 0
2, 122701, Note_on_c, 0, 83, 0
2, 122761, Note_on_c, 0, 84, 98
2, 122761, Note_on_c, 0, 76, 98
2, 122881, Note_on_c, 0, 76, 0
2, 122881, Note_on_c, 0, 84, 0
2, 123721, Note_on_c, 0, 84, 78
2, 123781, Note_on_c, 0, 84, 0
2, 123841, Control_c, 0, 11, 98
2, 123841, Note_on_c, 0, 86, 78
2, 123864, Control_c, 0, 11, 97
2, 123888, Control_c, 0, 11, 96
2, 123912, Control_c, 0, 11, 95
2, 123936, Control_c, 0, 11, 94
2, 123960, Control_c, 0, 11, 92
2, 123984, Control_c, 0, 11, 91
2, 124008, Control_c, 0, 11, 90
2, 124032, Control_c, 0, 11, 89
2, 124056, Control_c, 0, 11, 87
2, 124080, Control_c, 0, 11, 86
2, 124081, Note_on_c, 0, 86, 0
2, 124081, Note_on_c, 0, 83, 78
2, 124181, Note_on_c, 0, 83, 0
2, 124201, Note_on_c, 0, 84, 78
2, 124261, Note_on_c, 0, 84, 0
2, 124561, Note_on_c, 0, 84, 78
2, 124621, Note_on_c, 0, 84, 0
2, 124681, Control_c, 0, 11, 98
2, 124681, Note_on_c, 0, 86, 78
2, 124698, Control_c, 0, 11, 97
2, 124716, Control_c, 0, 11, 95
2, 124734, Control_c, 0, 11, 93
2, 124752, Control_c, 0, 11, 91
2, 124770, Control_c, 0, 11, 89
2, 124788, Control_c, 0, 11, 87
2, 124801, Note_on_c, 0, 86, 0
2, 124801, Note_on_c, 0, 83, 78
2, 124901, Note_on_c, 0, 83, 0
2, 124921, Note_on_c, 0, 84, 78
2, 124981, Note_on_c, 0, 84, 0
2, 125281, Note_on_c, 0, 84, 78
2, 125341, Note_on_c, 0, 84, 0
2, 125401, Note_on_c, 0, 86, 78
2, 125401, Control_c, 0, 11, 98
2, 125418, Control_c, 0, 11, 97
2, 125436, Control_c, 0, 11, 95
2, 125454, Control_c, 0, 11, 93
2, 125472, Control_c, 0, 11, 91
2, 125490, Control_c, 0, 11, 89
2, 125508, Control_c, 0, 11, 87
2, 125521, Note_on_c, 0, 86, 0
2, 125521, Note_on_c, 0, 83, 78
2, 125524, Control_c, 0, 11, 86
2, 125538, Control_c, 0, 11, 83
2, 125555, Control_c, 0, 11, 80
2, 125572, Control_c, 0, 11, 77
2, 125585, Control_c, 0, 11, 74
2, 125602, Control_c, 0, 11, 71
2, 125619, Control_c, 0, 11, 68
2, 125621, Note_on_c, 0, 83, 0
2, 125636, Control_c, 0, 11, 65
2, 125641, Note_on_c, 0, 84, 98
2, 125641, Control_c, 0, 11, 47
2, 125701, Note_on_c, 0, 84, 0
2, 126001, Note_on_c, 0, 89, 63
2, 126001, Note_on_c, 0, 83, 63
2, 126121, Note_on_c, 0, 83, 0
2, 126121, Note_on_c, 0, 89, 0
2, 126361, Note_on_c, 0, 88, 66
2, 126361, Note_on_c, 0, 84, 66
2, 126481, Note_on_c, 0, 84, 0
2, 126481, Note_on_c, 0, 88, 0
2, 126721, Note_on_c, 0, 77, 70
2, 126721, Note_on_c, 0, 83, 70
2, 126841, Note_on_c, 0, 83, 0
2, 126841, Note_on_c, 0, 77, 0
2, 127081, Control_c, 0, 11, 47
2, 127081, Note_on_c, 0, 84, 74
2, 127081, Note_on_c, 0, 76, 74
2, 127117, Control_c, 0, 11, 48
2, 127153, Control_c, 0, 11, 49
2, 127189, Control_c, 0, 11, 50
2, 127201, Note_on_c, 0, 76, 0
2, 127201, Note_on_c, 0, 84, 0
2, 127225, Control_c, 0, 11, 51
2, 127261, Control_c, 0, 11, 52
2, 127297, Control_c, 0, 11, 53
2, 127333, Control_c, 0, 11, 54
2, 127369, Control_c, 0, 11, 55
2, 127405, Control_c, 0, 11, 56
2, 127441, Control_c, 0, 11, 57
2, 127441, Note_on_c, 0, 83, 78
2, 127441, Note_on_c, 0, 89, 78
2, 127477, Control_c, 0, 11, 58
2, 127513, Control_c, 0, 11, 59
2, 127549, Control_c, 0, 11, 60
2, 127561, Note_on_c, 0, 89, 0
2, 127561, Note_on_c, 0, 83, 0
2, 127585, Control_c, 0, 11, 61
2, 127621, Control_c, 0, 11, 62
2, 127657, Control_c, 0, 11, 62
2, 127693, Control_c, 0, 11, 63
2, 127729, Control_c, 0, 11, 63
2, 127765, Control_c, 0, 11, 64
2, 127801, Control_c, 0, 11, 65
2, 127801, Note_on_c, 0, 84, 82
2, 127801, Note_on_c, 0, 88, 82
2, 127837, Control_c, 0, 11, 65
2, 127873, Control_c, 0, 11, 66
2, 127909, Control_c, 0, 11, 66
2, 127921, Note_on_c, 0, 88, 0
2, 127921, Note_on_c, 0, 84, 0
2, 127945, Control_c, 0, 11, 67
2, 127981, Control_c, 0, 11, 68
2, 128017, Control_c, 0, 11, 68
2, 128053, Control_c, 0, 11, 69
2, 128089, Control_c, 0, 11, 70
2, 128125, Control_c, 0, 11, 70
2, 128161, Note_on_c, 0, 77, 86
2, 128161, Note_on_c, 0, 83, 86
2, 128161, Control_c, 0, 11, 71
2, 128197, Control_c, 0, 11, 71
2, 128233, Control_c, 0, 11, 72
2, 128269, Control_c, 0, 11, 73
2, 128281, Note_on_c, 0, 83, 0
2, 128281, Note_on_c, 0, 77, 0
2, 128305, Control_c, 0, 11, 73
2, 128341, Control_c, 0, 11, 74
2, 128377, Control_c, 0, 11, 74
2, 128413, Control_c, 0, 11, 75
2, 128449, Control_c, 0, 11, 76
2, 128485, Control_c, 0, 11, 76
2, 128521, Control_c, 0, 11, 77
2, 128521, Note_on_c, 0, 76, 90
2, 128521, Note_on_c, 0, 84, 90
2, 128641, Note_on_c, 0, 84, 0
2, 128641, Note_on_c, 0, 76, 0
2, 128881, Note_on_c, 0, 77, 94
2, 128881, Note_on_c, 0, 83, 94
2, 129001, Note_on_c, 0, 83, 0
2, 129001, Note_on_c, 0, 77, 0
2, 129241, Control_c, 0, 11, 86
2, 129241, Note_on_c, 0, 72, 98
2, 129241, Note_on_c, 0, 84, 98
2, 129361, Note_on_c, 0, 84, 0
2, 129361, Note_on_c, 0, 72, 0
2, 129361, Note_on_c, 0, 88, 98
2, 129361, Note_on_c, 0, 76, 98
2, 129481, Note_on_c, 0, 76, 0
2, 129481, Note_on_c, 0, 88, 0
2, 129481, Control_c, 0, 11, 98
2, 129481, Note_on_c, 0, 79, 98
2, 129481, Note_on_c, 0, 91, 98
2, 129498, Control_c, 0, 11, 97
2, 129516, Control_c, 0, 11, 95
2, 129534, Control_c, 0, 11, 93
2, 129552, Control_c, 0, 11, 91
2, 129570, Control_c, 0, 11, 89
2, 129588, Control_c, 0, 11, 87
2, 129701, Note_on_c, 0, 91, 0
2, 129701, Note_on_c, 0, 79, 0
2, 129721, Note_on_c, 0, 89, 98
2, 129721, Note_on_c, 0, 77, 98
2, 129781, Note_on_c, 0, 77, 0
2, 129781, Note_on_c, 0, 89, 0
2, 129841, Note_on_c, 0, 74, 98
2, 129841, Note_on_c, 0, 86, 98
2, 129901, Note_on_c, 0, 86, 0
2, 129901, Note_on_c, 0, 74, 0
2, 129961, Note_on_c, 0, 84, 98
2, 130021, Note_on_c, 0, 84, 0
2, 130081, Note_on_c, 0, 79, 98
2, 130141, Note_on_c, 0, 79, 0
2, 130201, Note_on_c, 0, 76, 98
2, 130261, Note_on_c, 0, 76, 0
2, 130321, Note_on_c, 0, 72, 98
2, 130381, Note_on_c, 0, 72, 0
2, 130681, Control_c, 0, 121, 0
2, 130681, End_track
3, 0, Start_track
3, 0, MIDI_port, 0
3, 0, Title_t, "2 Oboi"
3, 0, Program_c, 1, 68
3, 0, Control_c, 1, 10, 72
3, 3, Control_c, 1, 121, 0
3, 8, Program_c, 1, 68
3, 13, Pitch_bend_c, 1, 8192
3, 18, Control_c, 1, 11, 77
3, 23, Control_c, 1, 7, 127
3, 28, Control_c, 1, 91, 54
3, 33, Control_c, 1, 93, 0
3, 38, Control_c, 1, 10, 72
3, 2763, Control_c, 1, 11, 77
3, 2763, Note_on_c, 1, 73, 98
3, 2823, Note_on_c, 1, 73, 0
3, 2883, Note_on_c, 1, 74, 98
3, 2943, Note_on_c, 1, 74, 0
3, 3003, Note_on_c, 1, 74, 98
3, 3063, Note_on_c, 1, 74, 0
3, 3123, Note_on_c, 1, 74, 98
3, 3183, Note_on_c, 1, 74, 0
3, 3243, Note_on_c, 1, 67, 98
3, 3363, Note_on_c, 1, 67, 0
3, 5643, Note_on_c, 1, 73, 98
3, 5643, Control_c, 1, 11, 77
3, 5703, Note_on_c, 1, 73, 0
3, 5763, Note_on_c, 1, 74, 98
3, 5823, Note_on_c, 1, 74, 0
3, 5883, Note_on_c, 1, 74, 98
3, 5943, Note_on_c, 1, 74, 0
3, 6003, Note_on_c, 1, 74, 98
3, 6063, Note_on_c, 1, 74, 0
3, 6123, Note_on_c, 1, 67, 98
3, 6243, Note_on_c, 1, 67, 0
3, 7323, Note_on_c, 1, 80, 98
3, 7323, Control_c, 1, 11, 77
3, 7323, Note_on_c, 1, 75, 98
3, 7383, Note_on_c, 1, 75, 0
3, 7383, Note_on_c, 1, 80, 0
3, 7443, Note_on_c, 1, 80, 98
3, 7443, Note_on_c, 1, 77, 98
3, 7503, Note_on_c, 1, 77, 0
3, 7503, Note_on_c, 1, 80, 0
3, 7563, Note_on_c, 1, 80, 98
3, 7563, Note_on_c, 1, 70, 98
3, 7683, Note_on_c, 1, 70, 0
3, 7683, Note_on_c, 1, 80, 0
3, 7683, Note_on_c, 1, 79, 98
3, 7803, Note_on_c, 1, 79, 0
3, 8763, Control_c, 1, 11, 77
3, 8763, Note_on_c, 1, 77, 98
3, 8763, Note_on_c, 1, 72, 98
3, 8823, Note_on_c, 1, 72, 0
3, 8823, Note_on_c, 1, 77, 0
3, 8883, Note_on_c, 1, 77, 98
3, 8883, Note_on_c, 1, 74, 98
3, 8943, Note_on_c, 1, 74, 0
3, 8943, Note_on_c, 1, 77, 0
3, 9003, Note_on_c, 1, 67, 98
3, 9003, Note_on_c, 1, 77, 98
3, 9123, Note_on_c, 1, 77, 0
3, 9123, Note_on_c, 1, 67, 0
3, 9123, Note_on_c, 1, 75, 98
3, 9243, Note_on_c, 1, 75, 0
3, 10083, Note_on_c, 1, 70, 98
3, 10083, Note_on_c, 1, 73, 98
3, 10083, Control_c, 1, 11, 86
3, 10143, Note_on_c, 1, 73, 0
3, 10143, Note_on_c, 1, 70, 0
3, 10203, Note_on_c, 1, 70, 98
3, 10203, Note_on_c, 1, 73, 98
3, 10263, Note_on_c, 1, 73, 0
3, 10263, Note_on_c, 1, 70, 0
3, 10323, Note_on_c, 1, 73, 98
3, 10323, Note_on_c, 1, 70, 98
3, 10383, Note_on_c, 1, 70, 0
3, 10383, Note_on_c, 1, 73, 0
3, 10443, Note_on_c, 1, 70, 98
3, 10443, Note_on_c, 1, 73, 98
3, 10503, Note_on_c, 1, 73, 0
3, 10503, Note_on_c, 1, 70, 0
3, 10563, Note_on_c, 1, 70, 98
3, 10563, Note_on_c, 1, 73, 98
3, 10623, Note_on_c, 1, 73, 0
3, 10623, Note_on_c, 1, 70, 0
3, 10683, Note_on_c, 1, 72, 98
3, 10683, Note_on_c, 1, 75, 98
3, 10743, Note_on_c, 1, 75, 0
3, 10743, Note_on_c, 1, 72, 0
3, 10803, Control_c, 1, 11, 98
3, 10803, Note_on_c, 1, 77, 98
3, 10803, Note_on_c, 1, 73, 98
3, 10821, Control_c, 1, 11, 97
3, 10839, Control_c, 1, 11, 95
3, 10857, Control_c, 1, 11, 93
3, 10875, Control_c, 1, 11, 91
3, 10893, Control_c, 1, 11, 89
3, 10911, Control_c, 1, 11, 87
3, 10923, Note_on_c, 1, 73, 0
3, 10923, Note_on_c, 1, 77, 0
3, 11163, Control_c, 1, 11, 98
3, 11163, Note_on_c, 1, 75, 98
3, 11163, Note_on_c, 1, 70, 98
3, 11181, Control_c, 1, 11, 97
3, 11199, Control_c, 1, 11, 95
3, 11217, Control_c, 1, 11, 93
3, 11235, Control_c, 1, 11, 91
3, 11253, Control_c, 1, 11, 89
3, 11271, Control_c, 1, 11, 87
3, 11283, Note_on_c, 1, 70, 0
3, 11283, Note_on_c, 1, 75, 0
3, 11523, Control_c, 1, 11, 98
3, 11523, Note_on_c, 1, 73, 98
3, 11523, Note_on_c, 1, 77, 98
3, 11541, Control_c, 1, 11, 97
3, 11559, Control_c, 1, 11, 95
3, 11577, Control_c, 1, 11, 93
3, 11595, Control_c, 1, 11, 91
3, 11613, Control_c, 1, 11, 89
3, 11631, Control_c, 1, 11, 87
3, 11643, Note_on_c, 1, 77, 0
3, 11643, Note_on_c, 1, 73, 0
3, 11883, Control_c, 1, 11, 98
3, 11883, Note_on_c, 1, 75, 98
3, 11883, Note_on_c, 1, 72, 98
3, 11901, Control_c, 1, 11, 97
3, 11919, Control_c, 1, 11, 95
3, 11937, Control_c, 1, 11, 93
3, 11955, Control_c, 1, 11, 91
3, 11973, Control_c, 1, 11, 89
3, 11991, Control_c, 1, 11, 87
3, 12003, Note_on_c, 1, 72, 0
3, 12003, Note_on_c, 1, 75, 0
3, 16083, Control_c, 1, 11, 42
3, 16083, Note_on_c, 1, 69, 113
3, 16203, Note_on_c, 1, 69, 0
3, 16203, Note_on_c, 1, 70, 113
3, 16443, Control_c, 1, 11, 42
3, 16460, Control_c, 1, 11, 39
3, 16478, Control_c, 1, 11, 36
3, 16496, Control_c, 1, 11, 33
3, 16514, Control_c, 1, 11, 30
3, 16532, Control_c, 1, 11, 27
3, 16550, Control_c, 1, 11, 24
3, 16563, Note_on_c, 1, 70, 0
3, 17523, Control_c, 1, 11, 42
3, 17523, Note_on_c, 1, 70, 113
3, 17643, Note_on_c, 1, 70, 0
3, 17643, Note_on_c, 1, 71, 113
3, 17883, Control_c, 1, 11, 42
3, 17900, Control_c, 1, 11, 39
3, 17918, Control_c, 1, 11, 36
3, 17936, Control_c, 1, 11, 33
3, 17954, Control_c, 1, 11, 30
3, 17972, Control_c, 1, 11, 27
3, 17990, Control_c, 1, 11, 24
3, 18003, Note_on_c, 1, 71, 0
3, 19323, Note_on_c, 1, 67, 98
3, 19323, Note_on_c, 1, 64, 98
3, 19323, Control_c, 1, 11, 77
3, 19383, Note_on_c, 1, 64, 0
3, 19383, Note_on_c, 1, 67, 0
3, 19443, Note_on_c, 1, 65, 98
3, 19443, Note_on_c, 1, 69, 98
3, 19563, Note_on_c, 1, 69, 0
3, 19563, Note_on_c, 1, 65, 0
3, 19683, Note_on_c, 1, 71, 98
3, 19683, Note_on_c, 1, 62, 98
3, 19743, Note_on_c, 1, 62, 0
3, 19743, Note_on_c, 1, 71, 0
3, 19803, Note_on_c, 1, 64, 98
3, 19803, Note_on_c, 1, 72, 98
3, 19923, Note_on_c, 1, 72, 0
3, 19923, Note_on_c, 1, 64, 0
3, 20043, Note_on_c, 1, 74, 98
3, 20043, Note_on_c, 1, 67, 98
3, 20103, Note_on_c, 1, 67, 0
3, 20103, Note_on_c, 1, 74, 0
3, 20163, Note_on_c, 1, 76, 98
3, 20163, Note_on_c, 1, 67, 98
3, 20223, Note_on_c, 1, 67, 0
3, 20223, Note_on_c, 1, 76, 0
3, 20283, Note_on_c, 1, 76, 98
3, 20283, Note_on_c, 1, 67, 98
3, 20343, Note_on_c, 1, 67, 0
3, 20343, Note_on_c, 1, 76, 0
3, 20403, Note_on_c, 1, 78, 98
3, 20403, Note_on_c, 1, 72, 98
3, 20463, Note_on_c, 1, 72, 0
3, 20463, Note_on_c, 1, 78, 0
3, 20523, Note_on_c, 1, 79, 98
3, 20523, Control_c, 1, 11, 86
3, 20523, Note_on_c, 1, 67, 98
3, 21723, Note_on_c, 1, 67, 0
3, 21723, Note_on_c, 1, 79, 0
3, 21723, Note_on_c, 1, 72, 98
3, 21723, Note_on_c, 1, 76, 98
3, 21783, Note_on_c, 1, 76, 0
3, 21783, Note_on_c, 1, 72, 0
3, 21843, Note_on_c, 1, 72, 98
3, 21843, Note_on_c, 1, 78, 98
3, 21903, Note_on_c, 1, 78, 0
3, 21903, Note_on_c, 1, 72, 0
3, 21963, Note_on_c, 1, 67, 98
3, 21963, Note_on_c, 1, 79, 98
3, 21963, Control_c, 1, 11, 98
3, 21980, Control_c, 1, 11, 97
3, 21998, Control_c, 1, 11, 95
3, 22016, Control_c, 1, 11, 93
3, 22034, Control_c, 1, 11, 91
3, 22052, Control_c, 1, 11, 89
3, 22070, Control_c, 1, 11, 87
3, 22083, Note_on_c, 1, 79, 0
3, 22083, Note_on_c, 1, 67, 0
3, 22203, Note_on_c, 1, 72, 98
3, 22203, Note_on_c, 1, 60, 98
3, 22263, Note_on_c, 1, 60, 0
3, 22263, Note_on_c, 1, 72, 0
3, 22323, Note_on_c, 1, 62, 98
3, 22323, Note_on_c, 1, 74, 98
3, 22383, Note_on_c, 1, 74, 0
3, 22383, Note_on_c, 1, 62, 0
3, 22443, Note_on_c, 1, 70, 98
3, 22443, Note_on_c, 1, 74, 98
3, 22503, Note_on_c, 1, 74, 0
3, 22503, Note_on_c, 1, 70, 0
3, 22563, Note_on_c, 1, 70, 98
3, 22563, Note_on_c, 1, 76, 98
3, 22623, Note_on_c, 1, 76, 0
3, 22623, Note_on_c, 1, 70, 0
3, 22683, Control_c, 1, 11, 98
3, 22683, Note_on_c, 1, 77, 98
3, 22683, Note_on_c, 1, 72, 98
3, 22700, Control_c, 1, 11, 97
3, 22718, Control_c, 1, 11, 95
3, 22736, Control_c, 1, 11, 93
3, 22754, Control_c, 1, 11, 91
3, 22772, Control_c, 1, 11, 89
3, 22790, Control_c, 1, 11, 87
3, 22803, Note_on_c, 1, 72, 0
3, 22803, Note_on_c, 1, 77, 0
3, 22923, Note_on_c, 1, 79, 98
3, 22923, Note_on_c, 1, 72, 98
3, 22983, Note_on_c, 1, 72, 0
3, 22983, Note_on_c, 1, 79, 0
3, 23043, Note_on_c, 1, 72, 98
3, 23043, Note_on_c, 1, 81, 98
3, 23103, Note_on_c, 1, 81, 0
3, 23103, Note_on_c, 1, 72, 0
3, 23163, Note_on_c, 1, 81, 98
3, 23163, Note_on_c, 1, 77, 98
3, 23223, Note_on_c, 1, 77, 0
3, 23223, Note_on_c, 1, 81, 0
3, 23283, Note_on_c, 1, 83, 98
3, 23283, Note_on_c, 1, 77, 98
3, 23343, Note_on_c, 1, 77, 0
3, 23343, Note_on_c, 1, 83, 0
3, 23403, Note_on_c, 1, 79, 98
3, 23403, Note_on_c, 1, 84, 98
3, 23463, Note_on_c, 1, 79, 0
3, 23523, Note_on_c, 1, 76, 98
3, 23583, Note_on_c, 1, 76, 0
3, 23623, Note_on_c, 1, 84, 0
3, 23643, Note_on_c, 1, 81, 98
3, 23643, Note_on_c, 1, 72, 98
3, 23703, Note_on_c, 1, 72, 0
3, 23703, Note_on_c, 1, 81, 0
3, 23763, Note_on_c, 1, 79, 98
3, 23763, Note_on_c, 1, 76, 98
3, 23823, Note_on_c, 1, 76, 0
3, 23883, Note_on_c, 1, 72, 98
3, 23943, Note_on_c, 1, 72, 0
3, 23983, Note_on_c, 1, 79, 0
3, 24003, Note_on_c, 1, 65, 98
3, 24003, Note_on_c, 1, 71, 98
3, 24063, Note_on_c, 1, 71, 0
3, 24063, Note_on_c, 1, 65, 0
3, 24123, Note_on_c, 1, 72, 98
3, 24123, Note_on_c, 1, 64, 98
3, 24243, Note_on_c, 1, 64, 0
3, 24243, Note_on_c, 1, 72, 0
3, 25083, Note_on_c, 1, 72, 78
3, 25143, Note_on_c, 1, 72, 0
3, 25203, Note_on_c, 1, 74, 78
3, 25203, Control_c, 1, 11, 98
3, 25226, Control_c, 1, 11, 97
3, 25250, Control_c, 1, 11, 96
3, 25274, Control_c, 1, 11, 95
3, 25298, Control_c, 1, 11, 94
3, 25322, Control_c, 1, 11, 92
3, 25346, Control_c, 1, 11, 91
3, 25370, Control_c, 1, 11, 90
3, 25394, Control_c, 1, 11, 89
3, 25418, Control_c, 1, 11, 87
3, 25442, Control_c, 1, 11, 86
3, 25443, Note_on_c, 1, 74, 0
3, 25443, Note_on_c, 1, 71, 78
3, 25543, Note_on_c, 1, 71, 0
3, 25563, Note_on_c, 1, 72, 78
3, 25623, Note_on_c, 1, 72, 0
3, 25923, Note_on_c, 1, 72, 78
3, 25983, Note_on_c, 1, 72, 0
3, 26043, Note_on_c, 1, 74, 78
3, 26043, Control_c, 1, 11, 98
3, 26060, Control_c, 1, 11, 97
3, 26078, Control_c, 1, 11, 95
3, 26096, Control_c, 1, 11, 93
3, 26114, Control_c, 1, 11, 91
3, 26132, Control_c, 1, 11, 89
3, 26150, Control_c, 1, 11, 87
3, 26163, Note_on_c, 1, 74, 0
3, 26163, Note_on_c, 1, 71, 78
3, 26263, Note_on_c, 1, 71, 0
3, 26283, Note_on_c, 1, 72, 78
3, 26343, Note_on_c, 1, 72, 0
3, 26643, Note_on_c, 1, 72, 78
3, 26703, Note_on_c, 1, 72, 0
3, 26763, Note_on_c, 1, 74, 78
3, 26763, Control_c, 1, 11, 98
3, 26780, Control_c, 1, 11, 97
3, 26798, Control_c, 1, 11, 95
3, 26816, Control_c, 1, 11, 93
3, 26834, Control_c, 1, 11, 91
3, 26852, Control_c, 1, 11, 89
3, 26870, Control_c, 1, 11, 87
3, 26883, Note_on_c, 1, 74, 0
3, 26883, Note_on_c, 1, 71, 78
3, 26886, Control_c, 1, 11, 86
3, 26900, Control_c, 1, 11, 83
3, 26917, Control_c, 1, 11, 80
3, 26934, Control_c, 1, 11, 77
3, 26947, Control_c, 1, 11, 74
3, 26964, Control_c, 1, 11, 71
3, 26981, Control_c, 1, 11, 68
3, 26983, Note_on_c, 1, 71, 0
3, 26998, Control_c, 1, 11, 65
3, 27003, Control_c, 1, 11, 47
3, 27003, Note_on_c, 1, 72, 98
3, 27003, Note_on_c, 1, 64, 98
3, 27063, Note_on_c, 1, 64, 0
3, 27063, Note_on_c, 1, 72, 0
3, 27363, Note_on_c, 1, 71, 63
3, 27363, Note_on_c, 1, 77, 63
3, 27483, Note_on_c, 1, 77, 0
3, 27483, Note_on_c, 1, 71, 0
3, 27723, Note_on_c, 1, 76, 66
3, 27723, Note_on_c, 1, 72, 66
3, 27843, Note_on_c, 1, 72, 0
3, 27843, Note_on_c, 1, 76, 0
3, 28083, Note_on_c, 1, 74, 70
3, 28083, Note_on_c, 1, 71, 70
3, 28203, Note_on_c, 1, 71, 0
3, 28203, Note_on_c, 1, 74, 0
3, 30603, Note_on_c, 1, 72, 98
3, 30603, Control_c, 1, 11, 86
3, 30723, Note_on_c, 1, 72, 0
3, 30723, Note_on_c, 1, 76, 98
3, 30843, Note_on_c, 1, 76, 0
3, 30843, Control_c, 1, 11, 98
3, 30843, Note_on_c, 1, 79, 98
3, 30860, Control_c, 1, 11, 97
3, 30878, Control_c, 1, 11, 95
3, 30896, Control_c, 1, 11, 93
3, 30914, Control_c, 1, 11, 91
3, 30932, Control_c, 1, 11, 89
3, 30950, Control_c, 1, 11, 87
3, 31063, Note_on_c, 1, 79, 0
3, 31083, Note_on_c, 1, 77, 98
3, 31143, Note_on_c, 1, 77, 0
3, 31203, Note_on_c, 1, 74, 98
3, 31263, Note_on_c, 1, 74, 0
3, 31323, Note_on_c, 1, 72, 98
3, 31383, Note_on_c, 1, 72, 0
3, 32883, Control_c, 1, 11, 77
3, 32883, Note_on_c, 1, 75, 98
3, 32883, Note_on_c, 1, 80, 98
3, 32943, Note_on_c, 1, 80, 0
3, 32943, Note_on_c, 1, 75, 0
3, 33003, Note_on_c, 1, 80, 98
3, 33003, Note_on_c, 1, 77, 98
3, 33063, Note_on_c, 1, 77, 0
3, 33063, Note_on_c, 1, 80, 0
3, 33123, Note_on_c, 1, 70, 98
3, 33123, Note_on_c, 1, 80, 98
3, 33243, Note_on_c, 1, 80, 0
3, 33243, Note_on_c, 1, 70, 0
3, 33243, Note_on_c, 1, 79, 98
3, 33363, Note_on_c, 1, 79, 0
3, 34323, Note_on_c, 1, 72, 98
3, 34323, Note_on_c, 1, 77, 98
3, 34323, Control_c, 1, 11, 77
3, 34383, Note_on_c, 1, 77, 0
3, 34383, Note_on_c, 1, 72, 0
3, 34443, Note_on_c, 1, 74, 98
3, 34443, Note_on_c, 1, 77, 98
3, 34503, Note_on_c, 1, 77, 0
3, 34503, Note_on_c, 1, 74, 0
3, 34563, Note_on_c, 1, 77, 98
3, 34563, Note_on_c, 1, 67, 98
3, 34683, Note_on_c, 1, 67, 0
3, 34683, Note_on_c, 1, 77, 0
3, 34683, Note_on_c, 1, 75, 98
3, 34803, Note_on_c, 1, 75, 0
3, 35643, Control_c, 1, 11, 86
3, 35643, Note_on_c, 1, 73, 98
3, 35643, Note_on_c, 1, 70, 98
3, 35703, Note_on_c, 1, 70, 0
3, 35703, Note_on_c, 1, 73, 0
3, 35763, Note_on_c, 1, 73, 98
3, 35763, Note_on_c, 1, 70, 98
3, 35823, Note_on_c, 1, 70, 0
3, 35823, Note_on_c, 1, 73, 0
3, 35883, Note_on_c, 1, 73, 98
3, 35883, Note_on_c, 1, 70, 98
3, 35943, Note_on_c, 1, 70, 0
3, 35943, Note_on_c, 1, 73, 0
3, 36003, Note_on_c, 1, 73, 98
3, 36003, Note_on_c, 1, 70, 98
3, 36063, Note_on_c, 1, 70, 0
3, 36063, Note_on_c, 1, 73, 0
3, 36123, Note_on_c, 1, 73, 98
3, 36123, Note_on_c, 1, 70, 98
3, 36183, Note_on_c, 1, 70, 0
3, 36183, Note_on_c, 1, 73, 0
3, 36243, Note_on_c, 1, 75, 98
3, 36243, Note_on_c, 1, 72, 98
3, 36303, Note_on_c, 1, 72, 0
3, 36303, Note_on_c, 1, 75, 0
3, 36363, Note_on_c, 1, 73, 98
3, 36363, Control_c, 1, 11, 98
3, 36363, Note_on_c, 1, 77, 98
3, 36381, Control_c, 1, 11, 97
3, 36399, Control_c, 1, 11, 95
3, 36417, Control_c, 1, 11, 93
3, 36435, Control_c, 1, 11, 91
3, 36453, Control_c, 1, 11, 89
3, 36471, Control_c, 1, 11, 87
3, 36483, Note_on_c, 1, 77, 0
3, 36483, Note_on_c, 1, 73, 0
3, 36723, Note_on_c, 1, 70, 98
3, 36723, Control_c, 1, 11, 98
3, 36723, Note_on_c, 1, 75, 98
3, 36741, Control_c, 1, 11, 97
3, 36759, Control_c, 1, 11, 95
3, 36777, Control_c, 1, 11, 93
3, 36795, Control_c, 1, 11, 91
3, 36813, Control_c, 1, 11, 89
3, 36831, Control_c, 1, 11, 87
3, 36843, Note_on_c, 1, 75, 0
3, 36843, Note_on_c, 1, 70, 0
3, 37083, Note_on_c, 1, 77, 98
3, 37083, Control_c, 1, 11, 98
3, 37083, Note_on_c, 1, 73, 98
3, 37101, Control_c, 1, 11, 97
3, 37119, Control_c, 1, 11, 95
3, 37137, Control_c, 1, 11, 93
3, 37155, Control_c, 1, 11, 91
3, 37173, Control_c, 1, 11, 89
3, 37191, Control_c, 1, 11, 87
3, 37203, Note_on_c, 1, 73, 0
3, 37203, Note_on_c, 1, 77, 0
3, 37443, Note_on_c, 1, 72, 98
3, 37443, Control_c, 1, 11, 98
3, 37443, Note_on_c, 1, 75, 98
3, 37461, Control_c, 1, 11, 97
3, 37479, Control_c, 1, 11, 95
3, 37497, Control_c, 1, 11, 93
3, 37515, Control_c, 1, 11, 91
3, 37533, Control_c, 1, 11, 89
3, 37551, Control_c, 1, 11, 87
3, 37563, Note_on_c, 1, 75, 0
3, 37563, Note_on_c, 1, 72, 0
3, 41643, Note_on_c, 1, 69, 113
3, 41643, Control_c, 1, 11, 42
3, 41763, Note_on_c, 1, 69, 0
3, 41763, Note_on_c, 1, 70, 113
3, 42003, Control_c, 1, 11, 42
3, 42020, Control_c, 1, 11, 39
3, 42038, Control_c, 1, 11, 36
3, 42056, Control_c, 1, 11, 33
3, 42074, Control_c, 1, 11, 30
3, 42092, Control_c, 1, 11, 27
3, 42110, Control_c, 1, 11, 24
3, 42123, Note_on_c, 1, 70, 0
3, 43083, Note_on_c, 1, 70, 113
3, 43083, Control_c, 1, 11, 42
3, 43203, Note_on_c, 1, 70, 0
3, 43203, Note_on_c, 1, 71, 113
3, 43443, Control_c, 1, 11, 42
3, 43460, Control_c, 1, 11, 39
3, 43478, Control_c, 1, 11, 36
3, 43496, Control_c, 1, 11, 33
3, 43514, Control_c, 1, 11, 30
3, 43532, Control_c, 1, 11, 27
3, 43550, Control_c, 1, 11, 24
3, 43563, Note_on_c, 1, 71, 0
3, 44883, Control_c, 1, 11, 77
3, 44883, Note_on_c, 1, 64, 98
3, 44883, Note_on_c, 1, 67, 98
3, 44943, Note_on_c, 1, 67, 0
3, 44943, Note_on_c, 1, 64, 0
3, 45003, Note_on_c, 1, 65, 98
3, 45003, Note_on_c, 1, 69, 98
3, 45123, Note_on_c, 1, 69, 0
3, 45123, Note_on_c, 1, 65, 0
3, 45243, Note_on_c, 1, 62, 98
3, 45243, Note_on_c, 1, 71, 98
3, 45303, Note_on_c, 1, 71, 0
3, 45303, Note_on_c, 1, 62, 0
3, 45363, Note_on_c, 1, 72, 98
3, 45363, Note_on_c, 1, 64, 98
3, 45483, Note_on_c, 1, 64, 0
3, 45483, Note_on_c, 1, 72, 0
3, 45603, Note_on_c, 1, 67, 98
3, 45603, Note_on_c, 1, 74, 98
3, 45663, Note_on_c, 1, 74, 0
3, 45663, Note_on_c, 1, 67, 0
3, 45723, Note_on_c, 1, 67, 98
3, 45723, Note_on_c, 1, 76, 98
3, 45783, Note_on_c, 1, 76, 0
3, 45783, Note_on_c, 1, 67, 0
3, 45843, Note_on_c, 1, 76, 98
3, 45843, Note_on_c, 1, 67, 98
3, 45903, Note_on_c, 1, 67, 0
3, 45903, Note_on_c, 1, 76, 0
3, 45963, Note_on_c, 1, 72, 98
3, 45963, Note_on_c, 1, 78, 98
3, 46023, Note_on_c, 1, 78, 0
3, 46023, Note_on_c, 1, 72, 0
3, 46083, Control_c, 1, 11, 86
3, 46083, Note_on_c, 1, 67, 98
3, 46083, Note_on_c, 1, 79, 98
3, 47283, Note_on_c, 1, 79, 0
3, 47283, Note_on_c, 1, 67, 0
3, 47283, Note_on_c, 1, 72, 98
3, 47283, Note_on_c, 1, 76, 98
3, 47343, Note_on_c, 1, 76, 0
3, 47343, Note_on_c, 1, 72, 0
3, 47403, Note_on_c, 1, 72, 98
3, 47403, Note_on_c, 1, 78, 98
3, 47463, Note_on_c, 1, 78, 0
3, 47463, Note_on_c, 1, 72, 0
3, 47523, Control_c, 1, 11, 98
3, 47523, Note_on_c, 1, 79, 98
3, 47523, Note_on_c, 1, 67, 98
3, 47540, Control_c, 1, 11, 97
3, 47558, Control_c, 1, 11, 95
3, 47576, Control_c, 1, 11, 93
3, 47594, Control_c, 1, 11, 91
3, 47612, Control_c, 1, 11, 89
3, 47630, Control_c, 1, 11, 87
3, 47643, Note_on_c, 1, 67, 0
3, 47643, Note_on_c, 1, 79, 0
3, 47763, Note_on_c, 1, 60, 98
3, 47763, Note_on_c, 1, 72, 98
3, 47823, Note_on_c, 1, 72, 0
3, 47823, Note_on_c, 1, 60, 0
3, 47883, Note_on_c, 1, 74, 98
3, 47883, Note_on_c, 1, 62, 98
3, 47943, Note_on_c, 1, 62, 0
3, 47943, Note_on_c, 1, 74, 0
3, 48003, Note_on_c, 1, 74, 98
3, 48003, Note_on_c, 1, 70, 98
3, 48063, Note_on_c, 1, 70, 0
3, 48063, Note_on_c, 1, 74, 0
3, 48123, Note_on_c, 1, 70, 98
3, 48123, Note_on_c, 1, 76, 98
3, 48183, Note_on_c, 1, 76, 0
3, 48183, Note_on_c, 1, 70, 0
3, 48243, Note_on_c, 1, 72, 98
3, 48243, Note_on_c, 1, 77, 98
3, 48243, Control_c, 1, 11, 98
3, 48260, Control_c, 1, 11, 97
3, 48278, Control_c, 1, 11, 95
3, 48296, Control_c, 1, 11, 93
3, 48314, Control_c, 1, 11, 91
3, 48332, Control_c, 1, 11, 89
3, 48350, Control_c, 1, 11, 87
3, 48363, Note_on_c, 1, 77, 0
3, 48363, Note_on_c, 1, 72, 0
3, 48483, Note_on_c, 1, 72, 98
3, 48483, Note_on_c, 1, 79, 98
3, 48543, Note_on_c, 1, 79, 0
3, 48543, Note_on_c, 1, 72, 0
3, 48603, Note_on_c, 1, 72, 98
3, 48603, Note_on_c, 1, 81, 98
3, 48663, Note_on_c, 1, 81, 0
3, 48663, Note_on_c, 1, 72, 0
3, 48723, Note_on_c, 1, 81, 98
3, 48723, Note_on_c, 1, 77, 98
3, 48783, Note_on_c, 1, 77, 0
3, 48783, Note_on_c, 1, 81, 0
3, 48843, Note_on_c, 1, 83, 98
3, 48843, Note_on_c, 1, 77, 98
3, 48903, Note_on_c, 1, 77, 0
3, 48903, Note_on_c, 1, 83, 0
3, 48963, Note_on_c, 1, 84, 98
3, 48963, Note_on_c, 1, 79, 98
3, 49023, Note_on_c, 1, 79, 0
3, 49083, Note_on_c, 1, 76, 98
3, 49143, Note_on_c, 1, 76, 0
3, 49183, Note_on_c, 1, 84, 0
3, 49203, Note_on_c, 1, 81, 98
3, 49203, Note_on_c, 1, 72, 98
3, 49263, Note_on_c, 1, 72, 0
3, 49263, Note_on_c, 1, 81, 0
3, 49323, Note_on_c, 1, 79, 98
3, 49323, Note_on_c, 1, 76, 98
3, 49383, Note_on_c, 1, 76, 0
3, 49443, Note_on_c, 1, 72, 98
3, 49503, Note_on_c, 1, 72, 0
3, 49543, Note_on_c, 1, 79, 0
3, 49563, Note_on_c, 1, 65, 98
3, 49563, Note_on_c, 1, 71, 98
3, 49623, Note_on_c, 1, 71, 0
3, 49623, Note_on_c, 1, 65, 0
3, 49683, Note_on_c, 1, 64, 98
3, 49683, Note_on_c, 1, 72, 98
3, 49803, Note_on_c, 1, 72, 0
3, 49803, Note_on_c, 1, 64, 0
3, 50643, Note_on_c, 1, 72, 78
3, 50703, Note_on_c, 1, 72, 0
3, 50763, Note_on_c, 1, 74, 78
3, 50763, Control_c, 1, 11, 98
3, 50786, Control_c, 1, 11, 97
3, 50810, Control_c, 1, 11, 96
3, 50834, Control_c, 1, 11, 95
3, 50858, Control_c, 1, 11, 94
3, 50882, Control_c, 1, 11, 92
3, 50906, Control_c, 1, 11, 91
3, 50930, Control_c, 1, 11, 90
3, 50954, Control_c, 1, 11, 89
3, 50978, Control_c, 1, 11, 87
3, 51002, Control_c, 1, 11, 86
3, 51003, Note_on_c, 1, 74, 0
3, 51003, Note_on_c, 1, 71, 78
3, 51103, Note_on_c, 1, 71, 0
3, 51123, Note_on_c, 1, 72, 78
3, 51183, Note_on_c, 1, 72, 0
3, 51483, Note_on_c, 1, 72, 78
3, 51543, Note_on_c, 1, 72, 0
3, 51603, Note_on_c, 1, 74, 78
3, 51603, Control_c, 1, 11, 98
3, 51620, Control_c, 1, 11, 97
3, 51638, Control_c, 1, 11, 95
3, 51656, Control_c, 1, 11, 93
3, 51674, Control_c, 1, 11, 91
3, 51692, Control_c, 1, 11, 89
3, 51710, Control_c, 1, 11, 87
3, 51723, Note_on_c, 1, 74, 0
3, 51723, Note_on_c, 1, 71, 78
3, 51823, Note_on_c, 1, 71, 0
3, 51843, Note_on_c, 1, 72, 78
3, 51903, Note_on_c, 1, 72, 0
3, 52203, Note_on_c, 1, 72, 78
3, 52263, Note_on_c, 1, 72, 0
3, 52323, Note_on_c, 1, 74, 78
3, 52323, Control_c, 1, 11, 98
3, 52340, Control_c, 1, 11, 97
3, 52358, Control_c, 1, 11, 95
3, 52376, Control_c, 1, 11, 93
3, 52394, Control_c, 1, 11, 91
3, 52412, Control_c, 1, 11, 89
3, 52430, Control_c, 1, 11, 87
3, 52443, Note_on_c, 1, 74, 0
3, 52443, Note_on_c, 1, 71, 78
3, 52446, Control_c, 1, 11, 86
3, 52460, Control_c, 1, 11, 83
3, 52477, Control_c, 1, 11, 80
3, 52494, Control_c, 1, 11, 77
3, 52507, Control_c, 1, 11, 74
3, 52524, Control_c, 1, 11, 71
3, 52541, Control_c, 1, 11, 68
3, 52543, Note_on_c, 1, 71, 0
3, 52558, Control_c, 1, 11, 65
3, 52563, Note_on_c, 1, 64, 98
3, 52563, Note_on_c, 1, 72, 98
3, 52563, Control_c, 1, 11, 47
3, 52623, Note_on_c, 1, 72, 0
3, 52623, Note_on_c, 1, 64, 0
3, 52923, Note_on_c, 1, 71, 63
3, 52923, Note_on_c, 1, 77, 63
3, 53043, Note_on_c, 1, 77, 0
3, 53043, Note_on_c, 1, 71, 0
3, 53283, Note_on_c, 1, 76, 66
3, 53283, Note_on_c, 1, 72, 66
3, 53403, Note_on_c, 1, 72, 0
3, 53403, Note_on_c, 1, 76, 0
3, 53643, Note_on_c, 1, 74, 70
3, 53643, Note_on_c, 1, 71, 70
3, 53763, Note_on_c, 1, 71, 0
3, 53763, Note_on_c, 1, 74, 0
3, 56163, Note_on_c, 1, 72, 98
3, 56163, Control_c, 1, 11, 86
3, 56283, Note_on_c, 1, 72, 0
3, 56283, Note_on_c, 1, 76, 98
3, 56403, Note_on_c, 1, 76, 0
3, 56403, Note_on_c, 1, 79, 98
3, 56403, Control_c, 1, 11, 98
3, 56420, Control_c, 1, 11, 97
3, 56438, Control_c, 1, 11, 95
3, 56456, Control_c, 1, 11, 93
3, 56474, Control_c, 1, 11, 91
3, 56492, Control_c, 1, 11, 89
3, 56510, Control_c, 1, 11, 87
3, 56623, Note_on_c, 1, 79, 0
3, 56643, Note_on_c, 1, 77, 98
3, 56703, Note_on_c, 1, 77, 0
3, 56763, Note_on_c, 1, 74, 98
3, 56823, Note_on_c, 1, 74, 0
3, 56883, Note_on_c, 1, 72, 98
3, 56943, Note_on_c, 1, 72, 0
3, 57483, Note_on_c, 1, 67, 98
3, 57483, Control_c, 1, 11, 37
3, 57587, Control_c, 1, 11, 38
3, 57603, Note_on_c, 1, 67, 0
3, 57603, Note_on_c, 1, 76, 59
3, 57603, Note_on_c, 1, 72, 59
3, 57691, Control_c, 1, 11, 39
3, 57792, Note_on_c, 1, 72, 0
3, 57792, Note_on_c, 1, 76, 0
3, 57795, Control_c, 1, 11, 40
3, 57843, Note_on_c, 1, 76, 59
3, 57843, Note_on_c, 1, 72, 59
3, 57899, Control_c, 1, 11, 41
3, 57933, Note_on_c, 1, 72, 0
3, 57933, Note_on_c, 1, 76, 0
3, 57963, Note_on_c, 1, 76, 59
3, 57963, Note_on_c, 1, 72, 59
3, 58003, Control_c, 1, 11, 42
3, 58107, Control_c, 1, 11, 43
3, 58152, Note_on_c, 1, 72, 0
3, 58152, Note_on_c, 1, 76, 0
3, 58203, Note_on_c, 1, 72, 59
3, 58203, Note_on_c, 1, 76, 59
3, 58211, Control_c, 1, 11, 44
3, 58293, Note_on_c, 1, 76, 0
3, 58293, Note_on_c, 1, 72, 0
3, 58315, Control_c, 1, 11, 45
3, 58323, Note_on_c, 1, 72, 59
3, 58323, Note_on_c, 1, 76, 59
3, 58419, Control_c, 1, 11, 46
3, 58512, Note_on_c, 1, 76, 0
3, 58512, Note_on_c, 1, 72, 0
3, 58523, Control_c, 1, 11, 47
3, 58563, Note_on_c, 1, 76, 59
3, 58563, Note_on_c, 1, 72, 59
3, 58627, Control_c, 1, 11, 48
3, 58653, Note_on_c, 1, 72, 0
3, 58653, Note_on_c, 1, 76, 0
3, 58683, Note_on_c, 1, 72, 59
3, 58683, Note_on_c, 1, 76, 59
3, 58731, Control_c, 1, 11, 49
3, 58835, Control_c, 1, 11, 50
3, 58872, Note_on_c, 1, 76, 0
3, 58872, Note_on_c, 1, 72, 0
3, 58923, Note_on_c, 1, 72, 55
3, 58923, Note_on_c, 1, 76, 55
3, 58939, Control_c, 1, 11, 51
3, 59013, Note_on_c, 1, 76, 0
3, 59013, Note_on_c, 1, 72, 0
3, 59043, Note_on_c, 1, 72, 59
3, 59043, Control_c, 1, 11, 42
3, 59043, Note_on_c, 1, 76, 59
3, 59091, Control_c, 1, 11, 43
3, 59139, Control_c, 1, 11, 44
3, 59187, Control_c, 1, 11, 45
3, 59235, Control_c, 1, 11, 46
3, 59283, Control_c, 1, 11, 47
3, 59331, Control_c, 1, 11, 48
3, 59379, Control_c, 1, 11, 49
3, 59427, Control_c, 1, 11, 50
3, 59475, Control_c, 1, 11, 51
3, 59523, Control_c, 1, 11, 52
3, 60463, Note_on_c, 1, 76, 0
3, 60463, Note_on_c, 1, 72, 0
3, 60483, Note_on_c, 1, 76, 59
3, 60483, Note_on_c, 1, 72, 59
3, 60672, Note_on_c, 1, 72, 0
3, 60672, Note_on_c, 1, 76, 0
3, 60723, Note_on_c, 1, 72, 70
3, 60723, Note_on_c, 1, 76, 70
3, 60813, Note_on_c, 1, 76, 0
3, 60813, Note_on_c, 1, 72, 0
3, 60843, Note_on_c, 1, 76, 70
3, 60843, Note_on_c, 1, 72, 70
3, 61032, Note_on_c, 1, 72, 0
3, 61032, Note_on_c, 1, 76, 0
3, 61083, Note_on_c, 1, 72, 70
3, 61083, Note_on_c, 1, 76, 70
3, 61173, Note_on_c, 1, 76, 0
3, 61173, Note_on_c, 1, 72, 0
3, 61203, Note_on_c, 1, 72, 70
3, 61203, Note_on_c, 1, 76, 70
3, 61392, Note_on_c, 1, 76, 0
3, 61392, Note_on_c, 1, 72, 0
3, 61443, Note_on_c, 1, 76, 70
3, 61443, Note_on_c, 1, 72, 70
3, 61533, Note_on_c, 1, 72, 0
3, 61533, Note_on_c, 1, 76, 0
3, 61563, Note_on_c, 1, 72, 70
3, 61563, Note_on_c, 1, 76, 70
3, 61752, Note_on_c, 1, 76, 0
3, 61752, Note_on_c, 1, 72, 0
3, 61803, Note_on_c, 1, 76, 66
3, 61803, Note_on_c, 1, 72, 66
3, 61893, Note_on_c, 1, 72, 0
3, 61893, Note_on_c, 1, 76, 0
3, 61923, Note_on_c, 1, 69, 70
3, 61923, Note_on_c, 1, 77, 70
3, 61923, Control_c, 1, 11, 42
3, 61971, Control_c, 1, 11, 43
3, 62019, Control_c, 1, 11, 44
3, 62067, Control_c, 1, 11, 45
3, 62115, Control_c, 1, 11, 46
3, 62163, Control_c, 1, 11, 47
3, 62211, Control_c, 1, 11, 48
3, 62259, Control_c, 1, 11, 49
3, 62307, Control_c, 1, 11, 50
3, 62355, Control_c, 1, 11, 51
3, 62403, Control_c, 1, 11, 52
3, 63343, Note_on_c, 1, 77, 0
3, 63343, Note_on_c, 1, 69, 0
3, 63363, Note_on_c, 1, 71, 59
3, 63363, Note_on_c, 1, 77, 59
3, 63552, Note_on_c, 1, 77, 0
3, 63552, Note_on_c, 1, 71, 0
3, 63603, Note_on_c, 1, 71, 70
3, 63603, Note_on_c, 1, 77, 70
3, 63693, Note_on_c, 1, 77, 0
3, 63693, Note_on_c, 1, 71, 0
3, 63723, Note_on_c, 1, 76, 70
3, 63723, Note_on_c, 1, 72, 70
3, 64063, Note_on_c, 1, 72, 0
3, 64063, Note_on_c, 1, 76, 0
3, 64083, Note_on_c, 1, 77, 70
3, 64083, Note_on_c, 1, 83, 70
3, 64272, Note_on_c, 1, 83, 0
3, 64272, Note_on_c, 1, 77, 0
3, 64323, Note_on_c, 1, 83, 70
3, 64323, Note_on_c, 1, 77, 70
3, 64413, Note_on_c, 1, 77, 0
3, 64413, Note_on_c, 1, 83, 0
3, 64443, Note_on_c, 1, 84, 70
3, 64443, Note_on_c, 1, 76, 70
3, 64632, Note_on_c, 1, 76, 0
3, 64632, Note_on_c, 1, 84, 0
3, 64683, Note_on_c, 1, 72, 70
3, 64683, Note_on_c, 1, 81, 70
3, 64773, Note_on_c, 1, 81, 0
3, 64773, Note_on_c, 1, 72, 0
3, 64803, Note_on_c, 1, 79, 70
3, 64803, Note_on_c, 1, 71, 70
3, 64992, Note_on_c, 1, 71, 0
3, 64992, Note_on_c, 1, 79, 0
3, 65043, Note_on_c, 1, 79, 70
3, 65043, Note_on_c, 1, 71, 70
3, 65133, Note_on_c, 1, 71, 0
3, 65133, Note_on_c, 1, 79, 0
3, 65163, Note_on_c, 1, 72, 70
3, 65163, Note_on_c, 1, 78, 70
3, 65352, Note_on_c, 1, 78, 0
3, 65352, Note_on_c, 1, 72, 0
3, 65403, Note_on_c, 1, 72, 70
3, 65403, Note_on_c, 1, 78, 70
3, 65493, Note_on_c, 1, 78, 0
3, 65493, Note_on_c, 1, 72, 0
3, 65523, Note_on_c, 1, 72, 70
3, 65523, Note_on_c, 1, 81, 70
3, 65883, Note_on_c, 1, 81, 0
3, 65883, Note_on_c, 1, 72, 0
3, 65883, Note_on_c, 1, 71, 70
3, 65883, Note_on_c, 1, 79, 70
3, 66003, Note_on_c, 1, 79, 0
3, 66003, Note_on_c, 1, 71, 0
3, 66123, Note_on_c, 1, 67, 98
3, 66123, Control_c, 1, 11, 37
3, 66227, Control_c, 1, 11, 38
3, 66243, Note_on_c, 1, 67, 0
3, 66243, Note_on_c, 1, 76, 59
3, 66243, Note_on_c, 1, 72, 59
3, 66331, Control_c, 1, 11, 39
3, 66432, Note_on_c, 1, 72, 0
3, 66432, Note_on_c, 1, 76, 0
3, 66435, Control_c, 1, 11, 40
3, 66483, Note_on_c, 1, 72, 59
3, 66483, Note_on_c, 1, 76, 59
3, 66539, Control_c, 1, 11, 41
3, 66573, Note_on_c, 1, 76, 0
3, 66573, Note_on_c, 1, 72, 0
3, 66603, Note_on_c, 1, 76, 59
3, 66603, Note_on_c, 1, 72, 59
3, 66643, Control_c, 1, 11, 42
3, 66747, Control_c, 1, 11, 43
3, 66792, Note_on_c, 1, 72, 0
3, 66792, Note_on_c, 1, 76, 0
3, 66843, Note_on_c, 1, 72, 59
3, 66843, Note_on_c, 1, 76, 59
3, 66851, Control_c, 1, 11, 44
3, 66933, Note_on_c, 1, 76, 0
3, 66933, Note_on_c, 1, 72, 0
3, 66955, Control_c, 1, 11, 45
3, 66963, Note_on_c, 1, 72, 59
3, 66963, Note_on_c, 1, 76, 59
3, 67059, Control_c, 1, 11, 46
3, 67152, Note_on_c, 1, 76, 0
3, 67152, Note_on_c, 1, 72, 0
3, 67163, Control_c, 1, 11, 47
3, 67203, Note_on_c, 1, 76, 59
3, 67203, Note_on_c, 1, 72, 59
3, 67267, Control_c, 1, 11, 48
3, 67293, Note_on_c, 1, 72, 0
3, 67293, Note_on_c, 1, 76, 0
3, 67323, Note_on_c, 1, 76, 59
3, 67323, Note_on_c, 1, 72, 59
3, 67371, Control_c, 1, 11, 49
3, 67475, Control_c, 1, 11, 50
3, 67512, Note_on_c, 1, 72, 0
3, 67512, Note_on_c, 1, 76, 0
3, 67563, Note_on_c, 1, 76, 55
3, 67563, Note_on_c, 1, 72, 55
3, 67579, Control_c, 1, 11, 51
3, 67653, Note_on_c, 1, 72, 0
3, 67653, Note_on_c, 1, 76, 0
3, 67683, Control_c, 1, 11, 42
3, 67683, Note_on_c, 1, 76, 59
3, 67683, Note_on_c, 1, 72, 59
3, 67731, Control_c, 1, 11, 43
3, 67779, Control_c, 1, 11, 44
3, 67827, Control_c, 1, 11, 45
3, 67875, Control_c, 1, 11, 46
3, 67923, Control_c, 1, 11, 47
3, 67971, Control_c, 1, 11, 48
3, 68019, Control_c, 1, 11, 49
3, 68067, Control_c, 1, 11, 50
3, 68115, Control_c, 1, 11, 51
3, 68163, Control_c, 1, 11, 52
3, 69103, Note_on_c, 1, 72, 0
3, 69103, Note_on_c, 1, 76, 0
3, 69123, Note_on_c, 1, 72, 59
3, 69123, Note_on_c, 1, 76, 59
3, 69312, Note_on_c, 1, 76, 0
3, 69312, Note_on_c, 1, 72, 0
3, 69363, Note_on_c, 1, 76, 70
3, 69363, Note_on_c, 1, 72, 70
3, 69453, Note_on_c, 1, 72, 0
3, 69453, Note_on_c, 1, 76, 0
3, 69483, Note_on_c, 1, 76, 70
3, 69483, Note_on_c, 1, 72, 70
3, 69672, Note_on_c, 1, 72, 0
3, 69672, Note_on_c, 1, 76, 0
3, 69723, Note_on_c, 1, 72, 70
3, 69723, Note_on_c, 1, 76, 70
3, 69813, Note_on_c, 1, 76, 0
3, 69813, Note_on_c, 1, 72, 0
3, 69843, Note_on_c, 1, 76, 70
3, 69843, Note_on_c, 1, 72, 70
3, 70032, Note_on_c, 1, 72, 0
3, 70032, Note_on_c, 1, 76, 0
3, 70083, Note_on_c, 1, 72, 70
3, 70083, Note_on_c, 1, 76, 70
3, 70173, Note_on_c, 1, 76, 0
3, 70173, Note_on_c, 1, 72, 0
3, 70203, Note_on_c, 1, 72, 70
3, 70203, Note_on_c, 1, 76, 70
3, 70392, Note_on_c, 1, 76, 0
3, 70392, Note_on_c, 1, 72, 0
3, 70443, Note_on_c, 1, 76, 66
3, 70443, Note_on_c, 1, 72, 66
3, 70533, Note_on_c, 1, 72, 0
3, 70533, Note_on_c, 1, 76, 0
3, 70563, Note_on_c, 1, 69, 70
3, 70563, Note_on_c, 1, 77, 70
3, 70563, Control_c, 1, 11, 42
3, 70611, Control_c, 1, 11, 43
3, 70659, Control_c, 1, 11, 44
3, 70707, Control_c, 1, 11, 45
3, 70755, Control_c, 1, 11, 46
3, 70803, Control_c, 1, 11, 47
3, 70851, Control_c, 1, 11, 48
3, 70899, Control_c, 1, 11, 49
3, 70947, Control_c, 1, 11, 50
3, 70995, Control_c, 1, 11, 51
3, 71043, Control_c, 1, 11, 52
3, 71983, Note_on_c, 1, 77, 0
3, 71983, Note_on_c, 1, 69, 0
3, 72003, Note_on_c, 1, 71, 59
3, 72003, Note_on_c, 1, 77, 59
3, 72192, Note_on_c, 1, 77, 0
3, 72192, Note_on_c, 1, 71, 0
3, 72243, Note_on_c, 1, 71, 70
3, 72243, Note_on_c, 1, 77, 70
3, 72333, Note_on_c, 1, 77, 0
3, 72333, Note_on_c, 1, 71, 0
3, 72363, Note_on_c, 1, 76, 70
3, 72363, Note_on_c, 1, 72, 70
3, 72703, Note_on_c, 1, 72, 0
3, 72703, Note_on_c, 1, 76, 0
3, 72723, Note_on_c, 1, 77, 70
3, 72723, Note_on_c, 1, 83, 70
3, 72912, Note_on_c, 1, 83, 0
3, 72912, Note_on_c, 1, 77, 0
3, 72963, Note_on_c, 1, 77, 70
3, 72963, Note_on_c, 1, 83, 70
3, 73053, Note_on_c, 1, 83, 0
3, 73053, Note_on_c, 1, 77, 0
3, 73083, Note_on_c, 1, 76, 70
3, 73083, Note_on_c, 1, 84, 70
3, 73272, Note_on_c, 1, 84, 0
3, 73272, Note_on_c, 1, 76, 0
3, 73323, Note_on_c, 1, 72, 70
3, 73323, Note_on_c, 1, 81, 70
3, 73413, Note_on_c, 1, 81, 0
3, 73413, Note_on_c, 1, 72, 0
3, 73443, Note_on_c, 1, 79, 70
3, 73443, Note_on_c, 1, 71, 70
3, 73632, Note_on_c, 1, 71, 0
3, 73632, Note_on_c, 1, 79, 0
3, 73683, Note_on_c, 1, 71, 70
3, 73683, Note_on_c, 1, 79, 70
3, 73773, Note_on_c, 1, 79, 0
3, 73773, Note_on_c, 1, 71, 0
3, 73803, Note_on_c, 1, 78, 70
3, 73803, Note_on_c, 1, 72, 70
3, 73992, Note_on_c, 1, 72, 0
3, 73992, Note_on_c, 1, 78, 0
3, 74043, Note_on_c, 1, 72, 70
3, 74043, Note_on_c, 1, 78, 70
3, 74133, Note_on_c, 1, 78, 0
3, 74133, Note_on_c, 1, 72, 0
3, 74163, Note_on_c, 1, 72, 70
3, 74163, Note_on_c, 1, 81, 70
3, 74523, Note_on_c, 1, 81, 0
3, 74523, Note_on_c, 1, 72, 0
3, 74523, Note_on_c, 1, 71, 70
3, 74523, Note_on_c, 1, 79, 70
3, 74643, Note_on_c, 1, 79, 0
3, 74643, Note_on_c, 1, 71, 0
3, 82083, Note_on_c, 1, 76, 76
3, 82083, Control_c, 1, 11, 47
3, 82083, Note_on_c, 1, 84, 76
3, 82109, Control_c, 1, 11, 49
3, 82135, Control_c, 1, 11, 51
3, 82161, Control_c, 1, 11, 53
3, 82187, Control_c, 1, 11, 55
3, 82213, Control_c, 1, 11, 57
3, 82240, Control_c, 1, 11, 59
3, 82266, Control_c, 1, 11, 61
3, 82272, Note_on_c, 1, 84, 0
3, 82272, Note_on_c, 1, 76, 0
3, 82292, Control_c, 1, 11, 63
3, 82318, Control_c, 1, 11, 65
3, 82323, Note_on_c, 1, 76, 76
3, 82323, Note_on_c, 1, 84, 76
3, 82344, Control_c, 1, 11, 67
3, 82371, Control_c, 1, 11, 69
3, 82397, Control_c, 1, 11, 71
3, 82413, Note_on_c, 1, 84, 0
3, 82413, Note_on_c, 1, 76, 0
3, 82423, Control_c, 1, 11, 73
3, 82443, Note_on_c, 1, 84, 76
3, 82443, Note_on_c, 1, 76, 76
3, 82449, Control_c, 1, 11, 75
3, 82475, Control_c, 1, 11, 77
3, 82501, Control_c, 1, 11, 79
3, 82528, Control_c, 1, 11, 81
3, 82554, Control_c, 1, 11, 83
3, 82580, Control_c, 1, 11, 85
3, 82606, Control_c, 1, 11, 87
3, 82632, Note_on_c, 1, 76, 0
3, 82632, Note_on_c, 1, 84, 0
3, 82632, Control_c, 1, 11, 89
3, 82659, Control_c, 1, 11, 91
3, 82683, Note_on_c, 1, 76, 76
3, 82683, Note_on_c, 1, 84, 76
3, 82685, Control_c, 1, 11, 93
3, 82711, Control_c, 1, 11, 95
3, 82737, Control_c, 1, 11, 97
3, 82763, Control_c, 1, 11, 99
3, 82773, Note_on_c, 1, 84, 0
3, 82773, Note_on_c, 1, 76, 0
3, 82789, Control_c, 1, 11, 101
3, 82803, Note_on_c, 1, 84, 76
3, 82803, Note_on_c, 1, 76, 76
3, 82992, Note_on_c, 1, 76, 0
3, 82992, Note_on_c, 1, 84, 0
3, 83043, Note_on_c, 1, 76, 76
3, 83043, Note_on_c, 1, 84, 76
3, 83133, Note_on_c, 1, 84, 0
3, 83133, Note_on_c, 1, 76, 0
3, 83163, Note_on_c, 1, 81, 76
3, 83163, Note_on_c, 1, 77, 76
3, 83163, Control_c, 1, 11, 122
3, 83186, Control_c, 1, 11, 120
3, 83210, Control_c, 1, 11, 118
3, 83234, Control_c, 1, 11, 116
3, 83258, Control_c, 1, 11, 114
3, 83282, Control_c, 1, 11, 112
3, 83306, Control_c, 1, 11, 110
3, 83330, Control_c, 1, 11, 108
3, 83354, Control_c, 1, 11, 106
3, 83378, Control_c, 1, 11, 104
3, 83402, Control_c, 1, 11, 102
3, 83523, Note_on_c, 1, 77, 0
3, 83523, Note_on_c, 1, 81, 0
3, 83523, Note_on_c, 1, 76, 76
3, 83523, Note_on_c, 1, 79, 76
3, 83748, Note_on_c, 1, 79, 0
3, 83748, Note_on_c, 1, 76, 0
3, 83763, Note_on_c, 1, 79, 76
3, 83763, Note_on_c, 1, 76, 76
3, 83823, Note_on_c, 1, 76, 0
3, 83823, Note_on_c, 1, 79, 0
3, 83883, Control_c, 1, 11, 122
3, 83883, Note_on_c, 1, 77, 76
3, 83883, Note_on_c, 1, 83, 76
3, 83906, Control_c, 1, 11, 120
3, 83930, Control_c, 1, 11, 118
3, 83954, Control_c, 1, 11, 116
3, 83978, Control_c, 1, 11, 114
3, 84002, Control_c, 1, 11, 112
3, 84026, Control_c, 1, 11, 110
3, 84050, Control_c, 1, 11, 108
3, 84074, Control_c, 1, 11, 106
3, 84098, Control_c, 1, 11, 104
3, 84122, Control_c, 1, 11, 102
3, 84243, Note_on_c, 1, 83, 0
3, 84243, Note_on_c, 1, 77, 0
3, 84243, Note_on_c, 1, 84, 76
3, 84243, Note_on_c, 1, 76, 76
3, 84468, Note_on_c, 1, 76, 0
3, 84468, Note_on_c, 1, 84, 0
3, 84483, Note_on_c, 1, 76, 76
3, 84483, Note_on_c, 1, 84, 76
3, 84543, Note_on_c, 1, 84, 0
3, 84543, Note_on_c, 1, 76, 0
3, 84603, Note_on_c, 1, 77, 76
3, 84603, Control_c, 1, 11, 122
3, 84603, Note_on_c, 1, 81, 76
3, 84626, Control_c, 1, 11, 120
3, 84650, Control_c, 1, 11, 118
3, 84674, Control_c, 1, 11, 116
3, 84698, Control_c, 1, 11, 114
3, 84722, Control_c, 1, 11, 112
3, 84746, Control_c, 1, 11, 110
3, 84770, Control_c, 1, 11, 108
3, 84794, Control_c, 1, 11, 106
3, 84818, Control_c, 1, 11, 104
3, 84842, Control_c, 1, 11, 102
3, 84963, Note_on_c, 1, 81, 0
3, 84963, Note_on_c, 1, 77, 0
3, 84963, Note_on_c, 1, 79, 76
3, 84963, Note_on_c, 1, 76, 76
3, 85188, Note_on_c, 1, 76, 0
3, 85188, Note_on_c, 1, 79, 0
3, 85203, Note_on_c, 1, 79, 76
3, 85203, Note_on_c, 1, 76, 76
3, 85263, Note_on_c, 1, 76, 0
3, 85263, Note_on_c, 1, 79, 0
3, 85323, Control_c, 1, 11, 122
3, 85323, Note_on_c, 1, 83, 76
3, 85323, Note_on_c, 1, 77, 76
3, 85346, Control_c, 1, 11, 120
3, 85370, Control_c, 1, 11, 118
3, 85394, Control_c, 1, 11, 116
3, 85418, Control_c, 1, 11, 114
3, 85442, Control_c, 1, 11, 112
3, 85466, Control_c, 1, 11, 110
3, 85490, Control_c, 1, 11, 108
3, 85514, Control_c, 1, 11, 106
3, 85538, Control_c, 1, 11, 104
3, 85562, Control_c, 1, 11, 102
3, 85683, Note_on_c, 1, 77, 0
3, 85683, Note_on_c, 1, 83, 0
3, 85683, Note_on_c, 1, 76, 76
3, 85683, Note_on_c, 1, 84, 76
3, 85743, Note_on_c, 1, 84, 0
3, 85743, Note_on_c, 1, 76, 0
3, 85803, Note_on_c, 1, 83, 76
3, 85803, Note_on_c, 1, 77, 76
3, 85803, Control_c, 1, 11, 122
3, 85826, Control_c, 1, 11, 120
3, 85850, Control_c, 1, 11, 118
3, 85874, Control_c, 1, 11, 116
3, 85898, Control_c, 1, 11, 114
3, 85922, Control_c, 1, 11, 112
3, 85946, Control_c, 1, 11, 110
3, 85970, Control_c, 1, 11, 108
3, 85994, Control_c, 1, 11, 106
3, 86018, Control_c, 1, 11, 104
3, 86028, Note_on_c, 1, 77, 0
3, 86028, Note_on_c, 1, 83, 0
3, 86042, Control_c, 1, 11, 102
3, 86043, Note_on_c, 1, 84, 76
3, 86043, Note_on_c, 1, 76, 76
3, 86103, Note_on_c, 1, 76, 0
3, 86103, Note_on_c, 1, 84, 0
3, 86163, Note_on_c, 1, 83, 76
3, 86163, Control_c, 1, 11, 122
3, 86163, Note_on_c, 1, 77, 76
3, 86186, Control_c, 1, 11, 120
3, 86210, Control_c, 1, 11, 118
3, 86234, Control_c, 1, 11, 116
3, 86258, Control_c, 1, 11, 114
3, 86282, Control_c, 1, 11, 112
3, 86306, Control_c, 1, 11, 110
3, 86330, Control_c, 1, 11, 108
3, 86354, Control_c, 1, 11, 106
3, 86378, Control_c, 1, 11, 104
3, 86388, Note_on_c, 1, 77, 0
3, 86388, Note_on_c, 1, 83, 0
3, 86402, Control_c, 1, 11, 102
3, 86403, Note_on_c, 1, 77, 76
3, 86403, Note_on_c, 1, 86, 76
3, 86403, Control_c, 1, 11, 122
3, 86426, Control_c, 1, 11, 120
3, 86450, Control_c, 1, 11, 118
3, 86474, Control_c, 1, 11, 116
3, 86498, Control_c, 1, 11, 114
3, 86522, Control_c, 1, 11, 112
3, 86546, Control_c, 1, 11, 110
3, 86570, Control_c, 1, 11, 108
3, 86594, Control_c, 1, 11, 106
3, 86618, Control_c, 1, 11, 104
3, 86642, Control_c, 1, 11, 102
3, 86763, Note_on_c, 1, 86, 0
3, 86763, Note_on_c, 1, 77, 0
3, 86763, Note_on_c, 1, 84, 76
3, 86763, Note_on_c, 1, 76, 76
3, 86883, Note_on_c, 1, 76, 0
3, 86883, Note_on_c, 1, 84, 0
3, 94323, Note_on_c, 1, 76, 76
3, 94323, Control_c, 1, 11, 47
3, 94323, Note_on_c, 1, 84, 76
3, 94349, Control_c, 1, 11, 49
3, 94375, Control_c, 1, 11, 51
3, 94401, Control_c, 1, 11, 53
3, 94427, Control_c, 1, 11, 55
3, 94453, Control_c, 1, 11, 57
3, 94480, Control_c, 1, 11, 59
3, 94506, Control_c, 1, 11, 61
3, 94512, Note_on_c, 1, 84, 0
3, 94512, Note_on_c, 1, 76, 0
3, 94532, Control_c, 1, 11, 63
3, 94558, Control_c, 1, 11, 65
3, 94563, Note_on_c, 1, 76, 76
3, 94563, Note_on_c, 1, 84, 76
3, 94584, Control_c, 1, 11, 67
3, 94611, Control_c, 1, 11, 69
3, 94637, Control_c, 1, 11, 71
3, 94653, Note_on_c, 1, 84, 0
3, 94653, Note_on_c, 1, 76, 0
3, 94663, Control_c, 1, 11, 73
3, 94683, Note_on_c, 1, 84, 76
3, 94683, Note_on_c, 1, 76, 76
3, 94689, Control_c, 1, 11, 75
3, 94715, Control_c, 1, 11, 77
3, 94741, Control_c, 1, 11, 79
3, 94768, Control_c, 1, 11, 81
3, 94794, Control_c, 1, 11, 83
3, 94820, Control_c, 1, 11, 85
3, 94846, Control_c, 1, 11, 87
3, 94872, Note_on_c, 1, 76, 0
3, 94872, Note_on_c, 1, 84, 0
3, 94872, Control_c, 1, 11, 89
3, 94899, Control_c, 1, 11, 91
3, 94923, Note_on_c, 1, 76, 76
3, 94923, Note_on_c, 1, 84, 76
3, 94925, Control_c, 1, 11, 93
3, 94951, Control_c, 1, 11, 95
3, 94977, Control_c, 1, 11, 97
3, 95003, Control_c, 1, 11, 99
3, 95013, Note_on_c, 1, 84, 0
3, 95013, Note_on_c, 1, 76, 0
3, 95029, Control_c, 1, 11, 101
3, 95043, Note_on_c, 1, 84, 76
3, 95043, Note_on_c, 1, 76, 76
3, 95232, Note_on_c, 1, 76, 0
3, 95232, Note_on_c, 1, 84, 0
3, 95283, Note_on_c, 1, 76, 76
3, 95283, Note_on_c, 1, 84, 76
3, 95373, Note_on_c, 1, 84, 0
3, 95373, Note_on_c, 1, 76, 0
3, 95403, Note_on_c, 1, 81, 76
3, 95403, Note_on_c, 1, 77, 76
3, 95403, Control_c, 1, 11, 122
3, 95426, Control_c, 1, 11, 120
3, 95450, Control_c, 1, 11, 118
3, 95474, Control_c, 1, 11, 116
3, 95498, Control_c, 1, 11, 114
3, 95522, Control_c, 1, 11, 112
3, 95546, Control_c, 1, 11, 110
3, 95570, Control_c, 1, 11, 108
3, 95594, Control_c, 1, 11, 106
3, 95618, Control_c, 1, 11, 104
3, 95642, Control_c, 1, 11, 102
3, 95763, Note_on_c, 1, 77, 0
3, 95763, Note_on_c, 1, 81, 0
3, 95763, Note_on_c, 1, 76, 76
3, 95763, Note_on_c, 1, 79, 76
3, 95988, Note_on_c, 1, 79, 0
3, 95988, Note_on_c, 1, 76, 0
3, 96003, Note_on_c, 1, 79, 76
3, 96003, Note_on_c, 1, 76, 76
3, 96063, Note_on_c, 1, 76, 0
3, 96063, Note_on_c, 1, 79, 0
3, 96123, Control_c, 1, 11, 122
3, 96123, Note_on_c, 1, 77, 76
3, 96123, Note_on_c, 1, 83, 76
3, 96146, Control_c, 1, 11, 120
3, 96170, Control_c, 1, 11, 118
3, 96194, Control_c, 1, 11, 116
3, 96218, Control_c, 1, 11, 114
3, 96242, Control_c, 1, 11, 112
3, 96266, Control_c, 1, 11, 110
3, 96290, Control_c, 1, 11, 108
3, 96314, Control_c, 1, 11, 106
3, 96338, Control_c, 1, 11, 104
3, 96362, Control_c, 1, 11, 102
3, 96483, Note_on_c, 1, 83, 0
3, 96483, Note_on_c, 1, 77, 0
3, 96483, Note_on_c, 1, 84, 76
3, 96483, Note_on_c, 1, 76, 76
3, 96708, Note_on_c, 1, 76, 0
3, 96708, Note_on_c, 1, 84, 0
3, 96723, Note_on_c, 1, 76, 76
3, 96723, Note_on_c, 1, 84, 76
3, 96783, Note_on_c, 1, 84, 0
3, 96783, Note_on_c, 1, 76, 0
3, 96843, Note_on_c, 1, 77, 76
3, 96843, Control_c, 1, 11, 122
3, 96843, Note_on_c, 1, 81, 76
3, 96866, Control_c, 1, 11, 120
3, 96890, Control_c, 1, 11, 118
3, 96914, Control_c, 1, 11, 116
3, 96938, Control_c, 1, 11, 114
3, 96962, Control_c, 1, 11, 112
3, 96986, Control_c, 1, 11, 110
3, 97010, Control_c, 1, 11, 108
3, 97034, Control_c, 1, 11, 106
3, 97058, Control_c, 1, 11, 104
3, 97082, Control_c, 1, 11, 102
3, 97203, Note_on_c, 1, 81, 0
3, 97203, Note_on_c, 1, 77, 0
3, 97203, Note_on_c, 1, 79, 76
3, 97203, Note_on_c, 1, 76, 76
3, 97428, Note_on_c, 1, 76, 0
3, 97428, Note_on_c, 1, 79, 0
3, 97443, Note_on_c, 1, 76, 76
3, 97443, Note_on_c, 1, 79, 76
3, 97503, Note_on_c, 1, 79, 0
3, 97503, Note_on_c, 1, 76, 0
3, 97563, Note_on_c, 1, 77, 76
3, 97563, Control_c, 1, 11, 122
3, 97563, Note_on_c, 1, 83, 76
3, 97586, Control_c, 1, 11, 120
3, 97610, Control_c, 1, 11, 118
3, 97634, Control_c, 1, 11, 116
3, 97658, Control_c, 1, 11, 114
3, 97682, Control_c, 1, 11, 112
3, 97706, Control_c, 1, 11, 110
3, 97730, Control_c, 1, 11, 108
3, 97754, Control_c, 1, 11, 106
3, 97778, Control_c, 1, 11, 104
3, 97802, Control_c, 1, 11, 102
3, 97923, Note_on_c, 1, 83, 0
3, 97923, Note_on_c, 1, 77, 0
3, 97923, Note_on_c, 1, 84, 76
3, 97923, Note_on_c, 1, 76, 76
3, 97983, Note_on_c, 1, 76, 0
3, 97983, Note_on_c, 1, 84, 0
3, 98043, Note_on_c, 1, 83, 76
3, 98043, Note_on_c, 1, 77, 76
3, 98043, Control_c, 1, 11, 122
3, 98066, Control_c, 1, 11, 120
3, 98090, Control_c, 1, 11, 118
3, 98114, Control_c, 1, 11, 116
3, 98138, Control_c, 1, 11, 114
3, 98162, Control_c, 1, 11, 112
3, 98186, Control_c, 1, 11, 110
3, 98210, Control_c, 1, 11, 108
3, 98234, Control_c, 1, 11, 106
3, 98258, Control_c, 1, 11, 104
3, 98268, Note_on_c, 1, 77, 0
3, 98268, Note_on_c, 1, 83, 0
3, 98282, Control_c, 1, 11, 102
3, 98283, Note_on_c, 1, 76, 76
3, 98283, Note_on_c, 1, 84, 76
3, 98343, Note_on_c, 1, 84, 0
3, 98343, Note_on_c, 1, 76, 0
3, 98403, Control_c, 1, 11, 122
3, 98403, Note_on_c, 1, 77, 76
3, 98403, Note_on_c, 1, 83, 76
3, 98426, Control_c, 1, 11, 120
3, 98450, Control_c, 1, 11, 118
3, 98474, Control_c, 1, 11, 116
3, 98498, Control_c, 1, 11, 114
3, 98522, Control_c, 1, 11, 112
3, 98546, Control_c, 1, 11, 110
3, 98570, Control_c, 1, 11, 108
3, 98594, Control_c, 1, 11, 106
3, 98618, Control_c, 1, 11, 104
3, 98628, Note_on_c, 1, 83, 0
3, 98628, Note_on_c, 1, 77, 0
3, 98642, Control_c, 1, 11, 102
3, 98643, Note_on_c, 1, 77, 76
3, 98643, Note_on_c, 1, 86, 76
3, 98643, Control_c, 1, 11, 122
3, 98666, Control_c, 1, 11, 120
3, 98690, Control_c, 1, 11, 118
3, 98714, Control_c, 1, 11, 116
3, 98738, Control_c, 1, 11, 114
3, 98762, Control_c, 1, 11, 112
3, 98786, Control_c, 1, 11, 110
3, 98810, Control_c, 1, 11, 108
3, 98834, Control_c, 1, 11, 106
3, 98858, Control_c, 1, 11, 104
3, 98882, Control_c, 1, 11, 102
3, 99003, Note_on_c, 1, 86, 0
3, 99003, Note_on_c, 1, 77, 0
3, 99003, Note_on_c, 1, 76, 76
3, 99003, Note_on_c, 1, 84, 76
3, 99123, Note_on_c, 1, 84, 0
3, 99123, Note_on_c, 1, 76, 0
3, 101403, Control_c, 1, 11, 77
3, 101403, Note_on_c, 1, 73, 98
3, 101463, Note_on_c, 1, 73, 0
3, 101523, Note_on_c, 1, 74, 98
3, 101583, Note_on_c, 1, 74, 0
3, 101643, Note_on_c, 1, 74, 98
3, 101703, Note_on_c, 1, 74, 0
3, 101763, Note_on_c, 1, 74, 98
3, 101823, Note_on_c, 1, 74, 0
3, 101883, Note_on_c, 1, 67, 98
3, 102003, Note_on_c, 1, 67, 0
3, 104283, Note_on_c, 1, 73, 98
3, 104283, Control_c, 1, 11, 77
3, 104343, Note_on_c, 1, 73, 0
3, 104403, Note_on_c, 1, 74, 98
3, 104463, Note_on_c, 1, 74, 0
3, 104523, Note_on_c, 1, 74, 98
3, 104583, Note_on_c, 1, 74, 0
3, 104643, Note_on_c, 1, 74, 98
3, 104703, Note_on_c, 1, 74, 0
3, 104763, Note_on_c, 1, 67, 98
3, 104883, Note_on_c, 1, 67, 0
3, 105963, Control_c, 1, 11, 77
3, 105963, Note_on_c, 1, 80, 98
3, 105963, Note_on_c, 1, 75, 98
3, 106023, Note_on_c, 1, 75, 0
3, 106023, Note_on_c, 1, 80, 0
3, 106083, Note_on_c, 1, 77, 98
3, 106083, Note_on_c, 1, 80, 98
3, 106143, Note_on_c, 1, 80, 0
3, 106143, Note_on_c, 1, 77, 0
3, 106203, Note_on_c, 1, 70, 98
3, 106203, Note_on_c, 1, 80, 98
3, 106323, Note_on_c, 1, 80, 0
3, 106323, Note_on_c, 1, 70, 0
3, 106323, Note_on_c, 1, 79, 98
3, 106443, Note_on_c, 1, 79, 0
3, 107403, Control_c, 1, 11, 77
3, 107403, Note_on_c, 1, 72, 98
3, 107403, Note_on_c, 1, 77, 98
3, 107463, Note_on_c, 1, 77, 0
3, 107463, Note_on_c, 1, 72, 0
3, 107523, Note_on_c, 1, 74, 98
3, 107523, Note_on_c, 1, 77, 98
3, 107583, Note_on_c, 1, 77, 0
3, 107583, Note_on_c, 1, 74, 0
3, 107643, Note_on_c, 1, 77, 98
3, 107643, Note_on_c, 1, 67, 98
3, 107763, Note_on_c, 1, 67, 0
3, 107763, Note_on_c, 1, 77, 0
3, 107763, Note_on_c, 1, 75, 98
3, 107883, Note_on_c, 1, 75, 0
3, 108723, Note_on_c, 1, 70, 98
3, 108723, Note_on_c, 1, 73, 98
3, 108723, Control_c, 1, 11, 86
3, 108783, Note_on_c, 1, 73, 0
3, 108783, Note_on_c, 1, 70, 0
3, 108843, Note_on_c, 1, 70, 98
3, 108843, Note_on_c, 1, 73, 98
3, 108903, Note_on_c, 1, 73, 0
3, 108903, Note_on_c, 1, 70, 0
3, 108963, Note_on_c, 1, 70, 98
3, 108963, Note_on_c, 1, 73, 98
3, 109023, Note_on_c, 1, 73, 0
3, 109023, Note_on_c, 1, 70, 0
3, 109083, Note_on_c, 1, 73, 98
3, 109083, Note_on_c, 1, 70, 98
3, 109143, Note_on_c, 1, 70, 0
3, 109143, Note_on_c, 1, 73, 0
3, 109203, Note_on_c, 1, 70, 98
3, 109203, Note_on_c, 1, 73, 98
3, 109263, Note_on_c, 1, 73, 0
3, 109263, Note_on_c, 1, 70, 0
3, 109323, Note_on_c, 1, 72, 98
3, 109323, Note_on_c, 1, 75, 98
3, 109383, Note_on_c, 1, 75, 0
3, 109383, Note_on_c, 1, 72, 0
3, 109443, Control_c, 1, 11, 98
3, 109443, Note_on_c, 1, 73, 98
3, 109443, Note_on_c, 1, 77, 98
3, 109461, Control_c, 1, 11, 97
3, 109479, Control_c, 1, 11, 95
3, 109497, Control_c, 1, 11, 93
3, 109515, Control_c, 1, 11, 91
3, 109533, Control_c, 1, 11, 89
3, 109551, Control_c, 1, 11, 87
3, 109563, Note_on_c, 1, 77, 0
3, 109563, Note_on_c, 1, 73, 0
3, 109803, Control_c, 1, 11, 98
3, 109803, Note_on_c, 1, 70, 98
3, 109803, Note_on_c, 1, 75, 98
3, 109821, Control_c, 1, 11, 97
3, 109839, Control_c, 1, 11, 95
3, 109857, Control_c, 1, 11, 93
3, 109875, Control_c, 1, 11, 91
3, 109893, Control_c, 1, 11, 89
3, 109911, Control_c, 1, 11, 87
3, 109923, Note_on_c, 1, 75, 0
3, 109923, Note_on_c, 1, 70, 0
3, 110163, Control_c, 1, 11, 98
3, 110163, Note_on_c, 1, 77, 98
3, 110163, Note_on_c, 1, 73, 98
3, 110181, Control_c, 1, 11, 97
3, 110199, Control_c, 1, 11, 95
3, 110217, Control_c, 1, 11, 93
3, 110235, Control_c, 1, 11, 91
3, 110253, Control_c, 1, 11, 89
3, 110271, Control_c, 1, 11, 87
3, 110283, Note_on_c, 1, 73, 0
3, 110283, Note_on_c, 1, 77, 0
3, 110523, Control_c, 1, 11, 98
3, 110523, Note_on_c, 1, 75, 98
3, 110523, Note_on_c, 1, 72, 98
3, 110541, Control_c, 1, 11, 97
3, 110559, Control_c, 1, 11, 95
3, 110577, Control_c, 1, 11, 93
3, 110595, Control_c, 1, 11, 91
3, 110613, Control_c, 1, 11, 89
3, 110631, Control_c, 1, 11, 87
3, 110643, Note_on_c, 1, 72, 0
3, 110643, Note_on_c, 1, 75, 0
3, 114723, Note_on_c, 1, 69, 113
3, 114723, Control_c, 1, 11, 42
3, 114843, Note_on_c, 1, 69, 0
3, 114843, Note_on_c, 1, 70, 113
3, 115083, Control_c, 1, 11, 42
3, 115100, Control_c, 1, 11, 39
3, 115118, Control_c, 1, 11, 36
3, 115136, Control_c, 1, 11, 33
3, 115154, Control_c, 1, 11, 30
3, 115172, Control_c, 1, 11, 27
3, 115190, Control_c, 1, 11, 24
3, 115203, Note_on_c, 1, 70, 0
3, 116163, Note_on_c, 1, 70, 113
3, 116163, Control_c, 1, 11, 42
3, 116283, Note_on_c, 1, 70, 0
3, 116283, Note_on_c, 1, 71, 113
3, 116523, Control_c, 1, 11, 42
3, 116540, Control_c, 1, 11, 39
3, 116558, Control_c, 1, 11, 36
3, 116576, Control_c, 1, 11, 33
3, 116594, Control_c, 1, 11, 30
3, 116612, Control_c, 1, 11, 27
3, 116630, Control_c, 1, 11, 24
3, 116643, Note_on_c, 1, 71, 0
3, 117963, Control_c, 1, 11, 77
3, 117963, Note_on_c, 1, 64, 98
3, 117963, Note_on_c, 1, 67, 98
3, 118023, Note_on_c, 1, 67, 0
3, 118023, Note_on_c, 1, 64, 0
3, 118083, Note_on_c, 1, 69, 98
3, 118083, Note_on_c, 1, 65, 98
3, 118203, Note_on_c, 1, 65, 0
3, 118203, Note_on_c, 1, 69, 0
3, 118323, Note_on_c, 1, 71, 98
3, 118323, Note_on_c, 1, 62, 98
3, 118383, Note_on_c, 1, 62, 0
3, 118383, Note_on_c, 1, 71, 0
3, 118443, Note_on_c, 1, 72, 98
3, 118443, Note_on_c, 1, 64, 98
3, 118563, Note_on_c, 1, 64, 0
3, 118563, Note_on_c, 1, 72, 0
3, 118683, Note_on_c, 1, 74, 98
3, 118683, Note_on_c, 1, 67, 98
3, 118743, Note_on_c, 1, 67, 0
3, 118743, Note_on_c, 1, 74, 0
3, 118803, Note_on_c, 1, 76, 98
3, 118803, Note_on_c, 1, 67, 98
3, 118863, Note_on_c, 1, 67, 0
3, 118863, Note_on_c, 1, 76, 0
3, 118923, Note_on_c, 1, 67, 98
3, 118923, Note_on_c, 1, 76, 98
3, 118983, Note_on_c, 1, 76, 0
3, 118983, Note_on_c, 1, 67, 0
3, 119043, Note_on_c, 1, 78, 98
3, 119043, Note_on_c, 1, 72, 98
3, 119103, Note_on_c, 1, 72, 0
3, 119103, Note_on_c, 1, 78, 0
3, 119163, Note_on_c, 1, 67, 98
3, 119163, Note_on_c, 1, 79, 98
3, 119163, Control_c, 1, 11, 86
3, 120363, Note_on_c, 1, 79, 0
3, 120363, Note_on_c, 1, 67, 0
3, 120363, Note_on_c, 1, 76, 98
3, 120363, Note_on_c, 1, 72, 98
3, 120423, Note_on_c, 1, 72, 0
3, 120423, Note_on_c, 1, 76, 0
3, 120483, Note_on_c, 1, 72, 98
3, 120483, Note_on_c, 1, 78, 98
3, 120543, Note_on_c, 1, 78, 0
3, 120543, Note_on_c, 1, 72, 0
3, 120603, Note_on_c, 1, 79, 98
3, 120603, Note_on_c, 1, 67, 98
3, 120603, Control_c, 1, 11, 98
3, 120620, Control_c, 1, 11, 97
3, 120638, Control_c, 1, 11, 95
3, 120656, Control_c, 1, 11, 93
3, 120674, Control_c, 1, 11, 91
3, 120692, Control_c, 1, 11, 89
3, 120710, Control_c, 1, 11, 87
3, 120723, Note_on_c, 1, 67, 0
3, 120723, Note_on_c, 1, 79, 0
3, 120843, Note_on_c, 1, 72, 98
3, 120843, Note_on_c, 1, 60, 98
3, 120903, Note_on_c, 1, 60, 0
3, 120903, Note_on_c, 1, 72, 0
3, 120963, Note_on_c, 1, 74, 98
3, 120963, Note_on_c, 1, 62, 98
3, 121023, Note_on_c, 1, 62, 0
3, 121023, Note_on_c, 1, 74, 0
3, 121083, Note_on_c, 1, 70, 98
3, 121083, Note_on_c, 1, 74, 98
3, 121143, Note_on_c, 1, 74, 0
3, 121143, Note_on_c, 1, 70, 0
3, 121203, Note_on_c, 1, 70, 98
3, 121203, Note_on_c, 1, 76, 98
3, 121263, Note_on_c, 1, 76, 0
3, 121263, Note_on_c, 1, 70, 0
3, 121323, Note_on_c, 1, 77, 98
3, 121323, Note_on_c, 1, 72, 98
3, 121323, Control_c, 1, 11, 98
3, 121340, Control_c, 1, 11, 97
3, 121358, Control_c, 1, 11, 95
3, 121376, Control_c, 1, 11, 93
3, 121394, Control_c, 1, 11, 91
3, 121412, Control_c, 1, 11, 89
3, 121430, Control_c, 1, 11, 87
3, 121443, Note_on_c, 1, 72, 0
3, 121443, Note_on_c, 1, 77, 0
3, 121563, Note_on_c, 1, 72, 98
3, 121563, Note_on_c, 1, 79, 98
3, 121623, Note_on_c, 1, 79, 0
3, 121623, Note_on_c, 1, 72, 0
3, 121683, Note_on_c, 1, 72, 98
3, 121683, Note_on_c, 1, 81, 98
3, 121743, Note_on_c, 1, 81, 0
3, 121743, Note_on_c, 1, 72, 0
3, 121803, Note_on_c, 1, 77, 98
3, 121803, Note_on_c, 1, 81, 98
3, 121863, Note_on_c, 1, 81, 0
3, 121863, Note_on_c, 1, 77, 0
3, 121923, Note_on_c, 1, 77, 98
3, 121923, Note_on_c, 1, 83, 98
3, 121983, Note_on_c, 1, 83, 0
3, 121983, Note_on_c, 1, 77, 0
3, 122043, Note_on_c, 1, 84, 98
3, 122043, Note_on_c, 1, 79, 98
3, 122103, Note_on_c, 1, 79, 0
3, 122163, Note_on_c, 1, 76, 98
3, 122223, Note_on_c, 1, 76, 0
3, 122263, Note_on_c, 1, 84, 0
3, 122283, Note_on_c, 1, 81, 98
3, 122283, Note_on_c, 1, 72, 98
3, 122343, Note_on_c, 1, 72, 0
3, 122343, Note_on_c, 1, 81, 0
3, 122403, Note_on_c, 1, 79, 98
3, 122403, Note_on_c, 1, 76, 98
3, 122463, Note_on_c, 1, 76, 0
3, 122523, Note_on_c, 1, 72, 98
3, 122583, Note_on_c, 1, 72, 0
3, 122623, Note_on_c, 1, 79, 0
3, 122643, Note_on_c, 1, 71, 98
3, 122643, Note_on_c, 1, 65, 98
3, 122703, Note_on_c, 1, 65, 0
3, 122703, Note_on_c, 1, 71, 0
3, 122763, Note_on_c, 1, 64, 98
3, 122763, Note_on_c, 1, 72, 98
3, 122883, Note_on_c, 1, 72, 0
3, 122883, Note_on_c, 1, 64, 0
3, 123723, Note_on_c, 1, 72, 78
3, 123783, Note_on_c, 1, 72, 0
3, 123843, Control_c, 1, 11, 98
3, 123843, Note_on_c, 1, 74, 78
3, 123866, Control_c, 1, 11, 97
3, 123890, Control_c, 1, 11, 96
3, 123914, Control_c, 1, 11, 95
3, 123938, Control_c, 1, 11, 94
3, 123962, Control_c, 1, 11, 92
3, 123986, Control_c, 1, 11, 91
3, 124010, Control_c, 1, 11, 90
3, 124034, Control_c, 1, 11, 89
3, 124058, Control_c, 1, 11, 87
3, 124082, Control_c, 1, 11, 86
3, 124083, Note_on_c, 1, 74, 0
3, 124083, Note_on_c, 1, 71, 78
3, 124183, Note_on_c, 1, 71, 0
3, 124203, Note_on_c, 1, 72, 78
3, 124263, Note_on_c, 1, 72, 0
3, 124563, Note_on_c, 1, 72, 78
3, 124623, Note_on_c, 1, 72, 0
3, 124683, Control_c, 1, 11, 98
3, 124683, Note_on_c, 1, 74, 78
3, 124700, Control_c, 1, 11, 97
3, 124718, Control_c, 1, 11, 95
3, 124736, Control_c, 1, 11, 93
3, 124754, Control_c, 1, 11, 91
3, 124772, Control_c, 1, 11, 89
3, 124790, Control_c, 1, 11, 87
3, 124803, Note_on_c, 1, 74, 0
3, 124803, Note_on_c, 1, 71, 78
3, 124903, Note_on_c, 1, 71, 0
3, 124923, Note_on_c, 1, 72, 78
3, 124983, Note_on_c, 1, 72, 0
3, 125283, Note_on_c, 1, 72, 78
3, 125343, Note_on_c, 1, 72, 0
3, 125403, Note_on_c, 1, 74, 78
3, 125403, Control_c, 1, 11, 98
3, 125420, Control_c, 1, 11, 97
3, 125438, Control_c, 1, 11, 95
3, 125456, Control_c, 1, 11, 93
3, 125474, Control_c, 1, 11, 91
3, 125492, Control_c, 1, 11, 89
3, 125510, Control_c, 1, 11, 87
3, 125523, Note_on_c, 1, 74, 0
3, 125523, Note_on_c, 1, 71, 78
3, 125526, Control_c, 1, 11, 86
3, 125540, Control_c, 1, 11, 83
3, 125557, Control_c, 1, 11, 80
3, 125574, Control_c, 1, 11, 77
3, 125587, Control_c, 1, 11, 74
3, 125604, Control_c, 1, 11, 71
3, 125621, Control_c, 1, 11, 68
3, 125623, Note_on_c, 1, 71, 0
3, 125638, Control_c, 1, 11, 65
3, 125643, Note_on_c, 1, 64, 98
3, 125643, Control_c, 1, 11, 47
3, 125643, Note_on_c, 1, 72, 98
3, 125703, Note_on_c, 1, 72, 0
3, 125703, Note_on_c, 1, 64, 0
3, 126003, Note_on_c, 1, 77, 63
3, 126003, Note_on_c, 1, 71, 63
3, 126123, Note_on_c, 1, 71, 0
3, 126123, Note_on_c, 1, 77, 0
3, 126363, Note_on_c, 1, 76, 66
3, 126363, Note_on_c, 1, 72, 66
3, 126483, Note_on_c, 1, 72, 0
3, 126483, Note_on_c, 1, 76, 0
3, 126723, Note_on_c, 1, 74, 70
3, 126723, Note_on_c, 1, 71, 70
3, 126843, Note_on_c, 1, 71, 0
3, 126843, Note_on_c, 1, 74, 0
3, 129243, Control_c, 1, 11, 86
3, 129243, Note_on_c, 1, 72, 98
3, 129363, Note_on_c, 1, 72, 0
3, 129363, Note_on_c, 1, 76, 98
3, 129483, Note_on_c, 1, 76, 0
3, 129483, Note_on_c, 1, 79, 98
3, 129483, Control_c, 1, 11, 98
3, 129500, Control_c, 1, 11, 97
3, 129518, Control_c, 1, 11, 95
3, 129536, Control_c, 1, 11, 93
3, 129554, Control_c, 1, 11, 91
3, 129572, Control_c, 1, 11, 89
3, 129590, Control_c, 1, 11, 87
3, 129703, Note_on_c, 1, 79, 0
3, 129723, Note_on_c, 1, 77, 98
3, 129783, Note_on_c, 1, 77, 0
3, 129843, Note_on_c, 1, 74, 98
3, 129903, Note_on_c, 1, 74, 0
3, 129963, Note_on_c, 1, 72, 98
3, 130023, Note_on_c, 1, 72, 0
3, 130683, Control_c, 1, 121, 0
3, 130683, End_track
4, 0, Start_track
4, 0, MIDI_port, 0
4, 0, Title_t, "2 Clarinetti in C"
4, 0, Program_c, 2, 71
4, 0, Control_c, 2, 10, 65
4, 5, Control_c, 2, 121, 0
4, 10, Program_c, 2, 71
4, 15, Pitch_bend_c, 2, 8192
4, 20, Control_c, 2, 11, 77
4, 25, Control_c, 2, 7, 127
4, 30, Control_c, 2, 91, 54
4, 35, Control_c, 2, 93, 0
4, 40, Control_c, 2, 10, 65
4, 2765, Note_on_c, 2, 73, 98
4, 2765, Control_c, 2, 11, 77
4, 2825, Note_on_c, 2, 73, 0
4, 2885, Note_on_c, 2, 74, 98
4, 2945, Note_on_c, 2, 74, 0
4, 3005, Note_on_c, 2, 74, 98
4, 3065, Note_on_c, 2, 74, 0
4, 3125, Note_on_c, 2, 74, 98
4, 3185, Note_on_c, 2, 74, 0
4, 3245, Note_on_c, 2, 67, 98
4, 3365, Note_on_c, 2, 67, 0
4, 5645, Note_on_c, 2, 73, 98
4, 5645, Control_c, 2, 11, 77
4, 5705, Note_on_c, 2, 73, 0
4, 5765, Note_on_c, 2, 74, 98
4, 5825, Note_on_c, 2, 74, 0
4, 5885, Note_on_c, 2, 74, 98
4, 5945, Note_on_c, 2, 74, 0
4, 6005, Note_on_c, 2, 74, 98
4, 6065, Note_on_c, 2, 74, 0
4, 6125, Note_on_c, 2, 67, 98
4, 6245, Note_on_c, 2, 67, 0
4, 19325, Note_on_c, 2, 67, 98
4, 19325, Note_on_c, 2, 64, 98
4, 19325, Control_c, 2, 11, 77
4, 19385, Note_on_c, 2, 64, 0
4, 19385, Note_on_c, 2, 67, 0
4, 19445, Note_on_c, 2, 65, 98
4, 19445, Note_on_c, 2, 69, 98
4, 19565, Note_on_c, 2, 69, 0
4, 19565, Note_on_c, 2, 65, 0
4, 19685, Note_on_c, 2, 71, 98
4, 19685, Note_on_c, 2, 62, 98
4, 19745, Note_on_c, 2, 62, 0
4, 19745, Note_on_c, 2, 71, 0
4, 19805, Note_on_c, 2, 64, 98
4, 19805, Note_on_c, 2, 72, 98
4, 19925, Note_on_c, 2, 72, 0
4, 19925, Note_on_c, 2, 64, 0
4, 20045, Note_on_c, 2, 74, 98
4, 20045, Note_on_c, 2, 67, 98
4, 20105, Note_on_c, 2, 67, 0
4, 20105, Note_on_c, 2, 74, 0
4, 20165, Note_on_c, 2, 76, 98
4, 20165, Note_on_c, 2, 67, 98
4, 20225, Note_on_c, 2, 67, 0
4, 20225, Note_on_c, 2, 76, 0
4, 20285, Note_on_c, 2, 76, 98
4, 20285, Note_on_c, 2, 67, 98
4, 20345, Note_on_c, 2, 67, 0
4, 20345, Note_on_c, 2, 76, 0
4, 20405, Note_on_c, 2, 66, 98
4, 20405, Note_on_c, 2, 72, 98
4, 20465, Note_on_c, 2, 72, 0
4, 20465, Note_on_c, 2, 66, 0
4, 20525, Note_on_c, 2, 79, 98
4, 20525, Note_on_c, 2, 67, 98
4, 20525, Control_c, 2, 11, 86
4, 21725, Note_on_c, 2, 67, 0
4, 21725, Note_on_c, 2, 79, 0
4, 21725, Note_on_c, 2, 72, 98
4, 21725, Note_on_c, 2, 76, 98
4, 21785, Note_on_c, 2, 76, 0
4, 21785, Note_on_c, 2, 72, 0
4, 21845, Note_on_c, 2, 72, 98
4, 21845, Note_on_c, 2, 78, 98
4, 21905, Note_on_c, 2, 78, 0
4, 21905, Note_on_c, 2, 72, 0
4, 21965, Note_on_c, 2, 79, 98
4, 21965, Control_c, 2, 11, 98
4, 21965, Note_on_c, 2, 67, 98
4, 21982, Control_c, 2, 11, 97
4, 22000, Control_c, 2, 11, 95
4, 22018, Control_c, 2, 11, 93
4, 22036, Control_c, 2, 11, 91
4, 22054, Control_c, 2, 11, 89
4, 22072, Control_c, 2, 11, 87
4, 22085, Note_on_c, 2, 67, 0
4, 22085, Note_on_c, 2, 79, 0
4, 22205, Note_on_c, 2, 60, 98
4, 22205, Note_on_c, 2, 72, 98
4, 22265, Note_on_c, 2, 72, 0
4, 22265, Note_on_c, 2, 60, 0
4, 22325, Note_on_c, 2, 74, 98
4, 22325, Note_on_c, 2, 62, 98
4, 22385, Note_on_c, 2, 62, 0
4, 22385, Note_on_c, 2, 74, 0
4, 22445, Note_on_c, 2, 70, 98
4, 22445, Note_on_c, 2, 62, 98
4, 22505, Note_on_c, 2, 62, 0
4, 22505, Note_on_c, 2, 70, 0
4, 22565, Note_on_c, 2, 70, 98
4, 22565, Note_on_c, 2, 64, 98
4, 22625, Note_on_c, 2, 64, 0
4, 22625, Note_on_c, 2, 70, 0
4, 22685, Note_on_c, 2, 69, 98
4, 22685, Control_c, 2, 11, 98
4, 22685, Note_on_c, 2, 65, 98
4, 22702, Control_c, 2, 11, 97
4, 22720, Control_c, 2, 11, 95
4, 22738, Control_c, 2, 11, 93
4, 22756, Control_c, 2, 11, 91
4, 22774, Control_c, 2, 11, 89
4, 22792, Control_c, 2, 11, 87
4, 22805, Note_on_c, 2, 65, 0
4, 22805, Note_on_c, 2, 69, 0
4, 22925, Note_on_c, 2, 72, 98
4, 22925, Note_on_c, 2, 67, 98
4, 22985, Note_on_c, 2, 67, 0
4, 22985, Note_on_c, 2, 72, 0
4, 23045, Note_on_c, 2, 69, 98
4, 23045, Note_on_c, 2, 72, 98
4, 23105, Note_on_c, 2, 72, 0
4, 23105, Note_on_c, 2, 69, 0
4, 23165, Note_on_c, 2, 77, 98
4, 23165, Note_on_c, 2, 69, 98
4, 23225, Note_on_c, 2, 69, 0
4, 23225, Note_on_c, 2, 77, 0
4, 23285, Note_on_c, 2, 77, 98
4, 23285, Note_on_c, 2, 71, 98
4, 23345, Note_on_c, 2, 71, 0
4, 23345, Note_on_c, 2, 77, 0
4, 23405, Note_on_c, 2, 72, 98
4, 23465, Note_on_c, 2, 72, 0
4, 23525, Note_on_c, 2, 72, 98
4, 23525, Note_on_c, 2, 67, 98
4, 23585, Note_on_c, 2, 67, 0
4, 23585, Note_on_c, 2, 72, 0
4, 23645, Note_on_c, 2, 69, 98
4, 23645, Note_on_c, 2, 65, 98
4, 23705, Note_on_c, 2, 65, 0
4, 23705, Note_on_c, 2, 69, 0
4, 23765, Note_on_c, 2, 67, 98
4, 23765, Note_on_c, 2, 64, 98
4, 23985, Note_on_c, 2, 64, 0
4, 23985, Note_on_c, 2, 67, 0
4, 24005, Note_on_c, 2, 65, 98
4, 24005, Note_on_c, 2, 59, 98
4, 24065, Note_on_c, 2, 59, 0
4, 24065, Note_on_c, 2, 65, 0
4, 24125, Note_on_c, 2, 60, 98
4, 24125, Note_on_c, 2, 64, 98
4, 24245, Note_on_c, 2, 64, 0
4, 24245, Note_on_c, 2, 60, 0
4, 27005, Note_on_c, 2, 72, 98
4, 27005, Note_on_c, 2, 64, 98
4, 27005, Control_c, 2, 11, 47
4, 27125, Note_on_c, 2, 64, 0
4, 27125, Note_on_c, 2, 72, 0
4, 27365, Note_on_c, 2, 71, 63
4, 27365, Note_on_c, 2, 62, 63
4, 27485, Note_on_c, 2, 62, 0
4, 27485, Note_on_c, 2, 71, 0
4, 27725, Note_on_c, 2, 64, 66
4, 27725, Note_on_c, 2, 72, 66
4, 27845, Note_on_c, 2, 72, 0
4, 27845, Note_on_c, 2, 64, 0
4, 28085, Note_on_c, 2, 71, 70
4, 28085, Note_on_c, 2, 65, 70
4, 28205, Note_on_c, 2, 65, 0
4, 28205, Note_on_c, 2, 71, 0
4, 28445, Note_on_c, 2, 64, 74
4, 28445, Note_on_c, 2, 72, 74
4, 28445, Control_c, 2, 11, 47
4, 28481, Control_c, 2, 11, 48
4, 28517, Control_c, 2, 11, 49
4, 28553, Control_c, 2, 11, 50
4, 28565, Note_on_c, 2, 72, 0
4, 28565, Note_on_c, 2, 64, 0
4, 28589, Control_c, 2, 11, 51
4, 28625, Control_c, 2, 11, 52
4, 28661, Control_c, 2, 11, 53
4, 28697, Control_c, 2, 11, 54
4, 28733, Control_c, 2, 11, 55
4, 28769, Control_c, 2, 11, 56
4, 28805, Control_c, 2, 11, 57
4, 28805, Note_on_c, 2, 71, 78
4, 28805, Note_on_c, 2, 77, 78
4, 28841, Control_c, 2, 11, 58
4, 28877, Control_c, 2, 11, 59
4, 28913, Control_c, 2, 11, 60
4, 28925, Note_on_c, 2, 77, 0
4, 28925, Note_on_c, 2, 71, 0
4, 28949, Control_c, 2, 11, 61
4, 28985, Control_c, 2, 11, 62
4, 29021, Control_c, 2, 11, 62
4, 29057, Control_c, 2, 11, 63
4, 29093, Control_c, 2, 11, 63
4, 29129, Control_c, 2, 11, 64
4, 29165, Control_c, 2, 11, 65
4, 29165, Note_on_c, 2, 76, 82
4, 29165, Note_on_c, 2, 72, 82
4, 29201, Control_c, 2, 11, 65
4, 29237, Control_c, 2, 11, 66
4, 29273, Control_c, 2, 11, 66
4, 29285, Note_on_c, 2, 72, 0
4, 29285, Note_on_c, 2, 76, 0
4, 29309, Control_c, 2, 11, 67
4, 29345, Control_c, 2, 11, 68
4, 29381, Control_c, 2, 11, 68
4, 29417, Control_c, 2, 11, 69
4, 29453, Control_c, 2, 11, 70
4, 29489, Control_c, 2, 11, 70
4, 29525, Note_on_c, 2, 65, 86
4, 29525, Control_c, 2, 11, 71
4, 29525, Note_on_c, 2, 71, 86
4, 29561, Control_c, 2, 11, 71
4, 29597, Control_c, 2, 11, 72
4, 29633, Control_c, 2, 11, 73
4, 29645, Note_on_c, 2, 71, 0
4, 29645, Note_on_c, 2, 65, 0
4, 29669, Control_c, 2, 11, 73
4, 29705, Control_c, 2, 11, 74
4, 29741, Control_c, 2, 11, 74
4, 29777, Control_c, 2, 11, 75
4, 29813, Control_c, 2, 11, 76
4, 29849, Control_c, 2, 11, 76
4, 29885, Control_c, 2, 11, 77
4, 29885, Note_on_c, 2, 72, 90
4, 29885, Note_on_c, 2, 60, 90
4, 29945, Note_on_c, 2, 60, 0
4, 29945, Note_on_c, 2, 72, 0
4, 30005, Note_on_c, 2, 76, 91
4, 30005, Note_on_c, 2, 64, 91
4, 30065, Note_on_c, 2, 64, 0
4, 30065, Note_on_c, 2, 76, 0
4, 30125, Note_on_c, 2, 67, 92
4, 30125, Note_on_c, 2, 79, 92
4, 30125, Control_c, 2, 11, 89
4, 30143, Control_c, 2, 11, 87
4, 30161, Control_c, 2, 11, 86
4, 30179, Control_c, 2, 11, 84
4, 30197, Control_c, 2, 11, 82
4, 30215, Control_c, 2, 11, 80
4, 30233, Control_c, 2, 11, 78
4, 30345, Note_on_c, 2, 79, 0
4, 30345, Note_on_c, 2, 67, 0
4, 30365, Note_on_c, 2, 77, 95
4, 30365, Note_on_c, 2, 65, 95
4, 30425, Note_on_c, 2, 65, 0
4, 30425, Note_on_c, 2, 77, 0
4, 30485, Note_on_c, 2, 74, 96
4, 30485, Note_on_c, 2, 62, 96
4, 30545, Note_on_c, 2, 62, 0
4, 30545, Note_on_c, 2, 74, 0
4, 30605, Note_on_c, 2, 72, 98
4, 30605, Note_on_c, 2, 60, 98
4, 30605, Control_c, 2, 11, 86
4, 30665, Note_on_c, 2, 60, 0
4, 30665, Note_on_c, 2, 72, 0
4, 30725, Note_on_c, 2, 64, 98
4, 30725, Note_on_c, 2, 76, 98
4, 30785, Note_on_c, 2, 76, 0
4, 30785, Note_on_c, 2, 64, 0
4, 30845, Control_c, 2, 11, 98
4, 30845, Note_on_c, 2, 67, 98
4, 30845, Note_on_c, 2, 79, 98
4, 30862, Control_c, 2, 11, 97
4, 30880, Control_c, 2, 11, 95
4, 30898, Control_c, 2, 11, 93
4, 30916, Control_c, 2, 11, 91
4, 30934, Control_c, 2, 11, 89
4, 30952, Control_c, 2, 11, 87
4, 31065, Note_on_c, 2, 79, 0
4, 31065, Note_on_c, 2, 67, 0
4, 31085, Note_on_c, 2, 65, 98
4, 31085, Note_on_c, 2, 77, 98
4, 31145, Note_on_c, 2, 77, 0
4, 31145, Note_on_c, 2, 65, 0
4, 31205, Note_on_c, 2, 62, 98
4, 31205, Note_on_c, 2, 74, 98
4, 31265, Note_on_c, 2, 74, 0
4, 31265, Note_on_c, 2, 62, 0
4, 31325, Note_on_c, 2, 60, 98
4, 31325, Note_on_c, 2, 72, 98
4, 31385, Note_on_c, 2, 72, 0
4, 31385, Note_on_c, 2, 60, 0
4, 31445, Note_on_c, 2, 79, 98
4, 31445, Note_on_c, 2, 67, 98
4, 31505, Note_on_c, 2, 67, 0
4, 31505, Note_on_c, 2, 79, 0
4, 31565, Note_on_c, 2, 76, 98
4, 31565, Note_on_c, 2, 64, 98
4, 31625, Note_on_c, 2, 64, 0
4, 31625, Note_on_c, 2, 76, 0
4, 31685, Note_on_c, 2, 72, 98
4, 31685, Note_on_c, 2, 60, 98
4, 31745, Note_on_c, 2, 60, 0
4, 31745, Note_on_c, 2, 72, 0
4, 44885, Control_c, 2, 11, 77
4, 44885, Note_on_c, 2, 64, 98
4, 44885, Note_on_c, 2, 67, 98
4, 44945, Note_on_c, 2, 67, 0
4, 44945, Note_on_c, 2, 64, 0
4, 45005, Note_on_c, 2, 65, 98
4, 45005, Note_on_c, 2, 69, 98
4, 45125, Note_on_c, 2, 69, 0
4, 45125, Note_on_c, 2, 65, 0
4, 45245, Note_on_c, 2, 62, 98
4, 45245, Note_on_c, 2, 71, 98
4, 45305, Note_on_c, 2, 71, 0
4, 45305, Note_on_c, 2, 62, 0
4, 45365, Note_on_c, 2, 72, 98
4, 45365, Note_on_c, 2, 64, 98
4, 45485, Note_on_c, 2, 64, 0
4, 45485, Note_on_c, 2, 72, 0
4, 45605, Note_on_c, 2, 67, 98
4, 45605, Note_on_c, 2, 74, 98
4, 45665, Note_on_c, 2, 74, 0
4, 45665, Note_on_c, 2, 67, 0
4, 45725, Note_on_c, 2, 67, 98
4, 45725, Note_on_c, 2, 76, 98
4, 45785, Note_on_c, 2, 76, 0
4, 45785, Note_on_c, 2, 67, 0
4, 45845, Note_on_c, 2, 67, 98
4, 45845, Note_on_c, 2, 76, 98
4, 45905, Note_on_c, 2, 76, 0
4, 45905, Note_on_c, 2, 67, 0
4, 45965, Note_on_c, 2, 72, 98
4, 45965, Note_on_c, 2, 66, 98
4, 46025, Note_on_c, 2, 66, 0
4, 46025, Note_on_c, 2, 72, 0
4, 46085, Control_c, 2, 11, 86
4, 46085, Note_on_c, 2, 67, 98
4, 46085, Note_on_c, 2, 79, 98
4, 47285, Note_on_c, 2, 79, 0
4, 47285, Note_on_c, 2, 67, 0
4, 47285, Note_on_c, 2, 72, 98
4, 47285, Note_on_c, 2, 76, 98
4, 47345, Note_on_c, 2, 76, 0
4, 47345, Note_on_c, 2, 72, 0
4, 47405, Note_on_c, 2, 72, 98
4, 47405, Note_on_c, 2, 78, 98
4, 47465, Note_on_c, 2, 78, 0
4, 47465, Note_on_c, 2, 72, 0
4, 47525, Note_on_c, 2, 79, 98
4, 47525, Control_c, 2, 11, 98
4, 47525, Note_on_c, 2, 67, 98
4, 47542, Control_c, 2, 11, 97
4, 47560, Control_c, 2, 11, 95
4, 47578, Control_c, 2, 11, 93
4, 47596, Control_c, 2, 11, 91
4, 47614, Control_c, 2, 11, 89
4, 47632, Control_c, 2, 11, 87
4, 47645, Note_on_c, 2, 67, 0
4, 47645, Note_on_c, 2, 79, 0
4, 47765, Note_on_c, 2, 60, 98
4, 47765, Note_on_c, 2, 72, 98
4, 47825, Note_on_c, 2, 72, 0
4, 47825, Note_on_c, 2, 60, 0
4, 47885, Note_on_c, 2, 62, 98
4, 47885, Note_on_c, 2, 74, 98
4, 47945, Note_on_c, 2, 74, 0
4, 47945, Note_on_c, 2, 62, 0
4, 48005, Note_on_c, 2, 62, 98
4, 48005, Note_on_c, 2, 70, 98
4, 48065, Note_on_c, 2, 70, 0
4, 48065, Note_on_c, 2, 62, 0
4, 48125, Note_on_c, 2, 70, 98
4, 48125, Note_on_c, 2, 64, 98
4, 48185, Note_on_c, 2, 64, 0
4, 48185, Note_on_c, 2, 70, 0
4, 48245, Note_on_c, 2, 69, 98
4, 48245, Control_c, 2, 11, 98
4, 48245, Note_on_c, 2, 65, 98
4, 48262, Control_c, 2, 11, 97
4, 48280, Control_c, 2, 11, 95
4, 48298, Control_c, 2, 11, 93
4, 48316, Control_c, 2, 11, 91
4, 48334, Control_c, 2, 11, 89
4, 48352, Control_c, 2, 11, 87
4, 48365, Note_on_c, 2, 65, 0
4, 48365, Note_on_c, 2, 69, 0
4, 48485, Note_on_c, 2, 72, 98
4, 48485, Note_on_c, 2, 67, 98
4, 48545, Note_on_c, 2, 67, 0
4, 48545, Note_on_c, 2, 72, 0
4, 48605, Note_on_c, 2, 72, 98
4, 48605, Note_on_c, 2, 69, 98
4, 48665, Note_on_c, 2, 69, 0
4, 48665, Note_on_c, 2, 72, 0
4, 48725, Note_on_c, 2, 77, 98
4, 48725, Note_on_c, 2, 69, 98
4, 48785, Note_on_c, 2, 69, 0
4, 48785, Note_on_c, 2, 77, 0
4, 48845, Note_on_c, 2, 71, 98
4, 48845, Note_on_c, 2, 77, 98
4, 48905, Note_on_c, 2, 77, 0
4, 48905, Note_on_c, 2, 71, 0
4, 48965, Note_on_c, 2, 72, 98
4, 49025, Note_on_c, 2, 72, 0
4, 49085, Note_on_c, 2, 67, 98
4, 49085, Note_on_c, 2, 72, 98
4, 49145, Note_on_c, 2, 72, 0
4, 49145, Note_on_c, 2, 67, 0
4, 49205, Note_on_c, 2, 65, 98
4, 49205, Note_on_c, 2, 69, 98
4, 49265, Note_on_c, 2, 69, 0
4, 49265, Note_on_c, 2, 65, 0
4, 49325, Note_on_c, 2, 64, 98
4, 49325, Note_on_c, 2, 67, 98
4, 49545, Note_on_c, 2, 67, 0
4, 49545, Note_on_c, 2, 64, 0
4, 49565, Note_on_c, 2, 59, 98
4, 49565, Note_on_c, 2, 65, 98
4, 49625, Note_on_c, 2, 65, 0
4, 49625, Note_on_c, 2, 59, 0
4, 49685, Note_on_c, 2, 64, 98
4, 49685, Note_on_c, 2, 60, 98
4, 49805, Note_on_c, 2, 60, 0
4, 49805, Note_on_c, 2, 64, 0
4, 52565, Control_c, 2, 11, 47
4, 52565, Note_on_c, 2, 64, 98
4, 52565, Note_on_c, 2, 72, 98
4, 52685, Note_on_c, 2, 72, 0
4, 52685, Note_on_c, 2, 64, 0
4, 52925, Note_on_c, 2, 71, 63
4, 52925, Note_on_c, 2, 62, 63
4, 53045, Note_on_c, 2, 62, 0
4, 53045, Note_on_c, 2, 71, 0
4, 53285, Note_on_c, 2, 72, 66
4, 53285, Note_on_c, 2, 64, 66
4, 53405, Note_on_c, 2, 64, 0
4, 53405, Note_on_c, 2, 72, 0
4, 53645, Note_on_c, 2, 65, 70
4, 53645, Note_on_c, 2, 71, 70
4, 53765, Note_on_c, 2, 71, 0
4, 53765, Note_on_c, 2, 65, 0
4, 54005, Control_c, 2, 11, 47
4, 54005, Note_on_c, 2, 72, 74
4, 54005, Note_on_c, 2, 64, 74
4, 54041, Control_c, 2, 11, 48
4, 54077, Control_c, 2, 11, 49
4, 54113, Control_c, 2, 11, 50
4, 54125, Note_on_c, 2, 64, 0
4, 54125, Note_on_c, 2, 72, 0
4, 54149, Control_c, 2, 11, 51
4, 54185, Control_c, 2, 11, 52
4, 54221, Control_c, 2, 11, 53
4, 54257, Control_c, 2, 11, 54
4, 54293, Control_c, 2, 11, 55
4, 54329, Control_c, 2, 11, 56
4, 54365, Note_on_c, 2, 77, 78
4, 54365, Note_on_c, 2, 71, 78
4, 54365, Control_c, 2, 11, 57
4, 54401, Control_c, 2, 11, 58
4, 54437, Control_c, 2, 11, 59
4, 54473, Control_c, 2, 11, 60
4, 54485, Note_on_c, 2, 71, 0
4, 54485, Note_on_c, 2, 77, 0
4, 54509, Control_c, 2, 11, 61
4, 54545, Control_c, 2, 11, 62
4, 54581, Control_c, 2, 11, 62
4, 54617, Control_c, 2, 11, 63
4, 54653, Control_c, 2, 11, 63
4, 54689, Control_c, 2, 11, 64
4, 54725, Note_on_c, 2, 72, 82
4, 54725, Control_c, 2, 11, 65
4, 54725, Note_on_c, 2, 76, 82
4, 54761, Control_c, 2, 11, 65
4, 54797, Control_c, 2, 11, 66
4, 54833, Control_c, 2, 11, 66
4, 54845, Note_on_c, 2, 76, 0
4, 54845, Note_on_c, 2, 72, 0
4, 54869, Control_c, 2, 11, 67
4, 54905, Control_c, 2, 11, 68
4, 54941, Control_c, 2, 11, 68
4, 54977, Control_c, 2, 11, 69
4, 55013, Control_c, 2, 11, 70
4, 55049, Control_c, 2, 11, 70
4, 55085, Control_c, 2, 11, 71
4, 55085, Note_on_c, 2, 71, 86
4, 55085, Note_on_c, 2, 65, 86
4, 55121, Control_c, 2, 11, 71
4, 55157, Control_c, 2, 11, 72
4, 55193, Control_c, 2, 11, 73
4, 55205, Note_on_c, 2, 65, 0
4, 55205, Note_on_c, 2, 71, 0
4, 55229, Control_c, 2, 11, 73
4, 55265, Control_c, 2, 11, 74
4, 55301, Control_c, 2, 11, 74
4, 55337, Control_c, 2, 11, 75
4, 55373, Control_c, 2, 11, 76
4, 55409, Control_c, 2, 11, 76
4, 55445, Note_on_c, 2, 60, 90
4, 55445, Note_on_c, 2, 72, 90
4, 55445, Control_c, 2, 11, 77
4, 55505, Note_on_c, 2, 72, 0
4, 55505, Note_on_c, 2, 60, 0
4, 55565, Note_on_c, 2, 64, 91
4, 55565, Note_on_c, 2, 76, 91
4, 55625, Note_on_c, 2, 76, 0
4, 55625, Note_on_c, 2, 64, 0
4, 55685, Control_c, 2, 11, 89
4, 55685, Note_on_c, 2, 79, 92
4, 55685, Note_on_c, 2, 67, 92
4, 55703, Control_c, 2, 11, 87
4, 55721, Control_c, 2, 11, 86
4, 55739, Control_c, 2, 11, 84
4, 55757, Control_c, 2, 11, 82
4, 55775, Control_c, 2, 11, 80
4, 55793, Control_c, 2, 11, 78
4, 55905, Note_on_c, 2, 67, 0
4, 55905, Note_on_c, 2, 79, 0
4, 55925, Note_on_c, 2, 77, 95
4, 55925, Note_on_c, 2, 65, 95
4, 55985, Note_on_c, 2, 65, 0
4, 55985, Note_on_c, 2, 77, 0
4, 56045, Note_on_c, 2, 74, 96
4, 56045, Note_on_c, 2, 62, 96
4, 56105, Note_on_c, 2, 62, 0
4, 56105, Note_on_c, 2, 74, 0
4, 56165, Control_c, 2, 11, 86
4, 56165, Note_on_c, 2, 60, 98
4, 56165, Note_on_c, 2, 72, 98
4, 56225, Note_on_c, 2, 72, 0
4, 56225, Note_on_c, 2, 60, 0
4, 56285, Note_on_c, 2, 76, 98
4, 56285, Note_on_c, 2, 64, 98
4, 56345, Note_on_c, 2, 64, 0
4, 56345, Note_on_c, 2, 76, 0
4, 56405, Note_on_c, 2, 79, 98
4, 56405, Control_c, 2, 11, 98
4, 56405, Note_on_c, 2, 67, 98
4, 56422, Control_c, 2, 11, 97
4, 56440, Control_c, 2, 11, 95
4, 56458, Control_c, 2, 11, 93
4, 56476, Control_c, 2, 11, 91
4, 56494, Control_c, 2, 11, 89
4, 56512, Control_c, 2, 11, 87
4, 56625, Note_on_c, 2, 67, 0
4, 56625, Note_on_c, 2, 79, 0
4, 56645, Note_on_c, 2, 65, 98
4, 56645, Note_on_c, 2, 77, 98
4, 56705, Note_on_c, 2, 77, 0
4, 56705, Note_on_c, 2, 65, 0
4, 56765, Note_on_c, 2, 74, 98
4, 56765, Note_on_c, 2, 62, 98
4, 56825, Note_on_c, 2, 62, 0
4, 56825, Note_on_c, 2, 74, 0
4, 56885, Note_on_c, 2, 60, 98
4, 56885, Note_on_c, 2, 72, 98
4, 56945, Note_on_c, 2, 72, 0
4, 56945, Note_on_c, 2, 60, 0
4, 57005, Note_on_c, 2, 79, 98
4, 57005, Note_on_c, 2, 67, 98
4, 57065, Note_on_c, 2, 67, 0
4, 57065, Note_on_c, 2, 79, 0
4, 57125, Note_on_c, 2, 76, 98
4, 57125, Note_on_c, 2, 64, 98
4, 57185, Note_on_c, 2, 64, 0
4, 57185, Note_on_c, 2, 76, 0
4, 57245, Note_on_c, 2, 72, 98
4, 57245, Note_on_c, 2, 60, 98
4, 57305, Note_on_c, 2, 60, 0
4, 57305, Note_on_c, 2, 72, 0
4, 57485, Control_c, 2, 11, 37
4, 57589, Control_c, 2, 11, 38
4, 57605, Note_on_c, 2, 64, 70
4, 57605, Note_on_c, 2, 67, 70
4, 57693, Control_c, 2, 11, 39
4, 57794, Note_on_c, 2, 67, 0
4, 57794, Note_on_c, 2, 64, 0
4, 57797, Control_c, 2, 11, 40
4, 57845, Note_on_c, 2, 64, 70
4, 57845, Note_on_c, 2, 67, 70
4, 57901, Control_c, 2, 11, 41
4, 57935, Note_on_c, 2, 67, 0
4, 57935, Note_on_c, 2, 64, 0
4, 57965, Note_on_c, 2, 64, 70
4, 57965, Note_on_c, 2, 67, 70
4, 58005, Control_c, 2, 11, 42
4, 58109, Control_c, 2, 11, 43
4, 58154, Note_on_c, 2, 67, 0
4, 58154, Note_on_c, 2, 64, 0
4, 58205, Note_on_c, 2, 64, 70
4, 58205, Note_on_c, 2, 67, 70
4, 58213, Control_c, 2, 11, 44
4, 58295, Note_on_c, 2, 67, 0
4, 58295, Note_on_c, 2, 64, 0
4, 58317, Control_c, 2, 11, 45
4, 58325, Note_on_c, 2, 64, 70
4, 58325, Note_on_c, 2, 67, 70
4, 58421, Control_c, 2, 11, 46
4, 58514, Note_on_c, 2, 67, 0
4, 58514, Note_on_c, 2, 64, 0
4, 58525, Control_c, 2, 11, 47
4, 58565, Note_on_c, 2, 64, 70
4, 58565, Note_on_c, 2, 67, 70
4, 58629, Control_c, 2, 11, 48
4, 58655, Note_on_c, 2, 67, 0
4, 58655, Note_on_c, 2, 64, 0
4, 58685, Note_on_c, 2, 67, 70
4, 58685, Note_on_c, 2, 64, 70
4, 58733, Control_c, 2, 11, 49
4, 58837, Control_c, 2, 11, 50
4, 58874, Note_on_c, 2, 64, 0
4, 58874, Note_on_c, 2, 67, 0
4, 58925, Note_on_c, 2, 64, 66
4, 58925, Note_on_c, 2, 67, 66
4, 58941, Control_c, 2, 11, 51
4, 59015, Note_on_c, 2, 67, 0
4, 59015, Note_on_c, 2, 64, 0
4, 59045, Note_on_c, 2, 64, 70
4, 59045, Control_c, 2, 11, 42
4, 59045, Note_on_c, 2, 67, 70
4, 59093, Control_c, 2, 11, 43
4, 59141, Control_c, 2, 11, 44
4, 59189, Control_c, 2, 11, 45
4, 59237, Control_c, 2, 11, 46
4, 59285, Control_c, 2, 11, 47
4, 59333, Control_c, 2, 11, 48
4, 59381, Control_c, 2, 11, 49
4, 59429, Control_c, 2, 11, 50
4, 59477, Control_c, 2, 11, 51
4, 59525, Control_c, 2, 11, 52
4, 60465, Note_on_c, 2, 67, 0
4, 60465, Note_on_c, 2, 64, 0
4, 60485, Note_on_c, 2, 72, 70
4, 60485, Note_on_c, 2, 64, 70
4, 60674, Note_on_c, 2, 64, 0
4, 60674, Note_on_c, 2, 72, 0
4, 60725, Note_on_c, 2, 72, 83
4, 60725, Note_on_c, 2, 64, 83
4, 60815, Note_on_c, 2, 64, 0
4, 60815, Note_on_c, 2, 72, 0
4, 60845, Note_on_c, 2, 72, 83
4, 60845, Note_on_c, 2, 64, 83
4, 61034, Note_on_c, 2, 64, 0
4, 61034, Note_on_c, 2, 72, 0
4, 61085, Note_on_c, 2, 64, 83
4, 61085, Note_on_c, 2, 72, 83
4, 61175, Note_on_c, 2, 72, 0
4, 61175, Note_on_c, 2, 64, 0
4, 61205, Note_on_c, 2, 72, 83
4, 61205, Note_on_c, 2, 64, 83
4, 61394, Note_on_c, 2, 64, 0
4, 61394, Note_on_c, 2, 72, 0
4, 61445, Note_on_c, 2, 72, 83
4, 61445, Note_on_c, 2, 64, 83
4, 61535, Note_on_c, 2, 64, 0
4, 61535, Note_on_c, 2, 72, 0
4, 61565, Note_on_c, 2, 64, 83
4, 61565, Note_on_c, 2, 72, 83
4, 61754, Note_on_c, 2, 72, 0
4, 61754, Note_on_c, 2, 64, 0
4, 61805, Note_on_c, 2, 72, 78
4, 61805, Note_on_c, 2, 64, 78
4, 61895, Note_on_c, 2, 64, 0
4, 61895, Note_on_c, 2, 72, 0
4, 61925, Note_on_c, 2, 65, 83
4, 61925, Note_on_c, 2, 69, 83
4, 61925, Control_c, 2, 11, 42
4, 61973, Control_c, 2, 11, 43
4, 62021, Control_c, 2, 11, 44
4, 62069, Control_c, 2, 11, 45
4, 62117, Control_c, 2, 11, 46
4, 62165, Control_c, 2, 11, 47
4, 62213, Control_c, 2, 11, 48
4, 62261, Control_c, 2, 11, 49
4, 62309, Control_c, 2, 11, 50
4, 62357, Control_c, 2, 11, 51
4, 62405, Control_c, 2, 11, 52
4, 63345, Note_on_c, 2, 69, 0
4, 63345, Note_on_c, 2, 65, 0
4, 63365, Note_on_c, 2, 71, 70
4, 63365, Note_on_c, 2, 65, 70
4, 63485, Note_on_c, 2, 65, 0
4, 63485, Note_on_c, 2, 71, 0
4, 66125, Control_c, 2, 11, 37
4, 66229, Control_c, 2, 11, 38
4, 66245, Note_on_c, 2, 67, 70
4, 66245, Note_on_c, 2, 64, 70
4, 66333, Control_c, 2, 11, 39
4, 66434, Note_on_c, 2, 64, 0
4, 66434, Note_on_c, 2, 67, 0
4, 66437, Control_c, 2, 11, 40
4, 66485, Note_on_c, 2, 64, 70
4, 66485, Note_on_c, 2, 67, 70
4, 66541, Control_c, 2, 11, 41
4, 66575, Note_on_c, 2, 67, 0
4, 66575, Note_on_c, 2, 64, 0
4, 66605, Note_on_c, 2, 67, 70
4, 66605, Note_on_c, 2, 64, 70
4, 66645, Control_c, 2, 11, 42
4, 66749, Control_c, 2, 11, 43
4, 66794, Note_on_c, 2, 64, 0
4, 66794, Note_on_c, 2, 67, 0
4, 66845, Note_on_c, 2, 67, 70
4, 66845, Note_on_c, 2, 64, 70
4, 66853, Control_c, 2, 11, 44
4, 66935, Note_on_c, 2, 64, 0
4, 66935, Note_on_c, 2, 67, 0
4, 66957, Control_c, 2, 11, 45
4, 66965, Note_on_c, 2, 67, 70
4, 66965, Note_on_c, 2, 64, 70
4, 67061, Control_c, 2, 11, 46
4, 67154, Note_on_c, 2, 64, 0
4, 67154, Note_on_c, 2, 67, 0
4, 67165, Control_c, 2, 11, 47
4, 67205, Note_on_c, 2, 64, 70
4, 67205, Note_on_c, 2, 67, 70
4, 67269, Control_c, 2, 11, 48
4, 67295, Note_on_c, 2, 67, 0
4, 67295, Note_on_c, 2, 64, 0
4, 67325, Note_on_c, 2, 67, 70
4, 67325, Note_on_c, 2, 64, 70
4, 67373, Control_c, 2, 11, 49
4, 67477, Control_c, 2, 11, 50
4, 67514, Note_on_c, 2, 64, 0
4, 67514, Note_on_c, 2, 67, 0
4, 67565, Note_on_c, 2, 67, 66
4, 67565, Note_on_c, 2, 64, 66
4, 67581, Control_c, 2, 11, 51
4, 67655, Note_on_c, 2, 64, 0
4, 67655, Note_on_c, 2, 67, 0
4, 67685, Control_c, 2, 11, 42
4, 67685, Note_on_c, 2, 67, 70
4, 67685, Note_on_c, 2, 64, 70
4, 67733, Control_c, 2, 11, 43
4, 67781, Control_c, 2, 11, 44
4, 67829, Control_c, 2, 11, 45
4, 67877, Control_c, 2, 11, 46
4, 67925, Control_c, 2, 11, 47
4, 67973, Control_c, 2, 11, 48
4, 68021, Control_c, 2, 11, 49
4, 68069, Control_c, 2, 11, 50
4, 68117, Control_c, 2, 11, 51
4, 68165, Control_c, 2, 11, 52
4, 69105, Note_on_c, 2, 64, 0
4, 69105, Note_on_c, 2, 67, 0
4, 69125, Note_on_c, 2, 64, 70
4, 69125, Note_on_c, 2, 72, 70
4, 69314, Note_on_c, 2, 72, 0
4, 69314, Note_on_c, 2, 64, 0
4, 69365, Note_on_c, 2, 64, 83
4, 69365, Note_on_c, 2, 72, 83
4, 69455, Note_on_c, 2, 72, 0
4, 69455, Note_on_c, 2, 64, 0
4, 69485, Note_on_c, 2, 64, 83
4, 69485, Note_on_c, 2, 72, 83
4, 69674, Note_on_c, 2, 72, 0
4, 69674, Note_on_c, 2, 64, 0
4, 69725, Note_on_c, 2, 72, 83
4, 69725, Note_on_c, 2, 64, 83
4, 69815, Note_on_c, 2, 64, 0
4, 69815, Note_on_c, 2, 72, 0
4, 69845, Note_on_c, 2, 64, 83
4, 69845, Note_on_c, 2, 72, 83
4, 70034, Note_on_c, 2, 72, 0
4, 70034, Note_on_c, 2, 64, 0
4, 70085, Note_on_c, 2, 72, 83
4, 70085, Note_on_c, 2, 64, 83
4, 70175, Note_on_c, 2, 64, 0
4, 70175, Note_on_c, 2, 72, 0
4, 70205, Note_on_c, 2, 72, 83
4, 70205, Note_on_c, 2, 64, 83
4, 70394, Note_on_c, 2, 64, 0
4, 70394, Note_on_c, 2, 72, 0
4, 70445, Note_on_c, 2, 64, 78
4, 70445, Note_on_c, 2, 72, 78
4, 70535, Note_on_c, 2, 72, 0
4, 70535, Note_on_c, 2, 64, 0
4, 70565, Control_c, 2, 11, 42
4, 70565, Note_on_c, 2, 69, 83
4, 70565, Note_on_c, 2, 65, 83
4, 70613, Control_c, 2, 11, 43
4, 70661, Control_c, 2, 11, 44
4, 70709, Control_c, 2, 11, 45
4, 70757, Control_c, 2, 11, 46
4, 70805, Control_c, 2, 11, 47
4, 70853, Control_c, 2, 11, 48
4, 70901, Control_c, 2, 11, 49
4, 70949, Control_c, 2, 11, 50
4, 70997, Control_c, 2, 11, 51
4, 71045, Control_c, 2, 11, 52
4, 71985, Note_on_c, 2, 65, 0
4, 71985, Note_on_c, 2, 69, 0
4, 72005, Note_on_c, 2, 65, 70
4, 72005, Note_on_c, 2, 71, 70
4, 72125, Note_on_c, 2, 71, 0
4, 72125, Note_on_c, 2, 65, 0
4, 74765, Control_c, 2, 11, 37
4, 74765, Note_on_c, 2, 67, 88
4, 74885, Note_on_c, 2, 67, 0
4, 74885, Control_c, 2, 11, 47
4, 74885, Note_on_c, 2, 77, 88
4, 74885, Note_on_c, 2, 71, 88
4, 75074, Note_on_c, 2, 71, 0
4, 75074, Note_on_c, 2, 77, 0
4, 75125, Note_on_c, 2, 77, 88
4, 75125, Note_on_c, 2, 71, 88
4, 75215, Note_on_c, 2, 71, 0
4, 75215, Note_on_c, 2, 77, 0
4, 75245, Note_on_c, 2, 77, 88
4, 75245, Note_on_c, 2, 71, 88
4, 75434, Note_on_c, 2, 71, 0
4, 75434, Note_on_c, 2, 77, 0
4, 75485, Note_on_c, 2, 77, 88
4, 75485, Note_on_c, 2, 71, 88
4, 75575, Note_on_c, 2, 71, 0
4, 75575, Note_on_c, 2, 77, 0
4, 75605, Note_on_c, 2, 77, 74
4, 75605, Note_on_c, 2, 71, 74
4, 75725, Note_on_c, 2, 71, 0
4, 75725, Note_on_c, 2, 77, 0
4, 76325, Note_on_c, 2, 77, 88
4, 76325, Note_on_c, 2, 71, 88
4, 76514, Note_on_c, 2, 71, 0
4, 76514, Note_on_c, 2, 77, 0
4, 76565, Note_on_c, 2, 71, 88
4, 76565, Note_on_c, 2, 77, 88
4, 76655, Note_on_c, 2, 77, 0
4, 76655, Note_on_c, 2, 71, 0
4, 76685, Note_on_c, 2, 71, 88
4, 76685, Note_on_c, 2, 77, 88
4, 76874, Note_on_c, 2, 77, 0
4, 76874, Note_on_c, 2, 71, 0
4, 76925, Note_on_c, 2, 71, 88
4, 76925, Note_on_c, 2, 77, 88
4, 77015, Note_on_c, 2, 77, 0
4, 77015, Note_on_c, 2, 71, 0
4, 77045, Note_on_c, 2, 71, 74
4, 77045, Note_on_c, 2, 77, 74
4, 77165, Note_on_c, 2, 77, 0
4, 77165, Note_on_c, 2, 71, 0
4, 78005, Control_c, 2, 11, 47
4, 78005, Note_on_c, 2, 77, 88
4, 78005, Note_on_c, 2, 71, 88
4, 78095, Note_on_c, 2, 71, 0
4, 78095, Note_on_c, 2, 77, 0
4, 78101, Control_c, 2, 11, 46
4, 78125, Note_on_c, 2, 71, 74
4, 78125, Note_on_c, 2, 77, 74
4, 78197, Control_c, 2, 11, 45
4, 78215, Note_on_c, 2, 77, 0
4, 78215, Note_on_c, 2, 71, 0
4, 78293, Control_c, 2, 11, 44
4, 78389, Control_c, 2, 11, 43
4, 78485, Control_c, 2, 11, 42
4, 78581, Control_c, 2, 11, 41
4, 78677, Control_c, 2, 11, 40
4, 78725, Note_on_c, 2, 77, 88
4, 78725, Note_on_c, 2, 71, 88
4, 78773, Control_c, 2, 11, 39
4, 78815, Note_on_c, 2, 71, 0
4, 78815, Note_on_c, 2, 77, 0
4, 78845, Note_on_c, 2, 71, 74
4, 78845, Note_on_c, 2, 77, 74
4, 78869, Control_c, 2, 11, 38
4, 78935, Note_on_c, 2, 77, 0
4, 78935, Note_on_c, 2, 71, 0
4, 78965, Control_c, 2, 11, 37
4, 79061, Control_c, 2, 11, 36
4, 79157, Control_c, 2, 11, 35
4, 79253, Control_c, 2, 11, 34
4, 79349, Control_c, 2, 11, 33
4, 79445, Control_c, 2, 11, 32
4, 79445, Note_on_c, 2, 77, 88
4, 79445, Note_on_c, 2, 71, 88
4, 79535, Note_on_c, 2, 71, 0
4, 79535, Note_on_c, 2, 77, 0
4, 79565, Note_on_c, 2, 77, 74
4, 79565, Note_on_c, 2, 71, 74
4, 79655, Note_on_c, 2, 71, 0
4, 79655, Note_on_c, 2, 77, 0
4, 81245, Control_c, 2, 11, 47
4, 81245, Note_on_c, 2, 67, 76
4, 81365, Note_on_c, 2, 67, 0
4, 81365, Note_on_c, 2, 76, 76
4, 81365, Note_on_c, 2, 72, 76
4, 81554, Note_on_c, 2, 72, 0
4, 81554, Note_on_c, 2, 76, 0
4, 81605, Note_on_c, 2, 76, 76
4, 81605, Note_on_c, 2, 72, 76
4, 81695, Note_on_c, 2, 72, 0
4, 81695, Note_on_c, 2, 76, 0
4, 81725, Note_on_c, 2, 76, 76
4, 81725, Note_on_c, 2, 72, 76
4, 81914, Note_on_c, 2, 72, 0
4, 81914, Note_on_c, 2, 76, 0
4, 81965, Note_on_c, 2, 76, 76
4, 81965, Note_on_c, 2, 72, 76
4, 82055, Note_on_c, 2, 72, 0
4, 82055, Note_on_c, 2, 76, 0
4, 82085, Control_c, 2, 11, 47
4, 82085, Note_on_c, 2, 72, 76
4, 82085, Note_on_c, 2, 76, 76
4, 82111, Control_c, 2, 11, 49
4, 82137, Control_c, 2, 11, 51
4, 82163, Control_c, 2, 11, 53
4, 82189, Control_c, 2, 11, 55
4, 82215, Control_c, 2, 11, 57
4, 82242, Control_c, 2, 11, 59
4, 82268, Control_c, 2, 11, 61
4, 82274, Note_on_c, 2, 76, 0
4, 82274, Note_on_c, 2, 72, 0
4, 82294, Control_c, 2, 11, 63
4, 82320, Control_c, 2, 11, 65
4, 82325, Note_on_c, 2, 72, 76
4, 82325, Note_on_c, 2, 76, 76
4, 82346, Control_c, 2, 11, 67
4, 82373, Control_c, 2, 11, 69
4, 82399, Control_c, 2, 11, 71
4, 82415, Note_on_c, 2, 76, 0
4, 82415, Note_on_c, 2, 72, 0
4, 82425, Control_c, 2, 11, 73
4, 82445, Note_on_c, 2, 72, 76
4, 82445, Note_on_c, 2, 76, 76
4, 82451, Control_c, 2, 11, 75
4, 82477, Control_c, 2, 11, 77
4, 82503, Control_c, 2, 11, 79
4, 82530, Control_c, 2, 11, 81
4, 82556, Control_c, 2, 11, 83
4, 82582, Control_c, 2, 11, 85
4, 82608, Control_c, 2, 11, 87
4, 82634, Note_on_c, 2, 76, 0
4, 82634, Note_on_c, 2, 72, 0
4, 82634, Control_c, 2, 11, 89
4, 82661, Control_c, 2, 11, 91
4, 82685, Note_on_c, 2, 72, 76
4, 82685, Note_on_c, 2, 76, 76
4, 82687, Control_c, 2, 11, 93
4, 82713, Control_c, 2, 11, 95
4, 82739, Control_c, 2, 11, 97
4, 82765, Control_c, 2, 11, 99
4, 82775, Note_on_c, 2, 76, 0
4, 82775, Note_on_c, 2, 72, 0
4, 82791, Control_c, 2, 11, 101
4, 82805, Note_on_c, 2, 76, 76
4, 82805, Note_on_c, 2, 72, 76
4, 82994, Note_on_c, 2, 72, 0
4, 82994, Note_on_c, 2, 76, 0
4, 83045, Note_on_c, 2, 76, 76
4, 83045, Note_on_c, 2, 72, 76
4, 83135, Note_on_c, 2, 72, 0
4, 83135, Note_on_c, 2, 76, 0
4, 83165, Note_on_c, 2, 81, 76
4, 83165, Note_on_c, 2, 72, 76
4, 83165, Control_c, 2, 11, 122
4, 83188, Control_c, 2, 11, 120
4, 83212, Control_c, 2, 11, 118
4, 83236, Control_c, 2, 11, 116
4, 83260, Control_c, 2, 11, 114
4, 83284, Control_c, 2, 11, 112
4, 83308, Control_c, 2, 11, 110
4, 83332, Control_c, 2, 11, 108
4, 83356, Control_c, 2, 11, 106
4, 83380, Control_c, 2, 11, 104
4, 83404, Control_c, 2, 11, 102
4, 83525, Note_on_c, 2, 72, 0
4, 83525, Note_on_c, 2, 81, 0
4, 83525, Note_on_c, 2, 76, 76
4, 83525, Note_on_c, 2, 79, 76
4, 83750, Note_on_c, 2, 79, 0
4, 83750, Note_on_c, 2, 76, 0
4, 83765, Note_on_c, 2, 76, 76
4, 83765, Note_on_c, 2, 79, 76
4, 83825, Note_on_c, 2, 79, 0
4, 83825, Note_on_c, 2, 76, 0
4, 83885, Note_on_c, 2, 71, 76
4, 83885, Note_on_c, 2, 77, 76
4, 83885, Control_c, 2, 11, 122
4, 83908, Control_c, 2, 11, 120
4, 83932, Control_c, 2, 11, 118
4, 83956, Control_c, 2, 11, 116
4, 83980, Control_c, 2, 11, 114
4, 84004, Control_c, 2, 11, 112
4, 84028, Control_c, 2, 11, 110
4, 84052, Control_c, 2, 11, 108
4, 84076, Control_c, 2, 11, 106
4, 84100, Control_c, 2, 11, 104
4, 84124, Control_c, 2, 11, 102
4, 84245, Note_on_c, 2, 77, 0
4, 84245, Note_on_c, 2, 71, 0
4, 84245, Note_on_c, 2, 76, 76
4, 84245, Note_on_c, 2, 72, 76
4, 84470, Note_on_c, 2, 72, 0
4, 84470, Note_on_c, 2, 76, 0
4, 84485, Note_on_c, 2, 76, 76
4, 84485, Note_on_c, 2, 72, 76
4, 84545, Note_on_c, 2, 72, 0
4, 84545, Note_on_c, 2, 76, 0
4, 84605, Note_on_c, 2, 81, 76
4, 84605, Note_on_c, 2, 72, 76
4, 84605, Control_c, 2, 11, 122
4, 84628, Control_c, 2, 11, 120
4, 84652, Control_c, 2, 11, 118
4, 84676, Control_c, 2, 11, 116
4, 84700, Control_c, 2, 11, 114
4, 84724, Control_c, 2, 11, 112
4, 84748, Control_c, 2, 11, 110
4, 84772, Control_c, 2, 11, 108
4, 84796, Control_c, 2, 11, 106
4, 84820, Control_c, 2, 11, 104
4, 84844, Control_c, 2, 11, 102
4, 84965, Note_on_c, 2, 72, 0
4, 84965, Note_on_c, 2, 81, 0
4, 84965, Note_on_c, 2, 79, 76
4, 84965, Note_on_c, 2, 76, 76
4, 85190, Note_on_c, 2, 76, 0
4, 85190, Note_on_c, 2, 79, 0
4, 85205, Note_on_c, 2, 79, 76
4, 85205, Note_on_c, 2, 76, 76
4, 85265, Note_on_c, 2, 76, 0
4, 85265, Note_on_c, 2, 79, 0
4, 85325, Note_on_c, 2, 71, 76
4, 85325, Note_on_c, 2, 77, 76
4, 85325, Control_c, 2, 11, 122
4, 85348, Control_c, 2, 11, 120
4, 85372, Control_c, 2, 11, 118
4, 85396, Control_c, 2, 11, 116
4, 85420, Control_c, 2, 11, 114
4, 85444, Control_c, 2, 11, 112
4, 85468, Control_c, 2, 11, 110
4, 85492, Control_c, 2, 11, 108
4, 85516, Control_c, 2, 11, 106
4, 85540, Control_c, 2, 11, 104
4, 85564, Control_c, 2, 11, 102
4, 85685, Note_on_c, 2, 77, 0
4, 85685, Note_on_c, 2, 71, 0
4, 85685, Note_on_c, 2, 76, 76
4, 85685, Note_on_c, 2, 72, 76
4, 85745, Note_on_c, 2, 72, 0
4, 85745, Note_on_c, 2, 76, 0
4, 85805, Note_on_c, 2, 71, 76
4, 85805, Control_c, 2, 11, 122
4, 85805, Note_on_c, 2, 77, 76
4, 85828, Control_c, 2, 11, 120
4, 85852, Control_c, 2, 11, 118
4, 85876, Control_c, 2, 11, 116
4, 85900, Control_c, 2, 11, 114
4, 85924, Control_c, 2, 11, 112
4, 85948, Control_c, 2, 11, 110
4, 85972, Control_c, 2, 11, 108
4, 85996, Control_c, 2, 11, 106
4, 86020, Control_c, 2, 11, 104
4, 86030, Note_on_c, 2, 77, 0
4, 86030, Note_on_c, 2, 71, 0
4, 86044, Control_c, 2, 11, 102
4, 86045, Note_on_c, 2, 76, 76
4, 86045, Note_on_c, 2, 72, 76
4, 86105, Note_on_c, 2, 72, 0
4, 86105, Note_on_c, 2, 76, 0
4, 86165, Note_on_c, 2, 77, 76
4, 86165, Note_on_c, 2, 71, 76
4, 86165, Control_c, 2, 11, 122
4, 86188, Control_c, 2, 11, 120
4, 86212, Control_c, 2, 11, 118
4, 86236, Control_c, 2, 11, 116
4, 86260, Control_c, 2, 11, 114
4, 86284, Control_c, 2, 11, 112
4, 86308, Control_c, 2, 11, 110
4, 86332, Control_c, 2, 11, 108
4, 86356, Control_c, 2, 11, 106
4, 86380, Control_c, 2, 11, 104
4, 86390, Note_on_c, 2, 71, 0
4, 86390, Note_on_c, 2, 77, 0
4, 86404, Control_c, 2, 11, 102
4, 86405, Note_on_c, 2, 74, 76
4, 86405, Control_c, 2, 11, 122
4, 86405, Note_on_c, 2, 65, 76
4, 86428, Control_c, 2, 11, 120
4, 86452, Control_c, 2, 11, 118
4, 86476, Control_c, 2, 11, 116
4, 86500, Control_c, 2, 11, 114
4, 86524, Control_c, 2, 11, 112
4, 86548, Control_c, 2, 11, 110
4, 86572, Control_c, 2, 11, 108
4, 86596, Control_c, 2, 11, 106
4, 86620, Control_c, 2, 11, 104
4, 86644, Control_c, 2, 11, 102
4, 86765, Note_on_c, 2, 65, 0
4, 86765, Note_on_c, 2, 74, 0
4, 86765, Note_on_c, 2, 72, 76
4, 86765, Note_on_c, 2, 64, 76
4, 86885, Note_on_c, 2, 64, 0
4, 86885, Note_on_c, 2, 72, 0
4, 87005, Note_on_c, 2, 67, 88
4, 87005, Control_c, 2, 11, 37
4, 87125, Note_on_c, 2, 67, 0
4, 87125, Note_on_c, 2, 71, 88
4, 87125, Control_c, 2, 11, 47
4, 87125, Note_on_c, 2, 77, 88
4, 87314, Note_on_c, 2, 77, 0
4, 87314, Note_on_c, 2, 71, 0
4, 87365, Note_on_c, 2, 71, 88
4, 87365, Note_on_c, 2, 77, 88
4, 87455, Note_on_c, 2, 77, 0
4, 87455, Note_on_c, 2, 71, 0
4, 87485, Note_on_c, 2, 71, 88
4, 87485, Note_on_c, 2, 77, 88
4, 87674, Note_on_c, 2, 77, 0
4, 87674, Note_on_c, 2, 71, 0
4, 87725, Note_on_c, 2, 71, 88
4, 87725, Note_on_c, 2, 77, 88
4, 87815, Note_on_c, 2, 77, 0
4, 87815, Note_on_c, 2, 71, 0
4, 87845, Note_on_c, 2, 71, 74
4, 87845, Note_on_c, 2, 77, 74
4, 87965, Note_on_c, 2, 77, 0
4, 87965, Note_on_c, 2, 71, 0
4, 88565, Note_on_c, 2, 77, 88
4, 88565, Note_on_c, 2, 71, 88
4, 88754, Note_on_c, 2, 71, 0
4, 88754, Note_on_c, 2, 77, 0
4, 88805, Note_on_c, 2, 77, 88
4, 88805, Note_on_c, 2, 71, 88
4, 88895, Note_on_c, 2, 71, 0
4, 88895, Note_on_c, 2, 77, 0
4, 88925, Note_on_c, 2, 77, 88
4, 88925, Note_on_c, 2, 71, 88
4, 89114, Note_on_c, 2, 71, 0
4, 89114, Note_on_c, 2, 77, 0
4, 89165, Note_on_c, 2, 77, 88
4, 89165, Note_on_c, 2, 71, 88
4, 89255, Note_on_c, 2, 71, 0
4, 89255, Note_on_c, 2, 77, 0
4, 89285, Note_on_c, 2, 77, 74
4, 89285, Note_on_c, 2, 71, 74
4, 89405, Note_on_c, 2, 71, 0
4, 89405, Note_on_c, 2, 77, 0
4, 90245, Note_on_c, 2, 71, 88
4, 90245, Control_c, 2, 11, 47
4, 90245, Note_on_c, 2, 77, 88
4, 90335, Note_on_c, 2, 77, 0
4, 90335, Note_on_c, 2, 71, 0
4, 90341, Control_c, 2, 11, 46
4, 90365, Note_on_c, 2, 77, 74
4, 90365, Note_on_c, 2, 71, 74
4, 90437, Control_c, 2, 11, 45
4, 90455, Note_on_c, 2, 71, 0
4, 90455, Note_on_c, 2, 77, 0
4, 90533, Control_c, 2, 11, 44
4, 90629, Control_c, 2, 11, 43
4, 90725, Control_c, 2, 11, 42
4, 90821, Control_c, 2, 11, 41
4, 90917, Control_c, 2, 11, 40
4, 90965, Note_on_c, 2, 71, 88
4, 90965, Note_on_c, 2, 77, 88
4, 91013, Control_c, 2, 11, 39
4, 91055, Note_on_c, 2, 77, 0
4, 91055, Note_on_c, 2, 71, 0
4, 91085, Note_on_c, 2, 77, 74
4, 91085, Note_on_c, 2, 71, 74
4, 91109, Control_c, 2, 11, 38
4, 91175, Note_on_c, 2, 71, 0
4, 91175, Note_on_c, 2, 77, 0
4, 91205, Control_c, 2, 11, 37
4, 91301, Control_c, 2, 11, 36
4, 91397, Control_c, 2, 11, 35
4, 91493, Control_c, 2, 11, 34
4, 91589, Control_c, 2, 11, 33
4, 91685, Note_on_c, 2, 71, 88
4, 91685, Note_on_c, 2, 77, 88
4, 91685, Control_c, 2, 11, 32
4, 91775, Note_on_c, 2, 77, 0
4, 91775, Note_on_c, 2, 71, 0
4, 91805, Note_on_c, 2, 71, 88
4, 91805, Note_on_c, 2, 77, 88
4, 91895, Note_on_c, 2, 77, 0
4, 91895, Note_on_c, 2, 71, 0
4, 93485, Control_c, 2, 11, 47
4, 93485, Note_on_c, 2, 67, 76
4, 93605, Note_on_c, 2, 67, 0
4, 93605, Note_on_c, 2, 76, 76
4, 93605, Note_on_c, 2, 72, 76
4, 93794, Note_on_c, 2, 72, 0
4, 93794, Note_on_c, 2, 76, 0
4, 93845, Note_on_c, 2, 76, 76
4, 93845, Note_on_c, 2, 72, 76
4, 93935, Note_on_c, 2, 72, 0
4, 93935, Note_on_c, 2, 76, 0
4, 93965, Note_on_c, 2, 76, 76
4, 93965, Note_on_c, 2, 72, 76
4, 94154, Note_on_c, 2, 72, 0
4, 94154, Note_on_c, 2, 76, 0
4, 94205, Note_on_c, 2, 76, 76
4, 94205, Note_on_c, 2, 72, 76
4, 94295, Note_on_c, 2, 72, 0
4, 94295, Note_on_c, 2, 76, 0
4, 94325, Control_c, 2, 11, 47
4, 94325, Note_on_c, 2, 72, 76
4, 94325, Note_on_c, 2, 76, 76
4, 94351, Control_c, 2, 11, 49
4, 94377, Control_c, 2, 11, 51
4, 94403, Control_c, 2, 11, 53
4, 94429, Control_c, 2, 11, 55
4, 94455, Control_c, 2, 11, 57
4, 94482, Control_c, 2, 11, 59
4, 94508, Control_c, 2, 11, 61
4, 94514, Note_on_c, 2, 76, 0
4, 94514, Note_on_c, 2, 72, 0
4, 94534, Control_c, 2, 11, 63
4, 94560, Control_c, 2, 11, 65
4, 94565, Note_on_c, 2, 72, 76
4, 94565, Note_on_c, 2, 76, 76
4, 94586, Control_c, 2, 11, 67
4, 94613, Control_c, 2, 11, 69
4, 94639, Control_c, 2, 11, 71
4, 94655, Note_on_c, 2, 76, 0
4, 94655, Note_on_c, 2, 72, 0
4, 94665, Control_c, 2, 11, 73
4, 94685, Note_on_c, 2, 72, 76
4, 94685, Note_on_c, 2, 76, 76
4, 94691, Control_c, 2, 11, 75
4, 94717, Control_c, 2, 11, 77
4, 94743, Control_c, 2, 11, 79
4, 94770, Control_c, 2, 11, 81
4, 94796, Control_c, 2, 11, 83
4, 94822, Control_c, 2, 11, 85
4, 94848, Control_c, 2, 11, 87
4, 94874, Note_on_c, 2, 76, 0
4, 94874, Note_on_c, 2, 72, 0
4, 94874, Control_c, 2, 11, 89
4, 94901, Control_c, 2, 11, 91
4, 94925, Note_on_c, 2, 72, 76
4, 94925, Note_on_c, 2, 76, 76
4, 94927, Control_c, 2, 11, 93
4, 94953, Control_c, 2, 11, 95
4, 94979, Control_c, 2, 11, 97
4, 95005, Control_c, 2, 11, 99
4, 95015, Note_on_c, 2, 76, 0
4, 95015, Note_on_c, 2, 72, 0
4, 95031, Control_c, 2, 11, 101
4, 95045, Note_on_c, 2, 76, 76
4, 95045, Note_on_c, 2, 72, 76
4, 95234, Note_on_c, 2, 72, 0
4, 95234, Note_on_c, 2, 76, 0
4, 95285, Note_on_c, 2, 72, 76
4, 95285, Note_on_c, 2, 76, 76
4, 95375, Note_on_c, 2, 76, 0
4, 95375, Note_on_c, 2, 72, 0
4, 95405, Note_on_c, 2, 81, 76
4, 95405, Control_c, 2, 11, 122
4, 95405, Note_on_c, 2, 72, 76
4, 95428, Control_c, 2, 11, 120
4, 95452, Control_c, 2, 11, 118
4, 95476, Control_c, 2, 11, 116
4, 95500, Control_c, 2, 11, 114
4, 95524, Control_c, 2, 11, 112
4, 95548, Control_c, 2, 11, 110
4, 95572, Control_c, 2, 11, 108
4, 95596, Control_c, 2, 11, 106
4, 95620, Control_c, 2, 11, 104
4, 95644, Control_c, 2, 11, 102
4, 95765, Note_on_c, 2, 72, 0
4, 95765, Note_on_c, 2, 81, 0
4, 95765, Note_on_c, 2, 76, 76
4, 95765, Note_on_c, 2, 79, 76
4, 95990, Note_on_c, 2, 79, 0
4, 95990, Note_on_c, 2, 76, 0
4, 96005, Note_on_c, 2, 79, 76
4, 96005, Note_on_c, 2, 76, 76
4, 96065, Note_on_c, 2, 76, 0
4, 96065, Note_on_c, 2, 79, 0
4, 96125, Note_on_c, 2, 71, 76
4, 96125, Note_on_c, 2, 77, 76
4, 96125, Control_c, 2, 11, 122
4, 96148, Control_c, 2, 11, 120
4, 96172, Control_c, 2, 11, 118
4, 96196, Control_c, 2, 11, 116
4, 96220, Control_c, 2, 11, 114
4, 96244, Control_c, 2, 11, 112
4, 96268, Control_c, 2, 11, 110
4, 96292, Control_c, 2, 11, 108
4, 96316, Control_c, 2, 11, 106
4, 96340, Control_c, 2, 11, 104
4, 96364, Control_c, 2, 11, 102
4, 96485, Note_on_c, 2, 77, 0
4, 96485, Note_on_c, 2, 71, 0
4, 96485, Note_on_c, 2, 72, 76
4, 96485, Note_on_c, 2, 76, 76
4, 96710, Note_on_c, 2, 76, 0
4, 96710, Note_on_c, 2, 72, 0
4, 96725, Note_on_c, 2, 72, 76
4, 96725, Note_on_c, 2, 76, 76
4, 96785, Note_on_c, 2, 76, 0
4, 96785, Note_on_c, 2, 72, 0
4, 96845, Note_on_c, 2, 81, 76
4, 96845, Note_on_c, 2, 72, 76
4, 96845, Control_c, 2, 11, 122
4, 96868, Control_c, 2, 11, 120
4, 96892, Control_c, 2, 11, 118
4, 96916, Control_c, 2, 11, 116
4, 96940, Control_c, 2, 11, 114
4, 96964, Control_c, 2, 11, 112
4, 96988, Control_c, 2, 11, 110
4, 97012, Control_c, 2, 11, 108
4, 97036, Control_c, 2, 11, 106
4, 97060, Control_c, 2, 11, 104
4, 97084, Control_c, 2, 11, 102
4, 97205, Note_on_c, 2, 72, 0
4, 97205, Note_on_c, 2, 81, 0
4, 97205, Note_on_c, 2, 76, 76
4, 97205, Note_on_c, 2, 79, 76
4, 97430, Note_on_c, 2, 79, 0
4, 97430, Note_on_c, 2, 76, 0
4, 97445, Note_on_c, 2, 76, 76
4, 97445, Note_on_c, 2, 79, 76
4, 97505, Note_on_c, 2, 79, 0
4, 97505, Note_on_c, 2, 76, 0
4, 97565, Note_on_c, 2, 71, 76
4, 97565, Note_on_c, 2, 77, 76
4, 97565, Control_c, 2, 11, 122
4, 97588, Control_c, 2, 11, 120
4, 97612, Control_c, 2, 11, 118
4, 97636, Control_c, 2, 11, 116
4, 97660, Control_c, 2, 11, 114
4, 97684, Control_c, 2, 11, 112
4, 97708, Control_c, 2, 11, 110
4, 97732, Control_c, 2, 11, 108
4, 97756, Control_c, 2, 11, 106
4, 97780, Control_c, 2, 11, 104
4, 97804, Control_c, 2, 11, 102
4, 97925, Note_on_c, 2, 77, 0
4, 97925, Note_on_c, 2, 71, 0
4, 97925, Note_on_c, 2, 72, 76
4, 97925, Note_on_c, 2, 76, 76
4, 97985, Note_on_c, 2, 76, 0
4, 97985, Note_on_c, 2, 72, 0
4, 98045, Control_c, 2, 11, 122
4, 98045, Note_on_c, 2, 77, 76
4, 98045, Note_on_c, 2, 71, 76
4, 98068, Control_c, 2, 11, 120
4, 98092, Control_c, 2, 11, 118
4, 98116, Control_c, 2, 11, 116
4, 98140, Control_c, 2, 11, 114
4, 98164, Control_c, 2, 11, 112
4, 98188, Control_c, 2, 11, 110
4, 98212, Control_c, 2, 11, 108
4, 98236, Control_c, 2, 11, 106
4, 98260, Control_c, 2, 11, 104
4, 98270, Note_on_c, 2, 71, 0
4, 98270, Note_on_c, 2, 77, 0
4, 98284, Control_c, 2, 11, 102
4, 98285, Note_on_c, 2, 72, 76
4, 98285, Note_on_c, 2, 76, 76
4, 98345, Note_on_c, 2, 76, 0
4, 98345, Note_on_c, 2, 72, 0
4, 98405, Control_c, 2, 11, 122
4, 98405, Note_on_c, 2, 71, 76
4, 98405, Note_on_c, 2, 77, 76
4, 98428, Control_c, 2, 11, 120
4, 98452, Control_c, 2, 11, 118
4, 98476, Control_c, 2, 11, 116
4, 98500, Control_c, 2, 11, 114
4, 98524, Control_c, 2, 11, 112
4, 98548, Control_c, 2, 11, 110
4, 98572, Control_c, 2, 11, 108
4, 98596, Control_c, 2, 11, 106
4, 98620, Control_c, 2, 11, 104
4, 98630, Note_on_c, 2, 77, 0
4, 98630, Note_on_c, 2, 71, 0
4, 98644, Control_c, 2, 11, 102
4, 98645, Note_on_c, 2, 74, 76
4, 98645, Note_on_c, 2, 65, 76
4, 98645, Control_c, 2, 11, 122
4, 98668, Control_c, 2, 11, 120
4, 98692, Control_c, 2, 11, 118
4, 98716, Control_c, 2, 11, 116
4, 98740, Control_c, 2, 11, 114
4, 98764, Control_c, 2, 11, 112
4, 98788, Control_c, 2, 11, 110
4, 98812, Control_c, 2, 11, 108
4, 98836, Control_c, 2, 11, 106
4, 98860, Control_c, 2, 11, 104
4, 98884, Control_c, 2, 11, 102
4, 99005, Note_on_c, 2, 65, 0
4, 99005, Note_on_c, 2, 74, 0
4, 99005, Note_on_c, 2, 72, 76
4, 99005, Note_on_c, 2, 64, 76
4, 99125, Note_on_c, 2, 64, 0
4, 99125, Note_on_c, 2, 72, 0
4, 101405, Control_c, 2, 11, 77
4, 101405, Note_on_c, 2, 73, 98
4, 101465, Note_on_c, 2, 73, 0
4, 101525, Note_on_c, 2, 74, 98
4, 101585, Note_on_c, 2, 74, 0
4, 101645, Note_on_c, 2, 74, 98
4, 101705, Note_on_c, 2, 74, 0
4, 101765, Note_on_c, 2, 74, 98
4, 101825, Note_on_c, 2, 74, 0
4, 101885, Note_on_c, 2, 67, 98
4, 102005, Note_on_c, 2, 67, 0
4, 104285, Note_on_c, 2, 73, 98
4, 104285, Control_c, 2, 11, 77
4, 104345, Note_on_c, 2, 73, 0
4, 104405, Note_on_c, 2, 74, 98
4, 104465, Note_on_c, 2, 74, 0
4, 104525, Note_on_c, 2, 74, 98
4, 104585, Note_on_c, 2, 74, 0
4, 104645, Note_on_c, 2, 74, 98
4, 104705, Note_on_c, 2, 74, 0
4, 104765, Note_on_c, 2, 67, 98
4, 104885, Note_on_c, 2, 67, 0
4, 117965, Control_c, 2, 11, 77
4, 117965, Note_on_c, 2, 67, 98
4, 117965, Note_on_c, 2, 64, 98
4, 118025, Note_on_c, 2, 64, 0
4, 118025, Note_on_c, 2, 67, 0
4, 118085, Note_on_c, 2, 65, 98
4, 118085, Note_on_c, 2, 69, 98
4, 118205, Note_on_c, 2, 69, 0
4, 118205, Note_on_c, 2, 65, 0
4, 118325, Note_on_c, 2, 71, 98
4, 118325, Note_on_c, 2, 62, 98
4, 118385, Note_on_c, 2, 62, 0
4, 118385, Note_on_c, 2, 71, 0
4, 118445, Note_on_c, 2, 72, 98
4, 118445, Note_on_c, 2, 64, 98
4, 118565, Note_on_c, 2, 64, 0
4, 118565, Note_on_c, 2, 72, 0
4, 118685, Note_on_c, 2, 74, 98
4, 118685, Note_on_c, 2, 67, 98
4, 118745, Note_on_c, 2, 67, 0
4, 118745, Note_on_c, 2, 74, 0
4, 118805, Note_on_c, 2, 76, 98
4, 118805, Note_on_c, 2, 67, 98
4, 118865, Note_on_c, 2, 67, 0
4, 118865, Note_on_c, 2, 76, 0
4, 118925, Note_on_c, 2, 67, 98
4, 118925, Note_on_c, 2, 76, 98
4, 118985, Note_on_c, 2, 76, 0
4, 118985, Note_on_c, 2, 67, 0
4, 119045, Note_on_c, 2, 72, 98
4, 119045, Note_on_c, 2, 66, 98
4, 119105, Note_on_c, 2, 66, 0
4, 119105, Note_on_c, 2, 72, 0
4, 119165, Note_on_c, 2, 67, 98
4, 119165, Note_on_c, 2, 79, 98
4, 119165, Control_c, 2, 11, 86
4, 120365, Note_on_c, 2, 79, 0
4, 120365, Note_on_c, 2, 67, 0
4, 120365, Note_on_c, 2, 72, 98
4, 120365, Note_on_c, 2, 76, 98
4, 120425, Note_on_c, 2, 76, 0
4, 120425, Note_on_c, 2, 72, 0
4, 120485, Note_on_c, 2, 72, 98
4, 120485, Note_on_c, 2, 78, 98
4, 120545, Note_on_c, 2, 78, 0
4, 120545, Note_on_c, 2, 72, 0
4, 120605, Control_c, 2, 11, 98
4, 120605, Note_on_c, 2, 67, 98
4, 120605, Note_on_c, 2, 79, 98
4, 120622, Control_c, 2, 11, 97
4, 120640, Control_c, 2, 11, 95
4, 120658, Control_c, 2, 11, 93
4, 120676, Control_c, 2, 11, 91
4, 120694, Control_c, 2, 11, 89
4, 120712, Control_c, 2, 11, 87
4, 120725, Note_on_c, 2, 79, 0
4, 120725, Note_on_c, 2, 67, 0
4, 120845, Note_on_c, 2, 72, 98
4, 120845, Note_on_c, 2, 60, 98
4, 120905, Note_on_c, 2, 60, 0
4, 120905, Note_on_c, 2, 72, 0
4, 120965, Note_on_c, 2, 74, 98
4, 120965, Note_on_c, 2, 62, 98
4, 121025, Note_on_c, 2, 62, 0
4, 121025, Note_on_c, 2, 74, 0
4, 121085, Note_on_c, 2, 62, 98
4, 121085, Note_on_c, 2, 70, 98
4, 121145, Note_on_c, 2, 70, 0
4, 121145, Note_on_c, 2, 62, 0
4, 121205, Note_on_c, 2, 70, 98
4, 121205, Note_on_c, 2, 64, 98
4, 121265, Note_on_c, 2, 64, 0
4, 121265, Note_on_c, 2, 70, 0
4, 121325, Note_on_c, 2, 65, 98
4, 121325, Control_c, 2, 11, 98
4, 121325, Note_on_c, 2, 69, 98
4, 121342, Control_c, 2, 11, 97
4, 121360, Control_c, 2, 11, 95
4, 121378, Control_c, 2, 11, 93
4, 121396, Control_c, 2, 11, 91
4, 121414, Control_c, 2, 11, 89
4, 121432, Control_c, 2, 11, 87
4, 121445, Note_on_c, 2, 69, 0
4, 121445, Note_on_c, 2, 65, 0
4, 121565, Note_on_c, 2, 72, 98
4, 121565, Note_on_c, 2, 67, 98
4, 121625, Note_on_c, 2, 67, 0
4, 121625, Note_on_c, 2, 72, 0
4, 121685, Note_on_c, 2, 72, 98
4, 121685, Note_on_c, 2, 69, 98
4, 121745, Note_on_c, 2, 69, 0
4, 121745, Note_on_c, 2, 72, 0
4, 121805, Note_on_c, 2, 77, 98
4, 121805, Note_on_c, 2, 69, 98
4, 121865, Note_on_c, 2, 69, 0
4, 121865, Note_on_c, 2, 77, 0
4, 121925, Note_on_c, 2, 77, 98
4, 121925, Note_on_c, 2, 71, 98
4, 121985, Note_on_c, 2, 71, 0
4, 121985, Note_on_c, 2, 77, 0
4, 122045, Note_on_c, 2, 72, 98
4, 122105, Note_on_c, 2, 72, 0
4, 122165, Note_on_c, 2, 67, 98
4, 122165, Note_on_c, 2, 72, 98
4, 122225, Note_on_c, 2, 72, 0
4, 122225, Note_on_c, 2, 67, 0
4, 122285, Note_on_c, 2, 65, 98
4, 122285, Note_on_c, 2, 69, 98
4, 122345, Note_on_c, 2, 69, 0
4, 122345, Note_on_c, 2, 65, 0
4, 122405, Note_on_c, 2, 67, 98
4, 122405, Note_on_c, 2, 64, 98
4, 122625, Note_on_c, 2, 64, 0
4, 122625, Note_on_c, 2, 67, 0
4, 122645, Note_on_c, 2, 65, 98
4, 122645, Note_on_c, 2, 59, 98
4, 122705, Note_on_c, 2, 59, 0
4, 122705, Note_on_c, 2, 65, 0
4, 122765, Note_on_c, 2, 60, 98
4, 122765, Note_on_c, 2, 64, 98
4, 122885, Note_on_c, 2, 64, 0
4, 122885, Note_on_c, 2, 60, 0
4, 125645, Control_c, 2, 11, 47
4, 125645, Note_on_c, 2, 64, 98
4, 125645, Note_on_c, 2, 72, 98
4, 125765, Note_on_c, 2, 72, 0
4, 125765, Note_on_c, 2, 64, 0
4, 126005, Note_on_c, 2, 62, 63
4, 126005, Note_on_c, 2, 71, 63
4, 126125, Note_on_c, 2, 71, 0
4, 126125, Note_on_c, 2, 62, 0
4, 126365, Note_on_c, 2, 64, 66
4, 126365, Note_on_c, 2, 72, 66
4, 126485, Note_on_c, 2, 72, 0
4, 126485, Note_on_c, 2, 64, 0
4, 126725, Note_on_c, 2, 71, 70
4, 126725, Note_on_c, 2, 65, 70
4, 126845, Note_on_c, 2, 65, 0
4, 126845, Note_on_c, 2, 71, 0
4, 127085, Note_on_c, 2, 72, 74
4, 127085, Note_on_c, 2, 64, 74
4, 127085, Control_c, 2, 11, 47
4, 127121, Control_c, 2, 11, 48
4, 127157, Control_c, 2, 11, 49
4, 127193, Control_c, 2, 11, 50
4, 127205, Note_on_c, 2, 64, 0
4, 127205, Note_on_c, 2, 72, 0
4, 127229, Control_c, 2, 11, 51
4, 127265, Control_c, 2, 11, 52
4, 127301, Control_c, 2, 11, 53
4, 127337, Control_c, 2, 11, 54
4, 127373, Control_c, 2, 11, 55
4, 127409, Control_c, 2, 11, 56
4, 127445, Control_c, 2, 11, 57
4, 127445, Note_on_c, 2, 77, 78
4, 127445, Note_on_c, 2, 71, 78
4, 127481, Control_c, 2, 11, 58
4, 127517, Control_c, 2, 11, 59
4, 127553, Control_c, 2, 11, 60
4, 127565, Note_on_c, 2, 71, 0
4, 127565, Note_on_c, 2, 77, 0
4, 127589, Control_c, 2, 11, 61
4, 127625, Control_c, 2, 11, 62
4, 127661, Control_c, 2, 11, 62
4, 127697, Control_c, 2, 11, 63
4, 127733, Control_c, 2, 11, 63
4, 127769, Control_c, 2, 11, 64
4, 127805, Control_c, 2, 11, 65
4, 127805, Note_on_c, 2, 76, 82
4, 127805, Note_on_c, 2, 72, 82
4, 127841, Control_c, 2, 11, 65
4, 127877, Control_c, 2, 11, 66
4, 127913, Control_c, 2, 11, 66
4, 127925, Note_on_c, 2, 72, 0
4, 127925, Note_on_c, 2, 76, 0
4, 127949, Control_c, 2, 11, 67
4, 127985, Control_c, 2, 11, 68
4, 128021, Control_c, 2, 11, 68
4, 128057, Control_c, 2, 11, 69
4, 128093, Control_c, 2, 11, 70
4, 128129, Control_c, 2, 11, 70
4, 128165, Note_on_c, 2, 71, 86
4, 128165, Control_c, 2, 11, 71
4, 128165, Note_on_c, 2, 65, 86
4, 128201, Control_c, 2, 11, 71
4, 128237, Control_c, 2, 11, 72
4, 128273, Control_c, 2, 11, 73
4, 128285, Note_on_c, 2, 65, 0
4, 128285, Note_on_c, 2, 71, 0
4, 128309, Control_c, 2, 11, 73
4, 128345, Control_c, 2, 11, 74
4, 128381, Control_c, 2, 11, 74
4, 128417, Control_c, 2, 11, 75
4, 128453, Control_c, 2, 11, 76
4, 128489, Control_c, 2, 11, 76
4, 128525, Note_on_c, 2, 60, 90
4, 128525, Note_on_c, 2, 72, 90
4, 128525, Control_c, 2, 11, 77
4, 128585, Note_on_c, 2, 72, 0
4, 128585, Note_on_c, 2, 60, 0
4, 128645, Note_on_c, 2, 64, 91
4, 128645, Note_on_c, 2, 76, 91
4, 128705, Note_on_c, 2, 76, 0
4, 128705, Note_on_c, 2, 64, 0
4, 128765, Control_c, 2, 11, 89
4, 128765, Note_on_c, 2, 67, 92
4, 128765, Note_on_c, 2, 79, 92
4, 128783, Control_c, 2, 11, 87
4, 128801, Control_c, 2, 11, 86
4, 128819, Control_c, 2, 11, 84
4, 128837, Control_c, 2, 11, 82
4, 128855, Control_c, 2, 11, 80
4, 128873, Control_c, 2, 11, 78
4, 128985, Note_on_c, 2, 79, 0
4, 128985, Note_on_c, 2, 67, 0
4, 129005, Note_on_c, 2, 77, 95
4, 129005, Note_on_c, 2, 65, 95
4, 129065, Note_on_c, 2, 65, 0
4, 129065, Note_on_c, 2, 77, 0
4, 129125, Note_on_c, 2, 74, 96
4, 129125, Note_on_c, 2, 62, 96
4, 129185, Note_on_c, 2, 62, 0
4, 129185, Note_on_c, 2, 74, 0
4, 129245, Control_c, 2, 11, 86
4, 129245, Note_on_c, 2, 60, 98
4, 129245, Note_on_c, 2, 72, 98
4, 129305, Note_on_c, 2, 72, 0
4, 129305, Note_on_c, 2, 60, 0
4, 129365, Note_on_c, 2, 76, 98
4, 129365, Note_on_c, 2, 64, 98
4, 129425, Note_on_c, 2, 64, 0
4, 129425, Note_on_c, 2, 76, 0
4, 129485, Note_on_c, 2, 67, 98
4, 129485, Note_on_c, 2, 79, 98
4, 129485, Control_c, 2, 11, 98
4, 129502, Control_c, 2, 11, 97
4, 129520, Control_c, 2, 11, 95
4, 129538, Control_c, 2, 11, 93
4, 129556, Control_c, 2, 11, 91
4, 129574, Control_c, 2, 11, 89
4, 129592, Control_c, 2, 11, 87
4, 129705, Note_on_c, 2, 79, 0
4, 129705, Note_on_c, 2, 67, 0
4, 129725, Note_on_c, 2, 77, 98
4, 129725, Note_on_c, 2, 65, 98
4, 129785, Note_on_c, 2, 65, 0
4, 129785, Note_on_c, 2, 77, 0
4, 129845, Note_on_c, 2, 74, 98
4, 129845, Note_on_c, 2, 62, 98
4, 129905, Note_on_c, 2, 62, 0
4, 129905, Note_on_c, 2, 74, 0
4, 129965, Note_on_c, 2, 72, 98
4, 129965, Note_on_c, 2, 60, 98
4, 130025, Note_on_c, 2, 60, 0
4, 130025, Note_on_c, 2, 72, 0
4, 130085, Note_on_c, 2, 67, 98
4, 130085, Note_on_c, 2, 79, 98
4, 130145, Note_on_c, 2, 79, 0
4, 130145, Note_on_c, 2, 67, 0
4, 130205, Note_on_c, 2, 64, 98
4, 130205, Note_on_c, 2, 76, 98
4, 130265, Note_on_c, 2, 76, 0
4, 130265, Note_on_c, 2, 64, 0
4, 130325, Note_on_c, 2, 60, 98
4, 130325, Note_on_c, 2, 72, 98
4, 130385, Note_on_c, 2, 72, 0
4, 130385, Note_on_c, 2, 60, 0
4, 130685, Control_c, 2, 121, 0
4, 130685, End_track
5, 0, Start_track
5, 0, MIDI_port, 0
5, 0, Title_t, "2 Fagotti"
5, 0, Program_c, 3, 70
5, 0, Control_c, 3, 10, 80
5, 11, Control_c, 3, 121, 0
5, 16, Program_c, 3, 70
5, 21, Pitch_bend_c, 3, 8192
5, 26, Control_c, 3, 11, 87
5, 31, Control_c, 3, 7, 127
5, 36, Control_c, 3, 91, 67
5, 41, Control_c, 3, 93, 0
5, 46, Control_c, 3, 10, 80
5, 2771, Control_c, 3, 11, 87
5, 2771, Note_on_c, 3, 49, 100
5, 2771, Note_on_c, 3, 61, 100
5, 2831, Note_on_c, 3, 61, 0
5, 2831, Note_on_c, 3, 49, 0
5, 2891, Note_on_c, 3, 62, 100
5, 2891, Note_on_c, 3, 50, 100
5, 2951, Note_on_c, 3, 50, 0
5, 2951, Note_on_c, 3, 62, 0
5, 3011, Note_on_c, 3, 62, 100
5, 3011, Note_on_c, 3, 50, 100
5, 3071, Note_on_c, 3, 50, 0
5, 3071, Note_on_c, 3, 62, 0
5, 3131, Note_on_c, 3, 50, 100
5, 3131, Note_on_c, 3, 62, 100
5, 3191, Note_on_c, 3, 62, 0
5, 3191, Note_on_c, 3, 50, 0
5, 3251, Note_on_c, 3, 43, 100
5, 3251, Note_on_c, 3, 55, 100
5, 3371, Note_on_c, 3, 55, 0
5, 3371, Note_on_c, 3, 43, 0
5, 5651, Control_c, 3, 11, 87
5, 5651, Note_on_c, 3, 49, 100
5, 5651, Note_on_c, 3, 61, 100
5, 5711, Note_on_c, 3, 61, 0
5, 5711, Note_on_c, 3, 49, 0
5, 5771, Note_on_c, 3, 62, 100
5, 5771, Note_on_c, 3, 50, 100
5, 5831, Note_on_c, 3, 50, 0
5, 5831, Note_on_c, 3, 62, 0
5, 5891, Note_on_c, 3, 62, 100
5, 5891, Note_on_c, 3, 50, 100
5, 5951, Note_on_c, 3, 50, 0
5, 5951, Note_on_c, 3, 62, 0
5, 6011, Note_on_c, 3, 50, 100
5, 6011, Note_on_c, 3, 62, 100
5, 6071, Note_on_c, 3, 62, 0
5, 6071, Note_on_c, 3, 50, 0
5, 6131, Note_on_c, 3, 55, 100
5, 6131, Note_on_c, 3, 43, 100
5, 6251, Note_on_c, 3, 43, 0
5, 6251, Note_on_c, 3, 55, 0
5, 6611, Note_on_c, 3, 63, 100
5, 6611, Control_c, 3, 11, 47
5, 6611, Note_on_c, 3, 60, 100
5, 6731, Note_on_c, 3, 60, 0
5, 6731, Note_on_c, 3, 63, 0
5, 6731, Note_on_c, 3, 62, 100
5, 6731, Note_on_c, 3, 59, 100
5, 6851, Note_on_c, 3, 59, 0
5, 6851, Note_on_c, 3, 62, 0
5, 6971, Note_on_c, 3, 60, 100
5, 6971, Note_on_c, 3, 63, 100
5, 7091, Note_on_c, 3, 63, 0
5, 7091, Note_on_c, 3, 60, 0
5, 7091, Note_on_c, 3, 62, 100
5, 7091, Note_on_c, 3, 59, 100
5, 7211, Note_on_c, 3, 59, 0
5, 7211, Note_on_c, 3, 62, 0
5, 7331, Note_on_c, 3, 63, 100
5, 7331, Control_c, 3, 11, 87
5, 7331, Note_on_c, 3, 60, 100
5, 7391, Note_on_c, 3, 60, 0
5, 7391, Note_on_c, 3, 63, 0
5, 7451, Note_on_c, 3, 65, 100
5, 7451, Note_on_c, 3, 62, 100
5, 7511, Note_on_c, 3, 62, 0
5, 7511, Note_on_c, 3, 65, 0
5, 7571, Note_on_c, 3, 63, 100
5, 7631, Note_on_c, 3, 63, 0
5, 7691, Note_on_c, 3, 51, 100
5, 7751, Note_on_c, 3, 51, 0
5, 8051, Note_on_c, 3, 60, 100
5, 8051, Control_c, 3, 11, 47
5, 8051, Note_on_c, 3, 56, 100
5, 8171, Note_on_c, 3, 56, 0
5, 8171, Note_on_c, 3, 60, 0
5, 8171, Note_on_c, 3, 58, 100
5, 8171, Note_on_c, 3, 55, 100
5, 8291, Note_on_c, 3, 55, 0
5, 8291, Note_on_c, 3, 58, 0
5, 8411, Note_on_c, 3, 60, 100
5, 8411, Note_on_c, 3, 56, 100
5, 8531, Note_on_c, 3, 56, 0
5, 8531, Note_on_c, 3, 60, 0
5, 8531, Note_on_c, 3, 55, 100
5, 8531, Note_on_c, 3, 58, 100
5, 8651, Note_on_c, 3, 58, 0
5, 8651, Note_on_c, 3, 55, 0
5, 8771, Control_c, 3, 11, 87
5, 8771, Note_on_c, 3, 57, 100
5, 8771, Note_on_c, 3, 60, 100
5, 8831, Note_on_c, 3, 60, 0
5, 8831, Note_on_c, 3, 57, 0
5, 8891, Note_on_c, 3, 62, 100
5, 8891, Note_on_c, 3, 59, 100
5, 8951, Note_on_c, 3, 59, 0
5, 8951, Note_on_c, 3, 62, 0
5, 9011, Note_on_c, 3, 60, 100
5, 9071, Note_on_c, 3, 60, 0
5, 9131, Note_on_c, 3, 48, 100
5, 9191, Note_on_c, 3, 48, 0
5, 9491, Note_on_c, 3, 53, 100
5, 9551, Note_on_c, 3, 53, 0
5, 9611, Note_on_c, 3, 55, 100
5, 9671, Note_on_c, 3, 55, 0
5, 9731, Note_on_c, 3, 56, 100
5, 9791, Note_on_c, 3, 56, 0
5, 9851, Note_on_c, 3, 44, 100
5, 9911, Note_on_c, 3, 44, 0
5, 10211, Control_c, 3, 11, 102
5, 10211, Note_on_c, 3, 54, 100
5, 10271, Note_on_c, 3, 54, 0
5, 10331, Note_on_c, 3, 54, 100
5, 10391, Note_on_c, 3, 54, 0
5, 10451, Note_on_c, 3, 54, 100
5, 10511, Note_on_c, 3, 54, 0
5, 10571, Note_on_c, 3, 54, 100
5, 10631, Note_on_c, 3, 54, 0
5, 10691, Note_on_c, 3, 54, 100
5, 10751, Note_on_c, 3, 54, 0
5, 10811, Note_on_c, 3, 53, 100
5, 10811, Control_c, 3, 11, 122
5, 10829, Control_c, 3, 11, 119
5, 10847, Control_c, 3, 11, 116
5, 10865, Control_c, 3, 11, 113
5, 10883, Control_c, 3, 11, 110
5, 10901, Control_c, 3, 11, 107
5, 10919, Control_c, 3, 11, 104
5, 10931, Note_on_c, 3, 53, 0
5, 11171, Note_on_c, 3, 54, 100
5, 11171, Control_c, 3, 11, 122
5, 11189, Control_c, 3, 11, 119
5, 11207, Control_c, 3, 11, 116
5, 11225, Control_c, 3, 11, 113
5, 11243, Control_c, 3, 11, 110
5, 11261, Control_c, 3, 11, 107
5, 11279, Control_c, 3, 11, 104
5, 11291, Note_on_c, 3, 54, 0
5, 11531, Note_on_c, 3, 56, 100
5, 11531, Control_c, 3, 11, 122
5, 11549, Control_c, 3, 11, 119
5, 11567, Control_c, 3, 11, 116
5, 11585, Control_c, 3, 11, 113
5, 11603, Control_c, 3, 11, 110
5, 11621, Control_c, 3, 11, 107
5, 11639, Control_c, 3, 11, 104
5, 11651, Note_on_c, 3, 56, 0
5, 11891, Note_on_c, 3, 44, 100
5, 11891, Control_c, 3, 11, 122
5, 11909, Control_c, 3, 11, 119
5, 11927, Control_c, 3, 11, 116
5, 11945, Control_c, 3, 11, 113
5, 11963, Control_c, 3, 11, 110
5, 11981, Control_c, 3, 11, 107
5, 11999, Control_c, 3, 11, 104
5, 12011, Note_on_c, 3, 44, 0
5, 12251, Note_on_c, 3, 61, 100
5, 12251, Control_c, 3, 11, 87
5, 12251, Note_on_c, 3, 49, 100
5, 12269, Control_c, 3, 11, 84
5, 12287, Control_c, 3, 11, 81
5, 12305, Control_c, 3, 11, 78
5, 12323, Control_c, 3, 11, 75
5, 12341, Control_c, 3, 11, 72
5, 12359, Control_c, 3, 11, 69
5, 12377, Control_c, 3, 11, 66
5, 12395, Control_c, 3, 11, 63
5, 12413, Control_c, 3, 11, 60
5, 12431, Control_c, 3, 11, 57
5, 12449, Control_c, 3, 11, 54
5, 12467, Control_c, 3, 11, 51
5, 12485, Control_c, 3, 11, 48
5, 12491, Note_on_c, 3, 61, 0
5, 12491, Note_on_c, 3, 56, 100
5, 12611, Note_on_c, 3, 56, 0
5, 12611, Note_on_c, 3, 58, 100
5, 12851, Note_on_c, 3, 58, 0
5, 12851, Note_on_c, 3, 60, 100
5, 12951, Note_on_c, 3, 60, 0
5, 12971, Note_on_c, 3, 61, 100
5, 13211, Note_on_c, 3, 61, 0
5, 13211, Note_on_c, 3, 56, 100
5, 13331, Note_on_c, 3, 56, 0
5, 13331, Note_on_c, 3, 58, 100
5, 13571, Note_on_c, 3, 58, 0
5, 13571, Note_on_c, 3, 60, 100
5, 13671, Note_on_c, 3, 60, 0
5, 13671, Note_on_c, 3, 49, 0
5, 13691, Note_on_c, 3, 49, 100
5, 13691, Note_on_c, 3, 61, 100
5, 13931, Note_on_c, 3, 61, 0
5, 13931, Note_on_c, 3, 56, 100
5, 14051, Note_on_c, 3, 56, 0
5, 14051, Note_on_c, 3, 58, 100
5, 14291, Note_on_c, 3, 58, 0
5, 14291, Note_on_c, 3, 60, 100
5, 14391, Note_on_c, 3, 60, 0
5, 14411, Note_on_c, 3, 61, 100
5, 14651, Note_on_c, 3, 61, 0
5, 14651, Note_on_c, 3, 56, 100
5, 14771, Note_on_c, 3, 56, 0
5, 14771, Note_on_c, 3, 58, 100
5, 15011, Note_on_c, 3, 58, 0
5, 15011, Note_on_c, 3, 60, 100
5, 15111, Note_on_c, 3, 60, 0
5, 15131, Note_on_c, 3, 61, 100
5, 15251, Note_on_c, 3, 61, 0
5, 15251, Note_on_c, 3, 49, 0
5, 16091, Note_on_c, 3, 57, 115
5, 16091, Control_c, 3, 11, 42
5, 16211, Note_on_c, 3, 57, 0
5, 16211, Note_on_c, 3, 58, 115
5, 16451, Control_c, 3, 11, 42
5, 16468, Control_c, 3, 11, 39
5, 16486, Control_c, 3, 11, 36
5, 16504, Control_c, 3, 11, 33
5, 16522, Control_c, 3, 11, 30
5, 16540, Control_c, 3, 11, 27
5, 16558, Control_c, 3, 11, 24
5, 16571, Note_on_c, 3, 58, 0
5, 17531, Control_c, 3, 11, 42
5, 17531, Note_on_c, 3, 58, 115
5, 17651, Note_on_c, 3, 58, 0
5, 17651, Note_on_c, 3, 59, 115
5, 17891, Control_c, 3, 11, 42
5, 17908, Control_c, 3, 11, 39
5, 17926, Control_c, 3, 11, 36
5, 17944, Control_c, 3, 11, 33
5, 17962, Control_c, 3, 11, 30
5, 17980, Control_c, 3, 11, 27
5, 17998, Control_c, 3, 11, 24
5, 18011, Note_on_c, 3, 59, 0
5, 19331, Note_on_c, 3, 52, 100
5, 19331, Control_c, 3, 11, 87
5, 19331, Note_on_c, 3, 55, 100
5, 19391, Note_on_c, 3, 55, 0
5, 19391, Note_on_c, 3, 52, 0
5, 19451, Note_on_c, 3, 57, 100
5, 19451, Note_on_c, 3, 53, 100
5, 19571, Note_on_c, 3, 53, 0
5, 19571, Note_on_c, 3, 57, 0
5, 19691, Note_on_c, 3, 59, 100
5, 19691, Note_on_c, 3, 50, 100
5, 19751, Note_on_c, 3, 50, 0
5, 19751, Note_on_c, 3, 59, 0
5, 19811, Note_on_c, 3, 52, 100
5, 19811, Note_on_c, 3, 60, 100
5, 19931, Note_on_c, 3, 60, 0
5, 19931, Note_on_c, 3, 52, 0
5, 20051, Note_on_c, 3, 62, 100
5, 20051, Note_on_c, 3, 55, 100
5, 20111, Note_on_c, 3, 55, 0
5, 20111, Note_on_c, 3, 62, 0
5, 20171, Note_on_c, 3, 64, 100
5, 20171, Note_on_c, 3, 55, 100
5, 20231, Note_on_c, 3, 55, 0
5, 20231, Note_on_c, 3, 64, 0
5, 20291, Note_on_c, 3, 55, 100
5, 20291, Note_on_c, 3, 64, 100
5, 20351, Note_on_c, 3, 64, 0
5, 20351, Note_on_c, 3, 55, 0
5, 20411, Note_on_c, 3, 60, 100
5, 20411, Note_on_c, 3, 66, 100
5, 20471, Note_on_c, 3, 66, 0
5, 20471, Note_on_c, 3, 60, 0
5, 20531, Note_on_c, 3, 67, 100
5, 20531, Control_c, 3, 11, 102
5, 20531, Note_on_c, 3, 55, 100
5, 21731, Note_on_c, 3, 55, 0
5, 21731, Note_on_c, 3, 67, 0
5, 21731, Note_on_c, 3, 45, 100
5, 21791, Note_on_c, 3, 45, 0
5, 21851, Note_on_c, 3, 50, 100
5, 21911, Note_on_c, 3, 50, 0
5, 21971, Note_on_c, 3, 47, 100
5, 21971, Control_c, 3, 11, 122
5, 21988, Control_c, 3, 11, 119
5, 22006, Control_c, 3, 11, 116
5, 22024, Control_c, 3, 11, 113
5, 22031, Note_on_c, 3, 47, 0
5, 22042, Control_c, 3, 11, 110
5, 22060, Control_c, 3, 11, 107
5, 22078, Control_c, 3, 11, 104
5, 22091, Note_on_c, 3, 43, 100
5, 22151, Note_on_c, 3, 43, 0
5, 22211, Note_on_c, 3, 45, 100
5, 22271, Note_on_c, 3, 45, 0
5, 22331, Note_on_c, 3, 46, 100
5, 22391, Note_on_c, 3, 46, 0
5, 22451, Note_on_c, 3, 43, 100
5, 22511, Note_on_c, 3, 43, 0
5, 22571, Note_on_c, 3, 48, 100
5, 22631, Note_on_c, 3, 48, 0
5, 22691, Note_on_c, 3, 45, 100
5, 22691, Control_c, 3, 11, 122
5, 22708, Control_c, 3, 11, 119
5, 22726, Control_c, 3, 11, 116
5, 22744, Control_c, 3, 11, 113
5, 22751, Note_on_c, 3, 45, 0
5, 22762, Control_c, 3, 11, 110
5, 22780, Control_c, 3, 11, 107
5, 22798, Control_c, 3, 11, 104
5, 22811, Note_on_c, 3, 41, 100
5, 22871, Note_on_c, 3, 41, 0
5, 22931, Note_on_c, 3, 52, 100
5, 22991, Note_on_c, 3, 52, 0
5, 23051, Note_on_c, 3, 53, 100
5, 23111, Note_on_c, 3, 53, 0
5, 23171, Note_on_c, 3, 50, 100
5, 23231, Note_on_c, 3, 50, 0
5, 23291, Note_on_c, 3, 55, 100
5, 23351, Note_on_c, 3, 55, 0
5, 23411, Note_on_c, 3, 52, 100
5, 23471, Note_on_c, 3, 52, 0
5, 23531, Note_on_c, 3, 48, 100
5, 23591, Note_on_c, 3, 48, 0
5, 23651, Note_on_c, 3, 53, 100
5, 23711, Note_on_c, 3, 53, 0
5, 23771, Note_on_c, 3, 43, 100
5, 23831, Note_on_c, 3, 43, 0
5, 23891, Note_on_c, 3, 55, 100
5, 23951, Note_on_c, 3, 55, 0
5, 24011, Note_on_c, 3, 55, 100
5, 24071, Note_on_c, 3, 55, 0
5, 24131, Note_on_c, 3, 48, 100
5, 24251, Note_on_c, 3, 48, 0
5, 24371, Note_on_c, 3, 60, 80
5, 24431, Note_on_c, 3, 60, 0
5, 24491, Note_on_c, 3, 61, 80
5, 24491, Control_c, 3, 11, 122
5, 24514, Control_c, 3, 11, 120
5, 24538, Control_c, 3, 11, 118
5, 24562, Control_c, 3, 11, 116
5, 24586, Control_c, 3, 11, 114
5, 24610, Control_c, 3, 11, 112
5, 24634, Control_c, 3, 11, 110
5, 24658, Control_c, 3, 11, 108
5, 24682, Control_c, 3, 11, 106
5, 24706, Control_c, 3, 11, 104
5, 24730, Control_c, 3, 11, 102
5, 24731, Note_on_c, 3, 61, 0
5, 24731, Note_on_c, 3, 59, 80
5, 24851, Note_on_c, 3, 59, 0
5, 24851, Note_on_c, 3, 60, 80
5, 24911, Note_on_c, 3, 60, 0
5, 25571, Note_on_c, 3, 60, 80
5, 25631, Note_on_c, 3, 60, 0
5, 25691, Control_c, 3, 11, 122
5, 25691, Note_on_c, 3, 61, 80
5, 25708, Control_c, 3, 11, 119
5, 25726, Control_c, 3, 11, 116
5, 25744, Control_c, 3, 11, 113
5, 25762, Control_c, 3, 11, 110
5, 25780, Control_c, 3, 11, 107
5, 25798, Control_c, 3, 11, 104
5, 25811, Note_on_c, 3, 61, 0
5, 25811, Note_on_c, 3, 59, 80
5, 25911, Note_on_c, 3, 59, 0
5, 25931, Note_on_c, 3, 60, 80
5, 25991, Note_on_c, 3, 60, 0
5, 26291, Note_on_c, 3, 60, 80
5, 26351, Note_on_c, 3, 60, 0
5, 26411, Note_on_c, 3, 61, 80
5, 26411, Control_c, 3, 11, 122
5, 26428, Control_c, 3, 11, 119
5, 26446, Control_c, 3, 11, 116
5, 26464, Control_c, 3, 11, 113
5, 26482, Control_c, 3, 11, 110
5, 26500, Control_c, 3, 11, 107
5, 26518, Control_c, 3, 11, 104
5, 26531, Note_on_c, 3, 61, 0
5, 26531, Note_on_c, 3, 59, 80
5, 26631, Note_on_c, 3, 59, 0
5, 26651, Note_on_c, 3, 60, 80
5, 26711, Note_on_c, 3, 60, 0
5, 26771, Note_on_c, 3, 62, 80
5, 26771, Control_c, 3, 11, 122
5, 26788, Control_c, 3, 11, 119
5, 26806, Control_c, 3, 11, 116
5, 26824, Control_c, 3, 11, 113
5, 26842, Control_c, 3, 11, 110
5, 26860, Control_c, 3, 11, 107
5, 26878, Control_c, 3, 11, 104
5, 26891, Note_on_c, 3, 62, 0
5, 26891, Note_on_c, 3, 59, 80
5, 26894, Control_c, 3, 11, 101
5, 26904, Control_c, 3, 11, 98
5, 26914, Control_c, 3, 11, 95
5, 26925, Control_c, 3, 11, 92
5, 26935, Control_c, 3, 11, 89
5, 26945, Control_c, 3, 11, 86
5, 26955, Control_c, 3, 11, 83
5, 26965, Control_c, 3, 11, 80
5, 26976, Control_c, 3, 11, 77
5, 26986, Control_c, 3, 11, 74
5, 26991, Note_on_c, 3, 59, 0
5, 26996, Control_c, 3, 11, 71
5, 27006, Control_c, 3, 11, 68
5, 27011, Note_on_c, 3, 48, 100
5, 27011, Control_c, 3, 11, 47
5, 27011, Note_on_c, 3, 60, 100
5, 27071, Note_on_c, 3, 60, 0
5, 27071, Note_on_c, 3, 48, 0
5, 27371, Note_on_c, 3, 55, 65
5, 27491, Note_on_c, 3, 55, 0
5, 27731, Note_on_c, 3, 60, 68
5, 27851, Note_on_c, 3, 60, 0
5, 28091, Note_on_c, 3, 55, 72
5, 28211, Note_on_c, 3, 55, 0
5, 28451, Note_on_c, 3, 48, 76
5, 28451, Control_c, 3, 11, 47
5, 28487, Control_c, 3, 11, 48
5, 28523, Control_c, 3, 11, 49
5, 28559, Control_c, 3, 11, 50
5, 28571, Note_on_c, 3, 48, 0
5, 28595, Control_c, 3, 11, 51
5, 28631, Control_c, 3, 11, 52
5, 28667, Control_c, 3, 11, 53
5, 28703, Control_c, 3, 11, 54
5, 28739, Control_c, 3, 11, 55
5, 28775, Control_c, 3, 11, 56
5, 28811, Note_on_c, 3, 43, 80
5, 28811, Control_c, 3, 11, 57
5, 28847, Control_c, 3, 11, 58
5, 28883, Control_c, 3, 11, 59
5, 28919, Control_c, 3, 11, 60
5, 28931, Note_on_c, 3, 43, 0
5, 28955, Control_c, 3, 11, 61
5, 28991, Control_c, 3, 11, 62
5, 29027, Control_c, 3, 11, 63
5, 29063, Control_c, 3, 11, 64
5, 29099, Control_c, 3, 11, 65
5, 29135, Control_c, 3, 11, 66
5, 29171, Note_on_c, 3, 48, 84
5, 29171, Control_c, 3, 11, 67
5, 29207, Control_c, 3, 11, 68
5, 29243, Control_c, 3, 11, 69
5, 29279, Control_c, 3, 11, 70
5, 29291, Note_on_c, 3, 48, 0
5, 29315, Control_c, 3, 11, 71
5, 29351, Control_c, 3, 11, 72
5, 29387, Control_c, 3, 11, 73
5, 29423, Control_c, 3, 11, 74
5, 29459, Control_c, 3, 11, 75
5, 29495, Control_c, 3, 11, 76
5, 29531, Note_on_c, 3, 55, 88
5, 29531, Control_c, 3, 11, 77
5, 29567, Control_c, 3, 11, 78
5, 29603, Control_c, 3, 11, 79
5, 29639, Control_c, 3, 11, 80
5, 29651, Note_on_c, 3, 55, 0
5, 29675, Control_c, 3, 11, 81
5, 29711, Control_c, 3, 11, 82
5, 29747, Control_c, 3, 11, 83
5, 29783, Control_c, 3, 11, 84
5, 29819, Control_c, 3, 11, 85
5, 29855, Control_c, 3, 11, 86
5, 29891, Note_on_c, 3, 48, 92
5, 29891, Control_c, 3, 11, 87
5, 30011, Note_on_c, 3, 48, 0
5, 30251, Note_on_c, 3, 43, 96
5, 30371, Note_on_c, 3, 43, 0
5, 30611, Note_on_c, 3, 60, 100
5, 30611, Control_c, 3, 11, 102
5, 30611, Note_on_c, 3, 48, 100
5, 30671, Note_on_c, 3, 60, 0
5, 30731, Note_on_c, 3, 48, 0
5, 30731, Note_on_c, 3, 64, 100
5, 30791, Note_on_c, 3, 64, 0
5, 30851, Control_c, 3, 11, 122
5, 30851, Note_on_c, 3, 67, 100
5, 30868, Control_c, 3, 11, 119
5, 30886, Control_c, 3, 11, 116
5, 30904, Control_c, 3, 11, 113
5, 30922, Control_c, 3, 11, 110
5, 30940, Control_c, 3, 11, 107
5, 30958, Control_c, 3, 11, 104
5, 30971, Note_on_c, 3, 55, 100
5, 31031, Note_on_c, 3, 55, 0
5, 31071, Note_on_c, 3, 67, 0
5, 31091, Note_on_c, 3, 65, 100
5, 31091, Note_on_c, 3, 57, 100
5, 31151, Note_on_c, 3, 57, 0
5, 31151, Note_on_c, 3, 65, 0
5, 31211, Note_on_c, 3, 62, 100
5, 31211, Note_on_c, 3, 59, 100
5, 31271, Note_on_c, 3, 59, 0
5, 31271, Note_on_c, 3, 62, 0
5, 31331, Note_on_c, 3, 60, 100
5, 31391, Note_on_c, 3, 60, 0
5, 31451, Note_on_c, 3, 55, 100
5, 31511, Note_on_c, 3, 55, 0
5, 31571, Note_on_c, 3, 52, 100
5, 31631, Note_on_c, 3, 52, 0
5, 31691, Note_on_c, 3, 48, 100
5, 31751, Note_on_c, 3, 48, 0
5, 32171, Note_on_c, 3, 63, 100
5, 32171, Note_on_c, 3, 60, 100
5, 32171, Control_c, 3, 11, 47
5, 32291, Note_on_c, 3, 60, 0
5, 32291, Note_on_c, 3, 63, 0
5, 32291, Note_on_c, 3, 62, 100
5, 32291, Note_on_c, 3, 59, 100
5, 32411, Note_on_c, 3, 59, 0
5, 32411, Note_on_c, 3, 62, 0
5, 32531, Note_on_c, 3, 60, 100
5, 32531, Note_on_c, 3, 63, 100
5, 32651, Note_on_c, 3, 63, 0
5, 32651, Note_on_c, 3, 60, 0
5, 32651, Note_on_c, 3, 59, 100
5, 32651, Note_on_c, 3, 62, 100
5, 32771, Note_on_c, 3, 62, 0
5, 32771, Note_on_c, 3, 59, 0
5, 32891, Control_c, 3, 11, 87
5, 32891, Note_on_c, 3, 60, 100
5, 32891, Note_on_c, 3, 63, 100
5, 32951, Note_on_c, 3, 63, 0
5, 32951, Note_on_c, 3, 60, 0
5, 33011, Note_on_c, 3, 62, 100
5, 33011, Note_on_c, 3, 65, 100
5, 33071, Note_on_c, 3, 65, 0
5, 33071, Note_on_c, 3, 62, 0
5, 33131, Note_on_c, 3, 63, 100
5, 33191, Note_on_c, 3, 63, 0
5, 33251, Note_on_c, 3, 51, 100
5, 33311, Note_on_c, 3, 51, 0
5, 33611, Control_c, 3, 11, 47
5, 33611, Note_on_c, 3, 56, 100
5, 33611, Note_on_c, 3, 60, 100
5, 33731, Note_on_c, 3, 60, 0
5, 33731, Note_on_c, 3, 56, 0
5, 33731, Note_on_c, 3, 55, 100
5, 33731, Note_on_c, 3, 58, 100
5, 33851, Note_on_c, 3, 58, 0
5, 33851, Note_on_c, 3, 55, 0
5, 33971, Note_on_c, 3, 56, 100
5, 33971, Note_on_c, 3, 60, 100
5, 34091, Note_on_c, 3, 60, 0
5, 34091, Note_on_c, 3, 56, 0
5, 34091, Note_on_c, 3, 58, 100
5, 34091, Note_on_c, 3, 55, 100
5, 34211, Note_on_c, 3, 55, 0
5, 34211, Note_on_c, 3, 58, 0
5, 34331, Control_c, 3, 11, 87
5, 34331, Note_on_c, 3, 57, 100
5, 34331, Note_on_c, 3, 60, 100
5, 34391, Note_on_c, 3, 60, 0
5, 34391, Note_on_c, 3, 57, 0
5, 34451, Note_on_c, 3, 59, 100
5, 34451, Note_on_c, 3, 62, 100
5, 34511, Note_on_c, 3, 62, 0
5, 34511, Note_on_c, 3, 59, 0
5, 34571, Note_on_c, 3, 60, 100
5, 34631, Note_on_c, 3, 60, 0
5, 34691, Note_on_c, 3, 48, 100
5, 34751, Note_on_c, 3, 48, 0
5, 35051, Note_on_c, 3, 53, 100
5, 35111, Note_on_c, 3, 53, 0
5, 35171, Note_on_c, 3, 55, 100
5, 35231, Note_on_c, 3, 55, 0
5, 35291, Note_on_c, 3, 56, 100
5, 35351, Note_on_c, 3, 56, 0
5, 35411, Note_on_c, 3, 44, 100
5, 35471, Note_on_c, 3, 44, 0
5, 35771, Note_on_c, 3, 54, 100
5, 35771, Control_c, 3, 11, 102
5, 35831, Note_on_c, 3, 54, 0
5, 35891, Note_on_c, 3, 54, 100
5, 35951, Note_on_c, 3, 54, 0
5, 36011, Note_on_c, 3, 54, 100
5, 36071, Note_on_c, 3, 54, 0
5, 36131, Note_on_c, 3, 54, 100
5, 36191, Note_on_c, 3, 54, 0
5, 36251, Note_on_c, 3, 54, 100
5, 36311, Note_on_c, 3, 54, 0
5, 36371, Note_on_c, 3, 53, 100
5, 36371, Control_c, 3, 11, 122
5, 36389, Control_c, 3, 11, 119
5, 36407, Control_c, 3, 11, 116
5, 36425, Control_c, 3, 11, 113
5, 36443, Control_c, 3, 11, 110
5, 36461, Control_c, 3, 11, 107
5, 36479, Control_c, 3, 11, 104
5, 36491, Note_on_c, 3, 53, 0
5, 36731, Note_on_c, 3, 54, 100
5, 36731, Control_c, 3, 11, 122
5, 36749, Control_c, 3, 11, 119
5, 36767, Control_c, 3, 11, 116
5, 36785, Control_c, 3, 11, 113
5, 36803, Control_c, 3, 11, 110
5, 36821, Control_c, 3, 11, 107
5, 36839, Control_c, 3, 11, 104
5, 36851, Note_on_c, 3, 54, 0
5, 37091, Note_on_c, 3, 56, 100
5, 37091, Control_c, 3, 11, 122
5, 37109, Control_c, 3, 11, 119
5, 37127, Control_c, 3, 11, 116
5, 37145, Control_c, 3, 11, 113
5, 37163, Control_c, 3, 11, 110
5, 37181, Control_c, 3, 11, 107
5, 37199, Control_c, 3, 11, 104
5, 37211, Note_on_c, 3, 56, 0
5, 37451, Control_c, 3, 11, 122
5, 37451, Note_on_c, 3, 44, 100
5, 37469, Control_c, 3, 11, 119
5, 37487, Control_c, 3, 11, 116
5, 37505, Control_c, 3, 11, 113
5, 37523, Control_c, 3, 11, 110
5, 37541, Control_c, 3, 11, 107
5, 37559, Control_c, 3, 11, 104
5, 37571, Note_on_c, 3, 44, 0
5, 37811, Control_c, 3, 11, 87
5, 37811, Note_on_c, 3, 49, 100
5, 37811, Note_on_c, 3, 61, 100
5, 37829, Control_c, 3, 11, 84
5, 37847, Control_c, 3, 11, 81
5, 37865, Control_c, 3, 11, 78
5, 37883, Control_c, 3, 11, 75
5, 37901, Control_c, 3, 11, 72
5, 37919, Control_c, 3, 11, 69
5, 37937, Control_c, 3, 11, 66
5, 37955, Control_c, 3, 11, 63
5, 37973, Control_c, 3, 11, 60
5, 37991, Control_c, 3, 11, 57
5, 38009, Control_c, 3, 11, 54
5, 38027, Control_c, 3, 11, 51
5, 38045, Control_c, 3, 11, 48
5, 38051, Note_on_c, 3, 61, 0
5, 38051, Note_on_c, 3, 56, 100
5, 38171, Note_on_c, 3, 56, 0
5, 38171, Note_on_c, 3, 58, 100
5, 38411, Note_on_c, 3, 58, 0
5, 38411, Note_on_c, 3, 60, 100
5, 38511, Note_on_c, 3, 60, 0
5, 38531, Note_on_c, 3, 61, 100
5, 38771, Note_on_c, 3, 61, 0
5, 38771, Note_on_c, 3, 56, 100
5, 38891, Note_on_c, 3, 56, 0
5, 38891, Note_on_c, 3, 58, 100
5, 39131, Note_on_c, 3, 58, 0
5, 39131, Note_on_c, 3, 60, 100
5, 39231, Note_on_c, 3, 60, 0
5, 39231, Note_on_c, 3, 49, 0
5, 39251, Note_on_c, 3, 49, 100
5, 39251, Note_on_c, 3, 61, 100
5, 39491, Note_on_c, 3, 61, 0
5, 39491, Note_on_c, 3, 56, 100
5, 39611, Note_on_c, 3, 56, 0
5, 39611, Note_on_c, 3, 58, 100
5, 39851, Note_on_c, 3, 58, 0
5, 39851, Note_on_c, 3, 60, 100
5, 39951, Note_on_c, 3, 60, 0
5, 39971, Note_on_c, 3, 61, 100
5, 40211, Note_on_c, 3, 61, 0
5, 40211, Note_on_c, 3, 56, 100
5, 40331, Note_on_c, 3, 56, 0
5, 40331, Note_on_c, 3, 58, 100
5, 40571, Note_on_c, 3, 58, 0
5, 40571, Note_on_c, 3, 60, 100
5, 40671, Note_on_c, 3, 60, 0
5, 40691, Note_on_c, 3, 61, 100
5, 40811, Note_on_c, 3, 61, 0
5, 40811, Note_on_c, 3, 49, 0
5, 41651, Note_on_c, 3, 57, 115
5, 41651, Control_c, 3, 11, 42
5, 41771, Note_on_c, 3, 57, 0
5, 41771, Note_on_c, 3, 58, 115
5, 42011, Control_c, 3, 11, 42
5, 42028, Control_c, 3, 11, 39
5, 42046, Control_c, 3, 11, 36
5, 42064, Control_c, 3, 11, 33
5, 42082, Control_c, 3, 11, 30
5, 42100, Control_c, 3, 11, 27
5, 42118, Control_c, 3, 11, 24
5, 42131, Note_on_c, 3, 58, 0
5, 43091, Note_on_c, 3, 58, 115
5, 43091, Control_c, 3, 11, 42
5, 43211, Note_on_c, 3, 58, 0
5, 43211, Note_on_c, 3, 59, 115
5, 43451, Control_c, 3, 11, 42
5, 43468, Control_c, 3, 11, 39
5, 43486, Control_c, 3, 11, 36
5, 43504, Control_c, 3, 11, 33
5, 43522, Control_c, 3, 11, 30
5, 43540, Control_c, 3, 11, 27
5, 43558, Control_c, 3, 11, 24
5, 43571, Note_on_c, 3, 59, 0
5, 44891, Note_on_c, 3, 52, 100
5, 44891, Note_on_c, 3, 55, 100
5, 44891, Control_c, 3, 11, 87
5, 44951, Note_on_c, 3, 55, 0
5, 44951, Note_on_c, 3, 52, 0
5, 45011, Note_on_c, 3, 53, 100
5, 45011, Note_on_c, 3, 57, 100
5, 45131, Note_on_c, 3, 57, 0
5, 45131, Note_on_c, 3, 53, 0
5, 45251, Note_on_c, 3, 50, 100
5, 45251, Note_on_c, 3, 59, 100
5, 45311, Note_on_c, 3, 59, 0
5, 45311, Note_on_c, 3, 50, 0
5, 45371, Note_on_c, 3, 60, 100
5, 45371, Note_on_c, 3, 52, 100
5, 45491, Note_on_c, 3, 52, 0
5, 45491, Note_on_c, 3, 60, 0
5, 45611, Note_on_c, 3, 62, 100
5, 45611, Note_on_c, 3, 55, 100
5, 45671, Note_on_c, 3, 55, 0
5, 45671, Note_on_c, 3, 62, 0
5, 45731, Note_on_c, 3, 64, 100
5, 45731, Note_on_c, 3, 55, 100
5, 45791, Note_on_c, 3, 55, 0
5, 45791, Note_on_c, 3, 64, 0
5, 45851, Note_on_c, 3, 64, 100
5, 45851, Note_on_c, 3, 55, 100
5, 45911, Note_on_c, 3, 55, 0
5, 45911, Note_on_c, 3, 64, 0
5, 45971, Note_on_c, 3, 66, 100
5, 45971, Note_on_c, 3, 60, 100
5, 46031, Note_on_c, 3, 60, 0
5, 46031, Note_on_c, 3, 66, 0
5, 46091, Note_on_c, 3, 67, 100
5, 46091, Control_c, 3, 11, 102
5, 46091, Note_on_c, 3, 55, 100
5, 47291, Note_on_c, 3, 55, 0
5, 47291, Note_on_c, 3, 67, 0
5, 47291, Note_on_c, 3, 45, 100
5, 47351, Note_on_c, 3, 45, 0
5, 47411, Note_on_c, 3, 50, 100
5, 47471, Note_on_c, 3, 50, 0
5, 47531, Note_on_c, 3, 47, 100
5, 47531, Control_c, 3, 11, 122
5, 47548, Control_c, 3, 11, 119
5, 47566, Control_c, 3, 11, 116
5, 47584, Control_c, 3, 11, 113
5, 47591, Note_on_c, 3, 47, 0
5, 47602, Control_c, 3, 11, 110
5, 47620, Control_c, 3, 11, 107
5, 47638, Control_c, 3, 11, 104
5, 47651, Note_on_c, 3, 43, 100
5, 47711, Note_on_c, 3, 43, 0
5, 47771, Note_on_c, 3, 45, 100
5, 47831, Note_on_c, 3, 45, 0
5, 47891, Note_on_c, 3, 46, 100
5, 47951, Note_on_c, 3, 46, 0
5, 48011, Note_on_c, 3, 43, 100
5, 48071, Note_on_c, 3, 43, 0
5, 48131, Note_on_c, 3, 48, 100
5, 48191, Note_on_c, 3, 48, 0
5, 48251, Control_c, 3, 11, 122
5, 48251, Note_on_c, 3, 45, 100
5, 48268, Control_c, 3, 11, 119
5, 48286, Control_c, 3, 11, 116
5, 48304, Control_c, 3, 11, 113
5, 48311, Note_on_c, 3, 45, 0
5, 48322, Control_c, 3, 11, 110
5, 48340, Control_c, 3, 11, 107
5, 48358, Control_c, 3, 11, 104
5, 48371, Note_on_c, 3, 41, 100
5, 48431, Note_on_c, 3, 41, 0
5, 48491, Note_on_c, 3, 52, 100
5, 48551, Note_on_c, 3, 52, 0
5, 48611, Note_on_c, 3, 53, 100
5, 48671, Note_on_c, 3, 53, 0
5, 48731, Note_on_c, 3, 50, 100
5, 48791, Note_on_c, 3, 50, 0
5, 48851, Note_on_c, 3, 55, 100
5, 48911, Note_on_c, 3, 55, 0
5, 48971, Note_on_c, 3, 52, 100
5, 49031, Note_on_c, 3, 52, 0
5, 49091, Note_on_c, 3, 48, 100
5, 49151, Note_on_c, 3, 48, 0
5, 49211, Note_on_c, 3, 53, 100
5, 49271, Note_on_c, 3, 53, 0
5, 49331, Note_on_c, 3, 43, 100
5, 49391, Note_on_c, 3, 43, 0
5, 49451, Note_on_c, 3, 55, 100
5, 49511, Note_on_c, 3, 55, 0
5, 49571, Note_on_c, 3, 55, 100
5, 49631, Note_on_c, 3, 55, 0
5, 49691, Note_on_c, 3, 48, 100
5, 49811, Note_on_c, 3, 48, 0
5, 49931, Note_on_c, 3, 60, 80
5, 49991, Note_on_c, 3, 60, 0
5, 50051, Note_on_c, 3, 61, 80
5, 50051, Control_c, 3, 11, 122
5, 50074, Control_c, 3, 11, 120
5, 50098, Control_c, 3, 11, 118
5, 50122, Control_c, 3, 11, 116
5, 50146, Control_c, 3, 11, 114
5, 50170, Control_c, 3, 11, 112
5, 50194, Control_c, 3, 11, 110
5, 50218, Control_c, 3, 11, 108
5, 50242, Control_c, 3, 11, 106
5, 50266, Control_c, 3, 11, 104
5, 50290, Control_c, 3, 11, 102
5, 50291, Note_on_c, 3, 61, 0
5, 50291, Note_on_c, 3, 59, 80
5, 50411, Note_on_c, 3, 59, 0
5, 50411, Note_on_c, 3, 60, 80
5, 50471, Note_on_c, 3, 60, 0
5, 51131, Note_on_c, 3, 60, 80
5, 51191, Note_on_c, 3, 60, 0
5, 51251, Note_on_c, 3, 61, 80
5, 51251, Control_c, 3, 11, 122
5, 51268, Control_c, 3, 11, 119
5, 51286, Control_c, 3, 11, 116
5, 51304, Control_c, 3, 11, 113
5, 51322, Control_c, 3, 11, 110
5, 51340, Control_c, 3, 11, 107
5, 51358, Control_c, 3, 11, 104
5, 51371, Note_on_c, 3, 61, 0
5, 51371, Note_on_c, 3, 59, 80
5, 51471, Note_on_c, 3, 59, 0
5, 51491, Note_on_c, 3, 60, 80
5, 51551, Note_on_c, 3, 60, 0
5, 51851, Note_on_c, 3, 60, 80
5, 51911, Note_on_c, 3, 60, 0
5, 51971, Control_c, 3, 11, 122
5, 51971, Note_on_c, 3, 61, 80
5, 51988, Control_c, 3, 11, 119
5, 52006, Control_c, 3, 11, 116
5, 52024, Control_c, 3, 11, 113
5, 52042, Control_c, 3, 11, 110
5, 52060, Control_c, 3, 11, 107
5, 52078, Control_c, 3, 11, 104
5, 52091, Note_on_c, 3, 61, 0
5, 52091, Note_on_c, 3, 59, 80
5, 52191, Note_on_c, 3, 59, 0
5, 52211, Note_on_c, 3, 60, 80
5, 52271, Note_on_c, 3, 60, 0
5, 52331, Note_on_c, 3, 62, 80
5, 52331, Control_c, 3, 11, 122
5, 52348, Control_c, 3, 11, 119
5, 52366, Control_c, 3, 11, 116
5, 52384, Control_c, 3, 11, 113
5, 52402, Control_c, 3, 11, 110
5, 52420, Control_c, 3, 11, 107
5, 52438, Control_c, 3, 11, 104
5, 52451, Note_on_c, 3, 62, 0
5, 52451, Note_on_c, 3, 59, 80
5, 52454, Control_c, 3, 11, 101
5, 52464, Control_c, 3, 11, 98
5, 52474, Control_c, 3, 11, 95
5, 52485, Control_c, 3, 11, 92
5, 52495, Control_c, 3, 11, 89
5, 52505, Control_c, 3, 11, 86
5, 52515, Control_c, 3, 11, 83
5, 52525, Control_c, 3, 11, 80
5, 52536, Control_c, 3, 11, 77
5, 52546, Control_c, 3, 11, 74
5, 52551, Note_on_c, 3, 59, 0
5, 52556, Control_c, 3, 11, 71
5, 52566, Control_c, 3, 11, 68
5, 52571, Note_on_c, 3, 48, 100
5, 52571, Note_on_c, 3, 60, 100
5, 52571, Control_c, 3, 11, 47
5, 52631, Note_on_c, 3, 60, 0
5, 52631, Note_on_c, 3, 48, 0
5, 52931, Note_on_c, 3, 55, 65
5, 53051, Note_on_c, 3, 55, 0
5, 53291, Note_on_c, 3, 60, 68
5, 53411, Note_on_c, 3, 60, 0
5, 53651, Note_on_c, 3, 55, 72
5, 53771, Note_on_c, 3, 55, 0
5, 54011, Note_on_c, 3, 48, 76
5, 54011, Control_c, 3, 11, 47
5, 54047, Control_c, 3, 11, 48
5, 54083, Control_c, 3, 11, 49
5, 54119, Control_c, 3, 11, 50
5, 54131, Note_on_c, 3, 48, 0
5, 54155, Control_c, 3, 11, 51
5, 54191, Control_c, 3, 11, 52
5, 54227, Control_c, 3, 11, 53
5, 54263, Control_c, 3, 11, 54
5, 54299, Control_c, 3, 11, 55
5, 54335, Control_c, 3, 11, 56
5, 54371, Note_on_c, 3, 43, 80
5, 54371, Control_c, 3, 11, 57
5, 54407, Control_c, 3, 11, 58
5, 54443, Control_c, 3, 11, 59
5, 54479, Control_c, 3, 11, 60
5, 54491, Note_on_c, 3, 43, 0
5, 54515, Control_c, 3, 11, 61
5, 54551, Control_c, 3, 11, 62
5, 54587, Control_c, 3, 11, 63
5, 54623, Control_c, 3, 11, 64
5, 54659, Control_c, 3, 11, 65
5, 54695, Control_c, 3, 11, 66
5, 54731, Note_on_c, 3, 48, 84
5, 54731, Control_c, 3, 11, 67
5, 54767, Control_c, 3, 11, 68
5, 54803, Control_c, 3, 11, 69
5, 54839, Control_c, 3, 11, 70
5, 54851, Note_on_c, 3, 48, 0
5, 54875, Control_c, 3, 11, 71
5, 54911, Control_c, 3, 11, 72
5, 54947, Control_c, 3, 11, 73
5, 54983, Control_c, 3, 11, 74
5, 55019, Control_c, 3, 11, 75
5, 55055, Control_c, 3, 11, 76
5, 55091, Note_on_c, 3, 55, 88
5, 55091, Control_c, 3, 11, 77
5, 55127, Control_c, 3, 11, 78
5, 55163, Control_c, 3, 11, 79
5, 55199, Control_c, 3, 11, 80
5, 55211, Note_on_c, 3, 55, 0
5, 55235, Control_c, 3, 11, 81
5, 55271, Control_c, 3, 11, 82
5, 55307, Control_c, 3, 11, 83
5, 55343, Control_c, 3, 11, 84
5, 55379, Control_c, 3, 11, 85
5, 55415, Control_c, 3, 11, 86
5, 55451, Note_on_c, 3, 48, 92
5, 55451, Control_c, 3, 11, 87
5, 55571, Note_on_c, 3, 48, 0
5, 55811, Note_on_c, 3, 43, 96
5, 55931, Note_on_c, 3, 43, 0
5, 56171, Note_on_c, 3, 60, 100
5, 56171, Note_on_c, 3, 48, 100
5, 56171, Control_c, 3, 11, 102
5, 56231, Note_on_c, 3, 60, 0
5, 56291, Note_on_c, 3, 48, 0
5, 56291, Note_on_c, 3, 64, 100
5, 56351, Note_on_c, 3, 64, 0
5, 56411, Note_on_c, 3, 67, 100
5, 56411, Control_c, 3, 11, 122
5, 56428, Control_c, 3, 11, 119
5, 56446, Control_c, 3, 11, 116
5, 56464, Control_c, 3, 11, 113
5, 56482, Control_c, 3, 11, 110
5, 56500, Control_c, 3, 11, 107
5, 56518, Control_c, 3, 11, 104
5, 56531, Note_on_c, 3, 55, 100
5, 56591, Note_on_c, 3, 55, 0
5, 56631, Note_on_c, 3, 67, 0
5, 56651, Note_on_c, 3, 65, 100
5, 56651, Note_on_c, 3, 57, 100
5, 56711, Note_on_c, 3, 57, 0
5, 56711, Note_on_c, 3, 65, 0
5, 56771, Note_on_c, 3, 62, 100
5, 56771, Note_on_c, 3, 59, 100
5, 56831, Note_on_c, 3, 59, 0
5, 56831, Note_on_c, 3, 62, 0
5, 56891, Note_on_c, 3, 60, 100
5, 56951, Note_on_c, 3, 60, 0
5, 57011, Note_on_c, 3, 55, 100
5, 57071, Note_on_c, 3, 55, 0
5, 57131, Note_on_c, 3, 52, 100
5, 57191, Note_on_c, 3, 52, 0
5, 57251, Note_on_c, 3, 48, 100
5, 57311, Note_on_c, 3, 48, 0
5, 57491, Control_c, 3, 11, 37
5, 57595, Control_c, 3, 11, 38
5, 57611, Note_on_c, 3, 60, 72
5, 57611, Note_on_c, 3, 48, 72
5, 57699, Control_c, 3, 11, 39
5, 57800, Note_on_c, 3, 48, 0
5, 57800, Note_on_c, 3, 60, 0
5, 57803, Control_c, 3, 11, 40
5, 57851, Note_on_c, 3, 48, 72
5, 57851, Note_on_c, 3, 60, 72
5, 57907, Control_c, 3, 11, 41
5, 57941, Note_on_c, 3, 60, 0
5, 57941, Note_on_c, 3, 48, 0
5, 57971, Note_on_c, 3, 60, 72
5, 57971, Note_on_c, 3, 48, 72
5, 58011, Control_c, 3, 11, 42
5, 58115, Control_c, 3, 11, 43
5, 58160, Note_on_c, 3, 48, 0
5, 58160, Note_on_c, 3, 60, 0
5, 58211, Note_on_c, 3, 48, 72
5, 58211, Note_on_c, 3, 60, 72
5, 58219, Control_c, 3, 11, 44
5, 58301, Note_on_c, 3, 60, 0
5, 58301, Note_on_c, 3, 48, 0
5, 58323, Control_c, 3, 11, 45
5, 58331, Note_on_c, 3, 48, 72
5, 58331, Note_on_c, 3, 60, 72
5, 58427, Control_c, 3, 11, 46
5, 58520, Note_on_c, 3, 60, 0
5, 58520, Note_on_c, 3, 48, 0
5, 58531, Control_c, 3, 11, 47
5, 58571, Note_on_c, 3, 60, 72
5, 58571, Note_on_c, 3, 48, 72
5, 58635, Control_c, 3, 11, 48
5, 58661, Note_on_c, 3, 48, 0
5, 58661, Note_on_c, 3, 60, 0
5, 58691, Note_on_c, 3, 48, 72
5, 58691, Note_on_c, 3, 60, 72
5, 58739, Control_c, 3, 11, 49
5, 58843, Control_c, 3, 11, 50
5, 58880, Note_on_c, 3, 60, 0
5, 58880, Note_on_c, 3, 48, 0
5, 58931, Note_on_c, 3, 60, 68
5, 58931, Note_on_c, 3, 48, 68
5, 58947, Control_c, 3, 11, 51
5, 59021, Note_on_c, 3, 48, 0
5, 59021, Note_on_c, 3, 60, 0
5, 59051, Control_c, 3, 11, 42
5, 59051, Note_on_c, 3, 60, 72
5, 59051, Note_on_c, 3, 48, 72
5, 59099, Control_c, 3, 11, 43
5, 59147, Control_c, 3, 11, 44
5, 59195, Control_c, 3, 11, 45
5, 59243, Control_c, 3, 11, 46
5, 59291, Control_c, 3, 11, 47
5, 59339, Control_c, 3, 11, 48
5, 59387, Control_c, 3, 11, 49
5, 59435, Control_c, 3, 11, 50
5, 59483, Control_c, 3, 11, 51
5, 59531, Control_c, 3, 11, 52
5, 60471, Note_on_c, 3, 48, 0
5, 60471, Note_on_c, 3, 60, 0
5, 60491, Note_on_c, 3, 43, 72
5, 60491, Control_c, 3, 11, 37
5, 60491, Note_on_c, 3, 55, 72
5, 60587, Control_c, 3, 11, 38
5, 60680, Note_on_c, 3, 55, 0
5, 60680, Note_on_c, 3, 43, 0
5, 60683, Control_c, 3, 11, 39
5, 60731, Note_on_c, 3, 55, 85
5, 60731, Note_on_c, 3, 43, 85
5, 60779, Control_c, 3, 11, 40
5, 60821, Note_on_c, 3, 43, 0
5, 60821, Note_on_c, 3, 55, 0
5, 60851, Note_on_c, 3, 55, 85
5, 60851, Note_on_c, 3, 43, 85
5, 60875, Control_c, 3, 11, 41
5, 60971, Control_c, 3, 11, 42
5, 61040, Note_on_c, 3, 43, 0
5, 61040, Note_on_c, 3, 55, 0
5, 61067, Control_c, 3, 11, 43
5, 61091, Note_on_c, 3, 43, 85
5, 61091, Note_on_c, 3, 55, 85
5, 61163, Control_c, 3, 11, 44
5, 61181, Note_on_c, 3, 55, 0
5, 61181, Note_on_c, 3, 43, 0
5, 61211, Note_on_c, 3, 43, 85
5, 61211, Note_on_c, 3, 55, 85
5, 61259, Control_c, 3, 11, 45
5, 61355, Control_c, 3, 11, 46
5, 61400, Note_on_c, 3, 55, 0
5, 61400, Note_on_c, 3, 43, 0
5, 61451, Control_c, 3, 11, 47
5, 61451, Note_on_c, 3, 55, 85
5, 61451, Note_on_c, 3, 43, 85
5, 61541, Note_on_c, 3, 43, 0
5, 61541, Note_on_c, 3, 55, 0
5, 61547, Control_c, 3, 11, 48
5, 61571, Note_on_c, 3, 55, 85
5, 61571, Note_on_c, 3, 43, 85
5, 61643, Control_c, 3, 11, 49
5, 61739, Control_c, 3, 11, 50
5, 61760, Note_on_c, 3, 43, 0
5, 61760, Note_on_c, 3, 55, 0
5, 61811, Note_on_c, 3, 55, 80
5, 61811, Note_on_c, 3, 43, 80
5, 61835, Control_c, 3, 11, 51
5, 61901, Note_on_c, 3, 43, 0
5, 61901, Note_on_c, 3, 55, 0
5, 61931, Note_on_c, 3, 57, 85
5, 61931, Control_c, 3, 11, 42
5, 61931, Note_on_c, 3, 50, 85
5, 61979, Control_c, 3, 11, 43
5, 62027, Control_c, 3, 11, 44
5, 62075, Control_c, 3, 11, 45
5, 62123, Control_c, 3, 11, 46
5, 62171, Control_c, 3, 11, 47
5, 62219, Control_c, 3, 11, 48
5, 62267, Control_c, 3, 11, 49
5, 62315, Control_c, 3, 11, 50
5, 62363, Control_c, 3, 11, 51
5, 62411, Control_c, 3, 11, 52
5, 63351, Note_on_c, 3, 50, 0
5, 63351, Note_on_c, 3, 57, 0
5, 63371, Note_on_c, 3, 55, 72
5, 63371, Note_on_c, 3, 43, 72
5, 63491, Note_on_c, 3, 43, 0
5, 63491, Note_on_c, 3, 55, 0
5, 64691, Note_on_c, 3, 48, 85
5, 64691, Note_on_c, 3, 60, 85
5, 64781, Note_on_c, 3, 60, 0
5, 64781, Note_on_c, 3, 48, 0
5, 64811, Note_on_c, 3, 62, 85
5, 64811, Note_on_c, 3, 50, 85
5, 65000, Note_on_c, 3, 50, 0
5, 65000, Note_on_c, 3, 62, 0
5, 65051, Note_on_c, 3, 50, 85
5, 65051, Note_on_c, 3, 62, 85
5, 65141, Note_on_c, 3, 62, 0
5, 65141, Note_on_c, 3, 50, 0
5, 65171, Note_on_c, 3, 62, 85
5, 65171, Note_on_c, 3, 50, 85
5, 65360, Note_on_c, 3, 50, 0
5, 65360, Note_on_c, 3, 62, 0
5, 65411, Note_on_c, 3, 62, 85
5, 65411, Note_on_c, 3, 50, 85
5, 65501, Note_on_c, 3, 50, 0
5, 65501, Note_on_c, 3, 62, 0
5, 65531, Note_on_c, 3, 62, 85
5, 65531, Note_on_c, 3, 55, 85
5, 66011, Note_on_c, 3, 55, 0
5, 66011, Note_on_c, 3, 62, 0
5, 66131, Control_c, 3, 11, 37
5, 66235, Control_c, 3, 11, 38
5, 66251, Note_on_c, 3, 60, 72
5, 66251, Note_on_c, 3, 48, 72
5, 66339, Control_c, 3, 11, 39
5, 66440, Note_on_c, 3, 48, 0
5, 66440, Note_on_c, 3, 60, 0
5, 66443, Control_c, 3, 11, 40
5, 66491, Note_on_c, 3, 60, 72
5, 66491, Note_on_c, 3, 48, 72
5, 66547, Control_c, 3, 11, 41
5, 66581, Note_on_c, 3, 48, 0
5, 66581, Note_on_c, 3, 60, 0
5, 66611, Note_on_c, 3, 48, 72
5, 66611, Note_on_c, 3, 60, 72
5, 66651, Control_c, 3, 11, 42
5, 66755, Control_c, 3, 11, 43
5, 66800, Note_on_c, 3, 60, 0
5, 66800, Note_on_c, 3, 48, 0
5, 66851, Note_on_c, 3, 60, 72
5, 66851, Note_on_c, 3, 48, 72
5, 66859, Control_c, 3, 11, 44
5, 66941, Note_on_c, 3, 48, 0
5, 66941, Note_on_c, 3, 60, 0
5, 66963, Control_c, 3, 11, 45
5, 66971, Note_on_c, 3, 60, 72
5, 66971, Note_on_c, 3, 48, 72
5, 67067, Control_c, 3, 11, 46
5, 67160, Note_on_c, 3, 48, 0
5, 67160, Note_on_c, 3, 60, 0
5, 67171, Control_c, 3, 11, 47
5, 67211, Note_on_c, 3, 48, 72
5, 67211, Note_on_c, 3, 60, 72
5, 67275, Control_c, 3, 11, 48
5, 67301, Note_on_c, 3, 60, 0
5, 67301, Note_on_c, 3, 48, 0
5, 67331, Note_on_c, 3, 60, 72
5, 67331, Note_on_c, 3, 48, 72
5, 67379, Control_c, 3, 11, 49
5, 67483, Control_c, 3, 11, 50
5, 67520, Note_on_c, 3, 48, 0
5, 67520, Note_on_c, 3, 60, 0
5, 67571, Note_on_c, 3, 48, 68
5, 67571, Note_on_c, 3, 60, 68
5, 67587, Control_c, 3, 11, 51
5, 67661, Note_on_c, 3, 60, 0
5, 67661, Note_on_c, 3, 48, 0
5, 67691, Note_on_c, 3, 48, 72
5, 67691, Control_c, 3, 11, 42
5, 67691, Note_on_c, 3, 60, 72
5, 67739, Control_c, 3, 11, 43
5, 67787, Control_c, 3, 11, 44
5, 67835, Control_c, 3, 11, 45
5, 67883, Control_c, 3, 11, 46
5, 67931, Control_c, 3, 11, 47
5, 67979, Control_c, 3, 11, 48
5, 68027, Control_c, 3, 11, 49
5, 68075, Control_c, 3, 11, 50
5, 68123, Control_c, 3, 11, 51
5, 68171, Control_c, 3, 11, 52
5, 69111, Note_on_c, 3, 60, 0
5, 69111, Note_on_c, 3, 48, 0
5, 69131, Note_on_c, 3, 43, 72
5, 69131, Control_c, 3, 11, 37
5, 69131, Note_on_c, 3, 55, 72
5, 69227, Control_c, 3, 11, 38
5, 69320, Note_on_c, 3, 55, 0
5, 69320, Note_on_c, 3, 43, 0
5, 69323, Control_c, 3, 11, 39
5, 69371, Note_on_c, 3, 55, 85
5, 69371, Note_on_c, 3, 43, 85
5, 69419, Control_c, 3, 11, 40
5, 69461, Note_on_c, 3, 43, 0
5, 69461, Note_on_c, 3, 55, 0
5, 69491, Note_on_c, 3, 43, 85
5, 69491, Note_on_c, 3, 55, 85
5, 69515, Control_c, 3, 11, 41
5, 69611, Control_c, 3, 11, 42
5, 69680, Note_on_c, 3, 55, 0
5, 69680, Note_on_c, 3, 43, 0
5, 69707, Control_c, 3, 11, 43
5, 69731, Note_on_c, 3, 43, 85
5, 69731, Note_on_c, 3, 55, 85
5, 69803, Control_c, 3, 11, 44
5, 69821, Note_on_c, 3, 55, 0
5, 69821, Note_on_c, 3, 43, 0
5, 69851, Note_on_c, 3, 55, 85
5, 69851, Note_on_c, 3, 43, 85
5, 69899, Control_c, 3, 11, 45
5, 69995, Control_c, 3, 11, 46
5, 70040, Note_on_c, 3, 43, 0
5, 70040, Note_on_c, 3, 55, 0
5, 70091, Note_on_c, 3, 43, 85
5, 70091, Note_on_c, 3, 55, 85
5, 70091, Control_c, 3, 11, 47
5, 70181, Note_on_c, 3, 55, 0
5, 70181, Note_on_c, 3, 43, 0
5, 70187, Control_c, 3, 11, 48
5, 70211, Note_on_c, 3, 43, 85
5, 70211, Note_on_c, 3, 55, 85
5, 70283, Control_c, 3, 11, 49
5, 70379, Control_c, 3, 11, 50
5, 70400, Note_on_c, 3, 55, 0
5, 70400, Note_on_c, 3, 43, 0
5, 70451, Note_on_c, 3, 55, 80
5, 70451, Note_on_c, 3, 43, 80
5, 70475, Control_c, 3, 11, 51
5, 70541, Note_on_c, 3, 43, 0
5, 70541, Note_on_c, 3, 55, 0
5, 70571, Control_c, 3, 11, 42
5, 70571, Note_on_c, 3, 50, 85
5, 70571, Note_on_c, 3, 57, 85
5, 70619, Control_c, 3, 11, 43
5, 70667, Control_c, 3, 11, 44
5, 70715, Control_c, 3, 11, 45
5, 70763, Control_c, 3, 11, 46
5, 70811, Control_c, 3, 11, 47
5, 70859, Control_c, 3, 11, 48
5, 70907, Control_c, 3, 11, 49
5, 70955, Control_c, 3, 11, 50
5, 71003, Control_c, 3, 11, 51
5, 71051, Control_c, 3, 11, 52
5, 71991, Note_on_c, 3, 57, 0
5, 71991, Note_on_c, 3, 50, 0
5, 72011, Note_on_c, 3, 55, 72
5, 72011, Note_on_c, 3, 43, 72
5, 72131, Note_on_c, 3, 43, 0
5, 72131, Note_on_c, 3, 55, 0
5, 73331, Note_on_c, 3, 48, 85
5, 73331, Note_on_c, 3, 60, 85
5, 73421, Note_on_c, 3, 60, 0
5, 73421, Note_on_c, 3, 48, 0
5, 73451, Note_on_c, 3, 62, 85
5, 73451, Note_on_c, 3, 50, 85
5, 73640, Note_on_c, 3, 50, 0
5, 73640, Note_on_c, 3, 62, 0
5, 73691, Note_on_c, 3, 50, 85
5, 73691, Note_on_c, 3, 62, 85
5, 73781, Note_on_c, 3, 62, 0
5, 73781, Note_on_c, 3, 50, 0
5, 73811, Note_on_c, 3, 62, 85
5, 73811, Note_on_c, 3, 50, 85
5, 74000, Note_on_c, 3, 50, 0
5, 74000, Note_on_c, 3, 62, 0
5, 74051, Note_on_c, 3, 62, 85
5, 74051, Note_on_c, 3, 50, 85
5, 74141, Note_on_c, 3, 50, 0
5, 74141, Note_on_c, 3, 62, 0
5, 74171, Note_on_c, 3, 55, 85
5, 74171, Note_on_c, 3, 62, 85
5, 74651, Note_on_c, 3, 62, 0
5, 74651, Note_on_c, 3, 55, 0
5, 81731, Note_on_c, 3, 60, 78
5, 81731, Control_c, 3, 11, 47
5, 81731, Note_on_c, 3, 64, 78
5, 81920, Note_on_c, 3, 64, 0
5, 81920, Note_on_c, 3, 60, 0
5, 81971, Note_on_c, 3, 64, 78
5, 81971, Note_on_c, 3, 60, 78
5, 82061, Note_on_c, 3, 60, 0
5, 82061, Note_on_c, 3, 64, 0
5, 82091, Note_on_c, 3, 64, 78
5, 82091, Control_c, 3, 11, 47
5, 82091, Note_on_c, 3, 60, 78
5, 82117, Control_c, 3, 11, 49
5, 82143, Control_c, 3, 11, 51
5, 82169, Control_c, 3, 11, 53
5, 82195, Control_c, 3, 11, 55
5, 82221, Control_c, 3, 11, 57
5, 82248, Control_c, 3, 11, 59
5, 82274, Control_c, 3, 11, 61
5, 82280, Note_on_c, 3, 60, 0
5, 82280, Note_on_c, 3, 64, 0
5, 82300, Control_c, 3, 11, 63
5, 82326, Control_c, 3, 11, 65
5, 82331, Note_on_c, 3, 60, 78
5, 82331, Note_on_c, 3, 64, 78
5, 82352, Control_c, 3, 11, 67
5, 82379, Control_c, 3, 11, 69
5, 82405, Control_c, 3, 11, 71
5, 82421, Note_on_c, 3, 64, 0
5, 82421, Note_on_c, 3, 60, 0
5, 82431, Control_c, 3, 11, 73
5, 82451, Note_on_c, 3, 60, 78
5, 82451, Note_on_c, 3, 64, 78
5, 82457, Control_c, 3, 11, 75
5, 82483, Control_c, 3, 11, 77
5, 82509, Control_c, 3, 11, 79
5, 82536, Control_c, 3, 11, 81
5, 82562, Control_c, 3, 11, 83
5, 82588, Control_c, 3, 11, 85
5, 82614, Control_c, 3, 11, 87
5, 82640, Note_on_c, 3, 64, 0
5, 82640, Note_on_c, 3, 60, 0
5, 82640, Control_c, 3, 11, 89
5, 82667, Control_c, 3, 11, 91
5, 82691, Note_on_c, 3, 64, 78
5, 82691, Note_on_c, 3, 60, 78
5, 82693, Control_c, 3, 11, 93
5, 82719, Control_c, 3, 11, 95
5, 82745, Control_c, 3, 11, 97
5, 82771, Control_c, 3, 11, 99
5, 82781, Note_on_c, 3, 60, 0
5, 82781, Note_on_c, 3, 64, 0
5, 82797, Control_c, 3, 11, 101
5, 82811, Note_on_c, 3, 60, 78
5, 82811, Note_on_c, 3, 64, 78
5, 83000, Note_on_c, 3, 64, 0
5, 83000, Note_on_c, 3, 60, 0
5, 83051, Note_on_c, 3, 60, 78
5, 83141, Note_on_c, 3, 60, 0
5, 83171, Control_c, 3, 11, 122
5, 83171, Note_on_c, 3, 41, 78
5, 83171, Note_on_c, 3, 53, 78
5, 83194, Control_c, 3, 11, 120
5, 83218, Control_c, 3, 11, 118
5, 83242, Control_c, 3, 11, 116
5, 83266, Control_c, 3, 11, 114
5, 83290, Control_c, 3, 11, 112
5, 83314, Control_c, 3, 11, 110
5, 83338, Control_c, 3, 11, 108
5, 83362, Control_c, 3, 11, 106
5, 83386, Control_c, 3, 11, 104
5, 83410, Control_c, 3, 11, 102
5, 83531, Note_on_c, 3, 53, 0
5, 83531, Note_on_c, 3, 41, 0
5, 83531, Note_on_c, 3, 55, 78
5, 83531, Note_on_c, 3, 43, 78
5, 83756, Note_on_c, 3, 43, 0
5, 83756, Note_on_c, 3, 55, 0
5, 83771, Note_on_c, 3, 43, 78
5, 83771, Note_on_c, 3, 55, 78
5, 83831, Note_on_c, 3, 55, 0
5, 83831, Note_on_c, 3, 43, 0
5, 83891, Note_on_c, 3, 43, 78
5, 83891, Control_c, 3, 11, 122
5, 83891, Note_on_c, 3, 55, 78
5, 83914, Control_c, 3, 11, 120
5, 83938, Control_c, 3, 11, 118
5, 83962, Control_c, 3, 11, 116
5, 83986, Control_c, 3, 11, 114
5, 84010, Control_c, 3, 11, 112
5, 84034, Control_c, 3, 11, 110
5, 84058, Control_c, 3, 11, 108
5, 84082, Control_c, 3, 11, 106
5, 84106, Control_c, 3, 11, 104
5, 84130, Control_c, 3, 11, 102
5, 84251, Note_on_c, 3, 55, 0
5, 84251, Note_on_c, 3, 43, 0
5, 84251, Note_on_c, 3, 48, 78
5, 84251, Note_on_c, 3, 60, 78
5, 84476, Note_on_c, 3, 60, 0
5, 84476, Note_on_c, 3, 48, 0
5, 84491, Note_on_c, 3, 48, 78
5, 84491, Note_on_c, 3, 60, 78
5, 84551, Note_on_c, 3, 60, 0
5, 84551, Note_on_c, 3, 48, 0
5, 84611, Control_c, 3, 11, 122
5, 84611, Note_on_c, 3, 41, 78
5, 84611, Note_on_c, 3, 53, 78
5, 84634, Control_c, 3, 11, 120
5, 84658, Control_c, 3, 11, 118
5, 84682, Control_c, 3, 11, 116
5, 84706, Control_c, 3, 11, 114
5, 84730, Control_c, 3, 11, 112
5, 84754, Control_c, 3, 11, 110
5, 84778, Control_c, 3, 11, 108
5, 84802, Control_c, 3, 11, 106
5, 84826, Control_c, 3, 11, 104
5, 84850, Control_c, 3, 11, 102
5, 84971, Note_on_c, 3, 53, 0
5, 84971, Note_on_c, 3, 41, 0
5, 84971, Note_on_c, 3, 55, 78
5, 84971, Note_on_c, 3, 43, 78
5, 85196, Note_on_c, 3, 43, 0
5, 85196, Note_on_c, 3, 55, 0
5, 85211, Note_on_c, 3, 43, 78
5, 85211, Note_on_c, 3, 55, 78
5, 85271, Note_on_c, 3, 55, 0
5, 85271, Note_on_c, 3, 43, 0
5, 85331, Control_c, 3, 11, 122
5, 85331, Note_on_c, 3, 43, 78
5, 85331, Note_on_c, 3, 55, 78
5, 85354, Control_c, 3, 11, 120
5, 85378, Control_c, 3, 11, 118
5, 85402, Control_c, 3, 11, 116
5, 85426, Control_c, 3, 11, 114
5, 85450, Control_c, 3, 11, 112
5, 85474, Control_c, 3, 11, 110
5, 85498, Control_c, 3, 11, 108
5, 85522, Control_c, 3, 11, 106
5, 85546, Control_c, 3, 11, 104
5, 85570, Control_c, 3, 11, 102
5, 85691, Note_on_c, 3, 55, 0
5, 85691, Note_on_c, 3, 43, 0
5, 85691, Note_on_c, 3, 60, 78
5, 85691, Note_on_c, 3, 48, 78
5, 85751, Note_on_c, 3, 48, 0
5, 85751, Note_on_c, 3, 60, 0
5, 85811, Note_on_c, 3, 55, 78
5, 85811, Note_on_c, 3, 43, 78
5, 85811, Control_c, 3, 11, 122
5, 85834, Control_c, 3, 11, 120
5, 85858, Control_c, 3, 11, 118
5, 85882, Control_c, 3, 11, 116
5, 85906, Control_c, 3, 11, 114
5, 85930, Control_c, 3, 11, 112
5, 85954, Control_c, 3, 11, 110
5, 85978, Control_c, 3, 11, 108
5, 86002, Control_c, 3, 11, 106
5, 86026, Control_c, 3, 11, 104
5, 86036, Note_on_c, 3, 43, 0
5, 86036, Note_on_c, 3, 55, 0
5, 86050, Control_c, 3, 11, 102
5, 86051, Note_on_c, 3, 48, 78
5, 86051, Note_on_c, 3, 60, 78
5, 86111, Note_on_c, 3, 60, 0
5, 86111, Note_on_c, 3, 48, 0
5, 86171, Control_c, 3, 11, 122
5, 86171, Note_on_c, 3, 43, 78
5, 86171, Note_on_c, 3, 55, 78
5, 86194, Control_c, 3, 11, 120
5, 86218, Control_c, 3, 11, 118
5, 86242, Control_c, 3, 11, 116
5, 86266, Control_c, 3, 11, 114
5, 86290, Control_c, 3, 11, 112
5, 86314, Control_c, 3, 11, 110
5, 86338, Control_c, 3, 11, 108
5, 86362, Control_c, 3, 11, 106
5, 86386, Control_c, 3, 11, 104
5, 86396, Note_on_c, 3, 55, 0
5, 86396, Note_on_c, 3, 43, 0
5, 86410, Control_c, 3, 11, 102
5, 86411, Control_c, 3, 11, 122
5, 86411, Note_on_c, 3, 55, 78
5, 86411, Note_on_c, 3, 43, 78
5, 86434, Control_c, 3, 11, 120
5, 86458, Control_c, 3, 11, 118
5, 86482, Control_c, 3, 11, 116
5, 86506, Control_c, 3, 11, 114
5, 86530, Control_c, 3, 11, 112
5, 86554, Control_c, 3, 11, 110
5, 86578, Control_c, 3, 11, 108
5, 86602, Control_c, 3, 11, 106
5, 86626, Control_c, 3, 11, 104
5, 86650, Control_c, 3, 11, 102
5, 86771, Note_on_c, 3, 43, 0
5, 86771, Note_on_c, 3, 55, 0
5, 86771, Note_on_c, 3, 48, 78
5, 86771, Note_on_c, 3, 60, 78
5, 86891, Note_on_c, 3, 60, 0
5, 86891, Note_on_c, 3, 48, 0
5, 93971, Note_on_c, 3, 60, 78
5, 93971, Control_c, 3, 11, 47
5, 93971, Note_on_c, 3, 64, 78
5, 94160, Note_on_c, 3, 64, 0
5, 94160, Note_on_c, 3, 60, 0
5, 94211, Note_on_c, 3, 64, 78
5, 94211, Note_on_c, 3, 60, 78
5, 94301, Note_on_c, 3, 60, 0
5, 94301, Note_on_c, 3, 64, 0
5, 94331, Note_on_c, 3, 64, 78
5, 94331, Control_c, 3, 11, 47
5, 94331, Note_on_c, 3, 60, 78
5, 94357, Control_c, 3, 11, 49
5, 94383, Control_c, 3, 11, 51
5, 94409, Control_c, 3, 11, 53
5, 94435, Control_c, 3, 11, 55
5, 94461, Control_c, 3, 11, 57
5, 94488, Control_c, 3, 11, 59
5, 94514, Control_c, 3, 11, 61
5, 94520, Note_on_c, 3, 60, 0
5, 94520, Note_on_c, 3, 64, 0
5, 94540, Control_c, 3, 11, 63
5, 94566, Control_c, 3, 11, 65
5, 94571, Note_on_c, 3, 64, 78
5, 94571, Note_on_c, 3, 60, 78
5, 94592, Control_c, 3, 11, 67
5, 94619, Control_c, 3, 11, 69
5, 94645, Control_c, 3, 11, 71
5, 94661, Note_on_c, 3, 60, 0
5, 94661, Note_on_c, 3, 64, 0
5, 94671, Control_c, 3, 11, 73
5, 94691, Note_on_c, 3, 60, 78
5, 94691, Note_on_c, 3, 64, 78
5, 94697, Control_c, 3, 11, 75
5, 94723, Control_c, 3, 11, 77
5, 94749, Control_c, 3, 11, 79
5, 94776, Control_c, 3, 11, 81
5, 94802, Control_c, 3, 11, 83
5, 94828, Control_c, 3, 11, 85
5, 94854, Control_c, 3, 11, 87
5, 94880, Note_on_c, 3, 64, 0
5, 94880, Note_on_c, 3, 60, 0
5, 94880, Control_c, 3, 11, 89
5, 94907, Control_c, 3, 11, 91
5, 94931, Note_on_c, 3, 64, 78
5, 94931, Note_on_c, 3, 60, 78
5, 94933, Control_c, 3, 11, 93
5, 94959, Control_c, 3, 11, 95
5, 94985, Control_c, 3, 11, 97
5, 95011, Control_c, 3, 11, 99
5, 95021, Note_on_c, 3, 60, 0
5, 95021, Note_on_c, 3, 64, 0
5, 95037, Control_c, 3, 11, 101
5, 95051, Note_on_c, 3, 64, 78
5, 95051, Note_on_c, 3, 60, 78
5, 95240, Note_on_c, 3, 60, 0
5, 95240, Note_on_c, 3, 64, 0
5, 95291, Note_on_c, 3, 60, 78
5, 95381, Note_on_c, 3, 60, 0
5, 95411, Note_on_c, 3, 53, 78
5, 95411, Note_on_c, 3, 41, 78
5, 95411, Control_c, 3, 11, 122
5, 95434, Control_c, 3, 11, 120
5, 95458, Control_c, 3, 11, 118
5, 95482, Control_c, 3, 11, 116
5, 95506, Control_c, 3, 11, 114
5, 95530, Control_c, 3, 11, 112
5, 95554, Control_c, 3, 11, 110
5, 95578, Control_c, 3, 11, 108
5, 95602, Control_c, 3, 11, 106
5, 95626, Control_c, 3, 11, 104
5, 95650, Control_c, 3, 11, 102
5, 95771, Note_on_c, 3, 41, 0
5, 95771, Note_on_c, 3, 53, 0
5, 95771, Note_on_c, 3, 55, 78
5, 95771, Note_on_c, 3, 43, 78
5, 95996, Note_on_c, 3, 43, 0
5, 95996, Note_on_c, 3, 55, 0
5, 96011, Note_on_c, 3, 55, 78
5, 96011, Note_on_c, 3, 43, 78
5, 96071, Note_on_c, 3, 43, 0
5, 96071, Note_on_c, 3, 55, 0
5, 96131, Control_c, 3, 11, 122
5, 96131, Note_on_c, 3, 55, 78
5, 96131, Note_on_c, 3, 43, 78
5, 96154, Control_c, 3, 11, 120
5, 96178, Control_c, 3, 11, 118
5, 96202, Control_c, 3, 11, 116
5, 96226, Control_c, 3, 11, 114
5, 96250, Control_c, 3, 11, 112
5, 96274, Control_c, 3, 11, 110
5, 96298, Control_c, 3, 11, 108
5, 96322, Control_c, 3, 11, 106
5, 96346, Control_c, 3, 11, 104
5, 96370, Control_c, 3, 11, 102
5, 96491, Note_on_c, 3, 43, 0
5, 96491, Note_on_c, 3, 55, 0
5, 96491, Note_on_c, 3, 60, 78
5, 96491, Note_on_c, 3, 48, 78
5, 96716, Note_on_c, 3, 48, 0
5, 96716, Note_on_c, 3, 60, 0
5, 96731, Note_on_c, 3, 60, 78
5, 96731, Note_on_c, 3, 48, 78
5, 96791, Note_on_c, 3, 48, 0
5, 96791, Note_on_c, 3, 60, 0
5, 96851, Note_on_c, 3, 53, 78
5, 96851, Control_c, 3, 11, 122
5, 96851, Note_on_c, 3, 41, 78
5, 96874, Control_c, 3, 11, 120
5, 96898, Control_c, 3, 11, 118
5, 96922, Control_c, 3, 11, 116
5, 96946, Control_c, 3, 11, 114
5, 96970, Control_c, 3, 11, 112
5, 96994, Control_c, 3, 11, 110
5, 97018, Control_c, 3, 11, 108
5, 97042, Control_c, 3, 11, 106
5, 97066, Control_c, 3, 11, 104
5, 97090, Control_c, 3, 11, 102
5, 97211, Note_on_c, 3, 41, 0
5, 97211, Note_on_c, 3, 53, 0
5, 97211, Note_on_c, 3, 43, 78
5, 97211, Note_on_c, 3, 55, 78
5, 97436, Note_on_c, 3, 55, 0
5, 97436, Note_on_c, 3, 43, 0
5, 97451, Note_on_c, 3, 43, 78
5, 97451, Note_on_c, 3, 55, 78
5, 97511, Note_on_c, 3, 55, 0
5, 97511, Note_on_c, 3, 43, 0
5, 97571, Control_c, 3, 11, 122
5, 97571, Note_on_c, 3, 43, 78
5, 97571, Note_on_c, 3, 55, 78
5, 97594, Control_c, 3, 11, 120
5, 97618, Control_c, 3, 11, 118
5, 97642, Control_c, 3, 11, 116
5, 97666, Control_c, 3, 11, 114
5, 97690, Control_c, 3, 11, 112
5, 97714, Control_c, 3, 11, 110
5, 97738, Control_c, 3, 11, 108
5, 97762, Control_c, 3, 11, 106
5, 97786, Control_c, 3, 11, 104
5, 97810, Control_c, 3, 11, 102
5, 97931, Note_on_c, 3, 55, 0
5, 97931, Note_on_c, 3, 43, 0
5, 97931, Note_on_c, 3, 48, 78
5, 97931, Note_on_c, 3, 60, 78
5, 97991, Note_on_c, 3, 60, 0
5, 97991, Note_on_c, 3, 48, 0
5, 98051, Note_on_c, 3, 55, 78
5, 98051, Control_c, 3, 11, 122
5, 98051, Note_on_c, 3, 43, 78
5, 98074, Control_c, 3, 11, 120
5, 98098, Control_c, 3, 11, 118
5, 98122, Control_c, 3, 11, 116
5, 98146, Control_c, 3, 11, 114
5, 98170, Control_c, 3, 11, 112
5, 98194, Control_c, 3, 11, 110
5, 98218, Control_c, 3, 11, 108
5, 98242, Control_c, 3, 11, 106
5, 98266, Control_c, 3, 11, 104
5, 98276, Note_on_c, 3, 43, 0
5, 98276, Note_on_c, 3, 55, 0
5, 98290, Control_c, 3, 11, 102
5, 98291, Note_on_c, 3, 60, 78
5, 98291, Note_on_c, 3, 48, 78
5, 98351, Note_on_c, 3, 48, 0
5, 98351, Note_on_c, 3, 60, 0
5, 98411, Note_on_c, 3, 55, 78
5, 98411, Control_c, 3, 11, 122
5, 98411, Note_on_c, 3, 43, 78
5, 98434, Control_c, 3, 11, 120
5, 98458, Control_c, 3, 11, 118
5, 98482, Control_c, 3, 11, 116
5, 98506, Control_c, 3, 11, 114
5, 98530, Control_c, 3, 11, 112
5, 98554, Control_c, 3, 11, 110
5, 98578, Control_c, 3, 11, 108
5, 98602, Control_c, 3, 11, 106
5, 98626, Control_c, 3, 11, 104
5, 98636, Note_on_c, 3, 43, 0
5, 98636, Note_on_c, 3, 55, 0
5, 98650, Control_c, 3, 11, 102
5, 98651, Note_on_c, 3, 43, 78
5, 98651, Note_on_c, 3, 55, 78
5, 98651, Control_c, 3, 11, 122
5, 98674, Control_c, 3, 11, 120
5, 98698, Control_c, 3, 11, 118
5, 98722, Control_c, 3, 11, 116
5, 98746, Control_c, 3, 11, 114
5, 98770, Control_c, 3, 11, 112
5, 98794, Control_c, 3, 11, 110
5, 98818, Control_c, 3, 11, 108
5, 98842, Control_c, 3, 11, 106
5, 98866, Control_c, 3, 11, 104
5, 98890, Control_c, 3, 11, 102
5, 99011, Note_on_c, 3, 55, 0
5, 99011, Note_on_c, 3, 43, 0
5, 99011, Note_on_c, 3, 48, 78
5, 99011, Note_on_c, 3, 60, 78
5, 99131, Note_on_c, 3, 60, 0
5, 99131, Note_on_c, 3, 48, 0
5, 101411, Note_on_c, 3, 61, 100
5, 101411, Note_on_c, 3, 49, 100
5, 101411, Control_c, 3, 11, 87
5, 101471, Note_on_c, 3, 49, 0
5, 101471, Note_on_c, 3, 61, 0
5, 101531, Note_on_c, 3, 50, 100
5, 101531, Note_on_c, 3, 62, 100
5, 101591, Note_on_c, 3, 62, 0
5, 101591, Note_on_c, 3, 50, 0
5, 101651, Note_on_c, 3, 62, 100
5, 101651, Note_on_c, 3, 50, 100
5, 101711, Note_on_c, 3, 50, 0
5, 101711, Note_on_c, 3, 62, 0
5, 101771, Note_on_c, 3, 50, 100
5, 101771, Note_on_c, 3, 62, 100
5, 101831, Note_on_c, 3, 62, 0
5, 101831, Note_on_c, 3, 50, 0
5, 101891, Note_on_c, 3, 43, 100
5, 101891, Note_on_c, 3, 55, 100
5, 102011, Note_on_c, 3, 55, 0
5, 102011, Note_on_c, 3, 43, 0
5, 104291, Control_c, 3, 11, 87
5, 104291, Note_on_c, 3, 49, 100
5, 104291, Note_on_c, 3, 61, 100
5, 104351, Note_on_c, 3, 61, 0
5, 104351, Note_on_c, 3, 49, 0
5, 104411, Note_on_c, 3, 50, 100
5, 104411, Note_on_c, 3, 62, 100
5, 104471, Note_on_c, 3, 62, 0
5, 104471, Note_on_c, 3, 50, 0
5, 104531, Note_on_c, 3, 62, 100
5, 104531, Note_on_c, 3, 50, 100
5, 104591, Note_on_c, 3, 50, 0
5, 104591, Note_on_c, 3, 62, 0
5, 104651, Note_on_c, 3, 62, 100
5, 104651, Note_on_c, 3, 50, 100
5, 104711, Note_on_c, 3, 50, 0
5, 104711, Note_on_c, 3, 62, 0
5, 104771, Note_on_c, 3, 43, 100
5, 104771, Note_on_c, 3, 55, 100
5, 104891, Note_on_c, 3, 55, 0
5, 104891, Note_on_c, 3, 43, 0
5, 105251, Note_on_c, 3, 60, 100
5, 105251, Note_on_c, 3, 63, 100
5, 105251, Control_c, 3, 11, 47
5, 105371, Note_on_c, 3, 63, 0
5, 105371, Note_on_c, 3, 60, 0
5, 105371, Note_on_c, 3, 59, 100
5, 105371, Note_on_c, 3, 62, 100
5, 105491, Note_on_c, 3, 62, 0
5, 105491, Note_on_c, 3, 59, 0
5, 105611, Note_on_c, 3, 60, 100
5, 105611, Note_on_c, 3, 63, 100
5, 105731, Note_on_c, 3, 63, 0
5, 105731, Note_on_c, 3, 60, 0
5, 105731, Note_on_c, 3, 59, 100
5, 105731, Note_on_c, 3, 62, 100
5, 105851, Note_on_c, 3, 62, 0
5, 105851, Note_on_c, 3, 59, 0
5, 105971, Control_c, 3, 11, 87
5, 105971, Note_on_c, 3, 63, 100
5, 105971, Note_on_c, 3, 60, 100
5, 106031, Note_on_c, 3, 60, 0
5, 106031, Note_on_c, 3, 63, 0
5, 106091, Note_on_c, 3, 65, 100
5, 106091, Note_on_c, 3, 62, 100
5, 106151, Note_on_c, 3, 62, 0
5, 106151, Note_on_c, 3, 65, 0
5, 106211, Note_on_c, 3, 63, 100
5, 106271, Note_on_c, 3, 63, 0
5, 106331, Note_on_c, 3, 51, 100
5, 106391, Note_on_c, 3, 51, 0
5, 106691, Note_on_c, 3, 60, 100
5, 106691, Note_on_c, 3, 56, 100
5, 106691, Control_c, 3, 11, 47
5, 106811, Note_on_c, 3, 56, 0
5, 106811, Note_on_c, 3, 60, 0
5, 106811, Note_on_c, 3, 55, 100
5, 106811, Note_on_c, 3, 58, 100
5, 106931, Note_on_c, 3, 58, 0
5, 106931, Note_on_c, 3, 55, 0
5, 107051, Note_on_c, 3, 56, 100
5, 107051, Note_on_c, 3, 60, 100
5, 107171, Note_on_c, 3, 60, 0
5, 107171, Note_on_c, 3, 56, 0
5, 107171, Note_on_c, 3, 55, 100
5, 107171, Note_on_c, 3, 58, 100
5, 107291, Note_on_c, 3, 58, 0
5, 107291, Note_on_c, 3, 55, 0
5, 107411, Note_on_c, 3, 60, 100
5, 107411, Note_on_c, 3, 57, 100
5, 107411, Control_c, 3, 11, 87
5, 107471, Note_on_c, 3, 57, 0
5, 107471, Note_on_c, 3, 60, 0
5, 107531, Note_on_c, 3, 59, 100
5, 107531, Note_on_c, 3, 62, 100
5, 107591, Note_on_c, 3, 62, 0
5, 107591, Note_on_c, 3, 59, 0
5, 107651, Note_on_c, 3, 60, 100
5, 107711, Note_on_c, 3, 60, 0
5, 107771, Note_on_c, 3, 48, 100
5, 107831, Note_on_c, 3, 48, 0
5, 108131, Note_on_c, 3, 53, 100
5, 108191, Note_on_c, 3, 53, 0
5, 108251, Note_on_c, 3, 55, 100
5, 108311, Note_on_c, 3, 55, 0
5, 108371, Note_on_c, 3, 56, 100
5, 108431, Note_on_c, 3, 56, 0
5, 108491, Note_on_c, 3, 44, 100
5, 108551, Note_on_c, 3, 44, 0
5, 108851, Note_on_c, 3, 54, 100
5, 108851, Control_c, 3, 11, 102
5, 108911, Note_on_c, 3, 54, 0
5, 108971, Note_on_c, 3, 54, 100
5, 109031, Note_on_c, 3, 54, 0
5, 109091, Note_on_c, 3, 54, 100
5, 109151, Note_on_c, 3, 54, 0
5, 109211, Note_on_c, 3, 54, 100
5, 109271, Note_on_c, 3, 54, 0
5, 109331, Note_on_c, 3, 54, 100
5, 109391, Note_on_c, 3, 54, 0
5, 109451, Control_c, 3, 11, 122
5, 109451, Note_on_c, 3, 53, 100
5, 109469, Control_c, 3, 11, 119
5, 109487, Control_c, 3, 11, 116
5, 109505, Control_c, 3, 11, 113
5, 109523, Control_c, 3, 11, 110
5, 109541, Control_c, 3, 11, 107
5, 109559, Control_c, 3, 11, 104
5, 109571, Note_on_c, 3, 53, 0
5, 109811, Control_c, 3, 11, 122
5, 109811, Note_on_c, 3, 54, 100
5, 109829, Control_c, 3, 11, 119
5, 109847, Control_c, 3, 11, 116
5, 109865, Control_c, 3, 11, 113
5, 109883, Control_c, 3, 11, 110
5, 109901, Control_c, 3, 11, 107
5, 109919, Control_c, 3, 11, 104
5, 109931, Note_on_c, 3, 54, 0
5, 110171, Note_on_c, 3, 56, 100
5, 110171, Control_c, 3, 11, 122
5, 110189, Control_c, 3, 11, 119
5, 110207, Control_c, 3, 11, 116
5, 110225, Control_c, 3, 11, 113
5, 110243, Control_c, 3, 11, 110
5, 110261, Control_c, 3, 11, 107
5, 110279, Control_c, 3, 11, 104
5, 110291, Note_on_c, 3, 56, 0
5, 110531, Note_on_c, 3, 44, 100
5, 110531, Control_c, 3, 11, 122
5, 110549, Control_c, 3, 11, 119
5, 110567, Control_c, 3, 11, 116
5, 110585, Control_c, 3, 11, 113
5, 110603, Control_c, 3, 11, 110
5, 110621, Control_c, 3, 11, 107
5, 110639, Control_c, 3, 11, 104
5, 110651, Note_on_c, 3, 44, 0
5, 110891, Note_on_c, 3, 61, 100
5, 110891, Note_on_c, 3, 49, 100
5, 110891, Control_c, 3, 11, 87
5, 110909, Control_c, 3, 11, 84
5, 110927, Control_c, 3, 11, 81
5, 110945, Control_c, 3, 11, 78
5, 110963, Control_c, 3, 11, 75
5, 110981, Control_c, 3, 11, 72
5, 110999, Control_c, 3, 11, 69
5, 111017, Control_c, 3, 11, 66
5, 111035, Control_c, 3, 11, 63
5, 111053, Control_c, 3, 11, 60
5, 111071, Control_c, 3, 11, 57
5, 111089, Control_c, 3, 11, 54
5, 111107, Control_c, 3, 11, 51
5, 111125, Control_c, 3, 11, 48
5, 111131, Note_on_c, 3, 61, 0
5, 111131, Note_on_c, 3, 56, 100
5, 111251, Note_on_c, 3, 56, 0
5, 111251, Note_on_c, 3, 58, 100
5, 111491, Note_on_c, 3, 58, 0
5, 111491, Note_on_c, 3, 60, 100
5, 111591, Note_on_c, 3, 60, 0
5, 111611, Note_on_c, 3, 61, 100
5, 111851, Note_on_c, 3, 61, 0
5, 111851, Note_on_c, 3, 56, 100
5, 111971, Note_on_c, 3, 56, 0
5, 111971, Note_on_c, 3, 58, 100
5, 112211, Note_on_c, 3, 58, 0
5, 112211, Note_on_c, 3, 60, 100
5, 112311, Note_on_c, 3, 60, 0
5, 112311, Note_on_c, 3, 49, 0
5, 112331, Note_on_c, 3, 49, 100
5, 112331, Note_on_c, 3, 61, 100
5, 112571, Note_on_c, 3, 61, 0
5, 112571, Note_on_c, 3, 56, 100
5, 112691, Note_on_c, 3, 56, 0
5, 112691, Note_on_c, 3, 58, 100
5, 112931, Note_on_c, 3, 58, 0
5, 112931, Note_on_c, 3, 60, 100
5, 113031, Note_on_c, 3, 60, 0
5, 113051, Note_on_c, 3, 61, 100
5, 113291, Note_on_c, 3, 61, 0
5, 113291, Note_on_c, 3, 56, 100
5, 113411, Note_on_c, 3, 56, 0
5, 113411, Note_on_c, 3, 58, 100
5, 113651, Note_on_c, 3, 58, 0
5, 113651, Note_on_c, 3, 60, 100
5, 113751, Note_on_c, 3, 60, 0
5, 113771, Note_on_c, 3, 61, 100
5, 113891, Note_on_c, 3, 61, 0
5, 113891, Note_on_c, 3, 49, 0
5, 114731, Note_on_c, 3, 57, 115
5, 114731, Control_c, 3, 11, 42
5, 114851, Note_on_c, 3, 57, 0
5, 114851, Note_on_c, 3, 58, 115
5, 115091, Control_c, 3, 11, 42
5, 115108, Control_c, 3, 11, 39
5, 115126, Control_c, 3, 11, 36
5, 115144, Control_c, 3, 11, 33
5, 115162, Control_c, 3, 11, 30
5, 115180, Control_c, 3, 11, 27
5, 115198, Control_c, 3, 11, 24
5, 115211, Note_on_c, 3, 58, 0
5, 116171, Note_on_c, 3, 58, 115
5, 116171, Control_c, 3, 11, 42
5, 116291, Note_on_c, 3, 58, 0
5, 116291, Note_on_c, 3, 59, 115
5, 116531, Control_c, 3, 11, 42
5, 116548, Control_c, 3, 11, 39
5, 116566, Control_c, 3, 11, 36
5, 116584, Control_c, 3, 11, 33
5, 116602, Control_c, 3, 11, 30
5, 116620, Control_c, 3, 11, 27
5, 116638, Control_c, 3, 11, 24
5, 116651, Note_on_c, 3, 59, 0
5, 117971, Control_c, 3, 11, 87
5, 117971, Note_on_c, 3, 55, 100
5, 117971, Note_on_c, 3, 52, 100
5, 118031, Note_on_c, 3, 52, 0
5, 118031, Note_on_c, 3, 55, 0
5, 118091, Note_on_c, 3, 57, 100
5, 118091, Note_on_c, 3, 53, 100
5, 118211, Note_on_c, 3, 53, 0
5, 118211, Note_on_c, 3, 57, 0
5, 118331, Note_on_c, 3, 59, 100
5, 118331, Note_on_c, 3, 50, 100
5, 118391, Note_on_c, 3, 50, 0
5, 118391, Note_on_c, 3, 59, 0
5, 118451, Note_on_c, 3, 52, 100
5, 118451, Note_on_c, 3, 60, 100
5, 118571, Note_on_c, 3, 60, 0
5, 118571, Note_on_c, 3, 52, 0
5, 118691, Note_on_c, 3, 55, 100
5, 118691, Note_on_c, 3, 62, 100
5, 118751, Note_on_c, 3, 62, 0
5, 118751, Note_on_c, 3, 55, 0
5, 118811, Note_on_c, 3, 55, 100
5, 118811, Note_on_c, 3, 64, 100
5, 118871, Note_on_c, 3, 64, 0
5, 118871, Note_on_c, 3, 55, 0
5, 118931, Note_on_c, 3, 55, 100
5, 118931, Note_on_c, 3, 64, 100
5, 118991, Note_on_c, 3, 64, 0
5, 118991, Note_on_c, 3, 55, 0
5, 119051, Note_on_c, 3, 66, 100
5, 119051, Note_on_c, 3, 60, 100
5, 119111, Note_on_c, 3, 60, 0
5, 119111, Note_on_c, 3, 66, 0
5, 119171, Control_c, 3, 11, 102
5, 119171, Note_on_c, 3, 55, 100
5, 119171, Note_on_c, 3, 67, 100
5, 120371, Note_on_c, 3, 67, 0
5, 120371, Note_on_c, 3, 55, 0
5, 120371, Note_on_c, 3, 45, 100
5, 120431, Note_on_c, 3, 45, 0
5, 120491, Note_on_c, 3, 50, 100
5, 120551, Note_on_c, 3, 50, 0
5, 120611, Control_c, 3, 11, 122
5, 120611, Note_on_c, 3, 47, 100
5, 120628, Control_c, 3, 11, 119
5, 120646, Control_c, 3, 11, 116
5, 120664, Control_c, 3, 11, 113
5, 120671, Note_on_c, 3, 47, 0
5, 120682, Control_c, 3, 11, 110
5, 120700, Control_c, 3, 11, 107
5, 120718, Control_c, 3, 11, 104
5, 120731, Note_on_c, 3, 43, 100
5, 120791, Note_on_c, 3, 43, 0
5, 120851, Note_on_c, 3, 45, 100
5, 120911, Note_on_c, 3, 45, 0
5, 120971, Note_on_c, 3, 46, 100
5, 121031, Note_on_c, 3, 46, 0
5, 121091, Note_on_c, 3, 43, 100
5, 121151, Note_on_c, 3, 43, 0
5, 121211, Note_on_c, 3, 48, 100
5, 121271, Note_on_c, 3, 48, 0
5, 121331, Note_on_c, 3, 45, 100
5, 121331, Control_c, 3, 11, 122
5, 121348, Control_c, 3, 11, 119
5, 121366, Control_c, 3, 11, 116
5, 121384, Control_c, 3, 11, 113
5, 121391, Note_on_c, 3, 45, 0
5, 121402, Control_c, 3, 11, 110
5, 121420, Control_c, 3, 11, 107
5, 121438, Control_c, 3, 11, 104
5, 121451, Note_on_c, 3, 41, 100
5, 121511, Note_on_c, 3, 41, 0
5, 121571, Note_on_c, 3, 52, 100
5, 121631, Note_on_c, 3, 52, 0
5, 121691, Note_on_c, 3, 53, 100
5, 121751, Note_on_c, 3, 53, 0
5, 121811, Note_on_c, 3, 50, 100
5, 121871, Note_on_c, 3, 50, 0
5, 121931, Note_on_c, 3, 55, 100
5, 121991, Note_on_c, 3, 55, 0
5, 122051, Note_on_c, 3, 52, 100
5, 122111, Note_on_c, 3, 52, 0
5, 122171, Note_on_c, 3, 48, 100
5, 122231, Note_on_c, 3, 48, 0
5, 122291, Note_on_c, 3, 53, 100
5, 122351, Note_on_c, 3, 53, 0
5, 122411, Note_on_c, 3, 43, 100
5, 122471, Note_on_c, 3, 43, 0
5, 122531, Note_on_c, 3, 55, 100
5, 122591, Note_on_c, 3, 55, 0
5, 122651, Note_on_c, 3, 55, 100
5, 122711, Note_on_c, 3, 55, 0
5, 122771, Note_on_c, 3, 48, 100
5, 122891, Note_on_c, 3, 48, 0
5, 123011, Note_on_c, 3, 60, 80
5, 123071, Note_on_c, 3, 60, 0
5, 123131, Control_c, 3, 11, 122
5, 123131, Note_on_c, 3, 61, 80
5, 123154, Control_c, 3, 11, 120
5, 123178, Control_c, 3, 11, 118
5, 123202, Control_c, 3, 11, 116
5, 123226, Control_c, 3, 11, 114
5, 123250, Control_c, 3, 11, 112
5, 123274, Control_c, 3, 11, 110
5, 123298, Control_c, 3, 11, 108
5, 123322, Control_c, 3, 11, 106
5, 123346, Control_c, 3, 11, 104
5, 123370, Control_c, 3, 11, 102
5, 123371, Note_on_c, 3, 61, 0
5, 123371, Note_on_c, 3, 59, 80
5, 123491, Note_on_c, 3, 59, 0
5, 123491, Note_on_c, 3, 60, 80
5, 123551, Note_on_c, 3, 60, 0
5, 124211, Note_on_c, 3, 60, 80
5, 124271, Note_on_c, 3, 60, 0
5, 124331, Control_c, 3, 11, 122
5, 124331, Note_on_c, 3, 61, 80
5, 124348, Control_c, 3, 11, 119
5, 124366, Control_c, 3, 11, 116
5, 124384, Control_c, 3, 11, 113
5, 124402, Control_c, 3, 11, 110
5, 124420, Control_c, 3, 11, 107
5, 124438, Control_c, 3, 11, 104
5, 124451, Note_on_c, 3, 61, 0
5, 124451, Note_on_c, 3, 59, 80
5, 124551, Note_on_c, 3, 59, 0
5, 124571, Note_on_c, 3, 60, 80
5, 124631, Note_on_c, 3, 60, 0
5, 124931, Note_on_c, 3, 60, 80
5, 124991, Note_on_c, 3, 60, 0
5, 125051, Control_c, 3, 11, 122
5, 125051, Note_on_c, 3, 61, 80
5, 125068, Control_c, 3, 11, 119
5, 125086, Control_c, 3, 11, 116
5, 125104, Control_c, 3, 11, 113
5, 125122, Control_c, 3, 11, 110
5, 125140, Control_c, 3, 11, 107
5, 125158, Control_c, 3, 11, 104
5, 125171, Note_on_c, 3, 61, 0
5, 125171, Note_on_c, 3, 59, 80
5, 125271, Note_on_c, 3, 59, 0
5, 125291, Note_on_c, 3, 60, 80
5, 125351, Note_on_c, 3, 60, 0
5, 125411, Control_c, 3, 11, 122
5, 125411, Note_on_c, 3, 62, 80
5, 125428, Control_c, 3, 11, 119
5, 125446, Control_c, 3, 11, 116
5, 125464, Control_c, 3, 11, 113
5, 125482, Control_c, 3, 11, 110
5, 125500, Control_c, 3, 11, 107
5, 125518, Control_c, 3, 11, 104
5, 125531, Note_on_c, 3, 62, 0
5, 125531, Note_on_c, 3, 59, 80
5, 125534, Control_c, 3, 11, 101
5, 125544, Control_c, 3, 11, 98
5, 125554, Control_c, 3, 11, 95
5, 125565, Control_c, 3, 11, 92
5, 125575, Control_c, 3, 11, 89
5, 125585, Control_c, 3, 11, 86
5, 125595, Control_c, 3, 11, 83
5, 125605, Control_c, 3, 11, 80
5, 125616, Control_c, 3, 11, 77
5, 125626, Control_c, 3, 11, 74
5, 125631, Note_on_c, 3, 59, 0
5, 125636, Control_c, 3, 11, 71
5, 125646, Control_c, 3, 11, 68
5, 125651, Note_on_c, 3, 60, 100
5, 125651, Note_on_c, 3, 48, 100
5, 125651, Control_c, 3, 11, 47
5, 125711, Note_on_c, 3, 48, 0
5, 125711, Note_on_c, 3, 60, 0
5, 126011, Note_on_c, 3, 55, 65
5, 126131, Note_on_c, 3, 55, 0
5, 126371, Note_on_c, 3, 60, 68
5, 126491, Note_on_c, 3, 60, 0
5, 126731, Note_on_c, 3, 55, 72
5, 126851, Note_on_c, 3, 55, 0
5, 127091, Note_on_c, 3, 48, 76
5, 127091, Control_c, 3, 11, 47
5, 127127, Control_c, 3, 11, 48
5, 127163, Control_c, 3, 11, 49
5, 127199, Control_c, 3, 11, 50
5, 127211, Note_on_c, 3, 48, 0
5, 127235, Control_c, 3, 11, 51
5, 127271, Control_c, 3, 11, 52
5, 127307, Control_c, 3, 11, 53
5, 127343, Control_c, 3, 11, 54
5, 127379, Control_c, 3, 11, 55
5, 127415, Control_c, 3, 11, 56
5, 127451, Control_c, 3, 11, 57
5, 127451, Note_on_c, 3, 43, 80
5, 127487, Control_c, 3, 11, 58
5, 127523, Control_c, 3, 11, 59
5, 127559, Control_c, 3, 11, 60
5, 127571, Note_on_c, 3, 43, 0
5, 127595, Control_c, 3, 11, 61
5, 127631, Control_c, 3, 11, 62
5, 127667, Control_c, 3, 11, 63
5, 127703, Control_c, 3, 11, 64
5, 127739, Control_c, 3, 11, 65
5, 127775, Control_c, 3, 11, 66
5, 127811, Control_c, 3, 11, 67
5, 127811, Note_on_c, 3, 48, 84
5, 127847, Control_c, 3, 11, 68
5, 127883, Control_c, 3, 11, 69
5, 127919, Control_c, 3, 11, 70
5, 127931, Note_on_c, 3, 48, 0
5, 127955, Control_c, 3, 11, 71
5, 127991, Control_c, 3, 11, 72
5, 128027, Control_c, 3, 11, 73
5, 128063, Control_c, 3, 11, 74
5, 128099, Control_c, 3, 11, 75
5, 128135, Control_c, 3, 11, 76
5, 128171, Note_on_c, 3, 55, 88
5, 128171, Control_c, 3, 11, 77
5, 128207, Control_c, 3, 11, 78
5, 128243, Control_c, 3, 11, 79
5, 128279, Control_c, 3, 11, 80
5, 128291, Note_on_c, 3, 55, 0
5, 128315, Control_c, 3, 11, 81
5, 128351, Control_c, 3, 11, 82
5, 128387, Control_c, 3, 11, 83
5, 128423, Control_c, 3, 11, 84
5, 128459, Control_c, 3, 11, 85
5, 128495, Control_c, 3, 11, 86
5, 128531, Note_on_c, 3, 48, 92
5, 128531, Control_c, 3, 11, 87
5, 128651, Note_on_c, 3, 48, 0
5, 128891, Note_on_c, 3, 43, 96
5, 129011, Note_on_c, 3, 43, 0
5, 129251, Control_c, 3, 11, 102
5, 129251, Note_on_c, 3, 48, 100
5, 129251, Note_on_c, 3, 60, 100
5, 129311, Note_on_c, 3, 60, 0
5, 129371, Note_on_c, 3, 48, 0
5, 129371, Note_on_c, 3, 64, 100
5, 129431, Note_on_c, 3, 64, 0
5, 129491, Control_c, 3, 11, 122
5, 129491, Note_on_c, 3, 67, 100
5, 129508, Control_c, 3, 11, 119
5, 129526, Control_c, 3, 11, 116
5, 129544, Control_c, 3, 11, 113
5, 129562, Control_c, 3, 11, 110
5, 129580, Control_c, 3, 11, 107
5, 129598, Control_c, 3, 11, 104
5, 129611, Note_on_c, 3, 55, 100
5, 129671, Note_on_c, 3, 55, 0
5, 129711, Note_on_c, 3, 67, 0
5, 129731, Note_on_c, 3, 57, 100
5, 129731, Note_on_c, 3, 65, 100
5, 129791, Note_on_c, 3, 65, 0
5, 129791, Note_on_c, 3, 57, 0
5, 129851, Note_on_c, 3, 59, 100
5, 129851, Note_on_c, 3, 62, 100
5, 129911, Note_on_c, 3, 62, 0
5, 129911, Note_on_c, 3, 59, 0
5, 129971, Note_on_c, 3, 60, 100
5, 130031, Note_on_c, 3, 60, 0
5, 130091, Note_on_c, 3, 55, 100
5, 130151, Note_on_c, 3, 55, 0
5, 130211, Note_on_c, 3, 52, 100
5, 130271, Note_on_c, 3, 52, 0
5, 130331, Note_on_c, 3, 48, 100
5, 130391, Note_on_c, 3, 48, 0
5, 130691, Control_c, 3, 121, 0
5, 130691, End_track
6, 0, Start_track
6, 0, MIDI_port, 0
6, 0, Title_t, "Corno I in C"
6, 0, Program_c, 4, 60
6, 0, Control_c, 4, 10, 24
6, 3, Control_c, 4, 121, 0
6, 8, Program_c, 4, 60
6, 13, Pitch_bend_c, 4, 8292
6, 18, Control_c, 4, 11, 87
6, 23, Control_c, 4, 7, 127
6, 28, Control_c, 4, 91, 80
6, 33, Control_c, 4, 93, 0
6, 38, Control_c, 4, 10, 24
6, 2883, Control_c, 4, 11, 87
6, 2883, Note_on_c, 4, 62, 105
6, 2943, Note_on_c, 4, 62, 0
6, 3003, Note_on_c, 4, 62, 105
6, 3063, Note_on_c, 4, 62, 0
6, 3123, Note_on_c, 4, 62, 105
6, 3183, Note_on_c, 4, 62, 0
6, 3243, Note_on_c, 4, 55, 105
6, 3363, Note_on_c, 4, 55, 0
6, 5763, Control_c, 4, 11, 87
6, 5763, Note_on_c, 4, 62, 105
6, 5823, Note_on_c, 4, 62, 0
6, 5883, Note_on_c, 4, 62, 105
6, 5943, Note_on_c, 4, 62, 0
6, 6003, Note_on_c, 4, 62, 105
6, 6063, Note_on_c, 4, 62, 0
6, 6123, Note_on_c, 4, 55, 105
6, 6243, Note_on_c, 4, 55, 0
6, 19323, Control_c, 4, 11, 87
6, 19323, Note_on_c, 4, 60, 105
6, 19443, Note_on_c, 4, 60, 0
6, 19443, Note_on_c, 4, 60, 105
6, 19563, Note_on_c, 4, 60, 0
6, 19563, Note_on_c, 4, 60, 105
6, 19683, Note_on_c, 4, 60, 0
6, 19683, Note_on_c, 4, 60, 105
6, 19803, Note_on_c, 4, 60, 0
6, 19803, Note_on_c, 4, 60, 105
6, 19923, Note_on_c, 4, 60, 0
6, 19923, Note_on_c, 4, 60, 105
6, 20043, Note_on_c, 4, 60, 0
6, 20043, Note_on_c, 4, 67, 105
6, 20163, Note_on_c, 4, 67, 0
6, 20163, Note_on_c, 4, 67, 105
6, 20283, Note_on_c, 4, 67, 0
6, 20283, Note_on_c, 4, 60, 105
6, 20403, Note_on_c, 4, 60, 0
6, 20403, Note_on_c, 4, 62, 105
6, 20523, Note_on_c, 4, 62, 0
6, 20523, Note_on_c, 4, 55, 105
6, 20523, Control_c, 4, 11, 102
6, 21723, Note_on_c, 4, 55, 0
6, 21723, Note_on_c, 4, 64, 105
6, 21843, Note_on_c, 4, 64, 0
6, 21843, Note_on_c, 4, 62, 105
6, 21903, Note_on_c, 4, 62, 0
6, 21963, Note_on_c, 4, 62, 105
6, 22083, Note_on_c, 4, 62, 0
6, 22563, Note_on_c, 4, 60, 105
6, 22683, Note_on_c, 4, 60, 0
6, 22683, Note_on_c, 4, 60, 105
6, 22923, Note_on_c, 4, 60, 0
6, 22923, Note_on_c, 4, 60, 105
6, 23043, Note_on_c, 4, 60, 0
6, 23043, Note_on_c, 4, 60, 105
6, 23163, Note_on_c, 4, 60, 0
6, 23163, Note_on_c, 4, 65, 105
6, 23283, Note_on_c, 4, 65, 0
6, 23283, Note_on_c, 4, 62, 105
6, 23403, Note_on_c, 4, 62, 0
6, 23403, Note_on_c, 4, 64, 105
6, 23643, Note_on_c, 4, 64, 0
6, 23643, Note_on_c, 4, 60, 105
6, 23763, Note_on_c, 4, 60, 0
6, 23763, Note_on_c, 4, 64, 105
6, 24003, Note_on_c, 4, 64, 0
6, 24003, Note_on_c, 4, 62, 105
6, 24123, Note_on_c, 4, 62, 0
6, 24123, Note_on_c, 4, 60, 105
6, 24243, Note_on_c, 4, 60, 0
6, 25563, Note_on_c, 4, 60, 85
6, 26763, Control_c, 4, 11, 102
6, 26776, Control_c, 4, 11, 99
6, 26789, Control_c, 4, 11, 96
6, 26802, Control_c, 4, 11, 93
6, 26815, Control_c, 4, 11, 90
6, 26828, Control_c, 4, 11, 87
6, 26841, Control_c, 4, 11, 84
6, 26854, Control_c, 4, 11, 81
6, 26867, Control_c, 4, 11, 78
6, 26880, Control_c, 4, 11, 75
6, 26893, Control_c, 4, 11, 72
6, 26906, Control_c, 4, 11, 69
6, 26919, Control_c, 4, 11, 66
6, 26932, Control_c, 4, 11, 63
6, 26945, Control_c, 4, 11, 60
6, 26958, Control_c, 4, 11, 57
6, 26971, Control_c, 4, 11, 54
6, 26984, Control_c, 4, 11, 51
6, 26997, Control_c, 4, 11, 48
6, 27123, Note_on_c, 4, 60, 0
6, 27363, Note_on_c, 4, 62, 70
6, 27483, Note_on_c, 4, 62, 0
6, 27723, Note_on_c, 4, 64, 73
6, 27843, Note_on_c, 4, 64, 0
6, 28083, Note_on_c, 4, 62, 77
6, 28203, Note_on_c, 4, 62, 0
6, 28443, Note_on_c, 4, 60, 81
6, 28443, Control_c, 4, 11, 47
6, 28479, Control_c, 4, 11, 48
6, 28515, Control_c, 4, 11, 49
6, 28551, Control_c, 4, 11, 50
6, 28563, Note_on_c, 4, 60, 0
6, 28587, Control_c, 4, 11, 51
6, 28623, Control_c, 4, 11, 52
6, 28659, Control_c, 4, 11, 53
6, 28695, Control_c, 4, 11, 54
6, 28731, Control_c, 4, 11, 55
6, 28767, Control_c, 4, 11, 56
6, 28803, Control_c, 4, 11, 57
6, 28803, Note_on_c, 4, 62, 85
6, 28839, Control_c, 4, 11, 58
6, 28875, Control_c, 4, 11, 59
6, 28911, Control_c, 4, 11, 60
6, 28923, Note_on_c, 4, 62, 0
6, 28947, Control_c, 4, 11, 61
6, 28983, Control_c, 4, 11, 62
6, 29019, Control_c, 4, 11, 63
6, 29055, Control_c, 4, 11, 64
6, 29091, Control_c, 4, 11, 65
6, 29127, Control_c, 4, 11, 66
6, 29163, Note_on_c, 4, 64, 89
6, 29163, Control_c, 4, 11, 67
6, 29199, Control_c, 4, 11, 68
6, 29235, Control_c, 4, 11, 69
6, 29271, Control_c, 4, 11, 70
6, 29283, Note_on_c, 4, 64, 0
6, 29307, Control_c, 4, 11, 71
6, 29343, Control_c, 4, 11, 72
6, 29379, Control_c, 4, 11, 73
6, 29415, Control_c, 4, 11, 74
6, 29451, Control_c, 4, 11, 75
6, 29487, Control_c, 4, 11, 76
6, 29523, Control_c, 4, 11, 77
6, 29523, Note_on_c, 4, 62, 93
6, 29559, Control_c, 4, 11, 78
6, 29595, Control_c, 4, 11, 79
6, 29631, Control_c, 4, 11, 80
6, 29643, Note_on_c, 4, 62, 0
6, 29667, Control_c, 4, 11, 81
6, 29703, Control_c, 4, 11, 82
6, 29739, Control_c, 4, 11, 83
6, 29775, Control_c, 4, 11, 84
6, 29811, Control_c, 4, 11, 85
6, 29847, Control_c, 4, 11, 86
6, 29883, Control_c, 4, 11, 87
6, 29883, Note_on_c, 4, 60, 97
6, 30003, Note_on_c, 4, 60, 0
6, 30243, Note_on_c, 4, 62, 101
6, 30363, Note_on_c, 4, 62, 0
6, 30603, Control_c, 4, 11, 102
6, 30603, Note_on_c, 4, 60, 105
6, 30663, Note_on_c, 4, 60, 0
6, 30723, Note_on_c, 4, 64, 105
6, 30783, Note_on_c, 4, 64, 0
6, 30843, Note_on_c, 4, 67, 105
6, 31083, Note_on_c, 4, 67, 0
6, 31083, Note_on_c, 4, 67, 105
6, 31143, Note_on_c, 4, 67, 0
6, 31203, Note_on_c, 4, 67, 105
6, 31263, Note_on_c, 4, 67, 0
6, 31323, Note_on_c, 4, 60, 105
6, 31383, Note_on_c, 4, 60, 0
6, 31443, Note_on_c, 4, 67, 105
6, 31503, Note_on_c, 4, 67, 0
6, 31563, Note_on_c, 4, 64, 105
6, 31623, Note_on_c, 4, 64, 0
6, 31683, Note_on_c, 4, 60, 105
6, 31743, Note_on_c, 4, 60, 0
6, 44883, Control_c, 4, 11, 87
6, 44883, Note_on_c, 4, 60, 105
6, 45003, Note_on_c, 4, 60, 0
6, 45003, Note_on_c, 4, 60, 105
6, 45123, Note_on_c, 4, 60, 0
6, 45123, Note_on_c, 4, 60, 105
6, 45243, Note_on_c, 4, 60, 0
6, 45243, Note_on_c, 4, 60, 105
6, 45363, Note_on_c, 4, 60, 0
6, 45363, Note_on_c, 4, 60, 105
6, 45483, Note_on_c, 4, 60, 0
6, 45483, Note_on_c, 4, 60, 105
6, 45603, Note_on_c, 4, 60, 0
6, 45603, Note_on_c, 4, 67, 105
6, 45723, Note_on_c, 4, 67, 0
6, 45723, Note_on_c, 4, 67, 105
6, 45843, Note_on_c, 4, 67, 0
6, 45843, Note_on_c, 4, 60, 105
6, 45963, Note_on_c, 4, 60, 0
6, 45963, Note_on_c, 4, 62, 105
6, 46083, Note_on_c, 4, 62, 0
6, 46083, Note_on_c, 4, 55, 105
6, 46083, Control_c, 4, 11, 102
6, 47283, Note_on_c, 4, 55, 0
6, 47283, Note_on_c, 4, 64, 105
6, 47403, Note_on_c, 4, 64, 0
6, 47403, Note_on_c, 4, 62, 105
6, 47463, Note_on_c, 4, 62, 0
6, 47523, Note_on_c, 4, 62, 105
6, 47643, Note_on_c, 4, 62, 0
6, 48123, Note_on_c, 4, 60, 105
6, 48243, Note_on_c, 4, 60, 0
6, 48243, Note_on_c, 4, 60, 105
6, 48483, Note_on_c, 4, 60, 0
6, 48483, Note_on_c, 4, 60, 105
6, 48603, Note_on_c, 4, 60, 0
6, 48603, Note_on_c, 4, 60, 105
6, 48723, Note_on_c, 4, 60, 0
6, 48723, Note_on_c, 4, 65, 105
6, 48843, Note_on_c, 4, 65, 0
6, 48843, Note_on_c, 4, 62, 105
6, 48963, Note_on_c, 4, 62, 0
6, 48963, Note_on_c, 4, 64, 105
6, 49203, Note_on_c, 4, 64, 0
6, 49203, Note_on_c, 4, 60, 105
6, 49323, Note_on_c, 4, 60, 0
6, 49323, Note_on_c, 4, 64, 105
6, 49563, Note_on_c, 4, 64, 0
6, 49563, Note_on_c, 4, 62, 105
6, 49683, Note_on_c, 4, 62, 0
6, 49683, Note_on_c, 4, 60, 105
6, 49803, Note_on_c, 4, 60, 0
6, 51123, Note_on_c, 4, 60, 85
6, 52323, Control_c, 4, 11, 102
6, 52336, Control_c, 4, 11, 99
6, 52349, Control_c, 4, 11, 96
6, 52362, Control_c, 4, 11, 93
6, 52375, Control_c, 4, 11, 90
6, 52388, Control_c, 4, 11, 87
6, 52401, Control_c, 4, 11, 84
6, 52414, Control_c, 4, 11, 81
6, 52427, Control_c, 4, 11, 78
6, 52440, Control_c, 4, 11, 75
6, 52453, Control_c, 4, 11, 72
6, 52466, Control_c, 4, 11, 69
6, 52479, Control_c, 4, 11, 66
6, 52492, Control_c, 4, 11, 63
6, 52505, Control_c, 4, 11, 60
6, 52518, Control_c, 4, 11, 57
6, 52531, Control_c, 4, 11, 54
6, 52544, Control_c, 4, 11, 51
6, 52557, Control_c, 4, 11, 48
6, 52683, Note_on_c, 4, 60, 0
6, 52923, Note_on_c, 4, 62, 70
6, 53043, Note_on_c, 4, 62, 0
6, 53283, Note_on_c, 4, 64, 73
6, 53403, Note_on_c, 4, 64, 0
6, 53643, Note_on_c, 4, 62, 77
6, 53763, Note_on_c, 4, 62, 0
6, 54003, Note_on_c, 4, 60, 81
6, 54003, Control_c, 4, 11, 47
6, 54039, Control_c, 4, 11, 48
6, 54075, Control_c, 4, 11, 49
6, 54111, Control_c, 4, 11, 50
6, 54123, Note_on_c, 4, 60, 0
6, 54147, Control_c, 4, 11, 51
6, 54183, Control_c, 4, 11, 52
6, 54219, Control_c, 4, 11, 53
6, 54255, Control_c, 4, 11, 54
6, 54291, Control_c, 4, 11, 55
6, 54327, Control_c, 4, 11, 56
6, 54363, Control_c, 4, 11, 57
6, 54363, Note_on_c, 4, 62, 85
6, 54399, Control_c, 4, 11, 58
6, 54435, Control_c, 4, 11, 59
6, 54471, Control_c, 4, 11, 60
6, 54483, Note_on_c, 4, 62, 0
6, 54507, Control_c, 4, 11, 61
6, 54543, Control_c, 4, 11, 62
6, 54579, Control_c, 4, 11, 63
6, 54615, Control_c, 4, 11, 64
6, 54651, Control_c, 4, 11, 65
6, 54687, Control_c, 4, 11, 66
6, 54723, Note_on_c, 4, 64, 89
6, 54723, Control_c, 4, 11, 67
6, 54759, Control_c, 4, 11, 68
6, 54795, Control_c, 4, 11, 69
6, 54831, Control_c, 4, 11, 70
6, 54843, Note_on_c, 4, 64, 0
6, 54867, Control_c, 4, 11, 71
6, 54903, Control_c, 4, 11, 72
6, 54939, Control_c, 4, 11, 73
6, 54975, Control_c, 4, 11, 74
6, 55011, Control_c, 4, 11, 75
6, 55047, Control_c, 4, 11, 76
6, 55083, Control_c, 4, 11, 77
6, 55083, Note_on_c, 4, 62, 93
6, 55119, Control_c, 4, 11, 78
6, 55155, Control_c, 4, 11, 79
6, 55191, Control_c, 4, 11, 80
6, 55203, Note_on_c, 4, 62, 0
6, 55227, Control_c, 4, 11, 81
6, 55263, Control_c, 4, 11, 82
6, 55299, Control_c, 4, 11, 83
6, 55335, Control_c, 4, 11, 84
6, 55371, Control_c, 4, 11, 85
6, 55407, Control_c, 4, 11, 86
6, 55443, Control_c, 4, 11, 87
6, 55443, Note_on_c, 4, 60, 97
6, 55563, Note_on_c, 4, 60, 0
6, 55803, Note_on_c, 4, 62, 101
6, 55923, Note_on_c, 4, 62, 0
6, 56163, Control_c, 4, 11, 102
6, 56163, Note_on_c, 4, 60, 105
6, 56223, Note_on_c, 4, 60, 0
6, 56283, Note_on_c, 4, 64, 105
6, 56343, Note_on_c, 4, 64, 0
6, 56403, Note_on_c, 4, 67, 105
6, 56643, Note_on_c, 4, 67, 0
6, 56643, Note_on_c, 4, 67, 105
6, 56703, Note_on_c, 4, 67, 0
6, 56763, Note_on_c, 4, 67, 105
6, 56823, Note_on_c, 4, 67, 0
6, 56883, Note_on_c, 4, 60, 105
6, 56943, Note_on_c, 4, 60, 0
6, 57003, Note_on_c, 4, 67, 105
6, 57063, Note_on_c, 4, 67, 0
6, 57123, Note_on_c, 4, 64, 105
6, 57183, Note_on_c, 4, 64, 0
6, 57243, Note_on_c, 4, 60, 105
6, 57303, Note_on_c, 4, 60, 0
6, 57483, Control_c, 4, 11, 37
6, 57587, Control_c, 4, 11, 38
6, 57603, Note_on_c, 4, 60, 90
6, 57691, Control_c, 4, 11, 39
6, 57792, Note_on_c, 4, 60, 0
6, 57795, Control_c, 4, 11, 40
6, 57843, Note_on_c, 4, 60, 90
6, 57899, Control_c, 4, 11, 41
6, 57933, Note_on_c, 4, 60, 0
6, 57963, Note_on_c, 4, 60, 90
6, 58003, Control_c, 4, 11, 42
6, 58107, Control_c, 4, 11, 43
6, 58152, Note_on_c, 4, 60, 0
6, 58203, Note_on_c, 4, 60, 90
6, 58211, Control_c, 4, 11, 44
6, 58293, Note_on_c, 4, 60, 0
6, 58315, Control_c, 4, 11, 45
6, 58323, Note_on_c, 4, 60, 90
6, 58419, Control_c, 4, 11, 46
6, 58512, Note_on_c, 4, 60, 0
6, 58523, Control_c, 4, 11, 47
6, 58563, Note_on_c, 4, 60, 90
6, 58627, Control_c, 4, 11, 48
6, 58653, Note_on_c, 4, 60, 0
6, 58683, Note_on_c, 4, 60, 90
6, 58731, Control_c, 4, 11, 49
6, 58835, Control_c, 4, 11, 50
6, 58872, Note_on_c, 4, 60, 0
6, 58923, Note_on_c, 4, 60, 85
6, 58939, Control_c, 4, 11, 51
6, 59013, Note_on_c, 4, 60, 0
6, 59043, Control_c, 4, 11, 42
6, 59043, Note_on_c, 4, 60, 90
6, 59091, Control_c, 4, 11, 43
6, 59139, Control_c, 4, 11, 44
6, 59187, Control_c, 4, 11, 45
6, 59235, Control_c, 4, 11, 46
6, 59283, Control_c, 4, 11, 47
6, 59331, Control_c, 4, 11, 48
6, 59379, Control_c, 4, 11, 49
6, 59427, Control_c, 4, 11, 50
6, 59475, Control_c, 4, 11, 51
6, 59523, Control_c, 4, 11, 52
6, 60463, Note_on_c, 4, 60, 0
6, 60483, Note_on_c, 4, 64, 77
6, 60483, Control_c, 4, 11, 37
6, 60579, Control_c, 4, 11, 38
6, 60672, Note_on_c, 4, 64, 0
6, 60675, Control_c, 4, 11, 39
6, 60723, Note_on_c, 4, 64, 90
6, 60771, Control_c, 4, 11, 40
6, 60813, Note_on_c, 4, 64, 0
6, 60843, Note_on_c, 4, 64, 90
6, 60867, Control_c, 4, 11, 41
6, 60963, Control_c, 4, 11, 42
6, 61032, Note_on_c, 4, 64, 0
6, 61059, Control_c, 4, 11, 43
6, 61083, Note_on_c, 4, 64, 90
6, 61155, Control_c, 4, 11, 44
6, 61173, Note_on_c, 4, 64, 0
6, 61203, Note_on_c, 4, 64, 90
6, 61251, Control_c, 4, 11, 45
6, 61347, Control_c, 4, 11, 46
6, 61392, Note_on_c, 4, 64, 0
6, 61443, Control_c, 4, 11, 47
6, 61443, Note_on_c, 4, 64, 90
6, 61533, Note_on_c, 4, 64, 0
6, 61539, Control_c, 4, 11, 48
6, 61563, Note_on_c, 4, 64, 90
6, 61635, Control_c, 4, 11, 49
6, 61731, Control_c, 4, 11, 50
6, 61752, Note_on_c, 4, 64, 0
6, 61803, Note_on_c, 4, 64, 85
6, 61827, Control_c, 4, 11, 51
6, 61893, Note_on_c, 4, 64, 0
6, 61923, Note_on_c, 4, 65, 90
6, 61923, Control_c, 4, 11, 42
6, 61971, Control_c, 4, 11, 43
6, 62019, Control_c, 4, 11, 44
6, 62067, Control_c, 4, 11, 45
6, 62115, Control_c, 4, 11, 46
6, 62163, Control_c, 4, 11, 47
6, 62211, Control_c, 4, 11, 48
6, 62259, Control_c, 4, 11, 49
6, 62307, Control_c, 4, 11, 50
6, 62355, Control_c, 4, 11, 51
6, 62403, Control_c, 4, 11, 52
6, 63343, Note_on_c, 4, 65, 0
6, 63363, Note_on_c, 4, 62, 77
6, 63552, Note_on_c, 4, 62, 0
6, 63603, Note_on_c, 4, 62, 90
6, 63693, Note_on_c, 4, 62, 0
6, 63723, Note_on_c, 4, 64, 90
6, 64063, Note_on_c, 4, 64, 0
6, 64083, Note_on_c, 4, 62, 90
6, 64272, Note_on_c, 4, 62, 0
6, 64323, Note_on_c, 4, 62, 90
6, 64413, Note_on_c, 4, 62, 0
6, 64443, Note_on_c, 4, 60, 90
6, 64783, Note_on_c, 4, 60, 0
6, 64803, Note_on_c, 4, 62, 90
6, 64992, Note_on_c, 4, 62, 0
6, 65043, Note_on_c, 4, 62, 90
6, 65133, Note_on_c, 4, 62, 0
6, 65163, Note_on_c, 4, 62, 90
6, 65352, Note_on_c, 4, 62, 0
6, 65403, Note_on_c, 4, 62, 90
6, 65493, Note_on_c, 4, 62, 0
6, 65523, Note_on_c, 4, 62, 90
6, 66003, Note_on_c, 4, 62, 0
6, 66123, Control_c, 4, 11, 37
6, 66227, Control_c, 4, 11, 38
6, 66243, Note_on_c, 4, 60, 90
6, 66331, Control_c, 4, 11, 39
6, 66432, Note_on_c, 4, 60, 0
6, 66435, Control_c, 4, 11, 40
6, 66483, Note_on_c, 4, 60, 90
6, 66539, Control_c, 4, 11, 41
6, 66573, Note_on_c, 4, 60, 0
6, 66603, Note_on_c, 4, 60, 90
6, 66643, Control_c, 4, 11, 42
6, 66747, Control_c, 4, 11, 43
6, 66792, Note_on_c, 4, 60, 0
6, 66843, Note_on_c, 4, 60, 90
6, 66851, Control_c, 4, 11, 44
6, 66933, Note_on_c, 4, 60, 0
6, 66955, Control_c, 4, 11, 45
6, 66963, Note_on_c, 4, 60, 90
6, 67059, Control_c, 4, 11, 46
6, 67152, Note_on_c, 4, 60, 0
6, 67163, Control_c, 4, 11, 47
6, 67203, Note_on_c, 4, 60, 90
6, 67267, Control_c, 4, 11, 48
6, 67293, Note_on_c, 4, 60, 0
6, 67323, Note_on_c, 4, 60, 90
6, 67371, Control_c, 4, 11, 49
6, 67475, Control_c, 4, 11, 50
6, 67512, Note_on_c, 4, 60, 0
6, 67563, Note_on_c, 4, 60, 85
6, 67579, Control_c, 4, 11, 51
6, 67653, Note_on_c, 4, 60, 0
6, 67683, Control_c, 4, 11, 42
6, 67683, Note_on_c, 4, 60, 90
6, 67731, Control_c, 4, 11, 43
6, 67779, Control_c, 4, 11, 44
6, 67827, Control_c, 4, 11, 45
6, 67875, Control_c, 4, 11, 46
6, 67923, Control_c, 4, 11, 47
6, 67971, Control_c, 4, 11, 48
6, 68019, Control_c, 4, 11, 49
6, 68067, Control_c, 4, 11, 50
6, 68115, Control_c, 4, 11, 51
6, 68163, Control_c, 4, 11, 52
6, 69103, Note_on_c, 4, 60, 0
6, 69123, Note_on_c, 4, 64, 77
6, 69123, Control_c, 4, 11, 37
6, 69219, Control_c, 4, 11, 38
6, 69312, Note_on_c, 4, 64, 0
6, 69315, Control_c, 4, 11, 39
6, 69363, Note_on_c, 4, 64, 90
6, 69411, Control_c, 4, 11, 40
6, 69453, Note_on_c, 4, 64, 0
6, 69483, Note_on_c, 4, 64, 90
6, 69507, Control_c, 4, 11, 41
6, 69603, Control_c, 4, 11, 42
6, 69672, Note_on_c, 4, 64, 0
6, 69699, Control_c, 4, 11, 43
6, 69723, Note_on_c, 4, 64, 90
6, 69795, Control_c, 4, 11, 44
6, 69813, Note_on_c, 4, 64, 0
6, 69843, Note_on_c, 4, 64, 90
6, 69891, Control_c, 4, 11, 45
6, 69987, Control_c, 4, 11, 46
6, 70032, Note_on_c, 4, 64, 0
6, 70083, Control_c, 4, 11, 47
6, 70083, Note_on_c, 4, 64, 90
6, 70173, Note_on_c, 4, 64, 0
6, 70179, Control_c, 4, 11, 48
6, 70203, Note_on_c, 4, 64, 90
6, 70275, Control_c, 4, 11, 49
6, 70371, Control_c, 4, 11, 50
6, 70392, Note_on_c, 4, 64, 0
6, 70443, Note_on_c, 4, 64, 85
6, 70467, Control_c, 4, 11, 51
6, 70533, Note_on_c, 4, 64, 0
6, 70563, Note_on_c, 4, 65, 90
6, 70563, Control_c, 4, 11, 42
6, 70611, Control_c, 4, 11, 43
6, 70659, Control_c, 4, 11, 44
6, 70707, Control_c, 4, 11, 45
6, 70755, Control_c, 4, 11, 46
6, 70803, Control_c, 4, 11, 47
6, 70851, Control_c, 4, 11, 48
6, 70899, Control_c, 4, 11, 49
6, 70947, Control_c, 4, 11, 50
6, 70995, Control_c, 4, 11, 51
6, 71043, Control_c, 4, 11, 52
6, 71983, Note_on_c, 4, 65, 0
6, 72003, Note_on_c, 4, 62, 77
6, 72192, Note_on_c, 4, 62, 0
6, 72243, Note_on_c, 4, 62, 90
6, 72333, Note_on_c, 4, 62, 0
6, 72363, Note_on_c, 4, 64, 90
6, 72703, Note_on_c, 4, 64, 0
6, 72723, Note_on_c, 4, 62, 90
6, 72912, Note_on_c, 4, 62, 0
6, 72963, Note_on_c, 4, 62, 90
6, 73053, Note_on_c, 4, 62, 0
6, 73083, Note_on_c, 4, 60, 90
6, 73423, Note_on_c, 4, 60, 0
6, 73443, Note_on_c, 4, 62, 90
6, 73632, Note_on_c, 4, 62, 0
6, 73683, Note_on_c, 4, 62, 90
6, 73773, Note_on_c, 4, 62, 0
6, 73803, Note_on_c, 4, 62, 90
6, 73992, Note_on_c, 4, 62, 0
6, 74043, Note_on_c, 4, 62, 90
6, 74133, Note_on_c, 4, 62, 0
6, 74163, Note_on_c, 4, 62, 90
6, 74643, Note_on_c, 4, 62, 0
6, 74883, Note_on_c, 4, 62, 105
6, 74883, Control_c, 4, 11, 47
6, 75072, Note_on_c, 4, 62, 0
6, 75123, Note_on_c, 4, 62, 105
6, 75213, Note_on_c, 4, 62, 0
6, 75243, Note_on_c, 4, 62, 105
6, 75432, Note_on_c, 4, 62, 0
6, 75483, Note_on_c, 4, 62, 105
6, 75573, Note_on_c, 4, 62, 0
6, 75603, Note_on_c, 4, 62, 90
6, 75723, Note_on_c, 4, 62, 0
6, 76323, Note_on_c, 4, 62, 105
6, 76512, Note_on_c, 4, 62, 0
6, 76563, Note_on_c, 4, 62, 105
6, 76653, Note_on_c, 4, 62, 0
6, 76683, Note_on_c, 4, 62, 105
6, 76872, Note_on_c, 4, 62, 0
6, 76923, Note_on_c, 4, 62, 105
6, 77013, Note_on_c, 4, 62, 0
6, 77043, Note_on_c, 4, 62, 90
6, 77163, Note_on_c, 4, 62, 0
6, 78003, Control_c, 4, 11, 47
6, 78003, Note_on_c, 4, 62, 105
6, 78093, Note_on_c, 4, 62, 0
6, 78099, Control_c, 4, 11, 46
6, 78123, Note_on_c, 4, 62, 90
6, 78195, Control_c, 4, 11, 45
6, 78213, Note_on_c, 4, 62, 0
6, 78291, Control_c, 4, 11, 44
6, 78387, Control_c, 4, 11, 43
6, 78483, Control_c, 4, 11, 42
6, 78579, Control_c, 4, 11, 41
6, 78675, Control_c, 4, 11, 40
6, 78723, Note_on_c, 4, 62, 105
6, 78771, Control_c, 4, 11, 39
6, 78813, Note_on_c, 4, 62, 0
6, 78843, Note_on_c, 4, 62, 90
6, 78867, Control_c, 4, 11, 38
6, 78933, Note_on_c, 4, 62, 0
6, 78963, Control_c, 4, 11, 37
6, 79059, Control_c, 4, 11, 36
6, 79155, Control_c, 4, 11, 35
6, 79251, Control_c, 4, 11, 34
6, 79347, Control_c, 4, 11, 33
6, 79443, Control_c, 4, 11, 32
6, 79443, Note_on_c, 4, 62, 105
6, 79533, Note_on_c, 4, 62, 0
6, 79563, Note_on_c, 4, 62, 90
6, 79653, Note_on_c, 4, 62, 0
6, 81363, Control_c, 4, 11, 47
6, 81363, Note_on_c, 4, 55, 83
6, 81552, Note_on_c, 4, 55, 0
6, 81603, Note_on_c, 4, 55, 83
6, 81693, Note_on_c, 4, 55, 0
6, 81723, Note_on_c, 4, 55, 83
6, 81912, Note_on_c, 4, 55, 0
6, 81963, Note_on_c, 4, 55, 83
6, 82053, Note_on_c, 4, 55, 0
6, 82083, Control_c, 4, 11, 47
6, 82083, Note_on_c, 4, 55, 83
6, 82109, Control_c, 4, 11, 49
6, 82135, Control_c, 4, 11, 51
6, 82161, Control_c, 4, 11, 53
6, 82187, Control_c, 4, 11, 55
6, 82213, Control_c, 4, 11, 57
6, 82240, Control_c, 4, 11, 59
6, 82266, Control_c, 4, 11, 61
6, 82272, Note_on_c, 4, 55, 0
6, 82292, Control_c, 4, 11, 63
6, 82318, Control_c, 4, 11, 65
6, 82323, Note_on_c, 4, 55, 83
6, 82344, Control_c, 4, 11, 67
6, 82371, Control_c, 4, 11, 69
6, 82397, Control_c, 4, 11, 71
6, 82413, Note_on_c, 4, 55, 0
6, 82423, Control_c, 4, 11, 73
6, 82443, Note_on_c, 4, 55, 83
6, 82449, Control_c, 4, 11, 75
6, 82475, Control_c, 4, 11, 77
6, 82501, Control_c, 4, 11, 79
6, 82528, Control_c, 4, 11, 81
6, 82554, Control_c, 4, 11, 83
6, 82580, Control_c, 4, 11, 85
6, 82606, Control_c, 4, 11, 87
6, 82632, Note_on_c, 4, 55, 0
6, 82632, Control_c, 4, 11, 89
6, 82659, Control_c, 4, 11, 91
6, 82683, Note_on_c, 4, 55, 83
6, 82685, Control_c, 4, 11, 93
6, 82711, Control_c, 4, 11, 95
6, 82737, Control_c, 4, 11, 97
6, 82763, Control_c, 4, 11, 99
6, 82773, Note_on_c, 4, 55, 0
6, 82789, Control_c, 4, 11, 101
6, 82803, Note_on_c, 4, 55, 83
6, 82992, Note_on_c, 4, 55, 0
6, 83043, Note_on_c, 4, 60, 83
6, 83133, Note_on_c, 4, 60, 0
6, 83163, Control_c, 4, 11, 122
6, 83163, Note_on_c, 4, 60, 83
6, 83186, Control_c, 4, 11, 120
6, 83210, Control_c, 4, 11, 118
6, 83234, Control_c, 4, 11, 116
6, 83258, Control_c, 4, 11, 114
6, 83282, Control_c, 4, 11, 112
6, 83306, Control_c, 4, 11, 110
6, 83330, Control_c, 4, 11, 108
6, 83354, Control_c, 4, 11, 106
6, 83378, Control_c, 4, 11, 104
6, 83402, Control_c, 4, 11, 102
6, 83763, Note_on_c, 4, 60, 0
6, 83763, Note_on_c, 4, 60, 83
6, 83823, Note_on_c, 4, 60, 0
6, 83883, Control_c, 4, 11, 122
6, 83883, Note_on_c, 4, 62, 83
6, 83906, Control_c, 4, 11, 120
6, 83930, Control_c, 4, 11, 118
6, 83954, Control_c, 4, 11, 116
6, 83978, Control_c, 4, 11, 114
6, 84002, Control_c, 4, 11, 112
6, 84026, Control_c, 4, 11, 110
6, 84050, Control_c, 4, 11, 108
6, 84074, Control_c, 4, 11, 106
6, 84098, Control_c, 4, 11, 104
6, 84122, Control_c, 4, 11, 102
6, 84243, Note_on_c, 4, 62, 0
6, 84243, Note_on_c, 4, 64, 83
6, 84468, Note_on_c, 4, 64, 0
6, 84483, Note_on_c, 4, 60, 83
6, 84543, Note_on_c, 4, 60, 0
6, 84603, Note_on_c, 4, 60, 83
6, 84603, Control_c, 4, 11, 122
6, 84626, Control_c, 4, 11, 120
6, 84650, Control_c, 4, 11, 118
6, 84674, Control_c, 4, 11, 116
6, 84698, Control_c, 4, 11, 114
6, 84722, Control_c, 4, 11, 112
6, 84746, Control_c, 4, 11, 110
6, 84770, Control_c, 4, 11, 108
6, 84794, Control_c, 4, 11, 106
6, 84818, Control_c, 4, 11, 104
6, 84842, Control_c, 4, 11, 102
6, 85203, Note_on_c, 4, 60, 0
6, 85203, Note_on_c, 4, 60, 83
6, 85263, Note_on_c, 4, 60, 0
6, 85323, Note_on_c, 4, 62, 83
6, 85323, Control_c, 4, 11, 122
6, 85346, Control_c, 4, 11, 120
6, 85370, Control_c, 4, 11, 118
6, 85394, Control_c, 4, 11, 116
6, 85418, Control_c, 4, 11, 114
6, 85442, Control_c, 4, 11, 112
6, 85466, Control_c, 4, 11, 110
6, 85490, Control_c, 4, 11, 108
6, 85514, Control_c, 4, 11, 106
6, 85538, Control_c, 4, 11, 104
6, 85562, Control_c, 4, 11, 102
6, 85683, Note_on_c, 4, 62, 0
6, 85683, Note_on_c, 4, 60, 83
6, 85743, Note_on_c, 4, 60, 0
6, 85803, Note_on_c, 4, 62, 83
6, 85803, Control_c, 4, 11, 122
6, 85826, Control_c, 4, 11, 120
6, 85850, Control_c, 4, 11, 118
6, 85874, Control_c, 4, 11, 116
6, 85898, Control_c, 4, 11, 114
6, 85922, Control_c, 4, 11, 112
6, 85946, Control_c, 4, 11, 110
6, 85970, Control_c, 4, 11, 108
6, 85994, Control_c, 4, 11, 106
6, 86018, Control_c, 4, 11, 104
6, 86028, Note_on_c, 4, 62, 0
6, 86042, Control_c, 4, 11, 102
6, 86043, Note_on_c, 4, 60, 83
6, 86103, Note_on_c, 4, 60, 0
6, 86163, Note_on_c, 4, 62, 83
6, 86163, Control_c, 4, 11, 122
6, 86186, Control_c, 4, 11, 120
6, 86210, Control_c, 4, 11, 118
6, 86234, Control_c, 4, 11, 116
6, 86258, Control_c, 4, 11, 114
6, 86282, Control_c, 4, 11, 112
6, 86306, Control_c, 4, 11, 110
6, 86330, Control_c, 4, 11, 108
6, 86354, Control_c, 4, 11, 106
6, 86378, Control_c, 4, 11, 104
6, 86388, Note_on_c, 4, 62, 0
6, 86402, Control_c, 4, 11, 102
6, 86403, Control_c, 4, 11, 122
6, 86403, Note_on_c, 4, 62, 83
6, 86426, Control_c, 4, 11, 120
6, 86450, Control_c, 4, 11, 118
6, 86474, Control_c, 4, 11, 116
6, 86498, Control_c, 4, 11, 114
6, 86522, Control_c, 4, 11, 112
6, 86546, Control_c, 4, 11, 110
6, 86570, Control_c, 4, 11, 108
6, 86594, Control_c, 4, 11, 106
6, 86618, Control_c, 4, 11, 104
6, 86642, Control_c, 4, 11, 102
6, 86763, Note_on_c, 4, 62, 0
6, 86763, Note_on_c, 4, 60, 83
6, 86883, Note_on_c, 4, 60, 0
6, 87123, Control_c, 4, 11, 47
6, 87123, Note_on_c, 4, 62, 105
6, 87312, Note_on_c, 4, 62, 0
6, 87363, Note_on_c, 4, 62, 105
6, 87453, Note_on_c, 4, 62, 0
6, 87483, Note_on_c, 4, 62, 105
6, 87672, Note_on_c, 4, 62, 0
6, 87723, Note_on_c, 4, 62, 105
6, 87813, Note_on_c, 4, 62, 0
6, 87843, Note_on_c, 4, 62, 90
6, 87963, Note_on_c, 4, 62, 0
6, 88563, Note_on_c, 4, 62, 105
6, 88752, Note_on_c, 4, 62, 0
6, 88803, Note_on_c, 4, 62, 105
6, 88893, Note_on_c, 4, 62, 0
6, 88923, Note_on_c, 4, 62, 105
6, 89112, Note_on_c, 4, 62, 0
6, 89163, Note_on_c, 4, 62, 105
6, 89253, Note_on_c, 4, 62, 0
6, 89283, Note_on_c, 4, 62, 90
6, 89403, Note_on_c, 4, 62, 0
6, 90243, Note_on_c, 4, 62, 105
6, 90243, Control_c, 4, 11, 47
6, 90333, Note_on_c, 4, 62, 0
6, 90339, Control_c, 4, 11, 46
6, 90363, Note_on_c, 4, 62, 90
6, 90435, Control_c, 4, 11, 45
6, 90453, Note_on_c, 4, 62, 0
6, 90531, Control_c, 4, 11, 44
6, 90627, Control_c, 4, 11, 43
6, 90723, Control_c, 4, 11, 42
6, 90819, Control_c, 4, 11, 41
6, 90915, Control_c, 4, 11, 40
6, 90963, Note_on_c, 4, 62, 105
6, 91011, Control_c, 4, 11, 39
6, 91053, Note_on_c, 4, 62, 0
6, 91083, Note_on_c, 4, 62, 90
6, 91107, Control_c, 4, 11, 38
6, 91173, Note_on_c, 4, 62, 0
6, 91203, Control_c, 4, 11, 37
6, 91299, Control_c, 4, 11, 36
6, 91395, Control_c, 4, 11, 35
6, 91491, Control_c, 4, 11, 34
6, 91587, Control_c, 4, 11, 33
6, 91683, Note_on_c, 4, 62, 105
6, 91683, Control_c, 4, 11, 32
6, 91773, Note_on_c, 4, 62, 0
6, 91803, Note_on_c, 4, 62, 105
6, 91893, Note_on_c, 4, 62, 0
6, 93603, Note_on_c, 4, 55, 83
6, 93603, Control_c, 4, 11, 47
6, 93792, Note_on_c, 4, 55, 0
6, 93843, Note_on_c, 4, 55, 83
6, 93933, Note_on_c, 4, 55, 0
6, 93963, Note_on_c, 4, 55, 83
6, 94152, Note_on_c, 4, 55, 0
6, 94203, Note_on_c, 4, 55, 83
6, 94293, Note_on_c, 4, 55, 0
6, 94323, Control_c, 4, 11, 47
6, 94323, Note_on_c, 4, 55, 83
6, 94349, Control_c, 4, 11, 49
6, 94375, Control_c, 4, 11, 51
6, 94401, Control_c, 4, 11, 53
6, 94427, Control_c, 4, 11, 55
6, 94453, Control_c, 4, 11, 57
6, 94480, Control_c, 4, 11, 59
6, 94506, Control_c, 4, 11, 61
6, 94512, Note_on_c, 4, 55, 0
6, 94532, Control_c, 4, 11, 63
6, 94558, Control_c, 4, 11, 65
6, 94563, Note_on_c, 4, 55, 83
6, 94584, Control_c, 4, 11, 67
6, 94611, Control_c, 4, 11, 69
6, 94637, Control_c, 4, 11, 71
6, 94653, Note_on_c, 4, 55, 0
6, 94663, Control_c, 4, 11, 73
6, 94683, Note_on_c, 4, 55, 83
6, 94689, Control_c, 4, 11, 75
6, 94715, Control_c, 4, 11, 77
6, 94741, Control_c, 4, 11, 79
6, 94768, Control_c, 4, 11, 81
6, 94794, Control_c, 4, 11, 83
6, 94820, Control_c, 4, 11, 85
6, 94846, Control_c, 4, 11, 87
6, 94872, Note_on_c, 4, 55, 0
6, 94872, Control_c, 4, 11, 89
6, 94899, Control_c, 4, 11, 91
6, 94923, Note_on_c, 4, 55, 83
6, 94925, Control_c, 4, 11, 93
6, 94951, Control_c, 4, 11, 95
6, 94977, Control_c, 4, 11, 97
6, 95003, Control_c, 4, 11, 99
6, 95013, Note_on_c, 4, 55, 0
6, 95029, Control_c, 4, 11, 101
6, 95043, Note_on_c, 4, 55, 83
6, 95232, Note_on_c, 4, 55, 0
6, 95283, Note_on_c, 4, 60, 83
6, 95373, Note_on_c, 4, 60, 0
6, 95403, Note_on_c, 4, 60, 83
6, 95403, Control_c, 4, 11, 122
6, 95426, Control_c, 4, 11, 120
6, 95450, Control_c, 4, 11, 118
6, 95474, Control_c, 4, 11, 116
6, 95498, Control_c, 4, 11, 114
6, 95522, Control_c, 4, 11, 112
6, 95546, Control_c, 4, 11, 110
6, 95570, Control_c, 4, 11, 108
6, 95594, Control_c, 4, 11, 106
6, 95618, Control_c, 4, 11, 104
6, 95642, Control_c, 4, 11, 102
6, 96003, Note_on_c, 4, 60, 0
6, 96003, Note_on_c, 4, 60, 83
6, 96063, Note_on_c, 4, 60, 0
6, 96123, Control_c, 4, 11, 122
6, 96123, Note_on_c, 4, 62, 83
6, 96146, Control_c, 4, 11, 120
6, 96170, Control_c, 4, 11, 118
6, 96194, Control_c, 4, 11, 116
6, 96218, Control_c, 4, 11, 114
6, 96242, Control_c, 4, 11, 112
6, 96266, Control_c, 4, 11, 110
6, 96290, Control_c, 4, 11, 108
6, 96314, Control_c, 4, 11, 106
6, 96338, Control_c, 4, 11, 104
6, 96362, Control_c, 4, 11, 102
6, 96483, Note_on_c, 4, 62, 0
6, 96483, Note_on_c, 4, 64, 83
6, 96708, Note_on_c, 4, 64, 0
6, 96723, Note_on_c, 4, 60, 83
6, 96783, Note_on_c, 4, 60, 0
6, 96843, Note_on_c, 4, 60, 83
6, 96843, Control_c, 4, 11, 122
6, 96866, Control_c, 4, 11, 120
6, 96890, Control_c, 4, 11, 118
6, 96914, Control_c, 4, 11, 116
6, 96938, Control_c, 4, 11, 114
6, 96962, Control_c, 4, 11, 112
6, 96986, Control_c, 4, 11, 110
6, 97010, Control_c, 4, 11, 108
6, 97034, Control_c, 4, 11, 106
6, 97058, Control_c, 4, 11, 104
6, 97082, Control_c, 4, 11, 102
6, 97443, Note_on_c, 4, 60, 0
6, 97443, Note_on_c, 4, 60, 83
6, 97503, Note_on_c, 4, 60, 0
6, 97563, Note_on_c, 4, 62, 83
6, 97563, Control_c, 4, 11, 122
6, 97586, Control_c, 4, 11, 120
6, 97610, Control_c, 4, 11, 118
6, 97634, Control_c, 4, 11, 116
6, 97658, Control_c, 4, 11, 114
6, 97682, Control_c, 4, 11, 112
6, 97706, Control_c, 4, 11, 110
6, 97730, Control_c, 4, 11, 108
6, 97754, Control_c, 4, 11, 106
6, 97778, Control_c, 4, 11, 104
6, 97802, Control_c, 4, 11, 102
6, 97923, Note_on_c, 4, 62, 0
6, 97923, Note_on_c, 4, 60, 83
6, 97983, Note_on_c, 4, 60, 0
6, 98043, Note_on_c, 4, 62, 83
6, 98043, Control_c, 4, 11, 122
6, 98066, Control_c, 4, 11, 120
6, 98090, Control_c, 4, 11, 118
6, 98114, Control_c, 4, 11, 116
6, 98138, Control_c, 4, 11, 114
6, 98162, Control_c, 4, 11, 112
6, 98186, Control_c, 4, 11, 110
6, 98210, Control_c, 4, 11, 108
6, 98234, Control_c, 4, 11, 106
6, 98258, Control_c, 4, 11, 104
6, 98268, Note_on_c, 4, 62, 0
6, 98282, Control_c, 4, 11, 102
6, 98283, Note_on_c, 4, 60, 83
6, 98343, Note_on_c, 4, 60, 0
6, 98403, Note_on_c, 4, 62, 83
6, 98403, Control_c, 4, 11, 122
6, 98426, Control_c, 4, 11, 120
6, 98450, Control_c, 4, 11, 118
6, 98474, Control_c, 4, 11, 116
6, 98498, Control_c, 4, 11, 114
6, 98522, Control_c, 4, 11, 112
6, 98546, Control_c, 4, 11, 110
6, 98570, Control_c, 4, 11, 108
6, 98594, Control_c, 4, 11, 106
6, 98618, Control_c, 4, 11, 104
6, 98628, Note_on_c, 4, 62, 0
6, 98642, Control_c, 4, 11, 102
6, 98643, Control_c, 4, 11, 122
6, 98643, Note_on_c, 4, 62, 83
6, 98666, Control_c, 4, 11, 120
6, 98690, Control_c, 4, 11, 118
6, 98714, Control_c, 4, 11, 116
6, 98738, Control_c, 4, 11, 114
6, 98762, Control_c, 4, 11, 112
6, 98786, Control_c, 4, 11, 110
6, 98810, Control_c, 4, 11, 108
6, 98834, Control_c, 4, 11, 106
6, 98858, Control_c, 4, 11, 104
6, 98882, Control_c, 4, 11, 102
6, 99003, Note_on_c, 4, 62, 0
6, 99003, Note_on_c, 4, 60, 83
6, 99123, Note_on_c, 4, 60, 0
6, 101523, Note_on_c, 4, 62, 105
6, 101523, Control_c, 4, 11, 87
6, 101583, Note_on_c, 4, 62, 0
6, 101643, Note_on_c, 4, 62, 105
6, 101703, Note_on_c, 4, 62, 0
6, 101763, Note_on_c, 4, 62, 105
6, 101823, Note_on_c, 4, 62, 0
6, 101883, Note_on_c, 4, 55, 105
6, 102003, Note_on_c, 4, 55, 0
6, 104403, Note_on_c, 4, 62, 105
6, 104403, Control_c, 4, 11, 87
6, 104463, Note_on_c, 4, 62, 0
6, 104523, Note_on_c, 4, 62, 105
6, 104583, Note_on_c, 4, 62, 0
6, 104643, Note_on_c, 4, 62, 105
6, 104703, Note_on_c, 4, 62, 0
6, 104763, Note_on_c, 4, 55, 105
6, 104883, Note_on_c, 4, 55, 0
6, 117963, Note_on_c, 4, 60, 105
6, 117963, Control_c, 4, 11, 87
6, 118083, Note_on_c, 4, 60, 0
6, 118083, Note_on_c, 4, 60, 105
6, 118203, Note_on_c, 4, 60, 0
6, 118203, Note_on_c, 4, 60, 105
6, 118323, Note_on_c, 4, 60, 0
6, 118323, Note_on_c, 4, 60, 105
6, 118443, Note_on_c, 4, 60, 0
6, 118443, Note_on_c, 4, 60, 105
6, 118563, Note_on_c, 4, 60, 0
6, 118563, Note_on_c, 4, 60, 105
6, 118683, Note_on_c, 4, 60, 0
6, 118683, Note_on_c, 4, 67, 105
6, 118803, Note_on_c, 4, 67, 0
6, 118803, Note_on_c, 4, 67, 105
6, 118923, Note_on_c, 4, 67, 0
6, 118923, Note_on_c, 4, 60, 105
6, 119043, Note_on_c, 4, 60, 0
6, 119043, Note_on_c, 4, 62, 105
6, 119163, Note_on_c, 4, 62, 0
6, 119163, Control_c, 4, 11, 102
6, 119163, Note_on_c, 4, 55, 105
6, 120363, Note_on_c, 4, 55, 0
6, 120363, Note_on_c, 4, 64, 105
6, 120483, Note_on_c, 4, 64, 0
6, 120483, Note_on_c, 4, 62, 105
6, 120543, Note_on_c, 4, 62, 0
6, 120603, Note_on_c, 4, 62, 105
6, 120723, Note_on_c, 4, 62, 0
6, 121203, Note_on_c, 4, 60, 105
6, 121323, Note_on_c, 4, 60, 0
6, 121323, Note_on_c, 4, 60, 105
6, 121563, Note_on_c, 4, 60, 0
6, 121563, Note_on_c, 4, 60, 105
6, 121683, Note_on_c, 4, 60, 0
6, 121683, Note_on_c, 4, 60, 105
6, 121803, Note_on_c, 4, 60, 0
6, 121803, Note_on_c, 4, 65, 105
6, 121923, Note_on_c, 4, 65, 0
6, 121923, Note_on_c, 4, 62, 105
6, 122043, Note_on_c, 4, 62, 0
6, 122043, Note_on_c, 4, 64, 105
6, 122283, Note_on_c, 4, 64, 0
6, 122283, Note_on_c, 4, 60, 105
6, 122403, Note_on_c, 4, 60, 0
6, 122403, Note_on_c, 4, 64, 105
6, 122643, Note_on_c, 4, 64, 0
6, 122643, Note_on_c, 4, 62, 105
6, 122763, Note_on_c, 4, 62, 0
6, 122763, Note_on_c, 4, 60, 105
6, 122883, Note_on_c, 4, 60, 0
6, 124203, Note_on_c, 4, 60, 85
6, 125403, Control_c, 4, 11, 102
6, 125416, Control_c, 4, 11, 99
6, 125429, Control_c, 4, 11, 96
6, 125442, Control_c, 4, 11, 93
6, 125455, Control_c, 4, 11, 90
6, 125468, Control_c, 4, 11, 87
6, 125481, Control_c, 4, 11, 84
6, 125494, Control_c, 4, 11, 81
6, 125507, Control_c, 4, 11, 78
6, 125520, Control_c, 4, 11, 75
6, 125533, Control_c, 4, 11, 72
6, 125546, Control_c, 4, 11, 69
6, 125559, Control_c, 4, 11, 66
6, 125572, Control_c, 4, 11, 63
6, 125585, Control_c, 4, 11, 60
6, 125598, Control_c, 4, 11, 57
6, 125611, Control_c, 4, 11, 54
6, 125624, Control_c, 4, 11, 51
6, 125637, Control_c, 4, 11, 48
6, 125763, Note_on_c, 4, 60, 0
6, 126003, Note_on_c, 4, 62, 70
6, 126123, Note_on_c, 4, 62, 0
6, 126363, Note_on_c, 4, 64, 73
6, 126483, Note_on_c, 4, 64, 0
6, 126723, Note_on_c, 4, 62, 77
6, 126843, Note_on_c, 4, 62, 0
6, 127083, Note_on_c, 4, 60, 81
6, 127083, Control_c, 4, 11, 47
6, 127119, Control_c, 4, 11, 48
6, 127155, Control_c, 4, 11, 49
6, 127191, Control_c, 4, 11, 50
6, 127203, Note_on_c, 4, 60, 0
6, 127227, Control_c, 4, 11, 51
6, 127263, Control_c, 4, 11, 52
6, 127299, Control_c, 4, 11, 53
6, 127335, Control_c, 4, 11, 54
6, 127371, Control_c, 4, 11, 55
6, 127407, Control_c, 4, 11, 56
6, 127443, Control_c, 4, 11, 57
6, 127443, Note_on_c, 4, 62, 85
6, 127479, Control_c, 4, 11, 58
6, 127515, Control_c, 4, 11, 59
6, 127551, Control_c, 4, 11, 60
6, 127563, Note_on_c, 4, 62, 0
6, 127587, Control_c, 4, 11, 61
6, 127623, Control_c, 4, 11, 62
6, 127659, Control_c, 4, 11, 63
6, 127695, Control_c, 4, 11, 64
6, 127731, Control_c, 4, 11, 65
6, 127767, Control_c, 4, 11, 66
6, 127803, Control_c, 4, 11, 67
6, 127803, Note_on_c, 4, 64, 89
6, 127839, Control_c, 4, 11, 68
6, 127875, Control_c, 4, 11, 69
6, 127911, Control_c, 4, 11, 70
6, 127923, Note_on_c, 4, 64, 0
6, 127947, Control_c, 4, 11, 71
6, 127983, Control_c, 4, 11, 72
6, 128019, Control_c, 4, 11, 73
6, 128055, Control_c, 4, 11, 74
6, 128091, Control_c, 4, 11, 75
6, 128127, Control_c, 4, 11, 76
6, 128163, Control_c, 4, 11, 77
6, 128163, Note_on_c, 4, 62, 93
6, 128199, Control_c, 4, 11, 78
6, 128235, Control_c, 4, 11, 79
6, 128271, Control_c, 4, 11, 80
6, 128283, Note_on_c, 4, 62, 0
6, 128307, Control_c, 4, 11, 81
6, 128343, Control_c, 4, 11, 82
6, 128379, Control_c, 4, 11, 83
6, 128415, Control_c, 4, 11, 84
6, 128451, Control_c, 4, 11, 85
6, 128487, Control_c, 4, 11, 86
6, 128523, Control_c, 4, 11, 87
6, 128523, Note_on_c, 4, 60, 97
6, 128643, Note_on_c, 4, 60, 0
6, 128883, Note_on_c, 4, 62, 101
6, 129003, Note_on_c, 4, 62, 0
6, 129243, Note_on_c, 4, 60, 105
6, 129243, Control_c, 4, 11, 102
6, 129303, Note_on_c, 4, 60, 0
6, 129363, Note_on_c, 4, 64, 105
6, 129423, Note_on_c, 4, 64, 0
6, 129483, Note_on_c, 4, 67, 105
6, 129723, Note_on_c, 4, 67, 0
6, 129723, Note_on_c, 4, 67, 105
6, 129783, Note_on_c, 4, 67, 0
6, 129843, Note_on_c, 4, 67, 105
6, 129903, Note_on_c, 4, 67, 0
6, 129963, Note_on_c, 4, 60, 105
6, 130023, Note_on_c, 4, 60, 0
6, 130083, Note_on_c, 4, 67, 105
6, 130143, Note_on_c, 4, 67, 0
6, 130203, Note_on_c, 4, 64, 105
6, 130263, Note_on_c, 4, 64, 0
6, 130323, Note_on_c, 4, 60, 105
6, 130383, Note_on_c, 4, 60, 0
6, 130683, Control_c, 4, 121, 0
6, 130683, End_track
7, 0, Start_track
7, 0, MIDI_port, 0
7, 0, Title_t, "Corno II in C"
7, 0, Program_c, 5, 60
7, 0, Control_c, 5, 10, 28
7, 6, Control_c, 5, 121, 0
7, 11, Program_c, 5, 60
7, 16, Pitch_bend_c, 5, 8092
7, 21, Control_c, 5, 11, 87
7, 26, Control_c, 5, 7, 127
7, 31, Control_c, 5, 91, 80
7, 36, Control_c, 5, 93, 0
7, 41, Control_c, 5, 10, 28
7, 2886, Control_c, 5, 11, 87
7, 2886, Note_on_c, 5, 62, 105
7, 2946, Note_on_c, 5, 62, 0
7, 3006, Note_on_c, 5, 62, 105
7, 3066, Note_on_c, 5, 62, 0
7, 3126, Note_on_c, 5, 62, 105
7, 3186, Note_on_c, 5, 62, 0
7, 3246, Note_on_c, 5, 55, 105
7, 3366, Note_on_c, 5, 55, 0
7, 5766, Control_c, 5, 11, 87
7, 5766, Note_on_c, 5, 62, 105
7, 5826, Note_on_c, 5, 62, 0
7, 5886, Note_on_c, 5, 62, 105
7, 5946, Note_on_c, 5, 62, 0
7, 6006, Note_on_c, 5, 62, 105
7, 6066, Note_on_c, 5, 62, 0
7, 6126, Note_on_c, 5, 55, 105
7, 6246, Note_on_c, 5, 55, 0
7, 19326, Control_c, 5, 11, 87
7, 19326, Note_on_c, 5, 48, 105
7, 19446, Note_on_c, 5, 48, 0
7, 19446, Note_on_c, 5, 48, 105
7, 19566, Note_on_c, 5, 48, 0
7, 19566, Note_on_c, 5, 48, 105
7, 19686, Note_on_c, 5, 48, 0
7, 19686, Note_on_c, 5, 48, 105
7, 19806, Note_on_c, 5, 48, 0
7, 19806, Note_on_c, 5, 48, 105
7, 19926, Note_on_c, 5, 48, 0
7, 19926, Note_on_c, 5, 48, 105
7, 20046, Note_on_c, 5, 48, 0
7, 20046, Note_on_c, 5, 55, 105
7, 20166, Note_on_c, 5, 55, 0
7, 20166, Note_on_c, 5, 55, 105
7, 20286, Note_on_c, 5, 55, 0
7, 20286, Note_on_c, 5, 48, 105
7, 20406, Note_on_c, 5, 48, 0
7, 20406, Note_on_c, 5, 60, 105
7, 20526, Note_on_c, 5, 60, 0
7, 20526, Note_on_c, 5, 43, 105
7, 20526, Control_c, 5, 11, 102
7, 21726, Note_on_c, 5, 43, 0
7, 21726, Note_on_c, 5, 60, 105
7, 21846, Note_on_c, 5, 60, 0
7, 21846, Note_on_c, 5, 60, 105
7, 21906, Note_on_c, 5, 60, 0
7, 21966, Note_on_c, 5, 55, 105
7, 22086, Note_on_c, 5, 55, 0
7, 22566, Note_on_c, 5, 48, 105
7, 22686, Note_on_c, 5, 48, 0
7, 22686, Note_on_c, 5, 48, 105
7, 22926, Note_on_c, 5, 48, 0
7, 22926, Note_on_c, 5, 48, 105
7, 23046, Note_on_c, 5, 48, 0
7, 23046, Note_on_c, 5, 48, 105
7, 23166, Note_on_c, 5, 48, 0
7, 23166, Note_on_c, 5, 62, 105
7, 23286, Note_on_c, 5, 62, 0
7, 23286, Note_on_c, 5, 55, 105
7, 23406, Note_on_c, 5, 55, 0
7, 23406, Note_on_c, 5, 60, 105
7, 23646, Note_on_c, 5, 60, 0
7, 23646, Note_on_c, 5, 48, 105
7, 23766, Note_on_c, 5, 48, 0
7, 23766, Note_on_c, 5, 60, 105
7, 24006, Note_on_c, 5, 60, 0
7, 24006, Note_on_c, 5, 55, 105
7, 24126, Note_on_c, 5, 55, 0
7, 24126, Note_on_c, 5, 52, 105
7, 24246, Note_on_c, 5, 52, 0
7, 25566, Note_on_c, 5, 48, 85
7, 26766, Control_c, 5, 11, 102
7, 26779, Control_c, 5, 11, 99
7, 26792, Control_c, 5, 11, 96
7, 26805, Control_c, 5, 11, 93
7, 26818, Control_c, 5, 11, 90
7, 26831, Control_c, 5, 11, 87
7, 26844, Control_c, 5, 11, 84
7, 26857, Control_c, 5, 11, 81
7, 26870, Control_c, 5, 11, 78
7, 26883, Control_c, 5, 11, 75
7, 26896, Control_c, 5, 11, 72
7, 26909, Control_c, 5, 11, 69
7, 26922, Control_c, 5, 11, 66
7, 26935, Control_c, 5, 11, 63
7, 26948, Control_c, 5, 11, 60
7, 26961, Control_c, 5, 11, 57
7, 26974, Control_c, 5, 11, 54
7, 26987, Control_c, 5, 11, 51
7, 27000, Control_c, 5, 11, 48
7, 27126, Note_on_c, 5, 48, 0
7, 27366, Note_on_c, 5, 55, 70
7, 27486, Note_on_c, 5, 55, 0
7, 27726, Note_on_c, 5, 60, 73
7, 27846, Note_on_c, 5, 60, 0
7, 28086, Note_on_c, 5, 55, 77
7, 28206, Note_on_c, 5, 55, 0
7, 28446, Note_on_c, 5, 52, 81
7, 28446, Control_c, 5, 11, 47
7, 28482, Control_c, 5, 11, 48
7, 28518, Control_c, 5, 11, 49
7, 28554, Control_c, 5, 11, 50
7, 28566, Note_on_c, 5, 52, 0
7, 28590, Control_c, 5, 11, 51
7, 28626, Control_c, 5, 11, 52
7, 28662, Control_c, 5, 11, 53
7, 28698, Control_c, 5, 11, 54
7, 28734, Control_c, 5, 11, 55
7, 28770, Control_c, 5, 11, 56
7, 28806, Control_c, 5, 11, 57
7, 28806, Note_on_c, 5, 55, 85
7, 28842, Control_c, 5, 11, 58
7, 28878, Control_c, 5, 11, 59
7, 28914, Control_c, 5, 11, 60
7, 28926, Note_on_c, 5, 55, 0
7, 28950, Control_c, 5, 11, 61
7, 28986, Control_c, 5, 11, 62
7, 29022, Control_c, 5, 11, 63
7, 29058, Control_c, 5, 11, 64
7, 29094, Control_c, 5, 11, 65
7, 29130, Control_c, 5, 11, 66
7, 29166, Note_on_c, 5, 60, 89
7, 29166, Control_c, 5, 11, 67
7, 29202, Control_c, 5, 11, 68
7, 29238, Control_c, 5, 11, 69
7, 29274, Control_c, 5, 11, 70
7, 29286, Note_on_c, 5, 60, 0
7, 29310, Control_c, 5, 11, 71
7, 29346, Control_c, 5, 11, 72
7, 29382, Control_c, 5, 11, 73
7, 29418, Control_c, 5, 11, 74
7, 29454, Control_c, 5, 11, 75
7, 29490, Control_c, 5, 11, 76
7, 29526, Control_c, 5, 11, 77
7, 29526, Note_on_c, 5, 55, 93
7, 29562, Control_c, 5, 11, 78
7, 29598, Control_c, 5, 11, 79
7, 29634, Control_c, 5, 11, 80
7, 29646, Note_on_c, 5, 55, 0
7, 29670, Control_c, 5, 11, 81
7, 29706, Control_c, 5, 11, 82
7, 29742, Control_c, 5, 11, 83
7, 29778, Control_c, 5, 11, 84
7, 29814, Control_c, 5, 11, 85
7, 29850, Control_c, 5, 11, 86
7, 29886, Control_c, 5, 11, 87
7, 29886, Note_on_c, 5, 52, 97
7, 30006, Note_on_c, 5, 52, 0
7, 30246, Note_on_c, 5, 55, 101
7, 30366, Note_on_c, 5, 55, 0
7, 30606, Control_c, 5, 11, 102
7, 30606, Note_on_c, 5, 48, 105
7, 30666, Note_on_c, 5, 48, 0
7, 30726, Note_on_c, 5, 52, 105
7, 30786, Note_on_c, 5, 52, 0
7, 30846, Note_on_c, 5, 55, 105
7, 31086, Note_on_c, 5, 55, 0
7, 31086, Note_on_c, 5, 55, 105
7, 31146, Note_on_c, 5, 55, 0
7, 31206, Note_on_c, 5, 55, 105
7, 31266, Note_on_c, 5, 55, 0
7, 31326, Note_on_c, 5, 48, 105
7, 31386, Note_on_c, 5, 48, 0
7, 31446, Note_on_c, 5, 55, 105
7, 31506, Note_on_c, 5, 55, 0
7, 31566, Note_on_c, 5, 52, 105
7, 31626, Note_on_c, 5, 52, 0
7, 31686, Note_on_c, 5, 48, 105
7, 31746, Note_on_c, 5, 48, 0
7, 44886, Control_c, 5, 11, 87
7, 44886, Note_on_c, 5, 48, 105
7, 45006, Note_on_c, 5, 48, 0
7, 45006, Note_on_c, 5, 48, 105
7, 45126, Note_on_c, 5, 48, 0
7, 45126, Note_on_c, 5, 48, 105
7, 45246, Note_on_c, 5, 48, 0
7, 45246, Note_on_c, 5, 48, 105
7, 45366, Note_on_c, 5, 48, 0
7, 45366, Note_on_c, 5, 48, 105
7, 45486, Note_on_c, 5, 48, 0
7, 45486, Note_on_c, 5, 48, 105
7, 45606, Note_on_c, 5, 48, 0
7, 45606, Note_on_c, 5, 55, 105
7, 45726, Note_on_c, 5, 55, 0
7, 45726, Note_on_c, 5, 55, 105
7, 45846, Note_on_c, 5, 55, 0
7, 45846, Note_on_c, 5, 48, 105
7, 45966, Note_on_c, 5, 48, 0
7, 45966, Note_on_c, 5, 60, 105
7, 46086, Note_on_c, 5, 60, 0
7, 46086, Control_c, 5, 11, 102
7, 46086, Note_on_c, 5, 43, 105
7, 47286, Note_on_c, 5, 43, 0
7, 47286, Note_on_c, 5, 60, 105
7, 47406, Note_on_c, 5, 60, 0
7, 47406, Note_on_c, 5, 60, 105
7, 47466, Note_on_c, 5, 60, 0
7, 47526, Note_on_c, 5, 55, 105
7, 47646, Note_on_c, 5, 55, 0
7, 48126, Note_on_c, 5, 48, 105
7, 48246, Note_on_c, 5, 48, 0
7, 48246, Note_on_c, 5, 48, 105
7, 48486, Note_on_c, 5, 48, 0
7, 48486, Note_on_c, 5, 48, 105
7, 48606, Note_on_c, 5, 48, 0
7, 48606, Note_on_c, 5, 48, 105
7, 48726, Note_on_c, 5, 48, 0
7, 48726, Note_on_c, 5, 62, 105
7, 48846, Note_on_c, 5, 62, 0
7, 48846, Note_on_c, 5, 55, 105
7, 48966, Note_on_c, 5, 55, 0
7, 48966, Note_on_c, 5, 60, 105
7, 49206, Note_on_c, 5, 60, 0
7, 49206, Note_on_c, 5, 48, 105
7, 49326, Note_on_c, 5, 48, 0
7, 49326, Note_on_c, 5, 60, 105
7, 49566, Note_on_c, 5, 60, 0
7, 49566, Note_on_c, 5, 55, 105
7, 49686, Note_on_c, 5, 55, 0
7, 49686, Note_on_c, 5, 52, 105
7, 49806, Note_on_c, 5, 52, 0
7, 51126, Note_on_c, 5, 48, 85
7, 52326, Control_c, 5, 11, 102
7, 52339, Control_c, 5, 11, 99
7, 52352, Control_c, 5, 11, 96
7, 52365, Control_c, 5, 11, 93
7, 52378, Control_c, 5, 11, 90
7, 52391, Control_c, 5, 11, 87
7, 52404, Control_c, 5, 11, 84
7, 52417, Control_c, 5, 11, 81
7, 52430, Control_c, 5, 11, 78
7, 52443, Control_c, 5, 11, 75
7, 52456, Control_c, 5, 11, 72
7, 52469, Control_c, 5, 11, 69
7, 52482, Control_c, 5, 11, 66
7, 52495, Control_c, 5, 11, 63
7, 52508, Control_c, 5, 11, 60
7, 52521, Control_c, 5, 11, 57
7, 52534, Control_c, 5, 11, 54
7, 52547, Control_c, 5, 11, 51
7, 52560, Control_c, 5, 11, 48
7, 52686, Note_on_c, 5, 48, 0
7, 52926, Note_on_c, 5, 55, 70
7, 53046, Note_on_c, 5, 55, 0
7, 53286, Note_on_c, 5, 60, 73
7, 53406, Note_on_c, 5, 60, 0
7, 53646, Note_on_c, 5, 55, 77
7, 53766, Note_on_c, 5, 55, 0
7, 54006, Control_c, 5, 11, 47
7, 54006, Note_on_c, 5, 52, 81
7, 54042, Control_c, 5, 11, 48
7, 54078, Control_c, 5, 11, 49
7, 54114, Control_c, 5, 11, 50
7, 54126, Note_on_c, 5, 52, 0
7, 54150, Control_c, 5, 11, 51
7, 54186, Control_c, 5, 11, 52
7, 54222, Control_c, 5, 11, 53
7, 54258, Control_c, 5, 11, 54
7, 54294, Control_c, 5, 11, 55
7, 54330, Control_c, 5, 11, 56
7, 54366, Note_on_c, 5, 55, 85
7, 54366, Control_c, 5, 11, 57
7, 54402, Control_c, 5, 11, 58
7, 54438, Control_c, 5, 11, 59
7, 54474, Control_c, 5, 11, 60
7, 54486, Note_on_c, 5, 55, 0
7, 54510, Control_c, 5, 11, 61
7, 54546, Control_c, 5, 11, 62
7, 54582, Control_c, 5, 11, 63
7, 54618, Control_c, 5, 11, 64
7, 54654, Control_c, 5, 11, 65
7, 54690, Control_c, 5, 11, 66
7, 54726, Control_c, 5, 11, 67
7, 54726, Note_on_c, 5, 60, 89
7, 54762, Control_c, 5, 11, 68
7, 54798, Control_c, 5, 11, 69
7, 54834, Control_c, 5, 11, 70
7, 54846, Note_on_c, 5, 60, 0
7, 54870, Control_c, 5, 11, 71
7, 54906, Control_c, 5, 11, 72
7, 54942, Control_c, 5, 11, 73
7, 54978, Control_c, 5, 11, 74
7, 55014, Control_c, 5, 11, 75
7, 55050, Control_c, 5, 11, 76
7, 55086, Note_on_c, 5, 55, 93
7, 55086, Control_c, 5, 11, 77
7, 55122, Control_c, 5, 11, 78
7, 55158, Control_c, 5, 11, 79
7, 55194, Control_c, 5, 11, 80
7, 55206, Note_on_c, 5, 55, 0
7, 55230, Control_c, 5, 11, 81
7, 55266, Control_c, 5, 11, 82
7, 55302, Control_c, 5, 11, 83
7, 55338, Control_c, 5, 11, 84
7, 55374, Control_c, 5, 11, 85
7, 55410, Control_c, 5, 11, 86
7, 55446, Note_on_c, 5, 52, 97
7, 55446, Control_c, 5, 11, 87
7, 55566, Note_on_c, 5, 52, 0
7, 55806, Note_on_c, 5, 55, 101
7, 55926, Note_on_c, 5, 55, 0
7, 56166, Note_on_c, 5, 48, 105
7, 56166, Control_c, 5, 11, 102
7, 56226, Note_on_c, 5, 48, 0
7, 56286, Note_on_c, 5, 52, 105
7, 56346, Note_on_c, 5, 52, 0
7, 56406, Note_on_c, 5, 55, 105
7, 56646, Note_on_c, 5, 55, 0
7, 56646, Note_on_c, 5, 55, 105
7, 56706, Note_on_c, 5, 55, 0
7, 56766, Note_on_c, 5, 55, 105
7, 56826, Note_on_c, 5, 55, 0
7, 56886, Note_on_c, 5, 48, 105
7, 56946, Note_on_c, 5, 48, 0
7, 57006, Note_on_c, 5, 55, 105
7, 57066, Note_on_c, 5, 55, 0
7, 57126, Note_on_c, 5, 52, 105
7, 57186, Note_on_c, 5, 52, 0
7, 57246, Note_on_c, 5, 48, 105
7, 57306, Note_on_c, 5, 48, 0
7, 57486, Control_c, 5, 11, 37
7, 57590, Control_c, 5, 11, 38
7, 57606, Note_on_c, 5, 52, 90
7, 57694, Control_c, 5, 11, 39
7, 57795, Note_on_c, 5, 52, 0
7, 57798, Control_c, 5, 11, 40
7, 57846, Note_on_c, 5, 52, 90
7, 57902, Control_c, 5, 11, 41
7, 57936, Note_on_c, 5, 52, 0
7, 57966, Note_on_c, 5, 52, 90
7, 58006, Control_c, 5, 11, 42
7, 58110, Control_c, 5, 11, 43
7, 58155, Note_on_c, 5, 52, 0
7, 58206, Note_on_c, 5, 52, 90
7, 58214, Control_c, 5, 11, 44
7, 58296, Note_on_c, 5, 52, 0
7, 58318, Control_c, 5, 11, 45
7, 58326, Note_on_c, 5, 52, 90
7, 58422, Control_c, 5, 11, 46
7, 58515, Note_on_c, 5, 52, 0
7, 58526, Control_c, 5, 11, 47
7, 58566, Note_on_c, 5, 52, 90
7, 58630, Control_c, 5, 11, 48
7, 58656, Note_on_c, 5, 52, 0
7, 58686, Note_on_c, 5, 52, 90
7, 58734, Control_c, 5, 11, 49
7, 58838, Control_c, 5, 11, 50
7, 58875, Note_on_c, 5, 52, 0
7, 58926, Note_on_c, 5, 52, 85
7, 58942, Control_c, 5, 11, 51
7, 59016, Note_on_c, 5, 52, 0
7, 59046, Note_on_c, 5, 52, 90
7, 59046, Control_c, 5, 11, 42
7, 59094, Control_c, 5, 11, 43
7, 59142, Control_c, 5, 11, 44
7, 59190, Control_c, 5, 11, 45
7, 59238, Control_c, 5, 11, 46
7, 59286, Control_c, 5, 11, 47
7, 59334, Control_c, 5, 11, 48
7, 59382, Control_c, 5, 11, 49
7, 59430, Control_c, 5, 11, 50
7, 59478, Control_c, 5, 11, 51
7, 59526, Control_c, 5, 11, 52
7, 60466, Note_on_c, 5, 52, 0
7, 60486, Control_c, 5, 11, 37
7, 60486, Note_on_c, 5, 60, 77
7, 60582, Control_c, 5, 11, 38
7, 60675, Note_on_c, 5, 60, 0
7, 60678, Control_c, 5, 11, 39
7, 60726, Note_on_c, 5, 60, 90
7, 60774, Control_c, 5, 11, 40
7, 60816, Note_on_c, 5, 60, 0
7, 60846, Note_on_c, 5, 60, 90
7, 60870, Control_c, 5, 11, 41
7, 60966, Control_c, 5, 11, 42
7, 61035, Note_on_c, 5, 60, 0
7, 61062, Control_c, 5, 11, 43
7, 61086, Note_on_c, 5, 60, 90
7, 61158, Control_c, 5, 11, 44
7, 61176, Note_on_c, 5, 60, 0
7, 61206, Note_on_c, 5, 60, 90
7, 61254, Control_c, 5, 11, 45
7, 61350, Control_c, 5, 11, 46
7, 61395, Note_on_c, 5, 60, 0
7, 61446, Control_c, 5, 11, 47
7, 61446, Note_on_c, 5, 60, 90
7, 61536, Note_on_c, 5, 60, 0
7, 61542, Control_c, 5, 11, 48
7, 61566, Note_on_c, 5, 60, 90
7, 61638, Control_c, 5, 11, 49
7, 61734, Control_c, 5, 11, 50
7, 61755, Note_on_c, 5, 60, 0
7, 61806, Note_on_c, 5, 60, 85
7, 61830, Control_c, 5, 11, 51
7, 61896, Note_on_c, 5, 60, 0
7, 61926, Note_on_c, 5, 62, 90
7, 61926, Control_c, 5, 11, 42
7, 61974, Control_c, 5, 11, 43
7, 62022, Control_c, 5, 11, 44
7, 62070, Control_c, 5, 11, 45
7, 62118, Control_c, 5, 11, 46
7, 62166, Control_c, 5, 11, 47
7, 62214, Control_c, 5, 11, 48
7, 62262, Control_c, 5, 11, 49
7, 62310, Control_c, 5, 11, 50
7, 62358, Control_c, 5, 11, 51
7, 62406, Control_c, 5, 11, 52
7, 63346, Note_on_c, 5, 62, 0
7, 63366, Note_on_c, 5, 55, 77
7, 63555, Note_on_c, 5, 55, 0
7, 63606, Note_on_c, 5, 55, 90
7, 63696, Note_on_c, 5, 55, 0
7, 63726, Note_on_c, 5, 60, 90
7, 64066, Note_on_c, 5, 60, 0
7, 64086, Note_on_c, 5, 55, 90
7, 64275, Note_on_c, 5, 55, 0
7, 64326, Note_on_c, 5, 55, 90
7, 64416, Note_on_c, 5, 55, 0
7, 64446, Note_on_c, 5, 52, 90
7, 64786, Note_on_c, 5, 52, 0
7, 64806, Note_on_c, 5, 62, 90
7, 64995, Note_on_c, 5, 62, 0
7, 65046, Note_on_c, 5, 62, 90
7, 65136, Note_on_c, 5, 62, 0
7, 65166, Note_on_c, 5, 62, 90
7, 65355, Note_on_c, 5, 62, 0
7, 65406, Note_on_c, 5, 62, 90
7, 65496, Note_on_c, 5, 62, 0
7, 65526, Note_on_c, 5, 55, 90
7, 66006, Note_on_c, 5, 55, 0
7, 66126, Control_c, 5, 11, 37
7, 66230, Control_c, 5, 11, 38
7, 66246, Note_on_c, 5, 52, 90
7, 66334, Control_c, 5, 11, 39
7, 66435, Note_on_c, 5, 52, 0
7, 66438, Control_c, 5, 11, 40
7, 66486, Note_on_c, 5, 52, 90
7, 66542, Control_c, 5, 11, 41
7, 66576, Note_on_c, 5, 52, 0
7, 66606, Note_on_c, 5, 52, 90
7, 66646, Control_c, 5, 11, 42
7, 66750, Control_c, 5, 11, 43
7, 66795, Note_on_c, 5, 52, 0
7, 66846, Note_on_c, 5, 52, 90
7, 66854, Control_c, 5, 11, 44
7, 66936, Note_on_c, 5, 52, 0
7, 66958, Control_c, 5, 11, 45
7, 66966, Note_on_c, 5, 52, 90
7, 67062, Control_c, 5, 11, 46
7, 67155, Note_on_c, 5, 52, 0
7, 67166, Control_c, 5, 11, 47
7, 67206, Note_on_c, 5, 52, 90
7, 67270, Control_c, 5, 11, 48
7, 67296, Note_on_c, 5, 52, 0
7, 67326, Note_on_c, 5, 52, 90
7, 67374, Control_c, 5, 11, 49
7, 67478, Control_c, 5, 11, 50
7, 67515, Note_on_c, 5, 52, 0
7, 67566, Note_on_c, 5, 52, 85
7, 67582, Control_c, 5, 11, 51
7, 67656, Note_on_c, 5, 52, 0
7, 67686, Control_c, 5, 11, 42
7, 67686, Note_on_c, 5, 52, 90
7, 67734, Control_c, 5, 11, 43
7, 67782, Control_c, 5, 11, 44
7, 67830, Control_c, 5, 11, 45
7, 67878, Control_c, 5, 11, 46
7, 67926, Control_c, 5, 11, 47
7, 67974, Control_c, 5, 11, 48
7, 68022, Control_c, 5, 11, 49
7, 68070, Control_c, 5, 11, 50
7, 68118, Control_c, 5, 11, 51
7, 68166, Control_c, 5, 11, 52
7, 69106, Note_on_c, 5, 52, 0
7, 69126, Control_c, 5, 11, 37
7, 69126, Note_on_c, 5, 60, 77
7, 69222, Control_c, 5, 11, 38
7, 69315, Note_on_c, 5, 60, 0
7, 69318, Control_c, 5, 11, 39
7, 69366, Note_on_c, 5, 60, 90
7, 69414, Control_c, 5, 11, 40
7, 69456, Note_on_c, 5, 60, 0
7, 69486, Note_on_c, 5, 60, 90
7, 69510, Control_c, 5, 11, 41
7, 69606, Control_c, 5, 11, 42
7, 69675, Note_on_c, 5, 60, 0
7, 69702, Control_c, 5, 11, 43
7, 69726, Note_on_c, 5, 60, 90
7, 69798, Control_c, 5, 11, 44
7, 69816, Note_on_c, 5, 60, 0
7, 69846, Note_on_c, 5, 60, 90
7, 69894, Control_c, 5, 11, 45
7, 69990, Control_c, 5, 11, 46
7, 70035, Note_on_c, 5, 60, 0
7, 70086, Note_on_c, 5, 60, 90
7, 70086, Control_c, 5, 11, 47
7, 70176, Note_on_c, 5, 60, 0
7, 70182, Control_c, 5, 11, 48
7, 70206, Note_on_c, 5, 60, 90
7, 70278, Control_c, 5, 11, 49
7, 70374, Control_c, 5, 11, 50
7, 70395, Note_on_c, 5, 60, 0
7, 70446, Note_on_c, 5, 60, 85
7, 70470, Control_c, 5, 11, 51
7, 70536, Note_on_c, 5, 60, 0
7, 70566, Control_c, 5, 11, 42
7, 70566, Note_on_c, 5, 62, 90
7, 70614, Control_c, 5, 11, 43
7, 70662, Control_c, 5, 11, 44
7, 70710, Control_c, 5, 11, 45
7, 70758, Control_c, 5, 11, 46
7, 70806, Control_c, 5, 11, 47
7, 70854, Control_c, 5, 11, 48
7, 70902, Control_c, 5, 11, 49
7, 70950, Control_c, 5, 11, 50
7, 70998, Control_c, 5, 11, 51
7, 71046, Control_c, 5, 11, 52
7, 71986, Note_on_c, 5, 62, 0
7, 72006, Note_on_c, 5, 55, 77
7, 72195, Note_on_c, 5, 55, 0
7, 72246, Note_on_c, 5, 55, 90
7, 72336, Note_on_c, 5, 55, 0
7, 72366, Note_on_c, 5, 60, 90
7, 72706, Note_on_c, 5, 60, 0
7, 72726, Note_on_c, 5, 55, 90
7, 72915, Note_on_c, 5, 55, 0
7, 72966, Note_on_c, 5, 55, 90
7, 73056, Note_on_c, 5, 55, 0
7, 73086, Note_on_c, 5, 52, 90
7, 73426, Note_on_c, 5, 52, 0
7, 73446, Note_on_c, 5, 62, 90
7, 73635, Note_on_c, 5, 62, 0
7, 73686, Note_on_c, 5, 62, 90
7, 73776, Note_on_c, 5, 62, 0
7, 73806, Note_on_c, 5, 62, 90
7, 73995, Note_on_c, 5, 62, 0
7, 74046, Note_on_c, 5, 62, 90
7, 74136, Note_on_c, 5, 62, 0
7, 74166, Note_on_c, 5, 55, 90
7, 74646, Note_on_c, 5, 55, 0
7, 74886, Control_c, 5, 11, 47
7, 74886, Note_on_c, 5, 55, 105
7, 75075, Note_on_c, 5, 55, 0
7, 75126, Note_on_c, 5, 55, 105
7, 75216, Note_on_c, 5, 55, 0
7, 75246, Note_on_c, 5, 55, 105
7, 75435, Note_on_c, 5, 55, 0
7, 75486, Note_on_c, 5, 55, 105
7, 75576, Note_on_c, 5, 55, 0
7, 75606, Note_on_c, 5, 55, 90
7, 75726, Note_on_c, 5, 55, 0
7, 76326, Note_on_c, 5, 55, 105
7, 76515, Note_on_c, 5, 55, 0
7, 76566, Note_on_c, 5, 55, 105
7, 76656, Note_on_c, 5, 55, 0
7, 76686, Note_on_c, 5, 55, 105
7, 76875, Note_on_c, 5, 55, 0
7, 76926, Note_on_c, 5, 55, 105
7, 77016, Note_on_c, 5, 55, 0
7, 77046, Note_on_c, 5, 55, 90
7, 77166, Note_on_c, 5, 55, 0
7, 78006, Note_on_c, 5, 55, 105
7, 78006, Control_c, 5, 11, 47
7, 78096, Note_on_c, 5, 55, 0
7, 78102, Control_c, 5, 11, 46
7, 78126, Note_on_c, 5, 55, 90
7, 78198, Control_c, 5, 11, 45
7, 78216, Note_on_c, 5, 55, 0
7, 78294, Control_c, 5, 11, 44
7, 78390, Control_c, 5, 11, 43
7, 78486, Control_c, 5, 11, 42
7, 78582, Control_c, 5, 11, 41
7, 78678, Control_c, 5, 11, 40
7, 78726, Note_on_c, 5, 55, 105
7, 78774, Control_c, 5, 11, 39
7, 78816, Note_on_c, 5, 55, 0
7, 78846, Note_on_c, 5, 55, 90
7, 78870, Control_c, 5, 11, 38
7, 78936, Note_on_c, 5, 55, 0
7, 78966, Control_c, 5, 11, 37
7, 79062, Control_c, 5, 11, 36
7, 79158, Control_c, 5, 11, 35
7, 79254, Control_c, 5, 11, 34
7, 79350, Control_c, 5, 11, 33
7, 79446, Note_on_c, 5, 55, 105
7, 79446, Control_c, 5, 11, 32
7, 79536, Note_on_c, 5, 55, 0
7, 79566, Note_on_c, 5, 55, 90
7, 79656, Note_on_c, 5, 55, 0
7, 81366, Note_on_c, 5, 48, 83
7, 81366, Control_c, 5, 11, 47
7, 81555, Note_on_c, 5, 48, 0
7, 81606, Note_on_c, 5, 48, 83
7, 81696, Note_on_c, 5, 48, 0
7, 81726, Note_on_c, 5, 48, 83
7, 81915, Note_on_c, 5, 48, 0
7, 81966, Note_on_c, 5, 48, 83
7, 82056, Note_on_c, 5, 48, 0
7, 82086, Control_c, 5, 11, 47
7, 82086, Note_on_c, 5, 48, 83
7, 82112, Control_c, 5, 11, 49
7, 82138, Control_c, 5, 11, 51
7, 82164, Control_c, 5, 11, 53
7, 82190, Control_c, 5, 11, 55
7, 82216, Control_c, 5, 11, 57
7, 82243, Control_c, 5, 11, 59
7, 82269, Control_c, 5, 11, 61
7, 82275, Note_on_c, 5, 48, 0
7, 82295, Control_c, 5, 11, 63
7, 82321, Control_c, 5, 11, 65
7, 82326, Note_on_c, 5, 48, 83
7, 82347, Control_c, 5, 11, 67
7, 82374, Control_c, 5, 11, 69
7, 82400, Control_c, 5, 11, 71
7, 82416, Note_on_c, 5, 48, 0
7, 82426, Control_c, 5, 11, 73
7, 82446, Note_on_c, 5, 48, 83
7, 82452, Control_c, 5, 11, 75
7, 82478, Control_c, 5, 11, 77
7, 82504, Control_c, 5, 11, 79
7, 82531, Control_c, 5, 11, 81
7, 82557, Control_c, 5, 11, 83
7, 82583, Control_c, 5, 11, 85
7, 82609, Control_c, 5, 11, 87
7, 82635, Note_on_c, 5, 48, 0
7, 82635, Control_c, 5, 11, 89
7, 82662, Control_c, 5, 11, 91
7, 82686, Note_on_c, 5, 48, 83
7, 82688, Control_c, 5, 11, 93
7, 82714, Control_c, 5, 11, 95
7, 82740, Control_c, 5, 11, 97
7, 82766, Control_c, 5, 11, 99
7, 82776, Note_on_c, 5, 48, 0
7, 82792, Control_c, 5, 11, 101
7, 82806, Note_on_c, 5, 48, 83
7, 82995, Note_on_c, 5, 48, 0
7, 83046, Note_on_c, 5, 48, 83
7, 83136, Note_on_c, 5, 48, 0
7, 83166, Note_on_c, 5, 48, 83
7, 83166, Control_c, 5, 11, 122
7, 83189, Control_c, 5, 11, 120
7, 83213, Control_c, 5, 11, 118
7, 83237, Control_c, 5, 11, 116
7, 83261, Control_c, 5, 11, 114
7, 83285, Control_c, 5, 11, 112
7, 83309, Control_c, 5, 11, 110
7, 83333, Control_c, 5, 11, 108
7, 83357, Control_c, 5, 11, 106
7, 83381, Control_c, 5, 11, 104
7, 83405, Control_c, 5, 11, 102
7, 83526, Note_on_c, 5, 48, 0
7, 83526, Note_on_c, 5, 52, 83
7, 83751, Note_on_c, 5, 52, 0
7, 83766, Note_on_c, 5, 52, 83
7, 83826, Note_on_c, 5, 52, 0
7, 83886, Control_c, 5, 11, 122
7, 83886, Note_on_c, 5, 55, 83
7, 83909, Control_c, 5, 11, 120
7, 83933, Control_c, 5, 11, 118
7, 83957, Control_c, 5, 11, 116
7, 83981, Control_c, 5, 11, 114
7, 84005, Control_c, 5, 11, 112
7, 84029, Control_c, 5, 11, 110
7, 84053, Control_c, 5, 11, 108
7, 84077, Control_c, 5, 11, 106
7, 84101, Control_c, 5, 11, 104
7, 84125, Control_c, 5, 11, 102
7, 84246, Note_on_c, 5, 55, 0
7, 84246, Note_on_c, 5, 60, 83
7, 84471, Note_on_c, 5, 60, 0
7, 84486, Note_on_c, 5, 48, 83
7, 84546, Note_on_c, 5, 48, 0
7, 84606, Control_c, 5, 11, 122
7, 84606, Note_on_c, 5, 48, 83
7, 84629, Control_c, 5, 11, 120
7, 84653, Control_c, 5, 11, 118
7, 84677, Control_c, 5, 11, 116
7, 84701, Control_c, 5, 11, 114
7, 84725, Control_c, 5, 11, 112
7, 84749, Control_c, 5, 11, 110
7, 84773, Control_c, 5, 11, 108
7, 84797, Control_c, 5, 11, 106
7, 84821, Control_c, 5, 11, 104
7, 84845, Control_c, 5, 11, 102
7, 84966, Note_on_c, 5, 48, 0
7, 84966, Note_on_c, 5, 52, 83
7, 85191, Note_on_c, 5, 52, 0
7, 85206, Note_on_c, 5, 52, 83
7, 85266, Note_on_c, 5, 52, 0
7, 85326, Note_on_c, 5, 55, 83
7, 85326, Control_c, 5, 11, 122
7, 85349, Control_c, 5, 11, 120
7, 85373, Control_c, 5, 11, 118
7, 85397, Control_c, 5, 11, 116
7, 85421, Control_c, 5, 11, 114
7, 85445, Control_c, 5, 11, 112
7, 85469, Control_c, 5, 11, 110
7, 85493, Control_c, 5, 11, 108
7, 85517, Control_c, 5, 11, 106
7, 85541, Control_c, 5, 11, 104
7, 85565, Control_c, 5, 11, 102
7, 85686, Note_on_c, 5, 55, 0
7, 85686, Note_on_c, 5, 52, 83
7, 85746, Note_on_c, 5, 52, 0
7, 85806, Note_on_c, 5, 55, 83
7, 85806, Control_c, 5, 11, 122
7, 85829, Control_c, 5, 11, 120
7, 85853, Control_c, 5, 11, 118
7, 85877, Control_c, 5, 11, 116
7, 85901, Control_c, 5, 11, 114
7, 85925, Control_c, 5, 11, 112
7, 85949, Control_c, 5, 11, 110
7, 85973, Control_c, 5, 11, 108
7, 85997, Control_c, 5, 11, 106
7, 86021, Control_c, 5, 11, 104
7, 86031, Note_on_c, 5, 55, 0
7, 86045, Control_c, 5, 11, 102
7, 86046, Note_on_c, 5, 52, 83
7, 86106, Note_on_c, 5, 52, 0
7, 86166, Control_c, 5, 11, 122
7, 86166, Note_on_c, 5, 55, 83
7, 86189, Control_c, 5, 11, 120
7, 86213, Control_c, 5, 11, 118
7, 86237, Control_c, 5, 11, 116
7, 86261, Control_c, 5, 11, 114
7, 86285, Control_c, 5, 11, 112
7, 86309, Control_c, 5, 11, 110
7, 86333, Control_c, 5, 11, 108
7, 86357, Control_c, 5, 11, 106
7, 86381, Control_c, 5, 11, 104
7, 86391, Note_on_c, 5, 55, 0
7, 86405, Control_c, 5, 11, 102
7, 86406, Control_c, 5, 11, 122
7, 86406, Note_on_c, 5, 55, 83
7, 86429, Control_c, 5, 11, 120
7, 86453, Control_c, 5, 11, 118
7, 86477, Control_c, 5, 11, 116
7, 86501, Control_c, 5, 11, 114
7, 86525, Control_c, 5, 11, 112
7, 86549, Control_c, 5, 11, 110
7, 86573, Control_c, 5, 11, 108
7, 86597, Control_c, 5, 11, 106
7, 86621, Control_c, 5, 11, 104
7, 86645, Control_c, 5, 11, 102
7, 86766, Note_on_c, 5, 55, 0
7, 86766, Note_on_c, 5, 52, 83
7, 86886, Note_on_c, 5, 52, 0
7, 87126, Control_c, 5, 11, 47
7, 87126, Note_on_c, 5, 55, 105
7, 87315, Note_on_c, 5, 55, 0
7, 87366, Note_on_c, 5, 55, 105
7, 87456, Note_on_c, 5, 55, 0
7, 87486, Note_on_c, 5, 55, 105
7, 87675, Note_on_c, 5, 55, 0
7, 87726, Note_on_c, 5, 55, 105
7, 87816, Note_on_c, 5, 55, 0
7, 87846, Note_on_c, 5, 55, 90
7, 87966, Note_on_c, 5, 55, 0
7, 88566, Note_on_c, 5, 55, 105
7, 88755, Note_on_c, 5, 55, 0
7, 88806, Note_on_c, 5, 55, 105
7, 88896, Note_on_c, 5, 55, 0
7, 88926, Note_on_c, 5, 55, 105
7, 89115, Note_on_c, 5, 55, 0
7, 89166, Note_on_c, 5, 55, 105
7, 89256, Note_on_c, 5, 55, 0
7, 89286, Note_on_c, 5, 55, 90
7, 89406, Note_on_c, 5, 55, 0
7, 90246, Control_c, 5, 11, 47
7, 90246, Note_on_c, 5, 55, 105
7, 90336, Note_on_c, 5, 55, 0
7, 90342, Control_c, 5, 11, 46
7, 90366, Note_on_c, 5, 55, 90
7, 90438, Control_c, 5, 11, 45
7, 90456, Note_on_c, 5, 55, 0
7, 90534, Control_c, 5, 11, 44
7, 90630, Control_c, 5, 11, 43
7, 90726, Control_c, 5, 11, 42
7, 90822, Control_c, 5, 11, 41
7, 90918, Control_c, 5, 11, 40
7, 90966, Note_on_c, 5, 55, 105
7, 91014, Control_c, 5, 11, 39
7, 91056, Note_on_c, 5, 55, 0
7, 91086, Note_on_c, 5, 55, 90
7, 91110, Control_c, 5, 11, 38
7, 91176, Note_on_c, 5, 55, 0
7, 91206, Control_c, 5, 11, 37
7, 91302, Control_c, 5, 11, 36
7, 91398, Control_c, 5, 11, 35
7, 91494, Control_c, 5, 11, 34
7, 91590, Control_c, 5, 11, 33
7, 91686, Control_c, 5, 11, 32
7, 91686, Note_on_c, 5, 55, 105
7, 91776, Note_on_c, 5, 55, 0
7, 91806, Note_on_c, 5, 55, 105
7, 91896, Note_on_c, 5, 55, 0
7, 93606, Control_c, 5, 11, 47
7, 93606, Note_on_c, 5, 48, 83
7, 93795, Note_on_c, 5, 48, 0
7, 93846, Note_on_c, 5, 48, 83
7, 93936, Note_on_c, 5, 48, 0
7, 93966, Note_on_c, 5, 48, 83
7, 94155, Note_on_c, 5, 48, 0
7, 94206, Note_on_c, 5, 48, 83
7, 94296, Note_on_c, 5, 48, 0
7, 94326, Note_on_c, 5, 48, 83
7, 94326, Control_c, 5, 11, 47
7, 94352, Control_c, 5, 11, 49
7, 94378, Control_c, 5, 11, 51
7, 94404, Control_c, 5, 11, 53
7, 94430, Control_c, 5, 11, 55
7, 94456, Control_c, 5, 11, 57
7, 94483, Control_c, 5, 11, 59
7, 94509, Control_c, 5, 11, 61
7, 94515, Note_on_c, 5, 48, 0
7, 94535, Control_c, 5, 11, 63
7, 94561, Control_c, 5, 11, 65
7, 94566, Note_on_c, 5, 48, 83
7, 94587, Control_c, 5, 11, 67
7, 94614, Control_c, 5, 11, 69
7, 94640, Control_c, 5, 11, 71
7, 94656, Note_on_c, 5, 48, 0
7, 94666, Control_c, 5, 11, 73
7, 94686, Note_on_c, 5, 48, 83
7, 94692, Control_c, 5, 11, 75
7, 94718, Control_c, 5, 11, 77
7, 94744, Control_c, 5, 11, 79
7, 94771, Control_c, 5, 11, 81
7, 94797, Control_c, 5, 11, 83
7, 94823, Control_c, 5, 11, 85
7, 94849, Control_c, 5, 11, 87
7, 94875, Note_on_c, 5, 48, 0
7, 94875, Control_c, 5, 11, 89
7, 94902, Control_c, 5, 11, 91
7, 94926, Note_on_c, 5, 48, 83
7, 94928, Control_c, 5, 11, 93
7, 94954, Control_c, 5, 11, 95
7, 94980, Control_c, 5, 11, 97
7, 95006, Control_c, 5, 11, 99
7, 95016, Note_on_c, 5, 48, 0
7, 95032, Control_c, 5, 11, 101
7, 95046, Note_on_c, 5, 48, 83
7, 95235, Note_on_c, 5, 48, 0
7, 95286, Note_on_c, 5, 48, 83
7, 95376, Note_on_c, 5, 48, 0
7, 95406, Control_c, 5, 11, 122
7, 95406, Note_on_c, 5, 48, 83
7, 95429, Control_c, 5, 11, 120
7, 95453, Control_c, 5, 11, 118
7, 95477, Control_c, 5, 11, 116
7, 95501, Control_c, 5, 11, 114
7, 95525, Control_c, 5, 11, 112
7, 95549, Control_c, 5, 11, 110
7, 95573, Control_c, 5, 11, 108
7, 95597, Control_c, 5, 11, 106
7, 95621, Control_c, 5, 11, 104
7, 95645, Control_c, 5, 11, 102
7, 95766, Note_on_c, 5, 48, 0
7, 95766, Note_on_c, 5, 52, 83
7, 95991, Note_on_c, 5, 52, 0
7, 96006, Note_on_c, 5, 52, 83
7, 96066, Note_on_c, 5, 52, 0
7, 96126, Control_c, 5, 11, 122
7, 96126, Note_on_c, 5, 55, 83
7, 96149, Control_c, 5, 11, 120
7, 96173, Control_c, 5, 11, 118
7, 96197, Control_c, 5, 11, 116
7, 96221, Control_c, 5, 11, 114
7, 96245, Control_c, 5, 11, 112
7, 96269, Control_c, 5, 11, 110
7, 96293, Control_c, 5, 11, 108
7, 96317, Control_c, 5, 11, 106
7, 96341, Control_c, 5, 11, 104
7, 96365, Control_c, 5, 11, 102
7, 96486, Note_on_c, 5, 55, 0
7, 96486, Note_on_c, 5, 60, 83
7, 96711, Note_on_c, 5, 60, 0
7, 96726, Note_on_c, 5, 48, 83
7, 96786, Note_on_c, 5, 48, 0
7, 96846, Note_on_c, 5, 48, 83
7, 96846, Control_c, 5, 11, 122
7, 96869, Control_c, 5, 11, 120
7, 96893, Control_c, 5, 11, 118
7, 96917, Control_c, 5, 11, 116
7, 96941, Control_c, 5, 11, 114
7, 96965, Control_c, 5, 11, 112
7, 96989, Control_c, 5, 11, 110
7, 97013, Control_c, 5, 11, 108
7, 97037, Control_c, 5, 11, 106
7, 97061, Control_c, 5, 11, 104
7, 97085, Control_c, 5, 11, 102
7, 97206, Note_on_c, 5, 48, 0
7, 97206, Note_on_c, 5, 52, 83
7, 97431, Note_on_c, 5, 52, 0
7, 97446, Note_on_c, 5, 52, 83
7, 97506, Note_on_c, 5, 52, 0
7, 97566, Note_on_c, 5, 55, 83
7, 97566, Control_c, 5, 11, 122
7, 97589, Control_c, 5, 11, 120
7, 97613, Control_c, 5, 11, 118
7, 97637, Control_c, 5, 11, 116
7, 97661, Control_c, 5, 11, 114
7, 97685, Control_c, 5, 11, 112
7, 97709, Control_c, 5, 11, 110
7, 97733, Control_c, 5, 11, 108
7, 97757, Control_c, 5, 11, 106
7, 97781, Control_c, 5, 11, 104
7, 97805, Control_c, 5, 11, 102
7, 97926, Note_on_c, 5, 55, 0
7, 97926, Note_on_c, 5, 52, 83
7, 97986, Note_on_c, 5, 52, 0
7, 98046, Note_on_c, 5, 55, 83
7, 98046, Control_c, 5, 11, 122
7, 98069, Control_c, 5, 11, 120
7, 98093, Control_c, 5, 11, 118
7, 98117, Control_c, 5, 11, 116
7, 98141, Control_c, 5, 11, 114
7, 98165, Control_c, 5, 11, 112
7, 98189, Control_c, 5, 11, 110
7, 98213, Control_c, 5, 11, 108
7, 98237, Control_c, 5, 11, 106
7, 98261, Control_c, 5, 11, 104
7, 98271, Note_on_c, 5, 55, 0
7, 98285, Control_c, 5, 11, 102
7, 98286, Note_on_c, 5, 52, 83
7, 98346, Note_on_c, 5, 52, 0
7, 98406, Note_on_c, 5, 55, 83
7, 98406, Control_c, 5, 11, 122
7, 98429, Control_c, 5, 11, 120
7, 98453, Control_c, 5, 11, 118
7, 98477, Control_c, 5, 11, 116
7, 98501, Control_c, 5, 11, 114
7, 98525, Control_c, 5, 11, 112
7, 98549, Control_c, 5, 11, 110
7, 98573, Control_c, 5, 11, 108
7, 98597, Control_c, 5, 11, 106
7, 98621, Control_c, 5, 11, 104
7, 98631, Note_on_c, 5, 55, 0
7, 98645, Control_c, 5, 11, 102
7, 98646, Note_on_c, 5, 55, 83
7, 98646, Control_c, 5, 11, 122
7, 98669, Control_c, 5, 11, 120
7, 98693, Control_c, 5, 11, 118
7, 98717, Control_c, 5, 11, 116
7, 98741, Control_c, 5, 11, 114
7, 98765, Control_c, 5, 11, 112
7, 98789, Control_c, 5, 11, 110
7, 98813, Control_c, 5, 11, 108
7, 98837, Control_c, 5, 11, 106
7, 98861, Control_c, 5, 11, 104
7, 98885, Control_c, 5, 11, 102
7, 99006, Note_on_c, 5, 55, 0
7, 99006, Note_on_c, 5, 52, 83
7, 99126, Note_on_c, 5, 52, 0
7, 101526, Control_c, 5, 11, 87
7, 101526, Note_on_c, 5, 62, 105
7, 101586, Note_on_c, 5, 62, 0
7, 101646, Note_on_c, 5, 62, 105
7, 101706, Note_on_c, 5, 62, 0
7, 101766, Note_on_c, 5, 62, 105
7, 101826, Note_on_c, 5, 62, 0
7, 101886, Note_on_c, 5, 55, 105
7, 102006, Note_on_c, 5, 55, 0
7, 104406, Control_c, 5, 11, 87
7, 104406, Note_on_c, 5, 62, 105
7, 104466, Note_on_c, 5, 62, 0
7, 104526, Note_on_c, 5, 62, 105
7, 104586, Note_on_c, 5, 62, 0
7, 104646, Note_on_c, 5, 62, 105
7, 104706, Note_on_c, 5, 62, 0
7, 104766, Note_on_c, 5, 55, 105
7, 104886, Note_on_c, 5, 55, 0
7, 117966, Control_c, 5, 11, 87
7, 117966, Note_on_c, 5, 48, 105
7, 118086, Note_on_c, 5, 48, 0
7, 118086, Note_on_c, 5, 48, 105
7, 118206, Note_on_c, 5, 48, 0
7, 118206, Note_on_c, 5, 48, 105
7, 118326, Note_on_c, 5, 48, 0
7, 118326, Note_on_c, 5, 48, 105
7, 118446, Note_on_c, 5, 48, 0
7, 118446, Note_on_c, 5, 48, 105
7, 118566, Note_on_c, 5, 48, 0
7, 118566, Note_on_c, 5, 48, 105
7, 118686, Note_on_c, 5, 48, 0
7, 118686, Note_on_c, 5, 55, 105
7, 118806, Note_on_c, 5, 55, 0
7, 118806, Note_on_c, 5, 55, 105
7, 118926, Note_on_c, 5, 55, 0
7, 118926, Note_on_c, 5, 48, 105
7, 119046, Note_on_c, 5, 48, 0
7, 119046, Note_on_c, 5, 60, 105
7, 119166, Note_on_c, 5, 60, 0
7, 119166, Control_c, 5, 11, 102
7, 119166, Note_on_c, 5, 43, 105
7, 120366, Note_on_c, 5, 43, 0
7, 120366, Note_on_c, 5, 60, 105
7, 120486, Note_on_c, 5, 60, 0
7, 120486, Note_on_c, 5, 60, 105
7, 120546, Note_on_c, 5, 60, 0
7, 120606, Note_on_c, 5, 55, 105
7, 120726, Note_on_c, 5, 55, 0
7, 121206, Note_on_c, 5, 48, 105
7, 121326, Note_on_c, 5, 48, 0
7, 121326, Note_on_c, 5, 48, 105
7, 121566, Note_on_c, 5, 48, 0
7, 121566, Note_on_c, 5, 48, 105
7, 121686, Note_on_c, 5, 48, 0
7, 121686, Note_on_c, 5, 48, 105
7, 121806, Note_on_c, 5, 48, 0
7, 121806, Note_on_c, 5, 62, 105
7, 121926, Note_on_c, 5, 62, 0
7, 121926, Note_on_c, 5, 55, 105
7, 122046, Note_on_c, 5, 55, 0
7, 122046, Note_on_c, 5, 60, 105
7, 122286, Note_on_c, 5, 60, 0
7, 122286, Note_on_c, 5, 48, 105
7, 122406, Note_on_c, 5, 48, 0
7, 122406, Note_on_c, 5, 60, 105
7, 122646, Note_on_c, 5, 60, 0
7, 122646, Note_on_c, 5, 55, 105
7, 122766, Note_on_c, 5, 55, 0
7, 122766, Note_on_c, 5, 52, 105
7, 122886, Note_on_c, 5, 52, 0
7, 124206, Note_on_c, 5, 48, 85
7, 125406, Control_c, 5, 11, 102
7, 125419, Control_c, 5, 11, 99
7, 125432, Control_c, 5, 11, 96
7, 125445, Control_c, 5, 11, 93
7, 125458, Control_c, 5, 11, 90
7, 125471, Control_c, 5, 11, 87
7, 125484, Control_c, 5, 11, 84
7, 125497, Control_c, 5, 11, 81
7, 125510, Control_c, 5, 11, 78
7, 125523, Control_c, 5, 11, 75
7, 125536, Control_c, 5, 11, 72
7, 125549, Control_c, 5, 11, 69
7, 125562, Control_c, 5, 11, 66
7, 125575, Control_c, 5, 11, 63
7, 125588, Control_c, 5, 11, 60
7, 125601, Control_c, 5, 11, 57
7, 125614, Control_c, 5, 11, 54
7, 125627, Control_c, 5, 11, 51
7, 125640, Control_c, 5, 11, 48
7, 125766, Note_on_c, 5, 48, 0
7, 126006, Note_on_c, 5, 55, 70
7, 126126, Note_on_c, 5, 55, 0
7, 126366, Note_on_c, 5, 60, 73
7, 126486, Note_on_c, 5, 60, 0
7, 126726, Note_on_c, 5, 55, 77
7, 126846, Note_on_c, 5, 55, 0
7, 127086, Note_on_c, 5, 52, 81
7, 127086, Control_c, 5, 11, 47
7, 127122, Control_c, 5, 11, 48
7, 127158, Control_c, 5, 11, 49
7, 127194, Control_c, 5, 11, 50
7, 127206, Note_on_c, 5, 52, 0
7, 127230, Control_c, 5, 11, 51
7, 127266, Control_c, 5, 11, 52
7, 127302, Control_c, 5, 11, 53
7, 127338, Control_c, 5, 11, 54
7, 127374, Control_c, 5, 11, 55
7, 127410, Control_c, 5, 11, 56
7, 127446, Control_c, 5, 11, 57
7, 127446, Note_on_c, 5, 55, 85
7, 127482, Control_c, 5, 11, 58
7, 127518, Control_c, 5, 11, 59
7, 127554, Control_c, 5, 11, 60
7, 127566, Note_on_c, 5, 55, 0
7, 127590, Control_c, 5, 11, 61
7, 127626, Control_c, 5, 11, 62
7, 127662, Control_c, 5, 11, 63
7, 127698, Control_c, 5, 11, 64
7, 127734, Control_c, 5, 11, 65
7, 127770, Control_c, 5, 11, 66
7, 127806, Control_c, 5, 11, 67
7, 127806, Note_on_c, 5, 60, 89
7, 127842, Control_c, 5, 11, 68
7, 127878, Control_c, 5, 11, 69
7, 127914, Control_c, 5, 11, 70
7, 127926, Note_on_c, 5, 60, 0
7, 127950, Control_c, 5, 11, 71
7, 127986, Control_c, 5, 11, 72
7, 128022, Control_c, 5, 11, 73
7, 128058, Control_c, 5, 11, 74
7, 128094, Control_c, 5, 11, 75
7, 128130, Control_c, 5, 11, 76
7, 128166, Control_c, 5, 11, 77
7, 128166, Note_on_c, 5, 55, 93
7, 128202, Control_c, 5, 11, 78
7, 128238, Control_c, 5, 11, 79
7, 128274, Control_c, 5, 11, 80
7, 128286, Note_on_c, 5, 55, 0
7, 128310, Control_c, 5, 11, 81
7, 128346, Control_c, 5, 11, 82
7, 128382, Control_c, 5, 11, 83
7, 128418, Control_c, 5, 11, 84
7, 128454, Control_c, 5, 11, 85
7, 128490, Control_c, 5, 11, 86
7, 128526, Control_c, 5, 11, 87
7, 128526, Note_on_c, 5, 52, 97
7, 128646, Note_on_c, 5, 52, 0
7, 128886, Note_on_c, 5, 55, 101
7, 129006, Note_on_c, 5, 55, 0
7, 129246, Note_on_c, 5, 48, 105
7, 129246, Control_c, 5, 11, 102
7, 129306, Note_on_c, 5, 48, 0
7, 129366, Note_on_c, 5, 52, 105
7, 129426, Note_on_c, 5, 52, 0
7, 129486, Note_on_c, 5, 55, 105
7, 129726, Note_on_c, 5, 55, 0
7, 129726, Note_on_c, 5, 55, 105
7, 129786, Note_on_c, 5, 55, 0
7, 129846, Note_on_c, 5, 55, 105
7, 129906, Note_on_c, 5, 55, 0
7, 129966, Note_on_c, 5, 48, 105
7, 130026, Note_on_c, 5, 48, 0
7, 130086, Note_on_c, 5, 55, 105
7, 130146, Note_on_c, 5, 55, 0
7, 130206, Note_on_c, 5, 52, 105
7, 130266, Note_on_c, 5, 52, 0
7, 130326, Note_on_c, 5, 48, 105
7, 130386, Note_on_c, 5, 48, 0
7, 130686, Control_c, 5, 121, 0
7, 130686, End_track
8, 0, Start_track
8, 0, MIDI_port, 0
8, 0, Title_t, "2 Trombe in C"
8, 0, Program_c, 6, 56
8, 0, Control_c, 6, 10, 77
8, 2, Control_c, 6, 121, 0
8, 7, Program_c, 6, 56
8, 12, Pitch_bend_c, 6, 8192
8, 17, Control_c, 6, 11, 87
8, 22, Control_c, 6, 7, 127
8, 27, Control_c, 6, 91, 80
8, 32, Control_c, 6, 93, 0
8, 37, Control_c, 6, 10, 77
8, 2882, Control_c, 6, 11, 87
8, 2882, Note_on_c, 6, 74, 110
8, 2942, Note_on_c, 6, 74, 0
8, 3002, Note_on_c, 6, 74, 110
8, 3062, Note_on_c, 6, 74, 0
8, 3122, Note_on_c, 6, 74, 110
8, 3182, Note_on_c, 6, 74, 0
8, 3242, Note_on_c, 6, 67, 110
8, 3362, Note_on_c, 6, 67, 0
8, 5762, Control_c, 6, 11, 87
8, 5762, Note_on_c, 6, 74, 110
8, 5822, Note_on_c, 6, 74, 0
8, 5882, Note_on_c, 6, 74, 110
8, 5942, Note_on_c, 6, 74, 0
8, 6002, Note_on_c, 6, 74, 110
8, 6062, Note_on_c, 6, 74, 0
8, 6122, Note_on_c, 6, 67, 110
8, 6242, Note_on_c, 6, 67, 0
8, 19322, Note_on_c, 6, 60, 110
8, 19322, Control_c, 6, 11, 87
8, 19322, Note_on_c, 6, 72, 110
8, 19442, Note_on_c, 6, 72, 0
8, 19442, Note_on_c, 6, 60, 0
8, 19442, Note_on_c, 6, 60, 110
8, 19442, Note_on_c, 6, 72, 110
8, 19562, Note_on_c, 6, 72, 0
8, 19562, Note_on_c, 6, 60, 0
8, 19562, Note_on_c, 6, 60, 110
8, 19562, Note_on_c, 6, 72, 110
8, 19682, Note_on_c, 6, 72, 0
8, 19682, Note_on_c, 6, 60, 0
8, 19682, Note_on_c, 6, 60, 110
8, 19682, Note_on_c, 6, 72, 110
8, 19802, Note_on_c, 6, 72, 0
8, 19802, Note_on_c, 6, 60, 0
8, 19802, Note_on_c, 6, 60, 110
8, 19802, Note_on_c, 6, 72, 110
8, 19922, Note_on_c, 6, 72, 0
8, 19922, Note_on_c, 6, 60, 0
8, 19922, Note_on_c, 6, 72, 110
8, 19922, Note_on_c, 6, 60, 110
8, 20042, Note_on_c, 6, 60, 0
8, 20042, Note_on_c, 6, 72, 0
8, 20042, Note_on_c, 6, 74, 110
8, 20042, Note_on_c, 6, 67, 110
8, 20162, Note_on_c, 6, 67, 0
8, 20162, Note_on_c, 6, 74, 0
8, 20162, Note_on_c, 6, 72, 110
8, 20162, Note_on_c, 6, 76, 110
8, 20282, Note_on_c, 6, 76, 0
8, 20282, Note_on_c, 6, 72, 0
8, 20282, Note_on_c, 6, 72, 110
8, 20282, Note_on_c, 6, 76, 110
8, 20402, Note_on_c, 6, 76, 0
8, 20402, Note_on_c, 6, 72, 0
8, 20402, Note_on_c, 6, 72, 110
8, 20402, Note_on_c, 6, 74, 110
8, 20522, Note_on_c, 6, 74, 0
8, 20522, Note_on_c, 6, 72, 0
8, 20522, Note_on_c, 6, 74, 110
8, 20522, Note_on_c, 6, 67, 110
8, 20642, Note_on_c, 6, 67, 0
8, 20642, Note_on_c, 6, 74, 0
8, 20762, Note_on_c, 6, 55, 110
8, 20762, Control_c, 6, 11, 102
8, 20762, Note_on_c, 6, 67, 110
8, 20822, Note_on_c, 6, 67, 0
8, 20822, Note_on_c, 6, 55, 0
8, 20822, Note_on_c, 6, 67, 110
8, 20822, Note_on_c, 6, 55, 110
8, 20882, Note_on_c, 6, 55, 0
8, 20882, Note_on_c, 6, 67, 0
8, 20882, Note_on_c, 6, 55, 110
8, 20882, Note_on_c, 6, 67, 110
8, 21002, Note_on_c, 6, 67, 0
8, 21002, Note_on_c, 6, 55, 0
8, 21122, Note_on_c, 6, 67, 110
8, 21122, Note_on_c, 6, 55, 110
8, 21182, Note_on_c, 6, 55, 0
8, 21182, Note_on_c, 6, 67, 0
8, 21182, Note_on_c, 6, 67, 110
8, 21182, Note_on_c, 6, 55, 110
8, 21242, Note_on_c, 6, 55, 0
8, 21242, Note_on_c, 6, 67, 0
8, 21242, Note_on_c, 6, 55, 110
8, 21242, Note_on_c, 6, 67, 110
8, 21362, Note_on_c, 6, 67, 0
8, 21362, Note_on_c, 6, 55, 0
8, 21482, Note_on_c, 6, 67, 110
8, 21482, Note_on_c, 6, 55, 110
8, 21542, Note_on_c, 6, 55, 0
8, 21542, Note_on_c, 6, 67, 0
8, 21542, Note_on_c, 6, 67, 110
8, 21542, Note_on_c, 6, 55, 110
8, 21602, Note_on_c, 6, 55, 0
8, 21602, Note_on_c, 6, 67, 0
8, 21602, Note_on_c, 6, 67, 110
8, 21602, Note_on_c, 6, 55, 110
8, 21722, Note_on_c, 6, 55, 0
8, 21722, Note_on_c, 6, 67, 0
8, 21722, Note_on_c, 6, 72, 110
8, 21722, Note_on_c, 6, 60, 110
8, 21842, Note_on_c, 6, 60, 0
8, 21842, Note_on_c, 6, 72, 0
8, 21842, Note_on_c, 6, 60, 110
8, 21842, Note_on_c, 6, 72, 110
8, 21962, Note_on_c, 6, 72, 0
8, 21962, Note_on_c, 6, 60, 0
8, 21962, Note_on_c, 6, 55, 110
8, 21962, Note_on_c, 6, 67, 110
8, 22082, Note_on_c, 6, 67, 0
8, 22082, Note_on_c, 6, 55, 0
8, 22562, Note_on_c, 6, 60, 110
8, 22562, Note_on_c, 6, 72, 110
8, 22622, Note_on_c, 6, 72, 0
8, 22622, Note_on_c, 6, 60, 0
8, 22622, Note_on_c, 6, 72, 110
8, 22622, Note_on_c, 6, 60, 110
8, 22682, Note_on_c, 6, 60, 0
8, 22682, Note_on_c, 6, 72, 0
8, 22682, Note_on_c, 6, 72, 110
8, 22682, Note_on_c, 6, 60, 110
8, 22922, Note_on_c, 6, 60, 0
8, 22922, Note_on_c, 6, 72, 0
8, 23282, Note_on_c, 6, 67, 110
8, 23282, Note_on_c, 6, 55, 110
8, 23342, Note_on_c, 6, 55, 0
8, 23342, Note_on_c, 6, 67, 0
8, 23342, Note_on_c, 6, 67, 110
8, 23342, Note_on_c, 6, 55, 110
8, 23402, Note_on_c, 6, 55, 0
8, 23402, Note_on_c, 6, 67, 0
8, 23402, Note_on_c, 6, 72, 110
8, 23402, Note_on_c, 6, 60, 110
8, 23642, Note_on_c, 6, 60, 0
8, 23642, Note_on_c, 6, 72, 0
8, 23642, Note_on_c, 6, 60, 110
8, 23642, Note_on_c, 6, 72, 110
8, 23762, Note_on_c, 6, 72, 0
8, 23762, Note_on_c, 6, 60, 0
8, 23762, Note_on_c, 6, 72, 110
8, 23762, Note_on_c, 6, 60, 110
8, 24002, Note_on_c, 6, 60, 0
8, 24002, Note_on_c, 6, 72, 0
8, 24002, Note_on_c, 6, 74, 110
8, 24002, Note_on_c, 6, 67, 110
8, 24122, Note_on_c, 6, 67, 0
8, 24122, Note_on_c, 6, 74, 0
8, 24122, Note_on_c, 6, 72, 110
8, 24122, Note_on_c, 6, 64, 110
8, 24242, Note_on_c, 6, 64, 0
8, 24242, Note_on_c, 6, 72, 0
8, 25562, Note_on_c, 6, 72, 90
8, 25562, Note_on_c, 6, 60, 90
8, 25682, Note_on_c, 6, 60, 0
8, 25682, Note_on_c, 6, 72, 0
8, 27002, Note_on_c, 6, 60, 110
8, 27002, Control_c, 6, 11, 47
8, 27002, Note_on_c, 6, 72, 110
8, 27122, Note_on_c, 6, 72, 0
8, 27122, Note_on_c, 6, 60, 0
8, 27362, Note_on_c, 6, 67, 75
8, 27362, Note_on_c, 6, 55, 75
8, 27482, Note_on_c, 6, 55, 0
8, 27482, Note_on_c, 6, 67, 0
8, 27722, Note_on_c, 6, 67, 78
8, 27722, Note_on_c, 6, 55, 78
8, 27842, Note_on_c, 6, 55, 0
8, 27842, Note_on_c, 6, 67, 0
8, 28082, Note_on_c, 6, 67, 82
8, 28082, Note_on_c, 6, 55, 82
8, 28202, Note_on_c, 6, 55, 0
8, 28202, Note_on_c, 6, 67, 0
8, 28442, Note_on_c, 6, 72, 86
8, 28442, Note_on_c, 6, 64, 86
8, 28442, Control_c, 6, 11, 47
8, 28478, Control_c, 6, 11, 48
8, 28514, Control_c, 6, 11, 49
8, 28550, Control_c, 6, 11, 50
8, 28562, Note_on_c, 6, 64, 0
8, 28562, Note_on_c, 6, 72, 0
8, 28586, Control_c, 6, 11, 51
8, 28622, Control_c, 6, 11, 52
8, 28658, Control_c, 6, 11, 53
8, 28694, Control_c, 6, 11, 54
8, 28730, Control_c, 6, 11, 55
8, 28766, Control_c, 6, 11, 56
8, 28802, Note_on_c, 6, 74, 90
8, 28802, Note_on_c, 6, 67, 90
8, 28802, Control_c, 6, 11, 57
8, 28838, Control_c, 6, 11, 58
8, 28874, Control_c, 6, 11, 59
8, 28910, Control_c, 6, 11, 60
8, 28922, Note_on_c, 6, 67, 0
8, 28922, Note_on_c, 6, 74, 0
8, 28946, Control_c, 6, 11, 61
8, 28982, Control_c, 6, 11, 62
8, 29018, Control_c, 6, 11, 63
8, 29054, Control_c, 6, 11, 64
8, 29090, Control_c, 6, 11, 65
8, 29126, Control_c, 6, 11, 66
8, 29162, Note_on_c, 6, 76, 94
8, 29162, Note_on_c, 6, 72, 94
8, 29162, Control_c, 6, 11, 67
8, 29198, Control_c, 6, 11, 68
8, 29234, Control_c, 6, 11, 69
8, 29270, Control_c, 6, 11, 70
8, 29282, Note_on_c, 6, 72, 0
8, 29282, Note_on_c, 6, 76, 0
8, 29306, Control_c, 6, 11, 71
8, 29342, Control_c, 6, 11, 72
8, 29378, Control_c, 6, 11, 73
8, 29414, Control_c, 6, 11, 74
8, 29450, Control_c, 6, 11, 75
8, 29486, Control_c, 6, 11, 76
8, 29522, Note_on_c, 6, 67, 98
8, 29522, Note_on_c, 6, 74, 98
8, 29522, Control_c, 6, 11, 77
8, 29558, Control_c, 6, 11, 78
8, 29594, Control_c, 6, 11, 79
8, 29630, Control_c, 6, 11, 80
8, 29642, Note_on_c, 6, 74, 0
8, 29642, Note_on_c, 6, 67, 0
8, 29666, Control_c, 6, 11, 81
8, 29702, Control_c, 6, 11, 82
8, 29738, Control_c, 6, 11, 83
8, 29774, Control_c, 6, 11, 84
8, 29810, Control_c, 6, 11, 85
8, 29846, Control_c, 6, 11, 86
8, 29882, Note_on_c, 6, 64, 102
8, 29882, Note_on_c, 6, 72, 102
8, 29882, Control_c, 6, 11, 87
8, 30002, Note_on_c, 6, 72, 0
8, 30002, Note_on_c, 6, 64, 0
8, 30242, Note_on_c, 6, 74, 106
8, 30242, Note_on_c, 6, 67, 106
8, 30362, Note_on_c, 6, 67, 0
8, 30362, Note_on_c, 6, 74, 0
8, 30602, Control_c, 6, 11, 102
8, 30602, Note_on_c, 6, 72, 110
8, 30602, Note_on_c, 6, 60, 110
8, 30662, Note_on_c, 6, 60, 0
8, 30662, Note_on_c, 6, 72, 0
8, 30722, Note_on_c, 6, 76, 110
8, 30722, Note_on_c, 6, 64, 110
8, 30782, Note_on_c, 6, 64, 0
8, 30782, Note_on_c, 6, 76, 0
8, 30842, Note_on_c, 6, 79, 110
8, 30842, Note_on_c, 6, 67, 110
8, 31082, Note_on_c, 6, 67, 0
8, 31082, Note_on_c, 6, 79, 0
8, 31082, Note_on_c, 6, 67, 110
8, 31082, Note_on_c, 6, 74, 110
8, 31142, Note_on_c, 6, 74, 0
8, 31142, Note_on_c, 6, 67, 0
8, 31202, Note_on_c, 6, 74, 110
8, 31202, Note_on_c, 6, 67, 110
8, 31262, Note_on_c, 6, 67, 0
8, 31262, Note_on_c, 6, 74, 0
8, 31322, Note_on_c, 6, 72, 110
8, 31382, Note_on_c, 6, 72, 0
8, 31442, Note_on_c, 6, 67, 110
8, 31502, Note_on_c, 6, 67, 0
8, 31562, Note_on_c, 6, 64, 110
8, 31622, Note_on_c, 6, 64, 0
8, 31682, Note_on_c, 6, 60, 110
8, 31742, Note_on_c, 6, 60, 0
8, 44882, Note_on_c, 6, 60, 110
8, 44882, Control_c, 6, 11, 87
8, 44882, Note_on_c, 6, 72, 110
8, 45002, Note_on_c, 6, 72, 0
8, 45002, Note_on_c, 6, 60, 0
8, 45002, Note_on_c, 6, 60, 110
8, 45002, Note_on_c, 6, 72, 110
8, 45122, Note_on_c, 6, 72, 0
8, 45122, Note_on_c, 6, 60, 0
8, 45122, Note_on_c, 6, 60, 110
8, 45122, Note_on_c, 6, 72, 110
8, 45242, Note_on_c, 6, 72, 0
8, 45242, Note_on_c, 6, 60, 0
8, 45242, Note_on_c, 6, 60, 110
8, 45242, Note_on_c, 6, 72, 110
8, 45362, Note_on_c, 6, 72, 0
8, 45362, Note_on_c, 6, 60, 0
8, 45362, Note_on_c, 6, 60, 110
8, 45362, Note_on_c, 6, 72, 110
8, 45482, Note_on_c, 6, 72, 0
8, 45482, Note_on_c, 6, 60, 0
8, 45482, Note_on_c, 6, 72, 110
8, 45482, Note_on_c, 6, 60, 110
8, 45602, Note_on_c, 6, 60, 0
8, 45602, Note_on_c, 6, 72, 0
8, 45602, Note_on_c, 6, 74, 110
8, 45602, Note_on_c, 6, 67, 110
8, 45722, Note_on_c, 6, 67, 0
8, 45722, Note_on_c, 6, 74, 0
8, 45722, Note_on_c, 6, 72, 110
8, 45722, Note_on_c, 6, 76, 110
8, 45842, Note_on_c, 6, 76, 0
8, 45842, Note_on_c, 6, 72, 0
8, 45842, Note_on_c, 6, 76, 110
8, 45842, Note_on_c, 6, 72, 110
8, 45962, Note_on_c, 6, 72, 0
8, 45962, Note_on_c, 6, 76, 0
8, 45962, Note_on_c, 6, 74, 110
8, 45962, Note_on_c, 6, 72, 110
8, 46082, Note_on_c, 6, 72, 0
8, 46082, Note_on_c, 6, 74, 0
8, 46082, Note_on_c, 6, 74, 110
8, 46082, Note_on_c, 6, 67, 110
8, 46202, Note_on_c, 6, 67, 0
8, 46202, Note_on_c, 6, 74, 0
8, 46322, Note_on_c, 6, 55, 110
8, 46322, Control_c, 6, 11, 102
8, 46322, Note_on_c, 6, 67, 110
8, 46382, Note_on_c, 6, 67, 0
8, 46382, Note_on_c, 6, 55, 0
8, 46382, Note_on_c, 6, 67, 110
8, 46382, Note_on_c, 6, 55, 110
8, 46442, Note_on_c, 6, 55, 0
8, 46442, Note_on_c, 6, 67, 0
8, 46442, Note_on_c, 6, 55, 110
8, 46442, Note_on_c, 6, 67, 110
8, 46562, Note_on_c, 6, 67, 0
8, 46562, Note_on_c, 6, 55, 0
8, 46682, Note_on_c, 6, 67, 110
8, 46682, Note_on_c, 6, 55, 110
8, 46742, Note_on_c, 6, 55, 0
8, 46742, Note_on_c, 6, 67, 0
8, 46742, Note_on_c, 6, 67, 110
8, 46742, Note_on_c, 6, 55, 110
8, 46802, Note_on_c, 6, 55, 0
8, 46802, Note_on_c, 6, 67, 0
8, 46802, Note_on_c, 6, 55, 110
8, 46802, Note_on_c, 6, 67, 110
8, 46922, Note_on_c, 6, 67, 0
8, 46922, Note_on_c, 6, 55, 0
8, 47042, Note_on_c, 6, 55, 110
8, 47042, Note_on_c, 6, 67, 110
8, 47102, Note_on_c, 6, 67, 0
8, 47102, Note_on_c, 6, 55, 0
8, 47102, Note_on_c, 6, 55, 110
8, 47102, Note_on_c, 6, 67, 110
8, 47162, Note_on_c, 6, 67, 0
8, 47162, Note_on_c, 6, 55, 0
8, 47162, Note_on_c, 6, 55, 110
8, 47162, Note_on_c, 6, 67, 110
8, 47282, Note_on_c, 6, 67, 0
8, 47282, Note_on_c, 6, 55, 0
8, 47282, Note_on_c, 6, 72, 110
8, 47282, Note_on_c, 6, 60, 110
8, 47402, Note_on_c, 6, 60, 0
8, 47402, Note_on_c, 6, 72, 0
8, 47402, Note_on_c, 6, 72, 110
8, 47402, Note_on_c, 6, 60, 110
8, 47522, Note_on_c, 6, 60, 0
8, 47522, Note_on_c, 6, 72, 0
8, 47522, Note_on_c, 6, 67, 110
8, 47522, Note_on_c, 6, 55, 110
8, 47642, Note_on_c, 6, 55, 0
8, 47642, Note_on_c, 6, 67, 0
8, 48122, Note_on_c, 6, 72, 110
8, 48122, Note_on_c, 6, 60, 110
8, 48182, Note_on_c, 6, 60, 0
8, 48182, Note_on_c, 6, 72, 0
8, 48182, Note_on_c, 6, 72, 110
8, 48182, Note_on_c, 6, 60, 110
8, 48242, Note_on_c, 6, 60, 0
8, 48242, Note_on_c, 6, 72, 0
8, 48242, Note_on_c, 6, 72, 110
8, 48242, Note_on_c, 6, 60, 110
8, 48482, Note_on_c, 6, 60, 0
8, 48482, Note_on_c, 6, 72, 0
8, 48842, Note_on_c, 6, 55, 110
8, 48842, Note_on_c, 6, 67, 110
8, 48902, Note_on_c, 6, 67, 0
8, 48902, Note_on_c, 6, 55, 0
8, 48902, Note_on_c, 6, 55, 110
8, 48902, Note_on_c, 6, 67, 110
8, 48962, Note_on_c, 6, 67, 0
8, 48962, Note_on_c, 6, 55, 0
8, 48962, Note_on_c, 6, 60, 110
8, 48962, Note_on_c, 6, 72, 110
8, 49202, Note_on_c, 6, 72, 0
8, 49202, Note_on_c, 6, 60, 0
8, 49202, Note_on_c, 6, 72, 110
8, 49202, Note_on_c, 6, 60, 110
8, 49322, Note_on_c, 6, 60, 0
8, 49322, Note_on_c, 6, 72, 0
8, 49322, Note_on_c, 6, 72, 110
8, 49322, Note_on_c, 6, 60, 110
8, 49562, Note_on_c, 6, 60, 0
8, 49562, Note_on_c, 6, 72, 0
8, 49562, Note_on_c, 6, 74, 110
8, 49562, Note_on_c, 6, 67, 110
8, 49682, Note_on_c, 6, 67, 0
8, 49682, Note_on_c, 6, 74, 0
8, 49682, Note_on_c, 6, 72, 110
8, 49682, Note_on_c, 6, 64, 110
8, 49802, Note_on_c, 6, 64, 0
8, 49802, Note_on_c, 6, 72, 0
8, 51122, Note_on_c, 6, 72, 90
8, 51122, Note_on_c, 6, 60, 90
8, 51242, Note_on_c, 6, 60, 0
8, 51242, Note_on_c, 6, 72, 0
8, 52562, Control_c, 6, 11, 47
8, 52562, Note_on_c, 6, 72, 110
8, 52562, Note_on_c, 6, 60, 110
8, 52682, Note_on_c, 6, 60, 0
8, 52682, Note_on_c, 6, 72, 0
8, 52922, Note_on_c, 6, 67, 75
8, 52922, Note_on_c, 6, 55, 75
8, 53042, Note_on_c, 6, 55, 0
8, 53042, Note_on_c, 6, 67, 0
8, 53282, Note_on_c, 6, 67, 78
8, 53282, Note_on_c, 6, 55, 78
8, 53402, Note_on_c, 6, 55, 0
8, 53402, Note_on_c, 6, 67, 0
8, 53642, Note_on_c, 6, 67, 82
8, 53642, Note_on_c, 6, 55, 82
8, 53762, Note_on_c, 6, 55, 0
8, 53762, Note_on_c, 6, 67, 0
8, 54002, Note_on_c, 6, 72, 86
8, 54002, Control_c, 6, 11, 47
8, 54002, Note_on_c, 6, 64, 86
8, 54038, Control_c, 6, 11, 48
8, 54074, Control_c, 6, 11, 49
8, 54110, Control_c, 6, 11, 50
8, 54122, Note_on_c, 6, 64, 0
8, 54122, Note_on_c, 6, 72, 0
8, 54146, Control_c, 6, 11, 51
8, 54182, Control_c, 6, 11, 52
8, 54218, Control_c, 6, 11, 53
8, 54254, Control_c, 6, 11, 54
8, 54290, Control_c, 6, 11, 55
8, 54326, Control_c, 6, 11, 56
8, 54362, Control_c, 6, 11, 57
8, 54362, Note_on_c, 6, 67, 90
8, 54362, Note_on_c, 6, 74, 90
8, 54398, Control_c, 6, 11, 58
8, 54434, Control_c, 6, 11, 59
8, 54470, Control_c, 6, 11, 60
8, 54482, Note_on_c, 6, 74, 0
8, 54482, Note_on_c, 6, 67, 0
8, 54506, Control_c, 6, 11, 61
8, 54542, Control_c, 6, 11, 62
8, 54578, Control_c, 6, 11, 63
8, 54614, Control_c, 6, 11, 64
8, 54650, Control_c, 6, 11, 65
8, 54686, Control_c, 6, 11, 66
8, 54722, Control_c, 6, 11, 67
8, 54722, Note_on_c, 6, 72, 94
8, 54722, Note_on_c, 6, 76, 94
8, 54758, Control_c, 6, 11, 68
8, 54794, Control_c, 6, 11, 69
8, 54830, Control_c, 6, 11, 70
8, 54842, Note_on_c, 6, 76, 0
8, 54842, Note_on_c, 6, 72, 0
8, 54866, Control_c, 6, 11, 71
8, 54902, Control_c, 6, 11, 72
8, 54938, Control_c, 6, 11, 73
8, 54974, Control_c, 6, 11, 74
8, 55010, Control_c, 6, 11, 75
8, 55046, Control_c, 6, 11, 76
8, 55082, Note_on_c, 6, 67, 98
8, 55082, Note_on_c, 6, 74, 98
8, 55082, Control_c, 6, 11, 77
8, 55118, Control_c, 6, 11, 78
8, 55154, Control_c, 6, 11, 79
8, 55190, Control_c, 6, 11, 80
8, 55202, Note_on_c, 6, 74, 0
8, 55202, Note_on_c, 6, 67, 0
8, 55226, Control_c, 6, 11, 81
8, 55262, Control_c, 6, 11, 82
8, 55298, Control_c, 6, 11, 83
8, 55334, Control_c, 6, 11, 84
8, 55370, Control_c, 6, 11, 85
8, 55406, Control_c, 6, 11, 86
8, 55442, Note_on_c, 6, 64, 102
8, 55442, Control_c, 6, 11, 87
8, 55442, Note_on_c, 6, 72, 102
8, 55562, Note_on_c, 6, 72, 0
8, 55562, Note_on_c, 6, 64, 0
8, 55802, Note_on_c, 6, 67, 106
8, 55802, Note_on_c, 6, 74, 106
8, 55922, Note_on_c, 6, 74, 0
8, 55922, Note_on_c, 6, 67, 0
8, 56162, Note_on_c, 6, 60, 110
8, 56162, Control_c, 6, 11, 102
8, 56162, Note_on_c, 6, 72, 110
8, 56222, Note_on_c, 6, 72, 0
8, 56222, Note_on_c, 6, 60, 0
8, 56282, Note_on_c, 6, 64, 110
8, 56282, Note_on_c, 6, 76, 110
8, 56342, Note_on_c, 6, 76, 0
8, 56342, Note_on_c, 6, 64, 0
8, 56402, Note_on_c, 6, 79, 110
8, 56402, Note_on_c, 6, 67, 110
8, 56642, Note_on_c, 6, 67, 0
8, 56642, Note_on_c, 6, 79, 0
8, 56642, Note_on_c, 6, 74, 110
8, 56642, Note_on_c, 6, 67, 110
8, 56702, Note_on_c, 6, 67, 0
8, 56702, Note_on_c, 6, 74, 0
8, 56762, Note_on_c, 6, 67, 110
8, 56762, Note_on_c, 6, 74, 110
8, 56822, Note_on_c, 6, 74, 0
8, 56822, Note_on_c, 6, 67, 0
8, 56882, Note_on_c, 6, 72, 110
8, 56942, Note_on_c, 6, 72, 0
8, 57002, Note_on_c, 6, 67, 110
8, 57062, Note_on_c, 6, 67, 0
8, 57122, Note_on_c, 6, 64, 110
8, 57182, Note_on_c, 6, 64, 0
8, 57242, Note_on_c, 6, 60, 110
8, 57302, Note_on_c, 6, 60, 0
8, 82082, Control_c, 6, 11, 47
8, 82108, Control_c, 6, 11, 49
8, 82134, Control_c, 6, 11, 51
8, 82160, Control_c, 6, 11, 53
8, 82186, Control_c, 6, 11, 55
8, 82212, Control_c, 6, 11, 57
8, 82239, Control_c, 6, 11, 59
8, 82265, Control_c, 6, 11, 61
8, 82291, Control_c, 6, 11, 63
8, 82317, Control_c, 6, 11, 65
8, 82343, Control_c, 6, 11, 67
8, 82370, Control_c, 6, 11, 69
8, 82396, Control_c, 6, 11, 71
8, 82422, Control_c, 6, 11, 73
8, 82442, Note_on_c, 6, 60, 88
8, 82442, Note_on_c, 6, 72, 88
8, 82448, Control_c, 6, 11, 75
8, 82474, Control_c, 6, 11, 77
8, 82500, Control_c, 6, 11, 79
8, 82527, Control_c, 6, 11, 81
8, 82553, Control_c, 6, 11, 83
8, 82579, Control_c, 6, 11, 85
8, 82605, Control_c, 6, 11, 87
8, 82631, Note_on_c, 6, 72, 0
8, 82631, Note_on_c, 6, 60, 0
8, 82631, Control_c, 6, 11, 89
8, 82658, Control_c, 6, 11, 91
8, 82682, Note_on_c, 6, 60, 88
8, 82682, Note_on_c, 6, 72, 88
8, 82684, Control_c, 6, 11, 93
8, 82710, Control_c, 6, 11, 95
8, 82736, Control_c, 6, 11, 97
8, 82762, Control_c, 6, 11, 99
8, 82772, Note_on_c, 6, 72, 0
8, 82772, Note_on_c, 6, 60, 0
8, 82788, Control_c, 6, 11, 101
8, 82802, Note_on_c, 6, 60, 88
8, 82802, Note_on_c, 6, 72, 88
8, 82991, Note_on_c, 6, 72, 0
8, 82991, Note_on_c, 6, 60, 0
8, 83042, Note_on_c, 6, 60, 88
8, 83042, Note_on_c, 6, 72, 88
8, 83132, Note_on_c, 6, 72, 0
8, 83132, Note_on_c, 6, 60, 0
8, 83162, Note_on_c, 6, 60, 88
8, 83162, Control_c, 6, 11, 122
8, 83162, Note_on_c, 6, 72, 88
8, 83185, Control_c, 6, 11, 120
8, 83209, Control_c, 6, 11, 118
8, 83233, Control_c, 6, 11, 116
8, 83257, Control_c, 6, 11, 114
8, 83281, Control_c, 6, 11, 112
8, 83305, Control_c, 6, 11, 110
8, 83329, Control_c, 6, 11, 108
8, 83353, Control_c, 6, 11, 106
8, 83377, Control_c, 6, 11, 104
8, 83401, Control_c, 6, 11, 102
8, 83522, Note_on_c, 6, 72, 0
8, 83522, Note_on_c, 6, 60, 0
8, 83522, Note_on_c, 6, 72, 88
8, 83522, Note_on_c, 6, 60, 88
8, 83747, Note_on_c, 6, 60, 0
8, 83747, Note_on_c, 6, 72, 0
8, 83762, Note_on_c, 6, 60, 88
8, 83762, Note_on_c, 6, 72, 88
8, 83822, Note_on_c, 6, 72, 0
8, 83822, Note_on_c, 6, 60, 0
8, 83882, Note_on_c, 6, 55, 88
8, 83882, Control_c, 6, 11, 122
8, 83882, Note_on_c, 6, 67, 88
8, 83905, Control_c, 6, 11, 120
8, 83929, Control_c, 6, 11, 118
8, 83953, Control_c, 6, 11, 116
8, 83977, Control_c, 6, 11, 114
8, 84001, Control_c, 6, 11, 112
8, 84025, Control_c, 6, 11, 110
8, 84049, Control_c, 6, 11, 108
8, 84073, Control_c, 6, 11, 106
8, 84097, Control_c, 6, 11, 104
8, 84121, Control_c, 6, 11, 102
8, 84242, Note_on_c, 6, 67, 0
8, 84242, Note_on_c, 6, 55, 0
8, 84242, Note_on_c, 6, 60, 88
8, 84242, Note_on_c, 6, 72, 88
8, 84467, Note_on_c, 6, 72, 0
8, 84467, Note_on_c, 6, 60, 0
8, 84482, Note_on_c, 6, 72, 88
8, 84482, Note_on_c, 6, 60, 88
8, 84542, Note_on_c, 6, 60, 0
8, 84542, Note_on_c, 6, 72, 0
8, 84602, Note_on_c, 6, 60, 88
8, 84602, Note_on_c, 6, 72, 88
8, 84602, Control_c, 6, 11, 122
8, 84625, Control_c, 6, 11, 120
8, 84649, Control_c, 6, 11, 118
8, 84673, Control_c, 6, 11, 116
8, 84697, Control_c, 6, 11, 114
8, 84721, Control_c, 6, 11, 112
8, 84745, Control_c, 6, 11, 110
8, 84769, Control_c, 6, 11, 108
8, 84793, Control_c, 6, 11, 106
8, 84817, Control_c, 6, 11, 104
8, 84841, Control_c, 6, 11, 102
8, 84962, Note_on_c, 6, 72, 0
8, 84962, Note_on_c, 6, 60, 0
8, 84962, Note_on_c, 6, 72, 88
8, 84962, Note_on_c, 6, 60, 88
8, 85187, Note_on_c, 6, 60, 0
8, 85187, Note_on_c, 6, 72, 0
8, 85202, Note_on_c, 6, 60, 88
8, 85202, Note_on_c, 6, 72, 88
8, 85262, Note_on_c, 6, 72, 0
8, 85262, Note_on_c, 6, 60, 0
8, 85322, Control_c, 6, 11, 122
8, 85322, Note_on_c, 6, 67, 88
8, 85322, Note_on_c, 6, 55, 88
8, 85345, Control_c, 6, 11, 120
8, 85369, Control_c, 6, 11, 118
8, 85393, Control_c, 6, 11, 116
8, 85417, Control_c, 6, 11, 114
8, 85441, Control_c, 6, 11, 112
8, 85465, Control_c, 6, 11, 110
8, 85489, Control_c, 6, 11, 108
8, 85513, Control_c, 6, 11, 106
8, 85537, Control_c, 6, 11, 104
8, 85561, Control_c, 6, 11, 102
8, 85682, Note_on_c, 6, 55, 0
8, 85682, Note_on_c, 6, 67, 0
8, 85682, Note_on_c, 6, 72, 88
8, 85682, Note_on_c, 6, 60, 88
8, 85742, Note_on_c, 6, 60, 0
8, 85742, Note_on_c, 6, 72, 0
8, 85802, Control_c, 6, 11, 122
8, 85802, Note_on_c, 6, 67, 88
8, 85802, Note_on_c, 6, 55, 88
8, 85825, Control_c, 6, 11, 120
8, 85849, Control_c, 6, 11, 118
8, 85873, Control_c, 6, 11, 116
8, 85897, Control_c, 6, 11, 114
8, 85921, Control_c, 6, 11, 112
8, 85945, Control_c, 6, 11, 110
8, 85969, Control_c, 6, 11, 108
8, 85993, Control_c, 6, 11, 106
8, 86017, Control_c, 6, 11, 104
8, 86027, Note_on_c, 6, 55, 0
8, 86027, Note_on_c, 6, 67, 0
8, 86041, Control_c, 6, 11, 102
8, 86042, Note_on_c, 6, 60, 88
8, 86042, Note_on_c, 6, 72, 88
8, 86102, Note_on_c, 6, 72, 0
8, 86102, Note_on_c, 6, 60, 0
8, 86162, Note_on_c, 6, 55, 88
8, 86162, Note_on_c, 6, 67, 88
8, 86162, Control_c, 6, 11, 122
8, 86185, Control_c, 6, 11, 120
8, 86209, Control_c, 6, 11, 118
8, 86233, Control_c, 6, 11, 116
8, 86257, Control_c, 6, 11, 114
8, 86281, Control_c, 6, 11, 112
8, 86305, Control_c, 6, 11, 110
8, 86329, Control_c, 6, 11, 108
8, 86353, Control_c, 6, 11, 106
8, 86377, Control_c, 6, 11, 104
8, 86387, Note_on_c, 6, 67, 0
8, 86387, Note_on_c, 6, 55, 0
8, 86401, Control_c, 6, 11, 102
8, 86402, Note_on_c, 6, 55, 88
8, 86402, Note_on_c, 6, 67, 88
8, 86402, Control_c, 6, 11, 122
8, 86425, Control_c, 6, 11, 120
8, 86449, Control_c, 6, 11, 118
8, 86473, Control_c, 6, 11, 116
8, 86497, Control_c, 6, 11, 114
8, 86521, Control_c, 6, 11, 112
8, 86545, Control_c, 6, 11, 110
8, 86569, Control_c, 6, 11, 108
8, 86593, Control_c, 6, 11, 106
8, 86617, Control_c, 6, 11, 104
8, 86641, Control_c, 6, 11, 102
8, 86762, Note_on_c, 6, 67, 0
8, 86762, Note_on_c, 6, 55, 0
8, 86762, Note_on_c, 6, 72, 88
8, 86762, Note_on_c, 6, 60, 88
8, 86882, Note_on_c, 6, 60, 0
8, 86882, Note_on_c, 6, 72, 0
8, 94322, Control_c, 6, 11, 47
8, 94348, Control_c, 6, 11, 49
8, 94374, Control_c, 6, 11, 51
8, 94400, Control_c, 6, 11, 53
8, 94426, Control_c, 6, 11, 55
8, 94452, Control_c, 6, 11, 57
8, 94479, Control_c, 6, 11, 59
8, 94505, Control_c, 6, 11, 61
8, 94531, Control_c, 6, 11, 63
8, 94557, Control_c, 6, 11, 65
8, 94583, Control_c, 6, 11, 67
8, 94610, Control_c, 6, 11, 69
8, 94636, Control_c, 6, 11, 71
8, 94662, Control_c, 6, 11, 73
8, 94682, Note_on_c, 6, 60, 88
8, 94682, Note_on_c, 6, 72, 88
8, 94688, Control_c, 6, 11, 75
8, 94714, Control_c, 6, 11, 77
8, 94740, Control_c, 6, 11, 79
8, 94767, Control_c, 6, 11, 81
8, 94793, Control_c, 6, 11, 83
8, 94819, Control_c, 6, 11, 85
8, 94845, Control_c, 6, 11, 87
8, 94871, Note_on_c, 6, 72, 0
8, 94871, Note_on_c, 6, 60, 0
8, 94871, Control_c, 6, 11, 89
8, 94898, Control_c, 6, 11, 91
8, 94922, Note_on_c, 6, 60, 88
8, 94922, Note_on_c, 6, 72, 88
8, 94924, Control_c, 6, 11, 93
8, 94950, Control_c, 6, 11, 95
8, 94976, Control_c, 6, 11, 97
8, 95002, Control_c, 6, 11, 99
8, 95012, Note_on_c, 6, 72, 0
8, 95012, Note_on_c, 6, 60, 0
8, 95028, Control_c, 6, 11, 101
8, 95042, Note_on_c, 6, 60, 88
8, 95042, Note_on_c, 6, 72, 88
8, 95231, Note_on_c, 6, 72, 0
8, 95231, Note_on_c, 6, 60, 0
8, 95282, Note_on_c, 6, 60, 88
8, 95282, Note_on_c, 6, 72, 88
8, 95372, Note_on_c, 6, 72, 0
8, 95372, Note_on_c, 6, 60, 0
8, 95402, Note_on_c, 6, 60, 88
8, 95402, Control_c, 6, 11, 122
8, 95402, Note_on_c, 6, 72, 88
8, 95425, Control_c, 6, 11, 120
8, 95449, Control_c, 6, 11, 118
8, 95473, Control_c, 6, 11, 116
8, 95497, Control_c, 6, 11, 114
8, 95521, Control_c, 6, 11, 112
8, 95545, Control_c, 6, 11, 110
8, 95569, Control_c, 6, 11, 108
8, 95593, Control_c, 6, 11, 106
8, 95617, Control_c, 6, 11, 104
8, 95641, Control_c, 6, 11, 102
8, 95762, Note_on_c, 6, 72, 0
8, 95762, Note_on_c, 6, 60, 0
8, 95762, Note_on_c, 6, 72, 88
8, 95762, Note_on_c, 6, 60, 88
8, 95987, Note_on_c, 6, 60, 0
8, 95987, Note_on_c, 6, 72, 0
8, 96002, Note_on_c, 6, 72, 88
8, 96002, Note_on_c, 6, 60, 88
8, 96062, Note_on_c, 6, 60, 0
8, 96062, Note_on_c, 6, 72, 0
8, 96122, Note_on_c, 6, 55, 88
8, 96122, Control_c, 6, 11, 122
8, 96122, Note_on_c, 6, 67, 88
8, 96145, Control_c, 6, 11, 120
8, 96169, Control_c, 6, 11, 118
8, 96193, Control_c, 6, 11, 116
8, 96217, Control_c, 6, 11, 114
8, 96241, Control_c, 6, 11, 112
8, 96265, Control_c, 6, 11, 110
8, 96289, Control_c, 6, 11, 108
8, 96313, Control_c, 6, 11, 106
8, 96337, Control_c, 6, 11, 104
8, 96361, Control_c, 6, 11, 102
8, 96482, Note_on_c, 6, 67, 0
8, 96482, Note_on_c, 6, 55, 0
8, 96482, Note_on_c, 6, 60, 88
8, 96482, Note_on_c, 6, 72, 88
8, 96707, Note_on_c, 6, 72, 0
8, 96707, Note_on_c, 6, 60, 0
8, 96722, Note_on_c, 6, 72, 88
8, 96722, Note_on_c, 6, 60, 88
8, 96782, Note_on_c, 6, 60, 0
8, 96782, Note_on_c, 6, 72, 0
8, 96842, Note_on_c, 6, 60, 88
8, 96842, Control_c, 6, 11, 122
8, 96842, Note_on_c, 6, 72, 88
8, 96865, Control_c, 6, 11, 120
8, 96889, Control_c, 6, 11, 118
8, 96913, Control_c, 6, 11, 116
8, 96937, Control_c, 6, 11, 114
8, 96961, Control_c, 6, 11, 112
8, 96985, Control_c, 6, 11, 110
8, 97009, Control_c, 6, 11, 108
8, 97033, Control_c, 6, 11, 106
8, 97057, Control_c, 6, 11, 104
8, 97081, Control_c, 6, 11, 102
8, 97202, Note_on_c, 6, 72, 0
8, 97202, Note_on_c, 6, 60, 0
8, 97202, Note_on_c, 6, 72, 88
8, 97202, Note_on_c, 6, 60, 88
8, 97427, Note_on_c, 6, 60, 0
8, 97427, Note_on_c, 6, 72, 0
8, 97442, Note_on_c, 6, 72, 88
8, 97442, Note_on_c, 6, 60, 88
8, 97502, Note_on_c, 6, 60, 0
8, 97502, Note_on_c, 6, 72, 0
8, 97562, Control_c, 6, 11, 122
8, 97562, Note_on_c, 6, 67, 88
8, 97562, Note_on_c, 6, 55, 88
8, 97585, Control_c, 6, 11, 120
8, 97609, Control_c, 6, 11, 118
8, 97633, Control_c, 6, 11, 116
8, 97657, Control_c, 6, 11, 114
8, 97681, Control_c, 6, 11, 112
8, 97705, Control_c, 6, 11, 110
8, 97729, Control_c, 6, 11, 108
8, 97753, Control_c, 6, 11, 106
8, 97777, Control_c, 6, 11, 104
8, 97801, Control_c, 6, 11, 102
8, 97922, Note_on_c, 6, 55, 0
8, 97922, Note_on_c, 6, 67, 0
8, 97922, Note_on_c, 6, 72, 88
8, 97922, Note_on_c, 6, 60, 88
8, 97982, Note_on_c, 6, 60, 0
8, 97982, Note_on_c, 6, 72, 0
8, 98042, Note_on_c, 6, 55, 88
8, 98042, Note_on_c, 6, 67, 88
8, 98042, Control_c, 6, 11, 122
8, 98065, Control_c, 6, 11, 120
8, 98089, Control_c, 6, 11, 118
8, 98113, Control_c, 6, 11, 116
8, 98137, Control_c, 6, 11, 114
8, 98161, Control_c, 6, 11, 112
8, 98185, Control_c, 6, 11, 110
8, 98209, Control_c, 6, 11, 108
8, 98233, Control_c, 6, 11, 106
8, 98257, Control_c, 6, 11, 104
8, 98267, Note_on_c, 6, 67, 0
8, 98267, Note_on_c, 6, 55, 0
8, 98281, Control_c, 6, 11, 102
8, 98282, Note_on_c, 6, 72, 88
8, 98282, Note_on_c, 6, 60, 88
8, 98342, Note_on_c, 6, 60, 0
8, 98342, Note_on_c, 6, 72, 0
8, 98402, Note_on_c, 6, 55, 88
8, 98402, Note_on_c, 6, 67, 88
8, 98402, Control_c, 6, 11, 122
8, 98425, Control_c, 6, 11, 120
8, 98449, Control_c, 6, 11, 118
8, 98473, Control_c, 6, 11, 116
8, 98497, Control_c, 6, 11, 114
8, 98521, Control_c, 6, 11, 112
8, 98545, Control_c, 6, 11, 110
8, 98569, Control_c, 6, 11, 108
8, 98593, Control_c, 6, 11, 106
8, 98617, Control_c, 6, 11, 104
8, 98627, Note_on_c, 6, 67, 0
8, 98627, Note_on_c, 6, 55, 0
8, 98641, Control_c, 6, 11, 102
8, 98642, Control_c, 6, 11, 122
8, 98642, Note_on_c, 6, 67, 88
8, 98642, Note_on_c, 6, 55, 88
8, 98665, Control_c, 6, 11, 120
8, 98689, Control_c, 6, 11, 118
8, 98713, Control_c, 6, 11, 116
8, 98737, Control_c, 6, 11, 114
8, 98761, Control_c, 6, 11, 112
8, 98785, Control_c, 6, 11, 110
8, 98809, Control_c, 6, 11, 108
8, 98833, Control_c, 6, 11, 106
8, 98857, Control_c, 6, 11, 104
8, 98881, Control_c, 6, 11, 102
8, 99002, Note_on_c, 6, 55, 0
8, 99002, Note_on_c, 6, 67, 0
8, 99002, Note_on_c, 6, 72, 88
8, 99002, Note_on_c, 6, 60, 88
8, 99122, Note_on_c, 6, 60, 0
8, 99122, Note_on_c, 6, 72, 0
8, 101522, Note_on_c, 6, 74, 110
8, 101522, Control_c, 6, 11, 87
8, 101582, Note_on_c, 6, 74, 0
8, 101642, Note_on_c, 6, 74, 110
8, 101702, Note_on_c, 6, 74, 0
8, 101762, Note_on_c, 6, 74, 110
8, 101822, Note_on_c, 6, 74, 0
8, 101882, Note_on_c, 6, 67, 110
8, 102002, Note_on_c, 6, 67, 0
8, 104402, Control_c, 6, 11, 87
8, 104402, Note_on_c, 6, 74, 110
8, 104462, Note_on_c, 6, 74, 0
8, 104522, Note_on_c, 6, 74, 110
8, 104582, Note_on_c, 6, 74, 0
8, 104642, Note_on_c, 6, 74, 110
8, 104702, Note_on_c, 6, 74, 0
8, 104762, Note_on_c, 6, 67, 110
8, 104882, Note_on_c, 6, 67, 0
8, 117962, Note_on_c, 6, 72, 110
8, 117962, Note_on_c, 6, 60, 110
8, 117962, Control_c, 6, 11, 87
8, 118082, Note_on_c, 6, 60, 0
8, 118082, Note_on_c, 6, 72, 0
8, 118082, Note_on_c, 6, 72, 110
8, 118082, Note_on_c, 6, 60, 110
8, 118202, Note_on_c, 6, 60, 0
8, 118202, Note_on_c, 6, 72, 0
8, 118202, Note_on_c, 6, 60, 110
8, 118202, Note_on_c, 6, 72, 110
8, 118322, Note_on_c, 6, 72, 0
8, 118322, Note_on_c, 6, 60, 0
8, 118322, Note_on_c, 6, 60, 110
8, 118322, Note_on_c, 6, 72, 110
8, 118442, Note_on_c, 6, 72, 0
8, 118442, Note_on_c, 6, 60, 0
8, 118442, Note_on_c, 6, 72, 110
8, 118442, Note_on_c, 6, 60, 110
8, 118562, Note_on_c, 6, 60, 0
8, 118562, Note_on_c, 6, 72, 0
8, 118562, Note_on_c, 6, 72, 110
8, 118562, Note_on_c, 6, 60, 110
8, 118682, Note_on_c, 6, 60, 0
8, 118682, Note_on_c, 6, 72, 0
8, 118682, Note_on_c, 6, 74, 110
8, 118682, Note_on_c, 6, 67, 110
8, 118802, Note_on_c, 6, 67, 0
8, 118802, Note_on_c, 6, 74, 0
8, 118802, Note_on_c, 6, 76, 110
8, 118802, Note_on_c, 6, 72, 110
8, 118922, Note_on_c, 6, 72, 0
8, 118922, Note_on_c, 6, 76, 0
8, 118922, Note_on_c, 6, 76, 110
8, 118922, Note_on_c, 6, 72, 110
8, 119042, Note_on_c, 6, 72, 0
8, 119042, Note_on_c, 6, 76, 0
8, 119042, Note_on_c, 6, 72, 110
8, 119042, Note_on_c, 6, 74, 110
8, 119162, Note_on_c, 6, 74, 0
8, 119162, Note_on_c, 6, 72, 0
8, 119162, Note_on_c, 6, 74, 110
8, 119162, Note_on_c, 6, 67, 110
8, 119282, Note_on_c, 6, 67, 0
8, 119282, Note_on_c, 6, 74, 0
8, 119402, Control_c, 6, 11, 102
8, 119402, Note_on_c, 6, 67, 110
8, 119402, Note_on_c, 6, 55, 110
8, 119462, Note_on_c, 6, 55, 0
8, 119462, Note_on_c, 6, 67, 0
8, 119462, Note_on_c, 6, 67, 110
8, 119462, Note_on_c, 6, 55, 110
8, 119522, Note_on_c, 6, 55, 0
8, 119522, Note_on_c, 6, 67, 0
8, 119522, Note_on_c, 6, 55, 110
8, 119522, Note_on_c, 6, 67, 110
8, 119642, Note_on_c, 6, 67, 0
8, 119642, Note_on_c, 6, 55, 0
8, 119762, Note_on_c, 6, 55, 110
8, 119762, Note_on_c, 6, 67, 110
8, 119822, Note_on_c, 6, 67, 0
8, 119822, Note_on_c, 6, 55, 0
8, 119822, Note_on_c, 6, 67, 110
8, 119822, Note_on_c, 6, 55, 110
8, 119882, Note_on_c, 6, 55, 0
8, 119882, Note_on_c, 6, 67, 0
8, 119882, Note_on_c, 6, 55, 110
8, 119882, Note_on_c, 6, 67, 110
8, 120002, Note_on_c, 6, 67, 0
8, 120002, Note_on_c, 6, 55, 0
8, 120122, Note_on_c, 6, 55, 110
8, 120122, Note_on_c, 6, 67, 110
8, 120182, Note_on_c, 6, 67, 0
8, 120182, Note_on_c, 6, 55, 0
8, 120182, Note_on_c, 6, 55, 110
8, 120182, Note_on_c, 6, 67, 110
8, 120242, Note_on_c, 6, 67, 0
8, 120242, Note_on_c, 6, 55, 0
8, 120242, Note_on_c, 6, 55, 110
8, 120242, Note_on_c, 6, 67, 110
8, 120362, Note_on_c, 6, 67, 0
8, 120362, Note_on_c, 6, 55, 0
8, 120362, Note_on_c, 6, 60, 110
8, 120362, Note_on_c, 6, 72, 110
8, 120482, Note_on_c, 6, 72, 0
8, 120482, Note_on_c, 6, 60, 0
8, 120482, Note_on_c, 6, 72, 110
8, 120482, Note_on_c, 6, 60, 110
8, 120602, Note_on_c, 6, 60, 0
8, 120602, Note_on_c, 6, 72, 0
8, 120602, Note_on_c, 6, 55, 110
8, 120602, Note_on_c, 6, 67, 110
8, 120722, Note_on_c, 6, 67, 0
8, 120722, Note_on_c, 6, 55, 0
8, 121202, Note_on_c, 6, 72, 110
8, 121202, Note_on_c, 6, 60, 110
8, 121262, Note_on_c, 6, 60, 0
8, 121262, Note_on_c, 6, 72, 0
8, 121262, Note_on_c, 6, 72, 110
8, 121262, Note_on_c, 6, 60, 110
8, 121322, Note_on_c, 6, 60, 0
8, 121322, Note_on_c, 6, 72, 0
8, 121322, Note_on_c, 6, 60, 110
8, 121322, Note_on_c, 6, 72, 110
8, 121562, Note_on_c, 6, 72, 0
8, 121562, Note_on_c, 6, 60, 0
8, 121922, Note_on_c, 6, 55, 110
8, 121922, Note_on_c, 6, 67, 110
8, 121982, Note_on_c, 6, 67, 0
8, 121982, Note_on_c, 6, 55, 0
8, 121982, Note_on_c, 6, 67, 110
8, 121982, Note_on_c, 6, 55, 110
8, 122042, Note_on_c, 6, 55, 0
8, 122042, Note_on_c, 6, 67, 0
8, 122042, Note_on_c, 6, 60, 110
8, 122042, Note_on_c, 6, 72, 110
8, 122282, Note_on_c, 6, 72, 0
8, 122282, Note_on_c, 6, 60, 0
8, 122282, Note_on_c, 6, 60, 110
8, 122282, Note_on_c, 6, 72, 110
8, 122402, Note_on_c, 6, 72, 0
8, 122402, Note_on_c, 6, 60, 0
8, 122402, Note_on_c, 6, 72, 110
8, 122402, Note_on_c, 6, 60, 110
8, 122642, Note_on_c, 6, 60, 0
8, 122642, Note_on_c, 6, 72, 0
8, 122642, Note_on_c, 6, 74, 110
8, 122642, Note_on_c, 6, 67, 110
8, 122762, Note_on_c, 6, 67, 0
8, 122762, Note_on_c, 6, 74, 0
8, 122762, Note_on_c, 6, 64, 110
8, 122762, Note_on_c, 6, 72, 110
8, 122882, Note_on_c, 6, 72, 0
8, 122882, Note_on_c, 6, 64, 0
8, 124202, Note_on_c, 6, 60, 90
8, 124202, Note_on_c, 6, 72, 90
8, 124322, Note_on_c, 6, 72, 0
8, 124322, Note_on_c, 6, 60, 0
8, 125642, Note_on_c, 6, 72, 110
8, 125642, Note_on_c, 6, 60, 110
8, 125642, Control_c, 6, 11, 47
8, 125762, Note_on_c, 6, 60, 0
8, 125762, Note_on_c, 6, 72, 0
8, 126002, Note_on_c, 6, 67, 75
8, 126002, Note_on_c, 6, 55, 75
8, 126122, Note_on_c, 6, 55, 0
8, 126122, Note_on_c, 6, 67, 0
8, 126362, Note_on_c, 6, 67, 78
8, 126362, Note_on_c, 6, 55, 78
8, 126482, Note_on_c, 6, 55, 0
8, 126482, Note_on_c, 6, 67, 0
8, 126722, Note_on_c, 6, 55, 82
8, 126722, Note_on_c, 6, 67, 82
8, 126842, Note_on_c, 6, 67, 0
8, 126842, Note_on_c, 6, 55, 0
8, 127082, Control_c, 6, 11, 47
8, 127082, Note_on_c, 6, 64, 86
8, 127082, Note_on_c, 6, 72, 86
8, 127118, Control_c, 6, 11, 48
8, 127154, Control_c, 6, 11, 49
8, 127190, Control_c, 6, 11, 50
8, 127202, Note_on_c, 6, 72, 0
8, 127202, Note_on_c, 6, 64, 0
8, 127226, Control_c, 6, 11, 51
8, 127262, Control_c, 6, 11, 52
8, 127298, Control_c, 6, 11, 53
8, 127334, Control_c, 6, 11, 54
8, 127370, Control_c, 6, 11, 55
8, 127406, Control_c, 6, 11, 56
8, 127442, Note_on_c, 6, 74, 90
8, 127442, Note_on_c, 6, 67, 90
8, 127442, Control_c, 6, 11, 57
8, 127478, Control_c, 6, 11, 58
8, 127514, Control_c, 6, 11, 59
8, 127550, Control_c, 6, 11, 60
8, 127562, Note_on_c, 6, 67, 0
8, 127562, Note_on_c, 6, 74, 0
8, 127586, Control_c, 6, 11, 61
8, 127622, Control_c, 6, 11, 62
8, 127658, Control_c, 6, 11, 63
8, 127694, Control_c, 6, 11, 64
8, 127730, Control_c, 6, 11, 65
8, 127766, Control_c, 6, 11, 66
8, 127802, Control_c, 6, 11, 67
8, 127802, Note_on_c, 6, 76, 94
8, 127802, Note_on_c, 6, 72, 94
8, 127838, Control_c, 6, 11, 68
8, 127874, Control_c, 6, 11, 69
8, 127910, Control_c, 6, 11, 70
8, 127922, Note_on_c, 6, 72, 0
8, 127922, Note_on_c, 6, 76, 0
8, 127946, Control_c, 6, 11, 71
8, 127982, Control_c, 6, 11, 72
8, 128018, Control_c, 6, 11, 73
8, 128054, Control_c, 6, 11, 74
8, 128090, Control_c, 6, 11, 75
8, 128126, Control_c, 6, 11, 76
8, 128162, Note_on_c, 6, 67, 98
8, 128162, Note_on_c, 6, 74, 98
8, 128162, Control_c, 6, 11, 77
8, 128198, Control_c, 6, 11, 78
8, 128234, Control_c, 6, 11, 79
8, 128270, Control_c, 6, 11, 80
8, 128282, Note_on_c, 6, 74, 0
8, 128282, Note_on_c, 6, 67, 0
8, 128306, Control_c, 6, 11, 81
8, 128342, Control_c, 6, 11, 82
8, 128378, Control_c, 6, 11, 83
8, 128414, Control_c, 6, 11, 84
8, 128450, Control_c, 6, 11, 85
8, 128486, Control_c, 6, 11, 86
8, 128522, Control_c, 6, 11, 87
8, 128522, Note_on_c, 6, 64, 102
8, 128522, Note_on_c, 6, 72, 102
8, 128642, Note_on_c, 6, 72, 0
8, 128642, Note_on_c, 6, 64, 0
8, 128882, Note_on_c, 6, 67, 106
8, 128882, Note_on_c, 6, 74, 106
8, 129002, Note_on_c, 6, 74, 0
8, 129002, Note_on_c, 6, 67, 0
8, 129242, Note_on_c, 6, 60, 110
8, 129242, Note_on_c, 6, 72, 110
8, 129242, Control_c, 6, 11, 102
8, 129302, Note_on_c, 6, 72, 0
8, 129302, Note_on_c, 6, 60, 0
8, 129362, Note_on_c, 6, 76, 110
8, 129362, Note_on_c, 6, 64, 110
8, 129422, Note_on_c, 6, 64, 0
8, 129422, Note_on_c, 6, 76, 0
8, 129482, Note_on_c, 6, 67, 110
8, 129482, Note_on_c, 6, 79, 110
8, 129722, Note_on_c, 6, 79, 0
8, 129722, Note_on_c, 6, 67, 0
8, 129722, Note_on_c, 6, 74, 110
8, 129722, Note_on_c, 6, 67, 110
8, 129782, Note_on_c, 6, 67, 0
8, 129782, Note_on_c, 6, 74, 0
8, 129842, Note_on_c, 6, 67, 110
8, 129842, Note_on_c, 6, 74, 110
8, 129902, Note_on_c, 6, 74, 0
8, 129902, Note_on_c, 6, 67, 0
8, 129962, Note_on_c, 6, 72, 110
8, 130022, Note_on_c, 6, 72, 0
8, 130082, Note_on_c, 6, 67, 110
8, 130142, Note_on_c, 6, 67, 0
8, 130202, Note_on_c, 6, 64, 110
8, 130262, Note_on_c, 6, 64, 0
8, 130322, Note_on_c, 6, 60, 110
8, 130382, Note_on_c, 6, 60, 0
8, 130682, Control_c, 6, 121, 0
8, 130682, End_track
9, 0, Start_track
9, 0, MIDI_port, 0
9, 0, Title_t, "Timpani"
9, 0, Program_c, 15, 47
9, 0, Control_c, 15, 10, 97
9, 10, Control_c, 15, 121, 0
9, 15, Program_c, 15, 47
9, 20, Pitch_bend_c, 15, 8192
9, 25, Control_c, 15, 11, 127
9, 30, Control_c, 15, 7, 127
9, 35, Control_c, 15, 91, 89
9, 40, Control_c, 15, 93, 0
9, 45, Control_c, 15, 10, 97
9, 50, Control_c, 15, 1, 100
9, 3250, Note_on_c, 15, 43, 94
9, 3370, Note_on_c, 15, 43, 0
9, 6130, Note_on_c, 15, 43, 94
9, 6250, Note_on_c, 15, 43, 0
9, 19328, Note_on_c, 15, 48, 97
9, 19382, Note_on_c, 15, 48, 0
9, 19389, Note_on_c, 15, 48, 98
9, 19443, Note_on_c, 15, 48, 0
9, 19451, Note_on_c, 15, 48, 96
9, 19505, Note_on_c, 15, 48, 0
9, 19510, Note_on_c, 15, 48, 99
9, 19564, Note_on_c, 15, 48, 0
9, 19572, Note_on_c, 15, 48, 98
9, 19626, Note_on_c, 15, 48, 0
9, 19629, Note_on_c, 15, 48, 99
9, 19683, Note_on_c, 15, 48, 0
9, 19692, Note_on_c, 15, 48, 97
9, 19746, Note_on_c, 15, 48, 0
9, 19749, Note_on_c, 15, 48, 94
9, 19803, Note_on_c, 15, 48, 0
9, 19808, Note_on_c, 15, 48, 96
9, 19862, Note_on_c, 15, 48, 0
9, 19868, Note_on_c, 15, 48, 94
9, 19922, Note_on_c, 15, 48, 0
9, 19933, Note_on_c, 15, 48, 96
9, 19987, Note_on_c, 15, 48, 0
9, 19988, Note_on_c, 15, 48, 94
9, 20042, Note_on_c, 15, 48, 0
9, 20048, Note_on_c, 15, 43, 96
9, 20102, Note_on_c, 15, 43, 0
9, 20111, Note_on_c, 15, 43, 97
9, 20165, Note_on_c, 15, 43, 0
9, 20171, Note_on_c, 15, 48, 97
9, 20225, Note_on_c, 15, 48, 0
9, 20228, Note_on_c, 15, 48, 97
9, 20282, Note_on_c, 15, 48, 0
9, 20290, Note_on_c, 15, 48, 96
9, 20344, Note_on_c, 15, 48, 0
9, 20348, Note_on_c, 15, 48, 97
9, 20402, Note_on_c, 15, 48, 0
9, 20412, Note_on_c, 15, 48, 98
9, 20466, Note_on_c, 15, 48, 0
9, 20471, Note_on_c, 15, 48, 95
9, 20525, Note_on_c, 15, 48, 0
9, 20530, Note_on_c, 15, 43, 94
9, 20650, Note_on_c, 15, 43, 0
9, 20770, Note_on_c, 15, 43, 105
9, 20830, Note_on_c, 15, 43, 0
9, 20830, Note_on_c, 15, 43, 105
9, 20890, Note_on_c, 15, 43, 0
9, 20890, Note_on_c, 15, 43, 105
9, 21010, Note_on_c, 15, 43, 0
9, 21130, Note_on_c, 15, 43, 105
9, 21190, Note_on_c, 15, 43, 0
9, 21190, Note_on_c, 15, 43, 105
9, 21250, Note_on_c, 15, 43, 0
9, 21250, Note_on_c, 15, 43, 105
9, 21370, Note_on_c, 15, 43, 0
9, 21490, Note_on_c, 15, 43, 105
9, 21550, Note_on_c, 15, 43, 0
9, 21550, Note_on_c, 15, 43, 105
9, 21610, Note_on_c, 15, 43, 0
9, 21610, Note_on_c, 15, 43, 105
9, 21670, Note_on_c, 15, 43, 0
9, 21670, Note_on_c, 15, 43, 105
9, 21730, Note_on_c, 15, 43, 0
9, 21730, Note_on_c, 15, 48, 105
9, 21790, Note_on_c, 15, 48, 0
9, 21790, Note_on_c, 15, 48, 105
9, 21850, Note_on_c, 15, 48, 0
9, 21850, Note_on_c, 15, 48, 105
9, 21910, Note_on_c, 15, 48, 0
9, 21910, Note_on_c, 15, 48, 105
9, 21970, Note_on_c, 15, 48, 0
9, 21970, Note_on_c, 15, 43, 105
9, 22090, Note_on_c, 15, 43, 0
9, 22570, Note_on_c, 15, 48, 105
9, 22630, Note_on_c, 15, 48, 0
9, 22630, Note_on_c, 15, 48, 105
9, 22690, Note_on_c, 15, 48, 0
9, 22690, Note_on_c, 15, 48, 105
9, 22810, Note_on_c, 15, 48, 0
9, 23290, Note_on_c, 15, 43, 105
9, 23350, Note_on_c, 15, 43, 0
9, 23350, Note_on_c, 15, 43, 105
9, 23410, Note_on_c, 15, 43, 0
9, 23413, Note_on_c, 15, 48, 109
9, 23467, Note_on_c, 15, 48, 0
9, 23473, Note_on_c, 15, 48, 110
9, 23527, Note_on_c, 15, 48, 0
9, 23531, Note_on_c, 15, 48, 105
9, 23585, Note_on_c, 15, 48, 0
9, 23590, Note_on_c, 15, 48, 106
9, 23644, Note_on_c, 15, 48, 0
9, 23653, Note_on_c, 15, 48, 106
9, 23707, Note_on_c, 15, 48, 0
9, 23712, Note_on_c, 15, 48, 110
9, 23766, Note_on_c, 15, 48, 0
9, 23773, Note_on_c, 15, 43, 110
9, 23827, Note_on_c, 15, 43, 0
9, 23831, Note_on_c, 15, 43, 107
9, 23885, Note_on_c, 15, 43, 0
9, 23889, Note_on_c, 15, 43, 106
9, 23943, Note_on_c, 15, 43, 0
9, 23953, Note_on_c, 15, 43, 105
9, 24007, Note_on_c, 15, 43, 0
9, 24010, Note_on_c, 15, 43, 105
9, 24064, Note_on_c, 15, 43, 0
9, 24072, Note_on_c, 15, 43, 105
9, 24126, Note_on_c, 15, 43, 0
9, 24130, Note_on_c, 15, 48, 105
9, 24250, Note_on_c, 15, 48, 0
9, 27010, Note_on_c, 15, 48, 40
9, 27130, Note_on_c, 15, 48, 0
9, 27370, Note_on_c, 15, 43, 25
9, 27490, Note_on_c, 15, 43, 0
9, 27730, Note_on_c, 15, 48, 26
9, 27850, Note_on_c, 15, 48, 0
9, 28090, Note_on_c, 15, 43, 28
9, 28210, Note_on_c, 15, 43, 0
9, 28450, Note_on_c, 15, 48, 29
9, 28570, Note_on_c, 15, 48, 0
9, 28810, Note_on_c, 15, 43, 41
9, 28930, Note_on_c, 15, 43, 0
9, 29170, Note_on_c, 15, 48, 55
9, 29290, Note_on_c, 15, 48, 0
9, 29530, Note_on_c, 15, 43, 70
9, 29650, Note_on_c, 15, 43, 0
9, 29890, Note_on_c, 15, 48, 86
9, 30010, Note_on_c, 15, 48, 0
9, 30250, Note_on_c, 15, 43, 89
9, 30370, Note_on_c, 15, 43, 0
9, 30610, Note_on_c, 15, 48, 94
9, 30730, Note_on_c, 15, 48, 0
9, 30968, Note_on_c, 15, 43, 99
9, 31028, Note_on_c, 15, 43, 0
9, 31029, Note_on_c, 15, 43, 95
9, 31089, Note_on_c, 15, 43, 0
9, 31091, Note_on_c, 15, 43, 98
9, 31151, Note_on_c, 15, 43, 0
9, 31153, Note_on_c, 15, 43, 98
9, 31210, Note_on_c, 15, 43, 95
9, 31213, Note_on_c, 15, 43, 0
9, 31270, Note_on_c, 15, 43, 0
9, 31272, Note_on_c, 15, 43, 96
9, 31330, Note_on_c, 15, 48, 99
9, 31332, Note_on_c, 15, 43, 0
9, 31390, Note_on_c, 15, 48, 0
9, 31392, Note_on_c, 15, 48, 94
9, 31451, Note_on_c, 15, 48, 96
9, 31452, Note_on_c, 15, 48, 0
9, 31511, Note_on_c, 15, 48, 0
9, 31512, Note_on_c, 15, 48, 97
9, 31571, Note_on_c, 15, 48, 96
9, 31572, Note_on_c, 15, 48, 0
9, 31628, Note_on_c, 15, 48, 95
9, 31631, Note_on_c, 15, 48, 0
9, 31688, Note_on_c, 15, 48, 0
9, 31690, Note_on_c, 15, 48, 94
9, 31810, Note_on_c, 15, 48, 0
9, 44890, Note_on_c, 15, 48, 97
9, 44944, Note_on_c, 15, 48, 0
9, 44951, Note_on_c, 15, 48, 98
9, 45005, Note_on_c, 15, 48, 0
9, 45013, Note_on_c, 15, 48, 96
9, 45067, Note_on_c, 15, 48, 0
9, 45072, Note_on_c, 15, 48, 99
9, 45126, Note_on_c, 15, 48, 0
9, 45134, Note_on_c, 15, 48, 98
9, 45188, Note_on_c, 15, 48, 0
9, 45191, Note_on_c, 15, 48, 99
9, 45245, Note_on_c, 15, 48, 0
9, 45254, Note_on_c, 15, 48, 97
9, 45308, Note_on_c, 15, 48, 0
9, 45311, Note_on_c, 15, 48, 94
9, 45365, Note_on_c, 15, 48, 0
9, 45370, Note_on_c, 15, 48, 96
9, 45424, Note_on_c, 15, 48, 0
9, 45430, Note_on_c, 15, 48, 94
9, 45484, Note_on_c, 15, 48, 0
9, 45495, Note_on_c, 15, 48, 96
9, 45549, Note_on_c, 15, 48, 0
9, 45550, Note_on_c, 15, 48, 94
9, 45604, Note_on_c, 15, 48, 0
9, 45610, Note_on_c, 15, 43, 96
9, 45664, Note_on_c, 15, 43, 0
9, 45673, Note_on_c, 15, 43, 97
9, 45727, Note_on_c, 15, 43, 0
9, 45733, Note_on_c, 15, 48, 97
9, 45787, Note_on_c, 15, 48, 0
9, 45790, Note_on_c, 15, 48, 97
9, 45844, Note_on_c, 15, 48, 0
9, 45852, Note_on_c, 15, 48, 96
9, 45906, Note_on_c, 15, 48, 0
9, 45910, Note_on_c, 15, 48, 97
9, 45964, Note_on_c, 15, 48, 0
9, 45974, Note_on_c, 15, 48, 98
9, 46028, Note_on_c, 15, 48, 0
9, 46033, Note_on_c, 15, 48, 95
9, 46087, Note_on_c, 15, 48, 0
9, 46092, Note_on_c, 15, 43, 94
9, 46212, Note_on_c, 15, 43, 0
9, 46332, Note_on_c, 15, 43, 105
9, 46392, Note_on_c, 15, 43, 0
9, 46392, Note_on_c, 15, 43, 105
9, 46452, Note_on_c, 15, 43, 0
9, 46452, Note_on_c, 15, 43, 105
9, 46572, Note_on_c, 15, 43, 0
9, 46692, Note_on_c, 15, 43, 105
9, 46752, Note_on_c, 15, 43, 0
9, 46752, Note_on_c, 15, 43, 105
9, 46812, Note_on_c, 15, 43, 0
9, 46812, Note_on_c, 15, 43, 105
9, 46932, Note_on_c, 15, 43, 0
9, 47052, Note_on_c, 15, 43, 105
9, 47112, Note_on_c, 15, 43, 0
9, 47112, Note_on_c, 15, 43, 105
9, 47172, Note_on_c, 15, 43, 0
9, 47172, Note_on_c, 15, 43, 105
9, 47232, Note_on_c, 15, 43, 0
9, 47232, Note_on_c, 15, 43, 105
9, 47292, Note_on_c, 15, 43, 0
9, 47292, Note_on_c, 15, 48, 105
9, 47352, Note_on_c, 15, 48, 0
9, 47352, Note_on_c, 15, 48, 105
9, 47412, Note_on_c, 15, 48, 0
9, 47412, Note_on_c, 15, 48, 105
9, 47472, Note_on_c, 15, 48, 0
9, 47472, Note_on_c, 15, 48, 105
9, 47532, Note_on_c, 15, 48, 0
9, 47532, Note_on_c, 15, 43, 105
9, 47652, Note_on_c, 15, 43, 0
9, 48132, Note_on_c, 15, 48, 105
9, 48192, Note_on_c, 15, 48, 0
9, 48192, Note_on_c, 15, 48, 105
9, 48252, Note_on_c, 15, 48, 0
9, 48252, Note_on_c, 15, 48, 105
9, 48372, Note_on_c, 15, 48, 0
9, 48852, Note_on_c, 15, 43, 105
9, 48912, Note_on_c, 15, 43, 0
9, 48912, Note_on_c, 15, 43, 105
9, 48972, Note_on_c, 15, 43, 0
9, 48975, Note_on_c, 15, 48, 109
9, 49029, Note_on_c, 15, 48, 0
9, 49035, Note_on_c, 15, 48, 110
9, 49089, Note_on_c, 15, 48, 0
9, 49093, Note_on_c, 15, 48, 105
9, 49147, Note_on_c, 15, 48, 0
9, 49152, Note_on_c, 15, 48, 106
9, 49206, Note_on_c, 15, 48, 0
9, 49215, Note_on_c, 15, 48, 106
9, 49269, Note_on_c, 15, 48, 0
9, 49274, Note_on_c, 15, 48, 110
9, 49328, Note_on_c, 15, 48, 0
9, 49335, Note_on_c, 15, 43, 110
9, 49389, Note_on_c, 15, 43, 0
9, 49393, Note_on_c, 15, 43, 107
9, 49447, Note_on_c, 15, 43, 0
9, 49451, Note_on_c, 15, 43, 106
9, 49505, Note_on_c, 15, 43, 0
9, 49515, Note_on_c, 15, 43, 105
9, 49569, Note_on_c, 15, 43, 0
9, 49572, Note_on_c, 15, 43, 105
9, 49626, Note_on_c, 15, 43, 0
9, 49634, Note_on_c, 15, 43, 105
9, 49688, Note_on_c, 15, 43, 0
9, 49692, Note_on_c, 15, 48, 105
9, 49812, Note_on_c, 15, 48, 0
9, 52570, Note_on_c, 15, 48, 40
9, 52690, Note_on_c, 15, 48, 0
9, 52930, Note_on_c, 15, 43, 25
9, 53050, Note_on_c, 15, 43, 0
9, 53290, Note_on_c, 15, 48, 26
9, 53410, Note_on_c, 15, 48, 0
9, 53650, Note_on_c, 15, 43, 28
9, 53770, Note_on_c, 15, 43, 0
9, 54010, Note_on_c, 15, 48, 29
9, 54130, Note_on_c, 15, 48, 0
9, 54370, Note_on_c, 15, 43, 41
9, 54490, Note_on_c, 15, 43, 0
9, 54730, Note_on_c, 15, 48, 55
9, 54850, Note_on_c, 15, 48, 0
9, 55090, Note_on_c, 15, 43, 70
9, 55210, Note_on_c, 15, 43, 0
9, 55450, Note_on_c, 15, 48, 86
9, 55570, Note_on_c, 15, 48, 0
9, 55810, Note_on_c, 15, 43, 89
9, 55930, Note_on_c, 15, 43, 0
9, 56170, Note_on_c, 15, 48, 94
9, 56290, Note_on_c, 15, 48, 0
9, 56530, Note_on_c, 15, 43, 99
9, 56590, Note_on_c, 15, 43, 0
9, 56591, Note_on_c, 15, 43, 95
9, 56651, Note_on_c, 15, 43, 0
9, 56653, Note_on_c, 15, 43, 98
9, 56713, Note_on_c, 15, 43, 0
9, 56715, Note_on_c, 15, 43, 98
9, 56772, Note_on_c, 15, 43, 95
9, 56775, Note_on_c, 15, 43, 0
9, 56832, Note_on_c, 15, 43, 0
9, 56834, Note_on_c, 15, 43, 96
9, 56892, Note_on_c, 15, 48, 99
9, 56894, Note_on_c, 15, 43, 0
9, 56952, Note_on_c, 15, 48, 0
9, 56954, Note_on_c, 15, 48, 94
9, 57013, Note_on_c, 15, 48, 96
9, 57014, Note_on_c, 15, 48, 0
9, 57073, Note_on_c, 15, 48, 0
9, 57074, Note_on_c, 15, 48, 97
9, 57133, Note_on_c, 15, 48, 96
9, 57134, Note_on_c, 15, 48, 0
9, 57190, Note_on_c, 15, 48, 95
9, 57193, Note_on_c, 15, 48, 0
9, 57250, Note_on_c, 15, 48, 0
9, 57252, Note_on_c, 15, 48, 94
9, 57372, Note_on_c, 15, 48, 0
9, 82090, Note_on_c, 15, 48, 33
9, 82150, Note_on_c, 15, 48, 0
9, 82150, Note_on_c, 15, 48, 36
9, 82210, Note_on_c, 15, 48, 0
9, 82210, Note_on_c, 15, 48, 41
9, 82270, Note_on_c, 15, 48, 0
9, 82270, Note_on_c, 15, 48, 44
9, 82330, Note_on_c, 15, 48, 0
9, 82330, Note_on_c, 15, 48, 49
9, 82390, Note_on_c, 15, 48, 0
9, 82390, Note_on_c, 15, 48, 52
9, 82450, Note_on_c, 15, 48, 0
9, 82450, Note_on_c, 15, 48, 57
9, 82510, Note_on_c, 15, 48, 0
9, 82510, Note_on_c, 15, 48, 60
9, 82570, Note_on_c, 15, 48, 0
9, 82570, Note_on_c, 15, 48, 65
9, 82630, Note_on_c, 15, 48, 0
9, 82630, Note_on_c, 15, 48, 69
9, 82690, Note_on_c, 15, 48, 0
9, 82690, Note_on_c, 15, 48, 73
9, 82750, Note_on_c, 15, 48, 0
9, 82750, Note_on_c, 15, 48, 77
9, 82810, Note_on_c, 15, 48, 0
9, 82810, Note_on_c, 15, 48, 81
9, 82870, Note_on_c, 15, 48, 0
9, 82870, Note_on_c, 15, 48, 81
9, 82930, Note_on_c, 15, 48, 0
9, 82930, Note_on_c, 15, 48, 81
9, 82990, Note_on_c, 15, 48, 0
9, 82990, Note_on_c, 15, 48, 81
9, 83050, Note_on_c, 15, 48, 0
9, 83050, Note_on_c, 15, 48, 81
9, 83110, Note_on_c, 15, 48, 0
9, 83110, Note_on_c, 15, 48, 81
9, 83170, Note_on_c, 15, 48, 0
9, 83170, Note_on_c, 15, 48, 96
9, 83530, Note_on_c, 15, 48, 0
9, 83530, Note_on_c, 15, 43, 81
9, 83590, Note_on_c, 15, 43, 0
9, 83590, Note_on_c, 15, 43, 81
9, 83650, Note_on_c, 15, 43, 0
9, 83650, Note_on_c, 15, 43, 81
9, 83710, Note_on_c, 15, 43, 0
9, 83710, Note_on_c, 15, 43, 81
9, 83770, Note_on_c, 15, 43, 0
9, 83770, Note_on_c, 15, 43, 81
9, 83830, Note_on_c, 15, 43, 0
9, 83830, Note_on_c, 15, 43, 81
9, 83890, Note_on_c, 15, 43, 0
9, 83890, Note_on_c, 15, 43, 96
9, 84250, Note_on_c, 15, 43, 0
9, 84250, Note_on_c, 15, 48, 81
9, 84310, Note_on_c, 15, 48, 0
9, 84310, Note_on_c, 15, 48, 81
9, 84370, Note_on_c, 15, 48, 0
9, 84370, Note_on_c, 15, 48, 81
9, 84430, Note_on_c, 15, 48, 0
9, 84430, Note_on_c, 15, 48, 81
9, 84490, Note_on_c, 15, 48, 0
9, 84490, Note_on_c, 15, 48, 81
9, 84550, Note_on_c, 15, 48, 0
9, 84550, Note_on_c, 15, 48, 81
9, 84610, Note_on_c, 15, 48, 0
9, 84610, Note_on_c, 15, 48, 81
9, 84670, Note_on_c, 15, 48, 0
9, 84670, Note_on_c, 15, 48, 81
9, 84730, Note_on_c, 15, 48, 0
9, 84730, Note_on_c, 15, 48, 81
9, 84790, Note_on_c, 15, 48, 0
9, 84790, Note_on_c, 15, 48, 81
9, 84850, Note_on_c, 15, 48, 0
9, 84850, Note_on_c, 15, 48, 81
9, 84910, Note_on_c, 15, 48, 0
9, 84910, Note_on_c, 15, 48, 81
9, 84970, Note_on_c, 15, 48, 0
9, 84970, Note_on_c, 15, 43, 81
9, 85030, Note_on_c, 15, 43, 0
9, 85030, Note_on_c, 15, 43, 81
9, 85090, Note_on_c, 15, 43, 0
9, 85090, Note_on_c, 15, 43, 81
9, 85150, Note_on_c, 15, 43, 0
9, 85150, Note_on_c, 15, 43, 81
9, 85210, Note_on_c, 15, 43, 0
9, 85210, Note_on_c, 15, 43, 81
9, 85270, Note_on_c, 15, 43, 0
9, 85270, Note_on_c, 15, 43, 81
9, 85330, Note_on_c, 15, 43, 0
9, 85330, Note_on_c, 15, 43, 81
9, 85390, Note_on_c, 15, 43, 0
9, 85390, Note_on_c, 15, 43, 81
9, 85450, Note_on_c, 15, 43, 0
9, 85450, Note_on_c, 15, 43, 81
9, 85510, Note_on_c, 15, 43, 0
9, 85510, Note_on_c, 15, 43, 81
9, 85570, Note_on_c, 15, 43, 0
9, 85570, Note_on_c, 15, 43, 81
9, 85630, Note_on_c, 15, 43, 0
9, 85630, Note_on_c, 15, 43, 81
9, 85690, Note_on_c, 15, 43, 0
9, 85690, Note_on_c, 15, 48, 81
9, 85750, Note_on_c, 15, 48, 0
9, 85810, Note_on_c, 15, 43, 96
9, 85870, Note_on_c, 15, 43, 0
9, 85870, Note_on_c, 15, 43, 81
9, 85930, Note_on_c, 15, 43, 0
9, 85930, Note_on_c, 15, 43, 81
9, 85990, Note_on_c, 15, 43, 0
9, 85990, Note_on_c, 15, 43, 81
9, 86050, Note_on_c, 15, 43, 0
9, 86050, Note_on_c, 15, 48, 81
9, 86110, Note_on_c, 15, 48, 0
9, 86170, Note_on_c, 15, 43, 96
9, 86230, Note_on_c, 15, 43, 0
9, 86230, Note_on_c, 15, 43, 81
9, 86290, Note_on_c, 15, 43, 0
9, 86290, Note_on_c, 15, 43, 81
9, 86350, Note_on_c, 15, 43, 0
9, 86350, Note_on_c, 15, 43, 81
9, 86410, Note_on_c, 15, 43, 0
9, 86410, Note_on_c, 15, 43, 96
9, 86470, Note_on_c, 15, 43, 0
9, 86470, Note_on_c, 15, 43, 81
9, 86530, Note_on_c, 15, 43, 0
9, 86530, Note_on_c, 15, 43, 81
9, 86590, Note_on_c, 15, 43, 0
9, 86590, Note_on_c, 15, 43, 81
9, 86650, Note_on_c, 15, 43, 0
9, 86650, Note_on_c, 15, 43, 81
9, 86710, Note_on_c, 15, 43, 0
9, 86710, Note_on_c, 15, 43, 81
9, 86770, Note_on_c, 15, 43, 0
9, 86770, Note_on_c, 15, 48, 81
9, 86890, Note_on_c, 15, 48, 0
9, 94330, Note_on_c, 15, 48, 33
9, 94390, Note_on_c, 15, 48, 0
9, 94390, Note_on_c, 15, 48, 36
9, 94450, Note_on_c, 15, 48, 0
9, 94450, Note_on_c, 15, 48, 41
9, 94510, Note_on_c, 15, 48, 0
9, 94510, Note_on_c, 15, 48, 44
9, 94570, Note_on_c, 15, 48, 0
9, 94570, Note_on_c, 15, 48, 49
9, 94630, Note_on_c, 15, 48, 0
9, 94630, Note_on_c, 15, 48, 52
9, 94690, Note_on_c, 15, 48, 0
9, 94690, Note_on_c, 15, 48, 57
9, 94750, Note_on_c, 15, 48, 0
9, 94750, Note_on_c, 15, 48, 60
9, 94810, Note_on_c, 15, 48, 0
9, 94810, Note_on_c, 15, 48, 65
9, 94870, Note_on_c, 15, 48, 0
9, 94870, Note_on_c, 15, 48, 69
9, 94930, Note_on_c, 15, 48, 0
9, 94930, Note_on_c, 15, 48, 73
9, 94990, Note_on_c, 15, 48, 0
9, 94990, Note_on_c, 15, 48, 77
9, 95050, Note_on_c, 15, 48, 0
9, 95050, Note_on_c, 15, 48, 81
9, 95110, Note_on_c, 15, 48, 0
9, 95110, Note_on_c, 15, 48, 81
9, 95170, Note_on_c, 15, 48, 0
9, 95170, Note_on_c, 15, 48, 81
9, 95230, Note_on_c, 15, 48, 0
9, 95230, Note_on_c, 15, 48, 81
9, 95290, Note_on_c, 15, 48, 0
9, 95290, Note_on_c, 15, 48, 81
9, 95350, Note_on_c, 15, 48, 0
9, 95350, Note_on_c, 15, 48, 81
9, 95410, Note_on_c, 15, 48, 0
9, 95410, Note_on_c, 15, 48, 96
9, 95770, Note_on_c, 15, 48, 0
9, 95770, Note_on_c, 15, 43, 81
9, 95830, Note_on_c, 15, 43, 0
9, 95830, Note_on_c, 15, 43, 81
9, 95890, Note_on_c, 15, 43, 0
9, 95890, Note_on_c, 15, 43, 81
9, 95950, Note_on_c, 15, 43, 0
9, 95950, Note_on_c, 15, 43, 81
9, 96010, Note_on_c, 15, 43, 0
9, 96010, Note_on_c, 15, 43, 81
9, 96070, Note_on_c, 15, 43, 0
9, 96070, Note_on_c, 15, 43, 81
9, 96130, Note_on_c, 15, 43, 0
9, 96130, Note_on_c, 15, 43, 96
9, 96490, Note_on_c, 15, 43, 0
9, 96490, Note_on_c, 15, 48, 81
9, 96550, Note_on_c, 15, 48, 0
9, 96550, Note_on_c, 15, 48, 81
9, 96610, Note_on_c, 15, 48, 0
9, 96610, Note_on_c, 15, 48, 81
9, 96670, Note_on_c, 15, 48, 0
9, 96670, Note_on_c, 15, 48, 81
9, 96730, Note_on_c, 15, 48, 0
9, 96730, Note_on_c, 15, 48, 81
9, 96790, Note_on_c, 15, 48, 0
9, 96790, Note_on_c, 15, 48, 81
9, 96850, Note_on_c, 15, 48, 0
9, 96850, Note_on_c, 15, 48, 81
9, 96910, Note_on_c, 15, 48, 0
9, 96910, Note_on_c, 15, 48, 81
9, 96970, Note_on_c, 15, 48, 0
9, 96970, Note_on_c, 15, 48, 81
9, 97030, Note_on_c, 15, 48, 0
9, 97030, Note_on_c, 15, 48, 81
9, 97090, Note_on_c, 15, 48, 0
9, 97090, Note_on_c, 15, 48, 81
9, 97150, Note_on_c, 15, 48, 0
9, 97150, Note_on_c, 15, 48, 81
9, 97210, Note_on_c, 15, 48, 0
9, 97210, Note_on_c, 15, 43, 81
9, 97270, Note_on_c, 15, 43, 0
9, 97270, Note_on_c, 15, 43, 81
9, 97330, Note_on_c, 15, 43, 0
9, 97330, Note_on_c, 15, 43, 81
9, 97390, Note_on_c, 15, 43, 0
9, 97390, Note_on_c, 15, 43, 81
9, 97450, Note_on_c, 15, 43, 0
9, 97450, Note_on_c, 15, 43, 81
9, 97510, Note_on_c, 15, 43, 0
9, 97510, Note_on_c, 15, 43, 81
9, 97570, Note_on_c, 15, 43, 0
9, 97570, Note_on_c, 15, 43, 81
9, 97630, Note_on_c, 15, 43, 0
9, 97630, Note_on_c, 15, 43, 81
9, 97690, Note_on_c, 15, 43, 0
9, 97690, Note_on_c, 15, 43, 81
9, 97750, Note_on_c, 15, 43, 0
9, 97750, Note_on_c, 15, 43, 81
9, 97810, Note_on_c, 15, 43, 0
9, 97810, Note_on_c, 15, 43, 81
9, 97870, Note_on_c, 15, 43, 0
9, 97870, Note_on_c, 15, 43, 81
9, 97930, Note_on_c, 15, 43, 0
9, 97930, Note_on_c, 15, 48, 81
9, 97990, Note_on_c, 15, 48, 0
9, 98050, Note_on_c, 15, 43, 96
9, 98110, Note_on_c, 15, 43, 0
9, 98110, Note_on_c, 15, 43, 81
9, 98170, Note_on_c, 15, 43, 0
9, 98170, Note_on_c, 15, 43, 81
9, 98230, Note_on_c, 15, 43, 0
9, 98230, Note_on_c, 15, 43, 81
9, 98290, Note_on_c, 15, 43, 0
9, 98290, Note_on_c, 15, 48, 81
9, 98350, Note_on_c, 15, 48, 0
9, 98410, Note_on_c, 15, 43, 96
9, 98470, Note_on_c, 15, 43, 0
9, 98470, Note_on_c, 15, 43, 81
9, 98530, Note_on_c, 15, 43, 0
9, 98530, Note_on_c, 15, 43, 81
9, 98590, Note_on_c, 15, 43, 0
9, 98590, Note_on_c, 15, 43, 81
9, 98650, Note_on_c, 15, 43, 0
9, 98650, Note_on_c, 15, 43, 96
9, 98710, Note_on_c, 15, 43, 0
9, 98710, Note_on_c, 15, 43, 81
9, 98770, Note_on_c, 15, 43, 0
9, 98770, Note_on_c, 15, 43, 81
9, 98830, Note_on_c, 15, 43, 0
9, 98830, Note_on_c, 15, 43, 81
9, 98890, Note_on_c, 15, 43, 0
9, 98890, Note_on_c, 15, 43, 81
9, 98950, Note_on_c, 15, 43, 0
9, 98950, Note_on_c, 15, 43, 81
9, 99010, Note_on_c, 15, 43, 0
9, 99010, Note_on_c, 15, 48, 81
9, 99130, Note_on_c, 15, 48, 0
9, 101890, Note_on_c, 15, 43, 94
9, 102010, Note_on_c, 15, 43, 0
9, 104770, Note_on_c, 15, 43, 94
9, 104890, Note_on_c, 15, 43, 0
9, 117968, Note_on_c, 15, 48, 97
9, 118022, Note_on_c, 15, 48, 0
9, 118029, Note_on_c, 15, 48, 98
9, 118083, Note_on_c, 15, 48, 0
9, 118091, Note_on_c, 15, 48, 96
9, 118145, Note_on_c, 15, 48, 0
9, 118150, Note_on_c, 15, 48, 99
9, 118204, Note_on_c, 15, 48, 0
9, 118212, Note_on_c, 15, 48, 98
9, 118266, Note_on_c, 15, 48, 0
9, 118269, Note_on_c, 15, 48, 99
9, 118323, Note_on_c, 15, 48, 0
9, 118332, Note_on_c, 15, 48, 97
9, 118386, Note_on_c, 15, 48, 0
9, 118389, Note_on_c, 15, 48, 94
9, 118443, Note_on_c, 15, 48, 0
9, 118448, Note_on_c, 15, 48, 96
9, 118502, Note_on_c, 15, 48, 0
9, 118508, Note_on_c, 15, 48, 94
9, 118562, Note_on_c, 15, 48, 0
9, 118573, Note_on_c, 15, 48, 96
9, 118627, Note_on_c, 15, 48, 0
9, 118628, Note_on_c, 15, 48, 94
9, 118682, Note_on_c, 15, 48, 0
9, 118688, Note_on_c, 15, 43, 96
9, 118742, Note_on_c, 15, 43, 0
9, 118751, Note_on_c, 15, 43, 97
9, 118805, Note_on_c, 15, 43, 0
9, 118811, Note_on_c, 15, 48, 97
9, 118865, Note_on_c, 15, 48, 0
9, 118868, Note_on_c, 15, 48, 97
9, 118922, Note_on_c, 15, 48, 0
9, 118930, Note_on_c, 15, 48, 96
9, 118984, Note_on_c, 15, 48, 0
9, 118988, Note_on_c, 15, 48, 97
9, 119042, Note_on_c, 15, 48, 0
9, 119052, Note_on_c, 15, 48, 98
9, 119106, Note_on_c, 15, 48, 0
9, 119111, Note_on_c, 15, 48, 95
9, 119165, Note_on_c, 15, 48, 0
9, 119170, Note_on_c, 15, 43, 94
9, 119290, Note_on_c, 15, 43, 0
9, 119410, Note_on_c, 15, 43, 105
9, 119470, Note_on_c, 15, 43, 0
9, 119470, Note_on_c, 15, 43, 105
9, 119530, Note_on_c, 15, 43, 0
9, 119530, Note_on_c, 15, 43, 105
9, 119650, Note_on_c, 15, 43, 0
9, 119770, Note_on_c, 15, 43, 105
9, 119830, Note_on_c, 15, 43, 0
9, 119830, Note_on_c, 15, 43, 105
9, 119890, Note_on_c, 15, 43, 0
9, 119890, Note_on_c, 15, 43, 105
9, 120010, Note_on_c, 15, 43, 0
9, 120130, Note_on_c, 15, 43, 105
9, 120190, Note_on_c, 15, 43, 0
9, 120190, Note_on_c, 15, 43, 105
9, 120250, Note_on_c, 15, 43, 0
9, 120250, Note_on_c, 15, 43, 105
9, 120310, Note_on_c, 15, 43, 0
9, 120310, Note_on_c, 15, 43, 105
9, 120370, Note_on_c, 15, 43, 0
9, 120370, Note_on_c, 15, 48, 105
9, 120430, Note_on_c, 15, 48, 0
9, 120430, Note_on_c, 15, 48, 105
9, 120490, Note_on_c, 15, 48, 0
9, 120490, Note_on_c, 15, 48, 105
9, 120550, Note_on_c, 15, 48, 0
9, 120550, Note_on_c, 15, 48, 105
9, 120610, Note_on_c, 15, 48, 0
9, 120610, Note_on_c, 15, 43, 105
9, 120730, Note_on_c, 15, 43, 0
9, 121210, Note_on_c, 15, 48, 105
9, 121270, Note_on_c, 15, 48, 0
9, 121270, Note_on_c, 15, 48, 105
9, 121330, Note_on_c, 15, 48, 0
9, 121330, Note_on_c, 15, 48, 105
9, 121450, Note_on_c, 15, 48, 0
9, 121930, Note_on_c, 15, 43, 105
9, 121990, Note_on_c, 15, 43, 0
9, 121990, Note_on_c, 15, 43, 105
9, 122050, Note_on_c, 15, 43, 0
9, 122053, Note_on_c, 15, 48, 109
9, 122107, Note_on_c, 15, 48, 0
9, 122113, Note_on_c, 15, 48, 110
9, 122167, Note_on_c, 15, 48, 0
9, 122171, Note_on_c, 15, 48, 105
9, 122225, Note_on_c, 15, 48, 0
9, 122230, Note_on_c, 15, 48, 106
9, 122284, Note_on_c, 15, 48, 0
9, 122293, Note_on_c, 15, 48, 106
9, 122347, Note_on_c, 15, 48, 0
9, 122352, Note_on_c, 15, 48, 110
9, 122406, Note_on_c, 15, 48, 0
9, 122413, Note_on_c, 15, 43, 110
9, 122467, Note_on_c, 15, 43, 0
9, 122471, Note_on_c, 15, 43, 107
9, 122525, Note_on_c, 15, 43, 0
9, 122529, Note_on_c, 15, 43, 106
9, 122583, Note_on_c, 15, 43, 0
9, 122593, Note_on_c, 15, 43, 105
9, 122647, Note_on_c, 15, 43, 0
9, 122650, Note_on_c, 15, 43, 105
9, 122704, Note_on_c, 15, 43, 0
9, 122712, Note_on_c, 15, 43, 105
9, 122766, Note_on_c, 15, 43, 0
9, 122770, Note_on_c, 15, 48, 105
9, 122890, Note_on_c, 15, 48, 0
9, 125650, Note_on_c, 15, 48, 40
9, 125770, Note_on_c, 15, 48, 0
9, 126010, Note_on_c, 15, 43, 25
9, 126130, Note_on_c, 15, 43, 0
9, 126370, Note_on_c, 15, 48, 26
9, 126490, Note_on_c, 15, 48, 0
9, 126730, Note_on_c, 15, 43, 28
9, 126850, Note_on_c, 15, 43, 0
9, 127090, Note_on_c, 15, 48, 29
9, 127210, Note_on_c, 15, 48, 0
9, 127450, Note_on_c, 15, 43, 41
9, 127570, Note_on_c, 15, 43, 0
9, 127810, Note_on_c, 15, 48, 55
9, 127930, Note_on_c, 15, 48, 0
9, 128170, Note_on_c, 15, 43, 70
9, 128290, Note_on_c, 15, 43, 0
9, 128530, Note_on_c, 15, 48, 86
9, 128650, Note_on_c, 15, 48, 0
9, 128890, Note_on_c, 15, 43, 89
9, 129010, Note_on_c, 15, 43, 0
9, 129250, Note_on_c, 15, 48, 94
9, 129370, Note_on_c, 15, 48, 0
9, 129608, Note_on_c, 15, 43, 99
9, 129668, Note_on_c, 15, 43, 0
9, 129669, Note_on_c, 15, 43, 95
9, 129729, Note_on_c, 15, 43, 0
9, 129731, Note_on_c, 15, 43, 98
9, 129791, Note_on_c, 15, 43, 0
9, 129793, Note_on_c, 15, 43, 98
9, 129850, Note_on_c, 15, 43, 95
9, 129853, Note_on_c, 15, 43, 0
9, 129910, Note_on_c, 15, 43, 0
9, 129912, Note_on_c, 15, 43, 96
9, 129970, Note_on_c, 15, 48, 99
9, 129972, Note_on_c, 15, 43, 0
9, 130030, Note_on_c, 15, 48, 0
9, 130032, Note_on_c, 15, 48, 94
9, 130091, Note_on_c, 15, 48, 96
9, 130092, Note_on_c, 15, 48, 0
9, 130151, Note_on_c, 15, 48, 0
9, 130152, Note_on_c, 15, 48, 97
9, 130211, Note_on_c, 15, 48, 96
9, 130212, Note_on_c, 15, 48, 0
9, 130268, Note_on_c, 15, 48, 95
9, 130271, Note_on_c, 15, 48, 0
9, 130328, Note_on_c, 15, 48, 0
9, 130330, Note_on_c, 15, 48, 94
9, 130450, Note_on_c, 15, 48, 0
9, 130690, Control_c, 15, 121, 0
9, 130690, End_track
10, 0, Start_track
10, 0, MIDI_port, 0
10, 0, Title_t, "Violine I"
10, 0, Program_c, 10, 48
10, 0, Control_c, 10, 10, 12
10, 0, Control_c, 10, 121, 0
10, 5, Program_c, 10, 48
10, 10, Pitch_bend_c, 10, 8292
10, 15, Control_c, 10, 11, 47
10, 20, Control_c, 10, 7, 127
10, 25, Control_c, 10, 91, 32
10, 30, Control_c, 10, 93, 0
10, 35, Control_c, 10, 10, 12
10, 40, Control_c, 10, 1, 36
10, 600, Note_on_c, 10, 67, 118
10, 600, Control_c, 10, 11, 37
10, 648, Control_c, 10, 11, 38
10, 660, Note_on_c, 10, 67, 0
10, 696, Control_c, 10, 11, 39
10, 720, Note_on_c, 10, 69, 108
10, 744, Control_c, 10, 11, 40
10, 792, Control_c, 10, 11, 41
10, 840, Note_on_c, 10, 69, 0
10, 840, Control_c, 10, 11, 42
10, 888, Control_c, 10, 11, 43
10, 936, Control_c, 10, 11, 44
10, 960, Note_on_c, 10, 71, 108
10, 984, Control_c, 10, 11, 45
10, 1020, Note_on_c, 10, 71, 0
10, 1032, Control_c, 10, 11, 46
10, 1080, Control_c, 10, 11, 47
10, 1080, Note_on_c, 10, 72, 108
10, 1200, Note_on_c, 10, 72, 0
10, 1320, Note_on_c, 10, 74, 108
10, 1380, Note_on_c, 10, 74, 0
10, 1440, Note_on_c, 10, 76, 108
10, 1500, Note_on_c, 10, 76, 0
10, 1560, Note_on_c, 10, 76, 108
10, 1620, Note_on_c, 10, 76, 0
10, 1680, Note_on_c, 10, 78, 108
10, 1740, Note_on_c, 10, 78, 0
10, 1800, Note_on_c, 10, 79, 108
10, 1920, Note_on_c, 10, 79, 0
10, 2040, Note_on_c, 10, 80, 108
10, 2040, Control_c, 10, 11, 47
10, 2058, Control_c, 10, 11, 48
10, 2076, Control_c, 10, 11, 49
10, 2094, Control_c, 10, 11, 50
10, 2100, Note_on_c, 10, 80, 0
10, 2112, Control_c, 10, 11, 51
10, 2130, Control_c, 10, 11, 52
10, 2148, Control_c, 10, 11, 53
10, 2160, Note_on_c, 10, 81, 108
10, 2166, Control_c, 10, 11, 54
10, 2184, Control_c, 10, 11, 55
10, 2202, Control_c, 10, 11, 56
10, 2220, Control_c, 10, 11, 57
10, 2238, Control_c, 10, 11, 58
10, 2256, Control_c, 10, 11, 59
10, 2274, Control_c, 10, 11, 60
10, 2280, Note_on_c, 10, 81, 0
10, 2292, Control_c, 10, 11, 61
10, 2310, Control_c, 10, 11, 62
10, 2328, Control_c, 10, 11, 63
10, 2346, Control_c, 10, 11, 64
10, 2364, Control_c, 10, 11, 65
10, 2382, Control_c, 10, 11, 66
10, 2400, Control_c, 10, 11, 67
10, 2400, Note_on_c, 10, 83, 108
10, 2418, Control_c, 10, 11, 68
10, 2436, Control_c, 10, 11, 69
10, 2454, Control_c, 10, 11, 70
10, 2460, Note_on_c, 10, 83, 0
10, 2472, Control_c, 10, 11, 71
10, 2490, Control_c, 10, 11, 72
10, 2508, Control_c, 10, 11, 73
10, 2520, Note_on_c, 10, 84, 108
10, 2526, Control_c, 10, 11, 74
10, 2544, Control_c, 10, 11, 75
10, 2562, Control_c, 10, 11, 76
10, 2580, Control_c, 10, 11, 77
10, 2598, Control_c, 10, 11, 78
10, 2616, Control_c, 10, 11, 79
10, 2634, Control_c, 10, 11, 80
10, 2640, Note_on_c, 10, 84, 0
10, 2652, Control_c, 10, 11, 81
10, 2670, Control_c, 10, 11, 82
10, 2688, Control_c, 10, 11, 83
10, 2706, Control_c, 10, 11, 84
10, 2724, Control_c, 10, 11, 85
10, 2742, Control_c, 10, 11, 86
10, 2760, Control_c, 10, 11, 87
10, 2760, Note_on_c, 10, 85, 108
10, 2820, Note_on_c, 10, 85, 0
10, 2880, Note_on_c, 10, 86, 108
10, 2940, Note_on_c, 10, 86, 0
10, 3000, Note_on_c, 10, 86, 108
10, 3060, Note_on_c, 10, 86, 0
10, 3120, Note_on_c, 10, 86, 108
10, 3180, Note_on_c, 10, 86, 0
10, 3240, Note_on_c, 10, 79, 108
10, 3360, Note_on_c, 10, 79, 0
10, 3480, Note_on_c, 10, 67, 108
10, 3480, Control_c, 10, 11, 57
10, 3540, Note_on_c, 10, 67, 0
10, 3600, Control_c, 10, 11, 39
10, 3600, Note_on_c, 10, 69, 108
10, 3624, Control_c, 10, 11, 40
10, 3672, Control_c, 10, 11, 41
10, 3720, Note_on_c, 10, 69, 0
10, 3720, Control_c, 10, 11, 42
10, 3768, Control_c, 10, 11, 43
10, 3816, Control_c, 10, 11, 44
10, 3840, Note_on_c, 10, 71, 108
10, 3864, Control_c, 10, 11, 45
10, 3900, Note_on_c, 10, 71, 0
10, 3912, Control_c, 10, 11, 46
10, 3960, Control_c, 10, 11, 47
10, 3960, Note_on_c, 10, 72, 108
10, 4080, Note_on_c, 10, 72, 0
10, 4200, Note_on_c, 10, 74, 108
10, 4260, Note_on_c, 10, 74, 0
10, 4320, Note_on_c, 10, 76, 108
10, 4380, Note_on_c, 10, 76, 0
10, 4440, Note_on_c, 10, 76, 108
10, 4500, Note_on_c, 10, 76, 0
10, 4560, Note_on_c, 10, 78, 108
10, 4620, Note_on_c, 10, 78, 0
10, 4680, Note_on_c, 10, 79, 108
10, 4800, Note_on_c, 10, 79, 0
10, 4920, Control_c, 10, 11, 47
10, 4920, Note_on_c, 10, 80, 108
10, 4938, Control_c, 10, 11, 48
10, 4956, Control_c, 10, 11, 49
10, 4974, Control_c, 10, 11, 50
10, 4980, Note_on_c, 10, 80, 0
10, 4992, Control_c, 10, 11, 51
10, 5010, Control_c, 10, 11, 52
10, 5028, Control_c, 10, 11, 53
10, 5040, Note_on_c, 10, 81, 108
10, 5046, Control_c, 10, 11, 54
10, 5064, Control_c, 10, 11, 55
10, 5082, Control_c, 10, 11, 56
10, 5100, Control_c, 10, 11, 57
10, 5118, Control_c, 10, 11, 58
10, 5136, Control_c, 10, 11, 59
10, 5154, Control_c, 10, 11, 60
10, 5160, Note_on_c, 10, 81, 0
10, 5172, Control_c, 10, 11, 61
10, 5190, Control_c, 10, 11, 62
10, 5208, Control_c, 10, 11, 63
10, 5226, Control_c, 10, 11, 64
10, 5244, Control_c, 10, 11, 65
10, 5262, Control_c, 10, 11, 66
10, 5280, Note_on_c, 10, 83, 108
10, 5280, Control_c, 10, 11, 67
10, 5298, Control_c, 10, 11, 68
10, 5316, Control_c, 10, 11, 69
10, 5334, Control_c, 10, 11, 70
10, 5340, Note_on_c, 10, 83, 0
10, 5352, Control_c, 10, 11, 71
10, 5370, Control_c, 10, 11, 72
10, 5388, Control_c, 10, 11, 73
10, 5400, Note_on_c, 10, 84, 108
10, 5406, Control_c, 10, 11, 74
10, 5424, Control_c, 10, 11, 75
10, 5442, Control_c, 10, 11, 76
10, 5460, Control_c, 10, 11, 77
10, 5478, Control_c, 10, 11, 78
10, 5496, Control_c, 10, 11, 79
10, 5514, Control_c, 10, 11, 80
10, 5520, Note_on_c, 10, 84, 0
10, 5532, Control_c, 10, 11, 81
10, 5550, Control_c, 10, 11, 82
10, 5568, Control_c, 10, 11, 83
10, 5586, Control_c, 10, 11, 84
10, 5604, Control_c, 10, 11, 85
10, 5622, Control_c, 10, 11, 86
10, 5640, Note_on_c, 10, 85, 108
10, 5640, Control_c, 10, 11, 87
10, 5700, Note_on_c, 10, 85, 0
10, 5760, Note_on_c, 10, 86, 108
10, 5820, Note_on_c, 10, 86, 0
10, 5880, Note_on_c, 10, 86, 108
10, 5940, Note_on_c, 10, 86, 0
10, 6000, Note_on_c, 10, 86, 108
10, 6060, Note_on_c, 10, 86, 0
10, 6120, Note_on_c, 10, 79, 108
10, 6240, Note_on_c, 10, 79, 0
10, 6360, Note_on_c, 10, 79, 118
10, 6360, Control_c, 10, 11, 47
10, 6420, Note_on_c, 10, 79, 0
10, 6480, Note_on_c, 10, 80, 108
10, 6720, Note_on_c, 10, 80, 0
10, 6720, Note_on_c, 10, 79, 108
10, 6810, Note_on_c, 10, 79, 0
10, 6840, Note_on_c, 10, 80, 108
10, 7080, Note_on_c, 10, 80, 0
10, 7080, Note_on_c, 10, 79, 108
10, 7170, Note_on_c, 10, 79, 0
10, 7200, Note_on_c, 10, 80, 108
10, 7260, Note_on_c, 10, 80, 0
10, 7320, Control_c, 10, 11, 87
10, 7320, Note_on_c, 10, 80, 108
10, 7380, Note_on_c, 10, 80, 0
10, 7440, Note_on_c, 10, 80, 108
10, 7500, Note_on_c, 10, 80, 0
10, 7560, Note_on_c, 10, 80, 108
10, 7680, Note_on_c, 10, 80, 0
10, 7680, Note_on_c, 10, 79, 108
10, 7770, Note_on_c, 10, 79, 0
10, 7770, Control_c, 10, 11, 87
10, 7774, Control_c, 10, 11, 84
10, 7779, Control_c, 10, 11, 81
10, 7783, Control_c, 10, 11, 78
10, 7788, Control_c, 10, 11, 75
10, 7792, Control_c, 10, 11, 72
10, 7797, Control_c, 10, 11, 69
10, 7800, Note_on_c, 10, 75, 118
10, 7860, Note_on_c, 10, 75, 0
10, 7920, Note_on_c, 10, 77, 108
10, 7920, Control_c, 10, 11, 47
10, 8160, Note_on_c, 10, 77, 0
10, 8160, Note_on_c, 10, 75, 108
10, 8250, Note_on_c, 10, 75, 0
10, 8280, Note_on_c, 10, 77, 108
10, 8520, Note_on_c, 10, 77, 0
10, 8520, Note_on_c, 10, 75, 108
10, 8610, Note_on_c, 10, 75, 0
10, 8640, Note_on_c, 10, 77, 108
10, 8700, Note_on_c, 10, 77, 0
10, 8760, Note_on_c, 10, 77, 108
10, 8760, Control_c, 10, 11, 87
10, 8820, Note_on_c, 10, 77, 0
10, 8880, Note_on_c, 10, 77, 108
10, 8940, Note_on_c, 10, 77, 0
10, 9000, Note_on_c, 10, 77, 108
10, 9120, Note_on_c, 10, 77, 0
10, 9120, Note_on_c, 10, 75, 108
10, 9210, Note_on_c, 10, 75, 0
10, 9240, Note_on_c, 10, 72, 101
10, 9300, Note_on_c, 10, 72, 0
10, 9360, Note_on_c, 10, 73, 93
10, 9420, Note_on_c, 10, 73, 0
10, 9480, Note_on_c, 10, 73, 108
10, 9540, Note_on_c, 10, 73, 0
10, 9600, Note_on_c, 10, 73, 108
10, 9660, Note_on_c, 10, 73, 0
10, 9720, Note_on_c, 10, 73, 108
10, 9840, Note_on_c, 10, 73, 0
10, 9840, Note_on_c, 10, 72, 108
10, 9930, Note_on_c, 10, 72, 0
10, 9960, Note_on_c, 10, 68, 93
10, 10020, Note_on_c, 10, 68, 0
10, 10080, Note_on_c, 10, 70, 93
10, 10080, Control_c, 10, 11, 102
10, 10140, Note_on_c, 10, 70, 0
10, 10200, Note_on_c, 10, 70, 108
10, 10260, Note_on_c, 10, 70, 0
10, 10320, Note_on_c, 10, 70, 108
10, 10380, Note_on_c, 10, 70, 0
10, 10440, Note_on_c, 10, 70, 108
10, 10500, Note_on_c, 10, 70, 0
10, 10560, Note_on_c, 10, 70, 108
10, 10620, Note_on_c, 10, 70, 0
10, 10680, Note_on_c, 10, 70, 108
10, 10740, Note_on_c, 10, 70, 0
10, 10800, Note_on_c, 10, 70, 108
10, 10800, Control_c, 10, 11, 122
10, 10817, Control_c, 10, 11, 119
10, 10835, Control_c, 10, 11, 116
10, 10853, Control_c, 10, 11, 113
10, 10871, Control_c, 10, 11, 110
10, 10889, Control_c, 10, 11, 107
10, 10907, Control_c, 10, 11, 104
10, 10920, Note_on_c, 10, 70, 0
10, 10920, Note_on_c, 10, 68, 108
10, 11010, Note_on_c, 10, 68, 0
10, 11040, Note_on_c, 10, 65, 108
10, 11100, Note_on_c, 10, 65, 0
10, 11160, Control_c, 10, 11, 122
10, 11160, Note_on_c, 10, 68, 108
10, 11177, Control_c, 10, 11, 119
10, 11195, Control_c, 10, 11, 116
10, 11213, Control_c, 10, 11, 113
10, 11231, Control_c, 10, 11, 110
10, 11249, Control_c, 10, 11, 107
10, 11267, Control_c, 10, 11, 104
10, 11280, Note_on_c, 10, 68, 0
10, 11280, Note_on_c, 10, 66, 108
10, 11370, Note_on_c, 10, 66, 0
10, 11400, Note_on_c, 10, 63, 108
10, 11460, Note_on_c, 10, 63, 0
10, 11520, Note_on_c, 10, 66, 108
10, 11520, Control_c, 10, 11, 122
10, 11537, Control_c, 10, 11, 119
10, 11555, Control_c, 10, 11, 116
10, 11573, Control_c, 10, 11, 113
10, 11591, Control_c, 10, 11, 110
10, 11609, Control_c, 10, 11, 107
10, 11627, Control_c, 10, 11, 104
10, 11640, Note_on_c, 10, 66, 0
10, 11640, Note_on_c, 10, 65, 108
10, 11730, Note_on_c, 10, 65, 0
10, 11760, Note_on_c, 10, 61, 108
10, 11820, Note_on_c, 10, 61, 0
10, 11880, Control_c, 10, 11, 122
10, 11880, Note_on_c, 10, 65, 108
10, 11897, Control_c, 10, 11, 119
10, 11915, Control_c, 10, 11, 116
10, 11933, Control_c, 10, 11, 113
10, 11951, Control_c, 10, 11, 110
10, 11969, Control_c, 10, 11, 107
10, 11987, Control_c, 10, 11, 104
10, 12000, Note_on_c, 10, 65, 0
10, 12000, Note_on_c, 10, 63, 108
10, 12090, Note_on_c, 10, 63, 0
10, 12120, Note_on_c, 10, 60, 108
10, 12180, Note_on_c, 10, 60, 0
10, 12240, Note_on_c, 10, 61, 72
10, 12240, Control_c, 10, 11, 122
10, 12258, Control_c, 10, 11, 119
10, 12276, Control_c, 10, 11, 116
10, 12294, Control_c, 10, 11, 113
10, 12312, Control_c, 10, 11, 110
10, 12330, Control_c, 10, 11, 107
10, 12348, Control_c, 10, 11, 104
10, 12360, Note_on_c, 10, 61, 0
10, 12480, Control_c, 10, 11, 47
10, 12480, Note_on_c, 10, 78, 87
10, 12540, Note_on_c, 10, 78, 0
10, 12600, Note_on_c, 10, 78, 80
10, 12660, Note_on_c, 10, 78, 0
10, 12720, Note_on_c, 10, 78, 80
10, 12780, Note_on_c, 10, 78, 0
10, 12840, Note_on_c, 10, 78, 80
10, 12900, Note_on_c, 10, 78, 0
10, 12960, Note_on_c, 10, 78, 80
10, 13080, Note_on_c, 10, 78, 0
10, 13080, Note_on_c, 10, 77, 80
10, 13170, Note_on_c, 10, 77, 0
10, 13200, Note_on_c, 10, 75, 87
10, 13260, Note_on_c, 10, 75, 0
10, 13320, Note_on_c, 10, 75, 80
10, 13380, Note_on_c, 10, 75, 0
10, 13440, Note_on_c, 10, 75, 80
10, 13500, Note_on_c, 10, 75, 0
10, 13560, Note_on_c, 10, 75, 80
10, 13620, Note_on_c, 10, 75, 0
10, 13680, Note_on_c, 10, 75, 80
10, 13800, Note_on_c, 10, 75, 0
10, 13800, Note_on_c, 10, 73, 80
10, 13890, Note_on_c, 10, 73, 0
10, 13920, Note_on_c, 10, 78, 87
10, 13980, Note_on_c, 10, 78, 0
10, 14040, Note_on_c, 10, 78, 80
10, 14100, Note_on_c, 10, 78, 0
10, 14160, Note_on_c, 10, 78, 80
10, 14220, Note_on_c, 10, 78, 0
10, 14280, Note_on_c, 10, 78, 80
10, 14340, Note_on_c, 10, 78, 0
10, 14400, Note_on_c, 10, 78, 80
10, 14520, Note_on_c, 10, 78, 0
10, 14520, Note_on_c, 10, 77, 80
10, 14610, Note_on_c, 10, 77, 0
10, 14640, Note_on_c, 10, 75, 87
10, 14700, Note_on_c, 10, 75, 0
10, 14760, Note_on_c, 10, 75, 80
10, 14820, Note_on_c, 10, 75, 0
10, 14880, Note_on_c, 10, 75, 80
10, 14940, Note_on_c, 10, 75, 0
10, 15000, Note_on_c, 10, 75, 80
10, 15060, Note_on_c, 10, 75, 0
10, 15120, Note_on_c, 10, 73, 80
10, 15210, Note_on_c, 10, 73, 0
10, 15210, Control_c, 10, 11, 47
10, 15216, Control_c, 10, 11, 44
10, 15222, Control_c, 10, 11, 41
10, 15228, Control_c, 10, 11, 38
10, 15234, Control_c, 10, 11, 35
10, 15240, Control_c, 10, 11, 32
10, 15240, Note_on_c, 10, 65, 108
10, 15330, Note_on_c, 10, 65, 0
10, 15360, Note_on_c, 10, 65, 108
10, 15450, Note_on_c, 10, 65, 0
10, 15480, Note_on_c, 10, 65, 108
10, 15570, Note_on_c, 10, 65, 0
10, 15600, Note_on_c, 10, 65, 108
10, 15690, Note_on_c, 10, 65, 0
10, 15720, Note_on_c, 10, 65, 108
10, 15810, Note_on_c, 10, 65, 0
10, 15840, Note_on_c, 10, 65, 108
10, 15930, Note_on_c, 10, 65, 0
10, 15960, Note_on_c, 10, 65, 108
10, 16050, Note_on_c, 10, 65, 0
10, 16080, Note_on_c, 10, 65, 108
10, 16170, Note_on_c, 10, 65, 0
10, 16200, Note_on_c, 10, 65, 108
10, 16290, Note_on_c, 10, 65, 0
10, 16320, Note_on_c, 10, 65, 108
10, 16410, Note_on_c, 10, 65, 0
10, 16440, Note_on_c, 10, 65, 108
10, 16530, Note_on_c, 10, 65, 0
10, 16560, Note_on_c, 10, 66, 108
10, 16650, Note_on_c, 10, 66, 0
10, 16680, Note_on_c, 10, 66, 108
10, 16770, Note_on_c, 10, 66, 0
10, 16800, Note_on_c, 10, 66, 108
10, 16890, Note_on_c, 10, 66, 0
10, 16920, Note_on_c, 10, 66, 108
10, 17010, Note_on_c, 10, 66, 0
10, 17040, Note_on_c, 10, 66, 108
10, 17130, Note_on_c, 10, 66, 0
10, 17160, Note_on_c, 10, 66, 108
10, 17250, Note_on_c, 10, 66, 0
10, 17280, Note_on_c, 10, 66, 108
10, 17370, Note_on_c, 10, 66, 0
10, 17400, Note_on_c, 10, 66, 108
10, 17490, Note_on_c, 10, 66, 0
10, 17520, Note_on_c, 10, 66, 108
10, 17610, Note_on_c, 10, 66, 0
10, 17640, Note_on_c, 10, 66, 108
10, 17730, Note_on_c, 10, 66, 0
10, 17760, Note_on_c, 10, 66, 108
10, 17850, Note_on_c, 10, 66, 0
10, 17880, Note_on_c, 10, 66, 108
10, 17970, Note_on_c, 10, 66, 0
10, 18000, Control_c, 10, 11, 37
10, 18000, Note_on_c, 10, 67, 108
10, 18026, Control_c, 10, 11, 38
10, 18052, Control_c, 10, 11, 39
10, 18079, Control_c, 10, 11, 40
10, 18090, Note_on_c, 10, 67, 0
10, 18105, Control_c, 10, 11, 41
10, 18120, Note_on_c, 10, 67, 108
10, 18132, Control_c, 10, 11, 42
10, 18158, Control_c, 10, 11, 43
10, 18184, Control_c, 10, 11, 44
10, 18210, Note_on_c, 10, 67, 0
10, 18211, Control_c, 10, 11, 45
10, 18237, Control_c, 10, 11, 46
10, 18240, Note_on_c, 10, 67, 108
10, 18264, Control_c, 10, 11, 47
10, 18290, Control_c, 10, 11, 48
10, 18316, Control_c, 10, 11, 49
10, 18330, Note_on_c, 10, 67, 0
10, 18343, Control_c, 10, 11, 50
10, 18360, Note_on_c, 10, 67, 108
10, 18369, Control_c, 10, 11, 51
10, 18396, Control_c, 10, 11, 52
10, 18422, Control_c, 10, 11, 53
10, 18448, Control_c, 10, 11, 54
10, 18450, Note_on_c, 10, 67, 0
10, 18475, Control_c, 10, 11, 55
10, 18480, Note_on_c, 10, 67, 108
10, 18501, Control_c, 10, 11, 56
10, 18528, Control_c, 10, 11, 57
10, 18554, Control_c, 10, 11, 58
10, 18570, Note_on_c, 10, 67, 0
10, 18580, Control_c, 10, 11, 59
10, 18600, Note_on_c, 10, 67, 108
10, 18607, Control_c, 10, 11, 60
10, 18633, Control_c, 10, 11, 61
10, 18660, Control_c, 10, 11, 62
10, 18686, Control_c, 10, 11, 63
10, 18690, Note_on_c, 10, 67, 0
10, 18712, Control_c, 10, 11, 64
10, 18720, Note_on_c, 10, 67, 108
10, 18739, Control_c, 10, 11, 65
10, 18765, Control_c, 10, 11, 66
10, 18792, Control_c, 10, 11, 67
10, 18810, Note_on_c, 10, 67, 0
10, 18818, Control_c, 10, 11, 68
10, 18840, Note_on_c, 10, 67, 108
10, 18844, Control_c, 10, 11, 69
10, 18871, Control_c, 10, 11, 70
10, 18897, Control_c, 10, 11, 71
10, 18924, Control_c, 10, 11, 72
10, 18930, Note_on_c, 10, 67, 0
10, 18950, Control_c, 10, 11, 73
10, 18960, Note_on_c, 10, 67, 108
10, 18976, Control_c, 10, 11, 74
10, 19003, Control_c, 10, 11, 75
10, 19029, Control_c, 10, 11, 76
10, 19050, Note_on_c, 10, 67, 0
10, 19056, Control_c, 10, 11, 77
10, 19080, Note_on_c, 10, 67, 108
10, 19082, Control_c, 10, 11, 78
10, 19108, Control_c, 10, 11, 79
10, 19135, Control_c, 10, 11, 80
10, 19161, Control_c, 10, 11, 81
10, 19170, Note_on_c, 10, 67, 0
10, 19188, Control_c, 10, 11, 82
10, 19200, Note_on_c, 10, 67, 108
10, 19214, Control_c, 10, 11, 83
10, 19240, Control_c, 10, 11, 84
10, 19267, Control_c, 10, 11, 85
10, 19290, Note_on_c, 10, 67, 0
10, 19293, Control_c, 10, 11, 86
10, 19320, Note_on_c, 10, 67, 108
10, 19320, Control_c, 10, 11, 87
10, 19380, Note_on_c, 10, 67, 0
10, 19440, Note_on_c, 10, 69, 108
10, 19560, Note_on_c, 10, 69, 0
10, 19680, Note_on_c, 10, 71, 108
10, 19740, Note_on_c, 10, 71, 0
10, 19800, Note_on_c, 10, 72, 108
10, 19920, Note_on_c, 10, 72, 0
10, 20040, Note_on_c, 10, 74, 108
10, 20100, Note_on_c, 10, 74, 0
10, 20160, Note_on_c, 10, 76, 108
10, 20220, Note_on_c, 10, 76, 0
10, 20280, Note_on_c, 10, 76, 108
10, 20340, Note_on_c, 10, 76, 0
10, 20400, Note_on_c, 10, 78, 108
10, 20460, Note_on_c, 10, 78, 0
10, 20520, Note_on_c, 10, 79, 108
10, 20640, Note_on_c, 10, 79, 0
10, 20760, Note_on_c, 10, 80, 108
10, 20760, Control_c, 10, 11, 102
10, 20820, Note_on_c, 10, 80, 0
10, 20880, Note_on_c, 10, 81, 108
10, 21000, Note_on_c, 10, 81, 0
10, 21120, Note_on_c, 10, 83, 108
10, 21180, Note_on_c, 10, 83, 0
10, 21240, Note_on_c, 10, 84, 108
10, 21360, Note_on_c, 10, 84, 0
10, 21480, Note_on_c, 10, 86, 108
10, 21540, Note_on_c, 10, 86, 0
10, 21600, Note_on_c, 10, 88, 108
10, 21660, Note_on_c, 10, 88, 0
10, 21720, Note_on_c, 10, 88, 108
10, 21780, Note_on_c, 10, 88, 0
10, 21840, Note_on_c, 10, 90, 108
10, 21900, Note_on_c, 10, 90, 0
10, 21960, Note_on_c, 10, 91, 108
10, 21960, Control_c, 10, 11, 122
10, 21977, Control_c, 10, 11, 119
10, 21995, Control_c, 10, 11, 116
10, 22013, Control_c, 10, 11, 113
10, 22031, Control_c, 10, 11, 110
10, 22049, Control_c, 10, 11, 107
10, 22067, Control_c, 10, 11, 104
10, 22080, Note_on_c, 10, 91, 0
10, 22200, Note_on_c, 10, 84, 108
10, 22260, Note_on_c, 10, 84, 0
10, 22320, Note_on_c, 10, 86, 108
10, 22380, Note_on_c, 10, 86, 0
10, 22440, Note_on_c, 10, 86, 108
10, 22500, Note_on_c, 10, 86, 0
10, 22560, Note_on_c, 10, 88, 108
10, 22620, Note_on_c, 10, 88, 0
10, 22680, Control_c, 10, 11, 122
10, 22680, Note_on_c, 10, 89, 108
10, 22697, Control_c, 10, 11, 119
10, 22715, Control_c, 10, 11, 116
10, 22733, Control_c, 10, 11, 113
10, 22751, Control_c, 10, 11, 110
10, 22769, Control_c, 10, 11, 107
10, 22787, Control_c, 10, 11, 104
10, 22800, Note_on_c, 10, 89, 0
10, 22920, Note_on_c, 10, 79, 108
10, 22980, Note_on_c, 10, 79, 0
10, 23040, Note_on_c, 10, 81, 108
10, 23100, Note_on_c, 10, 81, 0
10, 23160, Note_on_c, 10, 81, 108
10, 23220, Note_on_c, 10, 81, 0
10, 23280, Note_on_c, 10, 83, 108
10, 23340, Note_on_c, 10, 83, 0
10, 23400, Note_on_c, 10, 84, 108
10, 23400, Control_c, 10, 11, 122
10, 23417, Control_c, 10, 11, 119
10, 23435, Control_c, 10, 11, 116
10, 23453, Control_c, 10, 11, 113
10, 23471, Control_c, 10, 11, 110
10, 23489, Control_c, 10, 11, 107
10, 23507, Control_c, 10, 11, 104
10, 23520, Note_on_c, 10, 84, 0
10, 23640, Note_on_c, 10, 81, 108
10, 23700, Note_on_c, 10, 81, 0
10, 23760, Note_on_c, 10, 79, 108
10, 23880, Note_on_c, 10, 79, 0
10, 24000, Note_on_c, 10, 71, 108
10, 24060, Note_on_c, 10, 71, 0
10, 24120, Note_on_c, 10, 72, 108
10, 24240, Note_on_c, 10, 72, 0
10, 24360, Note_on_c, 10, 72, 88
10, 24420, Note_on_c, 10, 72, 0
10, 24480, Control_c, 10, 11, 122
10, 24480, Note_on_c, 10, 73, 88
10, 24503, Control_c, 10, 11, 120
10, 24527, Control_c, 10, 11, 118
10, 24551, Control_c, 10, 11, 116
10, 24575, Control_c, 10, 11, 114
10, 24599, Control_c, 10, 11, 112
10, 24623, Control_c, 10, 11, 110
10, 24647, Control_c, 10, 11, 108
10, 24671, Control_c, 10, 11, 106
10, 24695, Control_c, 10, 11, 104
10, 24719, Control_c, 10, 11, 102
10, 24720, Note_on_c, 10, 73, 0
10, 24720, Note_on_c, 10, 71, 88
10, 24840, Note_on_c, 10, 71, 0
10, 24840, Note_on_c, 10, 72, 88
10, 24900, Note_on_c, 10, 72, 0
10, 25080, Note_on_c, 10, 72, 88
10, 25140, Note_on_c, 10, 72, 0
10, 25200, Control_c, 10, 11, 122
10, 25200, Note_on_c, 10, 74, 88
10, 25223, Control_c, 10, 11, 120
10, 25247, Control_c, 10, 11, 118
10, 25271, Control_c, 10, 11, 116
10, 25295, Control_c, 10, 11, 114
10, 25319, Control_c, 10, 11, 112
10, 25343, Control_c, 10, 11, 110
10, 25367, Control_c, 10, 11, 108
10, 25391, Control_c, 10, 11, 106
10, 25415, Control_c, 10, 11, 104
10, 25439, Control_c, 10, 11, 102
10, 25440, Note_on_c, 10, 74, 0
10, 25440, Note_on_c, 10, 71, 88
10, 25540, Note_on_c, 10, 71, 0
10, 25560, Note_on_c, 10, 72, 88
10, 25620, Note_on_c, 10, 72, 0
10, 25680, Note_on_c, 10, 73, 88
10, 25680, Control_c, 10, 11, 122
10, 25697, Control_c, 10, 11, 119
10, 25715, Control_c, 10, 11, 116
10, 25733, Control_c, 10, 11, 113
10, 25751, Control_c, 10, 11, 110
10, 25769, Control_c, 10, 11, 107
10, 25787, Control_c, 10, 11, 104
10, 25800, Note_on_c, 10, 73, 0
10, 25800, Note_on_c, 10, 71, 88
10, 25900, Note_on_c, 10, 71, 0
10, 25920, Note_on_c, 10, 72, 88
10, 25980, Note_on_c, 10, 72, 0
10, 26040, Control_c, 10, 11, 122
10, 26040, Note_on_c, 10, 74, 88
10, 26057, Control_c, 10, 11, 119
10, 26075, Control_c, 10, 11, 116
10, 26093, Control_c, 10, 11, 113
10, 26111, Control_c, 10, 11, 110
10, 26129, Control_c, 10, 11, 107
10, 26147, Control_c, 10, 11, 104
10, 26160, Note_on_c, 10, 74, 0
10, 26160, Note_on_c, 10, 71, 88
10, 26260, Note_on_c, 10, 71, 0
10, 26280, Note_on_c, 10, 72, 88
10, 26340, Note_on_c, 10, 72, 0
10, 26400, Note_on_c, 10, 73, 88
10, 26400, Control_c, 10, 11, 122
10, 26417, Control_c, 10, 11, 119
10, 26435, Control_c, 10, 11, 116
10, 26453, Control_c, 10, 11, 113
10, 26471, Control_c, 10, 11, 110
10, 26489, Control_c, 10, 11, 107
10, 26507, Control_c, 10, 11, 104
10, 26520, Note_on_c, 10, 73, 0
10, 26520, Note_on_c, 10, 71, 88
10, 26620, Note_on_c, 10, 71, 0
10, 26640, Note_on_c, 10, 72, 88
10, 26700, Note_on_c, 10, 72, 0
10, 26760, Control_c, 10, 11, 122
10, 26760, Note_on_c, 10, 74, 88
10, 26777, Control_c, 10, 11, 119
10, 26795, Control_c, 10, 11, 116
10, 26813, Control_c, 10, 11, 113
10, 26831, Control_c, 10, 11, 110
10, 26849, Control_c, 10, 11, 107
10, 26867, Control_c, 10, 11, 104
10, 26880, Note_on_c, 10, 74, 0
10, 26880, Note_on_c, 10, 71, 88
10, 26883, Control_c, 10, 11, 101
10, 26893, Control_c, 10, 11, 98
10, 26903, Control_c, 10, 11, 95
10, 26914, Control_c, 10, 11, 92
10, 26924, Control_c, 10, 11, 89
10, 26934, Control_c, 10, 11, 86
10, 26944, Control_c, 10, 11, 83
10, 26954, Control_c, 10, 11, 80
10, 26965, Control_c, 10, 11, 77
10, 26975, Control_c, 10, 11, 74
10, 26980, Note_on_c, 10, 71, 0
10, 26985, Control_c, 10, 11, 71
10, 26995, Control_c, 10, 11, 68
10, 27000, Note_on_c, 10, 72, 108
10, 27000, Control_c, 10, 11, 47
10, 27060, Note_on_c, 10, 72, 0
10, 27120, Note_on_c, 10, 76, 108
10, 27180, Note_on_c, 10, 76, 0
10, 27240, Note_on_c, 10, 79, 108
10, 27450, Note_on_c, 10, 79, 0
10, 27480, Note_on_c, 10, 81, 108
10, 27540, Note_on_c, 10, 81, 0
10, 27600, Note_on_c, 10, 83, 108
10, 27810, Note_on_c, 10, 83, 0
10, 27840, Note_on_c, 10, 84, 108
10, 27900, Note_on_c, 10, 84, 0
10, 27960, Note_on_c, 10, 79, 108
10, 28170, Note_on_c, 10, 79, 0
10, 28200, Note_on_c, 10, 77, 108
10, 28260, Note_on_c, 10, 77, 0
10, 28320, Note_on_c, 10, 74, 108
10, 28380, Note_on_c, 10, 74, 0
10, 28440, Note_on_c, 10, 72, 108
10, 28440, Control_c, 10, 11, 47
10, 28476, Control_c, 10, 11, 48
10, 28500, Note_on_c, 10, 72, 0
10, 28512, Control_c, 10, 11, 49
10, 28548, Control_c, 10, 11, 50
10, 28560, Note_on_c, 10, 76, 108
10, 28584, Control_c, 10, 11, 51
10, 28620, Note_on_c, 10, 76, 0
10, 28620, Control_c, 10, 11, 52
10, 28656, Control_c, 10, 11, 53
10, 28680, Note_on_c, 10, 79, 108
10, 28692, Control_c, 10, 11, 54
10, 28728, Control_c, 10, 11, 55
10, 28764, Control_c, 10, 11, 56
10, 28800, Control_c, 10, 11, 57
10, 28836, Control_c, 10, 11, 58
10, 28872, Control_c, 10, 11, 59
10, 28890, Note_on_c, 10, 79, 0
10, 28908, Control_c, 10, 11, 60
10, 28920, Note_on_c, 10, 81, 108
10, 28944, Control_c, 10, 11, 61
10, 28980, Note_on_c, 10, 81, 0
10, 28980, Control_c, 10, 11, 62
10, 29016, Control_c, 10, 11, 63
10, 29040, Note_on_c, 10, 83, 108
10, 29052, Control_c, 10, 11, 64
10, 29088, Control_c, 10, 11, 65
10, 29124, Control_c, 10, 11, 66
10, 29160, Control_c, 10, 11, 67
10, 29196, Control_c, 10, 11, 68
10, 29232, Control_c, 10, 11, 69
10, 29250, Note_on_c, 10, 83, 0
10, 29268, Control_c, 10, 11, 70
10, 29280, Note_on_c, 10, 84, 108
10, 29304, Control_c, 10, 11, 71
10, 29340, Note_on_c, 10, 84, 0
10, 29340, Control_c, 10, 11, 72
10, 29376, Control_c, 10, 11, 73
10, 29400, Note_on_c, 10, 79, 108
10, 29412, Control_c, 10, 11, 74
10, 29448, Control_c, 10, 11, 75
10, 29484, Control_c, 10, 11, 76
10, 29520, Control_c, 10, 11, 77
10, 29556, Control_c, 10, 11, 78
10, 29592, Control_c, 10, 11, 79
10, 29610, Note_on_c, 10, 79, 0
10, 29628, Control_c, 10, 11, 80
10, 29640, Note_on_c, 10, 77, 108
10, 29664, Control_c, 10, 11, 81
10, 29700, Note_on_c, 10, 77, 0
10, 29700, Control_c, 10, 11, 82
10, 29736, Control_c, 10, 11, 83
10, 29760, Note_on_c, 10, 74, 108
10, 29772, Control_c, 10, 11, 84
10, 29808, Control_c, 10, 11, 85
10, 29820, Note_on_c, 10, 74, 0
10, 29844, Control_c, 10, 11, 86
10, 29880, Note_on_c, 10, 72, 108
10, 29880, Control_c, 10, 11, 87
10, 29940, Note_on_c, 10, 72, 0
10, 30000, Note_on_c, 10, 76, 108
10, 30060, Note_on_c, 10, 76, 0
10, 30120, Control_c, 10, 11, 107
10, 30120, Note_on_c, 10, 79, 108
10, 30138, Control_c, 10, 11, 104
10, 30156, Control_c, 10, 11, 101
10, 30174, Control_c, 10, 11, 98
10, 30192, Control_c, 10, 11, 95
10, 30210, Control_c, 10, 11, 92
10, 30228, Control_c, 10, 11, 89
10, 30330, Note_on_c, 10, 79, 0
10, 30360, Note_on_c, 10, 77, 108
10, 30420, Note_on_c, 10, 77, 0
10, 30480, Note_on_c, 10, 74, 108
10, 30540, Note_on_c, 10, 74, 0
10, 30600, Note_on_c, 10, 72, 108
10, 30600, Control_c, 10, 11, 102
10, 30660, Note_on_c, 10, 72, 0
10, 30720, Note_on_c, 10, 76, 108
10, 30780, Note_on_c, 10, 76, 0
10, 30840, Note_on_c, 10, 79, 108
10, 30840, Control_c, 10, 11, 122
10, 30858, Control_c, 10, 11, 119
10, 30876, Control_c, 10, 11, 116
10, 30894, Control_c, 10, 11, 113
10, 30912, Control_c, 10, 11, 110
10, 30930, Control_c, 10, 11, 107
10, 30948, Control_c, 10, 11, 104
10, 31050, Note_on_c, 10, 79, 0
10, 31080, Note_on_c, 10, 81, 108
10, 31140, Note_on_c, 10, 81, 0
10, 31200, Note_on_c, 10, 83, 108
10, 31260, Note_on_c, 10, 83, 0
10, 31320, Note_on_c, 10, 84, 108
10, 31380, Note_on_c, 10, 84, 0
10, 31440, Note_on_c, 10, 79, 108
10, 31500, Note_on_c, 10, 79, 0
10, 31560, Note_on_c, 10, 76, 108
10, 31620, Note_on_c, 10, 76, 0
10, 31680, Note_on_c, 10, 72, 108
10, 31740, Note_on_c, 10, 72, 0
10, 31920, Control_c, 10, 11, 47
10, 31920, Note_on_c, 10, 79, 118
10, 31980, Note_on_c, 10, 79, 0
10, 32040, Note_on_c, 10, 80, 108
10, 32280, Note_on_c, 10, 80, 0
10, 32280, Note_on_c, 10, 79, 108
10, 32370, Note_on_c, 10, 79, 0
10, 32400, Note_on_c, 10, 80, 108
10, 32640, Note_on_c, 10, 80, 0
10, 32640, Note_on_c, 10, 79, 108
10, 32730, Note_on_c, 10, 79, 0
10, 32760, Note_on_c, 10, 80, 108
10, 32820, Note_on_c, 10, 80, 0
10, 32880, Control_c, 10, 11, 87
10, 32880, Note_on_c, 10, 80, 108
10, 32940, Note_on_c, 10, 80, 0
10, 33000, Note_on_c, 10, 80, 108
10, 33060, Note_on_c, 10, 80, 0
10, 33120, Note_on_c, 10, 80, 108
10, 33240, Note_on_c, 10, 80, 0
10, 33240, Note_on_c, 10, 79, 108
10, 33330, Note_on_c, 10, 79, 0
10, 33330, Control_c, 10, 11, 87
10, 33334, Control_c, 10, 11, 84
10, 33339, Control_c, 10, 11, 81
10, 33343, Control_c, 10, 11, 78
10, 33348, Control_c, 10, 11, 75
10, 33352, Control_c, 10, 11, 72
10, 33357, Control_c, 10, 11, 69
10, 33360, Note_on_c, 10, 75, 118
10, 33420, Note_on_c, 10, 75, 0
10, 33480, Control_c, 10, 11, 47
10, 33480, Note_on_c, 10, 77, 108
10, 33720, Note_on_c, 10, 77, 0
10, 33720, Note_on_c, 10, 75, 108
10, 33810, Note_on_c, 10, 75, 0
10, 33840, Note_on_c, 10, 77, 108
10, 34080, Note_on_c, 10, 77, 0
10, 34080, Note_on_c, 10, 75, 108
10, 34170, Note_on_c, 10, 75, 0
10, 34200, Note_on_c, 10, 77, 108
10, 34260, Note_on_c, 10, 77, 0
10, 34320, Note_on_c, 10, 77, 108
10, 34320, Control_c, 10, 11, 87
10, 34380, Note_on_c, 10, 77, 0
10, 34440, Note_on_c, 10, 77, 108
10, 34500, Note_on_c, 10, 77, 0
10, 34560, Note_on_c, 10, 77, 108
10, 34680, Note_on_c, 10, 77, 0
10, 34680, Note_on_c, 10, 75, 108
10, 34770, Note_on_c, 10, 75, 0
10, 34800, Note_on_c, 10, 72, 101
10, 34860, Note_on_c, 10, 72, 0
10, 34920, Note_on_c, 10, 73, 93
10, 34980, Note_on_c, 10, 73, 0
10, 35040, Note_on_c, 10, 73, 108
10, 35100, Note_on_c, 10, 73, 0
10, 35160, Note_on_c, 10, 73, 108
10, 35220, Note_on_c, 10, 73, 0
10, 35280, Note_on_c, 10, 73, 108
10, 35400, Note_on_c, 10, 73, 0
10, 35400, Note_on_c, 10, 72, 108
10, 35490, Note_on_c, 10, 72, 0
10, 35520, Note_on_c, 10, 68, 101
10, 35580, Note_on_c, 10, 68, 0
10, 35640, Control_c, 10, 11, 102
10, 35640, Note_on_c, 10, 70, 93
10, 35700, Note_on_c, 10, 70, 0
10, 35760, Note_on_c, 10, 70, 108
10, 35820, Note_on_c, 10, 70, 0
10, 35880, Note_on_c, 10, 70, 108
10, 35940, Note_on_c, 10, 70, 0
10, 36000, Note_on_c, 10, 70, 108
10, 36060, Note_on_c, 10, 70, 0
10, 36120, Note_on_c, 10, 70, 108
10, 36180, Note_on_c, 10, 70, 0
10, 36240, Note_on_c, 10, 70, 108
10, 36300, Note_on_c, 10, 70, 0
10, 36360, Control_c, 10, 11, 122
10, 36360, Note_on_c, 10, 70, 108
10, 36377, Control_c, 10, 11, 119
10, 36395, Control_c, 10, 11, 116
10, 36413, Control_c, 10, 11, 113
10, 36431, Control_c, 10, 11, 110
10, 36449, Control_c, 10, 11, 107
10, 36467, Control_c, 10, 11, 104
10, 36480, Note_on_c, 10, 70, 0
10, 36480, Note_on_c, 10, 68, 108
10, 36570, Note_on_c, 10, 68, 0
10, 36600, Note_on_c, 10, 65, 108
10, 36660, Note_on_c, 10, 65, 0
10, 36720, Note_on_c, 10, 68, 108
10, 36720, Control_c, 10, 11, 122
10, 36737, Control_c, 10, 11, 119
10, 36755, Control_c, 10, 11, 116
10, 36773, Control_c, 10, 11, 113
10, 36791, Control_c, 10, 11, 110
10, 36809, Control_c, 10, 11, 107
10, 36827, Control_c, 10, 11, 104
10, 36840, Note_on_c, 10, 68, 0
10, 36840, Note_on_c, 10, 66, 108
10, 36930, Note_on_c, 10, 66, 0
10, 36960, Note_on_c, 10, 63, 108
10, 37020, Note_on_c, 10, 63, 0
10, 37080, Control_c, 10, 11, 122
10, 37080, Note_on_c, 10, 66, 108
10, 37097, Control_c, 10, 11, 119
10, 37115, Control_c, 10, 11, 116
10, 37133, Control_c, 10, 11, 113
10, 37151, Control_c, 10, 11, 110
10, 37169, Control_c, 10, 11, 107
10, 37187, Control_c, 10, 11, 104
10, 37200, Note_on_c, 10, 66, 0
10, 37200, Note_on_c, 10, 65, 108
10, 37290, Note_on_c, 10, 65, 0
10, 37320, Note_on_c, 10, 61, 108
10, 37380, Note_on_c, 10, 61, 0
10, 37440, Note_on_c, 10, 65, 108
10, 37440, Control_c, 10, 11, 122
10, 37457, Control_c, 10, 11, 119
10, 37475, Control_c, 10, 11, 116
10, 37493, Control_c, 10, 11, 113
10, 37511, Control_c, 10, 11, 110
10, 37529, Control_c, 10, 11, 107
10, 37547, Control_c, 10, 11, 104
10, 37560, Note_on_c, 10, 65, 0
10, 37560, Note_on_c, 10, 63, 108
10, 37650, Note_on_c, 10, 63, 0
10, 37680, Note_on_c, 10, 60, 108
10, 37740, Note_on_c, 10, 60, 0
10, 37800, Note_on_c, 10, 61, 72
10, 37800, Control_c, 10, 11, 122
10, 37818, Control_c, 10, 11, 119
10, 37836, Control_c, 10, 11, 116
10, 37854, Control_c, 10, 11, 113
10, 37872, Control_c, 10, 11, 110
10, 37890, Control_c, 10, 11, 107
10, 37908, Control_c, 10, 11, 104
10, 37920, Note_on_c, 10, 61, 0
10, 38040, Note_on_c, 10, 78, 87
10, 38040, Control_c, 10, 11, 47
10, 38100, Note_on_c, 10, 78, 0
10, 38160, Note_on_c, 10, 78, 80
10, 38220, Note_on_c, 10, 78, 0
10, 38280, Note_on_c, 10, 78, 80
10, 38340, Note_on_c, 10, 78, 0
10, 38400, Note_on_c, 10, 78, 80
10, 38460, Note_on_c, 10, 78, 0
10, 38520, Note_on_c, 10, 78, 80
10, 38640, Note_on_c, 10, 78, 0
10, 38640, Note_on_c, 10, 77, 80
10, 38730, Note_on_c, 10, 77, 0
10, 38760, Note_on_c, 10, 75, 87
10, 38820, Note_on_c, 10, 75, 0
10, 38880, Note_on_c, 10, 75, 80
10, 38940, Note_on_c, 10, 75, 0
10, 39000, Note_on_c, 10, 75, 80
10, 39060, Note_on_c, 10, 75, 0
10, 39120, Note_on_c, 10, 75, 80
10, 39180, Note_on_c, 10, 75, 0
10, 39240, Note_on_c, 10, 75, 80
10, 39360, Note_on_c, 10, 75, 0
10, 39360, Note_on_c, 10, 73, 80
10, 39450, Note_on_c, 10, 73, 0
10, 39480, Note_on_c, 10, 78, 87
10, 39540, Note_on_c, 10, 78, 0
10, 39600, Note_on_c, 10, 78, 80
10, 39660, Note_on_c, 10, 78, 0
10, 39720, Note_on_c, 10, 78, 80
10, 39780, Note_on_c, 10, 78, 0
10, 39840, Note_on_c, 10, 78, 80
10, 39900, Note_on_c, 10, 78, 0
10, 39960, Note_on_c, 10, 78, 80
10, 40080, Note_on_c, 10, 78, 0
10, 40080, Note_on_c, 10, 77, 80
10, 40170, Note_on_c, 10, 77, 0
10, 40200, Note_on_c, 10, 75, 87
10, 40260, Note_on_c, 10, 75, 0
10, 40320, Note_on_c, 10, 75, 80
10, 40380, Note_on_c, 10, 75, 0
10, 40440, Note_on_c, 10, 75, 80
10, 40500, Note_on_c, 10, 75, 0
10, 40560, Note_on_c, 10, 75, 80
10, 40620, Note_on_c, 10, 75, 0
10, 40680, Note_on_c, 10, 73, 80
10, 40770, Note_on_c, 10, 73, 0
10, 40770, Control_c, 10, 11, 47
10, 40776, Control_c, 10, 11, 44
10, 40782, Control_c, 10, 11, 41
10, 40788, Control_c, 10, 11, 38
10, 40794, Control_c, 10, 11, 35
10, 40800, Control_c, 10, 11, 32
10, 40800, Note_on_c, 10, 65, 108
10, 40890, Note_on_c, 10, 65, 0
10, 40920, Note_on_c, 10, 65, 108
10, 41010, Note_on_c, 10, 65, 0
10, 41040, Note_on_c, 10, 65, 108
10, 41130, Note_on_c, 10, 65, 0
10, 41160, Note_on_c, 10, 65, 108
10, 41250, Note_on_c, 10, 65, 0
10, 41280, Note_on_c, 10, 65, 108
10, 41370, Note_on_c, 10, 65, 0
10, 41400, Note_on_c, 10, 65, 108
10, 41490, Note_on_c, 10, 65, 0
10, 41520, Note_on_c, 10, 65, 108
10, 41610, Note_on_c, 10, 65, 0
10, 41640, Note_on_c, 10, 65, 108
10, 41730, Note_on_c, 10, 65, 0
10, 41760, Note_on_c, 10, 65, 108
10, 41850, Note_on_c, 10, 65, 0
10, 41880, Note_on_c, 10, 65, 108
10, 41970, Note_on_c, 10, 65, 0
10, 42000, Note_on_c, 10, 65, 108
10, 42090, Note_on_c, 10, 65, 0
10, 42120, Note_on_c, 10, 66, 108
10, 42210, Note_on_c, 10, 66, 0
10, 42240, Note_on_c, 10, 66, 108
10, 42330, Note_on_c, 10, 66, 0
10, 42360, Note_on_c, 10, 66, 108
10, 42450, Note_on_c, 10, 66, 0
10, 42480, Note_on_c, 10, 66, 108
10, 42570, Note_on_c, 10, 66, 0
10, 42600, Note_on_c, 10, 66, 108
10, 42690, Note_on_c, 10, 66, 0
10, 42720, Note_on_c, 10, 66, 108
10, 42810, Note_on_c, 10, 66, 0
10, 42840, Note_on_c, 10, 66, 108
10, 42930, Note_on_c, 10, 66, 0
10, 42960, Note_on_c, 10, 66, 108
10, 43050, Note_on_c, 10, 66, 0
10, 43080, Note_on_c, 10, 66, 108
10, 43170, Note_on_c, 10, 66, 0
10, 43200, Note_on_c, 10, 66, 108
10, 43290, Note_on_c, 10, 66, 0
10, 43320, Note_on_c, 10, 66, 108
10, 43410, Note_on_c, 10, 66, 0
10, 43440, Note_on_c, 10, 66, 108
10, 43530, Note_on_c, 10, 66, 0
10, 43560, Control_c, 10, 11, 37
10, 43560, Note_on_c, 10, 67, 108
10, 43586, Control_c, 10, 11, 38
10, 43612, Control_c, 10, 11, 39
10, 43639, Control_c, 10, 11, 40
10, 43650, Note_on_c, 10, 67, 0
10, 43665, Control_c, 10, 11, 41
10, 43680, Note_on_c, 10, 67, 108
10, 43692, Control_c, 10, 11, 42
10, 43718, Control_c, 10, 11, 43
10, 43744, Control_c, 10, 11, 44
10, 43770, Note_on_c, 10, 67, 0
10, 43771, Control_c, 10, 11, 45
10, 43797, Control_c, 10, 11, 46
10, 43800, Note_on_c, 10, 67, 108
10, 43824, Control_c, 10, 11, 47
10, 43850, Control_c, 10, 11, 48
10, 43876, Control_c, 10, 11, 49
10, 43890, Note_on_c, 10, 67, 0
10, 43903, Control_c, 10, 11, 50
10, 43920, Note_on_c, 10, 67, 108
10, 43929, Control_c, 10, 11, 51
10, 43956, Control_c, 10, 11, 52
10, 43982, Control_c, 10, 11, 53
10, 44008, Control_c, 10, 11, 54
10, 44010, Note_on_c, 10, 67, 0
10, 44035, Control_c, 10, 11, 55
10, 44040, Note_on_c, 10, 67, 108
10, 44061, Control_c, 10, 11, 56
10, 44088, Control_c, 10, 11, 57
10, 44114, Control_c, 10, 11, 58
10, 44130, Note_on_c, 10, 67, 0
10, 44140, Control_c, 10, 11, 59
10, 44160, Note_on_c, 10, 67, 108
10, 44167, Control_c, 10, 11, 60
10, 44193, Control_c, 10, 11, 61
10, 44220, Control_c, 10, 11, 62
10, 44246, Control_c, 10, 11, 63
10, 44250, Note_on_c, 10, 67, 0
10, 44272, Control_c, 10, 11, 64
10, 44280, Note_on_c, 10, 67, 108
10, 44299, Control_c, 10, 11, 65
10, 44325, Control_c, 10, 11, 66
10, 44352, Control_c, 10, 11, 67
10, 44370, Note_on_c, 10, 67, 0
10, 44378, Control_c, 10, 11, 68
10, 44400, Note_on_c, 10, 67, 108
10, 44404, Control_c, 10, 11, 69
10, 44431, Control_c, 10, 11, 70
10, 44457, Control_c, 10, 11, 71
10, 44484, Control_c, 10, 11, 72
10, 44490, Note_on_c, 10, 67, 0
10, 44510, Control_c, 10, 11, 73
10, 44520, Note_on_c, 10, 67, 108
10, 44536, Control_c, 10, 11, 74
10, 44563, Control_c, 10, 11, 75
10, 44589, Control_c, 10, 11, 76
10, 44610, Note_on_c, 10, 67, 0
10, 44616, Control_c, 10, 11, 77
10, 44640, Note_on_c, 10, 67, 108
10, 44642, Control_c, 10, 11, 78
10, 44668, Control_c, 10, 11, 79
10, 44695, Control_c, 10, 11, 80
10, 44721, Control_c, 10, 11, 81
10, 44730, Note_on_c, 10, 67, 0
10, 44748, Control_c, 10, 11, 82
10, 44760, Note_on_c, 10, 67, 108
10, 44774, Control_c, 10, 11, 83
10, 44800, Control_c, 10, 11, 84
10, 44827, Control_c, 10, 11, 85
10, 44850, Note_on_c, 10, 67, 0
10, 44853, Control_c, 10, 11, 86
10, 44880, Note_on_c, 10, 67, 108
10, 44880, Control_c, 10, 11, 87
10, 44940, Note_on_c, 10, 67, 0
10, 45000, Note_on_c, 10, 69, 108
10, 45120, Note_on_c, 10, 69, 0
10, 45240, Note_on_c, 10, 71, 108
10, 45300, Note_on_c, 10, 71, 0
10, 45360, Note_on_c, 10, 72, 108
10, 45480, Note_on_c, 10, 72, 0
10, 45600, Note_on_c, 10, 74, 108
10, 45660, Note_on_c, 10, 74, 0
10, 45720, Note_on_c, 10, 76, 108
10, 45780, Note_on_c, 10, 76, 0
10, 45840, Note_on_c, 10, 76, 108
10, 45900, Note_on_c, 10, 76, 0
10, 45960, Note_on_c, 10, 78, 108
10, 46020, Note_on_c, 10, 78, 0
10, 46080, Note_on_c, 10, 79, 108
10, 46200, Note_on_c, 10, 79, 0
10, 46320, Control_c, 10, 11, 102
10, 46320, Note_on_c, 10, 80, 108
10, 46380, Note_on_c, 10, 80, 0
10, 46440, Note_on_c, 10, 81, 108
10, 46560, Note_on_c, 10, 81, 0
10, 46680, Note_on_c, 10, 83, 108
10, 46740, Note_on_c, 10, 83, 0
10, 46800, Note_on_c, 10, 84, 108
10, 46920, Note_on_c, 10, 84, 0
10, 47040, Note_on_c, 10, 86, 108
10, 47100, Note_on_c, 10, 86, 0
10, 47160, Note_on_c, 10, 88, 108
10, 47220, Note_on_c, 10, 88, 0
10, 47280, Note_on_c, 10, 88, 108
10, 47340, Note_on_c, 10, 88, 0
10, 47400, Note_on_c, 10, 90, 108
10, 47460, Note_on_c, 10, 90, 0
10, 47520, Control_c, 10, 11, 122
10, 47520, Note_on_c, 10, 91, 108
10, 47537, Control_c, 10, 11, 119
10, 47555, Control_c, 10, 11, 116
10, 47573, Control_c, 10, 11, 113
10, 47591, Control_c, 10, 11, 110
10, 47609, Control_c, 10, 11, 107
10, 47627, Control_c, 10, 11, 104
10, 47640, Note_on_c, 10, 91, 0
10, 47760, Note_on_c, 10, 84, 108
10, 47820, Note_on_c, 10, 84, 0
10, 47880, Note_on_c, 10, 86, 108
10, 47940, Note_on_c, 10, 86, 0
10, 48000, Note_on_c, 10, 86, 108
10, 48060, Note_on_c, 10, 86, 0
10, 48120, Note_on_c, 10, 88, 108
10, 48180, Note_on_c, 10, 88, 0
10, 48240, Note_on_c, 10, 89, 108
10, 48240, Control_c, 10, 11, 122
10, 48257, Control_c, 10, 11, 119
10, 48275, Control_c, 10, 11, 116
10, 48293, Control_c, 10, 11, 113
10, 48311, Control_c, 10, 11, 110
10, 48329, Control_c, 10, 11, 107
10, 48347, Control_c, 10, 11, 104
10, 48360, Note_on_c, 10, 89, 0
10, 48480, Note_on_c, 10, 79, 108
10, 48540, Note_on_c, 10, 79, 0
10, 48600, Note_on_c, 10, 81, 108
10, 48660, Note_on_c, 10, 81, 0
10, 48720, Note_on_c, 10, 81, 108
10, 48780, Note_on_c, 10, 81, 0
10, 48840, Note_on_c, 10, 83, 108
10, 48900, Note_on_c, 10, 83, 0
10, 48960, Note_on_c, 10, 84, 108
10, 48960, Control_c, 10, 11, 122
10, 48977, Control_c, 10, 11, 119
10, 48995, Control_c, 10, 11, 116
10, 49013, Control_c, 10, 11, 113
10, 49031, Control_c, 10, 11, 110
10, 49049, Control_c, 10, 11, 107
10, 49067, Control_c, 10, 11, 104
10, 49080, Note_on_c, 10, 84, 0
10, 49200, Note_on_c, 10, 81, 108
10, 49260, Note_on_c, 10, 81, 0
10, 49320, Note_on_c, 10, 79, 108
10, 49440, Note_on_c, 10, 79, 0
10, 49560, Note_on_c, 10, 71, 108
10, 49620, Note_on_c, 10, 71, 0
10, 49680, Note_on_c, 10, 72, 108
10, 49800, Note_on_c, 10, 72, 0
10, 49920, Note_on_c, 10, 72, 88
10, 49980, Note_on_c, 10, 72, 0
10, 50040, Note_on_c, 10, 73, 88
10, 50040, Control_c, 10, 11, 122
10, 50063, Control_c, 10, 11, 120
10, 50087, Control_c, 10, 11, 118
10, 50111, Control_c, 10, 11, 116
10, 50135, Control_c, 10, 11, 114
10, 50159, Control_c, 10, 11, 112
10, 50183, Control_c, 10, 11, 110
10, 50207, Control_c, 10, 11, 108
10, 50231, Control_c, 10, 11, 106
10, 50255, Control_c, 10, 11, 104
10, 50279, Control_c, 10, 11, 102
10, 50280, Note_on_c, 10, 73, 0
10, 50280, Note_on_c, 10, 71, 88
10, 50400, Note_on_c, 10, 71, 0
10, 50400, Note_on_c, 10, 72, 88
10, 50460, Note_on_c, 10, 72, 0
10, 50640, Note_on_c, 10, 72, 88
10, 50700, Note_on_c, 10, 72, 0
10, 50760, Control_c, 10, 11, 122
10, 50760, Note_on_c, 10, 74, 88
10, 50783, Control_c, 10, 11, 120
10, 50807, Control_c, 10, 11, 118
10, 50831, Control_c, 10, 11, 116
10, 50855, Control_c, 10, 11, 114
10, 50879, Control_c, 10, 11, 112
10, 50903, Control_c, 10, 11, 110
10, 50927, Control_c, 10, 11, 108
10, 50951, Control_c, 10, 11, 106
10, 50975, Control_c, 10, 11, 104
10, 50999, Control_c, 10, 11, 102
10, 51000, Note_on_c, 10, 74, 0
10, 51000, Note_on_c, 10, 71, 88
10, 51100, Note_on_c, 10, 71, 0
10, 51120, Note_on_c, 10, 72, 88
10, 51180, Note_on_c, 10, 72, 0
10, 51240, Note_on_c, 10, 73, 88
10, 51240, Control_c, 10, 11, 122
10, 51257, Control_c, 10, 11, 119
10, 51275, Control_c, 10, 11, 116
10, 51293, Control_c, 10, 11, 113
10, 51311, Control_c, 10, 11, 110
10, 51329, Control_c, 10, 11, 107
10, 51347, Control_c, 10, 11, 104
10, 51360, Note_on_c, 10, 73, 0
10, 51360, Note_on_c, 10, 71, 88
10, 51460, Note_on_c, 10, 71, 0
10, 51480, Note_on_c, 10, 72, 88
10, 51540, Note_on_c, 10, 72, 0
10, 51600, Note_on_c, 10, 74, 88
10, 51600, Control_c, 10, 11, 122
10, 51617, Control_c, 10, 11, 119
10, 51635, Control_c, 10, 11, 116
10, 51653, Control_c, 10, 11, 113
10, 51671, Control_c, 10, 11, 110
10, 51689, Control_c, 10, 11, 107
10, 51707, Control_c, 10, 11, 104
10, 51720, Note_on_c, 10, 74, 0
10, 51720, Note_on_c, 10, 71, 88
10, 51820, Note_on_c, 10, 71, 0
10, 51840, Note_on_c, 10, 72, 88
10, 51900, Note_on_c, 10, 72, 0
10, 51960, Note_on_c, 10, 73, 88
10, 51960, Control_c, 10, 11, 122
10, 51977, Control_c, 10, 11, 119
10, 51995, Control_c, 10, 11, 116
10, 52013, Control_c, 10, 11, 113
10, 52031, Control_c, 10, 11, 110
10, 52049, Control_c, 10, 11, 107
10, 52067, Control_c, 10, 11, 104
10, 52080, Note_on_c, 10, 73, 0
10, 52080, Note_on_c, 10, 71, 88
10, 52180, Note_on_c, 10, 71, 0
10, 52200, Note_on_c, 10, 72, 88
10, 52260, Note_on_c, 10, 72, 0
10, 52320, Control_c, 10, 11, 122
10, 52320, Note_on_c, 10, 74, 88
10, 52337, Control_c, 10, 11, 119
10, 52355, Control_c, 10, 11, 116
10, 52373, Control_c, 10, 11, 113
10, 52391, Control_c, 10, 11, 110
10, 52409, Control_c, 10, 11, 107
10, 52427, Control_c, 10, 11, 104
10, 52440, Note_on_c, 10, 74, 0
10, 52440, Note_on_c, 10, 71, 88
10, 52443, Control_c, 10, 11, 101
10, 52453, Control_c, 10, 11, 98
10, 52463, Control_c, 10, 11, 95
10, 52474, Control_c, 10, 11, 92
10, 52484, Control_c, 10, 11, 89
10, 52494, Control_c, 10, 11, 86
10, 52504, Control_c, 10, 11, 83
10, 52514, Control_c, 10, 11, 80
10, 52525, Control_c, 10, 11, 77
10, 52535, Control_c, 10, 11, 74
10, 52540, Note_on_c, 10, 71, 0
10, 52545, Control_c, 10, 11, 71
10, 52555, Control_c, 10, 11, 68
10, 52560, Note_on_c, 10, 72, 108
10, 52560, Control_c, 10, 11, 47
10, 52620, Note_on_c, 10, 72, 0
10, 52680, Note_on_c, 10, 76, 108
10, 52740, Note_on_c, 10, 76, 0
10, 52800, Note_on_c, 10, 79, 108
10, 53010, Note_on_c, 10, 79, 0
10, 53040, Note_on_c, 10, 81, 108
10, 53100, Note_on_c, 10, 81, 0
10, 53160, Note_on_c, 10, 83, 108
10, 53370, Note_on_c, 10, 83, 0
10, 53400, Note_on_c, 10, 84, 108
10, 53460, Note_on_c, 10, 84, 0
10, 53520, Note_on_c, 10, 79, 108
10, 53730, Note_on_c, 10, 79, 0
10, 53760, Note_on_c, 10, 77, 108
10, 53820, Note_on_c, 10, 77, 0
10, 53880, Note_on_c, 10, 74, 108
10, 53940, Note_on_c, 10, 74, 0
10, 54000, Control_c, 10, 11, 47
10, 54000, Note_on_c, 10, 72, 108
10, 54036, Control_c, 10, 11, 48
10, 54060, Note_on_c, 10, 72, 0
10, 54072, Control_c, 10, 11, 49
10, 54108, Control_c, 10, 11, 50
10, 54120, Note_on_c, 10, 76, 108
10, 54144, Control_c, 10, 11, 51
10, 54180, Note_on_c, 10, 76, 0
10, 54180, Control_c, 10, 11, 52
10, 54216, Control_c, 10, 11, 53
10, 54240, Note_on_c, 10, 79, 108
10, 54252, Control_c, 10, 11, 54
10, 54288, Control_c, 10, 11, 55
10, 54324, Control_c, 10, 11, 56
10, 54360, Control_c, 10, 11, 57
10, 54396, Control_c, 10, 11, 58
10, 54432, Control_c, 10, 11, 59
10, 54450, Note_on_c, 10, 79, 0
10, 54468, Control_c, 10, 11, 60
10, 54480, Note_on_c, 10, 81, 108
10, 54504, Control_c, 10, 11, 61
10, 54540, Note_on_c, 10, 81, 0
10, 54540, Control_c, 10, 11, 62
10, 54576, Control_c, 10, 11, 63
10, 54600, Note_on_c, 10, 83, 108
10, 54612, Control_c, 10, 11, 64
10, 54648, Control_c, 10, 11, 65
10, 54684, Control_c, 10, 11, 66
10, 54720, Control_c, 10, 11, 67
10, 54756, Control_c, 10, 11, 68
10, 54792, Control_c, 10, 11, 69
10, 54810, Note_on_c, 10, 83, 0
10, 54828, Control_c, 10, 11, 70
10, 54840, Note_on_c, 10, 84, 108
10, 54864, Control_c, 10, 11, 71
10, 54900, Note_on_c, 10, 84, 0
10, 54900, Control_c, 10, 11, 72
10, 54936, Control_c, 10, 11, 73
10, 54960, Note_on_c, 10, 79, 108
10, 54972, Control_c, 10, 11, 74
10, 55008, Control_c, 10, 11, 75
10, 55044, Control_c, 10, 11, 76
10, 55080, Control_c, 10, 11, 77
10, 55116, Control_c, 10, 11, 78
10, 55152, Control_c, 10, 11, 79
10, 55170, Note_on_c, 10, 79, 0
10, 55188, Control_c, 10, 11, 80
10, 55200, Note_on_c, 10, 77, 108
10, 55224, Control_c, 10, 11, 81
10, 55260, Note_on_c, 10, 77, 0
10, 55260, Control_c, 10, 11, 82
10, 55296, Control_c, 10, 11, 83
10, 55320, Note_on_c, 10, 74, 108
10, 55332, Control_c, 10, 11, 84
10, 55368, Control_c, 10, 11, 85
10, 55380, Note_on_c, 10, 74, 0
10, 55404, Control_c, 10, 11, 86
10, 55440, Note_on_c, 10, 72, 108
10, 55440, Control_c, 10, 11, 87
10, 55500, Note_on_c, 10, 72, 0
10, 55560, Note_on_c, 10, 76, 108
10, 55620, Note_on_c, 10, 76, 0
10, 55680, Control_c, 10, 11, 107
10, 55680, Note_on_c, 10, 79, 108
10, 55698, Control_c, 10, 11, 104
10, 55716, Control_c, 10, 11, 101
10, 55734, Control_c, 10, 11, 98
10, 55752, Control_c, 10, 11, 95
10, 55770, Control_c, 10, 11, 92
10, 55788, Control_c, 10, 11, 89
10, 55890, Note_on_c, 10, 79, 0
10, 55920, Note_on_c, 10, 77, 108
10, 55980, Note_on_c, 10, 77, 0
10, 56040, Note_on_c, 10, 74, 108
10, 56100, Note_on_c, 10, 74, 0
10, 56160, Note_on_c, 10, 72, 108
10, 56160, Control_c, 10, 11, 102
10, 56220, Note_on_c, 10, 72, 0
10, 56280, Note_on_c, 10, 76, 108
10, 56340, Note_on_c, 10, 76, 0
10, 56400, Control_c, 10, 11, 122
10, 56400, Note_on_c, 10, 79, 108
10, 56418, Control_c, 10, 11, 119
10, 56436, Control_c, 10, 11, 116
10, 56454, Control_c, 10, 11, 113
10, 56472, Control_c, 10, 11, 110
10, 56490, Control_c, 10, 11, 107
10, 56508, Control_c, 10, 11, 104
10, 56610, Note_on_c, 10, 79, 0
10, 56640, Note_on_c, 10, 81, 108
10, 56700, Note_on_c, 10, 81, 0
10, 56760, Note_on_c, 10, 83, 108
10, 56820, Note_on_c, 10, 83, 0
10, 56880, Note_on_c, 10, 84, 108
10, 56940, Note_on_c, 10, 84, 0
10, 57000, Note_on_c, 10, 79, 108
10, 57060, Note_on_c, 10, 79, 0
10, 57120, Note_on_c, 10, 76, 108
10, 57180, Note_on_c, 10, 76, 0
10, 57240, Note_on_c, 10, 72, 108
10, 57300, Note_on_c, 10, 72, 0
10, 59400, Control_c, 10, 91, 6
10, 59400, Note_on_c, 10, 72, 61
10, 59400, Control_c, 10, 11, 37
10, 59424, Control_c, 10, 11, 38
10, 59448, Control_c, 10, 11, 39
10, 59460, Note_on_c, 10, 72, 0
10, 59460, Note_on_c, 10, 67, 80
10, 59472, Control_c, 10, 11, 40
10, 59496, Control_c, 10, 11, 41
10, 59520, Note_on_c, 10, 67, 0
10, 59520, Control_c, 10, 11, 42
10, 59520, Note_on_c, 10, 69, 80
10, 59544, Control_c, 10, 11, 43
10, 59568, Control_c, 10, 11, 44
10, 59580, Note_on_c, 10, 69, 0
10, 59580, Note_on_c, 10, 71, 80
10, 59592, Control_c, 10, 11, 45
10, 59616, Control_c, 10, 11, 46
10, 59640, Note_on_c, 10, 71, 0
10, 59640, Note_on_c, 10, 72, 80
10, 59640, Control_c, 10, 11, 47
10, 59664, Control_c, 10, 11, 48
10, 59688, Control_c, 10, 11, 49
10, 59700, Note_on_c, 10, 72, 0
10, 59700, Note_on_c, 10, 74, 80
10, 59712, Control_c, 10, 11, 50
10, 59736, Control_c, 10, 11, 51
10, 59760, Note_on_c, 10, 74, 0
10, 59760, Note_on_c, 10, 76, 80
10, 59760, Control_c, 10, 11, 52
10, 59820, Note_on_c, 10, 76, 0
10, 59820, Note_on_c, 10, 71, 80
10, 59880, Note_on_c, 10, 71, 0
10, 59880, Note_on_c, 10, 72, 80
10, 59940, Note_on_c, 10, 72, 0
10, 59940, Note_on_c, 10, 74, 80
10, 60000, Note_on_c, 10, 74, 0
10, 60000, Note_on_c, 10, 76, 80
10, 60060, Note_on_c, 10, 76, 0
10, 60060, Note_on_c, 10, 77, 80
10, 60120, Note_on_c, 10, 77, 0
10, 60120, Note_on_c, 10, 79, 80
10, 60180, Note_on_c, 10, 79, 0
10, 60180, Note_on_c, 10, 78, 80
10, 60240, Note_on_c, 10, 78, 0
10, 60240, Note_on_c, 10, 79, 80
10, 60300, Note_on_c, 10, 79, 0
10, 60300, Note_on_c, 10, 77, 80
10, 60360, Note_on_c, 10, 77, 0
10, 60360, Note_on_c, 10, 76, 80
10, 60420, Note_on_c, 10, 76, 0
10, 60420, Note_on_c, 10, 74, 80
10, 60470, Note_on_c, 10, 74, 0
10, 60480, Note_on_c, 10, 72, 69
10, 60600, Note_on_c, 10, 72, 0
10, 62280, Note_on_c, 10, 74, 61
10, 62280, Control_c, 10, 11, 37
10, 62304, Control_c, 10, 11, 38
10, 62328, Control_c, 10, 11, 39
10, 62340, Note_on_c, 10, 74, 0
10, 62340, Note_on_c, 10, 69, 80
10, 62352, Control_c, 10, 11, 40
10, 62376, Control_c, 10, 11, 41
10, 62400, Note_on_c, 10, 69, 0
10, 62400, Note_on_c, 10, 71, 80
10, 62400, Control_c, 10, 11, 42
10, 62424, Control_c, 10, 11, 43
10, 62448, Control_c, 10, 11, 44
10, 62460, Note_on_c, 10, 71, 0
10, 62460, Note_on_c, 10, 73, 80
10, 62472, Control_c, 10, 11, 45
10, 62496, Control_c, 10, 11, 46
10, 62520, Note_on_c, 10, 73, 0
10, 62520, Control_c, 10, 11, 47
10, 62520, Note_on_c, 10, 74, 80
10, 62544, Control_c, 10, 11, 48
10, 62568, Control_c, 10, 11, 49
10, 62580, Note_on_c, 10, 74, 0
10, 62580, Note_on_c, 10, 76, 80
10, 62592, Control_c, 10, 11, 50
10, 62616, Control_c, 10, 11, 51
10, 62640, Note_on_c, 10, 76, 0
10, 62640, Control_c, 10, 11, 52
10, 62640, Note_on_c, 10, 77, 80
10, 62700, Note_on_c, 10, 77, 0
10, 62700, Note_on_c, 10, 73, 80
10, 62760, Note_on_c, 10, 73, 0
10, 62760, Note_on_c, 10, 74, 80
10, 62820, Note_on_c, 10, 74, 0
10, 62820, Note_on_c, 10, 76, 80
10, 62880, Note_on_c, 10, 76, 0
10, 62880, Note_on_c, 10, 77, 80
10, 62940, Note_on_c, 10, 77, 0
10, 62940, Note_on_c, 10, 79, 80
10, 63000, Note_on_c, 10, 79, 0
10, 63000, Note_on_c, 10, 81, 80
10, 63060, Note_on_c, 10, 81, 0
10, 63060, Note_on_c, 10, 79, 80
10, 63120, Note_on_c, 10, 79, 0
10, 63120, Note_on_c, 10, 77, 80
10, 63180, Note_on_c, 10, 77, 0
10, 63180, Note_on_c, 10, 76, 80
10, 63240, Note_on_c, 10, 76, 0
10, 63240, Note_on_c, 10, 74, 80
10, 63300, Note_on_c, 10, 74, 0
10, 63300, Note_on_c, 10, 73, 80
10, 63350, Note_on_c, 10, 73, 0
10, 63360, Note_on_c, 10, 71, 69
10, 63480, Note_on_c, 10, 71, 0
10, 63720, Control_c, 10, 11, 42
10, 63720, Note_on_c, 10, 79, 93
10, 63744, Control_c, 10, 11, 43
10, 63768, Control_c, 10, 11, 44
10, 63780, Note_on_c, 10, 79, 0
10, 63780, Note_on_c, 10, 78, 93
10, 63792, Control_c, 10, 11, 45
10, 63816, Control_c, 10, 11, 46
10, 63840, Note_on_c, 10, 78, 0
10, 63840, Note_on_c, 10, 79, 93
10, 63840, Control_c, 10, 11, 47
10, 63864, Control_c, 10, 11, 48
10, 63888, Control_c, 10, 11, 49
10, 63900, Note_on_c, 10, 79, 0
10, 63900, Note_on_c, 10, 78, 93
10, 63912, Control_c, 10, 11, 50
10, 63936, Control_c, 10, 11, 51
10, 63950, Note_on_c, 10, 78, 0
10, 63960, Note_on_c, 10, 79, 93
10, 63960, Control_c, 10, 11, 52
10, 64020, Note_on_c, 10, 79, 0
10, 64440, Note_on_c, 10, 79, 93
10, 64440, Control_c, 10, 11, 42
10, 64464, Control_c, 10, 11, 43
10, 64488, Control_c, 10, 11, 44
10, 64500, Note_on_c, 10, 79, 0
10, 64500, Note_on_c, 10, 78, 93
10, 64512, Control_c, 10, 11, 45
10, 64536, Control_c, 10, 11, 46
10, 64560, Note_on_c, 10, 78, 0
10, 64560, Note_on_c, 10, 79, 93
10, 64560, Control_c, 10, 11, 47
10, 64584, Control_c, 10, 11, 48
10, 64608, Control_c, 10, 11, 49
10, 64620, Note_on_c, 10, 79, 0
10, 64620, Note_on_c, 10, 78, 93
10, 64632, Control_c, 10, 11, 50
10, 64656, Control_c, 10, 11, 51
10, 64670, Note_on_c, 10, 78, 0
10, 64680, Note_on_c, 10, 79, 93
10, 64680, Control_c, 10, 11, 52
10, 64740, Note_on_c, 10, 79, 0
10, 64920, Note_on_c, 10, 86, 93
10, 64980, Note_on_c, 10, 86, 0
10, 64980, Note_on_c, 10, 85, 93
10, 65040, Note_on_c, 10, 85, 0
10, 65040, Note_on_c, 10, 86, 93
10, 65100, Note_on_c, 10, 86, 0
10, 65100, Note_on_c, 10, 85, 93
10, 65150, Note_on_c, 10, 85, 0
10, 65160, Note_on_c, 10, 86, 93
10, 65220, Note_on_c, 10, 86, 0
10, 65280, Note_on_c, 10, 74, 93
10, 65280, Control_c, 10, 11, 42
10, 65304, Control_c, 10, 11, 43
10, 65328, Control_c, 10, 11, 44
10, 65340, Note_on_c, 10, 74, 0
10, 65340, Note_on_c, 10, 73, 93
10, 65352, Control_c, 10, 11, 45
10, 65376, Control_c, 10, 11, 46
10, 65400, Note_on_c, 10, 73, 0
10, 65400, Note_on_c, 10, 74, 93
10, 65400, Control_c, 10, 11, 47
10, 65424, Control_c, 10, 11, 48
10, 65448, Control_c, 10, 11, 49
10, 65460, Note_on_c, 10, 74, 0
10, 65460, Note_on_c, 10, 73, 93
10, 65472, Control_c, 10, 11, 50
10, 65496, Control_c, 10, 11, 51
10, 65510, Note_on_c, 10, 73, 0
10, 65520, Control_c, 10, 11, 52
10, 65520, Note_on_c, 10, 74, 93
10, 65580, Note_on_c, 10, 74, 0
10, 65580, Note_on_c, 10, 76, 93
10, 65640, Note_on_c, 10, 76, 0
10, 65640, Note_on_c, 10, 78, 93
10, 65700, Note_on_c, 10, 78, 0
10, 65700, Note_on_c, 10, 79, 93
10, 65760, Note_on_c, 10, 79, 0
10, 65760, Note_on_c, 10, 81, 93
10, 65820, Note_on_c, 10, 81, 0
10, 65820, Note_on_c, 10, 78, 93
10, 65870, Note_on_c, 10, 78, 0
10, 65880, Note_on_c, 10, 79, 80
10, 66000, Note_on_c, 10, 79, 0
10, 68040, Control_c, 10, 11, 37
10, 68040, Control_c, 10, 91, 6
10, 68040, Note_on_c, 10, 72, 61
10, 68064, Control_c, 10, 11, 38
10, 68088, Control_c, 10, 11, 39
10, 68100, Note_on_c, 10, 72, 0
10, 68100, Note_on_c, 10, 67, 80
10, 68112, Control_c, 10, 11, 40
10, 68136, Control_c, 10, 11, 41
10, 68160, Note_on_c, 10, 67, 0
10, 68160, Control_c, 10, 11, 42
10, 68160, Note_on_c, 10, 69, 80
10, 68184, Control_c, 10, 11, 43
10, 68208, Control_c, 10, 11, 44
10, 68220, Note_on_c, 10, 69, 0
10, 68220, Note_on_c, 10, 71, 80
10, 68232, Control_c, 10, 11, 45
10, 68256, Control_c, 10, 11, 46
10, 68280, Note_on_c, 10, 71, 0
10, 68280, Control_c, 10, 11, 47
10, 68280, Note_on_c, 10, 72, 80
10, 68304, Control_c, 10, 11, 48
10, 68328, Control_c, 10, 11, 49
10, 68340, Note_on_c, 10, 72, 0
10, 68340, Note_on_c, 10, 74, 80
10, 68352, Control_c, 10, 11, 50
10, 68376, Control_c, 10, 11, 51
10, 68400, Note_on_c, 10, 74, 0
10, 68400, Note_on_c, 10, 76, 80
10, 68400, Control_c, 10, 11, 52
10, 68460, Note_on_c, 10, 76, 0
10, 68460, Note_on_c, 10, 71, 80
10, 68520, Note_on_c, 10, 71, 0
10, 68520, Note_on_c, 10, 72, 80
10, 68580, Note_on_c, 10, 72, 0
10, 68580, Note_on_c, 10, 74, 80
10, 68640, Note_on_c, 10, 74, 0
10, 68640, Note_on_c, 10, 76, 80
10, 68700, Note_on_c, 10, 76, 0
10, 68700, Note_on_c, 10, 77, 80
10, 68760, Note_on_c, 10, 77, 0
10, 68760, Note_on_c, 10, 79, 80
10, 68820, Note_on_c, 10, 79, 0
10, 68820, Note_on_c, 10, 78, 80
10, 68880, Note_on_c, 10, 78, 0
10, 68880, Note_on_c, 10, 79, 80
10, 68940, Note_on_c, 10, 79, 0
10, 68940, Note_on_c, 10, 77, 80
10, 69000, Note_on_c, 10, 77, 0
10, 69000, Note_on_c, 10, 76, 80
10, 69060, Note_on_c, 10, 76, 0
10, 69060, Note_on_c, 10, 74, 80
10, 69110, Note_on_c, 10, 74, 0
10, 69120, Note_on_c, 10, 72, 69
10, 69240, Note_on_c, 10, 72, 0
10, 70920, Note_on_c, 10, 74, 61
10, 70920, Control_c, 10, 11, 37
10, 70944, Control_c, 10, 11, 38
10, 70968, Control_c, 10, 11, 39
10, 70980, Note_on_c, 10, 74, 0
10, 70980, Note_on_c, 10, 69, 80
10, 70992, Control_c, 10, 11, 40
10, 71016, Control_c, 10, 11, 41
10, 71040, Note_on_c, 10, 69, 0
10, 71040, Note_on_c, 10, 71, 80
10, 71040, Control_c, 10, 11, 42
10, 71064, Control_c, 10, 11, 43
10, 71088, Control_c, 10, 11, 44
10, 71100, Note_on_c, 10, 71, 0
10, 71100, Note_on_c, 10, 73, 80
10, 71112, Control_c, 10, 11, 45
10, 71136, Control_c, 10, 11, 46
10, 71160, Note_on_c, 10, 73, 0
10, 71160, Note_on_c, 10, 74, 80
10, 71160, Control_c, 10, 11, 47
10, 71184, Control_c, 10, 11, 48
10, 71208, Control_c, 10, 11, 49
10, 71220, Note_on_c, 10, 74, 0
10, 71220, Note_on_c, 10, 76, 80
10, 71232, Control_c, 10, 11, 50
10, 71256, Control_c, 10, 11, 51
10, 71280, Note_on_c, 10, 76, 0
10, 71280, Control_c, 10, 11, 52
10, 71280, Note_on_c, 10, 77, 80
10, 71340, Note_on_c, 10, 77, 0
10, 71340, Note_on_c, 10, 73, 80
10, 71400, Note_on_c, 10, 73, 0
10, 71400, Note_on_c, 10, 74, 80
10, 71460, Note_on_c, 10, 74, 0
10, 71460, Note_on_c, 10, 76, 80
10, 71520, Note_on_c, 10, 76, 0
10, 71520, Note_on_c, 10, 77, 80
10, 71580, Note_on_c, 10, 77, 0
10, 71580, Note_on_c, 10, 79, 80
10, 71640, Note_on_c, 10, 79, 0
10, 71640, Note_on_c, 10, 81, 80
10, 71700, Note_on_c, 10, 81, 0
10, 71700, Note_on_c, 10, 79, 80
10, 71760, Note_on_c, 10, 79, 0
10, 71760, Note_on_c, 10, 77, 80
10, 71820, Note_on_c, 10, 77, 0
10, 71820, Note_on_c, 10, 76, 80
10, 71880, Note_on_c, 10, 76, 0
10, 71880, Note_on_c, 10, 74, 80
10, 71940, Note_on_c, 10, 74, 0
10, 71940, Note_on_c, 10, 73, 80
10, 71990, Note_on_c, 10, 73, 0
10, 72000, Note_on_c, 10, 71, 69
10, 72120, Note_on_c, 10, 71, 0
10, 72360, Control_c, 10, 11, 42
10, 72360, Note_on_c, 10, 79, 93
10, 72384, Control_c, 10, 11, 43
10, 72408, Control_c, 10, 11, 44
10, 72420, Note_on_c, 10, 79, 0
10, 72420, Note_on_c, 10, 78, 93
10, 72432, Control_c, 10, 11, 45
10, 72456, Control_c, 10, 11, 46
10, 72480, Note_on_c, 10, 78, 0
10, 72480, Control_c, 10, 11, 47
10, 72480, Note_on_c, 10, 79, 93
10, 72504, Control_c, 10, 11, 48
10, 72528, Control_c, 10, 11, 49
10, 72540, Note_on_c, 10, 79, 0
10, 72540, Note_on_c, 10, 78, 93
10, 72552, Control_c, 10, 11, 50
10, 72576, Control_c, 10, 11, 51
10, 72590, Note_on_c, 10, 78, 0
10, 72600, Note_on_c, 10, 79, 93
10, 72600, Control_c, 10, 11, 52
10, 72660, Note_on_c, 10, 79, 0
10, 73080, Control_c, 10, 11, 42
10, 73080, Note_on_c, 10, 79, 93
10, 73104, Control_c, 10, 11, 43
10, 73128, Control_c, 10, 11, 44
10, 73140, Note_on_c, 10, 79, 0
10, 73140, Note_on_c, 10, 78, 93
10, 73152, Control_c, 10, 11, 45
10, 73176, Control_c, 10, 11, 46
10, 73200, Note_on_c, 10, 78, 0
10, 73200, Note_on_c, 10, 79, 93
10, 73200, Control_c, 10, 11, 47
10, 73224, Control_c, 10, 11, 48
10, 73248, Control_c, 10, 11, 49
10, 73260, Note_on_c, 10, 79, 0
10, 73260, Note_on_c, 10, 78, 93
10, 73272, Control_c, 10, 11, 50
10, 73296, Control_c, 10, 11, 51
10, 73310, Note_on_c, 10, 78, 0
10, 73320, Note_on_c, 10, 79, 93
10, 73320, Control_c, 10, 11, 52
10, 73380, Note_on_c, 10, 79, 0
10, 73560, Note_on_c, 10, 86, 93
10, 73620, Note_on_c, 10, 86, 0
10, 73620, Note_on_c, 10, 85, 93
10, 73680, Note_on_c, 10, 85, 0
10, 73680, Note_on_c, 10, 86, 93
10, 73740, Note_on_c, 10, 86, 0
10, 73740, Note_on_c, 10, 85, 93
10, 73790, Note_on_c, 10, 85, 0
10, 73800, Note_on_c, 10, 86, 93
10, 73860, Note_on_c, 10, 86, 0
10, 73920, Note_on_c, 10, 74, 93
10, 73920, Control_c, 10, 11, 42
10, 73944, Control_c, 10, 11, 43
10, 73968, Control_c, 10, 11, 44
10, 73980, Note_on_c, 10, 74, 0
10, 73980, Note_on_c, 10, 73, 93
10, 73992, Control_c, 10, 11, 45
10, 74016, Control_c, 10, 11, 46
10, 74040, Note_on_c, 10, 73, 0
10, 74040, Note_on_c, 10, 74, 93
10, 74040, Control_c, 10, 11, 47
10, 74064, Control_c, 10, 11, 48
10, 74088, Control_c, 10, 11, 49
10, 74100, Note_on_c, 10, 74, 0
10, 74100, Note_on_c, 10, 73, 93
10, 74112, Control_c, 10, 11, 50
10, 74136, Control_c, 10, 11, 51
10, 74150, Note_on_c, 10, 73, 0
10, 74160, Note_on_c, 10, 74, 93
10, 74160, Control_c, 10, 11, 52
10, 74220, Note_on_c, 10, 74, 0
10, 74220, Note_on_c, 10, 76, 93
10, 74280, Note_on_c, 10, 76, 0
10, 74280, Note_on_c, 10, 78, 93
10, 74340, Note_on_c, 10, 78, 0
10, 74340, Note_on_c, 10, 79, 93
10, 74400, Note_on_c, 10, 79, 0
10, 74400, Note_on_c, 10, 81, 93
10, 74460, Note_on_c, 10, 81, 0
10, 74460, Note_on_c, 10, 78, 93
10, 74510, Note_on_c, 10, 78, 0
10, 74520, Note_on_c, 10, 79, 80
10, 74640, Note_on_c, 10, 79, 0
10, 75720, Control_c, 10, 11, 42
10, 75720, Note_on_c, 10, 77, 93
10, 75720, Control_c, 10, 91, 6
10, 75780, Note_on_c, 10, 77, 0
10, 75780, Note_on_c, 10, 76, 93
10, 75840, Note_on_c, 10, 76, 0
10, 75840, Note_on_c, 10, 77, 93
10, 75900, Note_on_c, 10, 77, 0
10, 75900, Note_on_c, 10, 76, 93
10, 75950, Note_on_c, 10, 76, 0
10, 75960, Note_on_c, 10, 77, 93
10, 76020, Note_on_c, 10, 77, 0
10, 76080, Note_on_c, 10, 81, 108
10, 76140, Note_on_c, 10, 81, 0
10, 76140, Note_on_c, 10, 79, 108
10, 76200, Note_on_c, 10, 79, 0
10, 76200, Note_on_c, 10, 77, 108
10, 76260, Note_on_c, 10, 77, 0
10, 76260, Note_on_c, 10, 76, 108
10, 76310, Note_on_c, 10, 76, 0
10, 76320, Note_on_c, 10, 74, 108
10, 76380, Note_on_c, 10, 74, 0
10, 77160, Note_on_c, 10, 74, 93
10, 77220, Note_on_c, 10, 74, 0
10, 77220, Note_on_c, 10, 73, 93
10, 77280, Note_on_c, 10, 73, 0
10, 77280, Note_on_c, 10, 74, 93
10, 77340, Note_on_c, 10, 74, 0
10, 77340, Note_on_c, 10, 73, 93
10, 77390, Note_on_c, 10, 73, 0
10, 77400, Note_on_c, 10, 74, 93
10, 77460, Note_on_c, 10, 74, 0
10, 77520, Note_on_c, 10, 77, 108
10, 77580, Note_on_c, 10, 77, 0
10, 77580, Note_on_c, 10, 76, 108
10, 77640, Note_on_c, 10, 76, 0
10, 77640, Note_on_c, 10, 74, 108
10, 77700, Note_on_c, 10, 74, 0
10, 77700, Note_on_c, 10, 72, 108
10, 77750, Note_on_c, 10, 72, 0
10, 77760, Note_on_c, 10, 71, 108
10, 77820, Note_on_c, 10, 71, 0
10, 78240, Control_c, 10, 11, 42
10, 78240, Note_on_c, 10, 81, 93
10, 78300, Note_on_c, 10, 81, 0
10, 78300, Note_on_c, 10, 79, 93
10, 78360, Note_on_c, 10, 79, 0
10, 78360, Note_on_c, 10, 77, 93
10, 78384, Control_c, 10, 11, 41
10, 78420, Note_on_c, 10, 77, 0
10, 78420, Note_on_c, 10, 76, 93
10, 78470, Note_on_c, 10, 76, 0
10, 78480, Note_on_c, 10, 74, 93
10, 78528, Control_c, 10, 11, 40
10, 78540, Note_on_c, 10, 74, 0
10, 78672, Control_c, 10, 11, 39
10, 78816, Control_c, 10, 11, 38
10, 78960, Note_on_c, 10, 77, 108
10, 78960, Control_c, 10, 11, 37
10, 79020, Note_on_c, 10, 77, 0
10, 79020, Note_on_c, 10, 76, 108
10, 79080, Note_on_c, 10, 76, 0
10, 79080, Note_on_c, 10, 74, 108
10, 79104, Control_c, 10, 11, 36
10, 79140, Note_on_c, 10, 74, 0
10, 79140, Note_on_c, 10, 72, 108
10, 79190, Note_on_c, 10, 72, 0
10, 79200, Note_on_c, 10, 71, 108
10, 79248, Control_c, 10, 11, 35
10, 79260, Note_on_c, 10, 71, 0
10, 79392, Control_c, 10, 11, 34
10, 79536, Control_c, 10, 11, 33
10, 79680, Note_on_c, 10, 81, 93
10, 79680, Control_c, 10, 11, 32
10, 79740, Note_on_c, 10, 81, 0
10, 79740, Note_on_c, 10, 79, 93
10, 79800, Note_on_c, 10, 79, 0
10, 79800, Note_on_c, 10, 77, 93
10, 79860, Note_on_c, 10, 77, 0
10, 79860, Note_on_c, 10, 76, 93
10, 79910, Note_on_c, 10, 76, 0
10, 79920, Note_on_c, 10, 74, 93
10, 79980, Note_on_c, 10, 74, 0
10, 80040, Note_on_c, 10, 81, 108
10, 80100, Note_on_c, 10, 81, 0
10, 80100, Note_on_c, 10, 79, 108
10, 80160, Note_on_c, 10, 79, 0
10, 80160, Note_on_c, 10, 77, 108
10, 80220, Note_on_c, 10, 77, 0
10, 80220, Note_on_c, 10, 76, 108
10, 80270, Note_on_c, 10, 76, 0
10, 80280, Note_on_c, 10, 74, 108
10, 80340, Note_on_c, 10, 74, 0
10, 80400, Note_on_c, 10, 81, 108
10, 80460, Note_on_c, 10, 81, 0
10, 80460, Note_on_c, 10, 79, 108
10, 80520, Note_on_c, 10, 79, 0
10, 80520, Note_on_c, 10, 77, 108
10, 80580, Note_on_c, 10, 77, 0
10, 80580, Note_on_c, 10, 76, 108
10, 80630, Note_on_c, 10, 76, 0
10, 80640, Control_c, 10, 11, 32
10, 80640, Note_on_c, 10, 74, 108
10, 80660, Control_c, 10, 11, 34
10, 80681, Control_c, 10, 11, 36
10, 80700, Note_on_c, 10, 74, 0
10, 80701, Control_c, 10, 11, 38
10, 80722, Control_c, 10, 11, 40
10, 80742, Control_c, 10, 11, 42
10, 80760, Note_on_c, 10, 77, 108
10, 80760, Control_c, 10, 91, 32
10, 80763, Control_c, 10, 11, 44
10, 80784, Control_c, 10, 11, 46
10, 80804, Control_c, 10, 11, 48
10, 80820, Note_on_c, 10, 77, 0
10, 80820, Note_on_c, 10, 76, 108
10, 80825, Control_c, 10, 11, 50
10, 80845, Control_c, 10, 11, 52
10, 80866, Control_c, 10, 11, 54
10, 80880, Note_on_c, 10, 76, 0
10, 80880, Note_on_c, 10, 74, 108
10, 80886, Control_c, 10, 11, 56
10, 80907, Control_c, 10, 11, 58
10, 80928, Control_c, 10, 11, 60
10, 80940, Note_on_c, 10, 74, 0
10, 80940, Note_on_c, 10, 72, 108
10, 80948, Control_c, 10, 11, 62
10, 80969, Control_c, 10, 11, 64
10, 80989, Control_c, 10, 11, 66
10, 80990, Note_on_c, 10, 72, 0
10, 81000, Note_on_c, 10, 71, 108
10, 81018, Control_c, 10, 11, 66
10, 81036, Control_c, 10, 11, 65
10, 81054, Control_c, 10, 11, 64
10, 81060, Note_on_c, 10, 71, 0
10, 81060, Note_on_c, 10, 69, 108
10, 81072, Control_c, 10, 11, 63
10, 81090, Control_c, 10, 11, 62
10, 81108, Control_c, 10, 11, 61
10, 81120, Note_on_c, 10, 69, 0
10, 81120, Note_on_c, 10, 67, 108
10, 81126, Control_c, 10, 11, 60
10, 81144, Control_c, 10, 11, 59
10, 81162, Control_c, 10, 11, 58
10, 81180, Note_on_c, 10, 67, 0
10, 81180, Control_c, 10, 11, 57
10, 81180, Note_on_c, 10, 65, 108
10, 81198, Control_c, 10, 11, 56
10, 81216, Control_c, 10, 11, 55
10, 81234, Control_c, 10, 11, 54
10, 81240, Note_on_c, 10, 65, 0
10, 81240, Note_on_c, 10, 64, 108
10, 81252, Control_c, 10, 11, 53
10, 81270, Control_c, 10, 11, 52
10, 81288, Control_c, 10, 11, 51
10, 81300, Note_on_c, 10, 64, 0
10, 81300, Note_on_c, 10, 62, 108
10, 81306, Control_c, 10, 11, 50
10, 81324, Control_c, 10, 11, 49
10, 81342, Control_c, 10, 11, 48
10, 81350, Note_on_c, 10, 62, 0
10, 81360, Control_c, 10, 11, 47
10, 81360, Note_on_c, 10, 60, 108
10, 81480, Note_on_c, 10, 60, 0
10, 82800, Control_c, 10, 91, 32
10, 82800, Control_c, 10, 11, 82
10, 82800, Note_on_c, 10, 72, 123
10, 82800, Note_on_c, 10, 76, 123
10, 82818, Control_c, 10, 11, 85
10, 82836, Control_c, 10, 11, 88
10, 82854, Control_c, 10, 11, 91
10, 82872, Control_c, 10, 11, 94
10, 82890, Control_c, 10, 11, 97
10, 82908, Control_c, 10, 11, 100
10, 82991, Note_on_c, 10, 76, 0
10, 82991, Note_on_c, 10, 72, 0
10, 83040, Note_on_c, 10, 72, 123
10, 83040, Note_on_c, 10, 76, 123
10, 83100, Note_on_c, 10, 76, 0
10, 83100, Note_on_c, 10, 72, 0
10, 83160, Control_c, 10, 11, 122
10, 83160, Note_on_c, 10, 81, 108
10, 83183, Control_c, 10, 11, 120
10, 83207, Control_c, 10, 11, 118
10, 83220, Note_on_c, 10, 81, 0
10, 83220, Note_on_c, 10, 80, 108
10, 83231, Control_c, 10, 11, 116
10, 83255, Control_c, 10, 11, 114
10, 83279, Control_c, 10, 11, 112
10, 83280, Note_on_c, 10, 80, 0
10, 83280, Note_on_c, 10, 81, 108
10, 83303, Control_c, 10, 11, 110
10, 83327, Control_c, 10, 11, 108
10, 83340, Note_on_c, 10, 81, 0
10, 83340, Note_on_c, 10, 77, 108
10, 83351, Control_c, 10, 11, 106
10, 83375, Control_c, 10, 11, 104
10, 83399, Control_c, 10, 11, 102
10, 83400, Note_on_c, 10, 77, 0
10, 83400, Note_on_c, 10, 72, 108
10, 83460, Note_on_c, 10, 72, 0
10, 83460, Note_on_c, 10, 69, 108
10, 83505, Note_on_c, 10, 69, 0
10, 83520, Note_on_c, 10, 67, 108
10, 83640, Note_on_c, 10, 67, 0
10, 83880, Note_on_c, 10, 79, 108
10, 83880, Control_c, 10, 11, 122
10, 83903, Control_c, 10, 11, 120
10, 83927, Control_c, 10, 11, 118
10, 83940, Note_on_c, 10, 79, 0
10, 83940, Note_on_c, 10, 78, 108
10, 83951, Control_c, 10, 11, 116
10, 83975, Control_c, 10, 11, 114
10, 83999, Control_c, 10, 11, 112
10, 84000, Note_on_c, 10, 78, 0
10, 84000, Note_on_c, 10, 79, 108
10, 84023, Control_c, 10, 11, 110
10, 84047, Control_c, 10, 11, 108
10, 84060, Note_on_c, 10, 79, 0
10, 84060, Note_on_c, 10, 81, 108
10, 84071, Control_c, 10, 11, 106
10, 84095, Control_c, 10, 11, 104
10, 84119, Control_c, 10, 11, 102
10, 84120, Note_on_c, 10, 81, 0
10, 84120, Note_on_c, 10, 83, 108
10, 84180, Note_on_c, 10, 83, 0
10, 84180, Note_on_c, 10, 79, 108
10, 84225, Note_on_c, 10, 79, 0
10, 84240, Note_on_c, 10, 84, 108
10, 84300, Note_on_c, 10, 84, 0
10, 84600, Control_c, 10, 11, 122
10, 84600, Note_on_c, 10, 81, 108
10, 84623, Control_c, 10, 11, 120
10, 84647, Control_c, 10, 11, 118
10, 84660, Note_on_c, 10, 81, 0
10, 84660, Note_on_c, 10, 80, 108
10, 84671, Control_c, 10, 11, 116
10, 84695, Control_c, 10, 11, 114
10, 84719, Control_c, 10, 11, 112
10, 84720, Note_on_c, 10, 80, 0
10, 84720, Note_on_c, 10, 81, 108
10, 84743, Control_c, 10, 11, 110
10, 84767, Control_c, 10, 11, 108
10, 84780, Note_on_c, 10, 81, 0
10, 84780, Note_on_c, 10, 77, 108
10, 84791, Control_c, 10, 11, 106
10, 84815, Control_c, 10, 11, 104
10, 84839, Control_c, 10, 11, 102
10, 84840, Note_on_c, 10, 77, 0
10, 84840, Note_on_c, 10, 72, 108
10, 84900, Note_on_c, 10, 72, 0
10, 84900, Note_on_c, 10, 69, 108
10, 84945, Note_on_c, 10, 69, 0
10, 84960, Note_on_c, 10, 67, 108
10, 85080, Note_on_c, 10, 67, 0
10, 85320, Note_on_c, 10, 79, 108
10, 85320, Control_c, 10, 11, 122
10, 85343, Control_c, 10, 11, 120
10, 85367, Control_c, 10, 11, 118
10, 85380, Note_on_c, 10, 79, 0
10, 85380, Note_on_c, 10, 78, 108
10, 85391, Control_c, 10, 11, 116
10, 85415, Control_c, 10, 11, 114
10, 85439, Control_c, 10, 11, 112
10, 85440, Note_on_c, 10, 78, 0
10, 85440, Note_on_c, 10, 79, 108
10, 85463, Control_c, 10, 11, 110
10, 85487, Control_c, 10, 11, 108
10, 85500, Note_on_c, 10, 79, 0
10, 85500, Note_on_c, 10, 81, 108
10, 85511, Control_c, 10, 11, 106
10, 85535, Control_c, 10, 11, 104
10, 85559, Control_c, 10, 11, 102
10, 85560, Note_on_c, 10, 81, 0
10, 85560, Note_on_c, 10, 83, 108
10, 85620, Note_on_c, 10, 83, 0
10, 85620, Note_on_c, 10, 79, 108
10, 85665, Note_on_c, 10, 79, 0
10, 85680, Note_on_c, 10, 84, 108
10, 85740, Note_on_c, 10, 84, 0
10, 85800, Control_c, 10, 11, 122
10, 85800, Note_on_c, 10, 79, 108
10, 85823, Control_c, 10, 11, 120
10, 85847, Control_c, 10, 11, 118
10, 85860, Note_on_c, 10, 79, 0
10, 85860, Note_on_c, 10, 81, 108
10, 85871, Control_c, 10, 11, 116
10, 85895, Control_c, 10, 11, 114
10, 85919, Control_c, 10, 11, 112
10, 85920, Note_on_c, 10, 81, 0
10, 85920, Note_on_c, 10, 83, 108
10, 85943, Control_c, 10, 11, 110
10, 85967, Control_c, 10, 11, 108
10, 85980, Note_on_c, 10, 83, 0
10, 85980, Note_on_c, 10, 79, 108
10, 85991, Control_c, 10, 11, 106
10, 86015, Control_c, 10, 11, 104
10, 86025, Note_on_c, 10, 79, 0
10, 86039, Control_c, 10, 11, 102
10, 86040, Note_on_c, 10, 84, 108
10, 86085, Note_on_c, 10, 84, 0
10, 86160, Note_on_c, 10, 79, 108
10, 86160, Control_c, 10, 11, 122
10, 86183, Control_c, 10, 11, 120
10, 86207, Control_c, 10, 11, 118
10, 86220, Note_on_c, 10, 79, 0
10, 86220, Note_on_c, 10, 78, 108
10, 86231, Control_c, 10, 11, 116
10, 86255, Control_c, 10, 11, 114
10, 86279, Control_c, 10, 11, 112
10, 86280, Note_on_c, 10, 78, 0
10, 86280, Note_on_c, 10, 79, 108
10, 86303, Control_c, 10, 11, 110
10, 86327, Control_c, 10, 11, 108
10, 86340, Note_on_c, 10, 79, 0
10, 86340, Note_on_c, 10, 78, 108
10, 86351, Control_c, 10, 11, 106
10, 86375, Control_c, 10, 11, 104
10, 86385, Note_on_c, 10, 78, 0
10, 86399, Control_c, 10, 11, 102
10, 86400, Control_c, 10, 11, 122
10, 86400, Note_on_c, 10, 79, 108
10, 86423, Control_c, 10, 11, 120
10, 86447, Control_c, 10, 11, 118
10, 86460, Note_on_c, 10, 79, 0
10, 86460, Note_on_c, 10, 81, 108
10, 86471, Control_c, 10, 11, 116
10, 86495, Control_c, 10, 11, 114
10, 86519, Control_c, 10, 11, 112
10, 86520, Note_on_c, 10, 81, 0
10, 86520, Note_on_c, 10, 83, 108
10, 86543, Control_c, 10, 11, 110
10, 86567, Control_c, 10, 11, 108
10, 86580, Note_on_c, 10, 83, 0
10, 86580, Note_on_c, 10, 84, 108
10, 86591, Control_c, 10, 11, 106
10, 86615, Control_c, 10, 11, 104
10, 86639, Control_c, 10, 11, 102
10, 86640, Note_on_c, 10, 84, 0
10, 86640, Note_on_c, 10, 86, 108
10, 86700, Note_on_c, 10, 86, 0
10, 86700, Note_on_c, 10, 83, 108
10, 86745, Note_on_c, 10, 83, 0
10, 86760, Note_on_c, 10, 84, 108
10, 86880, Note_on_c, 10, 84, 0
10, 87960, Control_c, 10, 91, 6
10, 87960, Note_on_c, 10, 77, 93
10, 87960, Control_c, 10, 11, 42
10, 88020, Note_on_c, 10, 77, 0
10, 88020, Note_on_c, 10, 76, 93
10, 88080, Note_on_c, 10, 76, 0
10, 88080, Note_on_c, 10, 77, 93
10, 88140, Note_on_c, 10, 77, 0
10, 88140, Note_on_c, 10, 76, 93
10, 88190, Note_on_c, 10, 76, 0
10, 88200, Note_on_c, 10, 77, 93
10, 88260, Note_on_c, 10, 77, 0
10, 88320, Note_on_c, 10, 81, 108
10, 88380, Note_on_c, 10, 81, 0
10, 88380, Note_on_c, 10, 79, 108
10, 88440, Note_on_c, 10, 79, 0
10, 88440, Note_on_c, 10, 77, 108
10, 88500, Note_on_c, 10, 77, 0
10, 88500, Note_on_c, 10, 76, 108
10, 88550, Note_on_c, 10, 76, 0
10, 88560, Note_on_c, 10, 74, 108
10, 88620, Note_on_c, 10, 74, 0
10, 89400, Note_on_c, 10, 74, 93
10, 89460, Note_on_c, 10, 74, 0
10, 89460, Note_on_c, 10, 73, 93
10, 89520, Note_on_c, 10, 73, 0
10, 89520, Note_on_c, 10, 74, 93
10, 89580, Note_on_c, 10, 74, 0
10, 89580, Note_on_c, 10, 73, 93
10, 89630, Note_on_c, 10, 73, 0
10, 89640, Note_on_c, 10, 74, 93
10, 89700, Note_on_c, 10, 74, 0
10, 89760, Note_on_c, 10, 77, 108
10, 89820, Note_on_c, 10, 77, 0
10, 89820, Note_on_c, 10, 76, 108
10, 89880, Note_on_c, 10, 76, 0
10, 89880, Note_on_c, 10, 74, 108
10, 89940, Note_on_c, 10, 74, 0
10, 89940, Note_on_c, 10, 72, 108
10, 89990, Note_on_c, 10, 72, 0
10, 90000, Note_on_c, 10, 71, 108
10, 90060, Note_on_c, 10, 71, 0
10, 90480, Control_c, 10, 11, 42
10, 90480, Note_on_c, 10, 81, 93
10, 90540, Note_on_c, 10, 81, 0
10, 90540, Note_on_c, 10, 79, 93
10, 90600, Note_on_c, 10, 79, 0
10, 90600, Note_on_c, 10, 77, 93
10, 90624, Control_c, 10, 11, 41
10, 90660, Note_on_c, 10, 77, 0
10, 90660, Note_on_c, 10, 76, 93
10, 90710, Note_on_c, 10, 76, 0
10, 90720, Note_on_c, 10, 74, 93
10, 90768, Control_c, 10, 11, 40
10, 90780, Note_on_c, 10, 74, 0
10, 90912, Control_c, 10, 11, 39
10, 91056, Control_c, 10, 11, 38
10, 91200, Note_on_c, 10, 77, 108
10, 91200, Control_c, 10, 11, 37
10, 91260, Note_on_c, 10, 77, 0
10, 91260, Note_on_c, 10, 76, 108
10, 91320, Note_on_c, 10, 76, 0
10, 91320, Note_on_c, 10, 74, 108
10, 91344, Control_c, 10, 11, 36
10, 91380, Note_on_c, 10, 74, 0
10, 91380, Note_on_c, 10, 72, 108
10, 91430, Note_on_c, 10, 72, 0
10, 91440, Note_on_c, 10, 71, 108
10, 91488, Control_c, 10, 11, 35
10, 91500, Note_on_c, 10, 71, 0
10, 91632, Control_c, 10, 11, 34
10, 91776, Control_c, 10, 11, 33
10, 91920, Note_on_c, 10, 81, 93
10, 91920, Control_c, 10, 11, 32
10, 91980, Note_on_c, 10, 81, 0
10, 91980, Note_on_c, 10, 79, 93
10, 92040, Note_on_c, 10, 79, 0
10, 92040, Note_on_c, 10, 77, 93
10, 92100, Note_on_c, 10, 77, 0
10, 92100, Note_on_c, 10, 76, 93
10, 92150, Note_on_c, 10, 76, 0
10, 92160, Note_on_c, 10, 74, 93
10, 92220, Note_on_c, 10, 74, 0
10, 92280, Note_on_c, 10, 81, 108
10, 92340, Note_on_c, 10, 81, 0
10, 92340, Note_on_c, 10, 79, 108
10, 92400, Note_on_c, 10, 79, 0
10, 92400, Note_on_c, 10, 77, 108
10, 92460, Note_on_c, 10, 77, 0
10, 92460, Note_on_c, 10, 76, 108
10, 92510, Note_on_c, 10, 76, 0
10, 92520, Note_on_c, 10, 74, 108
10, 92580, Note_on_c, 10, 74, 0
10, 92640, Note_on_c, 10, 81, 108
10, 92700, Note_on_c, 10, 81, 0
10, 92700, Note_on_c, 10, 79, 108
10, 92760, Note_on_c, 10, 79, 0
10, 92760, Note_on_c, 10, 77, 108
10, 92820, Note_on_c, 10, 77, 0
10, 92820, Note_on_c, 10, 76, 108
10, 92870, Note_on_c, 10, 76, 0
10, 92880, Note_on_c, 10, 74, 108
10, 92880, Control_c, 10, 11, 32
10, 92900, Control_c, 10, 11, 34
10, 92921, Control_c, 10, 11, 36
10, 92940, Note_on_c, 10, 74, 0
10, 92941, Control_c, 10, 11, 38
10, 92962, Control_c, 10, 11, 40
10, 92982, Control_c, 10, 11, 42
10, 93000, Note_on_c, 10, 77, 108
10, 93000, Control_c, 10, 91, 32
10, 93003, Control_c, 10, 11, 44
10, 93024, Control_c, 10, 11, 46
10, 93044, Control_c, 10, 11, 48
10, 93060, Note_on_c, 10, 77, 0
10, 93060, Note_on_c, 10, 76, 108
10, 93065, Control_c, 10, 11, 50
10, 93085, Control_c, 10, 11, 52
10, 93106, Control_c, 10, 11, 54
10, 93120, Note_on_c, 10, 76, 0
10, 93120, Note_on_c, 10, 74, 108
10, 93126, Control_c, 10, 11, 56
10, 93147, Control_c, 10, 11, 58
10, 93168, Control_c, 10, 11, 60
10, 93180, Note_on_c, 10, 74, 0
10, 93180, Note_on_c, 10, 72, 108
10, 93188, Control_c, 10, 11, 62
10, 93209, Control_c, 10, 11, 64
10, 93229, Control_c, 10, 11, 66
10, 93230, Note_on_c, 10, 72, 0
10, 93240, Note_on_c, 10, 71, 108
10, 93258, Control_c, 10, 11, 66
10, 93276, Control_c, 10, 11, 65
10, 93294, Control_c, 10, 11, 64
10, 93300, Note_on_c, 10, 71, 0
10, 93300, Note_on_c, 10, 69, 108
10, 93312, Control_c, 10, 11, 63
10, 93330, Control_c, 10, 11, 62
10, 93348, Control_c, 10, 11, 61
10, 93360, Note_on_c, 10, 69, 0
10, 93360, Note_on_c, 10, 67, 108
10, 93366, Control_c, 10, 11, 60
10, 93384, Control_c, 10, 11, 59
10, 93402, Control_c, 10, 11, 58
10, 93420, Note_on_c, 10, 67, 0
10, 93420, Control_c, 10, 11, 57
10, 93420, Note_on_c, 10, 65, 108
10, 93438, Control_c, 10, 11, 56
10, 93456, Control_c, 10, 11, 55
10, 93474, Control_c, 10, 11, 54
10, 93480, Note_on_c, 10, 65, 0
10, 93480, Note_on_c, 10, 64, 108
10, 93492, Control_c, 10, 11, 53
10, 93510, Control_c, 10, 11, 52
10, 93528, Control_c, 10, 11, 51
10, 93540, Note_on_c, 10, 64, 0
10, 93540, Note_on_c, 10, 62, 108
10, 93546, Control_c, 10, 11, 50
10, 93564, Control_c, 10, 11, 49
10, 93582, Control_c, 10, 11, 48
10, 93590, Note_on_c, 10, 62, 0
10, 93600, Note_on_c, 10, 60, 108
10, 93600, Control_c, 10, 11, 47
10, 93720, Note_on_c, 10, 60, 0
10, 95040, Control_c, 10, 91, 32
10, 95040, Note_on_c, 10, 76, 123
10, 95040, Control_c, 10, 11, 82
10, 95040, Note_on_c, 10, 72, 123
10, 95058, Control_c, 10, 11, 85
10, 95076, Control_c, 10, 11, 88
10, 95094, Control_c, 10, 11, 91
10, 95112, Control_c, 10, 11, 94
10, 95130, Control_c, 10, 11, 97
10, 95148, Control_c, 10, 11, 100
10, 95231, Note_on_c, 10, 72, 0
10, 95231, Note_on_c, 10, 76, 0
10, 95280, Note_on_c, 10, 76, 123
10, 95280, Note_on_c, 10, 72, 123
10, 95340, Note_on_c, 10, 72, 0
10, 95340, Note_on_c, 10, 76, 0
10, 95400, Control_c, 10, 11, 122
10, 95400, Note_on_c, 10, 81, 108
10, 95423, Control_c, 10, 11, 120
10, 95447, Control_c, 10, 11, 118
10, 95460, Note_on_c, 10, 81, 0
10, 95460, Note_on_c, 10, 80, 108
10, 95471, Control_c, 10, 11, 116
10, 95495, Control_c, 10, 11, 114
10, 95519, Control_c, 10, 11, 112
10, 95520, Note_on_c, 10, 80, 0
10, 95520, Note_on_c, 10, 81, 108
10, 95543, Control_c, 10, 11, 110
10, 95567, Control_c, 10, 11, 108
10, 95580, Note_on_c, 10, 81, 0
10, 95580, Note_on_c, 10, 77, 108
10, 95591, Control_c, 10, 11, 106
10, 95615, Control_c, 10, 11, 104
10, 95639, Control_c, 10, 11, 102
10, 95640, Note_on_c, 10, 77, 0
10, 95640, Note_on_c, 10, 72, 108
10, 95700, Note_on_c, 10, 72, 0
10, 95700, Note_on_c, 10, 69, 108
10, 95745, Note_on_c, 10, 69, 0
10, 95760, Note_on_c, 10, 67, 108
10, 95880, Note_on_c, 10, 67, 0
10, 96120, Note_on_c, 10, 79, 108
10, 96120, Control_c, 10, 11, 122
10, 96143, Control_c, 10, 11, 120
10, 96167, Control_c, 10, 11, 118
10, 96180, Note_on_c, 10, 79, 0
10, 96180, Note_on_c, 10, 78, 108
10, 96191, Control_c, 10, 11, 116
10, 96215, Control_c, 10, 11, 114
10, 96239, Control_c, 10, 11, 112
10, 96240, Note_on_c, 10, 78, 0
10, 96240, Note_on_c, 10, 79, 108
10, 96263, Control_c, 10, 11, 110
10, 96287, Control_c, 10, 11, 108
10, 96300, Note_on_c, 10, 79, 0
10, 96300, Note_on_c, 10, 81, 108
10, 96311, Control_c, 10, 11, 106
10, 96335, Control_c, 10, 11, 104
10, 96359, Control_c, 10, 11, 102
10, 96360, Note_on_c, 10, 81, 0
10, 96360, Note_on_c, 10, 83, 108
10, 96420, Note_on_c, 10, 83, 0
10, 96420, Note_on_c, 10, 79, 108
10, 96465, Note_on_c, 10, 79, 0
10, 96480, Note_on_c, 10, 84, 108
10, 96540, Note_on_c, 10, 84, 0
10, 96840, Control_c, 10, 11, 122
10, 96840, Note_on_c, 10, 81, 108
10, 96863, Control_c, 10, 11, 120
10, 96887, Control_c, 10, 11, 118
10, 96900, Note_on_c, 10, 81, 0
10, 96900, Note_on_c, 10, 80, 108
10, 96911, Control_c, 10, 11, 116
10, 96935, Control_c, 10, 11, 114
10, 96959, Control_c, 10, 11, 112
10, 96960, Note_on_c, 10, 80, 0
10, 96960, Note_on_c, 10, 81, 108
10, 96983, Control_c, 10, 11, 110
10, 97007, Control_c, 10, 11, 108
10, 97020, Note_on_c, 10, 81, 0
10, 97020, Note_on_c, 10, 77, 108
10, 97031, Control_c, 10, 11, 106
10, 97055, Control_c, 10, 11, 104
10, 97079, Control_c, 10, 11, 102
10, 97080, Note_on_c, 10, 77, 0
10, 97080, Note_on_c, 10, 72, 108
10, 97140, Note_on_c, 10, 72, 0
10, 97140, Note_on_c, 10, 69, 108
10, 97185, Note_on_c, 10, 69, 0
10, 97200, Note_on_c, 10, 67, 108
10, 97320, Note_on_c, 10, 67, 0
10, 97560, Note_on_c, 10, 79, 108
10, 97560, Control_c, 10, 11, 122
10, 97583, Control_c, 10, 11, 120
10, 97607, Control_c, 10, 11, 118
10, 97620, Note_on_c, 10, 79, 0
10, 97620, Note_on_c, 10, 78, 108
10, 97631, Control_c, 10, 11, 116
10, 97655, Control_c, 10, 11, 114
10, 97679, Control_c, 10, 11, 112
10, 97680, Note_on_c, 10, 78, 0
10, 97680, Note_on_c, 10, 79, 108
10, 97703, Control_c, 10, 11, 110
10, 97727, Control_c, 10, 11, 108
10, 97740, Note_on_c, 10, 79, 0
10, 97740, Note_on_c, 10, 81, 108
10, 97751, Control_c, 10, 11, 106
10, 97775, Control_c, 10, 11, 104
10, 97799, Control_c, 10, 11, 102
10, 97800, Note_on_c, 10, 81, 0
10, 97800, Note_on_c, 10, 83, 108
10, 97860, Note_on_c, 10, 83, 0
10, 97860, Note_on_c, 10, 79, 108
10, 97905, Note_on_c, 10, 79, 0
10, 97920, Note_on_c, 10, 84, 108
10, 97980, Note_on_c, 10, 84, 0
10, 98040, Control_c, 10, 11, 122
10, 98040, Note_on_c, 10, 79, 108
10, 98063, Control_c, 10, 11, 120
10, 98087, Control_c, 10, 11, 118
10, 98100, Note_on_c, 10, 79, 0
10, 98100, Note_on_c, 10, 81, 108
10, 98111, Control_c, 10, 11, 116
10, 98135, Control_c, 10, 11, 114
10, 98159, Control_c, 10, 11, 112
10, 98160, Note_on_c, 10, 81, 0
10, 98160, Note_on_c, 10, 83, 108
10, 98183, Control_c, 10, 11, 110
10, 98207, Control_c, 10, 11, 108
10, 98220, Note_on_c, 10, 83, 0
10, 98220, Note_on_c, 10, 79, 108
10, 98231, Control_c, 10, 11, 106
10, 98255, Control_c, 10, 11, 104
10, 98265, Note_on_c, 10, 79, 0
10, 98279, Control_c, 10, 11, 102
10, 98280, Note_on_c, 10, 84, 108
10, 98325, Note_on_c, 10, 84, 0
10, 98400, Note_on_c, 10, 79, 108
10, 98400, Control_c, 10, 11, 122
10, 98423, Control_c, 10, 11, 120
10, 98447, Control_c, 10, 11, 118
10, 98460, Note_on_c, 10, 79, 0
10, 98460, Note_on_c, 10, 78, 108
10, 98471, Control_c, 10, 11, 116
10, 98495, Control_c, 10, 11, 114
10, 98519, Control_c, 10, 11, 112
10, 98520, Note_on_c, 10, 78, 0
10, 98520, Note_on_c, 10, 79, 108
10, 98543, Control_c, 10, 11, 110
10, 98567, Control_c, 10, 11, 108
10, 98580, Note_on_c, 10, 79, 0
10, 98580, Note_on_c, 10, 78, 108
10, 98591, Control_c, 10, 11, 106
10, 98615, Control_c, 10, 11, 104
10, 98625, Note_on_c, 10, 78, 0
10, 98639, Control_c, 10, 11, 102
10, 98640, Note_on_c, 10, 79, 108
10, 98640, Control_c, 10, 11, 122
10, 98663, Control_c, 10, 11, 120
10, 98687, Control_c, 10, 11, 118
10, 98700, Note_on_c, 10, 79, 0
10, 98700, Note_on_c, 10, 81, 108
10, 98711, Control_c, 10, 11, 116
10, 98735, Control_c, 10, 11, 114
10, 98759, Control_c, 10, 11, 112
10, 98760, Note_on_c, 10, 81, 0
10, 98760, Note_on_c, 10, 83, 108
10, 98783, Control_c, 10, 11, 110
10, 98807, Control_c, 10, 11, 108
10, 98820, Note_on_c, 10, 83, 0
10, 98820, Note_on_c, 10, 84, 108
10, 98831, Control_c, 10, 11, 106
10, 98855, Control_c, 10, 11, 104
10, 98879, Control_c, 10, 11, 102
10, 98880, Note_on_c, 10, 84, 0
10, 98880, Note_on_c, 10, 86, 108
10, 98940, Note_on_c, 10, 86, 0
10, 98940, Note_on_c, 10, 83, 108
10, 98985, Note_on_c, 10, 83, 0
10, 99000, Note_on_c, 10, 84, 108
10, 99120, Note_on_c, 10, 84, 0
10, 99240, Note_on_c, 10, 67, 118
10, 99240, Control_c, 10, 11, 37
10, 99288, Control_c, 10, 11, 38
10, 99300, Note_on_c, 10, 67, 0
10, 99336, Control_c, 10, 11, 39
10, 99360, Note_on_c, 10, 69, 108
10, 99384, Control_c, 10, 11, 40
10, 99432, Control_c, 10, 11, 41
10, 99480, Note_on_c, 10, 69, 0
10, 99480, Control_c, 10, 11, 42
10, 99528, Control_c, 10, 11, 43
10, 99576, Control_c, 10, 11, 44
10, 99600, Note_on_c, 10, 71, 108
10, 99624, Control_c, 10, 11, 45
10, 99660, Note_on_c, 10, 71, 0
10, 99672, Control_c, 10, 11, 46
10, 99720, Note_on_c, 10, 72, 108
10, 99720, Control_c, 10, 11, 47
10, 99840, Note_on_c, 10, 72, 0
10, 99960, Note_on_c, 10, 74, 108
10, 100020, Note_on_c, 10, 74, 0
10, 100080, Note_on_c, 10, 76, 108
10, 100140, Note_on_c, 10, 76, 0
10, 100200, Note_on_c, 10, 76, 108
10, 100260, Note_on_c, 10, 76, 0
10, 100320, Note_on_c, 10, 78, 108
10, 100380, Note_on_c, 10, 78, 0
10, 100440, Note_on_c, 10, 79, 108
10, 100560, Note_on_c, 10, 79, 0
10, 100680, Note_on_c, 10, 80, 108
10, 100680, Control_c, 10, 11, 47
10, 100698, Control_c, 10, 11, 48
10, 100716, Control_c, 10, 11, 49
10, 100734, Control_c, 10, 11, 50
10, 100740, Note_on_c, 10, 80, 0
10, 100752, Control_c, 10, 11, 51
10, 100770, Control_c, 10, 11, 52
10, 100788, Control_c, 10, 11, 53
10, 100800, Note_on_c, 10, 81, 108
10, 100806, Control_c, 10, 11, 54
10, 100824, Control_c, 10, 11, 55
10, 100842, Control_c, 10, 11, 56
10, 100860, Control_c, 10, 11, 57
10, 100878, Control_c, 10, 11, 58
10, 100896, Control_c, 10, 11, 59
10, 100914, Control_c, 10, 11, 60
10, 100920, Note_on_c, 10, 81, 0
10, 100932, Control_c, 10, 11, 61
10, 100950, Control_c, 10, 11, 62
10, 100968, Control_c, 10, 11, 63
10, 100986, Control_c, 10, 11, 64
10, 101004, Control_c, 10, 11, 65
10, 101022, Control_c, 10, 11, 66
10, 101040, Control_c, 10, 11, 67
10, 101040, Note_on_c, 10, 83, 108
10, 101058, Control_c, 10, 11, 68
10, 101076, Control_c, 10, 11, 69
10, 101094, Control_c, 10, 11, 70
10, 101100, Note_on_c, 10, 83, 0
10, 101112, Control_c, 10, 11, 71
10, 101130, Control_c, 10, 11, 72
10, 101148, Control_c, 10, 11, 73
10, 101160, Note_on_c, 10, 84, 108
10, 101166, Control_c, 10, 11, 74
10, 101184, Control_c, 10, 11, 75
10, 101202, Control_c, 10, 11, 76
10, 101220, Control_c, 10, 11, 77
10, 101238, Control_c, 10, 11, 78
10, 101256, Control_c, 10, 11, 79
10, 101274, Control_c, 10, 11, 80
10, 101280, Note_on_c, 10, 84, 0
10, 101292, Control_c, 10, 11, 81
10, 101310, Control_c, 10, 11, 82
10, 101328, Control_c, 10, 11, 83
10, 101346, Control_c, 10, 11, 84
10, 101364, Control_c, 10, 11, 85
10, 101382, Control_c, 10, 11, 86
10, 101400, Note_on_c, 10, 85, 108
10, 101400, Control_c, 10, 11, 87
10, 101460, Note_on_c, 10, 85, 0
10, 101520, Note_on_c, 10, 86, 108
10, 101580, Note_on_c, 10, 86, 0
10, 101640, Note_on_c, 10, 86, 108
10, 101700, Note_on_c, 10, 86, 0
10, 101760, Note_on_c, 10, 86, 108
10, 101820, Note_on_c, 10, 86, 0
10, 101880, Note_on_c, 10, 79, 108
10, 102000, Note_on_c, 10, 79, 0
10, 102120, Control_c, 10, 11, 57
10, 102120, Note_on_c, 10, 67, 108
10, 102180, Note_on_c, 10, 67, 0
10, 102240, Control_c, 10, 11, 39
10, 102240, Note_on_c, 10, 69, 108
10, 102264, Control_c, 10, 11, 40
10, 102312, Control_c, 10, 11, 41
10, 102360, Note_on_c, 10, 69, 0
10, 102360, Control_c, 10, 11, 42
10, 102408, Control_c, 10, 11, 43
10, 102456, Control_c, 10, 11, 44
10, 102480, Note_on_c, 10, 71, 108
10, 102504, Control_c, 10, 11, 45
10, 102540, Note_on_c, 10, 71, 0
10, 102552, Control_c, 10, 11, 46
10, 102600, Note_on_c, 10, 72, 108
10, 102600, Control_c, 10, 11, 47
10, 102720, Note_on_c, 10, 72, 0
10, 102840, Note_on_c, 10, 74, 108
10, 102900, Note_on_c, 10, 74, 0
10, 102960, Note_on_c, 10, 76, 108
10, 103020, Note_on_c, 10, 76, 0
10, 103080, Note_on_c, 10, 76, 108
10, 103140, Note_on_c, 10, 76, 0
10, 103200, Note_on_c, 10, 78, 108
10, 103260, Note_on_c, 10, 78, 0
10, 103320, Note_on_c, 10, 79, 108
10, 103440, Note_on_c, 10, 79, 0
10, 103560, Control_c, 10, 11, 47
10, 103560, Note_on_c, 10, 80, 108
10, 103578, Control_c, 10, 11, 48
10, 103596, Control_c, 10, 11, 49
10, 103614, Control_c, 10, 11, 50
10, 103620, Note_on_c, 10, 80, 0
10, 103632, Control_c, 10, 11, 51
10, 103650, Control_c, 10, 11, 52
10, 103668, Control_c, 10, 11, 53
10, 103680, Note_on_c, 10, 81, 108
10, 103686, Control_c, 10, 11, 54
10, 103704, Control_c, 10, 11, 55
10, 103722, Control_c, 10, 11, 56
10, 103740, Control_c, 10, 11, 57
10, 103758, Control_c, 10, 11, 58
10, 103776, Control_c, 10, 11, 59
10, 103794, Control_c, 10, 11, 60
10, 103800, Note_on_c, 10, 81, 0
10, 103812, Control_c, 10, 11, 61
10, 103830, Control_c, 10, 11, 62
10, 103848, Control_c, 10, 11, 63
10, 103866, Control_c, 10, 11, 64
10, 103884, Control_c, 10, 11, 65
10, 103902, Control_c, 10, 11, 66
10, 103920, Note_on_c, 10, 83, 108
10, 103920, Control_c, 10, 11, 67
10, 103938, Control_c, 10, 11, 68
10, 103956, Control_c, 10, 11, 69
10, 103974, Control_c, 10, 11, 70
10, 103980, Note_on_c, 10, 83, 0
10, 103992, Control_c, 10, 11, 71
10, 104010, Control_c, 10, 11, 72
10, 104028, Control_c, 10, 11, 73
10, 104040, Note_on_c, 10, 84, 108
10, 104046, Control_c, 10, 11, 74
10, 104064, Control_c, 10, 11, 75
10, 104082, Control_c, 10, 11, 76
10, 104100, Control_c, 10, 11, 77
10, 104118, Control_c, 10, 11, 78
10, 104136, Control_c, 10, 11, 79
10, 104154, Control_c, 10, 11, 80
10, 104160, Note_on_c, 10, 84, 0
10, 104172, Control_c, 10, 11, 81
10, 104190, Control_c, 10, 11, 82
10, 104208, Control_c, 10, 11, 83
10, 104226, Control_c, 10, 11, 84
10, 104244, Control_c, 10, 11, 85
10, 104262, Control_c, 10, 11, 86
10, 104280, Note_on_c, 10, 85, 108
10, 104280, Control_c, 10, 11, 87
10, 104340, Note_on_c, 10, 85, 0
10, 104400, Note_on_c, 10, 86, 108
10, 104460, Note_on_c, 10, 86, 0
10, 104520, Note_on_c, 10, 86, 108
10, 104580, Note_on_c, 10, 86, 0
10, 104640, Note_on_c, 10, 86, 108
10, 104700, Note_on_c, 10, 86, 0
10, 104760, Note_on_c, 10, 79, 108
10, 104880, Note_on_c, 10, 79, 0
10, 105000, Note_on_c, 10, 79, 118
10, 105000, Control_c, 10, 11, 47
10, 105060, Note_on_c, 10, 79, 0
10, 105120, Note_on_c, 10, 80, 108
10, 105360, Note_on_c, 10, 80, 0
10, 105360, Note_on_c, 10, 79, 108
10, 105450, Note_on_c, 10, 79, 0
10, 105480, Note_on_c, 10, 80, 108
10, 105720, Note_on_c, 10, 80, 0
10, 105720, Note_on_c, 10, 79, 108
10, 105810, Note_on_c, 10, 79, 0
10, 105840, Note_on_c, 10, 80, 108
10, 105900, Note_on_c, 10, 80, 0
10, 105960, Note_on_c, 10, 80, 108
10, 105960, Control_c, 10, 11, 87
10, 106020, Note_on_c, 10, 80, 0
10, 106080, Note_on_c, 10, 80, 108
10, 106140, Note_on_c, 10, 80, 0
10, 106200, Note_on_c, 10, 80, 108
10, 106320, Note_on_c, 10, 80, 0
10, 106320, Note_on_c, 10, 79, 108
10, 106410, Note_on_c, 10, 79, 0
10, 106410, Control_c, 10, 11, 87
10, 106414, Control_c, 10, 11, 84
10, 106419, Control_c, 10, 11, 81
10, 106423, Control_c, 10, 11, 78
10, 106428, Control_c, 10, 11, 75
10, 106432, Control_c, 10, 11, 72
10, 106437, Control_c, 10, 11, 69
10, 106440, Note_on_c, 10, 75, 118
10, 106500, Note_on_c, 10, 75, 0
10, 106560, Note_on_c, 10, 77, 108
10, 106560, Control_c, 10, 11, 47
10, 106800, Note_on_c, 10, 77, 0
10, 106800, Note_on_c, 10, 75, 108
10, 106890, Note_on_c, 10, 75, 0
10, 106920, Note_on_c, 10, 77, 108
10, 107160, Note_on_c, 10, 77, 0
10, 107160, Note_on_c, 10, 75, 108
10, 107250, Note_on_c, 10, 75, 0
10, 107280, Note_on_c, 10, 77, 108
10, 107340, Note_on_c, 10, 77, 0
10, 107400, Control_c, 10, 11, 87
10, 107400, Note_on_c, 10, 77, 108
10, 107460, Note_on_c, 10, 77, 0
10, 107520, Note_on_c, 10, 77, 108
10, 107580, Note_on_c, 10, 77, 0
10, 107640, Note_on_c, 10, 77, 108
10, 107760, Note_on_c, 10, 77, 0
10, 107760, Note_on_c, 10, 75, 108
10, 107850, Note_on_c, 10, 75, 0
10, 107880, Note_on_c, 10, 72, 101
10, 107940, Note_on_c, 10, 72, 0
10, 108000, Note_on_c, 10, 73, 93
10, 108060, Note_on_c, 10, 73, 0
10, 108120, Note_on_c, 10, 73, 108
10, 108180, Note_on_c, 10, 73, 0
10, 108240, Note_on_c, 10, 73, 108
10, 108300, Note_on_c, 10, 73, 0
10, 108360, Note_on_c, 10, 73, 108
10, 108480, Note_on_c, 10, 73, 0
10, 108480, Note_on_c, 10, 72, 108
10, 108570, Note_on_c, 10, 72, 0
10, 108600, Note_on_c, 10, 68, 93
10, 108660, Note_on_c, 10, 68, 0
10, 108720, Control_c, 10, 11, 102
10, 108720, Note_on_c, 10, 70, 93
10, 108780, Note_on_c, 10, 70, 0
10, 108840, Note_on_c, 10, 70, 108
10, 108900, Note_on_c, 10, 70, 0
10, 108960, Note_on_c, 10, 70, 108
10, 109020, Note_on_c, 10, 70, 0
10, 109080, Note_on_c, 10, 70, 108
10, 109140, Note_on_c, 10, 70, 0
10, 109200, Note_on_c, 10, 70, 108
10, 109260, Note_on_c, 10, 70, 0
10, 109320, Note_on_c, 10, 70, 108
10, 109380, Note_on_c, 10, 70, 0
10, 109440, Note_on_c, 10, 70, 108
10, 109440, Control_c, 10, 11, 122
10, 109457, Control_c, 10, 11, 119
10, 109475, Control_c, 10, 11, 116
10, 109493, Control_c, 10, 11, 113
10, 109511, Control_c, 10, 11, 110
10, 109529, Control_c, 10, 11, 107
10, 109547, Control_c, 10, 11, 104
10, 109560, Note_on_c, 10, 70, 0
10, 109560, Note_on_c, 10, 68, 108
10, 109650, Note_on_c, 10, 68, 0
10, 109680, Note_on_c, 10, 65, 108
10, 109740, Note_on_c, 10, 65, 0
10, 109800, Note_on_c, 10, 68, 108
10, 109800, Control_c, 10, 11, 122
10, 109817, Control_c, 10, 11, 119
10, 109835, Control_c, 10, 11, 116
10, 109853, Control_c, 10, 11, 113
10, 109871, Control_c, 10, 11, 110
10, 109889, Control_c, 10, 11, 107
10, 109907, Control_c, 10, 11, 104
10, 109920, Note_on_c, 10, 68, 0
10, 109920, Note_on_c, 10, 66, 108
10, 110010, Note_on_c, 10, 66, 0
10, 110040, Note_on_c, 10, 63, 108
10, 110100, Note_on_c, 10, 63, 0
10, 110160, Note_on_c, 10, 66, 108
10, 110160, Control_c, 10, 11, 122
10, 110177, Control_c, 10, 11, 119
10, 110195, Control_c, 10, 11, 116
10, 110213, Control_c, 10, 11, 113
10, 110231, Control_c, 10, 11, 110
10, 110249, Control_c, 10, 11, 107
10, 110267, Control_c, 10, 11, 104
10, 110280, Note_on_c, 10, 66, 0
10, 110280, Note_on_c, 10, 65, 108
10, 110370, Note_on_c, 10, 65, 0
10, 110400, Note_on_c, 10, 61, 108
10, 110460, Note_on_c, 10, 61, 0
10, 110520, Note_on_c, 10, 65, 108
10, 110520, Control_c, 10, 11, 122
10, 110537, Control_c, 10, 11, 119
10, 110555, Control_c, 10, 11, 116
10, 110573, Control_c, 10, 11, 113
10, 110591, Control_c, 10, 11, 110
10, 110609, Control_c, 10, 11, 107
10, 110627, Control_c, 10, 11, 104
10, 110640, Note_on_c, 10, 65, 0
10, 110640, Note_on_c, 10, 63, 108
10, 110730, Note_on_c, 10, 63, 0
10, 110760, Note_on_c, 10, 60, 108
10, 110820, Note_on_c, 10, 60, 0
10, 110880, Note_on_c, 10, 61, 72
10, 110880, Control_c, 10, 11, 122
10, 110898, Control_c, 10, 11, 119
10, 110916, Control_c, 10, 11, 116
10, 110934, Control_c, 10, 11, 113
10, 110952, Control_c, 10, 11, 110
10, 110970, Control_c, 10, 11, 107
10, 110988, Control_c, 10, 11, 104
10, 111000, Note_on_c, 10, 61, 0
10, 111120, Note_on_c, 10, 78, 87
10, 111120, Control_c, 10, 11, 47
10, 111180, Note_on_c, 10, 78, 0
10, 111240, Note_on_c, 10, 78, 80
10, 111300, Note_on_c, 10, 78, 0
10, 111360, Note_on_c, 10, 78, 80
10, 111420, Note_on_c, 10, 78, 0
10, 111480, Note_on_c, 10, 78, 80
10, 111540, Note_on_c, 10, 78, 0
10, 111600, Note_on_c, 10, 78, 80
10, 111720, Note_on_c, 10, 78, 0
10, 111720, Note_on_c, 10, 77, 80
10, 111810, Note_on_c, 10, 77, 0
10, 111840, Note_on_c, 10, 75, 87
10, 111900, Note_on_c, 10, 75, 0
10, 111960, Note_on_c, 10, 75, 80
10, 112020, Note_on_c, 10, 75, 0
10, 112080, Note_on_c, 10, 75, 80
10, 112140, Note_on_c, 10, 75, 0
10, 112200, Note_on_c, 10, 75, 80
10, 112260, Note_on_c, 10, 75, 0
10, 112320, Note_on_c, 10, 75, 80
10, 112440, Note_on_c, 10, 75, 0
10, 112440, Note_on_c, 10, 73, 80
10, 112530, Note_on_c, 10, 73, 0
10, 112560, Note_on_c, 10, 78, 87
10, 112620, Note_on_c, 10, 78, 0
10, 112680, Note_on_c, 10, 78, 80
10, 112740, Note_on_c, 10, 78, 0
10, 112800, Note_on_c, 10, 78, 80
10, 112860, Note_on_c, 10, 78, 0
10, 112920, Note_on_c, 10, 78, 80
10, 112980, Note_on_c, 10, 78, 0
10, 113040, Note_on_c, 10, 78, 80
10, 113160, Note_on_c, 10, 78, 0
10, 113160, Note_on_c, 10, 77, 80
10, 113250, Note_on_c, 10, 77, 0
10, 113280, Note_on_c, 10, 75, 87
10, 113340, Note_on_c, 10, 75, 0
10, 113400, Note_on_c, 10, 75, 80
10, 113460, Note_on_c, 10, 75, 0
10, 113520, Note_on_c, 10, 75, 80
10, 113580, Note_on_c, 10, 75, 0
10, 113640, Note_on_c, 10, 75, 80
10, 113700, Note_on_c, 10, 75, 0
10, 113760, Note_on_c, 10, 73, 80
10, 113850, Note_on_c, 10, 73, 0
10, 113850, Control_c, 10, 11, 47
10, 113856, Control_c, 10, 11, 44
10, 113862, Control_c, 10, 11, 41
10, 113868, Control_c, 10, 11, 38
10, 113874, Control_c, 10, 11, 35
10, 113880, Control_c, 10, 11, 32
10, 113880, Note_on_c, 10, 65, 108
10, 113970, Note_on_c, 10, 65, 0
10, 114000, Note_on_c, 10, 65, 108
10, 114090, Note_on_c, 10, 65, 0
10, 114120, Note_on_c, 10, 65, 108
10, 114210, Note_on_c, 10, 65, 0
10, 114240, Note_on_c, 10, 65, 108
10, 114330, Note_on_c, 10, 65, 0
10, 114360, Note_on_c, 10, 65, 108
10, 114450, Note_on_c, 10, 65, 0
10, 114480, Note_on_c, 10, 65, 108
10, 114570, Note_on_c, 10, 65, 0
10, 114600, Note_on_c, 10, 65, 108
10, 114690, Note_on_c, 10, 65, 0
10, 114720, Note_on_c, 10, 65, 108
10, 114810, Note_on_c, 10, 65, 0
10, 114840, Note_on_c, 10, 65, 108
10, 114930, Note_on_c, 10, 65, 0
10, 114960, Note_on_c, 10, 65, 108
10, 115050, Note_on_c, 10, 65, 0
10, 115080, Note_on_c, 10, 65, 108
10, 115170, Note_on_c, 10, 65, 0
10, 115200, Note_on_c, 10, 66, 108
10, 115290, Note_on_c, 10, 66, 0
10, 115320, Note_on_c, 10, 66, 108
10, 115410, Note_on_c, 10, 66, 0
10, 115440, Note_on_c, 10, 66, 108
10, 115530, Note_on_c, 10, 66, 0
10, 115560, Note_on_c, 10, 66, 108
10, 115650, Note_on_c, 10, 66, 0
10, 115680, Note_on_c, 10, 66, 108
10, 115770, Note_on_c, 10, 66, 0
10, 115800, Note_on_c, 10, 66, 108
10, 115890, Note_on_c, 10, 66, 0
10, 115920, Note_on_c, 10, 66, 108
10, 116010, Note_on_c, 10, 66, 0
10, 116040, Note_on_c, 10, 66, 108
10, 116130, Note_on_c, 10, 66, 0
10, 116160, Note_on_c, 10, 66, 108
10, 116250, Note_on_c, 10, 66, 0
10, 116280, Note_on_c, 10, 66, 108
10, 116370, Note_on_c, 10, 66, 0
10, 116400, Note_on_c, 10, 66, 108
10, 116490, Note_on_c, 10, 66, 0
10, 116520, Note_on_c, 10, 66, 108
10, 116610, Note_on_c, 10, 66, 0
10, 116640, Note_on_c, 10, 67, 108
10, 116640, Control_c, 10, 11, 37
10, 116666, Control_c, 10, 11, 38
10, 116692, Control_c, 10, 11, 39
10, 116719, Control_c, 10, 11, 40
10, 116730, Note_on_c, 10, 67, 0
10, 116745, Control_c, 10, 11, 41
10, 116760, Note_on_c, 10, 67, 108
10, 116772, Control_c, 10, 11, 42
10, 116798, Control_c, 10, 11, 43
10, 116824, Control_c, 10, 11, 44
10, 116850, Note_on_c, 10, 67, 0
10, 116851, Control_c, 10, 11, 45
10, 116877, Control_c, 10, 11, 46
10, 116880, Note_on_c, 10, 67, 108
10, 116904, Control_c, 10, 11, 47
10, 116930, Control_c, 10, 11, 48
10, 116956, Control_c, 10, 11, 49
10, 116970, Note_on_c, 10, 67, 0
10, 116983, Control_c, 10, 11, 50
10, 117000, Note_on_c, 10, 67, 108
10, 117009, Control_c, 10, 11, 51
10, 117036, Control_c, 10, 11, 52
10, 117062, Control_c, 10, 11, 53
10, 117088, Control_c, 10, 11, 54
10, 117090, Note_on_c, 10, 67, 0
10, 117115, Control_c, 10, 11, 55
10, 117120, Note_on_c, 10, 67, 108
10, 117141, Control_c, 10, 11, 56
10, 117168, Control_c, 10, 11, 57
10, 117194, Control_c, 10, 11, 58
10, 117210, Note_on_c, 10, 67, 0
10, 117220, Control_c, 10, 11, 59
10, 117240, Note_on_c, 10, 67, 108
10, 117247, Control_c, 10, 11, 60
10, 117273, Control_c, 10, 11, 61
10, 117300, Control_c, 10, 11, 62
10, 117326, Control_c, 10, 11, 63
10, 117330, Note_on_c, 10, 67, 0
10, 117352, Control_c, 10, 11, 64
10, 117360, Note_on_c, 10, 67, 108
10, 117379, Control_c, 10, 11, 65
10, 117405, Control_c, 10, 11, 66
10, 117432, Control_c, 10, 11, 67
10, 117450, Note_on_c, 10, 67, 0
10, 117458, Control_c, 10, 11, 68
10, 117480, Note_on_c, 10, 67, 108
10, 117484, Control_c, 10, 11, 69
10, 117511, Control_c, 10, 11, 70
10, 117537, Control_c, 10, 11, 71
10, 117564, Control_c, 10, 11, 72
10, 117570, Note_on_c, 10, 67, 0
10, 117590, Control_c, 10, 11, 73
10, 117600, Note_on_c, 10, 67, 108
10, 117616, Control_c, 10, 11, 74
10, 117643, Control_c, 10, 11, 75
10, 117669, Control_c, 10, 11, 76
10, 117690, Note_on_c, 10, 67, 0
10, 117696, Control_c, 10, 11, 77
10, 117720, Note_on_c, 10, 67, 108
10, 117722, Control_c, 10, 11, 78
10, 117748, Control_c, 10, 11, 79
10, 117775, Control_c, 10, 11, 80
10, 117801, Control_c, 10, 11, 81
10, 117810, Note_on_c, 10, 67, 0
10, 117828, Control_c, 10, 11, 82
10, 117840, Note_on_c, 10, 67, 108
10, 117854, Control_c, 10, 11, 83
10, 117880, Control_c, 10, 11, 84
10, 117907, Control_c, 10, 11, 85
10, 117930, Note_on_c, 10, 67, 0
10, 117933, Control_c, 10, 11, 86
10, 117960, Note_on_c, 10, 67, 108
10, 117960, Control_c, 10, 11, 87
10, 118020, Note_on_c, 10, 67, 0
10, 118080, Note_on_c, 10, 69, 108
10, 118200, Note_on_c, 10, 69, 0
10, 118320, Note_on_c, 10, 71, 108
10, 118380, Note_on_c, 10, 71, 0
10, 118440, Note_on_c, 10, 72, 108
10, 118560, Note_on_c, 10, 72, 0
10, 118680, Note_on_c, 10, 74, 108
10, 118740, Note_on_c, 10, 74, 0
10, 118800, Note_on_c, 10, 76, 108
10, 118860, Note_on_c, 10, 76, 0
10, 118920, Note_on_c, 10, 76, 108
10, 118980, Note_on_c, 10, 76, 0
10, 119040, Note_on_c, 10, 78, 108
10, 119100, Note_on_c, 10, 78, 0
10, 119160, Note_on_c, 10, 79, 108
10, 119280, Note_on_c, 10, 79, 0
10, 119400, Note_on_c, 10, 80, 108
10, 119400, Control_c, 10, 11, 102
10, 119460, Note_on_c, 10, 80, 0
10, 119520, Note_on_c, 10, 81, 108
10, 119640, Note_on_c, 10, 81, 0
10, 119760, Note_on_c, 10, 83, 108
10, 119820, Note_on_c, 10, 83, 0
10, 119880, Note_on_c, 10, 84, 108
10, 120000, Note_on_c, 10, 84, 0
10, 120120, Note_on_c, 10, 86, 108
10, 120180, Note_on_c, 10, 86, 0
10, 120240, Note_on_c, 10, 88, 108
10, 120300, Note_on_c, 10, 88, 0
10, 120360, Note_on_c, 10, 88, 108
10, 120420, Note_on_c, 10, 88, 0
10, 120480, Note_on_c, 10, 90, 108
10, 120540, Note_on_c, 10, 90, 0
10, 120600, Note_on_c, 10, 91, 108
10, 120600, Control_c, 10, 11, 122
10, 120617, Control_c, 10, 11, 119
10, 120635, Control_c, 10, 11, 116
10, 120653, Control_c, 10, 11, 113
10, 120671, Control_c, 10, 11, 110
10, 120689, Control_c, 10, 11, 107
10, 120707, Control_c, 10, 11, 104
10, 120720, Note_on_c, 10, 91, 0
10, 120840, Note_on_c, 10, 84, 108
10, 120900, Note_on_c, 10, 84, 0
10, 120960, Note_on_c, 10, 86, 108
10, 121020, Note_on_c, 10, 86, 0
10, 121080, Note_on_c, 10, 86, 108
10, 121140, Note_on_c, 10, 86, 0
10, 121200, Note_on_c, 10, 88, 108
10, 121260, Note_on_c, 10, 88, 0
10, 121320, Control_c, 10, 11, 122
10, 121320, Note_on_c, 10, 89, 108
10, 121337, Control_c, 10, 11, 119
10, 121355, Control_c, 10, 11, 116
10, 121373, Control_c, 10, 11, 113
10, 121391, Control_c, 10, 11, 110
10, 121409, Control_c, 10, 11, 107
10, 121427, Control_c, 10, 11, 104
10, 121440, Note_on_c, 10, 89, 0
10, 121560, Note_on_c, 10, 79, 108
10, 121620, Note_on_c, 10, 79, 0
10, 121680, Note_on_c, 10, 81, 108
10, 121740, Note_on_c, 10, 81, 0
10, 121800, Note_on_c, 10, 81, 108
10, 121860, Note_on_c, 10, 81, 0
10, 121920, Note_on_c, 10, 83, 108
10, 121980, Note_on_c, 10, 83, 0
10, 122040, Control_c, 10, 11, 122
10, 122040, Note_on_c, 10, 84, 108
10, 122057, Control_c, 10, 11, 119
10, 122075, Control_c, 10, 11, 116
10, 122093, Control_c, 10, 11, 113
10, 122111, Control_c, 10, 11, 110
10, 122129, Control_c, 10, 11, 107
10, 122147, Control_c, 10, 11, 104
10, 122160, Note_on_c, 10, 84, 0
10, 122280, Note_on_c, 10, 81, 108
10, 122340, Note_on_c, 10, 81, 0
10, 122400, Note_on_c, 10, 79, 108
10, 122520, Note_on_c, 10, 79, 0
10, 122640, Note_on_c, 10, 71, 108
10, 122700, Note_on_c, 10, 71, 0
10, 122760, Note_on_c, 10, 72, 108
10, 122880, Note_on_c, 10, 72, 0
10, 123000, Note_on_c, 10, 72, 88
10, 123060, Note_on_c, 10, 72, 0
10, 123120, Note_on_c, 10, 73, 88
10, 123120, Control_c, 10, 11, 122
10, 123143, Control_c, 10, 11, 120
10, 123167, Control_c, 10, 11, 118
10, 123191, Control_c, 10, 11, 116
10, 123215, Control_c, 10, 11, 114
10, 123239, Control_c, 10, 11, 112
10, 123263, Control_c, 10, 11, 110
10, 123287, Control_c, 10, 11, 108
10, 123311, Control_c, 10, 11, 106
10, 123335, Control_c, 10, 11, 104
10, 123359, Control_c, 10, 11, 102
10, 123360, Note_on_c, 10, 73, 0
10, 123360, Note_on_c, 10, 71, 88
10, 123480, Note_on_c, 10, 71, 0
10, 123480, Note_on_c, 10, 72, 88
10, 123540, Note_on_c, 10, 72, 0
10, 123720, Note_on_c, 10, 72, 88
10, 123780, Note_on_c, 10, 72, 0
10, 123840, Note_on_c, 10, 74, 88
10, 123840, Control_c, 10, 11, 122
10, 123863, Control_c, 10, 11, 120
10, 123887, Control_c, 10, 11, 118
10, 123911, Control_c, 10, 11, 116
10, 123935, Control_c, 10, 11, 114
10, 123959, Control_c, 10, 11, 112
10, 123983, Control_c, 10, 11, 110
10, 124007, Control_c, 10, 11, 108
10, 124031, Control_c, 10, 11, 106
10, 124055, Control_c, 10, 11, 104
10, 124079, Control_c, 10, 11, 102
10, 124080, Note_on_c, 10, 74, 0
10, 124080, Note_on_c, 10, 71, 88
10, 124180, Note_on_c, 10, 71, 0
10, 124200, Note_on_c, 10, 72, 88
10, 124260, Note_on_c, 10, 72, 0
10, 124320, Note_on_c, 10, 73, 88
10, 124320, Control_c, 10, 11, 122
10, 124337, Control_c, 10, 11, 119
10, 124355, Control_c, 10, 11, 116
10, 124373, Control_c, 10, 11, 113
10, 124391, Control_c, 10, 11, 110
10, 124409, Control_c, 10, 11, 107
10, 124427, Control_c, 10, 11, 104
10, 124440, Note_on_c, 10, 73, 0
10, 124440, Note_on_c, 10, 71, 88
10, 124540, Note_on_c, 10, 71, 0
10, 124560, Note_on_c, 10, 72, 88
10, 124620, Note_on_c, 10, 72, 0
10, 124680, Note_on_c, 10, 74, 88
10, 124680, Control_c, 10, 11, 122
10, 124697, Control_c, 10, 11, 119
10, 124715, Control_c, 10, 11, 116
10, 124733, Control_c, 10, 11, 113
10, 124751, Control_c, 10, 11, 110
10, 124769, Control_c, 10, 11, 107
10, 124787, Control_c, 10, 11, 104
10, 124800, Note_on_c, 10, 74, 0
10, 124800, Note_on_c, 10, 71, 88
10, 124900, Note_on_c, 10, 71, 0
10, 124920, Note_on_c, 10, 72, 88
10, 124980, Note_on_c, 10, 72, 0
10, 125040, Note_on_c, 10, 73, 88
10, 125040, Control_c, 10, 11, 122
10, 125057, Control_c, 10, 11, 119
10, 125075, Control_c, 10, 11, 116
10, 125093, Control_c, 10, 11, 113
10, 125111, Control_c, 10, 11, 110
10, 125129, Control_c, 10, 11, 107
10, 125147, Control_c, 10, 11, 104
10, 125160, Note_on_c, 10, 73, 0
10, 125160, Note_on_c, 10, 71, 88
10, 125260, Note_on_c, 10, 71, 0
10, 125280, Note_on_c, 10, 72, 88
10, 125340, Note_on_c, 10, 72, 0
10, 125400, Control_c, 10, 11, 122
10, 125400, Note_on_c, 10, 74, 88
10, 125417, Control_c, 10, 11, 119
10, 125435, Control_c, 10, 11, 116
10, 125453, Control_c, 10, 11, 113
10, 125471, Control_c, 10, 11, 110
10, 125489, Control_c, 10, 11, 107
10, 125507, Control_c, 10, 11, 104
10, 125520, Note_on_c, 10, 74, 0
10, 125520, Note_on_c, 10, 71, 88
10, 125523, Control_c, 10, 11, 101
10, 125533, Control_c, 10, 11, 98
10, 125543, Control_c, 10, 11, 95
10, 125554, Control_c, 10, 11, 92
10, 125564, Control_c, 10, 11, 89
10, 125574, Control_c, 10, 11, 86
10, 125584, Control_c, 10, 11, 83
10, 125594, Control_c, 10, 11, 80
10, 125605, Control_c, 10, 11, 77
10, 125615, Control_c, 10, 11, 74
10, 125620, Note_on_c, 10, 71, 0
10, 125625, Control_c, 10, 11, 71
10, 125635, Control_c, 10, 11, 68
10, 125640, Control_c, 10, 11, 47
10, 125640, Note_on_c, 10, 72, 108
10, 125700, Note_on_c, 10, 72, 0
10, 125760, Note_on_c, 10, 76, 108
10, 125820, Note_on_c, 10, 76, 0
10, 125880, Note_on_c, 10, 79, 108
10, 126090, Note_on_c, 10, 79, 0
10, 126120, Note_on_c, 10, 81, 108
10, 126180, Note_on_c, 10, 81, 0
10, 126240, Note_on_c, 10, 83, 108
10, 126450, Note_on_c, 10, 83, 0
10, 126480, Note_on_c, 10, 84, 108
10, 126540, Note_on_c, 10, 84, 0
10, 126600, Note_on_c, 10, 79, 108
10, 126810, Note_on_c, 10, 79, 0
10, 126840, Note_on_c, 10, 77, 108
10, 126900, Note_on_c, 10, 77, 0
10, 126960, Note_on_c, 10, 74, 108
10, 127020, Note_on_c, 10, 74, 0
10, 127080, Note_on_c, 10, 72, 108
10, 127080, Control_c, 10, 11, 47
10, 127116, Control_c, 10, 11, 48
10, 127140, Note_on_c, 10, 72, 0
10, 127152, Control_c, 10, 11, 49
10, 127188, Control_c, 10, 11, 50
10, 127200, Note_on_c, 10, 76, 108
10, 127224, Control_c, 10, 11, 51
10, 127260, Note_on_c, 10, 76, 0
10, 127260, Control_c, 10, 11, 52
10, 127296, Control_c, 10, 11, 53
10, 127320, Note_on_c, 10, 79, 108
10, 127332, Control_c, 10, 11, 54
10, 127368, Control_c, 10, 11, 55
10, 127404, Control_c, 10, 11, 56
10, 127440, Control_c, 10, 11, 57
10, 127476, Control_c, 10, 11, 58
10, 127512, Control_c, 10, 11, 59
10, 127530, Note_on_c, 10, 79, 0
10, 127548, Control_c, 10, 11, 60
10, 127560, Note_on_c, 10, 81, 108
10, 127584, Control_c, 10, 11, 61
10, 127620, Note_on_c, 10, 81, 0
10, 127620, Control_c, 10, 11, 62
10, 127656, Control_c, 10, 11, 63
10, 127680, Note_on_c, 10, 83, 108
10, 127692, Control_c, 10, 11, 64
10, 127728, Control_c, 10, 11, 65
10, 127764, Control_c, 10, 11, 66
10, 127800, Control_c, 10, 11, 67
10, 127836, Control_c, 10, 11, 68
10, 127872, Control_c, 10, 11, 69
10, 127890, Note_on_c, 10, 83, 0
10, 127908, Control_c, 10, 11, 70
10, 127920, Note_on_c, 10, 84, 108
10, 127944, Control_c, 10, 11, 71
10, 127980, Note_on_c, 10, 84, 0
10, 127980, Control_c, 10, 11, 72
10, 128016, Control_c, 10, 11, 73
10, 128040, Note_on_c, 10, 79, 108
10, 128052, Control_c, 10, 11, 74
10, 128088, Control_c, 10, 11, 75
10, 128124, Control_c, 10, 11, 76
10, 128160, Control_c, 10, 11, 77
10, 128196, Control_c, 10, 11, 78
10, 128232, Control_c, 10, 11, 79
10, 128250, Note_on_c, 10, 79, 0
10, 128268, Control_c, 10, 11, 80
10, 128280, Note_on_c, 10, 77, 108
10, 128304, Control_c, 10, 11, 81
10, 128340, Note_on_c, 10, 77, 0
10, 128340, Control_c, 10, 11, 82
10, 128376, Control_c, 10, 11, 83
10, 128400, Note_on_c, 10, 74, 108
10, 128412, Control_c, 10, 11, 84
10, 128448, Control_c, 10, 11, 85
10, 128460, Note_on_c, 10, 74, 0
10, 128484, Control_c, 10, 11, 86
10, 128520, Note_on_c, 10, 72, 108
10, 128520, Control_c, 10, 11, 87
10, 128580, Note_on_c, 10, 72, 0
10, 128640, Note_on_c, 10, 76, 108
10, 128700, Note_on_c, 10, 76, 0
10, 128760, Control_c, 10, 11, 107
10, 128760, Note_on_c, 10, 79, 108
10, 128778, Control_c, 10, 11, 104
10, 128796, Control_c, 10, 11, 101
10, 128814, Control_c, 10, 11, 98
10, 128832, Control_c, 10, 11, 95
10, 128850, Control_c, 10, 11, 92
10, 128868, Control_c, 10, 11, 89
10, 128970, Note_on_c, 10, 79, 0
10, 129000, Note_on_c, 10, 77, 108
10, 129060, Note_on_c, 10, 77, 0
10, 129120, Note_on_c, 10, 74, 108
10, 129180, Note_on_c, 10, 74, 0
10, 129240, Note_on_c, 10, 72, 108
10, 129240, Control_c, 10, 11, 102
10, 129300, Note_on_c, 10, 72, 0
10, 129360, Note_on_c, 10, 76, 108
10, 129420, Note_on_c, 10, 76, 0
10, 129480, Note_on_c, 10, 79, 108
10, 129480, Control_c, 10, 11, 122
10, 129498, Control_c, 10, 11, 119
10, 129516, Control_c, 10, 11, 116
10, 129534, Control_c, 10, 11, 113
10, 129552, Control_c, 10, 11, 110
10, 129570, Control_c, 10, 11, 107
10, 129588, Control_c, 10, 11, 104
10, 129690, Note_on_c, 10, 79, 0
10, 129720, Note_on_c, 10, 81, 108
10, 129780, Note_on_c, 10, 81, 0
10, 129840, Note_on_c, 10, 83, 108
10, 129900, Note_on_c, 10, 83, 0
10, 129960, Note_on_c, 10, 84, 108
10, 130020, Note_on_c, 10, 84, 0
10, 130080, Note_on_c, 10, 79, 108
10, 130140, Note_on_c, 10, 79, 0
10, 130200, Note_on_c, 10, 76, 108
10, 130260, Note_on_c, 10, 76, 0
10, 130320, Note_on_c, 10, 72, 108
10, 130380, Note_on_c, 10, 72, 0
10, 130680, Control_c, 10, 121, 0
10, 130680, End_track
11, 0, Start_track
11, 0, MIDI_port, 0
11, 0, Title_t, "Violine II"
11, 0, Program_c, 11, 48
11, 0, Control_c, 11, 10, 90
11, 3, Control_c, 11, 121, 0
11, 8, Program_c, 11, 48
11, 13, Pitch_bend_c, 11, 7992
11, 18, Control_c, 11, 11, 47
11, 23, Control_c, 11, 7, 127
11, 28, Control_c, 11, 91, 32
11, 33, Control_c, 11, 93, 0
11, 38, Control_c, 11, 10, 90
11, 43, Control_c, 11, 1, 36
11, 603, Control_c, 11, 11, 37
11, 603, Note_on_c, 11, 67, 118
11, 651, Control_c, 11, 11, 38
11, 663, Note_on_c, 11, 67, 0
11, 699, Control_c, 11, 11, 39
11, 723, Note_on_c, 11, 69, 108
11, 747, Control_c, 11, 11, 40
11, 795, Control_c, 11, 11, 41
11, 843, Note_on_c, 11, 69, 0
11, 843, Control_c, 11, 11, 42
11, 891, Control_c, 11, 11, 43
11, 939, Control_c, 11, 11, 44
11, 963, Note_on_c, 11, 62, 108
11, 987, Control_c, 11, 11, 45
11, 1023, Note_on_c, 11, 62, 0
11, 1035, Control_c, 11, 11, 46
11, 1083, Note_on_c, 11, 64, 108
11, 1083, Control_c, 11, 11, 47
11, 1203, Note_on_c, 11, 64, 0
11, 1323, Note_on_c, 11, 62, 108
11, 1383, Note_on_c, 11, 62, 0
11, 1443, Note_on_c, 11, 64, 108
11, 1503, Note_on_c, 11, 64, 0
11, 1563, Note_on_c, 11, 64, 108
11, 1623, Note_on_c, 11, 64, 0
11, 1683, Note_on_c, 11, 66, 108
11, 1743, Note_on_c, 11, 66, 0
11, 1803, Note_on_c, 11, 67, 108
11, 1923, Note_on_c, 11, 67, 0
11, 2043, Control_c, 11, 11, 47
11, 2043, Note_on_c, 11, 68, 108
11, 2061, Control_c, 11, 11, 48
11, 2079, Control_c, 11, 11, 49
11, 2097, Control_c, 11, 11, 50
11, 2103, Note_on_c, 11, 68, 0
11, 2115, Control_c, 11, 11, 51
11, 2133, Control_c, 11, 11, 52
11, 2151, Control_c, 11, 11, 53
11, 2163, Note_on_c, 11, 69, 108
11, 2169, Control_c, 11, 11, 54
11, 2187, Control_c, 11, 11, 55
11, 2205, Control_c, 11, 11, 56
11, 2223, Control_c, 11, 11, 57
11, 2241, Control_c, 11, 11, 58
11, 2259, Control_c, 11, 11, 59
11, 2277, Control_c, 11, 11, 60
11, 2283, Note_on_c, 11, 69, 0
11, 2295, Control_c, 11, 11, 61
11, 2313, Control_c, 11, 11, 62
11, 2331, Control_c, 11, 11, 63
11, 2349, Control_c, 11, 11, 64
11, 2367, Control_c, 11, 11, 65
11, 2385, Control_c, 11, 11, 66
11, 2403, Control_c, 11, 11, 67
11, 2403, Note_on_c, 11, 71, 108
11, 2421, Control_c, 11, 11, 68
11, 2439, Control_c, 11, 11, 69
11, 2457, Control_c, 11, 11, 70
11, 2463, Note_on_c, 11, 71, 0
11, 2475, Control_c, 11, 11, 71
11, 2493, Control_c, 11, 11, 72
11, 2511, Control_c, 11, 11, 73
11, 2523, Note_on_c, 11, 72, 108
11, 2529, Control_c, 11, 11, 74
11, 2547, Control_c, 11, 11, 75
11, 2565, Control_c, 11, 11, 76
11, 2583, Control_c, 11, 11, 77
11, 2601, Control_c, 11, 11, 78
11, 2619, Control_c, 11, 11, 79
11, 2637, Control_c, 11, 11, 80
11, 2643, Note_on_c, 11, 72, 0
11, 2655, Control_c, 11, 11, 81
11, 2673, Control_c, 11, 11, 82
11, 2691, Control_c, 11, 11, 83
11, 2709, Control_c, 11, 11, 84
11, 2727, Control_c, 11, 11, 85
11, 2745, Control_c, 11, 11, 86
11, 2763, Control_c, 11, 11, 87
11, 2763, Note_on_c, 11, 73, 108
11, 2823, Note_on_c, 11, 73, 0
11, 2883, Note_on_c, 11, 74, 108
11, 2943, Note_on_c, 11, 74, 0
11, 3003, Note_on_c, 11, 74, 108
11, 3063, Note_on_c, 11, 74, 0
11, 3123, Note_on_c, 11, 74, 108
11, 3183, Note_on_c, 11, 74, 0
11, 3243, Note_on_c, 11, 67, 108
11, 3363, Note_on_c, 11, 67, 0
11, 3483, Control_c, 11, 11, 57
11, 3483, Note_on_c, 11, 67, 108
11, 3543, Note_on_c, 11, 67, 0
11, 3603, Note_on_c, 11, 69, 108
11, 3603, Control_c, 11, 11, 39
11, 3627, Control_c, 11, 11, 40
11, 3675, Control_c, 11, 11, 41
11, 3723, Note_on_c, 11, 69, 0
11, 3723, Control_c, 11, 11, 42
11, 3771, Control_c, 11, 11, 43
11, 3819, Control_c, 11, 11, 44
11, 3843, Note_on_c, 11, 62, 108
11, 3867, Control_c, 11, 11, 45
11, 3903, Note_on_c, 11, 62, 0
11, 3915, Control_c, 11, 11, 46
11, 3963, Control_c, 11, 11, 47
11, 3963, Note_on_c, 11, 64, 108
11, 4083, Note_on_c, 11, 64, 0
11, 4203, Note_on_c, 11, 62, 108
11, 4263, Note_on_c, 11, 62, 0
11, 4323, Note_on_c, 11, 64, 108
11, 4383, Note_on_c, 11, 64, 0
11, 4443, Note_on_c, 11, 64, 108
11, 4503, Note_on_c, 11, 64, 0
11, 4563, Note_on_c, 11, 66, 108
11, 4623, Note_on_c, 11, 66, 0
11, 4683, Note_on_c, 11, 67, 108
11, 4803, Note_on_c, 11, 67, 0
11, 4923, Note_on_c, 11, 68, 108
11, 4923, Control_c, 11, 11, 47
11, 4941, Control_c, 11, 11, 48
11, 4959, Control_c, 11, 11, 49
11, 4977, Control_c, 11, 11, 50
11, 4983, Note_on_c, 11, 68, 0
11, 4995, Control_c, 11, 11, 51
11, 5013, Control_c, 11, 11, 52
11, 5031, Control_c, 11, 11, 53
11, 5043, Note_on_c, 11, 69, 108
11, 5049, Control_c, 11, 11, 54
11, 5067, Control_c, 11, 11, 55
11, 5085, Control_c, 11, 11, 56
11, 5103, Control_c, 11, 11, 57
11, 5121, Control_c, 11, 11, 58
11, 5139, Control_c, 11, 11, 59
11, 5157, Control_c, 11, 11, 60
11, 5163, Note_on_c, 11, 69, 0
11, 5175, Control_c, 11, 11, 61
11, 5193, Control_c, 11, 11, 62
11, 5211, Control_c, 11, 11, 63
11, 5229, Control_c, 11, 11, 64
11, 5247, Control_c, 11, 11, 65
11, 5265, Control_c, 11, 11, 66
11, 5283, Note_on_c, 11, 71, 108
11, 5283, Control_c, 11, 11, 67
11, 5301, Control_c, 11, 11, 68
11, 5319, Control_c, 11, 11, 69
11, 5337, Control_c, 11, 11, 70
11, 5343, Note_on_c, 11, 71, 0
11, 5355, Control_c, 11, 11, 71
11, 5373, Control_c, 11, 11, 72
11, 5391, Control_c, 11, 11, 73
11, 5403, Note_on_c, 11, 72, 108
11, 5409, Control_c, 11, 11, 74
11, 5427, Control_c, 11, 11, 75
11, 5445, Control_c, 11, 11, 76
11, 5463, Control_c, 11, 11, 77
11, 5481, Control_c, 11, 11, 78
11, 5499, Control_c, 11, 11, 79
11, 5517, Control_c, 11, 11, 80
11, 5523, Note_on_c, 11, 72, 0
11, 5535, Control_c, 11, 11, 81
11, 5553, Control_c, 11, 11, 82
11, 5571, Control_c, 11, 11, 83
11, 5589, Control_c, 11, 11, 84
11, 5607, Control_c, 11, 11, 85
11, 5625, Control_c, 11, 11, 86
11, 5643, Note_on_c, 11, 73, 108
11, 5643, Control_c, 11, 11, 87
11, 5703, Note_on_c, 11, 73, 0
11, 5763, Note_on_c, 11, 74, 108
11, 5823, Note_on_c, 11, 74, 0
11, 5883, Note_on_c, 11, 74, 108
11, 5943, Note_on_c, 11, 74, 0
11, 6003, Note_on_c, 11, 74, 108
11, 6063, Note_on_c, 11, 74, 0
11, 6123, Note_on_c, 11, 67, 108
11, 6243, Note_on_c, 11, 67, 0
11, 6363, Note_on_c, 11, 67, 118
11, 6363, Control_c, 11, 11, 47
11, 6423, Note_on_c, 11, 67, 0
11, 6483, Note_on_c, 11, 68, 108
11, 6723, Note_on_c, 11, 68, 0
11, 6723, Note_on_c, 11, 67, 108
11, 6813, Note_on_c, 11, 67, 0
11, 6843, Note_on_c, 11, 68, 108
11, 7083, Note_on_c, 11, 68, 0
11, 7083, Note_on_c, 11, 67, 108
11, 7173, Note_on_c, 11, 67, 0
11, 7203, Note_on_c, 11, 68, 108
11, 7263, Note_on_c, 11, 68, 0
11, 7323, Control_c, 11, 11, 87
11, 7323, Note_on_c, 11, 68, 108
11, 7383, Note_on_c, 11, 68, 0
11, 7443, Note_on_c, 11, 68, 108
11, 7503, Note_on_c, 11, 68, 0
11, 7563, Note_on_c, 11, 68, 108
11, 7683, Note_on_c, 11, 68, 0
11, 7683, Note_on_c, 11, 67, 108
11, 7773, Note_on_c, 11, 67, 0
11, 7773, Control_c, 11, 11, 87
11, 7777, Control_c, 11, 11, 84
11, 7782, Control_c, 11, 11, 81
11, 7786, Control_c, 11, 11, 78
11, 7791, Control_c, 11, 11, 75
11, 7795, Control_c, 11, 11, 72
11, 7800, Control_c, 11, 11, 69
11, 7803, Note_on_c, 11, 63, 118
11, 7863, Note_on_c, 11, 63, 0
11, 7923, Note_on_c, 11, 65, 108
11, 7923, Control_c, 11, 11, 47
11, 8163, Note_on_c, 11, 65, 0
11, 8163, Note_on_c, 11, 63, 108
11, 8253, Note_on_c, 11, 63, 0
11, 8283, Note_on_c, 11, 65, 108
11, 8523, Note_on_c, 11, 65, 0
11, 8523, Note_on_c, 11, 63, 108
11, 8613, Note_on_c, 11, 63, 0
11, 8643, Note_on_c, 11, 65, 108
11, 8703, Note_on_c, 11, 65, 0
11, 8763, Note_on_c, 11, 72, 108
11, 8763, Control_c, 11, 11, 87
11, 8823, Note_on_c, 11, 72, 0
11, 8883, Note_on_c, 11, 74, 108
11, 8943, Note_on_c, 11, 74, 0
11, 9003, Note_on_c, 11, 67, 108
11, 9123, Note_on_c, 11, 67, 0
11, 9243, Note_on_c, 11, 60, 101
11, 9303, Note_on_c, 11, 60, 0
11, 9363, Note_on_c, 11, 61, 93
11, 9423, Note_on_c, 11, 61, 0
11, 9483, Note_on_c, 11, 61, 108
11, 9543, Note_on_c, 11, 61, 0
11, 9603, Note_on_c, 11, 61, 108
11, 9663, Note_on_c, 11, 61, 0
11, 9723, Note_on_c, 11, 61, 108
11, 9843, Note_on_c, 11, 61, 0
11, 9843, Note_on_c, 11, 60, 108
11, 9933, Note_on_c, 11, 60, 0
11, 9963, Note_on_c, 11, 56, 93
11, 10023, Note_on_c, 11, 56, 0
11, 10083, Control_c, 11, 11, 102
11, 10083, Note_on_c, 11, 58, 93
11, 10143, Note_on_c, 11, 58, 0
11, 10203, Note_on_c, 11, 61, 108
11, 10263, Note_on_c, 11, 61, 0
11, 10323, Note_on_c, 11, 61, 108
11, 10383, Note_on_c, 11, 61, 0
11, 10443, Note_on_c, 11, 61, 108
11, 10503, Note_on_c, 11, 61, 0
11, 10563, Note_on_c, 11, 61, 108
11, 10623, Note_on_c, 11, 61, 0
11, 10683, Note_on_c, 11, 63, 108
11, 10743, Note_on_c, 11, 63, 0
11, 10803, Note_on_c, 11, 65, 108
11, 10803, Control_c, 11, 11, 122
11, 10820, Control_c, 11, 11, 119
11, 10838, Control_c, 11, 11, 116
11, 10856, Control_c, 11, 11, 113
11, 10874, Control_c, 11, 11, 110
11, 10892, Control_c, 11, 11, 107
11, 10910, Control_c, 11, 11, 104
11, 10923, Note_on_c, 11, 65, 0
11, 11163, Note_on_c, 11, 63, 108
11, 11163, Control_c, 11, 11, 122
11, 11180, Control_c, 11, 11, 119
11, 11198, Control_c, 11, 11, 116
11, 11216, Control_c, 11, 11, 113
11, 11234, Control_c, 11, 11, 110
11, 11252, Control_c, 11, 11, 107
11, 11270, Control_c, 11, 11, 104
11, 11283, Note_on_c, 11, 63, 0
11, 11523, Note_on_c, 11, 61, 108
11, 11523, Control_c, 11, 11, 122
11, 11540, Control_c, 11, 11, 119
11, 11558, Control_c, 11, 11, 116
11, 11576, Control_c, 11, 11, 113
11, 11594, Control_c, 11, 11, 110
11, 11612, Control_c, 11, 11, 107
11, 11630, Control_c, 11, 11, 104
11, 11643, Note_on_c, 11, 61, 0
11, 11883, Note_on_c, 11, 60, 108
11, 11883, Control_c, 11, 11, 122
11, 11900, Control_c, 11, 11, 119
11, 11918, Control_c, 11, 11, 116
11, 11936, Control_c, 11, 11, 113
11, 11954, Control_c, 11, 11, 110
11, 11972, Control_c, 11, 11, 107
11, 11990, Control_c, 11, 11, 104
11, 12003, Note_on_c, 11, 60, 0
11, 12243, Note_on_c, 11, 61, 72
11, 12243, Control_c, 11, 11, 122
11, 12261, Control_c, 11, 11, 119
11, 12279, Control_c, 11, 11, 116
11, 12297, Control_c, 11, 11, 113
11, 12315, Control_c, 11, 11, 110
11, 12333, Control_c, 11, 11, 107
11, 12351, Control_c, 11, 11, 104
11, 12363, Note_on_c, 11, 61, 0
11, 12483, Note_on_c, 11, 75, 87
11, 12483, Control_c, 11, 11, 47
11, 12543, Note_on_c, 11, 75, 0
11, 12603, Note_on_c, 11, 75, 80
11, 12663, Note_on_c, 11, 75, 0
11, 12723, Note_on_c, 11, 75, 80
11, 12783, Note_on_c, 11, 75, 0
11, 12843, Note_on_c, 11, 75, 80
11, 12903, Note_on_c, 11, 75, 0
11, 12963, Note_on_c, 11, 75, 80
11, 13083, Note_on_c, 11, 75, 0
11, 13083, Note_on_c, 11, 73, 80
11, 13173, Note_on_c, 11, 73, 0
11, 13203, Note_on_c, 11, 66, 87
11, 13263, Note_on_c, 11, 66, 0
11, 13323, Note_on_c, 11, 66, 80
11, 13383, Note_on_c, 11, 66, 0
11, 13443, Note_on_c, 11, 66, 80
11, 13503, Note_on_c, 11, 66, 0
11, 13563, Note_on_c, 11, 66, 80
11, 13623, Note_on_c, 11, 66, 0
11, 13683, Note_on_c, 11, 66, 80
11, 13803, Note_on_c, 11, 66, 0
11, 13803, Note_on_c, 11, 65, 80
11, 13893, Note_on_c, 11, 65, 0
11, 13923, Note_on_c, 11, 75, 87
11, 13983, Note_on_c, 11, 75, 0
11, 14043, Note_on_c, 11, 75, 80
11, 14103, Note_on_c, 11, 75, 0
11, 14163, Note_on_c, 11, 75, 80
11, 14223, Note_on_c, 11, 75, 0
11, 14283, Note_on_c, 11, 75, 80
11, 14343, Note_on_c, 11, 75, 0
11, 14403, Note_on_c, 11, 75, 80
11, 14523, Note_on_c, 11, 75, 0
11, 14523, Note_on_c, 11, 73, 80
11, 14613, Note_on_c, 11, 73, 0
11, 14643, Note_on_c, 11, 66, 87
11, 14703, Note_on_c, 11, 66, 0
11, 14763, Note_on_c, 11, 66, 80
11, 14823, Note_on_c, 11, 66, 0
11, 14883, Note_on_c, 11, 66, 80
11, 14943, Note_on_c, 11, 66, 0
11, 15003, Note_on_c, 11, 66, 80
11, 15063, Note_on_c, 11, 66, 0
11, 15123, Note_on_c, 11, 65, 80
11, 15213, Note_on_c, 11, 65, 0
11, 15213, Control_c, 11, 11, 47
11, 15219, Control_c, 11, 11, 44
11, 15225, Control_c, 11, 11, 41
11, 15231, Control_c, 11, 11, 38
11, 15237, Control_c, 11, 11, 35
11, 15243, Note_on_c, 11, 61, 108
11, 15243, Control_c, 11, 11, 32
11, 15333, Note_on_c, 11, 61, 0
11, 15363, Note_on_c, 11, 61, 108
11, 15453, Note_on_c, 11, 61, 0
11, 15483, Note_on_c, 11, 61, 108
11, 15573, Note_on_c, 11, 61, 0
11, 15603, Note_on_c, 11, 61, 108
11, 15693, Note_on_c, 11, 61, 0
11, 15723, Note_on_c, 11, 61, 108
11, 15813, Note_on_c, 11, 61, 0
11, 15843, Note_on_c, 11, 61, 108
11, 15933, Note_on_c, 11, 61, 0
11, 15963, Note_on_c, 11, 61, 108
11, 16053, Note_on_c, 11, 61, 0
11, 16083, Note_on_c, 11, 61, 108
11, 16173, Note_on_c, 11, 61, 0
11, 16203, Note_on_c, 11, 61, 108
11, 16293, Note_on_c, 11, 61, 0
11, 16323, Note_on_c, 11, 61, 108
11, 16413, Note_on_c, 11, 61, 0
11, 16443, Note_on_c, 11, 62, 108
11, 16533, Note_on_c, 11, 62, 0
11, 16563, Note_on_c, 11, 63, 108
11, 16653, Note_on_c, 11, 63, 0
11, 16683, Note_on_c, 11, 63, 108
11, 16773, Note_on_c, 11, 63, 0
11, 16803, Note_on_c, 11, 63, 108
11, 16893, Note_on_c, 11, 63, 0
11, 16923, Note_on_c, 11, 63, 108
11, 17013, Note_on_c, 11, 63, 0
11, 17043, Note_on_c, 11, 63, 108
11, 17133, Note_on_c, 11, 63, 0
11, 17163, Note_on_c, 11, 63, 108
11, 17253, Note_on_c, 11, 63, 0
11, 17283, Note_on_c, 11, 63, 108
11, 17373, Note_on_c, 11, 63, 0
11, 17403, Note_on_c, 11, 63, 108
11, 17493, Note_on_c, 11, 63, 0
11, 17523, Note_on_c, 11, 63, 108
11, 17613, Note_on_c, 11, 63, 0
11, 17643, Note_on_c, 11, 63, 108
11, 17733, Note_on_c, 11, 63, 0
11, 17763, Note_on_c, 11, 63, 108
11, 17853, Note_on_c, 11, 63, 0
11, 17883, Note_on_c, 11, 63, 108
11, 17973, Note_on_c, 11, 63, 0
11, 18003, Note_on_c, 11, 64, 108
11, 18003, Control_c, 11, 11, 37
11, 18029, Control_c, 11, 11, 38
11, 18055, Control_c, 11, 11, 39
11, 18082, Control_c, 11, 11, 40
11, 18093, Note_on_c, 11, 64, 0
11, 18108, Control_c, 11, 11, 41
11, 18123, Note_on_c, 11, 64, 108
11, 18135, Control_c, 11, 11, 42
11, 18161, Control_c, 11, 11, 43
11, 18187, Control_c, 11, 11, 44
11, 18213, Note_on_c, 11, 64, 0
11, 18214, Control_c, 11, 11, 45
11, 18240, Control_c, 11, 11, 46
11, 18243, Note_on_c, 11, 64, 108
11, 18267, Control_c, 11, 11, 47
11, 18293, Control_c, 11, 11, 48
11, 18319, Control_c, 11, 11, 49
11, 18333, Note_on_c, 11, 64, 0
11, 18346, Control_c, 11, 11, 50
11, 18363, Note_on_c, 11, 64, 108
11, 18372, Control_c, 11, 11, 51
11, 18399, Control_c, 11, 11, 52
11, 18425, Control_c, 11, 11, 53
11, 18451, Control_c, 11, 11, 54
11, 18453, Note_on_c, 11, 64, 0
11, 18478, Control_c, 11, 11, 55
11, 18483, Note_on_c, 11, 64, 108
11, 18504, Control_c, 11, 11, 56
11, 18531, Control_c, 11, 11, 57
11, 18557, Control_c, 11, 11, 58
11, 18573, Note_on_c, 11, 64, 0
11, 18583, Control_c, 11, 11, 59
11, 18603, Note_on_c, 11, 64, 108
11, 18610, Control_c, 11, 11, 60
11, 18636, Control_c, 11, 11, 61
11, 18663, Control_c, 11, 11, 62
11, 18689, Control_c, 11, 11, 63
11, 18693, Note_on_c, 11, 64, 0
11, 18715, Control_c, 11, 11, 64
11, 18723, Note_on_c, 11, 64, 108
11, 18742, Control_c, 11, 11, 65
11, 18768, Control_c, 11, 11, 66
11, 18795, Control_c, 11, 11, 67
11, 18813, Note_on_c, 11, 64, 0
11, 18821, Control_c, 11, 11, 68
11, 18843, Note_on_c, 11, 64, 108
11, 18847, Control_c, 11, 11, 69
11, 18874, Control_c, 11, 11, 70
11, 18900, Control_c, 11, 11, 71
11, 18927, Control_c, 11, 11, 72
11, 18933, Note_on_c, 11, 64, 0
11, 18953, Control_c, 11, 11, 73
11, 18963, Note_on_c, 11, 64, 108
11, 18979, Control_c, 11, 11, 74
11, 19006, Control_c, 11, 11, 75
11, 19032, Control_c, 11, 11, 76
11, 19053, Note_on_c, 11, 64, 0
11, 19059, Control_c, 11, 11, 77
11, 19083, Note_on_c, 11, 64, 108
11, 19085, Control_c, 11, 11, 78
11, 19111, Control_c, 11, 11, 79
11, 19138, Control_c, 11, 11, 80
11, 19164, Control_c, 11, 11, 81
11, 19173, Note_on_c, 11, 64, 0
11, 19191, Control_c, 11, 11, 82
11, 19203, Note_on_c, 11, 64, 108
11, 19217, Control_c, 11, 11, 83
11, 19243, Control_c, 11, 11, 84
11, 19270, Control_c, 11, 11, 85
11, 19293, Note_on_c, 11, 64, 0
11, 19296, Control_c, 11, 11, 86
11, 19323, Control_c, 11, 11, 87
11, 19323, Note_on_c, 11, 64, 108
11, 19383, Note_on_c, 11, 64, 0
11, 19443, Note_on_c, 11, 65, 108
11, 19563, Note_on_c, 11, 65, 0
11, 19683, Note_on_c, 11, 62, 108
11, 19743, Note_on_c, 11, 62, 0
11, 19803, Note_on_c, 11, 64, 108
11, 19923, Note_on_c, 11, 64, 0
11, 20043, Note_on_c, 11, 62, 108
11, 20103, Note_on_c, 11, 62, 0
11, 20163, Note_on_c, 11, 64, 108
11, 20223, Note_on_c, 11, 64, 0
11, 20283, Note_on_c, 11, 64, 108
11, 20343, Note_on_c, 11, 64, 0
11, 20403, Note_on_c, 11, 66, 108
11, 20463, Note_on_c, 11, 66, 0
11, 20523, Note_on_c, 11, 67, 108
11, 20643, Note_on_c, 11, 67, 0
11, 20763, Control_c, 11, 11, 102
11, 20763, Note_on_c, 11, 68, 108
11, 20823, Note_on_c, 11, 68, 0
11, 20883, Note_on_c, 11, 69, 108
11, 21003, Note_on_c, 11, 69, 0
11, 21123, Note_on_c, 11, 71, 108
11, 21183, Note_on_c, 11, 71, 0
11, 21243, Note_on_c, 11, 72, 108
11, 21363, Note_on_c, 11, 72, 0
11, 21483, Note_on_c, 11, 74, 108
11, 21543, Note_on_c, 11, 74, 0
11, 21603, Note_on_c, 11, 76, 108
11, 21663, Note_on_c, 11, 76, 0
11, 21723, Note_on_c, 11, 76, 108
11, 21783, Note_on_c, 11, 76, 0
11, 21843, Note_on_c, 11, 78, 108
11, 21903, Note_on_c, 11, 78, 0
11, 21963, Note_on_c, 11, 79, 108
11, 21963, Control_c, 11, 11, 122
11, 21980, Control_c, 11, 11, 119
11, 21998, Control_c, 11, 11, 116
11, 22016, Control_c, 11, 11, 113
11, 22034, Control_c, 11, 11, 110
11, 22052, Control_c, 11, 11, 107
11, 22070, Control_c, 11, 11, 104
11, 22083, Note_on_c, 11, 79, 0
11, 22203, Note_on_c, 11, 72, 108
11, 22263, Note_on_c, 11, 72, 0
11, 22323, Note_on_c, 11, 74, 108
11, 22383, Note_on_c, 11, 74, 0
11, 22443, Note_on_c, 11, 74, 108
11, 22503, Note_on_c, 11, 74, 0
11, 22563, Note_on_c, 11, 76, 108
11, 22623, Note_on_c, 11, 76, 0
11, 22683, Note_on_c, 11, 77, 108
11, 22683, Control_c, 11, 11, 122
11, 22700, Control_c, 11, 11, 119
11, 22718, Control_c, 11, 11, 116
11, 22736, Control_c, 11, 11, 113
11, 22754, Control_c, 11, 11, 110
11, 22772, Control_c, 11, 11, 107
11, 22790, Control_c, 11, 11, 104
11, 22803, Note_on_c, 11, 77, 0
11, 22923, Note_on_c, 11, 67, 108
11, 22983, Note_on_c, 11, 67, 0
11, 23043, Note_on_c, 11, 69, 108
11, 23103, Note_on_c, 11, 69, 0
11, 23163, Note_on_c, 11, 69, 108
11, 23223, Note_on_c, 11, 69, 0
11, 23283, Note_on_c, 11, 71, 108
11, 23343, Note_on_c, 11, 71, 0
11, 23403, Note_on_c, 11, 72, 108
11, 23403, Control_c, 11, 11, 122
11, 23420, Control_c, 11, 11, 119
11, 23438, Control_c, 11, 11, 116
11, 23456, Control_c, 11, 11, 113
11, 23474, Control_c, 11, 11, 110
11, 23492, Control_c, 11, 11, 107
11, 23510, Control_c, 11, 11, 104
11, 23523, Note_on_c, 11, 72, 0
11, 23643, Note_on_c, 11, 72, 108
11, 23703, Note_on_c, 11, 72, 0
11, 23763, Note_on_c, 11, 76, 108
11, 23883, Note_on_c, 11, 76, 0
11, 23883, Note_on_c, 11, 72, 108
11, 23983, Note_on_c, 11, 72, 0
11, 24003, Note_on_c, 11, 55, 108
11, 24003, Note_on_c, 11, 65, 108
11, 24063, Note_on_c, 11, 65, 0
11, 24063, Note_on_c, 11, 55, 0
11, 24123, Note_on_c, 11, 55, 108
11, 24123, Note_on_c, 11, 64, 108
11, 24183, Note_on_c, 11, 64, 0
11, 24183, Note_on_c, 11, 55, 0
11, 24363, Note_on_c, 11, 55, 88
11, 24423, Note_on_c, 11, 55, 0
11, 24483, Note_on_c, 11, 56, 88
11, 24483, Control_c, 11, 11, 122
11, 24506, Control_c, 11, 11, 120
11, 24530, Control_c, 11, 11, 118
11, 24554, Control_c, 11, 11, 116
11, 24578, Control_c, 11, 11, 114
11, 24602, Control_c, 11, 11, 112
11, 24626, Control_c, 11, 11, 110
11, 24650, Control_c, 11, 11, 108
11, 24674, Control_c, 11, 11, 106
11, 24698, Control_c, 11, 11, 104
11, 24722, Control_c, 11, 11, 102
11, 24843, Note_on_c, 11, 56, 0
11, 24843, Note_on_c, 11, 55, 88
11, 24903, Note_on_c, 11, 55, 0
11, 25083, Note_on_c, 11, 67, 88
11, 25143, Note_on_c, 11, 67, 0
11, 25203, Note_on_c, 11, 68, 88
11, 25203, Control_c, 11, 11, 122
11, 25226, Control_c, 11, 11, 120
11, 25250, Control_c, 11, 11, 118
11, 25274, Control_c, 11, 11, 116
11, 25298, Control_c, 11, 11, 114
11, 25322, Control_c, 11, 11, 112
11, 25346, Control_c, 11, 11, 110
11, 25370, Control_c, 11, 11, 108
11, 25394, Control_c, 11, 11, 106
11, 25418, Control_c, 11, 11, 104
11, 25442, Control_c, 11, 11, 102
11, 25563, Note_on_c, 11, 68, 0
11, 25563, Note_on_c, 11, 67, 88
11, 25623, Note_on_c, 11, 67, 0
11, 25683, Control_c, 11, 11, 122
11, 25683, Note_on_c, 11, 56, 88
11, 25700, Control_c, 11, 11, 119
11, 25718, Control_c, 11, 11, 116
11, 25736, Control_c, 11, 11, 113
11, 25754, Control_c, 11, 11, 110
11, 25772, Control_c, 11, 11, 107
11, 25790, Control_c, 11, 11, 104
11, 25923, Note_on_c, 11, 56, 0
11, 25923, Note_on_c, 11, 55, 88
11, 25983, Note_on_c, 11, 55, 0
11, 26043, Note_on_c, 11, 68, 88
11, 26043, Control_c, 11, 11, 122
11, 26060, Control_c, 11, 11, 119
11, 26078, Control_c, 11, 11, 116
11, 26096, Control_c, 11, 11, 113
11, 26114, Control_c, 11, 11, 110
11, 26132, Control_c, 11, 11, 107
11, 26150, Control_c, 11, 11, 104
11, 26283, Note_on_c, 11, 68, 0
11, 26283, Note_on_c, 11, 67, 88
11, 26343, Note_on_c, 11, 67, 0
11, 26403, Control_c, 11, 11, 122
11, 26403, Note_on_c, 11, 56, 88
11, 26420, Control_c, 11, 11, 119
11, 26438, Control_c, 11, 11, 116
11, 26456, Control_c, 11, 11, 113
11, 26474, Control_c, 11, 11, 110
11, 26492, Control_c, 11, 11, 107
11, 26510, Control_c, 11, 11, 104
11, 26643, Note_on_c, 11, 56, 0
11, 26643, Note_on_c, 11, 55, 88
11, 26703, Note_on_c, 11, 55, 0
11, 26763, Note_on_c, 11, 68, 88
11, 26763, Control_c, 11, 11, 122
11, 26780, Control_c, 11, 11, 119
11, 26798, Control_c, 11, 11, 116
11, 26816, Control_c, 11, 11, 113
11, 26834, Control_c, 11, 11, 110
11, 26852, Control_c, 11, 11, 107
11, 26870, Control_c, 11, 11, 104
11, 26886, Control_c, 11, 11, 101
11, 26896, Control_c, 11, 11, 98
11, 26906, Control_c, 11, 11, 95
11, 26917, Control_c, 11, 11, 92
11, 26927, Control_c, 11, 11, 89
11, 26937, Control_c, 11, 11, 86
11, 26947, Control_c, 11, 11, 83
11, 26957, Control_c, 11, 11, 80
11, 26968, Control_c, 11, 11, 77
11, 26978, Control_c, 11, 11, 74
11, 26988, Control_c, 11, 11, 71
11, 26998, Control_c, 11, 11, 68
11, 27003, Note_on_c, 11, 68, 0
11, 27003, Note_on_c, 11, 67, 108
11, 27003, Control_c, 11, 11, 47
11, 27063, Note_on_c, 11, 67, 0
11, 27363, Note_on_c, 11, 77, 108
11, 27483, Note_on_c, 11, 77, 0
11, 27723, Note_on_c, 11, 76, 108
11, 27843, Note_on_c, 11, 76, 0
11, 28083, Note_on_c, 11, 71, 108
11, 28083, Note_on_c, 11, 62, 108
11, 28203, Note_on_c, 11, 62, 0
11, 28203, Note_on_c, 11, 71, 0
11, 28443, Note_on_c, 11, 60, 108
11, 28443, Control_c, 11, 11, 47
11, 28479, Control_c, 11, 11, 48
11, 28503, Note_on_c, 11, 60, 0
11, 28515, Control_c, 11, 11, 49
11, 28551, Control_c, 11, 11, 50
11, 28563, Note_on_c, 11, 64, 108
11, 28587, Control_c, 11, 11, 51
11, 28623, Note_on_c, 11, 64, 0
11, 28623, Control_c, 11, 11, 52
11, 28659, Control_c, 11, 11, 53
11, 28683, Note_on_c, 11, 67, 108
11, 28695, Control_c, 11, 11, 54
11, 28731, Control_c, 11, 11, 55
11, 28767, Control_c, 11, 11, 56
11, 28803, Control_c, 11, 11, 57
11, 28839, Control_c, 11, 11, 58
11, 28875, Control_c, 11, 11, 59
11, 28893, Note_on_c, 11, 67, 0
11, 28911, Control_c, 11, 11, 60
11, 28923, Note_on_c, 11, 69, 108
11, 28947, Control_c, 11, 11, 61
11, 28983, Note_on_c, 11, 69, 0
11, 28983, Control_c, 11, 11, 62
11, 29019, Control_c, 11, 11, 63
11, 29043, Note_on_c, 11, 71, 108
11, 29055, Control_c, 11, 11, 64
11, 29091, Control_c, 11, 11, 65
11, 29127, Control_c, 11, 11, 66
11, 29163, Control_c, 11, 11, 67
11, 29199, Control_c, 11, 11, 68
11, 29235, Control_c, 11, 11, 69
11, 29253, Note_on_c, 11, 71, 0
11, 29271, Control_c, 11, 11, 70
11, 29283, Note_on_c, 11, 72, 108
11, 29307, Control_c, 11, 11, 71
11, 29343, Note_on_c, 11, 72, 0
11, 29343, Control_c, 11, 11, 72
11, 29379, Control_c, 11, 11, 73
11, 29403, Note_on_c, 11, 67, 108
11, 29415, Control_c, 11, 11, 74
11, 29451, Control_c, 11, 11, 75
11, 29487, Control_c, 11, 11, 76
11, 29523, Control_c, 11, 11, 77
11, 29559, Control_c, 11, 11, 78
11, 29595, Control_c, 11, 11, 79
11, 29613, Note_on_c, 11, 67, 0
11, 29631, Control_c, 11, 11, 80
11, 29643, Note_on_c, 11, 65, 108
11, 29667, Control_c, 11, 11, 81
11, 29703, Note_on_c, 11, 65, 0
11, 29703, Control_c, 11, 11, 82
11, 29739, Control_c, 11, 11, 83
11, 29763, Note_on_c, 11, 62, 108
11, 29775, Control_c, 11, 11, 84
11, 29811, Control_c, 11, 11, 85
11, 29823, Note_on_c, 11, 62, 0
11, 29847, Control_c, 11, 11, 86
11, 29883, Control_c, 11, 11, 87
11, 29883, Note_on_c, 11, 60, 108
11, 29943, Note_on_c, 11, 60, 0
11, 30003, Note_on_c, 11, 64, 108
11, 30063, Note_on_c, 11, 64, 0
11, 30123, Note_on_c, 11, 67, 108
11, 30123, Control_c, 11, 11, 107
11, 30141, Control_c, 11, 11, 104
11, 30159, Control_c, 11, 11, 101
11, 30177, Control_c, 11, 11, 98
11, 30195, Control_c, 11, 11, 95
11, 30213, Control_c, 11, 11, 92
11, 30231, Control_c, 11, 11, 89
11, 30333, Note_on_c, 11, 67, 0
11, 30363, Note_on_c, 11, 65, 108
11, 30423, Note_on_c, 11, 65, 0
11, 30483, Note_on_c, 11, 62, 108
11, 30543, Note_on_c, 11, 62, 0
11, 30603, Note_on_c, 11, 60, 108
11, 30603, Control_c, 11, 11, 102
11, 30663, Note_on_c, 11, 60, 0
11, 30723, Note_on_c, 11, 64, 108
11, 30783, Note_on_c, 11, 64, 0
11, 30843, Control_c, 11, 11, 122
11, 30843, Note_on_c, 11, 67, 108
11, 30861, Control_c, 11, 11, 119
11, 30879, Control_c, 11, 11, 116
11, 30897, Control_c, 11, 11, 113
11, 30915, Control_c, 11, 11, 110
11, 30933, Control_c, 11, 11, 107
11, 30951, Control_c, 11, 11, 104
11, 31053, Note_on_c, 11, 67, 0
11, 31083, Note_on_c, 11, 69, 108
11, 31143, Note_on_c, 11, 69, 0
11, 31203, Note_on_c, 11, 71, 108
11, 31263, Note_on_c, 11, 71, 0
11, 31323, Note_on_c, 11, 72, 108
11, 31383, Note_on_c, 11, 72, 0
11, 31443, Note_on_c, 11, 67, 108
11, 31503, Note_on_c, 11, 67, 0
11, 31563, Note_on_c, 11, 64, 108
11, 31623, Note_on_c, 11, 64, 0
11, 31683, Note_on_c, 11, 60, 108
11, 31743, Note_on_c, 11, 60, 0
11, 31923, Control_c, 11, 11, 47
11, 31923, Note_on_c, 11, 67, 118
11, 31983, Note_on_c, 11, 67, 0
11, 32043, Note_on_c, 11, 68, 108
11, 32283, Note_on_c, 11, 68, 0
11, 32283, Note_on_c, 11, 67, 108
11, 32373, Note_on_c, 11, 67, 0
11, 32403, Note_on_c, 11, 68, 108
11, 32643, Note_on_c, 11, 68, 0
11, 32643, Note_on_c, 11, 67, 108
11, 32733, Note_on_c, 11, 67, 0
11, 32763, Note_on_c, 11, 68, 108
11, 32823, Note_on_c, 11, 68, 0
11, 32883, Note_on_c, 11, 68, 108
11, 32883, Control_c, 11, 11, 87
11, 32943, Note_on_c, 11, 68, 0
11, 33003, Note_on_c, 11, 68, 108
11, 33063, Note_on_c, 11, 68, 0
11, 33123, Note_on_c, 11, 68, 108
11, 33243, Note_on_c, 11, 68, 0
11, 33243, Note_on_c, 11, 67, 108
11, 33333, Note_on_c, 11, 67, 0
11, 33333, Control_c, 11, 11, 87
11, 33337, Control_c, 11, 11, 84
11, 33342, Control_c, 11, 11, 81
11, 33346, Control_c, 11, 11, 78
11, 33351, Control_c, 11, 11, 75
11, 33355, Control_c, 11, 11, 72
11, 33360, Control_c, 11, 11, 69
11, 33363, Note_on_c, 11, 63, 118
11, 33423, Note_on_c, 11, 63, 0
11, 33483, Control_c, 11, 11, 47
11, 33483, Note_on_c, 11, 65, 108
11, 33723, Note_on_c, 11, 65, 0
11, 33723, Note_on_c, 11, 63, 108
11, 33813, Note_on_c, 11, 63, 0
11, 33843, Note_on_c, 11, 65, 108
11, 34083, Note_on_c, 11, 65, 0
11, 34083, Note_on_c, 11, 63, 108
11, 34173, Note_on_c, 11, 63, 0
11, 34203, Note_on_c, 11, 65, 108
11, 34263, Note_on_c, 11, 65, 0
11, 34323, Control_c, 11, 11, 87
11, 34323, Note_on_c, 11, 72, 108
11, 34383, Note_on_c, 11, 72, 0
11, 34443, Note_on_c, 11, 74, 108
11, 34503, Note_on_c, 11, 74, 0
11, 34563, Note_on_c, 11, 67, 108
11, 34683, Note_on_c, 11, 67, 0
11, 34803, Note_on_c, 11, 60, 101
11, 34863, Note_on_c, 11, 60, 0
11, 34923, Note_on_c, 11, 61, 93
11, 34983, Note_on_c, 11, 61, 0
11, 35043, Note_on_c, 11, 61, 108
11, 35103, Note_on_c, 11, 61, 0
11, 35163, Note_on_c, 11, 61, 108
11, 35223, Note_on_c, 11, 61, 0
11, 35283, Note_on_c, 11, 61, 108
11, 35403, Note_on_c, 11, 61, 0
11, 35403, Note_on_c, 11, 60, 108
11, 35493, Note_on_c, 11, 60, 0
11, 35523, Note_on_c, 11, 56, 101
11, 35583, Note_on_c, 11, 56, 0
11, 35643, Note_on_c, 11, 58, 93
11, 35643, Control_c, 11, 11, 102
11, 35703, Note_on_c, 11, 58, 0
11, 35763, Note_on_c, 11, 61, 108
11, 35823, Note_on_c, 11, 61, 0
11, 35883, Note_on_c, 11, 61, 108
11, 35943, Note_on_c, 11, 61, 0
11, 36003, Note_on_c, 11, 61, 108
11, 36063, Note_on_c, 11, 61, 0
11, 36123, Note_on_c, 11, 61, 108
11, 36183, Note_on_c, 11, 61, 0
11, 36243, Note_on_c, 11, 63, 108
11, 36303, Note_on_c, 11, 63, 0
11, 36363, Control_c, 11, 11, 122
11, 36363, Note_on_c, 11, 65, 108
11, 36380, Control_c, 11, 11, 119
11, 36398, Control_c, 11, 11, 116
11, 36416, Control_c, 11, 11, 113
11, 36434, Control_c, 11, 11, 110
11, 36452, Control_c, 11, 11, 107
11, 36470, Control_c, 11, 11, 104
11, 36483, Note_on_c, 11, 65, 0
11, 36723, Control_c, 11, 11, 122
11, 36723, Note_on_c, 11, 63, 108
11, 36740, Control_c, 11, 11, 119
11, 36758, Control_c, 11, 11, 116
11, 36776, Control_c, 11, 11, 113
11, 36794, Control_c, 11, 11, 110
11, 36812, Control_c, 11, 11, 107
11, 36830, Control_c, 11, 11, 104
11, 36843, Note_on_c, 11, 63, 0
11, 37083, Control_c, 11, 11, 122
11, 37083, Note_on_c, 11, 61, 108
11, 37100, Control_c, 11, 11, 119
11, 37118, Control_c, 11, 11, 116
11, 37136, Control_c, 11, 11, 113
11, 37154, Control_c, 11, 11, 110
11, 37172, Control_c, 11, 11, 107
11, 37190, Control_c, 11, 11, 104
11, 37203, Note_on_c, 11, 61, 0
11, 37443, Control_c, 11, 11, 122
11, 37443, Note_on_c, 11, 60, 108
11, 37460, Control_c, 11, 11, 119
11, 37478, Control_c, 11, 11, 116
11, 37496, Control_c, 11, 11, 113
11, 37514, Control_c, 11, 11, 110
11, 37532, Control_c, 11, 11, 107
11, 37550, Control_c, 11, 11, 104
11, 37563, Note_on_c, 11, 60, 0
11, 37803, Control_c, 11, 11, 122
11, 37803, Note_on_c, 11, 61, 72
11, 37821, Control_c, 11, 11, 119
11, 37839, Control_c, 11, 11, 116
11, 37857, Control_c, 11, 11, 113
11, 37875, Control_c, 11, 11, 110
11, 37893, Control_c, 11, 11, 107
11, 37911, Control_c, 11, 11, 104
11, 37923, Note_on_c, 11, 61, 0
11, 38043, Control_c, 11, 11, 47
11, 38043, Note_on_c, 11, 75, 87
11, 38103, Note_on_c, 11, 75, 0
11, 38163, Note_on_c, 11, 75, 80
11, 38223, Note_on_c, 11, 75, 0
11, 38283, Note_on_c, 11, 75, 80
11, 38343, Note_on_c, 11, 75, 0
11, 38403, Note_on_c, 11, 75, 80
11, 38463, Note_on_c, 11, 75, 0
11, 38523, Note_on_c, 11, 75, 80
11, 38643, Note_on_c, 11, 75, 0
11, 38643, Note_on_c, 11, 73, 80
11, 38733, Note_on_c, 11, 73, 0
11, 38763, Note_on_c, 11, 66, 87
11, 38823, Note_on_c, 11, 66, 0
11, 38883, Note_on_c, 11, 66, 80
11, 38943, Note_on_c, 11, 66, 0
11, 39003, Note_on_c, 11, 66, 80
11, 39063, Note_on_c, 11, 66, 0
11, 39123, Note_on_c, 11, 66, 80
11, 39183, Note_on_c, 11, 66, 0
11, 39243, Note_on_c, 11, 66, 80
11, 39363, Note_on_c, 11, 66, 0
11, 39363, Note_on_c, 11, 65, 80
11, 39453, Note_on_c, 11, 65, 0
11, 39483, Note_on_c, 11, 75, 87
11, 39543, Note_on_c, 11, 75, 0
11, 39603, Note_on_c, 11, 75, 80
11, 39663, Note_on_c, 11, 75, 0
11, 39723, Note_on_c, 11, 75, 80
11, 39783, Note_on_c, 11, 75, 0
11, 39843, Note_on_c, 11, 75, 80
11, 39903, Note_on_c, 11, 75, 0
11, 39963, Note_on_c, 11, 75, 80
11, 40083, Note_on_c, 11, 75, 0
11, 40083, Note_on_c, 11, 73, 80
11, 40173, Note_on_c, 11, 73, 0
11, 40203, Note_on_c, 11, 66, 87
11, 40263, Note_on_c, 11, 66, 0
11, 40323, Note_on_c, 11, 66, 80
11, 40383, Note_on_c, 11, 66, 0
11, 40443, Note_on_c, 11, 66, 80
11, 40503, Note_on_c, 11, 66, 0
11, 40563, Note_on_c, 11, 66, 80
11, 40623, Note_on_c, 11, 66, 0
11, 40683, Note_on_c, 11, 65, 80
11, 40773, Note_on_c, 11, 65, 0
11, 40773, Control_c, 11, 11, 47
11, 40779, Control_c, 11, 11, 44
11, 40785, Control_c, 11, 11, 41
11, 40791, Control_c, 11, 11, 38
11, 40797, Control_c, 11, 11, 35
11, 40803, Note_on_c, 11, 61, 108
11, 40803, Control_c, 11, 11, 32
11, 40893, Note_on_c, 11, 61, 0
11, 40923, Note_on_c, 11, 61, 108
11, 41013, Note_on_c, 11, 61, 0
11, 41043, Note_on_c, 11, 61, 108
11, 41133, Note_on_c, 11, 61, 0
11, 41163, Note_on_c, 11, 61, 108
11, 41253, Note_on_c, 11, 61, 0
11, 41283, Note_on_c, 11, 61, 108
11, 41373, Note_on_c, 11, 61, 0
11, 41403, Note_on_c, 11, 61, 108
11, 41493, Note_on_c, 11, 61, 0
11, 41523, Note_on_c, 11, 61, 108
11, 41613, Note_on_c, 11, 61, 0
11, 41643, Note_on_c, 11, 61, 108
11, 41733, Note_on_c, 11, 61, 0
11, 41763, Note_on_c, 11, 61, 108
11, 41853, Note_on_c, 11, 61, 0
11, 41883, Note_on_c, 11, 61, 108
11, 41973, Note_on_c, 11, 61, 0
11, 42003, Note_on_c, 11, 62, 108
11, 42093, Note_on_c, 11, 62, 0
11, 42123, Note_on_c, 11, 63, 108
11, 42213, Note_on_c, 11, 63, 0
11, 42243, Note_on_c, 11, 63, 108
11, 42333, Note_on_c, 11, 63, 0
11, 42363, Note_on_c, 11, 63, 108
11, 42453, Note_on_c, 11, 63, 0
11, 42483, Note_on_c, 11, 63, 108
11, 42573, Note_on_c, 11, 63, 0
11, 42603, Note_on_c, 11, 63, 108
11, 42693, Note_on_c, 11, 63, 0
11, 42723, Note_on_c, 11, 63, 108
11, 42813, Note_on_c, 11, 63, 0
11, 42843, Note_on_c, 11, 63, 108
11, 42933, Note_on_c, 11, 63, 0
11, 42963, Note_on_c, 11, 63, 108
11, 43053, Note_on_c, 11, 63, 0
11, 43083, Note_on_c, 11, 63, 108
11, 43173, Note_on_c, 11, 63, 0
11, 43203, Note_on_c, 11, 63, 108
11, 43293, Note_on_c, 11, 63, 0
11, 43323, Note_on_c, 11, 63, 108
11, 43413, Note_on_c, 11, 63, 0
11, 43443, Note_on_c, 11, 63, 108
11, 43533, Note_on_c, 11, 63, 0
11, 43563, Note_on_c, 11, 64, 108
11, 43563, Control_c, 11, 11, 37
11, 43589, Control_c, 11, 11, 38
11, 43615, Control_c, 11, 11, 39
11, 43642, Control_c, 11, 11, 40
11, 43653, Note_on_c, 11, 64, 0
11, 43668, Control_c, 11, 11, 41
11, 43683, Note_on_c, 11, 64, 108
11, 43695, Control_c, 11, 11, 42
11, 43721, Control_c, 11, 11, 43
11, 43747, Control_c, 11, 11, 44
11, 43773, Note_on_c, 11, 64, 0
11, 43774, Control_c, 11, 11, 45
11, 43800, Control_c, 11, 11, 46
11, 43803, Note_on_c, 11, 64, 108
11, 43827, Control_c, 11, 11, 47
11, 43853, Control_c, 11, 11, 48
11, 43879, Control_c, 11, 11, 49
11, 43893, Note_on_c, 11, 64, 0
11, 43906, Control_c, 11, 11, 50
11, 43923, Note_on_c, 11, 64, 108
11, 43932, Control_c, 11, 11, 51
11, 43959, Control_c, 11, 11, 52
11, 43985, Control_c, 11, 11, 53
11, 44011, Control_c, 11, 11, 54
11, 44013, Note_on_c, 11, 64, 0
11, 44038, Control_c, 11, 11, 55
11, 44043, Note_on_c, 11, 64, 108
11, 44064, Control_c, 11, 11, 56
11, 44091, Control_c, 11, 11, 57
11, 44117, Control_c, 11, 11, 58
11, 44133, Note_on_c, 11, 64, 0
11, 44143, Control_c, 11, 11, 59
11, 44163, Note_on_c, 11, 64, 108
11, 44170, Control_c, 11, 11, 60
11, 44196, Control_c, 11, 11, 61
11, 44223, Control_c, 11, 11, 62
11, 44249, Control_c, 11, 11, 63
11, 44253, Note_on_c, 11, 64, 0
11, 44275, Control_c, 11, 11, 64
11, 44283, Note_on_c, 11, 64, 108
11, 44302, Control_c, 11, 11, 65
11, 44328, Control_c, 11, 11, 66
11, 44355, Control_c, 11, 11, 67
11, 44373, Note_on_c, 11, 64, 0
11, 44381, Control_c, 11, 11, 68
11, 44403, Note_on_c, 11, 64, 108
11, 44407, Control_c, 11, 11, 69
11, 44434, Control_c, 11, 11, 70
11, 44460, Control_c, 11, 11, 71
11, 44487, Control_c, 11, 11, 72
11, 44493, Note_on_c, 11, 64, 0
11, 44513, Control_c, 11, 11, 73
11, 44523, Note_on_c, 11, 64, 108
11, 44539, Control_c, 11, 11, 74
11, 44566, Control_c, 11, 11, 75
11, 44592, Control_c, 11, 11, 76
11, 44613, Note_on_c, 11, 64, 0
11, 44619, Control_c, 11, 11, 77
11, 44643, Note_on_c, 11, 64, 108
11, 44645, Control_c, 11, 11, 78
11, 44671, Control_c, 11, 11, 79
11, 44698, Control_c, 11, 11, 80
11, 44724, Control_c, 11, 11, 81
11, 44733, Note_on_c, 11, 64, 0
11, 44751, Control_c, 11, 11, 82
11, 44763, Note_on_c, 11, 64, 108
11, 44777, Control_c, 11, 11, 83
11, 44803, Control_c, 11, 11, 84
11, 44830, Control_c, 11, 11, 85
11, 44853, Note_on_c, 11, 64, 0
11, 44856, Control_c, 11, 11, 86
11, 44883, Control_c, 11, 11, 87
11, 44883, Note_on_c, 11, 64, 108
11, 44943, Note_on_c, 11, 64, 0
11, 45003, Note_on_c, 11, 65, 108
11, 45123, Note_on_c, 11, 65, 0
11, 45243, Note_on_c, 11, 62, 108
11, 45303, Note_on_c, 11, 62, 0
11, 45363, Note_on_c, 11, 64, 108
11, 45483, Note_on_c, 11, 64, 0
11, 45603, Note_on_c, 11, 62, 108
11, 45663, Note_on_c, 11, 62, 0
11, 45723, Note_on_c, 11, 64, 108
11, 45783, Note_on_c, 11, 64, 0
11, 45843, Note_on_c, 11, 64, 108
11, 45903, Note_on_c, 11, 64, 0
11, 45963, Note_on_c, 11, 66, 108
11, 46023, Note_on_c, 11, 66, 0
11, 46083, Note_on_c, 11, 67, 108
11, 46203, Note_on_c, 11, 67, 0
11, 46323, Control_c, 11, 11, 102
11, 46323, Note_on_c, 11, 68, 108
11, 46383, Note_on_c, 11, 68, 0
11, 46443, Note_on_c, 11, 69, 108
11, 46563, Note_on_c, 11, 69, 0
11, 46683, Note_on_c, 11, 71, 108
11, 46743, Note_on_c, 11, 71, 0
11, 46803, Note_on_c, 11, 72, 108
11, 46923, Note_on_c, 11, 72, 0
11, 47043, Note_on_c, 11, 74, 108
11, 47103, Note_on_c, 11, 74, 0
11, 47163, Note_on_c, 11, 76, 108
11, 47223, Note_on_c, 11, 76, 0
11, 47283, Note_on_c, 11, 76, 108
11, 47343, Note_on_c, 11, 76, 0
11, 47403, Note_on_c, 11, 78, 108
11, 47463, Note_on_c, 11, 78, 0
11, 47523, Control_c, 11, 11, 122
11, 47523, Note_on_c, 11, 79, 108
11, 47540, Control_c, 11, 11, 119
11, 47558, Control_c, 11, 11, 116
11, 47576, Control_c, 11, 11, 113
11, 47594, Control_c, 11, 11, 110
11, 47612, Control_c, 11, 11, 107
11, 47630, Control_c, 11, 11, 104
11, 47643, Note_on_c, 11, 79, 0
11, 47763, Note_on_c, 11, 72, 108
11, 47823, Note_on_c, 11, 72, 0
11, 47883, Note_on_c, 11, 74, 108
11, 47943, Note_on_c, 11, 74, 0
11, 48003, Note_on_c, 11, 74, 108
11, 48063, Note_on_c, 11, 74, 0
11, 48123, Note_on_c, 11, 76, 108
11, 48183, Note_on_c, 11, 76, 0
11, 48243, Control_c, 11, 11, 122
11, 48243, Note_on_c, 11, 77, 108
11, 48260, Control_c, 11, 11, 119
11, 48278, Control_c, 11, 11, 116
11, 48296, Control_c, 11, 11, 113
11, 48314, Control_c, 11, 11, 110
11, 48332, Control_c, 11, 11, 107
11, 48350, Control_c, 11, 11, 104
11, 48363, Note_on_c, 11, 77, 0
11, 48483, Note_on_c, 11, 67, 108
11, 48543, Note_on_c, 11, 67, 0
11, 48603, Note_on_c, 11, 69, 108
11, 48663, Note_on_c, 11, 69, 0
11, 48723, Note_on_c, 11, 69, 108
11, 48783, Note_on_c, 11, 69, 0
11, 48843, Note_on_c, 11, 71, 108
11, 48903, Note_on_c, 11, 71, 0
11, 48963, Control_c, 11, 11, 122
11, 48963, Note_on_c, 11, 72, 108
11, 48980, Control_c, 11, 11, 119
11, 48998, Control_c, 11, 11, 116
11, 49016, Control_c, 11, 11, 113
11, 49034, Control_c, 11, 11, 110
11, 49052, Control_c, 11, 11, 107
11, 49070, Control_c, 11, 11, 104
11, 49083, Note_on_c, 11, 72, 0
11, 49203, Note_on_c, 11, 72, 108
11, 49263, Note_on_c, 11, 72, 0
11, 49323, Note_on_c, 11, 76, 108
11, 49443, Note_on_c, 11, 76, 0
11, 49443, Note_on_c, 11, 72, 108
11, 49543, Note_on_c, 11, 72, 0
11, 49563, Note_on_c, 11, 65, 108
11, 49563, Note_on_c, 11, 55, 108
11, 49623, Note_on_c, 11, 55, 0
11, 49623, Note_on_c, 11, 65, 0
11, 49683, Note_on_c, 11, 64, 108
11, 49683, Note_on_c, 11, 55, 108
11, 49743, Note_on_c, 11, 55, 0
11, 49743, Note_on_c, 11, 64, 0
11, 49923, Note_on_c, 11, 55, 88
11, 49983, Note_on_c, 11, 55, 0
11, 50043, Control_c, 11, 11, 122
11, 50043, Note_on_c, 11, 56, 88
11, 50066, Control_c, 11, 11, 120
11, 50090, Control_c, 11, 11, 118
11, 50114, Control_c, 11, 11, 116
11, 50138, Control_c, 11, 11, 114
11, 50162, Control_c, 11, 11, 112
11, 50186, Control_c, 11, 11, 110
11, 50210, Control_c, 11, 11, 108
11, 50234, Control_c, 11, 11, 106
11, 50258, Control_c, 11, 11, 104
11, 50282, Control_c, 11, 11, 102
11, 50403, Note_on_c, 11, 56, 0
11, 50403, Note_on_c, 11, 55, 88
11, 50463, Note_on_c, 11, 55, 0
11, 50643, Note_on_c, 11, 67, 88
11, 50703, Note_on_c, 11, 67, 0
11, 50763, Control_c, 11, 11, 122
11, 50763, Note_on_c, 11, 68, 88
11, 50786, Control_c, 11, 11, 120
11, 50810, Control_c, 11, 11, 118
11, 50834, Control_c, 11, 11, 116
11, 50858, Control_c, 11, 11, 114
11, 50882, Control_c, 11, 11, 112
11, 50906, Control_c, 11, 11, 110
11, 50930, Control_c, 11, 11, 108
11, 50954, Control_c, 11, 11, 106
11, 50978, Control_c, 11, 11, 104
11, 51002, Control_c, 11, 11, 102
11, 51123, Note_on_c, 11, 68, 0
11, 51123, Note_on_c, 11, 67, 88
11, 51183, Note_on_c, 11, 67, 0
11, 51243, Note_on_c, 11, 56, 88
11, 51243, Control_c, 11, 11, 122
11, 51260, Control_c, 11, 11, 119
11, 51278, Control_c, 11, 11, 116
11, 51296, Control_c, 11, 11, 113
11, 51314, Control_c, 11, 11, 110
11, 51332, Control_c, 11, 11, 107
11, 51350, Control_c, 11, 11, 104
11, 51483, Note_on_c, 11, 56, 0
11, 51483, Note_on_c, 11, 55, 88
11, 51543, Note_on_c, 11, 55, 0
11, 51603, Control_c, 11, 11, 122
11, 51603, Note_on_c, 11, 68, 88
11, 51620, Control_c, 11, 11, 119
11, 51638, Control_c, 11, 11, 116
11, 51656, Control_c, 11, 11, 113
11, 51674, Control_c, 11, 11, 110
11, 51692, Control_c, 11, 11, 107
11, 51710, Control_c, 11, 11, 104
11, 51843, Note_on_c, 11, 68, 0
11, 51843, Note_on_c, 11, 67, 88
11, 51903, Note_on_c, 11, 67, 0
11, 51963, Note_on_c, 11, 56, 88
11, 51963, Control_c, 11, 11, 122
11, 51980, Control_c, 11, 11, 119
11, 51998, Control_c, 11, 11, 116
11, 52016, Control_c, 11, 11, 113
11, 52034, Control_c, 11, 11, 110
11, 52052, Control_c, 11, 11, 107
11, 52070, Control_c, 11, 11, 104
11, 52203, Note_on_c, 11, 56, 0
11, 52203, Note_on_c, 11, 55, 88
11, 52263, Note_on_c, 11, 55, 0
11, 52323, Control_c, 11, 11, 122
11, 52323, Note_on_c, 11, 68, 88
11, 52340, Control_c, 11, 11, 119
11, 52358, Control_c, 11, 11, 116
11, 52376, Control_c, 11, 11, 113
11, 52394, Control_c, 11, 11, 110
11, 52412, Control_c, 11, 11, 107
11, 52430, Control_c, 11, 11, 104
11, 52446, Control_c, 11, 11, 101
11, 52456, Control_c, 11, 11, 98
11, 52466, Control_c, 11, 11, 95
11, 52477, Control_c, 11, 11, 92
11, 52487, Control_c, 11, 11, 89
11, 52497, Control_c, 11, 11, 86
11, 52507, Control_c, 11, 11, 83
11, 52517, Control_c, 11, 11, 80
11, 52528, Control_c, 11, 11, 77
11, 52538, Control_c, 11, 11, 74
11, 52548, Control_c, 11, 11, 71
11, 52558, Control_c, 11, 11, 68
11, 52563, Note_on_c, 11, 68, 0
11, 52563, Control_c, 11, 11, 47
11, 52563, Note_on_c, 11, 67, 108
11, 52623, Note_on_c, 11, 67, 0
11, 52923, Note_on_c, 11, 77, 108
11, 53043, Note_on_c, 11, 77, 0
11, 53283, Note_on_c, 11, 76, 108
11, 53403, Note_on_c, 11, 76, 0
11, 53643, Note_on_c, 11, 62, 108
11, 53643, Note_on_c, 11, 71, 108
11, 53763, Note_on_c, 11, 71, 0
11, 53763, Note_on_c, 11, 62, 0
11, 54003, Control_c, 11, 11, 47
11, 54003, Note_on_c, 11, 60, 108
11, 54039, Control_c, 11, 11, 48
11, 54063, Note_on_c, 11, 60, 0
11, 54075, Control_c, 11, 11, 49
11, 54111, Control_c, 11, 11, 50
11, 54123, Note_on_c, 11, 64, 108
11, 54147, Control_c, 11, 11, 51
11, 54183, Note_on_c, 11, 64, 0
11, 54183, Control_c, 11, 11, 52
11, 54219, Control_c, 11, 11, 53
11, 54243, Note_on_c, 11, 67, 108
11, 54255, Control_c, 11, 11, 54
11, 54291, Control_c, 11, 11, 55
11, 54327, Control_c, 11, 11, 56
11, 54363, Control_c, 11, 11, 57
11, 54399, Control_c, 11, 11, 58
11, 54435, Control_c, 11, 11, 59
11, 54453, Note_on_c, 11, 67, 0
11, 54471, Control_c, 11, 11, 60
11, 54483, Note_on_c, 11, 69, 108
11, 54507, Control_c, 11, 11, 61
11, 54543, Note_on_c, 11, 69, 0
11, 54543, Control_c, 11, 11, 62
11, 54579, Control_c, 11, 11, 63
11, 54603, Note_on_c, 11, 71, 108
11, 54615, Control_c, 11, 11, 64
11, 54651, Control_c, 11, 11, 65
11, 54687, Control_c, 11, 11, 66
11, 54723, Control_c, 11, 11, 67
11, 54759, Control_c, 11, 11, 68
11, 54795, Control_c, 11, 11, 69
11, 54813, Note_on_c, 11, 71, 0
11, 54831, Control_c, 11, 11, 70
11, 54843, Note_on_c, 11, 72, 108
11, 54867, Control_c, 11, 11, 71
11, 54903, Note_on_c, 11, 72, 0
11, 54903, Control_c, 11, 11, 72
11, 54939, Control_c, 11, 11, 73
11, 54963, Note_on_c, 11, 67, 108
11, 54975, Control_c, 11, 11, 74
11, 55011, Control_c, 11, 11, 75
11, 55047, Control_c, 11, 11, 76
11, 55083, Control_c, 11, 11, 77
11, 55119, Control_c, 11, 11, 78
11, 55155, Control_c, 11, 11, 79
11, 55173, Note_on_c, 11, 67, 0
11, 55191, Control_c, 11, 11, 80
11, 55203, Note_on_c, 11, 65, 108
11, 55227, Control_c, 11, 11, 81
11, 55263, Note_on_c, 11, 65, 0
11, 55263, Control_c, 11, 11, 82
11, 55299, Control_c, 11, 11, 83
11, 55323, Note_on_c, 11, 62, 108
11, 55335, Control_c, 11, 11, 84
11, 55371, Control_c, 11, 11, 85
11, 55383, Note_on_c, 11, 62, 0
11, 55407, Control_c, 11, 11, 86
11, 55443, Note_on_c, 11, 60, 108
11, 55443, Control_c, 11, 11, 87
11, 55503, Note_on_c, 11, 60, 0
11, 55563, Note_on_c, 11, 64, 108
11, 55623, Note_on_c, 11, 64, 0
11, 55683, Control_c, 11, 11, 107
11, 55683, Note_on_c, 11, 67, 108
11, 55701, Control_c, 11, 11, 104
11, 55719, Control_c, 11, 11, 101
11, 55737, Control_c, 11, 11, 98
11, 55755, Control_c, 11, 11, 95
11, 55773, Control_c, 11, 11, 92
11, 55791, Control_c, 11, 11, 89
11, 55893, Note_on_c, 11, 67, 0
11, 55923, Note_on_c, 11, 65, 108
11, 55983, Note_on_c, 11, 65, 0
11, 56043, Note_on_c, 11, 62, 108
11, 56103, Note_on_c, 11, 62, 0
11, 56163, Control_c, 11, 11, 102
11, 56163, Note_on_c, 11, 60, 108
11, 56223, Note_on_c, 11, 60, 0
11, 56283, Note_on_c, 11, 64, 108
11, 56343, Note_on_c, 11, 64, 0
11, 56403, Note_on_c, 11, 67, 108
11, 56403, Control_c, 11, 11, 122
11, 56421, Control_c, 11, 11, 119
11, 56439, Control_c, 11, 11, 116
11, 56457, Control_c, 11, 11, 113
11, 56475, Control_c, 11, 11, 110
11, 56493, Control_c, 11, 11, 107
11, 56511, Control_c, 11, 11, 104
11, 56613, Note_on_c, 11, 67, 0
11, 56643, Note_on_c, 11, 69, 108
11, 56703, Note_on_c, 11, 69, 0
11, 56763, Note_on_c, 11, 71, 108
11, 56823, Note_on_c, 11, 71, 0
11, 56883, Note_on_c, 11, 72, 108
11, 56943, Note_on_c, 11, 72, 0
11, 57003, Note_on_c, 11, 67, 108
11, 57063, Note_on_c, 11, 67, 0
11, 57123, Note_on_c, 11, 64, 108
11, 57183, Note_on_c, 11, 64, 0
11, 57243, Note_on_c, 11, 60, 108
11, 57303, Note_on_c, 11, 60, 0
11, 59403, Control_c, 11, 11, 37
11, 59403, Control_c, 11, 91, 6
11, 59403, Note_on_c, 11, 60, 61
11, 59427, Control_c, 11, 11, 38
11, 59451, Control_c, 11, 11, 39
11, 59463, Note_on_c, 11, 60, 0
11, 59463, Note_on_c, 11, 55, 80
11, 59475, Control_c, 11, 11, 40
11, 59499, Control_c, 11, 11, 41
11, 59523, Note_on_c, 11, 55, 0
11, 59523, Note_on_c, 11, 57, 80
11, 59523, Control_c, 11, 11, 42
11, 59547, Control_c, 11, 11, 43
11, 59571, Control_c, 11, 11, 44
11, 59583, Note_on_c, 11, 57, 0
11, 59583, Note_on_c, 11, 59, 80
11, 59595, Control_c, 11, 11, 45
11, 59619, Control_c, 11, 11, 46
11, 59643, Note_on_c, 11, 59, 0
11, 59643, Control_c, 11, 11, 47
11, 59643, Note_on_c, 11, 60, 80
11, 59667, Control_c, 11, 11, 48
11, 59691, Control_c, 11, 11, 49
11, 59703, Note_on_c, 11, 60, 0
11, 59703, Note_on_c, 11, 62, 80
11, 59715, Control_c, 11, 11, 50
11, 59739, Control_c, 11, 11, 51
11, 59763, Note_on_c, 11, 62, 0
11, 59763, Note_on_c, 11, 64, 80
11, 59763, Control_c, 11, 11, 52
11, 59823, Note_on_c, 11, 64, 0
11, 59823, Note_on_c, 11, 59, 80
11, 59883, Note_on_c, 11, 59, 0
11, 59883, Note_on_c, 11, 60, 80
11, 59943, Note_on_c, 11, 60, 0
11, 59943, Note_on_c, 11, 62, 80
11, 60003, Note_on_c, 11, 62, 0
11, 60003, Note_on_c, 11, 64, 80
11, 60063, Note_on_c, 11, 64, 0
11, 60063, Note_on_c, 11, 65, 80
11, 60123, Note_on_c, 11, 65, 0
11, 60123, Note_on_c, 11, 67, 80
11, 60183, Note_on_c, 11, 67, 0
11, 60183, Note_on_c, 11, 66, 80
11, 60243, Note_on_c, 11, 66, 0
11, 60243, Note_on_c, 11, 67, 80
11, 60303, Note_on_c, 11, 67, 0
11, 60303, Note_on_c, 11, 65, 80
11, 60363, Note_on_c, 11, 65, 0
11, 60363, Note_on_c, 11, 64, 80
11, 60423, Note_on_c, 11, 64, 0
11, 60423, Note_on_c, 11, 62, 80
11, 60473, Note_on_c, 11, 62, 0
11, 60483, Note_on_c, 11, 60, 69
11, 60603, Note_on_c, 11, 60, 0
11, 62283, Note_on_c, 11, 62, 61
11, 62283, Control_c, 11, 11, 37
11, 62307, Control_c, 11, 11, 38
11, 62331, Control_c, 11, 11, 39
11, 62343, Note_on_c, 11, 62, 0
11, 62343, Note_on_c, 11, 57, 80
11, 62355, Control_c, 11, 11, 40
11, 62379, Control_c, 11, 11, 41
11, 62403, Note_on_c, 11, 57, 0
11, 62403, Control_c, 11, 11, 42
11, 62403, Note_on_c, 11, 59, 80
11, 62427, Control_c, 11, 11, 43
11, 62451, Control_c, 11, 11, 44
11, 62463, Note_on_c, 11, 59, 0
11, 62463, Note_on_c, 11, 61, 80
11, 62475, Control_c, 11, 11, 45
11, 62499, Control_c, 11, 11, 46
11, 62523, Note_on_c, 11, 61, 0
11, 62523, Note_on_c, 11, 62, 80
11, 62523, Control_c, 11, 11, 47
11, 62547, Control_c, 11, 11, 48
11, 62571, Control_c, 11, 11, 49
11, 62583, Note_on_c, 11, 62, 0
11, 62583, Note_on_c, 11, 64, 80
11, 62595, Control_c, 11, 11, 50
11, 62619, Control_c, 11, 11, 51
11, 62643, Note_on_c, 11, 64, 0
11, 62643, Control_c, 11, 11, 52
11, 62643, Note_on_c, 11, 65, 80
11, 62703, Note_on_c, 11, 65, 0
11, 62703, Note_on_c, 11, 61, 80
11, 62763, Note_on_c, 11, 61, 0
11, 62763, Note_on_c, 11, 62, 80
11, 62823, Note_on_c, 11, 62, 0
11, 62823, Note_on_c, 11, 64, 80
11, 62883, Note_on_c, 11, 64, 0
11, 62883, Note_on_c, 11, 65, 80
11, 62943, Note_on_c, 11, 65, 0
11, 62943, Note_on_c, 11, 67, 80
11, 63003, Note_on_c, 11, 67, 0
11, 63003, Note_on_c, 11, 69, 80
11, 63063, Note_on_c, 11, 69, 0
11, 63063, Note_on_c, 11, 67, 80
11, 63123, Note_on_c, 11, 67, 0
11, 63123, Note_on_c, 11, 65, 80
11, 63183, Note_on_c, 11, 65, 0
11, 63183, Note_on_c, 11, 64, 80
11, 63243, Note_on_c, 11, 64, 0
11, 63243, Note_on_c, 11, 62, 80
11, 63303, Note_on_c, 11, 62, 0
11, 63303, Note_on_c, 11, 61, 80
11, 63353, Note_on_c, 11, 61, 0
11, 63363, Note_on_c, 11, 59, 69
11, 63483, Note_on_c, 11, 59, 0
11, 63723, Control_c, 11, 11, 42
11, 63723, Note_on_c, 11, 67, 93
11, 63747, Control_c, 11, 11, 43
11, 63771, Control_c, 11, 11, 44
11, 63783, Note_on_c, 11, 67, 0
11, 63783, Note_on_c, 11, 66, 93
11, 63795, Control_c, 11, 11, 45
11, 63819, Control_c, 11, 11, 46
11, 63843, Note_on_c, 11, 66, 0
11, 63843, Note_on_c, 11, 67, 93
11, 63843, Control_c, 11, 11, 47
11, 63867, Control_c, 11, 11, 48
11, 63891, Control_c, 11, 11, 49
11, 63903, Note_on_c, 11, 67, 0
11, 63903, Note_on_c, 11, 66, 93
11, 63915, Control_c, 11, 11, 50
11, 63939, Control_c, 11, 11, 51
11, 63953, Note_on_c, 11, 66, 0
11, 63963, Control_c, 11, 11, 52
11, 63963, Note_on_c, 11, 67, 93
11, 64023, Note_on_c, 11, 67, 0
11, 64443, Control_c, 11, 11, 42
11, 64443, Note_on_c, 11, 67, 93
11, 64467, Control_c, 11, 11, 43
11, 64491, Control_c, 11, 11, 44
11, 64503, Note_on_c, 11, 67, 0
11, 64503, Note_on_c, 11, 66, 93
11, 64515, Control_c, 11, 11, 45
11, 64539, Control_c, 11, 11, 46
11, 64563, Note_on_c, 11, 66, 0
11, 64563, Note_on_c, 11, 67, 93
11, 64563, Control_c, 11, 11, 47
11, 64587, Control_c, 11, 11, 48
11, 64611, Control_c, 11, 11, 49
11, 64623, Note_on_c, 11, 67, 0
11, 64623, Note_on_c, 11, 66, 93
11, 64635, Control_c, 11, 11, 50
11, 64659, Control_c, 11, 11, 51
11, 64673, Note_on_c, 11, 66, 0
11, 64683, Control_c, 11, 11, 52
11, 64683, Note_on_c, 11, 67, 93
11, 64743, Note_on_c, 11, 67, 0
11, 64923, Note_on_c, 11, 74, 93
11, 64983, Note_on_c, 11, 74, 0
11, 64983, Note_on_c, 11, 73, 93
11, 65043, Note_on_c, 11, 73, 0
11, 65043, Note_on_c, 11, 74, 93
11, 65103, Note_on_c, 11, 74, 0
11, 65103, Note_on_c, 11, 73, 93
11, 65153, Note_on_c, 11, 73, 0
11, 65163, Note_on_c, 11, 74, 93
11, 65223, Note_on_c, 11, 74, 0
11, 65283, Note_on_c, 11, 62, 93
11, 65283, Control_c, 11, 11, 42
11, 65307, Control_c, 11, 11, 43
11, 65331, Control_c, 11, 11, 44
11, 65343, Note_on_c, 11, 62, 0
11, 65343, Note_on_c, 11, 61, 93
11, 65355, Control_c, 11, 11, 45
11, 65379, Control_c, 11, 11, 46
11, 65403, Note_on_c, 11, 61, 0
11, 65403, Control_c, 11, 11, 47
11, 65403, Note_on_c, 11, 62, 93
11, 65427, Control_c, 11, 11, 48
11, 65451, Control_c, 11, 11, 49
11, 65463, Note_on_c, 11, 62, 0
11, 65463, Note_on_c, 11, 61, 93
11, 65475, Control_c, 11, 11, 50
11, 65499, Control_c, 11, 11, 51
11, 65513, Note_on_c, 11, 61, 0
11, 65523, Note_on_c, 11, 62, 93
11, 65523, Control_c, 11, 11, 52
11, 65583, Note_on_c, 11, 62, 0
11, 65583, Note_on_c, 11, 64, 93
11, 65643, Note_on_c, 11, 64, 0
11, 65643, Note_on_c, 11, 66, 93
11, 65703, Note_on_c, 11, 66, 0
11, 65703, Note_on_c, 11, 67, 93
11, 65763, Note_on_c, 11, 67, 0
11, 65763, Note_on_c, 11, 69, 93
11, 65823, Note_on_c, 11, 69, 0
11, 65823, Note_on_c, 11, 66, 93
11, 65873, Note_on_c, 11, 66, 0
11, 65883, Note_on_c, 11, 67, 80
11, 66003, Note_on_c, 11, 67, 0
11, 68043, Control_c, 11, 11, 37
11, 68043, Control_c, 11, 91, 6
11, 68043, Note_on_c, 11, 60, 61
11, 68067, Control_c, 11, 11, 38
11, 68091, Control_c, 11, 11, 39
11, 68103, Note_on_c, 11, 60, 0
11, 68103, Note_on_c, 11, 55, 80
11, 68115, Control_c, 11, 11, 40
11, 68139, Control_c, 11, 11, 41
11, 68163, Note_on_c, 11, 55, 0
11, 68163, Note_on_c, 11, 57, 80
11, 68163, Control_c, 11, 11, 42
11, 68187, Control_c, 11, 11, 43
11, 68211, Control_c, 11, 11, 44
11, 68223, Note_on_c, 11, 57, 0
11, 68223, Note_on_c, 11, 59, 80
11, 68235, Control_c, 11, 11, 45
11, 68259, Control_c, 11, 11, 46
11, 68283, Note_on_c, 11, 59, 0
11, 68283, Control_c, 11, 11, 47
11, 68283, Note_on_c, 11, 60, 80
11, 68307, Control_c, 11, 11, 48
11, 68331, Control_c, 11, 11, 49
11, 68343, Note_on_c, 11, 60, 0
11, 68343, Note_on_c, 11, 62, 80
11, 68355, Control_c, 11, 11, 50
11, 68379, Control_c, 11, 11, 51
11, 68403, Note_on_c, 11, 62, 0
11, 68403, Note_on_c, 11, 64, 80
11, 68403, Control_c, 11, 11, 52
11, 68463, Note_on_c, 11, 64, 0
11, 68463, Note_on_c, 11, 59, 80
11, 68523, Note_on_c, 11, 59, 0
11, 68523, Note_on_c, 11, 60, 80
11, 68583, Note_on_c, 11, 60, 0
11, 68583, Note_on_c, 11, 62, 80
11, 68643, Note_on_c, 11, 62, 0
11, 68643, Note_on_c, 11, 64, 80
11, 68703, Note_on_c, 11, 64, 0
11, 68703, Note_on_c, 11, 65, 80
11, 68763, Note_on_c, 11, 65, 0
11, 68763, Note_on_c, 11, 67, 80
11, 68823, Note_on_c, 11, 67, 0
11, 68823, Note_on_c, 11, 66, 80
11, 68883, Note_on_c, 11, 66, 0
11, 68883, Note_on_c, 11, 67, 80
11, 68943, Note_on_c, 11, 67, 0
11, 68943, Note_on_c, 11, 65, 80
11, 69003, Note_on_c, 11, 65, 0
11, 69003, Note_on_c, 11, 64, 80
11, 69063, Note_on_c, 11, 64, 0
11, 69063, Note_on_c, 11, 62, 80
11, 69113, Note_on_c, 11, 62, 0
11, 69123, Note_on_c, 11, 60, 69
11, 69243, Note_on_c, 11, 60, 0
11, 70923, Note_on_c, 11, 62, 61
11, 70923, Control_c, 11, 11, 37
11, 70947, Control_c, 11, 11, 38
11, 70971, Control_c, 11, 11, 39
11, 70983, Note_on_c, 11, 62, 0
11, 70983, Note_on_c, 11, 57, 80
11, 70995, Control_c, 11, 11, 40
11, 71019, Control_c, 11, 11, 41
11, 71043, Note_on_c, 11, 57, 0
11, 71043, Control_c, 11, 11, 42
11, 71043, Note_on_c, 11, 59, 80
11, 71067, Control_c, 11, 11, 43
11, 71091, Control_c, 11, 11, 44
11, 71103, Note_on_c, 11, 59, 0
11, 71103, Note_on_c, 11, 61, 80
11, 71115, Control_c, 11, 11, 45
11, 71139, Control_c, 11, 11, 46
11, 71163, Note_on_c, 11, 61, 0
11, 71163, Note_on_c, 11, 62, 80
11, 71163, Control_c, 11, 11, 47
11, 71187, Control_c, 11, 11, 48
11, 71211, Control_c, 11, 11, 49
11, 71223, Note_on_c, 11, 62, 0
11, 71223, Note_on_c, 11, 64, 80
11, 71235, Control_c, 11, 11, 50
11, 71259, Control_c, 11, 11, 51
11, 71283, Note_on_c, 11, 64, 0
11, 71283, Control_c, 11, 11, 52
11, 71283, Note_on_c, 11, 65, 80
11, 71343, Note_on_c, 11, 65, 0
11, 71343, Note_on_c, 11, 61, 80
11, 71403, Note_on_c, 11, 61, 0
11, 71403, Note_on_c, 11, 62, 80
11, 71463, Note_on_c, 11, 62, 0
11, 71463, Note_on_c, 11, 64, 80
11, 71523, Note_on_c, 11, 64, 0
11, 71523, Note_on_c, 11, 65, 80
11, 71583, Note_on_c, 11, 65, 0
11, 71583, Note_on_c, 11, 67, 80
11, 71643, Note_on_c, 11, 67, 0
11, 71643, Note_on_c, 11, 69, 80
11, 71703, Note_on_c, 11, 69, 0
11, 71703, Note_on_c, 11, 67, 80
11, 71763, Note_on_c, 11, 67, 0
11, 71763, Note_on_c, 11, 65, 80
11, 71823, Note_on_c, 11, 65, 0
11, 71823, Note_on_c, 11, 64, 80
11, 71883, Note_on_c, 11, 64, 0
11, 71883, Note_on_c, 11, 62, 80
11, 71943, Note_on_c, 11, 62, 0
11, 71943, Note_on_c, 11, 61, 80
11, 71993, Note_on_c, 11, 61, 0
11, 72003, Note_on_c, 11, 59, 69
11, 72123, Note_on_c, 11, 59, 0
11, 72363, Control_c, 11, 11, 42
11, 72363, Note_on_c, 11, 67, 93
11, 72387, Control_c, 11, 11, 43
11, 72411, Control_c, 11, 11, 44
11, 72423, Note_on_c, 11, 67, 0
11, 72423, Note_on_c, 11, 66, 93
11, 72435, Control_c, 11, 11, 45
11, 72459, Control_c, 11, 11, 46
11, 72483, Note_on_c, 11, 66, 0
11, 72483, Note_on_c, 11, 67, 93
11, 72483, Control_c, 11, 11, 47
11, 72507, Control_c, 11, 11, 48
11, 72531, Control_c, 11, 11, 49
11, 72543, Note_on_c, 11, 67, 0
11, 72543, Note_on_c, 11, 66, 93
11, 72555, Control_c, 11, 11, 50
11, 72579, Control_c, 11, 11, 51
11, 72593, Note_on_c, 11, 66, 0
11, 72603, Control_c, 11, 11, 52
11, 72603, Note_on_c, 11, 67, 93
11, 72663, Note_on_c, 11, 67, 0
11, 73083, Control_c, 11, 11, 42
11, 73083, Note_on_c, 11, 67, 93
11, 73107, Control_c, 11, 11, 43
11, 73131, Control_c, 11, 11, 44
11, 73143, Note_on_c, 11, 67, 0
11, 73143, Note_on_c, 11, 66, 93
11, 73155, Control_c, 11, 11, 45
11, 73179, Control_c, 11, 11, 46
11, 73203, Note_on_c, 11, 66, 0
11, 73203, Note_on_c, 11, 67, 93
11, 73203, Control_c, 11, 11, 47
11, 73227, Control_c, 11, 11, 48
11, 73251, Control_c, 11, 11, 49
11, 73263, Note_on_c, 11, 67, 0
11, 73263, Note_on_c, 11, 66, 93
11, 73275, Control_c, 11, 11, 50
11, 73299, Control_c, 11, 11, 51
11, 73313, Note_on_c, 11, 66, 0
11, 73323, Control_c, 11, 11, 52
11, 73323, Note_on_c, 11, 67, 93
11, 73383, Note_on_c, 11, 67, 0
11, 73563, Note_on_c, 11, 74, 93
11, 73623, Note_on_c, 11, 74, 0
11, 73623, Note_on_c, 11, 73, 93
11, 73683, Note_on_c, 11, 73, 0
11, 73683, Note_on_c, 11, 74, 93
11, 73743, Note_on_c, 11, 74, 0
11, 73743, Note_on_c, 11, 73, 93
11, 73793, Note_on_c, 11, 73, 0
11, 73803, Note_on_c, 11, 74, 93
11, 73863, Note_on_c, 11, 74, 0
11, 73923, Note_on_c, 11, 62, 93
11, 73923, Control_c, 11, 11, 42
11, 73947, Control_c, 11, 11, 43
11, 73971, Control_c, 11, 11, 44
11, 73983, Note_on_c, 11, 62, 0
11, 73983, Note_on_c, 11, 61, 93
11, 73995, Control_c, 11, 11, 45
11, 74019, Control_c, 11, 11, 46
11, 74043, Note_on_c, 11, 61, 0
11, 74043, Control_c, 11, 11, 47
11, 74043, Note_on_c, 11, 62, 93
11, 74067, Control_c, 11, 11, 48
11, 74091, Control_c, 11, 11, 49
11, 74103, Note_on_c, 11, 62, 0
11, 74103, Note_on_c, 11, 61, 93
11, 74115, Control_c, 11, 11, 50
11, 74139, Control_c, 11, 11, 51
11, 74153, Note_on_c, 11, 61, 0
11, 74163, Note_on_c, 11, 62, 93
11, 74163, Control_c, 11, 11, 52
11, 74223, Note_on_c, 11, 62, 0
11, 74223, Note_on_c, 11, 64, 93
11, 74283, Note_on_c, 11, 64, 0
11, 74283, Note_on_c, 11, 66, 93
11, 74343, Note_on_c, 11, 66, 0
11, 74343, Note_on_c, 11, 67, 93
11, 74403, Note_on_c, 11, 67, 0
11, 74403, Note_on_c, 11, 69, 93
11, 74463, Note_on_c, 11, 69, 0
11, 74463, Note_on_c, 11, 66, 93
11, 74513, Note_on_c, 11, 66, 0
11, 74523, Note_on_c, 11, 67, 80
11, 74643, Note_on_c, 11, 67, 0
11, 82803, Control_c, 11, 91, 32
11, 82803, Note_on_c, 11, 72, 123
11, 82803, Note_on_c, 11, 64, 123
11, 82803, Control_c, 11, 11, 82
11, 82821, Control_c, 11, 11, 85
11, 82839, Control_c, 11, 11, 88
11, 82857, Control_c, 11, 11, 91
11, 82875, Control_c, 11, 11, 94
11, 82893, Control_c, 11, 11, 97
11, 82911, Control_c, 11, 11, 100
11, 82994, Note_on_c, 11, 64, 0
11, 82994, Note_on_c, 11, 72, 0
11, 83043, Note_on_c, 11, 64, 123
11, 83043, Note_on_c, 11, 72, 123
11, 83103, Note_on_c, 11, 72, 0
11, 83103, Note_on_c, 11, 64, 0
11, 83163, Control_c, 11, 11, 122
11, 83163, Note_on_c, 11, 69, 108
11, 83186, Control_c, 11, 11, 120
11, 83210, Control_c, 11, 11, 118
11, 83223, Note_on_c, 11, 69, 0
11, 83223, Note_on_c, 11, 68, 108
11, 83234, Control_c, 11, 11, 116
11, 83258, Control_c, 11, 11, 114
11, 83282, Control_c, 11, 11, 112
11, 83283, Note_on_c, 11, 68, 0
11, 83283, Note_on_c, 11, 69, 108
11, 83306, Control_c, 11, 11, 110
11, 83330, Control_c, 11, 11, 108
11, 83343, Note_on_c, 11, 69, 0
11, 83343, Note_on_c, 11, 65, 108
11, 83354, Control_c, 11, 11, 106
11, 83378, Control_c, 11, 11, 104
11, 83402, Control_c, 11, 11, 102
11, 83403, Note_on_c, 11, 65, 0
11, 83403, Note_on_c, 11, 60, 108
11, 83463, Note_on_c, 11, 60, 0
11, 83463, Note_on_c, 11, 57, 108
11, 83508, Note_on_c, 11, 57, 0
11, 83523, Note_on_c, 11, 55, 108
11, 83643, Note_on_c, 11, 55, 0
11, 83883, Note_on_c, 11, 67, 108
11, 83883, Control_c, 11, 11, 122
11, 83906, Control_c, 11, 11, 120
11, 83930, Control_c, 11, 11, 118
11, 83943, Note_on_c, 11, 67, 0
11, 83943, Note_on_c, 11, 66, 108
11, 83954, Control_c, 11, 11, 116
11, 83978, Control_c, 11, 11, 114
11, 84002, Control_c, 11, 11, 112
11, 84003, Note_on_c, 11, 66, 0
11, 84003, Note_on_c, 11, 67, 108
11, 84026, Control_c, 11, 11, 110
11, 84050, Control_c, 11, 11, 108
11, 84063, Note_on_c, 11, 67, 0
11, 84063, Note_on_c, 11, 69, 108
11, 84074, Control_c, 11, 11, 106
11, 84098, Control_c, 11, 11, 104
11, 84122, Control_c, 11, 11, 102
11, 84123, Note_on_c, 11, 69, 0
11, 84123, Note_on_c, 11, 71, 108
11, 84183, Note_on_c, 11, 71, 0
11, 84183, Note_on_c, 11, 67, 108
11, 84228, Note_on_c, 11, 67, 0
11, 84243, Note_on_c, 11, 72, 108
11, 84303, Note_on_c, 11, 72, 0
11, 84603, Note_on_c, 11, 69, 108
11, 84603, Control_c, 11, 11, 122
11, 84626, Control_c, 11, 11, 120
11, 84650, Control_c, 11, 11, 118
11, 84663, Note_on_c, 11, 69, 0
11, 84663, Note_on_c, 11, 68, 108
11, 84674, Control_c, 11, 11, 116
11, 84698, Control_c, 11, 11, 114
11, 84722, Control_c, 11, 11, 112
11, 84723, Note_on_c, 11, 68, 0
11, 84723, Note_on_c, 11, 69, 108
11, 84746, Control_c, 11, 11, 110
11, 84770, Control_c, 11, 11, 108
11, 84783, Note_on_c, 11, 69, 0
11, 84783, Note_on_c, 11, 65, 108
11, 84794, Control_c, 11, 11, 106
11, 84818, Control_c, 11, 11, 104
11, 84842, Control_c, 11, 11, 102
11, 84843, Note_on_c, 11, 65, 0
11, 84843, Note_on_c, 11, 60, 108
11, 84903, Note_on_c, 11, 60, 0
11, 84903, Note_on_c, 11, 57, 108
11, 84948, Note_on_c, 11, 57, 0
11, 84963, Note_on_c, 11, 55, 108
11, 85083, Note_on_c, 11, 55, 0
11, 85323, Control_c, 11, 11, 122
11, 85323, Note_on_c, 11, 67, 108
11, 85346, Control_c, 11, 11, 120
11, 85370, Control_c, 11, 11, 118
11, 85383, Note_on_c, 11, 67, 0
11, 85383, Note_on_c, 11, 66, 108
11, 85394, Control_c, 11, 11, 116
11, 85418, Control_c, 11, 11, 114
11, 85442, Control_c, 11, 11, 112
11, 85443, Note_on_c, 11, 66, 0
11, 85443, Note_on_c, 11, 67, 108
11, 85466, Control_c, 11, 11, 110
11, 85490, Control_c, 11, 11, 108
11, 85503, Note_on_c, 11, 67, 0
11, 85503, Note_on_c, 11, 69, 108
11, 85514, Control_c, 11, 11, 106
11, 85538, Control_c, 11, 11, 104
11, 85562, Control_c, 11, 11, 102
11, 85563, Note_on_c, 11, 69, 0
11, 85563, Note_on_c, 11, 71, 108
11, 85623, Note_on_c, 11, 71, 0
11, 85623, Note_on_c, 11, 67, 108
11, 85668, Note_on_c, 11, 67, 0
11, 85683, Note_on_c, 11, 72, 108
11, 85743, Note_on_c, 11, 72, 0
11, 85803, Control_c, 11, 11, 122
11, 85803, Note_on_c, 11, 67, 108
11, 85826, Control_c, 11, 11, 120
11, 85850, Control_c, 11, 11, 118
11, 85863, Note_on_c, 11, 67, 0
11, 85863, Note_on_c, 11, 69, 108
11, 85874, Control_c, 11, 11, 116
11, 85898, Control_c, 11, 11, 114
11, 85922, Control_c, 11, 11, 112
11, 85923, Note_on_c, 11, 69, 0
11, 85923, Note_on_c, 11, 71, 108
11, 85946, Control_c, 11, 11, 110
11, 85970, Control_c, 11, 11, 108
11, 85983, Note_on_c, 11, 71, 0
11, 85983, Note_on_c, 11, 67, 108
11, 85994, Control_c, 11, 11, 106
11, 86018, Control_c, 11, 11, 104
11, 86028, Note_on_c, 11, 67, 0
11, 86042, Control_c, 11, 11, 102
11, 86043, Note_on_c, 11, 72, 108
11, 86088, Note_on_c, 11, 72, 0
11, 86163, Control_c, 11, 11, 122
11, 86163, Note_on_c, 11, 67, 108
11, 86186, Control_c, 11, 11, 120
11, 86210, Control_c, 11, 11, 118
11, 86223, Note_on_c, 11, 67, 0
11, 86223, Note_on_c, 11, 66, 108
11, 86234, Control_c, 11, 11, 116
11, 86258, Control_c, 11, 11, 114
11, 86282, Control_c, 11, 11, 112
11, 86283, Note_on_c, 11, 66, 0
11, 86283, Note_on_c, 11, 67, 108
11, 86306, Control_c, 11, 11, 110
11, 86330, Control_c, 11, 11, 108
11, 86343, Note_on_c, 11, 67, 0
11, 86343, Note_on_c, 11, 66, 108
11, 86354, Control_c, 11, 11, 106
11, 86378, Control_c, 11, 11, 104
11, 86388, Note_on_c, 11, 66, 0
11, 86402, Control_c, 11, 11, 102
11, 86403, Control_c, 11, 11, 122
11, 86403, Note_on_c, 11, 67, 108
11, 86426, Control_c, 11, 11, 120
11, 86450, Control_c, 11, 11, 118
11, 86463, Note_on_c, 11, 67, 0
11, 86463, Note_on_c, 11, 69, 108
11, 86474, Control_c, 11, 11, 116
11, 86498, Control_c, 11, 11, 114
11, 86522, Control_c, 11, 11, 112
11, 86523, Note_on_c, 11, 69, 0
11, 86523, Note_on_c, 11, 71, 108
11, 86546, Control_c, 11, 11, 110
11, 86570, Control_c, 11, 11, 108
11, 86583, Note_on_c, 11, 71, 0
11, 86583, Note_on_c, 11, 72, 108
11, 86594, Control_c, 11, 11, 106
11, 86618, Control_c, 11, 11, 104
11, 86642, Control_c, 11, 11, 102
11, 86643, Note_on_c, 11, 72, 0
11, 86643, Note_on_c, 11, 74, 108
11, 86703, Note_on_c, 11, 74, 0
11, 86703, Note_on_c, 11, 71, 108
11, 86748, Note_on_c, 11, 71, 0
11, 86763, Note_on_c, 11, 72, 108
11, 86883, Note_on_c, 11, 72, 0
11, 95043, Control_c, 11, 91, 32
11, 95043, Control_c, 11, 11, 82
11, 95043, Note_on_c, 11, 64, 123
11, 95043, Note_on_c, 11, 72, 123
11, 95061, Control_c, 11, 11, 85
11, 95079, Control_c, 11, 11, 88
11, 95097, Control_c, 11, 11, 91
11, 95115, Control_c, 11, 11, 94
11, 95133, Control_c, 11, 11, 97
11, 95151, Control_c, 11, 11, 100
11, 95234, Note_on_c, 11, 72, 0
11, 95234, Note_on_c, 11, 64, 0
11, 95283, Note_on_c, 11, 72, 123
11, 95283, Note_on_c, 11, 64, 123
11, 95343, Note_on_c, 11, 64, 0
11, 95343, Note_on_c, 11, 72, 0
11, 95403, Note_on_c, 11, 69, 108
11, 95403, Control_c, 11, 11, 122
11, 95426, Control_c, 11, 11, 120
11, 95450, Control_c, 11, 11, 118
11, 95463, Note_on_c, 11, 69, 0
11, 95463, Note_on_c, 11, 68, 108
11, 95474, Control_c, 11, 11, 116
11, 95498, Control_c, 11, 11, 114
11, 95522, Control_c, 11, 11, 112
11, 95523, Note_on_c, 11, 68, 0
11, 95523, Note_on_c, 11, 69, 108
11, 95546, Control_c, 11, 11, 110
11, 95570, Control_c, 11, 11, 108
11, 95583, Note_on_c, 11, 69, 0
11, 95583, Note_on_c, 11, 65, 108
11, 95594, Control_c, 11, 11, 106
11, 95618, Control_c, 11, 11, 104
11, 95642, Control_c, 11, 11, 102
11, 95643, Note_on_c, 11, 65, 0
11, 95643, Note_on_c, 11, 60, 108
11, 95703, Note_on_c, 11, 60, 0
11, 95703, Note_on_c, 11, 57, 108
11, 95748, Note_on_c, 11, 57, 0
11, 95763, Note_on_c, 11, 55, 108
11, 95883, Note_on_c, 11, 55, 0
11, 96123, Control_c, 11, 11, 122
11, 96123, Note_on_c, 11, 67, 108
11, 96146, Control_c, 11, 11, 120
11, 96170, Control_c, 11, 11, 118
11, 96183, Note_on_c, 11, 67, 0
11, 96183, Note_on_c, 11, 66, 108
11, 96194, Control_c, 11, 11, 116
11, 96218, Control_c, 11, 11, 114
11, 96242, Control_c, 11, 11, 112
11, 96243, Note_on_c, 11, 66, 0
11, 96243, Note_on_c, 11, 67, 108
11, 96266, Control_c, 11, 11, 110
11, 96290, Control_c, 11, 11, 108
11, 96303, Note_on_c, 11, 67, 0
11, 96303, Note_on_c, 11, 69, 108
11, 96314, Control_c, 11, 11, 106
11, 96338, Control_c, 11, 11, 104
11, 96362, Control_c, 11, 11, 102
11, 96363, Note_on_c, 11, 69, 0
11, 96363, Note_on_c, 11, 71, 108
11, 96423, Note_on_c, 11, 71, 0
11, 96423, Note_on_c, 11, 67, 108
11, 96468, Note_on_c, 11, 67, 0
11, 96483, Note_on_c, 11, 72, 108
11, 96543, Note_on_c, 11, 72, 0
11, 96843, Control_c, 11, 11, 122
11, 96843, Note_on_c, 11, 69, 108
11, 96866, Control_c, 11, 11, 120
11, 96890, Control_c, 11, 11, 118
11, 96903, Note_on_c, 11, 69, 0
11, 96903, Note_on_c, 11, 68, 108
11, 96914, Control_c, 11, 11, 116
11, 96938, Control_c, 11, 11, 114
11, 96962, Control_c, 11, 11, 112
11, 96963, Note_on_c, 11, 68, 0
11, 96963, Note_on_c, 11, 69, 108
11, 96986, Control_c, 11, 11, 110
11, 97010, Control_c, 11, 11, 108
11, 97023, Note_on_c, 11, 69, 0
11, 97023, Note_on_c, 11, 65, 108
11, 97034, Control_c, 11, 11, 106
11, 97058, Control_c, 11, 11, 104
11, 97082, Control_c, 11, 11, 102
11, 97083, Note_on_c, 11, 65, 0
11, 97083, Note_on_c, 11, 60, 108
11, 97143, Note_on_c, 11, 60, 0
11, 97143, Note_on_c, 11, 57, 108
11, 97188, Note_on_c, 11, 57, 0
11, 97203, Note_on_c, 11, 55, 108
11, 97323, Note_on_c, 11, 55, 0
11, 97563, Control_c, 11, 11, 122
11, 97563, Note_on_c, 11, 67, 108
11, 97586, Control_c, 11, 11, 120
11, 97610, Control_c, 11, 11, 118
11, 97623, Note_on_c, 11, 67, 0
11, 97623, Note_on_c, 11, 66, 108
11, 97634, Control_c, 11, 11, 116
11, 97658, Control_c, 11, 11, 114
11, 97682, Control_c, 11, 11, 112
11, 97683, Note_on_c, 11, 66, 0
11, 97683, Note_on_c, 11, 67, 108
11, 97706, Control_c, 11, 11, 110
11, 97730, Control_c, 11, 11, 108
11, 97743, Note_on_c, 11, 67, 0
11, 97743, Note_on_c, 11, 69, 108
11, 97754, Control_c, 11, 11, 106
11, 97778, Control_c, 11, 11, 104
11, 97802, Control_c, 11, 11, 102
11, 97803, Note_on_c, 11, 69, 0
11, 97803, Note_on_c, 11, 71, 108
11, 97863, Note_on_c, 11, 71, 0
11, 97863, Note_on_c, 11, 67, 108
11, 97908, Note_on_c, 11, 67, 0
11, 97923, Note_on_c, 11, 72, 108
11, 97983, Note_on_c, 11, 72, 0
11, 98043, Control_c, 11, 11, 122
11, 98043, Note_on_c, 11, 67, 108
11, 98066, Control_c, 11, 11, 120
11, 98090, Control_c, 11, 11, 118
11, 98103, Note_on_c, 11, 67, 0
11, 98103, Note_on_c, 11, 69, 108
11, 98114, Control_c, 11, 11, 116
11, 98138, Control_c, 11, 11, 114
11, 98162, Control_c, 11, 11, 112
11, 98163, Note_on_c, 11, 69, 0
11, 98163, Note_on_c, 11, 71, 108
11, 98186, Control_c, 11, 11, 110
11, 98210, Control_c, 11, 11, 108
11, 98223, Note_on_c, 11, 71, 0
11, 98223, Note_on_c, 11, 67, 108
11, 98234, Control_c, 11, 11, 106
11, 98258, Control_c, 11, 11, 104
11, 98268, Note_on_c, 11, 67, 0
11, 98282, Control_c, 11, 11, 102
11, 98283, Note_on_c, 11, 72, 108
11, 98328, Note_on_c, 11, 72, 0
11, 98403, Control_c, 11, 11, 122
11, 98403, Note_on_c, 11, 67, 108
11, 98426, Control_c, 11, 11, 120
11, 98450, Control_c, 11, 11, 118
11, 98463, Note_on_c, 11, 67, 0
11, 98463, Note_on_c, 11, 66, 108
11, 98474, Control_c, 11, 11, 116
11, 98498, Control_c, 11, 11, 114
11, 98522, Control_c, 11, 11, 112
11, 98523, Note_on_c, 11, 66, 0
11, 98523, Note_on_c, 11, 67, 108
11, 98546, Control_c, 11, 11, 110
11, 98570, Control_c, 11, 11, 108
11, 98583, Note_on_c, 11, 67, 0
11, 98583, Note_on_c, 11, 66, 108
11, 98594, Control_c, 11, 11, 106
11, 98618, Control_c, 11, 11, 104
11, 98628, Note_on_c, 11, 66, 0
11, 98642, Control_c, 11, 11, 102
11, 98643, Control_c, 11, 11, 122
11, 98643, Note_on_c, 11, 67, 108
11, 98666, Control_c, 11, 11, 120
11, 98690, Control_c, 11, 11, 118
11, 98703, Note_on_c, 11, 67, 0
11, 98703, Note_on_c, 11, 69, 108
11, 98714, Control_c, 11, 11, 116
11, 98738, Control_c, 11, 11, 114
11, 98762, Control_c, 11, 11, 112
11, 98763, Note_on_c, 11, 69, 0
11, 98763, Note_on_c, 11, 71, 108
11, 98786, Control_c, 11, 11, 110
11, 98810, Control_c, 11, 11, 108
11, 98823, Note_on_c, 11, 71, 0
11, 98823, Note_on_c, 11, 72, 108
11, 98834, Control_c, 11, 11, 106
11, 98858, Control_c, 11, 11, 104
11, 98882, Control_c, 11, 11, 102
11, 98883, Note_on_c, 11, 72, 0
11, 98883, Note_on_c, 11, 74, 108
11, 98943, Note_on_c, 11, 74, 0
11, 98943, Note_on_c, 11, 71, 108
11, 98988, Note_on_c, 11, 71, 0
11, 99003, Note_on_c, 11, 72, 108
11, 99123, Note_on_c, 11, 72, 0
11, 99243, Note_on_c, 11, 67, 118
11, 99243, Control_c, 11, 11, 37
11, 99291, Control_c, 11, 11, 38
11, 99303, Note_on_c, 11, 67, 0
11, 99339, Control_c, 11, 11, 39
11, 99363, Note_on_c, 11, 69, 108
11, 99387, Control_c, 11, 11, 40
11, 99435, Control_c, 11, 11, 41
11, 99483, Note_on_c, 11, 69, 0
11, 99483, Control_c, 11, 11, 42
11, 99531, Control_c, 11, 11, 43
11, 99579, Control_c, 11, 11, 44
11, 99603, Note_on_c, 11, 62, 108
11, 99627, Control_c, 11, 11, 45
11, 99663, Note_on_c, 11, 62, 0
11, 99675, Control_c, 11, 11, 46
11, 99723, Control_c, 11, 11, 47
11, 99723, Note_on_c, 11, 64, 108
11, 99843, Note_on_c, 11, 64, 0
11, 99963, Note_on_c, 11, 62, 108
11, 100023, Note_on_c, 11, 62, 0
11, 100083, Note_on_c, 11, 64, 108
11, 100143, Note_on_c, 11, 64, 0
11, 100203, Note_on_c, 11, 64, 108
11, 100263, Note_on_c, 11, 64, 0
11, 100323, Note_on_c, 11, 66, 108
11, 100383, Note_on_c, 11, 66, 0
11, 100443, Note_on_c, 11, 67, 108
11, 100563, Note_on_c, 11, 67, 0
11, 100683, Note_on_c, 11, 68, 108
11, 100683, Control_c, 11, 11, 47
11, 100701, Control_c, 11, 11, 48
11, 100719, Control_c, 11, 11, 49
11, 100737, Control_c, 11, 11, 50
11, 100743, Note_on_c, 11, 68, 0
11, 100755, Control_c, 11, 11, 51
11, 100773, Control_c, 11, 11, 52
11, 100791, Control_c, 11, 11, 53
11, 100803, Note_on_c, 11, 69, 108
11, 100809, Control_c, 11, 11, 54
11, 100827, Control_c, 11, 11, 55
11, 100845, Control_c, 11, 11, 56
11, 100863, Control_c, 11, 11, 57
11, 100881, Control_c, 11, 11, 58
11, 100899, Control_c, 11, 11, 59
11, 100917, Control_c, 11, 11, 60
11, 100923, Note_on_c, 11, 69, 0
11, 100935, Control_c, 11, 11, 61
11, 100953, Control_c, 11, 11, 62
11, 100971, Control_c, 11, 11, 63
11, 100989, Control_c, 11, 11, 64
11, 101007, Control_c, 11, 11, 65
11, 101025, Control_c, 11, 11, 66
11, 101043, Control_c, 11, 11, 67
11, 101043, Note_on_c, 11, 71, 108
11, 101061, Control_c, 11, 11, 68
11, 101079, Control_c, 11, 11, 69
11, 101097, Control_c, 11, 11, 70
11, 101103, Note_on_c, 11, 71, 0
11, 101115, Control_c, 11, 11, 71
11, 101133, Control_c, 11, 11, 72
11, 101151, Control_c, 11, 11, 73
11, 101163, Note_on_c, 11, 72, 108
11, 101169, Control_c, 11, 11, 74
11, 101187, Control_c, 11, 11, 75
11, 101205, Control_c, 11, 11, 76
11, 101223, Control_c, 11, 11, 77
11, 101241, Control_c, 11, 11, 78
11, 101259, Control_c, 11, 11, 79
11, 101277, Control_c, 11, 11, 80
11, 101283, Note_on_c, 11, 72, 0
11, 101295, Control_c, 11, 11, 81
11, 101313, Control_c, 11, 11, 82
11, 101331, Control_c, 11, 11, 83
11, 101349, Control_c, 11, 11, 84
11, 101367, Control_c, 11, 11, 85
11, 101385, Control_c, 11, 11, 86
11, 101403, Control_c, 11, 11, 87
11, 101403, Note_on_c, 11, 73, 108
11, 101463, Note_on_c, 11, 73, 0
11, 101523, Note_on_c, 11, 74, 108
11, 101583, Note_on_c, 11, 74, 0
11, 101643, Note_on_c, 11, 74, 108
11, 101703, Note_on_c, 11, 74, 0
11, 101763, Note_on_c, 11, 74, 108
11, 101823, Note_on_c, 11, 74, 0
11, 101883, Note_on_c, 11, 67, 108
11, 102003, Note_on_c, 11, 67, 0
11, 102123, Note_on_c, 11, 67, 108
11, 102123, Control_c, 11, 11, 57
11, 102183, Note_on_c, 11, 67, 0
11, 102243, Note_on_c, 11, 69, 108
11, 102243, Control_c, 11, 11, 39
11, 102267, Control_c, 11, 11, 40
11, 102315, Control_c, 11, 11, 41
11, 102363, Note_on_c, 11, 69, 0
11, 102363, Control_c, 11, 11, 42
11, 102411, Control_c, 11, 11, 43
11, 102459, Control_c, 11, 11, 44
11, 102483, Note_on_c, 11, 62, 108
11, 102507, Control_c, 11, 11, 45
11, 102543, Note_on_c, 11, 62, 0
11, 102555, Control_c, 11, 11, 46
11, 102603, Note_on_c, 11, 64, 108
11, 102603, Control_c, 11, 11, 47
11, 102723, Note_on_c, 11, 64, 0
11, 102843, Note_on_c, 11, 62, 108
11, 102903, Note_on_c, 11, 62, 0
11, 102963, Note_on_c, 11, 64, 108
11, 103023, Note_on_c, 11, 64, 0
11, 103083, Note_on_c, 11, 64, 108
11, 103143, Note_on_c, 11, 64, 0
11, 103203, Note_on_c, 11, 66, 108
11, 103263, Note_on_c, 11, 66, 0
11, 103323, Note_on_c, 11, 67, 108
11, 103443, Note_on_c, 11, 67, 0
11, 103563, Control_c, 11, 11, 47
11, 103563, Note_on_c, 11, 68, 108
11, 103581, Control_c, 11, 11, 48
11, 103599, Control_c, 11, 11, 49
11, 103617, Control_c, 11, 11, 50
11, 103623, Note_on_c, 11, 68, 0
11, 103635, Control_c, 11, 11, 51
11, 103653, Control_c, 11, 11, 52
11, 103671, Control_c, 11, 11, 53
11, 103683, Note_on_c, 11, 69, 108
11, 103689, Control_c, 11, 11, 54
11, 103707, Control_c, 11, 11, 55
11, 103725, Control_c, 11, 11, 56
11, 103743, Control_c, 11, 11, 57
11, 103761, Control_c, 11, 11, 58
11, 103779, Control_c, 11, 11, 59
11, 103797, Control_c, 11, 11, 60
11, 103803, Note_on_c, 11, 69, 0
11, 103815, Control_c, 11, 11, 61
11, 103833, Control_c, 11, 11, 62
11, 103851, Control_c, 11, 11, 63
11, 103869, Control_c, 11, 11, 64
11, 103887, Control_c, 11, 11, 65
11, 103905, Control_c, 11, 11, 66
11, 103923, Control_c, 11, 11, 67
11, 103923, Note_on_c, 11, 71, 108
11, 103941, Control_c, 11, 11, 68
11, 103959, Control_c, 11, 11, 69
11, 103977, Control_c, 11, 11, 70
11, 103983, Note_on_c, 11, 71, 0
11, 103995, Control_c, 11, 11, 71
11, 104013, Control_c, 11, 11, 72
11, 104031, Control_c, 11, 11, 73
11, 104043, Note_on_c, 11, 72, 108
11, 104049, Control_c, 11, 11, 74
11, 104067, Control_c, 11, 11, 75
11, 104085, Control_c, 11, 11, 76
11, 104103, Control_c, 11, 11, 77
11, 104121, Control_c, 11, 11, 78
11, 104139, Control_c, 11, 11, 79
11, 104157, Control_c, 11, 11, 80
11, 104163, Note_on_c, 11, 72, 0
11, 104175, Control_c, 11, 11, 81
11, 104193, Control_c, 11, 11, 82
11, 104211, Control_c, 11, 11, 83
11, 104229, Control_c, 11, 11, 84
11, 104247, Control_c, 11, 11, 85
11, 104265, Control_c, 11, 11, 86
11, 104283, Note_on_c, 11, 73, 108
11, 104283, Control_c, 11, 11, 87
11, 104343, Note_on_c, 11, 73, 0
11, 104403, Note_on_c, 11, 74, 108
11, 104463, Note_on_c, 11, 74, 0
11, 104523, Note_on_c, 11, 74, 108
11, 104583, Note_on_c, 11, 74, 0
11, 104643, Note_on_c, 11, 74, 108
11, 104703, Note_on_c, 11, 74, 0
11, 104763, Note_on_c, 11, 67, 108
11, 104883, Note_on_c, 11, 67, 0
11, 105003, Note_on_c, 11, 67, 118
11, 105003, Control_c, 11, 11, 47
11, 105063, Note_on_c, 11, 67, 0
11, 105123, Note_on_c, 11, 68, 108
11, 105363, Note_on_c, 11, 68, 0
11, 105363, Note_on_c, 11, 67, 108
11, 105453, Note_on_c, 11, 67, 0
11, 105483, Note_on_c, 11, 68, 108
11, 105723, Note_on_c, 11, 68, 0
11, 105723, Note_on_c, 11, 67, 108
11, 105813, Note_on_c, 11, 67, 0
11, 105843, Note_on_c, 11, 68, 108
11, 105903, Note_on_c, 11, 68, 0
11, 105963, Control_c, 11, 11, 87
11, 105963, Note_on_c, 11, 68, 108
11, 106023, Note_on_c, 11, 68, 0
11, 106083, Note_on_c, 11, 68, 108
11, 106143, Note_on_c, 11, 68, 0
11, 106203, Note_on_c, 11, 68, 108
11, 106323, Note_on_c, 11, 68, 0
11, 106323, Note_on_c, 11, 67, 108
11, 106413, Note_on_c, 11, 67, 0
11, 106413, Control_c, 11, 11, 87
11, 106417, Control_c, 11, 11, 84
11, 106422, Control_c, 11, 11, 81
11, 106426, Control_c, 11, 11, 78
11, 106431, Control_c, 11, 11, 75
11, 106435, Control_c, 11, 11, 72
11, 106440, Control_c, 11, 11, 69
11, 106443, Note_on_c, 11, 63, 118
11, 106503, Note_on_c, 11, 63, 0
11, 106563, Note_on_c, 11, 65, 108
11, 106563, Control_c, 11, 11, 47
11, 106803, Note_on_c, 11, 65, 0
11, 106803, Note_on_c, 11, 63, 108
11, 106893, Note_on_c, 11, 63, 0
11, 106923, Note_on_c, 11, 65, 108
11, 107163, Note_on_c, 11, 65, 0
11, 107163, Note_on_c, 11, 63, 108
11, 107253, Note_on_c, 11, 63, 0
11, 107283, Note_on_c, 11, 65, 108
11, 107343, Note_on_c, 11, 65, 0
11, 107403, Control_c, 11, 11, 87
11, 107403, Note_on_c, 11, 72, 108
11, 107463, Note_on_c, 11, 72, 0
11, 107523, Note_on_c, 11, 74, 108
11, 107583, Note_on_c, 11, 74, 0
11, 107643, Note_on_c, 11, 67, 108
11, 107763, Note_on_c, 11, 67, 0
11, 107883, Note_on_c, 11, 60, 101
11, 107943, Note_on_c, 11, 60, 0
11, 108003, Note_on_c, 11, 61, 93
11, 108063, Note_on_c, 11, 61, 0
11, 108123, Note_on_c, 11, 61, 108
11, 108183, Note_on_c, 11, 61, 0
11, 108243, Note_on_c, 11, 61, 108
11, 108303, Note_on_c, 11, 61, 0
11, 108363, Note_on_c, 11, 61, 108
11, 108483, Note_on_c, 11, 61, 0
11, 108483, Note_on_c, 11, 60, 108
11, 108573, Note_on_c, 11, 60, 0
11, 108603, Note_on_c, 11, 56, 93
11, 108663, Note_on_c, 11, 56, 0
11, 108723, Note_on_c, 11, 58, 93
11, 108723, Control_c, 11, 11, 102
11, 108783, Note_on_c, 11, 58, 0
11, 108843, Note_on_c, 11, 61, 108
11, 108903, Note_on_c, 11, 61, 0
11, 108963, Note_on_c, 11, 61, 108
11, 109023, Note_on_c, 11, 61, 0
11, 109083, Note_on_c, 11, 61, 108
11, 109143, Note_on_c, 11, 61, 0
11, 109203, Note_on_c, 11, 61, 108
11, 109263, Note_on_c, 11, 61, 0
11, 109323, Note_on_c, 11, 63, 108
11, 109383, Note_on_c, 11, 63, 0
11, 109443, Note_on_c, 11, 65, 108
11, 109443, Control_c, 11, 11, 122
11, 109460, Control_c, 11, 11, 119
11, 109478, Control_c, 11, 11, 116
11, 109496, Control_c, 11, 11, 113
11, 109514, Control_c, 11, 11, 110
11, 109532, Control_c, 11, 11, 107
11, 109550, Control_c, 11, 11, 104
11, 109563, Note_on_c, 11, 65, 0
11, 109803, Control_c, 11, 11, 122
11, 109803, Note_on_c, 11, 63, 108
11, 109820, Control_c, 11, 11, 119
11, 109838, Control_c, 11, 11, 116
11, 109856, Control_c, 11, 11, 113
11, 109874, Control_c, 11, 11, 110
11, 109892, Control_c, 11, 11, 107
11, 109910, Control_c, 11, 11, 104
11, 109923, Note_on_c, 11, 63, 0
11, 110163, Control_c, 11, 11, 122
11, 110163, Note_on_c, 11, 61, 108
11, 110180, Control_c, 11, 11, 119
11, 110198, Control_c, 11, 11, 116
11, 110216, Control_c, 11, 11, 113
11, 110234, Control_c, 11, 11, 110
11, 110252, Control_c, 11, 11, 107
11, 110270, Control_c, 11, 11, 104
11, 110283, Note_on_c, 11, 61, 0
11, 110523, Note_on_c, 11, 60, 108
11, 110523, Control_c, 11, 11, 122
11, 110540, Control_c, 11, 11, 119
11, 110558, Control_c, 11, 11, 116
11, 110576, Control_c, 11, 11, 113
11, 110594, Control_c, 11, 11, 110
11, 110612, Control_c, 11, 11, 107
11, 110630, Control_c, 11, 11, 104
11, 110643, Note_on_c, 11, 60, 0
11, 110883, Note_on_c, 11, 61, 72
11, 110883, Control_c, 11, 11, 122
11, 110901, Control_c, 11, 11, 119
11, 110919, Control_c, 11, 11, 116
11, 110937, Control_c, 11, 11, 113
11, 110955, Control_c, 11, 11, 110
11, 110973, Control_c, 11, 11, 107
11, 110991, Control_c, 11, 11, 104
11, 111003, Note_on_c, 11, 61, 0
11, 111123, Control_c, 11, 11, 47
11, 111123, Note_on_c, 11, 75, 87
11, 111183, Note_on_c, 11, 75, 0
11, 111243, Note_on_c, 11, 75, 80
11, 111303, Note_on_c, 11, 75, 0
11, 111363, Note_on_c, 11, 75, 80
11, 111423, Note_on_c, 11, 75, 0
11, 111483, Note_on_c, 11, 75, 80
11, 111543, Note_on_c, 11, 75, 0
11, 111603, Note_on_c, 11, 75, 80
11, 111723, Note_on_c, 11, 75, 0
11, 111723, Note_on_c, 11, 73, 80
11, 111813, Note_on_c, 11, 73, 0
11, 111843, Note_on_c, 11, 66, 87
11, 111903, Note_on_c, 11, 66, 0
11, 111963, Note_on_c, 11, 66, 80
11, 112023, Note_on_c, 11, 66, 0
11, 112083, Note_on_c, 11, 66, 80
11, 112143, Note_on_c, 11, 66, 0
11, 112203, Note_on_c, 11, 66, 80
11, 112263, Note_on_c, 11, 66, 0
11, 112323, Note_on_c, 11, 66, 80
11, 112443, Note_on_c, 11, 66, 0
11, 112443, Note_on_c, 11, 65, 80
11, 112533, Note_on_c, 11, 65, 0
11, 112563, Note_on_c, 11, 75, 87
11, 112623, Note_on_c, 11, 75, 0
11, 112683, Note_on_c, 11, 75, 80
11, 112743, Note_on_c, 11, 75, 0
11, 112803, Note_on_c, 11, 75, 80
11, 112863, Note_on_c, 11, 75, 0
11, 112923, Note_on_c, 11, 75, 80
11, 112983, Note_on_c, 11, 75, 0
11, 113043, Note_on_c, 11, 75, 80
11, 113163, Note_on_c, 11, 75, 0
11, 113163, Note_on_c, 11, 73, 80
11, 113253, Note_on_c, 11, 73, 0
11, 113283, Note_on_c, 11, 66, 87
11, 113343, Note_on_c, 11, 66, 0
11, 113403, Note_on_c, 11, 66, 80
11, 113463, Note_on_c, 11, 66, 0
11, 113523, Note_on_c, 11, 66, 80
11, 113583, Note_on_c, 11, 66, 0
11, 113643, Note_on_c, 11, 66, 80
11, 113703, Note_on_c, 11, 66, 0
11, 113763, Note_on_c, 11, 65, 80
11, 113853, Note_on_c, 11, 65, 0
11, 113853, Control_c, 11, 11, 47
11, 113859, Control_c, 11, 11, 44
11, 113865, Control_c, 11, 11, 41
11, 113871, Control_c, 11, 11, 38
11, 113877, Control_c, 11, 11, 35
11, 113883, Note_on_c, 11, 61, 108
11, 113883, Control_c, 11, 11, 32
11, 113973, Note_on_c, 11, 61, 0
11, 114003, Note_on_c, 11, 61, 108
11, 114093, Note_on_c, 11, 61, 0
11, 114123, Note_on_c, 11, 61, 108
11, 114213, Note_on_c, 11, 61, 0
11, 114243, Note_on_c, 11, 61, 108
11, 114333, Note_on_c, 11, 61, 0
11, 114363, Note_on_c, 11, 61, 108
11, 114453, Note_on_c, 11, 61, 0
11, 114483, Note_on_c, 11, 61, 108
11, 114573, Note_on_c, 11, 61, 0
11, 114603, Note_on_c, 11, 61, 108
11, 114693, Note_on_c, 11, 61, 0
11, 114723, Note_on_c, 11, 61, 108
11, 114813, Note_on_c, 11, 61, 0
11, 114843, Note_on_c, 11, 61, 108
11, 114933, Note_on_c, 11, 61, 0
11, 114963, Note_on_c, 11, 61, 108
11, 115053, Note_on_c, 11, 61, 0
11, 115083, Note_on_c, 11, 62, 108
11, 115173, Note_on_c, 11, 62, 0
11, 115203, Note_on_c, 11, 63, 108
11, 115293, Note_on_c, 11, 63, 0
11, 115323, Note_on_c, 11, 63, 108
11, 115413, Note_on_c, 11, 63, 0
11, 115443, Note_on_c, 11, 63, 108
11, 115533, Note_on_c, 11, 63, 0
11, 115563, Note_on_c, 11, 63, 108
11, 115653, Note_on_c, 11, 63, 0
11, 115683, Note_on_c, 11, 63, 108
11, 115773, Note_on_c, 11, 63, 0
11, 115803, Note_on_c, 11, 63, 108
11, 115893, Note_on_c, 11, 63, 0
11, 115923, Note_on_c, 11, 63, 108
11, 116013, Note_on_c, 11, 63, 0
11, 116043, Note_on_c, 11, 63, 108
11, 116133, Note_on_c, 11, 63, 0
11, 116163, Note_on_c, 11, 63, 108
11, 116253, Note_on_c, 11, 63, 0
11, 116283, Note_on_c, 11, 63, 108
11, 116373, Note_on_c, 11, 63, 0
11, 116403, Note_on_c, 11, 63, 108
11, 116493, Note_on_c, 11, 63, 0
11, 116523, Note_on_c, 11, 63, 108
11, 116613, Note_on_c, 11, 63, 0
11, 116643, Note_on_c, 11, 64, 108
11, 116643, Control_c, 11, 11, 37
11, 116669, Control_c, 11, 11, 38
11, 116695, Control_c, 11, 11, 39
11, 116722, Control_c, 11, 11, 40
11, 116733, Note_on_c, 11, 64, 0
11, 116748, Control_c, 11, 11, 41
11, 116763, Note_on_c, 11, 64, 108
11, 116775, Control_c, 11, 11, 42
11, 116801, Control_c, 11, 11, 43
11, 116827, Control_c, 11, 11, 44
11, 116853, Note_on_c, 11, 64, 0
11, 116854, Control_c, 11, 11, 45
11, 116880, Control_c, 11, 11, 46
11, 116883, Note_on_c, 11, 64, 108
11, 116907, Control_c, 11, 11, 47
11, 116933, Control_c, 11, 11, 48
11, 116959, Control_c, 11, 11, 49
11, 116973, Note_on_c, 11, 64, 0
11, 116986, Control_c, 11, 11, 50
11, 117003, Note_on_c, 11, 64, 108
11, 117012, Control_c, 11, 11, 51
11, 117039, Control_c, 11, 11, 52
11, 117065, Control_c, 11, 11, 53
11, 117091, Control_c, 11, 11, 54
11, 117093, Note_on_c, 11, 64, 0
11, 117118, Control_c, 11, 11, 55
11, 117123, Note_on_c, 11, 64, 108
11, 117144, Control_c, 11, 11, 56
11, 117171, Control_c, 11, 11, 57
11, 117197, Control_c, 11, 11, 58
11, 117213, Note_on_c, 11, 64, 0
11, 117223, Control_c, 11, 11, 59
11, 117243, Note_on_c, 11, 64, 108
11, 117250, Control_c, 11, 11, 60
11, 117276, Control_c, 11, 11, 61
11, 117303, Control_c, 11, 11, 62
11, 117329, Control_c, 11, 11, 63
11, 117333, Note_on_c, 11, 64, 0
11, 117355, Control_c, 11, 11, 64
11, 117363, Note_on_c, 11, 64, 108
11, 117382, Control_c, 11, 11, 65
11, 117408, Control_c, 11, 11, 66
11, 117435, Control_c, 11, 11, 67
11, 117453, Note_on_c, 11, 64, 0
11, 117461, Control_c, 11, 11, 68
11, 117483, Note_on_c, 11, 64, 108
11, 117487, Control_c, 11, 11, 69
11, 117514, Control_c, 11, 11, 70
11, 117540, Control_c, 11, 11, 71
11, 117567, Control_c, 11, 11, 72
11, 117573, Note_on_c, 11, 64, 0
11, 117593, Control_c, 11, 11, 73
11, 117603, Note_on_c, 11, 64, 108
11, 117619, Control_c, 11, 11, 74
11, 117646, Control_c, 11, 11, 75
11, 117672, Control_c, 11, 11, 76
11, 117693, Note_on_c, 11, 64, 0
11, 117699, Control_c, 11, 11, 77
11, 117723, Note_on_c, 11, 64, 108
11, 117725, Control_c, 11, 11, 78
11, 117751, Control_c, 11, 11, 79
11, 117778, Control_c, 11, 11, 80
11, 117804, Control_c, 11, 11, 81
11, 117813, Note_on_c, 11, 64, 0
11, 117831, Control_c, 11, 11, 82
11, 117843, Note_on_c, 11, 64, 108
11, 117857, Control_c, 11, 11, 83
11, 117883, Control_c, 11, 11, 84
11, 117910, Control_c, 11, 11, 85
11, 117933, Note_on_c, 11, 64, 0
11, 117936, Control_c, 11, 11, 86
11, 117963, Note_on_c, 11, 64, 108
11, 117963, Control_c, 11, 11, 87
11, 118023, Note_on_c, 11, 64, 0
11, 118083, Note_on_c, 11, 65, 108
11, 118203, Note_on_c, 11, 65, 0
11, 118323, Note_on_c, 11, 62, 108
11, 118383, Note_on_c, 11, 62, 0
11, 118443, Note_on_c, 11, 64, 108
11, 118563, Note_on_c, 11, 64, 0
11, 118683, Note_on_c, 11, 62, 108
11, 118743, Note_on_c, 11, 62, 0
11, 118803, Note_on_c, 11, 64, 108
11, 118863, Note_on_c, 11, 64, 0
11, 118923, Note_on_c, 11, 64, 108
11, 118983, Note_on_c, 11, 64, 0
11, 119043, Note_on_c, 11, 66, 108
11, 119103, Note_on_c, 11, 66, 0
11, 119163, Note_on_c, 11, 67, 108
11, 119283, Note_on_c, 11, 67, 0
11, 119403, Note_on_c, 11, 68, 108
11, 119403, Control_c, 11, 11, 102
11, 119463, Note_on_c, 11, 68, 0
11, 119523, Note_on_c, 11, 69, 108
11, 119643, Note_on_c, 11, 69, 0
11, 119763, Note_on_c, 11, 71, 108
11, 119823, Note_on_c, 11, 71, 0
11, 119883, Note_on_c, 11, 72, 108
11, 120003, Note_on_c, 11, 72, 0
11, 120123, Note_on_c, 11, 74, 108
11, 120183, Note_on_c, 11, 74, 0
11, 120243, Note_on_c, 11, 76, 108
11, 120303, Note_on_c, 11, 76, 0
11, 120363, Note_on_c, 11, 76, 108
11, 120423, Note_on_c, 11, 76, 0
11, 120483, Note_on_c, 11, 78, 108
11, 120543, Note_on_c, 11, 78, 0
11, 120603, Note_on_c, 11, 79, 108
11, 120603, Control_c, 11, 11, 122
11, 120620, Control_c, 11, 11, 119
11, 120638, Control_c, 11, 11, 116
11, 120656, Control_c, 11, 11, 113
11, 120674, Control_c, 11, 11, 110
11, 120692, Control_c, 11, 11, 107
11, 120710, Control_c, 11, 11, 104
11, 120723, Note_on_c, 11, 79, 0
11, 120843, Note_on_c, 11, 72, 108
11, 120903, Note_on_c, 11, 72, 0
11, 120963, Note_on_c, 11, 74, 108
11, 121023, Note_on_c, 11, 74, 0
11, 121083, Note_on_c, 11, 74, 108
11, 121143, Note_on_c, 11, 74, 0
11, 121203, Note_on_c, 11, 76, 108
11, 121263, Note_on_c, 11, 76, 0
11, 121323, Note_on_c, 11, 77, 108
11, 121323, Control_c, 11, 11, 122
11, 121340, Control_c, 11, 11, 119
11, 121358, Control_c, 11, 11, 116
11, 121376, Control_c, 11, 11, 113
11, 121394, Control_c, 11, 11, 110
11, 121412, Control_c, 11, 11, 107
11, 121430, Control_c, 11, 11, 104
11, 121443, Note_on_c, 11, 77, 0
11, 121563, Note_on_c, 11, 67, 108
11, 121623, Note_on_c, 11, 67, 0
11, 121683, Note_on_c, 11, 69, 108
11, 121743, Note_on_c, 11, 69, 0
11, 121803, Note_on_c, 11, 69, 108
11, 121863, Note_on_c, 11, 69, 0
11, 121923, Note_on_c, 11, 71, 108
11, 121983, Note_on_c, 11, 71, 0
11, 122043, Control_c, 11, 11, 122
11, 122043, Note_on_c, 11, 72, 108
11, 122060, Control_c, 11, 11, 119
11, 122078, Control_c, 11, 11, 116
11, 122096, Control_c, 11, 11, 113
11, 122114, Control_c, 11, 11, 110
11, 122132, Control_c, 11, 11, 107
11, 122150, Control_c, 11, 11, 104
11, 122163, Note_on_c, 11, 72, 0
11, 122283, Note_on_c, 11, 72, 108
11, 122343, Note_on_c, 11, 72, 0
11, 122403, Note_on_c, 11, 76, 108
11, 122523, Note_on_c, 11, 76, 0
11, 122523, Note_on_c, 11, 72, 108
11, 122623, Note_on_c, 11, 72, 0
11, 122643, Note_on_c, 11, 55, 108
11, 122643, Note_on_c, 11, 65, 108
11, 122703, Note_on_c, 11, 65, 0
11, 122703, Note_on_c, 11, 55, 0
11, 122763, Note_on_c, 11, 55, 108
11, 122763, Note_on_c, 11, 64, 108
11, 122823, Note_on_c, 11, 64, 0
11, 122823, Note_on_c, 11, 55, 0
11, 123003, Note_on_c, 11, 55, 88
11, 123063, Note_on_c, 11, 55, 0
11, 123123, Note_on_c, 11, 56, 88
11, 123123, Control_c, 11, 11, 122
11, 123146, Control_c, 11, 11, 120
11, 123170, Control_c, 11, 11, 118
11, 123194, Control_c, 11, 11, 116
11, 123218, Control_c, 11, 11, 114
11, 123242, Control_c, 11, 11, 112
11, 123266, Control_c, 11, 11, 110
11, 123290, Control_c, 11, 11, 108
11, 123314, Control_c, 11, 11, 106
11, 123338, Control_c, 11, 11, 104
11, 123362, Control_c, 11, 11, 102
11, 123483, Note_on_c, 11, 56, 0
11, 123483, Note_on_c, 11, 55, 88
11, 123543, Note_on_c, 11, 55, 0
11, 123723, Note_on_c, 11, 67, 88
11, 123783, Note_on_c, 11, 67, 0
11, 123843, Control_c, 11, 11, 122
11, 123843, Note_on_c, 11, 68, 88
11, 123866, Control_c, 11, 11, 120
11, 123890, Control_c, 11, 11, 118
11, 123914, Control_c, 11, 11, 116
11, 123938, Control_c, 11, 11, 114
11, 123962, Control_c, 11, 11, 112
11, 123986, Control_c, 11, 11, 110
11, 124010, Control_c, 11, 11, 108
11, 124034, Control_c, 11, 11, 106
11, 124058, Control_c, 11, 11, 104
11, 124082, Control_c, 11, 11, 102
11, 124203, Note_on_c, 11, 68, 0
11, 124203, Note_on_c, 11, 67, 88
11, 124263, Note_on_c, 11, 67, 0
11, 124323, Control_c, 11, 11, 122
11, 124323, Note_on_c, 11, 56, 88
11, 124340, Control_c, 11, 11, 119
11, 124358, Control_c, 11, 11, 116
11, 124376, Control_c, 11, 11, 113
11, 124394, Control_c, 11, 11, 110
11, 124412, Control_c, 11, 11, 107
11, 124430, Control_c, 11, 11, 104
11, 124563, Note_on_c, 11, 56, 0
11, 124563, Note_on_c, 11, 55, 88
11, 124623, Note_on_c, 11, 55, 0
11, 124683, Note_on_c, 11, 68, 88
11, 124683, Control_c, 11, 11, 122
11, 124700, Control_c, 11, 11, 119
11, 124718, Control_c, 11, 11, 116
11, 124736, Control_c, 11, 11, 113
11, 124754, Control_c, 11, 11, 110
11, 124772, Control_c, 11, 11, 107
11, 124790, Control_c, 11, 11, 104
11, 124923, Note_on_c, 11, 68, 0
11, 124923, Note_on_c, 11, 67, 88
11, 124983, Note_on_c, 11, 67, 0
11, 125043, Note_on_c, 11, 56, 88
11, 125043, Control_c, 11, 11, 122
11, 125060, Control_c, 11, 11, 119
11, 125078, Control_c, 11, 11, 116
11, 125096, Control_c, 11, 11, 113
11, 125114, Control_c, 11, 11, 110
11, 125132, Control_c, 11, 11, 107
11, 125150, Control_c, 11, 11, 104
11, 125283, Note_on_c, 11, 56, 0
11, 125283, Note_on_c, 11, 55, 88
11, 125343, Note_on_c, 11, 55, 0
11, 125403, Control_c, 11, 11, 122
11, 125403, Note_on_c, 11, 68, 88
11, 125420, Control_c, 11, 11, 119
11, 125438, Control_c, 11, 11, 116
11, 125456, Control_c, 11, 11, 113
11, 125474, Control_c, 11, 11, 110
11, 125492, Control_c, 11, 11, 107
11, 125510, Control_c, 11, 11, 104
11, 125526, Control_c, 11, 11, 101
11, 125536, Control_c, 11, 11, 98
11, 125546, Control_c, 11, 11, 95
11, 125557, Control_c, 11, 11, 92
11, 125567, Control_c, 11, 11, 89
11, 125577, Control_c, 11, 11, 86
11, 125587, Control_c, 11, 11, 83
11, 125597, Control_c, 11, 11, 80
11, 125608, Control_c, 11, 11, 77
11, 125618, Control_c, 11, 11, 74
11, 125628, Control_c, 11, 11, 71
11, 125638, Control_c, 11, 11, 68
11, 125643, Note_on_c, 11, 68, 0
11, 125643, Note_on_c, 11, 67, 108
11, 125643, Control_c, 11, 11, 47
11, 125703, Note_on_c, 11, 67, 0
11, 126003, Note_on_c, 11, 77, 108
11, 126123, Note_on_c, 11, 77, 0
11, 126363, Note_on_c, 11, 76, 108
11, 126483, Note_on_c, 11, 76, 0
11, 126723, Note_on_c, 11, 62, 108
11, 126723, Note_on_c, 11, 71, 108
11, 126843, Note_on_c, 11, 71, 0
11, 126843, Note_on_c, 11, 62, 0
11, 127083, Control_c, 11, 11, 47
11, 127083, Note_on_c, 11, 60, 108
11, 127119, Control_c, 11, 11, 48
11, 127143, Note_on_c, 11, 60, 0
11, 127155, Control_c, 11, 11, 49
11, 127191, Control_c, 11, 11, 50
11, 127203, Note_on_c, 11, 64, 108
11, 127227, Control_c, 11, 11, 51
11, 127263, Note_on_c, 11, 64, 0
11, 127263, Control_c, 11, 11, 52
11, 127299, Control_c, 11, 11, 53
11, 127323, Note_on_c, 11, 67, 108
11, 127335, Control_c, 11, 11, 54
11, 127371, Control_c, 11, 11, 55
11, 127407, Control_c, 11, 11, 56
11, 127443, Control_c, 11, 11, 57
11, 127479, Control_c, 11, 11, 58
11, 127515, Control_c, 11, 11, 59
11, 127533, Note_on_c, 11, 67, 0
11, 127551, Control_c, 11, 11, 60
11, 127563, Note_on_c, 11, 69, 108
11, 127587, Control_c, 11, 11, 61
11, 127623, Note_on_c, 11, 69, 0
11, 127623, Control_c, 11, 11, 62
11, 127659, Control_c, 11, 11, 63
11, 127683, Note_on_c, 11, 71, 108
11, 127695, Control_c, 11, 11, 64
11, 127731, Control_c, 11, 11, 65
11, 127767, Control_c, 11, 11, 66
11, 127803, Control_c, 11, 11, 67
11, 127839, Control_c, 11, 11, 68
11, 127875, Control_c, 11, 11, 69
11, 127893, Note_on_c, 11, 71, 0
11, 127911, Control_c, 11, 11, 70
11, 127923, Note_on_c, 11, 72, 108
11, 127947, Control_c, 11, 11, 71
11, 127983, Note_on_c, 11, 72, 0
11, 127983, Control_c, 11, 11, 72
11, 128019, Control_c, 11, 11, 73
11, 128043, Note_on_c, 11, 67, 108
11, 128055, Control_c, 11, 11, 74
11, 128091, Control_c, 11, 11, 75
11, 128127, Control_c, 11, 11, 76
11, 128163, Control_c, 11, 11, 77
11, 128199, Control_c, 11, 11, 78
11, 128235, Control_c, 11, 11, 79
11, 128253, Note_on_c, 11, 67, 0
11, 128271, Control_c, 11, 11, 80
11, 128283, Note_on_c, 11, 65, 108
11, 128307, Control_c, 11, 11, 81
11, 128343, Note_on_c, 11, 65, 0
11, 128343, Control_c, 11, 11, 82
11, 128379, Control_c, 11, 11, 83
11, 128403, Note_on_c, 11, 62, 108
11, 128415, Control_c, 11, 11, 84
11, 128451, Control_c, 11, 11, 85
11, 128463, Note_on_c, 11, 62, 0
11, 128487, Control_c, 11, 11, 86
11, 128523, Note_on_c, 11, 60, 108
11, 128523, Control_c, 11, 11, 87
11, 128583, Note_on_c, 11, 60, 0
11, 128643, Note_on_c, 11, 64, 108
11, 128703, Note_on_c, 11, 64, 0
11, 128763, Control_c, 11, 11, 107
11, 128763, Note_on_c, 11, 67, 108
11, 128781, Control_c, 11, 11, 104
11, 128799, Control_c, 11, 11, 101
11, 128817, Control_c, 11, 11, 98
11, 128835, Control_c, 11, 11, 95
11, 128853, Control_c, 11, 11, 92
11, 128871, Control_c, 11, 11, 89
11, 128973, Note_on_c, 11, 67, 0
11, 129003, Note_on_c, 11, 65, 108
11, 129063, Note_on_c, 11, 65, 0
11, 129123, Note_on_c, 11, 62, 108
11, 129183, Note_on_c, 11, 62, 0
11, 129243, Note_on_c, 11, 60, 108
11, 129243, Control_c, 11, 11, 102
11, 129303, Note_on_c, 11, 60, 0
11, 129363, Note_on_c, 11, 64, 108
11, 129423, Note_on_c, 11, 64, 0
11, 129483, Control_c, 11, 11, 122
11, 129483, Note_on_c, 11, 67, 108
11, 129501, Control_c, 11, 11, 119
11, 129519, Control_c, 11, 11, 116
11, 129537, Control_c, 11, 11, 113
11, 129555, Control_c, 11, 11, 110
11, 129573, Control_c, 11, 11, 107
11, 129591, Control_c, 11, 11, 104
11, 129693, Note_on_c, 11, 67, 0
11, 129723, Note_on_c, 11, 69, 108
11, 129783, Note_on_c, 11, 69, 0
11, 129843, Note_on_c, 11, 71, 108
11, 129903, Note_on_c, 11, 71, 0
11, 129963, Note_on_c, 11, 72, 108
11, 130023, Note_on_c, 11, 72, 0
11, 130083, Note_on_c, 11, 67, 108
11, 130143, Note_on_c, 11, 67, 0
11, 130203, Note_on_c, 11, 64, 108
11, 130263, Note_on_c, 11, 64, 0
11, 130323, Note_on_c, 11, 60, 108
11, 130383, Note_on_c, 11, 60, 0
11, 130683, Control_c, 11, 121, 0
11, 130683, End_track
12, 0, Start_track
12, 0, MIDI_port, 0
12, 0, Title_t, "Viola"
12, 0, Program_c, 12, 48
12, 0, Control_c, 12, 10, 40
12, 7, Control_c, 12, 121, 0
12, 12, Program_c, 12, 48
12, 17, Pitch_bend_c, 12, 8492
12, 22, Control_c, 12, 11, 47
12, 27, Control_c, 12, 7, 127
12, 32, Control_c, 12, 91, 25
12, 37, Control_c, 12, 93, 0
12, 42, Control_c, 12, 10, 40
12, 47, Control_c, 12, 1, 36
12, 607, Control_c, 12, 11, 37
12, 655, Control_c, 12, 11, 38
12, 703, Control_c, 12, 11, 39
12, 727, Note_on_c, 12, 48, 106
12, 751, Control_c, 12, 11, 40
12, 787, Note_on_c, 12, 48, 0
12, 799, Control_c, 12, 11, 41
12, 847, Note_on_c, 12, 60, 106
12, 847, Control_c, 12, 11, 42
12, 895, Control_c, 12, 11, 43
12, 907, Note_on_c, 12, 60, 0
12, 943, Control_c, 12, 11, 44
12, 967, Note_on_c, 12, 60, 106
12, 991, Control_c, 12, 11, 45
12, 1027, Note_on_c, 12, 60, 0
12, 1039, Control_c, 12, 11, 46
12, 1087, Control_c, 12, 11, 47
12, 1087, Note_on_c, 12, 60, 106
12, 1147, Note_on_c, 12, 60, 0
12, 1207, Note_on_c, 12, 60, 106
12, 1267, Note_on_c, 12, 60, 0
12, 1327, Note_on_c, 12, 59, 106
12, 1387, Note_on_c, 12, 59, 0
12, 1447, Note_on_c, 12, 60, 106
12, 1507, Note_on_c, 12, 60, 0
12, 1567, Note_on_c, 12, 57, 106
12, 1627, Note_on_c, 12, 57, 0
12, 1687, Note_on_c, 12, 62, 106
12, 1747, Note_on_c, 12, 62, 0
12, 1807, Note_on_c, 12, 59, 106
12, 1867, Note_on_c, 12, 59, 0
12, 1927, Note_on_c, 12, 55, 106
12, 1987, Note_on_c, 12, 55, 0
12, 2047, Note_on_c, 12, 64, 106
12, 2047, Control_c, 12, 11, 47
12, 2065, Control_c, 12, 11, 48
12, 2083, Control_c, 12, 11, 49
12, 2101, Control_c, 12, 11, 50
12, 2107, Note_on_c, 12, 64, 0
12, 2119, Control_c, 12, 11, 51
12, 2137, Control_c, 12, 11, 52
12, 2155, Control_c, 12, 11, 53
12, 2167, Note_on_c, 12, 65, 106
12, 2173, Control_c, 12, 11, 54
12, 2191, Control_c, 12, 11, 55
12, 2209, Control_c, 12, 11, 56
12, 2227, Note_on_c, 12, 65, 0
12, 2227, Control_c, 12, 11, 57
12, 2245, Control_c, 12, 11, 58
12, 2263, Control_c, 12, 11, 59
12, 2281, Control_c, 12, 11, 60
12, 2287, Note_on_c, 12, 62, 106
12, 2299, Control_c, 12, 11, 61
12, 2317, Control_c, 12, 11, 62
12, 2335, Control_c, 12, 11, 63
12, 2347, Note_on_c, 12, 62, 0
12, 2353, Control_c, 12, 11, 64
12, 2371, Control_c, 12, 11, 65
12, 2389, Control_c, 12, 11, 66
12, 2407, Note_on_c, 12, 67, 106
12, 2407, Control_c, 12, 11, 67
12, 2425, Control_c, 12, 11, 68
12, 2443, Control_c, 12, 11, 69
12, 2461, Control_c, 12, 11, 70
12, 2467, Note_on_c, 12, 67, 0
12, 2479, Control_c, 12, 11, 71
12, 2497, Control_c, 12, 11, 72
12, 2515, Control_c, 12, 11, 73
12, 2527, Note_on_c, 12, 64, 106
12, 2533, Control_c, 12, 11, 74
12, 2551, Control_c, 12, 11, 75
12, 2569, Control_c, 12, 11, 76
12, 2587, Note_on_c, 12, 64, 0
12, 2587, Control_c, 12, 11, 77
12, 2605, Control_c, 12, 11, 78
12, 2623, Control_c, 12, 11, 79
12, 2641, Control_c, 12, 11, 80
12, 2647, Note_on_c, 12, 60, 106
12, 2659, Control_c, 12, 11, 81
12, 2677, Control_c, 12, 11, 82
12, 2695, Control_c, 12, 11, 83
12, 2707, Note_on_c, 12, 60, 0
12, 2713, Control_c, 12, 11, 84
12, 2731, Control_c, 12, 11, 85
12, 2749, Control_c, 12, 11, 86
12, 2767, Note_on_c, 12, 61, 106
12, 2767, Control_c, 12, 11, 87
12, 2827, Note_on_c, 12, 61, 0
12, 2887, Note_on_c, 12, 62, 106
12, 2947, Note_on_c, 12, 62, 0
12, 3007, Note_on_c, 12, 62, 106
12, 3067, Note_on_c, 12, 62, 0
12, 3127, Note_on_c, 12, 62, 106
12, 3187, Note_on_c, 12, 62, 0
12, 3247, Note_on_c, 12, 55, 106
12, 3367, Note_on_c, 12, 55, 0
12, 3487, Control_c, 12, 11, 37
12, 3535, Control_c, 12, 11, 38
12, 3583, Control_c, 12, 11, 39
12, 3607, Note_on_c, 12, 48, 106
12, 3631, Control_c, 12, 11, 40
12, 3667, Note_on_c, 12, 48, 0
12, 3679, Control_c, 12, 11, 41
12, 3727, Note_on_c, 12, 60, 106
12, 3727, Control_c, 12, 11, 42
12, 3775, Control_c, 12, 11, 43
12, 3787, Note_on_c, 12, 60, 0
12, 3823, Control_c, 12, 11, 44
12, 3847, Note_on_c, 12, 60, 106
12, 3871, Control_c, 12, 11, 45
12, 3907, Note_on_c, 12, 60, 0
12, 3919, Control_c, 12, 11, 46
12, 3967, Note_on_c, 12, 60, 106
12, 3967, Control_c, 12, 11, 47
12, 4027, Note_on_c, 12, 60, 0
12, 4087, Note_on_c, 12, 60, 106
12, 4147, Note_on_c, 12, 60, 0
12, 4207, Note_on_c, 12, 59, 106
12, 4267, Note_on_c, 12, 59, 0
12, 4327, Note_on_c, 12, 60, 106
12, 4387, Note_on_c, 12, 60, 0
12, 4447, Note_on_c, 12, 57, 106
12, 4507, Note_on_c, 12, 57, 0
12, 4567, Note_on_c, 12, 62, 106
12, 4627, Note_on_c, 12, 62, 0
12, 4687, Note_on_c, 12, 59, 106
12, 4747, Note_on_c, 12, 59, 0
12, 4807, Note_on_c, 12, 55, 106
12, 4867, Note_on_c, 12, 55, 0
12, 4927, Note_on_c, 12, 64, 106
12, 4927, Control_c, 12, 11, 47
12, 4945, Control_c, 12, 11, 48
12, 4963, Control_c, 12, 11, 49
12, 4981, Control_c, 12, 11, 50
12, 4987, Note_on_c, 12, 64, 0
12, 4999, Control_c, 12, 11, 51
12, 5017, Control_c, 12, 11, 52
12, 5035, Control_c, 12, 11, 53
12, 5047, Note_on_c, 12, 65, 106
12, 5053, Control_c, 12, 11, 54
12, 5071, Control_c, 12, 11, 55
12, 5089, Control_c, 12, 11, 56
12, 5107, Note_on_c, 12, 65, 0
12, 5107, Control_c, 12, 11, 57
12, 5125, Control_c, 12, 11, 58
12, 5143, Control_c, 12, 11, 59
12, 5161, Control_c, 12, 11, 60
12, 5167, Note_on_c, 12, 62, 106
12, 5179, Control_c, 12, 11, 61
12, 5197, Control_c, 12, 11, 62
12, 5215, Control_c, 12, 11, 63
12, 5227, Note_on_c, 12, 62, 0
12, 5233, Control_c, 12, 11, 64
12, 5251, Control_c, 12, 11, 65
12, 5269, Control_c, 12, 11, 66
12, 5287, Note_on_c, 12, 67, 106
12, 5287, Control_c, 12, 11, 67
12, 5305, Control_c, 12, 11, 68
12, 5323, Control_c, 12, 11, 69
12, 5341, Control_c, 12, 11, 70
12, 5347, Note_on_c, 12, 67, 0
12, 5359, Control_c, 12, 11, 71
12, 5377, Control_c, 12, 11, 72
12, 5395, Control_c, 12, 11, 73
12, 5407, Note_on_c, 12, 64, 106
12, 5413, Control_c, 12, 11, 74
12, 5431, Control_c, 12, 11, 75
12, 5449, Control_c, 12, 11, 76
12, 5467, Note_on_c, 12, 64, 0
12, 5467, Control_c, 12, 11, 77
12, 5485, Control_c, 12, 11, 78
12, 5503, Control_c, 12, 11, 79
12, 5521, Control_c, 12, 11, 80
12, 5527, Note_on_c, 12, 60, 106
12, 5539, Control_c, 12, 11, 81
12, 5557, Control_c, 12, 11, 82
12, 5575, Control_c, 12, 11, 83
12, 5587, Note_on_c, 12, 60, 0
12, 5593, Control_c, 12, 11, 84
12, 5611, Control_c, 12, 11, 85
12, 5629, Control_c, 12, 11, 86
12, 5647, Control_c, 12, 11, 87
12, 5647, Note_on_c, 12, 61, 106
12, 5707, Note_on_c, 12, 61, 0
12, 5767, Note_on_c, 12, 62, 106
12, 5827, Note_on_c, 12, 62, 0
12, 5887, Note_on_c, 12, 62, 106
12, 5947, Note_on_c, 12, 62, 0
12, 6007, Note_on_c, 12, 62, 106
12, 6067, Note_on_c, 12, 62, 0
12, 6127, Note_on_c, 12, 55, 106
12, 6247, Note_on_c, 12, 55, 0
12, 6607, Note_on_c, 12, 63, 106
12, 6607, Control_c, 12, 11, 47
12, 6727, Note_on_c, 12, 63, 0
12, 6727, Note_on_c, 12, 62, 106
12, 6847, Note_on_c, 12, 62, 0
12, 6967, Note_on_c, 12, 63, 106
12, 7087, Note_on_c, 12, 63, 0
12, 7087, Note_on_c, 12, 62, 106
12, 7207, Note_on_c, 12, 62, 0
12, 7327, Control_c, 12, 11, 87
12, 7327, Note_on_c, 12, 63, 106
12, 7387, Note_on_c, 12, 63, 0
12, 7447, Note_on_c, 12, 65, 106
12, 7507, Note_on_c, 12, 65, 0
12, 7567, Note_on_c, 12, 58, 106
12, 7687, Note_on_c, 12, 58, 0
12, 8047, Note_on_c, 12, 60, 106
12, 8047, Control_c, 12, 11, 47
12, 8167, Note_on_c, 12, 60, 0
12, 8167, Note_on_c, 12, 58, 106
12, 8287, Note_on_c, 12, 58, 0
12, 8407, Note_on_c, 12, 60, 106
12, 8527, Note_on_c, 12, 60, 0
12, 8527, Note_on_c, 12, 58, 106
12, 8647, Note_on_c, 12, 58, 0
12, 8767, Note_on_c, 12, 60, 106
12, 8767, Control_c, 12, 11, 87
12, 8827, Note_on_c, 12, 60, 0
12, 8887, Note_on_c, 12, 62, 106
12, 8947, Note_on_c, 12, 62, 0
12, 9007, Note_on_c, 12, 55, 106
12, 9127, Note_on_c, 12, 55, 0
12, 9487, Note_on_c, 12, 68, 106
12, 9547, Note_on_c, 12, 68, 0
12, 9607, Note_on_c, 12, 70, 106
12, 9667, Note_on_c, 12, 70, 0
12, 9727, Note_on_c, 12, 63, 106
12, 9847, Note_on_c, 12, 63, 0
12, 10207, Note_on_c, 12, 58, 106
12, 10207, Control_c, 12, 11, 102
12, 10267, Note_on_c, 12, 58, 0
12, 10327, Note_on_c, 12, 58, 106
12, 10387, Note_on_c, 12, 58, 0
12, 10447, Note_on_c, 12, 58, 106
12, 10507, Note_on_c, 12, 58, 0
12, 10567, Note_on_c, 12, 58, 106
12, 10627, Note_on_c, 12, 58, 0
12, 10687, Note_on_c, 12, 60, 106
12, 10747, Note_on_c, 12, 60, 0
12, 10807, Note_on_c, 12, 61, 106
12, 10807, Control_c, 12, 11, 122
12, 10824, Control_c, 12, 11, 119
12, 10842, Control_c, 12, 11, 116
12, 10860, Control_c, 12, 11, 113
12, 10878, Control_c, 12, 11, 110
12, 10896, Control_c, 12, 11, 107
12, 10914, Control_c, 12, 11, 104
12, 10927, Note_on_c, 12, 61, 0
12, 11167, Control_c, 12, 11, 122
12, 11167, Note_on_c, 12, 58, 106
12, 11184, Control_c, 12, 11, 119
12, 11202, Control_c, 12, 11, 116
12, 11220, Control_c, 12, 11, 113
12, 11238, Control_c, 12, 11, 110
12, 11256, Control_c, 12, 11, 107
12, 11274, Control_c, 12, 11, 104
12, 11287, Note_on_c, 12, 58, 0
12, 11527, Control_c, 12, 11, 122
12, 11527, Note_on_c, 12, 56, 106
12, 11544, Control_c, 12, 11, 119
12, 11562, Control_c, 12, 11, 116
12, 11580, Control_c, 12, 11, 113
12, 11598, Control_c, 12, 11, 110
12, 11616, Control_c, 12, 11, 107
12, 11634, Control_c, 12, 11, 104
12, 11647, Note_on_c, 12, 56, 0
12, 11887, Note_on_c, 12, 54, 106
12, 11887, Control_c, 12, 11, 122
12, 11904, Control_c, 12, 11, 119
12, 11922, Control_c, 12, 11, 116
12, 11940, Control_c, 12, 11, 113
12, 11958, Control_c, 12, 11, 110
12, 11976, Control_c, 12, 11, 107
12, 11994, Control_c, 12, 11, 104
12, 12007, Note_on_c, 12, 54, 0
12, 12247, Control_c, 12, 11, 87
12, 12247, Note_on_c, 12, 53, 91
12, 12265, Control_c, 12, 11, 84
12, 12283, Control_c, 12, 11, 81
12, 12301, Control_c, 12, 11, 78
12, 12319, Control_c, 12, 11, 75
12, 12337, Control_c, 12, 11, 72
12, 12355, Control_c, 12, 11, 69
12, 12373, Control_c, 12, 11, 66
12, 12391, Control_c, 12, 11, 63
12, 12409, Control_c, 12, 11, 60
12, 12427, Control_c, 12, 11, 57
12, 12445, Control_c, 12, 11, 54
12, 12463, Control_c, 12, 11, 51
12, 12481, Control_c, 12, 11, 48
12, 12487, Note_on_c, 12, 53, 0
12, 12487, Note_on_c, 12, 56, 106
12, 12607, Note_on_c, 12, 56, 0
12, 12607, Note_on_c, 12, 58, 106
12, 12847, Note_on_c, 12, 58, 0
12, 12847, Note_on_c, 12, 60, 106
12, 12947, Note_on_c, 12, 60, 0
12, 12967, Note_on_c, 12, 61, 106
12, 13207, Note_on_c, 12, 61, 0
12, 13207, Note_on_c, 12, 56, 106
12, 13327, Note_on_c, 12, 56, 0
12, 13327, Note_on_c, 12, 58, 106
12, 13567, Note_on_c, 12, 58, 0
12, 13567, Note_on_c, 12, 60, 106
12, 13667, Note_on_c, 12, 60, 0
12, 13687, Note_on_c, 12, 61, 106
12, 13927, Note_on_c, 12, 61, 0
12, 13927, Note_on_c, 12, 56, 106
12, 14047, Note_on_c, 12, 56, 0
12, 14047, Note_on_c, 12, 58, 106
12, 14287, Note_on_c, 12, 58, 0
12, 14287, Note_on_c, 12, 60, 106
12, 14387, Note_on_c, 12, 60, 0
12, 14407, Note_on_c, 12, 61, 106
12, 14647, Note_on_c, 12, 61, 0
12, 14647, Note_on_c, 12, 56, 106
12, 14767, Note_on_c, 12, 56, 0
12, 14767, Note_on_c, 12, 58, 106
12, 15007, Note_on_c, 12, 58, 0
12, 15007, Note_on_c, 12, 60, 106
12, 15107, Note_on_c, 12, 60, 0
12, 15127, Note_on_c, 12, 61, 106
12, 15247, Note_on_c, 12, 61, 0
12, 15727, Control_c, 12, 11, 37
12, 15727, Note_on_c, 12, 57, 91
12, 15847, Note_on_c, 12, 57, 0
12, 15847, Note_on_c, 12, 58, 106
12, 16207, Note_on_c, 12, 58, 0
12, 17167, Note_on_c, 12, 58, 91
12, 17287, Note_on_c, 12, 58, 0
12, 17287, Note_on_c, 12, 59, 106
12, 17647, Note_on_c, 12, 59, 0
12, 18607, Control_c, 12, 11, 62
12, 18607, Note_on_c, 12, 59, 91
12, 18635, Control_c, 12, 11, 63
12, 18664, Control_c, 12, 11, 64
12, 18693, Control_c, 12, 11, 65
12, 18722, Control_c, 12, 11, 66
12, 18727, Note_on_c, 12, 59, 0
12, 18727, Note_on_c, 12, 60, 106
12, 18751, Control_c, 12, 11, 67
12, 18779, Control_c, 12, 11, 68
12, 18808, Control_c, 12, 11, 69
12, 18837, Control_c, 12, 11, 70
12, 18866, Control_c, 12, 11, 71
12, 18895, Control_c, 12, 11, 72
12, 18923, Control_c, 12, 11, 73
12, 18952, Control_c, 12, 11, 74
12, 18981, Control_c, 12, 11, 75
12, 19010, Control_c, 12, 11, 76
12, 19039, Control_c, 12, 11, 77
12, 19067, Control_c, 12, 11, 78
12, 19096, Control_c, 12, 11, 79
12, 19125, Control_c, 12, 11, 80
12, 19154, Control_c, 12, 11, 81
12, 19183, Control_c, 12, 11, 82
12, 19211, Control_c, 12, 11, 83
12, 19240, Control_c, 12, 11, 84
12, 19269, Control_c, 12, 11, 85
12, 19298, Control_c, 12, 11, 86
12, 19307, Note_on_c, 12, 60, 0
12, 19327, Note_on_c, 12, 60, 106
12, 19327, Control_c, 12, 11, 87
12, 19387, Note_on_c, 12, 60, 0
12, 19447, Note_on_c, 12, 60, 106
12, 19507, Note_on_c, 12, 60, 0
12, 19567, Note_on_c, 12, 60, 106
12, 19627, Note_on_c, 12, 60, 0
12, 19687, Note_on_c, 12, 60, 106
12, 19747, Note_on_c, 12, 60, 0
12, 19807, Note_on_c, 12, 60, 106
12, 19867, Note_on_c, 12, 60, 0
12, 19927, Note_on_c, 12, 60, 106
12, 19987, Note_on_c, 12, 60, 0
12, 20047, Note_on_c, 12, 59, 106
12, 20107, Note_on_c, 12, 59, 0
12, 20167, Note_on_c, 12, 60, 106
12, 20227, Note_on_c, 12, 60, 0
12, 20287, Note_on_c, 12, 57, 106
12, 20347, Note_on_c, 12, 57, 0
12, 20407, Note_on_c, 12, 62, 106
12, 20467, Note_on_c, 12, 62, 0
12, 20527, Note_on_c, 12, 59, 106
12, 20587, Note_on_c, 12, 59, 0
12, 20647, Note_on_c, 12, 55, 106
12, 20707, Note_on_c, 12, 55, 0
12, 20767, Note_on_c, 12, 64, 106
12, 20767, Control_c, 12, 11, 102
12, 20827, Note_on_c, 12, 64, 0
12, 20887, Note_on_c, 12, 65, 106
12, 20947, Note_on_c, 12, 65, 0
12, 21007, Note_on_c, 12, 62, 106
12, 21067, Note_on_c, 12, 62, 0
12, 21127, Note_on_c, 12, 67, 106
12, 21187, Note_on_c, 12, 67, 0
12, 21247, Note_on_c, 12, 64, 106
12, 21307, Note_on_c, 12, 64, 0
12, 21367, Note_on_c, 12, 60, 106
12, 21427, Note_on_c, 12, 60, 0
12, 21487, Note_on_c, 12, 59, 106
12, 21547, Note_on_c, 12, 59, 0
12, 21607, Note_on_c, 12, 60, 106
12, 21667, Note_on_c, 12, 60, 0
12, 21727, Note_on_c, 12, 57, 106
12, 21787, Note_on_c, 12, 57, 0
12, 21847, Note_on_c, 12, 62, 106
12, 21907, Note_on_c, 12, 62, 0
12, 21967, Note_on_c, 12, 59, 106
12, 21967, Control_c, 12, 11, 122
12, 21984, Control_c, 12, 11, 119
12, 22002, Control_c, 12, 11, 116
12, 22020, Control_c, 12, 11, 113
12, 22027, Note_on_c, 12, 59, 0
12, 22038, Control_c, 12, 11, 110
12, 22056, Control_c, 12, 11, 107
12, 22074, Control_c, 12, 11, 104
12, 22087, Note_on_c, 12, 55, 106
12, 22147, Note_on_c, 12, 55, 0
12, 22207, Note_on_c, 12, 57, 106
12, 22267, Note_on_c, 12, 57, 0
12, 22327, Note_on_c, 12, 58, 106
12, 22387, Note_on_c, 12, 58, 0
12, 22447, Note_on_c, 12, 55, 106
12, 22507, Note_on_c, 12, 55, 0
12, 22567, Note_on_c, 12, 60, 106
12, 22627, Note_on_c, 12, 60, 0
12, 22687, Note_on_c, 12, 57, 106
12, 22687, Control_c, 12, 11, 122
12, 22704, Control_c, 12, 11, 119
12, 22722, Control_c, 12, 11, 116
12, 22740, Control_c, 12, 11, 113
12, 22747, Note_on_c, 12, 57, 0
12, 22758, Control_c, 12, 11, 110
12, 22776, Control_c, 12, 11, 107
12, 22794, Control_c, 12, 11, 104
12, 22807, Note_on_c, 12, 53, 106
12, 22867, Note_on_c, 12, 53, 0
12, 22927, Note_on_c, 12, 64, 106
12, 22987, Note_on_c, 12, 64, 0
12, 23047, Note_on_c, 12, 65, 106
12, 23107, Note_on_c, 12, 65, 0
12, 23167, Note_on_c, 12, 62, 106
12, 23227, Note_on_c, 12, 62, 0
12, 23287, Note_on_c, 12, 67, 106
12, 23347, Note_on_c, 12, 67, 0
12, 23407, Control_c, 12, 11, 122
12, 23407, Note_on_c, 12, 64, 106
12, 23424, Control_c, 12, 11, 119
12, 23442, Control_c, 12, 11, 116
12, 23460, Control_c, 12, 11, 113
12, 23467, Note_on_c, 12, 64, 0
12, 23478, Control_c, 12, 11, 110
12, 23496, Control_c, 12, 11, 107
12, 23514, Control_c, 12, 11, 104
12, 23527, Note_on_c, 12, 60, 106
12, 23587, Note_on_c, 12, 60, 0
12, 23647, Note_on_c, 12, 65, 106
12, 23707, Note_on_c, 12, 65, 0
12, 23767, Note_on_c, 12, 60, 106
12, 23887, Note_on_c, 12, 60, 0
12, 23887, Note_on_c, 12, 64, 106
12, 24007, Note_on_c, 12, 64, 0
12, 24007, Note_on_c, 12, 62, 106
12, 24107, Note_on_c, 12, 62, 0
12, 24127, Note_on_c, 12, 60, 106
12, 24247, Note_on_c, 12, 60, 0
12, 24367, Note_on_c, 12, 52, 86
12, 24427, Note_on_c, 12, 52, 0
12, 24487, Control_c, 12, 11, 122
12, 24487, Note_on_c, 12, 53, 86
12, 24510, Control_c, 12, 11, 120
12, 24534, Control_c, 12, 11, 118
12, 24558, Control_c, 12, 11, 116
12, 24582, Control_c, 12, 11, 114
12, 24606, Control_c, 12, 11, 112
12, 24630, Control_c, 12, 11, 110
12, 24654, Control_c, 12, 11, 108
12, 24678, Control_c, 12, 11, 106
12, 24702, Control_c, 12, 11, 104
12, 24726, Control_c, 12, 11, 102
12, 24847, Note_on_c, 12, 53, 0
12, 24847, Note_on_c, 12, 52, 86
12, 24907, Note_on_c, 12, 52, 0
12, 25087, Note_on_c, 12, 64, 86
12, 25147, Note_on_c, 12, 64, 0
12, 25207, Control_c, 12, 11, 122
12, 25207, Note_on_c, 12, 65, 86
12, 25230, Control_c, 12, 11, 120
12, 25254, Control_c, 12, 11, 118
12, 25278, Control_c, 12, 11, 116
12, 25302, Control_c, 12, 11, 114
12, 25326, Control_c, 12, 11, 112
12, 25350, Control_c, 12, 11, 110
12, 25374, Control_c, 12, 11, 108
12, 25398, Control_c, 12, 11, 106
12, 25422, Control_c, 12, 11, 104
12, 25446, Control_c, 12, 11, 102
12, 25567, Note_on_c, 12, 65, 0
12, 25567, Note_on_c, 12, 64, 86
12, 25627, Note_on_c, 12, 64, 0
12, 25687, Note_on_c, 12, 53, 86
12, 25687, Control_c, 12, 11, 122
12, 25704, Control_c, 12, 11, 119
12, 25722, Control_c, 12, 11, 116
12, 25740, Control_c, 12, 11, 113
12, 25758, Control_c, 12, 11, 110
12, 25776, Control_c, 12, 11, 107
12, 25794, Control_c, 12, 11, 104
12, 25927, Note_on_c, 12, 53, 0
12, 25927, Note_on_c, 12, 52, 86
12, 25987, Note_on_c, 12, 52, 0
12, 26047, Note_on_c, 12, 65, 86
12, 26047, Control_c, 12, 11, 122
12, 26064, Control_c, 12, 11, 119
12, 26082, Control_c, 12, 11, 116
12, 26100, Control_c, 12, 11, 113
12, 26118, Control_c, 12, 11, 110
12, 26136, Control_c, 12, 11, 107
12, 26154, Control_c, 12, 11, 104
12, 26287, Note_on_c, 12, 65, 0
12, 26287, Note_on_c, 12, 64, 86
12, 26347, Note_on_c, 12, 64, 0
12, 26407, Note_on_c, 12, 53, 86
12, 26407, Control_c, 12, 11, 122
12, 26424, Control_c, 12, 11, 119
12, 26442, Control_c, 12, 11, 116
12, 26460, Control_c, 12, 11, 113
12, 26478, Control_c, 12, 11, 110
12, 26496, Control_c, 12, 11, 107
12, 26514, Control_c, 12, 11, 104
12, 26647, Note_on_c, 12, 53, 0
12, 26647, Note_on_c, 12, 52, 86
12, 26707, Note_on_c, 12, 52, 0
12, 26767, Note_on_c, 12, 65, 86
12, 26767, Control_c, 12, 11, 122
12, 26784, Control_c, 12, 11, 119
12, 26802, Control_c, 12, 11, 116
12, 26820, Control_c, 12, 11, 113
12, 26838, Control_c, 12, 11, 110
12, 26856, Control_c, 12, 11, 107
12, 26874, Control_c, 12, 11, 104
12, 26890, Control_c, 12, 11, 101
12, 26900, Control_c, 12, 11, 98
12, 26910, Control_c, 12, 11, 95
12, 26921, Control_c, 12, 11, 92
12, 26931, Control_c, 12, 11, 89
12, 26941, Control_c, 12, 11, 86
12, 26951, Control_c, 12, 11, 83
12, 26961, Control_c, 12, 11, 80
12, 26972, Control_c, 12, 11, 77
12, 26982, Control_c, 12, 11, 74
12, 26992, Control_c, 12, 11, 71
12, 27002, Control_c, 12, 11, 68
12, 27007, Note_on_c, 12, 65, 0
12, 27007, Note_on_c, 12, 64, 106
12, 27007, Control_c, 12, 11, 47
12, 27067, Note_on_c, 12, 64, 0
12, 27367, Note_on_c, 12, 62, 106
12, 27487, Note_on_c, 12, 62, 0
12, 27727, Note_on_c, 12, 60, 106
12, 27847, Note_on_c, 12, 60, 0
12, 28087, Note_on_c, 12, 65, 106
12, 28207, Note_on_c, 12, 65, 0
12, 28447, Note_on_c, 12, 55, 106
12, 28447, Note_on_c, 12, 64, 106
12, 28447, Control_c, 12, 11, 47
12, 28483, Control_c, 12, 11, 48
12, 28519, Control_c, 12, 11, 49
12, 28555, Control_c, 12, 11, 50
12, 28567, Note_on_c, 12, 64, 0
12, 28567, Note_on_c, 12, 55, 0
12, 28591, Control_c, 12, 11, 51
12, 28627, Control_c, 12, 11, 52
12, 28663, Control_c, 12, 11, 53
12, 28699, Control_c, 12, 11, 54
12, 28735, Control_c, 12, 11, 55
12, 28771, Control_c, 12, 11, 56
12, 28807, Note_on_c, 12, 55, 106
12, 28807, Control_c, 12, 11, 57
12, 28843, Control_c, 12, 11, 58
12, 28879, Control_c, 12, 11, 59
12, 28915, Control_c, 12, 11, 60
12, 28927, Note_on_c, 12, 55, 0
12, 28951, Control_c, 12, 11, 61
12, 28987, Control_c, 12, 11, 62
12, 29023, Control_c, 12, 11, 63
12, 29059, Control_c, 12, 11, 64
12, 29095, Control_c, 12, 11, 65
12, 29131, Control_c, 12, 11, 66
12, 29167, Control_c, 12, 11, 67
12, 29167, Note_on_c, 12, 60, 106
12, 29203, Control_c, 12, 11, 68
12, 29239, Control_c, 12, 11, 69
12, 29275, Control_c, 12, 11, 70
12, 29287, Note_on_c, 12, 60, 0
12, 29311, Control_c, 12, 11, 71
12, 29347, Control_c, 12, 11, 72
12, 29383, Control_c, 12, 11, 73
12, 29419, Control_c, 12, 11, 74
12, 29455, Control_c, 12, 11, 75
12, 29491, Control_c, 12, 11, 76
12, 29527, Control_c, 12, 11, 77
12, 29527, Note_on_c, 12, 67, 106
12, 29563, Control_c, 12, 11, 78
12, 29599, Control_c, 12, 11, 79
12, 29635, Control_c, 12, 11, 80
12, 29647, Note_on_c, 12, 67, 0
12, 29671, Control_c, 12, 11, 81
12, 29707, Control_c, 12, 11, 82
12, 29743, Control_c, 12, 11, 83
12, 29779, Control_c, 12, 11, 84
12, 29815, Control_c, 12, 11, 85
12, 29851, Control_c, 12, 11, 86
12, 29887, Note_on_c, 12, 60, 106
12, 29887, Control_c, 12, 11, 87
12, 30007, Note_on_c, 12, 60, 0
12, 30247, Note_on_c, 12, 55, 106
12, 30367, Note_on_c, 12, 55, 0
12, 30607, Note_on_c, 12, 60, 106
12, 30607, Control_c, 12, 11, 102
12, 30727, Note_on_c, 12, 60, 0
12, 30967, Note_on_c, 12, 67, 106
12, 31027, Note_on_c, 12, 67, 0
12, 31087, Note_on_c, 12, 67, 106
12, 31147, Note_on_c, 12, 67, 0
12, 31207, Note_on_c, 12, 67, 106
12, 31267, Note_on_c, 12, 67, 0
12, 31327, Note_on_c, 12, 72, 106
12, 31387, Note_on_c, 12, 72, 0
12, 31447, Note_on_c, 12, 67, 106
12, 31507, Note_on_c, 12, 67, 0
12, 31567, Note_on_c, 12, 64, 106
12, 31627, Note_on_c, 12, 64, 0
12, 31687, Note_on_c, 12, 60, 106
12, 31747, Note_on_c, 12, 60, 0
12, 32167, Control_c, 12, 11, 47
12, 32167, Note_on_c, 12, 63, 106
12, 32287, Note_on_c, 12, 63, 0
12, 32287, Note_on_c, 12, 62, 106
12, 32407, Note_on_c, 12, 62, 0
12, 32527, Note_on_c, 12, 63, 106
12, 32647, Note_on_c, 12, 63, 0
12, 32647, Note_on_c, 12, 62, 106
12, 32767, Note_on_c, 12, 62, 0
12, 32887, Note_on_c, 12, 63, 106
12, 32887, Control_c, 12, 11, 87
12, 32947, Note_on_c, 12, 63, 0
12, 33007, Note_on_c, 12, 65, 106
12, 33067, Note_on_c, 12, 65, 0
12, 33127, Note_on_c, 12, 58, 106
12, 33247, Note_on_c, 12, 58, 0
12, 33607, Control_c, 12, 11, 47
12, 33607, Note_on_c, 12, 60, 106
12, 33727, Note_on_c, 12, 60, 0
12, 33727, Note_on_c, 12, 58, 106
12, 33847, Note_on_c, 12, 58, 0
12, 33967, Note_on_c, 12, 60, 106
12, 34087, Note_on_c, 12, 60, 0
12, 34087, Note_on_c, 12, 58, 106
12, 34207, Note_on_c, 12, 58, 0
12, 34327, Control_c, 12, 11, 87
12, 34327, Note_on_c, 12, 60, 106
12, 34387, Note_on_c, 12, 60, 0
12, 34447, Note_on_c, 12, 62, 106
12, 34507, Note_on_c, 12, 62, 0
12, 34567, Note_on_c, 12, 55, 106
12, 34687, Note_on_c, 12, 55, 0
12, 35047, Note_on_c, 12, 68, 106
12, 35107, Note_on_c, 12, 68, 0
12, 35167, Note_on_c, 12, 70, 106
12, 35227, Note_on_c, 12, 70, 0
12, 35287, Note_on_c, 12, 63, 106
12, 35407, Note_on_c, 12, 63, 0
12, 35767, Note_on_c, 12, 58, 106
12, 35767, Control_c, 12, 11, 102
12, 35827, Note_on_c, 12, 58, 0
12, 35887, Note_on_c, 12, 58, 106
12, 35947, Note_on_c, 12, 58, 0
12, 36007, Note_on_c, 12, 58, 106
12, 36067, Note_on_c, 12, 58, 0
12, 36127, Note_on_c, 12, 58, 106
12, 36187, Note_on_c, 12, 58, 0
12, 36247, Note_on_c, 12, 60, 106
12, 36307, Note_on_c, 12, 60, 0
12, 36367, Note_on_c, 12, 61, 106
12, 36367, Control_c, 12, 11, 122
12, 36384, Control_c, 12, 11, 119
12, 36402, Control_c, 12, 11, 116
12, 36420, Control_c, 12, 11, 113
12, 36438, Control_c, 12, 11, 110
12, 36456, Control_c, 12, 11, 107
12, 36474, Control_c, 12, 11, 104
12, 36487, Note_on_c, 12, 61, 0
12, 36727, Control_c, 12, 11, 122
12, 36727, Note_on_c, 12, 58, 106
12, 36744, Control_c, 12, 11, 119
12, 36762, Control_c, 12, 11, 116
12, 36780, Control_c, 12, 11, 113
12, 36798, Control_c, 12, 11, 110
12, 36816, Control_c, 12, 11, 107
12, 36834, Control_c, 12, 11, 104
12, 36847, Note_on_c, 12, 58, 0
12, 37087, Control_c, 12, 11, 122
12, 37087, Note_on_c, 12, 56, 106
12, 37104, Control_c, 12, 11, 119
12, 37122, Control_c, 12, 11, 116
12, 37140, Control_c, 12, 11, 113
12, 37158, Control_c, 12, 11, 110
12, 37176, Control_c, 12, 11, 107
12, 37194, Control_c, 12, 11, 104
12, 37207, Note_on_c, 12, 56, 0
12, 37447, Note_on_c, 12, 54, 106
12, 37447, Control_c, 12, 11, 122
12, 37464, Control_c, 12, 11, 119
12, 37482, Control_c, 12, 11, 116
12, 37500, Control_c, 12, 11, 113
12, 37518, Control_c, 12, 11, 110
12, 37536, Control_c, 12, 11, 107
12, 37554, Control_c, 12, 11, 104
12, 37567, Note_on_c, 12, 54, 0
12, 37807, Control_c, 12, 11, 87
12, 37807, Note_on_c, 12, 53, 91
12, 37825, Control_c, 12, 11, 84
12, 37843, Control_c, 12, 11, 81
12, 37861, Control_c, 12, 11, 78
12, 37879, Control_c, 12, 11, 75
12, 37897, Control_c, 12, 11, 72
12, 37915, Control_c, 12, 11, 69
12, 37933, Control_c, 12, 11, 66
12, 37951, Control_c, 12, 11, 63
12, 37969, Control_c, 12, 11, 60
12, 37987, Control_c, 12, 11, 57
12, 38005, Control_c, 12, 11, 54
12, 38023, Control_c, 12, 11, 51
12, 38041, Control_c, 12, 11, 48
12, 38047, Note_on_c, 12, 53, 0
12, 38047, Note_on_c, 12, 56, 106
12, 38167, Note_on_c, 12, 56, 0
12, 38167, Note_on_c, 12, 58, 106
12, 38407, Note_on_c, 12, 58, 0
12, 38407, Note_on_c, 12, 60, 106
12, 38507, Note_on_c, 12, 60, 0
12, 38527, Note_on_c, 12, 61, 106
12, 38767, Note_on_c, 12, 61, 0
12, 38767, Note_on_c, 12, 56, 106
12, 38887, Note_on_c, 12, 56, 0
12, 38887, Note_on_c, 12, 58, 106
12, 39127, Note_on_c, 12, 58, 0
12, 39127, Note_on_c, 12, 60, 106
12, 39227, Note_on_c, 12, 60, 0
12, 39247, Note_on_c, 12, 61, 106
12, 39487, Note_on_c, 12, 61, 0
12, 39487, Note_on_c, 12, 56, 106
12, 39607, Note_on_c, 12, 56, 0
12, 39607, Note_on_c, 12, 58, 106
12, 39847, Note_on_c, 12, 58, 0
12, 39847, Note_on_c, 12, 60, 106
12, 39947, Note_on_c, 12, 60, 0
12, 39967, Note_on_c, 12, 61, 106
12, 40207, Note_on_c, 12, 61, 0
12, 40207, Note_on_c, 12, 56, 106
12, 40327, Note_on_c, 12, 56, 0
12, 40327, Note_on_c, 12, 58, 106
12, 40567, Note_on_c, 12, 58, 0
12, 40567, Note_on_c, 12, 60, 106
12, 40667, Note_on_c, 12, 60, 0
12, 40687, Note_on_c, 12, 61, 106
12, 40807, Note_on_c, 12, 61, 0
12, 41287, Control_c, 12, 11, 37
12, 41287, Note_on_c, 12, 57, 91
12, 41407, Note_on_c, 12, 57, 0
12, 41407, Note_on_c, 12, 58, 106
12, 41767, Note_on_c, 12, 58, 0
12, 42727, Note_on_c, 12, 58, 91
12, 42847, Note_on_c, 12, 58, 0
12, 42847, Note_on_c, 12, 59, 106
12, 43207, Note_on_c, 12, 59, 0
12, 44167, Control_c, 12, 11, 62
12, 44167, Note_on_c, 12, 59, 91
12, 44195, Control_c, 12, 11, 63
12, 44224, Control_c, 12, 11, 64
12, 44253, Control_c, 12, 11, 65
12, 44282, Control_c, 12, 11, 66
12, 44287, Note_on_c, 12, 59, 0
12, 44287, Note_on_c, 12, 60, 106
12, 44311, Control_c, 12, 11, 67
12, 44339, Control_c, 12, 11, 68
12, 44368, Control_c, 12, 11, 69
12, 44397, Control_c, 12, 11, 70
12, 44426, Control_c, 12, 11, 71
12, 44455, Control_c, 12, 11, 72
12, 44483, Control_c, 12, 11, 73
12, 44512, Control_c, 12, 11, 74
12, 44541, Control_c, 12, 11, 75
12, 44570, Control_c, 12, 11, 76
12, 44599, Control_c, 12, 11, 77
12, 44627, Control_c, 12, 11, 78
12, 44656, Control_c, 12, 11, 79
12, 44685, Control_c, 12, 11, 80
12, 44714, Control_c, 12, 11, 81
12, 44743, Control_c, 12, 11, 82
12, 44771, Control_c, 12, 11, 83
12, 44800, Control_c, 12, 11, 84
12, 44829, Control_c, 12, 11, 85
12, 44858, Control_c, 12, 11, 86
12, 44867, Note_on_c, 12, 60, 0
12, 44887, Note_on_c, 12, 60, 106
12, 44887, Control_c, 12, 11, 87
12, 44947, Note_on_c, 12, 60, 0
12, 45007, Note_on_c, 12, 60, 106
12, 45067, Note_on_c, 12, 60, 0
12, 45127, Note_on_c, 12, 60, 106
12, 45187, Note_on_c, 12, 60, 0
12, 45247, Note_on_c, 12, 60, 106
12, 45307, Note_on_c, 12, 60, 0
12, 45367, Note_on_c, 12, 60, 106
12, 45427, Note_on_c, 12, 60, 0
12, 45487, Note_on_c, 12, 60, 106
12, 45547, Note_on_c, 12, 60, 0
12, 45607, Note_on_c, 12, 59, 106
12, 45667, Note_on_c, 12, 59, 0
12, 45727, Note_on_c, 12, 60, 106
12, 45787, Note_on_c, 12, 60, 0
12, 45847, Note_on_c, 12, 57, 106
12, 45907, Note_on_c, 12, 57, 0
12, 45967, Note_on_c, 12, 62, 106
12, 46027, Note_on_c, 12, 62, 0
12, 46087, Note_on_c, 12, 59, 106
12, 46147, Note_on_c, 12, 59, 0
12, 46207, Note_on_c, 12, 55, 106
12, 46267, Note_on_c, 12, 55, 0
12, 46327, Note_on_c, 12, 64, 106
12, 46327, Control_c, 12, 11, 102
12, 46387, Note_on_c, 12, 64, 0
12, 46447, Note_on_c, 12, 65, 106
12, 46507, Note_on_c, 12, 65, 0
12, 46567, Note_on_c, 12, 62, 106
12, 46627, Note_on_c, 12, 62, 0
12, 46687, Note_on_c, 12, 67, 106
12, 46747, Note_on_c, 12, 67, 0
12, 46807, Note_on_c, 12, 64, 106
12, 46867, Note_on_c, 12, 64, 0
12, 46927, Note_on_c, 12, 60, 106
12, 46987, Note_on_c, 12, 60, 0
12, 47047, Note_on_c, 12, 59, 106
12, 47107, Note_on_c, 12, 59, 0
12, 47167, Note_on_c, 12, 60, 106
12, 47227, Note_on_c, 12, 60, 0
12, 47287, Note_on_c, 12, 57, 106
12, 47347, Note_on_c, 12, 57, 0
12, 47407, Note_on_c, 12, 62, 106
12, 47467, Note_on_c, 12, 62, 0
12, 47527, Note_on_c, 12, 59, 106
12, 47527, Control_c, 12, 11, 122
12, 47544, Control_c, 12, 11, 119
12, 47562, Control_c, 12, 11, 116
12, 47580, Control_c, 12, 11, 113
12, 47587, Note_on_c, 12, 59, 0
12, 47598, Control_c, 12, 11, 110
12, 47616, Control_c, 12, 11, 107
12, 47634, Control_c, 12, 11, 104
12, 47647, Note_on_c, 12, 55, 106
12, 47707, Note_on_c, 12, 55, 0
12, 47767, Note_on_c, 12, 57, 106
12, 47827, Note_on_c, 12, 57, 0
12, 47887, Note_on_c, 12, 58, 106
12, 47947, Note_on_c, 12, 58, 0
12, 48007, Note_on_c, 12, 55, 106
12, 48067, Note_on_c, 12, 55, 0
12, 48127, Note_on_c, 12, 60, 106
12, 48187, Note_on_c, 12, 60, 0
12, 48247, Note_on_c, 12, 57, 106
12, 48247, Control_c, 12, 11, 122
12, 48264, Control_c, 12, 11, 119
12, 48282, Control_c, 12, 11, 116
12, 48300, Control_c, 12, 11, 113
12, 48307, Note_on_c, 12, 57, 0
12, 48318, Control_c, 12, 11, 110
12, 48336, Control_c, 12, 11, 107
12, 48354, Control_c, 12, 11, 104
12, 48367, Note_on_c, 12, 53, 106
12, 48427, Note_on_c, 12, 53, 0
12, 48487, Note_on_c, 12, 64, 106
12, 48547, Note_on_c, 12, 64, 0
12, 48607, Note_on_c, 12, 65, 106
12, 48667, Note_on_c, 12, 65, 0
12, 48727, Note_on_c, 12, 62, 106
12, 48787, Note_on_c, 12, 62, 0
12, 48847, Note_on_c, 12, 67, 106
12, 48907, Note_on_c, 12, 67, 0
12, 48967, Note_on_c, 12, 64, 106
12, 48967, Control_c, 12, 11, 122
12, 48984, Control_c, 12, 11, 119
12, 49002, Control_c, 12, 11, 116
12, 49020, Control_c, 12, 11, 113
12, 49027, Note_on_c, 12, 64, 0
12, 49038, Control_c, 12, 11, 110
12, 49056, Control_c, 12, 11, 107
12, 49074, Control_c, 12, 11, 104
12, 49087, Note_on_c, 12, 60, 106
12, 49147, Note_on_c, 12, 60, 0
12, 49207, Note_on_c, 12, 65, 106
12, 49267, Note_on_c, 12, 65, 0
12, 49327, Note_on_c, 12, 60, 106
12, 49447, Note_on_c, 12, 60, 0
12, 49447, Note_on_c, 12, 64, 106
12, 49567, Note_on_c, 12, 64, 0
12, 49567, Note_on_c, 12, 62, 106
12, 49667, Note_on_c, 12, 62, 0
12, 49687, Note_on_c, 12, 60, 106
12, 49807, Note_on_c, 12, 60, 0
12, 49927, Note_on_c, 12, 52, 86
12, 49987, Note_on_c, 12, 52, 0
12, 50047, Note_on_c, 12, 53, 86
12, 50047, Control_c, 12, 11, 122
12, 50070, Control_c, 12, 11, 120
12, 50094, Control_c, 12, 11, 118
12, 50118, Control_c, 12, 11, 116
12, 50142, Control_c, 12, 11, 114
12, 50166, Control_c, 12, 11, 112
12, 50190, Control_c, 12, 11, 110
12, 50214, Control_c, 12, 11, 108
12, 50238, Control_c, 12, 11, 106
12, 50262, Control_c, 12, 11, 104
12, 50286, Control_c, 12, 11, 102
12, 50407, Note_on_c, 12, 53, 0
12, 50407, Note_on_c, 12, 52, 86
12, 50467, Note_on_c, 12, 52, 0
12, 50647, Note_on_c, 12, 64, 86
12, 50707, Note_on_c, 12, 64, 0
12, 50767, Note_on_c, 12, 65, 86
12, 50767, Control_c, 12, 11, 122
12, 50790, Control_c, 12, 11, 120
12, 50814, Control_c, 12, 11, 118
12, 50838, Control_c, 12, 11, 116
12, 50862, Control_c, 12, 11, 114
12, 50886, Control_c, 12, 11, 112
12, 50910, Control_c, 12, 11, 110
12, 50934, Control_c, 12, 11, 108
12, 50958, Control_c, 12, 11, 106
12, 50982, Control_c, 12, 11, 104
12, 51006, Control_c, 12, 11, 102
12, 51127, Note_on_c, 12, 65, 0
12, 51127, Note_on_c, 12, 64, 86
12, 51187, Note_on_c, 12, 64, 0
12, 51247, Control_c, 12, 11, 122
12, 51247, Note_on_c, 12, 53, 86
12, 51264, Control_c, 12, 11, 119
12, 51282, Control_c, 12, 11, 116
12, 51300, Control_c, 12, 11, 113
12, 51318, Control_c, 12, 11, 110
12, 51336, Control_c, 12, 11, 107
12, 51354, Control_c, 12, 11, 104
12, 51487, Note_on_c, 12, 53, 0
12, 51487, Note_on_c, 12, 52, 86
12, 51547, Note_on_c, 12, 52, 0
12, 51607, Control_c, 12, 11, 122
12, 51607, Note_on_c, 12, 65, 86
12, 51624, Control_c, 12, 11, 119
12, 51642, Control_c, 12, 11, 116
12, 51660, Control_c, 12, 11, 113
12, 51678, Control_c, 12, 11, 110
12, 51696, Control_c, 12, 11, 107
12, 51714, Control_c, 12, 11, 104
12, 51847, Note_on_c, 12, 65, 0
12, 51847, Note_on_c, 12, 64, 86
12, 51907, Note_on_c, 12, 64, 0
12, 51967, Control_c, 12, 11, 122
12, 51967, Note_on_c, 12, 53, 86
12, 51984, Control_c, 12, 11, 119
12, 52002, Control_c, 12, 11, 116
12, 52020, Control_c, 12, 11, 113
12, 52038, Control_c, 12, 11, 110
12, 52056, Control_c, 12, 11, 107
12, 52074, Control_c, 12, 11, 104
12, 52207, Note_on_c, 12, 53, 0
12, 52207, Note_on_c, 12, 52, 86
12, 52267, Note_on_c, 12, 52, 0
12, 52327, Note_on_c, 12, 65, 86
12, 52327, Control_c, 12, 11, 122
12, 52344, Control_c, 12, 11, 119
12, 52362, Control_c, 12, 11, 116
12, 52380, Control_c, 12, 11, 113
12, 52398, Control_c, 12, 11, 110
12, 52416, Control_c, 12, 11, 107
12, 52434, Control_c, 12, 11, 104
12, 52450, Control_c, 12, 11, 101
12, 52460, Control_c, 12, 11, 98
12, 52470, Control_c, 12, 11, 95
12, 52481, Control_c, 12, 11, 92
12, 52491, Control_c, 12, 11, 89
12, 52501, Control_c, 12, 11, 86
12, 52511, Control_c, 12, 11, 83
12, 52521, Control_c, 12, 11, 80
12, 52532, Control_c, 12, 11, 77
12, 52542, Control_c, 12, 11, 74
12, 52552, Control_c, 12, 11, 71
12, 52562, Control_c, 12, 11, 68
12, 52567, Note_on_c, 12, 65, 0
12, 52567, Control_c, 12, 11, 47
12, 52567, Note_on_c, 12, 64, 106
12, 52627, Note_on_c, 12, 64, 0
12, 52927, Note_on_c, 12, 62, 106
12, 53047, Note_on_c, 12, 62, 0
12, 53287, Note_on_c, 12, 60, 106
12, 53407, Note_on_c, 12, 60, 0
12, 53647, Note_on_c, 12, 65, 106
12, 53767, Note_on_c, 12, 65, 0
12, 54007, Note_on_c, 12, 55, 106
12, 54007, Note_on_c, 12, 64, 106
12, 54007, Control_c, 12, 11, 47
12, 54043, Control_c, 12, 11, 48
12, 54079, Control_c, 12, 11, 49
12, 54115, Control_c, 12, 11, 50
12, 54127, Note_on_c, 12, 64, 0
12, 54127, Note_on_c, 12, 55, 0
12, 54151, Control_c, 12, 11, 51
12, 54187, Control_c, 12, 11, 52
12, 54223, Control_c, 12, 11, 53
12, 54259, Control_c, 12, 11, 54
12, 54295, Control_c, 12, 11, 55
12, 54331, Control_c, 12, 11, 56
12, 54367, Note_on_c, 12, 55, 106
12, 54367, Control_c, 12, 11, 57
12, 54403, Control_c, 12, 11, 58
12, 54439, Control_c, 12, 11, 59
12, 54475, Control_c, 12, 11, 60
12, 54487, Note_on_c, 12, 55, 0
12, 54511, Control_c, 12, 11, 61
12, 54547, Control_c, 12, 11, 62
12, 54583, Control_c, 12, 11, 63
12, 54619, Control_c, 12, 11, 64
12, 54655, Control_c, 12, 11, 65
12, 54691, Control_c, 12, 11, 66
12, 54727, Note_on_c, 12, 60, 106
12, 54727, Control_c, 12, 11, 67
12, 54763, Control_c, 12, 11, 68
12, 54799, Control_c, 12, 11, 69
12, 54835, Control_c, 12, 11, 70
12, 54847, Note_on_c, 12, 60, 0
12, 54871, Control_c, 12, 11, 71
12, 54907, Control_c, 12, 11, 72
12, 54943, Control_c, 12, 11, 73
12, 54979, Control_c, 12, 11, 74
12, 55015, Control_c, 12, 11, 75
12, 55051, Control_c, 12, 11, 76
12, 55087, Control_c, 12, 11, 77
12, 55087, Note_on_c, 12, 67, 106
12, 55123, Control_c, 12, 11, 78
12, 55159, Control_c, 12, 11, 79
12, 55195, Control_c, 12, 11, 80
12, 55207, Note_on_c, 12, 67, 0
12, 55231, Control_c, 12, 11, 81
12, 55267, Control_c, 12, 11, 82
12, 55303, Control_c, 12, 11, 83
12, 55339, Control_c, 12, 11, 84
12, 55375, Control_c, 12, 11, 85
12, 55411, Control_c, 12, 11, 86
12, 55447, Control_c, 12, 11, 87
12, 55447, Note_on_c, 12, 60, 106
12, 55567, Note_on_c, 12, 60, 0
12, 55807, Note_on_c, 12, 55, 106
12, 55927, Note_on_c, 12, 55, 0
12, 56167, Note_on_c, 12, 60, 106
12, 56167, Control_c, 12, 11, 102
12, 56287, Note_on_c, 12, 60, 0
12, 56527, Note_on_c, 12, 67, 106
12, 56587, Note_on_c, 12, 67, 0
12, 56647, Note_on_c, 12, 67, 106
12, 56707, Note_on_c, 12, 67, 0
12, 56767, Note_on_c, 12, 67, 106
12, 56827, Note_on_c, 12, 67, 0
12, 56887, Note_on_c, 12, 72, 106
12, 56947, Note_on_c, 12, 72, 0
12, 57007, Note_on_c, 12, 67, 106
12, 57067, Note_on_c, 12, 67, 0
12, 57127, Note_on_c, 12, 64, 106
12, 57187, Note_on_c, 12, 64, 0
12, 57247, Note_on_c, 12, 60, 106
12, 57307, Note_on_c, 12, 60, 0
12, 82087, Control_c, 12, 11, 47
12, 82087, Note_on_c, 12, 60, 106
12, 82113, Control_c, 12, 11, 49
12, 82139, Control_c, 12, 11, 51
12, 82165, Control_c, 12, 11, 53
12, 82191, Control_c, 12, 11, 55
12, 82217, Control_c, 12, 11, 57
12, 82244, Control_c, 12, 11, 59
12, 82270, Control_c, 12, 11, 61
12, 82276, Note_on_c, 12, 60, 0
12, 82296, Control_c, 12, 11, 63
12, 82322, Control_c, 12, 11, 65
12, 82327, Note_on_c, 12, 60, 106
12, 82348, Control_c, 12, 11, 67
12, 82375, Control_c, 12, 11, 69
12, 82401, Control_c, 12, 11, 71
12, 82417, Note_on_c, 12, 60, 0
12, 82427, Control_c, 12, 11, 73
12, 82447, Note_on_c, 12, 60, 106
12, 82453, Control_c, 12, 11, 75
12, 82479, Control_c, 12, 11, 77
12, 82505, Control_c, 12, 11, 79
12, 82532, Control_c, 12, 11, 81
12, 82558, Control_c, 12, 11, 83
12, 82584, Control_c, 12, 11, 85
12, 82610, Control_c, 12, 11, 87
12, 82636, Note_on_c, 12, 60, 0
12, 82636, Control_c, 12, 11, 89
12, 82663, Control_c, 12, 11, 91
12, 82687, Note_on_c, 12, 60, 106
12, 82689, Control_c, 12, 11, 93
12, 82715, Control_c, 12, 11, 95
12, 82741, Control_c, 12, 11, 97
12, 82767, Control_c, 12, 11, 99
12, 82777, Note_on_c, 12, 60, 0
12, 82793, Control_c, 12, 11, 101
12, 82807, Note_on_c, 12, 60, 106
12, 82998, Note_on_c, 12, 60, 0
12, 83047, Note_on_c, 12, 60, 106
12, 83107, Note_on_c, 12, 60, 0
12, 83167, Note_on_c, 12, 65, 106
12, 83167, Control_c, 12, 11, 122
12, 83190, Control_c, 12, 11, 120
12, 83214, Control_c, 12, 11, 118
12, 83238, Control_c, 12, 11, 116
12, 83262, Control_c, 12, 11, 114
12, 83286, Control_c, 12, 11, 112
12, 83310, Control_c, 12, 11, 110
12, 83334, Control_c, 12, 11, 108
12, 83358, Control_c, 12, 11, 106
12, 83382, Control_c, 12, 11, 104
12, 83406, Control_c, 12, 11, 102
12, 83527, Note_on_c, 12, 65, 0
12, 83527, Note_on_c, 12, 67, 106
12, 83752, Note_on_c, 12, 67, 0
12, 83767, Note_on_c, 12, 67, 106
12, 83827, Note_on_c, 12, 67, 0
12, 83887, Note_on_c, 12, 55, 106
12, 83887, Control_c, 12, 11, 122
12, 83910, Control_c, 12, 11, 120
12, 83934, Control_c, 12, 11, 118
12, 83958, Control_c, 12, 11, 116
12, 83982, Control_c, 12, 11, 114
12, 84006, Control_c, 12, 11, 112
12, 84030, Control_c, 12, 11, 110
12, 84054, Control_c, 12, 11, 108
12, 84078, Control_c, 12, 11, 106
12, 84102, Control_c, 12, 11, 104
12, 84126, Control_c, 12, 11, 102
12, 84247, Note_on_c, 12, 55, 0
12, 84247, Note_on_c, 12, 60, 106
12, 84472, Note_on_c, 12, 60, 0
12, 84487, Note_on_c, 12, 60, 106
12, 84547, Note_on_c, 12, 60, 0
12, 84607, Note_on_c, 12, 65, 106
12, 84607, Control_c, 12, 11, 122
12, 84630, Control_c, 12, 11, 120
12, 84654, Control_c, 12, 11, 118
12, 84678, Control_c, 12, 11, 116
12, 84702, Control_c, 12, 11, 114
12, 84726, Control_c, 12, 11, 112
12, 84750, Control_c, 12, 11, 110
12, 84774, Control_c, 12, 11, 108
12, 84798, Control_c, 12, 11, 106
12, 84822, Control_c, 12, 11, 104
12, 84846, Control_c, 12, 11, 102
12, 84967, Note_on_c, 12, 65, 0
12, 84967, Note_on_c, 12, 67, 106
12, 85192, Note_on_c, 12, 67, 0
12, 85207, Note_on_c, 12, 67, 106
12, 85267, Note_on_c, 12, 67, 0
12, 85327, Note_on_c, 12, 55, 106
12, 85327, Control_c, 12, 11, 122
12, 85350, Control_c, 12, 11, 120
12, 85374, Control_c, 12, 11, 118
12, 85398, Control_c, 12, 11, 116
12, 85422, Control_c, 12, 11, 114
12, 85446, Control_c, 12, 11, 112
12, 85470, Control_c, 12, 11, 110
12, 85494, Control_c, 12, 11, 108
12, 85518, Control_c, 12, 11, 106
12, 85542, Control_c, 12, 11, 104
12, 85566, Control_c, 12, 11, 102
12, 85687, Note_on_c, 12, 55, 0
12, 85687, Note_on_c, 12, 60, 106
12, 85747, Note_on_c, 12, 60, 0
12, 85807, Note_on_c, 12, 55, 106
12, 85807, Control_c, 12, 11, 122
12, 85830, Control_c, 12, 11, 120
12, 85854, Control_c, 12, 11, 118
12, 85878, Control_c, 12, 11, 116
12, 85902, Control_c, 12, 11, 114
12, 85926, Control_c, 12, 11, 112
12, 85950, Control_c, 12, 11, 110
12, 85974, Control_c, 12, 11, 108
12, 85998, Control_c, 12, 11, 106
12, 86022, Control_c, 12, 11, 104
12, 86032, Note_on_c, 12, 55, 0
12, 86046, Control_c, 12, 11, 102
12, 86047, Note_on_c, 12, 60, 106
12, 86107, Note_on_c, 12, 60, 0
12, 86167, Note_on_c, 12, 55, 106
12, 86167, Control_c, 12, 11, 122
12, 86190, Control_c, 12, 11, 120
12, 86214, Control_c, 12, 11, 118
12, 86238, Control_c, 12, 11, 116
12, 86262, Control_c, 12, 11, 114
12, 86286, Control_c, 12, 11, 112
12, 86310, Control_c, 12, 11, 110
12, 86334, Control_c, 12, 11, 108
12, 86358, Control_c, 12, 11, 106
12, 86382, Control_c, 12, 11, 104
12, 86392, Note_on_c, 12, 55, 0
12, 86406, Control_c, 12, 11, 102
12, 86407, Note_on_c, 12, 67, 106
12, 86407, Control_c, 12, 11, 122
12, 86430, Control_c, 12, 11, 120
12, 86454, Control_c, 12, 11, 118
12, 86478, Control_c, 12, 11, 116
12, 86502, Control_c, 12, 11, 114
12, 86512, Note_on_c, 12, 67, 0
12, 86526, Control_c, 12, 11, 112
12, 86527, Note_on_c, 12, 55, 106
12, 86550, Control_c, 12, 11, 110
12, 86574, Control_c, 12, 11, 108
12, 86598, Control_c, 12, 11, 106
12, 86622, Control_c, 12, 11, 104
12, 86632, Note_on_c, 12, 55, 0
12, 86646, Control_c, 12, 11, 102
12, 86647, Note_on_c, 12, 55, 106
12, 86752, Note_on_c, 12, 55, 0
12, 86767, Note_on_c, 12, 60, 106
12, 86887, Note_on_c, 12, 60, 0
12, 94327, Note_on_c, 12, 60, 106
12, 94327, Control_c, 12, 11, 47
12, 94353, Control_c, 12, 11, 49
12, 94379, Control_c, 12, 11, 51
12, 94405, Control_c, 12, 11, 53
12, 94431, Control_c, 12, 11, 55
12, 94457, Control_c, 12, 11, 57
12, 94484, Control_c, 12, 11, 59
12, 94510, Control_c, 12, 11, 61
12, 94516, Note_on_c, 12, 60, 0
12, 94536, Control_c, 12, 11, 63
12, 94562, Control_c, 12, 11, 65
12, 94567, Note_on_c, 12, 60, 106
12, 94588, Control_c, 12, 11, 67
12, 94615, Control_c, 12, 11, 69
12, 94641, Control_c, 12, 11, 71
12, 94657, Note_on_c, 12, 60, 0
12, 94667, Control_c, 12, 11, 73
12, 94687, Note_on_c, 12, 60, 106
12, 94693, Control_c, 12, 11, 75
12, 94719, Control_c, 12, 11, 77
12, 94745, Control_c, 12, 11, 79
12, 94772, Control_c, 12, 11, 81
12, 94798, Control_c, 12, 11, 83
12, 94824, Control_c, 12, 11, 85
12, 94850, Control_c, 12, 11, 87
12, 94876, Note_on_c, 12, 60, 0
12, 94876, Control_c, 12, 11, 89
12, 94903, Control_c, 12, 11, 91
12, 94927, Note_on_c, 12, 60, 106
12, 94929, Control_c, 12, 11, 93
12, 94955, Control_c, 12, 11, 95
12, 94981, Control_c, 12, 11, 97
12, 95007, Control_c, 12, 11, 99
12, 95017, Note_on_c, 12, 60, 0
12, 95033, Control_c, 12, 11, 101
12, 95047, Note_on_c, 12, 60, 106
12, 95238, Note_on_c, 12, 60, 0
12, 95287, Note_on_c, 12, 60, 106
12, 95347, Note_on_c, 12, 60, 0
12, 95407, Control_c, 12, 11, 122
12, 95407, Note_on_c, 12, 65, 106
12, 95430, Control_c, 12, 11, 120
12, 95454, Control_c, 12, 11, 118
12, 95478, Control_c, 12, 11, 116
12, 95502, Control_c, 12, 11, 114
12, 95526, Control_c, 12, 11, 112
12, 95550, Control_c, 12, 11, 110
12, 95574, Control_c, 12, 11, 108
12, 95598, Control_c, 12, 11, 106
12, 95622, Control_c, 12, 11, 104
12, 95646, Control_c, 12, 11, 102
12, 95767, Note_on_c, 12, 65, 0
12, 95767, Note_on_c, 12, 67, 106
12, 95992, Note_on_c, 12, 67, 0
12, 96007, Note_on_c, 12, 67, 106
12, 96067, Note_on_c, 12, 67, 0
12, 96127, Note_on_c, 12, 55, 106
12, 96127, Control_c, 12, 11, 122
12, 96150, Control_c, 12, 11, 120
12, 96174, Control_c, 12, 11, 118
12, 96198, Control_c, 12, 11, 116
12, 96222, Control_c, 12, 11, 114
12, 96246, Control_c, 12, 11, 112
12, 96270, Control_c, 12, 11, 110
12, 96294, Control_c, 12, 11, 108
12, 96318, Control_c, 12, 11, 106
12, 96342, Control_c, 12, 11, 104
12, 96366, Control_c, 12, 11, 102
12, 96487, Note_on_c, 12, 55, 0
12, 96487, Note_on_c, 12, 60, 106
12, 96712, Note_on_c, 12, 60, 0
12, 96727, Note_on_c, 12, 60, 106
12, 96787, Note_on_c, 12, 60, 0
12, 96847, Control_c, 12, 11, 122
12, 96847, Note_on_c, 12, 65, 106
12, 96870, Control_c, 12, 11, 120
12, 96894, Control_c, 12, 11, 118
12, 96918, Control_c, 12, 11, 116
12, 96942, Control_c, 12, 11, 114
12, 96966, Control_c, 12, 11, 112
12, 96990, Control_c, 12, 11, 110
12, 97014, Control_c, 12, 11, 108
12, 97038, Control_c, 12, 11, 106
12, 97062, Control_c, 12, 11, 104
12, 97086, Control_c, 12, 11, 102
12, 97207, Note_on_c, 12, 65, 0
12, 97207, Note_on_c, 12, 67, 106
12, 97432, Note_on_c, 12, 67, 0
12, 97447, Note_on_c, 12, 67, 106
12, 97507, Note_on_c, 12, 67, 0
12, 97567, Note_on_c, 12, 55, 106
12, 97567, Control_c, 12, 11, 122
12, 97590, Control_c, 12, 11, 120
12, 97614, Control_c, 12, 11, 118
12, 97638, Control_c, 12, 11, 116
12, 97662, Control_c, 12, 11, 114
12, 97686, Control_c, 12, 11, 112
12, 97710, Control_c, 12, 11, 110
12, 97734, Control_c, 12, 11, 108
12, 97758, Control_c, 12, 11, 106
12, 97782, Control_c, 12, 11, 104
12, 97806, Control_c, 12, 11, 102
12, 97927, Note_on_c, 12, 55, 0
12, 97927, Note_on_c, 12, 60, 106
12, 97987, Note_on_c, 12, 60, 0
12, 98047, Note_on_c, 12, 55, 106
12, 98047, Control_c, 12, 11, 122
12, 98070, Control_c, 12, 11, 120
12, 98094, Control_c, 12, 11, 118
12, 98118, Control_c, 12, 11, 116
12, 98142, Control_c, 12, 11, 114
12, 98166, Control_c, 12, 11, 112
12, 98190, Control_c, 12, 11, 110
12, 98214, Control_c, 12, 11, 108
12, 98238, Control_c, 12, 11, 106
12, 98262, Control_c, 12, 11, 104
12, 98272, Note_on_c, 12, 55, 0
12, 98286, Control_c, 12, 11, 102
12, 98287, Note_on_c, 12, 60, 106
12, 98347, Note_on_c, 12, 60, 0
12, 98407, Note_on_c, 12, 55, 106
12, 98407, Control_c, 12, 11, 122
12, 98430, Control_c, 12, 11, 120
12, 98454, Control_c, 12, 11, 118
12, 98478, Control_c, 12, 11, 116
12, 98502, Control_c, 12, 11, 114
12, 98526, Control_c, 12, 11, 112
12, 98550, Control_c, 12, 11, 110
12, 98574, Control_c, 12, 11, 108
12, 98598, Control_c, 12, 11, 106
12, 98622, Control_c, 12, 11, 104
12, 98632, Note_on_c, 12, 55, 0
12, 98646, Control_c, 12, 11, 102
12, 98647, Control_c, 12, 11, 122
12, 98647, Note_on_c, 12, 67, 106
12, 98670, Control_c, 12, 11, 120
12, 98694, Control_c, 12, 11, 118
12, 98718, Control_c, 12, 11, 116
12, 98742, Control_c, 12, 11, 114
12, 98752, Note_on_c, 12, 67, 0
12, 98766, Control_c, 12, 11, 112
12, 98767, Note_on_c, 12, 55, 106
12, 98790, Control_c, 12, 11, 110
12, 98814, Control_c, 12, 11, 108
12, 98838, Control_c, 12, 11, 106
12, 98862, Control_c, 12, 11, 104
12, 98872, Note_on_c, 12, 55, 0
12, 98886, Control_c, 12, 11, 102
12, 98887, Note_on_c, 12, 55, 106
12, 98992, Note_on_c, 12, 55, 0
12, 99007, Note_on_c, 12, 60, 106
12, 99127, Note_on_c, 12, 60, 0
12, 99247, Control_c, 12, 11, 37
12, 99295, Control_c, 12, 11, 38
12, 99343, Control_c, 12, 11, 39
12, 99367, Note_on_c, 12, 48, 106
12, 99391, Control_c, 12, 11, 40
12, 99427, Note_on_c, 12, 48, 0
12, 99439, Control_c, 12, 11, 41
12, 99487, Control_c, 12, 11, 42
12, 99487, Note_on_c, 12, 60, 106
12, 99535, Control_c, 12, 11, 43
12, 99547, Note_on_c, 12, 60, 0
12, 99583, Control_c, 12, 11, 44
12, 99607, Note_on_c, 12, 60, 106
12, 99631, Control_c, 12, 11, 45
12, 99667, Note_on_c, 12, 60, 0
12, 99679, Control_c, 12, 11, 46
12, 99727, Note_on_c, 12, 60, 106
12, 99727, Control_c, 12, 11, 47
12, 99787, Note_on_c, 12, 60, 0
12, 99847, Note_on_c, 12, 60, 106
12, 99907, Note_on_c, 12, 60, 0
12, 99967, Note_on_c, 12, 59, 106
12, 100027, Note_on_c, 12, 59, 0
12, 100087, Note_on_c, 12, 60, 106
12, 100147, Note_on_c, 12, 60, 0
12, 100207, Note_on_c, 12, 57, 106
12, 100267, Note_on_c, 12, 57, 0
12, 100327, Note_on_c, 12, 62, 106
12, 100387, Note_on_c, 12, 62, 0
12, 100447, Note_on_c, 12, 59, 106
12, 100507, Note_on_c, 12, 59, 0
12, 100567, Note_on_c, 12, 55, 106
12, 100627, Note_on_c, 12, 55, 0
12, 100687, Control_c, 12, 11, 47
12, 100687, Note_on_c, 12, 64, 106
12, 100705, Control_c, 12, 11, 48
12, 100723, Control_c, 12, 11, 49
12, 100741, Control_c, 12, 11, 50
12, 100747, Note_on_c, 12, 64, 0
12, 100759, Control_c, 12, 11, 51
12, 100777, Control_c, 12, 11, 52
12, 100795, Control_c, 12, 11, 53
12, 100807, Note_on_c, 12, 65, 106
12, 100813, Control_c, 12, 11, 54
12, 100831, Control_c, 12, 11, 55
12, 100849, Control_c, 12, 11, 56
12, 100867, Note_on_c, 12, 65, 0
12, 100867, Control_c, 12, 11, 57
12, 100885, Control_c, 12, 11, 58
12, 100903, Control_c, 12, 11, 59
12, 100921, Control_c, 12, 11, 60
12, 100927, Note_on_c, 12, 62, 106
12, 100939, Control_c, 12, 11, 61
12, 100957, Control_c, 12, 11, 62
12, 100975, Control_c, 12, 11, 63
12, 100987, Note_on_c, 12, 62, 0
12, 100993, Control_c, 12, 11, 64
12, 101011, Control_c, 12, 11, 65
12, 101029, Control_c, 12, 11, 66
12, 101047, Note_on_c, 12, 67, 106
12, 101047, Control_c, 12, 11, 67
12, 101065, Control_c, 12, 11, 68
12, 101083, Control_c, 12, 11, 69
12, 101101, Control_c, 12, 11, 70
12, 101107, Note_on_c, 12, 67, 0
12, 101119, Control_c, 12, 11, 71
12, 101137, Control_c, 12, 11, 72
12, 101155, Control_c, 12, 11, 73
12, 101167, Note_on_c, 12, 64, 106
12, 101173, Control_c, 12, 11, 74
12, 101191, Control_c, 12, 11, 75
12, 101209, Control_c, 12, 11, 76
12, 101227, Note_on_c, 12, 64, 0
12, 101227, Control_c, 12, 11, 77
12, 101245, Control_c, 12, 11, 78
12, 101263, Control_c, 12, 11, 79
12, 101281, Control_c, 12, 11, 80
12, 101287, Note_on_c, 12, 60, 106
12, 101299, Control_c, 12, 11, 81
12, 101317, Control_c, 12, 11, 82
12, 101335, Control_c, 12, 11, 83
12, 101347, Note_on_c, 12, 60, 0
12, 101353, Control_c, 12, 11, 84
12, 101371, Control_c, 12, 11, 85
12, 101389, Control_c, 12, 11, 86
12, 101407, Control_c, 12, 11, 87
12, 101407, Note_on_c, 12, 61, 106
12, 101467, Note_on_c, 12, 61, 0
12, 101527, Note_on_c, 12, 62, 106
12, 101587, Note_on_c, 12, 62, 0
12, 101647, Note_on_c, 12, 62, 106
12, 101707, Note_on_c, 12, 62, 0
12, 101767, Note_on_c, 12, 62, 106
12, 101827, Note_on_c, 12, 62, 0
12, 101887, Note_on_c, 12, 55, 106
12, 102007, Note_on_c, 12, 55, 0
12, 102127, Control_c, 12, 11, 37
12, 102175, Control_c, 12, 11, 38
12, 102223, Control_c, 12, 11, 39
12, 102247, Note_on_c, 12, 48, 106
12, 102271, Control_c, 12, 11, 40
12, 102307, Note_on_c, 12, 48, 0
12, 102319, Control_c, 12, 11, 41
12, 102367, Note_on_c, 12, 60, 106
12, 102367, Control_c, 12, 11, 42
12, 102415, Control_c, 12, 11, 43
12, 102427, Note_on_c, 12, 60, 0
12, 102463, Control_c, 12, 11, 44
12, 102487, Note_on_c, 12, 60, 106
12, 102511, Control_c, 12, 11, 45
12, 102547, Note_on_c, 12, 60, 0
12, 102559, Control_c, 12, 11, 46
12, 102607, Note_on_c, 12, 60, 106
12, 102607, Control_c, 12, 11, 47
12, 102667, Note_on_c, 12, 60, 0
12, 102727, Note_on_c, 12, 60, 106
12, 102787, Note_on_c, 12, 60, 0
12, 102847, Note_on_c, 12, 59, 106
12, 102907, Note_on_c, 12, 59, 0
12, 102967, Note_on_c, 12, 60, 106
12, 103027, Note_on_c, 12, 60, 0
12, 103087, Note_on_c, 12, 57, 106
12, 103147, Note_on_c, 12, 57, 0
12, 103207, Note_on_c, 12, 62, 106
12, 103267, Note_on_c, 12, 62, 0
12, 103327, Note_on_c, 12, 59, 106
12, 103387, Note_on_c, 12, 59, 0
12, 103447, Note_on_c, 12, 55, 106
12, 103507, Note_on_c, 12, 55, 0
12, 103567, Note_on_c, 12, 64, 106
12, 103567, Control_c, 12, 11, 47
12, 103585, Control_c, 12, 11, 48
12, 103603, Control_c, 12, 11, 49
12, 103621, Control_c, 12, 11, 50
12, 103627, Note_on_c, 12, 64, 0
12, 103639, Control_c, 12, 11, 51
12, 103657, Control_c, 12, 11, 52
12, 103675, Control_c, 12, 11, 53
12, 103687, Note_on_c, 12, 65, 106
12, 103693, Control_c, 12, 11, 54
12, 103711, Control_c, 12, 11, 55
12, 103729, Control_c, 12, 11, 56
12, 103747, Note_on_c, 12, 65, 0
12, 103747, Control_c, 12, 11, 57
12, 103765, Control_c, 12, 11, 58
12, 103783, Control_c, 12, 11, 59
12, 103801, Control_c, 12, 11, 60
12, 103807, Note_on_c, 12, 62, 106
12, 103819, Control_c, 12, 11, 61
12, 103837, Control_c, 12, 11, 62
12, 103855, Control_c, 12, 11, 63
12, 103867, Note_on_c, 12, 62, 0
12, 103873, Control_c, 12, 11, 64
12, 103891, Control_c, 12, 11, 65
12, 103909, Control_c, 12, 11, 66
12, 103927, Control_c, 12, 11, 67
12, 103927, Note_on_c, 12, 67, 106
12, 103945, Control_c, 12, 11, 68
12, 103963, Control_c, 12, 11, 69
12, 103981, Control_c, 12, 11, 70
12, 103987, Note_on_c, 12, 67, 0
12, 103999, Control_c, 12, 11, 71
12, 104017, Control_c, 12, 11, 72
12, 104035, Control_c, 12, 11, 73
12, 104047, Note_on_c, 12, 64, 106
12, 104053, Control_c, 12, 11, 74
12, 104071, Control_c, 12, 11, 75
12, 104089, Control_c, 12, 11, 76
12, 104107, Note_on_c, 12, 64, 0
12, 104107, Control_c, 12, 11, 77
12, 104125, Control_c, 12, 11, 78
12, 104143, Control_c, 12, 11, 79
12, 104161, Control_c, 12, 11, 80
12, 104167, Note_on_c, 12, 60, 106
12, 104179, Control_c, 12, 11, 81
12, 104197, Control_c, 12, 11, 82
12, 104215, Control_c, 12, 11, 83
12, 104227, Note_on_c, 12, 60, 0
12, 104233, Control_c, 12, 11, 84
12, 104251, Control_c, 12, 11, 85
12, 104269, Control_c, 12, 11, 86
12, 104287, Note_on_c, 12, 61, 106
12, 104287, Control_c, 12, 11, 87
12, 104347, Note_on_c, 12, 61, 0
12, 104407, Note_on_c, 12, 62, 106
12, 104467, Note_on_c, 12, 62, 0
12, 104527, Note_on_c, 12, 62, 106
12, 104587, Note_on_c, 12, 62, 0
12, 104647, Note_on_c, 12, 62, 106
12, 104707, Note_on_c, 12, 62, 0
12, 104767, Note_on_c, 12, 55, 106
12, 104887, Note_on_c, 12, 55, 0
12, 105247, Control_c, 12, 11, 47
12, 105247, Note_on_c, 12, 63, 106
12, 105367, Note_on_c, 12, 63, 0
12, 105367, Note_on_c, 12, 62, 106
12, 105487, Note_on_c, 12, 62, 0
12, 105607, Note_on_c, 12, 63, 106
12, 105727, Note_on_c, 12, 63, 0
12, 105727, Note_on_c, 12, 62, 106
12, 105847, Note_on_c, 12, 62, 0
12, 105967, Note_on_c, 12, 63, 106
12, 105967, Control_c, 12, 11, 87
12, 106027, Note_on_c, 12, 63, 0
12, 106087, Note_on_c, 12, 65, 106
12, 106147, Note_on_c, 12, 65, 0
12, 106207, Note_on_c, 12, 58, 106
12, 106327, Note_on_c, 12, 58, 0
12, 106687, Note_on_c, 12, 60, 106
12, 106687, Control_c, 12, 11, 47
12, 106807, Note_on_c, 12, 60, 0
12, 106807, Note_on_c, 12, 58, 106
12, 106927, Note_on_c, 12, 58, 0
12, 107047, Note_on_c, 12, 60, 106
12, 107167, Note_on_c, 12, 60, 0
12, 107167, Note_on_c, 12, 58, 106
12, 107287, Note_on_c, 12, 58, 0
12, 107407, Control_c, 12, 11, 87
12, 107407, Note_on_c, 12, 60, 106
12, 107467, Note_on_c, 12, 60, 0
12, 107527, Note_on_c, 12, 62, 106
12, 107587, Note_on_c, 12, 62, 0
12, 107647, Note_on_c, 12, 55, 106
12, 107767, Note_on_c, 12, 55, 0
12, 108127, Note_on_c, 12, 68, 106
12, 108187, Note_on_c, 12, 68, 0
12, 108247, Note_on_c, 12, 70, 106
12, 108307, Note_on_c, 12, 70, 0
12, 108367, Note_on_c, 12, 63, 106
12, 108487, Note_on_c, 12, 63, 0
12, 108847, Control_c, 12, 11, 102
12, 108847, Note_on_c, 12, 58, 106
12, 108907, Note_on_c, 12, 58, 0
12, 108967, Note_on_c, 12, 58, 106
12, 109027, Note_on_c, 12, 58, 0
12, 109087, Note_on_c, 12, 58, 106
12, 109147, Note_on_c, 12, 58, 0
12, 109207, Note_on_c, 12, 58, 106
12, 109267, Note_on_c, 12, 58, 0
12, 109327, Note_on_c, 12, 60, 106
12, 109387, Note_on_c, 12, 60, 0
12, 109447, Control_c, 12, 11, 122
12, 109447, Note_on_c, 12, 61, 106
12, 109464, Control_c, 12, 11, 119
12, 109482, Control_c, 12, 11, 116
12, 109500, Control_c, 12, 11, 113
12, 109518, Control_c, 12, 11, 110
12, 109536, Control_c, 12, 11, 107
12, 109554, Control_c, 12, 11, 104
12, 109567, Note_on_c, 12, 61, 0
12, 109807, Control_c, 12, 11, 122
12, 109807, Note_on_c, 12, 58, 106
12, 109824, Control_c, 12, 11, 119
12, 109842, Control_c, 12, 11, 116
12, 109860, Control_c, 12, 11, 113
12, 109878, Control_c, 12, 11, 110
12, 109896, Control_c, 12, 11, 107
12, 109914, Control_c, 12, 11, 104
12, 109927, Note_on_c, 12, 58, 0
12, 110167, Note_on_c, 12, 56, 106
12, 110167, Control_c, 12, 11, 122
12, 110184, Control_c, 12, 11, 119
12, 110202, Control_c, 12, 11, 116
12, 110220, Control_c, 12, 11, 113
12, 110238, Control_c, 12, 11, 110
12, 110256, Control_c, 12, 11, 107
12, 110274, Control_c, 12, 11, 104
12, 110287, Note_on_c, 12, 56, 0
12, 110527, Note_on_c, 12, 54, 106
12, 110527, Control_c, 12, 11, 122
12, 110544, Control_c, 12, 11, 119
12, 110562, Control_c, 12, 11, 116
12, 110580, Control_c, 12, 11, 113
12, 110598, Control_c, 12, 11, 110
12, 110616, Control_c, 12, 11, 107
12, 110634, Control_c, 12, 11, 104
12, 110647, Note_on_c, 12, 54, 0
12, 110887, Note_on_c, 12, 53, 91
12, 110887, Control_c, 12, 11, 87
12, 110905, Control_c, 12, 11, 84
12, 110923, Control_c, 12, 11, 81
12, 110941, Control_c, 12, 11, 78
12, 110959, Control_c, 12, 11, 75
12, 110977, Control_c, 12, 11, 72
12, 110995, Control_c, 12, 11, 69
12, 111013, Control_c, 12, 11, 66
12, 111031, Control_c, 12, 11, 63
12, 111049, Control_c, 12, 11, 60
12, 111067, Control_c, 12, 11, 57
12, 111085, Control_c, 12, 11, 54
12, 111103, Control_c, 12, 11, 51
12, 111121, Control_c, 12, 11, 48
12, 111127, Note_on_c, 12, 53, 0
12, 111127, Note_on_c, 12, 56, 106
12, 111247, Note_on_c, 12, 56, 0
12, 111247, Note_on_c, 12, 58, 106
12, 111487, Note_on_c, 12, 58, 0
12, 111487, Note_on_c, 12, 60, 106
12, 111587, Note_on_c, 12, 60, 0
12, 111607, Note_on_c, 12, 61, 106
12, 111847, Note_on_c, 12, 61, 0
12, 111847, Note_on_c, 12, 56, 106
12, 111967, Note_on_c, 12, 56, 0
12, 111967, Note_on_c, 12, 58, 106
12, 112207, Note_on_c, 12, 58, 0
12, 112207, Note_on_c, 12, 60, 106
12, 112307, Note_on_c, 12, 60, 0
12, 112327, Note_on_c, 12, 61, 106
12, 112567, Note_on_c, 12, 61, 0
12, 112567, Note_on_c, 12, 56, 106
12, 112687, Note_on_c, 12, 56, 0
12, 112687, Note_on_c, 12, 58, 106
12, 112927, Note_on_c, 12, 58, 0
12, 112927, Note_on_c, 12, 60, 106
12, 113027, Note_on_c, 12, 60, 0
12, 113047, Note_on_c, 12, 61, 106
12, 113287, Note_on_c, 12, 61, 0
12, 113287, Note_on_c, 12, 56, 106
12, 113407, Note_on_c, 12, 56, 0
12, 113407, Note_on_c, 12, 58, 106
12, 113647, Note_on_c, 12, 58, 0
12, 113647, Note_on_c, 12, 60, 106
12, 113747, Note_on_c, 12, 60, 0
12, 113767, Note_on_c, 12, 61, 106
12, 113887, Note_on_c, 12, 61, 0
12, 114367, Note_on_c, 12, 57, 91
12, 114367, Control_c, 12, 11, 37
12, 114487, Note_on_c, 12, 57, 0
12, 114487, Note_on_c, 12, 58, 106
12, 114847, Note_on_c, 12, 58, 0
12, 115807, Note_on_c, 12, 58, 91
12, 115927, Note_on_c, 12, 58, 0
12, 115927, Note_on_c, 12, 59, 106
12, 116287, Note_on_c, 12, 59, 0
12, 117247, Note_on_c, 12, 59, 91
12, 117247, Control_c, 12, 11, 62
12, 117275, Control_c, 12, 11, 63
12, 117304, Control_c, 12, 11, 64
12, 117333, Control_c, 12, 11, 65
12, 117362, Control_c, 12, 11, 66
12, 117367, Note_on_c, 12, 59, 0
12, 117367, Note_on_c, 12, 60, 106
12, 117391, Control_c, 12, 11, 67
12, 117419, Control_c, 12, 11, 68
12, 117448, Control_c, 12, 11, 69
12, 117477, Control_c, 12, 11, 70
12, 117506, Control_c, 12, 11, 71
12, 117535, Control_c, 12, 11, 72
12, 117563, Control_c, 12, 11, 73
12, 117592, Control_c, 12, 11, 74
12, 117621, Control_c, 12, 11, 75
12, 117650, Control_c, 12, 11, 76
12, 117679, Control_c, 12, 11, 77
12, 117707, Control_c, 12, 11, 78
12, 117736, Control_c, 12, 11, 79
12, 117765, Control_c, 12, 11, 80
12, 117794, Control_c, 12, 11, 81
12, 117823, Control_c, 12, 11, 82
12, 117851, Control_c, 12, 11, 83
12, 117880, Control_c, 12, 11, 84
12, 117909, Control_c, 12, 11, 85
12, 117938, Control_c, 12, 11, 86
12, 117947, Note_on_c, 12, 60, 0
12, 117967, Control_c, 12, 11, 87
12, 117967, Note_on_c, 12, 60, 106
12, 118027, Note_on_c, 12, 60, 0
12, 118087, Note_on_c, 12, 60, 106
12, 118147, Note_on_c, 12, 60, 0
12, 118207, Note_on_c, 12, 60, 106
12, 118267, Note_on_c, 12, 60, 0
12, 118327, Note_on_c, 12, 60, 106
12, 118387, Note_on_c, 12, 60, 0
12, 118447, Note_on_c, 12, 60, 106
12, 118507, Note_on_c, 12, 60, 0
12, 118567, Note_on_c, 12, 60, 106
12, 118627, Note_on_c, 12, 60, 0
12, 118687, Note_on_c, 12, 59, 106
12, 118747, Note_on_c, 12, 59, 0
12, 118807, Note_on_c, 12, 60, 106
12, 118867, Note_on_c, 12, 60, 0
12, 118927, Note_on_c, 12, 57, 106
12, 118987, Note_on_c, 12, 57, 0
12, 119047, Note_on_c, 12, 62, 106
12, 119107, Note_on_c, 12, 62, 0
12, 119167, Note_on_c, 12, 59, 106
12, 119227, Note_on_c, 12, 59, 0
12, 119287, Note_on_c, 12, 55, 106
12, 119347, Note_on_c, 12, 55, 0
12, 119407, Control_c, 12, 11, 102
12, 119407, Note_on_c, 12, 64, 106
12, 119467, Note_on_c, 12, 64, 0
12, 119527, Note_on_c, 12, 65, 106
12, 119587, Note_on_c, 12, 65, 0
12, 119647, Note_on_c, 12, 62, 106
12, 119707, Note_on_c, 12, 62, 0
12, 119767, Note_on_c, 12, 67, 106
12, 119827, Note_on_c, 12, 67, 0
12, 119887, Note_on_c, 12, 64, 106
12, 119947, Note_on_c, 12, 64, 0
12, 120007, Note_on_c, 12, 60, 106
12, 120067, Note_on_c, 12, 60, 0
12, 120127, Note_on_c, 12, 59, 106
12, 120187, Note_on_c, 12, 59, 0
12, 120247, Note_on_c, 12, 60, 106
12, 120307, Note_on_c, 12, 60, 0
12, 120367, Note_on_c, 12, 57, 106
12, 120427, Note_on_c, 12, 57, 0
12, 120487, Note_on_c, 12, 62, 106
12, 120547, Note_on_c, 12, 62, 0
12, 120607, Control_c, 12, 11, 122
12, 120607, Note_on_c, 12, 59, 106
12, 120624, Control_c, 12, 11, 119
12, 120642, Control_c, 12, 11, 116
12, 120660, Control_c, 12, 11, 113
12, 120667, Note_on_c, 12, 59, 0
12, 120678, Control_c, 12, 11, 110
12, 120696, Control_c, 12, 11, 107
12, 120714, Control_c, 12, 11, 104
12, 120727, Note_on_c, 12, 55, 106
12, 120787, Note_on_c, 12, 55, 0
12, 120847, Note_on_c, 12, 57, 106
12, 120907, Note_on_c, 12, 57, 0
12, 120967, Note_on_c, 12, 58, 106
12, 121027, Note_on_c, 12, 58, 0
12, 121087, Note_on_c, 12, 55, 106
12, 121147, Note_on_c, 12, 55, 0
12, 121207, Note_on_c, 12, 60, 106
12, 121267, Note_on_c, 12, 60, 0
12, 121327, Control_c, 12, 11, 122
12, 121327, Note_on_c, 12, 57, 106
12, 121344, Control_c, 12, 11, 119
12, 121362, Control_c, 12, 11, 116
12, 121380, Control_c, 12, 11, 113
12, 121387, Note_on_c, 12, 57, 0
12, 121398, Control_c, 12, 11, 110
12, 121416, Control_c, 12, 11, 107
12, 121434, Control_c, 12, 11, 104
12, 121447, Note_on_c, 12, 53, 106
12, 121507, Note_on_c, 12, 53, 0
12, 121567, Note_on_c, 12, 64, 106
12, 121627, Note_on_c, 12, 64, 0
12, 121687, Note_on_c, 12, 65, 106
12, 121747, Note_on_c, 12, 65, 0
12, 121807, Note_on_c, 12, 62, 106
12, 121867, Note_on_c, 12, 62, 0
12, 121927, Note_on_c, 12, 67, 106
12, 121987, Note_on_c, 12, 67, 0
12, 122047, Note_on_c, 12, 64, 106
12, 122047, Control_c, 12, 11, 122
12, 122064, Control_c, 12, 11, 119
12, 122082, Control_c, 12, 11, 116
12, 122100, Control_c, 12, 11, 113
12, 122107, Note_on_c, 12, 64, 0
12, 122118, Control_c, 12, 11, 110
12, 122136, Control_c, 12, 11, 107
12, 122154, Control_c, 12, 11, 104
12, 122167, Note_on_c, 12, 60, 106
12, 122227, Note_on_c, 12, 60, 0
12, 122287, Note_on_c, 12, 65, 106
12, 122347, Note_on_c, 12, 65, 0
12, 122407, Note_on_c, 12, 60, 106
12, 122527, Note_on_c, 12, 60, 0
12, 122527, Note_on_c, 12, 64, 106
12, 122647, Note_on_c, 12, 64, 0
12, 122647, Note_on_c, 12, 62, 106
12, 122747, Note_on_c, 12, 62, 0
12, 122767, Note_on_c, 12, 60, 106
12, 122887, Note_on_c, 12, 60, 0
12, 123007, Note_on_c, 12, 52, 86
12, 123067, Note_on_c, 12, 52, 0
12, 123127, Control_c, 12, 11, 122
12, 123127, Note_on_c, 12, 53, 86
12, 123150, Control_c, 12, 11, 120
12, 123174, Control_c, 12, 11, 118
12, 123198, Control_c, 12, 11, 116
12, 123222, Control_c, 12, 11, 114
12, 123246, Control_c, 12, 11, 112
12, 123270, Control_c, 12, 11, 110
12, 123294, Control_c, 12, 11, 108
12, 123318, Control_c, 12, 11, 106
12, 123342, Control_c, 12, 11, 104
12, 123366, Control_c, 12, 11, 102
12, 123487, Note_on_c, 12, 53, 0
12, 123487, Note_on_c, 12, 52, 86
12, 123547, Note_on_c, 12, 52, 0
12, 123727, Note_on_c, 12, 64, 86
12, 123787, Note_on_c, 12, 64, 0
12, 123847, Control_c, 12, 11, 122
12, 123847, Note_on_c, 12, 65, 86
12, 123870, Control_c, 12, 11, 120
12, 123894, Control_c, 12, 11, 118
12, 123918, Control_c, 12, 11, 116
12, 123942, Control_c, 12, 11, 114
12, 123966, Control_c, 12, 11, 112
12, 123990, Control_c, 12, 11, 110
12, 124014, Control_c, 12, 11, 108
12, 124038, Control_c, 12, 11, 106
12, 124062, Control_c, 12, 11, 104
12, 124086, Control_c, 12, 11, 102
12, 124207, Note_on_c, 12, 65, 0
12, 124207, Note_on_c, 12, 64, 86
12, 124267, Note_on_c, 12, 64, 0
12, 124327, Control_c, 12, 11, 122
12, 124327, Note_on_c, 12, 53, 86
12, 124344, Control_c, 12, 11, 119
12, 124362, Control_c, 12, 11, 116
12, 124380, Control_c, 12, 11, 113
12, 124398, Control_c, 12, 11, 110
12, 124416, Control_c, 12, 11, 107
12, 124434, Control_c, 12, 11, 104
12, 124567, Note_on_c, 12, 53, 0
12, 124567, Note_on_c, 12, 52, 86
12, 124627, Note_on_c, 12, 52, 0
12, 124687, Control_c, 12, 11, 122
12, 124687, Note_on_c, 12, 65, 86
12, 124704, Control_c, 12, 11, 119
12, 124722, Control_c, 12, 11, 116
12, 124740, Control_c, 12, 11, 113
12, 124758, Control_c, 12, 11, 110
12, 124776, Control_c, 12, 11, 107
12, 124794, Control_c, 12, 11, 104
12, 124927, Note_on_c, 12, 65, 0
12, 124927, Note_on_c, 12, 64, 86
12, 124987, Note_on_c, 12, 64, 0
12, 125047, Note_on_c, 12, 53, 86
12, 125047, Control_c, 12, 11, 122
12, 125064, Control_c, 12, 11, 119
12, 125082, Control_c, 12, 11, 116
12, 125100, Control_c, 12, 11, 113
12, 125118, Control_c, 12, 11, 110
12, 125136, Control_c, 12, 11, 107
12, 125154, Control_c, 12, 11, 104
12, 125287, Note_on_c, 12, 53, 0
12, 125287, Note_on_c, 12, 52, 86
12, 125347, Note_on_c, 12, 52, 0
12, 125407, Note_on_c, 12, 65, 86
12, 125407, Control_c, 12, 11, 122
12, 125424, Control_c, 12, 11, 119
12, 125442, Control_c, 12, 11, 116
12, 125460, Control_c, 12, 11, 113
12, 125478, Control_c, 12, 11, 110
12, 125496, Control_c, 12, 11, 107
12, 125514, Control_c, 12, 11, 104
12, 125530, Control_c, 12, 11, 101
12, 125540, Control_c, 12, 11, 98
12, 125550, Control_c, 12, 11, 95
12, 125561, Control_c, 12, 11, 92
12, 125571, Control_c, 12, 11, 89
12, 125581, Control_c, 12, 11, 86
12, 125591, Control_c, 12, 11, 83
12, 125601, Control_c, 12, 11, 80
12, 125612, Control_c, 12, 11, 77
12, 125622, Control_c, 12, 11, 74
12, 125632, Control_c, 12, 11, 71
12, 125642, Control_c, 12, 11, 68
12, 125647, Note_on_c, 12, 65, 0
12, 125647, Control_c, 12, 11, 47
12, 125647, Note_on_c, 12, 64, 106
12, 125707, Note_on_c, 12, 64, 0
12, 126007, Note_on_c, 12, 62, 106
12, 126127, Note_on_c, 12, 62, 0
12, 126367, Note_on_c, 12, 60, 106
12, 126487, Note_on_c, 12, 60, 0
12, 126727, Note_on_c, 12, 65, 106
12, 126847, Note_on_c, 12, 65, 0
12, 127087, Control_c, 12, 11, 47
12, 127087, Note_on_c, 12, 64, 106
12, 127087, Note_on_c, 12, 55, 106
12, 127123, Control_c, 12, 11, 48
12, 127159, Control_c, 12, 11, 49
12, 127195, Control_c, 12, 11, 50
12, 127207, Note_on_c, 12, 55, 0
12, 127207, Note_on_c, 12, 64, 0
12, 127231, Control_c, 12, 11, 51
12, 127267, Control_c, 12, 11, 52
12, 127303, Control_c, 12, 11, 53
12, 127339, Control_c, 12, 11, 54
12, 127375, Control_c, 12, 11, 55
12, 127411, Control_c, 12, 11, 56
12, 127447, Note_on_c, 12, 55, 106
12, 127447, Control_c, 12, 11, 57
12, 127483, Control_c, 12, 11, 58
12, 127519, Control_c, 12, 11, 59
12, 127555, Control_c, 12, 11, 60
12, 127567, Note_on_c, 12, 55, 0
12, 127591, Control_c, 12, 11, 61
12, 127627, Control_c, 12, 11, 62
12, 127663, Control_c, 12, 11, 63
12, 127699, Control_c, 12, 11, 64
12, 127735, Control_c, 12, 11, 65
12, 127771, Control_c, 12, 11, 66
12, 127807, Note_on_c, 12, 60, 106
12, 127807, Control_c, 12, 11, 67
12, 127843, Control_c, 12, 11, 68
12, 127879, Control_c, 12, 11, 69
12, 127915, Control_c, 12, 11, 70
12, 127927, Note_on_c, 12, 60, 0
12, 127951, Control_c, 12, 11, 71
12, 127987, Control_c, 12, 11, 72
12, 128023, Control_c, 12, 11, 73
12, 128059, Control_c, 12, 11, 74
12, 128095, Control_c, 12, 11, 75
12, 128131, Control_c, 12, 11, 76
12, 128167, Note_on_c, 12, 67, 106
12, 128167, Control_c, 12, 11, 77
12, 128203, Control_c, 12, 11, 78
12, 128239, Control_c, 12, 11, 79
12, 128275, Control_c, 12, 11, 80
12, 128287, Note_on_c, 12, 67, 0
12, 128311, Control_c, 12, 11, 81
12, 128347, Control_c, 12, 11, 82
12, 128383, Control_c, 12, 11, 83
12, 128419, Control_c, 12, 11, 84
12, 128455, Control_c, 12, 11, 85
12, 128491, Control_c, 12, 11, 86
12, 128527, Control_c, 12, 11, 87
12, 128527, Note_on_c, 12, 60, 106
12, 128647, Note_on_c, 12, 60, 0
12, 128887, Note_on_c, 12, 55, 106
12, 129007, Note_on_c, 12, 55, 0
12, 129247, Note_on_c, 12, 60, 106
12, 129247, Control_c, 12, 11, 102
12, 129367, Note_on_c, 12, 60, 0
12, 129607, Note_on_c, 12, 67, 106
12, 129667, Note_on_c, 12, 67, 0
12, 129727, Note_on_c, 12, 67, 106
12, 129787, Note_on_c, 12, 67, 0
12, 129847, Note_on_c, 12, 67, 106
12, 129907, Note_on_c, 12, 67, 0
12, 129967, Note_on_c, 12, 72, 106
12, 130027, Note_on_c, 12, 72, 0
12, 130087, Note_on_c, 12, 67, 106
12, 130147, Note_on_c, 12, 67, 0
12, 130207, Note_on_c, 12, 64, 106
12, 130267, Note_on_c, 12, 64, 0
12, 130327, Note_on_c, 12, 60, 106
12, 130387, Note_on_c, 12, 60, 0
12, 130687, Control_c, 12, 121, 0
12, 130687, End_track
13, 0, Start_track
13, 0, MIDI_port, 0
13, 0, Title_t, "Violoncelle"
13, 0, Program_c, 13, 48
13, 0, Control_c, 13, 10, 100
13, 8, Control_c, 13, 121, 0
13, 13, Program_c, 13, 48
13, 18, Pitch_bend_c, 13, 7892
13, 23, Control_c, 13, 11, 47
13, 28, Control_c, 13, 7, 127
13, 33, Control_c, 13, 91, 35
13, 38, Control_c, 13, 93, 0
13, 43, Control_c, 13, 10, 100
13, 48, Control_c, 13, 1, 36
13, 608, Control_c, 13, 11, 37
13, 656, Control_c, 13, 11, 38
13, 704, Control_c, 13, 11, 39
13, 728, Note_on_c, 13, 48, 106
13, 752, Control_c, 13, 11, 40
13, 788, Note_on_c, 13, 48, 0
13, 800, Control_c, 13, 11, 41
13, 848, Note_on_c, 13, 60, 106
13, 848, Control_c, 13, 11, 42
13, 896, Control_c, 13, 11, 43
13, 908, Note_on_c, 13, 60, 0
13, 944, Control_c, 13, 11, 44
13, 968, Note_on_c, 13, 60, 106
13, 992, Control_c, 13, 11, 45
13, 1028, Note_on_c, 13, 60, 0
13, 1040, Control_c, 13, 11, 46
13, 1088, Control_c, 13, 11, 47
13, 1088, Note_on_c, 13, 60, 106
13, 1148, Note_on_c, 13, 60, 0
13, 1208, Note_on_c, 13, 60, 106
13, 1268, Note_on_c, 13, 60, 0
13, 1328, Note_on_c, 13, 59, 106
13, 1388, Note_on_c, 13, 59, 0
13, 1448, Note_on_c, 13, 60, 106
13, 1508, Note_on_c, 13, 60, 0
13, 1568, Note_on_c, 13, 57, 106
13, 1628, Note_on_c, 13, 57, 0
13, 1688, Note_on_c, 13, 62, 106
13, 1748, Note_on_c, 13, 62, 0
13, 1808, Note_on_c, 13, 59, 106
13, 1868, Note_on_c, 13, 59, 0
13, 1928, Note_on_c, 13, 55, 106
13, 1988, Note_on_c, 13, 55, 0
13, 2048, Control_c, 13, 11, 47
13, 2048, Note_on_c, 13, 52, 106
13, 2066, Control_c, 13, 11, 48
13, 2084, Control_c, 13, 11, 49
13, 2102, Control_c, 13, 11, 50
13, 2108, Note_on_c, 13, 52, 0
13, 2120, Control_c, 13, 11, 51
13, 2138, Control_c, 13, 11, 52
13, 2156, Control_c, 13, 11, 53
13, 2168, Note_on_c, 13, 53, 106
13, 2174, Control_c, 13, 11, 54
13, 2192, Control_c, 13, 11, 55
13, 2210, Control_c, 13, 11, 56
13, 2228, Note_on_c, 13, 53, 0
13, 2228, Control_c, 13, 11, 57
13, 2246, Control_c, 13, 11, 58
13, 2264, Control_c, 13, 11, 59
13, 2282, Control_c, 13, 11, 60
13, 2288, Note_on_c, 13, 50, 106
13, 2300, Control_c, 13, 11, 61
13, 2318, Control_c, 13, 11, 62
13, 2336, Control_c, 13, 11, 63
13, 2348, Note_on_c, 13, 50, 0
13, 2354, Control_c, 13, 11, 64
13, 2372, Control_c, 13, 11, 65
13, 2390, Control_c, 13, 11, 66
13, 2408, Note_on_c, 13, 55, 106
13, 2408, Control_c, 13, 11, 67
13, 2426, Control_c, 13, 11, 68
13, 2444, Control_c, 13, 11, 69
13, 2462, Control_c, 13, 11, 70
13, 2468, Note_on_c, 13, 55, 0
13, 2480, Control_c, 13, 11, 71
13, 2498, Control_c, 13, 11, 72
13, 2516, Control_c, 13, 11, 73
13, 2528, Note_on_c, 13, 52, 106
13, 2534, Control_c, 13, 11, 74
13, 2552, Control_c, 13, 11, 75
13, 2570, Control_c, 13, 11, 76
13, 2588, Note_on_c, 13, 52, 0
13, 2588, Control_c, 13, 11, 77
13, 2606, Control_c, 13, 11, 78
13, 2624, Control_c, 13, 11, 79
13, 2642, Control_c, 13, 11, 80
13, 2648, Note_on_c, 13, 48, 106
13, 2660, Control_c, 13, 11, 81
13, 2678, Control_c, 13, 11, 82
13, 2696, Control_c, 13, 11, 83
13, 2708, Note_on_c, 13, 48, 0
13, 2714, Control_c, 13, 11, 84
13, 2732, Control_c, 13, 11, 85
13, 2750, Control_c, 13, 11, 86
13, 2768, Control_c, 13, 11, 87
13, 2768, Note_on_c, 13, 49, 106
13, 2828, Note_on_c, 13, 49, 0
13, 2888, Note_on_c, 13, 50, 106
13, 2948, Note_on_c, 13, 50, 0
13, 3008, Note_on_c, 13, 50, 106
13, 3068, Note_on_c, 13, 50, 0
13, 3128, Note_on_c, 13, 50, 106
13, 3188, Note_on_c, 13, 50, 0
13, 3248, Note_on_c, 13, 43, 106
13, 3368, Note_on_c, 13, 43, 0
13, 3488, Control_c, 13, 11, 37
13, 3536, Control_c, 13, 11, 38
13, 3584, Control_c, 13, 11, 39
13, 3608, Note_on_c, 13, 48, 106
13, 3632, Control_c, 13, 11, 40
13, 3668, Note_on_c, 13, 48, 0
13, 3680, Control_c, 13, 11, 41
13, 3728, Control_c, 13, 11, 42
13, 3728, Note_on_c, 13, 60, 106
13, 3776, Control_c, 13, 11, 43
13, 3788, Note_on_c, 13, 60, 0
13, 3824, Control_c, 13, 11, 44
13, 3848, Note_on_c, 13, 60, 106
13, 3872, Control_c, 13, 11, 45
13, 3908, Note_on_c, 13, 60, 0
13, 3920, Control_c, 13, 11, 46
13, 3968, Note_on_c, 13, 60, 106
13, 3968, Control_c, 13, 11, 47
13, 4028, Note_on_c, 13, 60, 0
13, 4088, Note_on_c, 13, 60, 106
13, 4148, Note_on_c, 13, 60, 0
13, 4208, Note_on_c, 13, 59, 106
13, 4268, Note_on_c, 13, 59, 0
13, 4328, Note_on_c, 13, 60, 106
13, 4388, Note_on_c, 13, 60, 0
13, 4448, Note_on_c, 13, 57, 106
13, 4508, Note_on_c, 13, 57, 0
13, 4568, Note_on_c, 13, 62, 106
13, 4628, Note_on_c, 13, 62, 0
13, 4688, Note_on_c, 13, 59, 106
13, 4748, Note_on_c, 13, 59, 0
13, 4808, Note_on_c, 13, 55, 106
13, 4868, Note_on_c, 13, 55, 0
13, 4928, Control_c, 13, 11, 47
13, 4928, Note_on_c, 13, 52, 106
13, 4946, Control_c, 13, 11, 48
13, 4964, Control_c, 13, 11, 49
13, 4982, Control_c, 13, 11, 50
13, 4988, Note_on_c, 13, 52, 0
13, 5000, Control_c, 13, 11, 51
13, 5018, Control_c, 13, 11, 52
13, 5036, Control_c, 13, 11, 53
13, 5048, Note_on_c, 13, 53, 106
13, 5054, Control_c, 13, 11, 54
13, 5072, Control_c, 13, 11, 55
13, 5090, Control_c, 13, 11, 56
13, 5108, Note_on_c, 13, 53, 0
13, 5108, Control_c, 13, 11, 57
13, 5126, Control_c, 13, 11, 58
13, 5144, Control_c, 13, 11, 59
13, 5162, Control_c, 13, 11, 60
13, 5168, Note_on_c, 13, 50, 106
13, 5180, Control_c, 13, 11, 61
13, 5198, Control_c, 13, 11, 62
13, 5216, Control_c, 13, 11, 63
13, 5228, Note_on_c, 13, 50, 0
13, 5234, Control_c, 13, 11, 64
13, 5252, Control_c, 13, 11, 65
13, 5270, Control_c, 13, 11, 66
13, 5288, Control_c, 13, 11, 67
13, 5288, Note_on_c, 13, 55, 106
13, 5306, Control_c, 13, 11, 68
13, 5324, Control_c, 13, 11, 69
13, 5342, Control_c, 13, 11, 70
13, 5348, Note_on_c, 13, 55, 0
13, 5360, Control_c, 13, 11, 71
13, 5378, Control_c, 13, 11, 72
13, 5396, Control_c, 13, 11, 73
13, 5408, Note_on_c, 13, 52, 106
13, 5414, Control_c, 13, 11, 74
13, 5432, Control_c, 13, 11, 75
13, 5450, Control_c, 13, 11, 76
13, 5468, Note_on_c, 13, 52, 0
13, 5468, Control_c, 13, 11, 77
13, 5486, Control_c, 13, 11, 78
13, 5504, Control_c, 13, 11, 79
13, 5522, Control_c, 13, 11, 80
13, 5528, Note_on_c, 13, 48, 106
13, 5540, Control_c, 13, 11, 81
13, 5558, Control_c, 13, 11, 82
13, 5576, Control_c, 13, 11, 83
13, 5588, Note_on_c, 13, 48, 0
13, 5594, Control_c, 13, 11, 84
13, 5612, Control_c, 13, 11, 85
13, 5630, Control_c, 13, 11, 86
13, 5648, Note_on_c, 13, 49, 106
13, 5648, Control_c, 13, 11, 87
13, 5708, Note_on_c, 13, 49, 0
13, 5768, Note_on_c, 13, 50, 106
13, 5828, Note_on_c, 13, 50, 0
13, 5888, Note_on_c, 13, 50, 106
13, 5948, Note_on_c, 13, 50, 0
13, 6008, Note_on_c, 13, 50, 106
13, 6068, Note_on_c, 13, 50, 0
13, 6128, Note_on_c, 13, 43, 106
13, 6248, Note_on_c, 13, 43, 0
13, 6608, Note_on_c, 13, 60, 106
13, 6608, Control_c, 13, 11, 47
13, 6728, Note_on_c, 13, 60, 0
13, 6728, Note_on_c, 13, 59, 106
13, 6848, Note_on_c, 13, 59, 0
13, 6968, Note_on_c, 13, 60, 106
13, 7088, Note_on_c, 13, 60, 0
13, 7088, Note_on_c, 13, 59, 106
13, 7208, Note_on_c, 13, 59, 0
13, 7328, Control_c, 13, 11, 87
13, 7328, Note_on_c, 13, 60, 106
13, 7388, Note_on_c, 13, 60, 0
13, 7448, Note_on_c, 13, 62, 106
13, 7508, Note_on_c, 13, 62, 0
13, 7568, Note_on_c, 13, 63, 106
13, 7628, Note_on_c, 13, 63, 0
13, 7688, Note_on_c, 13, 51, 106
13, 7808, Note_on_c, 13, 51, 0
13, 8048, Control_c, 13, 11, 47
13, 8048, Note_on_c, 13, 56, 106
13, 8168, Note_on_c, 13, 56, 0
13, 8168, Note_on_c, 13, 55, 106
13, 8288, Note_on_c, 13, 55, 0
13, 8408, Note_on_c, 13, 56, 106
13, 8528, Note_on_c, 13, 56, 0
13, 8528, Note_on_c, 13, 55, 106
13, 8648, Note_on_c, 13, 55, 0
13, 8768, Note_on_c, 13, 57, 106
13, 8768, Control_c, 13, 11, 87
13, 8828, Note_on_c, 13, 57, 0
13, 8888, Note_on_c, 13, 59, 106
13, 8948, Note_on_c, 13, 59, 0
13, 9008, Note_on_c, 13, 60, 106
13, 9068, Note_on_c, 13, 60, 0
13, 9128, Note_on_c, 13, 48, 106
13, 9248, Note_on_c, 13, 48, 0
13, 9488, Note_on_c, 13, 53, 106
13, 9548, Note_on_c, 13, 53, 0
13, 9608, Note_on_c, 13, 55, 106
13, 9668, Note_on_c, 13, 55, 0
13, 9728, Note_on_c, 13, 56, 106
13, 9788, Note_on_c, 13, 56, 0
13, 9848, Note_on_c, 13, 44, 106
13, 9968, Note_on_c, 13, 44, 0
13, 10208, Note_on_c, 13, 54, 106
13, 10208, Control_c, 13, 11, 102
13, 10268, Note_on_c, 13, 54, 0
13, 10328, Note_on_c, 13, 54, 106
13, 10388, Note_on_c, 13, 54, 0
13, 10448, Note_on_c, 13, 54, 106
13, 10508, Note_on_c, 13, 54, 0
13, 10568, Note_on_c, 13, 54, 106
13, 10628, Note_on_c, 13, 54, 0
13, 10688, Note_on_c, 13, 54, 106
13, 10748, Note_on_c, 13, 54, 0
13, 10808, Note_on_c, 13, 53, 106
13, 10808, Control_c, 13, 11, 122
13, 10825, Control_c, 13, 11, 119
13, 10843, Control_c, 13, 11, 116
13, 10861, Control_c, 13, 11, 113
13, 10879, Control_c, 13, 11, 110
13, 10897, Control_c, 13, 11, 107
13, 10915, Control_c, 13, 11, 104
13, 10928, Note_on_c, 13, 53, 0
13, 11168, Control_c, 13, 11, 122
13, 11168, Note_on_c, 13, 54, 106
13, 11185, Control_c, 13, 11, 119
13, 11203, Control_c, 13, 11, 116
13, 11221, Control_c, 13, 11, 113
13, 11239, Control_c, 13, 11, 110
13, 11257, Control_c, 13, 11, 107
13, 11275, Control_c, 13, 11, 104
13, 11288, Note_on_c, 13, 54, 0
13, 11528, Note_on_c, 13, 56, 106
13, 11528, Control_c, 13, 11, 122
13, 11545, Control_c, 13, 11, 119
13, 11563, Control_c, 13, 11, 116
13, 11581, Control_c, 13, 11, 113
13, 11599, Control_c, 13, 11, 110
13, 11617, Control_c, 13, 11, 107
13, 11635, Control_c, 13, 11, 104
13, 11648, Note_on_c, 13, 56, 0
13, 11888, Control_c, 13, 11, 122
13, 11888, Note_on_c, 13, 44, 106
13, 11905, Control_c, 13, 11, 119
13, 11923, Control_c, 13, 11, 116
13, 11941, Control_c, 13, 11, 113
13, 11959, Control_c, 13, 11, 110
13, 11977, Control_c, 13, 11, 107
13, 11995, Control_c, 13, 11, 104
13, 12008, Note_on_c, 13, 44, 0
13, 12248, Control_c, 13, 11, 87
13, 12248, Note_on_c, 13, 61, 91
13, 12266, Control_c, 13, 11, 84
13, 12284, Control_c, 13, 11, 81
13, 12302, Control_c, 13, 11, 78
13, 12320, Control_c, 13, 11, 75
13, 12338, Control_c, 13, 11, 72
13, 12356, Control_c, 13, 11, 69
13, 12374, Control_c, 13, 11, 66
13, 12392, Control_c, 13, 11, 63
13, 12410, Control_c, 13, 11, 60
13, 12428, Control_c, 13, 11, 57
13, 12446, Control_c, 13, 11, 54
13, 12464, Control_c, 13, 11, 51
13, 12482, Control_c, 13, 11, 48
13, 12488, Note_on_c, 13, 61, 0
13, 12488, Note_on_c, 13, 56, 106
13, 12608, Note_on_c, 13, 56, 0
13, 12608, Note_on_c, 13, 58, 106
13, 12848, Note_on_c, 13, 58, 0
13, 12848, Note_on_c, 13, 60, 106
13, 12948, Note_on_c, 13, 60, 0
13, 12968, Note_on_c, 13, 61, 106
13, 13208, Note_on_c, 13, 61, 0
13, 13208, Note_on_c, 13, 56, 106
13, 13328, Note_on_c, 13, 56, 0
13, 13328, Note_on_c, 13, 58, 106
13, 13568, Note_on_c, 13, 58, 0
13, 13568, Note_on_c, 13, 60, 106
13, 13668, Note_on_c, 13, 60, 0
13, 13688, Note_on_c, 13, 61, 106
13, 13928, Note_on_c, 13, 61, 0
13, 13928, Note_on_c, 13, 56, 106
13, 14048, Note_on_c, 13, 56, 0
13, 14048, Note_on_c, 13, 58, 106
13, 14288, Note_on_c, 13, 58, 0
13, 14288, Note_on_c, 13, 60, 106
13, 14388, Note_on_c, 13, 60, 0
13, 14408, Note_on_c, 13, 61, 106
13, 14648, Note_on_c, 13, 61, 0
13, 14648, Note_on_c, 13, 56, 106
13, 14768, Note_on_c, 13, 56, 0
13, 14768, Note_on_c, 13, 58, 106
13, 15008, Note_on_c, 13, 58, 0
13, 15008, Note_on_c, 13, 60, 106
13, 15108, Note_on_c, 13, 60, 0
13, 15128, Note_on_c, 13, 61, 106
13, 15248, Note_on_c, 13, 61, 0
13, 15728, Control_c, 13, 11, 37
13, 15728, Note_on_c, 13, 45, 91
13, 15848, Note_on_c, 13, 45, 0
13, 15848, Note_on_c, 13, 46, 106
13, 16208, Note_on_c, 13, 46, 0
13, 17168, Note_on_c, 13, 46, 91
13, 17288, Note_on_c, 13, 46, 0
13, 17288, Note_on_c, 13, 47, 106
13, 17648, Note_on_c, 13, 47, 0
13, 18608, Control_c, 13, 11, 62
13, 18608, Note_on_c, 13, 47, 91
13, 18636, Control_c, 13, 11, 63
13, 18665, Control_c, 13, 11, 64
13, 18694, Control_c, 13, 11, 65
13, 18723, Control_c, 13, 11, 66
13, 18728, Note_on_c, 13, 47, 0
13, 18728, Note_on_c, 13, 48, 106
13, 18752, Control_c, 13, 11, 67
13, 18780, Control_c, 13, 11, 68
13, 18809, Control_c, 13, 11, 69
13, 18838, Control_c, 13, 11, 70
13, 18867, Control_c, 13, 11, 71
13, 18896, Control_c, 13, 11, 72
13, 18924, Control_c, 13, 11, 73
13, 18953, Control_c, 13, 11, 74
13, 18982, Control_c, 13, 11, 75
13, 19011, Control_c, 13, 11, 76
13, 19040, Control_c, 13, 11, 77
13, 19068, Control_c, 13, 11, 78
13, 19097, Control_c, 13, 11, 79
13, 19126, Control_c, 13, 11, 80
13, 19155, Control_c, 13, 11, 81
13, 19184, Control_c, 13, 11, 82
13, 19212, Control_c, 13, 11, 83
13, 19241, Control_c, 13, 11, 84
13, 19270, Control_c, 13, 11, 85
13, 19299, Control_c, 13, 11, 86
13, 19308, Note_on_c, 13, 48, 0
13, 19328, Control_c, 13, 11, 87
13, 19328, Note_on_c, 13, 48, 106
13, 19388, Note_on_c, 13, 48, 0
13, 19448, Note_on_c, 13, 48, 106
13, 19508, Note_on_c, 13, 48, 0
13, 19568, Note_on_c, 13, 60, 106
13, 19628, Note_on_c, 13, 60, 0
13, 19688, Note_on_c, 13, 60, 106
13, 19748, Note_on_c, 13, 60, 0
13, 19808, Note_on_c, 13, 60, 106
13, 19868, Note_on_c, 13, 60, 0
13, 19928, Note_on_c, 13, 60, 106
13, 19988, Note_on_c, 13, 60, 0
13, 20048, Note_on_c, 13, 59, 106
13, 20108, Note_on_c, 13, 59, 0
13, 20168, Note_on_c, 13, 60, 106
13, 20228, Note_on_c, 13, 60, 0
13, 20288, Note_on_c, 13, 57, 106
13, 20348, Note_on_c, 13, 57, 0
13, 20408, Note_on_c, 13, 62, 106
13, 20468, Note_on_c, 13, 62, 0
13, 20528, Note_on_c, 13, 59, 106
13, 20588, Note_on_c, 13, 59, 0
13, 20648, Note_on_c, 13, 55, 106
13, 20708, Note_on_c, 13, 55, 0
13, 20768, Control_c, 13, 11, 102
13, 20768, Note_on_c, 13, 52, 106
13, 20828, Note_on_c, 13, 52, 0
13, 20888, Note_on_c, 13, 53, 106
13, 20948, Note_on_c, 13, 53, 0
13, 21008, Note_on_c, 13, 50, 106
13, 21068, Note_on_c, 13, 50, 0
13, 21128, Note_on_c, 13, 55, 106
13, 21188, Note_on_c, 13, 55, 0
13, 21248, Note_on_c, 13, 52, 106
13, 21308, Note_on_c, 13, 52, 0
13, 21368, Note_on_c, 13, 48, 106
13, 21428, Note_on_c, 13, 48, 0
13, 21488, Note_on_c, 13, 47, 106
13, 21548, Note_on_c, 13, 47, 0
13, 21608, Note_on_c, 13, 48, 106
13, 21668, Note_on_c, 13, 48, 0
13, 21728, Note_on_c, 13, 45, 106
13, 21788, Note_on_c, 13, 45, 0
13, 21848, Note_on_c, 13, 50, 106
13, 21908, Note_on_c, 13, 50, 0
13, 21968, Note_on_c, 13, 47, 106
13, 21968, Control_c, 13, 11, 122
13, 21985, Control_c, 13, 11, 119
13, 22003, Control_c, 13, 11, 116
13, 22021, Control_c, 13, 11, 113
13, 22028, Note_on_c, 13, 47, 0
13, 22039, Control_c, 13, 11, 110
13, 22057, Control_c, 13, 11, 107
13, 22075, Control_c, 13, 11, 104
13, 22088, Note_on_c, 13, 43, 106
13, 22148, Note_on_c, 13, 43, 0
13, 22208, Note_on_c, 13, 45, 106
13, 22268, Note_on_c, 13, 45, 0
13, 22328, Note_on_c, 13, 46, 106
13, 22388, Note_on_c, 13, 46, 0
13, 22448, Note_on_c, 13, 43, 106
13, 22508, Note_on_c, 13, 43, 0
13, 22568, Note_on_c, 13, 48, 106
13, 22628, Note_on_c, 13, 48, 0
13, 22688, Control_c, 13, 11, 122
13, 22688, Note_on_c, 13, 45, 106
13, 22705, Control_c, 13, 11, 119
13, 22723, Control_c, 13, 11, 116
13, 22741, Control_c, 13, 11, 113
13, 22748, Note_on_c, 13, 45, 0
13, 22759, Control_c, 13, 11, 110
13, 22777, Control_c, 13, 11, 107
13, 22795, Control_c, 13, 11, 104
13, 22808, Note_on_c, 13, 41, 106
13, 22868, Note_on_c, 13, 41, 0
13, 22928, Note_on_c, 13, 52, 106
13, 22988, Note_on_c, 13, 52, 0
13, 23048, Note_on_c, 13, 53, 106
13, 23108, Note_on_c, 13, 53, 0
13, 23168, Note_on_c, 13, 50, 106
13, 23228, Note_on_c, 13, 50, 0
13, 23288, Note_on_c, 13, 55, 106
13, 23348, Note_on_c, 13, 55, 0
13, 23408, Control_c, 13, 11, 122
13, 23408, Note_on_c, 13, 52, 106
13, 23425, Control_c, 13, 11, 119
13, 23443, Control_c, 13, 11, 116
13, 23461, Control_c, 13, 11, 113
13, 23468, Note_on_c, 13, 52, 0
13, 23479, Control_c, 13, 11, 110
13, 23497, Control_c, 13, 11, 107
13, 23515, Control_c, 13, 11, 104
13, 23528, Note_on_c, 13, 48, 106
13, 23588, Note_on_c, 13, 48, 0
13, 23648, Note_on_c, 13, 53, 106
13, 23708, Note_on_c, 13, 53, 0
13, 23768, Note_on_c, 13, 43, 106
13, 23828, Note_on_c, 13, 43, 0
13, 23888, Note_on_c, 13, 55, 106
13, 23948, Note_on_c, 13, 55, 0
13, 24008, Note_on_c, 13, 55, 106
13, 24068, Note_on_c, 13, 55, 0
13, 24128, Note_on_c, 13, 48, 106
13, 24188, Note_on_c, 13, 48, 0
13, 24248, Note_on_c, 13, 60, 106
13, 24308, Note_on_c, 13, 60, 0
13, 24368, Note_on_c, 13, 60, 86
13, 24428, Note_on_c, 13, 60, 0
13, 24488, Note_on_c, 13, 60, 86
13, 24488, Control_c, 13, 11, 122
13, 24511, Control_c, 13, 11, 120
13, 24535, Control_c, 13, 11, 118
13, 24548, Note_on_c, 13, 60, 0
13, 24559, Control_c, 13, 11, 116
13, 24583, Control_c, 13, 11, 114
13, 24607, Control_c, 13, 11, 112
13, 24608, Note_on_c, 13, 60, 86
13, 24631, Control_c, 13, 11, 110
13, 24655, Control_c, 13, 11, 108
13, 24668, Note_on_c, 13, 60, 0
13, 24679, Control_c, 13, 11, 106
13, 24703, Control_c, 13, 11, 104
13, 24727, Control_c, 13, 11, 102
13, 24728, Note_on_c, 13, 60, 86
13, 24788, Note_on_c, 13, 60, 0
13, 24848, Note_on_c, 13, 48, 86
13, 24908, Note_on_c, 13, 48, 0
13, 24968, Note_on_c, 13, 60, 86
13, 25028, Note_on_c, 13, 60, 0
13, 25088, Note_on_c, 13, 60, 86
13, 25148, Note_on_c, 13, 60, 0
13, 25208, Control_c, 13, 11, 122
13, 25208, Note_on_c, 13, 60, 86
13, 25231, Control_c, 13, 11, 120
13, 25255, Control_c, 13, 11, 118
13, 25268, Note_on_c, 13, 60, 0
13, 25279, Control_c, 13, 11, 116
13, 25303, Control_c, 13, 11, 114
13, 25327, Control_c, 13, 11, 112
13, 25328, Note_on_c, 13, 60, 86
13, 25351, Control_c, 13, 11, 110
13, 25375, Control_c, 13, 11, 108
13, 25388, Note_on_c, 13, 60, 0
13, 25399, Control_c, 13, 11, 106
13, 25423, Control_c, 13, 11, 104
13, 25447, Control_c, 13, 11, 102
13, 25448, Note_on_c, 13, 60, 86
13, 25508, Note_on_c, 13, 60, 0
13, 25568, Note_on_c, 13, 48, 86
13, 25668, Note_on_c, 13, 48, 0
13, 25688, Control_c, 13, 11, 122
13, 25688, Note_on_c, 13, 60, 86
13, 25705, Control_c, 13, 11, 119
13, 25723, Control_c, 13, 11, 116
13, 25741, Control_c, 13, 11, 113
13, 25759, Control_c, 13, 11, 110
13, 25777, Control_c, 13, 11, 107
13, 25795, Control_c, 13, 11, 104
13, 25908, Note_on_c, 13, 60, 0
13, 25928, Note_on_c, 13, 48, 86
13, 26028, Note_on_c, 13, 48, 0
13, 26048, Control_c, 13, 11, 122
13, 26048, Note_on_c, 13, 60, 86
13, 26065, Control_c, 13, 11, 119
13, 26083, Control_c, 13, 11, 116
13, 26101, Control_c, 13, 11, 113
13, 26119, Control_c, 13, 11, 110
13, 26137, Control_c, 13, 11, 107
13, 26155, Control_c, 13, 11, 104
13, 26268, Note_on_c, 13, 60, 0
13, 26288, Note_on_c, 13, 48, 86
13, 26388, Note_on_c, 13, 48, 0
13, 26408, Note_on_c, 13, 60, 86
13, 26408, Control_c, 13, 11, 122
13, 26425, Control_c, 13, 11, 119
13, 26443, Control_c, 13, 11, 116
13, 26461, Control_c, 13, 11, 113
13, 26479, Control_c, 13, 11, 110
13, 26497, Control_c, 13, 11, 107
13, 26515, Control_c, 13, 11, 104
13, 26628, Note_on_c, 13, 60, 0
13, 26648, Note_on_c, 13, 48, 86
13, 26748, Note_on_c, 13, 48, 0
13, 26768, Note_on_c, 13, 60, 86
13, 26768, Control_c, 13, 11, 122
13, 26785, Control_c, 13, 11, 119
13, 26803, Control_c, 13, 11, 116
13, 26821, Control_c, 13, 11, 113
13, 26839, Control_c, 13, 11, 110
13, 26857, Control_c, 13, 11, 107
13, 26875, Control_c, 13, 11, 104
13, 26891, Control_c, 13, 11, 101
13, 26901, Control_c, 13, 11, 98
13, 26911, Control_c, 13, 11, 95
13, 26922, Control_c, 13, 11, 92
13, 26932, Control_c, 13, 11, 89
13, 26942, Control_c, 13, 11, 86
13, 26952, Control_c, 13, 11, 83
13, 26962, Control_c, 13, 11, 80
13, 26973, Control_c, 13, 11, 77
13, 26983, Control_c, 13, 11, 74
13, 26988, Note_on_c, 13, 60, 0
13, 26993, Control_c, 13, 11, 71
13, 27003, Control_c, 13, 11, 68
13, 27008, Control_c, 13, 11, 47
13, 27008, Note_on_c, 13, 48, 106
13, 27128, Note_on_c, 13, 48, 0
13, 27368, Note_on_c, 13, 55, 106
13, 27488, Note_on_c, 13, 55, 0
13, 27728, Note_on_c, 13, 60, 106
13, 27848, Note_on_c, 13, 60, 0
13, 28088, Note_on_c, 13, 55, 106
13, 28208, Note_on_c, 13, 55, 0
13, 28448, Control_c, 13, 11, 47
13, 28448, Note_on_c, 13, 48, 106
13, 28484, Control_c, 13, 11, 48
13, 28520, Control_c, 13, 11, 49
13, 28556, Control_c, 13, 11, 50
13, 28568, Note_on_c, 13, 48, 0
13, 28592, Control_c, 13, 11, 51
13, 28628, Control_c, 13, 11, 52
13, 28664, Control_c, 13, 11, 53
13, 28700, Control_c, 13, 11, 54
13, 28736, Control_c, 13, 11, 55
13, 28772, Control_c, 13, 11, 56
13, 28808, Note_on_c, 13, 43, 106
13, 28808, Control_c, 13, 11, 57
13, 28844, Control_c, 13, 11, 58
13, 28880, Control_c, 13, 11, 59
13, 28916, Control_c, 13, 11, 60
13, 28928, Note_on_c, 13, 43, 0
13, 28952, Control_c, 13, 11, 61
13, 28988, Control_c, 13, 11, 62
13, 29024, Control_c, 13, 11, 63
13, 29060, Control_c, 13, 11, 64
13, 29096, Control_c, 13, 11, 65
13, 29132, Control_c, 13, 11, 66
13, 29168, Control_c, 13, 11, 67
13, 29168, Note_on_c, 13, 48, 106
13, 29204, Control_c, 13, 11, 68
13, 29240, Control_c, 13, 11, 69
13, 29276, Control_c, 13, 11, 70
13, 29288, Note_on_c, 13, 48, 0
13, 29312, Control_c, 13, 11, 71
13, 29348, Control_c, 13, 11, 72
13, 29384, Control_c, 13, 11, 73
13, 29420, Control_c, 13, 11, 74
13, 29456, Control_c, 13, 11, 75
13, 29492, Control_c, 13, 11, 76
13, 29528, Control_c, 13, 11, 77
13, 29528, Note_on_c, 13, 55, 106
13, 29564, Control_c, 13, 11, 78
13, 29600, Control_c, 13, 11, 79
13, 29636, Control_c, 13, 11, 80
13, 29648, Note_on_c, 13, 55, 0
13, 29672, Control_c, 13, 11, 81
13, 29708, Control_c, 13, 11, 82
13, 29744, Control_c, 13, 11, 83
13, 29780, Control_c, 13, 11, 84
13, 29816, Control_c, 13, 11, 85
13, 29852, Control_c, 13, 11, 86
13, 29888, Note_on_c, 13, 48, 106
13, 29888, Control_c, 13, 11, 87
13, 30008, Note_on_c, 13, 48, 0
13, 30248, Note_on_c, 13, 43, 106
13, 30368, Note_on_c, 13, 43, 0
13, 30608, Note_on_c, 13, 48, 106
13, 30608, Control_c, 13, 11, 102
13, 30728, Note_on_c, 13, 48, 0
13, 30968, Note_on_c, 13, 55, 106
13, 31028, Note_on_c, 13, 55, 0
13, 31088, Note_on_c, 13, 55, 106
13, 31148, Note_on_c, 13, 55, 0
13, 31208, Note_on_c, 13, 55, 106
13, 31268, Note_on_c, 13, 55, 0
13, 31328, Note_on_c, 13, 60, 106
13, 31388, Note_on_c, 13, 60, 0
13, 31448, Note_on_c, 13, 55, 106
13, 31508, Note_on_c, 13, 55, 0
13, 31568, Note_on_c, 13, 52, 106
13, 31628, Note_on_c, 13, 52, 0
13, 31688, Note_on_c, 13, 48, 106
13, 31748, Note_on_c, 13, 48, 0
13, 32168, Note_on_c, 13, 60, 106
13, 32168, Control_c, 13, 11, 47
13, 32288, Note_on_c, 13, 60, 0
13, 32288, Note_on_c, 13, 59, 106
13, 32408, Note_on_c, 13, 59, 0
13, 32528, Note_on_c, 13, 60, 106
13, 32648, Note_on_c, 13, 60, 0
13, 32648, Note_on_c, 13, 59, 106
13, 32768, Note_on_c, 13, 59, 0
13, 32888, Control_c, 13, 11, 87
13, 32888, Note_on_c, 13, 60, 106
13, 32948, Note_on_c, 13, 60, 0
13, 33008, Note_on_c, 13, 62, 106
13, 33068, Note_on_c, 13, 62, 0
13, 33128, Note_on_c, 13, 63, 106
13, 33188, Note_on_c, 13, 63, 0
13, 33248, Note_on_c, 13, 51, 106
13, 33368, Note_on_c, 13, 51, 0
13, 33608, Note_on_c, 13, 56, 106
13, 33608, Control_c, 13, 11, 47
13, 33728, Note_on_c, 13, 56, 0
13, 33728, Note_on_c, 13, 55, 106
13, 33848, Note_on_c, 13, 55, 0
13, 33968, Note_on_c, 13, 56, 106
13, 34088, Note_on_c, 13, 56, 0
13, 34088, Note_on_c, 13, 55, 106
13, 34208, Note_on_c, 13, 55, 0
13, 34328, Control_c, 13, 11, 87
13, 34328, Note_on_c, 13, 57, 106
13, 34388, Note_on_c, 13, 57, 0
13, 34448, Note_on_c, 13, 59, 106
13, 34508, Note_on_c, 13, 59, 0
13, 34568, Note_on_c, 13, 60, 106
13, 34628, Note_on_c, 13, 60, 0
13, 34688, Note_on_c, 13, 48, 106
13, 34808, Note_on_c, 13, 48, 0
13, 35048, Note_on_c, 13, 53, 106
13, 35108, Note_on_c, 13, 53, 0
13, 35168, Note_on_c, 13, 55, 106
13, 35228, Note_on_c, 13, 55, 0
13, 35288, Note_on_c, 13, 56, 106
13, 35348, Note_on_c, 13, 56, 0
13, 35408, Note_on_c, 13, 44, 106
13, 35528, Note_on_c, 13, 44, 0
13, 35768, Control_c, 13, 11, 102
13, 35768, Note_on_c, 13, 54, 106
13, 35828, Note_on_c, 13, 54, 0
13, 35888, Note_on_c, 13, 54, 106
13, 35948, Note_on_c, 13, 54, 0
13, 36008, Note_on_c, 13, 54, 106
13, 36068, Note_on_c, 13, 54, 0
13, 36128, Note_on_c, 13, 54, 106
13, 36188, Note_on_c, 13, 54, 0
13, 36248, Note_on_c, 13, 54, 106
13, 36308, Note_on_c, 13, 54, 0
13, 36368, Control_c, 13, 11, 122
13, 36368, Note_on_c, 13, 53, 106
13, 36385, Control_c, 13, 11, 119
13, 36403, Control_c, 13, 11, 116
13, 36421, Control_c, 13, 11, 113
13, 36439, Control_c, 13, 11, 110
13, 36457, Control_c, 13, 11, 107
13, 36475, Control_c, 13, 11, 104
13, 36488, Note_on_c, 13, 53, 0
13, 36728, Control_c, 13, 11, 122
13, 36728, Note_on_c, 13, 54, 106
13, 36745, Control_c, 13, 11, 119
13, 36763, Control_c, 13, 11, 116
13, 36781, Control_c, 13, 11, 113
13, 36799, Control_c, 13, 11, 110
13, 36817, Control_c, 13, 11, 107
13, 36835, Control_c, 13, 11, 104
13, 36848, Note_on_c, 13, 54, 0
13, 37088, Note_on_c, 13, 56, 106
13, 37088, Control_c, 13, 11, 122
13, 37105, Control_c, 13, 11, 119
13, 37123, Control_c, 13, 11, 116
13, 37141, Control_c, 13, 11, 113
13, 37159, Control_c, 13, 11, 110
13, 37177, Control_c, 13, 11, 107
13, 37195, Control_c, 13, 11, 104
13, 37208, Note_on_c, 13, 56, 0
13, 37448, Control_c, 13, 11, 122
13, 37448, Note_on_c, 13, 44, 106
13, 37465, Control_c, 13, 11, 119
13, 37483, Control_c, 13, 11, 116
13, 37501, Control_c, 13, 11, 113
13, 37519, Control_c, 13, 11, 110
13, 37537, Control_c, 13, 11, 107
13, 37555, Control_c, 13, 11, 104
13, 37568, Note_on_c, 13, 44, 0
13, 37808, Control_c, 13, 11, 87
13, 37808, Note_on_c, 13, 61, 91
13, 37826, Control_c, 13, 11, 84
13, 37844, Control_c, 13, 11, 81
13, 37862, Control_c, 13, 11, 78
13, 37880, Control_c, 13, 11, 75
13, 37898, Control_c, 13, 11, 72
13, 37916, Control_c, 13, 11, 69
13, 37934, Control_c, 13, 11, 66
13, 37952, Control_c, 13, 11, 63
13, 37970, Control_c, 13, 11, 60
13, 37988, Control_c, 13, 11, 57
13, 38006, Control_c, 13, 11, 54
13, 38024, Control_c, 13, 11, 51
13, 38042, Control_c, 13, 11, 48
13, 38048, Note_on_c, 13, 61, 0
13, 38048, Note_on_c, 13, 56, 106
13, 38168, Note_on_c, 13, 56, 0
13, 38168, Note_on_c, 13, 58, 106
13, 38408, Note_on_c, 13, 58, 0
13, 38408, Note_on_c, 13, 60, 106
13, 38508, Note_on_c, 13, 60, 0
13, 38528, Note_on_c, 13, 61, 106
13, 38768, Note_on_c, 13, 61, 0
13, 38768, Note_on_c, 13, 56, 106
13, 38888, Note_on_c, 13, 56, 0
13, 38888, Note_on_c, 13, 58, 106
13, 39128, Note_on_c, 13, 58, 0
13, 39128, Note_on_c, 13, 60, 106
13, 39228, Note_on_c, 13, 60, 0
13, 39248, Note_on_c, 13, 61, 106
13, 39488, Note_on_c, 13, 61, 0
13, 39488, Note_on_c, 13, 56, 106
13, 39608, Note_on_c, 13, 56, 0
13, 39608, Note_on_c, 13, 58, 106
13, 39848, Note_on_c, 13, 58, 0
13, 39848, Note_on_c, 13, 60, 106
13, 39948, Note_on_c, 13, 60, 0
13, 39968, Note_on_c, 13, 61, 106
13, 40208, Note_on_c, 13, 61, 0
13, 40208, Note_on_c, 13, 56, 106
13, 40328, Note_on_c, 13, 56, 0
13, 40328, Note_on_c, 13, 58, 106
13, 40568, Note_on_c, 13, 58, 0
13, 40568, Note_on_c, 13, 60, 106
13, 40668, Note_on_c, 13, 60, 0
13, 40688, Note_on_c, 13, 61, 106
13, 40808, Note_on_c, 13, 61, 0
13, 41288, Control_c, 13, 11, 37
13, 41288, Note_on_c, 13, 45, 91
13, 41408, Note_on_c, 13, 45, 0
13, 41408, Note_on_c, 13, 46, 106
13, 41768, Note_on_c, 13, 46, 0
13, 42728, Note_on_c, 13, 46, 91
13, 42848, Note_on_c, 13, 46, 0
13, 42848, Note_on_c, 13, 47, 106
13, 43208, Note_on_c, 13, 47, 0
13, 44168, Note_on_c, 13, 47, 91
13, 44168, Control_c, 13, 11, 62
13, 44196, Control_c, 13, 11, 63
13, 44225, Control_c, 13, 11, 64
13, 44254, Control_c, 13, 11, 65
13, 44283, Control_c, 13, 11, 66
13, 44288, Note_on_c, 13, 47, 0
13, 44288, Note_on_c, 13, 48, 106
13, 44312, Control_c, 13, 11, 67
13, 44340, Control_c, 13, 11, 68
13, 44369, Control_c, 13, 11, 69
13, 44398, Control_c, 13, 11, 70
13, 44427, Control_c, 13, 11, 71
13, 44456, Control_c, 13, 11, 72
13, 44484, Control_c, 13, 11, 73
13, 44513, Control_c, 13, 11, 74
13, 44542, Control_c, 13, 11, 75
13, 44571, Control_c, 13, 11, 76
13, 44600, Control_c, 13, 11, 77
13, 44628, Control_c, 13, 11, 78
13, 44657, Control_c, 13, 11, 79
13, 44686, Control_c, 13, 11, 80
13, 44715, Control_c, 13, 11, 81
13, 44744, Control_c, 13, 11, 82
13, 44772, Control_c, 13, 11, 83
13, 44801, Control_c, 13, 11, 84
13, 44830, Control_c, 13, 11, 85
13, 44859, Control_c, 13, 11, 86
13, 44868, Note_on_c, 13, 48, 0
13, 44888, Note_on_c, 13, 48, 106
13, 44888, Control_c, 13, 11, 87
13, 44948, Note_on_c, 13, 48, 0
13, 45008, Note_on_c, 13, 48, 106
13, 45068, Note_on_c, 13, 48, 0
13, 45128, Note_on_c, 13, 60, 106
13, 45188, Note_on_c, 13, 60, 0
13, 45248, Note_on_c, 13, 60, 106
13, 45308, Note_on_c, 13, 60, 0
13, 45368, Note_on_c, 13, 60, 106
13, 45428, Note_on_c, 13, 60, 0
13, 45488, Note_on_c, 13, 60, 106
13, 45548, Note_on_c, 13, 60, 0
13, 45608, Note_on_c, 13, 59, 106
13, 45668, Note_on_c, 13, 59, 0
13, 45728, Note_on_c, 13, 60, 106
13, 45788, Note_on_c, 13, 60, 0
13, 45848, Note_on_c, 13, 57, 106
13, 45908, Note_on_c, 13, 57, 0
13, 45968, Note_on_c, 13, 62, 106
13, 46028, Note_on_c, 13, 62, 0
13, 46088, Note_on_c, 13, 59, 106
13, 46148, Note_on_c, 13, 59, 0
13, 46208, Note_on_c, 13, 55, 106
13, 46268, Note_on_c, 13, 55, 0
13, 46328, Control_c, 13, 11, 102
13, 46328, Note_on_c, 13, 52, 106
13, 46388, Note_on_c, 13, 52, 0
13, 46448, Note_on_c, 13, 53, 106
13, 46508, Note_on_c, 13, 53, 0
13, 46568, Note_on_c, 13, 50, 106
13, 46628, Note_on_c, 13, 50, 0
13, 46688, Note_on_c, 13, 55, 106
13, 46748, Note_on_c, 13, 55, 0
13, 46808, Note_on_c, 13, 52, 106
13, 46868, Note_on_c, 13, 52, 0
13, 46928, Note_on_c, 13, 48, 106
13, 46988, Note_on_c, 13, 48, 0
13, 47048, Note_on_c, 13, 47, 106
13, 47108, Note_on_c, 13, 47, 0
13, 47168, Note_on_c, 13, 48, 106
13, 47228, Note_on_c, 13, 48, 0
13, 47288, Note_on_c, 13, 45, 106
13, 47348, Note_on_c, 13, 45, 0
13, 47408, Note_on_c, 13, 50, 106
13, 47468, Note_on_c, 13, 50, 0
13, 47528, Note_on_c, 13, 47, 106
13, 47528, Control_c, 13, 11, 122
13, 47545, Control_c, 13, 11, 119
13, 47563, Control_c, 13, 11, 116
13, 47581, Control_c, 13, 11, 113
13, 47588, Note_on_c, 13, 47, 0
13, 47599, Control_c, 13, 11, 110
13, 47617, Control_c, 13, 11, 107
13, 47635, Control_c, 13, 11, 104
13, 47648, Note_on_c, 13, 43, 106
13, 47708, Note_on_c, 13, 43, 0
13, 47768, Note_on_c, 13, 45, 106
13, 47828, Note_on_c, 13, 45, 0
13, 47888, Note_on_c, 13, 46, 106
13, 47948, Note_on_c, 13, 46, 0
13, 48008, Note_on_c, 13, 43, 106
13, 48068, Note_on_c, 13, 43, 0
13, 48128, Note_on_c, 13, 48, 106
13, 48188, Note_on_c, 13, 48, 0
13, 48248, Control_c, 13, 11, 122
13, 48248, Note_on_c, 13, 45, 106
13, 48265, Control_c, 13, 11, 119
13, 48283, Control_c, 13, 11, 116
13, 48301, Control_c, 13, 11, 113
13, 48308, Note_on_c, 13, 45, 0
13, 48319, Control_c, 13, 11, 110
13, 48337, Control_c, 13, 11, 107
13, 48355, Control_c, 13, 11, 104
13, 48368, Note_on_c, 13, 41, 106
13, 48428, Note_on_c, 13, 41, 0
13, 48488, Note_on_c, 13, 52, 106
13, 48548, Note_on_c, 13, 52, 0
13, 48608, Note_on_c, 13, 53, 106
13, 48668, Note_on_c, 13, 53, 0
13, 48728, Note_on_c, 13, 50, 106
13, 48788, Note_on_c, 13, 50, 0
13, 48848, Note_on_c, 13, 55, 106
13, 48908, Note_on_c, 13, 55, 0
13, 48968, Control_c, 13, 11, 122
13, 48968, Note_on_c, 13, 52, 106
13, 48985, Control_c, 13, 11, 119
13, 49003, Control_c, 13, 11, 116
13, 49021, Control_c, 13, 11, 113
13, 49028, Note_on_c, 13, 52, 0
13, 49039, Control_c, 13, 11, 110
13, 49057, Control_c, 13, 11, 107
13, 49075, Control_c, 13, 11, 104
13, 49088, Note_on_c, 13, 48, 106
13, 49148, Note_on_c, 13, 48, 0
13, 49208, Note_on_c, 13, 53, 106
13, 49268, Note_on_c, 13, 53, 0
13, 49328, Note_on_c, 13, 43, 106
13, 49388, Note_on_c, 13, 43, 0
13, 49448, Note_on_c, 13, 55, 106
13, 49508, Note_on_c, 13, 55, 0
13, 49568, Note_on_c, 13, 55, 106
13, 49628, Note_on_c, 13, 55, 0
13, 49688, Note_on_c, 13, 48, 106
13, 49748, Note_on_c, 13, 48, 0
13, 49808, Note_on_c, 13, 60, 106
13, 49868, Note_on_c, 13, 60, 0
13, 49928, Note_on_c, 13, 60, 86
13, 49988, Note_on_c, 13, 60, 0
13, 50048, Note_on_c, 13, 60, 86
13, 50048, Control_c, 13, 11, 122
13, 50071, Control_c, 13, 11, 120
13, 50095, Control_c, 13, 11, 118
13, 50108, Note_on_c, 13, 60, 0
13, 50119, Control_c, 13, 11, 116
13, 50143, Control_c, 13, 11, 114
13, 50167, Control_c, 13, 11, 112
13, 50168, Note_on_c, 13, 60, 86
13, 50191, Control_c, 13, 11, 110
13, 50215, Control_c, 13, 11, 108
13, 50228, Note_on_c, 13, 60, 0
13, 50239, Control_c, 13, 11, 106
13, 50263, Control_c, 13, 11, 104
13, 50287, Control_c, 13, 11, 102
13, 50288, Note_on_c, 13, 60, 86
13, 50348, Note_on_c, 13, 60, 0
13, 50408, Note_on_c, 13, 48, 86
13, 50468, Note_on_c, 13, 48, 0
13, 50528, Note_on_c, 13, 60, 86
13, 50588, Note_on_c, 13, 60, 0
13, 50648, Note_on_c, 13, 60, 86
13, 50708, Note_on_c, 13, 60, 0
13, 50768, Control_c, 13, 11, 122
13, 50768, Note_on_c, 13, 60, 86
13, 50791, Control_c, 13, 11, 120
13, 50815, Control_c, 13, 11, 118
13, 50828, Note_on_c, 13, 60, 0
13, 50839, Control_c, 13, 11, 116
13, 50863, Control_c, 13, 11, 114
13, 50887, Control_c, 13, 11, 112
13, 50888, Note_on_c, 13, 60, 86
13, 50911, Control_c, 13, 11, 110
13, 50935, Control_c, 13, 11, 108
13, 50948, Note_on_c, 13, 60, 0
13, 50959, Control_c, 13, 11, 106
13, 50983, Control_c, 13, 11, 104
13, 51007, Control_c, 13, 11, 102
13, 51008, Note_on_c, 13, 60, 86
13, 51068, Note_on_c, 13, 60, 0
13, 51128, Note_on_c, 13, 48, 86
13, 51228, Note_on_c, 13, 48, 0
13, 51248, Control_c, 13, 11, 122
13, 51248, Note_on_c, 13, 60, 86
13, 51265, Control_c, 13, 11, 119
13, 51283, Control_c, 13, 11, 116
13, 51301, Control_c, 13, 11, 113
13, 51319, Control_c, 13, 11, 110
13, 51337, Control_c, 13, 11, 107
13, 51355, Control_c, 13, 11, 104
13, 51468, Note_on_c, 13, 60, 0
13, 51488, Note_on_c, 13, 48, 86
13, 51588, Note_on_c, 13, 48, 0
13, 51608, Control_c, 13, 11, 122
13, 51608, Note_on_c, 13, 60, 86
13, 51625, Control_c, 13, 11, 119
13, 51643, Control_c, 13, 11, 116
13, 51661, Control_c, 13, 11, 113
13, 51679, Control_c, 13, 11, 110
13, 51697, Control_c, 13, 11, 107
13, 51715, Control_c, 13, 11, 104
13, 51828, Note_on_c, 13, 60, 0
13, 51848, Note_on_c, 13, 48, 86
13, 51948, Note_on_c, 13, 48, 0
13, 51968, Control_c, 13, 11, 122
13, 51968, Note_on_c, 13, 60, 86
13, 51985, Control_c, 13, 11, 119
13, 52003, Control_c, 13, 11, 116
13, 52021, Control_c, 13, 11, 113
13, 52039, Control_c, 13, 11, 110
13, 52057, Control_c, 13, 11, 107
13, 52075, Control_c, 13, 11, 104
13, 52188, Note_on_c, 13, 60, 0
13, 52208, Note_on_c, 13, 48, 86
13, 52308, Note_on_c, 13, 48, 0
13, 52328, Control_c, 13, 11, 122
13, 52328, Note_on_c, 13, 60, 86
13, 52345, Control_c, 13, 11, 119
13, 52363, Control_c, 13, 11, 116
13, 52381, Control_c, 13, 11, 113
13, 52399, Control_c, 13, 11, 110
13, 52417, Control_c, 13, 11, 107
13, 52435, Control_c, 13, 11, 104
13, 52451, Control_c, 13, 11, 101
13, 52461, Control_c, 13, 11, 98
13, 52471, Control_c, 13, 11, 95
13, 52482, Control_c, 13, 11, 92
13, 52492, Control_c, 13, 11, 89
13, 52502, Control_c, 13, 11, 86
13, 52512, Control_c, 13, 11, 83
13, 52522, Control_c, 13, 11, 80
13, 52533, Control_c, 13, 11, 77
13, 52543, Control_c, 13, 11, 74
13, 52548, Note_on_c, 13, 60, 0
13, 52553, Control_c, 13, 11, 71
13, 52563, Control_c, 13, 11, 68
13, 52568, Note_on_c, 13, 48, 106
13, 52568, Control_c, 13, 11, 47
13, 52688, Note_on_c, 13, 48, 0
13, 52928, Note_on_c, 13, 55, 106
13, 53048, Note_on_c, 13, 55, 0
13, 53288, Note_on_c, 13, 60, 106
13, 53408, Note_on_c, 13, 60, 0
13, 53648, Note_on_c, 13, 55, 106
13, 53768, Note_on_c, 13, 55, 0
13, 54008, Control_c, 13, 11, 47
13, 54008, Note_on_c, 13, 48, 106
13, 54044, Control_c, 13, 11, 48
13, 54080, Control_c, 13, 11, 49
13, 54116, Control_c, 13, 11, 50
13, 54128, Note_on_c, 13, 48, 0
13, 54152, Control_c, 13, 11, 51
13, 54188, Control_c, 13, 11, 52
13, 54224, Control_c, 13, 11, 53
13, 54260, Control_c, 13, 11, 54
13, 54296, Control_c, 13, 11, 55
13, 54332, Control_c, 13, 11, 56
13, 54368, Control_c, 13, 11, 57
13, 54368, Note_on_c, 13, 43, 106
13, 54404, Control_c, 13, 11, 58
13, 54440, Control_c, 13, 11, 59
13, 54476, Control_c, 13, 11, 60
13, 54488, Note_on_c, 13, 43, 0
13, 54512, Control_c, 13, 11, 61
13, 54548, Control_c, 13, 11, 62
13, 54584, Control_c, 13, 11, 63
13, 54620, Control_c, 13, 11, 64
13, 54656, Control_c, 13, 11, 65
13, 54692, Control_c, 13, 11, 66
13, 54728, Control_c, 13, 11, 67
13, 54728, Note_on_c, 13, 48, 106
13, 54764, Control_c, 13, 11, 68
13, 54800, Control_c, 13, 11, 69
13, 54836, Control_c, 13, 11, 70
13, 54848, Note_on_c, 13, 48, 0
13, 54872, Control_c, 13, 11, 71
13, 54908, Control_c, 13, 11, 72
13, 54944, Control_c, 13, 11, 73
13, 54980, Control_c, 13, 11, 74
13, 55016, Control_c, 13, 11, 75
13, 55052, Control_c, 13, 11, 76
13, 55088, Note_on_c, 13, 55, 106
13, 55088, Control_c, 13, 11, 77
13, 55124, Control_c, 13, 11, 78
13, 55160, Control_c, 13, 11, 79
13, 55196, Control_c, 13, 11, 80
13, 55208, Note_on_c, 13, 55, 0
13, 55232, Control_c, 13, 11, 81
13, 55268, Control_c, 13, 11, 82
13, 55304, Control_c, 13, 11, 83
13, 55340, Control_c, 13, 11, 84
13, 55376, Control_c, 13, 11, 85
13, 55412, Control_c, 13, 11, 86
13, 55448, Control_c, 13, 11, 87
13, 55448, Note_on_c, 13, 48, 106
13, 55568, Note_on_c, 13, 48, 0
13, 55808, Note_on_c, 13, 43, 106
13, 55928, Note_on_c, 13, 43, 0
13, 56168, Control_c, 13, 11, 102
13, 56168, Note_on_c, 13, 48, 106
13, 56288, Note_on_c, 13, 48, 0
13, 56528, Note_on_c, 13, 55, 106
13, 56588, Note_on_c, 13, 55, 0
13, 56648, Note_on_c, 13, 55, 106
13, 56708, Note_on_c, 13, 55, 0
13, 56768, Note_on_c, 13, 55, 106
13, 56828, Note_on_c, 13, 55, 0
13, 56888, Note_on_c, 13, 60, 106
13, 56948, Note_on_c, 13, 60, 0
13, 57008, Note_on_c, 13, 55, 106
13, 57068, Note_on_c, 13, 55, 0
13, 57128, Note_on_c, 13, 52, 106
13, 57188, Note_on_c, 13, 52, 0
13, 57248, Note_on_c, 13, 48, 106
13, 57308, Note_on_c, 13, 48, 0
13, 82088, Control_c, 13, 11, 47
13, 82088, Note_on_c, 13, 48, 106
13, 82114, Control_c, 13, 11, 49
13, 82140, Control_c, 13, 11, 51
13, 82166, Control_c, 13, 11, 53
13, 82192, Control_c, 13, 11, 55
13, 82218, Control_c, 13, 11, 57
13, 82245, Control_c, 13, 11, 59
13, 82271, Control_c, 13, 11, 61
13, 82277, Note_on_c, 13, 48, 0
13, 82297, Control_c, 13, 11, 63
13, 82323, Control_c, 13, 11, 65
13, 82328, Note_on_c, 13, 48, 106
13, 82349, Control_c, 13, 11, 67
13, 82376, Control_c, 13, 11, 69
13, 82402, Control_c, 13, 11, 71
13, 82418, Note_on_c, 13, 48, 0
13, 82428, Control_c, 13, 11, 73
13, 82448, Note_on_c, 13, 48, 106
13, 82454, Control_c, 13, 11, 75
13, 82480, Control_c, 13, 11, 77
13, 82506, Control_c, 13, 11, 79
13, 82533, Control_c, 13, 11, 81
13, 82559, Control_c, 13, 11, 83
13, 82585, Control_c, 13, 11, 85
13, 82611, Control_c, 13, 11, 87
13, 82637, Note_on_c, 13, 48, 0
13, 82637, Control_c, 13, 11, 89
13, 82664, Control_c, 13, 11, 91
13, 82688, Note_on_c, 13, 48, 106
13, 82690, Control_c, 13, 11, 93
13, 82716, Control_c, 13, 11, 95
13, 82742, Control_c, 13, 11, 97
13, 82768, Control_c, 13, 11, 99
13, 82778, Note_on_c, 13, 48, 0
13, 82794, Control_c, 13, 11, 101
13, 82808, Note_on_c, 13, 48, 106
13, 82999, Note_on_c, 13, 48, 0
13, 83048, Note_on_c, 13, 48, 106
13, 83108, Note_on_c, 13, 48, 0
13, 83168, Note_on_c, 13, 53, 106
13, 83168, Control_c, 13, 11, 122
13, 83191, Control_c, 13, 11, 120
13, 83215, Control_c, 13, 11, 118
13, 83239, Control_c, 13, 11, 116
13, 83263, Control_c, 13, 11, 114
13, 83287, Control_c, 13, 11, 112
13, 83311, Control_c, 13, 11, 110
13, 83335, Control_c, 13, 11, 108
13, 83359, Control_c, 13, 11, 106
13, 83383, Control_c, 13, 11, 104
13, 83407, Control_c, 13, 11, 102
13, 83528, Note_on_c, 13, 53, 0
13, 83528, Note_on_c, 13, 55, 106
13, 83753, Note_on_c, 13, 55, 0
13, 83768, Note_on_c, 13, 55, 106
13, 83828, Note_on_c, 13, 55, 0
13, 83888, Control_c, 13, 11, 122
13, 83888, Note_on_c, 13, 43, 106
13, 83911, Control_c, 13, 11, 120
13, 83935, Control_c, 13, 11, 118
13, 83959, Control_c, 13, 11, 116
13, 83983, Control_c, 13, 11, 114
13, 84007, Control_c, 13, 11, 112
13, 84031, Control_c, 13, 11, 110
13, 84055, Control_c, 13, 11, 108
13, 84079, Control_c, 13, 11, 106
13, 84103, Control_c, 13, 11, 104
13, 84127, Control_c, 13, 11, 102
13, 84248, Note_on_c, 13, 43, 0
13, 84248, Note_on_c, 13, 48, 106
13, 84473, Note_on_c, 13, 48, 0
13, 84488, Note_on_c, 13, 48, 106
13, 84548, Note_on_c, 13, 48, 0
13, 84608, Note_on_c, 13, 53, 106
13, 84608, Control_c, 13, 11, 122
13, 84631, Control_c, 13, 11, 120
13, 84655, Control_c, 13, 11, 118
13, 84679, Control_c, 13, 11, 116
13, 84703, Control_c, 13, 11, 114
13, 84727, Control_c, 13, 11, 112
13, 84751, Control_c, 13, 11, 110
13, 84775, Control_c, 13, 11, 108
13, 84799, Control_c, 13, 11, 106
13, 84823, Control_c, 13, 11, 104
13, 84847, Control_c, 13, 11, 102
13, 84968, Note_on_c, 13, 53, 0
13, 84968, Note_on_c, 13, 55, 106
13, 85193, Note_on_c, 13, 55, 0
13, 85208, Note_on_c, 13, 55, 106
13, 85268, Note_on_c, 13, 55, 0
13, 85328, Control_c, 13, 11, 122
13, 85328, Note_on_c, 13, 43, 106
13, 85351, Control_c, 13, 11, 120
13, 85375, Control_c, 13, 11, 118
13, 85399, Control_c, 13, 11, 116
13, 85423, Control_c, 13, 11, 114
13, 85447, Control_c, 13, 11, 112
13, 85471, Control_c, 13, 11, 110
13, 85495, Control_c, 13, 11, 108
13, 85519, Control_c, 13, 11, 106
13, 85543, Control_c, 13, 11, 104
13, 85567, Control_c, 13, 11, 102
13, 85688, Note_on_c, 13, 43, 0
13, 85688, Note_on_c, 13, 48, 106
13, 85748, Note_on_c, 13, 48, 0
13, 85808, Note_on_c, 13, 43, 106
13, 85808, Control_c, 13, 11, 122
13, 85831, Control_c, 13, 11, 120
13, 85855, Control_c, 13, 11, 118
13, 85879, Control_c, 13, 11, 116
13, 85903, Control_c, 13, 11, 114
13, 85927, Control_c, 13, 11, 112
13, 85951, Control_c, 13, 11, 110
13, 85975, Control_c, 13, 11, 108
13, 85999, Control_c, 13, 11, 106
13, 86023, Control_c, 13, 11, 104
13, 86033, Note_on_c, 13, 43, 0
13, 86047, Control_c, 13, 11, 102
13, 86048, Note_on_c, 13, 48, 106
13, 86108, Note_on_c, 13, 48, 0
13, 86168, Control_c, 13, 11, 122
13, 86168, Note_on_c, 13, 43, 106
13, 86191, Control_c, 13, 11, 120
13, 86215, Control_c, 13, 11, 118
13, 86239, Control_c, 13, 11, 116
13, 86263, Control_c, 13, 11, 114
13, 86287, Control_c, 13, 11, 112
13, 86311, Control_c, 13, 11, 110
13, 86335, Control_c, 13, 11, 108
13, 86359, Control_c, 13, 11, 106
13, 86383, Control_c, 13, 11, 104
13, 86393, Note_on_c, 13, 43, 0
13, 86407, Control_c, 13, 11, 102
13, 86408, Note_on_c, 13, 55, 106
13, 86408, Control_c, 13, 11, 122
13, 86431, Control_c, 13, 11, 120
13, 86455, Control_c, 13, 11, 118
13, 86479, Control_c, 13, 11, 116
13, 86503, Control_c, 13, 11, 114
13, 86513, Note_on_c, 13, 55, 0
13, 86527, Control_c, 13, 11, 112
13, 86528, Note_on_c, 13, 43, 106
13, 86551, Control_c, 13, 11, 110
13, 86575, Control_c, 13, 11, 108
13, 86599, Control_c, 13, 11, 106
13, 86623, Control_c, 13, 11, 104
13, 86633, Note_on_c, 13, 43, 0
13, 86647, Control_c, 13, 11, 102
13, 86648, Note_on_c, 13, 43, 106
13, 86753, Note_on_c, 13, 43, 0
13, 86768, Note_on_c, 13, 48, 106
13, 86888, Note_on_c, 13, 48, 0
13, 94328, Control_c, 13, 11, 47
13, 94328, Note_on_c, 13, 48, 106
13, 94354, Control_c, 13, 11, 49
13, 94380, Control_c, 13, 11, 51
13, 94406, Control_c, 13, 11, 53
13, 94432, Control_c, 13, 11, 55
13, 94458, Control_c, 13, 11, 57
13, 94485, Control_c, 13, 11, 59
13, 94511, Control_c, 13, 11, 61
13, 94517, Note_on_c, 13, 48, 0
13, 94537, Control_c, 13, 11, 63
13, 94563, Control_c, 13, 11, 65
13, 94568, Note_on_c, 13, 48, 106
13, 94589, Control_c, 13, 11, 67
13, 94616, Control_c, 13, 11, 69
13, 94642, Control_c, 13, 11, 71
13, 94658, Note_on_c, 13, 48, 0
13, 94668, Control_c, 13, 11, 73
13, 94688, Note_on_c, 13, 48, 106
13, 94694, Control_c, 13, 11, 75
13, 94720, Control_c, 13, 11, 77
13, 94746, Control_c, 13, 11, 79
13, 94773, Control_c, 13, 11, 81
13, 94799, Control_c, 13, 11, 83
13, 94825, Control_c, 13, 11, 85
13, 94851, Control_c, 13, 11, 87
13, 94877, Note_on_c, 13, 48, 0
13, 94877, Control_c, 13, 11, 89
13, 94904, Control_c, 13, 11, 91
13, 94928, Note_on_c, 13, 48, 106
13, 94930, Control_c, 13, 11, 93
13, 94956, Control_c, 13, 11, 95
13, 94982, Control_c, 13, 11, 97
13, 95008, Control_c, 13, 11, 99
13, 95018, Note_on_c, 13, 48, 0
13, 95034, Control_c, 13, 11, 101
13, 95048, Note_on_c, 13, 48, 106
13, 95239, Note_on_c, 13, 48, 0
13, 95288, Note_on_c, 13, 48, 106
13, 95348, Note_on_c, 13, 48, 0
13, 95408, Control_c, 13, 11, 122
13, 95408, Note_on_c, 13, 53, 106
13, 95431, Control_c, 13, 11, 120
13, 95455, Control_c, 13, 11, 118
13, 95479, Control_c, 13, 11, 116
13, 95503, Control_c, 13, 11, 114
13, 95527, Control_c, 13, 11, 112
13, 95551, Control_c, 13, 11, 110
13, 95575, Control_c, 13, 11, 108
13, 95599, Control_c, 13, 11, 106
13, 95623, Control_c, 13, 11, 104
13, 95647, Control_c, 13, 11, 102
13, 95768, Note_on_c, 13, 53, 0
13, 95768, Note_on_c, 13, 55, 106
13, 95993, Note_on_c, 13, 55, 0
13, 96008, Note_on_c, 13, 55, 106
13, 96068, Note_on_c, 13, 55, 0
13, 96128, Note_on_c, 13, 43, 106
13, 96128, Control_c, 13, 11, 122
13, 96151, Control_c, 13, 11, 120
13, 96175, Control_c, 13, 11, 118
13, 96199, Control_c, 13, 11, 116
13, 96223, Control_c, 13, 11, 114
13, 96247, Control_c, 13, 11, 112
13, 96271, Control_c, 13, 11, 110
13, 96295, Control_c, 13, 11, 108
13, 96319, Control_c, 13, 11, 106
13, 96343, Control_c, 13, 11, 104
13, 96367, Control_c, 13, 11, 102
13, 96488, Note_on_c, 13, 43, 0
13, 96488, Note_on_c, 13, 48, 106
13, 96713, Note_on_c, 13, 48, 0
13, 96728, Note_on_c, 13, 48, 106
13, 96788, Note_on_c, 13, 48, 0
13, 96848, Control_c, 13, 11, 122
13, 96848, Note_on_c, 13, 53, 106
13, 96871, Control_c, 13, 11, 120
13, 96895, Control_c, 13, 11, 118
13, 96919, Control_c, 13, 11, 116
13, 96943, Control_c, 13, 11, 114
13, 96967, Control_c, 13, 11, 112
13, 96991, Control_c, 13, 11, 110
13, 97015, Control_c, 13, 11, 108
13, 97039, Control_c, 13, 11, 106
13, 97063, Control_c, 13, 11, 104
13, 97087, Control_c, 13, 11, 102
13, 97208, Note_on_c, 13, 53, 0
13, 97208, Note_on_c, 13, 55, 106
13, 97433, Note_on_c, 13, 55, 0
13, 97448, Note_on_c, 13, 55, 106
13, 97508, Note_on_c, 13, 55, 0
13, 97568, Control_c, 13, 11, 122
13, 97568, Note_on_c, 13, 43, 106
13, 97591, Control_c, 13, 11, 120
13, 97615, Control_c, 13, 11, 118
13, 97639, Control_c, 13, 11, 116
13, 97663, Control_c, 13, 11, 114
13, 97687, Control_c, 13, 11, 112
13, 97711, Control_c, 13, 11, 110
13, 97735, Control_c, 13, 11, 108
13, 97759, Control_c, 13, 11, 106
13, 97783, Control_c, 13, 11, 104
13, 97807, Control_c, 13, 11, 102
13, 97928, Note_on_c, 13, 43, 0
13, 97928, Note_on_c, 13, 48, 106
13, 97988, Note_on_c, 13, 48, 0
13, 98048, Control_c, 13, 11, 122
13, 98048, Note_on_c, 13, 43, 106
13, 98071, Control_c, 13, 11, 120
13, 98095, Control_c, 13, 11, 118
13, 98119, Control_c, 13, 11, 116
13, 98143, Control_c, 13, 11, 114
13, 98167, Control_c, 13, 11, 112
13, 98191, Control_c, 13, 11, 110
13, 98215, Control_c, 13, 11, 108
13, 98239, Control_c, 13, 11, 106
13, 98263, Control_c, 13, 11, 104
13, 98273, Note_on_c, 13, 43, 0
13, 98287, Control_c, 13, 11, 102
13, 98288, Note_on_c, 13, 48, 106
13, 98348, Note_on_c, 13, 48, 0
13, 98408, Note_on_c, 13, 43, 106
13, 98408, Control_c, 13, 11, 122
13, 98431, Control_c, 13, 11, 120
13, 98455, Control_c, 13, 11, 118
13, 98479, Control_c, 13, 11, 116
13, 98503, Control_c, 13, 11, 114
13, 98527, Control_c, 13, 11, 112
13, 98551, Control_c, 13, 11, 110
13, 98575, Control_c, 13, 11, 108
13, 98599, Control_c, 13, 11, 106
13, 98623, Control_c, 13, 11, 104
13, 98633, Note_on_c, 13, 43, 0
13, 98647, Control_c, 13, 11, 102
13, 98648, Control_c, 13, 11, 122
13, 98648, Note_on_c, 13, 55, 106
13, 98671, Control_c, 13, 11, 120
13, 98695, Control_c, 13, 11, 118
13, 98719, Control_c, 13, 11, 116
13, 98743, Control_c, 13, 11, 114
13, 98753, Note_on_c, 13, 55, 0
13, 98767, Control_c, 13, 11, 112
13, 98768, Note_on_c, 13, 43, 106
13, 98791, Control_c, 13, 11, 110
13, 98815, Control_c, 13, 11, 108
13, 98839, Control_c, 13, 11, 106
13, 98863, Control_c, 13, 11, 104
13, 98873, Note_on_c, 13, 43, 0
13, 98887, Control_c, 13, 11, 102
13, 98888, Note_on_c, 13, 43, 106
13, 98993, Note_on_c, 13, 43, 0
13, 99008, Note_on_c, 13, 48, 106
13, 99128, Note_on_c, 13, 48, 0
13, 99248, Control_c, 13, 11, 37
13, 99296, Control_c, 13, 11, 38
13, 99344, Control_c, 13, 11, 39
13, 99368, Note_on_c, 13, 48, 106
13, 99392, Control_c, 13, 11, 40
13, 99428, Note_on_c, 13, 48, 0
13, 99440, Control_c, 13, 11, 41
13, 99488, Note_on_c, 13, 60, 106
13, 99488, Control_c, 13, 11, 42
13, 99536, Control_c, 13, 11, 43
13, 99548, Note_on_c, 13, 60, 0
13, 99584, Control_c, 13, 11, 44
13, 99608, Note_on_c, 13, 60, 106
13, 99632, Control_c, 13, 11, 45
13, 99668, Note_on_c, 13, 60, 0
13, 99680, Control_c, 13, 11, 46
13, 99728, Control_c, 13, 11, 47
13, 99728, Note_on_c, 13, 60, 106
13, 99788, Note_on_c, 13, 60, 0
13, 99848, Note_on_c, 13, 60, 106
13, 99908, Note_on_c, 13, 60, 0
13, 99968, Note_on_c, 13, 59, 106
13, 100028, Note_on_c, 13, 59, 0
13, 100088, Note_on_c, 13, 60, 106
13, 100148, Note_on_c, 13, 60, 0
13, 100208, Note_on_c, 13, 57, 106
13, 100268, Note_on_c, 13, 57, 0
13, 100328, Note_on_c, 13, 62, 106
13, 100388, Note_on_c, 13, 62, 0
13, 100448, Note_on_c, 13, 59, 106
13, 100508, Note_on_c, 13, 59, 0
13, 100568, Note_on_c, 13, 55, 106
13, 100628, Note_on_c, 13, 55, 0
13, 100688, Control_c, 13, 11, 47
13, 100688, Note_on_c, 13, 52, 106
13, 100706, Control_c, 13, 11, 48
13, 100724, Control_c, 13, 11, 49
13, 100742, Control_c, 13, 11, 50
13, 100748, Note_on_c, 13, 52, 0
13, 100760, Control_c, 13, 11, 51
13, 100778, Control_c, 13, 11, 52
13, 100796, Control_c, 13, 11, 53
13, 100808, Note_on_c, 13, 53, 106
13, 100814, Control_c, 13, 11, 54
13, 100832, Control_c, 13, 11, 55
13, 100850, Control_c, 13, 11, 56
13, 100868, Note_on_c, 13, 53, 0
13, 100868, Control_c, 13, 11, 57
13, 100886, Control_c, 13, 11, 58
13, 100904, Control_c, 13, 11, 59
13, 100922, Control_c, 13, 11, 60
13, 100928, Note_on_c, 13, 50, 106
13, 100940, Control_c, 13, 11, 61
13, 100958, Control_c, 13, 11, 62
13, 100976, Control_c, 13, 11, 63
13, 100988, Note_on_c, 13, 50, 0
13, 100994, Control_c, 13, 11, 64
13, 101012, Control_c, 13, 11, 65
13, 101030, Control_c, 13, 11, 66
13, 101048, Control_c, 13, 11, 67
13, 101048, Note_on_c, 13, 55, 106
13, 101066, Control_c, 13, 11, 68
13, 101084, Control_c, 13, 11, 69
13, 101102, Control_c, 13, 11, 70
13, 101108, Note_on_c, 13, 55, 0
13, 101120, Control_c, 13, 11, 71
13, 101138, Control_c, 13, 11, 72
13, 101156, Control_c, 13, 11, 73
13, 101168, Note_on_c, 13, 52, 106
13, 101174, Control_c, 13, 11, 74
13, 101192, Control_c, 13, 11, 75
13, 101210, Control_c, 13, 11, 76
13, 101228, Note_on_c, 13, 52, 0
13, 101228, Control_c, 13, 11, 77
13, 101246, Control_c, 13, 11, 78
13, 101264, Control_c, 13, 11, 79
13, 101282, Control_c, 13, 11, 80
13, 101288, Note_on_c, 13, 48, 106
13, 101300, Control_c, 13, 11, 81
13, 101318, Control_c, 13, 11, 82
13, 101336, Control_c, 13, 11, 83
13, 101348, Note_on_c, 13, 48, 0
13, 101354, Control_c, 13, 11, 84
13, 101372, Control_c, 13, 11, 85
13, 101390, Control_c, 13, 11, 86
13, 101408, Note_on_c, 13, 49, 106
13, 101408, Control_c, 13, 11, 87
13, 101468, Note_on_c, 13, 49, 0
13, 101528, Note_on_c, 13, 50, 106
13, 101588, Note_on_c, 13, 50, 0
13, 101648, Note_on_c, 13, 50, 106
13, 101708, Note_on_c, 13, 50, 0
13, 101768, Note_on_c, 13, 50, 106
13, 101828, Note_on_c, 13, 50, 0
13, 101888, Note_on_c, 13, 43, 106
13, 102008, Note_on_c, 13, 43, 0
13, 102128, Control_c, 13, 11, 37
13, 102176, Control_c, 13, 11, 38
13, 102224, Control_c, 13, 11, 39
13, 102248, Note_on_c, 13, 48, 106
13, 102272, Control_c, 13, 11, 40
13, 102308, Note_on_c, 13, 48, 0
13, 102320, Control_c, 13, 11, 41
13, 102368, Control_c, 13, 11, 42
13, 102368, Note_on_c, 13, 60, 106
13, 102416, Control_c, 13, 11, 43
13, 102428, Note_on_c, 13, 60, 0
13, 102464, Control_c, 13, 11, 44
13, 102488, Note_on_c, 13, 60, 106
13, 102512, Control_c, 13, 11, 45
13, 102548, Note_on_c, 13, 60, 0
13, 102560, Control_c, 13, 11, 46
13, 102608, Control_c, 13, 11, 47
13, 102608, Note_on_c, 13, 60, 106
13, 102668, Note_on_c, 13, 60, 0
13, 102728, Note_on_c, 13, 60, 106
13, 102788, Note_on_c, 13, 60, 0
13, 102848, Note_on_c, 13, 59, 106
13, 102908, Note_on_c, 13, 59, 0
13, 102968, Note_on_c, 13, 60, 106
13, 103028, Note_on_c, 13, 60, 0
13, 103088, Note_on_c, 13, 57, 106
13, 103148, Note_on_c, 13, 57, 0
13, 103208, Note_on_c, 13, 62, 106
13, 103268, Note_on_c, 13, 62, 0
13, 103328, Note_on_c, 13, 59, 106
13, 103388, Note_on_c, 13, 59, 0
13, 103448, Note_on_c, 13, 55, 106
13, 103508, Note_on_c, 13, 55, 0
13, 103568, Note_on_c, 13, 52, 106
13, 103568, Control_c, 13, 11, 47
13, 103586, Control_c, 13, 11, 48
13, 103604, Control_c, 13, 11, 49
13, 103622, Control_c, 13, 11, 50
13, 103628, Note_on_c, 13, 52, 0
13, 103640, Control_c, 13, 11, 51
13, 103658, Control_c, 13, 11, 52
13, 103676, Control_c, 13, 11, 53
13, 103688, Note_on_c, 13, 53, 106
13, 103694, Control_c, 13, 11, 54
13, 103712, Control_c, 13, 11, 55
13, 103730, Control_c, 13, 11, 56
13, 103748, Note_on_c, 13, 53, 0
13, 103748, Control_c, 13, 11, 57
13, 103766, Control_c, 13, 11, 58
13, 103784, Control_c, 13, 11, 59
13, 103802, Control_c, 13, 11, 60
13, 103808, Note_on_c, 13, 50, 106
13, 103820, Control_c, 13, 11, 61
13, 103838, Control_c, 13, 11, 62
13, 103856, Control_c, 13, 11, 63
13, 103868, Note_on_c, 13, 50, 0
13, 103874, Control_c, 13, 11, 64
13, 103892, Control_c, 13, 11, 65
13, 103910, Control_c, 13, 11, 66
13, 103928, Note_on_c, 13, 55, 106
13, 103928, Control_c, 13, 11, 67
13, 103946, Control_c, 13, 11, 68
13, 103964, Control_c, 13, 11, 69
13, 103982, Control_c, 13, 11, 70
13, 103988, Note_on_c, 13, 55, 0
13, 104000, Control_c, 13, 11, 71
13, 104018, Control_c, 13, 11, 72
13, 104036, Control_c, 13, 11, 73
13, 104048, Note_on_c, 13, 52, 106
13, 104054, Control_c, 13, 11, 74
13, 104072, Control_c, 13, 11, 75
13, 104090, Control_c, 13, 11, 76
13, 104108, Note_on_c, 13, 52, 0
13, 104108, Control_c, 13, 11, 77
13, 104126, Control_c, 13, 11, 78
13, 104144, Control_c, 13, 11, 79
13, 104162, Control_c, 13, 11, 80
13, 104168, Note_on_c, 13, 48, 106
13, 104180, Control_c, 13, 11, 81
13, 104198, Control_c, 13, 11, 82
13, 104216, Control_c, 13, 11, 83
13, 104228, Note_on_c, 13, 48, 0
13, 104234, Control_c, 13, 11, 84
13, 104252, Control_c, 13, 11, 85
13, 104270, Control_c, 13, 11, 86
13, 104288, Control_c, 13, 11, 87
13, 104288, Note_on_c, 13, 49, 106
13, 104348, Note_on_c, 13, 49, 0
13, 104408, Note_on_c, 13, 50, 106
13, 104468, Note_on_c, 13, 50, 0
13, 104528, Note_on_c, 13, 50, 106
13, 104588, Note_on_c, 13, 50, 0
13, 104648, Note_on_c, 13, 50, 106
13, 104708, Note_on_c, 13, 50, 0
13, 104768, Note_on_c, 13, 43, 106
13, 104888, Note_on_c, 13, 43, 0
13, 105248, Note_on_c, 13, 60, 106
13, 105248, Control_c, 13, 11, 47
13, 105368, Note_on_c, 13, 60, 0
13, 105368, Note_on_c, 13, 59, 106
13, 105488, Note_on_c, 13, 59, 0
13, 105608, Note_on_c, 13, 60, 106
13, 105728, Note_on_c, 13, 60, 0
13, 105728, Note_on_c, 13, 59, 106
13, 105848, Note_on_c, 13, 59, 0
13, 105968, Control_c, 13, 11, 87
13, 105968, Note_on_c, 13, 60, 106
13, 106028, Note_on_c, 13, 60, 0
13, 106088, Note_on_c, 13, 62, 106
13, 106148, Note_on_c, 13, 62, 0
13, 106208, Note_on_c, 13, 63, 106
13, 106268, Note_on_c, 13, 63, 0
13, 106328, Note_on_c, 13, 51, 106
13, 106448, Note_on_c, 13, 51, 0
13, 106688, Note_on_c, 13, 56, 106
13, 106688, Control_c, 13, 11, 47
13, 106808, Note_on_c, 13, 56, 0
13, 106808, Note_on_c, 13, 55, 106
13, 106928, Note_on_c, 13, 55, 0
13, 107048, Note_on_c, 13, 56, 106
13, 107168, Note_on_c, 13, 56, 0
13, 107168, Note_on_c, 13, 55, 106
13, 107288, Note_on_c, 13, 55, 0
13, 107408, Control_c, 13, 11, 87
13, 107408, Note_on_c, 13, 57, 106
13, 107468, Note_on_c, 13, 57, 0
13, 107528, Note_on_c, 13, 59, 106
13, 107588, Note_on_c, 13, 59, 0
13, 107648, Note_on_c, 13, 60, 106
13, 107708, Note_on_c, 13, 60, 0
13, 107768, Note_on_c, 13, 48, 106
13, 107888, Note_on_c, 13, 48, 0
13, 108128, Note_on_c, 13, 53, 106
13, 108188, Note_on_c, 13, 53, 0
13, 108248, Note_on_c, 13, 55, 106
13, 108308, Note_on_c, 13, 55, 0
13, 108368, Note_on_c, 13, 56, 106
13, 108428, Note_on_c, 13, 56, 0
13, 108488, Note_on_c, 13, 44, 106
13, 108608, Note_on_c, 13, 44, 0
13, 108848, Control_c, 13, 11, 102
13, 108848, Note_on_c, 13, 54, 106
13, 108908, Note_on_c, 13, 54, 0
13, 108968, Note_on_c, 13, 54, 106
13, 109028, Note_on_c, 13, 54, 0
13, 109088, Note_on_c, 13, 54, 106
13, 109148, Note_on_c, 13, 54, 0
13, 109208, Note_on_c, 13, 54, 106
13, 109268, Note_on_c, 13, 54, 0
13, 109328, Note_on_c, 13, 54, 106
13, 109388, Note_on_c, 13, 54, 0
13, 109448, Note_on_c, 13, 53, 106
13, 109448, Control_c, 13, 11, 122
13, 109465, Control_c, 13, 11, 119
13, 109483, Control_c, 13, 11, 116
13, 109501, Control_c, 13, 11, 113
13, 109519, Control_c, 13, 11, 110
13, 109537, Control_c, 13, 11, 107
13, 109555, Control_c, 13, 11, 104
13, 109568, Note_on_c, 13, 53, 0
13, 109808, Note_on_c, 13, 54, 106
13, 109808, Control_c, 13, 11, 122
13, 109825, Control_c, 13, 11, 119
13, 109843, Control_c, 13, 11, 116
13, 109861, Control_c, 13, 11, 113
13, 109879, Control_c, 13, 11, 110
13, 109897, Control_c, 13, 11, 107
13, 109915, Control_c, 13, 11, 104
13, 109928, Note_on_c, 13, 54, 0
13, 110168, Note_on_c, 13, 56, 106
13, 110168, Control_c, 13, 11, 122
13, 110185, Control_c, 13, 11, 119
13, 110203, Control_c, 13, 11, 116
13, 110221, Control_c, 13, 11, 113
13, 110239, Control_c, 13, 11, 110
13, 110257, Control_c, 13, 11, 107
13, 110275, Control_c, 13, 11, 104
13, 110288, Note_on_c, 13, 56, 0
13, 110528, Control_c, 13, 11, 122
13, 110528, Note_on_c, 13, 44, 106
13, 110545, Control_c, 13, 11, 119
13, 110563, Control_c, 13, 11, 116
13, 110581, Control_c, 13, 11, 113
13, 110599, Control_c, 13, 11, 110
13, 110617, Control_c, 13, 11, 107
13, 110635, Control_c, 13, 11, 104
13, 110648, Note_on_c, 13, 44, 0
13, 110888, Control_c, 13, 11, 87
13, 110888, Note_on_c, 13, 61, 91
13, 110906, Control_c, 13, 11, 84
13, 110924, Control_c, 13, 11, 81
13, 110942, Control_c, 13, 11, 78
13, 110960, Control_c, 13, 11, 75
13, 110978, Control_c, 13, 11, 72
13, 110996, Control_c, 13, 11, 69
13, 111014, Control_c, 13, 11, 66
13, 111032, Control_c, 13, 11, 63
13, 111050, Control_c, 13, 11, 60
13, 111068, Control_c, 13, 11, 57
13, 111086, Control_c, 13, 11, 54
13, 111104, Control_c, 13, 11, 51
13, 111122, Control_c, 13, 11, 48
13, 111128, Note_on_c, 13, 61, 0
13, 111128, Note_on_c, 13, 56, 106
13, 111248, Note_on_c, 13, 56, 0
13, 111248, Note_on_c, 13, 58, 106
13, 111488, Note_on_c, 13, 58, 0
13, 111488, Note_on_c, 13, 60, 106
13, 111588, Note_on_c, 13, 60, 0
13, 111608, Note_on_c, 13, 61, 106
13, 111848, Note_on_c, 13, 61, 0
13, 111848, Note_on_c, 13, 56, 106
13, 111968, Note_on_c, 13, 56, 0
13, 111968, Note_on_c, 13, 58, 106
13, 112208, Note_on_c, 13, 58, 0
13, 112208, Note_on_c, 13, 60, 106
13, 112308, Note_on_c, 13, 60, 0
13, 112328, Note_on_c, 13, 61, 106
13, 112568, Note_on_c, 13, 61, 0
13, 112568, Note_on_c, 13, 56, 106
13, 112688, Note_on_c, 13, 56, 0
13, 112688, Note_on_c, 13, 58, 106
13, 112928, Note_on_c, 13, 58, 0
13, 112928, Note_on_c, 13, 60, 106
13, 113028, Note_on_c, 13, 60, 0
13, 113048, Note_on_c, 13, 61, 106
13, 113288, Note_on_c, 13, 61, 0
13, 113288, Note_on_c, 13, 56, 106
13, 113408, Note_on_c, 13, 56, 0
13, 113408, Note_on_c, 13, 58, 106
13, 113648, Note_on_c, 13, 58, 0
13, 113648, Note_on_c, 13, 60, 106
13, 113748, Note_on_c, 13, 60, 0
13, 113768, Note_on_c, 13, 61, 106
13, 113888, Note_on_c, 13, 61, 0
13, 114368, Note_on_c, 13, 45, 91
13, 114368, Control_c, 13, 11, 37
13, 114488, Note_on_c, 13, 45, 0
13, 114488, Note_on_c, 13, 46, 106
13, 114848, Note_on_c, 13, 46, 0
13, 115808, Note_on_c, 13, 46, 91
13, 115928, Note_on_c, 13, 46, 0
13, 115928, Note_on_c, 13, 47, 106
13, 116288, Note_on_c, 13, 47, 0
13, 117248, Control_c, 13, 11, 62
13, 117248, Note_on_c, 13, 47, 91
13, 117276, Control_c, 13, 11, 63
13, 117305, Control_c, 13, 11, 64
13, 117334, Control_c, 13, 11, 65
13, 117363, Control_c, 13, 11, 66
13, 117368, Note_on_c, 13, 47, 0
13, 117368, Note_on_c, 13, 48, 106
13, 117392, Control_c, 13, 11, 67
13, 117420, Control_c, 13, 11, 68
13, 117449, Control_c, 13, 11, 69
13, 117478, Control_c, 13, 11, 70
13, 117507, Control_c, 13, 11, 71
13, 117536, Control_c, 13, 11, 72
13, 117564, Control_c, 13, 11, 73
13, 117593, Control_c, 13, 11, 74
13, 117622, Control_c, 13, 11, 75
13, 117651, Control_c, 13, 11, 76
13, 117680, Control_c, 13, 11, 77
13, 117708, Control_c, 13, 11, 78
13, 117737, Control_c, 13, 11, 79
13, 117766, Control_c, 13, 11, 80
13, 117795, Control_c, 13, 11, 81
13, 117824, Control_c, 13, 11, 82
13, 117852, Control_c, 13, 11, 83
13, 117881, Control_c, 13, 11, 84
13, 117910, Control_c, 13, 11, 85
13, 117939, Control_c, 13, 11, 86
13, 117948, Note_on_c, 13, 48, 0
13, 117968, Note_on_c, 13, 48, 106
13, 117968, Control_c, 13, 11, 87
13, 118028, Note_on_c, 13, 48, 0
13, 118088, Note_on_c, 13, 48, 106
13, 118148, Note_on_c, 13, 48, 0
13, 118208, Note_on_c, 13, 60, 106
13, 118268, Note_on_c, 13, 60, 0
13, 118328, Note_on_c, 13, 60, 106
13, 118388, Note_on_c, 13, 60, 0
13, 118448, Note_on_c, 13, 60, 106
13, 118508, Note_on_c, 13, 60, 0
13, 118568, Note_on_c, 13, 60, 106
13, 118628, Note_on_c, 13, 60, 0
13, 118688, Note_on_c, 13, 59, 106
13, 118748, Note_on_c, 13, 59, 0
13, 118808, Note_on_c, 13, 60, 106
13, 118868, Note_on_c, 13, 60, 0
13, 118928, Note_on_c, 13, 57, 106
13, 118988, Note_on_c, 13, 57, 0
13, 119048, Note_on_c, 13, 62, 106
13, 119108, Note_on_c, 13, 62, 0
13, 119168, Note_on_c, 13, 59, 106
13, 119228, Note_on_c, 13, 59, 0
13, 119288, Note_on_c, 13, 55, 106
13, 119348, Note_on_c, 13, 55, 0
13, 119408, Control_c, 13, 11, 102
13, 119408, Note_on_c, 13, 52, 106
13, 119468, Note_on_c, 13, 52, 0
13, 119528, Note_on_c, 13, 53, 106
13, 119588, Note_on_c, 13, 53, 0
13, 119648, Note_on_c, 13, 50, 106
13, 119708, Note_on_c, 13, 50, 0
13, 119768, Note_on_c, 13, 55, 106
13, 119828, Note_on_c, 13, 55, 0
13, 119888, Note_on_c, 13, 52, 106
13, 119948, Note_on_c, 13, 52, 0
13, 120008, Note_on_c, 13, 48, 106
13, 120068, Note_on_c, 13, 48, 0
13, 120128, Note_on_c, 13, 47, 106
13, 120188, Note_on_c, 13, 47, 0
13, 120248, Note_on_c, 13, 48, 106
13, 120308, Note_on_c, 13, 48, 0
13, 120368, Note_on_c, 13, 45, 106
13, 120428, Note_on_c, 13, 45, 0
13, 120488, Note_on_c, 13, 50, 106
13, 120548, Note_on_c, 13, 50, 0
13, 120608, Note_on_c, 13, 47, 106
13, 120608, Control_c, 13, 11, 122
13, 120625, Control_c, 13, 11, 119
13, 120643, Control_c, 13, 11, 116
13, 120661, Control_c, 13, 11, 113
13, 120668, Note_on_c, 13, 47, 0
13, 120679, Control_c, 13, 11, 110
13, 120697, Control_c, 13, 11, 107
13, 120715, Control_c, 13, 11, 104
13, 120728, Note_on_c, 13, 43, 106
13, 120788, Note_on_c, 13, 43, 0
13, 120848, Note_on_c, 13, 45, 106
13, 120908, Note_on_c, 13, 45, 0
13, 120968, Note_on_c, 13, 46, 106
13, 121028, Note_on_c, 13, 46, 0
13, 121088, Note_on_c, 13, 43, 106
13, 121148, Note_on_c, 13, 43, 0
13, 121208, Note_on_c, 13, 48, 106
13, 121268, Note_on_c, 13, 48, 0
13, 121328, Note_on_c, 13, 45, 106
13, 121328, Control_c, 13, 11, 122
13, 121345, Control_c, 13, 11, 119
13, 121363, Control_c, 13, 11, 116
13, 121381, Control_c, 13, 11, 113
13, 121388, Note_on_c, 13, 45, 0
13, 121399, Control_c, 13, 11, 110
13, 121417, Control_c, 13, 11, 107
13, 121435, Control_c, 13, 11, 104
13, 121448, Note_on_c, 13, 41, 106
13, 121508, Note_on_c, 13, 41, 0
13, 121568, Note_on_c, 13, 52, 106
13, 121628, Note_on_c, 13, 52, 0
13, 121688, Note_on_c, 13, 53, 106
13, 121748, Note_on_c, 13, 53, 0
13, 121808, Note_on_c, 13, 50, 106
13, 121868, Note_on_c, 13, 50, 0
13, 121928, Note_on_c, 13, 55, 106
13, 121988, Note_on_c, 13, 55, 0
13, 122048, Note_on_c, 13, 52, 106
13, 122048, Control_c, 13, 11, 122
13, 122065, Control_c, 13, 11, 119
13, 122083, Control_c, 13, 11, 116
13, 122101, Control_c, 13, 11, 113
13, 122108, Note_on_c, 13, 52, 0
13, 122119, Control_c, 13, 11, 110
13, 122137, Control_c, 13, 11, 107
13, 122155, Control_c, 13, 11, 104
13, 122168, Note_on_c, 13, 48, 106
13, 122228, Note_on_c, 13, 48, 0
13, 122288, Note_on_c, 13, 53, 106
13, 122348, Note_on_c, 13, 53, 0
13, 122408, Note_on_c, 13, 43, 106
13, 122468, Note_on_c, 13, 43, 0
13, 122528, Note_on_c, 13, 55, 106
13, 122588, Note_on_c, 13, 55, 0
13, 122648, Note_on_c, 13, 55, 106
13, 122708, Note_on_c, 13, 55, 0
13, 122768, Note_on_c, 13, 48, 106
13, 122828, Note_on_c, 13, 48, 0
13, 122888, Note_on_c, 13, 60, 106
13, 122948, Note_on_c, 13, 60, 0
13, 123008, Note_on_c, 13, 60, 86
13, 123068, Note_on_c, 13, 60, 0
13, 123128, Control_c, 13, 11, 122
13, 123128, Note_on_c, 13, 60, 86
13, 123151, Control_c, 13, 11, 120
13, 123175, Control_c, 13, 11, 118
13, 123188, Note_on_c, 13, 60, 0
13, 123199, Control_c, 13, 11, 116
13, 123223, Control_c, 13, 11, 114
13, 123247, Control_c, 13, 11, 112
13, 123248, Note_on_c, 13, 60, 86
13, 123271, Control_c, 13, 11, 110
13, 123295, Control_c, 13, 11, 108
13, 123308, Note_on_c, 13, 60, 0
13, 123319, Control_c, 13, 11, 106
13, 123343, Control_c, 13, 11, 104
13, 123367, Control_c, 13, 11, 102
13, 123368, Note_on_c, 13, 60, 86
13, 123428, Note_on_c, 13, 60, 0
13, 123488, Note_on_c, 13, 48, 86
13, 123548, Note_on_c, 13, 48, 0
13, 123608, Note_on_c, 13, 60, 86
13, 123668, Note_on_c, 13, 60, 0
13, 123728, Note_on_c, 13, 60, 86
13, 123788, Note_on_c, 13, 60, 0
13, 123848, Control_c, 13, 11, 122
13, 123848, Note_on_c, 13, 60, 86
13, 123871, Control_c, 13, 11, 120
13, 123895, Control_c, 13, 11, 118
13, 123908, Note_on_c, 13, 60, 0
13, 123919, Control_c, 13, 11, 116
13, 123943, Control_c, 13, 11, 114
13, 123967, Control_c, 13, 11, 112
13, 123968, Note_on_c, 13, 60, 86
13, 123991, Control_c, 13, 11, 110
13, 124015, Control_c, 13, 11, 108
13, 124028, Note_on_c, 13, 60, 0
13, 124039, Control_c, 13, 11, 106
13, 124063, Control_c, 13, 11, 104
13, 124087, Control_c, 13, 11, 102
13, 124088, Note_on_c, 13, 60, 86
13, 124148, Note_on_c, 13, 60, 0
13, 124208, Note_on_c, 13, 48, 86
13, 124308, Note_on_c, 13, 48, 0
13, 124328, Control_c, 13, 11, 122
13, 124328, Note_on_c, 13, 60, 86
13, 124345, Control_c, 13, 11, 119
13, 124363, Control_c, 13, 11, 116
13, 124381, Control_c, 13, 11, 113
13, 124399, Control_c, 13, 11, 110
13, 124417, Control_c, 13, 11, 107
13, 124435, Control_c, 13, 11, 104
13, 124548, Note_on_c, 13, 60, 0
13, 124568, Note_on_c, 13, 48, 86
13, 124668, Note_on_c, 13, 48, 0
13, 124688, Note_on_c, 13, 60, 86
13, 124688, Control_c, 13, 11, 122
13, 124705, Control_c, 13, 11, 119
13, 124723, Control_c, 13, 11, 116
13, 124741, Control_c, 13, 11, 113
13, 124759, Control_c, 13, 11, 110
13, 124777, Control_c, 13, 11, 107
13, 124795, Control_c, 13, 11, 104
13, 124908, Note_on_c, 13, 60, 0
13, 124928, Note_on_c, 13, 48, 86
13, 125028, Note_on_c, 13, 48, 0
13, 125048, Note_on_c, 13, 60, 86
13, 125048, Control_c, 13, 11, 122
13, 125065, Control_c, 13, 11, 119
13, 125083, Control_c, 13, 11, 116
13, 125101, Control_c, 13, 11, 113
13, 125119, Control_c, 13, 11, 110
13, 125137, Control_c, 13, 11, 107
13, 125155, Control_c, 13, 11, 104
13, 125268, Note_on_c, 13, 60, 0
13, 125288, Note_on_c, 13, 48, 86
13, 125388, Note_on_c, 13, 48, 0
13, 125408, Control_c, 13, 11, 122
13, 125408, Note_on_c, 13, 60, 86
13, 125425, Control_c, 13, 11, 119
13, 125443, Control_c, 13, 11, 116
13, 125461, Control_c, 13, 11, 113
13, 125479, Control_c, 13, 11, 110
13, 125497, Control_c, 13, 11, 107
13, 125515, Control_c, 13, 11, 104
13, 125531, Control_c, 13, 11, 101
13, 125541, Control_c, 13, 11, 98
13, 125551, Control_c, 13, 11, 95
13, 125562, Control_c, 13, 11, 92
13, 125572, Control_c, 13, 11, 89
13, 125582, Control_c, 13, 11, 86
13, 125592, Control_c, 13, 11, 83
13, 125602, Control_c, 13, 11, 80
13, 125613, Control_c, 13, 11, 77
13, 125623, Control_c, 13, 11, 74
13, 125628, Note_on_c, 13, 60, 0
13, 125633, Control_c, 13, 11, 71
13, 125643, Control_c, 13, 11, 68
13, 125648, Note_on_c, 13, 48, 106
13, 125648, Control_c, 13, 11, 47
13, 125768, Note_on_c, 13, 48, 0
13, 126008, Note_on_c, 13, 55, 106
13, 126128, Note_on_c, 13, 55, 0
13, 126368, Note_on_c, 13, 60, 106
13, 126488, Note_on_c, 13, 60, 0
13, 126728, Note_on_c, 13, 55, 106
13, 126848, Note_on_c, 13, 55, 0
13, 127088, Note_on_c, 13, 48, 106
13, 127088, Control_c, 13, 11, 47
13, 127124, Control_c, 13, 11, 48
13, 127160, Control_c, 13, 11, 49
13, 127196, Control_c, 13, 11, 50
13, 127208, Note_on_c, 13, 48, 0
13, 127232, Control_c, 13, 11, 51
13, 127268, Control_c, 13, 11, 52
13, 127304, Control_c, 13, 11, 53
13, 127340, Control_c, 13, 11, 54
13, 127376, Control_c, 13, 11, 55
13, 127412, Control_c, 13, 11, 56
13, 127448, Note_on_c, 13, 43, 106
13, 127448, Control_c, 13, 11, 57
13, 127484, Control_c, 13, 11, 58
13, 127520, Control_c, 13, 11, 59
13, 127556, Control_c, 13, 11, 60
13, 127568, Note_on_c, 13, 43, 0
13, 127592, Control_c, 13, 11, 61
13, 127628, Control_c, 13, 11, 62
13, 127664, Control_c, 13, 11, 63
13, 127700, Control_c, 13, 11, 64
13, 127736, Control_c, 13, 11, 65
13, 127772, Control_c, 13, 11, 66
13, 127808, Note_on_c, 13, 48, 106
13, 127808, Control_c, 13, 11, 67
13, 127844, Control_c, 13, 11, 68
13, 127880, Control_c, 13, 11, 69
13, 127916, Control_c, 13, 11, 70
13, 127928, Note_on_c, 13, 48, 0
13, 127952, Control_c, 13, 11, 71
13, 127988, Control_c, 13, 11, 72
13, 128024, Control_c, 13, 11, 73
13, 128060, Control_c, 13, 11, 74
13, 128096, Control_c, 13, 11, 75
13, 128132, Control_c, 13, 11, 76
13, 128168, Control_c, 13, 11, 77
13, 128168, Note_on_c, 13, 55, 106
13, 128204, Control_c, 13, 11, 78
13, 128240, Control_c, 13, 11, 79
13, 128276, Control_c, 13, 11, 80
13, 128288, Note_on_c, 13, 55, 0
13, 128312, Control_c, 13, 11, 81
13, 128348, Control_c, 13, 11, 82
13, 128384, Control_c, 13, 11, 83
13, 128420, Control_c, 13, 11, 84
13, 128456, Control_c, 13, 11, 85
13, 128492, Control_c, 13, 11, 86
13, 128528, Note_on_c, 13, 48, 106
13, 128528, Control_c, 13, 11, 87
13, 128648, Note_on_c, 13, 48, 0
13, 128888, Note_on_c, 13, 43, 106
13, 129008, Note_on_c, 13, 43, 0
13, 129248, Control_c, 13, 11, 102
13, 129248, Note_on_c, 13, 48, 106
13, 129368, Note_on_c, 13, 48, 0
13, 129608, Note_on_c, 13, 55, 106
13, 129668, Note_on_c, 13, 55, 0
13, 129728, Note_on_c, 13, 55, 106
13, 129788, Note_on_c, 13, 55, 0
13, 129848, Note_on_c, 13, 55, 106
13, 129908, Note_on_c, 13, 55, 0
13, 129968, Note_on_c, 13, 60, 106
13, 130028, Note_on_c, 13, 60, 0
13, 130088, Note_on_c, 13, 55, 106
13, 130148, Note_on_c, 13, 55, 0
13, 130208, Note_on_c, 13, 52, 106
13, 130268, Note_on_c, 13, 52, 0
13, 130328, Note_on_c, 13, 48, 106
13, 130388, Note_on_c, 13, 48, 0
13, 130688, Control_c, 13, 121, 0
13, 130688, End_track
14, 0, Start_track
14, 0, MIDI_port, 0
14, 0, Title_t, "Contrabasse"
14, 0, Program_c, 14, 48
14, 0, Control_c, 14, 10, 127
14, 11, Control_c, 14, 121, 0
14, 16, Program_c, 14, 48
14, 21, Pitch_bend_c, 14, 8492
14, 26, Control_c, 14, 11, 47
14, 31, Control_c, 14, 7, 127
14, 36, Control_c, 14, 91, 75
14, 41, Control_c, 14, 93, 0
14, 46, Control_c, 14, 10, 127
14, 51, Control_c, 14, 1, 36
14, 611, Control_c, 14, 11, 37
14, 659, Control_c, 14, 11, 38
14, 707, Control_c, 14, 11, 39
14, 731, Note_on_c, 14, 36, 104
14, 755, Control_c, 14, 11, 40
14, 791, Note_on_c, 14, 36, 0
14, 803, Control_c, 14, 11, 41
14, 851, Note_on_c, 14, 48, 104
14, 851, Control_c, 14, 11, 42
14, 899, Control_c, 14, 11, 43
14, 911, Note_on_c, 14, 48, 0
14, 947, Control_c, 14, 11, 44
14, 971, Note_on_c, 14, 48, 104
14, 995, Control_c, 14, 11, 45
14, 1031, Note_on_c, 14, 48, 0
14, 1043, Control_c, 14, 11, 46
14, 1091, Control_c, 14, 11, 47
14, 1091, Note_on_c, 14, 48, 104
14, 1151, Note_on_c, 14, 48, 0
14, 1211, Note_on_c, 14, 48, 104
14, 1271, Note_on_c, 14, 48, 0
14, 1331, Note_on_c, 14, 47, 104
14, 1391, Note_on_c, 14, 47, 0
14, 1451, Note_on_c, 14, 48, 104
14, 1511, Note_on_c, 14, 48, 0
14, 1571, Note_on_c, 14, 45, 104
14, 1631, Note_on_c, 14, 45, 0
14, 1691, Note_on_c, 14, 50, 104
14, 1751, Note_on_c, 14, 50, 0
14, 1811, Note_on_c, 14, 47, 104
14, 1871, Note_on_c, 14, 47, 0
14, 1931, Note_on_c, 14, 43, 104
14, 1991, Note_on_c, 14, 43, 0
14, 2051, Control_c, 14, 11, 47
14, 2051, Note_on_c, 14, 40, 104
14, 2069, Control_c, 14, 11, 48
14, 2087, Control_c, 14, 11, 49
14, 2105, Control_c, 14, 11, 50
14, 2111, Note_on_c, 14, 40, 0
14, 2123, Control_c, 14, 11, 51
14, 2141, Control_c, 14, 11, 52
14, 2159, Control_c, 14, 11, 53
14, 2171, Note_on_c, 14, 41, 104
14, 2177, Control_c, 14, 11, 54
14, 2195, Control_c, 14, 11, 55
14, 2213, Control_c, 14, 11, 56
14, 2231, Note_on_c, 14, 41, 0
14, 2231, Control_c, 14, 11, 57
14, 2249, Control_c, 14, 11, 58
14, 2267, Control_c, 14, 11, 59
14, 2285, Control_c, 14, 11, 60
14, 2291, Note_on_c, 14, 38, 104
14, 2303, Control_c, 14, 11, 61
14, 2321, Control_c, 14, 11, 62
14, 2339, Control_c, 14, 11, 63
14, 2351, Note_on_c, 14, 38, 0
14, 2357, Control_c, 14, 11, 64
14, 2375, Control_c, 14, 11, 65
14, 2393, Control_c, 14, 11, 66
14, 2411, Control_c, 14, 11, 67
14, 2411, Note_on_c, 14, 43, 104
14, 2429, Control_c, 14, 11, 68
14, 2447, Control_c, 14, 11, 69
14, 2465, Control_c, 14, 11, 70
14, 2471, Note_on_c, 14, 43, 0
14, 2483, Control_c, 14, 11, 71
14, 2501, Control_c, 14, 11, 72
14, 2519, Control_c, 14, 11, 73
14, 2531, Note_on_c, 14, 40, 104
14, 2537, Control_c, 14, 11, 74
14, 2555, Control_c, 14, 11, 75
14, 2573, Control_c, 14, 11, 76
14, 2591, Note_on_c, 14, 40, 0
14, 2591, Control_c, 14, 11, 77
14, 2609, Control_c, 14, 11, 78
14, 2627, Control_c, 14, 11, 79
14, 2645, Control_c, 14, 11, 80
14, 2651, Note_on_c, 14, 36, 104
14, 2663, Control_c, 14, 11, 81
14, 2681, Control_c, 14, 11, 82
14, 2699, Control_c, 14, 11, 83
14, 2711, Note_on_c, 14, 36, 0
14, 2717, Control_c, 14, 11, 84
14, 2735, Control_c, 14, 11, 85
14, 2753, Control_c, 14, 11, 86
14, 2771, Control_c, 14, 11, 87
14, 2771, Note_on_c, 14, 37, 104
14, 2831, Note_on_c, 14, 37, 0
14, 2891, Note_on_c, 14, 38, 104
14, 2951, Note_on_c, 14, 38, 0
14, 3011, Note_on_c, 14, 38, 104
14, 3071, Note_on_c, 14, 38, 0
14, 3131, Note_on_c, 14, 38, 104
14, 3191, Note_on_c, 14, 38, 0
14, 3251, Note_on_c, 14, 31, 104
14, 3371, Note_on_c, 14, 31, 0
14, 3491, Control_c, 14, 11, 37
14, 3539, Control_c, 14, 11, 38
14, 3587, Control_c, 14, 11, 39
14, 3611, Note_on_c, 14, 36, 104
14, 3635, Control_c, 14, 11, 40
14, 3671, Note_on_c, 14, 36, 0
14, 3683, Control_c, 14, 11, 41
14, 3731, Note_on_c, 14, 48, 104
14, 3731, Control_c, 14, 11, 42
14, 3779, Control_c, 14, 11, 43
14, 3791, Note_on_c, 14, 48, 0
14, 3827, Control_c, 14, 11, 44
14, 3851, Note_on_c, 14, 48, 104
14, 3875, Control_c, 14, 11, 45
14, 3911, Note_on_c, 14, 48, 0
14, 3923, Control_c, 14, 11, 46
14, 3971, Note_on_c, 14, 48, 104
14, 3971, Control_c, 14, 11, 47
14, 4031, Note_on_c, 14, 48, 0
14, 4091, Note_on_c, 14, 48, 104
14, 4151, Note_on_c, 14, 48, 0
14, 4211, Note_on_c, 14, 47, 104
14, 4271, Note_on_c, 14, 47, 0
14, 4331, Note_on_c, 14, 48, 104
14, 4391, Note_on_c, 14, 48, 0
14, 4451, Note_on_c, 14, 45, 104
14, 4511, Note_on_c, 14, 45, 0
14, 4571, Note_on_c, 14, 50, 104
14, 4631, Note_on_c, 14, 50, 0
14, 4691, Note_on_c, 14, 47, 104
14, 4751, Note_on_c, 14, 47, 0
14, 4811, Note_on_c, 14, 43, 104
14, 4871, Note_on_c, 14, 43, 0
14, 4931, Control_c, 14, 11, 47
14, 4931, Note_on_c, 14, 40, 104
14, 4949, Control_c, 14, 11, 48
14, 4967, Control_c, 14, 11, 49
14, 4985, Control_c, 14, 11, 50
14, 4991, Note_on_c, 14, 40, 0
14, 5003, Control_c, 14, 11, 51
14, 5021, Control_c, 14, 11, 52
14, 5039, Control_c, 14, 11, 53
14, 5051, Note_on_c, 14, 41, 104
14, 5057, Control_c, 14, 11, 54
14, 5075, Control_c, 14, 11, 55
14, 5093, Control_c, 14, 11, 56
14, 5111, Note_on_c, 14, 41, 0
14, 5111, Control_c, 14, 11, 57
14, 5129, Control_c, 14, 11, 58
14, 5147, Control_c, 14, 11, 59
14, 5165, Control_c, 14, 11, 60
14, 5171, Note_on_c, 14, 38, 104
14, 5183, Control_c, 14, 11, 61
14, 5201, Control_c, 14, 11, 62
14, 5219, Control_c, 14, 11, 63
14, 5231, Note_on_c, 14, 38, 0
14, 5237, Control_c, 14, 11, 64
14, 5255, Control_c, 14, 11, 65
14, 5273, Control_c, 14, 11, 66
14, 5291, Control_c, 14, 11, 67
14, 5291, Note_on_c, 14, 43, 104
14, 5309, Control_c, 14, 11, 68
14, 5327, Control_c, 14, 11, 69
14, 5345, Control_c, 14, 11, 70
14, 5351, Note_on_c, 14, 43, 0
14, 5363, Control_c, 14, 11, 71
14, 5381, Control_c, 14, 11, 72
14, 5399, Control_c, 14, 11, 73
14, 5411, Note_on_c, 14, 40, 104
14, 5417, Control_c, 14, 11, 74
14, 5435, Control_c, 14, 11, 75
14, 5453, Control_c, 14, 11, 76
14, 5471, Note_on_c, 14, 40, 0
14, 5471, Control_c, 14, 11, 77
14, 5489, Control_c, 14, 11, 78
14, 5507, Control_c, 14, 11, 79
14, 5525, Control_c, 14, 11, 80
14, 5531, Note_on_c, 14, 36, 104
14, 5543, Control_c, 14, 11, 81
14, 5561, Control_c, 14, 11, 82
14, 5579, Control_c, 14, 11, 83
14, 5591, Note_on_c, 14, 36, 0
14, 5597, Control_c, 14, 11, 84
14, 5615, Control_c, 14, 11, 85
14, 5633, Control_c, 14, 11, 86
14, 5651, Control_c, 14, 11, 87
14, 5651, Note_on_c, 14, 37, 104
14, 5711, Note_on_c, 14, 37, 0
14, 5771, Note_on_c, 14, 38, 104
14, 5831, Note_on_c, 14, 38, 0
14, 5891, Note_on_c, 14, 38, 104
14, 5951, Note_on_c, 14, 38, 0
14, 6011, Note_on_c, 14, 38, 104
14, 6071, Note_on_c, 14, 38, 0
14, 6131, Note_on_c, 14, 31, 104
14, 6251, Note_on_c, 14, 31, 0
14, 7331, Control_c, 14, 11, 87
14, 7331, Note_on_c, 14, 48, 104
14, 7391, Note_on_c, 14, 48, 0
14, 7451, Note_on_c, 14, 50, 104
14, 7511, Note_on_c, 14, 50, 0
14, 7571, Note_on_c, 14, 51, 104
14, 7631, Note_on_c, 14, 51, 0
14, 7691, Note_on_c, 14, 39, 104
14, 7811, Note_on_c, 14, 39, 0
14, 8771, Control_c, 14, 11, 87
14, 8771, Note_on_c, 14, 45, 104
14, 8831, Note_on_c, 14, 45, 0
14, 8891, Note_on_c, 14, 47, 104
14, 8951, Note_on_c, 14, 47, 0
14, 9011, Note_on_c, 14, 48, 104
14, 9071, Note_on_c, 14, 48, 0
14, 9131, Note_on_c, 14, 36, 104
14, 9251, Note_on_c, 14, 36, 0
14, 9491, Note_on_c, 14, 41, 104
14, 9551, Note_on_c, 14, 41, 0
14, 9611, Note_on_c, 14, 43, 104
14, 9671, Note_on_c, 14, 43, 0
14, 9731, Note_on_c, 14, 44, 104
14, 9791, Note_on_c, 14, 44, 0
14, 9851, Note_on_c, 14, 32, 104
14, 9971, Note_on_c, 14, 32, 0
14, 10211, Note_on_c, 14, 42, 104
14, 10211, Control_c, 14, 11, 102
14, 10271, Note_on_c, 14, 42, 0
14, 10331, Note_on_c, 14, 42, 104
14, 10391, Note_on_c, 14, 42, 0
14, 10451, Note_on_c, 14, 42, 104
14, 10511, Note_on_c, 14, 42, 0
14, 10571, Note_on_c, 14, 42, 104
14, 10631, Note_on_c, 14, 42, 0
14, 10691, Note_on_c, 14, 42, 104
14, 10751, Note_on_c, 14, 42, 0
14, 10811, Note_on_c, 14, 41, 104
14, 10811, Control_c, 14, 11, 122
14, 10828, Control_c, 14, 11, 119
14, 10846, Control_c, 14, 11, 116
14, 10864, Control_c, 14, 11, 113
14, 10882, Control_c, 14, 11, 110
14, 10900, Control_c, 14, 11, 107
14, 10918, Control_c, 14, 11, 104
14, 10931, Note_on_c, 14, 41, 0
14, 11171, Control_c, 14, 11, 122
14, 11171, Note_on_c, 14, 42, 104
14, 11188, Control_c, 14, 11, 119
14, 11206, Control_c, 14, 11, 116
14, 11224, Control_c, 14, 11, 113
14, 11242, Control_c, 14, 11, 110
14, 11260, Control_c, 14, 11, 107
14, 11278, Control_c, 14, 11, 104
14, 11291, Note_on_c, 14, 42, 0
14, 11531, Control_c, 14, 11, 122
14, 11531, Note_on_c, 14, 44, 104
14, 11548, Control_c, 14, 11, 119
14, 11566, Control_c, 14, 11, 116
14, 11584, Control_c, 14, 11, 113
14, 11602, Control_c, 14, 11, 110
14, 11620, Control_c, 14, 11, 107
14, 11638, Control_c, 14, 11, 104
14, 11651, Note_on_c, 14, 44, 0
14, 11891, Note_on_c, 14, 32, 104
14, 11891, Control_c, 14, 11, 122
14, 11908, Control_c, 14, 11, 119
14, 11926, Control_c, 14, 11, 116
14, 11944, Control_c, 14, 11, 113
14, 11962, Control_c, 14, 11, 110
14, 11980, Control_c, 14, 11, 107
14, 11998, Control_c, 14, 11, 104
14, 12011, Note_on_c, 14, 32, 0
14, 12251, Control_c, 14, 11, 87
14, 12251, Note_on_c, 14, 37, 104
14, 12269, Control_c, 14, 11, 84
14, 12287, Control_c, 14, 11, 81
14, 12305, Control_c, 14, 11, 78
14, 12323, Control_c, 14, 11, 75
14, 12341, Control_c, 14, 11, 72
14, 12359, Control_c, 14, 11, 69
14, 12377, Control_c, 14, 11, 66
14, 12395, Control_c, 14, 11, 63
14, 12413, Control_c, 14, 11, 60
14, 12431, Control_c, 14, 11, 57
14, 12449, Control_c, 14, 11, 54
14, 12467, Control_c, 14, 11, 51
14, 12485, Control_c, 14, 11, 48
14, 13671, Note_on_c, 14, 37, 0
14, 13691, Note_on_c, 14, 37, 104
14, 15251, Note_on_c, 14, 37, 0
14, 15731, Control_c, 14, 11, 37
14, 15731, Note_on_c, 14, 33, 89
14, 15851, Note_on_c, 14, 33, 0
14, 15851, Note_on_c, 14, 34, 104
14, 16211, Note_on_c, 14, 34, 0
14, 17171, Note_on_c, 14, 34, 89
14, 17291, Note_on_c, 14, 34, 0
14, 17291, Note_on_c, 14, 35, 104
14, 17651, Note_on_c, 14, 35, 0
14, 18611, Control_c, 14, 11, 62
14, 18611, Note_on_c, 14, 35, 89
14, 18639, Control_c, 14, 11, 63
14, 18668, Control_c, 14, 11, 64
14, 18697, Control_c, 14, 11, 65
14, 18726, Control_c, 14, 11, 66
14, 18731, Note_on_c, 14, 35, 0
14, 18731, Note_on_c, 14, 36, 104
14, 18755, Control_c, 14, 11, 67
14, 18783, Control_c, 14, 11, 68
14, 18812, Control_c, 14, 11, 69
14, 18841, Control_c, 14, 11, 70
14, 18870, Control_c, 14, 11, 71
14, 18899, Control_c, 14, 11, 72
14, 18927, Control_c, 14, 11, 73
14, 18956, Control_c, 14, 11, 74
14, 18985, Control_c, 14, 11, 75
14, 19014, Control_c, 14, 11, 76
14, 19043, Control_c, 14, 11, 77
14, 19071, Control_c, 14, 11, 78
14, 19100, Control_c, 14, 11, 79
14, 19129, Control_c, 14, 11, 80
14, 19158, Control_c, 14, 11, 81
14, 19187, Control_c, 14, 11, 82
14, 19215, Control_c, 14, 11, 83
14, 19244, Control_c, 14, 11, 84
14, 19273, Control_c, 14, 11, 85
14, 19302, Control_c, 14, 11, 86
14, 19311, Note_on_c, 14, 36, 0
14, 19331, Note_on_c, 14, 36, 104
14, 19331, Control_c, 14, 11, 87
14, 19391, Note_on_c, 14, 36, 0
14, 19451, Note_on_c, 14, 36, 104
14, 19511, Note_on_c, 14, 36, 0
14, 19571, Note_on_c, 14, 48, 104
14, 19631, Note_on_c, 14, 48, 0
14, 19691, Note_on_c, 14, 48, 104
14, 19751, Note_on_c, 14, 48, 0
14, 19811, Note_on_c, 14, 48, 104
14, 19871, Note_on_c, 14, 48, 0
14, 19931, Note_on_c, 14, 48, 104
14, 19991, Note_on_c, 14, 48, 0
14, 20051, Note_on_c, 14, 47, 104
14, 20111, Note_on_c, 14, 47, 0
14, 20171, Note_on_c, 14, 48, 104
14, 20231, Note_on_c, 14, 48, 0
14, 20291, Note_on_c, 14, 45, 104
14, 20351, Note_on_c, 14, 45, 0
14, 20411, Note_on_c, 14, 50, 104
14, 20471, Note_on_c, 14, 50, 0
14, 20531, Note_on_c, 14, 47, 104
14, 20591, Note_on_c, 14, 47, 0
14, 20651, Note_on_c, 14, 43, 104
14, 20711, Note_on_c, 14, 43, 0
14, 20771, Note_on_c, 14, 40, 104
14, 20771, Control_c, 14, 11, 102
14, 20831, Note_on_c, 14, 40, 0
14, 20891, Note_on_c, 14, 41, 104
14, 20951, Note_on_c, 14, 41, 0
14, 21011, Note_on_c, 14, 38, 104
14, 21071, Note_on_c, 14, 38, 0
14, 21131, Note_on_c, 14, 43, 104
14, 21191, Note_on_c, 14, 43, 0
14, 21251, Note_on_c, 14, 40, 104
14, 21311, Note_on_c, 14, 40, 0
14, 21371, Note_on_c, 14, 36, 104
14, 21431, Note_on_c, 14, 36, 0
14, 21491, Note_on_c, 14, 35, 104
14, 21551, Note_on_c, 14, 35, 0
14, 21611, Note_on_c, 14, 36, 104
14, 21671, Note_on_c, 14, 36, 0
14, 21731, Note_on_c, 14, 33, 104
14, 21791, Note_on_c, 14, 33, 0
14, 21851, Note_on_c, 14, 38, 104
14, 21911, Note_on_c, 14, 38, 0
14, 21971, Note_on_c, 14, 35, 104
14, 21971, Control_c, 14, 11, 122
14, 21988, Control_c, 14, 11, 119
14, 22006, Control_c, 14, 11, 116
14, 22024, Control_c, 14, 11, 113
14, 22031, Note_on_c, 14, 35, 0
14, 22042, Control_c, 14, 11, 110
14, 22060, Control_c, 14, 11, 107
14, 22078, Control_c, 14, 11, 104
14, 22091, Note_on_c, 14, 31, 104
14, 22151, Note_on_c, 14, 31, 0
14, 22211, Note_on_c, 14, 33, 104
14, 22271, Note_on_c, 14, 33, 0
14, 22331, Note_on_c, 14, 34, 104
14, 22391, Note_on_c, 14, 34, 0
14, 22451, Note_on_c, 14, 31, 104
14, 22511, Note_on_c, 14, 31, 0
14, 22571, Note_on_c, 14, 36, 104
14, 22631, Note_on_c, 14, 36, 0
14, 22691, Control_c, 14, 11, 122
14, 22691, Note_on_c, 14, 33, 104
14, 22708, Control_c, 14, 11, 119
14, 22726, Control_c, 14, 11, 116
14, 22744, Control_c, 14, 11, 113
14, 22751, Note_on_c, 14, 33, 0
14, 22762, Control_c, 14, 11, 110
14, 22780, Control_c, 14, 11, 107
14, 22798, Control_c, 14, 11, 104
14, 22811, Note_on_c, 14, 29, 104
14, 22871, Note_on_c, 14, 29, 0
14, 22931, Note_on_c, 14, 40, 104
14, 22991, Note_on_c, 14, 40, 0
14, 23051, Note_on_c, 14, 41, 104
14, 23111, Note_on_c, 14, 41, 0
14, 23171, Note_on_c, 14, 38, 104
14, 23231, Note_on_c, 14, 38, 0
14, 23291, Note_on_c, 14, 43, 104
14, 23351, Note_on_c, 14, 43, 0
14, 23411, Note_on_c, 14, 40, 104
14, 23411, Control_c, 14, 11, 122
14, 23428, Control_c, 14, 11, 119
14, 23446, Control_c, 14, 11, 116
14, 23464, Control_c, 14, 11, 113
14, 23471, Note_on_c, 14, 40, 0
14, 23482, Control_c, 14, 11, 110
14, 23500, Control_c, 14, 11, 107
14, 23518, Control_c, 14, 11, 104
14, 23531, Note_on_c, 14, 36, 104
14, 23591, Note_on_c, 14, 36, 0
14, 23651, Note_on_c, 14, 41, 104
14, 23711, Note_on_c, 14, 41, 0
14, 23771, Note_on_c, 14, 31, 104
14, 23831, Note_on_c, 14, 31, 0
14, 23891, Note_on_c, 14, 43, 104
14, 23951, Note_on_c, 14, 43, 0
14, 24011, Note_on_c, 14, 43, 104
14, 24071, Note_on_c, 14, 43, 0
14, 24131, Note_on_c, 14, 36, 104
14, 24191, Note_on_c, 14, 36, 0
14, 24251, Note_on_c, 14, 48, 104
14, 24311, Note_on_c, 14, 48, 0
14, 24371, Note_on_c, 14, 48, 84
14, 24431, Note_on_c, 14, 48, 0
14, 24491, Note_on_c, 14, 48, 84
14, 24491, Control_c, 14, 11, 122
14, 24514, Control_c, 14, 11, 120
14, 24538, Control_c, 14, 11, 118
14, 24551, Note_on_c, 14, 48, 0
14, 24562, Control_c, 14, 11, 116
14, 24586, Control_c, 14, 11, 114
14, 24610, Control_c, 14, 11, 112
14, 24611, Note_on_c, 14, 48, 84
14, 24634, Control_c, 14, 11, 110
14, 24658, Control_c, 14, 11, 108
14, 24671, Note_on_c, 14, 48, 0
14, 24682, Control_c, 14, 11, 106
14, 24706, Control_c, 14, 11, 104
14, 24730, Control_c, 14, 11, 102
14, 24731, Note_on_c, 14, 48, 84
14, 24791, Note_on_c, 14, 48, 0
14, 24851, Note_on_c, 14, 36, 84
14, 24911, Note_on_c, 14, 36, 0
14, 24971, Note_on_c, 14, 48, 84
14, 25031, Note_on_c, 14, 48, 0
14, 25091, Note_on_c, 14, 48, 84
14, 25151, Note_on_c, 14, 48, 0
14, 25211, Control_c, 14, 11, 122
14, 25211, Note_on_c, 14, 48, 84
14, 25234, Control_c, 14, 11, 120
14, 25258, Control_c, 14, 11, 118
14, 25271, Note_on_c, 14, 48, 0
14, 25282, Control_c, 14, 11, 116
14, 25306, Control_c, 14, 11, 114
14, 25330, Control_c, 14, 11, 112
14, 25331, Note_on_c, 14, 48, 84
14, 25354, Control_c, 14, 11, 110
14, 25378, Control_c, 14, 11, 108
14, 25391, Note_on_c, 14, 48, 0
14, 25402, Control_c, 14, 11, 106
14, 25426, Control_c, 14, 11, 104
14, 25450, Control_c, 14, 11, 102
14, 25451, Note_on_c, 14, 48, 84
14, 25511, Note_on_c, 14, 48, 0
14, 25571, Note_on_c, 14, 36, 84
14, 25671, Note_on_c, 14, 36, 0
14, 25691, Note_on_c, 14, 48, 84
14, 25691, Control_c, 14, 11, 122
14, 25708, Control_c, 14, 11, 119
14, 25726, Control_c, 14, 11, 116
14, 25744, Control_c, 14, 11, 113
14, 25762, Control_c, 14, 11, 110
14, 25780, Control_c, 14, 11, 107
14, 25798, Control_c, 14, 11, 104
14, 25911, Note_on_c, 14, 48, 0
14, 25931, Note_on_c, 14, 36, 84
14, 26031, Note_on_c, 14, 36, 0
14, 26051, Note_on_c, 14, 48, 84
14, 26051, Control_c, 14, 11, 122
14, 26068, Control_c, 14, 11, 119
14, 26086, Control_c, 14, 11, 116
14, 26104, Control_c, 14, 11, 113
14, 26122, Control_c, 14, 11, 110
14, 26140, Control_c, 14, 11, 107
14, 26158, Control_c, 14, 11, 104
14, 26271, Note_on_c, 14, 48, 0
14, 26291, Note_on_c, 14, 36, 84
14, 26391, Note_on_c, 14, 36, 0
14, 26411, Note_on_c, 14, 48, 84
14, 26411, Control_c, 14, 11, 122
14, 26428, Control_c, 14, 11, 119
14, 26446, Control_c, 14, 11, 116
14, 26464, Control_c, 14, 11, 113
14, 26482, Control_c, 14, 11, 110
14, 26500, Control_c, 14, 11, 107
14, 26518, Control_c, 14, 11, 104
14, 26631, Note_on_c, 14, 48, 0
14, 26651, Note_on_c, 14, 36, 84
14, 26751, Note_on_c, 14, 36, 0
14, 26771, Note_on_c, 14, 48, 84
14, 26771, Control_c, 14, 11, 122
14, 26788, Control_c, 14, 11, 119
14, 26806, Control_c, 14, 11, 116
14, 26824, Control_c, 14, 11, 113
14, 26842, Control_c, 14, 11, 110
14, 26860, Control_c, 14, 11, 107
14, 26878, Control_c, 14, 11, 104
14, 26894, Control_c, 14, 11, 101
14, 26904, Control_c, 14, 11, 98
14, 26914, Control_c, 14, 11, 95
14, 26925, Control_c, 14, 11, 92
14, 26935, Control_c, 14, 11, 89
14, 26945, Control_c, 14, 11, 86
14, 26955, Control_c, 14, 11, 83
14, 26965, Control_c, 14, 11, 80
14, 26976, Control_c, 14, 11, 77
14, 26986, Control_c, 14, 11, 74
14, 26991, Note_on_c, 14, 48, 0
14, 26996, Control_c, 14, 11, 71
14, 27006, Control_c, 14, 11, 68
14, 27011, Note_on_c, 14, 36, 104
14, 27011, Control_c, 14, 11, 47
14, 27131, Note_on_c, 14, 36, 0
14, 27371, Note_on_c, 14, 43, 104
14, 27491, Note_on_c, 14, 43, 0
14, 27731, Note_on_c, 14, 48, 104
14, 27851, Note_on_c, 14, 48, 0
14, 28091, Note_on_c, 14, 43, 104
14, 28211, Note_on_c, 14, 43, 0
14, 28451, Note_on_c, 14, 36, 104
14, 28451, Control_c, 14, 11, 47
14, 28487, Control_c, 14, 11, 48
14, 28523, Control_c, 14, 11, 49
14, 28559, Control_c, 14, 11, 50
14, 28571, Note_on_c, 14, 36, 0
14, 28595, Control_c, 14, 11, 51
14, 28631, Control_c, 14, 11, 52
14, 28667, Control_c, 14, 11, 53
14, 28703, Control_c, 14, 11, 54
14, 28739, Control_c, 14, 11, 55
14, 28775, Control_c, 14, 11, 56
14, 28811, Note_on_c, 14, 31, 104
14, 28811, Control_c, 14, 11, 57
14, 28847, Control_c, 14, 11, 58
14, 28883, Control_c, 14, 11, 59
14, 28919, Control_c, 14, 11, 60
14, 28931, Note_on_c, 14, 31, 0
14, 28955, Control_c, 14, 11, 61
14, 28991, Control_c, 14, 11, 62
14, 29027, Control_c, 14, 11, 63
14, 29063, Control_c, 14, 11, 64
14, 29099, Control_c, 14, 11, 65
14, 29135, Control_c, 14, 11, 66
14, 29171, Control_c, 14, 11, 67
14, 29171, Note_on_c, 14, 36, 104
14, 29207, Control_c, 14, 11, 68
14, 29243, Control_c, 14, 11, 69
14, 29279, Control_c, 14, 11, 70
14, 29291, Note_on_c, 14, 36, 0
14, 29315, Control_c, 14, 11, 71
14, 29351, Control_c, 14, 11, 72
14, 29387, Control_c, 14, 11, 73
14, 29423, Control_c, 14, 11, 74
14, 29459, Control_c, 14, 11, 75
14, 29495, Control_c, 14, 11, 76
14, 29531, Control_c, 14, 11, 77
14, 29531, Note_on_c, 14, 43, 104
14, 29567, Control_c, 14, 11, 78
14, 29603, Control_c, 14, 11, 79
14, 29639, Control_c, 14, 11, 80
14, 29651, Note_on_c, 14, 43, 0
14, 29675, Control_c, 14, 11, 81
14, 29711, Control_c, 14, 11, 82
14, 29747, Control_c, 14, 11, 83
14, 29783, Control_c, 14, 11, 84
14, 29819, Control_c, 14, 11, 85
14, 29855, Control_c, 14, 11, 86
14, 29891, Note_on_c, 14, 36, 104
14, 29891, Control_c, 14, 11, 87
14, 30011, Note_on_c, 14, 36, 0
14, 30251, Note_on_c, 14, 31, 104
14, 30371, Note_on_c, 14, 31, 0
14, 30611, Note_on_c, 14, 36, 104
14, 30611, Control_c, 14, 11, 102
14, 30731, Note_on_c, 14, 36, 0
14, 30971, Note_on_c, 14, 43, 104
14, 31031, Note_on_c, 14, 43, 0
14, 31091, Note_on_c, 14, 43, 104
14, 31151, Note_on_c, 14, 43, 0
14, 31211, Note_on_c, 14, 43, 104
14, 31271, Note_on_c, 14, 43, 0
14, 31331, Note_on_c, 14, 48, 104
14, 31391, Note_on_c, 14, 48, 0
14, 31451, Note_on_c, 14, 43, 104
14, 31511, Note_on_c, 14, 43, 0
14, 31571, Note_on_c, 14, 40, 104
14, 31631, Note_on_c, 14, 40, 0
14, 31691, Note_on_c, 14, 36, 104
14, 31751, Note_on_c, 14, 36, 0
14, 32891, Control_c, 14, 11, 87
14, 32891, Note_on_c, 14, 48, 104
14, 32951, Note_on_c, 14, 48, 0
14, 33011, Note_on_c, 14, 50, 104
14, 33071, Note_on_c, 14, 50, 0
14, 33131, Note_on_c, 14, 51, 104
14, 33191, Note_on_c, 14, 51, 0
14, 33251, Note_on_c, 14, 39, 104
14, 33371, Note_on_c, 14, 39, 0
14, 34331, Control_c, 14, 11, 87
14, 34331, Note_on_c, 14, 45, 104
14, 34391, Note_on_c, 14, 45, 0
14, 34451, Note_on_c, 14, 47, 104
14, 34511, Note_on_c, 14, 47, 0
14, 34571, Note_on_c, 14, 48, 104
14, 34631, Note_on_c, 14, 48, 0
14, 34691, Note_on_c, 14, 36, 104
14, 34811, Note_on_c, 14, 36, 0
14, 35051, Note_on_c, 14, 41, 104
14, 35111, Note_on_c, 14, 41, 0
14, 35171, Note_on_c, 14, 43, 104
14, 35231, Note_on_c, 14, 43, 0
14, 35291, Note_on_c, 14, 44, 104
14, 35351, Note_on_c, 14, 44, 0
14, 35411, Note_on_c, 14, 32, 104
14, 35531, Note_on_c, 14, 32, 0
14, 35771, Note_on_c, 14, 42, 104
14, 35771, Control_c, 14, 11, 102
14, 35831, Note_on_c, 14, 42, 0
14, 35891, Note_on_c, 14, 42, 104
14, 35951, Note_on_c, 14, 42, 0
14, 36011, Note_on_c, 14, 42, 104
14, 36071, Note_on_c, 14, 42, 0
14, 36131, Note_on_c, 14, 42, 104
14, 36191, Note_on_c, 14, 42, 0
14, 36251, Note_on_c, 14, 42, 104
14, 36311, Note_on_c, 14, 42, 0
14, 36371, Note_on_c, 14, 41, 104
14, 36371, Control_c, 14, 11, 122
14, 36388, Control_c, 14, 11, 119
14, 36406, Control_c, 14, 11, 116
14, 36424, Control_c, 14, 11, 113
14, 36442, Control_c, 14, 11, 110
14, 36460, Control_c, 14, 11, 107
14, 36478, Control_c, 14, 11, 104
14, 36491, Note_on_c, 14, 41, 0
14, 36731, Control_c, 14, 11, 122
14, 36731, Note_on_c, 14, 42, 104
14, 36748, Control_c, 14, 11, 119
14, 36766, Control_c, 14, 11, 116
14, 36784, Control_c, 14, 11, 113
14, 36802, Control_c, 14, 11, 110
14, 36820, Control_c, 14, 11, 107
14, 36838, Control_c, 14, 11, 104
14, 36851, Note_on_c, 14, 42, 0
14, 37091, Note_on_c, 14, 44, 104
14, 37091, Control_c, 14, 11, 122
14, 37108, Control_c, 14, 11, 119
14, 37126, Control_c, 14, 11, 116
14, 37144, Control_c, 14, 11, 113
14, 37162, Control_c, 14, 11, 110
14, 37180, Control_c, 14, 11, 107
14, 37198, Control_c, 14, 11, 104
14, 37211, Note_on_c, 14, 44, 0
14, 37451, Control_c, 14, 11, 122
14, 37451, Note_on_c, 14, 32, 104
14, 37468, Control_c, 14, 11, 119
14, 37486, Control_c, 14, 11, 116
14, 37504, Control_c, 14, 11, 113
14, 37522, Control_c, 14, 11, 110
14, 37540, Control_c, 14, 11, 107
14, 37558, Control_c, 14, 11, 104
14, 37571, Note_on_c, 14, 32, 0
14, 37811, Note_on_c, 14, 37, 104
14, 37811, Control_c, 14, 11, 87
14, 37829, Control_c, 14, 11, 84
14, 37847, Control_c, 14, 11, 81
14, 37865, Control_c, 14, 11, 78
14, 37883, Control_c, 14, 11, 75
14, 37901, Control_c, 14, 11, 72
14, 37919, Control_c, 14, 11, 69
14, 37937, Control_c, 14, 11, 66
14, 37955, Control_c, 14, 11, 63
14, 37973, Control_c, 14, 11, 60
14, 37991, Control_c, 14, 11, 57
14, 38009, Control_c, 14, 11, 54
14, 38027, Control_c, 14, 11, 51
14, 38045, Control_c, 14, 11, 48
14, 39231, Note_on_c, 14, 37, 0
14, 39251, Note_on_c, 14, 37, 104
14, 40811, Note_on_c, 14, 37, 0
14, 41291, Note_on_c, 14, 33, 89
14, 41291, Control_c, 14, 11, 37
14, 41411, Note_on_c, 14, 33, 0
14, 41411, Note_on_c, 14, 34, 104
14, 41771, Note_on_c, 14, 34, 0
14, 42731, Note_on_c, 14, 34, 89
14, 42851, Note_on_c, 14, 34, 0
14, 42851, Note_on_c, 14, 35, 104
14, 43211, Note_on_c, 14, 35, 0
14, 44171, Note_on_c, 14, 35, 89
14, 44171, Control_c, 14, 11, 62
14, 44199, Control_c, 14, 11, 63
14, 44228, Control_c, 14, 11, 64
14, 44257, Control_c, 14, 11, 65
14, 44286, Control_c, 14, 11, 66
14, 44291, Note_on_c, 14, 35, 0
14, 44291, Note_on_c, 14, 36, 104
14, 44315, Control_c, 14, 11, 67
14, 44343, Control_c, 14, 11, 68
14, 44372, Control_c, 14, 11, 69
14, 44401, Control_c, 14, 11, 70
14, 44430, Control_c, 14, 11, 71
14, 44459, Control_c, 14, 11, 72
14, 44487, Control_c, 14, 11, 73
14, 44516, Control_c, 14, 11, 74
14, 44545, Control_c, 14, 11, 75
14, 44574, Control_c, 14, 11, 76
14, 44603, Control_c, 14, 11, 77
14, 44631, Control_c, 14, 11, 78
14, 44660, Control_c, 14, 11, 79
14, 44689, Control_c, 14, 11, 80
14, 44718, Control_c, 14, 11, 81
14, 44747, Control_c, 14, 11, 82
14, 44775, Control_c, 14, 11, 83
14, 44804, Control_c, 14, 11, 84
14, 44833, Control_c, 14, 11, 85
14, 44862, Control_c, 14, 11, 86
14, 44871, Note_on_c, 14, 36, 0
14, 44891, Control_c, 14, 11, 87
14, 44891, Note_on_c, 14, 36, 104
14, 44951, Note_on_c, 14, 36, 0
14, 45011, Note_on_c, 14, 36, 104
14, 45071, Note_on_c, 14, 36, 0
14, 45131, Note_on_c, 14, 48, 104
14, 45191, Note_on_c, 14, 48, 0
14, 45251, Note_on_c, 14, 48, 104
14, 45311, Note_on_c, 14, 48, 0
14, 45371, Note_on_c, 14, 48, 104
14, 45431, Note_on_c, 14, 48, 0
14, 45491, Note_on_c, 14, 48, 104
14, 45551, Note_on_c, 14, 48, 0
14, 45611, Note_on_c, 14, 47, 104
14, 45671, Note_on_c, 14, 47, 0
14, 45731, Note_on_c, 14, 48, 104
14, 45791, Note_on_c, 14, 48, 0
14, 45851, Note_on_c, 14, 45, 104
14, 45911, Note_on_c, 14, 45, 0
14, 45971, Note_on_c, 14, 50, 104
14, 46031, Note_on_c, 14, 50, 0
14, 46091, Note_on_c, 14, 47, 104
14, 46151, Note_on_c, 14, 47, 0
14, 46211, Note_on_c, 14, 43, 104
14, 46271, Note_on_c, 14, 43, 0
14, 46331, Note_on_c, 14, 40, 104
14, 46331, Control_c, 14, 11, 102
14, 46391, Note_on_c, 14, 40, 0
14, 46451, Note_on_c, 14, 41, 104
14, 46511, Note_on_c, 14, 41, 0
14, 46571, Note_on_c, 14, 38, 104
14, 46631, Note_on_c, 14, 38, 0
14, 46691, Note_on_c, 14, 43, 104
14, 46751, Note_on_c, 14, 43, 0
14, 46811, Note_on_c, 14, 40, 104
14, 46871, Note_on_c, 14, 40, 0
14, 46931, Note_on_c, 14, 36, 104
14, 46991, Note_on_c, 14, 36, 0
14, 47051, Note_on_c, 14, 35, 104
14, 47111, Note_on_c, 14, 35, 0
14, 47171, Note_on_c, 14, 36, 104
14, 47231, Note_on_c, 14, 36, 0
14, 47291, Note_on_c, 14, 33, 104
14, 47351, Note_on_c, 14, 33, 0
14, 47411, Note_on_c, 14, 38, 104
14, 47471, Note_on_c, 14, 38, 0
14, 47531, Note_on_c, 14, 35, 104
14, 47531, Control_c, 14, 11, 122
14, 47548, Control_c, 14, 11, 119
14, 47566, Control_c, 14, 11, 116
14, 47584, Control_c, 14, 11, 113
14, 47591, Note_on_c, 14, 35, 0
14, 47602, Control_c, 14, 11, 110
14, 47620, Control_c, 14, 11, 107
14, 47638, Control_c, 14, 11, 104
14, 47651, Note_on_c, 14, 31, 104
14, 47711, Note_on_c, 14, 31, 0
14, 47771, Note_on_c, 14, 33, 104
14, 47831, Note_on_c, 14, 33, 0
14, 47891, Note_on_c, 14, 34, 104
14, 47951, Note_on_c, 14, 34, 0
14, 48011, Note_on_c, 14, 31, 104
14, 48071, Note_on_c, 14, 31, 0
14, 48131, Note_on_c, 14, 36, 104
14, 48191, Note_on_c, 14, 36, 0
14, 48251, Control_c, 14, 11, 122
14, 48251, Note_on_c, 14, 33, 104
14, 48268, Control_c, 14, 11, 119
14, 48286, Control_c, 14, 11, 116
14, 48304, Control_c, 14, 11, 113
14, 48311, Note_on_c, 14, 33, 0
14, 48322, Control_c, 14, 11, 110
14, 48340, Control_c, 14, 11, 107
14, 48358, Control_c, 14, 11, 104
14, 48371, Note_on_c, 14, 29, 104
14, 48431, Note_on_c, 14, 29, 0
14, 48491, Note_on_c, 14, 40, 104
14, 48551, Note_on_c, 14, 40, 0
14, 48611, Note_on_c, 14, 41, 104
14, 48671, Note_on_c, 14, 41, 0
14, 48731, Note_on_c, 14, 38, 104
14, 48791, Note_on_c, 14, 38, 0
14, 48851, Note_on_c, 14, 43, 104
14, 48911, Note_on_c, 14, 43, 0
14, 48971, Note_on_c, 14, 40, 104
14, 48971, Control_c, 14, 11, 122
14, 48988, Control_c, 14, 11, 119
14, 49006, Control_c, 14, 11, 116
14, 49024, Control_c, 14, 11, 113
14, 49031, Note_on_c, 14, 40, 0
14, 49042, Control_c, 14, 11, 110
14, 49060, Control_c, 14, 11, 107
14, 49078, Control_c, 14, 11, 104
14, 49091, Note_on_c, 14, 36, 104
14, 49151, Note_on_c, 14, 36, 0
14, 49211, Note_on_c, 14, 41, 104
14, 49271, Note_on_c, 14, 41, 0
14, 49331, Note_on_c, 14, 31, 104
14, 49391, Note_on_c, 14, 31, 0
14, 49451, Note_on_c, 14, 43, 104
14, 49511, Note_on_c, 14, 43, 0
14, 49571, Note_on_c, 14, 43, 104
14, 49631, Note_on_c, 14, 43, 0
14, 49691, Note_on_c, 14, 36, 104
14, 49751, Note_on_c, 14, 36, 0
14, 49811, Note_on_c, 14, 48, 104
14, 49871, Note_on_c, 14, 48, 0
14, 49931, Note_on_c, 14, 48, 84
14, 49991, Note_on_c, 14, 48, 0
14, 50051, Note_on_c, 14, 48, 84
14, 50051, Control_c, 14, 11, 122
14, 50074, Control_c, 14, 11, 120
14, 50098, Control_c, 14, 11, 118
14, 50111, Note_on_c, 14, 48, 0
14, 50122, Control_c, 14, 11, 116
14, 50146, Control_c, 14, 11, 114
14, 50170, Control_c, 14, 11, 112
14, 50171, Note_on_c, 14, 48, 84
14, 50194, Control_c, 14, 11, 110
14, 50218, Control_c, 14, 11, 108
14, 50231, Note_on_c, 14, 48, 0
14, 50242, Control_c, 14, 11, 106
14, 50266, Control_c, 14, 11, 104
14, 50290, Control_c, 14, 11, 102
14, 50291, Note_on_c, 14, 48, 84
14, 50351, Note_on_c, 14, 48, 0
14, 50411, Note_on_c, 14, 36, 84
14, 50471, Note_on_c, 14, 36, 0
14, 50531, Note_on_c, 14, 48, 84
14, 50591, Note_on_c, 14, 48, 0
14, 50651, Note_on_c, 14, 48, 84
14, 50711, Note_on_c, 14, 48, 0
14, 50771, Control_c, 14, 11, 122
14, 50771, Note_on_c, 14, 48, 84
14, 50794, Control_c, 14, 11, 120
14, 50818, Control_c, 14, 11, 118
14, 50831, Note_on_c, 14, 48, 0
14, 50842, Control_c, 14, 11, 116
14, 50866, Control_c, 14, 11, 114
14, 50890, Control_c, 14, 11, 112
14, 50891, Note_on_c, 14, 48, 84
14, 50914, Control_c, 14, 11, 110
14, 50938, Control_c, 14, 11, 108
14, 50951, Note_on_c, 14, 48, 0
14, 50962, Control_c, 14, 11, 106
14, 50986, Control_c, 14, 11, 104
14, 51010, Control_c, 14, 11, 102
14, 51011, Note_on_c, 14, 48, 84
14, 51071, Note_on_c, 14, 48, 0
14, 51131, Note_on_c, 14, 36, 84
14, 51231, Note_on_c, 14, 36, 0
14, 51251, Note_on_c, 14, 48, 84
14, 51251, Control_c, 14, 11, 122
14, 51268, Control_c, 14, 11, 119
14, 51286, Control_c, 14, 11, 116
14, 51304, Control_c, 14, 11, 113
14, 51322, Control_c, 14, 11, 110
14, 51340, Control_c, 14, 11, 107
14, 51358, Control_c, 14, 11, 104
14, 51471, Note_on_c, 14, 48, 0
14, 51491, Note_on_c, 14, 36, 84
14, 51591, Note_on_c, 14, 36, 0
14, 51611, Note_on_c, 14, 48, 84
14, 51611, Control_c, 14, 11, 122
14, 51628, Control_c, 14, 11, 119
14, 51646, Control_c, 14, 11, 116
14, 51664, Control_c, 14, 11, 113
14, 51682, Control_c, 14, 11, 110
14, 51700, Control_c, 14, 11, 107
14, 51718, Control_c, 14, 11, 104
14, 51831, Note_on_c, 14, 48, 0
14, 51851, Note_on_c, 14, 36, 84
14, 51951, Note_on_c, 14, 36, 0
14, 51971, Note_on_c, 14, 48, 84
14, 51971, Control_c, 14, 11, 122
14, 51988, Control_c, 14, 11, 119
14, 52006, Control_c, 14, 11, 116
14, 52024, Control_c, 14, 11, 113
14, 52042, Control_c, 14, 11, 110
14, 52060, Control_c, 14, 11, 107
14, 52078, Control_c, 14, 11, 104
14, 52191, Note_on_c, 14, 48, 0
14, 52211, Note_on_c, 14, 36, 84
14, 52311, Note_on_c, 14, 36, 0
14, 52331, Note_on_c, 14, 48, 84
14, 52331, Control_c, 14, 11, 122
14, 52348, Control_c, 14, 11, 119
14, 52366, Control_c, 14, 11, 116
14, 52384, Control_c, 14, 11, 113
14, 52402, Control_c, 14, 11, 110
14, 52420, Control_c, 14, 11, 107
14, 52438, Control_c, 14, 11, 104
14, 52454, Control_c, 14, 11, 101
14, 52464, Control_c, 14, 11, 98
14, 52474, Control_c, 14, 11, 95
14, 52485, Control_c, 14, 11, 92
14, 52495, Control_c, 14, 11, 89
14, 52505, Control_c, 14, 11, 86
14, 52515, Control_c, 14, 11, 83
14, 52525, Control_c, 14, 11, 80
14, 52536, Control_c, 14, 11, 77
14, 52546, Control_c, 14, 11, 74
14, 52551, Note_on_c, 14, 48, 0
14, 52556, Control_c, 14, 11, 71
14, 52566, Control_c, 14, 11, 68
14, 52571, Note_on_c, 14, 36, 104
14, 52571, Control_c, 14, 11, 47
14, 52691, Note_on_c, 14, 36, 0
14, 52931, Note_on_c, 14, 43, 104
14, 53051, Note_on_c, 14, 43, 0
14, 53291, Note_on_c, 14, 48, 104
14, 53411, Note_on_c, 14, 48, 0
14, 53651, Note_on_c, 14, 43, 104
14, 53771, Note_on_c, 14, 43, 0
14, 54011, Note_on_c, 14, 36, 104
14, 54011, Control_c, 14, 11, 47
14, 54047, Control_c, 14, 11, 48
14, 54083, Control_c, 14, 11, 49
14, 54119, Control_c, 14, 11, 50
14, 54131, Note_on_c, 14, 36, 0
14, 54155, Control_c, 14, 11, 51
14, 54191, Control_c, 14, 11, 52
14, 54227, Control_c, 14, 11, 53
14, 54263, Control_c, 14, 11, 54
14, 54299, Control_c, 14, 11, 55
14, 54335, Control_c, 14, 11, 56
14, 54371, Control_c, 14, 11, 57
14, 54371, Note_on_c, 14, 31, 104
14, 54407, Control_c, 14, 11, 58
14, 54443, Control_c, 14, 11, 59
14, 54479, Control_c, 14, 11, 60
14, 54491, Note_on_c, 14, 31, 0
14, 54515, Control_c, 14, 11, 61
14, 54551, Control_c, 14, 11, 62
14, 54587, Control_c, 14, 11, 63
14, 54623, Control_c, 14, 11, 64
14, 54659, Control_c, 14, 11, 65
14, 54695, Control_c, 14, 11, 66
14, 54731, Control_c, 14, 11, 67
14, 54731, Note_on_c, 14, 36, 104
14, 54767, Control_c, 14, 11, 68
14, 54803, Control_c, 14, 11, 69
14, 54839, Control_c, 14, 11, 70
14, 54851, Note_on_c, 14, 36, 0
14, 54875, Control_c, 14, 11, 71
14, 54911, Control_c, 14, 11, 72
14, 54947, Control_c, 14, 11, 73
14, 54983, Control_c, 14, 11, 74
14, 55019, Control_c, 14, 11, 75
14, 55055, Control_c, 14, 11, 76
14, 55091, Note_on_c, 14, 43, 104
14, 55091, Control_c, 14, 11, 77
14, 55127, Control_c, 14, 11, 78
14, 55163, Control_c, 14, 11, 79
14, 55199, Control_c, 14, 11, 80
14, 55211, Note_on_c, 14, 43, 0
14, 55235, Control_c, 14, 11, 81
14, 55271, Control_c, 14, 11, 82
14, 55307, Control_c, 14, 11, 83
14, 55343, Control_c, 14, 11, 84
14, 55379, Control_c, 14, 11, 85
14, 55415, Control_c, 14, 11, 86
14, 55451, Note_on_c, 14, 36, 104
14, 55451, Control_c, 14, 11, 87
14, 55571, Note_on_c, 14, 36, 0
14, 55811, Note_on_c, 14, 31, 104
14, 55931, Note_on_c, 14, 31, 0
14, 56171, Control_c, 14, 11, 102
14, 56171, Note_on_c, 14, 36, 104
14, 56291, Note_on_c, 14, 36, 0
14, 56531, Note_on_c, 14, 43, 104
14, 56591, Note_on_c, 14, 43, 0
14, 56651, Note_on_c, 14, 43, 104
14, 56711, Note_on_c, 14, 43, 0
14, 56771, Note_on_c, 14, 43, 104
14, 56831, Note_on_c, 14, 43, 0
14, 56891, Note_on_c, 14, 48, 104
14, 56951, Note_on_c, 14, 48, 0
14, 57011, Note_on_c, 14, 43, 104
14, 57071, Note_on_c, 14, 43, 0
14, 57131, Note_on_c, 14, 40, 104
14, 57191, Note_on_c, 14, 40, 0
14, 57251, Note_on_c, 14, 36, 104
14, 57311, Note_on_c, 14, 36, 0
14, 82091, Note_on_c, 14, 36, 104
14, 82091, Control_c, 14, 11, 47
14, 82117, Control_c, 14, 11, 49
14, 82143, Control_c, 14, 11, 51
14, 82169, Control_c, 14, 11, 53
14, 82195, Control_c, 14, 11, 55
14, 82221, Control_c, 14, 11, 57
14, 82248, Control_c, 14, 11, 59
14, 82274, Control_c, 14, 11, 61
14, 82280, Note_on_c, 14, 36, 0
14, 82300, Control_c, 14, 11, 63
14, 82326, Control_c, 14, 11, 65
14, 82331, Note_on_c, 14, 36, 104
14, 82352, Control_c, 14, 11, 67
14, 82379, Control_c, 14, 11, 69
14, 82405, Control_c, 14, 11, 71
14, 82421, Note_on_c, 14, 36, 0
14, 82431, Control_c, 14, 11, 73
14, 82451, Note_on_c, 14, 36, 104
14, 82457, Control_c, 14, 11, 75
14, 82483, Control_c, 14, 11, 77
14, 82509, Control_c, 14, 11, 79
14, 82536, Control_c, 14, 11, 81
14, 82562, Control_c, 14, 11, 83
14, 82588, Control_c, 14, 11, 85
14, 82614, Control_c, 14, 11, 87
14, 82640, Note_on_c, 14, 36, 0
14, 82640, Control_c, 14, 11, 89
14, 82667, Control_c, 14, 11, 91
14, 82691, Note_on_c, 14, 36, 104
14, 82693, Control_c, 14, 11, 93
14, 82719, Control_c, 14, 11, 95
14, 82745, Control_c, 14, 11, 97
14, 82771, Control_c, 14, 11, 99
14, 82781, Note_on_c, 14, 36, 0
14, 82797, Control_c, 14, 11, 101
14, 82811, Note_on_c, 14, 36, 104
14, 83002, Note_on_c, 14, 36, 0
14, 83051, Note_on_c, 14, 36, 104
14, 83111, Note_on_c, 14, 36, 0
14, 83171, Note_on_c, 14, 41, 104
14, 83171, Control_c, 14, 11, 122
14, 83194, Control_c, 14, 11, 120
14, 83218, Control_c, 14, 11, 118
14, 83242, Control_c, 14, 11, 116
14, 83266, Control_c, 14, 11, 114
14, 83290, Control_c, 14, 11, 112
14, 83314, Control_c, 14, 11, 110
14, 83338, Control_c, 14, 11, 108
14, 83362, Control_c, 14, 11, 106
14, 83386, Control_c, 14, 11, 104
14, 83410, Control_c, 14, 11, 102
14, 83531, Note_on_c, 14, 41, 0
14, 83531, Note_on_c, 14, 43, 104
14, 83756, Note_on_c, 14, 43, 0
14, 83771, Note_on_c, 14, 43, 104
14, 83831, Note_on_c, 14, 43, 0
14, 83891, Note_on_c, 14, 31, 104
14, 83891, Control_c, 14, 11, 122
14, 83914, Control_c, 14, 11, 120
14, 83938, Control_c, 14, 11, 118
14, 83962, Control_c, 14, 11, 116
14, 83986, Control_c, 14, 11, 114
14, 84010, Control_c, 14, 11, 112
14, 84034, Control_c, 14, 11, 110
14, 84058, Control_c, 14, 11, 108
14, 84082, Control_c, 14, 11, 106
14, 84106, Control_c, 14, 11, 104
14, 84130, Control_c, 14, 11, 102
14, 84251, Note_on_c, 14, 31, 0
14, 84251, Note_on_c, 14, 36, 104
14, 84476, Note_on_c, 14, 36, 0
14, 84491, Note_on_c, 14, 36, 104
14, 84551, Note_on_c, 14, 36, 0
14, 84611, Note_on_c, 14, 41, 104
14, 84611, Control_c, 14, 11, 122
14, 84634, Control_c, 14, 11, 120
14, 84658, Control_c, 14, 11, 118
14, 84682, Control_c, 14, 11, 116
14, 84706, Control_c, 14, 11, 114
14, 84730, Control_c, 14, 11, 112
14, 84754, Control_c, 14, 11, 110
14, 84778, Control_c, 14, 11, 108
14, 84802, Control_c, 14, 11, 106
14, 84826, Control_c, 14, 11, 104
14, 84850, Control_c, 14, 11, 102
14, 84971, Note_on_c, 14, 41, 0
14, 84971, Note_on_c, 14, 43, 104
14, 85196, Note_on_c, 14, 43, 0
14, 85211, Note_on_c, 14, 43, 104
14, 85271, Note_on_c, 14, 43, 0
14, 85331, Note_on_c, 14, 31, 104
14, 85331, Control_c, 14, 11, 122
14, 85354, Control_c, 14, 11, 120
14, 85378, Control_c, 14, 11, 118
14, 85402, Control_c, 14, 11, 116
14, 85426, Control_c, 14, 11, 114
14, 85450, Control_c, 14, 11, 112
14, 85474, Control_c, 14, 11, 110
14, 85498, Control_c, 14, 11, 108
14, 85522, Control_c, 14, 11, 106
14, 85546, Control_c, 14, 11, 104
14, 85570, Control_c, 14, 11, 102
14, 85691, Note_on_c, 14, 31, 0
14, 85691, Note_on_c, 14, 36, 104
14, 85751, Note_on_c, 14, 36, 0
14, 85811, Note_on_c, 14, 31, 104
14, 85811, Control_c, 14, 11, 122
14, 85834, Control_c, 14, 11, 120
14, 85858, Control_c, 14, 11, 118
14, 85882, Control_c, 14, 11, 116
14, 85906, Control_c, 14, 11, 114
14, 85930, Control_c, 14, 11, 112
14, 85954, Control_c, 14, 11, 110
14, 85978, Control_c, 14, 11, 108
14, 86002, Control_c, 14, 11, 106
14, 86026, Control_c, 14, 11, 104
14, 86036, Note_on_c, 14, 31, 0
14, 86050, Control_c, 14, 11, 102
14, 86051, Note_on_c, 14, 36, 104
14, 86111, Note_on_c, 14, 36, 0
14, 86171, Note_on_c, 14, 31, 104
14, 86171, Control_c, 14, 11, 122
14, 86194, Control_c, 14, 11, 120
14, 86218, Control_c, 14, 11, 118
14, 86242, Control_c, 14, 11, 116
14, 86266, Control_c, 14, 11, 114
14, 86290, Control_c, 14, 11, 112
14, 86314, Control_c, 14, 11, 110
14, 86338, Control_c, 14, 11, 108
14, 86362, Control_c, 14, 11, 106
14, 86386, Control_c, 14, 11, 104
14, 86396, Note_on_c, 14, 31, 0
14, 86410, Control_c, 14, 11, 102
14, 86411, Control_c, 14, 11, 122
14, 86411, Note_on_c, 14, 43, 104
14, 86434, Control_c, 14, 11, 120
14, 86458, Control_c, 14, 11, 118
14, 86482, Control_c, 14, 11, 116
14, 86506, Control_c, 14, 11, 114
14, 86516, Note_on_c, 14, 43, 0
14, 86530, Control_c, 14, 11, 112
14, 86531, Note_on_c, 14, 31, 104
14, 86554, Control_c, 14, 11, 110
14, 86578, Control_c, 14, 11, 108
14, 86602, Control_c, 14, 11, 106
14, 86626, Control_c, 14, 11, 104
14, 86636, Note_on_c, 14, 31, 0
14, 86650, Control_c, 14, 11, 102
14, 86651, Note_on_c, 14, 31, 104
14, 86756, Note_on_c, 14, 31, 0
14, 86771, Note_on_c, 14, 36, 104
14, 86891, Note_on_c, 14, 36, 0
14, 94331, Control_c, 14, 11, 47
14, 94331, Note_on_c, 14, 36, 104
14, 94357, Control_c, 14, 11, 49
14, 94383, Control_c, 14, 11, 51
14, 94409, Control_c, 14, 11, 53
14, 94435, Control_c, 14, 11, 55
14, 94461, Control_c, 14, 11, 57
14, 94488, Control_c, 14, 11, 59
14, 94514, Control_c, 14, 11, 61
14, 94520, Note_on_c, 14, 36, 0
14, 94540, Control_c, 14, 11, 63
14, 94566, Control_c, 14, 11, 65
14, 94571, Note_on_c, 14, 36, 104
14, 94592, Control_c, 14, 11, 67
14, 94619, Control_c, 14, 11, 69
14, 94645, Control_c, 14, 11, 71
14, 94661, Note_on_c, 14, 36, 0
14, 94671, Control_c, 14, 11, 73
14, 94691, Note_on_c, 14, 36, 104
14, 94697, Control_c, 14, 11, 75
14, 94723, Control_c, 14, 11, 77
14, 94749, Control_c, 14, 11, 79
14, 94776, Control_c, 14, 11, 81
14, 94802, Control_c, 14, 11, 83
14, 94828, Control_c, 14, 11, 85
14, 94854, Control_c, 14, 11, 87
14, 94880, Note_on_c, 14, 36, 0
14, 94880, Control_c, 14, 11, 89
14, 94907, Control_c, 14, 11, 91
14, 94931, Note_on_c, 14, 36, 104
14, 94933, Control_c, 14, 11, 93
14, 94959, Control_c, 14, 11, 95
14, 94985, Control_c, 14, 11, 97
14, 95011, Control_c, 14, 11, 99
14, 95021, Note_on_c, 14, 36, 0
14, 95037, Control_c, 14, 11, 101
14, 95051, Note_on_c, 14, 36, 104
14, 95242, Note_on_c, 14, 36, 0
14, 95291, Note_on_c, 14, 36, 104
14, 95351, Note_on_c, 14, 36, 0
14, 95411, Control_c, 14, 11, 122
14, 95411, Note_on_c, 14, 41, 104
14, 95434, Control_c, 14, 11, 120
14, 95458, Control_c, 14, 11, 118
14, 95482, Control_c, 14, 11, 116
14, 95506, Control_c, 14, 11, 114
14, 95530, Control_c, 14, 11, 112
14, 95554, Control_c, 14, 11, 110
14, 95578, Control_c, 14, 11, 108
14, 95602, Control_c, 14, 11, 106
14, 95626, Control_c, 14, 11, 104
14, 95650, Control_c, 14, 11, 102
14, 95771, Note_on_c, 14, 41, 0
14, 95771, Note_on_c, 14, 43, 104
14, 95996, Note_on_c, 14, 43, 0
14, 96011, Note_on_c, 14, 43, 104
14, 96071, Note_on_c, 14, 43, 0
14, 96131, Note_on_c, 14, 31, 104
14, 96131, Control_c, 14, 11, 122
14, 96154, Control_c, 14, 11, 120
14, 96178, Control_c, 14, 11, 118
14, 96202, Control_c, 14, 11, 116
14, 96226, Control_c, 14, 11, 114
14, 96250, Control_c, 14, 11, 112
14, 96274, Control_c, 14, 11, 110
14, 96298, Control_c, 14, 11, 108
14, 96322, Control_c, 14, 11, 106
14, 96346, Control_c, 14, 11, 104
14, 96370, Control_c, 14, 11, 102
14, 96491, Note_on_c, 14, 31, 0
14, 96491, Note_on_c, 14, 36, 104
14, 96716, Note_on_c, 14, 36, 0
14, 96731, Note_on_c, 14, 36, 104
14, 96791, Note_on_c, 14, 36, 0
14, 96851, Control_c, 14, 11, 122
14, 96851, Note_on_c, 14, 41, 104
14, 96874, Control_c, 14, 11, 120
14, 96898, Control_c, 14, 11, 118
14, 96922, Control_c, 14, 11, 116
14, 96946, Control_c, 14, 11, 114
14, 96970, Control_c, 14, 11, 112
14, 96994, Control_c, 14, 11, 110
14, 97018, Control_c, 14, 11, 108
14, 97042, Control_c, 14, 11, 106
14, 97066, Control_c, 14, 11, 104
14, 97090, Control_c, 14, 11, 102
14, 97211, Note_on_c, 14, 41, 0
14, 97211, Note_on_c, 14, 43, 104
14, 97436, Note_on_c, 14, 43, 0
14, 97451, Note_on_c, 14, 43, 104
14, 97511, Note_on_c, 14, 43, 0
14, 97571, Note_on_c, 14, 31, 104
14, 97571, Control_c, 14, 11, 122
14, 97594, Control_c, 14, 11, 120
14, 97618, Control_c, 14, 11, 118
14, 97642, Control_c, 14, 11, 116
14, 97666, Control_c, 14, 11, 114
14, 97690, Control_c, 14, 11, 112
14, 97714, Control_c, 14, 11, 110
14, 97738, Control_c, 14, 11, 108
14, 97762, Control_c, 14, 11, 106
14, 97786, Control_c, 14, 11, 104
14, 97810, Control_c, 14, 11, 102
14, 97931, Note_on_c, 14, 31, 0
14, 97931, Note_on_c, 14, 36, 104
14, 97991, Note_on_c, 14, 36, 0
14, 98051, Note_on_c, 14, 31, 104
14, 98051, Control_c, 14, 11, 122
14, 98074, Control_c, 14, 11, 120
14, 98098, Control_c, 14, 11, 118
14, 98122, Control_c, 14, 11, 116
14, 98146, Control_c, 14, 11, 114
14, 98170, Control_c, 14, 11, 112
14, 98194, Control_c, 14, 11, 110
14, 98218, Control_c, 14, 11, 108
14, 98242, Control_c, 14, 11, 106
14, 98266, Control_c, 14, 11, 104
14, 98276, Note_on_c, 14, 31, 0
14, 98290, Control_c, 14, 11, 102
14, 98291, Note_on_c, 14, 36, 104
14, 98351, Note_on_c, 14, 36, 0
14, 98411, Note_on_c, 14, 31, 104
14, 98411, Control_c, 14, 11, 122
14, 98434, Control_c, 14, 11, 120
14, 98458, Control_c, 14, 11, 118
14, 98482, Control_c, 14, 11, 116
14, 98506, Control_c, 14, 11, 114
14, 98530, Control_c, 14, 11, 112
14, 98554, Control_c, 14, 11, 110
14, 98578, Control_c, 14, 11, 108
14, 98602, Control_c, 14, 11, 106
14, 98626, Control_c, 14, 11, 104
14, 98636, Note_on_c, 14, 31, 0
14, 98650, Control_c, 14, 11, 102
14, 98651, Note_on_c, 14, 43, 104
14, 98651, Control_c, 14, 11, 122
14, 98674, Control_c, 14, 11, 120
14, 98698, Control_c, 14, 11, 118
14, 98722, Control_c, 14, 11, 116
14, 98746, Control_c, 14, 11, 114
14, 98756, Note_on_c, 14, 43, 0
14, 98770, Control_c, 14, 11, 112
14, 98771, Note_on_c, 14, 31, 104
14, 98794, Control_c, 14, 11, 110
14, 98818, Control_c, 14, 11, 108
14, 98842, Control_c, 14, 11, 106
14, 98866, Control_c, 14, 11, 104
14, 98876, Note_on_c, 14, 31, 0
14, 98890, Control_c, 14, 11, 102
14, 98891, Note_on_c, 14, 31, 104
14, 98996, Note_on_c, 14, 31, 0
14, 99011, Note_on_c, 14, 36, 104
14, 99131, Note_on_c, 14, 36, 0
14, 99251, Control_c, 14, 11, 37
14, 99299, Control_c, 14, 11, 38
14, 99347, Control_c, 14, 11, 39
14, 99371, Note_on_c, 14, 36, 104
14, 99395, Control_c, 14, 11, 40
14, 99431, Note_on_c, 14, 36, 0
14, 99443, Control_c, 14, 11, 41
14, 99491, Control_c, 14, 11, 42
14, 99491, Note_on_c, 14, 48, 104
14, 99539, Control_c, 14, 11, 43
14, 99551, Note_on_c, 14, 48, 0
14, 99587, Control_c, 14, 11, 44
14, 99611, Note_on_c, 14, 48, 104
14, 99635, Control_c, 14, 11, 45
14, 99671, Note_on_c, 14, 48, 0
14, 99683, Control_c, 14, 11, 46
14, 99731, Note_on_c, 14, 48, 104
14, 99731, Control_c, 14, 11, 47
14, 99791, Note_on_c, 14, 48, 0
14, 99851, Note_on_c, 14, 48, 104
14, 99911, Note_on_c, 14, 48, 0
14, 99971, Note_on_c, 14, 47, 104
14, 100031, Note_on_c, 14, 47, 0
14, 100091, Note_on_c, 14, 48, 104
14, 100151, Note_on_c, 14, 48, 0
14, 100211, Note_on_c, 14, 45, 104
14, 100271, Note_on_c, 14, 45, 0
14, 100331, Note_on_c, 14, 50, 104
14, 100391, Note_on_c, 14, 50, 0
14, 100451, Note_on_c, 14, 47, 104
14, 100511, Note_on_c, 14, 47, 0
14, 100571, Note_on_c, 14, 43, 104
14, 100631, Note_on_c, 14, 43, 0
14, 100691, Note_on_c, 14, 40, 104
14, 100691, Control_c, 14, 11, 47
14, 100709, Control_c, 14, 11, 48
14, 100727, Control_c, 14, 11, 49
14, 100745, Control_c, 14, 11, 50
14, 100751, Note_on_c, 14, 40, 0
14, 100763, Control_c, 14, 11, 51
14, 100781, Control_c, 14, 11, 52
14, 100799, Control_c, 14, 11, 53
14, 100811, Note_on_c, 14, 41, 104
14, 100817, Control_c, 14, 11, 54
14, 100835, Control_c, 14, 11, 55
14, 100853, Control_c, 14, 11, 56
14, 100871, Note_on_c, 14, 41, 0
14, 100871, Control_c, 14, 11, 57
14, 100889, Control_c, 14, 11, 58
14, 100907, Control_c, 14, 11, 59
14, 100925, Control_c, 14, 11, 60
14, 100931, Note_on_c, 14, 38, 104
14, 100943, Control_c, 14, 11, 61
14, 100961, Control_c, 14, 11, 62
14, 100979, Control_c, 14, 11, 63
14, 100991, Note_on_c, 14, 38, 0
14, 100997, Control_c, 14, 11, 64
14, 101015, Control_c, 14, 11, 65
14, 101033, Control_c, 14, 11, 66
14, 101051, Note_on_c, 14, 43, 104
14, 101051, Control_c, 14, 11, 67
14, 101069, Control_c, 14, 11, 68
14, 101087, Control_c, 14, 11, 69
14, 101105, Control_c, 14, 11, 70
14, 101111, Note_on_c, 14, 43, 0
14, 101123, Control_c, 14, 11, 71
14, 101141, Control_c, 14, 11, 72
14, 101159, Control_c, 14, 11, 73
14, 101171, Note_on_c, 14, 40, 104
14, 101177, Control_c, 14, 11, 74
14, 101195, Control_c, 14, 11, 75
14, 101213, Control_c, 14, 11, 76
14, 101231, Note_on_c, 14, 40, 0
14, 101231, Control_c, 14, 11, 77
14, 101249, Control_c, 14, 11, 78
14, 101267, Control_c, 14, 11, 79
14, 101285, Control_c, 14, 11, 80
14, 101291, Note_on_c, 14, 36, 104
14, 101303, Control_c, 14, 11, 81
14, 101321, Control_c, 14, 11, 82
14, 101339, Control_c, 14, 11, 83
14, 101351, Note_on_c, 14, 36, 0
14, 101357, Control_c, 14, 11, 84
14, 101375, Control_c, 14, 11, 85
14, 101393, Control_c, 14, 11, 86
14, 101411, Control_c, 14, 11, 87
14, 101411, Note_on_c, 14, 37, 104
14, 101471, Note_on_c, 14, 37, 0
14, 101531, Note_on_c, 14, 38, 104
14, 101591, Note_on_c, 14, 38, 0
14, 101651, Note_on_c, 14, 38, 104
14, 101711, Note_on_c, 14, 38, 0
14, 101771, Note_on_c, 14, 38, 104
14, 101831, Note_on_c, 14, 38, 0
14, 101891, Note_on_c, 14, 31, 104
14, 102011, Note_on_c, 14, 31, 0
14, 102131, Control_c, 14, 11, 37
14, 102179, Control_c, 14, 11, 38
14, 102227, Control_c, 14, 11, 39
14, 102251, Note_on_c, 14, 36, 104
14, 102275, Control_c, 14, 11, 40
14, 102311, Note_on_c, 14, 36, 0
14, 102323, Control_c, 14, 11, 41
14, 102371, Control_c, 14, 11, 42
14, 102371, Note_on_c, 14, 48, 104
14, 102419, Control_c, 14, 11, 43
14, 102431, Note_on_c, 14, 48, 0
14, 102467, Control_c, 14, 11, 44
14, 102491, Note_on_c, 14, 48, 104
14, 102515, Control_c, 14, 11, 45
14, 102551, Note_on_c, 14, 48, 0
14, 102563, Control_c, 14, 11, 46
14, 102611, Note_on_c, 14, 48, 104
14, 102611, Control_c, 14, 11, 47
14, 102671, Note_on_c, 14, 48, 0
14, 102731, Note_on_c, 14, 48, 104
14, 102791, Note_on_c, 14, 48, 0
14, 102851, Note_on_c, 14, 47, 104
14, 102911, Note_on_c, 14, 47, 0
14, 102971, Note_on_c, 14, 48, 104
14, 103031, Note_on_c, 14, 48, 0
14, 103091, Note_on_c, 14, 45, 104
14, 103151, Note_on_c, 14, 45, 0
14, 103211, Note_on_c, 14, 50, 104
14, 103271, Note_on_c, 14, 50, 0
14, 103331, Note_on_c, 14, 47, 104
14, 103391, Note_on_c, 14, 47, 0
14, 103451, Note_on_c, 14, 43, 104
14, 103511, Note_on_c, 14, 43, 0
14, 103571, Note_on_c, 14, 40, 104
14, 103571, Control_c, 14, 11, 47
14, 103589, Control_c, 14, 11, 48
14, 103607, Control_c, 14, 11, 49
14, 103625, Control_c, 14, 11, 50
14, 103631, Note_on_c, 14, 40, 0
14, 103643, Control_c, 14, 11, 51
14, 103661, Control_c, 14, 11, 52
14, 103679, Control_c, 14, 11, 53
14, 103691, Note_on_c, 14, 41, 104
14, 103697, Control_c, 14, 11, 54
14, 103715, Control_c, 14, 11, 55
14, 103733, Control_c, 14, 11, 56
14, 103751, Note_on_c, 14, 41, 0
14, 103751, Control_c, 14, 11, 57
14, 103769, Control_c, 14, 11, 58
14, 103787, Control_c, 14, 11, 59
14, 103805, Control_c, 14, 11, 60
14, 103811, Note_on_c, 14, 38, 104
14, 103823, Control_c, 14, 11, 61
14, 103841, Control_c, 14, 11, 62
14, 103859, Control_c, 14, 11, 63
14, 103871, Note_on_c, 14, 38, 0
14, 103877, Control_c, 14, 11, 64
14, 103895, Control_c, 14, 11, 65
14, 103913, Control_c, 14, 11, 66
14, 103931, Note_on_c, 14, 43, 104
14, 103931, Control_c, 14, 11, 67
14, 103949, Control_c, 14, 11, 68
14, 103967, Control_c, 14, 11, 69
14, 103985, Control_c, 14, 11, 70
14, 103991, Note_on_c, 14, 43, 0
14, 104003, Control_c, 14, 11, 71
14, 104021, Control_c, 14, 11, 72
14, 104039, Control_c, 14, 11, 73
14, 104051, Note_on_c, 14, 40, 104
14, 104057, Control_c, 14, 11, 74
14, 104075, Control_c, 14, 11, 75
14, 104093, Control_c, 14, 11, 76
14, 104111, Note_on_c, 14, 40, 0
14, 104111, Control_c, 14, 11, 77
14, 104129, Control_c, 14, 11, 78
14, 104147, Control_c, 14, 11, 79
14, 104165, Control_c, 14, 11, 80
14, 104171, Note_on_c, 14, 36, 104
14, 104183, Control_c, 14, 11, 81
14, 104201, Control_c, 14, 11, 82
14, 104219, Control_c, 14, 11, 83
14, 104231, Note_on_c, 14, 36, 0
14, 104237, Control_c, 14, 11, 84
14, 104255, Control_c, 14, 11, 85
14, 104273, Control_c, 14, 11, 86
14, 104291, Control_c, 14, 11, 87
14, 104291, Note_on_c, 14, 37, 104
14, 104351, Note_on_c, 14, 37, 0
14, 104411, Note_on_c, 14, 38, 104
14, 104471, Note_on_c, 14, 38, 0
14, 104531, Note_on_c, 14, 38, 104
14, 104591, Note_on_c, 14, 38, 0
14, 104651, Note_on_c, 14, 38, 104
14, 104711, Note_on_c, 14, 38, 0
14, 104771, Note_on_c, 14, 31, 104
14, 104891, Note_on_c, 14, 31, 0
14, 105971, Control_c, 14, 11, 87
14, 105971, Note_on_c, 14, 48, 104
14, 106031, Note_on_c, 14, 48, 0
14, 106091, Note_on_c, 14, 50, 104
14, 106151, Note_on_c, 14, 50, 0
14, 106211, Note_on_c, 14, 51, 104
14, 106271, Note_on_c, 14, 51, 0
14, 106331, Note_on_c, 14, 39, 104
14, 106451, Note_on_c, 14, 39, 0
14, 107411, Control_c, 14, 11, 87
14, 107411, Note_on_c, 14, 45, 104
14, 107471, Note_on_c, 14, 45, 0
14, 107531, Note_on_c, 14, 47, 104
14, 107591, Note_on_c, 14, 47, 0
14, 107651, Note_on_c, 14, 48, 104
14, 107711, Note_on_c, 14, 48, 0
14, 107771, Note_on_c, 14, 36, 104
14, 107891, Note_on_c, 14, 36, 0
14, 108131, Note_on_c, 14, 41, 104
14, 108191, Note_on_c, 14, 41, 0
14, 108251, Note_on_c, 14, 43, 104
14, 108311, Note_on_c, 14, 43, 0
14, 108371, Note_on_c, 14, 44, 104
14, 108431, Note_on_c, 14, 44, 0
14, 108491, Note_on_c, 14, 32, 104
14, 108611, Note_on_c, 14, 32, 0
14, 108851, Control_c, 14, 11, 102
14, 108851, Note_on_c, 14, 42, 104
14, 108911, Note_on_c, 14, 42, 0
14, 108971, Note_on_c, 14, 42, 104
14, 109031, Note_on_c, 14, 42, 0
14, 109091, Note_on_c, 14, 42, 104
14, 109151, Note_on_c, 14, 42, 0
14, 109211, Note_on_c, 14, 42, 104
14, 109271, Note_on_c, 14, 42, 0
14, 109331, Note_on_c, 14, 42, 104
14, 109391, Note_on_c, 14, 42, 0
14, 109451, Control_c, 14, 11, 122
14, 109451, Note_on_c, 14, 41, 104
14, 109468, Control_c, 14, 11, 119
14, 109486, Control_c, 14, 11, 116
14, 109504, Control_c, 14, 11, 113
14, 109522, Control_c, 14, 11, 110
14, 109540, Control_c, 14, 11, 107
14, 109558, Control_c, 14, 11, 104
14, 109571, Note_on_c, 14, 41, 0
14, 109811, Note_on_c, 14, 42, 104
14, 109811, Control_c, 14, 11, 122
14, 109828, Control_c, 14, 11, 119
14, 109846, Control_c, 14, 11, 116
14, 109864, Control_c, 14, 11, 113
14, 109882, Control_c, 14, 11, 110
14, 109900, Control_c, 14, 11, 107
14, 109918, Control_c, 14, 11, 104
14, 109931, Note_on_c, 14, 42, 0
14, 110171, Control_c, 14, 11, 122
14, 110171, Note_on_c, 14, 44, 104
14, 110188, Control_c, 14, 11, 119
14, 110206, Control_c, 14, 11, 116
14, 110224, Control_c, 14, 11, 113
14, 110242, Control_c, 14, 11, 110
14, 110260, Control_c, 14, 11, 107
14, 110278, Control_c, 14, 11, 104
14, 110291, Note_on_c, 14, 44, 0
14, 110531, Control_c, 14, 11, 122
14, 110531, Note_on_c, 14, 32, 104
14, 110548, Control_c, 14, 11, 119
14, 110566, Control_c, 14, 11, 116
14, 110584, Control_c, 14, 11, 113
14, 110602, Control_c, 14, 11, 110
14, 110620, Control_c, 14, 11, 107
14, 110638, Control_c, 14, 11, 104
14, 110651, Note_on_c, 14, 32, 0
14, 110891, Control_c, 14, 11, 87
14, 110891, Note_on_c, 14, 37, 104
14, 110909, Control_c, 14, 11, 84
14, 110927, Control_c, 14, 11, 81
14, 110945, Control_c, 14, 11, 78
14, 110963, Control_c, 14, 11, 75
14, 110981, Control_c, 14, 11, 72
14, 110999, Control_c, 14, 11, 69
14, 111017, Control_c, 14, 11, 66
14, 111035, Control_c, 14, 11, 63
14, 111053, Control_c, 14, 11, 60
14, 111071, Control_c, 14, 11, 57
14, 111089, Control_c, 14, 11, 54
14, 111107, Control_c, 14, 11, 51
14, 111125, Control_c, 14, 11, 48
14, 112311, Note_on_c, 14, 37, 0
14, 112331, Note_on_c, 14, 37, 104
14, 113891, Note_on_c, 14, 37, 0
14, 114371, Note_on_c, 14, 33, 89
14, 114371, Control_c, 14, 11, 37
14, 114491, Note_on_c, 14, 33, 0
14, 114491, Note_on_c, 14, 34, 104
14, 114851, Note_on_c, 14, 34, 0
14, 115811, Note_on_c, 14, 34, 89
14, 115931, Note_on_c, 14, 34, 0
14, 115931, Note_on_c, 14, 35, 104
14, 116291, Note_on_c, 14, 35, 0
14, 117251, Note_on_c, 14, 35, 89
14, 117251, Control_c, 14, 11, 62
14, 117279, Control_c, 14, 11, 63
14, 117308, Control_c, 14, 11, 64
14, 117337, Control_c, 14, 11, 65
14, 117366, Control_c, 14, 11, 66
14, 117371, Note_on_c, 14, 35, 0
14, 117371, Note_on_c, 14, 36, 104
14, 117395, Control_c, 14, 11, 67
14, 117423, Control_c, 14, 11, 68
14, 117452, Control_c, 14, 11, 69
14, 117481, Control_c, 14, 11, 70
14, 117510, Control_c, 14, 11, 71
14, 117539, Control_c, 14, 11, 72
14, 117567, Control_c, 14, 11, 73
14, 117596, Control_c, 14, 11, 74
14, 117625, Control_c, 14, 11, 75
14, 117654, Control_c, 14, 11, 76
14, 117683, Control_c, 14, 11, 77
14, 117711, Control_c, 14, 11, 78
14, 117740, Control_c, 14, 11, 79
14, 117769, Control_c, 14, 11, 80
14, 117798, Control_c, 14, 11, 81
14, 117827, Control_c, 14, 11, 82
14, 117855, Control_c, 14, 11, 83
14, 117884, Control_c, 14, 11, 84
14, 117913, Control_c, 14, 11, 85
14, 117942, Control_c, 14, 11, 86
14, 117951, Note_on_c, 14, 36, 0
14, 117971, Control_c, 14, 11, 87
14, 117971, Note_on_c, 14, 36, 104
14, 118031, Note_on_c, 14, 36, 0
14, 118091, Note_on_c, 14, 36, 104
14, 118151, Note_on_c, 14, 36, 0
14, 118211, Note_on_c, 14, 48, 104
14, 118271, Note_on_c, 14, 48, 0
14, 118331, Note_on_c, 14, 48, 104
14, 118391, Note_on_c, 14, 48, 0
14, 118451, Note_on_c, 14, 48, 104
14, 118511, Note_on_c, 14, 48, 0
14, 118571, Note_on_c, 14, 48, 104
14, 118631, Note_on_c, 14, 48, 0
14, 118691, Note_on_c, 14, 47, 104
14, 118751, Note_on_c, 14, 47, 0
14, 118811, Note_on_c, 14, 48, 104
14, 118871, Note_on_c, 14, 48, 0
14, 118931, Note_on_c, 14, 45, 104
14, 118991, Note_on_c, 14, 45, 0
14, 119051, Note_on_c, 14, 50, 104
14, 119111, Note_on_c, 14, 50, 0
14, 119171, Note_on_c, 14, 47, 104
14, 119231, Note_on_c, 14, 47, 0
14, 119291, Note_on_c, 14, 43, 104
14, 119351, Note_on_c, 14, 43, 0
14, 119411, Control_c, 14, 11, 102
14, 119411, Note_on_c, 14, 40, 104
14, 119471, Note_on_c, 14, 40, 0
14, 119531, Note_on_c, 14, 41, 104
14, 119591, Note_on_c, 14, 41, 0
14, 119651, Note_on_c, 14, 38, 104
14, 119711, Note_on_c, 14, 38, 0
14, 119771, Note_on_c, 14, 43, 104
14, 119831, Note_on_c, 14, 43, 0
14, 119891, Note_on_c, 14, 40, 104
14, 119951, Note_on_c, 14, 40, 0
14, 120011, Note_on_c, 14, 36, 104
14, 120071, Note_on_c, 14, 36, 0
14, 120131, Note_on_c, 14, 35, 104
14, 120191, Note_on_c, 14, 35, 0
14, 120251, Note_on_c, 14, 36, 104
14, 120311, Note_on_c, 14, 36, 0
14, 120371, Note_on_c, 14, 33, 104
14, 120431, Note_on_c, 14, 33, 0
14, 120491, Note_on_c, 14, 38, 104
14, 120551, Note_on_c, 14, 38, 0
14, 120611, Note_on_c, 14, 35, 104
14, 120611, Control_c, 14, 11, 122
14, 120628, Control_c, 14, 11, 119
14, 120646, Control_c, 14, 11, 116
14, 120664, Control_c, 14, 11, 113
14, 120671, Note_on_c, 14, 35, 0
14, 120682, Control_c, 14, 11, 110
14, 120700, Control_c, 14, 11, 107
14, 120718, Control_c, 14, 11, 104
14, 120731, Note_on_c, 14, 31, 104
14, 120791, Note_on_c, 14, 31, 0
14, 120851, Note_on_c, 14, 33, 104
14, 120911, Note_on_c, 14, 33, 0
14, 120971, Note_on_c, 14, 34, 104
14, 121031, Note_on_c, 14, 34, 0
14, 121091, Note_on_c, 14, 31, 104
14, 121151, Note_on_c, 14, 31, 0
14, 121211, Note_on_c, 14, 36, 104
14, 121271, Note_on_c, 14, 36, 0
14, 121331, Control_c, 14, 11, 122
14, 121331, Note_on_c, 14, 33, 104
14, 121348, Control_c, 14, 11, 119
14, 121366, Control_c, 14, 11, 116
14, 121384, Control_c, 14, 11, 113
14, 121391, Note_on_c, 14, 33, 0
14, 121402, Control_c, 14, 11, 110
14, 121420, Control_c, 14, 11, 107
14, 121438, Control_c, 14, 11, 104
14, 121451, Note_on_c, 14, 29, 104
14, 121511, Note_on_c, 14, 29, 0
14, 121571, Note_on_c, 14, 40, 104
14, 121631, Note_on_c, 14, 40, 0
14, 121691, Note_on_c, 14, 41, 104
14, 121751, Note_on_c, 14, 41, 0
14, 121811, Note_on_c, 14, 38, 104
14, 121871, Note_on_c, 14, 38, 0
14, 121931, Note_on_c, 14, 43, 104
14, 121991, Note_on_c, 14, 43, 0
14, 122051, Note_on_c, 14, 40, 104
14, 122051, Control_c, 14, 11, 122
14, 122068, Control_c, 14, 11, 119
14, 122086, Control_c, 14, 11, 116
14, 122104, Control_c, 14, 11, 113
14, 122111, Note_on_c, 14, 40, 0
14, 122122, Control_c, 14, 11, 110
14, 122140, Control_c, 14, 11, 107
14, 122158, Control_c, 14, 11, 104
14, 122171, Note_on_c, 14, 36, 104
14, 122231, Note_on_c, 14, 36, 0
14, 122291, Note_on_c, 14, 41, 104
14, 122351, Note_on_c, 14, 41, 0
14, 122411, Note_on_c, 14, 31, 104
14, 122471, Note_on_c, 14, 31, 0
14, 122531, Note_on_c, 14, 43, 104
14, 122591, Note_on_c, 14, 43, 0
14, 122651, Note_on_c, 14, 43, 104
14, 122711, Note_on_c, 14, 43, 0
14, 122771, Note_on_c, 14, 36, 104
14, 122831, Note_on_c, 14, 36, 0
14, 122891, Note_on_c, 14, 48, 104
14, 122951, Note_on_c, 14, 48, 0
14, 123011, Note_on_c, 14, 48, 84
14, 123071, Note_on_c, 14, 48, 0
14, 123131, Note_on_c, 14, 48, 84
14, 123131, Control_c, 14, 11, 122
14, 123154, Control_c, 14, 11, 120
14, 123178, Control_c, 14, 11, 118
14, 123191, Note_on_c, 14, 48, 0
14, 123202, Control_c, 14, 11, 116
14, 123226, Control_c, 14, 11, 114
14, 123250, Control_c, 14, 11, 112
14, 123251, Note_on_c, 14, 48, 84
14, 123274, Control_c, 14, 11, 110
14, 123298, Control_c, 14, 11, 108
14, 123311, Note_on_c, 14, 48, 0
14, 123322, Control_c, 14, 11, 106
14, 123346, Control_c, 14, 11, 104
14, 123370, Control_c, 14, 11, 102
14, 123371, Note_on_c, 14, 48, 84
14, 123431, Note_on_c, 14, 48, 0
14, 123491, Note_on_c, 14, 36, 84
14, 123551, Note_on_c, 14, 36, 0
14, 123611, Note_on_c, 14, 48, 84
14, 123671, Note_on_c, 14, 48, 0
14, 123731, Note_on_c, 14, 48, 84
14, 123791, Note_on_c, 14, 48, 0
14, 123851, Control_c, 14, 11, 122
14, 123851, Note_on_c, 14, 48, 84
14, 123874, Control_c, 14, 11, 120
14, 123898, Control_c, 14, 11, 118
14, 123911, Note_on_c, 14, 48, 0
14, 123922, Control_c, 14, 11, 116
14, 123946, Control_c, 14, 11, 114
14, 123970, Control_c, 14, 11, 112
14, 123971, Note_on_c, 14, 48, 84
14, 123994, Control_c, 14, 11, 110
14, 124018, Control_c, 14, 11, 108
14, 124031, Note_on_c, 14, 48, 0
14, 124042, Control_c, 14, 11, 106
14, 124066, Control_c, 14, 11, 104
14, 124090, Control_c, 14, 11, 102
14, 124091, Note_on_c, 14, 48, 84
14, 124151, Note_on_c, 14, 48, 0
14, 124211, Note_on_c, 14, 36, 84
14, 124311, Note_on_c, 14, 36, 0
14, 124331, Note_on_c, 14, 48, 84
14, 124331, Control_c, 14, 11, 122
14, 124348, Control_c, 14, 11, 119
14, 124366, Control_c, 14, 11, 116
14, 124384, Control_c, 14, 11, 113
14, 124402, Control_c, 14, 11, 110
14, 124420, Control_c, 14, 11, 107
14, 124438, Control_c, 14, 11, 104
14, 124551, Note_on_c, 14, 48, 0
14, 124571, Note_on_c, 14, 36, 84
14, 124671, Note_on_c, 14, 36, 0
14, 124691, Note_on_c, 14, 48, 84
14, 124691, Control_c, 14, 11, 122
14, 124708, Control_c, 14, 11, 119
14, 124726, Control_c, 14, 11, 116
14, 124744, Control_c, 14, 11, 113
14, 124762, Control_c, 14, 11, 110
14, 124780, Control_c, 14, 11, 107
14, 124798, Control_c, 14, 11, 104
14, 124911, Note_on_c, 14, 48, 0
14, 124931, Note_on_c, 14, 36, 84
14, 125031, Note_on_c, 14, 36, 0
14, 125051, Control_c, 14, 11, 122
14, 125051, Note_on_c, 14, 48, 84
14, 125068, Control_c, 14, 11, 119
14, 125086, Control_c, 14, 11, 116
14, 125104, Control_c, 14, 11, 113
14, 125122, Control_c, 14, 11, 110
14, 125140, Control_c, 14, 11, 107
14, 125158, Control_c, 14, 11, 104
14, 125271, Note_on_c, 14, 48, 0
14, 125291, Note_on_c, 14, 36, 84
14, 125391, Note_on_c, 14, 36, 0
14, 125411, Note_on_c, 14, 48, 84
14, 125411, Control_c, 14, 11, 122
14, 125428, Control_c, 14, 11, 119
14, 125446, Control_c, 14, 11, 116
14, 125464, Control_c, 14, 11, 113
14, 125482, Control_c, 14, 11, 110
14, 125500, Control_c, 14, 11, 107
14, 125518, Control_c, 14, 11, 104
14, 125534, Control_c, 14, 11, 101
14, 125544, Control_c, 14, 11, 98
14, 125554, Control_c, 14, 11, 95
14, 125565, Control_c, 14, 11, 92
14, 125575, Control_c, 14, 11, 89
14, 125585, Control_c, 14, 11, 86
14, 125595, Control_c, 14, 11, 83
14, 125605, Control_c, 14, 11, 80
14, 125616, Control_c, 14, 11, 77
14, 125626, Control_c, 14, 11, 74
14, 125631, Note_on_c, 14, 48, 0
14, 125636, Control_c, 14, 11, 71
14, 125646, Control_c, 14, 11, 68
14, 125651, Control_c, 14, 11, 47
14, 125651, Note_on_c, 14, 36, 104
14, 125771, Note_on_c, 14, 36, 0
14, 126011, Note_on_c, 14, 43, 104
14, 126131, Note_on_c, 14, 43, 0
14, 126371, Note_on_c, 14, 48, 104
14, 126491, Note_on_c, 14, 48, 0
14, 126731, Note_on_c, 14, 43, 104
14, 126851, Note_on_c, 14, 43, 0
14, 127091, Control_c, 14, 11, 47
14, 127091, Note_on_c, 14, 36, 104
14, 127127, Control_c, 14, 11, 48
14, 127163, Control_c, 14, 11, 49
14, 127199, Control_c, 14, 11, 50
14, 127211, Note_on_c, 14, 36, 0
14, 127235, Control_c, 14, 11, 51
14, 127271, Control_c, 14, 11, 52
14, 127307, Control_c, 14, 11, 53
14, 127343, Control_c, 14, 11, 54
14, 127379, Control_c, 14, 11, 55
14, 127415, Control_c, 14, 11, 56
14, 127451, Control_c, 14, 11, 57
14, 127451, Note_on_c, 14, 31, 104
14, 127487, Control_c, 14, 11, 58
14, 127523, Control_c, 14, 11, 59
14, 127559, Control_c, 14, 11, 60
14, 127571, Note_on_c, 14, 31, 0
14, 127595, Control_c, 14, 11, 61
14, 127631, Control_c, 14, 11, 62
14, 127667, Control_c, 14, 11, 63
14, 127703, Control_c, 14, 11, 64
14, 127739, Control_c, 14, 11, 65
14, 127775, Control_c, 14, 11, 66
14, 127811, Note_on_c, 14, 36, 104
14, 127811, Control_c, 14, 11, 67
14, 127847, Control_c, 14, 11, 68
14, 127883, Control_c, 14, 11, 69
14, 127919, Control_c, 14, 11, 70
14, 127931, Note_on_c, 14, 36, 0
14, 127955, Control_c, 14, 11, 71
14, 127991, Control_c, 14, 11, 72
14, 128027, Control_c, 14, 11, 73
14, 128063, Control_c, 14, 11, 74
14, 128099, Control_c, 14, 11, 75
14, 128135, Control_c, 14, 11, 76
14, 128171, Note_on_c, 14, 43, 104
14, 128171, Control_c, 14, 11, 77
14, 128207, Control_c, 14, 11, 78
14, 128243, Control_c, 14, 11, 79
14, 128279, Control_c, 14, 11, 80
14, 128291, Note_on_c, 14, 43, 0
14, 128315, Control_c, 14, 11, 81
14, 128351, Control_c, 14, 11, 82
14, 128387, Control_c, 14, 11, 83
14, 128423, Control_c, 14, 11, 84
14, 128459, Control_c, 14, 11, 85
14, 128495, Control_c, 14, 11, 86
14, 128531, Control_c, 14, 11, 87
14, 128531, Note_on_c, 14, 36, 104
14, 128651, Note_on_c, 14, 36, 0
14, 128891, Note_on_c, 14, 31, 104
14, 129011, Note_on_c, 14, 31, 0
14, 129251, Note_on_c, 14, 36, 104
14, 129251, Control_c, 14, 11, 102
14, 129371, Note_on_c, 14, 36, 0
14, 129611, Note_on_c, 14, 43, 104
14, 129671, Note_on_c, 14, 43, 0
14, 129731, Note_on_c, 14, 43, 104
14, 129791, Note_on_c, 14, 43, 0
14, 129851, Note_on_c, 14, 43, 104
14, 129911, Note_on_c, 14, 43, 0
14, 129971, Note_on_c, 14, 48, 104
14, 130031, Note_on_c, 14, 48, 0
14, 130091, Note_on_c, 14, 43, 104
14, 130151, Note_on_c, 14, 43, 0
14, 130211, Note_on_c, 14, 40, 104
14, 130271, Note_on_c, 14, 40, 0
14, 130331, Note_on_c, 14, 36, 104
14, 130391, Note_on_c, 14, 36, 0
14, 130691, Control_c, 14, 121, 0
14, 130691, End_track
15, 0, Start_track
15, 0, MIDI_port, 0
15, 0, Title_t, "Sequ. by J.F.Lucarelli"
15, 0, End_track
16, 0, Start_track
16, 0, MIDI_port, 0
16, 0, Title_t, "j-f.lucarelli@infonie.be  --  http://perso.infonie.fr/espace-midi"
16, 0, End_track
17, 0, Start_track
17, 0, MIDI_port, 0
17, 0, Title_t, "Optimized for AWE 64  + 8 MB memory"
17, 0, End_track
18, 0, Start_track
18, 0, MIDI_port, 0
18, 0, Title_t, "© Juni 2001"
18, 0, End_track
19, 0, Start_track
19, 0, MIDI_port, 0
19, 0, Title_t, "Beethoven - Symphony no 1 in C - Menuetto - Allegro molto e vivace"
19, 0, End_track
0, 0, End_of_file
