0, 0, Header, 1, 17, 240
1, 0, Start_track
1, 0, Sequencer_specific, 10, 0, 0, 91, 35, 1, 0, 5, 6, 42, 0
1, 0, Title_t, "Ludwig van Beethoven - Symphony No. 2 in D Major, Op.36"
1, 0, Instrument_name_t, "Conductor Track"
1, 0, SMPTE_offset, 96, 0, 3, 0, 0
1, 0, MIDI_port, 0
1, 0, Marker_t, "Originally Sequenced 12 Sep 1998"
1, 0, Key_signature, 3, "major"
1, 0, Tempo, 1304347
1, 0, Time_signature, 3, 3, 12, 8
1, 99120, Tempo, 2000000
1, 99720, Tempo, 500000
1, 99720, End_track
2, 0, Start_track
2, 0, Title_t, "2nd Movement - Larghetto"
2, 0, MIDI_port, 0
2, 0, End_track
3, 0, Start_track
3, 0, Title_t, "Sequenced by D. L. Viens 23 Feb 2000"
3, 0, MIDI_port, 0
3, 0, End_track
4, 0, Start_track
4, 0, Title_t, "dlviens@empire.net"
4, 0, MIDI_port, 0
4, 0, End_track
5, 0, Start_track
5, 0, MIDI_port, 0
5, 0, End_track
6, 0, Start_track
6, 0, Title_t, "Flute"
6, 0, MIDI_port, 0
6, 0, Program_c, 0, 73
6, 0, Control_c, 0, 7, 84
6, 0, Control_c, 0, 10, 60
6, 0, Control_c, 0, 11, 127
6, 14340, Note_on_c, 0, 81, 84
6, 14340, Note_on_c, 0, 76, 84
6, 14384, Note_on_c, 0, 81, 0
6, 14384, Note_on_c, 0, 76, 0
6, 14400, Note_on_c, 0, 81, 92
6, 14400, Note_on_c, 0, 75, 92
6, 14571, Note_on_c, 0, 81, 0
6, 14571, Note_on_c, 0, 75, 0
6, 14580, Note_on_c, 0, 76, 84
6, 14580, Note_on_c, 0, 81, 84
6, 14624, Note_on_c, 0, 76, 0
6, 14624, Note_on_c, 0, 81, 0
6, 14640, Note_on_c, 0, 81, 84
6, 14640, Note_on_c, 0, 78, 84
6, 14684, Note_on_c, 0, 81, 0
6, 14684, Note_on_c, 0, 78, 0
6, 14700, Note_on_c, 0, 81, 84
6, 14700, Note_on_c, 0, 76, 84
6, 14744, Note_on_c, 0, 81, 0
6, 14744, Note_on_c, 0, 76, 0
6, 14760, Note_on_c, 0, 81, 84
6, 14760, Note_on_c, 0, 75, 84
6, 14849, Note_on_c, 0, 81, 0
6, 14849, Note_on_c, 0, 75, 0
6, 14880, Note_on_c, 0, 81, 84
6, 14880, Note_on_c, 0, 75, 84
6, 14969, Note_on_c, 0, 81, 0
6, 14969, Note_on_c, 0, 75, 0
6, 16200, Note_on_c, 0, 76, 84
6, 16200, Note_on_c, 0, 88, 84
6, 16289, Note_on_c, 0, 76, 0
6, 16289, Note_on_c, 0, 88, 0
6, 16320, Note_on_c, 0, 88, 84
6, 16320, Note_on_c, 0, 76, 84
6, 16409, Note_on_c, 0, 88, 0
6, 16409, Note_on_c, 0, 76, 0
6, 16440, Note_on_c, 0, 76, 84
6, 16440, Note_on_c, 0, 88, 84
6, 16529, Note_on_c, 0, 76, 0
6, 16529, Note_on_c, 0, 88, 0
6, 16560, Note_on_c, 0, 87, 84
6, 16560, Note_on_c, 0, 75, 84
6, 16649, Note_on_c, 0, 87, 0
6, 16649, Note_on_c, 0, 75, 0
6, 18660, Note_on_c, 0, 83, 52
6, 18704, Note_on_c, 0, 83, 0
6, 18720, Note_on_c, 0, 83, 52
6, 18809, Note_on_c, 0, 83, 0
6, 19020, Note_on_c, 0, 83, 52
6, 19064, Note_on_c, 0, 83, 0
6, 19080, Note_on_c, 0, 83, 52
6, 19169, Note_on_c, 0, 83, 0
6, 19380, Note_on_c, 0, 83, 52
6, 19424, Note_on_c, 0, 83, 0
6, 19440, Note_on_c, 0, 83, 52
6, 19559, Note_on_c, 0, 83, 0
6, 21420, Note_on_c, 0, 78, 76
6, 21420, Note_on_c, 0, 81, 76
6, 21464, Note_on_c, 0, 78, 0
6, 21464, Note_on_c, 0, 81, 0
6, 21480, Note_on_c, 0, 83, 76
6, 21480, Note_on_c, 0, 80, 76
6, 21524, Note_on_c, 0, 83, 0
6, 21524, Note_on_c, 0, 80, 0
6, 21540, Note_on_c, 0, 81, 76
6, 21540, Note_on_c, 0, 85, 76
6, 21584, Note_on_c, 0, 81, 0
6, 21584, Note_on_c, 0, 85, 0
6, 21600, Note_on_c, 0, 80, 84
6, 21600, Control_c, 0, 11, 127
6, 21600, Note_on_c, 0, 76, 84
6, 21630, Control_c, 0, 11, 123
6, 21660, Control_c, 0, 11, 119
6, 21690, Control_c, 0, 11, 115
6, 21720, Control_c, 0, 11, 111
6, 21750, Control_c, 0, 11, 107
6, 21780, Control_c, 0, 11, 104
6, 21810, Control_c, 0, 11, 100
6, 21839, Note_on_c, 0, 80, 0
6, 21839, Note_on_c, 0, 76, 0
6, 21840, Note_on_c, 0, 81, 76
6, 21840, Note_on_c, 0, 78, 76
6, 21840, Control_c, 0, 11, 96
6, 21870, Control_c, 0, 11, 92
6, 21900, Control_c, 0, 11, 88
6, 21929, Note_on_c, 0, 81, 0
6, 21929, Note_on_c, 0, 78, 0
6, 21930, Note_on_c, 0, 78, 76
6, 21930, Control_c, 0, 11, 84
6, 21930, Note_on_c, 0, 75, 76
6, 21955, Note_on_c, 0, 78, 0
6, 21955, Note_on_c, 0, 75, 0
6, 21960, Note_on_c, 0, 76, 76
6, 21960, Control_c, 0, 11, 80
6, 22020, Note_on_c, 0, 87, 76
6, 22064, Note_on_c, 0, 87, 0
6, 22079, Note_on_c, 0, 76, 0
6, 22080, Note_on_c, 0, 88, 76
6, 22124, Note_on_c, 0, 88, 0
6, 22140, Note_on_c, 0, 87, 76
6, 22184, Note_on_c, 0, 87, 0
6, 22200, Note_on_c, 0, 88, 76
6, 22260, Note_on_c, 0, 76, 76
6, 22315, Note_on_c, 0, 76, 0
6, 22320, Control_c, 0, 11, 80
6, 22320, Note_on_c, 0, 76, 76
6, 22400, Control_c, 0, 11, 84
6, 22480, Control_c, 0, 11, 88
6, 22495, Note_on_c, 0, 88, 0
6, 22495, Note_on_c, 0, 76, 0
6, 22500, Note_on_c, 0, 75, 76
6, 22500, Note_on_c, 0, 87, 76
6, 22544, Note_on_c, 0, 75, 0
6, 22544, Note_on_c, 0, 87, 0
6, 22560, Note_on_c, 0, 76, 76
6, 22560, Note_on_c, 0, 88, 76
6, 22560, Control_c, 0, 11, 92
6, 22640, Control_c, 0, 11, 96
6, 22720, Control_c, 0, 11, 100
6, 22800, Control_c, 0, 11, 104
6, 22855, Note_on_c, 0, 76, 0
6, 22855, Note_on_c, 0, 88, 0
6, 22860, Note_on_c, 0, 75, 76
6, 22860, Note_on_c, 0, 87, 76
6, 22880, Control_c, 0, 11, 107
6, 22904, Note_on_c, 0, 75, 0
6, 22904, Note_on_c, 0, 87, 0
6, 22920, Note_on_c, 0, 88, 76
6, 22920, Note_on_c, 0, 76, 76
6, 22960, Control_c, 0, 11, 111
6, 23040, Control_c, 0, 11, 115
6, 23120, Control_c, 0, 11, 119
6, 23200, Control_c, 0, 11, 123
6, 23215, Note_on_c, 0, 88, 0
6, 23220, Note_on_c, 0, 88, 76
6, 23264, Note_on_c, 0, 88, 0
6, 23280, Control_c, 0, 11, 127
6, 23280, Note_on_c, 0, 87, 76
6, 23324, Note_on_c, 0, 87, 0
6, 23335, Note_on_c, 0, 76, 0
6, 23340, Note_on_c, 0, 81, 76
6, 23340, Note_on_c, 0, 85, 76
6, 23384, Note_on_c, 0, 81, 0
6, 23384, Note_on_c, 0, 85, 0
6, 23400, Note_on_c, 0, 83, 84
6, 23400, Note_on_c, 0, 81, 84
6, 23571, Note_on_c, 0, 83, 0
6, 23571, Note_on_c, 0, 81, 0
6, 23580, Note_on_c, 0, 85, 52
6, 23639, Note_on_c, 0, 85, 0
6, 23640, Note_on_c, 0, 83, 52
6, 23699, Note_on_c, 0, 83, 0
6, 23700, Note_on_c, 0, 81, 52
6, 23755, Note_on_c, 0, 81, 0
6, 23760, Note_on_c, 0, 80, 52
6, 23939, Note_on_c, 0, 80, 0
6, 25470, Control_c, 0, 11, 104
6, 25500, Note_on_c, 0, 80, 76
6, 25515, Control_c, 0, 11, 107
6, 25559, Note_on_c, 0, 80, 0
6, 25560, Control_c, 0, 11, 111
6, 25560, Note_on_c, 0, 81, 76
6, 25605, Control_c, 0, 11, 115
6, 25619, Note_on_c, 0, 81, 0
6, 25620, Note_on_c, 0, 83, 76
6, 25650, Control_c, 0, 11, 119
6, 25679, Note_on_c, 0, 83, 0
6, 25680, Note_on_c, 0, 85, 76
6, 25695, Control_c, 0, 11, 123
6, 25724, Note_on_c, 0, 85, 0
6, 25740, Control_c, 0, 11, 127
6, 25740, Note_on_c, 0, 80, 76
6, 25799, Note_on_c, 0, 80, 0
6, 25800, Note_on_c, 0, 81, 76
6, 25859, Note_on_c, 0, 81, 0
6, 25860, Note_on_c, 0, 83, 76
6, 25915, Note_on_c, 0, 83, 0
6, 25920, Note_on_c, 0, 85, 84
6, 25920, Note_on_c, 0, 81, 84
6, 26271, Note_on_c, 0, 85, 0
6, 26271, Note_on_c, 0, 81, 0
6, 26280, Note_on_c, 0, 85, 84
6, 26280, Note_on_c, 0, 81, 84
6, 26631, Note_on_c, 0, 85, 0
6, 26631, Note_on_c, 0, 81, 0
6, 26640, Note_on_c, 0, 83, 76
6, 26640, Note_on_c, 0, 81, 76
6, 26706, Note_on_c, 0, 83, 0
6, 26706, Note_on_c, 0, 81, 0
6, 26730, Note_on_c, 0, 83, 76
6, 26730, Note_on_c, 0, 81, 76
6, 26751, Note_on_c, 0, 83, 0
6, 26751, Note_on_c, 0, 81, 0
6, 26760, Note_on_c, 0, 83, 76
6, 26760, Note_on_c, 0, 81, 76
6, 26849, Note_on_c, 0, 83, 0
6, 26849, Note_on_c, 0, 81, 0
6, 27000, Note_on_c, 0, 80, 76
6, 27000, Note_on_c, 0, 83, 76
6, 27066, Note_on_c, 0, 80, 0
6, 27066, Note_on_c, 0, 83, 0
6, 27090, Note_on_c, 0, 80, 76
6, 27090, Note_on_c, 0, 83, 76
6, 27111, Note_on_c, 0, 80, 0
6, 27111, Note_on_c, 0, 83, 0
6, 27120, Note_on_c, 0, 80, 76
6, 27120, Note_on_c, 0, 83, 76
6, 27209, Note_on_c, 0, 80, 0
6, 27209, Note_on_c, 0, 83, 0
6, 28320, Note_on_c, 0, 83, 44
6, 28386, Note_on_c, 0, 83, 0
6, 28410, Note_on_c, 0, 83, 44
6, 28431, Note_on_c, 0, 83, 0
6, 28440, Note_on_c, 0, 83, 44
6, 28529, Note_on_c, 0, 83, 0
6, 28680, Note_on_c, 0, 83, 44
6, 28746, Note_on_c, 0, 83, 0
6, 28770, Note_on_c, 0, 83, 44
6, 28791, Note_on_c, 0, 83, 0
6, 28800, Note_on_c, 0, 84, 44
6, 28829, Note_on_c, 0, 84, 0
6, 28830, Note_on_c, 0, 85, 44
6, 28859, Note_on_c, 0, 85, 0
6, 33120, Control_c, 0, 11, 80
6, 33150, Control_c, 0, 11, 84
6, 33180, Control_c, 0, 11, 88
6, 33210, Control_c, 0, 11, 92
6, 33240, Control_c, 0, 11, 96
6, 33270, Control_c, 0, 11, 100
6, 33300, Control_c, 0, 11, 104
6, 33330, Control_c, 0, 11, 107
6, 33360, Control_c, 0, 11, 111
6, 33360, Note_on_c, 0, 83, 76
6, 33360, Note_on_c, 0, 78, 76
6, 33390, Control_c, 0, 11, 115
6, 33404, Note_on_c, 0, 83, 0
6, 33404, Note_on_c, 0, 78, 0
6, 33420, Note_on_c, 0, 78, 76
6, 33420, Control_c, 0, 11, 119
6, 33420, Note_on_c, 0, 83, 76
6, 33450, Control_c, 0, 11, 123
6, 33464, Note_on_c, 0, 78, 0
6, 33464, Note_on_c, 0, 83, 0
6, 33480, Control_c, 0, 11, 127
6, 33480, Note_on_c, 0, 83, 76
6, 33480, Note_on_c, 0, 80, 76
6, 33524, Note_on_c, 0, 83, 0
6, 33524, Note_on_c, 0, 80, 0
6, 33540, Note_on_c, 0, 83, 84
6, 33540, Note_on_c, 0, 81, 84
6, 33651, Note_on_c, 0, 83, 0
6, 33651, Note_on_c, 0, 81, 0
6, 33660, Note_on_c, 0, 78, 76
6, 33660, Note_on_c, 0, 83, 76
6, 33704, Note_on_c, 0, 78, 0
6, 33704, Note_on_c, 0, 83, 0
6, 33720, Note_on_c, 0, 78, 76
6, 33720, Note_on_c, 0, 83, 76
6, 33764, Note_on_c, 0, 78, 0
6, 33764, Note_on_c, 0, 83, 0
6, 33780, Note_on_c, 0, 83, 76
6, 33780, Note_on_c, 0, 78, 76
6, 33824, Note_on_c, 0, 83, 0
6, 33824, Note_on_c, 0, 78, 0
6, 33840, Note_on_c, 0, 80, 76
6, 33840, Note_on_c, 0, 83, 76
6, 33884, Note_on_c, 0, 80, 0
6, 33884, Note_on_c, 0, 83, 0
6, 33900, Note_on_c, 0, 81, 84
6, 33900, Note_on_c, 0, 83, 84
6, 34011, Note_on_c, 0, 81, 0
6, 34011, Note_on_c, 0, 83, 0
6, 34020, Note_on_c, 0, 78, 76
6, 34020, Note_on_c, 0, 83, 76
6, 34064, Note_on_c, 0, 78, 0
6, 34064, Note_on_c, 0, 83, 0
6, 34080, Note_on_c, 0, 83, 76
6, 34080, Note_on_c, 0, 78, 76
6, 34124, Note_on_c, 0, 83, 0
6, 34124, Note_on_c, 0, 78, 0
6, 34140, Note_on_c, 0, 78, 76
6, 34140, Note_on_c, 0, 83, 76
6, 34184, Note_on_c, 0, 78, 0
6, 34184, Note_on_c, 0, 83, 0
6, 34200, Note_on_c, 0, 80, 76
6, 34200, Note_on_c, 0, 83, 76
6, 34289, Note_on_c, 0, 80, 0
6, 34289, Note_on_c, 0, 83, 0
6, 34320, Note_on_c, 0, 83, 52
6, 34320, Note_on_c, 0, 80, 52
6, 34409, Note_on_c, 0, 83, 0
6, 34409, Note_on_c, 0, 80, 0
6, 34560, Control_c, 0, 11, 127
6, 34590, Control_c, 0, 11, 126
6, 34620, Control_c, 0, 11, 125
6, 34650, Control_c, 0, 11, 123
6, 34680, Note_on_c, 0, 76, 52
6, 34680, Control_c, 0, 11, 122
6, 34680, Note_on_c, 0, 80, 52
6, 34710, Control_c, 0, 11, 121
6, 34740, Control_c, 0, 11, 120
6, 34770, Control_c, 0, 11, 118
6, 34799, Note_on_c, 0, 76, 0
6, 34799, Note_on_c, 0, 80, 0
6, 34800, Control_c, 0, 11, 117
6, 34830, Control_c, 0, 11, 116
6, 34860, Control_c, 0, 11, 115
6, 34890, Control_c, 0, 11, 113
6, 34920, Control_c, 0, 11, 112
6, 35040, Note_on_c, 0, 76, 52
6, 35040, Note_on_c, 0, 71, 52
6, 35159, Note_on_c, 0, 76, 0
6, 35159, Note_on_c, 0, 71, 0
6, 36960, Control_c, 0, 11, 96
6, 37080, Note_on_c, 0, 79, 68
6, 37080, Note_on_c, 0, 67, 68
6, 37080, Control_c, 0, 11, 96
6, 37170, Control_c, 0, 11, 99
6, 37260, Control_c, 0, 11, 101
6, 37350, Control_c, 0, 11, 104
6, 37440, Control_c, 0, 11, 106
6, 37530, Control_c, 0, 11, 109
6, 37620, Control_c, 0, 11, 112
6, 37710, Control_c, 0, 11, 114
6, 37800, Control_c, 0, 11, 117
6, 37890, Control_c, 0, 11, 119
6, 37980, Control_c, 0, 11, 122
6, 38070, Control_c, 0, 11, 124
6, 38160, Control_c, 0, 11, 127
6, 38279, Note_on_c, 0, 79, 0
6, 38279, Note_on_c, 0, 67, 0
6, 39000, Note_on_c, 0, 88, 52
6, 39119, Note_on_c, 0, 88, 0
6, 39120, Note_on_c, 0, 86, 52
6, 39239, Note_on_c, 0, 86, 0
6, 39240, Note_on_c, 0, 85, 52
6, 39359, Note_on_c, 0, 85, 0
6, 39720, Note_on_c, 0, 88, 52
6, 39764, Note_on_c, 0, 88, 0
6, 39780, Note_on_c, 0, 88, 52
6, 39824, Note_on_c, 0, 88, 0
6, 39840, Note_on_c, 0, 86, 52
6, 39884, Note_on_c, 0, 86, 0
6, 39900, Note_on_c, 0, 86, 52
6, 39944, Note_on_c, 0, 86, 0
6, 39960, Note_on_c, 0, 85, 52
6, 40079, Note_on_c, 0, 85, 0
6, 40200, Control_c, 0, 11, 80
6, 40320, Note_on_c, 0, 88, 76
6, 40320, Note_on_c, 0, 76, 76
6, 40364, Note_on_c, 0, 88, 0
6, 40364, Note_on_c, 0, 76, 0
6, 40380, Note_on_c, 0, 88, 76
6, 40380, Control_c, 0, 11, 84
6, 40380, Note_on_c, 0, 79, 76
6, 40424, Note_on_c, 0, 88, 0
6, 40424, Note_on_c, 0, 79, 0
6, 40440, Note_on_c, 0, 79, 76
6, 40440, Note_on_c, 0, 88, 76
6, 40440, Control_c, 0, 11, 88
6, 40484, Note_on_c, 0, 79, 0
6, 40484, Note_on_c, 0, 88, 0
6, 40500, Note_on_c, 0, 88, 76
6, 40500, Control_c, 0, 11, 92
6, 40500, Note_on_c, 0, 79, 76
6, 40544, Note_on_c, 0, 88, 0
6, 40544, Note_on_c, 0, 79, 0
6, 40560, Control_c, 0, 11, 96
6, 40560, Note_on_c, 0, 79, 76
6, 40560, Note_on_c, 0, 88, 76
6, 40604, Note_on_c, 0, 79, 0
6, 40604, Note_on_c, 0, 88, 0
6, 40620, Note_on_c, 0, 79, 76
6, 40620, Note_on_c, 0, 88, 76
6, 40620, Control_c, 0, 11, 100
6, 40664, Note_on_c, 0, 79, 0
6, 40664, Note_on_c, 0, 88, 0
6, 40680, Control_c, 0, 11, 104
6, 40680, Note_on_c, 0, 88, 76
6, 40680, Note_on_c, 0, 91, 76
6, 40724, Note_on_c, 0, 88, 0
6, 40724, Note_on_c, 0, 91, 0
6, 40740, Note_on_c, 0, 88, 76
6, 40740, Control_c, 0, 11, 107
6, 40740, Note_on_c, 0, 91, 76
6, 40784, Note_on_c, 0, 88, 0
6, 40784, Note_on_c, 0, 91, 0
6, 40800, Note_on_c, 0, 88, 76
6, 40800, Control_c, 0, 11, 111
6, 40800, Note_on_c, 0, 91, 76
6, 40844, Note_on_c, 0, 88, 0
6, 40844, Note_on_c, 0, 91, 0
6, 40860, Note_on_c, 0, 91, 76
6, 40860, Control_c, 0, 11, 115
6, 40860, Note_on_c, 0, 88, 76
6, 40904, Note_on_c, 0, 91, 0
6, 40904, Note_on_c, 0, 88, 0
6, 40920, Control_c, 0, 11, 119
6, 40920, Note_on_c, 0, 88, 76
6, 40920, Note_on_c, 0, 91, 76
6, 40964, Note_on_c, 0, 88, 0
6, 40964, Note_on_c, 0, 91, 0
6, 40980, Note_on_c, 0, 91, 76
6, 40980, Note_on_c, 0, 88, 76
6, 40980, Control_c, 0, 11, 123
6, 41024, Note_on_c, 0, 91, 0
6, 41024, Note_on_c, 0, 88, 0
6, 41040, Control_c, 0, 11, 127
6, 41040, Note_on_c, 0, 88, 76
6, 41040, Note_on_c, 0, 91, 76
6, 41391, Note_on_c, 0, 88, 0
6, 41391, Note_on_c, 0, 91, 0
6, 41400, Note_on_c, 0, 81, 76
6, 41400, Note_on_c, 0, 87, 76
6, 41489, Note_on_c, 0, 81, 0
6, 41489, Note_on_c, 0, 87, 0
6, 41520, Note_on_c, 0, 87, 76
6, 41520, Note_on_c, 0, 81, 76
6, 41609, Note_on_c, 0, 87, 0
6, 41609, Note_on_c, 0, 81, 0
6, 41640, Note_on_c, 0, 81, 76
6, 41640, Note_on_c, 0, 87, 76
6, 41729, Note_on_c, 0, 81, 0
6, 41729, Note_on_c, 0, 87, 0
6, 41760, Note_on_c, 0, 79, 76
6, 41760, Note_on_c, 0, 88, 76
6, 41879, Note_on_c, 0, 79, 0
6, 41879, Note_on_c, 0, 88, 0
6, 42600, Note_on_c, 0, 86, 44
6, 42719, Note_on_c, 0, 86, 0
6, 42720, Note_on_c, 0, 88, 44
6, 42839, Note_on_c, 0, 88, 0
6, 42840, Note_on_c, 0, 89, 44
6, 42959, Note_on_c, 0, 89, 0
6, 43320, Note_on_c, 0, 86, 44
6, 43364, Note_on_c, 0, 86, 0
6, 43380, Note_on_c, 0, 86, 44
6, 43424, Note_on_c, 0, 86, 0
6, 43440, Note_on_c, 0, 88, 44
6, 43484, Note_on_c, 0, 88, 0
6, 43500, Note_on_c, 0, 88, 44
6, 43544, Note_on_c, 0, 88, 0
6, 43560, Note_on_c, 0, 89, 44
6, 43679, Note_on_c, 0, 89, 0
6, 44040, Note_on_c, 0, 86, 44
6, 44084, Note_on_c, 0, 86, 0
6, 44100, Note_on_c, 0, 86, 44
6, 44144, Note_on_c, 0, 86, 0
6, 44160, Note_on_c, 0, 88, 44
6, 44204, Note_on_c, 0, 88, 0
6, 44220, Note_on_c, 0, 88, 44
6, 44264, Note_on_c, 0, 88, 0
6, 44280, Note_on_c, 0, 77, 44
6, 44280, Note_on_c, 0, 89, 44
6, 44331, Note_on_c, 0, 77, 0
6, 44331, Note_on_c, 0, 89, 0
6, 44340, Note_on_c, 0, 77, 46
6, 44340, Note_on_c, 0, 89, 46
6, 44391, Note_on_c, 0, 77, 0
6, 44391, Note_on_c, 0, 89, 0
6, 44400, Note_on_c, 0, 77, 49
6, 44400, Note_on_c, 0, 89, 49
6, 44451, Note_on_c, 0, 77, 0
6, 44451, Note_on_c, 0, 89, 0
6, 44460, Note_on_c, 0, 89, 52
6, 44460, Note_on_c, 0, 77, 52
6, 44511, Note_on_c, 0, 89, 0
6, 44511, Note_on_c, 0, 77, 0
6, 44520, Note_on_c, 0, 77, 54
6, 44520, Note_on_c, 0, 89, 54
6, 44571, Note_on_c, 0, 77, 0
6, 44571, Note_on_c, 0, 89, 0
6, 44580, Note_on_c, 0, 89, 57
6, 44580, Note_on_c, 0, 77, 57
6, 44631, Note_on_c, 0, 89, 0
6, 44631, Note_on_c, 0, 77, 0
6, 44640, Note_on_c, 0, 80, 60
6, 44640, Note_on_c, 0, 83, 60
6, 44691, Note_on_c, 0, 80, 0
6, 44691, Note_on_c, 0, 83, 0
6, 44700, Note_on_c, 0, 80, 62
6, 44700, Note_on_c, 0, 83, 62
6, 44751, Note_on_c, 0, 80, 0
6, 44751, Note_on_c, 0, 83, 0
6, 44760, Note_on_c, 0, 83, 65
6, 44760, Note_on_c, 0, 80, 65
6, 44811, Note_on_c, 0, 83, 0
6, 44811, Note_on_c, 0, 80, 0
6, 44820, Note_on_c, 0, 83, 68
6, 44820, Note_on_c, 0, 80, 68
6, 44871, Note_on_c, 0, 83, 0
6, 44871, Note_on_c, 0, 80, 0
6, 44880, Note_on_c, 0, 83, 70
6, 44880, Note_on_c, 0, 80, 70
6, 44931, Note_on_c, 0, 83, 0
6, 44931, Note_on_c, 0, 80, 0
6, 44940, Note_on_c, 0, 80, 73
6, 44940, Note_on_c, 0, 83, 73
6, 44991, Note_on_c, 0, 80, 0
6, 44991, Note_on_c, 0, 83, 0
6, 45000, Note_on_c, 0, 81, 76
6, 45000, Note_on_c, 0, 84, 76
6, 45351, Note_on_c, 0, 81, 0
6, 45351, Note_on_c, 0, 84, 0
6, 45360, Note_on_c, 0, 88, 76
6, 45360, Note_on_c, 0, 82, 76
6, 45449, Note_on_c, 0, 88, 0
6, 45449, Note_on_c, 0, 82, 0
6, 45480, Note_on_c, 0, 88, 76
6, 45480, Note_on_c, 0, 82, 76
6, 45569, Note_on_c, 0, 88, 0
6, 45569, Note_on_c, 0, 82, 0
6, 45600, Note_on_c, 0, 82, 76
6, 45600, Note_on_c, 0, 88, 76
6, 45689, Note_on_c, 0, 82, 0
6, 45689, Note_on_c, 0, 88, 0
6, 45720, Note_on_c, 0, 89, 84
6, 45720, Note_on_c, 0, 81, 84
6, 45839, Note_on_c, 0, 89, 0
6, 45839, Note_on_c, 0, 81, 0
6, 47160, Note_on_c, 0, 84, 84
6, 47215, Note_on_c, 0, 84, 0
6, 47220, Note_on_c, 0, 84, 84
6, 47245, Note_on_c, 0, 84, 0
6, 47250, Note_on_c, 0, 84, 84
6, 47275, Note_on_c, 0, 84, 0
6, 47280, Note_on_c, 0, 84, 84
6, 47335, Note_on_c, 0, 84, 0
6, 47340, Note_on_c, 0, 84, 84
6, 47365, Note_on_c, 0, 84, 0
6, 47370, Note_on_c, 0, 84, 84
6, 47395, Note_on_c, 0, 84, 0
6, 47400, Note_on_c, 0, 84, 84
6, 47455, Note_on_c, 0, 84, 0
6, 47460, Note_on_c, 0, 84, 84
6, 47485, Note_on_c, 0, 84, 0
6, 47490, Note_on_c, 0, 84, 84
6, 47515, Note_on_c, 0, 84, 0
6, 47520, Note_on_c, 0, 84, 84
6, 47575, Note_on_c, 0, 84, 0
6, 47580, Note_on_c, 0, 84, 84
6, 47605, Note_on_c, 0, 84, 0
6, 47610, Note_on_c, 0, 84, 84
6, 47635, Note_on_c, 0, 84, 0
6, 47640, Note_on_c, 0, 84, 84
6, 47695, Note_on_c, 0, 84, 0
6, 47700, Note_on_c, 0, 84, 84
6, 47725, Note_on_c, 0, 84, 0
6, 47730, Note_on_c, 0, 84, 84
6, 47755, Note_on_c, 0, 84, 0
6, 47760, Note_on_c, 0, 84, 84
6, 47815, Note_on_c, 0, 84, 0
6, 47820, Note_on_c, 0, 84, 84
6, 47845, Note_on_c, 0, 84, 0
6, 47850, Note_on_c, 0, 84, 84
6, 47875, Note_on_c, 0, 84, 0
6, 47880, Note_on_c, 0, 84, 84
6, 47935, Note_on_c, 0, 84, 0
6, 47940, Note_on_c, 0, 84, 84
6, 47965, Note_on_c, 0, 84, 0
6, 47970, Note_on_c, 0, 84, 84
6, 47995, Note_on_c, 0, 84, 0
6, 48000, Note_on_c, 0, 84, 84
6, 48055, Note_on_c, 0, 84, 0
6, 48060, Note_on_c, 0, 84, 84
6, 48085, Note_on_c, 0, 84, 0
6, 48090, Note_on_c, 0, 84, 84
6, 48115, Note_on_c, 0, 84, 0
6, 48120, Note_on_c, 0, 84, 84
6, 48175, Note_on_c, 0, 84, 0
6, 48180, Note_on_c, 0, 84, 84
6, 48205, Note_on_c, 0, 84, 0
6, 48210, Note_on_c, 0, 84, 84
6, 48235, Note_on_c, 0, 84, 0
6, 48240, Note_on_c, 0, 84, 84
6, 48295, Note_on_c, 0, 84, 0
6, 48300, Note_on_c, 0, 84, 84
6, 48325, Note_on_c, 0, 84, 0
6, 48330, Note_on_c, 0, 84, 84
6, 48355, Note_on_c, 0, 84, 0
6, 48360, Note_on_c, 0, 84, 84
6, 48415, Note_on_c, 0, 84, 0
6, 48420, Note_on_c, 0, 84, 84
6, 48445, Note_on_c, 0, 84, 0
6, 48450, Note_on_c, 0, 84, 84
6, 48475, Note_on_c, 0, 84, 0
6, 48480, Note_on_c, 0, 84, 84
6, 48535, Note_on_c, 0, 84, 0
6, 48540, Note_on_c, 0, 84, 84
6, 48565, Note_on_c, 0, 84, 0
6, 48570, Note_on_c, 0, 84, 84
6, 48595, Note_on_c, 0, 84, 0
6, 48600, Note_on_c, 0, 84, 84
6, 48720, Note_on_c, 0, 89, 84
6, 48831, Note_on_c, 0, 89, 0
6, 48840, Note_on_c, 0, 89, 84
6, 48951, Note_on_c, 0, 84, 0
6, 48951, Note_on_c, 0, 89, 0
6, 48960, Note_on_c, 0, 84, 84
6, 48960, Note_on_c, 0, 90, 84
6, 49311, Note_on_c, 0, 84, 0
6, 49311, Note_on_c, 0, 90, 0
6, 49320, Note_on_c, 0, 91, 84
6, 49320, Note_on_c, 0, 83, 84
6, 49439, Note_on_c, 0, 91, 0
6, 49439, Note_on_c, 0, 83, 0
6, 53640, Note_on_c, 0, 91, 84
6, 53640, Note_on_c, 0, 88, 84
6, 53999, Note_on_c, 0, 91, 0
6, 53999, Note_on_c, 0, 88, 0
6, 54000, Note_on_c, 0, 90, 84
6, 54000, Note_on_c, 0, 86, 84
6, 54351, Note_on_c, 0, 90, 0
6, 54351, Note_on_c, 0, 86, 0
6, 54360, Note_on_c, 0, 90, 92
6, 54360, Note_on_c, 0, 86, 92
6, 54711, Note_on_c, 0, 86, 0
6, 54720, Note_on_c, 0, 83, 84
6, 54720, Control_c, 0, 11, 127
6, 54750, Control_c, 0, 11, 122
6, 54780, Control_c, 0, 11, 117
6, 54810, Control_c, 0, 11, 111
6, 54839, Note_on_c, 0, 90, 0
6, 54840, Note_on_c, 0, 88, 84
6, 54840, Control_c, 0, 11, 106
6, 54870, Control_c, 0, 11, 101
6, 54900, Control_c, 0, 11, 96
6, 54930, Control_c, 0, 11, 90
6, 54959, Note_on_c, 0, 88, 0
6, 54960, Control_c, 0, 11, 85
6, 54960, Note_on_c, 0, 86, 84
6, 54990, Control_c, 0, 11, 80
6, 55020, Control_c, 0, 11, 75
6, 55050, Control_c, 0, 11, 69
6, 55071, Note_on_c, 0, 83, 0
6, 55071, Note_on_c, 0, 86, 0
6, 55080, Control_c, 0, 11, 64
6, 55080, Note_on_c, 0, 85, 84
6, 55080, Note_on_c, 0, 81, 84
6, 55199, Note_on_c, 0, 85, 0
6, 55199, Note_on_c, 0, 81, 0
6, 72360, Control_c, 0, 11, 127
6, 72480, Note_on_c, 0, 89, 84
6, 72569, Note_on_c, 0, 89, 0
6, 72570, Note_on_c, 0, 86, 76
6, 72595, Note_on_c, 0, 86, 0
6, 72600, Note_on_c, 0, 82, 76
6, 72689, Note_on_c, 0, 82, 0
6, 72840, Note_on_c, 0, 90, 84
6, 72929, Note_on_c, 0, 90, 0
6, 72930, Note_on_c, 0, 84, 76
6, 72955, Note_on_c, 0, 84, 0
6, 72960, Note_on_c, 0, 81, 76
6, 73049, Note_on_c, 0, 81, 0
6, 73080, Note_on_c, 0, 80, 76
6, 73199, Note_on_c, 0, 80, 0
6, 74580, Note_on_c, 0, 86, 84
6, 74580, Note_on_c, 0, 83, 84
6, 74669, Note_on_c, 0, 86, 0
6, 74669, Note_on_c, 0, 83, 0
6, 74700, Note_on_c, 0, 83, 76
6, 74700, Note_on_c, 0, 86, 76
6, 74744, Note_on_c, 0, 83, 0
6, 74744, Note_on_c, 0, 86, 0
6, 74760, Note_on_c, 0, 84, 76
6, 74760, Note_on_c, 0, 81, 76
6, 74804, Note_on_c, 0, 84, 0
6, 74804, Note_on_c, 0, 81, 0
6, 74820, Note_on_c, 0, 84, 76
6, 74820, Note_on_c, 0, 81, 76
6, 74864, Note_on_c, 0, 84, 0
6, 74864, Note_on_c, 0, 81, 0
6, 74880, Note_on_c, 0, 83, 84
6, 74880, Note_on_c, 0, 80, 84
6, 74924, Note_on_c, 0, 83, 0
6, 74924, Note_on_c, 0, 80, 0
6, 74940, Note_on_c, 0, 86, 84
6, 74940, Note_on_c, 0, 83, 84
6, 74984, Note_on_c, 0, 86, 0
6, 74984, Note_on_c, 0, 83, 0
6, 75000, Note_on_c, 0, 86, 84
6, 75000, Note_on_c, 0, 83, 84
6, 75044, Note_on_c, 0, 86, 0
6, 75044, Note_on_c, 0, 83, 0
6, 75060, Note_on_c, 0, 86, 84
6, 75060, Note_on_c, 0, 83, 84
6, 75104, Note_on_c, 0, 86, 0
6, 75104, Note_on_c, 0, 83, 0
6, 75120, Note_on_c, 0, 84, 84
6, 75120, Note_on_c, 0, 81, 84
6, 75164, Note_on_c, 0, 84, 0
6, 75164, Note_on_c, 0, 81, 0
6, 75180, Note_on_c, 0, 84, 84
6, 75180, Note_on_c, 0, 81, 84
6, 75224, Note_on_c, 0, 84, 0
6, 75224, Note_on_c, 0, 81, 0
6, 75240, Note_on_c, 0, 83, 84
6, 75240, Note_on_c, 0, 80, 84
6, 75359, Note_on_c, 0, 83, 0
6, 75359, Note_on_c, 0, 80, 0
6, 77580, Note_on_c, 0, 76, 52
6, 77624, Note_on_c, 0, 76, 0
6, 77640, Note_on_c, 0, 83, 52
6, 77684, Note_on_c, 0, 83, 0
6, 77940, Note_on_c, 0, 76, 52
6, 77984, Note_on_c, 0, 76, 0
6, 78000, Note_on_c, 0, 85, 52
6, 78044, Note_on_c, 0, 85, 0
6, 78300, Note_on_c, 0, 76, 52
6, 78344, Note_on_c, 0, 76, 0
6, 78360, Note_on_c, 0, 86, 52
6, 78404, Note_on_c, 0, 86, 0
6, 78420, Note_on_c, 0, 74, 52
6, 78464, Note_on_c, 0, 74, 0
6, 78480, Note_on_c, 0, 73, 52
6, 78599, Note_on_c, 0, 73, 0
6, 80640, Note_on_c, 0, 85, 84
6, 80640, Note_on_c, 0, 81, 84
6, 80640, Control_c, 0, 11, 127
6, 80670, Control_c, 0, 11, 123
6, 80700, Control_c, 0, 11, 119
6, 80730, Control_c, 0, 11, 115
6, 80760, Control_c, 0, 11, 111
6, 80790, Control_c, 0, 11, 107
6, 80820, Control_c, 0, 11, 104
6, 80850, Control_c, 0, 11, 100
6, 80879, Note_on_c, 0, 85, 0
6, 80879, Note_on_c, 0, 81, 0
6, 80880, Control_c, 0, 11, 96
6, 80880, Note_on_c, 0, 86, 76
6, 80880, Note_on_c, 0, 83, 76
6, 80910, Control_c, 0, 11, 92
6, 80940, Control_c, 0, 11, 88
6, 80969, Note_on_c, 0, 86, 0
6, 80969, Note_on_c, 0, 83, 0
6, 80970, Note_on_c, 0, 83, 76
6, 80970, Note_on_c, 0, 80, 76
6, 80970, Control_c, 0, 11, 84
6, 80995, Note_on_c, 0, 83, 0
6, 80995, Note_on_c, 0, 80, 0
6, 81000, Control_c, 0, 11, 80
6, 81000, Note_on_c, 0, 81, 76
6, 81089, Note_on_c, 0, 81, 0
6, 81300, Note_on_c, 0, 81, 76
6, 81344, Note_on_c, 0, 81, 0
6, 81360, Note_on_c, 0, 83, 76
6, 81360, Control_c, 0, 11, 80
6, 81404, Note_on_c, 0, 83, 0
6, 81420, Note_on_c, 0, 81, 76
6, 81430, Control_c, 0, 11, 84
6, 81464, Note_on_c, 0, 81, 0
6, 81480, Note_on_c, 0, 83, 76
6, 81500, Control_c, 0, 11, 88
6, 81570, Control_c, 0, 11, 92
6, 81640, Control_c, 0, 11, 96
6, 81655, Note_on_c, 0, 83, 0
6, 81660, Note_on_c, 0, 83, 76
6, 81704, Note_on_c, 0, 83, 0
6, 81710, Control_c, 0, 11, 100
6, 81720, Note_on_c, 0, 85, 76
6, 81764, Note_on_c, 0, 85, 0
6, 81780, Note_on_c, 0, 84, 76
6, 81780, Control_c, 0, 11, 104
6, 81824, Note_on_c, 0, 84, 0
6, 81840, Note_on_c, 0, 85, 76
6, 81850, Control_c, 0, 11, 107
6, 81920, Control_c, 0, 11, 111
6, 81990, Control_c, 0, 11, 115
6, 82015, Note_on_c, 0, 85, 0
6, 82020, Note_on_c, 0, 85, 76
6, 82060, Control_c, 0, 11, 119
6, 82064, Note_on_c, 0, 85, 0
6, 82080, Note_on_c, 0, 86, 76
6, 82124, Note_on_c, 0, 86, 0
6, 82130, Control_c, 0, 11, 123
6, 82140, Note_on_c, 0, 85, 76
6, 82184, Note_on_c, 0, 85, 0
6, 82200, Control_c, 0, 11, 127
6, 82200, Note_on_c, 0, 86, 76
6, 82375, Note_on_c, 0, 86, 0
6, 82380, Note_on_c, 0, 86, 76
6, 82424, Note_on_c, 0, 86, 0
6, 82440, Note_on_c, 0, 76, 84
6, 82619, Note_on_c, 0, 76, 0
6, 84510, Control_c, 0, 11, 104
6, 84540, Note_on_c, 0, 73, 76
6, 84540, Note_on_c, 0, 85, 76
6, 84555, Control_c, 0, 11, 107
6, 84599, Note_on_c, 0, 73, 0
6, 84599, Note_on_c, 0, 85, 0
6, 84600, Note_on_c, 0, 86, 76
6, 84600, Control_c, 0, 11, 111
6, 84600, Note_on_c, 0, 74, 76
6, 84645, Control_c, 0, 11, 115
6, 84659, Note_on_c, 0, 86, 0
6, 84659, Note_on_c, 0, 74, 0
6, 84660, Note_on_c, 0, 76, 76
6, 84660, Note_on_c, 0, 88, 76
6, 84690, Control_c, 0, 11, 119
6, 84719, Note_on_c, 0, 76, 0
6, 84719, Note_on_c, 0, 88, 0
6, 84720, Note_on_c, 0, 78, 76
6, 84720, Note_on_c, 0, 90, 76
6, 84735, Control_c, 0, 11, 123
6, 84764, Note_on_c, 0, 78, 0
6, 84764, Note_on_c, 0, 90, 0
6, 84780, Control_c, 0, 11, 127
6, 84780, Note_on_c, 0, 85, 76
6, 84780, Note_on_c, 0, 73, 76
6, 84839, Note_on_c, 0, 85, 0
6, 84839, Note_on_c, 0, 73, 0
6, 84840, Note_on_c, 0, 74, 76
6, 84840, Note_on_c, 0, 86, 76
6, 84899, Note_on_c, 0, 74, 0
6, 84899, Note_on_c, 0, 86, 0
6, 84900, Note_on_c, 0, 88, 76
6, 84900, Note_on_c, 0, 76, 76
6, 84955, Note_on_c, 0, 88, 0
6, 84955, Note_on_c, 0, 76, 0
6, 84960, Note_on_c, 0, 78, 84
6, 84960, Note_on_c, 0, 90, 84
6, 85311, Note_on_c, 0, 78, 0
6, 85311, Note_on_c, 0, 90, 0
6, 85320, Note_on_c, 0, 90, 84
6, 85320, Note_on_c, 0, 86, 84
6, 85671, Note_on_c, 0, 90, 0
6, 85671, Note_on_c, 0, 86, 0
6, 85680, Note_on_c, 0, 88, 76
6, 85680, Note_on_c, 0, 86, 76
6, 85746, Note_on_c, 0, 88, 0
6, 85746, Note_on_c, 0, 86, 0
6, 85770, Note_on_c, 0, 86, 76
6, 85770, Note_on_c, 0, 88, 76
6, 85791, Note_on_c, 0, 86, 0
6, 85791, Note_on_c, 0, 88, 0
6, 85800, Note_on_c, 0, 88, 76
6, 85800, Note_on_c, 0, 86, 76
6, 85889, Note_on_c, 0, 88, 0
6, 85889, Note_on_c, 0, 86, 0
6, 86040, Note_on_c, 0, 85, 76
6, 86040, Note_on_c, 0, 88, 76
6, 86106, Note_on_c, 0, 85, 0
6, 86106, Note_on_c, 0, 88, 0
6, 86130, Note_on_c, 0, 85, 76
6, 86130, Note_on_c, 0, 88, 76
6, 86151, Note_on_c, 0, 85, 0
6, 86151, Note_on_c, 0, 88, 0
6, 86160, Note_on_c, 0, 88, 76
6, 86160, Note_on_c, 0, 85, 76
6, 86249, Note_on_c, 0, 88, 0
6, 86249, Note_on_c, 0, 85, 0
6, 87360, Note_on_c, 0, 88, 44
6, 87426, Note_on_c, 0, 88, 0
6, 87450, Note_on_c, 0, 88, 44
6, 87471, Note_on_c, 0, 88, 0
6, 87480, Note_on_c, 0, 88, 44
6, 87569, Note_on_c, 0, 88, 0
6, 87720, Note_on_c, 0, 87, 44
6, 87749, Note_on_c, 0, 87, 0
6, 87750, Note_on_c, 0, 88, 44
6, 87775, Note_on_c, 0, 88, 0
6, 87780, Note_on_c, 0, 85, 44
6, 87801, Note_on_c, 0, 85, 0
6, 87810, Note_on_c, 0, 81, 44
6, 87831, Note_on_c, 0, 81, 0
6, 90540, Note_on_c, 0, 86, 52
6, 90599, Note_on_c, 0, 86, 0
6, 90600, Note_on_c, 0, 88, 52
6, 90629, Note_on_c, 0, 88, 0
6, 90630, Note_on_c, 0, 86, 52
6, 90659, Note_on_c, 0, 86, 0
6, 90660, Note_on_c, 0, 85, 52
6, 90689, Note_on_c, 0, 85, 0
6, 90690, Note_on_c, 0, 86, 52
6, 90715, Note_on_c, 0, 86, 0
6, 90720, Note_on_c, 0, 83, 52
6, 90764, Note_on_c, 0, 83, 0
6, 90780, Note_on_c, 0, 86, 52
6, 90824, Note_on_c, 0, 86, 0
6, 90840, Note_on_c, 0, 80, 52
6, 90884, Note_on_c, 0, 80, 0
6, 90900, Note_on_c, 0, 83, 52
6, 90944, Note_on_c, 0, 83, 0
6, 90960, Note_on_c, 0, 76, 52
6, 91004, Note_on_c, 0, 76, 0
6, 91020, Note_on_c, 0, 88, 52
6, 91064, Note_on_c, 0, 88, 0
6, 91080, Note_on_c, 0, 85, 52
6, 91199, Note_on_c, 0, 85, 0
6, 92380, Control_c, 0, 11, 100
6, 92400, Control_c, 0, 11, 104
6, 92400, Note_on_c, 0, 80, 76
6, 92400, Note_on_c, 0, 83, 76
6, 92420, Control_c, 0, 11, 107
6, 92440, Control_c, 0, 11, 111
6, 92444, Note_on_c, 0, 80, 0
6, 92444, Note_on_c, 0, 83, 0
6, 92460, Note_on_c, 0, 80, 76
6, 92460, Note_on_c, 0, 83, 76
6, 92460, Control_c, 0, 11, 115
6, 92480, Control_c, 0, 11, 119
6, 92500, Control_c, 0, 11, 123
6, 92504, Note_on_c, 0, 80, 0
6, 92504, Note_on_c, 0, 83, 0
6, 92520, Note_on_c, 0, 85, 76
6, 92520, Note_on_c, 0, 81, 76
6, 92564, Note_on_c, 0, 85, 0
6, 92564, Note_on_c, 0, 81, 0
6, 92580, Note_on_c, 0, 83, 84
6, 92580, Note_on_c, 0, 86, 84
6, 92691, Note_on_c, 0, 83, 0
6, 92691, Note_on_c, 0, 86, 0
6, 92700, Note_on_c, 0, 80, 76
6, 92700, Note_on_c, 0, 83, 76
6, 92744, Note_on_c, 0, 80, 0
6, 92744, Note_on_c, 0, 83, 0
6, 92760, Note_on_c, 0, 83, 76
6, 92760, Note_on_c, 0, 80, 76
6, 92804, Note_on_c, 0, 83, 0
6, 92804, Note_on_c, 0, 80, 0
6, 92820, Note_on_c, 0, 83, 76
6, 92820, Note_on_c, 0, 80, 76
6, 92864, Note_on_c, 0, 83, 0
6, 92864, Note_on_c, 0, 80, 0
6, 92880, Note_on_c, 0, 81, 76
6, 92880, Note_on_c, 0, 85, 76
6, 92924, Note_on_c, 0, 81, 0
6, 92924, Note_on_c, 0, 85, 0
6, 92940, Note_on_c, 0, 86, 84
6, 92940, Note_on_c, 0, 83, 84
6, 93051, Note_on_c, 0, 86, 0
6, 93051, Note_on_c, 0, 83, 0
6, 93060, Note_on_c, 0, 80, 76
6, 93060, Note_on_c, 0, 83, 76
6, 93104, Note_on_c, 0, 80, 0
6, 93104, Note_on_c, 0, 83, 0
6, 93120, Note_on_c, 0, 80, 76
6, 93120, Note_on_c, 0, 83, 76
6, 93164, Note_on_c, 0, 80, 0
6, 93164, Note_on_c, 0, 83, 0
6, 93180, Note_on_c, 0, 80, 76
6, 93180, Note_on_c, 0, 83, 76
6, 93224, Note_on_c, 0, 80, 0
6, 93224, Note_on_c, 0, 83, 0
6, 93240, Note_on_c, 0, 86, 76
6, 93240, Note_on_c, 0, 83, 76
6, 93329, Note_on_c, 0, 86, 0
6, 93329, Note_on_c, 0, 83, 0
6, 93360, Note_on_c, 0, 86, 76
6, 93360, Note_on_c, 0, 83, 76
6, 93449, Note_on_c, 0, 86, 0
6, 93449, Note_on_c, 0, 83, 0
6, 95100, Note_on_c, 0, 76, 52
6, 95144, Note_on_c, 0, 76, 0
6, 95160, Note_on_c, 0, 81, 52
6, 95204, Note_on_c, 0, 81, 0
6, 95220, Note_on_c, 0, 85, 52
6, 95250, Note_on_c, 0, 88, 52
6, 95264, Note_on_c, 0, 85, 0
6, 95339, Note_on_c, 0, 88, 0
6, 95820, Note_on_c, 0, 76, 52
6, 95864, Note_on_c, 0, 76, 0
6, 95880, Note_on_c, 0, 80, 52
6, 95924, Note_on_c, 0, 80, 0
6, 95940, Note_on_c, 0, 83, 52
6, 95984, Note_on_c, 0, 83, 0
6, 96000, Note_on_c, 0, 88, 52
6, 96089, Note_on_c, 0, 88, 0
6, 96540, Note_on_c, 0, 78, 52
6, 96584, Note_on_c, 0, 78, 0
6, 96600, Note_on_c, 0, 81, 52
6, 96644, Note_on_c, 0, 81, 0
6, 96660, Note_on_c, 0, 86, 52
6, 96704, Note_on_c, 0, 86, 0
6, 96720, Note_on_c, 0, 90, 52
6, 96809, Note_on_c, 0, 90, 0
6, 96900, Note_on_c, 0, 71, 52
6, 96944, Note_on_c, 0, 71, 0
6, 96960, Note_on_c, 0, 76, 52
6, 97004, Note_on_c, 0, 76, 0
6, 97020, Note_on_c, 0, 80, 52
6, 97064, Note_on_c, 0, 80, 0
6, 97080, Note_on_c, 0, 83, 52
6, 97169, Note_on_c, 0, 83, 0
6, 97260, Note_on_c, 0, 73, 52
6, 97304, Note_on_c, 0, 73, 0
6, 97320, Note_on_c, 0, 76, 52
6, 97364, Note_on_c, 0, 76, 0
6, 97380, Note_on_c, 0, 81, 52
6, 97424, Note_on_c, 0, 81, 0
6, 97440, Note_on_c, 0, 85, 52
6, 97529, Note_on_c, 0, 85, 0
6, 97560, Note_on_c, 0, 81, 84
6, 97560, Note_on_c, 0, 85, 84
6, 97679, Note_on_c, 0, 81, 0
6, 97679, Note_on_c, 0, 85, 0
6, 97680, Note_on_c, 0, 80, 84
6, 97680, Note_on_c, 0, 86, 84
6, 97799, Note_on_c, 0, 80, 0
6, 97799, Note_on_c, 0, 86, 0
6, 97800, Note_on_c, 0, 88, 84
6, 97800, Note_on_c, 0, 79, 84
6, 97911, Note_on_c, 0, 88, 0
6, 97911, Note_on_c, 0, 79, 0
6, 97920, Note_on_c, 0, 90, 84
6, 97920, Note_on_c, 0, 78, 84
6, 98009, Note_on_c, 0, 90, 0
6, 98009, Note_on_c, 0, 78, 0
6, 98040, Note_on_c, 0, 86, 92
6, 98040, Note_on_c, 0, 90, 92
6, 98129, Note_on_c, 0, 86, 0
6, 98129, Note_on_c, 0, 90, 0
6, 98400, Note_on_c, 0, 83, 92
6, 98400, Note_on_c, 0, 86, 92
6, 98489, Note_on_c, 0, 83, 0
6, 98489, Note_on_c, 0, 86, 0
6, 98640, Note_on_c, 0, 85, 84
6, 98640, Note_on_c, 0, 81, 84
6, 98729, Note_on_c, 0, 85, 0
6, 98729, Note_on_c, 0, 81, 0
6, 98880, Note_on_c, 0, 81, 52
6, 98880, Note_on_c, 0, 76, 52
6, 98969, Note_on_c, 0, 81, 0
6, 98969, Note_on_c, 0, 76, 0
6, 99000, Note_on_c, 0, 81, 52
6, 99000, Note_on_c, 0, 73, 52
6, 99089, Note_on_c, 0, 81, 0
6, 99089, Note_on_c, 0, 73, 0
6, 99089, End_track
7, 0, Start_track
7, 0, Title_t, "Oboe"
7, 0, MIDI_port, 0
7, 0, Program_c, 1, 68
7, 0, Control_c, 1, 7, 80
7, 0, Control_c, 1, 10, 70
7, 0, Control_c, 1, 11, 127
7, 12960, Control_c, 1, 11, 96
7, 13080, Control_c, 1, 11, 96
7, 13080, Note_on_c, 1, 76, 68
7, 13100, Control_c, 1, 11, 99
7, 13120, Control_c, 1, 11, 101
7, 13140, Control_c, 1, 11, 104
7, 13160, Control_c, 1, 11, 106
7, 13180, Control_c, 1, 11, 109
7, 13200, Control_c, 1, 11, 112
7, 13220, Control_c, 1, 11, 114
7, 13240, Control_c, 1, 11, 117
7, 13255, Note_on_c, 1, 76, 0
7, 13260, Control_c, 1, 11, 119
7, 13260, Note_on_c, 1, 76, 68
7, 13280, Control_c, 1, 11, 122
7, 13300, Control_c, 1, 11, 124
7, 13315, Note_on_c, 1, 76, 0
7, 13320, Note_on_c, 1, 77, 76
7, 13320, Control_c, 1, 11, 127
7, 13379, Note_on_c, 1, 77, 0
7, 13380, Note_on_c, 1, 76, 68
7, 13435, Note_on_c, 1, 76, 0
7, 13440, Note_on_c, 1, 76, 68
7, 13529, Note_on_c, 1, 76, 0
7, 14340, Note_on_c, 1, 72, 84
7, 14340, Note_on_c, 1, 76, 84
7, 14384, Note_on_c, 1, 72, 0
7, 14384, Note_on_c, 1, 76, 0
7, 14400, Note_on_c, 1, 72, 92
7, 14400, Note_on_c, 1, 75, 92
7, 14575, Note_on_c, 1, 72, 0
7, 14575, Note_on_c, 1, 75, 0
7, 14580, Note_on_c, 1, 72, 84
7, 14580, Note_on_c, 1, 76, 84
7, 14624, Note_on_c, 1, 72, 0
7, 14624, Note_on_c, 1, 76, 0
7, 14640, Note_on_c, 1, 72, 84
7, 14640, Note_on_c, 1, 78, 84
7, 14684, Note_on_c, 1, 72, 0
7, 14684, Note_on_c, 1, 78, 0
7, 14700, Note_on_c, 1, 72, 84
7, 14700, Note_on_c, 1, 76, 84
7, 14744, Note_on_c, 1, 72, 0
7, 14744, Note_on_c, 1, 76, 0
7, 14760, Note_on_c, 1, 72, 84
7, 14760, Note_on_c, 1, 75, 84
7, 14849, Note_on_c, 1, 72, 0
7, 14849, Note_on_c, 1, 75, 0
7, 14880, Note_on_c, 1, 75, 84
7, 14880, Note_on_c, 1, 72, 84
7, 14969, Note_on_c, 1, 75, 0
7, 14969, Note_on_c, 1, 72, 0
7, 15120, Note_on_c, 1, 81, 52
7, 15295, Note_on_c, 1, 81, 0
7, 15300, Note_on_c, 1, 81, 52
7, 15344, Note_on_c, 1, 81, 0
7, 15360, Note_on_c, 1, 81, 52
7, 15404, Note_on_c, 1, 81, 0
7, 15420, Note_on_c, 1, 81, 52
7, 15464, Note_on_c, 1, 81, 0
7, 15480, Note_on_c, 1, 81, 52
7, 15569, Note_on_c, 1, 81, 0
7, 15600, Note_on_c, 1, 81, 52
7, 15689, Note_on_c, 1, 81, 0
7, 16200, Note_on_c, 1, 70, 84
7, 16200, Note_on_c, 1, 76, 84
7, 16289, Note_on_c, 1, 70, 0
7, 16289, Note_on_c, 1, 76, 0
7, 16320, Note_on_c, 1, 76, 84
7, 16320, Note_on_c, 1, 70, 84
7, 16409, Note_on_c, 1, 76, 0
7, 16409, Note_on_c, 1, 70, 0
7, 16440, Note_on_c, 1, 70, 84
7, 16440, Note_on_c, 1, 76, 84
7, 16529, Note_on_c, 1, 70, 0
7, 16529, Note_on_c, 1, 76, 0
7, 16560, Note_on_c, 1, 75, 84
7, 16560, Note_on_c, 1, 71, 84
7, 16649, Note_on_c, 1, 75, 0
7, 16649, Note_on_c, 1, 71, 0
7, 18540, Note_on_c, 1, 71, 52
7, 18584, Note_on_c, 1, 71, 0
7, 18600, Note_on_c, 1, 78, 52
7, 18644, Note_on_c, 1, 78, 0
7, 18900, Note_on_c, 1, 71, 52
7, 18944, Note_on_c, 1, 71, 0
7, 18960, Note_on_c, 1, 80, 52
7, 19004, Note_on_c, 1, 80, 0
7, 19260, Note_on_c, 1, 71, 52
7, 19304, Note_on_c, 1, 71, 0
7, 19320, Note_on_c, 1, 81, 52
7, 19364, Note_on_c, 1, 81, 0
7, 19440, Note_on_c, 1, 80, 52
7, 19559, Note_on_c, 1, 80, 0
7, 22080, Control_c, 1, 11, 80
7, 22260, Note_on_c, 1, 76, 76
7, 22315, Note_on_c, 1, 76, 0
7, 22320, Note_on_c, 1, 76, 76
7, 22320, Note_on_c, 1, 78, 76
7, 22320, Control_c, 1, 11, 80
7, 22364, Note_on_c, 1, 76, 0
7, 22375, Note_on_c, 1, 78, 0
7, 22380, Note_on_c, 1, 76, 76
7, 22390, Control_c, 1, 11, 84
7, 22435, Note_on_c, 1, 76, 0
7, 22440, Note_on_c, 1, 78, 76
7, 22440, Note_on_c, 1, 76, 76
7, 22460, Control_c, 1, 11, 88
7, 22530, Control_c, 1, 11, 92
7, 22600, Control_c, 1, 11, 96
7, 22615, Note_on_c, 1, 78, 0
7, 22615, Note_on_c, 1, 76, 0
7, 22620, Note_on_c, 1, 76, 76
7, 22620, Note_on_c, 1, 78, 76
7, 22670, Control_c, 1, 11, 100
7, 22675, Note_on_c, 1, 76, 0
7, 22675, Note_on_c, 1, 78, 0
7, 22680, Note_on_c, 1, 76, 76
7, 22680, Note_on_c, 1, 80, 76
7, 22724, Note_on_c, 1, 76, 0
7, 22724, Note_on_c, 1, 80, 0
7, 22740, Control_c, 1, 11, 104
7, 22740, Note_on_c, 1, 76, 76
7, 22740, Note_on_c, 1, 79, 76
7, 22784, Note_on_c, 1, 76, 0
7, 22784, Note_on_c, 1, 79, 0
7, 22800, Note_on_c, 1, 76, 76
7, 22800, Note_on_c, 1, 80, 76
7, 22810, Control_c, 1, 11, 107
7, 22880, Control_c, 1, 11, 111
7, 22950, Control_c, 1, 11, 115
7, 22975, Note_on_c, 1, 76, 0
7, 22975, Note_on_c, 1, 80, 0
7, 22980, Note_on_c, 1, 76, 76
7, 22980, Note_on_c, 1, 80, 76
7, 23020, Control_c, 1, 11, 119
7, 23024, Note_on_c, 1, 76, 0
7, 23024, Note_on_c, 1, 80, 0
7, 23040, Note_on_c, 1, 76, 76
7, 23040, Note_on_c, 1, 81, 76
7, 23084, Note_on_c, 1, 76, 0
7, 23084, Note_on_c, 1, 81, 0
7, 23090, Control_c, 1, 11, 123
7, 23100, Note_on_c, 1, 80, 76
7, 23100, Note_on_c, 1, 76, 76
7, 23144, Note_on_c, 1, 80, 0
7, 23144, Note_on_c, 1, 76, 0
7, 23160, Note_on_c, 1, 76, 76
7, 23160, Control_c, 1, 11, 127
7, 23160, Note_on_c, 1, 81, 76
7, 23335, Note_on_c, 1, 76, 0
7, 23335, Note_on_c, 1, 81, 0
7, 23340, Note_on_c, 1, 76, 76
7, 23384, Note_on_c, 1, 76, 0
7, 23400, Note_on_c, 1, 71, 84
7, 23400, Note_on_c, 1, 78, 84
7, 23575, Note_on_c, 1, 71, 0
7, 23575, Note_on_c, 1, 78, 0
7, 23580, Note_on_c, 1, 80, 52
7, 23639, Note_on_c, 1, 80, 0
7, 23640, Note_on_c, 1, 78, 52
7, 23699, Note_on_c, 1, 78, 0
7, 23700, Note_on_c, 1, 75, 52
7, 23755, Note_on_c, 1, 75, 0
7, 23760, Note_on_c, 1, 76, 52
7, 23939, Note_on_c, 1, 76, 0
7, 25920, Note_on_c, 1, 81, 84
7, 25920, Note_on_c, 1, 73, 84
7, 26271, Note_on_c, 1, 81, 0
7, 26271, Note_on_c, 1, 73, 0
7, 26280, Note_on_c, 1, 81, 84
7, 26280, Note_on_c, 1, 73, 84
7, 26631, Note_on_c, 1, 81, 0
7, 26631, Note_on_c, 1, 73, 0
7, 26640, Note_on_c, 1, 71, 76
7, 26640, Note_on_c, 1, 78, 76
7, 26706, Note_on_c, 1, 71, 0
7, 26706, Note_on_c, 1, 78, 0
7, 26730, Note_on_c, 1, 71, 76
7, 26730, Note_on_c, 1, 78, 76
7, 26751, Note_on_c, 1, 71, 0
7, 26751, Note_on_c, 1, 78, 0
7, 26760, Note_on_c, 1, 78, 76
7, 26760, Note_on_c, 1, 71, 76
7, 26849, Note_on_c, 1, 78, 0
7, 26849, Note_on_c, 1, 71, 0
7, 27000, Note_on_c, 1, 71, 76
7, 27000, Note_on_c, 1, 76, 76
7, 27066, Note_on_c, 1, 71, 0
7, 27066, Note_on_c, 1, 76, 0
7, 27090, Note_on_c, 1, 71, 76
7, 27090, Note_on_c, 1, 76, 76
7, 27111, Note_on_c, 1, 71, 0
7, 27111, Note_on_c, 1, 76, 0
7, 27120, Note_on_c, 1, 71, 76
7, 27120, Note_on_c, 1, 76, 76
7, 27209, Note_on_c, 1, 71, 0
7, 27209, Note_on_c, 1, 76, 0
7, 28200, Note_on_c, 1, 81, 44
7, 28200, Note_on_c, 1, 78, 44
7, 28266, Note_on_c, 1, 81, 0
7, 28266, Note_on_c, 1, 78, 0
7, 28290, Note_on_c, 1, 78, 44
7, 28290, Note_on_c, 1, 81, 44
7, 28311, Note_on_c, 1, 78, 0
7, 28311, Note_on_c, 1, 81, 0
7, 28320, Note_on_c, 1, 78, 44
7, 28320, Note_on_c, 1, 81, 44
7, 28409, Note_on_c, 1, 78, 0
7, 28409, Note_on_c, 1, 81, 0
7, 28560, Note_on_c, 1, 80, 44
7, 28560, Note_on_c, 1, 76, 44
7, 28626, Note_on_c, 1, 80, 0
7, 28626, Note_on_c, 1, 76, 0
7, 28650, Note_on_c, 1, 76, 44
7, 28650, Note_on_c, 1, 80, 44
7, 28671, Note_on_c, 1, 76, 0
7, 28671, Note_on_c, 1, 80, 0
7, 28680, Note_on_c, 1, 76, 44
7, 28680, Note_on_c, 1, 80, 44
7, 28769, Note_on_c, 1, 76, 0
7, 28769, Note_on_c, 1, 80, 0
7, 28860, Note_on_c, 1, 78, 44
7, 28919, Note_on_c, 1, 78, 0
7, 28980, Note_on_c, 1, 71, 44
7, 28980, Note_on_c, 1, 76, 44
7, 29039, Note_on_c, 1, 71, 0
7, 29039, Note_on_c, 1, 76, 0
7, 29100, Note_on_c, 1, 71, 44
7, 29100, Note_on_c, 1, 75, 44
7, 29159, Note_on_c, 1, 71, 0
7, 29159, Note_on_c, 1, 75, 0
7, 29160, Note_on_c, 1, 76, 44
7, 29160, Note_on_c, 1, 71, 44
7, 29279, Note_on_c, 1, 76, 0
7, 29279, Note_on_c, 1, 71, 0
7, 33330, Control_c, 1, 11, 107
7, 33360, Note_on_c, 1, 75, 76
7, 33360, Note_on_c, 1, 78, 76
7, 33360, Control_c, 1, 11, 111
7, 33390, Control_c, 1, 11, 115
7, 33404, Note_on_c, 1, 75, 0
7, 33404, Note_on_c, 1, 78, 0
7, 33420, Note_on_c, 1, 78, 76
7, 33420, Note_on_c, 1, 75, 76
7, 33420, Control_c, 1, 11, 119
7, 33450, Control_c, 1, 11, 123
7, 33464, Note_on_c, 1, 78, 0
7, 33464, Note_on_c, 1, 75, 0
7, 33480, Control_c, 1, 11, 127
7, 33480, Note_on_c, 1, 80, 76
7, 33480, Note_on_c, 1, 76, 76
7, 33524, Note_on_c, 1, 80, 0
7, 33524, Note_on_c, 1, 76, 0
7, 33540, Note_on_c, 1, 78, 84
7, 33540, Note_on_c, 1, 81, 84
7, 33651, Note_on_c, 1, 78, 0
7, 33651, Note_on_c, 1, 81, 0
7, 33660, Note_on_c, 1, 75, 76
7, 33660, Note_on_c, 1, 78, 76
7, 33704, Note_on_c, 1, 75, 0
7, 33704, Note_on_c, 1, 78, 0
7, 33720, Note_on_c, 1, 75, 76
7, 33720, Note_on_c, 1, 78, 76
7, 33764, Note_on_c, 1, 75, 0
7, 33764, Note_on_c, 1, 78, 0
7, 33780, Note_on_c, 1, 75, 76
7, 33780, Note_on_c, 1, 78, 76
7, 33824, Note_on_c, 1, 75, 0
7, 33824, Note_on_c, 1, 78, 0
7, 33840, Note_on_c, 1, 76, 76
7, 33840, Note_on_c, 1, 80, 76
7, 33884, Note_on_c, 1, 76, 0
7, 33884, Note_on_c, 1, 80, 0
7, 33900, Note_on_c, 1, 78, 84
7, 33900, Note_on_c, 1, 81, 84
7, 34011, Note_on_c, 1, 78, 0
7, 34011, Note_on_c, 1, 81, 0
7, 34020, Note_on_c, 1, 78, 76
7, 34020, Note_on_c, 1, 75, 76
7, 34064, Note_on_c, 1, 78, 0
7, 34064, Note_on_c, 1, 75, 0
7, 34080, Note_on_c, 1, 78, 76
7, 34080, Note_on_c, 1, 75, 76
7, 34124, Note_on_c, 1, 78, 0
7, 34124, Note_on_c, 1, 75, 0
7, 34140, Note_on_c, 1, 78, 76
7, 34140, Note_on_c, 1, 75, 76
7, 34184, Note_on_c, 1, 78, 0
7, 34184, Note_on_c, 1, 75, 0
7, 34200, Note_on_c, 1, 80, 76
7, 34200, Note_on_c, 1, 76, 76
7, 34289, Note_on_c, 1, 80, 0
7, 34289, Note_on_c, 1, 76, 0
7, 36960, Control_c, 1, 11, 96
7, 37080, Note_on_c, 1, 64, 68
7, 37080, Note_on_c, 1, 67, 68
7, 37080, Control_c, 1, 11, 96
7, 37170, Control_c, 1, 11, 99
7, 37199, Note_on_c, 1, 64, 0
7, 37199, Note_on_c, 1, 67, 0
7, 37200, Note_on_c, 1, 67, 68
7, 37200, Note_on_c, 1, 72, 68
7, 37260, Control_c, 1, 11, 101
7, 37319, Note_on_c, 1, 67, 0
7, 37319, Note_on_c, 1, 72, 0
7, 37320, Note_on_c, 1, 71, 68
7, 37320, Note_on_c, 1, 74, 68
7, 37350, Control_c, 1, 11, 104
7, 37431, Note_on_c, 1, 71, 0
7, 37431, Note_on_c, 1, 74, 0
7, 37440, Control_c, 1, 11, 106
7, 37440, Note_on_c, 1, 72, 68
7, 37440, Note_on_c, 1, 76, 68
7, 37530, Control_c, 1, 11, 109
7, 37559, Note_on_c, 1, 72, 0
7, 37559, Note_on_c, 1, 76, 0
7, 37620, Control_c, 1, 11, 112
7, 37710, Control_c, 1, 11, 114
7, 37800, Note_on_c, 1, 72, 68
7, 37800, Control_c, 1, 11, 117
7, 37800, Note_on_c, 1, 76, 68
7, 37890, Control_c, 1, 11, 119
7, 37919, Note_on_c, 1, 72, 0
7, 37919, Note_on_c, 1, 76, 0
7, 37920, Note_on_c, 1, 74, 68
7, 37920, Note_on_c, 1, 77, 68
7, 37980, Control_c, 1, 11, 122
7, 38039, Note_on_c, 1, 74, 0
7, 38039, Note_on_c, 1, 77, 0
7, 38040, Note_on_c, 1, 76, 68
7, 38040, Note_on_c, 1, 72, 68
7, 38070, Control_c, 1, 11, 124
7, 38151, Note_on_c, 1, 76, 0
7, 38151, Note_on_c, 1, 72, 0
7, 38160, Control_c, 1, 11, 127
7, 38160, Note_on_c, 1, 74, 68
7, 38160, Note_on_c, 1, 71, 68
7, 38279, Note_on_c, 1, 74, 0
7, 38279, Note_on_c, 1, 71, 0
7, 39000, Note_on_c, 1, 76, 52
7, 39119, Note_on_c, 1, 76, 0
7, 39120, Note_on_c, 1, 74, 52
7, 39239, Note_on_c, 1, 74, 0
7, 39240, Note_on_c, 1, 73, 52
7, 39359, Note_on_c, 1, 73, 0
7, 39720, Note_on_c, 1, 76, 52
7, 39764, Note_on_c, 1, 76, 0
7, 39780, Note_on_c, 1, 76, 52
7, 39824, Note_on_c, 1, 76, 0
7, 39840, Note_on_c, 1, 74, 52
7, 39884, Note_on_c, 1, 74, 0
7, 39900, Note_on_c, 1, 74, 52
7, 39944, Note_on_c, 1, 74, 0
7, 39960, Note_on_c, 1, 73, 52
7, 40079, Note_on_c, 1, 73, 0
7, 40200, Control_c, 1, 11, 80
7, 40320, Note_on_c, 1, 76, 76
7, 40320, Note_on_c, 1, 73, 76
7, 40364, Note_on_c, 1, 76, 0
7, 40364, Note_on_c, 1, 73, 0
7, 40380, Note_on_c, 1, 76, 76
7, 40380, Note_on_c, 1, 73, 76
7, 40380, Control_c, 1, 11, 84
7, 40424, Note_on_c, 1, 76, 0
7, 40424, Note_on_c, 1, 73, 0
7, 40440, Note_on_c, 1, 76, 76
7, 40440, Note_on_c, 1, 73, 76
7, 40440, Control_c, 1, 11, 88
7, 40484, Note_on_c, 1, 76, 0
7, 40484, Note_on_c, 1, 73, 0
7, 40500, Control_c, 1, 11, 92
7, 40500, Note_on_c, 1, 73, 76
7, 40500, Note_on_c, 1, 76, 76
7, 40544, Note_on_c, 1, 73, 0
7, 40544, Note_on_c, 1, 76, 0
7, 40560, Control_c, 1, 11, 96
7, 40560, Note_on_c, 1, 76, 76
7, 40560, Note_on_c, 1, 73, 76
7, 40604, Note_on_c, 1, 76, 0
7, 40604, Note_on_c, 1, 73, 0
7, 40620, Note_on_c, 1, 76, 76
7, 40620, Note_on_c, 1, 73, 76
7, 40620, Control_c, 1, 11, 100
7, 40664, Note_on_c, 1, 76, 0
7, 40664, Note_on_c, 1, 73, 0
7, 40680, Note_on_c, 1, 73, 76
7, 40680, Control_c, 1, 11, 104
7, 40680, Note_on_c, 1, 76, 76
7, 40724, Note_on_c, 1, 73, 0
7, 40724, Note_on_c, 1, 76, 0
7, 40740, Note_on_c, 1, 76, 76
7, 40740, Note_on_c, 1, 73, 76
7, 40740, Control_c, 1, 11, 107
7, 40784, Note_on_c, 1, 76, 0
7, 40784, Note_on_c, 1, 73, 0
7, 40800, Note_on_c, 1, 73, 76
7, 40800, Control_c, 1, 11, 111
7, 40800, Note_on_c, 1, 76, 76
7, 40844, Note_on_c, 1, 73, 0
7, 40844, Note_on_c, 1, 76, 0
7, 40860, Note_on_c, 1, 76, 76
7, 40860, Control_c, 1, 11, 115
7, 40860, Note_on_c, 1, 73, 76
7, 40904, Note_on_c, 1, 76, 0
7, 40904, Note_on_c, 1, 73, 0
7, 40920, Control_c, 1, 11, 119
7, 40920, Note_on_c, 1, 73, 76
7, 40920, Note_on_c, 1, 76, 76
7, 40964, Note_on_c, 1, 73, 0
7, 40964, Note_on_c, 1, 76, 0
7, 40980, Note_on_c, 1, 76, 76
7, 40980, Note_on_c, 1, 73, 76
7, 40980, Control_c, 1, 11, 123
7, 41024, Note_on_c, 1, 76, 0
7, 41024, Note_on_c, 1, 73, 0
7, 41040, Control_c, 1, 11, 127
7, 41040, Note_on_c, 1, 79, 76
7, 41040, Note_on_c, 1, 76, 76
7, 41391, Note_on_c, 1, 79, 0
7, 41391, Note_on_c, 1, 76, 0
7, 41400, Note_on_c, 1, 75, 76
7, 41400, Note_on_c, 1, 69, 76
7, 41489, Note_on_c, 1, 75, 0
7, 41489, Note_on_c, 1, 69, 0
7, 41520, Note_on_c, 1, 75, 76
7, 41520, Note_on_c, 1, 69, 76
7, 41609, Note_on_c, 1, 75, 0
7, 41609, Note_on_c, 1, 69, 0
7, 41640, Note_on_c, 1, 75, 76
7, 41640, Note_on_c, 1, 69, 76
7, 41729, Note_on_c, 1, 75, 0
7, 41729, Note_on_c, 1, 69, 0
7, 41760, Note_on_c, 1, 67, 76
7, 41760, Note_on_c, 1, 76, 76
7, 41879, Note_on_c, 1, 67, 0
7, 41879, Note_on_c, 1, 76, 0
7, 42600, Note_on_c, 1, 74, 44
7, 42719, Note_on_c, 1, 74, 0
7, 42720, Note_on_c, 1, 76, 44
7, 42839, Note_on_c, 1, 76, 0
7, 42840, Note_on_c, 1, 77, 44
7, 42959, Note_on_c, 1, 77, 0
7, 43320, Note_on_c, 1, 74, 44
7, 43364, Note_on_c, 1, 74, 0
7, 43380, Note_on_c, 1, 74, 44
7, 43424, Note_on_c, 1, 74, 0
7, 43440, Note_on_c, 1, 76, 44
7, 43484, Note_on_c, 1, 76, 0
7, 43500, Note_on_c, 1, 76, 44
7, 43544, Note_on_c, 1, 76, 0
7, 43560, Note_on_c, 1, 77, 44
7, 43679, Note_on_c, 1, 77, 0
7, 44040, Note_on_c, 1, 74, 44
7, 44084, Note_on_c, 1, 74, 0
7, 44100, Note_on_c, 1, 74, 44
7, 44144, Note_on_c, 1, 74, 0
7, 44160, Note_on_c, 1, 76, 44
7, 44204, Note_on_c, 1, 76, 0
7, 44220, Note_on_c, 1, 76, 44
7, 44264, Note_on_c, 1, 76, 0
7, 44280, Note_on_c, 1, 65, 44
7, 44280, Note_on_c, 1, 77, 44
7, 44331, Note_on_c, 1, 65, 0
7, 44331, Note_on_c, 1, 77, 0
7, 44340, Note_on_c, 1, 65, 46
7, 44340, Note_on_c, 1, 77, 46
7, 44391, Note_on_c, 1, 65, 0
7, 44391, Note_on_c, 1, 77, 0
7, 44400, Note_on_c, 1, 77, 49
7, 44400, Note_on_c, 1, 65, 49
7, 44451, Note_on_c, 1, 77, 0
7, 44451, Note_on_c, 1, 65, 0
7, 44460, Note_on_c, 1, 77, 52
7, 44460, Note_on_c, 1, 65, 52
7, 44511, Note_on_c, 1, 77, 0
7, 44511, Note_on_c, 1, 65, 0
7, 44520, Note_on_c, 1, 65, 54
7, 44520, Note_on_c, 1, 77, 54
7, 44571, Note_on_c, 1, 65, 0
7, 44571, Note_on_c, 1, 77, 0
7, 44580, Note_on_c, 1, 65, 57
7, 44580, Note_on_c, 1, 77, 57
7, 44631, Note_on_c, 1, 65, 0
7, 44631, Note_on_c, 1, 77, 0
7, 44640, Note_on_c, 1, 65, 60
7, 44640, Note_on_c, 1, 77, 60
7, 44691, Note_on_c, 1, 65, 0
7, 44691, Note_on_c, 1, 77, 0
7, 44700, Note_on_c, 1, 77, 62
7, 44700, Note_on_c, 1, 65, 62
7, 44751, Note_on_c, 1, 77, 0
7, 44751, Note_on_c, 1, 65, 0
7, 44760, Note_on_c, 1, 77, 65
7, 44760, Note_on_c, 1, 65, 65
7, 44811, Note_on_c, 1, 77, 0
7, 44811, Note_on_c, 1, 65, 0
7, 44820, Note_on_c, 1, 65, 68
7, 44820, Note_on_c, 1, 77, 68
7, 44871, Note_on_c, 1, 65, 0
7, 44871, Note_on_c, 1, 77, 0
7, 44880, Note_on_c, 1, 77, 70
7, 44880, Note_on_c, 1, 65, 70
7, 44931, Note_on_c, 1, 77, 0
7, 44931, Note_on_c, 1, 65, 0
7, 44940, Note_on_c, 1, 65, 73
7, 44940, Note_on_c, 1, 77, 73
7, 44991, Note_on_c, 1, 65, 0
7, 44991, Note_on_c, 1, 77, 0
7, 45000, Note_on_c, 1, 77, 76
7, 45000, Note_on_c, 1, 69, 76
7, 45351, Note_on_c, 1, 77, 0
7, 45351, Note_on_c, 1, 69, 0
7, 45360, Note_on_c, 1, 70, 76
7, 45360, Note_on_c, 1, 76, 76
7, 45449, Note_on_c, 1, 70, 0
7, 45449, Note_on_c, 1, 76, 0
7, 45480, Note_on_c, 1, 76, 76
7, 45480, Note_on_c, 1, 70, 76
7, 45569, Note_on_c, 1, 76, 0
7, 45569, Note_on_c, 1, 70, 0
7, 45600, Note_on_c, 1, 76, 76
7, 45600, Note_on_c, 1, 70, 76
7, 45689, Note_on_c, 1, 76, 0
7, 45689, Note_on_c, 1, 70, 0
7, 45720, Note_on_c, 1, 72, 84
7, 45720, Note_on_c, 1, 60, 84
7, 45839, Note_on_c, 1, 72, 0
7, 45839, Note_on_c, 1, 60, 0
7, 45840, Note_on_c, 1, 77, 84
7, 45840, Note_on_c, 1, 65, 84
7, 45959, Note_on_c, 1, 77, 0
7, 45959, Note_on_c, 1, 65, 0
7, 45960, Note_on_c, 1, 79, 84
7, 45960, Note_on_c, 1, 67, 84
7, 46071, Note_on_c, 1, 79, 0
7, 46071, Note_on_c, 1, 67, 0
7, 46080, Note_on_c, 1, 69, 84
7, 46080, Note_on_c, 1, 81, 84
7, 46169, Note_on_c, 1, 69, 0
7, 46169, Note_on_c, 1, 81, 0
7, 46440, Note_on_c, 1, 60, 84
7, 46440, Note_on_c, 1, 72, 84
7, 46559, Note_on_c, 1, 60, 0
7, 46559, Note_on_c, 1, 72, 0
7, 46560, Note_on_c, 1, 67, 84
7, 46560, Note_on_c, 1, 79, 84
7, 46679, Note_on_c, 1, 67, 0
7, 46679, Note_on_c, 1, 79, 0
7, 46680, Note_on_c, 1, 81, 84
7, 46680, Note_on_c, 1, 69, 84
7, 46791, Note_on_c, 1, 81, 0
7, 46791, Note_on_c, 1, 69, 0
7, 46800, Note_on_c, 1, 70, 84
7, 46800, Note_on_c, 1, 82, 84
7, 46889, Note_on_c, 1, 70, 0
7, 46889, Note_on_c, 1, 82, 0
7, 47040, Note_on_c, 1, 72, 84
7, 47040, Note_on_c, 1, 60, 84
7, 47125, Note_on_c, 1, 72, 0
7, 47125, Note_on_c, 1, 60, 0
7, 47130, Note_on_c, 1, 72, 84
7, 47130, Note_on_c, 1, 60, 84
7, 47155, Note_on_c, 1, 72, 0
7, 47155, Note_on_c, 1, 60, 0
7, 47160, Note_on_c, 1, 72, 84
7, 47160, Note_on_c, 1, 60, 84
7, 47279, Note_on_c, 1, 72, 0
7, 47279, Note_on_c, 1, 60, 0
7, 47280, Note_on_c, 1, 77, 84
7, 47280, Note_on_c, 1, 65, 84
7, 47399, Note_on_c, 1, 77, 0
7, 47399, Note_on_c, 1, 65, 0
7, 47400, Note_on_c, 1, 67, 84
7, 47400, Note_on_c, 1, 79, 84
7, 47511, Note_on_c, 1, 67, 0
7, 47511, Note_on_c, 1, 79, 0
7, 47520, Note_on_c, 1, 80, 84
7, 47520, Note_on_c, 1, 68, 84
7, 47609, Note_on_c, 1, 80, 0
7, 47609, Note_on_c, 1, 68, 0
7, 47760, Note_on_c, 1, 60, 84
7, 47760, Note_on_c, 1, 72, 84
7, 47845, Note_on_c, 1, 60, 0
7, 47845, Note_on_c, 1, 72, 0
7, 47850, Note_on_c, 1, 72, 84
7, 47850, Note_on_c, 1, 60, 84
7, 47875, Note_on_c, 1, 72, 0
7, 47875, Note_on_c, 1, 60, 0
7, 47880, Note_on_c, 1, 72, 84
7, 47880, Note_on_c, 1, 60, 84
7, 47999, Note_on_c, 1, 72, 0
7, 47999, Note_on_c, 1, 60, 0
7, 48000, Note_on_c, 1, 67, 84
7, 48000, Note_on_c, 1, 79, 84
7, 48119, Note_on_c, 1, 67, 0
7, 48119, Note_on_c, 1, 79, 0
7, 48120, Note_on_c, 1, 68, 84
7, 48120, Note_on_c, 1, 80, 84
7, 48231, Note_on_c, 1, 68, 0
7, 48231, Note_on_c, 1, 80, 0
7, 48240, Note_on_c, 1, 70, 84
7, 48240, Note_on_c, 1, 82, 84
7, 48329, Note_on_c, 1, 70, 0
7, 48329, Note_on_c, 1, 82, 0
7, 48480, Note_on_c, 1, 64, 84
7, 48480, Note_on_c, 1, 76, 84
7, 48591, Note_on_c, 1, 64, 0
7, 48591, Note_on_c, 1, 76, 0
7, 48600, Note_on_c, 1, 77, 84
7, 48600, Note_on_c, 1, 65, 84
7, 48711, Note_on_c, 1, 65, 0
7, 48720, Note_on_c, 1, 72, 84
7, 48951, Note_on_c, 1, 77, 0
7, 48951, Note_on_c, 1, 72, 0
7, 48960, Note_on_c, 1, 72, 84
7, 48960, Note_on_c, 1, 78, 84
7, 49311, Note_on_c, 1, 72, 0
7, 49311, Note_on_c, 1, 78, 0
7, 49320, Note_on_c, 1, 79, 84
7, 49320, Note_on_c, 1, 71, 84
7, 49439, Note_on_c, 1, 79, 0
7, 49439, Note_on_c, 1, 71, 0
7, 52920, Note_on_c, 1, 80, 84
7, 52920, Note_on_c, 1, 77, 84
7, 53279, Note_on_c, 1, 80, 0
7, 53279, Note_on_c, 1, 77, 0
7, 53280, Note_on_c, 1, 81, 84
7, 53280, Note_on_c, 1, 78, 84
7, 53631, Note_on_c, 1, 81, 0
7, 53631, Note_on_c, 1, 78, 0
7, 53640, Note_on_c, 1, 81, 84
7, 53640, Note_on_c, 1, 79, 84
7, 53999, Note_on_c, 1, 79, 0
7, 54000, Note_on_c, 1, 78, 84
7, 54351, Note_on_c, 1, 81, 0
7, 54351, Note_on_c, 1, 78, 0
7, 54360, Note_on_c, 1, 83, 92
7, 54360, Note_on_c, 1, 78, 92
7, 54720, Control_c, 1, 11, 127
7, 54750, Control_c, 1, 11, 122
7, 54780, Control_c, 1, 11, 117
7, 54810, Control_c, 1, 11, 111
7, 54839, Note_on_c, 1, 78, 0
7, 54840, Note_on_c, 1, 76, 84
7, 54840, Control_c, 1, 11, 106
7, 54870, Control_c, 1, 11, 101
7, 54900, Control_c, 1, 11, 96
7, 54930, Control_c, 1, 11, 90
7, 54959, Note_on_c, 1, 76, 0
7, 54960, Control_c, 1, 11, 85
7, 54960, Note_on_c, 1, 74, 84
7, 54990, Control_c, 1, 11, 80
7, 55020, Control_c, 1, 11, 75
7, 55050, Control_c, 1, 11, 69
7, 55071, Note_on_c, 1, 83, 0
7, 55071, Note_on_c, 1, 74, 0
7, 55080, Control_c, 1, 11, 64
7, 55080, Note_on_c, 1, 76, 84
7, 55080, Note_on_c, 1, 73, 84
7, 55199, Note_on_c, 1, 76, 0
7, 55199, Note_on_c, 1, 73, 0
7, 69480, Control_c, 1, 11, 96
7, 69600, Note_on_c, 1, 76, 68
7, 69600, Control_c, 1, 11, 96
7, 69620, Control_c, 1, 11, 99
7, 69640, Control_c, 1, 11, 101
7, 69660, Control_c, 1, 11, 104
7, 69680, Control_c, 1, 11, 106
7, 69700, Control_c, 1, 11, 109
7, 69720, Control_c, 1, 11, 112
7, 69740, Control_c, 1, 11, 114
7, 69760, Control_c, 1, 11, 117
7, 69775, Note_on_c, 1, 76, 0
7, 69780, Note_on_c, 1, 76, 68
7, 69780, Control_c, 1, 11, 119
7, 69800, Control_c, 1, 11, 122
7, 69820, Control_c, 1, 11, 124
7, 69835, Note_on_c, 1, 76, 0
7, 69840, Control_c, 1, 11, 127
7, 69840, Note_on_c, 1, 77, 52
7, 69899, Note_on_c, 1, 77, 0
7, 69900, Note_on_c, 1, 76, 52
7, 69955, Note_on_c, 1, 76, 0
7, 69960, Note_on_c, 1, 76, 52
7, 70049, Note_on_c, 1, 76, 0
7, 71400, Note_on_c, 1, 82, 52
7, 71489, Note_on_c, 1, 82, 0
7, 71490, Note_on_c, 1, 79, 52
7, 71515, Note_on_c, 1, 79, 0
7, 71520, Note_on_c, 1, 76, 52
7, 71609, Note_on_c, 1, 76, 0
7, 71640, Note_on_c, 1, 76, 76
7, 71759, Note_on_c, 1, 76, 0
7, 71760, Note_on_c, 1, 74, 76
7, 71879, Note_on_c, 1, 74, 0
7, 72120, Note_on_c, 1, 79, 52
7, 72209, Note_on_c, 1, 79, 0
7, 72210, Note_on_c, 1, 76, 52
7, 72235, Note_on_c, 1, 76, 0
7, 72240, Note_on_c, 1, 72, 52
7, 72329, Note_on_c, 1, 72, 0
7, 72360, Note_on_c, 1, 72, 76
7, 72479, Note_on_c, 1, 72, 0
7, 72480, Note_on_c, 1, 70, 52
7, 72599, Note_on_c, 1, 70, 0
7, 73140, Note_on_c, 1, 76, 76
7, 73251, Note_on_c, 1, 76, 0
7, 73260, Note_on_c, 1, 76, 52
7, 73304, Note_on_c, 1, 76, 0
7, 73320, Note_on_c, 1, 76, 52
7, 73364, Note_on_c, 1, 76, 0
7, 73380, Note_on_c, 1, 76, 52
7, 73424, Note_on_c, 1, 76, 0
7, 73440, Note_on_c, 1, 76, 52
7, 73559, Note_on_c, 1, 76, 0
7, 73860, Note_on_c, 1, 76, 76
7, 73971, Note_on_c, 1, 76, 0
7, 73980, Note_on_c, 1, 76, 52
7, 74024, Note_on_c, 1, 76, 0
7, 74040, Note_on_c, 1, 76, 52
7, 74084, Note_on_c, 1, 76, 0
7, 74100, Note_on_c, 1, 76, 52
7, 74144, Note_on_c, 1, 76, 0
7, 74160, Note_on_c, 1, 76, 52
7, 74279, Note_on_c, 1, 76, 0
7, 74580, Note_on_c, 1, 76, 76
7, 74691, Note_on_c, 1, 76, 0
7, 74700, Note_on_c, 1, 76, 52
7, 74751, Note_on_c, 1, 76, 0
7, 74760, Note_on_c, 1, 76, 52
7, 74811, Note_on_c, 1, 76, 0
7, 74820, Note_on_c, 1, 76, 52
7, 74871, Note_on_c, 1, 76, 0
7, 74880, Note_on_c, 1, 76, 84
7, 74931, Note_on_c, 1, 76, 0
7, 74940, Note_on_c, 1, 76, 84
7, 74991, Note_on_c, 1, 76, 0
7, 75000, Note_on_c, 1, 76, 84
7, 75051, Note_on_c, 1, 76, 0
7, 75060, Note_on_c, 1, 76, 84
7, 75111, Note_on_c, 1, 76, 0
7, 75120, Note_on_c, 1, 76, 84
7, 75171, Note_on_c, 1, 76, 0
7, 75180, Note_on_c, 1, 76, 84
7, 75231, Note_on_c, 1, 76, 0
7, 75240, Note_on_c, 1, 76, 84
7, 75359, Note_on_c, 1, 76, 0
7, 82620, Note_on_c, 1, 78, 52
7, 82679, Note_on_c, 1, 78, 0
7, 82680, Note_on_c, 1, 76, 52
7, 82739, Note_on_c, 1, 76, 0
7, 82740, Note_on_c, 1, 74, 52
7, 82795, Note_on_c, 1, 74, 0
7, 82800, Note_on_c, 1, 73, 52
7, 82979, Note_on_c, 1, 73, 0
7, 83340, Note_on_c, 1, 83, 52
7, 83340, Note_on_c, 1, 79, 52
7, 83399, Note_on_c, 1, 83, 0
7, 83399, Note_on_c, 1, 79, 0
7, 83400, Note_on_c, 1, 81, 52
7, 83400, Note_on_c, 1, 78, 52
7, 83459, Note_on_c, 1, 81, 0
7, 83459, Note_on_c, 1, 78, 0
7, 83460, Note_on_c, 1, 79, 52
7, 83460, Note_on_c, 1, 76, 52
7, 83519, Note_on_c, 1, 79, 0
7, 83519, Note_on_c, 1, 76, 0
7, 83520, Note_on_c, 1, 74, 52
7, 83520, Note_on_c, 1, 78, 52
7, 83564, Note_on_c, 1, 74, 0
7, 83564, Note_on_c, 1, 78, 0
7, 83820, Note_on_c, 1, 83, 52
7, 83820, Note_on_c, 1, 79, 52
7, 83879, Note_on_c, 1, 83, 0
7, 83879, Note_on_c, 1, 79, 0
7, 83880, Note_on_c, 1, 81, 52
7, 83880, Note_on_c, 1, 78, 52
7, 83939, Note_on_c, 1, 81, 0
7, 83939, Note_on_c, 1, 78, 0
7, 83940, Note_on_c, 1, 79, 52
7, 83940, Note_on_c, 1, 76, 52
7, 83999, Note_on_c, 1, 79, 0
7, 83999, Note_on_c, 1, 76, 0
7, 84000, Note_on_c, 1, 78, 52
7, 84000, Note_on_c, 1, 74, 52
7, 84044, Note_on_c, 1, 78, 0
7, 84044, Note_on_c, 1, 74, 0
7, 84240, Control_c, 1, 11, 80
7, 84280, Control_c, 1, 11, 84
7, 84300, Note_on_c, 1, 83, 76
7, 84300, Note_on_c, 1, 79, 76
7, 84320, Control_c, 1, 11, 88
7, 84359, Note_on_c, 1, 83, 0
7, 84359, Note_on_c, 1, 79, 0
7, 84360, Note_on_c, 1, 81, 76
7, 84360, Control_c, 1, 11, 92
7, 84360, Note_on_c, 1, 78, 76
7, 84400, Control_c, 1, 11, 96
7, 84419, Note_on_c, 1, 81, 0
7, 84419, Note_on_c, 1, 78, 0
7, 84420, Note_on_c, 1, 79, 76
7, 84420, Note_on_c, 1, 76, 76
7, 84440, Control_c, 1, 11, 100
7, 84479, Note_on_c, 1, 79, 0
7, 84479, Note_on_c, 1, 76, 0
7, 84480, Note_on_c, 1, 74, 76
7, 84480, Note_on_c, 1, 78, 76
7, 84480, Control_c, 1, 11, 104
7, 84520, Control_c, 1, 11, 107
7, 84524, Note_on_c, 1, 74, 0
7, 84524, Note_on_c, 1, 78, 0
7, 84540, Note_on_c, 1, 79, 76
7, 84540, Note_on_c, 1, 83, 76
7, 84560, Control_c, 1, 11, 111
7, 84599, Note_on_c, 1, 79, 0
7, 84599, Note_on_c, 1, 83, 0
7, 84600, Note_on_c, 1, 78, 76
7, 84600, Note_on_c, 1, 81, 76
7, 84600, Control_c, 1, 11, 115
7, 84640, Control_c, 1, 11, 119
7, 84659, Note_on_c, 1, 78, 0
7, 84659, Note_on_c, 1, 81, 0
7, 84660, Note_on_c, 1, 76, 76
7, 84660, Note_on_c, 1, 79, 76
7, 84680, Control_c, 1, 11, 123
7, 84719, Note_on_c, 1, 76, 0
7, 84719, Note_on_c, 1, 79, 0
7, 84720, Control_c, 1, 11, 127
7, 84720, Note_on_c, 1, 78, 76
7, 84720, Note_on_c, 1, 74, 76
7, 84764, Note_on_c, 1, 78, 0
7, 84764, Note_on_c, 1, 74, 0
7, 84780, Note_on_c, 1, 83, 76
7, 84780, Note_on_c, 1, 79, 76
7, 84839, Note_on_c, 1, 83, 0
7, 84839, Note_on_c, 1, 79, 0
7, 84840, Note_on_c, 1, 81, 76
7, 84840, Note_on_c, 1, 78, 76
7, 84899, Note_on_c, 1, 81, 0
7, 84899, Note_on_c, 1, 78, 0
7, 84900, Note_on_c, 1, 79, 76
7, 84900, Note_on_c, 1, 76, 76
7, 84951, Note_on_c, 1, 79, 0
7, 84951, Note_on_c, 1, 76, 0
7, 84960, Note_on_c, 1, 78, 84
7, 84960, Note_on_c, 1, 74, 84
7, 85311, Note_on_c, 1, 78, 0
7, 85311, Note_on_c, 1, 74, 0
7, 85320, Note_on_c, 1, 78, 84
7, 85320, Note_on_c, 1, 74, 84
7, 85671, Note_on_c, 1, 78, 0
7, 85671, Note_on_c, 1, 74, 0
7, 85680, Note_on_c, 1, 76, 76
7, 85680, Note_on_c, 1, 74, 76
7, 85746, Note_on_c, 1, 76, 0
7, 85746, Note_on_c, 1, 74, 0
7, 85770, Note_on_c, 1, 74, 76
7, 85770, Note_on_c, 1, 76, 76
7, 85791, Note_on_c, 1, 74, 0
7, 85791, Note_on_c, 1, 76, 0
7, 85800, Note_on_c, 1, 74, 76
7, 85800, Note_on_c, 1, 76, 76
7, 85889, Note_on_c, 1, 74, 0
7, 85889, Note_on_c, 1, 76, 0
7, 86040, Note_on_c, 1, 76, 76
7, 86040, Note_on_c, 1, 73, 76
7, 86106, Note_on_c, 1, 76, 0
7, 86106, Note_on_c, 1, 73, 0
7, 86130, Note_on_c, 1, 76, 76
7, 86130, Note_on_c, 1, 73, 76
7, 86151, Note_on_c, 1, 76, 0
7, 86151, Note_on_c, 1, 73, 0
7, 86160, Note_on_c, 1, 73, 76
7, 86160, Note_on_c, 1, 76, 76
7, 86249, Note_on_c, 1, 73, 0
7, 86249, Note_on_c, 1, 76, 0
7, 86460, Note_on_c, 1, 74, 52
7, 86460, Note_on_c, 1, 83, 52
7, 86519, Note_on_c, 1, 74, 0
7, 86519, Note_on_c, 1, 83, 0
7, 86580, Note_on_c, 1, 73, 52
7, 86580, Note_on_c, 1, 81, 52
7, 86639, Note_on_c, 1, 73, 0
7, 86639, Note_on_c, 1, 81, 0
7, 86700, Note_on_c, 1, 71, 52
7, 86700, Note_on_c, 1, 80, 52
7, 86755, Note_on_c, 1, 71, 0
7, 86755, Note_on_c, 1, 80, 0
7, 86760, Note_on_c, 1, 69, 52
7, 86760, Note_on_c, 1, 73, 52
7, 86879, Note_on_c, 1, 69, 0
7, 86879, Note_on_c, 1, 73, 0
7, 87240, Note_on_c, 1, 76, 44
7, 87306, Note_on_c, 1, 76, 0
7, 87330, Note_on_c, 1, 76, 44
7, 87351, Note_on_c, 1, 76, 0
7, 87360, Note_on_c, 1, 76, 44
7, 87449, Note_on_c, 1, 76, 0
7, 87600, Note_on_c, 1, 76, 44
7, 87666, Note_on_c, 1, 76, 0
7, 87690, Note_on_c, 1, 76, 44
7, 87711, Note_on_c, 1, 76, 0
7, 87720, Note_on_c, 1, 76, 44
7, 87809, Note_on_c, 1, 76, 0
7, 87900, Note_on_c, 1, 83, 44
7, 87959, Note_on_c, 1, 83, 0
7, 88020, Note_on_c, 1, 81, 44
7, 88079, Note_on_c, 1, 81, 0
7, 88140, Note_on_c, 1, 80, 44
7, 88195, Note_on_c, 1, 80, 0
7, 88200, Note_on_c, 1, 81, 44
7, 88319, Note_on_c, 1, 81, 0
7, 92380, Control_c, 1, 11, 100
7, 92400, Control_c, 1, 11, 104
7, 92400, Note_on_c, 1, 76, 76
7, 92420, Control_c, 1, 11, 107
7, 92440, Control_c, 1, 11, 111
7, 92444, Note_on_c, 1, 76, 0
7, 92460, Note_on_c, 1, 76, 76
7, 92460, Control_c, 1, 11, 115
7, 92480, Control_c, 1, 11, 119
7, 92500, Control_c, 1, 11, 123
7, 92504, Note_on_c, 1, 76, 0
7, 92520, Control_c, 1, 11, 127
7, 92520, Note_on_c, 1, 76, 76
7, 92564, Note_on_c, 1, 76, 0
7, 92580, Note_on_c, 1, 76, 84
7, 92691, Note_on_c, 1, 76, 0
7, 92700, Note_on_c, 1, 76, 76
7, 92744, Note_on_c, 1, 76, 0
7, 92760, Note_on_c, 1, 76, 76
7, 92804, Note_on_c, 1, 76, 0
7, 92820, Note_on_c, 1, 76, 76
7, 92864, Note_on_c, 1, 76, 0
7, 92880, Note_on_c, 1, 76, 76
7, 92924, Note_on_c, 1, 76, 0
7, 92940, Note_on_c, 1, 76, 84
7, 93051, Note_on_c, 1, 76, 0
7, 93060, Note_on_c, 1, 76, 76
7, 93104, Note_on_c, 1, 76, 0
7, 93120, Note_on_c, 1, 76, 76
7, 93164, Note_on_c, 1, 76, 0
7, 93180, Note_on_c, 1, 76, 76
7, 93224, Note_on_c, 1, 76, 0
7, 93240, Note_on_c, 1, 76, 76
7, 93329, Note_on_c, 1, 76, 0
7, 93360, Note_on_c, 1, 76, 76
7, 93449, Note_on_c, 1, 76, 0
7, 97560, Note_on_c, 1, 81, 84
7, 97560, Note_on_c, 1, 73, 84
7, 97679, Note_on_c, 1, 81, 0
7, 97679, Note_on_c, 1, 73, 0
7, 97680, Note_on_c, 1, 74, 84
7, 97680, Note_on_c, 1, 80, 84
7, 97799, Note_on_c, 1, 74, 0
7, 97799, Note_on_c, 1, 80, 0
7, 97800, Note_on_c, 1, 79, 84
7, 97800, Note_on_c, 1, 76, 84
7, 97911, Note_on_c, 1, 79, 0
7, 97911, Note_on_c, 1, 76, 0
7, 97920, Note_on_c, 1, 69, 84
7, 97920, Note_on_c, 1, 78, 84
7, 98009, Note_on_c, 1, 69, 0
7, 98009, Note_on_c, 1, 78, 0
7, 98040, Note_on_c, 1, 78, 92
7, 98040, Note_on_c, 1, 74, 92
7, 98129, Note_on_c, 1, 78, 0
7, 98129, Note_on_c, 1, 74, 0
7, 98400, Note_on_c, 1, 80, 92
7, 98400, Note_on_c, 1, 74, 92
7, 98489, Note_on_c, 1, 80, 0
7, 98489, Note_on_c, 1, 74, 0
7, 98640, Note_on_c, 1, 81, 84
7, 98640, Note_on_c, 1, 73, 84
7, 98729, Note_on_c, 1, 81, 0
7, 98729, Note_on_c, 1, 73, 0
7, 98880, Note_on_c, 1, 76, 52
7, 98880, Note_on_c, 1, 73, 52
7, 98969, Note_on_c, 1, 76, 0
7, 98969, Note_on_c, 1, 73, 0
7, 99000, Note_on_c, 1, 69, 52
7, 99000, Note_on_c, 1, 73, 52
7, 99089, Note_on_c, 1, 69, 0
7, 99089, Note_on_c, 1, 73, 0
7, 99089, End_track
8, 0, Start_track
8, 0, Title_t, "Clarinet in A"
8, 0, MIDI_port, 0
8, 0, Program_c, 2, 71
8, 0, Control_c, 2, 7, 88
8, 0, Control_c, 2, 10, 75
8, 0, Control_c, 2, 11, 127
8, 2760, Note_on_c, 2, 64, 52
8, 2871, Note_on_c, 2, 64, 0
8, 2880, Note_on_c, 2, 64, 52
8, 2880, Note_on_c, 2, 61, 52
8, 2999, Note_on_c, 2, 64, 0
8, 2999, Note_on_c, 2, 61, 0
8, 3000, Note_on_c, 2, 69, 52
8, 3000, Note_on_c, 2, 64, 52
8, 3119, Note_on_c, 2, 69, 0
8, 3119, Note_on_c, 2, 64, 0
8, 3120, Note_on_c, 2, 71, 52
8, 3120, Note_on_c, 2, 68, 52
8, 3231, Note_on_c, 2, 71, 0
8, 3231, Note_on_c, 2, 68, 0
8, 3240, Note_on_c, 2, 73, 52
8, 3240, Note_on_c, 2, 69, 52
8, 3591, Note_on_c, 2, 73, 0
8, 3591, Note_on_c, 2, 69, 0
8, 3600, Note_on_c, 2, 73, 52
8, 3600, Note_on_c, 2, 69, 52
8, 3614, Note_on_c, 2, 73, 0
8, 3615, Note_on_c, 2, 74, 52
8, 3629, Note_on_c, 2, 74, 0
8, 3630, Note_on_c, 2, 73, 52
8, 3644, Note_on_c, 2, 73, 0
8, 3645, Note_on_c, 2, 74, 52
8, 3659, Note_on_c, 2, 74, 0
8, 3660, Note_on_c, 2, 73, 52
8, 3674, Note_on_c, 2, 73, 0
8, 3675, Note_on_c, 2, 74, 52
8, 3689, Note_on_c, 2, 74, 0
8, 3690, Note_on_c, 2, 71, 52
8, 3704, Note_on_c, 2, 71, 0
8, 3705, Note_on_c, 2, 73, 52
8, 3719, Note_on_c, 2, 69, 0
8, 3719, Note_on_c, 2, 73, 0
8, 3720, Note_on_c, 2, 71, 52
8, 3720, Note_on_c, 2, 76, 52
8, 3809, Note_on_c, 2, 76, 0
8, 3810, Note_on_c, 2, 74, 52
8, 3839, Note_on_c, 2, 71, 0
8, 3839, Note_on_c, 2, 74, 0
8, 3840, Note_on_c, 2, 69, 52
8, 3840, Note_on_c, 2, 73, 52
8, 3951, Note_on_c, 2, 69, 0
8, 3951, Note_on_c, 2, 73, 0
8, 3960, Note_on_c, 2, 71, 52
8, 3960, Note_on_c, 2, 68, 52
8, 4311, Note_on_c, 2, 71, 0
8, 4311, Note_on_c, 2, 68, 0
8, 4320, Control_c, 2, 11, 96
8, 4320, Note_on_c, 2, 76, 68
8, 4320, Note_on_c, 2, 64, 68
8, 4380, Control_c, 2, 11, 99
8, 4439, Note_on_c, 2, 76, 0
8, 4439, Note_on_c, 2, 64, 0
8, 4440, Note_on_c, 2, 74, 68
8, 4440, Control_c, 2, 11, 101
8, 4440, Note_on_c, 2, 68, 68
8, 4500, Control_c, 2, 11, 104
8, 4559, Note_on_c, 2, 74, 0
8, 4559, Note_on_c, 2, 68, 0
8, 4560, Note_on_c, 2, 73, 68
8, 4560, Note_on_c, 2, 69, 68
8, 4560, Control_c, 2, 11, 106
8, 4620, Control_c, 2, 11, 109
8, 4671, Note_on_c, 2, 73, 0
8, 4671, Note_on_c, 2, 69, 0
8, 4680, Control_c, 2, 11, 112
8, 4680, Note_on_c, 2, 71, 68
8, 4680, Note_on_c, 2, 64, 68
8, 4740, Control_c, 2, 11, 114
8, 4800, Control_c, 2, 11, 117
8, 4860, Control_c, 2, 11, 119
8, 4919, Note_on_c, 2, 71, 0
8, 4919, Note_on_c, 2, 64, 0
8, 4920, Note_on_c, 2, 73, 68
8, 4920, Note_on_c, 2, 64, 68
8, 4920, Control_c, 2, 11, 122
8, 4980, Control_c, 2, 11, 124
8, 5031, Note_on_c, 2, 73, 0
8, 5031, Note_on_c, 2, 64, 0
8, 5040, Control_c, 2, 11, 127
8, 5040, Note_on_c, 2, 68, 52
8, 5040, Note_on_c, 2, 64, 52
8, 5279, Note_on_c, 2, 68, 0
8, 5279, Note_on_c, 2, 64, 0
8, 5280, Note_on_c, 2, 69, 52
8, 5280, Note_on_c, 2, 66, 52
8, 5369, Note_on_c, 2, 69, 0
8, 5369, Note_on_c, 2, 66, 0
8, 5370, Note_on_c, 2, 63, 52
8, 5370, Note_on_c, 2, 66, 52
8, 5395, Note_on_c, 2, 63, 0
8, 5395, Note_on_c, 2, 66, 0
8, 5400, Note_on_c, 2, 64, 52
8, 5519, Note_on_c, 2, 64, 0
8, 8400, Control_c, 2, 11, 96
8, 8520, Note_on_c, 2, 64, 68
8, 8609, Note_on_c, 2, 64, 0
8, 8610, Note_on_c, 2, 71, 68
8, 8635, Note_on_c, 2, 71, 0
8, 8640, Note_on_c, 2, 71, 68
8, 8640, Note_on_c, 2, 64, 68
8, 8759, Note_on_c, 2, 71, 0
8, 8760, Note_on_c, 2, 69, 68
8, 8879, Note_on_c, 2, 64, 0
8, 8879, Note_on_c, 2, 69, 0
8, 8880, Note_on_c, 2, 71, 68
8, 8880, Note_on_c, 2, 68, 68
8, 8991, Note_on_c, 2, 71, 0
8, 8991, Note_on_c, 2, 68, 0
8, 9000, Note_on_c, 2, 72, 68
8, 9000, Note_on_c, 2, 68, 68
8, 9119, Note_on_c, 2, 72, 0
8, 9119, Note_on_c, 2, 68, 0
8, 9120, Note_on_c, 2, 69, 68
8, 9120, Note_on_c, 2, 73, 68
8, 9179, Note_on_c, 2, 69, 0
8, 9179, Note_on_c, 2, 73, 0
8, 9240, Note_on_c, 2, 64, 68
8, 9329, Note_on_c, 2, 64, 0
8, 9330, Note_on_c, 2, 73, 68
8, 9330, Note_on_c, 2, 69, 68
8, 9355, Note_on_c, 2, 73, 0
8, 9355, Note_on_c, 2, 69, 0
8, 9360, Note_on_c, 2, 73, 68
8, 9360, Note_on_c, 2, 69, 68
8, 9479, Note_on_c, 2, 73, 0
8, 9479, Note_on_c, 2, 69, 0
8, 9480, Note_on_c, 2, 71, 68
8, 9480, Note_on_c, 2, 68, 68
8, 9599, Note_on_c, 2, 71, 0
8, 9599, Note_on_c, 2, 68, 0
8, 9600, Note_on_c, 2, 73, 68
8, 9600, Note_on_c, 2, 69, 68
8, 9711, Note_on_c, 2, 73, 0
8, 9711, Note_on_c, 2, 69, 0
8, 9720, Note_on_c, 2, 73, 68
8, 9720, Note_on_c, 2, 70, 68
8, 9839, Note_on_c, 2, 73, 0
8, 9839, Note_on_c, 2, 70, 0
8, 9840, Note_on_c, 2, 74, 68
8, 9840, Note_on_c, 2, 71, 68
8, 9899, Note_on_c, 2, 74, 0
8, 9899, Note_on_c, 2, 71, 0
8, 9960, Note_on_c, 2, 74, 68
8, 9960, Note_on_c, 2, 71, 68
8, 10071, Note_on_c, 2, 74, 0
8, 10071, Note_on_c, 2, 71, 0
8, 10080, Note_on_c, 2, 74, 68
8, 10080, Note_on_c, 2, 71, 68
8, 10080, Control_c, 2, 11, 96
8, 10110, Control_c, 2, 11, 99
8, 10140, Control_c, 2, 11, 101
8, 10170, Control_c, 2, 11, 104
8, 10200, Control_c, 2, 11, 106
8, 10230, Control_c, 2, 11, 109
8, 10260, Control_c, 2, 11, 112
8, 10290, Control_c, 2, 11, 114
8, 10319, Note_on_c, 2, 74, 0
8, 10319, Note_on_c, 2, 71, 0
8, 10320, Note_on_c, 2, 73, 68
8, 10320, Note_on_c, 2, 76, 68
8, 10320, Control_c, 2, 11, 117
8, 10350, Control_c, 2, 11, 119
8, 10379, Note_on_c, 2, 73, 0
8, 10379, Note_on_c, 2, 76, 0
8, 10380, Control_c, 2, 11, 122
8, 10380, Note_on_c, 2, 78, 68
8, 10380, Note_on_c, 2, 74, 68
8, 10410, Control_c, 2, 11, 124
8, 10435, Note_on_c, 2, 78, 0
8, 10435, Note_on_c, 2, 74, 0
8, 10440, Note_on_c, 2, 74, 76
8, 10440, Note_on_c, 2, 78, 76
8, 10440, Control_c, 2, 11, 127
8, 10470, Control_c, 2, 11, 124
8, 10499, Note_on_c, 2, 74, 0
8, 10499, Note_on_c, 2, 78, 0
8, 10500, Note_on_c, 2, 68, 68
8, 10500, Note_on_c, 2, 71, 68
8, 10500, Control_c, 2, 11, 122
8, 10530, Control_c, 2, 11, 119
8, 10560, Control_c, 2, 11, 117
8, 10590, Control_c, 2, 11, 114
8, 10620, Control_c, 2, 11, 112
8, 10650, Control_c, 2, 11, 109
8, 10679, Note_on_c, 2, 68, 0
8, 10679, Note_on_c, 2, 71, 0
8, 10680, Note_on_c, 2, 69, 68
8, 10680, Control_c, 2, 11, 106
8, 10680, Note_on_c, 2, 73, 68
8, 10710, Control_c, 2, 11, 104
8, 10740, Control_c, 2, 11, 101
8, 10770, Control_c, 2, 11, 99
8, 10791, Note_on_c, 2, 69, 0
8, 10791, Note_on_c, 2, 73, 0
8, 10800, Control_c, 2, 11, 96
8, 10800, Note_on_c, 2, 76, 68
8, 10800, Note_on_c, 2, 73, 68
8, 10979, Note_on_c, 2, 76, 0
8, 10979, Note_on_c, 2, 73, 0
8, 10980, Note_on_c, 2, 74, 68
8, 10980, Note_on_c, 2, 71, 68
8, 11039, Note_on_c, 2, 74, 0
8, 11039, Note_on_c, 2, 71, 0
8, 11040, Note_on_c, 2, 69, 68
8, 11040, Note_on_c, 2, 73, 68
8, 11099, Note_on_c, 2, 69, 0
8, 11099, Note_on_c, 2, 73, 0
8, 11100, Note_on_c, 2, 71, 68
8, 11100, Note_on_c, 2, 68, 68
8, 11155, Note_on_c, 2, 71, 0
8, 11155, Note_on_c, 2, 68, 0
8, 11160, Note_on_c, 2, 69, 68
8, 11279, Note_on_c, 2, 69, 0
8, 11400, Control_c, 2, 11, 127
8, 11460, Note_on_c, 2, 64, 52
8, 11515, Note_on_c, 2, 64, 0
8, 11520, Note_on_c, 2, 64, 52
8, 11609, Note_on_c, 2, 64, 0
8, 11610, Note_on_c, 2, 69, 52
8, 11635, Note_on_c, 2, 69, 0
8, 11640, Note_on_c, 2, 73, 52
8, 11819, Note_on_c, 2, 73, 0
8, 11820, Note_on_c, 2, 69, 52
8, 11875, Note_on_c, 2, 69, 0
8, 11880, Note_on_c, 2, 68, 52
8, 11969, Note_on_c, 2, 68, 0
8, 11970, Note_on_c, 2, 71, 52
8, 11999, Note_on_c, 2, 71, 0
8, 12000, Note_on_c, 2, 74, 52
8, 12089, Note_on_c, 2, 74, 0
8, 12900, Note_on_c, 2, 64, 52
8, 12955, Note_on_c, 2, 64, 0
8, 12960, Note_on_c, 2, 64, 52
8, 13049, Note_on_c, 2, 64, 0
8, 13050, Note_on_c, 2, 69, 52
8, 13075, Note_on_c, 2, 69, 0
8, 13080, Note_on_c, 2, 72, 68
8, 13259, Note_on_c, 2, 72, 0
8, 13260, Note_on_c, 2, 69, 52
8, 13315, Note_on_c, 2, 69, 0
8, 13320, Note_on_c, 2, 68, 52
8, 13409, Note_on_c, 2, 68, 0
8, 13410, Note_on_c, 2, 71, 52
8, 13439, Note_on_c, 2, 71, 0
8, 13440, Note_on_c, 2, 74, 52
8, 13529, Note_on_c, 2, 74, 0
8, 13680, Control_c, 2, 11, 96
8, 13800, Note_on_c, 2, 76, 68
8, 13800, Control_c, 2, 11, 96
8, 13820, Control_c, 2, 11, 99
8, 13840, Control_c, 2, 11, 101
8, 13860, Control_c, 2, 11, 104
8, 13880, Control_c, 2, 11, 106
8, 13900, Control_c, 2, 11, 109
8, 13920, Control_c, 2, 11, 112
8, 13940, Control_c, 2, 11, 114
8, 13960, Control_c, 2, 11, 117
8, 13979, Note_on_c, 2, 76, 0
8, 13980, Note_on_c, 2, 76, 68
8, 13980, Control_c, 2, 11, 119
8, 14000, Control_c, 2, 11, 122
8, 14020, Control_c, 2, 11, 124
8, 14035, Note_on_c, 2, 76, 0
8, 14040, Note_on_c, 2, 77, 68
8, 14040, Control_c, 2, 11, 127
8, 14060, Control_c, 2, 11, 122
8, 14080, Control_c, 2, 11, 117
8, 14099, Note_on_c, 2, 77, 0
8, 14100, Note_on_c, 2, 76, 68
8, 14100, Control_c, 2, 11, 112
8, 14120, Control_c, 2, 11, 106
8, 14140, Control_c, 2, 11, 101
8, 14155, Note_on_c, 2, 76, 0
8, 14160, Control_c, 2, 11, 96
8, 14160, Note_on_c, 2, 76, 68
8, 14249, Note_on_c, 2, 76, 0
8, 15000, Control_c, 2, 11, 127
8, 15120, Note_on_c, 2, 75, 52
8, 15120, Note_on_c, 2, 72, 52
8, 15295, Note_on_c, 2, 75, 0
8, 15295, Note_on_c, 2, 72, 0
8, 15300, Note_on_c, 2, 76, 52
8, 15300, Note_on_c, 2, 72, 52
8, 15344, Note_on_c, 2, 76, 0
8, 15344, Note_on_c, 2, 72, 0
8, 15360, Note_on_c, 2, 72, 52
8, 15360, Note_on_c, 2, 78, 52
8, 15404, Note_on_c, 2, 72, 0
8, 15404, Note_on_c, 2, 78, 0
8, 15420, Note_on_c, 2, 76, 52
8, 15420, Note_on_c, 2, 72, 52
8, 15464, Note_on_c, 2, 76, 0
8, 15464, Note_on_c, 2, 72, 0
8, 15480, Note_on_c, 2, 72, 52
8, 15480, Note_on_c, 2, 75, 52
8, 15569, Note_on_c, 2, 72, 0
8, 15569, Note_on_c, 2, 75, 0
8, 15600, Note_on_c, 2, 72, 52
8, 15600, Note_on_c, 2, 75, 52
8, 15689, Note_on_c, 2, 72, 0
8, 15689, Note_on_c, 2, 75, 0
8, 18360, Note_on_c, 2, 71, 52
8, 18360, Note_on_c, 2, 66, 52
8, 18719, Note_on_c, 2, 71, 0
8, 18719, Note_on_c, 2, 66, 0
8, 18720, Note_on_c, 2, 71, 52
8, 18720, Note_on_c, 2, 68, 52
8, 19079, Note_on_c, 2, 71, 0
8, 19079, Note_on_c, 2, 68, 0
8, 19080, Note_on_c, 2, 71, 52
8, 19080, Note_on_c, 2, 69, 52
8, 19439, Note_on_c, 2, 71, 0
8, 19439, Note_on_c, 2, 69, 0
8, 19440, Note_on_c, 2, 68, 52
8, 19440, Note_on_c, 2, 71, 52
8, 19559, Note_on_c, 2, 68, 0
8, 19559, Note_on_c, 2, 71, 0
8, 21420, Note_on_c, 2, 69, 76
8, 21420, Note_on_c, 2, 66, 76
8, 21464, Note_on_c, 2, 69, 0
8, 21464, Note_on_c, 2, 66, 0
8, 21480, Note_on_c, 2, 71, 76
8, 21480, Note_on_c, 2, 68, 76
8, 21524, Note_on_c, 2, 71, 0
8, 21524, Note_on_c, 2, 68, 0
8, 21540, Note_on_c, 2, 73, 76
8, 21540, Note_on_c, 2, 69, 76
8, 21584, Note_on_c, 2, 73, 0
8, 21584, Note_on_c, 2, 69, 0
8, 21600, Note_on_c, 2, 64, 84
8, 21600, Note_on_c, 2, 68, 84
8, 21600, Control_c, 2, 11, 127
8, 21630, Control_c, 2, 11, 123
8, 21660, Control_c, 2, 11, 119
8, 21690, Control_c, 2, 11, 115
8, 21720, Control_c, 2, 11, 111
8, 21750, Control_c, 2, 11, 107
8, 21780, Control_c, 2, 11, 104
8, 21810, Control_c, 2, 11, 100
8, 21839, Note_on_c, 2, 64, 0
8, 21839, Note_on_c, 2, 68, 0
8, 21840, Note_on_c, 2, 69, 76
8, 21840, Control_c, 2, 11, 96
8, 21840, Note_on_c, 2, 66, 76
8, 21870, Control_c, 2, 11, 92
8, 21900, Control_c, 2, 11, 88
8, 21929, Note_on_c, 2, 69, 0
8, 21929, Note_on_c, 2, 66, 0
8, 21930, Note_on_c, 2, 63, 76
8, 21930, Note_on_c, 2, 66, 76
8, 21930, Control_c, 2, 11, 84
8, 21955, Note_on_c, 2, 63, 0
8, 21955, Note_on_c, 2, 66, 0
8, 21960, Control_c, 2, 11, 80
8, 21960, Note_on_c, 2, 64, 76
8, 22079, Note_on_c, 2, 64, 0
8, 23400, Note_on_c, 2, 69, 84
8, 23400, Note_on_c, 2, 66, 84
8, 23575, Note_on_c, 2, 69, 0
8, 23575, Note_on_c, 2, 66, 0
8, 23580, Note_on_c, 2, 76, 52
8, 23639, Note_on_c, 2, 76, 0
8, 23640, Note_on_c, 2, 75, 52
8, 23699, Note_on_c, 2, 75, 0
8, 23700, Note_on_c, 2, 71, 52
8, 23755, Note_on_c, 2, 71, 0
8, 23760, Note_on_c, 2, 73, 52
8, 23939, Note_on_c, 2, 73, 0
8, 24300, Note_on_c, 2, 78, 52
8, 24300, Note_on_c, 2, 74, 52
8, 24359, Note_on_c, 2, 78, 0
8, 24359, Note_on_c, 2, 74, 0
8, 24360, Note_on_c, 2, 76, 52
8, 24360, Note_on_c, 2, 73, 52
8, 24419, Note_on_c, 2, 76, 0
8, 24419, Note_on_c, 2, 73, 0
8, 24420, Note_on_c, 2, 74, 52
8, 24420, Note_on_c, 2, 71, 52
8, 24479, Note_on_c, 2, 74, 0
8, 24479, Note_on_c, 2, 71, 0
8, 24480, Note_on_c, 2, 73, 52
8, 24480, Note_on_c, 2, 69, 52
8, 24524, Note_on_c, 2, 73, 0
8, 24524, Note_on_c, 2, 69, 0
8, 24780, Note_on_c, 2, 78, 52
8, 24780, Note_on_c, 2, 74, 52
8, 24839, Note_on_c, 2, 78, 0
8, 24839, Note_on_c, 2, 74, 0
8, 24840, Note_on_c, 2, 76, 52
8, 24840, Note_on_c, 2, 73, 52
8, 24899, Note_on_c, 2, 76, 0
8, 24899, Note_on_c, 2, 73, 0
8, 24900, Note_on_c, 2, 74, 52
8, 24900, Note_on_c, 2, 71, 52
8, 24959, Note_on_c, 2, 74, 0
8, 24959, Note_on_c, 2, 71, 0
8, 24960, Note_on_c, 2, 73, 52
8, 24960, Note_on_c, 2, 69, 52
8, 25004, Note_on_c, 2, 73, 0
8, 25004, Note_on_c, 2, 69, 0
8, 25200, Control_c, 2, 11, 80
8, 25245, Control_c, 2, 11, 84
8, 25260, Note_on_c, 2, 78, 76
8, 25260, Note_on_c, 2, 74, 76
8, 25290, Control_c, 2, 11, 88
8, 25319, Note_on_c, 2, 78, 0
8, 25319, Note_on_c, 2, 74, 0
8, 25320, Note_on_c, 2, 73, 76
8, 25320, Note_on_c, 2, 76, 76
8, 25335, Control_c, 2, 11, 92
8, 25379, Note_on_c, 2, 73, 0
8, 25379, Note_on_c, 2, 76, 0
8, 25380, Note_on_c, 2, 71, 76
8, 25380, Note_on_c, 2, 74, 76
8, 25380, Control_c, 2, 11, 96
8, 25425, Control_c, 2, 11, 100
8, 25439, Note_on_c, 2, 71, 0
8, 25439, Note_on_c, 2, 74, 0
8, 25440, Note_on_c, 2, 69, 76
8, 25440, Note_on_c, 2, 73, 76
8, 25470, Control_c, 2, 11, 104
8, 25484, Note_on_c, 2, 69, 0
8, 25484, Note_on_c, 2, 73, 0
8, 25500, Note_on_c, 2, 78, 76
8, 25500, Note_on_c, 2, 74, 76
8, 25515, Control_c, 2, 11, 107
8, 25559, Note_on_c, 2, 78, 0
8, 25559, Note_on_c, 2, 74, 0
8, 25560, Note_on_c, 2, 76, 76
8, 25560, Control_c, 2, 11, 111
8, 25560, Note_on_c, 2, 73, 76
8, 25605, Control_c, 2, 11, 115
8, 25619, Note_on_c, 2, 76, 0
8, 25619, Note_on_c, 2, 73, 0
8, 25620, Note_on_c, 2, 74, 76
8, 25620, Note_on_c, 2, 71, 76
8, 25650, Control_c, 2, 11, 119
8, 25679, Note_on_c, 2, 74, 0
8, 25679, Note_on_c, 2, 71, 0
8, 25680, Note_on_c, 2, 73, 76
8, 25680, Note_on_c, 2, 69, 76
8, 25695, Control_c, 2, 11, 123
8, 25724, Note_on_c, 2, 73, 0
8, 25724, Note_on_c, 2, 69, 0
8, 25740, Control_c, 2, 11, 127
8, 25740, Note_on_c, 2, 78, 76
8, 25740, Note_on_c, 2, 74, 76
8, 25799, Note_on_c, 2, 78, 0
8, 25799, Note_on_c, 2, 74, 0
8, 25800, Note_on_c, 2, 73, 76
8, 25800, Note_on_c, 2, 76, 76
8, 25859, Note_on_c, 2, 73, 0
8, 25859, Note_on_c, 2, 76, 0
8, 25860, Note_on_c, 2, 71, 76
8, 25860, Note_on_c, 2, 74, 76
8, 25915, Note_on_c, 2, 71, 0
8, 25915, Note_on_c, 2, 74, 0
8, 25920, Note_on_c, 2, 73, 84
8, 25920, Note_on_c, 2, 69, 84
8, 26271, Note_on_c, 2, 73, 0
8, 26271, Note_on_c, 2, 69, 0
8, 26280, Note_on_c, 2, 73, 84
8, 26280, Note_on_c, 2, 69, 84
8, 26631, Note_on_c, 2, 73, 0
8, 26631, Note_on_c, 2, 69, 0
8, 26640, Note_on_c, 2, 71, 76
8, 26640, Note_on_c, 2, 69, 76
8, 26706, Note_on_c, 2, 71, 0
8, 26706, Note_on_c, 2, 69, 0
8, 26730, Note_on_c, 2, 71, 76
8, 26730, Note_on_c, 2, 69, 76
8, 26751, Note_on_c, 2, 71, 0
8, 26751, Note_on_c, 2, 69, 0
8, 26760, Note_on_c, 2, 71, 76
8, 26760, Note_on_c, 2, 69, 76
8, 26849, Note_on_c, 2, 71, 0
8, 26849, Note_on_c, 2, 69, 0
8, 27000, Note_on_c, 2, 71, 76
8, 27000, Note_on_c, 2, 68, 76
8, 27066, Note_on_c, 2, 71, 0
8, 27066, Note_on_c, 2, 68, 0
8, 27090, Note_on_c, 2, 68, 76
8, 27090, Note_on_c, 2, 71, 76
8, 27111, Note_on_c, 2, 68, 0
8, 27111, Note_on_c, 2, 71, 0
8, 27120, Note_on_c, 2, 68, 76
8, 27120, Note_on_c, 2, 71, 76
8, 27209, Note_on_c, 2, 68, 0
8, 27209, Note_on_c, 2, 71, 0
8, 27420, Note_on_c, 2, 69, 52
8, 27420, Note_on_c, 2, 78, 52
8, 27479, Note_on_c, 2, 69, 0
8, 27479, Note_on_c, 2, 78, 0
8, 27540, Note_on_c, 2, 68, 52
8, 27540, Note_on_c, 2, 76, 52
8, 27599, Note_on_c, 2, 68, 0
8, 27599, Note_on_c, 2, 76, 0
8, 27660, Note_on_c, 2, 75, 52
8, 27660, Note_on_c, 2, 66, 52
8, 27715, Note_on_c, 2, 75, 0
8, 27715, Note_on_c, 2, 66, 0
8, 27720, Note_on_c, 2, 76, 52
8, 27720, Note_on_c, 2, 68, 52
8, 27959, Note_on_c, 2, 76, 0
8, 27959, Note_on_c, 2, 68, 0
8, 28080, Note_on_c, 2, 71, 44
8, 28080, Note_on_c, 2, 69, 44
8, 28146, Note_on_c, 2, 71, 0
8, 28146, Note_on_c, 2, 69, 0
8, 28170, Note_on_c, 2, 71, 44
8, 28170, Note_on_c, 2, 69, 44
8, 28191, Note_on_c, 2, 71, 0
8, 28191, Note_on_c, 2, 69, 0
8, 28200, Note_on_c, 2, 71, 44
8, 28200, Note_on_c, 2, 69, 44
8, 28289, Note_on_c, 2, 71, 0
8, 28289, Note_on_c, 2, 69, 0
8, 28560, Note_on_c, 2, 71, 44
8, 28560, Note_on_c, 2, 68, 44
8, 28626, Note_on_c, 2, 71, 0
8, 28626, Note_on_c, 2, 68, 0
8, 28650, Note_on_c, 2, 71, 44
8, 28650, Note_on_c, 2, 68, 44
8, 28671, Note_on_c, 2, 71, 0
8, 28671, Note_on_c, 2, 68, 0
8, 28680, Note_on_c, 2, 68, 44
8, 28680, Note_on_c, 2, 71, 44
8, 28769, Note_on_c, 2, 68, 0
8, 28769, Note_on_c, 2, 71, 0
8, 28860, Note_on_c, 2, 69, 44
8, 28860, Note_on_c, 2, 73, 44
8, 28919, Note_on_c, 2, 69, 0
8, 28919, Note_on_c, 2, 73, 0
8, 28980, Note_on_c, 2, 71, 44
8, 28980, Note_on_c, 2, 68, 44
8, 29039, Note_on_c, 2, 71, 0
8, 29039, Note_on_c, 2, 68, 0
8, 29100, Note_on_c, 2, 69, 44
8, 29100, Note_on_c, 2, 66, 44
8, 29155, Note_on_c, 2, 69, 0
8, 29155, Note_on_c, 2, 66, 0
8, 29160, Note_on_c, 2, 64, 44
8, 29160, Note_on_c, 2, 68, 44
8, 29279, Note_on_c, 2, 64, 0
8, 29279, Note_on_c, 2, 68, 0
8, 31020, Note_on_c, 2, 64, 52
8, 31064, Note_on_c, 2, 64, 0
8, 31080, Note_on_c, 2, 68, 52
8, 31124, Note_on_c, 2, 68, 0
8, 31140, Note_on_c, 2, 71, 52
8, 31184, Note_on_c, 2, 71, 0
8, 31200, Note_on_c, 2, 76, 52
8, 31375, Note_on_c, 2, 76, 0
8, 31380, Note_on_c, 2, 61, 52
8, 31424, Note_on_c, 2, 61, 0
8, 31440, Note_on_c, 2, 66, 52
8, 31484, Note_on_c, 2, 66, 0
8, 31500, Note_on_c, 2, 69, 52
8, 31544, Note_on_c, 2, 69, 0
8, 31560, Note_on_c, 2, 73, 52
8, 31791, Note_on_c, 2, 73, 0
8, 31800, Note_on_c, 2, 71, 52
8, 31919, Note_on_c, 2, 71, 0
8, 31920, Note_on_c, 2, 69, 52
8, 32031, Note_on_c, 2, 69, 0
8, 32040, Note_on_c, 2, 68, 52
8, 32159, Note_on_c, 2, 68, 0
8, 32580, Note_on_c, 2, 59, 52
8, 32639, Note_on_c, 2, 59, 0
8, 32640, Note_on_c, 2, 71, 52
8, 32699, Note_on_c, 2, 71, 0
8, 32700, Note_on_c, 2, 69, 52
8, 32755, Note_on_c, 2, 69, 0
8, 32760, Note_on_c, 2, 68, 52
8, 32879, Note_on_c, 2, 68, 0
8, 33270, Control_c, 2, 11, 100
8, 33300, Note_on_c, 2, 59, 76
8, 33300, Control_c, 2, 11, 104
8, 33330, Control_c, 2, 11, 107
8, 33359, Note_on_c, 2, 59, 0
8, 33360, Control_c, 2, 11, 111
8, 33360, Note_on_c, 2, 71, 76
8, 33360, Note_on_c, 2, 66, 76
8, 33390, Control_c, 2, 11, 115
8, 33404, Note_on_c, 2, 66, 0
8, 33419, Note_on_c, 2, 71, 0
8, 33420, Control_c, 2, 11, 119
8, 33420, Note_on_c, 2, 66, 76
8, 33420, Note_on_c, 2, 69, 76
8, 33450, Control_c, 2, 11, 123
8, 33464, Note_on_c, 2, 66, 0
8, 33475, Note_on_c, 2, 69, 0
8, 33480, Control_c, 2, 11, 127
8, 33480, Note_on_c, 2, 68, 76
8, 33480, Note_on_c, 2, 64, 76
8, 33524, Note_on_c, 2, 68, 0
8, 33524, Note_on_c, 2, 64, 0
8, 33540, Note_on_c, 2, 69, 84
8, 33540, Note_on_c, 2, 66, 84
8, 33651, Note_on_c, 2, 69, 0
8, 33651, Note_on_c, 2, 66, 0
8, 33660, Note_on_c, 2, 66, 76
8, 33660, Note_on_c, 2, 63, 76
8, 33704, Note_on_c, 2, 66, 0
8, 33704, Note_on_c, 2, 63, 0
8, 33720, Note_on_c, 2, 66, 76
8, 33720, Note_on_c, 2, 63, 76
8, 33764, Note_on_c, 2, 66, 0
8, 33764, Note_on_c, 2, 63, 0
8, 33780, Note_on_c, 2, 66, 76
8, 33780, Note_on_c, 2, 63, 76
8, 33824, Note_on_c, 2, 66, 0
8, 33824, Note_on_c, 2, 63, 0
8, 33840, Note_on_c, 2, 68, 76
8, 33840, Note_on_c, 2, 64, 76
8, 33884, Note_on_c, 2, 68, 0
8, 33884, Note_on_c, 2, 64, 0
8, 33900, Note_on_c, 2, 69, 84
8, 33900, Note_on_c, 2, 66, 84
8, 34011, Note_on_c, 2, 69, 0
8, 34011, Note_on_c, 2, 66, 0
8, 34020, Note_on_c, 2, 66, 76
8, 34020, Note_on_c, 2, 63, 76
8, 34064, Note_on_c, 2, 66, 0
8, 34064, Note_on_c, 2, 63, 0
8, 34080, Note_on_c, 2, 66, 76
8, 34080, Note_on_c, 2, 63, 76
8, 34124, Note_on_c, 2, 66, 0
8, 34124, Note_on_c, 2, 63, 0
8, 34140, Note_on_c, 2, 66, 76
8, 34140, Note_on_c, 2, 63, 76
8, 34184, Note_on_c, 2, 66, 0
8, 34184, Note_on_c, 2, 63, 0
8, 34200, Note_on_c, 2, 68, 76
8, 34200, Note_on_c, 2, 64, 76
8, 34289, Note_on_c, 2, 68, 0
8, 34289, Note_on_c, 2, 64, 0
8, 34320, Note_on_c, 2, 76, 52
8, 34320, Note_on_c, 2, 68, 52
8, 34409, Note_on_c, 2, 76, 0
8, 34409, Note_on_c, 2, 68, 0
8, 34560, Control_c, 2, 11, 127
8, 34590, Control_c, 2, 11, 126
8, 34620, Control_c, 2, 11, 125
8, 34650, Control_c, 2, 11, 123
8, 34680, Note_on_c, 2, 71, 52
8, 34680, Control_c, 2, 11, 122
8, 34680, Note_on_c, 2, 68, 52
8, 34710, Control_c, 2, 11, 121
8, 34740, Control_c, 2, 11, 120
8, 34770, Control_c, 2, 11, 118
8, 34799, Note_on_c, 2, 71, 0
8, 34799, Note_on_c, 2, 68, 0
8, 34800, Control_c, 2, 11, 117
8, 34830, Control_c, 2, 11, 116
8, 34860, Control_c, 2, 11, 115
8, 34890, Control_c, 2, 11, 113
8, 34920, Control_c, 2, 11, 112
8, 35040, Note_on_c, 2, 68, 52
8, 35040, Note_on_c, 2, 64, 52
8, 35159, Note_on_c, 2, 68, 0
8, 35159, Note_on_c, 2, 64, 0
8, 36240, Control_c, 2, 11, 127
8, 36360, Note_on_c, 2, 72, 52
8, 36360, Note_on_c, 2, 69, 52
8, 36479, Note_on_c, 2, 72, 0
8, 36479, Note_on_c, 2, 69, 0
8, 36480, Note_on_c, 2, 74, 52
8, 36480, Note_on_c, 2, 71, 52
8, 36599, Note_on_c, 2, 74, 0
8, 36599, Note_on_c, 2, 71, 0
8, 36600, Note_on_c, 2, 72, 52
8, 36600, Note_on_c, 2, 69, 52
8, 36711, Note_on_c, 2, 72, 0
8, 36711, Note_on_c, 2, 69, 0
8, 36720, Note_on_c, 2, 71, 52
8, 36720, Note_on_c, 2, 68, 52
8, 36839, Note_on_c, 2, 71, 0
8, 36839, Note_on_c, 2, 68, 0
8, 54360, Note_on_c, 2, 74, 92
8, 54360, Note_on_c, 2, 62, 92
8, 54711, Note_on_c, 2, 74, 0
8, 54711, Note_on_c, 2, 62, 0
8, 54720, Note_on_c, 2, 74, 84
8, 54720, Note_on_c, 2, 71, 84
8, 54720, Control_c, 2, 11, 127
8, 54750, Control_c, 2, 11, 122
8, 54780, Control_c, 2, 11, 117
8, 54810, Control_c, 2, 11, 111
8, 54840, Control_c, 2, 11, 106
8, 54870, Control_c, 2, 11, 101
8, 54900, Control_c, 2, 11, 96
8, 54930, Control_c, 2, 11, 90
8, 54959, Note_on_c, 2, 74, 0
8, 54960, Note_on_c, 2, 76, 84
8, 54960, Control_c, 2, 11, 85
8, 54990, Control_c, 2, 11, 80
8, 55020, Control_c, 2, 11, 75
8, 55050, Control_c, 2, 11, 69
8, 55071, Note_on_c, 2, 71, 0
8, 55071, Note_on_c, 2, 76, 0
8, 55080, Control_c, 2, 11, 64
8, 55080, Note_on_c, 2, 76, 84
8, 55080, Note_on_c, 2, 73, 84
8, 55439, Note_on_c, 2, 76, 0
8, 55439, Note_on_c, 2, 73, 0
8, 55440, Note_on_c, 2, 74, 84
8, 55440, Note_on_c, 2, 71, 84
8, 55440, Control_c, 2, 11, 64
8, 55490, Control_c, 2, 11, 63
8, 55540, Control_c, 2, 11, 61
8, 55590, Control_c, 2, 11, 60
8, 55640, Control_c, 2, 11, 59
8, 55690, Control_c, 2, 11, 57
8, 55740, Control_c, 2, 11, 56
8, 55790, Control_c, 2, 11, 55
8, 55799, Note_on_c, 2, 74, 0
8, 55799, Note_on_c, 2, 71, 0
8, 55800, Note_on_c, 2, 73, 84
8, 55800, Note_on_c, 2, 69, 84
8, 55840, Control_c, 2, 11, 53
8, 55890, Control_c, 2, 11, 52
8, 55940, Control_c, 2, 11, 51
8, 55990, Control_c, 2, 11, 49
8, 56040, Control_c, 2, 11, 48
8, 56159, Note_on_c, 2, 73, 0
8, 56159, Note_on_c, 2, 69, 0
8, 56160, Note_on_c, 2, 71, 84
8, 56160, Note_on_c, 2, 68, 84
8, 56160, Control_c, 2, 11, 48
8, 56190, Control_c, 2, 11, 52
8, 56220, Control_c, 2, 11, 56
8, 56250, Control_c, 2, 11, 60
8, 56280, Control_c, 2, 11, 64
8, 56310, Control_c, 2, 11, 68
8, 56340, Control_c, 2, 11, 72
8, 56370, Control_c, 2, 11, 76
8, 56400, Control_c, 2, 11, 80
8, 56430, Control_c, 2, 11, 84
8, 56460, Control_c, 2, 11, 88
8, 56490, Control_c, 2, 11, 92
8, 56516, Control_c, 2, 11, 64
8, 56519, Note_on_c, 2, 71, 0
8, 56519, Note_on_c, 2, 68, 0
8, 56520, Note_on_c, 2, 69, 84
8, 56639, Note_on_c, 2, 69, 0
8, 59160, Control_c, 2, 11, 96
8, 59280, Note_on_c, 2, 64, 68
8, 59391, Note_on_c, 2, 64, 0
8, 59400, Note_on_c, 2, 64, 68
8, 59400, Note_on_c, 2, 61, 68
8, 59519, Note_on_c, 2, 64, 0
8, 59519, Note_on_c, 2, 61, 0
8, 59520, Note_on_c, 2, 64, 68
8, 59520, Note_on_c, 2, 69, 68
8, 59639, Note_on_c, 2, 64, 0
8, 59639, Note_on_c, 2, 69, 0
8, 59640, Note_on_c, 2, 71, 68
8, 59640, Note_on_c, 2, 68, 68
8, 59751, Note_on_c, 2, 71, 0
8, 59751, Note_on_c, 2, 68, 0
8, 59760, Note_on_c, 2, 73, 68
8, 59760, Note_on_c, 2, 69, 68
8, 60111, Note_on_c, 2, 73, 0
8, 60111, Note_on_c, 2, 69, 0
8, 60120, Note_on_c, 2, 73, 68
8, 60120, Note_on_c, 2, 69, 68
8, 60134, Note_on_c, 2, 73, 0
8, 60135, Note_on_c, 2, 74, 68
8, 60149, Note_on_c, 2, 74, 0
8, 60150, Note_on_c, 2, 73, 68
8, 60164, Note_on_c, 2, 73, 0
8, 60165, Note_on_c, 2, 74, 68
8, 60179, Note_on_c, 2, 74, 0
8, 60180, Note_on_c, 2, 73, 68
8, 60194, Note_on_c, 2, 73, 0
8, 60195, Note_on_c, 2, 74, 68
8, 60209, Note_on_c, 2, 74, 0
8, 60210, Note_on_c, 2, 71, 68
8, 60224, Note_on_c, 2, 71, 0
8, 60225, Note_on_c, 2, 73, 68
8, 60239, Note_on_c, 2, 69, 0
8, 60239, Note_on_c, 2, 73, 0
8, 60240, Note_on_c, 2, 71, 68
8, 60240, Note_on_c, 2, 76, 68
8, 60329, Note_on_c, 2, 76, 0
8, 60330, Note_on_c, 2, 74, 68
8, 60359, Note_on_c, 2, 71, 0
8, 60359, Note_on_c, 2, 74, 0
8, 60360, Note_on_c, 2, 69, 68
8, 60360, Note_on_c, 2, 73, 68
8, 60471, Note_on_c, 2, 69, 0
8, 60471, Note_on_c, 2, 73, 0
8, 60480, Note_on_c, 2, 68, 68
8, 60480, Note_on_c, 2, 71, 68
8, 60831, Note_on_c, 2, 68, 0
8, 60831, Note_on_c, 2, 71, 0
8, 60840, Note_on_c, 2, 76, 68
8, 60840, Note_on_c, 2, 69, 68
8, 60840, Control_c, 2, 11, 96
8, 60900, Control_c, 2, 11, 99
8, 60959, Note_on_c, 2, 76, 0
8, 60959, Note_on_c, 2, 69, 0
8, 60960, Note_on_c, 2, 74, 68
8, 60960, Note_on_c, 2, 68, 68
8, 60960, Control_c, 2, 11, 101
8, 61020, Control_c, 2, 11, 104
8, 61079, Note_on_c, 2, 74, 0
8, 61079, Note_on_c, 2, 68, 0
8, 61080, Control_c, 2, 11, 106
8, 61080, Note_on_c, 2, 73, 68
8, 61080, Note_on_c, 2, 69, 68
8, 61140, Control_c, 2, 11, 109
8, 61191, Note_on_c, 2, 73, 0
8, 61191, Note_on_c, 2, 69, 0
8, 61200, Control_c, 2, 11, 112
8, 61200, Note_on_c, 2, 64, 68
8, 61200, Note_on_c, 2, 71, 68
8, 61260, Control_c, 2, 11, 114
8, 61320, Control_c, 2, 11, 117
8, 61380, Control_c, 2, 11, 119
8, 61439, Note_on_c, 2, 64, 0
8, 61439, Note_on_c, 2, 71, 0
8, 61440, Note_on_c, 2, 64, 68
8, 61440, Note_on_c, 2, 73, 68
8, 61440, Control_c, 2, 11, 122
8, 61500, Control_c, 2, 11, 124
8, 61551, Note_on_c, 2, 64, 0
8, 61551, Note_on_c, 2, 73, 0
8, 61560, Control_c, 2, 11, 96
8, 61560, Note_on_c, 2, 68, 68
8, 61560, Note_on_c, 2, 64, 68
8, 61799, Note_on_c, 2, 68, 0
8, 61799, Note_on_c, 2, 64, 0
8, 61800, Note_on_c, 2, 66, 68
8, 61800, Note_on_c, 2, 69, 68
8, 61889, Note_on_c, 2, 66, 0
8, 61889, Note_on_c, 2, 69, 0
8, 61890, Note_on_c, 2, 63, 68
8, 61890, Note_on_c, 2, 66, 68
8, 61915, Note_on_c, 2, 63, 0
8, 61915, Note_on_c, 2, 66, 0
8, 61920, Note_on_c, 2, 64, 68
8, 62039, Note_on_c, 2, 64, 0
8, 65040, Note_on_c, 2, 64, 68
8, 65129, Note_on_c, 2, 64, 0
8, 65130, Note_on_c, 2, 71, 68
8, 65155, Note_on_c, 2, 71, 0
8, 65160, Note_on_c, 2, 71, 68
8, 65160, Note_on_c, 2, 64, 68
8, 65279, Note_on_c, 2, 71, 0
8, 65280, Note_on_c, 2, 69, 68
8, 65399, Note_on_c, 2, 64, 0
8, 65399, Note_on_c, 2, 69, 0
8, 65400, Note_on_c, 2, 68, 68
8, 65400, Note_on_c, 2, 71, 68
8, 65511, Note_on_c, 2, 68, 0
8, 65511, Note_on_c, 2, 71, 0
8, 65520, Note_on_c, 2, 68, 68
8, 65520, Note_on_c, 2, 72, 68
8, 65520, Control_c, 2, 11, 96
8, 65540, Control_c, 2, 11, 95
8, 65560, Control_c, 2, 11, 93
8, 65580, Control_c, 2, 11, 92
8, 65600, Control_c, 2, 11, 91
8, 65620, Control_c, 2, 11, 89
8, 65639, Note_on_c, 2, 68, 0
8, 65639, Note_on_c, 2, 72, 0
8, 65640, Control_c, 2, 11, 88
8, 65640, Note_on_c, 2, 69, 68
8, 65640, Note_on_c, 2, 73, 68
8, 65660, Control_c, 2, 11, 87
8, 65680, Control_c, 2, 11, 85
8, 65699, Note_on_c, 2, 69, 0
8, 65699, Note_on_c, 2, 73, 0
8, 65700, Control_c, 2, 11, 84
8, 65720, Control_c, 2, 11, 83
8, 65740, Control_c, 2, 11, 81
8, 65760, Note_on_c, 2, 64, 68
8, 65760, Control_c, 2, 11, 80
8, 65849, Note_on_c, 2, 64, 0
8, 65850, Note_on_c, 2, 69, 68
8, 65850, Note_on_c, 2, 73, 68
8, 65875, Note_on_c, 2, 69, 0
8, 65875, Note_on_c, 2, 73, 0
8, 65880, Note_on_c, 2, 73, 68
8, 65880, Note_on_c, 2, 69, 68
8, 65999, Note_on_c, 2, 73, 0
8, 65999, Note_on_c, 2, 69, 0
8, 66000, Note_on_c, 2, 71, 68
8, 66000, Note_on_c, 2, 68, 68
8, 66119, Note_on_c, 2, 71, 0
8, 66119, Note_on_c, 2, 68, 0
8, 66120, Note_on_c, 2, 69, 68
8, 66120, Note_on_c, 2, 73, 68
8, 66231, Note_on_c, 2, 69, 0
8, 66231, Note_on_c, 2, 73, 0
8, 66240, Note_on_c, 2, 70, 68
8, 66240, Note_on_c, 2, 73, 68
8, 66240, Control_c, 2, 11, 96
8, 66260, Control_c, 2, 11, 95
8, 66280, Control_c, 2, 11, 93
8, 66300, Control_c, 2, 11, 92
8, 66320, Control_c, 2, 11, 91
8, 66340, Control_c, 2, 11, 89
8, 66359, Note_on_c, 2, 70, 0
8, 66359, Note_on_c, 2, 73, 0
8, 66360, Note_on_c, 2, 74, 68
8, 66360, Control_c, 2, 11, 88
8, 66360, Note_on_c, 2, 71, 68
8, 66380, Control_c, 2, 11, 87
8, 66400, Control_c, 2, 11, 85
8, 66419, Note_on_c, 2, 74, 0
8, 66419, Note_on_c, 2, 71, 0
8, 66420, Control_c, 2, 11, 84
8, 66440, Control_c, 2, 11, 83
8, 66460, Control_c, 2, 11, 81
8, 66480, Control_c, 2, 11, 80
8, 66480, Note_on_c, 2, 74, 68
8, 66480, Note_on_c, 2, 71, 68
8, 66591, Note_on_c, 2, 74, 0
8, 66591, Note_on_c, 2, 71, 0
8, 66600, Control_c, 2, 11, 96
8, 66600, Note_on_c, 2, 71, 68
8, 66600, Control_c, 2, 11, 96
8, 66600, Note_on_c, 2, 74, 68
8, 66630, Control_c, 2, 11, 99
8, 66660, Control_c, 2, 11, 101
8, 66690, Control_c, 2, 11, 104
8, 66720, Control_c, 2, 11, 106
8, 66750, Control_c, 2, 11, 109
8, 66780, Control_c, 2, 11, 112
8, 66810, Control_c, 2, 11, 114
8, 66839, Note_on_c, 2, 71, 0
8, 66839, Note_on_c, 2, 74, 0
8, 66840, Note_on_c, 2, 73, 68
8, 66840, Note_on_c, 2, 76, 68
8, 66840, Control_c, 2, 11, 117
8, 66870, Control_c, 2, 11, 119
8, 66899, Note_on_c, 2, 73, 0
8, 66899, Note_on_c, 2, 76, 0
8, 66900, Note_on_c, 2, 78, 68
8, 66900, Control_c, 2, 11, 122
8, 66900, Note_on_c, 2, 74, 68
8, 66930, Control_c, 2, 11, 124
8, 66955, Note_on_c, 2, 78, 0
8, 66955, Note_on_c, 2, 74, 0
8, 66960, Note_on_c, 2, 78, 76
8, 66960, Note_on_c, 2, 74, 76
8, 67019, Note_on_c, 2, 78, 0
8, 67019, Note_on_c, 2, 74, 0
8, 67020, Note_on_c, 2, 68, 68
8, 67020, Note_on_c, 2, 71, 68
8, 67020, Control_c, 2, 11, 127
8, 67045, Control_c, 2, 11, 124
8, 67070, Control_c, 2, 11, 122
8, 67095, Control_c, 2, 11, 119
8, 67120, Control_c, 2, 11, 117
8, 67145, Control_c, 2, 11, 114
8, 67170, Control_c, 2, 11, 112
8, 67195, Control_c, 2, 11, 109
8, 67199, Note_on_c, 2, 68, 0
8, 67199, Note_on_c, 2, 71, 0
8, 67200, Note_on_c, 2, 69, 68
8, 67200, Note_on_c, 2, 73, 68
8, 67220, Control_c, 2, 11, 106
8, 67245, Control_c, 2, 11, 104
8, 67270, Control_c, 2, 11, 101
8, 67295, Control_c, 2, 11, 99
8, 67311, Note_on_c, 2, 69, 0
8, 67311, Note_on_c, 2, 73, 0
8, 67320, Note_on_c, 2, 73, 68
8, 67320, Note_on_c, 2, 76, 68
8, 67320, Control_c, 2, 11, 96
8, 67499, Note_on_c, 2, 73, 0
8, 67499, Note_on_c, 2, 76, 0
8, 67500, Note_on_c, 2, 74, 68
8, 67500, Note_on_c, 2, 71, 68
8, 67559, Note_on_c, 2, 74, 0
8, 67559, Note_on_c, 2, 71, 0
8, 67560, Note_on_c, 2, 73, 68
8, 67560, Note_on_c, 2, 69, 68
8, 67619, Note_on_c, 2, 73, 0
8, 67619, Note_on_c, 2, 69, 0
8, 67620, Note_on_c, 2, 71, 68
8, 67620, Note_on_c, 2, 68, 68
8, 67675, Note_on_c, 2, 71, 0
8, 67675, Note_on_c, 2, 68, 0
8, 67680, Note_on_c, 2, 69, 68
8, 67799, Note_on_c, 2, 69, 0
8, 67920, Control_c, 2, 11, 127
8, 67980, Note_on_c, 2, 64, 52
8, 68035, Note_on_c, 2, 64, 0
8, 68040, Note_on_c, 2, 64, 52
8, 68129, Note_on_c, 2, 64, 0
8, 68130, Note_on_c, 2, 69, 52
8, 68155, Note_on_c, 2, 69, 0
8, 68160, Note_on_c, 2, 73, 68
8, 68339, Note_on_c, 2, 73, 0
8, 68340, Note_on_c, 2, 69, 52
8, 68395, Note_on_c, 2, 69, 0
8, 68400, Note_on_c, 2, 68, 52
8, 68489, Note_on_c, 2, 68, 0
8, 68490, Note_on_c, 2, 71, 52
8, 68515, Note_on_c, 2, 71, 0
8, 68520, Note_on_c, 2, 74, 52
8, 68639, Note_on_c, 2, 74, 0
8, 69420, Note_on_c, 2, 64, 52
8, 69475, Note_on_c, 2, 64, 0
8, 69480, Note_on_c, 2, 64, 52
8, 69569, Note_on_c, 2, 64, 0
8, 69570, Note_on_c, 2, 69, 52
8, 69595, Note_on_c, 2, 69, 0
8, 69600, Note_on_c, 2, 72, 68
8, 69779, Note_on_c, 2, 72, 0
8, 69780, Note_on_c, 2, 69, 52
8, 69835, Note_on_c, 2, 69, 0
8, 69840, Note_on_c, 2, 68, 52
8, 69929, Note_on_c, 2, 68, 0
8, 69930, Note_on_c, 2, 71, 52
8, 69955, Note_on_c, 2, 71, 0
8, 69960, Note_on_c, 2, 74, 52
8, 70049, Note_on_c, 2, 74, 0
8, 70200, Control_c, 2, 11, 96
8, 70320, Note_on_c, 2, 76, 68
8, 70320, Control_c, 2, 11, 96
8, 70340, Control_c, 2, 11, 99
8, 70360, Control_c, 2, 11, 101
8, 70380, Control_c, 2, 11, 104
8, 70400, Control_c, 2, 11, 106
8, 70420, Control_c, 2, 11, 109
8, 70440, Control_c, 2, 11, 112
8, 70460, Control_c, 2, 11, 114
8, 70480, Control_c, 2, 11, 117
8, 70495, Note_on_c, 2, 76, 0
8, 70500, Control_c, 2, 11, 119
8, 70500, Note_on_c, 2, 76, 68
8, 70520, Control_c, 2, 11, 122
8, 70540, Control_c, 2, 11, 124
8, 70555, Note_on_c, 2, 76, 0
8, 70560, Control_c, 2, 11, 127
8, 70560, Note_on_c, 2, 77, 76
8, 70619, Note_on_c, 2, 77, 0
8, 70620, Note_on_c, 2, 76, 68
8, 70675, Note_on_c, 2, 76, 0
8, 70680, Note_on_c, 2, 76, 68
8, 70769, Note_on_c, 2, 76, 0
8, 73140, Note_on_c, 2, 71, 76
8, 73140, Note_on_c, 2, 68, 76
8, 73251, Note_on_c, 2, 71, 0
8, 73251, Note_on_c, 2, 68, 0
8, 73260, Note_on_c, 2, 71, 52
8, 73260, Note_on_c, 2, 68, 52
8, 73304, Note_on_c, 2, 71, 0
8, 73304, Note_on_c, 2, 68, 0
8, 73320, Note_on_c, 2, 72, 52
8, 73320, Note_on_c, 2, 69, 52
8, 73364, Note_on_c, 2, 72, 0
8, 73364, Note_on_c, 2, 69, 0
8, 73380, Note_on_c, 2, 72, 52
8, 73380, Note_on_c, 2, 69, 52
8, 73424, Note_on_c, 2, 72, 0
8, 73424, Note_on_c, 2, 69, 0
8, 73440, Note_on_c, 2, 74, 52
8, 73440, Note_on_c, 2, 71, 52
8, 73559, Note_on_c, 2, 74, 0
8, 73559, Note_on_c, 2, 71, 0
8, 73860, Note_on_c, 2, 71, 76
8, 73860, Note_on_c, 2, 68, 76
8, 73971, Note_on_c, 2, 71, 0
8, 73971, Note_on_c, 2, 68, 0
8, 73980, Note_on_c, 2, 71, 52
8, 73980, Note_on_c, 2, 68, 52
8, 74024, Note_on_c, 2, 71, 0
8, 74024, Note_on_c, 2, 68, 0
8, 74040, Note_on_c, 2, 72, 52
8, 74040, Note_on_c, 2, 69, 52
8, 74084, Note_on_c, 2, 72, 0
8, 74084, Note_on_c, 2, 69, 0
8, 74100, Note_on_c, 2, 72, 52
8, 74100, Note_on_c, 2, 69, 52
8, 74144, Note_on_c, 2, 72, 0
8, 74144, Note_on_c, 2, 69, 0
8, 74160, Note_on_c, 2, 74, 52
8, 74160, Note_on_c, 2, 71, 52
8, 74279, Note_on_c, 2, 74, 0
8, 74279, Note_on_c, 2, 71, 0
8, 74580, Note_on_c, 2, 74, 76
8, 74580, Note_on_c, 2, 71, 76
8, 74691, Note_on_c, 2, 74, 0
8, 74691, Note_on_c, 2, 71, 0
8, 74700, Note_on_c, 2, 74, 52
8, 74700, Note_on_c, 2, 71, 52
8, 74744, Note_on_c, 2, 74, 0
8, 74744, Note_on_c, 2, 71, 0
8, 74760, Note_on_c, 2, 72, 52
8, 74760, Note_on_c, 2, 69, 52
8, 74804, Note_on_c, 2, 72, 0
8, 74804, Note_on_c, 2, 69, 0
8, 74820, Note_on_c, 2, 69, 52
8, 74820, Note_on_c, 2, 72, 52
8, 74864, Note_on_c, 2, 69, 0
8, 74864, Note_on_c, 2, 72, 0
8, 74880, Note_on_c, 2, 71, 84
8, 74880, Note_on_c, 2, 68, 84
8, 74924, Note_on_c, 2, 71, 0
8, 74924, Note_on_c, 2, 68, 0
8, 74940, Note_on_c, 2, 74, 84
8, 74940, Note_on_c, 2, 71, 84
8, 74984, Note_on_c, 2, 74, 0
8, 74984, Note_on_c, 2, 71, 0
8, 75000, Note_on_c, 2, 74, 84
8, 75000, Note_on_c, 2, 71, 84
8, 75044, Note_on_c, 2, 74, 0
8, 75044, Note_on_c, 2, 71, 0
8, 75060, Note_on_c, 2, 74, 84
8, 75060, Note_on_c, 2, 71, 84
8, 75104, Note_on_c, 2, 74, 0
8, 75104, Note_on_c, 2, 71, 0
8, 75120, Note_on_c, 2, 72, 84
8, 75120, Note_on_c, 2, 69, 84
8, 75164, Note_on_c, 2, 72, 0
8, 75164, Note_on_c, 2, 69, 0
8, 75180, Note_on_c, 2, 72, 84
8, 75180, Note_on_c, 2, 69, 84
8, 75224, Note_on_c, 2, 72, 0
8, 75224, Note_on_c, 2, 69, 0
8, 75240, Note_on_c, 2, 71, 84
8, 75240, Note_on_c, 2, 68, 84
8, 75359, Note_on_c, 2, 71, 0
8, 75359, Note_on_c, 2, 68, 0
8, 77400, Note_on_c, 2, 71, 52
8, 77400, Note_on_c, 2, 64, 52
8, 77759, Note_on_c, 2, 71, 0
8, 77759, Note_on_c, 2, 64, 0
8, 77760, Note_on_c, 2, 73, 52
8, 77760, Note_on_c, 2, 64, 52
8, 78119, Note_on_c, 2, 73, 0
8, 78119, Note_on_c, 2, 64, 0
8, 78120, Note_on_c, 2, 74, 52
8, 78120, Note_on_c, 2, 64, 52
8, 78479, Note_on_c, 2, 74, 0
8, 78479, Note_on_c, 2, 64, 0
8, 78480, Note_on_c, 2, 73, 52
8, 78480, Note_on_c, 2, 64, 52
8, 78599, Note_on_c, 2, 73, 0
8, 78599, Note_on_c, 2, 64, 0
8, 80460, Note_on_c, 2, 74, 76
8, 80460, Note_on_c, 2, 71, 76
8, 80504, Note_on_c, 2, 74, 0
8, 80504, Note_on_c, 2, 71, 0
8, 80520, Note_on_c, 2, 76, 76
8, 80520, Note_on_c, 2, 73, 76
8, 80564, Note_on_c, 2, 76, 0
8, 80564, Note_on_c, 2, 73, 0
8, 80580, Note_on_c, 2, 78, 76
8, 80580, Note_on_c, 2, 74, 76
8, 80624, Note_on_c, 2, 78, 0
8, 80624, Note_on_c, 2, 74, 0
8, 80640, Note_on_c, 2, 73, 84
8, 80640, Note_on_c, 2, 69, 84
8, 80640, Control_c, 2, 11, 127
8, 80670, Control_c, 2, 11, 123
8, 80700, Control_c, 2, 11, 119
8, 80730, Control_c, 2, 11, 115
8, 80760, Control_c, 2, 11, 111
8, 80790, Control_c, 2, 11, 107
8, 80820, Control_c, 2, 11, 104
8, 80850, Control_c, 2, 11, 100
8, 80879, Note_on_c, 2, 73, 0
8, 80879, Note_on_c, 2, 69, 0
8, 80880, Note_on_c, 2, 74, 76
8, 80880, Note_on_c, 2, 71, 76
8, 80880, Control_c, 2, 11, 96
8, 80910, Control_c, 2, 11, 92
8, 80940, Control_c, 2, 11, 88
8, 80969, Note_on_c, 2, 74, 0
8, 80969, Note_on_c, 2, 71, 0
8, 80970, Control_c, 2, 11, 84
8, 80970, Note_on_c, 2, 71, 76
8, 80970, Note_on_c, 2, 68, 76
8, 80995, Note_on_c, 2, 71, 0
8, 80995, Note_on_c, 2, 68, 0
8, 81000, Control_c, 2, 11, 80
8, 81000, Note_on_c, 2, 69, 76
8, 81119, Note_on_c, 2, 69, 0
8, 81300, Note_on_c, 2, 69, 76
8, 81344, Note_on_c, 2, 69, 0
8, 81360, Note_on_c, 2, 71, 76
8, 81360, Control_c, 2, 11, 80
8, 81404, Note_on_c, 2, 71, 0
8, 81420, Note_on_c, 2, 69, 76
8, 81430, Control_c, 2, 11, 84
8, 81464, Note_on_c, 2, 69, 0
8, 81480, Note_on_c, 2, 71, 76
8, 81500, Control_c, 2, 11, 88
8, 81570, Control_c, 2, 11, 92
8, 81640, Control_c, 2, 11, 96
8, 81655, Note_on_c, 2, 71, 0
8, 81660, Note_on_c, 2, 71, 76
8, 81704, Note_on_c, 2, 71, 0
8, 81710, Control_c, 2, 11, 100
8, 81720, Note_on_c, 2, 73, 76
8, 81764, Note_on_c, 2, 73, 0
8, 81780, Control_c, 2, 11, 104
8, 81780, Note_on_c, 2, 72, 76
8, 81824, Note_on_c, 2, 72, 0
8, 81840, Note_on_c, 2, 73, 76
8, 81850, Control_c, 2, 11, 107
8, 81920, Control_c, 2, 11, 111
8, 81990, Control_c, 2, 11, 115
8, 82015, Note_on_c, 2, 73, 0
8, 82020, Note_on_c, 2, 73, 76
8, 82060, Control_c, 2, 11, 119
8, 82064, Note_on_c, 2, 73, 0
8, 82080, Note_on_c, 2, 74, 76
8, 82124, Note_on_c, 2, 74, 0
8, 82130, Control_c, 2, 11, 123
8, 82140, Note_on_c, 2, 73, 76
8, 82184, Note_on_c, 2, 73, 0
8, 82200, Control_c, 2, 11, 127
8, 82200, Note_on_c, 2, 74, 76
8, 82375, Note_on_c, 2, 74, 0
8, 82380, Note_on_c, 2, 74, 76
8, 82424, Note_on_c, 2, 74, 0
8, 82440, Note_on_c, 2, 76, 84
8, 82615, Note_on_c, 2, 76, 0
8, 82620, Note_on_c, 2, 73, 52
8, 82620, Note_on_c, 2, 69, 52
8, 82679, Note_on_c, 2, 73, 0
8, 82679, Note_on_c, 2, 69, 0
8, 82680, Note_on_c, 2, 71, 52
8, 82680, Note_on_c, 2, 68, 52
8, 82739, Note_on_c, 2, 71, 0
8, 82739, Note_on_c, 2, 68, 0
8, 82740, Note_on_c, 2, 64, 52
8, 82740, Note_on_c, 2, 68, 52
8, 82795, Note_on_c, 2, 64, 0
8, 82795, Note_on_c, 2, 68, 0
8, 82800, Note_on_c, 2, 69, 52
8, 82800, Note_on_c, 2, 66, 52
8, 82979, Note_on_c, 2, 69, 0
8, 82979, Note_on_c, 2, 66, 0
8, 84520, Control_c, 2, 11, 107
8, 84540, Note_on_c, 2, 73, 76
8, 84540, Note_on_c, 2, 61, 76
8, 84560, Control_c, 2, 11, 111
8, 84599, Note_on_c, 2, 73, 0
8, 84599, Note_on_c, 2, 61, 0
8, 84600, Note_on_c, 2, 74, 76
8, 84600, Control_c, 2, 11, 115
8, 84600, Note_on_c, 2, 62, 76
8, 84640, Control_c, 2, 11, 119
8, 84659, Note_on_c, 2, 74, 0
8, 84659, Note_on_c, 2, 62, 0
8, 84660, Note_on_c, 2, 76, 76
8, 84660, Note_on_c, 2, 64, 76
8, 84680, Control_c, 2, 11, 123
8, 84719, Note_on_c, 2, 76, 0
8, 84719, Note_on_c, 2, 64, 0
8, 84720, Control_c, 2, 11, 127
8, 84720, Note_on_c, 2, 66, 76
8, 84720, Note_on_c, 2, 78, 76
8, 84764, Note_on_c, 2, 66, 0
8, 84764, Note_on_c, 2, 78, 0
8, 84780, Note_on_c, 2, 61, 76
8, 84780, Note_on_c, 2, 73, 76
8, 84839, Note_on_c, 2, 61, 0
8, 84839, Note_on_c, 2, 73, 0
8, 84840, Note_on_c, 2, 62, 76
8, 84840, Note_on_c, 2, 74, 76
8, 84899, Note_on_c, 2, 62, 0
8, 84899, Note_on_c, 2, 74, 0
8, 84900, Note_on_c, 2, 64, 76
8, 84900, Note_on_c, 2, 76, 76
8, 84955, Note_on_c, 2, 64, 0
8, 84955, Note_on_c, 2, 76, 0
8, 84960, Note_on_c, 2, 66, 84
8, 84960, Note_on_c, 2, 78, 84
8, 85311, Note_on_c, 2, 66, 0
8, 85311, Note_on_c, 2, 78, 0
8, 85320, Note_on_c, 2, 74, 84
8, 85320, Note_on_c, 2, 66, 84
8, 85671, Note_on_c, 2, 74, 0
8, 85671, Note_on_c, 2, 66, 0
8, 85680, Note_on_c, 2, 74, 76
8, 85680, Note_on_c, 2, 64, 76
8, 85746, Note_on_c, 2, 74, 0
8, 85746, Note_on_c, 2, 64, 0
8, 85770, Note_on_c, 2, 74, 76
8, 85770, Note_on_c, 2, 64, 76
8, 85791, Note_on_c, 2, 74, 0
8, 85791, Note_on_c, 2, 64, 0
8, 85800, Note_on_c, 2, 64, 76
8, 85800, Note_on_c, 2, 74, 76
8, 85889, Note_on_c, 2, 64, 0
8, 85889, Note_on_c, 2, 74, 0
8, 86040, Note_on_c, 2, 73, 76
8, 86040, Note_on_c, 2, 64, 76
8, 86106, Note_on_c, 2, 73, 0
8, 86106, Note_on_c, 2, 64, 0
8, 86130, Note_on_c, 2, 64, 76
8, 86130, Note_on_c, 2, 73, 76
8, 86151, Note_on_c, 2, 64, 0
8, 86151, Note_on_c, 2, 73, 0
8, 86160, Note_on_c, 2, 73, 76
8, 86160, Note_on_c, 2, 64, 76
8, 86249, Note_on_c, 2, 73, 0
8, 86249, Note_on_c, 2, 64, 0
8, 87240, Note_on_c, 2, 71, 44
8, 87240, Note_on_c, 2, 74, 44
8, 87306, Note_on_c, 2, 71, 0
8, 87306, Note_on_c, 2, 74, 0
8, 87330, Note_on_c, 2, 74, 44
8, 87330, Note_on_c, 2, 71, 44
8, 87351, Note_on_c, 2, 74, 0
8, 87351, Note_on_c, 2, 71, 0
8, 87360, Note_on_c, 2, 71, 44
8, 87360, Note_on_c, 2, 74, 44
8, 87449, Note_on_c, 2, 71, 0
8, 87449, Note_on_c, 2, 74, 0
8, 87600, Note_on_c, 2, 73, 44
8, 87600, Note_on_c, 2, 69, 44
8, 87666, Note_on_c, 2, 73, 0
8, 87666, Note_on_c, 2, 69, 0
8, 87690, Note_on_c, 2, 69, 44
8, 87690, Note_on_c, 2, 73, 44
8, 87711, Note_on_c, 2, 69, 0
8, 87711, Note_on_c, 2, 73, 0
8, 87720, Note_on_c, 2, 73, 44
8, 87720, Note_on_c, 2, 69, 44
8, 87809, Note_on_c, 2, 73, 0
8, 87809, Note_on_c, 2, 69, 0
8, 87900, Note_on_c, 2, 74, 44
8, 87900, Note_on_c, 2, 71, 44
8, 87959, Note_on_c, 2, 74, 0
8, 87959, Note_on_c, 2, 71, 0
8, 88020, Note_on_c, 2, 73, 44
8, 88020, Note_on_c, 2, 69, 44
8, 88079, Note_on_c, 2, 73, 0
8, 88079, Note_on_c, 2, 69, 0
8, 88140, Note_on_c, 2, 71, 44
8, 88140, Note_on_c, 2, 68, 44
8, 88195, Note_on_c, 2, 71, 0
8, 88195, Note_on_c, 2, 68, 0
8, 88200, Note_on_c, 2, 73, 44
8, 88200, Note_on_c, 2, 69, 44
8, 88319, Note_on_c, 2, 73, 0
8, 88319, Note_on_c, 2, 69, 0
8, 89100, Note_on_c, 2, 74, 52
8, 89159, Note_on_c, 2, 74, 0
8, 89160, Note_on_c, 2, 76, 52
8, 89189, Note_on_c, 2, 76, 0
8, 89190, Note_on_c, 2, 74, 52
8, 89219, Note_on_c, 2, 74, 0
8, 89220, Note_on_c, 2, 73, 52
8, 89249, Note_on_c, 2, 73, 0
8, 89250, Note_on_c, 2, 74, 52
8, 89275, Note_on_c, 2, 74, 0
8, 89280, Note_on_c, 2, 71, 52
8, 89324, Note_on_c, 2, 71, 0
8, 89340, Note_on_c, 2, 74, 52
8, 89384, Note_on_c, 2, 74, 0
8, 89400, Note_on_c, 2, 68, 52
8, 89444, Note_on_c, 2, 68, 0
8, 89460, Note_on_c, 2, 71, 52
8, 89504, Note_on_c, 2, 71, 0
8, 89520, Note_on_c, 2, 64, 52
8, 89564, Note_on_c, 2, 64, 0
8, 89580, Note_on_c, 2, 76, 52
8, 89624, Note_on_c, 2, 76, 0
8, 89640, Note_on_c, 2, 73, 52
8, 89759, Note_on_c, 2, 73, 0
8, 90060, Note_on_c, 2, 57, 52
8, 90104, Note_on_c, 2, 57, 0
8, 90120, Note_on_c, 2, 61, 52
8, 90164, Note_on_c, 2, 61, 0
8, 90180, Note_on_c, 2, 64, 52
8, 90224, Note_on_c, 2, 64, 0
8, 90240, Note_on_c, 2, 69, 52
8, 90411, Note_on_c, 2, 69, 0
8, 90420, Note_on_c, 2, 66, 52
8, 90464, Note_on_c, 2, 66, 0
8, 90480, Note_on_c, 2, 71, 52
8, 90524, Note_on_c, 2, 71, 0
8, 90540, Note_on_c, 2, 74, 52
8, 90584, Note_on_c, 2, 74, 0
8, 90600, Note_on_c, 2, 78, 52
8, 90839, Note_on_c, 2, 78, 0
8, 90840, Note_on_c, 2, 76, 52
8, 90959, Note_on_c, 2, 76, 0
8, 90960, Note_on_c, 2, 74, 52
8, 91071, Note_on_c, 2, 74, 0
8, 91080, Note_on_c, 2, 73, 52
8, 91199, Note_on_c, 2, 73, 0
8, 91620, Note_on_c, 2, 64, 52
8, 91679, Note_on_c, 2, 64, 0
8, 91680, Note_on_c, 2, 76, 52
8, 91739, Note_on_c, 2, 76, 0
8, 91740, Note_on_c, 2, 74, 52
8, 91795, Note_on_c, 2, 74, 0
8, 91800, Note_on_c, 2, 73, 52
8, 91919, Note_on_c, 2, 73, 0
8, 92280, Control_c, 2, 11, 80
8, 92300, Control_c, 2, 11, 84
8, 92320, Control_c, 2, 11, 88
8, 92340, Control_c, 2, 11, 92
8, 92340, Note_on_c, 2, 64, 76
8, 92360, Control_c, 2, 11, 96
8, 92380, Control_c, 2, 11, 100
8, 92395, Note_on_c, 2, 64, 0
8, 92400, Control_c, 2, 11, 104
8, 92400, Note_on_c, 2, 76, 76
8, 92400, Note_on_c, 2, 71, 76
8, 92420, Control_c, 2, 11, 107
8, 92440, Control_c, 2, 11, 111
8, 92455, Note_on_c, 2, 71, 0
8, 92459, Note_on_c, 2, 76, 0
8, 92460, Note_on_c, 2, 71, 76
8, 92460, Control_c, 2, 11, 115
8, 92460, Note_on_c, 2, 74, 76
8, 92480, Control_c, 2, 11, 119
8, 92500, Control_c, 2, 11, 123
8, 92515, Note_on_c, 2, 71, 0
8, 92515, Note_on_c, 2, 74, 0
8, 92520, Control_c, 2, 11, 127
8, 92520, Note_on_c, 2, 69, 76
8, 92520, Note_on_c, 2, 73, 76
8, 92564, Note_on_c, 2, 69, 0
8, 92564, Note_on_c, 2, 73, 0
8, 92580, Note_on_c, 2, 71, 84
8, 92580, Note_on_c, 2, 74, 84
8, 92691, Note_on_c, 2, 71, 0
8, 92691, Note_on_c, 2, 74, 0
8, 92700, Note_on_c, 2, 71, 76
8, 92700, Note_on_c, 2, 68, 76
8, 92744, Note_on_c, 2, 71, 0
8, 92744, Note_on_c, 2, 68, 0
8, 92760, Note_on_c, 2, 68, 76
8, 92760, Note_on_c, 2, 71, 76
8, 92804, Note_on_c, 2, 68, 0
8, 92804, Note_on_c, 2, 71, 0
8, 92820, Note_on_c, 2, 71, 76
8, 92820, Note_on_c, 2, 68, 76
8, 92864, Note_on_c, 2, 71, 0
8, 92864, Note_on_c, 2, 68, 0
8, 92880, Note_on_c, 2, 69, 76
8, 92880, Note_on_c, 2, 73, 76
8, 92924, Note_on_c, 2, 69, 0
8, 92924, Note_on_c, 2, 73, 0
8, 92940, Note_on_c, 2, 74, 84
8, 92940, Note_on_c, 2, 71, 84
8, 93051, Note_on_c, 2, 74, 0
8, 93051, Note_on_c, 2, 71, 0
8, 93060, Note_on_c, 2, 68, 76
8, 93060, Note_on_c, 2, 71, 76
8, 93104, Note_on_c, 2, 68, 0
8, 93104, Note_on_c, 2, 71, 0
8, 93120, Note_on_c, 2, 71, 76
8, 93120, Note_on_c, 2, 68, 76
8, 93164, Note_on_c, 2, 71, 0
8, 93164, Note_on_c, 2, 68, 0
8, 93180, Note_on_c, 2, 68, 76
8, 93180, Note_on_c, 2, 71, 76
8, 93224, Note_on_c, 2, 68, 0
8, 93224, Note_on_c, 2, 71, 0
8, 93240, Note_on_c, 2, 74, 76
8, 93240, Note_on_c, 2, 71, 76
8, 93329, Note_on_c, 2, 74, 0
8, 93329, Note_on_c, 2, 71, 0
8, 93360, Note_on_c, 2, 71, 76
8, 93360, Note_on_c, 2, 74, 76
8, 93449, Note_on_c, 2, 71, 0
8, 93449, Note_on_c, 2, 74, 0
8, 94680, Note_on_c, 2, 64, 52
8, 94680, Note_on_c, 2, 61, 52
8, 94799, Note_on_c, 2, 64, 0
8, 94799, Note_on_c, 2, 61, 0
8, 94800, Note_on_c, 2, 69, 52
8, 94800, Note_on_c, 2, 64, 52
8, 94919, Note_on_c, 2, 69, 0
8, 94919, Note_on_c, 2, 64, 0
8, 94920, Note_on_c, 2, 68, 52
8, 94920, Note_on_c, 2, 71, 52
8, 95031, Note_on_c, 2, 68, 0
8, 95031, Note_on_c, 2, 71, 0
8, 95040, Note_on_c, 2, 69, 52
8, 95040, Note_on_c, 2, 73, 52
8, 95129, Note_on_c, 2, 69, 0
8, 95129, Note_on_c, 2, 73, 0
8, 95400, Note_on_c, 2, 73, 52
8, 95400, Note_on_c, 2, 69, 52
8, 95519, Note_on_c, 2, 73, 0
8, 95519, Note_on_c, 2, 69, 0
8, 95520, Note_on_c, 2, 71, 52
8, 95520, Note_on_c, 2, 74, 52
8, 95639, Note_on_c, 2, 71, 0
8, 95639, Note_on_c, 2, 74, 0
8, 95640, Note_on_c, 2, 73, 52
8, 95640, Note_on_c, 2, 69, 52
8, 95751, Note_on_c, 2, 73, 0
8, 95751, Note_on_c, 2, 69, 0
8, 95760, Note_on_c, 2, 68, 52
8, 95760, Note_on_c, 2, 71, 52
8, 95849, Note_on_c, 2, 68, 0
8, 95849, Note_on_c, 2, 71, 0
8, 96000, Control_c, 2, 11, 96
8, 96120, Note_on_c, 2, 73, 68
8, 96120, Note_on_c, 2, 69, 68
8, 96120, Control_c, 2, 11, 96
8, 96150, Control_c, 2, 11, 99
8, 96180, Control_c, 2, 11, 101
8, 96210, Control_c, 2, 11, 104
8, 96239, Note_on_c, 2, 73, 0
8, 96239, Note_on_c, 2, 69, 0
8, 96240, Note_on_c, 2, 69, 68
8, 96240, Note_on_c, 2, 74, 68
8, 96240, Control_c, 2, 11, 106
8, 96270, Control_c, 2, 11, 109
8, 96300, Control_c, 2, 11, 112
8, 96330, Control_c, 2, 11, 114
8, 96359, Note_on_c, 2, 69, 0
8, 96359, Note_on_c, 2, 74, 0
8, 96360, Note_on_c, 2, 69, 68
8, 96360, Control_c, 2, 11, 117
8, 96360, Note_on_c, 2, 76, 68
8, 96390, Control_c, 2, 11, 119
8, 96420, Control_c, 2, 11, 122
8, 96450, Control_c, 2, 11, 124
8, 96471, Note_on_c, 2, 69, 0
8, 96471, Note_on_c, 2, 76, 0
8, 96480, Control_c, 2, 11, 127
8, 96480, Note_on_c, 2, 78, 52
8, 96480, Note_on_c, 2, 69, 52
8, 96569, Note_on_c, 2, 78, 0
8, 96569, Note_on_c, 2, 69, 0
8, 96840, Note_on_c, 2, 71, 52
8, 96840, Note_on_c, 2, 68, 52
8, 96929, Note_on_c, 2, 71, 0
8, 96929, Note_on_c, 2, 68, 0
8, 97200, Note_on_c, 2, 73, 52
8, 97200, Note_on_c, 2, 69, 52
8, 97289, Note_on_c, 2, 73, 0
8, 97289, Note_on_c, 2, 69, 0
8, 97560, Note_on_c, 2, 73, 84
8, 97560, Note_on_c, 2, 69, 84
8, 97679, Note_on_c, 2, 73, 0
8, 97679, Note_on_c, 2, 69, 0
8, 97680, Note_on_c, 2, 68, 84
8, 97680, Note_on_c, 2, 74, 84
8, 97799, Note_on_c, 2, 68, 0
8, 97799, Note_on_c, 2, 74, 0
8, 97800, Note_on_c, 2, 76, 84
8, 97800, Note_on_c, 2, 67, 84
8, 97911, Note_on_c, 2, 76, 0
8, 97911, Note_on_c, 2, 67, 0
8, 97920, Note_on_c, 2, 78, 84
8, 97920, Note_on_c, 2, 66, 84
8, 98009, Note_on_c, 2, 78, 0
8, 98009, Note_on_c, 2, 66, 0
8, 98040, Note_on_c, 2, 74, 92
8, 98040, Note_on_c, 2, 78, 92
8, 98129, Note_on_c, 2, 74, 0
8, 98129, Note_on_c, 2, 78, 0
8, 98400, Note_on_c, 2, 74, 92
8, 98400, Note_on_c, 2, 68, 92
8, 98489, Note_on_c, 2, 74, 0
8, 98489, Note_on_c, 2, 68, 0
8, 98640, Note_on_c, 2, 69, 84
8, 98640, Note_on_c, 2, 73, 84
8, 98729, Note_on_c, 2, 69, 0
8, 98729, Note_on_c, 2, 73, 0
8, 98729, End_track
9, 0, Start_track
9, 0, Title_t, "Bassoon"
9, 0, MIDI_port, 0
9, 0, Program_c, 3, 70
9, 0, Control_c, 3, 7, 96
9, 0, Control_c, 3, 10, 65
9, 0, Control_c, 3, 11, 127
9, 2760, Note_on_c, 3, 52, 52
9, 2871, Note_on_c, 3, 52, 0
9, 2880, Note_on_c, 3, 45, 52
9, 2880, Note_on_c, 3, 52, 52
9, 2999, Note_on_c, 3, 45, 0
9, 2999, Note_on_c, 3, 52, 0
9, 3000, Note_on_c, 3, 49, 52
9, 3000, Note_on_c, 3, 57, 52
9, 3119, Note_on_c, 3, 49, 0
9, 3119, Note_on_c, 3, 57, 0
9, 3120, Note_on_c, 3, 52, 52
9, 3120, Note_on_c, 3, 59, 52
9, 3231, Note_on_c, 3, 52, 0
9, 3231, Note_on_c, 3, 59, 0
9, 3240, Note_on_c, 3, 57, 52
9, 3240, Note_on_c, 3, 61, 52
9, 3591, Note_on_c, 3, 57, 0
9, 3591, Note_on_c, 3, 61, 0
9, 3600, Note_on_c, 3, 61, 52
9, 3600, Note_on_c, 3, 57, 52
9, 3719, Note_on_c, 3, 61, 0
9, 3719, Note_on_c, 3, 57, 0
9, 3720, Note_on_c, 3, 62, 52
9, 3720, Note_on_c, 3, 59, 52
9, 3839, Note_on_c, 3, 62, 0
9, 3839, Note_on_c, 3, 59, 0
9, 3840, Note_on_c, 3, 61, 52
9, 3840, Note_on_c, 3, 57, 52
9, 3951, Note_on_c, 3, 61, 0
9, 3951, Note_on_c, 3, 57, 0
9, 3960, Note_on_c, 3, 59, 52
9, 3960, Note_on_c, 3, 56, 52
9, 4311, Note_on_c, 3, 59, 0
9, 4311, Note_on_c, 3, 56, 0
9, 4320, Control_c, 3, 11, 96
9, 4320, Note_on_c, 3, 64, 68
9, 4320, Note_on_c, 3, 61, 68
9, 4380, Control_c, 3, 11, 99
9, 4439, Note_on_c, 3, 64, 0
9, 4439, Note_on_c, 3, 61, 0
9, 4440, Control_c, 3, 11, 101
9, 4440, Note_on_c, 3, 59, 68
9, 4440, Note_on_c, 3, 62, 68
9, 4500, Control_c, 3, 11, 104
9, 4559, Note_on_c, 3, 59, 0
9, 4559, Note_on_c, 3, 62, 0
9, 4560, Note_on_c, 3, 57, 68
9, 4560, Control_c, 3, 11, 106
9, 4560, Note_on_c, 3, 61, 68
9, 4620, Control_c, 3, 11, 109
9, 4671, Note_on_c, 3, 57, 0
9, 4671, Note_on_c, 3, 61, 0
9, 4680, Control_c, 3, 11, 112
9, 4680, Note_on_c, 3, 59, 68
9, 4680, Note_on_c, 3, 56, 68
9, 4740, Control_c, 3, 11, 114
9, 4800, Control_c, 3, 11, 117
9, 4860, Control_c, 3, 11, 119
9, 4919, Note_on_c, 3, 59, 0
9, 4919, Note_on_c, 3, 56, 0
9, 4920, Control_c, 3, 11, 122
9, 4920, Note_on_c, 3, 61, 68
9, 4920, Note_on_c, 3, 52, 68
9, 4980, Control_c, 3, 11, 124
9, 5031, Note_on_c, 3, 61, 0
9, 5031, Note_on_c, 3, 52, 0
9, 5040, Note_on_c, 3, 56, 52
9, 5040, Note_on_c, 3, 52, 52
9, 5040, Control_c, 3, 11, 127
9, 5279, Note_on_c, 3, 56, 0
9, 5279, Note_on_c, 3, 52, 0
9, 5280, Note_on_c, 3, 54, 52
9, 5280, Note_on_c, 3, 57, 52
9, 5369, Note_on_c, 3, 54, 0
9, 5369, Note_on_c, 3, 57, 0
9, 5370, Note_on_c, 3, 54, 52
9, 5370, Note_on_c, 3, 51, 52
9, 5395, Note_on_c, 3, 54, 0
9, 5395, Note_on_c, 3, 51, 0
9, 5400, Note_on_c, 3, 52, 52
9, 5519, Note_on_c, 3, 52, 0
9, 8400, Control_c, 3, 11, 96
9, 8520, Note_on_c, 3, 52, 68
9, 8609, Note_on_c, 3, 52, 0
9, 8610, Note_on_c, 3, 59, 68
9, 8635, Note_on_c, 3, 59, 0
9, 8640, Note_on_c, 3, 59, 68
9, 8640, Note_on_c, 3, 52, 68
9, 8759, Note_on_c, 3, 59, 0
9, 8760, Note_on_c, 3, 57, 68
9, 8879, Note_on_c, 3, 52, 0
9, 8879, Note_on_c, 3, 57, 0
9, 8880, Note_on_c, 3, 59, 68
9, 8880, Note_on_c, 3, 56, 68
9, 8991, Note_on_c, 3, 59, 0
9, 8991, Note_on_c, 3, 56, 0
9, 9000, Note_on_c, 3, 60, 68
9, 9000, Note_on_c, 3, 56, 68
9, 9119, Note_on_c, 3, 60, 0
9, 9119, Note_on_c, 3, 56, 0
9, 9120, Note_on_c, 3, 61, 68
9, 9120, Note_on_c, 3, 57, 68
9, 9179, Note_on_c, 3, 61, 0
9, 9179, Note_on_c, 3, 57, 0
9, 9240, Note_on_c, 3, 52, 68
9, 9329, Note_on_c, 3, 52, 0
9, 9330, Note_on_c, 3, 61, 68
9, 9330, Note_on_c, 3, 57, 68
9, 9355, Note_on_c, 3, 61, 0
9, 9355, Note_on_c, 3, 57, 0
9, 9360, Note_on_c, 3, 57, 68
9, 9360, Note_on_c, 3, 61, 68
9, 9479, Note_on_c, 3, 57, 0
9, 9479, Note_on_c, 3, 61, 0
9, 9480, Note_on_c, 3, 56, 68
9, 9480, Note_on_c, 3, 59, 68
9, 9599, Note_on_c, 3, 56, 0
9, 9599, Note_on_c, 3, 59, 0
9, 9600, Note_on_c, 3, 61, 68
9, 9600, Note_on_c, 3, 57, 68
9, 9711, Note_on_c, 3, 61, 0
9, 9711, Note_on_c, 3, 57, 0
9, 9720, Note_on_c, 3, 58, 68
9, 9720, Note_on_c, 3, 61, 68
9, 9839, Note_on_c, 3, 58, 0
9, 9839, Note_on_c, 3, 61, 0
9, 9840, Note_on_c, 3, 59, 68
9, 9840, Note_on_c, 3, 62, 68
9, 9899, Note_on_c, 3, 59, 0
9, 9899, Note_on_c, 3, 62, 0
9, 9960, Note_on_c, 3, 59, 68
9, 9960, Note_on_c, 3, 62, 68
9, 10071, Note_on_c, 3, 59, 0
9, 10071, Note_on_c, 3, 62, 0
9, 10080, Note_on_c, 3, 59, 68
9, 10080, Control_c, 3, 11, 96
9, 10080, Note_on_c, 3, 62, 68
9, 10110, Control_c, 3, 11, 99
9, 10140, Control_c, 3, 11, 101
9, 10170, Control_c, 3, 11, 104
9, 10200, Control_c, 3, 11, 106
9, 10230, Control_c, 3, 11, 109
9, 10260, Control_c, 3, 11, 112
9, 10290, Control_c, 3, 11, 114
9, 10319, Note_on_c, 3, 59, 0
9, 10319, Note_on_c, 3, 62, 0
9, 10320, Note_on_c, 3, 64, 68
9, 10320, Control_c, 3, 11, 117
9, 10320, Note_on_c, 3, 61, 68
9, 10350, Control_c, 3, 11, 119
9, 10379, Note_on_c, 3, 64, 0
9, 10379, Note_on_c, 3, 61, 0
9, 10380, Note_on_c, 3, 62, 68
9, 10380, Note_on_c, 3, 66, 68
9, 10380, Control_c, 3, 11, 122
9, 10410, Control_c, 3, 11, 124
9, 10435, Note_on_c, 3, 62, 0
9, 10435, Note_on_c, 3, 66, 0
9, 10440, Note_on_c, 3, 66, 76
9, 10440, Note_on_c, 3, 62, 76
9, 10440, Control_c, 3, 11, 127
9, 10470, Control_c, 3, 11, 124
9, 10499, Note_on_c, 3, 66, 0
9, 10499, Note_on_c, 3, 62, 0
9, 10500, Note_on_c, 3, 56, 68
9, 10500, Note_on_c, 3, 59, 68
9, 10500, Control_c, 3, 11, 122
9, 10530, Control_c, 3, 11, 119
9, 10560, Control_c, 3, 11, 117
9, 10590, Control_c, 3, 11, 114
9, 10620, Control_c, 3, 11, 112
9, 10650, Control_c, 3, 11, 109
9, 10679, Note_on_c, 3, 56, 0
9, 10679, Note_on_c, 3, 59, 0
9, 10680, Note_on_c, 3, 61, 68
9, 10680, Control_c, 3, 11, 106
9, 10680, Note_on_c, 3, 57, 68
9, 10710, Control_c, 3, 11, 104
9, 10740, Control_c, 3, 11, 101
9, 10770, Control_c, 3, 11, 99
9, 10791, Note_on_c, 3, 61, 0
9, 10791, Note_on_c, 3, 57, 0
9, 10800, Note_on_c, 3, 64, 68
9, 10800, Control_c, 3, 11, 96
9, 10800, Note_on_c, 3, 61, 68
9, 10979, Note_on_c, 3, 64, 0
9, 10979, Note_on_c, 3, 61, 0
9, 10980, Note_on_c, 3, 59, 68
9, 10980, Note_on_c, 3, 62, 68
9, 11039, Note_on_c, 3, 59, 0
9, 11039, Note_on_c, 3, 62, 0
9, 11040, Note_on_c, 3, 61, 68
9, 11040, Note_on_c, 3, 57, 68
9, 11099, Note_on_c, 3, 61, 0
9, 11099, Note_on_c, 3, 57, 0
9, 11100, Note_on_c, 3, 59, 68
9, 11100, Note_on_c, 3, 56, 68
9, 11155, Note_on_c, 3, 59, 0
9, 11155, Note_on_c, 3, 56, 0
9, 11160, Note_on_c, 3, 57, 68
9, 11279, Note_on_c, 3, 57, 0
9, 11400, Control_c, 3, 11, 127
9, 11460, Note_on_c, 3, 52, 52
9, 11515, Note_on_c, 3, 52, 0
9, 11520, Note_on_c, 3, 52, 52
9, 11609, Note_on_c, 3, 52, 0
9, 11610, Note_on_c, 3, 57, 52
9, 11635, Note_on_c, 3, 57, 0
9, 11640, Note_on_c, 3, 61, 52
9, 11819, Note_on_c, 3, 61, 0
9, 11820, Note_on_c, 3, 57, 52
9, 11875, Note_on_c, 3, 57, 0
9, 11880, Note_on_c, 3, 56, 52
9, 11969, Note_on_c, 3, 56, 0
9, 11970, Note_on_c, 3, 59, 52
9, 11995, Note_on_c, 3, 59, 0
9, 12000, Note_on_c, 3, 62, 52
9, 12089, Note_on_c, 3, 62, 0
9, 12900, Note_on_c, 3, 52, 52
9, 12955, Note_on_c, 3, 52, 0
9, 12960, Note_on_c, 3, 52, 52
9, 13049, Note_on_c, 3, 52, 0
9, 13050, Note_on_c, 3, 57, 52
9, 13075, Note_on_c, 3, 57, 0
9, 13080, Note_on_c, 3, 60, 68
9, 13259, Note_on_c, 3, 60, 0
9, 13260, Note_on_c, 3, 57, 52
9, 13315, Note_on_c, 3, 57, 0
9, 13320, Note_on_c, 3, 56, 52
9, 13409, Note_on_c, 3, 56, 0
9, 13410, Note_on_c, 3, 59, 52
9, 13435, Note_on_c, 3, 59, 0
9, 13440, Note_on_c, 3, 62, 52
9, 13529, Note_on_c, 3, 62, 0
9, 13680, Control_c, 3, 11, 96
9, 13800, Control_c, 3, 11, 96
9, 13800, Note_on_c, 3, 64, 68
9, 13820, Control_c, 3, 11, 99
9, 13840, Control_c, 3, 11, 101
9, 13860, Control_c, 3, 11, 104
9, 13880, Control_c, 3, 11, 106
9, 13900, Control_c, 3, 11, 109
9, 13920, Control_c, 3, 11, 112
9, 13940, Control_c, 3, 11, 114
9, 13960, Control_c, 3, 11, 117
9, 13975, Note_on_c, 3, 64, 0
9, 13980, Control_c, 3, 11, 119
9, 13980, Note_on_c, 3, 64, 68
9, 14000, Control_c, 3, 11, 122
9, 14020, Control_c, 3, 11, 124
9, 14035, Note_on_c, 3, 64, 0
9, 14040, Control_c, 3, 11, 127
9, 14040, Note_on_c, 3, 65, 68
9, 14060, Control_c, 3, 11, 122
9, 14080, Control_c, 3, 11, 117
9, 14099, Note_on_c, 3, 65, 0
9, 14100, Control_c, 3, 11, 112
9, 14100, Note_on_c, 3, 64, 68
9, 14120, Control_c, 3, 11, 106
9, 14140, Control_c, 3, 11, 101
9, 14155, Note_on_c, 3, 64, 0
9, 14160, Note_on_c, 3, 64, 68
9, 14160, Control_c, 3, 11, 96
9, 14249, Note_on_c, 3, 64, 0
9, 15000, Control_c, 3, 11, 127
9, 15120, Note_on_c, 3, 66, 52
9, 15295, Note_on_c, 3, 66, 0
9, 15300, Note_on_c, 3, 64, 52
9, 15344, Note_on_c, 3, 64, 0
9, 15360, Note_on_c, 3, 63, 52
9, 15404, Note_on_c, 3, 63, 0
9, 15420, Note_on_c, 3, 64, 52
9, 15464, Note_on_c, 3, 64, 0
9, 15480, Note_on_c, 3, 66, 52
9, 15569, Note_on_c, 3, 66, 0
9, 15600, Note_on_c, 3, 66, 52
9, 15689, Note_on_c, 3, 66, 0
9, 16200, Note_on_c, 3, 48, 84
9, 16200, Note_on_c, 3, 60, 84
9, 16289, Note_on_c, 3, 48, 0
9, 16289, Note_on_c, 3, 60, 0
9, 16320, Note_on_c, 3, 48, 84
9, 16320, Note_on_c, 3, 60, 84
9, 16409, Note_on_c, 3, 48, 0
9, 16409, Note_on_c, 3, 60, 0
9, 16440, Note_on_c, 3, 48, 84
9, 16440, Note_on_c, 3, 60, 84
9, 16529, Note_on_c, 3, 48, 0
9, 16529, Note_on_c, 3, 60, 0
9, 16560, Note_on_c, 3, 59, 84
9, 16560, Note_on_c, 3, 47, 84
9, 16649, Note_on_c, 3, 59, 0
9, 16649, Note_on_c, 3, 47, 0
9, 16920, Note_on_c, 3, 54, 52
9, 16920, Note_on_c, 3, 59, 52
9, 17279, Note_on_c, 3, 54, 0
9, 17280, Note_on_c, 3, 56, 52
9, 17639, Note_on_c, 3, 56, 0
9, 17640, Note_on_c, 3, 57, 52
9, 17999, Note_on_c, 3, 57, 0
9, 18000, Note_on_c, 3, 56, 52
9, 18119, Note_on_c, 3, 59, 0
9, 18119, Note_on_c, 3, 56, 0
9, 18360, Note_on_c, 3, 51, 52
9, 18360, Note_on_c, 3, 54, 52
9, 18719, Note_on_c, 3, 51, 0
9, 18719, Note_on_c, 3, 54, 0
9, 18720, Note_on_c, 3, 56, 52
9, 18720, Note_on_c, 3, 52, 52
9, 19079, Note_on_c, 3, 56, 0
9, 19079, Note_on_c, 3, 52, 0
9, 19080, Note_on_c, 3, 54, 52
9, 19080, Note_on_c, 3, 57, 52
9, 19439, Note_on_c, 3, 54, 0
9, 19439, Note_on_c, 3, 57, 0
9, 19440, Note_on_c, 3, 52, 52
9, 19440, Note_on_c, 3, 56, 52
9, 19559, Note_on_c, 3, 52, 0
9, 19559, Note_on_c, 3, 56, 0
9, 21420, Note_on_c, 3, 61, 76
9, 21420, Note_on_c, 3, 57, 76
9, 21464, Note_on_c, 3, 61, 0
9, 21464, Note_on_c, 3, 57, 0
9, 21480, Note_on_c, 3, 59, 76
9, 21480, Note_on_c, 3, 56, 76
9, 21524, Note_on_c, 3, 59, 0
9, 21524, Note_on_c, 3, 56, 0
9, 21540, Note_on_c, 3, 54, 76
9, 21540, Note_on_c, 3, 57, 76
9, 21584, Note_on_c, 3, 54, 0
9, 21584, Note_on_c, 3, 57, 0
9, 21600, Note_on_c, 3, 52, 84
9, 21600, Control_c, 3, 11, 127
9, 21600, Note_on_c, 3, 56, 84
9, 21630, Control_c, 3, 11, 123
9, 21660, Control_c, 3, 11, 119
9, 21690, Control_c, 3, 11, 115
9, 21720, Control_c, 3, 11, 111
9, 21750, Control_c, 3, 11, 107
9, 21780, Control_c, 3, 11, 104
9, 21810, Control_c, 3, 11, 100
9, 21839, Note_on_c, 3, 52, 0
9, 21839, Note_on_c, 3, 56, 0
9, 21840, Note_on_c, 3, 54, 76
9, 21840, Control_c, 3, 11, 96
9, 21840, Note_on_c, 3, 57, 76
9, 21870, Control_c, 3, 11, 92
9, 21900, Control_c, 3, 11, 88
9, 21929, Note_on_c, 3, 54, 0
9, 21929, Note_on_c, 3, 57, 0
9, 21930, Note_on_c, 3, 51, 76
9, 21930, Note_on_c, 3, 54, 76
9, 21930, Control_c, 3, 11, 84
9, 21955, Note_on_c, 3, 51, 0
9, 21955, Note_on_c, 3, 54, 0
9, 21960, Control_c, 3, 11, 80
9, 21960, Note_on_c, 3, 52, 76
9, 22079, Note_on_c, 3, 52, 0
9, 22260, Note_on_c, 3, 59, 76
9, 22260, Note_on_c, 3, 56, 76
9, 22304, Note_on_c, 3, 59, 0
9, 22304, Note_on_c, 3, 56, 0
9, 22320, Control_c, 3, 11, 80
9, 22320, Note_on_c, 3, 57, 76
9, 22320, Note_on_c, 3, 61, 76
9, 22364, Note_on_c, 3, 57, 0
9, 22364, Note_on_c, 3, 61, 0
9, 22380, Note_on_c, 3, 59, 76
9, 22380, Note_on_c, 3, 56, 76
9, 22390, Control_c, 3, 11, 84
9, 22424, Note_on_c, 3, 59, 0
9, 22424, Note_on_c, 3, 56, 0
9, 22440, Note_on_c, 3, 57, 76
9, 22440, Note_on_c, 3, 61, 76
9, 22460, Control_c, 3, 11, 88
9, 22530, Control_c, 3, 11, 92
9, 22600, Control_c, 3, 11, 96
9, 22615, Note_on_c, 3, 57, 0
9, 22615, Note_on_c, 3, 61, 0
9, 22620, Note_on_c, 3, 61, 76
9, 22620, Note_on_c, 3, 57, 76
9, 22664, Note_on_c, 3, 61, 0
9, 22664, Note_on_c, 3, 57, 0
9, 22670, Control_c, 3, 11, 100
9, 22680, Note_on_c, 3, 59, 76
9, 22680, Note_on_c, 3, 62, 76
9, 22724, Note_on_c, 3, 59, 0
9, 22724, Note_on_c, 3, 62, 0
9, 22740, Note_on_c, 3, 61, 76
9, 22740, Note_on_c, 3, 58, 76
9, 22740, Control_c, 3, 11, 104
9, 22784, Note_on_c, 3, 61, 0
9, 22784, Note_on_c, 3, 58, 0
9, 22800, Note_on_c, 3, 59, 76
9, 22800, Note_on_c, 3, 62, 76
9, 22810, Control_c, 3, 11, 107
9, 22880, Control_c, 3, 11, 111
9, 22950, Control_c, 3, 11, 115
9, 22975, Note_on_c, 3, 59, 0
9, 22975, Note_on_c, 3, 62, 0
9, 22980, Note_on_c, 3, 62, 76
9, 22980, Note_on_c, 3, 59, 76
9, 23020, Control_c, 3, 11, 119
9, 23024, Note_on_c, 3, 62, 0
9, 23024, Note_on_c, 3, 59, 0
9, 23040, Note_on_c, 3, 64, 76
9, 23040, Note_on_c, 3, 61, 76
9, 23084, Note_on_c, 3, 64, 0
9, 23084, Note_on_c, 3, 61, 0
9, 23090, Control_c, 3, 11, 123
9, 23100, Note_on_c, 3, 63, 76
9, 23100, Note_on_c, 3, 60, 76
9, 23144, Note_on_c, 3, 63, 0
9, 23144, Note_on_c, 3, 60, 0
9, 23160, Note_on_c, 3, 61, 76
9, 23160, Note_on_c, 3, 64, 76
9, 23160, Control_c, 3, 11, 127
9, 23335, Note_on_c, 3, 61, 0
9, 23335, Note_on_c, 3, 64, 0
9, 23340, Note_on_c, 3, 61, 76
9, 23340, Note_on_c, 3, 64, 76
9, 23384, Note_on_c, 3, 61, 0
9, 23384, Note_on_c, 3, 64, 0
9, 23400, Note_on_c, 3, 66, 84
9, 23400, Note_on_c, 3, 63, 84
9, 23579, Note_on_c, 3, 66, 0
9, 23579, Note_on_c, 3, 63, 0
9, 24300, Note_on_c, 3, 56, 52
9, 24300, Note_on_c, 3, 52, 52
9, 24359, Note_on_c, 3, 56, 0
9, 24359, Note_on_c, 3, 52, 0
9, 24360, Note_on_c, 3, 57, 52
9, 24360, Note_on_c, 3, 54, 52
9, 24419, Note_on_c, 3, 57, 0
9, 24419, Note_on_c, 3, 54, 0
9, 24420, Note_on_c, 3, 59, 52
9, 24420, Note_on_c, 3, 56, 52
9, 24479, Note_on_c, 3, 59, 0
9, 24479, Note_on_c, 3, 56, 0
9, 24480, Note_on_c, 3, 61, 52
9, 24480, Note_on_c, 3, 57, 52
9, 24524, Note_on_c, 3, 61, 0
9, 24524, Note_on_c, 3, 57, 0
9, 24780, Note_on_c, 3, 56, 52
9, 24780, Note_on_c, 3, 52, 52
9, 24839, Note_on_c, 3, 56, 0
9, 24839, Note_on_c, 3, 52, 0
9, 24840, Note_on_c, 3, 54, 52
9, 24840, Note_on_c, 3, 57, 52
9, 24899, Note_on_c, 3, 54, 0
9, 24899, Note_on_c, 3, 57, 0
9, 24900, Note_on_c, 3, 56, 52
9, 24900, Note_on_c, 3, 59, 52
9, 24959, Note_on_c, 3, 56, 0
9, 24959, Note_on_c, 3, 59, 0
9, 24960, Note_on_c, 3, 57, 52
9, 24960, Note_on_c, 3, 61, 52
9, 25004, Note_on_c, 3, 57, 0
9, 25004, Note_on_c, 3, 61, 0
9, 25200, Control_c, 3, 11, 80
9, 25245, Control_c, 3, 11, 84
9, 25260, Note_on_c, 3, 52, 76
9, 25260, Note_on_c, 3, 56, 76
9, 25290, Control_c, 3, 11, 88
9, 25319, Note_on_c, 3, 52, 0
9, 25319, Note_on_c, 3, 56, 0
9, 25320, Note_on_c, 3, 54, 76
9, 25320, Note_on_c, 3, 57, 76
9, 25335, Control_c, 3, 11, 92
9, 25379, Note_on_c, 3, 54, 0
9, 25379, Note_on_c, 3, 57, 0
9, 25380, Note_on_c, 3, 59, 76
9, 25380, Note_on_c, 3, 56, 76
9, 25380, Control_c, 3, 11, 96
9, 25425, Control_c, 3, 11, 100
9, 25439, Note_on_c, 3, 59, 0
9, 25439, Note_on_c, 3, 56, 0
9, 25440, Note_on_c, 3, 57, 76
9, 25440, Note_on_c, 3, 61, 76
9, 25470, Control_c, 3, 11, 104
9, 25484, Note_on_c, 3, 57, 0
9, 25484, Note_on_c, 3, 61, 0
9, 25500, Note_on_c, 3, 52, 76
9, 25500, Note_on_c, 3, 56, 76
9, 25515, Control_c, 3, 11, 107
9, 25559, Note_on_c, 3, 52, 0
9, 25559, Note_on_c, 3, 56, 0
9, 25560, Note_on_c, 3, 54, 76
9, 25560, Note_on_c, 3, 57, 76
9, 25560, Control_c, 3, 11, 111
9, 25605, Control_c, 3, 11, 115
9, 25619, Note_on_c, 3, 54, 0
9, 25619, Note_on_c, 3, 57, 0
9, 25620, Note_on_c, 3, 59, 76
9, 25620, Note_on_c, 3, 56, 76
9, 25650, Control_c, 3, 11, 119
9, 25679, Note_on_c, 3, 59, 0
9, 25679, Note_on_c, 3, 56, 0
9, 25680, Note_on_c, 3, 61, 76
9, 25680, Note_on_c, 3, 57, 76
9, 25695, Control_c, 3, 11, 123
9, 25724, Note_on_c, 3, 61, 0
9, 25724, Note_on_c, 3, 57, 0
9, 25740, Control_c, 3, 11, 127
9, 25740, Note_on_c, 3, 52, 76
9, 25740, Note_on_c, 3, 56, 76
9, 25799, Note_on_c, 3, 52, 0
9, 25799, Note_on_c, 3, 56, 0
9, 25800, Note_on_c, 3, 54, 76
9, 25800, Note_on_c, 3, 57, 76
9, 25859, Note_on_c, 3, 54, 0
9, 25859, Note_on_c, 3, 57, 0
9, 25860, Note_on_c, 3, 56, 76
9, 25860, Note_on_c, 3, 59, 76
9, 25915, Note_on_c, 3, 56, 0
9, 25915, Note_on_c, 3, 59, 0
9, 25920, Note_on_c, 3, 61, 84
9, 25920, Note_on_c, 3, 57, 84
9, 26271, Note_on_c, 3, 61, 0
9, 26271, Note_on_c, 3, 57, 0
9, 26280, Note_on_c, 3, 57, 84
9, 26280, Note_on_c, 3, 54, 84
9, 26631, Note_on_c, 3, 57, 0
9, 26631, Note_on_c, 3, 54, 0
9, 26640, Note_on_c, 3, 57, 76
9, 26640, Note_on_c, 3, 54, 76
9, 26706, Note_on_c, 3, 57, 0
9, 26706, Note_on_c, 3, 54, 0
9, 26730, Note_on_c, 3, 54, 76
9, 26730, Note_on_c, 3, 57, 76
9, 26751, Note_on_c, 3, 54, 0
9, 26751, Note_on_c, 3, 57, 0
9, 26760, Note_on_c, 3, 57, 76
9, 26760, Note_on_c, 3, 54, 76
9, 26849, Note_on_c, 3, 57, 0
9, 26849, Note_on_c, 3, 54, 0
9, 27000, Note_on_c, 3, 56, 76
9, 27000, Note_on_c, 3, 52, 76
9, 27066, Note_on_c, 3, 56, 0
9, 27066, Note_on_c, 3, 52, 0
9, 27090, Note_on_c, 3, 56, 76
9, 27090, Note_on_c, 3, 52, 76
9, 27111, Note_on_c, 3, 56, 0
9, 27111, Note_on_c, 3, 52, 0
9, 27120, Note_on_c, 3, 56, 76
9, 27120, Note_on_c, 3, 52, 76
9, 27209, Note_on_c, 3, 56, 0
9, 27209, Note_on_c, 3, 52, 0
9, 27420, Note_on_c, 3, 57, 52
9, 27420, Note_on_c, 3, 61, 52
9, 27479, Note_on_c, 3, 57, 0
9, 27479, Note_on_c, 3, 61, 0
9, 27540, Note_on_c, 3, 59, 52
9, 27540, Note_on_c, 3, 56, 52
9, 27599, Note_on_c, 3, 59, 0
9, 27599, Note_on_c, 3, 56, 0
9, 27660, Note_on_c, 3, 59, 52
9, 27660, Note_on_c, 3, 57, 52
9, 27715, Note_on_c, 3, 59, 0
9, 27715, Note_on_c, 3, 57, 0
9, 27720, Note_on_c, 3, 56, 52
9, 27720, Note_on_c, 3, 59, 52
9, 27959, Note_on_c, 3, 56, 0
9, 27959, Note_on_c, 3, 59, 0
9, 28200, Note_on_c, 3, 66, 44
9, 28200, Note_on_c, 3, 63, 44
9, 28266, Note_on_c, 3, 66, 0
9, 28266, Note_on_c, 3, 63, 0
9, 28290, Note_on_c, 3, 66, 44
9, 28290, Note_on_c, 3, 63, 44
9, 28311, Note_on_c, 3, 66, 0
9, 28311, Note_on_c, 3, 63, 0
9, 28320, Note_on_c, 3, 66, 44
9, 28320, Note_on_c, 3, 63, 44
9, 28409, Note_on_c, 3, 66, 0
9, 28409, Note_on_c, 3, 63, 0
9, 28560, Note_on_c, 3, 64, 44
9, 28626, Note_on_c, 3, 64, 0
9, 28650, Note_on_c, 3, 64, 44
9, 28671, Note_on_c, 3, 64, 0
9, 28680, Note_on_c, 3, 64, 44
9, 28769, Note_on_c, 3, 64, 0
9, 28860, Note_on_c, 3, 61, 44
9, 28860, Note_on_c, 3, 57, 44
9, 28919, Note_on_c, 3, 61, 0
9, 28919, Note_on_c, 3, 57, 0
9, 28980, Note_on_c, 3, 59, 44
9, 29039, Note_on_c, 3, 59, 0
9, 29100, Note_on_c, 3, 59, 44
9, 29100, Note_on_c, 3, 57, 44
9, 29155, Note_on_c, 3, 59, 0
9, 29155, Note_on_c, 3, 57, 0
9, 29160, Note_on_c, 3, 56, 44
9, 29160, Note_on_c, 3, 59, 44
9, 29279, Note_on_c, 3, 56, 0
9, 29279, Note_on_c, 3, 59, 0
9, 31020, Note_on_c, 3, 52, 52
9, 31064, Note_on_c, 3, 52, 0
9, 31080, Note_on_c, 3, 56, 52
9, 31124, Note_on_c, 3, 56, 0
9, 31140, Note_on_c, 3, 59, 52
9, 31184, Note_on_c, 3, 59, 0
9, 31200, Note_on_c, 3, 64, 52
9, 31364, Note_on_c, 3, 64, 0
9, 31380, Note_on_c, 3, 49, 52
9, 31424, Note_on_c, 3, 49, 0
9, 31440, Note_on_c, 3, 52, 52
9, 31484, Note_on_c, 3, 52, 0
9, 31500, Note_on_c, 3, 57, 52
9, 31544, Note_on_c, 3, 57, 0
9, 31560, Note_on_c, 3, 61, 52
9, 31799, Note_on_c, 3, 61, 0
9, 31800, Note_on_c, 3, 59, 52
9, 31919, Note_on_c, 3, 59, 0
9, 31920, Note_on_c, 3, 57, 52
9, 32031, Note_on_c, 3, 57, 0
9, 32040, Note_on_c, 3, 56, 52
9, 32159, Note_on_c, 3, 56, 0
9, 32580, Note_on_c, 3, 47, 52
9, 32639, Note_on_c, 3, 47, 0
9, 32640, Note_on_c, 3, 59, 52
9, 32699, Note_on_c, 3, 59, 0
9, 32700, Note_on_c, 3, 57, 52
9, 32755, Note_on_c, 3, 57, 0
9, 32760, Note_on_c, 3, 56, 52
9, 32879, Note_on_c, 3, 56, 0
9, 33270, Control_c, 3, 11, 100
9, 33300, Note_on_c, 3, 47, 76
9, 33300, Control_c, 3, 11, 104
9, 33330, Control_c, 3, 11, 107
9, 33359, Note_on_c, 3, 47, 0
9, 33360, Control_c, 3, 11, 111
9, 33360, Note_on_c, 3, 54, 76
9, 33360, Note_on_c, 3, 59, 76
9, 33390, Control_c, 3, 11, 115
9, 33404, Note_on_c, 3, 54, 0
9, 33419, Note_on_c, 3, 59, 0
9, 33420, Note_on_c, 3, 54, 76
9, 33420, Note_on_c, 3, 57, 76
9, 33420, Control_c, 3, 11, 119
9, 33450, Control_c, 3, 11, 123
9, 33464, Note_on_c, 3, 54, 0
9, 33464, Note_on_c, 3, 57, 0
9, 33480, Note_on_c, 3, 52, 76
9, 33480, Note_on_c, 3, 56, 76
9, 33480, Control_c, 3, 11, 127
9, 33524, Note_on_c, 3, 52, 0
9, 33524, Note_on_c, 3, 56, 0
9, 33540, Note_on_c, 3, 57, 84
9, 33540, Note_on_c, 3, 54, 84
9, 33651, Note_on_c, 3, 57, 0
9, 33651, Note_on_c, 3, 54, 0
9, 33660, Note_on_c, 3, 54, 76
9, 33660, Note_on_c, 3, 57, 76
9, 33704, Note_on_c, 3, 54, 0
9, 33704, Note_on_c, 3, 57, 0
9, 33720, Note_on_c, 3, 54, 76
9, 33720, Note_on_c, 3, 57, 76
9, 33764, Note_on_c, 3, 54, 0
9, 33764, Note_on_c, 3, 57, 0
9, 33780, Note_on_c, 3, 54, 76
9, 33780, Note_on_c, 3, 57, 76
9, 33824, Note_on_c, 3, 54, 0
9, 33824, Note_on_c, 3, 57, 0
9, 33840, Note_on_c, 3, 52, 76
9, 33840, Note_on_c, 3, 56, 76
9, 33884, Note_on_c, 3, 52, 0
9, 33884, Note_on_c, 3, 56, 0
9, 33900, Note_on_c, 3, 54, 84
9, 33900, Note_on_c, 3, 57, 84
9, 34011, Note_on_c, 3, 54, 0
9, 34011, Note_on_c, 3, 57, 0
9, 34020, Note_on_c, 3, 57, 76
9, 34020, Note_on_c, 3, 54, 76
9, 34064, Note_on_c, 3, 57, 0
9, 34064, Note_on_c, 3, 54, 0
9, 34080, Note_on_c, 3, 54, 76
9, 34080, Note_on_c, 3, 57, 76
9, 34124, Note_on_c, 3, 54, 0
9, 34124, Note_on_c, 3, 57, 0
9, 34140, Note_on_c, 3, 54, 76
9, 34140, Note_on_c, 3, 57, 76
9, 34184, Note_on_c, 3, 54, 0
9, 34184, Note_on_c, 3, 57, 0
9, 34200, Note_on_c, 3, 56, 76
9, 34200, Note_on_c, 3, 52, 76
9, 34289, Note_on_c, 3, 56, 0
9, 34289, Note_on_c, 3, 52, 0
9, 34320, Note_on_c, 3, 52, 52
9, 34320, Note_on_c, 3, 64, 52
9, 34409, Note_on_c, 3, 52, 0
9, 34409, Note_on_c, 3, 64, 0
9, 34560, Control_c, 3, 11, 127
9, 34590, Control_c, 3, 11, 126
9, 34620, Control_c, 3, 11, 125
9, 34650, Control_c, 3, 11, 123
9, 34680, Note_on_c, 3, 52, 52
9, 34680, Control_c, 3, 11, 122
9, 34710, Control_c, 3, 11, 121
9, 34740, Control_c, 3, 11, 120
9, 34770, Control_c, 3, 11, 118
9, 34799, Note_on_c, 3, 52, 0
9, 34800, Control_c, 3, 11, 117
9, 34830, Control_c, 3, 11, 116
9, 34860, Control_c, 3, 11, 115
9, 34890, Control_c, 3, 11, 113
9, 34920, Control_c, 3, 11, 112
9, 35040, Note_on_c, 3, 52, 52
9, 35159, Note_on_c, 3, 52, 0
9, 35880, Control_c, 3, 11, 127
9, 36000, Note_on_c, 3, 45, 52
9, 36119, Note_on_c, 3, 45, 0
9, 36120, Note_on_c, 3, 48, 52
9, 36239, Note_on_c, 3, 48, 0
9, 36240, Note_on_c, 3, 52, 52
9, 36351, Note_on_c, 3, 52, 0
9, 36360, Note_on_c, 3, 60, 52
9, 36360, Note_on_c, 3, 57, 52
9, 36479, Note_on_c, 3, 60, 0
9, 36479, Note_on_c, 3, 57, 0
9, 36480, Note_on_c, 3, 59, 52
9, 36480, Note_on_c, 3, 62, 52
9, 36599, Note_on_c, 3, 59, 0
9, 36599, Note_on_c, 3, 62, 0
9, 36600, Note_on_c, 3, 60, 52
9, 36600, Note_on_c, 3, 57, 52
9, 36711, Note_on_c, 3, 60, 0
9, 36711, Note_on_c, 3, 57, 0
9, 36720, Note_on_c, 3, 56, 52
9, 36720, Note_on_c, 3, 59, 52
9, 36839, Note_on_c, 3, 56, 0
9, 36839, Note_on_c, 3, 59, 0
9, 37440, Note_on_c, 3, 48, 52
9, 37559, Note_on_c, 3, 48, 0
9, 37560, Note_on_c, 3, 52, 52
9, 37679, Note_on_c, 3, 52, 0
9, 37680, Note_on_c, 3, 55, 52
9, 37791, Note_on_c, 3, 55, 0
9, 37800, Note_on_c, 3, 60, 52
9, 37800, Note_on_c, 3, 64, 52
9, 37919, Note_on_c, 3, 60, 0
9, 37919, Note_on_c, 3, 64, 0
9, 37920, Note_on_c, 3, 62, 52
9, 37920, Note_on_c, 3, 65, 52
9, 38039, Note_on_c, 3, 62, 0
9, 38039, Note_on_c, 3, 65, 0
9, 38040, Note_on_c, 3, 60, 52
9, 38040, Note_on_c, 3, 64, 52
9, 38151, Note_on_c, 3, 60, 0
9, 38151, Note_on_c, 3, 64, 0
9, 38160, Note_on_c, 3, 59, 52
9, 38160, Note_on_c, 3, 62, 52
9, 38279, Note_on_c, 3, 59, 0
9, 38279, Note_on_c, 3, 62, 0
9, 39000, Note_on_c, 3, 61, 52
9, 39119, Note_on_c, 3, 61, 0
9, 39120, Note_on_c, 3, 62, 52
9, 39239, Note_on_c, 3, 62, 0
9, 39240, Note_on_c, 3, 64, 52
9, 39359, Note_on_c, 3, 64, 0
9, 39600, Control_c, 3, 11, 80
9, 39720, Note_on_c, 3, 61, 76
9, 39764, Note_on_c, 3, 61, 0
9, 39780, Note_on_c, 3, 61, 76
9, 39824, Note_on_c, 3, 61, 0
9, 39840, Note_on_c, 3, 62, 76
9, 39884, Note_on_c, 3, 62, 0
9, 39900, Note_on_c, 3, 62, 76
9, 39944, Note_on_c, 3, 62, 0
9, 39960, Note_on_c, 3, 64, 76
9, 40071, Note_on_c, 3, 64, 0
9, 40080, Note_on_c, 3, 43, 76
9, 40080, Note_on_c, 3, 55, 76
9, 40124, Note_on_c, 3, 43, 0
9, 40124, Note_on_c, 3, 55, 0
9, 40140, Note_on_c, 3, 43, 76
9, 40140, Note_on_c, 3, 55, 76
9, 40184, Note_on_c, 3, 43, 0
9, 40184, Note_on_c, 3, 55, 0
9, 40200, Note_on_c, 3, 57, 76
9, 40200, Note_on_c, 3, 45, 76
9, 40244, Note_on_c, 3, 57, 0
9, 40244, Note_on_c, 3, 45, 0
9, 40260, Note_on_c, 3, 57, 76
9, 40260, Note_on_c, 3, 45, 76
9, 40304, Note_on_c, 3, 57, 0
9, 40304, Note_on_c, 3, 45, 0
9, 40320, Note_on_c, 3, 58, 76
9, 40320, Note_on_c, 3, 46, 76
9, 40320, Control_c, 3, 11, 80
9, 40350, Control_c, 3, 11, 84
9, 40364, Note_on_c, 3, 58, 0
9, 40364, Note_on_c, 3, 46, 0
9, 40380, Note_on_c, 3, 64, 76
9, 40380, Note_on_c, 3, 61, 76
9, 40380, Control_c, 3, 11, 88
9, 40410, Control_c, 3, 11, 92
9, 40424, Note_on_c, 3, 64, 0
9, 40424, Note_on_c, 3, 61, 0
9, 40440, Note_on_c, 3, 64, 76
9, 40440, Note_on_c, 3, 61, 76
9, 40440, Control_c, 3, 11, 96
9, 40470, Control_c, 3, 11, 100
9, 40484, Note_on_c, 3, 64, 0
9, 40484, Note_on_c, 3, 61, 0
9, 40500, Note_on_c, 3, 64, 76
9, 40500, Note_on_c, 3, 61, 76
9, 40500, Control_c, 3, 11, 104
9, 40530, Control_c, 3, 11, 107
9, 40544, Note_on_c, 3, 64, 0
9, 40544, Note_on_c, 3, 61, 0
9, 40560, Note_on_c, 3, 64, 76
9, 40560, Control_c, 3, 11, 111
9, 40560, Note_on_c, 3, 61, 76
9, 40590, Control_c, 3, 11, 115
9, 40604, Note_on_c, 3, 64, 0
9, 40604, Note_on_c, 3, 61, 0
9, 40620, Control_c, 3, 11, 119
9, 40620, Note_on_c, 3, 61, 76
9, 40620, Note_on_c, 3, 64, 76
9, 40650, Control_c, 3, 11, 123
9, 40664, Note_on_c, 3, 61, 0
9, 40664, Note_on_c, 3, 64, 0
9, 40680, Note_on_c, 3, 64, 76
9, 40680, Control_c, 3, 11, 127
9, 40680, Note_on_c, 3, 61, 76
9, 40724, Note_on_c, 3, 64, 0
9, 40724, Note_on_c, 3, 61, 0
9, 40740, Note_on_c, 3, 61, 76
9, 40740, Note_on_c, 3, 64, 76
9, 40784, Note_on_c, 3, 61, 0
9, 40784, Note_on_c, 3, 64, 0
9, 40800, Note_on_c, 3, 61, 76
9, 40800, Note_on_c, 3, 64, 76
9, 40844, Note_on_c, 3, 61, 0
9, 40844, Note_on_c, 3, 64, 0
9, 40860, Note_on_c, 3, 64, 76
9, 40860, Note_on_c, 3, 61, 76
9, 40904, Note_on_c, 3, 64, 0
9, 40904, Note_on_c, 3, 61, 0
9, 40920, Note_on_c, 3, 64, 76
9, 40920, Note_on_c, 3, 61, 76
9, 40964, Note_on_c, 3, 64, 0
9, 40964, Note_on_c, 3, 61, 0
9, 40980, Note_on_c, 3, 61, 76
9, 40980, Note_on_c, 3, 64, 76
9, 41024, Note_on_c, 3, 61, 0
9, 41024, Note_on_c, 3, 64, 0
9, 41040, Note_on_c, 3, 59, 76
9, 41040, Note_on_c, 3, 64, 76
9, 41391, Note_on_c, 3, 59, 0
9, 41391, Note_on_c, 3, 64, 0
9, 41400, Note_on_c, 3, 66, 76
9, 41400, Note_on_c, 3, 59, 76
9, 41489, Note_on_c, 3, 66, 0
9, 41489, Note_on_c, 3, 59, 0
9, 41520, Note_on_c, 3, 59, 76
9, 41520, Note_on_c, 3, 66, 76
9, 41609, Note_on_c, 3, 59, 0
9, 41609, Note_on_c, 3, 66, 0
9, 41640, Note_on_c, 3, 66, 76
9, 41640, Note_on_c, 3, 59, 76
9, 41729, Note_on_c, 3, 66, 0
9, 41729, Note_on_c, 3, 59, 0
9, 41760, Note_on_c, 3, 64, 76
9, 41760, Note_on_c, 3, 52, 76
9, 41879, Note_on_c, 3, 64, 0
9, 41879, Note_on_c, 3, 52, 0
9, 42240, Note_on_c, 3, 62, 44
9, 42359, Note_on_c, 3, 62, 0
9, 42360, Note_on_c, 3, 64, 44
9, 42479, Note_on_c, 3, 64, 0
9, 42480, Note_on_c, 3, 65, 44
9, 42599, Note_on_c, 3, 65, 0
9, 42960, Note_on_c, 3, 62, 44
9, 43004, Note_on_c, 3, 62, 0
9, 43020, Note_on_c, 3, 62, 44
9, 43064, Note_on_c, 3, 62, 0
9, 43080, Note_on_c, 3, 64, 44
9, 43124, Note_on_c, 3, 64, 0
9, 43140, Note_on_c, 3, 64, 44
9, 43184, Note_on_c, 3, 64, 0
9, 43200, Note_on_c, 3, 65, 44
9, 43319, Note_on_c, 3, 65, 0
9, 43560, Control_c, 3, 11, 64
9, 43680, Note_on_c, 3, 62, 76
9, 43724, Note_on_c, 3, 62, 0
9, 43740, Note_on_c, 3, 62, 76
9, 43784, Note_on_c, 3, 62, 0
9, 43800, Note_on_c, 3, 64, 76
9, 43844, Note_on_c, 3, 64, 0
9, 43860, Note_on_c, 3, 64, 76
9, 43904, Note_on_c, 3, 64, 0
9, 43920, Note_on_c, 3, 65, 76
9, 43964, Note_on_c, 3, 65, 0
9, 43980, Note_on_c, 3, 65, 76
9, 44024, Note_on_c, 3, 65, 0
9, 44040, Note_on_c, 3, 65, 76
9, 44084, Note_on_c, 3, 65, 0
9, 44100, Note_on_c, 3, 65, 76
9, 44144, Note_on_c, 3, 65, 0
9, 44160, Note_on_c, 3, 64, 76
9, 44204, Note_on_c, 3, 64, 0
9, 44220, Note_on_c, 3, 64, 76
9, 44264, Note_on_c, 3, 64, 0
9, 44280, Note_on_c, 3, 62, 76
9, 44280, Note_on_c, 3, 50, 76
9, 44280, Control_c, 3, 11, 64
9, 44340, Control_c, 3, 11, 69
9, 44400, Control_c, 3, 11, 75
9, 44460, Control_c, 3, 11, 80
9, 44520, Control_c, 3, 11, 85
9, 44580, Control_c, 3, 11, 90
9, 44639, Note_on_c, 3, 62, 0
9, 44639, Note_on_c, 3, 50, 0
9, 44640, Control_c, 3, 11, 96
9, 44640, Note_on_c, 3, 49, 76
9, 44640, Note_on_c, 3, 61, 76
9, 44700, Control_c, 3, 11, 101
9, 44760, Control_c, 3, 11, 106
9, 44820, Control_c, 3, 11, 111
9, 44880, Control_c, 3, 11, 117
9, 44940, Control_c, 3, 11, 122
9, 44991, Note_on_c, 3, 49, 0
9, 44991, Note_on_c, 3, 61, 0
9, 45000, Control_c, 3, 11, 127
9, 45000, Note_on_c, 3, 60, 76
9, 45000, Note_on_c, 3, 48, 76
9, 45089, Note_on_c, 3, 60, 0
9, 45089, Note_on_c, 3, 48, 0
9, 45120, Note_on_c, 3, 65, 76
9, 45120, Note_on_c, 3, 57, 76
9, 45209, Note_on_c, 3, 65, 0
9, 45209, Note_on_c, 3, 57, 0
9, 45240, Note_on_c, 3, 57, 76
9, 45240, Note_on_c, 3, 65, 76
9, 45329, Note_on_c, 3, 57, 0
9, 45329, Note_on_c, 3, 65, 0
9, 45360, Note_on_c, 3, 58, 76
9, 45360, Note_on_c, 3, 64, 76
9, 45449, Note_on_c, 3, 58, 0
9, 45449, Note_on_c, 3, 64, 0
9, 45480, Note_on_c, 3, 64, 76
9, 45480, Note_on_c, 3, 58, 76
9, 45569, Note_on_c, 3, 64, 0
9, 45569, Note_on_c, 3, 58, 0
9, 45600, Note_on_c, 3, 64, 76
9, 45600, Note_on_c, 3, 58, 76
9, 45689, Note_on_c, 3, 64, 0
9, 45689, Note_on_c, 3, 58, 0
9, 45720, Note_on_c, 3, 48, 84
9, 45839, Note_on_c, 3, 48, 0
9, 45840, Note_on_c, 3, 53, 84
9, 45959, Note_on_c, 3, 53, 0
9, 45960, Note_on_c, 3, 55, 84
9, 46071, Note_on_c, 3, 55, 0
9, 46080, Note_on_c, 3, 57, 84
9, 46169, Note_on_c, 3, 57, 0
9, 46440, Note_on_c, 3, 48, 84
9, 46559, Note_on_c, 3, 48, 0
9, 46560, Note_on_c, 3, 55, 84
9, 46679, Note_on_c, 3, 55, 0
9, 46680, Note_on_c, 3, 57, 84
9, 46791, Note_on_c, 3, 57, 0
9, 46800, Note_on_c, 3, 58, 84
9, 46889, Note_on_c, 3, 58, 0
9, 47040, Note_on_c, 3, 48, 84
9, 47125, Note_on_c, 3, 48, 0
9, 47130, Note_on_c, 3, 48, 84
9, 47155, Note_on_c, 3, 48, 0
9, 47160, Note_on_c, 3, 48, 84
9, 47279, Note_on_c, 3, 48, 0
9, 47280, Note_on_c, 3, 53, 84
9, 47399, Note_on_c, 3, 53, 0
9, 47400, Note_on_c, 3, 55, 84
9, 47511, Note_on_c, 3, 55, 0
9, 47520, Note_on_c, 3, 56, 84
9, 47609, Note_on_c, 3, 56, 0
9, 47760, Note_on_c, 3, 48, 84
9, 47845, Note_on_c, 3, 48, 0
9, 47850, Note_on_c, 3, 48, 84
9, 47875, Note_on_c, 3, 48, 0
9, 47880, Note_on_c, 3, 48, 84
9, 47999, Note_on_c, 3, 48, 0
9, 48000, Note_on_c, 3, 55, 84
9, 48119, Note_on_c, 3, 55, 0
9, 48120, Note_on_c, 3, 56, 84
9, 48231, Note_on_c, 3, 56, 0
9, 48240, Note_on_c, 3, 58, 84
9, 48359, Note_on_c, 3, 58, 0
9, 48480, Note_on_c, 3, 52, 84
9, 48480, Note_on_c, 3, 64, 84
9, 48591, Note_on_c, 3, 52, 0
9, 48591, Note_on_c, 3, 64, 0
9, 48600, Note_on_c, 3, 65, 84
9, 48600, Note_on_c, 3, 53, 84
9, 48711, Note_on_c, 3, 53, 0
9, 48720, Note_on_c, 3, 60, 84
9, 48951, Note_on_c, 3, 65, 0
9, 48951, Note_on_c, 3, 60, 0
9, 48960, Note_on_c, 3, 60, 84
9, 48960, Note_on_c, 3, 66, 84
9, 49311, Note_on_c, 3, 60, 0
9, 49311, Note_on_c, 3, 66, 0
9, 49320, Note_on_c, 3, 59, 84
9, 49320, Note_on_c, 3, 67, 84
9, 49439, Note_on_c, 3, 59, 0
9, 49439, Note_on_c, 3, 67, 0
9, 53640, Note_on_c, 3, 64, 84
9, 53640, Note_on_c, 3, 61, 84
9, 53999, Note_on_c, 3, 64, 0
9, 53999, Note_on_c, 3, 61, 0
9, 54000, Note_on_c, 3, 66, 84
9, 54000, Note_on_c, 3, 62, 84
9, 54351, Note_on_c, 3, 66, 0
9, 54351, Note_on_c, 3, 62, 0
9, 54360, Note_on_c, 3, 59, 92
9, 54360, Note_on_c, 3, 62, 92
9, 54711, Note_on_c, 3, 59, 0
9, 54711, Note_on_c, 3, 62, 0
9, 54720, Note_on_c, 3, 59, 84
9, 54720, Note_on_c, 3, 56, 84
9, 54720, Control_c, 3, 11, 127
9, 54750, Control_c, 3, 11, 122
9, 54780, Control_c, 3, 11, 117
9, 54810, Control_c, 3, 11, 111
9, 54840, Control_c, 3, 11, 106
9, 54870, Control_c, 3, 11, 101
9, 54900, Control_c, 3, 11, 96
9, 54930, Control_c, 3, 11, 90
9, 54959, Note_on_c, 3, 59, 0
9, 54959, Note_on_c, 3, 56, 0
9, 54960, Note_on_c, 3, 59, 84
9, 54960, Note_on_c, 3, 64, 84
9, 54960, Control_c, 3, 11, 85
9, 54990, Control_c, 3, 11, 80
9, 55020, Control_c, 3, 11, 75
9, 55050, Control_c, 3, 11, 69
9, 55071, Note_on_c, 3, 59, 0
9, 55071, Note_on_c, 3, 64, 0
9, 55080, Control_c, 3, 11, 64
9, 55080, Note_on_c, 3, 61, 84
9, 55080, Note_on_c, 3, 64, 84
9, 55439, Note_on_c, 3, 61, 0
9, 55439, Note_on_c, 3, 64, 0
9, 55440, Note_on_c, 3, 62, 84
9, 55440, Note_on_c, 3, 59, 84
9, 55440, Control_c, 3, 11, 64
9, 55490, Control_c, 3, 11, 63
9, 55540, Control_c, 3, 11, 61
9, 55590, Control_c, 3, 11, 60
9, 55640, Control_c, 3, 11, 59
9, 55690, Control_c, 3, 11, 57
9, 55740, Control_c, 3, 11, 56
9, 55790, Control_c, 3, 11, 55
9, 55799, Note_on_c, 3, 62, 0
9, 55799, Note_on_c, 3, 59, 0
9, 55800, Note_on_c, 3, 57, 84
9, 55800, Note_on_c, 3, 61, 84
9, 55840, Control_c, 3, 11, 53
9, 55890, Control_c, 3, 11, 52
9, 55940, Control_c, 3, 11, 51
9, 55990, Control_c, 3, 11, 49
9, 56040, Control_c, 3, 11, 48
9, 56159, Note_on_c, 3, 57, 0
9, 56159, Note_on_c, 3, 61, 0
9, 56160, Control_c, 3, 11, 48
9, 56160, Note_on_c, 3, 59, 84
9, 56160, Note_on_c, 3, 56, 84
9, 56190, Control_c, 3, 11, 52
9, 56220, Control_c, 3, 11, 56
9, 56250, Control_c, 3, 11, 60
9, 56280, Control_c, 3, 11, 64
9, 56310, Control_c, 3, 11, 68
9, 56340, Control_c, 3, 11, 72
9, 56370, Control_c, 3, 11, 76
9, 56400, Control_c, 3, 11, 80
9, 56430, Control_c, 3, 11, 84
9, 56460, Control_c, 3, 11, 88
9, 56490, Control_c, 3, 11, 92
9, 56516, Control_c, 3, 11, 64
9, 56519, Note_on_c, 3, 59, 0
9, 56519, Note_on_c, 3, 56, 0
9, 56520, Note_on_c, 3, 57, 84
9, 56639, Note_on_c, 3, 57, 0
9, 59280, Control_c, 3, 11, 96
9, 59400, Note_on_c, 3, 45, 68
9, 59400, Note_on_c, 3, 52, 68
9, 59519, Note_on_c, 3, 45, 0
9, 59519, Note_on_c, 3, 52, 0
9, 59520, Note_on_c, 3, 49, 68
9, 59520, Note_on_c, 3, 57, 68
9, 59639, Note_on_c, 3, 49, 0
9, 59639, Note_on_c, 3, 57, 0
9, 59640, Note_on_c, 3, 59, 68
9, 59640, Note_on_c, 3, 52, 68
9, 59751, Note_on_c, 3, 59, 0
9, 59751, Note_on_c, 3, 52, 0
9, 59760, Note_on_c, 3, 57, 68
9, 59760, Note_on_c, 3, 61, 68
9, 60111, Note_on_c, 3, 57, 0
9, 60111, Note_on_c, 3, 61, 0
9, 60120, Note_on_c, 3, 61, 68
9, 60120, Note_on_c, 3, 57, 68
9, 60239, Note_on_c, 3, 61, 0
9, 60239, Note_on_c, 3, 57, 0
9, 60240, Note_on_c, 3, 59, 68
9, 60240, Note_on_c, 3, 62, 68
9, 60359, Note_on_c, 3, 59, 0
9, 60359, Note_on_c, 3, 62, 0
9, 60360, Note_on_c, 3, 61, 68
9, 60360, Note_on_c, 3, 57, 68
9, 60471, Note_on_c, 3, 61, 0
9, 60471, Note_on_c, 3, 57, 0
9, 60480, Note_on_c, 3, 59, 68
9, 60480, Note_on_c, 3, 56, 68
9, 60831, Note_on_c, 3, 59, 0
9, 60831, Note_on_c, 3, 56, 0
9, 60840, Note_on_c, 3, 57, 68
9, 60840, Note_on_c, 3, 64, 68
9, 60840, Control_c, 3, 11, 96
9, 60900, Control_c, 3, 11, 99
9, 60959, Note_on_c, 3, 57, 0
9, 60959, Note_on_c, 3, 64, 0
9, 60960, Note_on_c, 3, 56, 68
9, 60960, Control_c, 3, 11, 101
9, 60960, Note_on_c, 3, 62, 68
9, 61020, Control_c, 3, 11, 104
9, 61079, Note_on_c, 3, 56, 0
9, 61079, Note_on_c, 3, 62, 0
9, 61080, Note_on_c, 3, 57, 68
9, 61080, Control_c, 3, 11, 106
9, 61080, Note_on_c, 3, 61, 68
9, 61140, Control_c, 3, 11, 109
9, 61191, Note_on_c, 3, 57, 0
9, 61191, Note_on_c, 3, 61, 0
9, 61200, Note_on_c, 3, 52, 68
9, 61200, Note_on_c, 3, 59, 68
9, 61200, Control_c, 3, 11, 112
9, 61260, Control_c, 3, 11, 114
9, 61320, Control_c, 3, 11, 117
9, 61380, Control_c, 3, 11, 119
9, 61439, Note_on_c, 3, 52, 0
9, 61439, Note_on_c, 3, 59, 0
9, 61440, Note_on_c, 3, 61, 68
9, 61440, Note_on_c, 3, 52, 68
9, 61440, Control_c, 3, 11, 122
9, 61500, Control_c, 3, 11, 124
9, 61551, Note_on_c, 3, 61, 0
9, 61551, Note_on_c, 3, 52, 0
9, 61560, Control_c, 3, 11, 96
9, 61560, Note_on_c, 3, 56, 68
9, 61560, Note_on_c, 3, 52, 68
9, 61799, Note_on_c, 3, 56, 0
9, 61799, Note_on_c, 3, 52, 0
9, 61800, Note_on_c, 3, 54, 68
9, 61800, Note_on_c, 3, 57, 68
9, 61889, Note_on_c, 3, 54, 0
9, 61889, Note_on_c, 3, 57, 0
9, 61890, Note_on_c, 3, 54, 68
9, 61890, Note_on_c, 3, 51, 68
9, 61915, Note_on_c, 3, 54, 0
9, 61915, Note_on_c, 3, 51, 0
9, 61920, Note_on_c, 3, 52, 68
9, 62039, Note_on_c, 3, 52, 0
9, 62520, Note_on_c, 3, 40, 76
9, 62520, Note_on_c, 3, 52, 76
9, 62520, Control_c, 3, 11, 127
9, 62540, Control_c, 3, 11, 124
9, 62560, Control_c, 3, 11, 122
9, 62580, Control_c, 3, 11, 119
9, 62600, Control_c, 3, 11, 117
9, 62620, Control_c, 3, 11, 114
9, 62640, Control_c, 3, 11, 112
9, 62660, Control_c, 3, 11, 109
9, 62680, Control_c, 3, 11, 106
9, 62700, Control_c, 3, 11, 104
9, 62720, Control_c, 3, 11, 101
9, 62740, Control_c, 3, 11, 99
9, 62759, Note_on_c, 3, 40, 0
9, 62759, Note_on_c, 3, 52, 0
9, 62760, Control_c, 3, 11, 96
9, 62760, Note_on_c, 3, 57, 68
9, 62760, Note_on_c, 3, 45, 68
9, 62804, Note_on_c, 3, 57, 0
9, 62804, Note_on_c, 3, 45, 0
9, 63120, Control_c, 3, 11, 127
9, 63240, Note_on_c, 3, 52, 76
9, 63240, Note_on_c, 3, 40, 76
9, 63260, Control_c, 3, 11, 124
9, 63280, Control_c, 3, 11, 122
9, 63300, Control_c, 3, 11, 119
9, 63320, Control_c, 3, 11, 117
9, 63340, Control_c, 3, 11, 114
9, 63360, Control_c, 3, 11, 112
9, 63380, Control_c, 3, 11, 109
9, 63400, Control_c, 3, 11, 106
9, 63420, Control_c, 3, 11, 104
9, 63440, Control_c, 3, 11, 101
9, 63460, Control_c, 3, 11, 99
9, 63479, Note_on_c, 3, 52, 0
9, 63479, Note_on_c, 3, 40, 0
9, 63480, Control_c, 3, 11, 96
9, 63480, Note_on_c, 3, 47, 68
9, 63480, Note_on_c, 3, 59, 68
9, 63524, Note_on_c, 3, 47, 0
9, 63524, Note_on_c, 3, 59, 0
9, 65040, Note_on_c, 3, 52, 68
9, 65129, Note_on_c, 3, 52, 0
9, 65130, Note_on_c, 3, 59, 68
9, 65155, Note_on_c, 3, 59, 0
9, 65160, Note_on_c, 3, 52, 68
9, 65160, Note_on_c, 3, 59, 68
9, 65279, Note_on_c, 3, 59, 0
9, 65280, Note_on_c, 3, 57, 68
9, 65399, Note_on_c, 3, 52, 0
9, 65399, Note_on_c, 3, 57, 0
9, 65400, Note_on_c, 3, 59, 68
9, 65400, Note_on_c, 3, 56, 68
9, 65511, Note_on_c, 3, 59, 0
9, 65511, Note_on_c, 3, 56, 0
9, 65520, Note_on_c, 3, 60, 68
9, 65520, Control_c, 3, 11, 96
9, 65520, Note_on_c, 3, 56, 68
9, 65540, Control_c, 3, 11, 95
9, 65560, Control_c, 3, 11, 93
9, 65580, Control_c, 3, 11, 92
9, 65600, Control_c, 3, 11, 91
9, 65620, Control_c, 3, 11, 89
9, 65639, Note_on_c, 3, 60, 0
9, 65639, Note_on_c, 3, 56, 0
9, 65640, Control_c, 3, 11, 88
9, 65640, Note_on_c, 3, 61, 68
9, 65640, Note_on_c, 3, 57, 68
9, 65660, Control_c, 3, 11, 87
9, 65680, Control_c, 3, 11, 85
9, 65699, Note_on_c, 3, 61, 0
9, 65699, Note_on_c, 3, 57, 0
9, 65700, Control_c, 3, 11, 84
9, 65720, Control_c, 3, 11, 83
9, 65740, Control_c, 3, 11, 81
9, 65760, Control_c, 3, 11, 80
9, 65760, Note_on_c, 3, 52, 68
9, 65849, Note_on_c, 3, 52, 0
9, 65850, Note_on_c, 3, 61, 68
9, 65850, Note_on_c, 3, 57, 68
9, 65875, Note_on_c, 3, 61, 0
9, 65875, Note_on_c, 3, 57, 0
9, 65880, Note_on_c, 3, 57, 68
9, 65880, Note_on_c, 3, 61, 68
9, 65999, Note_on_c, 3, 57, 0
9, 65999, Note_on_c, 3, 61, 0
9, 66000, Note_on_c, 3, 56, 68
9, 66000, Note_on_c, 3, 59, 68
9, 66119, Note_on_c, 3, 56, 0
9, 66119, Note_on_c, 3, 59, 0
9, 66120, Note_on_c, 3, 61, 68
9, 66120, Note_on_c, 3, 57, 68
9, 66231, Note_on_c, 3, 61, 0
9, 66231, Note_on_c, 3, 57, 0
9, 66240, Note_on_c, 3, 58, 68
9, 66240, Control_c, 3, 11, 96
9, 66240, Note_on_c, 3, 61, 68
9, 66260, Control_c, 3, 11, 95
9, 66280, Control_c, 3, 11, 93
9, 66300, Control_c, 3, 11, 92
9, 66320, Control_c, 3, 11, 91
9, 66340, Control_c, 3, 11, 89
9, 66359, Note_on_c, 3, 58, 0
9, 66359, Note_on_c, 3, 61, 0
9, 66360, Note_on_c, 3, 59, 68
9, 66360, Control_c, 3, 11, 88
9, 66360, Note_on_c, 3, 62, 68
9, 66380, Control_c, 3, 11, 87
9, 66400, Control_c, 3, 11, 85
9, 66419, Note_on_c, 3, 59, 0
9, 66419, Note_on_c, 3, 62, 0
9, 66420, Control_c, 3, 11, 84
9, 66440, Control_c, 3, 11, 83
9, 66460, Control_c, 3, 11, 81
9, 66480, Note_on_c, 3, 62, 68
9, 66480, Control_c, 3, 11, 80
9, 66480, Note_on_c, 3, 59, 68
9, 66591, Note_on_c, 3, 62, 0
9, 66591, Note_on_c, 3, 59, 0
9, 66600, Control_c, 3, 11, 96
9, 66600, Note_on_c, 3, 62, 68
9, 66600, Note_on_c, 3, 59, 68
9, 66630, Control_c, 3, 11, 99
9, 66660, Control_c, 3, 11, 101
9, 66690, Control_c, 3, 11, 104
9, 66720, Control_c, 3, 11, 106
9, 66750, Control_c, 3, 11, 109
9, 66780, Control_c, 3, 11, 112
9, 66810, Control_c, 3, 11, 114
9, 66839, Note_on_c, 3, 62, 0
9, 66839, Note_on_c, 3, 59, 0
9, 66840, Note_on_c, 3, 61, 68
9, 66840, Note_on_c, 3, 64, 68
9, 66840, Control_c, 3, 11, 117
9, 66870, Control_c, 3, 11, 119
9, 66899, Note_on_c, 3, 61, 0
9, 66899, Note_on_c, 3, 64, 0
9, 66900, Control_c, 3, 11, 122
9, 66900, Note_on_c, 3, 62, 68
9, 66900, Note_on_c, 3, 66, 68
9, 66930, Control_c, 3, 11, 124
9, 66955, Note_on_c, 3, 62, 0
9, 66955, Note_on_c, 3, 66, 0
9, 66960, Note_on_c, 3, 66, 76
9, 66960, Note_on_c, 3, 62, 76
9, 66960, Control_c, 3, 11, 127
9, 66990, Control_c, 3, 11, 124
9, 67019, Note_on_c, 3, 66, 0
9, 67019, Note_on_c, 3, 62, 0
9, 67020, Note_on_c, 3, 56, 68
9, 67020, Note_on_c, 3, 59, 68
9, 67020, Control_c, 3, 11, 122
9, 67050, Control_c, 3, 11, 119
9, 67080, Control_c, 3, 11, 117
9, 67110, Control_c, 3, 11, 114
9, 67140, Control_c, 3, 11, 112
9, 67170, Control_c, 3, 11, 109
9, 67199, Note_on_c, 3, 56, 0
9, 67199, Note_on_c, 3, 59, 0
9, 67200, Note_on_c, 3, 57, 68
9, 67200, Control_c, 3, 11, 106
9, 67200, Note_on_c, 3, 61, 68
9, 67230, Control_c, 3, 11, 104
9, 67260, Control_c, 3, 11, 101
9, 67290, Control_c, 3, 11, 99
9, 67311, Note_on_c, 3, 57, 0
9, 67311, Note_on_c, 3, 61, 0
9, 67320, Control_c, 3, 11, 96
9, 67320, Note_on_c, 3, 64, 68
9, 67320, Note_on_c, 3, 61, 68
9, 67499, Note_on_c, 3, 64, 0
9, 67499, Note_on_c, 3, 61, 0
9, 67500, Note_on_c, 3, 62, 68
9, 67500, Note_on_c, 3, 59, 68
9, 67559, Note_on_c, 3, 62, 0
9, 67559, Note_on_c, 3, 59, 0
9, 67560, Note_on_c, 3, 57, 68
9, 67560, Note_on_c, 3, 61, 68
9, 67619, Note_on_c, 3, 57, 0
9, 67619, Note_on_c, 3, 61, 0
9, 67620, Note_on_c, 3, 56, 68
9, 67620, Note_on_c, 3, 59, 68
9, 67675, Note_on_c, 3, 56, 0
9, 67675, Note_on_c, 3, 59, 0
9, 67680, Note_on_c, 3, 57, 68
9, 67799, Note_on_c, 3, 57, 0
9, 67920, Control_c, 3, 11, 127
9, 67980, Note_on_c, 3, 52, 52
9, 68035, Note_on_c, 3, 52, 0
9, 68040, Note_on_c, 3, 52, 52
9, 68129, Note_on_c, 3, 52, 0
9, 68130, Note_on_c, 3, 57, 52
9, 68155, Note_on_c, 3, 57, 0
9, 68160, Note_on_c, 3, 61, 68
9, 68339, Note_on_c, 3, 61, 0
9, 68340, Note_on_c, 3, 57, 52
9, 68395, Note_on_c, 3, 57, 0
9, 68400, Note_on_c, 3, 56, 52
9, 68489, Note_on_c, 3, 56, 0
9, 68490, Note_on_c, 3, 59, 52
9, 68515, Note_on_c, 3, 59, 0
9, 68520, Note_on_c, 3, 62, 52
9, 68639, Note_on_c, 3, 62, 0
9, 69420, Note_on_c, 3, 52, 52
9, 69475, Note_on_c, 3, 52, 0
9, 69480, Note_on_c, 3, 52, 52
9, 69569, Note_on_c, 3, 52, 0
9, 69570, Note_on_c, 3, 57, 52
9, 69595, Note_on_c, 3, 57, 0
9, 69600, Note_on_c, 3, 60, 68
9, 69779, Note_on_c, 3, 60, 0
9, 69780, Note_on_c, 3, 57, 52
9, 69835, Note_on_c, 3, 57, 0
9, 69840, Note_on_c, 3, 56, 52
9, 69929, Note_on_c, 3, 56, 0
9, 69930, Note_on_c, 3, 59, 52
9, 69955, Note_on_c, 3, 59, 0
9, 69960, Note_on_c, 3, 62, 52
9, 70049, Note_on_c, 3, 62, 0
9, 70200, Control_c, 3, 11, 96
9, 70320, Note_on_c, 3, 64, 68
9, 70320, Control_c, 3, 11, 96
9, 70340, Control_c, 3, 11, 99
9, 70360, Control_c, 3, 11, 101
9, 70380, Control_c, 3, 11, 104
9, 70400, Control_c, 3, 11, 106
9, 70420, Control_c, 3, 11, 109
9, 70440, Control_c, 3, 11, 112
9, 70460, Control_c, 3, 11, 114
9, 70480, Control_c, 3, 11, 117
9, 70495, Note_on_c, 3, 64, 0
9, 70500, Control_c, 3, 11, 119
9, 70500, Note_on_c, 3, 64, 68
9, 70520, Control_c, 3, 11, 122
9, 70540, Control_c, 3, 11, 124
9, 70555, Note_on_c, 3, 64, 0
9, 70560, Note_on_c, 3, 65, 76
9, 70560, Control_c, 3, 11, 127
9, 70619, Note_on_c, 3, 65, 0
9, 70620, Note_on_c, 3, 64, 68
9, 70675, Note_on_c, 3, 64, 0
9, 70680, Note_on_c, 3, 64, 68
9, 70769, Note_on_c, 3, 64, 0
9, 71280, Note_on_c, 3, 55, 52
9, 71369, Note_on_c, 3, 55, 0
9, 71370, Note_on_c, 3, 58, 52
9, 71395, Note_on_c, 3, 58, 0
9, 71400, Note_on_c, 3, 64, 52
9, 71489, Note_on_c, 3, 64, 0
9, 72000, Note_on_c, 3, 52, 52
9, 72089, Note_on_c, 3, 52, 0
9, 72090, Note_on_c, 3, 55, 52
9, 72115, Note_on_c, 3, 55, 0
9, 72120, Note_on_c, 3, 60, 52
9, 72209, Note_on_c, 3, 60, 0
9, 72480, Note_on_c, 3, 50, 76
9, 72569, Note_on_c, 3, 50, 0
9, 72570, Note_on_c, 3, 53, 52
9, 72595, Note_on_c, 3, 53, 0
9, 72600, Note_on_c, 3, 58, 52
9, 72689, Note_on_c, 3, 58, 0
9, 72840, Note_on_c, 3, 51, 76
9, 72929, Note_on_c, 3, 51, 0
9, 72930, Note_on_c, 3, 57, 52
9, 72955, Note_on_c, 3, 57, 0
9, 72960, Note_on_c, 3, 60, 52
9, 73049, Note_on_c, 3, 60, 0
9, 73080, Note_on_c, 3, 59, 52
9, 73135, Note_on_c, 3, 59, 0
9, 73140, Note_on_c, 3, 62, 76
9, 73140, Note_on_c, 3, 59, 76
9, 73251, Note_on_c, 3, 62, 0
9, 73251, Note_on_c, 3, 59, 0
9, 73260, Note_on_c, 3, 62, 52
9, 73260, Note_on_c, 3, 59, 52
9, 73304, Note_on_c, 3, 62, 0
9, 73304, Note_on_c, 3, 59, 0
9, 73320, Note_on_c, 3, 60, 52
9, 73320, Note_on_c, 3, 57, 52
9, 73364, Note_on_c, 3, 60, 0
9, 73364, Note_on_c, 3, 57, 0
9, 73380, Note_on_c, 3, 60, 52
9, 73380, Note_on_c, 3, 57, 52
9, 73424, Note_on_c, 3, 60, 0
9, 73424, Note_on_c, 3, 57, 0
9, 73440, Note_on_c, 3, 59, 52
9, 73440, Note_on_c, 3, 56, 52
9, 73559, Note_on_c, 3, 59, 0
9, 73559, Note_on_c, 3, 56, 0
9, 73860, Note_on_c, 3, 62, 76
9, 73860, Note_on_c, 3, 59, 76
9, 73971, Note_on_c, 3, 62, 0
9, 73971, Note_on_c, 3, 59, 0
9, 73980, Note_on_c, 3, 62, 52
9, 73980, Note_on_c, 3, 59, 52
9, 74024, Note_on_c, 3, 62, 0
9, 74024, Note_on_c, 3, 59, 0
9, 74040, Note_on_c, 3, 57, 52
9, 74040, Note_on_c, 3, 60, 52
9, 74084, Note_on_c, 3, 57, 0
9, 74084, Note_on_c, 3, 60, 0
9, 74100, Note_on_c, 3, 60, 52
9, 74100, Note_on_c, 3, 57, 52
9, 74144, Note_on_c, 3, 60, 0
9, 74144, Note_on_c, 3, 57, 0
9, 74160, Note_on_c, 3, 59, 52
9, 74160, Note_on_c, 3, 56, 52
9, 74279, Note_on_c, 3, 59, 0
9, 74279, Note_on_c, 3, 56, 0
9, 74580, Note_on_c, 3, 62, 76
9, 74580, Note_on_c, 3, 59, 76
9, 74691, Note_on_c, 3, 62, 0
9, 74691, Note_on_c, 3, 59, 0
9, 74700, Note_on_c, 3, 62, 52
9, 74700, Note_on_c, 3, 59, 52
9, 74744, Note_on_c, 3, 62, 0
9, 74744, Note_on_c, 3, 59, 0
9, 74760, Note_on_c, 3, 60, 52
9, 74760, Note_on_c, 3, 57, 52
9, 74804, Note_on_c, 3, 60, 0
9, 74804, Note_on_c, 3, 57, 0
9, 74820, Note_on_c, 3, 60, 52
9, 74820, Note_on_c, 3, 57, 52
9, 74864, Note_on_c, 3, 60, 0
9, 74864, Note_on_c, 3, 57, 0
9, 74880, Note_on_c, 3, 59, 84
9, 74880, Note_on_c, 3, 56, 84
9, 74924, Note_on_c, 3, 59, 0
9, 74924, Note_on_c, 3, 56, 0
9, 74940, Note_on_c, 3, 62, 84
9, 74940, Note_on_c, 3, 59, 84
9, 74984, Note_on_c, 3, 62, 0
9, 74984, Note_on_c, 3, 59, 0
9, 75000, Note_on_c, 3, 62, 84
9, 75000, Note_on_c, 3, 59, 84
9, 75044, Note_on_c, 3, 62, 0
9, 75044, Note_on_c, 3, 59, 0
9, 75060, Note_on_c, 3, 62, 84
9, 75060, Note_on_c, 3, 59, 84
9, 75104, Note_on_c, 3, 62, 0
9, 75104, Note_on_c, 3, 59, 0
9, 75120, Note_on_c, 3, 60, 84
9, 75120, Note_on_c, 3, 57, 84
9, 75164, Note_on_c, 3, 60, 0
9, 75164, Note_on_c, 3, 57, 0
9, 75180, Note_on_c, 3, 60, 84
9, 75180, Note_on_c, 3, 57, 84
9, 75224, Note_on_c, 3, 60, 0
9, 75224, Note_on_c, 3, 57, 0
9, 75240, Note_on_c, 3, 59, 84
9, 75240, Note_on_c, 3, 56, 84
9, 75359, Note_on_c, 3, 59, 0
9, 75359, Note_on_c, 3, 56, 0
9, 77400, Note_on_c, 3, 59, 52
9, 77400, Note_on_c, 3, 56, 52
9, 77759, Note_on_c, 3, 59, 0
9, 77759, Note_on_c, 3, 56, 0
9, 77760, Note_on_c, 3, 57, 52
9, 77760, Note_on_c, 3, 61, 52
9, 78119, Note_on_c, 3, 57, 0
9, 78119, Note_on_c, 3, 61, 0
9, 78120, Note_on_c, 3, 62, 52
9, 78120, Note_on_c, 3, 59, 52
9, 78479, Note_on_c, 3, 62, 0
9, 78479, Note_on_c, 3, 59, 0
9, 78480, Note_on_c, 3, 61, 52
9, 78480, Note_on_c, 3, 57, 52
9, 78599, Note_on_c, 3, 61, 0
9, 78599, Note_on_c, 3, 57, 0
9, 80460, Note_on_c, 3, 62, 76
9, 80460, Note_on_c, 3, 59, 76
9, 80504, Note_on_c, 3, 62, 0
9, 80504, Note_on_c, 3, 59, 0
9, 80520, Note_on_c, 3, 64, 76
9, 80520, Note_on_c, 3, 61, 76
9, 80564, Note_on_c, 3, 64, 0
9, 80564, Note_on_c, 3, 61, 0
9, 80580, Note_on_c, 3, 66, 76
9, 80580, Note_on_c, 3, 62, 76
9, 80624, Note_on_c, 3, 66, 0
9, 80624, Note_on_c, 3, 62, 0
9, 80640, Note_on_c, 3, 61, 84
9, 80640, Note_on_c, 3, 57, 84
9, 80640, Control_c, 3, 11, 127
9, 80670, Control_c, 3, 11, 123
9, 80700, Control_c, 3, 11, 119
9, 80730, Control_c, 3, 11, 115
9, 80760, Control_c, 3, 11, 111
9, 80790, Control_c, 3, 11, 107
9, 80820, Control_c, 3, 11, 104
9, 80850, Control_c, 3, 11, 100
9, 80879, Note_on_c, 3, 61, 0
9, 80879, Note_on_c, 3, 57, 0
9, 80880, Control_c, 3, 11, 96
9, 80880, Note_on_c, 3, 62, 76
9, 80880, Note_on_c, 3, 59, 76
9, 80910, Control_c, 3, 11, 92
9, 80940, Control_c, 3, 11, 88
9, 80969, Note_on_c, 3, 62, 0
9, 80969, Note_on_c, 3, 59, 0
9, 80970, Note_on_c, 3, 59, 76
9, 80970, Note_on_c, 3, 56, 76
9, 80970, Control_c, 3, 11, 84
9, 80995, Note_on_c, 3, 59, 0
9, 80995, Note_on_c, 3, 56, 0
9, 81000, Control_c, 3, 11, 80
9, 81000, Note_on_c, 3, 57, 76
9, 81119, Note_on_c, 3, 57, 0
9, 81300, Note_on_c, 3, 61, 76
9, 81300, Note_on_c, 3, 49, 76
9, 81344, Note_on_c, 3, 61, 0
9, 81344, Note_on_c, 3, 49, 0
9, 81360, Note_on_c, 3, 62, 76
9, 81360, Note_on_c, 3, 50, 76
9, 81360, Control_c, 3, 11, 80
9, 81404, Note_on_c, 3, 62, 0
9, 81404, Note_on_c, 3, 50, 0
9, 81420, Note_on_c, 3, 61, 76
9, 81420, Note_on_c, 3, 49, 76
9, 81430, Control_c, 3, 11, 84
9, 81464, Note_on_c, 3, 61, 0
9, 81464, Note_on_c, 3, 49, 0
9, 81480, Note_on_c, 3, 50, 76
9, 81480, Note_on_c, 3, 62, 76
9, 81500, Control_c, 3, 11, 88
9, 81570, Control_c, 3, 11, 92
9, 81640, Control_c, 3, 11, 96
9, 81655, Note_on_c, 3, 50, 0
9, 81655, Note_on_c, 3, 62, 0
9, 81660, Note_on_c, 3, 50, 76
9, 81660, Note_on_c, 3, 62, 76
9, 81704, Note_on_c, 3, 50, 0
9, 81704, Note_on_c, 3, 62, 0
9, 81710, Control_c, 3, 11, 100
9, 81720, Note_on_c, 3, 52, 76
9, 81720, Note_on_c, 3, 64, 76
9, 81764, Note_on_c, 3, 52, 0
9, 81764, Note_on_c, 3, 64, 0
9, 81780, Control_c, 3, 11, 104
9, 81780, Note_on_c, 3, 63, 76
9, 81780, Note_on_c, 3, 51, 76
9, 81824, Note_on_c, 3, 63, 0
9, 81824, Note_on_c, 3, 51, 0
9, 81840, Note_on_c, 3, 52, 76
9, 81840, Note_on_c, 3, 64, 76
9, 81850, Control_c, 3, 11, 107
9, 81920, Control_c, 3, 11, 111
9, 81990, Control_c, 3, 11, 115
9, 82015, Note_on_c, 3, 52, 0
9, 82015, Note_on_c, 3, 64, 0
9, 82020, Note_on_c, 3, 52, 76
9, 82020, Note_on_c, 3, 64, 76
9, 82060, Control_c, 3, 11, 119
9, 82064, Note_on_c, 3, 52, 0
9, 82064, Note_on_c, 3, 64, 0
9, 82080, Note_on_c, 3, 66, 76
9, 82080, Note_on_c, 3, 54, 76
9, 82124, Note_on_c, 3, 66, 0
9, 82124, Note_on_c, 3, 54, 0
9, 82130, Control_c, 3, 11, 123
9, 82140, Note_on_c, 3, 65, 76
9, 82140, Note_on_c, 3, 53, 76
9, 82184, Note_on_c, 3, 65, 0
9, 82184, Note_on_c, 3, 53, 0
9, 82200, Control_c, 3, 11, 127
9, 82200, Note_on_c, 3, 54, 76
9, 82200, Note_on_c, 3, 66, 76
9, 82375, Note_on_c, 3, 54, 0
9, 82375, Note_on_c, 3, 66, 0
9, 82380, Note_on_c, 3, 54, 76
9, 82380, Note_on_c, 3, 66, 76
9, 82424, Note_on_c, 3, 54, 0
9, 82424, Note_on_c, 3, 66, 0
9, 82440, Note_on_c, 3, 56, 84
9, 82619, Note_on_c, 3, 56, 0
9, 83340, Note_on_c, 3, 57, 52
9, 83340, Note_on_c, 3, 61, 52
9, 83399, Note_on_c, 3, 57, 0
9, 83399, Note_on_c, 3, 61, 0
9, 83400, Note_on_c, 3, 62, 52
9, 83400, Note_on_c, 3, 59, 52
9, 83459, Note_on_c, 3, 62, 0
9, 83459, Note_on_c, 3, 59, 0
9, 83460, Note_on_c, 3, 61, 52
9, 83460, Note_on_c, 3, 64, 52
9, 83519, Note_on_c, 3, 61, 0
9, 83519, Note_on_c, 3, 64, 0
9, 83520, Note_on_c, 3, 62, 52
9, 83520, Note_on_c, 3, 66, 52
9, 83564, Note_on_c, 3, 62, 0
9, 83564, Note_on_c, 3, 66, 0
9, 83820, Note_on_c, 3, 57, 52
9, 83820, Note_on_c, 3, 61, 52
9, 83879, Note_on_c, 3, 57, 0
9, 83879, Note_on_c, 3, 61, 0
9, 83880, Note_on_c, 3, 59, 52
9, 83880, Note_on_c, 3, 62, 52
9, 83939, Note_on_c, 3, 59, 0
9, 83939, Note_on_c, 3, 62, 0
9, 83940, Note_on_c, 3, 64, 52
9, 83940, Note_on_c, 3, 61, 52
9, 83999, Note_on_c, 3, 64, 0
9, 83999, Note_on_c, 3, 61, 0
9, 84000, Note_on_c, 3, 66, 52
9, 84000, Note_on_c, 3, 62, 52
9, 84044, Note_on_c, 3, 66, 0
9, 84044, Note_on_c, 3, 62, 0
9, 84240, Control_c, 3, 11, 80
9, 84280, Control_c, 3, 11, 84
9, 84300, Note_on_c, 3, 57, 76
9, 84300, Note_on_c, 3, 61, 76
9, 84320, Control_c, 3, 11, 88
9, 84359, Note_on_c, 3, 57, 0
9, 84359, Note_on_c, 3, 61, 0
9, 84360, Control_c, 3, 11, 92
9, 84360, Note_on_c, 3, 62, 76
9, 84360, Note_on_c, 3, 59, 76
9, 84400, Control_c, 3, 11, 96
9, 84419, Note_on_c, 3, 62, 0
9, 84419, Note_on_c, 3, 59, 0
9, 84420, Note_on_c, 3, 64, 76
9, 84420, Note_on_c, 3, 61, 76
9, 84440, Control_c, 3, 11, 100
9, 84479, Note_on_c, 3, 64, 0
9, 84479, Note_on_c, 3, 61, 0
9, 84480, Control_c, 3, 11, 104
9, 84480, Note_on_c, 3, 62, 76
9, 84480, Note_on_c, 3, 66, 76
9, 84520, Control_c, 3, 11, 107
9, 84524, Note_on_c, 3, 62, 0
9, 84524, Note_on_c, 3, 66, 0
9, 84540, Note_on_c, 3, 61, 76
9, 84540, Note_on_c, 3, 57, 76
9, 84560, Control_c, 3, 11, 111
9, 84599, Note_on_c, 3, 61, 0
9, 84599, Note_on_c, 3, 57, 0
9, 84600, Note_on_c, 3, 59, 76
9, 84600, Note_on_c, 3, 62, 76
9, 84600, Control_c, 3, 11, 115
9, 84640, Control_c, 3, 11, 119
9, 84659, Note_on_c, 3, 59, 0
9, 84659, Note_on_c, 3, 62, 0
9, 84660, Note_on_c, 3, 64, 76
9, 84660, Note_on_c, 3, 61, 76
9, 84680, Control_c, 3, 11, 123
9, 84719, Note_on_c, 3, 64, 0
9, 84719, Note_on_c, 3, 61, 0
9, 84720, Control_c, 3, 11, 127
9, 84720, Note_on_c, 3, 62, 76
9, 84720, Note_on_c, 3, 66, 76
9, 84764, Note_on_c, 3, 62, 0
9, 84764, Note_on_c, 3, 66, 0
9, 84780, Note_on_c, 3, 57, 76
9, 84780, Note_on_c, 3, 61, 76
9, 84839, Note_on_c, 3, 57, 0
9, 84839, Note_on_c, 3, 61, 0
9, 84840, Note_on_c, 3, 62, 76
9, 84840, Note_on_c, 3, 59, 76
9, 84899, Note_on_c, 3, 62, 0
9, 84899, Note_on_c, 3, 59, 0
9, 84900, Note_on_c, 3, 64, 76
9, 84900, Note_on_c, 3, 61, 76
9, 84955, Note_on_c, 3, 64, 0
9, 84955, Note_on_c, 3, 61, 0
9, 84960, Note_on_c, 3, 62, 84
9, 84960, Note_on_c, 3, 66, 84
9, 85311, Note_on_c, 3, 62, 0
9, 85311, Note_on_c, 3, 66, 0
9, 85320, Note_on_c, 3, 59, 84
9, 85320, Note_on_c, 3, 62, 84
9, 85671, Note_on_c, 3, 59, 0
9, 85671, Note_on_c, 3, 62, 0
9, 85680, Note_on_c, 3, 62, 76
9, 85680, Note_on_c, 3, 59, 76
9, 85746, Note_on_c, 3, 62, 0
9, 85746, Note_on_c, 3, 59, 0
9, 85770, Note_on_c, 3, 62, 76
9, 85770, Note_on_c, 3, 59, 76
9, 85791, Note_on_c, 3, 62, 0
9, 85791, Note_on_c, 3, 59, 0
9, 85800, Note_on_c, 3, 59, 76
9, 85800, Note_on_c, 3, 62, 76
9, 85889, Note_on_c, 3, 59, 0
9, 85889, Note_on_c, 3, 62, 0
9, 86040, Note_on_c, 3, 57, 76
9, 86040, Note_on_c, 3, 61, 76
9, 86106, Note_on_c, 3, 57, 0
9, 86106, Note_on_c, 3, 61, 0
9, 86130, Note_on_c, 3, 61, 76
9, 86130, Note_on_c, 3, 57, 76
9, 86151, Note_on_c, 3, 61, 0
9, 86151, Note_on_c, 3, 57, 0
9, 86160, Note_on_c, 3, 57, 76
9, 86160, Note_on_c, 3, 61, 76
9, 86249, Note_on_c, 3, 57, 0
9, 86249, Note_on_c, 3, 61, 0
9, 86460, Note_on_c, 3, 66, 52
9, 86460, Note_on_c, 3, 62, 52
9, 86519, Note_on_c, 3, 66, 0
9, 86519, Note_on_c, 3, 62, 0
9, 86580, Note_on_c, 3, 61, 52
9, 86580, Note_on_c, 3, 64, 52
9, 86639, Note_on_c, 3, 61, 0
9, 86639, Note_on_c, 3, 64, 0
9, 86700, Note_on_c, 3, 62, 52
9, 86700, Note_on_c, 3, 64, 52
9, 86755, Note_on_c, 3, 62, 0
9, 86755, Note_on_c, 3, 64, 0
9, 86760, Note_on_c, 3, 61, 52
9, 86760, Note_on_c, 3, 64, 52
9, 86879, Note_on_c, 3, 61, 0
9, 86879, Note_on_c, 3, 64, 0
9, 87240, Note_on_c, 3, 59, 44
9, 87240, Note_on_c, 3, 56, 44
9, 87306, Note_on_c, 3, 59, 0
9, 87306, Note_on_c, 3, 56, 0
9, 87330, Note_on_c, 3, 56, 44
9, 87330, Note_on_c, 3, 59, 44
9, 87351, Note_on_c, 3, 56, 0
9, 87351, Note_on_c, 3, 59, 0
9, 87360, Note_on_c, 3, 56, 44
9, 87360, Note_on_c, 3, 59, 44
9, 87449, Note_on_c, 3, 56, 0
9, 87449, Note_on_c, 3, 59, 0
9, 87600, Note_on_c, 3, 57, 44
9, 87600, Note_on_c, 3, 61, 44
9, 87666, Note_on_c, 3, 57, 0
9, 87666, Note_on_c, 3, 61, 0
9, 87690, Note_on_c, 3, 57, 44
9, 87690, Note_on_c, 3, 61, 44
9, 87711, Note_on_c, 3, 57, 0
9, 87711, Note_on_c, 3, 61, 0
9, 87720, Note_on_c, 3, 57, 44
9, 87720, Note_on_c, 3, 61, 44
9, 87809, Note_on_c, 3, 57, 0
9, 87809, Note_on_c, 3, 61, 0
9, 87900, Note_on_c, 3, 66, 44
9, 87900, Note_on_c, 3, 62, 44
9, 87959, Note_on_c, 3, 66, 0
9, 87959, Note_on_c, 3, 62, 0
9, 88020, Note_on_c, 3, 61, 44
9, 88020, Note_on_c, 3, 64, 44
9, 88079, Note_on_c, 3, 61, 0
9, 88079, Note_on_c, 3, 64, 0
9, 88140, Note_on_c, 3, 62, 44
9, 88140, Note_on_c, 3, 59, 44
9, 88195, Note_on_c, 3, 62, 0
9, 88195, Note_on_c, 3, 59, 0
9, 88200, Note_on_c, 3, 57, 44
9, 88200, Note_on_c, 3, 61, 44
9, 88319, Note_on_c, 3, 57, 0
9, 88319, Note_on_c, 3, 61, 0
9, 89100, Note_on_c, 3, 62, 52
9, 89159, Note_on_c, 3, 62, 0
9, 89160, Note_on_c, 3, 64, 52
9, 89189, Note_on_c, 3, 64, 0
9, 89190, Note_on_c, 3, 62, 52
9, 89219, Note_on_c, 3, 62, 0
9, 89220, Note_on_c, 3, 61, 52
9, 89249, Note_on_c, 3, 61, 0
9, 89250, Note_on_c, 3, 62, 52
9, 89275, Note_on_c, 3, 62, 0
9, 89280, Note_on_c, 3, 59, 52
9, 89324, Note_on_c, 3, 59, 0
9, 89340, Note_on_c, 3, 62, 52
9, 89384, Note_on_c, 3, 62, 0
9, 89400, Note_on_c, 3, 56, 52
9, 89444, Note_on_c, 3, 56, 0
9, 89460, Note_on_c, 3, 59, 52
9, 89504, Note_on_c, 3, 59, 0
9, 89520, Note_on_c, 3, 52, 52
9, 89564, Note_on_c, 3, 52, 0
9, 89580, Note_on_c, 3, 64, 52
9, 89624, Note_on_c, 3, 64, 0
9, 89640, Note_on_c, 3, 61, 52
9, 89759, Note_on_c, 3, 61, 0
9, 90060, Note_on_c, 3, 45, 52
9, 90104, Note_on_c, 3, 45, 0
9, 90120, Note_on_c, 3, 49, 52
9, 90164, Note_on_c, 3, 49, 0
9, 90180, Note_on_c, 3, 52, 52
9, 90224, Note_on_c, 3, 52, 0
9, 90240, Note_on_c, 3, 57, 52
9, 90411, Note_on_c, 3, 57, 0
9, 90420, Note_on_c, 3, 54, 52
9, 90464, Note_on_c, 3, 54, 0
9, 90480, Note_on_c, 3, 59, 52
9, 90524, Note_on_c, 3, 59, 0
9, 90540, Note_on_c, 3, 62, 52
9, 90584, Note_on_c, 3, 62, 0
9, 90600, Note_on_c, 3, 66, 52
9, 90779, Note_on_c, 3, 66, 0
9, 90840, Note_on_c, 3, 64, 52
9, 90959, Note_on_c, 3, 64, 0
9, 90960, Note_on_c, 3, 62, 52
9, 91071, Note_on_c, 3, 62, 0
9, 91080, Note_on_c, 3, 61, 52
9, 91199, Note_on_c, 3, 61, 0
9, 91620, Note_on_c, 3, 52, 52
9, 91679, Note_on_c, 3, 52, 0
9, 91680, Note_on_c, 3, 64, 52
9, 91739, Note_on_c, 3, 64, 0
9, 91740, Note_on_c, 3, 62, 52
9, 91795, Note_on_c, 3, 62, 0
9, 91800, Note_on_c, 3, 61, 52
9, 91919, Note_on_c, 3, 61, 0
9, 92280, Control_c, 3, 11, 80
9, 92300, Control_c, 3, 11, 84
9, 92320, Control_c, 3, 11, 88
9, 92340, Note_on_c, 3, 52, 76
9, 92340, Control_c, 3, 11, 92
9, 92360, Control_c, 3, 11, 96
9, 92380, Control_c, 3, 11, 100
9, 92399, Note_on_c, 3, 52, 0
9, 92400, Control_c, 3, 11, 104
9, 92400, Note_on_c, 3, 59, 76
9, 92400, Note_on_c, 3, 64, 76
9, 92420, Control_c, 3, 11, 107
9, 92440, Control_c, 3, 11, 111
9, 92455, Note_on_c, 3, 59, 0
9, 92459, Note_on_c, 3, 64, 0
9, 92460, Control_c, 3, 11, 115
9, 92460, Note_on_c, 3, 59, 76
9, 92460, Note_on_c, 3, 62, 76
9, 92480, Control_c, 3, 11, 119
9, 92500, Control_c, 3, 11, 123
9, 92515, Note_on_c, 3, 59, 0
9, 92515, Note_on_c, 3, 62, 0
9, 92520, Control_c, 3, 11, 127
9, 92520, Note_on_c, 3, 57, 76
9, 92520, Note_on_c, 3, 61, 76
9, 92564, Note_on_c, 3, 57, 0
9, 92564, Note_on_c, 3, 61, 0
9, 92580, Note_on_c, 3, 62, 84
9, 92580, Note_on_c, 3, 59, 84
9, 92691, Note_on_c, 3, 62, 0
9, 92691, Note_on_c, 3, 59, 0
9, 92700, Note_on_c, 3, 59, 76
9, 92700, Note_on_c, 3, 56, 76
9, 92744, Note_on_c, 3, 59, 0
9, 92744, Note_on_c, 3, 56, 0
9, 92760, Note_on_c, 3, 56, 76
9, 92760, Note_on_c, 3, 59, 76
9, 92804, Note_on_c, 3, 56, 0
9, 92804, Note_on_c, 3, 59, 0
9, 92820, Note_on_c, 3, 56, 76
9, 92820, Note_on_c, 3, 59, 76
9, 92864, Note_on_c, 3, 56, 0
9, 92864, Note_on_c, 3, 59, 0
9, 92880, Note_on_c, 3, 61, 76
9, 92880, Note_on_c, 3, 57, 76
9, 92924, Note_on_c, 3, 61, 0
9, 92924, Note_on_c, 3, 57, 0
9, 92940, Note_on_c, 3, 62, 84
9, 92940, Note_on_c, 3, 59, 84
9, 93051, Note_on_c, 3, 62, 0
9, 93051, Note_on_c, 3, 59, 0
9, 93060, Note_on_c, 3, 59, 76
9, 93060, Note_on_c, 3, 56, 76
9, 93104, Note_on_c, 3, 59, 0
9, 93104, Note_on_c, 3, 56, 0
9, 93120, Note_on_c, 3, 59, 76
9, 93120, Note_on_c, 3, 56, 76
9, 93164, Note_on_c, 3, 59, 0
9, 93164, Note_on_c, 3, 56, 0
9, 93180, Note_on_c, 3, 59, 76
9, 93180, Note_on_c, 3, 56, 76
9, 93224, Note_on_c, 3, 59, 0
9, 93224, Note_on_c, 3, 56, 0
9, 93240, Note_on_c, 3, 62, 76
9, 93240, Note_on_c, 3, 59, 76
9, 93329, Note_on_c, 3, 62, 0
9, 93329, Note_on_c, 3, 59, 0
9, 93360, Note_on_c, 3, 62, 76
9, 93360, Note_on_c, 3, 59, 76
9, 93449, Note_on_c, 3, 62, 0
9, 93449, Note_on_c, 3, 59, 0
9, 94680, Note_on_c, 3, 52, 52
9, 94680, Note_on_c, 3, 49, 52
9, 94799, Note_on_c, 3, 52, 0
9, 94799, Note_on_c, 3, 49, 0
9, 94800, Note_on_c, 3, 57, 52
9, 94800, Note_on_c, 3, 52, 52
9, 94919, Note_on_c, 3, 57, 0
9, 94919, Note_on_c, 3, 52, 0
9, 94920, Note_on_c, 3, 59, 52
9, 94920, Note_on_c, 3, 56, 52
9, 95031, Note_on_c, 3, 59, 0
9, 95031, Note_on_c, 3, 56, 0
9, 95040, Note_on_c, 3, 61, 52
9, 95040, Note_on_c, 3, 57, 52
9, 95129, Note_on_c, 3, 61, 0
9, 95129, Note_on_c, 3, 57, 0
9, 95400, Note_on_c, 3, 61, 52
9, 95400, Note_on_c, 3, 57, 52
9, 95519, Note_on_c, 3, 61, 0
9, 95519, Note_on_c, 3, 57, 0
9, 95520, Note_on_c, 3, 62, 52
9, 95520, Note_on_c, 3, 59, 52
9, 95639, Note_on_c, 3, 62, 0
9, 95639, Note_on_c, 3, 59, 0
9, 95640, Note_on_c, 3, 61, 52
9, 95640, Note_on_c, 3, 57, 52
9, 95751, Note_on_c, 3, 61, 0
9, 95751, Note_on_c, 3, 57, 0
9, 95760, Note_on_c, 3, 59, 52
9, 95760, Note_on_c, 3, 56, 52
9, 95849, Note_on_c, 3, 59, 0
9, 95849, Note_on_c, 3, 56, 0
9, 96000, Control_c, 3, 11, 96
9, 96120, Note_on_c, 3, 61, 68
9, 96120, Note_on_c, 3, 57, 68
9, 96120, Control_c, 3, 11, 96
9, 96150, Control_c, 3, 11, 99
9, 96180, Control_c, 3, 11, 101
9, 96210, Control_c, 3, 11, 104
9, 96239, Note_on_c, 3, 61, 0
9, 96239, Note_on_c, 3, 57, 0
9, 96240, Note_on_c, 3, 62, 68
9, 96240, Control_c, 3, 11, 106
9, 96240, Note_on_c, 3, 59, 68
9, 96270, Control_c, 3, 11, 109
9, 96300, Control_c, 3, 11, 112
9, 96330, Control_c, 3, 11, 114
9, 96359, Note_on_c, 3, 62, 0
9, 96359, Note_on_c, 3, 59, 0
9, 96360, Control_c, 3, 11, 117
9, 96360, Note_on_c, 3, 64, 68
9, 96360, Note_on_c, 3, 61, 68
9, 96390, Control_c, 3, 11, 119
9, 96420, Control_c, 3, 11, 122
9, 96450, Control_c, 3, 11, 124
9, 96471, Note_on_c, 3, 64, 0
9, 96471, Note_on_c, 3, 61, 0
9, 96480, Control_c, 3, 11, 127
9, 96480, Note_on_c, 3, 62, 52
9, 96480, Note_on_c, 3, 66, 52
9, 96569, Note_on_c, 3, 62, 0
9, 96569, Note_on_c, 3, 66, 0
9, 96840, Note_on_c, 3, 56, 52
9, 96840, Note_on_c, 3, 59, 52
9, 96929, Note_on_c, 3, 56, 0
9, 96929, Note_on_c, 3, 59, 0
9, 97200, Note_on_c, 3, 57, 52
9, 97200, Note_on_c, 3, 61, 52
9, 97289, Note_on_c, 3, 57, 0
9, 97289, Note_on_c, 3, 61, 0
9, 97560, Note_on_c, 3, 61, 84
9, 97560, Note_on_c, 3, 57, 84
9, 97679, Note_on_c, 3, 61, 0
9, 97679, Note_on_c, 3, 57, 0
9, 97680, Note_on_c, 3, 59, 84
9, 97680, Note_on_c, 3, 62, 84
9, 97799, Note_on_c, 3, 59, 0
9, 97799, Note_on_c, 3, 62, 0
9, 97800, Note_on_c, 3, 64, 84
9, 97800, Note_on_c, 3, 61, 84
9, 97911, Note_on_c, 3, 64, 0
9, 97911, Note_on_c, 3, 61, 0
9, 97920, Note_on_c, 3, 66, 84
9, 97920, Note_on_c, 3, 62, 84
9, 98009, Note_on_c, 3, 66, 0
9, 98009, Note_on_c, 3, 62, 0
9, 98040, Note_on_c, 3, 62, 92
9, 98040, Note_on_c, 3, 50, 92
9, 98129, Note_on_c, 3, 62, 0
9, 98129, Note_on_c, 3, 50, 0
9, 98400, Note_on_c, 3, 64, 92
9, 98400, Note_on_c, 3, 52, 92
9, 98489, Note_on_c, 3, 64, 0
9, 98489, Note_on_c, 3, 52, 0
9, 98640, Note_on_c, 3, 57, 84
9, 98640, Note_on_c, 3, 61, 84
9, 98729, Note_on_c, 3, 57, 0
9, 98729, Note_on_c, 3, 61, 0
9, 98880, Note_on_c, 3, 61, 52
9, 98880, Note_on_c, 3, 64, 52
9, 98969, Note_on_c, 3, 61, 0
9, 98969, Note_on_c, 3, 64, 0
9, 99000, Note_on_c, 3, 57, 52
9, 99000, Note_on_c, 3, 61, 52
9, 99089, Note_on_c, 3, 57, 0
9, 99089, Note_on_c, 3, 61, 0
9, 99089, End_track
10, 0, Start_track
10, 0, Title_t, "French Horn in E"
10, 0, MIDI_port, 0
10, 0, Program_c, 4, 60
10, 0, Control_c, 4, 7, 96
10, 0, Control_c, 4, 10, 45
10, 0, Control_c, 4, 11, 96
10, 2880, Note_on_c, 4, 64, 68
10, 2880, Note_on_c, 4, 52, 68
10, 2984, Note_on_c, 4, 64, 0
10, 2984, Note_on_c, 4, 52, 0
10, 3000, Note_on_c, 4, 64, 68
10, 3000, Note_on_c, 4, 52, 68
10, 3104, Note_on_c, 4, 64, 0
10, 3104, Note_on_c, 4, 52, 0
10, 3120, Note_on_c, 4, 52, 68
10, 3120, Note_on_c, 4, 64, 68
10, 3224, Note_on_c, 4, 52, 0
10, 3224, Note_on_c, 4, 64, 0
10, 3240, Note_on_c, 4, 52, 68
10, 3240, Note_on_c, 4, 64, 68
10, 3711, Note_on_c, 4, 52, 0
10, 3711, Note_on_c, 4, 64, 0
10, 3720, Note_on_c, 4, 52, 68
10, 3720, Note_on_c, 4, 64, 68
10, 3824, Note_on_c, 4, 52, 0
10, 3824, Note_on_c, 4, 64, 0
10, 3840, Note_on_c, 4, 64, 68
10, 3840, Note_on_c, 4, 52, 68
10, 3944, Note_on_c, 4, 64, 0
10, 3944, Note_on_c, 4, 52, 0
10, 3960, Note_on_c, 4, 64, 68
10, 3960, Note_on_c, 4, 52, 68
10, 4191, Note_on_c, 4, 64, 0
10, 4191, Note_on_c, 4, 52, 0
10, 4200, Note_on_c, 4, 64, 68
10, 4200, Note_on_c, 4, 52, 68
10, 4320, Control_c, 4, 11, 96
10, 4380, Control_c, 4, 11, 99
10, 4431, Note_on_c, 4, 64, 0
10, 4431, Note_on_c, 4, 52, 0
10, 4440, Note_on_c, 4, 64, 68
10, 4440, Note_on_c, 4, 52, 68
10, 4440, Control_c, 4, 11, 101
10, 4500, Control_c, 4, 11, 104
10, 4544, Note_on_c, 4, 64, 0
10, 4544, Note_on_c, 4, 52, 0
10, 4560, Note_on_c, 4, 64, 68
10, 4560, Note_on_c, 4, 52, 68
10, 4560, Control_c, 4, 11, 106
10, 4620, Control_c, 4, 11, 109
10, 4664, Note_on_c, 4, 64, 0
10, 4664, Note_on_c, 4, 52, 0
10, 4680, Note_on_c, 4, 52, 68
10, 4680, Note_on_c, 4, 64, 68
10, 4680, Control_c, 4, 11, 112
10, 4740, Control_c, 4, 11, 114
10, 4800, Control_c, 4, 11, 117
10, 4860, Control_c, 4, 11, 119
10, 4911, Note_on_c, 4, 52, 0
10, 4911, Note_on_c, 4, 64, 0
10, 4920, Control_c, 4, 11, 122
10, 4920, Note_on_c, 4, 52, 68
10, 4920, Note_on_c, 4, 64, 68
10, 4980, Control_c, 4, 11, 124
10, 5031, Note_on_c, 4, 52, 0
10, 5031, Note_on_c, 4, 64, 0
10, 5040, Control_c, 4, 11, 127
10, 5040, Note_on_c, 4, 68, 52
10, 5040, Note_on_c, 4, 64, 52
10, 5279, Note_on_c, 4, 68, 0
10, 5279, Note_on_c, 4, 64, 0
10, 5280, Note_on_c, 4, 66, 52
10, 5280, Note_on_c, 4, 69, 52
10, 5369, Note_on_c, 4, 66, 0
10, 5369, Note_on_c, 4, 69, 0
10, 5370, Note_on_c, 4, 59, 52
10, 5370, Note_on_c, 4, 66, 52
10, 5395, Note_on_c, 4, 59, 0
10, 5395, Note_on_c, 4, 66, 0
10, 5400, Note_on_c, 4, 56, 52
10, 5400, Note_on_c, 4, 64, 52
10, 5519, Note_on_c, 4, 56, 0
10, 5519, Note_on_c, 4, 64, 0
10, 8640, Note_on_c, 4, 64, 52
10, 8640, Note_on_c, 4, 52, 52
10, 8744, Note_on_c, 4, 64, 0
10, 8744, Note_on_c, 4, 52, 0
10, 8760, Note_on_c, 4, 64, 52
10, 8760, Note_on_c, 4, 52, 52
10, 8864, Note_on_c, 4, 64, 0
10, 8864, Note_on_c, 4, 52, 0
10, 8880, Note_on_c, 4, 52, 52
10, 8880, Note_on_c, 4, 64, 52
10, 8984, Note_on_c, 4, 52, 0
10, 8984, Note_on_c, 4, 64, 0
10, 9000, Note_on_c, 4, 52, 52
10, 9000, Note_on_c, 4, 64, 52
10, 9239, Note_on_c, 4, 52, 0
10, 9239, Note_on_c, 4, 64, 0
10, 9360, Note_on_c, 4, 64, 52
10, 9360, Note_on_c, 4, 52, 52
10, 9464, Note_on_c, 4, 64, 0
10, 9464, Note_on_c, 4, 52, 0
10, 9480, Note_on_c, 4, 52, 52
10, 9480, Note_on_c, 4, 64, 52
10, 9584, Note_on_c, 4, 52, 0
10, 9584, Note_on_c, 4, 64, 0
10, 9600, Note_on_c, 4, 64, 52
10, 9600, Note_on_c, 4, 52, 52
10, 9704, Note_on_c, 4, 64, 0
10, 9704, Note_on_c, 4, 52, 0
10, 9720, Note_on_c, 4, 52, 52
10, 9720, Note_on_c, 4, 64, 52
10, 9959, Note_on_c, 4, 52, 0
10, 9959, Note_on_c, 4, 64, 0
10, 10440, Note_on_c, 4, 64, 76
10, 10440, Note_on_c, 4, 52, 76
10, 10440, Control_c, 4, 11, 127
10, 10470, Control_c, 4, 11, 124
10, 10500, Control_c, 4, 11, 122
10, 10530, Control_c, 4, 11, 119
10, 10560, Control_c, 4, 11, 117
10, 10590, Control_c, 4, 11, 114
10, 10620, Control_c, 4, 11, 112
10, 10650, Control_c, 4, 11, 109
10, 10671, Note_on_c, 4, 64, 0
10, 10671, Note_on_c, 4, 52, 0
10, 10680, Note_on_c, 4, 52, 68
10, 10680, Control_c, 4, 11, 106
10, 10680, Note_on_c, 4, 64, 68
10, 10710, Control_c, 4, 11, 104
10, 10740, Control_c, 4, 11, 101
10, 10770, Control_c, 4, 11, 99
10, 10799, Note_on_c, 4, 52, 0
10, 10799, Note_on_c, 4, 64, 0
10, 10920, Control_c, 4, 11, 127
10, 11040, Note_on_c, 4, 64, 52
10, 11040, Note_on_c, 4, 52, 52
10, 11151, Note_on_c, 4, 64, 0
10, 11151, Note_on_c, 4, 52, 0
10, 11160, Note_on_c, 4, 52, 52
10, 11160, Note_on_c, 4, 64, 52
10, 11399, Note_on_c, 4, 52, 0
10, 11399, Note_on_c, 4, 64, 0
10, 11520, Note_on_c, 4, 64, 52
10, 11520, Note_on_c, 4, 52, 52
10, 12599, Note_on_c, 4, 64, 0
10, 12599, Note_on_c, 4, 52, 0
10, 12600, Note_on_c, 4, 64, 52
10, 12600, Note_on_c, 4, 52, 52
10, 14024, Note_on_c, 4, 64, 0
10, 14024, Note_on_c, 4, 52, 0
10, 14040, Note_on_c, 4, 64, 52
10, 14040, Note_on_c, 4, 52, 52
10, 14335, Note_on_c, 4, 64, 0
10, 14335, Note_on_c, 4, 52, 0
10, 14340, Note_on_c, 4, 69, 84
10, 14384, Note_on_c, 4, 69, 0
10, 14400, Note_on_c, 4, 69, 92
10, 14575, Note_on_c, 4, 69, 0
10, 14580, Note_on_c, 4, 69, 84
10, 14624, Note_on_c, 4, 69, 0
10, 14640, Note_on_c, 4, 69, 84
10, 14684, Note_on_c, 4, 69, 0
10, 14700, Note_on_c, 4, 69, 84
10, 14744, Note_on_c, 4, 69, 0
10, 14760, Note_on_c, 4, 69, 84
10, 14849, Note_on_c, 4, 69, 0
10, 14880, Note_on_c, 4, 69, 84
10, 14969, Note_on_c, 4, 69, 0
10, 15840, Note_on_c, 4, 64, 44
10, 15929, Note_on_c, 4, 64, 0
10, 15960, Note_on_c, 4, 64, 44
10, 16049, Note_on_c, 4, 64, 0
10, 16200, Note_on_c, 4, 52, 84
10, 16200, Note_on_c, 4, 64, 84
10, 16289, Note_on_c, 4, 52, 0
10, 16289, Note_on_c, 4, 64, 0
10, 16320, Note_on_c, 4, 64, 84
10, 16320, Note_on_c, 4, 52, 84
10, 16409, Note_on_c, 4, 64, 0
10, 16409, Note_on_c, 4, 52, 0
10, 16440, Note_on_c, 4, 52, 84
10, 16440, Note_on_c, 4, 64, 84
10, 16529, Note_on_c, 4, 52, 0
10, 16529, Note_on_c, 4, 64, 0
10, 16560, Note_on_c, 4, 47, 84
10, 16560, Note_on_c, 4, 59, 84
10, 16649, Note_on_c, 4, 47, 0
10, 16649, Note_on_c, 4, 59, 0
10, 18000, Control_c, 4, 11, 96
10, 18030, Control_c, 4, 11, 99
10, 18060, Note_on_c, 4, 59, 68
10, 18060, Note_on_c, 4, 71, 68
10, 18060, Control_c, 4, 11, 101
10, 18090, Control_c, 4, 11, 104
10, 18104, Note_on_c, 4, 59, 0
10, 18104, Note_on_c, 4, 71, 0
10, 18120, Control_c, 4, 11, 106
10, 18120, Note_on_c, 4, 56, 68
10, 18120, Note_on_c, 4, 68, 68
10, 18150, Control_c, 4, 11, 109
10, 18164, Note_on_c, 4, 56, 0
10, 18164, Note_on_c, 4, 68, 0
10, 18180, Note_on_c, 4, 59, 68
10, 18180, Control_c, 4, 11, 112
10, 18180, Note_on_c, 4, 71, 68
10, 18210, Control_c, 4, 11, 114
10, 18224, Note_on_c, 4, 59, 0
10, 18224, Note_on_c, 4, 71, 0
10, 18240, Note_on_c, 4, 68, 68
10, 18240, Note_on_c, 4, 56, 68
10, 18240, Control_c, 4, 11, 117
10, 18270, Control_c, 4, 11, 119
10, 18284, Note_on_c, 4, 68, 0
10, 18284, Note_on_c, 4, 56, 0
10, 18300, Note_on_c, 4, 52, 68
10, 18300, Note_on_c, 4, 64, 68
10, 18300, Control_c, 4, 11, 122
10, 18330, Control_c, 4, 11, 124
10, 18344, Note_on_c, 4, 52, 0
10, 18344, Note_on_c, 4, 64, 0
10, 18360, Note_on_c, 4, 47, 52
10, 18360, Control_c, 4, 11, 127
10, 18360, Note_on_c, 4, 59, 52
10, 19431, Note_on_c, 4, 47, 0
10, 19431, Note_on_c, 4, 59, 0
10, 19440, Note_on_c, 4, 64, 52
10, 19440, Note_on_c, 4, 52, 52
10, 19559, Note_on_c, 4, 64, 0
10, 19559, Note_on_c, 4, 52, 0
10, 21600, Control_c, 4, 11, 127
10, 21600, Note_on_c, 4, 64, 84
10, 21600, Note_on_c, 4, 68, 84
10, 21630, Control_c, 4, 11, 123
10, 21660, Control_c, 4, 11, 119
10, 21690, Control_c, 4, 11, 115
10, 21720, Control_c, 4, 11, 111
10, 21750, Control_c, 4, 11, 107
10, 21780, Control_c, 4, 11, 104
10, 21810, Control_c, 4, 11, 100
10, 21839, Note_on_c, 4, 64, 0
10, 21839, Note_on_c, 4, 68, 0
10, 21840, Note_on_c, 4, 66, 76
10, 21840, Note_on_c, 4, 69, 76
10, 21840, Control_c, 4, 11, 96
10, 21870, Control_c, 4, 11, 92
10, 21900, Control_c, 4, 11, 88
10, 21929, Note_on_c, 4, 66, 0
10, 21929, Note_on_c, 4, 69, 0
10, 21930, Control_c, 4, 11, 84
10, 21930, Note_on_c, 4, 59, 76
10, 21930, Note_on_c, 4, 66, 76
10, 21955, Note_on_c, 4, 59, 0
10, 21955, Note_on_c, 4, 66, 0
10, 21960, Control_c, 4, 11, 80
10, 21960, Note_on_c, 4, 56, 76
10, 21960, Note_on_c, 4, 64, 76
10, 22079, Note_on_c, 4, 56, 0
10, 22079, Note_on_c, 4, 64, 0
10, 22200, Control_c, 4, 11, 80
10, 22260, Note_on_c, 4, 52, 76
10, 22260, Note_on_c, 4, 64, 76
10, 22280, Control_c, 4, 11, 84
10, 22304, Note_on_c, 4, 52, 0
10, 22304, Note_on_c, 4, 64, 0
10, 22320, Note_on_c, 4, 64, 76
10, 22320, Note_on_c, 4, 52, 76
10, 22360, Control_c, 4, 11, 88
10, 22364, Note_on_c, 4, 64, 0
10, 22364, Note_on_c, 4, 52, 0
10, 22380, Note_on_c, 4, 64, 76
10, 22380, Note_on_c, 4, 52, 76
10, 22424, Note_on_c, 4, 64, 0
10, 22424, Note_on_c, 4, 52, 0
10, 22440, Control_c, 4, 11, 92
10, 22440, Note_on_c, 4, 52, 76
10, 22440, Note_on_c, 4, 64, 76
10, 22520, Control_c, 4, 11, 96
10, 22600, Control_c, 4, 11, 100
10, 22615, Note_on_c, 4, 52, 0
10, 22615, Note_on_c, 4, 64, 0
10, 22620, Note_on_c, 4, 52, 76
10, 22620, Note_on_c, 4, 64, 76
10, 22664, Note_on_c, 4, 52, 0
10, 22664, Note_on_c, 4, 64, 0
10, 22680, Note_on_c, 4, 52, 76
10, 22680, Note_on_c, 4, 64, 76
10, 22680, Control_c, 4, 11, 104
10, 22724, Note_on_c, 4, 52, 0
10, 22724, Note_on_c, 4, 64, 0
10, 22740, Note_on_c, 4, 64, 76
10, 22740, Note_on_c, 4, 52, 76
10, 22760, Control_c, 4, 11, 107
10, 22784, Note_on_c, 4, 64, 0
10, 22784, Note_on_c, 4, 52, 0
10, 22800, Note_on_c, 4, 52, 76
10, 22800, Note_on_c, 4, 64, 76
10, 22840, Control_c, 4, 11, 111
10, 22920, Control_c, 4, 11, 115
10, 22975, Note_on_c, 4, 52, 0
10, 22975, Note_on_c, 4, 64, 0
10, 22980, Note_on_c, 4, 64, 76
10, 22980, Note_on_c, 4, 52, 76
10, 23000, Control_c, 4, 11, 119
10, 23024, Note_on_c, 4, 64, 0
10, 23024, Note_on_c, 4, 52, 0
10, 23040, Note_on_c, 4, 64, 76
10, 23040, Note_on_c, 4, 52, 76
10, 23080, Control_c, 4, 11, 123
10, 23084, Note_on_c, 4, 64, 0
10, 23084, Note_on_c, 4, 52, 0
10, 23100, Note_on_c, 4, 64, 76
10, 23100, Note_on_c, 4, 52, 76
10, 23144, Note_on_c, 4, 64, 0
10, 23144, Note_on_c, 4, 52, 0
10, 23160, Note_on_c, 4, 64, 76
10, 23160, Note_on_c, 4, 52, 76
10, 23160, Control_c, 4, 11, 127
10, 23335, Note_on_c, 4, 64, 0
10, 23335, Note_on_c, 4, 52, 0
10, 23340, Note_on_c, 4, 52, 76
10, 23340, Note_on_c, 4, 64, 76
10, 23384, Note_on_c, 4, 52, 0
10, 23384, Note_on_c, 4, 64, 0
10, 23400, Note_on_c, 4, 66, 84
10, 23400, Note_on_c, 4, 59, 84
10, 23579, Note_on_c, 4, 66, 0
10, 23579, Note_on_c, 4, 59, 0
10, 24300, Note_on_c, 4, 64, 52
10, 24344, Note_on_c, 4, 64, 0
10, 24360, Note_on_c, 4, 64, 52
10, 24404, Note_on_c, 4, 64, 0
10, 24420, Note_on_c, 4, 64, 52
10, 24464, Note_on_c, 4, 64, 0
10, 24480, Note_on_c, 4, 64, 52
10, 24524, Note_on_c, 4, 64, 0
10, 24780, Note_on_c, 4, 64, 52
10, 24824, Note_on_c, 4, 64, 0
10, 24840, Note_on_c, 4, 64, 52
10, 24884, Note_on_c, 4, 64, 0
10, 24900, Note_on_c, 4, 64, 52
10, 24944, Note_on_c, 4, 64, 0
10, 24960, Note_on_c, 4, 64, 52
10, 25004, Note_on_c, 4, 64, 0
10, 25200, Control_c, 4, 11, 80
10, 25245, Control_c, 4, 11, 84
10, 25260, Note_on_c, 4, 52, 76
10, 25260, Note_on_c, 4, 64, 76
10, 25290, Control_c, 4, 11, 88
10, 25304, Note_on_c, 4, 52, 0
10, 25304, Note_on_c, 4, 64, 0
10, 25320, Note_on_c, 4, 64, 76
10, 25320, Note_on_c, 4, 52, 76
10, 25335, Control_c, 4, 11, 92
10, 25364, Note_on_c, 4, 64, 0
10, 25364, Note_on_c, 4, 52, 0
10, 25380, Note_on_c, 4, 52, 76
10, 25380, Note_on_c, 4, 64, 76
10, 25380, Control_c, 4, 11, 96
10, 25424, Note_on_c, 4, 52, 0
10, 25424, Note_on_c, 4, 64, 0
10, 25425, Control_c, 4, 11, 100
10, 25440, Note_on_c, 4, 52, 76
10, 25440, Note_on_c, 4, 64, 76
10, 25470, Control_c, 4, 11, 104
10, 25484, Note_on_c, 4, 52, 0
10, 25484, Note_on_c, 4, 64, 0
10, 25500, Note_on_c, 4, 52, 76
10, 25500, Note_on_c, 4, 64, 76
10, 25515, Control_c, 4, 11, 107
10, 25544, Note_on_c, 4, 52, 0
10, 25544, Note_on_c, 4, 64, 0
10, 25560, Control_c, 4, 11, 111
10, 25560, Note_on_c, 4, 52, 76
10, 25560, Note_on_c, 4, 64, 76
10, 25604, Note_on_c, 4, 52, 0
10, 25604, Note_on_c, 4, 64, 0
10, 25605, Control_c, 4, 11, 115
10, 25620, Note_on_c, 4, 64, 76
10, 25620, Note_on_c, 4, 52, 76
10, 25650, Control_c, 4, 11, 119
10, 25664, Note_on_c, 4, 64, 0
10, 25664, Note_on_c, 4, 52, 0
10, 25680, Note_on_c, 4, 52, 76
10, 25680, Note_on_c, 4, 64, 76
10, 25695, Control_c, 4, 11, 123
10, 25724, Note_on_c, 4, 52, 0
10, 25724, Note_on_c, 4, 64, 0
10, 25740, Note_on_c, 4, 64, 76
10, 25740, Control_c, 4, 11, 127
10, 25740, Note_on_c, 4, 52, 76
10, 25784, Note_on_c, 4, 64, 0
10, 25784, Note_on_c, 4, 52, 0
10, 25800, Note_on_c, 4, 64, 76
10, 25800, Note_on_c, 4, 52, 76
10, 25844, Note_on_c, 4, 64, 0
10, 25844, Note_on_c, 4, 52, 0
10, 25860, Note_on_c, 4, 64, 76
10, 25860, Note_on_c, 4, 52, 76
10, 25904, Note_on_c, 4, 64, 0
10, 25904, Note_on_c, 4, 52, 0
10, 25920, Note_on_c, 4, 69, 84
10, 26271, Note_on_c, 4, 69, 0
10, 26280, Note_on_c, 4, 69, 84
10, 26280, Note_on_c, 4, 66, 84
10, 26631, Note_on_c, 4, 69, 0
10, 26631, Note_on_c, 4, 66, 0
10, 26640, Note_on_c, 4, 69, 76
10, 26640, Note_on_c, 4, 66, 76
10, 26706, Note_on_c, 4, 69, 0
10, 26706, Note_on_c, 4, 66, 0
10, 26730, Note_on_c, 4, 69, 76
10, 26730, Note_on_c, 4, 66, 76
10, 26751, Note_on_c, 4, 69, 0
10, 26751, Note_on_c, 4, 66, 0
10, 26760, Note_on_c, 4, 66, 76
10, 26760, Note_on_c, 4, 69, 76
10, 26849, Note_on_c, 4, 66, 0
10, 26849, Note_on_c, 4, 69, 0
10, 27000, Note_on_c, 4, 64, 76
10, 27000, Note_on_c, 4, 68, 76
10, 27066, Note_on_c, 4, 64, 0
10, 27066, Note_on_c, 4, 68, 0
10, 27090, Note_on_c, 4, 64, 76
10, 27090, Note_on_c, 4, 68, 76
10, 27111, Note_on_c, 4, 64, 0
10, 27111, Note_on_c, 4, 68, 0
10, 27120, Note_on_c, 4, 64, 76
10, 27120, Note_on_c, 4, 68, 76
10, 27209, Note_on_c, 4, 64, 0
10, 27209, Note_on_c, 4, 68, 0
10, 28080, Note_on_c, 4, 59, 44
10, 28146, Note_on_c, 4, 59, 0
10, 28170, Note_on_c, 4, 59, 44
10, 28191, Note_on_c, 4, 59, 0
10, 28200, Note_on_c, 4, 59, 44
10, 28289, Note_on_c, 4, 59, 0
10, 28440, Note_on_c, 4, 59, 44
10, 28506, Note_on_c, 4, 59, 0
10, 28530, Note_on_c, 4, 59, 44
10, 28551, Note_on_c, 4, 59, 0
10, 28560, Note_on_c, 4, 59, 44
10, 28649, Note_on_c, 4, 59, 0
10, 28860, Note_on_c, 4, 69, 44
10, 28860, Note_on_c, 4, 66, 44
10, 28919, Note_on_c, 4, 69, 0
10, 28919, Note_on_c, 4, 66, 0
10, 28980, Note_on_c, 4, 64, 44
10, 28980, Note_on_c, 4, 68, 44
10, 29039, Note_on_c, 4, 64, 0
10, 29039, Note_on_c, 4, 68, 0
10, 29100, Note_on_c, 4, 59, 44
10, 29100, Note_on_c, 4, 66, 44
10, 29155, Note_on_c, 4, 59, 0
10, 29155, Note_on_c, 4, 66, 0
10, 29160, Note_on_c, 4, 56, 44
10, 29160, Note_on_c, 4, 64, 44
10, 29279, Note_on_c, 4, 56, 0
10, 29279, Note_on_c, 4, 64, 0
10, 30240, Note_on_c, 4, 66, 52
10, 30240, Note_on_c, 4, 59, 52
10, 30599, Note_on_c, 4, 66, 0
10, 30599, Note_on_c, 4, 59, 0
10, 30600, Note_on_c, 4, 68, 52
10, 30600, Note_on_c, 4, 64, 52
10, 30719, Note_on_c, 4, 68, 0
10, 30719, Note_on_c, 4, 64, 0
10, 30780, Note_on_c, 4, 64, 52
10, 30824, Note_on_c, 4, 64, 0
10, 30840, Note_on_c, 4, 71, 52
10, 30840, Note_on_c, 4, 59, 52
10, 30884, Note_on_c, 4, 71, 0
10, 30884, Note_on_c, 4, 59, 0
10, 30900, Note_on_c, 4, 68, 52
10, 30900, Note_on_c, 4, 56, 52
10, 30944, Note_on_c, 4, 68, 0
10, 30944, Note_on_c, 4, 56, 0
10, 30960, Note_on_c, 4, 64, 52
10, 30960, Note_on_c, 4, 52, 52
10, 31079, Note_on_c, 4, 64, 0
10, 31079, Note_on_c, 4, 52, 0
10, 31920, Note_on_c, 4, 71, 52
10, 31920, Note_on_c, 4, 59, 52
10, 31975, Note_on_c, 4, 71, 0
10, 31975, Note_on_c, 4, 59, 0
10, 31980, Note_on_c, 4, 59, 52
10, 31980, Note_on_c, 4, 71, 52
10, 32035, Note_on_c, 4, 59, 0
10, 32035, Note_on_c, 4, 71, 0
10, 32040, Note_on_c, 4, 71, 52
10, 32040, Note_on_c, 4, 59, 52
10, 32099, Note_on_c, 4, 71, 0
10, 32099, Note_on_c, 4, 59, 0
10, 32100, Note_on_c, 4, 76, 52
10, 32100, Note_on_c, 4, 64, 52
10, 32155, Note_on_c, 4, 76, 0
10, 32155, Note_on_c, 4, 64, 0
10, 32160, Note_on_c, 4, 56, 52
10, 32160, Note_on_c, 4, 68, 52
10, 32219, Note_on_c, 4, 56, 0
10, 32219, Note_on_c, 4, 68, 0
10, 32220, Note_on_c, 4, 71, 52
10, 32220, Note_on_c, 4, 59, 52
10, 32275, Note_on_c, 4, 71, 0
10, 32275, Note_on_c, 4, 59, 0
10, 32280, Note_on_c, 4, 64, 52
10, 32280, Note_on_c, 4, 52, 52
10, 32339, Note_on_c, 4, 64, 0
10, 32339, Note_on_c, 4, 52, 0
10, 32340, Note_on_c, 4, 68, 52
10, 32340, Note_on_c, 4, 56, 52
10, 32395, Note_on_c, 4, 68, 0
10, 32395, Note_on_c, 4, 56, 0
10, 32400, Note_on_c, 4, 59, 52
10, 32400, Note_on_c, 4, 47, 52
10, 32519, Note_on_c, 4, 59, 0
10, 32519, Note_on_c, 4, 47, 0
10, 32640, Note_on_c, 4, 59, 52
10, 32640, Note_on_c, 4, 71, 52
10, 32695, Note_on_c, 4, 59, 0
10, 32695, Note_on_c, 4, 71, 0
10, 32700, Note_on_c, 4, 71, 52
10, 32700, Note_on_c, 4, 59, 52
10, 32755, Note_on_c, 4, 71, 0
10, 32755, Note_on_c, 4, 59, 0
10, 32760, Note_on_c, 4, 71, 52
10, 32760, Note_on_c, 4, 59, 52
10, 32799, Note_on_c, 4, 71, 0
10, 32799, Note_on_c, 4, 59, 0
10, 32800, Note_on_c, 4, 64, 52
10, 32800, Note_on_c, 4, 76, 52
10, 32835, Note_on_c, 4, 64, 0
10, 32835, Note_on_c, 4, 76, 0
10, 32840, Note_on_c, 4, 59, 52
10, 32840, Note_on_c, 4, 71, 52
10, 32869, Note_on_c, 4, 59, 0
10, 32869, Note_on_c, 4, 71, 0
10, 32880, Note_on_c, 4, 56, 52
10, 32880, Note_on_c, 4, 68, 52
10, 32919, Note_on_c, 4, 56, 0
10, 32919, Note_on_c, 4, 68, 0
10, 32920, Note_on_c, 4, 71, 52
10, 32920, Note_on_c, 4, 59, 52
10, 32955, Note_on_c, 4, 71, 0
10, 32955, Note_on_c, 4, 59, 0
10, 32960, Note_on_c, 4, 56, 52
10, 32960, Note_on_c, 4, 68, 52
10, 32989, Note_on_c, 4, 56, 0
10, 32989, Note_on_c, 4, 68, 0
10, 33000, Note_on_c, 4, 64, 52
10, 33000, Note_on_c, 4, 52, 52
10, 33039, Note_on_c, 4, 64, 0
10, 33039, Note_on_c, 4, 52, 0
10, 33040, Note_on_c, 4, 68, 52
10, 33040, Note_on_c, 4, 56, 52
10, 33075, Note_on_c, 4, 68, 0
10, 33075, Note_on_c, 4, 56, 0
10, 33080, Note_on_c, 4, 52, 52
10, 33080, Note_on_c, 4, 64, 52
10, 33109, Note_on_c, 4, 52, 0
10, 33109, Note_on_c, 4, 64, 0
10, 33120, Note_on_c, 4, 47, 52
10, 33120, Note_on_c, 4, 59, 52
10, 33239, Note_on_c, 4, 47, 0
10, 33239, Note_on_c, 4, 59, 0
10, 33240, Control_c, 4, 11, 80
10, 33260, Control_c, 4, 11, 84
10, 33280, Control_c, 4, 11, 88
10, 33300, Control_c, 4, 11, 92
10, 33320, Control_c, 4, 11, 96
10, 33340, Control_c, 4, 11, 100
10, 33360, Note_on_c, 4, 66, 76
10, 33360, Control_c, 4, 11, 104
10, 33360, Note_on_c, 4, 59, 76
10, 33380, Control_c, 4, 11, 107
10, 33400, Control_c, 4, 11, 111
10, 33404, Note_on_c, 4, 66, 0
10, 33404, Note_on_c, 4, 59, 0
10, 33420, Note_on_c, 4, 66, 76
10, 33420, Control_c, 4, 11, 115
10, 33420, Note_on_c, 4, 59, 76
10, 33440, Control_c, 4, 11, 119
10, 33460, Control_c, 4, 11, 123
10, 33464, Note_on_c, 4, 66, 0
10, 33464, Note_on_c, 4, 59, 0
10, 33480, Note_on_c, 4, 68, 76
10, 33480, Control_c, 4, 11, 127
10, 33480, Note_on_c, 4, 64, 76
10, 33524, Note_on_c, 4, 68, 0
10, 33524, Note_on_c, 4, 64, 0
10, 33540, Note_on_c, 4, 69, 84
10, 33540, Note_on_c, 4, 66, 84
10, 33651, Note_on_c, 4, 69, 0
10, 33651, Note_on_c, 4, 66, 0
10, 33660, Note_on_c, 4, 59, 76
10, 33660, Note_on_c, 4, 66, 76
10, 33704, Note_on_c, 4, 59, 0
10, 33704, Note_on_c, 4, 66, 0
10, 33720, Note_on_c, 4, 59, 76
10, 33720, Note_on_c, 4, 66, 76
10, 33764, Note_on_c, 4, 59, 0
10, 33764, Note_on_c, 4, 66, 0
10, 33780, Note_on_c, 4, 66, 76
10, 33780, Note_on_c, 4, 59, 76
10, 33824, Note_on_c, 4, 66, 0
10, 33824, Note_on_c, 4, 59, 0
10, 33840, Note_on_c, 4, 68, 76
10, 33840, Note_on_c, 4, 64, 76
10, 33884, Note_on_c, 4, 68, 0
10, 33884, Note_on_c, 4, 64, 0
10, 33900, Note_on_c, 4, 69, 84
10, 33900, Note_on_c, 4, 66, 84
10, 34011, Note_on_c, 4, 69, 0
10, 34011, Note_on_c, 4, 66, 0
10, 34020, Note_on_c, 4, 66, 76
10, 34020, Note_on_c, 4, 59, 76
10, 34064, Note_on_c, 4, 66, 0
10, 34064, Note_on_c, 4, 59, 0
10, 34080, Note_on_c, 4, 59, 76
10, 34080, Note_on_c, 4, 66, 76
10, 34124, Note_on_c, 4, 59, 0
10, 34124, Note_on_c, 4, 66, 0
10, 34140, Note_on_c, 4, 59, 76
10, 34140, Note_on_c, 4, 66, 76
10, 34184, Note_on_c, 4, 59, 0
10, 34184, Note_on_c, 4, 66, 0
10, 34200, Note_on_c, 4, 68, 76
10, 34200, Note_on_c, 4, 64, 76
10, 34289, Note_on_c, 4, 68, 0
10, 34289, Note_on_c, 4, 64, 0
10, 34320, Note_on_c, 4, 64, 52
10, 34320, Note_on_c, 4, 52, 52
10, 34409, Note_on_c, 4, 64, 0
10, 34409, Note_on_c, 4, 52, 0
10, 34560, Control_c, 4, 11, 127
10, 34590, Control_c, 4, 11, 126
10, 34620, Control_c, 4, 11, 125
10, 34650, Control_c, 4, 11, 123
10, 34680, Note_on_c, 4, 59, 52
10, 34680, Control_c, 4, 11, 122
10, 34680, Note_on_c, 4, 52, 52
10, 34710, Control_c, 4, 11, 121
10, 34740, Control_c, 4, 11, 120
10, 34770, Control_c, 4, 11, 118
10, 34799, Note_on_c, 4, 59, 0
10, 34799, Note_on_c, 4, 52, 0
10, 34800, Control_c, 4, 11, 117
10, 34830, Control_c, 4, 11, 116
10, 34860, Control_c, 4, 11, 115
10, 34890, Control_c, 4, 11, 113
10, 34920, Control_c, 4, 11, 112
10, 35040, Note_on_c, 4, 52, 52
10, 35040, Note_on_c, 4, 59, 52
10, 35159, Note_on_c, 4, 52, 0
10, 35159, Note_on_c, 4, 59, 0
10, 35520, Control_c, 4, 11, 96
10, 35640, Note_on_c, 4, 52, 68
10, 35640, Note_on_c, 4, 64, 68
10, 35640, Control_c, 4, 11, 96
10, 35670, Control_c, 4, 11, 99
10, 35700, Control_c, 4, 11, 101
10, 35730, Control_c, 4, 11, 104
10, 35760, Control_c, 4, 11, 106
10, 35790, Control_c, 4, 11, 109
10, 35820, Control_c, 4, 11, 112
10, 35850, Control_c, 4, 11, 114
10, 35880, Control_c, 4, 11, 117
10, 35910, Control_c, 4, 11, 119
10, 35940, Control_c, 4, 11, 122
10, 35970, Control_c, 4, 11, 124
10, 36000, Control_c, 4, 11, 96
10, 36839, Note_on_c, 4, 52, 0
10, 36839, Note_on_c, 4, 64, 0
10, 40200, Control_c, 4, 11, 127
10, 40320, Note_on_c, 4, 64, 52
10, 40320, Note_on_c, 4, 52, 52
10, 40371, Note_on_c, 4, 64, 0
10, 40371, Note_on_c, 4, 52, 0
10, 40380, Note_on_c, 4, 52, 54
10, 40380, Note_on_c, 4, 64, 54
10, 40431, Note_on_c, 4, 52, 0
10, 40431, Note_on_c, 4, 64, 0
10, 40440, Note_on_c, 4, 52, 56
10, 40440, Note_on_c, 4, 64, 56
10, 40491, Note_on_c, 4, 52, 0
10, 40491, Note_on_c, 4, 64, 0
10, 40500, Note_on_c, 4, 52, 58
10, 40500, Note_on_c, 4, 64, 58
10, 40551, Note_on_c, 4, 52, 0
10, 40551, Note_on_c, 4, 64, 0
10, 40560, Note_on_c, 4, 64, 60
10, 40560, Note_on_c, 4, 52, 60
10, 40611, Note_on_c, 4, 64, 0
10, 40611, Note_on_c, 4, 52, 0
10, 40620, Note_on_c, 4, 52, 62
10, 40620, Note_on_c, 4, 64, 62
10, 40671, Note_on_c, 4, 52, 0
10, 40671, Note_on_c, 4, 64, 0
10, 40680, Note_on_c, 4, 52, 64
10, 40680, Note_on_c, 4, 64, 64
10, 40731, Note_on_c, 4, 52, 0
10, 40731, Note_on_c, 4, 64, 0
10, 40740, Note_on_c, 4, 64, 66
10, 40740, Note_on_c, 4, 52, 66
10, 40791, Note_on_c, 4, 64, 0
10, 40791, Note_on_c, 4, 52, 0
10, 40800, Note_on_c, 4, 64, 68
10, 40800, Note_on_c, 4, 52, 68
10, 40851, Note_on_c, 4, 64, 0
10, 40851, Note_on_c, 4, 52, 0
10, 40860, Note_on_c, 4, 64, 70
10, 40860, Note_on_c, 4, 52, 70
10, 40911, Note_on_c, 4, 64, 0
10, 40911, Note_on_c, 4, 52, 0
10, 40920, Note_on_c, 4, 64, 72
10, 40920, Note_on_c, 4, 52, 72
10, 40971, Note_on_c, 4, 64, 0
10, 40971, Note_on_c, 4, 52, 0
10, 40980, Note_on_c, 4, 64, 74
10, 40980, Note_on_c, 4, 52, 74
10, 41031, Note_on_c, 4, 64, 0
10, 41031, Note_on_c, 4, 52, 0
10, 41040, Note_on_c, 4, 71, 76
10, 41040, Note_on_c, 4, 59, 76
10, 41391, Note_on_c, 4, 71, 0
10, 41391, Note_on_c, 4, 59, 0
10, 41400, Note_on_c, 4, 47, 76
10, 41400, Note_on_c, 4, 59, 76
10, 41489, Note_on_c, 4, 47, 0
10, 41489, Note_on_c, 4, 59, 0
10, 41520, Note_on_c, 4, 59, 76
10, 41520, Note_on_c, 4, 47, 76
10, 41609, Note_on_c, 4, 59, 0
10, 41609, Note_on_c, 4, 47, 0
10, 41640, Note_on_c, 4, 59, 76
10, 41640, Note_on_c, 4, 47, 76
10, 41729, Note_on_c, 4, 59, 0
10, 41729, Note_on_c, 4, 47, 0
10, 41760, Note_on_c, 4, 52, 76
10, 41760, Note_on_c, 4, 64, 76
10, 41879, Note_on_c, 4, 52, 0
10, 41879, Note_on_c, 4, 64, 0
10, 41879, End_track
11, 0, Start_track
11, 0, Title_t, "French Horn in A"
11, 0, MIDI_port, 0
11, 0, Program_c, 4, 60
11, 0, Control_c, 4, 7, 96
11, 0, Control_c, 4, 10, 45
11, 53280, Control_c, 4, 11, 127
11, 53640, Note_on_c, 4, 69, 84
11, 53640, Note_on_c, 4, 57, 84
11, 54359, Note_on_c, 4, 69, 0
11, 54359, Note_on_c, 4, 57, 0
11, 54720, Note_on_c, 4, 64, 84
11, 54720, Note_on_c, 4, 52, 84
11, 54720, Control_c, 4, 11, 127
11, 54750, Control_c, 4, 11, 122
11, 54780, Control_c, 4, 11, 117
11, 54810, Control_c, 4, 11, 111
11, 54840, Control_c, 4, 11, 106
11, 54870, Control_c, 4, 11, 101
11, 54900, Control_c, 4, 11, 96
11, 54930, Control_c, 4, 11, 90
11, 54960, Control_c, 4, 11, 85
11, 54990, Control_c, 4, 11, 80
11, 55020, Control_c, 4, 11, 75
11, 55050, Control_c, 4, 11, 69
11, 55079, Note_on_c, 4, 64, 0
11, 55079, Note_on_c, 4, 52, 0
11, 55080, Note_on_c, 4, 69, 84
11, 55080, Control_c, 4, 11, 64
11, 55080, Note_on_c, 4, 57, 84
11, 55199, Note_on_c, 4, 69, 0
11, 55199, Note_on_c, 4, 57, 0
11, 55800, Note_on_c, 4, 73, 84
11, 55800, Note_on_c, 4, 69, 84
11, 56159, Note_on_c, 4, 73, 0
11, 56159, Note_on_c, 4, 69, 0
11, 56160, Note_on_c, 4, 71, 84
11, 56160, Note_on_c, 4, 64, 84
11, 56160, Control_c, 4, 11, 64
11, 56190, Control_c, 4, 11, 67
11, 56220, Control_c, 4, 11, 69
11, 56250, Control_c, 4, 11, 72
11, 56280, Control_c, 4, 11, 75
11, 56310, Control_c, 4, 11, 77
11, 56340, Control_c, 4, 11, 80
11, 56370, Control_c, 4, 11, 83
11, 56400, Control_c, 4, 11, 85
11, 56430, Control_c, 4, 11, 88
11, 56460, Control_c, 4, 11, 91
11, 56490, Control_c, 4, 11, 93
11, 56516, Control_c, 4, 11, 64
11, 56519, Note_on_c, 4, 71, 0
11, 56519, Note_on_c, 4, 64, 0
11, 56520, Note_on_c, 4, 61, 84
11, 56520, Note_on_c, 4, 69, 84
11, 56639, Note_on_c, 4, 61, 0
11, 56639, Note_on_c, 4, 69, 0
11, 59280, Control_c, 4, 11, 96
11, 59400, Note_on_c, 4, 64, 68
11, 59400, Note_on_c, 4, 52, 68
11, 59489, Note_on_c, 4, 64, 0
11, 59489, Note_on_c, 4, 52, 0
11, 59520, Note_on_c, 4, 64, 68
11, 59520, Note_on_c, 4, 52, 68
11, 59609, Note_on_c, 4, 64, 0
11, 59609, Note_on_c, 4, 52, 0
11, 59640, Note_on_c, 4, 64, 68
11, 59640, Note_on_c, 4, 52, 68
11, 59729, Note_on_c, 4, 64, 0
11, 59729, Note_on_c, 4, 52, 0
11, 59760, Note_on_c, 4, 52, 68
11, 59760, Note_on_c, 4, 64, 68
11, 59760, Note_on_c, 4, 52, 68
11, 59849, Note_on_c, 4, 52, 0
11, 60231, Note_on_c, 4, 64, 0
11, 60231, Note_on_c, 4, 52, 0
11, 60240, Note_on_c, 4, 52, 68
11, 60240, Note_on_c, 4, 64, 68
11, 60329, Note_on_c, 4, 52, 0
11, 60329, Note_on_c, 4, 64, 0
11, 60360, Note_on_c, 4, 64, 68
11, 60360, Note_on_c, 4, 52, 68
11, 60449, Note_on_c, 4, 64, 0
11, 60449, Note_on_c, 4, 52, 0
11, 60480, Note_on_c, 4, 52, 68
11, 60480, Note_on_c, 4, 64, 68
11, 60840, Control_c, 4, 11, 96
11, 60900, Control_c, 4, 11, 99
11, 60951, Note_on_c, 4, 52, 0
11, 60951, Note_on_c, 4, 64, 0
11, 60960, Note_on_c, 4, 52, 68
11, 60960, Control_c, 4, 11, 101
11, 60960, Note_on_c, 4, 64, 68
11, 61020, Control_c, 4, 11, 104
11, 61049, Note_on_c, 4, 52, 0
11, 61049, Note_on_c, 4, 64, 0
11, 61080, Control_c, 4, 11, 106
11, 61080, Note_on_c, 4, 64, 68
11, 61080, Note_on_c, 4, 52, 68
11, 61140, Control_c, 4, 11, 109
11, 61169, Note_on_c, 4, 64, 0
11, 61169, Note_on_c, 4, 52, 0
11, 61200, Note_on_c, 4, 64, 68
11, 61200, Note_on_c, 4, 52, 68
11, 61200, Control_c, 4, 11, 112
11, 61260, Control_c, 4, 11, 114
11, 61320, Control_c, 4, 11, 117
11, 61380, Control_c, 4, 11, 119
11, 61431, Note_on_c, 4, 64, 0
11, 61431, Note_on_c, 4, 52, 0
11, 61440, Note_on_c, 4, 64, 68
11, 61440, Control_c, 4, 11, 122
11, 61440, Note_on_c, 4, 52, 68
11, 61500, Control_c, 4, 11, 124
11, 61559, Note_on_c, 4, 64, 0
11, 61559, Note_on_c, 4, 52, 0
11, 61560, Control_c, 4, 11, 127
11, 62520, Note_on_c, 4, 64, 76
11, 62520, Note_on_c, 4, 52, 76
11, 62520, Control_c, 4, 11, 127
11, 62540, Control_c, 4, 11, 124
11, 62560, Control_c, 4, 11, 122
11, 62580, Control_c, 4, 11, 119
11, 62600, Control_c, 4, 11, 117
11, 62620, Control_c, 4, 11, 114
11, 62640, Control_c, 4, 11, 112
11, 62660, Control_c, 4, 11, 109
11, 62680, Control_c, 4, 11, 106
11, 62700, Control_c, 4, 11, 104
11, 62720, Control_c, 4, 11, 101
11, 62740, Control_c, 4, 11, 99
11, 62759, Note_on_c, 4, 64, 0
11, 62759, Note_on_c, 4, 52, 0
11, 62760, Control_c, 4, 11, 96
11, 62760, Note_on_c, 4, 57, 68
11, 62760, Note_on_c, 4, 69, 68
11, 62804, Note_on_c, 4, 57, 0
11, 62804, Note_on_c, 4, 69, 0
11, 63120, Control_c, 4, 11, 127
11, 63240, Note_on_c, 4, 52, 76
11, 63240, Note_on_c, 4, 64, 76
11, 63240, Control_c, 4, 11, 127
11, 63260, Control_c, 4, 11, 124
11, 63280, Control_c, 4, 11, 122
11, 63300, Control_c, 4, 11, 119
11, 63320, Control_c, 4, 11, 117
11, 63340, Control_c, 4, 11, 114
11, 63360, Control_c, 4, 11, 112
11, 63380, Control_c, 4, 11, 109
11, 63400, Control_c, 4, 11, 106
11, 63420, Control_c, 4, 11, 104
11, 63440, Control_c, 4, 11, 101
11, 63460, Control_c, 4, 11, 99
11, 63479, Note_on_c, 4, 52, 0
11, 63479, Note_on_c, 4, 64, 0
11, 63480, Control_c, 4, 11, 96
11, 63480, Note_on_c, 4, 52, 68
11, 63480, Note_on_c, 4, 71, 68
11, 63524, Note_on_c, 4, 52, 0
11, 63524, Note_on_c, 4, 71, 0
11, 65280, Control_c, 4, 11, 127
11, 65400, Note_on_c, 4, 52, 76
11, 65400, Note_on_c, 4, 64, 76
11, 65520, Control_c, 4, 11, 127
11, 65540, Control_c, 4, 11, 124
11, 65560, Control_c, 4, 11, 122
11, 65580, Control_c, 4, 11, 119
11, 65600, Control_c, 4, 11, 117
11, 65620, Control_c, 4, 11, 114
11, 65639, Note_on_c, 4, 52, 0
11, 65639, Note_on_c, 4, 64, 0
11, 65640, Note_on_c, 4, 69, 68
11, 65640, Control_c, 4, 11, 112
11, 65640, Note_on_c, 4, 57, 68
11, 65660, Control_c, 4, 11, 109
11, 65680, Control_c, 4, 11, 106
11, 65699, Note_on_c, 4, 69, 0
11, 65699, Note_on_c, 4, 57, 0
11, 65700, Control_c, 4, 11, 104
11, 65720, Control_c, 4, 11, 101
11, 65740, Control_c, 4, 11, 99
11, 66000, Control_c, 4, 11, 127
11, 66120, Note_on_c, 4, 64, 76
11, 66120, Note_on_c, 4, 52, 76
11, 66240, Control_c, 4, 11, 127
11, 66260, Control_c, 4, 11, 124
11, 66280, Control_c, 4, 11, 122
11, 66300, Control_c, 4, 11, 119
11, 66320, Control_c, 4, 11, 117
11, 66340, Control_c, 4, 11, 114
11, 66360, Control_c, 4, 11, 112
11, 66380, Control_c, 4, 11, 109
11, 66400, Control_c, 4, 11, 106
11, 66419, Note_on_c, 4, 64, 0
11, 66419, Note_on_c, 4, 52, 0
11, 66420, Control_c, 4, 11, 104
11, 66440, Control_c, 4, 11, 101
11, 66460, Control_c, 4, 11, 99
11, 66840, Control_c, 4, 11, 127
11, 66960, Control_c, 4, 11, 127
11, 66960, Note_on_c, 4, 52, 68
11, 66960, Note_on_c, 4, 64, 68
11, 66990, Control_c, 4, 11, 124
11, 67020, Control_c, 4, 11, 122
11, 67050, Control_c, 4, 11, 119
11, 67080, Control_c, 4, 11, 117
11, 67110, Control_c, 4, 11, 114
11, 67140, Control_c, 4, 11, 112
11, 67170, Control_c, 4, 11, 109
11, 67191, Note_on_c, 4, 52, 0
11, 67191, Note_on_c, 4, 64, 0
11, 67200, Note_on_c, 4, 52, 76
11, 67200, Note_on_c, 4, 64, 76
11, 67200, Control_c, 4, 11, 106
11, 67230, Control_c, 4, 11, 104
11, 67260, Control_c, 4, 11, 101
11, 67290, Control_c, 4, 11, 99
11, 67319, Note_on_c, 4, 52, 0
11, 67319, Note_on_c, 4, 64, 0
11, 67440, Control_c, 4, 11, 127
11, 67560, Note_on_c, 4, 64, 52
11, 67560, Note_on_c, 4, 52, 52
11, 67671, Note_on_c, 4, 64, 0
11, 67671, Note_on_c, 4, 52, 0
11, 67680, Note_on_c, 4, 64, 52
11, 67680, Note_on_c, 4, 52, 52
11, 67799, Note_on_c, 4, 64, 0
11, 67799, Note_on_c, 4, 52, 0
11, 68040, Note_on_c, 4, 64, 52
11, 68040, Note_on_c, 4, 52, 52
11, 68759, Note_on_c, 4, 64, 0
11, 68759, Note_on_c, 4, 52, 0
11, 68760, Note_on_c, 4, 52, 52
11, 68760, Note_on_c, 4, 64, 52
11, 69479, Note_on_c, 4, 52, 0
11, 69479, Note_on_c, 4, 64, 0
11, 69480, Note_on_c, 4, 64, 52
11, 69480, Note_on_c, 4, 52, 52
11, 70199, Note_on_c, 4, 64, 0
11, 70199, Note_on_c, 4, 52, 0
11, 70200, Note_on_c, 4, 52, 52
11, 70200, Note_on_c, 4, 64, 52
11, 70919, Note_on_c, 4, 52, 0
11, 70919, Note_on_c, 4, 64, 0
11, 72720, Note_on_c, 4, 69, 76
11, 72720, Note_on_c, 4, 57, 76
11, 73079, Note_on_c, 4, 69, 0
11, 73079, Note_on_c, 4, 57, 0
11, 73140, Note_on_c, 4, 64, 84
11, 73251, Note_on_c, 4, 64, 0
11, 73260, Note_on_c, 4, 64, 76
11, 73304, Note_on_c, 4, 64, 0
11, 73320, Note_on_c, 4, 64, 76
11, 73364, Note_on_c, 4, 64, 0
11, 73380, Note_on_c, 4, 64, 76
11, 73424, Note_on_c, 4, 64, 0
11, 73440, Note_on_c, 4, 64, 76
11, 73559, Note_on_c, 4, 64, 0
11, 73860, Note_on_c, 4, 64, 84
11, 73971, Note_on_c, 4, 64, 0
11, 73980, Note_on_c, 4, 64, 76
11, 74024, Note_on_c, 4, 64, 0
11, 74040, Note_on_c, 4, 64, 76
11, 74084, Note_on_c, 4, 64, 0
11, 74100, Note_on_c, 4, 64, 76
11, 74144, Note_on_c, 4, 64, 0
11, 74160, Note_on_c, 4, 64, 76
11, 74279, Note_on_c, 4, 64, 0
11, 74520, Note_on_c, 4, 64, 76
11, 74575, Note_on_c, 4, 64, 0
11, 74580, Note_on_c, 4, 64, 84
11, 74580, Note_on_c, 4, 52, 84
11, 74691, Note_on_c, 4, 64, 0
11, 74691, Note_on_c, 4, 52, 0
11, 74700, Note_on_c, 4, 64, 76
11, 74700, Note_on_c, 4, 52, 76
11, 74744, Note_on_c, 4, 64, 0
11, 74744, Note_on_c, 4, 52, 0
11, 74760, Note_on_c, 4, 64, 76
11, 74760, Note_on_c, 4, 52, 76
11, 74804, Note_on_c, 4, 64, 0
11, 74804, Note_on_c, 4, 52, 0
11, 74820, Note_on_c, 4, 64, 76
11, 74820, Note_on_c, 4, 52, 76
11, 74864, Note_on_c, 4, 64, 0
11, 74864, Note_on_c, 4, 52, 0
11, 74880, Note_on_c, 4, 64, 84
11, 74880, Note_on_c, 4, 52, 84
11, 74924, Note_on_c, 4, 64, 0
11, 74924, Note_on_c, 4, 52, 0
11, 74940, Note_on_c, 4, 64, 84
11, 74940, Note_on_c, 4, 52, 84
11, 74984, Note_on_c, 4, 64, 0
11, 74984, Note_on_c, 4, 52, 0
11, 75000, Note_on_c, 4, 64, 84
11, 75000, Note_on_c, 4, 52, 84
11, 75044, Note_on_c, 4, 64, 0
11, 75044, Note_on_c, 4, 52, 0
11, 75060, Note_on_c, 4, 64, 84
11, 75060, Note_on_c, 4, 52, 84
11, 75104, Note_on_c, 4, 64, 0
11, 75104, Note_on_c, 4, 52, 0
11, 75120, Note_on_c, 4, 64, 84
11, 75120, Note_on_c, 4, 52, 84
11, 75164, Note_on_c, 4, 64, 0
11, 75164, Note_on_c, 4, 52, 0
11, 75180, Note_on_c, 4, 64, 84
11, 75180, Note_on_c, 4, 52, 84
11, 75224, Note_on_c, 4, 64, 0
11, 75224, Note_on_c, 4, 52, 0
11, 75240, Note_on_c, 4, 64, 84
11, 75240, Note_on_c, 4, 52, 84
11, 75359, Note_on_c, 4, 64, 0
11, 75359, Note_on_c, 4, 52, 0
11, 77040, Control_c, 4, 11, 96
11, 77070, Control_c, 4, 11, 99
11, 77100, Control_c, 4, 11, 101
11, 77100, Note_on_c, 4, 64, 68
11, 77130, Control_c, 4, 11, 104
11, 77144, Note_on_c, 4, 64, 0
11, 77160, Note_on_c, 4, 61, 68
11, 77160, Control_c, 4, 11, 106
11, 77190, Control_c, 4, 11, 109
11, 77204, Note_on_c, 4, 61, 0
11, 77220, Control_c, 4, 11, 112
11, 77220, Note_on_c, 4, 64, 68
11, 77250, Control_c, 4, 11, 114
11, 77264, Note_on_c, 4, 64, 0
11, 77280, Control_c, 4, 11, 117
11, 77280, Note_on_c, 4, 61, 68
11, 77280, Note_on_c, 4, 73, 68
11, 77310, Control_c, 4, 11, 119
11, 77324, Note_on_c, 4, 61, 0
11, 77324, Note_on_c, 4, 73, 0
11, 77340, Control_c, 4, 11, 122
11, 77340, Note_on_c, 4, 69, 68
11, 77340, Note_on_c, 4, 57, 68
11, 77370, Control_c, 4, 11, 124
11, 77384, Note_on_c, 4, 69, 0
11, 77384, Note_on_c, 4, 57, 0
11, 77400, Note_on_c, 4, 64, 52
11, 77400, Note_on_c, 4, 52, 52
11, 77400, Control_c, 4, 11, 127
11, 78599, Note_on_c, 4, 64, 0
11, 78599, Note_on_c, 4, 52, 0
11, 80640, Note_on_c, 4, 64, 84
11, 80640, Note_on_c, 4, 52, 84
11, 80640, Control_c, 4, 11, 127
11, 80670, Control_c, 4, 11, 123
11, 80700, Control_c, 4, 11, 119
11, 80730, Control_c, 4, 11, 115
11, 80760, Control_c, 4, 11, 111
11, 80790, Control_c, 4, 11, 107
11, 80820, Control_c, 4, 11, 104
11, 80850, Control_c, 4, 11, 100
11, 80871, Note_on_c, 4, 64, 0
11, 80871, Note_on_c, 4, 52, 0
11, 80880, Control_c, 4, 11, 96
11, 80880, Note_on_c, 4, 64, 76
11, 80880, Note_on_c, 4, 52, 76
11, 80910, Control_c, 4, 11, 92
11, 80940, Control_c, 4, 11, 88
11, 80970, Control_c, 4, 11, 84
11, 80991, Note_on_c, 4, 64, 0
11, 80991, Note_on_c, 4, 52, 0
11, 81000, Control_c, 4, 11, 80
11, 81000, Note_on_c, 4, 57, 76
11, 81000, Note_on_c, 4, 64, 76
11, 81119, Note_on_c, 4, 57, 0
11, 81119, Note_on_c, 4, 64, 0
11, 81300, Note_on_c, 4, 45, 76
11, 81300, Note_on_c, 4, 57, 76
11, 81344, Note_on_c, 4, 45, 0
11, 81344, Note_on_c, 4, 57, 0
11, 81360, Control_c, 4, 11, 80
11, 81360, Note_on_c, 4, 57, 76
11, 81360, Note_on_c, 4, 45, 76
11, 81404, Note_on_c, 4, 57, 0
11, 81404, Note_on_c, 4, 45, 0
11, 81420, Note_on_c, 4, 45, 76
11, 81420, Note_on_c, 4, 57, 76
11, 81430, Control_c, 4, 11, 84
11, 81464, Note_on_c, 4, 45, 0
11, 81464, Note_on_c, 4, 57, 0
11, 81480, Note_on_c, 4, 45, 76
11, 81480, Note_on_c, 4, 57, 76
11, 81500, Control_c, 4, 11, 88
11, 81570, Control_c, 4, 11, 92
11, 81640, Control_c, 4, 11, 96
11, 81655, Note_on_c, 4, 45, 0
11, 81655, Note_on_c, 4, 57, 0
11, 81660, Note_on_c, 4, 45, 76
11, 81660, Note_on_c, 4, 57, 76
11, 81704, Note_on_c, 4, 45, 0
11, 81704, Note_on_c, 4, 57, 0
11, 81710, Control_c, 4, 11, 100
11, 81720, Note_on_c, 4, 45, 76
11, 81720, Note_on_c, 4, 57, 76
11, 81764, Note_on_c, 4, 45, 0
11, 81764, Note_on_c, 4, 57, 0
11, 81780, Control_c, 4, 11, 104
11, 81780, Note_on_c, 4, 57, 76
11, 81780, Note_on_c, 4, 45, 76
11, 81824, Note_on_c, 4, 57, 0
11, 81824, Note_on_c, 4, 45, 0
11, 81840, Note_on_c, 4, 57, 76
11, 81840, Note_on_c, 4, 45, 76
11, 81850, Control_c, 4, 11, 107
11, 81920, Control_c, 4, 11, 111
11, 81990, Control_c, 4, 11, 115
11, 82015, Note_on_c, 4, 57, 0
11, 82015, Note_on_c, 4, 45, 0
11, 82020, Note_on_c, 4, 45, 76
11, 82020, Note_on_c, 4, 57, 76
11, 82060, Control_c, 4, 11, 119
11, 82064, Note_on_c, 4, 45, 0
11, 82064, Note_on_c, 4, 57, 0
11, 82080, Note_on_c, 4, 57, 76
11, 82080, Note_on_c, 4, 45, 76
11, 82124, Note_on_c, 4, 57, 0
11, 82124, Note_on_c, 4, 45, 0
11, 82130, Control_c, 4, 11, 123
11, 82140, Note_on_c, 4, 57, 76
11, 82140, Note_on_c, 4, 45, 76
11, 82184, Note_on_c, 4, 57, 0
11, 82184, Note_on_c, 4, 45, 0
11, 82200, Control_c, 4, 11, 127
11, 82200, Note_on_c, 4, 45, 76
11, 82200, Note_on_c, 4, 57, 76
11, 82375, Note_on_c, 4, 45, 0
11, 82375, Note_on_c, 4, 57, 0
11, 82380, Note_on_c, 4, 45, 76
11, 82380, Note_on_c, 4, 57, 76
11, 82424, Note_on_c, 4, 45, 0
11, 82424, Note_on_c, 4, 57, 0
11, 82440, Note_on_c, 4, 64, 84
11, 82440, Note_on_c, 4, 52, 84
11, 82619, Note_on_c, 4, 64, 0
11, 82619, Note_on_c, 4, 52, 0
11, 83340, Note_on_c, 4, 69, 52
11, 83384, Note_on_c, 4, 69, 0
11, 83400, Note_on_c, 4, 69, 52
11, 83444, Note_on_c, 4, 69, 0
11, 83460, Note_on_c, 4, 69, 52
11, 83504, Note_on_c, 4, 69, 0
11, 83520, Note_on_c, 4, 69, 52
11, 83564, Note_on_c, 4, 69, 0
11, 83820, Note_on_c, 4, 69, 52
11, 83864, Note_on_c, 4, 69, 0
11, 83880, Note_on_c, 4, 69, 52
11, 83924, Note_on_c, 4, 69, 0
11, 83940, Note_on_c, 4, 69, 52
11, 83984, Note_on_c, 4, 69, 0
11, 84000, Note_on_c, 4, 69, 52
11, 84044, Note_on_c, 4, 69, 0
11, 84240, Control_c, 4, 11, 80
11, 84280, Control_c, 4, 11, 84
11, 84300, Note_on_c, 4, 69, 76
11, 84300, Note_on_c, 4, 57, 76
11, 84320, Control_c, 4, 11, 88
11, 84344, Note_on_c, 4, 69, 0
11, 84344, Note_on_c, 4, 57, 0
11, 84360, Control_c, 4, 11, 92
11, 84360, Note_on_c, 4, 69, 76
11, 84360, Note_on_c, 4, 57, 76
11, 84400, Control_c, 4, 11, 96
11, 84404, Note_on_c, 4, 69, 0
11, 84404, Note_on_c, 4, 57, 0
11, 84420, Note_on_c, 4, 57, 76
11, 84420, Note_on_c, 4, 69, 76
11, 84440, Control_c, 4, 11, 100
11, 84464, Note_on_c, 4, 57, 0
11, 84464, Note_on_c, 4, 69, 0
11, 84480, Note_on_c, 4, 57, 76
11, 84480, Note_on_c, 4, 69, 76
11, 84480, Control_c, 4, 11, 104
11, 84520, Control_c, 4, 11, 107
11, 84524, Note_on_c, 4, 57, 0
11, 84524, Note_on_c, 4, 69, 0
11, 84540, Note_on_c, 4, 69, 76
11, 84540, Note_on_c, 4, 57, 76
11, 84560, Control_c, 4, 11, 111
11, 84584, Note_on_c, 4, 69, 0
11, 84584, Note_on_c, 4, 57, 0
11, 84600, Note_on_c, 4, 69, 76
11, 84600, Control_c, 4, 11, 115
11, 84600, Note_on_c, 4, 57, 76
11, 84640, Control_c, 4, 11, 119
11, 84644, Note_on_c, 4, 69, 0
11, 84644, Note_on_c, 4, 57, 0
11, 84660, Note_on_c, 4, 57, 76
11, 84660, Note_on_c, 4, 69, 76
11, 84680, Control_c, 4, 11, 123
11, 84704, Note_on_c, 4, 57, 0
11, 84704, Note_on_c, 4, 69, 0
11, 84720, Control_c, 4, 11, 127
11, 84720, Note_on_c, 4, 69, 76
11, 84720, Note_on_c, 4, 57, 76
11, 84764, Note_on_c, 4, 69, 0
11, 84764, Note_on_c, 4, 57, 0
11, 84780, Note_on_c, 4, 69, 76
11, 84780, Note_on_c, 4, 57, 76
11, 84824, Note_on_c, 4, 69, 0
11, 84824, Note_on_c, 4, 57, 0
11, 84840, Note_on_c, 4, 69, 76
11, 84840, Note_on_c, 4, 57, 76
11, 84884, Note_on_c, 4, 69, 0
11, 84884, Note_on_c, 4, 57, 0
11, 84900, Note_on_c, 4, 57, 76
11, 84900, Note_on_c, 4, 69, 76
11, 84944, Note_on_c, 4, 57, 0
11, 84944, Note_on_c, 4, 69, 0
11, 84960, Note_on_c, 4, 69, 84
11, 84960, Note_on_c, 4, 57, 84
11, 85319, Note_on_c, 4, 69, 0
11, 85319, Note_on_c, 4, 57, 0
11, 85680, Note_on_c, 4, 64, 76
11, 85680, Note_on_c, 4, 52, 76
11, 85746, Note_on_c, 4, 64, 0
11, 85746, Note_on_c, 4, 52, 0
11, 85770, Note_on_c, 4, 52, 76
11, 85770, Note_on_c, 4, 64, 76
11, 85791, Note_on_c, 4, 52, 0
11, 85791, Note_on_c, 4, 64, 0
11, 85800, Note_on_c, 4, 52, 76
11, 85800, Note_on_c, 4, 64, 76
11, 85889, Note_on_c, 4, 52, 0
11, 85889, Note_on_c, 4, 64, 0
11, 86040, Note_on_c, 4, 69, 76
11, 86040, Note_on_c, 4, 57, 76
11, 86106, Note_on_c, 4, 69, 0
11, 86106, Note_on_c, 4, 57, 0
11, 86130, Note_on_c, 4, 69, 76
11, 86130, Note_on_c, 4, 57, 76
11, 86151, Note_on_c, 4, 69, 0
11, 86151, Note_on_c, 4, 57, 0
11, 86160, Note_on_c, 4, 57, 76
11, 86160, Note_on_c, 4, 69, 76
11, 86249, Note_on_c, 4, 57, 0
11, 86249, Note_on_c, 4, 69, 0
11, 87120, Note_on_c, 4, 64, 44
11, 87120, Note_on_c, 4, 52, 44
11, 87186, Note_on_c, 4, 64, 0
11, 87186, Note_on_c, 4, 52, 0
11, 87210, Note_on_c, 4, 52, 44
11, 87210, Note_on_c, 4, 64, 44
11, 87231, Note_on_c, 4, 52, 0
11, 87231, Note_on_c, 4, 64, 0
11, 87240, Note_on_c, 4, 52, 44
11, 87240, Note_on_c, 4, 64, 44
11, 87329, Note_on_c, 4, 52, 0
11, 87329, Note_on_c, 4, 64, 0
11, 87480, Note_on_c, 4, 52, 44
11, 87480, Note_on_c, 4, 64, 44
11, 87546, Note_on_c, 4, 52, 0
11, 87546, Note_on_c, 4, 64, 0
11, 87570, Note_on_c, 4, 52, 44
11, 87570, Note_on_c, 4, 64, 44
11, 87591, Note_on_c, 4, 52, 0
11, 87591, Note_on_c, 4, 64, 0
11, 87600, Note_on_c, 4, 52, 44
11, 87600, Note_on_c, 4, 64, 44
11, 87689, Note_on_c, 4, 52, 0
11, 87689, Note_on_c, 4, 64, 0
11, 88020, Note_on_c, 4, 64, 44
11, 88079, Note_on_c, 4, 64, 0
11, 88140, Note_on_c, 4, 64, 44
11, 88195, Note_on_c, 4, 64, 0
11, 88200, Note_on_c, 4, 64, 44
11, 88200, Note_on_c, 4, 57, 44
11, 88319, Note_on_c, 4, 64, 0
11, 88319, Note_on_c, 4, 57, 0
11, 89280, Note_on_c, 4, 64, 52
11, 89280, Note_on_c, 4, 52, 52
11, 89639, Note_on_c, 4, 64, 0
11, 89639, Note_on_c, 4, 52, 0
11, 89640, Note_on_c, 4, 64, 52
11, 89640, Note_on_c, 4, 57, 52
11, 89759, Note_on_c, 4, 64, 0
11, 89759, Note_on_c, 4, 57, 0
11, 89820, Note_on_c, 4, 69, 52
11, 89820, Note_on_c, 4, 57, 52
11, 89864, Note_on_c, 4, 69, 0
11, 89864, Note_on_c, 4, 57, 0
11, 89880, Note_on_c, 4, 64, 52
11, 89924, Note_on_c, 4, 64, 0
11, 89940, Note_on_c, 4, 61, 52
11, 89984, Note_on_c, 4, 61, 0
11, 90000, Note_on_c, 4, 57, 52
11, 90000, Note_on_c, 4, 69, 52
11, 90119, Note_on_c, 4, 57, 0
11, 90119, Note_on_c, 4, 69, 0
11, 90720, Note_on_c, 4, 52, 52
11, 90720, Note_on_c, 4, 64, 52
11, 91071, Note_on_c, 4, 52, 0
11, 91071, Note_on_c, 4, 64, 0
11, 91080, Note_on_c, 4, 57, 52
11, 91080, Note_on_c, 4, 69, 52
11, 91139, Note_on_c, 4, 57, 0
11, 91139, Note_on_c, 4, 69, 0
11, 91140, Note_on_c, 4, 64, 52
11, 91140, Note_on_c, 4, 76, 52
11, 91195, Note_on_c, 4, 64, 0
11, 91195, Note_on_c, 4, 76, 0
11, 91200, Note_on_c, 4, 61, 52
11, 91200, Note_on_c, 4, 73, 52
11, 91259, Note_on_c, 4, 61, 0
11, 91259, Note_on_c, 4, 73, 0
11, 91260, Note_on_c, 4, 76, 52
11, 91260, Note_on_c, 4, 64, 52
11, 91315, Note_on_c, 4, 76, 0
11, 91315, Note_on_c, 4, 64, 0
11, 91320, Note_on_c, 4, 57, 52
11, 91320, Note_on_c, 4, 69, 52
11, 91379, Note_on_c, 4, 57, 0
11, 91379, Note_on_c, 4, 69, 0
11, 91380, Note_on_c, 4, 61, 52
11, 91380, Note_on_c, 4, 73, 52
11, 91435, Note_on_c, 4, 61, 0
11, 91435, Note_on_c, 4, 73, 0
11, 91440, Note_on_c, 4, 52, 52
11, 91440, Note_on_c, 4, 64, 52
11, 91559, Note_on_c, 4, 52, 0
11, 91559, Note_on_c, 4, 64, 0
11, 91800, Note_on_c, 4, 69, 52
11, 91800, Note_on_c, 4, 57, 52
11, 91839, Note_on_c, 4, 69, 0
11, 91839, Note_on_c, 4, 57, 0
11, 91840, Note_on_c, 4, 76, 52
11, 91840, Note_on_c, 4, 64, 52
11, 91875, Note_on_c, 4, 76, 0
11, 91875, Note_on_c, 4, 64, 0
11, 91880, Note_on_c, 4, 76, 52
11, 91880, Note_on_c, 4, 64, 52
11, 91909, Note_on_c, 4, 76, 0
11, 91909, Note_on_c, 4, 64, 0
11, 91920, Note_on_c, 4, 61, 52
11, 91920, Note_on_c, 4, 73, 52
11, 91959, Note_on_c, 4, 61, 0
11, 91959, Note_on_c, 4, 73, 0
11, 91960, Note_on_c, 4, 76, 52
11, 91960, Note_on_c, 4, 64, 52
11, 91995, Note_on_c, 4, 76, 0
11, 91995, Note_on_c, 4, 64, 0
11, 92000, Note_on_c, 4, 73, 52
11, 92000, Note_on_c, 4, 61, 52
11, 92029, Note_on_c, 4, 73, 0
11, 92029, Note_on_c, 4, 61, 0
11, 92040, Note_on_c, 4, 69, 52
11, 92040, Note_on_c, 4, 57, 52
11, 92079, Note_on_c, 4, 69, 0
11, 92079, Note_on_c, 4, 57, 0
11, 92080, Note_on_c, 4, 61, 52
11, 92080, Note_on_c, 4, 73, 52
11, 92115, Note_on_c, 4, 61, 0
11, 92115, Note_on_c, 4, 73, 0
11, 92120, Note_on_c, 4, 57, 52
11, 92120, Note_on_c, 4, 69, 52
11, 92149, Note_on_c, 4, 57, 0
11, 92149, Note_on_c, 4, 69, 0
11, 92160, Note_on_c, 4, 64, 52
11, 92160, Note_on_c, 4, 52, 52
11, 92279, Note_on_c, 4, 64, 0
11, 92279, Note_on_c, 4, 52, 0
11, 92280, Control_c, 4, 11, 80
11, 92400, Note_on_c, 4, 64, 76
11, 92400, Note_on_c, 4, 71, 76
11, 92420, Control_c, 4, 11, 88
11, 92440, Control_c, 4, 11, 96
11, 92444, Note_on_c, 4, 64, 0
11, 92444, Note_on_c, 4, 71, 0
11, 92460, Note_on_c, 4, 71, 76
11, 92460, Note_on_c, 4, 64, 76
11, 92460, Control_c, 4, 11, 104
11, 92480, Control_c, 4, 11, 111
11, 92500, Control_c, 4, 11, 119
11, 92504, Note_on_c, 4, 71, 0
11, 92504, Note_on_c, 4, 64, 0
11, 92520, Note_on_c, 4, 69, 76
11, 92520, Note_on_c, 4, 73, 76
11, 92520, Control_c, 4, 11, 127
11, 92564, Note_on_c, 4, 69, 0
11, 92564, Note_on_c, 4, 73, 0
11, 92580, Note_on_c, 4, 64, 84
11, 92580, Note_on_c, 4, 71, 84
11, 92691, Note_on_c, 4, 64, 0
11, 92691, Note_on_c, 4, 71, 0
11, 92700, Note_on_c, 4, 71, 76
11, 92700, Note_on_c, 4, 64, 76
11, 92744, Note_on_c, 4, 71, 0
11, 92744, Note_on_c, 4, 64, 0
11, 92760, Note_on_c, 4, 71, 76
11, 92760, Note_on_c, 4, 64, 76
11, 92804, Note_on_c, 4, 71, 0
11, 92804, Note_on_c, 4, 64, 0
11, 92820, Note_on_c, 4, 71, 76
11, 92820, Note_on_c, 4, 64, 76
11, 92864, Note_on_c, 4, 71, 0
11, 92864, Note_on_c, 4, 64, 0
11, 92880, Note_on_c, 4, 73, 76
11, 92880, Note_on_c, 4, 69, 76
11, 92924, Note_on_c, 4, 73, 0
11, 92924, Note_on_c, 4, 69, 0
11, 92940, Note_on_c, 4, 71, 84
11, 92940, Note_on_c, 4, 64, 84
11, 93051, Note_on_c, 4, 71, 0
11, 93051, Note_on_c, 4, 64, 0
11, 93060, Note_on_c, 4, 64, 76
11, 93060, Note_on_c, 4, 71, 76
11, 93104, Note_on_c, 4, 64, 0
11, 93104, Note_on_c, 4, 71, 0
11, 93120, Note_on_c, 4, 64, 76
11, 93120, Note_on_c, 4, 71, 76
11, 93164, Note_on_c, 4, 64, 0
11, 93164, Note_on_c, 4, 71, 0
11, 93180, Note_on_c, 4, 64, 76
11, 93180, Note_on_c, 4, 71, 76
11, 93224, Note_on_c, 4, 64, 0
11, 93224, Note_on_c, 4, 71, 0
11, 93240, Note_on_c, 4, 64, 76
11, 93240, Note_on_c, 4, 71, 76
11, 93329, Note_on_c, 4, 64, 0
11, 93329, Note_on_c, 4, 71, 0
11, 93360, Note_on_c, 4, 71, 76
11, 93360, Note_on_c, 4, 64, 76
11, 93449, Note_on_c, 4, 71, 0
11, 93449, Note_on_c, 4, 64, 0
11, 94680, Note_on_c, 4, 52, 52
11, 94680, Note_on_c, 4, 64, 52
11, 94769, Note_on_c, 4, 52, 0
11, 94769, Note_on_c, 4, 64, 0
11, 94800, Note_on_c, 4, 52, 52
11, 94800, Note_on_c, 4, 64, 52
11, 94889, Note_on_c, 4, 52, 0
11, 94889, Note_on_c, 4, 64, 0
11, 94920, Note_on_c, 4, 52, 52
11, 94920, Note_on_c, 4, 64, 52
11, 95009, Note_on_c, 4, 52, 0
11, 95009, Note_on_c, 4, 64, 0
11, 95040, Note_on_c, 4, 52, 52
11, 95040, Note_on_c, 4, 64, 52
11, 95129, Note_on_c, 4, 52, 0
11, 95129, Note_on_c, 4, 64, 0
11, 95400, Note_on_c, 4, 52, 52
11, 95400, Note_on_c, 4, 64, 52
11, 95489, Note_on_c, 4, 52, 0
11, 95489, Note_on_c, 4, 64, 0
11, 95520, Note_on_c, 4, 52, 52
11, 95520, Note_on_c, 4, 64, 52
11, 95609, Note_on_c, 4, 52, 0
11, 95609, Note_on_c, 4, 64, 0
11, 95640, Note_on_c, 4, 52, 52
11, 95640, Note_on_c, 4, 64, 52
11, 95729, Note_on_c, 4, 52, 0
11, 95729, Note_on_c, 4, 64, 0
11, 95760, Note_on_c, 4, 52, 52
11, 95760, Note_on_c, 4, 64, 52
11, 95879, Note_on_c, 4, 52, 0
11, 95879, Note_on_c, 4, 64, 0
11, 96000, Control_c, 4, 11, 96
11, 96120, Note_on_c, 4, 45, 68
11, 96120, Note_on_c, 4, 57, 68
11, 96150, Control_c, 4, 11, 99
11, 96180, Control_c, 4, 11, 101
11, 96210, Control_c, 4, 11, 104
11, 96231, Note_on_c, 4, 45, 0
11, 96231, Note_on_c, 4, 57, 0
11, 96240, Note_on_c, 4, 57, 68
11, 96240, Control_c, 4, 11, 106
11, 96240, Note_on_c, 4, 45, 68
11, 96270, Control_c, 4, 11, 109
11, 96300, Control_c, 4, 11, 112
11, 96330, Control_c, 4, 11, 114
11, 96351, Note_on_c, 4, 57, 0
11, 96351, Note_on_c, 4, 45, 0
11, 96360, Note_on_c, 4, 57, 68
11, 96360, Note_on_c, 4, 45, 68
11, 96360, Control_c, 4, 11, 117
11, 96390, Control_c, 4, 11, 119
11, 96420, Control_c, 4, 11, 122
11, 96450, Control_c, 4, 11, 124
11, 96471, Note_on_c, 4, 57, 0
11, 96471, Note_on_c, 4, 45, 0
11, 96480, Note_on_c, 4, 57, 52
11, 96480, Note_on_c, 4, 69, 52
11, 96480, Control_c, 4, 11, 127
11, 96569, Note_on_c, 4, 57, 0
11, 96569, Note_on_c, 4, 69, 0
11, 96840, Note_on_c, 4, 64, 52
11, 96929, Note_on_c, 4, 64, 0
11, 97200, Note_on_c, 4, 64, 52
11, 97200, Note_on_c, 4, 57, 52
11, 97289, Note_on_c, 4, 64, 0
11, 97289, Note_on_c, 4, 57, 0
11, 97560, Note_on_c, 4, 57, 84
11, 97560, Note_on_c, 4, 69, 84
11, 97615, Note_on_c, 4, 57, 0
11, 97615, Note_on_c, 4, 69, 0
11, 97620, Note_on_c, 4, 57, 84
11, 97620, Note_on_c, 4, 69, 84
11, 97645, Note_on_c, 4, 57, 0
11, 97645, Note_on_c, 4, 69, 0
11, 97650, Note_on_c, 4, 57, 84
11, 97650, Note_on_c, 4, 69, 84
11, 97675, Note_on_c, 4, 57, 0
11, 97675, Note_on_c, 4, 69, 0
11, 97680, Note_on_c, 4, 57, 84
11, 97680, Note_on_c, 4, 69, 84
11, 97735, Note_on_c, 4, 57, 0
11, 97735, Note_on_c, 4, 69, 0
11, 97740, Note_on_c, 4, 69, 84
11, 97740, Note_on_c, 4, 57, 84
11, 97765, Note_on_c, 4, 69, 0
11, 97765, Note_on_c, 4, 57, 0
11, 97770, Note_on_c, 4, 57, 84
11, 97770, Note_on_c, 4, 69, 84
11, 97795, Note_on_c, 4, 57, 0
11, 97795, Note_on_c, 4, 69, 0
11, 97800, Note_on_c, 4, 69, 84
11, 97800, Note_on_c, 4, 57, 84
11, 97855, Note_on_c, 4, 69, 0
11, 97855, Note_on_c, 4, 57, 0
11, 97860, Note_on_c, 4, 57, 84
11, 97860, Note_on_c, 4, 69, 84
11, 97885, Note_on_c, 4, 57, 0
11, 97885, Note_on_c, 4, 69, 0
11, 97890, Note_on_c, 4, 57, 84
11, 97890, Note_on_c, 4, 69, 84
11, 97915, Note_on_c, 4, 57, 0
11, 97915, Note_on_c, 4, 69, 0
11, 97920, Note_on_c, 4, 57, 84
11, 97920, Note_on_c, 4, 69, 84
11, 98009, Note_on_c, 4, 57, 0
11, 98009, Note_on_c, 4, 69, 0
11, 98040, Note_on_c, 4, 57, 92
11, 98040, Note_on_c, 4, 69, 92
11, 98129, Note_on_c, 4, 57, 0
11, 98129, Note_on_c, 4, 69, 0
11, 98400, Note_on_c, 4, 71, 92
11, 98400, Note_on_c, 4, 64, 92
11, 98489, Note_on_c, 4, 71, 0
11, 98489, Note_on_c, 4, 64, 0
11, 98640, Note_on_c, 4, 69, 84
11, 98640, Note_on_c, 4, 61, 84
11, 98729, Note_on_c, 4, 69, 0
11, 98729, Note_on_c, 4, 61, 0
11, 98880, Note_on_c, 4, 61, 52
11, 98880, Note_on_c, 4, 64, 52
11, 98969, Note_on_c, 4, 61, 0
11, 98969, Note_on_c, 4, 64, 0
11, 99000, Note_on_c, 4, 61, 52
11, 99000, Note_on_c, 4, 57, 52
11, 99089, Note_on_c, 4, 61, 0
11, 99089, Note_on_c, 4, 57, 0
11, 99089, End_track
12, 0, Start_track
12, 0, Title_t, "Violin I"
12, 0, MIDI_port, 0
12, 0, Program_c, 11, 48
12, 0, Control_c, 11, 7, 96
12, 0, Control_c, 11, 10, 48
12, 0, Control_c, 11, 11, 96
12, 0, Note_on_c, 11, 64, 68
12, 119, Note_on_c, 11, 64, 0
12, 120, Note_on_c, 11, 69, 68
12, 239, Note_on_c, 11, 69, 0
12, 240, Note_on_c, 11, 71, 68
12, 351, Note_on_c, 11, 71, 0
12, 360, Note_on_c, 11, 73, 68
12, 711, Note_on_c, 11, 73, 0
12, 720, Note_on_c, 11, 73, 68
12, 734, Note_on_c, 11, 73, 0
12, 735, Note_on_c, 11, 74, 68
12, 749, Note_on_c, 11, 74, 0
12, 750, Note_on_c, 11, 73, 68
12, 764, Note_on_c, 11, 73, 0
12, 765, Note_on_c, 11, 74, 68
12, 779, Note_on_c, 11, 74, 0
12, 780, Note_on_c, 11, 73, 68
12, 794, Note_on_c, 11, 73, 0
12, 795, Note_on_c, 11, 74, 68
12, 809, Note_on_c, 11, 74, 0
12, 810, Note_on_c, 11, 71, 68
12, 824, Note_on_c, 11, 71, 0
12, 825, Note_on_c, 11, 73, 68
12, 839, Note_on_c, 11, 73, 0
12, 840, Note_on_c, 11, 76, 68
12, 929, Note_on_c, 11, 76, 0
12, 930, Note_on_c, 11, 74, 68
12, 959, Note_on_c, 11, 74, 0
12, 960, Note_on_c, 11, 73, 68
12, 1071, Note_on_c, 11, 73, 0
12, 1080, Note_on_c, 11, 71, 68
12, 1431, Note_on_c, 11, 71, 0
12, 1440, Control_c, 11, 11, 96
12, 1440, Note_on_c, 11, 76, 68
12, 1500, Control_c, 11, 11, 99
12, 1559, Note_on_c, 11, 76, 0
12, 1560, Control_c, 11, 11, 101
12, 1560, Note_on_c, 11, 74, 68
12, 1620, Control_c, 11, 11, 104
12, 1679, Note_on_c, 11, 74, 0
12, 1680, Note_on_c, 11, 73, 68
12, 1680, Control_c, 11, 11, 106
12, 1740, Control_c, 11, 11, 109
12, 1791, Note_on_c, 11, 73, 0
12, 1800, Note_on_c, 11, 71, 68
12, 1800, Control_c, 11, 11, 112
12, 1860, Control_c, 11, 11, 114
12, 1920, Control_c, 11, 11, 117
12, 1980, Control_c, 11, 11, 119
12, 2039, Note_on_c, 11, 71, 0
12, 2040, Note_on_c, 11, 73, 68
12, 2040, Control_c, 11, 11, 122
12, 2100, Control_c, 11, 11, 124
12, 2151, Note_on_c, 11, 73, 0
12, 2160, Note_on_c, 11, 68, 68
12, 2160, Control_c, 11, 11, 96
12, 2399, Note_on_c, 11, 68, 0
12, 2400, Note_on_c, 11, 69, 68
12, 2489, Note_on_c, 11, 69, 0
12, 2490, Note_on_c, 11, 66, 68
12, 2515, Note_on_c, 11, 66, 0
12, 2520, Note_on_c, 11, 64, 68
12, 2520, Control_c, 11, 11, 96
12, 2550, Control_c, 11, 11, 99
12, 2564, Note_on_c, 11, 64, 0
12, 2580, Note_on_c, 11, 64, 68
12, 2580, Control_c, 11, 11, 101
12, 2610, Control_c, 11, 11, 104
12, 2639, Note_on_c, 11, 64, 0
12, 2640, Control_c, 11, 11, 106
12, 2640, Note_on_c, 11, 66, 68
12, 2670, Control_c, 11, 11, 109
12, 2699, Note_on_c, 11, 66, 0
12, 2700, Note_on_c, 11, 68, 68
12, 2700, Control_c, 11, 11, 112
12, 2730, Control_c, 11, 11, 114
12, 2759, Note_on_c, 11, 68, 0
12, 2760, Note_on_c, 11, 69, 68
12, 2760, Control_c, 11, 11, 117
12, 2790, Control_c, 11, 11, 119
12, 2819, Note_on_c, 11, 69, 0
12, 2820, Note_on_c, 11, 71, 68
12, 2820, Control_c, 11, 11, 122
12, 2850, Control_c, 11, 11, 124
12, 2875, Note_on_c, 11, 71, 0
12, 2880, Note_on_c, 11, 73, 68
12, 2880, Control_c, 11, 11, 96
12, 2939, Note_on_c, 11, 73, 0
12, 2940, Note_on_c, 11, 76, 68
12, 2999, Note_on_c, 11, 76, 0
12, 3000, Note_on_c, 11, 69, 68
12, 3059, Note_on_c, 11, 69, 0
12, 3060, Note_on_c, 11, 76, 68
12, 3119, Note_on_c, 11, 76, 0
12, 3120, Note_on_c, 11, 71, 68
12, 3179, Note_on_c, 11, 71, 0
12, 3180, Note_on_c, 11, 76, 68
12, 3235, Note_on_c, 11, 76, 0
12, 3240, Note_on_c, 11, 73, 68
12, 3299, Note_on_c, 11, 73, 0
12, 3300, Note_on_c, 11, 76, 68
12, 3359, Note_on_c, 11, 76, 0
12, 3360, Note_on_c, 11, 73, 68
12, 3419, Note_on_c, 11, 73, 0
12, 3420, Note_on_c, 11, 76, 68
12, 3479, Note_on_c, 11, 76, 0
12, 3480, Note_on_c, 11, 73, 68
12, 3539, Note_on_c, 11, 73, 0
12, 3540, Note_on_c, 11, 76, 68
12, 3595, Note_on_c, 11, 76, 0
12, 3600, Note_on_c, 11, 73, 68
12, 3659, Note_on_c, 11, 73, 0
12, 3660, Note_on_c, 11, 76, 68
12, 3719, Note_on_c, 11, 76, 0
12, 3720, Note_on_c, 11, 74, 68
12, 3779, Note_on_c, 11, 74, 0
12, 3780, Note_on_c, 11, 76, 68
12, 3839, Note_on_c, 11, 76, 0
12, 3840, Note_on_c, 11, 73, 68
12, 3899, Note_on_c, 11, 73, 0
12, 3900, Note_on_c, 11, 76, 68
12, 3955, Note_on_c, 11, 76, 0
12, 3960, Note_on_c, 11, 71, 68
12, 4015, Note_on_c, 11, 71, 0
12, 4020, Note_on_c, 11, 76, 68
12, 4131, Note_on_c, 11, 76, 0
12, 4140, Note_on_c, 11, 76, 68
12, 4251, Note_on_c, 11, 76, 0
12, 4260, Note_on_c, 11, 76, 68
12, 4320, Control_c, 11, 11, 96
12, 4371, Note_on_c, 11, 76, 0
12, 4380, Note_on_c, 11, 88, 68
12, 4380, Control_c, 11, 11, 99
12, 4440, Control_c, 11, 11, 101
12, 4491, Note_on_c, 11, 88, 0
12, 4500, Note_on_c, 11, 88, 68
12, 4500, Control_c, 11, 11, 104
12, 4560, Control_c, 11, 11, 106
12, 4611, Note_on_c, 11, 88, 0
12, 4620, Control_c, 11, 11, 109
12, 4620, Note_on_c, 11, 88, 68
12, 4680, Control_c, 11, 11, 112
12, 4731, Note_on_c, 11, 88, 0
12, 4740, Control_c, 11, 11, 114
12, 4740, Note_on_c, 11, 88, 68
12, 4800, Control_c, 11, 11, 117
12, 4851, Note_on_c, 11, 88, 0
12, 4860, Note_on_c, 11, 88, 68
12, 4860, Control_c, 11, 11, 119
12, 4904, Note_on_c, 11, 88, 0
12, 4920, Control_c, 11, 11, 122
12, 4920, Note_on_c, 11, 88, 68
12, 4964, Note_on_c, 11, 88, 0
12, 4980, Control_c, 11, 11, 124
12, 4980, Note_on_c, 11, 88, 68
12, 5024, Note_on_c, 11, 88, 0
12, 5032, Control_c, 11, 11, 96
12, 5040, Note_on_c, 11, 88, 68
12, 5084, Note_on_c, 11, 88, 0
12, 5100, Note_on_c, 11, 83, 68
12, 5144, Note_on_c, 11, 83, 0
12, 5220, Note_on_c, 11, 83, 68
12, 5264, Note_on_c, 11, 83, 0
12, 5340, Note_on_c, 11, 83, 68
12, 5384, Note_on_c, 11, 83, 0
12, 5460, Note_on_c, 11, 83, 68
12, 5504, Note_on_c, 11, 83, 0
12, 5580, Note_on_c, 11, 76, 68
12, 5624, Note_on_c, 11, 76, 0
12, 5640, Note_on_c, 11, 64, 68
12, 5729, Note_on_c, 11, 64, 0
12, 5730, Note_on_c, 11, 71, 68
12, 5755, Note_on_c, 11, 71, 0
12, 5760, Note_on_c, 11, 71, 68
12, 5879, Note_on_c, 11, 71, 0
12, 5880, Note_on_c, 11, 69, 68
12, 5999, Note_on_c, 11, 69, 0
12, 6000, Note_on_c, 11, 71, 68
12, 6111, Note_on_c, 11, 71, 0
12, 6120, Note_on_c, 11, 72, 68
12, 6239, Note_on_c, 11, 72, 0
12, 6240, Note_on_c, 11, 73, 68
12, 6299, Note_on_c, 11, 73, 0
12, 6360, Note_on_c, 11, 64, 68
12, 6449, Note_on_c, 11, 64, 0
12, 6450, Note_on_c, 11, 73, 68
12, 6475, Note_on_c, 11, 73, 0
12, 6480, Note_on_c, 11, 73, 68
12, 6599, Note_on_c, 11, 73, 0
12, 6600, Note_on_c, 11, 71, 68
12, 6719, Note_on_c, 11, 71, 0
12, 6720, Note_on_c, 11, 73, 68
12, 6831, Note_on_c, 11, 73, 0
12, 6840, Note_on_c, 11, 73, 68
12, 6959, Note_on_c, 11, 73, 0
12, 6960, Note_on_c, 11, 74, 68
12, 7019, Note_on_c, 11, 74, 0
12, 7080, Note_on_c, 11, 74, 68
12, 7191, Note_on_c, 11, 74, 0
12, 7200, Note_on_c, 11, 74, 68
12, 7200, Control_c, 11, 11, 96
12, 7230, Control_c, 11, 11, 99
12, 7260, Control_c, 11, 11, 101
12, 7290, Control_c, 11, 11, 104
12, 7320, Control_c, 11, 11, 106
12, 7350, Control_c, 11, 11, 109
12, 7380, Control_c, 11, 11, 112
12, 7410, Control_c, 11, 11, 114
12, 7439, Note_on_c, 11, 74, 0
12, 7440, Control_c, 11, 11, 117
12, 7440, Note_on_c, 11, 76, 68
12, 7470, Control_c, 11, 11, 119
12, 7499, Note_on_c, 11, 76, 0
12, 7500, Note_on_c, 11, 78, 68
12, 7500, Control_c, 11, 11, 122
12, 7530, Control_c, 11, 11, 124
12, 7555, Note_on_c, 11, 78, 0
12, 7560, Control_c, 11, 11, 127
12, 7560, Note_on_c, 11, 78, 76
12, 7590, Control_c, 11, 11, 124
12, 7619, Note_on_c, 11, 78, 0
12, 7620, Note_on_c, 11, 71, 68
12, 7620, Control_c, 11, 11, 122
12, 7650, Control_c, 11, 11, 119
12, 7680, Control_c, 11, 11, 117
12, 7710, Control_c, 11, 11, 114
12, 7740, Control_c, 11, 11, 112
12, 7770, Control_c, 11, 11, 109
12, 7799, Note_on_c, 11, 71, 0
12, 7800, Note_on_c, 11, 73, 68
12, 7800, Control_c, 11, 11, 106
12, 7830, Control_c, 11, 11, 104
12, 7860, Control_c, 11, 11, 101
12, 7890, Control_c, 11, 11, 99
12, 7911, Note_on_c, 11, 73, 0
12, 7920, Note_on_c, 11, 76, 68
12, 7920, Control_c, 11, 11, 96
12, 8099, Note_on_c, 11, 76, 0
12, 8100, Note_on_c, 11, 74, 68
12, 8159, Note_on_c, 11, 74, 0
12, 8160, Note_on_c, 11, 73, 68
12, 8219, Note_on_c, 11, 73, 0
12, 8220, Note_on_c, 11, 71, 68
12, 8275, Note_on_c, 11, 71, 0
12, 8280, Note_on_c, 11, 71, 68
12, 8399, Note_on_c, 11, 71, 0
12, 8400, Note_on_c, 11, 73, 68
12, 8519, Note_on_c, 11, 73, 0
12, 8640, Note_on_c, 11, 64, 68
12, 8695, Note_on_c, 11, 64, 0
12, 8700, Note_on_c, 11, 76, 68
12, 8811, Note_on_c, 11, 76, 0
12, 8820, Note_on_c, 11, 76, 68
12, 8931, Note_on_c, 11, 76, 0
12, 8940, Note_on_c, 11, 76, 68
12, 9051, Note_on_c, 11, 76, 0
12, 9060, Note_on_c, 11, 76, 76
12, 9171, Note_on_c, 11, 76, 0
12, 9180, Note_on_c, 11, 75, 68
12, 9209, Note_on_c, 11, 75, 0
12, 9210, Note_on_c, 11, 76, 68
12, 9235, Note_on_c, 11, 76, 0
12, 9240, Note_on_c, 11, 75, 68
12, 9269, Note_on_c, 11, 75, 0
12, 9270, Note_on_c, 11, 76, 68
12, 9295, Note_on_c, 11, 76, 0
12, 9300, Note_on_c, 11, 78, 68
12, 9329, Note_on_c, 11, 78, 0
12, 9330, Note_on_c, 11, 76, 68
12, 9355, Note_on_c, 11, 76, 0
12, 9360, Note_on_c, 11, 64, 68
12, 9415, Note_on_c, 11, 64, 0
12, 9420, Note_on_c, 11, 76, 68
12, 9531, Note_on_c, 11, 76, 0
12, 9540, Note_on_c, 11, 76, 68
12, 9651, Note_on_c, 11, 76, 0
12, 9660, Note_on_c, 11, 76, 68
12, 9771, Note_on_c, 11, 76, 0
12, 9780, Note_on_c, 11, 76, 68
12, 9891, Note_on_c, 11, 76, 0
12, 9900, Note_on_c, 11, 86, 68
12, 9944, Note_on_c, 11, 86, 0
12, 9960, Note_on_c, 11, 83, 68
12, 10004, Note_on_c, 11, 83, 0
12, 10020, Note_on_c, 11, 80, 68
12, 10064, Note_on_c, 11, 80, 0
12, 10080, Note_on_c, 11, 78, 68
12, 10080, Control_c, 11, 11, 96
12, 10110, Control_c, 11, 11, 99
12, 10139, Note_on_c, 11, 78, 0
12, 10140, Note_on_c, 11, 76, 68
12, 10140, Control_c, 11, 11, 101
12, 10170, Control_c, 11, 11, 104
12, 10199, Note_on_c, 11, 76, 0
12, 10200, Note_on_c, 11, 74, 68
12, 10200, Control_c, 11, 11, 106
12, 10230, Control_c, 11, 11, 109
12, 10259, Note_on_c, 11, 74, 0
12, 10260, Control_c, 11, 11, 112
12, 10260, Note_on_c, 11, 73, 68
12, 10290, Control_c, 11, 11, 114
12, 10319, Note_on_c, 11, 73, 0
12, 10320, Control_c, 11, 11, 117
12, 10320, Note_on_c, 11, 71, 68
12, 10350, Control_c, 11, 11, 119
12, 10379, Note_on_c, 11, 71, 0
12, 10380, Control_c, 11, 11, 122
12, 10380, Note_on_c, 11, 69, 68
12, 10410, Control_c, 11, 11, 124
12, 10435, Note_on_c, 11, 69, 0
12, 10440, Control_c, 11, 11, 127
12, 10440, Note_on_c, 11, 68, 68
12, 10495, Note_on_c, 11, 68, 0
12, 10500, Note_on_c, 11, 83, 76
12, 10611, Note_on_c, 11, 83, 0
12, 10620, Note_on_c, 11, 83, 68
12, 10620, Control_c, 11, 11, 127
12, 10635, Control_c, 11, 11, 124
12, 10650, Control_c, 11, 11, 122
12, 10664, Note_on_c, 11, 83, 0
12, 10665, Control_c, 11, 11, 119
12, 10680, Note_on_c, 11, 85, 68
12, 10680, Control_c, 11, 11, 117
12, 10695, Control_c, 11, 11, 114
12, 10710, Control_c, 11, 11, 112
12, 10724, Note_on_c, 11, 85, 0
12, 10725, Control_c, 11, 11, 109
12, 10740, Control_c, 11, 11, 106
12, 10740, Note_on_c, 11, 85, 68
12, 10755, Control_c, 11, 11, 104
12, 10770, Control_c, 11, 11, 101
12, 10784, Note_on_c, 11, 85, 0
12, 10785, Control_c, 11, 11, 99
12, 10800, Control_c, 11, 11, 96
12, 10860, Note_on_c, 11, 86, 68
12, 10919, Note_on_c, 11, 86, 0
12, 10980, Note_on_c, 11, 86, 68
12, 11039, Note_on_c, 11, 86, 0
12, 11100, Note_on_c, 11, 83, 68
12, 11155, Note_on_c, 11, 83, 0
12, 11160, Note_on_c, 11, 81, 68
12, 11279, Note_on_c, 11, 81, 0
12, 12120, Control_c, 11, 11, 127
12, 12180, Note_on_c, 11, 76, 52
12, 12235, Note_on_c, 11, 76, 0
12, 12240, Note_on_c, 11, 76, 52
12, 12329, Note_on_c, 11, 76, 0
12, 12330, Note_on_c, 11, 83, 52
12, 12355, Note_on_c, 11, 83, 0
12, 12360, Note_on_c, 11, 86, 68
12, 12539, Note_on_c, 11, 86, 0
12, 12540, Note_on_c, 11, 83, 52
12, 12595, Note_on_c, 11, 83, 0
12, 12600, Note_on_c, 11, 81, 52
12, 12689, Note_on_c, 11, 81, 0
12, 12690, Note_on_c, 11, 85, 52
12, 12715, Note_on_c, 11, 85, 0
12, 12720, Note_on_c, 11, 88, 52
12, 12809, Note_on_c, 11, 88, 0
12, 13620, Note_on_c, 11, 76, 52
12, 13675, Note_on_c, 11, 76, 0
12, 13680, Note_on_c, 11, 76, 52
12, 13769, Note_on_c, 11, 76, 0
12, 13770, Note_on_c, 11, 83, 52
12, 13795, Note_on_c, 11, 83, 0
12, 13800, Note_on_c, 11, 86, 68
12, 13979, Note_on_c, 11, 86, 0
12, 13980, Note_on_c, 11, 83, 52
12, 14035, Note_on_c, 11, 83, 0
12, 14040, Note_on_c, 11, 81, 52
12, 14129, Note_on_c, 11, 81, 0
12, 14130, Note_on_c, 11, 84, 52
12, 14155, Note_on_c, 11, 84, 0
12, 14160, Note_on_c, 11, 88, 52
12, 14249, Note_on_c, 11, 88, 0
12, 14340, Note_on_c, 11, 81, 84
12, 14340, Note_on_c, 11, 69, 84
12, 14384, Note_on_c, 11, 81, 0
12, 14384, Note_on_c, 11, 69, 0
12, 14400, Note_on_c, 11, 69, 92
12, 14400, Note_on_c, 11, 81, 92
12, 14571, Note_on_c, 11, 69, 0
12, 14571, Note_on_c, 11, 81, 0
12, 14580, Note_on_c, 11, 69, 84
12, 14580, Note_on_c, 11, 81, 84
12, 14624, Note_on_c, 11, 69, 0
12, 14624, Note_on_c, 11, 81, 0
12, 14640, Note_on_c, 11, 81, 84
12, 14640, Note_on_c, 11, 69, 84
12, 14684, Note_on_c, 11, 81, 0
12, 14684, Note_on_c, 11, 69, 0
12, 14700, Note_on_c, 11, 69, 84
12, 14700, Note_on_c, 11, 81, 84
12, 14744, Note_on_c, 11, 69, 0
12, 14744, Note_on_c, 11, 81, 0
12, 14760, Note_on_c, 11, 69, 84
12, 14760, Note_on_c, 11, 81, 84
12, 14849, Note_on_c, 11, 69, 0
12, 14849, Note_on_c, 11, 81, 0
12, 14880, Note_on_c, 11, 81, 84
12, 14880, Note_on_c, 11, 69, 84
12, 14969, Note_on_c, 11, 81, 0
12, 14969, Note_on_c, 11, 69, 0
12, 15840, Note_on_c, 11, 79, 44
12, 15929, Note_on_c, 11, 79, 0
12, 15960, Note_on_c, 11, 79, 44
12, 16049, Note_on_c, 11, 79, 0
12, 16200, Note_on_c, 11, 70, 84
12, 16200, Note_on_c, 11, 82, 84
12, 16289, Note_on_c, 11, 70, 0
12, 16289, Note_on_c, 11, 82, 0
12, 16320, Note_on_c, 11, 82, 84
12, 16320, Note_on_c, 11, 70, 84
12, 16409, Note_on_c, 11, 82, 0
12, 16409, Note_on_c, 11, 70, 0
12, 16440, Note_on_c, 11, 70, 84
12, 16440, Note_on_c, 11, 82, 84
12, 16529, Note_on_c, 11, 70, 0
12, 16529, Note_on_c, 11, 82, 0
12, 16560, Note_on_c, 11, 83, 84
12, 16560, Note_on_c, 11, 71, 84
12, 16649, Note_on_c, 11, 83, 0
12, 16649, Note_on_c, 11, 71, 0
12, 16800, Control_c, 11, 11, 96
12, 16860, Note_on_c, 11, 71, 68
12, 16915, Note_on_c, 11, 71, 0
12, 16920, Note_on_c, 11, 83, 68
12, 17095, Note_on_c, 11, 83, 0
12, 17100, Note_on_c, 11, 85, 68
12, 17159, Note_on_c, 11, 85, 0
12, 17160, Note_on_c, 11, 83, 68
12, 17219, Note_on_c, 11, 83, 0
12, 17220, Note_on_c, 11, 81, 68
12, 17275, Note_on_c, 11, 81, 0
12, 17280, Note_on_c, 11, 81, 68
12, 17339, Note_on_c, 11, 81, 0
12, 17340, Note_on_c, 11, 80, 68
12, 17451, Note_on_c, 11, 80, 0
12, 17460, Note_on_c, 11, 83, 68
12, 17519, Note_on_c, 11, 83, 0
12, 17520, Note_on_c, 11, 80, 68
12, 17579, Note_on_c, 11, 80, 0
12, 17580, Note_on_c, 11, 76, 68
12, 17635, Note_on_c, 11, 76, 0
12, 17640, Note_on_c, 11, 76, 68
12, 17699, Note_on_c, 11, 76, 0
12, 17700, Note_on_c, 11, 75, 68
12, 17811, Note_on_c, 11, 75, 0
12, 17820, Note_on_c, 11, 78, 68
12, 17879, Note_on_c, 11, 78, 0
12, 17880, Note_on_c, 11, 75, 68
12, 17939, Note_on_c, 11, 75, 0
12, 17940, Note_on_c, 11, 69, 68
12, 17995, Note_on_c, 11, 69, 0
12, 18000, Note_on_c, 11, 68, 68
12, 18000, Control_c, 11, 11, 96
12, 18030, Control_c, 11, 11, 99
12, 18059, Note_on_c, 11, 68, 0
12, 18060, Note_on_c, 11, 71, 68
12, 18060, Control_c, 11, 11, 101
12, 18090, Control_c, 11, 11, 104
12, 18115, Note_on_c, 11, 71, 0
12, 18120, Note_on_c, 11, 76, 68
12, 18120, Control_c, 11, 11, 106
12, 18150, Control_c, 11, 11, 109
12, 18164, Note_on_c, 11, 76, 0
12, 18180, Note_on_c, 11, 80, 68
12, 18180, Control_c, 11, 11, 112
12, 18210, Control_c, 11, 11, 114
12, 18224, Note_on_c, 11, 80, 0
12, 18240, Control_c, 11, 11, 117
12, 18240, Note_on_c, 11, 83, 68
12, 18270, Control_c, 11, 11, 119
12, 18284, Note_on_c, 11, 83, 0
12, 18300, Note_on_c, 11, 83, 68
12, 18300, Control_c, 11, 11, 122
12, 18330, Control_c, 11, 11, 124
12, 18344, Note_on_c, 11, 83, 0
12, 18360, Note_on_c, 11, 82, 52
12, 18360, Control_c, 11, 11, 127
12, 18389, Note_on_c, 11, 82, 0
12, 18390, Note_on_c, 11, 83, 52
12, 18415, Note_on_c, 11, 83, 0
12, 18420, Note_on_c, 11, 85, 52
12, 18449, Note_on_c, 11, 85, 0
12, 18450, Note_on_c, 11, 83, 52
12, 18475, Note_on_c, 11, 83, 0
12, 18480, Note_on_c, 11, 82, 52
12, 18509, Note_on_c, 11, 82, 0
12, 18510, Note_on_c, 11, 83, 52
12, 18535, Note_on_c, 11, 83, 0
12, 18540, Note_on_c, 11, 85, 52
12, 18569, Note_on_c, 11, 85, 0
12, 18570, Note_on_c, 11, 83, 52
12, 18595, Note_on_c, 11, 83, 0
12, 18600, Note_on_c, 11, 83, 52
12, 18629, Note_on_c, 11, 83, 0
12, 18630, Note_on_c, 11, 81, 52
12, 18655, Note_on_c, 11, 81, 0
12, 18660, Note_on_c, 11, 80, 52
12, 18689, Note_on_c, 11, 80, 0
12, 18690, Note_on_c, 11, 78, 52
12, 18715, Note_on_c, 11, 78, 0
12, 18720, Note_on_c, 11, 79, 52
12, 18749, Note_on_c, 11, 79, 0
12, 18750, Note_on_c, 11, 80, 52
12, 18775, Note_on_c, 11, 80, 0
12, 18780, Note_on_c, 11, 81, 52
12, 18809, Note_on_c, 11, 81, 0
12, 18810, Note_on_c, 11, 80, 52
12, 18835, Note_on_c, 11, 80, 0
12, 18840, Note_on_c, 11, 79, 52
12, 18869, Note_on_c, 11, 79, 0
12, 18870, Note_on_c, 11, 80, 52
12, 18895, Note_on_c, 11, 80, 0
12, 18900, Note_on_c, 11, 85, 52
12, 18929, Note_on_c, 11, 85, 0
12, 18930, Note_on_c, 11, 83, 52
12, 18955, Note_on_c, 11, 83, 0
12, 18960, Note_on_c, 11, 81, 52
12, 18989, Note_on_c, 11, 81, 0
12, 18990, Note_on_c, 11, 80, 52
12, 19015, Note_on_c, 11, 80, 0
12, 19020, Note_on_c, 11, 78, 52
12, 19049, Note_on_c, 11, 78, 0
12, 19050, Note_on_c, 11, 76, 52
12, 19075, Note_on_c, 11, 76, 0
12, 19080, Note_on_c, 11, 76, 52
12, 19109, Note_on_c, 11, 76, 0
12, 19110, Note_on_c, 11, 75, 52
12, 19135, Note_on_c, 11, 75, 0
12, 19140, Note_on_c, 11, 81, 52
12, 19169, Note_on_c, 11, 81, 0
12, 19170, Note_on_c, 11, 80, 52
12, 19195, Note_on_c, 11, 80, 0
12, 19200, Note_on_c, 11, 80, 52
12, 19229, Note_on_c, 11, 80, 0
12, 19230, Note_on_c, 11, 78, 52
12, 19255, Note_on_c, 11, 78, 0
12, 19260, Note_on_c, 11, 76, 52
12, 19289, Note_on_c, 11, 76, 0
12, 19290, Note_on_c, 11, 75, 52
12, 19315, Note_on_c, 11, 75, 0
12, 19320, Note_on_c, 11, 75, 52
12, 19349, Note_on_c, 11, 75, 0
12, 19350, Note_on_c, 11, 73, 52
12, 19375, Note_on_c, 11, 73, 0
12, 19380, Note_on_c, 11, 71, 52
12, 19409, Note_on_c, 11, 71, 0
12, 19410, Note_on_c, 11, 69, 52
12, 19431, Note_on_c, 11, 69, 0
12, 19436, Control_c, 11, 11, 80
12, 19440, Note_on_c, 11, 68, 76
12, 19484, Note_on_c, 11, 68, 0
12, 19500, Note_on_c, 11, 75, 76
12, 19544, Note_on_c, 11, 75, 0
12, 19545, Control_c, 11, 11, 84
12, 19560, Note_on_c, 11, 76, 76
12, 19604, Note_on_c, 11, 76, 0
12, 19620, Note_on_c, 11, 75, 76
12, 19650, Control_c, 11, 11, 88
12, 19664, Note_on_c, 11, 75, 0
12, 19680, Note_on_c, 11, 76, 76
12, 19755, Control_c, 11, 11, 92
12, 19860, Control_c, 11, 11, 96
12, 19965, Control_c, 11, 11, 100
12, 19975, Note_on_c, 11, 76, 0
12, 19980, Note_on_c, 11, 75, 76
12, 20024, Note_on_c, 11, 75, 0
12, 20040, Note_on_c, 11, 76, 76
12, 20070, Control_c, 11, 11, 104
12, 20175, Control_c, 11, 11, 107
12, 20280, Control_c, 11, 11, 111
12, 20335, Note_on_c, 11, 76, 0
12, 20340, Note_on_c, 11, 75, 76
12, 20384, Note_on_c, 11, 75, 0
12, 20385, Control_c, 11, 11, 115
12, 20400, Note_on_c, 11, 76, 76
12, 20490, Control_c, 11, 11, 119
12, 20595, Control_c, 11, 11, 123
12, 20695, Note_on_c, 11, 76, 0
12, 20700, Note_on_c, 11, 76, 76
12, 20700, Control_c, 11, 11, 127
12, 20744, Note_on_c, 11, 76, 0
12, 20760, Note_on_c, 11, 75, 76
12, 20804, Note_on_c, 11, 75, 0
12, 20820, Note_on_c, 11, 73, 76
12, 20864, Note_on_c, 11, 73, 0
12, 20880, Note_on_c, 11, 71, 76
12, 21055, Note_on_c, 11, 71, 0
12, 21060, Note_on_c, 11, 83, 76
12, 21060, Control_c, 11, 11, 80
12, 21104, Note_on_c, 11, 83, 0
12, 21120, Note_on_c, 11, 81, 76
12, 21164, Note_on_c, 11, 81, 0
12, 21180, Note_on_c, 11, 80, 76
12, 21224, Note_on_c, 11, 80, 0
12, 21240, Note_on_c, 11, 78, 76
12, 21415, Note_on_c, 11, 78, 0
12, 21420, Note_on_c, 11, 81, 76
12, 21420, Control_c, 11, 11, 127
12, 21464, Note_on_c, 11, 81, 0
12, 21480, Note_on_c, 11, 83, 76
12, 21524, Note_on_c, 11, 83, 0
12, 21540, Note_on_c, 11, 85, 76
12, 21584, Note_on_c, 11, 85, 0
12, 21600, Note_on_c, 11, 80, 84
12, 21600, Control_c, 11, 11, 127
12, 21630, Control_c, 11, 11, 123
12, 21660, Control_c, 11, 11, 119
12, 21690, Control_c, 11, 11, 115
12, 21720, Control_c, 11, 11, 111
12, 21750, Control_c, 11, 11, 107
12, 21780, Control_c, 11, 11, 104
12, 21810, Control_c, 11, 11, 100
12, 21839, Note_on_c, 11, 80, 0
12, 21840, Note_on_c, 11, 81, 76
12, 21840, Control_c, 11, 11, 96
12, 21870, Control_c, 11, 11, 92
12, 21900, Control_c, 11, 11, 88
12, 21929, Note_on_c, 11, 81, 0
12, 21930, Control_c, 11, 11, 84
12, 21930, Note_on_c, 11, 78, 76
12, 21955, Note_on_c, 11, 78, 0
12, 21960, Control_c, 11, 11, 80
12, 21960, Note_on_c, 11, 76, 76
12, 22004, Note_on_c, 11, 76, 0
12, 22020, Note_on_c, 11, 75, 76
12, 22064, Note_on_c, 11, 75, 0
12, 22080, Note_on_c, 11, 76, 76
12, 22124, Note_on_c, 11, 76, 0
12, 22140, Note_on_c, 11, 75, 76
12, 22184, Note_on_c, 11, 75, 0
12, 22200, Note_on_c, 11, 76, 76
12, 22320, Control_c, 11, 11, 80
12, 22395, Control_c, 11, 11, 84
12, 22470, Control_c, 11, 11, 88
12, 22495, Note_on_c, 11, 76, 0
12, 22500, Note_on_c, 11, 75, 76
12, 22544, Note_on_c, 11, 75, 0
12, 22545, Control_c, 11, 11, 92
12, 22560, Note_on_c, 11, 76, 76
12, 22620, Control_c, 11, 11, 96
12, 22695, Control_c, 11, 11, 100
12, 22770, Control_c, 11, 11, 104
12, 22845, Control_c, 11, 11, 107
12, 22855, Note_on_c, 11, 76, 0
12, 22860, Note_on_c, 11, 75, 76
12, 22904, Note_on_c, 11, 75, 0
12, 22920, Control_c, 11, 11, 111
12, 22920, Note_on_c, 11, 76, 76
12, 22995, Control_c, 11, 11, 115
12, 23070, Control_c, 11, 11, 119
12, 23145, Control_c, 11, 11, 123
12, 23215, Note_on_c, 11, 76, 0
12, 23220, Control_c, 11, 11, 127
12, 23220, Note_on_c, 11, 76, 76
12, 23264, Note_on_c, 11, 76, 0
12, 23280, Note_on_c, 11, 75, 76
12, 23324, Note_on_c, 11, 75, 0
12, 23340, Note_on_c, 11, 73, 76
12, 23384, Note_on_c, 11, 73, 0
12, 23400, Note_on_c, 11, 71, 84
12, 23579, Note_on_c, 11, 71, 0
12, 23940, Note_on_c, 11, 81, 52
12, 23999, Note_on_c, 11, 81, 0
12, 24000, Note_on_c, 11, 80, 52
12, 24059, Note_on_c, 11, 80, 0
12, 24060, Note_on_c, 11, 78, 52
12, 24115, Note_on_c, 11, 78, 0
12, 24120, Note_on_c, 11, 76, 52
12, 24299, Note_on_c, 11, 76, 0
12, 24540, Note_on_c, 11, 66, 52
12, 24599, Note_on_c, 11, 66, 0
12, 24600, Note_on_c, 11, 64, 52
12, 24659, Note_on_c, 11, 64, 0
12, 24660, Note_on_c, 11, 62, 52
12, 24719, Note_on_c, 11, 62, 0
12, 24720, Note_on_c, 11, 61, 52
12, 24764, Note_on_c, 11, 61, 0
12, 24840, Control_c, 11, 11, 80
12, 25020, Note_on_c, 11, 66, 76
12, 25079, Note_on_c, 11, 66, 0
12, 25080, Note_on_c, 11, 64, 76
12, 25139, Note_on_c, 11, 64, 0
12, 25140, Note_on_c, 11, 62, 76
12, 25199, Note_on_c, 11, 62, 0
12, 25200, Control_c, 11, 11, 80
12, 25200, Note_on_c, 11, 61, 76
12, 25244, Note_on_c, 11, 61, 0
12, 25245, Control_c, 11, 11, 84
12, 25260, Note_on_c, 11, 66, 76
12, 25290, Control_c, 11, 11, 88
12, 25319, Note_on_c, 11, 66, 0
12, 25320, Note_on_c, 11, 64, 76
12, 25335, Control_c, 11, 11, 92
12, 25379, Note_on_c, 11, 64, 0
12, 25380, Control_c, 11, 11, 96
12, 25380, Note_on_c, 11, 62, 76
12, 25425, Control_c, 11, 11, 100
12, 25439, Note_on_c, 11, 62, 0
12, 25440, Note_on_c, 11, 61, 76
12, 25470, Control_c, 11, 11, 104
12, 25484, Note_on_c, 11, 61, 0
12, 25500, Note_on_c, 11, 66, 76
12, 25515, Control_c, 11, 11, 107
12, 25559, Note_on_c, 11, 66, 0
12, 25560, Control_c, 11, 11, 111
12, 25560, Note_on_c, 11, 64, 76
12, 25605, Control_c, 11, 11, 115
12, 25619, Note_on_c, 11, 64, 0
12, 25620, Note_on_c, 11, 62, 76
12, 25650, Control_c, 11, 11, 119
12, 25679, Note_on_c, 11, 62, 0
12, 25680, Note_on_c, 11, 61, 76
12, 25695, Control_c, 11, 11, 123
12, 25724, Note_on_c, 11, 61, 0
12, 25740, Control_c, 11, 11, 127
12, 25740, Note_on_c, 11, 78, 76
12, 25799, Note_on_c, 11, 78, 0
12, 25800, Note_on_c, 11, 76, 76
12, 25859, Note_on_c, 11, 76, 0
12, 25860, Note_on_c, 11, 74, 76
12, 25915, Note_on_c, 11, 74, 0
12, 25920, Note_on_c, 11, 73, 84
12, 26271, Note_on_c, 11, 73, 0
12, 26280, Note_on_c, 11, 81, 84
12, 26280, Note_on_c, 11, 73, 84
12, 26631, Note_on_c, 11, 81, 0
12, 26631, Note_on_c, 11, 73, 0
12, 26640, Note_on_c, 11, 71, 76
12, 26640, Note_on_c, 11, 81, 76
12, 26706, Note_on_c, 11, 71, 0
12, 26706, Note_on_c, 11, 81, 0
12, 26730, Note_on_c, 11, 81, 76
12, 26730, Note_on_c, 11, 71, 76
12, 26751, Note_on_c, 11, 81, 0
12, 26751, Note_on_c, 11, 71, 0
12, 26760, Note_on_c, 11, 71, 76
12, 26760, Note_on_c, 11, 81, 76
12, 26849, Note_on_c, 11, 71, 0
12, 26849, Note_on_c, 11, 81, 0
12, 26880, Note_on_c, 11, 82, 52
12, 26909, Note_on_c, 11, 82, 0
12, 26910, Note_on_c, 11, 83, 52
12, 26935, Note_on_c, 11, 83, 0
12, 26940, Note_on_c, 11, 81, 52
12, 26961, Note_on_c, 11, 81, 0
12, 26970, Note_on_c, 11, 78, 52
12, 26991, Note_on_c, 11, 78, 0
12, 27120, Control_c, 11, 11, 96
12, 27240, Note_on_c, 11, 82, 68
12, 27269, Note_on_c, 11, 82, 0
12, 27270, Note_on_c, 11, 83, 68
12, 27295, Note_on_c, 11, 83, 0
12, 27300, Note_on_c, 11, 80, 68
12, 27321, Note_on_c, 11, 80, 0
12, 27330, Note_on_c, 11, 76, 68
12, 27351, Note_on_c, 11, 76, 0
12, 27360, Note_on_c, 11, 84, 68
12, 27389, Note_on_c, 11, 84, 0
12, 27390, Note_on_c, 11, 85, 68
12, 27415, Note_on_c, 11, 85, 0
12, 27420, Note_on_c, 11, 81, 68
12, 27441, Note_on_c, 11, 81, 0
12, 27450, Note_on_c, 11, 78, 68
12, 27471, Note_on_c, 11, 78, 0
12, 27480, Note_on_c, 11, 82, 68
12, 27509, Note_on_c, 11, 82, 0
12, 27510, Note_on_c, 11, 83, 68
12, 27535, Note_on_c, 11, 83, 0
12, 27540, Note_on_c, 11, 80, 68
12, 27561, Note_on_c, 11, 80, 0
12, 27570, Note_on_c, 11, 76, 68
12, 27591, Note_on_c, 11, 76, 0
12, 27600, Note_on_c, 11, 80, 68
12, 27629, Note_on_c, 11, 80, 0
12, 27630, Note_on_c, 11, 81, 68
12, 27655, Note_on_c, 11, 81, 0
12, 27660, Note_on_c, 11, 78, 68
12, 27681, Note_on_c, 11, 78, 0
12, 27690, Note_on_c, 11, 75, 68
12, 27711, Note_on_c, 11, 75, 0
12, 27720, Control_c, 11, 11, 96
12, 27720, Note_on_c, 11, 76, 68
12, 27741, Note_on_c, 11, 76, 0
12, 27750, Control_c, 11, 11, 99
12, 27750, Note_on_c, 11, 64, 68
12, 27771, Note_on_c, 11, 64, 0
12, 27780, Note_on_c, 11, 66, 68
12, 27780, Control_c, 11, 11, 101
12, 27801, Note_on_c, 11, 66, 0
12, 27810, Control_c, 11, 11, 104
12, 27810, Note_on_c, 11, 68, 68
12, 27831, Note_on_c, 11, 68, 0
12, 27840, Control_c, 11, 11, 106
12, 27840, Note_on_c, 11, 69, 68
12, 27861, Note_on_c, 11, 69, 0
12, 27870, Note_on_c, 11, 71, 68
12, 27870, Control_c, 11, 11, 109
12, 27891, Note_on_c, 11, 71, 0
12, 27900, Control_c, 11, 11, 112
12, 27900, Note_on_c, 11, 73, 68
12, 27921, Note_on_c, 11, 73, 0
12, 27930, Note_on_c, 11, 75, 68
12, 27930, Control_c, 11, 11, 114
12, 27951, Note_on_c, 11, 75, 0
12, 27960, Control_c, 11, 11, 117
12, 27960, Note_on_c, 11, 76, 68
12, 27981, Note_on_c, 11, 76, 0
12, 27990, Control_c, 11, 11, 119
12, 27990, Note_on_c, 11, 78, 68
12, 28011, Note_on_c, 11, 78, 0
12, 28020, Control_c, 11, 11, 122
12, 28020, Note_on_c, 11, 80, 68
12, 28041, Note_on_c, 11, 80, 0
12, 28050, Note_on_c, 11, 81, 68
12, 28050, Control_c, 11, 11, 124
12, 28071, Note_on_c, 11, 81, 0
12, 28080, Control_c, 11, 11, 127
12, 28080, Note_on_c, 11, 83, 44
12, 28199, Note_on_c, 11, 83, 0
12, 28320, Note_on_c, 11, 82, 44
12, 28349, Note_on_c, 11, 82, 0
12, 28350, Note_on_c, 11, 83, 44
12, 28375, Note_on_c, 11, 83, 0
12, 28380, Note_on_c, 11, 81, 44
12, 28401, Note_on_c, 11, 81, 0
12, 28410, Note_on_c, 11, 78, 44
12, 28431, Note_on_c, 11, 78, 0
12, 28680, Note_on_c, 11, 87, 44
12, 28709, Note_on_c, 11, 87, 0
12, 28710, Note_on_c, 11, 88, 44
12, 28735, Note_on_c, 11, 88, 0
12, 28740, Note_on_c, 11, 83, 44
12, 28761, Note_on_c, 11, 83, 0
12, 28770, Note_on_c, 11, 80, 44
12, 28791, Note_on_c, 11, 80, 0
12, 28800, Note_on_c, 11, 84, 44
12, 28829, Note_on_c, 11, 84, 0
12, 28830, Note_on_c, 11, 85, 44
12, 28855, Note_on_c, 11, 85, 0
12, 28860, Note_on_c, 11, 81, 44
12, 28881, Note_on_c, 11, 81, 0
12, 28890, Note_on_c, 11, 78, 44
12, 28911, Note_on_c, 11, 78, 0
12, 28920, Note_on_c, 11, 82, 44
12, 28949, Note_on_c, 11, 82, 0
12, 28950, Note_on_c, 11, 83, 44
12, 28975, Note_on_c, 11, 83, 0
12, 28980, Note_on_c, 11, 80, 44
12, 29001, Note_on_c, 11, 80, 0
12, 29010, Note_on_c, 11, 76, 44
12, 29031, Note_on_c, 11, 76, 0
12, 29040, Note_on_c, 11, 80, 44
12, 29069, Note_on_c, 11, 80, 0
12, 29070, Note_on_c, 11, 81, 44
12, 29095, Note_on_c, 11, 81, 0
12, 29100, Note_on_c, 11, 78, 44
12, 29121, Note_on_c, 11, 78, 0
12, 29130, Note_on_c, 11, 75, 44
12, 29151, Note_on_c, 11, 75, 0
12, 29160, Note_on_c, 11, 76, 52
12, 29215, Note_on_c, 11, 76, 0
12, 29220, Note_on_c, 11, 59, 52
12, 29220, Note_on_c, 11, 68, 52
12, 29271, Note_on_c, 11, 59, 0
12, 29271, Note_on_c, 11, 68, 0
12, 29280, Note_on_c, 11, 68, 52
12, 29280, Note_on_c, 11, 59, 52
12, 29331, Note_on_c, 11, 68, 0
12, 29331, Note_on_c, 11, 59, 0
12, 29340, Note_on_c, 11, 68, 52
12, 29340, Note_on_c, 11, 59, 52
12, 29391, Note_on_c, 11, 68, 0
12, 29391, Note_on_c, 11, 59, 0
12, 29400, Note_on_c, 11, 68, 52
12, 29400, Note_on_c, 11, 59, 52
12, 29451, Note_on_c, 11, 68, 0
12, 29451, Note_on_c, 11, 59, 0
12, 29460, Note_on_c, 11, 68, 52
12, 29460, Note_on_c, 11, 59, 52
12, 29511, Note_on_c, 11, 68, 0
12, 29511, Note_on_c, 11, 59, 0
12, 29520, Note_on_c, 11, 59, 52
12, 29520, Note_on_c, 11, 68, 52
12, 29571, Note_on_c, 11, 59, 0
12, 29571, Note_on_c, 11, 68, 0
12, 29580, Note_on_c, 11, 68, 52
12, 29580, Note_on_c, 11, 59, 52
12, 29631, Note_on_c, 11, 68, 0
12, 29631, Note_on_c, 11, 59, 0
12, 29640, Note_on_c, 11, 68, 52
12, 29640, Note_on_c, 11, 59, 52
12, 29691, Note_on_c, 11, 68, 0
12, 29691, Note_on_c, 11, 59, 0
12, 29700, Note_on_c, 11, 59, 52
12, 29700, Note_on_c, 11, 68, 52
12, 29751, Note_on_c, 11, 59, 0
12, 29751, Note_on_c, 11, 68, 0
12, 29760, Note_on_c, 11, 59, 52
12, 29760, Note_on_c, 11, 68, 52
12, 29811, Note_on_c, 11, 59, 0
12, 29811, Note_on_c, 11, 68, 0
12, 29820, Note_on_c, 11, 68, 52
12, 29820, Note_on_c, 11, 59, 52
12, 29871, Note_on_c, 11, 68, 0
12, 29871, Note_on_c, 11, 59, 0
12, 29880, Note_on_c, 11, 66, 52
12, 29880, Note_on_c, 11, 61, 52
12, 29931, Note_on_c, 11, 66, 0
12, 29931, Note_on_c, 11, 61, 0
12, 29940, Note_on_c, 11, 61, 52
12, 29940, Note_on_c, 11, 66, 52
12, 29991, Note_on_c, 11, 61, 0
12, 29991, Note_on_c, 11, 66, 0
12, 30000, Note_on_c, 11, 66, 52
12, 30000, Note_on_c, 11, 61, 52
12, 30051, Note_on_c, 11, 66, 0
12, 30051, Note_on_c, 11, 61, 0
12, 30060, Note_on_c, 11, 66, 52
12, 30060, Note_on_c, 11, 61, 52
12, 30111, Note_on_c, 11, 66, 0
12, 30111, Note_on_c, 11, 61, 0
12, 30120, Note_on_c, 11, 66, 52
12, 30120, Note_on_c, 11, 61, 52
12, 30171, Note_on_c, 11, 66, 0
12, 30171, Note_on_c, 11, 61, 0
12, 30180, Note_on_c, 11, 66, 52
12, 30180, Note_on_c, 11, 61, 52
12, 30231, Note_on_c, 11, 66, 0
12, 30231, Note_on_c, 11, 61, 0
12, 30240, Note_on_c, 11, 66, 52
12, 30240, Note_on_c, 11, 59, 52
12, 30291, Note_on_c, 11, 66, 0
12, 30291, Note_on_c, 11, 59, 0
12, 30300, Note_on_c, 11, 66, 52
12, 30300, Note_on_c, 11, 59, 52
12, 30351, Note_on_c, 11, 66, 0
12, 30351, Note_on_c, 11, 59, 0
12, 30360, Note_on_c, 11, 59, 52
12, 30360, Note_on_c, 11, 69, 52
12, 30411, Note_on_c, 11, 59, 0
12, 30411, Note_on_c, 11, 69, 0
12, 30420, Note_on_c, 11, 59, 52
12, 30420, Note_on_c, 11, 69, 52
12, 30471, Note_on_c, 11, 59, 0
12, 30471, Note_on_c, 11, 69, 0
12, 30480, Note_on_c, 11, 69, 52
12, 30480, Note_on_c, 11, 59, 52
12, 30531, Note_on_c, 11, 69, 0
12, 30531, Note_on_c, 11, 59, 0
12, 30540, Note_on_c, 11, 59, 52
12, 30540, Note_on_c, 11, 69, 52
12, 30591, Note_on_c, 11, 59, 0
12, 30591, Note_on_c, 11, 69, 0
12, 30600, Note_on_c, 11, 59, 52
12, 30600, Note_on_c, 11, 68, 52
12, 30651, Note_on_c, 11, 59, 0
12, 30651, Note_on_c, 11, 68, 0
12, 30660, Note_on_c, 11, 59, 52
12, 30660, Note_on_c, 11, 68, 52
12, 30711, Note_on_c, 11, 59, 0
12, 30711, Note_on_c, 11, 68, 0
12, 30720, Note_on_c, 11, 59, 52
12, 30720, Note_on_c, 11, 68, 52
12, 30771, Note_on_c, 11, 59, 0
12, 30771, Note_on_c, 11, 68, 0
12, 30780, Note_on_c, 11, 83, 52
12, 30839, Note_on_c, 11, 83, 0
12, 30840, Note_on_c, 11, 85, 52
12, 30869, Note_on_c, 11, 85, 0
12, 30870, Note_on_c, 11, 83, 52
12, 30899, Note_on_c, 11, 83, 0
12, 30900, Note_on_c, 11, 82, 52
12, 30929, Note_on_c, 11, 82, 0
12, 30930, Note_on_c, 11, 83, 52
12, 30955, Note_on_c, 11, 83, 0
12, 30960, Note_on_c, 11, 80, 52
12, 31004, Note_on_c, 11, 80, 0
12, 31020, Note_on_c, 11, 76, 52
12, 31064, Note_on_c, 11, 76, 0
12, 31080, Note_on_c, 11, 71, 52
12, 31124, Note_on_c, 11, 71, 0
12, 31140, Note_on_c, 11, 83, 52
12, 31199, Note_on_c, 11, 83, 0
12, 31200, Note_on_c, 11, 85, 52
12, 31229, Note_on_c, 11, 85, 0
12, 31230, Note_on_c, 11, 83, 52
12, 31259, Note_on_c, 11, 83, 0
12, 31260, Note_on_c, 11, 82, 52
12, 31289, Note_on_c, 11, 82, 0
12, 31290, Note_on_c, 11, 83, 52
12, 31315, Note_on_c, 11, 83, 0
12, 31320, Note_on_c, 11, 85, 52
12, 31364, Note_on_c, 11, 85, 0
12, 31380, Note_on_c, 11, 81, 52
12, 31424, Note_on_c, 11, 81, 0
12, 31440, Note_on_c, 11, 78, 52
12, 31484, Note_on_c, 11, 78, 0
12, 31500, Note_on_c, 11, 81, 52
12, 31559, Note_on_c, 11, 81, 0
12, 31560, Note_on_c, 11, 83, 52
12, 31589, Note_on_c, 11, 83, 0
12, 31590, Note_on_c, 11, 81, 52
12, 31619, Note_on_c, 11, 81, 0
12, 31620, Note_on_c, 11, 80, 52
12, 31649, Note_on_c, 11, 80, 0
12, 31650, Note_on_c, 11, 81, 52
12, 31675, Note_on_c, 11, 81, 0
12, 31680, Note_on_c, 11, 78, 52
12, 31724, Note_on_c, 11, 78, 0
12, 31740, Note_on_c, 11, 81, 52
12, 31784, Note_on_c, 11, 81, 0
12, 31800, Note_on_c, 11, 75, 52
12, 31844, Note_on_c, 11, 75, 0
12, 31860, Note_on_c, 11, 78, 52
12, 31904, Note_on_c, 11, 78, 0
12, 31920, Note_on_c, 11, 71, 52
12, 31964, Note_on_c, 11, 71, 0
12, 31980, Note_on_c, 11, 83, 52
12, 32024, Note_on_c, 11, 83, 0
12, 32040, Note_on_c, 11, 83, 52
12, 32159, Note_on_c, 11, 83, 0
12, 32400, Note_on_c, 11, 78, 52
12, 32459, Note_on_c, 11, 78, 0
12, 32460, Note_on_c, 11, 81, 52
12, 32515, Note_on_c, 11, 81, 0
12, 32520, Note_on_c, 11, 75, 52
12, 32579, Note_on_c, 11, 75, 0
12, 32580, Note_on_c, 11, 78, 52
12, 32635, Note_on_c, 11, 78, 0
12, 32640, Note_on_c, 11, 71, 52
12, 32699, Note_on_c, 11, 71, 0
12, 32700, Note_on_c, 11, 83, 52
12, 32755, Note_on_c, 11, 83, 0
12, 32760, Note_on_c, 11, 83, 52
12, 32879, Note_on_c, 11, 83, 0
12, 33000, Control_c, 11, 11, 80
12, 33120, Control_c, 11, 11, 80
12, 33120, Note_on_c, 11, 78, 76
12, 33150, Control_c, 11, 11, 84
12, 33159, Note_on_c, 11, 78, 0
12, 33160, Note_on_c, 11, 81, 76
12, 33180, Control_c, 11, 11, 88
12, 33195, Note_on_c, 11, 81, 0
12, 33200, Note_on_c, 11, 81, 76
12, 33210, Control_c, 11, 11, 92
12, 33229, Note_on_c, 11, 81, 0
12, 33240, Control_c, 11, 11, 96
12, 33240, Note_on_c, 11, 75, 76
12, 33270, Control_c, 11, 11, 100
12, 33279, Note_on_c, 11, 75, 0
12, 33280, Note_on_c, 11, 78, 76
12, 33300, Control_c, 11, 11, 104
12, 33315, Note_on_c, 11, 78, 0
12, 33320, Note_on_c, 11, 78, 76
12, 33330, Control_c, 11, 11, 107
12, 33349, Note_on_c, 11, 78, 0
12, 33360, Control_c, 11, 11, 111
12, 33360, Note_on_c, 11, 71, 76
12, 33390, Control_c, 11, 11, 115
12, 33399, Note_on_c, 11, 71, 0
12, 33400, Note_on_c, 11, 83, 76
12, 33420, Control_c, 11, 11, 119
12, 33435, Note_on_c, 11, 83, 0
12, 33440, Note_on_c, 11, 83, 76
12, 33450, Control_c, 11, 11, 123
12, 33469, Note_on_c, 11, 83, 0
12, 33480, Control_c, 11, 11, 127
12, 33480, Note_on_c, 11, 71, 76
12, 33480, Note_on_c, 11, 83, 76
12, 33524, Note_on_c, 11, 71, 0
12, 33524, Note_on_c, 11, 83, 0
12, 33540, Note_on_c, 11, 71, 84
12, 33540, Note_on_c, 11, 83, 84
12, 33651, Note_on_c, 11, 71, 0
12, 33651, Note_on_c, 11, 83, 0
12, 33660, Note_on_c, 11, 71, 76
12, 33660, Note_on_c, 11, 83, 76
12, 33704, Note_on_c, 11, 71, 0
12, 33704, Note_on_c, 11, 83, 0
12, 33720, Note_on_c, 11, 83, 76
12, 33720, Note_on_c, 11, 71, 76
12, 33764, Note_on_c, 11, 83, 0
12, 33764, Note_on_c, 11, 71, 0
12, 33780, Note_on_c, 11, 83, 76
12, 33780, Note_on_c, 11, 71, 76
12, 33824, Note_on_c, 11, 83, 0
12, 33824, Note_on_c, 11, 71, 0
12, 33840, Note_on_c, 11, 83, 76
12, 33840, Note_on_c, 11, 71, 76
12, 33884, Note_on_c, 11, 83, 0
12, 33884, Note_on_c, 11, 71, 0
12, 33900, Note_on_c, 11, 83, 84
12, 33900, Note_on_c, 11, 71, 84
12, 34011, Note_on_c, 11, 83, 0
12, 34011, Note_on_c, 11, 71, 0
12, 34020, Note_on_c, 11, 83, 76
12, 34020, Note_on_c, 11, 71, 76
12, 34064, Note_on_c, 11, 83, 0
12, 34064, Note_on_c, 11, 71, 0
12, 34080, Note_on_c, 11, 83, 76
12, 34080, Note_on_c, 11, 71, 76
12, 34124, Note_on_c, 11, 83, 0
12, 34124, Note_on_c, 11, 71, 0
12, 34140, Note_on_c, 11, 83, 76
12, 34140, Note_on_c, 11, 71, 76
12, 34184, Note_on_c, 11, 83, 0
12, 34184, Note_on_c, 11, 71, 0
12, 34200, Note_on_c, 11, 71, 76
12, 34200, Note_on_c, 11, 83, 76
12, 34319, Note_on_c, 11, 71, 0
12, 34320, Control_c, 11, 11, 80
12, 34345, Note_on_c, 11, 83, 0
12, 34350, Note_on_c, 11, 83, 76
12, 34379, Note_on_c, 11, 83, 0
12, 34380, Note_on_c, 11, 80, 76
12, 34409, Note_on_c, 11, 80, 0
12, 34410, Note_on_c, 11, 76, 76
12, 34439, Note_on_c, 11, 76, 0
12, 34440, Note_on_c, 11, 71, 76
12, 34469, Note_on_c, 11, 71, 0
12, 34470, Note_on_c, 11, 80, 76
12, 34499, Note_on_c, 11, 80, 0
12, 34500, Note_on_c, 11, 76, 76
12, 34529, Note_on_c, 11, 76, 0
12, 34530, Note_on_c, 11, 71, 76
12, 34555, Note_on_c, 11, 71, 0
12, 34560, Note_on_c, 11, 68, 76
12, 34560, Control_c, 11, 11, 80
12, 34605, Control_c, 11, 11, 79
12, 34650, Control_c, 11, 11, 78
12, 34695, Control_c, 11, 11, 77
12, 34705, Note_on_c, 11, 68, 0
12, 34710, Note_on_c, 11, 80, 76
12, 34739, Note_on_c, 11, 80, 0
12, 34740, Control_c, 11, 11, 76
12, 34740, Note_on_c, 11, 76, 76
12, 34769, Note_on_c, 11, 76, 0
12, 34770, Note_on_c, 11, 71, 76
12, 34785, Control_c, 11, 11, 75
12, 34799, Note_on_c, 11, 71, 0
12, 34800, Note_on_c, 11, 68, 76
12, 34829, Note_on_c, 11, 68, 0
12, 34830, Note_on_c, 11, 76, 76
12, 34830, Control_c, 11, 11, 74
12, 34859, Note_on_c, 11, 76, 0
12, 34860, Note_on_c, 11, 71, 76
12, 34875, Control_c, 11, 11, 73
12, 34889, Note_on_c, 11, 71, 0
12, 34890, Note_on_c, 11, 68, 76
12, 34915, Note_on_c, 11, 68, 0
12, 34920, Control_c, 11, 11, 72
12, 34920, Note_on_c, 11, 64, 76
12, 35129, Note_on_c, 11, 64, 0
12, 35130, Note_on_c, 11, 63, 76
12, 35159, Note_on_c, 11, 63, 0
12, 35160, Note_on_c, 11, 64, 76
12, 35189, Note_on_c, 11, 64, 0
12, 35190, Note_on_c, 11, 63, 76
12, 35219, Note_on_c, 11, 63, 0
12, 35220, Note_on_c, 11, 64, 76
12, 35249, Note_on_c, 11, 64, 0
12, 35250, Note_on_c, 11, 63, 76
12, 35271, Note_on_c, 11, 63, 0
12, 35276, Control_c, 11, 11, 96
12, 35280, Note_on_c, 11, 64, 68
12, 35369, Note_on_c, 11, 64, 0
12, 35400, Note_on_c, 11, 64, 68
12, 35489, Note_on_c, 11, 64, 0
12, 35520, Note_on_c, 11, 64, 68
12, 35609, Note_on_c, 11, 64, 0
12, 35640, Note_on_c, 11, 64, 68
12, 35640, Control_c, 11, 11, 96
12, 35670, Control_c, 11, 11, 99
12, 35700, Control_c, 11, 11, 101
12, 35730, Control_c, 11, 11, 104
12, 35759, Note_on_c, 11, 64, 0
12, 35760, Note_on_c, 11, 69, 68
12, 35760, Control_c, 11, 11, 106
12, 35790, Control_c, 11, 11, 109
12, 35820, Control_c, 11, 11, 112
12, 35850, Control_c, 11, 11, 114
12, 35879, Note_on_c, 11, 69, 0
12, 35880, Control_c, 11, 11, 117
12, 35880, Note_on_c, 11, 71, 68
12, 35910, Control_c, 11, 11, 119
12, 35940, Control_c, 11, 11, 122
12, 35970, Control_c, 11, 11, 124
12, 35991, Note_on_c, 11, 71, 0
12, 36000, Control_c, 11, 11, 127
12, 36000, Note_on_c, 11, 72, 52
12, 36021, Note_on_c, 11, 72, 0
12, 36030, Note_on_c, 11, 76, 52
12, 36051, Note_on_c, 11, 76, 0
12, 36060, Note_on_c, 11, 74, 52
12, 36081, Note_on_c, 11, 74, 0
12, 36090, Note_on_c, 11, 72, 52
12, 36111, Note_on_c, 11, 72, 0
12, 36120, Note_on_c, 11, 71, 52
12, 36141, Note_on_c, 11, 71, 0
12, 36150, Note_on_c, 11, 69, 52
12, 36171, Note_on_c, 11, 69, 0
12, 36180, Note_on_c, 11, 68, 52
12, 36201, Note_on_c, 11, 68, 0
12, 36210, Note_on_c, 11, 65, 52
12, 36231, Note_on_c, 11, 65, 0
12, 36240, Note_on_c, 11, 64, 52
12, 36261, Note_on_c, 11, 64, 0
12, 36270, Note_on_c, 11, 62, 52
12, 36291, Note_on_c, 11, 62, 0
12, 36300, Note_on_c, 11, 60, 52
12, 36321, Note_on_c, 11, 60, 0
12, 36330, Note_on_c, 11, 59, 52
12, 36351, Note_on_c, 11, 59, 0
12, 36360, Note_on_c, 11, 57, 52
12, 36479, Note_on_c, 11, 57, 0
12, 36750, Note_on_c, 11, 64, 52
12, 36771, Note_on_c, 11, 64, 0
12, 36780, Note_on_c, 11, 66, 52
12, 36801, Note_on_c, 11, 66, 0
12, 36810, Note_on_c, 11, 68, 52
12, 36831, Note_on_c, 11, 68, 0
12, 36840, Note_on_c, 11, 69, 52
12, 36861, Note_on_c, 11, 69, 0
12, 36870, Note_on_c, 11, 71, 52
12, 36891, Note_on_c, 11, 71, 0
12, 36900, Note_on_c, 11, 73, 52
12, 36921, Note_on_c, 11, 73, 0
12, 36930, Note_on_c, 11, 75, 52
12, 36951, Note_on_c, 11, 75, 0
12, 36960, Note_on_c, 11, 76, 52
12, 36989, Note_on_c, 11, 76, 0
12, 36990, Note_on_c, 11, 75, 52
12, 37019, Note_on_c, 11, 75, 0
12, 37020, Note_on_c, 11, 76, 52
12, 37049, Note_on_c, 11, 76, 0
12, 37050, Note_on_c, 11, 75, 52
12, 37075, Note_on_c, 11, 75, 0
12, 37080, Note_on_c, 11, 76, 52
12, 37199, Note_on_c, 11, 76, 0
12, 37440, Note_on_c, 11, 76, 52
12, 37461, Note_on_c, 11, 76, 0
12, 37470, Note_on_c, 11, 79, 52
12, 37491, Note_on_c, 11, 79, 0
12, 37500, Note_on_c, 11, 77, 52
12, 37521, Note_on_c, 11, 77, 0
12, 37530, Note_on_c, 11, 76, 52
12, 37551, Note_on_c, 11, 76, 0
12, 37560, Note_on_c, 11, 74, 52
12, 37581, Note_on_c, 11, 74, 0
12, 37590, Note_on_c, 11, 72, 52
12, 37611, Note_on_c, 11, 72, 0
12, 37620, Note_on_c, 11, 71, 52
12, 37641, Note_on_c, 11, 71, 0
12, 37650, Note_on_c, 11, 69, 52
12, 37671, Note_on_c, 11, 69, 0
12, 37680, Note_on_c, 11, 67, 52
12, 37701, Note_on_c, 11, 67, 0
12, 37710, Note_on_c, 11, 65, 52
12, 37731, Note_on_c, 11, 65, 0
12, 37740, Note_on_c, 11, 64, 52
12, 37761, Note_on_c, 11, 64, 0
12, 37770, Note_on_c, 11, 62, 52
12, 37791, Note_on_c, 11, 62, 0
12, 37800, Note_on_c, 11, 60, 52
12, 37919, Note_on_c, 11, 60, 0
12, 38160, Note_on_c, 11, 55, 52
12, 38181, Note_on_c, 11, 55, 0
12, 38190, Note_on_c, 11, 67, 52
12, 38211, Note_on_c, 11, 67, 0
12, 38220, Note_on_c, 11, 69, 52
12, 38241, Note_on_c, 11, 69, 0
12, 38250, Note_on_c, 11, 71, 52
12, 38271, Note_on_c, 11, 71, 0
12, 38280, Note_on_c, 11, 72, 52
12, 38301, Note_on_c, 11, 72, 0
12, 38310, Note_on_c, 11, 74, 52
12, 38331, Note_on_c, 11, 74, 0
12, 38340, Note_on_c, 11, 76, 52
12, 38361, Note_on_c, 11, 76, 0
12, 38370, Note_on_c, 11, 78, 52
12, 38391, Note_on_c, 11, 78, 0
12, 38400, Note_on_c, 11, 79, 52
12, 38429, Note_on_c, 11, 79, 0
12, 38430, Note_on_c, 11, 78, 52
12, 38459, Note_on_c, 11, 78, 0
12, 38460, Note_on_c, 11, 79, 52
12, 38489, Note_on_c, 11, 79, 0
12, 38490, Note_on_c, 11, 78, 52
12, 38515, Note_on_c, 11, 78, 0
12, 38520, Note_on_c, 11, 79, 52
12, 38571, Note_on_c, 11, 79, 0
12, 38580, Note_on_c, 11, 79, 52
12, 38631, Note_on_c, 11, 79, 0
12, 38640, Note_on_c, 11, 79, 52
12, 38691, Note_on_c, 11, 79, 0
12, 38700, Note_on_c, 11, 79, 52
12, 38751, Note_on_c, 11, 79, 0
12, 38760, Note_on_c, 11, 79, 52
12, 38811, Note_on_c, 11, 79, 0
12, 38820, Note_on_c, 11, 79, 52
12, 38871, Note_on_c, 11, 79, 0
12, 38880, Note_on_c, 11, 79, 52
12, 38931, Note_on_c, 11, 79, 0
12, 38940, Note_on_c, 11, 79, 52
12, 38991, Note_on_c, 11, 79, 0
12, 39000, Note_on_c, 11, 79, 52
12, 39051, Note_on_c, 11, 79, 0
12, 39060, Note_on_c, 11, 79, 52
12, 39111, Note_on_c, 11, 79, 0
12, 39120, Note_on_c, 11, 79, 52
12, 39171, Note_on_c, 11, 79, 0
12, 39180, Note_on_c, 11, 79, 52
12, 39231, Note_on_c, 11, 79, 0
12, 39240, Note_on_c, 11, 79, 52
12, 39291, Note_on_c, 11, 79, 0
12, 39300, Note_on_c, 11, 79, 52
12, 39351, Note_on_c, 11, 79, 0
12, 39360, Note_on_c, 11, 79, 52
12, 39411, Note_on_c, 11, 79, 0
12, 39420, Note_on_c, 11, 79, 52
12, 39471, Note_on_c, 11, 79, 0
12, 39480, Note_on_c, 11, 79, 52
12, 39531, Note_on_c, 11, 79, 0
12, 39540, Note_on_c, 11, 79, 52
12, 39591, Note_on_c, 11, 79, 0
12, 39600, Note_on_c, 11, 79, 52
12, 39651, Note_on_c, 11, 79, 0
12, 39660, Note_on_c, 11, 79, 52
12, 39711, Note_on_c, 11, 79, 0
12, 39720, Note_on_c, 11, 79, 52
12, 39771, Note_on_c, 11, 79, 0
12, 39780, Note_on_c, 11, 79, 52
12, 39831, Note_on_c, 11, 79, 0
12, 39840, Note_on_c, 11, 79, 52
12, 39891, Note_on_c, 11, 79, 0
12, 39900, Note_on_c, 11, 79, 52
12, 39951, Note_on_c, 11, 79, 0
12, 39960, Note_on_c, 11, 79, 52
12, 40011, Note_on_c, 11, 79, 0
12, 40020, Note_on_c, 11, 79, 52
12, 40071, Note_on_c, 11, 79, 0
12, 40080, Note_on_c, 11, 79, 52
12, 40131, Note_on_c, 11, 79, 0
12, 40140, Note_on_c, 11, 79, 52
12, 40191, Note_on_c, 11, 79, 0
12, 40200, Note_on_c, 11, 79, 52
12, 40251, Note_on_c, 11, 79, 0
12, 40260, Note_on_c, 11, 79, 52
12, 40311, Note_on_c, 11, 79, 0
12, 40320, Note_on_c, 11, 79, 52
12, 40371, Note_on_c, 11, 79, 0
12, 40380, Note_on_c, 11, 79, 54
12, 40431, Note_on_c, 11, 79, 0
12, 40440, Note_on_c, 11, 79, 56
12, 40491, Note_on_c, 11, 79, 0
12, 40500, Note_on_c, 11, 79, 58
12, 40551, Note_on_c, 11, 79, 0
12, 40560, Note_on_c, 11, 79, 60
12, 40611, Note_on_c, 11, 79, 0
12, 40620, Note_on_c, 11, 79, 62
12, 40671, Note_on_c, 11, 79, 0
12, 40680, Note_on_c, 11, 76, 64
12, 40680, Note_on_c, 11, 79, 64
12, 40731, Note_on_c, 11, 76, 0
12, 40731, Note_on_c, 11, 79, 0
12, 40740, Note_on_c, 11, 79, 66
12, 40740, Note_on_c, 11, 76, 66
12, 40791, Note_on_c, 11, 79, 0
12, 40791, Note_on_c, 11, 76, 0
12, 40800, Note_on_c, 11, 79, 68
12, 40800, Note_on_c, 11, 76, 68
12, 40851, Note_on_c, 11, 79, 0
12, 40851, Note_on_c, 11, 76, 0
12, 40860, Note_on_c, 11, 79, 70
12, 40860, Note_on_c, 11, 76, 70
12, 40911, Note_on_c, 11, 79, 0
12, 40911, Note_on_c, 11, 76, 0
12, 40920, Note_on_c, 11, 79, 72
12, 40920, Note_on_c, 11, 76, 72
12, 40971, Note_on_c, 11, 79, 0
12, 40971, Note_on_c, 11, 76, 0
12, 40980, Note_on_c, 11, 76, 74
12, 40980, Note_on_c, 11, 79, 74
12, 41031, Note_on_c, 11, 76, 0
12, 41031, Note_on_c, 11, 79, 0
12, 41040, Note_on_c, 11, 76, 76
12, 41040, Note_on_c, 11, 79, 76
12, 41159, Note_on_c, 11, 76, 0
12, 41189, Note_on_c, 11, 79, 0
12, 41190, Note_on_c, 11, 78, 76
12, 41219, Note_on_c, 11, 78, 0
12, 41220, Note_on_c, 11, 76, 76
12, 41241, Note_on_c, 11, 76, 0
12, 41250, Note_on_c, 11, 75, 76
12, 41271, Note_on_c, 11, 75, 0
12, 41280, Note_on_c, 11, 76, 76
12, 41301, Note_on_c, 11, 76, 0
12, 41310, Note_on_c, 11, 78, 76
12, 41331, Note_on_c, 11, 78, 0
12, 41340, Note_on_c, 11, 79, 76
12, 41361, Note_on_c, 11, 79, 0
12, 41370, Note_on_c, 11, 81, 76
12, 41391, Note_on_c, 11, 81, 0
12, 41400, Note_on_c, 11, 83, 76
12, 41421, Note_on_c, 11, 83, 0
12, 41430, Note_on_c, 11, 84, 76
12, 41451, Note_on_c, 11, 84, 0
12, 41460, Note_on_c, 11, 83, 76
12, 41481, Note_on_c, 11, 83, 0
12, 41490, Note_on_c, 11, 84, 76
12, 41511, Note_on_c, 11, 84, 0
12, 41520, Note_on_c, 11, 83, 76
12, 41541, Note_on_c, 11, 83, 0
12, 41550, Note_on_c, 11, 84, 76
12, 41571, Note_on_c, 11, 84, 0
12, 41580, Note_on_c, 11, 83, 76
12, 41601, Note_on_c, 11, 83, 0
12, 41610, Note_on_c, 11, 84, 76
12, 41631, Note_on_c, 11, 84, 0
12, 41640, Note_on_c, 11, 83, 76
12, 41661, Note_on_c, 11, 83, 0
12, 41670, Note_on_c, 11, 81, 76
12, 41691, Note_on_c, 11, 81, 0
12, 41700, Note_on_c, 11, 79, 76
12, 41721, Note_on_c, 11, 79, 0
12, 41730, Note_on_c, 11, 77, 76
12, 41751, Note_on_c, 11, 77, 0
12, 41760, Note_on_c, 11, 76, 76
12, 41804, Note_on_c, 11, 76, 0
12, 41820, Note_on_c, 11, 71, 44
12, 41871, Note_on_c, 11, 71, 0
12, 41880, Note_on_c, 11, 71, 44
12, 41931, Note_on_c, 11, 71, 0
12, 41940, Note_on_c, 11, 71, 44
12, 41991, Note_on_c, 11, 71, 0
12, 42000, Note_on_c, 11, 71, 44
12, 42051, Note_on_c, 11, 71, 0
12, 42060, Note_on_c, 11, 71, 44
12, 42111, Note_on_c, 11, 71, 0
12, 42120, Note_on_c, 11, 71, 44
12, 42171, Note_on_c, 11, 71, 0
12, 42180, Note_on_c, 11, 71, 44
12, 42231, Note_on_c, 11, 71, 0
12, 42240, Note_on_c, 11, 71, 44
12, 42291, Note_on_c, 11, 71, 0
12, 42300, Note_on_c, 11, 71, 44
12, 42351, Note_on_c, 11, 71, 0
12, 42360, Note_on_c, 11, 71, 44
12, 42411, Note_on_c, 11, 71, 0
12, 42420, Note_on_c, 11, 71, 44
12, 42471, Note_on_c, 11, 71, 0
12, 42480, Note_on_c, 11, 71, 44
12, 42531, Note_on_c, 11, 71, 0
12, 42540, Note_on_c, 11, 71, 44
12, 42591, Note_on_c, 11, 71, 0
12, 42600, Note_on_c, 11, 71, 44
12, 42651, Note_on_c, 11, 71, 0
12, 42660, Note_on_c, 11, 71, 44
12, 42711, Note_on_c, 11, 71, 0
12, 42720, Note_on_c, 11, 71, 44
12, 42771, Note_on_c, 11, 71, 0
12, 42780, Note_on_c, 11, 71, 44
12, 42831, Note_on_c, 11, 71, 0
12, 42840, Note_on_c, 11, 71, 44
12, 42891, Note_on_c, 11, 71, 0
12, 42900, Note_on_c, 11, 71, 44
12, 42951, Note_on_c, 11, 71, 0
12, 42960, Note_on_c, 11, 71, 44
12, 43011, Note_on_c, 11, 71, 0
12, 43020, Note_on_c, 11, 71, 44
12, 43071, Note_on_c, 11, 71, 0
12, 43080, Note_on_c, 11, 71, 44
12, 43131, Note_on_c, 11, 71, 0
12, 43140, Note_on_c, 11, 71, 44
12, 43191, Note_on_c, 11, 71, 0
12, 43200, Note_on_c, 11, 71, 44
12, 43251, Note_on_c, 11, 71, 0
12, 43260, Note_on_c, 11, 71, 44
12, 43311, Note_on_c, 11, 71, 0
12, 43320, Note_on_c, 11, 71, 44
12, 43371, Note_on_c, 11, 71, 0
12, 43380, Note_on_c, 11, 71, 44
12, 43431, Note_on_c, 11, 71, 0
12, 43440, Note_on_c, 11, 71, 44
12, 43491, Note_on_c, 11, 71, 0
12, 43500, Note_on_c, 11, 71, 44
12, 43551, Note_on_c, 11, 71, 0
12, 43560, Note_on_c, 11, 71, 44
12, 43611, Note_on_c, 11, 71, 0
12, 43620, Note_on_c, 11, 71, 44
12, 43671, Note_on_c, 11, 71, 0
12, 43680, Note_on_c, 11, 71, 44
12, 43731, Note_on_c, 11, 71, 0
12, 43740, Note_on_c, 11, 71, 44
12, 43791, Note_on_c, 11, 71, 0
12, 43800, Note_on_c, 11, 71, 44
12, 43851, Note_on_c, 11, 71, 0
12, 43860, Note_on_c, 11, 71, 44
12, 43911, Note_on_c, 11, 71, 0
12, 43920, Note_on_c, 11, 71, 44
12, 43971, Note_on_c, 11, 71, 0
12, 43980, Note_on_c, 11, 71, 44
12, 44031, Note_on_c, 11, 71, 0
12, 44040, Note_on_c, 11, 71, 44
12, 44091, Note_on_c, 11, 71, 0
12, 44100, Note_on_c, 11, 71, 44
12, 44151, Note_on_c, 11, 71, 0
12, 44160, Note_on_c, 11, 71, 44
12, 44211, Note_on_c, 11, 71, 0
12, 44220, Note_on_c, 11, 71, 44
12, 44271, Note_on_c, 11, 71, 0
12, 44280, Note_on_c, 11, 71, 44
12, 44331, Note_on_c, 11, 71, 0
12, 44340, Note_on_c, 11, 80, 46
12, 44391, Note_on_c, 11, 80, 0
12, 44400, Note_on_c, 11, 80, 49
12, 44451, Note_on_c, 11, 80, 0
12, 44460, Note_on_c, 11, 80, 52
12, 44511, Note_on_c, 11, 80, 0
12, 44520, Note_on_c, 11, 80, 54
12, 44571, Note_on_c, 11, 80, 0
12, 44580, Note_on_c, 11, 80, 57
12, 44631, Note_on_c, 11, 80, 0
12, 44640, Note_on_c, 11, 80, 60
12, 44691, Note_on_c, 11, 80, 0
12, 44700, Note_on_c, 11, 80, 62
12, 44751, Note_on_c, 11, 80, 0
12, 44760, Note_on_c, 11, 80, 65
12, 44811, Note_on_c, 11, 80, 0
12, 44820, Note_on_c, 11, 80, 68
12, 44871, Note_on_c, 11, 80, 0
12, 44880, Note_on_c, 11, 80, 70
12, 44931, Note_on_c, 11, 80, 0
12, 44940, Note_on_c, 11, 80, 73
12, 44991, Note_on_c, 11, 80, 0
12, 45000, Note_on_c, 11, 81, 76
12, 45000, Note_on_c, 11, 69, 76
12, 45119, Note_on_c, 11, 69, 0
12, 45149, Note_on_c, 11, 81, 0
12, 45150, Note_on_c, 11, 79, 76
12, 45175, Note_on_c, 11, 79, 0
12, 45180, Note_on_c, 11, 77, 76
12, 45201, Note_on_c, 11, 77, 0
12, 45210, Note_on_c, 11, 76, 76
12, 45231, Note_on_c, 11, 76, 0
12, 45240, Note_on_c, 11, 77, 76
12, 45261, Note_on_c, 11, 77, 0
12, 45270, Note_on_c, 11, 79, 76
12, 45291, Note_on_c, 11, 79, 0
12, 45300, Note_on_c, 11, 81, 76
12, 45321, Note_on_c, 11, 81, 0
12, 45330, Note_on_c, 11, 82, 76
12, 45351, Note_on_c, 11, 82, 0
12, 45360, Note_on_c, 11, 84, 76
12, 45381, Note_on_c, 11, 84, 0
12, 45390, Note_on_c, 11, 86, 76
12, 45411, Note_on_c, 11, 86, 0
12, 45420, Note_on_c, 11, 84, 76
12, 45441, Note_on_c, 11, 84, 0
12, 45450, Note_on_c, 11, 86, 76
12, 45471, Note_on_c, 11, 86, 0
12, 45480, Note_on_c, 11, 84, 76
12, 45501, Note_on_c, 11, 84, 0
12, 45510, Note_on_c, 11, 86, 76
12, 45531, Note_on_c, 11, 86, 0
12, 45540, Note_on_c, 11, 84, 76
12, 45561, Note_on_c, 11, 84, 0
12, 45570, Note_on_c, 11, 86, 76
12, 45591, Note_on_c, 11, 86, 0
12, 45600, Note_on_c, 11, 84, 76
12, 45621, Note_on_c, 11, 84, 0
12, 45630, Note_on_c, 11, 82, 76
12, 45651, Note_on_c, 11, 82, 0
12, 45660, Note_on_c, 11, 81, 76
12, 45681, Note_on_c, 11, 81, 0
12, 45690, Note_on_c, 11, 79, 76
12, 45711, Note_on_c, 11, 79, 0
12, 45720, Note_on_c, 11, 77, 76
12, 45839, Note_on_c, 11, 77, 0
12, 46110, Note_on_c, 11, 84, 84
12, 46139, Note_on_c, 11, 84, 0
12, 46140, Note_on_c, 11, 81, 84
12, 46169, Note_on_c, 11, 81, 0
12, 46170, Note_on_c, 11, 77, 84
12, 46195, Note_on_c, 11, 77, 0
12, 46200, Note_on_c, 11, 72, 84
12, 46221, Note_on_c, 11, 72, 0
12, 46230, Note_on_c, 11, 72, 84
12, 46259, Note_on_c, 11, 72, 0
12, 46260, Note_on_c, 11, 69, 84
12, 46289, Note_on_c, 11, 69, 0
12, 46290, Note_on_c, 11, 65, 84
12, 46315, Note_on_c, 11, 65, 0
12, 46320, Note_on_c, 11, 60, 84
12, 46341, Note_on_c, 11, 60, 0
12, 46350, Note_on_c, 11, 72, 84
12, 46379, Note_on_c, 11, 72, 0
12, 46380, Note_on_c, 11, 69, 84
12, 46409, Note_on_c, 11, 69, 0
12, 46410, Note_on_c, 11, 65, 84
12, 46435, Note_on_c, 11, 65, 0
12, 46440, Note_on_c, 11, 60, 84
12, 46529, Note_on_c, 11, 60, 0
12, 46830, Note_on_c, 11, 84, 84
12, 46859, Note_on_c, 11, 84, 0
12, 46860, Note_on_c, 11, 79, 84
12, 46889, Note_on_c, 11, 79, 0
12, 46890, Note_on_c, 11, 76, 84
12, 46915, Note_on_c, 11, 76, 0
12, 46920, Note_on_c, 11, 72, 84
12, 46941, Note_on_c, 11, 72, 0
12, 46950, Note_on_c, 11, 72, 84
12, 46979, Note_on_c, 11, 72, 0
12, 46980, Note_on_c, 11, 67, 84
12, 47009, Note_on_c, 11, 67, 0
12, 47010, Note_on_c, 11, 64, 84
12, 47035, Note_on_c, 11, 64, 0
12, 47040, Note_on_c, 11, 60, 84
12, 47061, Note_on_c, 11, 60, 0
12, 47070, Note_on_c, 11, 72, 84
12, 47099, Note_on_c, 11, 72, 0
12, 47100, Note_on_c, 11, 67, 84
12, 47129, Note_on_c, 11, 67, 0
12, 47130, Note_on_c, 11, 64, 84
12, 47155, Note_on_c, 11, 64, 0
12, 47160, Note_on_c, 11, 60, 84
12, 47249, Note_on_c, 11, 60, 0
12, 47550, Note_on_c, 11, 84, 84
12, 47579, Note_on_c, 11, 84, 0
12, 47580, Note_on_c, 11, 80, 84
12, 47609, Note_on_c, 11, 80, 0
12, 47610, Note_on_c, 11, 77, 84
12, 47635, Note_on_c, 11, 77, 0
12, 47640, Note_on_c, 11, 72, 84
12, 47661, Note_on_c, 11, 72, 0
12, 47670, Note_on_c, 11, 72, 84
12, 47699, Note_on_c, 11, 72, 0
12, 47700, Note_on_c, 11, 68, 84
12, 47729, Note_on_c, 11, 68, 0
12, 47730, Note_on_c, 11, 65, 84
12, 47755, Note_on_c, 11, 65, 0
12, 47760, Note_on_c, 11, 60, 84
12, 47781, Note_on_c, 11, 60, 0
12, 47790, Note_on_c, 11, 72, 84
12, 47819, Note_on_c, 11, 72, 0
12, 47820, Note_on_c, 11, 68, 84
12, 47849, Note_on_c, 11, 68, 0
12, 47850, Note_on_c, 11, 65, 84
12, 47875, Note_on_c, 11, 65, 0
12, 47880, Note_on_c, 11, 60, 84
12, 47969, Note_on_c, 11, 60, 0
12, 48270, Note_on_c, 11, 84, 84
12, 48299, Note_on_c, 11, 84, 0
12, 48300, Note_on_c, 11, 79, 84
12, 48329, Note_on_c, 11, 79, 0
12, 48330, Note_on_c, 11, 76, 84
12, 48355, Note_on_c, 11, 76, 0
12, 48360, Note_on_c, 11, 72, 84
12, 48381, Note_on_c, 11, 72, 0
12, 48390, Note_on_c, 11, 72, 84
12, 48419, Note_on_c, 11, 72, 0
12, 48420, Note_on_c, 11, 67, 84
12, 48449, Note_on_c, 11, 67, 0
12, 48450, Note_on_c, 11, 64, 84
12, 48475, Note_on_c, 11, 64, 0
12, 48480, Note_on_c, 11, 60, 84
12, 48501, Note_on_c, 11, 60, 0
12, 48510, Note_on_c, 11, 72, 84
12, 48539, Note_on_c, 11, 72, 0
12, 48540, Note_on_c, 11, 67, 84
12, 48569, Note_on_c, 11, 67, 0
12, 48570, Note_on_c, 11, 64, 84
12, 48595, Note_on_c, 11, 64, 0
12, 48600, Note_on_c, 11, 60, 84
12, 48644, Note_on_c, 11, 60, 0
12, 48660, Note_on_c, 11, 72, 84
12, 48660, Note_on_c, 11, 84, 84
12, 48685, Note_on_c, 11, 72, 0
12, 48685, Note_on_c, 11, 84, 0
12, 48690, Note_on_c, 11, 84, 84
12, 48690, Note_on_c, 11, 72, 84
12, 48715, Note_on_c, 11, 84, 0
12, 48715, Note_on_c, 11, 72, 0
12, 48720, Note_on_c, 11, 84, 84
12, 48720, Note_on_c, 11, 72, 84
12, 48775, Note_on_c, 11, 84, 0
12, 48775, Note_on_c, 11, 72, 0
12, 48780, Note_on_c, 11, 72, 84
12, 48780, Note_on_c, 11, 84, 84
12, 48805, Note_on_c, 11, 72, 0
12, 48805, Note_on_c, 11, 84, 0
12, 48810, Note_on_c, 11, 72, 84
12, 48810, Note_on_c, 11, 84, 84
12, 48835, Note_on_c, 11, 72, 0
12, 48835, Note_on_c, 11, 84, 0
12, 48840, Note_on_c, 11, 84, 84
12, 48840, Note_on_c, 11, 72, 84
12, 48895, Note_on_c, 11, 84, 0
12, 48895, Note_on_c, 11, 72, 0
12, 48900, Note_on_c, 11, 84, 84
12, 48900, Note_on_c, 11, 72, 84
12, 48925, Note_on_c, 11, 84, 0
12, 48925, Note_on_c, 11, 72, 0
12, 48930, Note_on_c, 11, 72, 84
12, 48930, Note_on_c, 11, 84, 84
12, 48955, Note_on_c, 11, 72, 0
12, 48955, Note_on_c, 11, 84, 0
12, 48960, Note_on_c, 11, 72, 84
12, 48960, Note_on_c, 11, 84, 84
12, 49015, Note_on_c, 11, 72, 0
12, 49015, Note_on_c, 11, 84, 0
12, 49020, Note_on_c, 11, 84, 84
12, 49020, Note_on_c, 11, 72, 84
12, 49045, Note_on_c, 11, 84, 0
12, 49045, Note_on_c, 11, 72, 0
12, 49050, Note_on_c, 11, 84, 84
12, 49050, Note_on_c, 11, 72, 84
12, 49075, Note_on_c, 11, 84, 0
12, 49075, Note_on_c, 11, 72, 0
12, 49080, Note_on_c, 11, 72, 84
12, 49080, Note_on_c, 11, 84, 84
12, 49135, Note_on_c, 11, 72, 0
12, 49135, Note_on_c, 11, 84, 0
12, 49140, Note_on_c, 11, 84, 84
12, 49140, Note_on_c, 11, 72, 84
12, 49165, Note_on_c, 11, 84, 0
12, 49165, Note_on_c, 11, 72, 0
12, 49170, Note_on_c, 11, 72, 84
12, 49170, Note_on_c, 11, 84, 84
12, 49195, Note_on_c, 11, 72, 0
12, 49195, Note_on_c, 11, 84, 0
12, 49200, Note_on_c, 11, 84, 84
12, 49200, Note_on_c, 11, 72, 84
12, 49255, Note_on_c, 11, 84, 0
12, 49255, Note_on_c, 11, 72, 0
12, 49260, Note_on_c, 11, 72, 84
12, 49260, Note_on_c, 11, 84, 84
12, 49285, Note_on_c, 11, 72, 0
12, 49285, Note_on_c, 11, 84, 0
12, 49290, Note_on_c, 11, 72, 84
12, 49290, Note_on_c, 11, 84, 84
12, 49311, Note_on_c, 11, 84, 0
12, 49315, Note_on_c, 11, 72, 0
12, 49316, Control_c, 11, 11, 96
12, 49320, Note_on_c, 11, 83, 68
12, 49375, Note_on_c, 11, 83, 0
12, 49380, Note_on_c, 11, 78, 68
12, 49424, Note_on_c, 11, 78, 0
12, 49440, Note_on_c, 11, 79, 68
12, 49484, Note_on_c, 11, 79, 0
12, 49500, Note_on_c, 11, 78, 68
12, 49544, Note_on_c, 11, 78, 0
12, 49560, Note_on_c, 11, 79, 68
12, 49800, Control_c, 11, 11, 96
12, 49855, Note_on_c, 11, 79, 0
12, 49860, Note_on_c, 11, 78, 68
12, 49880, Control_c, 11, 11, 99
12, 49904, Note_on_c, 11, 78, 0
12, 49920, Note_on_c, 11, 79, 68
12, 49960, Control_c, 11, 11, 101
12, 50040, Control_c, 11, 11, 104
12, 50120, Control_c, 11, 11, 106
12, 50200, Control_c, 11, 11, 109
12, 50215, Note_on_c, 11, 79, 0
12, 50220, Note_on_c, 11, 78, 68
12, 50264, Note_on_c, 11, 78, 0
12, 50280, Note_on_c, 11, 79, 68
12, 50280, Control_c, 11, 11, 112
12, 50360, Control_c, 11, 11, 114
12, 50440, Control_c, 11, 11, 117
12, 50520, Control_c, 11, 11, 119
12, 50575, Note_on_c, 11, 79, 0
12, 50580, Note_on_c, 11, 79, 68
12, 50600, Control_c, 11, 11, 122
12, 50639, Note_on_c, 11, 79, 0
12, 50640, Note_on_c, 11, 80, 68
12, 50680, Control_c, 11, 11, 127
12, 50699, Note_on_c, 11, 80, 0
12, 50700, Note_on_c, 11, 81, 68
12, 50755, Note_on_c, 11, 81, 0
12, 50760, Note_on_c, 11, 74, 52
12, 50879, Note_on_c, 11, 74, 0
12, 51000, Control_c, 11, 11, 96
12, 51060, Note_on_c, 11, 83, 68
12, 51104, Note_on_c, 11, 83, 0
12, 51120, Note_on_c, 11, 84, 68
12, 51120, Control_c, 11, 11, 96
12, 51164, Note_on_c, 11, 84, 0
12, 51180, Note_on_c, 11, 83, 68
12, 51180, Control_c, 11, 11, 99
12, 51224, Note_on_c, 11, 83, 0
12, 51240, Note_on_c, 11, 84, 68
12, 51240, Control_c, 11, 11, 101
12, 51300, Control_c, 11, 11, 104
12, 51360, Control_c, 11, 11, 106
12, 51415, Note_on_c, 11, 84, 0
12, 51420, Control_c, 11, 11, 109
12, 51420, Note_on_c, 11, 85, 68
12, 51464, Note_on_c, 11, 85, 0
12, 51480, Control_c, 11, 11, 112
12, 51480, Note_on_c, 11, 86, 68
12, 51524, Note_on_c, 11, 86, 0
12, 51540, Note_on_c, 11, 85, 68
12, 51540, Control_c, 11, 11, 114
12, 51584, Note_on_c, 11, 85, 0
12, 51600, Control_c, 11, 11, 117
12, 51600, Note_on_c, 11, 86, 68
12, 51660, Control_c, 11, 11, 119
12, 51720, Control_c, 11, 11, 122
12, 51775, Note_on_c, 11, 86, 0
12, 51780, Note_on_c, 11, 85, 68
12, 51780, Control_c, 11, 11, 124
12, 51824, Note_on_c, 11, 85, 0
12, 51840, Control_c, 11, 11, 127
12, 51840, Note_on_c, 11, 86, 76
12, 52011, Note_on_c, 11, 86, 0
12, 52020, Note_on_c, 11, 85, 68
12, 52064, Note_on_c, 11, 85, 0
12, 52080, Note_on_c, 11, 86, 76
12, 52251, Note_on_c, 11, 86, 0
12, 52260, Note_on_c, 11, 85, 68
12, 52304, Note_on_c, 11, 85, 0
12, 52320, Note_on_c, 11, 86, 76
12, 52491, Note_on_c, 11, 86, 0
12, 52500, Note_on_c, 11, 88, 68
12, 52544, Note_on_c, 11, 88, 0
12, 52560, Note_on_c, 11, 89, 76
12, 52731, Note_on_c, 11, 89, 0
12, 52740, Note_on_c, 11, 88, 68
12, 52784, Note_on_c, 11, 88, 0
12, 52800, Note_on_c, 11, 89, 76
12, 52911, Note_on_c, 11, 89, 0
12, 52920, Note_on_c, 11, 89, 84
12, 52971, Note_on_c, 11, 89, 0
12, 52980, Note_on_c, 11, 89, 84
12, 53031, Note_on_c, 11, 89, 0
12, 53040, Note_on_c, 11, 89, 84
12, 53091, Note_on_c, 11, 89, 0
12, 53100, Note_on_c, 11, 89, 84
12, 53151, Note_on_c, 11, 89, 0
12, 53160, Note_on_c, 11, 89, 84
12, 53211, Note_on_c, 11, 89, 0
12, 53220, Note_on_c, 11, 89, 84
12, 53271, Note_on_c, 11, 89, 0
12, 53280, Note_on_c, 11, 90, 84
12, 53331, Note_on_c, 11, 90, 0
12, 53340, Note_on_c, 11, 90, 84
12, 53391, Note_on_c, 11, 90, 0
12, 53400, Note_on_c, 11, 90, 84
12, 53451, Note_on_c, 11, 90, 0
12, 53460, Note_on_c, 11, 90, 84
12, 53511, Note_on_c, 11, 90, 0
12, 53520, Note_on_c, 11, 90, 84
12, 53571, Note_on_c, 11, 90, 0
12, 53580, Note_on_c, 11, 90, 84
12, 53631, Note_on_c, 11, 90, 0
12, 53640, Note_on_c, 11, 91, 84
12, 53691, Note_on_c, 11, 91, 0
12, 53700, Note_on_c, 11, 91, 84
12, 53751, Note_on_c, 11, 91, 0
12, 53760, Note_on_c, 11, 91, 84
12, 53811, Note_on_c, 11, 91, 0
12, 53820, Note_on_c, 11, 91, 84
12, 53871, Note_on_c, 11, 91, 0
12, 53880, Note_on_c, 11, 91, 84
12, 53931, Note_on_c, 11, 91, 0
12, 53940, Note_on_c, 11, 91, 84
12, 53991, Note_on_c, 11, 91, 0
12, 54000, Note_on_c, 11, 90, 84
12, 54051, Note_on_c, 11, 90, 0
12, 54060, Note_on_c, 11, 90, 84
12, 54111, Note_on_c, 11, 90, 0
12, 54120, Note_on_c, 11, 90, 84
12, 54171, Note_on_c, 11, 90, 0
12, 54180, Note_on_c, 11, 90, 84
12, 54231, Note_on_c, 11, 90, 0
12, 54240, Note_on_c, 11, 90, 84
12, 54291, Note_on_c, 11, 90, 0
12, 54300, Note_on_c, 11, 90, 84
12, 54351, Note_on_c, 11, 90, 0
12, 54360, Note_on_c, 11, 90, 92
12, 54411, Note_on_c, 11, 90, 0
12, 54420, Note_on_c, 11, 90, 84
12, 54471, Note_on_c, 11, 90, 0
12, 54480, Note_on_c, 11, 90, 84
12, 54531, Note_on_c, 11, 90, 0
12, 54540, Note_on_c, 11, 90, 84
12, 54591, Note_on_c, 11, 90, 0
12, 54600, Note_on_c, 11, 90, 84
12, 54651, Note_on_c, 11, 90, 0
12, 54660, Note_on_c, 11, 90, 84
12, 54711, Note_on_c, 11, 90, 0
12, 54720, Note_on_c, 11, 90, 84
12, 54720, Control_c, 11, 11, 127
12, 54750, Control_c, 11, 11, 122
12, 54771, Note_on_c, 11, 90, 0
12, 54780, Note_on_c, 11, 90, 84
12, 54780, Control_c, 11, 11, 117
12, 54810, Control_c, 11, 11, 111
12, 54831, Note_on_c, 11, 90, 0
12, 54840, Control_c, 11, 11, 106
12, 54840, Note_on_c, 11, 88, 84
12, 54870, Control_c, 11, 11, 101
12, 54891, Note_on_c, 11, 88, 0
12, 54900, Control_c, 11, 11, 96
12, 54900, Note_on_c, 11, 88, 84
12, 54930, Control_c, 11, 11, 90
12, 54951, Note_on_c, 11, 88, 0
12, 54960, Note_on_c, 11, 86, 84
12, 54960, Control_c, 11, 11, 85
12, 54990, Control_c, 11, 11, 80
12, 55011, Note_on_c, 11, 86, 0
12, 55020, Note_on_c, 11, 86, 84
12, 55020, Control_c, 11, 11, 75
12, 55050, Control_c, 11, 11, 69
12, 55071, Note_on_c, 11, 86, 0
12, 55080, Note_on_c, 11, 85, 84
12, 55080, Control_c, 11, 11, 64
12, 55124, Note_on_c, 11, 85, 0
12, 55140, Note_on_c, 11, 73, 84
12, 55184, Note_on_c, 11, 73, 0
12, 55200, Note_on_c, 11, 76, 84
12, 55244, Note_on_c, 11, 76, 0
12, 55260, Note_on_c, 11, 81, 84
12, 55304, Note_on_c, 11, 81, 0
12, 55320, Note_on_c, 11, 85, 84
12, 55364, Note_on_c, 11, 85, 0
12, 55380, Note_on_c, 11, 88, 84
12, 55424, Note_on_c, 11, 88, 0
12, 55440, Control_c, 11, 11, 64
12, 55470, Control_c, 11, 11, 63
12, 55500, Control_c, 11, 11, 61
12, 55500, Note_on_c, 11, 71, 84
12, 55530, Control_c, 11, 11, 60
12, 55544, Note_on_c, 11, 71, 0
12, 55560, Control_c, 11, 11, 59
12, 55560, Note_on_c, 11, 74, 84
12, 55590, Control_c, 11, 11, 57
12, 55604, Note_on_c, 11, 74, 0
12, 55620, Control_c, 11, 11, 56
12, 55620, Note_on_c, 11, 78, 84
12, 55650, Control_c, 11, 11, 55
12, 55664, Note_on_c, 11, 78, 0
12, 55680, Control_c, 11, 11, 53
12, 55680, Note_on_c, 11, 83, 84
12, 55710, Control_c, 11, 11, 52
12, 55724, Note_on_c, 11, 83, 0
12, 55740, Control_c, 11, 11, 51
12, 55740, Note_on_c, 11, 86, 84
12, 55770, Control_c, 11, 11, 49
12, 55784, Note_on_c, 11, 86, 0
12, 55800, Control_c, 11, 11, 48
12, 55860, Note_on_c, 11, 69, 84
12, 55904, Note_on_c, 11, 69, 0
12, 55920, Note_on_c, 11, 73, 84
12, 55964, Note_on_c, 11, 73, 0
12, 55980, Note_on_c, 11, 76, 84
12, 56024, Note_on_c, 11, 76, 0
12, 56040, Note_on_c, 11, 81, 84
12, 56084, Note_on_c, 11, 81, 0
12, 56100, Note_on_c, 11, 85, 84
12, 56144, Note_on_c, 11, 85, 0
12, 56160, Control_c, 11, 11, 48
12, 56190, Control_c, 11, 11, 52
12, 56220, Control_c, 11, 11, 56
12, 56220, Note_on_c, 11, 80, 84
12, 56250, Control_c, 11, 11, 60
12, 56264, Note_on_c, 11, 80, 0
12, 56280, Control_c, 11, 11, 64
12, 56280, Note_on_c, 11, 83, 84
12, 56310, Control_c, 11, 11, 68
12, 56324, Note_on_c, 11, 83, 0
12, 56340, Control_c, 11, 11, 72
12, 56340, Note_on_c, 11, 68, 84
12, 56370, Control_c, 11, 11, 76
12, 56384, Note_on_c, 11, 68, 0
12, 56400, Control_c, 11, 11, 80
12, 56400, Note_on_c, 11, 71, 84
12, 56430, Control_c, 11, 11, 84
12, 56444, Note_on_c, 11, 71, 0
12, 56460, Note_on_c, 11, 64, 84
12, 56460, Control_c, 11, 11, 88
12, 56490, Control_c, 11, 11, 92
12, 56504, Note_on_c, 11, 64, 0
12, 56520, Note_on_c, 11, 64, 84
12, 56520, Control_c, 11, 11, 64
12, 56639, Note_on_c, 11, 64, 0
12, 56640, Note_on_c, 11, 69, 84
12, 56759, Note_on_c, 11, 69, 0
12, 56760, Note_on_c, 11, 71, 84
12, 56871, Note_on_c, 11, 71, 0
12, 56876, Control_c, 11, 11, 96
12, 56880, Note_on_c, 11, 73, 68
12, 57231, Note_on_c, 11, 73, 0
12, 57240, Note_on_c, 11, 73, 68
12, 57254, Note_on_c, 11, 73, 0
12, 57255, Note_on_c, 11, 74, 68
12, 57269, Note_on_c, 11, 74, 0
12, 57270, Note_on_c, 11, 73, 68
12, 57284, Note_on_c, 11, 73, 0
12, 57285, Note_on_c, 11, 74, 68
12, 57299, Note_on_c, 11, 74, 0
12, 57300, Note_on_c, 11, 73, 68
12, 57314, Note_on_c, 11, 73, 0
12, 57315, Note_on_c, 11, 74, 68
12, 57329, Note_on_c, 11, 74, 0
12, 57330, Note_on_c, 11, 71, 68
12, 57344, Note_on_c, 11, 71, 0
12, 57345, Note_on_c, 11, 73, 68
12, 57359, Note_on_c, 11, 73, 0
12, 57360, Note_on_c, 11, 76, 68
12, 57449, Note_on_c, 11, 76, 0
12, 57450, Note_on_c, 11, 74, 68
12, 57479, Note_on_c, 11, 74, 0
12, 57480, Note_on_c, 11, 73, 68
12, 57591, Note_on_c, 11, 73, 0
12, 57600, Note_on_c, 11, 71, 68
12, 57951, Note_on_c, 11, 71, 0
12, 57960, Note_on_c, 11, 76, 68
12, 57960, Control_c, 11, 11, 96
12, 58020, Control_c, 11, 11, 99
12, 58079, Note_on_c, 11, 76, 0
12, 58080, Note_on_c, 11, 74, 68
12, 58080, Control_c, 11, 11, 101
12, 58140, Control_c, 11, 11, 104
12, 58199, Note_on_c, 11, 74, 0
12, 58200, Control_c, 11, 11, 106
12, 58200, Note_on_c, 11, 73, 68
12, 58260, Control_c, 11, 11, 109
12, 58311, Note_on_c, 11, 73, 0
12, 58320, Note_on_c, 11, 71, 68
12, 58320, Control_c, 11, 11, 112
12, 58380, Control_c, 11, 11, 114
12, 58440, Control_c, 11, 11, 117
12, 58500, Control_c, 11, 11, 119
12, 58559, Note_on_c, 11, 71, 0
12, 58560, Control_c, 11, 11, 122
12, 58560, Note_on_c, 11, 73, 68
12, 58620, Control_c, 11, 11, 124
12, 58671, Note_on_c, 11, 73, 0
12, 58676, Control_c, 11, 11, 96
12, 58680, Note_on_c, 11, 68, 68
12, 58919, Note_on_c, 11, 68, 0
12, 58920, Note_on_c, 11, 69, 68
12, 59009, Note_on_c, 11, 69, 0
12, 59010, Note_on_c, 11, 66, 68
12, 59035, Note_on_c, 11, 66, 0
12, 59040, Control_c, 11, 11, 96
12, 59040, Note_on_c, 11, 64, 68
12, 59070, Control_c, 11, 11, 99
12, 59084, Note_on_c, 11, 64, 0
12, 59100, Control_c, 11, 11, 101
12, 59100, Note_on_c, 11, 64, 68
12, 59130, Control_c, 11, 11, 104
12, 59159, Note_on_c, 11, 64, 0
12, 59160, Note_on_c, 11, 66, 68
12, 59160, Control_c, 11, 11, 106
12, 59190, Control_c, 11, 11, 109
12, 59219, Note_on_c, 11, 66, 0
12, 59220, Control_c, 11, 11, 112
12, 59220, Note_on_c, 11, 68, 68
12, 59250, Control_c, 11, 11, 114
12, 59279, Note_on_c, 11, 68, 0
12, 59280, Note_on_c, 11, 69, 68
12, 59280, Control_c, 11, 11, 117
12, 59310, Control_c, 11, 11, 119
12, 59339, Note_on_c, 11, 69, 0
12, 59340, Control_c, 11, 11, 122
12, 59340, Note_on_c, 11, 71, 68
12, 59370, Control_c, 11, 11, 124
12, 59391, Note_on_c, 11, 71, 0
12, 59396, Control_c, 11, 11, 96
12, 59400, Note_on_c, 11, 73, 68
12, 59444, Note_on_c, 11, 73, 0
12, 59460, Note_on_c, 11, 73, 68
12, 59489, Note_on_c, 11, 73, 0
12, 59490, Note_on_c, 11, 76, 68
12, 59519, Note_on_c, 11, 76, 0
12, 59580, Note_on_c, 11, 69, 68
12, 59609, Note_on_c, 11, 69, 0
12, 59610, Note_on_c, 11, 76, 68
12, 59639, Note_on_c, 11, 76, 0
12, 59700, Note_on_c, 11, 71, 68
12, 59729, Note_on_c, 11, 71, 0
12, 59730, Note_on_c, 11, 76, 68
12, 59759, Note_on_c, 11, 76, 0
12, 59820, Note_on_c, 11, 69, 68
12, 59849, Note_on_c, 11, 69, 0
12, 59850, Note_on_c, 11, 73, 68
12, 59879, Note_on_c, 11, 73, 0
12, 59880, Note_on_c, 11, 76, 68
12, 59909, Note_on_c, 11, 76, 0
12, 59910, Note_on_c, 11, 73, 68
12, 59939, Note_on_c, 11, 73, 0
12, 59940, Note_on_c, 11, 81, 68
12, 59969, Note_on_c, 11, 81, 0
12, 59970, Note_on_c, 11, 76, 68
12, 59995, Note_on_c, 11, 76, 0
12, 60000, Note_on_c, 11, 85, 68
12, 60029, Note_on_c, 11, 85, 0
12, 60030, Note_on_c, 11, 81, 68
12, 60055, Note_on_c, 11, 81, 0
12, 60060, Note_on_c, 11, 88, 68
12, 60081, Note_on_c, 11, 88, 0
12, 60090, Note_on_c, 11, 88, 68
12, 60111, Note_on_c, 11, 88, 0
12, 60180, Note_on_c, 11, 73, 68
12, 60209, Note_on_c, 11, 73, 0
12, 60210, Note_on_c, 11, 76, 68
12, 60239, Note_on_c, 11, 76, 0
12, 60300, Note_on_c, 11, 74, 68
12, 60329, Note_on_c, 11, 74, 0
12, 60330, Note_on_c, 11, 76, 68
12, 60359, Note_on_c, 11, 76, 0
12, 60420, Note_on_c, 11, 73, 68
12, 60449, Note_on_c, 11, 73, 0
12, 60450, Note_on_c, 11, 76, 68
12, 60479, Note_on_c, 11, 76, 0
12, 60540, Note_on_c, 11, 83, 68
12, 60569, Note_on_c, 11, 83, 0
12, 60570, Note_on_c, 11, 80, 68
12, 60599, Note_on_c, 11, 80, 0
12, 60600, Note_on_c, 11, 76, 68
12, 60629, Note_on_c, 11, 76, 0
12, 60630, Note_on_c, 11, 80, 68
12, 60659, Note_on_c, 11, 80, 0
12, 60660, Note_on_c, 11, 71, 68
12, 60689, Note_on_c, 11, 71, 0
12, 60690, Note_on_c, 11, 76, 68
12, 60715, Note_on_c, 11, 76, 0
12, 60720, Note_on_c, 11, 68, 68
12, 60749, Note_on_c, 11, 68, 0
12, 60750, Note_on_c, 11, 71, 68
12, 60775, Note_on_c, 11, 71, 0
12, 60780, Note_on_c, 11, 64, 68
12, 60801, Note_on_c, 11, 64, 0
12, 60810, Note_on_c, 11, 64, 68
12, 60831, Note_on_c, 11, 64, 0
12, 60840, Control_c, 11, 11, 96
12, 60870, Control_c, 11, 11, 99
12, 60900, Note_on_c, 11, 76, 68
12, 60900, Control_c, 11, 11, 101
12, 60929, Note_on_c, 11, 76, 0
12, 60930, Note_on_c, 11, 88, 68
12, 60930, Control_c, 11, 11, 104
12, 60959, Note_on_c, 11, 88, 0
12, 60960, Control_c, 11, 11, 106
12, 60990, Control_c, 11, 11, 109
12, 61020, Note_on_c, 11, 76, 68
12, 61020, Control_c, 11, 11, 112
12, 61049, Note_on_c, 11, 76, 0
12, 61050, Control_c, 11, 11, 114
12, 61050, Note_on_c, 11, 88, 68
12, 61079, Note_on_c, 11, 88, 0
12, 61080, Control_c, 11, 11, 117
12, 61110, Control_c, 11, 11, 119
12, 61140, Note_on_c, 11, 76, 68
12, 61140, Control_c, 11, 11, 122
12, 61169, Note_on_c, 11, 76, 0
12, 61170, Control_c, 11, 11, 124
12, 61170, Note_on_c, 11, 88, 68
12, 61199, Note_on_c, 11, 88, 0
12, 61200, Control_c, 11, 11, 127
12, 61260, Note_on_c, 11, 88, 76
12, 61371, Note_on_c, 11, 88, 0
12, 61380, Note_on_c, 11, 88, 68
12, 61424, Note_on_c, 11, 88, 0
12, 61440, Note_on_c, 11, 88, 68
12, 61484, Note_on_c, 11, 88, 0
12, 61500, Note_on_c, 11, 88, 68
12, 61544, Note_on_c, 11, 88, 0
12, 61620, Note_on_c, 11, 83, 52
12, 61641, Note_on_c, 11, 83, 0
12, 61650, Note_on_c, 11, 83, 52
12, 61671, Note_on_c, 11, 83, 0
12, 61680, Note_on_c, 11, 83, 52
12, 61709, Note_on_c, 11, 83, 0
12, 61710, Note_on_c, 11, 82, 52
12, 61735, Note_on_c, 11, 82, 0
12, 61740, Note_on_c, 11, 83, 52
12, 61761, Note_on_c, 11, 83, 0
12, 61770, Note_on_c, 11, 83, 52
12, 61791, Note_on_c, 11, 83, 0
12, 61800, Note_on_c, 11, 83, 52
12, 61829, Note_on_c, 11, 83, 0
12, 61830, Note_on_c, 11, 82, 52
12, 61855, Note_on_c, 11, 82, 0
12, 61860, Note_on_c, 11, 83, 52
12, 61881, Note_on_c, 11, 83, 0
12, 61890, Note_on_c, 11, 83, 52
12, 61911, Note_on_c, 11, 83, 0
12, 61920, Note_on_c, 11, 83, 52
12, 61949, Note_on_c, 11, 83, 0
12, 61950, Note_on_c, 11, 80, 52
12, 61975, Note_on_c, 11, 80, 0
12, 61980, Note_on_c, 11, 76, 52
12, 62024, Note_on_c, 11, 76, 0
12, 62160, Note_on_c, 11, 64, 52
12, 62249, Note_on_c, 11, 64, 0
12, 62250, Note_on_c, 11, 71, 52
12, 62275, Note_on_c, 11, 71, 0
12, 62280, Note_on_c, 11, 71, 52
12, 62399, Note_on_c, 11, 71, 0
12, 62400, Note_on_c, 11, 69, 52
12, 62519, Note_on_c, 11, 69, 0
12, 62520, Note_on_c, 11, 71, 52
12, 62631, Note_on_c, 11, 71, 0
12, 62640, Note_on_c, 11, 72, 52
12, 62759, Note_on_c, 11, 72, 0
12, 62760, Note_on_c, 11, 73, 52
12, 62819, Note_on_c, 11, 73, 0
12, 62880, Note_on_c, 11, 64, 52
12, 62969, Note_on_c, 11, 64, 0
12, 62970, Note_on_c, 11, 73, 52
12, 62995, Note_on_c, 11, 73, 0
12, 63000, Note_on_c, 11, 73, 52
12, 63119, Note_on_c, 11, 73, 0
12, 63120, Note_on_c, 11, 71, 52
12, 63239, Note_on_c, 11, 71, 0
12, 63240, Note_on_c, 11, 73, 52
12, 63351, Note_on_c, 11, 73, 0
12, 63360, Note_on_c, 11, 73, 52
12, 63479, Note_on_c, 11, 73, 0
12, 63480, Note_on_c, 11, 74, 52
12, 63539, Note_on_c, 11, 74, 0
12, 63540, Control_c, 11, 11, 96
12, 63600, Note_on_c, 11, 74, 68
12, 63711, Note_on_c, 11, 74, 0
12, 63720, Control_c, 11, 11, 96
12, 63720, Note_on_c, 11, 74, 68
12, 63750, Control_c, 11, 11, 99
12, 63780, Control_c, 11, 11, 101
12, 63810, Control_c, 11, 11, 104
12, 63840, Control_c, 11, 11, 106
12, 63870, Control_c, 11, 11, 109
12, 63900, Control_c, 11, 11, 112
12, 63930, Control_c, 11, 11, 114
12, 63959, Note_on_c, 11, 74, 0
12, 63960, Note_on_c, 11, 76, 68
12, 63960, Control_c, 11, 11, 117
12, 63990, Control_c, 11, 11, 119
12, 64020, Control_c, 11, 11, 122
12, 64049, Note_on_c, 11, 76, 0
12, 64050, Control_c, 11, 11, 124
12, 64050, Note_on_c, 11, 78, 68
12, 64075, Note_on_c, 11, 78, 0
12, 64080, Note_on_c, 11, 78, 76
12, 64080, Control_c, 11, 11, 127
12, 64139, Note_on_c, 11, 78, 0
12, 64140, Note_on_c, 11, 71, 68
12, 64200, Control_c, 11, 11, 127
12, 64220, Control_c, 11, 11, 124
12, 64240, Control_c, 11, 11, 122
12, 64260, Control_c, 11, 11, 119
12, 64280, Control_c, 11, 11, 117
12, 64300, Control_c, 11, 11, 114
12, 64319, Note_on_c, 11, 71, 0
12, 64320, Note_on_c, 11, 73, 68
12, 64320, Control_c, 11, 11, 112
12, 64340, Control_c, 11, 11, 109
12, 64360, Control_c, 11, 11, 106
12, 64380, Control_c, 11, 11, 104
12, 64400, Control_c, 11, 11, 101
12, 64420, Control_c, 11, 11, 99
12, 64431, Note_on_c, 11, 73, 0
12, 64440, Control_c, 11, 11, 96
12, 64440, Note_on_c, 11, 76, 68
12, 64619, Note_on_c, 11, 76, 0
12, 64620, Note_on_c, 11, 74, 68
12, 64679, Note_on_c, 11, 74, 0
12, 64680, Note_on_c, 11, 73, 68
12, 64739, Note_on_c, 11, 73, 0
12, 64740, Note_on_c, 11, 71, 68
12, 64795, Note_on_c, 11, 71, 0
12, 64800, Note_on_c, 11, 71, 68
12, 64919, Note_on_c, 11, 71, 0
12, 64920, Note_on_c, 11, 73, 68
12, 65031, Note_on_c, 11, 73, 0
12, 65040, Note_on_c, 11, 76, 68
12, 65084, Note_on_c, 11, 76, 0
12, 65100, Note_on_c, 11, 76, 68
12, 65144, Note_on_c, 11, 76, 0
12, 65160, Note_on_c, 11, 76, 68
12, 65215, Note_on_c, 11, 76, 0
12, 65220, Note_on_c, 11, 88, 68
12, 65331, Note_on_c, 11, 88, 0
12, 65340, Note_on_c, 11, 88, 68
12, 65429, Note_on_c, 11, 88, 0
12, 65460, Note_on_c, 11, 88, 68
12, 65571, Note_on_c, 11, 88, 0
12, 65580, Note_on_c, 11, 88, 84
12, 65691, Note_on_c, 11, 88, 0
12, 65700, Note_on_c, 11, 87, 68
12, 65729, Note_on_c, 11, 87, 0
12, 65730, Note_on_c, 11, 88, 68
12, 65759, Note_on_c, 11, 88, 0
12, 65760, Note_on_c, 11, 87, 68
12, 65789, Note_on_c, 11, 87, 0
12, 65790, Note_on_c, 11, 88, 68
12, 65815, Note_on_c, 11, 88, 0
12, 65820, Note_on_c, 11, 85, 68
12, 65841, Note_on_c, 11, 85, 0
12, 65850, Note_on_c, 11, 81, 68
12, 65871, Note_on_c, 11, 81, 0
12, 65880, Note_on_c, 11, 76, 68
12, 65935, Note_on_c, 11, 76, 0
12, 65940, Note_on_c, 11, 88, 68
12, 66051, Note_on_c, 11, 88, 0
12, 66060, Note_on_c, 11, 88, 68
12, 66171, Note_on_c, 11, 88, 0
12, 66180, Note_on_c, 11, 88, 68
12, 66235, Note_on_c, 11, 88, 0
12, 66240, Note_on_c, 11, 88, 68
12, 66295, Note_on_c, 11, 88, 0
12, 66300, Note_on_c, 11, 88, 84
12, 66411, Note_on_c, 11, 88, 0
12, 66420, Note_on_c, 11, 86, 68
12, 66449, Note_on_c, 11, 86, 0
12, 66450, Note_on_c, 11, 85, 68
12, 66475, Note_on_c, 11, 85, 0
12, 66480, Note_on_c, 11, 85, 68
12, 66509, Note_on_c, 11, 85, 0
12, 66510, Note_on_c, 11, 83, 68
12, 66535, Note_on_c, 11, 83, 0
12, 66540, Note_on_c, 11, 81, 68
12, 66561, Note_on_c, 11, 81, 0
12, 66570, Note_on_c, 11, 80, 68
12, 66591, Note_on_c, 11, 80, 0
12, 66600, Note_on_c, 11, 80, 68
12, 66600, Control_c, 11, 11, 96
12, 66629, Note_on_c, 11, 80, 0
12, 66630, Control_c, 11, 11, 99
12, 66630, Note_on_c, 11, 78, 68
12, 66655, Note_on_c, 11, 78, 0
12, 66660, Note_on_c, 11, 78, 68
12, 66660, Control_c, 11, 11, 101
12, 66681, Note_on_c, 11, 78, 0
12, 66690, Control_c, 11, 11, 104
12, 66690, Note_on_c, 11, 76, 68
12, 66711, Note_on_c, 11, 76, 0
12, 66720, Note_on_c, 11, 74, 68
12, 66720, Control_c, 11, 11, 106
12, 66749, Note_on_c, 11, 74, 0
12, 66750, Note_on_c, 11, 76, 68
12, 66750, Control_c, 11, 11, 109
12, 66779, Note_on_c, 11, 76, 0
12, 66780, Control_c, 11, 11, 112
12, 66780, Note_on_c, 11, 73, 68
12, 66809, Note_on_c, 11, 73, 0
12, 66810, Note_on_c, 11, 74, 68
12, 66810, Control_c, 11, 11, 114
12, 66839, Note_on_c, 11, 74, 0
12, 66840, Note_on_c, 11, 71, 68
12, 66840, Control_c, 11, 11, 117
12, 66869, Note_on_c, 11, 71, 0
12, 66870, Note_on_c, 11, 73, 68
12, 66870, Control_c, 11, 11, 119
12, 66899, Note_on_c, 11, 73, 0
12, 66900, Control_c, 11, 11, 122
12, 66900, Note_on_c, 11, 69, 68
12, 66929, Note_on_c, 11, 69, 0
12, 66930, Note_on_c, 11, 71, 68
12, 66930, Control_c, 11, 11, 124
12, 66955, Note_on_c, 11, 71, 0
12, 66960, Control_c, 11, 11, 127
12, 66960, Note_on_c, 11, 68, 68
12, 66981, Note_on_c, 11, 68, 0
12, 66990, Note_on_c, 11, 69, 67
12, 67011, Note_on_c, 11, 69, 0
12, 67020, Note_on_c, 11, 71, 66
12, 67041, Note_on_c, 11, 71, 0
12, 67050, Note_on_c, 11, 73, 64
12, 67071, Note_on_c, 11, 73, 0
12, 67080, Note_on_c, 11, 74, 63
12, 67101, Note_on_c, 11, 74, 0
12, 67110, Note_on_c, 11, 76, 62
12, 67131, Note_on_c, 11, 76, 0
12, 67140, Note_on_c, 11, 78, 60
12, 67161, Note_on_c, 11, 78, 0
12, 67170, Note_on_c, 11, 80, 59
12, 67191, Note_on_c, 11, 80, 0
12, 67200, Note_on_c, 11, 81, 58
12, 67221, Note_on_c, 11, 81, 0
12, 67230, Note_on_c, 11, 83, 56
12, 67251, Note_on_c, 11, 83, 0
12, 67260, Note_on_c, 11, 85, 55
12, 67281, Note_on_c, 11, 85, 0
12, 67290, Note_on_c, 11, 85, 54
12, 67311, Note_on_c, 11, 85, 0
12, 67380, Note_on_c, 11, 74, 52
12, 67409, Note_on_c, 11, 74, 0
12, 67410, Note_on_c, 11, 86, 52
12, 67439, Note_on_c, 11, 86, 0
12, 67500, Note_on_c, 11, 74, 52
12, 67529, Note_on_c, 11, 74, 0
12, 67530, Note_on_c, 11, 86, 52
12, 67559, Note_on_c, 11, 86, 0
12, 67620, Note_on_c, 11, 80, 52
12, 67649, Note_on_c, 11, 80, 0
12, 67650, Note_on_c, 11, 83, 52
12, 67675, Note_on_c, 11, 83, 0
12, 67680, Note_on_c, 11, 81, 52
12, 67799, Note_on_c, 11, 81, 0
12, 68700, Note_on_c, 11, 76, 52
12, 68755, Note_on_c, 11, 76, 0
12, 68760, Note_on_c, 11, 76, 52
12, 68849, Note_on_c, 11, 76, 0
12, 68850, Note_on_c, 11, 83, 52
12, 68875, Note_on_c, 11, 83, 0
12, 68880, Note_on_c, 11, 86, 68
12, 69059, Note_on_c, 11, 86, 0
12, 69060, Note_on_c, 11, 83, 52
12, 69115, Note_on_c, 11, 83, 0
12, 69120, Note_on_c, 11, 81, 52
12, 69209, Note_on_c, 11, 81, 0
12, 69210, Note_on_c, 11, 85, 52
12, 69235, Note_on_c, 11, 85, 0
12, 69240, Note_on_c, 11, 88, 52
12, 69329, Note_on_c, 11, 88, 0
12, 70140, Note_on_c, 11, 76, 52
12, 70195, Note_on_c, 11, 76, 0
12, 70200, Note_on_c, 11, 76, 52
12, 70289, Note_on_c, 11, 76, 0
12, 70290, Note_on_c, 11, 83, 52
12, 70315, Note_on_c, 11, 83, 0
12, 70320, Note_on_c, 11, 86, 68
12, 70499, Note_on_c, 11, 86, 0
12, 70500, Note_on_c, 11, 83, 52
12, 70555, Note_on_c, 11, 83, 0
12, 70560, Note_on_c, 11, 81, 52
12, 70649, Note_on_c, 11, 81, 0
12, 70650, Note_on_c, 11, 84, 52
12, 70675, Note_on_c, 11, 84, 0
12, 70680, Note_on_c, 11, 88, 52
12, 70769, Note_on_c, 11, 88, 0
12, 71040, Note_on_c, 11, 84, 76
12, 71129, Note_on_c, 11, 84, 0
12, 71130, Note_on_c, 11, 81, 76
12, 71155, Note_on_c, 11, 81, 0
12, 71160, Note_on_c, 11, 77, 76
12, 71280, Control_c, 11, 11, 80
12, 71399, Note_on_c, 11, 77, 0
12, 71400, Note_on_c, 11, 76, 76
12, 71519, Note_on_c, 11, 76, 0
12, 71640, Control_c, 11, 11, 127
12, 71760, Note_on_c, 11, 81, 76
12, 71849, Note_on_c, 11, 81, 0
12, 71850, Note_on_c, 11, 77, 76
12, 71875, Note_on_c, 11, 77, 0
12, 71880, Note_on_c, 11, 74, 76
12, 72000, Control_c, 11, 11, 80
12, 72119, Note_on_c, 11, 74, 0
12, 72120, Note_on_c, 11, 72, 76
12, 72239, Note_on_c, 11, 72, 0
12, 72360, Control_c, 11, 11, 127
12, 72480, Note_on_c, 11, 77, 76
12, 72569, Note_on_c, 11, 77, 0
12, 72570, Note_on_c, 11, 74, 52
12, 72595, Note_on_c, 11, 74, 0
12, 72600, Note_on_c, 11, 70, 52
12, 72689, Note_on_c, 11, 70, 0
12, 72840, Note_on_c, 11, 78, 76
12, 72929, Note_on_c, 11, 78, 0
12, 72930, Note_on_c, 11, 72, 52
12, 72955, Note_on_c, 11, 72, 0
12, 72960, Note_on_c, 11, 69, 52
12, 73049, Note_on_c, 11, 69, 0
12, 73080, Note_on_c, 11, 68, 52
12, 73199, Note_on_c, 11, 68, 0
12, 73440, Note_on_c, 11, 76, 52
12, 73484, Note_on_c, 11, 76, 0
12, 73500, Note_on_c, 11, 76, 76
12, 73500, Note_on_c, 11, 88, 76
12, 73611, Note_on_c, 11, 76, 0
12, 73611, Note_on_c, 11, 88, 0
12, 73620, Note_on_c, 11, 76, 52
12, 73620, Note_on_c, 11, 88, 52
12, 73664, Note_on_c, 11, 76, 0
12, 73664, Note_on_c, 11, 88, 0
12, 73680, Note_on_c, 11, 76, 52
12, 73680, Note_on_c, 11, 88, 52
12, 73724, Note_on_c, 11, 76, 0
12, 73724, Note_on_c, 11, 88, 0
12, 73740, Note_on_c, 11, 88, 52
12, 73740, Note_on_c, 11, 76, 52
12, 73784, Note_on_c, 11, 88, 0
12, 73784, Note_on_c, 11, 76, 0
12, 73800, Note_on_c, 11, 88, 52
12, 73800, Note_on_c, 11, 76, 52
12, 73889, Note_on_c, 11, 88, 0
12, 73889, Note_on_c, 11, 76, 0
12, 74160, Note_on_c, 11, 76, 52
12, 74204, Note_on_c, 11, 76, 0
12, 74220, Note_on_c, 11, 76, 76
12, 74220, Note_on_c, 11, 88, 76
12, 74331, Note_on_c, 11, 76, 0
12, 74331, Note_on_c, 11, 88, 0
12, 74340, Note_on_c, 11, 88, 52
12, 74340, Note_on_c, 11, 76, 52
12, 74384, Note_on_c, 11, 88, 0
12, 74384, Note_on_c, 11, 76, 0
12, 74400, Note_on_c, 11, 88, 52
12, 74400, Note_on_c, 11, 76, 52
12, 74444, Note_on_c, 11, 88, 0
12, 74444, Note_on_c, 11, 76, 0
12, 74460, Note_on_c, 11, 88, 52
12, 74460, Note_on_c, 11, 76, 52
12, 74504, Note_on_c, 11, 88, 0
12, 74504, Note_on_c, 11, 76, 0
12, 74520, Note_on_c, 11, 76, 52
12, 74520, Note_on_c, 11, 88, 52
12, 74564, Note_on_c, 11, 76, 0
12, 74564, Note_on_c, 11, 88, 0
12, 74580, Note_on_c, 11, 88, 76
12, 74580, Note_on_c, 11, 76, 76
12, 74691, Note_on_c, 11, 88, 0
12, 74691, Note_on_c, 11, 76, 0
12, 74700, Note_on_c, 11, 88, 52
12, 74700, Note_on_c, 11, 76, 52
12, 74744, Note_on_c, 11, 88, 0
12, 74744, Note_on_c, 11, 76, 0
12, 74760, Note_on_c, 11, 88, 52
12, 74760, Note_on_c, 11, 76, 52
12, 74804, Note_on_c, 11, 88, 0
12, 74804, Note_on_c, 11, 76, 0
12, 74820, Note_on_c, 11, 88, 52
12, 74820, Note_on_c, 11, 76, 52
12, 74864, Note_on_c, 11, 88, 0
12, 74864, Note_on_c, 11, 76, 0
12, 74880, Note_on_c, 11, 88, 84
12, 74880, Note_on_c, 11, 76, 84
12, 74931, Note_on_c, 11, 88, 0
12, 74931, Note_on_c, 11, 76, 0
12, 74940, Note_on_c, 11, 88, 84
12, 74940, Note_on_c, 11, 76, 84
12, 74991, Note_on_c, 11, 88, 0
12, 74991, Note_on_c, 11, 76, 0
12, 75000, Note_on_c, 11, 88, 84
12, 75000, Note_on_c, 11, 76, 84
12, 75051, Note_on_c, 11, 88, 0
12, 75051, Note_on_c, 11, 76, 0
12, 75060, Note_on_c, 11, 88, 84
12, 75060, Note_on_c, 11, 76, 84
12, 75111, Note_on_c, 11, 88, 0
12, 75111, Note_on_c, 11, 76, 0
12, 75120, Note_on_c, 11, 88, 84
12, 75120, Note_on_c, 11, 76, 84
12, 75171, Note_on_c, 11, 88, 0
12, 75171, Note_on_c, 11, 76, 0
12, 75180, Note_on_c, 11, 88, 84
12, 75180, Note_on_c, 11, 76, 84
12, 75231, Note_on_c, 11, 88, 0
12, 75231, Note_on_c, 11, 76, 0
12, 75240, Note_on_c, 11, 88, 84
12, 75240, Note_on_c, 11, 76, 84
12, 75295, Note_on_c, 11, 88, 0
12, 75295, Note_on_c, 11, 76, 0
12, 75300, Note_on_c, 11, 76, 92
12, 75411, Note_on_c, 11, 76, 0
12, 75420, Note_on_c, 11, 75, 84
12, 75464, Note_on_c, 11, 75, 0
12, 75480, Note_on_c, 11, 76, 84
12, 75524, Note_on_c, 11, 76, 0
12, 75540, Note_on_c, 11, 75, 84
12, 75584, Note_on_c, 11, 75, 0
12, 75600, Note_on_c, 11, 76, 84
12, 75651, Note_on_c, 11, 76, 0
12, 75660, Note_on_c, 11, 75, 79
12, 75711, Note_on_c, 11, 75, 0
12, 75720, Note_on_c, 11, 76, 74
12, 75771, Note_on_c, 11, 76, 0
12, 75780, Note_on_c, 11, 75, 68
12, 75831, Note_on_c, 11, 75, 0
12, 75840, Note_on_c, 11, 76, 63
12, 75891, Note_on_c, 11, 76, 0
12, 75900, Note_on_c, 11, 75, 58
12, 75951, Note_on_c, 11, 75, 0
12, 75960, Note_on_c, 11, 76, 52
12, 76135, Note_on_c, 11, 76, 0
12, 76140, Note_on_c, 11, 78, 52
12, 76199, Note_on_c, 11, 78, 0
12, 76200, Note_on_c, 11, 76, 52
12, 76259, Note_on_c, 11, 76, 0
12, 76260, Note_on_c, 11, 74, 52
12, 76315, Note_on_c, 11, 74, 0
12, 76320, Note_on_c, 11, 74, 52
12, 76375, Note_on_c, 11, 74, 0
12, 76380, Note_on_c, 11, 73, 52
12, 76499, Note_on_c, 11, 73, 0
12, 76500, Note_on_c, 11, 76, 52
12, 76559, Note_on_c, 11, 76, 0
12, 76560, Note_on_c, 11, 73, 52
12, 76619, Note_on_c, 11, 73, 0
12, 76620, Note_on_c, 11, 69, 52
12, 76675, Note_on_c, 11, 69, 0
12, 76680, Note_on_c, 11, 69, 52
12, 76739, Note_on_c, 11, 69, 0
12, 76740, Note_on_c, 11, 68, 52
12, 76851, Note_on_c, 11, 68, 0
12, 76860, Note_on_c, 11, 71, 52
12, 76919, Note_on_c, 11, 71, 0
12, 76920, Note_on_c, 11, 68, 52
12, 76979, Note_on_c, 11, 68, 0
12, 76980, Note_on_c, 11, 62, 52
12, 77035, Note_on_c, 11, 62, 0
12, 77040, Note_on_c, 11, 61, 52
12, 77099, Note_on_c, 11, 61, 0
12, 77100, Note_on_c, 11, 64, 54
12, 77155, Note_on_c, 11, 64, 0
12, 77160, Note_on_c, 11, 69, 57
12, 77204, Note_on_c, 11, 69, 0
12, 77220, Note_on_c, 11, 73, 60
12, 77264, Note_on_c, 11, 73, 0
12, 77280, Note_on_c, 11, 76, 62
12, 77324, Note_on_c, 11, 76, 0
12, 77340, Note_on_c, 11, 76, 65
12, 77384, Note_on_c, 11, 76, 0
12, 77400, Note_on_c, 11, 75, 52
12, 77429, Note_on_c, 11, 75, 0
12, 77430, Note_on_c, 11, 76, 52
12, 77455, Note_on_c, 11, 76, 0
12, 77460, Note_on_c, 11, 78, 52
12, 77489, Note_on_c, 11, 78, 0
12, 77490, Note_on_c, 11, 76, 52
12, 77515, Note_on_c, 11, 76, 0
12, 77520, Note_on_c, 11, 75, 52
12, 77549, Note_on_c, 11, 75, 0
12, 77550, Note_on_c, 11, 76, 52
12, 77575, Note_on_c, 11, 76, 0
12, 77580, Note_on_c, 11, 83, 52
12, 77609, Note_on_c, 11, 83, 0
12, 77610, Note_on_c, 11, 81, 52
12, 77635, Note_on_c, 11, 81, 0
12, 77640, Note_on_c, 11, 80, 52
12, 77669, Note_on_c, 11, 80, 0
12, 77670, Note_on_c, 11, 78, 52
12, 77695, Note_on_c, 11, 78, 0
12, 77700, Note_on_c, 11, 76, 52
12, 77729, Note_on_c, 11, 76, 0
12, 77730, Note_on_c, 11, 74, 52
12, 77755, Note_on_c, 11, 74, 0
12, 77760, Note_on_c, 11, 74, 52
12, 77789, Note_on_c, 11, 74, 0
12, 77790, Note_on_c, 11, 73, 52
12, 77815, Note_on_c, 11, 73, 0
12, 77820, Note_on_c, 11, 72, 52
12, 77849, Note_on_c, 11, 72, 0
12, 77850, Note_on_c, 11, 73, 52
12, 77875, Note_on_c, 11, 73, 0
12, 77880, Note_on_c, 11, 72, 52
12, 77909, Note_on_c, 11, 72, 0
12, 77910, Note_on_c, 11, 73, 52
12, 77935, Note_on_c, 11, 73, 0
12, 77940, Note_on_c, 11, 78, 52
12, 77969, Note_on_c, 11, 78, 0
12, 77970, Note_on_c, 11, 76, 52
12, 77995, Note_on_c, 11, 76, 0
12, 78000, Note_on_c, 11, 74, 52
12, 78029, Note_on_c, 11, 74, 0
12, 78030, Note_on_c, 11, 73, 52
12, 78055, Note_on_c, 11, 73, 0
12, 78060, Note_on_c, 11, 71, 52
12, 78089, Note_on_c, 11, 71, 0
12, 78090, Note_on_c, 11, 69, 52
12, 78115, Note_on_c, 11, 69, 0
12, 78120, Note_on_c, 11, 69, 52
12, 78149, Note_on_c, 11, 69, 0
12, 78150, Note_on_c, 11, 68, 52
12, 78175, Note_on_c, 11, 68, 0
12, 78180, Note_on_c, 11, 74, 52
12, 78209, Note_on_c, 11, 74, 0
12, 78210, Note_on_c, 11, 73, 52
12, 78235, Note_on_c, 11, 73, 0
12, 78240, Note_on_c, 11, 73, 52
12, 78269, Note_on_c, 11, 73, 0
12, 78270, Note_on_c, 11, 71, 52
12, 78295, Note_on_c, 11, 71, 0
12, 78300, Note_on_c, 11, 69, 52
12, 78329, Note_on_c, 11, 69, 0
12, 78330, Note_on_c, 11, 68, 52
12, 78355, Note_on_c, 11, 68, 0
12, 78360, Note_on_c, 11, 68, 52
12, 78389, Note_on_c, 11, 68, 0
12, 78390, Note_on_c, 11, 66, 52
12, 78415, Note_on_c, 11, 66, 0
12, 78420, Note_on_c, 11, 64, 52
12, 78449, Note_on_c, 11, 64, 0
12, 78450, Note_on_c, 11, 62, 52
12, 78471, Note_on_c, 11, 62, 0
12, 78476, Control_c, 11, 11, 80
12, 78480, Note_on_c, 11, 61, 76
12, 78524, Note_on_c, 11, 61, 0
12, 78540, Note_on_c, 11, 68, 76
12, 78584, Note_on_c, 11, 68, 0
12, 78600, Note_on_c, 11, 69, 76
12, 78644, Note_on_c, 11, 69, 0
12, 78660, Note_on_c, 11, 68, 76
12, 78704, Note_on_c, 11, 68, 0
12, 78720, Note_on_c, 11, 69, 76
12, 78915, Control_c, 11, 11, 84
12, 78990, Control_c, 11, 11, 88
12, 79015, Note_on_c, 11, 69, 0
12, 79020, Note_on_c, 11, 68, 76
12, 79064, Note_on_c, 11, 68, 0
12, 79065, Control_c, 11, 11, 92
12, 79080, Note_on_c, 11, 69, 76
12, 79140, Control_c, 11, 11, 96
12, 79215, Control_c, 11, 11, 100
12, 79290, Control_c, 11, 11, 104
12, 79365, Control_c, 11, 11, 108
12, 79375, Note_on_c, 11, 69, 0
12, 79380, Note_on_c, 11, 68, 76
12, 79424, Note_on_c, 11, 68, 0
12, 79440, Note_on_c, 11, 69, 76
12, 79440, Control_c, 11, 11, 112
12, 79515, Control_c, 11, 11, 116
12, 79590, Control_c, 11, 11, 120
12, 79665, Control_c, 11, 11, 124
12, 79735, Note_on_c, 11, 69, 0
12, 79740, Control_c, 11, 11, 127
12, 79740, Note_on_c, 11, 81, 76
12, 79784, Note_on_c, 11, 81, 0
12, 79800, Note_on_c, 11, 80, 76
12, 79844, Note_on_c, 11, 80, 0
12, 79860, Note_on_c, 11, 78, 76
12, 79904, Note_on_c, 11, 78, 0
12, 79920, Note_on_c, 11, 76, 76
12, 80091, Note_on_c, 11, 76, 0
12, 80100, Note_on_c, 11, 76, 52
12, 80144, Note_on_c, 11, 76, 0
12, 80160, Note_on_c, 11, 74, 52
12, 80204, Note_on_c, 11, 74, 0
12, 80220, Note_on_c, 11, 73, 52
12, 80264, Note_on_c, 11, 73, 0
12, 80280, Note_on_c, 11, 71, 52
12, 80451, Note_on_c, 11, 71, 0
12, 80460, Note_on_c, 11, 74, 76
12, 80504, Note_on_c, 11, 74, 0
12, 80520, Note_on_c, 11, 76, 76
12, 80564, Note_on_c, 11, 76, 0
12, 80580, Note_on_c, 11, 78, 76
12, 80624, Note_on_c, 11, 78, 0
12, 80640, Note_on_c, 11, 73, 84
12, 80640, Control_c, 11, 11, 127
12, 80670, Control_c, 11, 11, 124
12, 80700, Control_c, 11, 11, 120
12, 80730, Control_c, 11, 11, 116
12, 80760, Control_c, 11, 11, 112
12, 80790, Control_c, 11, 11, 108
12, 80820, Control_c, 11, 11, 104
12, 80850, Control_c, 11, 11, 100
12, 80879, Note_on_c, 11, 73, 0
12, 80880, Note_on_c, 11, 74, 76
12, 80880, Control_c, 11, 11, 96
12, 80910, Control_c, 11, 11, 92
12, 80940, Control_c, 11, 11, 88
12, 80969, Note_on_c, 11, 74, 0
12, 80970, Control_c, 11, 11, 84
12, 80970, Note_on_c, 11, 71, 76
12, 80995, Note_on_c, 11, 71, 0
12, 81000, Control_c, 11, 11, 80
12, 81000, Note_on_c, 11, 69, 76
12, 81044, Note_on_c, 11, 69, 0
12, 81060, Note_on_c, 11, 80, 76
12, 81104, Note_on_c, 11, 80, 0
12, 81120, Note_on_c, 11, 81, 76
12, 81164, Note_on_c, 11, 81, 0
12, 81180, Note_on_c, 11, 80, 76
12, 81224, Note_on_c, 11, 80, 0
12, 81240, Note_on_c, 11, 81, 76
12, 81360, Control_c, 11, 11, 80
12, 81410, Control_c, 11, 11, 83
12, 81460, Control_c, 11, 11, 85
12, 81510, Control_c, 11, 11, 88
12, 81535, Note_on_c, 11, 81, 0
12, 81540, Note_on_c, 11, 80, 76
12, 81560, Control_c, 11, 11, 90
12, 81584, Note_on_c, 11, 80, 0
12, 81600, Note_on_c, 11, 81, 76
12, 81610, Control_c, 11, 11, 93
12, 81660, Control_c, 11, 11, 96
12, 81710, Control_c, 11, 11, 98
12, 81760, Control_c, 11, 11, 101
12, 81810, Control_c, 11, 11, 104
12, 81860, Control_c, 11, 11, 106
12, 81895, Note_on_c, 11, 81, 0
12, 81900, Note_on_c, 11, 80, 84
12, 81910, Control_c, 11, 11, 109
12, 81944, Note_on_c, 11, 80, 0
12, 81960, Note_on_c, 11, 81, 84
12, 81960, Control_c, 11, 11, 111
12, 82010, Control_c, 11, 11, 114
12, 82060, Control_c, 11, 11, 117
12, 82110, Control_c, 11, 11, 119
12, 82160, Control_c, 11, 11, 122
12, 82210, Control_c, 11, 11, 127
12, 82255, Note_on_c, 11, 81, 0
12, 82260, Note_on_c, 11, 81, 84
12, 82304, Note_on_c, 11, 81, 0
12, 82320, Note_on_c, 11, 80, 84
12, 82364, Note_on_c, 11, 80, 0
12, 82380, Note_on_c, 11, 78, 84
12, 82424, Note_on_c, 11, 78, 0
12, 82440, Note_on_c, 11, 76, 92
12, 82619, Note_on_c, 11, 76, 0
12, 82980, Note_on_c, 11, 86, 52
12, 83039, Note_on_c, 11, 86, 0
12, 83040, Note_on_c, 11, 85, 52
12, 83099, Note_on_c, 11, 85, 0
12, 83100, Note_on_c, 11, 83, 52
12, 83155, Note_on_c, 11, 83, 0
12, 83160, Note_on_c, 11, 81, 52
12, 83339, Note_on_c, 11, 81, 0
12, 83580, Note_on_c, 11, 71, 52
12, 83639, Note_on_c, 11, 71, 0
12, 83640, Note_on_c, 11, 69, 52
12, 83699, Note_on_c, 11, 69, 0
12, 83700, Note_on_c, 11, 67, 52
12, 83759, Note_on_c, 11, 67, 0
12, 83760, Note_on_c, 11, 66, 52
12, 83804, Note_on_c, 11, 66, 0
12, 83880, Control_c, 11, 11, 80
12, 84060, Note_on_c, 11, 71, 76
12, 84119, Note_on_c, 11, 71, 0
12, 84120, Note_on_c, 11, 69, 76
12, 84179, Note_on_c, 11, 69, 0
12, 84180, Note_on_c, 11, 67, 76
12, 84239, Note_on_c, 11, 67, 0
12, 84240, Control_c, 11, 11, 80
12, 84240, Note_on_c, 11, 66, 76
12, 84284, Note_on_c, 11, 66, 0
12, 84285, Control_c, 11, 11, 84
12, 84300, Note_on_c, 11, 71, 76
12, 84330, Control_c, 11, 11, 88
12, 84359, Note_on_c, 11, 71, 0
12, 84360, Note_on_c, 11, 69, 76
12, 84375, Control_c, 11, 11, 92
12, 84419, Note_on_c, 11, 69, 0
12, 84420, Note_on_c, 11, 67, 76
12, 84420, Control_c, 11, 11, 96
12, 84465, Control_c, 11, 11, 100
12, 84479, Note_on_c, 11, 67, 0
12, 84480, Note_on_c, 11, 66, 76
12, 84510, Control_c, 11, 11, 104
12, 84524, Note_on_c, 11, 66, 0
12, 84540, Note_on_c, 11, 71, 76
12, 84555, Control_c, 11, 11, 107
12, 84599, Note_on_c, 11, 71, 0
12, 84600, Control_c, 11, 11, 111
12, 84600, Note_on_c, 11, 69, 76
12, 84645, Control_c, 11, 11, 115
12, 84659, Note_on_c, 11, 69, 0
12, 84660, Note_on_c, 11, 67, 76
12, 84690, Control_c, 11, 11, 119
12, 84719, Note_on_c, 11, 67, 0
12, 84720, Note_on_c, 11, 66, 76
12, 84735, Control_c, 11, 11, 123
12, 84764, Note_on_c, 11, 66, 0
12, 84780, Note_on_c, 11, 83, 76
12, 84780, Control_c, 11, 11, 127
12, 84839, Note_on_c, 11, 83, 0
12, 84840, Note_on_c, 11, 81, 76
12, 84899, Note_on_c, 11, 81, 0
12, 84900, Note_on_c, 11, 79, 76
12, 84955, Note_on_c, 11, 79, 0
12, 84960, Note_on_c, 11, 78, 84
12, 84960, Note_on_c, 11, 62, 84
12, 84960, Note_on_c, 11, 69, 84
12, 85311, Note_on_c, 11, 78, 0
12, 85311, Note_on_c, 11, 62, 0
12, 85311, Note_on_c, 11, 69, 0
12, 85320, Note_on_c, 11, 62, 84
12, 85320, Note_on_c, 11, 74, 84
12, 85320, Note_on_c, 11, 78, 84
12, 85671, Note_on_c, 11, 62, 0
12, 85671, Note_on_c, 11, 74, 0
12, 85671, Note_on_c, 11, 78, 0
12, 85680, Note_on_c, 11, 74, 76
12, 85680, Note_on_c, 11, 76, 76
12, 85746, Note_on_c, 11, 74, 0
12, 85746, Note_on_c, 11, 76, 0
12, 85770, Note_on_c, 11, 76, 76
12, 85770, Note_on_c, 11, 74, 76
12, 85791, Note_on_c, 11, 76, 0
12, 85791, Note_on_c, 11, 74, 0
12, 85800, Note_on_c, 11, 74, 76
12, 85800, Note_on_c, 11, 76, 76
12, 85889, Note_on_c, 11, 74, 0
12, 85889, Note_on_c, 11, 76, 0
12, 85920, Note_on_c, 11, 87, 52
12, 85949, Note_on_c, 11, 87, 0
12, 85950, Note_on_c, 11, 88, 52
12, 85975, Note_on_c, 11, 88, 0
12, 85980, Note_on_c, 11, 86, 52
12, 86001, Note_on_c, 11, 86, 0
12, 86010, Note_on_c, 11, 83, 52
12, 86031, Note_on_c, 11, 83, 0
12, 86040, Note_on_c, 11, 73, 76
12, 86040, Note_on_c, 11, 76, 76
12, 86106, Note_on_c, 11, 73, 0
12, 86106, Note_on_c, 11, 76, 0
12, 86130, Note_on_c, 11, 76, 76
12, 86130, Note_on_c, 11, 73, 76
12, 86151, Note_on_c, 11, 76, 0
12, 86151, Note_on_c, 11, 73, 0
12, 86160, Note_on_c, 11, 76, 76
12, 86160, Note_on_c, 11, 73, 76
12, 86249, Note_on_c, 11, 76, 0
12, 86249, Note_on_c, 11, 73, 0
12, 86280, Note_on_c, 11, 87, 52
12, 86309, Note_on_c, 11, 87, 0
12, 86310, Note_on_c, 11, 88, 52
12, 86335, Note_on_c, 11, 88, 0
12, 86340, Note_on_c, 11, 85, 52
12, 86361, Note_on_c, 11, 85, 0
12, 86370, Note_on_c, 11, 81, 52
12, 86391, Note_on_c, 11, 81, 0
12, 86400, Note_on_c, 11, 77, 52
12, 86429, Note_on_c, 11, 77, 0
12, 86430, Note_on_c, 11, 78, 52
12, 86455, Note_on_c, 11, 78, 0
12, 86460, Note_on_c, 11, 74, 52
12, 86481, Note_on_c, 11, 74, 0
12, 86490, Note_on_c, 11, 71, 52
12, 86511, Note_on_c, 11, 71, 0
12, 86520, Note_on_c, 11, 75, 52
12, 86549, Note_on_c, 11, 75, 0
12, 86550, Note_on_c, 11, 76, 52
12, 86575, Note_on_c, 11, 76, 0
12, 86580, Note_on_c, 11, 73, 52
12, 86601, Note_on_c, 11, 73, 0
12, 86610, Note_on_c, 11, 69, 52
12, 86631, Note_on_c, 11, 69, 0
12, 86640, Note_on_c, 11, 73, 52
12, 86669, Note_on_c, 11, 73, 0
12, 86670, Note_on_c, 11, 74, 52
12, 86695, Note_on_c, 11, 74, 0
12, 86700, Note_on_c, 11, 71, 52
12, 86721, Note_on_c, 11, 71, 0
12, 86730, Note_on_c, 11, 68, 52
12, 86751, Note_on_c, 11, 68, 0
12, 86760, Note_on_c, 11, 69, 52
12, 86781, Note_on_c, 11, 69, 0
12, 86790, Note_on_c, 11, 57, 53
12, 86811, Note_on_c, 11, 57, 0
12, 86820, Note_on_c, 11, 59, 54
12, 86841, Note_on_c, 11, 59, 0
12, 86850, Note_on_c, 11, 61, 56
12, 86871, Note_on_c, 11, 61, 0
12, 86880, Note_on_c, 11, 62, 57
12, 86901, Note_on_c, 11, 62, 0
12, 86910, Note_on_c, 11, 64, 58
12, 86931, Note_on_c, 11, 64, 0
12, 86940, Note_on_c, 11, 66, 60
12, 86961, Note_on_c, 11, 66, 0
12, 86970, Note_on_c, 11, 68, 61
12, 86991, Note_on_c, 11, 68, 0
12, 87000, Note_on_c, 11, 69, 62
12, 87021, Note_on_c, 11, 69, 0
12, 87030, Note_on_c, 11, 71, 64
12, 87051, Note_on_c, 11, 71, 0
12, 87060, Note_on_c, 11, 73, 65
12, 87081, Note_on_c, 11, 73, 0
12, 87090, Note_on_c, 11, 74, 66
12, 87111, Note_on_c, 11, 74, 0
12, 87120, Note_on_c, 11, 76, 44
12, 87239, Note_on_c, 11, 76, 0
12, 87360, Note_on_c, 11, 87, 44
12, 87389, Note_on_c, 11, 87, 0
12, 87390, Note_on_c, 11, 88, 44
12, 87415, Note_on_c, 11, 88, 0
12, 87420, Note_on_c, 11, 86, 44
12, 87441, Note_on_c, 11, 86, 0
12, 87450, Note_on_c, 11, 83, 44
12, 87471, Note_on_c, 11, 83, 0
12, 87720, Note_on_c, 11, 87, 44
12, 87749, Note_on_c, 11, 87, 0
12, 87750, Note_on_c, 11, 88, 44
12, 87775, Note_on_c, 11, 88, 0
12, 87780, Note_on_c, 11, 85, 44
12, 87801, Note_on_c, 11, 85, 0
12, 87810, Note_on_c, 11, 81, 44
12, 87831, Note_on_c, 11, 81, 0
12, 87840, Note_on_c, 11, 77, 44
12, 87869, Note_on_c, 11, 77, 0
12, 87870, Note_on_c, 11, 78, 44
12, 87895, Note_on_c, 11, 78, 0
12, 87900, Note_on_c, 11, 74, 44
12, 87921, Note_on_c, 11, 74, 0
12, 87930, Note_on_c, 11, 71, 44
12, 87951, Note_on_c, 11, 71, 0
12, 87960, Note_on_c, 11, 75, 44
12, 87989, Note_on_c, 11, 75, 0
12, 87990, Note_on_c, 11, 76, 44
12, 88015, Note_on_c, 11, 76, 0
12, 88020, Note_on_c, 11, 73, 44
12, 88041, Note_on_c, 11, 73, 0
12, 88050, Note_on_c, 11, 69, 44
12, 88071, Note_on_c, 11, 69, 0
12, 88080, Note_on_c, 11, 73, 44
12, 88109, Note_on_c, 11, 73, 0
12, 88110, Note_on_c, 11, 74, 44
12, 88135, Note_on_c, 11, 74, 0
12, 88140, Note_on_c, 11, 71, 44
12, 88161, Note_on_c, 11, 71, 0
12, 88170, Note_on_c, 11, 68, 44
12, 88191, Note_on_c, 11, 68, 0
12, 88200, Note_on_c, 11, 69, 44
12, 88255, Note_on_c, 11, 69, 0
12, 88260, Note_on_c, 11, 69, 44
12, 88260, Note_on_c, 11, 61, 44
12, 88311, Note_on_c, 11, 69, 0
12, 88311, Note_on_c, 11, 61, 0
12, 88320, Note_on_c, 11, 69, 44
12, 88320, Note_on_c, 11, 61, 44
12, 88371, Note_on_c, 11, 69, 0
12, 88371, Note_on_c, 11, 61, 0
12, 88380, Note_on_c, 11, 61, 44
12, 88380, Note_on_c, 11, 69, 44
12, 88431, Note_on_c, 11, 61, 0
12, 88431, Note_on_c, 11, 69, 0
12, 88440, Note_on_c, 11, 69, 44
12, 88440, Note_on_c, 11, 61, 44
12, 88491, Note_on_c, 11, 69, 0
12, 88491, Note_on_c, 11, 61, 0
12, 88500, Note_on_c, 11, 69, 44
12, 88500, Note_on_c, 11, 61, 44
12, 88551, Note_on_c, 11, 69, 0
12, 88551, Note_on_c, 11, 61, 0
12, 88560, Note_on_c, 11, 61, 44
12, 88560, Note_on_c, 11, 69, 44
12, 88611, Note_on_c, 11, 61, 0
12, 88611, Note_on_c, 11, 69, 0
12, 88620, Note_on_c, 11, 69, 44
12, 88620, Note_on_c, 11, 61, 44
12, 88671, Note_on_c, 11, 69, 0
12, 88671, Note_on_c, 11, 61, 0
12, 88680, Note_on_c, 11, 61, 44
12, 88680, Note_on_c, 11, 69, 44
12, 88731, Note_on_c, 11, 61, 0
12, 88731, Note_on_c, 11, 69, 0
12, 88740, Note_on_c, 11, 61, 44
12, 88740, Note_on_c, 11, 69, 44
12, 88791, Note_on_c, 11, 61, 0
12, 88791, Note_on_c, 11, 69, 0
12, 88800, Note_on_c, 11, 69, 44
12, 88800, Note_on_c, 11, 61, 44
12, 88851, Note_on_c, 11, 69, 0
12, 88851, Note_on_c, 11, 61, 0
12, 88860, Note_on_c, 11, 69, 44
12, 88860, Note_on_c, 11, 61, 44
12, 88911, Note_on_c, 11, 69, 0
12, 88911, Note_on_c, 11, 61, 0
12, 88920, Note_on_c, 11, 69, 44
12, 88920, Note_on_c, 11, 59, 44
12, 88971, Note_on_c, 11, 69, 0
12, 88971, Note_on_c, 11, 59, 0
12, 88980, Note_on_c, 11, 59, 44
12, 88980, Note_on_c, 11, 69, 44
12, 89031, Note_on_c, 11, 59, 0
12, 89031, Note_on_c, 11, 69, 0
12, 89040, Note_on_c, 11, 59, 44
12, 89040, Note_on_c, 11, 69, 44
12, 89091, Note_on_c, 11, 59, 0
12, 89091, Note_on_c, 11, 69, 0
12, 89100, Note_on_c, 11, 69, 44
12, 89100, Note_on_c, 11, 59, 44
12, 89151, Note_on_c, 11, 69, 0
12, 89151, Note_on_c, 11, 59, 0
12, 89160, Note_on_c, 11, 69, 44
12, 89160, Note_on_c, 11, 59, 44
12, 89211, Note_on_c, 11, 69, 0
12, 89211, Note_on_c, 11, 59, 0
12, 89220, Note_on_c, 11, 69, 44
12, 89220, Note_on_c, 11, 59, 44
12, 89271, Note_on_c, 11, 69, 0
12, 89271, Note_on_c, 11, 59, 0
12, 89280, Note_on_c, 11, 68, 44
12, 89280, Note_on_c, 11, 59, 44
12, 89331, Note_on_c, 11, 68, 0
12, 89331, Note_on_c, 11, 59, 0
12, 89340, Note_on_c, 11, 59, 44
12, 89340, Note_on_c, 11, 68, 44
12, 89391, Note_on_c, 11, 59, 0
12, 89391, Note_on_c, 11, 68, 0
12, 89400, Note_on_c, 11, 68, 44
12, 89400, Note_on_c, 11, 59, 44
12, 89451, Note_on_c, 11, 68, 0
12, 89451, Note_on_c, 11, 59, 0
12, 89460, Note_on_c, 11, 68, 44
12, 89460, Note_on_c, 11, 59, 44
12, 89511, Note_on_c, 11, 68, 0
12, 89511, Note_on_c, 11, 59, 0
12, 89520, Note_on_c, 11, 59, 44
12, 89520, Note_on_c, 11, 68, 44
12, 89571, Note_on_c, 11, 59, 0
12, 89571, Note_on_c, 11, 68, 0
12, 89580, Note_on_c, 11, 68, 44
12, 89580, Note_on_c, 11, 59, 44
12, 89631, Note_on_c, 11, 68, 0
12, 89631, Note_on_c, 11, 59, 0
12, 89640, Note_on_c, 11, 69, 44
12, 89640, Note_on_c, 11, 61, 44
12, 89759, Note_on_c, 11, 69, 0
12, 89759, Note_on_c, 11, 61, 0
12, 89820, Note_on_c, 11, 81, 44
12, 89879, Note_on_c, 11, 81, 0
12, 89880, Note_on_c, 11, 83, 44
12, 89909, Note_on_c, 11, 83, 0
12, 89910, Note_on_c, 11, 81, 44
12, 89939, Note_on_c, 11, 81, 0
12, 89940, Note_on_c, 11, 80, 44
12, 89969, Note_on_c, 11, 80, 0
12, 89970, Note_on_c, 11, 81, 44
12, 89995, Note_on_c, 11, 81, 0
12, 90000, Note_on_c, 11, 76, 44
12, 90044, Note_on_c, 11, 76, 0
12, 90060, Note_on_c, 11, 73, 44
12, 90104, Note_on_c, 11, 73, 0
12, 90120, Note_on_c, 11, 69, 44
12, 90164, Note_on_c, 11, 69, 0
12, 90180, Note_on_c, 11, 81, 44
12, 90239, Note_on_c, 11, 81, 0
12, 90240, Note_on_c, 11, 83, 44
12, 90269, Note_on_c, 11, 83, 0
12, 90270, Note_on_c, 11, 81, 44
12, 90299, Note_on_c, 11, 81, 0
12, 90300, Note_on_c, 11, 80, 44
12, 90329, Note_on_c, 11, 80, 0
12, 90330, Note_on_c, 11, 81, 44
12, 90355, Note_on_c, 11, 81, 0
12, 90360, Note_on_c, 11, 78, 44
12, 90404, Note_on_c, 11, 78, 0
12, 90420, Note_on_c, 11, 74, 44
12, 90464, Note_on_c, 11, 74, 0
12, 90480, Note_on_c, 11, 71, 44
12, 90524, Note_on_c, 11, 71, 0
12, 90540, Note_on_c, 11, 74, 44
12, 90599, Note_on_c, 11, 74, 0
12, 90600, Note_on_c, 11, 76, 44
12, 90629, Note_on_c, 11, 76, 0
12, 90630, Note_on_c, 11, 74, 44
12, 90659, Note_on_c, 11, 74, 0
12, 90660, Note_on_c, 11, 73, 44
12, 90689, Note_on_c, 11, 73, 0
12, 90690, Note_on_c, 11, 74, 44
12, 90715, Note_on_c, 11, 74, 0
12, 90720, Note_on_c, 11, 71, 44
12, 90764, Note_on_c, 11, 71, 0
12, 90780, Note_on_c, 11, 74, 44
12, 90824, Note_on_c, 11, 74, 0
12, 90840, Note_on_c, 11, 68, 44
12, 90884, Note_on_c, 11, 68, 0
12, 90900, Note_on_c, 11, 71, 44
12, 90944, Note_on_c, 11, 71, 0
12, 90960, Note_on_c, 11, 64, 44
12, 91004, Note_on_c, 11, 64, 0
12, 91020, Note_on_c, 11, 76, 44
12, 91064, Note_on_c, 11, 76, 0
12, 91080, Note_on_c, 11, 73, 44
12, 91199, Note_on_c, 11, 73, 0
12, 91440, Note_on_c, 11, 83, 44
12, 91499, Note_on_c, 11, 83, 0
12, 91500, Note_on_c, 11, 86, 44
12, 91555, Note_on_c, 11, 86, 0
12, 91560, Note_on_c, 11, 80, 44
12, 91619, Note_on_c, 11, 80, 0
12, 91620, Note_on_c, 11, 83, 44
12, 91675, Note_on_c, 11, 83, 0
12, 91680, Note_on_c, 11, 76, 44
12, 91739, Note_on_c, 11, 76, 0
12, 91740, Note_on_c, 11, 88, 44
12, 91795, Note_on_c, 11, 88, 0
12, 91800, Note_on_c, 11, 88, 44
12, 91919, Note_on_c, 11, 88, 0
12, 92040, Control_c, 11, 11, 64
12, 92160, Note_on_c, 11, 83, 76
12, 92160, Control_c, 11, 11, 64
12, 92190, Control_c, 11, 11, 69
12, 92199, Note_on_c, 11, 83, 0
12, 92200, Note_on_c, 11, 86, 76
12, 92220, Control_c, 11, 11, 75
12, 92235, Note_on_c, 11, 86, 0
12, 92240, Note_on_c, 11, 86, 76
12, 92250, Control_c, 11, 11, 80
12, 92269, Note_on_c, 11, 86, 0
12, 92280, Control_c, 11, 11, 85
12, 92280, Note_on_c, 11, 80, 76
12, 92310, Control_c, 11, 11, 90
12, 92319, Note_on_c, 11, 80, 0
12, 92320, Note_on_c, 11, 83, 76
12, 92340, Control_c, 11, 11, 96
12, 92355, Note_on_c, 11, 83, 0
12, 92360, Note_on_c, 11, 83, 76
12, 92370, Control_c, 11, 11, 101
12, 92389, Note_on_c, 11, 83, 0
12, 92400, Note_on_c, 11, 76, 76
12, 92400, Control_c, 11, 11, 106
12, 92430, Control_c, 11, 11, 111
12, 92439, Note_on_c, 11, 76, 0
12, 92440, Note_on_c, 11, 88, 76
12, 92460, Control_c, 11, 11, 117
12, 92475, Note_on_c, 11, 88, 0
12, 92480, Note_on_c, 11, 88, 76
12, 92490, Control_c, 11, 11, 122
12, 92509, Note_on_c, 11, 88, 0
12, 92520, Note_on_c, 11, 76, 76
12, 92520, Control_c, 11, 11, 127
12, 92520, Note_on_c, 11, 88, 76
12, 92564, Note_on_c, 11, 76, 0
12, 92564, Note_on_c, 11, 88, 0
12, 92580, Note_on_c, 11, 76, 84
12, 92580, Note_on_c, 11, 88, 84
12, 92691, Note_on_c, 11, 76, 0
12, 92691, Note_on_c, 11, 88, 0
12, 92700, Note_on_c, 11, 88, 76
12, 92700, Note_on_c, 11, 76, 76
12, 92744, Note_on_c, 11, 88, 0
12, 92744, Note_on_c, 11, 76, 0
12, 92760, Note_on_c, 11, 88, 76
12, 92760, Note_on_c, 11, 76, 76
12, 92804, Note_on_c, 11, 88, 0
12, 92804, Note_on_c, 11, 76, 0
12, 92820, Note_on_c, 11, 76, 76
12, 92820, Note_on_c, 11, 88, 76
12, 92864, Note_on_c, 11, 76, 0
12, 92864, Note_on_c, 11, 88, 0
12, 92880, Note_on_c, 11, 88, 76
12, 92880, Note_on_c, 11, 76, 76
12, 92924, Note_on_c, 11, 88, 0
12, 92924, Note_on_c, 11, 76, 0
12, 92940, Note_on_c, 11, 88, 84
12, 92940, Note_on_c, 11, 76, 84
12, 93051, Note_on_c, 11, 88, 0
12, 93051, Note_on_c, 11, 76, 0
12, 93060, Note_on_c, 11, 88, 76
12, 93060, Note_on_c, 11, 76, 76
12, 93104, Note_on_c, 11, 88, 0
12, 93104, Note_on_c, 11, 76, 0
12, 93120, Note_on_c, 11, 88, 76
12, 93120, Note_on_c, 11, 76, 76
12, 93164, Note_on_c, 11, 88, 0
12, 93164, Note_on_c, 11, 76, 0
12, 93180, Note_on_c, 11, 76, 76
12, 93180, Note_on_c, 11, 88, 76
12, 93224, Note_on_c, 11, 76, 0
12, 93224, Note_on_c, 11, 88, 0
12, 93240, Note_on_c, 11, 88, 76
12, 93240, Note_on_c, 11, 76, 76
12, 93419, Note_on_c, 11, 88, 0
12, 93419, Note_on_c, 11, 76, 0
12, 93420, Note_on_c, 11, 86, 76
12, 93449, Note_on_c, 11, 86, 0
12, 93450, Note_on_c, 11, 85, 76
12, 93479, Note_on_c, 11, 85, 0
12, 93480, Note_on_c, 11, 83, 76
12, 93509, Note_on_c, 11, 83, 0
12, 93510, Note_on_c, 11, 81, 76
12, 93539, Note_on_c, 11, 81, 0
12, 93540, Note_on_c, 11, 80, 76
12, 93569, Note_on_c, 11, 80, 0
12, 93570, Note_on_c, 11, 78, 76
12, 93595, Note_on_c, 11, 78, 0
12, 93600, Note_on_c, 11, 76, 76
12, 93600, Control_c, 11, 11, 127
12, 93630, Control_c, 11, 11, 122
12, 93660, Control_c, 11, 11, 117
12, 93690, Control_c, 11, 11, 111
12, 93720, Control_c, 11, 11, 106
12, 93750, Control_c, 11, 11, 101
12, 93775, Note_on_c, 11, 76, 0
12, 93780, Note_on_c, 11, 74, 76
12, 93780, Control_c, 11, 11, 96
12, 93809, Note_on_c, 11, 74, 0
12, 93810, Control_c, 11, 11, 90
12, 93810, Note_on_c, 11, 73, 76
12, 93839, Note_on_c, 11, 73, 0
12, 93840, Control_c, 11, 11, 85
12, 93840, Note_on_c, 11, 71, 76
12, 93869, Note_on_c, 11, 71, 0
12, 93870, Note_on_c, 11, 69, 76
12, 93870, Control_c, 11, 11, 80
12, 93899, Note_on_c, 11, 69, 0
12, 93900, Control_c, 11, 11, 75
12, 93900, Note_on_c, 11, 68, 76
12, 93929, Note_on_c, 11, 68, 0
12, 93930, Note_on_c, 11, 66, 76
12, 93930, Control_c, 11, 11, 69
12, 93955, Note_on_c, 11, 66, 0
12, 93960, Control_c, 11, 11, 64
12, 93960, Note_on_c, 11, 64, 76
12, 94165, Note_on_c, 11, 64, 0
12, 94170, Note_on_c, 11, 63, 76
12, 94199, Note_on_c, 11, 63, 0
12, 94200, Note_on_c, 11, 64, 76
12, 94229, Note_on_c, 11, 64, 0
12, 94230, Note_on_c, 11, 63, 76
12, 94259, Note_on_c, 11, 63, 0
12, 94260, Note_on_c, 11, 64, 76
12, 94289, Note_on_c, 11, 64, 0
12, 94290, Note_on_c, 11, 63, 76
12, 94315, Note_on_c, 11, 63, 0
12, 94320, Note_on_c, 11, 64, 76
12, 94424, Note_on_c, 11, 64, 0
12, 94440, Note_on_c, 11, 64, 76
12, 94544, Note_on_c, 11, 64, 0
12, 94560, Note_on_c, 11, 64, 76
12, 94664, Note_on_c, 11, 64, 0
12, 94680, Note_on_c, 11, 64, 84
12, 94791, Note_on_c, 11, 64, 0
12, 94800, Note_on_c, 11, 64, 84
12, 94911, Note_on_c, 11, 64, 0
12, 94920, Note_on_c, 11, 64, 84
12, 95031, Note_on_c, 11, 64, 0
12, 95040, Note_on_c, 11, 64, 84
12, 95159, Note_on_c, 11, 64, 0
12, 95280, Control_c, 11, 11, 127
12, 95400, Note_on_c, 11, 64, 52
12, 95511, Note_on_c, 11, 64, 0
12, 95520, Note_on_c, 11, 64, 52
12, 95631, Note_on_c, 11, 64, 0
12, 95640, Note_on_c, 11, 64, 52
12, 95751, Note_on_c, 11, 64, 0
12, 95760, Note_on_c, 11, 64, 52
12, 95879, Note_on_c, 11, 64, 0
12, 96000, Control_c, 11, 11, 96
12, 96120, Control_c, 11, 11, 96
12, 96120, Note_on_c, 11, 61, 68
12, 96150, Control_c, 11, 11, 99
12, 96180, Control_c, 11, 11, 101
12, 96210, Control_c, 11, 11, 104
12, 96239, Note_on_c, 11, 61, 0
12, 96240, Control_c, 11, 11, 106
12, 96240, Note_on_c, 11, 62, 68
12, 96270, Control_c, 11, 11, 109
12, 96300, Control_c, 11, 11, 112
12, 96330, Control_c, 11, 11, 114
12, 96359, Note_on_c, 11, 62, 0
12, 96360, Control_c, 11, 11, 117
12, 96360, Note_on_c, 11, 64, 68
12, 96390, Control_c, 11, 11, 119
12, 96420, Control_c, 11, 11, 122
12, 96450, Control_c, 11, 11, 124
12, 96471, Note_on_c, 11, 64, 0
12, 96476, Control_c, 11, 11, 127
12, 96480, Note_on_c, 11, 66, 52
12, 96569, Note_on_c, 11, 66, 0
12, 96600, Note_on_c, 11, 78, 52
12, 96689, Note_on_c, 11, 78, 0
12, 96960, Note_on_c, 11, 71, 52
12, 97049, Note_on_c, 11, 71, 0
12, 97320, Note_on_c, 11, 73, 52
12, 97409, Note_on_c, 11, 73, 0
12, 97560, Note_on_c, 11, 81, 84
12, 97560, Note_on_c, 11, 69, 84
12, 97615, Note_on_c, 11, 81, 0
12, 97615, Note_on_c, 11, 69, 0
12, 97620, Note_on_c, 11, 81, 84
12, 97620, Note_on_c, 11, 69, 84
12, 97645, Note_on_c, 11, 81, 0
12, 97645, Note_on_c, 11, 69, 0
12, 97650, Note_on_c, 11, 81, 84
12, 97650, Note_on_c, 11, 69, 84
12, 97675, Note_on_c, 11, 81, 0
12, 97675, Note_on_c, 11, 69, 0
12, 97680, Note_on_c, 11, 81, 84
12, 97680, Note_on_c, 11, 69, 84
12, 97735, Note_on_c, 11, 81, 0
12, 97735, Note_on_c, 11, 69, 0
12, 97740, Note_on_c, 11, 69, 84
12, 97740, Note_on_c, 11, 81, 84
12, 97765, Note_on_c, 11, 69, 0
12, 97765, Note_on_c, 11, 81, 0
12, 97770, Note_on_c, 11, 69, 84
12, 97770, Note_on_c, 11, 81, 84
12, 97795, Note_on_c, 11, 69, 0
12, 97795, Note_on_c, 11, 81, 0
12, 97800, Note_on_c, 11, 69, 84
12, 97800, Note_on_c, 11, 81, 84
12, 97855, Note_on_c, 11, 69, 0
12, 97855, Note_on_c, 11, 81, 0
12, 97860, Note_on_c, 11, 81, 84
12, 97860, Note_on_c, 11, 69, 84
12, 97885, Note_on_c, 11, 81, 0
12, 97885, Note_on_c, 11, 69, 0
12, 97890, Note_on_c, 11, 81, 84
12, 97890, Note_on_c, 11, 69, 84
12, 97915, Note_on_c, 11, 81, 0
12, 97915, Note_on_c, 11, 69, 0
12, 97920, Note_on_c, 11, 69, 84
12, 97920, Note_on_c, 11, 81, 84
12, 98009, Note_on_c, 11, 69, 0
12, 98009, Note_on_c, 11, 81, 0
12, 98040, Note_on_c, 11, 69, 92
12, 98040, Note_on_c, 11, 78, 92
12, 98040, Note_on_c, 11, 62, 92
12, 98129, Note_on_c, 11, 69, 0
12, 98129, Note_on_c, 11, 78, 0
12, 98129, Note_on_c, 11, 62, 0
12, 98280, Note_on_c, 11, 64, 84
12, 98369, Note_on_c, 11, 64, 0
12, 98400, Note_on_c, 11, 80, 92
12, 98400, Note_on_c, 11, 74, 92
12, 98400, Note_on_c, 11, 64, 92
12, 98489, Note_on_c, 11, 80, 0
12, 98489, Note_on_c, 11, 74, 0
12, 98489, Note_on_c, 11, 64, 0
12, 98640, Note_on_c, 11, 81, 84
12, 98640, Note_on_c, 11, 64, 84
12, 98640, Note_on_c, 11, 73, 84
12, 98729, Note_on_c, 11, 81, 0
12, 98729, Note_on_c, 11, 64, 0
12, 98729, Note_on_c, 11, 73, 0
12, 98880, Note_on_c, 11, 64, 52
12, 98969, Note_on_c, 11, 64, 0
12, 99000, Note_on_c, 11, 61, 52
12, 99089, Note_on_c, 11, 61, 0
12, 99089, End_track
13, 0, Start_track
13, 0, Title_t, "Violin II"
13, 0, MIDI_port, 0
13, 0, Program_c, 12, 48
13, 0, Control_c, 12, 7, 96
13, 0, Control_c, 12, 10, 24
13, 0, Control_c, 12, 11, 96
13, 0, Note_on_c, 12, 61, 68
13, 119, Note_on_c, 12, 61, 0
13, 120, Note_on_c, 12, 64, 68
13, 239, Note_on_c, 12, 64, 0
13, 240, Note_on_c, 12, 68, 68
13, 351, Note_on_c, 12, 68, 0
13, 360, Note_on_c, 12, 64, 68
13, 591, Note_on_c, 12, 64, 0
13, 600, Note_on_c, 12, 64, 68
13, 839, Note_on_c, 12, 64, 0
13, 840, Note_on_c, 12, 71, 68
13, 959, Note_on_c, 12, 71, 0
13, 960, Note_on_c, 12, 69, 68
13, 1071, Note_on_c, 12, 69, 0
13, 1080, Note_on_c, 12, 68, 68
13, 1431, Note_on_c, 12, 68, 0
13, 1440, Control_c, 12, 11, 96
13, 1440, Note_on_c, 12, 69, 68
13, 1500, Control_c, 12, 11, 99
13, 1559, Note_on_c, 12, 69, 0
13, 1560, Note_on_c, 12, 64, 68
13, 1560, Control_c, 12, 11, 101
13, 1620, Control_c, 12, 11, 104
13, 1671, Note_on_c, 12, 64, 0
13, 1680, Control_c, 12, 11, 106
13, 1680, Note_on_c, 12, 64, 68
13, 1740, Control_c, 12, 11, 109
13, 1791, Note_on_c, 12, 64, 0
13, 1800, Control_c, 12, 11, 112
13, 1800, Note_on_c, 12, 64, 68
13, 1860, Control_c, 12, 11, 114
13, 1920, Control_c, 12, 11, 117
13, 1980, Control_c, 12, 11, 119
13, 2031, Note_on_c, 12, 64, 0
13, 2040, Note_on_c, 12, 64, 68
13, 2040, Control_c, 12, 11, 122
13, 2100, Control_c, 12, 11, 124
13, 2151, Note_on_c, 12, 64, 0
13, 2156, Control_c, 12, 11, 96
13, 2160, Note_on_c, 12, 64, 68
13, 2399, Note_on_c, 12, 64, 0
13, 2400, Note_on_c, 12, 63, 68
13, 2511, Note_on_c, 12, 63, 0
13, 2520, Note_on_c, 12, 64, 68
13, 2520, Control_c, 12, 11, 96
13, 2550, Control_c, 12, 11, 99
13, 2580, Control_c, 12, 11, 101
13, 2610, Control_c, 12, 11, 104
13, 2639, Note_on_c, 12, 64, 0
13, 2640, Control_c, 12, 11, 106
13, 2670, Control_c, 12, 11, 109
13, 2700, Note_on_c, 12, 64, 68
13, 2700, Control_c, 12, 11, 112
13, 2730, Control_c, 12, 11, 114
13, 2759, Note_on_c, 12, 64, 0
13, 2760, Control_c, 12, 11, 117
13, 2760, Note_on_c, 12, 66, 68
13, 2790, Control_c, 12, 11, 119
13, 2819, Note_on_c, 12, 66, 0
13, 2820, Note_on_c, 12, 68, 68
13, 2820, Control_c, 12, 11, 122
13, 2871, Note_on_c, 12, 68, 0
13, 2876, Control_c, 12, 11, 96
13, 2880, Note_on_c, 12, 69, 68
13, 2939, Note_on_c, 12, 69, 0
13, 2940, Note_on_c, 12, 64, 68
13, 2999, Note_on_c, 12, 64, 0
13, 3000, Note_on_c, 12, 69, 68
13, 3059, Note_on_c, 12, 69, 0
13, 3060, Note_on_c, 12, 64, 68
13, 3119, Note_on_c, 12, 64, 0
13, 3120, Note_on_c, 12, 68, 68
13, 3179, Note_on_c, 12, 68, 0
13, 3180, Note_on_c, 12, 64, 68
13, 3235, Note_on_c, 12, 64, 0
13, 3240, Note_on_c, 12, 69, 68
13, 3299, Note_on_c, 12, 69, 0
13, 3300, Note_on_c, 12, 64, 68
13, 3359, Note_on_c, 12, 64, 0
13, 3360, Note_on_c, 12, 69, 68
13, 3419, Note_on_c, 12, 69, 0
13, 3420, Note_on_c, 12, 64, 68
13, 3479, Note_on_c, 12, 64, 0
13, 3480, Note_on_c, 12, 69, 68
13, 3539, Note_on_c, 12, 69, 0
13, 3540, Note_on_c, 12, 64, 68
13, 3595, Note_on_c, 12, 64, 0
13, 3600, Note_on_c, 12, 69, 68
13, 3659, Note_on_c, 12, 69, 0
13, 3660, Note_on_c, 12, 64, 68
13, 3719, Note_on_c, 12, 64, 0
13, 3720, Note_on_c, 12, 71, 68
13, 3779, Note_on_c, 12, 71, 0
13, 3780, Note_on_c, 12, 64, 68
13, 3839, Note_on_c, 12, 64, 0
13, 3840, Note_on_c, 12, 69, 68
13, 3899, Note_on_c, 12, 69, 0
13, 3900, Note_on_c, 12, 64, 68
13, 3955, Note_on_c, 12, 64, 0
13, 3960, Note_on_c, 12, 68, 68
13, 4015, Note_on_c, 12, 68, 0
13, 4020, Note_on_c, 12, 64, 68
13, 4131, Note_on_c, 12, 64, 0
13, 4140, Note_on_c, 12, 64, 68
13, 4251, Note_on_c, 12, 64, 0
13, 4260, Note_on_c, 12, 64, 68
13, 4320, Control_c, 12, 11, 96
13, 4371, Note_on_c, 12, 64, 0
13, 4380, Note_on_c, 12, 76, 68
13, 4380, Control_c, 12, 11, 99
13, 4440, Control_c, 12, 11, 101
13, 4491, Note_on_c, 12, 76, 0
13, 4500, Control_c, 12, 11, 104
13, 4500, Note_on_c, 12, 76, 68
13, 4560, Control_c, 12, 11, 106
13, 4611, Note_on_c, 12, 76, 0
13, 4620, Control_c, 12, 11, 109
13, 4620, Note_on_c, 12, 76, 68
13, 4680, Control_c, 12, 11, 112
13, 4731, Note_on_c, 12, 76, 0
13, 4740, Note_on_c, 12, 76, 68
13, 4740, Control_c, 12, 11, 114
13, 4800, Control_c, 12, 11, 117
13, 4851, Note_on_c, 12, 76, 0
13, 4860, Control_c, 12, 11, 119
13, 4860, Note_on_c, 12, 76, 68
13, 4904, Note_on_c, 12, 76, 0
13, 4920, Control_c, 12, 11, 122
13, 4920, Note_on_c, 12, 76, 68
13, 4964, Note_on_c, 12, 76, 0
13, 4980, Control_c, 12, 11, 124
13, 4980, Note_on_c, 12, 76, 68
13, 5024, Note_on_c, 12, 76, 0
13, 5032, Control_c, 12, 11, 96
13, 5040, Note_on_c, 12, 76, 68
13, 5084, Note_on_c, 12, 76, 0
13, 5100, Note_on_c, 12, 71, 68
13, 5144, Note_on_c, 12, 71, 0
13, 5220, Note_on_c, 12, 71, 68
13, 5264, Note_on_c, 12, 71, 0
13, 5340, Note_on_c, 12, 71, 68
13, 5384, Note_on_c, 12, 71, 0
13, 5460, Note_on_c, 12, 71, 68
13, 5504, Note_on_c, 12, 71, 0
13, 5520, Note_on_c, 12, 64, 68
13, 5564, Note_on_c, 12, 64, 0
13, 5760, Note_on_c, 12, 68, 68
13, 5879, Note_on_c, 12, 68, 0
13, 5880, Note_on_c, 12, 69, 68
13, 5999, Note_on_c, 12, 69, 0
13, 6000, Note_on_c, 12, 64, 68
13, 6111, Note_on_c, 12, 64, 0
13, 6120, Note_on_c, 12, 64, 68
13, 6359, Note_on_c, 12, 64, 0
13, 6480, Note_on_c, 12, 69, 68
13, 6599, Note_on_c, 12, 69, 0
13, 6600, Note_on_c, 12, 68, 68
13, 6719, Note_on_c, 12, 68, 0
13, 6720, Note_on_c, 12, 67, 68
13, 6831, Note_on_c, 12, 67, 0
13, 6840, Note_on_c, 12, 68, 68
13, 7079, Note_on_c, 12, 68, 0
13, 7080, Note_on_c, 12, 64, 68
13, 7191, Note_on_c, 12, 64, 0
13, 7200, Control_c, 12, 11, 96
13, 7200, Note_on_c, 12, 64, 68
13, 7230, Control_c, 12, 11, 99
13, 7260, Control_c, 12, 11, 101
13, 7290, Control_c, 12, 11, 104
13, 7320, Control_c, 12, 11, 106
13, 7350, Control_c, 12, 11, 109
13, 7380, Control_c, 12, 11, 112
13, 7410, Control_c, 12, 11, 114
13, 7431, Note_on_c, 12, 64, 0
13, 7440, Control_c, 12, 11, 117
13, 7440, Note_on_c, 12, 64, 68
13, 7470, Control_c, 12, 11, 119
13, 7500, Control_c, 12, 11, 122
13, 7530, Control_c, 12, 11, 124
13, 7551, Note_on_c, 12, 64, 0
13, 7560, Control_c, 12, 11, 127
13, 7560, Note_on_c, 12, 64, 76
13, 7590, Control_c, 12, 11, 124
13, 7620, Control_c, 12, 11, 122
13, 7650, Control_c, 12, 11, 119
13, 7679, Note_on_c, 12, 64, 0
13, 7680, Note_on_c, 12, 68, 68
13, 7680, Control_c, 12, 11, 117
13, 7710, Control_c, 12, 11, 114
13, 7740, Control_c, 12, 11, 112
13, 7770, Control_c, 12, 11, 109
13, 7799, Note_on_c, 12, 68, 0
13, 7800, Control_c, 12, 11, 106
13, 7800, Note_on_c, 12, 69, 68
13, 7830, Control_c, 12, 11, 104
13, 7860, Control_c, 12, 11, 101
13, 7890, Control_c, 12, 11, 99
13, 7911, Note_on_c, 12, 69, 0
13, 7920, Note_on_c, 12, 73, 68
13, 7920, Control_c, 12, 11, 96
13, 8099, Note_on_c, 12, 73, 0
13, 8100, Note_on_c, 12, 71, 68
13, 8159, Note_on_c, 12, 71, 0
13, 8160, Note_on_c, 12, 69, 68
13, 8219, Note_on_c, 12, 69, 0
13, 8220, Note_on_c, 12, 68, 68
13, 8275, Note_on_c, 12, 68, 0
13, 8280, Note_on_c, 12, 68, 68
13, 8399, Note_on_c, 12, 68, 0
13, 8400, Note_on_c, 12, 69, 68
13, 8519, Note_on_c, 12, 69, 0
13, 8640, Note_on_c, 12, 64, 68
13, 8695, Note_on_c, 12, 64, 0
13, 8700, Note_on_c, 12, 64, 68
13, 8811, Note_on_c, 12, 64, 0
13, 8820, Note_on_c, 12, 64, 68
13, 8931, Note_on_c, 12, 64, 0
13, 8940, Note_on_c, 12, 64, 68
13, 9051, Note_on_c, 12, 64, 0
13, 9060, Note_on_c, 12, 64, 76
13, 9115, Note_on_c, 12, 64, 0
13, 9120, Note_on_c, 12, 63, 68
13, 9179, Note_on_c, 12, 63, 0
13, 9180, Note_on_c, 12, 64, 68
13, 9235, Note_on_c, 12, 64, 0
13, 9240, Note_on_c, 12, 63, 68
13, 9269, Note_on_c, 12, 63, 0
13, 9270, Note_on_c, 12, 64, 68
13, 9295, Note_on_c, 12, 64, 0
13, 9300, Note_on_c, 12, 66, 68
13, 9329, Note_on_c, 12, 66, 0
13, 9330, Note_on_c, 12, 64, 68
13, 9355, Note_on_c, 12, 64, 0
13, 9360, Note_on_c, 12, 64, 68
13, 9415, Note_on_c, 12, 64, 0
13, 9420, Note_on_c, 12, 64, 68
13, 9531, Note_on_c, 12, 64, 0
13, 9540, Note_on_c, 12, 64, 68
13, 9651, Note_on_c, 12, 64, 0
13, 9660, Note_on_c, 12, 64, 68
13, 9771, Note_on_c, 12, 64, 0
13, 9780, Note_on_c, 12, 64, 68
13, 9891, Note_on_c, 12, 64, 0
13, 9900, Note_on_c, 12, 74, 68
13, 9944, Note_on_c, 12, 74, 0
13, 9960, Note_on_c, 12, 71, 68
13, 10004, Note_on_c, 12, 71, 0
13, 10020, Note_on_c, 12, 68, 68
13, 10064, Note_on_c, 12, 68, 0
13, 10080, Control_c, 12, 11, 96
13, 10080, Note_on_c, 12, 66, 68
13, 10110, Control_c, 12, 11, 99
13, 10139, Note_on_c, 12, 66, 0
13, 10140, Note_on_c, 12, 64, 68
13, 10140, Control_c, 12, 11, 101
13, 10170, Control_c, 12, 11, 104
13, 10199, Note_on_c, 12, 64, 0
13, 10200, Control_c, 12, 11, 106
13, 10200, Note_on_c, 12, 62, 68
13, 10230, Control_c, 12, 11, 109
13, 10259, Note_on_c, 12, 62, 0
13, 10260, Control_c, 12, 11, 112
13, 10260, Note_on_c, 12, 61, 68
13, 10290, Control_c, 12, 11, 114
13, 10319, Note_on_c, 12, 61, 0
13, 10320, Control_c, 12, 11, 117
13, 10320, Note_on_c, 12, 59, 68
13, 10350, Control_c, 12, 11, 119
13, 10379, Note_on_c, 12, 59, 0
13, 10380, Control_c, 12, 11, 122
13, 10380, Note_on_c, 12, 57, 68
13, 10410, Control_c, 12, 11, 124
13, 10435, Note_on_c, 12, 57, 0
13, 10440, Note_on_c, 12, 56, 68
13, 10440, Control_c, 12, 11, 127
13, 10495, Note_on_c, 12, 56, 0
13, 10500, Note_on_c, 12, 68, 76
13, 10560, Control_c, 12, 11, 127
13, 10580, Control_c, 12, 11, 124
13, 10600, Control_c, 12, 11, 122
13, 10611, Note_on_c, 12, 68, 0
13, 10620, Control_c, 12, 11, 119
13, 10620, Note_on_c, 12, 68, 68
13, 10640, Control_c, 12, 11, 117
13, 10660, Control_c, 12, 11, 114
13, 10664, Note_on_c, 12, 68, 0
13, 10680, Note_on_c, 12, 69, 68
13, 10680, Control_c, 12, 11, 112
13, 10700, Control_c, 12, 11, 109
13, 10720, Control_c, 12, 11, 106
13, 10724, Note_on_c, 12, 69, 0
13, 10740, Control_c, 12, 11, 104
13, 10740, Note_on_c, 12, 69, 68
13, 10760, Control_c, 12, 11, 101
13, 10780, Control_c, 12, 11, 99
13, 10784, Note_on_c, 12, 69, 0
13, 10800, Control_c, 12, 11, 127
13, 10860, Note_on_c, 12, 71, 52
13, 10919, Note_on_c, 12, 71, 0
13, 10980, Note_on_c, 12, 71, 52
13, 11039, Note_on_c, 12, 71, 0
13, 11100, Note_on_c, 12, 68, 52
13, 11155, Note_on_c, 12, 68, 0
13, 11160, Note_on_c, 12, 69, 52
13, 11215, Note_on_c, 12, 69, 0
13, 11220, Note_on_c, 12, 61, 52
13, 11220, Note_on_c, 12, 64, 52
13, 11271, Note_on_c, 12, 61, 0
13, 11271, Note_on_c, 12, 64, 0
13, 11280, Note_on_c, 12, 61, 52
13, 11280, Note_on_c, 12, 64, 52
13, 11331, Note_on_c, 12, 61, 0
13, 11331, Note_on_c, 12, 64, 0
13, 11340, Note_on_c, 12, 64, 52
13, 11340, Note_on_c, 12, 61, 52
13, 11391, Note_on_c, 12, 64, 0
13, 11391, Note_on_c, 12, 61, 0
13, 11400, Note_on_c, 12, 61, 52
13, 11400, Note_on_c, 12, 64, 52
13, 11451, Note_on_c, 12, 61, 0
13, 11451, Note_on_c, 12, 64, 0
13, 11460, Note_on_c, 12, 64, 52
13, 11460, Note_on_c, 12, 61, 52
13, 11511, Note_on_c, 12, 64, 0
13, 11511, Note_on_c, 12, 61, 0
13, 11520, Note_on_c, 12, 61, 52
13, 11520, Note_on_c, 12, 64, 52
13, 11571, Note_on_c, 12, 61, 0
13, 11571, Note_on_c, 12, 64, 0
13, 11580, Note_on_c, 12, 61, 52
13, 11580, Note_on_c, 12, 64, 52
13, 11631, Note_on_c, 12, 61, 0
13, 11631, Note_on_c, 12, 64, 0
13, 11640, Note_on_c, 12, 61, 52
13, 11640, Note_on_c, 12, 64, 52
13, 11691, Note_on_c, 12, 61, 0
13, 11691, Note_on_c, 12, 64, 0
13, 11700, Note_on_c, 12, 64, 52
13, 11700, Note_on_c, 12, 61, 52
13, 11751, Note_on_c, 12, 64, 0
13, 11751, Note_on_c, 12, 61, 0
13, 11760, Note_on_c, 12, 61, 52
13, 11760, Note_on_c, 12, 64, 52
13, 11811, Note_on_c, 12, 61, 0
13, 11811, Note_on_c, 12, 64, 0
13, 11820, Note_on_c, 12, 61, 52
13, 11820, Note_on_c, 12, 64, 52
13, 11871, Note_on_c, 12, 61, 0
13, 11871, Note_on_c, 12, 64, 0
13, 11880, Note_on_c, 12, 64, 52
13, 11880, Note_on_c, 12, 62, 52
13, 11931, Note_on_c, 12, 64, 0
13, 11931, Note_on_c, 12, 62, 0
13, 11940, Note_on_c, 12, 62, 52
13, 11940, Note_on_c, 12, 64, 52
13, 11991, Note_on_c, 12, 62, 0
13, 11991, Note_on_c, 12, 64, 0
13, 12000, Note_on_c, 12, 62, 52
13, 12000, Note_on_c, 12, 64, 52
13, 12051, Note_on_c, 12, 62, 0
13, 12051, Note_on_c, 12, 64, 0
13, 12060, Note_on_c, 12, 62, 52
13, 12060, Note_on_c, 12, 64, 52
13, 12111, Note_on_c, 12, 62, 0
13, 12111, Note_on_c, 12, 64, 0
13, 12120, Note_on_c, 12, 64, 52
13, 12120, Note_on_c, 12, 62, 52
13, 12171, Note_on_c, 12, 64, 0
13, 12171, Note_on_c, 12, 62, 0
13, 12180, Note_on_c, 12, 62, 52
13, 12180, Note_on_c, 12, 64, 52
13, 12231, Note_on_c, 12, 62, 0
13, 12231, Note_on_c, 12, 64, 0
13, 12240, Note_on_c, 12, 62, 52
13, 12240, Note_on_c, 12, 64, 52
13, 12291, Note_on_c, 12, 62, 0
13, 12291, Note_on_c, 12, 64, 0
13, 12300, Note_on_c, 12, 64, 52
13, 12300, Note_on_c, 12, 62, 52
13, 12351, Note_on_c, 12, 64, 0
13, 12351, Note_on_c, 12, 62, 0
13, 12360, Note_on_c, 12, 64, 52
13, 12360, Note_on_c, 12, 62, 52
13, 12411, Note_on_c, 12, 64, 0
13, 12411, Note_on_c, 12, 62, 0
13, 12420, Note_on_c, 12, 62, 52
13, 12420, Note_on_c, 12, 64, 52
13, 12471, Note_on_c, 12, 62, 0
13, 12471, Note_on_c, 12, 64, 0
13, 12480, Note_on_c, 12, 62, 52
13, 12480, Note_on_c, 12, 64, 52
13, 12531, Note_on_c, 12, 62, 0
13, 12531, Note_on_c, 12, 64, 0
13, 12540, Note_on_c, 12, 62, 52
13, 12540, Note_on_c, 12, 64, 52
13, 12591, Note_on_c, 12, 62, 0
13, 12591, Note_on_c, 12, 64, 0
13, 12600, Note_on_c, 12, 61, 52
13, 12600, Note_on_c, 12, 64, 52
13, 12651, Note_on_c, 12, 61, 0
13, 12651, Note_on_c, 12, 64, 0
13, 12660, Note_on_c, 12, 64, 52
13, 12660, Note_on_c, 12, 61, 52
13, 12711, Note_on_c, 12, 64, 0
13, 12711, Note_on_c, 12, 61, 0
13, 12720, Note_on_c, 12, 64, 52
13, 12720, Note_on_c, 12, 61, 52
13, 12771, Note_on_c, 12, 64, 0
13, 12771, Note_on_c, 12, 61, 0
13, 12780, Note_on_c, 12, 61, 52
13, 12780, Note_on_c, 12, 64, 52
13, 12831, Note_on_c, 12, 61, 0
13, 12831, Note_on_c, 12, 64, 0
13, 12840, Note_on_c, 12, 61, 52
13, 12840, Note_on_c, 12, 64, 52
13, 12891, Note_on_c, 12, 61, 0
13, 12891, Note_on_c, 12, 64, 0
13, 12900, Note_on_c, 12, 64, 52
13, 12900, Note_on_c, 12, 61, 52
13, 12951, Note_on_c, 12, 64, 0
13, 12951, Note_on_c, 12, 61, 0
13, 12960, Note_on_c, 12, 64, 52
13, 12960, Note_on_c, 12, 60, 52
13, 13011, Note_on_c, 12, 64, 0
13, 13011, Note_on_c, 12, 60, 0
13, 13020, Note_on_c, 12, 64, 52
13, 13020, Note_on_c, 12, 60, 52
13, 13071, Note_on_c, 12, 64, 0
13, 13071, Note_on_c, 12, 60, 0
13, 13080, Note_on_c, 12, 60, 52
13, 13080, Note_on_c, 12, 64, 52
13, 13131, Note_on_c, 12, 60, 0
13, 13131, Note_on_c, 12, 64, 0
13, 13140, Note_on_c, 12, 60, 52
13, 13140, Note_on_c, 12, 64, 52
13, 13191, Note_on_c, 12, 60, 0
13, 13191, Note_on_c, 12, 64, 0
13, 13200, Note_on_c, 12, 60, 52
13, 13200, Note_on_c, 12, 64, 52
13, 13251, Note_on_c, 12, 60, 0
13, 13251, Note_on_c, 12, 64, 0
13, 13260, Note_on_c, 12, 64, 52
13, 13260, Note_on_c, 12, 60, 52
13, 13311, Note_on_c, 12, 64, 0
13, 13311, Note_on_c, 12, 60, 0
13, 13320, Note_on_c, 12, 62, 52
13, 13320, Note_on_c, 12, 64, 52
13, 13371, Note_on_c, 12, 62, 0
13, 13371, Note_on_c, 12, 64, 0
13, 13380, Note_on_c, 12, 62, 52
13, 13380, Note_on_c, 12, 64, 52
13, 13431, Note_on_c, 12, 62, 0
13, 13431, Note_on_c, 12, 64, 0
13, 13440, Note_on_c, 12, 62, 52
13, 13440, Note_on_c, 12, 64, 52
13, 13491, Note_on_c, 12, 62, 0
13, 13491, Note_on_c, 12, 64, 0
13, 13500, Note_on_c, 12, 62, 52
13, 13500, Note_on_c, 12, 64, 52
13, 13551, Note_on_c, 12, 62, 0
13, 13551, Note_on_c, 12, 64, 0
13, 13560, Note_on_c, 12, 64, 52
13, 13560, Note_on_c, 12, 62, 52
13, 13611, Note_on_c, 12, 64, 0
13, 13611, Note_on_c, 12, 62, 0
13, 13620, Note_on_c, 12, 62, 52
13, 13620, Note_on_c, 12, 64, 52
13, 13671, Note_on_c, 12, 62, 0
13, 13671, Note_on_c, 12, 64, 0
13, 13680, Note_on_c, 12, 62, 52
13, 13680, Note_on_c, 12, 64, 52
13, 13731, Note_on_c, 12, 62, 0
13, 13731, Note_on_c, 12, 64, 0
13, 13740, Note_on_c, 12, 62, 52
13, 13740, Note_on_c, 12, 64, 52
13, 13791, Note_on_c, 12, 62, 0
13, 13791, Note_on_c, 12, 64, 0
13, 13800, Note_on_c, 12, 64, 52
13, 13800, Note_on_c, 12, 62, 52
13, 13851, Note_on_c, 12, 64, 0
13, 13851, Note_on_c, 12, 62, 0
13, 13860, Note_on_c, 12, 62, 52
13, 13860, Note_on_c, 12, 64, 52
13, 13911, Note_on_c, 12, 62, 0
13, 13911, Note_on_c, 12, 64, 0
13, 13920, Note_on_c, 12, 62, 52
13, 13920, Note_on_c, 12, 64, 52
13, 13971, Note_on_c, 12, 62, 0
13, 13971, Note_on_c, 12, 64, 0
13, 13980, Note_on_c, 12, 64, 52
13, 13980, Note_on_c, 12, 62, 52
13, 14031, Note_on_c, 12, 64, 0
13, 14031, Note_on_c, 12, 62, 0
13, 14040, Note_on_c, 12, 64, 52
13, 14040, Note_on_c, 12, 60, 52
13, 14091, Note_on_c, 12, 64, 0
13, 14091, Note_on_c, 12, 60, 0
13, 14100, Note_on_c, 12, 64, 52
13, 14100, Note_on_c, 12, 60, 52
13, 14151, Note_on_c, 12, 64, 0
13, 14151, Note_on_c, 12, 60, 0
13, 14160, Note_on_c, 12, 64, 52
13, 14160, Note_on_c, 12, 60, 52
13, 14211, Note_on_c, 12, 64, 0
13, 14211, Note_on_c, 12, 60, 0
13, 14220, Note_on_c, 12, 64, 52
13, 14220, Note_on_c, 12, 60, 52
13, 14271, Note_on_c, 12, 64, 0
13, 14271, Note_on_c, 12, 60, 0
13, 14280, Note_on_c, 12, 64, 52
13, 14280, Note_on_c, 12, 60, 52
13, 14331, Note_on_c, 12, 64, 0
13, 14331, Note_on_c, 12, 60, 0
13, 14340, Note_on_c, 12, 64, 84
13, 14340, Note_on_c, 12, 60, 84
13, 14391, Note_on_c, 12, 64, 0
13, 14391, Note_on_c, 12, 60, 0
13, 14400, Note_on_c, 12, 63, 92
13, 14571, Note_on_c, 12, 63, 0
13, 14580, Note_on_c, 12, 64, 84
13, 14624, Note_on_c, 12, 64, 0
13, 14640, Note_on_c, 12, 66, 84
13, 14684, Note_on_c, 12, 66, 0
13, 14700, Note_on_c, 12, 64, 84
13, 14744, Note_on_c, 12, 64, 0
13, 14760, Note_on_c, 12, 63, 84
13, 14849, Note_on_c, 12, 63, 0
13, 14880, Note_on_c, 12, 63, 84
13, 14969, Note_on_c, 12, 63, 0
13, 15840, Note_on_c, 12, 76, 44
13, 15929, Note_on_c, 12, 76, 0
13, 15960, Note_on_c, 12, 76, 44
13, 16049, Note_on_c, 12, 76, 0
13, 16200, Note_on_c, 12, 76, 84
13, 16289, Note_on_c, 12, 76, 0
13, 16320, Note_on_c, 12, 64, 84
13, 16409, Note_on_c, 12, 64, 0
13, 16440, Note_on_c, 12, 64, 84
13, 16529, Note_on_c, 12, 64, 0
13, 16560, Note_on_c, 12, 63, 84
13, 16649, Note_on_c, 12, 63, 0
13, 16800, Control_c, 12, 11, 96
13, 16920, Note_on_c, 12, 66, 68
13, 17279, Note_on_c, 12, 66, 0
13, 17280, Note_on_c, 12, 68, 68
13, 17639, Note_on_c, 12, 68, 0
13, 17640, Note_on_c, 12, 69, 68
13, 17815, Note_on_c, 12, 69, 0
13, 17820, Note_on_c, 12, 66, 68
13, 17879, Note_on_c, 12, 66, 0
13, 17880, Note_on_c, 12, 63, 68
13, 17939, Note_on_c, 12, 63, 0
13, 17940, Note_on_c, 12, 57, 68
13, 17995, Note_on_c, 12, 57, 0
13, 18000, Note_on_c, 12, 56, 68
13, 18000, Control_c, 12, 11, 96
13, 18030, Control_c, 12, 11, 99
13, 18059, Note_on_c, 12, 56, 0
13, 18060, Control_c, 12, 11, 101
13, 18060, Note_on_c, 12, 59, 68
13, 18090, Control_c, 12, 11, 104
13, 18115, Note_on_c, 12, 59, 0
13, 18120, Control_c, 12, 11, 106
13, 18120, Note_on_c, 12, 64, 68
13, 18150, Control_c, 12, 11, 109
13, 18164, Note_on_c, 12, 64, 0
13, 18180, Note_on_c, 12, 68, 68
13, 18180, Control_c, 12, 11, 112
13, 18210, Control_c, 12, 11, 114
13, 18224, Note_on_c, 12, 68, 0
13, 18240, Control_c, 12, 11, 117
13, 18240, Note_on_c, 12, 71, 68
13, 18270, Control_c, 12, 11, 119
13, 18284, Note_on_c, 12, 71, 0
13, 18300, Note_on_c, 12, 71, 68
13, 18300, Control_c, 12, 11, 122
13, 18330, Control_c, 12, 11, 127
13, 18344, Note_on_c, 12, 71, 0
13, 18360, Note_on_c, 12, 71, 52
13, 18404, Note_on_c, 12, 71, 0
13, 18420, Note_on_c, 12, 59, 52
13, 18464, Note_on_c, 12, 59, 0
13, 18480, Note_on_c, 12, 66, 52
13, 18524, Note_on_c, 12, 66, 0
13, 18780, Note_on_c, 12, 59, 52
13, 18824, Note_on_c, 12, 59, 0
13, 18840, Note_on_c, 12, 68, 52
13, 18884, Note_on_c, 12, 68, 0
13, 19140, Note_on_c, 12, 59, 52
13, 19184, Note_on_c, 12, 59, 0
13, 19200, Note_on_c, 12, 69, 52
13, 19244, Note_on_c, 12, 69, 0
13, 19440, Note_on_c, 12, 68, 52
13, 19559, Note_on_c, 12, 68, 0
13, 19680, Control_c, 12, 11, 80
13, 19740, Note_on_c, 12, 64, 76
13, 19760, Control_c, 12, 11, 84
13, 19784, Note_on_c, 12, 64, 0
13, 19800, Note_on_c, 12, 66, 76
13, 19840, Control_c, 12, 11, 88
13, 19844, Note_on_c, 12, 66, 0
13, 19860, Note_on_c, 12, 64, 76
13, 19904, Note_on_c, 12, 64, 0
13, 19920, Control_c, 12, 11, 92
13, 19920, Note_on_c, 12, 66, 76
13, 20000, Control_c, 12, 11, 96
13, 20080, Control_c, 12, 11, 100
13, 20095, Note_on_c, 12, 66, 0
13, 20100, Note_on_c, 12, 66, 76
13, 20144, Note_on_c, 12, 66, 0
13, 20160, Control_c, 12, 11, 104
13, 20160, Note_on_c, 12, 68, 76
13, 20204, Note_on_c, 12, 68, 0
13, 20220, Note_on_c, 12, 67, 76
13, 20240, Control_c, 12, 11, 107
13, 20264, Note_on_c, 12, 67, 0
13, 20280, Note_on_c, 12, 68, 76
13, 20320, Control_c, 12, 11, 111
13, 20400, Control_c, 12, 11, 115
13, 20455, Note_on_c, 12, 68, 0
13, 20460, Note_on_c, 12, 68, 76
13, 20480, Control_c, 12, 11, 119
13, 20504, Note_on_c, 12, 68, 0
13, 20520, Note_on_c, 12, 69, 76
13, 20560, Control_c, 12, 11, 123
13, 20564, Note_on_c, 12, 69, 0
13, 20580, Note_on_c, 12, 68, 76
13, 20624, Note_on_c, 12, 68, 0
13, 20640, Control_c, 12, 11, 127
13, 20640, Note_on_c, 12, 69, 76
13, 20815, Note_on_c, 12, 69, 0
13, 20820, Note_on_c, 12, 69, 76
13, 20864, Note_on_c, 12, 69, 0
13, 20880, Note_on_c, 12, 69, 76
13, 21055, Note_on_c, 12, 69, 0
13, 21060, Note_on_c, 12, 66, 76
13, 21060, Control_c, 12, 11, 80
13, 21104, Note_on_c, 12, 66, 0
13, 21120, Note_on_c, 12, 66, 76
13, 21164, Note_on_c, 12, 66, 0
13, 21180, Note_on_c, 12, 64, 76
13, 21224, Note_on_c, 12, 64, 0
13, 21240, Note_on_c, 12, 61, 76
13, 21415, Note_on_c, 12, 61, 0
13, 21420, Note_on_c, 12, 66, 76
13, 21420, Control_c, 12, 11, 127
13, 21464, Note_on_c, 12, 66, 0
13, 21480, Note_on_c, 12, 68, 76
13, 21524, Note_on_c, 12, 68, 0
13, 21540, Note_on_c, 12, 69, 76
13, 21584, Note_on_c, 12, 69, 0
13, 21600, Control_c, 12, 11, 127
13, 21600, Note_on_c, 12, 64, 84
13, 21629, Note_on_c, 12, 64, 0
13, 21630, Control_c, 12, 11, 123
13, 21630, Note_on_c, 12, 71, 76
13, 21655, Note_on_c, 12, 71, 0
13, 21660, Note_on_c, 12, 69, 76
13, 21660, Control_c, 12, 11, 119
13, 21681, Note_on_c, 12, 69, 0
13, 21690, Control_c, 12, 11, 115
13, 21690, Note_on_c, 12, 68, 76
13, 21711, Note_on_c, 12, 68, 0
13, 21720, Note_on_c, 12, 66, 76
13, 21720, Control_c, 12, 11, 111
13, 21741, Note_on_c, 12, 66, 0
13, 21750, Note_on_c, 12, 64, 76
13, 21750, Control_c, 12, 11, 107
13, 21771, Note_on_c, 12, 64, 0
13, 21780, Control_c, 12, 11, 104
13, 21780, Note_on_c, 12, 63, 76
13, 21801, Note_on_c, 12, 63, 0
13, 21810, Note_on_c, 12, 61, 76
13, 21810, Control_c, 12, 11, 100
13, 21831, Note_on_c, 12, 61, 0
13, 21840, Control_c, 12, 11, 96
13, 21840, Note_on_c, 12, 59, 76
13, 21869, Note_on_c, 12, 59, 0
13, 21870, Note_on_c, 12, 61, 76
13, 21870, Control_c, 12, 11, 92
13, 21899, Note_on_c, 12, 61, 0
13, 21900, Note_on_c, 12, 57, 76
13, 21900, Control_c, 12, 11, 88
13, 21929, Note_on_c, 12, 57, 0
13, 21930, Control_c, 12, 11, 84
13, 21930, Note_on_c, 12, 59, 76
13, 21955, Note_on_c, 12, 59, 0
13, 21960, Note_on_c, 12, 56, 76
13, 21960, Control_c, 12, 11, 80
13, 22079, Note_on_c, 12, 56, 0
13, 22260, Note_on_c, 12, 64, 76
13, 22304, Note_on_c, 12, 64, 0
13, 22320, Control_c, 12, 11, 80
13, 22320, Note_on_c, 12, 66, 76
13, 22364, Note_on_c, 12, 66, 0
13, 22380, Note_on_c, 12, 64, 76
13, 22390, Control_c, 12, 11, 84
13, 22424, Note_on_c, 12, 64, 0
13, 22440, Note_on_c, 12, 66, 76
13, 22460, Control_c, 12, 11, 88
13, 22530, Control_c, 12, 11, 92
13, 22600, Control_c, 12, 11, 96
13, 22615, Note_on_c, 12, 66, 0
13, 22620, Note_on_c, 12, 66, 76
13, 22664, Note_on_c, 12, 66, 0
13, 22670, Control_c, 12, 11, 100
13, 22680, Note_on_c, 12, 68, 76
13, 22724, Note_on_c, 12, 68, 0
13, 22740, Control_c, 12, 11, 104
13, 22740, Note_on_c, 12, 67, 76
13, 22784, Note_on_c, 12, 67, 0
13, 22800, Note_on_c, 12, 68, 76
13, 22810, Control_c, 12, 11, 107
13, 22880, Control_c, 12, 11, 111
13, 22950, Control_c, 12, 11, 115
13, 22975, Note_on_c, 12, 68, 0
13, 22980, Note_on_c, 12, 68, 76
13, 23020, Control_c, 12, 11, 119
13, 23024, Note_on_c, 12, 68, 0
13, 23040, Note_on_c, 12, 69, 76
13, 23084, Note_on_c, 12, 69, 0
13, 23090, Control_c, 12, 11, 123
13, 23100, Note_on_c, 12, 68, 76
13, 23144, Note_on_c, 12, 68, 0
13, 23160, Note_on_c, 12, 69, 76
13, 23160, Control_c, 12, 11, 127
13, 23335, Note_on_c, 12, 69, 0
13, 23340, Note_on_c, 12, 69, 76
13, 23395, Note_on_c, 12, 69, 0
13, 23400, Note_on_c, 12, 69, 84
13, 23579, Note_on_c, 12, 69, 0
13, 23940, Note_on_c, 12, 69, 52
13, 23999, Note_on_c, 12, 69, 0
13, 24000, Note_on_c, 12, 68, 52
13, 24059, Note_on_c, 12, 68, 0
13, 24060, Note_on_c, 12, 66, 52
13, 24115, Note_on_c, 12, 66, 0
13, 24120, Note_on_c, 12, 64, 52
13, 24299, Note_on_c, 12, 64, 0
13, 24540, Note_on_c, 12, 62, 52
13, 24599, Note_on_c, 12, 62, 0
13, 24600, Note_on_c, 12, 61, 52
13, 24659, Note_on_c, 12, 61, 0
13, 24660, Note_on_c, 12, 59, 52
13, 24719, Note_on_c, 12, 59, 0
13, 24720, Note_on_c, 12, 57, 52
13, 24764, Note_on_c, 12, 57, 0
13, 24840, Control_c, 12, 11, 80
13, 25020, Note_on_c, 12, 62, 76
13, 25079, Note_on_c, 12, 62, 0
13, 25080, Note_on_c, 12, 61, 76
13, 25139, Note_on_c, 12, 61, 0
13, 25140, Note_on_c, 12, 59, 76
13, 25199, Note_on_c, 12, 59, 0
13, 25200, Control_c, 12, 11, 80
13, 25200, Note_on_c, 12, 57, 76
13, 25244, Note_on_c, 12, 57, 0
13, 25245, Control_c, 12, 11, 84
13, 25260, Note_on_c, 12, 62, 76
13, 25290, Control_c, 12, 11, 88
13, 25319, Note_on_c, 12, 62, 0
13, 25320, Note_on_c, 12, 61, 76
13, 25335, Control_c, 12, 11, 92
13, 25379, Note_on_c, 12, 61, 0
13, 25380, Note_on_c, 12, 59, 76
13, 25380, Control_c, 12, 11, 96
13, 25425, Control_c, 12, 11, 100
13, 25439, Note_on_c, 12, 59, 0
13, 25440, Note_on_c, 12, 57, 76
13, 25470, Control_c, 12, 11, 104
13, 25484, Note_on_c, 12, 57, 0
13, 25500, Note_on_c, 12, 62, 76
13, 25515, Control_c, 12, 11, 107
13, 25559, Note_on_c, 12, 62, 0
13, 25560, Control_c, 12, 11, 111
13, 25560, Note_on_c, 12, 61, 76
13, 25605, Control_c, 12, 11, 115
13, 25619, Note_on_c, 12, 61, 0
13, 25620, Note_on_c, 12, 59, 76
13, 25650, Control_c, 12, 11, 119
13, 25679, Note_on_c, 12, 59, 0
13, 25680, Note_on_c, 12, 57, 76
13, 25695, Control_c, 12, 11, 123
13, 25724, Note_on_c, 12, 57, 0
13, 25740, Note_on_c, 12, 62, 76
13, 25740, Control_c, 12, 11, 127
13, 25799, Note_on_c, 12, 62, 0
13, 25800, Note_on_c, 12, 61, 76
13, 25859, Note_on_c, 12, 61, 0
13, 25860, Note_on_c, 12, 59, 76
13, 25915, Note_on_c, 12, 59, 0
13, 25920, Note_on_c, 12, 57, 84
13, 26271, Note_on_c, 12, 57, 0
13, 26280, Note_on_c, 12, 66, 84
13, 26280, Note_on_c, 12, 61, 84
13, 26631, Note_on_c, 12, 66, 0
13, 26631, Note_on_c, 12, 61, 0
13, 26640, Note_on_c, 12, 66, 76
13, 26640, Note_on_c, 12, 59, 76
13, 26706, Note_on_c, 12, 66, 0
13, 26706, Note_on_c, 12, 59, 0
13, 26730, Note_on_c, 12, 59, 76
13, 26730, Note_on_c, 12, 66, 76
13, 26751, Note_on_c, 12, 59, 0
13, 26751, Note_on_c, 12, 66, 0
13, 26760, Note_on_c, 12, 59, 76
13, 26760, Note_on_c, 12, 66, 76
13, 26849, Note_on_c, 12, 59, 0
13, 26849, Note_on_c, 12, 66, 0
13, 27000, Note_on_c, 12, 68, 76
13, 27000, Note_on_c, 12, 59, 76
13, 27066, Note_on_c, 12, 68, 0
13, 27066, Note_on_c, 12, 59, 0
13, 27090, Note_on_c, 12, 68, 76
13, 27090, Note_on_c, 12, 59, 76
13, 27111, Note_on_c, 12, 68, 0
13, 27111, Note_on_c, 12, 59, 0
13, 27120, Note_on_c, 12, 59, 76
13, 27120, Note_on_c, 12, 68, 76
13, 27209, Note_on_c, 12, 59, 0
13, 27209, Note_on_c, 12, 68, 0
13, 27420, Note_on_c, 12, 69, 52
13, 27449, Note_on_c, 12, 69, 0
13, 27450, Note_on_c, 12, 73, 52
13, 27479, Note_on_c, 12, 73, 0
13, 27540, Note_on_c, 12, 68, 52
13, 27569, Note_on_c, 12, 68, 0
13, 27570, Note_on_c, 12, 71, 52
13, 27599, Note_on_c, 12, 71, 0
13, 27660, Note_on_c, 12, 69, 52
13, 27689, Note_on_c, 12, 69, 0
13, 27690, Note_on_c, 12, 71, 52
13, 27715, Note_on_c, 12, 71, 0
13, 27720, Note_on_c, 12, 68, 52
13, 27959, Note_on_c, 12, 68, 0
13, 28080, Note_on_c, 12, 69, 44
13, 28080, Note_on_c, 12, 59, 44
13, 28146, Note_on_c, 12, 69, 0
13, 28146, Note_on_c, 12, 59, 0
13, 28170, Note_on_c, 12, 69, 44
13, 28170, Note_on_c, 12, 59, 44
13, 28191, Note_on_c, 12, 69, 0
13, 28191, Note_on_c, 12, 59, 0
13, 28200, Note_on_c, 12, 59, 44
13, 28200, Note_on_c, 12, 69, 44
13, 28289, Note_on_c, 12, 59, 0
13, 28289, Note_on_c, 12, 69, 0
13, 28440, Note_on_c, 12, 68, 44
13, 28440, Note_on_c, 12, 59, 44
13, 28506, Note_on_c, 12, 68, 0
13, 28506, Note_on_c, 12, 59, 0
13, 28530, Note_on_c, 12, 59, 44
13, 28530, Note_on_c, 12, 68, 44
13, 28551, Note_on_c, 12, 59, 0
13, 28551, Note_on_c, 12, 68, 0
13, 28560, Note_on_c, 12, 59, 44
13, 28560, Note_on_c, 12, 68, 44
13, 28649, Note_on_c, 12, 59, 0
13, 28649, Note_on_c, 12, 68, 0
13, 28860, Note_on_c, 12, 69, 44
13, 28889, Note_on_c, 12, 69, 0
13, 28890, Note_on_c, 12, 73, 44
13, 28919, Note_on_c, 12, 73, 0
13, 28980, Note_on_c, 12, 68, 44
13, 29009, Note_on_c, 12, 68, 0
13, 29010, Note_on_c, 12, 71, 44
13, 29039, Note_on_c, 12, 71, 0
13, 29100, Note_on_c, 12, 69, 44
13, 29129, Note_on_c, 12, 69, 0
13, 29130, Note_on_c, 12, 71, 44
13, 29159, Note_on_c, 12, 71, 0
13, 29160, Note_on_c, 12, 64, 44
13, 29279, Note_on_c, 12, 64, 0
13, 29340, Note_on_c, 12, 71, 52
13, 29399, Note_on_c, 12, 71, 0
13, 29400, Note_on_c, 12, 73, 52
13, 29429, Note_on_c, 12, 73, 0
13, 29430, Note_on_c, 12, 71, 52
13, 29459, Note_on_c, 12, 71, 0
13, 29460, Note_on_c, 12, 70, 52
13, 29489, Note_on_c, 12, 70, 0
13, 29490, Note_on_c, 12, 71, 52
13, 29515, Note_on_c, 12, 71, 0
13, 29520, Note_on_c, 12, 68, 52
13, 29564, Note_on_c, 12, 68, 0
13, 29580, Note_on_c, 12, 64, 52
13, 29624, Note_on_c, 12, 64, 0
13, 29640, Note_on_c, 12, 59, 52
13, 29684, Note_on_c, 12, 59, 0
13, 29700, Note_on_c, 12, 71, 52
13, 29759, Note_on_c, 12, 71, 0
13, 29760, Note_on_c, 12, 73, 52
13, 29789, Note_on_c, 12, 73, 0
13, 29790, Note_on_c, 12, 71, 52
13, 29819, Note_on_c, 12, 71, 0
13, 29820, Note_on_c, 12, 70, 52
13, 29849, Note_on_c, 12, 70, 0
13, 29850, Note_on_c, 12, 71, 52
13, 29875, Note_on_c, 12, 71, 0
13, 29880, Note_on_c, 12, 73, 52
13, 29924, Note_on_c, 12, 73, 0
13, 29940, Note_on_c, 12, 69, 52
13, 29984, Note_on_c, 12, 69, 0
13, 30000, Note_on_c, 12, 66, 52
13, 30044, Note_on_c, 12, 66, 0
13, 30060, Note_on_c, 12, 69, 52
13, 30119, Note_on_c, 12, 69, 0
13, 30120, Note_on_c, 12, 71, 52
13, 30149, Note_on_c, 12, 71, 0
13, 30150, Note_on_c, 12, 69, 52
13, 30179, Note_on_c, 12, 69, 0
13, 30180, Note_on_c, 12, 68, 52
13, 30209, Note_on_c, 12, 68, 0
13, 30210, Note_on_c, 12, 69, 52
13, 30235, Note_on_c, 12, 69, 0
13, 30240, Note_on_c, 12, 66, 52
13, 30284, Note_on_c, 12, 66, 0
13, 30300, Note_on_c, 12, 69, 52
13, 30344, Note_on_c, 12, 69, 0
13, 30360, Note_on_c, 12, 63, 52
13, 30404, Note_on_c, 12, 63, 0
13, 30420, Note_on_c, 12, 66, 52
13, 30464, Note_on_c, 12, 66, 0
13, 30480, Note_on_c, 12, 59, 52
13, 30524, Note_on_c, 12, 59, 0
13, 30540, Note_on_c, 12, 71, 52
13, 30584, Note_on_c, 12, 71, 0
13, 30600, Note_on_c, 12, 68, 52
13, 30659, Note_on_c, 12, 68, 0
13, 30660, Note_on_c, 12, 71, 52
13, 30715, Note_on_c, 12, 71, 0
13, 30720, Note_on_c, 12, 64, 52
13, 30764, Note_on_c, 12, 64, 0
13, 30960, Note_on_c, 12, 59, 52
13, 30960, Note_on_c, 12, 68, 52
13, 31011, Note_on_c, 12, 59, 0
13, 31011, Note_on_c, 12, 68, 0
13, 31020, Note_on_c, 12, 68, 52
13, 31020, Note_on_c, 12, 59, 52
13, 31071, Note_on_c, 12, 68, 0
13, 31071, Note_on_c, 12, 59, 0
13, 31080, Note_on_c, 12, 68, 52
13, 31080, Note_on_c, 12, 59, 52
13, 31131, Note_on_c, 12, 68, 0
13, 31131, Note_on_c, 12, 59, 0
13, 31140, Note_on_c, 12, 59, 52
13, 31140, Note_on_c, 12, 68, 52
13, 31191, Note_on_c, 12, 59, 0
13, 31191, Note_on_c, 12, 68, 0
13, 31200, Note_on_c, 12, 68, 52
13, 31200, Note_on_c, 12, 59, 52
13, 31251, Note_on_c, 12, 68, 0
13, 31251, Note_on_c, 12, 59, 0
13, 31260, Note_on_c, 12, 68, 52
13, 31260, Note_on_c, 12, 59, 52
13, 31311, Note_on_c, 12, 68, 0
13, 31311, Note_on_c, 12, 59, 0
13, 31320, Note_on_c, 12, 61, 52
13, 31320, Note_on_c, 12, 66, 52
13, 31371, Note_on_c, 12, 61, 0
13, 31371, Note_on_c, 12, 66, 0
13, 31380, Note_on_c, 12, 61, 52
13, 31380, Note_on_c, 12, 66, 52
13, 31431, Note_on_c, 12, 61, 0
13, 31431, Note_on_c, 12, 66, 0
13, 31440, Note_on_c, 12, 66, 52
13, 31440, Note_on_c, 12, 61, 52
13, 31491, Note_on_c, 12, 66, 0
13, 31491, Note_on_c, 12, 61, 0
13, 31500, Note_on_c, 12, 66, 52
13, 31500, Note_on_c, 12, 61, 52
13, 31551, Note_on_c, 12, 66, 0
13, 31551, Note_on_c, 12, 61, 0
13, 31560, Note_on_c, 12, 61, 52
13, 31560, Note_on_c, 12, 66, 52
13, 31611, Note_on_c, 12, 61, 0
13, 31611, Note_on_c, 12, 66, 0
13, 31620, Note_on_c, 12, 61, 52
13, 31620, Note_on_c, 12, 66, 52
13, 31671, Note_on_c, 12, 61, 0
13, 31671, Note_on_c, 12, 66, 0
13, 31680, Note_on_c, 12, 66, 52
13, 31680, Note_on_c, 12, 59, 52
13, 31731, Note_on_c, 12, 66, 0
13, 31731, Note_on_c, 12, 59, 0
13, 31740, Note_on_c, 12, 59, 52
13, 31740, Note_on_c, 12, 66, 52
13, 31791, Note_on_c, 12, 59, 0
13, 31791, Note_on_c, 12, 66, 0
13, 31800, Note_on_c, 12, 59, 52
13, 31800, Note_on_c, 12, 66, 52
13, 31851, Note_on_c, 12, 59, 0
13, 31851, Note_on_c, 12, 66, 0
13, 31860, Note_on_c, 12, 66, 52
13, 31860, Note_on_c, 12, 59, 52
13, 31911, Note_on_c, 12, 66, 0
13, 31911, Note_on_c, 12, 59, 0
13, 31920, Note_on_c, 12, 59, 52
13, 31920, Note_on_c, 12, 66, 52
13, 31971, Note_on_c, 12, 59, 0
13, 31971, Note_on_c, 12, 66, 0
13, 31980, Note_on_c, 12, 66, 52
13, 31980, Note_on_c, 12, 59, 52
13, 32031, Note_on_c, 12, 66, 0
13, 32031, Note_on_c, 12, 59, 0
13, 32040, Note_on_c, 12, 59, 52
13, 32040, Note_on_c, 12, 68, 52
13, 32091, Note_on_c, 12, 59, 0
13, 32091, Note_on_c, 12, 68, 0
13, 32100, Note_on_c, 12, 59, 52
13, 32100, Note_on_c, 12, 68, 52
13, 32151, Note_on_c, 12, 59, 0
13, 32151, Note_on_c, 12, 68, 0
13, 32160, Note_on_c, 12, 59, 52
13, 32160, Note_on_c, 12, 68, 52
13, 32211, Note_on_c, 12, 59, 0
13, 32211, Note_on_c, 12, 68, 0
13, 32220, Note_on_c, 12, 59, 52
13, 32220, Note_on_c, 12, 68, 52
13, 32271, Note_on_c, 12, 59, 0
13, 32271, Note_on_c, 12, 68, 0
13, 32280, Note_on_c, 12, 68, 52
13, 32280, Note_on_c, 12, 59, 52
13, 32331, Note_on_c, 12, 68, 0
13, 32331, Note_on_c, 12, 59, 0
13, 32340, Note_on_c, 12, 59, 52
13, 32340, Note_on_c, 12, 68, 52
13, 32391, Note_on_c, 12, 59, 0
13, 32391, Note_on_c, 12, 68, 0
13, 32400, Note_on_c, 12, 59, 52
13, 32400, Note_on_c, 12, 69, 52
13, 32451, Note_on_c, 12, 59, 0
13, 32451, Note_on_c, 12, 69, 0
13, 32460, Note_on_c, 12, 59, 52
13, 32460, Note_on_c, 12, 69, 52
13, 32511, Note_on_c, 12, 59, 0
13, 32511, Note_on_c, 12, 69, 0
13, 32520, Note_on_c, 12, 66, 52
13, 32520, Note_on_c, 12, 59, 52
13, 32571, Note_on_c, 12, 66, 0
13, 32571, Note_on_c, 12, 59, 0
13, 32580, Note_on_c, 12, 59, 52
13, 32580, Note_on_c, 12, 66, 52
13, 32631, Note_on_c, 12, 59, 0
13, 32631, Note_on_c, 12, 66, 0
13, 32640, Note_on_c, 12, 66, 52
13, 32640, Note_on_c, 12, 59, 52
13, 32691, Note_on_c, 12, 66, 0
13, 32691, Note_on_c, 12, 59, 0
13, 32700, Note_on_c, 12, 59, 52
13, 32700, Note_on_c, 12, 66, 52
13, 32744, Note_on_c, 12, 59, 0
13, 32744, Note_on_c, 12, 66, 0
13, 32752, Control_c, 12, 11, 80
13, 32760, Note_on_c, 12, 59, 76
13, 32760, Note_on_c, 12, 68, 76
13, 32811, Note_on_c, 12, 59, 0
13, 32811, Note_on_c, 12, 68, 0
13, 32820, Note_on_c, 12, 59, 76
13, 32820, Note_on_c, 12, 68, 76
13, 32871, Note_on_c, 12, 59, 0
13, 32871, Note_on_c, 12, 68, 0
13, 32880, Note_on_c, 12, 59, 76
13, 32880, Note_on_c, 12, 68, 76
13, 32931, Note_on_c, 12, 59, 0
13, 32931, Note_on_c, 12, 68, 0
13, 32940, Note_on_c, 12, 68, 76
13, 32940, Note_on_c, 12, 59, 76
13, 32991, Note_on_c, 12, 68, 0
13, 32991, Note_on_c, 12, 59, 0
13, 33000, Note_on_c, 12, 68, 76
13, 33000, Note_on_c, 12, 59, 76
13, 33051, Note_on_c, 12, 68, 0
13, 33051, Note_on_c, 12, 59, 0
13, 33060, Note_on_c, 12, 59, 76
13, 33060, Note_on_c, 12, 68, 76
13, 33111, Note_on_c, 12, 59, 0
13, 33111, Note_on_c, 12, 68, 0
13, 33120, Note_on_c, 12, 69, 76
13, 33120, Control_c, 12, 11, 80
13, 33120, Note_on_c, 12, 59, 76
13, 33150, Control_c, 12, 11, 84
13, 33171, Note_on_c, 12, 69, 0
13, 33171, Note_on_c, 12, 59, 0
13, 33180, Control_c, 12, 11, 88
13, 33180, Note_on_c, 12, 69, 76
13, 33180, Note_on_c, 12, 59, 76
13, 33210, Control_c, 12, 11, 92
13, 33231, Note_on_c, 12, 69, 0
13, 33231, Note_on_c, 12, 59, 0
13, 33240, Control_c, 12, 11, 96
13, 33240, Note_on_c, 12, 66, 76
13, 33240, Note_on_c, 12, 59, 76
13, 33270, Control_c, 12, 11, 100
13, 33291, Note_on_c, 12, 66, 0
13, 33291, Note_on_c, 12, 59, 0
13, 33300, Note_on_c, 12, 59, 76
13, 33300, Note_on_c, 12, 66, 76
13, 33300, Control_c, 12, 11, 104
13, 33330, Control_c, 12, 11, 107
13, 33351, Note_on_c, 12, 59, 0
13, 33351, Note_on_c, 12, 66, 0
13, 33360, Control_c, 12, 11, 111
13, 33360, Note_on_c, 12, 66, 76
13, 33360, Note_on_c, 12, 59, 76
13, 33390, Control_c, 12, 11, 115
13, 33411, Note_on_c, 12, 66, 0
13, 33411, Note_on_c, 12, 59, 0
13, 33420, Control_c, 12, 11, 119
13, 33420, Note_on_c, 12, 66, 76
13, 33420, Note_on_c, 12, 59, 76
13, 33450, Control_c, 12, 11, 123
13, 33471, Note_on_c, 12, 66, 0
13, 33471, Note_on_c, 12, 59, 0
13, 33480, Control_c, 12, 11, 127
13, 33480, Note_on_c, 12, 68, 76
13, 33480, Note_on_c, 12, 59, 76
13, 33524, Note_on_c, 12, 68, 0
13, 33524, Note_on_c, 12, 59, 0
13, 33540, Note_on_c, 12, 59, 84
13, 33540, Note_on_c, 12, 69, 84
13, 33651, Note_on_c, 12, 59, 0
13, 33651, Note_on_c, 12, 69, 0
13, 33660, Note_on_c, 12, 59, 76
13, 33660, Note_on_c, 12, 66, 76
13, 33704, Note_on_c, 12, 59, 0
13, 33704, Note_on_c, 12, 66, 0
13, 33720, Note_on_c, 12, 66, 76
13, 33720, Note_on_c, 12, 59, 76
13, 33764, Note_on_c, 12, 66, 0
13, 33764, Note_on_c, 12, 59, 0
13, 33780, Note_on_c, 12, 66, 76
13, 33780, Note_on_c, 12, 59, 76
13, 33824, Note_on_c, 12, 66, 0
13, 33824, Note_on_c, 12, 59, 0
13, 33840, Note_on_c, 12, 59, 76
13, 33840, Note_on_c, 12, 68, 76
13, 33884, Note_on_c, 12, 59, 0
13, 33884, Note_on_c, 12, 68, 0
13, 33900, Note_on_c, 12, 59, 84
13, 33900, Note_on_c, 12, 69, 84
13, 34011, Note_on_c, 12, 59, 0
13, 34011, Note_on_c, 12, 69, 0
13, 34020, Note_on_c, 12, 59, 76
13, 34020, Note_on_c, 12, 66, 76
13, 34064, Note_on_c, 12, 59, 0
13, 34064, Note_on_c, 12, 66, 0
13, 34080, Note_on_c, 12, 66, 76
13, 34080, Note_on_c, 12, 59, 76
13, 34124, Note_on_c, 12, 66, 0
13, 34124, Note_on_c, 12, 59, 0
13, 34140, Note_on_c, 12, 66, 76
13, 34140, Note_on_c, 12, 59, 76
13, 34184, Note_on_c, 12, 66, 0
13, 34184, Note_on_c, 12, 59, 0
13, 34200, Note_on_c, 12, 59, 76
13, 34200, Note_on_c, 12, 68, 76
13, 34289, Note_on_c, 12, 59, 0
13, 34289, Note_on_c, 12, 68, 0
13, 34320, Note_on_c, 12, 59, 52
13, 34320, Note_on_c, 12, 68, 52
13, 34409, Note_on_c, 12, 59, 0
13, 34409, Note_on_c, 12, 68, 0
13, 34560, Control_c, 12, 11, 127
13, 34590, Control_c, 12, 11, 126
13, 34620, Control_c, 12, 11, 125
13, 34650, Control_c, 12, 11, 123
13, 34680, Note_on_c, 12, 64, 52
13, 34680, Control_c, 12, 11, 122
13, 34710, Control_c, 12, 11, 121
13, 34740, Control_c, 12, 11, 120
13, 34770, Control_c, 12, 11, 118
13, 34799, Note_on_c, 12, 64, 0
13, 34800, Control_c, 12, 11, 117
13, 34830, Control_c, 12, 11, 116
13, 34860, Control_c, 12, 11, 115
13, 34890, Control_c, 12, 11, 113
13, 34920, Control_c, 12, 11, 112
13, 35040, Note_on_c, 12, 59, 52
13, 35159, Note_on_c, 12, 59, 0
13, 35520, Control_c, 12, 11, 80
13, 35640, Note_on_c, 12, 60, 68
13, 35640, Control_c, 12, 11, 80
13, 35670, Control_c, 12, 11, 84
13, 35700, Control_c, 12, 11, 88
13, 35730, Control_c, 12, 11, 92
13, 35759, Note_on_c, 12, 60, 0
13, 35760, Control_c, 12, 11, 96
13, 35760, Note_on_c, 12, 64, 68
13, 35790, Control_c, 12, 11, 100
13, 35820, Control_c, 12, 11, 104
13, 35850, Control_c, 12, 11, 107
13, 35879, Note_on_c, 12, 64, 0
13, 35880, Note_on_c, 12, 68, 68
13, 35880, Control_c, 12, 11, 111
13, 35910, Control_c, 12, 11, 115
13, 35940, Control_c, 12, 11, 119
13, 35970, Control_c, 12, 11, 123
13, 35991, Note_on_c, 12, 68, 0
13, 36000, Control_c, 12, 11, 127
13, 36000, Note_on_c, 12, 69, 52
13, 36119, Note_on_c, 12, 69, 0
13, 36960, Control_c, 12, 11, 96
13, 37080, Note_on_c, 12, 55, 68
13, 37080, Control_c, 12, 11, 96
13, 37199, Note_on_c, 12, 55, 0
13, 37200, Note_on_c, 12, 60, 68
13, 37200, Control_c, 12, 11, 99
13, 37319, Note_on_c, 12, 60, 0
13, 37320, Control_c, 12, 11, 101
13, 37320, Note_on_c, 12, 62, 68
13, 37431, Note_on_c, 12, 62, 0
13, 37440, Control_c, 12, 11, 104
13, 37440, Note_on_c, 12, 64, 68
13, 37559, Note_on_c, 12, 64, 0
13, 37560, Control_c, 12, 11, 106
13, 37680, Control_c, 12, 11, 109
13, 37800, Control_c, 12, 11, 112
13, 37800, Note_on_c, 12, 67, 68
13, 37855, Note_on_c, 12, 67, 0
13, 37860, Note_on_c, 12, 79, 68
13, 37920, Control_c, 12, 11, 114
13, 37971, Note_on_c, 12, 79, 0
13, 37980, Note_on_c, 12, 79, 68
13, 38024, Note_on_c, 12, 79, 0
13, 38040, Note_on_c, 12, 79, 68
13, 38040, Control_c, 12, 11, 117
13, 38084, Note_on_c, 12, 79, 0
13, 38100, Note_on_c, 12, 79, 68
13, 38144, Note_on_c, 12, 79, 0
13, 38160, Control_c, 12, 11, 119
13, 38160, Note_on_c, 12, 79, 68
13, 38279, Note_on_c, 12, 79, 0
13, 38280, Control_c, 12, 11, 122
13, 38400, Control_c, 12, 11, 127
13, 38520, Note_on_c, 12, 67, 52
13, 38571, Note_on_c, 12, 67, 0
13, 38580, Note_on_c, 12, 67, 52
13, 38631, Note_on_c, 12, 67, 0
13, 38640, Note_on_c, 12, 67, 52
13, 38691, Note_on_c, 12, 67, 0
13, 38700, Note_on_c, 12, 67, 52
13, 38751, Note_on_c, 12, 67, 0
13, 38760, Note_on_c, 12, 67, 52
13, 38811, Note_on_c, 12, 67, 0
13, 38820, Note_on_c, 12, 67, 52
13, 38871, Note_on_c, 12, 67, 0
13, 38880, Note_on_c, 12, 67, 52
13, 38931, Note_on_c, 12, 67, 0
13, 38940, Note_on_c, 12, 67, 52
13, 38991, Note_on_c, 12, 67, 0
13, 39000, Note_on_c, 12, 67, 52
13, 39051, Note_on_c, 12, 67, 0
13, 39060, Note_on_c, 12, 67, 52
13, 39111, Note_on_c, 12, 67, 0
13, 39120, Note_on_c, 12, 67, 52
13, 39171, Note_on_c, 12, 67, 0
13, 39180, Note_on_c, 12, 67, 52
13, 39231, Note_on_c, 12, 67, 0
13, 39240, Note_on_c, 12, 67, 52
13, 39291, Note_on_c, 12, 67, 0
13, 39300, Note_on_c, 12, 67, 52
13, 39351, Note_on_c, 12, 67, 0
13, 39360, Note_on_c, 12, 67, 52
13, 39411, Note_on_c, 12, 67, 0
13, 39420, Note_on_c, 12, 67, 52
13, 39471, Note_on_c, 12, 67, 0
13, 39480, Note_on_c, 12, 67, 52
13, 39531, Note_on_c, 12, 67, 0
13, 39540, Note_on_c, 12, 67, 52
13, 39591, Note_on_c, 12, 67, 0
13, 39600, Note_on_c, 12, 67, 52
13, 39651, Note_on_c, 12, 67, 0
13, 39660, Note_on_c, 12, 67, 52
13, 39711, Note_on_c, 12, 67, 0
13, 39720, Note_on_c, 12, 67, 52
13, 39771, Note_on_c, 12, 67, 0
13, 39780, Note_on_c, 12, 67, 52
13, 39831, Note_on_c, 12, 67, 0
13, 39840, Note_on_c, 12, 67, 52
13, 39891, Note_on_c, 12, 67, 0
13, 39900, Note_on_c, 12, 67, 52
13, 39951, Note_on_c, 12, 67, 0
13, 39960, Note_on_c, 12, 67, 52
13, 40011, Note_on_c, 12, 67, 0
13, 40020, Note_on_c, 12, 67, 52
13, 40071, Note_on_c, 12, 67, 0
13, 40080, Note_on_c, 12, 67, 52
13, 40131, Note_on_c, 12, 67, 0
13, 40140, Note_on_c, 12, 67, 52
13, 40191, Note_on_c, 12, 67, 0
13, 40200, Note_on_c, 12, 67, 52
13, 40251, Note_on_c, 12, 67, 0
13, 40260, Note_on_c, 12, 67, 52
13, 40311, Note_on_c, 12, 67, 0
13, 40320, Note_on_c, 12, 67, 52
13, 40371, Note_on_c, 12, 67, 0
13, 40380, Note_on_c, 12, 76, 54
13, 40380, Note_on_c, 12, 73, 54
13, 40431, Note_on_c, 12, 76, 0
13, 40431, Note_on_c, 12, 73, 0
13, 40440, Note_on_c, 12, 76, 56
13, 40440, Note_on_c, 12, 73, 56
13, 40491, Note_on_c, 12, 76, 0
13, 40491, Note_on_c, 12, 73, 0
13, 40500, Note_on_c, 12, 76, 58
13, 40500, Note_on_c, 12, 73, 58
13, 40551, Note_on_c, 12, 76, 0
13, 40551, Note_on_c, 12, 73, 0
13, 40560, Note_on_c, 12, 73, 60
13, 40560, Note_on_c, 12, 76, 60
13, 40611, Note_on_c, 12, 73, 0
13, 40611, Note_on_c, 12, 76, 0
13, 40620, Note_on_c, 12, 73, 62
13, 40620, Note_on_c, 12, 76, 62
13, 40671, Note_on_c, 12, 73, 0
13, 40671, Note_on_c, 12, 76, 0
13, 40680, Note_on_c, 12, 76, 64
13, 40680, Note_on_c, 12, 73, 64
13, 40731, Note_on_c, 12, 76, 0
13, 40731, Note_on_c, 12, 73, 0
13, 40740, Note_on_c, 12, 76, 66
13, 40740, Note_on_c, 12, 73, 66
13, 40791, Note_on_c, 12, 76, 0
13, 40791, Note_on_c, 12, 73, 0
13, 40800, Note_on_c, 12, 76, 68
13, 40800, Note_on_c, 12, 73, 68
13, 40851, Note_on_c, 12, 76, 0
13, 40851, Note_on_c, 12, 73, 0
13, 40860, Note_on_c, 12, 73, 70
13, 40860, Note_on_c, 12, 76, 70
13, 40911, Note_on_c, 12, 73, 0
13, 40911, Note_on_c, 12, 76, 0
13, 40920, Note_on_c, 12, 76, 72
13, 40920, Note_on_c, 12, 73, 72
13, 40971, Note_on_c, 12, 76, 0
13, 40971, Note_on_c, 12, 73, 0
13, 40980, Note_on_c, 12, 76, 74
13, 40980, Note_on_c, 12, 73, 74
13, 41031, Note_on_c, 12, 76, 0
13, 41031, Note_on_c, 12, 73, 0
13, 41040, Note_on_c, 12, 71, 76
13, 41040, Note_on_c, 12, 78, 76
13, 41151, Note_on_c, 12, 71, 0
13, 41151, Note_on_c, 12, 78, 0
13, 41160, Note_on_c, 12, 67, 76
13, 41189, Note_on_c, 12, 67, 0
13, 41190, Note_on_c, 12, 66, 76
13, 41219, Note_on_c, 12, 66, 0
13, 41220, Note_on_c, 12, 64, 76
13, 41241, Note_on_c, 12, 64, 0
13, 41250, Note_on_c, 12, 63, 76
13, 41271, Note_on_c, 12, 63, 0
13, 41280, Note_on_c, 12, 64, 76
13, 41301, Note_on_c, 12, 64, 0
13, 41310, Note_on_c, 12, 66, 76
13, 41331, Note_on_c, 12, 66, 0
13, 41340, Note_on_c, 12, 67, 76
13, 41361, Note_on_c, 12, 67, 0
13, 41370, Note_on_c, 12, 69, 76
13, 41391, Note_on_c, 12, 69, 0
13, 41400, Note_on_c, 12, 71, 76
13, 41421, Note_on_c, 12, 71, 0
13, 41430, Note_on_c, 12, 72, 76
13, 41451, Note_on_c, 12, 72, 0
13, 41460, Note_on_c, 12, 71, 76
13, 41481, Note_on_c, 12, 71, 0
13, 41490, Note_on_c, 12, 72, 76
13, 41511, Note_on_c, 12, 72, 0
13, 41520, Note_on_c, 12, 71, 76
13, 41541, Note_on_c, 12, 71, 0
13, 41550, Note_on_c, 12, 72, 76
13, 41571, Note_on_c, 12, 72, 0
13, 41580, Note_on_c, 12, 71, 76
13, 41601, Note_on_c, 12, 71, 0
13, 41610, Note_on_c, 12, 72, 76
13, 41631, Note_on_c, 12, 72, 0
13, 41640, Note_on_c, 12, 71, 76
13, 41661, Note_on_c, 12, 71, 0
13, 41670, Note_on_c, 12, 69, 76
13, 41691, Note_on_c, 12, 69, 0
13, 41700, Note_on_c, 12, 67, 76
13, 41721, Note_on_c, 12, 67, 0
13, 41730, Note_on_c, 12, 66, 76
13, 41751, Note_on_c, 12, 66, 0
13, 41760, Note_on_c, 12, 64, 76
13, 41815, Note_on_c, 12, 64, 0
13, 41820, Note_on_c, 12, 68, 44
13, 41871, Note_on_c, 12, 68, 0
13, 41880, Note_on_c, 12, 68, 44
13, 41931, Note_on_c, 12, 68, 0
13, 41940, Note_on_c, 12, 68, 44
13, 41991, Note_on_c, 12, 68, 0
13, 42000, Note_on_c, 12, 68, 44
13, 42051, Note_on_c, 12, 68, 0
13, 42060, Note_on_c, 12, 68, 44
13, 42111, Note_on_c, 12, 68, 0
13, 42120, Note_on_c, 12, 68, 44
13, 42171, Note_on_c, 12, 68, 0
13, 42180, Note_on_c, 12, 68, 44
13, 42231, Note_on_c, 12, 68, 0
13, 42240, Note_on_c, 12, 68, 44
13, 42291, Note_on_c, 12, 68, 0
13, 42300, Note_on_c, 12, 68, 44
13, 42351, Note_on_c, 12, 68, 0
13, 42360, Note_on_c, 12, 68, 44
13, 42411, Note_on_c, 12, 68, 0
13, 42420, Note_on_c, 12, 68, 44
13, 42471, Note_on_c, 12, 68, 0
13, 42480, Note_on_c, 12, 68, 44
13, 42531, Note_on_c, 12, 68, 0
13, 42540, Note_on_c, 12, 68, 44
13, 42591, Note_on_c, 12, 68, 0
13, 42600, Note_on_c, 12, 68, 44
13, 42651, Note_on_c, 12, 68, 0
13, 42660, Note_on_c, 12, 68, 44
13, 42711, Note_on_c, 12, 68, 0
13, 42720, Note_on_c, 12, 68, 44
13, 42771, Note_on_c, 12, 68, 0
13, 42780, Note_on_c, 12, 68, 44
13, 42831, Note_on_c, 12, 68, 0
13, 42840, Note_on_c, 12, 68, 44
13, 42891, Note_on_c, 12, 68, 0
13, 42900, Note_on_c, 12, 68, 44
13, 42951, Note_on_c, 12, 68, 0
13, 42960, Note_on_c, 12, 68, 44
13, 43011, Note_on_c, 12, 68, 0
13, 43020, Note_on_c, 12, 68, 44
13, 43071, Note_on_c, 12, 68, 0
13, 43080, Note_on_c, 12, 68, 44
13, 43131, Note_on_c, 12, 68, 0
13, 43140, Note_on_c, 12, 68, 44
13, 43191, Note_on_c, 12, 68, 0
13, 43200, Note_on_c, 12, 68, 44
13, 43251, Note_on_c, 12, 68, 0
13, 43260, Note_on_c, 12, 68, 44
13, 43311, Note_on_c, 12, 68, 0
13, 43320, Note_on_c, 12, 68, 44
13, 43371, Note_on_c, 12, 68, 0
13, 43380, Note_on_c, 12, 68, 44
13, 43431, Note_on_c, 12, 68, 0
13, 43440, Note_on_c, 12, 68, 44
13, 43491, Note_on_c, 12, 68, 0
13, 43500, Note_on_c, 12, 68, 44
13, 43551, Note_on_c, 12, 68, 0
13, 43560, Note_on_c, 12, 68, 44
13, 43611, Note_on_c, 12, 68, 0
13, 43620, Note_on_c, 12, 68, 44
13, 43671, Note_on_c, 12, 68, 0
13, 43680, Note_on_c, 12, 68, 44
13, 43731, Note_on_c, 12, 68, 0
13, 43740, Note_on_c, 12, 68, 44
13, 43791, Note_on_c, 12, 68, 0
13, 43800, Note_on_c, 12, 68, 44
13, 43851, Note_on_c, 12, 68, 0
13, 43860, Note_on_c, 12, 68, 44
13, 43911, Note_on_c, 12, 68, 0
13, 43920, Note_on_c, 12, 68, 44
13, 43971, Note_on_c, 12, 68, 0
13, 43980, Note_on_c, 12, 68, 44
13, 44031, Note_on_c, 12, 68, 0
13, 44040, Note_on_c, 12, 68, 44
13, 44091, Note_on_c, 12, 68, 0
13, 44100, Note_on_c, 12, 68, 44
13, 44151, Note_on_c, 12, 68, 0
13, 44160, Note_on_c, 12, 68, 44
13, 44211, Note_on_c, 12, 68, 0
13, 44220, Note_on_c, 12, 68, 44
13, 44271, Note_on_c, 12, 68, 0
13, 44280, Note_on_c, 12, 68, 44
13, 44324, Note_on_c, 12, 68, 0
13, 44340, Note_on_c, 12, 71, 46
13, 44384, Note_on_c, 12, 71, 0
13, 44400, Note_on_c, 12, 71, 49
13, 44444, Note_on_c, 12, 71, 0
13, 44460, Note_on_c, 12, 71, 52
13, 44504, Note_on_c, 12, 71, 0
13, 44520, Note_on_c, 12, 71, 54
13, 44564, Note_on_c, 12, 71, 0
13, 44580, Note_on_c, 12, 71, 57
13, 44624, Note_on_c, 12, 71, 0
13, 44640, Note_on_c, 12, 65, 60
13, 44640, Note_on_c, 12, 71, 60
13, 44691, Note_on_c, 12, 65, 0
13, 44691, Note_on_c, 12, 71, 0
13, 44700, Note_on_c, 12, 71, 62
13, 44700, Note_on_c, 12, 65, 62
13, 44751, Note_on_c, 12, 71, 0
13, 44751, Note_on_c, 12, 65, 0
13, 44760, Note_on_c, 12, 71, 65
13, 44760, Note_on_c, 12, 65, 65
13, 44811, Note_on_c, 12, 71, 0
13, 44811, Note_on_c, 12, 65, 0
13, 44820, Note_on_c, 12, 71, 68
13, 44820, Note_on_c, 12, 65, 68
13, 44871, Note_on_c, 12, 71, 0
13, 44871, Note_on_c, 12, 65, 0
13, 44880, Note_on_c, 12, 71, 70
13, 44880, Note_on_c, 12, 65, 70
13, 44931, Note_on_c, 12, 71, 0
13, 44931, Note_on_c, 12, 65, 0
13, 44940, Note_on_c, 12, 71, 73
13, 44940, Note_on_c, 12, 65, 73
13, 44991, Note_on_c, 12, 71, 0
13, 44991, Note_on_c, 12, 65, 0
13, 45000, Note_on_c, 12, 65, 76
13, 45000, Note_on_c, 12, 72, 76
13, 45111, Note_on_c, 12, 65, 0
13, 45111, Note_on_c, 12, 72, 0
13, 45120, Note_on_c, 12, 69, 76
13, 45149, Note_on_c, 12, 69, 0
13, 45150, Note_on_c, 12, 67, 76
13, 45175, Note_on_c, 12, 67, 0
13, 45180, Note_on_c, 12, 65, 76
13, 45201, Note_on_c, 12, 65, 0
13, 45210, Note_on_c, 12, 64, 76
13, 45231, Note_on_c, 12, 64, 0
13, 45240, Note_on_c, 12, 65, 76
13, 45261, Note_on_c, 12, 65, 0
13, 45270, Note_on_c, 12, 67, 76
13, 45291, Note_on_c, 12, 67, 0
13, 45300, Note_on_c, 12, 69, 76
13, 45321, Note_on_c, 12, 69, 0
13, 45330, Note_on_c, 12, 70, 76
13, 45351, Note_on_c, 12, 70, 0
13, 45360, Note_on_c, 12, 72, 76
13, 45381, Note_on_c, 12, 72, 0
13, 45390, Note_on_c, 12, 74, 76
13, 45411, Note_on_c, 12, 74, 0
13, 45420, Note_on_c, 12, 72, 76
13, 45441, Note_on_c, 12, 72, 0
13, 45450, Note_on_c, 12, 74, 76
13, 45471, Note_on_c, 12, 74, 0
13, 45480, Note_on_c, 12, 72, 76
13, 45501, Note_on_c, 12, 72, 0
13, 45510, Note_on_c, 12, 74, 76
13, 45531, Note_on_c, 12, 74, 0
13, 45540, Note_on_c, 12, 72, 76
13, 45561, Note_on_c, 12, 72, 0
13, 45570, Note_on_c, 12, 74, 76
13, 45591, Note_on_c, 12, 74, 0
13, 45600, Note_on_c, 12, 72, 76
13, 45621, Note_on_c, 12, 72, 0
13, 45630, Note_on_c, 12, 70, 76
13, 45651, Note_on_c, 12, 70, 0
13, 45660, Note_on_c, 12, 69, 76
13, 45681, Note_on_c, 12, 69, 0
13, 45690, Note_on_c, 12, 67, 76
13, 45711, Note_on_c, 12, 67, 0
13, 45720, Note_on_c, 12, 65, 84
13, 45775, Note_on_c, 12, 65, 0
13, 45780, Note_on_c, 12, 72, 84
13, 45805, Note_on_c, 12, 72, 0
13, 45810, Note_on_c, 12, 72, 84
13, 45835, Note_on_c, 12, 72, 0
13, 45840, Note_on_c, 12, 72, 84
13, 45895, Note_on_c, 12, 72, 0
13, 45900, Note_on_c, 12, 72, 84
13, 45925, Note_on_c, 12, 72, 0
13, 45930, Note_on_c, 12, 72, 84
13, 45955, Note_on_c, 12, 72, 0
13, 45960, Note_on_c, 12, 72, 84
13, 46015, Note_on_c, 12, 72, 0
13, 46020, Note_on_c, 12, 72, 84
13, 46045, Note_on_c, 12, 72, 0
13, 46050, Note_on_c, 12, 72, 84
13, 46075, Note_on_c, 12, 72, 0
13, 46080, Note_on_c, 12, 72, 84
13, 46135, Note_on_c, 12, 72, 0
13, 46140, Note_on_c, 12, 72, 84
13, 46165, Note_on_c, 12, 72, 0
13, 46170, Note_on_c, 12, 72, 84
13, 46195, Note_on_c, 12, 72, 0
13, 46200, Note_on_c, 12, 72, 84
13, 46255, Note_on_c, 12, 72, 0
13, 46260, Note_on_c, 12, 72, 84
13, 46285, Note_on_c, 12, 72, 0
13, 46290, Note_on_c, 12, 72, 84
13, 46315, Note_on_c, 12, 72, 0
13, 46320, Note_on_c, 12, 72, 84
13, 46375, Note_on_c, 12, 72, 0
13, 46380, Note_on_c, 12, 72, 84
13, 46405, Note_on_c, 12, 72, 0
13, 46410, Note_on_c, 12, 72, 84
13, 46435, Note_on_c, 12, 72, 0
13, 46440, Note_on_c, 12, 72, 84
13, 46495, Note_on_c, 12, 72, 0
13, 46500, Note_on_c, 12, 72, 84
13, 46525, Note_on_c, 12, 72, 0
13, 46530, Note_on_c, 12, 72, 84
13, 46555, Note_on_c, 12, 72, 0
13, 46560, Note_on_c, 12, 72, 84
13, 46615, Note_on_c, 12, 72, 0
13, 46620, Note_on_c, 12, 72, 84
13, 46645, Note_on_c, 12, 72, 0
13, 46650, Note_on_c, 12, 72, 84
13, 46675, Note_on_c, 12, 72, 0
13, 46680, Note_on_c, 12, 72, 84
13, 46735, Note_on_c, 12, 72, 0
13, 46740, Note_on_c, 12, 72, 84
13, 46765, Note_on_c, 12, 72, 0
13, 46770, Note_on_c, 12, 72, 84
13, 46795, Note_on_c, 12, 72, 0
13, 46800, Note_on_c, 12, 72, 84
13, 46855, Note_on_c, 12, 72, 0
13, 46860, Note_on_c, 12, 72, 84
13, 46885, Note_on_c, 12, 72, 0
13, 46890, Note_on_c, 12, 72, 84
13, 46915, Note_on_c, 12, 72, 0
13, 46920, Note_on_c, 12, 72, 84
13, 46975, Note_on_c, 12, 72, 0
13, 46980, Note_on_c, 12, 72, 84
13, 47005, Note_on_c, 12, 72, 0
13, 47010, Note_on_c, 12, 72, 84
13, 47035, Note_on_c, 12, 72, 0
13, 47040, Note_on_c, 12, 72, 84
13, 47095, Note_on_c, 12, 72, 0
13, 47100, Note_on_c, 12, 72, 84
13, 47125, Note_on_c, 12, 72, 0
13, 47130, Note_on_c, 12, 72, 84
13, 47155, Note_on_c, 12, 72, 0
13, 47160, Note_on_c, 12, 72, 84
13, 47215, Note_on_c, 12, 72, 0
13, 47220, Note_on_c, 12, 72, 84
13, 47245, Note_on_c, 12, 72, 0
13, 47250, Note_on_c, 12, 72, 84
13, 47275, Note_on_c, 12, 72, 0
13, 47280, Note_on_c, 12, 72, 84
13, 47335, Note_on_c, 12, 72, 0
13, 47340, Note_on_c, 12, 72, 84
13, 47365, Note_on_c, 12, 72, 0
13, 47370, Note_on_c, 12, 72, 84
13, 47395, Note_on_c, 12, 72, 0
13, 47400, Note_on_c, 12, 72, 84
13, 47455, Note_on_c, 12, 72, 0
13, 47460, Note_on_c, 12, 72, 84
13, 47485, Note_on_c, 12, 72, 0
13, 47490, Note_on_c, 12, 72, 84
13, 47515, Note_on_c, 12, 72, 0
13, 47520, Note_on_c, 12, 72, 84
13, 47575, Note_on_c, 12, 72, 0
13, 47580, Note_on_c, 12, 72, 84
13, 47605, Note_on_c, 12, 72, 0
13, 47610, Note_on_c, 12, 72, 84
13, 47635, Note_on_c, 12, 72, 0
13, 47640, Note_on_c, 12, 72, 84
13, 47695, Note_on_c, 12, 72, 0
13, 47700, Note_on_c, 12, 72, 84
13, 47725, Note_on_c, 12, 72, 0
13, 47730, Note_on_c, 12, 72, 84
13, 47755, Note_on_c, 12, 72, 0
13, 47760, Note_on_c, 12, 72, 84
13, 47815, Note_on_c, 12, 72, 0
13, 47820, Note_on_c, 12, 72, 84
13, 47845, Note_on_c, 12, 72, 0
13, 47850, Note_on_c, 12, 72, 84
13, 47875, Note_on_c, 12, 72, 0
13, 47880, Note_on_c, 12, 72, 84
13, 47935, Note_on_c, 12, 72, 0
13, 47940, Note_on_c, 12, 72, 84
13, 47965, Note_on_c, 12, 72, 0
13, 47970, Note_on_c, 12, 72, 84
13, 47995, Note_on_c, 12, 72, 0
13, 48000, Note_on_c, 12, 72, 84
13, 48055, Note_on_c, 12, 72, 0
13, 48060, Note_on_c, 12, 72, 84
13, 48085, Note_on_c, 12, 72, 0
13, 48090, Note_on_c, 12, 72, 84
13, 48115, Note_on_c, 12, 72, 0
13, 48120, Note_on_c, 12, 72, 84
13, 48175, Note_on_c, 12, 72, 0
13, 48180, Note_on_c, 12, 72, 84
13, 48205, Note_on_c, 12, 72, 0
13, 48210, Note_on_c, 12, 72, 84
13, 48235, Note_on_c, 12, 72, 0
13, 48240, Note_on_c, 12, 72, 84
13, 48295, Note_on_c, 12, 72, 0
13, 48300, Note_on_c, 12, 72, 84
13, 48325, Note_on_c, 12, 72, 0
13, 48330, Note_on_c, 12, 72, 84
13, 48355, Note_on_c, 12, 72, 0
13, 48360, Note_on_c, 12, 72, 84
13, 48415, Note_on_c, 12, 72, 0
13, 48420, Note_on_c, 12, 72, 84
13, 48445, Note_on_c, 12, 72, 0
13, 48450, Note_on_c, 12, 72, 84
13, 48475, Note_on_c, 12, 72, 0
13, 48480, Note_on_c, 12, 72, 84
13, 48535, Note_on_c, 12, 72, 0
13, 48540, Note_on_c, 12, 72, 84
13, 48565, Note_on_c, 12, 72, 0
13, 48570, Note_on_c, 12, 72, 84
13, 48595, Note_on_c, 12, 72, 0
13, 48600, Note_on_c, 12, 72, 84
13, 48655, Note_on_c, 12, 72, 0
13, 48660, Note_on_c, 12, 56, 84
13, 48660, Note_on_c, 12, 65, 84
13, 48685, Note_on_c, 12, 56, 0
13, 48685, Note_on_c, 12, 65, 0
13, 48690, Note_on_c, 12, 65, 84
13, 48690, Note_on_c, 12, 56, 84
13, 48715, Note_on_c, 12, 65, 0
13, 48715, Note_on_c, 12, 56, 0
13, 48720, Note_on_c, 12, 56, 84
13, 48720, Note_on_c, 12, 65, 84
13, 48775, Note_on_c, 12, 56, 0
13, 48775, Note_on_c, 12, 65, 0
13, 48780, Note_on_c, 12, 56, 84
13, 48780, Note_on_c, 12, 65, 84
13, 48805, Note_on_c, 12, 56, 0
13, 48805, Note_on_c, 12, 65, 0
13, 48810, Note_on_c, 12, 65, 84
13, 48810, Note_on_c, 12, 56, 84
13, 48835, Note_on_c, 12, 65, 0
13, 48835, Note_on_c, 12, 56, 0
13, 48840, Note_on_c, 12, 56, 84
13, 48840, Note_on_c, 12, 65, 84
13, 48895, Note_on_c, 12, 56, 0
13, 48895, Note_on_c, 12, 65, 0
13, 48900, Note_on_c, 12, 65, 84
13, 48900, Note_on_c, 12, 56, 84
13, 48925, Note_on_c, 12, 65, 0
13, 48925, Note_on_c, 12, 56, 0
13, 48930, Note_on_c, 12, 65, 84
13, 48930, Note_on_c, 12, 56, 84
13, 48955, Note_on_c, 12, 65, 0
13, 48955, Note_on_c, 12, 56, 0
13, 48960, Note_on_c, 12, 56, 84
13, 48960, Note_on_c, 12, 66, 84
13, 49015, Note_on_c, 12, 56, 0
13, 49015, Note_on_c, 12, 66, 0
13, 49020, Note_on_c, 12, 66, 84
13, 49020, Note_on_c, 12, 56, 84
13, 49045, Note_on_c, 12, 66, 0
13, 49045, Note_on_c, 12, 56, 0
13, 49050, Note_on_c, 12, 66, 84
13, 49050, Note_on_c, 12, 56, 84
13, 49075, Note_on_c, 12, 66, 0
13, 49075, Note_on_c, 12, 56, 0
13, 49080, Note_on_c, 12, 56, 84
13, 49080, Note_on_c, 12, 66, 84
13, 49135, Note_on_c, 12, 56, 0
13, 49135, Note_on_c, 12, 66, 0
13, 49140, Note_on_c, 12, 66, 84
13, 49140, Note_on_c, 12, 56, 84
13, 49165, Note_on_c, 12, 66, 0
13, 49165, Note_on_c, 12, 56, 0
13, 49170, Note_on_c, 12, 66, 84
13, 49170, Note_on_c, 12, 56, 84
13, 49195, Note_on_c, 12, 66, 0
13, 49195, Note_on_c, 12, 56, 0
13, 49200, Note_on_c, 12, 66, 84
13, 49200, Note_on_c, 12, 56, 84
13, 49255, Note_on_c, 12, 66, 0
13, 49255, Note_on_c, 12, 56, 0
13, 49260, Note_on_c, 12, 56, 84
13, 49260, Note_on_c, 12, 66, 84
13, 49285, Note_on_c, 12, 56, 0
13, 49285, Note_on_c, 12, 66, 0
13, 49290, Note_on_c, 12, 66, 84
13, 49290, Note_on_c, 12, 56, 84
13, 49315, Note_on_c, 12, 66, 0
13, 49315, Note_on_c, 12, 56, 0
13, 49320, Note_on_c, 12, 67, 84
13, 49320, Note_on_c, 12, 55, 84
13, 49439, Note_on_c, 12, 67, 0
13, 49439, Note_on_c, 12, 55, 0
13, 49440, Control_c, 12, 11, 96
13, 49620, Note_on_c, 12, 67, 68
13, 49664, Note_on_c, 12, 67, 0
13, 49680, Note_on_c, 12, 68, 68
13, 49724, Note_on_c, 12, 68, 0
13, 49740, Note_on_c, 12, 67, 68
13, 49784, Note_on_c, 12, 67, 0
13, 49800, Note_on_c, 12, 68, 68
13, 49800, Control_c, 12, 11, 96
13, 49880, Control_c, 12, 11, 99
13, 49960, Control_c, 12, 11, 101
13, 49975, Note_on_c, 12, 68, 0
13, 49980, Note_on_c, 12, 69, 68
13, 50024, Note_on_c, 12, 69, 0
13, 50040, Control_c, 12, 11, 104
13, 50040, Note_on_c, 12, 71, 68
13, 50084, Note_on_c, 12, 71, 0
13, 50100, Note_on_c, 12, 69, 68
13, 50120, Control_c, 12, 11, 106
13, 50144, Note_on_c, 12, 69, 0
13, 50160, Note_on_c, 12, 71, 68
13, 50200, Control_c, 12, 11, 109
13, 50280, Control_c, 12, 11, 112
13, 50335, Note_on_c, 12, 71, 0
13, 50340, Note_on_c, 12, 71, 68
13, 50360, Control_c, 12, 11, 114
13, 50384, Note_on_c, 12, 71, 0
13, 50400, Note_on_c, 12, 72, 68
13, 50440, Control_c, 12, 11, 117
13, 50459, Note_on_c, 12, 72, 0
13, 50460, Note_on_c, 12, 71, 68
13, 50519, Note_on_c, 12, 71, 0
13, 50520, Note_on_c, 12, 72, 68
13, 50520, Control_c, 12, 11, 119
13, 50579, Note_on_c, 12, 72, 0
13, 50580, Note_on_c, 12, 75, 68
13, 50600, Control_c, 12, 11, 122
13, 50639, Note_on_c, 12, 75, 0
13, 50640, Note_on_c, 12, 74, 68
13, 50680, Control_c, 12, 11, 124
13, 50699, Note_on_c, 12, 74, 0
13, 50700, Note_on_c, 12, 72, 68
13, 50755, Note_on_c, 12, 72, 0
13, 50760, Control_c, 12, 11, 96
13, 50760, Note_on_c, 12, 71, 68
13, 50879, Note_on_c, 12, 71, 0
13, 51060, Note_on_c, 12, 74, 68
13, 51104, Note_on_c, 12, 74, 0
13, 51120, Note_on_c, 12, 75, 68
13, 51120, Control_c, 12, 11, 96
13, 51164, Note_on_c, 12, 75, 0
13, 51180, Note_on_c, 12, 74, 68
13, 51180, Control_c, 12, 11, 99
13, 51224, Note_on_c, 12, 74, 0
13, 51240, Control_c, 12, 11, 101
13, 51240, Note_on_c, 12, 75, 68
13, 51300, Control_c, 12, 11, 104
13, 51360, Control_c, 12, 11, 106
13, 51415, Note_on_c, 12, 75, 0
13, 51420, Control_c, 12, 11, 109
13, 51420, Note_on_c, 12, 76, 68
13, 51464, Note_on_c, 12, 76, 0
13, 51480, Note_on_c, 12, 77, 68
13, 51480, Control_c, 12, 11, 112
13, 51524, Note_on_c, 12, 77, 0
13, 51540, Control_c, 12, 11, 114
13, 51540, Note_on_c, 12, 76, 68
13, 51584, Note_on_c, 12, 76, 0
13, 51600, Note_on_c, 12, 77, 68
13, 51600, Control_c, 12, 11, 117
13, 51660, Control_c, 12, 11, 119
13, 51720, Control_c, 12, 11, 122
13, 51775, Note_on_c, 12, 77, 0
13, 51780, Note_on_c, 12, 76, 68
13, 51780, Control_c, 12, 11, 124
13, 51824, Note_on_c, 12, 76, 0
13, 51840, Control_c, 12, 11, 127
13, 51840, Note_on_c, 12, 77, 76
13, 52011, Note_on_c, 12, 77, 0
13, 52020, Note_on_c, 12, 76, 68
13, 52064, Note_on_c, 12, 76, 0
13, 52080, Note_on_c, 12, 77, 76
13, 52251, Note_on_c, 12, 77, 0
13, 52260, Note_on_c, 12, 76, 68
13, 52304, Note_on_c, 12, 76, 0
13, 52320, Note_on_c, 12, 77, 76
13, 52491, Note_on_c, 12, 77, 0
13, 52500, Note_on_c, 12, 79, 68
13, 52544, Note_on_c, 12, 79, 0
13, 52560, Note_on_c, 12, 80, 76
13, 52731, Note_on_c, 12, 80, 0
13, 52740, Note_on_c, 12, 79, 68
13, 52784, Note_on_c, 12, 79, 0
13, 52800, Note_on_c, 12, 80, 76
13, 52911, Note_on_c, 12, 80, 0
13, 52920, Note_on_c, 12, 80, 84
13, 52971, Note_on_c, 12, 80, 0
13, 52980, Note_on_c, 12, 80, 84
13, 53031, Note_on_c, 12, 80, 0
13, 53040, Note_on_c, 12, 80, 84
13, 53091, Note_on_c, 12, 80, 0
13, 53100, Note_on_c, 12, 80, 84
13, 53151, Note_on_c, 12, 80, 0
13, 53160, Note_on_c, 12, 80, 84
13, 53211, Note_on_c, 12, 80, 0
13, 53220, Note_on_c, 12, 80, 84
13, 53271, Note_on_c, 12, 80, 0
13, 53280, Note_on_c, 12, 81, 84
13, 53331, Note_on_c, 12, 81, 0
13, 53340, Note_on_c, 12, 81, 84
13, 53391, Note_on_c, 12, 81, 0
13, 53400, Note_on_c, 12, 81, 84
13, 53451, Note_on_c, 12, 81, 0
13, 53460, Note_on_c, 12, 81, 84
13, 53511, Note_on_c, 12, 81, 0
13, 53520, Note_on_c, 12, 81, 84
13, 53571, Note_on_c, 12, 81, 0
13, 53580, Note_on_c, 12, 81, 84
13, 53631, Note_on_c, 12, 81, 0
13, 53640, Note_on_c, 12, 81, 84
13, 53691, Note_on_c, 12, 81, 0
13, 53700, Note_on_c, 12, 81, 84
13, 53751, Note_on_c, 12, 81, 0
13, 53760, Note_on_c, 12, 81, 84
13, 53811, Note_on_c, 12, 81, 0
13, 53820, Note_on_c, 12, 81, 84
13, 53871, Note_on_c, 12, 81, 0
13, 53880, Note_on_c, 12, 81, 84
13, 53931, Note_on_c, 12, 81, 0
13, 53940, Note_on_c, 12, 81, 84
13, 53991, Note_on_c, 12, 81, 0
13, 54000, Note_on_c, 12, 81, 84
13, 54051, Note_on_c, 12, 81, 0
13, 54060, Note_on_c, 12, 78, 84
13, 54111, Note_on_c, 12, 78, 0
13, 54120, Note_on_c, 12, 78, 84
13, 54171, Note_on_c, 12, 78, 0
13, 54180, Note_on_c, 12, 78, 84
13, 54231, Note_on_c, 12, 78, 0
13, 54240, Note_on_c, 12, 78, 84
13, 54291, Note_on_c, 12, 78, 0
13, 54300, Note_on_c, 12, 78, 84
13, 54351, Note_on_c, 12, 78, 0
13, 54360, Note_on_c, 12, 74, 92
13, 54411, Note_on_c, 12, 74, 0
13, 54420, Note_on_c, 12, 74, 84
13, 54471, Note_on_c, 12, 74, 0
13, 54480, Note_on_c, 12, 74, 84
13, 54531, Note_on_c, 12, 74, 0
13, 54540, Note_on_c, 12, 74, 84
13, 54591, Note_on_c, 12, 74, 0
13, 54600, Note_on_c, 12, 74, 84
13, 54651, Note_on_c, 12, 74, 0
13, 54660, Note_on_c, 12, 74, 84
13, 54711, Note_on_c, 12, 74, 0
13, 54720, Note_on_c, 12, 71, 84
13, 54771, Note_on_c, 12, 71, 0
13, 54780, Note_on_c, 12, 71, 79
13, 54831, Note_on_c, 12, 71, 0
13, 54840, Note_on_c, 12, 71, 74
13, 54891, Note_on_c, 12, 71, 0
13, 54900, Note_on_c, 12, 71, 68
13, 54951, Note_on_c, 12, 71, 0
13, 54960, Note_on_c, 12, 71, 63
13, 55011, Note_on_c, 12, 71, 0
13, 55020, Note_on_c, 12, 71, 58
13, 55071, Note_on_c, 12, 71, 0
13, 55080, Note_on_c, 12, 73, 52
13, 55199, Note_on_c, 12, 73, 0
13, 55260, Note_on_c, 12, 69, 52
13, 55304, Note_on_c, 12, 69, 0
13, 55320, Note_on_c, 12, 73, 52
13, 55364, Note_on_c, 12, 73, 0
13, 55380, Note_on_c, 12, 76, 52
13, 55424, Note_on_c, 12, 76, 0
13, 55590, Control_c, 12, 11, 120
13, 55620, Note_on_c, 12, 66, 52
13, 55620, Control_c, 12, 11, 119
13, 55650, Control_c, 12, 11, 118
13, 55664, Note_on_c, 12, 66, 0
13, 55680, Control_c, 12, 11, 116
13, 55680, Note_on_c, 12, 71, 52
13, 55710, Control_c, 12, 11, 115
13, 55724, Note_on_c, 12, 71, 0
13, 55740, Control_c, 12, 11, 114
13, 55740, Note_on_c, 12, 74, 52
13, 55770, Control_c, 12, 11, 112
13, 55784, Note_on_c, 12, 74, 0
13, 55920, Control_c, 12, 11, 111
13, 55980, Note_on_c, 12, 64, 52
13, 56024, Note_on_c, 12, 64, 0
13, 56040, Note_on_c, 12, 69, 52
13, 56084, Note_on_c, 12, 69, 0
13, 56100, Note_on_c, 12, 73, 52
13, 56144, Note_on_c, 12, 73, 0
13, 56400, Control_c, 12, 11, 96
13, 56520, Note_on_c, 12, 61, 68
13, 56579, Note_on_c, 12, 61, 0
13, 56580, Note_on_c, 12, 64, 68
13, 56639, Note_on_c, 12, 64, 0
13, 56640, Note_on_c, 12, 61, 68
13, 56699, Note_on_c, 12, 61, 0
13, 56700, Note_on_c, 12, 64, 68
13, 56759, Note_on_c, 12, 64, 0
13, 56760, Note_on_c, 12, 68, 68
13, 56819, Note_on_c, 12, 68, 0
13, 56820, Note_on_c, 12, 64, 68
13, 56875, Note_on_c, 12, 64, 0
13, 56880, Note_on_c, 12, 69, 68
13, 56939, Note_on_c, 12, 69, 0
13, 56940, Note_on_c, 12, 64, 68
13, 56999, Note_on_c, 12, 64, 0
13, 57000, Note_on_c, 12, 69, 68
13, 57059, Note_on_c, 12, 69, 0
13, 57060, Note_on_c, 12, 64, 68
13, 57119, Note_on_c, 12, 64, 0
13, 57120, Note_on_c, 12, 69, 68
13, 57179, Note_on_c, 12, 69, 0
13, 57180, Note_on_c, 12, 64, 68
13, 57235, Note_on_c, 12, 64, 0
13, 57240, Note_on_c, 12, 69, 68
13, 57299, Note_on_c, 12, 69, 0
13, 57300, Note_on_c, 12, 64, 68
13, 57359, Note_on_c, 12, 64, 0
13, 57360, Note_on_c, 12, 71, 68
13, 57419, Note_on_c, 12, 71, 0
13, 57420, Note_on_c, 12, 64, 68
13, 57479, Note_on_c, 12, 64, 0
13, 57480, Note_on_c, 12, 69, 68
13, 57539, Note_on_c, 12, 69, 0
13, 57540, Note_on_c, 12, 64, 68
13, 57595, Note_on_c, 12, 64, 0
13, 57600, Note_on_c, 12, 68, 68
13, 57659, Note_on_c, 12, 68, 0
13, 57660, Note_on_c, 12, 64, 68
13, 57719, Note_on_c, 12, 64, 0
13, 57720, Note_on_c, 12, 68, 68
13, 57779, Note_on_c, 12, 68, 0
13, 57780, Note_on_c, 12, 64, 68
13, 57839, Note_on_c, 12, 64, 0
13, 57840, Note_on_c, 12, 68, 68
13, 57899, Note_on_c, 12, 68, 0
13, 57900, Note_on_c, 12, 64, 68
13, 57955, Note_on_c, 12, 64, 0
13, 57960, Note_on_c, 12, 69, 68
13, 57960, Control_c, 12, 11, 96
13, 58019, Note_on_c, 12, 69, 0
13, 58020, Control_c, 12, 11, 99
13, 58020, Note_on_c, 12, 64, 68
13, 58079, Note_on_c, 12, 64, 0
13, 58080, Note_on_c, 12, 68, 68
13, 58080, Control_c, 12, 11, 101
13, 58139, Note_on_c, 12, 68, 0
13, 58140, Control_c, 12, 11, 104
13, 58140, Note_on_c, 12, 64, 68
13, 58199, Note_on_c, 12, 64, 0
13, 58200, Note_on_c, 12, 69, 68
13, 58200, Control_c, 12, 11, 106
13, 58259, Note_on_c, 12, 69, 0
13, 58260, Control_c, 12, 11, 109
13, 58260, Note_on_c, 12, 64, 68
13, 58315, Note_on_c, 12, 64, 0
13, 58320, Note_on_c, 12, 64, 68
13, 58320, Control_c, 12, 11, 112
13, 58375, Note_on_c, 12, 64, 0
13, 58380, Note_on_c, 12, 64, 68
13, 58380, Control_c, 12, 11, 114
13, 58439, Note_on_c, 12, 64, 0
13, 58440, Note_on_c, 12, 68, 68
13, 58440, Control_c, 12, 11, 117
13, 58499, Note_on_c, 12, 68, 0
13, 58500, Note_on_c, 12, 64, 68
13, 58500, Control_c, 12, 11, 119
13, 58559, Note_on_c, 12, 64, 0
13, 58560, Control_c, 12, 11, 122
13, 58560, Note_on_c, 12, 66, 68
13, 58619, Note_on_c, 12, 66, 0
13, 58620, Note_on_c, 12, 64, 68
13, 58620, Control_c, 12, 11, 124
13, 58671, Note_on_c, 12, 64, 0
13, 58676, Control_c, 12, 11, 96
13, 58680, Note_on_c, 12, 64, 68
13, 58739, Note_on_c, 12, 64, 0
13, 58740, Note_on_c, 12, 59, 68
13, 58799, Note_on_c, 12, 59, 0
13, 58800, Note_on_c, 12, 64, 68
13, 58859, Note_on_c, 12, 64, 0
13, 58860, Note_on_c, 12, 59, 68
13, 58919, Note_on_c, 12, 59, 0
13, 58920, Note_on_c, 12, 63, 68
13, 58979, Note_on_c, 12, 63, 0
13, 58980, Note_on_c, 12, 59, 68
13, 59035, Note_on_c, 12, 59, 0
13, 59040, Note_on_c, 12, 59, 68
13, 59040, Control_c, 12, 11, 96
13, 59070, Control_c, 12, 11, 99
13, 59100, Control_c, 12, 11, 101
13, 59130, Control_c, 12, 11, 104
13, 59159, Note_on_c, 12, 59, 0
13, 59160, Control_c, 12, 11, 106
13, 59190, Control_c, 12, 11, 109
13, 59220, Control_c, 12, 11, 112
13, 59220, Note_on_c, 12, 64, 68
13, 59250, Control_c, 12, 11, 114
13, 59279, Note_on_c, 12, 64, 0
13, 59280, Note_on_c, 12, 66, 68
13, 59280, Control_c, 12, 11, 117
13, 59310, Control_c, 12, 11, 119
13, 59339, Note_on_c, 12, 66, 0
13, 59340, Note_on_c, 12, 68, 68
13, 59340, Control_c, 12, 11, 122
13, 59370, Control_c, 12, 11, 124
13, 59395, Note_on_c, 12, 68, 0
13, 59400, Control_c, 12, 11, 96
13, 59400, Note_on_c, 12, 69, 68
13, 59444, Note_on_c, 12, 69, 0
13, 59460, Note_on_c, 12, 61, 68
13, 59489, Note_on_c, 12, 61, 0
13, 59490, Note_on_c, 12, 64, 68
13, 59519, Note_on_c, 12, 64, 0
13, 59580, Note_on_c, 12, 57, 68
13, 59609, Note_on_c, 12, 57, 0
13, 59610, Note_on_c, 12, 64, 68
13, 59639, Note_on_c, 12, 64, 0
13, 59700, Note_on_c, 12, 59, 68
13, 59729, Note_on_c, 12, 59, 0
13, 59730, Note_on_c, 12, 64, 68
13, 59759, Note_on_c, 12, 64, 0
13, 59820, Note_on_c, 12, 57, 68
13, 59849, Note_on_c, 12, 57, 0
13, 59850, Note_on_c, 12, 61, 68
13, 59879, Note_on_c, 12, 61, 0
13, 59880, Note_on_c, 12, 64, 68
13, 59909, Note_on_c, 12, 64, 0
13, 59910, Note_on_c, 12, 61, 68
13, 59939, Note_on_c, 12, 61, 0
13, 59940, Note_on_c, 12, 69, 68
13, 59969, Note_on_c, 12, 69, 0
13, 59970, Note_on_c, 12, 64, 68
13, 59995, Note_on_c, 12, 64, 0
13, 60000, Note_on_c, 12, 73, 68
13, 60029, Note_on_c, 12, 73, 0
13, 60030, Note_on_c, 12, 69, 68
13, 60055, Note_on_c, 12, 69, 0
13, 60060, Note_on_c, 12, 76, 68
13, 60081, Note_on_c, 12, 76, 0
13, 60090, Note_on_c, 12, 76, 68
13, 60111, Note_on_c, 12, 76, 0
13, 60180, Note_on_c, 12, 69, 68
13, 60209, Note_on_c, 12, 69, 0
13, 60210, Note_on_c, 12, 64, 68
13, 60239, Note_on_c, 12, 64, 0
13, 60300, Note_on_c, 12, 71, 68
13, 60329, Note_on_c, 12, 71, 0
13, 60330, Note_on_c, 12, 64, 68
13, 60359, Note_on_c, 12, 64, 0
13, 60420, Note_on_c, 12, 69, 68
13, 60449, Note_on_c, 12, 69, 0
13, 60450, Note_on_c, 12, 64, 68
13, 60479, Note_on_c, 12, 64, 0
13, 60540, Note_on_c, 12, 71, 68
13, 60569, Note_on_c, 12, 71, 0
13, 60570, Note_on_c, 12, 68, 68
13, 60599, Note_on_c, 12, 68, 0
13, 60600, Note_on_c, 12, 64, 68
13, 60629, Note_on_c, 12, 64, 0
13, 60630, Note_on_c, 12, 68, 68
13, 60659, Note_on_c, 12, 68, 0
13, 60660, Note_on_c, 12, 59, 68
13, 60689, Note_on_c, 12, 59, 0
13, 60690, Note_on_c, 12, 64, 68
13, 60715, Note_on_c, 12, 64, 0
13, 60720, Note_on_c, 12, 56, 68
13, 60749, Note_on_c, 12, 56, 0
13, 60750, Note_on_c, 12, 59, 68
13, 60775, Note_on_c, 12, 59, 0
13, 60780, Note_on_c, 12, 64, 68
13, 60801, Note_on_c, 12, 64, 0
13, 60810, Note_on_c, 12, 64, 68
13, 60831, Note_on_c, 12, 64, 0
13, 60840, Control_c, 12, 11, 96
13, 60870, Control_c, 12, 11, 99
13, 60900, Note_on_c, 12, 64, 68
13, 60900, Control_c, 12, 11, 101
13, 60929, Note_on_c, 12, 64, 0
13, 60930, Control_c, 12, 11, 104
13, 60930, Note_on_c, 12, 76, 68
13, 60959, Note_on_c, 12, 76, 0
13, 60960, Control_c, 12, 11, 106
13, 60990, Control_c, 12, 11, 109
13, 61020, Note_on_c, 12, 64, 68
13, 61020, Control_c, 12, 11, 112
13, 61049, Note_on_c, 12, 64, 0
13, 61050, Control_c, 12, 11, 114
13, 61050, Note_on_c, 12, 74, 68
13, 61079, Note_on_c, 12, 74, 0
13, 61080, Control_c, 12, 11, 117
13, 61110, Control_c, 12, 11, 119
13, 61140, Note_on_c, 12, 64, 68
13, 61140, Control_c, 12, 11, 122
13, 61169, Note_on_c, 12, 64, 0
13, 61170, Note_on_c, 12, 73, 68
13, 61170, Control_c, 12, 11, 124
13, 61199, Note_on_c, 12, 73, 0
13, 61200, Control_c, 12, 11, 127
13, 61260, Note_on_c, 12, 76, 76
13, 61371, Note_on_c, 12, 76, 0
13, 61380, Note_on_c, 12, 76, 68
13, 61424, Note_on_c, 12, 76, 0
13, 61440, Note_on_c, 12, 76, 68
13, 61484, Note_on_c, 12, 76, 0
13, 61500, Note_on_c, 12, 76, 68
13, 61544, Note_on_c, 12, 76, 0
13, 61620, Note_on_c, 12, 71, 52
13, 61641, Note_on_c, 12, 71, 0
13, 61650, Note_on_c, 12, 71, 52
13, 61671, Note_on_c, 12, 71, 0
13, 61680, Note_on_c, 12, 71, 52
13, 61709, Note_on_c, 12, 71, 0
13, 61710, Note_on_c, 12, 70, 52
13, 61735, Note_on_c, 12, 70, 0
13, 61740, Note_on_c, 12, 71, 52
13, 61761, Note_on_c, 12, 71, 0
13, 61770, Note_on_c, 12, 71, 52
13, 61791, Note_on_c, 12, 71, 0
13, 61800, Note_on_c, 12, 71, 52
13, 61829, Note_on_c, 12, 71, 0
13, 61830, Note_on_c, 12, 70, 52
13, 61855, Note_on_c, 12, 70, 0
13, 61860, Note_on_c, 12, 71, 52
13, 61881, Note_on_c, 12, 71, 0
13, 61890, Note_on_c, 12, 71, 52
13, 61911, Note_on_c, 12, 71, 0
13, 61920, Note_on_c, 12, 71, 52
13, 61949, Note_on_c, 12, 71, 0
13, 61950, Note_on_c, 12, 68, 52
13, 61979, Note_on_c, 12, 68, 0
13, 61980, Note_on_c, 12, 64, 52
13, 62024, Note_on_c, 12, 64, 0
13, 62280, Note_on_c, 12, 64, 52
13, 62331, Note_on_c, 12, 64, 0
13, 62340, Note_on_c, 12, 64, 52
13, 62391, Note_on_c, 12, 64, 0
13, 62400, Note_on_c, 12, 64, 52
13, 62451, Note_on_c, 12, 64, 0
13, 62460, Note_on_c, 12, 64, 52
13, 62519, Note_on_c, 12, 64, 0
13, 62520, Note_on_c, 12, 62, 52
13, 62579, Note_on_c, 12, 62, 0
13, 62580, Note_on_c, 12, 64, 52
13, 62635, Note_on_c, 12, 64, 0
13, 62640, Note_on_c, 12, 60, 52
13, 62699, Note_on_c, 12, 60, 0
13, 62700, Note_on_c, 12, 64, 52
13, 62759, Note_on_c, 12, 64, 0
13, 62760, Note_on_c, 12, 61, 52
13, 62819, Note_on_c, 12, 61, 0
13, 62820, Note_on_c, 12, 64, 52
13, 62879, Note_on_c, 12, 64, 0
13, 62880, Note_on_c, 12, 61, 52
13, 62939, Note_on_c, 12, 61, 0
13, 62940, Note_on_c, 12, 64, 52
13, 62995, Note_on_c, 12, 64, 0
13, 63000, Note_on_c, 12, 69, 52
13, 63059, Note_on_c, 12, 69, 0
13, 63060, Note_on_c, 12, 64, 52
13, 63119, Note_on_c, 12, 64, 0
13, 63120, Note_on_c, 12, 68, 52
13, 63179, Note_on_c, 12, 68, 0
13, 63180, Note_on_c, 12, 64, 52
13, 63239, Note_on_c, 12, 64, 0
13, 63240, Note_on_c, 12, 67, 52
13, 63299, Note_on_c, 12, 67, 0
13, 63300, Note_on_c, 12, 64, 52
13, 63355, Note_on_c, 12, 64, 0
13, 63360, Note_on_c, 12, 67, 52
13, 63419, Note_on_c, 12, 67, 0
13, 63420, Note_on_c, 12, 64, 52
13, 63479, Note_on_c, 12, 64, 0
13, 63480, Note_on_c, 12, 68, 52
13, 63539, Note_on_c, 12, 68, 0
13, 63540, Note_on_c, 12, 64, 52
13, 63599, Note_on_c, 12, 64, 0
13, 63600, Note_on_c, 12, 68, 52
13, 63659, Note_on_c, 12, 68, 0
13, 63660, Note_on_c, 12, 64, 52
13, 63715, Note_on_c, 12, 64, 0
13, 63720, Note_on_c, 12, 64, 52
13, 63775, Note_on_c, 12, 64, 0
13, 63780, Note_on_c, 12, 64, 54
13, 63835, Note_on_c, 12, 64, 0
13, 63840, Note_on_c, 12, 64, 57
13, 63895, Note_on_c, 12, 64, 0
13, 63900, Note_on_c, 12, 64, 60
13, 63955, Note_on_c, 12, 64, 0
13, 63960, Note_on_c, 12, 64, 62
13, 64015, Note_on_c, 12, 64, 0
13, 64020, Note_on_c, 12, 64, 65
13, 64075, Note_on_c, 12, 64, 0
13, 64080, Note_on_c, 12, 64, 76
13, 64080, Control_c, 12, 11, 127
13, 64110, Control_c, 12, 11, 124
13, 64135, Note_on_c, 12, 64, 0
13, 64140, Control_c, 12, 11, 122
13, 64140, Note_on_c, 12, 64, 68
13, 64170, Control_c, 12, 11, 119
13, 64199, Note_on_c, 12, 64, 0
13, 64200, Control_c, 12, 11, 117
13, 64200, Note_on_c, 12, 68, 68
13, 64230, Control_c, 12, 11, 114
13, 64259, Note_on_c, 12, 68, 0
13, 64260, Note_on_c, 12, 64, 68
13, 64260, Control_c, 12, 11, 112
13, 64290, Control_c, 12, 11, 109
13, 64319, Note_on_c, 12, 64, 0
13, 64320, Control_c, 12, 11, 106
13, 64320, Note_on_c, 12, 69, 68
13, 64350, Control_c, 12, 11, 104
13, 64379, Note_on_c, 12, 69, 0
13, 64380, Note_on_c, 12, 64, 68
13, 64380, Control_c, 12, 11, 101
13, 64410, Control_c, 12, 11, 99
13, 64435, Note_on_c, 12, 64, 0
13, 64440, Control_c, 12, 11, 96
13, 64440, Note_on_c, 12, 66, 68
13, 64499, Note_on_c, 12, 66, 0
13, 64500, Note_on_c, 12, 71, 68
13, 64559, Note_on_c, 12, 71, 0
13, 64560, Note_on_c, 12, 66, 68
13, 64619, Note_on_c, 12, 66, 0
13, 64620, Note_on_c, 12, 71, 68
13, 64679, Note_on_c, 12, 71, 0
13, 64680, Note_on_c, 12, 68, 68
13, 64739, Note_on_c, 12, 68, 0
13, 64740, Note_on_c, 12, 64, 68
13, 64795, Note_on_c, 12, 64, 0
13, 64800, Note_on_c, 12, 68, 68
13, 64859, Note_on_c, 12, 68, 0
13, 64860, Note_on_c, 12, 64, 68
13, 64919, Note_on_c, 12, 64, 0
13, 64920, Note_on_c, 12, 69, 68
13, 64975, Note_on_c, 12, 69, 0
13, 64980, Note_on_c, 12, 64, 68
13, 65024, Note_on_c, 12, 64, 0
13, 65040, Note_on_c, 12, 64, 68
13, 65084, Note_on_c, 12, 64, 0
13, 65100, Note_on_c, 12, 64, 68
13, 65144, Note_on_c, 12, 64, 0
13, 65160, Note_on_c, 12, 64, 68
13, 65215, Note_on_c, 12, 64, 0
13, 65220, Note_on_c, 12, 76, 68
13, 65331, Note_on_c, 12, 76, 0
13, 65340, Note_on_c, 12, 76, 68
13, 65451, Note_on_c, 12, 76, 0
13, 65460, Note_on_c, 12, 76, 68
13, 65571, Note_on_c, 12, 76, 0
13, 65580, Note_on_c, 12, 76, 84
13, 65691, Note_on_c, 12, 76, 0
13, 65700, Note_on_c, 12, 75, 68
13, 65729, Note_on_c, 12, 75, 0
13, 65730, Note_on_c, 12, 76, 68
13, 65759, Note_on_c, 12, 76, 0
13, 65760, Note_on_c, 12, 75, 68
13, 65789, Note_on_c, 12, 75, 0
13, 65790, Note_on_c, 12, 76, 68
13, 65815, Note_on_c, 12, 76, 0
13, 65820, Note_on_c, 12, 73, 68
13, 65841, Note_on_c, 12, 73, 0
13, 65850, Note_on_c, 12, 69, 68
13, 65871, Note_on_c, 12, 69, 0
13, 65880, Note_on_c, 12, 64, 68
13, 65935, Note_on_c, 12, 64, 0
13, 65940, Note_on_c, 12, 76, 68
13, 66051, Note_on_c, 12, 76, 0
13, 66060, Note_on_c, 12, 76, 68
13, 66171, Note_on_c, 12, 76, 0
13, 66180, Note_on_c, 12, 76, 68
13, 66235, Note_on_c, 12, 76, 0
13, 66240, Note_on_c, 12, 76, 68
13, 66295, Note_on_c, 12, 76, 0
13, 66300, Note_on_c, 12, 76, 84
13, 66411, Note_on_c, 12, 76, 0
13, 66420, Note_on_c, 12, 74, 68
13, 66449, Note_on_c, 12, 74, 0
13, 66450, Note_on_c, 12, 73, 68
13, 66475, Note_on_c, 12, 73, 0
13, 66480, Note_on_c, 12, 73, 68
13, 66509, Note_on_c, 12, 73, 0
13, 66510, Note_on_c, 12, 71, 68
13, 66535, Note_on_c, 12, 71, 0
13, 66540, Note_on_c, 12, 69, 68
13, 66561, Note_on_c, 12, 69, 0
13, 66570, Note_on_c, 12, 68, 68
13, 66591, Note_on_c, 12, 68, 0
13, 66600, Note_on_c, 12, 68, 68
13, 66600, Control_c, 12, 11, 96
13, 66629, Note_on_c, 12, 68, 0
13, 66630, Note_on_c, 12, 66, 68
13, 66630, Control_c, 12, 11, 99
13, 66655, Note_on_c, 12, 66, 0
13, 66660, Note_on_c, 12, 66, 68
13, 66660, Control_c, 12, 11, 101
13, 66681, Note_on_c, 12, 66, 0
13, 66690, Note_on_c, 12, 64, 68
13, 66690, Control_c, 12, 11, 104
13, 66711, Note_on_c, 12, 64, 0
13, 66720, Control_c, 12, 11, 106
13, 66720, Note_on_c, 12, 62, 68
13, 66749, Note_on_c, 12, 62, 0
13, 66750, Note_on_c, 12, 64, 68
13, 66750, Control_c, 12, 11, 109
13, 66779, Note_on_c, 12, 64, 0
13, 66780, Note_on_c, 12, 61, 68
13, 66780, Control_c, 12, 11, 112
13, 66809, Note_on_c, 12, 61, 0
13, 66810, Note_on_c, 12, 62, 68
13, 66810, Control_c, 12, 11, 114
13, 66839, Note_on_c, 12, 62, 0
13, 66840, Note_on_c, 12, 59, 68
13, 66840, Control_c, 12, 11, 117
13, 66869, Note_on_c, 12, 59, 0
13, 66870, Control_c, 12, 11, 119
13, 66870, Note_on_c, 12, 61, 68
13, 66899, Note_on_c, 12, 61, 0
13, 66900, Control_c, 12, 11, 122
13, 66900, Note_on_c, 12, 57, 68
13, 66929, Note_on_c, 12, 57, 0
13, 66930, Note_on_c, 12, 59, 68
13, 66930, Control_c, 12, 11, 124
13, 66955, Note_on_c, 12, 59, 0
13, 66960, Note_on_c, 12, 56, 68
13, 66960, Control_c, 12, 11, 127
13, 66981, Note_on_c, 12, 56, 0
13, 66990, Note_on_c, 12, 57, 67
13, 67011, Note_on_c, 12, 57, 0
13, 67020, Note_on_c, 12, 59, 66
13, 67041, Note_on_c, 12, 59, 0
13, 67050, Note_on_c, 12, 61, 64
13, 67071, Note_on_c, 12, 61, 0
13, 67080, Note_on_c, 12, 62, 63
13, 67101, Note_on_c, 12, 62, 0
13, 67110, Note_on_c, 12, 64, 62
13, 67131, Note_on_c, 12, 64, 0
13, 67140, Note_on_c, 12, 66, 60
13, 67161, Note_on_c, 12, 66, 0
13, 67170, Note_on_c, 12, 68, 59
13, 67191, Note_on_c, 12, 68, 0
13, 67200, Note_on_c, 12, 69, 58
13, 67221, Note_on_c, 12, 69, 0
13, 67230, Note_on_c, 12, 71, 56
13, 67251, Note_on_c, 12, 71, 0
13, 67260, Note_on_c, 12, 73, 55
13, 67281, Note_on_c, 12, 73, 0
13, 67290, Note_on_c, 12, 73, 54
13, 67311, Note_on_c, 12, 73, 0
13, 67380, Note_on_c, 12, 66, 52
13, 67409, Note_on_c, 12, 66, 0
13, 67410, Note_on_c, 12, 74, 52
13, 67439, Note_on_c, 12, 74, 0
13, 67500, Note_on_c, 12, 66, 52
13, 67529, Note_on_c, 12, 66, 0
13, 67530, Note_on_c, 12, 74, 52
13, 67559, Note_on_c, 12, 74, 0
13, 67620, Note_on_c, 12, 71, 52
13, 67649, Note_on_c, 12, 71, 0
13, 67650, Note_on_c, 12, 74, 52
13, 67675, Note_on_c, 12, 74, 0
13, 67680, Note_on_c, 12, 73, 52
13, 67735, Note_on_c, 12, 73, 0
13, 67740, Note_on_c, 12, 64, 52
13, 67740, Note_on_c, 12, 61, 52
13, 67791, Note_on_c, 12, 64, 0
13, 67791, Note_on_c, 12, 61, 0
13, 67800, Note_on_c, 12, 64, 52
13, 67800, Note_on_c, 12, 61, 52
13, 67851, Note_on_c, 12, 64, 0
13, 67851, Note_on_c, 12, 61, 0
13, 67860, Note_on_c, 12, 64, 52
13, 67860, Note_on_c, 12, 61, 52
13, 67911, Note_on_c, 12, 64, 0
13, 67911, Note_on_c, 12, 61, 0
13, 67920, Note_on_c, 12, 64, 52
13, 67920, Note_on_c, 12, 61, 52
13, 67971, Note_on_c, 12, 64, 0
13, 67971, Note_on_c, 12, 61, 0
13, 67980, Note_on_c, 12, 61, 52
13, 67980, Note_on_c, 12, 64, 52
13, 68031, Note_on_c, 12, 61, 0
13, 68031, Note_on_c, 12, 64, 0
13, 68040, Note_on_c, 12, 64, 52
13, 68040, Note_on_c, 12, 61, 52
13, 68091, Note_on_c, 12, 64, 0
13, 68091, Note_on_c, 12, 61, 0
13, 68100, Note_on_c, 12, 64, 52
13, 68100, Note_on_c, 12, 61, 52
13, 68151, Note_on_c, 12, 64, 0
13, 68151, Note_on_c, 12, 61, 0
13, 68160, Note_on_c, 12, 61, 52
13, 68160, Note_on_c, 12, 64, 52
13, 68211, Note_on_c, 12, 61, 0
13, 68211, Note_on_c, 12, 64, 0
13, 68220, Note_on_c, 12, 61, 52
13, 68220, Note_on_c, 12, 64, 52
13, 68271, Note_on_c, 12, 61, 0
13, 68271, Note_on_c, 12, 64, 0
13, 68280, Note_on_c, 12, 61, 52
13, 68280, Note_on_c, 12, 64, 52
13, 68331, Note_on_c, 12, 61, 0
13, 68331, Note_on_c, 12, 64, 0
13, 68340, Note_on_c, 12, 61, 52
13, 68340, Note_on_c, 12, 64, 52
13, 68391, Note_on_c, 12, 61, 0
13, 68391, Note_on_c, 12, 64, 0
13, 68400, Note_on_c, 12, 62, 52
13, 68400, Note_on_c, 12, 64, 52
13, 68451, Note_on_c, 12, 62, 0
13, 68451, Note_on_c, 12, 64, 0
13, 68460, Note_on_c, 12, 64, 52
13, 68460, Note_on_c, 12, 62, 52
13, 68511, Note_on_c, 12, 64, 0
13, 68511, Note_on_c, 12, 62, 0
13, 68520, Note_on_c, 12, 64, 52
13, 68520, Note_on_c, 12, 62, 52
13, 68571, Note_on_c, 12, 64, 0
13, 68571, Note_on_c, 12, 62, 0
13, 68580, Note_on_c, 12, 62, 52
13, 68580, Note_on_c, 12, 64, 52
13, 68631, Note_on_c, 12, 62, 0
13, 68631, Note_on_c, 12, 64, 0
13, 68640, Note_on_c, 12, 62, 52
13, 68640, Note_on_c, 12, 64, 52
13, 68691, Note_on_c, 12, 62, 0
13, 68691, Note_on_c, 12, 64, 0
13, 68700, Note_on_c, 12, 62, 52
13, 68700, Note_on_c, 12, 64, 52
13, 68751, Note_on_c, 12, 62, 0
13, 68751, Note_on_c, 12, 64, 0
13, 68760, Note_on_c, 12, 62, 52
13, 68760, Note_on_c, 12, 64, 52
13, 68811, Note_on_c, 12, 62, 0
13, 68811, Note_on_c, 12, 64, 0
13, 68820, Note_on_c, 12, 62, 52
13, 68820, Note_on_c, 12, 64, 52
13, 68871, Note_on_c, 12, 62, 0
13, 68871, Note_on_c, 12, 64, 0
13, 68880, Note_on_c, 12, 62, 52
13, 68880, Note_on_c, 12, 64, 52
13, 68931, Note_on_c, 12, 62, 0
13, 68931, Note_on_c, 12, 64, 0
13, 68940, Note_on_c, 12, 62, 52
13, 68940, Note_on_c, 12, 64, 52
13, 68991, Note_on_c, 12, 62, 0
13, 68991, Note_on_c, 12, 64, 0
13, 69000, Note_on_c, 12, 62, 52
13, 69000, Note_on_c, 12, 64, 52
13, 69051, Note_on_c, 12, 62, 0
13, 69051, Note_on_c, 12, 64, 0
13, 69060, Note_on_c, 12, 64, 52
13, 69060, Note_on_c, 12, 62, 52
13, 69111, Note_on_c, 12, 64, 0
13, 69111, Note_on_c, 12, 62, 0
13, 69120, Note_on_c, 12, 61, 52
13, 69120, Note_on_c, 12, 64, 52
13, 69171, Note_on_c, 12, 61, 0
13, 69171, Note_on_c, 12, 64, 0
13, 69180, Note_on_c, 12, 64, 52
13, 69180, Note_on_c, 12, 61, 52
13, 69231, Note_on_c, 12, 64, 0
13, 69231, Note_on_c, 12, 61, 0
13, 69240, Note_on_c, 12, 64, 52
13, 69240, Note_on_c, 12, 61, 52
13, 69291, Note_on_c, 12, 64, 0
13, 69291, Note_on_c, 12, 61, 0
13, 69300, Note_on_c, 12, 64, 52
13, 69300, Note_on_c, 12, 61, 52
13, 69351, Note_on_c, 12, 64, 0
13, 69351, Note_on_c, 12, 61, 0
13, 69360, Note_on_c, 12, 64, 52
13, 69360, Note_on_c, 12, 61, 52
13, 69411, Note_on_c, 12, 64, 0
13, 69411, Note_on_c, 12, 61, 0
13, 69420, Note_on_c, 12, 64, 52
13, 69420, Note_on_c, 12, 61, 52
13, 69471, Note_on_c, 12, 64, 0
13, 69471, Note_on_c, 12, 61, 0
13, 69480, Note_on_c, 12, 64, 52
13, 69480, Note_on_c, 12, 60, 52
13, 69531, Note_on_c, 12, 64, 0
13, 69531, Note_on_c, 12, 60, 0
13, 69540, Note_on_c, 12, 64, 52
13, 69540, Note_on_c, 12, 60, 52
13, 69591, Note_on_c, 12, 64, 0
13, 69591, Note_on_c, 12, 60, 0
13, 69600, Note_on_c, 12, 64, 52
13, 69600, Note_on_c, 12, 60, 52
13, 69651, Note_on_c, 12, 64, 0
13, 69651, Note_on_c, 12, 60, 0
13, 69660, Note_on_c, 12, 64, 52
13, 69660, Note_on_c, 12, 60, 52
13, 69711, Note_on_c, 12, 64, 0
13, 69711, Note_on_c, 12, 60, 0
13, 69720, Note_on_c, 12, 64, 52
13, 69720, Note_on_c, 12, 60, 52
13, 69771, Note_on_c, 12, 64, 0
13, 69771, Note_on_c, 12, 60, 0
13, 69780, Note_on_c, 12, 64, 52
13, 69780, Note_on_c, 12, 60, 52
13, 69831, Note_on_c, 12, 64, 0
13, 69831, Note_on_c, 12, 60, 0
13, 69840, Note_on_c, 12, 64, 52
13, 69840, Note_on_c, 12, 62, 52
13, 69891, Note_on_c, 12, 64, 0
13, 69891, Note_on_c, 12, 62, 0
13, 69900, Note_on_c, 12, 64, 52
13, 69900, Note_on_c, 12, 62, 52
13, 69951, Note_on_c, 12, 64, 0
13, 69951, Note_on_c, 12, 62, 0
13, 69960, Note_on_c, 12, 64, 52
13, 69960, Note_on_c, 12, 62, 52
13, 70011, Note_on_c, 12, 64, 0
13, 70011, Note_on_c, 12, 62, 0
13, 70020, Note_on_c, 12, 62, 52
13, 70020, Note_on_c, 12, 64, 52
13, 70071, Note_on_c, 12, 62, 0
13, 70071, Note_on_c, 12, 64, 0
13, 70080, Note_on_c, 12, 64, 52
13, 70080, Note_on_c, 12, 62, 52
13, 70131, Note_on_c, 12, 64, 0
13, 70131, Note_on_c, 12, 62, 0
13, 70140, Note_on_c, 12, 62, 52
13, 70140, Note_on_c, 12, 64, 52
13, 70191, Note_on_c, 12, 62, 0
13, 70191, Note_on_c, 12, 64, 0
13, 70200, Note_on_c, 12, 64, 52
13, 70200, Note_on_c, 12, 62, 52
13, 70251, Note_on_c, 12, 64, 0
13, 70251, Note_on_c, 12, 62, 0
13, 70260, Note_on_c, 12, 64, 52
13, 70260, Note_on_c, 12, 62, 52
13, 70311, Note_on_c, 12, 64, 0
13, 70311, Note_on_c, 12, 62, 0
13, 70320, Note_on_c, 12, 64, 52
13, 70320, Note_on_c, 12, 62, 52
13, 70371, Note_on_c, 12, 64, 0
13, 70371, Note_on_c, 12, 62, 0
13, 70380, Note_on_c, 12, 64, 52
13, 70380, Note_on_c, 12, 62, 52
13, 70431, Note_on_c, 12, 64, 0
13, 70431, Note_on_c, 12, 62, 0
13, 70440, Note_on_c, 12, 64, 52
13, 70440, Note_on_c, 12, 62, 52
13, 70491, Note_on_c, 12, 64, 0
13, 70491, Note_on_c, 12, 62, 0
13, 70500, Note_on_c, 12, 64, 52
13, 70500, Note_on_c, 12, 62, 52
13, 70551, Note_on_c, 12, 64, 0
13, 70551, Note_on_c, 12, 62, 0
13, 70560, Note_on_c, 12, 64, 52
13, 70560, Note_on_c, 12, 60, 52
13, 70611, Note_on_c, 12, 64, 0
13, 70611, Note_on_c, 12, 60, 0
13, 70620, Note_on_c, 12, 64, 52
13, 70620, Note_on_c, 12, 60, 52
13, 70671, Note_on_c, 12, 64, 0
13, 70671, Note_on_c, 12, 60, 0
13, 70680, Note_on_c, 12, 64, 52
13, 70680, Note_on_c, 12, 60, 52
13, 70731, Note_on_c, 12, 64, 0
13, 70731, Note_on_c, 12, 60, 0
13, 70740, Note_on_c, 12, 64, 52
13, 70740, Note_on_c, 12, 60, 52
13, 70791, Note_on_c, 12, 64, 0
13, 70791, Note_on_c, 12, 60, 0
13, 70800, Note_on_c, 12, 64, 52
13, 70800, Note_on_c, 12, 60, 52
13, 70851, Note_on_c, 12, 64, 0
13, 70851, Note_on_c, 12, 60, 0
13, 70860, Note_on_c, 12, 64, 52
13, 70860, Note_on_c, 12, 60, 52
13, 70911, Note_on_c, 12, 64, 0
13, 70911, Note_on_c, 12, 60, 0
13, 70920, Note_on_c, 12, 65, 76
13, 70920, Note_on_c, 12, 57, 76
13, 70971, Note_on_c, 12, 65, 0
13, 70971, Note_on_c, 12, 57, 0
13, 70980, Note_on_c, 12, 65, 76
13, 70980, Note_on_c, 12, 57, 76
13, 71031, Note_on_c, 12, 65, 0
13, 71031, Note_on_c, 12, 57, 0
13, 71040, Note_on_c, 12, 65, 76
13, 71040, Note_on_c, 12, 57, 76
13, 71091, Note_on_c, 12, 65, 0
13, 71091, Note_on_c, 12, 57, 0
13, 71100, Note_on_c, 12, 65, 76
13, 71100, Note_on_c, 12, 57, 76
13, 71151, Note_on_c, 12, 65, 0
13, 71151, Note_on_c, 12, 57, 0
13, 71160, Note_on_c, 12, 65, 76
13, 71160, Note_on_c, 12, 57, 76
13, 71211, Note_on_c, 12, 65, 0
13, 71211, Note_on_c, 12, 57, 0
13, 71220, Note_on_c, 12, 65, 76
13, 71220, Note_on_c, 12, 57, 76
13, 71271, Note_on_c, 12, 65, 0
13, 71271, Note_on_c, 12, 57, 0
13, 71280, Note_on_c, 12, 65, 52
13, 71280, Note_on_c, 12, 55, 52
13, 71331, Note_on_c, 12, 65, 0
13, 71331, Note_on_c, 12, 55, 0
13, 71340, Note_on_c, 12, 65, 52
13, 71340, Note_on_c, 12, 55, 52
13, 71391, Note_on_c, 12, 65, 0
13, 71391, Note_on_c, 12, 55, 0
13, 71400, Note_on_c, 12, 64, 52
13, 71400, Note_on_c, 12, 55, 52
13, 71451, Note_on_c, 12, 64, 0
13, 71451, Note_on_c, 12, 55, 0
13, 71460, Note_on_c, 12, 64, 52
13, 71460, Note_on_c, 12, 55, 52
13, 71511, Note_on_c, 12, 64, 0
13, 71511, Note_on_c, 12, 55, 0
13, 71520, Note_on_c, 12, 64, 52
13, 71520, Note_on_c, 12, 55, 52
13, 71571, Note_on_c, 12, 64, 0
13, 71571, Note_on_c, 12, 55, 0
13, 71580, Note_on_c, 12, 64, 52
13, 71580, Note_on_c, 12, 55, 52
13, 71631, Note_on_c, 12, 64, 0
13, 71631, Note_on_c, 12, 55, 0
13, 71640, Note_on_c, 12, 64, 76
13, 71691, Note_on_c, 12, 64, 0
13, 71700, Note_on_c, 12, 64, 76
13, 71751, Note_on_c, 12, 64, 0
13, 71760, Note_on_c, 12, 62, 76
13, 71811, Note_on_c, 12, 62, 0
13, 71820, Note_on_c, 12, 62, 76
13, 71871, Note_on_c, 12, 62, 0
13, 71880, Note_on_c, 12, 62, 76
13, 71931, Note_on_c, 12, 62, 0
13, 71940, Note_on_c, 12, 62, 76
13, 71991, Note_on_c, 12, 62, 0
13, 72000, Note_on_c, 12, 62, 52
13, 72051, Note_on_c, 12, 62, 0
13, 72060, Note_on_c, 12, 62, 52
13, 72111, Note_on_c, 12, 62, 0
13, 72120, Note_on_c, 12, 60, 52
13, 72171, Note_on_c, 12, 60, 0
13, 72180, Note_on_c, 12, 60, 52
13, 72231, Note_on_c, 12, 60, 0
13, 72240, Note_on_c, 12, 60, 52
13, 72291, Note_on_c, 12, 60, 0
13, 72300, Note_on_c, 12, 60, 52
13, 72351, Note_on_c, 12, 60, 0
13, 72360, Note_on_c, 12, 65, 76
13, 72360, Note_on_c, 12, 62, 76
13, 72411, Note_on_c, 12, 65, 0
13, 72411, Note_on_c, 12, 62, 0
13, 72420, Note_on_c, 12, 65, 52
13, 72420, Note_on_c, 12, 62, 52
13, 72471, Note_on_c, 12, 65, 0
13, 72471, Note_on_c, 12, 62, 0
13, 72480, Note_on_c, 12, 65, 52
13, 72480, Note_on_c, 12, 62, 52
13, 72531, Note_on_c, 12, 65, 0
13, 72531, Note_on_c, 12, 62, 0
13, 72540, Note_on_c, 12, 65, 52
13, 72540, Note_on_c, 12, 62, 52
13, 72591, Note_on_c, 12, 65, 0
13, 72591, Note_on_c, 12, 62, 0
13, 72600, Note_on_c, 12, 65, 52
13, 72600, Note_on_c, 12, 62, 52
13, 72651, Note_on_c, 12, 65, 0
13, 72651, Note_on_c, 12, 62, 0
13, 72660, Note_on_c, 12, 65, 52
13, 72660, Note_on_c, 12, 62, 52
13, 72711, Note_on_c, 12, 65, 0
13, 72711, Note_on_c, 12, 62, 0
13, 72720, Note_on_c, 12, 66, 76
13, 72720, Note_on_c, 12, 60, 76
13, 72771, Note_on_c, 12, 66, 0
13, 72771, Note_on_c, 12, 60, 0
13, 72780, Note_on_c, 12, 66, 52
13, 72780, Note_on_c, 12, 60, 52
13, 72831, Note_on_c, 12, 66, 0
13, 72831, Note_on_c, 12, 60, 0
13, 72840, Note_on_c, 12, 66, 52
13, 72840, Note_on_c, 12, 60, 52
13, 72891, Note_on_c, 12, 66, 0
13, 72891, Note_on_c, 12, 60, 0
13, 72900, Note_on_c, 12, 66, 52
13, 72900, Note_on_c, 12, 60, 52
13, 72951, Note_on_c, 12, 66, 0
13, 72951, Note_on_c, 12, 60, 0
13, 72960, Note_on_c, 12, 66, 52
13, 72960, Note_on_c, 12, 60, 52
13, 73011, Note_on_c, 12, 66, 0
13, 73011, Note_on_c, 12, 60, 0
13, 73020, Note_on_c, 12, 66, 52
13, 73020, Note_on_c, 12, 60, 52
13, 73071, Note_on_c, 12, 66, 0
13, 73071, Note_on_c, 12, 60, 0
13, 73080, Note_on_c, 12, 59, 52
13, 73199, Note_on_c, 12, 59, 0
13, 73440, Note_on_c, 12, 71, 52
13, 73484, Note_on_c, 12, 71, 0
13, 73500, Note_on_c, 12, 74, 76
13, 73611, Note_on_c, 12, 74, 0
13, 73620, Note_on_c, 12, 74, 52
13, 73664, Note_on_c, 12, 74, 0
13, 73680, Note_on_c, 12, 72, 52
13, 73724, Note_on_c, 12, 72, 0
13, 73740, Note_on_c, 12, 72, 52
13, 73784, Note_on_c, 12, 72, 0
13, 73800, Note_on_c, 12, 71, 52
13, 73889, Note_on_c, 12, 71, 0
13, 74160, Note_on_c, 12, 71, 52
13, 74204, Note_on_c, 12, 71, 0
13, 74220, Note_on_c, 12, 74, 76
13, 74331, Note_on_c, 12, 74, 0
13, 74340, Note_on_c, 12, 74, 52
13, 74384, Note_on_c, 12, 74, 0
13, 74400, Note_on_c, 12, 72, 52
13, 74444, Note_on_c, 12, 72, 0
13, 74460, Note_on_c, 12, 72, 52
13, 74504, Note_on_c, 12, 72, 0
13, 74520, Note_on_c, 12, 71, 52
13, 74564, Note_on_c, 12, 71, 0
13, 74580, Note_on_c, 12, 74, 76
13, 74691, Note_on_c, 12, 74, 0
13, 74700, Note_on_c, 12, 74, 52
13, 74744, Note_on_c, 12, 74, 0
13, 74760, Note_on_c, 12, 72, 52
13, 74804, Note_on_c, 12, 72, 0
13, 74820, Note_on_c, 12, 72, 52
13, 74864, Note_on_c, 12, 72, 0
13, 74880, Note_on_c, 12, 71, 84
13, 74924, Note_on_c, 12, 71, 0
13, 74940, Note_on_c, 12, 83, 84
13, 74940, Note_on_c, 12, 74, 84
13, 74984, Note_on_c, 12, 83, 0
13, 74984, Note_on_c, 12, 74, 0
13, 75000, Note_on_c, 12, 83, 84
13, 75000, Note_on_c, 12, 74, 84
13, 75044, Note_on_c, 12, 83, 0
13, 75044, Note_on_c, 12, 74, 0
13, 75060, Note_on_c, 12, 83, 84
13, 75060, Note_on_c, 12, 74, 84
13, 75104, Note_on_c, 12, 83, 0
13, 75104, Note_on_c, 12, 74, 0
13, 75120, Note_on_c, 12, 81, 84
13, 75120, Note_on_c, 12, 72, 84
13, 75164, Note_on_c, 12, 81, 0
13, 75164, Note_on_c, 12, 72, 0
13, 75180, Note_on_c, 12, 81, 84
13, 75180, Note_on_c, 12, 72, 84
13, 75224, Note_on_c, 12, 81, 0
13, 75224, Note_on_c, 12, 72, 0
13, 75240, Note_on_c, 12, 80, 84
13, 75240, Note_on_c, 12, 71, 84
13, 75359, Note_on_c, 12, 80, 0
13, 75359, Note_on_c, 12, 71, 0
13, 75960, Note_on_c, 12, 59, 52
13, 76319, Note_on_c, 12, 59, 0
13, 76320, Note_on_c, 12, 61, 52
13, 76679, Note_on_c, 12, 61, 0
13, 76680, Note_on_c, 12, 62, 52
13, 77039, Note_on_c, 12, 62, 0
13, 77040, Note_on_c, 12, 64, 52
13, 77159, Note_on_c, 12, 64, 0
13, 77160, Control_c, 12, 11, 96
13, 77180, Control_c, 12, 11, 99
13, 77200, Control_c, 12, 11, 101
13, 77220, Note_on_c, 12, 64, 68
13, 77220, Control_c, 12, 11, 104
13, 77240, Control_c, 12, 11, 106
13, 77260, Control_c, 12, 11, 109
13, 77264, Note_on_c, 12, 64, 0
13, 77280, Control_c, 12, 11, 112
13, 77280, Note_on_c, 12, 69, 68
13, 77300, Control_c, 12, 11, 114
13, 77320, Control_c, 12, 11, 117
13, 77324, Note_on_c, 12, 69, 0
13, 77340, Control_c, 12, 11, 119
13, 77340, Note_on_c, 12, 73, 68
13, 77360, Control_c, 12, 11, 122
13, 77380, Control_c, 12, 11, 124
13, 77384, Note_on_c, 12, 73, 0
13, 77400, Control_c, 12, 11, 127
13, 77400, Note_on_c, 12, 74, 52
13, 77444, Note_on_c, 12, 74, 0
13, 77460, Note_on_c, 12, 64, 52
13, 77504, Note_on_c, 12, 64, 0
13, 77520, Note_on_c, 12, 71, 52
13, 77564, Note_on_c, 12, 71, 0
13, 77820, Note_on_c, 12, 64, 52
13, 77864, Note_on_c, 12, 64, 0
13, 77880, Note_on_c, 12, 73, 52
13, 77924, Note_on_c, 12, 73, 0
13, 78180, Note_on_c, 12, 64, 52
13, 78224, Note_on_c, 12, 64, 0
13, 78240, Note_on_c, 12, 74, 52
13, 78284, Note_on_c, 12, 74, 0
13, 78420, Note_on_c, 12, 59, 52
13, 78464, Note_on_c, 12, 59, 0
13, 78480, Note_on_c, 12, 57, 52
13, 78599, Note_on_c, 12, 57, 0
13, 78720, Control_c, 12, 11, 80
13, 78780, Note_on_c, 12, 69, 76
13, 78824, Note_on_c, 12, 69, 0
13, 78840, Note_on_c, 12, 71, 76
13, 78840, Control_c, 12, 11, 80
13, 78884, Note_on_c, 12, 71, 0
13, 78900, Note_on_c, 12, 69, 76
13, 78915, Control_c, 12, 11, 84
13, 78944, Note_on_c, 12, 69, 0
13, 78960, Note_on_c, 12, 71, 76
13, 78990, Control_c, 12, 11, 88
13, 79065, Control_c, 12, 11, 92
13, 79135, Note_on_c, 12, 71, 0
13, 79140, Note_on_c, 12, 71, 76
13, 79140, Control_c, 12, 11, 96
13, 79184, Note_on_c, 12, 71, 0
13, 79200, Note_on_c, 12, 73, 76
13, 79215, Control_c, 12, 11, 100
13, 79244, Note_on_c, 12, 73, 0
13, 79260, Note_on_c, 12, 72, 76
13, 79290, Control_c, 12, 11, 104
13, 79304, Note_on_c, 12, 72, 0
13, 79320, Note_on_c, 12, 73, 76
13, 79365, Control_c, 12, 11, 107
13, 79440, Control_c, 12, 11, 111
13, 79495, Note_on_c, 12, 73, 0
13, 79500, Note_on_c, 12, 73, 76
13, 79515, Control_c, 12, 11, 115
13, 79544, Note_on_c, 12, 73, 0
13, 79560, Note_on_c, 12, 74, 76
13, 79590, Control_c, 12, 11, 119
13, 79604, Note_on_c, 12, 74, 0
13, 79620, Note_on_c, 12, 73, 76
13, 79664, Note_on_c, 12, 73, 0
13, 79665, Control_c, 12, 11, 123
13, 79680, Control_c, 12, 11, 127
13, 79680, Note_on_c, 12, 74, 76
13, 79855, Note_on_c, 12, 74, 0
13, 79860, Note_on_c, 12, 74, 76
13, 79904, Note_on_c, 12, 74, 0
13, 79920, Note_on_c, 12, 74, 76
13, 80095, Note_on_c, 12, 74, 0
13, 80100, Note_on_c, 12, 71, 52
13, 80144, Note_on_c, 12, 71, 0
13, 80160, Note_on_c, 12, 71, 52
13, 80204, Note_on_c, 12, 71, 0
13, 80220, Note_on_c, 12, 69, 52
13, 80264, Note_on_c, 12, 69, 0
13, 80280, Note_on_c, 12, 66, 52
13, 80455, Note_on_c, 12, 66, 0
13, 80460, Note_on_c, 12, 71, 76
13, 80504, Note_on_c, 12, 71, 0
13, 80520, Note_on_c, 12, 73, 76
13, 80564, Note_on_c, 12, 73, 0
13, 80580, Note_on_c, 12, 74, 76
13, 80624, Note_on_c, 12, 74, 0
13, 80640, Note_on_c, 12, 69, 84
13, 80640, Control_c, 12, 11, 127
13, 80669, Note_on_c, 12, 69, 0
13, 80670, Note_on_c, 12, 76, 76
13, 80670, Control_c, 12, 11, 123
13, 80695, Note_on_c, 12, 76, 0
13, 80700, Control_c, 12, 11, 119
13, 80700, Note_on_c, 12, 74, 76
13, 80721, Note_on_c, 12, 74, 0
13, 80730, Control_c, 12, 11, 115
13, 80730, Note_on_c, 12, 73, 76
13, 80751, Note_on_c, 12, 73, 0
13, 80760, Control_c, 12, 11, 111
13, 80760, Note_on_c, 12, 71, 76
13, 80781, Note_on_c, 12, 71, 0
13, 80790, Control_c, 12, 11, 107
13, 80790, Note_on_c, 12, 69, 76
13, 80811, Note_on_c, 12, 69, 0
13, 80820, Control_c, 12, 11, 104
13, 80820, Note_on_c, 12, 68, 76
13, 80841, Note_on_c, 12, 68, 0
13, 80850, Control_c, 12, 11, 100
13, 80850, Note_on_c, 12, 66, 76
13, 80871, Note_on_c, 12, 66, 0
13, 80880, Note_on_c, 12, 64, 76
13, 80880, Control_c, 12, 11, 96
13, 80909, Note_on_c, 12, 64, 0
13, 80910, Control_c, 12, 11, 92
13, 80910, Note_on_c, 12, 66, 76
13, 80939, Note_on_c, 12, 66, 0
13, 80940, Control_c, 12, 11, 88
13, 80940, Note_on_c, 12, 62, 76
13, 80969, Note_on_c, 12, 62, 0
13, 80970, Control_c, 12, 11, 84
13, 80970, Note_on_c, 12, 64, 76
13, 80995, Note_on_c, 12, 64, 0
13, 81000, Control_c, 12, 11, 80
13, 81000, Note_on_c, 12, 61, 76
13, 81119, Note_on_c, 12, 61, 0
13, 81300, Note_on_c, 12, 69, 76
13, 81344, Note_on_c, 12, 69, 0
13, 81360, Note_on_c, 12, 71, 76
13, 81360, Control_c, 12, 11, 80
13, 81404, Note_on_c, 12, 71, 0
13, 81420, Note_on_c, 12, 69, 76
13, 81430, Control_c, 12, 11, 84
13, 81464, Note_on_c, 12, 69, 0
13, 81480, Note_on_c, 12, 71, 76
13, 81500, Control_c, 12, 11, 88
13, 81570, Control_c, 12, 11, 92
13, 81640, Control_c, 12, 11, 96
13, 81655, Note_on_c, 12, 71, 0
13, 81660, Note_on_c, 12, 71, 76
13, 81704, Note_on_c, 12, 71, 0
13, 81710, Control_c, 12, 11, 100
13, 81720, Note_on_c, 12, 73, 76
13, 81764, Note_on_c, 12, 73, 0
13, 81780, Note_on_c, 12, 72, 76
13, 81780, Control_c, 12, 11, 104
13, 81824, Note_on_c, 12, 72, 0
13, 81840, Note_on_c, 12, 73, 76
13, 81850, Control_c, 12, 11, 107
13, 81920, Control_c, 12, 11, 111
13, 81990, Control_c, 12, 11, 115
13, 82015, Note_on_c, 12, 73, 0
13, 82020, Note_on_c, 12, 73, 76
13, 82060, Control_c, 12, 11, 119
13, 82064, Note_on_c, 12, 73, 0
13, 82080, Note_on_c, 12, 74, 76
13, 82124, Note_on_c, 12, 74, 0
13, 82130, Control_c, 12, 11, 123
13, 82140, Note_on_c, 12, 73, 76
13, 82184, Note_on_c, 12, 73, 0
13, 82200, Control_c, 12, 11, 127
13, 82200, Note_on_c, 12, 74, 76
13, 82375, Note_on_c, 12, 74, 0
13, 82380, Note_on_c, 12, 74, 76
13, 82424, Note_on_c, 12, 74, 0
13, 82440, Note_on_c, 12, 74, 84
13, 82619, Note_on_c, 12, 74, 0
13, 82980, Note_on_c, 12, 69, 52
13, 83039, Note_on_c, 12, 69, 0
13, 83040, Note_on_c, 12, 68, 52
13, 83099, Note_on_c, 12, 68, 0
13, 83100, Note_on_c, 12, 65, 52
13, 83155, Note_on_c, 12, 65, 0
13, 83160, Note_on_c, 12, 66, 52
13, 83339, Note_on_c, 12, 66, 0
13, 83580, Note_on_c, 12, 67, 52
13, 83639, Note_on_c, 12, 67, 0
13, 83640, Note_on_c, 12, 66, 52
13, 83699, Note_on_c, 12, 66, 0
13, 83700, Note_on_c, 12, 64, 52
13, 83759, Note_on_c, 12, 64, 0
13, 83760, Note_on_c, 12, 62, 52
13, 83804, Note_on_c, 12, 62, 0
13, 83880, Control_c, 12, 11, 80
13, 84060, Note_on_c, 12, 67, 76
13, 84119, Note_on_c, 12, 67, 0
13, 84120, Note_on_c, 12, 66, 76
13, 84179, Note_on_c, 12, 66, 0
13, 84180, Note_on_c, 12, 64, 76
13, 84239, Note_on_c, 12, 64, 0
13, 84240, Note_on_c, 12, 62, 76
13, 84240, Control_c, 12, 11, 80
13, 84284, Note_on_c, 12, 62, 0
13, 84285, Control_c, 12, 11, 84
13, 84300, Note_on_c, 12, 67, 76
13, 84330, Control_c, 12, 11, 88
13, 84359, Note_on_c, 12, 67, 0
13, 84360, Note_on_c, 12, 66, 76
13, 84375, Control_c, 12, 11, 92
13, 84419, Note_on_c, 12, 66, 0
13, 84420, Note_on_c, 12, 64, 76
13, 84420, Control_c, 12, 11, 96
13, 84465, Control_c, 12, 11, 100
13, 84479, Note_on_c, 12, 64, 0
13, 84480, Note_on_c, 12, 62, 76
13, 84510, Control_c, 12, 11, 104
13, 84524, Note_on_c, 12, 62, 0
13, 84540, Note_on_c, 12, 67, 76
13, 84555, Control_c, 12, 11, 107
13, 84599, Note_on_c, 12, 67, 0
13, 84600, Control_c, 12, 11, 111
13, 84600, Note_on_c, 12, 66, 76
13, 84645, Control_c, 12, 11, 115
13, 84659, Note_on_c, 12, 66, 0
13, 84660, Note_on_c, 12, 64, 76
13, 84690, Control_c, 12, 11, 119
13, 84719, Note_on_c, 12, 64, 0
13, 84720, Note_on_c, 12, 62, 76
13, 84735, Control_c, 12, 11, 123
13, 84764, Note_on_c, 12, 62, 0
13, 84780, Control_c, 12, 11, 127
13, 84780, Note_on_c, 12, 67, 76
13, 84839, Note_on_c, 12, 67, 0
13, 84840, Note_on_c, 12, 66, 76
13, 84899, Note_on_c, 12, 66, 0
13, 84900, Note_on_c, 12, 64, 76
13, 84955, Note_on_c, 12, 64, 0
13, 84960, Note_on_c, 12, 62, 84
13, 85311, Note_on_c, 12, 62, 0
13, 85320, Note_on_c, 12, 74, 84
13, 85320, Note_on_c, 12, 66, 84
13, 85671, Note_on_c, 12, 74, 0
13, 85671, Note_on_c, 12, 66, 0
13, 85680, Note_on_c, 12, 74, 76
13, 85680, Note_on_c, 12, 64, 76
13, 85746, Note_on_c, 12, 74, 0
13, 85746, Note_on_c, 12, 64, 0
13, 85770, Note_on_c, 12, 74, 76
13, 85770, Note_on_c, 12, 64, 76
13, 85791, Note_on_c, 12, 74, 0
13, 85791, Note_on_c, 12, 64, 0
13, 85800, Note_on_c, 12, 64, 76
13, 85800, Note_on_c, 12, 74, 76
13, 85889, Note_on_c, 12, 64, 0
13, 85889, Note_on_c, 12, 74, 0
13, 86040, Note_on_c, 12, 73, 76
13, 86040, Note_on_c, 12, 64, 76
13, 86106, Note_on_c, 12, 73, 0
13, 86106, Note_on_c, 12, 64, 0
13, 86130, Note_on_c, 12, 73, 76
13, 86130, Note_on_c, 12, 64, 76
13, 86151, Note_on_c, 12, 73, 0
13, 86151, Note_on_c, 12, 64, 0
13, 86160, Note_on_c, 12, 64, 76
13, 86160, Note_on_c, 12, 73, 76
13, 86249, Note_on_c, 12, 64, 0
13, 86249, Note_on_c, 12, 73, 0
13, 86460, Note_on_c, 12, 62, 52
13, 86489, Note_on_c, 12, 62, 0
13, 86490, Note_on_c, 12, 66, 52
13, 86519, Note_on_c, 12, 66, 0
13, 86580, Note_on_c, 12, 61, 52
13, 86609, Note_on_c, 12, 61, 0
13, 86610, Note_on_c, 12, 64, 52
13, 86639, Note_on_c, 12, 64, 0
13, 86700, Note_on_c, 12, 62, 52
13, 86729, Note_on_c, 12, 62, 0
13, 86730, Note_on_c, 12, 64, 52
13, 86755, Note_on_c, 12, 64, 0
13, 86760, Note_on_c, 12, 61, 52
13, 86879, Note_on_c, 12, 61, 0
13, 87120, Note_on_c, 12, 64, 44
13, 87120, Note_on_c, 12, 62, 44
13, 87186, Note_on_c, 12, 64, 0
13, 87186, Note_on_c, 12, 62, 0
13, 87210, Note_on_c, 12, 62, 44
13, 87210, Note_on_c, 12, 64, 44
13, 87231, Note_on_c, 12, 62, 0
13, 87231, Note_on_c, 12, 64, 0
13, 87240, Note_on_c, 12, 64, 44
13, 87240, Note_on_c, 12, 62, 44
13, 87329, Note_on_c, 12, 64, 0
13, 87329, Note_on_c, 12, 62, 0
13, 87480, Note_on_c, 12, 61, 44
13, 87480, Note_on_c, 12, 64, 44
13, 87546, Note_on_c, 12, 61, 0
13, 87546, Note_on_c, 12, 64, 0
13, 87570, Note_on_c, 12, 64, 44
13, 87570, Note_on_c, 12, 61, 44
13, 87591, Note_on_c, 12, 64, 0
13, 87591, Note_on_c, 12, 61, 0
13, 87600, Note_on_c, 12, 61, 44
13, 87600, Note_on_c, 12, 64, 44
13, 87689, Note_on_c, 12, 61, 0
13, 87689, Note_on_c, 12, 64, 0
13, 87900, Note_on_c, 12, 71, 44
13, 87929, Note_on_c, 12, 71, 0
13, 87930, Note_on_c, 12, 74, 44
13, 87959, Note_on_c, 12, 74, 0
13, 88020, Note_on_c, 12, 69, 44
13, 88049, Note_on_c, 12, 69, 0
13, 88050, Note_on_c, 12, 73, 44
13, 88079, Note_on_c, 12, 73, 0
13, 88140, Note_on_c, 12, 68, 44
13, 88169, Note_on_c, 12, 68, 0
13, 88170, Note_on_c, 12, 71, 44
13, 88195, Note_on_c, 12, 71, 0
13, 88200, Note_on_c, 12, 69, 44
13, 88319, Note_on_c, 12, 69, 0
13, 88380, Note_on_c, 12, 69, 44
13, 88439, Note_on_c, 12, 69, 0
13, 88440, Note_on_c, 12, 71, 44
13, 88469, Note_on_c, 12, 71, 0
13, 88470, Note_on_c, 12, 69, 44
13, 88499, Note_on_c, 12, 69, 0
13, 88500, Note_on_c, 12, 68, 44
13, 88529, Note_on_c, 12, 68, 0
13, 88530, Note_on_c, 12, 69, 44
13, 88555, Note_on_c, 12, 69, 0
13, 88560, Note_on_c, 12, 64, 44
13, 88604, Note_on_c, 12, 64, 0
13, 88620, Note_on_c, 12, 61, 44
13, 88664, Note_on_c, 12, 61, 0
13, 88680, Note_on_c, 12, 57, 44
13, 88724, Note_on_c, 12, 57, 0
13, 88740, Note_on_c, 12, 69, 44
13, 88799, Note_on_c, 12, 69, 0
13, 88800, Note_on_c, 12, 71, 44
13, 88829, Note_on_c, 12, 71, 0
13, 88830, Note_on_c, 12, 69, 44
13, 88859, Note_on_c, 12, 69, 0
13, 88860, Note_on_c, 12, 68, 44
13, 88889, Note_on_c, 12, 68, 0
13, 88890, Note_on_c, 12, 69, 44
13, 88915, Note_on_c, 12, 69, 0
13, 88920, Note_on_c, 12, 66, 44
13, 88964, Note_on_c, 12, 66, 0
13, 88980, Note_on_c, 12, 62, 44
13, 89024, Note_on_c, 12, 62, 0
13, 89040, Note_on_c, 12, 59, 44
13, 89084, Note_on_c, 12, 59, 0
13, 89640, Note_on_c, 12, 64, 44
13, 89691, Note_on_c, 12, 64, 0
13, 89700, Note_on_c, 12, 69, 44
13, 89700, Note_on_c, 12, 61, 44
13, 89751, Note_on_c, 12, 69, 0
13, 89751, Note_on_c, 12, 61, 0
13, 89760, Note_on_c, 12, 69, 44
13, 89760, Note_on_c, 12, 61, 44
13, 89811, Note_on_c, 12, 69, 0
13, 89811, Note_on_c, 12, 61, 0
13, 89820, Note_on_c, 12, 61, 44
13, 89820, Note_on_c, 12, 69, 44
13, 89871, Note_on_c, 12, 61, 0
13, 89871, Note_on_c, 12, 69, 0
13, 89880, Note_on_c, 12, 69, 44
13, 89880, Note_on_c, 12, 61, 44
13, 89931, Note_on_c, 12, 69, 0
13, 89931, Note_on_c, 12, 61, 0
13, 89940, Note_on_c, 12, 69, 44
13, 89940, Note_on_c, 12, 61, 44
13, 89991, Note_on_c, 12, 69, 0
13, 89991, Note_on_c, 12, 61, 0
13, 90000, Note_on_c, 12, 61, 44
13, 90000, Note_on_c, 12, 69, 44
13, 90051, Note_on_c, 12, 61, 0
13, 90051, Note_on_c, 12, 69, 0
13, 90060, Note_on_c, 12, 61, 44
13, 90060, Note_on_c, 12, 69, 44
13, 90111, Note_on_c, 12, 61, 0
13, 90111, Note_on_c, 12, 69, 0
13, 90120, Note_on_c, 12, 61, 44
13, 90120, Note_on_c, 12, 69, 44
13, 90171, Note_on_c, 12, 61, 0
13, 90171, Note_on_c, 12, 69, 0
13, 90180, Note_on_c, 12, 69, 44
13, 90180, Note_on_c, 12, 61, 44
13, 90231, Note_on_c, 12, 69, 0
13, 90231, Note_on_c, 12, 61, 0
13, 90240, Note_on_c, 12, 61, 44
13, 90240, Note_on_c, 12, 69, 44
13, 90291, Note_on_c, 12, 61, 0
13, 90291, Note_on_c, 12, 69, 0
13, 90300, Note_on_c, 12, 69, 44
13, 90300, Note_on_c, 12, 61, 44
13, 90351, Note_on_c, 12, 69, 0
13, 90351, Note_on_c, 12, 61, 0
13, 90360, Note_on_c, 12, 69, 44
13, 90360, Note_on_c, 12, 59, 44
13, 90411, Note_on_c, 12, 69, 0
13, 90411, Note_on_c, 12, 59, 0
13, 90420, Note_on_c, 12, 59, 44
13, 90420, Note_on_c, 12, 69, 44
13, 90471, Note_on_c, 12, 59, 0
13, 90471, Note_on_c, 12, 69, 0
13, 90480, Note_on_c, 12, 69, 44
13, 90480, Note_on_c, 12, 59, 44
13, 90531, Note_on_c, 12, 69, 0
13, 90531, Note_on_c, 12, 59, 0
13, 90540, Note_on_c, 12, 59, 44
13, 90540, Note_on_c, 12, 69, 44
13, 90591, Note_on_c, 12, 59, 0
13, 90591, Note_on_c, 12, 69, 0
13, 90600, Note_on_c, 12, 69, 44
13, 90600, Note_on_c, 12, 59, 44
13, 90651, Note_on_c, 12, 69, 0
13, 90651, Note_on_c, 12, 59, 0
13, 90660, Note_on_c, 12, 69, 44
13, 90660, Note_on_c, 12, 59, 44
13, 90711, Note_on_c, 12, 69, 0
13, 90711, Note_on_c, 12, 59, 0
13, 90720, Note_on_c, 12, 68, 44
13, 90720, Note_on_c, 12, 59, 44
13, 90771, Note_on_c, 12, 68, 0
13, 90771, Note_on_c, 12, 59, 0
13, 90780, Note_on_c, 12, 68, 44
13, 90780, Note_on_c, 12, 59, 44
13, 90831, Note_on_c, 12, 68, 0
13, 90831, Note_on_c, 12, 59, 0
13, 90840, Note_on_c, 12, 68, 44
13, 90840, Note_on_c, 12, 59, 44
13, 90891, Note_on_c, 12, 68, 0
13, 90891, Note_on_c, 12, 59, 0
13, 90900, Note_on_c, 12, 68, 44
13, 90900, Note_on_c, 12, 59, 44
13, 90951, Note_on_c, 12, 68, 0
13, 90951, Note_on_c, 12, 59, 0
13, 90960, Note_on_c, 12, 68, 44
13, 90960, Note_on_c, 12, 59, 44
13, 91011, Note_on_c, 12, 68, 0
13, 91011, Note_on_c, 12, 59, 0
13, 91020, Note_on_c, 12, 59, 44
13, 91020, Note_on_c, 12, 68, 44
13, 91071, Note_on_c, 12, 59, 0
13, 91071, Note_on_c, 12, 68, 0
13, 91080, Note_on_c, 12, 61, 44
13, 91080, Note_on_c, 12, 69, 44
13, 91131, Note_on_c, 12, 61, 0
13, 91131, Note_on_c, 12, 69, 0
13, 91140, Note_on_c, 12, 69, 44
13, 91140, Note_on_c, 12, 61, 44
13, 91191, Note_on_c, 12, 69, 0
13, 91191, Note_on_c, 12, 61, 0
13, 91200, Note_on_c, 12, 69, 44
13, 91200, Note_on_c, 12, 61, 44
13, 91251, Note_on_c, 12, 69, 0
13, 91251, Note_on_c, 12, 61, 0
13, 91260, Note_on_c, 12, 61, 44
13, 91260, Note_on_c, 12, 69, 44
13, 91311, Note_on_c, 12, 61, 0
13, 91311, Note_on_c, 12, 69, 0
13, 91320, Note_on_c, 12, 69, 44
13, 91320, Note_on_c, 12, 61, 44
13, 91371, Note_on_c, 12, 69, 0
13, 91371, Note_on_c, 12, 61, 0
13, 91380, Note_on_c, 12, 69, 44
13, 91380, Note_on_c, 12, 61, 44
13, 91431, Note_on_c, 12, 69, 0
13, 91431, Note_on_c, 12, 61, 0
13, 91440, Note_on_c, 12, 68, 44
13, 91440, Note_on_c, 12, 59, 44
13, 91491, Note_on_c, 12, 68, 0
13, 91491, Note_on_c, 12, 59, 0
13, 91500, Note_on_c, 12, 68, 44
13, 91500, Note_on_c, 12, 59, 44
13, 91551, Note_on_c, 12, 68, 0
13, 91551, Note_on_c, 12, 59, 0
13, 91560, Note_on_c, 12, 59, 44
13, 91560, Note_on_c, 12, 68, 44
13, 91611, Note_on_c, 12, 59, 0
13, 91611, Note_on_c, 12, 68, 0
13, 91620, Note_on_c, 12, 68, 44
13, 91620, Note_on_c, 12, 59, 44
13, 91671, Note_on_c, 12, 68, 0
13, 91671, Note_on_c, 12, 59, 0
13, 91680, Note_on_c, 12, 59, 44
13, 91680, Note_on_c, 12, 68, 44
13, 91731, Note_on_c, 12, 59, 0
13, 91731, Note_on_c, 12, 68, 0
13, 91740, Note_on_c, 12, 68, 44
13, 91740, Note_on_c, 12, 59, 44
13, 91791, Note_on_c, 12, 68, 0
13, 91791, Note_on_c, 12, 59, 0
13, 91800, Note_on_c, 12, 69, 44
13, 91800, Note_on_c, 12, 61, 44
13, 91851, Note_on_c, 12, 69, 0
13, 91851, Note_on_c, 12, 61, 0
13, 91860, Note_on_c, 12, 61, 44
13, 91860, Note_on_c, 12, 69, 44
13, 91911, Note_on_c, 12, 61, 0
13, 91911, Note_on_c, 12, 69, 0
13, 91920, Note_on_c, 12, 61, 44
13, 91920, Note_on_c, 12, 69, 44
13, 91971, Note_on_c, 12, 61, 0
13, 91971, Note_on_c, 12, 69, 0
13, 91980, Note_on_c, 12, 69, 44
13, 91980, Note_on_c, 12, 61, 44
13, 92031, Note_on_c, 12, 69, 0
13, 92031, Note_on_c, 12, 61, 0
13, 92040, Note_on_c, 12, 61, 44
13, 92040, Note_on_c, 12, 69, 44
13, 92091, Note_on_c, 12, 61, 0
13, 92091, Note_on_c, 12, 69, 0
13, 92100, Note_on_c, 12, 69, 44
13, 92100, Note_on_c, 12, 61, 44
13, 92151, Note_on_c, 12, 69, 0
13, 92151, Note_on_c, 12, 61, 0
13, 92160, Note_on_c, 12, 68, 44
13, 92160, Note_on_c, 12, 59, 44
13, 92204, Note_on_c, 12, 68, 0
13, 92204, Note_on_c, 12, 59, 0
13, 92220, Note_on_c, 12, 59, 49
13, 92220, Note_on_c, 12, 68, 49
13, 92264, Note_on_c, 12, 59, 0
13, 92264, Note_on_c, 12, 68, 0
13, 92280, Note_on_c, 12, 68, 54
13, 92280, Note_on_c, 12, 59, 54
13, 92324, Note_on_c, 12, 68, 0
13, 92324, Note_on_c, 12, 59, 0
13, 92340, Note_on_c, 12, 68, 60
13, 92340, Note_on_c, 12, 59, 60
13, 92384, Note_on_c, 12, 68, 0
13, 92384, Note_on_c, 12, 59, 0
13, 92400, Note_on_c, 12, 64, 65
13, 92400, Note_on_c, 12, 71, 65
13, 92444, Note_on_c, 12, 64, 0
13, 92444, Note_on_c, 12, 71, 0
13, 92460, Note_on_c, 12, 64, 70
13, 92460, Note_on_c, 12, 71, 70
13, 92504, Note_on_c, 12, 64, 0
13, 92504, Note_on_c, 12, 71, 0
13, 92520, Note_on_c, 12, 64, 76
13, 92520, Note_on_c, 12, 73, 76
13, 92564, Note_on_c, 12, 64, 0
13, 92564, Note_on_c, 12, 73, 0
13, 92580, Note_on_c, 12, 64, 84
13, 92580, Note_on_c, 12, 74, 84
13, 92691, Note_on_c, 12, 64, 0
13, 92691, Note_on_c, 12, 74, 0
13, 92700, Note_on_c, 12, 71, 76
13, 92700, Note_on_c, 12, 64, 76
13, 92744, Note_on_c, 12, 71, 0
13, 92744, Note_on_c, 12, 64, 0
13, 92760, Note_on_c, 12, 71, 76
13, 92760, Note_on_c, 12, 64, 76
13, 92804, Note_on_c, 12, 71, 0
13, 92804, Note_on_c, 12, 64, 0
13, 92820, Note_on_c, 12, 71, 76
13, 92820, Note_on_c, 12, 64, 76
13, 92864, Note_on_c, 12, 71, 0
13, 92864, Note_on_c, 12, 64, 0
13, 92880, Note_on_c, 12, 64, 76
13, 92880, Note_on_c, 12, 73, 76
13, 92924, Note_on_c, 12, 64, 0
13, 92924, Note_on_c, 12, 73, 0
13, 92940, Note_on_c, 12, 74, 84
13, 92940, Note_on_c, 12, 64, 84
13, 93051, Note_on_c, 12, 74, 0
13, 93051, Note_on_c, 12, 64, 0
13, 93060, Note_on_c, 12, 64, 76
13, 93060, Note_on_c, 12, 71, 76
13, 93104, Note_on_c, 12, 64, 0
13, 93104, Note_on_c, 12, 71, 0
13, 93120, Note_on_c, 12, 71, 76
13, 93120, Note_on_c, 12, 64, 76
13, 93164, Note_on_c, 12, 71, 0
13, 93164, Note_on_c, 12, 64, 0
13, 93180, Note_on_c, 12, 71, 76
13, 93180, Note_on_c, 12, 64, 76
13, 93224, Note_on_c, 12, 71, 0
13, 93224, Note_on_c, 12, 64, 0
13, 93240, Note_on_c, 12, 74, 76
13, 93240, Note_on_c, 12, 64, 76
13, 93329, Note_on_c, 12, 74, 0
13, 93329, Note_on_c, 12, 64, 0
13, 93360, Note_on_c, 12, 59, 76
13, 93360, Note_on_c, 12, 62, 76
13, 93449, Note_on_c, 12, 59, 0
13, 93449, Note_on_c, 12, 62, 0
13, 93720, Note_on_c, 12, 62, 52
13, 93720, Note_on_c, 12, 59, 52
13, 93839, Note_on_c, 12, 62, 0
13, 93839, Note_on_c, 12, 59, 0
13, 94080, Note_on_c, 12, 62, 44
13, 94080, Note_on_c, 12, 59, 44
13, 94199, Note_on_c, 12, 62, 0
13, 94199, Note_on_c, 12, 59, 0
13, 94680, Note_on_c, 12, 61, 52
13, 94799, Note_on_c, 12, 61, 0
13, 94800, Note_on_c, 12, 57, 52
13, 94919, Note_on_c, 12, 57, 0
13, 94920, Note_on_c, 12, 59, 52
13, 95031, Note_on_c, 12, 59, 0
13, 95040, Note_on_c, 12, 61, 52
13, 95129, Note_on_c, 12, 61, 0
13, 95400, Note_on_c, 12, 61, 52
13, 95519, Note_on_c, 12, 61, 0
13, 95520, Note_on_c, 12, 62, 52
13, 95639, Note_on_c, 12, 62, 0
13, 95640, Note_on_c, 12, 61, 52
13, 95751, Note_on_c, 12, 61, 0
13, 95760, Note_on_c, 12, 59, 52
13, 95849, Note_on_c, 12, 59, 0
13, 96000, Control_c, 12, 11, 96
13, 96120, Note_on_c, 12, 57, 68
13, 96150, Control_c, 12, 11, 99
13, 96180, Control_c, 12, 11, 101
13, 96210, Control_c, 12, 11, 104
13, 96231, Note_on_c, 12, 57, 0
13, 96240, Note_on_c, 12, 57, 68
13, 96240, Control_c, 12, 11, 106
13, 96270, Control_c, 12, 11, 109
13, 96300, Control_c, 12, 11, 112
13, 96330, Control_c, 12, 11, 114
13, 96351, Note_on_c, 12, 57, 0
13, 96360, Control_c, 12, 11, 117
13, 96360, Note_on_c, 12, 57, 68
13, 96390, Control_c, 12, 11, 119
13, 96420, Control_c, 12, 11, 122
13, 96450, Control_c, 12, 11, 124
13, 96471, Note_on_c, 12, 57, 0
13, 96480, Control_c, 12, 11, 127
13, 96480, Note_on_c, 12, 57, 52
13, 96569, Note_on_c, 12, 57, 0
13, 96600, Note_on_c, 12, 74, 52
13, 96689, Note_on_c, 12, 74, 0
13, 96960, Note_on_c, 12, 68, 52
13, 97049, Note_on_c, 12, 68, 0
13, 97320, Note_on_c, 12, 69, 52
13, 97409, Note_on_c, 12, 69, 0
13, 97560, Note_on_c, 12, 81, 84
13, 97615, Note_on_c, 12, 81, 0
13, 97620, Note_on_c, 12, 81, 84
13, 97645, Note_on_c, 12, 81, 0
13, 97650, Note_on_c, 12, 81, 84
13, 97675, Note_on_c, 12, 81, 0
13, 97680, Note_on_c, 12, 80, 84
13, 97735, Note_on_c, 12, 80, 0
13, 97740, Note_on_c, 12, 80, 84
13, 97765, Note_on_c, 12, 80, 0
13, 97770, Note_on_c, 12, 80, 84
13, 97795, Note_on_c, 12, 80, 0
13, 97800, Note_on_c, 12, 79, 84
13, 97855, Note_on_c, 12, 79, 0
13, 97860, Note_on_c, 12, 79, 84
13, 97885, Note_on_c, 12, 79, 0
13, 97890, Note_on_c, 12, 79, 84
13, 97915, Note_on_c, 12, 79, 0
13, 97920, Note_on_c, 12, 78, 84
13, 98009, Note_on_c, 12, 78, 0
13, 98040, Note_on_c, 12, 69, 92
13, 98040, Note_on_c, 12, 78, 92
13, 98129, Note_on_c, 12, 69, 0
13, 98129, Note_on_c, 12, 78, 0
13, 98280, Note_on_c, 12, 64, 84
13, 98369, Note_on_c, 12, 64, 0
13, 98400, Note_on_c, 12, 64, 92
13, 98400, Note_on_c, 12, 74, 92
13, 98489, Note_on_c, 12, 64, 0
13, 98489, Note_on_c, 12, 74, 0
13, 98640, Note_on_c, 12, 73, 84
13, 98640, Note_on_c, 12, 57, 84
13, 98640, Note_on_c, 12, 64, 84
13, 98729, Note_on_c, 12, 73, 0
13, 98729, Note_on_c, 12, 57, 0
13, 98729, Note_on_c, 12, 64, 0
13, 98880, Note_on_c, 12, 61, 52
13, 98969, Note_on_c, 12, 61, 0
13, 99000, Note_on_c, 12, 57, 52
13, 99089, Note_on_c, 12, 57, 0
13, 99089, End_track
14, 0, Start_track
14, 0, Title_t, "Viola "
14, 0, MIDI_port, 0
14, 0, Program_c, 13, 48
14, 0, Control_c, 13, 11, 96
14, 0, Control_c, 13, 10, 70
14, 0, Control_c, 13, 7, 96
14, 0, Note_on_c, 13, 57, 68
14, 119, Note_on_c, 13, 57, 0
14, 120, Note_on_c, 13, 61, 68
14, 239, Note_on_c, 13, 61, 0
14, 240, Note_on_c, 13, 64, 68
14, 351, Note_on_c, 13, 64, 0
14, 360, Note_on_c, 13, 69, 68
14, 591, Note_on_c, 13, 69, 0
14, 600, Note_on_c, 13, 69, 68
14, 839, Note_on_c, 13, 69, 0
14, 840, Note_on_c, 13, 68, 68
14, 959, Note_on_c, 13, 68, 0
14, 960, Note_on_c, 13, 69, 68
14, 1071, Note_on_c, 13, 69, 0
14, 1080, Note_on_c, 13, 64, 68
14, 1199, Note_on_c, 13, 64, 0
14, 1200, Note_on_c, 13, 63, 68
14, 1319, Note_on_c, 13, 63, 0
14, 1320, Note_on_c, 13, 62, 68
14, 1431, Note_on_c, 13, 62, 0
14, 1440, Note_on_c, 13, 61, 68
14, 1440, Control_c, 13, 11, 96
14, 1500, Control_c, 13, 11, 99
14, 1559, Note_on_c, 13, 61, 0
14, 1560, Control_c, 13, 11, 101
14, 1560, Note_on_c, 13, 59, 68
14, 1620, Control_c, 13, 11, 104
14, 1679, Note_on_c, 13, 59, 0
14, 1680, Control_c, 13, 11, 106
14, 1680, Note_on_c, 13, 57, 68
14, 1740, Control_c, 13, 11, 109
14, 1791, Note_on_c, 13, 57, 0
14, 1800, Control_c, 13, 11, 112
14, 1800, Note_on_c, 13, 56, 68
14, 1860, Control_c, 13, 11, 114
14, 1920, Control_c, 13, 11, 117
14, 1980, Control_c, 13, 11, 119
14, 2039, Note_on_c, 13, 56, 0
14, 2040, Note_on_c, 13, 58, 68
14, 2040, Control_c, 13, 11, 122
14, 2100, Control_c, 13, 11, 124
14, 2151, Note_on_c, 13, 58, 0
14, 2160, Note_on_c, 13, 59, 68
14, 2160, Control_c, 13, 11, 96
14, 2399, Note_on_c, 13, 59, 0
14, 2400, Note_on_c, 13, 54, 68
14, 2489, Note_on_c, 13, 54, 0
14, 2490, Note_on_c, 13, 57, 68
14, 2515, Note_on_c, 13, 57, 0
14, 2520, Control_c, 13, 11, 96
14, 2520, Note_on_c, 13, 56, 68
14, 2550, Control_c, 13, 11, 99
14, 2580, Control_c, 13, 11, 101
14, 2610, Control_c, 13, 11, 104
14, 2639, Note_on_c, 13, 56, 0
14, 2640, Control_c, 13, 11, 106
14, 2670, Control_c, 13, 11, 109
14, 2700, Note_on_c, 13, 52, 68
14, 2700, Note_on_c, 13, 56, 68
14, 2700, Control_c, 13, 11, 112
14, 2730, Control_c, 13, 11, 114
14, 2759, Note_on_c, 13, 52, 0
14, 2759, Note_on_c, 13, 56, 0
14, 2760, Note_on_c, 13, 54, 68
14, 2760, Control_c, 13, 11, 117
14, 2760, Note_on_c, 13, 57, 68
14, 2790, Control_c, 13, 11, 119
14, 2819, Note_on_c, 13, 54, 0
14, 2819, Note_on_c, 13, 57, 0
14, 2820, Control_c, 13, 11, 122
14, 2820, Note_on_c, 13, 59, 68
14, 2820, Note_on_c, 13, 56, 68
14, 2850, Control_c, 13, 11, 124
14, 2875, Note_on_c, 13, 59, 0
14, 2875, Note_on_c, 13, 56, 0
14, 2880, Note_on_c, 13, 57, 68
14, 2880, Control_c, 13, 11, 96
14, 2880, Note_on_c, 13, 61, 68
14, 2999, Note_on_c, 13, 57, 0
14, 2999, Note_on_c, 13, 61, 0
14, 3240, Note_on_c, 13, 57, 68
14, 3359, Note_on_c, 13, 57, 0
14, 3360, Note_on_c, 13, 61, 68
14, 3479, Note_on_c, 13, 61, 0
14, 3480, Note_on_c, 13, 64, 68
14, 3591, Note_on_c, 13, 64, 0
14, 3600, Note_on_c, 13, 69, 68
14, 3719, Note_on_c, 13, 69, 0
14, 3720, Note_on_c, 13, 68, 68
14, 3839, Note_on_c, 13, 68, 0
14, 3840, Note_on_c, 13, 69, 68
14, 3951, Note_on_c, 13, 69, 0
14, 3960, Note_on_c, 13, 64, 68
14, 4079, Note_on_c, 13, 64, 0
14, 4080, Note_on_c, 13, 63, 68
14, 4199, Note_on_c, 13, 63, 0
14, 4200, Note_on_c, 13, 62, 68
14, 4311, Note_on_c, 13, 62, 0
14, 4320, Note_on_c, 13, 61, 68
14, 4320, Control_c, 13, 11, 96
14, 4380, Control_c, 13, 11, 99
14, 4439, Note_on_c, 13, 61, 0
14, 4440, Note_on_c, 13, 59, 68
14, 4440, Control_c, 13, 11, 101
14, 4500, Control_c, 13, 11, 104
14, 4559, Note_on_c, 13, 59, 0
14, 4560, Note_on_c, 13, 57, 68
14, 4560, Control_c, 13, 11, 106
14, 4620, Control_c, 13, 11, 109
14, 4671, Note_on_c, 13, 57, 0
14, 4680, Control_c, 13, 11, 112
14, 4680, Note_on_c, 13, 56, 68
14, 4740, Control_c, 13, 11, 114
14, 4800, Control_c, 13, 11, 117
14, 4860, Control_c, 13, 11, 119
14, 4919, Note_on_c, 13, 56, 0
14, 4920, Note_on_c, 13, 58, 68
14, 4920, Control_c, 13, 11, 122
14, 4980, Control_c, 13, 11, 124
14, 5031, Note_on_c, 13, 58, 0
14, 5040, Control_c, 13, 11, 96
14, 5040, Note_on_c, 13, 59, 68
14, 5129, Note_on_c, 13, 59, 0
14, 5160, Note_on_c, 13, 59, 68
14, 5249, Note_on_c, 13, 59, 0
14, 5280, Note_on_c, 13, 59, 68
14, 5369, Note_on_c, 13, 59, 0
14, 5400, Note_on_c, 13, 64, 68
14, 5519, Note_on_c, 13, 64, 0
14, 5760, Note_on_c, 13, 64, 68
14, 5991, Note_on_c, 13, 64, 0
14, 6000, Note_on_c, 13, 64, 68
14, 6111, Note_on_c, 13, 64, 0
14, 6120, Note_on_c, 13, 64, 68
14, 6359, Note_on_c, 13, 64, 0
14, 6480, Note_on_c, 13, 64, 68
14, 6711, Note_on_c, 13, 64, 0
14, 6720, Note_on_c, 13, 64, 68
14, 6831, Note_on_c, 13, 64, 0
14, 6840, Note_on_c, 13, 64, 68
14, 7071, Note_on_c, 13, 64, 0
14, 7080, Note_on_c, 13, 59, 68
14, 7191, Note_on_c, 13, 59, 0
14, 7200, Note_on_c, 13, 59, 68
14, 7200, Control_c, 13, 11, 96
14, 7230, Control_c, 13, 11, 99
14, 7260, Control_c, 13, 11, 101
14, 7290, Control_c, 13, 11, 104
14, 7320, Control_c, 13, 11, 106
14, 7350, Control_c, 13, 11, 109
14, 7380, Control_c, 13, 11, 112
14, 7410, Control_c, 13, 11, 114
14, 7439, Note_on_c, 13, 59, 0
14, 7440, Note_on_c, 13, 61, 68
14, 7440, Control_c, 13, 11, 117
14, 7470, Control_c, 13, 11, 119
14, 7499, Note_on_c, 13, 61, 0
14, 7500, Note_on_c, 13, 62, 68
14, 7500, Control_c, 13, 11, 122
14, 7530, Control_c, 13, 11, 124
14, 7555, Note_on_c, 13, 62, 0
14, 7560, Note_on_c, 13, 64, 76
14, 7560, Control_c, 13, 11, 127
14, 7590, Control_c, 13, 11, 124
14, 7620, Control_c, 13, 11, 122
14, 7650, Control_c, 13, 11, 119
14, 7680, Control_c, 13, 11, 117
14, 7710, Control_c, 13, 11, 114
14, 7740, Control_c, 13, 11, 112
14, 7770, Control_c, 13, 11, 109
14, 7791, Note_on_c, 13, 64, 0
14, 7800, Control_c, 13, 11, 106
14, 7800, Note_on_c, 13, 64, 68
14, 7830, Control_c, 13, 11, 104
14, 7860, Control_c, 13, 11, 101
14, 7890, Control_c, 13, 11, 99
14, 7911, Note_on_c, 13, 64, 0
14, 7920, Note_on_c, 13, 66, 68
14, 7920, Control_c, 13, 11, 96
14, 8159, Note_on_c, 13, 66, 0
14, 8160, Note_on_c, 13, 64, 68
14, 8271, Note_on_c, 13, 64, 0
14, 8280, Note_on_c, 13, 64, 68
14, 8519, Note_on_c, 13, 64, 0
14, 8640, Note_on_c, 13, 62, 68
14, 8759, Note_on_c, 13, 62, 0
14, 8760, Note_on_c, 13, 61, 68
14, 8879, Note_on_c, 13, 61, 0
14, 8880, Note_on_c, 13, 52, 68
14, 8991, Note_on_c, 13, 52, 0
14, 9000, Note_on_c, 13, 57, 68
14, 9089, Note_on_c, 13, 57, 0
14, 9120, Note_on_c, 13, 57, 68
14, 9209, Note_on_c, 13, 57, 0
14, 9360, Note_on_c, 13, 64, 68
14, 9479, Note_on_c, 13, 64, 0
14, 9480, Note_on_c, 13, 62, 68
14, 9599, Note_on_c, 13, 62, 0
14, 9600, Note_on_c, 13, 61, 68
14, 9711, Note_on_c, 13, 61, 0
14, 9720, Note_on_c, 13, 56, 68
14, 9959, Note_on_c, 13, 56, 0
14, 10440, Control_c, 13, 11, 127
14, 10440, Note_on_c, 13, 64, 76
14, 10470, Control_c, 13, 11, 124
14, 10500, Control_c, 13, 11, 122
14, 10530, Control_c, 13, 11, 119
14, 10559, Note_on_c, 13, 64, 0
14, 10560, Control_c, 13, 11, 117
14, 10560, Note_on_c, 13, 62, 68
14, 10590, Control_c, 13, 11, 114
14, 10620, Control_c, 13, 11, 112
14, 10650, Control_c, 13, 11, 109
14, 10679, Note_on_c, 13, 62, 0
14, 10680, Note_on_c, 13, 61, 68
14, 10680, Control_c, 13, 11, 106
14, 10710, Control_c, 13, 11, 104
14, 10740, Control_c, 13, 11, 101
14, 10770, Control_c, 13, 11, 99
14, 10791, Note_on_c, 13, 61, 0
14, 10800, Note_on_c, 13, 59, 52
14, 10800, Control_c, 13, 11, 127
14, 10844, Note_on_c, 13, 59, 0
14, 10860, Note_on_c, 13, 66, 52
14, 10904, Note_on_c, 13, 66, 0
14, 10980, Note_on_c, 13, 66, 52
14, 11039, Note_on_c, 13, 66, 0
14, 11100, Note_on_c, 13, 62, 52
14, 11155, Note_on_c, 13, 62, 0
14, 11160, Note_on_c, 13, 61, 52
14, 11211, Note_on_c, 13, 61, 0
14, 11220, Note_on_c, 13, 57, 52
14, 11220, Note_on_c, 13, 52, 52
14, 11271, Note_on_c, 13, 57, 0
14, 11271, Note_on_c, 13, 52, 0
14, 11280, Note_on_c, 13, 52, 52
14, 11280, Note_on_c, 13, 57, 52
14, 11331, Note_on_c, 13, 52, 0
14, 11331, Note_on_c, 13, 57, 0
14, 11340, Note_on_c, 13, 52, 52
14, 11340, Note_on_c, 13, 57, 52
14, 11391, Note_on_c, 13, 52, 0
14, 11391, Note_on_c, 13, 57, 0
14, 11400, Note_on_c, 13, 52, 52
14, 11400, Note_on_c, 13, 57, 52
14, 11451, Note_on_c, 13, 52, 0
14, 11451, Note_on_c, 13, 57, 0
14, 11460, Note_on_c, 13, 52, 52
14, 11460, Note_on_c, 13, 57, 52
14, 11511, Note_on_c, 13, 52, 0
14, 11511, Note_on_c, 13, 57, 0
14, 11520, Note_on_c, 13, 52, 52
14, 11520, Note_on_c, 13, 57, 52
14, 11571, Note_on_c, 13, 52, 0
14, 11571, Note_on_c, 13, 57, 0
14, 11580, Note_on_c, 13, 52, 52
14, 11580, Note_on_c, 13, 57, 52
14, 11631, Note_on_c, 13, 52, 0
14, 11631, Note_on_c, 13, 57, 0
14, 11640, Note_on_c, 13, 57, 52
14, 11640, Note_on_c, 13, 52, 52
14, 11691, Note_on_c, 13, 57, 0
14, 11691, Note_on_c, 13, 52, 0
14, 11700, Note_on_c, 13, 52, 52
14, 11700, Note_on_c, 13, 57, 52
14, 11751, Note_on_c, 13, 52, 0
14, 11751, Note_on_c, 13, 57, 0
14, 11760, Note_on_c, 13, 52, 52
14, 11760, Note_on_c, 13, 57, 52
14, 11811, Note_on_c, 13, 52, 0
14, 11811, Note_on_c, 13, 57, 0
14, 11820, Note_on_c, 13, 57, 52
14, 11820, Note_on_c, 13, 52, 52
14, 11871, Note_on_c, 13, 57, 0
14, 11871, Note_on_c, 13, 52, 0
14, 11880, Note_on_c, 13, 52, 52
14, 11880, Note_on_c, 13, 56, 52
14, 11931, Note_on_c, 13, 52, 0
14, 11931, Note_on_c, 13, 56, 0
14, 11940, Note_on_c, 13, 52, 52
14, 11940, Note_on_c, 13, 56, 52
14, 11991, Note_on_c, 13, 52, 0
14, 11991, Note_on_c, 13, 56, 0
14, 12000, Note_on_c, 13, 56, 52
14, 12000, Note_on_c, 13, 52, 52
14, 12051, Note_on_c, 13, 56, 0
14, 12051, Note_on_c, 13, 52, 0
14, 12060, Note_on_c, 13, 56, 52
14, 12060, Note_on_c, 13, 52, 52
14, 12111, Note_on_c, 13, 56, 0
14, 12111, Note_on_c, 13, 52, 0
14, 12120, Note_on_c, 13, 56, 52
14, 12120, Note_on_c, 13, 52, 52
14, 12171, Note_on_c, 13, 56, 0
14, 12171, Note_on_c, 13, 52, 0
14, 12180, Note_on_c, 13, 52, 52
14, 12180, Note_on_c, 13, 56, 52
14, 12231, Note_on_c, 13, 52, 0
14, 12231, Note_on_c, 13, 56, 0
14, 12240, Note_on_c, 13, 56, 52
14, 12240, Note_on_c, 13, 52, 52
14, 12291, Note_on_c, 13, 56, 0
14, 12291, Note_on_c, 13, 52, 0
14, 12300, Note_on_c, 13, 52, 52
14, 12300, Note_on_c, 13, 56, 52
14, 12351, Note_on_c, 13, 52, 0
14, 12351, Note_on_c, 13, 56, 0
14, 12360, Note_on_c, 13, 56, 52
14, 12360, Note_on_c, 13, 52, 52
14, 12411, Note_on_c, 13, 56, 0
14, 12411, Note_on_c, 13, 52, 0
14, 12420, Note_on_c, 13, 52, 52
14, 12420, Note_on_c, 13, 56, 52
14, 12471, Note_on_c, 13, 52, 0
14, 12471, Note_on_c, 13, 56, 0
14, 12480, Note_on_c, 13, 52, 52
14, 12480, Note_on_c, 13, 56, 52
14, 12531, Note_on_c, 13, 52, 0
14, 12531, Note_on_c, 13, 56, 0
14, 12540, Note_on_c, 13, 56, 52
14, 12540, Note_on_c, 13, 52, 52
14, 12591, Note_on_c, 13, 56, 0
14, 12591, Note_on_c, 13, 52, 0
14, 12600, Note_on_c, 13, 52, 52
14, 12600, Note_on_c, 13, 57, 52
14, 12651, Note_on_c, 13, 52, 0
14, 12651, Note_on_c, 13, 57, 0
14, 12660, Note_on_c, 13, 57, 52
14, 12660, Note_on_c, 13, 52, 52
14, 12711, Note_on_c, 13, 57, 0
14, 12711, Note_on_c, 13, 52, 0
14, 12720, Note_on_c, 13, 57, 52
14, 12720, Note_on_c, 13, 52, 52
14, 12771, Note_on_c, 13, 57, 0
14, 12771, Note_on_c, 13, 52, 0
14, 12780, Note_on_c, 13, 52, 52
14, 12780, Note_on_c, 13, 57, 52
14, 12831, Note_on_c, 13, 52, 0
14, 12831, Note_on_c, 13, 57, 0
14, 12840, Note_on_c, 13, 52, 52
14, 12840, Note_on_c, 13, 57, 52
14, 12891, Note_on_c, 13, 52, 0
14, 12891, Note_on_c, 13, 57, 0
14, 12900, Note_on_c, 13, 57, 52
14, 12900, Note_on_c, 13, 52, 52
14, 12951, Note_on_c, 13, 57, 0
14, 12951, Note_on_c, 13, 52, 0
14, 12960, Note_on_c, 13, 52, 52
14, 12960, Note_on_c, 13, 57, 52
14, 13011, Note_on_c, 13, 52, 0
14, 13011, Note_on_c, 13, 57, 0
14, 13020, Note_on_c, 13, 57, 52
14, 13020, Note_on_c, 13, 52, 52
14, 13071, Note_on_c, 13, 57, 0
14, 13071, Note_on_c, 13, 52, 0
14, 13080, Note_on_c, 13, 57, 52
14, 13080, Note_on_c, 13, 52, 52
14, 13131, Note_on_c, 13, 57, 0
14, 13131, Note_on_c, 13, 52, 0
14, 13140, Note_on_c, 13, 57, 52
14, 13140, Note_on_c, 13, 52, 52
14, 13191, Note_on_c, 13, 57, 0
14, 13191, Note_on_c, 13, 52, 0
14, 13200, Note_on_c, 13, 57, 52
14, 13200, Note_on_c, 13, 52, 52
14, 13251, Note_on_c, 13, 57, 0
14, 13251, Note_on_c, 13, 52, 0
14, 13260, Note_on_c, 13, 57, 52
14, 13260, Note_on_c, 13, 52, 52
14, 13311, Note_on_c, 13, 57, 0
14, 13311, Note_on_c, 13, 52, 0
14, 13320, Note_on_c, 13, 52, 52
14, 13320, Note_on_c, 13, 56, 52
14, 13371, Note_on_c, 13, 52, 0
14, 13371, Note_on_c, 13, 56, 0
14, 13380, Note_on_c, 13, 52, 52
14, 13380, Note_on_c, 13, 56, 52
14, 13431, Note_on_c, 13, 52, 0
14, 13431, Note_on_c, 13, 56, 0
14, 13440, Note_on_c, 13, 52, 52
14, 13440, Note_on_c, 13, 56, 52
14, 13491, Note_on_c, 13, 52, 0
14, 13491, Note_on_c, 13, 56, 0
14, 13500, Note_on_c, 13, 56, 52
14, 13500, Note_on_c, 13, 52, 52
14, 13551, Note_on_c, 13, 56, 0
14, 13551, Note_on_c, 13, 52, 0
14, 13560, Note_on_c, 13, 56, 52
14, 13560, Note_on_c, 13, 52, 52
14, 13611, Note_on_c, 13, 56, 0
14, 13611, Note_on_c, 13, 52, 0
14, 13620, Note_on_c, 13, 52, 52
14, 13620, Note_on_c, 13, 56, 52
14, 13671, Note_on_c, 13, 52, 0
14, 13671, Note_on_c, 13, 56, 0
14, 13680, Note_on_c, 13, 52, 52
14, 13680, Note_on_c, 13, 56, 52
14, 13731, Note_on_c, 13, 52, 0
14, 13731, Note_on_c, 13, 56, 0
14, 13740, Note_on_c, 13, 52, 52
14, 13740, Note_on_c, 13, 56, 52
14, 13791, Note_on_c, 13, 52, 0
14, 13791, Note_on_c, 13, 56, 0
14, 13800, Note_on_c, 13, 52, 52
14, 13800, Note_on_c, 13, 56, 52
14, 13851, Note_on_c, 13, 52, 0
14, 13851, Note_on_c, 13, 56, 0
14, 13860, Note_on_c, 13, 52, 52
14, 13860, Note_on_c, 13, 56, 52
14, 13911, Note_on_c, 13, 52, 0
14, 13911, Note_on_c, 13, 56, 0
14, 13920, Note_on_c, 13, 56, 52
14, 13920, Note_on_c, 13, 52, 52
14, 13971, Note_on_c, 13, 56, 0
14, 13971, Note_on_c, 13, 52, 0
14, 13980, Note_on_c, 13, 52, 52
14, 13980, Note_on_c, 13, 56, 52
14, 14031, Note_on_c, 13, 52, 0
14, 14031, Note_on_c, 13, 56, 0
14, 14040, Note_on_c, 13, 52, 52
14, 14040, Note_on_c, 13, 57, 52
14, 14091, Note_on_c, 13, 52, 0
14, 14091, Note_on_c, 13, 57, 0
14, 14100, Note_on_c, 13, 57, 52
14, 14151, Note_on_c, 13, 57, 0
14, 14160, Note_on_c, 13, 57, 52
14, 14211, Note_on_c, 13, 57, 0
14, 14220, Note_on_c, 13, 57, 52
14, 14271, Note_on_c, 13, 57, 0
14, 14280, Note_on_c, 13, 57, 52
14, 14331, Note_on_c, 13, 57, 0
14, 14340, Note_on_c, 13, 57, 84
14, 14391, Note_on_c, 13, 57, 0
14, 14400, Note_on_c, 13, 60, 92
14, 14571, Note_on_c, 13, 60, 0
14, 14580, Note_on_c, 13, 60, 84
14, 14624, Note_on_c, 13, 60, 0
14, 14640, Note_on_c, 13, 60, 84
14, 14684, Note_on_c, 13, 60, 0
14, 14700, Note_on_c, 13, 60, 84
14, 14744, Note_on_c, 13, 60, 0
14, 14760, Note_on_c, 13, 60, 84
14, 14849, Note_on_c, 13, 60, 0
14, 14880, Note_on_c, 13, 60, 84
14, 14969, Note_on_c, 13, 60, 0
14, 15840, Note_on_c, 13, 71, 44
14, 15929, Note_on_c, 13, 71, 0
14, 15960, Note_on_c, 13, 71, 44
14, 16049, Note_on_c, 13, 71, 0
14, 16200, Note_on_c, 13, 60, 84
14, 16289, Note_on_c, 13, 60, 0
14, 16320, Note_on_c, 13, 60, 84
14, 16409, Note_on_c, 13, 60, 0
14, 16440, Note_on_c, 13, 60, 84
14, 16529, Note_on_c, 13, 60, 0
14, 16560, Note_on_c, 13, 59, 76
14, 16611, Note_on_c, 13, 59, 0
14, 16620, Note_on_c, 13, 59, 52
14, 16671, Note_on_c, 13, 59, 0
14, 16680, Note_on_c, 13, 59, 52
14, 16731, Note_on_c, 13, 59, 0
14, 16740, Note_on_c, 13, 59, 52
14, 16791, Note_on_c, 13, 59, 0
14, 16800, Note_on_c, 13, 59, 52
14, 16851, Note_on_c, 13, 59, 0
14, 16860, Note_on_c, 13, 59, 52
14, 16911, Note_on_c, 13, 59, 0
14, 16920, Note_on_c, 13, 59, 52
14, 16971, Note_on_c, 13, 59, 0
14, 16980, Note_on_c, 13, 59, 52
14, 17031, Note_on_c, 13, 59, 0
14, 17040, Note_on_c, 13, 59, 52
14, 17091, Note_on_c, 13, 59, 0
14, 17100, Note_on_c, 13, 59, 52
14, 17151, Note_on_c, 13, 59, 0
14, 17160, Note_on_c, 13, 59, 52
14, 17211, Note_on_c, 13, 59, 0
14, 17220, Note_on_c, 13, 59, 52
14, 17271, Note_on_c, 13, 59, 0
14, 17280, Note_on_c, 13, 59, 52
14, 17331, Note_on_c, 13, 59, 0
14, 17340, Note_on_c, 13, 59, 52
14, 17391, Note_on_c, 13, 59, 0
14, 17400, Note_on_c, 13, 59, 52
14, 17451, Note_on_c, 13, 59, 0
14, 17460, Note_on_c, 13, 59, 52
14, 17511, Note_on_c, 13, 59, 0
14, 17520, Note_on_c, 13, 59, 52
14, 17571, Note_on_c, 13, 59, 0
14, 17580, Note_on_c, 13, 59, 52
14, 17631, Note_on_c, 13, 59, 0
14, 17640, Note_on_c, 13, 59, 52
14, 17691, Note_on_c, 13, 59, 0
14, 17700, Note_on_c, 13, 59, 52
14, 17751, Note_on_c, 13, 59, 0
14, 17760, Note_on_c, 13, 59, 52
14, 17811, Note_on_c, 13, 59, 0
14, 17820, Note_on_c, 13, 59, 52
14, 17871, Note_on_c, 13, 59, 0
14, 17880, Note_on_c, 13, 59, 52
14, 17931, Note_on_c, 13, 59, 0
14, 17940, Note_on_c, 13, 59, 52
14, 17991, Note_on_c, 13, 59, 0
14, 18000, Note_on_c, 13, 59, 52
14, 18051, Note_on_c, 13, 59, 0
14, 18060, Note_on_c, 13, 59, 56
14, 18111, Note_on_c, 13, 59, 0
14, 18120, Note_on_c, 13, 59, 60
14, 18171, Note_on_c, 13, 59, 0
14, 18180, Note_on_c, 13, 59, 64
14, 18231, Note_on_c, 13, 59, 0
14, 18240, Note_on_c, 13, 59, 68
14, 18291, Note_on_c, 13, 59, 0
14, 18300, Note_on_c, 13, 59, 72
14, 18351, Note_on_c, 13, 59, 0
14, 18360, Note_on_c, 13, 59, 52
14, 18411, Note_on_c, 13, 59, 0
14, 18420, Note_on_c, 13, 59, 52
14, 18471, Note_on_c, 13, 59, 0
14, 18480, Note_on_c, 13, 59, 52
14, 18531, Note_on_c, 13, 59, 0
14, 18540, Note_on_c, 13, 59, 52
14, 18591, Note_on_c, 13, 59, 0
14, 18600, Note_on_c, 13, 59, 52
14, 18651, Note_on_c, 13, 59, 0
14, 18660, Note_on_c, 13, 59, 52
14, 18711, Note_on_c, 13, 59, 0
14, 18720, Note_on_c, 13, 59, 52
14, 18771, Note_on_c, 13, 59, 0
14, 18780, Note_on_c, 13, 59, 52
14, 18831, Note_on_c, 13, 59, 0
14, 18840, Note_on_c, 13, 59, 52
14, 18891, Note_on_c, 13, 59, 0
14, 18900, Note_on_c, 13, 59, 52
14, 18951, Note_on_c, 13, 59, 0
14, 18960, Note_on_c, 13, 59, 52
14, 19011, Note_on_c, 13, 59, 0
14, 19020, Note_on_c, 13, 59, 52
14, 19071, Note_on_c, 13, 59, 0
14, 19080, Note_on_c, 13, 59, 52
14, 19131, Note_on_c, 13, 59, 0
14, 19140, Note_on_c, 13, 59, 52
14, 19191, Note_on_c, 13, 59, 0
14, 19200, Note_on_c, 13, 59, 52
14, 19251, Note_on_c, 13, 59, 0
14, 19260, Note_on_c, 13, 59, 52
14, 19311, Note_on_c, 13, 59, 0
14, 19320, Note_on_c, 13, 59, 52
14, 19371, Note_on_c, 13, 59, 0
14, 19380, Note_on_c, 13, 59, 52
14, 19431, Note_on_c, 13, 59, 0
14, 19440, Note_on_c, 13, 59, 52
14, 19559, Note_on_c, 13, 59, 0
14, 19680, Control_c, 13, 11, 80
14, 19740, Note_on_c, 13, 59, 76
14, 19760, Control_c, 13, 11, 84
14, 19784, Note_on_c, 13, 59, 0
14, 19800, Note_on_c, 13, 61, 76
14, 19840, Control_c, 13, 11, 88
14, 19844, Note_on_c, 13, 61, 0
14, 19860, Note_on_c, 13, 59, 76
14, 19904, Note_on_c, 13, 59, 0
14, 19920, Control_c, 13, 11, 92
14, 19920, Note_on_c, 13, 61, 76
14, 20000, Control_c, 13, 11, 96
14, 20080, Control_c, 13, 11, 100
14, 20095, Note_on_c, 13, 61, 0
14, 20100, Note_on_c, 13, 61, 76
14, 20144, Note_on_c, 13, 61, 0
14, 20160, Note_on_c, 13, 62, 76
14, 20160, Control_c, 13, 11, 104
14, 20204, Note_on_c, 13, 62, 0
14, 20220, Note_on_c, 13, 61, 76
14, 20240, Control_c, 13, 11, 107
14, 20264, Note_on_c, 13, 61, 0
14, 20280, Note_on_c, 13, 62, 76
14, 20320, Control_c, 13, 11, 111
14, 20400, Control_c, 13, 11, 115
14, 20455, Note_on_c, 13, 62, 0
14, 20460, Note_on_c, 13, 62, 76
14, 20480, Control_c, 13, 11, 119
14, 20504, Note_on_c, 13, 62, 0
14, 20520, Note_on_c, 13, 64, 76
14, 20560, Control_c, 13, 11, 123
14, 20564, Note_on_c, 13, 64, 0
14, 20580, Note_on_c, 13, 63, 76
14, 20624, Note_on_c, 13, 63, 0
14, 20640, Note_on_c, 13, 64, 76
14, 20640, Control_c, 13, 11, 127
14, 20815, Note_on_c, 13, 64, 0
14, 20820, Note_on_c, 13, 64, 76
14, 20864, Note_on_c, 13, 64, 0
14, 20880, Note_on_c, 13, 66, 76
14, 21055, Note_on_c, 13, 66, 0
14, 21060, Control_c, 13, 11, 80
14, 21060, Note_on_c, 13, 59, 76
14, 21104, Note_on_c, 13, 59, 0
14, 21120, Note_on_c, 13, 59, 76
14, 21164, Note_on_c, 13, 59, 0
14, 21180, Note_on_c, 13, 59, 76
14, 21224, Note_on_c, 13, 59, 0
14, 21240, Note_on_c, 13, 57, 76
14, 21415, Note_on_c, 13, 57, 0
14, 21420, Note_on_c, 13, 61, 76
14, 21420, Control_c, 13, 11, 127
14, 21464, Note_on_c, 13, 61, 0
14, 21480, Note_on_c, 13, 59, 76
14, 21524, Note_on_c, 13, 59, 0
14, 21540, Note_on_c, 13, 57, 76
14, 21584, Note_on_c, 13, 57, 0
14, 21600, Note_on_c, 13, 59, 84
14, 21600, Control_c, 13, 11, 127
14, 21630, Control_c, 13, 11, 123
14, 21660, Control_c, 13, 11, 119
14, 21690, Control_c, 13, 11, 115
14, 21711, Note_on_c, 13, 59, 0
14, 21720, Control_c, 13, 11, 111
14, 21720, Note_on_c, 13, 59, 76
14, 21750, Control_c, 13, 11, 107
14, 21780, Control_c, 13, 11, 104
14, 21810, Control_c, 13, 11, 100
14, 21831, Note_on_c, 13, 59, 0
14, 21840, Note_on_c, 13, 59, 76
14, 21840, Control_c, 13, 11, 96
14, 21870, Control_c, 13, 11, 92
14, 21900, Control_c, 13, 11, 88
14, 21930, Control_c, 13, 11, 84
14, 21951, Note_on_c, 13, 59, 0
14, 21960, Control_c, 13, 11, 80
14, 21960, Note_on_c, 13, 64, 76
14, 22079, Note_on_c, 13, 64, 0
14, 22260, Note_on_c, 13, 59, 76
14, 22304, Note_on_c, 13, 59, 0
14, 22320, Control_c, 13, 11, 80
14, 22320, Note_on_c, 13, 61, 76
14, 22364, Note_on_c, 13, 61, 0
14, 22380, Note_on_c, 13, 59, 76
14, 22390, Control_c, 13, 11, 84
14, 22424, Note_on_c, 13, 59, 0
14, 22440, Note_on_c, 13, 61, 76
14, 22460, Control_c, 13, 11, 88
14, 22530, Control_c, 13, 11, 92
14, 22600, Control_c, 13, 11, 96
14, 22615, Note_on_c, 13, 61, 0
14, 22620, Note_on_c, 13, 61, 76
14, 22664, Note_on_c, 13, 61, 0
14, 22670, Control_c, 13, 11, 100
14, 22680, Note_on_c, 13, 62, 76
14, 22724, Note_on_c, 13, 62, 0
14, 22740, Note_on_c, 13, 61, 76
14, 22740, Control_c, 13, 11, 104
14, 22784, Note_on_c, 13, 61, 0
14, 22800, Note_on_c, 13, 62, 76
14, 22810, Control_c, 13, 11, 107
14, 22880, Control_c, 13, 11, 111
14, 22950, Control_c, 13, 11, 115
14, 22975, Note_on_c, 13, 62, 0
14, 22980, Note_on_c, 13, 62, 76
14, 23020, Control_c, 13, 11, 119
14, 23024, Note_on_c, 13, 62, 0
14, 23040, Note_on_c, 13, 64, 76
14, 23084, Note_on_c, 13, 64, 0
14, 23090, Control_c, 13, 11, 123
14, 23100, Note_on_c, 13, 63, 76
14, 23144, Note_on_c, 13, 63, 0
14, 23160, Control_c, 13, 11, 127
14, 23160, Note_on_c, 13, 64, 76
14, 23335, Note_on_c, 13, 64, 0
14, 23340, Note_on_c, 13, 64, 76
14, 23384, Note_on_c, 13, 64, 0
14, 23400, Note_on_c, 13, 66, 84
14, 23579, Note_on_c, 13, 66, 0
14, 23940, Note_on_c, 13, 64, 52
14, 23999, Note_on_c, 13, 64, 0
14, 24000, Note_on_c, 13, 63, 52
14, 24059, Note_on_c, 13, 63, 0
14, 24060, Note_on_c, 13, 60, 52
14, 24115, Note_on_c, 13, 60, 0
14, 24120, Note_on_c, 13, 61, 52
14, 24299, Note_on_c, 13, 61, 0
14, 24540, Note_on_c, 13, 52, 52
14, 24591, Note_on_c, 13, 52, 0
14, 24600, Note_on_c, 13, 52, 52
14, 24651, Note_on_c, 13, 52, 0
14, 24660, Note_on_c, 13, 52, 52
14, 24711, Note_on_c, 13, 52, 0
14, 24720, Note_on_c, 13, 52, 52
14, 24771, Note_on_c, 13, 52, 0
14, 25020, Note_on_c, 13, 52, 52
14, 25071, Note_on_c, 13, 52, 0
14, 25080, Note_on_c, 13, 52, 52
14, 25131, Note_on_c, 13, 52, 0
14, 25140, Note_on_c, 13, 52, 52
14, 25191, Note_on_c, 13, 52, 0
14, 25200, Note_on_c, 13, 52, 52
14, 25251, Note_on_c, 13, 52, 0
14, 25260, Note_on_c, 13, 52, 54
14, 25311, Note_on_c, 13, 52, 0
14, 25320, Note_on_c, 13, 52, 56
14, 25371, Note_on_c, 13, 52, 0
14, 25380, Note_on_c, 13, 52, 59
14, 25431, Note_on_c, 13, 52, 0
14, 25440, Note_on_c, 13, 52, 61
14, 25491, Note_on_c, 13, 52, 0
14, 25500, Note_on_c, 13, 52, 64
14, 25551, Note_on_c, 13, 52, 0
14, 25560, Note_on_c, 13, 52, 66
14, 25611, Note_on_c, 13, 52, 0
14, 25620, Note_on_c, 13, 52, 68
14, 25671, Note_on_c, 13, 52, 0
14, 25680, Note_on_c, 13, 52, 71
14, 25731, Note_on_c, 13, 52, 0
14, 25740, Note_on_c, 13, 52, 73
14, 25791, Note_on_c, 13, 52, 0
14, 25800, Note_on_c, 13, 52, 76
14, 25851, Note_on_c, 13, 52, 0
14, 25860, Note_on_c, 13, 52, 76
14, 25911, Note_on_c, 13, 52, 0
14, 25920, Note_on_c, 13, 57, 84
14, 26271, Note_on_c, 13, 57, 0
14, 26280, Note_on_c, 13, 66, 84
14, 26631, Note_on_c, 13, 66, 0
14, 26640, Note_on_c, 13, 63, 76
14, 26706, Note_on_c, 13, 63, 0
14, 26730, Note_on_c, 13, 63, 76
14, 26751, Note_on_c, 13, 63, 0
14, 26760, Note_on_c, 13, 63, 76
14, 26849, Note_on_c, 13, 63, 0
14, 27000, Note_on_c, 13, 64, 76
14, 27066, Note_on_c, 13, 64, 0
14, 27090, Note_on_c, 13, 64, 76
14, 27111, Note_on_c, 13, 64, 0
14, 27120, Note_on_c, 13, 64, 76
14, 27209, Note_on_c, 13, 64, 0
14, 27420, Note_on_c, 13, 66, 52
14, 27449, Note_on_c, 13, 66, 0
14, 27450, Note_on_c, 13, 69, 52
14, 27479, Note_on_c, 13, 69, 0
14, 27540, Note_on_c, 13, 64, 52
14, 27569, Note_on_c, 13, 64, 0
14, 27570, Note_on_c, 13, 68, 52
14, 27599, Note_on_c, 13, 68, 0
14, 27660, Note_on_c, 13, 66, 52
14, 27689, Note_on_c, 13, 66, 0
14, 27690, Note_on_c, 13, 69, 52
14, 27715, Note_on_c, 13, 69, 0
14, 27720, Note_on_c, 13, 64, 52
14, 27959, Note_on_c, 13, 64, 0
14, 28080, Note_on_c, 13, 66, 44
14, 28146, Note_on_c, 13, 66, 0
14, 28170, Note_on_c, 13, 66, 44
14, 28191, Note_on_c, 13, 66, 0
14, 28200, Note_on_c, 13, 66, 44
14, 28289, Note_on_c, 13, 66, 0
14, 28440, Note_on_c, 13, 64, 44
14, 28506, Note_on_c, 13, 64, 0
14, 28530, Note_on_c, 13, 64, 44
14, 28551, Note_on_c, 13, 64, 0
14, 28560, Note_on_c, 13, 64, 44
14, 28649, Note_on_c, 13, 64, 0
14, 28860, Note_on_c, 13, 57, 44
14, 28889, Note_on_c, 13, 57, 0
14, 28890, Note_on_c, 13, 61, 44
14, 28919, Note_on_c, 13, 61, 0
14, 28980, Note_on_c, 13, 56, 44
14, 29009, Note_on_c, 13, 56, 0
14, 29010, Note_on_c, 13, 59, 44
14, 29039, Note_on_c, 13, 59, 0
14, 29100, Note_on_c, 13, 57, 44
14, 29129, Note_on_c, 13, 57, 0
14, 29130, Note_on_c, 13, 59, 44
14, 29155, Note_on_c, 13, 59, 0
14, 29160, Note_on_c, 13, 56, 52
14, 29215, Note_on_c, 13, 56, 0
14, 29220, Note_on_c, 13, 64, 52
14, 29271, Note_on_c, 13, 64, 0
14, 29280, Note_on_c, 13, 64, 52
14, 29331, Note_on_c, 13, 64, 0
14, 29340, Note_on_c, 13, 64, 52
14, 29391, Note_on_c, 13, 64, 0
14, 29400, Note_on_c, 13, 64, 52
14, 29451, Note_on_c, 13, 64, 0
14, 29460, Note_on_c, 13, 64, 52
14, 29511, Note_on_c, 13, 64, 0
14, 29520, Note_on_c, 13, 64, 52
14, 29571, Note_on_c, 13, 64, 0
14, 29580, Note_on_c, 13, 64, 52
14, 29631, Note_on_c, 13, 64, 0
14, 29640, Note_on_c, 13, 64, 52
14, 29691, Note_on_c, 13, 64, 0
14, 29700, Note_on_c, 13, 64, 52
14, 29751, Note_on_c, 13, 64, 0
14, 29760, Note_on_c, 13, 64, 52
14, 29811, Note_on_c, 13, 64, 0
14, 29820, Note_on_c, 13, 64, 52
14, 29871, Note_on_c, 13, 64, 0
14, 29880, Note_on_c, 13, 64, 52
14, 29931, Note_on_c, 13, 64, 0
14, 29940, Note_on_c, 13, 64, 52
14, 29991, Note_on_c, 13, 64, 0
14, 30000, Note_on_c, 13, 64, 52
14, 30051, Note_on_c, 13, 64, 0
14, 30060, Note_on_c, 13, 64, 52
14, 30111, Note_on_c, 13, 64, 0
14, 30120, Note_on_c, 13, 64, 52
14, 30171, Note_on_c, 13, 64, 0
14, 30180, Note_on_c, 13, 64, 52
14, 30231, Note_on_c, 13, 64, 0
14, 30240, Note_on_c, 13, 63, 52
14, 30291, Note_on_c, 13, 63, 0
14, 30300, Note_on_c, 13, 63, 52
14, 30351, Note_on_c, 13, 63, 0
14, 30360, Note_on_c, 13, 66, 52
14, 30411, Note_on_c, 13, 66, 0
14, 30420, Note_on_c, 13, 66, 52
14, 30471, Note_on_c, 13, 66, 0
14, 30480, Note_on_c, 13, 66, 52
14, 30531, Note_on_c, 13, 66, 0
14, 30540, Note_on_c, 13, 66, 52
14, 30591, Note_on_c, 13, 66, 0
14, 30600, Note_on_c, 13, 64, 52
14, 30644, Note_on_c, 13, 64, 0
14, 30660, Note_on_c, 13, 64, 52
14, 30704, Note_on_c, 13, 64, 0
14, 30720, Note_on_c, 13, 64, 52
14, 30764, Note_on_c, 13, 64, 0
14, 30780, Note_on_c, 13, 76, 52
14, 30824, Note_on_c, 13, 76, 0
14, 30840, Note_on_c, 13, 71, 52
14, 30884, Note_on_c, 13, 71, 0
14, 30900, Note_on_c, 13, 68, 52
14, 30944, Note_on_c, 13, 68, 0
14, 30960, Note_on_c, 13, 64, 52
14, 31011, Note_on_c, 13, 64, 0
14, 31020, Note_on_c, 13, 64, 52
14, 31071, Note_on_c, 13, 64, 0
14, 31080, Note_on_c, 13, 64, 52
14, 31131, Note_on_c, 13, 64, 0
14, 31140, Note_on_c, 13, 64, 52
14, 31191, Note_on_c, 13, 64, 0
14, 31200, Note_on_c, 13, 64, 52
14, 31251, Note_on_c, 13, 64, 0
14, 31260, Note_on_c, 13, 64, 52
14, 31311, Note_on_c, 13, 64, 0
14, 31320, Note_on_c, 13, 64, 52
14, 31371, Note_on_c, 13, 64, 0
14, 31380, Note_on_c, 13, 64, 52
14, 31431, Note_on_c, 13, 64, 0
14, 31440, Note_on_c, 13, 64, 52
14, 31491, Note_on_c, 13, 64, 0
14, 31500, Note_on_c, 13, 64, 52
14, 31551, Note_on_c, 13, 64, 0
14, 31560, Note_on_c, 13, 64, 52
14, 31611, Note_on_c, 13, 64, 0
14, 31620, Note_on_c, 13, 64, 52
14, 31671, Note_on_c, 13, 64, 0
14, 31680, Note_on_c, 13, 63, 52
14, 31731, Note_on_c, 13, 63, 0
14, 31740, Note_on_c, 13, 63, 52
14, 31791, Note_on_c, 13, 63, 0
14, 31800, Note_on_c, 13, 63, 52
14, 31851, Note_on_c, 13, 63, 0
14, 31860, Note_on_c, 13, 63, 52
14, 31911, Note_on_c, 13, 63, 0
14, 31920, Note_on_c, 13, 63, 52
14, 31971, Note_on_c, 13, 63, 0
14, 31980, Note_on_c, 13, 63, 52
14, 32031, Note_on_c, 13, 63, 0
14, 32040, Note_on_c, 13, 64, 52
14, 32091, Note_on_c, 13, 64, 0
14, 32100, Note_on_c, 13, 64, 52
14, 32151, Note_on_c, 13, 64, 0
14, 32160, Note_on_c, 13, 64, 52
14, 32211, Note_on_c, 13, 64, 0
14, 32220, Note_on_c, 13, 64, 52
14, 32271, Note_on_c, 13, 64, 0
14, 32280, Note_on_c, 13, 64, 52
14, 32331, Note_on_c, 13, 64, 0
14, 32340, Note_on_c, 13, 64, 52
14, 32391, Note_on_c, 13, 64, 0
14, 32400, Note_on_c, 13, 66, 52
14, 32451, Note_on_c, 13, 66, 0
14, 32460, Note_on_c, 13, 66, 52
14, 32511, Note_on_c, 13, 66, 0
14, 32520, Note_on_c, 13, 63, 52
14, 32571, Note_on_c, 13, 63, 0
14, 32580, Note_on_c, 13, 63, 52
14, 32631, Note_on_c, 13, 63, 0
14, 32640, Note_on_c, 13, 63, 52
14, 32691, Note_on_c, 13, 63, 0
14, 32700, Note_on_c, 13, 63, 52
14, 32751, Note_on_c, 13, 63, 0
14, 32760, Note_on_c, 13, 64, 52
14, 32811, Note_on_c, 13, 64, 0
14, 32820, Note_on_c, 13, 64, 52
14, 32871, Note_on_c, 13, 64, 0
14, 32880, Note_on_c, 13, 64, 52
14, 32931, Note_on_c, 13, 64, 0
14, 32940, Note_on_c, 13, 64, 52
14, 32991, Note_on_c, 13, 64, 0
14, 33000, Note_on_c, 13, 64, 52
14, 33051, Note_on_c, 13, 64, 0
14, 33060, Note_on_c, 13, 64, 52
14, 33111, Note_on_c, 13, 64, 0
14, 33120, Note_on_c, 13, 66, 52
14, 33171, Note_on_c, 13, 66, 0
14, 33180, Note_on_c, 13, 66, 56
14, 33231, Note_on_c, 13, 66, 0
14, 33240, Note_on_c, 13, 63, 60
14, 33291, Note_on_c, 13, 63, 0
14, 33300, Note_on_c, 13, 63, 64
14, 33351, Note_on_c, 13, 63, 0
14, 33360, Note_on_c, 13, 63, 68
14, 33411, Note_on_c, 13, 63, 0
14, 33420, Note_on_c, 13, 63, 72
14, 33471, Note_on_c, 13, 63, 0
14, 33480, Note_on_c, 13, 64, 76
14, 33524, Note_on_c, 13, 64, 0
14, 33540, Note_on_c, 13, 66, 84
14, 33651, Note_on_c, 13, 66, 0
14, 33660, Note_on_c, 13, 63, 76
14, 33704, Note_on_c, 13, 63, 0
14, 33720, Note_on_c, 13, 63, 76
14, 33764, Note_on_c, 13, 63, 0
14, 33780, Note_on_c, 13, 63, 76
14, 33824, Note_on_c, 13, 63, 0
14, 33840, Note_on_c, 13, 64, 76
14, 33884, Note_on_c, 13, 64, 0
14, 33900, Note_on_c, 13, 66, 84
14, 34011, Note_on_c, 13, 66, 0
14, 34020, Note_on_c, 13, 63, 76
14, 34064, Note_on_c, 13, 63, 0
14, 34080, Note_on_c, 13, 63, 76
14, 34124, Note_on_c, 13, 63, 0
14, 34140, Note_on_c, 13, 63, 76
14, 34184, Note_on_c, 13, 63, 0
14, 34200, Note_on_c, 13, 64, 76
14, 34289, Note_on_c, 13, 64, 0
14, 34320, Note_on_c, 13, 64, 52
14, 34409, Note_on_c, 13, 64, 0
14, 34560, Control_c, 13, 11, 127
14, 34590, Control_c, 13, 11, 126
14, 34620, Control_c, 13, 11, 125
14, 34650, Control_c, 13, 11, 123
14, 34680, Control_c, 13, 11, 122
14, 34680, Note_on_c, 13, 59, 52
14, 34710, Control_c, 13, 11, 121
14, 34740, Control_c, 13, 11, 120
14, 34770, Control_c, 13, 11, 118
14, 34799, Note_on_c, 13, 59, 0
14, 34800, Control_c, 13, 11, 117
14, 34830, Control_c, 13, 11, 116
14, 34860, Control_c, 13, 11, 115
14, 34890, Control_c, 13, 11, 113
14, 34920, Control_c, 13, 11, 112
14, 35040, Note_on_c, 13, 56, 52
14, 35159, Note_on_c, 13, 56, 0
14, 35520, Control_c, 13, 11, 80
14, 35640, Control_c, 13, 11, 80
14, 35640, Note_on_c, 13, 57, 68
14, 35670, Control_c, 13, 11, 84
14, 35700, Control_c, 13, 11, 88
14, 35730, Control_c, 13, 11, 92
14, 35759, Note_on_c, 13, 57, 0
14, 35760, Control_c, 13, 11, 96
14, 35760, Note_on_c, 13, 60, 68
14, 35790, Control_c, 13, 11, 100
14, 35820, Control_c, 13, 11, 104
14, 35850, Control_c, 13, 11, 107
14, 35879, Note_on_c, 13, 60, 0
14, 35880, Note_on_c, 13, 64, 68
14, 35880, Control_c, 13, 11, 111
14, 35910, Control_c, 13, 11, 115
14, 35940, Control_c, 13, 11, 119
14, 35970, Control_c, 13, 11, 123
14, 35991, Note_on_c, 13, 64, 0
14, 36000, Note_on_c, 13, 69, 52
14, 36000, Control_c, 13, 11, 127
14, 36119, Note_on_c, 13, 69, 0
14, 36360, Note_on_c, 13, 52, 52
14, 36415, Note_on_c, 13, 52, 0
14, 36420, Note_on_c, 13, 64, 52
14, 36531, Note_on_c, 13, 64, 0
14, 36540, Note_on_c, 13, 64, 52
14, 36584, Note_on_c, 13, 64, 0
14, 36600, Note_on_c, 13, 64, 52
14, 36644, Note_on_c, 13, 64, 0
14, 36660, Note_on_c, 13, 64, 52
14, 36704, Note_on_c, 13, 64, 0
14, 36720, Note_on_c, 13, 64, 52
14, 36839, Note_on_c, 13, 64, 0
14, 36960, Control_c, 13, 11, 96
14, 37080, Note_on_c, 13, 52, 68
14, 37080, Control_c, 13, 11, 96
14, 37170, Control_c, 13, 11, 99
14, 37199, Note_on_c, 13, 52, 0
14, 37200, Note_on_c, 13, 55, 68
14, 37260, Control_c, 13, 11, 101
14, 37319, Note_on_c, 13, 55, 0
14, 37320, Note_on_c, 13, 59, 68
14, 37350, Control_c, 13, 11, 104
14, 37431, Note_on_c, 13, 59, 0
14, 37440, Control_c, 13, 11, 106
14, 37440, Note_on_c, 13, 60, 68
14, 37461, Note_on_c, 13, 60, 0
14, 37470, Note_on_c, 13, 67, 68
14, 37491, Note_on_c, 13, 67, 0
14, 37500, Note_on_c, 13, 65, 68
14, 37521, Note_on_c, 13, 65, 0
14, 37530, Note_on_c, 13, 64, 68
14, 37530, Control_c, 13, 11, 109
14, 37551, Note_on_c, 13, 64, 0
14, 37560, Note_on_c, 13, 62, 68
14, 37581, Note_on_c, 13, 62, 0
14, 37590, Note_on_c, 13, 60, 68
14, 37611, Note_on_c, 13, 60, 0
14, 37620, Control_c, 13, 11, 112
14, 37620, Note_on_c, 13, 59, 68
14, 37641, Note_on_c, 13, 59, 0
14, 37650, Note_on_c, 13, 57, 68
14, 37671, Note_on_c, 13, 57, 0
14, 37680, Note_on_c, 13, 55, 68
14, 37701, Note_on_c, 13, 55, 0
14, 37710, Note_on_c, 13, 53, 68
14, 37710, Control_c, 13, 11, 114
14, 37731, Note_on_c, 13, 53, 0
14, 37740, Note_on_c, 13, 52, 68
14, 37761, Note_on_c, 13, 52, 0
14, 37770, Note_on_c, 13, 50, 68
14, 37791, Note_on_c, 13, 50, 0
14, 37800, Note_on_c, 13, 48, 68
14, 37800, Control_c, 13, 11, 117
14, 37855, Note_on_c, 13, 48, 0
14, 37860, Note_on_c, 13, 67, 68
14, 37890, Control_c, 13, 11, 119
14, 37971, Note_on_c, 13, 67, 0
14, 37980, Note_on_c, 13, 67, 68
14, 37980, Control_c, 13, 11, 122
14, 38024, Note_on_c, 13, 67, 0
14, 38040, Note_on_c, 13, 67, 68
14, 38070, Control_c, 13, 11, 124
14, 38084, Note_on_c, 13, 67, 0
14, 38100, Note_on_c, 13, 67, 68
14, 38144, Note_on_c, 13, 67, 0
14, 38160, Control_c, 13, 11, 127
14, 38160, Note_on_c, 13, 67, 68
14, 38279, Note_on_c, 13, 67, 0
14, 38640, Note_on_c, 13, 55, 52
14, 38759, Note_on_c, 13, 55, 0
14, 38760, Note_on_c, 13, 57, 52
14, 38879, Note_on_c, 13, 57, 0
14, 38880, Note_on_c, 13, 58, 52
14, 39359, Note_on_c, 13, 58, 0
14, 39360, Note_on_c, 13, 55, 52
14, 39404, Note_on_c, 13, 55, 0
14, 39420, Note_on_c, 13, 55, 52
14, 39464, Note_on_c, 13, 55, 0
14, 39480, Note_on_c, 13, 57, 52
14, 39524, Note_on_c, 13, 57, 0
14, 39540, Note_on_c, 13, 57, 52
14, 39584, Note_on_c, 13, 57, 0
14, 39600, Note_on_c, 13, 58, 52
14, 40079, Note_on_c, 13, 58, 0
14, 40080, Note_on_c, 13, 55, 52
14, 40124, Note_on_c, 13, 55, 0
14, 40140, Note_on_c, 13, 55, 52
14, 40184, Note_on_c, 13, 55, 0
14, 40200, Note_on_c, 13, 57, 52
14, 40244, Note_on_c, 13, 57, 0
14, 40260, Note_on_c, 13, 57, 52
14, 40304, Note_on_c, 13, 57, 0
14, 40320, Note_on_c, 13, 58, 52
14, 40371, Note_on_c, 13, 58, 0
14, 40380, Note_on_c, 13, 70, 54
14, 40431, Note_on_c, 13, 70, 0
14, 40440, Note_on_c, 13, 70, 56
14, 40491, Note_on_c, 13, 70, 0
14, 40500, Note_on_c, 13, 70, 58
14, 40551, Note_on_c, 13, 70, 0
14, 40560, Note_on_c, 13, 70, 60
14, 40611, Note_on_c, 13, 70, 0
14, 40620, Note_on_c, 13, 70, 62
14, 40671, Note_on_c, 13, 70, 0
14, 40680, Note_on_c, 13, 70, 64
14, 40731, Note_on_c, 13, 70, 0
14, 40740, Note_on_c, 13, 70, 66
14, 40791, Note_on_c, 13, 70, 0
14, 40800, Note_on_c, 13, 70, 68
14, 40851, Note_on_c, 13, 70, 0
14, 40860, Note_on_c, 13, 70, 70
14, 40911, Note_on_c, 13, 70, 0
14, 40920, Note_on_c, 13, 70, 72
14, 40971, Note_on_c, 13, 70, 0
14, 40980, Note_on_c, 13, 70, 74
14, 41031, Note_on_c, 13, 70, 0
14, 41040, Note_on_c, 13, 71, 76
14, 41091, Note_on_c, 13, 71, 0
14, 41100, Note_on_c, 13, 59, 76
14, 41151, Note_on_c, 13, 59, 0
14, 41160, Note_on_c, 13, 59, 76
14, 41211, Note_on_c, 13, 59, 0
14, 41220, Note_on_c, 13, 59, 76
14, 41271, Note_on_c, 13, 59, 0
14, 41280, Note_on_c, 13, 59, 76
14, 41331, Note_on_c, 13, 59, 0
14, 41340, Note_on_c, 13, 59, 76
14, 41391, Note_on_c, 13, 59, 0
14, 41400, Note_on_c, 13, 59, 76
14, 41451, Note_on_c, 13, 59, 0
14, 41460, Note_on_c, 13, 59, 76
14, 41511, Note_on_c, 13, 59, 0
14, 41520, Note_on_c, 13, 59, 76
14, 41571, Note_on_c, 13, 59, 0
14, 41580, Note_on_c, 13, 59, 76
14, 41631, Note_on_c, 13, 59, 0
14, 41640, Note_on_c, 13, 59, 76
14, 41691, Note_on_c, 13, 59, 0
14, 41700, Note_on_c, 13, 59, 76
14, 41751, Note_on_c, 13, 59, 0
14, 41760, Note_on_c, 13, 64, 76
14, 41879, Note_on_c, 13, 64, 0
14, 42600, Note_on_c, 13, 65, 44
14, 42719, Note_on_c, 13, 65, 0
14, 42720, Note_on_c, 13, 64, 44
14, 42839, Note_on_c, 13, 64, 0
14, 42840, Note_on_c, 13, 62, 44
14, 42959, Note_on_c, 13, 62, 0
14, 43320, Note_on_c, 13, 65, 44
14, 43364, Note_on_c, 13, 65, 0
14, 43380, Note_on_c, 13, 65, 44
14, 43424, Note_on_c, 13, 65, 0
14, 43440, Note_on_c, 13, 64, 44
14, 43484, Note_on_c, 13, 64, 0
14, 43500, Note_on_c, 13, 64, 44
14, 43544, Note_on_c, 13, 64, 0
14, 43560, Note_on_c, 13, 62, 44
14, 43679, Note_on_c, 13, 62, 0
14, 44040, Note_on_c, 13, 65, 44
14, 44084, Note_on_c, 13, 65, 0
14, 44100, Note_on_c, 13, 65, 44
14, 44144, Note_on_c, 13, 65, 0
14, 44160, Note_on_c, 13, 64, 44
14, 44204, Note_on_c, 13, 64, 0
14, 44220, Note_on_c, 13, 64, 44
14, 44264, Note_on_c, 13, 64, 0
14, 44280, Note_on_c, 13, 62, 44
14, 44331, Note_on_c, 13, 62, 0
14, 44340, Note_on_c, 13, 62, 46
14, 44391, Note_on_c, 13, 62, 0
14, 44400, Note_on_c, 13, 62, 49
14, 44451, Note_on_c, 13, 62, 0
14, 44460, Note_on_c, 13, 62, 52
14, 44511, Note_on_c, 13, 62, 0
14, 44520, Note_on_c, 13, 62, 54
14, 44571, Note_on_c, 13, 62, 0
14, 44580, Note_on_c, 13, 62, 57
14, 44631, Note_on_c, 13, 62, 0
14, 44640, Note_on_c, 13, 61, 60
14, 44691, Note_on_c, 13, 61, 0
14, 44700, Note_on_c, 13, 61, 62
14, 44751, Note_on_c, 13, 61, 0
14, 44760, Note_on_c, 13, 61, 65
14, 44811, Note_on_c, 13, 61, 0
14, 44820, Note_on_c, 13, 61, 68
14, 44871, Note_on_c, 13, 61, 0
14, 44880, Note_on_c, 13, 61, 70
14, 44931, Note_on_c, 13, 61, 0
14, 44940, Note_on_c, 13, 61, 73
14, 44991, Note_on_c, 13, 61, 0
14, 45000, Note_on_c, 13, 60, 76
14, 45051, Note_on_c, 13, 60, 0
14, 45060, Note_on_c, 13, 60, 76
14, 45111, Note_on_c, 13, 60, 0
14, 45120, Note_on_c, 13, 60, 76
14, 45171, Note_on_c, 13, 60, 0
14, 45180, Note_on_c, 13, 60, 76
14, 45231, Note_on_c, 13, 60, 0
14, 45240, Note_on_c, 13, 60, 76
14, 45291, Note_on_c, 13, 60, 0
14, 45300, Note_on_c, 13, 60, 76
14, 45351, Note_on_c, 13, 60, 0
14, 45360, Note_on_c, 13, 64, 76
14, 45360, Note_on_c, 13, 58, 76
14, 45411, Note_on_c, 13, 64, 0
14, 45411, Note_on_c, 13, 58, 0
14, 45420, Note_on_c, 13, 64, 76
14, 45420, Note_on_c, 13, 58, 76
14, 45471, Note_on_c, 13, 64, 0
14, 45471, Note_on_c, 13, 58, 0
14, 45480, Note_on_c, 13, 64, 76
14, 45480, Note_on_c, 13, 58, 76
14, 45531, Note_on_c, 13, 64, 0
14, 45531, Note_on_c, 13, 58, 0
14, 45540, Note_on_c, 13, 58, 76
14, 45540, Note_on_c, 13, 64, 76
14, 45591, Note_on_c, 13, 58, 0
14, 45591, Note_on_c, 13, 64, 0
14, 45600, Note_on_c, 13, 58, 76
14, 45600, Note_on_c, 13, 64, 76
14, 45651, Note_on_c, 13, 58, 0
14, 45651, Note_on_c, 13, 64, 0
14, 45660, Note_on_c, 13, 58, 76
14, 45660, Note_on_c, 13, 64, 76
14, 45711, Note_on_c, 13, 58, 0
14, 45711, Note_on_c, 13, 64, 0
14, 45720, Note_on_c, 13, 65, 84
14, 45720, Note_on_c, 13, 57, 84
14, 45775, Note_on_c, 13, 65, 0
14, 45775, Note_on_c, 13, 57, 0
14, 45780, Note_on_c, 13, 48, 84
14, 45780, Note_on_c, 13, 60, 84
14, 45805, Note_on_c, 13, 48, 0
14, 45805, Note_on_c, 13, 60, 0
14, 45810, Note_on_c, 13, 60, 84
14, 45810, Note_on_c, 13, 48, 84
14, 45835, Note_on_c, 13, 60, 0
14, 45835, Note_on_c, 13, 48, 0
14, 45840, Note_on_c, 13, 48, 84
14, 45840, Note_on_c, 13, 60, 84
14, 45895, Note_on_c, 13, 48, 0
14, 45895, Note_on_c, 13, 60, 0
14, 45900, Note_on_c, 13, 60, 84
14, 45900, Note_on_c, 13, 48, 84
14, 45925, Note_on_c, 13, 60, 0
14, 45925, Note_on_c, 13, 48, 0
14, 45930, Note_on_c, 13, 60, 84
14, 45930, Note_on_c, 13, 48, 84
14, 45955, Note_on_c, 13, 60, 0
14, 45955, Note_on_c, 13, 48, 0
14, 45960, Note_on_c, 13, 48, 84
14, 45960, Note_on_c, 13, 60, 84
14, 46015, Note_on_c, 13, 48, 0
14, 46015, Note_on_c, 13, 60, 0
14, 46020, Note_on_c, 13, 48, 84
14, 46020, Note_on_c, 13, 60, 84
14, 46045, Note_on_c, 13, 48, 0
14, 46045, Note_on_c, 13, 60, 0
14, 46050, Note_on_c, 13, 48, 84
14, 46050, Note_on_c, 13, 60, 84
14, 46075, Note_on_c, 13, 48, 0
14, 46075, Note_on_c, 13, 60, 0
14, 46080, Note_on_c, 13, 48, 84
14, 46080, Note_on_c, 13, 60, 84
14, 46135, Note_on_c, 13, 48, 0
14, 46135, Note_on_c, 13, 60, 0
14, 46140, Note_on_c, 13, 60, 84
14, 46140, Note_on_c, 13, 48, 84
14, 46165, Note_on_c, 13, 60, 0
14, 46165, Note_on_c, 13, 48, 0
14, 46170, Note_on_c, 13, 48, 84
14, 46170, Note_on_c, 13, 60, 84
14, 46195, Note_on_c, 13, 48, 0
14, 46195, Note_on_c, 13, 60, 0
14, 46200, Note_on_c, 13, 48, 84
14, 46200, Note_on_c, 13, 60, 84
14, 46255, Note_on_c, 13, 48, 0
14, 46255, Note_on_c, 13, 60, 0
14, 46260, Note_on_c, 13, 60, 84
14, 46260, Note_on_c, 13, 48, 84
14, 46285, Note_on_c, 13, 60, 0
14, 46285, Note_on_c, 13, 48, 0
14, 46290, Note_on_c, 13, 48, 84
14, 46290, Note_on_c, 13, 60, 84
14, 46315, Note_on_c, 13, 48, 0
14, 46315, Note_on_c, 13, 60, 0
14, 46320, Note_on_c, 13, 60, 84
14, 46320, Note_on_c, 13, 48, 84
14, 46375, Note_on_c, 13, 60, 0
14, 46375, Note_on_c, 13, 48, 0
14, 46380, Note_on_c, 13, 48, 84
14, 46380, Note_on_c, 13, 60, 84
14, 46405, Note_on_c, 13, 48, 0
14, 46405, Note_on_c, 13, 60, 0
14, 46410, Note_on_c, 13, 60, 84
14, 46410, Note_on_c, 13, 48, 84
14, 46435, Note_on_c, 13, 60, 0
14, 46435, Note_on_c, 13, 48, 0
14, 46440, Note_on_c, 13, 48, 84
14, 46440, Note_on_c, 13, 60, 84
14, 46495, Note_on_c, 13, 48, 0
14, 46495, Note_on_c, 13, 60, 0
14, 46500, Note_on_c, 13, 48, 84
14, 46500, Note_on_c, 13, 60, 84
14, 46525, Note_on_c, 13, 48, 0
14, 46525, Note_on_c, 13, 60, 0
14, 46530, Note_on_c, 13, 60, 84
14, 46530, Note_on_c, 13, 48, 84
14, 46555, Note_on_c, 13, 60, 0
14, 46555, Note_on_c, 13, 48, 0
14, 46560, Note_on_c, 13, 48, 84
14, 46560, Note_on_c, 13, 60, 84
14, 46615, Note_on_c, 13, 48, 0
14, 46615, Note_on_c, 13, 60, 0
14, 46620, Note_on_c, 13, 48, 84
14, 46620, Note_on_c, 13, 60, 84
14, 46645, Note_on_c, 13, 48, 0
14, 46645, Note_on_c, 13, 60, 0
14, 46650, Note_on_c, 13, 48, 84
14, 46650, Note_on_c, 13, 60, 84
14, 46675, Note_on_c, 13, 48, 0
14, 46675, Note_on_c, 13, 60, 0
14, 46680, Note_on_c, 13, 60, 84
14, 46680, Note_on_c, 13, 48, 84
14, 46735, Note_on_c, 13, 60, 0
14, 46735, Note_on_c, 13, 48, 0
14, 46740, Note_on_c, 13, 48, 84
14, 46740, Note_on_c, 13, 60, 84
14, 46765, Note_on_c, 13, 48, 0
14, 46765, Note_on_c, 13, 60, 0
14, 46770, Note_on_c, 13, 48, 84
14, 46770, Note_on_c, 13, 60, 84
14, 46795, Note_on_c, 13, 48, 0
14, 46795, Note_on_c, 13, 60, 0
14, 46800, Note_on_c, 13, 48, 84
14, 46800, Note_on_c, 13, 60, 84
14, 46855, Note_on_c, 13, 48, 0
14, 46855, Note_on_c, 13, 60, 0
14, 46860, Note_on_c, 13, 48, 84
14, 46860, Note_on_c, 13, 60, 84
14, 46885, Note_on_c, 13, 48, 0
14, 46885, Note_on_c, 13, 60, 0
14, 46890, Note_on_c, 13, 60, 84
14, 46890, Note_on_c, 13, 48, 84
14, 46915, Note_on_c, 13, 60, 0
14, 46915, Note_on_c, 13, 48, 0
14, 46920, Note_on_c, 13, 48, 84
14, 46920, Note_on_c, 13, 60, 84
14, 46975, Note_on_c, 13, 48, 0
14, 46975, Note_on_c, 13, 60, 0
14, 46980, Note_on_c, 13, 48, 84
14, 46980, Note_on_c, 13, 60, 84
14, 47005, Note_on_c, 13, 48, 0
14, 47005, Note_on_c, 13, 60, 0
14, 47010, Note_on_c, 13, 48, 84
14, 47010, Note_on_c, 13, 60, 84
14, 47035, Note_on_c, 13, 48, 0
14, 47035, Note_on_c, 13, 60, 0
14, 47040, Note_on_c, 13, 48, 84
14, 47040, Note_on_c, 13, 60, 84
14, 47095, Note_on_c, 13, 48, 0
14, 47095, Note_on_c, 13, 60, 0
14, 47100, Note_on_c, 13, 48, 84
14, 47100, Note_on_c, 13, 60, 84
14, 47125, Note_on_c, 13, 48, 0
14, 47125, Note_on_c, 13, 60, 0
14, 47130, Note_on_c, 13, 48, 84
14, 47130, Note_on_c, 13, 60, 84
14, 47155, Note_on_c, 13, 48, 0
14, 47155, Note_on_c, 13, 60, 0
14, 47160, Note_on_c, 13, 60, 84
14, 47160, Note_on_c, 13, 48, 84
14, 47215, Note_on_c, 13, 60, 0
14, 47215, Note_on_c, 13, 48, 0
14, 47220, Note_on_c, 13, 48, 84
14, 47220, Note_on_c, 13, 60, 84
14, 47245, Note_on_c, 13, 48, 0
14, 47245, Note_on_c, 13, 60, 0
14, 47250, Note_on_c, 13, 48, 84
14, 47250, Note_on_c, 13, 60, 84
14, 47275, Note_on_c, 13, 48, 0
14, 47275, Note_on_c, 13, 60, 0
14, 47280, Note_on_c, 13, 48, 84
14, 47280, Note_on_c, 13, 60, 84
14, 47335, Note_on_c, 13, 48, 0
14, 47335, Note_on_c, 13, 60, 0
14, 47340, Note_on_c, 13, 48, 84
14, 47340, Note_on_c, 13, 60, 84
14, 47365, Note_on_c, 13, 48, 0
14, 47365, Note_on_c, 13, 60, 0
14, 47370, Note_on_c, 13, 48, 84
14, 47370, Note_on_c, 13, 60, 84
14, 47395, Note_on_c, 13, 48, 0
14, 47395, Note_on_c, 13, 60, 0
14, 47400, Note_on_c, 13, 48, 84
14, 47400, Note_on_c, 13, 60, 84
14, 47455, Note_on_c, 13, 48, 0
14, 47455, Note_on_c, 13, 60, 0
14, 47460, Note_on_c, 13, 60, 84
14, 47460, Note_on_c, 13, 48, 84
14, 47485, Note_on_c, 13, 60, 0
14, 47485, Note_on_c, 13, 48, 0
14, 47490, Note_on_c, 13, 60, 84
14, 47490, Note_on_c, 13, 48, 84
14, 47515, Note_on_c, 13, 60, 0
14, 47515, Note_on_c, 13, 48, 0
14, 47520, Note_on_c, 13, 60, 84
14, 47520, Note_on_c, 13, 48, 84
14, 47575, Note_on_c, 13, 60, 0
14, 47575, Note_on_c, 13, 48, 0
14, 47580, Note_on_c, 13, 48, 84
14, 47580, Note_on_c, 13, 60, 84
14, 47605, Note_on_c, 13, 48, 0
14, 47605, Note_on_c, 13, 60, 0
14, 47610, Note_on_c, 13, 60, 84
14, 47610, Note_on_c, 13, 48, 84
14, 47635, Note_on_c, 13, 60, 0
14, 47635, Note_on_c, 13, 48, 0
14, 47640, Note_on_c, 13, 60, 84
14, 47640, Note_on_c, 13, 48, 84
14, 47695, Note_on_c, 13, 60, 0
14, 47695, Note_on_c, 13, 48, 0
14, 47700, Note_on_c, 13, 48, 84
14, 47700, Note_on_c, 13, 60, 84
14, 47725, Note_on_c, 13, 48, 0
14, 47725, Note_on_c, 13, 60, 0
14, 47730, Note_on_c, 13, 60, 84
14, 47730, Note_on_c, 13, 48, 84
14, 47755, Note_on_c, 13, 60, 0
14, 47755, Note_on_c, 13, 48, 0
14, 47760, Note_on_c, 13, 48, 84
14, 47760, Note_on_c, 13, 60, 84
14, 47815, Note_on_c, 13, 48, 0
14, 47815, Note_on_c, 13, 60, 0
14, 47820, Note_on_c, 13, 48, 84
14, 47820, Note_on_c, 13, 60, 84
14, 47845, Note_on_c, 13, 48, 0
14, 47845, Note_on_c, 13, 60, 0
14, 47850, Note_on_c, 13, 60, 84
14, 47850, Note_on_c, 13, 48, 84
14, 47875, Note_on_c, 13, 60, 0
14, 47875, Note_on_c, 13, 48, 0
14, 47880, Note_on_c, 13, 48, 84
14, 47880, Note_on_c, 13, 60, 84
14, 47935, Note_on_c, 13, 48, 0
14, 47935, Note_on_c, 13, 60, 0
14, 47940, Note_on_c, 13, 60, 84
14, 47940, Note_on_c, 13, 48, 84
14, 47965, Note_on_c, 13, 60, 0
14, 47965, Note_on_c, 13, 48, 0
14, 47970, Note_on_c, 13, 60, 84
14, 47970, Note_on_c, 13, 48, 84
14, 47995, Note_on_c, 13, 60, 0
14, 47995, Note_on_c, 13, 48, 0
14, 48000, Note_on_c, 13, 60, 84
14, 48000, Note_on_c, 13, 48, 84
14, 48055, Note_on_c, 13, 60, 0
14, 48055, Note_on_c, 13, 48, 0
14, 48060, Note_on_c, 13, 60, 84
14, 48060, Note_on_c, 13, 48, 84
14, 48085, Note_on_c, 13, 60, 0
14, 48085, Note_on_c, 13, 48, 0
14, 48090, Note_on_c, 13, 48, 84
14, 48090, Note_on_c, 13, 60, 84
14, 48115, Note_on_c, 13, 48, 0
14, 48115, Note_on_c, 13, 60, 0
14, 48120, Note_on_c, 13, 60, 84
14, 48120, Note_on_c, 13, 48, 84
14, 48175, Note_on_c, 13, 60, 0
14, 48175, Note_on_c, 13, 48, 0
14, 48180, Note_on_c, 13, 60, 84
14, 48180, Note_on_c, 13, 48, 84
14, 48205, Note_on_c, 13, 60, 0
14, 48205, Note_on_c, 13, 48, 0
14, 48210, Note_on_c, 13, 60, 84
14, 48210, Note_on_c, 13, 48, 84
14, 48235, Note_on_c, 13, 60, 0
14, 48235, Note_on_c, 13, 48, 0
14, 48240, Note_on_c, 13, 48, 84
14, 48240, Note_on_c, 13, 60, 84
14, 48295, Note_on_c, 13, 48, 0
14, 48295, Note_on_c, 13, 60, 0
14, 48300, Note_on_c, 13, 60, 84
14, 48300, Note_on_c, 13, 48, 84
14, 48325, Note_on_c, 13, 60, 0
14, 48325, Note_on_c, 13, 48, 0
14, 48330, Note_on_c, 13, 48, 84
14, 48330, Note_on_c, 13, 60, 84
14, 48355, Note_on_c, 13, 48, 0
14, 48355, Note_on_c, 13, 60, 0
14, 48360, Note_on_c, 13, 48, 84
14, 48360, Note_on_c, 13, 60, 84
14, 48415, Note_on_c, 13, 48, 0
14, 48415, Note_on_c, 13, 60, 0
14, 48420, Note_on_c, 13, 48, 84
14, 48420, Note_on_c, 13, 60, 84
14, 48445, Note_on_c, 13, 48, 0
14, 48445, Note_on_c, 13, 60, 0
14, 48450, Note_on_c, 13, 48, 84
14, 48450, Note_on_c, 13, 60, 84
14, 48475, Note_on_c, 13, 48, 0
14, 48475, Note_on_c, 13, 60, 0
14, 48480, Note_on_c, 13, 48, 84
14, 48480, Note_on_c, 13, 60, 84
14, 48535, Note_on_c, 13, 48, 0
14, 48535, Note_on_c, 13, 60, 0
14, 48540, Note_on_c, 13, 60, 84
14, 48540, Note_on_c, 13, 48, 84
14, 48565, Note_on_c, 13, 60, 0
14, 48565, Note_on_c, 13, 48, 0
14, 48570, Note_on_c, 13, 60, 84
14, 48570, Note_on_c, 13, 48, 84
14, 48595, Note_on_c, 13, 60, 0
14, 48595, Note_on_c, 13, 48, 0
14, 48600, Note_on_c, 13, 60, 84
14, 48600, Note_on_c, 13, 48, 84
14, 48655, Note_on_c, 13, 60, 0
14, 48655, Note_on_c, 13, 48, 0
14, 48660, Note_on_c, 13, 60, 84
14, 48685, Note_on_c, 13, 60, 0
14, 48690, Note_on_c, 13, 60, 84
14, 48715, Note_on_c, 13, 60, 0
14, 48720, Note_on_c, 13, 60, 84
14, 48775, Note_on_c, 13, 60, 0
14, 48780, Note_on_c, 13, 60, 84
14, 48805, Note_on_c, 13, 60, 0
14, 48810, Note_on_c, 13, 60, 84
14, 48835, Note_on_c, 13, 60, 0
14, 48840, Note_on_c, 13, 60, 84
14, 48895, Note_on_c, 13, 60, 0
14, 48900, Note_on_c, 13, 60, 84
14, 48925, Note_on_c, 13, 60, 0
14, 48930, Note_on_c, 13, 60, 84
14, 48955, Note_on_c, 13, 60, 0
14, 48960, Note_on_c, 13, 60, 84
14, 49015, Note_on_c, 13, 60, 0
14, 49020, Note_on_c, 13, 60, 84
14, 49045, Note_on_c, 13, 60, 0
14, 49050, Note_on_c, 13, 60, 84
14, 49075, Note_on_c, 13, 60, 0
14, 49080, Note_on_c, 13, 60, 84
14, 49135, Note_on_c, 13, 60, 0
14, 49140, Note_on_c, 13, 60, 84
14, 49165, Note_on_c, 13, 60, 0
14, 49170, Note_on_c, 13, 60, 84
14, 49195, Note_on_c, 13, 60, 0
14, 49200, Note_on_c, 13, 60, 84
14, 49255, Note_on_c, 13, 60, 0
14, 49260, Note_on_c, 13, 60, 84
14, 49285, Note_on_c, 13, 60, 0
14, 49290, Note_on_c, 13, 60, 84
14, 49315, Note_on_c, 13, 60, 0
14, 49320, Note_on_c, 13, 62, 84
14, 49439, Note_on_c, 13, 62, 0
14, 49560, Control_c, 13, 11, 96
14, 49620, Note_on_c, 13, 62, 68
14, 49664, Note_on_c, 13, 62, 0
14, 49680, Note_on_c, 13, 63, 68
14, 49724, Note_on_c, 13, 63, 0
14, 49740, Note_on_c, 13, 62, 68
14, 49784, Note_on_c, 13, 62, 0
14, 49800, Note_on_c, 13, 63, 68
14, 49800, Control_c, 13, 11, 96
14, 49880, Control_c, 13, 11, 99
14, 49960, Control_c, 13, 11, 101
14, 49975, Note_on_c, 13, 63, 0
14, 49980, Note_on_c, 13, 64, 68
14, 50024, Note_on_c, 13, 64, 0
14, 50040, Note_on_c, 13, 65, 68
14, 50040, Control_c, 13, 11, 104
14, 50084, Note_on_c, 13, 65, 0
14, 50100, Note_on_c, 13, 64, 68
14, 50120, Control_c, 13, 11, 106
14, 50144, Note_on_c, 13, 64, 0
14, 50160, Note_on_c, 13, 65, 68
14, 50200, Control_c, 13, 11, 109
14, 50280, Control_c, 13, 11, 112
14, 50335, Note_on_c, 13, 65, 0
14, 50340, Note_on_c, 13, 65, 68
14, 50360, Control_c, 13, 11, 114
14, 50384, Note_on_c, 13, 65, 0
14, 50400, Note_on_c, 13, 67, 68
14, 50440, Control_c, 13, 11, 117
14, 50459, Note_on_c, 13, 67, 0
14, 50460, Note_on_c, 13, 65, 68
14, 50519, Note_on_c, 13, 65, 0
14, 50520, Note_on_c, 13, 67, 68
14, 50520, Control_c, 13, 11, 119
14, 50579, Note_on_c, 13, 67, 0
14, 50580, Note_on_c, 13, 60, 68
14, 50600, Control_c, 13, 11, 122
14, 50639, Note_on_c, 13, 60, 0
14, 50640, Note_on_c, 13, 65, 68
14, 50680, Control_c, 13, 11, 124
14, 50699, Note_on_c, 13, 65, 0
14, 50700, Note_on_c, 13, 66, 68
14, 50751, Note_on_c, 13, 66, 0
14, 50756, Control_c, 13, 11, 96
14, 50760, Note_on_c, 13, 67, 68
14, 50804, Note_on_c, 13, 67, 0
14, 50820, Note_on_c, 13, 66, 68
14, 50864, Note_on_c, 13, 66, 0
14, 50880, Note_on_c, 13, 67, 68
14, 50924, Note_on_c, 13, 67, 0
14, 50940, Note_on_c, 13, 66, 68
14, 50984, Note_on_c, 13, 66, 0
14, 51000, Note_on_c, 13, 67, 68
14, 51120, Control_c, 13, 11, 96
14, 51180, Control_c, 13, 11, 99
14, 51240, Control_c, 13, 11, 101
14, 51295, Note_on_c, 13, 67, 0
14, 51300, Control_c, 13, 11, 104
14, 51300, Note_on_c, 13, 66, 68
14, 51344, Note_on_c, 13, 66, 0
14, 51360, Control_c, 13, 11, 106
14, 51360, Note_on_c, 13, 67, 68
14, 51420, Control_c, 13, 11, 109
14, 51480, Control_c, 13, 11, 112
14, 51540, Control_c, 13, 11, 114
14, 51600, Control_c, 13, 11, 117
14, 51655, Note_on_c, 13, 67, 0
14, 51660, Note_on_c, 13, 67, 68
14, 51660, Control_c, 13, 11, 119
14, 51704, Note_on_c, 13, 67, 0
14, 51720, Control_c, 13, 11, 122
14, 51720, Note_on_c, 13, 68, 76
14, 51780, Control_c, 13, 11, 124
14, 51840, Control_c, 13, 11, 127
14, 51891, Note_on_c, 13, 68, 0
14, 51900, Note_on_c, 13, 68, 68
14, 51944, Note_on_c, 13, 68, 0
14, 51960, Note_on_c, 13, 69, 76
14, 52131, Note_on_c, 13, 69, 0
14, 52140, Note_on_c, 13, 69, 68
14, 52184, Note_on_c, 13, 69, 0
14, 52200, Note_on_c, 13, 70, 76
14, 52371, Note_on_c, 13, 70, 0
14, 52380, Note_on_c, 13, 70, 68
14, 52424, Note_on_c, 13, 70, 0
14, 52440, Note_on_c, 13, 71, 76
14, 52611, Note_on_c, 13, 71, 0
14, 52620, Note_on_c, 13, 71, 68
14, 52664, Note_on_c, 13, 71, 0
14, 52680, Note_on_c, 13, 72, 76
14, 52851, Note_on_c, 13, 72, 0
14, 52860, Note_on_c, 13, 72, 68
14, 52904, Note_on_c, 13, 72, 0
14, 52920, Note_on_c, 13, 73, 84
14, 52971, Note_on_c, 13, 73, 0
14, 52980, Note_on_c, 13, 73, 84
14, 53031, Note_on_c, 13, 73, 0
14, 53040, Note_on_c, 13, 73, 84
14, 53091, Note_on_c, 13, 73, 0
14, 53100, Note_on_c, 13, 73, 84
14, 53151, Note_on_c, 13, 73, 0
14, 53160, Note_on_c, 13, 73, 84
14, 53211, Note_on_c, 13, 73, 0
14, 53220, Note_on_c, 13, 73, 84
14, 53271, Note_on_c, 13, 73, 0
14, 53280, Note_on_c, 13, 73, 84
14, 53331, Note_on_c, 13, 73, 0
14, 53340, Note_on_c, 13, 73, 84
14, 53391, Note_on_c, 13, 73, 0
14, 53400, Note_on_c, 13, 73, 84
14, 53451, Note_on_c, 13, 73, 0
14, 53460, Note_on_c, 13, 73, 84
14, 53511, Note_on_c, 13, 73, 0
14, 53520, Note_on_c, 13, 73, 84
14, 53571, Note_on_c, 13, 73, 0
14, 53580, Note_on_c, 13, 73, 84
14, 53631, Note_on_c, 13, 73, 0
14, 53640, Note_on_c, 13, 73, 84
14, 53691, Note_on_c, 13, 73, 0
14, 53700, Note_on_c, 13, 73, 84
14, 53751, Note_on_c, 13, 73, 0
14, 53760, Note_on_c, 13, 73, 84
14, 53811, Note_on_c, 13, 73, 0
14, 53820, Note_on_c, 13, 73, 84
14, 53871, Note_on_c, 13, 73, 0
14, 53880, Note_on_c, 13, 73, 84
14, 53931, Note_on_c, 13, 73, 0
14, 53940, Note_on_c, 13, 73, 84
14, 53991, Note_on_c, 13, 73, 0
14, 54000, Note_on_c, 13, 74, 84
14, 54051, Note_on_c, 13, 74, 0
14, 54060, Note_on_c, 13, 74, 84
14, 54111, Note_on_c, 13, 74, 0
14, 54120, Note_on_c, 13, 74, 84
14, 54171, Note_on_c, 13, 74, 0
14, 54180, Note_on_c, 13, 74, 84
14, 54231, Note_on_c, 13, 74, 0
14, 54240, Note_on_c, 13, 74, 84
14, 54291, Note_on_c, 13, 74, 0
14, 54300, Note_on_c, 13, 74, 84
14, 54351, Note_on_c, 13, 74, 0
14, 54360, Note_on_c, 13, 71, 92
14, 54411, Note_on_c, 13, 71, 0
14, 54420, Note_on_c, 13, 71, 84
14, 54471, Note_on_c, 13, 71, 0
14, 54480, Note_on_c, 13, 71, 84
14, 54531, Note_on_c, 13, 71, 0
14, 54540, Note_on_c, 13, 71, 84
14, 54591, Note_on_c, 13, 71, 0
14, 54600, Note_on_c, 13, 71, 84
14, 54651, Note_on_c, 13, 71, 0
14, 54660, Note_on_c, 13, 71, 84
14, 54711, Note_on_c, 13, 71, 0
14, 54720, Note_on_c, 13, 68, 84
14, 54720, Control_c, 13, 11, 127
14, 54750, Control_c, 13, 11, 122
14, 54771, Note_on_c, 13, 68, 0
14, 54780, Note_on_c, 13, 68, 84
14, 54780, Control_c, 13, 11, 117
14, 54810, Control_c, 13, 11, 111
14, 54831, Note_on_c, 13, 68, 0
14, 54840, Note_on_c, 13, 68, 84
14, 54840, Control_c, 13, 11, 106
14, 54870, Control_c, 13, 11, 101
14, 54891, Note_on_c, 13, 68, 0
14, 54900, Control_c, 13, 11, 96
14, 54900, Note_on_c, 13, 68, 84
14, 54930, Control_c, 13, 11, 90
14, 54951, Note_on_c, 13, 68, 0
14, 54960, Control_c, 13, 11, 85
14, 54960, Note_on_c, 13, 68, 84
14, 54990, Control_c, 13, 11, 80
14, 55011, Note_on_c, 13, 68, 0
14, 55020, Control_c, 13, 11, 75
14, 55020, Note_on_c, 13, 68, 84
14, 55050, Control_c, 13, 11, 69
14, 55071, Note_on_c, 13, 68, 0
14, 55080, Control_c, 13, 11, 64
14, 55080, Note_on_c, 13, 57, 84
14, 55431, Note_on_c, 13, 57, 0
14, 55440, Note_on_c, 13, 50, 84
14, 55440, Control_c, 13, 11, 64
14, 55470, Control_c, 13, 11, 63
14, 55500, Control_c, 13, 11, 61
14, 55530, Control_c, 13, 11, 60
14, 55560, Control_c, 13, 11, 59
14, 55590, Control_c, 13, 11, 57
14, 55620, Control_c, 13, 11, 56
14, 55650, Control_c, 13, 11, 55
14, 55680, Control_c, 13, 11, 53
14, 55710, Control_c, 13, 11, 52
14, 55740, Control_c, 13, 11, 51
14, 55770, Control_c, 13, 11, 49
14, 55791, Note_on_c, 13, 50, 0
14, 55800, Control_c, 13, 11, 48
14, 55800, Note_on_c, 13, 52, 84
14, 56160, Control_c, 13, 11, 48
14, 56190, Control_c, 13, 11, 52
14, 56220, Control_c, 13, 11, 56
14, 56250, Control_c, 13, 11, 60
14, 56280, Control_c, 13, 11, 64
14, 56310, Control_c, 13, 11, 68
14, 56340, Control_c, 13, 11, 72
14, 56370, Control_c, 13, 11, 76
14, 56400, Control_c, 13, 11, 80
14, 56430, Control_c, 13, 11, 84
14, 56460, Control_c, 13, 11, 88
14, 56490, Control_c, 13, 11, 92
14, 56511, Note_on_c, 13, 52, 0
14, 56520, Control_c, 13, 11, 96
14, 56520, Note_on_c, 13, 57, 68
14, 56999, Note_on_c, 13, 57, 0
14, 57000, Note_on_c, 13, 61, 68
14, 57119, Note_on_c, 13, 61, 0
14, 57120, Note_on_c, 13, 64, 68
14, 57231, Note_on_c, 13, 64, 0
14, 57240, Note_on_c, 13, 69, 68
14, 57359, Note_on_c, 13, 69, 0
14, 57360, Note_on_c, 13, 68, 68
14, 57479, Note_on_c, 13, 68, 0
14, 57480, Note_on_c, 13, 69, 68
14, 57591, Note_on_c, 13, 69, 0
14, 57600, Note_on_c, 13, 64, 68
14, 57719, Note_on_c, 13, 64, 0
14, 57720, Note_on_c, 13, 63, 68
14, 57839, Note_on_c, 13, 63, 0
14, 57840, Note_on_c, 13, 62, 68
14, 57951, Note_on_c, 13, 62, 0
14, 57960, Note_on_c, 13, 61, 68
14, 57960, Control_c, 13, 11, 96
14, 58020, Control_c, 13, 11, 99
14, 58079, Note_on_c, 13, 61, 0
14, 58080, Control_c, 13, 11, 101
14, 58080, Note_on_c, 13, 59, 68
14, 58140, Control_c, 13, 11, 104
14, 58199, Note_on_c, 13, 59, 0
14, 58200, Note_on_c, 13, 57, 68
14, 58200, Control_c, 13, 11, 106
14, 58260, Control_c, 13, 11, 109
14, 58311, Note_on_c, 13, 57, 0
14, 58320, Control_c, 13, 11, 112
14, 58320, Note_on_c, 13, 56, 68
14, 58380, Control_c, 13, 11, 114
14, 58440, Control_c, 13, 11, 117
14, 58500, Control_c, 13, 11, 119
14, 58559, Note_on_c, 13, 56, 0
14, 58560, Note_on_c, 13, 58, 68
14, 58560, Control_c, 13, 11, 122
14, 58620, Control_c, 13, 11, 124
14, 58671, Note_on_c, 13, 58, 0
14, 58676, Control_c, 13, 11, 96
14, 58680, Note_on_c, 13, 59, 68
14, 58919, Note_on_c, 13, 59, 0
14, 58920, Note_on_c, 13, 54, 68
14, 59009, Note_on_c, 13, 54, 0
14, 59010, Note_on_c, 13, 57, 68
14, 59035, Note_on_c, 13, 57, 0
14, 59040, Note_on_c, 13, 56, 68
14, 59084, Note_on_c, 13, 56, 0
14, 59100, Note_on_c, 13, 52, 68
14, 59159, Note_on_c, 13, 52, 0
14, 59160, Control_c, 13, 11, 96
14, 59160, Note_on_c, 13, 54, 68
14, 59180, Control_c, 13, 11, 99
14, 59200, Control_c, 13, 11, 101
14, 59219, Note_on_c, 13, 54, 0
14, 59220, Note_on_c, 13, 52, 68
14, 59220, Control_c, 13, 11, 104
14, 59220, Note_on_c, 13, 56, 68
14, 59240, Control_c, 13, 11, 106
14, 59260, Control_c, 13, 11, 109
14, 59279, Note_on_c, 13, 52, 0
14, 59279, Note_on_c, 13, 56, 0
14, 59280, Note_on_c, 13, 54, 68
14, 59280, Note_on_c, 13, 57, 68
14, 59280, Control_c, 13, 11, 112
14, 59300, Control_c, 13, 11, 114
14, 59320, Control_c, 13, 11, 117
14, 59339, Note_on_c, 13, 54, 0
14, 59339, Note_on_c, 13, 57, 0
14, 59340, Note_on_c, 13, 56, 68
14, 59340, Control_c, 13, 11, 119
14, 59340, Note_on_c, 13, 59, 68
14, 59360, Control_c, 13, 11, 122
14, 59380, Control_c, 13, 11, 124
14, 59391, Note_on_c, 13, 59, 0
14, 59395, Note_on_c, 13, 56, 0
14, 59396, Control_c, 13, 11, 96
14, 59400, Note_on_c, 13, 61, 68
14, 59400, Note_on_c, 13, 57, 68
14, 59511, Note_on_c, 13, 61, 0
14, 59511, Note_on_c, 13, 57, 0
14, 59520, Note_on_c, 13, 49, 68
14, 59639, Note_on_c, 13, 49, 0
14, 59640, Note_on_c, 13, 52, 68
14, 59751, Note_on_c, 13, 52, 0
14, 59760, Note_on_c, 13, 57, 68
14, 59879, Note_on_c, 13, 57, 0
14, 59880, Note_on_c, 13, 61, 68
14, 59999, Note_on_c, 13, 61, 0
14, 60000, Note_on_c, 13, 64, 68
14, 60111, Note_on_c, 13, 64, 0
14, 60120, Note_on_c, 13, 69, 68
14, 60175, Note_on_c, 13, 69, 0
14, 60180, Note_on_c, 13, 57, 68
14, 60180, Note_on_c, 13, 61, 68
14, 60239, Note_on_c, 13, 57, 0
14, 60239, Note_on_c, 13, 61, 0
14, 60300, Note_on_c, 13, 59, 68
14, 60300, Note_on_c, 13, 62, 68
14, 60359, Note_on_c, 13, 59, 0
14, 60359, Note_on_c, 13, 62, 0
14, 60420, Note_on_c, 13, 61, 68
14, 60420, Note_on_c, 13, 57, 68
14, 60475, Note_on_c, 13, 61, 0
14, 60475, Note_on_c, 13, 57, 0
14, 60480, Note_on_c, 13, 56, 68
14, 60480, Note_on_c, 13, 59, 68
14, 60599, Note_on_c, 13, 56, 0
14, 60599, Note_on_c, 13, 59, 0
14, 60600, Note_on_c, 13, 64, 68
14, 60719, Note_on_c, 13, 64, 0
14, 60720, Note_on_c, 13, 62, 68
14, 60831, Note_on_c, 13, 62, 0
14, 60840, Note_on_c, 13, 61, 68
14, 60840, Control_c, 13, 11, 96
14, 60900, Control_c, 13, 11, 99
14, 60959, Note_on_c, 13, 61, 0
14, 60960, Control_c, 13, 11, 101
14, 60960, Note_on_c, 13, 59, 68
14, 61020, Control_c, 13, 11, 104
14, 61079, Note_on_c, 13, 59, 0
14, 61080, Control_c, 13, 11, 106
14, 61080, Note_on_c, 13, 57, 68
14, 61140, Control_c, 13, 11, 109
14, 61191, Note_on_c, 13, 57, 0
14, 61200, Note_on_c, 13, 56, 68
14, 61200, Control_c, 13, 11, 112
14, 61260, Control_c, 13, 11, 114
14, 61320, Control_c, 13, 11, 117
14, 61380, Control_c, 13, 11, 119
14, 61439, Note_on_c, 13, 56, 0
14, 61440, Note_on_c, 13, 58, 68
14, 61440, Control_c, 13, 11, 122
14, 61500, Control_c, 13, 11, 124
14, 61551, Note_on_c, 13, 58, 0
14, 61556, Control_c, 13, 11, 96
14, 61560, Note_on_c, 13, 59, 68
14, 61649, Note_on_c, 13, 59, 0
14, 61680, Note_on_c, 13, 59, 68
14, 61769, Note_on_c, 13, 59, 0
14, 61800, Note_on_c, 13, 59, 68
14, 61889, Note_on_c, 13, 59, 0
14, 61920, Note_on_c, 13, 64, 68
14, 62031, Note_on_c, 13, 64, 0
14, 62040, Note_on_c, 13, 52, 68
14, 62159, Note_on_c, 13, 52, 0
14, 62280, Note_on_c, 13, 62, 68
14, 62399, Note_on_c, 13, 62, 0
14, 62400, Note_on_c, 13, 61, 68
14, 62519, Note_on_c, 13, 61, 0
14, 62520, Note_on_c, 13, 56, 68
14, 62759, Note_on_c, 13, 56, 0
14, 62760, Note_on_c, 13, 57, 68
14, 62879, Note_on_c, 13, 57, 0
14, 63000, Note_on_c, 13, 64, 68
14, 63119, Note_on_c, 13, 64, 0
14, 63120, Note_on_c, 13, 62, 68
14, 63239, Note_on_c, 13, 62, 0
14, 63240, Note_on_c, 13, 58, 68
14, 63479, Note_on_c, 13, 58, 0
14, 63480, Note_on_c, 13, 59, 68
14, 63591, Note_on_c, 13, 59, 0
14, 63600, Note_on_c, 13, 59, 68
14, 63711, Note_on_c, 13, 59, 0
14, 63720, Control_c, 13, 11, 96
14, 63720, Note_on_c, 13, 59, 68
14, 63750, Control_c, 13, 11, 99
14, 63780, Control_c, 13, 11, 101
14, 63810, Control_c, 13, 11, 104
14, 63840, Control_c, 13, 11, 106
14, 63870, Control_c, 13, 11, 109
14, 63900, Control_c, 13, 11, 112
14, 63930, Control_c, 13, 11, 114
14, 63959, Note_on_c, 13, 59, 0
14, 63960, Note_on_c, 13, 61, 68
14, 63960, Control_c, 13, 11, 117
14, 63990, Control_c, 13, 11, 119
14, 64019, Note_on_c, 13, 61, 0
14, 64020, Control_c, 13, 11, 122
14, 64020, Note_on_c, 13, 62, 68
14, 64050, Control_c, 13, 11, 124
14, 64075, Note_on_c, 13, 62, 0
14, 64080, Control_c, 13, 11, 127
14, 64080, Note_on_c, 13, 62, 76
14, 64110, Control_c, 13, 11, 124
14, 64140, Control_c, 13, 11, 122
14, 64170, Control_c, 13, 11, 119
14, 64200, Control_c, 13, 11, 117
14, 64230, Control_c, 13, 11, 114
14, 64260, Control_c, 13, 11, 112
14, 64290, Control_c, 13, 11, 109
14, 64319, Note_on_c, 13, 62, 0
14, 64320, Control_c, 13, 11, 106
14, 64320, Note_on_c, 13, 61, 68
14, 64350, Control_c, 13, 11, 104
14, 64380, Control_c, 13, 11, 101
14, 64410, Control_c, 13, 11, 99
14, 64439, Note_on_c, 13, 61, 0
14, 64440, Control_c, 13, 11, 96
14, 64560, Note_on_c, 13, 59, 68
14, 64679, Note_on_c, 13, 59, 0
14, 64680, Note_on_c, 13, 64, 68
14, 64791, Note_on_c, 13, 64, 0
14, 64800, Note_on_c, 13, 57, 68
14, 65039, Note_on_c, 13, 57, 0
14, 65160, Note_on_c, 13, 62, 68
14, 65279, Note_on_c, 13, 62, 0
14, 65280, Note_on_c, 13, 61, 68
14, 65399, Note_on_c, 13, 61, 0
14, 65400, Note_on_c, 13, 52, 68
14, 65511, Note_on_c, 13, 52, 0
14, 65520, Note_on_c, 13, 57, 68
14, 65609, Note_on_c, 13, 57, 0
14, 65640, Note_on_c, 13, 57, 68
14, 65729, Note_on_c, 13, 57, 0
14, 65880, Note_on_c, 13, 64, 68
14, 65999, Note_on_c, 13, 64, 0
14, 66000, Note_on_c, 13, 62, 68
14, 66119, Note_on_c, 13, 62, 0
14, 66120, Note_on_c, 13, 61, 68
14, 66231, Note_on_c, 13, 61, 0
14, 66240, Note_on_c, 13, 56, 68
14, 66359, Note_on_c, 13, 56, 0
14, 66840, Control_c, 13, 11, 127
14, 66960, Note_on_c, 13, 64, 76
14, 66960, Control_c, 13, 11, 127
14, 66990, Control_c, 13, 11, 124
14, 67020, Control_c, 13, 11, 122
14, 67050, Control_c, 13, 11, 119
14, 67079, Note_on_c, 13, 64, 0
14, 67080, Control_c, 13, 11, 117
14, 67080, Note_on_c, 13, 62, 68
14, 67110, Control_c, 13, 11, 114
14, 67140, Control_c, 13, 11, 112
14, 67170, Control_c, 13, 11, 109
14, 67199, Note_on_c, 13, 62, 0
14, 67200, Control_c, 13, 11, 106
14, 67200, Note_on_c, 13, 61, 68
14, 67230, Control_c, 13, 11, 104
14, 67260, Control_c, 13, 11, 101
14, 67290, Control_c, 13, 11, 99
14, 67311, Note_on_c, 13, 61, 0
14, 67320, Control_c, 13, 11, 96
14, 67320, Note_on_c, 13, 59, 68
14, 67409, Note_on_c, 13, 59, 0
14, 67440, Note_on_c, 13, 59, 68
14, 67529, Note_on_c, 13, 59, 0
14, 67560, Note_on_c, 13, 64, 68
14, 67649, Note_on_c, 13, 64, 0
14, 67676, Control_c, 13, 11, 127
14, 67680, Note_on_c, 13, 57, 52
14, 67735, Note_on_c, 13, 57, 0
14, 67740, Note_on_c, 13, 57, 52
14, 67740, Note_on_c, 13, 52, 52
14, 67791, Note_on_c, 13, 57, 0
14, 67791, Note_on_c, 13, 52, 0
14, 67800, Note_on_c, 13, 52, 52
14, 67800, Note_on_c, 13, 57, 52
14, 67851, Note_on_c, 13, 52, 0
14, 67851, Note_on_c, 13, 57, 0
14, 67860, Note_on_c, 13, 52, 52
14, 67860, Note_on_c, 13, 57, 52
14, 67911, Note_on_c, 13, 52, 0
14, 67911, Note_on_c, 13, 57, 0
14, 67920, Note_on_c, 13, 52, 52
14, 67920, Note_on_c, 13, 57, 52
14, 67971, Note_on_c, 13, 52, 0
14, 67971, Note_on_c, 13, 57, 0
14, 67980, Note_on_c, 13, 52, 52
14, 67980, Note_on_c, 13, 57, 52
14, 68031, Note_on_c, 13, 52, 0
14, 68031, Note_on_c, 13, 57, 0
14, 68040, Note_on_c, 13, 57, 52
14, 68040, Note_on_c, 13, 52, 52
14, 68091, Note_on_c, 13, 57, 0
14, 68091, Note_on_c, 13, 52, 0
14, 68100, Note_on_c, 13, 52, 52
14, 68100, Note_on_c, 13, 57, 52
14, 68151, Note_on_c, 13, 52, 0
14, 68151, Note_on_c, 13, 57, 0
14, 68160, Note_on_c, 13, 57, 52
14, 68160, Note_on_c, 13, 52, 52
14, 68211, Note_on_c, 13, 57, 0
14, 68211, Note_on_c, 13, 52, 0
14, 68220, Note_on_c, 13, 57, 52
14, 68220, Note_on_c, 13, 52, 52
14, 68271, Note_on_c, 13, 57, 0
14, 68271, Note_on_c, 13, 52, 0
14, 68280, Note_on_c, 13, 57, 52
14, 68280, Note_on_c, 13, 52, 52
14, 68331, Note_on_c, 13, 57, 0
14, 68331, Note_on_c, 13, 52, 0
14, 68340, Note_on_c, 13, 57, 52
14, 68340, Note_on_c, 13, 52, 52
14, 68391, Note_on_c, 13, 57, 0
14, 68391, Note_on_c, 13, 52, 0
14, 68400, Note_on_c, 13, 52, 52
14, 68400, Note_on_c, 13, 59, 52
14, 68451, Note_on_c, 13, 52, 0
14, 68451, Note_on_c, 13, 59, 0
14, 68460, Note_on_c, 13, 52, 52
14, 68460, Note_on_c, 13, 59, 52
14, 68511, Note_on_c, 13, 52, 0
14, 68511, Note_on_c, 13, 59, 0
14, 68520, Note_on_c, 13, 52, 52
14, 68520, Note_on_c, 13, 59, 52
14, 68571, Note_on_c, 13, 52, 0
14, 68571, Note_on_c, 13, 59, 0
14, 68580, Note_on_c, 13, 52, 52
14, 68580, Note_on_c, 13, 59, 52
14, 68631, Note_on_c, 13, 52, 0
14, 68631, Note_on_c, 13, 59, 0
14, 68640, Note_on_c, 13, 59, 52
14, 68640, Note_on_c, 13, 52, 52
14, 68691, Note_on_c, 13, 59, 0
14, 68691, Note_on_c, 13, 52, 0
14, 68700, Note_on_c, 13, 52, 52
14, 68700, Note_on_c, 13, 59, 52
14, 68751, Note_on_c, 13, 52, 0
14, 68751, Note_on_c, 13, 59, 0
14, 68760, Note_on_c, 13, 52, 52
14, 68760, Note_on_c, 13, 56, 52
14, 68811, Note_on_c, 13, 52, 0
14, 68811, Note_on_c, 13, 56, 0
14, 68820, Note_on_c, 13, 52, 52
14, 68820, Note_on_c, 13, 56, 52
14, 68871, Note_on_c, 13, 52, 0
14, 68871, Note_on_c, 13, 56, 0
14, 68880, Note_on_c, 13, 52, 52
14, 68880, Note_on_c, 13, 56, 52
14, 68931, Note_on_c, 13, 52, 0
14, 68931, Note_on_c, 13, 56, 0
14, 68940, Note_on_c, 13, 56, 52
14, 68940, Note_on_c, 13, 52, 52
14, 68991, Note_on_c, 13, 56, 0
14, 68991, Note_on_c, 13, 52, 0
14, 69000, Note_on_c, 13, 56, 52
14, 69000, Note_on_c, 13, 52, 52
14, 69051, Note_on_c, 13, 56, 0
14, 69051, Note_on_c, 13, 52, 0
14, 69060, Note_on_c, 13, 52, 52
14, 69060, Note_on_c, 13, 56, 52
14, 69111, Note_on_c, 13, 52, 0
14, 69111, Note_on_c, 13, 56, 0
14, 69120, Note_on_c, 13, 52, 52
14, 69120, Note_on_c, 13, 57, 52
14, 69171, Note_on_c, 13, 52, 0
14, 69171, Note_on_c, 13, 57, 0
14, 69180, Note_on_c, 13, 57, 52
14, 69180, Note_on_c, 13, 52, 52
14, 69231, Note_on_c, 13, 57, 0
14, 69231, Note_on_c, 13, 52, 0
14, 69240, Note_on_c, 13, 57, 52
14, 69240, Note_on_c, 13, 52, 52
14, 69291, Note_on_c, 13, 57, 0
14, 69291, Note_on_c, 13, 52, 0
14, 69300, Note_on_c, 13, 52, 52
14, 69300, Note_on_c, 13, 57, 52
14, 69351, Note_on_c, 13, 52, 0
14, 69351, Note_on_c, 13, 57, 0
14, 69360, Note_on_c, 13, 57, 52
14, 69360, Note_on_c, 13, 52, 52
14, 69411, Note_on_c, 13, 57, 0
14, 69411, Note_on_c, 13, 52, 0
14, 69420, Note_on_c, 13, 57, 52
14, 69420, Note_on_c, 13, 52, 52
14, 69471, Note_on_c, 13, 57, 0
14, 69471, Note_on_c, 13, 52, 0
14, 69480, Note_on_c, 13, 57, 52
14, 69480, Note_on_c, 13, 52, 52
14, 69531, Note_on_c, 13, 57, 0
14, 69531, Note_on_c, 13, 52, 0
14, 69540, Note_on_c, 13, 57, 52
14, 69540, Note_on_c, 13, 52, 52
14, 69591, Note_on_c, 13, 57, 0
14, 69591, Note_on_c, 13, 52, 0
14, 69600, Note_on_c, 13, 57, 52
14, 69600, Note_on_c, 13, 52, 52
14, 69651, Note_on_c, 13, 57, 0
14, 69651, Note_on_c, 13, 52, 0
14, 69660, Note_on_c, 13, 57, 52
14, 69660, Note_on_c, 13, 52, 52
14, 69711, Note_on_c, 13, 57, 0
14, 69711, Note_on_c, 13, 52, 0
14, 69720, Note_on_c, 13, 57, 52
14, 69720, Note_on_c, 13, 52, 52
14, 69771, Note_on_c, 13, 57, 0
14, 69771, Note_on_c, 13, 52, 0
14, 69780, Note_on_c, 13, 57, 52
14, 69780, Note_on_c, 13, 52, 52
14, 69831, Note_on_c, 13, 57, 0
14, 69831, Note_on_c, 13, 52, 0
14, 69840, Note_on_c, 13, 56, 52
14, 69840, Note_on_c, 13, 52, 52
14, 69891, Note_on_c, 13, 56, 0
14, 69891, Note_on_c, 13, 52, 0
14, 69900, Note_on_c, 13, 56, 52
14, 69900, Note_on_c, 13, 52, 52
14, 69951, Note_on_c, 13, 56, 0
14, 69951, Note_on_c, 13, 52, 0
14, 69960, Note_on_c, 13, 56, 52
14, 69960, Note_on_c, 13, 52, 52
14, 70011, Note_on_c, 13, 56, 0
14, 70011, Note_on_c, 13, 52, 0
14, 70020, Note_on_c, 13, 56, 52
14, 70020, Note_on_c, 13, 52, 52
14, 70071, Note_on_c, 13, 56, 0
14, 70071, Note_on_c, 13, 52, 0
14, 70080, Note_on_c, 13, 56, 52
14, 70080, Note_on_c, 13, 52, 52
14, 70131, Note_on_c, 13, 56, 0
14, 70131, Note_on_c, 13, 52, 0
14, 70140, Note_on_c, 13, 56, 52
14, 70140, Note_on_c, 13, 52, 52
14, 70191, Note_on_c, 13, 56, 0
14, 70191, Note_on_c, 13, 52, 0
14, 70200, Note_on_c, 13, 56, 52
14, 70200, Note_on_c, 13, 52, 52
14, 70251, Note_on_c, 13, 56, 0
14, 70251, Note_on_c, 13, 52, 0
14, 70260, Note_on_c, 13, 56, 52
14, 70260, Note_on_c, 13, 52, 52
14, 70311, Note_on_c, 13, 56, 0
14, 70311, Note_on_c, 13, 52, 0
14, 70320, Note_on_c, 13, 56, 52
14, 70320, Note_on_c, 13, 52, 52
14, 70371, Note_on_c, 13, 56, 0
14, 70371, Note_on_c, 13, 52, 0
14, 70380, Note_on_c, 13, 56, 52
14, 70380, Note_on_c, 13, 52, 52
14, 70431, Note_on_c, 13, 56, 0
14, 70431, Note_on_c, 13, 52, 0
14, 70440, Note_on_c, 13, 56, 52
14, 70440, Note_on_c, 13, 52, 52
14, 70491, Note_on_c, 13, 56, 0
14, 70491, Note_on_c, 13, 52, 0
14, 70500, Note_on_c, 13, 56, 52
14, 70500, Note_on_c, 13, 52, 52
14, 70551, Note_on_c, 13, 56, 0
14, 70551, Note_on_c, 13, 52, 0
14, 70560, Note_on_c, 13, 57, 52
14, 70560, Note_on_c, 13, 52, 52
14, 70611, Note_on_c, 13, 57, 0
14, 70611, Note_on_c, 13, 52, 0
14, 70620, Note_on_c, 13, 57, 52
14, 70620, Note_on_c, 13, 52, 52
14, 70671, Note_on_c, 13, 57, 0
14, 70671, Note_on_c, 13, 52, 0
14, 70680, Note_on_c, 13, 57, 52
14, 70680, Note_on_c, 13, 52, 52
14, 70731, Note_on_c, 13, 57, 0
14, 70731, Note_on_c, 13, 52, 0
14, 70740, Note_on_c, 13, 57, 52
14, 70740, Note_on_c, 13, 52, 52
14, 70791, Note_on_c, 13, 57, 0
14, 70791, Note_on_c, 13, 52, 0
14, 70800, Note_on_c, 13, 57, 52
14, 70800, Note_on_c, 13, 52, 52
14, 70851, Note_on_c, 13, 57, 0
14, 70851, Note_on_c, 13, 52, 0
14, 70860, Note_on_c, 13, 57, 52
14, 70860, Note_on_c, 13, 52, 52
14, 70911, Note_on_c, 13, 57, 0
14, 70911, Note_on_c, 13, 52, 0
14, 70920, Note_on_c, 13, 60, 76
14, 70971, Note_on_c, 13, 60, 0
14, 70980, Note_on_c, 13, 60, 76
14, 71031, Note_on_c, 13, 60, 0
14, 71040, Note_on_c, 13, 60, 76
14, 71091, Note_on_c, 13, 60, 0
14, 71100, Note_on_c, 13, 60, 76
14, 71151, Note_on_c, 13, 60, 0
14, 71160, Note_on_c, 13, 60, 76
14, 71211, Note_on_c, 13, 60, 0
14, 71220, Note_on_c, 13, 60, 76
14, 71271, Note_on_c, 13, 60, 0
14, 71280, Note_on_c, 13, 61, 52
14, 71280, Note_on_c, 13, 58, 52
14, 71331, Note_on_c, 13, 61, 0
14, 71331, Note_on_c, 13, 58, 0
14, 71340, Note_on_c, 13, 61, 52
14, 71340, Note_on_c, 13, 58, 52
14, 71391, Note_on_c, 13, 61, 0
14, 71391, Note_on_c, 13, 58, 0
14, 71400, Note_on_c, 13, 61, 52
14, 71400, Note_on_c, 13, 58, 52
14, 71451, Note_on_c, 13, 61, 0
14, 71451, Note_on_c, 13, 58, 0
14, 71460, Note_on_c, 13, 61, 52
14, 71460, Note_on_c, 13, 58, 52
14, 71511, Note_on_c, 13, 61, 0
14, 71511, Note_on_c, 13, 58, 0
14, 71520, Note_on_c, 13, 61, 52
14, 71520, Note_on_c, 13, 58, 52
14, 71571, Note_on_c, 13, 61, 0
14, 71571, Note_on_c, 13, 58, 0
14, 71580, Note_on_c, 13, 61, 52
14, 71580, Note_on_c, 13, 58, 52
14, 71631, Note_on_c, 13, 61, 0
14, 71631, Note_on_c, 13, 58, 0
14, 71640, Note_on_c, 13, 57, 76
14, 71640, Note_on_c, 13, 53, 76
14, 71691, Note_on_c, 13, 57, 0
14, 71691, Note_on_c, 13, 53, 0
14, 71700, Note_on_c, 13, 57, 76
14, 71700, Note_on_c, 13, 53, 76
14, 71751, Note_on_c, 13, 57, 0
14, 71751, Note_on_c, 13, 53, 0
14, 71760, Note_on_c, 13, 57, 76
14, 71760, Note_on_c, 13, 53, 76
14, 71811, Note_on_c, 13, 57, 0
14, 71811, Note_on_c, 13, 53, 0
14, 71820, Note_on_c, 13, 57, 76
14, 71820, Note_on_c, 13, 53, 76
14, 71871, Note_on_c, 13, 57, 0
14, 71871, Note_on_c, 13, 53, 0
14, 71880, Note_on_c, 13, 57, 76
14, 71880, Note_on_c, 13, 53, 76
14, 71931, Note_on_c, 13, 57, 0
14, 71931, Note_on_c, 13, 53, 0
14, 71940, Note_on_c, 13, 57, 76
14, 71940, Note_on_c, 13, 53, 76
14, 71991, Note_on_c, 13, 57, 0
14, 71991, Note_on_c, 13, 53, 0
14, 72000, Note_on_c, 13, 55, 52
14, 72000, Note_on_c, 13, 52, 52
14, 72051, Note_on_c, 13, 55, 0
14, 72051, Note_on_c, 13, 52, 0
14, 72060, Note_on_c, 13, 55, 52
14, 72060, Note_on_c, 13, 52, 52
14, 72111, Note_on_c, 13, 55, 0
14, 72111, Note_on_c, 13, 52, 0
14, 72120, Note_on_c, 13, 55, 52
14, 72120, Note_on_c, 13, 52, 52
14, 72171, Note_on_c, 13, 55, 0
14, 72171, Note_on_c, 13, 52, 0
14, 72180, Note_on_c, 13, 55, 52
14, 72180, Note_on_c, 13, 52, 52
14, 72231, Note_on_c, 13, 55, 0
14, 72231, Note_on_c, 13, 52, 0
14, 72240, Note_on_c, 13, 55, 52
14, 72240, Note_on_c, 13, 52, 52
14, 72291, Note_on_c, 13, 55, 0
14, 72291, Note_on_c, 13, 52, 0
14, 72300, Note_on_c, 13, 55, 52
14, 72300, Note_on_c, 13, 52, 52
14, 72351, Note_on_c, 13, 55, 0
14, 72351, Note_on_c, 13, 52, 0
14, 72480, Note_on_c, 13, 50, 76
14, 72569, Note_on_c, 13, 50, 0
14, 72570, Note_on_c, 13, 53, 52
14, 72595, Note_on_c, 13, 53, 0
14, 72600, Note_on_c, 13, 58, 52
14, 72689, Note_on_c, 13, 58, 0
14, 72840, Note_on_c, 13, 51, 76
14, 72929, Note_on_c, 13, 51, 0
14, 72930, Note_on_c, 13, 57, 52
14, 72955, Note_on_c, 13, 57, 0
14, 72960, Note_on_c, 13, 60, 52
14, 73049, Note_on_c, 13, 60, 0
14, 73080, Note_on_c, 13, 64, 52
14, 73199, Note_on_c, 13, 64, 0
14, 73440, Note_on_c, 13, 67, 52
14, 73484, Note_on_c, 13, 67, 0
14, 73500, Note_on_c, 13, 71, 76
14, 73611, Note_on_c, 13, 71, 0
14, 73620, Note_on_c, 13, 71, 52
14, 73664, Note_on_c, 13, 71, 0
14, 73680, Note_on_c, 13, 69, 52
14, 73724, Note_on_c, 13, 69, 0
14, 73740, Note_on_c, 13, 69, 52
14, 73784, Note_on_c, 13, 69, 0
14, 73800, Note_on_c, 13, 68, 52
14, 73889, Note_on_c, 13, 68, 0
14, 74160, Note_on_c, 13, 68, 52
14, 74204, Note_on_c, 13, 68, 0
14, 74220, Note_on_c, 13, 71, 76
14, 74331, Note_on_c, 13, 71, 0
14, 74340, Note_on_c, 13, 71, 52
14, 74384, Note_on_c, 13, 71, 0
14, 74400, Note_on_c, 13, 69, 52
14, 74444, Note_on_c, 13, 69, 0
14, 74460, Note_on_c, 13, 69, 52
14, 74504, Note_on_c, 13, 69, 0
14, 74520, Note_on_c, 13, 68, 52
14, 74564, Note_on_c, 13, 68, 0
14, 74580, Note_on_c, 13, 71, 76
14, 74691, Note_on_c, 13, 71, 0
14, 74700, Note_on_c, 13, 71, 52
14, 74744, Note_on_c, 13, 71, 0
14, 74760, Note_on_c, 13, 69, 52
14, 74804, Note_on_c, 13, 69, 0
14, 74820, Note_on_c, 13, 69, 52
14, 74864, Note_on_c, 13, 69, 0
14, 74880, Note_on_c, 13, 64, 84
14, 74924, Note_on_c, 13, 64, 0
14, 74940, Note_on_c, 13, 64, 84
14, 74984, Note_on_c, 13, 64, 0
14, 75000, Note_on_c, 13, 68, 84
14, 75044, Note_on_c, 13, 68, 0
14, 75060, Note_on_c, 13, 64, 84
14, 75104, Note_on_c, 13, 64, 0
14, 75120, Note_on_c, 13, 69, 84
14, 75164, Note_on_c, 13, 69, 0
14, 75180, Note_on_c, 13, 57, 84
14, 75224, Note_on_c, 13, 57, 0
14, 75240, Note_on_c, 13, 64, 84
14, 75359, Note_on_c, 13, 64, 0
14, 75960, Note_on_c, 13, 52, 52
14, 76011, Note_on_c, 13, 52, 0
14, 76020, Note_on_c, 13, 52, 52
14, 76071, Note_on_c, 13, 52, 0
14, 76080, Note_on_c, 13, 52, 52
14, 76131, Note_on_c, 13, 52, 0
14, 76140, Note_on_c, 13, 52, 52
14, 76191, Note_on_c, 13, 52, 0
14, 76200, Note_on_c, 13, 52, 52
14, 76251, Note_on_c, 13, 52, 0
14, 76260, Note_on_c, 13, 52, 52
14, 76311, Note_on_c, 13, 52, 0
14, 76320, Note_on_c, 13, 52, 52
14, 76371, Note_on_c, 13, 52, 0
14, 76380, Note_on_c, 13, 52, 52
14, 76431, Note_on_c, 13, 52, 0
14, 76440, Note_on_c, 13, 52, 52
14, 76491, Note_on_c, 13, 52, 0
14, 76500, Note_on_c, 13, 52, 52
14, 76551, Note_on_c, 13, 52, 0
14, 76560, Note_on_c, 13, 52, 52
14, 76611, Note_on_c, 13, 52, 0
14, 76620, Note_on_c, 13, 52, 52
14, 76671, Note_on_c, 13, 52, 0
14, 76680, Note_on_c, 13, 52, 52
14, 76731, Note_on_c, 13, 52, 0
14, 76740, Note_on_c, 13, 52, 52
14, 76791, Note_on_c, 13, 52, 0
14, 76800, Note_on_c, 13, 52, 52
14, 76851, Note_on_c, 13, 52, 0
14, 76860, Note_on_c, 13, 52, 52
14, 76911, Note_on_c, 13, 52, 0
14, 76920, Note_on_c, 13, 52, 52
14, 76971, Note_on_c, 13, 52, 0
14, 76980, Note_on_c, 13, 52, 52
14, 77031, Note_on_c, 13, 52, 0
14, 77036, Control_c, 13, 11, 96
14, 77040, Note_on_c, 13, 52, 68
14, 77070, Control_c, 13, 11, 99
14, 77084, Note_on_c, 13, 52, 0
14, 77100, Note_on_c, 13, 64, 68
14, 77100, Control_c, 13, 11, 101
14, 77130, Control_c, 13, 11, 104
14, 77144, Note_on_c, 13, 64, 0
14, 77160, Control_c, 13, 11, 106
14, 77160, Note_on_c, 13, 61, 68
14, 77190, Control_c, 13, 11, 109
14, 77204, Note_on_c, 13, 61, 0
14, 77220, Control_c, 13, 11, 112
14, 77220, Note_on_c, 13, 64, 68
14, 77250, Control_c, 13, 11, 114
14, 77264, Note_on_c, 13, 64, 0
14, 77280, Note_on_c, 13, 61, 68
14, 77280, Control_c, 13, 11, 117
14, 77310, Control_c, 13, 11, 119
14, 77324, Note_on_c, 13, 61, 0
14, 77340, Note_on_c, 13, 57, 68
14, 77340, Control_c, 13, 11, 122
14, 77370, Control_c, 13, 11, 124
14, 77384, Note_on_c, 13, 57, 0
14, 77400, Control_c, 13, 11, 127
14, 77400, Note_on_c, 13, 52, 52
14, 77451, Note_on_c, 13, 52, 0
14, 77460, Note_on_c, 13, 52, 52
14, 77511, Note_on_c, 13, 52, 0
14, 77520, Note_on_c, 13, 52, 52
14, 77571, Note_on_c, 13, 52, 0
14, 77580, Note_on_c, 13, 52, 52
14, 77631, Note_on_c, 13, 52, 0
14, 77640, Note_on_c, 13, 52, 52
14, 77691, Note_on_c, 13, 52, 0
14, 77700, Note_on_c, 13, 52, 52
14, 77751, Note_on_c, 13, 52, 0
14, 77760, Note_on_c, 13, 52, 52
14, 77811, Note_on_c, 13, 52, 0
14, 77820, Note_on_c, 13, 52, 52
14, 77871, Note_on_c, 13, 52, 0
14, 77880, Note_on_c, 13, 52, 52
14, 77931, Note_on_c, 13, 52, 0
14, 77940, Note_on_c, 13, 52, 52
14, 77991, Note_on_c, 13, 52, 0
14, 78000, Note_on_c, 13, 52, 52
14, 78051, Note_on_c, 13, 52, 0
14, 78060, Note_on_c, 13, 52, 52
14, 78111, Note_on_c, 13, 52, 0
14, 78120, Note_on_c, 13, 52, 52
14, 78171, Note_on_c, 13, 52, 0
14, 78180, Note_on_c, 13, 52, 52
14, 78231, Note_on_c, 13, 52, 0
14, 78240, Note_on_c, 13, 52, 52
14, 78291, Note_on_c, 13, 52, 0
14, 78300, Note_on_c, 13, 52, 52
14, 78351, Note_on_c, 13, 52, 0
14, 78360, Note_on_c, 13, 52, 52
14, 78411, Note_on_c, 13, 52, 0
14, 78420, Note_on_c, 13, 52, 52
14, 78471, Note_on_c, 13, 52, 0
14, 78480, Note_on_c, 13, 57, 52
14, 78599, Note_on_c, 13, 57, 0
14, 78720, Control_c, 13, 11, 80
14, 78780, Note_on_c, 13, 64, 76
14, 78824, Note_on_c, 13, 64, 0
14, 78840, Note_on_c, 13, 66, 76
14, 78840, Control_c, 13, 11, 80
14, 78884, Note_on_c, 13, 66, 0
14, 78900, Note_on_c, 13, 64, 76
14, 78910, Control_c, 13, 11, 84
14, 78944, Note_on_c, 13, 64, 0
14, 78960, Note_on_c, 13, 66, 76
14, 78980, Control_c, 13, 11, 88
14, 79050, Control_c, 13, 11, 92
14, 79120, Control_c, 13, 11, 96
14, 79135, Note_on_c, 13, 66, 0
14, 79140, Note_on_c, 13, 66, 76
14, 79184, Note_on_c, 13, 66, 0
14, 79190, Control_c, 13, 11, 100
14, 79200, Note_on_c, 13, 67, 76
14, 79244, Note_on_c, 13, 67, 0
14, 79260, Note_on_c, 13, 66, 76
14, 79260, Control_c, 13, 11, 104
14, 79304, Note_on_c, 13, 66, 0
14, 79320, Note_on_c, 13, 67, 76
14, 79330, Control_c, 13, 11, 107
14, 79400, Control_c, 13, 11, 111
14, 79470, Control_c, 13, 11, 115
14, 79495, Note_on_c, 13, 67, 0
14, 79500, Note_on_c, 13, 67, 76
14, 79540, Control_c, 13, 11, 119
14, 79544, Note_on_c, 13, 67, 0
14, 79560, Note_on_c, 13, 69, 76
14, 79604, Note_on_c, 13, 69, 0
14, 79610, Control_c, 13, 11, 123
14, 79620, Note_on_c, 13, 68, 76
14, 79664, Note_on_c, 13, 68, 0
14, 79680, Control_c, 13, 11, 127
14, 79680, Note_on_c, 13, 69, 76
14, 79855, Note_on_c, 13, 69, 0
14, 79860, Note_on_c, 13, 69, 76
14, 79904, Note_on_c, 13, 69, 0
14, 79920, Note_on_c, 13, 71, 76
14, 80095, Note_on_c, 13, 71, 0
14, 80100, Note_on_c, 13, 64, 52
14, 80144, Note_on_c, 13, 64, 0
14, 80160, Note_on_c, 13, 64, 52
14, 80204, Note_on_c, 13, 64, 0
14, 80220, Note_on_c, 13, 64, 52
14, 80264, Note_on_c, 13, 64, 0
14, 80280, Note_on_c, 13, 62, 52
14, 80455, Note_on_c, 13, 62, 0
14, 80460, Note_on_c, 13, 66, 76
14, 80504, Note_on_c, 13, 66, 0
14, 80520, Note_on_c, 13, 64, 76
14, 80564, Note_on_c, 13, 64, 0
14, 80580, Note_on_c, 13, 62, 76
14, 80624, Note_on_c, 13, 62, 0
14, 80640, Note_on_c, 13, 64, 84
14, 80640, Control_c, 13, 11, 127
14, 80670, Control_c, 13, 11, 123
14, 80700, Control_c, 13, 11, 119
14, 80729, Note_on_c, 13, 64, 0
14, 80730, Control_c, 13, 11, 115
14, 80760, Control_c, 13, 11, 111
14, 80760, Note_on_c, 13, 52, 76
14, 80790, Control_c, 13, 11, 107
14, 80820, Control_c, 13, 11, 104
14, 80849, Note_on_c, 13, 52, 0
14, 80850, Control_c, 13, 11, 100
14, 80880, Control_c, 13, 11, 96
14, 80880, Note_on_c, 13, 52, 76
14, 80910, Control_c, 13, 11, 92
14, 80940, Control_c, 13, 11, 88
14, 80969, Note_on_c, 13, 52, 0
14, 80970, Control_c, 13, 11, 84
14, 81000, Control_c, 13, 11, 80
14, 81000, Note_on_c, 13, 57, 76
14, 81119, Note_on_c, 13, 57, 0
14, 81300, Note_on_c, 13, 61, 76
14, 81344, Note_on_c, 13, 61, 0
14, 81360, Note_on_c, 13, 62, 76
14, 81360, Control_c, 13, 11, 80
14, 81404, Note_on_c, 13, 62, 0
14, 81420, Note_on_c, 13, 61, 76
14, 81430, Control_c, 13, 11, 84
14, 81464, Note_on_c, 13, 61, 0
14, 81480, Note_on_c, 13, 62, 76
14, 81500, Control_c, 13, 11, 88
14, 81570, Control_c, 13, 11, 92
14, 81640, Control_c, 13, 11, 96
14, 81655, Note_on_c, 13, 62, 0
14, 81660, Note_on_c, 13, 62, 76
14, 81710, Control_c, 13, 11, 100
14, 81715, Note_on_c, 13, 62, 0
14, 81720, Note_on_c, 13, 64, 76
14, 81764, Note_on_c, 13, 64, 0
14, 81780, Note_on_c, 13, 63, 76
14, 81780, Control_c, 13, 11, 104
14, 81824, Note_on_c, 13, 63, 0
14, 81840, Note_on_c, 13, 64, 76
14, 81850, Control_c, 13, 11, 107
14, 81920, Control_c, 13, 11, 111
14, 81990, Control_c, 13, 11, 115
14, 82015, Note_on_c, 13, 64, 0
14, 82020, Note_on_c, 13, 64, 76
14, 82060, Control_c, 13, 11, 119
14, 82064, Note_on_c, 13, 64, 0
14, 82080, Note_on_c, 13, 66, 76
14, 82124, Note_on_c, 13, 66, 0
14, 82130, Control_c, 13, 11, 123
14, 82140, Note_on_c, 13, 65, 76
14, 82184, Note_on_c, 13, 65, 0
14, 82200, Control_c, 13, 11, 127
14, 82200, Note_on_c, 13, 66, 76
14, 82375, Note_on_c, 13, 66, 0
14, 82380, Note_on_c, 13, 69, 76
14, 82424, Note_on_c, 13, 69, 0
14, 82440, Note_on_c, 13, 71, 84
14, 82619, Note_on_c, 13, 71, 0
14, 82980, Note_on_c, 13, 66, 52
14, 83039, Note_on_c, 13, 66, 0
14, 83040, Note_on_c, 13, 65, 52
14, 83099, Note_on_c, 13, 65, 0
14, 83100, Note_on_c, 13, 61, 52
14, 83155, Note_on_c, 13, 61, 0
14, 83160, Note_on_c, 13, 62, 52
14, 83339, Note_on_c, 13, 62, 0
14, 83580, Note_on_c, 13, 57, 52
14, 83631, Note_on_c, 13, 57, 0
14, 83640, Note_on_c, 13, 57, 52
14, 83691, Note_on_c, 13, 57, 0
14, 83700, Note_on_c, 13, 57, 52
14, 83751, Note_on_c, 13, 57, 0
14, 83760, Note_on_c, 13, 57, 52
14, 83811, Note_on_c, 13, 57, 0
14, 84000, Control_c, 13, 11, 80
14, 84060, Note_on_c, 13, 57, 76
14, 84111, Note_on_c, 13, 57, 0
14, 84120, Note_on_c, 13, 57, 76
14, 84171, Note_on_c, 13, 57, 0
14, 84180, Note_on_c, 13, 57, 76
14, 84231, Note_on_c, 13, 57, 0
14, 84240, Note_on_c, 13, 57, 76
14, 84240, Control_c, 13, 11, 80
14, 84284, Note_on_c, 13, 57, 0
14, 84285, Control_c, 13, 11, 84
14, 84300, Note_on_c, 13, 57, 76
14, 84330, Control_c, 13, 11, 88
14, 84359, Note_on_c, 13, 57, 0
14, 84360, Note_on_c, 13, 59, 76
14, 84375, Control_c, 13, 11, 92
14, 84419, Note_on_c, 13, 59, 0
14, 84420, Control_c, 13, 11, 96
14, 84420, Note_on_c, 13, 61, 76
14, 84465, Control_c, 13, 11, 100
14, 84479, Note_on_c, 13, 61, 0
14, 84480, Note_on_c, 13, 62, 76
14, 84510, Control_c, 13, 11, 104
14, 84524, Note_on_c, 13, 62, 0
14, 84540, Note_on_c, 13, 57, 76
14, 84555, Control_c, 13, 11, 107
14, 84599, Note_on_c, 13, 57, 0
14, 84600, Control_c, 13, 11, 111
14, 84600, Note_on_c, 13, 59, 76
14, 84645, Control_c, 13, 11, 115
14, 84659, Note_on_c, 13, 59, 0
14, 84660, Note_on_c, 13, 61, 76
14, 84690, Control_c, 13, 11, 119
14, 84719, Note_on_c, 13, 61, 0
14, 84720, Note_on_c, 13, 62, 76
14, 84735, Control_c, 13, 11, 123
14, 84764, Note_on_c, 13, 62, 0
14, 84780, Control_c, 13, 11, 127
14, 84780, Note_on_c, 13, 57, 76
14, 84839, Note_on_c, 13, 57, 0
14, 84840, Note_on_c, 13, 59, 76
14, 84899, Note_on_c, 13, 59, 0
14, 84900, Note_on_c, 13, 61, 76
14, 84955, Note_on_c, 13, 61, 0
14, 84960, Note_on_c, 13, 62, 84
14, 85311, Note_on_c, 13, 62, 0
14, 85320, Note_on_c, 13, 59, 84
14, 85671, Note_on_c, 13, 59, 0
14, 85680, Note_on_c, 13, 59, 76
14, 85746, Note_on_c, 13, 59, 0
14, 85770, Note_on_c, 13, 59, 76
14, 85791, Note_on_c, 13, 59, 0
14, 85800, Note_on_c, 13, 59, 76
14, 85889, Note_on_c, 13, 59, 0
14, 86040, Note_on_c, 13, 61, 76
14, 86106, Note_on_c, 13, 61, 0
14, 86130, Note_on_c, 13, 61, 76
14, 86151, Note_on_c, 13, 61, 0
14, 86160, Note_on_c, 13, 61, 76
14, 86249, Note_on_c, 13, 61, 0
14, 86400, Note_on_c, 13, 62, 52
14, 86489, Note_on_c, 13, 62, 0
14, 86520, Note_on_c, 13, 64, 52
14, 86609, Note_on_c, 13, 64, 0
14, 86640, Note_on_c, 13, 64, 52
14, 86729, Note_on_c, 13, 64, 0
14, 86760, Note_on_c, 13, 57, 52
14, 86879, Note_on_c, 13, 57, 0
14, 87120, Note_on_c, 13, 59, 44
14, 87186, Note_on_c, 13, 59, 0
14, 87210, Note_on_c, 13, 59, 44
14, 87231, Note_on_c, 13, 59, 0
14, 87240, Note_on_c, 13, 59, 44
14, 87329, Note_on_c, 13, 59, 0
14, 87480, Note_on_c, 13, 57, 44
14, 87546, Note_on_c, 13, 57, 0
14, 87570, Note_on_c, 13, 57, 44
14, 87591, Note_on_c, 13, 57, 0
14, 87600, Note_on_c, 13, 57, 44
14, 87689, Note_on_c, 13, 57, 0
14, 87900, Note_on_c, 13, 62, 44
14, 87929, Note_on_c, 13, 62, 0
14, 87930, Note_on_c, 13, 66, 44
14, 87959, Note_on_c, 13, 66, 0
14, 88020, Note_on_c, 13, 61, 44
14, 88049, Note_on_c, 13, 61, 0
14, 88050, Note_on_c, 13, 64, 44
14, 88079, Note_on_c, 13, 64, 0
14, 88140, Note_on_c, 13, 59, 44
14, 88169, Note_on_c, 13, 59, 0
14, 88170, Note_on_c, 13, 62, 44
14, 88195, Note_on_c, 13, 62, 0
14, 88200, Note_on_c, 13, 61, 44
14, 88255, Note_on_c, 13, 61, 0
14, 88260, Note_on_c, 13, 64, 44
14, 88311, Note_on_c, 13, 64, 0
14, 88320, Note_on_c, 13, 64, 44
14, 88371, Note_on_c, 13, 64, 0
14, 88380, Note_on_c, 13, 64, 44
14, 88431, Note_on_c, 13, 64, 0
14, 88440, Note_on_c, 13, 64, 44
14, 88491, Note_on_c, 13, 64, 0
14, 88500, Note_on_c, 13, 64, 44
14, 88551, Note_on_c, 13, 64, 0
14, 88560, Note_on_c, 13, 64, 44
14, 88611, Note_on_c, 13, 64, 0
14, 88620, Note_on_c, 13, 64, 44
14, 88671, Note_on_c, 13, 64, 0
14, 88680, Note_on_c, 13, 64, 44
14, 88731, Note_on_c, 13, 64, 0
14, 88740, Note_on_c, 13, 64, 44
14, 88791, Note_on_c, 13, 64, 0
14, 88800, Note_on_c, 13, 64, 44
14, 88851, Note_on_c, 13, 64, 0
14, 88860, Note_on_c, 13, 64, 44
14, 88911, Note_on_c, 13, 64, 0
14, 88920, Note_on_c, 13, 62, 44
14, 88920, Note_on_c, 13, 66, 44
14, 88971, Note_on_c, 13, 62, 0
14, 88971, Note_on_c, 13, 66, 0
14, 88980, Note_on_c, 13, 66, 44
14, 88980, Note_on_c, 13, 62, 44
14, 89031, Note_on_c, 13, 66, 0
14, 89031, Note_on_c, 13, 62, 0
14, 89040, Note_on_c, 13, 62, 44
14, 89040, Note_on_c, 13, 66, 44
14, 89091, Note_on_c, 13, 62, 0
14, 89091, Note_on_c, 13, 66, 0
14, 89100, Note_on_c, 13, 62, 44
14, 89100, Note_on_c, 13, 66, 44
14, 89151, Note_on_c, 13, 62, 0
14, 89151, Note_on_c, 13, 66, 0
14, 89160, Note_on_c, 13, 62, 44
14, 89160, Note_on_c, 13, 66, 44
14, 89211, Note_on_c, 13, 62, 0
14, 89211, Note_on_c, 13, 66, 0
14, 89220, Note_on_c, 13, 62, 44
14, 89220, Note_on_c, 13, 66, 44
14, 89271, Note_on_c, 13, 62, 0
14, 89271, Note_on_c, 13, 66, 0
14, 89280, Note_on_c, 13, 62, 44
14, 89280, Note_on_c, 13, 64, 44
14, 89331, Note_on_c, 13, 62, 0
14, 89331, Note_on_c, 13, 64, 0
14, 89340, Note_on_c, 13, 62, 44
14, 89340, Note_on_c, 13, 64, 44
14, 89391, Note_on_c, 13, 62, 0
14, 89391, Note_on_c, 13, 64, 0
14, 89400, Note_on_c, 13, 64, 44
14, 89400, Note_on_c, 13, 62, 44
14, 89451, Note_on_c, 13, 64, 0
14, 89451, Note_on_c, 13, 62, 0
14, 89460, Note_on_c, 13, 62, 44
14, 89460, Note_on_c, 13, 64, 44
14, 89511, Note_on_c, 13, 62, 0
14, 89511, Note_on_c, 13, 64, 0
14, 89520, Note_on_c, 13, 62, 44
14, 89520, Note_on_c, 13, 64, 44
14, 89571, Note_on_c, 13, 62, 0
14, 89571, Note_on_c, 13, 64, 0
14, 89580, Note_on_c, 13, 62, 44
14, 89580, Note_on_c, 13, 64, 44
14, 89631, Note_on_c, 13, 62, 0
14, 89631, Note_on_c, 13, 64, 0
14, 89640, Note_on_c, 13, 64, 44
14, 89640, Note_on_c, 13, 61, 44
14, 89691, Note_on_c, 13, 64, 0
14, 89691, Note_on_c, 13, 61, 0
14, 89700, Note_on_c, 13, 64, 44
14, 89751, Note_on_c, 13, 64, 0
14, 89760, Note_on_c, 13, 64, 44
14, 89811, Note_on_c, 13, 64, 0
14, 89820, Note_on_c, 13, 64, 44
14, 89871, Note_on_c, 13, 64, 0
14, 89880, Note_on_c, 13, 64, 44
14, 89931, Note_on_c, 13, 64, 0
14, 89940, Note_on_c, 13, 64, 44
14, 89991, Note_on_c, 13, 64, 0
14, 90000, Note_on_c, 13, 64, 44
14, 90051, Note_on_c, 13, 64, 0
14, 90060, Note_on_c, 13, 64, 44
14, 90111, Note_on_c, 13, 64, 0
14, 90120, Note_on_c, 13, 64, 44
14, 90171, Note_on_c, 13, 64, 0
14, 90180, Note_on_c, 13, 64, 44
14, 90231, Note_on_c, 13, 64, 0
14, 90240, Note_on_c, 13, 64, 44
14, 90291, Note_on_c, 13, 64, 0
14, 90300, Note_on_c, 13, 64, 44
14, 90351, Note_on_c, 13, 64, 0
14, 90360, Note_on_c, 13, 62, 44
14, 90360, Note_on_c, 13, 66, 44
14, 90411, Note_on_c, 13, 62, 0
14, 90411, Note_on_c, 13, 66, 0
14, 90420, Note_on_c, 13, 62, 44
14, 90420, Note_on_c, 13, 66, 44
14, 90471, Note_on_c, 13, 62, 0
14, 90471, Note_on_c, 13, 66, 0
14, 90480, Note_on_c, 13, 66, 44
14, 90480, Note_on_c, 13, 62, 44
14, 90531, Note_on_c, 13, 66, 0
14, 90531, Note_on_c, 13, 62, 0
14, 90540, Note_on_c, 13, 62, 44
14, 90540, Note_on_c, 13, 66, 44
14, 90591, Note_on_c, 13, 62, 0
14, 90591, Note_on_c, 13, 66, 0
14, 90600, Note_on_c, 13, 62, 44
14, 90600, Note_on_c, 13, 66, 44
14, 90651, Note_on_c, 13, 62, 0
14, 90651, Note_on_c, 13, 66, 0
14, 90660, Note_on_c, 13, 66, 44
14, 90660, Note_on_c, 13, 62, 44
14, 90711, Note_on_c, 13, 66, 0
14, 90711, Note_on_c, 13, 62, 0
14, 90720, Note_on_c, 13, 64, 44
14, 90720, Note_on_c, 13, 62, 44
14, 90771, Note_on_c, 13, 64, 0
14, 90771, Note_on_c, 13, 62, 0
14, 90780, Note_on_c, 13, 62, 44
14, 90780, Note_on_c, 13, 64, 44
14, 90831, Note_on_c, 13, 62, 0
14, 90831, Note_on_c, 13, 64, 0
14, 90840, Note_on_c, 13, 64, 44
14, 90840, Note_on_c, 13, 62, 44
14, 90891, Note_on_c, 13, 64, 0
14, 90891, Note_on_c, 13, 62, 0
14, 90900, Note_on_c, 13, 64, 44
14, 90900, Note_on_c, 13, 62, 44
14, 90951, Note_on_c, 13, 64, 0
14, 90951, Note_on_c, 13, 62, 0
14, 90960, Note_on_c, 13, 62, 44
14, 90960, Note_on_c, 13, 64, 44
14, 91011, Note_on_c, 13, 62, 0
14, 91011, Note_on_c, 13, 64, 0
14, 91020, Note_on_c, 13, 64, 44
14, 91020, Note_on_c, 13, 62, 44
14, 91071, Note_on_c, 13, 64, 0
14, 91071, Note_on_c, 13, 62, 0
14, 91080, Note_on_c, 13, 61, 44
14, 91080, Note_on_c, 13, 64, 44
14, 91131, Note_on_c, 13, 61, 0
14, 91131, Note_on_c, 13, 64, 0
14, 91140, Note_on_c, 13, 64, 44
14, 91191, Note_on_c, 13, 64, 0
14, 91200, Note_on_c, 13, 64, 44
14, 91251, Note_on_c, 13, 64, 0
14, 91260, Note_on_c, 13, 64, 44
14, 91311, Note_on_c, 13, 64, 0
14, 91320, Note_on_c, 13, 64, 44
14, 91371, Note_on_c, 13, 64, 0
14, 91380, Note_on_c, 13, 64, 44
14, 91431, Note_on_c, 13, 64, 0
14, 91440, Note_on_c, 13, 64, 44
14, 91440, Note_on_c, 13, 62, 44
14, 91491, Note_on_c, 13, 64, 0
14, 91491, Note_on_c, 13, 62, 0
14, 91500, Note_on_c, 13, 62, 44
14, 91500, Note_on_c, 13, 64, 44
14, 91551, Note_on_c, 13, 62, 0
14, 91551, Note_on_c, 13, 64, 0
14, 91560, Note_on_c, 13, 64, 44
14, 91560, Note_on_c, 13, 62, 44
14, 91611, Note_on_c, 13, 64, 0
14, 91611, Note_on_c, 13, 62, 0
14, 91620, Note_on_c, 13, 62, 44
14, 91620, Note_on_c, 13, 64, 44
14, 91671, Note_on_c, 13, 62, 0
14, 91671, Note_on_c, 13, 64, 0
14, 91680, Note_on_c, 13, 64, 44
14, 91680, Note_on_c, 13, 62, 44
14, 91731, Note_on_c, 13, 64, 0
14, 91731, Note_on_c, 13, 62, 0
14, 91740, Note_on_c, 13, 64, 44
14, 91740, Note_on_c, 13, 62, 44
14, 91791, Note_on_c, 13, 64, 0
14, 91791, Note_on_c, 13, 62, 0
14, 91796, Control_c, 13, 11, 64
14, 91800, Note_on_c, 13, 61, 76
14, 91800, Note_on_c, 13, 64, 76
14, 91851, Note_on_c, 13, 61, 0
14, 91851, Note_on_c, 13, 64, 0
14, 91860, Note_on_c, 13, 64, 76
14, 91911, Note_on_c, 13, 64, 0
14, 91920, Note_on_c, 13, 64, 76
14, 91971, Note_on_c, 13, 64, 0
14, 91980, Note_on_c, 13, 64, 76
14, 92031, Note_on_c, 13, 64, 0
14, 92040, Note_on_c, 13, 64, 76
14, 92091, Note_on_c, 13, 64, 0
14, 92100, Note_on_c, 13, 64, 76
14, 92151, Note_on_c, 13, 64, 0
14, 92160, Note_on_c, 13, 62, 76
14, 92160, Note_on_c, 13, 64, 76
14, 92160, Control_c, 13, 11, 64
14, 92190, Control_c, 13, 11, 69
14, 92211, Note_on_c, 13, 62, 0
14, 92211, Note_on_c, 13, 64, 0
14, 92220, Note_on_c, 13, 62, 76
14, 92220, Note_on_c, 13, 64, 76
14, 92220, Control_c, 13, 11, 75
14, 92250, Control_c, 13, 11, 80
14, 92271, Note_on_c, 13, 62, 0
14, 92271, Note_on_c, 13, 64, 0
14, 92280, Note_on_c, 13, 64, 76
14, 92280, Note_on_c, 13, 62, 76
14, 92280, Control_c, 13, 11, 85
14, 92310, Control_c, 13, 11, 90
14, 92331, Note_on_c, 13, 64, 0
14, 92331, Note_on_c, 13, 62, 0
14, 92340, Note_on_c, 13, 62, 76
14, 92340, Note_on_c, 13, 64, 76
14, 92340, Control_c, 13, 11, 96
14, 92370, Control_c, 13, 11, 101
14, 92391, Note_on_c, 13, 62, 0
14, 92391, Note_on_c, 13, 64, 0
14, 92400, Control_c, 13, 11, 106
14, 92400, Note_on_c, 13, 68, 76
14, 92430, Control_c, 13, 11, 111
14, 92444, Note_on_c, 13, 68, 0
14, 92460, Control_c, 13, 11, 117
14, 92460, Note_on_c, 13, 68, 76
14, 92490, Control_c, 13, 11, 122
14, 92504, Note_on_c, 13, 68, 0
14, 92520, Control_c, 13, 11, 127
14, 92520, Note_on_c, 13, 69, 76
14, 92564, Note_on_c, 13, 69, 0
14, 92580, Note_on_c, 13, 71, 84
14, 92669, Note_on_c, 13, 71, 0
14, 92700, Note_on_c, 13, 68, 76
14, 92744, Note_on_c, 13, 68, 0
14, 92760, Note_on_c, 13, 68, 76
14, 92804, Note_on_c, 13, 68, 0
14, 92820, Note_on_c, 13, 68, 76
14, 92864, Note_on_c, 13, 68, 0
14, 92880, Note_on_c, 13, 69, 76
14, 92924, Note_on_c, 13, 69, 0
14, 92940, Note_on_c, 13, 71, 84
14, 93051, Note_on_c, 13, 71, 0
14, 93060, Note_on_c, 13, 68, 76
14, 93104, Note_on_c, 13, 68, 0
14, 93120, Note_on_c, 13, 68, 76
14, 93164, Note_on_c, 13, 68, 0
14, 93180, Note_on_c, 13, 68, 76
14, 93224, Note_on_c, 13, 68, 0
14, 93240, Note_on_c, 13, 71, 76
14, 93329, Note_on_c, 13, 71, 0
14, 93360, Note_on_c, 13, 56, 76
14, 93449, Note_on_c, 13, 56, 0
14, 93720, Note_on_c, 13, 56, 52
14, 93839, Note_on_c, 13, 56, 0
14, 94080, Note_on_c, 13, 56, 44
14, 94199, Note_on_c, 13, 56, 0
14, 94680, Note_on_c, 13, 57, 52
14, 94799, Note_on_c, 13, 57, 0
14, 94800, Note_on_c, 13, 52, 52
14, 94919, Note_on_c, 13, 52, 0
14, 94920, Note_on_c, 13, 56, 52
14, 95031, Note_on_c, 13, 56, 0
14, 95040, Note_on_c, 13, 57, 52
14, 95129, Note_on_c, 13, 57, 0
14, 95400, Note_on_c, 13, 57, 52
14, 95519, Note_on_c, 13, 57, 0
14, 95520, Note_on_c, 13, 59, 52
14, 95639, Note_on_c, 13, 59, 0
14, 95640, Note_on_c, 13, 57, 52
14, 95751, Note_on_c, 13, 57, 0
14, 95760, Note_on_c, 13, 56, 52
14, 95849, Note_on_c, 13, 56, 0
14, 96000, Control_c, 13, 11, 96
14, 96120, Note_on_c, 13, 57, 68
14, 96150, Control_c, 13, 11, 99
14, 96180, Control_c, 13, 11, 101
14, 96210, Control_c, 13, 11, 104
14, 96239, Note_on_c, 13, 57, 0
14, 96240, Control_c, 13, 11, 106
14, 96240, Note_on_c, 13, 59, 68
14, 96270, Control_c, 13, 11, 109
14, 96300, Control_c, 13, 11, 112
14, 96330, Control_c, 13, 11, 114
14, 96359, Note_on_c, 13, 59, 0
14, 96360, Note_on_c, 13, 61, 68
14, 96360, Control_c, 13, 11, 117
14, 96390, Control_c, 13, 11, 119
14, 96420, Control_c, 13, 11, 122
14, 96450, Control_c, 13, 11, 124
14, 96471, Note_on_c, 13, 61, 0
14, 96480, Control_c, 13, 11, 127
14, 96480, Note_on_c, 13, 62, 52
14, 96569, Note_on_c, 13, 62, 0
14, 96840, Note_on_c, 13, 64, 52
14, 96929, Note_on_c, 13, 64, 0
14, 97200, Note_on_c, 13, 57, 52
14, 97289, Note_on_c, 13, 57, 0
14, 97560, Note_on_c, 13, 61, 84
14, 97615, Note_on_c, 13, 61, 0
14, 97620, Note_on_c, 13, 61, 84
14, 97645, Note_on_c, 13, 61, 0
14, 97650, Note_on_c, 13, 61, 84
14, 97675, Note_on_c, 13, 61, 0
14, 97680, Note_on_c, 13, 62, 84
14, 97735, Note_on_c, 13, 62, 0
14, 97740, Note_on_c, 13, 62, 84
14, 97765, Note_on_c, 13, 62, 0
14, 97770, Note_on_c, 13, 62, 84
14, 97795, Note_on_c, 13, 62, 0
14, 97800, Note_on_c, 13, 64, 84
14, 97855, Note_on_c, 13, 64, 0
14, 97860, Note_on_c, 13, 64, 84
14, 97885, Note_on_c, 13, 64, 0
14, 97890, Note_on_c, 13, 64, 84
14, 97915, Note_on_c, 13, 64, 0
14, 97920, Note_on_c, 13, 66, 84
14, 98005, Note_on_c, 13, 66, 0
14, 98040, Note_on_c, 13, 62, 92
14, 98125, Note_on_c, 13, 62, 0
14, 98280, Note_on_c, 13, 52, 84
14, 98369, Note_on_c, 13, 52, 0
14, 98400, Note_on_c, 13, 71, 92
14, 98400, Note_on_c, 13, 64, 92
14, 98489, Note_on_c, 13, 71, 0
14, 98489, Note_on_c, 13, 64, 0
14, 98640, Note_on_c, 13, 69, 84
14, 98729, Note_on_c, 13, 69, 0
14, 98880, Note_on_c, 13, 57, 52
14, 98969, Note_on_c, 13, 57, 0
14, 99000, Note_on_c, 13, 57, 52
14, 99089, Note_on_c, 13, 57, 0
14, 99089, End_track
15, 0, Start_track
15, 0, Title_t, "Cello"
15, 0, MIDI_port, 0
15, 0, Program_c, 14, 48
15, 0, Control_c, 14, 7, 96
15, 0, Control_c, 14, 10, 90
15, 0, Control_c, 14, 11, 96
15, 0, Note_on_c, 14, 57, 68
15, 479, Note_on_c, 14, 57, 0
15, 480, Note_on_c, 14, 61, 68
15, 599, Note_on_c, 14, 61, 0
15, 600, Note_on_c, 14, 64, 68
15, 711, Note_on_c, 14, 64, 0
15, 720, Note_on_c, 14, 69, 68
15, 839, Note_on_c, 14, 69, 0
15, 840, Note_on_c, 14, 68, 68
15, 959, Note_on_c, 14, 68, 0
15, 960, Note_on_c, 14, 69, 68
15, 1071, Note_on_c, 14, 69, 0
15, 1080, Note_on_c, 14, 64, 68
15, 1199, Note_on_c, 14, 64, 0
15, 1200, Note_on_c, 14, 63, 68
15, 1319, Note_on_c, 14, 63, 0
15, 1320, Note_on_c, 14, 62, 68
15, 1431, Note_on_c, 14, 62, 0
15, 1440, Note_on_c, 14, 61, 68
15, 1440, Control_c, 14, 11, 96
15, 1500, Control_c, 14, 11, 99
15, 1559, Note_on_c, 14, 61, 0
15, 1560, Control_c, 14, 11, 101
15, 1560, Note_on_c, 14, 59, 68
15, 1620, Control_c, 14, 11, 104
15, 1679, Note_on_c, 14, 59, 0
15, 1680, Note_on_c, 14, 57, 68
15, 1680, Control_c, 14, 11, 106
15, 1740, Control_c, 14, 11, 109
15, 1791, Note_on_c, 14, 57, 0
15, 1800, Note_on_c, 14, 56, 68
15, 1800, Control_c, 14, 11, 112
15, 1860, Control_c, 14, 11, 114
15, 1920, Control_c, 14, 11, 117
15, 1980, Control_c, 14, 11, 119
15, 2039, Note_on_c, 14, 56, 0
15, 2040, Control_c, 14, 11, 122
15, 2040, Note_on_c, 14, 58, 68
15, 2100, Control_c, 14, 11, 124
15, 2151, Note_on_c, 14, 58, 0
15, 2160, Control_c, 14, 11, 96
15, 2160, Note_on_c, 14, 59, 68
15, 2399, Note_on_c, 14, 59, 0
15, 2400, Note_on_c, 14, 54, 68
15, 2489, Note_on_c, 14, 54, 0
15, 2490, Note_on_c, 14, 57, 68
15, 2515, Note_on_c, 14, 57, 0
15, 2520, Note_on_c, 14, 56, 68
15, 2639, Note_on_c, 14, 56, 0
15, 2880, Note_on_c, 14, 45, 68
15, 3359, Note_on_c, 14, 45, 0
15, 3360, Note_on_c, 14, 49, 68
15, 3479, Note_on_c, 14, 49, 0
15, 3480, Note_on_c, 14, 52, 68
15, 3591, Note_on_c, 14, 52, 0
15, 3600, Note_on_c, 14, 57, 68
15, 3719, Note_on_c, 14, 57, 0
15, 3720, Note_on_c, 14, 56, 68
15, 3839, Note_on_c, 14, 56, 0
15, 3840, Note_on_c, 14, 57, 68
15, 3951, Note_on_c, 14, 57, 0
15, 3960, Note_on_c, 14, 64, 68
15, 4079, Note_on_c, 14, 64, 0
15, 4080, Note_on_c, 14, 63, 68
15, 4199, Note_on_c, 14, 63, 0
15, 4200, Note_on_c, 14, 62, 68
15, 4311, Note_on_c, 14, 62, 0
15, 4320, Note_on_c, 14, 61, 68
15, 4320, Control_c, 14, 11, 96
15, 4380, Control_c, 14, 11, 99
15, 4439, Note_on_c, 14, 61, 0
15, 4440, Control_c, 14, 11, 101
15, 4440, Note_on_c, 14, 59, 68
15, 4500, Control_c, 14, 11, 104
15, 4559, Note_on_c, 14, 59, 0
15, 4560, Note_on_c, 14, 57, 68
15, 4560, Control_c, 14, 11, 106
15, 4620, Control_c, 14, 11, 109
15, 4671, Note_on_c, 14, 57, 0
15, 4680, Control_c, 14, 11, 112
15, 4680, Note_on_c, 14, 56, 68
15, 4740, Control_c, 14, 11, 114
15, 4800, Control_c, 14, 11, 117
15, 4860, Control_c, 14, 11, 119
15, 4919, Note_on_c, 14, 56, 0
15, 4920, Control_c, 14, 11, 122
15, 4920, Note_on_c, 14, 58, 68
15, 4980, Control_c, 14, 11, 124
15, 5031, Note_on_c, 14, 58, 0
15, 5036, Control_c, 14, 11, 96
15, 5040, Note_on_c, 14, 59, 68
15, 5129, Note_on_c, 14, 59, 0
15, 5160, Note_on_c, 14, 47, 68
15, 5249, Note_on_c, 14, 47, 0
15, 5280, Note_on_c, 14, 47, 68
15, 5369, Note_on_c, 14, 47, 0
15, 5400, Note_on_c, 14, 52, 68
15, 5519, Note_on_c, 14, 52, 0
15, 5760, Note_on_c, 14, 62, 68
15, 5879, Note_on_c, 14, 62, 0
15, 5880, Note_on_c, 14, 61, 68
15, 5999, Note_on_c, 14, 61, 0
15, 6000, Note_on_c, 14, 56, 68
15, 6111, Note_on_c, 14, 56, 0
15, 6120, Note_on_c, 14, 57, 68
15, 6359, Note_on_c, 14, 57, 0
15, 6480, Note_on_c, 14, 64, 68
15, 6599, Note_on_c, 14, 64, 0
15, 6600, Note_on_c, 14, 62, 68
15, 6719, Note_on_c, 14, 62, 0
15, 6720, Note_on_c, 14, 58, 68
15, 6831, Note_on_c, 14, 58, 0
15, 6840, Note_on_c, 14, 59, 68
15, 7071, Note_on_c, 14, 59, 0
15, 7080, Note_on_c, 14, 59, 68
15, 7191, Note_on_c, 14, 59, 0
15, 7200, Note_on_c, 14, 59, 68
15, 7200, Control_c, 14, 11, 96
15, 7230, Control_c, 14, 11, 99
15, 7260, Control_c, 14, 11, 101
15, 7290, Control_c, 14, 11, 104
15, 7320, Control_c, 14, 11, 106
15, 7350, Control_c, 14, 11, 109
15, 7380, Control_c, 14, 11, 112
15, 7410, Control_c, 14, 11, 114
15, 7439, Note_on_c, 14, 59, 0
15, 7440, Control_c, 14, 11, 117
15, 7440, Note_on_c, 14, 61, 68
15, 7470, Control_c, 14, 11, 119
15, 7499, Note_on_c, 14, 61, 0
15, 7500, Control_c, 14, 11, 122
15, 7500, Note_on_c, 14, 62, 68
15, 7530, Control_c, 14, 11, 124
15, 7555, Note_on_c, 14, 62, 0
15, 7560, Note_on_c, 14, 62, 76
15, 7560, Control_c, 14, 11, 127
15, 7590, Control_c, 14, 11, 124
15, 7620, Control_c, 14, 11, 122
15, 7650, Control_c, 14, 11, 119
15, 7680, Control_c, 14, 11, 117
15, 7710, Control_c, 14, 11, 114
15, 7740, Control_c, 14, 11, 112
15, 7770, Control_c, 14, 11, 109
15, 7799, Note_on_c, 14, 62, 0
15, 7800, Note_on_c, 14, 61, 68
15, 7800, Control_c, 14, 11, 106
15, 7830, Control_c, 14, 11, 104
15, 7860, Control_c, 14, 11, 101
15, 7890, Control_c, 14, 11, 99
15, 7911, Note_on_c, 14, 61, 0
15, 7920, Control_c, 14, 11, 96
15, 8040, Note_on_c, 14, 59, 68
15, 8159, Note_on_c, 14, 59, 0
15, 8160, Note_on_c, 14, 64, 68
15, 8271, Note_on_c, 14, 64, 0
15, 8280, Note_on_c, 14, 57, 68
15, 8519, Note_on_c, 14, 57, 0
15, 8520, Control_c, 14, 11, 127
15, 8640, Note_on_c, 14, 62, 52
15, 8759, Note_on_c, 14, 62, 0
15, 8760, Note_on_c, 14, 61, 52
15, 8879, Note_on_c, 14, 61, 0
15, 8880, Note_on_c, 14, 52, 52
15, 8991, Note_on_c, 14, 52, 0
15, 9000, Note_on_c, 14, 57, 52
15, 9089, Note_on_c, 14, 57, 0
15, 9120, Note_on_c, 14, 45, 52
15, 9209, Note_on_c, 14, 45, 0
15, 9360, Note_on_c, 14, 64, 52
15, 9479, Note_on_c, 14, 64, 0
15, 9480, Note_on_c, 14, 62, 52
15, 9599, Note_on_c, 14, 62, 0
15, 9600, Note_on_c, 14, 61, 52
15, 9711, Note_on_c, 14, 61, 0
15, 9720, Note_on_c, 14, 56, 52
15, 9959, Note_on_c, 14, 56, 0
15, 10440, Note_on_c, 14, 52, 76
15, 10440, Control_c, 14, 11, 127
15, 10470, Control_c, 14, 11, 124
15, 10500, Control_c, 14, 11, 122
15, 10530, Control_c, 14, 11, 119
15, 10559, Note_on_c, 14, 52, 0
15, 10560, Control_c, 14, 11, 117
15, 10560, Note_on_c, 14, 50, 68
15, 10590, Control_c, 14, 11, 114
15, 10620, Control_c, 14, 11, 112
15, 10650, Control_c, 14, 11, 109
15, 10679, Note_on_c, 14, 50, 0
15, 10680, Note_on_c, 14, 49, 68
15, 10680, Control_c, 14, 11, 106
15, 10710, Control_c, 14, 11, 104
15, 10740, Control_c, 14, 11, 101
15, 10770, Control_c, 14, 11, 99
15, 10791, Note_on_c, 14, 49, 0
15, 10796, Control_c, 14, 11, 127
15, 10800, Note_on_c, 14, 47, 52
15, 10889, Note_on_c, 14, 47, 0
15, 10920, Note_on_c, 14, 47, 52
15, 11009, Note_on_c, 14, 47, 0
15, 11040, Note_on_c, 14, 52, 52
15, 11129, Note_on_c, 14, 52, 0
15, 11160, Note_on_c, 14, 45, 52
15, 11399, Note_on_c, 14, 45, 0
15, 11520, Note_on_c, 14, 61, 52
15, 11759, Note_on_c, 14, 61, 0
15, 11880, Note_on_c, 14, 59, 52
15, 12119, Note_on_c, 14, 59, 0
15, 12240, Note_on_c, 14, 52, 52
15, 12479, Note_on_c, 14, 52, 0
15, 12600, Note_on_c, 14, 57, 52
15, 12839, Note_on_c, 14, 57, 0
15, 12960, Note_on_c, 14, 60, 52
15, 13199, Note_on_c, 14, 60, 0
15, 13320, Note_on_c, 14, 59, 52
15, 13559, Note_on_c, 14, 59, 0
15, 13680, Note_on_c, 14, 52, 52
15, 13919, Note_on_c, 14, 52, 0
15, 14040, Note_on_c, 14, 57, 52
15, 14279, Note_on_c, 14, 57, 0
15, 14340, Note_on_c, 14, 52, 84
15, 14384, Note_on_c, 14, 52, 0
15, 14400, Note_on_c, 14, 54, 92
15, 14571, Note_on_c, 14, 54, 0
15, 14580, Note_on_c, 14, 52, 84
15, 14624, Note_on_c, 14, 52, 0
15, 14640, Note_on_c, 14, 51, 84
15, 14684, Note_on_c, 14, 51, 0
15, 14700, Note_on_c, 14, 52, 84
15, 14744, Note_on_c, 14, 52, 0
15, 14760, Note_on_c, 14, 54, 84
15, 14849, Note_on_c, 14, 54, 0
15, 14880, Note_on_c, 14, 54, 84
15, 14969, Note_on_c, 14, 54, 0
15, 15840, Note_on_c, 14, 64, 44
15, 15929, Note_on_c, 14, 64, 0
15, 15960, Note_on_c, 14, 64, 44
15, 16049, Note_on_c, 14, 64, 0
15, 16200, Note_on_c, 14, 48, 84
15, 16289, Note_on_c, 14, 48, 0
15, 16320, Note_on_c, 14, 48, 84
15, 16409, Note_on_c, 14, 48, 0
15, 16440, Note_on_c, 14, 48, 84
15, 16529, Note_on_c, 14, 48, 0
15, 16560, Note_on_c, 14, 47, 84
15, 16649, Note_on_c, 14, 47, 0
15, 16800, Control_c, 14, 11, 96
15, 16920, Note_on_c, 14, 51, 68
15, 17039, Note_on_c, 14, 51, 0
15, 17040, Note_on_c, 14, 47, 68
15, 17271, Note_on_c, 14, 47, 0
15, 17280, Note_on_c, 14, 52, 68
15, 17399, Note_on_c, 14, 52, 0
15, 17400, Note_on_c, 14, 47, 68
15, 17631, Note_on_c, 14, 47, 0
15, 17640, Note_on_c, 14, 54, 68
15, 17759, Note_on_c, 14, 54, 0
15, 17760, Note_on_c, 14, 47, 68
15, 18000, Control_c, 14, 11, 96
15, 18030, Control_c, 14, 11, 99
15, 18055, Note_on_c, 14, 47, 0
15, 18060, Control_c, 14, 11, 101
15, 18060, Note_on_c, 14, 59, 68
15, 18090, Control_c, 14, 11, 104
15, 18104, Note_on_c, 14, 59, 0
15, 18120, Note_on_c, 14, 56, 68
15, 18120, Control_c, 14, 11, 106
15, 18150, Control_c, 14, 11, 109
15, 18164, Note_on_c, 14, 56, 0
15, 18180, Control_c, 14, 11, 112
15, 18180, Note_on_c, 14, 59, 68
15, 18210, Control_c, 14, 11, 114
15, 18224, Note_on_c, 14, 59, 0
15, 18240, Note_on_c, 14, 56, 68
15, 18240, Control_c, 14, 11, 117
15, 18270, Control_c, 14, 11, 119
15, 18284, Note_on_c, 14, 56, 0
15, 18300, Control_c, 14, 11, 122
15, 18300, Note_on_c, 14, 52, 68
15, 18330, Control_c, 14, 11, 124
15, 18344, Note_on_c, 14, 52, 0
15, 18360, Note_on_c, 14, 51, 52
15, 18360, Control_c, 14, 11, 127
15, 18479, Note_on_c, 14, 51, 0
15, 18480, Note_on_c, 14, 47, 52
15, 18711, Note_on_c, 14, 47, 0
15, 18720, Note_on_c, 14, 52, 52
15, 18839, Note_on_c, 14, 52, 0
15, 18840, Note_on_c, 14, 47, 52
15, 19071, Note_on_c, 14, 47, 0
15, 19080, Note_on_c, 14, 54, 52
15, 19199, Note_on_c, 14, 54, 0
15, 19200, Note_on_c, 14, 47, 52
15, 19431, Note_on_c, 14, 47, 0
15, 19440, Note_on_c, 14, 52, 52
15, 19559, Note_on_c, 14, 52, 0
15, 19680, Control_c, 14, 11, 80
15, 19740, Note_on_c, 14, 56, 76
15, 19760, Control_c, 14, 11, 84
15, 19795, Note_on_c, 14, 56, 0
15, 19800, Note_on_c, 14, 57, 76
15, 19840, Control_c, 14, 11, 88
15, 19844, Note_on_c, 14, 57, 0
15, 19860, Note_on_c, 14, 56, 76
15, 19904, Note_on_c, 14, 56, 0
15, 19920, Note_on_c, 14, 57, 76
15, 19920, Control_c, 14, 11, 92
15, 20000, Control_c, 14, 11, 96
15, 20080, Control_c, 14, 11, 100
15, 20095, Note_on_c, 14, 57, 0
15, 20100, Note_on_c, 14, 57, 76
15, 20155, Note_on_c, 14, 57, 0
15, 20160, Control_c, 14, 11, 104
15, 20160, Note_on_c, 14, 59, 76
15, 20204, Note_on_c, 14, 59, 0
15, 20220, Note_on_c, 14, 58, 76
15, 20240, Control_c, 14, 11, 107
15, 20264, Note_on_c, 14, 58, 0
15, 20280, Note_on_c, 14, 59, 76
15, 20320, Control_c, 14, 11, 111
15, 20400, Control_c, 14, 11, 115
15, 20455, Note_on_c, 14, 59, 0
15, 20460, Note_on_c, 14, 59, 76
15, 20480, Control_c, 14, 11, 119
15, 20515, Note_on_c, 14, 59, 0
15, 20520, Note_on_c, 14, 61, 76
15, 20560, Control_c, 14, 11, 123
15, 20564, Note_on_c, 14, 61, 0
15, 20580, Note_on_c, 14, 60, 76
15, 20624, Note_on_c, 14, 60, 0
15, 20640, Note_on_c, 14, 61, 76
15, 20640, Control_c, 14, 11, 127
15, 20815, Note_on_c, 14, 61, 0
15, 20820, Note_on_c, 14, 61, 76
15, 20875, Note_on_c, 14, 61, 0
15, 20880, Note_on_c, 14, 63, 76
15, 21055, Note_on_c, 14, 63, 0
15, 21060, Control_c, 14, 11, 80
15, 21060, Note_on_c, 14, 51, 76
15, 21104, Note_on_c, 14, 51, 0
15, 21120, Note_on_c, 14, 51, 76
15, 21164, Note_on_c, 14, 51, 0
15, 21180, Note_on_c, 14, 52, 76
15, 21224, Note_on_c, 14, 52, 0
15, 21240, Note_on_c, 14, 57, 76
15, 21415, Note_on_c, 14, 57, 0
15, 21420, Control_c, 14, 11, 127
15, 21420, Note_on_c, 14, 57, 76
15, 21464, Note_on_c, 14, 57, 0
15, 21480, Note_on_c, 14, 56, 76
15, 21524, Note_on_c, 14, 56, 0
15, 21540, Note_on_c, 14, 54, 76
15, 21584, Note_on_c, 14, 54, 0
15, 21600, Control_c, 14, 11, 127
15, 21600, Note_on_c, 14, 59, 84
15, 21630, Control_c, 14, 11, 123
15, 21660, Control_c, 14, 11, 119
15, 21690, Control_c, 14, 11, 115
15, 21711, Note_on_c, 14, 59, 0
15, 21720, Note_on_c, 14, 47, 76
15, 21720, Control_c, 14, 11, 111
15, 21750, Control_c, 14, 11, 107
15, 21780, Control_c, 14, 11, 104
15, 21810, Control_c, 14, 11, 100
15, 21831, Note_on_c, 14, 47, 0
15, 21840, Control_c, 14, 11, 96
15, 21840, Note_on_c, 14, 47, 76
15, 21870, Control_c, 14, 11, 92
15, 21900, Control_c, 14, 11, 88
15, 21930, Control_c, 14, 11, 84
15, 21951, Note_on_c, 14, 47, 0
15, 21960, Control_c, 14, 11, 80
15, 21960, Note_on_c, 14, 52, 76
15, 22079, Note_on_c, 14, 52, 0
15, 22260, Note_on_c, 14, 56, 76
15, 22304, Note_on_c, 14, 56, 0
15, 22320, Control_c, 14, 11, 80
15, 22320, Note_on_c, 14, 57, 76
15, 22364, Note_on_c, 14, 57, 0
15, 22380, Note_on_c, 14, 56, 76
15, 22390, Control_c, 14, 11, 84
15, 22424, Note_on_c, 14, 56, 0
15, 22440, Note_on_c, 14, 57, 76
15, 22460, Control_c, 14, 11, 88
15, 22530, Control_c, 14, 11, 92
15, 22600, Control_c, 14, 11, 96
15, 22615, Note_on_c, 14, 57, 0
15, 22620, Note_on_c, 14, 57, 76
15, 22664, Note_on_c, 14, 57, 0
15, 22670, Control_c, 14, 11, 100
15, 22680, Note_on_c, 14, 59, 76
15, 22724, Note_on_c, 14, 59, 0
15, 22740, Note_on_c, 14, 58, 76
15, 22740, Control_c, 14, 11, 104
15, 22784, Note_on_c, 14, 58, 0
15, 22800, Note_on_c, 14, 59, 76
15, 22810, Control_c, 14, 11, 107
15, 22880, Control_c, 14, 11, 111
15, 22950, Control_c, 14, 11, 115
15, 22975, Note_on_c, 14, 59, 0
15, 22980, Note_on_c, 14, 59, 76
15, 23020, Control_c, 14, 11, 119
15, 23024, Note_on_c, 14, 59, 0
15, 23040, Note_on_c, 14, 61, 76
15, 23084, Note_on_c, 14, 61, 0
15, 23090, Control_c, 14, 11, 123
15, 23100, Note_on_c, 14, 60, 76
15, 23144, Note_on_c, 14, 60, 0
15, 23160, Note_on_c, 14, 61, 76
15, 23160, Control_c, 14, 11, 127
15, 23335, Note_on_c, 14, 61, 0
15, 23340, Note_on_c, 14, 61, 76
15, 23384, Note_on_c, 14, 61, 0
15, 23400, Note_on_c, 14, 63, 84
15, 23579, Note_on_c, 14, 63, 0
15, 23940, Note_on_c, 14, 61, 52
15, 23999, Note_on_c, 14, 61, 0
15, 24000, Note_on_c, 14, 60, 52
15, 24059, Note_on_c, 14, 60, 0
15, 24060, Note_on_c, 14, 56, 52
15, 24115, Note_on_c, 14, 56, 0
15, 24120, Note_on_c, 14, 57, 52
15, 24299, Note_on_c, 14, 57, 0
15, 24540, Note_on_c, 14, 52, 52
15, 24599, Note_on_c, 14, 52, 0
15, 24600, Note_on_c, 14, 54, 52
15, 24659, Note_on_c, 14, 54, 0
15, 24660, Note_on_c, 14, 56, 52
15, 24719, Note_on_c, 14, 56, 0
15, 24720, Note_on_c, 14, 57, 52
15, 24764, Note_on_c, 14, 57, 0
15, 24840, Control_c, 14, 11, 80
15, 25020, Note_on_c, 14, 52, 76
15, 25079, Note_on_c, 14, 52, 0
15, 25080, Note_on_c, 14, 54, 76
15, 25139, Note_on_c, 14, 54, 0
15, 25140, Note_on_c, 14, 56, 76
15, 25199, Note_on_c, 14, 56, 0
15, 25200, Note_on_c, 14, 57, 76
15, 25200, Control_c, 14, 11, 80
15, 25244, Note_on_c, 14, 57, 0
15, 25245, Control_c, 14, 11, 84
15, 25260, Note_on_c, 14, 52, 76
15, 25290, Control_c, 14, 11, 88
15, 25319, Note_on_c, 14, 52, 0
15, 25320, Note_on_c, 14, 54, 76
15, 25335, Control_c, 14, 11, 92
15, 25379, Note_on_c, 14, 54, 0
15, 25380, Control_c, 14, 11, 96
15, 25380, Note_on_c, 14, 56, 76
15, 25425, Control_c, 14, 11, 100
15, 25439, Note_on_c, 14, 56, 0
15, 25440, Note_on_c, 14, 57, 76
15, 25470, Control_c, 14, 11, 104
15, 25484, Note_on_c, 14, 57, 0
15, 25500, Note_on_c, 14, 52, 76
15, 25515, Control_c, 14, 11, 107
15, 25559, Note_on_c, 14, 52, 0
15, 25560, Note_on_c, 14, 54, 76
15, 25560, Control_c, 14, 11, 111
15, 25605, Control_c, 14, 11, 115
15, 25619, Note_on_c, 14, 54, 0
15, 25620, Note_on_c, 14, 56, 76
15, 25650, Control_c, 14, 11, 119
15, 25679, Note_on_c, 14, 56, 0
15, 25680, Note_on_c, 14, 57, 76
15, 25695, Control_c, 14, 11, 123
15, 25724, Note_on_c, 14, 57, 0
15, 25740, Note_on_c, 14, 52, 76
15, 25740, Control_c, 14, 11, 127
15, 25799, Note_on_c, 14, 52, 0
15, 25800, Note_on_c, 14, 54, 76
15, 25859, Note_on_c, 14, 54, 0
15, 25860, Note_on_c, 14, 56, 76
15, 25915, Note_on_c, 14, 56, 0
15, 25920, Note_on_c, 14, 57, 84
15, 26271, Note_on_c, 14, 57, 0
15, 26280, Note_on_c, 14, 54, 84
15, 26631, Note_on_c, 14, 54, 0
15, 26640, Note_on_c, 14, 51, 76
15, 26706, Note_on_c, 14, 51, 0
15, 26730, Note_on_c, 14, 51, 76
15, 26751, Note_on_c, 14, 51, 0
15, 26760, Note_on_c, 14, 51, 76
15, 26849, Note_on_c, 14, 51, 0
15, 27000, Note_on_c, 14, 52, 76
15, 27066, Note_on_c, 14, 52, 0
15, 27090, Note_on_c, 14, 52, 76
15, 27111, Note_on_c, 14, 52, 0
15, 27120, Note_on_c, 14, 52, 76
15, 27209, Note_on_c, 14, 52, 0
15, 27360, Note_on_c, 14, 57, 52
15, 27449, Note_on_c, 14, 57, 0
15, 27480, Note_on_c, 14, 59, 52
15, 27569, Note_on_c, 14, 59, 0
15, 27600, Note_on_c, 14, 47, 52
15, 27689, Note_on_c, 14, 47, 0
15, 27720, Note_on_c, 14, 52, 52
15, 27959, Note_on_c, 14, 52, 0
15, 28080, Note_on_c, 14, 51, 44
15, 28146, Note_on_c, 14, 51, 0
15, 28170, Note_on_c, 14, 51, 44
15, 28191, Note_on_c, 14, 51, 0
15, 28200, Note_on_c, 14, 51, 44
15, 28289, Note_on_c, 14, 51, 0
15, 28440, Note_on_c, 14, 52, 44
15, 28506, Note_on_c, 14, 52, 0
15, 28530, Note_on_c, 14, 52, 44
15, 28551, Note_on_c, 14, 52, 0
15, 28560, Note_on_c, 14, 52, 44
15, 28649, Note_on_c, 14, 52, 0
15, 28800, Note_on_c, 14, 57, 44
15, 28889, Note_on_c, 14, 57, 0
15, 28920, Note_on_c, 14, 59, 44
15, 29009, Note_on_c, 14, 59, 0
15, 29040, Note_on_c, 14, 47, 44
15, 29129, Note_on_c, 14, 47, 0
15, 29160, Note_on_c, 14, 52, 52
15, 29279, Note_on_c, 14, 52, 0
15, 29340, Note_on_c, 14, 59, 52
15, 29399, Note_on_c, 14, 59, 0
15, 29400, Note_on_c, 14, 61, 52
15, 29429, Note_on_c, 14, 61, 0
15, 29430, Note_on_c, 14, 59, 52
15, 29459, Note_on_c, 14, 59, 0
15, 29460, Note_on_c, 14, 58, 52
15, 29489, Note_on_c, 14, 58, 0
15, 29490, Note_on_c, 14, 59, 52
15, 29515, Note_on_c, 14, 59, 0
15, 29520, Note_on_c, 14, 56, 52
15, 29564, Note_on_c, 14, 56, 0
15, 29580, Note_on_c, 14, 52, 52
15, 29624, Note_on_c, 14, 52, 0
15, 29640, Note_on_c, 14, 47, 52
15, 29684, Note_on_c, 14, 47, 0
15, 29700, Note_on_c, 14, 59, 52
15, 29759, Note_on_c, 14, 59, 0
15, 29760, Note_on_c, 14, 61, 52
15, 29789, Note_on_c, 14, 61, 0
15, 29790, Note_on_c, 14, 59, 52
15, 29819, Note_on_c, 14, 59, 0
15, 29820, Note_on_c, 14, 58, 52
15, 29849, Note_on_c, 14, 58, 0
15, 29850, Note_on_c, 14, 59, 52
15, 29875, Note_on_c, 14, 59, 0
15, 29880, Note_on_c, 14, 61, 52
15, 29924, Note_on_c, 14, 61, 0
15, 29940, Note_on_c, 14, 57, 52
15, 29984, Note_on_c, 14, 57, 0
15, 30000, Note_on_c, 14, 54, 52
15, 30044, Note_on_c, 14, 54, 0
15, 30060, Note_on_c, 14, 57, 52
15, 30119, Note_on_c, 14, 57, 0
15, 30120, Note_on_c, 14, 59, 52
15, 30149, Note_on_c, 14, 59, 0
15, 30150, Note_on_c, 14, 57, 52
15, 30179, Note_on_c, 14, 57, 0
15, 30180, Note_on_c, 14, 56, 52
15, 30209, Note_on_c, 14, 56, 0
15, 30210, Note_on_c, 14, 57, 52
15, 30235, Note_on_c, 14, 57, 0
15, 30240, Note_on_c, 14, 54, 52
15, 30284, Note_on_c, 14, 54, 0
15, 30300, Note_on_c, 14, 57, 52
15, 30344, Note_on_c, 14, 57, 0
15, 30360, Note_on_c, 14, 51, 52
15, 30404, Note_on_c, 14, 51, 0
15, 30420, Note_on_c, 14, 54, 52
15, 30464, Note_on_c, 14, 54, 0
15, 30480, Note_on_c, 14, 47, 52
15, 30524, Note_on_c, 14, 47, 0
15, 30540, Note_on_c, 14, 59, 52
15, 30584, Note_on_c, 14, 59, 0
15, 30600, Note_on_c, 14, 56, 52
15, 30659, Note_on_c, 14, 56, 0
15, 30660, Note_on_c, 14, 59, 52
15, 30715, Note_on_c, 14, 59, 0
15, 30720, Note_on_c, 14, 52, 52
15, 30764, Note_on_c, 14, 52, 0
15, 31140, Note_on_c, 14, 52, 52
15, 31184, Note_on_c, 14, 52, 0
15, 31200, Note_on_c, 14, 47, 52
15, 31244, Note_on_c, 14, 47, 0
15, 31260, Note_on_c, 14, 44, 52
15, 31304, Note_on_c, 14, 44, 0
15, 31320, Note_on_c, 14, 45, 52
15, 31439, Note_on_c, 14, 45, 0
15, 31500, Note_on_c, 14, 54, 52
15, 31544, Note_on_c, 14, 54, 0
15, 31560, Note_on_c, 14, 49, 52
15, 31604, Note_on_c, 14, 49, 0
15, 31620, Note_on_c, 14, 45, 52
15, 31664, Note_on_c, 14, 45, 0
15, 31680, Note_on_c, 14, 47, 52
15, 31799, Note_on_c, 14, 47, 0
15, 31860, Note_on_c, 14, 47, 52
15, 31919, Note_on_c, 14, 47, 0
15, 31920, Note_on_c, 14, 59, 52
15, 31979, Note_on_c, 14, 59, 0
15, 31980, Note_on_c, 14, 57, 52
15, 32035, Note_on_c, 14, 57, 0
15, 32040, Note_on_c, 14, 56, 52
15, 32159, Note_on_c, 14, 56, 0
15, 32400, Note_on_c, 14, 47, 52
15, 32519, Note_on_c, 14, 47, 0
15, 32640, Note_on_c, 14, 47, 52
15, 32751, Note_on_c, 14, 47, 0
15, 32760, Note_on_c, 14, 52, 52
15, 32879, Note_on_c, 14, 52, 0
15, 33000, Control_c, 14, 11, 80
15, 33120, Control_c, 14, 11, 80
15, 33120, Note_on_c, 14, 47, 76
15, 33150, Control_c, 14, 11, 84
15, 33180, Control_c, 14, 11, 88
15, 33210, Control_c, 14, 11, 92
15, 33239, Note_on_c, 14, 47, 0
15, 33240, Control_c, 14, 11, 96
15, 33270, Control_c, 14, 11, 100
15, 33300, Control_c, 14, 11, 104
15, 33330, Control_c, 14, 11, 107
15, 33360, Control_c, 14, 11, 111
15, 33360, Note_on_c, 14, 47, 76
15, 33390, Control_c, 14, 11, 115
15, 33404, Note_on_c, 14, 47, 0
15, 33420, Note_on_c, 14, 47, 76
15, 33420, Control_c, 14, 11, 119
15, 33450, Control_c, 14, 11, 123
15, 33464, Note_on_c, 14, 47, 0
15, 33480, Note_on_c, 14, 52, 76
15, 33480, Control_c, 14, 11, 127
15, 33524, Note_on_c, 14, 52, 0
15, 33540, Note_on_c, 14, 47, 84
15, 33651, Note_on_c, 14, 47, 0
15, 33660, Note_on_c, 14, 47, 76
15, 33704, Note_on_c, 14, 47, 0
15, 33720, Note_on_c, 14, 47, 76
15, 33764, Note_on_c, 14, 47, 0
15, 33780, Note_on_c, 14, 47, 76
15, 33824, Note_on_c, 14, 47, 0
15, 33840, Note_on_c, 14, 52, 76
15, 33884, Note_on_c, 14, 52, 0
15, 33900, Note_on_c, 14, 47, 84
15, 34011, Note_on_c, 14, 47, 0
15, 34020, Note_on_c, 14, 47, 76
15, 34064, Note_on_c, 14, 47, 0
15, 34080, Note_on_c, 14, 47, 76
15, 34124, Note_on_c, 14, 47, 0
15, 34140, Note_on_c, 14, 47, 76
15, 34184, Note_on_c, 14, 47, 0
15, 34200, Note_on_c, 14, 52, 76
15, 34289, Note_on_c, 14, 52, 0
15, 34320, Note_on_c, 14, 52, 52
15, 34409, Note_on_c, 14, 52, 0
15, 34560, Control_c, 14, 11, 127
15, 34590, Control_c, 14, 11, 126
15, 34620, Control_c, 14, 11, 125
15, 34650, Control_c, 14, 11, 123
15, 34680, Control_c, 14, 11, 122
15, 34680, Note_on_c, 14, 52, 52
15, 34710, Control_c, 14, 11, 121
15, 34740, Control_c, 14, 11, 120
15, 34770, Control_c, 14, 11, 118
15, 34799, Note_on_c, 14, 52, 0
15, 34800, Control_c, 14, 11, 117
15, 34830, Control_c, 14, 11, 116
15, 34860, Control_c, 14, 11, 115
15, 34890, Control_c, 14, 11, 113
15, 34920, Control_c, 14, 11, 112
15, 35040, Note_on_c, 14, 52, 52
15, 35159, Note_on_c, 14, 52, 0
15, 35520, Control_c, 14, 11, 80
15, 35640, Note_on_c, 14, 45, 68
15, 35640, Control_c, 14, 11, 80
15, 35670, Control_c, 14, 11, 84
15, 35700, Control_c, 14, 11, 88
15, 35730, Control_c, 14, 11, 92
15, 35759, Note_on_c, 14, 45, 0
15, 35760, Control_c, 14, 11, 96
15, 35760, Note_on_c, 14, 48, 68
15, 35790, Control_c, 14, 11, 100
15, 35820, Control_c, 14, 11, 104
15, 35850, Control_c, 14, 11, 107
15, 35879, Note_on_c, 14, 48, 0
15, 35880, Note_on_c, 14, 52, 68
15, 35880, Control_c, 14, 11, 111
15, 35910, Control_c, 14, 11, 115
15, 35940, Control_c, 14, 11, 119
15, 35970, Control_c, 14, 11, 123
15, 35991, Note_on_c, 14, 52, 0
15, 36000, Note_on_c, 14, 57, 52
15, 36000, Control_c, 14, 11, 127
15, 36119, Note_on_c, 14, 57, 0
15, 36360, Note_on_c, 14, 57, 52
15, 36479, Note_on_c, 14, 57, 0
15, 36480, Note_on_c, 14, 56, 52
15, 36599, Note_on_c, 14, 56, 0
15, 36600, Note_on_c, 14, 57, 52
15, 36711, Note_on_c, 14, 57, 0
15, 36720, Note_on_c, 14, 52, 52
15, 36839, Note_on_c, 14, 52, 0
15, 36960, Control_c, 14, 11, 96
15, 37080, Control_c, 14, 11, 96
15, 37080, Note_on_c, 14, 48, 68
15, 37170, Control_c, 14, 11, 99
15, 37199, Note_on_c, 14, 48, 0
15, 37200, Note_on_c, 14, 52, 68
15, 37260, Control_c, 14, 11, 101
15, 37319, Note_on_c, 14, 52, 0
15, 37320, Note_on_c, 14, 55, 68
15, 37350, Control_c, 14, 11, 104
15, 37431, Note_on_c, 14, 55, 0
15, 37440, Control_c, 14, 11, 106
15, 37440, Note_on_c, 14, 60, 68
15, 37530, Control_c, 14, 11, 109
15, 37559, Note_on_c, 14, 60, 0
15, 37620, Control_c, 14, 11, 112
15, 37710, Control_c, 14, 11, 114
15, 37800, Control_c, 14, 11, 117
15, 37800, Note_on_c, 14, 60, 68
15, 37890, Control_c, 14, 11, 119
15, 37919, Note_on_c, 14, 60, 0
15, 37920, Note_on_c, 14, 59, 68
15, 37980, Control_c, 14, 11, 122
15, 38039, Note_on_c, 14, 59, 0
15, 38040, Note_on_c, 14, 60, 68
15, 38070, Control_c, 14, 11, 124
15, 38151, Note_on_c, 14, 60, 0
15, 38160, Control_c, 14, 11, 127
15, 38160, Note_on_c, 14, 55, 68
15, 38279, Note_on_c, 14, 55, 0
15, 38640, Note_on_c, 14, 43, 52
15, 38759, Note_on_c, 14, 43, 0
15, 38760, Note_on_c, 14, 45, 52
15, 38871, Note_on_c, 14, 45, 0
15, 38880, Note_on_c, 14, 46, 52
15, 39351, Note_on_c, 14, 46, 0
15, 39360, Note_on_c, 14, 43, 52
15, 39404, Note_on_c, 14, 43, 0
15, 39420, Note_on_c, 14, 43, 52
15, 39464, Note_on_c, 14, 43, 0
15, 39480, Note_on_c, 14, 45, 52
15, 39524, Note_on_c, 14, 45, 0
15, 39540, Note_on_c, 14, 45, 52
15, 39584, Note_on_c, 14, 45, 0
15, 39600, Note_on_c, 14, 46, 52
15, 40071, Note_on_c, 14, 46, 0
15, 40080, Note_on_c, 14, 43, 52
15, 40124, Note_on_c, 14, 43, 0
15, 40140, Note_on_c, 14, 43, 52
15, 40184, Note_on_c, 14, 43, 0
15, 40200, Note_on_c, 14, 45, 52
15, 40244, Note_on_c, 14, 45, 0
15, 40260, Note_on_c, 14, 45, 52
15, 40304, Note_on_c, 14, 45, 0
15, 40320, Note_on_c, 14, 46, 52
15, 40371, Note_on_c, 14, 46, 0
15, 40380, Note_on_c, 14, 58, 54
15, 40431, Note_on_c, 14, 58, 0
15, 40440, Note_on_c, 14, 58, 56
15, 40491, Note_on_c, 14, 58, 0
15, 40500, Note_on_c, 14, 58, 58
15, 40551, Note_on_c, 14, 58, 0
15, 40560, Note_on_c, 14, 58, 60
15, 40611, Note_on_c, 14, 58, 0
15, 40620, Note_on_c, 14, 58, 62
15, 40671, Note_on_c, 14, 58, 0
15, 40680, Note_on_c, 14, 58, 64
15, 40731, Note_on_c, 14, 58, 0
15, 40740, Note_on_c, 14, 58, 66
15, 40791, Note_on_c, 14, 58, 0
15, 40800, Note_on_c, 14, 58, 68
15, 40851, Note_on_c, 14, 58, 0
15, 40860, Note_on_c, 14, 58, 70
15, 40911, Note_on_c, 14, 58, 0
15, 40920, Note_on_c, 14, 58, 72
15, 40971, Note_on_c, 14, 58, 0
15, 40980, Note_on_c, 14, 58, 74
15, 41031, Note_on_c, 14, 58, 0
15, 41040, Note_on_c, 14, 59, 76
15, 41091, Note_on_c, 14, 59, 0
15, 41100, Note_on_c, 14, 47, 76
15, 41151, Note_on_c, 14, 47, 0
15, 41160, Note_on_c, 14, 47, 76
15, 41211, Note_on_c, 14, 47, 0
15, 41220, Note_on_c, 14, 47, 76
15, 41271, Note_on_c, 14, 47, 0
15, 41280, Note_on_c, 14, 47, 76
15, 41331, Note_on_c, 14, 47, 0
15, 41340, Note_on_c, 14, 47, 76
15, 41391, Note_on_c, 14, 47, 0
15, 41400, Note_on_c, 14, 47, 76
15, 41451, Note_on_c, 14, 47, 0
15, 41460, Note_on_c, 14, 47, 76
15, 41511, Note_on_c, 14, 47, 0
15, 41520, Note_on_c, 14, 47, 76
15, 41571, Note_on_c, 14, 47, 0
15, 41580, Note_on_c, 14, 47, 76
15, 41631, Note_on_c, 14, 47, 0
15, 41640, Note_on_c, 14, 47, 76
15, 41691, Note_on_c, 14, 47, 0
15, 41700, Note_on_c, 14, 47, 76
15, 41751, Note_on_c, 14, 47, 0
15, 41760, Note_on_c, 14, 52, 76
15, 41879, Note_on_c, 14, 52, 0
15, 42600, Note_on_c, 14, 53, 44
15, 42719, Note_on_c, 14, 53, 0
15, 42720, Note_on_c, 14, 52, 44
15, 42839, Note_on_c, 14, 52, 0
15, 42840, Note_on_c, 14, 50, 44
15, 42959, Note_on_c, 14, 50, 0
15, 43320, Note_on_c, 14, 53, 44
15, 43364, Note_on_c, 14, 53, 0
15, 43380, Note_on_c, 14, 53, 44
15, 43424, Note_on_c, 14, 53, 0
15, 43440, Note_on_c, 14, 52, 44
15, 43484, Note_on_c, 14, 52, 0
15, 43500, Note_on_c, 14, 52, 44
15, 43544, Note_on_c, 14, 52, 0
15, 43560, Note_on_c, 14, 50, 44
15, 43679, Note_on_c, 14, 50, 0
15, 44040, Note_on_c, 14, 53, 44
15, 44084, Note_on_c, 14, 53, 0
15, 44100, Note_on_c, 14, 53, 44
15, 44144, Note_on_c, 14, 53, 0
15, 44160, Note_on_c, 14, 52, 44
15, 44204, Note_on_c, 14, 52, 0
15, 44220, Note_on_c, 14, 52, 44
15, 44264, Note_on_c, 14, 52, 0
15, 44280, Note_on_c, 14, 50, 44
15, 44331, Note_on_c, 14, 50, 0
15, 44340, Note_on_c, 14, 50, 46
15, 44391, Note_on_c, 14, 50, 0
15, 44400, Note_on_c, 14, 50, 49
15, 44451, Note_on_c, 14, 50, 0
15, 44460, Note_on_c, 14, 50, 52
15, 44511, Note_on_c, 14, 50, 0
15, 44520, Note_on_c, 14, 50, 54
15, 44571, Note_on_c, 14, 50, 0
15, 44580, Note_on_c, 14, 50, 57
15, 44631, Note_on_c, 14, 50, 0
15, 44640, Note_on_c, 14, 49, 60
15, 44691, Note_on_c, 14, 49, 0
15, 44700, Note_on_c, 14, 49, 62
15, 44751, Note_on_c, 14, 49, 0
15, 44760, Note_on_c, 14, 49, 65
15, 44811, Note_on_c, 14, 49, 0
15, 44820, Note_on_c, 14, 49, 68
15, 44871, Note_on_c, 14, 49, 0
15, 44880, Note_on_c, 14, 49, 70
15, 44931, Note_on_c, 14, 49, 0
15, 44940, Note_on_c, 14, 49, 73
15, 44991, Note_on_c, 14, 49, 0
15, 45000, Note_on_c, 14, 48, 76
15, 45051, Note_on_c, 14, 48, 0
15, 45060, Note_on_c, 14, 48, 76
15, 45111, Note_on_c, 14, 48, 0
15, 45120, Note_on_c, 14, 48, 76
15, 45171, Note_on_c, 14, 48, 0
15, 45180, Note_on_c, 14, 48, 76
15, 45231, Note_on_c, 14, 48, 0
15, 45240, Note_on_c, 14, 48, 76
15, 45291, Note_on_c, 14, 48, 0
15, 45300, Note_on_c, 14, 48, 76
15, 45351, Note_on_c, 14, 48, 0
15, 45360, Note_on_c, 14, 48, 76
15, 45411, Note_on_c, 14, 48, 0
15, 45420, Note_on_c, 14, 48, 76
15, 45471, Note_on_c, 14, 48, 0
15, 45480, Note_on_c, 14, 48, 76
15, 45531, Note_on_c, 14, 48, 0
15, 45540, Note_on_c, 14, 48, 76
15, 45591, Note_on_c, 14, 48, 0
15, 45600, Note_on_c, 14, 48, 76
15, 45651, Note_on_c, 14, 48, 0
15, 45660, Note_on_c, 14, 48, 76
15, 45711, Note_on_c, 14, 48, 0
15, 45720, Note_on_c, 14, 53, 84
15, 45839, Note_on_c, 14, 53, 0
15, 45960, Note_on_c, 14, 48, 84
15, 46071, Note_on_c, 14, 48, 0
15, 46080, Note_on_c, 14, 48, 84
15, 46199, Note_on_c, 14, 48, 0
15, 46200, Note_on_c, 14, 53, 84
15, 46319, Note_on_c, 14, 53, 0
15, 46320, Note_on_c, 14, 57, 84
15, 46431, Note_on_c, 14, 57, 0
15, 46440, Note_on_c, 14, 58, 84
15, 46529, Note_on_c, 14, 58, 0
15, 46680, Note_on_c, 14, 48, 84
15, 46791, Note_on_c, 14, 48, 0
15, 46800, Note_on_c, 14, 48, 84
15, 46919, Note_on_c, 14, 48, 0
15, 46920, Note_on_c, 14, 55, 84
15, 47039, Note_on_c, 14, 55, 0
15, 47040, Note_on_c, 14, 58, 84
15, 47151, Note_on_c, 14, 58, 0
15, 47160, Note_on_c, 14, 56, 84
15, 47249, Note_on_c, 14, 56, 0
15, 47400, Note_on_c, 14, 48, 84
15, 47485, Note_on_c, 14, 48, 0
15, 47490, Note_on_c, 14, 48, 84
15, 47515, Note_on_c, 14, 48, 0
15, 47520, Note_on_c, 14, 48, 84
15, 47639, Note_on_c, 14, 48, 0
15, 47640, Note_on_c, 14, 53, 84
15, 47759, Note_on_c, 14, 53, 0
15, 47760, Note_on_c, 14, 56, 84
15, 47871, Note_on_c, 14, 56, 0
15, 47880, Note_on_c, 14, 58, 84
15, 47999, Note_on_c, 14, 58, 0
15, 48120, Note_on_c, 14, 48, 84
15, 48205, Note_on_c, 14, 48, 0
15, 48210, Note_on_c, 14, 48, 84
15, 48235, Note_on_c, 14, 48, 0
15, 48240, Note_on_c, 14, 48, 84
15, 48359, Note_on_c, 14, 48, 0
15, 48360, Note_on_c, 14, 55, 84
15, 48479, Note_on_c, 14, 55, 0
15, 48480, Note_on_c, 14, 58, 84
15, 48591, Note_on_c, 14, 58, 0
15, 48600, Note_on_c, 14, 56, 84
15, 48655, Note_on_c, 14, 56, 0
15, 48660, Note_on_c, 14, 56, 84
15, 48685, Note_on_c, 14, 56, 0
15, 48690, Note_on_c, 14, 56, 84
15, 48715, Note_on_c, 14, 56, 0
15, 48720, Note_on_c, 14, 56, 84
15, 48775, Note_on_c, 14, 56, 0
15, 48780, Note_on_c, 14, 56, 84
15, 48805, Note_on_c, 14, 56, 0
15, 48810, Note_on_c, 14, 56, 84
15, 48835, Note_on_c, 14, 56, 0
15, 48840, Note_on_c, 14, 56, 84
15, 48895, Note_on_c, 14, 56, 0
15, 48900, Note_on_c, 14, 56, 84
15, 48925, Note_on_c, 14, 56, 0
15, 48930, Note_on_c, 14, 56, 84
15, 48955, Note_on_c, 14, 56, 0
15, 48960, Note_on_c, 14, 56, 84
15, 49015, Note_on_c, 14, 56, 0
15, 49020, Note_on_c, 14, 56, 84
15, 49045, Note_on_c, 14, 56, 0
15, 49050, Note_on_c, 14, 56, 84
15, 49075, Note_on_c, 14, 56, 0
15, 49080, Note_on_c, 14, 56, 84
15, 49135, Note_on_c, 14, 56, 0
15, 49140, Note_on_c, 14, 56, 84
15, 49165, Note_on_c, 14, 56, 0
15, 49170, Note_on_c, 14, 56, 84
15, 49195, Note_on_c, 14, 56, 0
15, 49200, Note_on_c, 14, 56, 84
15, 49255, Note_on_c, 14, 56, 0
15, 49260, Note_on_c, 14, 56, 84
15, 49285, Note_on_c, 14, 56, 0
15, 49290, Note_on_c, 14, 56, 84
15, 49315, Note_on_c, 14, 56, 0
15, 49320, Note_on_c, 14, 55, 84
15, 49439, Note_on_c, 14, 55, 0
15, 49560, Control_c, 14, 11, 96
15, 49620, Note_on_c, 14, 59, 68
15, 49664, Note_on_c, 14, 59, 0
15, 49680, Note_on_c, 14, 60, 68
15, 49724, Note_on_c, 14, 60, 0
15, 49740, Note_on_c, 14, 59, 68
15, 49784, Note_on_c, 14, 59, 0
15, 49800, Note_on_c, 14, 60, 68
15, 49800, Control_c, 14, 11, 96
15, 49880, Control_c, 14, 11, 99
15, 49960, Control_c, 14, 11, 101
15, 49975, Note_on_c, 14, 60, 0
15, 49980, Note_on_c, 14, 61, 68
15, 50024, Note_on_c, 14, 61, 0
15, 50040, Control_c, 14, 11, 104
15, 50040, Note_on_c, 14, 62, 68
15, 50084, Note_on_c, 14, 62, 0
15, 50100, Note_on_c, 14, 61, 68
15, 50120, Control_c, 14, 11, 106
15, 50144, Note_on_c, 14, 61, 0
15, 50160, Note_on_c, 14, 62, 68
15, 50200, Control_c, 14, 11, 109
15, 50280, Control_c, 14, 11, 112
15, 50335, Note_on_c, 14, 62, 0
15, 50340, Note_on_c, 14, 62, 68
15, 50360, Control_c, 14, 11, 114
15, 50384, Note_on_c, 14, 62, 0
15, 50400, Note_on_c, 14, 63, 68
15, 50440, Control_c, 14, 11, 117
15, 50459, Note_on_c, 14, 63, 0
15, 50460, Note_on_c, 14, 62, 68
15, 50519, Note_on_c, 14, 62, 0
15, 50520, Note_on_c, 14, 63, 68
15, 50520, Control_c, 14, 11, 119
15, 50579, Note_on_c, 14, 63, 0
15, 50580, Note_on_c, 14, 60, 68
15, 50600, Control_c, 14, 11, 122
15, 50639, Note_on_c, 14, 60, 0
15, 50640, Note_on_c, 14, 53, 68
15, 50680, Control_c, 14, 11, 124
15, 50699, Note_on_c, 14, 53, 0
15, 50700, Note_on_c, 14, 54, 68
15, 50751, Note_on_c, 14, 54, 0
15, 50756, Control_c, 14, 11, 96
15, 50760, Note_on_c, 14, 55, 68
15, 50804, Note_on_c, 14, 55, 0
15, 50820, Note_on_c, 14, 54, 68
15, 50864, Note_on_c, 14, 54, 0
15, 50880, Note_on_c, 14, 55, 68
15, 50924, Note_on_c, 14, 55, 0
15, 50940, Note_on_c, 14, 54, 68
15, 50984, Note_on_c, 14, 54, 0
15, 51000, Note_on_c, 14, 55, 68
15, 51120, Control_c, 14, 11, 96
15, 51180, Control_c, 14, 11, 99
15, 51240, Control_c, 14, 11, 101
15, 51295, Note_on_c, 14, 55, 0
15, 51300, Control_c, 14, 11, 104
15, 51300, Note_on_c, 14, 54, 68
15, 51344, Note_on_c, 14, 54, 0
15, 51360, Control_c, 14, 11, 106
15, 51360, Note_on_c, 14, 55, 68
15, 51420, Control_c, 14, 11, 109
15, 51480, Control_c, 14, 11, 112
15, 51540, Control_c, 14, 11, 114
15, 51600, Control_c, 14, 11, 117
15, 51655, Note_on_c, 14, 55, 0
15, 51660, Note_on_c, 14, 55, 68
15, 51660, Control_c, 14, 11, 119
15, 51704, Note_on_c, 14, 55, 0
15, 51720, Note_on_c, 14, 56, 76
15, 51720, Control_c, 14, 11, 122
15, 51780, Control_c, 14, 11, 124
15, 51840, Control_c, 14, 11, 127
15, 51891, Note_on_c, 14, 56, 0
15, 51900, Note_on_c, 14, 56, 68
15, 51944, Note_on_c, 14, 56, 0
15, 51960, Note_on_c, 14, 57, 76
15, 52131, Note_on_c, 14, 57, 0
15, 52140, Note_on_c, 14, 57, 68
15, 52184, Note_on_c, 14, 57, 0
15, 52200, Note_on_c, 14, 58, 76
15, 52371, Note_on_c, 14, 58, 0
15, 52380, Note_on_c, 14, 58, 68
15, 52424, Note_on_c, 14, 58, 0
15, 52440, Note_on_c, 14, 59, 76
15, 52611, Note_on_c, 14, 59, 0
15, 52620, Note_on_c, 14, 59, 68
15, 52664, Note_on_c, 14, 59, 0
15, 52680, Note_on_c, 14, 60, 76
15, 52851, Note_on_c, 14, 60, 0
15, 52860, Note_on_c, 14, 60, 68
15, 52904, Note_on_c, 14, 60, 0
15, 52920, Note_on_c, 14, 61, 84
15, 52971, Note_on_c, 14, 61, 0
15, 52980, Note_on_c, 14, 61, 84
15, 53031, Note_on_c, 14, 61, 0
15, 53040, Note_on_c, 14, 61, 84
15, 53091, Note_on_c, 14, 61, 0
15, 53100, Note_on_c, 14, 61, 84
15, 53151, Note_on_c, 14, 61, 0
15, 53160, Note_on_c, 14, 61, 84
15, 53211, Note_on_c, 14, 61, 0
15, 53220, Note_on_c, 14, 61, 84
15, 53271, Note_on_c, 14, 61, 0
15, 53280, Note_on_c, 14, 61, 84
15, 53331, Note_on_c, 14, 61, 0
15, 53340, Note_on_c, 14, 61, 84
15, 53391, Note_on_c, 14, 61, 0
15, 53400, Note_on_c, 14, 61, 84
15, 53451, Note_on_c, 14, 61, 0
15, 53460, Note_on_c, 14, 61, 84
15, 53511, Note_on_c, 14, 61, 0
15, 53520, Note_on_c, 14, 61, 84
15, 53571, Note_on_c, 14, 61, 0
15, 53580, Note_on_c, 14, 61, 84
15, 53631, Note_on_c, 14, 61, 0
15, 53640, Note_on_c, 14, 61, 84
15, 53691, Note_on_c, 14, 61, 0
15, 53700, Note_on_c, 14, 61, 84
15, 53751, Note_on_c, 14, 61, 0
15, 53760, Note_on_c, 14, 61, 84
15, 53811, Note_on_c, 14, 61, 0
15, 53820, Note_on_c, 14, 61, 84
15, 53871, Note_on_c, 14, 61, 0
15, 53880, Note_on_c, 14, 61, 84
15, 53931, Note_on_c, 14, 61, 0
15, 53940, Note_on_c, 14, 61, 84
15, 53991, Note_on_c, 14, 61, 0
15, 54000, Note_on_c, 14, 62, 84
15, 54051, Note_on_c, 14, 62, 0
15, 54060, Note_on_c, 14, 62, 84
15, 54111, Note_on_c, 14, 62, 0
15, 54120, Note_on_c, 14, 62, 84
15, 54171, Note_on_c, 14, 62, 0
15, 54180, Note_on_c, 14, 62, 84
15, 54231, Note_on_c, 14, 62, 0
15, 54240, Note_on_c, 14, 62, 84
15, 54291, Note_on_c, 14, 62, 0
15, 54300, Note_on_c, 14, 62, 84
15, 54351, Note_on_c, 14, 62, 0
15, 54360, Note_on_c, 14, 59, 92
15, 54411, Note_on_c, 14, 59, 0
15, 54420, Note_on_c, 14, 59, 84
15, 54471, Note_on_c, 14, 59, 0
15, 54480, Note_on_c, 14, 59, 84
15, 54531, Note_on_c, 14, 59, 0
15, 54540, Note_on_c, 14, 59, 84
15, 54591, Note_on_c, 14, 59, 0
15, 54600, Note_on_c, 14, 59, 84
15, 54651, Note_on_c, 14, 59, 0
15, 54660, Note_on_c, 14, 59, 84
15, 54711, Note_on_c, 14, 59, 0
15, 54720, Note_on_c, 14, 56, 84
15, 54771, Note_on_c, 14, 56, 0
15, 54780, Note_on_c, 14, 56, 79
15, 54831, Note_on_c, 14, 56, 0
15, 54840, Note_on_c, 14, 56, 74
15, 54891, Note_on_c, 14, 56, 0
15, 54900, Note_on_c, 14, 56, 68
15, 54951, Note_on_c, 14, 56, 0
15, 54960, Note_on_c, 14, 56, 68
15, 55011, Note_on_c, 14, 56, 0
15, 55020, Note_on_c, 14, 56, 58
15, 55071, Note_on_c, 14, 56, 0
15, 55080, Note_on_c, 14, 57, 52
15, 55199, Note_on_c, 14, 57, 0
15, 55320, Program_c, 14, 45
15, 55440, Note_on_c, 14, 50, 52
15, 55559, Note_on_c, 14, 50, 0
15, 55800, Note_on_c, 14, 52, 52
15, 55919, Note_on_c, 14, 52, 0
15, 56160, Note_on_c, 14, 52, 52
15, 56279, Note_on_c, 14, 52, 0
15, 56400, Program_c, 14, 48
15, 56400, Control_c, 14, 11, 96
15, 56520, Note_on_c, 14, 57, 68
15, 56999, Note_on_c, 14, 57, 0
15, 57000, Note_on_c, 14, 61, 68
15, 57119, Note_on_c, 14, 61, 0
15, 57120, Note_on_c, 14, 64, 68
15, 57231, Note_on_c, 14, 64, 0
15, 57240, Note_on_c, 14, 69, 68
15, 57359, Note_on_c, 14, 69, 0
15, 57360, Note_on_c, 14, 68, 68
15, 57479, Note_on_c, 14, 68, 0
15, 57480, Note_on_c, 14, 69, 68
15, 57591, Note_on_c, 14, 69, 0
15, 57600, Note_on_c, 14, 64, 68
15, 57719, Note_on_c, 14, 64, 0
15, 57720, Note_on_c, 14, 63, 68
15, 57839, Note_on_c, 14, 63, 0
15, 57840, Note_on_c, 14, 62, 68
15, 57951, Note_on_c, 14, 62, 0
15, 57960, Control_c, 14, 11, 96
15, 57960, Note_on_c, 14, 61, 68
15, 58020, Control_c, 14, 11, 99
15, 58079, Note_on_c, 14, 61, 0
15, 58080, Note_on_c, 14, 59, 68
15, 58080, Control_c, 14, 11, 101
15, 58140, Control_c, 14, 11, 104
15, 58199, Note_on_c, 14, 59, 0
15, 58200, Note_on_c, 14, 57, 68
15, 58200, Control_c, 14, 11, 106
15, 58260, Control_c, 14, 11, 109
15, 58311, Note_on_c, 14, 57, 0
15, 58320, Control_c, 14, 11, 112
15, 58320, Note_on_c, 14, 56, 68
15, 58380, Control_c, 14, 11, 114
15, 58440, Control_c, 14, 11, 117
15, 58500, Control_c, 14, 11, 119
15, 58559, Note_on_c, 14, 56, 0
15, 58560, Note_on_c, 14, 58, 68
15, 58560, Control_c, 14, 11, 122
15, 58620, Control_c, 14, 11, 124
15, 58671, Note_on_c, 14, 58, 0
15, 58680, Control_c, 14, 11, 96
15, 58680, Note_on_c, 14, 59, 68
15, 58919, Note_on_c, 14, 59, 0
15, 58920, Note_on_c, 14, 54, 68
15, 59009, Note_on_c, 14, 54, 0
15, 59010, Note_on_c, 14, 57, 68
15, 59035, Note_on_c, 14, 57, 0
15, 59040, Note_on_c, 14, 56, 68
15, 59159, Note_on_c, 14, 56, 0
15, 59400, Note_on_c, 14, 45, 68
15, 59879, Note_on_c, 14, 45, 0
15, 59880, Note_on_c, 14, 49, 68
15, 59999, Note_on_c, 14, 49, 0
15, 60000, Note_on_c, 14, 52, 68
15, 60111, Note_on_c, 14, 52, 0
15, 60120, Note_on_c, 14, 57, 68
15, 60239, Note_on_c, 14, 57, 0
15, 60240, Note_on_c, 14, 56, 68
15, 60359, Note_on_c, 14, 56, 0
15, 60360, Note_on_c, 14, 57, 68
15, 60471, Note_on_c, 14, 57, 0
15, 60480, Note_on_c, 14, 52, 68
15, 60599, Note_on_c, 14, 52, 0
15, 60600, Note_on_c, 14, 64, 68
15, 60719, Note_on_c, 14, 64, 0
15, 60720, Note_on_c, 14, 62, 68
15, 60831, Note_on_c, 14, 62, 0
15, 60840, Note_on_c, 14, 61, 68
15, 60840, Control_c, 14, 11, 96
15, 60900, Control_c, 14, 11, 99
15, 60959, Note_on_c, 14, 61, 0
15, 60960, Control_c, 14, 11, 101
15, 60960, Note_on_c, 14, 59, 68
15, 61020, Control_c, 14, 11, 104
15, 61079, Note_on_c, 14, 59, 0
15, 61080, Note_on_c, 14, 57, 68
15, 61080, Control_c, 14, 11, 106
15, 61140, Control_c, 14, 11, 109
15, 61191, Note_on_c, 14, 57, 0
15, 61200, Note_on_c, 14, 56, 68
15, 61200, Control_c, 14, 11, 112
15, 61260, Control_c, 14, 11, 114
15, 61320, Control_c, 14, 11, 117
15, 61380, Control_c, 14, 11, 119
15, 61439, Note_on_c, 14, 56, 0
15, 61440, Control_c, 14, 11, 122
15, 61440, Note_on_c, 14, 58, 68
15, 61500, Control_c, 14, 11, 127
15, 61551, Note_on_c, 14, 58, 0
15, 61560, Note_on_c, 14, 59, 52
15, 61649, Note_on_c, 14, 59, 0
15, 61680, Note_on_c, 14, 50, 52
15, 61769, Note_on_c, 14, 50, 0
15, 61800, Note_on_c, 14, 50, 52
15, 61889, Note_on_c, 14, 50, 0
15, 61920, Note_on_c, 14, 52, 52
15, 62039, Note_on_c, 14, 52, 0
15, 62520, Note_on_c, 14, 40, 68
15, 62540, Control_c, 14, 11, 124
15, 62560, Control_c, 14, 11, 122
15, 62580, Control_c, 14, 11, 119
15, 62600, Control_c, 14, 11, 117
15, 62620, Control_c, 14, 11, 114
15, 62640, Control_c, 14, 11, 112
15, 62660, Control_c, 14, 11, 109
15, 62680, Control_c, 14, 11, 106
15, 62700, Control_c, 14, 11, 104
15, 62720, Control_c, 14, 11, 101
15, 62740, Control_c, 14, 11, 99
15, 62751, Note_on_c, 14, 40, 0
15, 62760, Note_on_c, 14, 45, 68
15, 62760, Control_c, 14, 11, 96
15, 62819, Note_on_c, 14, 45, 0
15, 63120, Control_c, 14, 11, 127
15, 63240, Note_on_c, 14, 40, 68
15, 63360, Control_c, 14, 11, 96
15, 63471, Note_on_c, 14, 40, 0
15, 63480, Note_on_c, 14, 47, 68
15, 63539, Note_on_c, 14, 47, 0
15, 63600, Note_on_c, 14, 59, 68
15, 63711, Note_on_c, 14, 59, 0
15, 63720, Note_on_c, 14, 59, 68
15, 63720, Control_c, 14, 11, 96
15, 63750, Control_c, 14, 11, 99
15, 63780, Control_c, 14, 11, 101
15, 63810, Control_c, 14, 11, 104
15, 63840, Control_c, 14, 11, 106
15, 63870, Control_c, 14, 11, 109
15, 63900, Control_c, 14, 11, 112
15, 63930, Control_c, 14, 11, 114
15, 63959, Note_on_c, 14, 59, 0
15, 63960, Note_on_c, 14, 61, 68
15, 63960, Control_c, 14, 11, 117
15, 63990, Control_c, 14, 11, 119
15, 64019, Note_on_c, 14, 61, 0
15, 64020, Note_on_c, 14, 62, 68
15, 64020, Control_c, 14, 11, 122
15, 64050, Control_c, 14, 11, 124
15, 64075, Note_on_c, 14, 62, 0
15, 64080, Note_on_c, 14, 62, 76
15, 64080, Control_c, 14, 11, 127
15, 64110, Control_c, 14, 11, 124
15, 64140, Control_c, 14, 11, 122
15, 64170, Control_c, 14, 11, 119
15, 64200, Control_c, 14, 11, 117
15, 64230, Control_c, 14, 11, 114
15, 64260, Control_c, 14, 11, 112
15, 64290, Control_c, 14, 11, 109
15, 64319, Note_on_c, 14, 62, 0
15, 64320, Note_on_c, 14, 61, 68
15, 64320, Control_c, 14, 11, 106
15, 64350, Control_c, 14, 11, 104
15, 64380, Control_c, 14, 11, 101
15, 64410, Control_c, 14, 11, 99
15, 64439, Note_on_c, 14, 61, 0
15, 64440, Control_c, 14, 11, 96
15, 64560, Note_on_c, 14, 59, 68
15, 64679, Note_on_c, 14, 59, 0
15, 64680, Note_on_c, 14, 64, 68
15, 64791, Note_on_c, 14, 64, 0
15, 64800, Note_on_c, 14, 57, 68
15, 65039, Note_on_c, 14, 57, 0
15, 65100, Control_c, 14, 11, 127
15, 65160, Note_on_c, 14, 62, 52
15, 65279, Note_on_c, 14, 62, 0
15, 65280, Note_on_c, 14, 61, 52
15, 65399, Note_on_c, 14, 61, 0
15, 65400, Note_on_c, 14, 52, 52
15, 65511, Note_on_c, 14, 52, 0
15, 65520, Note_on_c, 14, 57, 52
15, 65609, Note_on_c, 14, 57, 0
15, 65640, Note_on_c, 14, 45, 52
15, 65729, Note_on_c, 14, 45, 0
15, 65880, Note_on_c, 14, 64, 52
15, 65999, Note_on_c, 14, 64, 0
15, 66000, Note_on_c, 14, 62, 52
15, 66119, Note_on_c, 14, 62, 0
15, 66120, Note_on_c, 14, 61, 52
15, 66231, Note_on_c, 14, 61, 0
15, 66240, Note_on_c, 14, 56, 52
15, 66359, Note_on_c, 14, 56, 0
15, 66960, Note_on_c, 14, 52, 76
15, 66990, Control_c, 14, 11, 124
15, 67020, Control_c, 14, 11, 122
15, 67050, Control_c, 14, 11, 119
15, 67079, Note_on_c, 14, 52, 0
15, 67080, Note_on_c, 14, 50, 68
15, 67080, Control_c, 14, 11, 117
15, 67110, Control_c, 14, 11, 114
15, 67140, Control_c, 14, 11, 112
15, 67170, Control_c, 14, 11, 109
15, 67199, Note_on_c, 14, 50, 0
15, 67200, Control_c, 14, 11, 106
15, 67200, Note_on_c, 14, 49, 68
15, 67230, Control_c, 14, 11, 104
15, 67260, Control_c, 14, 11, 101
15, 67290, Control_c, 14, 11, 99
15, 67311, Note_on_c, 14, 49, 0
15, 67320, Control_c, 14, 11, 96
15, 67320, Note_on_c, 14, 47, 68
15, 67409, Note_on_c, 14, 47, 0
15, 67440, Note_on_c, 14, 47, 68
15, 67529, Note_on_c, 14, 47, 0
15, 67560, Note_on_c, 14, 52, 68
15, 67649, Note_on_c, 14, 52, 0
15, 67680, Note_on_c, 14, 45, 68
15, 67799, Note_on_c, 14, 45, 0
15, 67920, Control_c, 14, 11, 127
15, 68040, Note_on_c, 14, 61, 52
15, 68159, Note_on_c, 14, 61, 0
15, 68400, Note_on_c, 14, 59, 52
15, 68519, Note_on_c, 14, 59, 0
15, 68760, Note_on_c, 14, 52, 52
15, 68879, Note_on_c, 14, 52, 0
15, 69120, Note_on_c, 14, 57, 52
15, 69239, Note_on_c, 14, 57, 0
15, 69480, Note_on_c, 14, 60, 52
15, 69599, Note_on_c, 14, 60, 0
15, 69840, Note_on_c, 14, 59, 52
15, 69959, Note_on_c, 14, 59, 0
15, 70200, Note_on_c, 14, 52, 52
15, 70319, Note_on_c, 14, 52, 0
15, 70560, Note_on_c, 14, 57, 52
15, 70679, Note_on_c, 14, 57, 0
15, 70920, Note_on_c, 14, 45, 76
15, 71009, Note_on_c, 14, 45, 0
15, 71010, Note_on_c, 14, 48, 76
15, 71035, Note_on_c, 14, 48, 0
15, 71040, Note_on_c, 14, 53, 76
15, 71129, Note_on_c, 14, 53, 0
15, 71280, Note_on_c, 14, 55, 52
15, 71369, Note_on_c, 14, 55, 0
15, 71370, Note_on_c, 14, 58, 52
15, 71395, Note_on_c, 14, 58, 0
15, 71400, Note_on_c, 14, 64, 52
15, 71489, Note_on_c, 14, 64, 0
15, 71640, Note_on_c, 14, 41, 76
15, 71729, Note_on_c, 14, 41, 0
15, 71730, Note_on_c, 14, 45, 76
15, 71755, Note_on_c, 14, 45, 0
15, 71760, Note_on_c, 14, 50, 76
15, 71849, Note_on_c, 14, 50, 0
15, 72000, Note_on_c, 14, 52, 52
15, 72089, Note_on_c, 14, 52, 0
15, 72090, Note_on_c, 14, 55, 52
15, 72115, Note_on_c, 14, 55, 0
15, 72120, Note_on_c, 14, 60, 52
15, 72209, Note_on_c, 14, 60, 0
15, 72360, Note_on_c, 14, 50, 76
15, 72449, Note_on_c, 14, 50, 0
15, 72450, Note_on_c, 14, 53, 52
15, 72475, Note_on_c, 14, 53, 0
15, 72480, Note_on_c, 14, 58, 52
15, 72569, Note_on_c, 14, 58, 0
15, 72720, Note_on_c, 14, 51, 76
15, 72809, Note_on_c, 14, 51, 0
15, 72810, Note_on_c, 14, 57, 52
15, 72835, Note_on_c, 14, 57, 0
15, 72840, Note_on_c, 14, 60, 52
15, 72929, Note_on_c, 14, 60, 0
15, 73080, Note_on_c, 14, 52, 52
15, 73199, Note_on_c, 14, 52, 0
15, 73440, Note_on_c, 14, 52, 52
15, 73484, Note_on_c, 14, 52, 0
15, 73500, Note_on_c, 14, 56, 76
15, 73611, Note_on_c, 14, 56, 0
15, 73620, Note_on_c, 14, 56, 52
15, 73664, Note_on_c, 14, 56, 0
15, 73680, Note_on_c, 14, 57, 52
15, 73724, Note_on_c, 14, 57, 0
15, 73740, Note_on_c, 14, 57, 52
15, 73784, Note_on_c, 14, 57, 0
15, 73800, Note_on_c, 14, 52, 52
15, 73889, Note_on_c, 14, 52, 0
15, 74160, Note_on_c, 14, 52, 52
15, 74204, Note_on_c, 14, 52, 0
15, 74220, Note_on_c, 14, 56, 76
15, 74331, Note_on_c, 14, 56, 0
15, 74340, Note_on_c, 14, 56, 52
15, 74384, Note_on_c, 14, 56, 0
15, 74400, Note_on_c, 14, 57, 52
15, 74444, Note_on_c, 14, 57, 0
15, 74460, Note_on_c, 14, 57, 52
15, 74504, Note_on_c, 14, 57, 0
15, 74520, Note_on_c, 14, 52, 52
15, 74564, Note_on_c, 14, 52, 0
15, 74580, Note_on_c, 14, 56, 76
15, 74691, Note_on_c, 14, 56, 0
15, 74700, Note_on_c, 14, 56, 52
15, 74744, Note_on_c, 14, 56, 0
15, 74760, Note_on_c, 14, 57, 52
15, 74804, Note_on_c, 14, 57, 0
15, 74820, Note_on_c, 14, 57, 52
15, 74864, Note_on_c, 14, 57, 0
15, 74880, Note_on_c, 14, 52, 84
15, 74924, Note_on_c, 14, 52, 0
15, 74940, Note_on_c, 14, 52, 84
15, 74984, Note_on_c, 14, 52, 0
15, 75000, Note_on_c, 14, 56, 84
15, 75044, Note_on_c, 14, 56, 0
15, 75060, Note_on_c, 14, 52, 84
15, 75104, Note_on_c, 14, 52, 0
15, 75120, Note_on_c, 14, 57, 84
15, 75164, Note_on_c, 14, 57, 0
15, 75180, Note_on_c, 14, 45, 84
15, 75224, Note_on_c, 14, 45, 0
15, 75240, Note_on_c, 14, 52, 84
15, 75359, Note_on_c, 14, 52, 0
15, 75840, Control_c, 14, 11, 96
15, 75960, Note_on_c, 14, 56, 68
15, 76079, Note_on_c, 14, 56, 0
15, 76080, Note_on_c, 14, 52, 68
15, 76311, Note_on_c, 14, 52, 0
15, 76320, Note_on_c, 14, 57, 68
15, 76439, Note_on_c, 14, 57, 0
15, 76440, Note_on_c, 14, 52, 68
15, 76671, Note_on_c, 14, 52, 0
15, 76680, Note_on_c, 14, 59, 68
15, 76799, Note_on_c, 14, 59, 0
15, 76800, Note_on_c, 14, 52, 68
15, 77095, Note_on_c, 14, 52, 0
15, 77100, Note_on_c, 14, 64, 68
15, 77144, Note_on_c, 14, 64, 0
15, 77160, Note_on_c, 14, 61, 68
15, 77160, Control_c, 14, 11, 96
15, 77180, Control_c, 14, 11, 99
15, 77200, Control_c, 14, 11, 101
15, 77204, Note_on_c, 14, 61, 0
15, 77220, Control_c, 14, 11, 104
15, 77220, Note_on_c, 14, 64, 68
15, 77240, Control_c, 14, 11, 106
15, 77260, Control_c, 14, 11, 109
15, 77264, Note_on_c, 14, 64, 0
15, 77280, Note_on_c, 14, 61, 68
15, 77280, Control_c, 14, 11, 112
15, 77300, Control_c, 14, 11, 114
15, 77320, Control_c, 14, 11, 117
15, 77324, Note_on_c, 14, 61, 0
15, 77340, Control_c, 14, 11, 119
15, 77340, Note_on_c, 14, 57, 68
15, 77360, Control_c, 14, 11, 122
15, 77380, Control_c, 14, 11, 124
15, 77384, Note_on_c, 14, 57, 0
15, 77400, Control_c, 14, 11, 127
15, 77400, Note_on_c, 14, 56, 52
15, 77519, Note_on_c, 14, 56, 0
15, 77520, Note_on_c, 14, 52, 52
15, 77751, Note_on_c, 14, 52, 0
15, 77760, Note_on_c, 14, 57, 52
15, 77879, Note_on_c, 14, 57, 0
15, 77880, Note_on_c, 14, 52, 52
15, 78111, Note_on_c, 14, 52, 0
15, 78120, Note_on_c, 14, 59, 52
15, 78239, Note_on_c, 14, 59, 0
15, 78240, Note_on_c, 14, 52, 52
15, 78471, Note_on_c, 14, 52, 0
15, 78480, Note_on_c, 14, 57, 52
15, 78599, Note_on_c, 14, 57, 0
15, 78720, Control_c, 14, 11, 80
15, 78780, Note_on_c, 14, 61, 76
15, 78824, Note_on_c, 14, 61, 0
15, 78840, Control_c, 14, 11, 80
15, 78840, Note_on_c, 14, 62, 76
15, 78884, Note_on_c, 14, 62, 0
15, 78900, Note_on_c, 14, 61, 76
15, 78910, Control_c, 14, 11, 84
15, 78944, Note_on_c, 14, 61, 0
15, 78960, Note_on_c, 14, 62, 76
15, 78980, Control_c, 14, 11, 88
15, 79050, Control_c, 14, 11, 92
15, 79120, Control_c, 14, 11, 96
15, 79135, Note_on_c, 14, 62, 0
15, 79140, Note_on_c, 14, 62, 76
15, 79190, Control_c, 14, 11, 100
15, 79195, Note_on_c, 14, 62, 0
15, 79200, Note_on_c, 14, 64, 76
15, 79244, Note_on_c, 14, 64, 0
15, 79260, Note_on_c, 14, 63, 76
15, 79260, Control_c, 14, 11, 104
15, 79304, Note_on_c, 14, 63, 0
15, 79320, Note_on_c, 14, 64, 76
15, 79330, Control_c, 14, 11, 107
15, 79400, Control_c, 14, 11, 111
15, 79470, Control_c, 14, 11, 115
15, 79495, Note_on_c, 14, 64, 0
15, 79500, Note_on_c, 14, 64, 76
15, 79540, Control_c, 14, 11, 119
15, 79544, Note_on_c, 14, 64, 0
15, 79560, Note_on_c, 14, 66, 76
15, 79604, Note_on_c, 14, 66, 0
15, 79610, Control_c, 14, 11, 123
15, 79620, Note_on_c, 14, 65, 76
15, 79664, Note_on_c, 14, 65, 0
15, 79680, Note_on_c, 14, 66, 76
15, 79680, Control_c, 14, 11, 127
15, 79855, Note_on_c, 14, 66, 0
15, 79860, Note_on_c, 14, 66, 76
15, 79915, Note_on_c, 14, 66, 0
15, 79920, Note_on_c, 14, 68, 76
15, 80095, Note_on_c, 14, 68, 0
15, 80100, Note_on_c, 14, 56, 52
15, 80144, Note_on_c, 14, 56, 0
15, 80160, Note_on_c, 14, 56, 52
15, 80204, Note_on_c, 14, 56, 0
15, 80220, Note_on_c, 14, 57, 52
15, 80264, Note_on_c, 14, 57, 0
15, 80280, Note_on_c, 14, 50, 52
15, 80455, Note_on_c, 14, 50, 0
15, 80460, Note_on_c, 14, 62, 76
15, 80504, Note_on_c, 14, 62, 0
15, 80520, Note_on_c, 14, 61, 76
15, 80564, Note_on_c, 14, 61, 0
15, 80580, Note_on_c, 14, 59, 76
15, 80624, Note_on_c, 14, 59, 0
15, 80640, Note_on_c, 14, 64, 84
15, 80640, Control_c, 14, 11, 127
15, 80670, Control_c, 14, 11, 123
15, 80700, Control_c, 14, 11, 119
15, 80729, Note_on_c, 14, 64, 0
15, 80730, Control_c, 14, 11, 115
15, 80760, Control_c, 14, 11, 111
15, 80760, Note_on_c, 14, 52, 76
15, 80790, Control_c, 14, 11, 107
15, 80820, Control_c, 14, 11, 104
15, 80849, Note_on_c, 14, 52, 0
15, 80850, Control_c, 14, 11, 100
15, 80880, Control_c, 14, 11, 96
15, 80880, Note_on_c, 14, 52, 76
15, 80910, Control_c, 14, 11, 92
15, 80940, Control_c, 14, 11, 88
15, 80969, Note_on_c, 14, 52, 0
15, 80970, Control_c, 14, 11, 84
15, 81000, Control_c, 14, 11, 80
15, 81000, Note_on_c, 14, 57, 76
15, 81119, Note_on_c, 14, 57, 0
15, 81300, Note_on_c, 14, 49, 76
15, 81344, Note_on_c, 14, 49, 0
15, 81360, Note_on_c, 14, 50, 76
15, 81360, Control_c, 14, 11, 80
15, 81404, Note_on_c, 14, 50, 0
15, 81420, Note_on_c, 14, 49, 76
15, 81430, Control_c, 14, 11, 84
15, 81464, Note_on_c, 14, 49, 0
15, 81480, Note_on_c, 14, 50, 76
15, 81500, Control_c, 14, 11, 88
15, 81570, Control_c, 14, 11, 92
15, 81640, Control_c, 14, 11, 96
15, 81655, Note_on_c, 14, 50, 0
15, 81660, Note_on_c, 14, 50, 76
15, 81710, Control_c, 14, 11, 100
15, 81715, Note_on_c, 14, 50, 0
15, 81720, Note_on_c, 14, 52, 76
15, 81764, Note_on_c, 14, 52, 0
15, 81780, Note_on_c, 14, 51, 76
15, 81780, Control_c, 14, 11, 104
15, 81824, Note_on_c, 14, 51, 0
15, 81840, Note_on_c, 14, 52, 76
15, 81850, Control_c, 14, 11, 107
15, 81920, Control_c, 14, 11, 111
15, 81990, Control_c, 14, 11, 115
15, 82015, Note_on_c, 14, 52, 0
15, 82020, Note_on_c, 14, 52, 76
15, 82060, Control_c, 14, 11, 119
15, 82064, Note_on_c, 14, 52, 0
15, 82080, Note_on_c, 14, 54, 76
15, 82124, Note_on_c, 14, 54, 0
15, 82130, Control_c, 14, 11, 123
15, 82140, Note_on_c, 14, 53, 76
15, 82184, Note_on_c, 14, 53, 0
15, 82200, Control_c, 14, 11, 127
15, 82200, Note_on_c, 14, 54, 76
15, 82375, Note_on_c, 14, 54, 0
15, 82380, Note_on_c, 14, 54, 76
15, 82424, Note_on_c, 14, 54, 0
15, 82440, Note_on_c, 14, 56, 84
15, 82619, Note_on_c, 14, 56, 0
15, 82980, Note_on_c, 14, 54, 52
15, 83039, Note_on_c, 14, 54, 0
15, 83040, Note_on_c, 14, 53, 52
15, 83099, Note_on_c, 14, 53, 0
15, 83100, Note_on_c, 14, 49, 52
15, 83155, Note_on_c, 14, 49, 0
15, 83160, Note_on_c, 14, 50, 52
15, 83339, Note_on_c, 14, 50, 0
15, 83580, Note_on_c, 14, 45, 52
15, 83639, Note_on_c, 14, 45, 0
15, 83640, Note_on_c, 14, 47, 52
15, 83699, Note_on_c, 14, 47, 0
15, 83700, Note_on_c, 14, 49, 52
15, 83759, Note_on_c, 14, 49, 0
15, 83760, Note_on_c, 14, 50, 52
15, 83804, Note_on_c, 14, 50, 0
15, 84000, Control_c, 14, 11, 80
15, 84060, Note_on_c, 14, 45, 76
15, 84119, Note_on_c, 14, 45, 0
15, 84120, Note_on_c, 14, 47, 76
15, 84179, Note_on_c, 14, 47, 0
15, 84180, Note_on_c, 14, 49, 76
15, 84239, Note_on_c, 14, 49, 0
15, 84240, Note_on_c, 14, 50, 76
15, 84240, Control_c, 14, 11, 80
15, 84284, Note_on_c, 14, 50, 0
15, 84285, Control_c, 14, 11, 84
15, 84300, Note_on_c, 14, 45, 76
15, 84330, Control_c, 14, 11, 88
15, 84359, Note_on_c, 14, 45, 0
15, 84360, Note_on_c, 14, 47, 76
15, 84375, Control_c, 14, 11, 92
15, 84419, Note_on_c, 14, 47, 0
15, 84420, Control_c, 14, 11, 96
15, 84420, Note_on_c, 14, 49, 76
15, 84465, Control_c, 14, 11, 100
15, 84479, Note_on_c, 14, 49, 0
15, 84480, Note_on_c, 14, 50, 76
15, 84510, Control_c, 14, 11, 104
15, 84535, Note_on_c, 14, 50, 0
15, 84540, Note_on_c, 14, 45, 76
15, 84555, Control_c, 14, 11, 107
15, 84599, Note_on_c, 14, 45, 0
15, 84600, Note_on_c, 14, 47, 76
15, 84600, Control_c, 14, 11, 111
15, 84645, Control_c, 14, 11, 115
15, 84659, Note_on_c, 14, 47, 0
15, 84660, Note_on_c, 14, 49, 76
15, 84690, Control_c, 14, 11, 119
15, 84719, Note_on_c, 14, 49, 0
15, 84720, Note_on_c, 14, 50, 76
15, 84735, Control_c, 14, 11, 123
15, 84764, Note_on_c, 14, 50, 0
15, 84780, Note_on_c, 14, 45, 76
15, 84780, Control_c, 14, 11, 127
15, 84839, Note_on_c, 14, 45, 0
15, 84840, Note_on_c, 14, 47, 76
15, 84899, Note_on_c, 14, 47, 0
15, 84900, Note_on_c, 14, 49, 76
15, 84955, Note_on_c, 14, 49, 0
15, 84960, Note_on_c, 14, 50, 84
15, 85311, Note_on_c, 14, 50, 0
15, 85320, Note_on_c, 14, 59, 84
15, 85671, Note_on_c, 14, 59, 0
15, 85680, Note_on_c, 14, 56, 76
15, 85746, Note_on_c, 14, 56, 0
15, 85770, Note_on_c, 14, 56, 76
15, 85791, Note_on_c, 14, 56, 0
15, 85800, Note_on_c, 14, 56, 76
15, 85889, Note_on_c, 14, 56, 0
15, 86040, Note_on_c, 14, 57, 76
15, 86106, Note_on_c, 14, 57, 0
15, 86130, Note_on_c, 14, 57, 76
15, 86151, Note_on_c, 14, 57, 0
15, 86160, Note_on_c, 14, 57, 76
15, 86249, Note_on_c, 14, 57, 0
15, 86400, Note_on_c, 14, 50, 52
15, 86489, Note_on_c, 14, 50, 0
15, 86520, Note_on_c, 14, 52, 52
15, 86609, Note_on_c, 14, 52, 0
15, 86640, Note_on_c, 14, 52, 52
15, 86729, Note_on_c, 14, 52, 0
15, 86760, Note_on_c, 14, 57, 52
15, 86879, Note_on_c, 14, 57, 0
15, 87120, Note_on_c, 14, 56, 44
15, 87186, Note_on_c, 14, 56, 0
15, 87210, Note_on_c, 14, 56, 44
15, 87231, Note_on_c, 14, 56, 0
15, 87240, Note_on_c, 14, 56, 44
15, 87329, Note_on_c, 14, 56, 0
15, 87480, Note_on_c, 14, 57, 44
15, 87546, Note_on_c, 14, 57, 0
15, 87570, Note_on_c, 14, 57, 44
15, 87591, Note_on_c, 14, 57, 0
15, 87600, Note_on_c, 14, 57, 44
15, 87689, Note_on_c, 14, 57, 0
15, 87840, Note_on_c, 14, 50, 44
15, 87929, Note_on_c, 14, 50, 0
15, 87960, Note_on_c, 14, 52, 44
15, 88049, Note_on_c, 14, 52, 0
15, 88080, Note_on_c, 14, 52, 44
15, 88169, Note_on_c, 14, 52, 0
15, 88200, Note_on_c, 14, 45, 44
15, 88319, Note_on_c, 14, 45, 0
15, 88380, Note_on_c, 14, 57, 44
15, 88424, Note_on_c, 14, 57, 0
15, 88440, Note_on_c, 14, 59, 44
15, 88469, Note_on_c, 14, 59, 0
15, 88470, Note_on_c, 14, 57, 44
15, 88499, Note_on_c, 14, 57, 0
15, 88500, Note_on_c, 14, 56, 44
15, 88529, Note_on_c, 14, 56, 0
15, 88530, Note_on_c, 14, 57, 44
15, 88555, Note_on_c, 14, 57, 0
15, 88560, Note_on_c, 14, 54, 44
15, 88604, Note_on_c, 14, 54, 0
15, 88620, Note_on_c, 14, 49, 44
15, 88664, Note_on_c, 14, 49, 0
15, 88680, Note_on_c, 14, 45, 44
15, 88724, Note_on_c, 14, 45, 0
15, 88740, Note_on_c, 14, 57, 44
15, 88784, Note_on_c, 14, 57, 0
15, 88800, Note_on_c, 14, 59, 44
15, 88829, Note_on_c, 14, 59, 0
15, 88830, Note_on_c, 14, 57, 44
15, 88859, Note_on_c, 14, 57, 0
15, 88860, Note_on_c, 14, 56, 44
15, 88889, Note_on_c, 14, 56, 0
15, 88890, Note_on_c, 14, 57, 44
15, 88915, Note_on_c, 14, 57, 0
15, 88920, Note_on_c, 14, 54, 44
15, 88964, Note_on_c, 14, 54, 0
15, 88980, Note_on_c, 14, 50, 44
15, 89024, Note_on_c, 14, 50, 0
15, 89040, Note_on_c, 14, 47, 44
15, 89084, Note_on_c, 14, 47, 0
15, 89280, Note_on_c, 14, 52, 44
15, 89399, Note_on_c, 14, 52, 0
15, 89640, Note_on_c, 14, 57, 44
15, 89759, Note_on_c, 14, 57, 0
15, 89820, Note_on_c, 14, 57, 44
15, 89864, Note_on_c, 14, 57, 0
15, 89880, Note_on_c, 14, 52, 44
15, 89924, Note_on_c, 14, 52, 0
15, 89940, Note_on_c, 14, 49, 44
15, 89984, Note_on_c, 14, 49, 0
15, 90000, Note_on_c, 14, 45, 44
15, 90119, Note_on_c, 14, 45, 0
15, 90180, Note_on_c, 14, 49, 44
15, 90224, Note_on_c, 14, 49, 0
15, 90240, Note_on_c, 14, 52, 44
15, 90284, Note_on_c, 14, 52, 0
15, 90300, Note_on_c, 14, 57, 44
15, 90344, Note_on_c, 14, 57, 0
15, 90360, Note_on_c, 14, 50, 44
15, 90479, Note_on_c, 14, 50, 0
15, 90540, Note_on_c, 14, 50, 44
15, 90584, Note_on_c, 14, 50, 0
15, 90600, Note_on_c, 14, 54, 44
15, 90644, Note_on_c, 14, 54, 0
15, 90660, Note_on_c, 14, 59, 44
15, 90704, Note_on_c, 14, 59, 0
15, 90720, Note_on_c, 14, 52, 44
15, 90839, Note_on_c, 14, 52, 0
15, 90900, Note_on_c, 14, 52, 44
15, 90944, Note_on_c, 14, 52, 0
15, 90960, Note_on_c, 14, 56, 44
15, 91004, Note_on_c, 14, 56, 0
15, 91020, Note_on_c, 14, 59, 44
15, 91064, Note_on_c, 14, 59, 0
15, 91080, Note_on_c, 14, 57, 44
15, 91199, Note_on_c, 14, 57, 0
15, 91440, Note_on_c, 14, 52, 44
15, 91559, Note_on_c, 14, 52, 0
15, 91680, Note_on_c, 14, 52, 44
15, 91791, Note_on_c, 14, 52, 0
15, 91800, Note_on_c, 14, 57, 44
15, 91919, Note_on_c, 14, 57, 0
15, 92040, Control_c, 14, 11, 64
15, 92160, Note_on_c, 14, 52, 76
15, 92160, Control_c, 14, 11, 64
15, 92190, Control_c, 14, 11, 69
15, 92220, Control_c, 14, 11, 75
15, 92250, Control_c, 14, 11, 80
15, 92279, Note_on_c, 14, 52, 0
15, 92280, Control_c, 14, 11, 85
15, 92310, Control_c, 14, 11, 90
15, 92340, Control_c, 14, 11, 96
15, 92370, Control_c, 14, 11, 101
15, 92400, Control_c, 14, 11, 106
15, 92400, Note_on_c, 14, 52, 76
15, 92430, Control_c, 14, 11, 111
15, 92444, Note_on_c, 14, 52, 0
15, 92460, Control_c, 14, 11, 117
15, 92460, Note_on_c, 14, 52, 76
15, 92490, Control_c, 14, 11, 122
15, 92504, Note_on_c, 14, 52, 0
15, 92520, Note_on_c, 14, 57, 76
15, 92520, Control_c, 14, 11, 127
15, 92564, Note_on_c, 14, 57, 0
15, 92580, Note_on_c, 14, 52, 84
15, 92691, Note_on_c, 14, 52, 0
15, 92700, Note_on_c, 14, 52, 76
15, 92744, Note_on_c, 14, 52, 0
15, 92760, Note_on_c, 14, 52, 76
15, 92804, Note_on_c, 14, 52, 0
15, 92820, Note_on_c, 14, 52, 76
15, 92864, Note_on_c, 14, 52, 0
15, 92880, Note_on_c, 14, 57, 76
15, 92924, Note_on_c, 14, 57, 0
15, 92940, Note_on_c, 14, 52, 84
15, 93051, Note_on_c, 14, 52, 0
15, 93060, Note_on_c, 14, 52, 76
15, 93104, Note_on_c, 14, 52, 0
15, 93120, Note_on_c, 14, 52, 76
15, 93164, Note_on_c, 14, 52, 0
15, 93180, Note_on_c, 14, 52, 76
15, 93224, Note_on_c, 14, 52, 0
15, 93240, Note_on_c, 14, 52, 76
15, 93329, Note_on_c, 14, 52, 0
15, 93360, Note_on_c, 14, 52, 76
15, 93449, Note_on_c, 14, 52, 0
15, 93720, Note_on_c, 14, 52, 52
15, 93839, Note_on_c, 14, 52, 0
15, 94080, Note_on_c, 14, 52, 44
15, 94199, Note_on_c, 14, 52, 0
15, 94680, Note_on_c, 14, 45, 52
15, 94799, Note_on_c, 14, 45, 0
15, 94800, Note_on_c, 14, 49, 52
15, 94919, Note_on_c, 14, 49, 0
15, 94920, Note_on_c, 14, 52, 52
15, 95031, Note_on_c, 14, 52, 0
15, 95040, Note_on_c, 14, 57, 52
15, 95129, Note_on_c, 14, 57, 0
15, 95400, Note_on_c, 14, 57, 52
15, 95519, Note_on_c, 14, 57, 0
15, 95520, Note_on_c, 14, 56, 52
15, 95639, Note_on_c, 14, 56, 0
15, 95640, Note_on_c, 14, 57, 52
15, 95751, Note_on_c, 14, 57, 0
15, 95760, Note_on_c, 14, 52, 52
15, 95849, Note_on_c, 14, 52, 0
15, 96000, Control_c, 14, 11, 96
15, 96120, Note_on_c, 14, 45, 68
15, 96150, Control_c, 14, 11, 99
15, 96180, Control_c, 14, 11, 101
15, 96210, Control_c, 14, 11, 104
15, 96239, Note_on_c, 14, 45, 0
15, 96240, Note_on_c, 14, 47, 68
15, 96240, Control_c, 14, 11, 106
15, 96270, Control_c, 14, 11, 109
15, 96300, Control_c, 14, 11, 112
15, 96330, Control_c, 14, 11, 114
15, 96359, Note_on_c, 14, 47, 0
15, 96360, Control_c, 14, 11, 117
15, 96360, Note_on_c, 14, 49, 68
15, 96390, Control_c, 14, 11, 119
15, 96420, Control_c, 14, 11, 122
15, 96450, Control_c, 14, 11, 124
15, 96471, Note_on_c, 14, 49, 0
15, 96480, Note_on_c, 14, 50, 52
15, 96480, Control_c, 14, 11, 127
15, 96569, Note_on_c, 14, 50, 0
15, 96840, Note_on_c, 14, 52, 52
15, 96929, Note_on_c, 14, 52, 0
15, 97200, Note_on_c, 14, 57, 52
15, 97289, Note_on_c, 14, 57, 0
15, 97560, Note_on_c, 14, 57, 84
15, 97615, Note_on_c, 14, 57, 0
15, 97620, Note_on_c, 14, 57, 84
15, 97645, Note_on_c, 14, 57, 0
15, 97650, Note_on_c, 14, 57, 84
15, 97675, Note_on_c, 14, 57, 0
15, 97680, Note_on_c, 14, 59, 84
15, 97735, Note_on_c, 14, 59, 0
15, 97740, Note_on_c, 14, 59, 84
15, 97765, Note_on_c, 14, 59, 0
15, 97770, Note_on_c, 14, 59, 84
15, 97795, Note_on_c, 14, 59, 0
15, 97800, Note_on_c, 14, 61, 84
15, 97855, Note_on_c, 14, 61, 0
15, 97860, Note_on_c, 14, 61, 84
15, 97885, Note_on_c, 14, 61, 0
15, 97890, Note_on_c, 14, 61, 84
15, 97915, Note_on_c, 14, 61, 0
15, 97920, Note_on_c, 14, 62, 84
15, 98009, Note_on_c, 14, 62, 0
15, 98040, Note_on_c, 14, 50, 92
15, 98129, Note_on_c, 14, 50, 0
15, 98280, Note_on_c, 14, 52, 84
15, 98369, Note_on_c, 14, 52, 0
15, 98400, Note_on_c, 14, 52, 92
15, 98489, Note_on_c, 14, 52, 0
15, 98640, Note_on_c, 14, 57, 84
15, 98729, Note_on_c, 14, 57, 0
15, 98880, Note_on_c, 14, 45, 52
15, 98969, Note_on_c, 14, 45, 0
15, 99000, Note_on_c, 14, 45, 52
15, 99089, Note_on_c, 14, 45, 0
15, 99089, End_track
16, 0, Start_track
16, 0, Title_t, "Contrabass"
16, 0, MIDI_port, 0
16, 0, Program_c, 15, 48
16, 0, Control_c, 15, 7, 88
16, 0, Control_c, 15, 10, 100
16, 0, Control_c, 15, 11, 127
16, 2280, Note_on_c, 15, 35, 52
16, 2369, Note_on_c, 15, 35, 0
16, 2400, Note_on_c, 15, 35, 52
16, 2489, Note_on_c, 15, 35, 0
16, 2520, Note_on_c, 15, 40, 52
16, 2639, Note_on_c, 15, 40, 0
16, 2760, Control_c, 15, 11, 96
16, 2880, Note_on_c, 15, 33, 68
16, 3359, Note_on_c, 15, 33, 0
16, 3360, Note_on_c, 15, 37, 68
16, 3479, Note_on_c, 15, 37, 0
16, 3480, Note_on_c, 15, 40, 68
16, 3591, Note_on_c, 15, 40, 0
16, 3600, Note_on_c, 15, 45, 68
16, 3719, Note_on_c, 15, 45, 0
16, 3720, Note_on_c, 15, 44, 68
16, 3839, Note_on_c, 15, 44, 0
16, 3840, Note_on_c, 15, 45, 68
16, 3951, Note_on_c, 15, 45, 0
16, 3960, Note_on_c, 15, 52, 68
16, 4079, Note_on_c, 15, 52, 0
16, 4080, Note_on_c, 15, 51, 68
16, 4199, Note_on_c, 15, 51, 0
16, 4200, Note_on_c, 15, 50, 68
16, 4311, Note_on_c, 15, 50, 0
16, 4320, Control_c, 15, 11, 96
16, 4320, Note_on_c, 15, 49, 68
16, 4380, Control_c, 15, 11, 99
16, 4439, Note_on_c, 15, 49, 0
16, 4440, Control_c, 15, 11, 101
16, 4440, Note_on_c, 15, 47, 68
16, 4500, Control_c, 15, 11, 104
16, 4559, Note_on_c, 15, 47, 0
16, 4560, Note_on_c, 15, 45, 68
16, 4560, Control_c, 15, 11, 106
16, 4620, Control_c, 15, 11, 109
16, 4671, Note_on_c, 15, 45, 0
16, 4680, Note_on_c, 15, 44, 68
16, 4680, Control_c, 15, 11, 112
16, 4740, Control_c, 15, 11, 114
16, 4800, Control_c, 15, 11, 117
16, 4860, Control_c, 15, 11, 119
16, 4919, Note_on_c, 15, 44, 0
16, 4920, Note_on_c, 15, 46, 68
16, 4920, Control_c, 15, 11, 122
16, 4980, Control_c, 15, 11, 124
16, 5031, Note_on_c, 15, 46, 0
16, 5036, Control_c, 15, 11, 96
16, 5040, Note_on_c, 15, 47, 68
16, 5129, Note_on_c, 15, 47, 0
16, 5160, Note_on_c, 15, 35, 68
16, 5249, Note_on_c, 15, 35, 0
16, 5280, Note_on_c, 15, 35, 68
16, 5369, Note_on_c, 15, 35, 0
16, 5400, Note_on_c, 15, 40, 68
16, 5519, Note_on_c, 15, 40, 0
16, 8520, Control_c, 15, 11, 127
16, 8640, Note_on_c, 15, 50, 52
16, 8759, Note_on_c, 15, 50, 0
16, 8760, Note_on_c, 15, 49, 52
16, 8879, Note_on_c, 15, 49, 0
16, 8880, Note_on_c, 15, 40, 52
16, 8991, Note_on_c, 15, 40, 0
16, 9000, Note_on_c, 15, 45, 52
16, 9089, Note_on_c, 15, 45, 0
16, 9120, Note_on_c, 15, 33, 52
16, 9209, Note_on_c, 15, 33, 0
16, 9360, Note_on_c, 15, 52, 52
16, 9479, Note_on_c, 15, 52, 0
16, 9480, Note_on_c, 15, 50, 52
16, 9599, Note_on_c, 15, 50, 0
16, 9600, Note_on_c, 15, 49, 52
16, 9711, Note_on_c, 15, 49, 0
16, 9720, Note_on_c, 15, 44, 52
16, 9959, Note_on_c, 15, 44, 0
16, 10440, Note_on_c, 15, 40, 76
16, 10470, Control_c, 15, 11, 124
16, 10500, Control_c, 15, 11, 122
16, 10530, Control_c, 15, 11, 119
16, 10559, Note_on_c, 15, 40, 0
16, 10560, Control_c, 15, 11, 117
16, 10560, Note_on_c, 15, 38, 68
16, 10590, Control_c, 15, 11, 114
16, 10620, Control_c, 15, 11, 112
16, 10650, Control_c, 15, 11, 109
16, 10679, Note_on_c, 15, 38, 0
16, 10680, Note_on_c, 15, 37, 68
16, 10680, Control_c, 15, 11, 106
16, 10710, Control_c, 15, 11, 104
16, 10740, Control_c, 15, 11, 101
16, 10770, Control_c, 15, 11, 99
16, 10791, Note_on_c, 15, 37, 0
16, 10796, Control_c, 15, 11, 127
16, 10800, Note_on_c, 15, 35, 52
16, 10889, Note_on_c, 15, 35, 0
16, 10920, Note_on_c, 15, 35, 52
16, 11009, Note_on_c, 15, 35, 0
16, 11040, Note_on_c, 15, 40, 52
16, 11129, Note_on_c, 15, 40, 0
16, 11160, Note_on_c, 15, 33, 52
16, 11399, Note_on_c, 15, 33, 0
16, 11520, Note_on_c, 15, 49, 52
16, 11759, Note_on_c, 15, 49, 0
16, 11880, Note_on_c, 15, 47, 52
16, 12119, Note_on_c, 15, 47, 0
16, 12240, Note_on_c, 15, 40, 52
16, 12479, Note_on_c, 15, 40, 0
16, 12600, Note_on_c, 15, 45, 52
16, 12839, Note_on_c, 15, 45, 0
16, 12960, Note_on_c, 15, 48, 52
16, 13199, Note_on_c, 15, 48, 0
16, 13320, Note_on_c, 15, 47, 52
16, 13559, Note_on_c, 15, 47, 0
16, 13680, Note_on_c, 15, 40, 52
16, 13919, Note_on_c, 15, 40, 0
16, 14040, Note_on_c, 15, 45, 52
16, 14279, Note_on_c, 15, 45, 0
16, 14340, Note_on_c, 15, 40, 84
16, 14384, Note_on_c, 15, 40, 0
16, 14400, Note_on_c, 15, 42, 92
16, 14571, Note_on_c, 15, 42, 0
16, 14580, Note_on_c, 15, 40, 84
16, 14624, Note_on_c, 15, 40, 0
16, 14640, Note_on_c, 15, 39, 84
16, 14684, Note_on_c, 15, 39, 0
16, 14700, Note_on_c, 15, 40, 84
16, 14744, Note_on_c, 15, 40, 0
16, 14760, Note_on_c, 15, 42, 84
16, 14849, Note_on_c, 15, 42, 0
16, 14880, Note_on_c, 15, 42, 84
16, 14969, Note_on_c, 15, 42, 0
16, 16200, Note_on_c, 15, 36, 84
16, 16289, Note_on_c, 15, 36, 0
16, 16320, Note_on_c, 15, 36, 84
16, 16409, Note_on_c, 15, 36, 0
16, 16440, Note_on_c, 15, 36, 84
16, 16529, Note_on_c, 15, 36, 0
16, 16560, Note_on_c, 15, 35, 84
16, 16649, Note_on_c, 15, 35, 0
16, 16800, Control_c, 15, 11, 96
16, 16920, Note_on_c, 15, 39, 68
16, 17039, Note_on_c, 15, 39, 0
16, 17040, Note_on_c, 15, 35, 68
16, 17271, Note_on_c, 15, 35, 0
16, 17280, Note_on_c, 15, 40, 68
16, 17399, Note_on_c, 15, 40, 0
16, 17400, Note_on_c, 15, 35, 68
16, 17631, Note_on_c, 15, 35, 0
16, 17640, Note_on_c, 15, 42, 68
16, 17759, Note_on_c, 15, 42, 0
16, 17760, Note_on_c, 15, 35, 68
16, 18000, Control_c, 15, 11, 96
16, 18030, Control_c, 15, 11, 99
16, 18055, Note_on_c, 15, 35, 0
16, 18060, Note_on_c, 15, 47, 68
16, 18060, Control_c, 15, 11, 101
16, 18090, Control_c, 15, 11, 104
16, 18104, Note_on_c, 15, 47, 0
16, 18120, Control_c, 15, 11, 106
16, 18120, Note_on_c, 15, 44, 68
16, 18150, Control_c, 15, 11, 109
16, 18164, Note_on_c, 15, 44, 0
16, 18180, Control_c, 15, 11, 112
16, 18180, Note_on_c, 15, 47, 68
16, 18210, Control_c, 15, 11, 114
16, 18224, Note_on_c, 15, 47, 0
16, 18240, Note_on_c, 15, 44, 68
16, 18240, Control_c, 15, 11, 117
16, 18270, Control_c, 15, 11, 119
16, 18284, Note_on_c, 15, 44, 0
16, 18300, Note_on_c, 15, 40, 68
16, 18300, Control_c, 15, 11, 122
16, 18330, Control_c, 15, 11, 124
16, 18344, Note_on_c, 15, 40, 0
16, 18360, Control_c, 15, 11, 127
16, 18360, Note_on_c, 15, 39, 52
16, 18479, Note_on_c, 15, 39, 0
16, 18480, Note_on_c, 15, 35, 52
16, 18711, Note_on_c, 15, 35, 0
16, 18720, Note_on_c, 15, 40, 52
16, 18839, Note_on_c, 15, 40, 0
16, 18840, Note_on_c, 15, 35, 52
16, 19071, Note_on_c, 15, 35, 0
16, 19080, Note_on_c, 15, 42, 52
16, 19199, Note_on_c, 15, 42, 0
16, 19200, Note_on_c, 15, 35, 52
16, 19431, Note_on_c, 15, 35, 0
16, 19440, Note_on_c, 15, 40, 52
16, 19559, Note_on_c, 15, 40, 0
16, 21060, Note_on_c, 15, 39, 52
16, 21104, Note_on_c, 15, 39, 0
16, 21120, Note_on_c, 15, 39, 52
16, 21164, Note_on_c, 15, 39, 0
16, 21180, Note_on_c, 15, 40, 52
16, 21224, Note_on_c, 15, 40, 0
16, 21240, Note_on_c, 15, 45, 52
16, 21415, Note_on_c, 15, 45, 0
16, 21420, Note_on_c, 15, 45, 52
16, 21464, Note_on_c, 15, 45, 0
16, 21480, Note_on_c, 15, 44, 76
16, 21524, Note_on_c, 15, 44, 0
16, 21540, Note_on_c, 15, 42, 76
16, 21584, Note_on_c, 15, 42, 0
16, 21600, Control_c, 15, 11, 127
16, 21600, Note_on_c, 15, 47, 84
16, 21630, Control_c, 15, 11, 123
16, 21660, Control_c, 15, 11, 119
16, 21690, Control_c, 15, 11, 115
16, 21711, Note_on_c, 15, 47, 0
16, 21720, Control_c, 15, 11, 111
16, 21720, Note_on_c, 15, 35, 76
16, 21750, Control_c, 15, 11, 107
16, 21780, Control_c, 15, 11, 104
16, 21810, Control_c, 15, 11, 100
16, 21831, Note_on_c, 15, 35, 0
16, 21840, Note_on_c, 15, 35, 76
16, 21840, Control_c, 15, 11, 96
16, 21870, Control_c, 15, 11, 92
16, 21900, Control_c, 15, 11, 88
16, 21930, Control_c, 15, 11, 84
16, 21951, Note_on_c, 15, 35, 0
16, 21960, Note_on_c, 15, 40, 76
16, 21960, Control_c, 15, 11, 80
16, 22079, Note_on_c, 15, 40, 0
16, 22260, Note_on_c, 15, 44, 76
16, 22304, Note_on_c, 15, 44, 0
16, 22320, Note_on_c, 15, 45, 76
16, 22320, Control_c, 15, 11, 80
16, 22364, Note_on_c, 15, 45, 0
16, 22380, Note_on_c, 15, 44, 76
16, 22390, Control_c, 15, 11, 84
16, 22424, Note_on_c, 15, 44, 0
16, 22440, Note_on_c, 15, 45, 76
16, 22460, Control_c, 15, 11, 88
16, 22530, Control_c, 15, 11, 92
16, 22600, Control_c, 15, 11, 96
16, 22615, Note_on_c, 15, 45, 0
16, 22620, Note_on_c, 15, 45, 76
16, 22664, Note_on_c, 15, 45, 0
16, 22670, Control_c, 15, 11, 100
16, 22680, Note_on_c, 15, 47, 76
16, 22724, Note_on_c, 15, 47, 0
16, 22740, Control_c, 15, 11, 104
16, 22740, Note_on_c, 15, 46, 76
16, 22784, Note_on_c, 15, 46, 0
16, 22800, Note_on_c, 15, 47, 76
16, 22810, Control_c, 15, 11, 107
16, 22880, Control_c, 15, 11, 111
16, 22950, Control_c, 15, 11, 115
16, 22975, Note_on_c, 15, 47, 0
16, 22980, Note_on_c, 15, 47, 76
16, 23020, Control_c, 15, 11, 119
16, 23024, Note_on_c, 15, 47, 0
16, 23040, Note_on_c, 15, 49, 76
16, 23084, Note_on_c, 15, 49, 0
16, 23090, Control_c, 15, 11, 123
16, 23100, Note_on_c, 15, 48, 76
16, 23144, Note_on_c, 15, 48, 0
16, 23160, Control_c, 15, 11, 127
16, 23160, Note_on_c, 15, 49, 76
16, 23335, Note_on_c, 15, 49, 0
16, 23340, Note_on_c, 15, 49, 76
16, 23384, Note_on_c, 15, 49, 0
16, 23400, Note_on_c, 15, 51, 84
16, 23579, Note_on_c, 15, 51, 0
16, 23940, Note_on_c, 15, 49, 52
16, 23999, Note_on_c, 15, 49, 0
16, 24000, Note_on_c, 15, 48, 52
16, 24059, Note_on_c, 15, 48, 0
16, 24060, Note_on_c, 15, 44, 52
16, 24115, Note_on_c, 15, 44, 0
16, 24120, Note_on_c, 15, 45, 52
16, 24299, Note_on_c, 15, 45, 0
16, 24540, Note_on_c, 15, 40, 52
16, 24599, Note_on_c, 15, 40, 0
16, 24600, Note_on_c, 15, 42, 52
16, 24659, Note_on_c, 15, 42, 0
16, 24660, Note_on_c, 15, 44, 52
16, 24719, Note_on_c, 15, 44, 0
16, 24720, Note_on_c, 15, 45, 52
16, 24764, Note_on_c, 15, 45, 0
16, 24840, Control_c, 15, 11, 80
16, 25020, Note_on_c, 15, 40, 76
16, 25079, Note_on_c, 15, 40, 0
16, 25080, Note_on_c, 15, 42, 76
16, 25139, Note_on_c, 15, 42, 0
16, 25140, Note_on_c, 15, 44, 76
16, 25199, Note_on_c, 15, 44, 0
16, 25200, Control_c, 15, 11, 80
16, 25200, Note_on_c, 15, 45, 76
16, 25244, Note_on_c, 15, 45, 0
16, 25245, Control_c, 15, 11, 84
16, 25260, Note_on_c, 15, 40, 76
16, 25290, Control_c, 15, 11, 88
16, 25319, Note_on_c, 15, 40, 0
16, 25320, Note_on_c, 15, 42, 76
16, 25335, Control_c, 15, 11, 92
16, 25379, Note_on_c, 15, 42, 0
16, 25380, Note_on_c, 15, 44, 76
16, 25380, Control_c, 15, 11, 96
16, 25425, Control_c, 15, 11, 100
16, 25439, Note_on_c, 15, 44, 0
16, 25440, Note_on_c, 15, 45, 76
16, 25470, Control_c, 15, 11, 104
16, 25484, Note_on_c, 15, 45, 0
16, 25500, Note_on_c, 15, 40, 76
16, 25515, Control_c, 15, 11, 107
16, 25559, Note_on_c, 15, 40, 0
16, 25560, Control_c, 15, 11, 111
16, 25560, Note_on_c, 15, 42, 76
16, 25605, Control_c, 15, 11, 115
16, 25619, Note_on_c, 15, 42, 0
16, 25620, Note_on_c, 15, 44, 76
16, 25650, Control_c, 15, 11, 119
16, 25679, Note_on_c, 15, 44, 0
16, 25680, Note_on_c, 15, 45, 76
16, 25695, Control_c, 15, 11, 123
16, 25724, Note_on_c, 15, 45, 0
16, 25740, Control_c, 15, 11, 127
16, 25740, Note_on_c, 15, 40, 76
16, 25799, Note_on_c, 15, 40, 0
16, 25800, Note_on_c, 15, 42, 76
16, 25859, Note_on_c, 15, 42, 0
16, 25860, Note_on_c, 15, 44, 76
16, 25915, Note_on_c, 15, 44, 0
16, 25920, Note_on_c, 15, 45, 84
16, 26271, Note_on_c, 15, 45, 0
16, 26280, Note_on_c, 15, 42, 84
16, 26631, Note_on_c, 15, 42, 0
16, 26640, Note_on_c, 15, 39, 76
16, 26706, Note_on_c, 15, 39, 0
16, 26730, Note_on_c, 15, 39, 76
16, 26751, Note_on_c, 15, 39, 0
16, 26760, Note_on_c, 15, 39, 76
16, 26849, Note_on_c, 15, 39, 0
16, 27000, Note_on_c, 15, 40, 76
16, 27066, Note_on_c, 15, 40, 0
16, 27090, Note_on_c, 15, 40, 76
16, 27111, Note_on_c, 15, 40, 0
16, 27120, Note_on_c, 15, 40, 76
16, 27209, Note_on_c, 15, 40, 0
16, 27360, Note_on_c, 15, 45, 52
16, 27449, Note_on_c, 15, 45, 0
16, 27480, Note_on_c, 15, 47, 52
16, 27569, Note_on_c, 15, 47, 0
16, 27600, Note_on_c, 15, 35, 52
16, 27689, Note_on_c, 15, 35, 0
16, 27720, Note_on_c, 15, 40, 52
16, 27959, Note_on_c, 15, 40, 0
16, 28080, Note_on_c, 15, 39, 44
16, 28146, Note_on_c, 15, 39, 0
16, 28170, Note_on_c, 15, 39, 44
16, 28191, Note_on_c, 15, 39, 0
16, 28200, Note_on_c, 15, 39, 44
16, 28289, Note_on_c, 15, 39, 0
16, 28440, Note_on_c, 15, 40, 44
16, 28506, Note_on_c, 15, 40, 0
16, 28530, Note_on_c, 15, 40, 44
16, 28551, Note_on_c, 15, 40, 0
16, 28560, Note_on_c, 15, 40, 44
16, 28649, Note_on_c, 15, 40, 0
16, 28800, Note_on_c, 15, 45, 44
16, 28889, Note_on_c, 15, 45, 0
16, 28920, Note_on_c, 15, 47, 44
16, 29009, Note_on_c, 15, 47, 0
16, 29040, Note_on_c, 15, 35, 44
16, 29129, Note_on_c, 15, 35, 0
16, 29160, Note_on_c, 15, 40, 52
16, 29279, Note_on_c, 15, 40, 0
16, 29520, Note_on_c, 15, 32, 52
16, 29639, Note_on_c, 15, 32, 0
16, 29880, Note_on_c, 15, 33, 52
16, 29999, Note_on_c, 15, 33, 0
16, 30240, Note_on_c, 15, 35, 52
16, 30359, Note_on_c, 15, 35, 0
16, 30600, Note_on_c, 15, 40, 52
16, 30719, Note_on_c, 15, 40, 0
16, 30780, Note_on_c, 15, 52, 52
16, 30824, Note_on_c, 15, 52, 0
16, 30840, Note_on_c, 15, 47, 52
16, 30884, Note_on_c, 15, 47, 0
16, 30900, Note_on_c, 15, 44, 52
16, 30944, Note_on_c, 15, 44, 0
16, 30960, Note_on_c, 15, 40, 52
16, 31079, Note_on_c, 15, 40, 0
16, 31200, Note_on_c, 15, 32, 52
16, 31311, Note_on_c, 15, 32, 0
16, 31320, Note_on_c, 15, 33, 52
16, 31439, Note_on_c, 15, 33, 0
16, 31680, Note_on_c, 15, 35, 52
16, 31799, Note_on_c, 15, 35, 0
16, 31920, Note_on_c, 15, 35, 52
16, 32031, Note_on_c, 15, 35, 0
16, 32040, Note_on_c, 15, 40, 52
16, 32159, Note_on_c, 15, 40, 0
16, 32400, Note_on_c, 15, 35, 52
16, 32519, Note_on_c, 15, 35, 0
16, 32640, Note_on_c, 15, 35, 52
16, 32751, Note_on_c, 15, 35, 0
16, 32760, Note_on_c, 15, 40, 52
16, 32879, Note_on_c, 15, 40, 0
16, 33000, Control_c, 15, 11, 80
16, 33120, Control_c, 15, 11, 80
16, 33120, Note_on_c, 15, 35, 76
16, 33150, Control_c, 15, 11, 84
16, 33180, Control_c, 15, 11, 88
16, 33210, Control_c, 15, 11, 92
16, 33239, Note_on_c, 15, 35, 0
16, 33240, Control_c, 15, 11, 96
16, 33270, Control_c, 15, 11, 100
16, 33300, Control_c, 15, 11, 104
16, 33330, Control_c, 15, 11, 107
16, 33360, Note_on_c, 15, 35, 76
16, 33360, Control_c, 15, 11, 111
16, 33390, Control_c, 15, 11, 115
16, 33404, Note_on_c, 15, 35, 0
16, 33420, Note_on_c, 15, 35, 76
16, 33420, Control_c, 15, 11, 119
16, 33450, Control_c, 15, 11, 123
16, 33464, Note_on_c, 15, 35, 0
16, 33480, Note_on_c, 15, 40, 76
16, 33480, Control_c, 15, 11, 127
16, 33524, Note_on_c, 15, 40, 0
16, 33540, Note_on_c, 15, 35, 84
16, 33651, Note_on_c, 15, 35, 0
16, 33660, Note_on_c, 15, 35, 76
16, 33704, Note_on_c, 15, 35, 0
16, 33720, Note_on_c, 15, 35, 76
16, 33764, Note_on_c, 15, 35, 0
16, 33780, Note_on_c, 15, 35, 76
16, 33824, Note_on_c, 15, 35, 0
16, 33840, Note_on_c, 15, 40, 76
16, 33884, Note_on_c, 15, 40, 0
16, 33900, Note_on_c, 15, 35, 84
16, 34011, Note_on_c, 15, 35, 0
16, 34020, Note_on_c, 15, 35, 76
16, 34064, Note_on_c, 15, 35, 0
16, 34080, Note_on_c, 15, 35, 76
16, 34124, Note_on_c, 15, 35, 0
16, 34140, Note_on_c, 15, 35, 76
16, 34184, Note_on_c, 15, 35, 0
16, 34200, Note_on_c, 15, 40, 76
16, 34289, Note_on_c, 15, 40, 0
16, 34320, Note_on_c, 15, 40, 52
16, 34409, Note_on_c, 15, 40, 0
16, 34560, Control_c, 15, 11, 127
16, 34590, Control_c, 15, 11, 126
16, 34620, Control_c, 15, 11, 125
16, 34650, Control_c, 15, 11, 123
16, 34680, Control_c, 15, 11, 122
16, 34680, Note_on_c, 15, 40, 52
16, 34710, Control_c, 15, 11, 121
16, 34740, Control_c, 15, 11, 120
16, 34770, Control_c, 15, 11, 118
16, 34799, Note_on_c, 15, 40, 0
16, 34800, Control_c, 15, 11, 117
16, 34830, Control_c, 15, 11, 116
16, 34860, Control_c, 15, 11, 115
16, 34890, Control_c, 15, 11, 113
16, 34920, Control_c, 15, 11, 112
16, 35040, Note_on_c, 15, 40, 52
16, 35159, Note_on_c, 15, 40, 0
16, 35520, Control_c, 15, 11, 80
16, 35640, Control_c, 15, 11, 80
16, 35640, Note_on_c, 15, 33, 68
16, 35670, Control_c, 15, 11, 84
16, 35700, Control_c, 15, 11, 88
16, 35730, Control_c, 15, 11, 92
16, 35759, Note_on_c, 15, 33, 0
16, 35760, Note_on_c, 15, 36, 68
16, 35760, Control_c, 15, 11, 96
16, 35790, Control_c, 15, 11, 100
16, 35820, Control_c, 15, 11, 104
16, 35850, Control_c, 15, 11, 107
16, 35879, Note_on_c, 15, 36, 0
16, 35880, Note_on_c, 15, 40, 68
16, 35880, Control_c, 15, 11, 111
16, 35910, Control_c, 15, 11, 115
16, 35940, Control_c, 15, 11, 119
16, 35970, Control_c, 15, 11, 123
16, 35991, Note_on_c, 15, 40, 0
16, 36000, Note_on_c, 15, 45, 52
16, 36000, Control_c, 15, 11, 127
16, 36119, Note_on_c, 15, 45, 0
16, 36360, Note_on_c, 15, 45, 52
16, 36479, Note_on_c, 15, 45, 0
16, 36480, Note_on_c, 15, 44, 52
16, 36599, Note_on_c, 15, 44, 0
16, 36600, Note_on_c, 15, 45, 52
16, 36711, Note_on_c, 15, 45, 0
16, 36720, Note_on_c, 15, 40, 52
16, 36839, Note_on_c, 15, 40, 0
16, 36960, Control_c, 15, 11, 96
16, 37080, Control_c, 15, 11, 96
16, 37080, Note_on_c, 15, 36, 68
16, 37170, Control_c, 15, 11, 99
16, 37199, Note_on_c, 15, 36, 0
16, 37200, Note_on_c, 15, 40, 68
16, 37260, Control_c, 15, 11, 101
16, 37319, Note_on_c, 15, 40, 0
16, 37320, Note_on_c, 15, 43, 68
16, 37350, Control_c, 15, 11, 104
16, 37431, Note_on_c, 15, 43, 0
16, 37440, Control_c, 15, 11, 106
16, 37440, Note_on_c, 15, 48, 68
16, 37530, Control_c, 15, 11, 109
16, 37559, Note_on_c, 15, 48, 0
16, 37620, Control_c, 15, 11, 112
16, 37710, Control_c, 15, 11, 114
16, 37800, Control_c, 15, 11, 117
16, 37800, Note_on_c, 15, 48, 68
16, 37890, Control_c, 15, 11, 119
16, 37919, Note_on_c, 15, 48, 0
16, 37920, Note_on_c, 15, 47, 68
16, 37980, Control_c, 15, 11, 122
16, 38039, Note_on_c, 15, 47, 0
16, 38040, Note_on_c, 15, 48, 68
16, 38070, Control_c, 15, 11, 124
16, 38151, Note_on_c, 15, 48, 0
16, 38160, Control_c, 15, 11, 127
16, 38160, Note_on_c, 15, 43, 68
16, 38279, Note_on_c, 15, 43, 0
16, 38640, Note_on_c, 15, 31, 52
16, 38759, Note_on_c, 15, 31, 0
16, 38760, Note_on_c, 15, 33, 52
16, 38871, Note_on_c, 15, 33, 0
16, 38880, Note_on_c, 15, 34, 52
16, 39351, Note_on_c, 15, 34, 0
16, 39360, Note_on_c, 15, 31, 52
16, 39404, Note_on_c, 15, 31, 0
16, 39420, Note_on_c, 15, 31, 52
16, 39464, Note_on_c, 15, 31, 0
16, 39480, Note_on_c, 15, 33, 52
16, 39524, Note_on_c, 15, 33, 0
16, 39540, Note_on_c, 15, 33, 52
16, 39584, Note_on_c, 15, 33, 0
16, 39600, Note_on_c, 15, 34, 52
16, 40071, Note_on_c, 15, 34, 0
16, 40080, Note_on_c, 15, 31, 52
16, 40124, Note_on_c, 15, 31, 0
16, 40140, Note_on_c, 15, 31, 52
16, 40184, Note_on_c, 15, 31, 0
16, 40200, Note_on_c, 15, 33, 52
16, 40244, Note_on_c, 15, 33, 0
16, 40260, Note_on_c, 15, 33, 52
16, 40304, Note_on_c, 15, 33, 0
16, 40320, Note_on_c, 15, 34, 52
16, 40371, Note_on_c, 15, 34, 0
16, 40380, Note_on_c, 15, 46, 54
16, 40431, Note_on_c, 15, 46, 0
16, 40440, Note_on_c, 15, 46, 56
16, 40491, Note_on_c, 15, 46, 0
16, 40500, Note_on_c, 15, 46, 58
16, 40551, Note_on_c, 15, 46, 0
16, 40560, Note_on_c, 15, 46, 60
16, 40611, Note_on_c, 15, 46, 0
16, 40620, Note_on_c, 15, 46, 62
16, 40671, Note_on_c, 15, 46, 0
16, 40680, Note_on_c, 15, 46, 64
16, 40731, Note_on_c, 15, 46, 0
16, 40740, Note_on_c, 15, 46, 66
16, 40791, Note_on_c, 15, 46, 0
16, 40800, Note_on_c, 15, 46, 68
16, 40851, Note_on_c, 15, 46, 0
16, 40860, Note_on_c, 15, 46, 70
16, 40911, Note_on_c, 15, 46, 0
16, 40920, Note_on_c, 15, 46, 72
16, 40971, Note_on_c, 15, 46, 0
16, 40980, Note_on_c, 15, 46, 74
16, 41031, Note_on_c, 15, 46, 0
16, 41040, Note_on_c, 15, 47, 76
16, 41091, Note_on_c, 15, 47, 0
16, 41100, Note_on_c, 15, 35, 76
16, 41151, Note_on_c, 15, 35, 0
16, 41160, Note_on_c, 15, 35, 76
16, 41211, Note_on_c, 15, 35, 0
16, 41220, Note_on_c, 15, 35, 76
16, 41271, Note_on_c, 15, 35, 0
16, 41280, Note_on_c, 15, 35, 76
16, 41331, Note_on_c, 15, 35, 0
16, 41340, Note_on_c, 15, 35, 76
16, 41391, Note_on_c, 15, 35, 0
16, 41400, Note_on_c, 15, 35, 76
16, 41451, Note_on_c, 15, 35, 0
16, 41460, Note_on_c, 15, 35, 76
16, 41511, Note_on_c, 15, 35, 0
16, 41520, Note_on_c, 15, 35, 76
16, 41571, Note_on_c, 15, 35, 0
16, 41580, Note_on_c, 15, 35, 76
16, 41631, Note_on_c, 15, 35, 0
16, 41640, Note_on_c, 15, 35, 76
16, 41691, Note_on_c, 15, 35, 0
16, 41700, Note_on_c, 15, 35, 76
16, 41751, Note_on_c, 15, 35, 0
16, 41760, Note_on_c, 15, 40, 76
16, 41879, Note_on_c, 15, 40, 0
16, 42600, Note_on_c, 15, 41, 44
16, 42719, Note_on_c, 15, 41, 0
16, 42720, Note_on_c, 15, 40, 44
16, 42839, Note_on_c, 15, 40, 0
16, 42840, Note_on_c, 15, 38, 44
16, 42959, Note_on_c, 15, 38, 0
16, 43320, Note_on_c, 15, 41, 44
16, 43364, Note_on_c, 15, 41, 0
16, 43380, Note_on_c, 15, 41, 44
16, 43424, Note_on_c, 15, 41, 0
16, 43440, Note_on_c, 15, 40, 44
16, 43484, Note_on_c, 15, 40, 0
16, 43500, Note_on_c, 15, 40, 44
16, 43544, Note_on_c, 15, 40, 0
16, 43560, Note_on_c, 15, 38, 44
16, 43679, Note_on_c, 15, 38, 0
16, 44040, Note_on_c, 15, 41, 44
16, 44084, Note_on_c, 15, 41, 0
16, 44100, Note_on_c, 15, 41, 44
16, 44144, Note_on_c, 15, 41, 0
16, 44160, Note_on_c, 15, 40, 44
16, 44204, Note_on_c, 15, 40, 0
16, 44220, Note_on_c, 15, 40, 44
16, 44264, Note_on_c, 15, 40, 0
16, 44280, Note_on_c, 15, 38, 44
16, 44331, Note_on_c, 15, 38, 0
16, 44340, Note_on_c, 15, 38, 46
16, 44391, Note_on_c, 15, 38, 0
16, 44400, Note_on_c, 15, 38, 49
16, 44451, Note_on_c, 15, 38, 0
16, 44460, Note_on_c, 15, 38, 52
16, 44511, Note_on_c, 15, 38, 0
16, 44520, Note_on_c, 15, 38, 54
16, 44571, Note_on_c, 15, 38, 0
16, 44580, Note_on_c, 15, 38, 57
16, 44631, Note_on_c, 15, 38, 0
16, 44640, Note_on_c, 15, 37, 60
16, 44691, Note_on_c, 15, 37, 0
16, 44700, Note_on_c, 15, 37, 62
16, 44751, Note_on_c, 15, 37, 0
16, 44760, Note_on_c, 15, 37, 65
16, 44811, Note_on_c, 15, 37, 0
16, 44820, Note_on_c, 15, 37, 68
16, 44871, Note_on_c, 15, 37, 0
16, 44880, Note_on_c, 15, 37, 70
16, 44931, Note_on_c, 15, 37, 0
16, 44940, Note_on_c, 15, 37, 73
16, 44991, Note_on_c, 15, 37, 0
16, 45000, Note_on_c, 15, 36, 76
16, 45051, Note_on_c, 15, 36, 0
16, 45060, Note_on_c, 15, 36, 76
16, 45111, Note_on_c, 15, 36, 0
16, 45120, Note_on_c, 15, 36, 76
16, 45171, Note_on_c, 15, 36, 0
16, 45180, Note_on_c, 15, 36, 76
16, 45231, Note_on_c, 15, 36, 0
16, 45240, Note_on_c, 15, 36, 76
16, 45291, Note_on_c, 15, 36, 0
16, 45300, Note_on_c, 15, 36, 76
16, 45351, Note_on_c, 15, 36, 0
16, 45360, Note_on_c, 15, 36, 76
16, 45411, Note_on_c, 15, 36, 0
16, 45420, Note_on_c, 15, 36, 76
16, 45471, Note_on_c, 15, 36, 0
16, 45480, Note_on_c, 15, 36, 76
16, 45531, Note_on_c, 15, 36, 0
16, 45540, Note_on_c, 15, 36, 76
16, 45591, Note_on_c, 15, 36, 0
16, 45600, Note_on_c, 15, 36, 76
16, 45651, Note_on_c, 15, 36, 0
16, 45660, Note_on_c, 15, 36, 76
16, 45711, Note_on_c, 15, 36, 0
16, 45720, Note_on_c, 15, 41, 84
16, 45839, Note_on_c, 15, 41, 0
16, 45960, Note_on_c, 15, 36, 84
16, 46071, Note_on_c, 15, 36, 0
16, 46080, Note_on_c, 15, 36, 84
16, 46199, Note_on_c, 15, 36, 0
16, 46200, Note_on_c, 15, 41, 84
16, 46319, Note_on_c, 15, 41, 0
16, 46320, Note_on_c, 15, 45, 84
16, 46431, Note_on_c, 15, 45, 0
16, 46440, Note_on_c, 15, 46, 84
16, 46529, Note_on_c, 15, 46, 0
16, 46680, Note_on_c, 15, 36, 84
16, 46791, Note_on_c, 15, 36, 0
16, 46800, Note_on_c, 15, 36, 84
16, 46919, Note_on_c, 15, 36, 0
16, 46920, Note_on_c, 15, 43, 84
16, 47039, Note_on_c, 15, 43, 0
16, 47040, Note_on_c, 15, 46, 84
16, 47151, Note_on_c, 15, 46, 0
16, 47160, Note_on_c, 15, 44, 84
16, 47249, Note_on_c, 15, 44, 0
16, 47400, Note_on_c, 15, 36, 84
16, 47485, Note_on_c, 15, 36, 0
16, 47490, Note_on_c, 15, 36, 84
16, 47515, Note_on_c, 15, 36, 0
16, 47520, Note_on_c, 15, 36, 84
16, 47639, Note_on_c, 15, 36, 0
16, 47640, Note_on_c, 15, 41, 84
16, 47759, Note_on_c, 15, 41, 0
16, 47760, Note_on_c, 15, 44, 84
16, 47871, Note_on_c, 15, 44, 0
16, 47880, Note_on_c, 15, 46, 84
16, 47999, Note_on_c, 15, 46, 0
16, 48120, Note_on_c, 15, 36, 84
16, 48205, Note_on_c, 15, 36, 0
16, 48210, Note_on_c, 15, 36, 84
16, 48235, Note_on_c, 15, 36, 0
16, 48240, Note_on_c, 15, 36, 84
16, 48359, Note_on_c, 15, 36, 0
16, 48360, Note_on_c, 15, 43, 84
16, 48479, Note_on_c, 15, 43, 0
16, 48480, Note_on_c, 15, 46, 84
16, 48591, Note_on_c, 15, 46, 0
16, 48600, Note_on_c, 15, 44, 84
16, 48655, Note_on_c, 15, 44, 0
16, 48660, Note_on_c, 15, 44, 84
16, 48685, Note_on_c, 15, 44, 0
16, 48690, Note_on_c, 15, 44, 84
16, 48715, Note_on_c, 15, 44, 0
16, 48720, Note_on_c, 15, 44, 84
16, 48775, Note_on_c, 15, 44, 0
16, 48780, Note_on_c, 15, 44, 84
16, 48805, Note_on_c, 15, 44, 0
16, 48810, Note_on_c, 15, 44, 84
16, 48835, Note_on_c, 15, 44, 0
16, 48840, Note_on_c, 15, 44, 84
16, 48895, Note_on_c, 15, 44, 0
16, 48900, Note_on_c, 15, 44, 84
16, 48925, Note_on_c, 15, 44, 0
16, 48930, Note_on_c, 15, 44, 84
16, 48955, Note_on_c, 15, 44, 0
16, 48960, Note_on_c, 15, 44, 84
16, 49015, Note_on_c, 15, 44, 0
16, 49020, Note_on_c, 15, 44, 84
16, 49045, Note_on_c, 15, 44, 0
16, 49050, Note_on_c, 15, 44, 84
16, 49075, Note_on_c, 15, 44, 0
16, 49080, Note_on_c, 15, 44, 84
16, 49135, Note_on_c, 15, 44, 0
16, 49140, Note_on_c, 15, 44, 84
16, 49165, Note_on_c, 15, 44, 0
16, 49170, Note_on_c, 15, 44, 84
16, 49195, Note_on_c, 15, 44, 0
16, 49200, Note_on_c, 15, 44, 84
16, 49255, Note_on_c, 15, 44, 0
16, 49260, Note_on_c, 15, 44, 84
16, 49285, Note_on_c, 15, 44, 0
16, 49290, Note_on_c, 15, 44, 84
16, 49315, Note_on_c, 15, 44, 0
16, 49320, Note_on_c, 15, 43, 84
16, 49439, Note_on_c, 15, 43, 0
16, 50640, Control_c, 15, 11, 96
16, 50760, Note_on_c, 15, 43, 68
16, 50804, Note_on_c, 15, 43, 0
16, 50820, Note_on_c, 15, 42, 68
16, 50864, Note_on_c, 15, 42, 0
16, 50880, Note_on_c, 15, 43, 68
16, 50924, Note_on_c, 15, 43, 0
16, 50940, Note_on_c, 15, 42, 68
16, 50984, Note_on_c, 15, 42, 0
16, 51000, Note_on_c, 15, 43, 68
16, 51120, Control_c, 15, 11, 96
16, 51180, Control_c, 15, 11, 99
16, 51240, Control_c, 15, 11, 101
16, 51295, Note_on_c, 15, 43, 0
16, 51300, Control_c, 15, 11, 104
16, 51300, Note_on_c, 15, 42, 68
16, 51344, Note_on_c, 15, 42, 0
16, 51360, Note_on_c, 15, 43, 68
16, 51360, Control_c, 15, 11, 106
16, 51420, Control_c, 15, 11, 109
16, 51480, Control_c, 15, 11, 112
16, 51540, Control_c, 15, 11, 114
16, 51600, Control_c, 15, 11, 117
16, 51655, Note_on_c, 15, 43, 0
16, 51660, Control_c, 15, 11, 119
16, 51660, Note_on_c, 15, 43, 68
16, 51704, Note_on_c, 15, 43, 0
16, 51720, Note_on_c, 15, 44, 76
16, 51720, Control_c, 15, 11, 122
16, 51780, Control_c, 15, 11, 124
16, 51840, Control_c, 15, 11, 127
16, 51891, Note_on_c, 15, 44, 0
16, 51900, Note_on_c, 15, 44, 68
16, 51944, Note_on_c, 15, 44, 0
16, 51960, Note_on_c, 15, 45, 76
16, 52131, Note_on_c, 15, 45, 0
16, 52140, Note_on_c, 15, 45, 68
16, 52184, Note_on_c, 15, 45, 0
16, 52200, Note_on_c, 15, 46, 76
16, 52371, Note_on_c, 15, 46, 0
16, 52380, Note_on_c, 15, 46, 68
16, 52424, Note_on_c, 15, 46, 0
16, 52440, Note_on_c, 15, 47, 76
16, 52611, Note_on_c, 15, 47, 0
16, 52620, Note_on_c, 15, 47, 68
16, 52664, Note_on_c, 15, 47, 0
16, 52680, Note_on_c, 15, 48, 76
16, 52851, Note_on_c, 15, 48, 0
16, 52860, Note_on_c, 15, 48, 68
16, 52904, Note_on_c, 15, 48, 0
16, 52920, Note_on_c, 15, 49, 84
16, 52971, Note_on_c, 15, 49, 0
16, 52980, Note_on_c, 15, 49, 84
16, 53031, Note_on_c, 15, 49, 0
16, 53040, Note_on_c, 15, 49, 84
16, 53091, Note_on_c, 15, 49, 0
16, 53100, Note_on_c, 15, 49, 84
16, 53151, Note_on_c, 15, 49, 0
16, 53160, Note_on_c, 15, 49, 84
16, 53211, Note_on_c, 15, 49, 0
16, 53220, Note_on_c, 15, 49, 84
16, 53271, Note_on_c, 15, 49, 0
16, 53280, Note_on_c, 15, 49, 84
16, 53331, Note_on_c, 15, 49, 0
16, 53340, Note_on_c, 15, 49, 84
16, 53391, Note_on_c, 15, 49, 0
16, 53400, Note_on_c, 15, 49, 84
16, 53451, Note_on_c, 15, 49, 0
16, 53460, Note_on_c, 15, 49, 84
16, 53511, Note_on_c, 15, 49, 0
16, 53520, Note_on_c, 15, 49, 84
16, 53571, Note_on_c, 15, 49, 0
16, 53580, Note_on_c, 15, 49, 84
16, 53631, Note_on_c, 15, 49, 0
16, 53640, Note_on_c, 15, 49, 84
16, 53691, Note_on_c, 15, 49, 0
16, 53700, Note_on_c, 15, 49, 84
16, 53751, Note_on_c, 15, 49, 0
16, 53760, Note_on_c, 15, 49, 84
16, 53811, Note_on_c, 15, 49, 0
16, 53820, Note_on_c, 15, 49, 84
16, 53871, Note_on_c, 15, 49, 0
16, 53880, Note_on_c, 15, 49, 84
16, 53931, Note_on_c, 15, 49, 0
16, 53940, Note_on_c, 15, 49, 84
16, 53991, Note_on_c, 15, 49, 0
16, 54000, Note_on_c, 15, 50, 84
16, 54051, Note_on_c, 15, 50, 0
16, 54060, Note_on_c, 15, 50, 84
16, 54111, Note_on_c, 15, 50, 0
16, 54120, Note_on_c, 15, 50, 84
16, 54171, Note_on_c, 15, 50, 0
16, 54180, Note_on_c, 15, 50, 84
16, 54231, Note_on_c, 15, 50, 0
16, 54240, Note_on_c, 15, 50, 84
16, 54291, Note_on_c, 15, 50, 0
16, 54300, Note_on_c, 15, 50, 84
16, 54351, Note_on_c, 15, 50, 0
16, 54360, Note_on_c, 15, 47, 92
16, 54411, Note_on_c, 15, 47, 0
16, 54420, Note_on_c, 15, 47, 84
16, 54471, Note_on_c, 15, 47, 0
16, 54480, Note_on_c, 15, 47, 84
16, 54531, Note_on_c, 15, 47, 0
16, 54540, Note_on_c, 15, 47, 84
16, 54591, Note_on_c, 15, 47, 0
16, 54600, Note_on_c, 15, 47, 84
16, 54651, Note_on_c, 15, 47, 0
16, 54660, Note_on_c, 15, 47, 84
16, 54711, Note_on_c, 15, 47, 0
16, 54720, Note_on_c, 15, 44, 84
16, 54771, Note_on_c, 15, 44, 0
16, 54780, Note_on_c, 15, 44, 79
16, 54831, Note_on_c, 15, 44, 0
16, 54840, Note_on_c, 15, 44, 74
16, 54891, Note_on_c, 15, 44, 0
16, 54900, Note_on_c, 15, 44, 68
16, 54951, Note_on_c, 15, 44, 0
16, 54960, Note_on_c, 15, 44, 68
16, 55011, Note_on_c, 15, 44, 0
16, 55020, Note_on_c, 15, 44, 58
16, 55071, Note_on_c, 15, 44, 0
16, 55080, Note_on_c, 15, 45, 52
16, 55199, Note_on_c, 15, 45, 0
16, 55320, Program_c, 15, 45
16, 55440, Note_on_c, 15, 38, 52
16, 55559, Note_on_c, 15, 38, 0
16, 55800, Note_on_c, 15, 40, 52
16, 55919, Note_on_c, 15, 40, 0
16, 56160, Note_on_c, 15, 40, 52
16, 56279, Note_on_c, 15, 40, 0
16, 56520, Note_on_c, 15, 33, 52
16, 56639, Note_on_c, 15, 33, 0
16, 58680, Program_c, 15, 48
16, 58800, Note_on_c, 15, 35, 52
16, 58889, Note_on_c, 15, 35, 0
16, 58920, Note_on_c, 15, 35, 52
16, 59009, Note_on_c, 15, 35, 0
16, 59040, Note_on_c, 15, 40, 52
16, 59159, Note_on_c, 15, 40, 0
16, 59280, Control_c, 15, 11, 96
16, 59400, Note_on_c, 15, 33, 68
16, 59879, Note_on_c, 15, 33, 0
16, 59880, Note_on_c, 15, 37, 68
16, 59999, Note_on_c, 15, 37, 0
16, 60000, Note_on_c, 15, 40, 68
16, 60111, Note_on_c, 15, 40, 0
16, 60120, Note_on_c, 15, 45, 68
16, 60239, Note_on_c, 15, 45, 0
16, 60240, Note_on_c, 15, 44, 68
16, 60359, Note_on_c, 15, 44, 0
16, 60360, Note_on_c, 15, 45, 68
16, 60471, Note_on_c, 15, 45, 0
16, 60480, Note_on_c, 15, 40, 68
16, 60599, Note_on_c, 15, 40, 0
16, 60600, Note_on_c, 15, 52, 68
16, 60719, Note_on_c, 15, 52, 0
16, 60720, Note_on_c, 15, 50, 68
16, 60831, Note_on_c, 15, 50, 0
16, 60840, Control_c, 15, 11, 96
16, 60840, Note_on_c, 15, 49, 68
16, 60900, Control_c, 15, 11, 99
16, 60959, Note_on_c, 15, 49, 0
16, 60960, Control_c, 15, 11, 101
16, 60960, Note_on_c, 15, 47, 68
16, 61020, Control_c, 15, 11, 104
16, 61079, Note_on_c, 15, 47, 0
16, 61080, Control_c, 15, 11, 106
16, 61080, Note_on_c, 15, 45, 68
16, 61140, Control_c, 15, 11, 109
16, 61191, Note_on_c, 15, 45, 0
16, 61200, Control_c, 15, 11, 112
16, 61200, Note_on_c, 15, 44, 68
16, 61260, Control_c, 15, 11, 114
16, 61320, Control_c, 15, 11, 117
16, 61380, Control_c, 15, 11, 119
16, 61439, Note_on_c, 15, 44, 0
16, 61440, Note_on_c, 15, 46, 68
16, 61440, Control_c, 15, 11, 122
16, 61500, Control_c, 15, 11, 127
16, 61551, Note_on_c, 15, 46, 0
16, 61560, Note_on_c, 15, 47, 52
16, 61649, Note_on_c, 15, 47, 0
16, 61680, Note_on_c, 15, 38, 52
16, 61769, Note_on_c, 15, 38, 0
16, 61800, Note_on_c, 15, 38, 52
16, 61889, Note_on_c, 15, 38, 0
16, 61920, Note_on_c, 15, 40, 52
16, 62039, Note_on_c, 15, 40, 0
16, 65160, Note_on_c, 15, 50, 52
16, 65279, Note_on_c, 15, 50, 0
16, 65280, Note_on_c, 15, 49, 52
16, 65399, Note_on_c, 15, 49, 0
16, 65400, Note_on_c, 15, 40, 52
16, 65511, Note_on_c, 15, 40, 0
16, 65520, Note_on_c, 15, 45, 52
16, 65609, Note_on_c, 15, 45, 0
16, 65640, Note_on_c, 15, 33, 52
16, 65729, Note_on_c, 15, 33, 0
16, 65880, Note_on_c, 15, 52, 52
16, 65999, Note_on_c, 15, 52, 0
16, 66000, Note_on_c, 15, 50, 52
16, 66119, Note_on_c, 15, 50, 0
16, 66120, Note_on_c, 15, 49, 52
16, 66231, Note_on_c, 15, 49, 0
16, 66240, Note_on_c, 15, 44, 52
16, 66359, Note_on_c, 15, 44, 0
16, 66960, Note_on_c, 15, 40, 76
16, 66990, Control_c, 15, 11, 124
16, 67020, Control_c, 15, 11, 122
16, 67050, Control_c, 15, 11, 119
16, 67079, Note_on_c, 15, 40, 0
16, 67080, Control_c, 15, 11, 117
16, 67080, Note_on_c, 15, 38, 68
16, 67110, Control_c, 15, 11, 114
16, 67140, Control_c, 15, 11, 112
16, 67170, Control_c, 15, 11, 109
16, 67199, Note_on_c, 15, 38, 0
16, 67200, Note_on_c, 15, 37, 68
16, 67200, Control_c, 15, 11, 106
16, 67230, Control_c, 15, 11, 104
16, 67260, Control_c, 15, 11, 101
16, 67290, Control_c, 15, 11, 99
16, 67311, Note_on_c, 15, 37, 0
16, 67320, Control_c, 15, 11, 96
16, 67320, Note_on_c, 15, 35, 68
16, 67409, Note_on_c, 15, 35, 0
16, 67440, Note_on_c, 15, 35, 68
16, 67529, Note_on_c, 15, 35, 0
16, 67560, Note_on_c, 15, 40, 68
16, 67649, Note_on_c, 15, 40, 0
16, 67680, Note_on_c, 15, 33, 68
16, 67799, Note_on_c, 15, 33, 0
16, 67920, Control_c, 15, 11, 127
16, 68040, Note_on_c, 15, 49, 52
16, 68159, Note_on_c, 15, 49, 0
16, 68400, Note_on_c, 15, 47, 52
16, 68519, Note_on_c, 15, 47, 0
16, 68760, Note_on_c, 15, 40, 52
16, 68879, Note_on_c, 15, 40, 0
16, 69120, Note_on_c, 15, 45, 52
16, 69239, Note_on_c, 15, 45, 0
16, 69480, Note_on_c, 15, 48, 52
16, 69599, Note_on_c, 15, 48, 0
16, 69840, Note_on_c, 15, 47, 52
16, 69959, Note_on_c, 15, 47, 0
16, 70200, Note_on_c, 15, 40, 52
16, 70319, Note_on_c, 15, 40, 0
16, 70560, Note_on_c, 15, 45, 52
16, 70679, Note_on_c, 15, 45, 0
16, 70920, Note_on_c, 15, 33, 76
16, 71009, Note_on_c, 15, 33, 0
16, 71010, Note_on_c, 15, 36, 76
16, 71035, Note_on_c, 15, 36, 0
16, 71040, Note_on_c, 15, 41, 76
16, 71129, Note_on_c, 15, 41, 0
16, 72360, Note_on_c, 15, 38, 76
16, 72449, Note_on_c, 15, 38, 0
16, 72450, Note_on_c, 15, 41, 52
16, 72475, Note_on_c, 15, 41, 0
16, 72480, Note_on_c, 15, 46, 52
16, 72569, Note_on_c, 15, 46, 0
16, 72720, Note_on_c, 15, 39, 76
16, 72809, Note_on_c, 15, 39, 0
16, 72810, Note_on_c, 15, 45, 52
16, 72835, Note_on_c, 15, 45, 0
16, 72840, Note_on_c, 15, 48, 52
16, 72929, Note_on_c, 15, 48, 0
16, 73080, Note_on_c, 15, 40, 52
16, 73199, Note_on_c, 15, 40, 0
16, 73440, Note_on_c, 15, 40, 52
16, 73484, Note_on_c, 15, 40, 0
16, 73500, Note_on_c, 15, 44, 76
16, 73611, Note_on_c, 15, 44, 0
16, 73620, Note_on_c, 15, 44, 52
16, 73664, Note_on_c, 15, 44, 0
16, 73680, Note_on_c, 15, 45, 52
16, 73724, Note_on_c, 15, 45, 0
16, 73740, Note_on_c, 15, 45, 52
16, 73784, Note_on_c, 15, 45, 0
16, 73800, Note_on_c, 15, 40, 52
16, 73889, Note_on_c, 15, 40, 0
16, 74160, Note_on_c, 15, 40, 52
16, 74204, Note_on_c, 15, 40, 0
16, 74220, Note_on_c, 15, 44, 76
16, 74331, Note_on_c, 15, 44, 0
16, 74340, Note_on_c, 15, 44, 52
16, 74384, Note_on_c, 15, 44, 0
16, 74400, Note_on_c, 15, 45, 52
16, 74444, Note_on_c, 15, 45, 0
16, 74460, Note_on_c, 15, 45, 52
16, 74504, Note_on_c, 15, 45, 0
16, 74520, Note_on_c, 15, 40, 52
16, 74564, Note_on_c, 15, 40, 0
16, 74580, Note_on_c, 15, 44, 76
16, 74691, Note_on_c, 15, 44, 0
16, 74700, Note_on_c, 15, 44, 52
16, 74744, Note_on_c, 15, 44, 0
16, 74760, Note_on_c, 15, 45, 52
16, 74804, Note_on_c, 15, 45, 0
16, 74820, Note_on_c, 15, 45, 52
16, 74864, Note_on_c, 15, 45, 0
16, 74880, Note_on_c, 15, 40, 84
16, 74924, Note_on_c, 15, 40, 0
16, 74940, Note_on_c, 15, 40, 84
16, 74984, Note_on_c, 15, 40, 0
16, 75000, Note_on_c, 15, 44, 84
16, 75044, Note_on_c, 15, 44, 0
16, 75060, Note_on_c, 15, 40, 84
16, 75104, Note_on_c, 15, 40, 0
16, 75120, Note_on_c, 15, 45, 84
16, 75164, Note_on_c, 15, 45, 0
16, 75180, Note_on_c, 15, 33, 84
16, 75224, Note_on_c, 15, 33, 0
16, 75240, Note_on_c, 15, 40, 84
16, 75359, Note_on_c, 15, 40, 0
16, 75840, Control_c, 15, 11, 96
16, 75960, Note_on_c, 15, 44, 68
16, 76079, Note_on_c, 15, 44, 0
16, 76080, Note_on_c, 15, 40, 68
16, 76311, Note_on_c, 15, 40, 0
16, 76320, Note_on_c, 15, 45, 68
16, 76439, Note_on_c, 15, 45, 0
16, 76440, Note_on_c, 15, 40, 68
16, 76671, Note_on_c, 15, 40, 0
16, 76680, Note_on_c, 15, 47, 68
16, 76799, Note_on_c, 15, 47, 0
16, 76800, Note_on_c, 15, 40, 68
16, 77095, Note_on_c, 15, 40, 0
16, 77100, Note_on_c, 15, 52, 68
16, 77144, Note_on_c, 15, 52, 0
16, 77160, Control_c, 15, 11, 96
16, 77160, Note_on_c, 15, 49, 68
16, 77180, Control_c, 15, 11, 99
16, 77200, Control_c, 15, 11, 101
16, 77204, Note_on_c, 15, 49, 0
16, 77220, Control_c, 15, 11, 104
16, 77220, Note_on_c, 15, 52, 68
16, 77240, Control_c, 15, 11, 106
16, 77260, Control_c, 15, 11, 109
16, 77264, Note_on_c, 15, 52, 0
16, 77280, Control_c, 15, 11, 112
16, 77280, Note_on_c, 15, 49, 68
16, 77300, Control_c, 15, 11, 114
16, 77320, Control_c, 15, 11, 117
16, 77324, Note_on_c, 15, 49, 0
16, 77340, Note_on_c, 15, 45, 68
16, 77340, Control_c, 15, 11, 119
16, 77360, Control_c, 15, 11, 122
16, 77380, Control_c, 15, 11, 124
16, 77384, Note_on_c, 15, 45, 0
16, 77400, Control_c, 15, 11, 127
16, 77400, Note_on_c, 15, 44, 52
16, 77519, Note_on_c, 15, 44, 0
16, 77520, Note_on_c, 15, 40, 52
16, 77751, Note_on_c, 15, 40, 0
16, 77760, Note_on_c, 15, 45, 52
16, 77879, Note_on_c, 15, 45, 0
16, 77880, Note_on_c, 15, 40, 52
16, 78111, Note_on_c, 15, 40, 0
16, 78120, Note_on_c, 15, 47, 52
16, 78239, Note_on_c, 15, 47, 0
16, 78240, Note_on_c, 15, 40, 52
16, 78471, Note_on_c, 15, 40, 0
16, 78480, Note_on_c, 15, 45, 52
16, 78599, Note_on_c, 15, 45, 0
16, 80100, Note_on_c, 15, 44, 52
16, 80144, Note_on_c, 15, 44, 0
16, 80160, Note_on_c, 15, 44, 52
16, 80204, Note_on_c, 15, 44, 0
16, 80220, Note_on_c, 15, 45, 52
16, 80264, Note_on_c, 15, 45, 0
16, 80280, Note_on_c, 15, 38, 52
16, 80455, Note_on_c, 15, 38, 0
16, 80460, Note_on_c, 15, 50, 76
16, 80504, Note_on_c, 15, 50, 0
16, 80520, Note_on_c, 15, 49, 76
16, 80564, Note_on_c, 15, 49, 0
16, 80580, Note_on_c, 15, 47, 76
16, 80624, Note_on_c, 15, 47, 0
16, 80640, Note_on_c, 15, 52, 84
16, 80640, Control_c, 15, 11, 127
16, 80670, Control_c, 15, 11, 123
16, 80700, Control_c, 15, 11, 119
16, 80729, Note_on_c, 15, 52, 0
16, 80730, Control_c, 15, 11, 115
16, 80760, Control_c, 15, 11, 111
16, 80760, Note_on_c, 15, 40, 76
16, 80790, Control_c, 15, 11, 107
16, 80820, Control_c, 15, 11, 104
16, 80849, Note_on_c, 15, 40, 0
16, 80850, Control_c, 15, 11, 100
16, 80880, Note_on_c, 15, 40, 76
16, 80880, Control_c, 15, 11, 96
16, 80910, Control_c, 15, 11, 92
16, 80940, Control_c, 15, 11, 88
16, 80969, Note_on_c, 15, 40, 0
16, 80970, Control_c, 15, 11, 84
16, 81000, Control_c, 15, 11, 80
16, 81000, Note_on_c, 15, 45, 76
16, 81119, Note_on_c, 15, 45, 0
16, 81300, Note_on_c, 15, 37, 76
16, 81344, Note_on_c, 15, 37, 0
16, 81360, Note_on_c, 15, 38, 76
16, 81360, Control_c, 15, 11, 80
16, 81404, Note_on_c, 15, 38, 0
16, 81420, Note_on_c, 15, 37, 76
16, 81430, Control_c, 15, 11, 84
16, 81464, Note_on_c, 15, 37, 0
16, 81480, Note_on_c, 15, 38, 76
16, 81500, Control_c, 15, 11, 88
16, 81570, Control_c, 15, 11, 92
16, 81640, Control_c, 15, 11, 96
16, 81655, Note_on_c, 15, 38, 0
16, 81660, Note_on_c, 15, 38, 76
16, 81710, Control_c, 15, 11, 100
16, 81715, Note_on_c, 15, 38, 0
16, 81720, Note_on_c, 15, 40, 76
16, 81764, Note_on_c, 15, 40, 0
16, 81780, Control_c, 15, 11, 104
16, 81780, Note_on_c, 15, 39, 76
16, 81824, Note_on_c, 15, 39, 0
16, 81840, Note_on_c, 15, 40, 76
16, 81850, Control_c, 15, 11, 107
16, 81920, Control_c, 15, 11, 111
16, 81990, Control_c, 15, 11, 115
16, 82015, Note_on_c, 15, 40, 0
16, 82020, Note_on_c, 15, 40, 76
16, 82060, Control_c, 15, 11, 119
16, 82064, Note_on_c, 15, 40, 0
16, 82080, Note_on_c, 15, 42, 76
16, 82124, Note_on_c, 15, 42, 0
16, 82130, Control_c, 15, 11, 123
16, 82140, Note_on_c, 15, 41, 76
16, 82184, Note_on_c, 15, 41, 0
16, 82200, Note_on_c, 15, 42, 76
16, 82200, Control_c, 15, 11, 127
16, 82375, Note_on_c, 15, 42, 0
16, 82380, Note_on_c, 15, 42, 76
16, 82424, Note_on_c, 15, 42, 0
16, 82440, Note_on_c, 15, 44, 84
16, 82619, Note_on_c, 15, 44, 0
16, 82980, Note_on_c, 15, 42, 52
16, 83039, Note_on_c, 15, 42, 0
16, 83040, Note_on_c, 15, 41, 52
16, 83099, Note_on_c, 15, 41, 0
16, 83100, Note_on_c, 15, 37, 52
16, 83155, Note_on_c, 15, 37, 0
16, 83160, Note_on_c, 15, 38, 52
16, 83339, Note_on_c, 15, 38, 0
16, 83580, Note_on_c, 15, 33, 52
16, 83639, Note_on_c, 15, 33, 0
16, 83640, Note_on_c, 15, 35, 52
16, 83699, Note_on_c, 15, 35, 0
16, 83700, Note_on_c, 15, 37, 52
16, 83759, Note_on_c, 15, 37, 0
16, 83760, Note_on_c, 15, 38, 52
16, 83804, Note_on_c, 15, 38, 0
16, 84000, Control_c, 15, 11, 80
16, 84060, Note_on_c, 15, 33, 76
16, 84119, Note_on_c, 15, 33, 0
16, 84120, Note_on_c, 15, 35, 76
16, 84179, Note_on_c, 15, 35, 0
16, 84180, Note_on_c, 15, 37, 76
16, 84239, Note_on_c, 15, 37, 0
16, 84240, Note_on_c, 15, 38, 76
16, 84240, Control_c, 15, 11, 80
16, 84284, Note_on_c, 15, 38, 0
16, 84285, Control_c, 15, 11, 84
16, 84300, Note_on_c, 15, 33, 76
16, 84330, Control_c, 15, 11, 88
16, 84359, Note_on_c, 15, 33, 0
16, 84360, Note_on_c, 15, 35, 76
16, 84375, Control_c, 15, 11, 92
16, 84419, Note_on_c, 15, 35, 0
16, 84420, Note_on_c, 15, 37, 76
16, 84420, Control_c, 15, 11, 96
16, 84465, Control_c, 15, 11, 100
16, 84479, Note_on_c, 15, 37, 0
16, 84480, Note_on_c, 15, 38, 76
16, 84510, Control_c, 15, 11, 104
16, 84535, Note_on_c, 15, 38, 0
16, 84540, Note_on_c, 15, 33, 76
16, 84555, Control_c, 15, 11, 107
16, 84599, Note_on_c, 15, 33, 0
16, 84600, Note_on_c, 15, 35, 76
16, 84600, Control_c, 15, 11, 111
16, 84645, Control_c, 15, 11, 115
16, 84659, Note_on_c, 15, 35, 0
16, 84660, Note_on_c, 15, 37, 76
16, 84690, Control_c, 15, 11, 119
16, 84719, Note_on_c, 15, 37, 0
16, 84720, Note_on_c, 15, 38, 76
16, 84735, Control_c, 15, 11, 123
16, 84764, Note_on_c, 15, 38, 0
16, 84780, Note_on_c, 15, 33, 76
16, 84780, Control_c, 15, 11, 127
16, 84839, Note_on_c, 15, 33, 0
16, 84840, Note_on_c, 15, 35, 76
16, 84899, Note_on_c, 15, 35, 0
16, 84900, Note_on_c, 15, 37, 76
16, 84955, Note_on_c, 15, 37, 0
16, 84960, Note_on_c, 15, 38, 84
16, 85311, Note_on_c, 15, 38, 0
16, 85320, Note_on_c, 15, 47, 84
16, 85671, Note_on_c, 15, 47, 0
16, 85680, Note_on_c, 15, 44, 76
16, 85746, Note_on_c, 15, 44, 0
16, 85770, Note_on_c, 15, 44, 76
16, 85791, Note_on_c, 15, 44, 0
16, 85800, Note_on_c, 15, 44, 76
16, 85889, Note_on_c, 15, 44, 0
16, 86040, Note_on_c, 15, 45, 76
16, 86106, Note_on_c, 15, 45, 0
16, 86130, Note_on_c, 15, 45, 76
16, 86151, Note_on_c, 15, 45, 0
16, 86160, Note_on_c, 15, 45, 76
16, 86249, Note_on_c, 15, 45, 0
16, 86400, Note_on_c, 15, 38, 52
16, 86489, Note_on_c, 15, 38, 0
16, 86520, Note_on_c, 15, 40, 52
16, 86609, Note_on_c, 15, 40, 0
16, 86640, Note_on_c, 15, 40, 52
16, 86729, Note_on_c, 15, 40, 0
16, 86760, Note_on_c, 15, 45, 52
16, 86879, Note_on_c, 15, 45, 0
16, 87120, Note_on_c, 15, 44, 44
16, 87186, Note_on_c, 15, 44, 0
16, 87210, Note_on_c, 15, 44, 44
16, 87231, Note_on_c, 15, 44, 0
16, 87240, Note_on_c, 15, 44, 44
16, 87329, Note_on_c, 15, 44, 0
16, 87480, Note_on_c, 15, 45, 44
16, 87546, Note_on_c, 15, 45, 0
16, 87570, Note_on_c, 15, 45, 44
16, 87591, Note_on_c, 15, 45, 0
16, 87600, Note_on_c, 15, 45, 44
16, 87689, Note_on_c, 15, 45, 0
16, 87840, Note_on_c, 15, 38, 44
16, 87929, Note_on_c, 15, 38, 0
16, 87960, Note_on_c, 15, 40, 44
16, 88049, Note_on_c, 15, 40, 0
16, 88080, Note_on_c, 15, 40, 44
16, 88169, Note_on_c, 15, 40, 0
16, 88200, Note_on_c, 15, 33, 44
16, 88319, Note_on_c, 15, 33, 0
16, 88560, Note_on_c, 15, 37, 44
16, 88679, Note_on_c, 15, 37, 0
16, 88920, Note_on_c, 15, 38, 44
16, 89039, Note_on_c, 15, 38, 0
16, 89280, Note_on_c, 15, 40, 44
16, 89399, Note_on_c, 15, 40, 0
16, 89640, Note_on_c, 15, 45, 44
16, 89759, Note_on_c, 15, 45, 0
16, 89820, Note_on_c, 15, 45, 44
16, 89864, Note_on_c, 15, 45, 0
16, 89880, Note_on_c, 15, 40, 44
16, 89924, Note_on_c, 15, 40, 0
16, 89940, Note_on_c, 15, 37, 44
16, 89984, Note_on_c, 15, 37, 0
16, 90000, Note_on_c, 15, 33, 44
16, 90119, Note_on_c, 15, 33, 0
16, 90240, Note_on_c, 15, 37, 44
16, 90359, Note_on_c, 15, 37, 0
16, 90360, Note_on_c, 15, 38, 44
16, 90479, Note_on_c, 15, 38, 0
16, 90720, Note_on_c, 15, 40, 44
16, 90839, Note_on_c, 15, 40, 0
16, 91080, Note_on_c, 15, 45, 44
16, 91199, Note_on_c, 15, 45, 0
16, 91440, Note_on_c, 15, 40, 44
16, 91559, Note_on_c, 15, 40, 0
16, 91680, Note_on_c, 15, 40, 44
16, 91791, Note_on_c, 15, 40, 0
16, 91800, Note_on_c, 15, 45, 44
16, 91919, Note_on_c, 15, 45, 0
16, 92040, Control_c, 15, 11, 64
16, 92160, Control_c, 15, 11, 64
16, 92160, Note_on_c, 15, 40, 76
16, 92190, Control_c, 15, 11, 69
16, 92220, Control_c, 15, 11, 75
16, 92250, Control_c, 15, 11, 80
16, 92279, Note_on_c, 15, 40, 0
16, 92280, Control_c, 15, 11, 85
16, 92310, Control_c, 15, 11, 90
16, 92340, Control_c, 15, 11, 96
16, 92370, Control_c, 15, 11, 101
16, 92400, Note_on_c, 15, 40, 76
16, 92400, Control_c, 15, 11, 106
16, 92430, Control_c, 15, 11, 111
16, 92444, Note_on_c, 15, 40, 0
16, 92460, Note_on_c, 15, 40, 76
16, 92460, Control_c, 15, 11, 117
16, 92490, Control_c, 15, 11, 122
16, 92504, Note_on_c, 15, 40, 0
16, 92520, Note_on_c, 15, 45, 76
16, 92520, Control_c, 15, 11, 127
16, 92564, Note_on_c, 15, 45, 0
16, 92580, Note_on_c, 15, 40, 84
16, 92691, Note_on_c, 15, 40, 0
16, 92700, Note_on_c, 15, 40, 76
16, 92744, Note_on_c, 15, 40, 0
16, 92760, Note_on_c, 15, 40, 76
16, 92804, Note_on_c, 15, 40, 0
16, 92820, Note_on_c, 15, 40, 76
16, 92864, Note_on_c, 15, 40, 0
16, 92880, Note_on_c, 15, 45, 76
16, 92924, Note_on_c, 15, 45, 0
16, 92940, Note_on_c, 15, 40, 84
16, 93051, Note_on_c, 15, 40, 0
16, 93060, Note_on_c, 15, 40, 76
16, 93104, Note_on_c, 15, 40, 0
16, 93120, Note_on_c, 15, 40, 76
16, 93164, Note_on_c, 15, 40, 0
16, 93180, Note_on_c, 15, 40, 76
16, 93224, Note_on_c, 15, 40, 0
16, 93240, Note_on_c, 15, 40, 76
16, 93329, Note_on_c, 15, 40, 0
16, 93360, Note_on_c, 15, 40, 76
16, 93449, Note_on_c, 15, 40, 0
16, 93720, Note_on_c, 15, 40, 52
16, 93839, Note_on_c, 15, 40, 0
16, 94080, Note_on_c, 15, 40, 44
16, 94199, Note_on_c, 15, 40, 0
16, 94680, Note_on_c, 15, 33, 52
16, 94799, Note_on_c, 15, 33, 0
16, 94800, Note_on_c, 15, 37, 52
16, 94919, Note_on_c, 15, 37, 0
16, 94920, Note_on_c, 15, 40, 52
16, 95031, Note_on_c, 15, 40, 0
16, 95040, Note_on_c, 15, 45, 52
16, 95129, Note_on_c, 15, 45, 0
16, 95400, Note_on_c, 15, 45, 52
16, 95519, Note_on_c, 15, 45, 0
16, 95520, Note_on_c, 15, 44, 52
16, 95639, Note_on_c, 15, 44, 0
16, 95640, Note_on_c, 15, 45, 52
16, 95751, Note_on_c, 15, 45, 0
16, 95760, Note_on_c, 15, 40, 52
16, 95849, Note_on_c, 15, 40, 0
16, 96000, Control_c, 15, 11, 96
16, 96120, Note_on_c, 15, 33, 68
16, 96150, Control_c, 15, 11, 99
16, 96180, Control_c, 15, 11, 101
16, 96210, Control_c, 15, 11, 104
16, 96239, Note_on_c, 15, 33, 0
16, 96240, Note_on_c, 15, 35, 68
16, 96240, Control_c, 15, 11, 106
16, 96270, Control_c, 15, 11, 109
16, 96300, Control_c, 15, 11, 112
16, 96330, Control_c, 15, 11, 114
16, 96359, Note_on_c, 15, 35, 0
16, 96360, Control_c, 15, 11, 117
16, 96360, Note_on_c, 15, 37, 68
16, 96390, Control_c, 15, 11, 119
16, 96420, Control_c, 15, 11, 122
16, 96450, Control_c, 15, 11, 124
16, 96471, Note_on_c, 15, 37, 0
16, 96480, Control_c, 15, 11, 127
16, 96480, Note_on_c, 15, 38, 52
16, 96569, Note_on_c, 15, 38, 0
16, 96840, Note_on_c, 15, 40, 52
16, 96929, Note_on_c, 15, 40, 0
16, 97200, Note_on_c, 15, 45, 52
16, 97289, Note_on_c, 15, 45, 0
16, 97560, Note_on_c, 15, 45, 84
16, 97615, Note_on_c, 15, 45, 0
16, 97620, Note_on_c, 15, 45, 84
16, 97645, Note_on_c, 15, 45, 0
16, 97650, Note_on_c, 15, 45, 84
16, 97675, Note_on_c, 15, 45, 0
16, 97680, Note_on_c, 15, 47, 84
16, 97735, Note_on_c, 15, 47, 0
16, 97740, Note_on_c, 15, 47, 84
16, 97765, Note_on_c, 15, 47, 0
16, 97770, Note_on_c, 15, 47, 84
16, 97795, Note_on_c, 15, 47, 0
16, 97800, Note_on_c, 15, 49, 84
16, 97855, Note_on_c, 15, 49, 0
16, 97860, Note_on_c, 15, 49, 84
16, 97885, Note_on_c, 15, 49, 0
16, 97890, Note_on_c, 15, 49, 84
16, 97915, Note_on_c, 15, 49, 0
16, 97920, Note_on_c, 15, 50, 84
16, 98009, Note_on_c, 15, 50, 0
16, 98040, Note_on_c, 15, 38, 92
16, 98129, Note_on_c, 15, 38, 0
16, 98280, Note_on_c, 15, 40, 84
16, 98369, Note_on_c, 15, 40, 0
16, 98400, Note_on_c, 15, 40, 92
16, 98489, Note_on_c, 15, 40, 0
16, 98640, Note_on_c, 15, 45, 84
16, 98729, Note_on_c, 15, 45, 0
16, 98880, Note_on_c, 15, 33, 52
16, 98969, Note_on_c, 15, 33, 0
16, 99000, Note_on_c, 15, 33, 52
16, 99089, Note_on_c, 15, 33, 0
16, 99089, End_track
17, 0, Start_track
17, 0, Title_t, "Ludwig van Beethoven - Symphony No. 2, Op.36 - No. 2 Larghetto"
17, 0, MIDI_port, 0
17, 0, End_track
0, 0, End_of_file
