0, 0, Header, 1, 19, 240
1, 0, Start_track
1, 0, Sequencer_specific, 10, 0, 0, 91, 35, 1, 0, 5, 6, 42, 0
1, 0, Title_t, "Ludwig van Beethoven - Symphony No. 3 in E-flat Major, Op.55 (Eroica)"
1, 0, Instrument_name_t, "Conductor Track"
1, 0, SMPTE_offset, 96, 0, 3, 0, 0
1, 0, MIDI_port, 0
1, 0, Key_signature, -3, "major"
1, 0, Tempo, 333333
1, 0, Time_signature, 3, 2, 24, 8
1, 605760, Tempo, 1000000
1, 607200, Tempo, 1000000
1, 607200, End_track
2, 0, Start_track
2, 0, Title_t, "1st Movement - Allegro con brio"
2, 0, MIDI_port, 0
2, 0, End_track
3, 0, Start_track
3, 0, Title_t, "Sequenced by D. L. Viens 25 Mar 2000"
3, 0, MIDI_port, 0
3, 0, End_track
4, 0, Start_track
4, 0, Title_t, "dlviens@empire.net"
4, 0, MIDI_port, 0
4, 0, End_track
5, 0, Start_track
5, 0, MIDI_port, 0
5, 0, End_track
6, 0, Start_track
6, 0, Title_t, "Flute"
6, 0, MIDI_port, 0
6, 0, Program_c, 0, 73
6, 0, Control_c, 0, 7, 72
6, 0, Control_c, 0, 10, 60
6, 0, Control_c, 0, 11, 127
6, 0, Note_on_c, 0, 82, 76
6, 0, Note_on_c, 0, 87, 76
6, 179, Note_on_c, 0, 82, 0
6, 179, Note_on_c, 0, 87, 0
6, 720, Note_on_c, 0, 82, 76
6, 720, Note_on_c, 0, 87, 76
6, 899, Note_on_c, 0, 82, 0
6, 899, Note_on_c, 0, 87, 0
6, 8880, Control_c, 0, 11, 96
6, 9120, Note_on_c, 0, 82, 68
6, 9360, Control_c, 0, 11, 96
6, 9420, Control_c, 0, 11, 99
6, 9480, Control_c, 0, 11, 101
6, 9540, Control_c, 0, 11, 104
6, 9599, Note_on_c, 0, 82, 0
6, 9600, Control_c, 0, 11, 106
6, 9600, Note_on_c, 0, 84, 68
6, 9660, Control_c, 0, 11, 109
6, 9720, Control_c, 0, 11, 112
6, 9780, Control_c, 0, 11, 114
6, 9839, Note_on_c, 0, 84, 0
6, 9840, Note_on_c, 0, 86, 68
6, 9840, Control_c, 0, 11, 117
6, 9900, Control_c, 0, 11, 119
6, 9960, Control_c, 0, 11, 122
6, 10020, Control_c, 0, 11, 124
6, 10064, Note_on_c, 0, 86, 0
6, 10065, Control_c, 0, 11, 96
6, 10080, Note_on_c, 0, 87, 68
6, 10559, Note_on_c, 0, 87, 0
6, 10560, Note_on_c, 0, 91, 68
6, 10799, Note_on_c, 0, 91, 0
6, 10800, Note_on_c, 0, 87, 68
6, 11279, Note_on_c, 0, 87, 0
6, 11280, Note_on_c, 0, 82, 68
6, 11519, Note_on_c, 0, 82, 0
6, 11520, Note_on_c, 0, 87, 68
6, 11759, Note_on_c, 0, 87, 0
6, 13920, Control_c, 0, 11, 80
6, 14160, Note_on_c, 0, 79, 76
6, 14399, Note_on_c, 0, 79, 0
6, 14400, Note_on_c, 0, 80, 76
6, 14639, Note_on_c, 0, 80, 0
6, 14640, Note_on_c, 0, 84, 76
6, 14879, Note_on_c, 0, 84, 0
6, 14880, Note_on_c, 0, 75, 76
6, 14880, Note_on_c, 0, 87, 76
6, 15104, Note_on_c, 0, 75, 0
6, 15104, Note_on_c, 0, 87, 0
6, 15120, Control_c, 0, 11, 80
6, 15120, Note_on_c, 0, 80, 76
6, 15180, Control_c, 0, 11, 84
6, 15240, Control_c, 0, 11, 88
6, 15300, Control_c, 0, 11, 92
6, 15360, Note_on_c, 0, 75, 76
6, 15360, Control_c, 0, 11, 96
6, 15420, Control_c, 0, 11, 100
6, 15480, Control_c, 0, 11, 104
6, 15540, Control_c, 0, 11, 107
6, 15599, Note_on_c, 0, 80, 0
6, 15599, Note_on_c, 0, 75, 0
6, 15600, Note_on_c, 0, 75, 76
6, 15600, Control_c, 0, 11, 111
6, 15600, Note_on_c, 0, 81, 76
6, 15660, Control_c, 0, 11, 115
6, 15720, Control_c, 0, 11, 119
6, 15780, Control_c, 0, 11, 123
6, 15825, Control_c, 0, 11, 127
6, 15839, Note_on_c, 0, 75, 0
6, 15839, Note_on_c, 0, 81, 0
6, 15840, Note_on_c, 0, 82, 76
6, 15840, Note_on_c, 0, 74, 76
6, 15960, Control_c, 0, 11, 80
6, 17039, Note_on_c, 0, 82, 0
6, 17039, Note_on_c, 0, 74, 0
6, 17040, Note_on_c, 0, 80, 76
6, 17040, Note_on_c, 0, 86, 76
6, 17279, Note_on_c, 0, 80, 0
6, 17279, Note_on_c, 0, 86, 0
6, 17280, Note_on_c, 0, 87, 76
6, 17280, Note_on_c, 0, 79, 76
6, 17459, Note_on_c, 0, 87, 0
6, 17459, Note_on_c, 0, 79, 0
6, 17505, Control_c, 0, 11, 127
6, 17520, Note_on_c, 0, 87, 76
6, 17520, Note_on_c, 0, 81, 76
6, 17984, Note_on_c, 0, 87, 0
6, 17984, Note_on_c, 0, 81, 0
6, 18000, Note_on_c, 0, 81, 76
6, 18000, Note_on_c, 0, 87, 76
6, 18449, Note_on_c, 0, 81, 0
6, 18449, Note_on_c, 0, 87, 0
6, 18480, Note_on_c, 0, 87, 76
6, 18480, Note_on_c, 0, 81, 76
6, 18689, Note_on_c, 0, 87, 0
6, 18689, Note_on_c, 0, 81, 0
6, 18720, Note_on_c, 0, 82, 76
6, 18720, Note_on_c, 0, 86, 76
6, 18840, Control_c, 0, 11, 80
6, 19904, Note_on_c, 0, 82, 0
6, 19904, Note_on_c, 0, 86, 0
6, 19905, Control_c, 0, 11, 127
6, 19920, Note_on_c, 0, 82, 76
6, 20399, Note_on_c, 0, 82, 0
6, 20400, Note_on_c, 0, 82, 76
6, 20400, Note_on_c, 0, 86, 76
6, 20879, Note_on_c, 0, 82, 0
6, 20879, Note_on_c, 0, 86, 0
6, 20880, Note_on_c, 0, 86, 76
6, 20880, Note_on_c, 0, 82, 76
6, 21359, Note_on_c, 0, 86, 0
6, 21359, Note_on_c, 0, 82, 0
6, 21360, Note_on_c, 0, 82, 76
6, 21360, Note_on_c, 0, 86, 76
6, 21839, Note_on_c, 0, 82, 0
6, 21839, Note_on_c, 0, 86, 0
6, 21840, Note_on_c, 0, 87, 76
6, 21840, Note_on_c, 0, 82, 76
6, 22319, Note_on_c, 0, 87, 0
6, 22319, Note_on_c, 0, 82, 0
6, 22320, Note_on_c, 0, 87, 76
6, 22320, Note_on_c, 0, 82, 76
6, 22799, Note_on_c, 0, 87, 0
6, 22799, Note_on_c, 0, 82, 0
6, 22800, Note_on_c, 0, 82, 76
6, 22800, Note_on_c, 0, 87, 76
6, 23279, Note_on_c, 0, 82, 0
6, 23279, Note_on_c, 0, 87, 0
6, 23280, Note_on_c, 0, 86, 52
6, 23280, Note_on_c, 0, 82, 52
6, 23459, Note_on_c, 0, 86, 0
6, 23459, Note_on_c, 0, 82, 0
6, 23520, Note_on_c, 0, 82, 76
6, 23520, Note_on_c, 0, 86, 76
6, 23969, Note_on_c, 0, 82, 0
6, 23969, Note_on_c, 0, 86, 0
6, 24000, Note_on_c, 0, 87, 52
6, 24000, Note_on_c, 0, 82, 52
6, 24179, Note_on_c, 0, 87, 0
6, 24179, Note_on_c, 0, 82, 0
6, 24240, Note_on_c, 0, 87, 76
6, 24240, Note_on_c, 0, 82, 76
6, 24479, Note_on_c, 0, 87, 0
6, 24480, Note_on_c, 0, 86, 52
6, 24689, Note_on_c, 0, 82, 0
6, 24689, Note_on_c, 0, 86, 0
6, 24720, Note_on_c, 0, 70, 52
6, 24809, Note_on_c, 0, 70, 0
6, 24840, Note_on_c, 0, 72, 55
6, 24929, Note_on_c, 0, 72, 0
6, 24960, Note_on_c, 0, 74, 58
6, 25049, Note_on_c, 0, 74, 0
6, 25080, Note_on_c, 0, 75, 61
6, 25169, Note_on_c, 0, 75, 0
6, 25200, Note_on_c, 0, 77, 64
6, 25289, Note_on_c, 0, 77, 0
6, 25320, Note_on_c, 0, 79, 68
6, 25409, Note_on_c, 0, 79, 0
6, 25440, Note_on_c, 0, 80, 71
6, 25529, Note_on_c, 0, 80, 0
6, 25560, Note_on_c, 0, 82, 74
6, 25649, Note_on_c, 0, 82, 0
6, 25680, Note_on_c, 0, 84, 77
6, 25769, Note_on_c, 0, 84, 0
6, 25800, Note_on_c, 0, 86, 80
6, 25889, Note_on_c, 0, 86, 0
6, 25920, Note_on_c, 0, 87, 84
6, 26399, Note_on_c, 0, 87, 0
6, 26400, Note_on_c, 0, 91, 84
6, 26400, Note_on_c, 0, 79, 84
6, 26639, Note_on_c, 0, 91, 0
6, 26639, Note_on_c, 0, 79, 0
6, 26640, Note_on_c, 0, 75, 84
6, 26640, Note_on_c, 0, 87, 84
6, 27119, Note_on_c, 0, 75, 0
6, 27119, Note_on_c, 0, 87, 0
6, 27120, Note_on_c, 0, 82, 84
6, 27120, Note_on_c, 0, 70, 84
6, 27344, Note_on_c, 0, 82, 0
6, 27344, Note_on_c, 0, 70, 0
6, 27360, Note_on_c, 0, 87, 84
6, 27360, Note_on_c, 0, 75, 84
6, 27584, Note_on_c, 0, 87, 0
6, 27584, Note_on_c, 0, 75, 0
6, 27600, Note_on_c, 0, 87, 84
6, 27600, Note_on_c, 0, 91, 84
6, 27824, Note_on_c, 0, 87, 0
6, 27824, Note_on_c, 0, 91, 0
6, 27840, Note_on_c, 0, 91, 84
6, 27840, Note_on_c, 0, 87, 84
6, 28064, Note_on_c, 0, 91, 0
6, 28064, Note_on_c, 0, 87, 0
6, 28080, Note_on_c, 0, 87, 84
6, 28080, Note_on_c, 0, 91, 84
6, 29024, Note_on_c, 0, 87, 0
6, 29024, Note_on_c, 0, 91, 0
6, 29040, Note_on_c, 0, 91, 84
6, 29040, Note_on_c, 0, 87, 84
6, 29264, Note_on_c, 0, 91, 0
6, 29264, Note_on_c, 0, 87, 0
6, 29280, Note_on_c, 0, 91, 84
6, 29280, Note_on_c, 0, 87, 84
6, 29504, Note_on_c, 0, 91, 0
6, 29504, Note_on_c, 0, 87, 0
6, 29520, Note_on_c, 0, 87, 84
6, 29520, Note_on_c, 0, 91, 84
6, 29984, Note_on_c, 0, 87, 0
6, 29984, Note_on_c, 0, 91, 0
6, 30000, Note_on_c, 0, 91, 92
6, 30000, Note_on_c, 0, 85, 92
6, 30224, Note_on_c, 0, 91, 0
6, 30224, Note_on_c, 0, 85, 0
6, 30240, Note_on_c, 0, 84, 84
6, 30240, Note_on_c, 0, 92, 84
6, 30479, Note_on_c, 0, 92, 0
6, 30480, Note_on_c, 0, 87, 84
6, 30704, Note_on_c, 0, 87, 0
6, 30720, Note_on_c, 0, 87, 84
6, 30944, Note_on_c, 0, 87, 0
6, 30960, Note_on_c, 0, 88, 84
6, 31079, Note_on_c, 0, 84, 0
6, 31080, Note_on_c, 0, 82, 84
6, 31199, Note_on_c, 0, 82, 0
6, 31200, Note_on_c, 0, 81, 84
6, 31319, Note_on_c, 0, 81, 0
6, 31320, Note_on_c, 0, 82, 84
6, 31439, Note_on_c, 0, 82, 0
6, 31440, Note_on_c, 0, 84, 84
6, 31559, Note_on_c, 0, 84, 0
6, 31560, Note_on_c, 0, 82, 84
6, 31679, Note_on_c, 0, 88, 0
6, 31679, Note_on_c, 0, 82, 0
6, 31680, Note_on_c, 0, 81, 84
6, 31680, Note_on_c, 0, 89, 84
6, 31919, Note_on_c, 0, 81, 0
6, 31919, Note_on_c, 0, 89, 0
6, 33360, Note_on_c, 0, 87, 48
6, 33719, Note_on_c, 0, 87, 0
6, 33720, Note_on_c, 0, 84, 48
6, 33839, Note_on_c, 0, 84, 0
6, 33840, Note_on_c, 0, 81, 48
6, 34079, Note_on_c, 0, 81, 0
6, 36240, Note_on_c, 0, 86, 48
6, 36599, Note_on_c, 0, 86, 0
6, 36600, Note_on_c, 0, 82, 48
6, 36719, Note_on_c, 0, 82, 0
6, 36720, Note_on_c, 0, 77, 48
6, 36959, Note_on_c, 0, 77, 0
6, 39120, Note_on_c, 0, 91, 84
6, 39120, Note_on_c, 0, 79, 84
6, 39464, Note_on_c, 0, 91, 0
6, 39464, Note_on_c, 0, 79, 0
6, 39480, Note_on_c, 0, 89, 84
6, 39480, Note_on_c, 0, 77, 84
6, 39584, Note_on_c, 0, 89, 0
6, 39584, Note_on_c, 0, 77, 0
6, 39600, Note_on_c, 0, 87, 84
6, 39600, Note_on_c, 0, 75, 84
6, 39779, Note_on_c, 0, 87, 0
6, 39779, Note_on_c, 0, 75, 0
6, 39840, Note_on_c, 0, 74, 84
6, 39840, Note_on_c, 0, 86, 84
6, 40019, Note_on_c, 0, 74, 0
6, 40019, Note_on_c, 0, 86, 0
6, 40080, Note_on_c, 0, 84, 84
6, 40080, Note_on_c, 0, 72, 84
6, 40259, Note_on_c, 0, 84, 0
6, 40259, Note_on_c, 0, 72, 0
6, 40320, Note_on_c, 0, 70, 52
6, 40320, Note_on_c, 0, 82, 52
6, 40559, Note_on_c, 0, 70, 0
6, 40559, Note_on_c, 0, 82, 0
6, 42960, Control_c, 0, 11, 80
6, 43200, Note_on_c, 0, 70, 76
6, 43200, Note_on_c, 0, 82, 76
6, 43200, Control_c, 0, 11, 80
6, 43320, Control_c, 0, 11, 82
6, 43440, Control_c, 0, 11, 84
6, 43560, Control_c, 0, 11, 86
6, 43680, Control_c, 0, 11, 88
6, 43800, Control_c, 0, 11, 90
6, 43920, Control_c, 0, 11, 92
6, 44040, Control_c, 0, 11, 94
6, 44160, Control_c, 0, 11, 96
6, 44280, Control_c, 0, 11, 98
6, 44400, Control_c, 0, 11, 100
6, 44520, Control_c, 0, 11, 102
6, 44640, Control_c, 0, 11, 104
6, 44744, Note_on_c, 0, 70, 0
6, 44744, Note_on_c, 0, 82, 0
6, 44760, Note_on_c, 0, 74, 76
6, 44760, Control_c, 0, 11, 105
6, 44760, Note_on_c, 0, 82, 76
6, 44849, Note_on_c, 0, 74, 0
6, 44849, Note_on_c, 0, 82, 0
6, 44880, Note_on_c, 0, 81, 76
6, 44880, Note_on_c, 0, 72, 76
6, 44880, Control_c, 0, 11, 107
6, 44969, Note_on_c, 0, 81, 0
6, 44969, Note_on_c, 0, 72, 0
6, 45000, Control_c, 0, 11, 109
6, 45000, Note_on_c, 0, 82, 76
6, 45000, Note_on_c, 0, 74, 76
6, 45089, Note_on_c, 0, 82, 0
6, 45089, Note_on_c, 0, 74, 0
6, 45120, Note_on_c, 0, 81, 76
6, 45120, Control_c, 0, 11, 111
6, 45120, Note_on_c, 0, 84, 76
6, 45209, Note_on_c, 0, 81, 0
6, 45209, Note_on_c, 0, 84, 0
6, 45240, Control_c, 0, 11, 113
6, 45240, Note_on_c, 0, 82, 76
6, 45240, Note_on_c, 0, 86, 76
6, 45329, Note_on_c, 0, 82, 0
6, 45329, Note_on_c, 0, 86, 0
6, 45360, Note_on_c, 0, 87, 76
6, 45360, Note_on_c, 0, 84, 76
6, 45360, Control_c, 0, 11, 115
6, 45479, Note_on_c, 0, 87, 0
6, 45479, Note_on_c, 0, 84, 0
6, 45480, Control_c, 0, 11, 117
6, 45480, Note_on_c, 0, 87, 76
6, 45480, Note_on_c, 0, 84, 76
6, 45599, Note_on_c, 0, 87, 0
6, 45599, Note_on_c, 0, 84, 0
6, 45600, Note_on_c, 0, 84, 76
6, 45600, Note_on_c, 0, 87, 76
6, 45600, Control_c, 0, 11, 119
6, 45719, Note_on_c, 0, 84, 0
6, 45719, Note_on_c, 0, 87, 0
6, 45720, Note_on_c, 0, 84, 76
6, 45720, Control_c, 0, 11, 121
6, 45720, Note_on_c, 0, 87, 76
6, 45839, Note_on_c, 0, 84, 0
6, 45839, Note_on_c, 0, 87, 0
6, 45840, Note_on_c, 0, 87, 76
6, 45840, Control_c, 0, 11, 123
6, 45840, Note_on_c, 0, 84, 76
6, 45959, Note_on_c, 0, 87, 0
6, 45959, Note_on_c, 0, 84, 0
6, 45960, Note_on_c, 0, 87, 76
6, 45960, Note_on_c, 0, 84, 76
6, 45960, Control_c, 0, 11, 127
6, 46079, Note_on_c, 0, 87, 0
6, 46079, Note_on_c, 0, 84, 0
6, 46080, Note_on_c, 0, 84, 76
6, 46080, Note_on_c, 0, 87, 76
6, 46259, Note_on_c, 0, 84, 0
6, 46259, Note_on_c, 0, 87, 0
6, 46320, Note_on_c, 0, 87, 76
6, 46320, Note_on_c, 0, 84, 76
6, 46499, Note_on_c, 0, 87, 0
6, 46499, Note_on_c, 0, 84, 0
6, 47400, Note_on_c, 0, 87, 76
6, 47400, Note_on_c, 0, 81, 76
6, 47489, Note_on_c, 0, 87, 0
6, 47489, Note_on_c, 0, 81, 0
6, 47520, Note_on_c, 0, 82, 76
6, 47520, Note_on_c, 0, 86, 76
6, 47699, Note_on_c, 0, 82, 0
6, 47699, Note_on_c, 0, 86, 0
6, 47760, Note_on_c, 0, 82, 76
6, 47760, Note_on_c, 0, 86, 76
6, 47939, Note_on_c, 0, 82, 0
6, 47939, Note_on_c, 0, 86, 0
6, 48840, Note_on_c, 0, 86, 76
6, 48840, Note_on_c, 0, 82, 76
6, 48929, Note_on_c, 0, 86, 0
6, 48929, Note_on_c, 0, 82, 0
6, 48960, Note_on_c, 0, 83, 76
6, 48960, Note_on_c, 0, 86, 76
6, 49139, Note_on_c, 0, 83, 0
6, 49139, Note_on_c, 0, 86, 0
6, 49200, Note_on_c, 0, 86, 76
6, 49200, Note_on_c, 0, 83, 76
6, 49379, Note_on_c, 0, 86, 0
6, 49379, Note_on_c, 0, 83, 0
6, 50280, Note_on_c, 0, 74, 76
6, 50280, Note_on_c, 0, 83, 76
6, 50369, Note_on_c, 0, 74, 0
6, 50369, Note_on_c, 0, 83, 0
6, 50400, Note_on_c, 0, 84, 76
6, 50400, Note_on_c, 0, 79, 76
6, 50489, Note_on_c, 0, 84, 0
6, 50489, Note_on_c, 0, 79, 0
6, 50520, Note_on_c, 0, 84, 76
6, 50520, Note_on_c, 0, 79, 76
6, 50744, Note_on_c, 0, 84, 0
6, 50744, Note_on_c, 0, 79, 0
6, 50760, Note_on_c, 0, 79, 76
6, 50760, Note_on_c, 0, 84, 76
6, 50849, Note_on_c, 0, 79, 0
6, 50849, Note_on_c, 0, 84, 0
6, 50880, Note_on_c, 0, 84, 76
6, 50880, Note_on_c, 0, 81, 76
6, 50969, Note_on_c, 0, 84, 0
6, 50969, Note_on_c, 0, 81, 0
6, 51000, Note_on_c, 0, 81, 76
6, 51000, Note_on_c, 0, 86, 76
6, 51089, Note_on_c, 0, 81, 0
6, 51089, Note_on_c, 0, 86, 0
6, 51120, Note_on_c, 0, 82, 76
6, 51120, Note_on_c, 0, 86, 76
6, 51209, Note_on_c, 0, 82, 0
6, 51209, Note_on_c, 0, 86, 0
6, 51240, Note_on_c, 0, 87, 76
6, 51240, Note_on_c, 0, 82, 76
6, 51464, Note_on_c, 0, 87, 0
6, 51464, Note_on_c, 0, 82, 0
6, 51480, Note_on_c, 0, 87, 76
6, 51480, Note_on_c, 0, 82, 76
6, 51569, Note_on_c, 0, 87, 0
6, 51569, Note_on_c, 0, 82, 0
6, 51600, Note_on_c, 0, 84, 76
6, 51600, Note_on_c, 0, 87, 76
6, 51689, Note_on_c, 0, 84, 0
6, 51689, Note_on_c, 0, 87, 0
6, 51720, Note_on_c, 0, 84, 76
6, 51720, Note_on_c, 0, 89, 76
6, 51809, Note_on_c, 0, 84, 0
6, 51809, Note_on_c, 0, 89, 0
6, 51840, Note_on_c, 0, 86, 76
6, 51840, Note_on_c, 0, 82, 76
6, 52064, Note_on_c, 0, 86, 0
6, 52064, Note_on_c, 0, 82, 0
6, 52080, Note_on_c, 0, 82, 76
6, 52080, Note_on_c, 0, 86, 76
6, 52319, Note_on_c, 0, 82, 0
6, 52319, Note_on_c, 0, 86, 0
6, 52320, Note_on_c, 0, 87, 76
6, 52320, Note_on_c, 0, 82, 76
6, 52559, Note_on_c, 0, 87, 0
6, 52559, Note_on_c, 0, 82, 0
6, 52560, Note_on_c, 0, 82, 76
6, 52560, Note_on_c, 0, 88, 76
6, 52799, Note_on_c, 0, 82, 0
6, 52799, Note_on_c, 0, 88, 0
6, 52800, Note_on_c, 0, 82, 76
6, 52800, Note_on_c, 0, 89, 76
6, 53024, Note_on_c, 0, 82, 0
6, 53024, Note_on_c, 0, 89, 0
6, 53040, Note_on_c, 0, 82, 76
6, 53040, Note_on_c, 0, 90, 76
6, 53279, Note_on_c, 0, 90, 0
6, 53280, Note_on_c, 0, 91, 76
6, 53399, Note_on_c, 0, 91, 0
6, 53400, Note_on_c, 0, 90, 76
6, 53519, Note_on_c, 0, 90, 0
6, 53520, Note_on_c, 0, 91, 76
6, 53639, Note_on_c, 0, 91, 0
6, 53640, Note_on_c, 0, 90, 76
6, 53759, Note_on_c, 0, 82, 0
6, 53759, Note_on_c, 0, 90, 0
6, 53760, Note_on_c, 0, 91, 76
6, 53760, Note_on_c, 0, 83, 76
6, 53864, Note_on_c, 0, 91, 0
6, 53880, Note_on_c, 0, 86, 76
6, 53984, Note_on_c, 0, 83, 0
6, 53984, Note_on_c, 0, 86, 0
6, 54000, Note_on_c, 0, 87, 76
6, 54000, Note_on_c, 0, 84, 76
6, 54119, Note_on_c, 0, 87, 0
6, 54119, Note_on_c, 0, 84, 0
6, 54120, Note_on_c, 0, 86, 76
6, 54120, Note_on_c, 0, 79, 76
6, 54224, Note_on_c, 0, 79, 0
6, 54239, Note_on_c, 0, 86, 0
6, 54240, Note_on_c, 0, 89, 76
6, 54240, Note_on_c, 0, 79, 76
6, 54329, Note_on_c, 0, 79, 0
6, 54359, Note_on_c, 0, 89, 0
6, 54360, Note_on_c, 0, 87, 76
6, 54360, Note_on_c, 0, 79, 76
6, 54479, Note_on_c, 0, 87, 0
6, 54479, Note_on_c, 0, 79, 0
6, 54480, Note_on_c, 0, 86, 76
6, 54480, Note_on_c, 0, 77, 76
6, 54599, Note_on_c, 0, 86, 0
6, 54599, Note_on_c, 0, 77, 0
6, 54600, Note_on_c, 0, 84, 76
6, 54600, Note_on_c, 0, 75, 76
6, 54704, Note_on_c, 0, 84, 0
6, 54704, Note_on_c, 0, 75, 0
6, 54720, Note_on_c, 0, 82, 76
6, 54720, Note_on_c, 0, 74, 76
6, 54959, Note_on_c, 0, 82, 0
6, 54959, Note_on_c, 0, 74, 0
6, 56160, Note_on_c, 0, 89, 76
6, 57704, Note_on_c, 0, 89, 0
6, 57720, Note_on_c, 0, 88, 84
6, 57809, Note_on_c, 0, 88, 0
6, 57840, Note_on_c, 0, 87, 84
6, 57929, Note_on_c, 0, 87, 0
6, 57960, Note_on_c, 0, 86, 84
6, 58049, Note_on_c, 0, 86, 0
6, 58080, Note_on_c, 0, 84, 84
6, 58169, Note_on_c, 0, 84, 0
6, 58200, Note_on_c, 0, 82, 84
6, 58289, Note_on_c, 0, 82, 0
6, 58320, Note_on_c, 0, 81, 84
6, 58409, Note_on_c, 0, 81, 0
6, 58440, Note_on_c, 0, 79, 84
6, 58440, Note_on_c, 0, 91, 84
6, 58529, Note_on_c, 0, 79, 0
6, 58529, Note_on_c, 0, 91, 0
6, 58560, Note_on_c, 0, 89, 84
6, 58560, Note_on_c, 0, 77, 84
6, 58649, Note_on_c, 0, 89, 0
6, 58649, Note_on_c, 0, 77, 0
6, 58680, Note_on_c, 0, 75, 84
6, 58680, Note_on_c, 0, 87, 84
6, 58769, Note_on_c, 0, 75, 0
6, 58769, Note_on_c, 0, 87, 0
6, 58800, Note_on_c, 0, 74, 84
6, 58800, Note_on_c, 0, 86, 84
6, 58889, Note_on_c, 0, 74, 0
6, 58889, Note_on_c, 0, 86, 0
6, 58920, Note_on_c, 0, 84, 84
6, 58920, Note_on_c, 0, 72, 84
6, 59009, Note_on_c, 0, 84, 0
6, 59009, Note_on_c, 0, 72, 0
6, 59040, Note_on_c, 0, 70, 84
6, 59040, Note_on_c, 0, 82, 84
6, 59279, Note_on_c, 0, 70, 0
6, 59279, Note_on_c, 0, 82, 0
6, 60720, Note_on_c, 0, 86, 52
6, 60929, Note_on_c, 0, 86, 0
6, 60960, Note_on_c, 0, 86, 76
6, 61169, Note_on_c, 0, 86, 0
6, 61200, Note_on_c, 0, 86, 68
6, 61200, Control_c, 0, 11, 127
6, 61260, Control_c, 0, 11, 124
6, 61320, Control_c, 0, 11, 122
6, 61380, Control_c, 0, 11, 119
6, 61440, Control_c, 0, 11, 117
6, 61500, Control_c, 0, 11, 114
6, 61560, Control_c, 0, 11, 112
6, 61620, Control_c, 0, 11, 109
6, 61679, Note_on_c, 0, 86, 0
6, 61680, Note_on_c, 0, 84, 68
6, 61680, Control_c, 0, 11, 106
6, 61740, Control_c, 0, 11, 104
6, 61800, Control_c, 0, 11, 101
6, 61860, Control_c, 0, 11, 99
6, 61919, Note_on_c, 0, 84, 0
6, 64320, Control_c, 0, 11, 127
6, 64560, Note_on_c, 0, 89, 76
6, 64860, Control_c, 0, 11, 124
6, 64920, Control_c, 0, 11, 122
6, 64980, Control_c, 0, 11, 119
6, 65039, Note_on_c, 0, 89, 0
6, 65040, Note_on_c, 0, 87, 68
6, 65040, Control_c, 0, 11, 117
6, 65100, Control_c, 0, 11, 114
6, 65159, Note_on_c, 0, 87, 0
6, 65160, Note_on_c, 0, 85, 68
6, 65160, Control_c, 0, 11, 112
6, 65220, Control_c, 0, 11, 109
6, 65279, Note_on_c, 0, 85, 0
6, 65280, Control_c, 0, 11, 106
6, 65280, Note_on_c, 0, 84, 68
6, 65340, Control_c, 0, 11, 104
6, 65399, Note_on_c, 0, 84, 0
6, 65400, Note_on_c, 0, 82, 68
6, 65400, Control_c, 0, 11, 101
6, 65460, Control_c, 0, 11, 96
6, 65519, Note_on_c, 0, 82, 0
6, 70080, Note_on_c, 0, 84, 68
6, 70080, Control_c, 0, 11, 96
6, 70080, Note_on_c, 0, 82, 68
6, 70120, Control_c, 0, 11, 101
6, 70160, Control_c, 0, 11, 106
6, 70200, Control_c, 0, 11, 112
6, 70240, Control_c, 0, 11, 117
6, 70280, Control_c, 0, 11, 127
6, 70289, Note_on_c, 0, 84, 0
6, 70289, Note_on_c, 0, 82, 0
6, 70320, Control_c, 0, 11, 127
6, 70320, Note_on_c, 0, 82, 68
6, 70320, Note_on_c, 0, 84, 68
6, 70360, Control_c, 0, 11, 122
6, 70400, Control_c, 0, 11, 117
6, 70440, Control_c, 0, 11, 112
6, 70480, Control_c, 0, 11, 106
6, 70520, Control_c, 0, 11, 96
6, 70529, Note_on_c, 0, 82, 0
6, 70529, Note_on_c, 0, 84, 0
6, 70560, Note_on_c, 0, 84, 68
6, 70560, Note_on_c, 0, 81, 68
6, 70799, Note_on_c, 0, 84, 0
6, 70799, Note_on_c, 0, 81, 0
6, 76560, Control_c, 0, 11, 127
6, 76800, Note_on_c, 0, 75, 52
6, 76800, Note_on_c, 0, 72, 52
6, 76889, Note_on_c, 0, 75, 0
6, 76889, Note_on_c, 0, 72, 0
6, 76920, Note_on_c, 0, 74, 55
6, 76920, Note_on_c, 0, 77, 55
6, 77009, Note_on_c, 0, 74, 0
6, 77009, Note_on_c, 0, 77, 0
6, 77040, Note_on_c, 0, 79, 58
6, 77040, Note_on_c, 0, 75, 58
6, 77129, Note_on_c, 0, 79, 0
6, 77129, Note_on_c, 0, 75, 0
6, 77160, Note_on_c, 0, 81, 61
6, 77160, Note_on_c, 0, 77, 61
6, 77249, Note_on_c, 0, 81, 0
6, 77249, Note_on_c, 0, 77, 0
6, 77280, Note_on_c, 0, 79, 64
6, 77280, Note_on_c, 0, 82, 64
6, 77369, Note_on_c, 0, 79, 0
6, 77369, Note_on_c, 0, 82, 0
6, 77400, Note_on_c, 0, 81, 67
6, 77400, Note_on_c, 0, 84, 67
6, 77489, Note_on_c, 0, 81, 0
6, 77489, Note_on_c, 0, 84, 0
6, 77520, Note_on_c, 0, 86, 70
6, 77520, Note_on_c, 0, 82, 70
6, 77609, Note_on_c, 0, 86, 0
6, 77609, Note_on_c, 0, 82, 0
6, 77640, Note_on_c, 0, 87, 73
6, 77640, Note_on_c, 0, 84, 73
6, 77729, Note_on_c, 0, 87, 0
6, 77729, Note_on_c, 0, 84, 0
6, 77760, Note_on_c, 0, 86, 76
6, 77760, Note_on_c, 0, 89, 76
6, 77984, Note_on_c, 0, 86, 0
6, 77984, Note_on_c, 0, 89, 0
6, 78000, Note_on_c, 0, 86, 84
6, 78000, Note_on_c, 0, 89, 84
6, 78479, Note_on_c, 0, 86, 0
6, 78479, Note_on_c, 0, 89, 0
6, 78720, Note_on_c, 0, 89, 84
6, 78720, Note_on_c, 0, 86, 84
6, 79199, Note_on_c, 0, 89, 0
6, 79199, Note_on_c, 0, 86, 0
6, 79440, Note_on_c, 0, 89, 84
6, 79440, Note_on_c, 0, 87, 84
6, 79919, Note_on_c, 0, 89, 0
6, 79919, Note_on_c, 0, 87, 0
6, 80160, Note_on_c, 0, 89, 84
6, 80160, Note_on_c, 0, 81, 84
6, 80384, Note_on_c, 0, 89, 0
6, 80384, Note_on_c, 0, 81, 0
6, 80400, Note_on_c, 0, 84, 76
6, 80400, Note_on_c, 0, 89, 76
6, 80624, Note_on_c, 0, 84, 0
6, 80624, Note_on_c, 0, 89, 0
6, 80640, Note_on_c, 0, 86, 84
6, 80640, Note_on_c, 0, 89, 84
6, 80819, Note_on_c, 0, 86, 0
6, 80819, Note_on_c, 0, 89, 0
6, 80880, Note_on_c, 0, 89, 92
6, 81224, Note_on_c, 0, 89, 0
6, 81240, Note_on_c, 0, 86, 84
6, 81344, Note_on_c, 0, 86, 0
6, 81360, Note_on_c, 0, 82, 84
6, 81539, Note_on_c, 0, 82, 0
6, 81600, Note_on_c, 0, 86, 92
6, 81944, Note_on_c, 0, 86, 0
6, 81960, Note_on_c, 0, 77, 84
6, 82064, Note_on_c, 0, 77, 0
6, 82080, Note_on_c, 0, 84, 84
6, 82259, Note_on_c, 0, 84, 0
6, 82320, Note_on_c, 0, 87, 92
6, 82664, Note_on_c, 0, 87, 0
6, 82680, Note_on_c, 0, 77, 84
6, 82784, Note_on_c, 0, 77, 0
6, 82800, Note_on_c, 0, 81, 84
6, 83024, Note_on_c, 0, 81, 0
6, 83040, Note_on_c, 0, 84, 92
6, 83384, Note_on_c, 0, 84, 0
6, 83400, Note_on_c, 0, 77, 84
6, 83504, Note_on_c, 0, 77, 0
6, 83520, Note_on_c, 0, 89, 84
6, 83520, Note_on_c, 0, 82, 84
6, 84119, Note_on_c, 0, 89, 0
6, 84120, Note_on_c, 0, 88, 84
6, 84239, Note_on_c, 0, 88, 0
6, 84240, Note_on_c, 0, 89, 84
6, 84359, Note_on_c, 0, 82, 0
6, 84359, Note_on_c, 0, 89, 0
6, 87240, Note_on_c, 0, 81, 84
6, 87240, Note_on_c, 0, 86, 84
6, 87329, Note_on_c, 0, 81, 0
6, 87329, Note_on_c, 0, 86, 0
6, 87360, Note_on_c, 0, 82, 84
6, 87360, Note_on_c, 0, 86, 84
6, 87449, Note_on_c, 0, 82, 0
6, 87449, Note_on_c, 0, 86, 0
6, 87480, Note_on_c, 0, 91, 84
6, 87480, Note_on_c, 0, 83, 84
6, 87569, Note_on_c, 0, 91, 0
6, 87569, Note_on_c, 0, 83, 0
6, 87600, Note_on_c, 0, 91, 84
6, 87600, Note_on_c, 0, 84, 84
6, 87689, Note_on_c, 0, 91, 0
6, 87689, Note_on_c, 0, 84, 0
6, 87720, Note_on_c, 0, 91, 84
6, 87720, Note_on_c, 0, 85, 84
6, 87809, Note_on_c, 0, 91, 0
6, 87809, Note_on_c, 0, 85, 0
6, 87840, Note_on_c, 0, 86, 84
6, 87840, Note_on_c, 0, 90, 84
6, 88019, Note_on_c, 0, 86, 0
6, 88019, Note_on_c, 0, 90, 0
6, 88080, Note_on_c, 0, 86, 84
6, 88080, Note_on_c, 0, 84, 84
6, 88259, Note_on_c, 0, 86, 0
6, 88259, Note_on_c, 0, 84, 0
6, 88320, Note_on_c, 0, 86, 84
6, 88320, Note_on_c, 0, 82, 84
6, 88499, Note_on_c, 0, 86, 0
6, 88499, Note_on_c, 0, 82, 0
6, 88800, Note_on_c, 0, 83, 84
6, 88800, Note_on_c, 0, 80, 84
6, 88979, Note_on_c, 0, 83, 0
6, 88979, Note_on_c, 0, 80, 0
6, 89040, Note_on_c, 0, 84, 84
6, 89040, Note_on_c, 0, 79, 84
6, 89219, Note_on_c, 0, 84, 0
6, 89219, Note_on_c, 0, 79, 0
6, 89520, Note_on_c, 0, 82, 84
6, 89520, Note_on_c, 0, 84, 84
6, 89699, Note_on_c, 0, 82, 0
6, 89699, Note_on_c, 0, 84, 0
6, 89760, Note_on_c, 0, 81, 84
6, 89760, Note_on_c, 0, 84, 84
6, 89939, Note_on_c, 0, 81, 0
6, 89939, Note_on_c, 0, 84, 0
6, 90240, Note_on_c, 0, 86, 84
6, 90240, Note_on_c, 0, 84, 84
6, 90419, Note_on_c, 0, 86, 0
6, 90419, Note_on_c, 0, 84, 0
6, 90480, Note_on_c, 0, 86, 84
6, 90480, Note_on_c, 0, 82, 84
6, 90659, Note_on_c, 0, 86, 0
6, 90659, Note_on_c, 0, 82, 0
6, 90960, Note_on_c, 0, 80, 84
6, 90960, Note_on_c, 0, 83, 84
6, 91139, Note_on_c, 0, 80, 0
6, 91139, Note_on_c, 0, 83, 0
6, 91200, Note_on_c, 0, 79, 84
6, 91200, Note_on_c, 0, 84, 84
6, 91379, Note_on_c, 0, 79, 0
6, 91379, Note_on_c, 0, 84, 0
6, 91680, Note_on_c, 0, 82, 92
6, 91680, Note_on_c, 0, 84, 92
6, 91859, Note_on_c, 0, 82, 0
6, 91859, Note_on_c, 0, 84, 0
6, 92160, Note_on_c, 0, 82, 92
6, 92160, Note_on_c, 0, 84, 92
6, 92339, Note_on_c, 0, 82, 0
6, 92339, Note_on_c, 0, 84, 0
6, 92640, Note_on_c, 0, 82, 92
6, 92640, Note_on_c, 0, 84, 92
6, 92819, Note_on_c, 0, 82, 0
6, 92819, Note_on_c, 0, 84, 0
6, 93120, Note_on_c, 0, 82, 92
6, 93120, Note_on_c, 0, 84, 92
6, 93299, Note_on_c, 0, 82, 0
6, 93299, Note_on_c, 0, 84, 0
6, 93600, Note_on_c, 0, 84, 92
6, 93600, Note_on_c, 0, 82, 92
6, 93779, Note_on_c, 0, 84, 0
6, 93779, Note_on_c, 0, 82, 0
6, 94080, Note_on_c, 0, 82, 92
6, 94080, Note_on_c, 0, 84, 92
6, 94259, Note_on_c, 0, 82, 0
6, 94259, Note_on_c, 0, 84, 0
6, 95040, Note_on_c, 0, 82, 68
6, 95160, Control_c, 0, 11, 96
6, 95279, Note_on_c, 0, 82, 0
6, 95280, Note_on_c, 0, 85, 68
6, 95519, Note_on_c, 0, 85, 0
6, 95520, Note_on_c, 0, 88, 68
6, 95744, Note_on_c, 0, 88, 0
6, 95760, Note_on_c, 0, 89, 68
6, 96449, Note_on_c, 0, 89, 0
6, 96465, Control_c, 0, 11, 127
6, 96480, Note_on_c, 0, 82, 68
6, 96600, Control_c, 0, 11, 96
6, 96719, Note_on_c, 0, 82, 0
6, 96720, Note_on_c, 0, 85, 68
6, 96959, Note_on_c, 0, 85, 0
6, 96960, Note_on_c, 0, 88, 68
6, 97439, Note_on_c, 0, 88, 0
6, 97440, Note_on_c, 0, 87, 68
6, 97679, Note_on_c, 0, 87, 0
6, 97680, Note_on_c, 0, 85, 68
6, 98159, Note_on_c, 0, 85, 0
6, 98160, Note_on_c, 0, 83, 68
6, 98399, Note_on_c, 0, 83, 0
6, 98400, Note_on_c, 0, 84, 68
6, 98864, Note_on_c, 0, 84, 0
6, 98880, Note_on_c, 0, 77, 68
6, 99119, Note_on_c, 0, 77, 0
6, 99120, Note_on_c, 0, 87, 68
6, 99599, Note_on_c, 0, 87, 0
6, 99600, Note_on_c, 0, 85, 68
6, 99839, Note_on_c, 0, 85, 0
6, 99840, Note_on_c, 0, 86, 68
6, 100169, Note_on_c, 0, 86, 0
6, 100185, Control_c, 0, 11, 64
6, 100200, Note_on_c, 0, 78, 84
6, 100200, Control_c, 0, 11, 64
6, 100285, Control_c, 0, 11, 67
6, 100319, Note_on_c, 0, 78, 0
6, 100320, Note_on_c, 0, 79, 84
6, 100370, Control_c, 0, 11, 69
6, 100439, Note_on_c, 0, 79, 0
6, 100440, Note_on_c, 0, 83, 84
6, 100455, Control_c, 0, 11, 72
6, 100540, Control_c, 0, 11, 75
6, 100559, Note_on_c, 0, 83, 0
6, 100560, Note_on_c, 0, 84, 84
6, 100625, Control_c, 0, 11, 77
6, 100679, Note_on_c, 0, 84, 0
6, 100680, Note_on_c, 0, 86, 84
6, 100710, Control_c, 0, 11, 80
6, 100795, Control_c, 0, 11, 82
6, 100799, Note_on_c, 0, 86, 0
6, 100800, Note_on_c, 0, 87, 84
6, 100880, Control_c, 0, 11, 85
6, 100919, Note_on_c, 0, 87, 0
6, 100920, Note_on_c, 0, 90, 84
6, 100965, Control_c, 0, 11, 88
6, 101039, Note_on_c, 0, 90, 0
6, 101040, Note_on_c, 0, 91, 84
6, 101050, Control_c, 0, 11, 90
6, 101135, Control_c, 0, 11, 93
6, 101159, Note_on_c, 0, 91, 0
6, 101160, Note_on_c, 0, 87, 84
6, 101220, Control_c, 0, 11, 96
6, 101279, Note_on_c, 0, 87, 0
6, 101280, Note_on_c, 0, 86, 84
6, 101305, Control_c, 0, 11, 98
6, 101390, Control_c, 0, 11, 101
6, 101399, Note_on_c, 0, 86, 0
6, 101400, Note_on_c, 0, 84, 84
6, 101475, Control_c, 0, 11, 103
6, 101504, Note_on_c, 0, 84, 0
6, 101520, Note_on_c, 0, 82, 84
6, 101560, Control_c, 0, 11, 106
6, 101624, Note_on_c, 0, 82, 0
6, 101640, Note_on_c, 0, 86, 84
6, 101645, Control_c, 0, 11, 109
6, 101730, Control_c, 0, 11, 111
6, 101744, Note_on_c, 0, 86, 0
6, 101760, Note_on_c, 0, 89, 84
6, 101815, Control_c, 0, 11, 114
6, 101864, Note_on_c, 0, 89, 0
6, 101880, Note_on_c, 0, 89, 84
6, 101900, Control_c, 0, 11, 117
6, 101984, Note_on_c, 0, 89, 0
6, 101985, Control_c, 0, 11, 119
6, 102000, Note_on_c, 0, 89, 84
6, 102070, Control_c, 0, 11, 122
6, 102104, Note_on_c, 0, 89, 0
6, 102120, Note_on_c, 0, 89, 84
6, 102155, Control_c, 0, 11, 127
6, 102224, Note_on_c, 0, 89, 0
6, 102240, Note_on_c, 0, 87, 84
6, 102240, Note_on_c, 0, 89, 84
6, 102704, Note_on_c, 0, 87, 0
6, 102720, Note_on_c, 0, 81, 84
6, 102944, Note_on_c, 0, 89, 0
6, 102944, Note_on_c, 0, 81, 0
6, 102960, Note_on_c, 0, 82, 76
6, 103139, Note_on_c, 0, 82, 0
6, 103680, Note_on_c, 0, 82, 76
6, 103859, Note_on_c, 0, 82, 0
6, 104400, Note_on_c, 0, 82, 76
6, 104579, Note_on_c, 0, 82, 0
6, 105120, Note_on_c, 0, 82, 76
6, 105120, Note_on_c, 0, 87, 76
6, 105299, Note_on_c, 0, 82, 0
6, 105299, Note_on_c, 0, 87, 0
6, 105360, Note_on_c, 0, 82, 76
6, 105360, Note_on_c, 0, 87, 76
6, 105539, Note_on_c, 0, 82, 0
6, 105539, Note_on_c, 0, 87, 0
6, 105600, Note_on_c, 0, 82, 76
6, 105600, Note_on_c, 0, 87, 76
6, 105779, Note_on_c, 0, 82, 0
6, 105779, Note_on_c, 0, 87, 0
6, 105840, Note_on_c, 0, 82, 76
6, 105840, Note_on_c, 0, 86, 76
6, 106079, Note_on_c, 0, 82, 0
6, 106079, Note_on_c, 0, 86, 0
6, 109920, Note_on_c, 0, 74, 68
6, 109920, Note_on_c, 0, 80, 68
6, 110040, Control_c, 0, 11, 96
6, 110159, Note_on_c, 0, 74, 0
6, 110159, Note_on_c, 0, 80, 0
6, 110160, Note_on_c, 0, 75, 68
6, 110160, Note_on_c, 0, 79, 68
6, 110399, Note_on_c, 0, 75, 0
6, 110399, Note_on_c, 0, 79, 0
6, 110880, Control_c, 0, 11, 127
6, 117600, Control_c, 0, 11, 96
6, 117840, Note_on_c, 0, 82, 68
6, 118080, Control_c, 0, 11, 96
6, 118140, Control_c, 0, 11, 99
6, 118200, Control_c, 0, 11, 101
6, 118260, Control_c, 0, 11, 104
6, 118319, Note_on_c, 0, 82, 0
6, 118320, Note_on_c, 0, 84, 68
6, 118320, Control_c, 0, 11, 106
6, 118380, Control_c, 0, 11, 109
6, 118440, Control_c, 0, 11, 112
6, 118500, Control_c, 0, 11, 114
6, 118559, Note_on_c, 0, 84, 0
6, 118560, Control_c, 0, 11, 117
6, 118560, Note_on_c, 0, 86, 68
6, 118620, Control_c, 0, 11, 119
6, 118680, Control_c, 0, 11, 122
6, 118740, Control_c, 0, 11, 124
6, 118784, Note_on_c, 0, 86, 0
6, 118785, Control_c, 0, 11, 96
6, 118800, Note_on_c, 0, 87, 68
6, 119279, Note_on_c, 0, 87, 0
6, 119280, Note_on_c, 0, 91, 68
6, 119519, Note_on_c, 0, 91, 0
6, 119520, Note_on_c, 0, 87, 68
6, 119999, Note_on_c, 0, 87, 0
6, 120000, Note_on_c, 0, 82, 68
6, 120239, Note_on_c, 0, 82, 0
6, 120240, Note_on_c, 0, 87, 68
6, 120479, Note_on_c, 0, 87, 0
6, 122640, Control_c, 0, 11, 80
6, 122880, Note_on_c, 0, 79, 76
6, 123119, Note_on_c, 0, 79, 0
6, 123120, Note_on_c, 0, 80, 76
6, 123359, Note_on_c, 0, 80, 0
6, 123360, Note_on_c, 0, 84, 76
6, 123599, Note_on_c, 0, 84, 0
6, 123600, Note_on_c, 0, 87, 76
6, 123600, Note_on_c, 0, 75, 76
6, 123824, Note_on_c, 0, 87, 0
6, 123824, Note_on_c, 0, 75, 0
6, 123840, Note_on_c, 0, 80, 76
6, 123840, Control_c, 0, 11, 80
6, 123900, Control_c, 0, 11, 84
6, 123960, Control_c, 0, 11, 88
6, 124020, Control_c, 0, 11, 92
6, 124080, Control_c, 0, 11, 96
6, 124080, Note_on_c, 0, 75, 76
6, 124140, Control_c, 0, 11, 100
6, 124200, Control_c, 0, 11, 104
6, 124260, Control_c, 0, 11, 107
6, 124319, Note_on_c, 0, 80, 0
6, 124319, Note_on_c, 0, 75, 0
6, 124320, Note_on_c, 0, 81, 76
6, 124320, Note_on_c, 0, 75, 76
6, 124320, Control_c, 0, 11, 111
6, 124380, Control_c, 0, 11, 115
6, 124440, Control_c, 0, 11, 119
6, 124500, Control_c, 0, 11, 123
6, 124545, Control_c, 0, 11, 127
6, 124559, Note_on_c, 0, 81, 0
6, 124559, Note_on_c, 0, 75, 0
6, 124560, Note_on_c, 0, 82, 76
6, 124560, Note_on_c, 0, 74, 76
6, 124680, Control_c, 0, 11, 80
6, 125759, Note_on_c, 0, 82, 0
6, 125759, Note_on_c, 0, 74, 0
6, 125760, Note_on_c, 0, 86, 76
6, 125760, Note_on_c, 0, 80, 76
6, 125999, Note_on_c, 0, 86, 0
6, 125999, Note_on_c, 0, 80, 0
6, 126000, Note_on_c, 0, 87, 76
6, 126000, Note_on_c, 0, 79, 76
6, 126179, Note_on_c, 0, 87, 0
6, 126179, Note_on_c, 0, 79, 0
6, 126225, Control_c, 0, 11, 127
6, 126240, Note_on_c, 0, 81, 76
6, 126240, Note_on_c, 0, 87, 76
6, 126704, Note_on_c, 0, 81, 0
6, 126704, Note_on_c, 0, 87, 0
6, 126720, Note_on_c, 0, 81, 76
6, 126720, Note_on_c, 0, 87, 76
6, 127169, Note_on_c, 0, 81, 0
6, 127169, Note_on_c, 0, 87, 0
6, 127200, Note_on_c, 0, 81, 76
6, 127200, Note_on_c, 0, 87, 76
6, 127409, Note_on_c, 0, 81, 0
6, 127409, Note_on_c, 0, 87, 0
6, 127440, Note_on_c, 0, 86, 76
6, 127440, Note_on_c, 0, 82, 76
6, 127560, Control_c, 0, 11, 80
6, 128624, Note_on_c, 0, 86, 0
6, 128624, Note_on_c, 0, 82, 0
6, 128625, Control_c, 0, 11, 127
6, 128640, Note_on_c, 0, 82, 76
6, 129119, Note_on_c, 0, 82, 0
6, 129120, Note_on_c, 0, 82, 76
6, 129120, Note_on_c, 0, 86, 76
6, 129599, Note_on_c, 0, 82, 0
6, 129599, Note_on_c, 0, 86, 0
6, 129600, Note_on_c, 0, 82, 76
6, 129600, Note_on_c, 0, 86, 76
6, 130079, Note_on_c, 0, 82, 0
6, 130079, Note_on_c, 0, 86, 0
6, 130080, Note_on_c, 0, 82, 76
6, 130080, Note_on_c, 0, 86, 76
6, 130559, Note_on_c, 0, 82, 0
6, 130559, Note_on_c, 0, 86, 0
6, 130560, Note_on_c, 0, 87, 76
6, 130560, Note_on_c, 0, 82, 76
6, 131039, Note_on_c, 0, 87, 0
6, 131039, Note_on_c, 0, 82, 0
6, 131040, Note_on_c, 0, 87, 76
6, 131040, Note_on_c, 0, 82, 76
6, 131519, Note_on_c, 0, 87, 0
6, 131519, Note_on_c, 0, 82, 0
6, 131520, Note_on_c, 0, 82, 76
6, 131520, Note_on_c, 0, 87, 76
6, 131999, Note_on_c, 0, 82, 0
6, 131999, Note_on_c, 0, 87, 0
6, 132000, Note_on_c, 0, 86, 52
6, 132000, Note_on_c, 0, 82, 52
6, 132179, Note_on_c, 0, 86, 0
6, 132179, Note_on_c, 0, 82, 0
6, 132240, Note_on_c, 0, 82, 76
6, 132240, Note_on_c, 0, 86, 76
6, 132689, Note_on_c, 0, 82, 0
6, 132689, Note_on_c, 0, 86, 0
6, 132720, Note_on_c, 0, 87, 52
6, 132720, Note_on_c, 0, 82, 52
6, 132899, Note_on_c, 0, 87, 0
6, 132899, Note_on_c, 0, 82, 0
6, 132960, Note_on_c, 0, 87, 76
6, 132960, Note_on_c, 0, 82, 76
6, 133199, Note_on_c, 0, 87, 0
6, 133200, Note_on_c, 0, 86, 52
6, 133409, Note_on_c, 0, 82, 0
6, 133409, Note_on_c, 0, 86, 0
6, 133440, Note_on_c, 0, 70, 52
6, 133529, Note_on_c, 0, 70, 0
6, 133560, Note_on_c, 0, 72, 55
6, 133649, Note_on_c, 0, 72, 0
6, 133680, Note_on_c, 0, 74, 58
6, 133769, Note_on_c, 0, 74, 0
6, 133800, Note_on_c, 0, 75, 61
6, 133889, Note_on_c, 0, 75, 0
6, 133920, Note_on_c, 0, 77, 64
6, 134009, Note_on_c, 0, 77, 0
6, 134040, Note_on_c, 0, 79, 68
6, 134129, Note_on_c, 0, 79, 0
6, 134160, Note_on_c, 0, 80, 71
6, 134249, Note_on_c, 0, 80, 0
6, 134280, Note_on_c, 0, 82, 74
6, 134369, Note_on_c, 0, 82, 0
6, 134400, Note_on_c, 0, 84, 77
6, 134489, Note_on_c, 0, 84, 0
6, 134520, Note_on_c, 0, 86, 80
6, 134609, Note_on_c, 0, 86, 0
6, 134640, Note_on_c, 0, 87, 84
6, 135119, Note_on_c, 0, 87, 0
6, 135120, Note_on_c, 0, 79, 84
6, 135120, Note_on_c, 0, 91, 84
6, 135359, Note_on_c, 0, 79, 0
6, 135359, Note_on_c, 0, 91, 0
6, 135360, Note_on_c, 0, 87, 84
6, 135360, Note_on_c, 0, 75, 84
6, 135839, Note_on_c, 0, 87, 0
6, 135839, Note_on_c, 0, 75, 0
6, 135840, Note_on_c, 0, 82, 84
6, 135840, Note_on_c, 0, 70, 84
6, 136064, Note_on_c, 0, 82, 0
6, 136064, Note_on_c, 0, 70, 0
6, 136080, Note_on_c, 0, 75, 84
6, 136080, Note_on_c, 0, 87, 84
6, 136304, Note_on_c, 0, 75, 0
6, 136304, Note_on_c, 0, 87, 0
6, 136320, Note_on_c, 0, 91, 84
6, 136320, Note_on_c, 0, 87, 84
6, 136544, Note_on_c, 0, 91, 0
6, 136544, Note_on_c, 0, 87, 0
6, 136560, Note_on_c, 0, 91, 84
6, 136560, Note_on_c, 0, 87, 84
6, 136784, Note_on_c, 0, 91, 0
6, 136784, Note_on_c, 0, 87, 0
6, 136800, Note_on_c, 0, 87, 84
6, 136800, Note_on_c, 0, 91, 84
6, 137744, Note_on_c, 0, 87, 0
6, 137744, Note_on_c, 0, 91, 0
6, 137760, Note_on_c, 0, 91, 84
6, 137760, Note_on_c, 0, 87, 84
6, 137984, Note_on_c, 0, 91, 0
6, 137984, Note_on_c, 0, 87, 0
6, 138000, Note_on_c, 0, 91, 84
6, 138000, Note_on_c, 0, 87, 84
6, 138224, Note_on_c, 0, 91, 0
6, 138224, Note_on_c, 0, 87, 0
6, 138240, Note_on_c, 0, 91, 84
6, 138240, Note_on_c, 0, 87, 84
6, 138704, Note_on_c, 0, 91, 0
6, 138704, Note_on_c, 0, 87, 0
6, 138720, Note_on_c, 0, 91, 92
6, 138720, Note_on_c, 0, 85, 92
6, 138944, Note_on_c, 0, 91, 0
6, 138944, Note_on_c, 0, 85, 0
6, 138960, Note_on_c, 0, 92, 84
6, 138960, Note_on_c, 0, 84, 84
6, 139199, Note_on_c, 0, 92, 0
6, 139200, Note_on_c, 0, 87, 84
6, 139424, Note_on_c, 0, 87, 0
6, 139440, Note_on_c, 0, 87, 84
6, 139664, Note_on_c, 0, 87, 0
6, 139680, Note_on_c, 0, 88, 84
6, 139799, Note_on_c, 0, 84, 0
6, 139800, Note_on_c, 0, 82, 84
6, 139919, Note_on_c, 0, 82, 0
6, 139920, Note_on_c, 0, 81, 84
6, 140039, Note_on_c, 0, 81, 0
6, 140040, Note_on_c, 0, 82, 84
6, 140159, Note_on_c, 0, 82, 0
6, 140160, Note_on_c, 0, 84, 84
6, 140279, Note_on_c, 0, 84, 0
6, 140280, Note_on_c, 0, 82, 84
6, 140399, Note_on_c, 0, 88, 0
6, 140399, Note_on_c, 0, 82, 0
6, 140400, Note_on_c, 0, 89, 84
6, 140400, Note_on_c, 0, 81, 84
6, 140639, Note_on_c, 0, 89, 0
6, 140639, Note_on_c, 0, 81, 0
6, 142080, Note_on_c, 0, 87, 48
6, 142439, Note_on_c, 0, 87, 0
6, 142440, Note_on_c, 0, 84, 48
6, 142559, Note_on_c, 0, 84, 0
6, 142560, Note_on_c, 0, 81, 48
6, 142799, Note_on_c, 0, 81, 0
6, 144960, Note_on_c, 0, 86, 48
6, 145319, Note_on_c, 0, 86, 0
6, 145320, Note_on_c, 0, 82, 48
6, 145439, Note_on_c, 0, 82, 0
6, 145440, Note_on_c, 0, 77, 48
6, 145679, Note_on_c, 0, 77, 0
6, 147840, Note_on_c, 0, 91, 84
6, 147840, Note_on_c, 0, 79, 84
6, 148184, Note_on_c, 0, 91, 0
6, 148184, Note_on_c, 0, 79, 0
6, 148200, Note_on_c, 0, 77, 84
6, 148200, Note_on_c, 0, 89, 84
6, 148304, Note_on_c, 0, 77, 0
6, 148304, Note_on_c, 0, 89, 0
6, 148320, Note_on_c, 0, 75, 84
6, 148320, Note_on_c, 0, 87, 84
6, 148499, Note_on_c, 0, 75, 0
6, 148499, Note_on_c, 0, 87, 0
6, 148560, Note_on_c, 0, 86, 84
6, 148560, Note_on_c, 0, 74, 84
6, 148739, Note_on_c, 0, 86, 0
6, 148739, Note_on_c, 0, 74, 0
6, 148800, Note_on_c, 0, 84, 84
6, 148800, Note_on_c, 0, 72, 84
6, 148979, Note_on_c, 0, 84, 0
6, 148979, Note_on_c, 0, 72, 0
6, 149040, Note_on_c, 0, 70, 52
6, 149040, Note_on_c, 0, 82, 52
6, 149279, Note_on_c, 0, 70, 0
6, 149279, Note_on_c, 0, 82, 0
6, 151680, Control_c, 0, 11, 80
6, 151920, Note_on_c, 0, 82, 76
6, 151920, Note_on_c, 0, 70, 76
6, 151920, Control_c, 0, 11, 80
6, 152040, Control_c, 0, 11, 82
6, 152160, Control_c, 0, 11, 84
6, 152280, Control_c, 0, 11, 86
6, 152400, Control_c, 0, 11, 88
6, 152520, Control_c, 0, 11, 90
6, 152640, Control_c, 0, 11, 92
6, 152760, Control_c, 0, 11, 94
6, 152880, Control_c, 0, 11, 96
6, 153000, Control_c, 0, 11, 98
6, 153120, Control_c, 0, 11, 100
6, 153240, Control_c, 0, 11, 102
6, 153360, Control_c, 0, 11, 104
6, 153464, Note_on_c, 0, 82, 0
6, 153464, Note_on_c, 0, 70, 0
6, 153480, Note_on_c, 0, 74, 76
6, 153480, Note_on_c, 0, 82, 76
6, 153480, Control_c, 0, 11, 105
6, 153569, Note_on_c, 0, 74, 0
6, 153569, Note_on_c, 0, 82, 0
6, 153600, Control_c, 0, 11, 107
6, 153600, Note_on_c, 0, 81, 76
6, 153600, Note_on_c, 0, 72, 76
6, 153689, Note_on_c, 0, 81, 0
6, 153689, Note_on_c, 0, 72, 0
6, 153720, Note_on_c, 0, 74, 76
6, 153720, Control_c, 0, 11, 109
6, 153720, Note_on_c, 0, 82, 76
6, 153809, Note_on_c, 0, 74, 0
6, 153809, Note_on_c, 0, 82, 0
6, 153840, Note_on_c, 0, 84, 76
6, 153840, Note_on_c, 0, 81, 76
6, 153840, Control_c, 0, 11, 111
6, 153929, Note_on_c, 0, 84, 0
6, 153929, Note_on_c, 0, 81, 0
6, 153960, Note_on_c, 0, 82, 76
6, 153960, Note_on_c, 0, 86, 76
6, 153960, Control_c, 0, 11, 113
6, 154049, Note_on_c, 0, 82, 0
6, 154049, Note_on_c, 0, 86, 0
6, 154080, Note_on_c, 0, 84, 76
6, 154080, Control_c, 0, 11, 115
6, 154080, Note_on_c, 0, 87, 76
6, 154199, Note_on_c, 0, 84, 0
6, 154199, Note_on_c, 0, 87, 0
6, 154200, Note_on_c, 0, 84, 76
6, 154200, Control_c, 0, 11, 117
6, 154200, Note_on_c, 0, 87, 76
6, 154319, Note_on_c, 0, 84, 0
6, 154319, Note_on_c, 0, 87, 0
6, 154320, Control_c, 0, 11, 119
6, 154320, Note_on_c, 0, 84, 76
6, 154320, Note_on_c, 0, 87, 76
6, 154439, Note_on_c, 0, 84, 0
6, 154439, Note_on_c, 0, 87, 0
6, 154440, Control_c, 0, 11, 121
6, 154440, Note_on_c, 0, 87, 76
6, 154440, Note_on_c, 0, 84, 76
6, 154559, Note_on_c, 0, 87, 0
6, 154559, Note_on_c, 0, 84, 0
6, 154560, Note_on_c, 0, 84, 76
6, 154560, Note_on_c, 0, 87, 76
6, 154560, Control_c, 0, 11, 123
6, 154679, Note_on_c, 0, 84, 0
6, 154679, Note_on_c, 0, 87, 0
6, 154680, Note_on_c, 0, 87, 76
6, 154680, Control_c, 0, 11, 127
6, 154680, Note_on_c, 0, 84, 76
6, 154799, Note_on_c, 0, 87, 0
6, 154799, Note_on_c, 0, 84, 0
6, 154800, Note_on_c, 0, 84, 76
6, 154800, Note_on_c, 0, 87, 76
6, 154979, Note_on_c, 0, 84, 0
6, 154979, Note_on_c, 0, 87, 0
6, 155040, Note_on_c, 0, 87, 76
6, 155040, Note_on_c, 0, 84, 76
6, 155219, Note_on_c, 0, 87, 0
6, 155219, Note_on_c, 0, 84, 0
6, 156120, Note_on_c, 0, 87, 76
6, 156120, Note_on_c, 0, 81, 76
6, 156209, Note_on_c, 0, 87, 0
6, 156209, Note_on_c, 0, 81, 0
6, 156240, Note_on_c, 0, 86, 76
6, 156240, Note_on_c, 0, 82, 76
6, 156419, Note_on_c, 0, 86, 0
6, 156419, Note_on_c, 0, 82, 0
6, 156480, Note_on_c, 0, 86, 76
6, 156480, Note_on_c, 0, 82, 76
6, 156659, Note_on_c, 0, 86, 0
6, 156659, Note_on_c, 0, 82, 0
6, 157560, Note_on_c, 0, 86, 76
6, 157560, Note_on_c, 0, 82, 76
6, 157649, Note_on_c, 0, 86, 0
6, 157649, Note_on_c, 0, 82, 0
6, 157680, Note_on_c, 0, 86, 76
6, 157680, Note_on_c, 0, 83, 76
6, 157859, Note_on_c, 0, 86, 0
6, 157859, Note_on_c, 0, 83, 0
6, 157920, Note_on_c, 0, 83, 76
6, 157920, Note_on_c, 0, 86, 76
6, 158099, Note_on_c, 0, 83, 0
6, 158099, Note_on_c, 0, 86, 0
6, 159000, Note_on_c, 0, 83, 76
6, 159000, Note_on_c, 0, 74, 76
6, 159089, Note_on_c, 0, 83, 0
6, 159089, Note_on_c, 0, 74, 0
6, 159120, Note_on_c, 0, 84, 76
6, 159120, Note_on_c, 0, 79, 76
6, 159209, Note_on_c, 0, 84, 0
6, 159209, Note_on_c, 0, 79, 0
6, 159240, Note_on_c, 0, 84, 76
6, 159240, Note_on_c, 0, 79, 76
6, 159464, Note_on_c, 0, 84, 0
6, 159464, Note_on_c, 0, 79, 0
6, 159480, Note_on_c, 0, 79, 76
6, 159480, Note_on_c, 0, 84, 76
6, 159569, Note_on_c, 0, 79, 0
6, 159569, Note_on_c, 0, 84, 0
6, 159600, Note_on_c, 0, 81, 76
6, 159600, Note_on_c, 0, 84, 76
6, 159689, Note_on_c, 0, 81, 0
6, 159689, Note_on_c, 0, 84, 0
6, 159720, Note_on_c, 0, 81, 76
6, 159720, Note_on_c, 0, 86, 76
6, 159809, Note_on_c, 0, 81, 0
6, 159809, Note_on_c, 0, 86, 0
6, 159840, Note_on_c, 0, 86, 76
6, 159840, Note_on_c, 0, 82, 76
6, 159929, Note_on_c, 0, 86, 0
6, 159929, Note_on_c, 0, 82, 0
6, 159960, Note_on_c, 0, 87, 76
6, 159960, Note_on_c, 0, 82, 76
6, 160184, Note_on_c, 0, 87, 0
6, 160184, Note_on_c, 0, 82, 0
6, 160200, Note_on_c, 0, 82, 76
6, 160200, Note_on_c, 0, 87, 76
6, 160289, Note_on_c, 0, 82, 0
6, 160289, Note_on_c, 0, 87, 0
6, 160320, Note_on_c, 0, 84, 76
6, 160320, Note_on_c, 0, 87, 76
6, 160409, Note_on_c, 0, 84, 0
6, 160409, Note_on_c, 0, 87, 0
6, 160440, Note_on_c, 0, 89, 76
6, 160440, Note_on_c, 0, 84, 76
6, 160529, Note_on_c, 0, 89, 0
6, 160529, Note_on_c, 0, 84, 0
6, 160560, Note_on_c, 0, 86, 76
6, 160560, Note_on_c, 0, 82, 76
6, 160784, Note_on_c, 0, 86, 0
6, 160784, Note_on_c, 0, 82, 0
6, 160800, Note_on_c, 0, 82, 76
6, 160800, Note_on_c, 0, 86, 76
6, 161039, Note_on_c, 0, 82, 0
6, 161039, Note_on_c, 0, 86, 0
6, 161040, Note_on_c, 0, 82, 76
6, 161040, Note_on_c, 0, 87, 76
6, 161279, Note_on_c, 0, 82, 0
6, 161279, Note_on_c, 0, 87, 0
6, 161280, Note_on_c, 0, 88, 76
6, 161280, Note_on_c, 0, 82, 76
6, 161519, Note_on_c, 0, 88, 0
6, 161519, Note_on_c, 0, 82, 0
6, 161520, Note_on_c, 0, 89, 76
6, 161520, Note_on_c, 0, 82, 76
6, 161744, Note_on_c, 0, 89, 0
6, 161744, Note_on_c, 0, 82, 0
6, 161760, Note_on_c, 0, 90, 76
6, 161760, Note_on_c, 0, 82, 76
6, 161999, Note_on_c, 0, 90, 0
6, 162000, Note_on_c, 0, 91, 76
6, 162119, Note_on_c, 0, 91, 0
6, 162120, Note_on_c, 0, 90, 76
6, 162239, Note_on_c, 0, 90, 0
6, 162240, Note_on_c, 0, 91, 76
6, 162359, Note_on_c, 0, 91, 0
6, 162360, Note_on_c, 0, 90, 76
6, 162479, Note_on_c, 0, 82, 0
6, 162479, Note_on_c, 0, 90, 0
6, 162480, Note_on_c, 0, 83, 76
6, 162480, Note_on_c, 0, 91, 76
6, 162584, Note_on_c, 0, 91, 0
6, 162600, Note_on_c, 0, 86, 76
6, 162704, Note_on_c, 0, 83, 0
6, 162704, Note_on_c, 0, 86, 0
6, 162720, Note_on_c, 0, 84, 76
6, 162720, Note_on_c, 0, 87, 76
6, 162839, Note_on_c, 0, 84, 0
6, 162839, Note_on_c, 0, 87, 0
6, 162840, Note_on_c, 0, 79, 76
6, 162840, Note_on_c, 0, 86, 76
6, 162944, Note_on_c, 0, 79, 0
6, 162959, Note_on_c, 0, 86, 0
6, 162960, Note_on_c, 0, 79, 76
6, 162960, Note_on_c, 0, 89, 76
6, 163049, Note_on_c, 0, 79, 0
6, 163079, Note_on_c, 0, 89, 0
6, 163080, Note_on_c, 0, 87, 76
6, 163080, Note_on_c, 0, 79, 76
6, 163199, Note_on_c, 0, 87, 0
6, 163199, Note_on_c, 0, 79, 0
6, 163200, Note_on_c, 0, 77, 76
6, 163200, Note_on_c, 0, 86, 76
6, 163319, Note_on_c, 0, 77, 0
6, 163319, Note_on_c, 0, 86, 0
6, 163320, Note_on_c, 0, 75, 76
6, 163320, Note_on_c, 0, 84, 76
6, 163424, Note_on_c, 0, 75, 0
6, 163424, Note_on_c, 0, 84, 0
6, 163440, Note_on_c, 0, 82, 76
6, 163440, Note_on_c, 0, 74, 76
6, 163679, Note_on_c, 0, 82, 0
6, 163679, Note_on_c, 0, 74, 0
6, 164880, Note_on_c, 0, 89, 76
6, 166424, Note_on_c, 0, 89, 0
6, 166440, Note_on_c, 0, 88, 84
6, 166529, Note_on_c, 0, 88, 0
6, 166560, Note_on_c, 0, 87, 84
6, 166649, Note_on_c, 0, 87, 0
6, 166680, Note_on_c, 0, 86, 84
6, 166769, Note_on_c, 0, 86, 0
6, 166800, Note_on_c, 0, 84, 84
6, 166889, Note_on_c, 0, 84, 0
6, 166920, Note_on_c, 0, 82, 84
6, 167009, Note_on_c, 0, 82, 0
6, 167040, Note_on_c, 0, 81, 84
6, 167129, Note_on_c, 0, 81, 0
6, 167160, Note_on_c, 0, 79, 84
6, 167160, Note_on_c, 0, 91, 84
6, 167249, Note_on_c, 0, 79, 0
6, 167249, Note_on_c, 0, 91, 0
6, 167280, Note_on_c, 0, 89, 84
6, 167280, Note_on_c, 0, 77, 84
6, 167369, Note_on_c, 0, 89, 0
6, 167369, Note_on_c, 0, 77, 0
6, 167400, Note_on_c, 0, 87, 84
6, 167400, Note_on_c, 0, 75, 84
6, 167489, Note_on_c, 0, 87, 0
6, 167489, Note_on_c, 0, 75, 0
6, 167520, Note_on_c, 0, 86, 84
6, 167520, Note_on_c, 0, 74, 84
6, 167609, Note_on_c, 0, 86, 0
6, 167609, Note_on_c, 0, 74, 0
6, 167640, Note_on_c, 0, 72, 84
6, 167640, Note_on_c, 0, 84, 84
6, 167729, Note_on_c, 0, 72, 0
6, 167729, Note_on_c, 0, 84, 0
6, 167760, Note_on_c, 0, 70, 84
6, 167760, Note_on_c, 0, 82, 84
6, 167999, Note_on_c, 0, 70, 0
6, 167999, Note_on_c, 0, 82, 0
6, 169440, Note_on_c, 0, 86, 52
6, 169649, Note_on_c, 0, 86, 0
6, 169680, Note_on_c, 0, 86, 76
6, 169889, Note_on_c, 0, 86, 0
6, 169920, Note_on_c, 0, 86, 68
6, 169920, Control_c, 0, 11, 127
6, 169980, Control_c, 0, 11, 124
6, 170040, Control_c, 0, 11, 122
6, 170100, Control_c, 0, 11, 119
6, 170160, Control_c, 0, 11, 117
6, 170220, Control_c, 0, 11, 114
6, 170280, Control_c, 0, 11, 112
6, 170340, Control_c, 0, 11, 109
6, 170399, Note_on_c, 0, 86, 0
6, 170400, Control_c, 0, 11, 106
6, 170400, Note_on_c, 0, 84, 68
6, 170460, Control_c, 0, 11, 104
6, 170520, Control_c, 0, 11, 101
6, 170580, Control_c, 0, 11, 99
6, 170639, Note_on_c, 0, 84, 0
6, 173040, Control_c, 0, 11, 127
6, 173280, Note_on_c, 0, 89, 76
6, 173580, Control_c, 0, 11, 124
6, 173640, Control_c, 0, 11, 122
6, 173700, Control_c, 0, 11, 119
6, 173759, Note_on_c, 0, 89, 0
6, 173760, Note_on_c, 0, 87, 68
6, 173760, Control_c, 0, 11, 117
6, 173820, Control_c, 0, 11, 114
6, 173879, Note_on_c, 0, 87, 0
6, 173880, Control_c, 0, 11, 112
6, 173880, Note_on_c, 0, 85, 68
6, 173940, Control_c, 0, 11, 109
6, 173999, Note_on_c, 0, 85, 0
6, 174000, Note_on_c, 0, 84, 68
6, 174000, Control_c, 0, 11, 106
6, 174060, Control_c, 0, 11, 104
6, 174119, Note_on_c, 0, 84, 0
6, 174120, Control_c, 0, 11, 101
6, 174120, Note_on_c, 0, 82, 68
6, 174180, Control_c, 0, 11, 96
6, 174239, Note_on_c, 0, 82, 0
6, 178800, Note_on_c, 0, 84, 68
6, 178800, Control_c, 0, 11, 96
6, 178800, Note_on_c, 0, 82, 68
6, 178840, Control_c, 0, 11, 101
6, 178880, Control_c, 0, 11, 106
6, 178920, Control_c, 0, 11, 112
6, 178960, Control_c, 0, 11, 117
6, 179000, Control_c, 0, 11, 127
6, 179009, Note_on_c, 0, 84, 0
6, 179009, Note_on_c, 0, 82, 0
6, 179040, Note_on_c, 0, 84, 68
6, 179040, Note_on_c, 0, 82, 68
6, 179040, Control_c, 0, 11, 127
6, 179080, Control_c, 0, 11, 122
6, 179120, Control_c, 0, 11, 117
6, 179160, Control_c, 0, 11, 112
6, 179200, Control_c, 0, 11, 106
6, 179240, Control_c, 0, 11, 96
6, 179249, Note_on_c, 0, 84, 0
6, 179249, Note_on_c, 0, 82, 0
6, 179280, Note_on_c, 0, 84, 68
6, 179280, Note_on_c, 0, 81, 68
6, 179519, Note_on_c, 0, 84, 0
6, 179519, Note_on_c, 0, 81, 0
6, 185280, Control_c, 0, 11, 127
6, 185520, Note_on_c, 0, 72, 52
6, 185520, Note_on_c, 0, 75, 52
6, 185609, Note_on_c, 0, 72, 0
6, 185609, Note_on_c, 0, 75, 0
6, 185640, Note_on_c, 0, 74, 55
6, 185640, Note_on_c, 0, 77, 55
6, 185729, Note_on_c, 0, 74, 0
6, 185729, Note_on_c, 0, 77, 0
6, 185760, Note_on_c, 0, 75, 58
6, 185760, Note_on_c, 0, 79, 58
6, 185849, Note_on_c, 0, 75, 0
6, 185849, Note_on_c, 0, 79, 0
6, 185880, Note_on_c, 0, 81, 61
6, 185880, Note_on_c, 0, 77, 61
6, 185969, Note_on_c, 0, 81, 0
6, 185969, Note_on_c, 0, 77, 0
6, 186000, Note_on_c, 0, 82, 64
6, 186000, Note_on_c, 0, 79, 64
6, 186089, Note_on_c, 0, 82, 0
6, 186089, Note_on_c, 0, 79, 0
6, 186120, Note_on_c, 0, 81, 67
6, 186120, Note_on_c, 0, 84, 67
6, 186209, Note_on_c, 0, 81, 0
6, 186209, Note_on_c, 0, 84, 0
6, 186240, Note_on_c, 0, 82, 70
6, 186240, Note_on_c, 0, 86, 70
6, 186329, Note_on_c, 0, 82, 0
6, 186329, Note_on_c, 0, 86, 0
6, 186360, Note_on_c, 0, 84, 73
6, 186360, Note_on_c, 0, 87, 73
6, 186449, Note_on_c, 0, 84, 0
6, 186449, Note_on_c, 0, 87, 0
6, 186480, Note_on_c, 0, 89, 76
6, 186480, Note_on_c, 0, 86, 76
6, 186704, Note_on_c, 0, 89, 0
6, 186704, Note_on_c, 0, 86, 0
6, 186720, Note_on_c, 0, 89, 84
6, 186720, Note_on_c, 0, 86, 84
6, 187199, Note_on_c, 0, 89, 0
6, 187199, Note_on_c, 0, 86, 0
6, 187440, Note_on_c, 0, 89, 84
6, 187440, Note_on_c, 0, 86, 84
6, 187919, Note_on_c, 0, 89, 0
6, 187919, Note_on_c, 0, 86, 0
6, 188160, Note_on_c, 0, 87, 84
6, 188160, Note_on_c, 0, 89, 84
6, 188639, Note_on_c, 0, 87, 0
6, 188639, Note_on_c, 0, 89, 0
6, 188880, Note_on_c, 0, 89, 84
6, 188880, Note_on_c, 0, 81, 84
6, 189104, Note_on_c, 0, 89, 0
6, 189104, Note_on_c, 0, 81, 0
6, 189120, Note_on_c, 0, 89, 76
6, 189120, Note_on_c, 0, 84, 76
6, 189344, Note_on_c, 0, 89, 0
6, 189344, Note_on_c, 0, 84, 0
6, 189360, Note_on_c, 0, 86, 84
6, 189360, Note_on_c, 0, 89, 84
6, 189539, Note_on_c, 0, 86, 0
6, 189539, Note_on_c, 0, 89, 0
6, 189600, Note_on_c, 0, 89, 92
6, 189944, Note_on_c, 0, 89, 0
6, 189960, Note_on_c, 0, 86, 84
6, 190064, Note_on_c, 0, 86, 0
6, 190080, Note_on_c, 0, 82, 84
6, 190259, Note_on_c, 0, 82, 0
6, 190320, Note_on_c, 0, 86, 92
6, 190664, Note_on_c, 0, 86, 0
6, 190680, Note_on_c, 0, 77, 84
6, 190784, Note_on_c, 0, 77, 0
6, 190800, Note_on_c, 0, 84, 84
6, 190979, Note_on_c, 0, 84, 0
6, 191040, Note_on_c, 0, 87, 92
6, 191384, Note_on_c, 0, 87, 0
6, 191400, Note_on_c, 0, 77, 84
6, 191504, Note_on_c, 0, 77, 0
6, 191520, Note_on_c, 0, 81, 84
6, 191744, Note_on_c, 0, 81, 0
6, 191760, Note_on_c, 0, 84, 92
6, 192104, Note_on_c, 0, 84, 0
6, 192120, Note_on_c, 0, 77, 84
6, 192224, Note_on_c, 0, 77, 0
6, 192240, Note_on_c, 0, 82, 84
6, 192240, Note_on_c, 0, 89, 84
6, 192839, Note_on_c, 0, 89, 0
6, 192840, Note_on_c, 0, 88, 84
6, 192959, Note_on_c, 0, 88, 0
6, 192960, Note_on_c, 0, 89, 84
6, 193079, Note_on_c, 0, 82, 0
6, 193079, Note_on_c, 0, 89, 0
6, 195960, Note_on_c, 0, 81, 84
6, 195960, Note_on_c, 0, 86, 84
6, 196049, Note_on_c, 0, 81, 0
6, 196049, Note_on_c, 0, 86, 0
6, 196080, Note_on_c, 0, 86, 84
6, 196080, Note_on_c, 0, 82, 84
6, 196169, Note_on_c, 0, 86, 0
6, 196169, Note_on_c, 0, 82, 0
6, 196200, Note_on_c, 0, 91, 84
6, 196200, Note_on_c, 0, 83, 84
6, 196289, Note_on_c, 0, 91, 0
6, 196289, Note_on_c, 0, 83, 0
6, 196320, Note_on_c, 0, 91, 84
6, 196320, Note_on_c, 0, 84, 84
6, 196409, Note_on_c, 0, 91, 0
6, 196409, Note_on_c, 0, 84, 0
6, 196440, Note_on_c, 0, 91, 84
6, 196440, Note_on_c, 0, 85, 84
6, 196529, Note_on_c, 0, 91, 0
6, 196529, Note_on_c, 0, 85, 0
6, 196560, Note_on_c, 0, 90, 84
6, 196560, Note_on_c, 0, 86, 84
6, 196739, Note_on_c, 0, 90, 0
6, 196739, Note_on_c, 0, 86, 0
6, 196800, Note_on_c, 0, 86, 84
6, 196800, Note_on_c, 0, 84, 84
6, 196979, Note_on_c, 0, 86, 0
6, 196979, Note_on_c, 0, 84, 0
6, 197040, Note_on_c, 0, 86, 84
6, 197040, Note_on_c, 0, 82, 84
6, 197219, Note_on_c, 0, 86, 0
6, 197219, Note_on_c, 0, 82, 0
6, 197520, Note_on_c, 0, 83, 84
6, 197520, Note_on_c, 0, 80, 84
6, 197699, Note_on_c, 0, 83, 0
6, 197699, Note_on_c, 0, 80, 0
6, 197760, Note_on_c, 0, 79, 84
6, 197760, Note_on_c, 0, 84, 84
6, 197939, Note_on_c, 0, 79, 0
6, 197939, Note_on_c, 0, 84, 0
6, 198240, Note_on_c, 0, 84, 84
6, 198240, Note_on_c, 0, 82, 84
6, 198419, Note_on_c, 0, 84, 0
6, 198419, Note_on_c, 0, 82, 0
6, 198480, Note_on_c, 0, 84, 84
6, 198480, Note_on_c, 0, 81, 84
6, 198659, Note_on_c, 0, 84, 0
6, 198659, Note_on_c, 0, 81, 0
6, 198960, Note_on_c, 0, 84, 84
6, 198960, Note_on_c, 0, 86, 84
6, 199139, Note_on_c, 0, 84, 0
6, 199139, Note_on_c, 0, 86, 0
6, 199200, Note_on_c, 0, 86, 84
6, 199200, Note_on_c, 0, 82, 84
6, 199379, Note_on_c, 0, 86, 0
6, 199379, Note_on_c, 0, 82, 0
6, 199680, Note_on_c, 0, 80, 84
6, 199680, Note_on_c, 0, 83, 84
6, 199859, Note_on_c, 0, 80, 0
6, 199859, Note_on_c, 0, 83, 0
6, 199920, Note_on_c, 0, 84, 84
6, 199920, Note_on_c, 0, 79, 84
6, 200099, Note_on_c, 0, 84, 0
6, 200099, Note_on_c, 0, 79, 0
6, 200400, Note_on_c, 0, 84, 92
6, 200400, Note_on_c, 0, 82, 92
6, 200579, Note_on_c, 0, 84, 0
6, 200579, Note_on_c, 0, 82, 0
6, 200880, Note_on_c, 0, 84, 92
6, 200880, Note_on_c, 0, 82, 92
6, 201059, Note_on_c, 0, 84, 0
6, 201059, Note_on_c, 0, 82, 0
6, 201360, Note_on_c, 0, 84, 92
6, 201360, Note_on_c, 0, 82, 92
6, 201539, Note_on_c, 0, 84, 0
6, 201539, Note_on_c, 0, 82, 0
6, 201840, Note_on_c, 0, 82, 92
6, 201840, Note_on_c, 0, 84, 92
6, 202019, Note_on_c, 0, 82, 0
6, 202019, Note_on_c, 0, 84, 0
6, 202320, Note_on_c, 0, 84, 92
6, 202320, Note_on_c, 0, 82, 92
6, 202499, Note_on_c, 0, 84, 0
6, 202499, Note_on_c, 0, 82, 0
6, 202800, Note_on_c, 0, 84, 92
6, 202800, Note_on_c, 0, 82, 92
6, 202979, Note_on_c, 0, 84, 0
6, 202979, Note_on_c, 0, 82, 0
6, 203760, Note_on_c, 0, 82, 68
6, 203880, Control_c, 0, 11, 96
6, 203999, Note_on_c, 0, 82, 0
6, 204000, Note_on_c, 0, 85, 68
6, 204239, Note_on_c, 0, 85, 0
6, 204240, Note_on_c, 0, 88, 68
6, 204464, Note_on_c, 0, 88, 0
6, 204480, Note_on_c, 0, 89, 68
6, 205169, Note_on_c, 0, 89, 0
6, 205185, Control_c, 0, 11, 127
6, 205200, Note_on_c, 0, 82, 68
6, 205320, Control_c, 0, 11, 96
6, 205439, Note_on_c, 0, 82, 0
6, 205440, Note_on_c, 0, 85, 68
6, 205679, Note_on_c, 0, 85, 0
6, 205680, Note_on_c, 0, 88, 68
6, 206159, Note_on_c, 0, 88, 0
6, 206160, Note_on_c, 0, 87, 68
6, 206399, Note_on_c, 0, 87, 0
6, 206400, Note_on_c, 0, 85, 68
6, 206879, Note_on_c, 0, 85, 0
6, 206880, Note_on_c, 0, 83, 68
6, 207119, Note_on_c, 0, 83, 0
6, 207120, Note_on_c, 0, 84, 68
6, 207584, Note_on_c, 0, 84, 0
6, 207600, Note_on_c, 0, 77, 68
6, 207839, Note_on_c, 0, 77, 0
6, 207840, Note_on_c, 0, 87, 68
6, 208319, Note_on_c, 0, 87, 0
6, 208320, Note_on_c, 0, 85, 68
6, 208559, Note_on_c, 0, 85, 0
6, 208560, Note_on_c, 0, 86, 68
6, 208889, Note_on_c, 0, 86, 0
6, 208905, Control_c, 0, 11, 64
6, 208920, Note_on_c, 0, 78, 84
6, 208920, Control_c, 0, 11, 64
6, 209005, Control_c, 0, 11, 67
6, 209039, Note_on_c, 0, 78, 0
6, 209040, Note_on_c, 0, 79, 84
6, 209090, Control_c, 0, 11, 69
6, 209159, Note_on_c, 0, 79, 0
6, 209160, Note_on_c, 0, 83, 84
6, 209175, Control_c, 0, 11, 72
6, 209260, Control_c, 0, 11, 75
6, 209279, Note_on_c, 0, 83, 0
6, 209280, Note_on_c, 0, 84, 84
6, 209345, Control_c, 0, 11, 77
6, 209399, Note_on_c, 0, 84, 0
6, 209400, Note_on_c, 0, 86, 84
6, 209430, Control_c, 0, 11, 80
6, 209515, Control_c, 0, 11, 82
6, 209519, Note_on_c, 0, 86, 0
6, 209520, Note_on_c, 0, 87, 84
6, 209600, Control_c, 0, 11, 85
6, 209639, Note_on_c, 0, 87, 0
6, 209640, Note_on_c, 0, 90, 84
6, 209685, Control_c, 0, 11, 88
6, 209759, Note_on_c, 0, 90, 0
6, 209760, Note_on_c, 0, 91, 84
6, 209770, Control_c, 0, 11, 90
6, 209855, Control_c, 0, 11, 93
6, 209879, Note_on_c, 0, 91, 0
6, 209880, Note_on_c, 0, 87, 84
6, 209940, Control_c, 0, 11, 96
6, 209999, Note_on_c, 0, 87, 0
6, 210000, Note_on_c, 0, 86, 84
6, 210025, Control_c, 0, 11, 98
6, 210110, Control_c, 0, 11, 101
6, 210119, Note_on_c, 0, 86, 0
6, 210120, Note_on_c, 0, 84, 84
6, 210195, Control_c, 0, 11, 103
6, 210224, Note_on_c, 0, 84, 0
6, 210240, Note_on_c, 0, 82, 84
6, 210280, Control_c, 0, 11, 106
6, 210344, Note_on_c, 0, 82, 0
6, 210360, Note_on_c, 0, 86, 84
6, 210365, Control_c, 0, 11, 109
6, 210450, Control_c, 0, 11, 111
6, 210464, Note_on_c, 0, 86, 0
6, 210480, Note_on_c, 0, 89, 84
6, 210535, Control_c, 0, 11, 114
6, 210584, Note_on_c, 0, 89, 0
6, 210600, Note_on_c, 0, 89, 84
6, 210620, Control_c, 0, 11, 117
6, 210704, Note_on_c, 0, 89, 0
6, 210705, Control_c, 0, 11, 119
6, 210720, Note_on_c, 0, 89, 84
6, 210790, Control_c, 0, 11, 122
6, 210824, Note_on_c, 0, 89, 0
6, 210840, Note_on_c, 0, 89, 84
6, 210875, Control_c, 0, 11, 127
6, 210944, Note_on_c, 0, 89, 0
6, 210960, Note_on_c, 0, 89, 84
6, 210960, Note_on_c, 0, 87, 84
6, 211424, Note_on_c, 0, 87, 0
6, 211440, Note_on_c, 0, 81, 84
6, 211664, Note_on_c, 0, 89, 0
6, 211664, Note_on_c, 0, 81, 0
6, 211680, Note_on_c, 0, 82, 76
6, 211859, Note_on_c, 0, 82, 0
6, 212400, Note_on_c, 0, 82, 76
6, 212579, Note_on_c, 0, 82, 0
6, 213120, Note_on_c, 0, 82, 76
6, 213299, Note_on_c, 0, 82, 0
6, 213840, Note_on_c, 0, 87, 76
6, 213840, Note_on_c, 0, 82, 76
6, 214019, Note_on_c, 0, 87, 0
6, 214019, Note_on_c, 0, 82, 0
6, 214080, Note_on_c, 0, 82, 76
6, 214080, Note_on_c, 0, 87, 76
6, 214259, Note_on_c, 0, 82, 0
6, 214259, Note_on_c, 0, 87, 0
6, 214320, Note_on_c, 0, 82, 76
6, 214320, Note_on_c, 0, 87, 76
6, 214499, Note_on_c, 0, 82, 0
6, 214499, Note_on_c, 0, 87, 0
6, 214560, Note_on_c, 0, 86, 76
6, 214560, Note_on_c, 0, 82, 76
6, 214799, Note_on_c, 0, 86, 0
6, 214799, Note_on_c, 0, 82, 0
6, 229200, Note_on_c, 0, 89, 48
6, 229559, Note_on_c, 0, 89, 0
6, 229560, Note_on_c, 0, 86, 48
6, 229679, Note_on_c, 0, 86, 0
6, 229680, Note_on_c, 0, 83, 48
6, 229904, Note_on_c, 0, 83, 0
6, 229920, Note_on_c, 0, 86, 48
6, 230279, Note_on_c, 0, 86, 0
6, 230280, Note_on_c, 0, 77, 48
6, 230399, Note_on_c, 0, 77, 0
6, 230400, Note_on_c, 0, 76, 48
6, 230639, Note_on_c, 0, 76, 0
6, 232080, Note_on_c, 0, 88, 48
6, 232439, Note_on_c, 0, 88, 0
6, 232440, Note_on_c, 0, 84, 48
6, 232559, Note_on_c, 0, 84, 0
6, 232560, Note_on_c, 0, 79, 48
6, 232784, Note_on_c, 0, 79, 0
6, 232800, Note_on_c, 0, 84, 48
6, 233159, Note_on_c, 0, 84, 0
6, 233160, Note_on_c, 0, 76, 48
6, 233279, Note_on_c, 0, 76, 0
6, 233280, Note_on_c, 0, 77, 48
6, 233519, Note_on_c, 0, 77, 0
6, 234240, Note_on_c, 0, 79, 68
6, 234584, Note_on_c, 0, 79, 0
6, 234600, Note_on_c, 0, 81, 52
6, 234689, Note_on_c, 0, 81, 0
6, 234720, Note_on_c, 0, 83, 52
6, 234809, Note_on_c, 0, 83, 0
6, 234840, Note_on_c, 0, 84, 52
6, 234929, Note_on_c, 0, 84, 0
6, 234960, Note_on_c, 0, 86, 52
6, 235049, Note_on_c, 0, 86, 0
6, 235080, Note_on_c, 0, 88, 52
6, 235169, Note_on_c, 0, 88, 0
6, 235200, Note_on_c, 0, 89, 52
6, 235379, Note_on_c, 0, 89, 0
6, 235680, Note_on_c, 0, 86, 52
6, 236039, Note_on_c, 0, 86, 0
6, 236040, Note_on_c, 0, 77, 52
6, 236144, Note_on_c, 0, 77, 0
6, 236160, Note_on_c, 0, 75, 44
6, 236399, Note_on_c, 0, 75, 0
6, 238080, Control_c, 0, 11, 96
6, 238320, Note_on_c, 0, 80, 60
6, 238320, Control_c, 0, 11, 96
6, 238380, Control_c, 0, 11, 99
6, 238440, Control_c, 0, 11, 101
6, 238500, Control_c, 0, 11, 104
6, 238560, Control_c, 0, 11, 106
6, 238620, Control_c, 0, 11, 109
6, 238680, Control_c, 0, 11, 112
6, 238740, Control_c, 0, 11, 114
6, 238800, Control_c, 0, 11, 117
6, 238860, Control_c, 0, 11, 119
6, 238920, Control_c, 0, 11, 122
6, 238980, Control_c, 0, 11, 124
6, 239039, Control_c, 0, 11, 112
6, 239279, Note_on_c, 0, 80, 0
6, 240960, Control_c, 0, 11, 64
6, 241200, Note_on_c, 0, 81, 84
6, 241200, Control_c, 0, 11, 64
6, 241280, Control_c, 0, 11, 69
6, 241360, Control_c, 0, 11, 75
6, 241440, Control_c, 0, 11, 80
6, 241520, Control_c, 0, 11, 85
6, 241600, Control_c, 0, 11, 90
6, 241680, Control_c, 0, 11, 96
6, 241760, Control_c, 0, 11, 101
6, 241840, Control_c, 0, 11, 106
6, 241920, Control_c, 0, 11, 111
6, 242000, Control_c, 0, 11, 117
6, 242080, Control_c, 0, 11, 127
6, 242129, Note_on_c, 0, 81, 0
6, 242160, Note_on_c, 0, 89, 84
6, 242160, Note_on_c, 0, 86, 84
6, 242339, Note_on_c, 0, 89, 0
6, 242339, Note_on_c, 0, 86, 0
6, 242400, Note_on_c, 0, 89, 84
6, 242400, Note_on_c, 0, 86, 84
6, 242579, Note_on_c, 0, 89, 0
6, 242579, Note_on_c, 0, 86, 0
6, 242640, Note_on_c, 0, 89, 84
6, 242640, Note_on_c, 0, 86, 84
6, 242819, Note_on_c, 0, 89, 0
6, 242819, Note_on_c, 0, 86, 0
6, 242880, Note_on_c, 0, 86, 84
6, 242880, Note_on_c, 0, 89, 84
6, 243059, Note_on_c, 0, 86, 0
6, 243059, Note_on_c, 0, 89, 0
6, 243120, Note_on_c, 0, 89, 84
6, 243120, Note_on_c, 0, 86, 84
6, 243299, Note_on_c, 0, 89, 0
6, 243299, Note_on_c, 0, 86, 0
6, 243360, Note_on_c, 0, 86, 84
6, 243360, Note_on_c, 0, 89, 84
6, 244784, Note_on_c, 0, 86, 0
6, 244784, Note_on_c, 0, 89, 0
6, 244800, Note_on_c, 0, 85, 84
6, 244800, Note_on_c, 0, 91, 84
6, 244979, Note_on_c, 0, 85, 0
6, 244979, Note_on_c, 0, 91, 0
6, 245040, Note_on_c, 0, 91, 84
6, 245040, Note_on_c, 0, 85, 84
6, 245219, Note_on_c, 0, 91, 0
6, 245219, Note_on_c, 0, 85, 0
6, 245280, Note_on_c, 0, 85, 84
6, 245280, Note_on_c, 0, 91, 84
6, 245459, Note_on_c, 0, 85, 0
6, 245459, Note_on_c, 0, 91, 0
6, 245520, Note_on_c, 0, 91, 84
6, 245520, Note_on_c, 0, 85, 84
6, 245699, Note_on_c, 0, 91, 0
6, 245699, Note_on_c, 0, 85, 0
6, 245760, Note_on_c, 0, 85, 84
6, 245760, Note_on_c, 0, 91, 84
6, 245939, Note_on_c, 0, 85, 0
6, 245939, Note_on_c, 0, 91, 0
6, 246000, Note_on_c, 0, 91, 84
6, 246000, Note_on_c, 0, 85, 84
6, 246179, Note_on_c, 0, 91, 0
6, 246179, Note_on_c, 0, 85, 0
6, 246240, Note_on_c, 0, 91, 84
6, 246240, Note_on_c, 0, 85, 84
6, 247424, Note_on_c, 0, 91, 0
6, 247424, Note_on_c, 0, 85, 0
6, 247440, Note_on_c, 0, 85, 84
6, 247440, Note_on_c, 0, 88, 84
6, 247664, Note_on_c, 0, 85, 0
6, 247664, Note_on_c, 0, 88, 0
6, 247680, Note_on_c, 0, 86, 52
6, 247799, Note_on_c, 0, 86, 0
6, 248040, Note_on_c, 0, 86, 52
6, 248144, Note_on_c, 0, 86, 0
6, 248160, Note_on_c, 0, 86, 52
6, 248279, Note_on_c, 0, 86, 0
6, 248760, Note_on_c, 0, 86, 52
6, 248864, Note_on_c, 0, 86, 0
6, 248880, Note_on_c, 0, 86, 52
6, 248999, Note_on_c, 0, 86, 0
6, 249240, Note_on_c, 0, 86, 52
6, 249344, Note_on_c, 0, 86, 0
6, 249360, Note_on_c, 0, 86, 54
6, 249464, Note_on_c, 0, 86, 0
6, 249480, Note_on_c, 0, 86, 57
6, 249584, Note_on_c, 0, 86, 0
6, 249600, Note_on_c, 0, 86, 60
6, 249704, Note_on_c, 0, 86, 0
6, 249720, Note_on_c, 0, 86, 63
6, 249824, Note_on_c, 0, 86, 0
6, 249840, Note_on_c, 0, 86, 66
6, 250079, Note_on_c, 0, 86, 0
6, 250560, Note_on_c, 0, 86, 84
6, 250560, Note_on_c, 0, 82, 84
6, 250739, Note_on_c, 0, 86, 0
6, 250739, Note_on_c, 0, 82, 0
6, 250800, Note_on_c, 0, 82, 84
6, 250800, Note_on_c, 0, 86, 84
6, 250979, Note_on_c, 0, 82, 0
6, 250979, Note_on_c, 0, 86, 0
6, 251040, Note_on_c, 0, 86, 84
6, 251040, Note_on_c, 0, 82, 84
6, 251219, Note_on_c, 0, 86, 0
6, 251219, Note_on_c, 0, 82, 0
6, 251280, Note_on_c, 0, 82, 84
6, 251280, Note_on_c, 0, 86, 84
6, 251459, Note_on_c, 0, 82, 0
6, 251459, Note_on_c, 0, 86, 0
6, 251520, Note_on_c, 0, 86, 84
6, 251520, Note_on_c, 0, 82, 84
6, 251699, Note_on_c, 0, 86, 0
6, 251699, Note_on_c, 0, 82, 0
6, 251760, Note_on_c, 0, 86, 84
6, 251760, Note_on_c, 0, 82, 84
6, 251939, Note_on_c, 0, 86, 0
6, 251939, Note_on_c, 0, 82, 0
6, 252000, Note_on_c, 0, 82, 84
6, 252000, Note_on_c, 0, 86, 84
6, 253424, Note_on_c, 0, 82, 0
6, 253424, Note_on_c, 0, 86, 0
6, 253440, Note_on_c, 0, 86, 84
6, 253440, Note_on_c, 0, 84, 84
6, 253619, Note_on_c, 0, 86, 0
6, 253619, Note_on_c, 0, 84, 0
6, 253680, Note_on_c, 0, 84, 84
6, 253680, Note_on_c, 0, 86, 84
6, 253859, Note_on_c, 0, 84, 0
6, 253859, Note_on_c, 0, 86, 0
6, 253920, Note_on_c, 0, 86, 84
6, 253920, Note_on_c, 0, 84, 84
6, 254099, Note_on_c, 0, 86, 0
6, 254099, Note_on_c, 0, 84, 0
6, 254160, Note_on_c, 0, 86, 84
6, 254160, Note_on_c, 0, 84, 84
6, 254339, Note_on_c, 0, 86, 0
6, 254339, Note_on_c, 0, 84, 0
6, 254400, Note_on_c, 0, 84, 84
6, 254400, Note_on_c, 0, 86, 84
6, 254579, Note_on_c, 0, 84, 0
6, 254579, Note_on_c, 0, 86, 0
6, 254640, Note_on_c, 0, 86, 84
6, 254640, Note_on_c, 0, 84, 84
6, 254819, Note_on_c, 0, 86, 0
6, 254819, Note_on_c, 0, 84, 0
6, 254880, Note_on_c, 0, 84, 84
6, 254880, Note_on_c, 0, 86, 84
6, 256064, Note_on_c, 0, 84, 0
6, 256064, Note_on_c, 0, 86, 0
6, 256080, Note_on_c, 0, 86, 84
6, 256080, Note_on_c, 0, 78, 84
6, 256304, Note_on_c, 0, 86, 0
6, 256304, Note_on_c, 0, 78, 0
6, 256320, Note_on_c, 0, 86, 52
6, 256320, Note_on_c, 0, 79, 52
6, 256559, Note_on_c, 0, 86, 0
6, 256559, Note_on_c, 0, 79, 0
6, 259560, Note_on_c, 0, 84, 52
6, 259664, Note_on_c, 0, 84, 0
6, 259680, Note_on_c, 0, 84, 52
6, 259799, Note_on_c, 0, 84, 0
6, 260280, Note_on_c, 0, 84, 52
6, 260384, Note_on_c, 0, 84, 0
6, 260400, Note_on_c, 0, 84, 52
6, 260519, Note_on_c, 0, 84, 0
6, 260760, Note_on_c, 0, 84, 52
6, 260864, Note_on_c, 0, 84, 0
6, 260880, Note_on_c, 0, 84, 53
6, 260984, Note_on_c, 0, 84, 0
6, 261000, Note_on_c, 0, 84, 55
6, 261104, Note_on_c, 0, 84, 0
6, 261120, Note_on_c, 0, 84, 57
6, 261224, Note_on_c, 0, 84, 0
6, 261240, Note_on_c, 0, 84, 58
6, 261344, Note_on_c, 0, 84, 0
6, 261360, Note_on_c, 0, 84, 60
6, 261599, Note_on_c, 0, 84, 0
6, 262440, Note_on_c, 0, 89, 76
6, 262544, Note_on_c, 0, 89, 0
6, 262560, Note_on_c, 0, 89, 76
6, 262679, Note_on_c, 0, 89, 0
6, 263160, Note_on_c, 0, 82, 76
6, 263264, Note_on_c, 0, 82, 0
6, 263280, Note_on_c, 0, 82, 76
6, 263399, Note_on_c, 0, 82, 0
6, 263880, Note_on_c, 0, 87, 76
6, 263984, Note_on_c, 0, 87, 0
6, 264000, Note_on_c, 0, 87, 76
6, 264119, Note_on_c, 0, 87, 0
6, 264360, Note_on_c, 0, 80, 76
6, 264464, Note_on_c, 0, 80, 0
6, 264480, Note_on_c, 0, 80, 76
6, 264584, Note_on_c, 0, 80, 0
6, 264600, Note_on_c, 0, 80, 76
6, 264704, Note_on_c, 0, 80, 0
6, 264720, Note_on_c, 0, 80, 76
6, 264824, Note_on_c, 0, 80, 0
6, 264840, Note_on_c, 0, 80, 76
6, 264944, Note_on_c, 0, 80, 0
6, 264960, Note_on_c, 0, 80, 84
6, 264960, Note_on_c, 0, 85, 84
6, 265664, Note_on_c, 0, 80, 0
6, 265664, Note_on_c, 0, 85, 0
6, 265680, Note_on_c, 0, 86, 84
6, 265680, Note_on_c, 0, 80, 84
6, 266384, Note_on_c, 0, 86, 0
6, 266384, Note_on_c, 0, 80, 0
6, 266400, Note_on_c, 0, 79, 84
6, 266400, Note_on_c, 0, 87, 84
6, 266639, Note_on_c, 0, 79, 0
6, 266639, Note_on_c, 0, 87, 0
6, 268080, Note_on_c, 0, 85, 52
6, 268439, Note_on_c, 0, 85, 0
6, 268440, Note_on_c, 0, 82, 52
6, 268559, Note_on_c, 0, 82, 0
6, 268560, Note_on_c, 0, 79, 52
6, 268799, Note_on_c, 0, 79, 0
6, 270960, Note_on_c, 0, 84, 52
6, 271319, Note_on_c, 0, 84, 0
6, 271320, Note_on_c, 0, 80, 52
6, 271439, Note_on_c, 0, 80, 0
6, 271440, Note_on_c, 0, 75, 52
6, 271679, Note_on_c, 0, 75, 0
6, 272880, Note_on_c, 0, 75, 76
6, 273000, Control_c, 0, 11, 80
6, 273689, Note_on_c, 0, 75, 0
6, 273720, Note_on_c, 0, 77, 76
6, 273809, Note_on_c, 0, 77, 0
6, 273840, Note_on_c, 0, 79, 76
6, 273929, Note_on_c, 0, 79, 0
6, 273960, Note_on_c, 0, 80, 76
6, 274049, Note_on_c, 0, 80, 0
6, 274080, Note_on_c, 0, 82, 76
6, 274169, Note_on_c, 0, 82, 0
6, 274200, Note_on_c, 0, 84, 76
6, 274289, Note_on_c, 0, 84, 0
6, 274320, Note_on_c, 0, 85, 76
6, 274409, Note_on_c, 0, 85, 0
6, 274440, Note_on_c, 0, 84, 76
6, 274529, Note_on_c, 0, 84, 0
6, 274560, Note_on_c, 0, 85, 76
6, 274649, Note_on_c, 0, 85, 0
6, 274680, Note_on_c, 0, 87, 76
6, 274769, Note_on_c, 0, 87, 0
6, 274800, Note_on_c, 0, 89, 76
6, 274889, Note_on_c, 0, 89, 0
6, 274920, Note_on_c, 0, 91, 76
6, 275009, Note_on_c, 0, 91, 0
6, 275040, Note_on_c, 0, 92, 76
6, 275279, Note_on_c, 0, 92, 0
6, 275505, Control_c, 0, 11, 127
6, 275520, Note_on_c, 0, 72, 52
6, 275849, Note_on_c, 0, 72, 0
6, 275880, Note_on_c, 0, 74, 52
6, 275969, Note_on_c, 0, 74, 0
6, 276000, Note_on_c, 0, 76, 52
6, 276089, Note_on_c, 0, 76, 0
6, 276120, Note_on_c, 0, 77, 52
6, 276209, Note_on_c, 0, 77, 0
6, 276240, Note_on_c, 0, 79, 52
6, 276329, Note_on_c, 0, 79, 0
6, 276360, Note_on_c, 0, 80, 52
6, 276449, Note_on_c, 0, 80, 0
6, 276480, Note_on_c, 0, 82, 52
6, 276719, Note_on_c, 0, 82, 0
6, 277320, Note_on_c, 0, 85, 52
6, 277439, Note_on_c, 0, 85, 0
6, 277440, Note_on_c, 0, 84, 52
6, 277559, Note_on_c, 0, 84, 0
6, 277560, Note_on_c, 0, 82, 52
6, 277679, Note_on_c, 0, 82, 0
6, 277680, Note_on_c, 0, 80, 52
6, 277799, Note_on_c, 0, 80, 0
6, 277800, Note_on_c, 0, 79, 52
6, 277919, Note_on_c, 0, 79, 0
6, 277920, Note_on_c, 0, 80, 52
6, 278159, Note_on_c, 0, 80, 0
6, 284640, Note_on_c, 0, 77, 60
6, 284640, Note_on_c, 0, 81, 60
6, 284819, Note_on_c, 0, 77, 0
6, 284819, Note_on_c, 0, 81, 0
6, 284880, Note_on_c, 0, 93, 76
6, 284880, Note_on_c, 0, 89, 76
6, 285359, Note_on_c, 0, 93, 0
6, 285359, Note_on_c, 0, 89, 0
6, 285360, Note_on_c, 0, 88, 60
6, 285360, Note_on_c, 0, 91, 60
6, 285599, Note_on_c, 0, 88, 0
6, 285599, Note_on_c, 0, 91, 0
6, 286080, Note_on_c, 0, 89, 76
6, 286080, Note_on_c, 0, 86, 76
6, 286169, Note_on_c, 0, 89, 0
6, 286169, Note_on_c, 0, 86, 0
6, 286200, Note_on_c, 0, 89, 76
6, 286200, Note_on_c, 0, 86, 76
6, 286289, Note_on_c, 0, 89, 0
6, 286289, Note_on_c, 0, 86, 0
6, 286320, Note_on_c, 0, 86, 76
6, 286320, Note_on_c, 0, 89, 76
6, 286409, Note_on_c, 0, 86, 0
6, 286409, Note_on_c, 0, 89, 0
6, 286440, Note_on_c, 0, 89, 76
6, 286440, Note_on_c, 0, 86, 76
6, 286529, Note_on_c, 0, 89, 0
6, 286529, Note_on_c, 0, 86, 0
6, 286560, Note_on_c, 0, 86, 76
6, 286560, Note_on_c, 0, 89, 76
6, 286739, Note_on_c, 0, 86, 0
6, 286739, Note_on_c, 0, 89, 0
6, 286800, Note_on_c, 0, 89, 84
6, 286800, Note_on_c, 0, 83, 84
6, 288224, Note_on_c, 0, 89, 0
6, 288224, Note_on_c, 0, 83, 0
6, 288240, Note_on_c, 0, 89, 92
6, 288240, Note_on_c, 0, 83, 92
6, 288689, Note_on_c, 0, 89, 0
6, 288689, Note_on_c, 0, 83, 0
6, 288720, Note_on_c, 0, 83, 92
6, 288720, Note_on_c, 0, 89, 92
6, 289169, Note_on_c, 0, 83, 0
6, 289169, Note_on_c, 0, 89, 0
6, 289200, Note_on_c, 0, 89, 92
6, 289200, Note_on_c, 0, 83, 92
6, 289649, Note_on_c, 0, 89, 0
6, 289649, Note_on_c, 0, 83, 0
6, 289680, Note_on_c, 0, 83, 92
6, 289680, Note_on_c, 0, 89, 92
6, 290129, Note_on_c, 0, 83, 0
6, 290129, Note_on_c, 0, 89, 0
6, 290160, Note_on_c, 0, 89, 92
6, 290160, Note_on_c, 0, 83, 92
6, 290609, Note_on_c, 0, 89, 0
6, 290609, Note_on_c, 0, 83, 0
6, 290640, Note_on_c, 0, 89, 92
6, 290640, Note_on_c, 0, 83, 92
6, 290849, Note_on_c, 0, 89, 0
6, 290849, Note_on_c, 0, 83, 0
6, 291120, Note_on_c, 0, 84, 92
6, 291120, Note_on_c, 0, 88, 92
6, 292529, Note_on_c, 0, 84, 0
6, 292529, Note_on_c, 0, 88, 0
6, 292560, Note_on_c, 0, 88, 92
6, 292560, Note_on_c, 0, 81, 92
6, 293009, Note_on_c, 0, 88, 0
6, 293009, Note_on_c, 0, 81, 0
6, 293040, Note_on_c, 0, 81, 92
6, 293040, Note_on_c, 0, 88, 92
6, 293489, Note_on_c, 0, 81, 0
6, 293489, Note_on_c, 0, 88, 0
6, 293520, Note_on_c, 0, 88, 92
6, 293520, Note_on_c, 0, 81, 92
6, 293969, Note_on_c, 0, 88, 0
6, 293969, Note_on_c, 0, 81, 0
6, 294000, Note_on_c, 0, 88, 92
6, 294000, Note_on_c, 0, 81, 92
6, 294449, Note_on_c, 0, 88, 0
6, 294449, Note_on_c, 0, 81, 0
6, 294480, Note_on_c, 0, 81, 92
6, 294480, Note_on_c, 0, 88, 92
6, 294929, Note_on_c, 0, 81, 0
6, 294929, Note_on_c, 0, 88, 0
6, 294960, Note_on_c, 0, 88, 92
6, 294960, Note_on_c, 0, 81, 92
6, 295169, Note_on_c, 0, 88, 0
6, 295169, Note_on_c, 0, 81, 0
6, 295440, Note_on_c, 0, 81, 92
6, 295440, Note_on_c, 0, 87, 92
6, 296849, Note_on_c, 0, 81, 0
6, 296849, Note_on_c, 0, 87, 0
6, 296880, Note_on_c, 0, 87, 92
6, 296880, Note_on_c, 0, 81, 92
6, 297329, Note_on_c, 0, 87, 0
6, 297329, Note_on_c, 0, 81, 0
6, 297360, Note_on_c, 0, 87, 92
6, 297360, Note_on_c, 0, 81, 92
6, 297809, Note_on_c, 0, 87, 0
6, 297809, Note_on_c, 0, 81, 0
6, 297840, Note_on_c, 0, 81, 92
6, 297840, Note_on_c, 0, 87, 92
6, 298289, Note_on_c, 0, 81, 0
6, 298289, Note_on_c, 0, 87, 0
6, 298320, Note_on_c, 0, 87, 92
6, 298320, Note_on_c, 0, 81, 92
6, 298769, Note_on_c, 0, 87, 0
6, 298769, Note_on_c, 0, 81, 0
6, 298800, Note_on_c, 0, 81, 92
6, 298800, Note_on_c, 0, 87, 92
6, 299249, Note_on_c, 0, 81, 0
6, 299249, Note_on_c, 0, 87, 0
6, 299280, Note_on_c, 0, 81, 92
6, 299280, Note_on_c, 0, 87, 92
6, 299489, Note_on_c, 0, 81, 0
6, 299489, Note_on_c, 0, 87, 0
6, 299760, Note_on_c, 0, 88, 92
6, 299760, Note_on_c, 0, 85, 92
6, 301169, Note_on_c, 0, 88, 0
6, 301169, Note_on_c, 0, 85, 0
6, 301200, Note_on_c, 0, 85, 92
6, 301200, Note_on_c, 0, 88, 92
6, 301649, Note_on_c, 0, 85, 0
6, 301649, Note_on_c, 0, 88, 0
6, 301680, Note_on_c, 0, 88, 92
6, 301680, Note_on_c, 0, 85, 92
6, 302129, Note_on_c, 0, 88, 0
6, 302129, Note_on_c, 0, 85, 0
6, 302160, Note_on_c, 0, 88, 92
6, 302160, Note_on_c, 0, 85, 92
6, 302609, Note_on_c, 0, 88, 0
6, 302609, Note_on_c, 0, 85, 0
6, 302640, Note_on_c, 0, 85, 92
6, 302640, Note_on_c, 0, 88, 92
6, 303089, Note_on_c, 0, 85, 0
6, 303089, Note_on_c, 0, 88, 0
6, 303120, Note_on_c, 0, 88, 92
6, 303120, Note_on_c, 0, 85, 92
6, 303569, Note_on_c, 0, 88, 0
6, 303569, Note_on_c, 0, 85, 0
6, 303600, Note_on_c, 0, 85, 92
6, 303600, Note_on_c, 0, 88, 92
6, 303809, Note_on_c, 0, 85, 0
6, 303809, Note_on_c, 0, 88, 0
6, 304080, Note_on_c, 0, 87, 92
6, 304080, Note_on_c, 0, 84, 92
6, 304529, Note_on_c, 0, 87, 0
6, 304529, Note_on_c, 0, 84, 0
6, 304560, Note_on_c, 0, 84, 92
6, 304560, Note_on_c, 0, 87, 92
6, 305009, Note_on_c, 0, 84, 0
6, 305009, Note_on_c, 0, 87, 0
6, 305040, Note_on_c, 0, 87, 92
6, 305040, Note_on_c, 0, 84, 92
6, 305249, Note_on_c, 0, 87, 0
6, 305249, Note_on_c, 0, 84, 0
6, 305520, Note_on_c, 0, 88, 92
6, 305520, Note_on_c, 0, 84, 92
6, 305969, Note_on_c, 0, 88, 0
6, 305969, Note_on_c, 0, 84, 0
6, 306000, Note_on_c, 0, 84, 92
6, 306000, Note_on_c, 0, 88, 92
6, 306449, Note_on_c, 0, 84, 0
6, 306449, Note_on_c, 0, 88, 0
6, 306480, Note_on_c, 0, 88, 92
6, 306480, Note_on_c, 0, 84, 92
6, 306689, Note_on_c, 0, 88, 0
6, 306689, Note_on_c, 0, 84, 0
6, 306720, Note_on_c, 0, 88, 76
6, 306720, Note_on_c, 0, 89, 76
6, 307199, Note_on_c, 0, 88, 0
6, 307199, Note_on_c, 0, 89, 0
6, 307440, Note_on_c, 0, 89, 76
6, 307440, Note_on_c, 0, 88, 76
6, 307919, Note_on_c, 0, 89, 0
6, 307919, Note_on_c, 0, 88, 0
6, 308160, Note_on_c, 0, 89, 76
6, 308160, Note_on_c, 0, 88, 76
6, 308639, Note_on_c, 0, 89, 0
6, 308639, Note_on_c, 0, 88, 0
6, 308880, Note_on_c, 0, 88, 76
6, 308880, Note_on_c, 0, 89, 76
6, 309344, Note_on_c, 0, 88, 0
6, 309344, Note_on_c, 0, 89, 0
6, 309360, Note_on_c, 0, 89, 76
6, 309360, Note_on_c, 0, 88, 76
6, 309539, Note_on_c, 0, 89, 0
6, 309539, Note_on_c, 0, 88, 0
6, 312720, Note_on_c, 0, 71, 52
6, 312944, Note_on_c, 0, 71, 0
6, 312960, Note_on_c, 0, 71, 52
6, 313184, Note_on_c, 0, 71, 0
6, 313200, Note_on_c, 0, 71, 68
6, 313320, Control_c, 0, 11, 96
6, 313544, Note_on_c, 0, 71, 0
6, 313560, Note_on_c, 0, 71, 68
6, 313664, Note_on_c, 0, 71, 0
6, 313680, Note_on_c, 0, 71, 68
6, 313904, Note_on_c, 0, 71, 0
6, 313920, Note_on_c, 0, 71, 68
6, 314159, Note_on_c, 0, 71, 0
6, 314640, Control_c, 0, 11, 127
6, 315600, Note_on_c, 0, 71, 52
6, 315824, Note_on_c, 0, 71, 0
6, 315840, Note_on_c, 0, 71, 52
6, 316064, Note_on_c, 0, 71, 0
6, 316080, Note_on_c, 0, 71, 68
6, 316200, Control_c, 0, 11, 96
6, 316424, Note_on_c, 0, 71, 0
6, 316440, Note_on_c, 0, 71, 68
6, 316544, Note_on_c, 0, 71, 0
6, 316560, Note_on_c, 0, 71, 68
6, 316799, Note_on_c, 0, 71, 0
6, 317520, Control_c, 0, 11, 127
6, 318480, Note_on_c, 0, 76, 52
6, 318480, Note_on_c, 0, 81, 52
6, 318719, Note_on_c, 0, 76, 0
6, 318719, Note_on_c, 0, 81, 0
6, 318720, Note_on_c, 0, 76, 52
6, 318720, Note_on_c, 0, 80, 52
6, 318959, Note_on_c, 0, 76, 0
6, 318959, Note_on_c, 0, 80, 0
6, 318960, Note_on_c, 0, 81, 68
6, 318960, Note_on_c, 0, 76, 68
6, 319319, Note_on_c, 0, 81, 0
6, 319319, Note_on_c, 0, 76, 0
6, 319320, Note_on_c, 0, 83, 52
6, 319320, Note_on_c, 0, 76, 52
6, 319439, Note_on_c, 0, 83, 0
6, 319439, Note_on_c, 0, 76, 0
6, 319440, Note_on_c, 0, 84, 52
6, 319440, Note_on_c, 0, 76, 52
6, 319664, Note_on_c, 0, 84, 0
6, 319664, Note_on_c, 0, 76, 0
6, 319680, Note_on_c, 0, 83, 52
6, 319680, Note_on_c, 0, 76, 52
6, 319889, Note_on_c, 0, 83, 0
6, 319889, Note_on_c, 0, 76, 0
6, 319920, Note_on_c, 0, 88, 52
6, 320159, Note_on_c, 0, 88, 0
6, 320160, Note_on_c, 0, 87, 52
6, 320399, Note_on_c, 0, 87, 0
6, 320400, Note_on_c, 0, 88, 68
6, 320759, Note_on_c, 0, 88, 0
6, 320760, Note_on_c, 0, 86, 52
6, 320879, Note_on_c, 0, 86, 0
6, 320880, Note_on_c, 0, 84, 52
6, 320999, Note_on_c, 0, 84, 0
6, 321000, Note_on_c, 0, 83, 52
6, 321104, Note_on_c, 0, 83, 0
6, 321120, Note_on_c, 0, 81, 52
6, 321299, Note_on_c, 0, 81, 0
6, 321360, Note_on_c, 0, 81, 52
6, 321360, Note_on_c, 0, 76, 52
6, 321599, Note_on_c, 0, 81, 0
6, 321599, Note_on_c, 0, 76, 0
6, 321600, Note_on_c, 0, 80, 52
6, 321600, Note_on_c, 0, 76, 52
6, 321839, Note_on_c, 0, 80, 0
6, 321839, Note_on_c, 0, 76, 0
6, 321840, Note_on_c, 0, 81, 68
6, 321840, Note_on_c, 0, 76, 68
6, 322199, Note_on_c, 0, 81, 0
6, 322199, Note_on_c, 0, 76, 0
6, 322200, Note_on_c, 0, 83, 52
6, 322200, Note_on_c, 0, 76, 52
6, 322319, Note_on_c, 0, 83, 0
6, 322319, Note_on_c, 0, 76, 0
6, 322320, Note_on_c, 0, 84, 52
6, 322320, Note_on_c, 0, 76, 52
6, 322559, Note_on_c, 0, 84, 0
6, 322559, Note_on_c, 0, 76, 0
6, 322560, Note_on_c, 0, 83, 52
6, 322560, Note_on_c, 0, 76, 52
6, 322799, Note_on_c, 0, 83, 0
6, 322799, Note_on_c, 0, 76, 0
6, 322800, Note_on_c, 0, 88, 52
6, 323039, Note_on_c, 0, 88, 0
6, 323040, Note_on_c, 0, 87, 52
6, 323279, Note_on_c, 0, 87, 0
6, 323280, Note_on_c, 0, 88, 52
6, 323519, Note_on_c, 0, 88, 0
6, 327600, Note_on_c, 0, 84, 76
6, 327779, Note_on_c, 0, 84, 0
6, 327840, Note_on_c, 0, 88, 76
6, 328019, Note_on_c, 0, 88, 0
6, 328080, Note_on_c, 0, 91, 84
6, 328424, Note_on_c, 0, 91, 0
6, 328440, Note_on_c, 0, 89, 76
6, 328529, Note_on_c, 0, 89, 0
6, 328560, Note_on_c, 0, 86, 76
6, 328649, Note_on_c, 0, 86, 0
6, 328680, Note_on_c, 0, 83, 76
6, 328769, Note_on_c, 0, 83, 0
6, 328800, Note_on_c, 0, 79, 76
6, 328889, Note_on_c, 0, 79, 0
6, 328920, Note_on_c, 0, 77, 76
6, 329009, Note_on_c, 0, 77, 0
6, 329040, Note_on_c, 0, 74, 76
6, 329129, Note_on_c, 0, 74, 0
6, 329160, Note_on_c, 0, 77, 76
6, 329249, Note_on_c, 0, 77, 0
6, 329280, Note_on_c, 0, 74, 76
6, 329369, Note_on_c, 0, 74, 0
6, 329400, Note_on_c, 0, 71, 76
6, 329489, Note_on_c, 0, 71, 0
6, 329520, Note_on_c, 0, 67, 76
6, 329609, Note_on_c, 0, 67, 0
6, 329640, Note_on_c, 0, 71, 76
6, 329729, Note_on_c, 0, 71, 0
6, 329760, Note_on_c, 0, 72, 76
6, 329939, Note_on_c, 0, 72, 0
6, 330000, Note_on_c, 0, 75, 76
6, 330179, Note_on_c, 0, 75, 0
6, 330240, Note_on_c, 0, 79, 76
6, 330419, Note_on_c, 0, 79, 0
6, 330480, Note_on_c, 0, 84, 76
6, 330659, Note_on_c, 0, 84, 0
6, 330720, Note_on_c, 0, 87, 76
6, 330899, Note_on_c, 0, 87, 0
6, 330960, Note_on_c, 0, 91, 84
6, 331304, Note_on_c, 0, 91, 0
6, 331320, Note_on_c, 0, 89, 76
6, 331409, Note_on_c, 0, 89, 0
6, 331440, Note_on_c, 0, 86, 76
6, 331529, Note_on_c, 0, 86, 0
6, 331560, Note_on_c, 0, 83, 76
6, 331649, Note_on_c, 0, 83, 0
6, 331680, Note_on_c, 0, 79, 76
6, 331769, Note_on_c, 0, 79, 0
6, 331800, Note_on_c, 0, 77, 76
6, 331889, Note_on_c, 0, 77, 0
6, 331920, Note_on_c, 0, 74, 76
6, 332009, Note_on_c, 0, 74, 0
6, 332040, Note_on_c, 0, 77, 76
6, 332129, Note_on_c, 0, 77, 0
6, 332160, Note_on_c, 0, 74, 76
6, 332249, Note_on_c, 0, 74, 0
6, 332280, Note_on_c, 0, 71, 76
6, 332369, Note_on_c, 0, 71, 0
6, 332400, Note_on_c, 0, 67, 76
6, 332489, Note_on_c, 0, 67, 0
6, 332520, Note_on_c, 0, 71, 76
6, 332609, Note_on_c, 0, 71, 0
6, 332640, Note_on_c, 0, 72, 76
6, 332879, Note_on_c, 0, 72, 0
6, 332880, Note_on_c, 0, 75, 76
6, 333119, Note_on_c, 0, 75, 0
6, 333120, Note_on_c, 0, 79, 76
6, 333344, Note_on_c, 0, 79, 0
6, 333360, Note_on_c, 0, 80, 84
6, 333839, Note_on_c, 0, 80, 0
6, 333840, Note_on_c, 0, 72, 76
6, 334064, Note_on_c, 0, 72, 0
6, 334080, Note_on_c, 0, 73, 76
6, 334319, Note_on_c, 0, 73, 0
6, 334320, Note_on_c, 0, 77, 76
6, 334559, Note_on_c, 0, 77, 0
6, 334560, Note_on_c, 0, 81, 76
6, 334784, Note_on_c, 0, 81, 0
6, 334800, Note_on_c, 0, 82, 84
6, 335279, Note_on_c, 0, 82, 0
6, 335280, Note_on_c, 0, 74, 76
6, 335504, Note_on_c, 0, 74, 0
6, 335520, Note_on_c, 0, 75, 76
6, 335699, Note_on_c, 0, 75, 0
6, 335760, Note_on_c, 0, 82, 76
6, 335939, Note_on_c, 0, 82, 0
6, 336000, Note_on_c, 0, 82, 76
6, 336179, Note_on_c, 0, 82, 0
6, 336240, Note_on_c, 0, 82, 76
6, 336419, Note_on_c, 0, 82, 0
6, 336480, Note_on_c, 0, 82, 76
6, 336659, Note_on_c, 0, 82, 0
6, 336720, Note_on_c, 0, 82, 84
6, 337064, Note_on_c, 0, 82, 0
6, 337080, Note_on_c, 0, 80, 76
6, 337169, Note_on_c, 0, 80, 0
6, 337200, Note_on_c, 0, 89, 76
6, 337289, Note_on_c, 0, 89, 0
6, 337320, Note_on_c, 0, 86, 76
6, 337409, Note_on_c, 0, 86, 0
6, 337440, Note_on_c, 0, 82, 76
6, 337529, Note_on_c, 0, 82, 0
6, 337560, Note_on_c, 0, 80, 76
6, 337649, Note_on_c, 0, 80, 0
6, 337680, Note_on_c, 0, 77, 76
6, 337769, Note_on_c, 0, 77, 0
6, 337800, Note_on_c, 0, 80, 76
6, 337889, Note_on_c, 0, 80, 0
6, 337920, Note_on_c, 0, 77, 76
6, 338009, Note_on_c, 0, 77, 0
6, 338040, Note_on_c, 0, 74, 76
6, 338129, Note_on_c, 0, 74, 0
6, 338160, Note_on_c, 0, 70, 76
6, 338249, Note_on_c, 0, 70, 0
6, 338280, Note_on_c, 0, 74, 76
6, 338369, Note_on_c, 0, 74, 0
6, 338400, Note_on_c, 0, 75, 84
6, 338624, Note_on_c, 0, 75, 0
6, 338640, Note_on_c, 0, 82, 84
6, 338864, Note_on_c, 0, 82, 0
6, 338880, Note_on_c, 0, 82, 84
6, 339104, Note_on_c, 0, 82, 0
6, 339120, Note_on_c, 0, 82, 84
6, 339344, Note_on_c, 0, 82, 0
6, 339360, Note_on_c, 0, 87, 84
6, 339360, Note_on_c, 0, 75, 84
6, 339584, Note_on_c, 0, 87, 0
6, 339584, Note_on_c, 0, 75, 0
6, 339600, Note_on_c, 0, 87, 84
6, 339600, Note_on_c, 0, 75, 84
6, 339824, Note_on_c, 0, 87, 0
6, 339824, Note_on_c, 0, 75, 0
6, 339840, Note_on_c, 0, 87, 84
6, 339840, Note_on_c, 0, 75, 84
6, 340079, Note_on_c, 0, 87, 0
6, 340079, Note_on_c, 0, 75, 0
6, 345840, Note_on_c, 0, 78, 52
6, 346079, Note_on_c, 0, 78, 0
6, 346080, Note_on_c, 0, 80, 52
6, 346319, Note_on_c, 0, 80, 0
6, 346320, Note_on_c, 0, 82, 52
6, 346679, Note_on_c, 0, 82, 0
6, 346680, Note_on_c, 0, 80, 52
6, 346799, Note_on_c, 0, 80, 0
6, 346800, Note_on_c, 0, 78, 52
6, 347024, Note_on_c, 0, 78, 0
6, 347040, Note_on_c, 0, 77, 52
6, 348464, Note_on_c, 0, 77, 0
6, 348480, Note_on_c, 0, 78, 52
6, 348719, Note_on_c, 0, 78, 0
6, 352800, Note_on_c, 0, 86, 52
6, 352800, Note_on_c, 0, 82, 52
6, 353279, Note_on_c, 0, 86, 0
6, 353279, Note_on_c, 0, 82, 0
6, 353280, Note_on_c, 0, 89, 52
6, 353280, Note_on_c, 0, 86, 52
6, 353519, Note_on_c, 0, 89, 0
6, 353519, Note_on_c, 0, 86, 0
6, 353520, Note_on_c, 0, 86, 52
6, 353520, Note_on_c, 0, 82, 52
6, 353999, Note_on_c, 0, 86, 0
6, 353999, Note_on_c, 0, 82, 0
6, 354000, Note_on_c, 0, 82, 52
6, 354000, Note_on_c, 0, 77, 52
6, 354224, Note_on_c, 0, 82, 0
6, 354224, Note_on_c, 0, 77, 0
6, 354240, Note_on_c, 0, 82, 52
6, 354240, Note_on_c, 0, 78, 52
6, 354479, Note_on_c, 0, 82, 0
6, 354479, Note_on_c, 0, 78, 0
6, 354480, Note_on_c, 0, 90, 52
6, 354480, Note_on_c, 0, 82, 52
6, 354719, Note_on_c, 0, 90, 0
6, 354719, Note_on_c, 0, 82, 0
6, 354720, Note_on_c, 0, 90, 52
6, 354720, Note_on_c, 0, 87, 52
6, 354944, Note_on_c, 0, 90, 0
6, 354944, Note_on_c, 0, 87, 0
6, 354960, Note_on_c, 0, 90, 52
6, 354960, Note_on_c, 0, 87, 52
6, 355199, Note_on_c, 0, 90, 0
6, 355199, Note_on_c, 0, 87, 0
6, 355680, Note_on_c, 0, 87, 52
6, 355680, Note_on_c, 0, 82, 52
6, 356159, Note_on_c, 0, 87, 0
6, 356159, Note_on_c, 0, 82, 0
6, 356160, Note_on_c, 0, 90, 52
6, 356160, Note_on_c, 0, 87, 52
6, 356399, Note_on_c, 0, 90, 0
6, 356399, Note_on_c, 0, 87, 0
6, 356400, Note_on_c, 0, 87, 52
6, 356400, Note_on_c, 0, 82, 52
6, 356879, Note_on_c, 0, 87, 0
6, 356879, Note_on_c, 0, 82, 0
6, 356880, Note_on_c, 0, 82, 52
6, 356880, Note_on_c, 0, 78, 52
6, 357104, Note_on_c, 0, 82, 0
6, 357104, Note_on_c, 0, 78, 0
6, 357120, Note_on_c, 0, 80, 52
6, 357120, Note_on_c, 0, 78, 52
6, 357359, Note_on_c, 0, 80, 0
6, 357359, Note_on_c, 0, 78, 0
6, 357360, Note_on_c, 0, 90, 52
6, 357360, Note_on_c, 0, 80, 52
6, 357599, Note_on_c, 0, 90, 0
6, 357599, Note_on_c, 0, 80, 0
6, 357600, Note_on_c, 0, 90, 52
6, 357600, Note_on_c, 0, 87, 52
6, 357824, Note_on_c, 0, 90, 0
6, 357824, Note_on_c, 0, 87, 0
6, 357840, Note_on_c, 0, 90, 52
6, 357840, Note_on_c, 0, 87, 52
6, 358079, Note_on_c, 0, 90, 0
6, 358079, Note_on_c, 0, 87, 0
6, 358560, Note_on_c, 0, 87, 52
6, 358560, Note_on_c, 0, 80, 52
6, 359039, Note_on_c, 0, 87, 0
6, 359039, Note_on_c, 0, 80, 0
6, 359040, Note_on_c, 0, 90, 52
6, 359040, Note_on_c, 0, 87, 52
6, 359279, Note_on_c, 0, 90, 0
6, 359279, Note_on_c, 0, 87, 0
6, 359280, Note_on_c, 0, 87, 52
6, 359280, Note_on_c, 0, 80, 52
6, 359759, Note_on_c, 0, 87, 0
6, 359759, Note_on_c, 0, 80, 0
6, 359760, Note_on_c, 0, 80, 52
6, 359760, Note_on_c, 0, 78, 52
6, 359984, Note_on_c, 0, 80, 0
6, 359984, Note_on_c, 0, 78, 0
6, 360000, Note_on_c, 0, 80, 52
6, 360000, Note_on_c, 0, 77, 52
6, 360239, Note_on_c, 0, 80, 0
6, 360239, Note_on_c, 0, 77, 0
6, 360240, Note_on_c, 0, 85, 52
6, 360240, Note_on_c, 0, 80, 52
6, 360479, Note_on_c, 0, 85, 0
6, 360479, Note_on_c, 0, 80, 0
6, 360480, Note_on_c, 0, 89, 52
6, 360480, Note_on_c, 0, 85, 52
6, 360704, Note_on_c, 0, 89, 0
6, 360704, Note_on_c, 0, 85, 0
6, 360720, Note_on_c, 0, 89, 52
6, 360720, Note_on_c, 0, 85, 52
6, 360959, Note_on_c, 0, 89, 0
6, 360959, Note_on_c, 0, 85, 0
6, 361200, Control_c, 0, 11, 96
6, 361440, Note_on_c, 0, 85, 68
6, 361440, Note_on_c, 0, 80, 68
6, 361919, Note_on_c, 0, 85, 0
6, 361919, Note_on_c, 0, 80, 0
6, 361920, Note_on_c, 0, 89, 68
6, 361920, Note_on_c, 0, 85, 68
6, 362159, Note_on_c, 0, 89, 0
6, 362159, Note_on_c, 0, 85, 0
6, 362160, Note_on_c, 0, 85, 68
6, 362160, Note_on_c, 0, 80, 68
6, 362639, Note_on_c, 0, 85, 0
6, 362639, Note_on_c, 0, 80, 0
6, 362640, Note_on_c, 0, 80, 68
6, 362640, Note_on_c, 0, 77, 68
6, 362864, Note_on_c, 0, 80, 0
6, 362864, Note_on_c, 0, 77, 0
6, 362880, Note_on_c, 0, 80, 68
6, 362880, Note_on_c, 0, 77, 68
6, 362880, Control_c, 0, 11, 96
6, 363119, Note_on_c, 0, 80, 0
6, 363119, Note_on_c, 0, 77, 0
6, 363120, Note_on_c, 0, 82, 68
6, 363120, Control_c, 0, 11, 99
6, 363120, Note_on_c, 0, 80, 68
6, 363359, Note_on_c, 0, 82, 0
6, 363359, Note_on_c, 0, 80, 0
6, 363360, Note_on_c, 0, 89, 68
6, 363360, Control_c, 0, 11, 101
6, 363360, Note_on_c, 0, 82, 68
6, 363584, Note_on_c, 0, 89, 0
6, 363584, Note_on_c, 0, 82, 0
6, 363600, Control_c, 0, 11, 104
6, 363600, Note_on_c, 0, 89, 68
6, 363600, Note_on_c, 0, 82, 68
6, 363839, Note_on_c, 0, 89, 0
6, 363839, Note_on_c, 0, 82, 0
6, 363840, Control_c, 0, 11, 106
6, 364080, Control_c, 0, 11, 109
6, 364320, Note_on_c, 0, 82, 68
6, 364320, Note_on_c, 0, 80, 68
6, 364320, Control_c, 0, 11, 112
6, 364560, Control_c, 0, 11, 114
6, 364799, Note_on_c, 0, 82, 0
6, 364799, Note_on_c, 0, 80, 0
6, 364800, Control_c, 0, 11, 117
6, 364800, Note_on_c, 0, 89, 68
6, 364800, Note_on_c, 0, 82, 68
6, 365039, Note_on_c, 0, 89, 0
6, 365039, Note_on_c, 0, 82, 0
6, 365040, Control_c, 0, 11, 119
6, 365040, Note_on_c, 0, 80, 68
6, 365040, Note_on_c, 0, 82, 68
6, 365280, Control_c, 0, 11, 122
6, 365519, Note_on_c, 0, 80, 0
6, 365519, Note_on_c, 0, 82, 0
6, 365520, Note_on_c, 0, 80, 68
6, 365520, Note_on_c, 0, 77, 68
6, 365520, Control_c, 0, 11, 124
6, 365759, Note_on_c, 0, 80, 0
6, 365759, Note_on_c, 0, 77, 0
6, 365760, Control_c, 0, 11, 127
6, 366480, Note_on_c, 0, 87, 76
6, 366480, Note_on_c, 0, 75, 76
6, 366959, Note_on_c, 0, 87, 0
6, 366959, Note_on_c, 0, 75, 0
6, 366960, Note_on_c, 0, 90, 68
6, 366960, Note_on_c, 0, 78, 68
6, 367199, Note_on_c, 0, 90, 0
6, 367199, Note_on_c, 0, 78, 0
6, 367920, Note_on_c, 0, 87, 76
6, 367920, Note_on_c, 0, 75, 76
6, 368399, Note_on_c, 0, 87, 0
6, 368399, Note_on_c, 0, 75, 0
6, 368400, Note_on_c, 0, 90, 68
6, 368400, Note_on_c, 0, 78, 68
6, 368624, Note_on_c, 0, 90, 0
6, 368624, Note_on_c, 0, 78, 0
6, 368640, Note_on_c, 0, 90, 84
6, 368640, Note_on_c, 0, 87, 84
6, 370304, Note_on_c, 0, 90, 0
6, 370304, Note_on_c, 0, 87, 0
6, 370320, Note_on_c, 0, 90, 84
6, 370320, Note_on_c, 0, 87, 84
6, 370544, Note_on_c, 0, 90, 0
6, 370544, Note_on_c, 0, 87, 0
6, 370560, Note_on_c, 0, 90, 84
6, 370560, Note_on_c, 0, 87, 84
6, 370784, Note_on_c, 0, 90, 0
6, 370784, Note_on_c, 0, 87, 0
6, 370800, Note_on_c, 0, 90, 84
6, 370800, Note_on_c, 0, 87, 84
6, 371024, Note_on_c, 0, 90, 0
6, 371024, Note_on_c, 0, 87, 0
6, 371040, Note_on_c, 0, 90, 84
6, 371040, Note_on_c, 0, 87, 84
6, 371264, Note_on_c, 0, 90, 0
6, 371264, Note_on_c, 0, 87, 0
6, 371280, Note_on_c, 0, 90, 84
6, 371280, Note_on_c, 0, 87, 84
6, 371504, Note_on_c, 0, 90, 0
6, 371504, Note_on_c, 0, 87, 0
6, 371520, Note_on_c, 0, 90, 84
6, 371520, Note_on_c, 0, 87, 84
6, 371759, Note_on_c, 0, 90, 0
6, 371759, Note_on_c, 0, 87, 0
6, 393120, Note_on_c, 0, 86, 76
6, 393120, Note_on_c, 0, 80, 76
6, 393824, Note_on_c, 0, 86, 0
6, 393824, Note_on_c, 0, 80, 0
6, 393840, Note_on_c, 0, 89, 84
6, 393840, Note_on_c, 0, 80, 84
6, 394544, Note_on_c, 0, 89, 0
6, 394544, Note_on_c, 0, 80, 0
6, 394560, Note_on_c, 0, 87, 84
6, 394560, Note_on_c, 0, 79, 84
6, 394799, Note_on_c, 0, 87, 0
6, 394799, Note_on_c, 0, 79, 0
6, 407520, Note_on_c, 0, 73, 48
6, 407999, Note_on_c, 0, 73, 0
6, 408000, Note_on_c, 0, 77, 48
6, 408239, Note_on_c, 0, 77, 0
6, 408240, Note_on_c, 0, 73, 48
6, 408719, Note_on_c, 0, 73, 0
6, 408720, Note_on_c, 0, 68, 48
6, 408944, Note_on_c, 0, 68, 0
6, 408960, Note_on_c, 0, 73, 48
6, 409199, Note_on_c, 0, 73, 0
6, 409200, Note_on_c, 0, 77, 48
6, 409439, Note_on_c, 0, 77, 0
6, 409440, Note_on_c, 0, 80, 48
6, 409664, Note_on_c, 0, 80, 0
6, 409680, Note_on_c, 0, 80, 48
6, 410609, Note_on_c, 0, 80, 0
6, 410625, Control_c, 0, 11, 96
6, 410640, Note_on_c, 0, 80, 64
6, 410864, Note_on_c, 0, 80, 0
6, 410880, Note_on_c, 0, 80, 64
6, 411104, Note_on_c, 0, 80, 0
6, 411120, Note_on_c, 0, 80, 68
6, 411840, Control_c, 0, 11, 96
6, 411900, Control_c, 0, 11, 99
6, 411960, Control_c, 0, 11, 101
6, 412020, Control_c, 0, 11, 104
6, 412080, Control_c, 0, 11, 106
6, 412140, Control_c, 0, 11, 109
6, 412200, Control_c, 0, 11, 112
6, 412260, Control_c, 0, 11, 114
6, 412320, Control_c, 0, 11, 117
6, 412380, Control_c, 0, 11, 119
6, 412440, Control_c, 0, 11, 122
6, 412500, Control_c, 0, 11, 124
6, 412560, Control_c, 0, 11, 127
6, 412620, Control_c, 0, 11, 123
6, 412680, Control_c, 0, 11, 119
6, 412740, Control_c, 0, 11, 115
6, 412800, Control_c, 0, 11, 111
6, 412860, Control_c, 0, 11, 107
6, 412920, Control_c, 0, 11, 104
6, 412980, Control_c, 0, 11, 100
6, 413040, Control_c, 0, 11, 96
6, 413100, Control_c, 0, 11, 92
6, 413160, Control_c, 0, 11, 88
6, 413220, Control_c, 0, 11, 84
6, 413280, Control_c, 0, 11, 80
6, 413489, Note_on_c, 0, 80, 0
6, 413505, Control_c, 0, 11, 64
6, 413520, Note_on_c, 0, 70, 76
6, 413759, Note_on_c, 0, 70, 0
6, 413760, Note_on_c, 0, 74, 76
6, 413999, Note_on_c, 0, 74, 0
6, 414000, Note_on_c, 0, 70, 76
6, 414479, Note_on_c, 0, 70, 0
6, 414480, Note_on_c, 0, 65, 76
6, 414704, Note_on_c, 0, 65, 0
6, 414720, Note_on_c, 0, 70, 76
6, 414720, Control_c, 0, 11, 64
6, 414809, Note_on_c, 0, 70, 0
6, 414840, Control_c, 0, 11, 67
6, 414840, Note_on_c, 0, 74, 76
6, 414929, Note_on_c, 0, 74, 0
6, 414960, Control_c, 0, 11, 69
6, 414960, Note_on_c, 0, 77, 76
6, 415049, Note_on_c, 0, 77, 0
6, 415080, Note_on_c, 0, 70, 76
6, 415080, Control_c, 0, 11, 72
6, 415169, Note_on_c, 0, 70, 0
6, 415200, Control_c, 0, 11, 75
6, 415200, Note_on_c, 0, 74, 76
6, 415289, Note_on_c, 0, 74, 0
6, 415320, Control_c, 0, 11, 77
6, 415320, Note_on_c, 0, 77, 76
6, 415409, Note_on_c, 0, 77, 0
6, 415440, Note_on_c, 0, 80, 76
6, 415440, Control_c, 0, 11, 80
6, 415529, Note_on_c, 0, 80, 0
6, 415560, Control_c, 0, 11, 82
6, 415560, Note_on_c, 0, 74, 76
6, 415649, Note_on_c, 0, 74, 0
6, 415680, Control_c, 0, 11, 85
6, 415680, Note_on_c, 0, 77, 76
6, 415769, Note_on_c, 0, 77, 0
6, 415800, Note_on_c, 0, 80, 76
6, 415800, Control_c, 0, 11, 88
6, 415889, Note_on_c, 0, 80, 0
6, 415920, Control_c, 0, 11, 90
6, 415920, Note_on_c, 0, 84, 76
6, 416009, Note_on_c, 0, 84, 0
6, 416040, Control_c, 0, 11, 93
6, 416040, Note_on_c, 0, 82, 76
6, 416129, Note_on_c, 0, 82, 0
6, 416160, Note_on_c, 0, 80, 76
6, 416160, Control_c, 0, 11, 96
6, 416249, Note_on_c, 0, 80, 0
6, 416280, Control_c, 0, 11, 98
6, 416280, Note_on_c, 0, 82, 76
6, 416369, Note_on_c, 0, 82, 0
6, 416400, Control_c, 0, 11, 101
6, 416400, Note_on_c, 0, 80, 76
6, 416489, Note_on_c, 0, 80, 0
6, 416520, Note_on_c, 0, 79, 76
6, 416520, Control_c, 0, 11, 103
6, 416609, Note_on_c, 0, 79, 0
6, 416640, Control_c, 0, 11, 106
6, 416640, Note_on_c, 0, 80, 76
6, 416640, Note_on_c, 0, 82, 76
6, 416729, Note_on_c, 0, 80, 0
6, 416729, Note_on_c, 0, 82, 0
6, 416760, Note_on_c, 0, 84, 76
6, 416760, Control_c, 0, 11, 109
6, 416760, Note_on_c, 0, 79, 76
6, 416849, Note_on_c, 0, 84, 0
6, 416849, Note_on_c, 0, 79, 0
6, 416880, Control_c, 0, 11, 111
6, 416880, Note_on_c, 0, 86, 76
6, 416880, Note_on_c, 0, 77, 76
6, 416969, Note_on_c, 0, 86, 0
6, 416969, Note_on_c, 0, 77, 0
6, 417000, Control_c, 0, 11, 114
6, 417000, Note_on_c, 0, 75, 76
6, 417000, Note_on_c, 0, 87, 76
6, 417089, Note_on_c, 0, 75, 0
6, 417089, Note_on_c, 0, 87, 0
6, 417120, Note_on_c, 0, 89, 76
6, 417120, Control_c, 0, 11, 117
6, 417120, Note_on_c, 0, 74, 76
6, 417209, Note_on_c, 0, 89, 0
6, 417209, Note_on_c, 0, 74, 0
6, 417240, Note_on_c, 0, 75, 76
6, 417240, Note_on_c, 0, 91, 76
6, 417240, Control_c, 0, 11, 119
6, 417329, Note_on_c, 0, 75, 0
6, 417329, Note_on_c, 0, 91, 0
6, 417360, Control_c, 0, 11, 122
6, 417360, Note_on_c, 0, 77, 76
6, 417360, Note_on_c, 0, 92, 76
6, 417449, Note_on_c, 0, 77, 0
6, 417449, Note_on_c, 0, 92, 0
6, 417480, Note_on_c, 0, 86, 76
6, 417480, Control_c, 0, 11, 127
6, 417480, Note_on_c, 0, 80, 76
6, 417569, Note_on_c, 0, 86, 0
6, 417569, Note_on_c, 0, 80, 0
6, 417600, Note_on_c, 0, 79, 76
6, 417600, Note_on_c, 0, 87, 76
6, 417839, Note_on_c, 0, 79, 0
6, 417840, Note_on_c, 0, 75, 76
6, 418079, Note_on_c, 0, 87, 0
6, 418079, Note_on_c, 0, 75, 0
6, 418080, Note_on_c, 0, 79, 76
6, 418080, Note_on_c, 0, 91, 76
6, 418319, Note_on_c, 0, 79, 0
6, 418319, Note_on_c, 0, 91, 0
6, 418320, Note_on_c, 0, 87, 76
6, 418320, Note_on_c, 0, 75, 76
6, 418799, Note_on_c, 0, 87, 0
6, 418799, Note_on_c, 0, 75, 0
6, 418800, Note_on_c, 0, 70, 76
6, 418800, Note_on_c, 0, 82, 76
6, 419024, Note_on_c, 0, 70, 0
6, 419024, Note_on_c, 0, 82, 0
6, 419040, Note_on_c, 0, 87, 76
6, 419040, Note_on_c, 0, 75, 76
6, 419264, Note_on_c, 0, 87, 0
6, 419264, Note_on_c, 0, 75, 0
6, 419280, Note_on_c, 0, 87, 76
6, 419504, Note_on_c, 0, 87, 0
6, 419520, Note_on_c, 0, 87, 76
6, 419744, Note_on_c, 0, 87, 0
6, 419760, Note_on_c, 0, 87, 76
6, 420224, Note_on_c, 0, 87, 0
6, 420240, Note_on_c, 0, 88, 84
6, 420240, Note_on_c, 0, 82, 84
6, 420464, Note_on_c, 0, 88, 0
6, 420464, Note_on_c, 0, 82, 0
6, 420480, Note_on_c, 0, 89, 76
6, 420480, Note_on_c, 0, 80, 76
6, 420704, Note_on_c, 0, 89, 0
6, 420704, Note_on_c, 0, 80, 0
6, 420720, Note_on_c, 0, 89, 76
6, 420720, Note_on_c, 0, 80, 76
6, 420944, Note_on_c, 0, 89, 0
6, 420944, Note_on_c, 0, 80, 0
6, 420960, Note_on_c, 0, 89, 76
6, 420960, Note_on_c, 0, 80, 76
6, 421184, Note_on_c, 0, 89, 0
6, 421184, Note_on_c, 0, 80, 0
6, 421200, Note_on_c, 0, 89, 76
6, 421200, Note_on_c, 0, 80, 76
6, 421664, Note_on_c, 0, 89, 0
6, 421664, Note_on_c, 0, 80, 0
6, 421680, Note_on_c, 0, 90, 84
6, 421680, Note_on_c, 0, 81, 84
6, 421904, Note_on_c, 0, 90, 0
6, 421904, Note_on_c, 0, 81, 0
6, 421920, Note_on_c, 0, 91, 80
6, 421920, Note_on_c, 0, 82, 80
6, 422624, Note_on_c, 0, 91, 0
6, 422624, Note_on_c, 0, 82, 0
6, 422640, Note_on_c, 0, 92, 80
6, 422640, Note_on_c, 0, 84, 80
6, 423344, Note_on_c, 0, 92, 0
6, 423344, Note_on_c, 0, 84, 0
6, 423360, Note_on_c, 0, 92, 80
6, 423360, Note_on_c, 0, 86, 80
6, 424304, Note_on_c, 0, 92, 0
6, 424304, Note_on_c, 0, 86, 0
6, 424320, Note_on_c, 0, 92, 80
6, 424320, Note_on_c, 0, 86, 80
6, 424544, Note_on_c, 0, 92, 0
6, 424544, Note_on_c, 0, 86, 0
6, 424560, Note_on_c, 0, 92, 80
6, 424560, Note_on_c, 0, 86, 80
6, 424784, Note_on_c, 0, 92, 0
6, 424784, Note_on_c, 0, 86, 0
6, 424800, Note_on_c, 0, 91, 84
6, 424800, Note_on_c, 0, 87, 84
6, 425264, Note_on_c, 0, 91, 0
6, 425264, Note_on_c, 0, 87, 0
6, 425280, Note_on_c, 0, 91, 92
6, 425280, Note_on_c, 0, 87, 92
6, 425504, Note_on_c, 0, 91, 0
6, 425504, Note_on_c, 0, 87, 0
6, 425520, Note_on_c, 0, 91, 84
6, 425520, Note_on_c, 0, 87, 84
6, 425984, Note_on_c, 0, 91, 0
6, 425984, Note_on_c, 0, 87, 0
6, 426000, Note_on_c, 0, 91, 92
6, 426000, Note_on_c, 0, 87, 92
6, 426464, Note_on_c, 0, 91, 0
6, 426464, Note_on_c, 0, 87, 0
6, 426480, Note_on_c, 0, 91, 84
6, 426480, Note_on_c, 0, 87, 84
6, 426704, Note_on_c, 0, 91, 0
6, 426704, Note_on_c, 0, 87, 0
6, 426720, Note_on_c, 0, 91, 84
6, 426720, Note_on_c, 0, 87, 84
6, 426944, Note_on_c, 0, 91, 0
6, 426944, Note_on_c, 0, 87, 0
6, 426960, Note_on_c, 0, 91, 84
6, 426960, Note_on_c, 0, 87, 84
6, 427424, Note_on_c, 0, 91, 0
6, 427424, Note_on_c, 0, 87, 0
6, 427440, Note_on_c, 0, 91, 92
6, 427440, Note_on_c, 0, 87, 92
6, 427904, Note_on_c, 0, 91, 0
6, 427904, Note_on_c, 0, 87, 0
6, 427920, Note_on_c, 0, 91, 84
6, 427920, Note_on_c, 0, 87, 84
6, 428144, Note_on_c, 0, 91, 0
6, 428144, Note_on_c, 0, 87, 0
6, 428160, Note_on_c, 0, 91, 84
6, 428160, Note_on_c, 0, 87, 84
6, 428384, Note_on_c, 0, 91, 0
6, 428384, Note_on_c, 0, 87, 0
6, 428400, Note_on_c, 0, 91, 84
6, 428400, Note_on_c, 0, 87, 84
6, 428864, Note_on_c, 0, 87, 0
6, 428880, Note_on_c, 0, 88, 92
6, 429104, Note_on_c, 0, 91, 0
6, 429104, Note_on_c, 0, 88, 0
6, 429120, Note_on_c, 0, 84, 84
6, 429120, Note_on_c, 0, 91, 84
6, 429239, Note_on_c, 0, 91, 0
6, 429240, Note_on_c, 0, 89, 84
6, 429359, Note_on_c, 0, 89, 0
6, 429360, Note_on_c, 0, 88, 84
6, 429479, Note_on_c, 0, 88, 0
6, 429480, Note_on_c, 0, 89, 84
6, 429599, Note_on_c, 0, 89, 0
6, 429600, Note_on_c, 0, 91, 84
6, 429719, Note_on_c, 0, 91, 0
6, 429720, Note_on_c, 0, 89, 84
6, 429824, Note_on_c, 0, 84, 0
6, 429824, Note_on_c, 0, 89, 0
6, 429840, Note_on_c, 0, 84, 84
6, 429840, Note_on_c, 0, 89, 84
6, 429959, Note_on_c, 0, 89, 0
6, 429960, Note_on_c, 0, 87, 84
6, 430079, Note_on_c, 0, 87, 0
6, 430080, Note_on_c, 0, 86, 84
6, 430199, Note_on_c, 0, 86, 0
6, 430200, Note_on_c, 0, 87, 84
6, 430319, Note_on_c, 0, 87, 0
6, 430320, Note_on_c, 0, 89, 84
6, 430439, Note_on_c, 0, 89, 0
6, 430440, Note_on_c, 0, 87, 84
6, 430544, Note_on_c, 0, 84, 0
6, 430559, Note_on_c, 0, 87, 0
6, 430560, Note_on_c, 0, 86, 84
6, 430560, Note_on_c, 0, 77, 84
6, 430784, Note_on_c, 0, 86, 0
6, 430784, Note_on_c, 0, 77, 0
6, 430800, Note_on_c, 0, 84, 52
6, 431159, Note_on_c, 0, 84, 0
6, 431160, Note_on_c, 0, 82, 52
6, 431279, Note_on_c, 0, 82, 0
6, 431280, Note_on_c, 0, 81, 52
6, 431519, Note_on_c, 0, 81, 0
6, 433680, Note_on_c, 0, 84, 52
6, 434039, Note_on_c, 0, 84, 0
6, 434040, Note_on_c, 0, 82, 52
6, 434159, Note_on_c, 0, 82, 0
6, 434160, Note_on_c, 0, 81, 52
6, 434399, Note_on_c, 0, 81, 0
6, 437280, Note_on_c, 0, 83, 68
6, 437639, Note_on_c, 0, 83, 0
6, 437640, Note_on_c, 0, 82, 52
6, 437759, Note_on_c, 0, 82, 0
6, 437760, Note_on_c, 0, 80, 52
6, 437984, Note_on_c, 0, 80, 0
6, 438000, Note_on_c, 0, 84, 84
6, 438344, Note_on_c, 0, 84, 0
6, 438360, Note_on_c, 0, 82, 84
6, 438449, Note_on_c, 0, 82, 0
6, 438480, Note_on_c, 0, 80, 84
6, 438659, Note_on_c, 0, 80, 0
6, 438720, Note_on_c, 0, 79, 84
6, 438899, Note_on_c, 0, 79, 0
6, 438960, Note_on_c, 0, 77, 84
6, 439139, Note_on_c, 0, 77, 0
6, 439200, Note_on_c, 0, 75, 52
6, 439439, Note_on_c, 0, 75, 0
6, 441840, Control_c, 0, 11, 80
6, 442080, Note_on_c, 0, 87, 76
6, 442080, Note_on_c, 0, 75, 76
6, 442080, Control_c, 0, 11, 80
6, 442200, Control_c, 0, 11, 82
6, 442320, Control_c, 0, 11, 84
6, 442440, Control_c, 0, 11, 86
6, 442560, Control_c, 0, 11, 88
6, 442680, Control_c, 0, 11, 90
6, 442800, Control_c, 0, 11, 92
6, 442920, Control_c, 0, 11, 94
6, 443040, Control_c, 0, 11, 96
6, 443160, Control_c, 0, 11, 98
6, 443280, Control_c, 0, 11, 100
6, 443400, Control_c, 0, 11, 102
6, 443520, Control_c, 0, 11, 104
6, 443609, Note_on_c, 0, 87, 0
6, 443609, Note_on_c, 0, 75, 0
6, 443640, Control_c, 0, 11, 105
6, 443640, Note_on_c, 0, 82, 76
6, 443729, Note_on_c, 0, 82, 0
6, 443760, Note_on_c, 0, 82, 76
6, 443760, Control_c, 0, 11, 107
6, 443849, Note_on_c, 0, 82, 0
6, 443880, Note_on_c, 0, 82, 76
6, 443880, Note_on_c, 0, 75, 76
6, 443880, Control_c, 0, 11, 109
6, 443969, Note_on_c, 0, 82, 0
6, 443969, Note_on_c, 0, 75, 0
6, 444000, Control_c, 0, 11, 111
6, 444000, Note_on_c, 0, 86, 76
6, 444000, Note_on_c, 0, 77, 76
6, 444089, Note_on_c, 0, 86, 0
6, 444089, Note_on_c, 0, 77, 0
6, 444120, Note_on_c, 0, 87, 76
6, 444120, Note_on_c, 0, 79, 76
6, 444120, Control_c, 0, 11, 113
6, 444209, Note_on_c, 0, 87, 0
6, 444209, Note_on_c, 0, 79, 0
6, 444240, Note_on_c, 0, 89, 76
6, 444240, Note_on_c, 0, 80, 76
6, 444240, Control_c, 0, 11, 115
6, 444359, Note_on_c, 0, 89, 0
6, 444359, Note_on_c, 0, 80, 0
6, 444360, Control_c, 0, 11, 117
6, 444360, Note_on_c, 0, 89, 76
6, 444360, Note_on_c, 0, 80, 76
6, 444479, Note_on_c, 0, 89, 0
6, 444479, Note_on_c, 0, 80, 0
6, 444480, Control_c, 0, 11, 119
6, 444480, Note_on_c, 0, 89, 76
6, 444480, Note_on_c, 0, 80, 76
6, 444599, Note_on_c, 0, 89, 0
6, 444599, Note_on_c, 0, 80, 0
6, 444600, Note_on_c, 0, 89, 76
6, 444600, Note_on_c, 0, 80, 76
6, 444600, Control_c, 0, 11, 121
6, 444719, Note_on_c, 0, 89, 0
6, 444719, Note_on_c, 0, 80, 0
6, 444720, Control_c, 0, 11, 123
6, 444720, Note_on_c, 0, 89, 76
6, 444720, Note_on_c, 0, 80, 76
6, 444839, Note_on_c, 0, 89, 0
6, 444839, Note_on_c, 0, 80, 0
6, 444840, Control_c, 0, 11, 127
6, 444840, Note_on_c, 0, 89, 76
6, 444840, Note_on_c, 0, 80, 76
6, 444959, Note_on_c, 0, 89, 0
6, 444959, Note_on_c, 0, 80, 0
6, 444960, Note_on_c, 0, 89, 76
6, 444960, Note_on_c, 0, 80, 76
6, 445139, Note_on_c, 0, 89, 0
6, 445139, Note_on_c, 0, 80, 0
6, 445200, Note_on_c, 0, 86, 76
6, 445200, Note_on_c, 0, 89, 76
6, 445379, Note_on_c, 0, 86, 0
6, 445379, Note_on_c, 0, 89, 0
6, 446280, Note_on_c, 0, 89, 76
6, 446280, Note_on_c, 0, 86, 76
6, 446384, Note_on_c, 0, 89, 0
6, 446384, Note_on_c, 0, 86, 0
6, 446400, Note_on_c, 0, 87, 76
6, 446400, Note_on_c, 0, 84, 76
6, 446579, Note_on_c, 0, 87, 0
6, 446579, Note_on_c, 0, 84, 0
6, 446640, Note_on_c, 0, 87, 76
6, 446640, Note_on_c, 0, 84, 76
6, 446819, Note_on_c, 0, 87, 0
6, 446819, Note_on_c, 0, 84, 0
6, 447720, Note_on_c, 0, 84, 76
6, 447720, Note_on_c, 0, 79, 76
6, 447824, Note_on_c, 0, 84, 0
6, 447824, Note_on_c, 0, 79, 0
6, 447840, Note_on_c, 0, 85, 76
6, 447840, Note_on_c, 0, 79, 76
6, 448019, Note_on_c, 0, 85, 0
6, 448019, Note_on_c, 0, 79, 0
6, 448080, Note_on_c, 0, 79, 76
6, 448080, Note_on_c, 0, 76, 76
6, 448259, Note_on_c, 0, 79, 0
6, 448259, Note_on_c, 0, 76, 0
6, 449160, Note_on_c, 0, 85, 76
6, 449160, Note_on_c, 0, 79, 76
6, 449249, Note_on_c, 0, 85, 0
6, 449249, Note_on_c, 0, 79, 0
6, 449280, Note_on_c, 0, 84, 76
6, 449280, Note_on_c, 0, 80, 76
6, 449369, Note_on_c, 0, 84, 0
6, 449369, Note_on_c, 0, 80, 0
6, 449400, Note_on_c, 0, 84, 76
6, 449400, Note_on_c, 0, 72, 76
6, 449624, Note_on_c, 0, 84, 0
6, 449624, Note_on_c, 0, 72, 0
6, 449640, Note_on_c, 0, 84, 76
6, 449640, Note_on_c, 0, 75, 76
6, 449729, Note_on_c, 0, 84, 0
6, 449729, Note_on_c, 0, 75, 0
6, 449760, Note_on_c, 0, 86, 76
6, 449760, Note_on_c, 0, 74, 76
6, 449849, Note_on_c, 0, 86, 0
6, 449849, Note_on_c, 0, 74, 0
6, 449880, Note_on_c, 0, 79, 76
6, 449880, Note_on_c, 0, 77, 76
6, 449969, Note_on_c, 0, 79, 0
6, 449969, Note_on_c, 0, 77, 0
6, 450000, Note_on_c, 0, 79, 76
6, 450000, Note_on_c, 0, 75, 76
6, 450089, Note_on_c, 0, 79, 0
6, 450089, Note_on_c, 0, 75, 0
6, 450120, Note_on_c, 0, 87, 76
6, 450120, Note_on_c, 0, 80, 76
6, 450344, Note_on_c, 0, 87, 0
6, 450344, Note_on_c, 0, 80, 0
6, 450360, Note_on_c, 0, 87, 76
6, 450360, Note_on_c, 0, 80, 76
6, 450449, Note_on_c, 0, 87, 0
6, 450449, Note_on_c, 0, 80, 0
6, 450480, Note_on_c, 0, 89, 76
6, 450480, Note_on_c, 0, 80, 76
6, 450569, Note_on_c, 0, 89, 0
6, 450569, Note_on_c, 0, 80, 0
6, 450600, Note_on_c, 0, 80, 76
6, 450600, Note_on_c, 0, 82, 76
6, 450689, Note_on_c, 0, 80, 0
6, 450689, Note_on_c, 0, 82, 0
6, 450720, Note_on_c, 0, 82, 76
6, 450720, Note_on_c, 0, 79, 76
6, 450944, Note_on_c, 0, 82, 0
6, 450944, Note_on_c, 0, 79, 0
6, 450960, Note_on_c, 0, 87, 76
6, 450960, Note_on_c, 0, 79, 76
6, 451184, Note_on_c, 0, 87, 0
6, 451199, Note_on_c, 0, 79, 0
6, 451200, Note_on_c, 0, 87, 76
6, 451200, Note_on_c, 0, 80, 76
6, 451424, Note_on_c, 0, 87, 0
6, 451424, Note_on_c, 0, 80, 0
6, 451440, Note_on_c, 0, 87, 76
6, 451440, Note_on_c, 0, 81, 76
6, 451664, Note_on_c, 0, 87, 0
6, 451679, Note_on_c, 0, 81, 0
6, 451680, Note_on_c, 0, 87, 76
6, 451680, Note_on_c, 0, 82, 76
6, 451904, Note_on_c, 0, 87, 0
6, 451919, Note_on_c, 0, 82, 0
6, 451920, Note_on_c, 0, 87, 76
6, 451920, Note_on_c, 0, 83, 76
6, 452144, Note_on_c, 0, 87, 0
6, 452144, Note_on_c, 0, 83, 0
6, 452160, Note_on_c, 0, 87, 76
6, 452160, Note_on_c, 0, 84, 76
6, 452639, Note_on_c, 0, 87, 0
6, 452640, Note_on_c, 0, 88, 76
6, 452879, Note_on_c, 0, 88, 0
6, 452880, Note_on_c, 0, 89, 76
6, 453119, Note_on_c, 0, 84, 0
6, 453119, Note_on_c, 0, 89, 0
6, 454800, Control_c, 0, 11, 112
6, 455040, Note_on_c, 0, 82, 84
6, 455040, Control_c, 0, 11, 112
6, 455136, Control_c, 0, 11, 113
6, 455232, Control_c, 0, 11, 114
6, 455328, Control_c, 0, 11, 115
6, 455424, Control_c, 0, 11, 116
6, 455520, Control_c, 0, 11, 117
6, 455616, Control_c, 0, 11, 118
6, 455712, Control_c, 0, 11, 119
6, 455808, Control_c, 0, 11, 120
6, 455904, Control_c, 0, 11, 121
6, 456000, Control_c, 0, 11, 122
6, 456096, Control_c, 0, 11, 123
6, 456192, Control_c, 0, 11, 124
6, 456288, Control_c, 0, 11, 125
6, 456384, Control_c, 0, 11, 127
6, 456569, Note_on_c, 0, 82, 0
6, 456600, Note_on_c, 0, 81, 84
6, 456689, Note_on_c, 0, 81, 0
6, 456720, Note_on_c, 0, 80, 84
6, 456809, Note_on_c, 0, 80, 0
6, 456840, Note_on_c, 0, 91, 84
6, 456840, Note_on_c, 0, 79, 84
6, 456929, Note_on_c, 0, 91, 0
6, 456929, Note_on_c, 0, 79, 0
6, 456960, Note_on_c, 0, 77, 84
6, 456960, Note_on_c, 0, 89, 84
6, 457049, Note_on_c, 0, 77, 0
6, 457049, Note_on_c, 0, 89, 0
6, 457080, Note_on_c, 0, 87, 84
6, 457080, Note_on_c, 0, 75, 84
6, 457169, Note_on_c, 0, 87, 0
6, 457169, Note_on_c, 0, 75, 0
6, 457200, Note_on_c, 0, 74, 84
6, 457200, Note_on_c, 0, 86, 84
6, 457289, Note_on_c, 0, 74, 0
6, 457289, Note_on_c, 0, 86, 0
6, 457320, Note_on_c, 0, 84, 84
6, 457320, Note_on_c, 0, 72, 84
6, 457409, Note_on_c, 0, 84, 0
6, 457409, Note_on_c, 0, 72, 0
6, 457440, Note_on_c, 0, 70, 84
6, 457440, Note_on_c, 0, 82, 84
6, 457529, Note_on_c, 0, 70, 0
6, 457529, Note_on_c, 0, 82, 0
6, 457560, Note_on_c, 0, 80, 84
6, 457649, Note_on_c, 0, 80, 0
6, 457680, Note_on_c, 0, 79, 84
6, 457769, Note_on_c, 0, 79, 0
6, 457800, Note_on_c, 0, 77, 84
6, 457889, Note_on_c, 0, 77, 0
6, 457920, Note_on_c, 0, 75, 84
6, 458159, Note_on_c, 0, 75, 0
6, 463440, Note_on_c, 0, 82, 76
6, 463680, Control_c, 0, 11, 127
6, 463740, Control_c, 0, 11, 124
6, 463800, Control_c, 0, 11, 122
6, 463860, Control_c, 0, 11, 119
6, 463919, Note_on_c, 0, 82, 0
6, 463920, Control_c, 0, 11, 117
6, 463920, Note_on_c, 0, 80, 68
6, 463980, Control_c, 0, 11, 114
6, 464039, Note_on_c, 0, 80, 0
6, 464040, Control_c, 0, 11, 112
6, 464040, Note_on_c, 0, 78, 68
6, 464100, Control_c, 0, 11, 109
6, 464159, Note_on_c, 0, 78, 0
6, 464160, Note_on_c, 0, 77, 68
6, 464160, Control_c, 0, 11, 106
6, 464220, Control_c, 0, 11, 104
6, 464279, Note_on_c, 0, 77, 0
6, 464280, Note_on_c, 0, 75, 68
6, 464280, Control_c, 0, 11, 101
6, 464340, Control_c, 0, 11, 99
6, 464399, Note_on_c, 0, 75, 0
6, 464400, Control_c, 0, 11, 96
6, 465280, Control_c, 0, 11, 115
6, 465360, Control_c, 0, 11, 117
6, 465360, Note_on_c, 0, 83, 68
6, 465440, Control_c, 0, 11, 118
6, 465520, Control_c, 0, 11, 120
6, 465569, Note_on_c, 0, 83, 0
6, 465600, Note_on_c, 0, 83, 68
6, 465600, Control_c, 0, 11, 122
6, 465680, Control_c, 0, 11, 124
6, 465760, Control_c, 0, 11, 127
6, 465809, Note_on_c, 0, 83, 0
6, 465840, Note_on_c, 0, 83, 76
6, 465960, Control_c, 0, 11, 112
6, 466010, Control_c, 0, 11, 109
6, 466060, Control_c, 0, 11, 107
6, 466110, Control_c, 0, 11, 104
6, 466160, Control_c, 0, 11, 101
6, 466210, Control_c, 0, 11, 99
6, 466260, Control_c, 0, 11, 96
6, 466310, Control_c, 0, 11, 93
6, 466360, Control_c, 0, 11, 91
6, 466410, Control_c, 0, 11, 88
6, 466460, Control_c, 0, 11, 85
6, 466510, Control_c, 0, 11, 80
6, 466559, Note_on_c, 0, 83, 0
6, 475200, Control_c, 0, 11, 127
6, 475680, Note_on_c, 0, 68, 60
6, 475769, Note_on_c, 0, 68, 0
6, 475800, Note_on_c, 0, 70, 62
6, 475889, Note_on_c, 0, 70, 0
6, 475920, Note_on_c, 0, 72, 64
6, 476009, Note_on_c, 0, 72, 0
6, 476040, Note_on_c, 0, 74, 66
6, 476129, Note_on_c, 0, 74, 0
6, 476160, Note_on_c, 0, 75, 68
6, 476249, Note_on_c, 0, 75, 0
6, 476280, Note_on_c, 0, 77, 70
6, 476369, Note_on_c, 0, 77, 0
6, 476400, Note_on_c, 0, 79, 72
6, 476489, Note_on_c, 0, 79, 0
6, 476520, Note_on_c, 0, 80, 74
6, 476609, Note_on_c, 0, 80, 0
6, 476640, Note_on_c, 0, 82, 76
6, 476864, Note_on_c, 0, 82, 0
6, 476880, Note_on_c, 0, 82, 84
6, 477329, Note_on_c, 0, 82, 0
6, 477600, Note_on_c, 0, 82, 84
6, 478049, Note_on_c, 0, 82, 0
6, 478320, Note_on_c, 0, 82, 84
6, 478769, Note_on_c, 0, 82, 0
6, 479040, Note_on_c, 0, 82, 84
6, 479249, Note_on_c, 0, 82, 0
6, 479280, Note_on_c, 0, 82, 76
6, 479504, Note_on_c, 0, 82, 0
6, 479520, Note_on_c, 0, 82, 84
6, 479699, Note_on_c, 0, 82, 0
6, 479760, Note_on_c, 0, 82, 92
6, 480089, Note_on_c, 0, 82, 0
6, 480120, Note_on_c, 0, 91, 84
6, 480120, Note_on_c, 0, 79, 84
6, 480224, Note_on_c, 0, 91, 0
6, 480224, Note_on_c, 0, 79, 0
6, 480240, Note_on_c, 0, 87, 84
6, 480240, Note_on_c, 0, 75, 84
6, 480419, Note_on_c, 0, 87, 0
6, 480419, Note_on_c, 0, 75, 0
6, 480480, Note_on_c, 0, 91, 92
6, 480480, Note_on_c, 0, 79, 92
6, 480809, Note_on_c, 0, 91, 0
6, 480809, Note_on_c, 0, 79, 0
6, 480840, Note_on_c, 0, 82, 84
6, 480840, Note_on_c, 0, 70, 84
6, 480944, Note_on_c, 0, 82, 0
6, 480944, Note_on_c, 0, 70, 0
6, 480960, Note_on_c, 0, 89, 84
6, 480960, Note_on_c, 0, 77, 84
6, 481139, Note_on_c, 0, 89, 0
6, 481139, Note_on_c, 0, 77, 0
6, 481200, Note_on_c, 0, 92, 92
6, 481200, Note_on_c, 0, 80, 92
6, 481529, Note_on_c, 0, 92, 0
6, 481529, Note_on_c, 0, 80, 0
6, 481560, Note_on_c, 0, 82, 84
6, 481560, Note_on_c, 0, 70, 84
6, 481664, Note_on_c, 0, 82, 0
6, 481664, Note_on_c, 0, 70, 0
6, 481680, Note_on_c, 0, 86, 84
6, 481680, Note_on_c, 0, 74, 84
6, 481859, Note_on_c, 0, 86, 0
6, 481859, Note_on_c, 0, 74, 0
6, 481920, Note_on_c, 0, 89, 92
6, 481920, Note_on_c, 0, 77, 92
6, 482249, Note_on_c, 0, 89, 0
6, 482249, Note_on_c, 0, 77, 0
6, 482280, Note_on_c, 0, 82, 84
6, 482280, Note_on_c, 0, 70, 84
6, 482384, Note_on_c, 0, 82, 0
6, 482384, Note_on_c, 0, 70, 0
6, 482400, Note_on_c, 0, 87, 84
6, 482400, Note_on_c, 0, 75, 84
6, 482999, Note_on_c, 0, 75, 0
6, 483000, Note_on_c, 0, 81, 84
6, 483119, Note_on_c, 0, 81, 0
6, 483120, Note_on_c, 0, 82, 84
6, 483359, Note_on_c, 0, 87, 0
6, 483359, Note_on_c, 0, 82, 0
6, 485880, Note_on_c, 0, 83, 84
6, 485880, Note_on_c, 0, 79, 84
6, 485984, Note_on_c, 0, 83, 0
6, 485984, Note_on_c, 0, 79, 0
6, 486000, Note_on_c, 0, 84, 84
6, 486000, Note_on_c, 0, 79, 84
6, 486089, Note_on_c, 0, 84, 0
6, 486089, Note_on_c, 0, 79, 0
6, 486120, Note_on_c, 0, 86, 84
6, 486120, Note_on_c, 0, 79, 84
6, 486209, Note_on_c, 0, 86, 0
6, 486209, Note_on_c, 0, 79, 0
6, 486240, Note_on_c, 0, 87, 84
6, 486240, Note_on_c, 0, 79, 84
6, 486329, Note_on_c, 0, 87, 0
6, 486329, Note_on_c, 0, 79, 0
6, 486360, Note_on_c, 0, 88, 84
6, 486360, Note_on_c, 0, 84, 84
6, 486449, Note_on_c, 0, 88, 0
6, 486449, Note_on_c, 0, 84, 0
6, 486480, Note_on_c, 0, 89, 84
6, 486480, Note_on_c, 0, 84, 84
6, 486569, Note_on_c, 0, 89, 0
6, 486569, Note_on_c, 0, 84, 0
6, 486600, Note_on_c, 0, 90, 84
6, 486600, Note_on_c, 0, 84, 84
6, 486689, Note_on_c, 0, 90, 0
6, 486689, Note_on_c, 0, 84, 0
6, 486720, Note_on_c, 0, 91, 84
6, 486720, Note_on_c, 0, 83, 84
6, 486899, Note_on_c, 0, 91, 0
6, 486899, Note_on_c, 0, 83, 0
6, 486960, Note_on_c, 0, 89, 84
6, 487139, Note_on_c, 0, 89, 0
6, 487200, Note_on_c, 0, 87, 84
6, 487379, Note_on_c, 0, 87, 0
6, 487680, Note_on_c, 0, 85, 84
6, 487859, Note_on_c, 0, 85, 0
6, 487920, Note_on_c, 0, 84, 84
6, 488099, Note_on_c, 0, 84, 0
6, 488400, Note_on_c, 0, 87, 84
6, 488579, Note_on_c, 0, 87, 0
6, 488640, Note_on_c, 0, 86, 84
6, 488819, Note_on_c, 0, 86, 0
6, 489120, Note_on_c, 0, 89, 84
6, 489299, Note_on_c, 0, 89, 0
6, 489360, Note_on_c, 0, 87, 84
6, 489539, Note_on_c, 0, 87, 0
6, 489840, Note_on_c, 0, 85, 84
6, 490019, Note_on_c, 0, 85, 0
6, 490080, Note_on_c, 0, 84, 84
6, 490259, Note_on_c, 0, 84, 0
6, 490560, Note_on_c, 0, 87, 92
6, 490739, Note_on_c, 0, 87, 0
6, 491040, Note_on_c, 0, 87, 92
6, 491219, Note_on_c, 0, 87, 0
6, 491520, Note_on_c, 0, 87, 92
6, 491699, Note_on_c, 0, 87, 0
6, 492000, Note_on_c, 0, 87, 92
6, 492179, Note_on_c, 0, 87, 0
6, 492480, Note_on_c, 0, 87, 92
6, 492659, Note_on_c, 0, 87, 0
6, 492960, Note_on_c, 0, 87, 92
6, 493139, Note_on_c, 0, 87, 0
6, 496560, Note_on_c, 0, 78, 52
6, 496739, Note_on_c, 0, 78, 0
6, 497040, Note_on_c, 0, 77, 52
6, 497219, Note_on_c, 0, 77, 0
6, 497520, Note_on_c, 0, 80, 52
6, 497699, Note_on_c, 0, 80, 0
6, 498000, Note_on_c, 0, 80, 52
6, 498179, Note_on_c, 0, 80, 0
6, 498480, Note_on_c, 0, 79, 52
6, 498659, Note_on_c, 0, 79, 0
6, 498720, Control_c, 0, 11, 64
6, 498960, Note_on_c, 0, 84, 84
6, 498960, Note_on_c, 0, 72, 84
6, 498960, Control_c, 0, 11, 64
6, 499050, Control_c, 0, 11, 67
6, 499140, Control_c, 0, 11, 69
6, 499230, Control_c, 0, 11, 72
6, 499320, Control_c, 0, 11, 75
6, 499410, Control_c, 0, 11, 77
6, 499500, Control_c, 0, 11, 80
6, 499590, Control_c, 0, 11, 82
6, 499680, Control_c, 0, 11, 85
6, 499770, Control_c, 0, 11, 88
6, 499860, Control_c, 0, 11, 90
6, 499950, Control_c, 0, 11, 93
6, 500024, Note_on_c, 0, 84, 0
6, 500024, Note_on_c, 0, 72, 0
6, 500040, Control_c, 0, 11, 96
6, 500040, Note_on_c, 0, 80, 84
6, 500040, Note_on_c, 0, 84, 84
6, 500130, Control_c, 0, 11, 98
6, 500159, Note_on_c, 0, 80, 0
6, 500159, Note_on_c, 0, 84, 0
6, 500160, Note_on_c, 0, 79, 84
6, 500160, Note_on_c, 0, 82, 84
6, 500220, Control_c, 0, 11, 101
6, 500279, Note_on_c, 0, 79, 0
6, 500279, Note_on_c, 0, 82, 0
6, 500280, Note_on_c, 0, 80, 84
6, 500280, Note_on_c, 0, 77, 84
6, 500310, Control_c, 0, 11, 103
6, 500384, Note_on_c, 0, 80, 0
6, 500384, Note_on_c, 0, 77, 0
6, 500400, Note_on_c, 0, 75, 84
6, 500400, Note_on_c, 0, 79, 84
6, 500400, Control_c, 0, 11, 106
6, 500489, Note_on_c, 0, 75, 0
6, 500489, Note_on_c, 0, 79, 0
6, 500490, Control_c, 0, 11, 109
6, 500520, Note_on_c, 0, 75, 84
6, 500580, Control_c, 0, 11, 111
6, 500609, Note_on_c, 0, 75, 0
6, 500640, Note_on_c, 0, 75, 84
6, 500640, Note_on_c, 0, 79, 84
6, 500670, Control_c, 0, 11, 114
6, 500729, Note_on_c, 0, 75, 0
6, 500729, Note_on_c, 0, 79, 0
6, 500760, Note_on_c, 0, 82, 84
6, 500760, Control_c, 0, 11, 117
6, 500760, Note_on_c, 0, 79, 84
6, 500849, Note_on_c, 0, 82, 0
6, 500849, Note_on_c, 0, 79, 0
6, 500850, Control_c, 0, 11, 119
6, 500880, Note_on_c, 0, 87, 84
6, 500880, Note_on_c, 0, 79, 84
6, 500940, Control_c, 0, 11, 122
6, 500969, Note_on_c, 0, 87, 0
6, 500969, Note_on_c, 0, 79, 0
6, 501000, Note_on_c, 0, 91, 84
6, 501000, Note_on_c, 0, 82, 84
6, 501030, Control_c, 0, 11, 127
6, 501089, Note_on_c, 0, 91, 0
6, 501089, Note_on_c, 0, 82, 0
6, 501120, Note_on_c, 0, 82, 84
6, 501824, Note_on_c, 0, 82, 0
6, 501840, Note_on_c, 0, 75, 76
6, 502079, Note_on_c, 0, 75, 0
6, 502560, Note_on_c, 0, 87, 76
6, 502799, Note_on_c, 0, 87, 0
6, 503280, Note_on_c, 0, 87, 76
6, 503519, Note_on_c, 0, 87, 0
6, 504000, Note_on_c, 0, 87, 76
6, 504000, Note_on_c, 0, 86, 76
6, 504179, Note_on_c, 0, 87, 0
6, 504179, Note_on_c, 0, 86, 0
6, 504240, Note_on_c, 0, 87, 76
6, 504240, Note_on_c, 0, 86, 76
6, 504419, Note_on_c, 0, 87, 0
6, 504419, Note_on_c, 0, 86, 0
6, 504480, Note_on_c, 0, 87, 76
6, 504480, Note_on_c, 0, 86, 76
6, 504659, Note_on_c, 0, 87, 0
6, 504659, Note_on_c, 0, 86, 0
6, 504720, Note_on_c, 0, 87, 76
6, 504959, Note_on_c, 0, 87, 0
6, 505800, Note_on_c, 0, 75, 52
6, 505919, Note_on_c, 0, 75, 0
6, 505920, Note_on_c, 0, 79, 52
6, 506039, Note_on_c, 0, 79, 0
6, 506040, Note_on_c, 0, 82, 52
6, 506144, Note_on_c, 0, 82, 0
6, 506160, Note_on_c, 0, 87, 52
6, 506639, Note_on_c, 0, 87, 0
6, 506640, Note_on_c, 0, 91, 52
6, 506879, Note_on_c, 0, 91, 0
6, 506880, Note_on_c, 0, 87, 52
6, 507359, Note_on_c, 0, 87, 0
6, 507360, Note_on_c, 0, 82, 52
6, 507599, Note_on_c, 0, 82, 0
6, 507600, Note_on_c, 0, 87, 52
6, 507839, Note_on_c, 0, 87, 0
6, 509040, Note_on_c, 0, 89, 76
6, 509040, Note_on_c, 0, 85, 76
6, 510479, Note_on_c, 0, 89, 0
6, 510479, Note_on_c, 0, 85, 0
6, 510480, Note_on_c, 0, 85, 52
6, 510719, Note_on_c, 0, 85, 0
6, 511920, Note_on_c, 0, 84, 84
6, 512024, Note_on_c, 0, 84, 0
6, 512040, Note_on_c, 0, 84, 84
6, 512144, Note_on_c, 0, 84, 0
6, 512160, Note_on_c, 0, 84, 84
6, 512264, Note_on_c, 0, 84, 0
6, 512280, Note_on_c, 0, 84, 84
6, 512384, Note_on_c, 0, 84, 0
6, 512400, Note_on_c, 0, 88, 84
6, 512504, Note_on_c, 0, 88, 0
6, 512520, Note_on_c, 0, 88, 84
6, 512624, Note_on_c, 0, 88, 0
6, 512640, Note_on_c, 0, 84, 84
6, 512744, Note_on_c, 0, 84, 0
6, 512760, Note_on_c, 0, 84, 84
6, 512864, Note_on_c, 0, 84, 0
6, 512880, Note_on_c, 0, 84, 84
6, 512984, Note_on_c, 0, 84, 0
6, 513000, Note_on_c, 0, 84, 84
6, 513104, Note_on_c, 0, 84, 0
6, 513120, Note_on_c, 0, 79, 84
6, 513224, Note_on_c, 0, 79, 0
6, 513240, Note_on_c, 0, 79, 84
6, 513344, Note_on_c, 0, 79, 0
6, 513360, Note_on_c, 0, 84, 52
6, 513599, Note_on_c, 0, 84, 0
6, 531120, Control_c, 0, 11, 96
6, 531360, Note_on_c, 0, 82, 68
6, 531360, Control_c, 0, 11, 96
6, 531420, Control_c, 0, 11, 99
6, 531480, Control_c, 0, 11, 101
6, 531540, Control_c, 0, 11, 104
6, 531600, Control_c, 0, 11, 106
6, 531660, Control_c, 0, 11, 109
6, 531720, Control_c, 0, 11, 112
6, 531780, Control_c, 0, 11, 114
6, 531840, Control_c, 0, 11, 117
6, 531900, Control_c, 0, 11, 119
6, 531960, Control_c, 0, 11, 122
6, 532078, Control_c, 0, 11, 96
6, 532304, Note_on_c, 0, 82, 0
6, 532320, Note_on_c, 0, 87, 68
6, 532559, Note_on_c, 0, 87, 0
6, 532560, Note_on_c, 0, 86, 68
6, 532799, Note_on_c, 0, 86, 0
6, 532800, Note_on_c, 0, 87, 84
6, 533159, Note_on_c, 0, 87, 0
6, 533160, Note_on_c, 0, 89, 68
6, 533279, Note_on_c, 0, 89, 0
6, 533280, Note_on_c, 0, 90, 68
6, 533504, Note_on_c, 0, 90, 0
6, 533520, Note_on_c, 0, 89, 68
6, 533759, Note_on_c, 0, 89, 0
6, 534480, Control_c, 0, 11, 127
6, 534600, Note_on_c, 0, 82, 52
6, 534719, Note_on_c, 0, 82, 0
6, 534720, Note_on_c, 0, 84, 52
6, 534839, Note_on_c, 0, 84, 0
6, 534840, Note_on_c, 0, 86, 52
6, 534944, Note_on_c, 0, 86, 0
6, 534960, Note_on_c, 0, 87, 52
6, 535184, Note_on_c, 0, 87, 0
6, 535200, Note_on_c, 0, 87, 52
6, 535439, Note_on_c, 0, 87, 0
6, 535440, Note_on_c, 0, 86, 52
6, 535679, Note_on_c, 0, 86, 0
6, 535680, Note_on_c, 0, 87, 68
6, 536039, Note_on_c, 0, 87, 0
6, 536040, Note_on_c, 0, 89, 52
6, 536159, Note_on_c, 0, 89, 0
6, 536160, Note_on_c, 0, 90, 52
6, 536384, Note_on_c, 0, 90, 0
6, 536400, Note_on_c, 0, 89, 52
6, 536639, Note_on_c, 0, 89, 0
6, 543600, Note_on_c, 0, 82, 44
6, 544799, Note_on_c, 0, 82, 0
6, 544800, Note_on_c, 0, 83, 44
6, 545039, Note_on_c, 0, 83, 0
6, 545040, Note_on_c, 0, 84, 44
6, 545279, Note_on_c, 0, 84, 0
6, 546480, Note_on_c, 0, 84, 44
6, 547679, Note_on_c, 0, 84, 0
6, 547680, Note_on_c, 0, 85, 44
6, 547919, Note_on_c, 0, 85, 0
6, 547920, Note_on_c, 0, 86, 44
6, 548159, Note_on_c, 0, 86, 0
6, 553680, Control_c, 0, 11, 96
6, 553920, Note_on_c, 0, 86, 68
6, 553920, Control_c, 0, 11, 96
6, 554020, Control_c, 0, 11, 99
6, 554120, Control_c, 0, 11, 101
6, 554220, Control_c, 0, 11, 104
6, 554320, Control_c, 0, 11, 106
6, 554420, Control_c, 0, 11, 109
6, 554520, Control_c, 0, 11, 112
6, 554620, Control_c, 0, 11, 114
6, 554624, Note_on_c, 0, 86, 0
6, 554640, Note_on_c, 0, 86, 68
6, 554720, Control_c, 0, 11, 117
6, 554820, Control_c, 0, 11, 119
6, 554920, Control_c, 0, 11, 122
6, 555020, Control_c, 0, 11, 124
6, 555120, Control_c, 0, 11, 127
6, 555240, Control_c, 0, 11, 124
6, 555344, Note_on_c, 0, 86, 0
6, 555360, Note_on_c, 0, 86, 68
6, 555360, Control_c, 0, 11, 122
6, 555480, Control_c, 0, 11, 119
6, 555584, Note_on_c, 0, 86, 0
6, 555600, Note_on_c, 0, 86, 68
6, 555600, Control_c, 0, 11, 117
6, 555720, Control_c, 0, 11, 114
6, 555824, Note_on_c, 0, 86, 0
6, 555840, Note_on_c, 0, 86, 68
6, 555840, Control_c, 0, 11, 112
6, 555960, Control_c, 0, 11, 109
6, 556079, Note_on_c, 0, 86, 0
6, 556080, Note_on_c, 0, 87, 68
6, 556080, Control_c, 0, 11, 106
6, 556200, Control_c, 0, 11, 104
6, 556319, Note_on_c, 0, 87, 0
6, 556320, Note_on_c, 0, 89, 68
6, 556320, Control_c, 0, 11, 101
6, 556440, Control_c, 0, 11, 96
6, 556679, Note_on_c, 0, 89, 0
6, 556680, Note_on_c, 0, 87, 68
6, 556799, Note_on_c, 0, 87, 0
6, 556800, Note_on_c, 0, 86, 68
6, 556919, Note_on_c, 0, 86, 0
6, 556920, Note_on_c, 0, 87, 68
6, 557039, Note_on_c, 0, 87, 0
6, 557040, Note_on_c, 0, 89, 68
6, 557159, Note_on_c, 0, 89, 0
6, 557160, Note_on_c, 0, 87, 68
6, 557279, Note_on_c, 0, 87, 0
6, 557400, Note_on_c, 0, 87, 68
6, 557519, Note_on_c, 0, 87, 0
6, 557520, Note_on_c, 0, 86, 68
6, 557639, Note_on_c, 0, 86, 0
6, 557640, Note_on_c, 0, 87, 68
6, 557759, Note_on_c, 0, 87, 0
6, 557760, Note_on_c, 0, 89, 68
6, 557879, Note_on_c, 0, 89, 0
6, 557880, Note_on_c, 0, 87, 68
6, 557999, Note_on_c, 0, 87, 0
6, 558120, Note_on_c, 0, 84, 68
6, 558239, Note_on_c, 0, 84, 0
6, 558240, Note_on_c, 0, 83, 68
6, 558359, Note_on_c, 0, 83, 0
6, 558360, Note_on_c, 0, 84, 68
6, 558479, Note_on_c, 0, 84, 0
6, 558480, Note_on_c, 0, 86, 68
6, 558599, Note_on_c, 0, 86, 0
6, 558600, Note_on_c, 0, 84, 68
6, 558719, Note_on_c, 0, 84, 0
6, 558840, Note_on_c, 0, 84, 68
6, 558959, Note_on_c, 0, 84, 0
6, 558960, Note_on_c, 0, 83, 68
6, 559079, Note_on_c, 0, 83, 0
6, 559080, Note_on_c, 0, 84, 68
6, 559199, Note_on_c, 0, 84, 0
6, 559200, Note_on_c, 0, 86, 68
6, 559319, Note_on_c, 0, 86, 0
6, 559320, Note_on_c, 0, 84, 68
6, 559439, Note_on_c, 0, 84, 0
6, 559440, Note_on_c, 0, 82, 68
6, 559440, Control_c, 0, 11, 96
6, 559620, Control_c, 0, 11, 99
6, 559800, Control_c, 0, 11, 101
6, 559980, Control_c, 0, 11, 104
6, 560160, Control_c, 0, 11, 106
6, 560340, Control_c, 0, 11, 109
6, 560384, Note_on_c, 0, 82, 0
6, 560400, Note_on_c, 0, 87, 68
6, 560400, Note_on_c, 0, 79, 68
6, 560520, Control_c, 0, 11, 112
6, 560579, Note_on_c, 0, 87, 0
6, 560579, Note_on_c, 0, 79, 0
6, 560640, Note_on_c, 0, 79, 68
6, 560640, Note_on_c, 0, 87, 68
6, 560700, Control_c, 0, 11, 114
6, 560819, Note_on_c, 0, 79, 0
6, 560819, Note_on_c, 0, 87, 0
6, 560880, Note_on_c, 0, 86, 68
6, 560880, Note_on_c, 0, 77, 68
6, 560880, Control_c, 0, 11, 117
6, 561059, Note_on_c, 0, 86, 0
6, 561059, Note_on_c, 0, 77, 0
6, 561060, Control_c, 0, 11, 119
6, 561120, Note_on_c, 0, 89, 68
6, 561120, Note_on_c, 0, 80, 68
6, 561240, Control_c, 0, 11, 122
6, 561299, Note_on_c, 0, 89, 0
6, 561299, Note_on_c, 0, 80, 0
6, 561360, Note_on_c, 0, 80, 68
6, 561360, Note_on_c, 0, 89, 68
6, 561420, Control_c, 0, 11, 127
6, 561539, Note_on_c, 0, 80, 0
6, 561539, Note_on_c, 0, 89, 0
6, 561600, Note_on_c, 0, 86, 52
6, 561600, Note_on_c, 0, 80, 52
6, 561779, Note_on_c, 0, 86, 0
6, 561779, Note_on_c, 0, 80, 0
6, 561840, Note_on_c, 0, 86, 52
6, 561840, Note_on_c, 0, 80, 52
6, 562019, Note_on_c, 0, 86, 0
6, 562019, Note_on_c, 0, 80, 0
6, 562080, Note_on_c, 0, 86, 52
6, 562080, Note_on_c, 0, 80, 52
6, 562259, Note_on_c, 0, 86, 0
6, 562259, Note_on_c, 0, 80, 0
6, 562320, Note_on_c, 0, 87, 52
6, 562320, Note_on_c, 0, 79, 52
6, 562499, Note_on_c, 0, 87, 0
6, 562499, Note_on_c, 0, 79, 0
6, 570960, Note_on_c, 0, 82, 52
6, 573944, Note_on_c, 0, 82, 0
6, 573960, Note_on_c, 0, 79, 52
6, 574019, Note_on_c, 0, 79, 0
6, 574020, Note_on_c, 0, 80, 52
6, 574079, Note_on_c, 0, 80, 0
6, 574080, Note_on_c, 0, 82, 52
6, 574169, Note_on_c, 0, 82, 0
6, 574200, Note_on_c, 0, 82, 52
6, 574289, Note_on_c, 0, 82, 0
6, 574320, Note_on_c, 0, 84, 53
6, 574409, Note_on_c, 0, 84, 0
6, 574440, Note_on_c, 0, 86, 53
6, 574529, Note_on_c, 0, 86, 0
6, 574560, Note_on_c, 0, 87, 54
6, 574649, Note_on_c, 0, 87, 0
6, 574680, Note_on_c, 0, 82, 54
6, 574769, Note_on_c, 0, 82, 0
6, 574800, Note_on_c, 0, 84, 55
6, 574889, Note_on_c, 0, 84, 0
6, 574920, Note_on_c, 0, 86, 55
6, 575009, Note_on_c, 0, 86, 0
6, 575040, Note_on_c, 0, 87, 56
6, 575129, Note_on_c, 0, 87, 0
6, 575160, Note_on_c, 0, 89, 56
6, 575249, Note_on_c, 0, 89, 0
6, 575280, Note_on_c, 0, 91, 73
6, 575369, Note_on_c, 0, 91, 0
6, 575400, Note_on_c, 0, 91, 57
6, 575459, Note_on_c, 0, 91, 0
6, 575460, Note_on_c, 0, 89, 58
6, 575519, Note_on_c, 0, 89, 0
6, 575520, Note_on_c, 0, 87, 58
6, 575609, Note_on_c, 0, 87, 0
6, 575640, Note_on_c, 0, 86, 58
6, 575729, Note_on_c, 0, 86, 0
6, 575760, Note_on_c, 0, 84, 59
6, 575849, Note_on_c, 0, 84, 0
6, 575880, Note_on_c, 0, 82, 59
6, 575969, Note_on_c, 0, 82, 0
6, 576000, Note_on_c, 0, 80, 60
6, 576089, Note_on_c, 0, 80, 0
6, 576120, Note_on_c, 0, 79, 60
6, 576209, Note_on_c, 0, 79, 0
6, 576240, Note_on_c, 0, 77, 61
6, 576329, Note_on_c, 0, 77, 0
6, 576360, Note_on_c, 0, 75, 61
6, 576449, Note_on_c, 0, 75, 0
6, 576480, Note_on_c, 0, 74, 62
6, 576569, Note_on_c, 0, 74, 0
6, 576600, Note_on_c, 0, 72, 62
6, 576689, Note_on_c, 0, 72, 0
6, 576720, Note_on_c, 0, 70, 63
6, 576809, Note_on_c, 0, 70, 0
6, 576840, Note_on_c, 0, 70, 64
6, 576899, Note_on_c, 0, 70, 0
6, 576900, Note_on_c, 0, 72, 64
6, 576959, Note_on_c, 0, 72, 0
6, 576960, Note_on_c, 0, 74, 64
6, 577079, Note_on_c, 0, 74, 0
6, 577080, Note_on_c, 0, 75, 65
6, 577169, Note_on_c, 0, 75, 0
6, 577200, Note_on_c, 0, 77, 65
6, 577289, Note_on_c, 0, 77, 0
6, 577320, Note_on_c, 0, 79, 66
6, 577409, Note_on_c, 0, 79, 0
6, 577440, Note_on_c, 0, 80, 66
6, 577529, Note_on_c, 0, 80, 0
6, 577560, Note_on_c, 0, 82, 67
6, 577560, Note_on_c, 0, 70, 67
6, 577619, Note_on_c, 0, 82, 0
6, 577619, Note_on_c, 0, 70, 0
6, 577620, Note_on_c, 0, 84, 67
6, 577620, Note_on_c, 0, 72, 67
6, 577679, Note_on_c, 0, 84, 0
6, 577679, Note_on_c, 0, 72, 0
6, 577680, Note_on_c, 0, 86, 67
6, 577680, Note_on_c, 0, 74, 67
6, 577769, Note_on_c, 0, 86, 0
6, 577769, Note_on_c, 0, 74, 0
6, 577800, Note_on_c, 0, 87, 68
6, 577800, Note_on_c, 0, 75, 68
6, 577889, Note_on_c, 0, 87, 0
6, 577889, Note_on_c, 0, 75, 0
6, 577920, Note_on_c, 0, 89, 68
6, 577920, Note_on_c, 0, 77, 68
6, 578009, Note_on_c, 0, 89, 0
6, 578009, Note_on_c, 0, 77, 0
6, 578040, Note_on_c, 0, 91, 69
6, 578040, Note_on_c, 0, 79, 69
6, 578129, Note_on_c, 0, 91, 0
6, 578129, Note_on_c, 0, 79, 0
6, 578160, Note_on_c, 0, 92, 77
6, 578160, Note_on_c, 0, 80, 77
6, 578249, Note_on_c, 0, 92, 0
6, 578249, Note_on_c, 0, 80, 0
6, 578280, Note_on_c, 0, 91, 70
6, 578280, Note_on_c, 0, 79, 70
6, 578369, Note_on_c, 0, 91, 0
6, 578369, Note_on_c, 0, 79, 0
6, 578400, Note_on_c, 0, 89, 70
6, 578400, Note_on_c, 0, 77, 70
6, 578489, Note_on_c, 0, 89, 0
6, 578489, Note_on_c, 0, 77, 0
6, 578520, Note_on_c, 0, 87, 71
6, 578609, Note_on_c, 0, 87, 0
6, 578640, Note_on_c, 0, 86, 71
6, 578729, Note_on_c, 0, 86, 0
6, 578760, Note_on_c, 0, 84, 72
6, 578849, Note_on_c, 0, 84, 0
6, 578880, Note_on_c, 0, 82, 72
6, 578969, Note_on_c, 0, 82, 0
6, 579000, Note_on_c, 0, 84, 73
6, 579089, Note_on_c, 0, 84, 0
6, 579120, Note_on_c, 0, 82, 73
6, 579209, Note_on_c, 0, 82, 0
6, 579240, Note_on_c, 0, 80, 74
6, 579329, Note_on_c, 0, 80, 0
6, 579360, Note_on_c, 0, 79, 74
6, 579449, Note_on_c, 0, 79, 0
6, 579480, Note_on_c, 0, 77, 75
6, 579569, Note_on_c, 0, 77, 0
6, 579600, Note_on_c, 0, 75, 76
6, 579704, Note_on_c, 0, 75, 0
6, 579720, Note_on_c, 0, 87, 76
6, 579824, Note_on_c, 0, 87, 0
6, 579840, Note_on_c, 0, 87, 76
6, 579944, Note_on_c, 0, 87, 0
6, 579960, Note_on_c, 0, 87, 76
6, 580064, Note_on_c, 0, 87, 0
6, 580080, Note_on_c, 0, 91, 76
6, 580184, Note_on_c, 0, 91, 0
6, 580200, Note_on_c, 0, 91, 76
6, 580304, Note_on_c, 0, 91, 0
6, 580320, Note_on_c, 0, 87, 76
6, 580424, Note_on_c, 0, 87, 0
6, 580440, Note_on_c, 0, 87, 76
6, 580544, Note_on_c, 0, 87, 0
6, 580560, Note_on_c, 0, 87, 76
6, 580664, Note_on_c, 0, 87, 0
6, 580680, Note_on_c, 0, 87, 76
6, 580784, Note_on_c, 0, 87, 0
6, 580800, Note_on_c, 0, 82, 76
6, 580904, Note_on_c, 0, 82, 0
6, 580920, Note_on_c, 0, 82, 76
6, 581024, Note_on_c, 0, 82, 0
6, 581040, Note_on_c, 0, 87, 76
6, 581144, Note_on_c, 0, 87, 0
6, 581160, Note_on_c, 0, 87, 76
6, 581264, Note_on_c, 0, 87, 0
6, 581280, Note_on_c, 0, 91, 76
6, 581384, Note_on_c, 0, 91, 0
6, 581400, Note_on_c, 0, 91, 76
6, 581504, Note_on_c, 0, 91, 0
6, 581520, Note_on_c, 0, 82, 76
6, 581624, Note_on_c, 0, 82, 0
6, 581640, Note_on_c, 0, 82, 76
6, 581744, Note_on_c, 0, 82, 0
6, 581760, Note_on_c, 0, 82, 76
6, 581864, Note_on_c, 0, 82, 0
6, 581880, Note_on_c, 0, 82, 76
6, 581984, Note_on_c, 0, 82, 0
6, 582000, Note_on_c, 0, 82, 76
6, 582104, Note_on_c, 0, 82, 0
6, 582120, Note_on_c, 0, 82, 76
6, 582224, Note_on_c, 0, 82, 0
6, 582240, Note_on_c, 0, 82, 76
6, 582344, Note_on_c, 0, 82, 0
6, 582360, Note_on_c, 0, 82, 76
6, 582464, Note_on_c, 0, 82, 0
6, 582480, Note_on_c, 0, 89, 76
6, 582480, Note_on_c, 0, 77, 76
6, 582584, Note_on_c, 0, 89, 0
6, 582584, Note_on_c, 0, 77, 0
6, 582600, Note_on_c, 0, 89, 76
6, 582600, Note_on_c, 0, 77, 76
6, 582704, Note_on_c, 0, 89, 0
6, 582704, Note_on_c, 0, 77, 0
6, 582720, Note_on_c, 0, 89, 76
6, 582720, Note_on_c, 0, 77, 76
6, 582824, Note_on_c, 0, 89, 0
6, 582824, Note_on_c, 0, 77, 0
6, 582840, Note_on_c, 0, 89, 76
6, 582840, Note_on_c, 0, 77, 76
6, 582944, Note_on_c, 0, 89, 0
6, 582944, Note_on_c, 0, 77, 0
6, 582960, Note_on_c, 0, 92, 76
6, 582960, Note_on_c, 0, 80, 76
6, 583064, Note_on_c, 0, 92, 0
6, 583064, Note_on_c, 0, 80, 0
6, 583080, Note_on_c, 0, 92, 76
6, 583080, Note_on_c, 0, 80, 76
6, 583184, Note_on_c, 0, 92, 0
6, 583184, Note_on_c, 0, 80, 0
6, 583200, Note_on_c, 0, 89, 76
6, 583200, Note_on_c, 0, 77, 76
6, 583304, Note_on_c, 0, 89, 0
6, 583304, Note_on_c, 0, 77, 0
6, 583320, Note_on_c, 0, 89, 76
6, 583320, Note_on_c, 0, 77, 76
6, 583424, Note_on_c, 0, 89, 0
6, 583424, Note_on_c, 0, 77, 0
6, 583440, Note_on_c, 0, 89, 76
6, 583440, Note_on_c, 0, 77, 76
6, 583544, Note_on_c, 0, 89, 0
6, 583544, Note_on_c, 0, 77, 0
6, 583560, Note_on_c, 0, 89, 76
6, 583560, Note_on_c, 0, 77, 76
6, 583664, Note_on_c, 0, 89, 0
6, 583664, Note_on_c, 0, 77, 0
6, 583680, Note_on_c, 0, 82, 76
6, 583680, Note_on_c, 0, 70, 76
6, 583784, Note_on_c, 0, 82, 0
6, 583784, Note_on_c, 0, 70, 0
6, 583800, Note_on_c, 0, 82, 76
6, 583800, Note_on_c, 0, 70, 76
6, 583904, Note_on_c, 0, 82, 0
6, 583904, Note_on_c, 0, 70, 0
6, 583920, Note_on_c, 0, 89, 76
6, 583920, Note_on_c, 0, 77, 76
6, 584024, Note_on_c, 0, 89, 0
6, 584024, Note_on_c, 0, 77, 0
6, 584040, Note_on_c, 0, 89, 76
6, 584040, Note_on_c, 0, 77, 76
6, 584144, Note_on_c, 0, 89, 0
6, 584144, Note_on_c, 0, 77, 0
6, 584160, Note_on_c, 0, 92, 76
6, 584160, Note_on_c, 0, 80, 76
6, 584264, Note_on_c, 0, 92, 0
6, 584264, Note_on_c, 0, 80, 0
6, 584280, Note_on_c, 0, 92, 76
6, 584280, Note_on_c, 0, 80, 76
6, 584384, Note_on_c, 0, 92, 0
6, 584384, Note_on_c, 0, 80, 0
6, 584400, Note_on_c, 0, 82, 76
6, 584504, Note_on_c, 0, 82, 0
6, 584520, Note_on_c, 0, 82, 76
6, 584624, Note_on_c, 0, 82, 0
6, 584640, Note_on_c, 0, 82, 76
6, 584744, Note_on_c, 0, 82, 0
6, 584760, Note_on_c, 0, 82, 76
6, 584864, Note_on_c, 0, 82, 0
6, 584880, Note_on_c, 0, 82, 76
6, 584984, Note_on_c, 0, 82, 0
6, 585000, Note_on_c, 0, 82, 76
6, 585104, Note_on_c, 0, 82, 0
6, 585120, Note_on_c, 0, 82, 76
6, 585224, Note_on_c, 0, 82, 0
6, 585240, Note_on_c, 0, 82, 76
6, 585344, Note_on_c, 0, 82, 0
6, 585360, Note_on_c, 0, 82, 76
6, 585464, Note_on_c, 0, 82, 0
6, 585480, Note_on_c, 0, 82, 76
6, 585584, Note_on_c, 0, 82, 0
6, 585600, Note_on_c, 0, 88, 76
6, 585600, Note_on_c, 0, 82, 76
6, 585704, Note_on_c, 0, 88, 0
6, 585704, Note_on_c, 0, 82, 0
6, 585720, Note_on_c, 0, 88, 76
6, 585720, Note_on_c, 0, 82, 76
6, 585824, Note_on_c, 0, 88, 0
6, 585824, Note_on_c, 0, 82, 0
6, 585840, Note_on_c, 0, 88, 76
6, 585840, Note_on_c, 0, 82, 76
6, 585944, Note_on_c, 0, 88, 0
6, 585944, Note_on_c, 0, 82, 0
6, 585960, Note_on_c, 0, 88, 76
6, 585960, Note_on_c, 0, 82, 76
6, 586064, Note_on_c, 0, 88, 0
6, 586064, Note_on_c, 0, 82, 0
6, 586080, Note_on_c, 0, 88, 76
6, 586080, Note_on_c, 0, 82, 76
6, 586784, Note_on_c, 0, 88, 0
6, 586784, Note_on_c, 0, 82, 0
6, 586800, Note_on_c, 0, 89, 76
6, 586800, Note_on_c, 0, 84, 76
6, 587024, Note_on_c, 0, 89, 0
6, 587024, Note_on_c, 0, 84, 0
6, 587040, Note_on_c, 0, 89, 84
6, 587040, Note_on_c, 0, 84, 84
6, 587519, Note_on_c, 0, 89, 0
6, 587519, Note_on_c, 0, 84, 0
6, 587760, Note_on_c, 0, 90, 84
6, 587760, Note_on_c, 0, 84, 84
6, 588239, Note_on_c, 0, 90, 0
6, 588239, Note_on_c, 0, 84, 0
6, 588480, Note_on_c, 0, 91, 84
6, 588480, Note_on_c, 0, 87, 84
6, 588959, Note_on_c, 0, 91, 0
6, 588959, Note_on_c, 0, 87, 0
6, 589200, Note_on_c, 0, 92, 76
6, 589200, Note_on_c, 0, 86, 76
6, 589679, Note_on_c, 0, 92, 0
6, 589679, Note_on_c, 0, 86, 0
6, 589920, Note_on_c, 0, 91, 76
6, 589920, Note_on_c, 0, 87, 76
6, 590399, Note_on_c, 0, 91, 0
6, 590399, Note_on_c, 0, 87, 0
6, 590640, Note_on_c, 0, 89, 76
6, 590640, Note_on_c, 0, 87, 76
6, 591104, Note_on_c, 0, 89, 0
6, 591104, Note_on_c, 0, 87, 0
6, 591120, Note_on_c, 0, 91, 84
6, 591120, Note_on_c, 0, 87, 84
6, 591824, Note_on_c, 0, 91, 0
6, 591824, Note_on_c, 0, 87, 0
6, 591840, Note_on_c, 0, 92, 84
6, 591840, Note_on_c, 0, 86, 84
6, 592304, Note_on_c, 0, 92, 0
6, 592320, Note_on_c, 0, 89, 84
6, 592544, Note_on_c, 0, 86, 0
6, 592544, Note_on_c, 0, 89, 0
6, 592560, Note_on_c, 0, 87, 52
6, 592560, Note_on_c, 0, 79, 52
6, 592799, Note_on_c, 0, 87, 0
6, 592799, Note_on_c, 0, 79, 0
6, 595200, Control_c, 0, 11, 80
6, 595440, Note_on_c, 0, 87, 76
6, 595440, Note_on_c, 0, 75, 76
6, 595440, Control_c, 0, 11, 80
6, 595520, Control_c, 0, 11, 81
6, 595600, Control_c, 0, 11, 83
6, 595680, Control_c, 0, 11, 84
6, 595760, Control_c, 0, 11, 85
6, 595840, Control_c, 0, 11, 87
6, 595920, Control_c, 0, 11, 88
6, 596000, Control_c, 0, 11, 89
6, 596080, Control_c, 0, 11, 90
6, 596160, Control_c, 0, 11, 92
6, 596240, Control_c, 0, 11, 93
6, 596320, Control_c, 0, 11, 94
6, 596400, Control_c, 0, 11, 96
6, 596480, Control_c, 0, 11, 97
6, 596560, Control_c, 0, 11, 98
6, 596640, Control_c, 0, 11, 100
6, 596720, Control_c, 0, 11, 101
6, 596800, Control_c, 0, 11, 102
6, 596880, Control_c, 0, 11, 104
6, 596960, Control_c, 0, 11, 105
6, 596969, Note_on_c, 0, 87, 0
6, 596969, Note_on_c, 0, 75, 0
6, 597000, Note_on_c, 0, 75, 76
6, 597000, Note_on_c, 0, 82, 76
6, 597040, Control_c, 0, 11, 106
6, 597089, Note_on_c, 0, 75, 0
6, 597089, Note_on_c, 0, 82, 0
6, 597120, Control_c, 0, 11, 107
6, 597120, Note_on_c, 0, 74, 76
6, 597120, Note_on_c, 0, 82, 76
6, 597200, Control_c, 0, 11, 109
6, 597209, Note_on_c, 0, 74, 0
6, 597209, Note_on_c, 0, 82, 0
6, 597240, Note_on_c, 0, 82, 76
6, 597240, Note_on_c, 0, 75, 76
6, 597280, Control_c, 0, 11, 110
6, 597329, Note_on_c, 0, 82, 0
6, 597329, Note_on_c, 0, 75, 0
6, 597360, Control_c, 0, 11, 111
6, 597360, Note_on_c, 0, 86, 76
6, 597360, Note_on_c, 0, 77, 76
6, 597440, Control_c, 0, 11, 113
6, 597449, Note_on_c, 0, 86, 0
6, 597449, Note_on_c, 0, 77, 0
6, 597480, Note_on_c, 0, 79, 76
6, 597480, Note_on_c, 0, 87, 76
6, 597520, Control_c, 0, 11, 114
6, 597569, Note_on_c, 0, 79, 0
6, 597569, Note_on_c, 0, 87, 0
6, 597600, Control_c, 0, 11, 115
6, 597600, Note_on_c, 0, 80, 76
6, 597600, Note_on_c, 0, 89, 76
6, 597680, Control_c, 0, 11, 117
6, 597689, Note_on_c, 0, 80, 0
6, 597689, Note_on_c, 0, 89, 0
6, 597720, Note_on_c, 0, 89, 76
6, 597720, Note_on_c, 0, 80, 76
6, 597760, Control_c, 0, 11, 118
6, 597809, Note_on_c, 0, 89, 0
6, 597809, Note_on_c, 0, 80, 0
6, 597840, Note_on_c, 0, 89, 76
6, 597840, Control_c, 0, 11, 119
6, 597840, Note_on_c, 0, 80, 76
6, 597920, Control_c, 0, 11, 120
6, 597929, Note_on_c, 0, 89, 0
6, 597929, Note_on_c, 0, 80, 0
6, 597960, Note_on_c, 0, 89, 76
6, 597960, Note_on_c, 0, 80, 76
6, 598000, Control_c, 0, 11, 122
6, 598049, Note_on_c, 0, 89, 0
6, 598049, Note_on_c, 0, 80, 0
6, 598080, Control_c, 0, 11, 123
6, 598080, Note_on_c, 0, 89, 76
6, 598080, Note_on_c, 0, 80, 76
6, 598160, Control_c, 0, 11, 124
6, 598169, Note_on_c, 0, 89, 0
6, 598169, Note_on_c, 0, 80, 0
6, 598200, Note_on_c, 0, 80, 76
6, 598200, Note_on_c, 0, 89, 76
6, 598240, Control_c, 0, 11, 127
6, 598289, Note_on_c, 0, 80, 0
6, 598289, Note_on_c, 0, 89, 0
6, 598320, Note_on_c, 0, 89, 76
6, 598320, Note_on_c, 0, 80, 76
6, 598544, Note_on_c, 0, 89, 0
6, 598544, Note_on_c, 0, 80, 0
6, 598560, Note_on_c, 0, 80, 76
6, 598560, Note_on_c, 0, 77, 76
6, 599264, Note_on_c, 0, 80, 0
6, 599264, Note_on_c, 0, 77, 0
6, 599280, Note_on_c, 0, 86, 76
6, 599280, Note_on_c, 0, 80, 76
6, 599984, Note_on_c, 0, 86, 0
6, 599984, Note_on_c, 0, 80, 0
6, 600000, Note_on_c, 0, 89, 76
6, 600000, Note_on_c, 0, 86, 76
6, 600464, Note_on_c, 0, 89, 0
6, 600464, Note_on_c, 0, 86, 0
6, 600480, Note_on_c, 0, 89, 76
6, 600480, Note_on_c, 0, 86, 76
6, 600944, Note_on_c, 0, 89, 0
6, 600944, Note_on_c, 0, 86, 0
6, 600960, Note_on_c, 0, 86, 76
6, 600960, Note_on_c, 0, 89, 76
6, 601139, Note_on_c, 0, 86, 0
6, 601139, Note_on_c, 0, 89, 0
6, 601200, Note_on_c, 0, 89, 84
6, 601200, Note_on_c, 0, 86, 84
6, 601379, Note_on_c, 0, 89, 0
6, 601379, Note_on_c, 0, 86, 0
6, 601440, Note_on_c, 0, 89, 84
6, 601440, Note_on_c, 0, 82, 84
6, 601619, Note_on_c, 0, 89, 0
6, 601619, Note_on_c, 0, 82, 0
6, 601680, Note_on_c, 0, 89, 84
6, 601680, Note_on_c, 0, 82, 84
6, 601859, Note_on_c, 0, 89, 0
6, 601859, Note_on_c, 0, 82, 0
6, 601920, Note_on_c, 0, 82, 84
6, 601920, Note_on_c, 0, 89, 84
6, 602099, Note_on_c, 0, 82, 0
6, 602099, Note_on_c, 0, 89, 0
6, 602160, Note_on_c, 0, 82, 84
6, 602160, Note_on_c, 0, 89, 84
6, 602339, Note_on_c, 0, 82, 0
6, 602339, Note_on_c, 0, 89, 0
6, 602400, Note_on_c, 0, 89, 84
6, 602400, Note_on_c, 0, 82, 84
6, 602579, Note_on_c, 0, 89, 0
6, 602579, Note_on_c, 0, 82, 0
6, 602640, Note_on_c, 0, 89, 84
6, 602640, Note_on_c, 0, 82, 84
6, 602819, Note_on_c, 0, 89, 0
6, 602819, Note_on_c, 0, 82, 0
6, 602880, Note_on_c, 0, 89, 84
6, 602880, Note_on_c, 0, 82, 84
6, 603059, Note_on_c, 0, 89, 0
6, 603059, Note_on_c, 0, 82, 0
6, 603120, Note_on_c, 0, 82, 84
6, 603120, Note_on_c, 0, 89, 84
6, 603299, Note_on_c, 0, 82, 0
6, 603299, Note_on_c, 0, 89, 0
6, 603360, Note_on_c, 0, 89, 84
6, 603360, Note_on_c, 0, 82, 84
6, 603539, Note_on_c, 0, 89, 0
6, 603539, Note_on_c, 0, 82, 0
6, 603600, Note_on_c, 0, 89, 84
6, 603600, Note_on_c, 0, 82, 84
6, 603779, Note_on_c, 0, 89, 0
6, 603779, Note_on_c, 0, 82, 0
6, 603840, Note_on_c, 0, 89, 84
6, 603840, Note_on_c, 0, 82, 84
6, 604019, Note_on_c, 0, 89, 0
6, 604019, Note_on_c, 0, 82, 0
6, 604080, Note_on_c, 0, 91, 84
6, 604080, Note_on_c, 0, 87, 84
6, 604319, Note_on_c, 0, 91, 0
6, 604319, Note_on_c, 0, 87, 0
6, 604800, Note_on_c, 0, 91, 84
6, 604800, Note_on_c, 0, 82, 84
6, 605039, Note_on_c, 0, 91, 0
6, 605039, Note_on_c, 0, 82, 0
6, 605520, Note_on_c, 0, 75, 84
6, 605759, Note_on_c, 0, 75, 0
6, 605759, End_track
7, 0, Start_track
7, 0, Title_t, "Oboe"
7, 0, MIDI_port, 0
7, 0, Program_c, 1, 68
7, 0, Control_c, 1, 7, 80
7, 0, Control_c, 1, 10, 70
7, 0, Control_c, 1, 11, 127
7, 0, Note_on_c, 1, 75, 76
7, 0, Note_on_c, 1, 79, 76
7, 179, Note_on_c, 1, 75, 0
7, 179, Note_on_c, 1, 79, 0
7, 720, Note_on_c, 1, 79, 76
7, 720, Note_on_c, 1, 75, 76
7, 899, Note_on_c, 1, 79, 0
7, 899, Note_on_c, 1, 75, 0
7, 8400, Control_c, 1, 11, 96
7, 8640, Note_on_c, 1, 79, 68
7, 8640, Note_on_c, 1, 75, 68
7, 8640, Control_c, 1, 11, 96
7, 8700, Control_c, 1, 11, 97
7, 8760, Control_c, 1, 11, 99
7, 8820, Control_c, 1, 11, 100
7, 8880, Control_c, 1, 11, 101
7, 8940, Control_c, 1, 11, 102
7, 9000, Control_c, 1, 11, 104
7, 9060, Control_c, 1, 11, 105
7, 9120, Control_c, 1, 11, 106
7, 9180, Control_c, 1, 11, 108
7, 9240, Control_c, 1, 11, 109
7, 9300, Control_c, 1, 11, 110
7, 9359, Note_on_c, 1, 79, 0
7, 9359, Note_on_c, 1, 75, 0
7, 9360, Note_on_c, 1, 80, 68
7, 9360, Note_on_c, 1, 77, 68
7, 9360, Control_c, 1, 11, 112
7, 9420, Control_c, 1, 11, 113
7, 9480, Control_c, 1, 11, 114
7, 9540, Control_c, 1, 11, 115
7, 9599, Note_on_c, 1, 80, 0
7, 9599, Note_on_c, 1, 77, 0
7, 9600, Note_on_c, 1, 75, 68
7, 9600, Control_c, 1, 11, 117
7, 9600, Note_on_c, 1, 79, 68
7, 9660, Control_c, 1, 11, 118
7, 9720, Control_c, 1, 11, 119
7, 9780, Control_c, 1, 11, 121
7, 9839, Note_on_c, 1, 75, 0
7, 9839, Note_on_c, 1, 79, 0
7, 9840, Control_c, 1, 11, 122
7, 9840, Note_on_c, 1, 77, 68
7, 9840, Note_on_c, 1, 74, 68
7, 9900, Control_c, 1, 11, 123
7, 9960, Control_c, 1, 11, 124
7, 10020, Control_c, 1, 11, 127
7, 10079, Note_on_c, 1, 77, 0
7, 10079, Note_on_c, 1, 74, 0
7, 10080, Note_on_c, 1, 75, 68
7, 10319, Note_on_c, 1, 75, 0
7, 15840, Note_on_c, 1, 74, 76
7, 15840, Note_on_c, 1, 70, 76
7, 15960, Control_c, 1, 11, 80
7, 16559, Note_on_c, 1, 74, 0
7, 16559, Note_on_c, 1, 70, 0
7, 16560, Note_on_c, 1, 74, 76
7, 16560, Note_on_c, 1, 77, 76
7, 17039, Note_on_c, 1, 77, 0
7, 17040, Note_on_c, 1, 80, 76
7, 17264, Note_on_c, 1, 74, 0
7, 17264, Note_on_c, 1, 80, 0
7, 17280, Note_on_c, 1, 79, 76
7, 17280, Note_on_c, 1, 75, 76
7, 17459, Note_on_c, 1, 79, 0
7, 17459, Note_on_c, 1, 75, 0
7, 17505, Control_c, 1, 11, 127
7, 17520, Note_on_c, 1, 78, 76
7, 17520, Note_on_c, 1, 75, 76
7, 17969, Note_on_c, 1, 78, 0
7, 17969, Note_on_c, 1, 75, 0
7, 18000, Note_on_c, 1, 78, 76
7, 18000, Note_on_c, 1, 75, 76
7, 18449, Note_on_c, 1, 78, 0
7, 18449, Note_on_c, 1, 75, 0
7, 18480, Note_on_c, 1, 78, 76
7, 18480, Note_on_c, 1, 75, 76
7, 18689, Note_on_c, 1, 78, 0
7, 18689, Note_on_c, 1, 75, 0
7, 18720, Note_on_c, 1, 77, 76
7, 18720, Note_on_c, 1, 74, 76
7, 18840, Control_c, 1, 11, 80
7, 19889, Note_on_c, 1, 77, 0
7, 19889, Note_on_c, 1, 74, 0
7, 19905, Control_c, 1, 11, 127
7, 19920, Note_on_c, 1, 77, 76
7, 19920, Note_on_c, 1, 74, 76
7, 20369, Note_on_c, 1, 77, 0
7, 20369, Note_on_c, 1, 74, 0
7, 20400, Note_on_c, 1, 77, 76
7, 20400, Note_on_c, 1, 74, 76
7, 20849, Note_on_c, 1, 77, 0
7, 20849, Note_on_c, 1, 74, 0
7, 20880, Note_on_c, 1, 77, 76
7, 20880, Note_on_c, 1, 74, 76
7, 21329, Note_on_c, 1, 77, 0
7, 21329, Note_on_c, 1, 74, 0
7, 21360, Note_on_c, 1, 77, 76
7, 21360, Note_on_c, 1, 74, 76
7, 21809, Note_on_c, 1, 77, 0
7, 21809, Note_on_c, 1, 74, 0
7, 21840, Note_on_c, 1, 75, 76
7, 21840, Note_on_c, 1, 79, 76
7, 22289, Note_on_c, 1, 75, 0
7, 22289, Note_on_c, 1, 79, 0
7, 22320, Note_on_c, 1, 79, 76
7, 22320, Note_on_c, 1, 75, 76
7, 22769, Note_on_c, 1, 79, 0
7, 22769, Note_on_c, 1, 75, 0
7, 22800, Note_on_c, 1, 79, 76
7, 22800, Note_on_c, 1, 75, 76
7, 23249, Note_on_c, 1, 79, 0
7, 23249, Note_on_c, 1, 75, 0
7, 23280, Note_on_c, 1, 77, 52
7, 23280, Note_on_c, 1, 74, 52
7, 23459, Note_on_c, 1, 77, 0
7, 23459, Note_on_c, 1, 74, 0
7, 23520, Note_on_c, 1, 77, 76
7, 23520, Note_on_c, 1, 74, 76
7, 23969, Note_on_c, 1, 77, 0
7, 23969, Note_on_c, 1, 74, 0
7, 24000, Note_on_c, 1, 79, 52
7, 24000, Note_on_c, 1, 75, 52
7, 24179, Note_on_c, 1, 79, 0
7, 24179, Note_on_c, 1, 75, 0
7, 24240, Note_on_c, 1, 79, 76
7, 24240, Note_on_c, 1, 75, 76
7, 24479, Note_on_c, 1, 79, 0
7, 24479, Note_on_c, 1, 75, 0
7, 24480, Note_on_c, 1, 80, 52
7, 24480, Note_on_c, 1, 74, 52
7, 24704, Note_on_c, 1, 80, 0
7, 24704, Note_on_c, 1, 74, 0
7, 24720, Note_on_c, 1, 70, 52
7, 24809, Note_on_c, 1, 70, 0
7, 24840, Note_on_c, 1, 72, 55
7, 24929, Note_on_c, 1, 72, 0
7, 24960, Note_on_c, 1, 74, 58
7, 25049, Note_on_c, 1, 74, 0
7, 25080, Note_on_c, 1, 75, 61
7, 25169, Note_on_c, 1, 75, 0
7, 25200, Note_on_c, 1, 77, 64
7, 25289, Note_on_c, 1, 77, 0
7, 25320, Note_on_c, 1, 79, 68
7, 25409, Note_on_c, 1, 79, 0
7, 25440, Note_on_c, 1, 68, 71
7, 25529, Note_on_c, 1, 68, 0
7, 25560, Note_on_c, 1, 70, 74
7, 25649, Note_on_c, 1, 70, 0
7, 25680, Note_on_c, 1, 72, 77
7, 25769, Note_on_c, 1, 72, 0
7, 25800, Note_on_c, 1, 74, 80
7, 25889, Note_on_c, 1, 74, 0
7, 25920, Note_on_c, 1, 75, 84
7, 26399, Note_on_c, 1, 75, 0
7, 26400, Note_on_c, 1, 79, 84
7, 26639, Note_on_c, 1, 79, 0
7, 26640, Note_on_c, 1, 75, 84
7, 27119, Note_on_c, 1, 75, 0
7, 27120, Note_on_c, 1, 67, 84
7, 27344, Note_on_c, 1, 67, 0
7, 27360, Note_on_c, 1, 75, 84
7, 27584, Note_on_c, 1, 75, 0
7, 27600, Note_on_c, 1, 82, 84
7, 27600, Note_on_c, 1, 70, 84
7, 27824, Note_on_c, 1, 82, 0
7, 27824, Note_on_c, 1, 70, 0
7, 27840, Note_on_c, 1, 82, 84
7, 27840, Note_on_c, 1, 70, 84
7, 28064, Note_on_c, 1, 82, 0
7, 28064, Note_on_c, 1, 70, 0
7, 28080, Note_on_c, 1, 82, 84
7, 28080, Note_on_c, 1, 70, 84
7, 28559, Note_on_c, 1, 82, 0
7, 28559, Note_on_c, 1, 70, 0
7, 28560, Note_on_c, 1, 83, 92
7, 28560, Note_on_c, 1, 71, 92
7, 28784, Note_on_c, 1, 83, 0
7, 28784, Note_on_c, 1, 71, 0
7, 28800, Note_on_c, 1, 84, 84
7, 28800, Note_on_c, 1, 72, 84
7, 29024, Note_on_c, 1, 84, 0
7, 29024, Note_on_c, 1, 72, 0
7, 29040, Note_on_c, 1, 84, 84
7, 29040, Note_on_c, 1, 72, 84
7, 29264, Note_on_c, 1, 84, 0
7, 29264, Note_on_c, 1, 72, 0
7, 29280, Note_on_c, 1, 84, 84
7, 29280, Note_on_c, 1, 72, 84
7, 29504, Note_on_c, 1, 84, 0
7, 29504, Note_on_c, 1, 72, 0
7, 29520, Note_on_c, 1, 84, 84
7, 29520, Note_on_c, 1, 72, 84
7, 29984, Note_on_c, 1, 84, 0
7, 29984, Note_on_c, 1, 72, 0
7, 30000, Note_on_c, 1, 82, 92
7, 30000, Note_on_c, 1, 75, 92
7, 30224, Note_on_c, 1, 82, 0
7, 30224, Note_on_c, 1, 75, 0
7, 30240, Note_on_c, 1, 80, 84
7, 30240, Note_on_c, 1, 75, 84
7, 30944, Note_on_c, 1, 80, 0
7, 30944, Note_on_c, 1, 75, 0
7, 30960, Note_on_c, 1, 82, 84
7, 30960, Note_on_c, 1, 76, 84
7, 31199, Note_on_c, 1, 82, 0
7, 31199, Note_on_c, 1, 76, 0
7, 31920, Note_on_c, 1, 79, 48
7, 32279, Note_on_c, 1, 79, 0
7, 32280, Note_on_c, 1, 77, 48
7, 32399, Note_on_c, 1, 77, 0
7, 32400, Note_on_c, 1, 76, 48
7, 32639, Note_on_c, 1, 76, 0
7, 34800, Note_on_c, 1, 79, 48
7, 35159, Note_on_c, 1, 79, 0
7, 35160, Note_on_c, 1, 77, 48
7, 35279, Note_on_c, 1, 77, 0
7, 35280, Note_on_c, 1, 76, 48
7, 35519, Note_on_c, 1, 76, 0
7, 37680, Note_on_c, 1, 78, 68
7, 38039, Note_on_c, 1, 78, 0
7, 38040, Note_on_c, 1, 77, 52
7, 38159, Note_on_c, 1, 77, 0
7, 38160, Note_on_c, 1, 75, 52
7, 38399, Note_on_c, 1, 75, 0
7, 39120, Note_on_c, 1, 79, 84
7, 39464, Note_on_c, 1, 79, 0
7, 39480, Note_on_c, 1, 77, 84
7, 39584, Note_on_c, 1, 77, 0
7, 39600, Note_on_c, 1, 75, 84
7, 39779, Note_on_c, 1, 75, 0
7, 39840, Note_on_c, 1, 74, 84
7, 40019, Note_on_c, 1, 74, 0
7, 40080, Note_on_c, 1, 72, 84
7, 40259, Note_on_c, 1, 72, 0
7, 40305, Control_c, 1, 11, 96
7, 40320, Note_on_c, 1, 70, 68
7, 40320, Control_c, 1, 11, 96
7, 40380, Control_c, 1, 11, 99
7, 40440, Control_c, 1, 11, 101
7, 40500, Control_c, 1, 11, 104
7, 40560, Control_c, 1, 11, 106
7, 40620, Control_c, 1, 11, 109
7, 40680, Control_c, 1, 11, 112
7, 40740, Control_c, 1, 11, 114
7, 40800, Control_c, 1, 11, 117
7, 40860, Control_c, 1, 11, 119
7, 40920, Control_c, 1, 11, 122
7, 40980, Control_c, 1, 11, 124
7, 41040, Control_c, 1, 11, 127
7, 41100, Control_c, 1, 11, 124
7, 41160, Control_c, 1, 11, 122
7, 41220, Control_c, 1, 11, 119
7, 41280, Control_c, 1, 11, 117
7, 41340, Control_c, 1, 11, 114
7, 41400, Control_c, 1, 11, 112
7, 41460, Control_c, 1, 11, 109
7, 41520, Control_c, 1, 11, 106
7, 41580, Control_c, 1, 11, 104
7, 41640, Control_c, 1, 11, 101
7, 41700, Control_c, 1, 11, 96
7, 41744, Note_on_c, 1, 70, 0
7, 41760, Note_on_c, 1, 70, 68
7, 42120, Note_on_c, 1, 65, 68
7, 42239, Note_on_c, 1, 70, 0
7, 42239, Note_on_c, 1, 65, 0
7, 42240, Note_on_c, 1, 72, 68
7, 42240, Note_on_c, 1, 69, 68
7, 42359, Note_on_c, 1, 72, 0
7, 42359, Note_on_c, 1, 69, 0
7, 42360, Note_on_c, 1, 74, 68
7, 42360, Note_on_c, 1, 70, 68
7, 42464, Note_on_c, 1, 74, 0
7, 42464, Note_on_c, 1, 70, 0
7, 42480, Note_on_c, 1, 75, 68
7, 42480, Note_on_c, 1, 72, 68
7, 42689, Note_on_c, 1, 75, 0
7, 42689, Note_on_c, 1, 72, 0
7, 42720, Note_on_c, 1, 75, 68
7, 42720, Note_on_c, 1, 72, 68
7, 42929, Note_on_c, 1, 75, 0
7, 42929, Note_on_c, 1, 72, 0
7, 42960, Note_on_c, 1, 75, 68
7, 42960, Note_on_c, 1, 72, 68
7, 43169, Note_on_c, 1, 75, 0
7, 43169, Note_on_c, 1, 72, 0
7, 43200, Note_on_c, 1, 70, 68
7, 43200, Note_on_c, 1, 74, 68
7, 43439, Note_on_c, 1, 70, 0
7, 43439, Note_on_c, 1, 74, 0
7, 45840, Control_c, 1, 11, 127
7, 46080, Note_on_c, 1, 75, 76
7, 46080, Note_on_c, 1, 72, 76
7, 46259, Note_on_c, 1, 75, 0
7, 46259, Note_on_c, 1, 72, 0
7, 46320, Note_on_c, 1, 75, 76
7, 46320, Note_on_c, 1, 72, 76
7, 46499, Note_on_c, 1, 75, 0
7, 46499, Note_on_c, 1, 72, 0
7, 47400, Note_on_c, 1, 75, 76
7, 47400, Note_on_c, 1, 72, 76
7, 47489, Note_on_c, 1, 75, 0
7, 47489, Note_on_c, 1, 72, 0
7, 47520, Note_on_c, 1, 74, 76
7, 47520, Note_on_c, 1, 70, 76
7, 47699, Note_on_c, 1, 74, 0
7, 47699, Note_on_c, 1, 70, 0
7, 47760, Note_on_c, 1, 82, 76
7, 47760, Note_on_c, 1, 74, 76
7, 47939, Note_on_c, 1, 82, 0
7, 47939, Note_on_c, 1, 74, 0
7, 48840, Note_on_c, 1, 79, 76
7, 48840, Note_on_c, 1, 70, 76
7, 48929, Note_on_c, 1, 79, 0
7, 48929, Note_on_c, 1, 70, 0
7, 48960, Note_on_c, 1, 80, 76
7, 48960, Note_on_c, 1, 71, 76
7, 49139, Note_on_c, 1, 80, 0
7, 49139, Note_on_c, 1, 71, 0
7, 49200, Note_on_c, 1, 80, 76
7, 49200, Note_on_c, 1, 71, 76
7, 49379, Note_on_c, 1, 80, 0
7, 49379, Note_on_c, 1, 71, 0
7, 50280, Note_on_c, 1, 80, 76
7, 50280, Note_on_c, 1, 71, 76
7, 50369, Note_on_c, 1, 80, 0
7, 50369, Note_on_c, 1, 71, 0
7, 50400, Note_on_c, 1, 79, 76
7, 50400, Note_on_c, 1, 72, 76
7, 50489, Note_on_c, 1, 79, 0
7, 50489, Note_on_c, 1, 72, 0
7, 50520, Note_on_c, 1, 72, 76
7, 50520, Note_on_c, 1, 70, 76
7, 50744, Note_on_c, 1, 72, 0
7, 50744, Note_on_c, 1, 70, 0
7, 50760, Note_on_c, 1, 72, 76
7, 50760, Note_on_c, 1, 70, 76
7, 50849, Note_on_c, 1, 72, 0
7, 50849, Note_on_c, 1, 70, 0
7, 50880, Note_on_c, 1, 72, 76
7, 50880, Note_on_c, 1, 69, 76
7, 50969, Note_on_c, 1, 72, 0
7, 50969, Note_on_c, 1, 69, 0
7, 51000, Note_on_c, 1, 74, 76
7, 51000, Note_on_c, 1, 69, 76
7, 51089, Note_on_c, 1, 74, 0
7, 51089, Note_on_c, 1, 69, 0
7, 51120, Note_on_c, 1, 74, 76
7, 51120, Note_on_c, 1, 70, 76
7, 51209, Note_on_c, 1, 74, 0
7, 51209, Note_on_c, 1, 70, 0
7, 51240, Note_on_c, 1, 75, 76
7, 51240, Note_on_c, 1, 70, 76
7, 51464, Note_on_c, 1, 75, 0
7, 51464, Note_on_c, 1, 70, 0
7, 51480, Note_on_c, 1, 75, 76
7, 51480, Note_on_c, 1, 70, 76
7, 51569, Note_on_c, 1, 75, 0
7, 51569, Note_on_c, 1, 70, 0
7, 51600, Note_on_c, 1, 75, 76
7, 51600, Note_on_c, 1, 72, 76
7, 51689, Note_on_c, 1, 75, 0
7, 51689, Note_on_c, 1, 72, 0
7, 51720, Note_on_c, 1, 77, 76
7, 51720, Note_on_c, 1, 72, 76
7, 51809, Note_on_c, 1, 77, 0
7, 51809, Note_on_c, 1, 72, 0
7, 51840, Note_on_c, 1, 77, 76
7, 51840, Note_on_c, 1, 74, 76
7, 52064, Note_on_c, 1, 77, 0
7, 52064, Note_on_c, 1, 74, 0
7, 52080, Note_on_c, 1, 82, 76
7, 52080, Note_on_c, 1, 70, 76
7, 52304, Note_on_c, 1, 82, 0
7, 52304, Note_on_c, 1, 70, 0
7, 52320, Note_on_c, 1, 82, 76
7, 52320, Note_on_c, 1, 70, 76
7, 52544, Note_on_c, 1, 82, 0
7, 52544, Note_on_c, 1, 70, 0
7, 52560, Note_on_c, 1, 82, 76
7, 52560, Note_on_c, 1, 70, 76
7, 52784, Note_on_c, 1, 82, 0
7, 52784, Note_on_c, 1, 70, 0
7, 52800, Note_on_c, 1, 82, 76
7, 52800, Note_on_c, 1, 70, 76
7, 53024, Note_on_c, 1, 82, 0
7, 53024, Note_on_c, 1, 70, 0
7, 53040, Note_on_c, 1, 82, 76
7, 53040, Note_on_c, 1, 70, 76
7, 53759, Note_on_c, 1, 82, 0
7, 53759, Note_on_c, 1, 70, 0
7, 53760, Note_on_c, 1, 83, 76
7, 53760, Note_on_c, 1, 71, 76
7, 53984, Note_on_c, 1, 71, 0
7, 53999, Note_on_c, 1, 83, 0
7, 54000, Note_on_c, 1, 84, 76
7, 54000, Note_on_c, 1, 72, 76
7, 54104, Note_on_c, 1, 84, 0
7, 54119, Note_on_c, 1, 72, 0
7, 54120, Note_on_c, 1, 79, 76
7, 54120, Note_on_c, 1, 74, 76
7, 54239, Note_on_c, 1, 74, 0
7, 54240, Note_on_c, 1, 77, 76
7, 54344, Note_on_c, 1, 79, 0
7, 54359, Note_on_c, 1, 77, 0
7, 54360, Note_on_c, 1, 79, 76
7, 54360, Note_on_c, 1, 75, 76
7, 54479, Note_on_c, 1, 79, 0
7, 54479, Note_on_c, 1, 75, 0
7, 54480, Note_on_c, 1, 77, 76
7, 54480, Note_on_c, 1, 74, 76
7, 54599, Note_on_c, 1, 77, 0
7, 54599, Note_on_c, 1, 74, 0
7, 54600, Note_on_c, 1, 75, 76
7, 54600, Note_on_c, 1, 72, 76
7, 54704, Note_on_c, 1, 75, 0
7, 54704, Note_on_c, 1, 72, 0
7, 54720, Note_on_c, 1, 74, 76
7, 54720, Note_on_c, 1, 70, 76
7, 54959, Note_on_c, 1, 74, 0
7, 54959, Note_on_c, 1, 70, 0
7, 56160, Note_on_c, 1, 77, 76
7, 57704, Note_on_c, 1, 77, 0
7, 57720, Note_on_c, 1, 76, 84
7, 57809, Note_on_c, 1, 76, 0
7, 57840, Note_on_c, 1, 75, 84
7, 57929, Note_on_c, 1, 75, 0
7, 57960, Note_on_c, 1, 74, 84
7, 58049, Note_on_c, 1, 74, 0
7, 58080, Note_on_c, 1, 72, 84
7, 58169, Note_on_c, 1, 72, 0
7, 58200, Note_on_c, 1, 70, 84
7, 58289, Note_on_c, 1, 70, 0
7, 58320, Note_on_c, 1, 69, 84
7, 58409, Note_on_c, 1, 69, 0
7, 58440, Note_on_c, 1, 79, 84
7, 58440, Note_on_c, 1, 67, 84
7, 58529, Note_on_c, 1, 79, 0
7, 58529, Note_on_c, 1, 67, 0
7, 58560, Note_on_c, 1, 77, 84
7, 58560, Note_on_c, 1, 65, 84
7, 58649, Note_on_c, 1, 77, 0
7, 58649, Note_on_c, 1, 65, 0
7, 58680, Note_on_c, 1, 75, 84
7, 58680, Note_on_c, 1, 63, 84
7, 58769, Note_on_c, 1, 75, 0
7, 58769, Note_on_c, 1, 63, 0
7, 58800, Note_on_c, 1, 74, 84
7, 58800, Note_on_c, 1, 62, 84
7, 58889, Note_on_c, 1, 74, 0
7, 58889, Note_on_c, 1, 62, 0
7, 58920, Note_on_c, 1, 72, 84
7, 58920, Note_on_c, 1, 60, 84
7, 59009, Note_on_c, 1, 72, 0
7, 59009, Note_on_c, 1, 60, 0
7, 59040, Note_on_c, 1, 70, 84
7, 59279, Note_on_c, 1, 70, 0
7, 59760, Control_c, 1, 11, 96
7, 59880, Control_c, 1, 11, 99
7, 60000, Note_on_c, 1, 77, 68
7, 60000, Control_c, 1, 11, 101
7, 60120, Control_c, 1, 11, 104
7, 60209, Note_on_c, 1, 77, 0
7, 60240, Note_on_c, 1, 77, 68
7, 60240, Control_c, 1, 11, 106
7, 60360, Control_c, 1, 11, 109
7, 60449, Note_on_c, 1, 77, 0
7, 60480, Control_c, 1, 11, 112
7, 60480, Note_on_c, 1, 77, 68
7, 60600, Control_c, 1, 11, 114
7, 60689, Note_on_c, 1, 77, 0
7, 60720, Note_on_c, 1, 77, 68
7, 60720, Control_c, 1, 11, 117
7, 60840, Control_c, 1, 11, 119
7, 60929, Note_on_c, 1, 77, 0
7, 60960, Note_on_c, 1, 78, 68
7, 60960, Note_on_c, 1, 70, 76
7, 60960, Control_c, 1, 11, 122
7, 61080, Control_c, 1, 11, 127
7, 61169, Note_on_c, 1, 78, 0
7, 61169, Note_on_c, 1, 70, 0
7, 61200, Note_on_c, 1, 79, 68
7, 61200, Note_on_c, 1, 70, 68
7, 61200, Control_c, 1, 11, 127
7, 61260, Control_c, 1, 11, 124
7, 61320, Control_c, 1, 11, 122
7, 61380, Control_c, 1, 11, 119
7, 61439, Note_on_c, 1, 70, 0
7, 61440, Note_on_c, 1, 71, 68
7, 61440, Control_c, 1, 11, 117
7, 61500, Control_c, 1, 11, 114
7, 61560, Control_c, 1, 11, 112
7, 61620, Control_c, 1, 11, 109
7, 61679, Note_on_c, 1, 71, 0
7, 61680, Note_on_c, 1, 72, 68
7, 61680, Control_c, 1, 11, 106
7, 61740, Control_c, 1, 11, 104
7, 61800, Control_c, 1, 11, 101
7, 61860, Control_c, 1, 11, 96
7, 61919, Note_on_c, 1, 79, 0
7, 61919, Note_on_c, 1, 72, 0
7, 63360, Control_c, 1, 11, 127
7, 63840, Note_on_c, 1, 79, 76
7, 64080, Control_c, 1, 11, 127
7, 64140, Control_c, 1, 11, 124
7, 64200, Control_c, 1, 11, 122
7, 64260, Control_c, 1, 11, 119
7, 64319, Note_on_c, 1, 79, 0
7, 64320, Note_on_c, 1, 77, 68
7, 64320, Control_c, 1, 11, 117
7, 64380, Control_c, 1, 11, 114
7, 64439, Note_on_c, 1, 77, 0
7, 64440, Control_c, 1, 11, 112
7, 64440, Note_on_c, 1, 75, 68
7, 64500, Control_c, 1, 11, 109
7, 64559, Note_on_c, 1, 75, 0
7, 64560, Control_c, 1, 11, 106
7, 64560, Note_on_c, 1, 74, 68
7, 64620, Control_c, 1, 11, 104
7, 64679, Note_on_c, 1, 74, 0
7, 64680, Control_c, 1, 11, 101
7, 64680, Note_on_c, 1, 72, 68
7, 64740, Control_c, 1, 11, 99
7, 64784, Note_on_c, 1, 72, 0
7, 64800, Note_on_c, 1, 70, 68
7, 65039, Note_on_c, 1, 70, 0
7, 65280, Control_c, 1, 11, 96
7, 65520, Control_c, 1, 11, 96
7, 65640, Control_c, 1, 11, 99
7, 65760, Control_c, 1, 11, 101
7, 65760, Note_on_c, 1, 75, 68
7, 65880, Control_c, 1, 11, 104
7, 65969, Note_on_c, 1, 75, 0
7, 66000, Control_c, 1, 11, 106
7, 66000, Note_on_c, 1, 75, 68
7, 66120, Control_c, 1, 11, 109
7, 66209, Note_on_c, 1, 75, 0
7, 66240, Control_c, 1, 11, 112
7, 66240, Note_on_c, 1, 75, 68
7, 66360, Control_c, 1, 11, 114
7, 66449, Note_on_c, 1, 75, 0
7, 66480, Note_on_c, 1, 75, 68
7, 66480, Control_c, 1, 11, 117
7, 66480, Note_on_c, 1, 78, 68
7, 66600, Control_c, 1, 11, 119
7, 66689, Note_on_c, 1, 75, 0
7, 66689, Note_on_c, 1, 78, 0
7, 66720, Note_on_c, 1, 75, 68
7, 66720, Note_on_c, 1, 78, 68
7, 66720, Control_c, 1, 11, 122
7, 66840, Control_c, 1, 11, 127
7, 66929, Note_on_c, 1, 75, 0
7, 66929, Note_on_c, 1, 78, 0
7, 66960, Note_on_c, 1, 78, 76
7, 66960, Note_on_c, 1, 75, 76
7, 66960, Control_c, 1, 11, 127
7, 67020, Control_c, 1, 11, 123
7, 67080, Control_c, 1, 11, 119
7, 67140, Control_c, 1, 11, 115
7, 67200, Control_c, 1, 11, 111
7, 67260, Control_c, 1, 11, 107
7, 67320, Control_c, 1, 11, 104
7, 67380, Control_c, 1, 11, 100
7, 67440, Control_c, 1, 11, 96
7, 67500, Control_c, 1, 11, 92
7, 67560, Control_c, 1, 11, 88
7, 67620, Control_c, 1, 11, 84
7, 67679, Note_on_c, 1, 78, 0
7, 67679, Note_on_c, 1, 75, 0
7, 69120, Control_c, 1, 11, 96
7, 69360, Note_on_c, 1, 82, 68
7, 69599, Note_on_c, 1, 82, 0
7, 69600, Note_on_c, 1, 79, 68
7, 69839, Note_on_c, 1, 79, 0
7, 69840, Note_on_c, 1, 77, 68
7, 69840, Control_c, 1, 11, 96
7, 69880, Control_c, 1, 11, 99
7, 69920, Control_c, 1, 11, 101
7, 69960, Control_c, 1, 11, 104
7, 70000, Control_c, 1, 11, 106
7, 70040, Control_c, 1, 11, 109
7, 70080, Control_c, 1, 11, 112
7, 70120, Control_c, 1, 11, 114
7, 70160, Control_c, 1, 11, 117
7, 70200, Control_c, 1, 11, 119
7, 70240, Control_c, 1, 11, 122
7, 70280, Control_c, 1, 11, 124
7, 70319, Note_on_c, 1, 77, 0
7, 70320, Note_on_c, 1, 76, 68
7, 70320, Control_c, 1, 11, 127
7, 70360, Control_c, 1, 11, 122
7, 70400, Control_c, 1, 11, 117
7, 70440, Control_c, 1, 11, 112
7, 70480, Control_c, 1, 11, 106
7, 70520, Control_c, 1, 11, 101
7, 70544, Note_on_c, 1, 76, 0
7, 70560, Note_on_c, 1, 75, 68
7, 70799, Note_on_c, 1, 75, 0
7, 76320, Control_c, 1, 11, 80
7, 76800, Control_c, 1, 11, 80
7, 77387, Control_c, 1, 11, 109
7, 77400, Note_on_c, 1, 72, 76
7, 77400, Note_on_c, 1, 81, 76
7, 77440, Control_c, 1, 11, 111
7, 77489, Note_on_c, 1, 72, 0
7, 77489, Note_on_c, 1, 81, 0
7, 77493, Control_c, 1, 11, 114
7, 77520, Note_on_c, 1, 74, 76
7, 77520, Note_on_c, 1, 82, 76
7, 77547, Control_c, 1, 11, 117
7, 77600, Control_c, 1, 11, 119
7, 77609, Note_on_c, 1, 74, 0
7, 77609, Note_on_c, 1, 82, 0
7, 77640, Note_on_c, 1, 75, 76
7, 77640, Note_on_c, 1, 84, 76
7, 77653, Control_c, 1, 11, 122
7, 77707, Control_c, 1, 11, 127
7, 77729, Note_on_c, 1, 75, 0
7, 77729, Note_on_c, 1, 84, 0
7, 77760, Note_on_c, 1, 77, 76
7, 77760, Note_on_c, 1, 86, 76
7, 77999, Note_on_c, 1, 77, 0
7, 77999, Note_on_c, 1, 86, 0
7, 78000, Note_on_c, 1, 77, 84
7, 78000, Note_on_c, 1, 74, 84
7, 78479, Note_on_c, 1, 77, 0
7, 78479, Note_on_c, 1, 74, 0
7, 78720, Note_on_c, 1, 77, 84
7, 78720, Note_on_c, 1, 74, 84
7, 79199, Note_on_c, 1, 77, 0
7, 79199, Note_on_c, 1, 74, 0
7, 79440, Note_on_c, 1, 77, 84
7, 79440, Note_on_c, 1, 75, 84
7, 79919, Note_on_c, 1, 77, 0
7, 79919, Note_on_c, 1, 75, 0
7, 80160, Note_on_c, 1, 77, 84
7, 80160, Note_on_c, 1, 69, 84
7, 80384, Note_on_c, 1, 77, 0
7, 80384, Note_on_c, 1, 69, 0
7, 80400, Note_on_c, 1, 77, 76
7, 80400, Note_on_c, 1, 72, 76
7, 80624, Note_on_c, 1, 77, 0
7, 80624, Note_on_c, 1, 72, 0
7, 80640, Note_on_c, 1, 74, 84
7, 80640, Note_on_c, 1, 77, 84
7, 80879, Note_on_c, 1, 74, 0
7, 83024, Note_on_c, 1, 77, 0
7, 83040, Note_on_c, 1, 77, 84
7, 83264, Note_on_c, 1, 77, 0
7, 83280, Note_on_c, 1, 77, 84
7, 83504, Note_on_c, 1, 77, 0
7, 83520, Note_on_c, 1, 77, 84
7, 84000, Note_on_c, 1, 82, 84
7, 84119, Note_on_c, 1, 77, 0
7, 84120, Note_on_c, 1, 76, 84
7, 84239, Note_on_c, 1, 76, 0
7, 84240, Note_on_c, 1, 77, 84
7, 84359, Note_on_c, 1, 82, 0
7, 84359, Note_on_c, 1, 77, 0
7, 87480, Note_on_c, 1, 79, 84
7, 87480, Note_on_c, 1, 71, 84
7, 87569, Note_on_c, 1, 79, 0
7, 87569, Note_on_c, 1, 71, 0
7, 87600, Note_on_c, 1, 79, 84
7, 87600, Note_on_c, 1, 72, 84
7, 87689, Note_on_c, 1, 79, 0
7, 87689, Note_on_c, 1, 72, 0
7, 87720, Note_on_c, 1, 79, 84
7, 87720, Note_on_c, 1, 73, 84
7, 87809, Note_on_c, 1, 79, 0
7, 87809, Note_on_c, 1, 73, 0
7, 87840, Note_on_c, 1, 78, 84
7, 87840, Note_on_c, 1, 74, 84
7, 88019, Note_on_c, 1, 78, 0
7, 88019, Note_on_c, 1, 74, 0
7, 88080, Note_on_c, 1, 81, 84
7, 88080, Note_on_c, 1, 74, 84
7, 88259, Note_on_c, 1, 81, 0
7, 88259, Note_on_c, 1, 74, 0
7, 88320, Note_on_c, 1, 79, 84
7, 88320, Note_on_c, 1, 74, 84
7, 88499, Note_on_c, 1, 79, 0
7, 88499, Note_on_c, 1, 74, 0
7, 88800, Note_on_c, 1, 77, 84
7, 88800, Note_on_c, 1, 71, 84
7, 88979, Note_on_c, 1, 77, 0
7, 88979, Note_on_c, 1, 71, 0
7, 89040, Note_on_c, 1, 75, 84
7, 89040, Note_on_c, 1, 72, 84
7, 89219, Note_on_c, 1, 75, 0
7, 89219, Note_on_c, 1, 72, 0
7, 89520, Note_on_c, 1, 79, 84
7, 89520, Note_on_c, 1, 72, 84
7, 89699, Note_on_c, 1, 79, 0
7, 89699, Note_on_c, 1, 72, 0
7, 89760, Note_on_c, 1, 77, 84
7, 89760, Note_on_c, 1, 72, 84
7, 89939, Note_on_c, 1, 77, 0
7, 89939, Note_on_c, 1, 72, 0
7, 90240, Note_on_c, 1, 81, 84
7, 90240, Note_on_c, 1, 74, 84
7, 90419, Note_on_c, 1, 81, 0
7, 90419, Note_on_c, 1, 74, 0
7, 90480, Note_on_c, 1, 79, 84
7, 90480, Note_on_c, 1, 74, 84
7, 90659, Note_on_c, 1, 79, 0
7, 90659, Note_on_c, 1, 74, 0
7, 90960, Note_on_c, 1, 77, 84
7, 90960, Note_on_c, 1, 71, 84
7, 91139, Note_on_c, 1, 77, 0
7, 91139, Note_on_c, 1, 71, 0
7, 91200, Note_on_c, 1, 75, 84
7, 91200, Note_on_c, 1, 72, 84
7, 91379, Note_on_c, 1, 75, 0
7, 91379, Note_on_c, 1, 72, 0
7, 91680, Note_on_c, 1, 79, 92
7, 91680, Note_on_c, 1, 72, 92
7, 91859, Note_on_c, 1, 79, 0
7, 91859, Note_on_c, 1, 72, 0
7, 92160, Note_on_c, 1, 79, 92
7, 92160, Note_on_c, 1, 72, 92
7, 92339, Note_on_c, 1, 79, 0
7, 92339, Note_on_c, 1, 72, 0
7, 92640, Note_on_c, 1, 79, 92
7, 92640, Note_on_c, 1, 72, 92
7, 92819, Note_on_c, 1, 79, 0
7, 92819, Note_on_c, 1, 72, 0
7, 93120, Note_on_c, 1, 79, 92
7, 93120, Note_on_c, 1, 72, 92
7, 93299, Note_on_c, 1, 79, 0
7, 93299, Note_on_c, 1, 72, 0
7, 93600, Note_on_c, 1, 79, 92
7, 93600, Note_on_c, 1, 72, 92
7, 93779, Note_on_c, 1, 79, 0
7, 93779, Note_on_c, 1, 72, 0
7, 94080, Note_on_c, 1, 79, 92
7, 94080, Note_on_c, 1, 72, 92
7, 94259, Note_on_c, 1, 79, 0
7, 94259, Note_on_c, 1, 72, 0
7, 95040, Note_on_c, 1, 76, 76
7, 95040, Note_on_c, 1, 70, 76
7, 95160, Control_c, 1, 11, 80
7, 95759, Note_on_c, 1, 76, 0
7, 95760, Note_on_c, 1, 77, 76
7, 96449, Note_on_c, 1, 70, 0
7, 96449, Note_on_c, 1, 77, 0
7, 96465, Control_c, 1, 11, 127
7, 96480, Note_on_c, 1, 76, 76
7, 96480, Note_on_c, 1, 70, 76
7, 96600, Control_c, 1, 11, 80
7, 97409, Note_on_c, 1, 76, 0
7, 97409, Note_on_c, 1, 70, 0
7, 97440, Note_on_c, 1, 75, 76
7, 97440, Note_on_c, 1, 70, 76
7, 97619, Note_on_c, 1, 75, 0
7, 97619, Note_on_c, 1, 70, 0
7, 97800, Control_c, 1, 11, 127
7, 97920, Note_on_c, 1, 75, 52
7, 97920, Note_on_c, 1, 72, 52
7, 98099, Note_on_c, 1, 75, 0
7, 98099, Note_on_c, 1, 72, 0
7, 98400, Note_on_c, 1, 75, 52
7, 98400, Note_on_c, 1, 72, 52
7, 98579, Note_on_c, 1, 75, 0
7, 98579, Note_on_c, 1, 72, 0
7, 98880, Note_on_c, 1, 77, 52
7, 98880, Note_on_c, 1, 75, 52
7, 99059, Note_on_c, 1, 77, 0
7, 99059, Note_on_c, 1, 75, 0
7, 99360, Note_on_c, 1, 77, 52
7, 99360, Note_on_c, 1, 74, 52
7, 99539, Note_on_c, 1, 77, 0
7, 99539, Note_on_c, 1, 74, 0
7, 99720, Control_c, 1, 11, 64
7, 99840, Note_on_c, 1, 74, 84
7, 99840, Note_on_c, 1, 77, 84
7, 99959, Note_on_c, 1, 77, 0
7, 99960, Note_on_c, 1, 78, 84
7, 100019, Note_on_c, 1, 74, 0
7, 100064, Note_on_c, 1, 78, 0
7, 100080, Note_on_c, 1, 79, 84
7, 100080, Control_c, 1, 11, 64
7, 100170, Control_c, 1, 11, 67
7, 100260, Control_c, 1, 11, 69
7, 100350, Control_c, 1, 11, 72
7, 100440, Control_c, 1, 11, 75
7, 100530, Control_c, 1, 11, 77
7, 100620, Control_c, 1, 11, 80
7, 100710, Control_c, 1, 11, 82
7, 100800, Note_on_c, 1, 75, 84
7, 100800, Control_c, 1, 11, 85
7, 100890, Control_c, 1, 11, 88
7, 100980, Control_c, 1, 11, 90
7, 101070, Control_c, 1, 11, 93
7, 101144, Note_on_c, 1, 79, 0
7, 101144, Note_on_c, 1, 75, 0
7, 101160, Note_on_c, 1, 79, 84
7, 101160, Note_on_c, 1, 75, 84
7, 101160, Control_c, 1, 11, 96
7, 101250, Control_c, 1, 11, 98
7, 101279, Note_on_c, 1, 79, 0
7, 101279, Note_on_c, 1, 75, 0
7, 101280, Note_on_c, 1, 77, 84
7, 101280, Note_on_c, 1, 74, 84
7, 101340, Control_c, 1, 11, 101
7, 101399, Note_on_c, 1, 77, 0
7, 101399, Note_on_c, 1, 74, 0
7, 101400, Note_on_c, 1, 72, 84
7, 101400, Note_on_c, 1, 75, 84
7, 101430, Control_c, 1, 11, 103
7, 101504, Note_on_c, 1, 72, 0
7, 101504, Note_on_c, 1, 75, 0
7, 101520, Note_on_c, 1, 70, 84
7, 101520, Control_c, 1, 11, 106
7, 101520, Note_on_c, 1, 74, 84
7, 101610, Control_c, 1, 11, 109
7, 101624, Note_on_c, 1, 70, 0
7, 101624, Note_on_c, 1, 74, 0
7, 101640, Note_on_c, 1, 77, 84
7, 101640, Note_on_c, 1, 74, 84
7, 101700, Control_c, 1, 11, 111
7, 101744, Note_on_c, 1, 77, 0
7, 101744, Note_on_c, 1, 74, 0
7, 101760, Note_on_c, 1, 74, 84
7, 101760, Note_on_c, 1, 82, 84
7, 101790, Control_c, 1, 11, 114
7, 101864, Note_on_c, 1, 74, 0
7, 101864, Note_on_c, 1, 82, 0
7, 101880, Note_on_c, 1, 82, 84
7, 101880, Note_on_c, 1, 74, 84
7, 101880, Control_c, 1, 11, 117
7, 101970, Control_c, 1, 11, 119
7, 101984, Note_on_c, 1, 82, 0
7, 101984, Note_on_c, 1, 74, 0
7, 102000, Note_on_c, 1, 82, 84
7, 102000, Note_on_c, 1, 74, 84
7, 102060, Control_c, 1, 11, 122
7, 102104, Note_on_c, 1, 82, 0
7, 102104, Note_on_c, 1, 74, 0
7, 102120, Note_on_c, 1, 74, 84
7, 102120, Note_on_c, 1, 82, 84
7, 102150, Control_c, 1, 11, 124
7, 102224, Note_on_c, 1, 74, 0
7, 102224, Note_on_c, 1, 82, 0
7, 102225, Control_c, 1, 11, 127
7, 102240, Note_on_c, 1, 81, 84
7, 102240, Note_on_c, 1, 72, 84
7, 102959, Note_on_c, 1, 81, 0
7, 102959, Note_on_c, 1, 72, 0
7, 102960, Note_on_c, 1, 82, 76
7, 102960, Note_on_c, 1, 74, 76
7, 103139, Note_on_c, 1, 82, 0
7, 103139, Note_on_c, 1, 74, 0
7, 103680, Note_on_c, 1, 70, 76
7, 103859, Note_on_c, 1, 70, 0
7, 104400, Note_on_c, 1, 70, 76
7, 104579, Note_on_c, 1, 70, 0
7, 105120, Note_on_c, 1, 78, 76
7, 105120, Note_on_c, 1, 69, 76
7, 105299, Note_on_c, 1, 78, 0
7, 105299, Note_on_c, 1, 69, 0
7, 105360, Note_on_c, 1, 78, 76
7, 105360, Note_on_c, 1, 69, 76
7, 105539, Note_on_c, 1, 78, 0
7, 105539, Note_on_c, 1, 69, 0
7, 105600, Note_on_c, 1, 78, 76
7, 105600, Note_on_c, 1, 69, 76
7, 105779, Note_on_c, 1, 78, 0
7, 105779, Note_on_c, 1, 69, 0
7, 105840, Note_on_c, 1, 77, 76
7, 105840, Note_on_c, 1, 70, 76
7, 106079, Note_on_c, 1, 77, 0
7, 106079, Note_on_c, 1, 70, 0
7, 117120, Control_c, 1, 11, 96
7, 117360, Note_on_c, 1, 75, 68
7, 117360, Note_on_c, 1, 79, 68
7, 117360, Control_c, 1, 11, 96
7, 117420, Control_c, 1, 11, 97
7, 117480, Control_c, 1, 11, 99
7, 117540, Control_c, 1, 11, 100
7, 117600, Control_c, 1, 11, 101
7, 117660, Control_c, 1, 11, 102
7, 117720, Control_c, 1, 11, 104
7, 117780, Control_c, 1, 11, 105
7, 117840, Control_c, 1, 11, 106
7, 117900, Control_c, 1, 11, 108
7, 117960, Control_c, 1, 11, 109
7, 118020, Control_c, 1, 11, 110
7, 118079, Note_on_c, 1, 75, 0
7, 118079, Note_on_c, 1, 79, 0
7, 118080, Control_c, 1, 11, 112
7, 118080, Note_on_c, 1, 77, 68
7, 118080, Note_on_c, 1, 80, 68
7, 118140, Control_c, 1, 11, 113
7, 118200, Control_c, 1, 11, 114
7, 118260, Control_c, 1, 11, 115
7, 118319, Note_on_c, 1, 77, 0
7, 118319, Note_on_c, 1, 80, 0
7, 118320, Note_on_c, 1, 79, 68
7, 118320, Note_on_c, 1, 75, 68
7, 118320, Control_c, 1, 11, 117
7, 118380, Control_c, 1, 11, 118
7, 118440, Control_c, 1, 11, 119
7, 118500, Control_c, 1, 11, 121
7, 118559, Note_on_c, 1, 79, 0
7, 118559, Note_on_c, 1, 75, 0
7, 118560, Note_on_c, 1, 74, 68
7, 118560, Note_on_c, 1, 77, 68
7, 118560, Control_c, 1, 11, 122
7, 118620, Control_c, 1, 11, 123
7, 118680, Control_c, 1, 11, 124
7, 118740, Control_c, 1, 11, 127
7, 118799, Note_on_c, 1, 74, 0
7, 118799, Note_on_c, 1, 77, 0
7, 118800, Note_on_c, 1, 75, 68
7, 119039, Note_on_c, 1, 75, 0
7, 124560, Note_on_c, 1, 74, 76
7, 124560, Note_on_c, 1, 70, 76
7, 124680, Control_c, 1, 11, 80
7, 125279, Note_on_c, 1, 74, 0
7, 125279, Note_on_c, 1, 70, 0
7, 125280, Note_on_c, 1, 77, 76
7, 125280, Note_on_c, 1, 74, 76
7, 125759, Note_on_c, 1, 77, 0
7, 125760, Note_on_c, 1, 80, 76
7, 125984, Note_on_c, 1, 74, 0
7, 125984, Note_on_c, 1, 80, 0
7, 126000, Note_on_c, 1, 75, 76
7, 126000, Note_on_c, 1, 79, 76
7, 126179, Note_on_c, 1, 75, 0
7, 126179, Note_on_c, 1, 79, 0
7, 126225, Control_c, 1, 11, 127
7, 126240, Note_on_c, 1, 78, 76
7, 126240, Note_on_c, 1, 75, 76
7, 126689, Note_on_c, 1, 78, 0
7, 126689, Note_on_c, 1, 75, 0
7, 126720, Note_on_c, 1, 78, 76
7, 126720, Note_on_c, 1, 75, 76
7, 127169, Note_on_c, 1, 78, 0
7, 127169, Note_on_c, 1, 75, 0
7, 127200, Note_on_c, 1, 78, 76
7, 127200, Note_on_c, 1, 75, 76
7, 127409, Note_on_c, 1, 78, 0
7, 127409, Note_on_c, 1, 75, 0
7, 127440, Note_on_c, 1, 74, 76
7, 127440, Note_on_c, 1, 77, 76
7, 127560, Control_c, 1, 11, 80
7, 128609, Note_on_c, 1, 74, 0
7, 128609, Note_on_c, 1, 77, 0
7, 128625, Control_c, 1, 11, 127
7, 128640, Note_on_c, 1, 74, 76
7, 128640, Note_on_c, 1, 77, 76
7, 129089, Note_on_c, 1, 74, 0
7, 129089, Note_on_c, 1, 77, 0
7, 129120, Note_on_c, 1, 77, 76
7, 129120, Note_on_c, 1, 74, 76
7, 129569, Note_on_c, 1, 77, 0
7, 129569, Note_on_c, 1, 74, 0
7, 129600, Note_on_c, 1, 77, 76
7, 129600, Note_on_c, 1, 74, 76
7, 130049, Note_on_c, 1, 77, 0
7, 130049, Note_on_c, 1, 74, 0
7, 130080, Note_on_c, 1, 77, 76
7, 130080, Note_on_c, 1, 74, 76
7, 130529, Note_on_c, 1, 77, 0
7, 130529, Note_on_c, 1, 74, 0
7, 130560, Note_on_c, 1, 75, 76
7, 130560, Note_on_c, 1, 79, 76
7, 131009, Note_on_c, 1, 75, 0
7, 131009, Note_on_c, 1, 79, 0
7, 131040, Note_on_c, 1, 75, 76
7, 131040, Note_on_c, 1, 79, 76
7, 131489, Note_on_c, 1, 75, 0
7, 131489, Note_on_c, 1, 79, 0
7, 131520, Note_on_c, 1, 79, 76
7, 131520, Note_on_c, 1, 75, 76
7, 131969, Note_on_c, 1, 79, 0
7, 131969, Note_on_c, 1, 75, 0
7, 132000, Note_on_c, 1, 74, 52
7, 132000, Note_on_c, 1, 77, 52
7, 132179, Note_on_c, 1, 74, 0
7, 132179, Note_on_c, 1, 77, 0
7, 132240, Note_on_c, 1, 74, 76
7, 132240, Note_on_c, 1, 77, 76
7, 132689, Note_on_c, 1, 74, 0
7, 132689, Note_on_c, 1, 77, 0
7, 132720, Note_on_c, 1, 79, 52
7, 132720, Note_on_c, 1, 75, 52
7, 132899, Note_on_c, 1, 79, 0
7, 132899, Note_on_c, 1, 75, 0
7, 132960, Note_on_c, 1, 75, 76
7, 132960, Note_on_c, 1, 79, 76
7, 133199, Note_on_c, 1, 75, 0
7, 133199, Note_on_c, 1, 79, 0
7, 133200, Note_on_c, 1, 80, 52
7, 133200, Note_on_c, 1, 74, 52
7, 133424, Note_on_c, 1, 80, 0
7, 133424, Note_on_c, 1, 74, 0
7, 133440, Note_on_c, 1, 70, 52
7, 133529, Note_on_c, 1, 70, 0
7, 133560, Note_on_c, 1, 72, 55
7, 133649, Note_on_c, 1, 72, 0
7, 133680, Note_on_c, 1, 74, 58
7, 133769, Note_on_c, 1, 74, 0
7, 133800, Note_on_c, 1, 75, 61
7, 133889, Note_on_c, 1, 75, 0
7, 133920, Note_on_c, 1, 77, 64
7, 134009, Note_on_c, 1, 77, 0
7, 134040, Note_on_c, 1, 79, 68
7, 134129, Note_on_c, 1, 79, 0
7, 134160, Note_on_c, 1, 68, 71
7, 134249, Note_on_c, 1, 68, 0
7, 134280, Note_on_c, 1, 70, 74
7, 134369, Note_on_c, 1, 70, 0
7, 134400, Note_on_c, 1, 72, 77
7, 134489, Note_on_c, 1, 72, 0
7, 134520, Note_on_c, 1, 74, 80
7, 134609, Note_on_c, 1, 74, 0
7, 134640, Note_on_c, 1, 75, 84
7, 135119, Note_on_c, 1, 75, 0
7, 135120, Note_on_c, 1, 79, 84
7, 135359, Note_on_c, 1, 79, 0
7, 135360, Note_on_c, 1, 75, 84
7, 135839, Note_on_c, 1, 75, 0
7, 135840, Note_on_c, 1, 67, 84
7, 136064, Note_on_c, 1, 67, 0
7, 136080, Note_on_c, 1, 75, 84
7, 136304, Note_on_c, 1, 75, 0
7, 136320, Note_on_c, 1, 82, 84
7, 136320, Note_on_c, 1, 70, 84
7, 136544, Note_on_c, 1, 82, 0
7, 136544, Note_on_c, 1, 70, 0
7, 136560, Note_on_c, 1, 82, 84
7, 136560, Note_on_c, 1, 70, 84
7, 136784, Note_on_c, 1, 82, 0
7, 136784, Note_on_c, 1, 70, 0
7, 136800, Note_on_c, 1, 82, 84
7, 136800, Note_on_c, 1, 70, 84
7, 137279, Note_on_c, 1, 82, 0
7, 137279, Note_on_c, 1, 70, 0
7, 137280, Note_on_c, 1, 83, 92
7, 137280, Note_on_c, 1, 71, 92
7, 137504, Note_on_c, 1, 83, 0
7, 137504, Note_on_c, 1, 71, 0
7, 137520, Note_on_c, 1, 84, 84
7, 137520, Note_on_c, 1, 72, 84
7, 137744, Note_on_c, 1, 84, 0
7, 137744, Note_on_c, 1, 72, 0
7, 137760, Note_on_c, 1, 84, 84
7, 137760, Note_on_c, 1, 72, 84
7, 137984, Note_on_c, 1, 84, 0
7, 137984, Note_on_c, 1, 72, 0
7, 138000, Note_on_c, 1, 72, 84
7, 138000, Note_on_c, 1, 84, 84
7, 138224, Note_on_c, 1, 72, 0
7, 138224, Note_on_c, 1, 84, 0
7, 138240, Note_on_c, 1, 72, 84
7, 138240, Note_on_c, 1, 84, 84
7, 138704, Note_on_c, 1, 72, 0
7, 138704, Note_on_c, 1, 84, 0
7, 138720, Note_on_c, 1, 75, 92
7, 138720, Note_on_c, 1, 82, 92
7, 138944, Note_on_c, 1, 75, 0
7, 138944, Note_on_c, 1, 82, 0
7, 138960, Note_on_c, 1, 80, 84
7, 138960, Note_on_c, 1, 75, 84
7, 139664, Note_on_c, 1, 80, 0
7, 139664, Note_on_c, 1, 75, 0
7, 139680, Note_on_c, 1, 82, 84
7, 139680, Note_on_c, 1, 76, 84
7, 139919, Note_on_c, 1, 82, 0
7, 139919, Note_on_c, 1, 76, 0
7, 140640, Note_on_c, 1, 79, 48
7, 140999, Note_on_c, 1, 79, 0
7, 141000, Note_on_c, 1, 77, 48
7, 141119, Note_on_c, 1, 77, 0
7, 141120, Note_on_c, 1, 76, 48
7, 141359, Note_on_c, 1, 76, 0
7, 143520, Note_on_c, 1, 79, 48
7, 143879, Note_on_c, 1, 79, 0
7, 143880, Note_on_c, 1, 77, 48
7, 143999, Note_on_c, 1, 77, 0
7, 144000, Note_on_c, 1, 76, 48
7, 144239, Note_on_c, 1, 76, 0
7, 146400, Note_on_c, 1, 78, 68
7, 146759, Note_on_c, 1, 78, 0
7, 146760, Note_on_c, 1, 77, 52
7, 146879, Note_on_c, 1, 77, 0
7, 146880, Note_on_c, 1, 75, 52
7, 147119, Note_on_c, 1, 75, 0
7, 147840, Note_on_c, 1, 79, 84
7, 148184, Note_on_c, 1, 79, 0
7, 148200, Note_on_c, 1, 77, 84
7, 148304, Note_on_c, 1, 77, 0
7, 148320, Note_on_c, 1, 75, 84
7, 148499, Note_on_c, 1, 75, 0
7, 148560, Note_on_c, 1, 74, 84
7, 148739, Note_on_c, 1, 74, 0
7, 148800, Note_on_c, 1, 72, 84
7, 148979, Note_on_c, 1, 72, 0
7, 149025, Control_c, 1, 11, 96
7, 149040, Control_c, 1, 11, 96
7, 149040, Note_on_c, 1, 70, 68
7, 149100, Control_c, 1, 11, 99
7, 149160, Control_c, 1, 11, 101
7, 149220, Control_c, 1, 11, 104
7, 149280, Control_c, 1, 11, 106
7, 149340, Control_c, 1, 11, 109
7, 149400, Control_c, 1, 11, 112
7, 149460, Control_c, 1, 11, 114
7, 149520, Control_c, 1, 11, 117
7, 149580, Control_c, 1, 11, 119
7, 149640, Control_c, 1, 11, 122
7, 149700, Control_c, 1, 11, 124
7, 149760, Control_c, 1, 11, 127
7, 149820, Control_c, 1, 11, 124
7, 149880, Control_c, 1, 11, 122
7, 149940, Control_c, 1, 11, 119
7, 150000, Control_c, 1, 11, 117
7, 150060, Control_c, 1, 11, 114
7, 150120, Control_c, 1, 11, 112
7, 150180, Control_c, 1, 11, 109
7, 150240, Control_c, 1, 11, 106
7, 150300, Control_c, 1, 11, 104
7, 150360, Control_c, 1, 11, 101
7, 150420, Control_c, 1, 11, 96
7, 150464, Note_on_c, 1, 70, 0
7, 150480, Note_on_c, 1, 70, 68
7, 150840, Note_on_c, 1, 65, 68
7, 150959, Note_on_c, 1, 70, 0
7, 150959, Note_on_c, 1, 65, 0
7, 150960, Note_on_c, 1, 72, 68
7, 150960, Note_on_c, 1, 69, 68
7, 151079, Note_on_c, 1, 72, 0
7, 151079, Note_on_c, 1, 69, 0
7, 151080, Note_on_c, 1, 70, 68
7, 151080, Note_on_c, 1, 74, 68
7, 151184, Note_on_c, 1, 70, 0
7, 151184, Note_on_c, 1, 74, 0
7, 151200, Note_on_c, 1, 72, 68
7, 151200, Note_on_c, 1, 75, 68
7, 151409, Note_on_c, 1, 72, 0
7, 151409, Note_on_c, 1, 75, 0
7, 151440, Note_on_c, 1, 72, 68
7, 151440, Note_on_c, 1, 75, 68
7, 151649, Note_on_c, 1, 72, 0
7, 151649, Note_on_c, 1, 75, 0
7, 151680, Note_on_c, 1, 72, 68
7, 151680, Note_on_c, 1, 75, 68
7, 151889, Note_on_c, 1, 72, 0
7, 151889, Note_on_c, 1, 75, 0
7, 151920, Note_on_c, 1, 70, 68
7, 151920, Note_on_c, 1, 74, 68
7, 152159, Note_on_c, 1, 70, 0
7, 152159, Note_on_c, 1, 74, 0
7, 154560, Control_c, 1, 11, 127
7, 154800, Note_on_c, 1, 72, 76
7, 154800, Note_on_c, 1, 75, 76
7, 154979, Note_on_c, 1, 72, 0
7, 154979, Note_on_c, 1, 75, 0
7, 155040, Note_on_c, 1, 72, 76
7, 155040, Note_on_c, 1, 75, 76
7, 155219, Note_on_c, 1, 72, 0
7, 155219, Note_on_c, 1, 75, 0
7, 156120, Note_on_c, 1, 75, 76
7, 156120, Note_on_c, 1, 72, 76
7, 156209, Note_on_c, 1, 75, 0
7, 156209, Note_on_c, 1, 72, 0
7, 156240, Note_on_c, 1, 74, 76
7, 156240, Note_on_c, 1, 70, 76
7, 156419, Note_on_c, 1, 74, 0
7, 156419, Note_on_c, 1, 70, 0
7, 156480, Note_on_c, 1, 74, 76
7, 156480, Note_on_c, 1, 82, 76
7, 156659, Note_on_c, 1, 74, 0
7, 156659, Note_on_c, 1, 82, 0
7, 157560, Note_on_c, 1, 79, 76
7, 157560, Note_on_c, 1, 70, 76
7, 157649, Note_on_c, 1, 79, 0
7, 157649, Note_on_c, 1, 70, 0
7, 157680, Note_on_c, 1, 71, 76
7, 157680, Note_on_c, 1, 80, 76
7, 157859, Note_on_c, 1, 71, 0
7, 157859, Note_on_c, 1, 80, 0
7, 157920, Note_on_c, 1, 71, 76
7, 157920, Note_on_c, 1, 80, 76
7, 158099, Note_on_c, 1, 71, 0
7, 158099, Note_on_c, 1, 80, 0
7, 159000, Note_on_c, 1, 80, 76
7, 159000, Note_on_c, 1, 71, 76
7, 159089, Note_on_c, 1, 80, 0
7, 159089, Note_on_c, 1, 71, 0
7, 159120, Note_on_c, 1, 72, 76
7, 159120, Note_on_c, 1, 79, 76
7, 159209, Note_on_c, 1, 72, 0
7, 159209, Note_on_c, 1, 79, 0
7, 159240, Note_on_c, 1, 70, 76
7, 159240, Note_on_c, 1, 72, 76
7, 159464, Note_on_c, 1, 70, 0
7, 159464, Note_on_c, 1, 72, 0
7, 159480, Note_on_c, 1, 70, 76
7, 159480, Note_on_c, 1, 72, 76
7, 159569, Note_on_c, 1, 70, 0
7, 159569, Note_on_c, 1, 72, 0
7, 159600, Note_on_c, 1, 69, 76
7, 159600, Note_on_c, 1, 72, 76
7, 159689, Note_on_c, 1, 69, 0
7, 159689, Note_on_c, 1, 72, 0
7, 159720, Note_on_c, 1, 74, 76
7, 159720, Note_on_c, 1, 69, 76
7, 159809, Note_on_c, 1, 74, 0
7, 159809, Note_on_c, 1, 69, 0
7, 159840, Note_on_c, 1, 70, 76
7, 159840, Note_on_c, 1, 74, 76
7, 159929, Note_on_c, 1, 70, 0
7, 159929, Note_on_c, 1, 74, 0
7, 159960, Note_on_c, 1, 75, 76
7, 159960, Note_on_c, 1, 70, 76
7, 160184, Note_on_c, 1, 75, 0
7, 160184, Note_on_c, 1, 70, 0
7, 160200, Note_on_c, 1, 70, 76
7, 160200, Note_on_c, 1, 75, 76
7, 160289, Note_on_c, 1, 70, 0
7, 160289, Note_on_c, 1, 75, 0
7, 160320, Note_on_c, 1, 72, 76
7, 160320, Note_on_c, 1, 75, 76
7, 160409, Note_on_c, 1, 72, 0
7, 160409, Note_on_c, 1, 75, 0
7, 160440, Note_on_c, 1, 72, 76
7, 160440, Note_on_c, 1, 77, 76
7, 160529, Note_on_c, 1, 72, 0
7, 160529, Note_on_c, 1, 77, 0
7, 160560, Note_on_c, 1, 74, 76
7, 160560, Note_on_c, 1, 77, 76
7, 160784, Note_on_c, 1, 74, 0
7, 160784, Note_on_c, 1, 77, 0
7, 160800, Note_on_c, 1, 82, 76
7, 160800, Note_on_c, 1, 70, 76
7, 161024, Note_on_c, 1, 82, 0
7, 161024, Note_on_c, 1, 70, 0
7, 161040, Note_on_c, 1, 82, 76
7, 161040, Note_on_c, 1, 70, 76
7, 161264, Note_on_c, 1, 82, 0
7, 161264, Note_on_c, 1, 70, 0
7, 161280, Note_on_c, 1, 82, 76
7, 161280, Note_on_c, 1, 70, 76
7, 161504, Note_on_c, 1, 82, 0
7, 161504, Note_on_c, 1, 70, 0
7, 161520, Note_on_c, 1, 82, 76
7, 161520, Note_on_c, 1, 70, 76
7, 161744, Note_on_c, 1, 82, 0
7, 161744, Note_on_c, 1, 70, 0
7, 161760, Note_on_c, 1, 82, 76
7, 161760, Note_on_c, 1, 70, 76
7, 162479, Note_on_c, 1, 82, 0
7, 162479, Note_on_c, 1, 70, 0
7, 162480, Note_on_c, 1, 71, 76
7, 162480, Note_on_c, 1, 83, 76
7, 162704, Note_on_c, 1, 71, 0
7, 162719, Note_on_c, 1, 83, 0
7, 162720, Note_on_c, 1, 84, 76
7, 162720, Note_on_c, 1, 72, 76
7, 162824, Note_on_c, 1, 84, 0
7, 162839, Note_on_c, 1, 72, 0
7, 162840, Note_on_c, 1, 74, 76
7, 162840, Note_on_c, 1, 79, 76
7, 162959, Note_on_c, 1, 74, 0
7, 162960, Note_on_c, 1, 77, 76
7, 163064, Note_on_c, 1, 79, 0
7, 163079, Note_on_c, 1, 77, 0
7, 163080, Note_on_c, 1, 79, 76
7, 163080, Note_on_c, 1, 75, 76
7, 163199, Note_on_c, 1, 79, 0
7, 163199, Note_on_c, 1, 75, 0
7, 163200, Note_on_c, 1, 77, 76
7, 163200, Note_on_c, 1, 74, 76
7, 163319, Note_on_c, 1, 77, 0
7, 163319, Note_on_c, 1, 74, 0
7, 163320, Note_on_c, 1, 75, 76
7, 163320, Note_on_c, 1, 72, 76
7, 163424, Note_on_c, 1, 75, 0
7, 163424, Note_on_c, 1, 72, 0
7, 163440, Note_on_c, 1, 70, 76
7, 163440, Note_on_c, 1, 74, 76
7, 163679, Note_on_c, 1, 70, 0
7, 163679, Note_on_c, 1, 74, 0
7, 164880, Note_on_c, 1, 77, 76
7, 166424, Note_on_c, 1, 77, 0
7, 166440, Note_on_c, 1, 76, 84
7, 166529, Note_on_c, 1, 76, 0
7, 166560, Note_on_c, 1, 75, 84
7, 166649, Note_on_c, 1, 75, 0
7, 166680, Note_on_c, 1, 74, 84
7, 166769, Note_on_c, 1, 74, 0
7, 166800, Note_on_c, 1, 72, 84
7, 166889, Note_on_c, 1, 72, 0
7, 166920, Note_on_c, 1, 70, 84
7, 167009, Note_on_c, 1, 70, 0
7, 167040, Note_on_c, 1, 69, 84
7, 167129, Note_on_c, 1, 69, 0
7, 167160, Note_on_c, 1, 79, 84
7, 167160, Note_on_c, 1, 67, 84
7, 167249, Note_on_c, 1, 79, 0
7, 167249, Note_on_c, 1, 67, 0
7, 167280, Note_on_c, 1, 77, 84
7, 167280, Note_on_c, 1, 65, 84
7, 167369, Note_on_c, 1, 77, 0
7, 167369, Note_on_c, 1, 65, 0
7, 167400, Note_on_c, 1, 75, 84
7, 167400, Note_on_c, 1, 63, 84
7, 167489, Note_on_c, 1, 75, 0
7, 167489, Note_on_c, 1, 63, 0
7, 167520, Note_on_c, 1, 62, 84
7, 167520, Note_on_c, 1, 74, 84
7, 167609, Note_on_c, 1, 62, 0
7, 167609, Note_on_c, 1, 74, 0
7, 167640, Note_on_c, 1, 60, 84
7, 167640, Note_on_c, 1, 72, 84
7, 167729, Note_on_c, 1, 60, 0
7, 167729, Note_on_c, 1, 72, 0
7, 167760, Note_on_c, 1, 70, 84
7, 167999, Note_on_c, 1, 70, 0
7, 168480, Control_c, 1, 11, 96
7, 168600, Control_c, 1, 11, 99
7, 168720, Note_on_c, 1, 77, 68
7, 168720, Control_c, 1, 11, 101
7, 168840, Control_c, 1, 11, 104
7, 168929, Note_on_c, 1, 77, 0
7, 168960, Control_c, 1, 11, 106
7, 168960, Note_on_c, 1, 77, 68
7, 169080, Control_c, 1, 11, 109
7, 169169, Note_on_c, 1, 77, 0
7, 169200, Control_c, 1, 11, 112
7, 169200, Note_on_c, 1, 77, 68
7, 169320, Control_c, 1, 11, 114
7, 169409, Note_on_c, 1, 77, 0
7, 169440, Control_c, 1, 11, 117
7, 169440, Note_on_c, 1, 77, 68
7, 169560, Control_c, 1, 11, 119
7, 169649, Note_on_c, 1, 77, 0
7, 169680, Note_on_c, 1, 70, 76
7, 169680, Control_c, 1, 11, 122
7, 169680, Note_on_c, 1, 78, 68
7, 169800, Control_c, 1, 11, 127
7, 169889, Note_on_c, 1, 70, 0
7, 169889, Note_on_c, 1, 78, 0
7, 169920, Note_on_c, 1, 70, 68
7, 169920, Control_c, 1, 11, 127
7, 169920, Note_on_c, 1, 79, 68
7, 169980, Control_c, 1, 11, 124
7, 170040, Control_c, 1, 11, 122
7, 170100, Control_c, 1, 11, 119
7, 170159, Note_on_c, 1, 70, 0
7, 170160, Control_c, 1, 11, 117
7, 170160, Note_on_c, 1, 71, 68
7, 170220, Control_c, 1, 11, 114
7, 170280, Control_c, 1, 11, 112
7, 170340, Control_c, 1, 11, 109
7, 170399, Note_on_c, 1, 71, 0
7, 170400, Control_c, 1, 11, 106
7, 170400, Note_on_c, 1, 72, 68
7, 170460, Control_c, 1, 11, 104
7, 170520, Control_c, 1, 11, 101
7, 170580, Control_c, 1, 11, 96
7, 170639, Note_on_c, 1, 79, 0
7, 170639, Note_on_c, 1, 72, 0
7, 172080, Control_c, 1, 11, 127
7, 172560, Note_on_c, 1, 79, 76
7, 172800, Control_c, 1, 11, 127
7, 172860, Control_c, 1, 11, 124
7, 172920, Control_c, 1, 11, 122
7, 172980, Control_c, 1, 11, 119
7, 173039, Note_on_c, 1, 79, 0
7, 173040, Note_on_c, 1, 77, 68
7, 173040, Control_c, 1, 11, 117
7, 173100, Control_c, 1, 11, 114
7, 173159, Note_on_c, 1, 77, 0
7, 173160, Control_c, 1, 11, 112
7, 173160, Note_on_c, 1, 75, 68
7, 173220, Control_c, 1, 11, 109
7, 173279, Note_on_c, 1, 75, 0
7, 173280, Control_c, 1, 11, 106
7, 173280, Note_on_c, 1, 74, 68
7, 173340, Control_c, 1, 11, 104
7, 173399, Note_on_c, 1, 74, 0
7, 173400, Note_on_c, 1, 72, 68
7, 173400, Control_c, 1, 11, 101
7, 173460, Control_c, 1, 11, 99
7, 173504, Note_on_c, 1, 72, 0
7, 173520, Note_on_c, 1, 70, 68
7, 173759, Note_on_c, 1, 70, 0
7, 174000, Control_c, 1, 11, 96
7, 174240, Control_c, 1, 11, 96
7, 174360, Control_c, 1, 11, 99
7, 174480, Note_on_c, 1, 75, 68
7, 174480, Control_c, 1, 11, 101
7, 174600, Control_c, 1, 11, 104
7, 174689, Note_on_c, 1, 75, 0
7, 174720, Note_on_c, 1, 75, 68
7, 174720, Control_c, 1, 11, 106
7, 174840, Control_c, 1, 11, 109
7, 174929, Note_on_c, 1, 75, 0
7, 174960, Control_c, 1, 11, 112
7, 174960, Note_on_c, 1, 75, 68
7, 175080, Control_c, 1, 11, 114
7, 175169, Note_on_c, 1, 75, 0
7, 175200, Control_c, 1, 11, 117
7, 175200, Note_on_c, 1, 75, 68
7, 175200, Note_on_c, 1, 78, 68
7, 175320, Control_c, 1, 11, 119
7, 175409, Note_on_c, 1, 75, 0
7, 175409, Note_on_c, 1, 78, 0
7, 175440, Note_on_c, 1, 75, 68
7, 175440, Control_c, 1, 11, 122
7, 175440, Note_on_c, 1, 78, 68
7, 175560, Control_c, 1, 11, 127
7, 175649, Note_on_c, 1, 75, 0
7, 175649, Note_on_c, 1, 78, 0
7, 175680, Control_c, 1, 11, 127
7, 175680, Note_on_c, 1, 75, 76
7, 175680, Note_on_c, 1, 78, 76
7, 175740, Control_c, 1, 11, 123
7, 175800, Control_c, 1, 11, 119
7, 175860, Control_c, 1, 11, 115
7, 175920, Control_c, 1, 11, 111
7, 175980, Control_c, 1, 11, 107
7, 176040, Control_c, 1, 11, 104
7, 176100, Control_c, 1, 11, 100
7, 176160, Control_c, 1, 11, 96
7, 176220, Control_c, 1, 11, 92
7, 176280, Control_c, 1, 11, 88
7, 176340, Control_c, 1, 11, 84
7, 176399, Note_on_c, 1, 75, 0
7, 176399, Note_on_c, 1, 78, 0
7, 177840, Control_c, 1, 11, 96
7, 178080, Note_on_c, 1, 82, 68
7, 178319, Note_on_c, 1, 82, 0
7, 178320, Note_on_c, 1, 79, 68
7, 178559, Note_on_c, 1, 79, 0
7, 178560, Control_c, 1, 11, 96
7, 178560, Note_on_c, 1, 77, 68
7, 178600, Control_c, 1, 11, 99
7, 178640, Control_c, 1, 11, 101
7, 178680, Control_c, 1, 11, 104
7, 178720, Control_c, 1, 11, 106
7, 178760, Control_c, 1, 11, 109
7, 178800, Control_c, 1, 11, 112
7, 178840, Control_c, 1, 11, 114
7, 178880, Control_c, 1, 11, 117
7, 178920, Control_c, 1, 11, 119
7, 178960, Control_c, 1, 11, 122
7, 179000, Control_c, 1, 11, 124
7, 179039, Note_on_c, 1, 77, 0
7, 179040, Note_on_c, 1, 76, 68
7, 179040, Control_c, 1, 11, 127
7, 179080, Control_c, 1, 11, 122
7, 179120, Control_c, 1, 11, 117
7, 179160, Control_c, 1, 11, 112
7, 179200, Control_c, 1, 11, 106
7, 179240, Control_c, 1, 11, 101
7, 179264, Note_on_c, 1, 76, 0
7, 179280, Note_on_c, 1, 75, 68
7, 179519, Note_on_c, 1, 75, 0
7, 185040, Control_c, 1, 11, 80
7, 185520, Control_c, 1, 11, 80
7, 186107, Control_c, 1, 11, 109
7, 186120, Note_on_c, 1, 81, 76
7, 186120, Note_on_c, 1, 72, 76
7, 186160, Control_c, 1, 11, 111
7, 186209, Note_on_c, 1, 81, 0
7, 186209, Note_on_c, 1, 72, 0
7, 186213, Control_c, 1, 11, 114
7, 186240, Note_on_c, 1, 74, 76
7, 186240, Note_on_c, 1, 82, 76
7, 186267, Control_c, 1, 11, 117
7, 186320, Control_c, 1, 11, 119
7, 186329, Note_on_c, 1, 74, 0
7, 186329, Note_on_c, 1, 82, 0
7, 186360, Note_on_c, 1, 75, 76
7, 186360, Note_on_c, 1, 84, 76
7, 186373, Control_c, 1, 11, 122
7, 186427, Control_c, 1, 11, 127
7, 186449, Note_on_c, 1, 75, 0
7, 186449, Note_on_c, 1, 84, 0
7, 186480, Note_on_c, 1, 77, 76
7, 186480, Note_on_c, 1, 86, 76
7, 186719, Note_on_c, 1, 77, 0
7, 186719, Note_on_c, 1, 86, 0
7, 186720, Note_on_c, 1, 74, 84
7, 186720, Note_on_c, 1, 77, 84
7, 187199, Note_on_c, 1, 74, 0
7, 187199, Note_on_c, 1, 77, 0
7, 187440, Note_on_c, 1, 74, 84
7, 187440, Note_on_c, 1, 77, 84
7, 187919, Note_on_c, 1, 74, 0
7, 187919, Note_on_c, 1, 77, 0
7, 188160, Note_on_c, 1, 75, 84
7, 188160, Note_on_c, 1, 77, 84
7, 188639, Note_on_c, 1, 75, 0
7, 188639, Note_on_c, 1, 77, 0
7, 188880, Note_on_c, 1, 69, 84
7, 188880, Note_on_c, 1, 77, 84
7, 189104, Note_on_c, 1, 69, 0
7, 189104, Note_on_c, 1, 77, 0
7, 189120, Note_on_c, 1, 77, 76
7, 189120, Note_on_c, 1, 72, 76
7, 189344, Note_on_c, 1, 77, 0
7, 189344, Note_on_c, 1, 72, 0
7, 189360, Note_on_c, 1, 74, 84
7, 189360, Note_on_c, 1, 77, 84
7, 189599, Note_on_c, 1, 74, 0
7, 191744, Note_on_c, 1, 77, 0
7, 191760, Note_on_c, 1, 77, 84
7, 191984, Note_on_c, 1, 77, 0
7, 192000, Note_on_c, 1, 77, 84
7, 192224, Note_on_c, 1, 77, 0
7, 192240, Note_on_c, 1, 77, 84
7, 192720, Note_on_c, 1, 82, 84
7, 192839, Note_on_c, 1, 77, 0
7, 192840, Note_on_c, 1, 76, 84
7, 192959, Note_on_c, 1, 76, 0
7, 192960, Note_on_c, 1, 77, 84
7, 193079, Note_on_c, 1, 82, 0
7, 193079, Note_on_c, 1, 77, 0
7, 196200, Note_on_c, 1, 71, 84
7, 196200, Note_on_c, 1, 79, 84
7, 196289, Note_on_c, 1, 71, 0
7, 196289, Note_on_c, 1, 79, 0
7, 196320, Note_on_c, 1, 72, 84
7, 196320, Note_on_c, 1, 79, 84
7, 196409, Note_on_c, 1, 72, 0
7, 196409, Note_on_c, 1, 79, 0
7, 196440, Note_on_c, 1, 79, 84
7, 196440, Note_on_c, 1, 73, 84
7, 196529, Note_on_c, 1, 79, 0
7, 196529, Note_on_c, 1, 73, 0
7, 196560, Note_on_c, 1, 78, 84
7, 196560, Note_on_c, 1, 74, 84
7, 196739, Note_on_c, 1, 78, 0
7, 196739, Note_on_c, 1, 74, 0
7, 196800, Note_on_c, 1, 74, 84
7, 196800, Note_on_c, 1, 81, 84
7, 196979, Note_on_c, 1, 74, 0
7, 196979, Note_on_c, 1, 81, 0
7, 197040, Note_on_c, 1, 74, 84
7, 197040, Note_on_c, 1, 79, 84
7, 197219, Note_on_c, 1, 74, 0
7, 197219, Note_on_c, 1, 79, 0
7, 197520, Note_on_c, 1, 71, 84
7, 197520, Note_on_c, 1, 77, 84
7, 197699, Note_on_c, 1, 71, 0
7, 197699, Note_on_c, 1, 77, 0
7, 197760, Note_on_c, 1, 75, 84
7, 197760, Note_on_c, 1, 72, 84
7, 197939, Note_on_c, 1, 75, 0
7, 197939, Note_on_c, 1, 72, 0
7, 198240, Note_on_c, 1, 79, 84
7, 198240, Note_on_c, 1, 72, 84
7, 198419, Note_on_c, 1, 79, 0
7, 198419, Note_on_c, 1, 72, 0
7, 198480, Note_on_c, 1, 77, 84
7, 198480, Note_on_c, 1, 72, 84
7, 198659, Note_on_c, 1, 77, 0
7, 198659, Note_on_c, 1, 72, 0
7, 198960, Note_on_c, 1, 81, 84
7, 198960, Note_on_c, 1, 74, 84
7, 199139, Note_on_c, 1, 81, 0
7, 199139, Note_on_c, 1, 74, 0
7, 199200, Note_on_c, 1, 74, 84
7, 199200, Note_on_c, 1, 79, 84
7, 199379, Note_on_c, 1, 74, 0
7, 199379, Note_on_c, 1, 79, 0
7, 199680, Note_on_c, 1, 77, 84
7, 199680, Note_on_c, 1, 71, 84
7, 199859, Note_on_c, 1, 77, 0
7, 199859, Note_on_c, 1, 71, 0
7, 199920, Note_on_c, 1, 72, 84
7, 199920, Note_on_c, 1, 75, 84
7, 200099, Note_on_c, 1, 72, 0
7, 200099, Note_on_c, 1, 75, 0
7, 200400, Note_on_c, 1, 79, 92
7, 200400, Note_on_c, 1, 72, 92
7, 200579, Note_on_c, 1, 79, 0
7, 200579, Note_on_c, 1, 72, 0
7, 200880, Note_on_c, 1, 72, 92
7, 200880, Note_on_c, 1, 79, 92
7, 201059, Note_on_c, 1, 72, 0
7, 201059, Note_on_c, 1, 79, 0
7, 201360, Note_on_c, 1, 79, 92
7, 201360, Note_on_c, 1, 72, 92
7, 201539, Note_on_c, 1, 79, 0
7, 201539, Note_on_c, 1, 72, 0
7, 201840, Note_on_c, 1, 79, 92
7, 201840, Note_on_c, 1, 72, 92
7, 202019, Note_on_c, 1, 79, 0
7, 202019, Note_on_c, 1, 72, 0
7, 202320, Note_on_c, 1, 79, 92
7, 202320, Note_on_c, 1, 72, 92
7, 202499, Note_on_c, 1, 79, 0
7, 202499, Note_on_c, 1, 72, 0
7, 202800, Note_on_c, 1, 72, 92
7, 202800, Note_on_c, 1, 79, 92
7, 202979, Note_on_c, 1, 72, 0
7, 202979, Note_on_c, 1, 79, 0
7, 203760, Note_on_c, 1, 70, 76
7, 203760, Note_on_c, 1, 76, 76
7, 203880, Control_c, 1, 11, 80
7, 204479, Note_on_c, 1, 76, 0
7, 204480, Note_on_c, 1, 77, 76
7, 205169, Note_on_c, 1, 70, 0
7, 205169, Note_on_c, 1, 77, 0
7, 205185, Control_c, 1, 11, 127
7, 205200, Note_on_c, 1, 70, 76
7, 205200, Note_on_c, 1, 76, 76
7, 205320, Control_c, 1, 11, 80
7, 206129, Note_on_c, 1, 70, 0
7, 206129, Note_on_c, 1, 76, 0
7, 206160, Note_on_c, 1, 70, 76
7, 206160, Note_on_c, 1, 75, 76
7, 206339, Note_on_c, 1, 70, 0
7, 206339, Note_on_c, 1, 75, 0
7, 206520, Control_c, 1, 11, 127
7, 206640, Note_on_c, 1, 75, 52
7, 206640, Note_on_c, 1, 72, 52
7, 206819, Note_on_c, 1, 75, 0
7, 206819, Note_on_c, 1, 72, 0
7, 207120, Note_on_c, 1, 72, 52
7, 207120, Note_on_c, 1, 75, 52
7, 207299, Note_on_c, 1, 72, 0
7, 207299, Note_on_c, 1, 75, 0
7, 207600, Note_on_c, 1, 77, 52
7, 207600, Note_on_c, 1, 75, 52
7, 207779, Note_on_c, 1, 77, 0
7, 207779, Note_on_c, 1, 75, 0
7, 208080, Note_on_c, 1, 74, 52
7, 208080, Note_on_c, 1, 77, 52
7, 208259, Note_on_c, 1, 74, 0
7, 208259, Note_on_c, 1, 77, 0
7, 208440, Control_c, 1, 11, 64
7, 208560, Note_on_c, 1, 77, 84
7, 208560, Note_on_c, 1, 74, 84
7, 208679, Note_on_c, 1, 77, 0
7, 208680, Note_on_c, 1, 78, 84
7, 208739, Note_on_c, 1, 74, 0
7, 208784, Note_on_c, 1, 78, 0
7, 208800, Note_on_c, 1, 79, 84
7, 208800, Control_c, 1, 11, 64
7, 208890, Control_c, 1, 11, 67
7, 208980, Control_c, 1, 11, 69
7, 209070, Control_c, 1, 11, 72
7, 209160, Control_c, 1, 11, 75
7, 209250, Control_c, 1, 11, 77
7, 209340, Control_c, 1, 11, 80
7, 209430, Control_c, 1, 11, 82
7, 209520, Note_on_c, 1, 75, 84
7, 209520, Control_c, 1, 11, 85
7, 209610, Control_c, 1, 11, 88
7, 209700, Control_c, 1, 11, 90
7, 209790, Control_c, 1, 11, 93
7, 209864, Note_on_c, 1, 79, 0
7, 209864, Note_on_c, 1, 75, 0
7, 209880, Note_on_c, 1, 79, 84
7, 209880, Control_c, 1, 11, 96
7, 209880, Note_on_c, 1, 75, 84
7, 209970, Control_c, 1, 11, 98
7, 209999, Note_on_c, 1, 79, 0
7, 209999, Note_on_c, 1, 75, 0
7, 210000, Note_on_c, 1, 74, 84
7, 210000, Note_on_c, 1, 77, 84
7, 210060, Control_c, 1, 11, 101
7, 210119, Note_on_c, 1, 74, 0
7, 210119, Note_on_c, 1, 77, 0
7, 210120, Note_on_c, 1, 72, 84
7, 210120, Note_on_c, 1, 75, 84
7, 210150, Control_c, 1, 11, 103
7, 210224, Note_on_c, 1, 72, 0
7, 210224, Note_on_c, 1, 75, 0
7, 210240, Note_on_c, 1, 70, 84
7, 210240, Control_c, 1, 11, 106
7, 210240, Note_on_c, 1, 74, 84
7, 210330, Control_c, 1, 11, 109
7, 210344, Note_on_c, 1, 70, 0
7, 210344, Note_on_c, 1, 74, 0
7, 210360, Note_on_c, 1, 77, 84
7, 210360, Note_on_c, 1, 74, 84
7, 210420, Control_c, 1, 11, 111
7, 210464, Note_on_c, 1, 77, 0
7, 210464, Note_on_c, 1, 74, 0
7, 210480, Note_on_c, 1, 74, 84
7, 210480, Note_on_c, 1, 82, 84
7, 210510, Control_c, 1, 11, 114
7, 210584, Note_on_c, 1, 74, 0
7, 210584, Note_on_c, 1, 82, 0
7, 210600, Note_on_c, 1, 82, 84
7, 210600, Control_c, 1, 11, 117
7, 210600, Note_on_c, 1, 74, 84
7, 210690, Control_c, 1, 11, 119
7, 210704, Note_on_c, 1, 82, 0
7, 210704, Note_on_c, 1, 74, 0
7, 210720, Note_on_c, 1, 74, 84
7, 210720, Note_on_c, 1, 82, 84
7, 210780, Control_c, 1, 11, 122
7, 210824, Note_on_c, 1, 74, 0
7, 210824, Note_on_c, 1, 82, 0
7, 210840, Note_on_c, 1, 74, 84
7, 210840, Note_on_c, 1, 82, 84
7, 210870, Control_c, 1, 11, 124
7, 210944, Note_on_c, 1, 74, 0
7, 210944, Note_on_c, 1, 82, 0
7, 210945, Control_c, 1, 11, 127
7, 210960, Note_on_c, 1, 72, 84
7, 210960, Note_on_c, 1, 81, 84
7, 211679, Note_on_c, 1, 72, 0
7, 211679, Note_on_c, 1, 81, 0
7, 211680, Note_on_c, 1, 74, 76
7, 211680, Note_on_c, 1, 82, 76
7, 211859, Note_on_c, 1, 74, 0
7, 211859, Note_on_c, 1, 82, 0
7, 212400, Note_on_c, 1, 70, 76
7, 212579, Note_on_c, 1, 70, 0
7, 213120, Note_on_c, 1, 70, 76
7, 213299, Note_on_c, 1, 70, 0
7, 213840, Note_on_c, 1, 78, 76
7, 213840, Note_on_c, 1, 69, 76
7, 214019, Note_on_c, 1, 78, 0
7, 214019, Note_on_c, 1, 69, 0
7, 214080, Note_on_c, 1, 69, 76
7, 214080, Note_on_c, 1, 78, 76
7, 214259, Note_on_c, 1, 69, 0
7, 214259, Note_on_c, 1, 78, 0
7, 214320, Note_on_c, 1, 69, 76
7, 214320, Note_on_c, 1, 78, 76
7, 214499, Note_on_c, 1, 69, 0
7, 214499, Note_on_c, 1, 78, 0
7, 214560, Note_on_c, 1, 77, 76
7, 214560, Note_on_c, 1, 70, 76
7, 214799, Note_on_c, 1, 77, 0
7, 214799, Note_on_c, 1, 70, 0
7, 220800, Note_on_c, 1, 79, 44
7, 221039, Note_on_c, 1, 79, 0
7, 221040, Note_on_c, 1, 76, 44
7, 221519, Note_on_c, 1, 76, 0
7, 221520, Note_on_c, 1, 77, 44
7, 221744, Note_on_c, 1, 77, 0
7, 221760, Note_on_c, 1, 77, 44
7, 221999, Note_on_c, 1, 77, 0
7, 227760, Note_on_c, 1, 81, 48
7, 228119, Note_on_c, 1, 81, 0
7, 228120, Note_on_c, 1, 79, 48
7, 228239, Note_on_c, 1, 79, 0
7, 228240, Note_on_c, 1, 78, 48
7, 228479, Note_on_c, 1, 78, 0
7, 230640, Note_on_c, 1, 81, 48
7, 230999, Note_on_c, 1, 81, 0
7, 231000, Note_on_c, 1, 79, 48
7, 231119, Note_on_c, 1, 79, 0
7, 231120, Note_on_c, 1, 78, 48
7, 231359, Note_on_c, 1, 78, 0
7, 233520, Note_on_c, 1, 67, 68
7, 234089, Note_on_c, 1, 67, 0
7, 234120, Note_on_c, 1, 69, 52
7, 234209, Note_on_c, 1, 69, 0
7, 234240, Note_on_c, 1, 71, 52
7, 234329, Note_on_c, 1, 71, 0
7, 234360, Note_on_c, 1, 72, 52
7, 234449, Note_on_c, 1, 72, 0
7, 234480, Note_on_c, 1, 74, 52
7, 234569, Note_on_c, 1, 74, 0
7, 234600, Note_on_c, 1, 76, 52
7, 234689, Note_on_c, 1, 76, 0
7, 234720, Note_on_c, 1, 77, 52
7, 234959, Note_on_c, 1, 77, 0
7, 236880, Control_c, 1, 11, 112
7, 237360, Note_on_c, 1, 79, 60
7, 238319, Note_on_c, 1, 79, 0
7, 238320, Note_on_c, 1, 80, 60
7, 238320, Control_c, 1, 11, 112
7, 238380, Control_c, 1, 11, 113
7, 238440, Control_c, 1, 11, 115
7, 238500, Control_c, 1, 11, 116
7, 238560, Control_c, 1, 11, 117
7, 238620, Control_c, 1, 11, 118
7, 238680, Control_c, 1, 11, 120
7, 238740, Control_c, 1, 11, 121
7, 238800, Control_c, 1, 11, 122
7, 238860, Control_c, 1, 11, 123
7, 238920, Control_c, 1, 11, 125
7, 239039, Control_c, 1, 11, 112
7, 239279, Note_on_c, 1, 80, 0
7, 239760, Control_c, 1, 11, 64
7, 240240, Note_on_c, 1, 80, 84
7, 241199, Note_on_c, 1, 80, 0
7, 241200, Note_on_c, 1, 81, 84
7, 241200, Control_c, 1, 11, 64
7, 241280, Control_c, 1, 11, 69
7, 241360, Control_c, 1, 11, 75
7, 241440, Control_c, 1, 11, 80
7, 241520, Control_c, 1, 11, 85
7, 241600, Control_c, 1, 11, 90
7, 241680, Control_c, 1, 11, 96
7, 241680, Note_on_c, 1, 73, 84
7, 241760, Control_c, 1, 11, 101
7, 241840, Control_c, 1, 11, 106
7, 241919, Note_on_c, 1, 73, 0
7, 241920, Control_c, 1, 11, 111
7, 241920, Note_on_c, 1, 74, 84
7, 242000, Control_c, 1, 11, 117
7, 242080, Control_c, 1, 11, 127
7, 242144, Note_on_c, 1, 81, 0
7, 242144, Note_on_c, 1, 74, 0
7, 242160, Note_on_c, 1, 77, 84
7, 242160, Note_on_c, 1, 74, 84
7, 242339, Note_on_c, 1, 77, 0
7, 242339, Note_on_c, 1, 74, 0
7, 242400, Note_on_c, 1, 77, 84
7, 242400, Note_on_c, 1, 74, 84
7, 242579, Note_on_c, 1, 77, 0
7, 242579, Note_on_c, 1, 74, 0
7, 242640, Note_on_c, 1, 77, 84
7, 242640, Note_on_c, 1, 74, 84
7, 242819, Note_on_c, 1, 77, 0
7, 242819, Note_on_c, 1, 74, 0
7, 242880, Note_on_c, 1, 77, 84
7, 242880, Note_on_c, 1, 74, 84
7, 243059, Note_on_c, 1, 77, 0
7, 243059, Note_on_c, 1, 74, 0
7, 243120, Note_on_c, 1, 77, 84
7, 243120, Note_on_c, 1, 74, 84
7, 243299, Note_on_c, 1, 77, 0
7, 243299, Note_on_c, 1, 74, 0
7, 243360, Note_on_c, 1, 77, 84
7, 243360, Note_on_c, 1, 74, 84
7, 244784, Note_on_c, 1, 77, 0
7, 244784, Note_on_c, 1, 74, 0
7, 244800, Note_on_c, 1, 79, 84
7, 244800, Note_on_c, 1, 73, 84
7, 244979, Note_on_c, 1, 79, 0
7, 244979, Note_on_c, 1, 73, 0
7, 245040, Note_on_c, 1, 79, 84
7, 245040, Note_on_c, 1, 73, 84
7, 245219, Note_on_c, 1, 79, 0
7, 245219, Note_on_c, 1, 73, 0
7, 245280, Note_on_c, 1, 79, 84
7, 245280, Note_on_c, 1, 73, 84
7, 245459, Note_on_c, 1, 79, 0
7, 245459, Note_on_c, 1, 73, 0
7, 245520, Note_on_c, 1, 79, 84
7, 245520, Note_on_c, 1, 73, 84
7, 245699, Note_on_c, 1, 79, 0
7, 245699, Note_on_c, 1, 73, 0
7, 245760, Note_on_c, 1, 79, 84
7, 245760, Note_on_c, 1, 73, 84
7, 245939, Note_on_c, 1, 79, 0
7, 245939, Note_on_c, 1, 73, 0
7, 246000, Note_on_c, 1, 79, 84
7, 246000, Note_on_c, 1, 73, 84
7, 246179, Note_on_c, 1, 79, 0
7, 246179, Note_on_c, 1, 73, 0
7, 246240, Note_on_c, 1, 79, 84
7, 246240, Note_on_c, 1, 73, 84
7, 247424, Note_on_c, 1, 79, 0
7, 247424, Note_on_c, 1, 73, 0
7, 247440, Note_on_c, 1, 76, 84
7, 247440, Note_on_c, 1, 73, 84
7, 247679, Note_on_c, 1, 76, 0
7, 247679, Note_on_c, 1, 73, 0
7, 250560, Note_on_c, 1, 79, 84
7, 250560, Note_on_c, 1, 74, 84
7, 250739, Note_on_c, 1, 79, 0
7, 250739, Note_on_c, 1, 74, 0
7, 250800, Note_on_c, 1, 79, 84
7, 250800, Note_on_c, 1, 74, 84
7, 250979, Note_on_c, 1, 79, 0
7, 250979, Note_on_c, 1, 74, 0
7, 251040, Note_on_c, 1, 79, 84
7, 251040, Note_on_c, 1, 74, 84
7, 251219, Note_on_c, 1, 79, 0
7, 251219, Note_on_c, 1, 74, 0
7, 251280, Note_on_c, 1, 79, 84
7, 251280, Note_on_c, 1, 74, 84
7, 251459, Note_on_c, 1, 79, 0
7, 251459, Note_on_c, 1, 74, 0
7, 251520, Note_on_c, 1, 79, 84
7, 251520, Note_on_c, 1, 74, 84
7, 251699, Note_on_c, 1, 79, 0
7, 251699, Note_on_c, 1, 74, 0
7, 251760, Note_on_c, 1, 79, 84
7, 251760, Note_on_c, 1, 74, 84
7, 251939, Note_on_c, 1, 79, 0
7, 251939, Note_on_c, 1, 74, 0
7, 252000, Note_on_c, 1, 79, 84
7, 252000, Note_on_c, 1, 74, 84
7, 253424, Note_on_c, 1, 79, 0
7, 253424, Note_on_c, 1, 74, 0
7, 253440, Note_on_c, 1, 78, 84
7, 253440, Note_on_c, 1, 74, 84
7, 253619, Note_on_c, 1, 78, 0
7, 253619, Note_on_c, 1, 74, 0
7, 253680, Note_on_c, 1, 78, 84
7, 253680, Note_on_c, 1, 74, 84
7, 253859, Note_on_c, 1, 78, 0
7, 253859, Note_on_c, 1, 74, 0
7, 253920, Note_on_c, 1, 78, 84
7, 253920, Note_on_c, 1, 74, 84
7, 254099, Note_on_c, 1, 78, 0
7, 254099, Note_on_c, 1, 74, 0
7, 254160, Note_on_c, 1, 78, 84
7, 254160, Note_on_c, 1, 74, 84
7, 254339, Note_on_c, 1, 78, 0
7, 254339, Note_on_c, 1, 74, 0
7, 254400, Note_on_c, 1, 78, 84
7, 254400, Note_on_c, 1, 74, 84
7, 254579, Note_on_c, 1, 78, 0
7, 254579, Note_on_c, 1, 74, 0
7, 254640, Note_on_c, 1, 78, 84
7, 254640, Note_on_c, 1, 74, 84
7, 254819, Note_on_c, 1, 78, 0
7, 254819, Note_on_c, 1, 74, 0
7, 254880, Note_on_c, 1, 78, 84
7, 254880, Note_on_c, 1, 74, 84
7, 256064, Note_on_c, 1, 78, 0
7, 256064, Note_on_c, 1, 74, 0
7, 256080, Note_on_c, 1, 81, 84
7, 256080, Note_on_c, 1, 74, 84
7, 256304, Note_on_c, 1, 81, 0
7, 256304, Note_on_c, 1, 74, 0
7, 256320, Note_on_c, 1, 79, 52
7, 256320, Note_on_c, 1, 74, 52
7, 256559, Note_on_c, 1, 79, 0
7, 256559, Note_on_c, 1, 74, 0
7, 256680, Note_on_c, 1, 79, 52
7, 256784, Note_on_c, 1, 79, 0
7, 256800, Note_on_c, 1, 79, 52
7, 256919, Note_on_c, 1, 79, 0
7, 257400, Note_on_c, 1, 79, 52
7, 257504, Note_on_c, 1, 79, 0
7, 257520, Note_on_c, 1, 79, 52
7, 257639, Note_on_c, 1, 79, 0
7, 257880, Note_on_c, 1, 79, 53
7, 257984, Note_on_c, 1, 79, 0
7, 258000, Note_on_c, 1, 79, 54
7, 258104, Note_on_c, 1, 79, 0
7, 258120, Note_on_c, 1, 79, 56
7, 258224, Note_on_c, 1, 79, 0
7, 258240, Note_on_c, 1, 79, 57
7, 258344, Note_on_c, 1, 79, 0
7, 258360, Note_on_c, 1, 79, 58
7, 258464, Note_on_c, 1, 79, 0
7, 258480, Note_on_c, 1, 79, 60
7, 258719, Note_on_c, 1, 79, 0
7, 262440, Note_on_c, 1, 77, 76
7, 262544, Note_on_c, 1, 77, 0
7, 262560, Note_on_c, 1, 77, 76
7, 262679, Note_on_c, 1, 77, 0
7, 263160, Note_on_c, 1, 82, 76
7, 263160, Note_on_c, 1, 70, 76
7, 263264, Note_on_c, 1, 82, 0
7, 263264, Note_on_c, 1, 70, 0
7, 263280, Note_on_c, 1, 82, 76
7, 263280, Note_on_c, 1, 70, 76
7, 263399, Note_on_c, 1, 82, 0
7, 263399, Note_on_c, 1, 70, 0
7, 264960, Note_on_c, 1, 80, 84
7, 264960, Note_on_c, 1, 73, 84
7, 265664, Note_on_c, 1, 80, 0
7, 265664, Note_on_c, 1, 73, 0
7, 265680, Note_on_c, 1, 80, 84
7, 265680, Note_on_c, 1, 74, 84
7, 266384, Note_on_c, 1, 80, 0
7, 266384, Note_on_c, 1, 74, 0
7, 266400, Note_on_c, 1, 79, 84
7, 266400, Note_on_c, 1, 75, 84
7, 266639, Note_on_c, 1, 79, 0
7, 266639, Note_on_c, 1, 75, 0
7, 267840, Note_on_c, 1, 75, 68
7, 267960, Control_c, 1, 11, 96
7, 268649, Note_on_c, 1, 75, 0
7, 268680, Note_on_c, 1, 75, 68
7, 268769, Note_on_c, 1, 75, 0
7, 268800, Note_on_c, 1, 77, 68
7, 268889, Note_on_c, 1, 77, 0
7, 268920, Note_on_c, 1, 79, 68
7, 269009, Note_on_c, 1, 79, 0
7, 269040, Note_on_c, 1, 80, 68
7, 269129, Note_on_c, 1, 80, 0
7, 269160, Note_on_c, 1, 82, 68
7, 269249, Note_on_c, 1, 82, 0
7, 269280, Note_on_c, 1, 84, 68
7, 269519, Note_on_c, 1, 84, 0
7, 270480, Control_c, 1, 11, 127
7, 270720, Note_on_c, 1, 75, 68
7, 270840, Control_c, 1, 11, 96
7, 271529, Note_on_c, 1, 75, 0
7, 271560, Note_on_c, 1, 74, 68
7, 271649, Note_on_c, 1, 74, 0
7, 271680, Note_on_c, 1, 75, 68
7, 271769, Note_on_c, 1, 75, 0
7, 271800, Note_on_c, 1, 77, 68
7, 271889, Note_on_c, 1, 77, 0
7, 271920, Note_on_c, 1, 79, 68
7, 272009, Note_on_c, 1, 79, 0
7, 272040, Note_on_c, 1, 80, 68
7, 272129, Note_on_c, 1, 80, 0
7, 272160, Note_on_c, 1, 82, 68
7, 272399, Note_on_c, 1, 82, 0
7, 276240, Control_c, 1, 11, 127
7, 276480, Note_on_c, 1, 70, 68
7, 276600, Control_c, 1, 11, 96
7, 277289, Note_on_c, 1, 70, 0
7, 277320, Note_on_c, 1, 72, 68
7, 277409, Note_on_c, 1, 72, 0
7, 277440, Note_on_c, 1, 74, 68
7, 277529, Note_on_c, 1, 74, 0
7, 277560, Note_on_c, 1, 76, 68
7, 277649, Note_on_c, 1, 76, 0
7, 277680, Note_on_c, 1, 77, 68
7, 277769, Note_on_c, 1, 77, 0
7, 277800, Note_on_c, 1, 79, 68
7, 277889, Note_on_c, 1, 79, 0
7, 277920, Note_on_c, 1, 80, 68
7, 278159, Note_on_c, 1, 80, 0
7, 283920, Note_on_c, 1, 70, 60
7, 283920, Note_on_c, 1, 67, 60
7, 284099, Note_on_c, 1, 70, 0
7, 284099, Note_on_c, 1, 67, 0
7, 284160, Note_on_c, 1, 82, 76
7, 284160, Note_on_c, 1, 79, 76
7, 284639, Note_on_c, 1, 82, 0
7, 284639, Note_on_c, 1, 79, 0
7, 284640, Note_on_c, 1, 81, 60
7, 284640, Note_on_c, 1, 77, 60
7, 284879, Note_on_c, 1, 81, 0
7, 284879, Note_on_c, 1, 77, 0
7, 286560, Control_c, 1, 11, 127
7, 286800, Note_on_c, 1, 77, 84
7, 286800, Note_on_c, 1, 68, 84
7, 288209, Note_on_c, 1, 77, 0
7, 288209, Note_on_c, 1, 68, 0
7, 288240, Note_on_c, 1, 77, 92
7, 288240, Note_on_c, 1, 68, 92
7, 288689, Note_on_c, 1, 77, 0
7, 288689, Note_on_c, 1, 68, 0
7, 288720, Note_on_c, 1, 77, 92
7, 288720, Note_on_c, 1, 68, 92
7, 289169, Note_on_c, 1, 77, 0
7, 289169, Note_on_c, 1, 68, 0
7, 289200, Note_on_c, 1, 77, 92
7, 289200, Note_on_c, 1, 68, 92
7, 289649, Note_on_c, 1, 77, 0
7, 289649, Note_on_c, 1, 68, 0
7, 289680, Note_on_c, 1, 77, 92
7, 289680, Note_on_c, 1, 68, 92
7, 290129, Note_on_c, 1, 77, 0
7, 290129, Note_on_c, 1, 68, 0
7, 290160, Note_on_c, 1, 77, 92
7, 290160, Note_on_c, 1, 68, 92
7, 290609, Note_on_c, 1, 77, 0
7, 290609, Note_on_c, 1, 68, 0
7, 290640, Note_on_c, 1, 77, 92
7, 290640, Note_on_c, 1, 68, 92
7, 290879, Note_on_c, 1, 77, 0
7, 290879, Note_on_c, 1, 68, 0
7, 291120, Note_on_c, 1, 76, 92
7, 291120, Note_on_c, 1, 69, 92
7, 292529, Note_on_c, 1, 76, 0
7, 292529, Note_on_c, 1, 69, 0
7, 292560, Note_on_c, 1, 76, 92
7, 292560, Note_on_c, 1, 69, 92
7, 293009, Note_on_c, 1, 76, 0
7, 293009, Note_on_c, 1, 69, 0
7, 293040, Note_on_c, 1, 76, 92
7, 293040, Note_on_c, 1, 69, 92
7, 293489, Note_on_c, 1, 76, 0
7, 293489, Note_on_c, 1, 69, 0
7, 293520, Note_on_c, 1, 76, 92
7, 293520, Note_on_c, 1, 69, 92
7, 293969, Note_on_c, 1, 76, 0
7, 293969, Note_on_c, 1, 69, 0
7, 294000, Note_on_c, 1, 76, 92
7, 294000, Note_on_c, 1, 69, 92
7, 294449, Note_on_c, 1, 76, 0
7, 294449, Note_on_c, 1, 69, 0
7, 294480, Note_on_c, 1, 76, 92
7, 294480, Note_on_c, 1, 69, 92
7, 294929, Note_on_c, 1, 76, 0
7, 294929, Note_on_c, 1, 69, 0
7, 294960, Note_on_c, 1, 76, 92
7, 294960, Note_on_c, 1, 69, 92
7, 295199, Note_on_c, 1, 76, 0
7, 295199, Note_on_c, 1, 69, 0
7, 295440, Note_on_c, 1, 78, 92
7, 295440, Note_on_c, 1, 75, 92
7, 296849, Note_on_c, 1, 78, 0
7, 296849, Note_on_c, 1, 75, 0
7, 296880, Note_on_c, 1, 78, 92
7, 296880, Note_on_c, 1, 75, 92
7, 297359, Note_on_c, 1, 78, 0
7, 297359, Note_on_c, 1, 75, 0
7, 297360, Note_on_c, 1, 78, 92
7, 297360, Note_on_c, 1, 75, 92
7, 297809, Note_on_c, 1, 78, 0
7, 297809, Note_on_c, 1, 75, 0
7, 297840, Note_on_c, 1, 78, 92
7, 297840, Note_on_c, 1, 75, 92
7, 298289, Note_on_c, 1, 78, 0
7, 298289, Note_on_c, 1, 75, 0
7, 298320, Note_on_c, 1, 78, 92
7, 298320, Note_on_c, 1, 75, 92
7, 298769, Note_on_c, 1, 78, 0
7, 298769, Note_on_c, 1, 75, 0
7, 298800, Note_on_c, 1, 78, 92
7, 298800, Note_on_c, 1, 75, 92
7, 299249, Note_on_c, 1, 78, 0
7, 299249, Note_on_c, 1, 75, 0
7, 299280, Note_on_c, 1, 78, 92
7, 299280, Note_on_c, 1, 75, 92
7, 299519, Note_on_c, 1, 78, 0
7, 299519, Note_on_c, 1, 75, 0
7, 299760, Note_on_c, 1, 79, 92
7, 299760, Note_on_c, 1, 76, 92
7, 301169, Note_on_c, 1, 79, 0
7, 301169, Note_on_c, 1, 76, 0
7, 301200, Note_on_c, 1, 79, 92
7, 301200, Note_on_c, 1, 76, 92
7, 301649, Note_on_c, 1, 79, 0
7, 301649, Note_on_c, 1, 76, 0
7, 301680, Note_on_c, 1, 79, 92
7, 301680, Note_on_c, 1, 76, 92
7, 302129, Note_on_c, 1, 79, 0
7, 302129, Note_on_c, 1, 76, 0
7, 302160, Note_on_c, 1, 79, 92
7, 302160, Note_on_c, 1, 76, 92
7, 302609, Note_on_c, 1, 79, 0
7, 302609, Note_on_c, 1, 76, 0
7, 302640, Note_on_c, 1, 79, 92
7, 302640, Note_on_c, 1, 76, 92
7, 303089, Note_on_c, 1, 79, 0
7, 303089, Note_on_c, 1, 76, 0
7, 303120, Note_on_c, 1, 79, 92
7, 303120, Note_on_c, 1, 76, 92
7, 303569, Note_on_c, 1, 79, 0
7, 303569, Note_on_c, 1, 76, 0
7, 303600, Note_on_c, 1, 79, 92
7, 303600, Note_on_c, 1, 76, 92
7, 303839, Note_on_c, 1, 79, 0
7, 303839, Note_on_c, 1, 76, 0
7, 304080, Note_on_c, 1, 78, 92
7, 304080, Note_on_c, 1, 75, 92
7, 304529, Note_on_c, 1, 78, 0
7, 304529, Note_on_c, 1, 75, 0
7, 304560, Note_on_c, 1, 78, 92
7, 304560, Note_on_c, 1, 75, 92
7, 305009, Note_on_c, 1, 78, 0
7, 305009, Note_on_c, 1, 75, 0
7, 305040, Note_on_c, 1, 78, 92
7, 305040, Note_on_c, 1, 75, 92
7, 305249, Note_on_c, 1, 78, 0
7, 305249, Note_on_c, 1, 75, 0
7, 305520, Note_on_c, 1, 79, 92
7, 305520, Note_on_c, 1, 76, 92
7, 305969, Note_on_c, 1, 79, 0
7, 305969, Note_on_c, 1, 76, 0
7, 306000, Note_on_c, 1, 79, 92
7, 306000, Note_on_c, 1, 76, 92
7, 306449, Note_on_c, 1, 79, 0
7, 306449, Note_on_c, 1, 76, 0
7, 306480, Note_on_c, 1, 79, 92
7, 306480, Note_on_c, 1, 76, 92
7, 306659, Note_on_c, 1, 79, 0
7, 306659, Note_on_c, 1, 76, 0
7, 306720, Note_on_c, 1, 84, 76
7, 306720, Note_on_c, 1, 76, 76
7, 307199, Note_on_c, 1, 84, 0
7, 307199, Note_on_c, 1, 76, 0
7, 307440, Note_on_c, 1, 84, 76
7, 307440, Note_on_c, 1, 76, 76
7, 307919, Note_on_c, 1, 84, 0
7, 307919, Note_on_c, 1, 76, 0
7, 308160, Note_on_c, 1, 84, 76
7, 308160, Note_on_c, 1, 76, 76
7, 308639, Note_on_c, 1, 84, 0
7, 308639, Note_on_c, 1, 76, 0
7, 308880, Note_on_c, 1, 84, 76
7, 308880, Note_on_c, 1, 76, 76
7, 309344, Note_on_c, 1, 84, 0
7, 309344, Note_on_c, 1, 76, 0
7, 309360, Note_on_c, 1, 84, 76
7, 309360, Note_on_c, 1, 76, 76
7, 309539, Note_on_c, 1, 84, 0
7, 309539, Note_on_c, 1, 76, 0
7, 312480, Control_c, 1, 11, 127
7, 312720, Note_on_c, 1, 76, 52
7, 312720, Note_on_c, 1, 67, 52
7, 312959, Note_on_c, 1, 76, 0
7, 312959, Note_on_c, 1, 67, 0
7, 312960, Note_on_c, 1, 75, 52
7, 312960, Note_on_c, 1, 69, 52
7, 313199, Note_on_c, 1, 75, 0
7, 313199, Note_on_c, 1, 69, 0
7, 313200, Note_on_c, 1, 76, 68
7, 313200, Note_on_c, 1, 71, 68
7, 313320, Control_c, 1, 11, 96
7, 313559, Note_on_c, 1, 76, 0
7, 313559, Note_on_c, 1, 71, 0
7, 313560, Note_on_c, 1, 78, 68
7, 313560, Note_on_c, 1, 75, 68
7, 313679, Note_on_c, 1, 78, 0
7, 313679, Note_on_c, 1, 75, 0
7, 313680, Note_on_c, 1, 79, 68
7, 313680, Note_on_c, 1, 76, 68
7, 313889, Note_on_c, 1, 79, 0
7, 313889, Note_on_c, 1, 76, 0
7, 313905, Control_c, 1, 11, 127
7, 313920, Note_on_c, 1, 78, 52
7, 313920, Note_on_c, 1, 71, 52
7, 314159, Note_on_c, 1, 78, 0
7, 314159, Note_on_c, 1, 71, 0
7, 314160, Note_on_c, 1, 83, 52
7, 314160, Note_on_c, 1, 78, 52
7, 314399, Note_on_c, 1, 83, 0
7, 314399, Note_on_c, 1, 78, 0
7, 314400, Note_on_c, 1, 82, 52
7, 314400, Note_on_c, 1, 76, 52
7, 314639, Note_on_c, 1, 82, 0
7, 314639, Note_on_c, 1, 76, 0
7, 314640, Note_on_c, 1, 83, 68
7, 314640, Note_on_c, 1, 75, 68
7, 314760, Control_c, 1, 11, 96
7, 314999, Note_on_c, 1, 83, 0
7, 315000, Note_on_c, 1, 81, 68
7, 315119, Note_on_c, 1, 75, 0
7, 315119, Note_on_c, 1, 81, 0
7, 315120, Note_on_c, 1, 79, 68
7, 315120, Note_on_c, 1, 76, 68
7, 315239, Note_on_c, 1, 79, 0
7, 315239, Note_on_c, 1, 76, 0
7, 315240, Note_on_c, 1, 78, 68
7, 315240, Note_on_c, 1, 71, 68
7, 315344, Note_on_c, 1, 78, 0
7, 315344, Note_on_c, 1, 71, 0
7, 315352, Control_c, 1, 11, 127
7, 315360, Note_on_c, 1, 76, 52
7, 315360, Note_on_c, 1, 67, 52
7, 315584, Note_on_c, 1, 76, 0
7, 315584, Note_on_c, 1, 67, 0
7, 315600, Note_on_c, 1, 76, 52
7, 315600, Note_on_c, 1, 67, 52
7, 315839, Note_on_c, 1, 76, 0
7, 315839, Note_on_c, 1, 67, 0
7, 315840, Note_on_c, 1, 75, 52
7, 315840, Note_on_c, 1, 69, 52
7, 316079, Note_on_c, 1, 75, 0
7, 316079, Note_on_c, 1, 69, 0
7, 316080, Note_on_c, 1, 76, 68
7, 316080, Note_on_c, 1, 71, 68
7, 316200, Control_c, 1, 11, 96
7, 316439, Note_on_c, 1, 76, 0
7, 316439, Note_on_c, 1, 71, 0
7, 316440, Note_on_c, 1, 78, 68
7, 316440, Note_on_c, 1, 75, 68
7, 316559, Note_on_c, 1, 78, 0
7, 316559, Note_on_c, 1, 75, 0
7, 316560, Note_on_c, 1, 79, 68
7, 316560, Note_on_c, 1, 76, 68
7, 316784, Note_on_c, 1, 79, 0
7, 316784, Note_on_c, 1, 76, 0
7, 316800, Note_on_c, 1, 78, 68
7, 316800, Note_on_c, 1, 71, 68
7, 317039, Note_on_c, 1, 78, 0
7, 317039, Note_on_c, 1, 71, 0
7, 317040, Note_on_c, 1, 83, 68
7, 317040, Note_on_c, 1, 78, 68
7, 317279, Note_on_c, 1, 83, 0
7, 317279, Note_on_c, 1, 78, 0
7, 317280, Note_on_c, 1, 82, 68
7, 317280, Note_on_c, 1, 76, 68
7, 317504, Note_on_c, 1, 82, 0
7, 317504, Note_on_c, 1, 76, 0
7, 317520, Note_on_c, 1, 83, 68
7, 317520, Note_on_c, 1, 74, 68
7, 317520, Control_c, 1, 11, 96
7, 317580, Control_c, 1, 11, 99
7, 317640, Control_c, 1, 11, 101
7, 317700, Control_c, 1, 11, 104
7, 317760, Control_c, 1, 11, 106
7, 317820, Control_c, 1, 11, 109
7, 317879, Note_on_c, 1, 74, 0
7, 317880, Note_on_c, 1, 77, 68
7, 317880, Control_c, 1, 11, 112
7, 317940, Control_c, 1, 11, 114
7, 317999, Note_on_c, 1, 83, 0
7, 317999, Note_on_c, 1, 77, 0
7, 318000, Control_c, 1, 11, 117
7, 318000, Note_on_c, 1, 80, 68
7, 318000, Note_on_c, 1, 76, 68
7, 318060, Control_c, 1, 11, 119
7, 318119, Note_on_c, 1, 76, 0
7, 318120, Note_on_c, 1, 74, 68
7, 318120, Control_c, 1, 11, 122
7, 318180, Control_c, 1, 11, 127
7, 318224, Note_on_c, 1, 80, 0
7, 318224, Note_on_c, 1, 74, 0
7, 318240, Note_on_c, 1, 81, 52
7, 318240, Note_on_c, 1, 72, 52
7, 318479, Note_on_c, 1, 81, 0
7, 318479, Note_on_c, 1, 72, 0
7, 324000, Note_on_c, 1, 72, 76
7, 324479, Note_on_c, 1, 72, 0
7, 324480, Note_on_c, 1, 76, 76
7, 324719, Note_on_c, 1, 76, 0
7, 324720, Note_on_c, 1, 72, 76
7, 325199, Note_on_c, 1, 72, 0
7, 325200, Note_on_c, 1, 67, 76
7, 325424, Note_on_c, 1, 67, 0
7, 325440, Note_on_c, 1, 72, 76
7, 325619, Note_on_c, 1, 72, 0
7, 325680, Note_on_c, 1, 76, 76
7, 325859, Note_on_c, 1, 76, 0
7, 325920, Note_on_c, 1, 79, 76
7, 326099, Note_on_c, 1, 79, 0
7, 326160, Note_on_c, 1, 72, 76
7, 326639, Note_on_c, 1, 72, 0
7, 326640, Note_on_c, 1, 67, 76
7, 326864, Note_on_c, 1, 67, 0
7, 326880, Note_on_c, 1, 72, 76
7, 327059, Note_on_c, 1, 72, 0
7, 327120, Note_on_c, 1, 76, 76
7, 327299, Note_on_c, 1, 76, 0
7, 327360, Note_on_c, 1, 79, 76
7, 327539, Note_on_c, 1, 79, 0
7, 327600, Note_on_c, 1, 72, 76
7, 327779, Note_on_c, 1, 72, 0
7, 327840, Note_on_c, 1, 76, 76
7, 328019, Note_on_c, 1, 76, 0
7, 328080, Note_on_c, 1, 79, 84
7, 328424, Note_on_c, 1, 79, 0
7, 328440, Note_on_c, 1, 77, 76
7, 328529, Note_on_c, 1, 77, 0
7, 328560, Note_on_c, 1, 74, 76
7, 328649, Note_on_c, 1, 74, 0
7, 328680, Note_on_c, 1, 71, 76
7, 328769, Note_on_c, 1, 71, 0
7, 328800, Note_on_c, 1, 79, 76
7, 328889, Note_on_c, 1, 79, 0
7, 328920, Note_on_c, 1, 77, 76
7, 329009, Note_on_c, 1, 77, 0
7, 329040, Note_on_c, 1, 74, 76
7, 329129, Note_on_c, 1, 74, 0
7, 329160, Note_on_c, 1, 77, 76
7, 329249, Note_on_c, 1, 77, 0
7, 329280, Note_on_c, 1, 74, 76
7, 329369, Note_on_c, 1, 74, 0
7, 329400, Note_on_c, 1, 71, 76
7, 329489, Note_on_c, 1, 71, 0
7, 329520, Note_on_c, 1, 67, 76
7, 329609, Note_on_c, 1, 67, 0
7, 329640, Note_on_c, 1, 71, 76
7, 329729, Note_on_c, 1, 71, 0
7, 329760, Note_on_c, 1, 72, 76
7, 329939, Note_on_c, 1, 72, 0
7, 330480, Note_on_c, 1, 72, 76
7, 330659, Note_on_c, 1, 72, 0
7, 330720, Note_on_c, 1, 75, 76
7, 330899, Note_on_c, 1, 75, 0
7, 330960, Note_on_c, 1, 79, 84
7, 331304, Note_on_c, 1, 79, 0
7, 331320, Note_on_c, 1, 77, 76
7, 331424, Note_on_c, 1, 77, 0
7, 331440, Note_on_c, 1, 74, 76
7, 331544, Note_on_c, 1, 74, 0
7, 331560, Note_on_c, 1, 71, 76
7, 331649, Note_on_c, 1, 71, 0
7, 331680, Note_on_c, 1, 79, 76
7, 331769, Note_on_c, 1, 79, 0
7, 331800, Note_on_c, 1, 77, 76
7, 331889, Note_on_c, 1, 77, 0
7, 331920, Note_on_c, 1, 74, 76
7, 332009, Note_on_c, 1, 74, 0
7, 332040, Note_on_c, 1, 77, 76
7, 332129, Note_on_c, 1, 77, 0
7, 332160, Note_on_c, 1, 74, 76
7, 332249, Note_on_c, 1, 74, 0
7, 332280, Note_on_c, 1, 71, 76
7, 332369, Note_on_c, 1, 71, 0
7, 332400, Note_on_c, 1, 67, 76
7, 332489, Note_on_c, 1, 67, 0
7, 332520, Note_on_c, 1, 71, 76
7, 332609, Note_on_c, 1, 71, 0
7, 332640, Note_on_c, 1, 72, 76
7, 332879, Note_on_c, 1, 72, 0
7, 332880, Note_on_c, 1, 75, 76
7, 333119, Note_on_c, 1, 75, 0
7, 333120, Note_on_c, 1, 79, 76
7, 333344, Note_on_c, 1, 79, 0
7, 333360, Note_on_c, 1, 80, 84
7, 333839, Note_on_c, 1, 80, 0
7, 333840, Note_on_c, 1, 72, 76
7, 334064, Note_on_c, 1, 72, 0
7, 334080, Note_on_c, 1, 73, 76
7, 334319, Note_on_c, 1, 73, 0
7, 334320, Note_on_c, 1, 77, 76
7, 334559, Note_on_c, 1, 77, 0
7, 334560, Note_on_c, 1, 81, 76
7, 334784, Note_on_c, 1, 81, 0
7, 334800, Note_on_c, 1, 82, 84
7, 335279, Note_on_c, 1, 82, 0
7, 335280, Note_on_c, 1, 74, 76
7, 335504, Note_on_c, 1, 74, 0
7, 335520, Note_on_c, 1, 75, 76
7, 335699, Note_on_c, 1, 75, 0
7, 335760, Note_on_c, 1, 82, 76
7, 335760, Note_on_c, 1, 70, 76
7, 335939, Note_on_c, 1, 82, 0
7, 335939, Note_on_c, 1, 70, 0
7, 336000, Note_on_c, 1, 82, 76
7, 336000, Note_on_c, 1, 70, 76
7, 336179, Note_on_c, 1, 82, 0
7, 336179, Note_on_c, 1, 70, 0
7, 336240, Note_on_c, 1, 82, 76
7, 336240, Note_on_c, 1, 70, 76
7, 336419, Note_on_c, 1, 82, 0
7, 336419, Note_on_c, 1, 70, 0
7, 336480, Note_on_c, 1, 82, 76
7, 336480, Note_on_c, 1, 70, 76
7, 336659, Note_on_c, 1, 82, 0
7, 336659, Note_on_c, 1, 70, 0
7, 336720, Note_on_c, 1, 82, 84
7, 336720, Note_on_c, 1, 70, 84
7, 336959, Note_on_c, 1, 82, 0
7, 336959, Note_on_c, 1, 70, 0
7, 336960, Note_on_c, 1, 82, 76
7, 336960, Note_on_c, 1, 70, 76
7, 338399, Note_on_c, 1, 82, 0
7, 338399, Note_on_c, 1, 70, 0
7, 338400, Note_on_c, 1, 82, 84
7, 338400, Note_on_c, 1, 70, 84
7, 338624, Note_on_c, 1, 82, 0
7, 338624, Note_on_c, 1, 70, 0
7, 338640, Note_on_c, 1, 82, 84
7, 338640, Note_on_c, 1, 70, 84
7, 338864, Note_on_c, 1, 82, 0
7, 338864, Note_on_c, 1, 70, 0
7, 338880, Note_on_c, 1, 82, 84
7, 338880, Note_on_c, 1, 70, 84
7, 339104, Note_on_c, 1, 82, 0
7, 339104, Note_on_c, 1, 70, 0
7, 339120, Note_on_c, 1, 82, 84
7, 339120, Note_on_c, 1, 70, 84
7, 339344, Note_on_c, 1, 82, 0
7, 339344, Note_on_c, 1, 70, 0
7, 339360, Note_on_c, 1, 75, 84
7, 339584, Note_on_c, 1, 75, 0
7, 339600, Note_on_c, 1, 75, 84
7, 339824, Note_on_c, 1, 75, 0
7, 339840, Note_on_c, 1, 75, 84
7, 340079, Note_on_c, 1, 75, 0
7, 352800, Note_on_c, 1, 77, 52
7, 353279, Note_on_c, 1, 77, 0
7, 353280, Note_on_c, 1, 82, 52
7, 353280, Note_on_c, 1, 77, 52
7, 353519, Note_on_c, 1, 82, 0
7, 353519, Note_on_c, 1, 77, 0
7, 353520, Note_on_c, 1, 77, 52
7, 353999, Note_on_c, 1, 77, 0
7, 354000, Note_on_c, 1, 74, 52
7, 354224, Note_on_c, 1, 74, 0
7, 354240, Note_on_c, 1, 75, 52
7, 354479, Note_on_c, 1, 75, 0
7, 354480, Note_on_c, 1, 78, 52
7, 354480, Note_on_c, 1, 75, 52
7, 354719, Note_on_c, 1, 78, 0
7, 354719, Note_on_c, 1, 75, 0
7, 354720, Note_on_c, 1, 82, 52
7, 354720, Note_on_c, 1, 78, 52
7, 354944, Note_on_c, 1, 82, 0
7, 354944, Note_on_c, 1, 78, 0
7, 354960, Note_on_c, 1, 82, 52
7, 354960, Note_on_c, 1, 78, 52
7, 355199, Note_on_c, 1, 82, 0
7, 355199, Note_on_c, 1, 78, 0
7, 355680, Note_on_c, 1, 78, 52
7, 356159, Note_on_c, 1, 78, 0
7, 356160, Note_on_c, 1, 82, 52
7, 356399, Note_on_c, 1, 82, 0
7, 356400, Note_on_c, 1, 78, 52
7, 356879, Note_on_c, 1, 78, 0
7, 356880, Note_on_c, 1, 75, 52
7, 357104, Note_on_c, 1, 75, 0
7, 357120, Note_on_c, 1, 75, 52
7, 357359, Note_on_c, 1, 75, 0
7, 357360, Note_on_c, 1, 78, 52
7, 357360, Note_on_c, 1, 75, 52
7, 357599, Note_on_c, 1, 78, 0
7, 357599, Note_on_c, 1, 75, 0
7, 357600, Note_on_c, 1, 80, 52
7, 357600, Note_on_c, 1, 78, 52
7, 357824, Note_on_c, 1, 80, 0
7, 357824, Note_on_c, 1, 78, 0
7, 357840, Note_on_c, 1, 80, 52
7, 357840, Note_on_c, 1, 78, 52
7, 358079, Note_on_c, 1, 80, 0
7, 358079, Note_on_c, 1, 78, 0
7, 358560, Note_on_c, 1, 78, 52
7, 359039, Note_on_c, 1, 78, 0
7, 359040, Note_on_c, 1, 80, 52
7, 359279, Note_on_c, 1, 80, 0
7, 359280, Note_on_c, 1, 78, 52
7, 359759, Note_on_c, 1, 78, 0
7, 359760, Note_on_c, 1, 75, 52
7, 359984, Note_on_c, 1, 75, 0
7, 360000, Note_on_c, 1, 77, 52
7, 360239, Note_on_c, 1, 77, 0
7, 360240, Note_on_c, 1, 80, 52
7, 360240, Note_on_c, 1, 73, 52
7, 360464, Note_on_c, 1, 80, 0
7, 360479, Note_on_c, 1, 73, 0
7, 360480, Note_on_c, 1, 80, 52
7, 360480, Note_on_c, 1, 77, 52
7, 360704, Note_on_c, 1, 80, 0
7, 360704, Note_on_c, 1, 77, 0
7, 360720, Note_on_c, 1, 80, 52
7, 360720, Note_on_c, 1, 77, 52
7, 360959, Note_on_c, 1, 80, 0
7, 360959, Note_on_c, 1, 77, 0
7, 361200, Control_c, 1, 11, 96
7, 361440, Note_on_c, 1, 77, 68
7, 361919, Note_on_c, 1, 77, 0
7, 361920, Note_on_c, 1, 80, 68
7, 361920, Note_on_c, 1, 77, 68
7, 362144, Note_on_c, 1, 80, 0
7, 362144, Note_on_c, 1, 77, 0
7, 362160, Note_on_c, 1, 80, 68
7, 362160, Note_on_c, 1, 77, 68
7, 362639, Note_on_c, 1, 80, 0
7, 362639, Note_on_c, 1, 77, 0
7, 362640, Note_on_c, 1, 73, 68
7, 362640, Note_on_c, 1, 77, 68
7, 362864, Note_on_c, 1, 73, 0
7, 362864, Note_on_c, 1, 77, 0
7, 362880, Note_on_c, 1, 77, 68
7, 362880, Note_on_c, 1, 70, 68
7, 362880, Control_c, 1, 11, 96
7, 363119, Note_on_c, 1, 77, 0
7, 363119, Note_on_c, 1, 70, 0
7, 363120, Note_on_c, 1, 70, 68
7, 363120, Control_c, 1, 11, 99
7, 363120, Note_on_c, 1, 80, 68
7, 363359, Note_on_c, 1, 70, 0
7, 363359, Note_on_c, 1, 80, 0
7, 363360, Note_on_c, 1, 82, 68
7, 363360, Note_on_c, 1, 80, 68
7, 363360, Control_c, 1, 11, 101
7, 363584, Note_on_c, 1, 82, 0
7, 363584, Note_on_c, 1, 80, 0
7, 363600, Note_on_c, 1, 82, 68
7, 363600, Control_c, 1, 11, 104
7, 363600, Note_on_c, 1, 80, 68
7, 363839, Note_on_c, 1, 82, 0
7, 363839, Note_on_c, 1, 80, 0
7, 363840, Control_c, 1, 11, 106
7, 364080, Control_c, 1, 11, 109
7, 364320, Note_on_c, 1, 77, 68
7, 364320, Control_c, 1, 11, 112
7, 364560, Control_c, 1, 11, 114
7, 364799, Note_on_c, 1, 77, 0
7, 364800, Control_c, 1, 11, 117
7, 364800, Note_on_c, 1, 80, 68
7, 365039, Note_on_c, 1, 80, 0
7, 365040, Note_on_c, 1, 77, 68
7, 365040, Control_c, 1, 11, 119
7, 365280, Control_c, 1, 11, 122
7, 365519, Note_on_c, 1, 77, 0
7, 365520, Note_on_c, 1, 70, 68
7, 365520, Control_c, 1, 11, 127
7, 365744, Note_on_c, 1, 70, 0
7, 365760, Note_on_c, 1, 75, 76
7, 366239, Note_on_c, 1, 75, 0
7, 366240, Note_on_c, 1, 78, 68
7, 366479, Note_on_c, 1, 78, 0
7, 367200, Note_on_c, 1, 75, 76
7, 367679, Note_on_c, 1, 75, 0
7, 367680, Note_on_c, 1, 78, 68
7, 367919, Note_on_c, 1, 78, 0
7, 368640, Note_on_c, 1, 75, 84
7, 368640, Note_on_c, 1, 78, 84
7, 370304, Note_on_c, 1, 75, 0
7, 370304, Note_on_c, 1, 78, 0
7, 370320, Note_on_c, 1, 78, 84
7, 370320, Note_on_c, 1, 75, 84
7, 370544, Note_on_c, 1, 78, 0
7, 370544, Note_on_c, 1, 75, 0
7, 370560, Note_on_c, 1, 78, 84
7, 370560, Note_on_c, 1, 75, 84
7, 370784, Note_on_c, 1, 78, 0
7, 370784, Note_on_c, 1, 75, 0
7, 370800, Note_on_c, 1, 78, 84
7, 370800, Note_on_c, 1, 75, 84
7, 371024, Note_on_c, 1, 78, 0
7, 371024, Note_on_c, 1, 75, 0
7, 371040, Note_on_c, 1, 78, 84
7, 371040, Note_on_c, 1, 75, 84
7, 371264, Note_on_c, 1, 78, 0
7, 371264, Note_on_c, 1, 75, 0
7, 371280, Note_on_c, 1, 78, 84
7, 371280, Note_on_c, 1, 75, 84
7, 371504, Note_on_c, 1, 78, 0
7, 371504, Note_on_c, 1, 75, 0
7, 371520, Note_on_c, 1, 78, 76
7, 371520, Note_on_c, 1, 75, 76
7, 372224, Note_on_c, 1, 78, 0
7, 372224, Note_on_c, 1, 75, 0
7, 372240, Note_on_c, 1, 78, 76
7, 372240, Note_on_c, 1, 75, 76
7, 372944, Note_on_c, 1, 78, 0
7, 372944, Note_on_c, 1, 75, 0
7, 372960, Note_on_c, 1, 78, 76
7, 372960, Note_on_c, 1, 75, 76
7, 373664, Note_on_c, 1, 78, 0
7, 373664, Note_on_c, 1, 75, 0
7, 373680, Note_on_c, 1, 78, 76
7, 373680, Note_on_c, 1, 75, 76
7, 374384, Note_on_c, 1, 78, 0
7, 374384, Note_on_c, 1, 75, 0
7, 374400, Note_on_c, 1, 78, 52
7, 375104, Note_on_c, 1, 78, 0
7, 375120, Note_on_c, 1, 78, 52
7, 375824, Note_on_c, 1, 78, 0
7, 375840, Note_on_c, 1, 78, 52
7, 376544, Note_on_c, 1, 78, 0
7, 376560, Note_on_c, 1, 78, 52
7, 377264, Note_on_c, 1, 78, 0
7, 377280, Note_on_c, 1, 78, 52
7, 377280, Control_c, 1, 11, 127
7, 377520, Control_c, 1, 11, 126
7, 377760, Control_c, 1, 11, 125
7, 377984, Note_on_c, 1, 78, 0
7, 378000, Control_c, 1, 11, 123
7, 378000, Note_on_c, 1, 77, 52
7, 378240, Control_c, 1, 11, 122
7, 378480, Control_c, 1, 11, 121
7, 378704, Note_on_c, 1, 77, 0
7, 378720, Note_on_c, 1, 77, 52
7, 378720, Control_c, 1, 11, 120
7, 378960, Control_c, 1, 11, 118
7, 379200, Control_c, 1, 11, 117
7, 379424, Note_on_c, 1, 77, 0
7, 379440, Note_on_c, 1, 75, 52
7, 379440, Control_c, 1, 11, 116
7, 379680, Control_c, 1, 11, 115
7, 379920, Control_c, 1, 11, 112
7, 380144, Note_on_c, 1, 75, 0
7, 380160, Note_on_c, 1, 75, 52
7, 380864, Note_on_c, 1, 75, 0
7, 380880, Note_on_c, 1, 75, 52
7, 381584, Note_on_c, 1, 75, 0
7, 381600, Note_on_c, 1, 74, 52
7, 382304, Note_on_c, 1, 74, 0
7, 382320, Note_on_c, 1, 74, 52
7, 383039, Note_on_c, 1, 74, 0
7, 384240, Control_c, 1, 11, 127
7, 384480, Note_on_c, 1, 74, 44
7, 385184, Note_on_c, 1, 74, 0
7, 385200, Note_on_c, 1, 74, 44
7, 385919, Note_on_c, 1, 74, 0
7, 387360, Note_on_c, 1, 74, 44
7, 388064, Note_on_c, 1, 74, 0
7, 388080, Note_on_c, 1, 74, 44
7, 388799, Note_on_c, 1, 74, 0
7, 393120, Note_on_c, 1, 68, 76
7, 393120, Note_on_c, 1, 74, 76
7, 393824, Note_on_c, 1, 68, 0
7, 393824, Note_on_c, 1, 74, 0
7, 393840, Note_on_c, 1, 80, 84
7, 393840, Note_on_c, 1, 74, 84
7, 394544, Note_on_c, 1, 80, 0
7, 394544, Note_on_c, 1, 74, 0
7, 394560, Note_on_c, 1, 79, 84
7, 394560, Note_on_c, 1, 75, 84
7, 394799, Note_on_c, 1, 79, 0
7, 394799, Note_on_c, 1, 75, 0
7, 411600, Control_c, 1, 11, 96
7, 411840, Note_on_c, 1, 77, 68
7, 411840, Control_c, 1, 11, 96
7, 411900, Control_c, 1, 11, 99
7, 411960, Control_c, 1, 11, 101
7, 412020, Control_c, 1, 11, 104
7, 412080, Control_c, 1, 11, 106
7, 412140, Control_c, 1, 11, 109
7, 412200, Control_c, 1, 11, 112
7, 412260, Control_c, 1, 11, 114
7, 412320, Control_c, 1, 11, 117
7, 412380, Control_c, 1, 11, 119
7, 412440, Control_c, 1, 11, 122
7, 412500, Control_c, 1, 11, 124
7, 412559, Note_on_c, 1, 77, 0
7, 412560, Note_on_c, 1, 75, 68
7, 412560, Control_c, 1, 11, 127
7, 412620, Control_c, 1, 11, 123
7, 412680, Control_c, 1, 11, 119
7, 412740, Control_c, 1, 11, 115
7, 412800, Control_c, 1, 11, 111
7, 412860, Control_c, 1, 11, 107
7, 412920, Control_c, 1, 11, 104
7, 412980, Control_c, 1, 11, 100
7, 413040, Control_c, 1, 11, 96
7, 413100, Control_c, 1, 11, 92
7, 413160, Control_c, 1, 11, 88
7, 413220, Control_c, 1, 11, 80
7, 413279, Note_on_c, 1, 75, 0
7, 413280, Note_on_c, 1, 74, 68
7, 413519, Note_on_c, 1, 74, 0
7, 416400, Control_c, 1, 11, 127
7, 416640, Note_on_c, 1, 70, 65
7, 416729, Note_on_c, 1, 70, 0
7, 416760, Note_on_c, 1, 72, 66
7, 416849, Note_on_c, 1, 72, 0
7, 416880, Note_on_c, 1, 74, 68
7, 416969, Note_on_c, 1, 74, 0
7, 417000, Note_on_c, 1, 75, 69
7, 417089, Note_on_c, 1, 75, 0
7, 417120, Note_on_c, 1, 77, 70
7, 417209, Note_on_c, 1, 77, 0
7, 417240, Note_on_c, 1, 79, 72
7, 417329, Note_on_c, 1, 79, 0
7, 417360, Note_on_c, 1, 80, 73
7, 417449, Note_on_c, 1, 80, 0
7, 417480, Note_on_c, 1, 74, 74
7, 417569, Note_on_c, 1, 74, 0
7, 417600, Note_on_c, 1, 75, 76
7, 418079, Note_on_c, 1, 75, 0
7, 418080, Note_on_c, 1, 79, 76
7, 418319, Note_on_c, 1, 79, 0
7, 418320, Note_on_c, 1, 75, 76
7, 418799, Note_on_c, 1, 75, 0
7, 418800, Note_on_c, 1, 70, 76
7, 419024, Note_on_c, 1, 70, 0
7, 419040, Note_on_c, 1, 75, 76
7, 419264, Note_on_c, 1, 75, 0
7, 419280, Note_on_c, 1, 75, 76
7, 419504, Note_on_c, 1, 75, 0
7, 419520, Note_on_c, 1, 75, 76
7, 419744, Note_on_c, 1, 75, 0
7, 419760, Note_on_c, 1, 75, 76
7, 420224, Note_on_c, 1, 75, 0
7, 420240, Note_on_c, 1, 76, 84
7, 420240, Note_on_c, 1, 73, 84
7, 420464, Note_on_c, 1, 76, 0
7, 420464, Note_on_c, 1, 73, 0
7, 420480, Note_on_c, 1, 77, 76
7, 420480, Note_on_c, 1, 72, 76
7, 420704, Note_on_c, 1, 77, 0
7, 420704, Note_on_c, 1, 72, 0
7, 420720, Note_on_c, 1, 77, 76
7, 420720, Note_on_c, 1, 72, 76
7, 420944, Note_on_c, 1, 77, 0
7, 420944, Note_on_c, 1, 72, 0
7, 420960, Note_on_c, 1, 77, 76
7, 420960, Note_on_c, 1, 72, 76
7, 421184, Note_on_c, 1, 77, 0
7, 421184, Note_on_c, 1, 72, 0
7, 421200, Note_on_c, 1, 77, 76
7, 421200, Note_on_c, 1, 72, 76
7, 421664, Note_on_c, 1, 77, 0
7, 421664, Note_on_c, 1, 72, 0
7, 421680, Note_on_c, 1, 78, 84
7, 421680, Note_on_c, 1, 72, 84
7, 421904, Note_on_c, 1, 78, 0
7, 421904, Note_on_c, 1, 72, 0
7, 421920, Note_on_c, 1, 79, 80
7, 421920, Note_on_c, 1, 70, 80
7, 422624, Note_on_c, 1, 79, 0
7, 422624, Note_on_c, 1, 70, 0
7, 422640, Note_on_c, 1, 80, 80
7, 422640, Note_on_c, 1, 72, 80
7, 423344, Note_on_c, 1, 80, 0
7, 423344, Note_on_c, 1, 72, 0
7, 423360, Note_on_c, 1, 80, 80
7, 423360, Note_on_c, 1, 71, 80
7, 424304, Note_on_c, 1, 80, 0
7, 424304, Note_on_c, 1, 71, 0
7, 424320, Note_on_c, 1, 80, 80
7, 424320, Note_on_c, 1, 70, 80
7, 424544, Note_on_c, 1, 80, 0
7, 424544, Note_on_c, 1, 70, 0
7, 424560, Note_on_c, 1, 80, 80
7, 424560, Note_on_c, 1, 70, 80
7, 424784, Note_on_c, 1, 80, 0
7, 424784, Note_on_c, 1, 70, 0
7, 424800, Note_on_c, 1, 79, 84
7, 424800, Note_on_c, 1, 70, 84
7, 425264, Note_on_c, 1, 79, 0
7, 425264, Note_on_c, 1, 70, 0
7, 425280, Note_on_c, 1, 82, 84
7, 425280, Note_on_c, 1, 79, 84
7, 425504, Note_on_c, 1, 82, 0
7, 425504, Note_on_c, 1, 79, 0
7, 425520, Note_on_c, 1, 82, 84
7, 425520, Note_on_c, 1, 79, 84
7, 425984, Note_on_c, 1, 82, 0
7, 425984, Note_on_c, 1, 79, 0
7, 426000, Note_on_c, 1, 82, 84
7, 426000, Note_on_c, 1, 79, 84
7, 426464, Note_on_c, 1, 82, 0
7, 426464, Note_on_c, 1, 79, 0
7, 426480, Note_on_c, 1, 82, 84
7, 426480, Note_on_c, 1, 79, 84
7, 426704, Note_on_c, 1, 82, 0
7, 426704, Note_on_c, 1, 79, 0
7, 426720, Note_on_c, 1, 82, 84
7, 426720, Note_on_c, 1, 79, 84
7, 426944, Note_on_c, 1, 82, 0
7, 426944, Note_on_c, 1, 79, 0
7, 426960, Note_on_c, 1, 82, 84
7, 426960, Note_on_c, 1, 79, 84
7, 427424, Note_on_c, 1, 82, 0
7, 427424, Note_on_c, 1, 79, 0
7, 427440, Note_on_c, 1, 83, 84
7, 427440, Note_on_c, 1, 79, 84
7, 427679, Note_on_c, 1, 83, 0
7, 427680, Note_on_c, 1, 84, 84
7, 427904, Note_on_c, 1, 79, 0
7, 427904, Note_on_c, 1, 84, 0
7, 427920, Note_on_c, 1, 84, 84
7, 427920, Note_on_c, 1, 79, 84
7, 428144, Note_on_c, 1, 84, 0
7, 428144, Note_on_c, 1, 79, 0
7, 428160, Note_on_c, 1, 84, 84
7, 428160, Note_on_c, 1, 79, 84
7, 428384, Note_on_c, 1, 84, 0
7, 428384, Note_on_c, 1, 79, 0
7, 428400, Note_on_c, 1, 84, 84
7, 428400, Note_on_c, 1, 79, 84
7, 428864, Note_on_c, 1, 84, 0
7, 428864, Note_on_c, 1, 79, 0
7, 428880, Note_on_c, 1, 84, 92
7, 428880, Note_on_c, 1, 79, 92
7, 429104, Note_on_c, 1, 84, 0
7, 429104, Note_on_c, 1, 79, 0
7, 429120, Note_on_c, 1, 84, 84
7, 429120, Note_on_c, 1, 77, 84
7, 429824, Note_on_c, 1, 84, 0
7, 429824, Note_on_c, 1, 77, 0
7, 429840, Note_on_c, 1, 84, 84
7, 429840, Note_on_c, 1, 75, 84
7, 430544, Note_on_c, 1, 84, 0
7, 430544, Note_on_c, 1, 75, 0
7, 430560, Note_on_c, 1, 82, 84
7, 430560, Note_on_c, 1, 74, 84
7, 430799, Note_on_c, 1, 82, 0
7, 430799, Note_on_c, 1, 74, 0
7, 431520, Note_on_c, 1, 82, 52
7, 431879, Note_on_c, 1, 82, 0
7, 431880, Note_on_c, 1, 80, 52
7, 431999, Note_on_c, 1, 80, 0
7, 432000, Note_on_c, 1, 77, 52
7, 432239, Note_on_c, 1, 77, 0
7, 434400, Note_on_c, 1, 82, 52
7, 434759, Note_on_c, 1, 82, 0
7, 434760, Note_on_c, 1, 79, 52
7, 434879, Note_on_c, 1, 79, 0
7, 434880, Note_on_c, 1, 75, 52
7, 435119, Note_on_c, 1, 75, 0
7, 438000, Note_on_c, 1, 84, 84
7, 438000, Note_on_c, 1, 72, 84
7, 438344, Note_on_c, 1, 84, 0
7, 438344, Note_on_c, 1, 72, 0
7, 438360, Note_on_c, 1, 82, 84
7, 438360, Note_on_c, 1, 70, 84
7, 438449, Note_on_c, 1, 82, 0
7, 438449, Note_on_c, 1, 70, 0
7, 438480, Note_on_c, 1, 80, 84
7, 438480, Note_on_c, 1, 68, 84
7, 438659, Note_on_c, 1, 80, 0
7, 438659, Note_on_c, 1, 68, 0
7, 438720, Note_on_c, 1, 79, 84
7, 438720, Note_on_c, 1, 67, 84
7, 438899, Note_on_c, 1, 79, 0
7, 438899, Note_on_c, 1, 67, 0
7, 438960, Note_on_c, 1, 77, 84
7, 438960, Note_on_c, 1, 65, 84
7, 439139, Note_on_c, 1, 77, 0
7, 439139, Note_on_c, 1, 65, 0
7, 439185, Control_c, 1, 11, 96
7, 439200, Note_on_c, 1, 75, 68
7, 439200, Control_c, 1, 11, 96
7, 439260, Control_c, 1, 11, 99
7, 439320, Control_c, 1, 11, 101
7, 439380, Control_c, 1, 11, 104
7, 439440, Control_c, 1, 11, 106
7, 439500, Control_c, 1, 11, 109
7, 439560, Control_c, 1, 11, 112
7, 439620, Control_c, 1, 11, 114
7, 439680, Control_c, 1, 11, 117
7, 439740, Control_c, 1, 11, 119
7, 439800, Control_c, 1, 11, 122
7, 439860, Control_c, 1, 11, 124
7, 439920, Control_c, 1, 11, 127
7, 439980, Control_c, 1, 11, 124
7, 440040, Control_c, 1, 11, 122
7, 440100, Control_c, 1, 11, 119
7, 440160, Control_c, 1, 11, 117
7, 440220, Control_c, 1, 11, 114
7, 440280, Control_c, 1, 11, 112
7, 440340, Control_c, 1, 11, 109
7, 440400, Control_c, 1, 11, 106
7, 440460, Control_c, 1, 11, 104
7, 440520, Control_c, 1, 11, 101
7, 440580, Control_c, 1, 11, 96
7, 440640, Note_on_c, 1, 70, 68
7, 441119, Note_on_c, 1, 75, 0
7, 441119, Note_on_c, 1, 70, 0
7, 441120, Note_on_c, 1, 77, 68
7, 441120, Note_on_c, 1, 74, 68
7, 441239, Note_on_c, 1, 77, 0
7, 441239, Note_on_c, 1, 74, 0
7, 441240, Note_on_c, 1, 79, 68
7, 441240, Note_on_c, 1, 75, 68
7, 441344, Note_on_c, 1, 79, 0
7, 441344, Note_on_c, 1, 75, 0
7, 441360, Note_on_c, 1, 80, 68
7, 441360, Note_on_c, 1, 77, 68
7, 441569, Note_on_c, 1, 80, 0
7, 441569, Note_on_c, 1, 77, 0
7, 441600, Note_on_c, 1, 80, 68
7, 441600, Note_on_c, 1, 77, 68
7, 441809, Note_on_c, 1, 80, 0
7, 441809, Note_on_c, 1, 77, 0
7, 441840, Note_on_c, 1, 80, 68
7, 441840, Note_on_c, 1, 77, 68
7, 442049, Note_on_c, 1, 80, 0
7, 442049, Note_on_c, 1, 77, 0
7, 442080, Note_on_c, 1, 79, 68
7, 442080, Note_on_c, 1, 75, 68
7, 442319, Note_on_c, 1, 79, 0
7, 442319, Note_on_c, 1, 75, 0
7, 444720, Control_c, 1, 11, 127
7, 444960, Note_on_c, 1, 80, 76
7, 444960, Note_on_c, 1, 74, 76
7, 445139, Note_on_c, 1, 80, 0
7, 445139, Note_on_c, 1, 74, 0
7, 445200, Note_on_c, 1, 80, 76
7, 445200, Note_on_c, 1, 77, 76
7, 445379, Note_on_c, 1, 80, 0
7, 445379, Note_on_c, 1, 77, 0
7, 446280, Note_on_c, 1, 80, 76
7, 446280, Note_on_c, 1, 77, 76
7, 446384, Note_on_c, 1, 80, 0
7, 446384, Note_on_c, 1, 77, 0
7, 446400, Note_on_c, 1, 79, 76
7, 446400, Note_on_c, 1, 75, 76
7, 446579, Note_on_c, 1, 79, 0
7, 446579, Note_on_c, 1, 75, 0
7, 446640, Note_on_c, 1, 79, 76
7, 446640, Note_on_c, 1, 75, 76
7, 446819, Note_on_c, 1, 79, 0
7, 446819, Note_on_c, 1, 75, 0
7, 447720, Note_on_c, 1, 75, 76
7, 447720, Note_on_c, 1, 72, 76
7, 447824, Note_on_c, 1, 75, 0
7, 447824, Note_on_c, 1, 72, 0
7, 447840, Note_on_c, 1, 76, 76
7, 447840, Note_on_c, 1, 73, 76
7, 448019, Note_on_c, 1, 76, 0
7, 448019, Note_on_c, 1, 73, 0
7, 448080, Note_on_c, 1, 76, 76
7, 448080, Note_on_c, 1, 73, 76
7, 448259, Note_on_c, 1, 76, 0
7, 448259, Note_on_c, 1, 73, 0
7, 449160, Note_on_c, 1, 79, 76
7, 449160, Note_on_c, 1, 73, 76
7, 449249, Note_on_c, 1, 79, 0
7, 449249, Note_on_c, 1, 73, 0
7, 449280, Note_on_c, 1, 80, 76
7, 449280, Note_on_c, 1, 72, 76
7, 449369, Note_on_c, 1, 80, 0
7, 449369, Note_on_c, 1, 72, 0
7, 449400, Note_on_c, 1, 72, 76
7, 449624, Note_on_c, 1, 72, 0
7, 449640, Note_on_c, 1, 75, 76
7, 449640, Note_on_c, 1, 72, 76
7, 449729, Note_on_c, 1, 75, 0
7, 449729, Note_on_c, 1, 72, 0
7, 449760, Note_on_c, 1, 74, 76
7, 449849, Note_on_c, 1, 74, 0
7, 449880, Note_on_c, 1, 74, 76
7, 449880, Note_on_c, 1, 67, 76
7, 449969, Note_on_c, 1, 74, 0
7, 449969, Note_on_c, 1, 67, 0
7, 450000, Note_on_c, 1, 75, 76
7, 450000, Note_on_c, 1, 67, 76
7, 450089, Note_on_c, 1, 75, 0
7, 450089, Note_on_c, 1, 67, 0
7, 450120, Note_on_c, 1, 75, 76
7, 450344, Note_on_c, 1, 75, 0
7, 450360, Note_on_c, 1, 75, 76
7, 450449, Note_on_c, 1, 75, 0
7, 450480, Note_on_c, 1, 77, 76
7, 450480, Note_on_c, 1, 70, 76
7, 450569, Note_on_c, 1, 77, 0
7, 450569, Note_on_c, 1, 70, 0
7, 450600, Note_on_c, 1, 77, 76
7, 450600, Note_on_c, 1, 70, 76
7, 450689, Note_on_c, 1, 77, 0
7, 450689, Note_on_c, 1, 70, 0
7, 450720, Note_on_c, 1, 79, 76
7, 450720, Note_on_c, 1, 70, 76
7, 450944, Note_on_c, 1, 79, 0
7, 450944, Note_on_c, 1, 70, 0
7, 450960, Note_on_c, 1, 75, 76
7, 450960, Note_on_c, 1, 67, 76
7, 451184, Note_on_c, 1, 75, 0
7, 451199, Note_on_c, 1, 67, 0
7, 451200, Note_on_c, 1, 75, 76
7, 451200, Note_on_c, 1, 68, 76
7, 451424, Note_on_c, 1, 75, 0
7, 451424, Note_on_c, 1, 68, 0
7, 451440, Note_on_c, 1, 75, 76
7, 451440, Note_on_c, 1, 69, 76
7, 451664, Note_on_c, 1, 75, 0
7, 451679, Note_on_c, 1, 69, 0
7, 451680, Note_on_c, 1, 75, 76
7, 451680, Note_on_c, 1, 70, 76
7, 451904, Note_on_c, 1, 75, 0
7, 451919, Note_on_c, 1, 70, 0
7, 451920, Note_on_c, 1, 75, 76
7, 451920, Note_on_c, 1, 71, 76
7, 452144, Note_on_c, 1, 75, 0
7, 452144, Note_on_c, 1, 71, 0
7, 452160, Note_on_c, 1, 75, 76
7, 452160, Note_on_c, 1, 72, 76
7, 452639, Note_on_c, 1, 75, 0
7, 452640, Note_on_c, 1, 76, 76
7, 452864, Note_on_c, 1, 76, 0
7, 452880, Note_on_c, 1, 77, 76
7, 452999, Note_on_c, 1, 77, 0
7, 453000, Note_on_c, 1, 79, 76
7, 453119, Note_on_c, 1, 79, 0
7, 453120, Note_on_c, 1, 82, 76
7, 453224, Note_on_c, 1, 72, 0
7, 453239, Note_on_c, 1, 82, 0
7, 453240, Note_on_c, 1, 80, 76
7, 453240, Note_on_c, 1, 72, 76
7, 453359, Note_on_c, 1, 80, 0
7, 453359, Note_on_c, 1, 72, 0
7, 453360, Note_on_c, 1, 79, 76
7, 453360, Note_on_c, 1, 70, 76
7, 453479, Note_on_c, 1, 79, 0
7, 453479, Note_on_c, 1, 70, 0
7, 453480, Note_on_c, 1, 77, 76
7, 453480, Note_on_c, 1, 68, 76
7, 453584, Note_on_c, 1, 77, 0
7, 453584, Note_on_c, 1, 68, 0
7, 453600, Note_on_c, 1, 75, 76
7, 453600, Note_on_c, 1, 67, 76
7, 453839, Note_on_c, 1, 75, 0
7, 453839, Note_on_c, 1, 67, 0
7, 454800, Control_c, 1, 11, 112
7, 455040, Note_on_c, 1, 82, 84
7, 455040, Note_on_c, 1, 70, 84
7, 455040, Control_c, 1, 11, 112
7, 455160, Control_c, 1, 11, 113
7, 455280, Control_c, 1, 11, 115
7, 455400, Control_c, 1, 11, 116
7, 455520, Control_c, 1, 11, 117
7, 455640, Control_c, 1, 11, 118
7, 455760, Control_c, 1, 11, 120
7, 455880, Control_c, 1, 11, 121
7, 456000, Control_c, 1, 11, 122
7, 456120, Control_c, 1, 11, 123
7, 456240, Control_c, 1, 11, 125
7, 456360, Control_c, 1, 11, 127
7, 456569, Note_on_c, 1, 82, 0
7, 456569, Note_on_c, 1, 70, 0
7, 456600, Note_on_c, 1, 81, 84
7, 456689, Note_on_c, 1, 81, 0
7, 456720, Note_on_c, 1, 80, 84
7, 456809, Note_on_c, 1, 80, 0
7, 456840, Note_on_c, 1, 79, 84
7, 456929, Note_on_c, 1, 79, 0
7, 456960, Note_on_c, 1, 77, 84
7, 457049, Note_on_c, 1, 77, 0
7, 457080, Note_on_c, 1, 75, 84
7, 457169, Note_on_c, 1, 75, 0
7, 457200, Note_on_c, 1, 74, 84
7, 457289, Note_on_c, 1, 74, 0
7, 457320, Note_on_c, 1, 72, 84
7, 457409, Note_on_c, 1, 72, 0
7, 457440, Note_on_c, 1, 70, 84
7, 457529, Note_on_c, 1, 70, 0
7, 457560, Note_on_c, 1, 68, 84
7, 457560, Note_on_c, 1, 80, 84
7, 457649, Note_on_c, 1, 68, 0
7, 457649, Note_on_c, 1, 80, 0
7, 457680, Note_on_c, 1, 67, 84
7, 457680, Note_on_c, 1, 79, 84
7, 457769, Note_on_c, 1, 67, 0
7, 457769, Note_on_c, 1, 79, 0
7, 457800, Note_on_c, 1, 65, 84
7, 457800, Note_on_c, 1, 77, 84
7, 457889, Note_on_c, 1, 65, 0
7, 457889, Note_on_c, 1, 77, 0
7, 457920, Note_on_c, 1, 75, 84
7, 457920, Note_on_c, 1, 63, 84
7, 458159, Note_on_c, 1, 75, 0
7, 458159, Note_on_c, 1, 63, 0
7, 459600, Note_on_c, 1, 82, 52
7, 459839, Note_on_c, 1, 82, 0
7, 459840, Note_on_c, 1, 83, 52
7, 460079, Note_on_c, 1, 83, 0
7, 460080, Note_on_c, 1, 84, 52
7, 460080, Control_c, 1, 11, 127
7, 460140, Control_c, 1, 11, 126
7, 460200, Control_c, 1, 11, 125
7, 460260, Control_c, 1, 11, 123
7, 460320, Control_c, 1, 11, 122
7, 460380, Control_c, 1, 11, 121
7, 460440, Control_c, 1, 11, 120
7, 460500, Control_c, 1, 11, 118
7, 460559, Note_on_c, 1, 84, 0
7, 460560, Control_c, 1, 11, 117
7, 460620, Control_c, 1, 11, 116
7, 460680, Control_c, 1, 11, 115
7, 460740, Control_c, 1, 11, 112
7, 464400, Control_c, 1, 11, 96
7, 464640, Note_on_c, 1, 80, 68
7, 464640, Control_c, 1, 11, 96
7, 464740, Control_c, 1, 11, 99
7, 464840, Control_c, 1, 11, 101
7, 464849, Note_on_c, 1, 80, 0
7, 464880, Note_on_c, 1, 80, 68
7, 464940, Control_c, 1, 11, 104
7, 465040, Control_c, 1, 11, 106
7, 465089, Note_on_c, 1, 80, 0
7, 465120, Note_on_c, 1, 80, 68
7, 465140, Control_c, 1, 11, 109
7, 465240, Control_c, 1, 11, 112
7, 465329, Note_on_c, 1, 80, 0
7, 465340, Control_c, 1, 11, 114
7, 465360, Note_on_c, 1, 80, 68
7, 465440, Control_c, 1, 11, 117
7, 465540, Control_c, 1, 11, 119
7, 465569, Note_on_c, 1, 80, 0
7, 465600, Note_on_c, 1, 80, 68
7, 465640, Control_c, 1, 11, 122
7, 465740, Control_c, 1, 11, 124
7, 465809, Note_on_c, 1, 80, 0
7, 465840, Note_on_c, 1, 80, 76
7, 465960, Control_c, 1, 11, 127
7, 466010, Control_c, 1, 11, 124
7, 466060, Control_c, 1, 11, 122
7, 466110, Control_c, 1, 11, 119
7, 466160, Control_c, 1, 11, 117
7, 466210, Control_c, 1, 11, 114
7, 466260, Control_c, 1, 11, 112
7, 466310, Control_c, 1, 11, 109
7, 466360, Control_c, 1, 11, 106
7, 466410, Control_c, 1, 11, 104
7, 466460, Control_c, 1, 11, 101
7, 466510, Control_c, 1, 11, 96
7, 466559, Note_on_c, 1, 80, 0
7, 468960, Note_on_c, 1, 78, 68
7, 468960, Note_on_c, 1, 75, 68
7, 468960, Control_c, 1, 11, 96
7, 469000, Control_c, 1, 11, 101
7, 469040, Control_c, 1, 11, 106
7, 469080, Control_c, 1, 11, 112
7, 469120, Control_c, 1, 11, 117
7, 469160, Control_c, 1, 11, 122
7, 469169, Note_on_c, 1, 78, 0
7, 469169, Note_on_c, 1, 75, 0
7, 469200, Note_on_c, 1, 77, 68
7, 469200, Note_on_c, 1, 75, 68
7, 469200, Control_c, 1, 11, 127
7, 469240, Control_c, 1, 11, 122
7, 469280, Control_c, 1, 11, 117
7, 469320, Control_c, 1, 11, 112
7, 469360, Control_c, 1, 11, 106
7, 469400, Control_c, 1, 11, 96
7, 469409, Note_on_c, 1, 77, 0
7, 469409, Note_on_c, 1, 75, 0
7, 469440, Note_on_c, 1, 77, 68
7, 469440, Note_on_c, 1, 74, 68
7, 469679, Note_on_c, 1, 77, 0
7, 469679, Note_on_c, 1, 74, 0
7, 475680, Note_on_c, 1, 65, 60
7, 475769, Note_on_c, 1, 65, 0
7, 475800, Note_on_c, 1, 67, 62
7, 475889, Note_on_c, 1, 67, 0
7, 475920, Note_on_c, 1, 68, 64
7, 476009, Note_on_c, 1, 68, 0
7, 476040, Note_on_c, 1, 70, 66
7, 476129, Note_on_c, 1, 70, 0
7, 476160, Note_on_c, 1, 72, 68
7, 476249, Note_on_c, 1, 72, 0
7, 476280, Note_on_c, 1, 74, 70
7, 476369, Note_on_c, 1, 74, 0
7, 476400, Note_on_c, 1, 75, 72
7, 476489, Note_on_c, 1, 75, 0
7, 476520, Note_on_c, 1, 77, 74
7, 476609, Note_on_c, 1, 77, 0
7, 476640, Note_on_c, 1, 79, 76
7, 476864, Note_on_c, 1, 79, 0
7, 476880, Note_on_c, 1, 79, 84
7, 476880, Note_on_c, 1, 75, 84
7, 477329, Note_on_c, 1, 79, 0
7, 477329, Note_on_c, 1, 75, 0
7, 477600, Note_on_c, 1, 79, 84
7, 477600, Note_on_c, 1, 75, 84
7, 478049, Note_on_c, 1, 79, 0
7, 478049, Note_on_c, 1, 75, 0
7, 478320, Note_on_c, 1, 80, 84
7, 478320, Note_on_c, 1, 77, 84
7, 478769, Note_on_c, 1, 80, 0
7, 478769, Note_on_c, 1, 77, 0
7, 479040, Note_on_c, 1, 77, 76
7, 479040, Note_on_c, 1, 74, 76
7, 479264, Note_on_c, 1, 77, 0
7, 479264, Note_on_c, 1, 74, 0
7, 479280, Note_on_c, 1, 80, 76
7, 479280, Note_on_c, 1, 77, 76
7, 479504, Note_on_c, 1, 80, 0
7, 479504, Note_on_c, 1, 77, 0
7, 479520, Note_on_c, 1, 79, 84
7, 479520, Note_on_c, 1, 75, 84
7, 479699, Note_on_c, 1, 79, 0
7, 479699, Note_on_c, 1, 75, 0
7, 479760, Note_on_c, 1, 82, 92
7, 480104, Note_on_c, 1, 82, 0
7, 480120, Note_on_c, 1, 79, 84
7, 480224, Note_on_c, 1, 79, 0
7, 480240, Note_on_c, 1, 75, 84
7, 480419, Note_on_c, 1, 75, 0
7, 480480, Note_on_c, 1, 79, 92
7, 480824, Note_on_c, 1, 79, 0
7, 480840, Note_on_c, 1, 70, 84
7, 480944, Note_on_c, 1, 70, 0
7, 480960, Note_on_c, 1, 77, 84
7, 481139, Note_on_c, 1, 77, 0
7, 481200, Note_on_c, 1, 80, 92
7, 481544, Note_on_c, 1, 80, 0
7, 481560, Note_on_c, 1, 70, 84
7, 481664, Note_on_c, 1, 70, 0
7, 481680, Note_on_c, 1, 74, 84
7, 481859, Note_on_c, 1, 74, 0
7, 481920, Note_on_c, 1, 77, 92
7, 482264, Note_on_c, 1, 77, 0
7, 482280, Note_on_c, 1, 70, 84
7, 482384, Note_on_c, 1, 70, 0
7, 482400, Note_on_c, 1, 75, 84
7, 482400, Note_on_c, 1, 82, 84
7, 482999, Note_on_c, 1, 82, 0
7, 483000, Note_on_c, 1, 81, 84
7, 483119, Note_on_c, 1, 81, 0
7, 483120, Note_on_c, 1, 82, 84
7, 483359, Note_on_c, 1, 75, 0
7, 483359, Note_on_c, 1, 82, 0
7, 485880, Note_on_c, 1, 79, 84
7, 485880, Note_on_c, 1, 77, 84
7, 485984, Note_on_c, 1, 79, 0
7, 485984, Note_on_c, 1, 77, 0
7, 486000, Note_on_c, 1, 79, 84
7, 486000, Note_on_c, 1, 75, 84
7, 486089, Note_on_c, 1, 79, 0
7, 486089, Note_on_c, 1, 75, 0
7, 486120, Note_on_c, 1, 74, 84
7, 486120, Note_on_c, 1, 79, 84
7, 486209, Note_on_c, 1, 74, 0
7, 486209, Note_on_c, 1, 79, 0
7, 486240, Note_on_c, 1, 79, 84
7, 486240, Note_on_c, 1, 75, 84
7, 486329, Note_on_c, 1, 79, 0
7, 486329, Note_on_c, 1, 75, 0
7, 486360, Note_on_c, 1, 79, 84
7, 486360, Note_on_c, 1, 72, 84
7, 486449, Note_on_c, 1, 79, 0
7, 486449, Note_on_c, 1, 72, 0
7, 486480, Note_on_c, 1, 77, 84
7, 486480, Note_on_c, 1, 72, 84
7, 486569, Note_on_c, 1, 77, 0
7, 486569, Note_on_c, 1, 72, 0
7, 486600, Note_on_c, 1, 78, 84
7, 486600, Note_on_c, 1, 72, 84
7, 486689, Note_on_c, 1, 78, 0
7, 486689, Note_on_c, 1, 72, 0
7, 486720, Note_on_c, 1, 79, 84
7, 486720, Note_on_c, 1, 71, 84
7, 486899, Note_on_c, 1, 79, 0
7, 486899, Note_on_c, 1, 71, 0
7, 486960, Note_on_c, 1, 86, 84
7, 486960, Note_on_c, 1, 79, 84
7, 487139, Note_on_c, 1, 86, 0
7, 487139, Note_on_c, 1, 79, 0
7, 487200, Note_on_c, 1, 84, 84
7, 487200, Note_on_c, 1, 79, 84
7, 487379, Note_on_c, 1, 84, 0
7, 487379, Note_on_c, 1, 79, 0
7, 487680, Note_on_c, 1, 82, 84
7, 487680, Note_on_c, 1, 75, 84
7, 487859, Note_on_c, 1, 82, 0
7, 487859, Note_on_c, 1, 75, 0
7, 487920, Note_on_c, 1, 80, 84
7, 487920, Note_on_c, 1, 75, 84
7, 488099, Note_on_c, 1, 80, 0
7, 488099, Note_on_c, 1, 75, 0
7, 488400, Note_on_c, 1, 84, 84
7, 488400, Note_on_c, 1, 77, 84
7, 488579, Note_on_c, 1, 84, 0
7, 488579, Note_on_c, 1, 77, 0
7, 488640, Note_on_c, 1, 82, 84
7, 488640, Note_on_c, 1, 77, 84
7, 488819, Note_on_c, 1, 82, 0
7, 488819, Note_on_c, 1, 77, 0
7, 489120, Note_on_c, 1, 86, 84
7, 489120, Note_on_c, 1, 79, 84
7, 489299, Note_on_c, 1, 86, 0
7, 489299, Note_on_c, 1, 79, 0
7, 489360, Note_on_c, 1, 84, 84
7, 489360, Note_on_c, 1, 79, 84
7, 489539, Note_on_c, 1, 84, 0
7, 489539, Note_on_c, 1, 79, 0
7, 489840, Note_on_c, 1, 82, 84
7, 489840, Note_on_c, 1, 75, 84
7, 490019, Note_on_c, 1, 82, 0
7, 490019, Note_on_c, 1, 75, 0
7, 490080, Note_on_c, 1, 80, 84
7, 490080, Note_on_c, 1, 75, 84
7, 490259, Note_on_c, 1, 80, 0
7, 490259, Note_on_c, 1, 75, 0
7, 490560, Note_on_c, 1, 78, 92
7, 490560, Note_on_c, 1, 75, 92
7, 490739, Note_on_c, 1, 78, 0
7, 490739, Note_on_c, 1, 75, 0
7, 491040, Note_on_c, 1, 78, 92
7, 491040, Note_on_c, 1, 75, 92
7, 491219, Note_on_c, 1, 78, 0
7, 491219, Note_on_c, 1, 75, 0
7, 491520, Note_on_c, 1, 78, 92
7, 491520, Note_on_c, 1, 75, 92
7, 491699, Note_on_c, 1, 78, 0
7, 491699, Note_on_c, 1, 75, 0
7, 492000, Note_on_c, 1, 78, 92
7, 492000, Note_on_c, 1, 75, 92
7, 492179, Note_on_c, 1, 78, 0
7, 492179, Note_on_c, 1, 75, 0
7, 492480, Note_on_c, 1, 78, 92
7, 492480, Note_on_c, 1, 75, 92
7, 492659, Note_on_c, 1, 78, 0
7, 492659, Note_on_c, 1, 75, 0
7, 492960, Note_on_c, 1, 78, 92
7, 492960, Note_on_c, 1, 75, 92
7, 493139, Note_on_c, 1, 78, 0
7, 493139, Note_on_c, 1, 75, 0
7, 496560, Note_on_c, 1, 75, 52
7, 496739, Note_on_c, 1, 75, 0
7, 497040, Note_on_c, 1, 73, 52
7, 497219, Note_on_c, 1, 73, 0
7, 497520, Note_on_c, 1, 77, 52
7, 497699, Note_on_c, 1, 77, 0
7, 498000, Note_on_c, 1, 77, 52
7, 498179, Note_on_c, 1, 77, 0
7, 498480, Note_on_c, 1, 75, 52
7, 498659, Note_on_c, 1, 75, 0
7, 498720, Control_c, 1, 11, 64
7, 498960, Note_on_c, 1, 72, 84
7, 498960, Control_c, 1, 11, 64
7, 499050, Control_c, 1, 11, 67
7, 499140, Control_c, 1, 11, 69
7, 499230, Control_c, 1, 11, 72
7, 499320, Control_c, 1, 11, 75
7, 499410, Control_c, 1, 11, 77
7, 499500, Control_c, 1, 11, 80
7, 499590, Control_c, 1, 11, 82
7, 499680, Control_c, 1, 11, 85
7, 499770, Control_c, 1, 11, 88
7, 499860, Control_c, 1, 11, 90
7, 499950, Control_c, 1, 11, 93
7, 500024, Note_on_c, 1, 72, 0
7, 500040, Note_on_c, 1, 80, 84
7, 500040, Control_c, 1, 11, 96
7, 500040, Note_on_c, 1, 72, 84
7, 500130, Control_c, 1, 11, 98
7, 500159, Note_on_c, 1, 80, 0
7, 500159, Note_on_c, 1, 72, 0
7, 500160, Note_on_c, 1, 70, 84
7, 500160, Note_on_c, 1, 79, 84
7, 500220, Control_c, 1, 11, 101
7, 500279, Note_on_c, 1, 70, 0
7, 500279, Note_on_c, 1, 79, 0
7, 500280, Note_on_c, 1, 77, 84
7, 500280, Note_on_c, 1, 68, 84
7, 500310, Control_c, 1, 11, 103
7, 500384, Note_on_c, 1, 77, 0
7, 500384, Note_on_c, 1, 68, 0
7, 500400, Note_on_c, 1, 67, 84
7, 500400, Note_on_c, 1, 75, 84
7, 500400, Control_c, 1, 11, 106
7, 500490, Control_c, 1, 11, 109
7, 500580, Control_c, 1, 11, 111
7, 500639, Note_on_c, 1, 67, 0
7, 500639, Note_on_c, 1, 75, 0
7, 500670, Control_c, 1, 11, 114
7, 500760, Note_on_c, 1, 79, 84
7, 500760, Control_c, 1, 11, 117
7, 500760, Note_on_c, 1, 75, 84
7, 500849, Note_on_c, 1, 79, 0
7, 500849, Note_on_c, 1, 75, 0
7, 500850, Control_c, 1, 11, 119
7, 500880, Note_on_c, 1, 79, 84
7, 500880, Note_on_c, 1, 75, 84
7, 500940, Control_c, 1, 11, 122
7, 500969, Note_on_c, 1, 79, 0
7, 500969, Note_on_c, 1, 75, 0
7, 501000, Note_on_c, 1, 79, 84
7, 501000, Note_on_c, 1, 75, 84
7, 501030, Control_c, 1, 11, 127
7, 501089, Note_on_c, 1, 79, 0
7, 501089, Note_on_c, 1, 75, 0
7, 501120, Note_on_c, 1, 74, 84
7, 501120, Note_on_c, 1, 80, 84
7, 501824, Note_on_c, 1, 74, 0
7, 501824, Note_on_c, 1, 80, 0
7, 501840, Note_on_c, 1, 79, 84
7, 501840, Note_on_c, 1, 75, 84
7, 502079, Note_on_c, 1, 79, 0
7, 502079, Note_on_c, 1, 75, 0
7, 502560, Note_on_c, 1, 75, 76
7, 502799, Note_on_c, 1, 75, 0
7, 503280, Note_on_c, 1, 75, 76
7, 503519, Note_on_c, 1, 75, 0
7, 504000, Note_on_c, 1, 80, 76
7, 504000, Note_on_c, 1, 71, 76
7, 504179, Note_on_c, 1, 80, 0
7, 504179, Note_on_c, 1, 71, 0
7, 504240, Note_on_c, 1, 80, 76
7, 504240, Note_on_c, 1, 71, 76
7, 504419, Note_on_c, 1, 80, 0
7, 504419, Note_on_c, 1, 71, 0
7, 504480, Note_on_c, 1, 80, 76
7, 504480, Note_on_c, 1, 71, 76
7, 504659, Note_on_c, 1, 80, 0
7, 504659, Note_on_c, 1, 71, 0
7, 504720, Note_on_c, 1, 79, 76
7, 504720, Note_on_c, 1, 70, 76
7, 504959, Note_on_c, 1, 79, 0
7, 504959, Note_on_c, 1, 70, 0
7, 509040, Note_on_c, 1, 80, 76
7, 509040, Note_on_c, 1, 77, 76
7, 510479, Note_on_c, 1, 80, 0
7, 510479, Note_on_c, 1, 77, 0
7, 510480, Note_on_c, 1, 73, 52
7, 510719, Note_on_c, 1, 73, 0
7, 511920, Note_on_c, 1, 72, 84
7, 512024, Note_on_c, 1, 72, 0
7, 512040, Note_on_c, 1, 72, 84
7, 512144, Note_on_c, 1, 72, 0
7, 512160, Note_on_c, 1, 72, 84
7, 512264, Note_on_c, 1, 72, 0
7, 512280, Note_on_c, 1, 72, 84
7, 512384, Note_on_c, 1, 72, 0
7, 512400, Note_on_c, 1, 76, 84
7, 512504, Note_on_c, 1, 76, 0
7, 512520, Note_on_c, 1, 76, 84
7, 512624, Note_on_c, 1, 76, 0
7, 512640, Note_on_c, 1, 72, 84
7, 512744, Note_on_c, 1, 72, 0
7, 512760, Note_on_c, 1, 72, 84
7, 512864, Note_on_c, 1, 72, 0
7, 512880, Note_on_c, 1, 72, 84
7, 512984, Note_on_c, 1, 72, 0
7, 513000, Note_on_c, 1, 72, 84
7, 513104, Note_on_c, 1, 72, 0
7, 513120, Note_on_c, 1, 67, 84
7, 513224, Note_on_c, 1, 67, 0
7, 513240, Note_on_c, 1, 67, 84
7, 513344, Note_on_c, 1, 67, 0
7, 513360, Note_on_c, 1, 72, 52
7, 513599, Note_on_c, 1, 72, 0
7, 518160, Note_on_c, 1, 67, 44
7, 518399, Note_on_c, 1, 67, 0
7, 518400, Note_on_c, 1, 74, 44
7, 518879, Note_on_c, 1, 74, 0
7, 518880, Note_on_c, 1, 77, 44
7, 519119, Note_on_c, 1, 77, 0
7, 519600, Note_on_c, 1, 67, 44
7, 519839, Note_on_c, 1, 67, 0
7, 519840, Note_on_c, 1, 74, 44
7, 520319, Note_on_c, 1, 74, 0
7, 520320, Note_on_c, 1, 77, 44
7, 520559, Note_on_c, 1, 77, 0
7, 521040, Note_on_c, 1, 79, 44
7, 521279, Note_on_c, 1, 79, 0
7, 521280, Note_on_c, 1, 76, 44
7, 521759, Note_on_c, 1, 76, 0
7, 521760, Note_on_c, 1, 72, 44
7, 521999, Note_on_c, 1, 72, 0
7, 522480, Note_on_c, 1, 80, 44
7, 522719, Note_on_c, 1, 80, 0
7, 522720, Note_on_c, 1, 77, 44
7, 523199, Note_on_c, 1, 77, 0
7, 523200, Note_on_c, 1, 72, 44
7, 523424, Note_on_c, 1, 72, 0
7, 523440, Note_on_c, 1, 82, 44
7, 523679, Note_on_c, 1, 82, 0
7, 526560, Note_on_c, 1, 77, 52
7, 526560, Note_on_c, 1, 72, 52
7, 526799, Note_on_c, 1, 77, 0
7, 526799, Note_on_c, 1, 72, 0
7, 526800, Note_on_c, 1, 76, 52
7, 526800, Note_on_c, 1, 72, 52
7, 527039, Note_on_c, 1, 76, 0
7, 527039, Note_on_c, 1, 72, 0
7, 527040, Note_on_c, 1, 77, 68
7, 527040, Note_on_c, 1, 72, 68
7, 527399, Note_on_c, 1, 77, 0
7, 527399, Note_on_c, 1, 72, 0
7, 527400, Note_on_c, 1, 79, 52
7, 527400, Note_on_c, 1, 76, 52
7, 527519, Note_on_c, 1, 79, 0
7, 527519, Note_on_c, 1, 76, 0
7, 527520, Note_on_c, 1, 80, 52
7, 527520, Note_on_c, 1, 77, 52
7, 527744, Note_on_c, 1, 80, 0
7, 527744, Note_on_c, 1, 77, 0
7, 527760, Note_on_c, 1, 79, 52
7, 527760, Note_on_c, 1, 72, 52
7, 527999, Note_on_c, 1, 79, 0
7, 527999, Note_on_c, 1, 72, 0
7, 528000, Note_on_c, 1, 84, 52
7, 528000, Note_on_c, 1, 79, 52
7, 528239, Note_on_c, 1, 84, 0
7, 528239, Note_on_c, 1, 79, 0
7, 528240, Note_on_c, 1, 83, 52
7, 528240, Note_on_c, 1, 77, 52
7, 528479, Note_on_c, 1, 83, 0
7, 528479, Note_on_c, 1, 77, 0
7, 528480, Note_on_c, 1, 84, 68
7, 528480, Note_on_c, 1, 76, 68
7, 528839, Note_on_c, 1, 84, 0
7, 528840, Note_on_c, 1, 82, 52
7, 528959, Note_on_c, 1, 76, 0
7, 528959, Note_on_c, 1, 82, 0
7, 528960, Note_on_c, 1, 80, 52
7, 528960, Note_on_c, 1, 77, 52
7, 529079, Note_on_c, 1, 80, 0
7, 529079, Note_on_c, 1, 77, 0
7, 529080, Note_on_c, 1, 79, 52
7, 529080, Note_on_c, 1, 72, 52
7, 529184, Note_on_c, 1, 79, 0
7, 529184, Note_on_c, 1, 72, 0
7, 529200, Note_on_c, 1, 77, 52
7, 529200, Note_on_c, 1, 72, 52
7, 529424, Note_on_c, 1, 77, 0
7, 529424, Note_on_c, 1, 72, 0
7, 529440, Note_on_c, 1, 77, 52
7, 529440, Note_on_c, 1, 72, 52
7, 529679, Note_on_c, 1, 77, 0
7, 529679, Note_on_c, 1, 72, 0
7, 529680, Note_on_c, 1, 76, 52
7, 529680, Note_on_c, 1, 72, 52
7, 529919, Note_on_c, 1, 76, 0
7, 529919, Note_on_c, 1, 72, 0
7, 529920, Note_on_c, 1, 77, 68
7, 529920, Note_on_c, 1, 72, 68
7, 530279, Note_on_c, 1, 77, 0
7, 530279, Note_on_c, 1, 72, 0
7, 530280, Note_on_c, 1, 79, 52
7, 530280, Note_on_c, 1, 76, 52
7, 530399, Note_on_c, 1, 79, 0
7, 530399, Note_on_c, 1, 76, 0
7, 530400, Note_on_c, 1, 80, 52
7, 530400, Note_on_c, 1, 77, 52
7, 530609, Note_on_c, 1, 80, 0
7, 530609, Note_on_c, 1, 77, 0
7, 530625, Control_c, 1, 11, 96
7, 530640, Note_on_c, 1, 80, 68
7, 530640, Control_c, 1, 11, 96
7, 530700, Control_c, 1, 11, 97
7, 530760, Control_c, 1, 11, 99
7, 530820, Control_c, 1, 11, 100
7, 530880, Control_c, 1, 11, 101
7, 530940, Control_c, 1, 11, 102
7, 531000, Control_c, 1, 11, 104
7, 531060, Control_c, 1, 11, 105
7, 531120, Control_c, 1, 11, 106
7, 531180, Control_c, 1, 11, 108
7, 531240, Control_c, 1, 11, 109
7, 531300, Control_c, 1, 11, 110
7, 531360, Note_on_c, 1, 70, 68
7, 531360, Control_c, 1, 11, 112
7, 531420, Control_c, 1, 11, 113
7, 531480, Control_c, 1, 11, 114
7, 531540, Control_c, 1, 11, 115
7, 531600, Control_c, 1, 11, 117
7, 531660, Control_c, 1, 11, 118
7, 531720, Control_c, 1, 11, 119
7, 531780, Control_c, 1, 11, 121
7, 531840, Control_c, 1, 11, 122
7, 531900, Control_c, 1, 11, 123
7, 531960, Control_c, 1, 11, 124
7, 532078, Control_c, 1, 11, 96
7, 532079, Note_on_c, 1, 80, 0
7, 532080, Note_on_c, 1, 78, 68
7, 532304, Note_on_c, 1, 70, 0
7, 532304, Note_on_c, 1, 78, 0
7, 532320, Note_on_c, 1, 70, 68
7, 532544, Note_on_c, 1, 70, 0
7, 532560, Note_on_c, 1, 70, 68
7, 532784, Note_on_c, 1, 70, 0
7, 532800, Note_on_c, 1, 70, 84
7, 533249, Note_on_c, 1, 70, 0
7, 533280, Note_on_c, 1, 70, 68
7, 533504, Note_on_c, 1, 70, 0
7, 533520, Note_on_c, 1, 70, 68
7, 533759, Note_on_c, 1, 70, 0
7, 534960, Control_c, 1, 11, 127
7, 535200, Note_on_c, 1, 70, 52
7, 535424, Note_on_c, 1, 70, 0
7, 535440, Note_on_c, 1, 70, 52
7, 535664, Note_on_c, 1, 70, 0
7, 535680, Note_on_c, 1, 70, 68
7, 536024, Note_on_c, 1, 70, 0
7, 536040, Note_on_c, 1, 70, 52
7, 536144, Note_on_c, 1, 70, 0
7, 536160, Note_on_c, 1, 70, 52
7, 536384, Note_on_c, 1, 70, 0
7, 536400, Note_on_c, 1, 70, 52
7, 536639, Note_on_c, 1, 70, 0
7, 543600, Note_on_c, 1, 70, 44
7, 544799, Note_on_c, 1, 70, 0
7, 544800, Note_on_c, 1, 71, 44
7, 545039, Note_on_c, 1, 71, 0
7, 545040, Note_on_c, 1, 72, 44
7, 545279, Note_on_c, 1, 72, 0
7, 553680, Control_c, 1, 11, 96
7, 553920, Note_on_c, 1, 80, 68
7, 553920, Note_on_c, 1, 74, 68
7, 553920, Control_c, 1, 11, 96
7, 554020, Control_c, 1, 11, 99
7, 554120, Control_c, 1, 11, 101
7, 554220, Control_c, 1, 11, 104
7, 554320, Control_c, 1, 11, 106
7, 554420, Control_c, 1, 11, 109
7, 554520, Control_c, 1, 11, 112
7, 554620, Control_c, 1, 11, 114
7, 554624, Note_on_c, 1, 80, 0
7, 554624, Note_on_c, 1, 74, 0
7, 554640, Note_on_c, 1, 80, 68
7, 554640, Note_on_c, 1, 74, 68
7, 554720, Control_c, 1, 11, 117
7, 554820, Control_c, 1, 11, 119
7, 554920, Control_c, 1, 11, 122
7, 555020, Control_c, 1, 11, 124
7, 555120, Control_c, 1, 11, 127
7, 555240, Control_c, 1, 11, 124
7, 555344, Note_on_c, 1, 80, 0
7, 555344, Note_on_c, 1, 74, 0
7, 555360, Control_c, 1, 11, 122
7, 555360, Note_on_c, 1, 74, 68
7, 555360, Note_on_c, 1, 80, 68
7, 555480, Control_c, 1, 11, 119
7, 555584, Note_on_c, 1, 74, 0
7, 555584, Note_on_c, 1, 80, 0
7, 555600, Note_on_c, 1, 80, 68
7, 555600, Note_on_c, 1, 74, 68
7, 555600, Control_c, 1, 11, 117
7, 555720, Control_c, 1, 11, 114
7, 555824, Note_on_c, 1, 80, 0
7, 555824, Note_on_c, 1, 74, 0
7, 555840, Control_c, 1, 11, 112
7, 555840, Note_on_c, 1, 74, 68
7, 555840, Note_on_c, 1, 80, 68
7, 555960, Control_c, 1, 11, 109
7, 556079, Note_on_c, 1, 74, 0
7, 556080, Note_on_c, 1, 75, 68
7, 556080, Control_c, 1, 11, 106
7, 556200, Control_c, 1, 11, 104
7, 556319, Note_on_c, 1, 75, 0
7, 556320, Note_on_c, 1, 77, 68
7, 556320, Control_c, 1, 11, 101
7, 556440, Control_c, 1, 11, 96
7, 556544, Note_on_c, 1, 80, 0
7, 556544, Note_on_c, 1, 77, 0
7, 556560, Note_on_c, 1, 79, 68
7, 556560, Note_on_c, 1, 75, 68
7, 556739, Note_on_c, 1, 79, 0
7, 556739, Note_on_c, 1, 75, 0
7, 557025, Control_c, 1, 11, 127
7, 557040, Note_on_c, 1, 79, 52
7, 557040, Note_on_c, 1, 75, 52
7, 557219, Note_on_c, 1, 79, 0
7, 557219, Note_on_c, 1, 75, 0
7, 557520, Note_on_c, 1, 79, 52
7, 557520, Note_on_c, 1, 75, 52
7, 557699, Note_on_c, 1, 79, 0
7, 557699, Note_on_c, 1, 75, 0
7, 558000, Note_on_c, 1, 77, 52
7, 558000, Note_on_c, 1, 75, 52
7, 558179, Note_on_c, 1, 77, 0
7, 558179, Note_on_c, 1, 75, 0
7, 558480, Note_on_c, 1, 77, 52
7, 558480, Note_on_c, 1, 75, 52
7, 558659, Note_on_c, 1, 77, 0
7, 558659, Note_on_c, 1, 75, 0
7, 558960, Note_on_c, 1, 77, 52
7, 558960, Note_on_c, 1, 75, 52
7, 559139, Note_on_c, 1, 77, 0
7, 559139, Note_on_c, 1, 75, 0
7, 559425, Control_c, 1, 11, 96
7, 559440, Note_on_c, 1, 79, 68
7, 559440, Note_on_c, 1, 75, 68
7, 559440, Control_c, 1, 11, 96
7, 559620, Control_c, 1, 11, 99
7, 559800, Control_c, 1, 11, 101
7, 559980, Control_c, 1, 11, 104
7, 560160, Control_c, 1, 11, 106
7, 560340, Control_c, 1, 11, 109
7, 560384, Note_on_c, 1, 79, 0
7, 560384, Note_on_c, 1, 75, 0
7, 560400, Note_on_c, 1, 75, 68
7, 560400, Note_on_c, 1, 70, 68
7, 560520, Control_c, 1, 11, 112
7, 560579, Note_on_c, 1, 75, 0
7, 560579, Note_on_c, 1, 70, 0
7, 560640, Note_on_c, 1, 75, 68
7, 560640, Note_on_c, 1, 70, 68
7, 560700, Control_c, 1, 11, 114
7, 560819, Note_on_c, 1, 75, 0
7, 560819, Note_on_c, 1, 70, 0
7, 560880, Control_c, 1, 11, 117
7, 560880, Note_on_c, 1, 74, 68
7, 560880, Note_on_c, 1, 70, 68
7, 561059, Note_on_c, 1, 74, 0
7, 561059, Note_on_c, 1, 70, 0
7, 561060, Control_c, 1, 11, 119
7, 561120, Note_on_c, 1, 77, 68
7, 561120, Note_on_c, 1, 74, 68
7, 561240, Control_c, 1, 11, 122
7, 561299, Note_on_c, 1, 77, 0
7, 561299, Note_on_c, 1, 74, 0
7, 561360, Note_on_c, 1, 77, 68
7, 561360, Note_on_c, 1, 74, 68
7, 561420, Control_c, 1, 11, 127
7, 561539, Note_on_c, 1, 77, 0
7, 561539, Note_on_c, 1, 74, 0
7, 561600, Note_on_c, 1, 77, 52
7, 561600, Note_on_c, 1, 74, 52
7, 561779, Note_on_c, 1, 77, 0
7, 561779, Note_on_c, 1, 74, 0
7, 561840, Note_on_c, 1, 74, 52
7, 561840, Note_on_c, 1, 77, 52
7, 562019, Note_on_c, 1, 74, 0
7, 562019, Note_on_c, 1, 77, 0
7, 562080, Note_on_c, 1, 77, 52
7, 562080, Note_on_c, 1, 74, 52
7, 562259, Note_on_c, 1, 77, 0
7, 562259, Note_on_c, 1, 74, 0
7, 562320, Note_on_c, 1, 75, 52
7, 562320, Note_on_c, 1, 70, 52
7, 562499, Note_on_c, 1, 75, 0
7, 562499, Note_on_c, 1, 70, 0
7, 564480, Note_on_c, 1, 75, 52
7, 564719, Note_on_c, 1, 75, 0
7, 564720, Note_on_c, 1, 79, 52
7, 564944, Note_on_c, 1, 79, 0
7, 564960, Note_on_c, 1, 82, 52
7, 565139, Note_on_c, 1, 82, 0
7, 565200, Note_on_c, 1, 82, 52
7, 565439, Note_on_c, 1, 82, 0
7, 567360, Note_on_c, 1, 77, 52
7, 567599, Note_on_c, 1, 77, 0
7, 567600, Note_on_c, 1, 80, 52
7, 567824, Note_on_c, 1, 80, 0
7, 567840, Note_on_c, 1, 82, 52
7, 568019, Note_on_c, 1, 82, 0
7, 568080, Note_on_c, 1, 82, 52
7, 568080, Note_on_c, 1, 70, 52
7, 570959, Note_on_c, 1, 82, 0
7, 570959, Note_on_c, 1, 70, 0
7, 570960, Note_on_c, 1, 82, 52
7, 570960, Note_on_c, 1, 70, 52
7, 574079, Note_on_c, 1, 82, 0
7, 574079, Note_on_c, 1, 70, 0
7, 575760, Note_on_c, 1, 84, 59
7, 575760, Note_on_c, 1, 72, 59
7, 575849, Note_on_c, 1, 84, 0
7, 575849, Note_on_c, 1, 72, 0
7, 575880, Note_on_c, 1, 82, 59
7, 575969, Note_on_c, 1, 82, 0
7, 576000, Note_on_c, 1, 80, 60
7, 576089, Note_on_c, 1, 80, 0
7, 576120, Note_on_c, 1, 79, 60
7, 576209, Note_on_c, 1, 79, 0
7, 576240, Note_on_c, 1, 77, 61
7, 576329, Note_on_c, 1, 77, 0
7, 576360, Note_on_c, 1, 75, 61
7, 576449, Note_on_c, 1, 75, 0
7, 576480, Note_on_c, 1, 74, 62
7, 576569, Note_on_c, 1, 74, 0
7, 576600, Note_on_c, 1, 72, 62
7, 576689, Note_on_c, 1, 72, 0
7, 576720, Note_on_c, 1, 70, 63
7, 576959, Note_on_c, 1, 70, 0
7, 577560, Note_on_c, 1, 70, 67
7, 577619, Note_on_c, 1, 70, 0
7, 577620, Note_on_c, 1, 72, 67
7, 577679, Note_on_c, 1, 72, 0
7, 577680, Note_on_c, 1, 74, 67
7, 577769, Note_on_c, 1, 74, 0
7, 577800, Note_on_c, 1, 75, 68
7, 577889, Note_on_c, 1, 75, 0
7, 577920, Note_on_c, 1, 77, 68
7, 578009, Note_on_c, 1, 77, 0
7, 578040, Note_on_c, 1, 79, 69
7, 578129, Note_on_c, 1, 79, 0
7, 578160, Note_on_c, 1, 80, 77
7, 578249, Note_on_c, 1, 80, 0
7, 578280, Note_on_c, 1, 79, 70
7, 578369, Note_on_c, 1, 79, 0
7, 578400, Note_on_c, 1, 77, 70
7, 578489, Note_on_c, 1, 77, 0
7, 578520, Note_on_c, 1, 75, 71
7, 578609, Note_on_c, 1, 75, 0
7, 578640, Note_on_c, 1, 74, 71
7, 578729, Note_on_c, 1, 74, 0
7, 578760, Note_on_c, 1, 72, 72
7, 578849, Note_on_c, 1, 72, 0
7, 578880, Note_on_c, 1, 70, 72
7, 578969, Note_on_c, 1, 70, 0
7, 579000, Note_on_c, 1, 72, 73
7, 579089, Note_on_c, 1, 72, 0
7, 579120, Note_on_c, 1, 70, 73
7, 579209, Note_on_c, 1, 70, 0
7, 579240, Note_on_c, 1, 80, 74
7, 579240, Note_on_c, 1, 68, 74
7, 579329, Note_on_c, 1, 80, 0
7, 579329, Note_on_c, 1, 68, 0
7, 579360, Note_on_c, 1, 79, 74
7, 579360, Note_on_c, 1, 67, 74
7, 579449, Note_on_c, 1, 79, 0
7, 579449, Note_on_c, 1, 67, 0
7, 579480, Note_on_c, 1, 77, 75
7, 579480, Note_on_c, 1, 65, 75
7, 579569, Note_on_c, 1, 77, 0
7, 579569, Note_on_c, 1, 65, 0
7, 579600, Note_on_c, 1, 75, 76
7, 579600, Note_on_c, 1, 63, 76
7, 579704, Note_on_c, 1, 75, 0
7, 579704, Note_on_c, 1, 63, 0
7, 579720, Note_on_c, 1, 75, 76
7, 579824, Note_on_c, 1, 75, 0
7, 579840, Note_on_c, 1, 75, 76
7, 579944, Note_on_c, 1, 75, 0
7, 579960, Note_on_c, 1, 75, 76
7, 580064, Note_on_c, 1, 75, 0
7, 580080, Note_on_c, 1, 79, 76
7, 580184, Note_on_c, 1, 79, 0
7, 580200, Note_on_c, 1, 79, 76
7, 580304, Note_on_c, 1, 79, 0
7, 580320, Note_on_c, 1, 75, 76
7, 580424, Note_on_c, 1, 75, 0
7, 580440, Note_on_c, 1, 75, 76
7, 580544, Note_on_c, 1, 75, 0
7, 580560, Note_on_c, 1, 75, 76
7, 580664, Note_on_c, 1, 75, 0
7, 580680, Note_on_c, 1, 75, 76
7, 580784, Note_on_c, 1, 75, 0
7, 580800, Note_on_c, 1, 70, 76
7, 580904, Note_on_c, 1, 70, 0
7, 580920, Note_on_c, 1, 70, 76
7, 581024, Note_on_c, 1, 70, 0
7, 581040, Note_on_c, 1, 75, 76
7, 581144, Note_on_c, 1, 75, 0
7, 581160, Note_on_c, 1, 75, 76
7, 581264, Note_on_c, 1, 75, 0
7, 581280, Note_on_c, 1, 79, 76
7, 581384, Note_on_c, 1, 79, 0
7, 581400, Note_on_c, 1, 79, 76
7, 581504, Note_on_c, 1, 79, 0
7, 581520, Note_on_c, 1, 82, 76
7, 581624, Note_on_c, 1, 82, 0
7, 581640, Note_on_c, 1, 82, 76
7, 581744, Note_on_c, 1, 82, 0
7, 581760, Note_on_c, 1, 82, 76
7, 581864, Note_on_c, 1, 82, 0
7, 581880, Note_on_c, 1, 82, 76
7, 581984, Note_on_c, 1, 82, 0
7, 582000, Note_on_c, 1, 82, 76
7, 582104, Note_on_c, 1, 82, 0
7, 582120, Note_on_c, 1, 82, 76
7, 582224, Note_on_c, 1, 82, 0
7, 582240, Note_on_c, 1, 82, 76
7, 582344, Note_on_c, 1, 82, 0
7, 582360, Note_on_c, 1, 82, 76
7, 582464, Note_on_c, 1, 82, 0
7, 582480, Note_on_c, 1, 77, 76
7, 582584, Note_on_c, 1, 77, 0
7, 582600, Note_on_c, 1, 77, 76
7, 582704, Note_on_c, 1, 77, 0
7, 582720, Note_on_c, 1, 77, 76
7, 582824, Note_on_c, 1, 77, 0
7, 582840, Note_on_c, 1, 77, 76
7, 582944, Note_on_c, 1, 77, 0
7, 582960, Note_on_c, 1, 80, 76
7, 583064, Note_on_c, 1, 80, 0
7, 583080, Note_on_c, 1, 80, 76
7, 583184, Note_on_c, 1, 80, 0
7, 583200, Note_on_c, 1, 77, 76
7, 583304, Note_on_c, 1, 77, 0
7, 583320, Note_on_c, 1, 77, 76
7, 583424, Note_on_c, 1, 77, 0
7, 583440, Note_on_c, 1, 77, 76
7, 583544, Note_on_c, 1, 77, 0
7, 583560, Note_on_c, 1, 77, 76
7, 583664, Note_on_c, 1, 77, 0
7, 583680, Note_on_c, 1, 70, 76
7, 583784, Note_on_c, 1, 70, 0
7, 583800, Note_on_c, 1, 70, 76
7, 583904, Note_on_c, 1, 70, 0
7, 583920, Note_on_c, 1, 77, 76
7, 584024, Note_on_c, 1, 77, 0
7, 584040, Note_on_c, 1, 77, 76
7, 584144, Note_on_c, 1, 77, 0
7, 584160, Note_on_c, 1, 80, 76
7, 584264, Note_on_c, 1, 80, 0
7, 584280, Note_on_c, 1, 80, 76
7, 584384, Note_on_c, 1, 80, 0
7, 584400, Note_on_c, 1, 82, 76
7, 584504, Note_on_c, 1, 82, 0
7, 584520, Note_on_c, 1, 82, 76
7, 584624, Note_on_c, 1, 82, 0
7, 584640, Note_on_c, 1, 82, 76
7, 584744, Note_on_c, 1, 82, 0
7, 584760, Note_on_c, 1, 82, 76
7, 584864, Note_on_c, 1, 82, 0
7, 584880, Note_on_c, 1, 82, 76
7, 584984, Note_on_c, 1, 82, 0
7, 585000, Note_on_c, 1, 82, 76
7, 585104, Note_on_c, 1, 82, 0
7, 585120, Note_on_c, 1, 82, 76
7, 585224, Note_on_c, 1, 82, 0
7, 585240, Note_on_c, 1, 82, 76
7, 585344, Note_on_c, 1, 82, 0
7, 585360, Note_on_c, 1, 82, 76
7, 585464, Note_on_c, 1, 82, 0
7, 585480, Note_on_c, 1, 82, 76
7, 585584, Note_on_c, 1, 82, 0
7, 585600, Note_on_c, 1, 82, 76
7, 585600, Note_on_c, 1, 76, 76
7, 585704, Note_on_c, 1, 82, 0
7, 585704, Note_on_c, 1, 76, 0
7, 585720, Note_on_c, 1, 82, 76
7, 585720, Note_on_c, 1, 76, 76
7, 585824, Note_on_c, 1, 82, 0
7, 585824, Note_on_c, 1, 76, 0
7, 585840, Note_on_c, 1, 82, 76
7, 585840, Note_on_c, 1, 76, 76
7, 585944, Note_on_c, 1, 82, 0
7, 585944, Note_on_c, 1, 76, 0
7, 585960, Note_on_c, 1, 82, 76
7, 585960, Note_on_c, 1, 76, 76
7, 586064, Note_on_c, 1, 82, 0
7, 586064, Note_on_c, 1, 76, 0
7, 586080, Note_on_c, 1, 82, 76
7, 586080, Note_on_c, 1, 76, 76
7, 586784, Note_on_c, 1, 82, 0
7, 586784, Note_on_c, 1, 76, 0
7, 586800, Note_on_c, 1, 72, 76
7, 586800, Note_on_c, 1, 84, 76
7, 587024, Note_on_c, 1, 72, 0
7, 587024, Note_on_c, 1, 84, 0
7, 587040, Note_on_c, 1, 84, 84
7, 587040, Note_on_c, 1, 77, 84
7, 587519, Note_on_c, 1, 84, 0
7, 587519, Note_on_c, 1, 77, 0
7, 587760, Note_on_c, 1, 84, 84
7, 587760, Note_on_c, 1, 75, 84
7, 588239, Note_on_c, 1, 84, 0
7, 588239, Note_on_c, 1, 75, 0
7, 588480, Note_on_c, 1, 79, 84
7, 588480, Note_on_c, 1, 75, 84
7, 588959, Note_on_c, 1, 79, 0
7, 588959, Note_on_c, 1, 75, 0
7, 589200, Note_on_c, 1, 80, 76
7, 589200, Note_on_c, 1, 74, 76
7, 589679, Note_on_c, 1, 80, 0
7, 589679, Note_on_c, 1, 74, 0
7, 589920, Note_on_c, 1, 79, 76
7, 589920, Note_on_c, 1, 75, 76
7, 590399, Note_on_c, 1, 79, 0
7, 590399, Note_on_c, 1, 75, 0
7, 590640, Note_on_c, 1, 84, 76
7, 590640, Note_on_c, 1, 75, 76
7, 591104, Note_on_c, 1, 84, 0
7, 591104, Note_on_c, 1, 75, 0
7, 591120, Note_on_c, 1, 79, 84
7, 591120, Note_on_c, 1, 75, 84
7, 591824, Note_on_c, 1, 79, 0
7, 591824, Note_on_c, 1, 75, 0
7, 591840, Note_on_c, 1, 74, 84
7, 591840, Note_on_c, 1, 80, 84
7, 592304, Note_on_c, 1, 80, 0
7, 592320, Note_on_c, 1, 77, 84
7, 592529, Note_on_c, 1, 74, 0
7, 592529, Note_on_c, 1, 77, 0
7, 592545, Control_c, 1, 11, 96
7, 592560, Note_on_c, 1, 75, 68
7, 592560, Note_on_c, 1, 67, 68
7, 592560, Control_c, 1, 11, 96
7, 592620, Control_c, 1, 11, 99
7, 592680, Control_c, 1, 11, 101
7, 592740, Control_c, 1, 11, 104
7, 592799, Note_on_c, 1, 67, 0
7, 592800, Control_c, 1, 11, 106
7, 592860, Control_c, 1, 11, 109
7, 592920, Control_c, 1, 11, 112
7, 592980, Control_c, 1, 11, 114
7, 593040, Control_c, 1, 11, 117
7, 593100, Control_c, 1, 11, 119
7, 593160, Control_c, 1, 11, 122
7, 593220, Control_c, 1, 11, 124
7, 593280, Control_c, 1, 11, 127
7, 593340, Control_c, 1, 11, 124
7, 593400, Control_c, 1, 11, 122
7, 593460, Control_c, 1, 11, 119
7, 593520, Control_c, 1, 11, 117
7, 593580, Control_c, 1, 11, 114
7, 593640, Control_c, 1, 11, 112
7, 593700, Control_c, 1, 11, 109
7, 593760, Control_c, 1, 11, 106
7, 593820, Control_c, 1, 11, 104
7, 593880, Control_c, 1, 11, 101
7, 593940, Control_c, 1, 11, 96
7, 594000, Note_on_c, 1, 70, 68
7, 594479, Note_on_c, 1, 75, 0
7, 594479, Note_on_c, 1, 70, 0
7, 594480, Note_on_c, 1, 77, 68
7, 594480, Note_on_c, 1, 74, 68
7, 594599, Note_on_c, 1, 77, 0
7, 594599, Note_on_c, 1, 74, 0
7, 594600, Note_on_c, 1, 79, 68
7, 594600, Note_on_c, 1, 75, 68
7, 594704, Note_on_c, 1, 79, 0
7, 594704, Note_on_c, 1, 75, 0
7, 594720, Note_on_c, 1, 80, 68
7, 594720, Note_on_c, 1, 77, 68
7, 594929, Note_on_c, 1, 80, 0
7, 594929, Note_on_c, 1, 77, 0
7, 594960, Note_on_c, 1, 80, 68
7, 594960, Note_on_c, 1, 77, 68
7, 595169, Note_on_c, 1, 80, 0
7, 595169, Note_on_c, 1, 77, 0
7, 595200, Note_on_c, 1, 80, 68
7, 595200, Note_on_c, 1, 77, 68
7, 595409, Note_on_c, 1, 80, 0
7, 595409, Note_on_c, 1, 77, 0
7, 595440, Note_on_c, 1, 79, 68
7, 595440, Note_on_c, 1, 75, 68
7, 595679, Note_on_c, 1, 79, 0
7, 595679, Note_on_c, 1, 75, 0
7, 596880, Control_c, 1, 11, 127
7, 597240, Note_on_c, 1, 70, 67
7, 597240, Note_on_c, 1, 75, 67
7, 597329, Note_on_c, 1, 70, 0
7, 597329, Note_on_c, 1, 75, 0
7, 597360, Note_on_c, 1, 74, 68
7, 597360, Note_on_c, 1, 77, 68
7, 597449, Note_on_c, 1, 74, 0
7, 597449, Note_on_c, 1, 77, 0
7, 597480, Note_on_c, 1, 75, 69
7, 597480, Note_on_c, 1, 79, 69
7, 597569, Note_on_c, 1, 75, 0
7, 597569, Note_on_c, 1, 79, 0
7, 597600, Note_on_c, 1, 80, 70
7, 597600, Note_on_c, 1, 77, 70
7, 597689, Note_on_c, 1, 80, 0
7, 597689, Note_on_c, 1, 77, 0
7, 597720, Note_on_c, 1, 80, 71
7, 597720, Note_on_c, 1, 77, 71
7, 597809, Note_on_c, 1, 80, 0
7, 597809, Note_on_c, 1, 77, 0
7, 597840, Note_on_c, 1, 80, 72
7, 597840, Note_on_c, 1, 77, 72
7, 597929, Note_on_c, 1, 80, 0
7, 597929, Note_on_c, 1, 77, 0
7, 597960, Note_on_c, 1, 80, 73
7, 597960, Note_on_c, 1, 77, 73
7, 598049, Note_on_c, 1, 80, 0
7, 598049, Note_on_c, 1, 77, 0
7, 598080, Note_on_c, 1, 80, 74
7, 598080, Note_on_c, 1, 77, 74
7, 598169, Note_on_c, 1, 80, 0
7, 598169, Note_on_c, 1, 77, 0
7, 598200, Note_on_c, 1, 80, 75
7, 598200, Note_on_c, 1, 77, 75
7, 598289, Note_on_c, 1, 80, 0
7, 598289, Note_on_c, 1, 77, 0
7, 598320, Note_on_c, 1, 80, 76
7, 598320, Note_on_c, 1, 77, 76
7, 598544, Note_on_c, 1, 80, 0
7, 598544, Note_on_c, 1, 77, 0
7, 598560, Note_on_c, 1, 74, 76
7, 598560, Note_on_c, 1, 68, 76
7, 599264, Note_on_c, 1, 74, 0
7, 599264, Note_on_c, 1, 68, 0
7, 599280, Note_on_c, 1, 77, 76
7, 599280, Note_on_c, 1, 74, 76
7, 599984, Note_on_c, 1, 77, 0
7, 599984, Note_on_c, 1, 74, 0
7, 600000, Note_on_c, 1, 80, 76
7, 600000, Note_on_c, 1, 77, 76
7, 600464, Note_on_c, 1, 80, 0
7, 600464, Note_on_c, 1, 77, 0
7, 600480, Note_on_c, 1, 80, 76
7, 600480, Note_on_c, 1, 77, 76
7, 600944, Note_on_c, 1, 80, 0
7, 600944, Note_on_c, 1, 77, 0
7, 600960, Note_on_c, 1, 80, 76
7, 600960, Note_on_c, 1, 77, 76
7, 601139, Note_on_c, 1, 80, 0
7, 601139, Note_on_c, 1, 77, 0
7, 601200, Note_on_c, 1, 80, 76
7, 601200, Note_on_c, 1, 77, 76
7, 601379, Note_on_c, 1, 80, 0
7, 601379, Note_on_c, 1, 77, 0
7, 601440, Note_on_c, 1, 80, 84
7, 601440, Note_on_c, 1, 74, 84
7, 601619, Note_on_c, 1, 80, 0
7, 601619, Note_on_c, 1, 74, 0
7, 601680, Note_on_c, 1, 80, 84
7, 601680, Note_on_c, 1, 74, 84
7, 601859, Note_on_c, 1, 80, 0
7, 601859, Note_on_c, 1, 74, 0
7, 601920, Note_on_c, 1, 80, 84
7, 601920, Note_on_c, 1, 74, 84
7, 602099, Note_on_c, 1, 80, 0
7, 602099, Note_on_c, 1, 74, 0
7, 602160, Note_on_c, 1, 80, 84
7, 602160, Note_on_c, 1, 74, 84
7, 602339, Note_on_c, 1, 80, 0
7, 602339, Note_on_c, 1, 74, 0
7, 602400, Note_on_c, 1, 80, 84
7, 602400, Note_on_c, 1, 74, 84
7, 602579, Note_on_c, 1, 80, 0
7, 602579, Note_on_c, 1, 74, 0
7, 602640, Note_on_c, 1, 80, 84
7, 602640, Note_on_c, 1, 74, 84
7, 602819, Note_on_c, 1, 80, 0
7, 602819, Note_on_c, 1, 74, 0
7, 602880, Note_on_c, 1, 80, 84
7, 602880, Note_on_c, 1, 74, 84
7, 603059, Note_on_c, 1, 80, 0
7, 603059, Note_on_c, 1, 74, 0
7, 603120, Note_on_c, 1, 80, 84
7, 603120, Note_on_c, 1, 74, 84
7, 603299, Note_on_c, 1, 80, 0
7, 603299, Note_on_c, 1, 74, 0
7, 603360, Note_on_c, 1, 80, 84
7, 603360, Note_on_c, 1, 74, 84
7, 603539, Note_on_c, 1, 80, 0
7, 603539, Note_on_c, 1, 74, 0
7, 603600, Note_on_c, 1, 80, 84
7, 603600, Note_on_c, 1, 74, 84
7, 603779, Note_on_c, 1, 80, 0
7, 603779, Note_on_c, 1, 74, 0
7, 603840, Note_on_c, 1, 80, 84
7, 603840, Note_on_c, 1, 74, 84
7, 604019, Note_on_c, 1, 80, 0
7, 604019, Note_on_c, 1, 74, 0
7, 604080, Note_on_c, 1, 79, 84
7, 604080, Note_on_c, 1, 75, 84
7, 604319, Note_on_c, 1, 79, 0
7, 604319, Note_on_c, 1, 75, 0
7, 604800, Note_on_c, 1, 75, 84
7, 605039, Note_on_c, 1, 75, 0
7, 605520, Note_on_c, 1, 75, 84
7, 605759, Note_on_c, 1, 75, 0
7, 605759, End_track
8, 0, Start_track
8, 0, Title_t, "Clarinet in B-flat"
8, 0, MIDI_port, 0
8, 0, Program_c, 2, 71
8, 0, Control_c, 2, 7, 88
8, 0, Control_c, 2, 10, 75
8, 0, Control_c, 2, 11, 127
8, 0, Note_on_c, 2, 75, 76
8, 0, Note_on_c, 2, 67, 76
8, 179, Note_on_c, 2, 75, 0
8, 179, Note_on_c, 2, 67, 0
8, 720, Note_on_c, 2, 75, 76
8, 720, Note_on_c, 2, 67, 76
8, 899, Note_on_c, 2, 75, 0
8, 899, Note_on_c, 2, 67, 0
8, 8880, Control_c, 2, 11, 96
8, 9120, Note_on_c, 2, 70, 68
8, 9360, Control_c, 2, 11, 96
8, 9420, Control_c, 2, 11, 99
8, 9480, Control_c, 2, 11, 101
8, 9540, Control_c, 2, 11, 104
8, 9599, Note_on_c, 2, 70, 0
8, 9600, Control_c, 2, 11, 106
8, 9600, Note_on_c, 2, 72, 68
8, 9660, Control_c, 2, 11, 109
8, 9720, Control_c, 2, 11, 112
8, 9780, Control_c, 2, 11, 114
8, 9839, Note_on_c, 2, 72, 0
8, 9840, Note_on_c, 2, 74, 68
8, 9840, Control_c, 2, 11, 117
8, 9900, Control_c, 2, 11, 119
8, 9960, Control_c, 2, 11, 122
8, 10020, Control_c, 2, 11, 124
8, 10064, Note_on_c, 2, 74, 0
8, 10080, Note_on_c, 2, 75, 52
8, 10080, Control_c, 2, 11, 127
8, 10559, Note_on_c, 2, 75, 0
8, 10560, Note_on_c, 2, 79, 52
8, 10799, Note_on_c, 2, 79, 0
8, 10800, Note_on_c, 2, 75, 52
8, 11279, Note_on_c, 2, 75, 0
8, 11280, Note_on_c, 2, 70, 52
8, 11504, Note_on_c, 2, 70, 0
8, 11520, Note_on_c, 2, 75, 52
8, 11759, Note_on_c, 2, 75, 0
8, 11760, Note_on_c, 2, 79, 52
8, 11999, Note_on_c, 2, 79, 0
8, 12000, Note_on_c, 2, 82, 52
8, 12239, Note_on_c, 2, 82, 0
8, 12240, Note_on_c, 2, 75, 52
8, 12479, Note_on_c, 2, 75, 0
8, 13920, Control_c, 2, 11, 80
8, 14160, Note_on_c, 2, 67, 76
8, 14399, Note_on_c, 2, 67, 0
8, 14400, Note_on_c, 2, 68, 76
8, 14639, Note_on_c, 2, 68, 0
8, 14640, Note_on_c, 2, 72, 76
8, 14879, Note_on_c, 2, 72, 0
8, 14880, Note_on_c, 2, 75, 76
8, 15104, Note_on_c, 2, 75, 0
8, 15120, Note_on_c, 2, 68, 76
8, 15120, Control_c, 2, 11, 80
8, 15180, Control_c, 2, 11, 84
8, 15240, Control_c, 2, 11, 88
8, 15300, Control_c, 2, 11, 92
8, 15360, Note_on_c, 2, 63, 76
8, 15360, Control_c, 2, 11, 96
8, 15420, Control_c, 2, 11, 100
8, 15480, Control_c, 2, 11, 104
8, 15540, Control_c, 2, 11, 107
8, 15584, Note_on_c, 2, 63, 0
8, 15599, Note_on_c, 2, 68, 0
8, 15600, Note_on_c, 2, 69, 76
8, 15600, Note_on_c, 2, 63, 76
8, 15600, Control_c, 2, 11, 111
8, 15660, Control_c, 2, 11, 115
8, 15720, Control_c, 2, 11, 119
8, 15780, Control_c, 2, 11, 123
8, 15824, Note_on_c, 2, 63, 0
8, 15839, Note_on_c, 2, 69, 0
8, 15840, Control_c, 2, 11, 127
8, 15840, Note_on_c, 2, 70, 76
8, 15960, Control_c, 2, 11, 80
8, 16304, Note_on_c, 2, 70, 0
8, 16320, Note_on_c, 2, 77, 76
8, 16320, Note_on_c, 2, 65, 76
8, 16559, Note_on_c, 2, 77, 0
8, 16559, Note_on_c, 2, 65, 0
8, 16560, Note_on_c, 2, 62, 76
8, 16560, Note_on_c, 2, 74, 76
8, 16799, Note_on_c, 2, 62, 0
8, 16799, Note_on_c, 2, 74, 0
8, 16800, Note_on_c, 2, 58, 76
8, 16800, Note_on_c, 2, 70, 76
8, 17039, Note_on_c, 2, 58, 0
8, 17039, Note_on_c, 2, 70, 0
8, 17040, Note_on_c, 2, 77, 76
8, 17040, Note_on_c, 2, 68, 76
8, 17264, Note_on_c, 2, 77, 0
8, 17264, Note_on_c, 2, 68, 0
8, 17280, Note_on_c, 2, 67, 76
8, 17280, Note_on_c, 2, 75, 76
8, 17459, Note_on_c, 2, 67, 0
8, 17459, Note_on_c, 2, 75, 0
8, 17505, Control_c, 2, 11, 127
8, 17520, Note_on_c, 2, 75, 76
8, 17520, Note_on_c, 2, 66, 76
8, 17969, Note_on_c, 2, 75, 0
8, 17969, Note_on_c, 2, 66, 0
8, 18000, Note_on_c, 2, 66, 76
8, 18000, Note_on_c, 2, 75, 76
8, 18449, Note_on_c, 2, 66, 0
8, 18449, Note_on_c, 2, 75, 0
8, 18480, Note_on_c, 2, 66, 76
8, 18480, Note_on_c, 2, 75, 76
8, 18689, Note_on_c, 2, 66, 0
8, 18689, Note_on_c, 2, 75, 0
8, 18720, Note_on_c, 2, 74, 76
8, 18720, Note_on_c, 2, 65, 76
8, 18840, Control_c, 2, 11, 80
8, 18899, Note_on_c, 2, 74, 0
8, 18899, Note_on_c, 2, 65, 0
8, 18960, Note_on_c, 2, 70, 76
8, 18960, Note_on_c, 2, 82, 76
8, 19199, Note_on_c, 2, 70, 0
8, 19199, Note_on_c, 2, 82, 0
8, 19200, Note_on_c, 2, 77, 76
8, 19200, Note_on_c, 2, 65, 76
8, 19439, Note_on_c, 2, 77, 0
8, 19439, Note_on_c, 2, 65, 0
8, 19440, Note_on_c, 2, 74, 76
8, 19440, Note_on_c, 2, 62, 76
8, 19679, Note_on_c, 2, 74, 0
8, 19679, Note_on_c, 2, 62, 0
8, 19680, Note_on_c, 2, 70, 76
8, 19680, Note_on_c, 2, 58, 76
8, 19889, Note_on_c, 2, 70, 0
8, 19889, Note_on_c, 2, 58, 0
8, 19905, Control_c, 2, 11, 127
8, 19920, Note_on_c, 2, 65, 76
8, 19920, Note_on_c, 2, 70, 76
8, 20369, Note_on_c, 2, 65, 0
8, 20369, Note_on_c, 2, 70, 0
8, 20400, Note_on_c, 2, 74, 76
8, 20400, Note_on_c, 2, 65, 76
8, 20849, Note_on_c, 2, 74, 0
8, 20849, Note_on_c, 2, 65, 0
8, 20880, Note_on_c, 2, 65, 76
8, 20880, Note_on_c, 2, 74, 76
8, 21329, Note_on_c, 2, 65, 0
8, 21329, Note_on_c, 2, 74, 0
8, 21360, Note_on_c, 2, 65, 76
8, 21360, Note_on_c, 2, 74, 76
8, 21809, Note_on_c, 2, 65, 0
8, 21809, Note_on_c, 2, 74, 0
8, 21840, Note_on_c, 2, 75, 76
8, 21840, Note_on_c, 2, 67, 76
8, 22289, Note_on_c, 2, 75, 0
8, 22289, Note_on_c, 2, 67, 0
8, 22320, Note_on_c, 2, 75, 76
8, 22320, Note_on_c, 2, 67, 76
8, 22769, Note_on_c, 2, 75, 0
8, 22769, Note_on_c, 2, 67, 0
8, 22800, Note_on_c, 2, 75, 76
8, 22800, Note_on_c, 2, 67, 76
8, 23249, Note_on_c, 2, 75, 0
8, 23249, Note_on_c, 2, 67, 0
8, 23280, Note_on_c, 2, 74, 52
8, 23280, Note_on_c, 2, 65, 52
8, 23459, Note_on_c, 2, 74, 0
8, 23459, Note_on_c, 2, 65, 0
8, 23520, Note_on_c, 2, 74, 76
8, 23520, Note_on_c, 2, 65, 76
8, 23759, Note_on_c, 2, 65, 0
8, 23760, Note_on_c, 2, 70, 76
8, 23969, Note_on_c, 2, 74, 0
8, 23969, Note_on_c, 2, 70, 0
8, 24000, Note_on_c, 2, 75, 52
8, 24000, Note_on_c, 2, 70, 52
8, 24179, Note_on_c, 2, 75, 0
8, 24179, Note_on_c, 2, 70, 0
8, 24240, Note_on_c, 2, 70, 76
8, 24240, Note_on_c, 2, 75, 76
8, 24479, Note_on_c, 2, 75, 0
8, 24480, Note_on_c, 2, 74, 52
8, 24689, Note_on_c, 2, 70, 0
8, 24689, Note_on_c, 2, 74, 0
8, 24720, Note_on_c, 2, 58, 52
8, 24809, Note_on_c, 2, 58, 0
8, 24840, Note_on_c, 2, 60, 55
8, 24929, Note_on_c, 2, 60, 0
8, 24960, Note_on_c, 2, 62, 58
8, 25049, Note_on_c, 2, 62, 0
8, 25080, Note_on_c, 2, 63, 61
8, 25169, Note_on_c, 2, 63, 0
8, 25200, Note_on_c, 2, 65, 64
8, 25289, Note_on_c, 2, 65, 0
8, 25320, Note_on_c, 2, 67, 68
8, 25409, Note_on_c, 2, 67, 0
8, 25440, Note_on_c, 2, 68, 71
8, 25529, Note_on_c, 2, 68, 0
8, 25560, Note_on_c, 2, 70, 74
8, 25649, Note_on_c, 2, 70, 0
8, 25680, Note_on_c, 2, 72, 77
8, 25769, Note_on_c, 2, 72, 0
8, 25800, Note_on_c, 2, 74, 80
8, 25889, Note_on_c, 2, 74, 0
8, 25920, Note_on_c, 2, 75, 84
8, 26399, Note_on_c, 2, 75, 0
8, 26400, Note_on_c, 2, 79, 84
8, 26639, Note_on_c, 2, 79, 0
8, 26640, Note_on_c, 2, 75, 84
8, 27119, Note_on_c, 2, 75, 0
8, 27120, Note_on_c, 2, 70, 84
8, 27344, Note_on_c, 2, 70, 0
8, 27360, Note_on_c, 2, 75, 84
8, 27599, Note_on_c, 2, 75, 0
8, 27600, Note_on_c, 2, 79, 84
8, 27839, Note_on_c, 2, 79, 0
8, 27840, Note_on_c, 2, 82, 84
8, 28064, Note_on_c, 2, 82, 0
8, 28080, Note_on_c, 2, 75, 84
8, 28544, Note_on_c, 2, 75, 0
8, 28560, Note_on_c, 2, 79, 92
8, 28560, Note_on_c, 2, 75, 92
8, 29024, Note_on_c, 2, 79, 0
8, 29024, Note_on_c, 2, 75, 0
8, 29040, Note_on_c, 2, 75, 84
8, 29040, Note_on_c, 2, 79, 84
8, 29264, Note_on_c, 2, 75, 0
8, 29264, Note_on_c, 2, 79, 0
8, 29280, Note_on_c, 2, 75, 84
8, 29280, Note_on_c, 2, 79, 84
8, 29504, Note_on_c, 2, 75, 0
8, 29504, Note_on_c, 2, 79, 0
8, 29520, Note_on_c, 2, 75, 84
8, 29520, Note_on_c, 2, 79, 84
8, 29984, Note_on_c, 2, 75, 0
8, 30000, Note_on_c, 2, 73, 92
8, 30224, Note_on_c, 2, 79, 0
8, 30224, Note_on_c, 2, 73, 0
8, 30240, Note_on_c, 2, 72, 84
8, 30240, Note_on_c, 2, 80, 84
8, 30479, Note_on_c, 2, 80, 0
8, 30480, Note_on_c, 2, 75, 84
8, 30704, Note_on_c, 2, 75, 0
8, 30720, Note_on_c, 2, 75, 84
8, 30944, Note_on_c, 2, 75, 0
8, 30960, Note_on_c, 2, 76, 84
8, 31079, Note_on_c, 2, 72, 0
8, 31080, Note_on_c, 2, 70, 84
8, 31199, Note_on_c, 2, 70, 0
8, 31200, Note_on_c, 2, 69, 84
8, 31319, Note_on_c, 2, 69, 0
8, 31320, Note_on_c, 2, 70, 84
8, 31439, Note_on_c, 2, 70, 0
8, 31440, Note_on_c, 2, 72, 84
8, 31559, Note_on_c, 2, 72, 0
8, 31560, Note_on_c, 2, 70, 84
8, 31679, Note_on_c, 2, 76, 0
8, 31679, Note_on_c, 2, 70, 0
8, 31680, Note_on_c, 2, 77, 84
8, 31680, Note_on_c, 2, 69, 84
8, 31919, Note_on_c, 2, 77, 0
8, 31919, Note_on_c, 2, 69, 0
8, 32640, Note_on_c, 2, 77, 48
8, 32999, Note_on_c, 2, 77, 0
8, 33000, Note_on_c, 2, 75, 48
8, 33119, Note_on_c, 2, 75, 0
8, 33120, Note_on_c, 2, 72, 48
8, 33359, Note_on_c, 2, 72, 0
8, 35520, Note_on_c, 2, 77, 48
8, 35879, Note_on_c, 2, 77, 0
8, 35880, Note_on_c, 2, 74, 48
8, 35999, Note_on_c, 2, 74, 0
8, 36000, Note_on_c, 2, 70, 48
8, 36239, Note_on_c, 2, 70, 0
8, 38400, Note_on_c, 2, 78, 68
8, 38759, Note_on_c, 2, 78, 0
8, 38760, Note_on_c, 2, 77, 52
8, 38879, Note_on_c, 2, 77, 0
8, 38880, Note_on_c, 2, 75, 52
8, 39119, Note_on_c, 2, 75, 0
8, 39120, Note_on_c, 2, 79, 84
8, 39120, Note_on_c, 2, 67, 84
8, 39464, Note_on_c, 2, 79, 0
8, 39464, Note_on_c, 2, 67, 0
8, 39480, Note_on_c, 2, 77, 84
8, 39480, Note_on_c, 2, 65, 84
8, 39584, Note_on_c, 2, 77, 0
8, 39584, Note_on_c, 2, 65, 0
8, 39600, Note_on_c, 2, 75, 84
8, 39600, Note_on_c, 2, 63, 84
8, 39779, Note_on_c, 2, 75, 0
8, 39779, Note_on_c, 2, 63, 0
8, 39840, Note_on_c, 2, 74, 84
8, 39840, Note_on_c, 2, 62, 84
8, 40019, Note_on_c, 2, 74, 0
8, 40019, Note_on_c, 2, 62, 0
8, 40080, Note_on_c, 2, 60, 84
8, 40080, Note_on_c, 2, 72, 84
8, 40259, Note_on_c, 2, 60, 0
8, 40259, Note_on_c, 2, 72, 0
8, 40305, Control_c, 2, 11, 96
8, 40320, Control_c, 2, 11, 96
8, 40320, Note_on_c, 2, 62, 68
8, 40320, Note_on_c, 2, 58, 68
8, 40380, Control_c, 2, 11, 99
8, 40440, Control_c, 2, 11, 101
8, 40500, Control_c, 2, 11, 104
8, 40560, Control_c, 2, 11, 106
8, 40620, Control_c, 2, 11, 109
8, 40680, Control_c, 2, 11, 112
8, 40740, Control_c, 2, 11, 114
8, 40799, Note_on_c, 2, 62, 0
8, 40799, Note_on_c, 2, 58, 0
8, 40800, Control_c, 2, 11, 117
8, 40800, Note_on_c, 2, 63, 68
8, 40800, Note_on_c, 2, 60, 68
8, 40860, Control_c, 2, 11, 119
8, 40919, Note_on_c, 2, 63, 0
8, 40919, Note_on_c, 2, 60, 0
8, 40920, Control_c, 2, 11, 122
8, 40920, Note_on_c, 2, 65, 68
8, 40920, Note_on_c, 2, 62, 68
8, 40980, Control_c, 2, 11, 124
8, 41039, Note_on_c, 2, 65, 0
8, 41039, Note_on_c, 2, 62, 0
8, 41040, Note_on_c, 2, 67, 68
8, 41040, Note_on_c, 2, 63, 68
8, 41040, Control_c, 2, 11, 127
8, 41100, Control_c, 2, 11, 124
8, 41160, Control_c, 2, 11, 122
8, 41220, Control_c, 2, 11, 119
8, 41279, Note_on_c, 2, 67, 0
8, 41279, Note_on_c, 2, 63, 0
8, 41280, Note_on_c, 2, 65, 68
8, 41280, Note_on_c, 2, 69, 68
8, 41280, Control_c, 2, 11, 117
8, 41340, Control_c, 2, 11, 114
8, 41400, Control_c, 2, 11, 112
8, 41460, Control_c, 2, 11, 109
8, 41519, Note_on_c, 2, 65, 0
8, 41519, Note_on_c, 2, 69, 0
8, 41520, Note_on_c, 2, 70, 68
8, 41520, Note_on_c, 2, 67, 68
8, 41520, Control_c, 2, 11, 106
8, 41580, Control_c, 2, 11, 104
8, 41640, Control_c, 2, 11, 101
8, 41700, Control_c, 2, 11, 96
8, 41744, Note_on_c, 2, 70, 0
8, 41744, Note_on_c, 2, 67, 0
8, 41760, Note_on_c, 2, 70, 68
8, 41760, Note_on_c, 2, 65, 68
8, 42104, Note_on_c, 2, 70, 0
8, 42104, Note_on_c, 2, 65, 0
8, 42120, Note_on_c, 2, 53, 68
8, 42120, Note_on_c, 2, 58, 68
8, 42239, Note_on_c, 2, 53, 0
8, 42239, Note_on_c, 2, 58, 0
8, 42240, Note_on_c, 2, 57, 68
8, 42240, Note_on_c, 2, 60, 68
8, 42359, Note_on_c, 2, 57, 0
8, 42359, Note_on_c, 2, 60, 0
8, 42360, Note_on_c, 2, 62, 68
8, 42360, Note_on_c, 2, 58, 68
8, 42464, Note_on_c, 2, 62, 0
8, 42464, Note_on_c, 2, 58, 0
8, 42480, Note_on_c, 2, 63, 68
8, 42480, Note_on_c, 2, 60, 68
8, 42689, Note_on_c, 2, 63, 0
8, 42689, Note_on_c, 2, 60, 0
8, 42720, Note_on_c, 2, 60, 68
8, 42720, Note_on_c, 2, 63, 68
8, 42929, Note_on_c, 2, 60, 0
8, 42929, Note_on_c, 2, 63, 0
8, 42960, Note_on_c, 2, 60, 68
8, 42960, Note_on_c, 2, 63, 68
8, 43169, Note_on_c, 2, 60, 0
8, 43169, Note_on_c, 2, 63, 0
8, 43200, Note_on_c, 2, 58, 68
8, 43200, Note_on_c, 2, 62, 68
8, 43439, Note_on_c, 2, 58, 0
8, 43439, Note_on_c, 2, 62, 0
8, 45840, Control_c, 2, 11, 127
8, 46080, Note_on_c, 2, 69, 76
8, 46080, Note_on_c, 2, 75, 76
8, 46259, Note_on_c, 2, 69, 0
8, 46259, Note_on_c, 2, 75, 0
8, 46320, Note_on_c, 2, 69, 76
8, 46320, Note_on_c, 2, 75, 76
8, 46499, Note_on_c, 2, 69, 0
8, 46499, Note_on_c, 2, 75, 0
8, 47400, Note_on_c, 2, 69, 76
8, 47400, Note_on_c, 2, 72, 76
8, 47489, Note_on_c, 2, 69, 0
8, 47489, Note_on_c, 2, 72, 0
8, 47520, Note_on_c, 2, 70, 76
8, 47699, Note_on_c, 2, 70, 0
8, 47760, Note_on_c, 2, 70, 76
8, 47939, Note_on_c, 2, 70, 0
8, 48840, Note_on_c, 2, 70, 76
8, 48840, Note_on_c, 2, 74, 76
8, 48929, Note_on_c, 2, 70, 0
8, 48929, Note_on_c, 2, 74, 0
8, 48960, Note_on_c, 2, 74, 76
8, 48960, Note_on_c, 2, 71, 76
8, 49139, Note_on_c, 2, 74, 0
8, 49139, Note_on_c, 2, 71, 0
8, 49200, Note_on_c, 2, 71, 76
8, 49200, Note_on_c, 2, 74, 76
8, 49379, Note_on_c, 2, 71, 0
8, 49379, Note_on_c, 2, 74, 0
8, 50640, Note_on_c, 2, 72, 76
8, 50880, Note_on_c, 2, 74, 76
8, 51104, Note_on_c, 2, 72, 0
8, 51120, Note_on_c, 2, 70, 76
8, 51224, Note_on_c, 2, 74, 0
8, 51240, Note_on_c, 2, 75, 76
8, 51344, Note_on_c, 2, 70, 0
8, 51359, Note_on_c, 2, 75, 0
8, 51360, Note_on_c, 2, 75, 76
8, 51600, Note_on_c, 2, 77, 76
8, 51824, Note_on_c, 2, 75, 0
8, 51824, Note_on_c, 2, 77, 0
8, 51840, Note_on_c, 2, 74, 76
8, 51840, Note_on_c, 2, 77, 76
8, 52079, Note_on_c, 2, 74, 0
8, 52079, Note_on_c, 2, 77, 0
8, 53040, Note_on_c, 2, 78, 76
8, 53040, Note_on_c, 2, 70, 76
8, 53279, Note_on_c, 2, 78, 0
8, 53280, Note_on_c, 2, 79, 76
8, 53399, Note_on_c, 2, 79, 0
8, 53400, Note_on_c, 2, 78, 76
8, 53519, Note_on_c, 2, 78, 0
8, 53520, Note_on_c, 2, 79, 76
8, 53639, Note_on_c, 2, 79, 0
8, 53640, Note_on_c, 2, 78, 76
8, 53759, Note_on_c, 2, 70, 0
8, 53759, Note_on_c, 2, 78, 0
8, 53760, Note_on_c, 2, 71, 76
8, 53760, Note_on_c, 2, 79, 76
8, 53879, Note_on_c, 2, 79, 0
8, 53880, Note_on_c, 2, 74, 76
8, 53984, Note_on_c, 2, 71, 0
8, 53984, Note_on_c, 2, 74, 0
8, 54000, Note_on_c, 2, 75, 76
8, 54000, Note_on_c, 2, 72, 76
8, 54104, Note_on_c, 2, 72, 0
8, 54119, Note_on_c, 2, 75, 0
8, 54120, Note_on_c, 2, 67, 76
8, 54120, Note_on_c, 2, 74, 76
8, 54239, Note_on_c, 2, 74, 0
8, 54240, Note_on_c, 2, 77, 76
8, 54344, Note_on_c, 2, 67, 0
8, 54359, Note_on_c, 2, 77, 0
8, 54360, Note_on_c, 2, 75, 76
8, 54360, Note_on_c, 2, 67, 76
8, 54479, Note_on_c, 2, 75, 0
8, 54479, Note_on_c, 2, 67, 0
8, 54480, Note_on_c, 2, 74, 76
8, 54480, Note_on_c, 2, 65, 76
8, 54599, Note_on_c, 2, 74, 0
8, 54599, Note_on_c, 2, 65, 0
8, 54600, Note_on_c, 2, 72, 76
8, 54600, Note_on_c, 2, 63, 76
8, 54704, Note_on_c, 2, 72, 0
8, 54704, Note_on_c, 2, 63, 0
8, 54720, Note_on_c, 2, 62, 76
8, 54720, Note_on_c, 2, 70, 76
8, 54959, Note_on_c, 2, 62, 0
8, 54959, Note_on_c, 2, 70, 0
8, 59040, Control_c, 2, 11, 96
8, 59280, Note_on_c, 2, 74, 68
8, 59280, Note_on_c, 2, 65, 68
8, 59489, Note_on_c, 2, 74, 0
8, 59489, Note_on_c, 2, 65, 0
8, 59520, Note_on_c, 2, 74, 68
8, 59520, Note_on_c, 2, 65, 68
8, 59729, Note_on_c, 2, 74, 0
8, 59729, Note_on_c, 2, 65, 0
8, 59760, Note_on_c, 2, 65, 68
8, 59760, Control_c, 2, 11, 96
8, 59760, Note_on_c, 2, 74, 68
8, 59880, Control_c, 2, 11, 99
8, 59969, Note_on_c, 2, 65, 0
8, 59969, Note_on_c, 2, 74, 0
8, 60000, Control_c, 2, 11, 101
8, 60000, Note_on_c, 2, 65, 68
8, 60000, Note_on_c, 2, 74, 68
8, 60120, Control_c, 2, 11, 104
8, 60209, Note_on_c, 2, 65, 0
8, 60209, Note_on_c, 2, 74, 0
8, 60240, Note_on_c, 2, 65, 76
8, 60240, Control_c, 2, 11, 106
8, 60240, Note_on_c, 2, 74, 76
8, 60360, Control_c, 2, 11, 109
8, 60449, Note_on_c, 2, 65, 0
8, 60449, Note_on_c, 2, 74, 0
8, 60480, Note_on_c, 2, 74, 68
8, 60480, Note_on_c, 2, 65, 68
8, 60480, Control_c, 2, 11, 112
8, 60600, Control_c, 2, 11, 114
8, 60689, Note_on_c, 2, 74, 0
8, 60689, Note_on_c, 2, 65, 0
8, 60720, Note_on_c, 2, 65, 68
8, 60720, Note_on_c, 2, 74, 68
8, 60720, Control_c, 2, 11, 117
8, 60840, Control_c, 2, 11, 119
8, 60929, Note_on_c, 2, 65, 0
8, 60929, Note_on_c, 2, 74, 0
8, 60960, Note_on_c, 2, 66, 68
8, 60960, Note_on_c, 2, 74, 68
8, 60960, Control_c, 2, 11, 122
8, 61080, Control_c, 2, 11, 124
8, 61169, Note_on_c, 2, 66, 0
8, 61169, Note_on_c, 2, 74, 0
8, 61200, Control_c, 2, 11, 127
8, 61200, Note_on_c, 2, 74, 68
8, 61200, Note_on_c, 2, 67, 68
8, 61260, Control_c, 2, 11, 124
8, 61320, Control_c, 2, 11, 122
8, 61380, Control_c, 2, 11, 119
8, 61440, Control_c, 2, 11, 117
8, 61500, Control_c, 2, 11, 114
8, 61560, Control_c, 2, 11, 112
8, 61620, Control_c, 2, 11, 109
8, 61679, Note_on_c, 2, 74, 0
8, 61680, Control_c, 2, 11, 106
8, 61680, Note_on_c, 2, 72, 68
8, 61740, Control_c, 2, 11, 104
8, 61800, Control_c, 2, 11, 101
8, 61860, Control_c, 2, 11, 96
8, 61919, Note_on_c, 2, 67, 0
8, 61919, Note_on_c, 2, 72, 0
8, 65040, Note_on_c, 2, 73, 68
8, 65040, Note_on_c, 2, 65, 68
8, 65249, Note_on_c, 2, 73, 0
8, 65249, Note_on_c, 2, 65, 0
8, 65280, Note_on_c, 2, 65, 68
8, 65280, Note_on_c, 2, 73, 68
8, 65489, Note_on_c, 2, 65, 0
8, 65489, Note_on_c, 2, 73, 0
8, 65520, Note_on_c, 2, 73, 68
8, 65520, Note_on_c, 2, 65, 68
8, 65520, Control_c, 2, 11, 96
8, 65640, Control_c, 2, 11, 99
8, 65729, Note_on_c, 2, 73, 0
8, 65729, Note_on_c, 2, 65, 0
8, 65760, Control_c, 2, 11, 101
8, 65760, Note_on_c, 2, 73, 68
8, 65760, Note_on_c, 2, 66, 68
8, 65880, Control_c, 2, 11, 104
8, 65969, Note_on_c, 2, 73, 0
8, 65969, Note_on_c, 2, 66, 0
8, 66000, Note_on_c, 2, 66, 68
8, 66000, Control_c, 2, 11, 106
8, 66000, Note_on_c, 2, 73, 68
8, 66120, Control_c, 2, 11, 109
8, 66209, Note_on_c, 2, 66, 0
8, 66209, Note_on_c, 2, 73, 0
8, 66240, Note_on_c, 2, 73, 68
8, 66240, Note_on_c, 2, 66, 68
8, 66240, Control_c, 2, 11, 112
8, 66360, Control_c, 2, 11, 114
8, 66449, Note_on_c, 2, 73, 0
8, 66449, Note_on_c, 2, 66, 0
8, 66480, Note_on_c, 2, 66, 68
8, 66480, Control_c, 2, 11, 117
8, 66480, Note_on_c, 2, 73, 68
8, 66600, Control_c, 2, 11, 119
8, 66689, Note_on_c, 2, 66, 0
8, 66689, Note_on_c, 2, 73, 0
8, 66720, Control_c, 2, 11, 122
8, 66720, Note_on_c, 2, 73, 68
8, 66720, Note_on_c, 2, 66, 68
8, 66840, Control_c, 2, 11, 127
8, 66929, Note_on_c, 2, 73, 0
8, 66929, Note_on_c, 2, 66, 0
8, 66960, Control_c, 2, 11, 127
8, 66960, Note_on_c, 2, 73, 76
8, 66960, Note_on_c, 2, 66, 76
8, 67020, Control_c, 2, 11, 123
8, 67080, Control_c, 2, 11, 119
8, 67140, Control_c, 2, 11, 115
8, 67200, Control_c, 2, 11, 111
8, 67260, Control_c, 2, 11, 107
8, 67320, Control_c, 2, 11, 104
8, 67380, Control_c, 2, 11, 100
8, 67439, Note_on_c, 2, 73, 0
8, 67440, Note_on_c, 2, 72, 68
8, 67440, Control_c, 2, 11, 96
8, 67500, Control_c, 2, 11, 92
8, 67560, Control_c, 2, 11, 88
8, 67620, Control_c, 2, 11, 84
8, 67679, Note_on_c, 2, 66, 0
8, 67679, Note_on_c, 2, 72, 0
8, 69840, Control_c, 2, 11, 96
8, 70080, Note_on_c, 2, 70, 68
8, 70080, Note_on_c, 2, 72, 68
8, 70080, Control_c, 2, 11, 96
8, 70120, Control_c, 2, 11, 101
8, 70160, Control_c, 2, 11, 106
8, 70200, Control_c, 2, 11, 112
8, 70240, Control_c, 2, 11, 117
8, 70280, Control_c, 2, 11, 122
8, 70289, Note_on_c, 2, 70, 0
8, 70289, Note_on_c, 2, 72, 0
8, 70320, Note_on_c, 2, 70, 68
8, 70320, Note_on_c, 2, 72, 68
8, 70320, Control_c, 2, 11, 127
8, 70360, Control_c, 2, 11, 122
8, 70400, Control_c, 2, 11, 117
8, 70440, Control_c, 2, 11, 112
8, 70480, Control_c, 2, 11, 106
8, 70520, Control_c, 2, 11, 101
8, 70529, Note_on_c, 2, 70, 0
8, 70529, Note_on_c, 2, 72, 0
8, 70560, Note_on_c, 2, 69, 68
8, 70560, Note_on_c, 2, 72, 68
8, 70799, Note_on_c, 2, 69, 0
8, 70799, Note_on_c, 2, 72, 0
8, 76560, Control_c, 2, 11, 127
8, 76800, Note_on_c, 2, 60, 52
8, 76800, Note_on_c, 2, 63, 52
8, 76889, Note_on_c, 2, 60, 0
8, 76889, Note_on_c, 2, 63, 0
8, 76920, Note_on_c, 2, 65, 55
8, 76920, Note_on_c, 2, 62, 55
8, 77009, Note_on_c, 2, 65, 0
8, 77009, Note_on_c, 2, 62, 0
8, 77040, Note_on_c, 2, 67, 58
8, 77040, Note_on_c, 2, 63, 58
8, 77129, Note_on_c, 2, 67, 0
8, 77129, Note_on_c, 2, 63, 0
8, 77160, Note_on_c, 2, 65, 61
8, 77160, Note_on_c, 2, 69, 61
8, 77249, Note_on_c, 2, 65, 0
8, 77249, Note_on_c, 2, 69, 0
8, 77280, Note_on_c, 2, 70, 64
8, 77280, Note_on_c, 2, 67, 64
8, 77369, Note_on_c, 2, 70, 0
8, 77369, Note_on_c, 2, 67, 0
8, 77400, Note_on_c, 2, 72, 67
8, 77400, Note_on_c, 2, 69, 67
8, 77489, Note_on_c, 2, 72, 0
8, 77489, Note_on_c, 2, 69, 0
8, 77520, Note_on_c, 2, 70, 70
8, 77520, Note_on_c, 2, 74, 70
8, 77609, Note_on_c, 2, 70, 0
8, 77609, Note_on_c, 2, 74, 0
8, 77640, Note_on_c, 2, 75, 73
8, 77640, Note_on_c, 2, 72, 73
8, 77729, Note_on_c, 2, 75, 0
8, 77729, Note_on_c, 2, 72, 0
8, 77760, Note_on_c, 2, 77, 76
8, 77760, Note_on_c, 2, 74, 76
8, 77984, Note_on_c, 2, 77, 0
8, 77984, Note_on_c, 2, 74, 0
8, 78000, Note_on_c, 2, 70, 84
8, 78000, Note_on_c, 2, 65, 84
8, 78479, Note_on_c, 2, 70, 0
8, 78479, Note_on_c, 2, 65, 0
8, 78720, Note_on_c, 2, 65, 84
8, 78720, Note_on_c, 2, 70, 84
8, 79199, Note_on_c, 2, 65, 0
8, 79199, Note_on_c, 2, 70, 0
8, 79440, Note_on_c, 2, 72, 84
8, 79440, Note_on_c, 2, 65, 84
8, 79919, Note_on_c, 2, 72, 0
8, 79919, Note_on_c, 2, 65, 0
8, 80160, Note_on_c, 2, 65, 84
8, 80160, Note_on_c, 2, 72, 84
8, 80384, Note_on_c, 2, 65, 0
8, 80384, Note_on_c, 2, 72, 0
8, 80400, Note_on_c, 2, 65, 76
8, 80400, Note_on_c, 2, 72, 76
8, 80624, Note_on_c, 2, 65, 0
8, 80624, Note_on_c, 2, 72, 0
8, 80640, Note_on_c, 2, 65, 84
8, 80640, Note_on_c, 2, 74, 84
8, 80819, Note_on_c, 2, 65, 0
8, 80819, Note_on_c, 2, 74, 0
8, 80880, Note_on_c, 2, 77, 92
8, 81224, Note_on_c, 2, 77, 0
8, 81240, Note_on_c, 2, 74, 84
8, 81344, Note_on_c, 2, 74, 0
8, 81360, Note_on_c, 2, 70, 84
8, 81539, Note_on_c, 2, 70, 0
8, 81600, Note_on_c, 2, 74, 92
8, 81944, Note_on_c, 2, 74, 0
8, 81960, Note_on_c, 2, 65, 84
8, 82064, Note_on_c, 2, 65, 0
8, 82080, Note_on_c, 2, 72, 84
8, 82259, Note_on_c, 2, 72, 0
8, 82320, Note_on_c, 2, 75, 92
8, 82664, Note_on_c, 2, 75, 0
8, 82680, Note_on_c, 2, 65, 84
8, 82784, Note_on_c, 2, 65, 0
8, 82800, Note_on_c, 2, 69, 84
8, 83024, Note_on_c, 2, 69, 0
8, 83040, Note_on_c, 2, 72, 92
8, 83384, Note_on_c, 2, 72, 0
8, 83400, Note_on_c, 2, 65, 84
8, 83504, Note_on_c, 2, 65, 0
8, 83520, Note_on_c, 2, 70, 84
8, 83520, Note_on_c, 2, 65, 84
8, 84119, Note_on_c, 2, 65, 0
8, 84120, Note_on_c, 2, 64, 84
8, 84239, Note_on_c, 2, 64, 0
8, 84240, Note_on_c, 2, 65, 84
8, 84359, Note_on_c, 2, 70, 0
8, 84359, Note_on_c, 2, 65, 0
8, 87480, Note_on_c, 2, 67, 84
8, 87569, Note_on_c, 2, 67, 0
8, 87600, Note_on_c, 2, 67, 84
8, 87689, Note_on_c, 2, 67, 0
8, 87720, Note_on_c, 2, 67, 84
8, 87809, Note_on_c, 2, 67, 0
8, 87840, Note_on_c, 2, 66, 84
8, 87840, Note_on_c, 2, 69, 84
8, 88019, Note_on_c, 2, 66, 0
8, 88019, Note_on_c, 2, 69, 0
8, 88080, Note_on_c, 2, 72, 84
8, 88080, Note_on_c, 2, 69, 84
8, 88259, Note_on_c, 2, 72, 0
8, 88259, Note_on_c, 2, 69, 0
8, 88320, Note_on_c, 2, 70, 84
8, 88320, Note_on_c, 2, 67, 84
8, 88499, Note_on_c, 2, 70, 0
8, 88499, Note_on_c, 2, 67, 0
8, 88800, Note_on_c, 2, 65, 84
8, 88800, Note_on_c, 2, 68, 84
8, 88979, Note_on_c, 2, 65, 0
8, 88979, Note_on_c, 2, 68, 0
8, 89040, Note_on_c, 2, 63, 84
8, 89040, Note_on_c, 2, 67, 84
8, 89219, Note_on_c, 2, 63, 0
8, 89219, Note_on_c, 2, 67, 0
8, 89520, Note_on_c, 2, 67, 84
8, 89520, Note_on_c, 2, 70, 84
8, 89699, Note_on_c, 2, 67, 0
8, 89699, Note_on_c, 2, 70, 0
8, 89760, Note_on_c, 2, 65, 84
8, 89760, Note_on_c, 2, 69, 84
8, 89939, Note_on_c, 2, 65, 0
8, 89939, Note_on_c, 2, 69, 0
8, 90240, Note_on_c, 2, 72, 84
8, 90240, Note_on_c, 2, 69, 84
8, 90419, Note_on_c, 2, 72, 0
8, 90419, Note_on_c, 2, 69, 0
8, 90480, Note_on_c, 2, 67, 84
8, 90480, Note_on_c, 2, 70, 84
8, 90659, Note_on_c, 2, 67, 0
8, 90659, Note_on_c, 2, 70, 0
8, 90960, Note_on_c, 2, 65, 84
8, 90960, Note_on_c, 2, 68, 84
8, 91139, Note_on_c, 2, 65, 0
8, 91139, Note_on_c, 2, 68, 0
8, 91200, Note_on_c, 2, 67, 84
8, 91200, Note_on_c, 2, 63, 84
8, 91379, Note_on_c, 2, 67, 0
8, 91379, Note_on_c, 2, 63, 0
8, 91680, Note_on_c, 2, 67, 92
8, 91680, Note_on_c, 2, 70, 92
8, 91859, Note_on_c, 2, 67, 0
8, 91859, Note_on_c, 2, 70, 0
8, 92160, Note_on_c, 2, 67, 92
8, 92160, Note_on_c, 2, 70, 92
8, 92339, Note_on_c, 2, 67, 0
8, 92339, Note_on_c, 2, 70, 0
8, 92640, Note_on_c, 2, 70, 92
8, 92640, Note_on_c, 2, 67, 92
8, 92819, Note_on_c, 2, 70, 0
8, 92819, Note_on_c, 2, 67, 0
8, 93120, Note_on_c, 2, 70, 92
8, 93120, Note_on_c, 2, 67, 92
8, 93299, Note_on_c, 2, 70, 0
8, 93299, Note_on_c, 2, 67, 0
8, 93600, Note_on_c, 2, 67, 92
8, 93600, Note_on_c, 2, 70, 92
8, 93779, Note_on_c, 2, 67, 0
8, 93779, Note_on_c, 2, 70, 0
8, 94080, Note_on_c, 2, 70, 92
8, 94080, Note_on_c, 2, 67, 92
8, 94259, Note_on_c, 2, 70, 0
8, 94259, Note_on_c, 2, 67, 0
8, 97440, Note_on_c, 2, 70, 52
8, 97440, Note_on_c, 2, 73, 52
8, 97619, Note_on_c, 2, 70, 0
8, 97619, Note_on_c, 2, 73, 0
8, 97920, Note_on_c, 2, 72, 52
8, 97920, Note_on_c, 2, 68, 52
8, 98099, Note_on_c, 2, 72, 0
8, 98099, Note_on_c, 2, 68, 0
8, 98400, Note_on_c, 2, 68, 52
8, 98400, Note_on_c, 2, 72, 52
8, 98579, Note_on_c, 2, 68, 0
8, 98579, Note_on_c, 2, 72, 0
8, 98880, Note_on_c, 2, 75, 52
8, 98880, Note_on_c, 2, 72, 52
8, 99059, Note_on_c, 2, 75, 0
8, 99059, Note_on_c, 2, 72, 0
8, 99360, Note_on_c, 2, 74, 52
8, 99360, Note_on_c, 2, 70, 52
8, 99539, Note_on_c, 2, 74, 0
8, 99539, Note_on_c, 2, 70, 0
8, 99825, Control_c, 2, 11, 64
8, 99840, Note_on_c, 2, 70, 84
8, 99840, Note_on_c, 2, 74, 84
8, 100019, Note_on_c, 2, 70, 0
8, 100019, Note_on_c, 2, 74, 0
8, 100080, Control_c, 2, 11, 64
8, 100080, Note_on_c, 2, 67, 84
8, 100170, Control_c, 2, 11, 67
8, 100260, Control_c, 2, 11, 69
8, 100350, Control_c, 2, 11, 72
8, 100440, Control_c, 2, 11, 75
8, 100530, Control_c, 2, 11, 77
8, 100620, Control_c, 2, 11, 80
8, 100710, Control_c, 2, 11, 82
8, 100800, Note_on_c, 2, 63, 84
8, 100800, Control_c, 2, 11, 85
8, 100890, Control_c, 2, 11, 88
8, 100980, Control_c, 2, 11, 90
8, 101070, Control_c, 2, 11, 93
8, 101144, Note_on_c, 2, 67, 0
8, 101144, Note_on_c, 2, 63, 0
8, 101160, Note_on_c, 2, 67, 84
8, 101160, Control_c, 2, 11, 96
8, 101160, Note_on_c, 2, 72, 84
8, 101250, Control_c, 2, 11, 98
8, 101279, Note_on_c, 2, 67, 0
8, 101279, Note_on_c, 2, 72, 0
8, 101280, Note_on_c, 2, 65, 84
8, 101280, Note_on_c, 2, 71, 84
8, 101340, Control_c, 2, 11, 101
8, 101399, Note_on_c, 2, 65, 0
8, 101399, Note_on_c, 2, 71, 0
8, 101400, Note_on_c, 2, 63, 84
8, 101400, Note_on_c, 2, 72, 84
8, 101430, Control_c, 2, 11, 103
8, 101504, Note_on_c, 2, 63, 0
8, 101504, Note_on_c, 2, 72, 0
8, 101520, Control_c, 2, 11, 106
8, 101520, Note_on_c, 2, 70, 84
8, 101520, Note_on_c, 2, 62, 84
8, 101610, Control_c, 2, 11, 109
8, 101624, Note_on_c, 2, 70, 0
8, 101624, Note_on_c, 2, 62, 0
8, 101640, Note_on_c, 2, 74, 84
8, 101640, Note_on_c, 2, 70, 84
8, 101700, Control_c, 2, 11, 111
8, 101744, Note_on_c, 2, 74, 0
8, 101744, Note_on_c, 2, 70, 0
8, 101760, Note_on_c, 2, 77, 84
8, 101760, Note_on_c, 2, 74, 84
8, 101790, Control_c, 2, 11, 114
8, 101864, Note_on_c, 2, 77, 0
8, 101864, Note_on_c, 2, 74, 0
8, 101880, Control_c, 2, 11, 117
8, 101880, Note_on_c, 2, 74, 84
8, 101880, Note_on_c, 2, 70, 84
8, 101970, Control_c, 2, 11, 119
8, 101984, Note_on_c, 2, 74, 0
8, 101984, Note_on_c, 2, 70, 0
8, 102000, Note_on_c, 2, 70, 84
8, 102000, Note_on_c, 2, 74, 84
8, 102060, Control_c, 2, 11, 122
8, 102104, Note_on_c, 2, 70, 0
8, 102104, Note_on_c, 2, 74, 0
8, 102120, Note_on_c, 2, 70, 84
8, 102120, Note_on_c, 2, 74, 84
8, 102150, Control_c, 2, 11, 127
8, 102224, Note_on_c, 2, 70, 0
8, 102224, Note_on_c, 2, 74, 0
8, 102240, Note_on_c, 2, 69, 84
8, 102240, Note_on_c, 2, 75, 84
8, 102944, Note_on_c, 2, 69, 0
8, 102944, Note_on_c, 2, 75, 0
8, 102960, Note_on_c, 2, 74, 76
8, 102960, Note_on_c, 2, 70, 76
8, 103139, Note_on_c, 2, 74, 0
8, 103139, Note_on_c, 2, 70, 0
8, 103680, Note_on_c, 2, 70, 76
8, 103859, Note_on_c, 2, 70, 0
8, 104400, Note_on_c, 2, 70, 76
8, 104579, Note_on_c, 2, 70, 0
8, 105120, Note_on_c, 2, 75, 76
8, 105120, Note_on_c, 2, 66, 76
8, 105299, Note_on_c, 2, 75, 0
8, 105299, Note_on_c, 2, 66, 0
8, 105360, Note_on_c, 2, 75, 76
8, 105360, Note_on_c, 2, 66, 76
8, 105539, Note_on_c, 2, 75, 0
8, 105539, Note_on_c, 2, 66, 0
8, 105600, Note_on_c, 2, 75, 76
8, 105600, Note_on_c, 2, 66, 76
8, 105779, Note_on_c, 2, 75, 0
8, 105779, Note_on_c, 2, 66, 0
8, 105840, Note_on_c, 2, 74, 76
8, 105840, Note_on_c, 2, 65, 76
8, 106079, Note_on_c, 2, 74, 0
8, 106079, Note_on_c, 2, 65, 0
8, 109920, Note_on_c, 2, 74, 68
8, 109920, Note_on_c, 2, 68, 68
8, 110040, Control_c, 2, 11, 96
8, 110159, Note_on_c, 2, 74, 0
8, 110159, Note_on_c, 2, 68, 0
8, 110160, Note_on_c, 2, 67, 68
8, 110160, Note_on_c, 2, 75, 68
8, 110399, Note_on_c, 2, 67, 0
8, 110399, Note_on_c, 2, 75, 0
8, 117840, Note_on_c, 2, 70, 68
8, 118080, Control_c, 2, 11, 96
8, 118140, Control_c, 2, 11, 99
8, 118200, Control_c, 2, 11, 101
8, 118260, Control_c, 2, 11, 104
8, 118319, Note_on_c, 2, 70, 0
8, 118320, Note_on_c, 2, 72, 68
8, 118320, Control_c, 2, 11, 106
8, 118380, Control_c, 2, 11, 109
8, 118440, Control_c, 2, 11, 112
8, 118500, Control_c, 2, 11, 114
8, 118559, Note_on_c, 2, 72, 0
8, 118560, Control_c, 2, 11, 117
8, 118560, Note_on_c, 2, 74, 68
8, 118620, Control_c, 2, 11, 119
8, 118680, Control_c, 2, 11, 122
8, 118740, Control_c, 2, 11, 124
8, 118784, Note_on_c, 2, 74, 0
8, 118800, Control_c, 2, 11, 127
8, 118800, Note_on_c, 2, 75, 52
8, 119279, Note_on_c, 2, 75, 0
8, 119280, Note_on_c, 2, 79, 52
8, 119519, Note_on_c, 2, 79, 0
8, 119520, Note_on_c, 2, 75, 52
8, 119999, Note_on_c, 2, 75, 0
8, 120000, Note_on_c, 2, 70, 52
8, 120224, Note_on_c, 2, 70, 0
8, 120240, Note_on_c, 2, 75, 52
8, 120479, Note_on_c, 2, 75, 0
8, 120480, Note_on_c, 2, 79, 52
8, 120719, Note_on_c, 2, 79, 0
8, 120720, Note_on_c, 2, 82, 52
8, 120959, Note_on_c, 2, 82, 0
8, 120960, Note_on_c, 2, 75, 52
8, 121199, Note_on_c, 2, 75, 0
8, 122640, Control_c, 2, 11, 80
8, 122880, Note_on_c, 2, 67, 76
8, 123119, Note_on_c, 2, 67, 0
8, 123120, Note_on_c, 2, 68, 76
8, 123359, Note_on_c, 2, 68, 0
8, 123360, Note_on_c, 2, 72, 76
8, 123599, Note_on_c, 2, 72, 0
8, 123600, Note_on_c, 2, 75, 76
8, 123824, Note_on_c, 2, 75, 0
8, 123840, Control_c, 2, 11, 80
8, 123840, Note_on_c, 2, 68, 76
8, 123900, Control_c, 2, 11, 84
8, 123960, Control_c, 2, 11, 88
8, 124020, Control_c, 2, 11, 92
8, 124080, Control_c, 2, 11, 96
8, 124080, Note_on_c, 2, 63, 76
8, 124140, Control_c, 2, 11, 100
8, 124200, Control_c, 2, 11, 104
8, 124260, Control_c, 2, 11, 107
8, 124304, Note_on_c, 2, 63, 0
8, 124319, Note_on_c, 2, 68, 0
8, 124320, Note_on_c, 2, 63, 76
8, 124320, Note_on_c, 2, 69, 76
8, 124320, Control_c, 2, 11, 111
8, 124380, Control_c, 2, 11, 115
8, 124440, Control_c, 2, 11, 119
8, 124500, Control_c, 2, 11, 123
8, 124544, Note_on_c, 2, 63, 0
8, 124559, Note_on_c, 2, 69, 0
8, 124560, Control_c, 2, 11, 127
8, 124560, Note_on_c, 2, 70, 76
8, 124680, Control_c, 2, 11, 80
8, 125024, Note_on_c, 2, 70, 0
8, 125040, Note_on_c, 2, 77, 76
8, 125040, Note_on_c, 2, 65, 76
8, 125279, Note_on_c, 2, 77, 0
8, 125279, Note_on_c, 2, 65, 0
8, 125280, Note_on_c, 2, 62, 76
8, 125280, Note_on_c, 2, 74, 76
8, 125519, Note_on_c, 2, 62, 0
8, 125519, Note_on_c, 2, 74, 0
8, 125520, Note_on_c, 2, 58, 76
8, 125520, Note_on_c, 2, 70, 76
8, 125759, Note_on_c, 2, 58, 0
8, 125759, Note_on_c, 2, 70, 0
8, 125760, Note_on_c, 2, 77, 76
8, 125760, Note_on_c, 2, 68, 76
8, 125984, Note_on_c, 2, 77, 0
8, 125984, Note_on_c, 2, 68, 0
8, 126000, Note_on_c, 2, 67, 76
8, 126000, Note_on_c, 2, 75, 76
8, 126179, Note_on_c, 2, 67, 0
8, 126179, Note_on_c, 2, 75, 0
8, 126225, Control_c, 2, 11, 127
8, 126240, Note_on_c, 2, 66, 76
8, 126240, Note_on_c, 2, 75, 76
8, 126689, Note_on_c, 2, 66, 0
8, 126689, Note_on_c, 2, 75, 0
8, 126720, Note_on_c, 2, 66, 76
8, 126720, Note_on_c, 2, 75, 76
8, 127169, Note_on_c, 2, 66, 0
8, 127169, Note_on_c, 2, 75, 0
8, 127200, Note_on_c, 2, 66, 76
8, 127200, Note_on_c, 2, 75, 76
8, 127409, Note_on_c, 2, 66, 0
8, 127409, Note_on_c, 2, 75, 0
8, 127440, Note_on_c, 2, 74, 76
8, 127440, Note_on_c, 2, 65, 76
8, 127560, Control_c, 2, 11, 80
8, 127619, Note_on_c, 2, 74, 0
8, 127619, Note_on_c, 2, 65, 0
8, 127680, Note_on_c, 2, 82, 76
8, 127680, Note_on_c, 2, 70, 76
8, 127919, Note_on_c, 2, 82, 0
8, 127919, Note_on_c, 2, 70, 0
8, 127920, Note_on_c, 2, 65, 76
8, 127920, Note_on_c, 2, 77, 76
8, 128159, Note_on_c, 2, 65, 0
8, 128159, Note_on_c, 2, 77, 0
8, 128160, Note_on_c, 2, 74, 76
8, 128160, Note_on_c, 2, 62, 76
8, 128399, Note_on_c, 2, 74, 0
8, 128399, Note_on_c, 2, 62, 0
8, 128400, Note_on_c, 2, 70, 76
8, 128400, Note_on_c, 2, 58, 76
8, 128609, Note_on_c, 2, 70, 0
8, 128609, Note_on_c, 2, 58, 0
8, 128625, Control_c, 2, 11, 127
8, 128640, Note_on_c, 2, 65, 76
8, 128640, Note_on_c, 2, 70, 76
8, 129089, Note_on_c, 2, 65, 0
8, 129089, Note_on_c, 2, 70, 0
8, 129120, Note_on_c, 2, 65, 76
8, 129120, Note_on_c, 2, 74, 76
8, 129569, Note_on_c, 2, 65, 0
8, 129569, Note_on_c, 2, 74, 0
8, 129600, Note_on_c, 2, 65, 76
8, 129600, Note_on_c, 2, 74, 76
8, 130049, Note_on_c, 2, 65, 0
8, 130049, Note_on_c, 2, 74, 0
8, 130080, Note_on_c, 2, 74, 76
8, 130080, Note_on_c, 2, 65, 76
8, 130529, Note_on_c, 2, 74, 0
8, 130529, Note_on_c, 2, 65, 0
8, 130560, Note_on_c, 2, 67, 76
8, 130560, Note_on_c, 2, 75, 76
8, 131009, Note_on_c, 2, 67, 0
8, 131009, Note_on_c, 2, 75, 0
8, 131040, Note_on_c, 2, 67, 76
8, 131040, Note_on_c, 2, 75, 76
8, 131489, Note_on_c, 2, 67, 0
8, 131489, Note_on_c, 2, 75, 0
8, 131520, Note_on_c, 2, 75, 76
8, 131520, Note_on_c, 2, 67, 76
8, 131969, Note_on_c, 2, 75, 0
8, 131969, Note_on_c, 2, 67, 0
8, 132000, Note_on_c, 2, 65, 52
8, 132000, Note_on_c, 2, 74, 52
8, 132179, Note_on_c, 2, 65, 0
8, 132179, Note_on_c, 2, 74, 0
8, 132240, Note_on_c, 2, 74, 76
8, 132240, Note_on_c, 2, 65, 76
8, 132479, Note_on_c, 2, 65, 0
8, 132480, Note_on_c, 2, 70, 76
8, 132689, Note_on_c, 2, 74, 0
8, 132689, Note_on_c, 2, 70, 0
8, 132720, Note_on_c, 2, 70, 52
8, 132720, Note_on_c, 2, 75, 52
8, 132899, Note_on_c, 2, 70, 0
8, 132899, Note_on_c, 2, 75, 0
8, 132960, Note_on_c, 2, 70, 76
8, 132960, Note_on_c, 2, 75, 76
8, 133199, Note_on_c, 2, 75, 0
8, 133200, Note_on_c, 2, 74, 52
8, 133409, Note_on_c, 2, 70, 0
8, 133409, Note_on_c, 2, 74, 0
8, 133440, Note_on_c, 2, 58, 52
8, 133529, Note_on_c, 2, 58, 0
8, 133560, Note_on_c, 2, 60, 55
8, 133649, Note_on_c, 2, 60, 0
8, 133680, Note_on_c, 2, 62, 58
8, 133769, Note_on_c, 2, 62, 0
8, 133800, Note_on_c, 2, 63, 61
8, 133889, Note_on_c, 2, 63, 0
8, 133920, Note_on_c, 2, 65, 64
8, 134009, Note_on_c, 2, 65, 0
8, 134040, Note_on_c, 2, 67, 68
8, 134129, Note_on_c, 2, 67, 0
8, 134160, Note_on_c, 2, 68, 71
8, 134249, Note_on_c, 2, 68, 0
8, 134280, Note_on_c, 2, 70, 74
8, 134369, Note_on_c, 2, 70, 0
8, 134400, Note_on_c, 2, 72, 77
8, 134489, Note_on_c, 2, 72, 0
8, 134520, Note_on_c, 2, 74, 80
8, 134609, Note_on_c, 2, 74, 0
8, 134640, Note_on_c, 2, 75, 84
8, 135119, Note_on_c, 2, 75, 0
8, 135120, Note_on_c, 2, 79, 84
8, 135359, Note_on_c, 2, 79, 0
8, 135360, Note_on_c, 2, 75, 84
8, 135839, Note_on_c, 2, 75, 0
8, 135840, Note_on_c, 2, 70, 84
8, 136064, Note_on_c, 2, 70, 0
8, 136080, Note_on_c, 2, 75, 84
8, 136319, Note_on_c, 2, 75, 0
8, 136320, Note_on_c, 2, 79, 84
8, 136559, Note_on_c, 2, 79, 0
8, 136560, Note_on_c, 2, 82, 84
8, 136784, Note_on_c, 2, 82, 0
8, 136800, Note_on_c, 2, 75, 84
8, 137264, Note_on_c, 2, 75, 0
8, 137280, Note_on_c, 2, 79, 92
8, 137280, Note_on_c, 2, 75, 92
8, 137744, Note_on_c, 2, 79, 0
8, 137744, Note_on_c, 2, 75, 0
8, 137760, Note_on_c, 2, 75, 84
8, 137760, Note_on_c, 2, 79, 84
8, 137984, Note_on_c, 2, 75, 0
8, 137984, Note_on_c, 2, 79, 0
8, 138000, Note_on_c, 2, 75, 84
8, 138000, Note_on_c, 2, 79, 84
8, 138224, Note_on_c, 2, 75, 0
8, 138224, Note_on_c, 2, 79, 0
8, 138240, Note_on_c, 2, 79, 84
8, 138240, Note_on_c, 2, 75, 84
8, 138704, Note_on_c, 2, 75, 0
8, 138720, Note_on_c, 2, 73, 92
8, 138944, Note_on_c, 2, 79, 0
8, 138944, Note_on_c, 2, 73, 0
8, 138960, Note_on_c, 2, 80, 84
8, 138960, Note_on_c, 2, 72, 84
8, 139199, Note_on_c, 2, 80, 0
8, 139200, Note_on_c, 2, 75, 84
8, 139424, Note_on_c, 2, 75, 0
8, 139440, Note_on_c, 2, 75, 84
8, 139664, Note_on_c, 2, 75, 0
8, 139680, Note_on_c, 2, 76, 84
8, 139799, Note_on_c, 2, 72, 0
8, 139800, Note_on_c, 2, 70, 84
8, 139919, Note_on_c, 2, 70, 0
8, 139920, Note_on_c, 2, 69, 84
8, 140039, Note_on_c, 2, 69, 0
8, 140040, Note_on_c, 2, 70, 84
8, 140159, Note_on_c, 2, 70, 0
8, 140160, Note_on_c, 2, 72, 84
8, 140279, Note_on_c, 2, 72, 0
8, 140280, Note_on_c, 2, 70, 84
8, 140399, Note_on_c, 2, 76, 0
8, 140399, Note_on_c, 2, 70, 0
8, 140400, Note_on_c, 2, 77, 84
8, 140400, Note_on_c, 2, 69, 84
8, 140639, Note_on_c, 2, 77, 0
8, 140639, Note_on_c, 2, 69, 0
8, 141360, Note_on_c, 2, 77, 48
8, 141719, Note_on_c, 2, 77, 0
8, 141720, Note_on_c, 2, 75, 48
8, 141839, Note_on_c, 2, 75, 0
8, 141840, Note_on_c, 2, 72, 48
8, 142079, Note_on_c, 2, 72, 0
8, 144240, Note_on_c, 2, 77, 48
8, 144599, Note_on_c, 2, 77, 0
8, 144600, Note_on_c, 2, 74, 48
8, 144719, Note_on_c, 2, 74, 0
8, 144720, Note_on_c, 2, 70, 48
8, 144959, Note_on_c, 2, 70, 0
8, 147120, Note_on_c, 2, 78, 68
8, 147479, Note_on_c, 2, 78, 0
8, 147480, Note_on_c, 2, 77, 52
8, 147599, Note_on_c, 2, 77, 0
8, 147600, Note_on_c, 2, 75, 52
8, 147839, Note_on_c, 2, 75, 0
8, 147840, Note_on_c, 2, 79, 84
8, 147840, Note_on_c, 2, 67, 84
8, 148184, Note_on_c, 2, 79, 0
8, 148184, Note_on_c, 2, 67, 0
8, 148200, Note_on_c, 2, 77, 84
8, 148200, Note_on_c, 2, 65, 84
8, 148304, Note_on_c, 2, 77, 0
8, 148304, Note_on_c, 2, 65, 0
8, 148320, Note_on_c, 2, 63, 84
8, 148320, Note_on_c, 2, 75, 84
8, 148499, Note_on_c, 2, 63, 0
8, 148499, Note_on_c, 2, 75, 0
8, 148560, Note_on_c, 2, 62, 84
8, 148560, Note_on_c, 2, 74, 84
8, 148739, Note_on_c, 2, 62, 0
8, 148739, Note_on_c, 2, 74, 0
8, 148800, Note_on_c, 2, 60, 84
8, 148800, Note_on_c, 2, 72, 84
8, 148979, Note_on_c, 2, 60, 0
8, 148979, Note_on_c, 2, 72, 0
8, 149025, Control_c, 2, 11, 96
8, 149040, Control_c, 2, 11, 96
8, 149040, Note_on_c, 2, 62, 68
8, 149040, Note_on_c, 2, 58, 68
8, 149100, Control_c, 2, 11, 99
8, 149160, Control_c, 2, 11, 101
8, 149220, Control_c, 2, 11, 104
8, 149280, Control_c, 2, 11, 106
8, 149340, Control_c, 2, 11, 109
8, 149400, Control_c, 2, 11, 112
8, 149460, Control_c, 2, 11, 114
8, 149519, Note_on_c, 2, 62, 0
8, 149519, Note_on_c, 2, 58, 0
8, 149520, Control_c, 2, 11, 117
8, 149520, Note_on_c, 2, 60, 68
8, 149520, Note_on_c, 2, 63, 68
8, 149580, Control_c, 2, 11, 119
8, 149639, Note_on_c, 2, 60, 0
8, 149639, Note_on_c, 2, 63, 0
8, 149640, Control_c, 2, 11, 122
8, 149640, Note_on_c, 2, 62, 68
8, 149640, Note_on_c, 2, 65, 68
8, 149700, Control_c, 2, 11, 124
8, 149759, Note_on_c, 2, 62, 0
8, 149759, Note_on_c, 2, 65, 0
8, 149760, Note_on_c, 2, 67, 68
8, 149760, Note_on_c, 2, 63, 68
8, 149760, Control_c, 2, 11, 127
8, 149820, Control_c, 2, 11, 124
8, 149880, Control_c, 2, 11, 122
8, 149940, Control_c, 2, 11, 119
8, 149999, Note_on_c, 2, 67, 0
8, 149999, Note_on_c, 2, 63, 0
8, 150000, Control_c, 2, 11, 117
8, 150000, Note_on_c, 2, 65, 68
8, 150000, Note_on_c, 2, 69, 68
8, 150060, Control_c, 2, 11, 114
8, 150120, Control_c, 2, 11, 112
8, 150180, Control_c, 2, 11, 109
8, 150239, Note_on_c, 2, 65, 0
8, 150239, Note_on_c, 2, 69, 0
8, 150240, Control_c, 2, 11, 106
8, 150240, Note_on_c, 2, 70, 68
8, 150240, Note_on_c, 2, 67, 68
8, 150300, Control_c, 2, 11, 104
8, 150360, Control_c, 2, 11, 101
8, 150420, Control_c, 2, 11, 96
8, 150464, Note_on_c, 2, 70, 0
8, 150464, Note_on_c, 2, 67, 0
8, 150480, Note_on_c, 2, 70, 68
8, 150480, Note_on_c, 2, 65, 68
8, 150824, Note_on_c, 2, 70, 0
8, 150824, Note_on_c, 2, 65, 0
8, 150840, Note_on_c, 2, 53, 68
8, 150840, Note_on_c, 2, 58, 68
8, 150959, Note_on_c, 2, 53, 0
8, 150959, Note_on_c, 2, 58, 0
8, 150960, Note_on_c, 2, 60, 68
8, 150960, Note_on_c, 2, 57, 68
8, 151079, Note_on_c, 2, 60, 0
8, 151079, Note_on_c, 2, 57, 0
8, 151080, Note_on_c, 2, 62, 68
8, 151080, Note_on_c, 2, 58, 68
8, 151184, Note_on_c, 2, 62, 0
8, 151184, Note_on_c, 2, 58, 0
8, 151200, Note_on_c, 2, 63, 68
8, 151200, Note_on_c, 2, 60, 68
8, 151409, Note_on_c, 2, 63, 0
8, 151409, Note_on_c, 2, 60, 0
8, 151440, Note_on_c, 2, 60, 68
8, 151440, Note_on_c, 2, 63, 68
8, 151649, Note_on_c, 2, 60, 0
8, 151649, Note_on_c, 2, 63, 0
8, 151680, Note_on_c, 2, 60, 68
8, 151680, Note_on_c, 2, 63, 68
8, 151889, Note_on_c, 2, 60, 0
8, 151889, Note_on_c, 2, 63, 0
8, 151920, Note_on_c, 2, 62, 68
8, 151920, Note_on_c, 2, 58, 68
8, 152159, Note_on_c, 2, 62, 0
8, 152159, Note_on_c, 2, 58, 0
8, 154560, Control_c, 2, 11, 127
8, 154800, Note_on_c, 2, 75, 76
8, 154800, Note_on_c, 2, 69, 76
8, 154979, Note_on_c, 2, 75, 0
8, 154979, Note_on_c, 2, 69, 0
8, 155040, Note_on_c, 2, 75, 76
8, 155040, Note_on_c, 2, 69, 76
8, 155219, Note_on_c, 2, 75, 0
8, 155219, Note_on_c, 2, 69, 0
8, 156120, Note_on_c, 2, 69, 76
8, 156120, Note_on_c, 2, 72, 76
8, 156209, Note_on_c, 2, 69, 0
8, 156209, Note_on_c, 2, 72, 0
8, 156240, Note_on_c, 2, 70, 76
8, 156419, Note_on_c, 2, 70, 0
8, 156480, Note_on_c, 2, 70, 76
8, 156659, Note_on_c, 2, 70, 0
8, 157560, Note_on_c, 2, 74, 76
8, 157560, Note_on_c, 2, 70, 76
8, 157649, Note_on_c, 2, 74, 0
8, 157649, Note_on_c, 2, 70, 0
8, 157680, Note_on_c, 2, 71, 76
8, 157680, Note_on_c, 2, 74, 76
8, 157859, Note_on_c, 2, 71, 0
8, 157859, Note_on_c, 2, 74, 0
8, 157920, Note_on_c, 2, 74, 76
8, 157920, Note_on_c, 2, 71, 76
8, 158099, Note_on_c, 2, 74, 0
8, 158099, Note_on_c, 2, 71, 0
8, 159360, Note_on_c, 2, 72, 76
8, 159600, Note_on_c, 2, 74, 76
8, 159824, Note_on_c, 2, 72, 0
8, 159840, Note_on_c, 2, 70, 76
8, 159944, Note_on_c, 2, 74, 0
8, 159960, Note_on_c, 2, 75, 76
8, 160064, Note_on_c, 2, 70, 0
8, 160079, Note_on_c, 2, 75, 0
8, 160080, Note_on_c, 2, 75, 76
8, 160320, Note_on_c, 2, 77, 76
8, 160544, Note_on_c, 2, 75, 0
8, 160544, Note_on_c, 2, 77, 0
8, 160560, Note_on_c, 2, 77, 76
8, 160560, Note_on_c, 2, 74, 76
8, 160799, Note_on_c, 2, 77, 0
8, 160799, Note_on_c, 2, 74, 0
8, 161760, Note_on_c, 2, 70, 76
8, 161760, Note_on_c, 2, 78, 76
8, 161999, Note_on_c, 2, 78, 0
8, 162000, Note_on_c, 2, 79, 76
8, 162119, Note_on_c, 2, 79, 0
8, 162120, Note_on_c, 2, 78, 76
8, 162239, Note_on_c, 2, 78, 0
8, 162240, Note_on_c, 2, 79, 76
8, 162359, Note_on_c, 2, 79, 0
8, 162360, Note_on_c, 2, 78, 76
8, 162479, Note_on_c, 2, 70, 0
8, 162479, Note_on_c, 2, 78, 0
8, 162480, Note_on_c, 2, 71, 76
8, 162480, Note_on_c, 2, 79, 76
8, 162599, Note_on_c, 2, 79, 0
8, 162600, Note_on_c, 2, 74, 76
8, 162704, Note_on_c, 2, 71, 0
8, 162704, Note_on_c, 2, 74, 0
8, 162720, Note_on_c, 2, 72, 76
8, 162720, Note_on_c, 2, 75, 76
8, 162824, Note_on_c, 2, 72, 0
8, 162839, Note_on_c, 2, 75, 0
8, 162840, Note_on_c, 2, 67, 76
8, 162840, Note_on_c, 2, 74, 76
8, 162959, Note_on_c, 2, 74, 0
8, 162960, Note_on_c, 2, 77, 76
8, 163064, Note_on_c, 2, 67, 0
8, 163079, Note_on_c, 2, 77, 0
8, 163080, Note_on_c, 2, 75, 76
8, 163080, Note_on_c, 2, 67, 76
8, 163199, Note_on_c, 2, 75, 0
8, 163199, Note_on_c, 2, 67, 0
8, 163200, Note_on_c, 2, 74, 76
8, 163200, Note_on_c, 2, 65, 76
8, 163319, Note_on_c, 2, 74, 0
8, 163319, Note_on_c, 2, 65, 0
8, 163320, Note_on_c, 2, 63, 76
8, 163320, Note_on_c, 2, 72, 76
8, 163424, Note_on_c, 2, 63, 0
8, 163424, Note_on_c, 2, 72, 0
8, 163440, Note_on_c, 2, 62, 76
8, 163440, Note_on_c, 2, 70, 76
8, 163679, Note_on_c, 2, 62, 0
8, 163679, Note_on_c, 2, 70, 0
8, 167760, Control_c, 2, 11, 96
8, 168000, Note_on_c, 2, 65, 68
8, 168000, Note_on_c, 2, 74, 68
8, 168209, Note_on_c, 2, 65, 0
8, 168209, Note_on_c, 2, 74, 0
8, 168240, Note_on_c, 2, 65, 68
8, 168240, Note_on_c, 2, 74, 68
8, 168449, Note_on_c, 2, 65, 0
8, 168449, Note_on_c, 2, 74, 0
8, 168480, Control_c, 2, 11, 96
8, 168480, Note_on_c, 2, 65, 68
8, 168480, Note_on_c, 2, 74, 68
8, 168600, Control_c, 2, 11, 99
8, 168689, Note_on_c, 2, 65, 0
8, 168689, Note_on_c, 2, 74, 0
8, 168720, Note_on_c, 2, 74, 68
8, 168720, Note_on_c, 2, 65, 68
8, 168720, Control_c, 2, 11, 101
8, 168840, Control_c, 2, 11, 104
8, 168929, Note_on_c, 2, 74, 0
8, 168929, Note_on_c, 2, 65, 0
8, 168960, Note_on_c, 2, 65, 76
8, 168960, Control_c, 2, 11, 106
8, 168960, Note_on_c, 2, 74, 76
8, 169080, Control_c, 2, 11, 109
8, 169169, Note_on_c, 2, 65, 0
8, 169169, Note_on_c, 2, 74, 0
8, 169200, Note_on_c, 2, 74, 68
8, 169200, Note_on_c, 2, 65, 68
8, 169200, Control_c, 2, 11, 112
8, 169320, Control_c, 2, 11, 114
8, 169409, Note_on_c, 2, 74, 0
8, 169409, Note_on_c, 2, 65, 0
8, 169440, Note_on_c, 2, 65, 68
8, 169440, Control_c, 2, 11, 117
8, 169440, Note_on_c, 2, 74, 68
8, 169560, Control_c, 2, 11, 119
8, 169649, Note_on_c, 2, 65, 0
8, 169649, Note_on_c, 2, 74, 0
8, 169680, Control_c, 2, 11, 122
8, 169680, Note_on_c, 2, 66, 68
8, 169680, Note_on_c, 2, 74, 68
8, 169800, Control_c, 2, 11, 124
8, 169889, Note_on_c, 2, 66, 0
8, 169889, Note_on_c, 2, 74, 0
8, 169920, Note_on_c, 2, 67, 68
8, 169920, Note_on_c, 2, 74, 68
8, 169920, Control_c, 2, 11, 127
8, 169980, Control_c, 2, 11, 124
8, 170040, Control_c, 2, 11, 122
8, 170100, Control_c, 2, 11, 119
8, 170160, Control_c, 2, 11, 117
8, 170220, Control_c, 2, 11, 114
8, 170280, Control_c, 2, 11, 112
8, 170340, Control_c, 2, 11, 109
8, 170399, Note_on_c, 2, 74, 0
8, 170400, Control_c, 2, 11, 106
8, 170400, Note_on_c, 2, 72, 68
8, 170460, Control_c, 2, 11, 104
8, 170520, Control_c, 2, 11, 101
8, 170580, Control_c, 2, 11, 96
8, 170639, Note_on_c, 2, 67, 0
8, 170639, Note_on_c, 2, 72, 0
8, 173760, Note_on_c, 2, 73, 68
8, 173760, Note_on_c, 2, 65, 68
8, 173969, Note_on_c, 2, 73, 0
8, 173969, Note_on_c, 2, 65, 0
8, 174000, Note_on_c, 2, 65, 68
8, 174000, Note_on_c, 2, 73, 68
8, 174209, Note_on_c, 2, 65, 0
8, 174209, Note_on_c, 2, 73, 0
8, 174240, Note_on_c, 2, 65, 68
8, 174240, Note_on_c, 2, 73, 68
8, 174240, Control_c, 2, 11, 96
8, 174360, Control_c, 2, 11, 99
8, 174449, Note_on_c, 2, 65, 0
8, 174449, Note_on_c, 2, 73, 0
8, 174480, Note_on_c, 2, 66, 68
8, 174480, Control_c, 2, 11, 101
8, 174480, Note_on_c, 2, 73, 68
8, 174600, Control_c, 2, 11, 104
8, 174689, Note_on_c, 2, 66, 0
8, 174689, Note_on_c, 2, 73, 0
8, 174720, Note_on_c, 2, 73, 68
8, 174720, Note_on_c, 2, 66, 68
8, 174720, Control_c, 2, 11, 106
8, 174840, Control_c, 2, 11, 109
8, 174929, Note_on_c, 2, 73, 0
8, 174929, Note_on_c, 2, 66, 0
8, 174960, Note_on_c, 2, 66, 68
8, 174960, Note_on_c, 2, 73, 68
8, 174960, Control_c, 2, 11, 112
8, 175080, Control_c, 2, 11, 114
8, 175169, Note_on_c, 2, 66, 0
8, 175169, Note_on_c, 2, 73, 0
8, 175200, Note_on_c, 2, 66, 68
8, 175200, Control_c, 2, 11, 117
8, 175200, Note_on_c, 2, 73, 68
8, 175320, Control_c, 2, 11, 119
8, 175409, Note_on_c, 2, 66, 0
8, 175409, Note_on_c, 2, 73, 0
8, 175440, Control_c, 2, 11, 122
8, 175440, Note_on_c, 2, 66, 68
8, 175440, Note_on_c, 2, 73, 68
8, 175560, Control_c, 2, 11, 127
8, 175649, Note_on_c, 2, 66, 0
8, 175649, Note_on_c, 2, 73, 0
8, 175680, Control_c, 2, 11, 127
8, 175680, Note_on_c, 2, 73, 76
8, 175680, Note_on_c, 2, 66, 76
8, 175740, Control_c, 2, 11, 123
8, 175800, Control_c, 2, 11, 119
8, 175860, Control_c, 2, 11, 115
8, 175920, Control_c, 2, 11, 111
8, 175980, Control_c, 2, 11, 107
8, 176040, Control_c, 2, 11, 104
8, 176100, Control_c, 2, 11, 100
8, 176159, Note_on_c, 2, 73, 0
8, 176160, Note_on_c, 2, 72, 68
8, 176160, Control_c, 2, 11, 96
8, 176220, Control_c, 2, 11, 92
8, 176280, Control_c, 2, 11, 88
8, 176340, Control_c, 2, 11, 84
8, 176399, Note_on_c, 2, 66, 0
8, 176399, Note_on_c, 2, 72, 0
8, 178560, Control_c, 2, 11, 96
8, 178800, Control_c, 2, 11, 96
8, 178800, Note_on_c, 2, 72, 68
8, 178800, Note_on_c, 2, 70, 68
8, 178840, Control_c, 2, 11, 101
8, 178880, Control_c, 2, 11, 106
8, 178920, Control_c, 2, 11, 112
8, 178960, Control_c, 2, 11, 117
8, 179000, Control_c, 2, 11, 122
8, 179009, Note_on_c, 2, 72, 0
8, 179009, Note_on_c, 2, 70, 0
8, 179040, Note_on_c, 2, 72, 68
8, 179040, Control_c, 2, 11, 127
8, 179040, Note_on_c, 2, 70, 68
8, 179080, Control_c, 2, 11, 122
8, 179120, Control_c, 2, 11, 117
8, 179160, Control_c, 2, 11, 112
8, 179200, Control_c, 2, 11, 106
8, 179240, Control_c, 2, 11, 101
8, 179249, Note_on_c, 2, 72, 0
8, 179249, Note_on_c, 2, 70, 0
8, 179280, Note_on_c, 2, 69, 68
8, 179280, Note_on_c, 2, 72, 68
8, 179519, Note_on_c, 2, 69, 0
8, 179519, Note_on_c, 2, 72, 0
8, 185280, Control_c, 2, 11, 127
8, 185520, Note_on_c, 2, 60, 52
8, 185520, Note_on_c, 2, 63, 52
8, 185609, Note_on_c, 2, 60, 0
8, 185609, Note_on_c, 2, 63, 0
8, 185640, Note_on_c, 2, 65, 55
8, 185640, Note_on_c, 2, 62, 55
8, 185729, Note_on_c, 2, 65, 0
8, 185729, Note_on_c, 2, 62, 0
8, 185760, Note_on_c, 2, 67, 58
8, 185760, Note_on_c, 2, 63, 58
8, 185849, Note_on_c, 2, 67, 0
8, 185849, Note_on_c, 2, 63, 0
8, 185880, Note_on_c, 2, 69, 61
8, 185880, Note_on_c, 2, 65, 61
8, 185969, Note_on_c, 2, 69, 0
8, 185969, Note_on_c, 2, 65, 0
8, 186000, Note_on_c, 2, 70, 64
8, 186000, Note_on_c, 2, 67, 64
8, 186089, Note_on_c, 2, 70, 0
8, 186089, Note_on_c, 2, 67, 0
8, 186120, Note_on_c, 2, 72, 67
8, 186120, Note_on_c, 2, 69, 67
8, 186209, Note_on_c, 2, 72, 0
8, 186209, Note_on_c, 2, 69, 0
8, 186240, Note_on_c, 2, 74, 70
8, 186240, Note_on_c, 2, 70, 70
8, 186329, Note_on_c, 2, 74, 0
8, 186329, Note_on_c, 2, 70, 0
8, 186360, Note_on_c, 2, 75, 73
8, 186360, Note_on_c, 2, 72, 73
8, 186449, Note_on_c, 2, 75, 0
8, 186449, Note_on_c, 2, 72, 0
8, 186480, Note_on_c, 2, 77, 76
8, 186480, Note_on_c, 2, 74, 76
8, 186704, Note_on_c, 2, 77, 0
8, 186704, Note_on_c, 2, 74, 0
8, 186720, Note_on_c, 2, 65, 84
8, 186720, Note_on_c, 2, 70, 84
8, 187199, Note_on_c, 2, 65, 0
8, 187199, Note_on_c, 2, 70, 0
8, 187440, Note_on_c, 2, 65, 84
8, 187440, Note_on_c, 2, 70, 84
8, 187919, Note_on_c, 2, 65, 0
8, 187919, Note_on_c, 2, 70, 0
8, 188160, Note_on_c, 2, 65, 84
8, 188160, Note_on_c, 2, 72, 84
8, 188639, Note_on_c, 2, 65, 0
8, 188639, Note_on_c, 2, 72, 0
8, 188880, Note_on_c, 2, 65, 84
8, 188880, Note_on_c, 2, 72, 84
8, 189104, Note_on_c, 2, 65, 0
8, 189104, Note_on_c, 2, 72, 0
8, 189120, Note_on_c, 2, 72, 76
8, 189120, Note_on_c, 2, 65, 76
8, 189344, Note_on_c, 2, 72, 0
8, 189344, Note_on_c, 2, 65, 0
8, 189360, Note_on_c, 2, 74, 84
8, 189360, Note_on_c, 2, 65, 84
8, 189539, Note_on_c, 2, 74, 0
8, 189539, Note_on_c, 2, 65, 0
8, 189600, Note_on_c, 2, 77, 92
8, 189944, Note_on_c, 2, 77, 0
8, 189960, Note_on_c, 2, 74, 84
8, 190064, Note_on_c, 2, 74, 0
8, 190080, Note_on_c, 2, 70, 84
8, 190259, Note_on_c, 2, 70, 0
8, 190320, Note_on_c, 2, 74, 92
8, 190664, Note_on_c, 2, 74, 0
8, 190680, Note_on_c, 2, 65, 84
8, 190784, Note_on_c, 2, 65, 0
8, 190800, Note_on_c, 2, 72, 84
8, 190979, Note_on_c, 2, 72, 0
8, 191040, Note_on_c, 2, 75, 92
8, 191384, Note_on_c, 2, 75, 0
8, 191400, Note_on_c, 2, 65, 84
8, 191504, Note_on_c, 2, 65, 0
8, 191520, Note_on_c, 2, 69, 84
8, 191744, Note_on_c, 2, 69, 0
8, 191760, Note_on_c, 2, 72, 92
8, 192104, Note_on_c, 2, 72, 0
8, 192120, Note_on_c, 2, 65, 84
8, 192224, Note_on_c, 2, 65, 0
8, 192240, Note_on_c, 2, 70, 84
8, 192240, Note_on_c, 2, 65, 84
8, 192839, Note_on_c, 2, 65, 0
8, 192840, Note_on_c, 2, 64, 84
8, 192959, Note_on_c, 2, 64, 0
8, 192960, Note_on_c, 2, 65, 84
8, 193079, Note_on_c, 2, 70, 0
8, 193079, Note_on_c, 2, 65, 0
8, 196200, Note_on_c, 2, 67, 84
8, 196289, Note_on_c, 2, 67, 0
8, 196320, Note_on_c, 2, 67, 84
8, 196409, Note_on_c, 2, 67, 0
8, 196440, Note_on_c, 2, 67, 84
8, 196529, Note_on_c, 2, 67, 0
8, 196560, Note_on_c, 2, 69, 84
8, 196560, Note_on_c, 2, 66, 84
8, 196739, Note_on_c, 2, 69, 0
8, 196739, Note_on_c, 2, 66, 0
8, 196800, Note_on_c, 2, 69, 84
8, 196800, Note_on_c, 2, 72, 84
8, 196979, Note_on_c, 2, 69, 0
8, 196979, Note_on_c, 2, 72, 0
8, 197040, Note_on_c, 2, 67, 84
8, 197040, Note_on_c, 2, 70, 84
8, 197219, Note_on_c, 2, 67, 0
8, 197219, Note_on_c, 2, 70, 0
8, 197520, Note_on_c, 2, 65, 84
8, 197520, Note_on_c, 2, 68, 84
8, 197699, Note_on_c, 2, 65, 0
8, 197699, Note_on_c, 2, 68, 0
8, 197760, Note_on_c, 2, 67, 84
8, 197760, Note_on_c, 2, 63, 84
8, 197939, Note_on_c, 2, 67, 0
8, 197939, Note_on_c, 2, 63, 0
8, 198240, Note_on_c, 2, 70, 84
8, 198240, Note_on_c, 2, 67, 84
8, 198419, Note_on_c, 2, 70, 0
8, 198419, Note_on_c, 2, 67, 0
8, 198480, Note_on_c, 2, 65, 84
8, 198480, Note_on_c, 2, 69, 84
8, 198659, Note_on_c, 2, 65, 0
8, 198659, Note_on_c, 2, 69, 0
8, 198960, Note_on_c, 2, 72, 84
8, 198960, Note_on_c, 2, 69, 84
8, 199139, Note_on_c, 2, 72, 0
8, 199139, Note_on_c, 2, 69, 0
8, 199200, Note_on_c, 2, 67, 84
8, 199200, Note_on_c, 2, 70, 84
8, 199379, Note_on_c, 2, 67, 0
8, 199379, Note_on_c, 2, 70, 0
8, 199680, Note_on_c, 2, 65, 84
8, 199680, Note_on_c, 2, 68, 84
8, 199859, Note_on_c, 2, 65, 0
8, 199859, Note_on_c, 2, 68, 0
8, 199920, Note_on_c, 2, 67, 84
8, 199920, Note_on_c, 2, 63, 84
8, 200099, Note_on_c, 2, 67, 0
8, 200099, Note_on_c, 2, 63, 0
8, 200400, Note_on_c, 2, 70, 92
8, 200400, Note_on_c, 2, 67, 92
8, 200579, Note_on_c, 2, 70, 0
8, 200579, Note_on_c, 2, 67, 0
8, 200880, Note_on_c, 2, 70, 92
8, 200880, Note_on_c, 2, 67, 92
8, 201059, Note_on_c, 2, 70, 0
8, 201059, Note_on_c, 2, 67, 0
8, 201360, Note_on_c, 2, 67, 92
8, 201360, Note_on_c, 2, 70, 92
8, 201539, Note_on_c, 2, 67, 0
8, 201539, Note_on_c, 2, 70, 0
8, 201840, Note_on_c, 2, 67, 92
8, 201840, Note_on_c, 2, 70, 92
8, 202019, Note_on_c, 2, 67, 0
8, 202019, Note_on_c, 2, 70, 0
8, 202320, Note_on_c, 2, 67, 92
8, 202320, Note_on_c, 2, 70, 92
8, 202499, Note_on_c, 2, 67, 0
8, 202499, Note_on_c, 2, 70, 0
8, 202800, Note_on_c, 2, 67, 92
8, 202800, Note_on_c, 2, 70, 92
8, 202979, Note_on_c, 2, 67, 0
8, 202979, Note_on_c, 2, 70, 0
8, 206160, Note_on_c, 2, 73, 52
8, 206160, Note_on_c, 2, 70, 52
8, 206339, Note_on_c, 2, 73, 0
8, 206339, Note_on_c, 2, 70, 0
8, 206640, Note_on_c, 2, 68, 52
8, 206640, Note_on_c, 2, 72, 52
8, 206819, Note_on_c, 2, 68, 0
8, 206819, Note_on_c, 2, 72, 0
8, 207120, Note_on_c, 2, 72, 52
8, 207120, Note_on_c, 2, 68, 52
8, 207299, Note_on_c, 2, 72, 0
8, 207299, Note_on_c, 2, 68, 0
8, 207600, Note_on_c, 2, 72, 52
8, 207600, Note_on_c, 2, 75, 52
8, 207779, Note_on_c, 2, 72, 0
8, 207779, Note_on_c, 2, 75, 0
8, 208080, Note_on_c, 2, 74, 52
8, 208080, Note_on_c, 2, 70, 52
8, 208259, Note_on_c, 2, 74, 0
8, 208259, Note_on_c, 2, 70, 0
8, 208545, Control_c, 2, 11, 64
8, 208560, Note_on_c, 2, 70, 84
8, 208560, Note_on_c, 2, 74, 84
8, 208739, Note_on_c, 2, 70, 0
8, 208739, Note_on_c, 2, 74, 0
8, 208800, Control_c, 2, 11, 64
8, 208800, Note_on_c, 2, 67, 84
8, 208890, Control_c, 2, 11, 67
8, 208980, Control_c, 2, 11, 69
8, 209070, Control_c, 2, 11, 72
8, 209160, Control_c, 2, 11, 75
8, 209250, Control_c, 2, 11, 77
8, 209340, Control_c, 2, 11, 80
8, 209430, Control_c, 2, 11, 82
8, 209520, Note_on_c, 2, 63, 84
8, 209520, Control_c, 2, 11, 85
8, 209610, Control_c, 2, 11, 88
8, 209700, Control_c, 2, 11, 90
8, 209790, Control_c, 2, 11, 93
8, 209864, Note_on_c, 2, 67, 0
8, 209864, Note_on_c, 2, 63, 0
8, 209880, Control_c, 2, 11, 96
8, 209880, Note_on_c, 2, 67, 84
8, 209880, Note_on_c, 2, 72, 84
8, 209970, Control_c, 2, 11, 98
8, 209999, Note_on_c, 2, 67, 0
8, 209999, Note_on_c, 2, 72, 0
8, 210000, Note_on_c, 2, 71, 84
8, 210000, Note_on_c, 2, 65, 84
8, 210060, Control_c, 2, 11, 101
8, 210119, Note_on_c, 2, 71, 0
8, 210119, Note_on_c, 2, 65, 0
8, 210120, Note_on_c, 2, 63, 84
8, 210120, Note_on_c, 2, 72, 84
8, 210150, Control_c, 2, 11, 103
8, 210224, Note_on_c, 2, 63, 0
8, 210224, Note_on_c, 2, 72, 0
8, 210240, Note_on_c, 2, 70, 84
8, 210240, Control_c, 2, 11, 106
8, 210240, Note_on_c, 2, 62, 84
8, 210330, Control_c, 2, 11, 109
8, 210344, Note_on_c, 2, 70, 0
8, 210344, Note_on_c, 2, 62, 0
8, 210360, Note_on_c, 2, 74, 84
8, 210360, Note_on_c, 2, 70, 84
8, 210420, Control_c, 2, 11, 111
8, 210464, Note_on_c, 2, 74, 0
8, 210464, Note_on_c, 2, 70, 0
8, 210480, Note_on_c, 2, 74, 84
8, 210480, Note_on_c, 2, 77, 84
8, 210510, Control_c, 2, 11, 114
8, 210584, Note_on_c, 2, 74, 0
8, 210584, Note_on_c, 2, 77, 0
8, 210600, Control_c, 2, 11, 117
8, 210600, Note_on_c, 2, 74, 84
8, 210600, Note_on_c, 2, 70, 84
8, 210690, Control_c, 2, 11, 119
8, 210704, Note_on_c, 2, 74, 0
8, 210704, Note_on_c, 2, 70, 0
8, 210720, Note_on_c, 2, 70, 84
8, 210720, Note_on_c, 2, 74, 84
8, 210780, Control_c, 2, 11, 122
8, 210824, Note_on_c, 2, 70, 0
8, 210824, Note_on_c, 2, 74, 0
8, 210840, Note_on_c, 2, 74, 84
8, 210840, Note_on_c, 2, 70, 84
8, 210870, Control_c, 2, 11, 127
8, 210944, Note_on_c, 2, 74, 0
8, 210944, Note_on_c, 2, 70, 0
8, 210960, Note_on_c, 2, 69, 84
8, 210960, Note_on_c, 2, 75, 84
8, 211664, Note_on_c, 2, 69, 0
8, 211664, Note_on_c, 2, 75, 0
8, 211680, Note_on_c, 2, 70, 76
8, 211680, Note_on_c, 2, 74, 76
8, 211859, Note_on_c, 2, 70, 0
8, 211859, Note_on_c, 2, 74, 0
8, 212400, Note_on_c, 2, 70, 76
8, 212579, Note_on_c, 2, 70, 0
8, 213120, Note_on_c, 2, 70, 76
8, 213299, Note_on_c, 2, 70, 0
8, 213840, Note_on_c, 2, 66, 76
8, 213840, Note_on_c, 2, 75, 76
8, 214019, Note_on_c, 2, 66, 0
8, 214019, Note_on_c, 2, 75, 0
8, 214080, Note_on_c, 2, 66, 76
8, 214080, Note_on_c, 2, 75, 76
8, 214259, Note_on_c, 2, 66, 0
8, 214259, Note_on_c, 2, 75, 0
8, 214320, Note_on_c, 2, 75, 76
8, 214320, Note_on_c, 2, 66, 76
8, 214499, Note_on_c, 2, 75, 0
8, 214499, Note_on_c, 2, 66, 0
8, 214560, Note_on_c, 2, 65, 76
8, 214560, Note_on_c, 2, 74, 76
8, 214799, Note_on_c, 2, 65, 0
8, 214799, Note_on_c, 2, 74, 0
8, 241627, Control_c, 2, 11, 92
8, 241680, Control_c, 2, 11, 96
8, 241680, Note_on_c, 2, 77, 84
8, 241680, Note_on_c, 2, 65, 84
8, 241733, Control_c, 2, 11, 99
8, 241787, Control_c, 2, 11, 103
8, 241840, Control_c, 2, 11, 106
8, 241893, Control_c, 2, 11, 110
8, 241947, Control_c, 2, 11, 113
8, 242000, Control_c, 2, 11, 117
8, 242053, Control_c, 2, 11, 120
8, 242107, Control_c, 2, 11, 127
8, 242144, Note_on_c, 2, 77, 0
8, 242144, Note_on_c, 2, 65, 0
8, 242160, Note_on_c, 2, 69, 84
8, 242160, Note_on_c, 2, 65, 84
8, 242339, Note_on_c, 2, 69, 0
8, 242339, Note_on_c, 2, 65, 0
8, 242400, Note_on_c, 2, 69, 84
8, 242400, Note_on_c, 2, 65, 84
8, 242579, Note_on_c, 2, 69, 0
8, 242579, Note_on_c, 2, 65, 0
8, 242640, Note_on_c, 2, 69, 84
8, 242640, Note_on_c, 2, 65, 84
8, 242819, Note_on_c, 2, 69, 0
8, 242819, Note_on_c, 2, 65, 0
8, 242880, Note_on_c, 2, 69, 84
8, 242880, Note_on_c, 2, 65, 84
8, 243059, Note_on_c, 2, 69, 0
8, 243059, Note_on_c, 2, 65, 0
8, 243120, Note_on_c, 2, 69, 84
8, 243120, Note_on_c, 2, 65, 84
8, 243299, Note_on_c, 2, 69, 0
8, 243299, Note_on_c, 2, 65, 0
8, 243360, Note_on_c, 2, 69, 84
8, 243360, Note_on_c, 2, 65, 84
8, 244784, Note_on_c, 2, 69, 0
8, 244784, Note_on_c, 2, 65, 0
8, 244800, Note_on_c, 2, 69, 84
8, 244800, Note_on_c, 2, 67, 84
8, 244979, Note_on_c, 2, 69, 0
8, 244979, Note_on_c, 2, 67, 0
8, 245040, Note_on_c, 2, 69, 84
8, 245040, Note_on_c, 2, 67, 84
8, 245219, Note_on_c, 2, 69, 0
8, 245219, Note_on_c, 2, 67, 0
8, 245280, Note_on_c, 2, 69, 84
8, 245280, Note_on_c, 2, 67, 84
8, 245459, Note_on_c, 2, 69, 0
8, 245459, Note_on_c, 2, 67, 0
8, 245520, Note_on_c, 2, 69, 84
8, 245520, Note_on_c, 2, 67, 84
8, 245699, Note_on_c, 2, 69, 0
8, 245699, Note_on_c, 2, 67, 0
8, 245760, Note_on_c, 2, 69, 84
8, 245760, Note_on_c, 2, 67, 84
8, 245939, Note_on_c, 2, 69, 0
8, 245939, Note_on_c, 2, 67, 0
8, 246000, Note_on_c, 2, 69, 84
8, 246000, Note_on_c, 2, 67, 84
8, 246179, Note_on_c, 2, 69, 0
8, 246179, Note_on_c, 2, 67, 0
8, 246240, Note_on_c, 2, 69, 84
8, 246240, Note_on_c, 2, 67, 84
8, 247424, Note_on_c, 2, 69, 0
8, 247424, Note_on_c, 2, 67, 0
8, 247440, Note_on_c, 2, 69, 84
8, 247440, Note_on_c, 2, 64, 84
8, 247679, Note_on_c, 2, 69, 0
8, 247679, Note_on_c, 2, 64, 0
8, 250560, Note_on_c, 2, 70, 84
8, 250560, Note_on_c, 2, 67, 84
8, 250739, Note_on_c, 2, 70, 0
8, 250739, Note_on_c, 2, 67, 0
8, 250800, Note_on_c, 2, 70, 84
8, 250800, Note_on_c, 2, 67, 84
8, 250979, Note_on_c, 2, 70, 0
8, 250979, Note_on_c, 2, 67, 0
8, 251040, Note_on_c, 2, 70, 84
8, 251040, Note_on_c, 2, 67, 84
8, 251219, Note_on_c, 2, 70, 0
8, 251219, Note_on_c, 2, 67, 0
8, 251280, Note_on_c, 2, 70, 84
8, 251280, Note_on_c, 2, 67, 84
8, 251459, Note_on_c, 2, 70, 0
8, 251459, Note_on_c, 2, 67, 0
8, 251520, Note_on_c, 2, 70, 84
8, 251520, Note_on_c, 2, 67, 84
8, 251699, Note_on_c, 2, 70, 0
8, 251699, Note_on_c, 2, 67, 0
8, 251760, Note_on_c, 2, 70, 84
8, 251760, Note_on_c, 2, 67, 84
8, 251939, Note_on_c, 2, 70, 0
8, 251939, Note_on_c, 2, 67, 0
8, 252000, Note_on_c, 2, 70, 84
8, 252000, Note_on_c, 2, 67, 84
8, 253424, Note_on_c, 2, 70, 0
8, 253424, Note_on_c, 2, 67, 0
8, 253440, Note_on_c, 2, 72, 84
8, 253440, Note_on_c, 2, 66, 84
8, 253619, Note_on_c, 2, 72, 0
8, 253619, Note_on_c, 2, 66, 0
8, 253680, Note_on_c, 2, 72, 84
8, 253680, Note_on_c, 2, 66, 84
8, 253859, Note_on_c, 2, 72, 0
8, 253859, Note_on_c, 2, 66, 0
8, 253920, Note_on_c, 2, 72, 84
8, 253920, Note_on_c, 2, 66, 84
8, 254099, Note_on_c, 2, 72, 0
8, 254099, Note_on_c, 2, 66, 0
8, 254160, Note_on_c, 2, 72, 84
8, 254160, Note_on_c, 2, 66, 84
8, 254339, Note_on_c, 2, 72, 0
8, 254339, Note_on_c, 2, 66, 0
8, 254400, Note_on_c, 2, 72, 84
8, 254400, Note_on_c, 2, 66, 84
8, 254579, Note_on_c, 2, 72, 0
8, 254579, Note_on_c, 2, 66, 0
8, 254640, Note_on_c, 2, 72, 84
8, 254640, Note_on_c, 2, 66, 84
8, 254819, Note_on_c, 2, 72, 0
8, 254819, Note_on_c, 2, 66, 0
8, 254880, Note_on_c, 2, 72, 84
8, 254880, Note_on_c, 2, 66, 84
8, 256064, Note_on_c, 2, 72, 0
8, 256064, Note_on_c, 2, 66, 0
8, 256080, Note_on_c, 2, 69, 84
8, 256080, Note_on_c, 2, 66, 84
8, 256304, Note_on_c, 2, 69, 0
8, 256304, Note_on_c, 2, 66, 0
8, 256320, Note_on_c, 2, 67, 52
8, 256320, Note_on_c, 2, 62, 52
8, 256559, Note_on_c, 2, 67, 0
8, 256559, Note_on_c, 2, 62, 0
8, 263160, Note_on_c, 2, 70, 76
8, 263264, Note_on_c, 2, 70, 0
8, 263280, Note_on_c, 2, 70, 76
8, 263399, Note_on_c, 2, 70, 0
8, 263880, Note_on_c, 2, 75, 76
8, 263880, Note_on_c, 2, 63, 76
8, 263984, Note_on_c, 2, 75, 0
8, 263984, Note_on_c, 2, 63, 0
8, 264000, Note_on_c, 2, 75, 76
8, 264000, Note_on_c, 2, 63, 76
8, 264119, Note_on_c, 2, 75, 0
8, 264119, Note_on_c, 2, 63, 0
8, 264360, Note_on_c, 2, 68, 76
8, 264464, Note_on_c, 2, 68, 0
8, 264480, Note_on_c, 2, 68, 76
8, 264584, Note_on_c, 2, 68, 0
8, 264600, Note_on_c, 2, 68, 76
8, 264704, Note_on_c, 2, 68, 0
8, 264720, Note_on_c, 2, 68, 76
8, 264824, Note_on_c, 2, 68, 0
8, 264840, Note_on_c, 2, 68, 76
8, 264944, Note_on_c, 2, 68, 0
8, 264960, Note_on_c, 2, 73, 84
8, 264960, Note_on_c, 2, 68, 84
8, 265664, Note_on_c, 2, 73, 0
8, 265664, Note_on_c, 2, 68, 0
8, 265680, Note_on_c, 2, 74, 84
8, 265680, Note_on_c, 2, 68, 84
8, 266384, Note_on_c, 2, 74, 0
8, 266384, Note_on_c, 2, 68, 0
8, 266400, Note_on_c, 2, 67, 84
8, 266400, Note_on_c, 2, 75, 84
8, 266624, Note_on_c, 2, 67, 0
8, 266624, Note_on_c, 2, 75, 0
8, 266640, Note_on_c, 2, 77, 52
8, 266999, Note_on_c, 2, 77, 0
8, 267000, Note_on_c, 2, 75, 52
8, 267119, Note_on_c, 2, 75, 0
8, 267120, Note_on_c, 2, 74, 52
8, 267344, Note_on_c, 2, 74, 0
8, 267360, Note_on_c, 2, 75, 52
8, 267719, Note_on_c, 2, 75, 0
8, 267720, Note_on_c, 2, 73, 52
8, 267839, Note_on_c, 2, 73, 0
8, 267840, Note_on_c, 2, 70, 52
8, 268064, Note_on_c, 2, 70, 0
8, 268080, Note_on_c, 2, 73, 52
8, 268439, Note_on_c, 2, 73, 0
8, 268440, Note_on_c, 2, 70, 52
8, 268559, Note_on_c, 2, 70, 0
8, 268560, Note_on_c, 2, 67, 52
8, 268799, Note_on_c, 2, 67, 0
8, 269520, Note_on_c, 2, 77, 52
8, 269879, Note_on_c, 2, 77, 0
8, 269880, Note_on_c, 2, 75, 52
8, 269999, Note_on_c, 2, 75, 0
8, 270000, Note_on_c, 2, 74, 52
8, 270224, Note_on_c, 2, 74, 0
8, 270240, Note_on_c, 2, 75, 52
8, 270599, Note_on_c, 2, 75, 0
8, 270600, Note_on_c, 2, 72, 52
8, 270719, Note_on_c, 2, 72, 0
8, 270720, Note_on_c, 2, 68, 52
8, 270944, Note_on_c, 2, 68, 0
8, 270960, Note_on_c, 2, 72, 52
8, 271319, Note_on_c, 2, 72, 0
8, 271320, Note_on_c, 2, 68, 52
8, 271439, Note_on_c, 2, 68, 0
8, 271440, Note_on_c, 2, 63, 52
8, 271679, Note_on_c, 2, 63, 0
8, 272160, Note_on_c, 2, 63, 68
8, 272280, Control_c, 2, 11, 96
8, 272879, Note_on_c, 2, 63, 0
8, 272880, Note_on_c, 2, 63, 68
8, 273000, Note_on_c, 2, 65, 68
8, 273089, Note_on_c, 2, 65, 0
8, 273120, Note_on_c, 2, 67, 68
8, 273209, Note_on_c, 2, 63, 0
8, 273209, Note_on_c, 2, 67, 0
8, 273240, Note_on_c, 2, 68, 68
8, 273240, Note_on_c, 2, 65, 68
8, 273329, Note_on_c, 2, 68, 0
8, 273329, Note_on_c, 2, 65, 0
8, 273360, Note_on_c, 2, 70, 68
8, 273360, Note_on_c, 2, 67, 68
8, 273449, Note_on_c, 2, 70, 0
8, 273449, Note_on_c, 2, 67, 0
8, 273480, Note_on_c, 2, 72, 68
8, 273480, Note_on_c, 2, 68, 68
8, 273569, Note_on_c, 2, 72, 0
8, 273569, Note_on_c, 2, 68, 0
8, 273600, Note_on_c, 2, 73, 68
8, 273600, Note_on_c, 2, 70, 68
8, 273839, Note_on_c, 2, 73, 0
8, 273839, Note_on_c, 2, 70, 0
8, 276960, Note_on_c, 2, 73, 68
8, 277439, Note_on_c, 2, 73, 0
8, 277440, Note_on_c, 2, 72, 52
8, 277559, Note_on_c, 2, 72, 0
8, 277560, Note_on_c, 2, 70, 52
8, 277679, Note_on_c, 2, 70, 0
8, 277680, Note_on_c, 2, 68, 52
8, 277799, Note_on_c, 2, 68, 0
8, 277800, Note_on_c, 2, 67, 52
8, 277904, Note_on_c, 2, 67, 0
8, 277920, Note_on_c, 2, 65, 52
8, 278159, Note_on_c, 2, 65, 0
8, 286080, Note_on_c, 2, 65, 68
8, 286080, Note_on_c, 2, 62, 68
8, 286259, Note_on_c, 2, 65, 0
8, 286259, Note_on_c, 2, 62, 0
8, 286320, Note_on_c, 2, 77, 84
8, 286320, Note_on_c, 2, 74, 84
8, 286544, Note_on_c, 2, 77, 0
8, 286544, Note_on_c, 2, 74, 0
8, 286560, Note_on_c, 2, 77, 76
8, 286560, Note_on_c, 2, 74, 76
8, 286784, Note_on_c, 2, 77, 0
8, 286784, Note_on_c, 2, 74, 0
8, 286800, Note_on_c, 2, 74, 84
8, 286800, Note_on_c, 2, 62, 84
8, 287759, Note_on_c, 2, 74, 0
8, 287759, Note_on_c, 2, 62, 0
8, 299760, Note_on_c, 2, 73, 92
8, 299760, Note_on_c, 2, 67, 92
8, 301169, Note_on_c, 2, 73, 0
8, 301169, Note_on_c, 2, 67, 0
8, 301200, Note_on_c, 2, 73, 92
8, 301200, Note_on_c, 2, 67, 92
8, 301649, Note_on_c, 2, 73, 0
8, 301649, Note_on_c, 2, 67, 0
8, 301680, Note_on_c, 2, 73, 92
8, 301680, Note_on_c, 2, 67, 92
8, 302129, Note_on_c, 2, 73, 0
8, 302129, Note_on_c, 2, 67, 0
8, 302160, Note_on_c, 2, 73, 92
8, 302160, Note_on_c, 2, 67, 92
8, 302609, Note_on_c, 2, 73, 0
8, 302609, Note_on_c, 2, 67, 0
8, 302640, Note_on_c, 2, 73, 92
8, 302640, Note_on_c, 2, 67, 92
8, 303089, Note_on_c, 2, 73, 0
8, 303089, Note_on_c, 2, 67, 0
8, 303120, Note_on_c, 2, 73, 92
8, 303120, Note_on_c, 2, 67, 92
8, 303569, Note_on_c, 2, 73, 0
8, 303569, Note_on_c, 2, 67, 0
8, 303600, Note_on_c, 2, 73, 92
8, 303600, Note_on_c, 2, 67, 92
8, 303839, Note_on_c, 2, 73, 0
8, 303839, Note_on_c, 2, 67, 0
8, 304080, Note_on_c, 2, 72, 92
8, 304080, Note_on_c, 2, 66, 92
8, 304529, Note_on_c, 2, 72, 0
8, 304529, Note_on_c, 2, 66, 0
8, 304560, Note_on_c, 2, 72, 92
8, 304560, Note_on_c, 2, 66, 92
8, 305009, Note_on_c, 2, 72, 0
8, 305009, Note_on_c, 2, 66, 0
8, 305040, Note_on_c, 2, 72, 92
8, 305040, Note_on_c, 2, 66, 92
8, 305249, Note_on_c, 2, 72, 0
8, 305249, Note_on_c, 2, 66, 0
8, 305520, Note_on_c, 2, 72, 92
8, 305520, Note_on_c, 2, 64, 92
8, 305969, Note_on_c, 2, 72, 0
8, 305969, Note_on_c, 2, 64, 0
8, 306000, Note_on_c, 2, 72, 92
8, 306000, Note_on_c, 2, 64, 92
8, 306449, Note_on_c, 2, 72, 0
8, 306449, Note_on_c, 2, 64, 0
8, 306480, Note_on_c, 2, 72, 92
8, 306480, Note_on_c, 2, 64, 92
8, 306659, Note_on_c, 2, 72, 0
8, 306659, Note_on_c, 2, 64, 0
8, 306720, Note_on_c, 2, 72, 76
8, 306720, Note_on_c, 2, 64, 76
8, 307199, Note_on_c, 2, 72, 0
8, 307199, Note_on_c, 2, 64, 0
8, 307440, Note_on_c, 2, 72, 76
8, 307440, Note_on_c, 2, 64, 76
8, 307919, Note_on_c, 2, 72, 0
8, 307919, Note_on_c, 2, 64, 0
8, 308160, Note_on_c, 2, 72, 76
8, 308160, Note_on_c, 2, 64, 76
8, 308639, Note_on_c, 2, 72, 0
8, 308639, Note_on_c, 2, 64, 0
8, 308880, Note_on_c, 2, 72, 76
8, 308880, Note_on_c, 2, 64, 76
8, 309359, Note_on_c, 2, 72, 0
8, 309359, Note_on_c, 2, 64, 0
8, 309360, Note_on_c, 2, 72, 76
8, 309360, Note_on_c, 2, 64, 76
8, 309539, Note_on_c, 2, 72, 0
8, 309539, Note_on_c, 2, 64, 0
8, 332640, Note_on_c, 2, 60, 76
8, 332879, Note_on_c, 2, 60, 0
8, 332880, Note_on_c, 2, 63, 76
8, 333119, Note_on_c, 2, 63, 0
8, 333120, Note_on_c, 2, 67, 76
8, 333344, Note_on_c, 2, 67, 0
8, 333360, Note_on_c, 2, 68, 84
8, 333839, Note_on_c, 2, 68, 0
8, 333840, Note_on_c, 2, 60, 76
8, 334064, Note_on_c, 2, 60, 0
8, 334080, Note_on_c, 2, 61, 76
8, 334319, Note_on_c, 2, 61, 0
8, 334320, Note_on_c, 2, 65, 76
8, 334559, Note_on_c, 2, 65, 0
8, 334560, Note_on_c, 2, 69, 76
8, 334784, Note_on_c, 2, 69, 0
8, 334800, Note_on_c, 2, 70, 84
8, 335279, Note_on_c, 2, 70, 0
8, 335280, Note_on_c, 2, 62, 76
8, 335504, Note_on_c, 2, 62, 0
8, 335520, Note_on_c, 2, 63, 76
8, 335699, Note_on_c, 2, 63, 0
8, 335760, Note_on_c, 2, 67, 76
8, 335939, Note_on_c, 2, 67, 0
8, 336000, Note_on_c, 2, 70, 76
8, 336179, Note_on_c, 2, 70, 0
8, 336240, Note_on_c, 2, 75, 76
8, 336240, Note_on_c, 2, 63, 76
8, 336419, Note_on_c, 2, 75, 0
8, 336419, Note_on_c, 2, 63, 0
8, 336480, Note_on_c, 2, 79, 76
8, 336480, Note_on_c, 2, 67, 76
8, 336659, Note_on_c, 2, 79, 0
8, 336659, Note_on_c, 2, 67, 0
8, 336720, Note_on_c, 2, 82, 84
8, 336720, Note_on_c, 2, 70, 84
8, 337049, Note_on_c, 2, 82, 0
8, 337049, Note_on_c, 2, 70, 0
8, 337080, Note_on_c, 2, 80, 76
8, 337080, Note_on_c, 2, 68, 76
8, 337169, Note_on_c, 2, 80, 0
8, 337169, Note_on_c, 2, 68, 0
8, 337200, Note_on_c, 2, 77, 76
8, 337200, Note_on_c, 2, 65, 76
8, 337289, Note_on_c, 2, 77, 0
8, 337289, Note_on_c, 2, 65, 0
8, 337320, Note_on_c, 2, 74, 76
8, 337320, Note_on_c, 2, 62, 76
8, 337409, Note_on_c, 2, 74, 0
8, 337409, Note_on_c, 2, 62, 0
8, 337440, Note_on_c, 2, 70, 76
8, 337440, Note_on_c, 2, 58, 76
8, 337529, Note_on_c, 2, 70, 0
8, 337529, Note_on_c, 2, 58, 0
8, 337560, Note_on_c, 2, 68, 76
8, 337649, Note_on_c, 2, 68, 0
8, 337680, Note_on_c, 2, 65, 76
8, 337769, Note_on_c, 2, 65, 0
8, 337800, Note_on_c, 2, 68, 76
8, 337889, Note_on_c, 2, 68, 0
8, 337920, Note_on_c, 2, 65, 76
8, 338009, Note_on_c, 2, 65, 0
8, 338040, Note_on_c, 2, 62, 76
8, 338129, Note_on_c, 2, 62, 0
8, 338160, Note_on_c, 2, 58, 76
8, 338249, Note_on_c, 2, 58, 0
8, 338280, Note_on_c, 2, 62, 76
8, 338369, Note_on_c, 2, 62, 0
8, 338400, Note_on_c, 2, 63, 84
8, 338639, Note_on_c, 2, 63, 0
8, 340080, Note_on_c, 2, 75, 52
8, 340080, Note_on_c, 2, 66, 52
8, 340319, Note_on_c, 2, 75, 0
8, 340319, Note_on_c, 2, 66, 0
8, 340320, Note_on_c, 2, 74, 52
8, 340320, Note_on_c, 2, 68, 52
8, 340559, Note_on_c, 2, 74, 0
8, 340559, Note_on_c, 2, 68, 0
8, 340560, Note_on_c, 2, 75, 68
8, 340560, Note_on_c, 2, 70, 68
8, 340919, Note_on_c, 2, 75, 0
8, 340919, Note_on_c, 2, 70, 0
8, 340920, Note_on_c, 2, 77, 52
8, 340920, Note_on_c, 2, 74, 52
8, 341039, Note_on_c, 2, 77, 0
8, 341039, Note_on_c, 2, 74, 0
8, 341040, Note_on_c, 2, 78, 52
8, 341040, Note_on_c, 2, 75, 52
8, 341264, Note_on_c, 2, 78, 0
8, 341264, Note_on_c, 2, 75, 0
8, 341280, Note_on_c, 2, 77, 52
8, 341280, Note_on_c, 2, 70, 52
8, 341519, Note_on_c, 2, 77, 0
8, 341519, Note_on_c, 2, 70, 0
8, 341520, Note_on_c, 2, 82, 52
8, 341520, Note_on_c, 2, 77, 52
8, 341759, Note_on_c, 2, 82, 0
8, 341759, Note_on_c, 2, 77, 0
8, 341760, Note_on_c, 2, 81, 52
8, 341760, Note_on_c, 2, 75, 52
8, 341999, Note_on_c, 2, 81, 0
8, 341999, Note_on_c, 2, 75, 0
8, 342000, Note_on_c, 2, 82, 68
8, 342000, Note_on_c, 2, 74, 68
8, 342359, Note_on_c, 2, 82, 0
8, 342360, Note_on_c, 2, 80, 52
8, 342479, Note_on_c, 2, 74, 0
8, 342479, Note_on_c, 2, 80, 0
8, 342480, Note_on_c, 2, 78, 52
8, 342480, Note_on_c, 2, 75, 52
8, 342599, Note_on_c, 2, 78, 0
8, 342599, Note_on_c, 2, 75, 0
8, 342600, Note_on_c, 2, 77, 52
8, 342704, Note_on_c, 2, 77, 0
8, 342720, Note_on_c, 2, 75, 52
8, 342720, Note_on_c, 2, 66, 52
8, 342944, Note_on_c, 2, 75, 0
8, 342944, Note_on_c, 2, 66, 0
8, 342960, Note_on_c, 2, 75, 52
8, 343184, Note_on_c, 2, 75, 0
8, 343200, Note_on_c, 2, 77, 52
8, 343424, Note_on_c, 2, 77, 0
8, 343440, Note_on_c, 2, 78, 68
8, 343560, Control_c, 2, 11, 127
8, 343610, Control_c, 2, 11, 126
8, 343660, Control_c, 2, 11, 125
8, 343710, Control_c, 2, 11, 123
8, 343760, Control_c, 2, 11, 122
8, 343799, Note_on_c, 2, 78, 0
8, 343800, Note_on_c, 2, 77, 52
8, 343810, Control_c, 2, 11, 121
8, 343860, Control_c, 2, 11, 120
8, 343910, Control_c, 2, 11, 118
8, 343919, Note_on_c, 2, 77, 0
8, 343920, Note_on_c, 2, 75, 52
8, 343960, Control_c, 2, 11, 117
8, 344010, Control_c, 2, 11, 116
8, 344060, Control_c, 2, 11, 115
8, 344129, Note_on_c, 2, 75, 0
8, 344145, Control_c, 2, 11, 96
8, 344160, Note_on_c, 2, 73, 60
8, 344160, Control_c, 2, 11, 96
8, 344280, Control_c, 2, 11, 99
8, 344400, Control_c, 2, 11, 101
8, 344520, Control_c, 2, 11, 104
8, 344640, Control_c, 2, 11, 106
8, 344760, Control_c, 2, 11, 109
8, 344880, Control_c, 2, 11, 112
8, 344999, Note_on_c, 2, 73, 0
8, 345000, Note_on_c, 2, 71, 60
8, 345000, Control_c, 2, 11, 114
8, 345119, Note_on_c, 2, 71, 0
8, 345120, Control_c, 2, 11, 117
8, 345120, Note_on_c, 2, 70, 60
8, 345239, Note_on_c, 2, 70, 0
8, 345240, Control_c, 2, 11, 119
8, 345240, Note_on_c, 2, 71, 60
8, 345359, Note_on_c, 2, 71, 0
8, 345360, Note_on_c, 2, 73, 60
8, 345360, Control_c, 2, 11, 122
8, 345479, Note_on_c, 2, 73, 0
8, 345480, Control_c, 2, 11, 127
8, 345480, Note_on_c, 2, 71, 60
8, 345584, Note_on_c, 2, 71, 0
8, 345600, Note_on_c, 2, 70, 52
8, 345839, Note_on_c, 2, 70, 0
8, 352080, Note_on_c, 2, 70, 52
8, 352559, Note_on_c, 2, 70, 0
8, 352560, Note_on_c, 2, 74, 52
8, 352799, Note_on_c, 2, 74, 0
8, 352800, Note_on_c, 2, 70, 52
8, 353279, Note_on_c, 2, 70, 0
8, 353280, Note_on_c, 2, 65, 52
8, 353504, Note_on_c, 2, 65, 0
8, 353520, Note_on_c, 2, 70, 52
8, 353759, Note_on_c, 2, 70, 0
8, 353760, Note_on_c, 2, 74, 52
8, 353999, Note_on_c, 2, 74, 0
8, 354000, Note_on_c, 2, 77, 52
8, 354239, Note_on_c, 2, 77, 0
8, 354240, Note_on_c, 2, 78, 52
8, 354479, Note_on_c, 2, 78, 0
8, 354960, Note_on_c, 2, 70, 52
8, 354960, Note_on_c, 2, 66, 52
8, 355439, Note_on_c, 2, 70, 0
8, 355439, Note_on_c, 2, 66, 0
8, 355440, Note_on_c, 2, 75, 52
8, 355440, Note_on_c, 2, 70, 52
8, 355679, Note_on_c, 2, 75, 0
8, 355679, Note_on_c, 2, 70, 0
8, 355680, Note_on_c, 2, 70, 52
8, 355680, Note_on_c, 2, 66, 52
8, 356159, Note_on_c, 2, 70, 0
8, 356159, Note_on_c, 2, 66, 0
8, 356160, Note_on_c, 2, 66, 52
8, 356160, Note_on_c, 2, 63, 52
8, 356384, Note_on_c, 2, 66, 0
8, 356384, Note_on_c, 2, 63, 0
8, 356400, Note_on_c, 2, 70, 52
8, 356400, Note_on_c, 2, 66, 52
8, 356639, Note_on_c, 2, 70, 0
8, 356639, Note_on_c, 2, 66, 0
8, 356640, Note_on_c, 2, 75, 52
8, 356640, Note_on_c, 2, 70, 52
8, 356879, Note_on_c, 2, 75, 0
8, 356879, Note_on_c, 2, 70, 0
8, 356880, Note_on_c, 2, 78, 52
8, 356880, Note_on_c, 2, 75, 52
8, 357104, Note_on_c, 2, 78, 0
8, 357104, Note_on_c, 2, 75, 0
8, 357120, Note_on_c, 2, 78, 52
8, 357120, Note_on_c, 2, 75, 52
8, 357359, Note_on_c, 2, 78, 0
8, 357359, Note_on_c, 2, 75, 0
8, 357840, Note_on_c, 2, 68, 52
8, 358319, Note_on_c, 2, 68, 0
8, 358320, Note_on_c, 2, 75, 52
8, 358559, Note_on_c, 2, 75, 0
8, 358560, Note_on_c, 2, 68, 52
8, 359039, Note_on_c, 2, 68, 0
8, 359040, Note_on_c, 2, 66, 52
8, 359264, Note_on_c, 2, 66, 0
8, 359280, Note_on_c, 2, 68, 52
8, 359519, Note_on_c, 2, 68, 0
8, 359520, Note_on_c, 2, 75, 52
8, 359759, Note_on_c, 2, 75, 0
8, 359760, Note_on_c, 2, 78, 52
8, 359760, Note_on_c, 2, 75, 52
8, 359984, Note_on_c, 2, 78, 0
8, 359984, Note_on_c, 2, 75, 0
8, 360000, Note_on_c, 2, 77, 52
8, 360000, Note_on_c, 2, 73, 52
8, 360239, Note_on_c, 2, 77, 0
8, 360239, Note_on_c, 2, 73, 0
8, 360720, Note_on_c, 2, 73, 52
8, 360720, Note_on_c, 2, 68, 52
8, 361199, Note_on_c, 2, 73, 0
8, 361199, Note_on_c, 2, 68, 0
8, 361200, Note_on_c, 2, 77, 52
8, 361200, Note_on_c, 2, 68, 52
8, 361439, Note_on_c, 2, 77, 0
8, 361439, Note_on_c, 2, 68, 0
8, 361440, Note_on_c, 2, 73, 52
8, 361440, Note_on_c, 2, 68, 52
8, 361919, Note_on_c, 2, 73, 0
8, 361919, Note_on_c, 2, 68, 0
8, 361920, Note_on_c, 2, 68, 52
8, 361920, Note_on_c, 2, 65, 52
8, 362144, Note_on_c, 2, 68, 0
8, 362144, Note_on_c, 2, 65, 0
8, 362160, Note_on_c, 2, 68, 52
8, 362160, Note_on_c, 2, 65, 52
8, 362399, Note_on_c, 2, 68, 0
8, 362399, Note_on_c, 2, 65, 0
8, 362400, Note_on_c, 2, 73, 52
8, 362400, Note_on_c, 2, 68, 52
8, 362639, Note_on_c, 2, 73, 0
8, 362639, Note_on_c, 2, 68, 0
8, 362640, Note_on_c, 2, 77, 52
8, 362640, Note_on_c, 2, 73, 52
8, 362864, Note_on_c, 2, 77, 0
8, 362864, Note_on_c, 2, 73, 0
8, 362880, Note_on_c, 2, 77, 52
8, 362880, Note_on_c, 2, 70, 52
8, 363119, Note_on_c, 2, 77, 0
8, 363119, Note_on_c, 2, 70, 0
8, 363360, Control_c, 2, 11, 96
8, 363600, Note_on_c, 2, 70, 68
8, 363600, Note_on_c, 2, 68, 68
8, 363600, Control_c, 2, 11, 96
8, 363780, Control_c, 2, 11, 99
8, 363960, Control_c, 2, 11, 101
8, 364079, Note_on_c, 2, 70, 0
8, 364079, Note_on_c, 2, 68, 0
8, 364080, Note_on_c, 2, 70, 68
8, 364080, Note_on_c, 2, 77, 68
8, 364140, Control_c, 2, 11, 104
8, 364319, Note_on_c, 2, 70, 0
8, 364319, Note_on_c, 2, 77, 0
8, 364320, Control_c, 2, 11, 106
8, 364320, Note_on_c, 2, 70, 68
8, 364320, Note_on_c, 2, 68, 68
8, 364500, Control_c, 2, 11, 109
8, 364680, Control_c, 2, 11, 112
8, 364799, Note_on_c, 2, 70, 0
8, 364799, Note_on_c, 2, 68, 0
8, 364800, Note_on_c, 2, 68, 68
8, 364800, Note_on_c, 2, 65, 68
8, 364860, Control_c, 2, 11, 114
8, 365024, Note_on_c, 2, 68, 0
8, 365024, Note_on_c, 2, 65, 0
8, 365040, Note_on_c, 2, 70, 68
8, 365040, Control_c, 2, 11, 117
8, 365040, Note_on_c, 2, 68, 68
8, 365220, Control_c, 2, 11, 119
8, 365279, Note_on_c, 2, 70, 0
8, 365279, Note_on_c, 2, 68, 0
8, 365280, Note_on_c, 2, 77, 68
8, 365280, Note_on_c, 2, 70, 68
8, 365400, Control_c, 2, 11, 122
8, 365519, Note_on_c, 2, 77, 0
8, 365519, Note_on_c, 2, 70, 0
8, 365520, Note_on_c, 2, 77, 68
8, 365520, Note_on_c, 2, 80, 68
8, 365580, Control_c, 2, 11, 127
8, 365759, Note_on_c, 2, 77, 0
8, 365759, Note_on_c, 2, 80, 0
8, 366480, Note_on_c, 2, 75, 76
8, 366480, Note_on_c, 2, 63, 76
8, 366959, Note_on_c, 2, 75, 0
8, 366959, Note_on_c, 2, 63, 0
8, 366960, Note_on_c, 2, 78, 68
8, 366960, Note_on_c, 2, 66, 68
8, 367199, Note_on_c, 2, 78, 0
8, 367199, Note_on_c, 2, 66, 0
8, 367920, Note_on_c, 2, 75, 76
8, 367920, Note_on_c, 2, 63, 76
8, 368399, Note_on_c, 2, 75, 0
8, 368399, Note_on_c, 2, 63, 0
8, 368400, Note_on_c, 2, 78, 68
8, 368400, Note_on_c, 2, 66, 68
8, 368624, Note_on_c, 2, 78, 0
8, 368624, Note_on_c, 2, 66, 0
8, 368640, Note_on_c, 2, 75, 84
8, 368640, Note_on_c, 2, 66, 84
8, 370304, Note_on_c, 2, 75, 0
8, 370304, Note_on_c, 2, 66, 0
8, 370320, Note_on_c, 2, 75, 84
8, 370320, Note_on_c, 2, 66, 84
8, 370544, Note_on_c, 2, 75, 0
8, 370544, Note_on_c, 2, 66, 0
8, 370560, Note_on_c, 2, 75, 84
8, 370560, Note_on_c, 2, 66, 84
8, 370784, Note_on_c, 2, 75, 0
8, 370784, Note_on_c, 2, 66, 0
8, 370800, Note_on_c, 2, 75, 84
8, 370800, Note_on_c, 2, 66, 84
8, 371024, Note_on_c, 2, 75, 0
8, 371024, Note_on_c, 2, 66, 0
8, 371040, Note_on_c, 2, 75, 84
8, 371040, Note_on_c, 2, 66, 84
8, 371264, Note_on_c, 2, 75, 0
8, 371264, Note_on_c, 2, 66, 0
8, 371280, Note_on_c, 2, 75, 84
8, 371280, Note_on_c, 2, 66, 84
8, 371504, Note_on_c, 2, 75, 0
8, 371504, Note_on_c, 2, 66, 0
8, 371520, Note_on_c, 2, 75, 84
8, 371520, Note_on_c, 2, 66, 84
8, 371744, Note_on_c, 2, 75, 0
8, 371744, Note_on_c, 2, 66, 0
8, 374400, Note_on_c, 2, 69, 52
8, 375104, Note_on_c, 2, 69, 0
8, 375120, Note_on_c, 2, 69, 52
8, 375824, Note_on_c, 2, 69, 0
8, 375840, Note_on_c, 2, 69, 52
8, 376544, Note_on_c, 2, 69, 0
8, 376560, Note_on_c, 2, 69, 52
8, 377264, Note_on_c, 2, 69, 0
8, 377280, Note_on_c, 2, 68, 52
8, 377280, Control_c, 2, 11, 127
8, 377520, Control_c, 2, 11, 126
8, 377760, Control_c, 2, 11, 125
8, 377984, Note_on_c, 2, 68, 0
8, 378000, Control_c, 2, 11, 123
8, 378000, Note_on_c, 2, 67, 52
8, 378240, Control_c, 2, 11, 122
8, 378480, Control_c, 2, 11, 121
8, 378704, Note_on_c, 2, 67, 0
8, 378720, Note_on_c, 2, 66, 52
8, 378720, Control_c, 2, 11, 120
8, 378960, Control_c, 2, 11, 118
8, 379200, Control_c, 2, 11, 117
8, 379424, Note_on_c, 2, 66, 0
8, 379440, Control_c, 2, 11, 116
8, 379440, Note_on_c, 2, 66, 52
8, 379680, Control_c, 2, 11, 115
8, 379920, Control_c, 2, 11, 112
8, 380144, Note_on_c, 2, 66, 0
8, 380160, Note_on_c, 2, 68, 52
8, 380160, Note_on_c, 2, 65, 52
8, 380864, Note_on_c, 2, 68, 0
8, 380864, Note_on_c, 2, 65, 0
8, 380880, Note_on_c, 2, 68, 52
8, 380880, Note_on_c, 2, 65, 52
8, 381584, Note_on_c, 2, 68, 0
8, 381584, Note_on_c, 2, 65, 0
8, 381600, Note_on_c, 2, 65, 52
8, 381600, Note_on_c, 2, 68, 52
8, 382304, Note_on_c, 2, 65, 0
8, 382304, Note_on_c, 2, 68, 0
8, 382320, Note_on_c, 2, 65, 52
8, 382320, Note_on_c, 2, 68, 52
8, 383039, Note_on_c, 2, 65, 0
8, 383039, Note_on_c, 2, 68, 0
8, 384240, Control_c, 2, 11, 127
8, 384480, Note_on_c, 2, 71, 44
8, 384480, Note_on_c, 2, 68, 44
8, 385184, Note_on_c, 2, 71, 0
8, 385184, Note_on_c, 2, 68, 0
8, 385200, Note_on_c, 2, 71, 44
8, 385200, Note_on_c, 2, 68, 44
8, 385919, Note_on_c, 2, 71, 0
8, 385919, Note_on_c, 2, 68, 0
8, 387360, Note_on_c, 2, 70, 44
8, 387360, Note_on_c, 2, 68, 44
8, 388064, Note_on_c, 2, 70, 0
8, 388064, Note_on_c, 2, 68, 0
8, 388080, Note_on_c, 2, 70, 44
8, 388080, Note_on_c, 2, 68, 44
8, 388799, Note_on_c, 2, 70, 0
8, 388799, Note_on_c, 2, 68, 0
8, 393120, Note_on_c, 2, 68, 76
8, 393120, Note_on_c, 2, 65, 76
8, 393824, Note_on_c, 2, 68, 0
8, 393824, Note_on_c, 2, 65, 0
8, 393840, Note_on_c, 2, 77, 84
8, 393840, Note_on_c, 2, 68, 84
8, 394544, Note_on_c, 2, 77, 0
8, 394544, Note_on_c, 2, 68, 0
8, 394560, Note_on_c, 2, 75, 84
8, 394560, Note_on_c, 2, 67, 84
8, 394799, Note_on_c, 2, 75, 0
8, 394799, Note_on_c, 2, 67, 0
8, 407520, Note_on_c, 2, 68, 52
8, 407520, Note_on_c, 2, 65, 52
8, 410384, Note_on_c, 2, 68, 0
8, 410384, Note_on_c, 2, 65, 0
8, 410400, Note_on_c, 2, 68, 52
8, 410400, Note_on_c, 2, 66, 52
8, 411600, Control_c, 2, 11, 96
8, 411809, Note_on_c, 2, 68, 0
8, 411809, Note_on_c, 2, 66, 0
8, 411840, Note_on_c, 2, 68, 68
8, 411840, Note_on_c, 2, 65, 68
8, 411840, Control_c, 2, 11, 96
8, 411900, Control_c, 2, 11, 99
8, 411960, Control_c, 2, 11, 101
8, 412020, Control_c, 2, 11, 104
8, 412080, Control_c, 2, 11, 106
8, 412140, Control_c, 2, 11, 109
8, 412200, Control_c, 2, 11, 112
8, 412260, Control_c, 2, 11, 114
8, 412320, Control_c, 2, 11, 117
8, 412380, Control_c, 2, 11, 119
8, 412440, Control_c, 2, 11, 122
8, 412500, Control_c, 2, 11, 124
8, 412559, Note_on_c, 2, 65, 0
8, 412560, Note_on_c, 2, 63, 68
8, 412560, Control_c, 2, 11, 127
8, 412620, Control_c, 2, 11, 123
8, 412680, Control_c, 2, 11, 119
8, 412740, Control_c, 2, 11, 115
8, 412800, Control_c, 2, 11, 111
8, 412860, Control_c, 2, 11, 107
8, 412920, Control_c, 2, 11, 104
8, 412980, Control_c, 2, 11, 100
8, 413040, Control_c, 2, 11, 96
8, 413100, Control_c, 2, 11, 92
8, 413160, Control_c, 2, 11, 88
8, 413220, Control_c, 2, 11, 80
8, 413279, Note_on_c, 2, 63, 0
8, 413280, Note_on_c, 2, 62, 68
8, 413519, Note_on_c, 2, 68, 0
8, 413519, Note_on_c, 2, 62, 0
8, 414720, Control_c, 2, 11, 127
8, 415920, Note_on_c, 2, 72, 57
8, 416009, Note_on_c, 2, 72, 0
8, 416040, Note_on_c, 2, 70, 58
8, 416129, Note_on_c, 2, 70, 0
8, 416160, Note_on_c, 2, 68, 60
8, 416249, Note_on_c, 2, 68, 0
8, 416280, Note_on_c, 2, 70, 61
8, 416369, Note_on_c, 2, 70, 0
8, 416400, Note_on_c, 2, 68, 62
8, 416489, Note_on_c, 2, 68, 0
8, 416520, Note_on_c, 2, 67, 64
8, 416609, Note_on_c, 2, 67, 0
8, 416640, Note_on_c, 2, 68, 65
8, 416729, Note_on_c, 2, 68, 0
8, 416760, Note_on_c, 2, 67, 66
8, 416849, Note_on_c, 2, 67, 0
8, 416880, Note_on_c, 2, 65, 68
8, 416969, Note_on_c, 2, 65, 0
8, 417000, Note_on_c, 2, 63, 69
8, 417089, Note_on_c, 2, 63, 0
8, 417120, Note_on_c, 2, 62, 70
8, 417209, Note_on_c, 2, 62, 0
8, 417240, Note_on_c, 2, 63, 72
8, 417329, Note_on_c, 2, 63, 0
8, 417360, Note_on_c, 2, 65, 73
8, 417449, Note_on_c, 2, 65, 0
8, 417480, Note_on_c, 2, 68, 74
8, 417569, Note_on_c, 2, 68, 0
8, 417600, Note_on_c, 2, 67, 76
8, 417824, Note_on_c, 2, 67, 0
8, 417840, Note_on_c, 2, 70, 76
8, 417840, Note_on_c, 2, 67, 76
8, 418064, Note_on_c, 2, 70, 0
8, 418064, Note_on_c, 2, 67, 0
8, 418080, Note_on_c, 2, 70, 76
8, 418080, Note_on_c, 2, 67, 76
8, 418304, Note_on_c, 2, 70, 0
8, 418304, Note_on_c, 2, 67, 0
8, 418320, Note_on_c, 2, 70, 76
8, 418320, Note_on_c, 2, 67, 76
8, 418784, Note_on_c, 2, 70, 0
8, 418784, Note_on_c, 2, 67, 0
8, 418800, Note_on_c, 2, 70, 76
8, 418800, Note_on_c, 2, 67, 76
8, 419024, Note_on_c, 2, 70, 0
8, 419024, Note_on_c, 2, 67, 0
8, 419040, Note_on_c, 2, 70, 76
8, 419040, Note_on_c, 2, 67, 76
8, 419264, Note_on_c, 2, 70, 0
8, 419264, Note_on_c, 2, 67, 0
8, 419280, Note_on_c, 2, 70, 76
8, 419280, Note_on_c, 2, 67, 76
8, 419504, Note_on_c, 2, 70, 0
8, 419504, Note_on_c, 2, 67, 0
8, 419520, Note_on_c, 2, 70, 76
8, 419520, Note_on_c, 2, 67, 76
8, 419744, Note_on_c, 2, 70, 0
8, 419744, Note_on_c, 2, 67, 0
8, 419760, Note_on_c, 2, 70, 76
8, 419760, Note_on_c, 2, 67, 76
8, 420224, Note_on_c, 2, 70, 0
8, 420224, Note_on_c, 2, 67, 0
8, 420240, Note_on_c, 2, 70, 84
8, 420240, Note_on_c, 2, 67, 84
8, 420464, Note_on_c, 2, 70, 0
8, 420464, Note_on_c, 2, 67, 0
8, 420480, Note_on_c, 2, 72, 76
8, 420480, Note_on_c, 2, 68, 76
8, 420704, Note_on_c, 2, 72, 0
8, 420704, Note_on_c, 2, 68, 0
8, 420720, Note_on_c, 2, 72, 76
8, 420720, Note_on_c, 2, 68, 76
8, 420944, Note_on_c, 2, 72, 0
8, 420944, Note_on_c, 2, 68, 0
8, 420960, Note_on_c, 2, 72, 76
8, 420960, Note_on_c, 2, 68, 76
8, 421184, Note_on_c, 2, 72, 0
8, 421184, Note_on_c, 2, 68, 0
8, 421200, Note_on_c, 2, 72, 76
8, 421200, Note_on_c, 2, 68, 76
8, 421664, Note_on_c, 2, 72, 0
8, 421664, Note_on_c, 2, 68, 0
8, 421680, Note_on_c, 2, 72, 84
8, 421680, Note_on_c, 2, 69, 84
8, 421904, Note_on_c, 2, 72, 0
8, 421904, Note_on_c, 2, 69, 0
8, 421920, Note_on_c, 2, 73, 80
8, 421920, Note_on_c, 2, 70, 80
8, 422624, Note_on_c, 2, 73, 0
8, 422624, Note_on_c, 2, 70, 0
8, 422640, Note_on_c, 2, 72, 80
8, 422640, Note_on_c, 2, 68, 80
8, 423344, Note_on_c, 2, 72, 0
8, 423344, Note_on_c, 2, 68, 0
8, 423360, Note_on_c, 2, 71, 80
8, 423360, Note_on_c, 2, 68, 80
8, 424304, Note_on_c, 2, 71, 0
8, 424304, Note_on_c, 2, 68, 0
8, 424320, Note_on_c, 2, 70, 80
8, 424320, Note_on_c, 2, 68, 80
8, 424544, Note_on_c, 2, 70, 0
8, 424544, Note_on_c, 2, 68, 0
8, 424560, Note_on_c, 2, 70, 80
8, 424560, Note_on_c, 2, 68, 80
8, 424784, Note_on_c, 2, 70, 0
8, 424784, Note_on_c, 2, 68, 0
8, 424800, Note_on_c, 2, 70, 84
8, 424800, Note_on_c, 2, 67, 84
8, 425264, Note_on_c, 2, 70, 0
8, 425264, Note_on_c, 2, 67, 0
8, 425280, Note_on_c, 2, 75, 92
8, 425280, Note_on_c, 2, 67, 92
8, 425504, Note_on_c, 2, 75, 0
8, 425504, Note_on_c, 2, 67, 0
8, 425520, Note_on_c, 2, 75, 84
8, 425520, Note_on_c, 2, 67, 84
8, 425984, Note_on_c, 2, 75, 0
8, 425984, Note_on_c, 2, 67, 0
8, 426000, Note_on_c, 2, 75, 92
8, 426000, Note_on_c, 2, 67, 92
8, 426464, Note_on_c, 2, 75, 0
8, 426464, Note_on_c, 2, 67, 0
8, 426480, Note_on_c, 2, 75, 84
8, 426480, Note_on_c, 2, 67, 84
8, 426704, Note_on_c, 2, 75, 0
8, 426704, Note_on_c, 2, 67, 0
8, 426720, Note_on_c, 2, 75, 84
8, 426720, Note_on_c, 2, 67, 84
8, 426944, Note_on_c, 2, 75, 0
8, 426944, Note_on_c, 2, 67, 0
8, 426960, Note_on_c, 2, 75, 84
8, 426960, Note_on_c, 2, 67, 84
8, 427424, Note_on_c, 2, 75, 0
8, 427424, Note_on_c, 2, 67, 0
8, 427440, Note_on_c, 2, 75, 92
8, 427440, Note_on_c, 2, 67, 92
8, 427904, Note_on_c, 2, 75, 0
8, 427904, Note_on_c, 2, 67, 0
8, 427920, Note_on_c, 2, 75, 84
8, 427920, Note_on_c, 2, 67, 84
8, 428144, Note_on_c, 2, 75, 0
8, 428144, Note_on_c, 2, 67, 0
8, 428160, Note_on_c, 2, 75, 84
8, 428160, Note_on_c, 2, 67, 84
8, 428384, Note_on_c, 2, 75, 0
8, 428384, Note_on_c, 2, 67, 0
8, 428400, Note_on_c, 2, 75, 84
8, 428400, Note_on_c, 2, 67, 84
8, 428864, Note_on_c, 2, 75, 0
8, 428864, Note_on_c, 2, 67, 0
8, 428880, Note_on_c, 2, 76, 92
8, 428880, Note_on_c, 2, 67, 92
8, 429104, Note_on_c, 2, 76, 0
8, 429104, Note_on_c, 2, 67, 0
8, 429120, Note_on_c, 2, 77, 84
8, 429120, Note_on_c, 2, 72, 84
8, 429824, Note_on_c, 2, 77, 0
8, 429824, Note_on_c, 2, 72, 0
8, 429840, Note_on_c, 2, 75, 84
8, 429840, Note_on_c, 2, 72, 84
8, 430544, Note_on_c, 2, 75, 0
8, 430544, Note_on_c, 2, 72, 0
8, 430560, Note_on_c, 2, 74, 84
8, 430560, Note_on_c, 2, 70, 84
8, 430799, Note_on_c, 2, 74, 0
8, 430799, Note_on_c, 2, 70, 0
8, 432240, Note_on_c, 2, 80, 52
8, 432599, Note_on_c, 2, 80, 0
8, 432600, Note_on_c, 2, 77, 52
8, 432719, Note_on_c, 2, 77, 0
8, 432720, Note_on_c, 2, 74, 52
8, 432959, Note_on_c, 2, 74, 0
8, 435120, Note_on_c, 2, 79, 52
8, 435479, Note_on_c, 2, 79, 0
8, 435480, Note_on_c, 2, 75, 52
8, 435599, Note_on_c, 2, 75, 0
8, 435600, Note_on_c, 2, 70, 52
8, 435839, Note_on_c, 2, 70, 0
8, 436560, Note_on_c, 2, 71, 68
8, 436919, Note_on_c, 2, 71, 0
8, 436920, Note_on_c, 2, 70, 52
8, 437039, Note_on_c, 2, 70, 0
8, 437040, Note_on_c, 2, 68, 52
8, 437264, Note_on_c, 2, 68, 0
8, 437280, Note_on_c, 2, 71, 68
8, 437639, Note_on_c, 2, 71, 0
8, 437640, Note_on_c, 2, 70, 52
8, 437759, Note_on_c, 2, 70, 0
8, 437760, Note_on_c, 2, 68, 52
8, 437999, Note_on_c, 2, 68, 0
8, 438960, Control_c, 2, 11, 96
8, 439200, Note_on_c, 2, 67, 68
8, 439200, Note_on_c, 2, 63, 68
8, 439200, Control_c, 2, 11, 96
8, 439260, Control_c, 2, 11, 99
8, 439320, Control_c, 2, 11, 101
8, 439380, Control_c, 2, 11, 104
8, 439440, Control_c, 2, 11, 106
8, 439500, Control_c, 2, 11, 109
8, 439560, Control_c, 2, 11, 112
8, 439620, Control_c, 2, 11, 114
8, 439679, Note_on_c, 2, 67, 0
8, 439679, Note_on_c, 2, 63, 0
8, 439680, Note_on_c, 2, 68, 68
8, 439680, Control_c, 2, 11, 117
8, 439680, Note_on_c, 2, 65, 68
8, 439740, Control_c, 2, 11, 119
8, 439799, Note_on_c, 2, 68, 0
8, 439799, Note_on_c, 2, 65, 0
8, 439800, Note_on_c, 2, 70, 68
8, 439800, Note_on_c, 2, 67, 68
8, 439800, Control_c, 2, 11, 122
8, 439860, Control_c, 2, 11, 124
8, 439919, Note_on_c, 2, 70, 0
8, 439919, Note_on_c, 2, 67, 0
8, 439920, Note_on_c, 2, 72, 68
8, 439920, Note_on_c, 2, 68, 68
8, 439920, Control_c, 2, 11, 127
8, 439980, Control_c, 2, 11, 124
8, 440040, Control_c, 2, 11, 122
8, 440100, Control_c, 2, 11, 119
8, 440159, Note_on_c, 2, 72, 0
8, 440159, Note_on_c, 2, 68, 0
8, 440160, Note_on_c, 2, 74, 68
8, 440160, Note_on_c, 2, 70, 68
8, 440160, Control_c, 2, 11, 117
8, 440220, Control_c, 2, 11, 114
8, 440280, Control_c, 2, 11, 112
8, 440340, Control_c, 2, 11, 109
8, 440399, Note_on_c, 2, 74, 0
8, 440399, Note_on_c, 2, 70, 0
8, 440400, Note_on_c, 2, 75, 68
8, 440400, Control_c, 2, 11, 106
8, 440400, Note_on_c, 2, 72, 68
8, 440460, Control_c, 2, 11, 104
8, 440520, Control_c, 2, 11, 101
8, 440580, Control_c, 2, 11, 96
8, 440624, Note_on_c, 2, 75, 0
8, 440624, Note_on_c, 2, 72, 0
8, 440640, Note_on_c, 2, 75, 68
8, 440640, Note_on_c, 2, 70, 68
8, 440879, Note_on_c, 2, 75, 0
8, 440879, Note_on_c, 2, 70, 0
8, 441000, Note_on_c, 2, 63, 68
8, 441000, Note_on_c, 2, 58, 68
8, 441119, Note_on_c, 2, 63, 0
8, 441119, Note_on_c, 2, 58, 0
8, 441120, Note_on_c, 2, 65, 68
8, 441120, Note_on_c, 2, 62, 68
8, 441239, Note_on_c, 2, 65, 0
8, 441239, Note_on_c, 2, 62, 0
8, 441240, Note_on_c, 2, 67, 68
8, 441240, Note_on_c, 2, 63, 68
8, 441344, Note_on_c, 2, 67, 0
8, 441344, Note_on_c, 2, 63, 0
8, 441360, Note_on_c, 2, 68, 68
8, 441360, Note_on_c, 2, 65, 68
8, 441569, Note_on_c, 2, 68, 0
8, 441569, Note_on_c, 2, 65, 0
8, 441600, Note_on_c, 2, 68, 68
8, 441600, Note_on_c, 2, 65, 68
8, 441809, Note_on_c, 2, 68, 0
8, 441809, Note_on_c, 2, 65, 0
8, 441840, Note_on_c, 2, 68, 68
8, 441840, Note_on_c, 2, 65, 68
8, 442049, Note_on_c, 2, 68, 0
8, 442049, Note_on_c, 2, 65, 0
8, 442080, Note_on_c, 2, 67, 68
8, 442080, Note_on_c, 2, 63, 68
8, 442319, Note_on_c, 2, 67, 0
8, 442319, Note_on_c, 2, 63, 0
8, 444720, Control_c, 2, 11, 127
8, 444960, Note_on_c, 2, 74, 76
8, 444960, Note_on_c, 2, 65, 76
8, 445139, Note_on_c, 2, 74, 0
8, 445139, Note_on_c, 2, 65, 0
8, 445200, Note_on_c, 2, 74, 76
8, 445200, Note_on_c, 2, 68, 76
8, 445379, Note_on_c, 2, 74, 0
8, 445379, Note_on_c, 2, 68, 0
8, 446280, Note_on_c, 2, 74, 76
8, 446280, Note_on_c, 2, 68, 76
8, 446384, Note_on_c, 2, 74, 0
8, 446384, Note_on_c, 2, 68, 0
8, 446400, Note_on_c, 2, 75, 76
8, 446400, Note_on_c, 2, 67, 76
8, 446579, Note_on_c, 2, 75, 0
8, 446579, Note_on_c, 2, 67, 0
8, 446640, Note_on_c, 2, 75, 76
8, 446640, Note_on_c, 2, 67, 76
8, 446819, Note_on_c, 2, 75, 0
8, 446819, Note_on_c, 2, 67, 0
8, 447720, Note_on_c, 2, 72, 76
8, 447720, Note_on_c, 2, 67, 76
8, 447824, Note_on_c, 2, 72, 0
8, 447824, Note_on_c, 2, 67, 0
8, 447840, Note_on_c, 2, 73, 76
8, 447840, Note_on_c, 2, 67, 76
8, 448019, Note_on_c, 2, 73, 0
8, 448019, Note_on_c, 2, 67, 0
8, 448080, Note_on_c, 2, 73, 76
8, 448080, Note_on_c, 2, 67, 76
8, 448259, Note_on_c, 2, 73, 0
8, 448259, Note_on_c, 2, 67, 0
8, 449160, Note_on_c, 2, 73, 76
8, 449160, Note_on_c, 2, 67, 76
8, 449249, Note_on_c, 2, 73, 0
8, 449249, Note_on_c, 2, 67, 0
8, 449280, Note_on_c, 2, 72, 76
8, 449280, Note_on_c, 2, 68, 76
8, 449369, Note_on_c, 2, 72, 0
8, 449369, Note_on_c, 2, 68, 0
8, 454800, Control_c, 2, 11, 112
8, 455040, Note_on_c, 2, 70, 84
8, 455040, Note_on_c, 2, 58, 84
8, 455040, Control_c, 2, 11, 112
8, 455160, Control_c, 2, 11, 113
8, 455280, Control_c, 2, 11, 115
8, 455400, Control_c, 2, 11, 116
8, 455520, Control_c, 2, 11, 117
8, 455640, Control_c, 2, 11, 118
8, 455760, Control_c, 2, 11, 120
8, 455880, Control_c, 2, 11, 121
8, 456000, Control_c, 2, 11, 122
8, 456120, Control_c, 2, 11, 123
8, 456240, Control_c, 2, 11, 125
8, 456360, Control_c, 2, 11, 127
8, 456569, Note_on_c, 2, 70, 0
8, 456569, Note_on_c, 2, 58, 0
8, 456600, Note_on_c, 2, 69, 84
8, 456689, Note_on_c, 2, 69, 0
8, 456720, Note_on_c, 2, 68, 84
8, 456809, Note_on_c, 2, 68, 0
8, 456840, Note_on_c, 2, 67, 84
8, 456929, Note_on_c, 2, 67, 0
8, 456960, Note_on_c, 2, 65, 84
8, 457049, Note_on_c, 2, 65, 0
8, 457080, Note_on_c, 2, 63, 84
8, 457169, Note_on_c, 2, 63, 0
8, 457200, Note_on_c, 2, 62, 84
8, 457289, Note_on_c, 2, 62, 0
8, 457320, Note_on_c, 2, 72, 84
8, 457409, Note_on_c, 2, 72, 0
8, 457440, Note_on_c, 2, 70, 84
8, 457529, Note_on_c, 2, 70, 0
8, 457560, Note_on_c, 2, 68, 84
8, 457649, Note_on_c, 2, 68, 0
8, 457680, Note_on_c, 2, 67, 84
8, 457769, Note_on_c, 2, 67, 0
8, 457800, Note_on_c, 2, 65, 84
8, 457889, Note_on_c, 2, 65, 0
8, 457920, Note_on_c, 2, 63, 84
8, 458129, Note_on_c, 2, 63, 0
8, 458145, Control_c, 2, 11, 96
8, 458160, Note_on_c, 2, 79, 68
8, 458160, Note_on_c, 2, 70, 68
8, 458369, Note_on_c, 2, 79, 0
8, 458369, Note_on_c, 2, 70, 0
8, 458400, Note_on_c, 2, 79, 68
8, 458400, Note_on_c, 2, 70, 68
8, 458609, Note_on_c, 2, 79, 0
8, 458609, Note_on_c, 2, 70, 0
8, 458640, Note_on_c, 2, 79, 68
8, 458640, Note_on_c, 2, 70, 68
8, 458640, Control_c, 2, 11, 96
8, 458740, Control_c, 2, 11, 99
8, 458840, Control_c, 2, 11, 101
8, 458849, Note_on_c, 2, 79, 0
8, 458849, Note_on_c, 2, 70, 0
8, 458880, Note_on_c, 2, 70, 68
8, 458880, Note_on_c, 2, 79, 68
8, 458940, Control_c, 2, 11, 104
8, 459040, Control_c, 2, 11, 106
8, 459089, Note_on_c, 2, 70, 0
8, 459089, Note_on_c, 2, 79, 0
8, 459120, Note_on_c, 2, 70, 68
8, 459120, Note_on_c, 2, 79, 68
8, 459140, Control_c, 2, 11, 109
8, 459240, Control_c, 2, 11, 112
8, 459329, Note_on_c, 2, 70, 0
8, 459329, Note_on_c, 2, 79, 0
8, 459340, Control_c, 2, 11, 114
8, 459360, Note_on_c, 2, 79, 68
8, 459360, Note_on_c, 2, 70, 68
8, 459440, Control_c, 2, 11, 117
8, 459540, Control_c, 2, 11, 119
8, 459569, Note_on_c, 2, 79, 0
8, 459569, Note_on_c, 2, 70, 0
8, 459600, Note_on_c, 2, 79, 68
8, 459600, Note_on_c, 2, 70, 68
8, 459640, Control_c, 2, 11, 122
8, 459740, Control_c, 2, 11, 127
8, 459809, Note_on_c, 2, 79, 0
8, 459809, Note_on_c, 2, 70, 0
8, 459840, Note_on_c, 2, 79, 76
8, 459840, Note_on_c, 2, 71, 76
8, 460079, Note_on_c, 2, 71, 0
8, 460080, Note_on_c, 2, 72, 76
8, 460080, Control_c, 2, 11, 112
8, 460140, Control_c, 2, 11, 109
8, 460200, Control_c, 2, 11, 107
8, 460260, Control_c, 2, 11, 104
8, 460320, Control_c, 2, 11, 101
8, 460380, Control_c, 2, 11, 99
8, 460440, Control_c, 2, 11, 96
8, 460500, Control_c, 2, 11, 93
8, 460559, Note_on_c, 2, 79, 0
8, 460560, Note_on_c, 2, 77, 76
8, 460560, Control_c, 2, 11, 91
8, 460620, Control_c, 2, 11, 88
8, 460680, Control_c, 2, 11, 85
8, 460740, Control_c, 2, 11, 80
8, 460799, Note_on_c, 2, 72, 0
8, 460799, Note_on_c, 2, 77, 0
8, 463680, Control_c, 2, 11, 96
8, 463920, Note_on_c, 2, 70, 68
8, 463920, Note_on_c, 2, 78, 68
8, 464129, Note_on_c, 2, 70, 0
8, 464129, Note_on_c, 2, 78, 0
8, 464160, Note_on_c, 2, 78, 68
8, 464160, Note_on_c, 2, 70, 68
8, 464369, Note_on_c, 2, 78, 0
8, 464369, Note_on_c, 2, 70, 0
8, 464400, Note_on_c, 2, 78, 68
8, 464400, Note_on_c, 2, 70, 68
8, 464400, Control_c, 2, 11, 96
8, 464520, Control_c, 2, 11, 99
8, 464609, Note_on_c, 2, 78, 0
8, 464609, Note_on_c, 2, 70, 0
8, 464640, Control_c, 2, 11, 101
8, 464640, Note_on_c, 2, 78, 68
8, 464640, Note_on_c, 2, 71, 68
8, 464760, Control_c, 2, 11, 104
8, 464849, Note_on_c, 2, 78, 0
8, 464849, Note_on_c, 2, 71, 0
8, 464880, Note_on_c, 2, 78, 68
8, 464880, Control_c, 2, 11, 106
8, 464880, Note_on_c, 2, 71, 68
8, 465000, Control_c, 2, 11, 109
8, 465089, Note_on_c, 2, 78, 0
8, 465089, Note_on_c, 2, 71, 0
8, 465120, Control_c, 2, 11, 112
8, 465120, Note_on_c, 2, 78, 68
8, 465120, Note_on_c, 2, 71, 68
8, 465240, Control_c, 2, 11, 114
8, 465329, Note_on_c, 2, 78, 0
8, 465329, Note_on_c, 2, 71, 0
8, 465360, Control_c, 2, 11, 117
8, 465360, Note_on_c, 2, 78, 68
8, 465360, Note_on_c, 2, 71, 68
8, 465480, Control_c, 2, 11, 119
8, 465569, Note_on_c, 2, 78, 0
8, 465569, Note_on_c, 2, 71, 0
8, 465600, Note_on_c, 2, 78, 68
8, 465600, Control_c, 2, 11, 122
8, 465600, Note_on_c, 2, 71, 68
8, 465720, Control_c, 2, 11, 127
8, 465809, Note_on_c, 2, 78, 0
8, 465809, Note_on_c, 2, 71, 0
8, 465840, Note_on_c, 2, 71, 76
8, 465840, Note_on_c, 2, 78, 76
8, 465960, Control_c, 2, 11, 112
8, 466010, Control_c, 2, 11, 109
8, 466060, Control_c, 2, 11, 107
8, 466110, Control_c, 2, 11, 104
8, 466160, Control_c, 2, 11, 101
8, 466210, Control_c, 2, 11, 99
8, 466260, Control_c, 2, 11, 96
8, 466310, Control_c, 2, 11, 93
8, 466319, Note_on_c, 2, 78, 0
8, 466320, Note_on_c, 2, 77, 76
8, 466360, Control_c, 2, 11, 91
8, 466410, Control_c, 2, 11, 88
8, 466460, Control_c, 2, 11, 85
8, 466510, Control_c, 2, 11, 80
8, 466559, Note_on_c, 2, 71, 0
8, 466559, Note_on_c, 2, 77, 0
8, 468000, Control_c, 2, 11, 96
8, 468240, Note_on_c, 2, 75, 68
8, 468479, Note_on_c, 2, 75, 0
8, 468480, Note_on_c, 2, 72, 68
8, 468719, Note_on_c, 2, 72, 0
8, 468720, Note_on_c, 2, 70, 68
8, 468720, Control_c, 2, 11, 96
8, 468760, Control_c, 2, 11, 99
8, 468800, Control_c, 2, 11, 101
8, 468840, Control_c, 2, 11, 104
8, 468880, Control_c, 2, 11, 106
8, 468920, Control_c, 2, 11, 109
8, 468960, Control_c, 2, 11, 112
8, 468960, Note_on_c, 2, 63, 68
8, 469000, Control_c, 2, 11, 114
8, 469040, Control_c, 2, 11, 117
8, 469080, Control_c, 2, 11, 119
8, 469120, Control_c, 2, 11, 122
8, 469160, Control_c, 2, 11, 124
8, 469169, Note_on_c, 2, 63, 0
8, 469199, Note_on_c, 2, 70, 0
8, 469200, Note_on_c, 2, 63, 68
8, 469200, Note_on_c, 2, 69, 68
8, 469200, Control_c, 2, 11, 127
8, 469240, Control_c, 2, 11, 122
8, 469280, Control_c, 2, 11, 117
8, 469320, Control_c, 2, 11, 112
8, 469360, Control_c, 2, 11, 106
8, 469400, Control_c, 2, 11, 96
8, 469409, Note_on_c, 2, 63, 0
8, 469424, Note_on_c, 2, 69, 0
8, 469440, Note_on_c, 2, 68, 68
8, 469440, Note_on_c, 2, 65, 68
8, 469679, Note_on_c, 2, 68, 0
8, 469679, Note_on_c, 2, 65, 0
8, 475200, Control_c, 2, 11, 127
8, 475680, Note_on_c, 2, 56, 60
8, 475680, Note_on_c, 2, 53, 60
8, 475769, Note_on_c, 2, 56, 0
8, 475769, Note_on_c, 2, 53, 0
8, 475800, Note_on_c, 2, 58, 62
8, 475800, Note_on_c, 2, 55, 62
8, 475889, Note_on_c, 2, 58, 0
8, 475889, Note_on_c, 2, 55, 0
8, 475920, Note_on_c, 2, 60, 64
8, 475920, Note_on_c, 2, 56, 64
8, 476009, Note_on_c, 2, 60, 0
8, 476009, Note_on_c, 2, 56, 0
8, 476040, Note_on_c, 2, 62, 66
8, 476040, Note_on_c, 2, 58, 66
8, 476129, Note_on_c, 2, 62, 0
8, 476129, Note_on_c, 2, 58, 0
8, 476160, Note_on_c, 2, 63, 68
8, 476160, Note_on_c, 2, 60, 68
8, 476249, Note_on_c, 2, 63, 0
8, 476249, Note_on_c, 2, 60, 0
8, 476280, Note_on_c, 2, 65, 70
8, 476280, Note_on_c, 2, 62, 70
8, 476369, Note_on_c, 2, 65, 0
8, 476369, Note_on_c, 2, 62, 0
8, 476400, Note_on_c, 2, 67, 72
8, 476400, Note_on_c, 2, 63, 72
8, 476489, Note_on_c, 2, 67, 0
8, 476489, Note_on_c, 2, 63, 0
8, 476520, Note_on_c, 2, 68, 74
8, 476520, Note_on_c, 2, 65, 74
8, 476609, Note_on_c, 2, 68, 0
8, 476609, Note_on_c, 2, 65, 0
8, 476640, Note_on_c, 2, 70, 76
8, 476640, Note_on_c, 2, 67, 76
8, 476864, Note_on_c, 2, 70, 0
8, 476864, Note_on_c, 2, 67, 0
8, 476880, Note_on_c, 2, 70, 84
8, 476880, Note_on_c, 2, 67, 84
8, 477329, Note_on_c, 2, 70, 0
8, 477329, Note_on_c, 2, 67, 0
8, 477600, Note_on_c, 2, 70, 84
8, 477600, Note_on_c, 2, 67, 84
8, 478049, Note_on_c, 2, 70, 0
8, 478049, Note_on_c, 2, 67, 0
8, 478320, Note_on_c, 2, 70, 84
8, 478320, Note_on_c, 2, 68, 84
8, 478769, Note_on_c, 2, 70, 0
8, 478769, Note_on_c, 2, 68, 0
8, 479040, Note_on_c, 2, 70, 84
8, 479040, Note_on_c, 2, 65, 84
8, 479249, Note_on_c, 2, 70, 0
8, 479249, Note_on_c, 2, 65, 0
8, 479280, Note_on_c, 2, 70, 76
8, 479280, Note_on_c, 2, 65, 76
8, 479504, Note_on_c, 2, 70, 0
8, 479504, Note_on_c, 2, 65, 0
8, 479520, Note_on_c, 2, 70, 84
8, 479520, Note_on_c, 2, 67, 84
8, 479759, Note_on_c, 2, 70, 0
8, 479759, Note_on_c, 2, 67, 0
8, 480960, Note_on_c, 2, 77, 84
8, 480960, Note_on_c, 2, 65, 84
8, 481184, Note_on_c, 2, 77, 0
8, 481184, Note_on_c, 2, 65, 0
8, 481200, Note_on_c, 2, 80, 92
8, 481200, Note_on_c, 2, 68, 92
8, 481544, Note_on_c, 2, 80, 0
8, 481544, Note_on_c, 2, 68, 0
8, 481560, Note_on_c, 2, 70, 84
8, 481560, Note_on_c, 2, 58, 84
8, 481664, Note_on_c, 2, 70, 0
8, 481664, Note_on_c, 2, 58, 0
8, 481680, Note_on_c, 2, 74, 84
8, 481680, Note_on_c, 2, 62, 84
8, 481859, Note_on_c, 2, 74, 0
8, 481859, Note_on_c, 2, 62, 0
8, 481920, Note_on_c, 2, 77, 92
8, 481920, Note_on_c, 2, 65, 92
8, 482264, Note_on_c, 2, 77, 0
8, 482264, Note_on_c, 2, 65, 0
8, 482280, Note_on_c, 2, 70, 84
8, 482280, Note_on_c, 2, 58, 84
8, 482384, Note_on_c, 2, 70, 0
8, 482384, Note_on_c, 2, 58, 0
8, 482400, Note_on_c, 2, 75, 84
8, 482400, Note_on_c, 2, 70, 84
8, 482999, Note_on_c, 2, 70, 0
8, 483000, Note_on_c, 2, 69, 84
8, 483119, Note_on_c, 2, 69, 0
8, 483120, Note_on_c, 2, 70, 84
8, 483359, Note_on_c, 2, 75, 0
8, 483359, Note_on_c, 2, 70, 0
8, 485880, Note_on_c, 2, 71, 84
8, 485880, Note_on_c, 2, 67, 84
8, 485984, Note_on_c, 2, 71, 0
8, 485984, Note_on_c, 2, 67, 0
8, 486000, Note_on_c, 2, 72, 84
8, 486000, Note_on_c, 2, 67, 84
8, 486089, Note_on_c, 2, 72, 0
8, 486089, Note_on_c, 2, 67, 0
8, 486120, Note_on_c, 2, 74, 84
8, 486120, Note_on_c, 2, 67, 84
8, 486209, Note_on_c, 2, 74, 0
8, 486209, Note_on_c, 2, 67, 0
8, 486240, Note_on_c, 2, 75, 84
8, 486240, Note_on_c, 2, 67, 84
8, 486329, Note_on_c, 2, 75, 0
8, 486329, Note_on_c, 2, 67, 0
8, 486360, Note_on_c, 2, 76, 84
8, 486360, Note_on_c, 2, 72, 84
8, 486449, Note_on_c, 2, 76, 0
8, 486449, Note_on_c, 2, 72, 0
8, 486480, Note_on_c, 2, 77, 84
8, 486480, Note_on_c, 2, 72, 84
8, 486569, Note_on_c, 2, 77, 0
8, 486569, Note_on_c, 2, 72, 0
8, 486600, Note_on_c, 2, 78, 84
8, 486600, Note_on_c, 2, 72, 84
8, 486689, Note_on_c, 2, 78, 0
8, 486689, Note_on_c, 2, 72, 0
8, 486720, Note_on_c, 2, 79, 84
8, 486720, Note_on_c, 2, 71, 84
8, 486899, Note_on_c, 2, 79, 0
8, 486899, Note_on_c, 2, 71, 0
8, 486960, Note_on_c, 2, 77, 84
8, 486960, Note_on_c, 2, 74, 84
8, 487139, Note_on_c, 2, 77, 0
8, 487139, Note_on_c, 2, 74, 0
8, 487200, Note_on_c, 2, 75, 84
8, 487200, Note_on_c, 2, 72, 84
8, 487379, Note_on_c, 2, 75, 0
8, 487379, Note_on_c, 2, 72, 0
8, 487680, Note_on_c, 2, 73, 84
8, 487680, Note_on_c, 2, 70, 84
8, 487859, Note_on_c, 2, 73, 0
8, 487859, Note_on_c, 2, 70, 0
8, 487920, Note_on_c, 2, 72, 84
8, 487920, Note_on_c, 2, 68, 84
8, 488099, Note_on_c, 2, 72, 0
8, 488099, Note_on_c, 2, 68, 0
8, 488400, Note_on_c, 2, 75, 84
8, 488400, Note_on_c, 2, 72, 84
8, 488579, Note_on_c, 2, 75, 0
8, 488579, Note_on_c, 2, 72, 0
8, 488640, Note_on_c, 2, 74, 84
8, 488640, Note_on_c, 2, 70, 84
8, 488819, Note_on_c, 2, 74, 0
8, 488819, Note_on_c, 2, 70, 0
8, 489120, Note_on_c, 2, 77, 84
8, 489120, Note_on_c, 2, 74, 84
8, 489299, Note_on_c, 2, 77, 0
8, 489299, Note_on_c, 2, 74, 0
8, 489360, Note_on_c, 2, 75, 84
8, 489360, Note_on_c, 2, 72, 84
8, 489539, Note_on_c, 2, 75, 0
8, 489539, Note_on_c, 2, 72, 0
8, 489840, Note_on_c, 2, 73, 84
8, 489840, Note_on_c, 2, 70, 84
8, 490019, Note_on_c, 2, 73, 0
8, 490019, Note_on_c, 2, 70, 0
8, 490080, Note_on_c, 2, 72, 84
8, 490080, Note_on_c, 2, 68, 84
8, 490259, Note_on_c, 2, 72, 0
8, 490259, Note_on_c, 2, 68, 0
8, 490560, Note_on_c, 2, 75, 92
8, 490560, Note_on_c, 2, 66, 92
8, 490739, Note_on_c, 2, 75, 0
8, 490739, Note_on_c, 2, 66, 0
8, 491040, Note_on_c, 2, 75, 92
8, 491040, Note_on_c, 2, 66, 92
8, 491219, Note_on_c, 2, 75, 0
8, 491219, Note_on_c, 2, 66, 0
8, 491520, Note_on_c, 2, 75, 92
8, 491520, Note_on_c, 2, 66, 92
8, 491699, Note_on_c, 2, 75, 0
8, 491699, Note_on_c, 2, 66, 0
8, 492000, Note_on_c, 2, 75, 92
8, 492000, Note_on_c, 2, 66, 92
8, 492179, Note_on_c, 2, 75, 0
8, 492179, Note_on_c, 2, 66, 0
8, 492480, Note_on_c, 2, 75, 92
8, 492480, Note_on_c, 2, 66, 92
8, 492659, Note_on_c, 2, 75, 0
8, 492659, Note_on_c, 2, 66, 0
8, 492960, Note_on_c, 2, 75, 92
8, 492960, Note_on_c, 2, 66, 92
8, 493139, Note_on_c, 2, 75, 0
8, 493139, Note_on_c, 2, 66, 0
8, 493920, Note_on_c, 2, 69, 68
8, 493920, Note_on_c, 2, 63, 68
8, 494040, Control_c, 2, 11, 96
8, 494639, Note_on_c, 2, 69, 0
8, 494640, Note_on_c, 2, 70, 68
8, 495329, Note_on_c, 2, 63, 0
8, 495329, Note_on_c, 2, 70, 0
8, 495345, Control_c, 2, 11, 127
8, 495360, Note_on_c, 2, 69, 68
8, 495360, Note_on_c, 2, 63, 68
8, 495480, Control_c, 2, 11, 96
8, 496319, Note_on_c, 2, 69, 0
8, 496320, Note_on_c, 2, 68, 68
8, 496544, Note_on_c, 2, 68, 0
8, 496560, Note_on_c, 2, 68, 68
8, 496739, Note_on_c, 2, 68, 0
8, 496799, Note_on_c, 2, 63, 0
8, 497025, Control_c, 2, 11, 127
8, 497040, Note_on_c, 2, 68, 52
8, 497219, Note_on_c, 2, 68, 0
8, 497520, Note_on_c, 2, 70, 52
8, 497520, Note_on_c, 2, 68, 52
8, 497699, Note_on_c, 2, 70, 0
8, 497699, Note_on_c, 2, 68, 0
8, 498000, Note_on_c, 2, 70, 52
8, 498000, Note_on_c, 2, 68, 52
8, 498179, Note_on_c, 2, 70, 0
8, 498179, Note_on_c, 2, 68, 0
8, 498480, Note_on_c, 2, 70, 52
8, 498480, Note_on_c, 2, 67, 52
8, 498659, Note_on_c, 2, 70, 0
8, 498659, Note_on_c, 2, 67, 0
8, 499950, Control_c, 2, 11, 93
8, 500040, Note_on_c, 2, 72, 84
8, 500040, Control_c, 2, 11, 96
8, 500040, Note_on_c, 2, 68, 84
8, 500130, Control_c, 2, 11, 98
8, 500159, Note_on_c, 2, 72, 0
8, 500159, Note_on_c, 2, 68, 0
8, 500160, Note_on_c, 2, 67, 84
8, 500160, Note_on_c, 2, 70, 84
8, 500220, Control_c, 2, 11, 101
8, 500279, Note_on_c, 2, 67, 0
8, 500279, Note_on_c, 2, 70, 0
8, 500280, Note_on_c, 2, 68, 84
8, 500280, Note_on_c, 2, 65, 84
8, 500310, Control_c, 2, 11, 103
8, 500384, Note_on_c, 2, 68, 0
8, 500384, Note_on_c, 2, 65, 0
8, 500400, Note_on_c, 2, 63, 84
8, 500400, Control_c, 2, 11, 106
8, 500400, Note_on_c, 2, 67, 84
8, 500489, Note_on_c, 2, 63, 0
8, 500489, Note_on_c, 2, 67, 0
8, 500490, Control_c, 2, 11, 109
8, 500520, Note_on_c, 2, 63, 84
8, 500580, Control_c, 2, 11, 111
8, 500609, Note_on_c, 2, 63, 0
8, 500640, Note_on_c, 2, 63, 84
8, 500640, Note_on_c, 2, 67, 84
8, 500670, Control_c, 2, 11, 114
8, 500729, Note_on_c, 2, 63, 0
8, 500729, Note_on_c, 2, 67, 0
8, 500760, Note_on_c, 2, 67, 84
8, 500760, Control_c, 2, 11, 117
8, 500760, Note_on_c, 2, 70, 84
8, 500849, Note_on_c, 2, 67, 0
8, 500849, Note_on_c, 2, 70, 0
8, 500850, Control_c, 2, 11, 119
8, 500880, Note_on_c, 2, 75, 84
8, 500880, Note_on_c, 2, 67, 84
8, 500940, Control_c, 2, 11, 122
8, 500969, Note_on_c, 2, 75, 0
8, 500969, Note_on_c, 2, 67, 0
8, 501000, Note_on_c, 2, 70, 84
8, 501000, Note_on_c, 2, 79, 84
8, 501030, Control_c, 2, 11, 127
8, 501089, Note_on_c, 2, 70, 0
8, 501089, Note_on_c, 2, 79, 0
8, 501120, Note_on_c, 2, 74, 84
8, 501120, Note_on_c, 2, 68, 84
8, 501824, Note_on_c, 2, 74, 0
8, 501824, Note_on_c, 2, 68, 0
8, 501840, Note_on_c, 2, 67, 76
8, 501840, Note_on_c, 2, 75, 76
8, 502079, Note_on_c, 2, 67, 0
8, 502079, Note_on_c, 2, 75, 0
8, 502560, Note_on_c, 2, 75, 76
8, 502799, Note_on_c, 2, 75, 0
8, 503280, Note_on_c, 2, 75, 76
8, 503519, Note_on_c, 2, 75, 0
8, 504000, Note_on_c, 2, 74, 76
8, 504000, Note_on_c, 2, 65, 76
8, 504179, Note_on_c, 2, 74, 0
8, 504179, Note_on_c, 2, 65, 0
8, 504240, Note_on_c, 2, 74, 76
8, 504240, Note_on_c, 2, 65, 76
8, 504419, Note_on_c, 2, 74, 0
8, 504419, Note_on_c, 2, 65, 0
8, 504480, Note_on_c, 2, 74, 76
8, 504480, Note_on_c, 2, 65, 76
8, 504659, Note_on_c, 2, 74, 0
8, 504659, Note_on_c, 2, 65, 0
8, 504720, Note_on_c, 2, 75, 76
8, 504720, Note_on_c, 2, 67, 76
8, 504959, Note_on_c, 2, 75, 0
8, 504959, Note_on_c, 2, 67, 0
8, 505800, Note_on_c, 2, 63, 52
8, 505919, Note_on_c, 2, 63, 0
8, 505920, Note_on_c, 2, 67, 52
8, 506039, Note_on_c, 2, 67, 0
8, 506040, Note_on_c, 2, 70, 52
8, 506144, Note_on_c, 2, 70, 0
8, 506160, Note_on_c, 2, 75, 52
8, 506639, Note_on_c, 2, 75, 0
8, 506640, Note_on_c, 2, 79, 52
8, 506879, Note_on_c, 2, 79, 0
8, 506880, Note_on_c, 2, 75, 52
8, 507359, Note_on_c, 2, 75, 0
8, 507360, Note_on_c, 2, 70, 52
8, 507599, Note_on_c, 2, 70, 0
8, 507600, Note_on_c, 2, 75, 52
8, 507839, Note_on_c, 2, 75, 0
8, 509040, Note_on_c, 2, 73, 76
8, 509040, Note_on_c, 2, 65, 76
8, 510479, Note_on_c, 2, 73, 0
8, 510479, Note_on_c, 2, 65, 0
8, 510480, Note_on_c, 2, 61, 52
8, 510480, Note_on_c, 2, 73, 52
8, 510719, Note_on_c, 2, 61, 0
8, 510719, Note_on_c, 2, 73, 0
8, 511200, Note_on_c, 2, 72, 84
8, 511200, Note_on_c, 2, 64, 84
8, 512639, Note_on_c, 2, 72, 0
8, 512639, Note_on_c, 2, 64, 0
8, 512640, Note_on_c, 2, 72, 52
8, 512640, Note_on_c, 2, 64, 52
8, 512879, Note_on_c, 2, 72, 0
8, 512879, Note_on_c, 2, 64, 0
8, 520560, Note_on_c, 2, 72, 44
8, 520560, Note_on_c, 2, 60, 44
8, 523679, Note_on_c, 2, 72, 0
8, 523679, Note_on_c, 2, 60, 0
8, 526560, Note_on_c, 2, 68, 52
8, 526799, Note_on_c, 2, 68, 0
8, 526800, Note_on_c, 2, 70, 52
8, 527039, Note_on_c, 2, 70, 0
8, 527040, Note_on_c, 2, 72, 68
8, 527399, Note_on_c, 2, 72, 0
8, 527400, Note_on_c, 2, 70, 52
8, 527519, Note_on_c, 2, 70, 0
8, 527520, Note_on_c, 2, 68, 52
8, 527744, Note_on_c, 2, 68, 0
8, 527760, Note_on_c, 2, 67, 52
8, 527999, Note_on_c, 2, 67, 0
8, 528000, Note_on_c, 2, 72, 52
8, 528224, Note_on_c, 2, 72, 0
8, 528240, Note_on_c, 2, 72, 52
8, 528464, Note_on_c, 2, 72, 0
8, 528480, Note_on_c, 2, 72, 68
8, 529079, Note_on_c, 2, 72, 0
8, 529080, Note_on_c, 2, 70, 52
8, 529184, Note_on_c, 2, 70, 0
8, 529200, Note_on_c, 2, 68, 52
8, 529424, Note_on_c, 2, 68, 0
8, 529440, Note_on_c, 2, 68, 52
8, 529679, Note_on_c, 2, 68, 0
8, 529680, Note_on_c, 2, 70, 52
8, 529919, Note_on_c, 2, 70, 0
8, 529920, Note_on_c, 2, 72, 68
8, 530279, Note_on_c, 2, 72, 0
8, 530280, Note_on_c, 2, 70, 52
8, 530399, Note_on_c, 2, 70, 0
8, 530400, Note_on_c, 2, 68, 52
8, 530639, Note_on_c, 2, 68, 0
8, 531120, Control_c, 2, 11, 96
8, 531360, Note_on_c, 2, 70, 68
8, 531360, Note_on_c, 2, 58, 68
8, 531360, Control_c, 2, 11, 96
8, 531420, Control_c, 2, 11, 99
8, 531480, Control_c, 2, 11, 101
8, 531540, Control_c, 2, 11, 104
8, 531600, Control_c, 2, 11, 106
8, 531660, Control_c, 2, 11, 109
8, 531720, Control_c, 2, 11, 112
8, 531780, Control_c, 2, 11, 114
8, 531840, Control_c, 2, 11, 117
8, 531900, Control_c, 2, 11, 119
8, 531960, Control_c, 2, 11, 122
8, 532078, Control_c, 2, 11, 96
8, 532304, Note_on_c, 2, 70, 0
8, 532304, Note_on_c, 2, 58, 0
8, 532320, Note_on_c, 2, 75, 68
8, 532320, Note_on_c, 2, 66, 68
8, 532559, Note_on_c, 2, 75, 0
8, 532559, Note_on_c, 2, 66, 0
8, 532560, Note_on_c, 2, 74, 68
8, 532560, Note_on_c, 2, 68, 68
8, 532799, Note_on_c, 2, 74, 0
8, 532799, Note_on_c, 2, 68, 0
8, 532800, Note_on_c, 2, 75, 84
8, 532800, Note_on_c, 2, 70, 84
8, 533159, Note_on_c, 2, 75, 0
8, 533159, Note_on_c, 2, 70, 0
8, 533160, Note_on_c, 2, 77, 68
8, 533160, Note_on_c, 2, 74, 68
8, 533279, Note_on_c, 2, 77, 0
8, 533279, Note_on_c, 2, 74, 0
8, 533280, Note_on_c, 2, 78, 68
8, 533280, Note_on_c, 2, 75, 68
8, 533504, Note_on_c, 2, 78, 0
8, 533504, Note_on_c, 2, 75, 0
8, 533520, Note_on_c, 2, 77, 68
8, 533520, Note_on_c, 2, 70, 68
8, 533759, Note_on_c, 2, 77, 0
8, 533759, Note_on_c, 2, 70, 0
8, 533760, Note_on_c, 2, 82, 68
8, 533760, Note_on_c, 2, 77, 68
8, 533999, Note_on_c, 2, 82, 0
8, 533999, Note_on_c, 2, 77, 0
8, 534000, Note_on_c, 2, 81, 68
8, 534000, Note_on_c, 2, 75, 68
8, 534239, Note_on_c, 2, 81, 0
8, 534239, Note_on_c, 2, 75, 0
8, 534240, Note_on_c, 2, 82, 84
8, 534240, Note_on_c, 2, 74, 84
8, 534599, Note_on_c, 2, 82, 0
8, 534600, Note_on_c, 2, 80, 68
8, 534719, Note_on_c, 2, 74, 0
8, 534719, Note_on_c, 2, 80, 0
8, 534720, Note_on_c, 2, 78, 68
8, 534720, Note_on_c, 2, 75, 68
8, 534839, Note_on_c, 2, 78, 0
8, 534839, Note_on_c, 2, 75, 0
8, 534840, Note_on_c, 2, 77, 68
8, 534840, Note_on_c, 2, 70, 68
8, 534944, Note_on_c, 2, 77, 0
8, 534944, Note_on_c, 2, 70, 0
8, 534960, Note_on_c, 2, 75, 68
8, 534960, Note_on_c, 2, 66, 68
8, 535184, Note_on_c, 2, 75, 0
8, 535184, Note_on_c, 2, 66, 0
8, 535200, Note_on_c, 2, 75, 68
8, 535200, Note_on_c, 2, 66, 68
8, 535439, Note_on_c, 2, 75, 0
8, 535439, Note_on_c, 2, 66, 0
8, 535440, Note_on_c, 2, 74, 68
8, 535440, Note_on_c, 2, 68, 68
8, 535679, Note_on_c, 2, 74, 0
8, 535679, Note_on_c, 2, 68, 0
8, 535680, Note_on_c, 2, 75, 84
8, 535680, Note_on_c, 2, 70, 84
8, 536039, Note_on_c, 2, 75, 0
8, 536039, Note_on_c, 2, 70, 0
8, 536040, Note_on_c, 2, 77, 68
8, 536040, Note_on_c, 2, 74, 68
8, 536159, Note_on_c, 2, 77, 0
8, 536159, Note_on_c, 2, 74, 0
8, 536160, Note_on_c, 2, 78, 68
8, 536160, Note_on_c, 2, 75, 68
8, 536384, Note_on_c, 2, 78, 0
8, 536384, Note_on_c, 2, 75, 0
8, 536400, Note_on_c, 2, 77, 68
8, 536400, Note_on_c, 2, 74, 68
8, 536639, Note_on_c, 2, 77, 0
8, 536639, Note_on_c, 2, 74, 0
8, 546480, Note_on_c, 2, 72, 44
8, 547679, Note_on_c, 2, 72, 0
8, 547680, Note_on_c, 2, 73, 44
8, 547919, Note_on_c, 2, 73, 0
8, 547920, Note_on_c, 2, 74, 44
8, 548864, Note_on_c, 2, 74, 0
8, 548880, Note_on_c, 2, 74, 44
8, 549059, Note_on_c, 2, 74, 0
8, 549120, Note_on_c, 2, 70, 44
8, 549299, Note_on_c, 2, 70, 0
8, 549360, Note_on_c, 2, 77, 44
8, 549599, Note_on_c, 2, 77, 0
8, 549600, Note_on_c, 2, 75, 44
8, 550304, Note_on_c, 2, 75, 0
8, 550320, Note_on_c, 2, 75, 44
8, 550499, Note_on_c, 2, 75, 0
8, 550560, Note_on_c, 2, 70, 44
8, 550739, Note_on_c, 2, 70, 0
8, 550785, Control_c, 2, 11, 96
8, 550800, Note_on_c, 2, 78, 60
8, 550800, Control_c, 2, 11, 96
8, 551024, Note_on_c, 2, 78, 0
8, 551040, Control_c, 2, 11, 99
8, 551040, Note_on_c, 2, 78, 60
8, 551280, Control_c, 2, 11, 101
8, 551520, Control_c, 2, 11, 104
8, 551744, Note_on_c, 2, 78, 0
8, 551760, Note_on_c, 2, 78, 60
8, 551760, Control_c, 2, 11, 106
8, 552000, Control_c, 2, 11, 109
8, 552240, Control_c, 2, 11, 112
8, 552464, Note_on_c, 2, 78, 0
8, 552480, Control_c, 2, 11, 114
8, 552480, Note_on_c, 2, 78, 60
8, 552689, Note_on_c, 2, 78, 0
8, 552720, Note_on_c, 2, 78, 60
8, 552720, Control_c, 2, 11, 117
8, 552929, Note_on_c, 2, 78, 0
8, 552960, Control_c, 2, 11, 119
8, 552960, Note_on_c, 2, 78, 60
8, 553199, Note_on_c, 2, 78, 0
8, 553200, Note_on_c, 2, 77, 60
8, 553200, Control_c, 2, 11, 122
8, 553439, Note_on_c, 2, 77, 0
8, 553440, Control_c, 2, 11, 127
8, 553440, Note_on_c, 2, 75, 60
8, 553664, Note_on_c, 2, 75, 0
8, 553680, Note_on_c, 2, 74, 60
8, 553919, Note_on_c, 2, 74, 0
8, 557040, Note_on_c, 2, 72, 52
8, 557040, Note_on_c, 2, 67, 52
8, 557219, Note_on_c, 2, 72, 0
8, 557219, Note_on_c, 2, 67, 0
8, 557520, Note_on_c, 2, 72, 52
8, 557520, Note_on_c, 2, 67, 52
8, 557699, Note_on_c, 2, 72, 0
8, 557699, Note_on_c, 2, 67, 0
8, 558000, Note_on_c, 2, 72, 52
8, 558000, Note_on_c, 2, 65, 52
8, 558179, Note_on_c, 2, 72, 0
8, 558179, Note_on_c, 2, 65, 0
8, 558480, Note_on_c, 2, 72, 52
8, 558480, Note_on_c, 2, 65, 52
8, 558659, Note_on_c, 2, 72, 0
8, 558659, Note_on_c, 2, 65, 0
8, 558960, Note_on_c, 2, 72, 52
8, 558960, Note_on_c, 2, 65, 52
8, 559139, Note_on_c, 2, 72, 0
8, 559139, Note_on_c, 2, 65, 0
8, 559200, Control_c, 2, 11, 96
8, 559440, Note_on_c, 2, 70, 68
8, 559440, Note_on_c, 2, 67, 68
8, 559440, Control_c, 2, 11, 96
8, 559620, Control_c, 2, 11, 99
8, 559800, Control_c, 2, 11, 101
8, 559980, Control_c, 2, 11, 104
8, 560160, Control_c, 2, 11, 106
8, 560340, Control_c, 2, 11, 109
8, 560384, Note_on_c, 2, 70, 0
8, 560384, Note_on_c, 2, 67, 0
8, 560400, Note_on_c, 2, 67, 68
8, 560400, Note_on_c, 2, 63, 68
8, 560520, Control_c, 2, 11, 112
8, 560579, Note_on_c, 2, 67, 0
8, 560579, Note_on_c, 2, 63, 0
8, 560640, Note_on_c, 2, 63, 68
8, 560640, Note_on_c, 2, 67, 68
8, 560700, Control_c, 2, 11, 114
8, 560819, Note_on_c, 2, 63, 0
8, 560819, Note_on_c, 2, 67, 0
8, 560880, Note_on_c, 2, 65, 68
8, 560880, Note_on_c, 2, 62, 68
8, 560880, Control_c, 2, 11, 117
8, 561059, Note_on_c, 2, 65, 0
8, 561059, Note_on_c, 2, 62, 0
8, 561060, Control_c, 2, 11, 119
8, 561120, Note_on_c, 2, 65, 68
8, 561120, Note_on_c, 2, 62, 68
8, 561240, Control_c, 2, 11, 122
8, 561299, Note_on_c, 2, 65, 0
8, 561299, Note_on_c, 2, 62, 0
8, 561360, Note_on_c, 2, 62, 68
8, 561360, Note_on_c, 2, 65, 68
8, 561420, Control_c, 2, 11, 127
8, 561539, Note_on_c, 2, 62, 0
8, 561539, Note_on_c, 2, 65, 0
8, 561600, Note_on_c, 2, 65, 52
8, 561600, Note_on_c, 2, 62, 52
8, 561779, Note_on_c, 2, 65, 0
8, 561779, Note_on_c, 2, 62, 0
8, 561840, Note_on_c, 2, 65, 52
8, 561840, Note_on_c, 2, 62, 52
8, 562019, Note_on_c, 2, 65, 0
8, 562019, Note_on_c, 2, 62, 0
8, 562080, Note_on_c, 2, 65, 52
8, 562080, Note_on_c, 2, 62, 52
8, 562259, Note_on_c, 2, 65, 0
8, 562259, Note_on_c, 2, 62, 0
8, 562320, Note_on_c, 2, 67, 52
8, 562320, Note_on_c, 2, 63, 52
8, 562499, Note_on_c, 2, 67, 0
8, 562499, Note_on_c, 2, 63, 0
8, 568080, Note_on_c, 2, 70, 52
8, 568080, Note_on_c, 2, 55, 52
8, 568199, Note_on_c, 2, 55, 0
8, 568200, Note_on_c, 2, 58, 52
8, 568319, Note_on_c, 2, 58, 0
8, 568320, Note_on_c, 2, 63, 52
8, 568439, Note_on_c, 2, 63, 0
8, 568440, Note_on_c, 2, 58, 52
8, 568559, Note_on_c, 2, 58, 0
8, 568560, Note_on_c, 2, 55, 52
8, 568679, Note_on_c, 2, 55, 0
8, 568680, Note_on_c, 2, 58, 52
8, 568784, Note_on_c, 2, 58, 0
8, 568800, Note_on_c, 2, 55, 52
8, 568919, Note_on_c, 2, 55, 0
8, 568920, Note_on_c, 2, 58, 52
8, 569039, Note_on_c, 2, 58, 0
8, 569040, Note_on_c, 2, 63, 52
8, 569159, Note_on_c, 2, 63, 0
8, 569160, Note_on_c, 2, 58, 52
8, 569279, Note_on_c, 2, 58, 0
8, 569280, Note_on_c, 2, 55, 52
8, 569399, Note_on_c, 2, 55, 0
8, 569400, Note_on_c, 2, 58, 52
8, 569504, Note_on_c, 2, 58, 0
8, 569520, Note_on_c, 2, 55, 52
8, 569639, Note_on_c, 2, 55, 0
8, 569640, Note_on_c, 2, 58, 52
8, 569759, Note_on_c, 2, 58, 0
8, 569760, Note_on_c, 2, 63, 52
8, 569879, Note_on_c, 2, 63, 0
8, 569880, Note_on_c, 2, 58, 52
8, 569999, Note_on_c, 2, 58, 0
8, 570000, Note_on_c, 2, 55, 52
8, 570119, Note_on_c, 2, 55, 0
8, 570120, Note_on_c, 2, 58, 52
8, 570224, Note_on_c, 2, 58, 0
8, 570240, Note_on_c, 2, 55, 52
8, 570359, Note_on_c, 2, 55, 0
8, 570360, Note_on_c, 2, 58, 52
8, 570479, Note_on_c, 2, 58, 0
8, 570480, Note_on_c, 2, 63, 52
8, 570599, Note_on_c, 2, 63, 0
8, 570600, Note_on_c, 2, 58, 52
8, 570719, Note_on_c, 2, 58, 0
8, 570720, Note_on_c, 2, 55, 52
8, 570839, Note_on_c, 2, 55, 0
8, 570840, Note_on_c, 2, 58, 52
8, 570944, Note_on_c, 2, 58, 0
8, 570959, Note_on_c, 2, 70, 0
8, 570960, Note_on_c, 2, 70, 52
8, 570960, Note_on_c, 2, 56, 52
8, 571079, Note_on_c, 2, 56, 0
8, 571080, Note_on_c, 2, 58, 52
8, 571199, Note_on_c, 2, 58, 0
8, 571200, Note_on_c, 2, 65, 52
8, 571319, Note_on_c, 2, 65, 0
8, 571320, Note_on_c, 2, 58, 52
8, 571439, Note_on_c, 2, 58, 0
8, 571440, Note_on_c, 2, 56, 52
8, 571559, Note_on_c, 2, 56, 0
8, 571560, Note_on_c, 2, 58, 52
8, 571664, Note_on_c, 2, 58, 0
8, 571680, Note_on_c, 2, 56, 52
8, 571799, Note_on_c, 2, 56, 0
8, 571800, Note_on_c, 2, 58, 52
8, 571919, Note_on_c, 2, 58, 0
8, 571920, Note_on_c, 2, 65, 52
8, 572039, Note_on_c, 2, 65, 0
8, 572040, Note_on_c, 2, 58, 52
8, 572159, Note_on_c, 2, 58, 0
8, 572160, Note_on_c, 2, 56, 52
8, 572279, Note_on_c, 2, 56, 0
8, 572280, Note_on_c, 2, 58, 52
8, 572384, Note_on_c, 2, 58, 0
8, 572400, Note_on_c, 2, 56, 52
8, 572519, Note_on_c, 2, 56, 0
8, 572520, Note_on_c, 2, 58, 52
8, 572639, Note_on_c, 2, 58, 0
8, 572640, Note_on_c, 2, 62, 52
8, 572759, Note_on_c, 2, 62, 0
8, 572760, Note_on_c, 2, 58, 52
8, 572879, Note_on_c, 2, 58, 0
8, 572880, Note_on_c, 2, 56, 52
8, 572999, Note_on_c, 2, 56, 0
8, 573000, Note_on_c, 2, 58, 52
8, 573104, Note_on_c, 2, 58, 0
8, 573120, Note_on_c, 2, 56, 52
8, 573239, Note_on_c, 2, 56, 0
8, 573240, Note_on_c, 2, 58, 52
8, 573359, Note_on_c, 2, 58, 0
8, 573360, Note_on_c, 2, 62, 52
8, 573479, Note_on_c, 2, 62, 0
8, 573480, Note_on_c, 2, 58, 52
8, 573599, Note_on_c, 2, 58, 0
8, 573600, Note_on_c, 2, 56, 52
8, 573719, Note_on_c, 2, 56, 0
8, 573720, Note_on_c, 2, 58, 52
8, 573824, Note_on_c, 2, 58, 0
8, 573840, Note_on_c, 2, 55, 52
8, 573944, Note_on_c, 2, 70, 0
8, 573944, Note_on_c, 2, 55, 0
8, 573960, Note_on_c, 2, 67, 52
8, 574019, Note_on_c, 2, 67, 0
8, 574020, Note_on_c, 2, 68, 52
8, 574079, Note_on_c, 2, 68, 0
8, 574080, Note_on_c, 2, 70, 52
8, 574169, Note_on_c, 2, 70, 0
8, 574200, Note_on_c, 2, 70, 52
8, 574289, Note_on_c, 2, 70, 0
8, 574320, Note_on_c, 2, 72, 53
8, 574409, Note_on_c, 2, 72, 0
8, 574440, Note_on_c, 2, 74, 53
8, 574529, Note_on_c, 2, 74, 0
8, 574560, Note_on_c, 2, 75, 54
8, 574649, Note_on_c, 2, 75, 0
8, 574680, Note_on_c, 2, 70, 54
8, 574769, Note_on_c, 2, 70, 0
8, 574800, Note_on_c, 2, 72, 55
8, 574889, Note_on_c, 2, 72, 0
8, 574920, Note_on_c, 2, 74, 55
8, 575009, Note_on_c, 2, 74, 0
8, 575040, Note_on_c, 2, 75, 56
8, 575129, Note_on_c, 2, 75, 0
8, 575160, Note_on_c, 2, 77, 56
8, 575249, Note_on_c, 2, 77, 0
8, 575280, Note_on_c, 2, 79, 73
8, 575369, Note_on_c, 2, 79, 0
8, 575400, Note_on_c, 2, 79, 57
8, 575459, Note_on_c, 2, 79, 0
8, 575460, Note_on_c, 2, 77, 58
8, 575519, Note_on_c, 2, 77, 0
8, 575520, Note_on_c, 2, 75, 58
8, 575609, Note_on_c, 2, 75, 0
8, 575640, Note_on_c, 2, 74, 58
8, 575729, Note_on_c, 2, 74, 0
8, 575760, Note_on_c, 2, 72, 59
8, 575849, Note_on_c, 2, 72, 0
8, 575880, Note_on_c, 2, 70, 59
8, 575969, Note_on_c, 2, 70, 0
8, 576000, Note_on_c, 2, 68, 60
8, 576089, Note_on_c, 2, 68, 0
8, 576120, Note_on_c, 2, 67, 60
8, 576209, Note_on_c, 2, 67, 0
8, 576240, Note_on_c, 2, 65, 61
8, 576329, Note_on_c, 2, 65, 0
8, 576360, Note_on_c, 2, 63, 61
8, 576449, Note_on_c, 2, 63, 0
8, 576480, Note_on_c, 2, 62, 62
8, 576569, Note_on_c, 2, 62, 0
8, 576600, Note_on_c, 2, 60, 62
8, 576689, Note_on_c, 2, 60, 0
8, 576720, Note_on_c, 2, 58, 63
8, 576809, Note_on_c, 2, 58, 0
8, 576840, Note_on_c, 2, 58, 64
8, 576899, Note_on_c, 2, 58, 0
8, 576900, Note_on_c, 2, 60, 64
8, 576959, Note_on_c, 2, 60, 0
8, 576960, Note_on_c, 2, 62, 64
8, 577049, Note_on_c, 2, 62, 0
8, 577080, Note_on_c, 2, 63, 65
8, 577169, Note_on_c, 2, 63, 0
8, 577200, Note_on_c, 2, 65, 65
8, 577289, Note_on_c, 2, 65, 0
8, 577320, Note_on_c, 2, 67, 66
8, 577409, Note_on_c, 2, 67, 0
8, 577440, Note_on_c, 2, 68, 66
8, 577679, Note_on_c, 2, 68, 0
8, 577800, Note_on_c, 2, 75, 68
8, 577800, Note_on_c, 2, 63, 68
8, 577889, Note_on_c, 2, 75, 0
8, 577889, Note_on_c, 2, 63, 0
8, 577920, Note_on_c, 2, 77, 68
8, 577920, Note_on_c, 2, 65, 68
8, 578009, Note_on_c, 2, 77, 0
8, 578009, Note_on_c, 2, 65, 0
8, 578040, Note_on_c, 2, 79, 69
8, 578040, Note_on_c, 2, 67, 69
8, 578129, Note_on_c, 2, 79, 0
8, 578129, Note_on_c, 2, 67, 0
8, 578160, Note_on_c, 2, 80, 77
8, 578160, Note_on_c, 2, 68, 69
8, 578249, Note_on_c, 2, 80, 0
8, 578249, Note_on_c, 2, 68, 0
8, 578280, Note_on_c, 2, 79, 70
8, 578280, Note_on_c, 2, 67, 70
8, 578369, Note_on_c, 2, 79, 0
8, 578369, Note_on_c, 2, 67, 0
8, 578400, Note_on_c, 2, 77, 70
8, 578400, Note_on_c, 2, 65, 70
8, 578489, Note_on_c, 2, 77, 0
8, 578489, Note_on_c, 2, 65, 0
8, 578520, Note_on_c, 2, 75, 71
8, 578520, Note_on_c, 2, 63, 71
8, 578609, Note_on_c, 2, 75, 0
8, 578609, Note_on_c, 2, 63, 0
8, 578640, Note_on_c, 2, 74, 71
8, 578640, Note_on_c, 2, 62, 71
8, 578729, Note_on_c, 2, 74, 0
8, 578729, Note_on_c, 2, 62, 0
8, 578760, Note_on_c, 2, 72, 72
8, 578760, Note_on_c, 2, 60, 72
8, 578849, Note_on_c, 2, 72, 0
8, 578849, Note_on_c, 2, 60, 0
8, 578880, Note_on_c, 2, 70, 72
8, 578880, Note_on_c, 2, 58, 72
8, 578969, Note_on_c, 2, 70, 0
8, 578969, Note_on_c, 2, 58, 0
8, 579000, Note_on_c, 2, 72, 73
8, 579000, Note_on_c, 2, 60, 73
8, 579089, Note_on_c, 2, 72, 0
8, 579089, Note_on_c, 2, 60, 0
8, 579120, Note_on_c, 2, 70, 73
8, 579120, Note_on_c, 2, 58, 73
8, 579209, Note_on_c, 2, 70, 0
8, 579209, Note_on_c, 2, 58, 0
8, 579240, Note_on_c, 2, 68, 74
8, 579329, Note_on_c, 2, 68, 0
8, 579360, Note_on_c, 2, 67, 74
8, 579449, Note_on_c, 2, 67, 0
8, 579480, Note_on_c, 2, 65, 75
8, 579569, Note_on_c, 2, 65, 0
8, 579600, Note_on_c, 2, 63, 76
8, 579704, Note_on_c, 2, 63, 0
8, 579720, Note_on_c, 2, 63, 76
8, 579720, Note_on_c, 2, 75, 76
8, 579824, Note_on_c, 2, 63, 0
8, 579824, Note_on_c, 2, 75, 0
8, 579840, Note_on_c, 2, 63, 76
8, 579840, Note_on_c, 2, 75, 76
8, 579944, Note_on_c, 2, 63, 0
8, 579944, Note_on_c, 2, 75, 0
8, 579960, Note_on_c, 2, 63, 76
8, 579960, Note_on_c, 2, 75, 76
8, 580064, Note_on_c, 2, 63, 0
8, 580064, Note_on_c, 2, 75, 0
8, 580080, Note_on_c, 2, 79, 76
8, 580080, Note_on_c, 2, 67, 76
8, 580184, Note_on_c, 2, 79, 0
8, 580184, Note_on_c, 2, 67, 0
8, 580200, Note_on_c, 2, 79, 76
8, 580200, Note_on_c, 2, 67, 76
8, 580304, Note_on_c, 2, 79, 0
8, 580304, Note_on_c, 2, 67, 0
8, 580320, Note_on_c, 2, 75, 76
8, 580320, Note_on_c, 2, 63, 76
8, 580424, Note_on_c, 2, 75, 0
8, 580424, Note_on_c, 2, 63, 0
8, 580440, Note_on_c, 2, 75, 76
8, 580440, Note_on_c, 2, 63, 76
8, 580544, Note_on_c, 2, 75, 0
8, 580544, Note_on_c, 2, 63, 0
8, 580560, Note_on_c, 2, 75, 76
8, 580560, Note_on_c, 2, 63, 76
8, 580664, Note_on_c, 2, 75, 0
8, 580664, Note_on_c, 2, 63, 0
8, 580680, Note_on_c, 2, 75, 76
8, 580680, Note_on_c, 2, 63, 76
8, 580784, Note_on_c, 2, 75, 0
8, 580784, Note_on_c, 2, 63, 0
8, 580800, Note_on_c, 2, 70, 76
8, 580800, Note_on_c, 2, 58, 76
8, 580904, Note_on_c, 2, 70, 0
8, 580904, Note_on_c, 2, 58, 0
8, 580920, Note_on_c, 2, 70, 76
8, 580920, Note_on_c, 2, 58, 76
8, 581024, Note_on_c, 2, 70, 0
8, 581024, Note_on_c, 2, 58, 0
8, 581040, Note_on_c, 2, 75, 76
8, 581040, Note_on_c, 2, 63, 76
8, 581144, Note_on_c, 2, 75, 0
8, 581144, Note_on_c, 2, 63, 0
8, 581160, Note_on_c, 2, 75, 76
8, 581160, Note_on_c, 2, 63, 76
8, 581264, Note_on_c, 2, 75, 0
8, 581264, Note_on_c, 2, 63, 0
8, 581280, Note_on_c, 2, 67, 76
8, 581384, Note_on_c, 2, 67, 0
8, 581400, Note_on_c, 2, 67, 76
8, 581504, Note_on_c, 2, 67, 0
8, 581520, Note_on_c, 2, 70, 76
8, 581624, Note_on_c, 2, 70, 0
8, 581640, Note_on_c, 2, 70, 76
8, 581744, Note_on_c, 2, 70, 0
8, 581760, Note_on_c, 2, 70, 76
8, 581864, Note_on_c, 2, 70, 0
8, 581880, Note_on_c, 2, 70, 76
8, 581984, Note_on_c, 2, 70, 0
8, 582000, Note_on_c, 2, 70, 76
8, 582104, Note_on_c, 2, 70, 0
8, 582120, Note_on_c, 2, 70, 76
8, 582224, Note_on_c, 2, 70, 0
8, 582240, Note_on_c, 2, 70, 76
8, 582344, Note_on_c, 2, 70, 0
8, 582360, Note_on_c, 2, 70, 76
8, 582464, Note_on_c, 2, 70, 0
8, 582480, Note_on_c, 2, 77, 76
8, 582480, Note_on_c, 2, 65, 76
8, 582584, Note_on_c, 2, 77, 0
8, 582584, Note_on_c, 2, 65, 0
8, 582600, Note_on_c, 2, 77, 76
8, 582600, Note_on_c, 2, 65, 76
8, 582704, Note_on_c, 2, 77, 0
8, 582704, Note_on_c, 2, 65, 0
8, 582720, Note_on_c, 2, 77, 76
8, 582720, Note_on_c, 2, 65, 76
8, 582824, Note_on_c, 2, 77, 0
8, 582824, Note_on_c, 2, 65, 0
8, 582840, Note_on_c, 2, 77, 76
8, 582840, Note_on_c, 2, 65, 76
8, 582944, Note_on_c, 2, 77, 0
8, 582944, Note_on_c, 2, 65, 0
8, 582960, Note_on_c, 2, 80, 76
8, 582960, Note_on_c, 2, 68, 76
8, 583064, Note_on_c, 2, 80, 0
8, 583064, Note_on_c, 2, 68, 0
8, 583080, Note_on_c, 2, 80, 76
8, 583080, Note_on_c, 2, 68, 76
8, 583184, Note_on_c, 2, 80, 0
8, 583184, Note_on_c, 2, 68, 0
8, 583200, Note_on_c, 2, 77, 76
8, 583200, Note_on_c, 2, 65, 76
8, 583304, Note_on_c, 2, 77, 0
8, 583304, Note_on_c, 2, 65, 0
8, 583320, Note_on_c, 2, 77, 76
8, 583320, Note_on_c, 2, 65, 76
8, 583424, Note_on_c, 2, 77, 0
8, 583424, Note_on_c, 2, 65, 0
8, 583440, Note_on_c, 2, 77, 76
8, 583440, Note_on_c, 2, 65, 76
8, 583544, Note_on_c, 2, 77, 0
8, 583544, Note_on_c, 2, 65, 0
8, 583560, Note_on_c, 2, 77, 76
8, 583560, Note_on_c, 2, 65, 76
8, 583664, Note_on_c, 2, 77, 0
8, 583664, Note_on_c, 2, 65, 0
8, 583680, Note_on_c, 2, 70, 76
8, 583680, Note_on_c, 2, 58, 76
8, 583784, Note_on_c, 2, 70, 0
8, 583784, Note_on_c, 2, 58, 0
8, 583800, Note_on_c, 2, 70, 76
8, 583800, Note_on_c, 2, 58, 76
8, 583904, Note_on_c, 2, 70, 0
8, 583904, Note_on_c, 2, 58, 0
8, 583920, Note_on_c, 2, 77, 76
8, 583920, Note_on_c, 2, 65, 76
8, 584024, Note_on_c, 2, 77, 0
8, 584024, Note_on_c, 2, 65, 0
8, 584040, Note_on_c, 2, 77, 76
8, 584040, Note_on_c, 2, 65, 76
8, 584144, Note_on_c, 2, 77, 0
8, 584144, Note_on_c, 2, 65, 0
8, 584160, Note_on_c, 2, 68, 76
8, 584264, Note_on_c, 2, 68, 0
8, 584280, Note_on_c, 2, 68, 76
8, 584384, Note_on_c, 2, 68, 0
8, 584400, Note_on_c, 2, 70, 76
8, 584504, Note_on_c, 2, 70, 0
8, 584520, Note_on_c, 2, 70, 76
8, 584624, Note_on_c, 2, 70, 0
8, 584640, Note_on_c, 2, 70, 76
8, 584744, Note_on_c, 2, 70, 0
8, 584760, Note_on_c, 2, 70, 76
8, 584864, Note_on_c, 2, 70, 0
8, 584880, Note_on_c, 2, 70, 76
8, 584984, Note_on_c, 2, 70, 0
8, 585000, Note_on_c, 2, 70, 76
8, 585104, Note_on_c, 2, 70, 0
8, 585120, Note_on_c, 2, 70, 76
8, 585224, Note_on_c, 2, 70, 0
8, 585240, Note_on_c, 2, 70, 76
8, 585344, Note_on_c, 2, 70, 0
8, 585360, Note_on_c, 2, 70, 76
8, 585464, Note_on_c, 2, 70, 0
8, 585480, Note_on_c, 2, 70, 76
8, 585584, Note_on_c, 2, 70, 0
8, 585600, Note_on_c, 2, 70, 76
8, 585600, Note_on_c, 2, 79, 76
8, 585704, Note_on_c, 2, 70, 0
8, 585704, Note_on_c, 2, 79, 0
8, 585720, Note_on_c, 2, 70, 76
8, 585720, Note_on_c, 2, 79, 76
8, 585824, Note_on_c, 2, 70, 0
8, 585824, Note_on_c, 2, 79, 0
8, 585840, Note_on_c, 2, 70, 76
8, 585840, Note_on_c, 2, 79, 76
8, 585944, Note_on_c, 2, 70, 0
8, 585944, Note_on_c, 2, 79, 0
8, 585960, Note_on_c, 2, 70, 76
8, 585960, Note_on_c, 2, 79, 76
8, 586064, Note_on_c, 2, 70, 0
8, 586064, Note_on_c, 2, 79, 0
8, 586080, Note_on_c, 2, 79, 76
8, 586080, Note_on_c, 2, 70, 76
8, 586784, Note_on_c, 2, 79, 0
8, 586784, Note_on_c, 2, 70, 0
8, 586800, Note_on_c, 2, 77, 76
8, 586800, Note_on_c, 2, 72, 76
8, 587024, Note_on_c, 2, 77, 0
8, 587024, Note_on_c, 2, 72, 0
8, 587040, Note_on_c, 2, 77, 84
8, 587040, Note_on_c, 2, 72, 84
8, 587489, Note_on_c, 2, 77, 0
8, 587489, Note_on_c, 2, 72, 0
8, 587760, Note_on_c, 2, 78, 84
8, 587760, Note_on_c, 2, 72, 84
8, 588209, Note_on_c, 2, 78, 0
8, 588209, Note_on_c, 2, 72, 0
8, 588480, Note_on_c, 2, 70, 84
8, 588480, Note_on_c, 2, 67, 84
8, 588929, Note_on_c, 2, 70, 0
8, 588929, Note_on_c, 2, 67, 0
8, 589200, Note_on_c, 2, 68, 76
8, 589200, Note_on_c, 2, 65, 76
8, 589679, Note_on_c, 2, 68, 0
8, 589679, Note_on_c, 2, 65, 0
8, 589920, Note_on_c, 2, 67, 76
8, 589920, Note_on_c, 2, 63, 76
8, 590399, Note_on_c, 2, 67, 0
8, 590399, Note_on_c, 2, 63, 0
8, 590640, Note_on_c, 2, 72, 76
8, 590640, Note_on_c, 2, 63, 76
8, 591104, Note_on_c, 2, 72, 0
8, 591104, Note_on_c, 2, 63, 0
8, 591120, Note_on_c, 2, 75, 84
8, 591120, Note_on_c, 2, 67, 84
8, 591824, Note_on_c, 2, 75, 0
8, 591824, Note_on_c, 2, 67, 0
8, 591840, Note_on_c, 2, 74, 84
8, 591840, Note_on_c, 2, 68, 84
8, 592319, Note_on_c, 2, 68, 0
8, 592320, Note_on_c, 2, 65, 84
8, 592529, Note_on_c, 2, 74, 0
8, 592529, Note_on_c, 2, 65, 0
8, 592545, Control_c, 2, 11, 96
8, 592560, Note_on_c, 2, 67, 68
8, 592560, Note_on_c, 2, 63, 68
8, 592560, Control_c, 2, 11, 96
8, 592620, Control_c, 2, 11, 99
8, 592680, Control_c, 2, 11, 101
8, 592740, Control_c, 2, 11, 104
8, 592800, Control_c, 2, 11, 106
8, 592860, Control_c, 2, 11, 109
8, 592920, Control_c, 2, 11, 112
8, 592980, Control_c, 2, 11, 114
8, 593039, Note_on_c, 2, 67, 0
8, 593039, Note_on_c, 2, 63, 0
8, 593040, Control_c, 2, 11, 117
8, 593040, Note_on_c, 2, 68, 68
8, 593040, Note_on_c, 2, 65, 68
8, 593100, Control_c, 2, 11, 119
8, 593159, Note_on_c, 2, 68, 0
8, 593159, Note_on_c, 2, 65, 0
8, 593160, Note_on_c, 2, 67, 68
8, 593160, Note_on_c, 2, 70, 68
8, 593160, Control_c, 2, 11, 122
8, 593220, Control_c, 2, 11, 124
8, 593279, Note_on_c, 2, 67, 0
8, 593279, Note_on_c, 2, 70, 0
8, 593280, Note_on_c, 2, 68, 68
8, 593280, Note_on_c, 2, 72, 68
8, 593280, Control_c, 2, 11, 127
8, 593340, Control_c, 2, 11, 124
8, 593400, Control_c, 2, 11, 122
8, 593460, Control_c, 2, 11, 119
8, 593519, Note_on_c, 2, 68, 0
8, 593519, Note_on_c, 2, 72, 0
8, 593520, Note_on_c, 2, 70, 68
8, 593520, Note_on_c, 2, 74, 68
8, 593520, Control_c, 2, 11, 117
8, 593580, Control_c, 2, 11, 114
8, 593640, Control_c, 2, 11, 112
8, 593700, Control_c, 2, 11, 109
8, 593759, Note_on_c, 2, 70, 0
8, 593759, Note_on_c, 2, 74, 0
8, 593760, Control_c, 2, 11, 106
8, 593760, Note_on_c, 2, 75, 68
8, 593760, Note_on_c, 2, 72, 68
8, 593820, Control_c, 2, 11, 104
8, 593880, Control_c, 2, 11, 101
8, 593940, Control_c, 2, 11, 96
8, 593984, Note_on_c, 2, 75, 0
8, 593984, Note_on_c, 2, 72, 0
8, 594000, Note_on_c, 2, 75, 68
8, 594000, Note_on_c, 2, 70, 68
8, 594239, Note_on_c, 2, 75, 0
8, 594239, Note_on_c, 2, 70, 0
8, 594360, Note_on_c, 2, 58, 68
8, 594360, Note_on_c, 2, 63, 68
8, 594479, Note_on_c, 2, 58, 0
8, 594479, Note_on_c, 2, 63, 0
8, 594480, Note_on_c, 2, 65, 68
8, 594480, Note_on_c, 2, 62, 68
8, 594599, Note_on_c, 2, 65, 0
8, 594599, Note_on_c, 2, 62, 0
8, 594600, Note_on_c, 2, 67, 68
8, 594600, Note_on_c, 2, 63, 68
8, 594704, Note_on_c, 2, 67, 0
8, 594704, Note_on_c, 2, 63, 0
8, 594720, Note_on_c, 2, 68, 68
8, 594720, Note_on_c, 2, 65, 68
8, 594929, Note_on_c, 2, 68, 0
8, 594929, Note_on_c, 2, 65, 0
8, 594960, Note_on_c, 2, 68, 68
8, 594960, Note_on_c, 2, 65, 68
8, 595169, Note_on_c, 2, 68, 0
8, 595169, Note_on_c, 2, 65, 0
8, 595200, Note_on_c, 2, 68, 68
8, 595200, Note_on_c, 2, 65, 68
8, 595409, Note_on_c, 2, 68, 0
8, 595409, Note_on_c, 2, 65, 0
8, 595440, Note_on_c, 2, 67, 68
8, 595440, Note_on_c, 2, 63, 68
8, 595679, Note_on_c, 2, 67, 0
8, 595679, Note_on_c, 2, 63, 0
8, 596880, Control_c, 2, 11, 127
8, 597240, Note_on_c, 2, 70, 66
8, 597329, Note_on_c, 2, 70, 0
8, 597360, Note_on_c, 2, 68, 67
8, 597449, Note_on_c, 2, 68, 0
8, 597480, Note_on_c, 2, 67, 68
8, 597569, Note_on_c, 2, 67, 0
8, 597600, Note_on_c, 2, 65, 69
8, 597689, Note_on_c, 2, 65, 0
8, 597720, Note_on_c, 2, 67, 70
8, 597809, Note_on_c, 2, 67, 0
8, 597840, Note_on_c, 2, 68, 71
8, 597929, Note_on_c, 2, 68, 0
8, 597960, Note_on_c, 2, 67, 72
8, 598049, Note_on_c, 2, 67, 0
8, 598080, Note_on_c, 2, 65, 73
8, 598169, Note_on_c, 2, 65, 0
8, 598200, Note_on_c, 2, 63, 74
8, 598289, Note_on_c, 2, 63, 0
8, 598320, Note_on_c, 2, 62, 76
8, 598544, Note_on_c, 2, 62, 0
8, 598560, Note_on_c, 2, 65, 76
8, 598560, Note_on_c, 2, 62, 76
8, 599264, Note_on_c, 2, 65, 0
8, 599264, Note_on_c, 2, 62, 0
8, 599280, Note_on_c, 2, 68, 76
8, 599280, Note_on_c, 2, 65, 76
8, 599984, Note_on_c, 2, 68, 0
8, 599984, Note_on_c, 2, 65, 0
8, 600000, Note_on_c, 2, 74, 76
8, 600000, Note_on_c, 2, 68, 76
8, 600464, Note_on_c, 2, 74, 0
8, 600464, Note_on_c, 2, 68, 0
8, 600480, Note_on_c, 2, 74, 76
8, 600480, Note_on_c, 2, 68, 76
8, 600944, Note_on_c, 2, 74, 0
8, 600944, Note_on_c, 2, 68, 0
8, 600960, Note_on_c, 2, 74, 76
8, 600960, Note_on_c, 2, 68, 76
8, 601139, Note_on_c, 2, 74, 0
8, 601139, Note_on_c, 2, 68, 0
8, 601200, Note_on_c, 2, 74, 76
8, 601200, Note_on_c, 2, 68, 76
8, 601379, Note_on_c, 2, 74, 0
8, 601379, Note_on_c, 2, 68, 0
8, 601440, Note_on_c, 2, 77, 84
8, 601440, Note_on_c, 2, 68, 84
8, 601619, Note_on_c, 2, 77, 0
8, 601619, Note_on_c, 2, 68, 0
8, 601680, Note_on_c, 2, 77, 84
8, 601680, Note_on_c, 2, 68, 84
8, 601859, Note_on_c, 2, 77, 0
8, 601859, Note_on_c, 2, 68, 0
8, 601920, Note_on_c, 2, 77, 84
8, 601920, Note_on_c, 2, 68, 84
8, 602099, Note_on_c, 2, 77, 0
8, 602099, Note_on_c, 2, 68, 0
8, 602160, Note_on_c, 2, 77, 84
8, 602160, Note_on_c, 2, 68, 84
8, 602339, Note_on_c, 2, 77, 0
8, 602339, Note_on_c, 2, 68, 0
8, 602400, Note_on_c, 2, 77, 84
8, 602400, Note_on_c, 2, 68, 84
8, 602579, Note_on_c, 2, 77, 0
8, 602579, Note_on_c, 2, 68, 0
8, 602640, Note_on_c, 2, 77, 84
8, 602640, Note_on_c, 2, 68, 84
8, 602819, Note_on_c, 2, 77, 0
8, 602819, Note_on_c, 2, 68, 0
8, 602880, Note_on_c, 2, 77, 84
8, 602880, Note_on_c, 2, 68, 84
8, 603059, Note_on_c, 2, 77, 0
8, 603059, Note_on_c, 2, 68, 0
8, 603120, Note_on_c, 2, 77, 84
8, 603120, Note_on_c, 2, 68, 84
8, 603299, Note_on_c, 2, 77, 0
8, 603299, Note_on_c, 2, 68, 0
8, 603360, Note_on_c, 2, 77, 84
8, 603360, Note_on_c, 2, 68, 84
8, 603539, Note_on_c, 2, 77, 0
8, 603539, Note_on_c, 2, 68, 0
8, 603600, Note_on_c, 2, 77, 84
8, 603600, Note_on_c, 2, 68, 84
8, 603779, Note_on_c, 2, 77, 0
8, 603779, Note_on_c, 2, 68, 0
8, 603840, Note_on_c, 2, 77, 84
8, 603840, Note_on_c, 2, 68, 84
8, 604019, Note_on_c, 2, 77, 0
8, 604019, Note_on_c, 2, 68, 0
8, 604080, Note_on_c, 2, 75, 84
8, 604080, Note_on_c, 2, 67, 84
8, 604319, Note_on_c, 2, 75, 0
8, 604319, Note_on_c, 2, 67, 0
8, 604800, Note_on_c, 2, 75, 84
8, 604800, Note_on_c, 2, 67, 84
8, 605039, Note_on_c, 2, 75, 0
8, 605039, Note_on_c, 2, 67, 0
8, 605520, Note_on_c, 2, 63, 84
8, 605759, Note_on_c, 2, 63, 0
8, 605759, End_track
9, 0, Start_track
9, 0, Title_t, "Bassoon"
9, 0, MIDI_port, 0
9, 0, Program_c, 3, 70
9, 0, Control_c, 3, 7, 96
9, 0, Control_c, 3, 10, 65
9, 0, Control_c, 3, 11, 127
9, 0, Note_on_c, 3, 63, 76
9, 0, Note_on_c, 3, 51, 76
9, 179, Note_on_c, 3, 63, 0
9, 179, Note_on_c, 3, 51, 0
9, 720, Note_on_c, 3, 51, 76
9, 720, Note_on_c, 3, 63, 76
9, 899, Note_on_c, 3, 51, 0
9, 899, Note_on_c, 3, 63, 0
9, 13920, Control_c, 3, 11, 80
9, 14160, Note_on_c, 3, 51, 76
9, 14399, Note_on_c, 3, 51, 0
9, 14400, Note_on_c, 3, 56, 76
9, 14639, Note_on_c, 3, 56, 0
9, 14640, Note_on_c, 3, 60, 76
9, 14879, Note_on_c, 3, 60, 0
9, 14880, Note_on_c, 3, 63, 76
9, 15104, Note_on_c, 3, 63, 0
9, 15120, Note_on_c, 3, 56, 76
9, 15120, Control_c, 3, 11, 80
9, 15180, Control_c, 3, 11, 84
9, 15240, Control_c, 3, 11, 88
9, 15300, Control_c, 3, 11, 92
9, 15360, Control_c, 3, 11, 96
9, 15420, Control_c, 3, 11, 100
9, 15480, Control_c, 3, 11, 104
9, 15540, Control_c, 3, 11, 107
9, 15599, Note_on_c, 3, 56, 0
9, 15600, Control_c, 3, 11, 111
9, 15600, Note_on_c, 3, 57, 76
9, 15660, Control_c, 3, 11, 115
9, 15720, Control_c, 3, 11, 119
9, 15780, Control_c, 3, 11, 123
9, 15824, Note_on_c, 3, 57, 0
9, 15840, Control_c, 3, 11, 127
9, 15840, Note_on_c, 3, 58, 76
9, 15960, Control_c, 3, 11, 80
9, 16560, Note_on_c, 3, 62, 76
9, 17039, Note_on_c, 3, 58, 0
9, 17039, Note_on_c, 3, 62, 0
9, 17040, Note_on_c, 3, 56, 76
9, 17040, Note_on_c, 3, 65, 76
9, 17264, Note_on_c, 3, 56, 0
9, 17264, Note_on_c, 3, 65, 0
9, 17280, Note_on_c, 3, 63, 76
9, 17280, Note_on_c, 3, 55, 76
9, 17459, Note_on_c, 3, 63, 0
9, 17459, Note_on_c, 3, 55, 0
9, 17505, Control_c, 3, 11, 127
9, 17520, Note_on_c, 3, 54, 76
9, 17520, Note_on_c, 3, 60, 76
9, 17969, Note_on_c, 3, 54, 0
9, 17969, Note_on_c, 3, 60, 0
9, 18000, Note_on_c, 3, 60, 76
9, 18000, Note_on_c, 3, 54, 76
9, 18449, Note_on_c, 3, 60, 0
9, 18449, Note_on_c, 3, 54, 0
9, 18480, Note_on_c, 3, 54, 76
9, 18480, Note_on_c, 3, 60, 76
9, 18689, Note_on_c, 3, 54, 0
9, 18689, Note_on_c, 3, 60, 0
9, 18720, Note_on_c, 3, 62, 76
9, 18720, Note_on_c, 3, 53, 76
9, 18840, Control_c, 3, 11, 80
9, 18959, Note_on_c, 3, 62, 0
9, 18959, Note_on_c, 3, 53, 0
9, 19440, Control_c, 3, 11, 127
9, 19920, Note_on_c, 3, 62, 76
9, 19920, Note_on_c, 3, 58, 76
9, 20129, Note_on_c, 3, 58, 0
9, 20160, Note_on_c, 3, 56, 52
9, 20369, Note_on_c, 3, 62, 0
9, 20369, Note_on_c, 3, 56, 0
9, 20400, Note_on_c, 3, 56, 76
9, 20400, Note_on_c, 3, 62, 76
9, 20849, Note_on_c, 3, 56, 0
9, 20849, Note_on_c, 3, 62, 0
9, 20880, Note_on_c, 3, 56, 76
9, 20880, Note_on_c, 3, 62, 76
9, 21329, Note_on_c, 3, 56, 0
9, 21329, Note_on_c, 3, 62, 0
9, 21360, Note_on_c, 3, 56, 76
9, 21360, Note_on_c, 3, 62, 76
9, 21809, Note_on_c, 3, 56, 0
9, 21809, Note_on_c, 3, 62, 0
9, 21840, Note_on_c, 3, 55, 76
9, 21840, Note_on_c, 3, 63, 76
9, 22289, Note_on_c, 3, 55, 0
9, 22289, Note_on_c, 3, 63, 0
9, 22320, Note_on_c, 3, 63, 76
9, 22320, Note_on_c, 3, 55, 76
9, 22769, Note_on_c, 3, 63, 0
9, 22769, Note_on_c, 3, 55, 0
9, 22800, Note_on_c, 3, 55, 76
9, 22800, Note_on_c, 3, 63, 76
9, 23249, Note_on_c, 3, 55, 0
9, 23249, Note_on_c, 3, 63, 0
9, 23280, Note_on_c, 3, 56, 52
9, 23280, Note_on_c, 3, 62, 52
9, 23459, Note_on_c, 3, 56, 0
9, 23459, Note_on_c, 3, 62, 0
9, 23520, Note_on_c, 3, 56, 76
9, 23520, Note_on_c, 3, 62, 76
9, 23969, Note_on_c, 3, 56, 0
9, 23969, Note_on_c, 3, 62, 0
9, 24000, Note_on_c, 3, 55, 52
9, 24000, Note_on_c, 3, 63, 52
9, 24179, Note_on_c, 3, 55, 0
9, 24179, Note_on_c, 3, 63, 0
9, 24240, Note_on_c, 3, 55, 76
9, 24240, Note_on_c, 3, 63, 76
9, 24479, Note_on_c, 3, 55, 0
9, 24479, Note_on_c, 3, 63, 0
9, 24480, Note_on_c, 3, 56, 52
9, 24480, Note_on_c, 3, 62, 52
9, 24704, Note_on_c, 3, 56, 0
9, 24704, Note_on_c, 3, 62, 0
9, 24720, Note_on_c, 3, 46, 52
9, 24809, Note_on_c, 3, 46, 0
9, 24840, Note_on_c, 3, 48, 55
9, 24929, Note_on_c, 3, 48, 0
9, 24960, Note_on_c, 3, 50, 58
9, 25049, Note_on_c, 3, 50, 0
9, 25080, Note_on_c, 3, 51, 61
9, 25169, Note_on_c, 3, 51, 0
9, 25200, Note_on_c, 3, 53, 64
9, 25289, Note_on_c, 3, 53, 0
9, 25320, Note_on_c, 3, 55, 68
9, 25409, Note_on_c, 3, 55, 0
9, 25440, Note_on_c, 3, 56, 71
9, 25529, Note_on_c, 3, 56, 0
9, 25560, Note_on_c, 3, 58, 74
9, 25649, Note_on_c, 3, 58, 0
9, 25680, Note_on_c, 3, 60, 77
9, 25769, Note_on_c, 3, 60, 0
9, 25800, Note_on_c, 3, 62, 80
9, 25889, Note_on_c, 3, 62, 0
9, 25920, Note_on_c, 3, 51, 84
9, 25920, Note_on_c, 3, 63, 84
9, 26399, Note_on_c, 3, 51, 0
9, 26399, Note_on_c, 3, 63, 0
9, 26400, Note_on_c, 3, 55, 84
9, 26400, Note_on_c, 3, 67, 84
9, 26639, Note_on_c, 3, 55, 0
9, 26639, Note_on_c, 3, 67, 0
9, 26640, Note_on_c, 3, 63, 84
9, 26640, Note_on_c, 3, 51, 84
9, 27119, Note_on_c, 3, 63, 0
9, 27119, Note_on_c, 3, 51, 0
9, 27120, Note_on_c, 3, 46, 84
9, 27120, Note_on_c, 3, 58, 84
9, 27344, Note_on_c, 3, 46, 0
9, 27344, Note_on_c, 3, 58, 0
9, 27360, Note_on_c, 3, 63, 84
9, 27360, Note_on_c, 3, 51, 84
9, 27599, Note_on_c, 3, 63, 0
9, 27599, Note_on_c, 3, 51, 0
9, 27600, Note_on_c, 3, 55, 84
9, 27839, Note_on_c, 3, 55, 0
9, 27840, Note_on_c, 3, 58, 84
9, 28064, Note_on_c, 3, 58, 0
9, 28080, Note_on_c, 3, 51, 84
9, 28544, Note_on_c, 3, 51, 0
9, 28560, Note_on_c, 3, 55, 92
9, 28560, Note_on_c, 3, 43, 92
9, 28784, Note_on_c, 3, 55, 0
9, 28784, Note_on_c, 3, 43, 0
9, 28800, Note_on_c, 3, 60, 84
9, 28800, Note_on_c, 3, 48, 84
9, 29039, Note_on_c, 3, 60, 0
9, 29039, Note_on_c, 3, 48, 0
9, 29040, Note_on_c, 3, 63, 84
9, 29040, Note_on_c, 3, 51, 84
9, 29279, Note_on_c, 3, 63, 0
9, 29279, Note_on_c, 3, 51, 0
9, 29280, Note_on_c, 3, 55, 84
9, 29280, Note_on_c, 3, 67, 84
9, 29504, Note_on_c, 3, 55, 0
9, 29504, Note_on_c, 3, 67, 0
9, 29520, Note_on_c, 3, 60, 84
9, 29520, Note_on_c, 3, 48, 84
9, 29984, Note_on_c, 3, 60, 0
9, 29984, Note_on_c, 3, 48, 0
9, 30000, Note_on_c, 3, 51, 92
9, 30000, Note_on_c, 3, 61, 92
9, 30224, Note_on_c, 3, 51, 0
9, 30224, Note_on_c, 3, 61, 0
9, 30240, Note_on_c, 3, 60, 84
9, 30240, Note_on_c, 3, 56, 84
9, 30944, Note_on_c, 3, 56, 0
9, 30960, Note_on_c, 3, 54, 84
9, 31079, Note_on_c, 3, 60, 0
9, 31080, Note_on_c, 3, 58, 84
9, 31199, Note_on_c, 3, 58, 0
9, 31200, Note_on_c, 3, 57, 84
9, 31319, Note_on_c, 3, 57, 0
9, 31320, Note_on_c, 3, 58, 84
9, 31439, Note_on_c, 3, 58, 0
9, 31440, Note_on_c, 3, 60, 84
9, 31559, Note_on_c, 3, 60, 0
9, 31560, Note_on_c, 3, 58, 84
9, 31679, Note_on_c, 3, 54, 0
9, 31679, Note_on_c, 3, 58, 0
9, 31680, Note_on_c, 3, 57, 84
9, 31680, Note_on_c, 3, 53, 84
9, 31919, Note_on_c, 3, 57, 0
9, 31919, Note_on_c, 3, 53, 0
9, 38400, Note_on_c, 3, 66, 68
9, 38759, Note_on_c, 3, 66, 0
9, 38760, Note_on_c, 3, 65, 52
9, 38879, Note_on_c, 3, 65, 0
9, 38880, Note_on_c, 3, 63, 84
9, 39104, Note_on_c, 3, 63, 0
9, 39120, Note_on_c, 3, 67, 84
9, 39120, Note_on_c, 3, 55, 84
9, 39464, Note_on_c, 3, 67, 0
9, 39464, Note_on_c, 3, 55, 0
9, 39480, Note_on_c, 3, 65, 84
9, 39480, Note_on_c, 3, 53, 84
9, 39584, Note_on_c, 3, 65, 0
9, 39584, Note_on_c, 3, 53, 0
9, 39600, Note_on_c, 3, 51, 84
9, 39600, Note_on_c, 3, 63, 84
9, 39779, Note_on_c, 3, 51, 0
9, 39779, Note_on_c, 3, 63, 0
9, 39840, Note_on_c, 3, 50, 84
9, 39840, Note_on_c, 3, 62, 84
9, 40019, Note_on_c, 3, 50, 0
9, 40019, Note_on_c, 3, 62, 0
9, 40080, Note_on_c, 3, 60, 84
9, 40080, Note_on_c, 3, 48, 84
9, 40259, Note_on_c, 3, 60, 0
9, 40259, Note_on_c, 3, 48, 0
9, 40305, Control_c, 3, 11, 96
9, 40320, Note_on_c, 3, 58, 68
9, 40320, Control_c, 3, 11, 96
9, 40380, Control_c, 3, 11, 99
9, 40440, Control_c, 3, 11, 101
9, 40500, Control_c, 3, 11, 104
9, 40560, Control_c, 3, 11, 106
9, 40620, Control_c, 3, 11, 109
9, 40680, Control_c, 3, 11, 112
9, 40740, Control_c, 3, 11, 114
9, 40800, Note_on_c, 3, 57, 68
9, 40800, Control_c, 3, 11, 117
9, 40860, Control_c, 3, 11, 119
9, 40919, Note_on_c, 3, 57, 0
9, 40920, Control_c, 3, 11, 122
9, 40920, Note_on_c, 3, 56, 68
9, 40980, Control_c, 3, 11, 124
9, 41039, Note_on_c, 3, 56, 0
9, 41040, Control_c, 3, 11, 127
9, 41040, Note_on_c, 3, 55, 68
9, 41100, Control_c, 3, 11, 124
9, 41160, Control_c, 3, 11, 122
9, 41220, Control_c, 3, 11, 119
9, 41279, Note_on_c, 3, 58, 0
9, 41279, Note_on_c, 3, 55, 0
9, 41280, Note_on_c, 3, 53, 68
9, 41280, Control_c, 3, 11, 117
9, 41280, Note_on_c, 3, 57, 68
9, 41340, Control_c, 3, 11, 114
9, 41400, Control_c, 3, 11, 112
9, 41460, Control_c, 3, 11, 109
9, 41519, Note_on_c, 3, 53, 0
9, 41519, Note_on_c, 3, 57, 0
9, 41520, Note_on_c, 3, 55, 68
9, 41520, Control_c, 3, 11, 106
9, 41520, Note_on_c, 3, 51, 68
9, 41580, Control_c, 3, 11, 104
9, 41640, Control_c, 3, 11, 101
9, 41700, Control_c, 3, 11, 96
9, 41744, Note_on_c, 3, 55, 0
9, 41744, Note_on_c, 3, 51, 0
9, 41760, Note_on_c, 3, 50, 68
9, 41760, Note_on_c, 3, 53, 68
9, 42239, Note_on_c, 3, 50, 0
9, 42239, Note_on_c, 3, 53, 0
9, 42240, Note_on_c, 3, 48, 68
9, 42240, Note_on_c, 3, 51, 68
9, 42359, Note_on_c, 3, 48, 0
9, 42359, Note_on_c, 3, 51, 0
9, 42360, Note_on_c, 3, 46, 68
9, 42360, Note_on_c, 3, 50, 68
9, 42464, Note_on_c, 3, 46, 0
9, 42464, Note_on_c, 3, 50, 0
9, 42480, Note_on_c, 3, 48, 68
9, 42480, Note_on_c, 3, 45, 68
9, 42704, Note_on_c, 3, 48, 0
9, 42704, Note_on_c, 3, 45, 0
9, 42720, Note_on_c, 3, 57, 68
9, 42720, Note_on_c, 3, 53, 68
9, 42929, Note_on_c, 3, 57, 0
9, 42929, Note_on_c, 3, 53, 0
9, 42960, Note_on_c, 3, 57, 68
9, 42960, Note_on_c, 3, 53, 68
9, 43169, Note_on_c, 3, 57, 0
9, 43169, Note_on_c, 3, 53, 0
9, 43200, Note_on_c, 3, 46, 68
9, 43200, Note_on_c, 3, 58, 68
9, 43439, Note_on_c, 3, 46, 0
9, 43439, Note_on_c, 3, 58, 0
9, 44640, Control_c, 3, 11, 127
9, 44760, Note_on_c, 3, 65, 64
9, 44849, Note_on_c, 3, 65, 0
9, 44880, Note_on_c, 3, 63, 65
9, 44969, Note_on_c, 3, 63, 0
9, 45000, Note_on_c, 3, 62, 66
9, 45089, Note_on_c, 3, 62, 0
9, 45120, Note_on_c, 3, 60, 67
9, 45209, Note_on_c, 3, 60, 0
9, 45240, Note_on_c, 3, 58, 68
9, 45329, Note_on_c, 3, 58, 0
9, 45360, Note_on_c, 3, 57, 69
9, 45449, Note_on_c, 3, 57, 0
9, 45480, Note_on_c, 3, 62, 70
9, 45480, Note_on_c, 3, 58, 70
9, 45569, Note_on_c, 3, 62, 0
9, 45569, Note_on_c, 3, 58, 0
9, 45600, Note_on_c, 3, 60, 71
9, 45600, Note_on_c, 3, 63, 71
9, 45689, Note_on_c, 3, 60, 0
9, 45689, Note_on_c, 3, 63, 0
9, 45720, Note_on_c, 3, 58, 72
9, 45720, Note_on_c, 3, 62, 72
9, 45809, Note_on_c, 3, 58, 0
9, 45809, Note_on_c, 3, 62, 0
9, 45840, Note_on_c, 3, 57, 73
9, 45840, Note_on_c, 3, 60, 73
9, 45929, Note_on_c, 3, 57, 0
9, 45929, Note_on_c, 3, 60, 0
9, 45960, Note_on_c, 3, 55, 74
9, 45960, Note_on_c, 3, 58, 74
9, 46049, Note_on_c, 3, 55, 0
9, 46049, Note_on_c, 3, 58, 0
9, 46080, Note_on_c, 3, 54, 76
9, 46080, Note_on_c, 3, 57, 76
9, 46259, Note_on_c, 3, 54, 0
9, 46259, Note_on_c, 3, 57, 0
9, 46320, Note_on_c, 3, 54, 76
9, 46320, Note_on_c, 3, 57, 76
9, 46499, Note_on_c, 3, 54, 0
9, 46499, Note_on_c, 3, 57, 0
9, 47400, Note_on_c, 3, 57, 76
9, 47400, Note_on_c, 3, 54, 76
9, 47489, Note_on_c, 3, 57, 0
9, 47489, Note_on_c, 3, 54, 0
9, 47520, Note_on_c, 3, 58, 76
9, 47520, Note_on_c, 3, 55, 76
9, 47699, Note_on_c, 3, 58, 0
9, 47699, Note_on_c, 3, 55, 0
9, 47760, Note_on_c, 3, 58, 76
9, 47760, Note_on_c, 3, 55, 76
9, 47939, Note_on_c, 3, 58, 0
9, 47939, Note_on_c, 3, 55, 0
9, 48840, Note_on_c, 3, 58, 76
9, 48840, Note_on_c, 3, 55, 76
9, 48929, Note_on_c, 3, 58, 0
9, 48929, Note_on_c, 3, 55, 0
9, 48960, Note_on_c, 3, 56, 76
9, 48960, Note_on_c, 3, 53, 76
9, 49139, Note_on_c, 3, 56, 0
9, 49139, Note_on_c, 3, 53, 0
9, 49200, Note_on_c, 3, 53, 76
9, 49200, Note_on_c, 3, 56, 76
9, 49379, Note_on_c, 3, 53, 0
9, 49379, Note_on_c, 3, 56, 0
9, 50280, Note_on_c, 3, 53, 76
9, 50280, Note_on_c, 3, 65, 76
9, 50369, Note_on_c, 3, 53, 0
9, 50369, Note_on_c, 3, 65, 0
9, 50400, Note_on_c, 3, 63, 76
9, 50400, Note_on_c, 3, 51, 76
9, 50489, Note_on_c, 3, 63, 0
9, 50489, Note_on_c, 3, 51, 0
9, 50520, Note_on_c, 3, 51, 76
9, 50520, Note_on_c, 3, 58, 76
9, 50744, Note_on_c, 3, 51, 0
9, 50744, Note_on_c, 3, 58, 0
9, 50760, Note_on_c, 3, 58, 76
9, 50760, Note_on_c, 3, 52, 76
9, 50849, Note_on_c, 3, 58, 0
9, 50849, Note_on_c, 3, 52, 0
9, 50880, Note_on_c, 3, 57, 76
9, 50880, Note_on_c, 3, 53, 76
9, 50969, Note_on_c, 3, 57, 0
9, 50969, Note_on_c, 3, 53, 0
9, 51000, Note_on_c, 3, 54, 76
9, 51000, Note_on_c, 3, 60, 76
9, 51089, Note_on_c, 3, 54, 0
9, 51089, Note_on_c, 3, 60, 0
9, 51120, Note_on_c, 3, 55, 76
9, 51120, Note_on_c, 3, 58, 76
9, 51209, Note_on_c, 3, 55, 0
9, 51209, Note_on_c, 3, 58, 0
9, 51240, Note_on_c, 3, 61, 76
9, 51240, Note_on_c, 3, 55, 76
9, 51464, Note_on_c, 3, 61, 0
9, 51464, Note_on_c, 3, 55, 0
9, 51480, Note_on_c, 3, 55, 76
9, 51480, Note_on_c, 3, 61, 76
9, 51569, Note_on_c, 3, 55, 0
9, 51569, Note_on_c, 3, 61, 0
9, 51600, Note_on_c, 3, 60, 76
9, 51600, Note_on_c, 3, 56, 76
9, 51689, Note_on_c, 3, 60, 0
9, 51689, Note_on_c, 3, 56, 0
9, 51720, Note_on_c, 3, 60, 76
9, 51720, Note_on_c, 3, 57, 76
9, 51809, Note_on_c, 3, 60, 0
9, 51809, Note_on_c, 3, 57, 0
9, 51840, Note_on_c, 3, 58, 76
9, 51840, Note_on_c, 3, 62, 76
9, 52079, Note_on_c, 3, 58, 0
9, 52079, Note_on_c, 3, 62, 0
9, 53040, Note_on_c, 3, 58, 76
9, 53040, Note_on_c, 3, 50, 76
9, 53279, Note_on_c, 3, 50, 0
9, 53280, Note_on_c, 3, 51, 76
9, 53759, Note_on_c, 3, 58, 0
9, 53760, Note_on_c, 3, 59, 76
9, 53984, Note_on_c, 3, 59, 0
9, 54000, Note_on_c, 3, 60, 76
9, 54119, Note_on_c, 3, 60, 0
9, 54120, Note_on_c, 3, 59, 76
9, 54239, Note_on_c, 3, 59, 0
9, 54240, Note_on_c, 3, 62, 76
9, 54344, Note_on_c, 3, 51, 0
9, 54359, Note_on_c, 3, 62, 0
9, 54360, Note_on_c, 3, 55, 76
9, 54360, Note_on_c, 3, 60, 76
9, 54479, Note_on_c, 3, 55, 0
9, 54479, Note_on_c, 3, 60, 0
9, 54480, Note_on_c, 3, 59, 76
9, 54480, Note_on_c, 3, 65, 76
9, 54599, Note_on_c, 3, 59, 0
9, 54599, Note_on_c, 3, 65, 0
9, 54600, Note_on_c, 3, 63, 76
9, 54600, Note_on_c, 3, 60, 76
9, 54704, Note_on_c, 3, 63, 0
9, 54704, Note_on_c, 3, 60, 0
9, 54720, Note_on_c, 3, 58, 76
9, 54720, Note_on_c, 3, 62, 76
9, 54959, Note_on_c, 3, 58, 0
9, 54959, Note_on_c, 3, 62, 0
9, 56160, Note_on_c, 3, 65, 76
9, 57704, Note_on_c, 3, 65, 0
9, 57720, Note_on_c, 3, 64, 84
9, 57809, Note_on_c, 3, 64, 0
9, 57840, Note_on_c, 3, 63, 84
9, 57929, Note_on_c, 3, 63, 0
9, 57960, Note_on_c, 3, 62, 84
9, 58049, Note_on_c, 3, 62, 0
9, 58080, Note_on_c, 3, 60, 84
9, 58169, Note_on_c, 3, 60, 0
9, 58200, Note_on_c, 3, 58, 84
9, 58289, Note_on_c, 3, 58, 0
9, 58320, Note_on_c, 3, 57, 84
9, 58409, Note_on_c, 3, 57, 0
9, 58440, Note_on_c, 3, 67, 84
9, 58440, Note_on_c, 3, 55, 84
9, 58529, Note_on_c, 3, 67, 0
9, 58529, Note_on_c, 3, 55, 0
9, 58560, Note_on_c, 3, 65, 84
9, 58560, Note_on_c, 3, 53, 84
9, 58649, Note_on_c, 3, 65, 0
9, 58649, Note_on_c, 3, 53, 0
9, 58680, Note_on_c, 3, 51, 84
9, 58680, Note_on_c, 3, 63, 84
9, 58769, Note_on_c, 3, 51, 0
9, 58769, Note_on_c, 3, 63, 0
9, 58800, Note_on_c, 3, 62, 84
9, 58800, Note_on_c, 3, 50, 84
9, 58889, Note_on_c, 3, 62, 0
9, 58889, Note_on_c, 3, 50, 0
9, 58920, Note_on_c, 3, 60, 84
9, 58920, Note_on_c, 3, 48, 84
9, 59009, Note_on_c, 3, 60, 0
9, 59009, Note_on_c, 3, 48, 0
9, 59040, Note_on_c, 3, 46, 84
9, 59040, Note_on_c, 3, 58, 84
9, 59249, Note_on_c, 3, 46, 0
9, 59249, Note_on_c, 3, 58, 0
9, 59265, Control_c, 3, 11, 96
9, 59280, Note_on_c, 3, 58, 68
9, 59280, Note_on_c, 3, 62, 68
9, 59489, Note_on_c, 3, 58, 0
9, 59489, Note_on_c, 3, 62, 0
9, 59520, Note_on_c, 3, 58, 68
9, 59520, Note_on_c, 3, 62, 68
9, 59729, Note_on_c, 3, 58, 0
9, 59729, Note_on_c, 3, 62, 0
9, 59760, Control_c, 3, 11, 96
9, 59760, Note_on_c, 3, 58, 68
9, 59760, Note_on_c, 3, 62, 68
9, 59880, Control_c, 3, 11, 99
9, 59969, Note_on_c, 3, 58, 0
9, 59969, Note_on_c, 3, 62, 0
9, 60000, Note_on_c, 3, 62, 68
9, 60000, Note_on_c, 3, 58, 68
9, 60000, Control_c, 3, 11, 101
9, 60120, Control_c, 3, 11, 104
9, 60209, Note_on_c, 3, 62, 0
9, 60209, Note_on_c, 3, 58, 0
9, 60240, Note_on_c, 3, 62, 68
9, 60240, Note_on_c, 3, 58, 68
9, 60240, Control_c, 3, 11, 106
9, 60360, Control_c, 3, 11, 109
9, 60449, Note_on_c, 3, 62, 0
9, 60449, Note_on_c, 3, 58, 0
9, 60480, Note_on_c, 3, 58, 68
9, 60480, Control_c, 3, 11, 112
9, 60480, Note_on_c, 3, 62, 68
9, 60600, Control_c, 3, 11, 114
9, 60689, Note_on_c, 3, 58, 0
9, 60689, Note_on_c, 3, 62, 0
9, 60720, Control_c, 3, 11, 117
9, 60720, Note_on_c, 3, 62, 68
9, 60720, Note_on_c, 3, 58, 68
9, 60840, Control_c, 3, 11, 119
9, 60929, Note_on_c, 3, 62, 0
9, 60929, Note_on_c, 3, 58, 0
9, 60960, Note_on_c, 3, 58, 68
9, 60960, Note_on_c, 3, 46, 76
9, 60960, Control_c, 3, 11, 122
9, 61080, Control_c, 3, 11, 124
9, 61169, Note_on_c, 3, 46, 0
9, 61200, Control_c, 3, 11, 127
9, 61200, Note_on_c, 3, 51, 68
9, 61260, Control_c, 3, 11, 124
9, 61320, Control_c, 3, 11, 122
9, 61380, Control_c, 3, 11, 119
9, 61439, Note_on_c, 3, 58, 0
9, 61440, Control_c, 3, 11, 117
9, 61440, Note_on_c, 3, 59, 68
9, 61500, Control_c, 3, 11, 114
9, 61560, Control_c, 3, 11, 112
9, 61620, Control_c, 3, 11, 109
9, 61679, Note_on_c, 3, 59, 0
9, 61680, Note_on_c, 3, 60, 68
9, 61680, Control_c, 3, 11, 106
9, 61740, Control_c, 3, 11, 104
9, 61800, Control_c, 3, 11, 101
9, 61860, Control_c, 3, 11, 99
9, 61919, Note_on_c, 3, 51, 0
9, 61919, Note_on_c, 3, 60, 0
9, 63360, Control_c, 3, 11, 127
9, 63840, Note_on_c, 3, 67, 76
9, 64080, Control_c, 3, 11, 127
9, 64140, Control_c, 3, 11, 124
9, 64200, Control_c, 3, 11, 122
9, 64260, Control_c, 3, 11, 119
9, 64319, Note_on_c, 3, 67, 0
9, 64320, Control_c, 3, 11, 117
9, 64320, Note_on_c, 3, 65, 68
9, 64380, Control_c, 3, 11, 114
9, 64439, Note_on_c, 3, 65, 0
9, 64440, Control_c, 3, 11, 112
9, 64440, Note_on_c, 3, 63, 68
9, 64500, Control_c, 3, 11, 109
9, 64559, Note_on_c, 3, 63, 0
9, 64560, Note_on_c, 3, 62, 68
9, 64560, Control_c, 3, 11, 106
9, 64620, Control_c, 3, 11, 104
9, 64679, Note_on_c, 3, 62, 0
9, 64680, Note_on_c, 3, 60, 68
9, 64680, Control_c, 3, 11, 101
9, 64740, Control_c, 3, 11, 96
9, 64784, Note_on_c, 3, 60, 0
9, 64800, Note_on_c, 3, 58, 68
9, 65024, Note_on_c, 3, 58, 0
9, 65040, Note_on_c, 3, 61, 68
9, 65040, Note_on_c, 3, 58, 68
9, 65249, Note_on_c, 3, 61, 0
9, 65249, Note_on_c, 3, 58, 0
9, 65280, Note_on_c, 3, 61, 68
9, 65280, Note_on_c, 3, 58, 68
9, 65489, Note_on_c, 3, 61, 0
9, 65489, Note_on_c, 3, 58, 0
9, 65520, Note_on_c, 3, 58, 68
9, 65520, Note_on_c, 3, 61, 68
9, 65520, Control_c, 3, 11, 96
9, 65640, Control_c, 3, 11, 99
9, 65729, Note_on_c, 3, 58, 0
9, 65729, Note_on_c, 3, 61, 0
9, 65760, Note_on_c, 3, 61, 68
9, 65760, Note_on_c, 3, 58, 68
9, 65760, Control_c, 3, 11, 101
9, 65880, Control_c, 3, 11, 104
9, 65969, Note_on_c, 3, 61, 0
9, 65969, Note_on_c, 3, 58, 0
9, 66000, Note_on_c, 3, 58, 68
9, 66000, Note_on_c, 3, 61, 68
9, 66000, Control_c, 3, 11, 106
9, 66120, Control_c, 3, 11, 109
9, 66209, Note_on_c, 3, 58, 0
9, 66209, Note_on_c, 3, 61, 0
9, 66240, Note_on_c, 3, 61, 68
9, 66240, Control_c, 3, 11, 112
9, 66240, Note_on_c, 3, 58, 68
9, 66360, Control_c, 3, 11, 114
9, 66449, Note_on_c, 3, 61, 0
9, 66449, Note_on_c, 3, 58, 0
9, 66480, Note_on_c, 3, 61, 68
9, 66480, Note_on_c, 3, 56, 68
9, 66480, Control_c, 3, 11, 117
9, 66600, Control_c, 3, 11, 119
9, 66689, Note_on_c, 3, 61, 0
9, 66689, Note_on_c, 3, 56, 0
9, 66720, Note_on_c, 3, 61, 68
9, 66720, Control_c, 3, 11, 122
9, 66720, Note_on_c, 3, 56, 68
9, 66840, Control_c, 3, 11, 127
9, 66929, Note_on_c, 3, 61, 0
9, 66929, Note_on_c, 3, 56, 0
9, 66960, Note_on_c, 3, 56, 76
9, 66960, Note_on_c, 3, 61, 76
9, 66960, Control_c, 3, 11, 127
9, 67020, Control_c, 3, 11, 124
9, 67080, Control_c, 3, 11, 122
9, 67140, Control_c, 3, 11, 119
9, 67200, Control_c, 3, 11, 117
9, 67260, Control_c, 3, 11, 114
9, 67320, Control_c, 3, 11, 112
9, 67380, Control_c, 3, 11, 109
9, 67439, Note_on_c, 3, 61, 0
9, 67440, Note_on_c, 3, 60, 68
9, 67440, Control_c, 3, 11, 106
9, 67500, Control_c, 3, 11, 104
9, 67560, Control_c, 3, 11, 101
9, 67620, Control_c, 3, 11, 96
9, 67679, Note_on_c, 3, 56, 0
9, 67679, Note_on_c, 3, 60, 0
9, 69120, Note_on_c, 3, 48, 68
9, 69120, Note_on_c, 3, 60, 68
9, 69359, Note_on_c, 3, 48, 0
9, 69359, Note_on_c, 3, 60, 0
9, 70080, Note_on_c, 3, 60, 68
9, 70080, Note_on_c, 3, 67, 68
9, 70080, Control_c, 3, 11, 96
9, 70120, Control_c, 3, 11, 101
9, 70160, Control_c, 3, 11, 106
9, 70200, Control_c, 3, 11, 112
9, 70240, Control_c, 3, 11, 117
9, 70280, Control_c, 3, 11, 122
9, 70289, Note_on_c, 3, 60, 0
9, 70289, Note_on_c, 3, 67, 0
9, 70320, Note_on_c, 3, 60, 68
9, 70320, Control_c, 3, 11, 127
9, 70320, Note_on_c, 3, 67, 68
9, 70360, Control_c, 3, 11, 122
9, 70400, Control_c, 3, 11, 117
9, 70440, Control_c, 3, 11, 112
9, 70480, Control_c, 3, 11, 106
9, 70520, Control_c, 3, 11, 101
9, 70529, Note_on_c, 3, 60, 0
9, 70529, Note_on_c, 3, 67, 0
9, 70560, Note_on_c, 3, 65, 68
9, 70560, Note_on_c, 3, 53, 68
9, 70799, Note_on_c, 3, 65, 0
9, 70799, Note_on_c, 3, 53, 0
9, 76320, Control_c, 3, 11, 127
9, 76800, Note_on_c, 3, 63, 52
9, 76800, Note_on_c, 3, 60, 52
9, 76889, Note_on_c, 3, 63, 0
9, 76889, Note_on_c, 3, 60, 0
9, 76920, Note_on_c, 3, 58, 55
9, 76920, Note_on_c, 3, 62, 55
9, 77009, Note_on_c, 3, 58, 0
9, 77009, Note_on_c, 3, 62, 0
9, 77040, Note_on_c, 3, 60, 58
9, 77040, Note_on_c, 3, 57, 58
9, 77129, Note_on_c, 3, 60, 0
9, 77129, Note_on_c, 3, 57, 0
9, 77160, Note_on_c, 3, 58, 61
9, 77160, Note_on_c, 3, 55, 61
9, 77249, Note_on_c, 3, 58, 0
9, 77249, Note_on_c, 3, 55, 0
9, 77280, Note_on_c, 3, 57, 64
9, 77280, Note_on_c, 3, 53, 64
9, 77369, Note_on_c, 3, 57, 0
9, 77369, Note_on_c, 3, 53, 0
9, 77400, Note_on_c, 3, 51, 67
9, 77400, Note_on_c, 3, 55, 67
9, 77489, Note_on_c, 3, 51, 0
9, 77489, Note_on_c, 3, 55, 0
9, 77520, Note_on_c, 3, 53, 70
9, 77520, Note_on_c, 3, 50, 70
9, 77609, Note_on_c, 3, 53, 0
9, 77609, Note_on_c, 3, 50, 0
9, 77640, Note_on_c, 3, 51, 73
9, 77640, Note_on_c, 3, 48, 73
9, 77729, Note_on_c, 3, 51, 0
9, 77729, Note_on_c, 3, 48, 0
9, 77760, Note_on_c, 3, 46, 76
9, 77760, Note_on_c, 3, 50, 76
9, 77984, Note_on_c, 3, 46, 0
9, 77984, Note_on_c, 3, 50, 0
9, 78000, Note_on_c, 3, 53, 84
9, 78000, Note_on_c, 3, 58, 84
9, 78479, Note_on_c, 3, 53, 0
9, 78479, Note_on_c, 3, 58, 0
9, 78720, Note_on_c, 3, 53, 84
9, 78720, Note_on_c, 3, 58, 84
9, 79199, Note_on_c, 3, 53, 0
9, 79199, Note_on_c, 3, 58, 0
9, 79440, Note_on_c, 3, 57, 84
9, 79440, Note_on_c, 3, 53, 84
9, 79919, Note_on_c, 3, 57, 0
9, 79919, Note_on_c, 3, 53, 0
9, 80160, Note_on_c, 3, 63, 84
9, 80160, Note_on_c, 3, 51, 84
9, 80369, Note_on_c, 3, 63, 0
9, 80369, Note_on_c, 3, 51, 0
9, 80400, Note_on_c, 3, 57, 76
9, 80400, Note_on_c, 3, 53, 76
9, 80624, Note_on_c, 3, 57, 0
9, 80624, Note_on_c, 3, 53, 0
9, 80640, Note_on_c, 3, 58, 84
9, 80640, Note_on_c, 3, 46, 84
9, 80744, Note_on_c, 3, 46, 0
9, 80760, Note_on_c, 3, 41, 84
9, 80819, Note_on_c, 3, 58, 0
9, 80864, Note_on_c, 3, 41, 0
9, 80880, Note_on_c, 3, 65, 92
9, 80880, Note_on_c, 3, 46, 84
9, 80984, Note_on_c, 3, 46, 0
9, 81000, Note_on_c, 3, 41, 84
9, 81104, Note_on_c, 3, 41, 0
9, 81120, Note_on_c, 3, 46, 84
9, 81224, Note_on_c, 3, 65, 0
9, 81224, Note_on_c, 3, 46, 0
9, 81240, Note_on_c, 3, 62, 84
9, 81240, Note_on_c, 3, 41, 84
9, 81344, Note_on_c, 3, 62, 0
9, 81344, Note_on_c, 3, 41, 0
9, 81360, Note_on_c, 3, 46, 84
9, 81360, Note_on_c, 3, 58, 84
9, 81464, Note_on_c, 3, 46, 0
9, 81480, Note_on_c, 3, 41, 84
9, 81539, Note_on_c, 3, 58, 0
9, 81584, Note_on_c, 3, 41, 0
9, 81600, Note_on_c, 3, 46, 84
9, 81600, Note_on_c, 3, 62, 92
9, 81704, Note_on_c, 3, 46, 0
9, 81720, Note_on_c, 3, 41, 84
9, 81824, Note_on_c, 3, 41, 0
9, 81840, Note_on_c, 3, 46, 84
9, 81944, Note_on_c, 3, 62, 0
9, 81944, Note_on_c, 3, 46, 0
9, 81960, Note_on_c, 3, 53, 84
9, 81960, Note_on_c, 3, 41, 84
9, 82064, Note_on_c, 3, 53, 0
9, 82064, Note_on_c, 3, 41, 0
9, 82080, Note_on_c, 3, 45, 84
9, 82080, Note_on_c, 3, 60, 84
9, 82184, Note_on_c, 3, 45, 0
9, 82200, Note_on_c, 3, 41, 84
9, 82259, Note_on_c, 3, 60, 0
9, 82304, Note_on_c, 3, 41, 0
9, 82320, Note_on_c, 3, 45, 84
9, 82320, Note_on_c, 3, 63, 92
9, 82424, Note_on_c, 3, 45, 0
9, 82440, Note_on_c, 3, 41, 84
9, 82544, Note_on_c, 3, 41, 0
9, 82560, Note_on_c, 3, 45, 84
9, 82664, Note_on_c, 3, 63, 0
9, 82664, Note_on_c, 3, 45, 0
9, 82680, Note_on_c, 3, 41, 84
9, 82680, Note_on_c, 3, 53, 84
9, 82784, Note_on_c, 3, 41, 0
9, 82784, Note_on_c, 3, 53, 0
9, 82800, Note_on_c, 3, 48, 84
9, 82800, Note_on_c, 3, 57, 84
9, 82904, Note_on_c, 3, 48, 0
9, 82920, Note_on_c, 3, 41, 84
9, 82979, Note_on_c, 3, 57, 0
9, 83024, Note_on_c, 3, 41, 0
9, 83040, Note_on_c, 3, 60, 92
9, 83040, Note_on_c, 3, 51, 84
9, 83144, Note_on_c, 3, 51, 0
9, 83160, Note_on_c, 3, 53, 84
9, 83264, Note_on_c, 3, 53, 0
9, 83280, Note_on_c, 3, 51, 84
9, 83384, Note_on_c, 3, 60, 0
9, 83384, Note_on_c, 3, 51, 0
9, 83400, Note_on_c, 3, 53, 84
9, 83504, Note_on_c, 3, 53, 0
9, 83520, Note_on_c, 3, 62, 84
9, 83520, Note_on_c, 3, 50, 84
9, 84119, Note_on_c, 3, 62, 0
9, 84119, Note_on_c, 3, 50, 0
9, 84120, Note_on_c, 3, 61, 84
9, 84120, Note_on_c, 3, 49, 84
9, 84239, Note_on_c, 3, 61, 0
9, 84239, Note_on_c, 3, 49, 0
9, 84240, Note_on_c, 3, 50, 84
9, 84240, Note_on_c, 3, 62, 84
9, 84359, Note_on_c, 3, 50, 0
9, 84359, Note_on_c, 3, 62, 0
9, 87240, Note_on_c, 3, 54, 84
9, 87240, Note_on_c, 3, 66, 84
9, 87329, Note_on_c, 3, 54, 0
9, 87329, Note_on_c, 3, 66, 0
9, 87360, Note_on_c, 3, 67, 84
9, 87360, Note_on_c, 3, 55, 84
9, 87449, Note_on_c, 3, 67, 0
9, 87449, Note_on_c, 3, 55, 0
9, 87480, Note_on_c, 3, 53, 84
9, 87480, Note_on_c, 3, 65, 84
9, 87569, Note_on_c, 3, 53, 0
9, 87569, Note_on_c, 3, 65, 0
9, 87600, Note_on_c, 3, 52, 84
9, 87600, Note_on_c, 3, 64, 84
9, 87689, Note_on_c, 3, 52, 0
9, 87689, Note_on_c, 3, 64, 0
9, 87720, Note_on_c, 3, 63, 84
9, 87720, Note_on_c, 3, 51, 84
9, 87809, Note_on_c, 3, 63, 0
9, 87809, Note_on_c, 3, 51, 0
9, 87840, Note_on_c, 3, 50, 84
9, 87840, Note_on_c, 3, 62, 84
9, 88019, Note_on_c, 3, 50, 0
9, 88019, Note_on_c, 3, 62, 0
9, 88080, Note_on_c, 3, 60, 84
9, 88080, Note_on_c, 3, 57, 84
9, 88259, Note_on_c, 3, 60, 0
9, 88259, Note_on_c, 3, 57, 0
9, 88320, Note_on_c, 3, 58, 84
9, 88320, Note_on_c, 3, 55, 84
9, 88499, Note_on_c, 3, 58, 0
9, 88499, Note_on_c, 3, 55, 0
9, 88800, Note_on_c, 3, 53, 84
9, 88800, Note_on_c, 3, 59, 84
9, 88979, Note_on_c, 3, 53, 0
9, 88979, Note_on_c, 3, 59, 0
9, 89040, Note_on_c, 3, 60, 84
9, 89040, Note_on_c, 3, 55, 84
9, 89219, Note_on_c, 3, 60, 0
9, 89219, Note_on_c, 3, 55, 0
9, 89520, Note_on_c, 3, 60, 84
9, 89520, Note_on_c, 3, 58, 84
9, 89699, Note_on_c, 3, 60, 0
9, 89699, Note_on_c, 3, 58, 0
9, 89760, Note_on_c, 3, 60, 84
9, 89760, Note_on_c, 3, 57, 84
9, 89939, Note_on_c, 3, 60, 0
9, 89939, Note_on_c, 3, 57, 0
9, 90240, Note_on_c, 3, 60, 84
9, 90240, Note_on_c, 3, 57, 84
9, 90419, Note_on_c, 3, 60, 0
9, 90419, Note_on_c, 3, 57, 0
9, 90480, Note_on_c, 3, 55, 84
9, 90480, Note_on_c, 3, 58, 84
9, 90659, Note_on_c, 3, 55, 0
9, 90659, Note_on_c, 3, 58, 0
9, 90960, Note_on_c, 3, 53, 84
9, 90960, Note_on_c, 3, 59, 84
9, 91139, Note_on_c, 3, 53, 0
9, 91139, Note_on_c, 3, 59, 0
9, 91200, Note_on_c, 3, 60, 84
9, 91200, Note_on_c, 3, 55, 84
9, 91379, Note_on_c, 3, 60, 0
9, 91379, Note_on_c, 3, 55, 0
9, 91680, Note_on_c, 3, 58, 92
9, 91680, Note_on_c, 3, 60, 92
9, 91859, Note_on_c, 3, 58, 0
9, 91859, Note_on_c, 3, 60, 0
9, 92160, Note_on_c, 3, 60, 92
9, 92160, Note_on_c, 3, 58, 92
9, 92339, Note_on_c, 3, 60, 0
9, 92339, Note_on_c, 3, 58, 0
9, 92640, Note_on_c, 3, 58, 92
9, 92640, Note_on_c, 3, 60, 92
9, 92819, Note_on_c, 3, 58, 0
9, 92819, Note_on_c, 3, 60, 0
9, 93120, Note_on_c, 3, 58, 92
9, 93120, Note_on_c, 3, 60, 92
9, 93299, Note_on_c, 3, 58, 0
9, 93299, Note_on_c, 3, 60, 0
9, 93600, Note_on_c, 3, 58, 92
9, 93600, Note_on_c, 3, 60, 92
9, 93779, Note_on_c, 3, 58, 0
9, 93779, Note_on_c, 3, 60, 0
9, 94080, Note_on_c, 3, 58, 92
9, 94080, Note_on_c, 3, 60, 92
9, 94259, Note_on_c, 3, 58, 0
9, 94259, Note_on_c, 3, 60, 0
9, 95040, Note_on_c, 3, 54, 76
9, 95040, Note_on_c, 3, 61, 76
9, 95160, Control_c, 3, 11, 80
9, 95759, Note_on_c, 3, 54, 0
9, 95759, Note_on_c, 3, 61, 0
9, 95760, Note_on_c, 3, 53, 76
9, 95760, Note_on_c, 3, 62, 76
9, 96449, Note_on_c, 3, 53, 0
9, 96449, Note_on_c, 3, 62, 0
9, 96465, Control_c, 3, 11, 127
9, 96480, Note_on_c, 3, 55, 76
9, 96480, Note_on_c, 3, 61, 76
9, 96600, Control_c, 3, 11, 80
9, 97649, Note_on_c, 3, 55, 0
9, 97649, Note_on_c, 3, 61, 0
9, 97680, Note_on_c, 3, 61, 76
9, 97680, Note_on_c, 3, 58, 76
9, 97859, Note_on_c, 3, 61, 0
9, 97859, Note_on_c, 3, 58, 0
9, 98160, Note_on_c, 3, 60, 76
9, 98160, Note_on_c, 3, 56, 76
9, 98339, Note_on_c, 3, 60, 0
9, 98339, Note_on_c, 3, 56, 0
9, 98640, Note_on_c, 3, 57, 76
9, 98640, Note_on_c, 3, 60, 76
9, 98819, Note_on_c, 3, 57, 0
9, 98819, Note_on_c, 3, 60, 0
9, 99120, Note_on_c, 3, 57, 76
9, 99120, Note_on_c, 3, 60, 76
9, 99299, Note_on_c, 3, 57, 0
9, 99299, Note_on_c, 3, 60, 0
9, 99360, Control_c, 3, 11, 64
9, 99600, Note_on_c, 3, 58, 84
9, 99600, Note_on_c, 3, 62, 84
9, 99779, Note_on_c, 3, 58, 0
9, 99779, Note_on_c, 3, 62, 0
9, 100080, Note_on_c, 3, 63, 84
9, 100080, Control_c, 3, 11, 64
9, 100080, Note_on_c, 3, 51, 84
9, 100170, Control_c, 3, 11, 67
9, 100260, Control_c, 3, 11, 69
9, 100350, Control_c, 3, 11, 72
9, 100440, Control_c, 3, 11, 75
9, 100530, Control_c, 3, 11, 77
9, 100620, Control_c, 3, 11, 80
9, 100710, Control_c, 3, 11, 82
9, 100784, Note_on_c, 3, 63, 0
9, 100784, Note_on_c, 3, 51, 0
9, 100800, Control_c, 3, 11, 85
9, 100800, Note_on_c, 3, 48, 84
9, 100800, Note_on_c, 3, 60, 84
9, 100890, Control_c, 3, 11, 88
9, 100980, Control_c, 3, 11, 90
9, 101070, Control_c, 3, 11, 93
9, 101144, Note_on_c, 3, 48, 0
9, 101144, Note_on_c, 3, 60, 0
9, 101160, Control_c, 3, 11, 96
9, 101160, Note_on_c, 3, 48, 84
9, 101160, Note_on_c, 3, 55, 84
9, 101250, Control_c, 3, 11, 98
9, 101279, Note_on_c, 3, 48, 0
9, 101279, Note_on_c, 3, 55, 0
9, 101280, Note_on_c, 3, 59, 84
9, 101280, Note_on_c, 3, 50, 84
9, 101340, Control_c, 3, 11, 101
9, 101399, Note_on_c, 3, 59, 0
9, 101399, Note_on_c, 3, 50, 0
9, 101400, Note_on_c, 3, 51, 84
9, 101400, Note_on_c, 3, 60, 84
9, 101430, Control_c, 3, 11, 103
9, 101504, Note_on_c, 3, 51, 0
9, 101504, Note_on_c, 3, 60, 0
9, 101520, Note_on_c, 3, 58, 84
9, 101520, Control_c, 3, 11, 106
9, 101520, Note_on_c, 3, 53, 84
9, 101610, Control_c, 3, 11, 109
9, 101624, Note_on_c, 3, 58, 0
9, 101624, Note_on_c, 3, 53, 0
9, 101640, Note_on_c, 3, 53, 84
9, 101640, Note_on_c, 3, 65, 84
9, 101700, Control_c, 3, 11, 111
9, 101744, Note_on_c, 3, 53, 0
9, 101744, Note_on_c, 3, 65, 0
9, 101760, Note_on_c, 3, 53, 84
9, 101760, Note_on_c, 3, 65, 84
9, 101790, Control_c, 3, 11, 114
9, 101864, Note_on_c, 3, 53, 0
9, 101864, Note_on_c, 3, 65, 0
9, 101880, Note_on_c, 3, 53, 84
9, 101880, Control_c, 3, 11, 117
9, 101880, Note_on_c, 3, 65, 84
9, 101970, Control_c, 3, 11, 119
9, 101984, Note_on_c, 3, 53, 0
9, 101984, Note_on_c, 3, 65, 0
9, 102000, Note_on_c, 3, 62, 84
9, 102000, Note_on_c, 3, 50, 84
9, 102060, Control_c, 3, 11, 122
9, 102104, Note_on_c, 3, 62, 0
9, 102104, Note_on_c, 3, 50, 0
9, 102120, Note_on_c, 3, 58, 84
9, 102120, Note_on_c, 3, 46, 84
9, 102150, Control_c, 3, 11, 127
9, 102224, Note_on_c, 3, 58, 0
9, 102224, Note_on_c, 3, 46, 0
9, 102240, Note_on_c, 3, 53, 84
9, 102240, Note_on_c, 3, 60, 84
9, 102944, Note_on_c, 3, 53, 0
9, 102944, Note_on_c, 3, 60, 0
9, 102960, Note_on_c, 3, 46, 76
9, 102960, Note_on_c, 3, 58, 76
9, 103139, Note_on_c, 3, 46, 0
9, 103139, Note_on_c, 3, 58, 0
9, 103680, Note_on_c, 3, 58, 76
9, 103680, Note_on_c, 3, 46, 76
9, 103859, Note_on_c, 3, 58, 0
9, 103859, Note_on_c, 3, 46, 0
9, 104400, Note_on_c, 3, 46, 76
9, 104400, Note_on_c, 3, 58, 76
9, 104579, Note_on_c, 3, 46, 0
9, 104579, Note_on_c, 3, 58, 0
9, 105120, Note_on_c, 3, 63, 76
9, 105120, Note_on_c, 3, 60, 76
9, 105299, Note_on_c, 3, 63, 0
9, 105299, Note_on_c, 3, 60, 0
9, 105360, Note_on_c, 3, 60, 76
9, 105360, Note_on_c, 3, 63, 76
9, 105539, Note_on_c, 3, 60, 0
9, 105539, Note_on_c, 3, 63, 0
9, 105600, Note_on_c, 3, 60, 76
9, 105600, Note_on_c, 3, 63, 76
9, 105779, Note_on_c, 3, 60, 0
9, 105779, Note_on_c, 3, 63, 0
9, 105840, Note_on_c, 3, 62, 76
9, 105840, Note_on_c, 3, 58, 76
9, 106079, Note_on_c, 3, 62, 0
9, 106079, Note_on_c, 3, 58, 0
9, 122640, Control_c, 3, 11, 80
9, 122880, Note_on_c, 3, 51, 76
9, 123119, Note_on_c, 3, 51, 0
9, 123120, Note_on_c, 3, 56, 76
9, 123359, Note_on_c, 3, 56, 0
9, 123360, Note_on_c, 3, 60, 76
9, 123599, Note_on_c, 3, 60, 0
9, 123600, Note_on_c, 3, 63, 76
9, 123824, Note_on_c, 3, 63, 0
9, 123840, Control_c, 3, 11, 80
9, 123840, Note_on_c, 3, 56, 76
9, 123900, Control_c, 3, 11, 84
9, 123960, Control_c, 3, 11, 88
9, 124020, Control_c, 3, 11, 92
9, 124080, Control_c, 3, 11, 96
9, 124140, Control_c, 3, 11, 100
9, 124200, Control_c, 3, 11, 104
9, 124260, Control_c, 3, 11, 107
9, 124319, Note_on_c, 3, 56, 0
9, 124320, Note_on_c, 3, 57, 76
9, 124320, Control_c, 3, 11, 111
9, 124380, Control_c, 3, 11, 115
9, 124440, Control_c, 3, 11, 119
9, 124500, Control_c, 3, 11, 123
9, 124544, Note_on_c, 3, 57, 0
9, 124560, Note_on_c, 3, 58, 76
9, 124560, Control_c, 3, 11, 127
9, 124680, Control_c, 3, 11, 80
9, 125280, Note_on_c, 3, 62, 76
9, 125759, Note_on_c, 3, 58, 0
9, 125759, Note_on_c, 3, 62, 0
9, 125760, Note_on_c, 3, 65, 76
9, 125760, Note_on_c, 3, 56, 76
9, 125984, Note_on_c, 3, 65, 0
9, 125984, Note_on_c, 3, 56, 0
9, 126000, Note_on_c, 3, 55, 76
9, 126000, Note_on_c, 3, 63, 76
9, 126179, Note_on_c, 3, 55, 0
9, 126179, Note_on_c, 3, 63, 0
9, 126225, Control_c, 3, 11, 127
9, 126240, Note_on_c, 3, 60, 76
9, 126240, Note_on_c, 3, 54, 76
9, 126689, Note_on_c, 3, 60, 0
9, 126689, Note_on_c, 3, 54, 0
9, 126720, Note_on_c, 3, 54, 76
9, 126720, Note_on_c, 3, 60, 76
9, 127169, Note_on_c, 3, 54, 0
9, 127169, Note_on_c, 3, 60, 0
9, 127200, Note_on_c, 3, 54, 76
9, 127200, Note_on_c, 3, 60, 76
9, 127409, Note_on_c, 3, 54, 0
9, 127409, Note_on_c, 3, 60, 0
9, 127440, Note_on_c, 3, 62, 76
9, 127440, Note_on_c, 3, 53, 76
9, 127560, Control_c, 3, 11, 80
9, 127679, Note_on_c, 3, 62, 0
9, 127679, Note_on_c, 3, 53, 0
9, 128160, Control_c, 3, 11, 127
9, 128640, Note_on_c, 3, 62, 76
9, 128640, Note_on_c, 3, 58, 76
9, 128849, Note_on_c, 3, 58, 0
9, 128880, Note_on_c, 3, 56, 52
9, 129089, Note_on_c, 3, 62, 0
9, 129089, Note_on_c, 3, 56, 0
9, 129120, Note_on_c, 3, 56, 76
9, 129120, Note_on_c, 3, 62, 76
9, 129569, Note_on_c, 3, 56, 0
9, 129569, Note_on_c, 3, 62, 0
9, 129600, Note_on_c, 3, 62, 76
9, 129600, Note_on_c, 3, 56, 76
9, 130049, Note_on_c, 3, 62, 0
9, 130049, Note_on_c, 3, 56, 0
9, 130080, Note_on_c, 3, 62, 76
9, 130080, Note_on_c, 3, 56, 76
9, 130529, Note_on_c, 3, 62, 0
9, 130529, Note_on_c, 3, 56, 0
9, 130560, Note_on_c, 3, 55, 76
9, 130560, Note_on_c, 3, 63, 76
9, 131009, Note_on_c, 3, 55, 0
9, 131009, Note_on_c, 3, 63, 0
9, 131040, Note_on_c, 3, 63, 76
9, 131040, Note_on_c, 3, 55, 76
9, 131489, Note_on_c, 3, 63, 0
9, 131489, Note_on_c, 3, 55, 0
9, 131520, Note_on_c, 3, 55, 76
9, 131520, Note_on_c, 3, 63, 76
9, 131969, Note_on_c, 3, 55, 0
9, 131969, Note_on_c, 3, 63, 0
9, 132000, Note_on_c, 3, 62, 52
9, 132000, Note_on_c, 3, 56, 52
9, 132179, Note_on_c, 3, 62, 0
9, 132179, Note_on_c, 3, 56, 0
9, 132240, Note_on_c, 3, 62, 76
9, 132240, Note_on_c, 3, 56, 76
9, 132689, Note_on_c, 3, 62, 0
9, 132689, Note_on_c, 3, 56, 0
9, 132720, Note_on_c, 3, 55, 52
9, 132720, Note_on_c, 3, 63, 52
9, 132899, Note_on_c, 3, 55, 0
9, 132899, Note_on_c, 3, 63, 0
9, 132960, Note_on_c, 3, 55, 76
9, 132960, Note_on_c, 3, 63, 76
9, 133199, Note_on_c, 3, 55, 0
9, 133199, Note_on_c, 3, 63, 0
9, 133200, Note_on_c, 3, 62, 52
9, 133200, Note_on_c, 3, 56, 52
9, 133424, Note_on_c, 3, 62, 0
9, 133424, Note_on_c, 3, 56, 0
9, 133440, Note_on_c, 3, 46, 52
9, 133529, Note_on_c, 3, 46, 0
9, 133560, Note_on_c, 3, 48, 55
9, 133649, Note_on_c, 3, 48, 0
9, 133680, Note_on_c, 3, 50, 58
9, 133769, Note_on_c, 3, 50, 0
9, 133800, Note_on_c, 3, 51, 61
9, 133889, Note_on_c, 3, 51, 0
9, 133920, Note_on_c, 3, 53, 64
9, 134009, Note_on_c, 3, 53, 0
9, 134040, Note_on_c, 3, 55, 68
9, 134129, Note_on_c, 3, 55, 0
9, 134160, Note_on_c, 3, 56, 71
9, 134249, Note_on_c, 3, 56, 0
9, 134280, Note_on_c, 3, 58, 74
9, 134369, Note_on_c, 3, 58, 0
9, 134400, Note_on_c, 3, 60, 77
9, 134489, Note_on_c, 3, 60, 0
9, 134520, Note_on_c, 3, 62, 80
9, 134609, Note_on_c, 3, 62, 0
9, 134640, Note_on_c, 3, 51, 84
9, 134640, Note_on_c, 3, 63, 84
9, 135119, Note_on_c, 3, 51, 0
9, 135119, Note_on_c, 3, 63, 0
9, 135120, Note_on_c, 3, 55, 84
9, 135120, Note_on_c, 3, 67, 84
9, 135359, Note_on_c, 3, 55, 0
9, 135359, Note_on_c, 3, 67, 0
9, 135360, Note_on_c, 3, 63, 84
9, 135360, Note_on_c, 3, 51, 84
9, 135839, Note_on_c, 3, 63, 0
9, 135839, Note_on_c, 3, 51, 0
9, 135840, Note_on_c, 3, 46, 84
9, 135840, Note_on_c, 3, 58, 84
9, 136064, Note_on_c, 3, 46, 0
9, 136064, Note_on_c, 3, 58, 0
9, 136080, Note_on_c, 3, 63, 84
9, 136080, Note_on_c, 3, 51, 84
9, 136319, Note_on_c, 3, 63, 0
9, 136319, Note_on_c, 3, 51, 0
9, 136320, Note_on_c, 3, 55, 84
9, 136559, Note_on_c, 3, 55, 0
9, 136560, Note_on_c, 3, 58, 84
9, 136784, Note_on_c, 3, 58, 0
9, 136800, Note_on_c, 3, 51, 84
9, 137264, Note_on_c, 3, 51, 0
9, 137280, Note_on_c, 3, 43, 92
9, 137280, Note_on_c, 3, 55, 92
9, 137504, Note_on_c, 3, 43, 0
9, 137504, Note_on_c, 3, 55, 0
9, 137520, Note_on_c, 3, 48, 84
9, 137520, Note_on_c, 3, 60, 84
9, 137759, Note_on_c, 3, 48, 0
9, 137759, Note_on_c, 3, 60, 0
9, 137760, Note_on_c, 3, 51, 84
9, 137760, Note_on_c, 3, 63, 84
9, 137999, Note_on_c, 3, 51, 0
9, 137999, Note_on_c, 3, 63, 0
9, 138000, Note_on_c, 3, 67, 84
9, 138000, Note_on_c, 3, 55, 84
9, 138224, Note_on_c, 3, 67, 0
9, 138224, Note_on_c, 3, 55, 0
9, 138240, Note_on_c, 3, 60, 84
9, 138240, Note_on_c, 3, 48, 84
9, 138704, Note_on_c, 3, 60, 0
9, 138704, Note_on_c, 3, 48, 0
9, 138720, Note_on_c, 3, 51, 92
9, 138720, Note_on_c, 3, 61, 92
9, 138944, Note_on_c, 3, 51, 0
9, 138944, Note_on_c, 3, 61, 0
9, 138960, Note_on_c, 3, 56, 84
9, 138960, Note_on_c, 3, 60, 84
9, 139664, Note_on_c, 3, 56, 0
9, 139680, Note_on_c, 3, 54, 84
9, 139799, Note_on_c, 3, 60, 0
9, 139800, Note_on_c, 3, 58, 84
9, 139919, Note_on_c, 3, 58, 0
9, 139920, Note_on_c, 3, 57, 84
9, 140039, Note_on_c, 3, 57, 0
9, 140040, Note_on_c, 3, 58, 84
9, 140159, Note_on_c, 3, 58, 0
9, 140160, Note_on_c, 3, 60, 84
9, 140279, Note_on_c, 3, 60, 0
9, 140280, Note_on_c, 3, 58, 84
9, 140399, Note_on_c, 3, 54, 0
9, 140399, Note_on_c, 3, 58, 0
9, 140400, Note_on_c, 3, 57, 84
9, 140400, Note_on_c, 3, 53, 84
9, 140639, Note_on_c, 3, 57, 0
9, 140639, Note_on_c, 3, 53, 0
9, 147120, Note_on_c, 3, 66, 68
9, 147479, Note_on_c, 3, 66, 0
9, 147480, Note_on_c, 3, 65, 52
9, 147599, Note_on_c, 3, 65, 0
9, 147600, Note_on_c, 3, 63, 84
9, 147824, Note_on_c, 3, 63, 0
9, 147840, Note_on_c, 3, 67, 84
9, 147840, Note_on_c, 3, 55, 84
9, 148184, Note_on_c, 3, 67, 0
9, 148184, Note_on_c, 3, 55, 0
9, 148200, Note_on_c, 3, 65, 84
9, 148200, Note_on_c, 3, 53, 84
9, 148304, Note_on_c, 3, 65, 0
9, 148304, Note_on_c, 3, 53, 0
9, 148320, Note_on_c, 3, 63, 84
9, 148320, Note_on_c, 3, 51, 84
9, 148499, Note_on_c, 3, 63, 0
9, 148499, Note_on_c, 3, 51, 0
9, 148560, Note_on_c, 3, 50, 84
9, 148560, Note_on_c, 3, 62, 84
9, 148739, Note_on_c, 3, 50, 0
9, 148739, Note_on_c, 3, 62, 0
9, 148800, Note_on_c, 3, 60, 84
9, 148800, Note_on_c, 3, 48, 84
9, 148979, Note_on_c, 3, 60, 0
9, 148979, Note_on_c, 3, 48, 0
9, 149025, Control_c, 3, 11, 96
9, 149040, Note_on_c, 3, 58, 68
9, 149040, Control_c, 3, 11, 96
9, 149100, Control_c, 3, 11, 99
9, 149160, Control_c, 3, 11, 101
9, 149220, Control_c, 3, 11, 104
9, 149280, Control_c, 3, 11, 106
9, 149340, Control_c, 3, 11, 109
9, 149400, Control_c, 3, 11, 112
9, 149460, Control_c, 3, 11, 114
9, 149520, Control_c, 3, 11, 117
9, 149520, Note_on_c, 3, 57, 68
9, 149580, Control_c, 3, 11, 119
9, 149639, Note_on_c, 3, 57, 0
9, 149640, Note_on_c, 3, 56, 68
9, 149640, Control_c, 3, 11, 122
9, 149700, Control_c, 3, 11, 124
9, 149759, Note_on_c, 3, 56, 0
9, 149760, Note_on_c, 3, 55, 68
9, 149760, Control_c, 3, 11, 127
9, 149820, Control_c, 3, 11, 124
9, 149880, Control_c, 3, 11, 122
9, 149940, Control_c, 3, 11, 119
9, 149999, Note_on_c, 3, 58, 0
9, 149999, Note_on_c, 3, 55, 0
9, 150000, Note_on_c, 3, 53, 68
9, 150000, Control_c, 3, 11, 117
9, 150000, Note_on_c, 3, 57, 68
9, 150060, Control_c, 3, 11, 114
9, 150120, Control_c, 3, 11, 112
9, 150180, Control_c, 3, 11, 109
9, 150239, Note_on_c, 3, 53, 0
9, 150239, Note_on_c, 3, 57, 0
9, 150240, Note_on_c, 3, 51, 68
9, 150240, Note_on_c, 3, 55, 68
9, 150240, Control_c, 3, 11, 106
9, 150300, Control_c, 3, 11, 104
9, 150360, Control_c, 3, 11, 101
9, 150420, Control_c, 3, 11, 96
9, 150464, Note_on_c, 3, 51, 0
9, 150464, Note_on_c, 3, 55, 0
9, 150480, Note_on_c, 3, 50, 68
9, 150480, Note_on_c, 3, 53, 68
9, 150959, Note_on_c, 3, 50, 0
9, 150959, Note_on_c, 3, 53, 0
9, 150960, Note_on_c, 3, 51, 68
9, 150960, Note_on_c, 3, 48, 68
9, 151079, Note_on_c, 3, 51, 0
9, 151079, Note_on_c, 3, 48, 0
9, 151080, Note_on_c, 3, 46, 68
9, 151080, Note_on_c, 3, 50, 68
9, 151184, Note_on_c, 3, 46, 0
9, 151184, Note_on_c, 3, 50, 0
9, 151200, Note_on_c, 3, 48, 68
9, 151200, Note_on_c, 3, 45, 68
9, 151424, Note_on_c, 3, 48, 0
9, 151424, Note_on_c, 3, 45, 0
9, 151440, Note_on_c, 3, 57, 68
9, 151440, Note_on_c, 3, 53, 68
9, 151649, Note_on_c, 3, 57, 0
9, 151649, Note_on_c, 3, 53, 0
9, 151680, Note_on_c, 3, 57, 68
9, 151680, Note_on_c, 3, 53, 68
9, 151889, Note_on_c, 3, 57, 0
9, 151889, Note_on_c, 3, 53, 0
9, 151920, Note_on_c, 3, 58, 68
9, 151920, Note_on_c, 3, 46, 68
9, 152159, Note_on_c, 3, 58, 0
9, 152159, Note_on_c, 3, 46, 0
9, 153360, Control_c, 3, 11, 127
9, 153480, Note_on_c, 3, 65, 64
9, 153569, Note_on_c, 3, 65, 0
9, 153600, Note_on_c, 3, 63, 65
9, 153689, Note_on_c, 3, 63, 0
9, 153720, Note_on_c, 3, 62, 66
9, 153809, Note_on_c, 3, 62, 0
9, 153840, Note_on_c, 3, 60, 67
9, 153929, Note_on_c, 3, 60, 0
9, 153960, Note_on_c, 3, 58, 68
9, 154049, Note_on_c, 3, 58, 0
9, 154080, Note_on_c, 3, 57, 69
9, 154169, Note_on_c, 3, 57, 0
9, 154200, Note_on_c, 3, 58, 70
9, 154200, Note_on_c, 3, 62, 70
9, 154289, Note_on_c, 3, 58, 0
9, 154289, Note_on_c, 3, 62, 0
9, 154320, Note_on_c, 3, 60, 71
9, 154320, Note_on_c, 3, 63, 71
9, 154409, Note_on_c, 3, 60, 0
9, 154409, Note_on_c, 3, 63, 0
9, 154440, Note_on_c, 3, 62, 72
9, 154440, Note_on_c, 3, 58, 72
9, 154529, Note_on_c, 3, 62, 0
9, 154529, Note_on_c, 3, 58, 0
9, 154560, Note_on_c, 3, 60, 73
9, 154560, Note_on_c, 3, 57, 73
9, 154649, Note_on_c, 3, 60, 0
9, 154649, Note_on_c, 3, 57, 0
9, 154680, Note_on_c, 3, 58, 74
9, 154680, Note_on_c, 3, 55, 74
9, 154769, Note_on_c, 3, 58, 0
9, 154769, Note_on_c, 3, 55, 0
9, 154800, Note_on_c, 3, 57, 76
9, 154800, Note_on_c, 3, 54, 76
9, 154979, Note_on_c, 3, 57, 0
9, 154979, Note_on_c, 3, 54, 0
9, 155040, Note_on_c, 3, 57, 76
9, 155040, Note_on_c, 3, 54, 76
9, 155219, Note_on_c, 3, 57, 0
9, 155219, Note_on_c, 3, 54, 0
9, 156120, Note_on_c, 3, 54, 76
9, 156120, Note_on_c, 3, 57, 76
9, 156209, Note_on_c, 3, 54, 0
9, 156209, Note_on_c, 3, 57, 0
9, 156240, Note_on_c, 3, 55, 76
9, 156240, Note_on_c, 3, 58, 76
9, 156419, Note_on_c, 3, 55, 0
9, 156419, Note_on_c, 3, 58, 0
9, 156480, Note_on_c, 3, 55, 76
9, 156480, Note_on_c, 3, 58, 76
9, 156659, Note_on_c, 3, 55, 0
9, 156659, Note_on_c, 3, 58, 0
9, 157560, Note_on_c, 3, 55, 76
9, 157560, Note_on_c, 3, 58, 76
9, 157649, Note_on_c, 3, 55, 0
9, 157649, Note_on_c, 3, 58, 0
9, 157680, Note_on_c, 3, 53, 76
9, 157680, Note_on_c, 3, 56, 76
9, 157859, Note_on_c, 3, 53, 0
9, 157859, Note_on_c, 3, 56, 0
9, 157920, Note_on_c, 3, 53, 76
9, 157920, Note_on_c, 3, 56, 76
9, 158099, Note_on_c, 3, 53, 0
9, 158099, Note_on_c, 3, 56, 0
9, 159000, Note_on_c, 3, 65, 76
9, 159000, Note_on_c, 3, 53, 76
9, 159089, Note_on_c, 3, 65, 0
9, 159089, Note_on_c, 3, 53, 0
9, 159120, Note_on_c, 3, 63, 76
9, 159120, Note_on_c, 3, 51, 76
9, 159209, Note_on_c, 3, 63, 0
9, 159209, Note_on_c, 3, 51, 0
9, 159240, Note_on_c, 3, 58, 76
9, 159240, Note_on_c, 3, 51, 76
9, 159464, Note_on_c, 3, 58, 0
9, 159464, Note_on_c, 3, 51, 0
9, 159480, Note_on_c, 3, 58, 76
9, 159480, Note_on_c, 3, 52, 76
9, 159569, Note_on_c, 3, 58, 0
9, 159569, Note_on_c, 3, 52, 0
9, 159600, Note_on_c, 3, 57, 76
9, 159600, Note_on_c, 3, 53, 76
9, 159689, Note_on_c, 3, 57, 0
9, 159689, Note_on_c, 3, 53, 0
9, 159720, Note_on_c, 3, 54, 76
9, 159720, Note_on_c, 3, 60, 76
9, 159809, Note_on_c, 3, 54, 0
9, 159809, Note_on_c, 3, 60, 0
9, 159840, Note_on_c, 3, 58, 76
9, 159840, Note_on_c, 3, 55, 76
9, 159929, Note_on_c, 3, 58, 0
9, 159929, Note_on_c, 3, 55, 0
9, 159960, Note_on_c, 3, 55, 76
9, 159960, Note_on_c, 3, 61, 76
9, 160184, Note_on_c, 3, 55, 0
9, 160184, Note_on_c, 3, 61, 0
9, 160200, Note_on_c, 3, 61, 76
9, 160200, Note_on_c, 3, 55, 76
9, 160289, Note_on_c, 3, 61, 0
9, 160289, Note_on_c, 3, 55, 0
9, 160320, Note_on_c, 3, 60, 76
9, 160320, Note_on_c, 3, 56, 76
9, 160409, Note_on_c, 3, 60, 0
9, 160409, Note_on_c, 3, 56, 0
9, 160440, Note_on_c, 3, 60, 76
9, 160440, Note_on_c, 3, 57, 76
9, 160529, Note_on_c, 3, 60, 0
9, 160529, Note_on_c, 3, 57, 0
9, 160560, Note_on_c, 3, 62, 76
9, 160560, Note_on_c, 3, 58, 76
9, 160799, Note_on_c, 3, 62, 0
9, 160799, Note_on_c, 3, 58, 0
9, 161760, Note_on_c, 3, 58, 76
9, 161760, Note_on_c, 3, 50, 76
9, 161999, Note_on_c, 3, 50, 0
9, 162000, Note_on_c, 3, 51, 76
9, 162479, Note_on_c, 3, 58, 0
9, 162480, Note_on_c, 3, 59, 76
9, 162704, Note_on_c, 3, 59, 0
9, 162720, Note_on_c, 3, 60, 76
9, 162839, Note_on_c, 3, 60, 0
9, 162840, Note_on_c, 3, 59, 76
9, 162959, Note_on_c, 3, 59, 0
9, 162960, Note_on_c, 3, 62, 76
9, 163064, Note_on_c, 3, 51, 0
9, 163079, Note_on_c, 3, 62, 0
9, 163080, Note_on_c, 3, 55, 76
9, 163080, Note_on_c, 3, 60, 76
9, 163199, Note_on_c, 3, 55, 0
9, 163199, Note_on_c, 3, 60, 0
9, 163200, Note_on_c, 3, 59, 76
9, 163200, Note_on_c, 3, 65, 76
9, 163319, Note_on_c, 3, 59, 0
9, 163319, Note_on_c, 3, 65, 0
9, 163320, Note_on_c, 3, 60, 76
9, 163320, Note_on_c, 3, 63, 76
9, 163424, Note_on_c, 3, 60, 0
9, 163424, Note_on_c, 3, 63, 0
9, 163440, Note_on_c, 3, 58, 76
9, 163440, Note_on_c, 3, 62, 76
9, 163679, Note_on_c, 3, 58, 0
9, 163679, Note_on_c, 3, 62, 0
9, 164880, Note_on_c, 3, 65, 76
9, 166424, Note_on_c, 3, 65, 0
9, 166440, Note_on_c, 3, 64, 84
9, 166529, Note_on_c, 3, 64, 0
9, 166560, Note_on_c, 3, 63, 84
9, 166649, Note_on_c, 3, 63, 0
9, 166680, Note_on_c, 3, 62, 84
9, 166769, Note_on_c, 3, 62, 0
9, 166800, Note_on_c, 3, 60, 84
9, 166889, Note_on_c, 3, 60, 0
9, 166920, Note_on_c, 3, 58, 84
9, 167009, Note_on_c, 3, 58, 0
9, 167040, Note_on_c, 3, 57, 84
9, 167129, Note_on_c, 3, 57, 0
9, 167160, Note_on_c, 3, 55, 84
9, 167160, Note_on_c, 3, 67, 84
9, 167249, Note_on_c, 3, 55, 0
9, 167249, Note_on_c, 3, 67, 0
9, 167280, Note_on_c, 3, 65, 84
9, 167280, Note_on_c, 3, 53, 84
9, 167369, Note_on_c, 3, 65, 0
9, 167369, Note_on_c, 3, 53, 0
9, 167400, Note_on_c, 3, 51, 84
9, 167400, Note_on_c, 3, 63, 84
9, 167489, Note_on_c, 3, 51, 0
9, 167489, Note_on_c, 3, 63, 0
9, 167520, Note_on_c, 3, 50, 84
9, 167520, Note_on_c, 3, 62, 84
9, 167609, Note_on_c, 3, 50, 0
9, 167609, Note_on_c, 3, 62, 0
9, 167640, Note_on_c, 3, 60, 84
9, 167640, Note_on_c, 3, 48, 84
9, 167729, Note_on_c, 3, 60, 0
9, 167729, Note_on_c, 3, 48, 0
9, 167760, Note_on_c, 3, 46, 84
9, 167760, Note_on_c, 3, 58, 84
9, 167969, Note_on_c, 3, 46, 0
9, 167969, Note_on_c, 3, 58, 0
9, 167985, Control_c, 3, 11, 96
9, 168000, Note_on_c, 3, 62, 68
9, 168000, Note_on_c, 3, 58, 68
9, 168209, Note_on_c, 3, 62, 0
9, 168209, Note_on_c, 3, 58, 0
9, 168240, Note_on_c, 3, 58, 68
9, 168240, Note_on_c, 3, 62, 68
9, 168449, Note_on_c, 3, 58, 0
9, 168449, Note_on_c, 3, 62, 0
9, 168480, Control_c, 3, 11, 96
9, 168480, Note_on_c, 3, 62, 68
9, 168480, Note_on_c, 3, 58, 68
9, 168600, Control_c, 3, 11, 99
9, 168689, Note_on_c, 3, 62, 0
9, 168689, Note_on_c, 3, 58, 0
9, 168720, Note_on_c, 3, 58, 68
9, 168720, Note_on_c, 3, 62, 68
9, 168720, Control_c, 3, 11, 101
9, 168840, Control_c, 3, 11, 104
9, 168929, Note_on_c, 3, 58, 0
9, 168929, Note_on_c, 3, 62, 0
9, 168960, Note_on_c, 3, 58, 68
9, 168960, Note_on_c, 3, 62, 68
9, 168960, Control_c, 3, 11, 106
9, 169080, Control_c, 3, 11, 109
9, 169169, Note_on_c, 3, 58, 0
9, 169169, Note_on_c, 3, 62, 0
9, 169200, Note_on_c, 3, 62, 68
9, 169200, Control_c, 3, 11, 112
9, 169200, Note_on_c, 3, 58, 68
9, 169320, Control_c, 3, 11, 114
9, 169409, Note_on_c, 3, 62, 0
9, 169409, Note_on_c, 3, 58, 0
9, 169440, Control_c, 3, 11, 117
9, 169440, Note_on_c, 3, 58, 68
9, 169440, Note_on_c, 3, 62, 68
9, 169560, Control_c, 3, 11, 119
9, 169649, Note_on_c, 3, 58, 0
9, 169649, Note_on_c, 3, 62, 0
9, 169680, Note_on_c, 3, 46, 76
9, 169680, Control_c, 3, 11, 122
9, 169680, Note_on_c, 3, 58, 68
9, 169800, Control_c, 3, 11, 124
9, 169889, Note_on_c, 3, 46, 0
9, 169920, Note_on_c, 3, 51, 68
9, 169920, Control_c, 3, 11, 127
9, 169980, Control_c, 3, 11, 124
9, 170040, Control_c, 3, 11, 122
9, 170100, Control_c, 3, 11, 119
9, 170159, Note_on_c, 3, 58, 0
9, 170160, Control_c, 3, 11, 117
9, 170160, Note_on_c, 3, 59, 68
9, 170220, Control_c, 3, 11, 114
9, 170280, Control_c, 3, 11, 112
9, 170340, Control_c, 3, 11, 109
9, 170399, Note_on_c, 3, 59, 0
9, 170400, Note_on_c, 3, 60, 68
9, 170400, Control_c, 3, 11, 106
9, 170460, Control_c, 3, 11, 104
9, 170520, Control_c, 3, 11, 101
9, 170580, Control_c, 3, 11, 99
9, 170639, Note_on_c, 3, 51, 0
9, 170639, Note_on_c, 3, 60, 0
9, 172080, Control_c, 3, 11, 127
9, 172560, Note_on_c, 3, 67, 76
9, 172800, Control_c, 3, 11, 127
9, 172860, Control_c, 3, 11, 124
9, 172920, Control_c, 3, 11, 122
9, 172980, Control_c, 3, 11, 119
9, 173039, Note_on_c, 3, 67, 0
9, 173040, Control_c, 3, 11, 117
9, 173040, Note_on_c, 3, 65, 68
9, 173100, Control_c, 3, 11, 114
9, 173159, Note_on_c, 3, 65, 0
9, 173160, Control_c, 3, 11, 112
9, 173160, Note_on_c, 3, 63, 68
9, 173220, Control_c, 3, 11, 109
9, 173279, Note_on_c, 3, 63, 0
9, 173280, Note_on_c, 3, 62, 68
9, 173280, Control_c, 3, 11, 106
9, 173340, Control_c, 3, 11, 104
9, 173399, Note_on_c, 3, 62, 0
9, 173400, Note_on_c, 3, 60, 68
9, 173400, Control_c, 3, 11, 101
9, 173460, Control_c, 3, 11, 96
9, 173504, Note_on_c, 3, 60, 0
9, 173520, Note_on_c, 3, 58, 68
9, 173744, Note_on_c, 3, 58, 0
9, 173760, Note_on_c, 3, 58, 68
9, 173760, Note_on_c, 3, 61, 68
9, 173969, Note_on_c, 3, 58, 0
9, 173969, Note_on_c, 3, 61, 0
9, 174000, Note_on_c, 3, 61, 68
9, 174000, Note_on_c, 3, 58, 68
9, 174209, Note_on_c, 3, 61, 0
9, 174209, Note_on_c, 3, 58, 0
9, 174240, Control_c, 3, 11, 96
9, 174240, Note_on_c, 3, 61, 68
9, 174240, Note_on_c, 3, 58, 68
9, 174360, Control_c, 3, 11, 99
9, 174449, Note_on_c, 3, 61, 0
9, 174449, Note_on_c, 3, 58, 0
9, 174480, Note_on_c, 3, 58, 68
9, 174480, Control_c, 3, 11, 101
9, 174480, Note_on_c, 3, 61, 68
9, 174600, Control_c, 3, 11, 104
9, 174689, Note_on_c, 3, 58, 0
9, 174689, Note_on_c, 3, 61, 0
9, 174720, Note_on_c, 3, 58, 68
9, 174720, Note_on_c, 3, 61, 68
9, 174720, Control_c, 3, 11, 106
9, 174840, Control_c, 3, 11, 109
9, 174929, Note_on_c, 3, 58, 0
9, 174929, Note_on_c, 3, 61, 0
9, 174960, Control_c, 3, 11, 112
9, 174960, Note_on_c, 3, 58, 68
9, 174960, Note_on_c, 3, 61, 68
9, 175080, Control_c, 3, 11, 114
9, 175169, Note_on_c, 3, 58, 0
9, 175169, Note_on_c, 3, 61, 0
9, 175200, Note_on_c, 3, 61, 68
9, 175200, Control_c, 3, 11, 117
9, 175200, Note_on_c, 3, 56, 68
9, 175320, Control_c, 3, 11, 119
9, 175409, Note_on_c, 3, 61, 0
9, 175409, Note_on_c, 3, 56, 0
9, 175440, Control_c, 3, 11, 122
9, 175440, Note_on_c, 3, 56, 68
9, 175440, Note_on_c, 3, 61, 68
9, 175560, Control_c, 3, 11, 127
9, 175649, Note_on_c, 3, 56, 0
9, 175649, Note_on_c, 3, 61, 0
9, 175680, Control_c, 3, 11, 127
9, 175680, Note_on_c, 3, 56, 76
9, 175680, Note_on_c, 3, 61, 76
9, 175740, Control_c, 3, 11, 124
9, 175800, Control_c, 3, 11, 122
9, 175860, Control_c, 3, 11, 119
9, 175920, Control_c, 3, 11, 117
9, 175980, Control_c, 3, 11, 114
9, 176040, Control_c, 3, 11, 112
9, 176100, Control_c, 3, 11, 109
9, 176159, Note_on_c, 3, 61, 0
9, 176160, Note_on_c, 3, 60, 68
9, 176160, Control_c, 3, 11, 106
9, 176220, Control_c, 3, 11, 104
9, 176280, Control_c, 3, 11, 101
9, 176340, Control_c, 3, 11, 96
9, 176399, Note_on_c, 3, 56, 0
9, 176399, Note_on_c, 3, 60, 0
9, 177840, Note_on_c, 3, 60, 68
9, 177840, Note_on_c, 3, 48, 68
9, 178079, Note_on_c, 3, 60, 0
9, 178079, Note_on_c, 3, 48, 0
9, 178800, Control_c, 3, 11, 96
9, 178800, Note_on_c, 3, 67, 68
9, 178800, Note_on_c, 3, 60, 68
9, 178840, Control_c, 3, 11, 101
9, 178880, Control_c, 3, 11, 106
9, 178920, Control_c, 3, 11, 112
9, 178960, Control_c, 3, 11, 117
9, 179000, Control_c, 3, 11, 122
9, 179009, Note_on_c, 3, 67, 0
9, 179009, Note_on_c, 3, 60, 0
9, 179040, Control_c, 3, 11, 127
9, 179040, Note_on_c, 3, 60, 68
9, 179040, Note_on_c, 3, 67, 68
9, 179080, Control_c, 3, 11, 122
9, 179120, Control_c, 3, 11, 117
9, 179160, Control_c, 3, 11, 112
9, 179200, Control_c, 3, 11, 106
9, 179240, Control_c, 3, 11, 101
9, 179249, Note_on_c, 3, 60, 0
9, 179249, Note_on_c, 3, 67, 0
9, 179280, Note_on_c, 3, 65, 68
9, 179280, Note_on_c, 3, 53, 68
9, 179519, Note_on_c, 3, 65, 0
9, 179519, Note_on_c, 3, 53, 0
9, 185040, Control_c, 3, 11, 127
9, 185520, Note_on_c, 3, 63, 52
9, 185520, Note_on_c, 3, 60, 52
9, 185609, Note_on_c, 3, 63, 0
9, 185609, Note_on_c, 3, 60, 0
9, 185640, Note_on_c, 3, 58, 55
9, 185640, Note_on_c, 3, 62, 55
9, 185729, Note_on_c, 3, 58, 0
9, 185729, Note_on_c, 3, 62, 0
9, 185760, Note_on_c, 3, 57, 58
9, 185760, Note_on_c, 3, 60, 58
9, 185849, Note_on_c, 3, 57, 0
9, 185849, Note_on_c, 3, 60, 0
9, 185880, Note_on_c, 3, 55, 61
9, 185880, Note_on_c, 3, 58, 61
9, 185969, Note_on_c, 3, 55, 0
9, 185969, Note_on_c, 3, 58, 0
9, 186000, Note_on_c, 3, 53, 64
9, 186000, Note_on_c, 3, 57, 64
9, 186089, Note_on_c, 3, 53, 0
9, 186089, Note_on_c, 3, 57, 0
9, 186120, Note_on_c, 3, 55, 67
9, 186120, Note_on_c, 3, 51, 67
9, 186209, Note_on_c, 3, 55, 0
9, 186209, Note_on_c, 3, 51, 0
9, 186240, Note_on_c, 3, 50, 70
9, 186240, Note_on_c, 3, 53, 70
9, 186329, Note_on_c, 3, 50, 0
9, 186329, Note_on_c, 3, 53, 0
9, 186360, Note_on_c, 3, 48, 73
9, 186360, Note_on_c, 3, 51, 73
9, 186449, Note_on_c, 3, 48, 0
9, 186449, Note_on_c, 3, 51, 0
9, 186480, Note_on_c, 3, 50, 76
9, 186480, Note_on_c, 3, 46, 76
9, 186704, Note_on_c, 3, 50, 0
9, 186704, Note_on_c, 3, 46, 0
9, 186720, Note_on_c, 3, 58, 84
9, 186720, Note_on_c, 3, 53, 84
9, 187199, Note_on_c, 3, 58, 0
9, 187199, Note_on_c, 3, 53, 0
9, 187440, Note_on_c, 3, 53, 84
9, 187440, Note_on_c, 3, 58, 84
9, 187919, Note_on_c, 3, 53, 0
9, 187919, Note_on_c, 3, 58, 0
9, 188160, Note_on_c, 3, 53, 84
9, 188160, Note_on_c, 3, 57, 84
9, 188639, Note_on_c, 3, 53, 0
9, 188639, Note_on_c, 3, 57, 0
9, 188880, Note_on_c, 3, 63, 84
9, 188880, Note_on_c, 3, 51, 84
9, 189089, Note_on_c, 3, 63, 0
9, 189089, Note_on_c, 3, 51, 0
9, 189120, Note_on_c, 3, 53, 76
9, 189120, Note_on_c, 3, 57, 76
9, 189344, Note_on_c, 3, 53, 0
9, 189344, Note_on_c, 3, 57, 0
9, 189360, Note_on_c, 3, 58, 84
9, 189360, Note_on_c, 3, 46, 84
9, 189464, Note_on_c, 3, 46, 0
9, 189480, Note_on_c, 3, 41, 84
9, 189539, Note_on_c, 3, 58, 0
9, 189584, Note_on_c, 3, 41, 0
9, 189600, Note_on_c, 3, 65, 92
9, 189600, Note_on_c, 3, 46, 84
9, 189704, Note_on_c, 3, 46, 0
9, 189720, Note_on_c, 3, 41, 84
9, 189824, Note_on_c, 3, 41, 0
9, 189840, Note_on_c, 3, 46, 84
9, 189944, Note_on_c, 3, 65, 0
9, 189944, Note_on_c, 3, 46, 0
9, 189960, Note_on_c, 3, 41, 84
9, 189960, Note_on_c, 3, 62, 84
9, 190064, Note_on_c, 3, 41, 0
9, 190064, Note_on_c, 3, 62, 0
9, 190080, Note_on_c, 3, 46, 84
9, 190080, Note_on_c, 3, 58, 84
9, 190184, Note_on_c, 3, 46, 0
9, 190200, Note_on_c, 3, 41, 84
9, 190259, Note_on_c, 3, 58, 0
9, 190304, Note_on_c, 3, 41, 0
9, 190320, Note_on_c, 3, 46, 84
9, 190320, Note_on_c, 3, 62, 92
9, 190424, Note_on_c, 3, 46, 0
9, 190440, Note_on_c, 3, 41, 84
9, 190544, Note_on_c, 3, 41, 0
9, 190560, Note_on_c, 3, 46, 84
9, 190664, Note_on_c, 3, 62, 0
9, 190664, Note_on_c, 3, 46, 0
9, 190680, Note_on_c, 3, 53, 84
9, 190680, Note_on_c, 3, 41, 84
9, 190784, Note_on_c, 3, 53, 0
9, 190784, Note_on_c, 3, 41, 0
9, 190800, Note_on_c, 3, 45, 84
9, 190800, Note_on_c, 3, 60, 84
9, 190904, Note_on_c, 3, 45, 0
9, 190920, Note_on_c, 3, 41, 84
9, 190979, Note_on_c, 3, 60, 0
9, 191024, Note_on_c, 3, 41, 0
9, 191040, Note_on_c, 3, 45, 84
9, 191040, Note_on_c, 3, 63, 92
9, 191144, Note_on_c, 3, 45, 0
9, 191160, Note_on_c, 3, 41, 84
9, 191264, Note_on_c, 3, 41, 0
9, 191280, Note_on_c, 3, 45, 84
9, 191384, Note_on_c, 3, 63, 0
9, 191384, Note_on_c, 3, 45, 0
9, 191400, Note_on_c, 3, 53, 84
9, 191400, Note_on_c, 3, 41, 84
9, 191504, Note_on_c, 3, 53, 0
9, 191504, Note_on_c, 3, 41, 0
9, 191520, Note_on_c, 3, 57, 84
9, 191520, Note_on_c, 3, 48, 84
9, 191624, Note_on_c, 3, 48, 0
9, 191640, Note_on_c, 3, 41, 84
9, 191699, Note_on_c, 3, 57, 0
9, 191744, Note_on_c, 3, 41, 0
9, 191760, Note_on_c, 3, 60, 92
9, 191760, Note_on_c, 3, 51, 84
9, 191864, Note_on_c, 3, 51, 0
9, 191880, Note_on_c, 3, 53, 84
9, 191984, Note_on_c, 3, 53, 0
9, 192000, Note_on_c, 3, 51, 84
9, 192104, Note_on_c, 3, 60, 0
9, 192104, Note_on_c, 3, 51, 0
9, 192120, Note_on_c, 3, 53, 84
9, 192224, Note_on_c, 3, 53, 0
9, 192240, Note_on_c, 3, 62, 84
9, 192240, Note_on_c, 3, 50, 84
9, 192839, Note_on_c, 3, 62, 0
9, 192839, Note_on_c, 3, 50, 0
9, 192840, Note_on_c, 3, 49, 84
9, 192840, Note_on_c, 3, 61, 84
9, 192959, Note_on_c, 3, 49, 0
9, 192959, Note_on_c, 3, 61, 0
9, 192960, Note_on_c, 3, 50, 84
9, 192960, Note_on_c, 3, 62, 84
9, 193079, Note_on_c, 3, 50, 0
9, 193079, Note_on_c, 3, 62, 0
9, 195960, Note_on_c, 3, 66, 84
9, 195960, Note_on_c, 3, 54, 84
9, 196049, Note_on_c, 3, 66, 0
9, 196049, Note_on_c, 3, 54, 0
9, 196080, Note_on_c, 3, 67, 84
9, 196080, Note_on_c, 3, 55, 84
9, 196169, Note_on_c, 3, 67, 0
9, 196169, Note_on_c, 3, 55, 0
9, 196200, Note_on_c, 3, 65, 84
9, 196200, Note_on_c, 3, 53, 84
9, 196289, Note_on_c, 3, 65, 0
9, 196289, Note_on_c, 3, 53, 0
9, 196320, Note_on_c, 3, 52, 84
9, 196320, Note_on_c, 3, 64, 84
9, 196409, Note_on_c, 3, 52, 0
9, 196409, Note_on_c, 3, 64, 0
9, 196440, Note_on_c, 3, 51, 84
9, 196440, Note_on_c, 3, 63, 84
9, 196529, Note_on_c, 3, 51, 0
9, 196529, Note_on_c, 3, 63, 0
9, 196560, Note_on_c, 3, 62, 84
9, 196560, Note_on_c, 3, 50, 84
9, 196739, Note_on_c, 3, 62, 0
9, 196739, Note_on_c, 3, 50, 0
9, 196800, Note_on_c, 3, 60, 84
9, 196800, Note_on_c, 3, 57, 84
9, 196979, Note_on_c, 3, 60, 0
9, 196979, Note_on_c, 3, 57, 0
9, 197040, Note_on_c, 3, 55, 84
9, 197040, Note_on_c, 3, 58, 84
9, 197219, Note_on_c, 3, 55, 0
9, 197219, Note_on_c, 3, 58, 0
9, 197520, Note_on_c, 3, 53, 84
9, 197520, Note_on_c, 3, 59, 84
9, 197699, Note_on_c, 3, 53, 0
9, 197699, Note_on_c, 3, 59, 0
9, 197760, Note_on_c, 3, 55, 84
9, 197760, Note_on_c, 3, 60, 84
9, 197939, Note_on_c, 3, 55, 0
9, 197939, Note_on_c, 3, 60, 0
9, 198240, Note_on_c, 3, 58, 84
9, 198240, Note_on_c, 3, 60, 84
9, 198419, Note_on_c, 3, 58, 0
9, 198419, Note_on_c, 3, 60, 0
9, 198480, Note_on_c, 3, 60, 84
9, 198480, Note_on_c, 3, 57, 84
9, 198659, Note_on_c, 3, 60, 0
9, 198659, Note_on_c, 3, 57, 0
9, 198960, Note_on_c, 3, 57, 84
9, 198960, Note_on_c, 3, 60, 84
9, 199139, Note_on_c, 3, 57, 0
9, 199139, Note_on_c, 3, 60, 0
9, 199200, Note_on_c, 3, 58, 84
9, 199200, Note_on_c, 3, 55, 84
9, 199379, Note_on_c, 3, 58, 0
9, 199379, Note_on_c, 3, 55, 0
9, 199680, Note_on_c, 3, 59, 84
9, 199680, Note_on_c, 3, 53, 84
9, 199859, Note_on_c, 3, 59, 0
9, 199859, Note_on_c, 3, 53, 0
9, 199920, Note_on_c, 3, 55, 84
9, 199920, Note_on_c, 3, 60, 84
9, 200099, Note_on_c, 3, 55, 0
9, 200099, Note_on_c, 3, 60, 0
9, 200400, Note_on_c, 3, 58, 92
9, 200400, Note_on_c, 3, 60, 92
9, 200579, Note_on_c, 3, 58, 0
9, 200579, Note_on_c, 3, 60, 0
9, 200880, Note_on_c, 3, 58, 92
9, 200880, Note_on_c, 3, 60, 92
9, 201059, Note_on_c, 3, 58, 0
9, 201059, Note_on_c, 3, 60, 0
9, 201360, Note_on_c, 3, 58, 92
9, 201360, Note_on_c, 3, 60, 92
9, 201539, Note_on_c, 3, 58, 0
9, 201539, Note_on_c, 3, 60, 0
9, 201840, Note_on_c, 3, 58, 92
9, 201840, Note_on_c, 3, 60, 92
9, 202019, Note_on_c, 3, 58, 0
9, 202019, Note_on_c, 3, 60, 0
9, 202320, Note_on_c, 3, 58, 92
9, 202320, Note_on_c, 3, 60, 92
9, 202499, Note_on_c, 3, 58, 0
9, 202499, Note_on_c, 3, 60, 0
9, 202800, Note_on_c, 3, 58, 92
9, 202800, Note_on_c, 3, 60, 92
9, 202979, Note_on_c, 3, 58, 0
9, 202979, Note_on_c, 3, 60, 0
9, 203760, Note_on_c, 3, 54, 76
9, 203760, Note_on_c, 3, 61, 76
9, 203880, Control_c, 3, 11, 80
9, 204479, Note_on_c, 3, 54, 0
9, 204479, Note_on_c, 3, 61, 0
9, 204480, Note_on_c, 3, 62, 76
9, 204480, Note_on_c, 3, 53, 76
9, 205169, Note_on_c, 3, 62, 0
9, 205169, Note_on_c, 3, 53, 0
9, 205185, Control_c, 3, 11, 127
9, 205200, Note_on_c, 3, 61, 76
9, 205200, Note_on_c, 3, 55, 76
9, 205320, Control_c, 3, 11, 80
9, 206369, Note_on_c, 3, 61, 0
9, 206369, Note_on_c, 3, 55, 0
9, 206400, Note_on_c, 3, 58, 76
9, 206400, Note_on_c, 3, 61, 76
9, 206579, Note_on_c, 3, 58, 0
9, 206579, Note_on_c, 3, 61, 0
9, 206880, Note_on_c, 3, 56, 76
9, 206880, Note_on_c, 3, 60, 76
9, 207059, Note_on_c, 3, 56, 0
9, 207059, Note_on_c, 3, 60, 0
9, 207360, Note_on_c, 3, 57, 76
9, 207360, Note_on_c, 3, 60, 76
9, 207539, Note_on_c, 3, 57, 0
9, 207539, Note_on_c, 3, 60, 0
9, 207840, Note_on_c, 3, 57, 76
9, 207840, Note_on_c, 3, 60, 76
9, 208019, Note_on_c, 3, 57, 0
9, 208019, Note_on_c, 3, 60, 0
9, 208080, Control_c, 3, 11, 64
9, 208320, Note_on_c, 3, 62, 84
9, 208320, Note_on_c, 3, 58, 84
9, 208499, Note_on_c, 3, 62, 0
9, 208499, Note_on_c, 3, 58, 0
9, 208800, Note_on_c, 3, 63, 84
9, 208800, Control_c, 3, 11, 64
9, 208800, Note_on_c, 3, 51, 84
9, 208890, Control_c, 3, 11, 67
9, 208980, Control_c, 3, 11, 69
9, 209070, Control_c, 3, 11, 72
9, 209160, Control_c, 3, 11, 75
9, 209250, Control_c, 3, 11, 77
9, 209340, Control_c, 3, 11, 80
9, 209430, Control_c, 3, 11, 82
9, 209504, Note_on_c, 3, 63, 0
9, 209504, Note_on_c, 3, 51, 0
9, 209520, Control_c, 3, 11, 85
9, 209520, Note_on_c, 3, 48, 84
9, 209520, Note_on_c, 3, 60, 84
9, 209610, Control_c, 3, 11, 88
9, 209700, Control_c, 3, 11, 90
9, 209790, Control_c, 3, 11, 93
9, 209864, Note_on_c, 3, 48, 0
9, 209864, Note_on_c, 3, 60, 0
9, 209880, Note_on_c, 3, 48, 84
9, 209880, Control_c, 3, 11, 96
9, 209880, Note_on_c, 3, 55, 84
9, 209970, Control_c, 3, 11, 98
9, 209999, Note_on_c, 3, 48, 0
9, 209999, Note_on_c, 3, 55, 0
9, 210000, Note_on_c, 3, 59, 84
9, 210000, Note_on_c, 3, 50, 84
9, 210060, Control_c, 3, 11, 101
9, 210119, Note_on_c, 3, 59, 0
9, 210119, Note_on_c, 3, 50, 0
9, 210120, Note_on_c, 3, 51, 84
9, 210120, Note_on_c, 3, 60, 84
9, 210150, Control_c, 3, 11, 103
9, 210224, Note_on_c, 3, 51, 0
9, 210224, Note_on_c, 3, 60, 0
9, 210240, Control_c, 3, 11, 106
9, 210240, Note_on_c, 3, 58, 84
9, 210240, Note_on_c, 3, 53, 84
9, 210330, Control_c, 3, 11, 109
9, 210344, Note_on_c, 3, 58, 0
9, 210344, Note_on_c, 3, 53, 0
9, 210360, Note_on_c, 3, 65, 84
9, 210360, Note_on_c, 3, 53, 84
9, 210420, Control_c, 3, 11, 111
9, 210464, Note_on_c, 3, 65, 0
9, 210464, Note_on_c, 3, 53, 0
9, 210480, Note_on_c, 3, 65, 84
9, 210480, Note_on_c, 3, 53, 84
9, 210510, Control_c, 3, 11, 114
9, 210584, Note_on_c, 3, 65, 0
9, 210584, Note_on_c, 3, 53, 0
9, 210600, Control_c, 3, 11, 117
9, 210600, Note_on_c, 3, 53, 84
9, 210600, Note_on_c, 3, 65, 84
9, 210690, Control_c, 3, 11, 119
9, 210704, Note_on_c, 3, 53, 0
9, 210704, Note_on_c, 3, 65, 0
9, 210720, Note_on_c, 3, 50, 84
9, 210720, Note_on_c, 3, 62, 84
9, 210780, Control_c, 3, 11, 122
9, 210824, Note_on_c, 3, 50, 0
9, 210824, Note_on_c, 3, 62, 0
9, 210840, Note_on_c, 3, 46, 84
9, 210840, Note_on_c, 3, 58, 84
9, 210870, Control_c, 3, 11, 127
9, 210944, Note_on_c, 3, 46, 0
9, 210944, Note_on_c, 3, 58, 0
9, 210960, Note_on_c, 3, 53, 84
9, 210960, Note_on_c, 3, 60, 84
9, 211664, Note_on_c, 3, 53, 0
9, 211664, Note_on_c, 3, 60, 0
9, 211680, Note_on_c, 3, 46, 76
9, 211680, Note_on_c, 3, 58, 76
9, 211859, Note_on_c, 3, 46, 0
9, 211859, Note_on_c, 3, 58, 0
9, 212400, Note_on_c, 3, 58, 76
9, 212400, Note_on_c, 3, 46, 76
9, 212579, Note_on_c, 3, 58, 0
9, 212579, Note_on_c, 3, 46, 0
9, 213120, Note_on_c, 3, 58, 76
9, 213120, Note_on_c, 3, 46, 76
9, 213299, Note_on_c, 3, 58, 0
9, 213299, Note_on_c, 3, 46, 0
9, 213840, Note_on_c, 3, 60, 76
9, 213840, Note_on_c, 3, 63, 76
9, 214019, Note_on_c, 3, 60, 0
9, 214019, Note_on_c, 3, 63, 0
9, 214080, Note_on_c, 3, 60, 76
9, 214080, Note_on_c, 3, 63, 76
9, 214259, Note_on_c, 3, 60, 0
9, 214259, Note_on_c, 3, 63, 0
9, 214320, Note_on_c, 3, 63, 76
9, 214320, Note_on_c, 3, 60, 76
9, 214499, Note_on_c, 3, 63, 0
9, 214499, Note_on_c, 3, 60, 0
9, 214560, Note_on_c, 3, 62, 76
9, 214560, Note_on_c, 3, 58, 76
9, 214799, Note_on_c, 3, 62, 0
9, 214799, Note_on_c, 3, 58, 0
9, 220800, Note_on_c, 3, 67, 44
9, 221039, Note_on_c, 3, 67, 0
9, 221040, Note_on_c, 3, 64, 44
9, 221519, Note_on_c, 3, 64, 0
9, 221520, Note_on_c, 3, 65, 44
9, 221744, Note_on_c, 3, 65, 0
9, 221760, Note_on_c, 3, 65, 44
9, 221999, Note_on_c, 3, 65, 0
9, 223680, Control_c, 3, 11, 96
9, 223920, Note_on_c, 3, 55, 68
9, 226080, Control_c, 3, 11, 96
9, 226140, Control_c, 3, 11, 99
9, 226200, Control_c, 3, 11, 101
9, 226260, Control_c, 3, 11, 104
9, 226320, Control_c, 3, 11, 106
9, 226380, Control_c, 3, 11, 109
9, 226440, Control_c, 3, 11, 112
9, 226500, Control_c, 3, 11, 114
9, 226559, Note_on_c, 3, 55, 0
9, 226560, Control_c, 3, 11, 117
9, 226560, Note_on_c, 3, 56, 68
9, 226620, Control_c, 3, 11, 119
9, 226680, Control_c, 3, 11, 122
9, 226740, Control_c, 3, 11, 127
9, 226799, Note_on_c, 3, 56, 0
9, 226800, Note_on_c, 3, 57, 76
9, 226800, Control_c, 3, 11, 127
9, 226860, Control_c, 3, 11, 124
9, 226920, Control_c, 3, 11, 122
9, 226980, Control_c, 3, 11, 119
9, 227040, Control_c, 3, 11, 117
9, 227100, Control_c, 3, 11, 114
9, 227160, Control_c, 3, 11, 112
9, 227220, Control_c, 3, 11, 109
9, 227280, Control_c, 3, 11, 106
9, 227340, Control_c, 3, 11, 104
9, 227400, Control_c, 3, 11, 101
9, 227460, Control_c, 3, 11, 99
9, 227489, Note_on_c, 3, 57, 0
9, 227520, Note_on_c, 3, 59, 68
9, 227759, Note_on_c, 3, 59, 0
9, 228240, Control_c, 3, 11, 127
9, 228480, Note_on_c, 3, 67, 48
9, 228839, Note_on_c, 3, 67, 0
9, 228840, Note_on_c, 3, 65, 48
9, 228959, Note_on_c, 3, 65, 0
9, 228960, Note_on_c, 3, 62, 48
9, 229184, Note_on_c, 3, 62, 0
9, 229200, Note_on_c, 3, 55, 68
9, 229320, Control_c, 3, 11, 96
9, 229784, Note_on_c, 3, 55, 0
9, 229800, Note_on_c, 3, 55, 68
9, 229889, Note_on_c, 3, 55, 0
9, 229920, Note_on_c, 3, 57, 68
9, 230009, Note_on_c, 3, 57, 0
9, 230040, Note_on_c, 3, 59, 68
9, 230129, Note_on_c, 3, 59, 0
9, 230160, Note_on_c, 3, 60, 68
9, 230249, Note_on_c, 3, 60, 0
9, 230280, Note_on_c, 3, 62, 68
9, 230369, Note_on_c, 3, 62, 0
9, 230400, Note_on_c, 3, 64, 68
9, 230639, Note_on_c, 3, 64, 0
9, 231120, Control_c, 3, 11, 127
9, 231360, Note_on_c, 3, 67, 52
9, 231719, Note_on_c, 3, 67, 0
9, 231720, Note_on_c, 3, 64, 52
9, 231839, Note_on_c, 3, 64, 0
9, 231840, Note_on_c, 3, 60, 52
9, 232064, Note_on_c, 3, 60, 0
9, 232080, Note_on_c, 3, 55, 68
9, 232664, Note_on_c, 3, 55, 0
9, 232680, Note_on_c, 3, 57, 52
9, 232769, Note_on_c, 3, 57, 0
9, 232800, Note_on_c, 3, 59, 52
9, 232889, Note_on_c, 3, 59, 0
9, 232920, Note_on_c, 3, 60, 52
9, 233009, Note_on_c, 3, 60, 0
9, 233040, Note_on_c, 3, 62, 52
9, 233129, Note_on_c, 3, 62, 0
9, 233160, Note_on_c, 3, 64, 52
9, 233249, Note_on_c, 3, 64, 0
9, 233280, Note_on_c, 3, 65, 52
9, 233519, Note_on_c, 3, 65, 0
9, 233760, Note_on_c, 3, 55, 68
9, 234209, Note_on_c, 3, 55, 0
9, 234240, Note_on_c, 3, 55, 52
9, 234329, Note_on_c, 3, 55, 0
9, 234360, Note_on_c, 3, 57, 52
9, 234449, Note_on_c, 3, 57, 0
9, 234480, Note_on_c, 3, 59, 52
9, 234569, Note_on_c, 3, 59, 0
9, 234600, Note_on_c, 3, 60, 52
9, 234689, Note_on_c, 3, 60, 0
9, 234720, Note_on_c, 3, 62, 52
9, 234809, Note_on_c, 3, 62, 0
9, 234840, Note_on_c, 3, 65, 52
9, 234929, Note_on_c, 3, 65, 0
9, 234960, Note_on_c, 3, 65, 52
9, 235049, Note_on_c, 3, 65, 0
9, 235080, Note_on_c, 3, 64, 52
9, 235169, Note_on_c, 3, 64, 0
9, 235200, Note_on_c, 3, 62, 52
9, 235289, Note_on_c, 3, 62, 0
9, 235320, Note_on_c, 3, 60, 52
9, 235409, Note_on_c, 3, 60, 0
9, 235440, Note_on_c, 3, 59, 52
9, 235529, Note_on_c, 3, 59, 0
9, 235560, Note_on_c, 3, 57, 52
9, 235649, Note_on_c, 3, 57, 0
9, 235680, Note_on_c, 3, 55, 52
9, 235769, Note_on_c, 3, 55, 0
9, 235800, Note_on_c, 3, 53, 52
9, 235889, Note_on_c, 3, 53, 0
9, 235920, Note_on_c, 3, 52, 52
9, 236009, Note_on_c, 3, 52, 0
9, 236040, Note_on_c, 3, 50, 52
9, 236129, Note_on_c, 3, 50, 0
9, 236160, Note_on_c, 3, 48, 44
9, 236399, Note_on_c, 3, 48, 0
9, 241640, Control_c, 3, 11, 93
9, 241680, Control_c, 3, 11, 96
9, 241680, Note_on_c, 3, 65, 84
9, 241680, Note_on_c, 3, 61, 84
9, 241720, Control_c, 3, 11, 98
9, 241760, Control_c, 3, 11, 101
9, 241800, Control_c, 3, 11, 103
9, 241840, Control_c, 3, 11, 106
9, 241880, Control_c, 3, 11, 109
9, 241919, Note_on_c, 3, 61, 0
9, 241920, Control_c, 3, 11, 111
9, 241920, Note_on_c, 3, 62, 84
9, 241960, Control_c, 3, 11, 114
9, 242000, Control_c, 3, 11, 117
9, 242040, Control_c, 3, 11, 119
9, 242080, Control_c, 3, 11, 122
9, 242120, Control_c, 3, 11, 127
9, 242144, Note_on_c, 3, 65, 0
9, 242144, Note_on_c, 3, 62, 0
9, 242160, Note_on_c, 3, 57, 84
9, 242160, Note_on_c, 3, 62, 84
9, 242339, Note_on_c, 3, 57, 0
9, 242339, Note_on_c, 3, 62, 0
9, 242400, Note_on_c, 3, 57, 84
9, 242400, Note_on_c, 3, 62, 84
9, 242579, Note_on_c, 3, 57, 0
9, 242579, Note_on_c, 3, 62, 0
9, 242640, Note_on_c, 3, 57, 84
9, 242640, Note_on_c, 3, 62, 84
9, 242819, Note_on_c, 3, 57, 0
9, 242819, Note_on_c, 3, 62, 0
9, 242880, Note_on_c, 3, 62, 84
9, 242880, Note_on_c, 3, 57, 84
9, 243059, Note_on_c, 3, 62, 0
9, 243059, Note_on_c, 3, 57, 0
9, 243120, Note_on_c, 3, 62, 84
9, 243120, Note_on_c, 3, 57, 84
9, 243299, Note_on_c, 3, 62, 0
9, 243299, Note_on_c, 3, 57, 0
9, 243360, Note_on_c, 3, 57, 84
9, 243360, Note_on_c, 3, 62, 84
9, 244784, Note_on_c, 3, 57, 0
9, 244784, Note_on_c, 3, 62, 0
9, 244800, Note_on_c, 3, 64, 84
9, 244800, Note_on_c, 3, 57, 84
9, 244979, Note_on_c, 3, 64, 0
9, 244979, Note_on_c, 3, 57, 0
9, 245040, Note_on_c, 3, 64, 84
9, 245040, Note_on_c, 3, 57, 84
9, 245219, Note_on_c, 3, 64, 0
9, 245219, Note_on_c, 3, 57, 0
9, 245280, Note_on_c, 3, 64, 84
9, 245280, Note_on_c, 3, 57, 84
9, 245459, Note_on_c, 3, 64, 0
9, 245459, Note_on_c, 3, 57, 0
9, 245520, Note_on_c, 3, 64, 84
9, 245520, Note_on_c, 3, 57, 84
9, 245699, Note_on_c, 3, 64, 0
9, 245699, Note_on_c, 3, 57, 0
9, 245760, Note_on_c, 3, 64, 84
9, 245760, Note_on_c, 3, 57, 84
9, 245939, Note_on_c, 3, 64, 0
9, 245939, Note_on_c, 3, 57, 0
9, 246000, Note_on_c, 3, 64, 84
9, 246000, Note_on_c, 3, 57, 84
9, 246179, Note_on_c, 3, 64, 0
9, 246179, Note_on_c, 3, 57, 0
9, 246240, Note_on_c, 3, 64, 84
9, 246240, Note_on_c, 3, 57, 84
9, 247424, Note_on_c, 3, 64, 0
9, 247424, Note_on_c, 3, 57, 0
9, 247440, Note_on_c, 3, 64, 84
9, 247440, Note_on_c, 3, 57, 84
9, 247664, Note_on_c, 3, 64, 0
9, 247664, Note_on_c, 3, 57, 0
9, 247680, Note_on_c, 3, 62, 52
9, 247680, Note_on_c, 3, 57, 52
9, 247799, Note_on_c, 3, 62, 0
9, 247799, Note_on_c, 3, 57, 0
9, 248040, Note_on_c, 3, 62, 52
9, 248144, Note_on_c, 3, 62, 0
9, 248160, Note_on_c, 3, 62, 52
9, 248279, Note_on_c, 3, 62, 0
9, 248760, Note_on_c, 3, 62, 52
9, 248864, Note_on_c, 3, 62, 0
9, 248880, Note_on_c, 3, 62, 52
9, 248999, Note_on_c, 3, 62, 0
9, 249240, Note_on_c, 3, 62, 54
9, 249344, Note_on_c, 3, 62, 0
9, 249360, Note_on_c, 3, 62, 57
9, 249464, Note_on_c, 3, 62, 0
9, 249480, Note_on_c, 3, 62, 60
9, 249584, Note_on_c, 3, 62, 0
9, 249600, Note_on_c, 3, 62, 62
9, 249704, Note_on_c, 3, 62, 0
9, 249720, Note_on_c, 3, 62, 65
9, 249824, Note_on_c, 3, 62, 0
9, 249840, Note_on_c, 3, 62, 68
9, 250079, Note_on_c, 3, 62, 0
9, 250560, Note_on_c, 3, 58, 84
9, 250560, Note_on_c, 3, 55, 84
9, 250739, Note_on_c, 3, 58, 0
9, 250739, Note_on_c, 3, 55, 0
9, 250800, Note_on_c, 3, 58, 84
9, 250800, Note_on_c, 3, 55, 84
9, 250979, Note_on_c, 3, 58, 0
9, 250979, Note_on_c, 3, 55, 0
9, 251040, Note_on_c, 3, 58, 84
9, 251040, Note_on_c, 3, 55, 84
9, 251219, Note_on_c, 3, 58, 0
9, 251219, Note_on_c, 3, 55, 0
9, 251280, Note_on_c, 3, 58, 84
9, 251280, Note_on_c, 3, 55, 84
9, 251459, Note_on_c, 3, 58, 0
9, 251459, Note_on_c, 3, 55, 0
9, 251520, Note_on_c, 3, 58, 84
9, 251520, Note_on_c, 3, 55, 84
9, 251699, Note_on_c, 3, 58, 0
9, 251699, Note_on_c, 3, 55, 0
9, 251760, Note_on_c, 3, 58, 84
9, 251760, Note_on_c, 3, 55, 84
9, 251939, Note_on_c, 3, 58, 0
9, 251939, Note_on_c, 3, 55, 0
9, 252000, Note_on_c, 3, 55, 84
9, 252000, Note_on_c, 3, 58, 84
9, 253424, Note_on_c, 3, 55, 0
9, 253424, Note_on_c, 3, 58, 0
9, 253440, Note_on_c, 3, 60, 84
9, 253440, Note_on_c, 3, 57, 84
9, 253619, Note_on_c, 3, 60, 0
9, 253619, Note_on_c, 3, 57, 0
9, 253680, Note_on_c, 3, 60, 84
9, 253680, Note_on_c, 3, 57, 84
9, 253859, Note_on_c, 3, 60, 0
9, 253859, Note_on_c, 3, 57, 0
9, 253920, Note_on_c, 3, 60, 84
9, 253920, Note_on_c, 3, 57, 84
9, 254099, Note_on_c, 3, 60, 0
9, 254099, Note_on_c, 3, 57, 0
9, 254160, Note_on_c, 3, 60, 84
9, 254160, Note_on_c, 3, 57, 84
9, 254339, Note_on_c, 3, 60, 0
9, 254339, Note_on_c, 3, 57, 0
9, 254400, Note_on_c, 3, 60, 84
9, 254400, Note_on_c, 3, 57, 84
9, 254579, Note_on_c, 3, 60, 0
9, 254579, Note_on_c, 3, 57, 0
9, 254640, Note_on_c, 3, 60, 84
9, 254640, Note_on_c, 3, 57, 84
9, 254819, Note_on_c, 3, 60, 0
9, 254819, Note_on_c, 3, 57, 0
9, 254880, Note_on_c, 3, 60, 84
9, 254880, Note_on_c, 3, 57, 84
9, 256064, Note_on_c, 3, 60, 0
9, 256064, Note_on_c, 3, 57, 0
9, 256080, Note_on_c, 3, 60, 84
9, 256304, Note_on_c, 3, 60, 0
9, 256320, Note_on_c, 3, 59, 52
9, 256439, Note_on_c, 3, 59, 0
9, 259560, Note_on_c, 3, 60, 52
9, 259664, Note_on_c, 3, 60, 0
9, 259680, Note_on_c, 3, 60, 52
9, 259799, Note_on_c, 3, 60, 0
9, 259920, Control_c, 3, 11, 80
9, 260280, Note_on_c, 3, 60, 76
9, 260384, Note_on_c, 3, 60, 0
9, 260400, Note_on_c, 3, 60, 76
9, 260519, Note_on_c, 3, 60, 0
9, 260640, Control_c, 3, 11, 80
9, 260730, Control_c, 3, 11, 82
9, 260760, Note_on_c, 3, 60, 76
9, 260820, Control_c, 3, 11, 84
9, 260864, Note_on_c, 3, 60, 0
9, 260880, Note_on_c, 3, 60, 76
9, 260910, Control_c, 3, 11, 86
9, 260984, Note_on_c, 3, 60, 0
9, 261000, Control_c, 3, 11, 88
9, 261000, Note_on_c, 3, 60, 76
9, 261090, Control_c, 3, 11, 90
9, 261104, Note_on_c, 3, 60, 0
9, 261120, Note_on_c, 3, 60, 76
9, 261180, Control_c, 3, 11, 92
9, 261224, Note_on_c, 3, 60, 0
9, 261240, Note_on_c, 3, 60, 76
9, 261270, Control_c, 3, 11, 94
9, 261344, Note_on_c, 3, 60, 0
9, 261360, Control_c, 3, 11, 96
9, 261360, Note_on_c, 3, 60, 76
9, 261450, Control_c, 3, 11, 98
9, 261540, Control_c, 3, 11, 100
9, 261599, Note_on_c, 3, 60, 0
9, 261630, Control_c, 3, 11, 102
9, 261720, Control_c, 3, 11, 104
9, 261810, Control_c, 3, 11, 105
9, 261900, Control_c, 3, 11, 107
9, 261990, Control_c, 3, 11, 109
9, 262080, Control_c, 3, 11, 111
9, 262170, Control_c, 3, 11, 113
9, 262260, Control_c, 3, 11, 115
9, 262350, Control_c, 3, 11, 117
9, 262440, Control_c, 3, 11, 119
9, 262440, Note_on_c, 3, 65, 76
9, 262530, Control_c, 3, 11, 121
9, 262544, Note_on_c, 3, 65, 0
9, 262560, Note_on_c, 3, 65, 76
9, 262620, Control_c, 3, 11, 123
9, 262679, Note_on_c, 3, 65, 0
9, 262710, Control_c, 3, 11, 127
9, 263160, Note_on_c, 3, 46, 76
9, 263160, Note_on_c, 3, 58, 76
9, 263264, Note_on_c, 3, 46, 0
9, 263264, Note_on_c, 3, 58, 0
9, 263280, Note_on_c, 3, 58, 76
9, 263280, Note_on_c, 3, 46, 76
9, 263399, Note_on_c, 3, 58, 0
9, 263399, Note_on_c, 3, 46, 0
9, 263880, Note_on_c, 3, 63, 76
9, 263880, Note_on_c, 3, 51, 76
9, 263984, Note_on_c, 3, 63, 0
9, 263984, Note_on_c, 3, 51, 0
9, 264000, Note_on_c, 3, 51, 76
9, 264000, Note_on_c, 3, 63, 76
9, 264119, Note_on_c, 3, 51, 0
9, 264119, Note_on_c, 3, 63, 0
9, 264360, Note_on_c, 3, 56, 76
9, 264464, Note_on_c, 3, 56, 0
9, 264480, Note_on_c, 3, 56, 76
9, 264584, Note_on_c, 3, 56, 0
9, 264600, Note_on_c, 3, 56, 76
9, 264704, Note_on_c, 3, 56, 0
9, 264720, Note_on_c, 3, 56, 76
9, 264824, Note_on_c, 3, 56, 0
9, 264840, Note_on_c, 3, 56, 76
9, 264944, Note_on_c, 3, 56, 0
9, 264960, Note_on_c, 3, 65, 84
9, 264960, Note_on_c, 3, 53, 84
9, 265664, Note_on_c, 3, 65, 0
9, 265664, Note_on_c, 3, 53, 0
9, 265680, Note_on_c, 3, 64, 84
9, 265680, Note_on_c, 3, 52, 84
9, 266384, Note_on_c, 3, 64, 0
9, 266384, Note_on_c, 3, 52, 0
9, 266400, Note_on_c, 3, 63, 84
9, 266400, Note_on_c, 3, 51, 84
9, 266639, Note_on_c, 3, 63, 0
9, 266639, Note_on_c, 3, 51, 0
9, 267360, Note_on_c, 3, 63, 52
9, 267719, Note_on_c, 3, 63, 0
9, 267720, Note_on_c, 3, 61, 52
9, 267839, Note_on_c, 3, 61, 0
9, 267840, Note_on_c, 3, 58, 52
9, 268079, Note_on_c, 3, 58, 0
9, 270240, Note_on_c, 3, 63, 52
9, 270599, Note_on_c, 3, 63, 0
9, 270600, Note_on_c, 3, 60, 52
9, 270719, Note_on_c, 3, 60, 0
9, 270720, Note_on_c, 3, 56, 52
9, 270959, Note_on_c, 3, 56, 0
9, 271440, Note_on_c, 3, 51, 76
9, 271560, Control_c, 3, 11, 80
9, 272264, Note_on_c, 3, 51, 0
9, 272280, Note_on_c, 3, 53, 76
9, 272369, Note_on_c, 3, 53, 0
9, 272400, Note_on_c, 3, 55, 76
9, 272489, Note_on_c, 3, 55, 0
9, 272520, Note_on_c, 3, 56, 76
9, 272609, Note_on_c, 3, 56, 0
9, 272640, Note_on_c, 3, 58, 76
9, 272729, Note_on_c, 3, 58, 0
9, 272760, Note_on_c, 3, 60, 76
9, 272849, Note_on_c, 3, 60, 0
9, 272880, Note_on_c, 3, 61, 76
9, 273224, Note_on_c, 3, 61, 0
9, 273240, Note_on_c, 3, 60, 76
9, 273329, Note_on_c, 3, 60, 0
9, 273360, Note_on_c, 3, 58, 76
9, 273449, Note_on_c, 3, 58, 0
9, 273480, Note_on_c, 3, 56, 76
9, 273569, Note_on_c, 3, 56, 0
9, 273600, Note_on_c, 3, 55, 76
9, 273689, Note_on_c, 3, 55, 0
9, 273720, Note_on_c, 3, 56, 76
9, 273809, Note_on_c, 3, 56, 0
9, 273840, Note_on_c, 3, 58, 76
9, 273929, Note_on_c, 3, 58, 0
9, 273960, Note_on_c, 3, 56, 76
9, 274049, Note_on_c, 3, 56, 0
9, 274080, Note_on_c, 3, 55, 76
9, 274169, Note_on_c, 3, 55, 0
9, 274200, Note_on_c, 3, 53, 76
9, 274289, Note_on_c, 3, 53, 0
9, 274320, Note_on_c, 3, 51, 76
9, 274559, Note_on_c, 3, 51, 0
9, 282960, Control_c, 3, 11, 127
9, 283200, Note_on_c, 3, 55, 60
9, 283379, Note_on_c, 3, 55, 0
9, 283440, Note_on_c, 3, 67, 76
9, 283679, Note_on_c, 3, 67, 0
9, 283680, Note_on_c, 3, 67, 60
9, 283920, Note_on_c, 3, 64, 60
9, 284159, Note_on_c, 3, 67, 0
9, 284159, Note_on_c, 3, 64, 0
9, 285120, Control_c, 3, 11, 96
9, 285360, Note_on_c, 3, 55, 76
9, 285360, Note_on_c, 3, 52, 76
9, 285539, Note_on_c, 3, 55, 0
9, 285539, Note_on_c, 3, 52, 0
9, 285600, Note_on_c, 3, 67, 92
9, 285600, Note_on_c, 3, 64, 92
9, 285959, Note_on_c, 3, 67, 0
9, 285959, Note_on_c, 3, 64, 0
9, 285960, Note_on_c, 3, 65, 76
9, 285960, Note_on_c, 3, 62, 76
9, 285960, Control_c, 3, 11, 96
9, 286030, Control_c, 3, 11, 99
9, 286064, Note_on_c, 3, 65, 0
9, 286064, Note_on_c, 3, 62, 0
9, 286080, Note_on_c, 3, 65, 76
9, 286080, Note_on_c, 3, 62, 76
9, 286100, Control_c, 3, 11, 101
9, 286169, Note_on_c, 3, 65, 0
9, 286169, Note_on_c, 3, 62, 0
9, 286170, Control_c, 3, 11, 104
9, 286200, Note_on_c, 3, 64, 76
9, 286200, Note_on_c, 3, 60, 76
9, 286240, Control_c, 3, 11, 106
9, 286289, Note_on_c, 3, 64, 0
9, 286289, Note_on_c, 3, 60, 0
9, 286310, Control_c, 3, 11, 109
9, 286320, Note_on_c, 3, 58, 76
9, 286320, Note_on_c, 3, 62, 76
9, 286380, Control_c, 3, 11, 112
9, 286409, Note_on_c, 3, 58, 0
9, 286409, Note_on_c, 3, 62, 0
9, 286440, Note_on_c, 3, 57, 76
9, 286440, Note_on_c, 3, 60, 76
9, 286450, Control_c, 3, 11, 114
9, 286520, Control_c, 3, 11, 117
9, 286529, Note_on_c, 3, 57, 0
9, 286529, Note_on_c, 3, 60, 0
9, 286560, Note_on_c, 3, 56, 76
9, 286560, Note_on_c, 3, 59, 76
9, 286590, Control_c, 3, 11, 119
9, 286660, Control_c, 3, 11, 122
9, 286730, Control_c, 3, 11, 127
9, 286784, Note_on_c, 3, 56, 0
9, 286784, Note_on_c, 3, 59, 0
9, 286800, Note_on_c, 3, 59, 84
9, 286800, Note_on_c, 3, 56, 84
9, 288224, Note_on_c, 3, 59, 0
9, 288224, Note_on_c, 3, 56, 0
9, 288240, Note_on_c, 3, 59, 92
9, 288240, Note_on_c, 3, 56, 92
9, 288689, Note_on_c, 3, 59, 0
9, 288689, Note_on_c, 3, 56, 0
9, 288720, Note_on_c, 3, 59, 92
9, 288720, Note_on_c, 3, 56, 92
9, 289169, Note_on_c, 3, 59, 0
9, 289169, Note_on_c, 3, 56, 0
9, 289200, Note_on_c, 3, 59, 92
9, 289200, Note_on_c, 3, 56, 92
9, 289649, Note_on_c, 3, 59, 0
9, 289649, Note_on_c, 3, 56, 0
9, 289680, Note_on_c, 3, 59, 92
9, 289680, Note_on_c, 3, 56, 92
9, 290129, Note_on_c, 3, 59, 0
9, 290129, Note_on_c, 3, 56, 0
9, 290160, Note_on_c, 3, 59, 92
9, 290160, Note_on_c, 3, 56, 92
9, 290609, Note_on_c, 3, 59, 0
9, 290609, Note_on_c, 3, 56, 0
9, 290640, Note_on_c, 3, 59, 92
9, 290640, Note_on_c, 3, 56, 92
9, 290849, Note_on_c, 3, 59, 0
9, 290849, Note_on_c, 3, 56, 0
9, 291120, Note_on_c, 3, 60, 92
9, 291120, Note_on_c, 3, 57, 92
9, 292529, Note_on_c, 3, 60, 0
9, 292529, Note_on_c, 3, 57, 0
9, 292560, Note_on_c, 3, 60, 92
9, 292560, Note_on_c, 3, 57, 92
9, 293009, Note_on_c, 3, 60, 0
9, 293009, Note_on_c, 3, 57, 0
9, 293040, Note_on_c, 3, 60, 92
9, 293040, Note_on_c, 3, 57, 92
9, 293489, Note_on_c, 3, 60, 0
9, 293489, Note_on_c, 3, 57, 0
9, 293520, Note_on_c, 3, 60, 92
9, 293520, Note_on_c, 3, 57, 92
9, 293969, Note_on_c, 3, 60, 0
9, 293969, Note_on_c, 3, 57, 0
9, 294000, Note_on_c, 3, 60, 92
9, 294000, Note_on_c, 3, 57, 92
9, 294449, Note_on_c, 3, 60, 0
9, 294449, Note_on_c, 3, 57, 0
9, 294480, Note_on_c, 3, 60, 92
9, 294480, Note_on_c, 3, 57, 92
9, 294929, Note_on_c, 3, 60, 0
9, 294929, Note_on_c, 3, 57, 0
9, 294960, Note_on_c, 3, 60, 92
9, 294960, Note_on_c, 3, 57, 92
9, 295199, Note_on_c, 3, 60, 0
9, 295199, Note_on_c, 3, 57, 0
9, 295440, Note_on_c, 3, 59, 92
9, 295440, Note_on_c, 3, 57, 92
9, 296849, Note_on_c, 3, 59, 0
9, 296849, Note_on_c, 3, 57, 0
9, 296880, Note_on_c, 3, 59, 92
9, 296880, Note_on_c, 3, 57, 92
9, 297329, Note_on_c, 3, 59, 0
9, 297329, Note_on_c, 3, 57, 0
9, 297360, Note_on_c, 3, 59, 92
9, 297360, Note_on_c, 3, 57, 92
9, 297809, Note_on_c, 3, 59, 0
9, 297809, Note_on_c, 3, 57, 0
9, 297840, Note_on_c, 3, 59, 92
9, 297840, Note_on_c, 3, 57, 92
9, 298289, Note_on_c, 3, 59, 0
9, 298289, Note_on_c, 3, 57, 0
9, 298320, Note_on_c, 3, 59, 92
9, 298320, Note_on_c, 3, 57, 92
9, 298769, Note_on_c, 3, 59, 0
9, 298769, Note_on_c, 3, 57, 0
9, 298800, Note_on_c, 3, 59, 92
9, 298800, Note_on_c, 3, 57, 92
9, 299249, Note_on_c, 3, 59, 0
9, 299249, Note_on_c, 3, 57, 0
9, 299280, Note_on_c, 3, 59, 92
9, 299280, Note_on_c, 3, 57, 92
9, 299519, Note_on_c, 3, 59, 0
9, 299519, Note_on_c, 3, 57, 0
9, 299760, Note_on_c, 3, 58, 92
9, 299760, Note_on_c, 3, 46, 92
9, 301169, Note_on_c, 3, 58, 0
9, 301169, Note_on_c, 3, 46, 0
9, 301200, Note_on_c, 3, 58, 92
9, 301200, Note_on_c, 3, 46, 92
9, 301649, Note_on_c, 3, 58, 0
9, 301649, Note_on_c, 3, 46, 0
9, 301680, Note_on_c, 3, 58, 92
9, 301680, Note_on_c, 3, 46, 92
9, 302129, Note_on_c, 3, 58, 0
9, 302129, Note_on_c, 3, 46, 0
9, 302160, Note_on_c, 3, 58, 92
9, 302160, Note_on_c, 3, 46, 92
9, 302609, Note_on_c, 3, 58, 0
9, 302609, Note_on_c, 3, 46, 0
9, 302640, Note_on_c, 3, 58, 92
9, 302640, Note_on_c, 3, 46, 92
9, 303089, Note_on_c, 3, 58, 0
9, 303089, Note_on_c, 3, 46, 0
9, 303120, Note_on_c, 3, 58, 92
9, 303120, Note_on_c, 3, 46, 92
9, 303569, Note_on_c, 3, 58, 0
9, 303569, Note_on_c, 3, 46, 0
9, 303600, Note_on_c, 3, 58, 92
9, 303600, Note_on_c, 3, 46, 92
9, 303839, Note_on_c, 3, 58, 0
9, 303839, Note_on_c, 3, 46, 0
9, 304080, Note_on_c, 3, 60, 92
9, 304080, Note_on_c, 3, 57, 92
9, 304529, Note_on_c, 3, 60, 0
9, 304529, Note_on_c, 3, 57, 0
9, 304560, Note_on_c, 3, 60, 92
9, 304560, Note_on_c, 3, 57, 92
9, 305009, Note_on_c, 3, 60, 0
9, 305009, Note_on_c, 3, 57, 0
9, 305040, Note_on_c, 3, 60, 92
9, 305040, Note_on_c, 3, 57, 92
9, 305279, Note_on_c, 3, 60, 0
9, 305279, Note_on_c, 3, 57, 0
9, 305520, Note_on_c, 3, 60, 92
9, 305520, Note_on_c, 3, 55, 92
9, 305969, Note_on_c, 3, 60, 0
9, 305969, Note_on_c, 3, 55, 0
9, 306000, Note_on_c, 3, 60, 92
9, 306000, Note_on_c, 3, 55, 92
9, 306449, Note_on_c, 3, 60, 0
9, 306449, Note_on_c, 3, 55, 0
9, 306480, Note_on_c, 3, 60, 92
9, 306480, Note_on_c, 3, 55, 92
9, 306659, Note_on_c, 3, 60, 0
9, 306659, Note_on_c, 3, 55, 0
9, 306720, Note_on_c, 3, 60, 76
9, 306720, Note_on_c, 3, 57, 76
9, 307199, Note_on_c, 3, 60, 0
9, 307199, Note_on_c, 3, 57, 0
9, 307440, Note_on_c, 3, 60, 76
9, 307440, Note_on_c, 3, 57, 76
9, 307919, Note_on_c, 3, 60, 0
9, 307919, Note_on_c, 3, 57, 0
9, 308160, Note_on_c, 3, 60, 76
9, 308160, Note_on_c, 3, 57, 76
9, 308639, Note_on_c, 3, 60, 0
9, 308639, Note_on_c, 3, 57, 0
9, 308880, Note_on_c, 3, 60, 76
9, 308880, Note_on_c, 3, 57, 76
9, 309344, Note_on_c, 3, 60, 0
9, 309344, Note_on_c, 3, 57, 0
9, 309360, Note_on_c, 3, 60, 76
9, 309360, Note_on_c, 3, 57, 76
9, 309539, Note_on_c, 3, 60, 0
9, 309539, Note_on_c, 3, 57, 0
9, 317820, Control_c, 3, 11, 109
9, 317880, Note_on_c, 3, 62, 68
9, 317880, Control_c, 3, 11, 112
9, 317940, Control_c, 3, 11, 114
9, 317999, Note_on_c, 3, 62, 0
9, 318000, Note_on_c, 3, 60, 68
9, 318000, Control_c, 3, 11, 117
9, 318060, Control_c, 3, 11, 119
9, 318119, Note_on_c, 3, 60, 0
9, 318120, Control_c, 3, 11, 122
9, 318120, Note_on_c, 3, 59, 68
9, 318180, Control_c, 3, 11, 127
9, 318224, Note_on_c, 3, 59, 0
9, 318240, Note_on_c, 3, 57, 68
9, 318464, Note_on_c, 3, 57, 0
9, 318480, Note_on_c, 3, 60, 52
9, 318480, Note_on_c, 3, 57, 52
9, 318719, Note_on_c, 3, 60, 0
9, 318719, Note_on_c, 3, 57, 0
9, 318720, Note_on_c, 3, 62, 52
9, 318720, Note_on_c, 3, 59, 52
9, 318959, Note_on_c, 3, 62, 0
9, 318959, Note_on_c, 3, 59, 0
9, 318960, Note_on_c, 3, 64, 68
9, 318960, Note_on_c, 3, 60, 68
9, 319319, Note_on_c, 3, 64, 0
9, 319319, Note_on_c, 3, 60, 0
9, 319320, Note_on_c, 3, 62, 52
9, 319320, Note_on_c, 3, 59, 52
9, 319439, Note_on_c, 3, 62, 0
9, 319439, Note_on_c, 3, 59, 0
9, 319440, Note_on_c, 3, 60, 52
9, 319440, Note_on_c, 3, 57, 52
9, 319664, Note_on_c, 3, 60, 0
9, 319664, Note_on_c, 3, 57, 0
9, 319680, Note_on_c, 3, 59, 52
9, 319680, Note_on_c, 3, 56, 52
9, 319919, Note_on_c, 3, 59, 0
9, 319919, Note_on_c, 3, 56, 0
9, 319920, Note_on_c, 3, 59, 52
9, 319920, Note_on_c, 3, 55, 52
9, 320159, Note_on_c, 3, 59, 0
9, 320159, Note_on_c, 3, 55, 0
9, 320160, Note_on_c, 3, 57, 52
9, 320160, Note_on_c, 3, 54, 52
9, 320399, Note_on_c, 3, 57, 0
9, 320399, Note_on_c, 3, 54, 0
9, 320400, Note_on_c, 3, 56, 68
9, 320400, Note_on_c, 3, 52, 68
9, 320879, Note_on_c, 3, 56, 0
9, 320879, Note_on_c, 3, 52, 0
9, 320880, Note_on_c, 3, 57, 52
9, 320880, Note_on_c, 3, 54, 52
9, 320999, Note_on_c, 3, 57, 0
9, 320999, Note_on_c, 3, 54, 0
9, 321000, Note_on_c, 3, 59, 52
9, 321000, Note_on_c, 3, 56, 52
9, 321104, Note_on_c, 3, 59, 0
9, 321104, Note_on_c, 3, 56, 0
9, 321120, Note_on_c, 3, 60, 52
9, 321120, Note_on_c, 3, 57, 52
9, 321344, Note_on_c, 3, 60, 0
9, 321344, Note_on_c, 3, 57, 0
9, 321360, Note_on_c, 3, 60, 52
9, 321360, Note_on_c, 3, 57, 52
9, 321599, Note_on_c, 3, 60, 0
9, 321599, Note_on_c, 3, 57, 0
9, 321600, Note_on_c, 3, 62, 52
9, 321600, Note_on_c, 3, 59, 52
9, 321839, Note_on_c, 3, 62, 0
9, 321839, Note_on_c, 3, 59, 0
9, 321840, Note_on_c, 3, 64, 68
9, 321840, Note_on_c, 3, 60, 68
9, 322199, Note_on_c, 3, 64, 0
9, 322199, Note_on_c, 3, 60, 0
9, 322200, Note_on_c, 3, 62, 52
9, 322200, Note_on_c, 3, 59, 52
9, 322319, Note_on_c, 3, 62, 0
9, 322319, Note_on_c, 3, 59, 0
9, 322320, Note_on_c, 3, 60, 52
9, 322320, Note_on_c, 3, 57, 52
9, 322544, Note_on_c, 3, 60, 0
9, 322544, Note_on_c, 3, 57, 0
9, 322560, Note_on_c, 3, 59, 52
9, 322560, Note_on_c, 3, 56, 52
9, 322799, Note_on_c, 3, 59, 0
9, 322799, Note_on_c, 3, 56, 0
9, 322800, Note_on_c, 3, 59, 52
9, 322800, Note_on_c, 3, 55, 52
9, 323039, Note_on_c, 3, 59, 0
9, 323039, Note_on_c, 3, 55, 0
9, 323040, Note_on_c, 3, 57, 52
9, 323040, Note_on_c, 3, 54, 52
9, 323279, Note_on_c, 3, 57, 0
9, 323279, Note_on_c, 3, 54, 0
9, 323280, Note_on_c, 3, 55, 52
9, 323280, Note_on_c, 3, 52, 52
9, 323384, Note_on_c, 3, 55, 0
9, 323384, Note_on_c, 3, 52, 0
9, 323400, Note_on_c, 3, 52, 56
9, 323504, Note_on_c, 3, 52, 0
9, 323520, Note_on_c, 3, 55, 60
9, 323639, Note_on_c, 3, 55, 0
9, 323640, Note_on_c, 3, 53, 64
9, 323759, Note_on_c, 3, 53, 0
9, 323760, Note_on_c, 3, 52, 68
9, 323879, Note_on_c, 3, 52, 0
9, 323880, Note_on_c, 3, 50, 72
9, 323984, Note_on_c, 3, 50, 0
9, 324000, Note_on_c, 3, 48, 76
9, 324224, Note_on_c, 3, 48, 0
9, 324240, Note_on_c, 3, 60, 76
9, 324240, Note_on_c, 3, 48, 76
9, 324479, Note_on_c, 3, 60, 0
9, 324479, Note_on_c, 3, 48, 0
9, 324480, Note_on_c, 3, 64, 76
9, 324480, Note_on_c, 3, 52, 76
9, 324719, Note_on_c, 3, 64, 0
9, 324719, Note_on_c, 3, 52, 0
9, 324720, Note_on_c, 3, 60, 76
9, 324720, Note_on_c, 3, 48, 76
9, 325199, Note_on_c, 3, 60, 0
9, 325199, Note_on_c, 3, 48, 0
9, 325200, Note_on_c, 3, 55, 76
9, 325200, Note_on_c, 3, 43, 76
9, 325424, Note_on_c, 3, 55, 0
9, 325424, Note_on_c, 3, 43, 0
9, 325440, Note_on_c, 3, 60, 76
9, 325440, Note_on_c, 3, 48, 76
9, 325664, Note_on_c, 3, 60, 0
9, 325664, Note_on_c, 3, 48, 0
9, 325680, Note_on_c, 3, 64, 76
9, 325680, Note_on_c, 3, 52, 76
9, 325859, Note_on_c, 3, 64, 0
9, 325859, Note_on_c, 3, 52, 0
9, 325920, Note_on_c, 3, 67, 76
9, 325920, Note_on_c, 3, 55, 76
9, 326099, Note_on_c, 3, 67, 0
9, 326099, Note_on_c, 3, 55, 0
9, 326160, Note_on_c, 3, 60, 76
9, 326160, Note_on_c, 3, 48, 76
9, 326624, Note_on_c, 3, 60, 0
9, 326624, Note_on_c, 3, 48, 0
9, 326640, Note_on_c, 3, 43, 76
9, 326864, Note_on_c, 3, 43, 0
9, 326880, Note_on_c, 3, 48, 76
9, 327059, Note_on_c, 3, 48, 0
9, 327120, Note_on_c, 3, 52, 76
9, 327299, Note_on_c, 3, 52, 0
9, 327360, Note_on_c, 3, 55, 76
9, 327539, Note_on_c, 3, 55, 0
9, 327600, Note_on_c, 3, 60, 76
9, 327779, Note_on_c, 3, 60, 0
9, 327840, Note_on_c, 3, 64, 76
9, 328019, Note_on_c, 3, 64, 0
9, 328080, Note_on_c, 3, 67, 84
9, 328409, Note_on_c, 3, 67, 0
9, 328440, Note_on_c, 3, 65, 76
9, 328529, Note_on_c, 3, 65, 0
9, 328560, Note_on_c, 3, 62, 76
9, 328649, Note_on_c, 3, 62, 0
9, 328680, Note_on_c, 3, 59, 76
9, 328769, Note_on_c, 3, 59, 0
9, 328800, Note_on_c, 3, 55, 76
9, 328889, Note_on_c, 3, 55, 0
9, 328920, Note_on_c, 3, 53, 76
9, 329009, Note_on_c, 3, 53, 0
9, 329040, Note_on_c, 3, 50, 76
9, 329129, Note_on_c, 3, 50, 0
9, 329160, Note_on_c, 3, 53, 76
9, 329249, Note_on_c, 3, 53, 0
9, 329280, Note_on_c, 3, 50, 76
9, 329369, Note_on_c, 3, 50, 0
9, 329400, Note_on_c, 3, 47, 76
9, 329489, Note_on_c, 3, 47, 0
9, 329520, Note_on_c, 3, 43, 76
9, 329609, Note_on_c, 3, 43, 0
9, 329640, Note_on_c, 3, 47, 76
9, 329729, Note_on_c, 3, 47, 0
9, 329760, Note_on_c, 3, 48, 76
9, 329939, Note_on_c, 3, 48, 0
9, 330000, Note_on_c, 3, 51, 76
9, 330179, Note_on_c, 3, 51, 0
9, 330240, Note_on_c, 3, 55, 76
9, 330419, Note_on_c, 3, 55, 0
9, 330480, Note_on_c, 3, 60, 76
9, 330659, Note_on_c, 3, 60, 0
9, 330720, Note_on_c, 3, 63, 76
9, 330899, Note_on_c, 3, 63, 0
9, 330960, Note_on_c, 3, 67, 76
9, 331289, Note_on_c, 3, 67, 0
9, 331320, Note_on_c, 3, 65, 76
9, 331409, Note_on_c, 3, 65, 0
9, 331440, Note_on_c, 3, 62, 76
9, 331529, Note_on_c, 3, 62, 0
9, 331560, Note_on_c, 3, 59, 76
9, 331649, Note_on_c, 3, 59, 0
9, 331680, Note_on_c, 3, 55, 76
9, 331769, Note_on_c, 3, 55, 0
9, 331800, Note_on_c, 3, 53, 76
9, 331889, Note_on_c, 3, 53, 0
9, 331920, Note_on_c, 3, 50, 76
9, 332009, Note_on_c, 3, 50, 0
9, 332040, Note_on_c, 3, 53, 76
9, 332129, Note_on_c, 3, 53, 0
9, 332160, Note_on_c, 3, 50, 76
9, 332249, Note_on_c, 3, 50, 0
9, 332280, Note_on_c, 3, 47, 76
9, 332369, Note_on_c, 3, 47, 0
9, 332400, Note_on_c, 3, 43, 76
9, 332489, Note_on_c, 3, 43, 0
9, 332520, Note_on_c, 3, 46, 76
9, 332609, Note_on_c, 3, 46, 0
9, 332640, Note_on_c, 3, 48, 76
9, 332879, Note_on_c, 3, 48, 0
9, 332880, Note_on_c, 3, 51, 76
9, 333119, Note_on_c, 3, 51, 0
9, 333120, Note_on_c, 3, 55, 76
9, 333344, Note_on_c, 3, 55, 0
9, 333360, Note_on_c, 3, 56, 84
9, 333839, Note_on_c, 3, 56, 0
9, 333840, Note_on_c, 3, 48, 76
9, 334064, Note_on_c, 3, 48, 0
9, 334080, Note_on_c, 3, 49, 76
9, 334319, Note_on_c, 3, 49, 0
9, 334320, Note_on_c, 3, 53, 76
9, 334559, Note_on_c, 3, 53, 0
9, 334560, Note_on_c, 3, 57, 76
9, 334784, Note_on_c, 3, 57, 0
9, 334800, Note_on_c, 3, 58, 84
9, 335279, Note_on_c, 3, 58, 0
9, 335280, Note_on_c, 3, 50, 76
9, 335504, Note_on_c, 3, 50, 0
9, 335520, Note_on_c, 3, 51, 76
9, 335699, Note_on_c, 3, 51, 0
9, 335760, Note_on_c, 3, 43, 76
9, 335939, Note_on_c, 3, 43, 0
9, 336000, Note_on_c, 3, 46, 76
9, 336179, Note_on_c, 3, 46, 0
9, 336240, Note_on_c, 3, 51, 76
9, 336419, Note_on_c, 3, 51, 0
9, 336480, Note_on_c, 3, 55, 76
9, 336659, Note_on_c, 3, 55, 0
9, 336720, Note_on_c, 3, 58, 84
9, 337049, Note_on_c, 3, 58, 0
9, 337080, Note_on_c, 3, 56, 76
9, 337169, Note_on_c, 3, 56, 0
9, 337200, Note_on_c, 3, 53, 76
9, 337289, Note_on_c, 3, 53, 0
9, 337320, Note_on_c, 3, 50, 76
9, 337409, Note_on_c, 3, 50, 0
9, 337440, Note_on_c, 3, 46, 76
9, 337529, Note_on_c, 3, 46, 0
9, 337560, Note_on_c, 3, 44, 76
9, 337649, Note_on_c, 3, 44, 0
9, 337680, Note_on_c, 3, 41, 76
9, 337769, Note_on_c, 3, 41, 0
9, 337800, Note_on_c, 3, 56, 76
9, 337889, Note_on_c, 3, 56, 0
9, 337920, Note_on_c, 3, 53, 76
9, 338009, Note_on_c, 3, 53, 0
9, 338040, Note_on_c, 3, 50, 76
9, 338129, Note_on_c, 3, 50, 0
9, 338160, Note_on_c, 3, 46, 76
9, 338249, Note_on_c, 3, 46, 0
9, 338280, Note_on_c, 3, 50, 76
9, 338369, Note_on_c, 3, 50, 0
9, 338400, Note_on_c, 3, 51, 84
9, 338579, Note_on_c, 3, 51, 0
9, 338640, Note_on_c, 3, 42, 84
9, 338819, Note_on_c, 3, 42, 0
9, 338880, Note_on_c, 3, 46, 84
9, 339059, Note_on_c, 3, 46, 0
9, 339120, Note_on_c, 3, 51, 84
9, 339299, Note_on_c, 3, 51, 0
9, 339360, Note_on_c, 3, 54, 84
9, 339539, Note_on_c, 3, 54, 0
9, 339600, Note_on_c, 3, 58, 84
9, 339779, Note_on_c, 3, 58, 0
9, 339840, Note_on_c, 3, 63, 84
9, 340079, Note_on_c, 3, 63, 0
9, 340080, Note_on_c, 3, 63, 52
9, 340319, Note_on_c, 3, 63, 0
9, 340320, Note_on_c, 3, 65, 52
9, 340559, Note_on_c, 3, 65, 0
9, 340560, Note_on_c, 3, 66, 68
9, 340919, Note_on_c, 3, 66, 0
9, 340920, Note_on_c, 3, 65, 52
9, 341039, Note_on_c, 3, 65, 0
9, 341040, Note_on_c, 3, 63, 52
9, 341279, Note_on_c, 3, 63, 0
9, 341280, Note_on_c, 3, 62, 52
9, 341519, Note_on_c, 3, 62, 0
9, 341520, Note_on_c, 3, 61, 52
9, 341759, Note_on_c, 3, 61, 0
9, 341760, Note_on_c, 3, 60, 52
9, 341999, Note_on_c, 3, 60, 0
9, 342000, Note_on_c, 3, 58, 68
9, 342479, Note_on_c, 3, 58, 0
9, 342480, Note_on_c, 3, 60, 52
9, 342599, Note_on_c, 3, 60, 0
9, 342600, Note_on_c, 3, 62, 52
9, 342704, Note_on_c, 3, 62, 0
9, 342720, Note_on_c, 3, 63, 52
9, 342944, Note_on_c, 3, 63, 0
9, 342960, Note_on_c, 3, 63, 52
9, 343199, Note_on_c, 3, 63, 0
9, 343200, Note_on_c, 3, 65, 52
9, 343439, Note_on_c, 3, 65, 0
9, 343440, Note_on_c, 3, 66, 68
9, 343560, Control_c, 3, 11, 127
9, 343610, Control_c, 3, 11, 126
9, 343660, Control_c, 3, 11, 125
9, 343710, Control_c, 3, 11, 123
9, 343760, Control_c, 3, 11, 122
9, 343799, Note_on_c, 3, 66, 0
9, 343800, Note_on_c, 3, 65, 52
9, 343810, Control_c, 3, 11, 121
9, 343860, Control_c, 3, 11, 120
9, 343910, Control_c, 3, 11, 118
9, 343919, Note_on_c, 3, 65, 0
9, 343920, Note_on_c, 3, 63, 52
9, 343960, Control_c, 3, 11, 117
9, 344010, Control_c, 3, 11, 116
9, 344060, Control_c, 3, 11, 115
9, 344129, Note_on_c, 3, 63, 0
9, 344145, Control_c, 3, 11, 96
9, 344160, Note_on_c, 3, 61, 60
9, 344160, Control_c, 3, 11, 96
9, 344280, Control_c, 3, 11, 99
9, 344400, Control_c, 3, 11, 101
9, 344520, Control_c, 3, 11, 104
9, 344640, Control_c, 3, 11, 106
9, 344760, Control_c, 3, 11, 109
9, 344880, Control_c, 3, 11, 112
9, 344999, Note_on_c, 3, 61, 0
9, 345000, Control_c, 3, 11, 114
9, 345000, Note_on_c, 3, 59, 60
9, 345119, Note_on_c, 3, 59, 0
9, 345120, Control_c, 3, 11, 117
9, 345120, Note_on_c, 3, 58, 60
9, 345239, Note_on_c, 3, 58, 0
9, 345240, Note_on_c, 3, 59, 60
9, 345240, Control_c, 3, 11, 119
9, 345359, Note_on_c, 3, 59, 0
9, 345360, Control_c, 3, 11, 122
9, 345360, Note_on_c, 3, 61, 60
9, 345479, Note_on_c, 3, 61, 0
9, 345480, Control_c, 3, 11, 127
9, 345480, Note_on_c, 3, 59, 60
9, 345584, Note_on_c, 3, 59, 0
9, 345600, Note_on_c, 3, 58, 52
9, 345839, Note_on_c, 3, 58, 0
9, 351360, Note_on_c, 3, 58, 52
9, 351839, Note_on_c, 3, 58, 0
9, 351840, Note_on_c, 3, 62, 52
9, 352079, Note_on_c, 3, 62, 0
9, 352080, Note_on_c, 3, 58, 52
9, 352559, Note_on_c, 3, 58, 0
9, 352560, Note_on_c, 3, 53, 52
9, 352784, Note_on_c, 3, 53, 0
9, 352800, Note_on_c, 3, 58, 52
9, 353039, Note_on_c, 3, 58, 0
9, 353040, Note_on_c, 3, 62, 52
9, 353279, Note_on_c, 3, 62, 0
9, 353280, Note_on_c, 3, 65, 52
9, 353504, Note_on_c, 3, 65, 0
9, 353520, Note_on_c, 3, 65, 52
9, 354224, Note_on_c, 3, 65, 0
9, 354240, Note_on_c, 3, 58, 52
9, 354719, Note_on_c, 3, 58, 0
9, 354720, Note_on_c, 3, 63, 52
9, 354959, Note_on_c, 3, 63, 0
9, 354960, Note_on_c, 3, 58, 52
9, 355439, Note_on_c, 3, 58, 0
9, 355440, Note_on_c, 3, 54, 52
9, 355664, Note_on_c, 3, 54, 0
9, 355680, Note_on_c, 3, 58, 52
9, 355919, Note_on_c, 3, 58, 0
9, 355920, Note_on_c, 3, 63, 52
9, 356159, Note_on_c, 3, 63, 0
9, 356160, Note_on_c, 3, 66, 52
9, 356384, Note_on_c, 3, 66, 0
9, 356400, Note_on_c, 3, 66, 52
9, 357104, Note_on_c, 3, 66, 0
9, 357120, Note_on_c, 3, 60, 52
9, 357599, Note_on_c, 3, 60, 0
9, 357600, Note_on_c, 3, 63, 52
9, 357839, Note_on_c, 3, 63, 0
9, 357840, Note_on_c, 3, 60, 52
9, 358319, Note_on_c, 3, 60, 0
9, 358320, Note_on_c, 3, 56, 52
9, 358544, Note_on_c, 3, 56, 0
9, 358560, Note_on_c, 3, 60, 52
9, 358799, Note_on_c, 3, 60, 0
9, 358800, Note_on_c, 3, 63, 52
9, 359039, Note_on_c, 3, 63, 0
9, 359040, Note_on_c, 3, 66, 52
9, 359264, Note_on_c, 3, 66, 0
9, 359280, Note_on_c, 3, 66, 52
9, 359984, Note_on_c, 3, 66, 0
9, 360000, Note_on_c, 3, 61, 52
9, 360479, Note_on_c, 3, 61, 0
9, 360480, Note_on_c, 3, 65, 52
9, 360719, Note_on_c, 3, 65, 0
9, 360720, Note_on_c, 3, 61, 52
9, 361199, Note_on_c, 3, 61, 0
9, 361200, Note_on_c, 3, 56, 52
9, 361424, Note_on_c, 3, 56, 0
9, 361440, Note_on_c, 3, 56, 52
9, 361679, Note_on_c, 3, 56, 0
9, 361680, Note_on_c, 3, 61, 52
9, 361919, Note_on_c, 3, 61, 0
9, 361920, Note_on_c, 3, 65, 52
9, 362144, Note_on_c, 3, 65, 0
9, 362160, Note_on_c, 3, 65, 52
9, 362849, Note_on_c, 3, 65, 0
9, 362865, Control_c, 3, 11, 96
9, 362880, Note_on_c, 3, 62, 68
9, 362880, Control_c, 3, 11, 96
9, 363120, Control_c, 3, 11, 99
9, 363359, Note_on_c, 3, 62, 0
9, 363360, Control_c, 3, 11, 101
9, 363360, Note_on_c, 3, 65, 68
9, 363599, Note_on_c, 3, 65, 0
9, 363600, Note_on_c, 3, 62, 68
9, 363600, Control_c, 3, 11, 104
9, 363840, Control_c, 3, 11, 106
9, 364079, Note_on_c, 3, 62, 0
9, 364080, Note_on_c, 3, 58, 68
9, 364080, Control_c, 3, 11, 109
9, 364304, Note_on_c, 3, 58, 0
9, 364320, Control_c, 3, 11, 112
9, 364320, Note_on_c, 3, 58, 68
9, 364559, Note_on_c, 3, 58, 0
9, 364560, Note_on_c, 3, 62, 68
9, 364560, Control_c, 3, 11, 114
9, 364799, Note_on_c, 3, 62, 0
9, 364800, Note_on_c, 3, 65, 68
9, 364800, Control_c, 3, 11, 117
9, 365024, Note_on_c, 3, 65, 0
9, 365040, Control_c, 3, 11, 119
9, 365040, Note_on_c, 3, 65, 68
9, 365280, Control_c, 3, 11, 122
9, 365520, Control_c, 3, 11, 127
9, 365744, Note_on_c, 3, 65, 0
9, 365760, Note_on_c, 3, 63, 68
9, 365999, Note_on_c, 3, 63, 0
9, 366480, Note_on_c, 3, 63, 76
9, 366480, Note_on_c, 3, 51, 76
9, 366959, Note_on_c, 3, 63, 0
9, 366959, Note_on_c, 3, 51, 0
9, 366960, Note_on_c, 3, 54, 68
9, 366960, Note_on_c, 3, 66, 68
9, 367199, Note_on_c, 3, 54, 0
9, 367199, Note_on_c, 3, 66, 0
9, 367920, Note_on_c, 3, 63, 76
9, 367920, Note_on_c, 3, 51, 76
9, 368399, Note_on_c, 3, 63, 0
9, 368399, Note_on_c, 3, 51, 0
9, 368400, Note_on_c, 3, 54, 68
9, 368400, Note_on_c, 3, 66, 68
9, 368624, Note_on_c, 3, 54, 0
9, 368624, Note_on_c, 3, 66, 0
9, 368640, Note_on_c, 3, 59, 84
9, 368640, Note_on_c, 3, 47, 84
9, 370079, Note_on_c, 3, 59, 0
9, 370079, Note_on_c, 3, 47, 0
9, 370080, Note_on_c, 3, 59, 84
9, 370080, Note_on_c, 3, 47, 84
9, 371024, Note_on_c, 3, 59, 0
9, 371024, Note_on_c, 3, 47, 0
9, 371040, Note_on_c, 3, 59, 84
9, 371040, Note_on_c, 3, 47, 84
9, 371264, Note_on_c, 3, 59, 0
9, 371264, Note_on_c, 3, 47, 0
9, 371280, Note_on_c, 3, 59, 84
9, 371280, Note_on_c, 3, 47, 84
9, 371504, Note_on_c, 3, 59, 0
9, 371504, Note_on_c, 3, 47, 0
9, 371520, Note_on_c, 3, 63, 76
9, 371520, Note_on_c, 3, 59, 76
9, 372224, Note_on_c, 3, 63, 0
9, 372224, Note_on_c, 3, 59, 0
9, 372240, Note_on_c, 3, 63, 76
9, 372240, Note_on_c, 3, 59, 76
9, 372944, Note_on_c, 3, 63, 0
9, 372944, Note_on_c, 3, 59, 0
9, 372960, Note_on_c, 3, 63, 76
9, 372960, Note_on_c, 3, 59, 76
9, 373664, Note_on_c, 3, 63, 0
9, 373664, Note_on_c, 3, 59, 0
9, 373680, Note_on_c, 3, 63, 76
9, 373680, Note_on_c, 3, 59, 76
9, 374384, Note_on_c, 3, 63, 0
9, 374384, Note_on_c, 3, 59, 0
9, 374400, Note_on_c, 3, 63, 52
9, 374400, Note_on_c, 3, 60, 52
9, 375104, Note_on_c, 3, 63, 0
9, 375104, Note_on_c, 3, 60, 0
9, 375120, Note_on_c, 3, 63, 52
9, 375120, Note_on_c, 3, 60, 52
9, 375824, Note_on_c, 3, 63, 0
9, 375824, Note_on_c, 3, 60, 0
9, 375840, Note_on_c, 3, 63, 52
9, 375840, Note_on_c, 3, 60, 52
9, 376544, Note_on_c, 3, 63, 0
9, 376544, Note_on_c, 3, 60, 0
9, 376560, Note_on_c, 3, 63, 52
9, 376560, Note_on_c, 3, 48, 52
9, 377264, Note_on_c, 3, 63, 0
9, 377264, Note_on_c, 3, 48, 0
9, 377280, Note_on_c, 3, 58, 52
9, 377280, Note_on_c, 3, 50, 52
9, 377280, Control_c, 3, 11, 127
9, 377520, Control_c, 3, 11, 126
9, 377760, Control_c, 3, 11, 125
9, 377984, Note_on_c, 3, 58, 0
9, 377984, Note_on_c, 3, 50, 0
9, 378000, Control_c, 3, 11, 123
9, 378000, Note_on_c, 3, 58, 52
9, 378000, Note_on_c, 3, 50, 52
9, 378240, Control_c, 3, 11, 122
9, 378480, Control_c, 3, 11, 121
9, 378704, Note_on_c, 3, 58, 0
9, 378704, Note_on_c, 3, 50, 0
9, 378720, Control_c, 3, 11, 120
9, 378720, Note_on_c, 3, 58, 52
9, 378720, Note_on_c, 3, 51, 52
9, 378960, Control_c, 3, 11, 118
9, 379200, Control_c, 3, 11, 117
9, 379424, Note_on_c, 3, 58, 0
9, 379424, Note_on_c, 3, 51, 0
9, 379440, Control_c, 3, 11, 116
9, 379440, Note_on_c, 3, 58, 52
9, 379440, Note_on_c, 3, 51, 52
9, 379680, Control_c, 3, 11, 115
9, 379920, Control_c, 3, 11, 112
9, 380144, Note_on_c, 3, 58, 0
9, 380144, Note_on_c, 3, 51, 0
9, 380160, Note_on_c, 3, 58, 52
9, 380160, Note_on_c, 3, 46, 52
9, 380864, Note_on_c, 3, 58, 0
9, 380864, Note_on_c, 3, 46, 0
9, 380880, Note_on_c, 3, 58, 52
9, 380880, Note_on_c, 3, 46, 52
9, 381584, Note_on_c, 3, 58, 0
9, 381584, Note_on_c, 3, 46, 0
9, 381600, Note_on_c, 3, 46, 52
9, 381600, Note_on_c, 3, 58, 52
9, 382304, Note_on_c, 3, 46, 0
9, 382304, Note_on_c, 3, 58, 0
9, 382320, Note_on_c, 3, 46, 52
9, 382320, Note_on_c, 3, 58, 52
9, 383039, Note_on_c, 3, 46, 0
9, 383039, Note_on_c, 3, 58, 0
9, 384240, Control_c, 3, 11, 127
9, 384480, Note_on_c, 3, 58, 44
9, 384480, Note_on_c, 3, 46, 44
9, 385184, Note_on_c, 3, 58, 0
9, 385184, Note_on_c, 3, 46, 0
9, 385200, Note_on_c, 3, 58, 44
9, 385200, Note_on_c, 3, 46, 44
9, 385919, Note_on_c, 3, 58, 0
9, 385919, Note_on_c, 3, 46, 0
9, 387360, Note_on_c, 3, 58, 44
9, 387360, Note_on_c, 3, 46, 44
9, 388064, Note_on_c, 3, 58, 0
9, 388064, Note_on_c, 3, 46, 0
9, 388080, Note_on_c, 3, 58, 44
9, 388080, Note_on_c, 3, 46, 44
9, 388799, Note_on_c, 3, 58, 0
9, 388799, Note_on_c, 3, 46, 0
9, 393120, Note_on_c, 3, 62, 76
9, 393120, Note_on_c, 3, 58, 76
9, 393824, Note_on_c, 3, 62, 0
9, 393824, Note_on_c, 3, 58, 0
9, 393840, Note_on_c, 3, 62, 84
9, 393840, Note_on_c, 3, 58, 84
9, 394544, Note_on_c, 3, 62, 0
9, 394544, Note_on_c, 3, 58, 0
9, 394560, Note_on_c, 3, 63, 84
9, 394560, Note_on_c, 3, 51, 84
9, 394799, Note_on_c, 3, 63, 0
9, 394799, Note_on_c, 3, 51, 0
9, 411600, Control_c, 3, 11, 96
9, 411840, Note_on_c, 3, 53, 68
9, 411840, Note_on_c, 3, 49, 68
9, 411840, Control_c, 3, 11, 96
9, 411900, Control_c, 3, 11, 99
9, 411960, Control_c, 3, 11, 101
9, 412020, Control_c, 3, 11, 104
9, 412080, Control_c, 3, 11, 106
9, 412140, Control_c, 3, 11, 109
9, 412200, Control_c, 3, 11, 112
9, 412260, Control_c, 3, 11, 114
9, 412320, Control_c, 3, 11, 117
9, 412380, Control_c, 3, 11, 119
9, 412440, Control_c, 3, 11, 122
9, 412500, Control_c, 3, 11, 124
9, 412559, Note_on_c, 3, 53, 0
9, 412559, Note_on_c, 3, 49, 0
9, 412560, Note_on_c, 3, 48, 68
9, 412560, Note_on_c, 3, 51, 68
9, 412560, Control_c, 3, 11, 127
9, 412620, Control_c, 3, 11, 123
9, 412680, Control_c, 3, 11, 119
9, 412740, Control_c, 3, 11, 115
9, 412800, Control_c, 3, 11, 111
9, 412860, Control_c, 3, 11, 107
9, 412920, Control_c, 3, 11, 104
9, 412980, Control_c, 3, 11, 100
9, 413040, Control_c, 3, 11, 96
9, 413100, Control_c, 3, 11, 92
9, 413160, Control_c, 3, 11, 88
9, 413220, Control_c, 3, 11, 80
9, 413279, Note_on_c, 3, 48, 0
9, 413279, Note_on_c, 3, 51, 0
9, 413280, Note_on_c, 3, 53, 68
9, 413280, Note_on_c, 3, 46, 68
9, 413519, Note_on_c, 3, 53, 0
9, 413519, Note_on_c, 3, 46, 0
9, 415440, Control_c, 3, 11, 127
9, 415920, Note_on_c, 3, 60, 57
9, 416009, Note_on_c, 3, 60, 0
9, 416040, Note_on_c, 3, 58, 58
9, 416129, Note_on_c, 3, 58, 0
9, 416160, Note_on_c, 3, 56, 60
9, 416249, Note_on_c, 3, 56, 0
9, 416280, Note_on_c, 3, 58, 61
9, 416369, Note_on_c, 3, 58, 0
9, 416400, Note_on_c, 3, 56, 62
9, 416489, Note_on_c, 3, 56, 0
9, 416520, Note_on_c, 3, 55, 64
9, 416609, Note_on_c, 3, 55, 0
9, 416640, Note_on_c, 3, 56, 65
9, 416640, Note_on_c, 3, 53, 65
9, 416729, Note_on_c, 3, 56, 0
9, 416729, Note_on_c, 3, 53, 0
9, 416760, Note_on_c, 3, 55, 66
9, 416760, Note_on_c, 3, 51, 66
9, 416849, Note_on_c, 3, 55, 0
9, 416849, Note_on_c, 3, 51, 0
9, 416880, Note_on_c, 3, 53, 68
9, 416880, Note_on_c, 3, 50, 68
9, 416969, Note_on_c, 3, 53, 0
9, 416969, Note_on_c, 3, 50, 0
9, 417000, Note_on_c, 3, 51, 69
9, 417000, Note_on_c, 3, 48, 69
9, 417089, Note_on_c, 3, 51, 0
9, 417089, Note_on_c, 3, 48, 0
9, 417120, Note_on_c, 3, 50, 70
9, 417120, Note_on_c, 3, 46, 70
9, 417209, Note_on_c, 3, 50, 0
9, 417209, Note_on_c, 3, 46, 0
9, 417240, Note_on_c, 3, 58, 72
9, 417329, Note_on_c, 3, 58, 0
9, 417360, Note_on_c, 3, 58, 73
9, 417449, Note_on_c, 3, 58, 0
9, 417480, Note_on_c, 3, 58, 74
9, 417569, Note_on_c, 3, 58, 0
9, 417600, Note_on_c, 3, 58, 76
9, 417600, Note_on_c, 3, 51, 76
9, 417839, Note_on_c, 3, 58, 0
9, 417839, Note_on_c, 3, 51, 0
9, 417840, Note_on_c, 3, 58, 76
9, 417840, Note_on_c, 3, 55, 76
9, 418079, Note_on_c, 3, 58, 0
9, 418079, Note_on_c, 3, 55, 0
9, 418080, Note_on_c, 3, 58, 76
9, 418080, Note_on_c, 3, 55, 76
9, 418319, Note_on_c, 3, 58, 0
9, 418319, Note_on_c, 3, 55, 0
9, 418320, Note_on_c, 3, 58, 76
9, 418320, Note_on_c, 3, 55, 76
9, 418799, Note_on_c, 3, 58, 0
9, 418799, Note_on_c, 3, 55, 0
9, 418800, Note_on_c, 3, 58, 76
9, 418800, Note_on_c, 3, 55, 76
9, 419024, Note_on_c, 3, 58, 0
9, 419024, Note_on_c, 3, 55, 0
9, 419040, Note_on_c, 3, 58, 76
9, 419040, Note_on_c, 3, 55, 76
9, 419264, Note_on_c, 3, 58, 0
9, 419264, Note_on_c, 3, 55, 0
9, 419280, Note_on_c, 3, 58, 76
9, 419280, Note_on_c, 3, 55, 76
9, 419504, Note_on_c, 3, 58, 0
9, 419504, Note_on_c, 3, 55, 0
9, 419520, Note_on_c, 3, 58, 76
9, 419520, Note_on_c, 3, 55, 76
9, 419744, Note_on_c, 3, 58, 0
9, 419744, Note_on_c, 3, 55, 0
9, 419760, Note_on_c, 3, 58, 76
9, 419760, Note_on_c, 3, 55, 76
9, 420224, Note_on_c, 3, 58, 0
9, 420224, Note_on_c, 3, 55, 0
9, 420240, Note_on_c, 3, 61, 84
9, 420240, Note_on_c, 3, 55, 84
9, 420464, Note_on_c, 3, 61, 0
9, 420464, Note_on_c, 3, 55, 0
9, 420480, Note_on_c, 3, 60, 76
9, 420480, Note_on_c, 3, 56, 76
9, 420704, Note_on_c, 3, 60, 0
9, 420704, Note_on_c, 3, 56, 0
9, 420720, Note_on_c, 3, 60, 76
9, 420720, Note_on_c, 3, 56, 76
9, 420944, Note_on_c, 3, 60, 0
9, 420944, Note_on_c, 3, 56, 0
9, 420960, Note_on_c, 3, 60, 76
9, 420960, Note_on_c, 3, 56, 76
9, 421184, Note_on_c, 3, 60, 0
9, 421184, Note_on_c, 3, 56, 0
9, 421200, Note_on_c, 3, 60, 76
9, 421200, Note_on_c, 3, 56, 76
9, 421664, Note_on_c, 3, 60, 0
9, 421664, Note_on_c, 3, 56, 0
9, 421680, Note_on_c, 3, 60, 84
9, 421680, Note_on_c, 3, 57, 84
9, 421904, Note_on_c, 3, 60, 0
9, 421904, Note_on_c, 3, 57, 0
9, 421920, Note_on_c, 3, 61, 80
9, 421920, Note_on_c, 3, 58, 80
9, 422624, Note_on_c, 3, 61, 0
9, 422624, Note_on_c, 3, 58, 0
9, 422640, Note_on_c, 3, 63, 80
9, 422640, Note_on_c, 3, 60, 80
9, 423344, Note_on_c, 3, 63, 0
9, 423344, Note_on_c, 3, 60, 0
9, 423360, Note_on_c, 3, 62, 80
9, 423360, Note_on_c, 3, 59, 80
9, 424304, Note_on_c, 3, 62, 0
9, 424304, Note_on_c, 3, 59, 0
9, 424320, Note_on_c, 3, 62, 80
9, 424320, Note_on_c, 3, 58, 80
9, 424544, Note_on_c, 3, 62, 0
9, 424544, Note_on_c, 3, 58, 0
9, 424560, Note_on_c, 3, 65, 80
9, 424560, Note_on_c, 3, 58, 80
9, 424784, Note_on_c, 3, 65, 0
9, 424784, Note_on_c, 3, 58, 0
9, 424800, Note_on_c, 3, 63, 84
9, 424800, Note_on_c, 3, 58, 84
9, 425264, Note_on_c, 3, 63, 0
9, 425264, Note_on_c, 3, 58, 0
9, 425280, Note_on_c, 3, 63, 92
9, 425280, Note_on_c, 3, 58, 92
9, 425504, Note_on_c, 3, 63, 0
9, 425504, Note_on_c, 3, 58, 0
9, 425520, Note_on_c, 3, 63, 84
9, 425520, Note_on_c, 3, 58, 84
9, 425984, Note_on_c, 3, 63, 0
9, 425984, Note_on_c, 3, 58, 0
9, 426000, Note_on_c, 3, 63, 92
9, 426000, Note_on_c, 3, 58, 92
9, 426464, Note_on_c, 3, 63, 0
9, 426464, Note_on_c, 3, 58, 0
9, 426480, Note_on_c, 3, 63, 84
9, 426480, Note_on_c, 3, 58, 84
9, 426704, Note_on_c, 3, 63, 0
9, 426704, Note_on_c, 3, 58, 0
9, 426720, Note_on_c, 3, 63, 84
9, 426720, Note_on_c, 3, 58, 84
9, 426944, Note_on_c, 3, 63, 0
9, 426944, Note_on_c, 3, 58, 0
9, 426960, Note_on_c, 3, 63, 84
9, 426960, Note_on_c, 3, 58, 84
9, 427424, Note_on_c, 3, 63, 0
9, 427424, Note_on_c, 3, 58, 0
9, 427440, Note_on_c, 3, 63, 84
9, 427440, Note_on_c, 3, 59, 84
9, 427679, Note_on_c, 3, 59, 0
9, 427680, Note_on_c, 3, 60, 84
9, 427904, Note_on_c, 3, 63, 0
9, 427904, Note_on_c, 3, 60, 0
9, 427920, Note_on_c, 3, 63, 84
9, 427920, Note_on_c, 3, 60, 84
9, 428144, Note_on_c, 3, 63, 0
9, 428144, Note_on_c, 3, 60, 0
9, 428160, Note_on_c, 3, 63, 84
9, 428160, Note_on_c, 3, 60, 84
9, 428384, Note_on_c, 3, 63, 0
9, 428384, Note_on_c, 3, 60, 0
9, 428400, Note_on_c, 3, 63, 84
9, 428400, Note_on_c, 3, 60, 84
9, 428864, Note_on_c, 3, 63, 0
9, 428864, Note_on_c, 3, 60, 0
9, 428880, Note_on_c, 3, 60, 92
9, 428880, Note_on_c, 3, 58, 92
9, 429104, Note_on_c, 3, 60, 0
9, 429104, Note_on_c, 3, 58, 0
9, 429120, Note_on_c, 3, 60, 84
9, 429120, Note_on_c, 3, 56, 84
9, 429824, Note_on_c, 3, 60, 0
9, 429824, Note_on_c, 3, 56, 0
9, 429840, Note_on_c, 3, 60, 84
9, 429840, Note_on_c, 3, 57, 84
9, 430544, Note_on_c, 3, 60, 0
9, 430544, Note_on_c, 3, 57, 0
9, 430560, Note_on_c, 3, 62, 84
9, 430560, Note_on_c, 3, 58, 84
9, 430799, Note_on_c, 3, 62, 0
9, 430799, Note_on_c, 3, 58, 0
9, 436560, Note_on_c, 3, 59, 68
9, 436919, Note_on_c, 3, 59, 0
9, 436920, Note_on_c, 3, 58, 52
9, 437039, Note_on_c, 3, 58, 0
9, 437040, Note_on_c, 3, 56, 52
9, 437264, Note_on_c, 3, 56, 0
9, 437280, Note_on_c, 3, 59, 68
9, 437639, Note_on_c, 3, 59, 0
9, 437640, Note_on_c, 3, 58, 52
9, 437759, Note_on_c, 3, 58, 0
9, 437760, Note_on_c, 3, 56, 52
9, 437999, Note_on_c, 3, 56, 0
9, 438960, Control_c, 3, 11, 96
9, 439200, Note_on_c, 3, 63, 68
9, 439200, Control_c, 3, 11, 96
9, 439260, Control_c, 3, 11, 99
9, 439320, Control_c, 3, 11, 101
9, 439380, Control_c, 3, 11, 104
9, 439440, Control_c, 3, 11, 106
9, 439500, Control_c, 3, 11, 109
9, 439560, Control_c, 3, 11, 112
9, 439620, Control_c, 3, 11, 114
9, 439680, Control_c, 3, 11, 117
9, 439680, Note_on_c, 3, 62, 68
9, 439740, Control_c, 3, 11, 119
9, 439799, Note_on_c, 3, 62, 0
9, 439800, Control_c, 3, 11, 122
9, 439800, Note_on_c, 3, 61, 68
9, 439860, Control_c, 3, 11, 124
9, 439919, Note_on_c, 3, 61, 0
9, 439920, Note_on_c, 3, 60, 68
9, 439920, Control_c, 3, 11, 127
9, 439980, Control_c, 3, 11, 124
9, 440040, Control_c, 3, 11, 122
9, 440100, Control_c, 3, 11, 119
9, 440159, Note_on_c, 3, 63, 0
9, 440159, Note_on_c, 3, 60, 0
9, 440160, Note_on_c, 3, 62, 68
9, 440160, Note_on_c, 3, 58, 68
9, 440160, Control_c, 3, 11, 117
9, 440220, Control_c, 3, 11, 114
9, 440280, Control_c, 3, 11, 112
9, 440340, Control_c, 3, 11, 109
9, 440399, Note_on_c, 3, 62, 0
9, 440399, Note_on_c, 3, 58, 0
9, 440400, Note_on_c, 3, 60, 68
9, 440400, Control_c, 3, 11, 106
9, 440400, Note_on_c, 3, 56, 68
9, 440460, Control_c, 3, 11, 104
9, 440520, Control_c, 3, 11, 101
9, 440580, Control_c, 3, 11, 96
9, 440624, Note_on_c, 3, 60, 0
9, 440624, Note_on_c, 3, 56, 0
9, 440640, Note_on_c, 3, 58, 68
9, 440640, Note_on_c, 3, 55, 68
9, 441119, Note_on_c, 3, 58, 0
9, 441119, Note_on_c, 3, 55, 0
9, 441120, Note_on_c, 3, 56, 68
9, 441120, Note_on_c, 3, 53, 68
9, 441239, Note_on_c, 3, 56, 0
9, 441239, Note_on_c, 3, 53, 0
9, 441240, Note_on_c, 3, 55, 68
9, 441240, Note_on_c, 3, 51, 68
9, 441344, Note_on_c, 3, 55, 0
9, 441344, Note_on_c, 3, 51, 0
9, 441360, Note_on_c, 3, 53, 68
9, 441360, Note_on_c, 3, 50, 68
9, 441569, Note_on_c, 3, 53, 0
9, 441569, Note_on_c, 3, 50, 0
9, 441600, Note_on_c, 3, 58, 68
9, 441600, Note_on_c, 3, 50, 68
9, 441809, Note_on_c, 3, 58, 0
9, 441809, Note_on_c, 3, 50, 0
9, 441840, Note_on_c, 3, 58, 68
9, 441840, Note_on_c, 3, 50, 68
9, 442049, Note_on_c, 3, 58, 0
9, 442049, Note_on_c, 3, 50, 0
9, 442080, Note_on_c, 3, 58, 68
9, 442080, Note_on_c, 3, 51, 68
9, 442319, Note_on_c, 3, 58, 0
9, 442319, Note_on_c, 3, 51, 0
9, 444720, Control_c, 3, 11, 127
9, 444960, Note_on_c, 3, 59, 76
9, 444960, Note_on_c, 3, 47, 76
9, 445139, Note_on_c, 3, 59, 0
9, 445139, Note_on_c, 3, 47, 0
9, 445200, Note_on_c, 3, 62, 76
9, 445200, Note_on_c, 3, 59, 76
9, 445379, Note_on_c, 3, 62, 0
9, 445379, Note_on_c, 3, 59, 0
9, 446280, Note_on_c, 3, 59, 76
9, 446280, Note_on_c, 3, 47, 76
9, 446384, Note_on_c, 3, 59, 0
9, 446384, Note_on_c, 3, 47, 0
9, 446400, Note_on_c, 3, 60, 76
9, 446400, Note_on_c, 3, 48, 76
9, 446579, Note_on_c, 3, 60, 0
9, 446579, Note_on_c, 3, 48, 0
9, 446640, Note_on_c, 3, 60, 76
9, 446819, Note_on_c, 3, 60, 0
9, 447720, Note_on_c, 3, 60, 76
9, 447720, Note_on_c, 3, 48, 76
9, 447824, Note_on_c, 3, 60, 0
9, 447824, Note_on_c, 3, 48, 0
9, 447840, Note_on_c, 3, 58, 76
9, 447840, Note_on_c, 3, 46, 76
9, 448019, Note_on_c, 3, 58, 0
9, 448019, Note_on_c, 3, 46, 0
9, 448080, Note_on_c, 3, 61, 76
9, 448080, Note_on_c, 3, 58, 76
9, 448259, Note_on_c, 3, 61, 0
9, 448259, Note_on_c, 3, 58, 0
9, 449160, Note_on_c, 3, 58, 76
9, 449160, Note_on_c, 3, 46, 76
9, 449249, Note_on_c, 3, 58, 0
9, 449249, Note_on_c, 3, 46, 0
9, 449280, Note_on_c, 3, 56, 76
9, 449280, Note_on_c, 3, 44, 76
9, 449369, Note_on_c, 3, 56, 0
9, 449369, Note_on_c, 3, 44, 0
9, 449400, Note_on_c, 3, 44, 76
9, 449624, Note_on_c, 3, 44, 0
9, 449640, Note_on_c, 3, 45, 76
9, 449729, Note_on_c, 3, 45, 0
9, 449760, Note_on_c, 3, 46, 76
9, 449849, Note_on_c, 3, 46, 0
9, 449880, Note_on_c, 3, 47, 76
9, 449969, Note_on_c, 3, 47, 0
9, 450000, Note_on_c, 3, 48, 76
9, 450089, Note_on_c, 3, 48, 0
9, 450120, Note_on_c, 3, 48, 76
9, 450344, Note_on_c, 3, 48, 0
9, 450360, Note_on_c, 3, 48, 76
9, 450449, Note_on_c, 3, 48, 0
9, 450480, Note_on_c, 3, 50, 76
9, 450569, Note_on_c, 3, 50, 0
9, 450600, Note_on_c, 3, 50, 76
9, 450689, Note_on_c, 3, 50, 0
9, 450720, Note_on_c, 3, 51, 76
9, 450824, Note_on_c, 3, 51, 0
9, 450840, Note_on_c, 3, 51, 76
9, 450944, Note_on_c, 3, 51, 0
9, 450960, Note_on_c, 3, 61, 76
9, 451199, Note_on_c, 3, 61, 0
9, 451200, Note_on_c, 3, 60, 76
9, 451424, Note_on_c, 3, 60, 0
9, 451440, Note_on_c, 3, 59, 76
9, 451679, Note_on_c, 3, 59, 0
9, 451680, Note_on_c, 3, 58, 76
9, 451919, Note_on_c, 3, 58, 0
9, 451920, Note_on_c, 3, 55, 76
9, 452144, Note_on_c, 3, 55, 0
9, 452160, Note_on_c, 3, 56, 76
9, 452384, Note_on_c, 3, 56, 0
9, 452400, Note_on_c, 3, 60, 76
9, 452400, Note_on_c, 3, 63, 76
9, 452639, Note_on_c, 3, 63, 0
9, 452640, Note_on_c, 3, 64, 76
9, 452879, Note_on_c, 3, 64, 0
9, 452880, Note_on_c, 3, 65, 76
9, 452969, Note_on_c, 3, 60, 0
9, 452969, Note_on_c, 3, 65, 0
9, 453000, Note_on_c, 3, 60, 76
9, 453224, Note_on_c, 3, 60, 0
9, 453240, Note_on_c, 3, 60, 76
9, 453359, Note_on_c, 3, 60, 0
9, 453360, Note_on_c, 3, 64, 76
9, 453360, Note_on_c, 3, 58, 76
9, 453479, Note_on_c, 3, 64, 0
9, 453479, Note_on_c, 3, 58, 0
9, 453480, Note_on_c, 3, 65, 76
9, 453480, Note_on_c, 3, 56, 76
9, 453584, Note_on_c, 3, 65, 0
9, 453584, Note_on_c, 3, 56, 0
9, 453600, Note_on_c, 3, 63, 76
9, 453600, Note_on_c, 3, 55, 76
9, 453719, Note_on_c, 3, 63, 0
9, 453719, Note_on_c, 3, 55, 0
9, 453720, Note_on_c, 3, 58, 76
9, 453839, Note_on_c, 3, 58, 0
9, 453840, Note_on_c, 3, 57, 76
9, 453959, Note_on_c, 3, 57, 0
9, 453960, Note_on_c, 3, 56, 76
9, 454079, Note_on_c, 3, 56, 0
9, 454080, Note_on_c, 3, 55, 76
9, 454199, Note_on_c, 3, 55, 0
9, 454200, Note_on_c, 3, 53, 76
9, 454304, Note_on_c, 3, 53, 0
9, 454320, Note_on_c, 3, 51, 76
9, 454559, Note_on_c, 3, 51, 0
9, 456480, Note_on_c, 3, 58, 84
9, 456569, Note_on_c, 3, 58, 0
9, 456600, Note_on_c, 3, 57, 84
9, 456689, Note_on_c, 3, 57, 0
9, 456720, Note_on_c, 3, 56, 84
9, 456809, Note_on_c, 3, 56, 0
9, 456840, Note_on_c, 3, 55, 84
9, 456929, Note_on_c, 3, 55, 0
9, 456960, Note_on_c, 3, 53, 84
9, 457049, Note_on_c, 3, 53, 0
9, 457080, Note_on_c, 3, 51, 84
9, 457169, Note_on_c, 3, 51, 0
9, 457200, Note_on_c, 3, 50, 84
9, 457289, Note_on_c, 3, 50, 0
9, 457320, Note_on_c, 3, 48, 84
9, 457409, Note_on_c, 3, 48, 0
9, 457440, Note_on_c, 3, 46, 84
9, 457529, Note_on_c, 3, 46, 0
9, 457560, Note_on_c, 3, 44, 84
9, 457649, Note_on_c, 3, 44, 0
9, 457680, Note_on_c, 3, 43, 84
9, 457769, Note_on_c, 3, 43, 0
9, 457800, Note_on_c, 3, 41, 84
9, 457889, Note_on_c, 3, 41, 0
9, 457920, Note_on_c, 3, 39, 84
9, 458129, Note_on_c, 3, 39, 0
9, 458145, Control_c, 3, 11, 96
9, 458160, Note_on_c, 3, 67, 68
9, 458160, Note_on_c, 3, 63, 68
9, 458369, Note_on_c, 3, 67, 0
9, 458369, Note_on_c, 3, 63, 0
9, 458400, Note_on_c, 3, 67, 68
9, 458400, Note_on_c, 3, 63, 68
9, 458609, Note_on_c, 3, 67, 0
9, 458609, Note_on_c, 3, 63, 0
9, 458640, Note_on_c, 3, 67, 68
9, 458640, Note_on_c, 3, 63, 68
9, 458640, Control_c, 3, 11, 96
9, 458740, Control_c, 3, 11, 99
9, 458840, Control_c, 3, 11, 101
9, 458849, Note_on_c, 3, 67, 0
9, 458849, Note_on_c, 3, 63, 0
9, 458880, Note_on_c, 3, 63, 68
9, 458880, Note_on_c, 3, 67, 68
9, 458940, Control_c, 3, 11, 104
9, 459040, Control_c, 3, 11, 106
9, 459089, Note_on_c, 3, 63, 0
9, 459089, Note_on_c, 3, 67, 0
9, 459120, Note_on_c, 3, 63, 68
9, 459120, Note_on_c, 3, 67, 68
9, 459140, Control_c, 3, 11, 109
9, 459240, Control_c, 3, 11, 112
9, 459329, Note_on_c, 3, 63, 0
9, 459329, Note_on_c, 3, 67, 0
9, 459340, Control_c, 3, 11, 114
9, 459360, Note_on_c, 3, 67, 68
9, 459360, Note_on_c, 3, 63, 68
9, 459440, Control_c, 3, 11, 117
9, 459540, Control_c, 3, 11, 119
9, 459569, Note_on_c, 3, 67, 0
9, 459569, Note_on_c, 3, 63, 0
9, 459600, Note_on_c, 3, 67, 68
9, 459600, Note_on_c, 3, 63, 68
9, 459640, Control_c, 3, 11, 122
9, 459740, Control_c, 3, 11, 127
9, 459809, Note_on_c, 3, 67, 0
9, 459809, Note_on_c, 3, 63, 0
9, 459840, Note_on_c, 3, 63, 76
9, 459840, Note_on_c, 3, 56, 76
9, 460080, Control_c, 3, 11, 112
9, 460140, Control_c, 3, 11, 109
9, 460200, Control_c, 3, 11, 107
9, 460260, Control_c, 3, 11, 104
9, 460319, Note_on_c, 3, 63, 0
9, 460320, Note_on_c, 3, 64, 76
9, 460320, Control_c, 3, 11, 101
9, 460380, Control_c, 3, 11, 99
9, 460440, Control_c, 3, 11, 96
9, 460500, Control_c, 3, 11, 93
9, 460559, Note_on_c, 3, 56, 0
9, 460559, Note_on_c, 3, 64, 0
9, 460560, Note_on_c, 3, 65, 76
9, 460560, Control_c, 3, 11, 91
9, 460620, Control_c, 3, 11, 88
9, 460680, Control_c, 3, 11, 85
9, 460740, Control_c, 3, 11, 80
9, 460799, Note_on_c, 3, 65, 0
9, 462240, Control_c, 3, 11, 127
9, 462720, Note_on_c, 3, 60, 76
9, 462960, Control_c, 3, 11, 112
9, 463020, Control_c, 3, 11, 109
9, 463080, Control_c, 3, 11, 107
9, 463140, Control_c, 3, 11, 104
9, 463199, Note_on_c, 3, 60, 0
9, 463200, Control_c, 3, 11, 101
9, 463200, Note_on_c, 3, 58, 76
9, 463260, Control_c, 3, 11, 99
9, 463319, Note_on_c, 3, 58, 0
9, 463320, Note_on_c, 3, 56, 76
9, 463320, Control_c, 3, 11, 96
9, 463380, Control_c, 3, 11, 93
9, 463439, Note_on_c, 3, 56, 0
9, 463440, Note_on_c, 3, 55, 76
9, 463440, Control_c, 3, 11, 91
9, 463500, Control_c, 3, 11, 88
9, 463559, Note_on_c, 3, 55, 0
9, 463560, Control_c, 3, 11, 85
9, 463560, Note_on_c, 3, 53, 76
9, 463620, Control_c, 3, 11, 80
9, 463679, Note_on_c, 3, 53, 0
9, 463680, Note_on_c, 3, 51, 76
9, 463889, Note_on_c, 3, 51, 0
9, 463905, Control_c, 3, 11, 96
9, 463920, Note_on_c, 3, 63, 68
9, 463920, Note_on_c, 3, 66, 68
9, 464129, Note_on_c, 3, 63, 0
9, 464129, Note_on_c, 3, 66, 0
9, 464160, Note_on_c, 3, 63, 68
9, 464160, Note_on_c, 3, 66, 68
9, 464369, Note_on_c, 3, 63, 0
9, 464369, Note_on_c, 3, 66, 0
9, 464400, Note_on_c, 3, 63, 68
9, 464400, Control_c, 3, 11, 96
9, 464400, Note_on_c, 3, 66, 68
9, 464520, Control_c, 3, 11, 99
9, 464609, Note_on_c, 3, 63, 0
9, 464609, Note_on_c, 3, 66, 0
9, 464640, Control_c, 3, 11, 101
9, 464640, Note_on_c, 3, 66, 68
9, 464640, Note_on_c, 3, 63, 68
9, 464760, Control_c, 3, 11, 104
9, 464849, Note_on_c, 3, 66, 0
9, 464849, Note_on_c, 3, 63, 0
9, 464880, Note_on_c, 3, 66, 68
9, 464880, Control_c, 3, 11, 106
9, 464880, Note_on_c, 3, 63, 68
9, 465000, Control_c, 3, 11, 109
9, 465089, Note_on_c, 3, 66, 0
9, 465089, Note_on_c, 3, 63, 0
9, 465120, Control_c, 3, 11, 112
9, 465120, Note_on_c, 3, 63, 68
9, 465120, Note_on_c, 3, 66, 68
9, 465240, Control_c, 3, 11, 114
9, 465329, Note_on_c, 3, 63, 0
9, 465329, Note_on_c, 3, 66, 0
9, 465360, Note_on_c, 3, 66, 68
9, 465360, Control_c, 3, 11, 117
9, 465360, Note_on_c, 3, 61, 68
9, 465480, Control_c, 3, 11, 119
9, 465569, Note_on_c, 3, 66, 0
9, 465569, Note_on_c, 3, 61, 0
9, 465600, Control_c, 3, 11, 122
9, 465600, Note_on_c, 3, 66, 68
9, 465600, Note_on_c, 3, 61, 68
9, 465720, Control_c, 3, 11, 127
9, 465809, Note_on_c, 3, 66, 0
9, 465809, Note_on_c, 3, 61, 0
9, 465840, Note_on_c, 3, 66, 76
9, 465840, Note_on_c, 3, 61, 76
9, 465960, Control_c, 3, 11, 112
9, 466010, Control_c, 3, 11, 109
9, 466060, Control_c, 3, 11, 107
9, 466110, Control_c, 3, 11, 104
9, 466160, Control_c, 3, 11, 101
9, 466210, Control_c, 3, 11, 99
9, 466260, Control_c, 3, 11, 96
9, 466310, Control_c, 3, 11, 93
9, 466319, Note_on_c, 3, 66, 0
9, 466320, Note_on_c, 3, 65, 76
9, 466360, Control_c, 3, 11, 91
9, 466410, Control_c, 3, 11, 88
9, 466460, Control_c, 3, 11, 85
9, 466510, Control_c, 3, 11, 80
9, 466559, Note_on_c, 3, 61, 0
9, 466559, Note_on_c, 3, 65, 0
9, 468720, Control_c, 3, 11, 96
9, 468960, Note_on_c, 3, 53, 68
9, 468960, Note_on_c, 3, 60, 68
9, 468960, Control_c, 3, 11, 96
9, 469000, Control_c, 3, 11, 101
9, 469040, Control_c, 3, 11, 106
9, 469080, Control_c, 3, 11, 112
9, 469120, Control_c, 3, 11, 117
9, 469160, Control_c, 3, 11, 122
9, 469169, Note_on_c, 3, 53, 0
9, 469169, Note_on_c, 3, 60, 0
9, 469200, Note_on_c, 3, 53, 68
9, 469200, Note_on_c, 3, 60, 68
9, 469200, Control_c, 3, 11, 127
9, 469240, Control_c, 3, 11, 122
9, 469280, Control_c, 3, 11, 117
9, 469320, Control_c, 3, 11, 112
9, 469360, Control_c, 3, 11, 106
9, 469400, Control_c, 3, 11, 96
9, 469409, Note_on_c, 3, 53, 0
9, 469409, Note_on_c, 3, 60, 0
9, 469440, Note_on_c, 3, 46, 68
9, 469440, Note_on_c, 3, 58, 68
9, 469679, Note_on_c, 3, 46, 0
9, 469679, Note_on_c, 3, 58, 0
9, 475920, Control_c, 3, 11, 127
9, 476280, Note_on_c, 3, 56, 70
9, 476280, Note_on_c, 3, 60, 70
9, 476369, Note_on_c, 3, 56, 0
9, 476369, Note_on_c, 3, 60, 0
9, 476400, Note_on_c, 3, 55, 72
9, 476400, Note_on_c, 3, 58, 72
9, 476489, Note_on_c, 3, 55, 0
9, 476489, Note_on_c, 3, 58, 0
9, 476520, Note_on_c, 3, 56, 74
9, 476520, Note_on_c, 3, 53, 74
9, 476609, Note_on_c, 3, 56, 0
9, 476609, Note_on_c, 3, 53, 0
9, 476640, Note_on_c, 3, 55, 76
9, 476640, Note_on_c, 3, 51, 76
9, 476864, Note_on_c, 3, 55, 0
9, 476864, Note_on_c, 3, 51, 0
9, 476880, Note_on_c, 3, 55, 84
9, 476880, Note_on_c, 3, 63, 84
9, 477329, Note_on_c, 3, 55, 0
9, 477329, Note_on_c, 3, 63, 0
9, 477600, Note_on_c, 3, 63, 84
9, 477600, Note_on_c, 3, 55, 84
9, 478049, Note_on_c, 3, 63, 0
9, 478049, Note_on_c, 3, 55, 0
9, 478320, Note_on_c, 3, 62, 84
9, 478320, Note_on_c, 3, 56, 84
9, 478769, Note_on_c, 3, 62, 0
9, 478769, Note_on_c, 3, 56, 0
9, 479040, Note_on_c, 3, 56, 84
9, 479040, Note_on_c, 3, 65, 84
9, 479249, Note_on_c, 3, 56, 0
9, 479249, Note_on_c, 3, 65, 0
9, 479280, Note_on_c, 3, 53, 76
9, 479280, Note_on_c, 3, 56, 76
9, 479504, Note_on_c, 3, 53, 0
9, 479504, Note_on_c, 3, 56, 0
9, 479520, Note_on_c, 3, 51, 84
9, 479520, Note_on_c, 3, 55, 84
9, 479759, Note_on_c, 3, 51, 0
9, 479759, Note_on_c, 3, 55, 0
9, 480960, Note_on_c, 3, 53, 84
9, 481139, Note_on_c, 3, 53, 0
9, 481200, Note_on_c, 3, 56, 92
9, 481544, Note_on_c, 3, 56, 0
9, 481560, Note_on_c, 3, 46, 84
9, 481664, Note_on_c, 3, 46, 0
9, 481680, Note_on_c, 3, 62, 84
9, 481680, Note_on_c, 3, 50, 84
9, 481904, Note_on_c, 3, 62, 0
9, 481904, Note_on_c, 3, 50, 0
9, 481920, Note_on_c, 3, 53, 92
9, 481920, Note_on_c, 3, 65, 92
9, 482264, Note_on_c, 3, 53, 0
9, 482264, Note_on_c, 3, 65, 0
9, 482280, Note_on_c, 3, 46, 84
9, 482280, Note_on_c, 3, 58, 84
9, 482384, Note_on_c, 3, 46, 0
9, 482384, Note_on_c, 3, 58, 0
9, 482400, Note_on_c, 3, 55, 84
9, 482400, Note_on_c, 3, 67, 84
9, 482999, Note_on_c, 3, 55, 0
9, 482999, Note_on_c, 3, 67, 0
9, 483000, Note_on_c, 3, 54, 84
9, 483000, Note_on_c, 3, 66, 84
9, 483119, Note_on_c, 3, 54, 0
9, 483119, Note_on_c, 3, 66, 0
9, 483120, Note_on_c, 3, 55, 84
9, 483120, Note_on_c, 3, 67, 84
9, 483359, Note_on_c, 3, 55, 0
9, 483359, Note_on_c, 3, 67, 0
9, 485880, Note_on_c, 3, 62, 84
9, 485880, Note_on_c, 3, 65, 84
9, 485984, Note_on_c, 3, 62, 0
9, 485984, Note_on_c, 3, 65, 0
9, 486000, Note_on_c, 3, 63, 84
9, 486000, Note_on_c, 3, 60, 84
9, 486089, Note_on_c, 3, 63, 0
9, 486089, Note_on_c, 3, 60, 0
9, 486120, Note_on_c, 3, 65, 84
9, 486120, Note_on_c, 3, 62, 84
9, 486209, Note_on_c, 3, 65, 0
9, 486209, Note_on_c, 3, 62, 0
9, 486240, Note_on_c, 3, 60, 84
9, 486240, Note_on_c, 3, 63, 84
9, 486329, Note_on_c, 3, 60, 0
9, 486329, Note_on_c, 3, 63, 0
9, 486360, Note_on_c, 3, 60, 84
9, 486360, Note_on_c, 3, 58, 84
9, 486449, Note_on_c, 3, 60, 0
9, 486449, Note_on_c, 3, 58, 0
9, 486480, Note_on_c, 3, 60, 84
9, 486480, Note_on_c, 3, 57, 84
9, 486569, Note_on_c, 3, 60, 0
9, 486569, Note_on_c, 3, 57, 0
9, 486600, Note_on_c, 3, 56, 84
9, 486600, Note_on_c, 3, 60, 84
9, 486689, Note_on_c, 3, 56, 0
9, 486689, Note_on_c, 3, 60, 0
9, 486720, Note_on_c, 3, 55, 84
9, 486720, Note_on_c, 3, 59, 84
9, 486899, Note_on_c, 3, 55, 0
9, 486899, Note_on_c, 3, 59, 0
9, 486960, Note_on_c, 3, 59, 84
9, 486960, Note_on_c, 3, 62, 84
9, 487139, Note_on_c, 3, 59, 0
9, 487139, Note_on_c, 3, 62, 0
9, 487200, Note_on_c, 3, 60, 84
9, 487200, Note_on_c, 3, 63, 84
9, 487379, Note_on_c, 3, 60, 0
9, 487379, Note_on_c, 3, 63, 0
9, 487680, Note_on_c, 3, 55, 84
9, 487680, Note_on_c, 3, 58, 84
9, 487859, Note_on_c, 3, 55, 0
9, 487859, Note_on_c, 3, 58, 0
9, 487920, Note_on_c, 3, 56, 84
9, 487920, Note_on_c, 3, 60, 84
9, 488099, Note_on_c, 3, 56, 0
9, 488099, Note_on_c, 3, 60, 0
9, 488400, Note_on_c, 3, 60, 84
9, 488400, Note_on_c, 3, 57, 84
9, 488579, Note_on_c, 3, 60, 0
9, 488579, Note_on_c, 3, 57, 0
9, 488640, Note_on_c, 3, 62, 84
9, 488640, Note_on_c, 3, 58, 84
9, 488819, Note_on_c, 3, 62, 0
9, 488819, Note_on_c, 3, 58, 0
9, 489120, Note_on_c, 3, 59, 84
9, 489120, Note_on_c, 3, 62, 84
9, 489299, Note_on_c, 3, 59, 0
9, 489299, Note_on_c, 3, 62, 0
9, 489360, Note_on_c, 3, 63, 84
9, 489360, Note_on_c, 3, 60, 84
9, 489539, Note_on_c, 3, 63, 0
9, 489539, Note_on_c, 3, 60, 0
9, 489840, Note_on_c, 3, 58, 84
9, 489840, Note_on_c, 3, 55, 84
9, 490019, Note_on_c, 3, 58, 0
9, 490019, Note_on_c, 3, 55, 0
9, 490080, Note_on_c, 3, 56, 84
9, 490080, Note_on_c, 3, 60, 84
9, 490259, Note_on_c, 3, 56, 0
9, 490259, Note_on_c, 3, 60, 0
9, 490560, Note_on_c, 3, 57, 92
9, 490560, Note_on_c, 3, 60, 92
9, 490739, Note_on_c, 3, 57, 0
9, 490739, Note_on_c, 3, 60, 0
9, 491040, Note_on_c, 3, 57, 92
9, 491040, Note_on_c, 3, 60, 92
9, 491219, Note_on_c, 3, 57, 0
9, 491219, Note_on_c, 3, 60, 0
9, 491520, Note_on_c, 3, 57, 92
9, 491520, Note_on_c, 3, 60, 92
9, 491699, Note_on_c, 3, 57, 0
9, 491699, Note_on_c, 3, 60, 0
9, 492000, Note_on_c, 3, 57, 92
9, 492000, Note_on_c, 3, 60, 92
9, 492179, Note_on_c, 3, 57, 0
9, 492179, Note_on_c, 3, 60, 0
9, 492480, Note_on_c, 3, 57, 92
9, 492480, Note_on_c, 3, 60, 92
9, 492659, Note_on_c, 3, 57, 0
9, 492659, Note_on_c, 3, 60, 0
9, 492960, Note_on_c, 3, 60, 92
9, 492960, Note_on_c, 3, 57, 92
9, 493139, Note_on_c, 3, 60, 0
9, 493139, Note_on_c, 3, 57, 0
9, 493920, Note_on_c, 3, 54, 68
9, 493920, Note_on_c, 3, 47, 68
9, 494040, Control_c, 3, 11, 96
9, 494639, Note_on_c, 3, 54, 0
9, 494640, Note_on_c, 3, 55, 68
9, 495329, Note_on_c, 3, 47, 0
9, 495329, Note_on_c, 3, 55, 0
9, 495345, Control_c, 3, 11, 127
9, 495360, Note_on_c, 3, 48, 68
9, 495360, Note_on_c, 3, 54, 68
9, 495480, Control_c, 3, 11, 96
9, 496544, Note_on_c, 3, 48, 0
9, 496544, Note_on_c, 3, 54, 0
9, 496560, Note_on_c, 3, 60, 68
9, 496560, Note_on_c, 3, 63, 68
9, 496739, Note_on_c, 3, 60, 0
9, 496739, Note_on_c, 3, 63, 0
9, 496800, Note_on_c, 3, 61, 68
9, 496800, Note_on_c, 3, 65, 68
9, 496979, Note_on_c, 3, 61, 0
9, 496979, Note_on_c, 3, 65, 0
9, 497265, Control_c, 3, 11, 127
9, 497280, Note_on_c, 3, 65, 52
9, 497280, Note_on_c, 3, 61, 52
9, 497459, Note_on_c, 3, 65, 0
9, 497459, Note_on_c, 3, 61, 0
9, 497760, Note_on_c, 3, 65, 52
9, 497760, Note_on_c, 3, 62, 52
9, 497939, Note_on_c, 3, 65, 0
9, 497939, Note_on_c, 3, 62, 0
9, 498240, Note_on_c, 3, 67, 52
9, 498240, Note_on_c, 3, 63, 52
9, 498419, Note_on_c, 3, 67, 0
9, 498419, Note_on_c, 3, 63, 0
9, 498720, Note_on_c, 3, 67, 52
9, 498720, Note_on_c, 3, 63, 52
9, 498899, Note_on_c, 3, 67, 0
9, 498899, Note_on_c, 3, 63, 0
9, 498945, Control_c, 3, 11, 64
9, 498960, Note_on_c, 3, 60, 84
9, 498960, Control_c, 3, 11, 64
9, 498960, Note_on_c, 3, 56, 84
9, 499050, Control_c, 3, 11, 67
9, 499140, Control_c, 3, 11, 69
9, 499230, Control_c, 3, 11, 72
9, 499320, Control_c, 3, 11, 75
9, 499410, Control_c, 3, 11, 77
9, 499500, Control_c, 3, 11, 80
9, 499590, Control_c, 3, 11, 82
9, 499680, Control_c, 3, 11, 85
9, 499770, Control_c, 3, 11, 88
9, 499860, Control_c, 3, 11, 90
9, 499950, Control_c, 3, 11, 93
9, 500024, Note_on_c, 3, 60, 0
9, 500024, Note_on_c, 3, 56, 0
9, 500040, Control_c, 3, 11, 96
9, 500040, Note_on_c, 3, 56, 84
9, 500040, Note_on_c, 3, 60, 84
9, 500130, Control_c, 3, 11, 98
9, 500159, Note_on_c, 3, 56, 0
9, 500159, Note_on_c, 3, 60, 0
9, 500160, Note_on_c, 3, 64, 84
9, 500160, Note_on_c, 3, 58, 84
9, 500220, Control_c, 3, 11, 101
9, 500279, Note_on_c, 3, 64, 0
9, 500279, Note_on_c, 3, 58, 0
9, 500280, Note_on_c, 3, 60, 84
9, 500280, Note_on_c, 3, 65, 84
9, 500310, Control_c, 3, 11, 103
9, 500384, Note_on_c, 3, 60, 0
9, 500384, Note_on_c, 3, 65, 0
9, 500400, Control_c, 3, 11, 106
9, 500400, Note_on_c, 3, 63, 84
9, 500400, Note_on_c, 3, 58, 84
9, 500489, Note_on_c, 3, 63, 0
9, 500489, Note_on_c, 3, 58, 0
9, 500490, Control_c, 3, 11, 109
9, 500520, Note_on_c, 3, 51, 84
9, 500580, Control_c, 3, 11, 111
9, 500609, Note_on_c, 3, 51, 0
9, 500640, Note_on_c, 3, 55, 84
9, 500640, Note_on_c, 3, 51, 84
9, 500670, Control_c, 3, 11, 114
9, 500729, Note_on_c, 3, 55, 0
9, 500729, Note_on_c, 3, 51, 0
9, 500760, Note_on_c, 3, 55, 84
9, 500760, Note_on_c, 3, 58, 84
9, 500760, Control_c, 3, 11, 117
9, 500849, Note_on_c, 3, 55, 0
9, 500849, Note_on_c, 3, 58, 0
9, 500850, Control_c, 3, 11, 119
9, 500880, Note_on_c, 3, 55, 84
9, 500880, Note_on_c, 3, 63, 84
9, 500940, Control_c, 3, 11, 122
9, 500969, Note_on_c, 3, 55, 0
9, 500969, Note_on_c, 3, 63, 0
9, 501000, Note_on_c, 3, 58, 84
9, 501000, Note_on_c, 3, 67, 84
9, 501030, Control_c, 3, 11, 127
9, 501089, Note_on_c, 3, 58, 0
9, 501089, Note_on_c, 3, 67, 0
9, 501120, Note_on_c, 3, 58, 84
9, 501120, Note_on_c, 3, 46, 84
9, 501824, Note_on_c, 3, 58, 0
9, 501824, Note_on_c, 3, 46, 0
9, 501840, Note_on_c, 3, 63, 76
9, 501840, Note_on_c, 3, 51, 76
9, 502079, Note_on_c, 3, 63, 0
9, 502079, Note_on_c, 3, 51, 0
9, 502560, Note_on_c, 3, 51, 76
9, 502560, Note_on_c, 3, 63, 76
9, 502799, Note_on_c, 3, 51, 0
9, 502799, Note_on_c, 3, 63, 0
9, 503280, Note_on_c, 3, 63, 76
9, 503280, Note_on_c, 3, 51, 76
9, 503519, Note_on_c, 3, 63, 0
9, 503519, Note_on_c, 3, 51, 0
9, 504000, Note_on_c, 3, 59, 76
9, 504000, Note_on_c, 3, 56, 76
9, 504179, Note_on_c, 3, 59, 0
9, 504179, Note_on_c, 3, 56, 0
9, 504240, Note_on_c, 3, 56, 76
9, 504240, Note_on_c, 3, 59, 76
9, 504419, Note_on_c, 3, 56, 0
9, 504419, Note_on_c, 3, 59, 0
9, 504480, Note_on_c, 3, 56, 76
9, 504480, Note_on_c, 3, 59, 76
9, 504659, Note_on_c, 3, 56, 0
9, 504659, Note_on_c, 3, 59, 0
9, 504720, Note_on_c, 3, 55, 76
9, 504720, Note_on_c, 3, 58, 76
9, 504959, Note_on_c, 3, 55, 0
9, 504959, Note_on_c, 3, 58, 0
9, 505800, Note_on_c, 3, 51, 52
9, 505919, Note_on_c, 3, 51, 0
9, 505920, Note_on_c, 3, 55, 52
9, 506039, Note_on_c, 3, 55, 0
9, 506040, Note_on_c, 3, 58, 52
9, 506144, Note_on_c, 3, 58, 0
9, 506160, Note_on_c, 3, 63, 52
9, 506639, Note_on_c, 3, 63, 0
9, 506640, Note_on_c, 3, 67, 52
9, 506879, Note_on_c, 3, 67, 0
9, 506880, Note_on_c, 3, 63, 52
9, 507359, Note_on_c, 3, 63, 0
9, 507360, Note_on_c, 3, 58, 52
9, 507599, Note_on_c, 3, 58, 0
9, 507600, Note_on_c, 3, 63, 52
9, 507839, Note_on_c, 3, 63, 0
9, 509040, Note_on_c, 3, 56, 76
9, 509040, Note_on_c, 3, 53, 76
9, 510479, Note_on_c, 3, 56, 0
9, 510479, Note_on_c, 3, 53, 0
9, 510480, Note_on_c, 3, 49, 52
9, 510480, Note_on_c, 3, 61, 52
9, 510719, Note_on_c, 3, 49, 0
9, 510719, Note_on_c, 3, 61, 0
9, 511920, Note_on_c, 3, 60, 84
9, 511920, Note_on_c, 3, 48, 84
9, 512024, Note_on_c, 3, 60, 0
9, 512040, Note_on_c, 3, 60, 84
9, 512144, Note_on_c, 3, 60, 0
9, 512160, Note_on_c, 3, 60, 84
9, 512264, Note_on_c, 3, 60, 0
9, 512280, Note_on_c, 3, 60, 84
9, 512384, Note_on_c, 3, 60, 0
9, 512400, Note_on_c, 3, 64, 84
9, 512504, Note_on_c, 3, 64, 0
9, 512520, Note_on_c, 3, 64, 84
9, 512624, Note_on_c, 3, 64, 0
9, 512640, Note_on_c, 3, 60, 84
9, 512744, Note_on_c, 3, 60, 0
9, 512760, Note_on_c, 3, 60, 84
9, 512864, Note_on_c, 3, 60, 0
9, 512880, Note_on_c, 3, 60, 84
9, 512984, Note_on_c, 3, 60, 0
9, 513000, Note_on_c, 3, 60, 84
9, 513104, Note_on_c, 3, 60, 0
9, 513120, Note_on_c, 3, 55, 84
9, 513224, Note_on_c, 3, 55, 0
9, 513240, Note_on_c, 3, 55, 84
9, 513344, Note_on_c, 3, 55, 0
9, 513359, Note_on_c, 3, 48, 0
9, 513360, Note_on_c, 3, 60, 52
9, 513360, Note_on_c, 3, 48, 52
9, 513599, Note_on_c, 3, 60, 0
9, 513599, Note_on_c, 3, 48, 0
9, 528240, Control_c, 3, 11, 96
9, 528480, Note_on_c, 3, 60, 68
9, 528959, Note_on_c, 3, 60, 0
9, 528960, Note_on_c, 3, 62, 68
9, 529079, Note_on_c, 3, 62, 0
9, 529080, Note_on_c, 3, 64, 68
9, 529184, Note_on_c, 3, 64, 0
9, 529200, Note_on_c, 3, 65, 68
9, 529424, Note_on_c, 3, 65, 0
9, 529440, Note_on_c, 3, 65, 68
9, 529679, Note_on_c, 3, 65, 0
9, 529680, Note_on_c, 3, 67, 68
9, 529919, Note_on_c, 3, 67, 0
9, 529920, Note_on_c, 3, 68, 84
9, 530279, Note_on_c, 3, 68, 0
9, 530280, Note_on_c, 3, 67, 68
9, 530399, Note_on_c, 3, 67, 0
9, 530400, Note_on_c, 3, 65, 68
9, 530624, Note_on_c, 3, 65, 0
9, 530640, Control_c, 3, 11, 96
9, 530640, Note_on_c, 3, 65, 68
9, 530760, Control_c, 3, 11, 99
9, 530880, Control_c, 3, 11, 101
9, 531000, Control_c, 3, 11, 104
9, 531120, Control_c, 3, 11, 106
9, 531240, Control_c, 3, 11, 109
9, 531360, Control_c, 3, 11, 112
9, 531480, Control_c, 3, 11, 114
9, 531600, Control_c, 3, 11, 117
9, 531720, Control_c, 3, 11, 119
9, 531840, Control_c, 3, 11, 122
9, 531960, Control_c, 3, 11, 127
9, 532064, Note_on_c, 3, 65, 0
9, 532080, Note_on_c, 3, 63, 52
9, 532304, Note_on_c, 3, 63, 0
9, 532320, Note_on_c, 3, 63, 52
9, 532559, Note_on_c, 3, 63, 0
9, 532560, Note_on_c, 3, 65, 52
9, 532799, Note_on_c, 3, 65, 0
9, 532800, Note_on_c, 3, 66, 68
9, 533159, Note_on_c, 3, 66, 0
9, 533160, Note_on_c, 3, 65, 52
9, 533279, Note_on_c, 3, 65, 0
9, 533280, Note_on_c, 3, 63, 52
9, 533504, Note_on_c, 3, 63, 0
9, 533520, Note_on_c, 3, 62, 52
9, 533759, Note_on_c, 3, 62, 0
9, 533760, Note_on_c, 3, 61, 52
9, 533999, Note_on_c, 3, 61, 0
9, 534000, Note_on_c, 3, 60, 52
9, 534239, Note_on_c, 3, 60, 0
9, 534240, Note_on_c, 3, 58, 68
9, 534719, Note_on_c, 3, 58, 0
9, 534720, Note_on_c, 3, 60, 52
9, 534839, Note_on_c, 3, 60, 0
9, 534840, Note_on_c, 3, 62, 52
9, 534944, Note_on_c, 3, 62, 0
9, 534960, Note_on_c, 3, 63, 52
9, 535184, Note_on_c, 3, 63, 0
9, 535200, Note_on_c, 3, 63, 52
9, 535439, Note_on_c, 3, 63, 0
9, 535440, Note_on_c, 3, 65, 52
9, 535679, Note_on_c, 3, 65, 0
9, 535680, Note_on_c, 3, 66, 68
9, 536039, Note_on_c, 3, 66, 0
9, 536040, Note_on_c, 3, 65, 52
9, 536159, Note_on_c, 3, 65, 0
9, 536160, Note_on_c, 3, 63, 52
9, 536384, Note_on_c, 3, 63, 0
9, 536400, Note_on_c, 3, 62, 52
9, 537119, Note_on_c, 3, 62, 0
9, 537120, Note_on_c, 3, 61, 52
9, 537839, Note_on_c, 3, 61, 0
9, 537840, Note_on_c, 3, 60, 52
9, 538559, Note_on_c, 3, 60, 0
9, 538560, Note_on_c, 3, 59, 52
9, 539279, Note_on_c, 3, 59, 0
9, 539280, Note_on_c, 3, 58, 52
9, 539280, Control_c, 3, 11, 127
9, 539520, Control_c, 3, 11, 126
9, 539760, Control_c, 3, 11, 125
9, 539984, Note_on_c, 3, 58, 0
9, 540000, Note_on_c, 3, 58, 52
9, 540000, Control_c, 3, 11, 123
9, 540240, Control_c, 3, 11, 122
9, 540480, Control_c, 3, 11, 121
9, 540719, Note_on_c, 3, 58, 0
9, 540720, Note_on_c, 3, 57, 52
9, 540720, Control_c, 3, 11, 120
9, 540960, Control_c, 3, 11, 118
9, 541200, Control_c, 3, 11, 117
9, 541439, Note_on_c, 3, 57, 0
9, 541440, Control_c, 3, 11, 116
9, 541440, Note_on_c, 3, 56, 52
9, 541680, Control_c, 3, 11, 115
9, 541920, Control_c, 3, 11, 112
9, 542159, Note_on_c, 3, 56, 0
9, 542160, Note_on_c, 3, 56, 52
9, 542399, Note_on_c, 3, 56, 0
9, 543360, Control_c, 3, 11, 127
9, 543600, Note_on_c, 3, 58, 44
9, 544799, Note_on_c, 3, 58, 0
9, 544800, Note_on_c, 3, 59, 44
9, 545039, Note_on_c, 3, 59, 0
9, 545040, Note_on_c, 3, 60, 44
9, 545279, Note_on_c, 3, 60, 0
9, 546480, Note_on_c, 3, 60, 44
9, 547679, Note_on_c, 3, 60, 0
9, 547680, Note_on_c, 3, 61, 44
9, 547919, Note_on_c, 3, 61, 0
9, 547920, Note_on_c, 3, 62, 44
9, 548864, Note_on_c, 3, 62, 0
9, 548880, Note_on_c, 3, 62, 44
9, 549059, Note_on_c, 3, 62, 0
9, 549120, Note_on_c, 3, 58, 44
9, 549299, Note_on_c, 3, 58, 0
9, 549345, Control_c, 3, 11, 80
9, 549360, Note_on_c, 3, 65, 68
9, 549599, Note_on_c, 3, 65, 0
9, 549600, Note_on_c, 3, 63, 68
9, 550304, Note_on_c, 3, 63, 0
9, 550320, Note_on_c, 3, 63, 68
9, 550499, Note_on_c, 3, 63, 0
9, 550560, Note_on_c, 3, 58, 68
9, 550739, Note_on_c, 3, 58, 0
9, 550800, Control_c, 3, 11, 80
9, 550800, Note_on_c, 3, 66, 68
9, 551024, Note_on_c, 3, 66, 0
9, 551040, Note_on_c, 3, 66, 68
9, 551040, Control_c, 3, 11, 83
9, 551280, Control_c, 3, 11, 85
9, 551520, Control_c, 3, 11, 88
9, 551744, Note_on_c, 3, 66, 0
9, 551760, Control_c, 3, 11, 91
9, 551760, Note_on_c, 3, 66, 68
9, 552000, Control_c, 3, 11, 93
9, 552240, Control_c, 3, 11, 96
9, 552464, Note_on_c, 3, 66, 0
9, 552480, Note_on_c, 3, 66, 68
9, 552480, Control_c, 3, 11, 99
9, 552689, Note_on_c, 3, 66, 0
9, 552720, Note_on_c, 3, 66, 68
9, 552720, Control_c, 3, 11, 101
9, 552929, Note_on_c, 3, 66, 0
9, 552960, Note_on_c, 3, 66, 68
9, 552960, Control_c, 3, 11, 104
9, 553199, Note_on_c, 3, 66, 0
9, 553200, Note_on_c, 3, 65, 68
9, 553200, Control_c, 3, 11, 107
9, 553439, Note_on_c, 3, 65, 0
9, 553440, Control_c, 3, 11, 112
9, 553440, Note_on_c, 3, 63, 68
9, 553664, Note_on_c, 3, 63, 0
9, 553680, Note_on_c, 3, 62, 68
9, 553904, Note_on_c, 3, 62, 0
9, 553920, Note_on_c, 3, 65, 68
9, 553920, Note_on_c, 3, 58, 68
9, 554160, Control_c, 3, 11, 112
9, 554240, Control_c, 3, 11, 113
9, 554320, Control_c, 3, 11, 115
9, 554400, Control_c, 3, 11, 116
9, 554480, Control_c, 3, 11, 117
9, 554560, Control_c, 3, 11, 118
9, 554624, Note_on_c, 3, 65, 0
9, 554624, Note_on_c, 3, 58, 0
9, 554640, Note_on_c, 3, 58, 68
9, 554640, Control_c, 3, 11, 120
9, 554640, Note_on_c, 3, 65, 68
9, 554720, Control_c, 3, 11, 121
9, 554800, Control_c, 3, 11, 122
9, 554880, Control_c, 3, 11, 123
9, 554960, Control_c, 3, 11, 125
9, 555040, Control_c, 3, 11, 127
9, 555119, Note_on_c, 3, 58, 0
9, 555120, Control_c, 3, 11, 127
9, 555120, Note_on_c, 3, 59, 68
9, 555240, Control_c, 3, 11, 124
9, 555344, Note_on_c, 3, 65, 0
9, 555344, Note_on_c, 3, 59, 0
9, 555360, Note_on_c, 3, 59, 68
9, 555360, Note_on_c, 3, 65, 68
9, 555360, Control_c, 3, 11, 122
9, 555480, Control_c, 3, 11, 119
9, 555584, Note_on_c, 3, 59, 0
9, 555584, Note_on_c, 3, 65, 0
9, 555600, Control_c, 3, 11, 117
9, 555600, Note_on_c, 3, 65, 68
9, 555600, Note_on_c, 3, 59, 68
9, 555720, Control_c, 3, 11, 114
9, 555824, Note_on_c, 3, 65, 0
9, 555824, Note_on_c, 3, 59, 0
9, 555840, Note_on_c, 3, 59, 68
9, 555840, Control_c, 3, 11, 112
9, 555840, Note_on_c, 3, 65, 68
9, 555960, Control_c, 3, 11, 109
9, 556064, Note_on_c, 3, 59, 0
9, 556079, Note_on_c, 3, 65, 0
9, 556080, Note_on_c, 3, 63, 68
9, 556080, Control_c, 3, 11, 106
9, 556080, Note_on_c, 3, 59, 68
9, 556200, Control_c, 3, 11, 104
9, 556304, Note_on_c, 3, 59, 0
9, 556319, Note_on_c, 3, 63, 0
9, 556320, Control_c, 3, 11, 101
9, 556320, Note_on_c, 3, 59, 68
9, 556320, Note_on_c, 3, 62, 68
9, 556440, Control_c, 3, 11, 99
9, 556544, Note_on_c, 3, 59, 0
9, 556544, Note_on_c, 3, 62, 0
9, 556545, Control_c, 3, 11, 96
9, 556560, Note_on_c, 3, 63, 68
9, 556560, Note_on_c, 3, 60, 68
9, 556739, Note_on_c, 3, 63, 0
9, 556739, Note_on_c, 3, 60, 0
9, 557040, Note_on_c, 3, 60, 68
9, 557040, Note_on_c, 3, 63, 68
9, 557219, Note_on_c, 3, 60, 0
9, 557219, Note_on_c, 3, 63, 0
9, 557520, Note_on_c, 3, 60, 68
9, 557520, Note_on_c, 3, 63, 68
9, 557699, Note_on_c, 3, 60, 0
9, 557699, Note_on_c, 3, 63, 0
9, 558000, Note_on_c, 3, 56, 68
9, 558000, Note_on_c, 3, 60, 68
9, 558179, Note_on_c, 3, 56, 0
9, 558179, Note_on_c, 3, 60, 0
9, 558480, Note_on_c, 3, 60, 68
9, 558480, Note_on_c, 3, 56, 68
9, 558659, Note_on_c, 3, 60, 0
9, 558659, Note_on_c, 3, 56, 0
9, 558960, Note_on_c, 3, 60, 68
9, 558960, Note_on_c, 3, 56, 68
9, 559139, Note_on_c, 3, 60, 0
9, 559139, Note_on_c, 3, 56, 0
9, 559440, Note_on_c, 3, 58, 68
9, 559440, Control_c, 3, 11, 96
9, 559440, Note_on_c, 3, 63, 68
9, 559620, Control_c, 3, 11, 99
9, 559800, Control_c, 3, 11, 101
9, 559980, Control_c, 3, 11, 104
9, 560160, Control_c, 3, 11, 106
9, 560340, Control_c, 3, 11, 109
9, 560384, Note_on_c, 3, 58, 0
9, 560384, Note_on_c, 3, 63, 0
9, 560400, Note_on_c, 3, 55, 68
9, 560400, Note_on_c, 3, 58, 68
9, 560520, Control_c, 3, 11, 112
9, 560579, Note_on_c, 3, 55, 0
9, 560579, Note_on_c, 3, 58, 0
9, 560640, Note_on_c, 3, 55, 68
9, 560640, Note_on_c, 3, 58, 68
9, 560700, Control_c, 3, 11, 114
9, 560819, Note_on_c, 3, 55, 0
9, 560819, Note_on_c, 3, 58, 0
9, 560880, Control_c, 3, 11, 117
9, 560880, Note_on_c, 3, 56, 68
9, 560880, Note_on_c, 3, 58, 68
9, 561059, Note_on_c, 3, 56, 0
9, 561059, Note_on_c, 3, 58, 0
9, 561060, Control_c, 3, 11, 119
9, 561120, Note_on_c, 3, 58, 68
9, 561120, Note_on_c, 3, 56, 68
9, 561240, Control_c, 3, 11, 122
9, 561299, Note_on_c, 3, 58, 0
9, 561299, Note_on_c, 3, 56, 0
9, 561360, Note_on_c, 3, 58, 68
9, 561360, Note_on_c, 3, 56, 68
9, 561420, Control_c, 3, 11, 127
9, 561539, Note_on_c, 3, 58, 0
9, 561539, Note_on_c, 3, 56, 0
9, 561600, Note_on_c, 3, 58, 52
9, 561600, Note_on_c, 3, 56, 52
9, 561779, Note_on_c, 3, 58, 0
9, 561779, Note_on_c, 3, 56, 0
9, 561840, Note_on_c, 3, 58, 52
9, 561840, Note_on_c, 3, 56, 52
9, 562019, Note_on_c, 3, 58, 0
9, 562019, Note_on_c, 3, 56, 0
9, 562080, Note_on_c, 3, 58, 52
9, 562080, Note_on_c, 3, 56, 52
9, 562259, Note_on_c, 3, 58, 0
9, 562259, Note_on_c, 3, 56, 0
9, 562320, Note_on_c, 3, 55, 52
9, 562320, Note_on_c, 3, 58, 52
9, 562499, Note_on_c, 3, 55, 0
9, 562499, Note_on_c, 3, 58, 0
9, 573960, Note_on_c, 3, 55, 52
9, 574019, Note_on_c, 3, 55, 0
9, 574020, Note_on_c, 3, 56, 52
9, 574079, Note_on_c, 3, 56, 0
9, 574080, Note_on_c, 3, 58, 52
9, 574169, Note_on_c, 3, 58, 0
9, 574200, Note_on_c, 3, 58, 52
9, 574289, Note_on_c, 3, 58, 0
9, 574320, Note_on_c, 3, 60, 53
9, 574409, Note_on_c, 3, 60, 0
9, 574440, Note_on_c, 3, 62, 53
9, 574529, Note_on_c, 3, 62, 0
9, 574560, Note_on_c, 3, 63, 54
9, 574649, Note_on_c, 3, 63, 0
9, 574680, Note_on_c, 3, 58, 54
9, 574769, Note_on_c, 3, 58, 0
9, 574800, Note_on_c, 3, 60, 55
9, 574889, Note_on_c, 3, 60, 0
9, 574920, Note_on_c, 3, 62, 55
9, 575009, Note_on_c, 3, 62, 0
9, 575040, Note_on_c, 3, 63, 56
9, 575129, Note_on_c, 3, 63, 0
9, 575160, Note_on_c, 3, 65, 56
9, 575249, Note_on_c, 3, 65, 0
9, 575280, Note_on_c, 3, 67, 73
9, 575369, Note_on_c, 3, 67, 0
9, 575400, Note_on_c, 3, 67, 57
9, 575459, Note_on_c, 3, 67, 0
9, 575460, Note_on_c, 3, 65, 58
9, 575519, Note_on_c, 3, 65, 0
9, 575520, Note_on_c, 3, 63, 58
9, 575609, Note_on_c, 3, 63, 0
9, 575640, Note_on_c, 3, 62, 58
9, 575729, Note_on_c, 3, 62, 0
9, 575760, Note_on_c, 3, 60, 59
9, 575849, Note_on_c, 3, 60, 0
9, 575880, Note_on_c, 3, 58, 59
9, 575969, Note_on_c, 3, 58, 0
9, 576000, Note_on_c, 3, 56, 60
9, 576089, Note_on_c, 3, 56, 0
9, 576120, Note_on_c, 3, 55, 60
9, 576209, Note_on_c, 3, 55, 0
9, 576240, Note_on_c, 3, 53, 61
9, 576329, Note_on_c, 3, 53, 0
9, 576360, Note_on_c, 3, 51, 61
9, 576449, Note_on_c, 3, 51, 0
9, 576480, Note_on_c, 3, 50, 62
9, 576569, Note_on_c, 3, 50, 0
9, 576600, Note_on_c, 3, 48, 62
9, 576689, Note_on_c, 3, 48, 0
9, 576720, Note_on_c, 3, 46, 63
9, 576809, Note_on_c, 3, 46, 0
9, 576840, Note_on_c, 3, 46, 64
9, 576899, Note_on_c, 3, 46, 0
9, 576900, Note_on_c, 3, 48, 64
9, 576959, Note_on_c, 3, 48, 0
9, 576960, Note_on_c, 3, 50, 64
9, 577049, Note_on_c, 3, 50, 0
9, 577080, Note_on_c, 3, 51, 65
9, 577169, Note_on_c, 3, 51, 0
9, 577200, Note_on_c, 3, 53, 65
9, 577289, Note_on_c, 3, 53, 0
9, 577320, Note_on_c, 3, 55, 66
9, 577409, Note_on_c, 3, 55, 0
9, 577440, Note_on_c, 3, 56, 66
9, 577529, Note_on_c, 3, 56, 0
9, 577560, Note_on_c, 3, 58, 67
9, 577619, Note_on_c, 3, 58, 0
9, 577620, Note_on_c, 3, 60, 67
9, 577679, Note_on_c, 3, 60, 0
9, 577680, Note_on_c, 3, 62, 67
9, 577769, Note_on_c, 3, 62, 0
9, 577800, Note_on_c, 3, 63, 68
9, 577800, Note_on_c, 3, 51, 68
9, 577889, Note_on_c, 3, 63, 0
9, 577889, Note_on_c, 3, 51, 0
9, 577920, Note_on_c, 3, 65, 68
9, 577920, Note_on_c, 3, 53, 68
9, 578009, Note_on_c, 3, 65, 0
9, 578009, Note_on_c, 3, 53, 0
9, 578040, Note_on_c, 3, 55, 69
9, 578040, Note_on_c, 3, 67, 69
9, 578129, Note_on_c, 3, 55, 0
9, 578129, Note_on_c, 3, 67, 0
9, 578160, Note_on_c, 3, 56, 77
9, 578160, Note_on_c, 3, 68, 77
9, 578249, Note_on_c, 3, 56, 0
9, 578249, Note_on_c, 3, 68, 0
9, 578280, Note_on_c, 3, 55, 70
9, 578280, Note_on_c, 3, 67, 70
9, 578369, Note_on_c, 3, 55, 0
9, 578369, Note_on_c, 3, 67, 0
9, 578400, Note_on_c, 3, 53, 70
9, 578400, Note_on_c, 3, 65, 70
9, 578489, Note_on_c, 3, 53, 0
9, 578489, Note_on_c, 3, 65, 0
9, 578520, Note_on_c, 3, 51, 71
9, 578520, Note_on_c, 3, 63, 71
9, 578609, Note_on_c, 3, 51, 0
9, 578609, Note_on_c, 3, 63, 0
9, 578640, Note_on_c, 3, 50, 71
9, 578640, Note_on_c, 3, 62, 71
9, 578729, Note_on_c, 3, 50, 0
9, 578729, Note_on_c, 3, 62, 0
9, 578760, Note_on_c, 3, 60, 72
9, 578760, Note_on_c, 3, 48, 72
9, 578849, Note_on_c, 3, 60, 0
9, 578849, Note_on_c, 3, 48, 0
9, 578880, Note_on_c, 3, 58, 72
9, 578880, Note_on_c, 3, 46, 72
9, 578969, Note_on_c, 3, 58, 0
9, 578969, Note_on_c, 3, 46, 0
9, 579000, Note_on_c, 3, 60, 73
9, 579089, Note_on_c, 3, 60, 0
9, 579120, Note_on_c, 3, 58, 73
9, 579209, Note_on_c, 3, 58, 0
9, 579240, Note_on_c, 3, 56, 74
9, 579329, Note_on_c, 3, 56, 0
9, 579360, Note_on_c, 3, 55, 74
9, 579449, Note_on_c, 3, 55, 0
9, 579480, Note_on_c, 3, 53, 75
9, 579569, Note_on_c, 3, 53, 0
9, 579600, Note_on_c, 3, 51, 76
9, 579689, Note_on_c, 3, 51, 0
9, 579720, Note_on_c, 3, 51, 76
9, 579779, Note_on_c, 3, 51, 0
9, 579780, Note_on_c, 3, 53, 76
9, 579839, Note_on_c, 3, 53, 0
9, 579840, Note_on_c, 3, 55, 76
9, 579929, Note_on_c, 3, 55, 0
9, 579960, Note_on_c, 3, 55, 76
9, 580019, Note_on_c, 3, 55, 0
9, 580020, Note_on_c, 3, 56, 76
9, 580079, Note_on_c, 3, 56, 0
9, 580080, Note_on_c, 3, 58, 76
9, 580169, Note_on_c, 3, 58, 0
9, 580200, Note_on_c, 3, 60, 76
9, 580259, Note_on_c, 3, 60, 0
9, 580260, Note_on_c, 3, 62, 76
9, 580319, Note_on_c, 3, 62, 0
9, 580320, Note_on_c, 3, 63, 76
9, 580409, Note_on_c, 3, 63, 0
9, 580440, Note_on_c, 3, 55, 76
9, 580499, Note_on_c, 3, 55, 0
9, 580500, Note_on_c, 3, 56, 76
9, 580559, Note_on_c, 3, 56, 0
9, 580560, Note_on_c, 3, 58, 76
9, 580649, Note_on_c, 3, 58, 0
9, 580680, Note_on_c, 3, 58, 76
9, 580739, Note_on_c, 3, 58, 0
9, 580740, Note_on_c, 3, 60, 76
9, 580799, Note_on_c, 3, 60, 0
9, 580800, Note_on_c, 3, 62, 76
9, 580889, Note_on_c, 3, 62, 0
9, 580920, Note_on_c, 3, 63, 76
9, 580979, Note_on_c, 3, 63, 0
9, 580980, Note_on_c, 3, 65, 76
9, 581039, Note_on_c, 3, 65, 0
9, 581040, Note_on_c, 3, 67, 84
9, 581129, Note_on_c, 3, 67, 0
9, 581160, Note_on_c, 3, 65, 76
9, 581249, Note_on_c, 3, 65, 0
9, 581280, Note_on_c, 3, 63, 76
9, 581369, Note_on_c, 3, 63, 0
9, 581400, Note_on_c, 3, 62, 76
9, 581489, Note_on_c, 3, 62, 0
9, 581520, Note_on_c, 3, 60, 76
9, 581609, Note_on_c, 3, 60, 0
9, 581640, Note_on_c, 3, 58, 76
9, 581729, Note_on_c, 3, 58, 0
9, 581760, Note_on_c, 3, 56, 76
9, 581849, Note_on_c, 3, 56, 0
9, 581880, Note_on_c, 3, 55, 76
9, 581969, Note_on_c, 3, 55, 0
9, 582000, Note_on_c, 3, 53, 76
9, 582089, Note_on_c, 3, 53, 0
9, 582120, Note_on_c, 3, 51, 76
9, 582209, Note_on_c, 3, 51, 0
9, 582240, Note_on_c, 3, 50, 76
9, 582329, Note_on_c, 3, 50, 0
9, 582360, Note_on_c, 3, 48, 76
9, 582449, Note_on_c, 3, 48, 0
9, 582480, Note_on_c, 3, 53, 76
9, 582584, Note_on_c, 3, 53, 0
9, 582600, Note_on_c, 3, 53, 76
9, 582704, Note_on_c, 3, 53, 0
9, 582720, Note_on_c, 3, 53, 76
9, 582824, Note_on_c, 3, 53, 0
9, 582840, Note_on_c, 3, 53, 76
9, 582944, Note_on_c, 3, 53, 0
9, 582960, Note_on_c, 3, 56, 76
9, 583064, Note_on_c, 3, 56, 0
9, 583080, Note_on_c, 3, 56, 76
9, 583184, Note_on_c, 3, 56, 0
9, 583200, Note_on_c, 3, 53, 76
9, 583304, Note_on_c, 3, 53, 0
9, 583320, Note_on_c, 3, 53, 76
9, 583424, Note_on_c, 3, 53, 0
9, 583440, Note_on_c, 3, 53, 76
9, 583544, Note_on_c, 3, 53, 0
9, 583560, Note_on_c, 3, 53, 76
9, 583664, Note_on_c, 3, 53, 0
9, 583680, Note_on_c, 3, 46, 76
9, 583784, Note_on_c, 3, 46, 0
9, 583800, Note_on_c, 3, 46, 76
9, 583904, Note_on_c, 3, 46, 0
9, 583920, Note_on_c, 3, 53, 76
9, 584024, Note_on_c, 3, 53, 0
9, 584040, Note_on_c, 3, 53, 76
9, 584144, Note_on_c, 3, 53, 0
9, 584160, Note_on_c, 3, 56, 76
9, 584264, Note_on_c, 3, 56, 0
9, 584280, Note_on_c, 3, 56, 76
9, 584384, Note_on_c, 3, 56, 0
9, 584400, Note_on_c, 3, 58, 76
9, 584504, Note_on_c, 3, 58, 0
9, 584520, Note_on_c, 3, 58, 76
9, 584624, Note_on_c, 3, 58, 0
9, 584640, Note_on_c, 3, 58, 76
9, 584744, Note_on_c, 3, 58, 0
9, 584760, Note_on_c, 3, 58, 76
9, 584864, Note_on_c, 3, 58, 0
9, 584880, Note_on_c, 3, 58, 76
9, 584984, Note_on_c, 3, 58, 0
9, 585000, Note_on_c, 3, 58, 76
9, 585104, Note_on_c, 3, 58, 0
9, 585120, Note_on_c, 3, 58, 76
9, 585224, Note_on_c, 3, 58, 0
9, 585240, Note_on_c, 3, 58, 76
9, 585344, Note_on_c, 3, 58, 0
9, 585360, Note_on_c, 3, 58, 76
9, 585464, Note_on_c, 3, 58, 0
9, 585480, Note_on_c, 3, 58, 76
9, 585584, Note_on_c, 3, 58, 0
9, 585600, Note_on_c, 3, 61, 76
9, 585600, Note_on_c, 3, 58, 76
9, 585704, Note_on_c, 3, 61, 0
9, 585704, Note_on_c, 3, 58, 0
9, 585720, Note_on_c, 3, 58, 76
9, 585720, Note_on_c, 3, 61, 76
9, 585824, Note_on_c, 3, 58, 0
9, 585824, Note_on_c, 3, 61, 0
9, 585840, Note_on_c, 3, 58, 76
9, 585840, Note_on_c, 3, 61, 76
9, 585944, Note_on_c, 3, 58, 0
9, 585944, Note_on_c, 3, 61, 0
9, 585960, Note_on_c, 3, 61, 76
9, 585960, Note_on_c, 3, 58, 76
9, 586064, Note_on_c, 3, 61, 0
9, 586064, Note_on_c, 3, 58, 0
9, 586080, Note_on_c, 3, 61, 76
9, 586080, Note_on_c, 3, 58, 76
9, 586784, Note_on_c, 3, 61, 0
9, 586784, Note_on_c, 3, 58, 0
9, 586800, Note_on_c, 3, 60, 76
9, 586800, Note_on_c, 3, 56, 76
9, 587024, Note_on_c, 3, 60, 0
9, 587024, Note_on_c, 3, 56, 0
9, 587040, Note_on_c, 3, 56, 84
9, 587040, Note_on_c, 3, 60, 84
9, 587489, Note_on_c, 3, 56, 0
9, 587489, Note_on_c, 3, 60, 0
9, 587760, Note_on_c, 3, 57, 84
9, 587760, Note_on_c, 3, 60, 84
9, 588209, Note_on_c, 3, 57, 0
9, 588209, Note_on_c, 3, 60, 0
9, 588480, Note_on_c, 3, 46, 84
9, 588480, Note_on_c, 3, 58, 84
9, 588929, Note_on_c, 3, 46, 0
9, 588929, Note_on_c, 3, 58, 0
9, 589200, Note_on_c, 3, 47, 76
9, 589200, Note_on_c, 3, 59, 76
9, 589679, Note_on_c, 3, 47, 0
9, 589679, Note_on_c, 3, 59, 0
9, 589920, Note_on_c, 3, 48, 76
9, 589920, Note_on_c, 3, 60, 76
9, 590399, Note_on_c, 3, 48, 0
9, 590399, Note_on_c, 3, 60, 0
9, 590640, Note_on_c, 3, 44, 76
9, 590640, Note_on_c, 3, 56, 76
9, 591104, Note_on_c, 3, 44, 0
9, 591104, Note_on_c, 3, 56, 0
9, 591120, Note_on_c, 3, 58, 84
9, 591120, Note_on_c, 3, 46, 84
9, 592064, Note_on_c, 3, 58, 0
9, 592064, Note_on_c, 3, 46, 0
9, 592080, Note_on_c, 3, 58, 84
9, 592080, Note_on_c, 3, 46, 84
9, 592304, Note_on_c, 3, 58, 0
9, 592304, Note_on_c, 3, 46, 0
9, 592320, Note_on_c, 3, 46, 84
9, 592320, Note_on_c, 3, 58, 84
9, 592529, Note_on_c, 3, 46, 0
9, 592529, Note_on_c, 3, 58, 0
9, 592545, Control_c, 3, 11, 96
9, 592560, Control_c, 3, 11, 96
9, 592560, Note_on_c, 3, 63, 68
9, 592620, Control_c, 3, 11, 99
9, 592680, Control_c, 3, 11, 101
9, 592740, Control_c, 3, 11, 104
9, 592800, Control_c, 3, 11, 106
9, 592860, Control_c, 3, 11, 109
9, 592920, Control_c, 3, 11, 112
9, 592980, Control_c, 3, 11, 114
9, 593040, Note_on_c, 3, 62, 68
9, 593040, Control_c, 3, 11, 117
9, 593100, Control_c, 3, 11, 119
9, 593159, Note_on_c, 3, 62, 0
9, 593160, Control_c, 3, 11, 122
9, 593160, Note_on_c, 3, 61, 68
9, 593220, Control_c, 3, 11, 124
9, 593279, Note_on_c, 3, 61, 0
9, 593280, Note_on_c, 3, 60, 68
9, 593280, Control_c, 3, 11, 127
9, 593340, Control_c, 3, 11, 124
9, 593400, Control_c, 3, 11, 122
9, 593460, Control_c, 3, 11, 119
9, 593519, Note_on_c, 3, 63, 0
9, 593519, Note_on_c, 3, 60, 0
9, 593520, Note_on_c, 3, 62, 68
9, 593520, Control_c, 3, 11, 117
9, 593520, Note_on_c, 3, 58, 68
9, 593580, Control_c, 3, 11, 114
9, 593640, Control_c, 3, 11, 112
9, 593700, Control_c, 3, 11, 109
9, 593759, Note_on_c, 3, 62, 0
9, 593759, Note_on_c, 3, 58, 0
9, 593760, Control_c, 3, 11, 106
9, 593760, Note_on_c, 3, 60, 68
9, 593760, Note_on_c, 3, 56, 68
9, 593820, Control_c, 3, 11, 104
9, 593880, Control_c, 3, 11, 101
9, 593940, Control_c, 3, 11, 96
9, 593984, Note_on_c, 3, 60, 0
9, 593984, Note_on_c, 3, 56, 0
9, 594000, Note_on_c, 3, 58, 68
9, 594000, Note_on_c, 3, 55, 68
9, 594479, Note_on_c, 3, 58, 0
9, 594479, Note_on_c, 3, 55, 0
9, 594480, Note_on_c, 3, 56, 68
9, 594480, Note_on_c, 3, 53, 68
9, 594599, Note_on_c, 3, 56, 0
9, 594599, Note_on_c, 3, 53, 0
9, 594600, Note_on_c, 3, 51, 68
9, 594600, Note_on_c, 3, 55, 68
9, 594704, Note_on_c, 3, 51, 0
9, 594704, Note_on_c, 3, 55, 0
9, 594720, Note_on_c, 3, 50, 68
9, 594720, Note_on_c, 3, 53, 68
9, 594929, Note_on_c, 3, 50, 0
9, 594929, Note_on_c, 3, 53, 0
9, 594960, Note_on_c, 3, 50, 68
9, 594960, Note_on_c, 3, 58, 68
9, 595169, Note_on_c, 3, 50, 0
9, 595169, Note_on_c, 3, 58, 0
9, 595200, Note_on_c, 3, 50, 68
9, 595200, Note_on_c, 3, 58, 68
9, 595409, Note_on_c, 3, 50, 0
9, 595409, Note_on_c, 3, 58, 0
9, 595440, Note_on_c, 3, 51, 68
9, 595440, Note_on_c, 3, 58, 68
9, 595679, Note_on_c, 3, 51, 0
9, 595679, Note_on_c, 3, 58, 0
9, 596880, Control_c, 3, 11, 127
9, 597240, Note_on_c, 3, 55, 66
9, 597240, Note_on_c, 3, 58, 66
9, 597329, Note_on_c, 3, 55, 0
9, 597329, Note_on_c, 3, 58, 0
9, 597360, Note_on_c, 3, 53, 67
9, 597360, Note_on_c, 3, 56, 67
9, 597449, Note_on_c, 3, 53, 0
9, 597449, Note_on_c, 3, 56, 0
9, 597480, Note_on_c, 3, 51, 68
9, 597480, Note_on_c, 3, 55, 68
9, 597569, Note_on_c, 3, 51, 0
9, 597569, Note_on_c, 3, 55, 0
9, 597600, Note_on_c, 3, 50, 69
9, 597600, Note_on_c, 3, 53, 69
9, 597689, Note_on_c, 3, 50, 0
9, 597689, Note_on_c, 3, 53, 0
9, 597720, Note_on_c, 3, 51, 70
9, 597720, Note_on_c, 3, 55, 70
9, 597809, Note_on_c, 3, 51, 0
9, 597809, Note_on_c, 3, 55, 0
9, 597840, Note_on_c, 3, 53, 71
9, 597840, Note_on_c, 3, 56, 71
9, 597929, Note_on_c, 3, 53, 0
9, 597929, Note_on_c, 3, 56, 0
9, 597960, Note_on_c, 3, 55, 72
9, 597960, Note_on_c, 3, 51, 72
9, 598049, Note_on_c, 3, 55, 0
9, 598049, Note_on_c, 3, 51, 0
9, 598080, Note_on_c, 3, 53, 73
9, 598080, Note_on_c, 3, 50, 73
9, 598169, Note_on_c, 3, 53, 0
9, 598169, Note_on_c, 3, 50, 0
9, 598200, Note_on_c, 3, 48, 74
9, 598200, Note_on_c, 3, 51, 74
9, 598289, Note_on_c, 3, 48, 0
9, 598289, Note_on_c, 3, 51, 0
9, 598320, Note_on_c, 3, 50, 76
9, 598320, Note_on_c, 3, 46, 76
9, 598544, Note_on_c, 3, 50, 0
9, 598544, Note_on_c, 3, 46, 0
9, 598560, Note_on_c, 3, 58, 76
9, 598560, Note_on_c, 3, 46, 76
9, 599264, Note_on_c, 3, 58, 0
9, 599264, Note_on_c, 3, 46, 0
9, 599280, Note_on_c, 3, 46, 76
9, 599280, Note_on_c, 3, 58, 76
9, 599984, Note_on_c, 3, 46, 0
9, 599984, Note_on_c, 3, 58, 0
9, 600000, Note_on_c, 3, 46, 76
9, 600000, Note_on_c, 3, 58, 76
9, 600464, Note_on_c, 3, 46, 0
9, 600464, Note_on_c, 3, 58, 0
9, 600480, Note_on_c, 3, 46, 76
9, 600480, Note_on_c, 3, 58, 76
9, 600944, Note_on_c, 3, 46, 0
9, 600944, Note_on_c, 3, 58, 0
9, 600960, Note_on_c, 3, 46, 76
9, 600960, Note_on_c, 3, 58, 76
9, 601139, Note_on_c, 3, 46, 0
9, 601139, Note_on_c, 3, 58, 0
9, 601200, Note_on_c, 3, 46, 76
9, 601200, Note_on_c, 3, 58, 76
9, 601379, Note_on_c, 3, 46, 0
9, 601379, Note_on_c, 3, 58, 0
9, 601440, Note_on_c, 3, 46, 84
9, 601440, Note_on_c, 3, 62, 84
9, 601619, Note_on_c, 3, 46, 0
9, 601619, Note_on_c, 3, 62, 0
9, 601680, Note_on_c, 3, 62, 84
9, 601680, Note_on_c, 3, 46, 84
9, 601859, Note_on_c, 3, 62, 0
9, 601859, Note_on_c, 3, 46, 0
9, 601920, Note_on_c, 3, 62, 84
9, 601920, Note_on_c, 3, 46, 84
9, 602144, Note_on_c, 3, 62, 0
9, 602144, Note_on_c, 3, 46, 0
9, 602160, Note_on_c, 3, 46, 84
9, 602160, Note_on_c, 3, 62, 84
9, 602384, Note_on_c, 3, 46, 0
9, 602384, Note_on_c, 3, 62, 0
9, 602400, Note_on_c, 3, 62, 84
9, 602400, Note_on_c, 3, 46, 84
9, 602624, Note_on_c, 3, 62, 0
9, 602624, Note_on_c, 3, 46, 0
9, 602640, Note_on_c, 3, 62, 84
9, 602640, Note_on_c, 3, 46, 84
9, 602864, Note_on_c, 3, 62, 0
9, 602864, Note_on_c, 3, 46, 0
9, 602880, Note_on_c, 3, 46, 84
9, 602880, Note_on_c, 3, 62, 84
9, 603104, Note_on_c, 3, 46, 0
9, 603104, Note_on_c, 3, 62, 0
9, 603120, Note_on_c, 3, 46, 84
9, 603120, Note_on_c, 3, 62, 84
9, 603344, Note_on_c, 3, 46, 0
9, 603344, Note_on_c, 3, 62, 0
9, 603360, Note_on_c, 3, 46, 84
9, 603360, Note_on_c, 3, 62, 84
9, 603584, Note_on_c, 3, 46, 0
9, 603584, Note_on_c, 3, 62, 0
9, 603600, Note_on_c, 3, 46, 84
9, 603600, Note_on_c, 3, 62, 84
9, 603824, Note_on_c, 3, 46, 0
9, 603824, Note_on_c, 3, 62, 0
9, 603840, Note_on_c, 3, 46, 84
9, 603840, Note_on_c, 3, 62, 84
9, 604064, Note_on_c, 3, 46, 0
9, 604064, Note_on_c, 3, 62, 0
9, 604080, Note_on_c, 3, 51, 84
9, 604080, Note_on_c, 3, 63, 84
9, 604319, Note_on_c, 3, 51, 0
9, 604319, Note_on_c, 3, 63, 0
9, 604800, Note_on_c, 3, 63, 84
9, 604800, Note_on_c, 3, 51, 84
9, 605039, Note_on_c, 3, 63, 0
9, 605039, Note_on_c, 3, 51, 0
9, 605520, Note_on_c, 3, 51, 84
9, 605759, Note_on_c, 3, 51, 0
9, 605759, End_track
10, 0, Start_track
10, 0, Title_t, "French Horn I and II in E-flat"
10, 0, MIDI_port, 0
10, 0, Program_c, 4, 60
10, 0, Control_c, 4, 7, 96
10, 0, Control_c, 4, 10, 45
10, 0, Control_c, 4, 11, 127
10, 0, Note_on_c, 4, 63, 76
10, 0, Note_on_c, 4, 55, 76
10, 179, Note_on_c, 4, 63, 0
10, 179, Note_on_c, 4, 55, 0
10, 720, Note_on_c, 4, 55, 76
10, 720, Note_on_c, 4, 63, 76
10, 899, Note_on_c, 4, 55, 0
10, 899, Note_on_c, 4, 63, 0
10, 8400, Control_c, 4, 11, 96
10, 8640, Note_on_c, 4, 63, 68
10, 8640, Note_on_c, 4, 67, 68
10, 8640, Control_c, 4, 11, 96
10, 8700, Control_c, 4, 11, 97
10, 8760, Control_c, 4, 11, 99
10, 8820, Control_c, 4, 11, 100
10, 8880, Control_c, 4, 11, 101
10, 8940, Control_c, 4, 11, 102
10, 9000, Control_c, 4, 11, 104
10, 9060, Control_c, 4, 11, 105
10, 9120, Control_c, 4, 11, 106
10, 9180, Control_c, 4, 11, 108
10, 9240, Control_c, 4, 11, 109
10, 9300, Control_c, 4, 11, 110
10, 9359, Note_on_c, 4, 63, 0
10, 9359, Note_on_c, 4, 67, 0
10, 9360, Note_on_c, 4, 68, 68
10, 9360, Note_on_c, 4, 65, 68
10, 9360, Control_c, 4, 11, 112
10, 9420, Control_c, 4, 11, 113
10, 9480, Control_c, 4, 11, 114
10, 9540, Control_c, 4, 11, 115
10, 9599, Note_on_c, 4, 68, 0
10, 9599, Note_on_c, 4, 65, 0
10, 9600, Note_on_c, 4, 63, 68
10, 9600, Control_c, 4, 11, 117
10, 9600, Note_on_c, 4, 67, 68
10, 9660, Control_c, 4, 11, 118
10, 9720, Control_c, 4, 11, 119
10, 9780, Control_c, 4, 11, 121
10, 9839, Note_on_c, 4, 63, 0
10, 9839, Note_on_c, 4, 67, 0
10, 9840, Control_c, 4, 11, 122
10, 9840, Note_on_c, 4, 65, 68
10, 9840, Note_on_c, 4, 58, 68
10, 9900, Control_c, 4, 11, 123
10, 9960, Control_c, 4, 11, 124
10, 10020, Control_c, 4, 11, 126
10, 10064, Note_on_c, 4, 65, 0
10, 10064, Note_on_c, 4, 58, 0
10, 10080, Note_on_c, 4, 63, 52
10, 10080, Note_on_c, 4, 55, 52
10, 10080, Control_c, 4, 11, 127
10, 10319, Note_on_c, 4, 55, 0
10, 10559, Note_on_c, 4, 63, 0
10, 10560, Note_on_c, 4, 67, 52
10, 10799, Note_on_c, 4, 67, 0
10, 10800, Note_on_c, 4, 63, 52
10, 11279, Note_on_c, 4, 63, 0
10, 11280, Note_on_c, 4, 58, 52
10, 11504, Note_on_c, 4, 58, 0
10, 11520, Note_on_c, 4, 63, 52
10, 11759, Note_on_c, 4, 63, 0
10, 11760, Note_on_c, 4, 67, 52
10, 11999, Note_on_c, 4, 67, 0
10, 12000, Note_on_c, 4, 70, 52
10, 12239, Note_on_c, 4, 70, 0
10, 12240, Note_on_c, 4, 63, 52
10, 12479, Note_on_c, 4, 63, 0
10, 15120, Control_c, 4, 11, 80
10, 15180, Control_c, 4, 11, 84
10, 15240, Control_c, 4, 11, 88
10, 15300, Control_c, 4, 11, 92
10, 15360, Note_on_c, 4, 63, 76
10, 15360, Control_c, 4, 11, 96
10, 15360, Note_on_c, 4, 51, 76
10, 15420, Control_c, 4, 11, 100
10, 15480, Control_c, 4, 11, 104
10, 15540, Control_c, 4, 11, 107
10, 15584, Note_on_c, 4, 63, 0
10, 15584, Note_on_c, 4, 51, 0
10, 15600, Note_on_c, 4, 63, 76
10, 15600, Note_on_c, 4, 51, 76
10, 15600, Control_c, 4, 11, 111
10, 15660, Control_c, 4, 11, 115
10, 15720, Control_c, 4, 11, 119
10, 15780, Control_c, 4, 11, 127
10, 15824, Note_on_c, 4, 63, 0
10, 15824, Note_on_c, 4, 51, 0
10, 15840, Note_on_c, 4, 58, 76
10, 15840, Note_on_c, 4, 46, 76
10, 15960, Control_c, 4, 11, 80
10, 17009, Note_on_c, 4, 58, 0
10, 17009, Note_on_c, 4, 46, 0
10, 17025, Control_c, 4, 11, 127
10, 17040, Note_on_c, 4, 58, 52
10, 17040, Note_on_c, 4, 65, 52
10, 17264, Note_on_c, 4, 58, 0
10, 17264, Note_on_c, 4, 65, 0
10, 17280, Note_on_c, 4, 63, 76
10, 17280, Note_on_c, 4, 51, 76
10, 17459, Note_on_c, 4, 63, 0
10, 17459, Note_on_c, 4, 51, 0
10, 17520, Note_on_c, 4, 63, 76
10, 17520, Note_on_c, 4, 51, 76
10, 17969, Note_on_c, 4, 63, 0
10, 17969, Note_on_c, 4, 51, 0
10, 18000, Note_on_c, 4, 51, 76
10, 18000, Note_on_c, 4, 63, 76
10, 18449, Note_on_c, 4, 51, 0
10, 18449, Note_on_c, 4, 63, 0
10, 18480, Note_on_c, 4, 63, 76
10, 18480, Note_on_c, 4, 51, 76
10, 18689, Note_on_c, 4, 63, 0
10, 18689, Note_on_c, 4, 51, 0
10, 18720, Note_on_c, 4, 58, 76
10, 18720, Note_on_c, 4, 46, 76
10, 18840, Control_c, 4, 11, 80
10, 19889, Note_on_c, 4, 58, 0
10, 19889, Note_on_c, 4, 46, 0
10, 19905, Control_c, 4, 11, 127
10, 19920, Note_on_c, 4, 46, 76
10, 19920, Note_on_c, 4, 65, 76
10, 20369, Note_on_c, 4, 46, 0
10, 20369, Note_on_c, 4, 65, 0
10, 20400, Note_on_c, 4, 46, 76
10, 20400, Note_on_c, 4, 65, 76
10, 20849, Note_on_c, 4, 46, 0
10, 20849, Note_on_c, 4, 65, 0
10, 20880, Note_on_c, 4, 65, 76
10, 20880, Note_on_c, 4, 46, 76
10, 21329, Note_on_c, 4, 65, 0
10, 21329, Note_on_c, 4, 46, 0
10, 21360, Note_on_c, 4, 65, 76
10, 21360, Note_on_c, 4, 46, 76
10, 21809, Note_on_c, 4, 65, 0
10, 21809, Note_on_c, 4, 46, 0
10, 21840, Note_on_c, 4, 67, 76
10, 21840, Note_on_c, 4, 46, 76
10, 22289, Note_on_c, 4, 67, 0
10, 22289, Note_on_c, 4, 46, 0
10, 22320, Note_on_c, 4, 46, 76
10, 22320, Note_on_c, 4, 67, 76
10, 22769, Note_on_c, 4, 46, 0
10, 22769, Note_on_c, 4, 67, 0
10, 22800, Note_on_c, 4, 46, 76
10, 22800, Note_on_c, 4, 67, 76
10, 23249, Note_on_c, 4, 46, 0
10, 23249, Note_on_c, 4, 67, 0
10, 23280, Note_on_c, 4, 46, 52
10, 23280, Note_on_c, 4, 65, 52
10, 23459, Note_on_c, 4, 46, 0
10, 23459, Note_on_c, 4, 65, 0
10, 23520, Note_on_c, 4, 65, 76
10, 23520, Note_on_c, 4, 46, 76
10, 23984, Note_on_c, 4, 65, 0
10, 23984, Note_on_c, 4, 46, 0
10, 24000, Note_on_c, 4, 46, 52
10, 24000, Note_on_c, 4, 67, 52
10, 24179, Note_on_c, 4, 46, 0
10, 24179, Note_on_c, 4, 67, 0
10, 24240, Note_on_c, 4, 46, 76
10, 24240, Note_on_c, 4, 67, 76
10, 24449, Note_on_c, 4, 46, 0
10, 24449, Note_on_c, 4, 67, 0
10, 24465, Control_c, 4, 11, 64
10, 24480, Note_on_c, 4, 68, 84
10, 24480, Control_c, 4, 11, 64
10, 24480, Note_on_c, 4, 46, 84
10, 24540, Control_c, 4, 11, 67
10, 24600, Control_c, 4, 11, 69
10, 24660, Control_c, 4, 11, 72
10, 24720, Control_c, 4, 11, 75
10, 24780, Control_c, 4, 11, 77
10, 24840, Control_c, 4, 11, 80
10, 24900, Control_c, 4, 11, 82
10, 24960, Control_c, 4, 11, 85
10, 25020, Control_c, 4, 11, 88
10, 25080, Control_c, 4, 11, 90
10, 25140, Control_c, 4, 11, 93
10, 25200, Control_c, 4, 11, 96
10, 25260, Control_c, 4, 11, 98
10, 25320, Control_c, 4, 11, 101
10, 25380, Control_c, 4, 11, 103
10, 25424, Note_on_c, 4, 68, 0
10, 25424, Note_on_c, 4, 46, 0
10, 25440, Control_c, 4, 11, 106
10, 25440, Note_on_c, 4, 68, 84
10, 25440, Note_on_c, 4, 58, 84
10, 25500, Control_c, 4, 11, 109
10, 25560, Control_c, 4, 11, 111
10, 25620, Control_c, 4, 11, 114
10, 25664, Note_on_c, 4, 68, 0
10, 25664, Note_on_c, 4, 58, 0
10, 25680, Control_c, 4, 11, 117
10, 25680, Note_on_c, 4, 58, 84
10, 25680, Note_on_c, 4, 68, 84
10, 25740, Control_c, 4, 11, 119
10, 25800, Control_c, 4, 11, 122
10, 25860, Control_c, 4, 11, 127
10, 25904, Note_on_c, 4, 58, 0
10, 25904, Note_on_c, 4, 68, 0
10, 25920, Note_on_c, 4, 58, 84
10, 25920, Note_on_c, 4, 67, 84
10, 26144, Note_on_c, 4, 58, 0
10, 26144, Note_on_c, 4, 67, 0
10, 26160, Note_on_c, 4, 51, 84
10, 26160, Note_on_c, 4, 63, 84
10, 26384, Note_on_c, 4, 51, 0
10, 26384, Note_on_c, 4, 63, 0
10, 26400, Note_on_c, 4, 55, 84
10, 26400, Note_on_c, 4, 67, 84
10, 26624, Note_on_c, 4, 55, 0
10, 26624, Note_on_c, 4, 67, 0
10, 26640, Note_on_c, 4, 51, 84
10, 26640, Note_on_c, 4, 63, 84
10, 27104, Note_on_c, 4, 51, 0
10, 27104, Note_on_c, 4, 63, 0
10, 27120, Note_on_c, 4, 58, 84
10, 27120, Note_on_c, 4, 46, 84
10, 27344, Note_on_c, 4, 58, 0
10, 27344, Note_on_c, 4, 46, 0
10, 27360, Note_on_c, 4, 51, 84
10, 27360, Note_on_c, 4, 63, 84
10, 27584, Note_on_c, 4, 51, 0
10, 27584, Note_on_c, 4, 63, 0
10, 27600, Note_on_c, 4, 67, 84
10, 27600, Note_on_c, 4, 55, 84
10, 27824, Note_on_c, 4, 67, 0
10, 27824, Note_on_c, 4, 55, 0
10, 27840, Note_on_c, 4, 58, 84
10, 27840, Note_on_c, 4, 70, 84
10, 28064, Note_on_c, 4, 58, 0
10, 28064, Note_on_c, 4, 70, 0
10, 28080, Note_on_c, 4, 51, 84
10, 28080, Note_on_c, 4, 63, 84
10, 28544, Note_on_c, 4, 51, 0
10, 28544, Note_on_c, 4, 63, 0
10, 28560, Note_on_c, 4, 67, 92
10, 28560, Note_on_c, 4, 55, 92
10, 28784, Note_on_c, 4, 67, 0
10, 28784, Note_on_c, 4, 55, 0
10, 28800, Note_on_c, 4, 67, 84
10, 28800, Note_on_c, 4, 55, 84
10, 29024, Note_on_c, 4, 67, 0
10, 29024, Note_on_c, 4, 55, 0
10, 29040, Note_on_c, 4, 67, 84
10, 29040, Note_on_c, 4, 55, 84
10, 29264, Note_on_c, 4, 67, 0
10, 29264, Note_on_c, 4, 55, 0
10, 29280, Note_on_c, 4, 55, 84
10, 29280, Note_on_c, 4, 67, 84
10, 29504, Note_on_c, 4, 55, 0
10, 29504, Note_on_c, 4, 67, 0
10, 29520, Note_on_c, 4, 55, 84
10, 29520, Note_on_c, 4, 67, 84
10, 29984, Note_on_c, 4, 55, 0
10, 29984, Note_on_c, 4, 67, 0
10, 30000, Note_on_c, 4, 63, 92
10, 30000, Note_on_c, 4, 51, 92
10, 30224, Note_on_c, 4, 63, 0
10, 30224, Note_on_c, 4, 51, 0
10, 30240, Note_on_c, 4, 51, 84
10, 30240, Note_on_c, 4, 63, 84
10, 30944, Note_on_c, 4, 51, 0
10, 30944, Note_on_c, 4, 63, 0
10, 30960, Note_on_c, 4, 58, 84
10, 30960, Note_on_c, 4, 46, 84
10, 31664, Note_on_c, 4, 58, 0
10, 31664, Note_on_c, 4, 46, 0
10, 31680, Note_on_c, 4, 65, 84
10, 31919, Note_on_c, 4, 65, 0
10, 33120, Note_on_c, 4, 65, 52
10, 34064, Note_on_c, 4, 65, 0
10, 34080, Note_on_c, 4, 65, 52
10, 34304, Note_on_c, 4, 65, 0
10, 34320, Note_on_c, 4, 65, 52
10, 34544, Note_on_c, 4, 65, 0
10, 34560, Note_on_c, 4, 65, 52
10, 34799, Note_on_c, 4, 65, 0
10, 36000, Note_on_c, 4, 65, 52
10, 36944, Note_on_c, 4, 65, 0
10, 36960, Note_on_c, 4, 65, 52
10, 37184, Note_on_c, 4, 65, 0
10, 37200, Note_on_c, 4, 65, 52
10, 37424, Note_on_c, 4, 65, 0
10, 37440, Note_on_c, 4, 65, 52
10, 37679, Note_on_c, 4, 65, 0
10, 39120, Note_on_c, 4, 65, 84
10, 39464, Note_on_c, 4, 65, 0
10, 39480, Note_on_c, 4, 65, 84
10, 39584, Note_on_c, 4, 65, 0
10, 39600, Note_on_c, 4, 65, 84
10, 39779, Note_on_c, 4, 65, 0
10, 39840, Note_on_c, 4, 65, 84
10, 40019, Note_on_c, 4, 65, 0
10, 40080, Note_on_c, 4, 65, 84
10, 40259, Note_on_c, 4, 65, 0
10, 40305, Control_c, 4, 11, 96
10, 40320, Control_c, 4, 11, 96
10, 40320, Note_on_c, 4, 46, 68
10, 40320, Note_on_c, 4, 58, 68
10, 40380, Control_c, 4, 11, 99
10, 40440, Control_c, 4, 11, 101
10, 40500, Control_c, 4, 11, 104
10, 40560, Control_c, 4, 11, 106
10, 40620, Control_c, 4, 11, 109
10, 40680, Control_c, 4, 11, 112
10, 40740, Control_c, 4, 11, 114
10, 40800, Control_c, 4, 11, 117
10, 40860, Control_c, 4, 11, 119
10, 40920, Control_c, 4, 11, 122
10, 40980, Control_c, 4, 11, 124
10, 41040, Control_c, 4, 11, 127
10, 41100, Control_c, 4, 11, 124
10, 41160, Control_c, 4, 11, 122
10, 41220, Control_c, 4, 11, 119
10, 41280, Control_c, 4, 11, 117
10, 41340, Control_c, 4, 11, 114
10, 41400, Control_c, 4, 11, 112
10, 41460, Control_c, 4, 11, 109
10, 41520, Control_c, 4, 11, 106
10, 41580, Control_c, 4, 11, 104
10, 41640, Control_c, 4, 11, 101
10, 41700, Control_c, 4, 11, 96
10, 42209, Note_on_c, 4, 46, 0
10, 42209, Note_on_c, 4, 58, 0
10, 42240, Note_on_c, 4, 65, 68
10, 42419, Note_on_c, 4, 65, 0
10, 42480, Note_on_c, 4, 65, 68
10, 42659, Note_on_c, 4, 65, 0
10, 42720, Note_on_c, 4, 65, 68
10, 42899, Note_on_c, 4, 65, 0
10, 42960, Note_on_c, 4, 65, 68
10, 43139, Note_on_c, 4, 65, 0
10, 43185, Control_c, 4, 11, 80
10, 43200, Note_on_c, 4, 58, 76
10, 43200, Control_c, 4, 11, 80
10, 43200, Note_on_c, 4, 46, 76
10, 43320, Control_c, 4, 11, 82
10, 43440, Control_c, 4, 11, 84
10, 43560, Control_c, 4, 11, 86
10, 43680, Control_c, 4, 11, 88
10, 43800, Control_c, 4, 11, 90
10, 43920, Control_c, 4, 11, 92
10, 44040, Control_c, 4, 11, 94
10, 44160, Control_c, 4, 11, 96
10, 44280, Control_c, 4, 11, 98
10, 44400, Control_c, 4, 11, 100
10, 44520, Control_c, 4, 11, 102
10, 44640, Control_c, 4, 11, 104
10, 44760, Control_c, 4, 11, 105
10, 44879, Note_on_c, 4, 58, 0
10, 44879, Note_on_c, 4, 46, 0
10, 44880, Control_c, 4, 11, 107
10, 45000, Control_c, 4, 11, 109
10, 45120, Control_c, 4, 11, 111
10, 45240, Control_c, 4, 11, 113
10, 45360, Control_c, 4, 11, 115
10, 45480, Control_c, 4, 11, 117
10, 45600, Control_c, 4, 11, 119
10, 45720, Control_c, 4, 11, 121
10, 45720, Note_on_c, 4, 63, 76
10, 45720, Note_on_c, 4, 51, 76
10, 45824, Note_on_c, 4, 63, 0
10, 45824, Note_on_c, 4, 51, 0
10, 45840, Note_on_c, 4, 63, 76
10, 45840, Note_on_c, 4, 51, 76
10, 45840, Control_c, 4, 11, 123
10, 45944, Note_on_c, 4, 63, 0
10, 45944, Note_on_c, 4, 51, 0
10, 45960, Control_c, 4, 11, 127
10, 45960, Note_on_c, 4, 51, 76
10, 45960, Note_on_c, 4, 63, 76
10, 46064, Note_on_c, 4, 51, 0
10, 46064, Note_on_c, 4, 63, 0
10, 46080, Note_on_c, 4, 63, 76
10, 46080, Note_on_c, 4, 51, 76
10, 46259, Note_on_c, 4, 63, 0
10, 46259, Note_on_c, 4, 51, 0
10, 46320, Note_on_c, 4, 63, 76
10, 46320, Note_on_c, 4, 51, 76
10, 46499, Note_on_c, 4, 63, 0
10, 46499, Note_on_c, 4, 51, 0
10, 47400, Note_on_c, 4, 51, 76
10, 47400, Note_on_c, 4, 63, 76
10, 47489, Note_on_c, 4, 51, 0
10, 47489, Note_on_c, 4, 63, 0
10, 47520, Note_on_c, 4, 58, 76
10, 47520, Note_on_c, 4, 46, 76
10, 47699, Note_on_c, 4, 58, 0
10, 47699, Note_on_c, 4, 46, 0
10, 47760, Note_on_c, 4, 58, 76
10, 47760, Note_on_c, 4, 46, 76
10, 47939, Note_on_c, 4, 58, 0
10, 47939, Note_on_c, 4, 46, 0
10, 48840, Note_on_c, 4, 67, 76
10, 48840, Note_on_c, 4, 55, 76
10, 48929, Note_on_c, 4, 67, 0
10, 48929, Note_on_c, 4, 55, 0
10, 48960, Note_on_c, 4, 65, 76
10, 48960, Note_on_c, 4, 68, 76
10, 49139, Note_on_c, 4, 65, 0
10, 49139, Note_on_c, 4, 68, 0
10, 49200, Note_on_c, 4, 68, 76
10, 49200, Note_on_c, 4, 65, 76
10, 49379, Note_on_c, 4, 68, 0
10, 49379, Note_on_c, 4, 65, 0
10, 50040, Note_on_c, 4, 68, 76
10, 50040, Note_on_c, 4, 65, 76
10, 50129, Note_on_c, 4, 68, 0
10, 50129, Note_on_c, 4, 65, 0
10, 50160, Note_on_c, 4, 65, 76
10, 50160, Note_on_c, 4, 68, 76
10, 50249, Note_on_c, 4, 65, 0
10, 50249, Note_on_c, 4, 68, 0
10, 50280, Note_on_c, 4, 68, 76
10, 50280, Note_on_c, 4, 65, 76
10, 50369, Note_on_c, 4, 68, 0
10, 50369, Note_on_c, 4, 65, 0
10, 50400, Note_on_c, 4, 63, 76
10, 50400, Note_on_c, 4, 67, 76
10, 50639, Note_on_c, 4, 63, 0
10, 50639, Note_on_c, 4, 67, 0
10, 52080, Note_on_c, 4, 70, 76
10, 52080, Note_on_c, 4, 46, 76
10, 52304, Note_on_c, 4, 70, 0
10, 52304, Note_on_c, 4, 46, 0
10, 52320, Note_on_c, 4, 70, 76
10, 52320, Note_on_c, 4, 46, 76
10, 52544, Note_on_c, 4, 70, 0
10, 52544, Note_on_c, 4, 46, 0
10, 52560, Note_on_c, 4, 46, 76
10, 52560, Note_on_c, 4, 70, 76
10, 52784, Note_on_c, 4, 46, 0
10, 52784, Note_on_c, 4, 70, 0
10, 52800, Note_on_c, 4, 46, 76
10, 52800, Note_on_c, 4, 70, 76
10, 53024, Note_on_c, 4, 46, 0
10, 53024, Note_on_c, 4, 70, 0
10, 53040, Note_on_c, 4, 70, 76
10, 53040, Note_on_c, 4, 46, 76
10, 53264, Note_on_c, 4, 70, 0
10, 53264, Note_on_c, 4, 46, 0
10, 53280, Note_on_c, 4, 46, 76
10, 53280, Note_on_c, 4, 70, 76
10, 53504, Note_on_c, 4, 46, 0
10, 53504, Note_on_c, 4, 70, 0
10, 53520, Note_on_c, 4, 67, 76
10, 53520, Note_on_c, 4, 55, 76
10, 53744, Note_on_c, 4, 67, 0
10, 53744, Note_on_c, 4, 55, 0
10, 53760, Note_on_c, 4, 55, 76
10, 53760, Note_on_c, 4, 67, 76
10, 53984, Note_on_c, 4, 55, 0
10, 53984, Note_on_c, 4, 67, 0
10, 54000, Note_on_c, 4, 67, 76
10, 54000, Note_on_c, 4, 55, 76
10, 54704, Note_on_c, 4, 67, 0
10, 54704, Note_on_c, 4, 55, 0
10, 54720, Note_on_c, 4, 65, 76
10, 54959, Note_on_c, 4, 65, 0
10, 56160, Note_on_c, 4, 65, 76
10, 57599, Note_on_c, 4, 65, 0
10, 57600, Note_on_c, 4, 65, 84
10, 57824, Note_on_c, 4, 65, 0
10, 57840, Note_on_c, 4, 65, 84
10, 58064, Note_on_c, 4, 65, 0
10, 58080, Note_on_c, 4, 65, 84
10, 58304, Note_on_c, 4, 65, 0
10, 58320, Note_on_c, 4, 65, 84
10, 58544, Note_on_c, 4, 65, 0
10, 58560, Note_on_c, 4, 65, 84
10, 58784, Note_on_c, 4, 65, 0
10, 58800, Note_on_c, 4, 65, 84
10, 59024, Note_on_c, 4, 65, 0
10, 59040, Note_on_c, 4, 70, 84
10, 59040, Note_on_c, 4, 46, 84
10, 59279, Note_on_c, 4, 70, 0
10, 59279, Note_on_c, 4, 46, 0
10, 65700, Control_c, 4, 11, 86
10, 65760, Control_c, 4, 11, 88
10, 65760, Note_on_c, 4, 63, 76
10, 65820, Control_c, 4, 11, 90
10, 65880, Control_c, 4, 11, 92
10, 65940, Control_c, 4, 11, 94
10, 65969, Note_on_c, 4, 63, 0
10, 66000, Note_on_c, 4, 63, 76
10, 66000, Control_c, 4, 11, 96
10, 66060, Control_c, 4, 11, 98
10, 66120, Control_c, 4, 11, 100
10, 66180, Control_c, 4, 11, 102
10, 66209, Note_on_c, 4, 63, 0
10, 66240, Control_c, 4, 11, 104
10, 66240, Note_on_c, 4, 63, 76
10, 66300, Control_c, 4, 11, 105
10, 66360, Control_c, 4, 11, 107
10, 66420, Control_c, 4, 11, 109
10, 66449, Note_on_c, 4, 63, 0
10, 66480, Note_on_c, 4, 63, 76
10, 66480, Control_c, 4, 11, 111
10, 66540, Control_c, 4, 11, 113
10, 66600, Control_c, 4, 11, 115
10, 66660, Control_c, 4, 11, 117
10, 66689, Note_on_c, 4, 63, 0
10, 66720, Control_c, 4, 11, 119
10, 66720, Note_on_c, 4, 63, 76
10, 66780, Control_c, 4, 11, 121
10, 66840, Control_c, 4, 11, 123
10, 66900, Control_c, 4, 11, 125
10, 66929, Note_on_c, 4, 63, 0
10, 66960, Note_on_c, 4, 63, 76
10, 66960, Control_c, 4, 11, 127
10, 67020, Control_c, 4, 11, 123
10, 67080, Control_c, 4, 11, 119
10, 67140, Control_c, 4, 11, 115
10, 67200, Control_c, 4, 11, 111
10, 67260, Control_c, 4, 11, 107
10, 67320, Control_c, 4, 11, 104
10, 67380, Control_c, 4, 11, 100
10, 67440, Control_c, 4, 11, 96
10, 67500, Control_c, 4, 11, 92
10, 67560, Control_c, 4, 11, 88
10, 67620, Control_c, 4, 11, 84
10, 67679, Note_on_c, 4, 63, 0
10, 76320, Control_c, 4, 11, 127
10, 76800, Note_on_c, 4, 65, 52
10, 76889, Note_on_c, 4, 65, 0
10, 76920, Note_on_c, 4, 65, 55
10, 77009, Note_on_c, 4, 65, 0
10, 77040, Note_on_c, 4, 65, 58
10, 77129, Note_on_c, 4, 65, 0
10, 77160, Note_on_c, 4, 65, 61
10, 77249, Note_on_c, 4, 65, 0
10, 77280, Note_on_c, 4, 65, 64
10, 77369, Note_on_c, 4, 65, 0
10, 77400, Note_on_c, 4, 65, 67
10, 77489, Note_on_c, 4, 65, 0
10, 77520, Note_on_c, 4, 65, 70
10, 77609, Note_on_c, 4, 65, 0
10, 77640, Note_on_c, 4, 65, 73
10, 77729, Note_on_c, 4, 65, 0
10, 77760, Note_on_c, 4, 65, 76
10, 77984, Note_on_c, 4, 65, 0
10, 78000, Note_on_c, 4, 70, 84
10, 78000, Note_on_c, 4, 58, 84
10, 78479, Note_on_c, 4, 70, 0
10, 78479, Note_on_c, 4, 58, 0
10, 78720, Note_on_c, 4, 58, 84
10, 78720, Note_on_c, 4, 70, 84
10, 79199, Note_on_c, 4, 58, 0
10, 79199, Note_on_c, 4, 70, 0
10, 79440, Note_on_c, 4, 63, 84
10, 79440, Note_on_c, 4, 72, 84
10, 79919, Note_on_c, 4, 63, 0
10, 79919, Note_on_c, 4, 72, 0
10, 80160, Note_on_c, 4, 72, 84
10, 80160, Note_on_c, 4, 63, 84
10, 80639, Note_on_c, 4, 72, 0
10, 80639, Note_on_c, 4, 63, 0
10, 80640, Note_on_c, 4, 58, 84
10, 80640, Note_on_c, 4, 70, 84
10, 80864, Note_on_c, 4, 58, 0
10, 80864, Note_on_c, 4, 70, 0
10, 80880, Note_on_c, 4, 70, 84
10, 80880, Note_on_c, 4, 58, 84
10, 81104, Note_on_c, 4, 70, 0
10, 81104, Note_on_c, 4, 58, 0
10, 81120, Note_on_c, 4, 70, 84
10, 81120, Note_on_c, 4, 58, 84
10, 81344, Note_on_c, 4, 70, 0
10, 81344, Note_on_c, 4, 58, 0
10, 81360, Note_on_c, 4, 70, 84
10, 81360, Note_on_c, 4, 58, 84
10, 81584, Note_on_c, 4, 70, 0
10, 81584, Note_on_c, 4, 58, 0
10, 81600, Note_on_c, 4, 58, 84
10, 81600, Note_on_c, 4, 70, 84
10, 81824, Note_on_c, 4, 58, 0
10, 81824, Note_on_c, 4, 70, 0
10, 81840, Note_on_c, 4, 70, 84
10, 81840, Note_on_c, 4, 58, 84
10, 82064, Note_on_c, 4, 70, 0
10, 82064, Note_on_c, 4, 58, 0
10, 82080, Note_on_c, 4, 72, 84
10, 82080, Note_on_c, 4, 63, 84
10, 82784, Note_on_c, 4, 72, 0
10, 82784, Note_on_c, 4, 63, 0
10, 82800, Note_on_c, 4, 63, 84
10, 82800, Note_on_c, 4, 72, 84
10, 83504, Note_on_c, 4, 63, 0
10, 83504, Note_on_c, 4, 72, 0
10, 83520, Note_on_c, 4, 58, 84
10, 83520, Note_on_c, 4, 70, 84
10, 83744, Note_on_c, 4, 58, 0
10, 83744, Note_on_c, 4, 70, 0
10, 83760, Note_on_c, 4, 46, 84
10, 83760, Note_on_c, 4, 70, 84
10, 83984, Note_on_c, 4, 46, 0
10, 83984, Note_on_c, 4, 70, 0
10, 84000, Note_on_c, 4, 70, 84
10, 84000, Note_on_c, 4, 46, 84
10, 84224, Note_on_c, 4, 70, 0
10, 84224, Note_on_c, 4, 46, 0
10, 84240, Note_on_c, 4, 70, 84
10, 84240, Note_on_c, 4, 46, 84
10, 84359, Note_on_c, 4, 70, 0
10, 84359, Note_on_c, 4, 46, 0
10, 87480, Note_on_c, 4, 55, 84
10, 87480, Note_on_c, 4, 67, 84
10, 87569, Note_on_c, 4, 55, 0
10, 87569, Note_on_c, 4, 67, 0
10, 87600, Note_on_c, 4, 67, 84
10, 87600, Note_on_c, 4, 55, 84
10, 87689, Note_on_c, 4, 67, 0
10, 87689, Note_on_c, 4, 55, 0
10, 87720, Note_on_c, 4, 67, 84
10, 87720, Note_on_c, 4, 55, 84
10, 87809, Note_on_c, 4, 67, 0
10, 87809, Note_on_c, 4, 55, 0
10, 88800, Note_on_c, 4, 65, 84
10, 88800, Note_on_c, 4, 68, 84
10, 88979, Note_on_c, 4, 65, 0
10, 88979, Note_on_c, 4, 68, 0
10, 89040, Note_on_c, 4, 67, 84
10, 89040, Note_on_c, 4, 63, 84
10, 89219, Note_on_c, 4, 67, 0
10, 89219, Note_on_c, 4, 63, 0
10, 89520, Note_on_c, 4, 55, 84
10, 89520, Note_on_c, 4, 67, 84
10, 89699, Note_on_c, 4, 55, 0
10, 89699, Note_on_c, 4, 67, 0
10, 89760, Note_on_c, 4, 65, 84
10, 89939, Note_on_c, 4, 65, 0
10, 90480, Note_on_c, 4, 67, 84
10, 90480, Note_on_c, 4, 55, 84
10, 90659, Note_on_c, 4, 67, 0
10, 90659, Note_on_c, 4, 55, 0
10, 90960, Note_on_c, 4, 68, 84
10, 90960, Note_on_c, 4, 65, 84
10, 91139, Note_on_c, 4, 68, 0
10, 91139, Note_on_c, 4, 65, 0
10, 91200, Note_on_c, 4, 63, 84
10, 91200, Note_on_c, 4, 67, 84
10, 91379, Note_on_c, 4, 63, 0
10, 91379, Note_on_c, 4, 67, 0
10, 91680, Note_on_c, 4, 70, 92
10, 91680, Note_on_c, 4, 46, 92
10, 91859, Note_on_c, 4, 70, 0
10, 91859, Note_on_c, 4, 46, 0
10, 92160, Note_on_c, 4, 70, 92
10, 92160, Note_on_c, 4, 46, 92
10, 92339, Note_on_c, 4, 70, 0
10, 92339, Note_on_c, 4, 46, 0
10, 92640, Note_on_c, 4, 70, 92
10, 92640, Note_on_c, 4, 46, 92
10, 92819, Note_on_c, 4, 70, 0
10, 92819, Note_on_c, 4, 46, 0
10, 93120, Note_on_c, 4, 70, 92
10, 93120, Note_on_c, 4, 46, 92
10, 93299, Note_on_c, 4, 70, 0
10, 93299, Note_on_c, 4, 46, 0
10, 93600, Note_on_c, 4, 46, 92
10, 93600, Note_on_c, 4, 70, 92
10, 93779, Note_on_c, 4, 46, 0
10, 93779, Note_on_c, 4, 70, 0
10, 94080, Note_on_c, 4, 70, 92
10, 94080, Note_on_c, 4, 46, 92
10, 94259, Note_on_c, 4, 70, 0
10, 94259, Note_on_c, 4, 46, 0
10, 97680, Note_on_c, 4, 63, 52
10, 97680, Note_on_c, 4, 51, 52
10, 97859, Note_on_c, 4, 63, 0
10, 97859, Note_on_c, 4, 51, 0
10, 98160, Note_on_c, 4, 51, 52
10, 98160, Note_on_c, 4, 63, 52
10, 98339, Note_on_c, 4, 51, 0
10, 98339, Note_on_c, 4, 63, 0
10, 98640, Note_on_c, 4, 63, 52
10, 98640, Note_on_c, 4, 51, 52
10, 98819, Note_on_c, 4, 63, 0
10, 98819, Note_on_c, 4, 51, 0
10, 99120, Note_on_c, 4, 63, 52
10, 99120, Note_on_c, 4, 51, 52
10, 99299, Note_on_c, 4, 63, 0
10, 99299, Note_on_c, 4, 51, 0
10, 99600, Note_on_c, 4, 46, 52
10, 99600, Note_on_c, 4, 65, 52
10, 99779, Note_on_c, 4, 46, 0
10, 99779, Note_on_c, 4, 65, 0
10, 100065, Control_c, 4, 11, 64
10, 100080, Note_on_c, 4, 51, 84
10, 100080, Control_c, 4, 11, 64
10, 100080, Note_on_c, 4, 67, 84
10, 100170, Control_c, 4, 11, 67
10, 100260, Control_c, 4, 11, 69
10, 100350, Control_c, 4, 11, 72
10, 100440, Control_c, 4, 11, 75
10, 100530, Control_c, 4, 11, 77
10, 100620, Control_c, 4, 11, 80
10, 100710, Control_c, 4, 11, 82
10, 100800, Control_c, 4, 11, 85
10, 100890, Control_c, 4, 11, 88
10, 100980, Control_c, 4, 11, 90
10, 101070, Control_c, 4, 11, 93
10, 101144, Note_on_c, 4, 51, 0
10, 101144, Note_on_c, 4, 67, 0
10, 101160, Note_on_c, 4, 67, 84
10, 101160, Control_c, 4, 11, 96
10, 101160, Note_on_c, 4, 55, 84
10, 101250, Control_c, 4, 11, 98
10, 101264, Note_on_c, 4, 67, 0
10, 101264, Note_on_c, 4, 55, 0
10, 101280, Note_on_c, 4, 55, 84
10, 101280, Note_on_c, 4, 67, 84
10, 101340, Control_c, 4, 11, 101
10, 101384, Note_on_c, 4, 55, 0
10, 101384, Note_on_c, 4, 67, 0
10, 101400, Note_on_c, 4, 55, 84
10, 101400, Note_on_c, 4, 67, 84
10, 101430, Control_c, 4, 11, 103
10, 101504, Note_on_c, 4, 55, 0
10, 101504, Note_on_c, 4, 67, 0
10, 101520, Note_on_c, 4, 65, 84
10, 101520, Control_c, 4, 11, 106
10, 101610, Control_c, 4, 11, 109
10, 101700, Control_c, 4, 11, 111
10, 101790, Control_c, 4, 11, 114
10, 101864, Note_on_c, 4, 65, 0
10, 101880, Note_on_c, 4, 65, 84
10, 101880, Control_c, 4, 11, 117
10, 101970, Control_c, 4, 11, 119
10, 101984, Note_on_c, 4, 65, 0
10, 102000, Note_on_c, 4, 65, 84
10, 102060, Control_c, 4, 11, 122
10, 102104, Note_on_c, 4, 65, 0
10, 102120, Note_on_c, 4, 65, 84
10, 102150, Control_c, 4, 11, 127
10, 102224, Note_on_c, 4, 65, 0
10, 102240, Note_on_c, 4, 65, 84
10, 102944, Note_on_c, 4, 65, 0
10, 102960, Note_on_c, 4, 46, 76
10, 102960, Note_on_c, 4, 58, 76
10, 103139, Note_on_c, 4, 46, 0
10, 103139, Note_on_c, 4, 58, 0
10, 103680, Note_on_c, 4, 46, 76
10, 103680, Note_on_c, 4, 58, 76
10, 103859, Note_on_c, 4, 46, 0
10, 103859, Note_on_c, 4, 58, 0
10, 104400, Note_on_c, 4, 58, 76
10, 104400, Note_on_c, 4, 46, 76
10, 104579, Note_on_c, 4, 58, 0
10, 104579, Note_on_c, 4, 46, 0
10, 105120, Note_on_c, 4, 66, 76
10, 105120, Note_on_c, 4, 46, 76
10, 105299, Note_on_c, 4, 66, 0
10, 105299, Note_on_c, 4, 46, 0
10, 105360, Note_on_c, 4, 66, 76
10, 105360, Note_on_c, 4, 46, 76
10, 105539, Note_on_c, 4, 66, 0
10, 105539, Note_on_c, 4, 46, 0
10, 105600, Note_on_c, 4, 66, 76
10, 105600, Note_on_c, 4, 46, 76
10, 105779, Note_on_c, 4, 66, 0
10, 105779, Note_on_c, 4, 46, 0
10, 105840, Note_on_c, 4, 65, 76
10, 105840, Note_on_c, 4, 46, 76
10, 105960, Control_c, 4, 11, 80
10, 106079, Note_on_c, 4, 65, 0
10, 107279, Note_on_c, 4, 46, 0
10, 107280, Note_on_c, 4, 46, 76
10, 107280, Control_c, 4, 11, 80
10, 107400, Control_c, 4, 11, 79
10, 107520, Control_c, 4, 11, 77
10, 107640, Control_c, 4, 11, 76
10, 107760, Control_c, 4, 11, 75
10, 107880, Control_c, 4, 11, 73
10, 108000, Control_c, 4, 11, 72
10, 108120, Control_c, 4, 11, 71
10, 108240, Control_c, 4, 11, 69
10, 108360, Control_c, 4, 11, 68
10, 108480, Control_c, 4, 11, 67
10, 108600, Control_c, 4, 11, 65
10, 108959, Note_on_c, 4, 46, 0
10, 109440, Control_c, 4, 11, 127
10, 109920, Note_on_c, 4, 65, 68
10, 109920, Note_on_c, 4, 58, 68
10, 110040, Control_c, 4, 11, 96
10, 110159, Note_on_c, 4, 65, 0
10, 110159, Note_on_c, 4, 58, 0
10, 110160, Note_on_c, 4, 63, 68
10, 110160, Note_on_c, 4, 55, 68
10, 110399, Note_on_c, 4, 63, 0
10, 110399, Note_on_c, 4, 55, 0
10, 117360, Note_on_c, 4, 63, 68
10, 117360, Note_on_c, 4, 67, 68
10, 117420, Control_c, 4, 11, 97
10, 117480, Control_c, 4, 11, 99
10, 117540, Control_c, 4, 11, 100
10, 117600, Control_c, 4, 11, 101
10, 117660, Control_c, 4, 11, 102
10, 117720, Control_c, 4, 11, 104
10, 117780, Control_c, 4, 11, 105
10, 117840, Control_c, 4, 11, 106
10, 117900, Control_c, 4, 11, 108
10, 117960, Control_c, 4, 11, 109
10, 118020, Control_c, 4, 11, 110
10, 118079, Note_on_c, 4, 63, 0
10, 118079, Note_on_c, 4, 67, 0
10, 118080, Note_on_c, 4, 68, 68
10, 118080, Control_c, 4, 11, 112
10, 118080, Note_on_c, 4, 65, 68
10, 118140, Control_c, 4, 11, 113
10, 118200, Control_c, 4, 11, 114
10, 118260, Control_c, 4, 11, 115
10, 118319, Note_on_c, 4, 68, 0
10, 118319, Note_on_c, 4, 65, 0
10, 118320, Note_on_c, 4, 67, 68
10, 118320, Note_on_c, 4, 63, 68
10, 118320, Control_c, 4, 11, 117
10, 118380, Control_c, 4, 11, 118
10, 118440, Control_c, 4, 11, 119
10, 118500, Control_c, 4, 11, 121
10, 118559, Note_on_c, 4, 67, 0
10, 118559, Note_on_c, 4, 63, 0
10, 118560, Note_on_c, 4, 65, 68
10, 118560, Note_on_c, 4, 58, 68
10, 118560, Control_c, 4, 11, 122
10, 118620, Control_c, 4, 11, 123
10, 118680, Control_c, 4, 11, 124
10, 118740, Control_c, 4, 11, 126
10, 118784, Note_on_c, 4, 65, 0
10, 118784, Note_on_c, 4, 58, 0
10, 118800, Note_on_c, 4, 63, 52
10, 118800, Control_c, 4, 11, 127
10, 118800, Note_on_c, 4, 55, 52
10, 119039, Note_on_c, 4, 55, 0
10, 119279, Note_on_c, 4, 63, 0
10, 119280, Note_on_c, 4, 67, 52
10, 119519, Note_on_c, 4, 67, 0
10, 119520, Note_on_c, 4, 63, 52
10, 119999, Note_on_c, 4, 63, 0
10, 120000, Note_on_c, 4, 58, 52
10, 120224, Note_on_c, 4, 58, 0
10, 120240, Note_on_c, 4, 63, 52
10, 120479, Note_on_c, 4, 63, 0
10, 120480, Note_on_c, 4, 67, 52
10, 120719, Note_on_c, 4, 67, 0
10, 120720, Note_on_c, 4, 70, 52
10, 120959, Note_on_c, 4, 70, 0
10, 120960, Note_on_c, 4, 63, 52
10, 121199, Note_on_c, 4, 63, 0
10, 123840, Control_c, 4, 11, 80
10, 123900, Control_c, 4, 11, 84
10, 123960, Control_c, 4, 11, 88
10, 124020, Control_c, 4, 11, 92
10, 124080, Note_on_c, 4, 63, 76
10, 124080, Control_c, 4, 11, 96
10, 124080, Note_on_c, 4, 51, 76
10, 124140, Control_c, 4, 11, 100
10, 124200, Control_c, 4, 11, 104
10, 124260, Control_c, 4, 11, 107
10, 124304, Note_on_c, 4, 63, 0
10, 124304, Note_on_c, 4, 51, 0
10, 124320, Note_on_c, 4, 51, 76
10, 124320, Control_c, 4, 11, 111
10, 124320, Note_on_c, 4, 63, 76
10, 124380, Control_c, 4, 11, 115
10, 124440, Control_c, 4, 11, 119
10, 124500, Control_c, 4, 11, 127
10, 124544, Note_on_c, 4, 51, 0
10, 124544, Note_on_c, 4, 63, 0
10, 124560, Note_on_c, 4, 58, 76
10, 124560, Note_on_c, 4, 46, 76
10, 124680, Control_c, 4, 11, 80
10, 125729, Note_on_c, 4, 58, 0
10, 125729, Note_on_c, 4, 46, 0
10, 125745, Control_c, 4, 11, 127
10, 125760, Note_on_c, 4, 58, 52
10, 125760, Note_on_c, 4, 65, 52
10, 125984, Note_on_c, 4, 58, 0
10, 125984, Note_on_c, 4, 65, 0
10, 126000, Note_on_c, 4, 63, 76
10, 126000, Note_on_c, 4, 51, 76
10, 126179, Note_on_c, 4, 63, 0
10, 126179, Note_on_c, 4, 51, 0
10, 126240, Note_on_c, 4, 63, 76
10, 126240, Note_on_c, 4, 51, 76
10, 126689, Note_on_c, 4, 63, 0
10, 126689, Note_on_c, 4, 51, 0
10, 126720, Note_on_c, 4, 63, 76
10, 126720, Note_on_c, 4, 51, 76
10, 127169, Note_on_c, 4, 63, 0
10, 127169, Note_on_c, 4, 51, 0
10, 127200, Note_on_c, 4, 63, 76
10, 127200, Note_on_c, 4, 51, 76
10, 127409, Note_on_c, 4, 63, 0
10, 127409, Note_on_c, 4, 51, 0
10, 127440, Note_on_c, 4, 46, 76
10, 127440, Note_on_c, 4, 58, 76
10, 127560, Control_c, 4, 11, 80
10, 128609, Note_on_c, 4, 46, 0
10, 128609, Note_on_c, 4, 58, 0
10, 128625, Control_c, 4, 11, 127
10, 128640, Note_on_c, 4, 46, 76
10, 128640, Note_on_c, 4, 65, 76
10, 129089, Note_on_c, 4, 46, 0
10, 129089, Note_on_c, 4, 65, 0
10, 129120, Note_on_c, 4, 65, 76
10, 129120, Note_on_c, 4, 46, 76
10, 129569, Note_on_c, 4, 65, 0
10, 129569, Note_on_c, 4, 46, 0
10, 129600, Note_on_c, 4, 46, 76
10, 129600, Note_on_c, 4, 65, 76
10, 130049, Note_on_c, 4, 46, 0
10, 130049, Note_on_c, 4, 65, 0
10, 130080, Note_on_c, 4, 46, 76
10, 130080, Note_on_c, 4, 65, 76
10, 130529, Note_on_c, 4, 46, 0
10, 130529, Note_on_c, 4, 65, 0
10, 130560, Note_on_c, 4, 46, 76
10, 130560, Note_on_c, 4, 67, 76
10, 131009, Note_on_c, 4, 46, 0
10, 131009, Note_on_c, 4, 67, 0
10, 131040, Note_on_c, 4, 67, 76
10, 131040, Note_on_c, 4, 46, 76
10, 131489, Note_on_c, 4, 67, 0
10, 131489, Note_on_c, 4, 46, 0
10, 131520, Note_on_c, 4, 67, 76
10, 131520, Note_on_c, 4, 46, 76
10, 131969, Note_on_c, 4, 67, 0
10, 131969, Note_on_c, 4, 46, 0
10, 132000, Note_on_c, 4, 65, 52
10, 132000, Note_on_c, 4, 46, 52
10, 132179, Note_on_c, 4, 65, 0
10, 132179, Note_on_c, 4, 46, 0
10, 132240, Note_on_c, 4, 65, 76
10, 132240, Note_on_c, 4, 46, 76
10, 132704, Note_on_c, 4, 65, 0
10, 132704, Note_on_c, 4, 46, 0
10, 132720, Note_on_c, 4, 46, 52
10, 132720, Note_on_c, 4, 67, 52
10, 132899, Note_on_c, 4, 46, 0
10, 132899, Note_on_c, 4, 67, 0
10, 132960, Note_on_c, 4, 46, 76
10, 132960, Note_on_c, 4, 67, 76
10, 133169, Note_on_c, 4, 46, 0
10, 133169, Note_on_c, 4, 67, 0
10, 133185, Control_c, 4, 11, 64
10, 133200, Control_c, 4, 11, 64
10, 133200, Note_on_c, 4, 46, 84
10, 133200, Note_on_c, 4, 68, 84
10, 133260, Control_c, 4, 11, 67
10, 133320, Control_c, 4, 11, 69
10, 133380, Control_c, 4, 11, 72
10, 133440, Control_c, 4, 11, 75
10, 133500, Control_c, 4, 11, 77
10, 133560, Control_c, 4, 11, 80
10, 133620, Control_c, 4, 11, 82
10, 133680, Control_c, 4, 11, 85
10, 133740, Control_c, 4, 11, 88
10, 133800, Control_c, 4, 11, 90
10, 133860, Control_c, 4, 11, 93
10, 133920, Control_c, 4, 11, 96
10, 133980, Control_c, 4, 11, 98
10, 134040, Control_c, 4, 11, 101
10, 134100, Control_c, 4, 11, 103
10, 134144, Note_on_c, 4, 46, 0
10, 134144, Note_on_c, 4, 68, 0
10, 134160, Control_c, 4, 11, 106
10, 134160, Note_on_c, 4, 58, 84
10, 134160, Note_on_c, 4, 68, 84
10, 134220, Control_c, 4, 11, 109
10, 134280, Control_c, 4, 11, 111
10, 134340, Control_c, 4, 11, 114
10, 134384, Note_on_c, 4, 58, 0
10, 134384, Note_on_c, 4, 68, 0
10, 134400, Note_on_c, 4, 58, 84
10, 134400, Note_on_c, 4, 68, 84
10, 134400, Control_c, 4, 11, 117
10, 134460, Control_c, 4, 11, 119
10, 134520, Control_c, 4, 11, 122
10, 134580, Control_c, 4, 11, 127
10, 134624, Note_on_c, 4, 58, 0
10, 134624, Note_on_c, 4, 68, 0
10, 134640, Note_on_c, 4, 58, 84
10, 134640, Note_on_c, 4, 67, 84
10, 134864, Note_on_c, 4, 58, 0
10, 134864, Note_on_c, 4, 67, 0
10, 134880, Note_on_c, 4, 63, 84
10, 134880, Note_on_c, 4, 51, 84
10, 135104, Note_on_c, 4, 63, 0
10, 135104, Note_on_c, 4, 51, 0
10, 135120, Note_on_c, 4, 55, 84
10, 135120, Note_on_c, 4, 67, 84
10, 135344, Note_on_c, 4, 55, 0
10, 135344, Note_on_c, 4, 67, 0
10, 135360, Note_on_c, 4, 51, 84
10, 135360, Note_on_c, 4, 63, 84
10, 135824, Note_on_c, 4, 51, 0
10, 135824, Note_on_c, 4, 63, 0
10, 135840, Note_on_c, 4, 58, 84
10, 135840, Note_on_c, 4, 46, 84
10, 136064, Note_on_c, 4, 58, 0
10, 136064, Note_on_c, 4, 46, 0
10, 136080, Note_on_c, 4, 63, 84
10, 136080, Note_on_c, 4, 51, 84
10, 136304, Note_on_c, 4, 63, 0
10, 136304, Note_on_c, 4, 51, 0
10, 136320, Note_on_c, 4, 55, 84
10, 136320, Note_on_c, 4, 67, 84
10, 136544, Note_on_c, 4, 55, 0
10, 136544, Note_on_c, 4, 67, 0
10, 136560, Note_on_c, 4, 70, 84
10, 136560, Note_on_c, 4, 58, 84
10, 136784, Note_on_c, 4, 70, 0
10, 136784, Note_on_c, 4, 58, 0
10, 136800, Note_on_c, 4, 63, 84
10, 136800, Note_on_c, 4, 51, 84
10, 137264, Note_on_c, 4, 63, 0
10, 137264, Note_on_c, 4, 51, 0
10, 137280, Note_on_c, 4, 55, 92
10, 137280, Note_on_c, 4, 67, 92
10, 137504, Note_on_c, 4, 55, 0
10, 137504, Note_on_c, 4, 67, 0
10, 137520, Note_on_c, 4, 67, 84
10, 137520, Note_on_c, 4, 55, 84
10, 137744, Note_on_c, 4, 67, 0
10, 137744, Note_on_c, 4, 55, 0
10, 137760, Note_on_c, 4, 67, 84
10, 137760, Note_on_c, 4, 55, 84
10, 137984, Note_on_c, 4, 67, 0
10, 137984, Note_on_c, 4, 55, 0
10, 138000, Note_on_c, 4, 67, 84
10, 138000, Note_on_c, 4, 55, 84
10, 138224, Note_on_c, 4, 67, 0
10, 138224, Note_on_c, 4, 55, 0
10, 138240, Note_on_c, 4, 55, 84
10, 138240, Note_on_c, 4, 67, 84
10, 138704, Note_on_c, 4, 55, 0
10, 138704, Note_on_c, 4, 67, 0
10, 138720, Note_on_c, 4, 63, 92
10, 138720, Note_on_c, 4, 51, 92
10, 138944, Note_on_c, 4, 63, 0
10, 138944, Note_on_c, 4, 51, 0
10, 138960, Note_on_c, 4, 63, 84
10, 138960, Note_on_c, 4, 51, 84
10, 139664, Note_on_c, 4, 63, 0
10, 139664, Note_on_c, 4, 51, 0
10, 139680, Note_on_c, 4, 58, 84
10, 139680, Note_on_c, 4, 46, 84
10, 140384, Note_on_c, 4, 58, 0
10, 140384, Note_on_c, 4, 46, 0
10, 140400, Note_on_c, 4, 65, 84
10, 140639, Note_on_c, 4, 65, 0
10, 141840, Note_on_c, 4, 65, 52
10, 142784, Note_on_c, 4, 65, 0
10, 142800, Note_on_c, 4, 65, 52
10, 143024, Note_on_c, 4, 65, 0
10, 143040, Note_on_c, 4, 65, 52
10, 143264, Note_on_c, 4, 65, 0
10, 143280, Note_on_c, 4, 65, 52
10, 143519, Note_on_c, 4, 65, 0
10, 144720, Note_on_c, 4, 65, 52
10, 145664, Note_on_c, 4, 65, 0
10, 145680, Note_on_c, 4, 65, 52
10, 145904, Note_on_c, 4, 65, 0
10, 145920, Note_on_c, 4, 65, 52
10, 146144, Note_on_c, 4, 65, 0
10, 146160, Note_on_c, 4, 65, 52
10, 146399, Note_on_c, 4, 65, 0
10, 147840, Note_on_c, 4, 65, 84
10, 148184, Note_on_c, 4, 65, 0
10, 148200, Note_on_c, 4, 65, 84
10, 148304, Note_on_c, 4, 65, 0
10, 148320, Note_on_c, 4, 65, 84
10, 148499, Note_on_c, 4, 65, 0
10, 148560, Note_on_c, 4, 65, 84
10, 148739, Note_on_c, 4, 65, 0
10, 148800, Note_on_c, 4, 65, 84
10, 148979, Note_on_c, 4, 65, 0
10, 149025, Control_c, 4, 11, 96
10, 149040, Control_c, 4, 11, 96
10, 149040, Note_on_c, 4, 46, 68
10, 149040, Note_on_c, 4, 58, 68
10, 149100, Control_c, 4, 11, 99
10, 149160, Control_c, 4, 11, 101
10, 149220, Control_c, 4, 11, 104
10, 149280, Control_c, 4, 11, 106
10, 149340, Control_c, 4, 11, 109
10, 149400, Control_c, 4, 11, 112
10, 149460, Control_c, 4, 11, 114
10, 149520, Control_c, 4, 11, 117
10, 149580, Control_c, 4, 11, 119
10, 149640, Control_c, 4, 11, 122
10, 149700, Control_c, 4, 11, 124
10, 149760, Control_c, 4, 11, 127
10, 149820, Control_c, 4, 11, 124
10, 149880, Control_c, 4, 11, 122
10, 149940, Control_c, 4, 11, 119
10, 150000, Control_c, 4, 11, 117
10, 150060, Control_c, 4, 11, 114
10, 150120, Control_c, 4, 11, 112
10, 150180, Control_c, 4, 11, 109
10, 150240, Control_c, 4, 11, 106
10, 150300, Control_c, 4, 11, 104
10, 150360, Control_c, 4, 11, 101
10, 150420, Control_c, 4, 11, 96
10, 150929, Note_on_c, 4, 46, 0
10, 150929, Note_on_c, 4, 58, 0
10, 150960, Note_on_c, 4, 65, 68
10, 151139, Note_on_c, 4, 65, 0
10, 151200, Note_on_c, 4, 65, 68
10, 151379, Note_on_c, 4, 65, 0
10, 151440, Note_on_c, 4, 65, 68
10, 151619, Note_on_c, 4, 65, 0
10, 151680, Note_on_c, 4, 65, 68
10, 151859, Note_on_c, 4, 65, 0
10, 151905, Control_c, 4, 11, 80
10, 151920, Note_on_c, 4, 46, 76
10, 151920, Note_on_c, 4, 58, 76
10, 151920, Control_c, 4, 11, 80
10, 152040, Control_c, 4, 11, 82
10, 152160, Control_c, 4, 11, 84
10, 152280, Control_c, 4, 11, 86
10, 152400, Control_c, 4, 11, 88
10, 152520, Control_c, 4, 11, 90
10, 152640, Control_c, 4, 11, 92
10, 152760, Control_c, 4, 11, 94
10, 152880, Control_c, 4, 11, 96
10, 153000, Control_c, 4, 11, 98
10, 153120, Control_c, 4, 11, 100
10, 153240, Control_c, 4, 11, 102
10, 153360, Control_c, 4, 11, 104
10, 153480, Control_c, 4, 11, 105
10, 153599, Note_on_c, 4, 46, 0
10, 153599, Note_on_c, 4, 58, 0
10, 153600, Control_c, 4, 11, 107
10, 153720, Control_c, 4, 11, 109
10, 153840, Control_c, 4, 11, 111
10, 153960, Control_c, 4, 11, 113
10, 154080, Control_c, 4, 11, 115
10, 154200, Control_c, 4, 11, 117
10, 154320, Control_c, 4, 11, 119
10, 154440, Note_on_c, 4, 63, 76
10, 154440, Note_on_c, 4, 51, 76
10, 154440, Control_c, 4, 11, 121
10, 154544, Note_on_c, 4, 63, 0
10, 154544, Note_on_c, 4, 51, 0
10, 154560, Note_on_c, 4, 51, 76
10, 154560, Note_on_c, 4, 63, 76
10, 154560, Control_c, 4, 11, 123
10, 154664, Note_on_c, 4, 51, 0
10, 154664, Note_on_c, 4, 63, 0
10, 154680, Control_c, 4, 11, 127
10, 154680, Note_on_c, 4, 51, 76
10, 154680, Note_on_c, 4, 63, 76
10, 154784, Note_on_c, 4, 51, 0
10, 154784, Note_on_c, 4, 63, 0
10, 154800, Note_on_c, 4, 63, 76
10, 154800, Note_on_c, 4, 51, 76
10, 154979, Note_on_c, 4, 63, 0
10, 154979, Note_on_c, 4, 51, 0
10, 155040, Note_on_c, 4, 63, 76
10, 155040, Note_on_c, 4, 51, 76
10, 155219, Note_on_c, 4, 63, 0
10, 155219, Note_on_c, 4, 51, 0
10, 156120, Note_on_c, 4, 51, 76
10, 156120, Note_on_c, 4, 63, 76
10, 156209, Note_on_c, 4, 51, 0
10, 156209, Note_on_c, 4, 63, 0
10, 156240, Note_on_c, 4, 46, 76
10, 156240, Note_on_c, 4, 58, 76
10, 156419, Note_on_c, 4, 46, 0
10, 156419, Note_on_c, 4, 58, 0
10, 156480, Note_on_c, 4, 46, 76
10, 156480, Note_on_c, 4, 58, 76
10, 156659, Note_on_c, 4, 46, 0
10, 156659, Note_on_c, 4, 58, 0
10, 157560, Note_on_c, 4, 67, 76
10, 157560, Note_on_c, 4, 55, 76
10, 157649, Note_on_c, 4, 67, 0
10, 157649, Note_on_c, 4, 55, 0
10, 157680, Note_on_c, 4, 65, 76
10, 157680, Note_on_c, 4, 68, 76
10, 157859, Note_on_c, 4, 65, 0
10, 157859, Note_on_c, 4, 68, 0
10, 157920, Note_on_c, 4, 65, 76
10, 157920, Note_on_c, 4, 68, 76
10, 158099, Note_on_c, 4, 65, 0
10, 158099, Note_on_c, 4, 68, 0
10, 158760, Note_on_c, 4, 68, 76
10, 158760, Note_on_c, 4, 65, 76
10, 158849, Note_on_c, 4, 68, 0
10, 158849, Note_on_c, 4, 65, 0
10, 158880, Note_on_c, 4, 65, 76
10, 158880, Note_on_c, 4, 68, 76
10, 158969, Note_on_c, 4, 65, 0
10, 158969, Note_on_c, 4, 68, 0
10, 159000, Note_on_c, 4, 65, 76
10, 159000, Note_on_c, 4, 68, 76
10, 159089, Note_on_c, 4, 65, 0
10, 159089, Note_on_c, 4, 68, 0
10, 159120, Note_on_c, 4, 67, 76
10, 159120, Note_on_c, 4, 63, 76
10, 159359, Note_on_c, 4, 67, 0
10, 159359, Note_on_c, 4, 63, 0
10, 160800, Note_on_c, 4, 46, 76
10, 160800, Note_on_c, 4, 70, 76
10, 161024, Note_on_c, 4, 46, 0
10, 161024, Note_on_c, 4, 70, 0
10, 161040, Note_on_c, 4, 46, 76
10, 161040, Note_on_c, 4, 70, 76
10, 161264, Note_on_c, 4, 46, 0
10, 161264, Note_on_c, 4, 70, 0
10, 161280, Note_on_c, 4, 46, 76
10, 161280, Note_on_c, 4, 70, 76
10, 161504, Note_on_c, 4, 46, 0
10, 161504, Note_on_c, 4, 70, 0
10, 161520, Note_on_c, 4, 46, 76
10, 161520, Note_on_c, 4, 70, 76
10, 161744, Note_on_c, 4, 46, 0
10, 161744, Note_on_c, 4, 70, 0
10, 161760, Note_on_c, 4, 70, 76
10, 161760, Note_on_c, 4, 46, 76
10, 161984, Note_on_c, 4, 70, 0
10, 161984, Note_on_c, 4, 46, 0
10, 162000, Note_on_c, 4, 70, 76
10, 162000, Note_on_c, 4, 46, 76
10, 162224, Note_on_c, 4, 70, 0
10, 162224, Note_on_c, 4, 46, 0
10, 162240, Note_on_c, 4, 55, 76
10, 162240, Note_on_c, 4, 67, 76
10, 162464, Note_on_c, 4, 55, 0
10, 162464, Note_on_c, 4, 67, 0
10, 162480, Note_on_c, 4, 67, 76
10, 162480, Note_on_c, 4, 55, 76
10, 162704, Note_on_c, 4, 67, 0
10, 162704, Note_on_c, 4, 55, 0
10, 162720, Note_on_c, 4, 55, 76
10, 162720, Note_on_c, 4, 67, 76
10, 163424, Note_on_c, 4, 55, 0
10, 163424, Note_on_c, 4, 67, 0
10, 163440, Note_on_c, 4, 65, 76
10, 163679, Note_on_c, 4, 65, 0
10, 164880, Note_on_c, 4, 65, 76
10, 166319, Note_on_c, 4, 65, 0
10, 166320, Note_on_c, 4, 65, 84
10, 166544, Note_on_c, 4, 65, 0
10, 166560, Note_on_c, 4, 65, 84
10, 166784, Note_on_c, 4, 65, 0
10, 166800, Note_on_c, 4, 65, 84
10, 167024, Note_on_c, 4, 65, 0
10, 167040, Note_on_c, 4, 65, 84
10, 167264, Note_on_c, 4, 65, 0
10, 167280, Note_on_c, 4, 65, 84
10, 167504, Note_on_c, 4, 65, 0
10, 167520, Note_on_c, 4, 65, 84
10, 167744, Note_on_c, 4, 65, 0
10, 167760, Note_on_c, 4, 70, 84
10, 167760, Note_on_c, 4, 46, 84
10, 167999, Note_on_c, 4, 70, 0
10, 167999, Note_on_c, 4, 46, 0
10, 174420, Control_c, 4, 11, 86
10, 174480, Note_on_c, 4, 63, 76
10, 174480, Control_c, 4, 11, 88
10, 174540, Control_c, 4, 11, 90
10, 174600, Control_c, 4, 11, 92
10, 174660, Control_c, 4, 11, 94
10, 174689, Note_on_c, 4, 63, 0
10, 174720, Note_on_c, 4, 63, 76
10, 174720, Control_c, 4, 11, 96
10, 174780, Control_c, 4, 11, 98
10, 174840, Control_c, 4, 11, 100
10, 174900, Control_c, 4, 11, 102
10, 174929, Note_on_c, 4, 63, 0
10, 174960, Control_c, 4, 11, 104
10, 174960, Note_on_c, 4, 63, 76
10, 175020, Control_c, 4, 11, 105
10, 175080, Control_c, 4, 11, 107
10, 175140, Control_c, 4, 11, 109
10, 175169, Note_on_c, 4, 63, 0
10, 175200, Control_c, 4, 11, 111
10, 175200, Note_on_c, 4, 63, 76
10, 175260, Control_c, 4, 11, 113
10, 175320, Control_c, 4, 11, 115
10, 175380, Control_c, 4, 11, 117
10, 175409, Note_on_c, 4, 63, 0
10, 175440, Control_c, 4, 11, 119
10, 175440, Note_on_c, 4, 63, 76
10, 175500, Control_c, 4, 11, 121
10, 175560, Control_c, 4, 11, 123
10, 175620, Control_c, 4, 11, 125
10, 175649, Note_on_c, 4, 63, 0
10, 175680, Note_on_c, 4, 63, 76
10, 175680, Control_c, 4, 11, 127
10, 175740, Control_c, 4, 11, 123
10, 175800, Control_c, 4, 11, 119
10, 175860, Control_c, 4, 11, 115
10, 175920, Control_c, 4, 11, 111
10, 175980, Control_c, 4, 11, 107
10, 176040, Control_c, 4, 11, 104
10, 176100, Control_c, 4, 11, 100
10, 176160, Control_c, 4, 11, 96
10, 176220, Control_c, 4, 11, 92
10, 176280, Control_c, 4, 11, 88
10, 176340, Control_c, 4, 11, 84
10, 176399, Note_on_c, 4, 63, 0
10, 185040, Control_c, 4, 11, 127
10, 185520, Note_on_c, 4, 65, 52
10, 185609, Note_on_c, 4, 65, 0
10, 185640, Note_on_c, 4, 65, 55
10, 185729, Note_on_c, 4, 65, 0
10, 185760, Note_on_c, 4, 65, 58
10, 185849, Note_on_c, 4, 65, 0
10, 185880, Note_on_c, 4, 65, 61
10, 185969, Note_on_c, 4, 65, 0
10, 186000, Note_on_c, 4, 65, 64
10, 186089, Note_on_c, 4, 65, 0
10, 186120, Note_on_c, 4, 65, 67
10, 186209, Note_on_c, 4, 65, 0
10, 186240, Note_on_c, 4, 65, 70
10, 186329, Note_on_c, 4, 65, 0
10, 186360, Note_on_c, 4, 65, 73
10, 186449, Note_on_c, 4, 65, 0
10, 186480, Note_on_c, 4, 65, 76
10, 186704, Note_on_c, 4, 65, 0
10, 186720, Note_on_c, 4, 58, 84
10, 186720, Note_on_c, 4, 70, 84
10, 187199, Note_on_c, 4, 58, 0
10, 187199, Note_on_c, 4, 70, 0
10, 187440, Note_on_c, 4, 58, 84
10, 187440, Note_on_c, 4, 70, 84
10, 187919, Note_on_c, 4, 58, 0
10, 187919, Note_on_c, 4, 70, 0
10, 188160, Note_on_c, 4, 72, 84
10, 188160, Note_on_c, 4, 63, 84
10, 188639, Note_on_c, 4, 72, 0
10, 188639, Note_on_c, 4, 63, 0
10, 188880, Note_on_c, 4, 63, 84
10, 188880, Note_on_c, 4, 72, 84
10, 189359, Note_on_c, 4, 63, 0
10, 189359, Note_on_c, 4, 72, 0
10, 189360, Note_on_c, 4, 70, 84
10, 189360, Note_on_c, 4, 58, 84
10, 189584, Note_on_c, 4, 70, 0
10, 189584, Note_on_c, 4, 58, 0
10, 189600, Note_on_c, 4, 58, 84
10, 189600, Note_on_c, 4, 70, 84
10, 189824, Note_on_c, 4, 58, 0
10, 189824, Note_on_c, 4, 70, 0
10, 189840, Note_on_c, 4, 58, 84
10, 189840, Note_on_c, 4, 70, 84
10, 190064, Note_on_c, 4, 58, 0
10, 190064, Note_on_c, 4, 70, 0
10, 190080, Note_on_c, 4, 70, 84
10, 190080, Note_on_c, 4, 58, 84
10, 190304, Note_on_c, 4, 70, 0
10, 190304, Note_on_c, 4, 58, 0
10, 190320, Note_on_c, 4, 58, 84
10, 190320, Note_on_c, 4, 70, 84
10, 190544, Note_on_c, 4, 58, 0
10, 190544, Note_on_c, 4, 70, 0
10, 190560, Note_on_c, 4, 58, 84
10, 190560, Note_on_c, 4, 70, 84
10, 190784, Note_on_c, 4, 58, 0
10, 190784, Note_on_c, 4, 70, 0
10, 190800, Note_on_c, 4, 63, 84
10, 190800, Note_on_c, 4, 72, 84
10, 191504, Note_on_c, 4, 63, 0
10, 191504, Note_on_c, 4, 72, 0
10, 191520, Note_on_c, 4, 63, 84
10, 191520, Note_on_c, 4, 72, 84
10, 192224, Note_on_c, 4, 63, 0
10, 192224, Note_on_c, 4, 72, 0
10, 192240, Note_on_c, 4, 70, 84
10, 192240, Note_on_c, 4, 58, 84
10, 192464, Note_on_c, 4, 70, 0
10, 192464, Note_on_c, 4, 58, 0
10, 192480, Note_on_c, 4, 46, 84
10, 192480, Note_on_c, 4, 70, 84
10, 192704, Note_on_c, 4, 46, 0
10, 192704, Note_on_c, 4, 70, 0
10, 192720, Note_on_c, 4, 70, 84
10, 192720, Note_on_c, 4, 46, 84
10, 192944, Note_on_c, 4, 70, 0
10, 192944, Note_on_c, 4, 46, 0
10, 192960, Note_on_c, 4, 46, 84
10, 192960, Note_on_c, 4, 70, 84
10, 193079, Note_on_c, 4, 46, 0
10, 193079, Note_on_c, 4, 70, 0
10, 196200, Note_on_c, 4, 67, 84
10, 196200, Note_on_c, 4, 55, 84
10, 196289, Note_on_c, 4, 67, 0
10, 196289, Note_on_c, 4, 55, 0
10, 196320, Note_on_c, 4, 67, 84
10, 196320, Note_on_c, 4, 55, 84
10, 196409, Note_on_c, 4, 67, 0
10, 196409, Note_on_c, 4, 55, 0
10, 196440, Note_on_c, 4, 67, 84
10, 196440, Note_on_c, 4, 55, 84
10, 196529, Note_on_c, 4, 67, 0
10, 196529, Note_on_c, 4, 55, 0
10, 197520, Note_on_c, 4, 68, 84
10, 197520, Note_on_c, 4, 65, 84
10, 197699, Note_on_c, 4, 68, 0
10, 197699, Note_on_c, 4, 65, 0
10, 197760, Note_on_c, 4, 67, 84
10, 197760, Note_on_c, 4, 63, 84
10, 197939, Note_on_c, 4, 67, 0
10, 197939, Note_on_c, 4, 63, 0
10, 198240, Note_on_c, 4, 67, 84
10, 198240, Note_on_c, 4, 55, 84
10, 198419, Note_on_c, 4, 67, 0
10, 198419, Note_on_c, 4, 55, 0
10, 198480, Note_on_c, 4, 65, 84
10, 198659, Note_on_c, 4, 65, 0
10, 199200, Note_on_c, 4, 55, 84
10, 199200, Note_on_c, 4, 67, 84
10, 199379, Note_on_c, 4, 55, 0
10, 199379, Note_on_c, 4, 67, 0
10, 199680, Note_on_c, 4, 65, 84
10, 199680, Note_on_c, 4, 68, 84
10, 199859, Note_on_c, 4, 65, 0
10, 199859, Note_on_c, 4, 68, 0
10, 199920, Note_on_c, 4, 63, 84
10, 199920, Note_on_c, 4, 67, 84
10, 200099, Note_on_c, 4, 63, 0
10, 200099, Note_on_c, 4, 67, 0
10, 200400, Note_on_c, 4, 70, 92
10, 200400, Note_on_c, 4, 46, 92
10, 200579, Note_on_c, 4, 70, 0
10, 200579, Note_on_c, 4, 46, 0
10, 200880, Note_on_c, 4, 70, 92
10, 200880, Note_on_c, 4, 46, 92
10, 201059, Note_on_c, 4, 70, 0
10, 201059, Note_on_c, 4, 46, 0
10, 201360, Note_on_c, 4, 70, 92
10, 201360, Note_on_c, 4, 46, 92
10, 201539, Note_on_c, 4, 70, 0
10, 201539, Note_on_c, 4, 46, 0
10, 201840, Note_on_c, 4, 46, 92
10, 201840, Note_on_c, 4, 70, 92
10, 202019, Note_on_c, 4, 46, 0
10, 202019, Note_on_c, 4, 70, 0
10, 202320, Note_on_c, 4, 70, 92
10, 202320, Note_on_c, 4, 46, 92
10, 202499, Note_on_c, 4, 70, 0
10, 202499, Note_on_c, 4, 46, 0
10, 202800, Note_on_c, 4, 46, 92
10, 202800, Note_on_c, 4, 70, 92
10, 202979, Note_on_c, 4, 46, 0
10, 202979, Note_on_c, 4, 70, 0
10, 206400, Note_on_c, 4, 63, 52
10, 206400, Note_on_c, 4, 51, 52
10, 206579, Note_on_c, 4, 63, 0
10, 206579, Note_on_c, 4, 51, 0
10, 206880, Note_on_c, 4, 63, 52
10, 206880, Note_on_c, 4, 51, 52
10, 207059, Note_on_c, 4, 63, 0
10, 207059, Note_on_c, 4, 51, 0
10, 207360, Note_on_c, 4, 63, 52
10, 207360, Note_on_c, 4, 51, 52
10, 207539, Note_on_c, 4, 63, 0
10, 207539, Note_on_c, 4, 51, 0
10, 207840, Note_on_c, 4, 51, 52
10, 207840, Note_on_c, 4, 63, 52
10, 208019, Note_on_c, 4, 51, 0
10, 208019, Note_on_c, 4, 63, 0
10, 208320, Note_on_c, 4, 65, 52
10, 208320, Note_on_c, 4, 46, 52
10, 208499, Note_on_c, 4, 65, 0
10, 208499, Note_on_c, 4, 46, 0
10, 208785, Control_c, 4, 11, 64
10, 208800, Note_on_c, 4, 67, 84
10, 208800, Control_c, 4, 11, 64
10, 208800, Note_on_c, 4, 51, 84
10, 208890, Control_c, 4, 11, 67
10, 208980, Control_c, 4, 11, 69
10, 209070, Control_c, 4, 11, 72
10, 209160, Control_c, 4, 11, 75
10, 209250, Control_c, 4, 11, 77
10, 209340, Control_c, 4, 11, 80
10, 209430, Control_c, 4, 11, 82
10, 209520, Control_c, 4, 11, 85
10, 209610, Control_c, 4, 11, 88
10, 209700, Control_c, 4, 11, 90
10, 209790, Control_c, 4, 11, 93
10, 209864, Note_on_c, 4, 67, 0
10, 209864, Note_on_c, 4, 51, 0
10, 209880, Note_on_c, 4, 55, 84
10, 209880, Note_on_c, 4, 67, 84
10, 209880, Control_c, 4, 11, 96
10, 209970, Control_c, 4, 11, 98
10, 209984, Note_on_c, 4, 55, 0
10, 209984, Note_on_c, 4, 67, 0
10, 210000, Note_on_c, 4, 67, 84
10, 210000, Note_on_c, 4, 55, 84
10, 210060, Control_c, 4, 11, 101
10, 210104, Note_on_c, 4, 67, 0
10, 210104, Note_on_c, 4, 55, 0
10, 210120, Note_on_c, 4, 67, 84
10, 210120, Note_on_c, 4, 55, 84
10, 210150, Control_c, 4, 11, 103
10, 210224, Note_on_c, 4, 67, 0
10, 210224, Note_on_c, 4, 55, 0
10, 210240, Control_c, 4, 11, 106
10, 210240, Note_on_c, 4, 65, 84
10, 210330, Control_c, 4, 11, 109
10, 210420, Control_c, 4, 11, 111
10, 210510, Control_c, 4, 11, 114
10, 210584, Note_on_c, 4, 65, 0
10, 210600, Control_c, 4, 11, 117
10, 210600, Note_on_c, 4, 65, 84
10, 210690, Control_c, 4, 11, 119
10, 210704, Note_on_c, 4, 65, 0
10, 210720, Note_on_c, 4, 65, 84
10, 210780, Control_c, 4, 11, 122
10, 210824, Note_on_c, 4, 65, 0
10, 210840, Note_on_c, 4, 65, 84
10, 210870, Control_c, 4, 11, 127
10, 210944, Note_on_c, 4, 65, 0
10, 210960, Note_on_c, 4, 65, 84
10, 211664, Note_on_c, 4, 65, 0
10, 211680, Note_on_c, 4, 46, 76
10, 211680, Note_on_c, 4, 58, 76
10, 211859, Note_on_c, 4, 46, 0
10, 211859, Note_on_c, 4, 58, 0
10, 212400, Note_on_c, 4, 58, 76
10, 212400, Note_on_c, 4, 46, 76
10, 212579, Note_on_c, 4, 58, 0
10, 212579, Note_on_c, 4, 46, 0
10, 213120, Note_on_c, 4, 58, 76
10, 213120, Note_on_c, 4, 46, 76
10, 213299, Note_on_c, 4, 58, 0
10, 213299, Note_on_c, 4, 46, 0
10, 213840, Note_on_c, 4, 66, 76
10, 213840, Note_on_c, 4, 46, 76
10, 214019, Note_on_c, 4, 66, 0
10, 214019, Note_on_c, 4, 46, 0
10, 214080, Note_on_c, 4, 46, 76
10, 214080, Note_on_c, 4, 66, 76
10, 214259, Note_on_c, 4, 46, 0
10, 214259, Note_on_c, 4, 66, 0
10, 214320, Note_on_c, 4, 66, 76
10, 214320, Note_on_c, 4, 46, 76
10, 214499, Note_on_c, 4, 66, 0
10, 214499, Note_on_c, 4, 46, 0
10, 214560, Note_on_c, 4, 46, 76
10, 214560, Note_on_c, 4, 65, 76
10, 214680, Control_c, 4, 11, 80
10, 214799, Note_on_c, 4, 65, 0
10, 215999, Note_on_c, 4, 46, 0
10, 216000, Control_c, 4, 11, 80
10, 216000, Note_on_c, 4, 46, 76
10, 216120, Control_c, 4, 11, 79
10, 216240, Control_c, 4, 11, 77
10, 216360, Control_c, 4, 11, 76
10, 216480, Control_c, 4, 11, 75
10, 216600, Control_c, 4, 11, 73
10, 216720, Control_c, 4, 11, 72
10, 216840, Control_c, 4, 11, 71
10, 216960, Control_c, 4, 11, 69
10, 217080, Control_c, 4, 11, 68
10, 217200, Control_c, 4, 11, 67
10, 217320, Control_c, 4, 11, 65
10, 217679, Note_on_c, 4, 46, 0
10, 218160, Control_c, 4, 11, 127
10, 227520, Note_on_c, 4, 67, 52
10, 227520, Note_on_c, 4, 55, 52
10, 229904, Note_on_c, 4, 67, 0
10, 229904, Note_on_c, 4, 55, 0
10, 229920, Note_on_c, 4, 67, 52
10, 229920, Note_on_c, 4, 55, 52
10, 230144, Note_on_c, 4, 67, 0
10, 230144, Note_on_c, 4, 55, 0
10, 230160, Note_on_c, 4, 67, 52
10, 230160, Note_on_c, 4, 55, 52
10, 230384, Note_on_c, 4, 67, 0
10, 230384, Note_on_c, 4, 55, 0
10, 230400, Note_on_c, 4, 55, 52
10, 230400, Note_on_c, 4, 67, 52
10, 232784, Note_on_c, 4, 55, 0
10, 232784, Note_on_c, 4, 67, 0
10, 232800, Note_on_c, 4, 67, 52
10, 232800, Note_on_c, 4, 55, 52
10, 233024, Note_on_c, 4, 67, 0
10, 233024, Note_on_c, 4, 55, 0
10, 233040, Note_on_c, 4, 67, 52
10, 233040, Note_on_c, 4, 55, 52
10, 233264, Note_on_c, 4, 67, 0
10, 233264, Note_on_c, 4, 55, 0
10, 233280, Note_on_c, 4, 67, 52
10, 233280, Note_on_c, 4, 55, 52
10, 234944, Note_on_c, 4, 67, 0
10, 234944, Note_on_c, 4, 55, 0
10, 234960, Note_on_c, 4, 67, 52
10, 234960, Note_on_c, 4, 55, 52
10, 235184, Note_on_c, 4, 67, 0
10, 235184, Note_on_c, 4, 55, 0
10, 235200, Note_on_c, 4, 67, 52
10, 235200, Note_on_c, 4, 55, 52
10, 235424, Note_on_c, 4, 67, 0
10, 235424, Note_on_c, 4, 55, 0
10, 235440, Note_on_c, 4, 55, 52
10, 235440, Note_on_c, 4, 67, 52
10, 235664, Note_on_c, 4, 55, 0
10, 235664, Note_on_c, 4, 67, 0
10, 235680, Note_on_c, 4, 55, 52
10, 235680, Note_on_c, 4, 67, 52
10, 235904, Note_on_c, 4, 55, 0
10, 235904, Note_on_c, 4, 67, 0
10, 235920, Note_on_c, 4, 55, 52
10, 235920, Note_on_c, 4, 67, 52
10, 236144, Note_on_c, 4, 55, 0
10, 236144, Note_on_c, 4, 67, 0
10, 236160, Note_on_c, 4, 67, 44
10, 236160, Note_on_c, 4, 55, 44
10, 236399, Note_on_c, 4, 67, 0
10, 236399, Note_on_c, 4, 55, 0
10, 242160, Note_on_c, 4, 65, 84
10, 242339, Note_on_c, 4, 65, 0
10, 242400, Note_on_c, 4, 65, 84
10, 242579, Note_on_c, 4, 65, 0
10, 242640, Note_on_c, 4, 65, 84
10, 242819, Note_on_c, 4, 65, 0
10, 242880, Note_on_c, 4, 65, 84
10, 243059, Note_on_c, 4, 65, 0
10, 243120, Note_on_c, 4, 65, 84
10, 243299, Note_on_c, 4, 65, 0
10, 243360, Note_on_c, 4, 65, 84
10, 244799, Note_on_c, 4, 65, 0
10, 244800, Note_on_c, 4, 67, 84
10, 245024, Note_on_c, 4, 67, 0
10, 245040, Note_on_c, 4, 67, 84
10, 245219, Note_on_c, 4, 67, 0
10, 245280, Note_on_c, 4, 67, 84
10, 245459, Note_on_c, 4, 67, 0
10, 245520, Note_on_c, 4, 67, 84
10, 245699, Note_on_c, 4, 67, 0
10, 245760, Note_on_c, 4, 67, 84
10, 245939, Note_on_c, 4, 67, 0
10, 246000, Note_on_c, 4, 67, 84
10, 246179, Note_on_c, 4, 67, 0
10, 246240, Note_on_c, 4, 67, 84
10, 247679, Note_on_c, 4, 67, 0
10, 250560, Note_on_c, 4, 67, 84
10, 250739, Note_on_c, 4, 67, 0
10, 250800, Note_on_c, 4, 67, 84
10, 250979, Note_on_c, 4, 67, 0
10, 251040, Note_on_c, 4, 67, 84
10, 251219, Note_on_c, 4, 67, 0
10, 251280, Note_on_c, 4, 67, 84
10, 251459, Note_on_c, 4, 67, 0
10, 251520, Note_on_c, 4, 67, 84
10, 251699, Note_on_c, 4, 67, 0
10, 251760, Note_on_c, 4, 67, 84
10, 251939, Note_on_c, 4, 67, 0
10, 252000, Note_on_c, 4, 67, 84
10, 253439, Note_on_c, 4, 67, 0
10, 256560, Control_c, 4, 11, 96
10, 256680, Note_on_c, 4, 55, 68
10, 256680, Note_on_c, 4, 67, 68
10, 256784, Note_on_c, 4, 55, 0
10, 256784, Note_on_c, 4, 67, 0
10, 256800, Note_on_c, 4, 67, 68
10, 256800, Note_on_c, 4, 55, 68
10, 256904, Note_on_c, 4, 67, 0
10, 256904, Note_on_c, 4, 55, 0
10, 257400, Note_on_c, 4, 55, 68
10, 257400, Note_on_c, 4, 67, 68
10, 257504, Note_on_c, 4, 55, 0
10, 257504, Note_on_c, 4, 67, 0
10, 257520, Note_on_c, 4, 55, 68
10, 257520, Note_on_c, 4, 67, 68
10, 257624, Note_on_c, 4, 55, 0
10, 257624, Note_on_c, 4, 67, 0
10, 257760, Control_c, 4, 11, 96
10, 257840, Control_c, 4, 11, 98
10, 257880, Note_on_c, 4, 55, 68
10, 257880, Note_on_c, 4, 67, 68
10, 257920, Control_c, 4, 11, 99
10, 257984, Note_on_c, 4, 55, 0
10, 257984, Note_on_c, 4, 67, 0
10, 258000, Note_on_c, 4, 55, 68
10, 258000, Note_on_c, 4, 67, 68
10, 258000, Control_c, 4, 11, 101
10, 258080, Control_c, 4, 11, 103
10, 258104, Note_on_c, 4, 55, 0
10, 258104, Note_on_c, 4, 67, 0
10, 258120, Note_on_c, 4, 67, 68
10, 258120, Note_on_c, 4, 55, 68
10, 258160, Control_c, 4, 11, 105
10, 258224, Note_on_c, 4, 67, 0
10, 258224, Note_on_c, 4, 55, 0
10, 258240, Note_on_c, 4, 55, 68
10, 258240, Control_c, 4, 11, 106
10, 258240, Note_on_c, 4, 67, 68
10, 258320, Control_c, 4, 11, 108
10, 258344, Note_on_c, 4, 55, 0
10, 258344, Note_on_c, 4, 67, 0
10, 258360, Note_on_c, 4, 67, 68
10, 258360, Note_on_c, 4, 55, 68
10, 258400, Control_c, 4, 11, 110
10, 258464, Note_on_c, 4, 67, 0
10, 258464, Note_on_c, 4, 55, 0
10, 258480, Note_on_c, 4, 67, 68
10, 258480, Note_on_c, 4, 55, 68
10, 258480, Control_c, 4, 11, 112
10, 258560, Control_c, 4, 11, 113
10, 258640, Control_c, 4, 11, 115
10, 258719, Note_on_c, 4, 67, 0
10, 258719, Note_on_c, 4, 55, 0
10, 258720, Control_c, 4, 11, 117
10, 261840, Control_c, 4, 11, 127
10, 262080, Note_on_c, 4, 63, 76
10, 262784, Note_on_c, 4, 63, 0
10, 262800, Note_on_c, 4, 70, 76
10, 262800, Note_on_c, 4, 61, 76
10, 263504, Note_on_c, 4, 70, 0
10, 263504, Note_on_c, 4, 61, 0
10, 263520, Note_on_c, 4, 67, 76
10, 263520, Note_on_c, 4, 61, 76
10, 264224, Note_on_c, 4, 67, 0
10, 264224, Note_on_c, 4, 61, 0
10, 264240, Note_on_c, 4, 68, 76
10, 264240, Note_on_c, 4, 60, 76
10, 264944, Note_on_c, 4, 68, 0
10, 264944, Note_on_c, 4, 60, 0
10, 264960, Note_on_c, 4, 68, 84
10, 264960, Note_on_c, 4, 65, 84
10, 265664, Note_on_c, 4, 68, 0
10, 265664, Note_on_c, 4, 65, 0
10, 265680, Note_on_c, 4, 68, 84
10, 265680, Note_on_c, 4, 64, 84
10, 266384, Note_on_c, 4, 68, 0
10, 266384, Note_on_c, 4, 64, 0
10, 266400, Note_on_c, 4, 63, 84
10, 266400, Note_on_c, 4, 67, 84
10, 266624, Note_on_c, 4, 63, 0
10, 266624, Note_on_c, 4, 67, 0
10, 266640, Note_on_c, 4, 63, 52
10, 266640, Note_on_c, 4, 51, 52
10, 268784, Note_on_c, 4, 63, 0
10, 268784, Note_on_c, 4, 51, 0
10, 268800, Note_on_c, 4, 51, 52
10, 268800, Note_on_c, 4, 63, 52
10, 269024, Note_on_c, 4, 51, 0
10, 269024, Note_on_c, 4, 63, 0
10, 269040, Note_on_c, 4, 63, 52
10, 269040, Note_on_c, 4, 51, 52
10, 269264, Note_on_c, 4, 63, 0
10, 269264, Note_on_c, 4, 51, 0
10, 269280, Note_on_c, 4, 51, 52
10, 269280, Note_on_c, 4, 63, 52
10, 271664, Note_on_c, 4, 51, 0
10, 271664, Note_on_c, 4, 63, 0
10, 271680, Note_on_c, 4, 51, 52
10, 271680, Note_on_c, 4, 63, 52
10, 271904, Note_on_c, 4, 51, 0
10, 271904, Note_on_c, 4, 63, 0
10, 271920, Note_on_c, 4, 63, 52
10, 271920, Note_on_c, 4, 51, 52
10, 272144, Note_on_c, 4, 63, 0
10, 272144, Note_on_c, 4, 51, 0
10, 272160, Note_on_c, 4, 51, 52
10, 272160, Note_on_c, 4, 63, 52
10, 273824, Note_on_c, 4, 51, 0
10, 273824, Note_on_c, 4, 63, 0
10, 273840, Note_on_c, 4, 63, 52
10, 273840, Note_on_c, 4, 51, 52
10, 274064, Note_on_c, 4, 63, 0
10, 274064, Note_on_c, 4, 51, 0
10, 274080, Note_on_c, 4, 63, 52
10, 274080, Note_on_c, 4, 51, 52
10, 274304, Note_on_c, 4, 63, 0
10, 274304, Note_on_c, 4, 51, 0
10, 274320, Note_on_c, 4, 51, 52
10, 274320, Note_on_c, 4, 63, 52
10, 274544, Note_on_c, 4, 51, 0
10, 274544, Note_on_c, 4, 63, 0
10, 274560, Note_on_c, 4, 51, 52
10, 274560, Note_on_c, 4, 63, 52
10, 274784, Note_on_c, 4, 51, 0
10, 274784, Note_on_c, 4, 63, 0
10, 274800, Note_on_c, 4, 63, 52
10, 274800, Note_on_c, 4, 51, 52
10, 275024, Note_on_c, 4, 63, 0
10, 275024, Note_on_c, 4, 51, 0
10, 275040, Note_on_c, 4, 51, 52
10, 275040, Note_on_c, 4, 63, 52
10, 275129, Note_on_c, 4, 63, 0
10, 275160, Note_on_c, 4, 60, 52
10, 275249, Note_on_c, 4, 60, 0
10, 275264, Note_on_c, 4, 51, 0
10, 275280, Note_on_c, 4, 61, 52
10, 275369, Note_on_c, 4, 61, 0
10, 275400, Note_on_c, 4, 63, 52
10, 275489, Note_on_c, 4, 63, 0
10, 275520, Note_on_c, 4, 65, 52
10, 275609, Note_on_c, 4, 65, 0
10, 275640, Note_on_c, 4, 67, 52
10, 275729, Note_on_c, 4, 67, 0
10, 275760, Note_on_c, 4, 68, 68
10, 276719, Note_on_c, 4, 68, 0
10, 276720, Note_on_c, 4, 67, 52
10, 276944, Note_on_c, 4, 67, 0
10, 276960, Note_on_c, 4, 67, 52
10, 277184, Note_on_c, 4, 67, 0
10, 277200, Note_on_c, 4, 67, 52
10, 277424, Note_on_c, 4, 67, 0
10, 277440, Note_on_c, 4, 67, 52
10, 277664, Note_on_c, 4, 67, 0
10, 277680, Note_on_c, 4, 67, 52
10, 277904, Note_on_c, 4, 67, 0
10, 277920, Note_on_c, 4, 65, 52
10, 278159, Note_on_c, 4, 65, 0
10, 286800, Note_on_c, 4, 68, 84
10, 286800, Note_on_c, 4, 65, 84
10, 288224, Note_on_c, 4, 68, 0
10, 288224, Note_on_c, 4, 65, 0
10, 288240, Note_on_c, 4, 68, 92
10, 288240, Note_on_c, 4, 65, 92
10, 288689, Note_on_c, 4, 68, 0
10, 288689, Note_on_c, 4, 65, 0
10, 288720, Note_on_c, 4, 65, 92
10, 288720, Note_on_c, 4, 68, 92
10, 289169, Note_on_c, 4, 65, 0
10, 289169, Note_on_c, 4, 68, 0
10, 289200, Note_on_c, 4, 65, 92
10, 289200, Note_on_c, 4, 68, 92
10, 289649, Note_on_c, 4, 65, 0
10, 289649, Note_on_c, 4, 68, 0
10, 289680, Note_on_c, 4, 65, 92
10, 289680, Note_on_c, 4, 68, 92
10, 290129, Note_on_c, 4, 65, 0
10, 290129, Note_on_c, 4, 68, 0
10, 290160, Note_on_c, 4, 65, 92
10, 290160, Note_on_c, 4, 68, 92
10, 290609, Note_on_c, 4, 65, 0
10, 290609, Note_on_c, 4, 68, 0
10, 290640, Note_on_c, 4, 65, 92
10, 290640, Note_on_c, 4, 68, 92
10, 290849, Note_on_c, 4, 65, 0
10, 290849, Note_on_c, 4, 68, 0
10, 295440, Note_on_c, 4, 63, 92
10, 295440, Note_on_c, 4, 66, 92
10, 296849, Note_on_c, 4, 63, 0
10, 296849, Note_on_c, 4, 66, 0
10, 296880, Note_on_c, 4, 63, 92
10, 296880, Note_on_c, 4, 66, 92
10, 297329, Note_on_c, 4, 63, 0
10, 297329, Note_on_c, 4, 66, 0
10, 297360, Note_on_c, 4, 63, 92
10, 297360, Note_on_c, 4, 66, 92
10, 297809, Note_on_c, 4, 63, 0
10, 297809, Note_on_c, 4, 66, 0
10, 297840, Note_on_c, 4, 63, 92
10, 297840, Note_on_c, 4, 66, 92
10, 298289, Note_on_c, 4, 63, 0
10, 298289, Note_on_c, 4, 66, 0
10, 298320, Note_on_c, 4, 66, 92
10, 298320, Note_on_c, 4, 63, 92
10, 298769, Note_on_c, 4, 66, 0
10, 298769, Note_on_c, 4, 63, 0
10, 298800, Note_on_c, 4, 66, 92
10, 298800, Note_on_c, 4, 63, 92
10, 299249, Note_on_c, 4, 66, 0
10, 299249, Note_on_c, 4, 63, 0
10, 299280, Note_on_c, 4, 63, 92
10, 299280, Note_on_c, 4, 66, 92
10, 299489, Note_on_c, 4, 63, 0
10, 299489, Note_on_c, 4, 66, 0
10, 299760, Note_on_c, 4, 67, 92
10, 299760, Note_on_c, 4, 55, 92
10, 301169, Note_on_c, 4, 67, 0
10, 301169, Note_on_c, 4, 55, 0
10, 301200, Note_on_c, 4, 55, 92
10, 301200, Note_on_c, 4, 67, 92
10, 301649, Note_on_c, 4, 55, 0
10, 301649, Note_on_c, 4, 67, 0
10, 301680, Note_on_c, 4, 55, 92
10, 301680, Note_on_c, 4, 67, 92
10, 302129, Note_on_c, 4, 55, 0
10, 302129, Note_on_c, 4, 67, 0
10, 302160, Note_on_c, 4, 67, 92
10, 302160, Note_on_c, 4, 55, 92
10, 302609, Note_on_c, 4, 67, 0
10, 302609, Note_on_c, 4, 55, 0
10, 302640, Note_on_c, 4, 55, 92
10, 302640, Note_on_c, 4, 67, 92
10, 303089, Note_on_c, 4, 55, 0
10, 303089, Note_on_c, 4, 67, 0
10, 303120, Note_on_c, 4, 55, 92
10, 303120, Note_on_c, 4, 67, 92
10, 303569, Note_on_c, 4, 55, 0
10, 303569, Note_on_c, 4, 67, 0
10, 303600, Note_on_c, 4, 67, 92
10, 303600, Note_on_c, 4, 55, 92
10, 303809, Note_on_c, 4, 67, 0
10, 303809, Note_on_c, 4, 55, 0
10, 304080, Note_on_c, 4, 63, 92
10, 304080, Note_on_c, 4, 51, 92
10, 304529, Note_on_c, 4, 63, 0
10, 304529, Note_on_c, 4, 51, 0
10, 304560, Note_on_c, 4, 63, 92
10, 304560, Note_on_c, 4, 51, 92
10, 305009, Note_on_c, 4, 63, 0
10, 305009, Note_on_c, 4, 51, 0
10, 305040, Note_on_c, 4, 63, 92
10, 305040, Note_on_c, 4, 51, 92
10, 305249, Note_on_c, 4, 63, 0
10, 305249, Note_on_c, 4, 51, 0
10, 305520, Note_on_c, 4, 55, 92
10, 305520, Note_on_c, 4, 67, 92
10, 305969, Note_on_c, 4, 55, 0
10, 305969, Note_on_c, 4, 67, 0
10, 306000, Note_on_c, 4, 67, 92
10, 306000, Note_on_c, 4, 55, 92
10, 306449, Note_on_c, 4, 67, 0
10, 306449, Note_on_c, 4, 55, 0
10, 306480, Note_on_c, 4, 55, 92
10, 306480, Note_on_c, 4, 67, 92
10, 306689, Note_on_c, 4, 55, 0
10, 306689, Note_on_c, 4, 67, 0
10, 306720, Note_on_c, 4, 65, 76
10, 307199, Note_on_c, 4, 65, 0
10, 307440, Note_on_c, 4, 65, 76
10, 307919, Note_on_c, 4, 65, 0
10, 308160, Note_on_c, 4, 65, 76
10, 308639, Note_on_c, 4, 65, 0
10, 308880, Note_on_c, 4, 65, 76
10, 309344, Note_on_c, 4, 65, 0
10, 309360, Note_on_c, 4, 65, 76
10, 309539, Note_on_c, 4, 65, 0
10, 327120, Note_on_c, 4, 67, 76
10, 327120, Note_on_c, 4, 55, 76
10, 327299, Note_on_c, 4, 67, 0
10, 327299, Note_on_c, 4, 55, 0
10, 327360, Note_on_c, 4, 67, 76
10, 327360, Note_on_c, 4, 55, 76
10, 327539, Note_on_c, 4, 67, 0
10, 327539, Note_on_c, 4, 55, 0
10, 327600, Note_on_c, 4, 67, 76
10, 327600, Note_on_c, 4, 55, 76
10, 327779, Note_on_c, 4, 67, 0
10, 327779, Note_on_c, 4, 55, 0
10, 327840, Note_on_c, 4, 55, 76
10, 327840, Note_on_c, 4, 67, 76
10, 328019, Note_on_c, 4, 55, 0
10, 328019, Note_on_c, 4, 67, 0
10, 328080, Note_on_c, 4, 55, 84
10, 328080, Note_on_c, 4, 67, 84
10, 329969, Note_on_c, 4, 55, 0
10, 329969, Note_on_c, 4, 67, 0
10, 330000, Note_on_c, 4, 55, 76
10, 330000, Note_on_c, 4, 67, 76
10, 330179, Note_on_c, 4, 55, 0
10, 330179, Note_on_c, 4, 67, 0
10, 330240, Note_on_c, 4, 67, 76
10, 330240, Note_on_c, 4, 55, 76
10, 330419, Note_on_c, 4, 67, 0
10, 330419, Note_on_c, 4, 55, 0
10, 330480, Note_on_c, 4, 67, 76
10, 330480, Note_on_c, 4, 55, 76
10, 330659, Note_on_c, 4, 67, 0
10, 330659, Note_on_c, 4, 55, 0
10, 330720, Note_on_c, 4, 55, 76
10, 330720, Note_on_c, 4, 67, 76
10, 330899, Note_on_c, 4, 55, 0
10, 330899, Note_on_c, 4, 67, 0
10, 330960, Note_on_c, 4, 67, 84
10, 330960, Note_on_c, 4, 55, 84
10, 332879, Note_on_c, 4, 67, 0
10, 332879, Note_on_c, 4, 55, 0
10, 335760, Note_on_c, 4, 58, 76
10, 335760, Note_on_c, 4, 46, 76
10, 335984, Note_on_c, 4, 58, 0
10, 335984, Note_on_c, 4, 46, 0
10, 336000, Note_on_c, 4, 58, 76
10, 336000, Note_on_c, 4, 46, 76
10, 336224, Note_on_c, 4, 58, 0
10, 336224, Note_on_c, 4, 46, 0
10, 336240, Note_on_c, 4, 46, 76
10, 336240, Note_on_c, 4, 58, 76
10, 336464, Note_on_c, 4, 46, 0
10, 336464, Note_on_c, 4, 58, 0
10, 336480, Note_on_c, 4, 46, 76
10, 336480, Note_on_c, 4, 58, 76
10, 336704, Note_on_c, 4, 46, 0
10, 336704, Note_on_c, 4, 58, 0
10, 336720, Note_on_c, 4, 58, 84
10, 336720, Note_on_c, 4, 46, 84
10, 337679, Note_on_c, 4, 58, 0
10, 337679, Note_on_c, 4, 46, 0
10, 337680, Note_on_c, 4, 58, 76
10, 337680, Note_on_c, 4, 46, 76
10, 338399, Note_on_c, 4, 58, 0
10, 338399, Note_on_c, 4, 46, 0
10, 338400, Note_on_c, 4, 58, 84
10, 338400, Note_on_c, 4, 46, 84
10, 338624, Note_on_c, 4, 58, 0
10, 338624, Note_on_c, 4, 46, 0
10, 338640, Note_on_c, 4, 46, 84
10, 338640, Note_on_c, 4, 58, 84
10, 338864, Note_on_c, 4, 46, 0
10, 338864, Note_on_c, 4, 58, 0
10, 338880, Note_on_c, 4, 58, 84
10, 338880, Note_on_c, 4, 46, 84
10, 339104, Note_on_c, 4, 58, 0
10, 339104, Note_on_c, 4, 46, 0
10, 339120, Note_on_c, 4, 58, 84
10, 339120, Note_on_c, 4, 46, 84
10, 339344, Note_on_c, 4, 58, 0
10, 339344, Note_on_c, 4, 46, 0
10, 339360, Note_on_c, 4, 63, 84
10, 339360, Note_on_c, 4, 51, 84
10, 339584, Note_on_c, 4, 63, 0
10, 339584, Note_on_c, 4, 51, 0
10, 339600, Note_on_c, 4, 51, 84
10, 339600, Note_on_c, 4, 63, 84
10, 339824, Note_on_c, 4, 51, 0
10, 339824, Note_on_c, 4, 63, 0
10, 339840, Note_on_c, 4, 63, 84
10, 339840, Note_on_c, 4, 51, 84
10, 340079, Note_on_c, 4, 63, 0
10, 340079, Note_on_c, 4, 51, 0
10, 354960, Note_on_c, 4, 63, 52
10, 355439, Note_on_c, 4, 63, 0
10, 355440, Note_on_c, 4, 66, 52
10, 355679, Note_on_c, 4, 66, 0
10, 355680, Note_on_c, 4, 63, 52
10, 356159, Note_on_c, 4, 63, 0
10, 356160, Note_on_c, 4, 58, 52
10, 356384, Note_on_c, 4, 58, 0
10, 356400, Note_on_c, 4, 63, 52
10, 356639, Note_on_c, 4, 63, 0
10, 356640, Note_on_c, 4, 66, 52
10, 356879, Note_on_c, 4, 66, 0
10, 356880, Note_on_c, 4, 66, 52
10, 356880, Note_on_c, 4, 70, 52
10, 357104, Note_on_c, 4, 66, 0
10, 357104, Note_on_c, 4, 70, 0
10, 357120, Note_on_c, 4, 66, 52
10, 357120, Note_on_c, 4, 68, 52
10, 357359, Note_on_c, 4, 66, 0
10, 357359, Note_on_c, 4, 68, 0
10, 357840, Note_on_c, 4, 66, 52
10, 358319, Note_on_c, 4, 66, 0
10, 358320, Note_on_c, 4, 68, 52
10, 358559, Note_on_c, 4, 68, 0
10, 358560, Note_on_c, 4, 66, 52
10, 359039, Note_on_c, 4, 66, 0
10, 359040, Note_on_c, 4, 63, 52
10, 359264, Note_on_c, 4, 63, 0
10, 359280, Note_on_c, 4, 63, 52
10, 359519, Note_on_c, 4, 63, 0
10, 359520, Note_on_c, 4, 66, 52
10, 359759, Note_on_c, 4, 66, 0
10, 359760, Note_on_c, 4, 66, 52
10, 359760, Note_on_c, 4, 68, 52
10, 359969, Note_on_c, 4, 66, 0
10, 359969, Note_on_c, 4, 68, 0
10, 359985, Control_c, 4, 11, 64
10, 360000, Note_on_c, 4, 65, 84
10, 360000, Note_on_c, 4, 68, 84
10, 361439, Note_on_c, 4, 65, 0
10, 361439, Note_on_c, 4, 68, 0
10, 361440, Note_on_c, 4, 65, 84
10, 361440, Note_on_c, 4, 68, 84
10, 362384, Note_on_c, 4, 65, 0
10, 362384, Note_on_c, 4, 68, 0
10, 362400, Note_on_c, 4, 68, 84
10, 362400, Note_on_c, 4, 65, 84
10, 362624, Note_on_c, 4, 68, 0
10, 362624, Note_on_c, 4, 65, 0
10, 362640, Note_on_c, 4, 65, 84
10, 362640, Note_on_c, 4, 68, 84
10, 362864, Note_on_c, 4, 65, 0
10, 362864, Note_on_c, 4, 68, 0
10, 362880, Note_on_c, 4, 68, 84
10, 362880, Control_c, 4, 11, 64
10, 362880, Note_on_c, 4, 70, 84
10, 363040, Control_c, 4, 11, 66
10, 363200, Control_c, 4, 11, 68
10, 363360, Control_c, 4, 11, 69
10, 363520, Control_c, 4, 11, 71
10, 363584, Note_on_c, 4, 68, 0
10, 363600, Note_on_c, 4, 65, 84
10, 363680, Control_c, 4, 11, 73
10, 363840, Control_c, 4, 11, 75
10, 364000, Control_c, 4, 11, 76
10, 364079, Note_on_c, 4, 65, 0
10, 364080, Note_on_c, 4, 68, 84
10, 364160, Control_c, 4, 11, 78
10, 364319, Note_on_c, 4, 70, 0
10, 364319, Note_on_c, 4, 68, 0
10, 364320, Control_c, 4, 11, 80
10, 364320, Note_on_c, 4, 65, 84
10, 364320, Note_on_c, 4, 70, 84
10, 364480, Control_c, 4, 11, 82
10, 364640, Control_c, 4, 11, 83
10, 364784, Note_on_c, 4, 65, 0
10, 364800, Note_on_c, 4, 58, 84
10, 364800, Control_c, 4, 11, 85
10, 364960, Control_c, 4, 11, 87
10, 365039, Note_on_c, 4, 58, 0
10, 365040, Note_on_c, 4, 65, 84
10, 365120, Control_c, 4, 11, 89
10, 365264, Note_on_c, 4, 70, 0
10, 365279, Note_on_c, 4, 65, 0
10, 365280, Note_on_c, 4, 68, 84
10, 365280, Control_c, 4, 11, 90
10, 365280, Note_on_c, 4, 70, 84
10, 365440, Control_c, 4, 11, 92
10, 365504, Note_on_c, 4, 70, 0
10, 365519, Note_on_c, 4, 68, 0
10, 365520, Note_on_c, 4, 70, 84
10, 365600, Control_c, 4, 11, 94
10, 365744, Note_on_c, 4, 70, 0
10, 365760, Note_on_c, 4, 70, 84
10, 365760, Note_on_c, 4, 66, 84
10, 365760, Control_c, 4, 11, 96
10, 365920, Control_c, 4, 11, 97
10, 366080, Control_c, 4, 11, 99
10, 366240, Control_c, 4, 11, 101
10, 366400, Control_c, 4, 11, 103
10, 366560, Control_c, 4, 11, 104
10, 366720, Control_c, 4, 11, 106
10, 366880, Control_c, 4, 11, 108
10, 367040, Control_c, 4, 11, 110
10, 367199, Note_on_c, 4, 70, 0
10, 367199, Note_on_c, 4, 66, 0
10, 367200, Note_on_c, 4, 66, 84
10, 367200, Note_on_c, 4, 70, 84
10, 367200, Control_c, 4, 11, 111
10, 367360, Control_c, 4, 11, 113
10, 367520, Control_c, 4, 11, 115
10, 367680, Control_c, 4, 11, 117
10, 367840, Control_c, 4, 11, 118
10, 367904, Note_on_c, 4, 66, 0
10, 367904, Note_on_c, 4, 70, 0
10, 367920, Note_on_c, 4, 51, 84
10, 367920, Note_on_c, 4, 63, 84
10, 368000, Control_c, 4, 11, 120
10, 368160, Control_c, 4, 11, 122
10, 368320, Control_c, 4, 11, 124
10, 368384, Note_on_c, 4, 51, 0
10, 368384, Note_on_c, 4, 63, 0
10, 368400, Note_on_c, 4, 54, 84
10, 368400, Note_on_c, 4, 66, 84
10, 368480, Control_c, 4, 11, 127
10, 368624, Note_on_c, 4, 54, 0
10, 368624, Note_on_c, 4, 66, 0
10, 368640, Note_on_c, 4, 51, 84
10, 368640, Note_on_c, 4, 66, 84
10, 370304, Note_on_c, 4, 51, 0
10, 370304, Note_on_c, 4, 66, 0
10, 370320, Note_on_c, 4, 51, 84
10, 370320, Note_on_c, 4, 66, 84
10, 370544, Note_on_c, 4, 51, 0
10, 370544, Note_on_c, 4, 66, 0
10, 370560, Note_on_c, 4, 51, 84
10, 370560, Note_on_c, 4, 66, 84
10, 370784, Note_on_c, 4, 51, 0
10, 370784, Note_on_c, 4, 66, 0
10, 370800, Note_on_c, 4, 66, 84
10, 370800, Note_on_c, 4, 51, 84
10, 371024, Note_on_c, 4, 66, 0
10, 371024, Note_on_c, 4, 51, 0
10, 371040, Note_on_c, 4, 51, 84
10, 371040, Note_on_c, 4, 66, 84
10, 371264, Note_on_c, 4, 51, 0
10, 371264, Note_on_c, 4, 66, 0
10, 371280, Note_on_c, 4, 51, 84
10, 371280, Note_on_c, 4, 66, 84
10, 371504, Note_on_c, 4, 51, 0
10, 371504, Note_on_c, 4, 66, 0
10, 371520, Note_on_c, 4, 51, 84
10, 371520, Note_on_c, 4, 66, 84
10, 371759, Note_on_c, 4, 51, 0
10, 371759, Note_on_c, 4, 66, 0
10, 376560, Note_on_c, 4, 51, 52
10, 377264, Note_on_c, 4, 51, 0
10, 377280, Control_c, 4, 11, 127
10, 377280, Note_on_c, 4, 50, 52
10, 377520, Control_c, 4, 11, 126
10, 377760, Control_c, 4, 11, 125
10, 377984, Note_on_c, 4, 50, 0
10, 378000, Control_c, 4, 11, 123
10, 378000, Note_on_c, 4, 50, 52
10, 378240, Control_c, 4, 11, 122
10, 378480, Control_c, 4, 11, 121
10, 378704, Note_on_c, 4, 50, 0
10, 378720, Control_c, 4, 11, 120
10, 378720, Note_on_c, 4, 51, 52
10, 378960, Control_c, 4, 11, 118
10, 379200, Control_c, 4, 11, 117
10, 379424, Note_on_c, 4, 51, 0
10, 379440, Note_on_c, 4, 51, 52
10, 379440, Control_c, 4, 11, 116
10, 379680, Control_c, 4, 11, 115
10, 379920, Control_c, 4, 11, 113
10, 380144, Note_on_c, 4, 51, 0
10, 380160, Note_on_c, 4, 46, 52
10, 380864, Note_on_c, 4, 46, 0
10, 380880, Note_on_c, 4, 46, 52
10, 381584, Note_on_c, 4, 46, 0
10, 381600, Note_on_c, 4, 46, 52
10, 382304, Note_on_c, 4, 46, 0
10, 382320, Note_on_c, 4, 46, 52
10, 383039, Note_on_c, 4, 46, 0
10, 384240, Control_c, 4, 11, 127
10, 384480, Note_on_c, 4, 46, 44
10, 385184, Note_on_c, 4, 46, 0
10, 385200, Note_on_c, 4, 46, 44
10, 385919, Note_on_c, 4, 46, 0
10, 387360, Note_on_c, 4, 46, 44
10, 388064, Note_on_c, 4, 46, 0
10, 388080, Note_on_c, 4, 46, 44
10, 388799, Note_on_c, 4, 46, 0
10, 391680, Note_on_c, 4, 51, 44
10, 392144, Note_on_c, 4, 51, 0
10, 392160, Note_on_c, 4, 55, 44
10, 392384, Note_on_c, 4, 55, 0
10, 392400, Note_on_c, 4, 51, 44
10, 392864, Note_on_c, 4, 51, 0
10, 392880, Note_on_c, 4, 46, 44
10, 393104, Note_on_c, 4, 46, 0
10, 393120, Note_on_c, 4, 46, 76
10, 393824, Note_on_c, 4, 46, 0
10, 393840, Note_on_c, 4, 58, 84
10, 394544, Note_on_c, 4, 58, 0
10, 394560, Note_on_c, 4, 55, 84
10, 394799, Note_on_c, 4, 55, 0
10, 401760, Marker_t, "Muta in F"
10, 401760, Note_on_c, 4, 65, 48
10, 402239, Note_on_c, 4, 65, 0
10, 402240, Note_on_c, 4, 69, 48
10, 402479, Note_on_c, 4, 69, 0
10, 402480, Note_on_c, 4, 65, 48
10, 402959, Note_on_c, 4, 65, 0
10, 402960, Note_on_c, 4, 60, 48
10, 403184, Note_on_c, 4, 60, 0
10, 403200, Note_on_c, 4, 65, 48
10, 403439, Note_on_c, 4, 65, 0
10, 403440, Note_on_c, 4, 69, 48
10, 403679, Note_on_c, 4, 69, 0
10, 403680, Note_on_c, 4, 72, 48
10, 403904, Note_on_c, 4, 72, 0
10, 403920, Note_on_c, 4, 72, 48
10, 404864, Note_on_c, 4, 72, 0
10, 404880, Note_on_c, 4, 72, 48
10, 405104, Note_on_c, 4, 72, 0
10, 405120, Note_on_c, 4, 72, 48
10, 405329, Note_on_c, 4, 72, 0
10, 405345, Control_c, 4, 11, 96
10, 405360, Note_on_c, 4, 72, 68
10, 406080, Control_c, 4, 11, 96
10, 406200, Control_c, 4, 11, 99
10, 406320, Control_c, 4, 11, 101
10, 406440, Control_c, 4, 11, 104
10, 406560, Control_c, 4, 11, 106
10, 406680, Control_c, 4, 11, 109
10, 406800, Control_c, 4, 11, 112
10, 406920, Control_c, 4, 11, 114
10, 407040, Control_c, 4, 11, 117
10, 407160, Control_c, 4, 11, 119
10, 407280, Control_c, 4, 11, 122
10, 407400, Control_c, 4, 11, 127
10, 407519, Note_on_c, 4, 72, 0
10, 407520, Note_on_c, 4, 73, 52
10, 407759, Note_on_c, 4, 73, 0
10, 408240, Marker_t, "Muta in E-flat"
10, 413040, Control_c, 4, 11, 64
10, 413280, Note_on_c, 4, 46, 76
10, 414720, Control_c, 4, 11, 64
10, 414840, Control_c, 4, 11, 67
10, 414960, Control_c, 4, 11, 69
10, 415080, Control_c, 4, 11, 72
10, 415200, Control_c, 4, 11, 75
10, 415320, Control_c, 4, 11, 77
10, 415440, Control_c, 4, 11, 80
10, 415560, Control_c, 4, 11, 82
10, 415680, Control_c, 4, 11, 85
10, 415800, Control_c, 4, 11, 88
10, 415920, Control_c, 4, 11, 90
10, 416040, Control_c, 4, 11, 93
10, 416160, Control_c, 4, 11, 96
10, 416264, Note_on_c, 4, 46, 0
10, 416280, Control_c, 4, 11, 98
10, 416280, Note_on_c, 4, 46, 76
10, 416384, Note_on_c, 4, 46, 0
10, 416400, Control_c, 4, 11, 101
10, 416400, Note_on_c, 4, 46, 76
10, 416504, Note_on_c, 4, 46, 0
10, 416520, Note_on_c, 4, 46, 76
10, 416520, Control_c, 4, 11, 103
10, 416624, Note_on_c, 4, 46, 0
10, 416640, Control_c, 4, 11, 106
10, 416640, Note_on_c, 4, 46, 76
10, 416744, Note_on_c, 4, 46, 0
10, 416760, Note_on_c, 4, 46, 76
10, 416760, Control_c, 4, 11, 109
10, 416864, Note_on_c, 4, 46, 0
10, 416880, Note_on_c, 4, 46, 76
10, 416880, Control_c, 4, 11, 111
10, 416984, Note_on_c, 4, 46, 0
10, 417000, Control_c, 4, 11, 114
10, 417000, Note_on_c, 4, 46, 76
10, 417104, Note_on_c, 4, 46, 0
10, 417120, Control_c, 4, 11, 117
10, 417120, Note_on_c, 4, 46, 76
10, 417224, Note_on_c, 4, 46, 0
10, 417240, Control_c, 4, 11, 119
10, 417240, Note_on_c, 4, 46, 76
10, 417344, Note_on_c, 4, 46, 0
10, 417360, Note_on_c, 4, 58, 76
10, 417360, Control_c, 4, 11, 122
10, 417464, Note_on_c, 4, 58, 0
10, 417480, Control_c, 4, 11, 127
10, 417480, Note_on_c, 4, 58, 76
10, 417584, Note_on_c, 4, 58, 0
10, 417600, Note_on_c, 4, 55, 76
10, 419264, Note_on_c, 4, 55, 0
10, 419280, Note_on_c, 4, 55, 76
10, 419504, Note_on_c, 4, 55, 0
10, 419520, Note_on_c, 4, 55, 76
10, 419744, Note_on_c, 4, 55, 0
10, 419760, Note_on_c, 4, 55, 76
10, 420239, Note_on_c, 4, 55, 0
10, 420720, Note_on_c, 4, 51, 76
10, 420944, Note_on_c, 4, 51, 0
10, 420960, Note_on_c, 4, 51, 76
10, 421184, Note_on_c, 4, 51, 0
10, 421200, Note_on_c, 4, 51, 76
10, 421664, Note_on_c, 4, 51, 0
10, 421680, Note_on_c, 4, 51, 84
10, 421904, Note_on_c, 4, 51, 0
10, 421920, Note_on_c, 4, 51, 80
10, 422624, Note_on_c, 4, 51, 0
10, 422640, Note_on_c, 4, 51, 80
10, 423344, Note_on_c, 4, 51, 0
10, 423360, Note_on_c, 4, 51, 80
10, 424304, Note_on_c, 4, 51, 0
10, 424320, Note_on_c, 4, 51, 80
10, 424544, Note_on_c, 4, 51, 0
10, 424560, Note_on_c, 4, 51, 80
10, 424784, Note_on_c, 4, 51, 0
10, 424800, Note_on_c, 4, 51, 84
10, 425264, Note_on_c, 4, 51, 0
10, 425280, Note_on_c, 4, 55, 92
10, 425504, Note_on_c, 4, 55, 0
10, 425520, Note_on_c, 4, 51, 84
10, 425984, Note_on_c, 4, 51, 0
10, 426000, Note_on_c, 4, 46, 92
10, 426224, Note_on_c, 4, 46, 0
10, 426240, Note_on_c, 4, 51, 84
10, 426464, Note_on_c, 4, 51, 0
10, 426480, Note_on_c, 4, 55, 84
10, 426704, Note_on_c, 4, 55, 0
10, 426720, Note_on_c, 4, 58, 84
10, 426944, Note_on_c, 4, 58, 0
10, 426960, Note_on_c, 4, 51, 84
10, 427424, Note_on_c, 4, 51, 0
10, 427440, Note_on_c, 4, 55, 92
10, 427904, Note_on_c, 4, 55, 0
10, 427920, Note_on_c, 4, 55, 84
10, 428144, Note_on_c, 4, 55, 0
10, 428160, Note_on_c, 4, 55, 84
10, 428384, Note_on_c, 4, 55, 0
10, 428400, Note_on_c, 4, 55, 84
10, 428864, Note_on_c, 4, 55, 0
10, 428880, Note_on_c, 4, 55, 92
10, 429104, Note_on_c, 4, 55, 0
10, 429120, Note_on_c, 4, 65, 84
10, 429824, Note_on_c, 4, 65, 0
10, 429840, Note_on_c, 4, 63, 84
10, 430544, Note_on_c, 4, 63, 0
10, 430560, Note_on_c, 4, 58, 84
10, 430784, Note_on_c, 4, 58, 0
10, 430800, Note_on_c, 4, 46, 52
10, 432944, Note_on_c, 4, 46, 0
10, 432960, Note_on_c, 4, 46, 52
10, 433184, Note_on_c, 4, 46, 0
10, 433200, Note_on_c, 4, 46, 52
10, 433424, Note_on_c, 4, 46, 0
10, 433440, Note_on_c, 4, 46, 52
10, 435104, Note_on_c, 4, 46, 0
10, 435120, Note_on_c, 4, 55, 52
10, 435464, Note_on_c, 4, 55, 0
10, 435480, Note_on_c, 4, 51, 52
10, 435584, Note_on_c, 4, 51, 0
10, 435600, Note_on_c, 4, 46, 52
10, 435824, Note_on_c, 4, 46, 0
10, 435840, Note_on_c, 4, 46, 52
10, 436064, Note_on_c, 4, 46, 0
10, 436080, Note_on_c, 4, 46, 52
10, 436304, Note_on_c, 4, 46, 0
10, 436320, Note_on_c, 4, 46, 52
10, 437984, Note_on_c, 4, 46, 0
10, 438000, Note_on_c, 4, 46, 84
10, 438344, Note_on_c, 4, 46, 0
10, 438360, Note_on_c, 4, 46, 84
10, 438464, Note_on_c, 4, 46, 0
10, 438480, Note_on_c, 4, 46, 84
10, 438704, Note_on_c, 4, 46, 0
10, 438720, Note_on_c, 4, 46, 84
10, 438944, Note_on_c, 4, 46, 0
10, 438960, Note_on_c, 4, 46, 84
10, 439169, Note_on_c, 4, 46, 0
10, 439185, Control_c, 4, 11, 96
10, 439200, Control_c, 4, 11, 96
10, 439200, Note_on_c, 4, 51, 68
10, 439260, Control_c, 4, 11, 99
10, 439320, Control_c, 4, 11, 101
10, 439380, Control_c, 4, 11, 104
10, 439440, Control_c, 4, 11, 106
10, 439500, Control_c, 4, 11, 109
10, 439560, Control_c, 4, 11, 112
10, 439620, Control_c, 4, 11, 114
10, 439680, Control_c, 4, 11, 117
10, 439740, Control_c, 4, 11, 119
10, 439800, Control_c, 4, 11, 122
10, 439860, Control_c, 4, 11, 124
10, 439920, Control_c, 4, 11, 127
10, 439980, Control_c, 4, 11, 124
10, 440040, Control_c, 4, 11, 122
10, 440100, Control_c, 4, 11, 119
10, 440160, Control_c, 4, 11, 117
10, 440220, Control_c, 4, 11, 114
10, 440280, Control_c, 4, 11, 112
10, 440340, Control_c, 4, 11, 109
10, 440400, Control_c, 4, 11, 106
10, 440460, Control_c, 4, 11, 104
10, 440520, Control_c, 4, 11, 101
10, 440580, Control_c, 4, 11, 96
10, 440879, Note_on_c, 4, 51, 0
10, 440880, Note_on_c, 4, 58, 68
10, 441104, Note_on_c, 4, 58, 0
10, 441120, Note_on_c, 4, 58, 68
10, 441329, Note_on_c, 4, 58, 0
10, 441360, Note_on_c, 4, 58, 68
10, 441569, Note_on_c, 4, 58, 0
10, 441600, Note_on_c, 4, 58, 68
10, 441809, Note_on_c, 4, 58, 0
10, 441840, Note_on_c, 4, 58, 68
10, 442049, Note_on_c, 4, 58, 0
10, 442080, Note_on_c, 4, 58, 68
10, 442319, Note_on_c, 4, 58, 0
10, 444720, Control_c, 4, 11, 127
10, 444960, Note_on_c, 4, 65, 76
10, 445139, Note_on_c, 4, 65, 0
10, 445200, Note_on_c, 4, 65, 76
10, 445379, Note_on_c, 4, 65, 0
10, 446280, Note_on_c, 4, 65, 76
10, 446384, Note_on_c, 4, 65, 0
10, 446400, Note_on_c, 4, 63, 76
10, 446579, Note_on_c, 4, 63, 0
10, 446640, Note_on_c, 4, 63, 76
10, 446819, Note_on_c, 4, 63, 0
10, 447720, Note_on_c, 4, 55, 76
10, 447824, Note_on_c, 4, 55, 0
10, 447840, Note_on_c, 4, 55, 76
10, 448019, Note_on_c, 4, 55, 0
10, 448080, Note_on_c, 4, 55, 76
10, 448259, Note_on_c, 4, 55, 0
10, 449160, Note_on_c, 4, 55, 76
10, 449264, Note_on_c, 4, 55, 0
10, 449280, Note_on_c, 4, 65, 76
10, 449519, Note_on_c, 4, 65, 0
10, 450960, Note_on_c, 4, 51, 76
10, 451184, Note_on_c, 4, 51, 0
10, 451200, Note_on_c, 4, 51, 76
10, 451424, Note_on_c, 4, 51, 0
10, 451440, Note_on_c, 4, 51, 76
10, 451664, Note_on_c, 4, 51, 0
10, 451680, Note_on_c, 4, 51, 76
10, 451904, Note_on_c, 4, 51, 0
10, 451920, Note_on_c, 4, 51, 76
10, 452144, Note_on_c, 4, 51, 0
10, 452160, Note_on_c, 4, 51, 76
10, 452399, Note_on_c, 4, 51, 0
10, 453600, Control_c, 4, 11, 112
10, 454560, Note_on_c, 4, 55, 84
10, 454784, Note_on_c, 4, 55, 0
10, 454800, Note_on_c, 4, 55, 84
10, 455024, Note_on_c, 4, 55, 0
10, 455040, Note_on_c, 4, 46, 84
10, 455040, Control_c, 4, 11, 112
10, 455160, Control_c, 4, 11, 113
10, 455280, Control_c, 4, 11, 115
10, 455400, Control_c, 4, 11, 116
10, 455520, Control_c, 4, 11, 117
10, 455640, Control_c, 4, 11, 118
10, 455760, Control_c, 4, 11, 120
10, 455880, Control_c, 4, 11, 121
10, 456000, Control_c, 4, 11, 122
10, 456120, Control_c, 4, 11, 123
10, 456240, Control_c, 4, 11, 125
10, 456360, Control_c, 4, 11, 127
10, 456464, Note_on_c, 4, 46, 0
10, 456480, Note_on_c, 4, 46, 84
10, 456584, Note_on_c, 4, 46, 0
10, 456600, Note_on_c, 4, 46, 84
10, 456704, Note_on_c, 4, 46, 0
10, 456720, Note_on_c, 4, 46, 84
10, 456824, Note_on_c, 4, 46, 0
10, 456840, Note_on_c, 4, 46, 84
10, 456944, Note_on_c, 4, 46, 0
10, 456960, Note_on_c, 4, 46, 84
10, 457064, Note_on_c, 4, 46, 0
10, 457080, Note_on_c, 4, 46, 84
10, 457184, Note_on_c, 4, 46, 0
10, 457200, Note_on_c, 4, 46, 84
10, 457304, Note_on_c, 4, 46, 0
10, 457320, Note_on_c, 4, 46, 84
10, 457424, Note_on_c, 4, 46, 0
10, 457440, Note_on_c, 4, 46, 84
10, 457544, Note_on_c, 4, 46, 0
10, 457560, Note_on_c, 4, 46, 84
10, 457664, Note_on_c, 4, 46, 0
10, 457680, Note_on_c, 4, 46, 84
10, 457784, Note_on_c, 4, 46, 0
10, 457800, Note_on_c, 4, 46, 84
10, 457904, Note_on_c, 4, 46, 0
10, 457920, Note_on_c, 4, 51, 84
10, 458159, Note_on_c, 4, 51, 0
10, 469200, Note_on_c, 4, 65, 52
10, 469424, Note_on_c, 4, 65, 0
10, 469440, Note_on_c, 4, 58, 52
10, 469679, Note_on_c, 4, 58, 0
10, 472080, Control_c, 4, 11, 64
10, 472320, Note_on_c, 4, 46, 76
10, 472320, Note_on_c, 4, 58, 76
10, 473760, Control_c, 4, 11, 64
10, 473840, Control_c, 4, 11, 66
10, 473920, Control_c, 4, 11, 68
10, 474000, Control_c, 4, 11, 69
10, 474080, Control_c, 4, 11, 71
10, 474160, Control_c, 4, 11, 73
10, 474240, Control_c, 4, 11, 75
10, 474320, Control_c, 4, 11, 76
10, 474400, Control_c, 4, 11, 78
10, 474480, Control_c, 4, 11, 80
10, 474560, Control_c, 4, 11, 82
10, 474640, Control_c, 4, 11, 83
10, 474720, Control_c, 4, 11, 85
10, 474800, Control_c, 4, 11, 87
10, 474880, Control_c, 4, 11, 89
10, 474960, Control_c, 4, 11, 90
10, 475040, Control_c, 4, 11, 92
10, 475120, Control_c, 4, 11, 94
10, 475200, Control_c, 4, 11, 96
10, 475280, Control_c, 4, 11, 97
10, 475304, Note_on_c, 4, 46, 0
10, 475304, Note_on_c, 4, 58, 0
10, 475320, Note_on_c, 4, 46, 76
10, 475320, Note_on_c, 4, 70, 76
10, 475360, Control_c, 4, 11, 99
10, 475424, Note_on_c, 4, 46, 0
10, 475424, Note_on_c, 4, 70, 0
10, 475440, Note_on_c, 4, 70, 76
10, 475440, Control_c, 4, 11, 101
10, 475440, Note_on_c, 4, 46, 76
10, 475520, Control_c, 4, 11, 103
10, 475544, Note_on_c, 4, 70, 0
10, 475544, Note_on_c, 4, 46, 0
10, 475560, Note_on_c, 4, 46, 76
10, 475560, Note_on_c, 4, 70, 76
10, 475600, Control_c, 4, 11, 104
10, 475664, Note_on_c, 4, 46, 0
10, 475664, Note_on_c, 4, 70, 0
10, 475680, Note_on_c, 4, 70, 76
10, 475680, Control_c, 4, 11, 106
10, 475680, Note_on_c, 4, 46, 76
10, 475760, Control_c, 4, 11, 108
10, 475784, Note_on_c, 4, 70, 0
10, 475784, Note_on_c, 4, 46, 0
10, 475800, Note_on_c, 4, 46, 76
10, 475800, Note_on_c, 4, 70, 76
10, 475840, Control_c, 4, 11, 110
10, 475904, Note_on_c, 4, 46, 0
10, 475904, Note_on_c, 4, 70, 0
10, 475920, Note_on_c, 4, 46, 76
10, 475920, Note_on_c, 4, 70, 76
10, 475920, Control_c, 4, 11, 111
10, 476000, Control_c, 4, 11, 113
10, 476024, Note_on_c, 4, 46, 0
10, 476024, Note_on_c, 4, 70, 0
10, 476040, Note_on_c, 4, 46, 76
10, 476040, Note_on_c, 4, 70, 76
10, 476080, Control_c, 4, 11, 115
10, 476144, Note_on_c, 4, 46, 0
10, 476144, Note_on_c, 4, 70, 0
10, 476160, Note_on_c, 4, 70, 76
10, 476160, Note_on_c, 4, 46, 76
10, 476160, Control_c, 4, 11, 117
10, 476240, Control_c, 4, 11, 118
10, 476264, Note_on_c, 4, 70, 0
10, 476264, Note_on_c, 4, 46, 0
10, 476280, Note_on_c, 4, 46, 76
10, 476280, Note_on_c, 4, 70, 76
10, 476320, Control_c, 4, 11, 120
10, 476384, Note_on_c, 4, 46, 0
10, 476384, Note_on_c, 4, 70, 0
10, 476400, Note_on_c, 4, 46, 76
10, 476400, Note_on_c, 4, 70, 76
10, 476400, Control_c, 4, 11, 122
10, 476480, Control_c, 4, 11, 124
10, 476504, Note_on_c, 4, 46, 0
10, 476504, Note_on_c, 4, 70, 0
10, 476520, Note_on_c, 4, 70, 76
10, 476520, Note_on_c, 4, 46, 76
10, 476560, Control_c, 4, 11, 127
10, 476624, Note_on_c, 4, 70, 0
10, 476624, Note_on_c, 4, 46, 0
10, 476640, Note_on_c, 4, 58, 76
10, 476640, Note_on_c, 4, 46, 76
10, 476864, Note_on_c, 4, 58, 0
10, 476864, Note_on_c, 4, 46, 0
10, 476880, Note_on_c, 4, 46, 84
10, 476880, Note_on_c, 4, 67, 84
10, 477329, Note_on_c, 4, 46, 0
10, 477329, Note_on_c, 4, 67, 0
10, 477600, Note_on_c, 4, 67, 84
10, 477600, Note_on_c, 4, 46, 84
10, 478049, Note_on_c, 4, 67, 0
10, 478049, Note_on_c, 4, 46, 0
10, 478320, Note_on_c, 4, 68, 84
10, 478320, Note_on_c, 4, 46, 84
10, 478769, Note_on_c, 4, 68, 0
10, 478769, Note_on_c, 4, 46, 0
10, 479040, Note_on_c, 4, 46, 84
10, 479040, Note_on_c, 4, 65, 84
10, 479249, Note_on_c, 4, 46, 0
10, 479249, Note_on_c, 4, 65, 0
10, 479280, Note_on_c, 4, 65, 76
10, 479280, Note_on_c, 4, 46, 76
10, 479504, Note_on_c, 4, 65, 0
10, 479504, Note_on_c, 4, 46, 0
10, 479520, Note_on_c, 4, 51, 84
10, 479520, Note_on_c, 4, 67, 84
10, 479744, Note_on_c, 4, 51, 0
10, 479744, Note_on_c, 4, 67, 0
10, 479760, Note_on_c, 4, 70, 92
10, 479760, Note_on_c, 4, 58, 92
10, 480104, Note_on_c, 4, 70, 0
10, 480104, Note_on_c, 4, 58, 0
10, 480120, Note_on_c, 4, 67, 84
10, 480120, Note_on_c, 4, 55, 84
10, 480224, Note_on_c, 4, 67, 0
10, 480224, Note_on_c, 4, 55, 0
10, 480240, Note_on_c, 4, 63, 84
10, 480240, Note_on_c, 4, 51, 84
10, 480419, Note_on_c, 4, 63, 0
10, 480419, Note_on_c, 4, 51, 0
10, 480480, Note_on_c, 4, 67, 92
10, 480480, Note_on_c, 4, 55, 92
10, 480824, Note_on_c, 4, 67, 0
10, 480824, Note_on_c, 4, 55, 0
10, 480840, Note_on_c, 4, 58, 84
10, 480840, Note_on_c, 4, 46, 84
10, 480944, Note_on_c, 4, 58, 0
10, 480944, Note_on_c, 4, 46, 0
10, 480960, Note_on_c, 4, 65, 84
10, 480960, Note_on_c, 4, 46, 84
10, 481139, Note_on_c, 4, 65, 0
10, 481139, Note_on_c, 4, 46, 0
10, 481200, Note_on_c, 4, 68, 92
10, 481200, Note_on_c, 4, 46, 92
10, 481544, Note_on_c, 4, 68, 0
10, 481544, Note_on_c, 4, 46, 0
10, 481560, Note_on_c, 4, 58, 84
10, 481560, Note_on_c, 4, 46, 84
10, 481664, Note_on_c, 4, 58, 0
10, 481664, Note_on_c, 4, 46, 0
10, 481680, Note_on_c, 4, 65, 84
10, 481680, Note_on_c, 4, 46, 84
10, 481904, Note_on_c, 4, 65, 0
10, 481904, Note_on_c, 4, 46, 0
10, 481920, Note_on_c, 4, 46, 92
10, 481920, Note_on_c, 4, 65, 92
10, 482264, Note_on_c, 4, 46, 0
10, 482264, Note_on_c, 4, 65, 0
10, 482280, Note_on_c, 4, 46, 84
10, 482280, Note_on_c, 4, 58, 84
10, 482384, Note_on_c, 4, 46, 0
10, 482384, Note_on_c, 4, 58, 0
10, 482400, Note_on_c, 4, 51, 84
10, 482400, Note_on_c, 4, 63, 84
10, 483359, Note_on_c, 4, 51, 0
10, 483359, Note_on_c, 4, 63, 0
10, 485880, Note_on_c, 4, 67, 84
10, 485880, Note_on_c, 4, 55, 84
10, 485984, Note_on_c, 4, 67, 0
10, 485984, Note_on_c, 4, 55, 0
10, 486000, Note_on_c, 4, 55, 84
10, 486000, Note_on_c, 4, 67, 84
10, 486104, Note_on_c, 4, 55, 0
10, 486104, Note_on_c, 4, 67, 0
10, 486120, Note_on_c, 4, 55, 84
10, 486120, Note_on_c, 4, 67, 84
10, 486224, Note_on_c, 4, 55, 0
10, 486224, Note_on_c, 4, 67, 0
10, 486240, Note_on_c, 4, 67, 84
10, 486240, Note_on_c, 4, 55, 84
10, 486344, Note_on_c, 4, 67, 0
10, 486344, Note_on_c, 4, 55, 0
10, 486360, Note_on_c, 4, 55, 84
10, 486360, Note_on_c, 4, 67, 84
10, 486464, Note_on_c, 4, 55, 0
10, 486464, Note_on_c, 4, 67, 0
10, 486480, Note_on_c, 4, 55, 84
10, 486480, Note_on_c, 4, 67, 84
10, 486584, Note_on_c, 4, 55, 0
10, 486584, Note_on_c, 4, 67, 0
10, 486600, Note_on_c, 4, 67, 84
10, 486600, Note_on_c, 4, 55, 84
10, 486704, Note_on_c, 4, 67, 0
10, 486704, Note_on_c, 4, 55, 0
10, 486720, Note_on_c, 4, 55, 84
10, 486720, Note_on_c, 4, 67, 84
10, 486899, Note_on_c, 4, 55, 0
10, 486899, Note_on_c, 4, 67, 0
10, 486960, Note_on_c, 4, 55, 84
10, 486960, Note_on_c, 4, 67, 84
10, 487139, Note_on_c, 4, 55, 0
10, 487139, Note_on_c, 4, 67, 0
10, 487200, Note_on_c, 4, 67, 84
10, 487200, Note_on_c, 4, 55, 84
10, 487379, Note_on_c, 4, 67, 0
10, 487379, Note_on_c, 4, 55, 0
10, 487680, Note_on_c, 4, 51, 84
10, 487680, Note_on_c, 4, 63, 84
10, 487859, Note_on_c, 4, 51, 0
10, 487859, Note_on_c, 4, 63, 0
10, 487920, Note_on_c, 4, 51, 84
10, 487920, Note_on_c, 4, 63, 84
10, 488099, Note_on_c, 4, 51, 0
10, 488099, Note_on_c, 4, 63, 0
10, 488400, Note_on_c, 4, 51, 84
10, 488400, Note_on_c, 4, 65, 84
10, 488579, Note_on_c, 4, 51, 0
10, 488579, Note_on_c, 4, 65, 0
10, 488640, Note_on_c, 4, 65, 84
10, 488640, Note_on_c, 4, 46, 84
10, 488819, Note_on_c, 4, 65, 0
10, 488819, Note_on_c, 4, 46, 0
10, 489120, Note_on_c, 4, 67, 84
10, 489120, Note_on_c, 4, 55, 84
10, 489299, Note_on_c, 4, 67, 0
10, 489299, Note_on_c, 4, 55, 0
10, 489360, Note_on_c, 4, 55, 84
10, 489360, Note_on_c, 4, 67, 84
10, 489539, Note_on_c, 4, 55, 0
10, 489539, Note_on_c, 4, 67, 0
10, 489840, Note_on_c, 4, 51, 84
10, 489840, Note_on_c, 4, 63, 84
10, 490019, Note_on_c, 4, 51, 0
10, 490019, Note_on_c, 4, 63, 0
10, 490080, Note_on_c, 4, 51, 84
10, 490080, Note_on_c, 4, 63, 84
10, 490259, Note_on_c, 4, 51, 0
10, 490259, Note_on_c, 4, 63, 0
10, 490560, Note_on_c, 4, 63, 92
10, 490560, Note_on_c, 4, 51, 92
10, 490739, Note_on_c, 4, 63, 0
10, 490739, Note_on_c, 4, 51, 0
10, 491040, Note_on_c, 4, 51, 92
10, 491040, Note_on_c, 4, 63, 92
10, 491219, Note_on_c, 4, 51, 0
10, 491219, Note_on_c, 4, 63, 0
10, 491520, Note_on_c, 4, 51, 92
10, 491520, Note_on_c, 4, 63, 92
10, 491699, Note_on_c, 4, 51, 0
10, 491699, Note_on_c, 4, 63, 0
10, 492000, Note_on_c, 4, 63, 92
10, 492000, Note_on_c, 4, 51, 92
10, 492179, Note_on_c, 4, 63, 0
10, 492179, Note_on_c, 4, 51, 0
10, 492480, Note_on_c, 4, 63, 92
10, 492480, Note_on_c, 4, 51, 92
10, 492659, Note_on_c, 4, 63, 0
10, 492659, Note_on_c, 4, 51, 0
10, 492960, Note_on_c, 4, 63, 92
10, 492960, Note_on_c, 4, 51, 92
10, 493139, Note_on_c, 4, 63, 0
10, 493139, Note_on_c, 4, 51, 0
10, 493200, Note_on_c, 4, 51, 52
10, 493200, Note_on_c, 4, 63, 52
10, 493439, Note_on_c, 4, 51, 0
10, 493439, Note_on_c, 4, 63, 0
10, 493440, Note_on_c, 4, 55, 52
10, 493440, Note_on_c, 4, 67, 52
10, 493679, Note_on_c, 4, 55, 0
10, 493679, Note_on_c, 4, 67, 0
10, 493680, Note_on_c, 4, 58, 52
10, 493680, Note_on_c, 4, 70, 52
10, 493904, Note_on_c, 4, 58, 0
10, 493904, Note_on_c, 4, 70, 0
10, 493920, Note_on_c, 4, 51, 68
10, 493920, Note_on_c, 4, 63, 68
10, 494040, Control_c, 4, 11, 96
10, 494879, Note_on_c, 4, 51, 0
10, 494879, Note_on_c, 4, 63, 0
10, 494880, Note_on_c, 4, 67, 68
10, 494880, Note_on_c, 4, 55, 68
10, 495119, Note_on_c, 4, 67, 0
10, 495119, Note_on_c, 4, 55, 0
10, 495120, Note_on_c, 4, 70, 68
10, 495120, Note_on_c, 4, 58, 68
10, 495329, Note_on_c, 4, 70, 0
10, 495329, Note_on_c, 4, 58, 0
10, 495345, Control_c, 4, 11, 127
10, 495360, Note_on_c, 4, 63, 68
10, 495360, Note_on_c, 4, 51, 68
10, 495480, Control_c, 4, 11, 96
10, 496304, Note_on_c, 4, 63, 0
10, 496304, Note_on_c, 4, 51, 0
10, 496320, Note_on_c, 4, 63, 68
10, 496559, Note_on_c, 4, 63, 0
10, 496800, Control_c, 4, 11, 127
10, 497040, Note_on_c, 4, 65, 52
10, 497219, Note_on_c, 4, 65, 0
10, 497520, Note_on_c, 4, 65, 52
10, 497520, Note_on_c, 4, 58, 52
10, 497699, Note_on_c, 4, 65, 0
10, 497699, Note_on_c, 4, 58, 0
10, 498000, Note_on_c, 4, 58, 52
10, 498000, Note_on_c, 4, 65, 52
10, 498179, Note_on_c, 4, 58, 0
10, 498179, Note_on_c, 4, 65, 0
10, 498480, Note_on_c, 4, 67, 52
10, 498480, Note_on_c, 4, 63, 52
10, 498659, Note_on_c, 4, 67, 0
10, 498659, Note_on_c, 4, 63, 0
10, 500520, Note_on_c, 4, 70, 75
10, 500520, Note_on_c, 4, 58, 75
10, 500624, Note_on_c, 4, 70, 0
10, 500624, Note_on_c, 4, 58, 0
10, 500640, Note_on_c, 4, 58, 76
10, 500640, Note_on_c, 4, 70, 76
10, 500744, Note_on_c, 4, 58, 0
10, 500744, Note_on_c, 4, 70, 0
10, 500760, Note_on_c, 4, 58, 78
10, 500760, Note_on_c, 4, 70, 78
10, 500864, Note_on_c, 4, 58, 0
10, 500864, Note_on_c, 4, 70, 0
10, 500880, Note_on_c, 4, 55, 80
10, 500880, Note_on_c, 4, 67, 80
10, 500984, Note_on_c, 4, 55, 0
10, 500984, Note_on_c, 4, 67, 0
10, 501000, Note_on_c, 4, 63, 82
10, 501000, Note_on_c, 4, 51, 82
10, 501104, Note_on_c, 4, 63, 0
10, 501104, Note_on_c, 4, 51, 0
10, 501120, Note_on_c, 4, 65, 84
10, 501120, Note_on_c, 4, 46, 84
10, 501824, Note_on_c, 4, 65, 0
10, 501824, Note_on_c, 4, 46, 0
10, 501840, Note_on_c, 4, 63, 76
10, 501840, Note_on_c, 4, 51, 76
10, 502079, Note_on_c, 4, 63, 0
10, 502079, Note_on_c, 4, 51, 0
10, 502560, Note_on_c, 4, 51, 76
10, 502560, Note_on_c, 4, 63, 76
10, 502799, Note_on_c, 4, 51, 0
10, 502799, Note_on_c, 4, 63, 0
10, 503280, Note_on_c, 4, 63, 76
10, 503280, Note_on_c, 4, 51, 76
10, 503519, Note_on_c, 4, 63, 0
10, 503519, Note_on_c, 4, 51, 0
10, 504000, Note_on_c, 4, 63, 76
10, 504000, Note_on_c, 4, 51, 76
10, 504179, Note_on_c, 4, 63, 0
10, 504179, Note_on_c, 4, 51, 0
10, 504240, Note_on_c, 4, 51, 76
10, 504240, Note_on_c, 4, 63, 76
10, 504419, Note_on_c, 4, 51, 0
10, 504419, Note_on_c, 4, 63, 0
10, 504480, Note_on_c, 4, 63, 76
10, 504480, Note_on_c, 4, 51, 76
10, 504659, Note_on_c, 4, 63, 0
10, 504659, Note_on_c, 4, 51, 0
10, 504720, Note_on_c, 4, 51, 76
10, 504720, Note_on_c, 4, 63, 76
10, 504959, Note_on_c, 4, 51, 0
10, 504959, Note_on_c, 4, 63, 0
10, 507240, Note_on_c, 4, 51, 52
10, 507359, Note_on_c, 4, 51, 0
10, 507360, Note_on_c, 4, 55, 52
10, 507479, Note_on_c, 4, 55, 0
10, 507480, Note_on_c, 4, 58, 52
10, 507584, Note_on_c, 4, 58, 0
10, 507600, Note_on_c, 4, 63, 52
10, 507839, Note_on_c, 4, 63, 0
10, 509040, Note_on_c, 4, 68, 76
10, 509040, Note_on_c, 4, 65, 76
10, 510479, Note_on_c, 4, 68, 0
10, 510479, Note_on_c, 4, 65, 0
10, 511920, Note_on_c, 4, 67, 84
10, 511920, Note_on_c, 4, 55, 84
10, 512024, Note_on_c, 4, 67, 0
10, 512024, Note_on_c, 4, 55, 0
10, 512040, Note_on_c, 4, 67, 84
10, 512040, Note_on_c, 4, 55, 84
10, 512144, Note_on_c, 4, 67, 0
10, 512144, Note_on_c, 4, 55, 0
10, 512160, Note_on_c, 4, 55, 84
10, 512160, Note_on_c, 4, 67, 84
10, 512264, Note_on_c, 4, 55, 0
10, 512264, Note_on_c, 4, 67, 0
10, 512280, Note_on_c, 4, 55, 84
10, 512280, Note_on_c, 4, 67, 84
10, 512384, Note_on_c, 4, 55, 0
10, 512384, Note_on_c, 4, 67, 0
10, 512400, Note_on_c, 4, 55, 84
10, 512400, Note_on_c, 4, 67, 84
10, 512504, Note_on_c, 4, 55, 0
10, 512504, Note_on_c, 4, 67, 0
10, 512520, Note_on_c, 4, 67, 84
10, 512520, Note_on_c, 4, 55, 84
10, 512624, Note_on_c, 4, 67, 0
10, 512624, Note_on_c, 4, 55, 0
10, 512640, Note_on_c, 4, 55, 84
10, 512640, Note_on_c, 4, 67, 84
10, 512744, Note_on_c, 4, 55, 0
10, 512744, Note_on_c, 4, 67, 0
10, 512760, Note_on_c, 4, 67, 84
10, 512760, Note_on_c, 4, 55, 84
10, 512864, Note_on_c, 4, 67, 0
10, 512864, Note_on_c, 4, 55, 0
10, 512880, Note_on_c, 4, 67, 84
10, 512880, Note_on_c, 4, 55, 84
10, 512984, Note_on_c, 4, 67, 0
10, 512984, Note_on_c, 4, 55, 0
10, 513000, Note_on_c, 4, 55, 84
10, 513000, Note_on_c, 4, 67, 84
10, 513104, Note_on_c, 4, 55, 0
10, 513104, Note_on_c, 4, 67, 0
10, 513120, Note_on_c, 4, 55, 84
10, 513120, Note_on_c, 4, 67, 84
10, 513224, Note_on_c, 4, 55, 0
10, 513224, Note_on_c, 4, 67, 0
10, 513240, Note_on_c, 4, 55, 84
10, 513240, Note_on_c, 4, 67, 84
10, 513344, Note_on_c, 4, 55, 0
10, 513344, Note_on_c, 4, 67, 0
10, 513360, Note_on_c, 4, 55, 52
10, 513360, Note_on_c, 4, 67, 52
10, 513599, Note_on_c, 4, 55, 0
10, 513599, Note_on_c, 4, 67, 0
10, 517680, Note_on_c, 4, 67, 44
10, 517680, Note_on_c, 4, 55, 44
10, 520799, Note_on_c, 4, 67, 0
10, 520799, Note_on_c, 4, 55, 0
10, 530400, Control_c, 4, 11, 96
10, 530640, Note_on_c, 4, 46, 68
10, 530640, Note_on_c, 4, 58, 68
10, 530640, Control_c, 4, 11, 96
10, 530700, Control_c, 4, 11, 97
10, 530760, Control_c, 4, 11, 99
10, 530820, Control_c, 4, 11, 100
10, 530880, Control_c, 4, 11, 101
10, 530940, Control_c, 4, 11, 102
10, 531000, Control_c, 4, 11, 104
10, 531060, Control_c, 4, 11, 105
10, 531120, Control_c, 4, 11, 106
10, 531180, Control_c, 4, 11, 108
10, 531240, Control_c, 4, 11, 109
10, 531300, Control_c, 4, 11, 110
10, 531360, Control_c, 4, 11, 112
10, 531420, Control_c, 4, 11, 113
10, 531480, Control_c, 4, 11, 114
10, 531540, Control_c, 4, 11, 115
10, 531600, Control_c, 4, 11, 117
10, 531660, Control_c, 4, 11, 118
10, 531720, Control_c, 4, 11, 119
10, 531780, Control_c, 4, 11, 121
10, 531840, Control_c, 4, 11, 122
10, 531900, Control_c, 4, 11, 123
10, 531960, Control_c, 4, 11, 124
10, 532020, Control_c, 4, 11, 127
10, 532064, Note_on_c, 4, 46, 0
10, 532064, Note_on_c, 4, 58, 0
10, 532080, Note_on_c, 4, 58, 52
10, 532080, Note_on_c, 4, 46, 52
10, 532184, Note_on_c, 4, 58, 0
10, 532184, Note_on_c, 4, 46, 0
10, 532200, Note_on_c, 4, 46, 52
10, 532200, Note_on_c, 4, 58, 52
10, 532304, Note_on_c, 4, 46, 0
10, 532304, Note_on_c, 4, 58, 0
10, 532320, Note_on_c, 4, 58, 52
10, 532320, Note_on_c, 4, 46, 52
10, 532424, Note_on_c, 4, 58, 0
10, 532424, Note_on_c, 4, 46, 0
10, 532440, Note_on_c, 4, 46, 52
10, 532440, Note_on_c, 4, 58, 52
10, 532544, Note_on_c, 4, 46, 0
10, 532544, Note_on_c, 4, 58, 0
10, 532560, Note_on_c, 4, 58, 52
10, 532560, Note_on_c, 4, 46, 52
10, 532664, Note_on_c, 4, 58, 0
10, 532664, Note_on_c, 4, 46, 0
10, 532680, Note_on_c, 4, 58, 52
10, 532680, Note_on_c, 4, 46, 52
10, 532784, Note_on_c, 4, 58, 0
10, 532784, Note_on_c, 4, 46, 0
10, 532800, Note_on_c, 4, 58, 52
10, 532800, Note_on_c, 4, 46, 52
10, 532904, Note_on_c, 4, 58, 0
10, 532904, Note_on_c, 4, 46, 0
10, 532920, Note_on_c, 4, 46, 52
10, 532920, Note_on_c, 4, 58, 52
10, 533024, Note_on_c, 4, 46, 0
10, 533024, Note_on_c, 4, 58, 0
10, 533040, Note_on_c, 4, 46, 52
10, 533040, Note_on_c, 4, 58, 52
10, 533144, Note_on_c, 4, 46, 0
10, 533144, Note_on_c, 4, 58, 0
10, 533160, Note_on_c, 4, 58, 52
10, 533160, Note_on_c, 4, 46, 52
10, 533264, Note_on_c, 4, 58, 0
10, 533264, Note_on_c, 4, 46, 0
10, 533280, Note_on_c, 4, 46, 52
10, 533280, Note_on_c, 4, 58, 52
10, 533384, Note_on_c, 4, 46, 0
10, 533384, Note_on_c, 4, 58, 0
10, 533400, Note_on_c, 4, 46, 52
10, 533400, Note_on_c, 4, 58, 52
10, 533504, Note_on_c, 4, 46, 0
10, 533504, Note_on_c, 4, 58, 0
10, 533520, Note_on_c, 4, 46, 52
10, 533520, Note_on_c, 4, 58, 52
10, 533624, Note_on_c, 4, 46, 0
10, 533624, Note_on_c, 4, 58, 0
10, 533640, Note_on_c, 4, 58, 52
10, 533640, Note_on_c, 4, 46, 52
10, 533744, Note_on_c, 4, 58, 0
10, 533744, Note_on_c, 4, 46, 0
10, 533760, Note_on_c, 4, 58, 52
10, 533760, Note_on_c, 4, 46, 52
10, 533864, Note_on_c, 4, 58, 0
10, 533864, Note_on_c, 4, 46, 0
10, 533880, Note_on_c, 4, 46, 52
10, 533880, Note_on_c, 4, 58, 52
10, 533984, Note_on_c, 4, 46, 0
10, 533984, Note_on_c, 4, 58, 0
10, 534000, Note_on_c, 4, 58, 52
10, 534000, Note_on_c, 4, 46, 52
10, 534104, Note_on_c, 4, 58, 0
10, 534104, Note_on_c, 4, 46, 0
10, 534120, Note_on_c, 4, 46, 52
10, 534120, Note_on_c, 4, 58, 52
10, 534224, Note_on_c, 4, 46, 0
10, 534224, Note_on_c, 4, 58, 0
10, 534240, Note_on_c, 4, 58, 52
10, 534240, Note_on_c, 4, 46, 52
10, 534344, Note_on_c, 4, 58, 0
10, 534344, Note_on_c, 4, 46, 0
10, 534360, Note_on_c, 4, 58, 52
10, 534360, Note_on_c, 4, 46, 52
10, 534464, Note_on_c, 4, 58, 0
10, 534464, Note_on_c, 4, 46, 0
10, 534480, Note_on_c, 4, 46, 52
10, 534480, Note_on_c, 4, 58, 52
10, 534584, Note_on_c, 4, 46, 0
10, 534584, Note_on_c, 4, 58, 0
10, 534600, Note_on_c, 4, 46, 52
10, 534600, Note_on_c, 4, 58, 52
10, 534704, Note_on_c, 4, 46, 0
10, 534704, Note_on_c, 4, 58, 0
10, 534720, Note_on_c, 4, 46, 52
10, 534720, Note_on_c, 4, 58, 52
10, 534824, Note_on_c, 4, 46, 0
10, 534824, Note_on_c, 4, 58, 0
10, 534840, Note_on_c, 4, 46, 52
10, 534840, Note_on_c, 4, 58, 52
10, 534944, Note_on_c, 4, 46, 0
10, 534944, Note_on_c, 4, 58, 0
10, 534960, Note_on_c, 4, 58, 52
10, 534960, Note_on_c, 4, 46, 52
10, 535064, Note_on_c, 4, 58, 0
10, 535064, Note_on_c, 4, 46, 0
10, 535080, Note_on_c, 4, 58, 52
10, 535080, Note_on_c, 4, 46, 52
10, 535184, Note_on_c, 4, 58, 0
10, 535184, Note_on_c, 4, 46, 0
10, 535200, Note_on_c, 4, 46, 52
10, 535200, Note_on_c, 4, 58, 52
10, 535304, Note_on_c, 4, 46, 0
10, 535304, Note_on_c, 4, 58, 0
10, 535320, Note_on_c, 4, 46, 52
10, 535320, Note_on_c, 4, 58, 52
10, 535424, Note_on_c, 4, 46, 0
10, 535424, Note_on_c, 4, 58, 0
10, 535440, Note_on_c, 4, 58, 52
10, 535440, Note_on_c, 4, 46, 52
10, 535544, Note_on_c, 4, 58, 0
10, 535544, Note_on_c, 4, 46, 0
10, 535560, Note_on_c, 4, 58, 52
10, 535560, Note_on_c, 4, 46, 52
10, 535664, Note_on_c, 4, 58, 0
10, 535664, Note_on_c, 4, 46, 0
10, 535680, Note_on_c, 4, 46, 52
10, 535680, Note_on_c, 4, 58, 52
10, 535784, Note_on_c, 4, 46, 0
10, 535784, Note_on_c, 4, 58, 0
10, 535800, Note_on_c, 4, 58, 52
10, 535800, Note_on_c, 4, 46, 52
10, 535904, Note_on_c, 4, 58, 0
10, 535904, Note_on_c, 4, 46, 0
10, 535920, Note_on_c, 4, 58, 52
10, 535920, Note_on_c, 4, 46, 52
10, 536024, Note_on_c, 4, 58, 0
10, 536024, Note_on_c, 4, 46, 0
10, 536040, Note_on_c, 4, 58, 52
10, 536040, Note_on_c, 4, 46, 52
10, 536144, Note_on_c, 4, 58, 0
10, 536144, Note_on_c, 4, 46, 0
10, 536160, Note_on_c, 4, 46, 52
10, 536160, Note_on_c, 4, 58, 52
10, 536264, Note_on_c, 4, 46, 0
10, 536264, Note_on_c, 4, 58, 0
10, 536280, Note_on_c, 4, 58, 52
10, 536280, Note_on_c, 4, 46, 52
10, 536384, Note_on_c, 4, 58, 0
10, 536384, Note_on_c, 4, 46, 0
10, 536400, Note_on_c, 4, 46, 52
10, 536400, Note_on_c, 4, 58, 52
10, 536639, Note_on_c, 4, 46, 0
10, 536639, Note_on_c, 4, 58, 0
10, 543600, Note_on_c, 4, 46, 44
10, 543600, Note_on_c, 4, 58, 44
10, 545279, Note_on_c, 4, 46, 0
10, 545279, Note_on_c, 4, 58, 0
10, 546480, Note_on_c, 4, 46, 44
10, 546480, Note_on_c, 4, 58, 44
10, 548864, Note_on_c, 4, 46, 0
10, 548864, Note_on_c, 4, 58, 0
10, 548880, Note_on_c, 4, 58, 44
10, 548880, Note_on_c, 4, 46, 44
10, 549104, Note_on_c, 4, 58, 0
10, 549104, Note_on_c, 4, 46, 0
10, 549120, Note_on_c, 4, 58, 44
10, 549120, Note_on_c, 4, 46, 44
10, 549344, Note_on_c, 4, 58, 0
10, 549344, Note_on_c, 4, 46, 0
10, 549360, Note_on_c, 4, 46, 44
10, 549360, Note_on_c, 4, 58, 44
10, 550304, Note_on_c, 4, 46, 0
10, 550304, Note_on_c, 4, 58, 0
10, 550320, Note_on_c, 4, 58, 44
10, 550320, Note_on_c, 4, 46, 44
10, 550544, Note_on_c, 4, 58, 0
10, 550544, Note_on_c, 4, 46, 0
10, 550560, Note_on_c, 4, 58, 44
10, 550560, Note_on_c, 4, 46, 44
10, 550784, Note_on_c, 4, 58, 0
10, 550784, Note_on_c, 4, 46, 0
10, 550800, Control_c, 4, 11, 96
10, 550800, Note_on_c, 4, 63, 44
10, 550800, Note_on_c, 4, 51, 44
10, 550980, Control_c, 4, 11, 97
10, 551039, Note_on_c, 4, 63, 0
10, 551039, Note_on_c, 4, 51, 0
10, 551160, Control_c, 4, 11, 99
10, 551340, Control_c, 4, 11, 100
10, 551520, Control_c, 4, 11, 101
10, 551520, Note_on_c, 4, 63, 68
10, 551700, Control_c, 4, 11, 102
10, 551880, Control_c, 4, 11, 104
10, 551984, Note_on_c, 4, 63, 0
10, 552000, Note_on_c, 4, 51, 68
10, 552060, Control_c, 4, 11, 105
10, 552239, Note_on_c, 4, 51, 0
10, 552240, Control_c, 4, 11, 106
10, 552420, Control_c, 4, 11, 108
10, 552600, Control_c, 4, 11, 109
10, 552780, Control_c, 4, 11, 110
10, 552960, Control_c, 4, 11, 112
10, 552960, Note_on_c, 4, 63, 68
10, 553140, Control_c, 4, 11, 113
10, 553320, Control_c, 4, 11, 114
10, 553424, Note_on_c, 4, 63, 0
10, 553440, Note_on_c, 4, 51, 68
10, 553500, Control_c, 4, 11, 115
10, 553664, Note_on_c, 4, 51, 0
10, 553680, Control_c, 4, 11, 117
10, 553680, Note_on_c, 4, 65, 68
10, 553860, Control_c, 4, 11, 118
10, 554040, Control_c, 4, 11, 119
10, 554144, Note_on_c, 4, 65, 0
10, 554160, Note_on_c, 4, 68, 68
10, 554220, Control_c, 4, 11, 121
10, 554384, Note_on_c, 4, 68, 0
10, 554400, Note_on_c, 4, 58, 68
10, 554400, Control_c, 4, 11, 122
10, 554580, Control_c, 4, 11, 123
10, 554760, Control_c, 4, 11, 124
10, 554864, Note_on_c, 4, 58, 0
10, 554880, Note_on_c, 4, 46, 68
10, 554940, Control_c, 4, 11, 127
10, 555104, Note_on_c, 4, 46, 0
10, 555120, Note_on_c, 4, 65, 68
10, 555120, Control_c, 4, 11, 127
10, 555180, Control_c, 4, 11, 126
10, 555240, Control_c, 4, 11, 124
10, 555300, Control_c, 4, 11, 123
10, 555360, Control_c, 4, 11, 122
10, 555420, Control_c, 4, 11, 121
10, 555480, Control_c, 4, 11, 119
10, 555540, Control_c, 4, 11, 118
10, 555584, Note_on_c, 4, 65, 0
10, 555600, Control_c, 4, 11, 117
10, 555600, Note_on_c, 4, 68, 68
10, 555660, Control_c, 4, 11, 115
10, 555720, Control_c, 4, 11, 114
10, 555780, Control_c, 4, 11, 113
10, 555824, Note_on_c, 4, 68, 0
10, 555840, Control_c, 4, 11, 112
10, 555840, Note_on_c, 4, 65, 68
10, 555840, Note_on_c, 4, 68, 68
10, 555900, Control_c, 4, 11, 110
10, 555960, Control_c, 4, 11, 109
10, 556020, Control_c, 4, 11, 108
10, 556080, Control_c, 4, 11, 106
10, 556140, Control_c, 4, 11, 105
10, 556200, Control_c, 4, 11, 104
10, 556260, Control_c, 4, 11, 102
10, 556304, Note_on_c, 4, 65, 0
10, 556319, Note_on_c, 4, 68, 0
10, 556320, Control_c, 4, 11, 101
10, 556320, Note_on_c, 4, 65, 68
10, 556380, Control_c, 4, 11, 100
10, 556440, Control_c, 4, 11, 99
10, 556500, Control_c, 4, 11, 96
10, 556544, Note_on_c, 4, 65, 0
10, 556560, Note_on_c, 4, 63, 68
10, 556784, Note_on_c, 4, 63, 0
10, 556800, Note_on_c, 4, 51, 68
10, 556800, Note_on_c, 4, 63, 68
10, 556979, Note_on_c, 4, 51, 0
10, 556979, Note_on_c, 4, 63, 0
10, 557280, Note_on_c, 4, 63, 68
10, 557280, Note_on_c, 4, 51, 68
10, 557459, Note_on_c, 4, 63, 0
10, 557459, Note_on_c, 4, 51, 0
10, 557760, Note_on_c, 4, 63, 68
10, 557760, Note_on_c, 4, 51, 68
10, 557939, Note_on_c, 4, 63, 0
10, 557939, Note_on_c, 4, 51, 0
10, 558240, Note_on_c, 4, 63, 68
10, 558240, Note_on_c, 4, 51, 68
10, 558419, Note_on_c, 4, 63, 0
10, 558419, Note_on_c, 4, 51, 0
10, 558720, Note_on_c, 4, 63, 68
10, 558720, Note_on_c, 4, 51, 68
10, 558899, Note_on_c, 4, 63, 0
10, 558899, Note_on_c, 4, 51, 0
10, 559200, Note_on_c, 4, 51, 68
10, 559200, Note_on_c, 4, 63, 68
10, 559379, Note_on_c, 4, 51, 0
10, 559379, Note_on_c, 4, 63, 0
10, 559440, Note_on_c, 4, 51, 68
10, 559440, Note_on_c, 4, 63, 68
10, 559679, Note_on_c, 4, 51, 0
10, 559679, Note_on_c, 4, 63, 0
10, 560160, Control_c, 4, 11, 96
10, 560160, Note_on_c, 4, 46, 68
10, 560160, Note_on_c, 4, 63, 68
10, 560220, Control_c, 4, 11, 97
10, 560280, Control_c, 4, 11, 99
10, 560340, Control_c, 4, 11, 100
10, 560400, Control_c, 4, 11, 101
10, 560460, Control_c, 4, 11, 102
10, 560520, Control_c, 4, 11, 104
10, 560580, Control_c, 4, 11, 105
10, 560640, Control_c, 4, 11, 106
10, 560700, Control_c, 4, 11, 108
10, 560760, Control_c, 4, 11, 109
10, 560820, Control_c, 4, 11, 110
10, 560879, Note_on_c, 4, 63, 0
10, 560880, Control_c, 4, 11, 112
10, 560880, Note_on_c, 4, 65, 68
10, 560940, Control_c, 4, 11, 113
10, 561000, Control_c, 4, 11, 114
10, 561060, Control_c, 4, 11, 115
10, 561104, Note_on_c, 4, 46, 0
10, 561104, Note_on_c, 4, 65, 0
10, 561120, Note_on_c, 4, 46, 68
10, 561120, Note_on_c, 4, 65, 68
10, 561120, Control_c, 4, 11, 117
10, 561180, Control_c, 4, 11, 118
10, 561240, Control_c, 4, 11, 119
10, 561299, Note_on_c, 4, 46, 0
10, 561299, Note_on_c, 4, 65, 0
10, 561300, Control_c, 4, 11, 121
10, 561360, Note_on_c, 4, 46, 68
10, 561360, Control_c, 4, 11, 122
10, 561360, Note_on_c, 4, 65, 68
10, 561420, Control_c, 4, 11, 123
10, 561480, Control_c, 4, 11, 124
10, 561539, Note_on_c, 4, 46, 0
10, 561539, Note_on_c, 4, 65, 0
10, 561540, Control_c, 4, 11, 127
10, 561600, Note_on_c, 4, 46, 52
10, 561779, Note_on_c, 4, 46, 0
10, 561840, Note_on_c, 4, 46, 52
10, 562019, Note_on_c, 4, 46, 0
10, 562080, Note_on_c, 4, 46, 52
10, 562080, Note_on_c, 4, 58, 52
10, 562259, Note_on_c, 4, 46, 0
10, 562304, Note_on_c, 4, 58, 0
10, 562320, Note_on_c, 4, 63, 52
10, 562320, Note_on_c, 4, 51, 52
10, 562559, Note_on_c, 4, 51, 0
10, 562799, Note_on_c, 4, 63, 0
10, 562800, Note_on_c, 4, 67, 52
10, 563039, Note_on_c, 4, 67, 0
10, 563040, Note_on_c, 4, 63, 52
10, 563519, Note_on_c, 4, 63, 0
10, 563520, Note_on_c, 4, 58, 52
10, 563744, Note_on_c, 4, 58, 0
10, 563760, Note_on_c, 4, 63, 52
10, 563999, Note_on_c, 4, 63, 0
10, 564000, Note_on_c, 4, 67, 52
10, 564224, Note_on_c, 4, 67, 0
10, 564240, Note_on_c, 4, 70, 52
10, 564464, Note_on_c, 4, 70, 0
10, 564480, Note_on_c, 4, 70, 52
10, 564480, Note_on_c, 4, 58, 52
10, 564719, Note_on_c, 4, 58, 0
10, 564720, Note_on_c, 4, 63, 52
10, 564944, Note_on_c, 4, 63, 0
10, 564960, Note_on_c, 4, 67, 52
10, 565139, Note_on_c, 4, 67, 0
10, 565184, Note_on_c, 4, 70, 0
10, 565200, Note_on_c, 4, 65, 52
10, 565200, Note_on_c, 4, 68, 52
10, 565439, Note_on_c, 4, 68, 0
10, 565679, Note_on_c, 4, 65, 0
10, 565680, Note_on_c, 4, 68, 52
10, 565919, Note_on_c, 4, 68, 0
10, 565920, Note_on_c, 4, 65, 52
10, 566399, Note_on_c, 4, 65, 0
10, 566400, Note_on_c, 4, 58, 52
10, 566624, Note_on_c, 4, 58, 0
10, 566640, Note_on_c, 4, 65, 52
10, 566879, Note_on_c, 4, 65, 0
10, 566880, Note_on_c, 4, 68, 52
10, 567104, Note_on_c, 4, 68, 0
10, 567120, Note_on_c, 4, 70, 52
10, 567299, Note_on_c, 4, 70, 0
10, 567360, Note_on_c, 4, 58, 52
10, 567360, Note_on_c, 4, 70, 52
10, 567599, Note_on_c, 4, 58, 0
10, 567600, Note_on_c, 4, 65, 52
10, 567824, Note_on_c, 4, 65, 0
10, 567840, Note_on_c, 4, 68, 52
10, 568019, Note_on_c, 4, 68, 0
10, 568080, Note_on_c, 4, 67, 52
10, 569024, Note_on_c, 4, 70, 0
10, 569024, Note_on_c, 4, 67, 0
10, 569040, Note_on_c, 4, 55, 52
10, 569040, Note_on_c, 4, 63, 52
10, 569279, Note_on_c, 4, 55, 0
10, 569279, Note_on_c, 4, 63, 0
10, 569280, Note_on_c, 4, 58, 52
10, 569280, Note_on_c, 4, 67, 52
10, 569504, Note_on_c, 4, 58, 0
10, 569504, Note_on_c, 4, 67, 0
10, 569520, Note_on_c, 4, 63, 52
10, 569520, Note_on_c, 4, 55, 52
10, 569999, Note_on_c, 4, 63, 0
10, 569999, Note_on_c, 4, 55, 0
10, 570000, Note_on_c, 4, 51, 52
10, 570000, Note_on_c, 4, 58, 52
10, 570224, Note_on_c, 4, 51, 0
10, 570224, Note_on_c, 4, 58, 0
10, 570240, Note_on_c, 4, 55, 52
10, 570240, Note_on_c, 4, 63, 52
10, 570479, Note_on_c, 4, 55, 0
10, 570479, Note_on_c, 4, 63, 0
10, 570480, Note_on_c, 4, 58, 52
10, 570480, Note_on_c, 4, 67, 52
10, 570704, Note_on_c, 4, 58, 0
10, 570704, Note_on_c, 4, 67, 0
10, 570720, Note_on_c, 4, 63, 52
10, 570720, Note_on_c, 4, 70, 52
10, 570899, Note_on_c, 4, 63, 0
10, 570899, Note_on_c, 4, 70, 0
10, 570960, Note_on_c, 4, 65, 52
10, 570960, Note_on_c, 4, 70, 52
10, 571664, Note_on_c, 4, 65, 0
10, 571664, Note_on_c, 4, 70, 0
10, 571680, Note_on_c, 4, 65, 52
10, 571680, Note_on_c, 4, 46, 52
10, 572159, Note_on_c, 4, 65, 0
10, 572159, Note_on_c, 4, 46, 0
10, 572160, Note_on_c, 4, 68, 52
10, 572160, Note_on_c, 4, 58, 52
10, 572384, Note_on_c, 4, 68, 0
10, 572384, Note_on_c, 4, 58, 0
10, 572400, Note_on_c, 4, 46, 52
10, 572400, Note_on_c, 4, 65, 52
10, 572864, Note_on_c, 4, 46, 0
10, 572879, Note_on_c, 4, 65, 0
10, 572880, Note_on_c, 4, 46, 52
10, 572880, Note_on_c, 4, 58, 52
10, 573104, Note_on_c, 4, 46, 0
10, 573104, Note_on_c, 4, 58, 0
10, 573120, Note_on_c, 4, 46, 52
10, 573120, Note_on_c, 4, 65, 52
10, 573359, Note_on_c, 4, 46, 0
10, 573359, Note_on_c, 4, 65, 0
10, 573360, Note_on_c, 4, 68, 52
10, 573360, Note_on_c, 4, 58, 52
10, 573584, Note_on_c, 4, 68, 0
10, 573584, Note_on_c, 4, 58, 0
10, 573600, Note_on_c, 4, 65, 52
10, 573600, Note_on_c, 4, 70, 52
10, 573779, Note_on_c, 4, 65, 0
10, 573779, Note_on_c, 4, 70, 0
10, 573825, Control_c, 4, 11, 80
10, 573840, Note_on_c, 4, 70, 76
10, 573840, Control_c, 4, 11, 80
10, 573840, Note_on_c, 4, 63, 76
10, 574000, Control_c, 4, 11, 81
10, 574160, Control_c, 4, 11, 83
10, 574320, Control_c, 4, 11, 84
10, 574480, Control_c, 4, 11, 85
10, 574640, Control_c, 4, 11, 87
10, 574800, Control_c, 4, 11, 88
10, 574960, Control_c, 4, 11, 89
10, 575120, Control_c, 4, 11, 90
10, 575280, Control_c, 4, 11, 92
10, 575440, Control_c, 4, 11, 93
10, 575504, Note_on_c, 4, 70, 0
10, 575504, Note_on_c, 4, 63, 0
10, 575520, Note_on_c, 4, 70, 76
10, 575520, Note_on_c, 4, 63, 76
10, 575600, Control_c, 4, 11, 94
10, 575744, Note_on_c, 4, 70, 0
10, 575744, Note_on_c, 4, 63, 0
10, 575760, Control_c, 4, 11, 96
10, 575760, Note_on_c, 4, 70, 76
10, 575760, Note_on_c, 4, 63, 76
10, 575920, Control_c, 4, 11, 97
10, 575984, Note_on_c, 4, 70, 0
10, 575984, Note_on_c, 4, 63, 0
10, 576000, Note_on_c, 4, 70, 76
10, 576000, Note_on_c, 4, 63, 76
10, 576080, Control_c, 4, 11, 98
10, 576224, Note_on_c, 4, 70, 0
10, 576224, Note_on_c, 4, 63, 0
10, 576240, Control_c, 4, 11, 100
10, 576240, Note_on_c, 4, 70, 76
10, 576240, Note_on_c, 4, 63, 76
10, 576400, Control_c, 4, 11, 101
10, 576464, Note_on_c, 4, 70, 0
10, 576464, Note_on_c, 4, 63, 0
10, 576480, Note_on_c, 4, 70, 76
10, 576480, Note_on_c, 4, 63, 76
10, 576560, Control_c, 4, 11, 102
10, 576704, Note_on_c, 4, 70, 0
10, 576704, Note_on_c, 4, 63, 0
10, 576720, Note_on_c, 4, 58, 76
10, 576720, Note_on_c, 4, 70, 76
10, 576720, Control_c, 4, 11, 104
10, 576880, Control_c, 4, 11, 105
10, 577040, Control_c, 4, 11, 106
10, 577200, Control_c, 4, 11, 107
10, 577360, Control_c, 4, 11, 109
10, 577520, Control_c, 4, 11, 110
10, 577680, Control_c, 4, 11, 111
10, 577840, Control_c, 4, 11, 113
10, 578000, Control_c, 4, 11, 114
10, 578160, Control_c, 4, 11, 115
10, 578320, Control_c, 4, 11, 117
10, 578384, Note_on_c, 4, 58, 0
10, 578384, Note_on_c, 4, 70, 0
10, 578400, Note_on_c, 4, 70, 76
10, 578400, Note_on_c, 4, 58, 76
10, 578480, Control_c, 4, 11, 118
10, 578624, Note_on_c, 4, 70, 0
10, 578624, Note_on_c, 4, 58, 0
10, 578640, Control_c, 4, 11, 119
10, 578640, Note_on_c, 4, 70, 76
10, 578640, Note_on_c, 4, 58, 76
10, 578800, Control_c, 4, 11, 120
10, 578864, Note_on_c, 4, 70, 0
10, 578864, Note_on_c, 4, 58, 0
10, 578880, Note_on_c, 4, 58, 76
10, 578880, Note_on_c, 4, 70, 76
10, 578960, Control_c, 4, 11, 122
10, 579104, Note_on_c, 4, 58, 0
10, 579104, Note_on_c, 4, 70, 0
10, 579120, Note_on_c, 4, 70, 76
10, 579120, Note_on_c, 4, 58, 76
10, 579120, Control_c, 4, 11, 123
10, 579280, Control_c, 4, 11, 124
10, 579344, Note_on_c, 4, 70, 0
10, 579344, Note_on_c, 4, 58, 0
10, 579360, Note_on_c, 4, 70, 76
10, 579360, Note_on_c, 4, 58, 76
10, 579440, Control_c, 4, 11, 127
10, 579584, Note_on_c, 4, 70, 0
10, 579584, Note_on_c, 4, 58, 0
10, 579600, Note_on_c, 4, 58, 76
10, 579600, Note_on_c, 4, 70, 76
10, 579824, Note_on_c, 4, 58, 0
10, 579824, Note_on_c, 4, 70, 0
10, 579840, Note_on_c, 4, 51, 76
10, 579840, Note_on_c, 4, 63, 76
10, 579944, Note_on_c, 4, 51, 0
10, 579944, Note_on_c, 4, 63, 0
10, 579960, Note_on_c, 4, 51, 76
10, 579960, Note_on_c, 4, 63, 76
10, 580064, Note_on_c, 4, 51, 0
10, 580064, Note_on_c, 4, 63, 0
10, 580080, Note_on_c, 4, 67, 76
10, 580080, Note_on_c, 4, 55, 76
10, 580184, Note_on_c, 4, 67, 0
10, 580184, Note_on_c, 4, 55, 0
10, 580200, Note_on_c, 4, 55, 76
10, 580200, Note_on_c, 4, 67, 76
10, 580304, Note_on_c, 4, 55, 0
10, 580304, Note_on_c, 4, 67, 0
10, 580320, Note_on_c, 4, 51, 76
10, 580320, Note_on_c, 4, 63, 76
10, 580424, Note_on_c, 4, 51, 0
10, 580424, Note_on_c, 4, 63, 0
10, 580440, Note_on_c, 4, 51, 76
10, 580440, Note_on_c, 4, 63, 76
10, 580544, Note_on_c, 4, 51, 0
10, 580544, Note_on_c, 4, 63, 0
10, 580560, Note_on_c, 4, 51, 76
10, 580560, Note_on_c, 4, 63, 76
10, 580664, Note_on_c, 4, 51, 0
10, 580664, Note_on_c, 4, 63, 0
10, 580680, Note_on_c, 4, 63, 76
10, 580680, Note_on_c, 4, 51, 76
10, 580784, Note_on_c, 4, 63, 0
10, 580784, Note_on_c, 4, 51, 0
10, 580800, Note_on_c, 4, 46, 76
10, 580800, Note_on_c, 4, 58, 76
10, 580904, Note_on_c, 4, 46, 0
10, 580904, Note_on_c, 4, 58, 0
10, 580920, Note_on_c, 4, 58, 76
10, 580920, Note_on_c, 4, 46, 76
10, 581024, Note_on_c, 4, 58, 0
10, 581024, Note_on_c, 4, 46, 0
10, 581040, Note_on_c, 4, 51, 76
10, 581040, Note_on_c, 4, 63, 76
10, 581144, Note_on_c, 4, 51, 0
10, 581144, Note_on_c, 4, 63, 0
10, 581160, Note_on_c, 4, 51, 76
10, 581160, Note_on_c, 4, 63, 76
10, 581264, Note_on_c, 4, 51, 0
10, 581264, Note_on_c, 4, 63, 0
10, 581280, Note_on_c, 4, 55, 76
10, 581280, Note_on_c, 4, 67, 76
10, 581384, Note_on_c, 4, 55, 0
10, 581384, Note_on_c, 4, 67, 0
10, 581400, Note_on_c, 4, 55, 76
10, 581400, Note_on_c, 4, 67, 76
10, 581504, Note_on_c, 4, 55, 0
10, 581504, Note_on_c, 4, 67, 0
10, 581520, Note_on_c, 4, 70, 76
10, 581520, Note_on_c, 4, 58, 76
10, 581624, Note_on_c, 4, 70, 0
10, 581624, Note_on_c, 4, 58, 0
10, 581640, Note_on_c, 4, 58, 76
10, 581640, Note_on_c, 4, 70, 76
10, 581744, Note_on_c, 4, 58, 0
10, 581744, Note_on_c, 4, 70, 0
10, 581760, Note_on_c, 4, 58, 76
10, 581760, Note_on_c, 4, 70, 76
10, 581864, Note_on_c, 4, 58, 0
10, 581864, Note_on_c, 4, 70, 0
10, 581880, Note_on_c, 4, 58, 76
10, 581880, Note_on_c, 4, 70, 76
10, 581984, Note_on_c, 4, 58, 0
10, 581984, Note_on_c, 4, 70, 0
10, 582000, Note_on_c, 4, 58, 76
10, 582000, Note_on_c, 4, 70, 76
10, 582104, Note_on_c, 4, 58, 0
10, 582104, Note_on_c, 4, 70, 0
10, 582120, Note_on_c, 4, 70, 76
10, 582120, Note_on_c, 4, 58, 76
10, 582224, Note_on_c, 4, 70, 0
10, 582224, Note_on_c, 4, 58, 0
10, 582240, Note_on_c, 4, 58, 76
10, 582240, Note_on_c, 4, 70, 76
10, 582344, Note_on_c, 4, 58, 0
10, 582344, Note_on_c, 4, 70, 0
10, 582360, Note_on_c, 4, 58, 76
10, 582360, Note_on_c, 4, 70, 76
10, 582464, Note_on_c, 4, 58, 0
10, 582464, Note_on_c, 4, 70, 0
10, 582480, Note_on_c, 4, 65, 76
10, 582584, Note_on_c, 4, 65, 0
10, 582600, Note_on_c, 4, 46, 76
10, 582600, Note_on_c, 4, 58, 76
10, 582704, Note_on_c, 4, 46, 0
10, 582704, Note_on_c, 4, 58, 0
10, 582720, Note_on_c, 4, 46, 76
10, 582720, Note_on_c, 4, 58, 76
10, 582824, Note_on_c, 4, 46, 0
10, 582824, Note_on_c, 4, 58, 0
10, 582840, Note_on_c, 4, 58, 76
10, 582840, Note_on_c, 4, 46, 76
10, 582944, Note_on_c, 4, 58, 0
10, 582944, Note_on_c, 4, 46, 0
10, 582960, Note_on_c, 4, 58, 76
10, 582960, Note_on_c, 4, 46, 76
10, 583064, Note_on_c, 4, 58, 0
10, 583064, Note_on_c, 4, 46, 0
10, 583080, Note_on_c, 4, 58, 76
10, 583080, Note_on_c, 4, 46, 76
10, 583184, Note_on_c, 4, 58, 0
10, 583184, Note_on_c, 4, 46, 0
10, 583200, Note_on_c, 4, 46, 76
10, 583200, Note_on_c, 4, 58, 76
10, 583304, Note_on_c, 4, 46, 0
10, 583304, Note_on_c, 4, 58, 0
10, 583320, Note_on_c, 4, 58, 76
10, 583320, Note_on_c, 4, 46, 76
10, 583424, Note_on_c, 4, 58, 0
10, 583424, Note_on_c, 4, 46, 0
10, 583440, Note_on_c, 4, 58, 76
10, 583440, Note_on_c, 4, 46, 76
10, 583544, Note_on_c, 4, 58, 0
10, 583544, Note_on_c, 4, 46, 0
10, 583560, Note_on_c, 4, 58, 76
10, 583560, Note_on_c, 4, 46, 76
10, 583664, Note_on_c, 4, 58, 0
10, 583664, Note_on_c, 4, 46, 0
10, 583680, Note_on_c, 4, 46, 76
10, 583680, Note_on_c, 4, 58, 76
10, 583784, Note_on_c, 4, 46, 0
10, 583784, Note_on_c, 4, 58, 0
10, 583800, Note_on_c, 4, 58, 76
10, 583800, Note_on_c, 4, 46, 76
10, 583904, Note_on_c, 4, 58, 0
10, 583904, Note_on_c, 4, 46, 0
10, 583920, Note_on_c, 4, 46, 76
10, 583920, Note_on_c, 4, 58, 76
10, 584024, Note_on_c, 4, 46, 0
10, 584024, Note_on_c, 4, 58, 0
10, 584040, Note_on_c, 4, 46, 76
10, 584040, Note_on_c, 4, 58, 76
10, 584144, Note_on_c, 4, 46, 0
10, 584144, Note_on_c, 4, 58, 0
10, 584160, Note_on_c, 4, 46, 76
10, 584160, Note_on_c, 4, 58, 76
10, 584264, Note_on_c, 4, 46, 0
10, 584264, Note_on_c, 4, 58, 0
10, 584280, Note_on_c, 4, 58, 76
10, 584280, Note_on_c, 4, 46, 76
10, 584384, Note_on_c, 4, 58, 0
10, 584384, Note_on_c, 4, 46, 0
10, 584400, Note_on_c, 4, 46, 76
10, 584400, Note_on_c, 4, 58, 76
10, 584504, Note_on_c, 4, 46, 0
10, 584504, Note_on_c, 4, 58, 0
10, 584520, Note_on_c, 4, 46, 76
10, 584520, Note_on_c, 4, 58, 76
10, 584624, Note_on_c, 4, 46, 0
10, 584624, Note_on_c, 4, 58, 0
10, 584640, Note_on_c, 4, 46, 76
10, 584640, Note_on_c, 4, 58, 76
10, 584744, Note_on_c, 4, 46, 0
10, 584744, Note_on_c, 4, 58, 0
10, 584760, Note_on_c, 4, 46, 76
10, 584760, Note_on_c, 4, 58, 76
10, 584864, Note_on_c, 4, 46, 0
10, 584864, Note_on_c, 4, 58, 0
10, 584880, Note_on_c, 4, 46, 76
10, 584880, Note_on_c, 4, 58, 76
10, 584984, Note_on_c, 4, 46, 0
10, 584984, Note_on_c, 4, 58, 0
10, 585000, Note_on_c, 4, 46, 76
10, 585000, Note_on_c, 4, 58, 76
10, 585104, Note_on_c, 4, 46, 0
10, 585104, Note_on_c, 4, 58, 0
10, 585120, Note_on_c, 4, 46, 76
10, 585120, Note_on_c, 4, 58, 76
10, 585224, Note_on_c, 4, 46, 0
10, 585224, Note_on_c, 4, 58, 0
10, 585240, Note_on_c, 4, 46, 76
10, 585240, Note_on_c, 4, 58, 76
10, 585344, Note_on_c, 4, 46, 0
10, 585344, Note_on_c, 4, 58, 0
10, 585360, Note_on_c, 4, 58, 76
10, 585360, Note_on_c, 4, 46, 76
10, 585464, Note_on_c, 4, 58, 0
10, 585464, Note_on_c, 4, 46, 0
10, 585480, Note_on_c, 4, 58, 76
10, 585480, Note_on_c, 4, 46, 76
10, 585584, Note_on_c, 4, 58, 0
10, 585584, Note_on_c, 4, 46, 0
10, 585600, Note_on_c, 4, 67, 76
10, 585600, Note_on_c, 4, 55, 76
10, 585704, Note_on_c, 4, 67, 0
10, 585704, Note_on_c, 4, 55, 0
10, 585720, Note_on_c, 4, 67, 76
10, 585720, Note_on_c, 4, 55, 76
10, 585824, Note_on_c, 4, 67, 0
10, 585824, Note_on_c, 4, 55, 0
10, 585840, Note_on_c, 4, 67, 76
10, 585840, Note_on_c, 4, 55, 76
10, 585944, Note_on_c, 4, 67, 0
10, 585944, Note_on_c, 4, 55, 0
10, 585960, Note_on_c, 4, 67, 76
10, 585960, Note_on_c, 4, 55, 76
10, 586064, Note_on_c, 4, 67, 0
10, 586064, Note_on_c, 4, 55, 0
10, 586080, Note_on_c, 4, 67, 76
10, 586080, Note_on_c, 4, 55, 76
10, 586784, Note_on_c, 4, 67, 0
10, 586784, Note_on_c, 4, 55, 0
10, 586800, Note_on_c, 4, 65, 76
10, 587024, Note_on_c, 4, 65, 0
10, 587040, Note_on_c, 4, 65, 84
10, 587040, Note_on_c, 4, 51, 84
10, 587144, Note_on_c, 4, 65, 0
10, 587144, Note_on_c, 4, 51, 0
10, 587160, Note_on_c, 4, 65, 76
10, 587160, Note_on_c, 4, 51, 76
10, 587264, Note_on_c, 4, 65, 0
10, 587264, Note_on_c, 4, 51, 0
10, 587280, Note_on_c, 4, 65, 76
10, 587280, Note_on_c, 4, 51, 76
10, 587519, Note_on_c, 4, 65, 0
10, 587519, Note_on_c, 4, 51, 0
10, 587760, Note_on_c, 4, 63, 84
10, 587760, Note_on_c, 4, 51, 84
10, 587864, Note_on_c, 4, 63, 0
10, 587864, Note_on_c, 4, 51, 0
10, 587880, Note_on_c, 4, 63, 76
10, 587880, Note_on_c, 4, 51, 76
10, 587984, Note_on_c, 4, 63, 0
10, 587984, Note_on_c, 4, 51, 0
10, 588000, Note_on_c, 4, 63, 76
10, 588000, Note_on_c, 4, 51, 76
10, 588239, Note_on_c, 4, 63, 0
10, 588239, Note_on_c, 4, 51, 0
10, 588480, Note_on_c, 4, 63, 84
10, 588480, Note_on_c, 4, 51, 84
10, 588584, Note_on_c, 4, 63, 0
10, 588584, Note_on_c, 4, 51, 0
10, 588600, Note_on_c, 4, 63, 76
10, 588600, Note_on_c, 4, 51, 76
10, 588704, Note_on_c, 4, 63, 0
10, 588704, Note_on_c, 4, 51, 0
10, 588720, Note_on_c, 4, 63, 76
10, 588720, Note_on_c, 4, 51, 76
10, 588959, Note_on_c, 4, 63, 0
10, 588959, Note_on_c, 4, 51, 0
10, 589200, Note_on_c, 4, 65, 76
10, 589304, Note_on_c, 4, 65, 0
10, 589320, Note_on_c, 4, 65, 76
10, 589424, Note_on_c, 4, 65, 0
10, 589440, Note_on_c, 4, 65, 76
10, 589679, Note_on_c, 4, 65, 0
10, 589920, Note_on_c, 4, 63, 76
10, 589920, Note_on_c, 4, 51, 76
10, 590024, Note_on_c, 4, 63, 0
10, 590024, Note_on_c, 4, 51, 0
10, 590040, Note_on_c, 4, 63, 76
10, 590040, Note_on_c, 4, 51, 76
10, 590144, Note_on_c, 4, 63, 0
10, 590144, Note_on_c, 4, 51, 0
10, 590160, Note_on_c, 4, 63, 76
10, 590160, Note_on_c, 4, 51, 76
10, 590399, Note_on_c, 4, 63, 0
10, 590399, Note_on_c, 4, 51, 0
10, 590640, Note_on_c, 4, 65, 76
10, 590640, Note_on_c, 4, 51, 76
10, 590759, Note_on_c, 4, 65, 0
10, 590759, Note_on_c, 4, 51, 0
10, 590760, Note_on_c, 4, 65, 76
10, 590760, Note_on_c, 4, 51, 76
10, 590879, Note_on_c, 4, 65, 0
10, 590879, Note_on_c, 4, 51, 0
10, 590880, Note_on_c, 4, 65, 76
10, 590880, Note_on_c, 4, 51, 76
10, 591119, Note_on_c, 4, 65, 0
10, 591119, Note_on_c, 4, 51, 0
10, 591120, Note_on_c, 4, 67, 84
10, 591120, Note_on_c, 4, 51, 84
10, 591224, Note_on_c, 4, 67, 0
10, 591224, Note_on_c, 4, 51, 0
10, 591240, Note_on_c, 4, 67, 84
10, 591240, Note_on_c, 4, 63, 84
10, 591344, Note_on_c, 4, 67, 0
10, 591344, Note_on_c, 4, 63, 0
10, 591360, Note_on_c, 4, 67, 84
10, 591360, Note_on_c, 4, 63, 84
10, 591464, Note_on_c, 4, 67, 0
10, 591464, Note_on_c, 4, 63, 0
10, 591480, Note_on_c, 4, 67, 84
10, 591480, Note_on_c, 4, 63, 84
10, 591584, Note_on_c, 4, 67, 0
10, 591584, Note_on_c, 4, 63, 0
10, 591600, Note_on_c, 4, 67, 84
10, 591600, Note_on_c, 4, 63, 84
10, 591704, Note_on_c, 4, 67, 0
10, 591704, Note_on_c, 4, 63, 0
10, 591720, Note_on_c, 4, 67, 84
10, 591720, Note_on_c, 4, 63, 84
10, 591824, Note_on_c, 4, 67, 0
10, 591824, Note_on_c, 4, 63, 0
10, 591840, Note_on_c, 4, 65, 84
10, 591840, Note_on_c, 4, 58, 84
10, 591944, Note_on_c, 4, 65, 0
10, 591944, Note_on_c, 4, 58, 0
10, 591960, Note_on_c, 4, 65, 84
10, 591960, Note_on_c, 4, 58, 84
10, 592064, Note_on_c, 4, 65, 0
10, 592064, Note_on_c, 4, 58, 0
10, 592080, Note_on_c, 4, 65, 84
10, 592080, Note_on_c, 4, 58, 84
10, 592184, Note_on_c, 4, 65, 0
10, 592184, Note_on_c, 4, 58, 0
10, 592200, Note_on_c, 4, 65, 84
10, 592200, Note_on_c, 4, 58, 84
10, 592304, Note_on_c, 4, 65, 0
10, 592304, Note_on_c, 4, 58, 0
10, 592320, Note_on_c, 4, 65, 84
10, 592320, Note_on_c, 4, 58, 84
10, 592424, Note_on_c, 4, 65, 0
10, 592424, Note_on_c, 4, 58, 0
10, 592440, Note_on_c, 4, 65, 84
10, 592440, Note_on_c, 4, 58, 84
10, 592544, Note_on_c, 4, 65, 0
10, 592544, Note_on_c, 4, 58, 0
10, 592552, Control_c, 4, 11, 96
10, 592560, Note_on_c, 4, 63, 68
10, 592560, Note_on_c, 4, 51, 68
10, 592560, Control_c, 4, 11, 96
10, 592620, Control_c, 4, 11, 99
10, 592680, Control_c, 4, 11, 101
10, 592740, Control_c, 4, 11, 104
10, 592800, Control_c, 4, 11, 106
10, 592860, Control_c, 4, 11, 109
10, 592920, Control_c, 4, 11, 112
10, 592980, Control_c, 4, 11, 114
10, 593040, Control_c, 4, 11, 117
10, 593100, Control_c, 4, 11, 119
10, 593160, Control_c, 4, 11, 122
10, 593220, Control_c, 4, 11, 124
10, 593280, Control_c, 4, 11, 127
10, 593340, Control_c, 4, 11, 124
10, 593400, Control_c, 4, 11, 122
10, 593460, Control_c, 4, 11, 119
10, 593520, Control_c, 4, 11, 117
10, 593580, Control_c, 4, 11, 114
10, 593640, Control_c, 4, 11, 112
10, 593700, Control_c, 4, 11, 109
10, 593760, Control_c, 4, 11, 106
10, 593820, Control_c, 4, 11, 104
10, 593880, Control_c, 4, 11, 101
10, 593940, Control_c, 4, 11, 96
10, 594239, Note_on_c, 4, 63, 0
10, 594239, Note_on_c, 4, 51, 0
10, 594240, Note_on_c, 4, 58, 68
10, 594240, Note_on_c, 4, 46, 68
10, 594464, Note_on_c, 4, 58, 0
10, 594464, Note_on_c, 4, 46, 0
10, 594480, Note_on_c, 4, 58, 68
10, 594480, Note_on_c, 4, 46, 68
10, 594689, Note_on_c, 4, 58, 0
10, 594689, Note_on_c, 4, 46, 0
10, 594720, Note_on_c, 4, 58, 68
10, 594720, Note_on_c, 4, 46, 68
10, 594929, Note_on_c, 4, 58, 0
10, 594929, Note_on_c, 4, 46, 0
10, 594960, Note_on_c, 4, 58, 68
10, 594960, Note_on_c, 4, 46, 68
10, 595169, Note_on_c, 4, 58, 0
10, 595169, Note_on_c, 4, 46, 0
10, 595200, Note_on_c, 4, 46, 68
10, 595200, Note_on_c, 4, 58, 68
10, 595409, Note_on_c, 4, 46, 0
10, 595409, Note_on_c, 4, 58, 0
10, 595440, Note_on_c, 4, 51, 68
10, 595440, Note_on_c, 4, 63, 68
10, 595679, Note_on_c, 4, 51, 0
10, 595679, Note_on_c, 4, 63, 0
10, 598560, Note_on_c, 4, 65, 76
10, 598560, Note_on_c, 4, 46, 76
10, 599264, Note_on_c, 4, 65, 0
10, 599264, Note_on_c, 4, 46, 0
10, 599280, Note_on_c, 4, 65, 76
10, 599280, Note_on_c, 4, 46, 76
10, 599984, Note_on_c, 4, 65, 0
10, 599984, Note_on_c, 4, 46, 0
10, 600000, Note_on_c, 4, 65, 76
10, 600000, Note_on_c, 4, 46, 76
10, 600464, Note_on_c, 4, 65, 0
10, 600464, Note_on_c, 4, 46, 0
10, 600480, Note_on_c, 4, 65, 76
10, 600480, Note_on_c, 4, 46, 76
10, 600944, Note_on_c, 4, 65, 0
10, 600944, Note_on_c, 4, 46, 0
10, 600960, Note_on_c, 4, 65, 76
10, 600960, Note_on_c, 4, 46, 76
10, 601139, Note_on_c, 4, 65, 0
10, 601139, Note_on_c, 4, 46, 0
10, 601200, Note_on_c, 4, 65, 76
10, 601200, Note_on_c, 4, 46, 76
10, 601379, Note_on_c, 4, 65, 0
10, 601379, Note_on_c, 4, 46, 0
10, 601440, Note_on_c, 4, 68, 84
10, 601440, Note_on_c, 4, 46, 84
10, 601619, Note_on_c, 4, 68, 0
10, 601619, Note_on_c, 4, 46, 0
10, 601680, Note_on_c, 4, 68, 84
10, 601680, Note_on_c, 4, 46, 84
10, 601859, Note_on_c, 4, 68, 0
10, 601859, Note_on_c, 4, 46, 0
10, 601920, Note_on_c, 4, 68, 84
10, 601920, Note_on_c, 4, 46, 84
10, 602099, Note_on_c, 4, 68, 0
10, 602099, Note_on_c, 4, 46, 0
10, 602160, Note_on_c, 4, 68, 84
10, 602160, Note_on_c, 4, 46, 84
10, 602339, Note_on_c, 4, 68, 0
10, 602339, Note_on_c, 4, 46, 0
10, 602400, Note_on_c, 4, 68, 84
10, 602400, Note_on_c, 4, 46, 84
10, 602579, Note_on_c, 4, 68, 0
10, 602579, Note_on_c, 4, 46, 0
10, 602640, Note_on_c, 4, 68, 84
10, 602640, Note_on_c, 4, 46, 84
10, 602819, Note_on_c, 4, 68, 0
10, 602819, Note_on_c, 4, 46, 0
10, 602880, Note_on_c, 4, 68, 84
10, 602880, Note_on_c, 4, 46, 84
10, 603059, Note_on_c, 4, 68, 0
10, 603059, Note_on_c, 4, 46, 0
10, 603120, Note_on_c, 4, 68, 84
10, 603120, Note_on_c, 4, 46, 84
10, 603299, Note_on_c, 4, 68, 0
10, 603299, Note_on_c, 4, 46, 0
10, 603360, Note_on_c, 4, 68, 84
10, 603360, Note_on_c, 4, 46, 84
10, 603539, Note_on_c, 4, 68, 0
10, 603539, Note_on_c, 4, 46, 0
10, 603600, Note_on_c, 4, 68, 84
10, 603600, Note_on_c, 4, 46, 84
10, 603779, Note_on_c, 4, 68, 0
10, 603779, Note_on_c, 4, 46, 0
10, 603840, Note_on_c, 4, 68, 84
10, 603840, Note_on_c, 4, 46, 84
10, 604019, Note_on_c, 4, 68, 0
10, 604019, Note_on_c, 4, 46, 0
10, 604080, Note_on_c, 4, 67, 84
10, 604080, Note_on_c, 4, 51, 84
10, 604319, Note_on_c, 4, 67, 0
10, 604319, Note_on_c, 4, 51, 0
10, 604800, Note_on_c, 4, 67, 84
10, 604800, Note_on_c, 4, 63, 84
10, 605039, Note_on_c, 4, 67, 0
10, 605039, Note_on_c, 4, 63, 0
10, 605520, Note_on_c, 4, 63, 84
10, 605520, Note_on_c, 4, 55, 84
10, 605759, Note_on_c, 4, 63, 0
10, 605759, Note_on_c, 4, 55, 0
10, 605759, End_track
11, 0, Start_track
11, 0, Title_t, "French Horn III in E-flat"
11, 0, MIDI_port, 0
11, 0, Program_c, 5, 60
11, 0, Control_c, 5, 7, 96
11, 0, Control_c, 5, 10, 50
11, 0, Control_c, 5, 11, 127
11, 0, Note_on_c, 5, 63, 76
11, 179, Note_on_c, 5, 63, 0
11, 720, Note_on_c, 5, 63, 76
11, 899, Note_on_c, 5, 63, 0
11, 15120, Control_c, 5, 11, 80
11, 15180, Control_c, 5, 11, 84
11, 15240, Control_c, 5, 11, 88
11, 15300, Control_c, 5, 11, 92
11, 15360, Control_c, 5, 11, 96
11, 15360, Note_on_c, 5, 63, 76
11, 15420, Control_c, 5, 11, 100
11, 15480, Control_c, 5, 11, 104
11, 15540, Control_c, 5, 11, 107
11, 15599, Note_on_c, 5, 63, 0
11, 15600, Control_c, 5, 11, 111
11, 15600, Note_on_c, 5, 65, 76
11, 15660, Control_c, 5, 11, 115
11, 15720, Control_c, 5, 11, 119
11, 15780, Control_c, 5, 11, 123
11, 15839, Note_on_c, 5, 65, 0
11, 15840, Control_c, 5, 11, 127
11, 15840, Note_on_c, 5, 65, 76
11, 15960, Control_c, 5, 11, 80
11, 16079, Note_on_c, 5, 65, 0
11, 16560, Control_c, 5, 11, 127
11, 17040, Note_on_c, 5, 65, 52
11, 17279, Note_on_c, 5, 65, 0
11, 17280, Note_on_c, 5, 67, 52
11, 17459, Note_on_c, 5, 67, 0
11, 17520, Note_on_c, 5, 66, 76
11, 17969, Note_on_c, 5, 66, 0
11, 18000, Note_on_c, 5, 66, 76
11, 18449, Note_on_c, 5, 66, 0
11, 18480, Note_on_c, 5, 66, 76
11, 18689, Note_on_c, 5, 66, 0
11, 18720, Note_on_c, 5, 65, 52
11, 18959, Note_on_c, 5, 65, 0
11, 19920, Note_on_c, 5, 58, 76
11, 20369, Note_on_c, 5, 58, 0
11, 20400, Note_on_c, 5, 58, 76
11, 20849, Note_on_c, 5, 58, 0
11, 20880, Note_on_c, 5, 58, 76
11, 21329, Note_on_c, 5, 58, 0
11, 21360, Note_on_c, 5, 58, 76
11, 21809, Note_on_c, 5, 58, 0
11, 21840, Note_on_c, 5, 63, 76
11, 22289, Note_on_c, 5, 63, 0
11, 22320, Note_on_c, 5, 63, 76
11, 22769, Note_on_c, 5, 63, 0
11, 22800, Note_on_c, 5, 63, 76
11, 23249, Note_on_c, 5, 63, 0
11, 23280, Note_on_c, 5, 58, 52
11, 23459, Note_on_c, 5, 58, 0
11, 23520, Note_on_c, 5, 58, 76
11, 23969, Note_on_c, 5, 58, 0
11, 24000, Note_on_c, 5, 63, 52
11, 24179, Note_on_c, 5, 63, 0
11, 24240, Note_on_c, 5, 63, 76
11, 24449, Note_on_c, 5, 63, 0
11, 24465, Control_c, 5, 11, 64
11, 24480, Note_on_c, 5, 58, 84
11, 24480, Control_c, 5, 11, 64
11, 24540, Control_c, 5, 11, 67
11, 24600, Control_c, 5, 11, 69
11, 24660, Control_c, 5, 11, 72
11, 24720, Control_c, 5, 11, 75
11, 24780, Control_c, 5, 11, 77
11, 24840, Control_c, 5, 11, 80
11, 24900, Control_c, 5, 11, 82
11, 24960, Control_c, 5, 11, 85
11, 25020, Control_c, 5, 11, 88
11, 25080, Control_c, 5, 11, 90
11, 25140, Control_c, 5, 11, 93
11, 25200, Control_c, 5, 11, 96
11, 25260, Control_c, 5, 11, 98
11, 25320, Control_c, 5, 11, 101
11, 25380, Control_c, 5, 11, 103
11, 25424, Note_on_c, 5, 58, 0
11, 25440, Note_on_c, 5, 65, 84
11, 25440, Control_c, 5, 11, 106
11, 25500, Control_c, 5, 11, 109
11, 25560, Control_c, 5, 11, 111
11, 25620, Control_c, 5, 11, 114
11, 25664, Note_on_c, 5, 65, 0
11, 25680, Note_on_c, 5, 65, 84
11, 25680, Control_c, 5, 11, 117
11, 25740, Control_c, 5, 11, 119
11, 25800, Control_c, 5, 11, 122
11, 25860, Control_c, 5, 11, 124
11, 25904, Note_on_c, 5, 65, 0
11, 25920, Control_c, 5, 11, 127
11, 25920, Note_on_c, 5, 63, 84
11, 26384, Note_on_c, 5, 63, 0
11, 26400, Note_on_c, 5, 67, 84
11, 26624, Note_on_c, 5, 67, 0
11, 26640, Note_on_c, 5, 63, 84
11, 27104, Note_on_c, 5, 63, 0
11, 27120, Note_on_c, 5, 58, 84
11, 27344, Note_on_c, 5, 58, 0
11, 27360, Note_on_c, 5, 63, 84
11, 27584, Note_on_c, 5, 63, 0
11, 27600, Note_on_c, 5, 67, 84
11, 27824, Note_on_c, 5, 67, 0
11, 27840, Note_on_c, 5, 67, 84
11, 28064, Note_on_c, 5, 67, 0
11, 28080, Note_on_c, 5, 67, 84
11, 28544, Note_on_c, 5, 67, 0
11, 28560, Note_on_c, 5, 67, 92
11, 28784, Note_on_c, 5, 67, 0
11, 28800, Note_on_c, 5, 63, 84
11, 29024, Note_on_c, 5, 63, 0
11, 29040, Note_on_c, 5, 63, 84
11, 29264, Note_on_c, 5, 63, 0
11, 29280, Note_on_c, 5, 63, 84
11, 29504, Note_on_c, 5, 63, 0
11, 29520, Note_on_c, 5, 63, 84
11, 29984, Note_on_c, 5, 63, 0
11, 30000, Note_on_c, 5, 61, 92
11, 30224, Note_on_c, 5, 61, 0
11, 30240, Note_on_c, 5, 60, 84
11, 30464, Note_on_c, 5, 60, 0
11, 30480, Note_on_c, 5, 63, 84
11, 30704, Note_on_c, 5, 63, 0
11, 30720, Note_on_c, 5, 63, 84
11, 30944, Note_on_c, 5, 63, 0
11, 30960, Note_on_c, 5, 58, 84
11, 31664, Note_on_c, 5, 58, 0
11, 31680, Note_on_c, 5, 65, 84
11, 31919, Note_on_c, 5, 65, 0
11, 39120, Note_on_c, 5, 65, 84
11, 39464, Note_on_c, 5, 65, 0
11, 39480, Note_on_c, 5, 65, 84
11, 39584, Note_on_c, 5, 65, 0
11, 39600, Note_on_c, 5, 65, 84
11, 39779, Note_on_c, 5, 65, 0
11, 39840, Note_on_c, 5, 65, 84
11, 40019, Note_on_c, 5, 65, 0
11, 40080, Note_on_c, 5, 65, 84
11, 40259, Note_on_c, 5, 65, 0
11, 40320, Note_on_c, 5, 58, 84
11, 40559, Note_on_c, 5, 58, 0
11, 46080, Note_on_c, 5, 63, 76
11, 46259, Note_on_c, 5, 63, 0
11, 46320, Note_on_c, 5, 63, 76
11, 46499, Note_on_c, 5, 63, 0
11, 47400, Note_on_c, 5, 63, 76
11, 47489, Note_on_c, 5, 63, 0
11, 47520, Note_on_c, 5, 67, 76
11, 47699, Note_on_c, 5, 67, 0
11, 47760, Note_on_c, 5, 67, 76
11, 47939, Note_on_c, 5, 67, 0
11, 48840, Note_on_c, 5, 67, 76
11, 48929, Note_on_c, 5, 67, 0
11, 48960, Note_on_c, 5, 65, 76
11, 49139, Note_on_c, 5, 65, 0
11, 49200, Note_on_c, 5, 65, 76
11, 49379, Note_on_c, 5, 65, 0
11, 50280, Note_on_c, 5, 68, 76
11, 50369, Note_on_c, 5, 68, 0
11, 50400, Note_on_c, 5, 67, 76
11, 50639, Note_on_c, 5, 67, 0
11, 51360, Note_on_c, 5, 67, 76
11, 51584, Note_on_c, 5, 67, 0
11, 51600, Note_on_c, 5, 65, 76
11, 51824, Note_on_c, 5, 65, 0
11, 51840, Note_on_c, 5, 65, 76
11, 52064, Note_on_c, 5, 65, 0
11, 52080, Note_on_c, 5, 58, 76
11, 52304, Note_on_c, 5, 58, 0
11, 52320, Note_on_c, 5, 58, 76
11, 52544, Note_on_c, 5, 58, 0
11, 52560, Note_on_c, 5, 58, 76
11, 52784, Note_on_c, 5, 58, 0
11, 52800, Note_on_c, 5, 58, 76
11, 53024, Note_on_c, 5, 58, 0
11, 53040, Note_on_c, 5, 58, 76
11, 53264, Note_on_c, 5, 58, 0
11, 53280, Note_on_c, 5, 58, 76
11, 53504, Note_on_c, 5, 58, 0
11, 53520, Note_on_c, 5, 67, 76
11, 53744, Note_on_c, 5, 67, 0
11, 53760, Note_on_c, 5, 65, 76
11, 53984, Note_on_c, 5, 65, 0
11, 54000, Note_on_c, 5, 63, 76
11, 54704, Note_on_c, 5, 63, 0
11, 54720, Note_on_c, 5, 65, 76
11, 54959, Note_on_c, 5, 65, 0
11, 56160, Note_on_c, 5, 65, 76
11, 57599, Note_on_c, 5, 65, 0
11, 57600, Note_on_c, 5, 65, 84
11, 57824, Note_on_c, 5, 65, 0
11, 57840, Note_on_c, 5, 65, 84
11, 58064, Note_on_c, 5, 65, 0
11, 58080, Note_on_c, 5, 65, 84
11, 58304, Note_on_c, 5, 65, 0
11, 58320, Note_on_c, 5, 65, 84
11, 58544, Note_on_c, 5, 65, 0
11, 58560, Note_on_c, 5, 65, 84
11, 58784, Note_on_c, 5, 65, 0
11, 58800, Note_on_c, 5, 65, 84
11, 59024, Note_on_c, 5, 65, 0
11, 59040, Note_on_c, 5, 58, 84
11, 59279, Note_on_c, 5, 58, 0
11, 66240, Control_c, 5, 11, 96
11, 66300, Control_c, 5, 11, 99
11, 66360, Control_c, 5, 11, 101
11, 66420, Control_c, 5, 11, 104
11, 66480, Note_on_c, 5, 66, 68
11, 66480, Control_c, 5, 11, 106
11, 66540, Control_c, 5, 11, 109
11, 66600, Control_c, 5, 11, 112
11, 66660, Control_c, 5, 11, 114
11, 66689, Note_on_c, 5, 66, 0
11, 66720, Note_on_c, 5, 66, 68
11, 66720, Control_c, 5, 11, 117
11, 66780, Control_c, 5, 11, 119
11, 66840, Control_c, 5, 11, 122
11, 66900, Control_c, 5, 11, 124
11, 66929, Note_on_c, 5, 66, 0
11, 66960, Note_on_c, 5, 66, 76
11, 66960, Control_c, 5, 11, 127
11, 67020, Control_c, 5, 11, 123
11, 67080, Control_c, 5, 11, 119
11, 67140, Control_c, 5, 11, 115
11, 67200, Control_c, 5, 11, 111
11, 67260, Control_c, 5, 11, 107
11, 67320, Control_c, 5, 11, 104
11, 67380, Control_c, 5, 11, 100
11, 67440, Control_c, 5, 11, 96
11, 67500, Control_c, 5, 11, 92
11, 67560, Control_c, 5, 11, 88
11, 67620, Control_c, 5, 11, 84
11, 67679, Note_on_c, 5, 66, 0
11, 77040, Control_c, 5, 11, 127
11, 77760, Note_on_c, 5, 65, 76
11, 77999, Note_on_c, 5, 65, 0
11, 78000, Note_on_c, 5, 65, 84
11, 78479, Note_on_c, 5, 65, 0
11, 78720, Note_on_c, 5, 65, 84
11, 79199, Note_on_c, 5, 65, 0
11, 79440, Note_on_c, 5, 65, 84
11, 79919, Note_on_c, 5, 65, 0
11, 80160, Note_on_c, 5, 65, 84
11, 80624, Note_on_c, 5, 65, 0
11, 80640, Note_on_c, 5, 65, 84
11, 80864, Note_on_c, 5, 65, 0
11, 80880, Note_on_c, 5, 65, 84
11, 81104, Note_on_c, 5, 65, 0
11, 81120, Note_on_c, 5, 65, 84
11, 81344, Note_on_c, 5, 65, 0
11, 81360, Note_on_c, 5, 65, 84
11, 81584, Note_on_c, 5, 65, 0
11, 81600, Note_on_c, 5, 65, 84
11, 81824, Note_on_c, 5, 65, 0
11, 81840, Note_on_c, 5, 65, 84
11, 82064, Note_on_c, 5, 65, 0
11, 82080, Note_on_c, 5, 65, 84
11, 82784, Note_on_c, 5, 65, 0
11, 82800, Note_on_c, 5, 65, 84
11, 83504, Note_on_c, 5, 65, 0
11, 83520, Note_on_c, 5, 65, 84
11, 83744, Note_on_c, 5, 65, 0
11, 83760, Note_on_c, 5, 58, 84
11, 83984, Note_on_c, 5, 58, 0
11, 84000, Note_on_c, 5, 58, 84
11, 84224, Note_on_c, 5, 58, 0
11, 84240, Note_on_c, 5, 58, 84
11, 84359, Note_on_c, 5, 58, 0
11, 88800, Note_on_c, 5, 65, 84
11, 88979, Note_on_c, 5, 65, 0
11, 89040, Note_on_c, 5, 67, 84
11, 89219, Note_on_c, 5, 67, 0
11, 89520, Note_on_c, 5, 70, 84
11, 89699, Note_on_c, 5, 70, 0
11, 89760, Note_on_c, 5, 65, 84
11, 89939, Note_on_c, 5, 65, 0
11, 90480, Note_on_c, 5, 67, 84
11, 90659, Note_on_c, 5, 67, 0
11, 90960, Note_on_c, 5, 65, 84
11, 91139, Note_on_c, 5, 65, 0
11, 91200, Note_on_c, 5, 67, 84
11, 91379, Note_on_c, 5, 67, 0
11, 91680, Note_on_c, 5, 67, 92
11, 91859, Note_on_c, 5, 67, 0
11, 92160, Note_on_c, 5, 67, 92
11, 92339, Note_on_c, 5, 67, 0
11, 92640, Note_on_c, 5, 67, 92
11, 92819, Note_on_c, 5, 67, 0
11, 93120, Note_on_c, 5, 67, 92
11, 93299, Note_on_c, 5, 67, 0
11, 93600, Note_on_c, 5, 67, 92
11, 93779, Note_on_c, 5, 67, 0
11, 94080, Note_on_c, 5, 67, 92
11, 94259, Note_on_c, 5, 67, 0
11, 98640, Note_on_c, 5, 63, 52
11, 98819, Note_on_c, 5, 63, 0
11, 99120, Note_on_c, 5, 63, 52
11, 99299, Note_on_c, 5, 63, 0
11, 99360, Note_on_c, 5, 58, 52
11, 99539, Note_on_c, 5, 58, 0
11, 102240, Note_on_c, 5, 63, 84
11, 102929, Note_on_c, 5, 63, 0
11, 102960, Note_on_c, 5, 58, 76
11, 103139, Note_on_c, 5, 58, 0
11, 103680, Note_on_c, 5, 58, 76
11, 103859, Note_on_c, 5, 58, 0
11, 104400, Note_on_c, 5, 58, 76
11, 104579, Note_on_c, 5, 58, 0
11, 105120, Note_on_c, 5, 63, 76
11, 105299, Note_on_c, 5, 63, 0
11, 105360, Note_on_c, 5, 63, 76
11, 105539, Note_on_c, 5, 63, 0
11, 105600, Note_on_c, 5, 63, 76
11, 105779, Note_on_c, 5, 63, 0
11, 105840, Note_on_c, 5, 58, 76
11, 105960, Control_c, 5, 11, 80
11, 107279, Note_on_c, 5, 58, 0
11, 107280, Note_on_c, 5, 58, 76
11, 107280, Control_c, 5, 11, 80
11, 107400, Control_c, 5, 11, 79
11, 107520, Control_c, 5, 11, 77
11, 107640, Control_c, 5, 11, 76
11, 107760, Control_c, 5, 11, 75
11, 107880, Control_c, 5, 11, 73
11, 108000, Control_c, 5, 11, 72
11, 108120, Control_c, 5, 11, 71
11, 108240, Control_c, 5, 11, 69
11, 108360, Control_c, 5, 11, 68
11, 108480, Control_c, 5, 11, 67
11, 108600, Control_c, 5, 11, 65
11, 108959, Note_on_c, 5, 58, 0
11, 109440, Control_c, 5, 11, 127
11, 109560, Control_c, 5, 11, 96
11, 109920, Note_on_c, 5, 58, 68
11, 110399, Note_on_c, 5, 58, 0
11, 123840, Control_c, 5, 11, 80
11, 123900, Control_c, 5, 11, 84
11, 123960, Control_c, 5, 11, 88
11, 124020, Control_c, 5, 11, 92
11, 124080, Control_c, 5, 11, 96
11, 124080, Note_on_c, 5, 63, 76
11, 124140, Control_c, 5, 11, 100
11, 124200, Control_c, 5, 11, 104
11, 124260, Control_c, 5, 11, 107
11, 124319, Note_on_c, 5, 63, 0
11, 124320, Note_on_c, 5, 65, 76
11, 124320, Control_c, 5, 11, 111
11, 124380, Control_c, 5, 11, 115
11, 124440, Control_c, 5, 11, 119
11, 124500, Control_c, 5, 11, 123
11, 124559, Note_on_c, 5, 65, 0
11, 124560, Control_c, 5, 11, 127
11, 124560, Note_on_c, 5, 65, 76
11, 124680, Control_c, 5, 11, 80
11, 124799, Note_on_c, 5, 65, 0
11, 125280, Control_c, 5, 11, 127
11, 125760, Note_on_c, 5, 65, 52
11, 125999, Note_on_c, 5, 65, 0
11, 126000, Note_on_c, 5, 67, 52
11, 126179, Note_on_c, 5, 67, 0
11, 126240, Note_on_c, 5, 66, 76
11, 126689, Note_on_c, 5, 66, 0
11, 126720, Note_on_c, 5, 66, 76
11, 127169, Note_on_c, 5, 66, 0
11, 127200, Note_on_c, 5, 66, 76
11, 127409, Note_on_c, 5, 66, 0
11, 127440, Note_on_c, 5, 65, 52
11, 127679, Note_on_c, 5, 65, 0
11, 128640, Note_on_c, 5, 58, 76
11, 129089, Note_on_c, 5, 58, 0
11, 129120, Note_on_c, 5, 58, 76
11, 129569, Note_on_c, 5, 58, 0
11, 129600, Note_on_c, 5, 58, 76
11, 130049, Note_on_c, 5, 58, 0
11, 130080, Note_on_c, 5, 58, 76
11, 130529, Note_on_c, 5, 58, 0
11, 130560, Note_on_c, 5, 63, 76
11, 131009, Note_on_c, 5, 63, 0
11, 131040, Note_on_c, 5, 63, 76
11, 131489, Note_on_c, 5, 63, 0
11, 131520, Note_on_c, 5, 63, 76
11, 131969, Note_on_c, 5, 63, 0
11, 132000, Note_on_c, 5, 58, 52
11, 132179, Note_on_c, 5, 58, 0
11, 132240, Note_on_c, 5, 58, 76
11, 132689, Note_on_c, 5, 58, 0
11, 132720, Note_on_c, 5, 63, 52
11, 132899, Note_on_c, 5, 63, 0
11, 132960, Note_on_c, 5, 63, 76
11, 133169, Note_on_c, 5, 63, 0
11, 133185, Control_c, 5, 11, 64
11, 133200, Note_on_c, 5, 58, 84
11, 133200, Control_c, 5, 11, 64
11, 133260, Control_c, 5, 11, 67
11, 133320, Control_c, 5, 11, 69
11, 133380, Control_c, 5, 11, 72
11, 133440, Control_c, 5, 11, 75
11, 133500, Control_c, 5, 11, 77
11, 133560, Control_c, 5, 11, 80
11, 133620, Control_c, 5, 11, 82
11, 133680, Control_c, 5, 11, 85
11, 133740, Control_c, 5, 11, 88
11, 133800, Control_c, 5, 11, 90
11, 133860, Control_c, 5, 11, 93
11, 133920, Control_c, 5, 11, 96
11, 133980, Control_c, 5, 11, 98
11, 134040, Control_c, 5, 11, 101
11, 134100, Control_c, 5, 11, 103
11, 134144, Note_on_c, 5, 58, 0
11, 134160, Control_c, 5, 11, 106
11, 134160, Note_on_c, 5, 65, 84
11, 134220, Control_c, 5, 11, 109
11, 134280, Control_c, 5, 11, 111
11, 134340, Control_c, 5, 11, 114
11, 134384, Note_on_c, 5, 65, 0
11, 134400, Control_c, 5, 11, 117
11, 134400, Note_on_c, 5, 65, 84
11, 134460, Control_c, 5, 11, 119
11, 134520, Control_c, 5, 11, 122
11, 134580, Control_c, 5, 11, 124
11, 134624, Note_on_c, 5, 65, 0
11, 134640, Note_on_c, 5, 63, 84
11, 134640, Control_c, 5, 11, 127
11, 135104, Note_on_c, 5, 63, 0
11, 135120, Note_on_c, 5, 67, 84
11, 135344, Note_on_c, 5, 67, 0
11, 135360, Note_on_c, 5, 63, 84
11, 135824, Note_on_c, 5, 63, 0
11, 135840, Note_on_c, 5, 58, 84
11, 136064, Note_on_c, 5, 58, 0
11, 136080, Note_on_c, 5, 63, 84
11, 136304, Note_on_c, 5, 63, 0
11, 136320, Note_on_c, 5, 67, 84
11, 136544, Note_on_c, 5, 67, 0
11, 136560, Note_on_c, 5, 67, 84
11, 136784, Note_on_c, 5, 67, 0
11, 136800, Note_on_c, 5, 67, 84
11, 137264, Note_on_c, 5, 67, 0
11, 137280, Note_on_c, 5, 67, 92
11, 137504, Note_on_c, 5, 67, 0
11, 137520, Note_on_c, 5, 63, 84
11, 137744, Note_on_c, 5, 63, 0
11, 137760, Note_on_c, 5, 63, 84
11, 137984, Note_on_c, 5, 63, 0
11, 138000, Note_on_c, 5, 63, 84
11, 138224, Note_on_c, 5, 63, 0
11, 138240, Note_on_c, 5, 63, 84
11, 138704, Note_on_c, 5, 63, 0
11, 138720, Note_on_c, 5, 61, 92
11, 138944, Note_on_c, 5, 61, 0
11, 138960, Note_on_c, 5, 60, 84
11, 139184, Note_on_c, 5, 60, 0
11, 139200, Note_on_c, 5, 63, 84
11, 139424, Note_on_c, 5, 63, 0
11, 139440, Note_on_c, 5, 63, 84
11, 139664, Note_on_c, 5, 63, 0
11, 139680, Note_on_c, 5, 58, 84
11, 140384, Note_on_c, 5, 58, 0
11, 140400, Note_on_c, 5, 65, 84
11, 140639, Note_on_c, 5, 65, 0
11, 147840, Note_on_c, 5, 65, 84
11, 148184, Note_on_c, 5, 65, 0
11, 148200, Note_on_c, 5, 65, 84
11, 148304, Note_on_c, 5, 65, 0
11, 148320, Note_on_c, 5, 65, 84
11, 148499, Note_on_c, 5, 65, 0
11, 148560, Note_on_c, 5, 65, 84
11, 148739, Note_on_c, 5, 65, 0
11, 148800, Note_on_c, 5, 65, 84
11, 148979, Note_on_c, 5, 65, 0
11, 149040, Note_on_c, 5, 58, 84
11, 149279, Note_on_c, 5, 58, 0
11, 154800, Note_on_c, 5, 63, 76
11, 154979, Note_on_c, 5, 63, 0
11, 155040, Note_on_c, 5, 63, 76
11, 155219, Note_on_c, 5, 63, 0
11, 156120, Note_on_c, 5, 63, 76
11, 156209, Note_on_c, 5, 63, 0
11, 156240, Note_on_c, 5, 67, 76
11, 156419, Note_on_c, 5, 67, 0
11, 156480, Note_on_c, 5, 67, 76
11, 156659, Note_on_c, 5, 67, 0
11, 157560, Note_on_c, 5, 67, 76
11, 157649, Note_on_c, 5, 67, 0
11, 157680, Note_on_c, 5, 65, 76
11, 157859, Note_on_c, 5, 65, 0
11, 157920, Note_on_c, 5, 65, 76
11, 158099, Note_on_c, 5, 65, 0
11, 159000, Note_on_c, 5, 68, 76
11, 159089, Note_on_c, 5, 68, 0
11, 159120, Note_on_c, 5, 67, 76
11, 159359, Note_on_c, 5, 67, 0
11, 160080, Note_on_c, 5, 67, 76
11, 160304, Note_on_c, 5, 67, 0
11, 160320, Note_on_c, 5, 65, 76
11, 160544, Note_on_c, 5, 65, 0
11, 160560, Note_on_c, 5, 65, 76
11, 160784, Note_on_c, 5, 65, 0
11, 160800, Note_on_c, 5, 58, 76
11, 161024, Note_on_c, 5, 58, 0
11, 161040, Note_on_c, 5, 58, 76
11, 161264, Note_on_c, 5, 58, 0
11, 161280, Note_on_c, 5, 58, 76
11, 161504, Note_on_c, 5, 58, 0
11, 161520, Note_on_c, 5, 58, 76
11, 161744, Note_on_c, 5, 58, 0
11, 161760, Note_on_c, 5, 58, 76
11, 161984, Note_on_c, 5, 58, 0
11, 162000, Note_on_c, 5, 58, 76
11, 162224, Note_on_c, 5, 58, 0
11, 162240, Note_on_c, 5, 67, 76
11, 162464, Note_on_c, 5, 67, 0
11, 162480, Note_on_c, 5, 65, 76
11, 162704, Note_on_c, 5, 65, 0
11, 162720, Note_on_c, 5, 63, 76
11, 163424, Note_on_c, 5, 63, 0
11, 163440, Note_on_c, 5, 65, 76
11, 163679, Note_on_c, 5, 65, 0
11, 164880, Note_on_c, 5, 65, 76
11, 166319, Note_on_c, 5, 65, 0
11, 166320, Note_on_c, 5, 65, 84
11, 166544, Note_on_c, 5, 65, 0
11, 166560, Note_on_c, 5, 65, 84
11, 166784, Note_on_c, 5, 65, 0
11, 166800, Note_on_c, 5, 65, 84
11, 167024, Note_on_c, 5, 65, 0
11, 167040, Note_on_c, 5, 65, 84
11, 167264, Note_on_c, 5, 65, 0
11, 167280, Note_on_c, 5, 65, 84
11, 167504, Note_on_c, 5, 65, 0
11, 167520, Note_on_c, 5, 65, 84
11, 167744, Note_on_c, 5, 65, 0
11, 167760, Note_on_c, 5, 58, 84
11, 167999, Note_on_c, 5, 58, 0
11, 174960, Control_c, 5, 11, 96
11, 175020, Control_c, 5, 11, 99
11, 175080, Control_c, 5, 11, 101
11, 175140, Control_c, 5, 11, 104
11, 175200, Control_c, 5, 11, 106
11, 175200, Note_on_c, 5, 66, 68
11, 175260, Control_c, 5, 11, 109
11, 175320, Control_c, 5, 11, 112
11, 175380, Control_c, 5, 11, 114
11, 175409, Note_on_c, 5, 66, 0
11, 175440, Control_c, 5, 11, 117
11, 175440, Note_on_c, 5, 66, 68
11, 175500, Control_c, 5, 11, 119
11, 175560, Control_c, 5, 11, 122
11, 175620, Control_c, 5, 11, 124
11, 175649, Note_on_c, 5, 66, 0
11, 175680, Control_c, 5, 11, 127
11, 175680, Note_on_c, 5, 66, 76
11, 175740, Control_c, 5, 11, 123
11, 175800, Control_c, 5, 11, 119
11, 175860, Control_c, 5, 11, 115
11, 175920, Control_c, 5, 11, 111
11, 175980, Control_c, 5, 11, 107
11, 176040, Control_c, 5, 11, 104
11, 176100, Control_c, 5, 11, 100
11, 176160, Control_c, 5, 11, 96
11, 176220, Control_c, 5, 11, 92
11, 176280, Control_c, 5, 11, 88
11, 176340, Control_c, 5, 11, 84
11, 176399, Note_on_c, 5, 66, 0
11, 185760, Control_c, 5, 11, 127
11, 186480, Note_on_c, 5, 65, 76
11, 186719, Note_on_c, 5, 65, 0
11, 186720, Note_on_c, 5, 65, 84
11, 187199, Note_on_c, 5, 65, 0
11, 187440, Note_on_c, 5, 65, 84
11, 187919, Note_on_c, 5, 65, 0
11, 188160, Note_on_c, 5, 65, 84
11, 188639, Note_on_c, 5, 65, 0
11, 188880, Note_on_c, 5, 65, 84
11, 189344, Note_on_c, 5, 65, 0
11, 189360, Note_on_c, 5, 65, 84
11, 189584, Note_on_c, 5, 65, 0
11, 189600, Note_on_c, 5, 65, 84
11, 189824, Note_on_c, 5, 65, 0
11, 189840, Note_on_c, 5, 65, 84
11, 190064, Note_on_c, 5, 65, 0
11, 190080, Note_on_c, 5, 65, 84
11, 190304, Note_on_c, 5, 65, 0
11, 190320, Note_on_c, 5, 65, 84
11, 190544, Note_on_c, 5, 65, 0
11, 190560, Note_on_c, 5, 65, 84
11, 190784, Note_on_c, 5, 65, 0
11, 190800, Note_on_c, 5, 65, 84
11, 191504, Note_on_c, 5, 65, 0
11, 191520, Note_on_c, 5, 65, 84
11, 192224, Note_on_c, 5, 65, 0
11, 192240, Note_on_c, 5, 65, 84
11, 192464, Note_on_c, 5, 65, 0
11, 192480, Note_on_c, 5, 58, 84
11, 192704, Note_on_c, 5, 58, 0
11, 192720, Note_on_c, 5, 58, 84
11, 192944, Note_on_c, 5, 58, 0
11, 192960, Note_on_c, 5, 58, 84
11, 193079, Note_on_c, 5, 58, 0
11, 197520, Note_on_c, 5, 65, 84
11, 197699, Note_on_c, 5, 65, 0
11, 197760, Note_on_c, 5, 67, 84
11, 197939, Note_on_c, 5, 67, 0
11, 198240, Note_on_c, 5, 70, 84
11, 198419, Note_on_c, 5, 70, 0
11, 198480, Note_on_c, 5, 65, 84
11, 198659, Note_on_c, 5, 65, 0
11, 199200, Note_on_c, 5, 67, 84
11, 199379, Note_on_c, 5, 67, 0
11, 199680, Note_on_c, 5, 65, 84
11, 199859, Note_on_c, 5, 65, 0
11, 199920, Note_on_c, 5, 67, 84
11, 200099, Note_on_c, 5, 67, 0
11, 200400, Note_on_c, 5, 67, 92
11, 200579, Note_on_c, 5, 67, 0
11, 200880, Note_on_c, 5, 67, 92
11, 201059, Note_on_c, 5, 67, 0
11, 201360, Note_on_c, 5, 67, 92
11, 201539, Note_on_c, 5, 67, 0
11, 201840, Note_on_c, 5, 67, 92
11, 202019, Note_on_c, 5, 67, 0
11, 202320, Note_on_c, 5, 67, 92
11, 202499, Note_on_c, 5, 67, 0
11, 202800, Note_on_c, 5, 67, 92
11, 202979, Note_on_c, 5, 67, 0
11, 207360, Note_on_c, 5, 63, 52
11, 207539, Note_on_c, 5, 63, 0
11, 207840, Note_on_c, 5, 63, 52
11, 208019, Note_on_c, 5, 63, 0
11, 208080, Note_on_c, 5, 58, 52
11, 208259, Note_on_c, 5, 58, 0
11, 210960, Note_on_c, 5, 63, 84
11, 211649, Note_on_c, 5, 63, 0
11, 211680, Note_on_c, 5, 58, 76
11, 211859, Note_on_c, 5, 58, 0
11, 212400, Note_on_c, 5, 58, 76
11, 212579, Note_on_c, 5, 58, 0
11, 213120, Note_on_c, 5, 58, 76
11, 213299, Note_on_c, 5, 58, 0
11, 213840, Note_on_c, 5, 63, 76
11, 214019, Note_on_c, 5, 63, 0
11, 214080, Note_on_c, 5, 63, 76
11, 214259, Note_on_c, 5, 63, 0
11, 214320, Note_on_c, 5, 63, 76
11, 214499, Note_on_c, 5, 63, 0
11, 214560, Note_on_c, 5, 58, 76
11, 214680, Control_c, 5, 11, 80
11, 215999, Note_on_c, 5, 58, 0
11, 216000, Control_c, 5, 11, 80
11, 216000, Note_on_c, 5, 58, 76
11, 216120, Control_c, 5, 11, 79
11, 216240, Control_c, 5, 11, 77
11, 216360, Control_c, 5, 11, 76
11, 216480, Control_c, 5, 11, 75
11, 216600, Control_c, 5, 11, 73
11, 216720, Control_c, 5, 11, 72
11, 216840, Control_c, 5, 11, 71
11, 216960, Control_c, 5, 11, 69
11, 217080, Control_c, 5, 11, 68
11, 217200, Control_c, 5, 11, 67
11, 217320, Control_c, 5, 11, 65
11, 217679, Note_on_c, 5, 58, 0
11, 250320, Control_c, 5, 11, 127
11, 250560, Note_on_c, 5, 67, 84
11, 250739, Note_on_c, 5, 67, 0
11, 250800, Note_on_c, 5, 67, 84
11, 250979, Note_on_c, 5, 67, 0
11, 251040, Note_on_c, 5, 67, 84
11, 251219, Note_on_c, 5, 67, 0
11, 251280, Note_on_c, 5, 67, 84
11, 251459, Note_on_c, 5, 67, 0
11, 251520, Note_on_c, 5, 67, 84
11, 251699, Note_on_c, 5, 67, 0
11, 251760, Note_on_c, 5, 67, 84
11, 251939, Note_on_c, 5, 67, 0
11, 252000, Note_on_c, 5, 67, 84
11, 253439, Note_on_c, 5, 67, 0
11, 262080, Note_on_c, 5, 65, 76
11, 262784, Note_on_c, 5, 65, 0
11, 262800, Note_on_c, 5, 65, 76
11, 263504, Note_on_c, 5, 65, 0
11, 263520, Note_on_c, 5, 63, 76
11, 264224, Note_on_c, 5, 63, 0
11, 264240, Note_on_c, 5, 63, 76
11, 264944, Note_on_c, 5, 63, 0
11, 264960, Note_on_c, 5, 65, 84
11, 265664, Note_on_c, 5, 65, 0
11, 265680, Note_on_c, 5, 64, 84
11, 266384, Note_on_c, 5, 64, 0
11, 266400, Note_on_c, 5, 63, 84
11, 266639, Note_on_c, 5, 63, 0
11, 267840, Note_on_c, 5, 51, 52
11, 268019, Note_on_c, 5, 51, 0
11, 268080, Note_on_c, 5, 55, 52
11, 268259, Note_on_c, 5, 55, 0
11, 268320, Note_on_c, 5, 58, 52
11, 268499, Note_on_c, 5, 58, 0
11, 268560, Note_on_c, 5, 63, 52
11, 268739, Note_on_c, 5, 63, 0
11, 268800, Note_on_c, 5, 67, 52
11, 268979, Note_on_c, 5, 67, 0
11, 269040, Note_on_c, 5, 70, 52
11, 269219, Note_on_c, 5, 70, 0
11, 269280, Note_on_c, 5, 63, 52
11, 269519, Note_on_c, 5, 63, 0
11, 273600, Note_on_c, 5, 51, 52
11, 273779, Note_on_c, 5, 51, 0
11, 273840, Note_on_c, 5, 55, 52
11, 274019, Note_on_c, 5, 55, 0
11, 274080, Note_on_c, 5, 58, 52
11, 274259, Note_on_c, 5, 58, 0
11, 274320, Note_on_c, 5, 63, 52
11, 274499, Note_on_c, 5, 63, 0
11, 274560, Note_on_c, 5, 67, 52
11, 274739, Note_on_c, 5, 67, 0
11, 274800, Note_on_c, 5, 63, 52
11, 274979, Note_on_c, 5, 63, 0
11, 275040, Note_on_c, 5, 63, 52
11, 275279, Note_on_c, 5, 63, 0
11, 276240, Note_on_c, 5, 68, 52
11, 276464, Note_on_c, 5, 68, 0
11, 276480, Note_on_c, 5, 70, 68
11, 276600, Control_c, 5, 11, 96
11, 277439, Note_on_c, 5, 70, 0
11, 277680, Note_on_c, 5, 67, 68
11, 277904, Note_on_c, 5, 67, 0
11, 277920, Note_on_c, 5, 68, 68
11, 278159, Note_on_c, 5, 68, 0
11, 304080, Note_on_c, 5, 66, 92
11, 304529, Note_on_c, 5, 66, 0
11, 304560, Note_on_c, 5, 66, 92
11, 305009, Note_on_c, 5, 66, 0
11, 305040, Note_on_c, 5, 66, 92
11, 305249, Note_on_c, 5, 66, 0
11, 306960, Note_on_c, 5, 65, 76
11, 307439, Note_on_c, 5, 65, 0
11, 307680, Note_on_c, 5, 65, 76
11, 308159, Note_on_c, 5, 65, 0
11, 308400, Note_on_c, 5, 65, 76
11, 308879, Note_on_c, 5, 65, 0
11, 308880, Note_on_c, 5, 65, 76
11, 309344, Note_on_c, 5, 65, 0
11, 309360, Note_on_c, 5, 65, 76
11, 309539, Note_on_c, 5, 65, 0
11, 335520, Control_c, 5, 11, 127
11, 335760, Note_on_c, 5, 55, 76
11, 335939, Note_on_c, 5, 55, 0
11, 336000, Note_on_c, 5, 58, 76
11, 336179, Note_on_c, 5, 58, 0
11, 336240, Note_on_c, 5, 63, 76
11, 336419, Note_on_c, 5, 63, 0
11, 336480, Note_on_c, 5, 67, 76
11, 336659, Note_on_c, 5, 67, 0
11, 336720, Note_on_c, 5, 70, 84
11, 337169, Note_on_c, 5, 70, 0
11, 337200, Note_on_c, 5, 58, 76
11, 337424, Note_on_c, 5, 58, 0
11, 337440, Note_on_c, 5, 58, 76
11, 337664, Note_on_c, 5, 58, 0
11, 337680, Note_on_c, 5, 58, 76
11, 337904, Note_on_c, 5, 58, 0
11, 337920, Note_on_c, 5, 58, 76
11, 338144, Note_on_c, 5, 58, 0
11, 338160, Note_on_c, 5, 58, 76
11, 338384, Note_on_c, 5, 58, 0
11, 338400, Note_on_c, 5, 58, 84
11, 338624, Note_on_c, 5, 58, 0
11, 338640, Note_on_c, 5, 63, 84
11, 338864, Note_on_c, 5, 63, 0
11, 338880, Note_on_c, 5, 63, 84
11, 339104, Note_on_c, 5, 63, 0
11, 339120, Note_on_c, 5, 63, 84
11, 339344, Note_on_c, 5, 63, 0
11, 339360, Note_on_c, 5, 63, 84
11, 339584, Note_on_c, 5, 63, 0
11, 339600, Note_on_c, 5, 63, 84
11, 339824, Note_on_c, 5, 63, 0
11, 339840, Note_on_c, 5, 63, 84
11, 340079, Note_on_c, 5, 63, 0
11, 354240, Note_on_c, 5, 63, 52
11, 355679, Note_on_c, 5, 63, 0
11, 355680, Note_on_c, 5, 63, 52
11, 356624, Note_on_c, 5, 63, 0
11, 356640, Note_on_c, 5, 63, 52
11, 356864, Note_on_c, 5, 63, 0
11, 356880, Note_on_c, 5, 63, 52
11, 357104, Note_on_c, 5, 63, 0
11, 357120, Note_on_c, 5, 63, 52
11, 358559, Note_on_c, 5, 63, 0
11, 358560, Note_on_c, 5, 63, 52
11, 359504, Note_on_c, 5, 63, 0
11, 359520, Note_on_c, 5, 63, 52
11, 359744, Note_on_c, 5, 63, 0
11, 359760, Note_on_c, 5, 63, 52
11, 359969, Note_on_c, 5, 63, 0
11, 359985, Control_c, 5, 11, 64
11, 360000, Note_on_c, 5, 65, 84
11, 361439, Note_on_c, 5, 65, 0
11, 361440, Note_on_c, 5, 65, 84
11, 362384, Note_on_c, 5, 65, 0
11, 362400, Note_on_c, 5, 65, 84
11, 362624, Note_on_c, 5, 65, 0
11, 362640, Note_on_c, 5, 65, 84
11, 362864, Note_on_c, 5, 65, 0
11, 362880, Note_on_c, 5, 65, 84
11, 362880, Control_c, 5, 11, 64
11, 363040, Control_c, 5, 11, 66
11, 363200, Control_c, 5, 11, 68
11, 363360, Control_c, 5, 11, 69
11, 363520, Control_c, 5, 11, 71
11, 363680, Control_c, 5, 11, 73
11, 363840, Control_c, 5, 11, 75
11, 364000, Control_c, 5, 11, 76
11, 364160, Control_c, 5, 11, 78
11, 364319, Note_on_c, 5, 65, 0
11, 364320, Control_c, 5, 11, 80
11, 364320, Note_on_c, 5, 65, 84
11, 364480, Control_c, 5, 11, 82
11, 364640, Control_c, 5, 11, 83
11, 364800, Control_c, 5, 11, 85
11, 364960, Control_c, 5, 11, 87
11, 365120, Control_c, 5, 11, 89
11, 365264, Note_on_c, 5, 65, 0
11, 365280, Control_c, 5, 11, 90
11, 365280, Note_on_c, 5, 65, 84
11, 365440, Control_c, 5, 11, 92
11, 365504, Note_on_c, 5, 65, 0
11, 365520, Note_on_c, 5, 65, 84
11, 365600, Control_c, 5, 11, 94
11, 365744, Note_on_c, 5, 65, 0
11, 365760, Note_on_c, 5, 63, 84
11, 365760, Control_c, 5, 11, 96
11, 365920, Control_c, 5, 11, 97
11, 366080, Control_c, 5, 11, 99
11, 366240, Control_c, 5, 11, 101
11, 366400, Control_c, 5, 11, 103
11, 366560, Control_c, 5, 11, 104
11, 366720, Control_c, 5, 11, 106
11, 366880, Control_c, 5, 11, 108
11, 367040, Control_c, 5, 11, 110
11, 367199, Note_on_c, 5, 63, 0
11, 367200, Control_c, 5, 11, 111
11, 367200, Note_on_c, 5, 63, 84
11, 367360, Control_c, 5, 11, 113
11, 367520, Control_c, 5, 11, 115
11, 367680, Control_c, 5, 11, 117
11, 367840, Control_c, 5, 11, 118
11, 368000, Control_c, 5, 11, 120
11, 368144, Note_on_c, 5, 63, 0
11, 368160, Note_on_c, 5, 63, 84
11, 368160, Control_c, 5, 11, 122
11, 368320, Control_c, 5, 11, 124
11, 368384, Note_on_c, 5, 63, 0
11, 368400, Note_on_c, 5, 63, 84
11, 368480, Control_c, 5, 11, 127
11, 368624, Note_on_c, 5, 63, 0
11, 368640, Note_on_c, 5, 63, 84
11, 370304, Note_on_c, 5, 63, 0
11, 370320, Note_on_c, 5, 63, 84
11, 370544, Note_on_c, 5, 63, 0
11, 370560, Note_on_c, 5, 63, 84
11, 370784, Note_on_c, 5, 63, 0
11, 370800, Note_on_c, 5, 63, 84
11, 371024, Note_on_c, 5, 63, 0
11, 371040, Note_on_c, 5, 63, 84
11, 371264, Note_on_c, 5, 63, 0
11, 371280, Note_on_c, 5, 63, 84
11, 371504, Note_on_c, 5, 63, 0
11, 371520, Note_on_c, 5, 63, 84
11, 371759, Note_on_c, 5, 63, 0
11, 377280, Note_on_c, 5, 58, 52
11, 377280, Control_c, 5, 11, 127
11, 377520, Control_c, 5, 11, 126
11, 377760, Control_c, 5, 11, 125
11, 377984, Note_on_c, 5, 58, 0
11, 378000, Control_c, 5, 11, 123
11, 378000, Note_on_c, 5, 58, 52
11, 378240, Control_c, 5, 11, 122
11, 378480, Control_c, 5, 11, 121
11, 378704, Note_on_c, 5, 58, 0
11, 378720, Note_on_c, 5, 63, 52
11, 378720, Control_c, 5, 11, 120
11, 378960, Control_c, 5, 11, 118
11, 379200, Control_c, 5, 11, 117
11, 379424, Note_on_c, 5, 63, 0
11, 379440, Control_c, 5, 11, 116
11, 379440, Note_on_c, 5, 63, 52
11, 379680, Control_c, 5, 11, 115
11, 379920, Control_c, 5, 11, 112
11, 380144, Note_on_c, 5, 63, 0
11, 380160, Note_on_c, 5, 65, 52
11, 380864, Note_on_c, 5, 65, 0
11, 380880, Note_on_c, 5, 65, 52
11, 381584, Note_on_c, 5, 65, 0
11, 381600, Note_on_c, 5, 65, 52
11, 382304, Note_on_c, 5, 65, 0
11, 382320, Note_on_c, 5, 65, 52
11, 383039, Note_on_c, 5, 65, 0
11, 384240, Control_c, 5, 11, 127
11, 384480, Note_on_c, 5, 65, 44
11, 385184, Note_on_c, 5, 65, 0
11, 385200, Note_on_c, 5, 65, 44
11, 385919, Note_on_c, 5, 65, 0
11, 387360, Note_on_c, 5, 65, 44
11, 388064, Note_on_c, 5, 65, 0
11, 388080, Note_on_c, 5, 65, 44
11, 388799, Note_on_c, 5, 65, 0
11, 393120, Note_on_c, 5, 65, 76
11, 393824, Note_on_c, 5, 65, 0
11, 393840, Note_on_c, 5, 65, 84
11, 394544, Note_on_c, 5, 65, 0
11, 394560, Note_on_c, 5, 63, 84
11, 394799, Note_on_c, 5, 63, 0
11, 413040, Control_c, 5, 11, 64
11, 413280, Note_on_c, 5, 58, 76
11, 414720, Control_c, 5, 11, 64
11, 414800, Control_c, 5, 11, 66
11, 414880, Control_c, 5, 11, 68
11, 414960, Control_c, 5, 11, 69
11, 415040, Control_c, 5, 11, 71
11, 415120, Control_c, 5, 11, 73
11, 415200, Control_c, 5, 11, 75
11, 415280, Control_c, 5, 11, 76
11, 415360, Control_c, 5, 11, 78
11, 415440, Control_c, 5, 11, 80
11, 415520, Control_c, 5, 11, 82
11, 415600, Control_c, 5, 11, 83
11, 415680, Control_c, 5, 11, 85
11, 415760, Control_c, 5, 11, 87
11, 415840, Control_c, 5, 11, 89
11, 415920, Control_c, 5, 11, 90
11, 416000, Control_c, 5, 11, 92
11, 416080, Control_c, 5, 11, 94
11, 416160, Control_c, 5, 11, 96
11, 416240, Control_c, 5, 11, 97
11, 416264, Note_on_c, 5, 58, 0
11, 416280, Note_on_c, 5, 58, 76
11, 416320, Control_c, 5, 11, 99
11, 416384, Note_on_c, 5, 58, 0
11, 416400, Note_on_c, 5, 58, 76
11, 416400, Control_c, 5, 11, 101
11, 416480, Control_c, 5, 11, 103
11, 416504, Note_on_c, 5, 58, 0
11, 416520, Note_on_c, 5, 58, 76
11, 416560, Control_c, 5, 11, 104
11, 416624, Note_on_c, 5, 58, 0
11, 416640, Control_c, 5, 11, 106
11, 416640, Note_on_c, 5, 58, 76
11, 416720, Control_c, 5, 11, 108
11, 416744, Note_on_c, 5, 58, 0
11, 416760, Note_on_c, 5, 58, 76
11, 416800, Control_c, 5, 11, 110
11, 416864, Note_on_c, 5, 58, 0
11, 416880, Control_c, 5, 11, 111
11, 416880, Note_on_c, 5, 58, 76
11, 416960, Control_c, 5, 11, 113
11, 416984, Note_on_c, 5, 58, 0
11, 417000, Note_on_c, 5, 58, 76
11, 417040, Control_c, 5, 11, 115
11, 417104, Note_on_c, 5, 58, 0
11, 417120, Note_on_c, 5, 58, 76
11, 417120, Control_c, 5, 11, 117
11, 417200, Control_c, 5, 11, 118
11, 417224, Note_on_c, 5, 58, 0
11, 417240, Note_on_c, 5, 58, 76
11, 417280, Control_c, 5, 11, 120
11, 417344, Note_on_c, 5, 58, 0
11, 417360, Note_on_c, 5, 65, 76
11, 417360, Control_c, 5, 11, 122
11, 417440, Control_c, 5, 11, 124
11, 417464, Note_on_c, 5, 65, 0
11, 417480, Note_on_c, 5, 65, 76
11, 417520, Control_c, 5, 11, 127
11, 417584, Note_on_c, 5, 65, 0
11, 417600, Note_on_c, 5, 63, 76
11, 419264, Note_on_c, 5, 63, 0
11, 419280, Note_on_c, 5, 63, 76
11, 419504, Note_on_c, 5, 63, 0
11, 419520, Note_on_c, 5, 63, 76
11, 419744, Note_on_c, 5, 63, 0
11, 419760, Note_on_c, 5, 63, 76
11, 420239, Note_on_c, 5, 63, 0
11, 420720, Note_on_c, 5, 63, 76
11, 420944, Note_on_c, 5, 63, 0
11, 420960, Note_on_c, 5, 63, 76
11, 421184, Note_on_c, 5, 63, 0
11, 421200, Note_on_c, 5, 63, 76
11, 421664, Note_on_c, 5, 63, 0
11, 421680, Note_on_c, 5, 63, 84
11, 421904, Note_on_c, 5, 63, 0
11, 421920, Note_on_c, 5, 63, 80
11, 422624, Note_on_c, 5, 63, 0
11, 422640, Note_on_c, 5, 63, 80
11, 423344, Note_on_c, 5, 63, 0
11, 423360, Note_on_c, 5, 63, 80
11, 424304, Note_on_c, 5, 63, 0
11, 424320, Note_on_c, 5, 63, 80
11, 424544, Note_on_c, 5, 63, 0
11, 424560, Note_on_c, 5, 63, 80
11, 424784, Note_on_c, 5, 63, 0
11, 424800, Note_on_c, 5, 63, 84
11, 425264, Note_on_c, 5, 63, 0
11, 425280, Note_on_c, 5, 67, 92
11, 425504, Note_on_c, 5, 67, 0
11, 425520, Note_on_c, 5, 63, 84
11, 425984, Note_on_c, 5, 63, 0
11, 426000, Note_on_c, 5, 58, 92
11, 426224, Note_on_c, 5, 58, 0
11, 426240, Note_on_c, 5, 63, 84
11, 426464, Note_on_c, 5, 63, 0
11, 426480, Note_on_c, 5, 67, 84
11, 426704, Note_on_c, 5, 67, 0
11, 426720, Note_on_c, 5, 70, 84
11, 426944, Note_on_c, 5, 70, 0
11, 426960, Note_on_c, 5, 63, 84
11, 427424, Note_on_c, 5, 63, 0
11, 427440, Note_on_c, 5, 67, 92
11, 427904, Note_on_c, 5, 67, 0
11, 427920, Note_on_c, 5, 67, 84
11, 428144, Note_on_c, 5, 67, 0
11, 428160, Note_on_c, 5, 67, 84
11, 428384, Note_on_c, 5, 67, 0
11, 428400, Note_on_c, 5, 67, 84
11, 428864, Note_on_c, 5, 67, 0
11, 428880, Note_on_c, 5, 67, 92
11, 429104, Note_on_c, 5, 67, 0
11, 429120, Note_on_c, 5, 65, 84
11, 429824, Note_on_c, 5, 65, 0
11, 429840, Note_on_c, 5, 65, 84
11, 430544, Note_on_c, 5, 65, 0
11, 430560, Note_on_c, 5, 65, 84
11, 430784, Note_on_c, 5, 65, 0
11, 430800, Note_on_c, 5, 58, 52
11, 432944, Note_on_c, 5, 58, 0
11, 432960, Note_on_c, 5, 58, 52
11, 433184, Note_on_c, 5, 58, 0
11, 433200, Note_on_c, 5, 58, 52
11, 433424, Note_on_c, 5, 58, 0
11, 433440, Note_on_c, 5, 58, 52
11, 435104, Note_on_c, 5, 58, 0
11, 435120, Note_on_c, 5, 67, 52
11, 435464, Note_on_c, 5, 67, 0
11, 435480, Note_on_c, 5, 63, 52
11, 435584, Note_on_c, 5, 63, 0
11, 435600, Note_on_c, 5, 58, 52
11, 435824, Note_on_c, 5, 58, 0
11, 435840, Note_on_c, 5, 58, 52
11, 436064, Note_on_c, 5, 58, 0
11, 436080, Note_on_c, 5, 58, 52
11, 436304, Note_on_c, 5, 58, 0
11, 436320, Note_on_c, 5, 58, 52
11, 437984, Note_on_c, 5, 58, 0
11, 438000, Note_on_c, 5, 58, 84
11, 438344, Note_on_c, 5, 58, 0
11, 438360, Note_on_c, 5, 58, 84
11, 438464, Note_on_c, 5, 58, 0
11, 438480, Note_on_c, 5, 58, 84
11, 438704, Note_on_c, 5, 58, 0
11, 438720, Note_on_c, 5, 58, 84
11, 438944, Note_on_c, 5, 58, 0
11, 438960, Note_on_c, 5, 58, 84
11, 439169, Note_on_c, 5, 58, 0
11, 439185, Control_c, 5, 11, 96
11, 439200, Note_on_c, 5, 63, 68
11, 439200, Control_c, 5, 11, 96
11, 439260, Control_c, 5, 11, 99
11, 439320, Control_c, 5, 11, 101
11, 439380, Control_c, 5, 11, 104
11, 439440, Control_c, 5, 11, 106
11, 439500, Control_c, 5, 11, 109
11, 439560, Control_c, 5, 11, 112
11, 439620, Control_c, 5, 11, 114
11, 439680, Control_c, 5, 11, 117
11, 439740, Control_c, 5, 11, 119
11, 439800, Control_c, 5, 11, 122
11, 439860, Control_c, 5, 11, 124
11, 439920, Control_c, 5, 11, 127
11, 439980, Control_c, 5, 11, 124
11, 440040, Control_c, 5, 11, 122
11, 440100, Control_c, 5, 11, 119
11, 440160, Control_c, 5, 11, 117
11, 440220, Control_c, 5, 11, 114
11, 440280, Control_c, 5, 11, 112
11, 440340, Control_c, 5, 11, 109
11, 440400, Control_c, 5, 11, 106
11, 440460, Control_c, 5, 11, 104
11, 440520, Control_c, 5, 11, 101
11, 440580, Control_c, 5, 11, 96
11, 440879, Note_on_c, 5, 63, 0
11, 440880, Note_on_c, 5, 70, 68
11, 441104, Note_on_c, 5, 70, 0
11, 441120, Note_on_c, 5, 70, 68
11, 441329, Note_on_c, 5, 70, 0
11, 441360, Note_on_c, 5, 70, 68
11, 441569, Note_on_c, 5, 70, 0
11, 441600, Note_on_c, 5, 70, 68
11, 441809, Note_on_c, 5, 70, 0
11, 441840, Note_on_c, 5, 70, 68
11, 442049, Note_on_c, 5, 70, 0
11, 442080, Note_on_c, 5, 70, 68
11, 442319, Note_on_c, 5, 70, 0
11, 444720, Control_c, 5, 11, 127
11, 444960, Note_on_c, 5, 68, 76
11, 445139, Note_on_c, 5, 68, 0
11, 445200, Note_on_c, 5, 68, 76
11, 445379, Note_on_c, 5, 68, 0
11, 446280, Note_on_c, 5, 68, 76
11, 446384, Note_on_c, 5, 68, 0
11, 446400, Note_on_c, 5, 67, 76
11, 446579, Note_on_c, 5, 67, 0
11, 446640, Note_on_c, 5, 67, 76
11, 446819, Note_on_c, 5, 67, 0
11, 447720, Note_on_c, 5, 67, 76
11, 447824, Note_on_c, 5, 67, 0
11, 447840, Note_on_c, 5, 67, 76
11, 448019, Note_on_c, 5, 67, 0
11, 448080, Note_on_c, 5, 67, 76
11, 448259, Note_on_c, 5, 67, 0
11, 449160, Note_on_c, 5, 67, 76
11, 449264, Note_on_c, 5, 67, 0
11, 449280, Note_on_c, 5, 68, 76
11, 449519, Note_on_c, 5, 68, 0
11, 450960, Note_on_c, 5, 63, 76
11, 451184, Note_on_c, 5, 63, 0
11, 451200, Note_on_c, 5, 63, 76
11, 451424, Note_on_c, 5, 63, 0
11, 451440, Note_on_c, 5, 63, 76
11, 451664, Note_on_c, 5, 63, 0
11, 451680, Note_on_c, 5, 63, 76
11, 451904, Note_on_c, 5, 63, 0
11, 451920, Note_on_c, 5, 63, 76
11, 452144, Note_on_c, 5, 63, 0
11, 452160, Note_on_c, 5, 63, 76
11, 452399, Note_on_c, 5, 63, 0
11, 454320, Control_c, 5, 11, 112
11, 454560, Note_on_c, 5, 63, 84
11, 454784, Note_on_c, 5, 63, 0
11, 454800, Note_on_c, 5, 63, 84
11, 455024, Note_on_c, 5, 63, 0
11, 455040, Note_on_c, 5, 58, 84
11, 455040, Control_c, 5, 11, 112
11, 455160, Control_c, 5, 11, 113
11, 455280, Control_c, 5, 11, 115
11, 455400, Control_c, 5, 11, 116
11, 455520, Control_c, 5, 11, 117
11, 455640, Control_c, 5, 11, 118
11, 455760, Control_c, 5, 11, 120
11, 455880, Control_c, 5, 11, 121
11, 456000, Control_c, 5, 11, 122
11, 456120, Control_c, 5, 11, 123
11, 456240, Control_c, 5, 11, 125
11, 456360, Control_c, 5, 11, 127
11, 456449, Note_on_c, 5, 58, 0
11, 456480, Note_on_c, 5, 58, 84
11, 456584, Note_on_c, 5, 58, 0
11, 456600, Note_on_c, 5, 58, 84
11, 456704, Note_on_c, 5, 58, 0
11, 456720, Note_on_c, 5, 58, 84
11, 456824, Note_on_c, 5, 58, 0
11, 456840, Note_on_c, 5, 58, 84
11, 456944, Note_on_c, 5, 58, 0
11, 456960, Note_on_c, 5, 58, 84
11, 457064, Note_on_c, 5, 58, 0
11, 457080, Note_on_c, 5, 58, 84
11, 457184, Note_on_c, 5, 58, 0
11, 457200, Note_on_c, 5, 58, 84
11, 457304, Note_on_c, 5, 58, 0
11, 457320, Note_on_c, 5, 58, 84
11, 457424, Note_on_c, 5, 58, 0
11, 457440, Note_on_c, 5, 58, 84
11, 457544, Note_on_c, 5, 58, 0
11, 457560, Note_on_c, 5, 58, 84
11, 457664, Note_on_c, 5, 58, 0
11, 457680, Note_on_c, 5, 58, 84
11, 457784, Note_on_c, 5, 58, 0
11, 457800, Note_on_c, 5, 58, 84
11, 457904, Note_on_c, 5, 58, 0
11, 457920, Note_on_c, 5, 63, 84
11, 458159, Note_on_c, 5, 63, 0
11, 465300, Control_c, 5, 11, 115
11, 465360, Note_on_c, 5, 68, 68
11, 465360, Control_c, 5, 11, 117
11, 465420, Control_c, 5, 11, 118
11, 465480, Control_c, 5, 11, 119
11, 465540, Control_c, 5, 11, 121
11, 465569, Note_on_c, 5, 68, 0
11, 465600, Control_c, 5, 11, 122
11, 465600, Note_on_c, 5, 68, 68
11, 465660, Control_c, 5, 11, 123
11, 465720, Control_c, 5, 11, 124
11, 465780, Control_c, 5, 11, 127
11, 465809, Note_on_c, 5, 68, 0
11, 465840, Note_on_c, 5, 68, 76
11, 465960, Control_c, 5, 11, 112
11, 466010, Control_c, 5, 11, 109
11, 466060, Control_c, 5, 11, 107
11, 466110, Control_c, 5, 11, 104
11, 466160, Control_c, 5, 11, 101
11, 466210, Control_c, 5, 11, 99
11, 466260, Control_c, 5, 11, 96
11, 466310, Control_c, 5, 11, 93
11, 466360, Control_c, 5, 11, 91
11, 466410, Control_c, 5, 11, 88
11, 466460, Control_c, 5, 11, 85
11, 466510, Control_c, 5, 11, 83
11, 466559, Note_on_c, 5, 68, 0
11, 466560, Control_c, 5, 11, 80
11, 468720, Control_c, 5, 11, 127
11, 469200, Note_on_c, 5, 65, 52
11, 469424, Note_on_c, 5, 65, 0
11, 469440, Note_on_c, 5, 65, 52
11, 469679, Note_on_c, 5, 65, 0
11, 475320, Note_on_c, 5, 58, 65
11, 475424, Note_on_c, 5, 58, 0
11, 475440, Note_on_c, 5, 58, 66
11, 475544, Note_on_c, 5, 58, 0
11, 475560, Note_on_c, 5, 58, 67
11, 475664, Note_on_c, 5, 58, 0
11, 475680, Note_on_c, 5, 58, 68
11, 475784, Note_on_c, 5, 58, 0
11, 475800, Note_on_c, 5, 58, 69
11, 475904, Note_on_c, 5, 58, 0
11, 475920, Note_on_c, 5, 58, 70
11, 476024, Note_on_c, 5, 58, 0
11, 476040, Note_on_c, 5, 58, 71
11, 476144, Note_on_c, 5, 58, 0
11, 476160, Note_on_c, 5, 58, 72
11, 476264, Note_on_c, 5, 58, 0
11, 476280, Note_on_c, 5, 58, 73
11, 476384, Note_on_c, 5, 58, 0
11, 476400, Note_on_c, 5, 58, 74
11, 476504, Note_on_c, 5, 58, 0
11, 476520, Note_on_c, 5, 58, 75
11, 476624, Note_on_c, 5, 58, 0
11, 476640, Note_on_c, 5, 58, 76
11, 476864, Note_on_c, 5, 58, 0
11, 476880, Note_on_c, 5, 63, 84
11, 477329, Note_on_c, 5, 63, 0
11, 477600, Note_on_c, 5, 63, 84
11, 478049, Note_on_c, 5, 63, 0
11, 478320, Note_on_c, 5, 63, 84
11, 478769, Note_on_c, 5, 63, 0
11, 479040, Note_on_c, 5, 58, 84
11, 479249, Note_on_c, 5, 58, 0
11, 479280, Note_on_c, 5, 58, 76
11, 479504, Note_on_c, 5, 58, 0
11, 479520, Note_on_c, 5, 63, 84
11, 479699, Note_on_c, 5, 63, 0
11, 479760, Note_on_c, 5, 70, 92
11, 480104, Note_on_c, 5, 70, 0
11, 480120, Note_on_c, 5, 70, 84
11, 480224, Note_on_c, 5, 70, 0
11, 480240, Note_on_c, 5, 70, 84
11, 480419, Note_on_c, 5, 70, 0
11, 480480, Note_on_c, 5, 70, 92
11, 480824, Note_on_c, 5, 70, 0
11, 480840, Note_on_c, 5, 70, 84
11, 480944, Note_on_c, 5, 70, 0
11, 480960, Note_on_c, 5, 65, 84
11, 481139, Note_on_c, 5, 65, 0
11, 481200, Note_on_c, 5, 68, 92
11, 481544, Note_on_c, 5, 68, 0
11, 481560, Note_on_c, 5, 58, 84
11, 481664, Note_on_c, 5, 58, 0
11, 481680, Note_on_c, 5, 65, 84
11, 481904, Note_on_c, 5, 65, 0
11, 481920, Note_on_c, 5, 65, 92
11, 482264, Note_on_c, 5, 65, 0
11, 482280, Note_on_c, 5, 58, 84
11, 482384, Note_on_c, 5, 58, 0
11, 482400, Note_on_c, 5, 63, 84
11, 483359, Note_on_c, 5, 63, 0
11, 485880, Note_on_c, 5, 65, 84
11, 485984, Note_on_c, 5, 65, 0
11, 486000, Note_on_c, 5, 63, 84
11, 486104, Note_on_c, 5, 63, 0
11, 486120, Note_on_c, 5, 65, 84
11, 486224, Note_on_c, 5, 65, 0
11, 486240, Note_on_c, 5, 63, 84
11, 486344, Note_on_c, 5, 63, 0
11, 486360, Note_on_c, 5, 67, 84
11, 486464, Note_on_c, 5, 67, 0
11, 486480, Note_on_c, 5, 67, 84
11, 486584, Note_on_c, 5, 67, 0
11, 486600, Note_on_c, 5, 67, 84
11, 486704, Note_on_c, 5, 67, 0
11, 486720, Note_on_c, 5, 67, 84
11, 486899, Note_on_c, 5, 67, 0
11, 486960, Note_on_c, 5, 65, 84
11, 487139, Note_on_c, 5, 65, 0
11, 487200, Note_on_c, 5, 63, 84
11, 487379, Note_on_c, 5, 63, 0
11, 487680, Note_on_c, 5, 61, 84
11, 487859, Note_on_c, 5, 61, 0
11, 487920, Note_on_c, 5, 60, 84
11, 488099, Note_on_c, 5, 60, 0
11, 488400, Note_on_c, 5, 63, 84
11, 488579, Note_on_c, 5, 63, 0
11, 488640, Note_on_c, 5, 58, 84
11, 488819, Note_on_c, 5, 58, 0
11, 489120, Note_on_c, 5, 65, 84
11, 489299, Note_on_c, 5, 65, 0
11, 489360, Note_on_c, 5, 63, 84
11, 489539, Note_on_c, 5, 63, 0
11, 489840, Note_on_c, 5, 61, 84
11, 490019, Note_on_c, 5, 61, 0
11, 490080, Note_on_c, 5, 60, 84
11, 490259, Note_on_c, 5, 60, 0
11, 490560, Note_on_c, 5, 63, 92
11, 490739, Note_on_c, 5, 63, 0
11, 500520, Note_on_c, 5, 67, 75
11, 500624, Note_on_c, 5, 67, 0
11, 500640, Note_on_c, 5, 67, 76
11, 500744, Note_on_c, 5, 67, 0
11, 500760, Note_on_c, 5, 67, 78
11, 500864, Note_on_c, 5, 67, 0
11, 500880, Note_on_c, 5, 67, 80
11, 500984, Note_on_c, 5, 67, 0
11, 501000, Note_on_c, 5, 67, 82
11, 501104, Note_on_c, 5, 67, 0
11, 501120, Note_on_c, 5, 68, 84
11, 501824, Note_on_c, 5, 68, 0
11, 501840, Note_on_c, 5, 67, 76
11, 502079, Note_on_c, 5, 67, 0
11, 502560, Note_on_c, 5, 63, 76
11, 502799, Note_on_c, 5, 63, 0
11, 503280, Note_on_c, 5, 63, 76
11, 503519, Note_on_c, 5, 63, 0
11, 504000, Note_on_c, 5, 63, 76
11, 504179, Note_on_c, 5, 63, 0
11, 504240, Note_on_c, 5, 63, 76
11, 504419, Note_on_c, 5, 63, 0
11, 504480, Note_on_c, 5, 63, 76
11, 504659, Note_on_c, 5, 63, 0
11, 504720, Note_on_c, 5, 63, 76
11, 504959, Note_on_c, 5, 63, 0
11, 509040, Note_on_c, 5, 68, 76
11, 510479, Note_on_c, 5, 68, 0
11, 511920, Note_on_c, 5, 67, 84
11, 512024, Note_on_c, 5, 67, 0
11, 512040, Note_on_c, 5, 67, 84
11, 512144, Note_on_c, 5, 67, 0
11, 512160, Note_on_c, 5, 67, 84
11, 512264, Note_on_c, 5, 67, 0
11, 512280, Note_on_c, 5, 67, 84
11, 512384, Note_on_c, 5, 67, 0
11, 512400, Note_on_c, 5, 67, 84
11, 512504, Note_on_c, 5, 67, 0
11, 512520, Note_on_c, 5, 67, 84
11, 512624, Note_on_c, 5, 67, 0
11, 512640, Note_on_c, 5, 67, 84
11, 512744, Note_on_c, 5, 67, 0
11, 512760, Note_on_c, 5, 67, 84
11, 512864, Note_on_c, 5, 67, 0
11, 512880, Note_on_c, 5, 67, 84
11, 512984, Note_on_c, 5, 67, 0
11, 513000, Note_on_c, 5, 67, 84
11, 513104, Note_on_c, 5, 67, 0
11, 513120, Note_on_c, 5, 67, 84
11, 513224, Note_on_c, 5, 67, 0
11, 513240, Note_on_c, 5, 67, 84
11, 513344, Note_on_c, 5, 67, 0
11, 513360, Note_on_c, 5, 67, 52
11, 513599, Note_on_c, 5, 67, 0
11, 532320, Note_on_c, 5, 63, 52
11, 532559, Note_on_c, 5, 63, 0
11, 532560, Note_on_c, 5, 65, 52
11, 532799, Note_on_c, 5, 65, 0
11, 532800, Note_on_c, 5, 66, 68
11, 533159, Note_on_c, 5, 66, 0
11, 533160, Note_on_c, 5, 65, 52
11, 533279, Note_on_c, 5, 65, 0
11, 533280, Note_on_c, 5, 63, 52
11, 533504, Note_on_c, 5, 63, 0
11, 533520, Note_on_c, 5, 62, 52
11, 533759, Note_on_c, 5, 62, 0
11, 533760, Note_on_c, 5, 61, 52
11, 533999, Note_on_c, 5, 61, 0
11, 534000, Note_on_c, 5, 60, 52
11, 534239, Note_on_c, 5, 60, 0
11, 534240, Note_on_c, 5, 58, 52
11, 534719, Note_on_c, 5, 58, 0
11, 534720, Note_on_c, 5, 60, 52
11, 534839, Note_on_c, 5, 60, 0
11, 534840, Note_on_c, 5, 62, 52
11, 534944, Note_on_c, 5, 62, 0
11, 534960, Note_on_c, 5, 63, 52
11, 535184, Note_on_c, 5, 63, 0
11, 535200, Note_on_c, 5, 63, 52
11, 535439, Note_on_c, 5, 63, 0
11, 535440, Note_on_c, 5, 65, 52
11, 535679, Note_on_c, 5, 65, 0
11, 535680, Note_on_c, 5, 66, 68
11, 536039, Note_on_c, 5, 66, 0
11, 536040, Note_on_c, 5, 65, 52
11, 536159, Note_on_c, 5, 65, 0
11, 536160, Note_on_c, 5, 63, 52
11, 536384, Note_on_c, 5, 63, 0
11, 536400, Note_on_c, 5, 62, 52
11, 536639, Note_on_c, 5, 62, 0
11, 550560, Control_c, 5, 11, 96
11, 550800, Note_on_c, 5, 63, 68
11, 550800, Control_c, 5, 11, 96
11, 550980, Control_c, 5, 11, 97
11, 551160, Control_c, 5, 11, 99
11, 551264, Note_on_c, 5, 63, 0
11, 551280, Note_on_c, 5, 66, 68
11, 551340, Control_c, 5, 11, 100
11, 551519, Note_on_c, 5, 66, 0
11, 551520, Control_c, 5, 11, 101
11, 551700, Control_c, 5, 11, 102
11, 551880, Control_c, 5, 11, 104
11, 552060, Control_c, 5, 11, 105
11, 552240, Note_on_c, 5, 63, 68
11, 552240, Control_c, 5, 11, 106
11, 552420, Control_c, 5, 11, 108
11, 552600, Control_c, 5, 11, 109
11, 552704, Note_on_c, 5, 63, 0
11, 552720, Note_on_c, 5, 66, 68
11, 552780, Control_c, 5, 11, 110
11, 552959, Note_on_c, 5, 66, 0
11, 552960, Control_c, 5, 11, 112
11, 553140, Control_c, 5, 11, 113
11, 553320, Control_c, 5, 11, 114
11, 553500, Control_c, 5, 11, 115
11, 553680, Control_c, 5, 11, 117
11, 553860, Control_c, 5, 11, 118
11, 554040, Control_c, 5, 11, 119
11, 554220, Control_c, 5, 11, 121
11, 554400, Control_c, 5, 11, 122
11, 554400, Note_on_c, 5, 65, 68
11, 554580, Control_c, 5, 11, 123
11, 554760, Control_c, 5, 11, 124
11, 554864, Note_on_c, 5, 65, 0
11, 554880, Note_on_c, 5, 58, 68
11, 554940, Control_c, 5, 11, 127
11, 555119, Note_on_c, 5, 58, 0
11, 555780, Control_c, 5, 11, 113
11, 555840, Note_on_c, 5, 65, 68
11, 555840, Control_c, 5, 11, 112
11, 555900, Control_c, 5, 11, 110
11, 555960, Control_c, 5, 11, 109
11, 556020, Control_c, 5, 11, 108
11, 556080, Control_c, 5, 11, 106
11, 556140, Control_c, 5, 11, 105
11, 556200, Control_c, 5, 11, 104
11, 556260, Control_c, 5, 11, 102
11, 556319, Note_on_c, 5, 65, 0
11, 556320, Note_on_c, 5, 68, 68
11, 556320, Control_c, 5, 11, 101
11, 556380, Control_c, 5, 11, 100
11, 556440, Control_c, 5, 11, 99
11, 556500, Control_c, 5, 11, 96
11, 556559, Note_on_c, 5, 68, 0
11, 556800, Note_on_c, 5, 67, 68
11, 556979, Note_on_c, 5, 67, 0
11, 557280, Note_on_c, 5, 67, 68
11, 557459, Note_on_c, 5, 67, 0
11, 557760, Note_on_c, 5, 67, 68
11, 557939, Note_on_c, 5, 67, 0
11, 558240, Note_on_c, 5, 65, 68
11, 558419, Note_on_c, 5, 65, 0
11, 558720, Note_on_c, 5, 65, 68
11, 558899, Note_on_c, 5, 65, 0
11, 559200, Note_on_c, 5, 65, 68
11, 559379, Note_on_c, 5, 65, 0
11, 559440, Note_on_c, 5, 67, 68
11, 559619, Note_on_c, 5, 67, 0
11, 560160, Note_on_c, 5, 55, 68
11, 560160, Control_c, 5, 11, 96
11, 560220, Control_c, 5, 11, 97
11, 560280, Control_c, 5, 11, 99
11, 560340, Control_c, 5, 11, 100
11, 560400, Control_c, 5, 11, 101
11, 560460, Control_c, 5, 11, 102
11, 560520, Control_c, 5, 11, 104
11, 560580, Control_c, 5, 11, 105
11, 560640, Control_c, 5, 11, 106
11, 560700, Control_c, 5, 11, 108
11, 560760, Control_c, 5, 11, 109
11, 560820, Control_c, 5, 11, 110
11, 560879, Note_on_c, 5, 55, 0
11, 560880, Control_c, 5, 11, 112
11, 560880, Note_on_c, 5, 58, 68
11, 560940, Control_c, 5, 11, 113
11, 561000, Control_c, 5, 11, 114
11, 561060, Control_c, 5, 11, 115
11, 561104, Note_on_c, 5, 58, 0
11, 561120, Control_c, 5, 11, 117
11, 561120, Note_on_c, 5, 58, 68
11, 561180, Control_c, 5, 11, 118
11, 561240, Control_c, 5, 11, 119
11, 561299, Note_on_c, 5, 58, 0
11, 561300, Control_c, 5, 11, 121
11, 561360, Control_c, 5, 11, 122
11, 561360, Note_on_c, 5, 58, 68
11, 561420, Control_c, 5, 11, 123
11, 561480, Control_c, 5, 11, 124
11, 561539, Note_on_c, 5, 58, 0
11, 561540, Control_c, 5, 11, 127
11, 561600, Note_on_c, 5, 58, 52
11, 561779, Note_on_c, 5, 58, 0
11, 561840, Note_on_c, 5, 58, 52
11, 562019, Note_on_c, 5, 58, 0
11, 562080, Note_on_c, 5, 58, 52
11, 562259, Note_on_c, 5, 58, 0
11, 562320, Note_on_c, 5, 58, 52
11, 562499, Note_on_c, 5, 58, 0
11, 569040, Note_on_c, 5, 58, 52
11, 569279, Note_on_c, 5, 58, 0
11, 569280, Note_on_c, 5, 63, 52
11, 569504, Note_on_c, 5, 63, 0
11, 569520, Note_on_c, 5, 58, 52
11, 569999, Note_on_c, 5, 58, 0
11, 570000, Note_on_c, 5, 55, 52
11, 570224, Note_on_c, 5, 55, 0
11, 570240, Note_on_c, 5, 58, 52
11, 570479, Note_on_c, 5, 58, 0
11, 570480, Note_on_c, 5, 63, 52
11, 570704, Note_on_c, 5, 63, 0
11, 570720, Note_on_c, 5, 67, 52
11, 570899, Note_on_c, 5, 67, 0
11, 570960, Note_on_c, 5, 68, 52
11, 571664, Note_on_c, 5, 68, 0
11, 571680, Note_on_c, 5, 58, 52
11, 572159, Note_on_c, 5, 58, 0
11, 572160, Note_on_c, 5, 65, 52
11, 572384, Note_on_c, 5, 65, 0
11, 572400, Note_on_c, 5, 58, 52
11, 572864, Note_on_c, 5, 58, 0
11, 572880, Note_on_c, 5, 58, 52
11, 573104, Note_on_c, 5, 58, 0
11, 573120, Note_on_c, 5, 58, 52
11, 573359, Note_on_c, 5, 58, 0
11, 573360, Note_on_c, 5, 65, 52
11, 573584, Note_on_c, 5, 65, 0
11, 573600, Note_on_c, 5, 68, 52
11, 573779, Note_on_c, 5, 68, 0
11, 573825, Control_c, 5, 11, 80
11, 573840, Note_on_c, 5, 67, 76
11, 573840, Control_c, 5, 11, 80
11, 574000, Control_c, 5, 11, 81
11, 574160, Control_c, 5, 11, 83
11, 574320, Control_c, 5, 11, 84
11, 574480, Control_c, 5, 11, 85
11, 574640, Control_c, 5, 11, 87
11, 574800, Control_c, 5, 11, 88
11, 574960, Control_c, 5, 11, 89
11, 575120, Control_c, 5, 11, 90
11, 575280, Control_c, 5, 11, 92
11, 575440, Control_c, 5, 11, 93
11, 575504, Note_on_c, 5, 67, 0
11, 575520, Note_on_c, 5, 67, 76
11, 575600, Control_c, 5, 11, 94
11, 575744, Note_on_c, 5, 67, 0
11, 575760, Note_on_c, 5, 67, 76
11, 575760, Control_c, 5, 11, 96
11, 575920, Control_c, 5, 11, 97
11, 575984, Note_on_c, 5, 67, 0
11, 576000, Note_on_c, 5, 67, 76
11, 576080, Control_c, 5, 11, 98
11, 576224, Note_on_c, 5, 67, 0
11, 576240, Note_on_c, 5, 67, 76
11, 576240, Control_c, 5, 11, 100
11, 576400, Control_c, 5, 11, 101
11, 576464, Note_on_c, 5, 67, 0
11, 576480, Note_on_c, 5, 67, 76
11, 576560, Control_c, 5, 11, 102
11, 576704, Note_on_c, 5, 67, 0
11, 576720, Control_c, 5, 11, 104
11, 576720, Note_on_c, 5, 68, 76
11, 576880, Control_c, 5, 11, 105
11, 577040, Control_c, 5, 11, 106
11, 577200, Control_c, 5, 11, 107
11, 577360, Control_c, 5, 11, 109
11, 577520, Control_c, 5, 11, 110
11, 577680, Control_c, 5, 11, 111
11, 577840, Control_c, 5, 11, 113
11, 578000, Control_c, 5, 11, 114
11, 578160, Control_c, 5, 11, 115
11, 578320, Control_c, 5, 11, 117
11, 578384, Note_on_c, 5, 68, 0
11, 578400, Note_on_c, 5, 68, 76
11, 578480, Control_c, 5, 11, 118
11, 578624, Note_on_c, 5, 68, 0
11, 578640, Control_c, 5, 11, 119
11, 578640, Note_on_c, 5, 68, 76
11, 578800, Control_c, 5, 11, 120
11, 578864, Note_on_c, 5, 68, 0
11, 578880, Note_on_c, 5, 68, 76
11, 578960, Control_c, 5, 11, 122
11, 579104, Note_on_c, 5, 68, 0
11, 579120, Control_c, 5, 11, 123
11, 579120, Note_on_c, 5, 68, 76
11, 579280, Control_c, 5, 11, 124
11, 579344, Note_on_c, 5, 68, 0
11, 579360, Note_on_c, 5, 68, 76
11, 579440, Control_c, 5, 11, 127
11, 579584, Note_on_c, 5, 68, 0
11, 579600, Note_on_c, 5, 67, 76
11, 579824, Note_on_c, 5, 67, 0
11, 579840, Note_on_c, 5, 70, 76
11, 580064, Note_on_c, 5, 70, 0
11, 580080, Note_on_c, 5, 70, 76
11, 580304, Note_on_c, 5, 70, 0
11, 580320, Note_on_c, 5, 70, 76
11, 580544, Note_on_c, 5, 70, 0
11, 580560, Note_on_c, 5, 70, 76
11, 580784, Note_on_c, 5, 70, 0
11, 580800, Note_on_c, 5, 70, 76
11, 581024, Note_on_c, 5, 70, 0
11, 581040, Note_on_c, 5, 70, 76
11, 581264, Note_on_c, 5, 70, 0
11, 581280, Note_on_c, 5, 70, 76
11, 581504, Note_on_c, 5, 70, 0
11, 581520, Note_on_c, 5, 70, 76
11, 581744, Note_on_c, 5, 70, 0
11, 581760, Note_on_c, 5, 70, 76
11, 581984, Note_on_c, 5, 70, 0
11, 582000, Note_on_c, 5, 70, 76
11, 582224, Note_on_c, 5, 70, 0
11, 582240, Note_on_c, 5, 70, 76
11, 582464, Note_on_c, 5, 70, 0
11, 582480, Note_on_c, 5, 70, 76
11, 582704, Note_on_c, 5, 70, 0
11, 582720, Note_on_c, 5, 70, 76
11, 582944, Note_on_c, 5, 70, 0
11, 582960, Note_on_c, 5, 70, 76
11, 583184, Note_on_c, 5, 70, 0
11, 583200, Note_on_c, 5, 70, 76
11, 583424, Note_on_c, 5, 70, 0
11, 583440, Note_on_c, 5, 70, 76
11, 583664, Note_on_c, 5, 70, 0
11, 583680, Note_on_c, 5, 70, 76
11, 583904, Note_on_c, 5, 70, 0
11, 583920, Note_on_c, 5, 70, 76
11, 584144, Note_on_c, 5, 70, 0
11, 584160, Note_on_c, 5, 58, 76
11, 584384, Note_on_c, 5, 58, 0
11, 584400, Note_on_c, 5, 58, 76
11, 584624, Note_on_c, 5, 58, 0
11, 584640, Note_on_c, 5, 58, 76
11, 584744, Note_on_c, 5, 58, 0
11, 584760, Note_on_c, 5, 58, 76
11, 584864, Note_on_c, 5, 58, 0
11, 584880, Note_on_c, 5, 58, 76
11, 584984, Note_on_c, 5, 58, 0
11, 585000, Note_on_c, 5, 58, 76
11, 585104, Note_on_c, 5, 58, 0
11, 585120, Note_on_c, 5, 58, 76
11, 585224, Note_on_c, 5, 58, 0
11, 585240, Note_on_c, 5, 58, 76
11, 585344, Note_on_c, 5, 58, 0
11, 585360, Note_on_c, 5, 61, 76
11, 585584, Note_on_c, 5, 61, 0
11, 585600, Note_on_c, 5, 61, 76
11, 585839, Note_on_c, 5, 61, 0
11, 586080, Note_on_c, 5, 61, 76
11, 586799, Note_on_c, 5, 61, 0
11, 586800, Note_on_c, 5, 60, 76
11, 587024, Note_on_c, 5, 60, 0
11, 587040, Note_on_c, 5, 63, 84
11, 587144, Note_on_c, 5, 63, 0
11, 587160, Note_on_c, 5, 63, 76
11, 587264, Note_on_c, 5, 63, 0
11, 587280, Note_on_c, 5, 63, 76
11, 587519, Note_on_c, 5, 63, 0
11, 587760, Note_on_c, 5, 63, 84
11, 587864, Note_on_c, 5, 63, 0
11, 587880, Note_on_c, 5, 63, 76
11, 587984, Note_on_c, 5, 63, 0
11, 588000, Note_on_c, 5, 63, 76
11, 588239, Note_on_c, 5, 63, 0
11, 588480, Note_on_c, 5, 67, 84
11, 588584, Note_on_c, 5, 67, 0
11, 588600, Note_on_c, 5, 67, 76
11, 588704, Note_on_c, 5, 67, 0
11, 588720, Note_on_c, 5, 67, 76
11, 588959, Note_on_c, 5, 67, 0
11, 589200, Note_on_c, 5, 68, 76
11, 589304, Note_on_c, 5, 68, 0
11, 589320, Note_on_c, 5, 68, 76
11, 589424, Note_on_c, 5, 68, 0
11, 589440, Note_on_c, 5, 68, 76
11, 589679, Note_on_c, 5, 68, 0
11, 589920, Note_on_c, 5, 67, 76
11, 590024, Note_on_c, 5, 67, 0
11, 590040, Note_on_c, 5, 67, 76
11, 590144, Note_on_c, 5, 67, 0
11, 590160, Note_on_c, 5, 67, 76
11, 590399, Note_on_c, 5, 67, 0
11, 590640, Note_on_c, 5, 63, 76
11, 590744, Note_on_c, 5, 63, 0
11, 590760, Note_on_c, 5, 63, 76
11, 590864, Note_on_c, 5, 63, 0
11, 590880, Note_on_c, 5, 63, 76
11, 591104, Note_on_c, 5, 63, 0
11, 591120, Note_on_c, 5, 63, 84
11, 591224, Note_on_c, 5, 63, 0
11, 591240, Note_on_c, 5, 58, 84
11, 591344, Note_on_c, 5, 58, 0
11, 591360, Note_on_c, 5, 58, 84
11, 591464, Note_on_c, 5, 58, 0
11, 591480, Note_on_c, 5, 58, 84
11, 591584, Note_on_c, 5, 58, 0
11, 591600, Note_on_c, 5, 58, 84
11, 591704, Note_on_c, 5, 58, 0
11, 591720, Note_on_c, 5, 58, 84
11, 591824, Note_on_c, 5, 58, 0
11, 591840, Note_on_c, 5, 58, 84
11, 591944, Note_on_c, 5, 58, 0
11, 591960, Note_on_c, 5, 58, 84
11, 592064, Note_on_c, 5, 58, 0
11, 592080, Note_on_c, 5, 58, 84
11, 592184, Note_on_c, 5, 58, 0
11, 592200, Note_on_c, 5, 58, 84
11, 592304, Note_on_c, 5, 58, 0
11, 592320, Note_on_c, 5, 58, 84
11, 592424, Note_on_c, 5, 58, 0
11, 592440, Note_on_c, 5, 58, 84
11, 592559, Note_on_c, 5, 58, 0
11, 598560, Note_on_c, 5, 58, 76
11, 599264, Note_on_c, 5, 58, 0
11, 599280, Note_on_c, 5, 58, 76
11, 599984, Note_on_c, 5, 58, 0
11, 600000, Note_on_c, 5, 58, 76
11, 600464, Note_on_c, 5, 58, 0
11, 600480, Note_on_c, 5, 58, 76
11, 600944, Note_on_c, 5, 58, 0
11, 600960, Note_on_c, 5, 58, 76
11, 601139, Note_on_c, 5, 58, 0
11, 601200, Note_on_c, 5, 58, 76
11, 601379, Note_on_c, 5, 58, 0
11, 601440, Note_on_c, 5, 65, 84
11, 601619, Note_on_c, 5, 65, 0
11, 601680, Note_on_c, 5, 65, 84
11, 601859, Note_on_c, 5, 65, 0
11, 601920, Note_on_c, 5, 65, 84
11, 602099, Note_on_c, 5, 65, 0
11, 602160, Note_on_c, 5, 65, 84
11, 602339, Note_on_c, 5, 65, 0
11, 602400, Note_on_c, 5, 65, 84
11, 602579, Note_on_c, 5, 65, 0
11, 602640, Note_on_c, 5, 65, 84
11, 602819, Note_on_c, 5, 65, 0
11, 602880, Note_on_c, 5, 65, 84
11, 603059, Note_on_c, 5, 65, 0
11, 603120, Note_on_c, 5, 65, 84
11, 603299, Note_on_c, 5, 65, 0
11, 603360, Note_on_c, 5, 65, 84
11, 603539, Note_on_c, 5, 65, 0
11, 603600, Note_on_c, 5, 65, 84
11, 603779, Note_on_c, 5, 65, 0
11, 603840, Note_on_c, 5, 65, 84
11, 604019, Note_on_c, 5, 65, 0
11, 604080, Note_on_c, 5, 63, 84
11, 604319, Note_on_c, 5, 63, 0
11, 604800, Note_on_c, 5, 63, 84
11, 605039, Note_on_c, 5, 63, 0
11, 605520, Note_on_c, 5, 63, 84
11, 605759, Note_on_c, 5, 63, 0
11, 605759, End_track
12, 0, Start_track
12, 0, Title_t, "Trumpet in E-flat"
12, 0, MIDI_port, 0
12, 0, Program_c, 6, 56
12, 0, Control_c, 6, 7, 96
12, 0, Control_c, 6, 10, 60
12, 0, Control_c, 6, 11, 127
12, 0, Note_on_c, 6, 75, 76
12, 0, Note_on_c, 6, 63, 76
12, 179, Note_on_c, 6, 75, 0
12, 179, Note_on_c, 6, 63, 0
12, 720, Note_on_c, 6, 75, 76
12, 720, Note_on_c, 6, 63, 76
12, 899, Note_on_c, 6, 75, 0
12, 899, Note_on_c, 6, 63, 0
12, 25920, Note_on_c, 6, 63, 84
12, 26399, Note_on_c, 6, 63, 0
12, 26400, Note_on_c, 6, 67, 84
12, 26624, Note_on_c, 6, 67, 0
12, 26640, Note_on_c, 6, 63, 84
12, 27104, Note_on_c, 6, 63, 0
12, 27120, Note_on_c, 6, 58, 84
12, 27344, Note_on_c, 6, 58, 0
12, 27360, Note_on_c, 6, 63, 84
12, 27584, Note_on_c, 6, 63, 0
12, 27600, Note_on_c, 6, 67, 84
12, 27824, Note_on_c, 6, 67, 0
12, 27840, Note_on_c, 6, 70, 84
12, 28064, Note_on_c, 6, 70, 0
12, 28080, Note_on_c, 6, 63, 84
12, 28544, Note_on_c, 6, 63, 0
12, 28560, Note_on_c, 6, 67, 92
12, 28784, Note_on_c, 6, 67, 0
12, 28800, Note_on_c, 6, 67, 84
12, 29024, Note_on_c, 6, 67, 0
12, 29040, Note_on_c, 6, 67, 84
12, 29264, Note_on_c, 6, 67, 0
12, 29280, Note_on_c, 6, 67, 84
12, 29504, Note_on_c, 6, 67, 0
12, 29520, Note_on_c, 6, 67, 84
12, 29984, Note_on_c, 6, 67, 0
12, 30000, Note_on_c, 6, 63, 92
12, 30000, Note_on_c, 6, 75, 92
12, 30224, Note_on_c, 6, 63, 0
12, 30224, Note_on_c, 6, 75, 0
12, 30240, Note_on_c, 6, 75, 84
12, 30240, Note_on_c, 6, 63, 84
12, 30944, Note_on_c, 6, 75, 0
12, 30944, Note_on_c, 6, 63, 0
12, 30960, Note_on_c, 6, 58, 84
12, 30960, Note_on_c, 6, 70, 84
12, 31664, Note_on_c, 6, 58, 0
12, 31664, Note_on_c, 6, 70, 0
12, 31680, Note_on_c, 6, 77, 84
12, 31919, Note_on_c, 6, 77, 0
12, 39120, Note_on_c, 6, 77, 84
12, 39464, Note_on_c, 6, 77, 0
12, 39480, Note_on_c, 6, 77, 84
12, 39584, Note_on_c, 6, 77, 0
12, 39600, Note_on_c, 6, 77, 84
12, 39779, Note_on_c, 6, 77, 0
12, 39840, Note_on_c, 6, 77, 84
12, 40019, Note_on_c, 6, 77, 0
12, 40080, Note_on_c, 6, 77, 84
12, 40259, Note_on_c, 6, 77, 0
12, 40320, Note_on_c, 6, 70, 52
12, 40559, Note_on_c, 6, 70, 0
12, 46080, Note_on_c, 6, 63, 76
12, 46080, Note_on_c, 6, 75, 76
12, 46259, Note_on_c, 6, 63, 0
12, 46259, Note_on_c, 6, 75, 0
12, 46320, Note_on_c, 6, 63, 76
12, 46320, Note_on_c, 6, 75, 76
12, 46499, Note_on_c, 6, 63, 0
12, 46499, Note_on_c, 6, 75, 0
12, 47400, Note_on_c, 6, 75, 76
12, 47400, Note_on_c, 6, 63, 76
12, 47489, Note_on_c, 6, 75, 0
12, 47489, Note_on_c, 6, 63, 0
12, 47520, Note_on_c, 6, 58, 76
12, 47520, Note_on_c, 6, 70, 76
12, 47699, Note_on_c, 6, 58, 0
12, 47699, Note_on_c, 6, 70, 0
12, 47760, Note_on_c, 6, 58, 76
12, 47760, Note_on_c, 6, 70, 76
12, 47939, Note_on_c, 6, 58, 0
12, 47939, Note_on_c, 6, 70, 0
12, 48840, Note_on_c, 6, 79, 76
12, 48840, Note_on_c, 6, 67, 76
12, 48929, Note_on_c, 6, 79, 0
12, 48929, Note_on_c, 6, 67, 0
12, 48960, Note_on_c, 6, 77, 76
12, 49139, Note_on_c, 6, 77, 0
12, 49200, Note_on_c, 6, 77, 76
12, 49379, Note_on_c, 6, 77, 0
12, 50280, Note_on_c, 6, 77, 76
12, 50369, Note_on_c, 6, 77, 0
12, 50400, Note_on_c, 6, 75, 76
12, 50639, Note_on_c, 6, 75, 0
12, 52080, Note_on_c, 6, 58, 76
12, 52080, Note_on_c, 6, 70, 76
12, 52304, Note_on_c, 6, 58, 0
12, 52304, Note_on_c, 6, 70, 0
12, 52320, Note_on_c, 6, 70, 76
12, 52320, Note_on_c, 6, 58, 76
12, 52544, Note_on_c, 6, 70, 0
12, 52544, Note_on_c, 6, 58, 0
12, 52560, Note_on_c, 6, 70, 76
12, 52560, Note_on_c, 6, 58, 76
12, 52784, Note_on_c, 6, 70, 0
12, 52784, Note_on_c, 6, 58, 0
12, 52800, Note_on_c, 6, 70, 76
12, 52800, Note_on_c, 6, 58, 76
12, 53024, Note_on_c, 6, 70, 0
12, 53024, Note_on_c, 6, 58, 0
12, 53040, Note_on_c, 6, 58, 76
12, 53040, Note_on_c, 6, 70, 76
12, 53264, Note_on_c, 6, 58, 0
12, 53264, Note_on_c, 6, 70, 0
12, 53280, Note_on_c, 6, 70, 76
12, 53280, Note_on_c, 6, 58, 76
12, 53519, Note_on_c, 6, 70, 0
12, 53519, Note_on_c, 6, 58, 0
12, 54000, Note_on_c, 6, 67, 76
12, 54000, Note_on_c, 6, 79, 76
12, 54719, Note_on_c, 6, 67, 0
12, 54719, Note_on_c, 6, 79, 0
12, 54720, Note_on_c, 6, 77, 76
12, 54959, Note_on_c, 6, 77, 0
12, 56160, Note_on_c, 6, 77, 76
12, 57599, Note_on_c, 6, 77, 0
12, 57600, Note_on_c, 6, 77, 84
12, 57824, Note_on_c, 6, 77, 0
12, 57840, Note_on_c, 6, 77, 84
12, 58064, Note_on_c, 6, 77, 0
12, 58080, Note_on_c, 6, 77, 84
12, 58304, Note_on_c, 6, 77, 0
12, 58320, Note_on_c, 6, 77, 84
12, 58544, Note_on_c, 6, 77, 0
12, 58560, Note_on_c, 6, 77, 84
12, 58784, Note_on_c, 6, 77, 0
12, 58800, Note_on_c, 6, 77, 84
12, 59024, Note_on_c, 6, 77, 0
12, 59040, Note_on_c, 6, 70, 84
12, 59040, Note_on_c, 6, 58, 84
12, 59279, Note_on_c, 6, 70, 0
12, 59279, Note_on_c, 6, 58, 0
12, 78000, Note_on_c, 6, 77, 76
12, 78479, Note_on_c, 6, 77, 0
12, 78720, Note_on_c, 6, 77, 84
12, 79199, Note_on_c, 6, 77, 0
12, 79440, Note_on_c, 6, 77, 84
12, 79919, Note_on_c, 6, 77, 0
12, 80160, Note_on_c, 6, 77, 84
12, 80384, Note_on_c, 6, 77, 0
12, 80400, Note_on_c, 6, 77, 76
12, 80624, Note_on_c, 6, 77, 0
12, 80640, Note_on_c, 6, 77, 84
12, 83024, Note_on_c, 6, 77, 0
12, 83040, Note_on_c, 6, 77, 84
12, 83264, Note_on_c, 6, 77, 0
12, 83280, Note_on_c, 6, 77, 84
12, 83504, Note_on_c, 6, 77, 0
12, 83520, Note_on_c, 6, 77, 84
12, 83744, Note_on_c, 6, 77, 0
12, 83760, Note_on_c, 6, 70, 84
12, 83760, Note_on_c, 6, 58, 84
12, 84359, Note_on_c, 6, 70, 0
12, 84359, Note_on_c, 6, 58, 0
12, 89040, Note_on_c, 6, 63, 84
12, 89040, Note_on_c, 6, 67, 84
12, 89219, Note_on_c, 6, 63, 0
12, 89219, Note_on_c, 6, 67, 0
12, 90480, Note_on_c, 6, 70, 76
12, 90480, Note_on_c, 6, 58, 76
12, 90659, Note_on_c, 6, 70, 0
12, 90659, Note_on_c, 6, 58, 0
12, 91200, Note_on_c, 6, 75, 76
12, 91200, Note_on_c, 6, 63, 76
12, 91379, Note_on_c, 6, 75, 0
12, 91379, Note_on_c, 6, 63, 0
12, 91680, Note_on_c, 6, 58, 84
12, 91680, Note_on_c, 6, 70, 84
12, 91859, Note_on_c, 6, 58, 0
12, 91859, Note_on_c, 6, 70, 0
12, 92160, Note_on_c, 6, 70, 84
12, 92160, Note_on_c, 6, 58, 84
12, 92339, Note_on_c, 6, 70, 0
12, 92339, Note_on_c, 6, 58, 0
12, 92640, Note_on_c, 6, 58, 84
12, 92640, Note_on_c, 6, 70, 84
12, 92819, Note_on_c, 6, 58, 0
12, 92819, Note_on_c, 6, 70, 0
12, 93120, Note_on_c, 6, 70, 84
12, 93120, Note_on_c, 6, 58, 84
12, 93299, Note_on_c, 6, 70, 0
12, 93299, Note_on_c, 6, 58, 0
12, 93600, Note_on_c, 6, 58, 84
12, 93600, Note_on_c, 6, 70, 84
12, 93779, Note_on_c, 6, 58, 0
12, 93779, Note_on_c, 6, 70, 0
12, 94080, Note_on_c, 6, 58, 84
12, 94080, Note_on_c, 6, 70, 84
12, 94259, Note_on_c, 6, 58, 0
12, 94259, Note_on_c, 6, 70, 0
12, 102240, Note_on_c, 6, 77, 84
12, 102929, Note_on_c, 6, 77, 0
12, 102960, Note_on_c, 6, 58, 76
12, 102960, Note_on_c, 6, 70, 76
12, 103139, Note_on_c, 6, 58, 0
12, 103139, Note_on_c, 6, 70, 0
12, 103680, Note_on_c, 6, 70, 76
12, 103680, Note_on_c, 6, 58, 76
12, 103859, Note_on_c, 6, 70, 0
12, 103859, Note_on_c, 6, 58, 0
12, 104400, Note_on_c, 6, 70, 76
12, 104400, Note_on_c, 6, 58, 76
12, 104579, Note_on_c, 6, 70, 0
12, 104579, Note_on_c, 6, 58, 0
12, 105120, Note_on_c, 6, 70, 76
12, 105120, Note_on_c, 6, 58, 76
12, 105299, Note_on_c, 6, 70, 0
12, 105299, Note_on_c, 6, 58, 0
12, 105360, Note_on_c, 6, 58, 76
12, 105360, Note_on_c, 6, 70, 76
12, 105539, Note_on_c, 6, 58, 0
12, 105539, Note_on_c, 6, 70, 0
12, 105600, Note_on_c, 6, 58, 76
12, 105600, Note_on_c, 6, 70, 76
12, 105779, Note_on_c, 6, 58, 0
12, 105779, Note_on_c, 6, 70, 0
12, 105840, Note_on_c, 6, 70, 76
12, 105840, Note_on_c, 6, 58, 76
12, 106079, Note_on_c, 6, 70, 0
12, 106079, Note_on_c, 6, 58, 0
12, 134640, Note_on_c, 6, 63, 84
12, 135119, Note_on_c, 6, 63, 0
12, 135120, Note_on_c, 6, 67, 84
12, 135344, Note_on_c, 6, 67, 0
12, 135360, Note_on_c, 6, 63, 84
12, 135824, Note_on_c, 6, 63, 0
12, 135840, Note_on_c, 6, 58, 84
12, 136064, Note_on_c, 6, 58, 0
12, 136080, Note_on_c, 6, 63, 84
12, 136304, Note_on_c, 6, 63, 0
12, 136320, Note_on_c, 6, 67, 84
12, 136544, Note_on_c, 6, 67, 0
12, 136560, Note_on_c, 6, 70, 84
12, 136784, Note_on_c, 6, 70, 0
12, 136800, Note_on_c, 6, 63, 84
12, 137264, Note_on_c, 6, 63, 0
12, 137280, Note_on_c, 6, 67, 92
12, 137504, Note_on_c, 6, 67, 0
12, 137520, Note_on_c, 6, 67, 84
12, 137744, Note_on_c, 6, 67, 0
12, 137760, Note_on_c, 6, 67, 84
12, 137984, Note_on_c, 6, 67, 0
12, 138000, Note_on_c, 6, 67, 84
12, 138224, Note_on_c, 6, 67, 0
12, 138240, Note_on_c, 6, 67, 84
12, 138704, Note_on_c, 6, 67, 0
12, 138720, Note_on_c, 6, 63, 92
12, 138720, Note_on_c, 6, 75, 92
12, 138944, Note_on_c, 6, 63, 0
12, 138944, Note_on_c, 6, 75, 0
12, 138960, Note_on_c, 6, 75, 84
12, 138960, Note_on_c, 6, 63, 84
12, 139664, Note_on_c, 6, 75, 0
12, 139664, Note_on_c, 6, 63, 0
12, 139680, Note_on_c, 6, 58, 84
12, 139680, Note_on_c, 6, 70, 84
12, 140384, Note_on_c, 6, 58, 0
12, 140384, Note_on_c, 6, 70, 0
12, 140400, Note_on_c, 6, 77, 84
12, 140639, Note_on_c, 6, 77, 0
12, 147840, Note_on_c, 6, 77, 84
12, 148184, Note_on_c, 6, 77, 0
12, 148200, Note_on_c, 6, 77, 84
12, 148304, Note_on_c, 6, 77, 0
12, 148320, Note_on_c, 6, 77, 84
12, 148499, Note_on_c, 6, 77, 0
12, 148560, Note_on_c, 6, 77, 84
12, 148739, Note_on_c, 6, 77, 0
12, 148800, Note_on_c, 6, 77, 84
12, 148979, Note_on_c, 6, 77, 0
12, 149040, Note_on_c, 6, 70, 52
12, 149279, Note_on_c, 6, 70, 0
12, 154800, Note_on_c, 6, 63, 76
12, 154800, Note_on_c, 6, 75, 76
12, 154979, Note_on_c, 6, 63, 0
12, 154979, Note_on_c, 6, 75, 0
12, 155040, Note_on_c, 6, 63, 76
12, 155040, Note_on_c, 6, 75, 76
12, 155219, Note_on_c, 6, 63, 0
12, 155219, Note_on_c, 6, 75, 0
12, 156120, Note_on_c, 6, 63, 76
12, 156120, Note_on_c, 6, 75, 76
12, 156209, Note_on_c, 6, 63, 0
12, 156209, Note_on_c, 6, 75, 0
12, 156240, Note_on_c, 6, 58, 76
12, 156240, Note_on_c, 6, 70, 76
12, 156419, Note_on_c, 6, 58, 0
12, 156419, Note_on_c, 6, 70, 0
12, 156480, Note_on_c, 6, 58, 76
12, 156480, Note_on_c, 6, 70, 76
12, 156659, Note_on_c, 6, 58, 0
12, 156659, Note_on_c, 6, 70, 0
12, 157560, Note_on_c, 6, 79, 76
12, 157560, Note_on_c, 6, 67, 76
12, 157649, Note_on_c, 6, 79, 0
12, 157649, Note_on_c, 6, 67, 0
12, 157680, Note_on_c, 6, 77, 76
12, 157859, Note_on_c, 6, 77, 0
12, 157920, Note_on_c, 6, 77, 76
12, 158099, Note_on_c, 6, 77, 0
12, 159000, Note_on_c, 6, 77, 76
12, 159089, Note_on_c, 6, 77, 0
12, 159120, Note_on_c, 6, 75, 76
12, 159359, Note_on_c, 6, 75, 0
12, 160800, Note_on_c, 6, 70, 76
12, 160800, Note_on_c, 6, 58, 76
12, 161024, Note_on_c, 6, 70, 0
12, 161024, Note_on_c, 6, 58, 0
12, 161040, Note_on_c, 6, 70, 76
12, 161040, Note_on_c, 6, 58, 76
12, 161264, Note_on_c, 6, 70, 0
12, 161264, Note_on_c, 6, 58, 0
12, 161280, Note_on_c, 6, 58, 76
12, 161280, Note_on_c, 6, 70, 76
12, 161504, Note_on_c, 6, 58, 0
12, 161504, Note_on_c, 6, 70, 0
12, 161520, Note_on_c, 6, 70, 76
12, 161520, Note_on_c, 6, 58, 76
12, 161744, Note_on_c, 6, 70, 0
12, 161744, Note_on_c, 6, 58, 0
12, 161760, Note_on_c, 6, 70, 76
12, 161760, Note_on_c, 6, 58, 76
12, 161984, Note_on_c, 6, 70, 0
12, 161984, Note_on_c, 6, 58, 0
12, 162000, Note_on_c, 6, 70, 76
12, 162000, Note_on_c, 6, 58, 76
12, 162239, Note_on_c, 6, 70, 0
12, 162239, Note_on_c, 6, 58, 0
12, 162720, Note_on_c, 6, 67, 76
12, 162720, Note_on_c, 6, 79, 76
12, 163439, Note_on_c, 6, 67, 0
12, 163439, Note_on_c, 6, 79, 0
12, 163440, Note_on_c, 6, 77, 76
12, 163679, Note_on_c, 6, 77, 0
12, 164880, Note_on_c, 6, 77, 76
12, 166319, Note_on_c, 6, 77, 0
12, 166320, Note_on_c, 6, 77, 84
12, 166544, Note_on_c, 6, 77, 0
12, 166560, Note_on_c, 6, 77, 84
12, 166784, Note_on_c, 6, 77, 0
12, 166800, Note_on_c, 6, 77, 84
12, 167024, Note_on_c, 6, 77, 0
12, 167040, Note_on_c, 6, 77, 84
12, 167264, Note_on_c, 6, 77, 0
12, 167280, Note_on_c, 6, 77, 84
12, 167504, Note_on_c, 6, 77, 0
12, 167520, Note_on_c, 6, 77, 84
12, 167744, Note_on_c, 6, 77, 0
12, 167760, Note_on_c, 6, 70, 84
12, 167760, Note_on_c, 6, 58, 84
12, 167999, Note_on_c, 6, 70, 0
12, 167999, Note_on_c, 6, 58, 0
12, 186720, Note_on_c, 6, 77, 76
12, 187199, Note_on_c, 6, 77, 0
12, 187440, Note_on_c, 6, 77, 84
12, 187919, Note_on_c, 6, 77, 0
12, 188160, Note_on_c, 6, 77, 84
12, 188639, Note_on_c, 6, 77, 0
12, 188880, Note_on_c, 6, 77, 84
12, 189104, Note_on_c, 6, 77, 0
12, 189120, Note_on_c, 6, 77, 76
12, 189344, Note_on_c, 6, 77, 0
12, 189360, Note_on_c, 6, 77, 84
12, 191744, Note_on_c, 6, 77, 0
12, 191760, Note_on_c, 6, 77, 84
12, 191984, Note_on_c, 6, 77, 0
12, 192000, Note_on_c, 6, 77, 84
12, 192224, Note_on_c, 6, 77, 0
12, 192240, Note_on_c, 6, 77, 84
12, 192464, Note_on_c, 6, 77, 0
12, 192480, Note_on_c, 6, 58, 84
12, 192480, Note_on_c, 6, 70, 84
12, 193079, Note_on_c, 6, 58, 0
12, 193079, Note_on_c, 6, 70, 0
12, 197760, Note_on_c, 6, 67, 84
12, 197760, Note_on_c, 6, 63, 84
12, 197939, Note_on_c, 6, 67, 0
12, 197939, Note_on_c, 6, 63, 0
12, 199200, Note_on_c, 6, 70, 76
12, 199200, Note_on_c, 6, 58, 76
12, 199379, Note_on_c, 6, 70, 0
12, 199379, Note_on_c, 6, 58, 0
12, 199920, Note_on_c, 6, 63, 76
12, 199920, Note_on_c, 6, 75, 76
12, 200099, Note_on_c, 6, 63, 0
12, 200099, Note_on_c, 6, 75, 0
12, 200400, Note_on_c, 6, 58, 84
12, 200400, Note_on_c, 6, 70, 84
12, 200579, Note_on_c, 6, 58, 0
12, 200579, Note_on_c, 6, 70, 0
12, 200880, Note_on_c, 6, 58, 84
12, 200880, Note_on_c, 6, 70, 84
12, 201059, Note_on_c, 6, 58, 0
12, 201059, Note_on_c, 6, 70, 0
12, 201360, Note_on_c, 6, 58, 84
12, 201360, Note_on_c, 6, 70, 84
12, 201539, Note_on_c, 6, 58, 0
12, 201539, Note_on_c, 6, 70, 0
12, 201840, Note_on_c, 6, 70, 84
12, 201840, Note_on_c, 6, 58, 84
12, 202019, Note_on_c, 6, 70, 0
12, 202019, Note_on_c, 6, 58, 0
12, 202320, Note_on_c, 6, 70, 84
12, 202320, Note_on_c, 6, 58, 84
12, 202499, Note_on_c, 6, 70, 0
12, 202499, Note_on_c, 6, 58, 0
12, 202800, Note_on_c, 6, 70, 84
12, 202800, Note_on_c, 6, 58, 84
12, 202979, Note_on_c, 6, 70, 0
12, 202979, Note_on_c, 6, 58, 0
12, 210960, Note_on_c, 6, 77, 84
12, 211649, Note_on_c, 6, 77, 0
12, 211680, Note_on_c, 6, 70, 76
12, 211680, Note_on_c, 6, 58, 76
12, 211859, Note_on_c, 6, 70, 0
12, 211859, Note_on_c, 6, 58, 0
12, 212400, Note_on_c, 6, 58, 76
12, 212400, Note_on_c, 6, 70, 76
12, 212579, Note_on_c, 6, 58, 0
12, 212579, Note_on_c, 6, 70, 0
12, 213120, Note_on_c, 6, 70, 76
12, 213120, Note_on_c, 6, 58, 76
12, 213299, Note_on_c, 6, 70, 0
12, 213299, Note_on_c, 6, 58, 0
12, 213840, Note_on_c, 6, 70, 76
12, 213840, Note_on_c, 6, 58, 76
12, 214019, Note_on_c, 6, 70, 0
12, 214019, Note_on_c, 6, 58, 0
12, 214080, Note_on_c, 6, 58, 76
12, 214080, Note_on_c, 6, 70, 76
12, 214259, Note_on_c, 6, 58, 0
12, 214259, Note_on_c, 6, 70, 0
12, 214320, Note_on_c, 6, 58, 76
12, 214320, Note_on_c, 6, 70, 76
12, 214499, Note_on_c, 6, 58, 0
12, 214499, Note_on_c, 6, 70, 0
12, 214560, Note_on_c, 6, 70, 76
12, 214560, Note_on_c, 6, 58, 76
12, 214799, Note_on_c, 6, 70, 0
12, 214799, Note_on_c, 6, 58, 0
12, 242160, Note_on_c, 6, 77, 84
12, 242339, Note_on_c, 6, 77, 0
12, 242400, Note_on_c, 6, 77, 84
12, 242579, Note_on_c, 6, 77, 0
12, 242640, Note_on_c, 6, 77, 84
12, 242819, Note_on_c, 6, 77, 0
12, 242880, Note_on_c, 6, 77, 84
12, 243059, Note_on_c, 6, 77, 0
12, 243120, Note_on_c, 6, 77, 84
12, 243299, Note_on_c, 6, 77, 0
12, 243360, Note_on_c, 6, 77, 84
12, 244799, Note_on_c, 6, 77, 0
12, 244800, Note_on_c, 6, 79, 84
12, 245024, Note_on_c, 6, 79, 0
12, 245040, Note_on_c, 6, 67, 84
12, 245040, Note_on_c, 6, 79, 84
12, 245219, Note_on_c, 6, 67, 0
12, 245219, Note_on_c, 6, 79, 0
12, 245280, Note_on_c, 6, 67, 84
12, 245280, Note_on_c, 6, 79, 84
12, 245459, Note_on_c, 6, 67, 0
12, 245459, Note_on_c, 6, 79, 0
12, 245520, Note_on_c, 6, 79, 84
12, 245520, Note_on_c, 6, 67, 84
12, 245699, Note_on_c, 6, 79, 0
12, 245699, Note_on_c, 6, 67, 0
12, 245760, Note_on_c, 6, 79, 84
12, 245760, Note_on_c, 6, 67, 84
12, 245939, Note_on_c, 6, 79, 0
12, 245939, Note_on_c, 6, 67, 0
12, 246000, Note_on_c, 6, 67, 84
12, 246000, Note_on_c, 6, 79, 84
12, 246179, Note_on_c, 6, 67, 0
12, 246179, Note_on_c, 6, 79, 0
12, 246240, Note_on_c, 6, 67, 84
12, 246240, Note_on_c, 6, 79, 84
12, 247679, Note_on_c, 6, 67, 0
12, 247679, Note_on_c, 6, 79, 0
12, 250800, Note_on_c, 6, 70, 84
12, 250800, Note_on_c, 6, 58, 84
12, 250979, Note_on_c, 6, 70, 0
12, 250979, Note_on_c, 6, 58, 0
12, 251040, Note_on_c, 6, 70, 84
12, 251040, Note_on_c, 6, 58, 84
12, 251219, Note_on_c, 6, 70, 0
12, 251219, Note_on_c, 6, 58, 0
12, 251280, Note_on_c, 6, 70, 84
12, 251280, Note_on_c, 6, 58, 84
12, 251459, Note_on_c, 6, 70, 0
12, 251459, Note_on_c, 6, 58, 0
12, 251520, Note_on_c, 6, 58, 84
12, 251520, Note_on_c, 6, 70, 84
12, 251699, Note_on_c, 6, 58, 0
12, 251699, Note_on_c, 6, 70, 0
12, 251760, Note_on_c, 6, 58, 84
12, 251760, Note_on_c, 6, 70, 84
12, 251939, Note_on_c, 6, 58, 0
12, 251939, Note_on_c, 6, 70, 0
12, 252000, Note_on_c, 6, 58, 84
12, 252000, Note_on_c, 6, 70, 84
12, 253439, Note_on_c, 6, 58, 0
12, 253439, Note_on_c, 6, 70, 0
12, 286800, Note_on_c, 6, 77, 84
12, 288224, Note_on_c, 6, 77, 0
12, 288240, Note_on_c, 6, 77, 92
12, 288689, Note_on_c, 6, 77, 0
12, 288720, Note_on_c, 6, 77, 92
12, 289169, Note_on_c, 6, 77, 0
12, 289200, Note_on_c, 6, 77, 92
12, 289649, Note_on_c, 6, 77, 0
12, 289680, Note_on_c, 6, 77, 92
12, 290129, Note_on_c, 6, 77, 0
12, 290160, Note_on_c, 6, 77, 92
12, 290609, Note_on_c, 6, 77, 0
12, 290640, Note_on_c, 6, 77, 92
12, 290849, Note_on_c, 6, 77, 0
12, 295440, Note_on_c, 6, 63, 92
12, 295440, Note_on_c, 6, 75, 92
12, 296849, Note_on_c, 6, 63, 0
12, 296849, Note_on_c, 6, 75, 0
12, 296880, Note_on_c, 6, 75, 92
12, 296880, Note_on_c, 6, 63, 92
12, 297329, Note_on_c, 6, 75, 0
12, 297329, Note_on_c, 6, 63, 0
12, 297360, Note_on_c, 6, 63, 92
12, 297360, Note_on_c, 6, 75, 92
12, 297809, Note_on_c, 6, 63, 0
12, 297809, Note_on_c, 6, 75, 0
12, 297840, Note_on_c, 6, 75, 92
12, 297840, Note_on_c, 6, 63, 92
12, 298289, Note_on_c, 6, 75, 0
12, 298289, Note_on_c, 6, 63, 0
12, 298320, Note_on_c, 6, 63, 92
12, 298320, Note_on_c, 6, 75, 92
12, 298769, Note_on_c, 6, 63, 0
12, 298769, Note_on_c, 6, 75, 0
12, 298800, Note_on_c, 6, 63, 92
12, 298800, Note_on_c, 6, 75, 92
12, 299249, Note_on_c, 6, 63, 0
12, 299249, Note_on_c, 6, 75, 0
12, 299280, Note_on_c, 6, 75, 92
12, 299280, Note_on_c, 6, 63, 92
12, 299489, Note_on_c, 6, 75, 0
12, 299489, Note_on_c, 6, 63, 0
12, 299760, Note_on_c, 6, 67, 92
12, 299760, Note_on_c, 6, 79, 92
12, 301169, Note_on_c, 6, 67, 0
12, 301169, Note_on_c, 6, 79, 0
12, 301200, Note_on_c, 6, 79, 92
12, 301200, Note_on_c, 6, 67, 92
12, 301649, Note_on_c, 6, 79, 0
12, 301649, Note_on_c, 6, 67, 0
12, 301680, Note_on_c, 6, 79, 92
12, 301680, Note_on_c, 6, 67, 92
12, 302129, Note_on_c, 6, 79, 0
12, 302129, Note_on_c, 6, 67, 0
12, 302160, Note_on_c, 6, 79, 92
12, 302160, Note_on_c, 6, 67, 92
12, 302609, Note_on_c, 6, 79, 0
12, 302609, Note_on_c, 6, 67, 0
12, 302640, Note_on_c, 6, 67, 92
12, 302640, Note_on_c, 6, 79, 92
12, 303089, Note_on_c, 6, 67, 0
12, 303089, Note_on_c, 6, 79, 0
12, 303120, Note_on_c, 6, 79, 92
12, 303120, Note_on_c, 6, 67, 92
12, 303569, Note_on_c, 6, 79, 0
12, 303569, Note_on_c, 6, 67, 0
12, 303600, Note_on_c, 6, 67, 92
12, 303600, Note_on_c, 6, 79, 92
12, 303809, Note_on_c, 6, 67, 0
12, 303809, Note_on_c, 6, 79, 0
12, 304080, Note_on_c, 6, 63, 92
12, 304080, Note_on_c, 6, 75, 92
12, 304529, Note_on_c, 6, 63, 0
12, 304529, Note_on_c, 6, 75, 0
12, 304560, Note_on_c, 6, 75, 92
12, 304560, Note_on_c, 6, 63, 92
12, 305009, Note_on_c, 6, 75, 0
12, 305009, Note_on_c, 6, 63, 0
12, 305040, Note_on_c, 6, 63, 92
12, 305040, Note_on_c, 6, 75, 92
12, 305249, Note_on_c, 6, 63, 0
12, 305249, Note_on_c, 6, 75, 0
12, 305520, Note_on_c, 6, 67, 92
12, 305969, Note_on_c, 6, 67, 0
12, 306000, Note_on_c, 6, 67, 92
12, 306449, Note_on_c, 6, 67, 0
12, 306480, Note_on_c, 6, 67, 92
12, 306689, Note_on_c, 6, 67, 0
12, 306720, Note_on_c, 6, 77, 76
12, 307199, Note_on_c, 6, 77, 0
12, 307440, Note_on_c, 6, 77, 76
12, 307919, Note_on_c, 6, 77, 0
12, 308160, Note_on_c, 6, 77, 76
12, 308639, Note_on_c, 6, 77, 0
12, 308880, Note_on_c, 6, 77, 76
12, 309344, Note_on_c, 6, 77, 0
12, 309360, Note_on_c, 6, 77, 76
12, 309539, Note_on_c, 6, 77, 0
12, 326880, Note_on_c, 6, 79, 76
12, 326880, Note_on_c, 6, 67, 76
12, 328544, Note_on_c, 6, 79, 0
12, 328544, Note_on_c, 6, 67, 0
12, 328560, Note_on_c, 6, 67, 76
12, 328560, Note_on_c, 6, 79, 76
12, 328784, Note_on_c, 6, 67, 0
12, 328784, Note_on_c, 6, 79, 0
12, 328800, Note_on_c, 6, 67, 76
12, 328800, Note_on_c, 6, 79, 76
12, 329024, Note_on_c, 6, 67, 0
12, 329024, Note_on_c, 6, 79, 0
12, 329040, Note_on_c, 6, 79, 76
12, 329040, Note_on_c, 6, 67, 76
12, 329264, Note_on_c, 6, 79, 0
12, 329264, Note_on_c, 6, 67, 0
12, 329280, Note_on_c, 6, 67, 76
12, 329280, Note_on_c, 6, 79, 76
12, 329504, Note_on_c, 6, 67, 0
12, 329504, Note_on_c, 6, 79, 0
12, 329520, Note_on_c, 6, 79, 84
12, 329520, Note_on_c, 6, 67, 84
12, 329759, Note_on_c, 6, 79, 0
12, 329759, Note_on_c, 6, 67, 0
12, 329760, Note_on_c, 6, 79, 76
12, 329760, Note_on_c, 6, 67, 76
12, 331424, Note_on_c, 6, 79, 0
12, 331424, Note_on_c, 6, 67, 0
12, 331440, Note_on_c, 6, 79, 76
12, 331440, Note_on_c, 6, 67, 76
12, 331664, Note_on_c, 6, 79, 0
12, 331664, Note_on_c, 6, 67, 0
12, 331680, Note_on_c, 6, 79, 76
12, 331680, Note_on_c, 6, 67, 76
12, 331904, Note_on_c, 6, 79, 0
12, 331904, Note_on_c, 6, 67, 0
12, 331920, Note_on_c, 6, 79, 76
12, 331920, Note_on_c, 6, 67, 76
12, 332144, Note_on_c, 6, 79, 0
12, 332144, Note_on_c, 6, 67, 0
12, 332160, Note_on_c, 6, 67, 76
12, 332160, Note_on_c, 6, 79, 76
12, 332384, Note_on_c, 6, 67, 0
12, 332384, Note_on_c, 6, 79, 0
12, 332400, Note_on_c, 6, 79, 84
12, 332400, Note_on_c, 6, 67, 84
12, 332879, Note_on_c, 6, 79, 0
12, 332879, Note_on_c, 6, 67, 0
12, 335520, Note_on_c, 6, 70, 76
12, 335520, Note_on_c, 6, 58, 76
12, 335744, Note_on_c, 6, 70, 0
12, 335744, Note_on_c, 6, 58, 0
12, 335760, Note_on_c, 6, 58, 76
12, 335760, Note_on_c, 6, 70, 76
12, 335984, Note_on_c, 6, 58, 0
12, 335984, Note_on_c, 6, 70, 0
12, 336000, Note_on_c, 6, 58, 76
12, 336000, Note_on_c, 6, 70, 76
12, 336224, Note_on_c, 6, 58, 0
12, 336224, Note_on_c, 6, 70, 0
12, 336240, Note_on_c, 6, 58, 76
12, 336240, Note_on_c, 6, 70, 76
12, 336464, Note_on_c, 6, 58, 0
12, 336464, Note_on_c, 6, 70, 0
12, 336480, Note_on_c, 6, 70, 76
12, 336480, Note_on_c, 6, 58, 76
12, 336704, Note_on_c, 6, 70, 0
12, 336704, Note_on_c, 6, 58, 0
12, 336720, Note_on_c, 6, 58, 84
12, 336720, Note_on_c, 6, 70, 84
12, 336959, Note_on_c, 6, 58, 0
12, 336959, Note_on_c, 6, 70, 0
12, 336960, Note_on_c, 6, 70, 76
12, 336960, Note_on_c, 6, 58, 76
12, 338399, Note_on_c, 6, 70, 0
12, 338399, Note_on_c, 6, 58, 0
12, 338400, Note_on_c, 6, 70, 84
12, 338400, Note_on_c, 6, 58, 84
12, 338624, Note_on_c, 6, 70, 0
12, 338624, Note_on_c, 6, 58, 0
12, 338640, Note_on_c, 6, 58, 84
12, 338640, Note_on_c, 6, 70, 84
12, 338864, Note_on_c, 6, 58, 0
12, 338864, Note_on_c, 6, 70, 0
12, 338880, Note_on_c, 6, 58, 84
12, 338880, Note_on_c, 6, 70, 84
12, 339104, Note_on_c, 6, 58, 0
12, 339104, Note_on_c, 6, 70, 0
12, 339120, Note_on_c, 6, 70, 84
12, 339120, Note_on_c, 6, 58, 84
12, 339344, Note_on_c, 6, 70, 0
12, 339344, Note_on_c, 6, 58, 0
12, 339360, Note_on_c, 6, 75, 84
12, 339360, Note_on_c, 6, 63, 84
12, 339584, Note_on_c, 6, 75, 0
12, 339584, Note_on_c, 6, 63, 0
12, 339600, Note_on_c, 6, 63, 84
12, 339600, Note_on_c, 6, 75, 84
12, 339824, Note_on_c, 6, 63, 0
12, 339824, Note_on_c, 6, 75, 0
12, 339840, Note_on_c, 6, 63, 84
12, 339840, Note_on_c, 6, 75, 84
12, 340079, Note_on_c, 6, 63, 0
12, 340079, Note_on_c, 6, 75, 0
12, 368640, Note_on_c, 6, 63, 84
12, 368640, Note_on_c, 6, 75, 84
12, 370304, Note_on_c, 6, 63, 0
12, 370304, Note_on_c, 6, 75, 0
12, 370320, Note_on_c, 6, 63, 84
12, 370320, Note_on_c, 6, 75, 84
12, 370544, Note_on_c, 6, 63, 0
12, 370544, Note_on_c, 6, 75, 0
12, 370560, Note_on_c, 6, 63, 84
12, 370560, Note_on_c, 6, 75, 84
12, 370784, Note_on_c, 6, 63, 0
12, 370784, Note_on_c, 6, 75, 0
12, 370800, Note_on_c, 6, 75, 84
12, 370800, Note_on_c, 6, 63, 84
12, 371024, Note_on_c, 6, 75, 0
12, 371024, Note_on_c, 6, 63, 0
12, 371040, Note_on_c, 6, 75, 84
12, 371040, Note_on_c, 6, 63, 84
12, 371264, Note_on_c, 6, 75, 0
12, 371264, Note_on_c, 6, 63, 0
12, 371280, Note_on_c, 6, 63, 84
12, 371280, Note_on_c, 6, 75, 84
12, 371504, Note_on_c, 6, 63, 0
12, 371504, Note_on_c, 6, 75, 0
12, 371520, Note_on_c, 6, 63, 84
12, 371520, Note_on_c, 6, 75, 84
12, 371759, Note_on_c, 6, 63, 0
12, 371759, Note_on_c, 6, 75, 0
12, 393120, Note_on_c, 6, 58, 76
12, 393120, Note_on_c, 6, 70, 76
12, 393824, Note_on_c, 6, 58, 0
12, 393824, Note_on_c, 6, 70, 0
12, 393840, Note_on_c, 6, 70, 84
12, 393840, Note_on_c, 6, 58, 84
12, 394544, Note_on_c, 6, 70, 0
12, 394544, Note_on_c, 6, 58, 0
12, 394560, Note_on_c, 6, 63, 84
12, 394560, Note_on_c, 6, 75, 84
12, 394799, Note_on_c, 6, 63, 0
12, 394799, Note_on_c, 6, 75, 0
12, 416640, Note_on_c, 6, 70, 65
12, 416640, Note_on_c, 6, 58, 65
12, 416744, Note_on_c, 6, 70, 0
12, 416744, Note_on_c, 6, 58, 0
12, 416760, Note_on_c, 6, 58, 66
12, 416760, Note_on_c, 6, 70, 66
12, 416864, Note_on_c, 6, 58, 0
12, 416864, Note_on_c, 6, 70, 0
12, 416880, Note_on_c, 6, 58, 68
12, 416880, Note_on_c, 6, 70, 68
12, 416984, Note_on_c, 6, 58, 0
12, 416984, Note_on_c, 6, 70, 0
12, 417000, Note_on_c, 6, 70, 69
12, 417000, Note_on_c, 6, 58, 69
12, 417104, Note_on_c, 6, 70, 0
12, 417104, Note_on_c, 6, 58, 0
12, 417120, Note_on_c, 6, 70, 70
12, 417120, Note_on_c, 6, 58, 70
12, 417224, Note_on_c, 6, 70, 0
12, 417224, Note_on_c, 6, 58, 0
12, 417240, Note_on_c, 6, 58, 72
12, 417240, Note_on_c, 6, 70, 72
12, 417344, Note_on_c, 6, 58, 0
12, 417344, Note_on_c, 6, 70, 0
12, 417360, Note_on_c, 6, 70, 73
12, 417360, Note_on_c, 6, 58, 73
12, 417464, Note_on_c, 6, 70, 0
12, 417464, Note_on_c, 6, 58, 0
12, 417480, Note_on_c, 6, 70, 74
12, 417480, Note_on_c, 6, 58, 74
12, 417584, Note_on_c, 6, 70, 0
12, 417584, Note_on_c, 6, 58, 0
12, 417600, Note_on_c, 6, 75, 76
12, 417600, Note_on_c, 6, 63, 76
12, 418784, Note_on_c, 6, 75, 0
12, 418784, Note_on_c, 6, 63, 0
12, 418800, Note_on_c, 6, 58, 76
12, 418800, Note_on_c, 6, 70, 76
12, 419024, Note_on_c, 6, 58, 0
12, 419024, Note_on_c, 6, 70, 0
12, 419040, Note_on_c, 6, 75, 76
12, 419040, Note_on_c, 6, 63, 76
12, 419264, Note_on_c, 6, 75, 0
12, 419264, Note_on_c, 6, 63, 0
12, 419280, Note_on_c, 6, 63, 76
12, 419280, Note_on_c, 6, 70, 76
12, 419504, Note_on_c, 6, 63, 0
12, 419504, Note_on_c, 6, 70, 0
12, 419520, Note_on_c, 6, 63, 76
12, 419520, Note_on_c, 6, 70, 76
12, 419744, Note_on_c, 6, 63, 0
12, 419744, Note_on_c, 6, 70, 0
12, 419760, Note_on_c, 6, 63, 76
12, 419760, Note_on_c, 6, 70, 76
12, 419999, Note_on_c, 6, 63, 0
12, 419999, Note_on_c, 6, 70, 0
12, 420720, Note_on_c, 6, 63, 76
12, 420720, Note_on_c, 6, 75, 76
12, 420944, Note_on_c, 6, 63, 0
12, 420944, Note_on_c, 6, 75, 0
12, 420960, Note_on_c, 6, 63, 76
12, 420960, Note_on_c, 6, 75, 76
12, 421184, Note_on_c, 6, 63, 0
12, 421184, Note_on_c, 6, 75, 0
12, 421200, Note_on_c, 6, 63, 76
12, 421200, Note_on_c, 6, 75, 76
12, 421664, Note_on_c, 6, 63, 0
12, 421664, Note_on_c, 6, 75, 0
12, 421680, Note_on_c, 6, 63, 84
12, 421680, Note_on_c, 6, 75, 84
12, 421904, Note_on_c, 6, 63, 0
12, 421904, Note_on_c, 6, 75, 0
12, 421920, Note_on_c, 6, 63, 80
12, 421920, Note_on_c, 6, 75, 80
12, 422624, Note_on_c, 6, 63, 0
12, 422624, Note_on_c, 6, 75, 0
12, 422640, Note_on_c, 6, 75, 80
12, 422640, Note_on_c, 6, 63, 80
12, 423344, Note_on_c, 6, 75, 0
12, 423344, Note_on_c, 6, 63, 0
12, 423360, Note_on_c, 6, 75, 80
12, 423360, Note_on_c, 6, 63, 80
12, 424304, Note_on_c, 6, 75, 0
12, 424304, Note_on_c, 6, 63, 0
12, 424320, Note_on_c, 6, 70, 80
12, 424320, Note_on_c, 6, 77, 80
12, 424544, Note_on_c, 6, 70, 0
12, 424544, Note_on_c, 6, 77, 0
12, 424560, Note_on_c, 6, 70, 80
12, 424560, Note_on_c, 6, 77, 80
12, 424784, Note_on_c, 6, 70, 0
12, 424784, Note_on_c, 6, 77, 0
12, 424800, Note_on_c, 6, 63, 84
12, 424800, Note_on_c, 6, 75, 84
12, 425264, Note_on_c, 6, 63, 0
12, 425264, Note_on_c, 6, 75, 0
12, 425280, Note_on_c, 6, 67, 92
12, 425280, Note_on_c, 6, 79, 92
12, 425504, Note_on_c, 6, 67, 0
12, 425504, Note_on_c, 6, 79, 0
12, 425520, Note_on_c, 6, 63, 84
12, 425520, Note_on_c, 6, 75, 84
12, 425984, Note_on_c, 6, 63, 0
12, 425984, Note_on_c, 6, 75, 0
12, 426000, Note_on_c, 6, 70, 92
12, 426000, Note_on_c, 6, 58, 92
12, 426224, Note_on_c, 6, 70, 0
12, 426224, Note_on_c, 6, 58, 0
12, 426240, Note_on_c, 6, 75, 84
12, 426240, Note_on_c, 6, 63, 84
12, 426464, Note_on_c, 6, 75, 0
12, 426464, Note_on_c, 6, 63, 0
12, 426480, Note_on_c, 6, 67, 84
12, 426704, Note_on_c, 6, 67, 0
12, 426720, Note_on_c, 6, 70, 84
12, 426944, Note_on_c, 6, 70, 0
12, 426960, Note_on_c, 6, 63, 84
12, 427424, Note_on_c, 6, 63, 0
12, 427440, Note_on_c, 6, 67, 92
12, 427904, Note_on_c, 6, 67, 0
12, 427920, Note_on_c, 6, 79, 84
12, 427920, Note_on_c, 6, 67, 84
12, 428144, Note_on_c, 6, 79, 0
12, 428144, Note_on_c, 6, 67, 0
12, 428160, Note_on_c, 6, 67, 84
12, 428160, Note_on_c, 6, 79, 84
12, 428384, Note_on_c, 6, 67, 0
12, 428384, Note_on_c, 6, 79, 0
12, 428400, Note_on_c, 6, 67, 84
12, 428400, Note_on_c, 6, 79, 84
12, 428639, Note_on_c, 6, 67, 0
12, 428639, Note_on_c, 6, 79, 0
12, 428880, Note_on_c, 6, 67, 92
12, 428880, Note_on_c, 6, 79, 92
12, 429104, Note_on_c, 6, 67, 0
12, 429104, Note_on_c, 6, 79, 0
12, 429120, Note_on_c, 6, 77, 84
12, 429359, Note_on_c, 6, 77, 0
12, 429840, Note_on_c, 6, 75, 84
12, 429840, Note_on_c, 6, 63, 84
12, 430079, Note_on_c, 6, 75, 0
12, 430079, Note_on_c, 6, 63, 0
12, 430560, Note_on_c, 6, 70, 84
12, 430560, Note_on_c, 6, 58, 84
12, 430799, Note_on_c, 6, 70, 0
12, 430799, Note_on_c, 6, 58, 0
12, 438000, Note_on_c, 6, 58, 84
12, 438000, Note_on_c, 6, 70, 84
12, 438344, Note_on_c, 6, 58, 0
12, 438344, Note_on_c, 6, 70, 0
12, 438360, Note_on_c, 6, 58, 84
12, 438360, Note_on_c, 6, 70, 84
12, 438464, Note_on_c, 6, 58, 0
12, 438464, Note_on_c, 6, 70, 0
12, 438480, Note_on_c, 6, 70, 84
12, 438480, Note_on_c, 6, 58, 84
12, 438704, Note_on_c, 6, 70, 0
12, 438704, Note_on_c, 6, 58, 0
12, 438720, Note_on_c, 6, 70, 84
12, 438720, Note_on_c, 6, 58, 84
12, 438944, Note_on_c, 6, 70, 0
12, 438944, Note_on_c, 6, 58, 0
12, 438960, Note_on_c, 6, 58, 84
12, 438960, Note_on_c, 6, 70, 84
12, 439184, Note_on_c, 6, 58, 0
12, 439184, Note_on_c, 6, 70, 0
12, 439200, Note_on_c, 6, 63, 52
12, 439200, Note_on_c, 6, 75, 52
12, 439439, Note_on_c, 6, 63, 0
12, 439439, Note_on_c, 6, 75, 0
12, 444960, Note_on_c, 6, 77, 76
12, 445139, Note_on_c, 6, 77, 0
12, 445200, Note_on_c, 6, 77, 76
12, 445379, Note_on_c, 6, 77, 0
12, 446280, Note_on_c, 6, 77, 76
12, 446384, Note_on_c, 6, 77, 0
12, 446400, Note_on_c, 6, 63, 76
12, 446400, Note_on_c, 6, 75, 76
12, 446579, Note_on_c, 6, 63, 0
12, 446579, Note_on_c, 6, 75, 0
12, 446640, Note_on_c, 6, 63, 76
12, 446640, Note_on_c, 6, 75, 76
12, 446819, Note_on_c, 6, 63, 0
12, 446819, Note_on_c, 6, 75, 0
12, 447720, Note_on_c, 6, 75, 76
12, 447720, Note_on_c, 6, 63, 76
12, 447824, Note_on_c, 6, 75, 0
12, 447824, Note_on_c, 6, 63, 0
12, 447840, Note_on_c, 6, 58, 76
12, 447840, Note_on_c, 6, 70, 76
12, 448019, Note_on_c, 6, 58, 0
12, 448019, Note_on_c, 6, 70, 0
12, 448080, Note_on_c, 6, 58, 76
12, 448080, Note_on_c, 6, 70, 76
12, 448259, Note_on_c, 6, 58, 0
12, 448259, Note_on_c, 6, 70, 0
12, 450960, Note_on_c, 6, 75, 76
12, 450960, Note_on_c, 6, 63, 76
12, 451184, Note_on_c, 6, 75, 0
12, 451184, Note_on_c, 6, 63, 0
12, 451200, Note_on_c, 6, 63, 76
12, 451200, Note_on_c, 6, 75, 76
12, 451424, Note_on_c, 6, 63, 0
12, 451424, Note_on_c, 6, 75, 0
12, 451440, Note_on_c, 6, 75, 76
12, 451440, Note_on_c, 6, 63, 76
12, 451664, Note_on_c, 6, 75, 0
12, 451664, Note_on_c, 6, 63, 0
12, 451680, Note_on_c, 6, 63, 76
12, 451680, Note_on_c, 6, 75, 76
12, 451904, Note_on_c, 6, 63, 0
12, 451904, Note_on_c, 6, 75, 0
12, 451920, Note_on_c, 6, 63, 76
12, 451920, Note_on_c, 6, 75, 76
12, 452144, Note_on_c, 6, 63, 0
12, 452144, Note_on_c, 6, 75, 0
12, 452160, Note_on_c, 6, 63, 76
12, 452160, Note_on_c, 6, 75, 76
12, 452399, Note_on_c, 6, 63, 0
12, 452399, Note_on_c, 6, 75, 0
12, 454800, Control_c, 6, 11, 112
12, 455040, Control_c, 6, 11, 112
12, 455040, Note_on_c, 6, 70, 84
12, 455040, Note_on_c, 6, 58, 84
12, 455160, Control_c, 6, 11, 113
12, 455280, Control_c, 6, 11, 115
12, 455400, Control_c, 6, 11, 116
12, 455520, Control_c, 6, 11, 117
12, 455640, Control_c, 6, 11, 118
12, 455760, Control_c, 6, 11, 120
12, 455880, Control_c, 6, 11, 121
12, 456000, Control_c, 6, 11, 122
12, 456120, Control_c, 6, 11, 123
12, 456240, Control_c, 6, 11, 125
12, 456360, Control_c, 6, 11, 127
12, 456464, Note_on_c, 6, 70, 0
12, 456464, Note_on_c, 6, 58, 0
12, 456480, Note_on_c, 6, 58, 84
12, 456480, Note_on_c, 6, 70, 84
12, 456584, Note_on_c, 6, 58, 0
12, 456584, Note_on_c, 6, 70, 0
12, 456600, Note_on_c, 6, 70, 84
12, 456600, Note_on_c, 6, 58, 84
12, 456704, Note_on_c, 6, 70, 0
12, 456704, Note_on_c, 6, 58, 0
12, 456720, Note_on_c, 6, 58, 84
12, 456720, Note_on_c, 6, 70, 84
12, 456824, Note_on_c, 6, 58, 0
12, 456824, Note_on_c, 6, 70, 0
12, 456840, Note_on_c, 6, 70, 84
12, 456840, Note_on_c, 6, 58, 84
12, 456944, Note_on_c, 6, 70, 0
12, 456944, Note_on_c, 6, 58, 0
12, 456960, Note_on_c, 6, 58, 84
12, 456960, Note_on_c, 6, 70, 84
12, 457064, Note_on_c, 6, 58, 0
12, 457064, Note_on_c, 6, 70, 0
12, 457080, Note_on_c, 6, 70, 84
12, 457080, Note_on_c, 6, 58, 84
12, 457184, Note_on_c, 6, 70, 0
12, 457184, Note_on_c, 6, 58, 0
12, 457200, Note_on_c, 6, 58, 84
12, 457200, Note_on_c, 6, 70, 84
12, 457304, Note_on_c, 6, 58, 0
12, 457304, Note_on_c, 6, 70, 0
12, 457320, Note_on_c, 6, 70, 84
12, 457320, Note_on_c, 6, 58, 84
12, 457424, Note_on_c, 6, 70, 0
12, 457424, Note_on_c, 6, 58, 0
12, 457440, Note_on_c, 6, 70, 84
12, 457440, Note_on_c, 6, 58, 84
12, 457544, Note_on_c, 6, 70, 0
12, 457544, Note_on_c, 6, 58, 0
12, 457560, Note_on_c, 6, 70, 84
12, 457560, Note_on_c, 6, 58, 84
12, 457664, Note_on_c, 6, 70, 0
12, 457664, Note_on_c, 6, 58, 0
12, 457680, Note_on_c, 6, 70, 84
12, 457680, Note_on_c, 6, 58, 84
12, 457784, Note_on_c, 6, 70, 0
12, 457784, Note_on_c, 6, 58, 0
12, 457800, Note_on_c, 6, 70, 84
12, 457800, Note_on_c, 6, 58, 84
12, 457904, Note_on_c, 6, 70, 0
12, 457904, Note_on_c, 6, 58, 0
12, 457920, Note_on_c, 6, 75, 84
12, 457920, Note_on_c, 6, 63, 84
12, 458159, Note_on_c, 6, 75, 0
12, 458159, Note_on_c, 6, 63, 0
12, 476880, Note_on_c, 6, 58, 84
12, 476880, Note_on_c, 6, 70, 84
12, 477089, Note_on_c, 6, 58, 0
12, 477089, Note_on_c, 6, 70, 0
12, 477600, Note_on_c, 6, 70, 84
12, 477600, Note_on_c, 6, 58, 84
12, 477809, Note_on_c, 6, 70, 0
12, 477809, Note_on_c, 6, 58, 0
12, 478320, Note_on_c, 6, 70, 84
12, 478320, Note_on_c, 6, 58, 84
12, 478529, Note_on_c, 6, 70, 0
12, 478529, Note_on_c, 6, 58, 0
12, 479040, Note_on_c, 6, 58, 84
12, 479040, Note_on_c, 6, 70, 84
12, 479249, Note_on_c, 6, 58, 0
12, 479249, Note_on_c, 6, 70, 0
12, 479280, Note_on_c, 6, 70, 76
12, 479280, Note_on_c, 6, 58, 76
12, 479504, Note_on_c, 6, 70, 0
12, 479504, Note_on_c, 6, 58, 0
12, 479520, Note_on_c, 6, 58, 84
12, 479520, Note_on_c, 6, 70, 84
12, 480224, Note_on_c, 6, 58, 0
12, 480224, Note_on_c, 6, 70, 0
12, 480240, Note_on_c, 6, 58, 92
12, 480240, Note_on_c, 6, 70, 92
12, 480929, Note_on_c, 6, 58, 0
12, 480929, Note_on_c, 6, 70, 0
12, 480960, Note_on_c, 6, 58, 92
12, 480960, Note_on_c, 6, 70, 92
12, 481649, Note_on_c, 6, 58, 0
12, 481649, Note_on_c, 6, 70, 0
12, 481680, Note_on_c, 6, 70, 84
12, 481680, Note_on_c, 6, 58, 84
12, 481904, Note_on_c, 6, 70, 0
12, 481904, Note_on_c, 6, 58, 0
12, 481920, Note_on_c, 6, 58, 84
12, 481920, Note_on_c, 6, 70, 84
12, 482144, Note_on_c, 6, 58, 0
12, 482144, Note_on_c, 6, 70, 0
12, 482160, Note_on_c, 6, 70, 84
12, 482160, Note_on_c, 6, 58, 84
12, 482384, Note_on_c, 6, 70, 0
12, 482384, Note_on_c, 6, 58, 0
12, 482400, Note_on_c, 6, 75, 84
12, 482400, Note_on_c, 6, 63, 84
12, 483359, Note_on_c, 6, 75, 0
12, 483359, Note_on_c, 6, 63, 0
12, 486960, Note_on_c, 6, 67, 84
12, 487139, Note_on_c, 6, 67, 0
12, 487200, Note_on_c, 6, 67, 84
12, 487379, Note_on_c, 6, 67, 0
12, 487680, Note_on_c, 6, 75, 84
12, 487680, Note_on_c, 6, 63, 84
12, 487859, Note_on_c, 6, 75, 0
12, 487859, Note_on_c, 6, 63, 0
12, 487920, Note_on_c, 6, 75, 84
12, 487920, Note_on_c, 6, 63, 84
12, 488099, Note_on_c, 6, 75, 0
12, 488099, Note_on_c, 6, 63, 0
12, 488400, Note_on_c, 6, 63, 84
12, 488400, Note_on_c, 6, 75, 84
12, 488579, Note_on_c, 6, 63, 0
12, 488579, Note_on_c, 6, 75, 0
12, 488640, Note_on_c, 6, 70, 84
12, 488640, Note_on_c, 6, 58, 84
12, 488819, Note_on_c, 6, 70, 0
12, 488819, Note_on_c, 6, 58, 0
12, 489120, Note_on_c, 6, 67, 84
12, 489299, Note_on_c, 6, 67, 0
12, 489360, Note_on_c, 6, 67, 84
12, 489539, Note_on_c, 6, 67, 0
12, 489840, Note_on_c, 6, 63, 92
12, 489840, Note_on_c, 6, 75, 92
12, 490019, Note_on_c, 6, 63, 0
12, 490019, Note_on_c, 6, 75, 0
12, 490080, Note_on_c, 6, 63, 92
12, 490080, Note_on_c, 6, 75, 92
12, 490259, Note_on_c, 6, 63, 0
12, 490259, Note_on_c, 6, 75, 0
12, 490560, Note_on_c, 6, 63, 92
12, 490560, Note_on_c, 6, 75, 92
12, 490739, Note_on_c, 6, 63, 0
12, 490739, Note_on_c, 6, 75, 0
12, 491040, Note_on_c, 6, 75, 92
12, 491040, Note_on_c, 6, 63, 92
12, 491219, Note_on_c, 6, 75, 0
12, 491219, Note_on_c, 6, 63, 0
12, 491520, Note_on_c, 6, 75, 92
12, 491520, Note_on_c, 6, 63, 92
12, 491699, Note_on_c, 6, 75, 0
12, 491699, Note_on_c, 6, 63, 0
12, 492000, Note_on_c, 6, 63, 92
12, 492000, Note_on_c, 6, 75, 92
12, 492179, Note_on_c, 6, 63, 0
12, 492179, Note_on_c, 6, 75, 0
12, 492480, Note_on_c, 6, 63, 92
12, 492480, Note_on_c, 6, 75, 92
12, 492659, Note_on_c, 6, 63, 0
12, 492659, Note_on_c, 6, 75, 0
12, 492960, Note_on_c, 6, 75, 92
12, 492960, Note_on_c, 6, 63, 92
12, 493139, Note_on_c, 6, 75, 0
12, 493139, Note_on_c, 6, 63, 0
12, 500760, Note_on_c, 6, 58, 78
12, 500864, Note_on_c, 6, 58, 0
12, 500880, Note_on_c, 6, 63, 80
12, 500984, Note_on_c, 6, 63, 0
12, 501000, Note_on_c, 6, 67, 82
12, 501104, Note_on_c, 6, 67, 0
12, 501120, Note_on_c, 6, 70, 84
12, 501824, Note_on_c, 6, 70, 0
12, 501840, Note_on_c, 6, 63, 76
12, 502079, Note_on_c, 6, 63, 0
12, 502560, Note_on_c, 6, 75, 76
12, 502560, Note_on_c, 6, 63, 76
12, 502799, Note_on_c, 6, 75, 0
12, 502799, Note_on_c, 6, 63, 0
12, 503280, Note_on_c, 6, 75, 76
12, 503280, Note_on_c, 6, 63, 76
12, 503519, Note_on_c, 6, 75, 0
12, 503519, Note_on_c, 6, 63, 0
12, 504000, Note_on_c, 6, 63, 76
12, 504000, Note_on_c, 6, 75, 76
12, 504179, Note_on_c, 6, 63, 0
12, 504179, Note_on_c, 6, 75, 0
12, 504240, Note_on_c, 6, 63, 76
12, 504240, Note_on_c, 6, 75, 76
12, 504419, Note_on_c, 6, 63, 0
12, 504419, Note_on_c, 6, 75, 0
12, 504480, Note_on_c, 6, 75, 76
12, 504480, Note_on_c, 6, 63, 76
12, 504659, Note_on_c, 6, 75, 0
12, 504659, Note_on_c, 6, 63, 0
12, 504720, Note_on_c, 6, 75, 76
12, 504720, Note_on_c, 6, 63, 76
12, 504959, Note_on_c, 6, 75, 0
12, 504959, Note_on_c, 6, 63, 0
12, 509040, Note_on_c, 6, 77, 76
12, 510479, Note_on_c, 6, 77, 0
12, 511920, Note_on_c, 6, 67, 84
12, 512024, Note_on_c, 6, 67, 0
12, 512040, Note_on_c, 6, 67, 84
12, 512144, Note_on_c, 6, 67, 0
12, 512160, Note_on_c, 6, 67, 84
12, 512264, Note_on_c, 6, 67, 0
12, 512280, Note_on_c, 6, 67, 84
12, 512384, Note_on_c, 6, 67, 0
12, 512400, Note_on_c, 6, 67, 84
12, 512504, Note_on_c, 6, 67, 0
12, 512520, Note_on_c, 6, 67, 84
12, 512624, Note_on_c, 6, 67, 0
12, 512640, Note_on_c, 6, 67, 84
12, 512744, Note_on_c, 6, 67, 0
12, 512760, Note_on_c, 6, 67, 84
12, 512864, Note_on_c, 6, 67, 0
12, 512880, Note_on_c, 6, 67, 84
12, 512984, Note_on_c, 6, 67, 0
12, 513000, Note_on_c, 6, 67, 84
12, 513104, Note_on_c, 6, 67, 0
12, 513120, Note_on_c, 6, 67, 84
12, 513224, Note_on_c, 6, 67, 0
12, 513240, Note_on_c, 6, 67, 84
12, 513344, Note_on_c, 6, 67, 0
12, 513360, Note_on_c, 6, 67, 52
12, 513599, Note_on_c, 6, 67, 0
12, 559200, Control_c, 6, 11, 80
12, 559440, Note_on_c, 6, 58, 68
12, 559440, Note_on_c, 6, 70, 68
12, 559440, Control_c, 6, 11, 80
12, 559530, Control_c, 6, 11, 82
12, 559620, Control_c, 6, 11, 84
12, 559710, Control_c, 6, 11, 86
12, 559800, Control_c, 6, 11, 88
12, 559890, Control_c, 6, 11, 90
12, 559980, Control_c, 6, 11, 92
12, 560070, Control_c, 6, 11, 94
12, 560160, Control_c, 6, 11, 96
12, 560250, Control_c, 6, 11, 98
12, 560340, Control_c, 6, 11, 100
12, 560384, Note_on_c, 6, 58, 0
12, 560384, Note_on_c, 6, 70, 0
12, 560400, Note_on_c, 6, 70, 68
12, 560400, Note_on_c, 6, 58, 68
12, 560430, Control_c, 6, 11, 102
12, 560520, Control_c, 6, 11, 104
12, 560610, Control_c, 6, 11, 105
12, 560624, Note_on_c, 6, 70, 0
12, 560624, Note_on_c, 6, 58, 0
12, 560640, Note_on_c, 6, 70, 68
12, 560640, Note_on_c, 6, 58, 68
12, 560700, Control_c, 6, 11, 107
12, 560790, Control_c, 6, 11, 109
12, 560864, Note_on_c, 6, 70, 0
12, 560864, Note_on_c, 6, 58, 0
12, 560880, Note_on_c, 6, 58, 68
12, 560880, Control_c, 6, 11, 111
12, 560880, Note_on_c, 6, 70, 68
12, 560970, Control_c, 6, 11, 113
12, 561059, Note_on_c, 6, 58, 0
12, 561059, Note_on_c, 6, 70, 0
12, 561060, Control_c, 6, 11, 115
12, 561120, Note_on_c, 6, 58, 68
12, 561120, Note_on_c, 6, 70, 68
12, 561150, Control_c, 6, 11, 117
12, 561240, Control_c, 6, 11, 119
12, 561299, Note_on_c, 6, 58, 0
12, 561299, Note_on_c, 6, 70, 0
12, 561330, Control_c, 6, 11, 121
12, 561360, Note_on_c, 6, 70, 68
12, 561360, Note_on_c, 6, 58, 68
12, 561420, Control_c, 6, 11, 123
12, 561510, Control_c, 6, 11, 127
12, 561539, Note_on_c, 6, 70, 0
12, 561539, Note_on_c, 6, 58, 0
12, 561600, Note_on_c, 6, 70, 52
12, 561600, Note_on_c, 6, 58, 52
12, 561779, Note_on_c, 6, 70, 0
12, 561779, Note_on_c, 6, 58, 0
12, 561840, Note_on_c, 6, 70, 52
12, 561840, Note_on_c, 6, 58, 52
12, 562019, Note_on_c, 6, 70, 0
12, 562019, Note_on_c, 6, 58, 0
12, 562080, Note_on_c, 6, 58, 52
12, 562080, Note_on_c, 6, 70, 52
12, 562259, Note_on_c, 6, 58, 0
12, 562259, Note_on_c, 6, 70, 0
12, 562320, Note_on_c, 6, 63, 52
12, 562320, Note_on_c, 6, 67, 52
12, 562499, Note_on_c, 6, 63, 0
12, 562499, Note_on_c, 6, 67, 0
12, 573120, Control_c, 6, 11, 80
12, 573600, Note_on_c, 6, 70, 76
12, 573600, Note_on_c, 6, 58, 76
12, 573679, Note_on_c, 6, 70, 0
12, 573679, Note_on_c, 6, 58, 0
12, 573680, Note_on_c, 6, 70, 76
12, 573680, Note_on_c, 6, 58, 76
12, 573759, Note_on_c, 6, 70, 0
12, 573759, Note_on_c, 6, 58, 0
12, 573760, Note_on_c, 6, 70, 76
12, 573760, Note_on_c, 6, 58, 76
12, 573839, Note_on_c, 6, 70, 0
12, 573839, Note_on_c, 6, 58, 0
12, 573840, Control_c, 6, 11, 80
12, 573840, Note_on_c, 6, 58, 76
12, 573840, Note_on_c, 6, 70, 76
12, 574000, Control_c, 6, 11, 81
12, 574079, Note_on_c, 6, 58, 0
12, 574079, Note_on_c, 6, 70, 0
12, 574160, Control_c, 6, 11, 83
12, 574320, Note_on_c, 6, 58, 76
12, 574320, Note_on_c, 6, 70, 76
12, 574320, Control_c, 6, 11, 84
12, 574399, Note_on_c, 6, 58, 0
12, 574399, Note_on_c, 6, 70, 0
12, 574400, Note_on_c, 6, 58, 76
12, 574400, Note_on_c, 6, 70, 76
12, 574479, Note_on_c, 6, 58, 0
12, 574479, Note_on_c, 6, 70, 0
12, 574480, Note_on_c, 6, 58, 76
12, 574480, Note_on_c, 6, 70, 76
12, 574480, Control_c, 6, 11, 85
12, 574559, Note_on_c, 6, 58, 0
12, 574559, Note_on_c, 6, 70, 0
12, 574560, Note_on_c, 6, 58, 76
12, 574560, Note_on_c, 6, 70, 76
12, 574640, Control_c, 6, 11, 87
12, 574799, Note_on_c, 6, 58, 0
12, 574799, Note_on_c, 6, 70, 0
12, 574800, Control_c, 6, 11, 88
12, 574960, Control_c, 6, 11, 89
12, 575040, Note_on_c, 6, 70, 76
12, 575040, Note_on_c, 6, 58, 76
12, 575119, Note_on_c, 6, 70, 0
12, 575119, Note_on_c, 6, 58, 0
12, 575120, Note_on_c, 6, 58, 76
12, 575120, Note_on_c, 6, 70, 76
12, 575120, Control_c, 6, 11, 90
12, 575199, Note_on_c, 6, 58, 0
12, 575199, Note_on_c, 6, 70, 0
12, 575200, Note_on_c, 6, 70, 76
12, 575200, Note_on_c, 6, 58, 76
12, 575279, Note_on_c, 6, 70, 0
12, 575279, Note_on_c, 6, 58, 0
12, 575280, Note_on_c, 6, 58, 76
12, 575280, Note_on_c, 6, 70, 76
12, 575280, Control_c, 6, 11, 92
12, 575440, Control_c, 6, 11, 93
12, 575519, Note_on_c, 6, 58, 0
12, 575519, Note_on_c, 6, 70, 0
12, 575600, Control_c, 6, 11, 94
12, 575760, Note_on_c, 6, 58, 76
12, 575760, Control_c, 6, 11, 96
12, 575760, Note_on_c, 6, 70, 76
12, 575839, Note_on_c, 6, 58, 0
12, 575839, Note_on_c, 6, 70, 0
12, 575840, Note_on_c, 6, 70, 76
12, 575840, Note_on_c, 6, 58, 76
12, 575919, Note_on_c, 6, 70, 0
12, 575919, Note_on_c, 6, 58, 0
12, 575920, Note_on_c, 6, 70, 76
12, 575920, Note_on_c, 6, 58, 76
12, 575920, Control_c, 6, 11, 97
12, 575999, Note_on_c, 6, 70, 0
12, 575999, Note_on_c, 6, 58, 0
12, 576000, Note_on_c, 6, 58, 76
12, 576000, Note_on_c, 6, 70, 76
12, 576080, Control_c, 6, 11, 98
12, 576239, Note_on_c, 6, 58, 0
12, 576239, Note_on_c, 6, 70, 0
12, 576240, Control_c, 6, 11, 100
12, 576400, Control_c, 6, 11, 101
12, 576480, Note_on_c, 6, 70, 76
12, 576480, Note_on_c, 6, 58, 76
12, 576559, Note_on_c, 6, 70, 0
12, 576559, Note_on_c, 6, 58, 0
12, 576560, Note_on_c, 6, 70, 76
12, 576560, Note_on_c, 6, 58, 76
12, 576560, Control_c, 6, 11, 102
12, 576639, Note_on_c, 6, 70, 0
12, 576639, Note_on_c, 6, 58, 0
12, 576640, Note_on_c, 6, 58, 76
12, 576640, Note_on_c, 6, 70, 76
12, 576719, Note_on_c, 6, 58, 0
12, 576719, Note_on_c, 6, 70, 0
12, 576720, Note_on_c, 6, 58, 76
12, 576720, Control_c, 6, 11, 104
12, 576720, Note_on_c, 6, 70, 76
12, 576880, Control_c, 6, 11, 105
12, 576959, Note_on_c, 6, 58, 0
12, 576959, Note_on_c, 6, 70, 0
12, 577040, Control_c, 6, 11, 106
12, 577200, Control_c, 6, 11, 107
12, 577200, Note_on_c, 6, 70, 76
12, 577200, Note_on_c, 6, 58, 76
12, 577279, Note_on_c, 6, 70, 0
12, 577279, Note_on_c, 6, 58, 0
12, 577280, Note_on_c, 6, 70, 76
12, 577280, Note_on_c, 6, 58, 76
12, 577359, Note_on_c, 6, 70, 0
12, 577359, Note_on_c, 6, 58, 0
12, 577360, Note_on_c, 6, 58, 76
12, 577360, Note_on_c, 6, 70, 76
12, 577360, Control_c, 6, 11, 109
12, 577439, Note_on_c, 6, 58, 0
12, 577439, Note_on_c, 6, 70, 0
12, 577440, Note_on_c, 6, 58, 76
12, 577440, Note_on_c, 6, 70, 76
12, 577520, Control_c, 6, 11, 110
12, 577679, Note_on_c, 6, 58, 0
12, 577679, Note_on_c, 6, 70, 0
12, 577680, Control_c, 6, 11, 111
12, 577840, Control_c, 6, 11, 113
12, 577920, Note_on_c, 6, 70, 76
12, 577920, Note_on_c, 6, 58, 76
12, 577999, Note_on_c, 6, 70, 0
12, 577999, Note_on_c, 6, 58, 0
12, 578000, Note_on_c, 6, 70, 76
12, 578000, Control_c, 6, 11, 114
12, 578000, Note_on_c, 6, 58, 76
12, 578079, Note_on_c, 6, 70, 0
12, 578079, Note_on_c, 6, 58, 0
12, 578080, Note_on_c, 6, 70, 76
12, 578080, Note_on_c, 6, 58, 76
12, 578159, Note_on_c, 6, 70, 0
12, 578159, Note_on_c, 6, 58, 0
12, 578160, Note_on_c, 6, 70, 76
12, 578160, Control_c, 6, 11, 115
12, 578160, Note_on_c, 6, 58, 76
12, 578320, Control_c, 6, 11, 117
12, 578399, Note_on_c, 6, 70, 0
12, 578399, Note_on_c, 6, 58, 0
12, 578480, Control_c, 6, 11, 118
12, 578640, Note_on_c, 6, 58, 76
12, 578640, Control_c, 6, 11, 119
12, 578640, Note_on_c, 6, 70, 76
12, 578719, Note_on_c, 6, 58, 0
12, 578719, Note_on_c, 6, 70, 0
12, 578720, Note_on_c, 6, 70, 76
12, 578720, Note_on_c, 6, 58, 76
12, 578799, Note_on_c, 6, 70, 0
12, 578799, Note_on_c, 6, 58, 0
12, 578800, Control_c, 6, 11, 120
12, 578800, Note_on_c, 6, 70, 76
12, 578800, Note_on_c, 6, 58, 76
12, 578879, Note_on_c, 6, 70, 0
12, 578879, Note_on_c, 6, 58, 0
12, 578880, Note_on_c, 6, 58, 76
12, 578880, Note_on_c, 6, 70, 76
12, 578960, Control_c, 6, 11, 122
12, 579119, Note_on_c, 6, 58, 0
12, 579119, Note_on_c, 6, 70, 0
12, 579120, Control_c, 6, 11, 123
12, 579280, Control_c, 6, 11, 124
12, 579360, Note_on_c, 6, 58, 76
12, 579360, Note_on_c, 6, 70, 76
12, 579439, Note_on_c, 6, 58, 0
12, 579439, Note_on_c, 6, 70, 0
12, 579440, Note_on_c, 6, 70, 76
12, 579440, Note_on_c, 6, 58, 76
12, 579440, Control_c, 6, 11, 127
12, 579519, Note_on_c, 6, 70, 0
12, 579519, Note_on_c, 6, 58, 0
12, 579520, Note_on_c, 6, 70, 76
12, 579520, Note_on_c, 6, 58, 76
12, 579599, Note_on_c, 6, 70, 0
12, 579599, Note_on_c, 6, 58, 0
12, 579600, Note_on_c, 6, 75, 76
12, 579600, Note_on_c, 6, 63, 76
12, 580064, Note_on_c, 6, 75, 0
12, 580064, Note_on_c, 6, 63, 0
12, 580080, Note_on_c, 6, 67, 76
12, 580080, Note_on_c, 6, 79, 76
12, 580304, Note_on_c, 6, 67, 0
12, 580304, Note_on_c, 6, 79, 0
12, 580320, Note_on_c, 6, 75, 76
12, 580320, Note_on_c, 6, 63, 76
12, 580784, Note_on_c, 6, 75, 0
12, 580784, Note_on_c, 6, 63, 0
12, 580800, Note_on_c, 6, 58, 76
12, 580800, Note_on_c, 6, 70, 76
12, 581024, Note_on_c, 6, 58, 0
12, 581024, Note_on_c, 6, 70, 0
12, 581040, Note_on_c, 6, 63, 76
12, 581040, Note_on_c, 6, 75, 76
12, 581264, Note_on_c, 6, 63, 0
12, 581264, Note_on_c, 6, 75, 0
12, 581280, Note_on_c, 6, 67, 76
12, 581280, Note_on_c, 6, 79, 76
12, 581504, Note_on_c, 6, 67, 0
12, 581504, Note_on_c, 6, 79, 0
12, 581520, Note_on_c, 6, 70, 76
12, 581520, Note_on_c, 6, 58, 76
12, 581744, Note_on_c, 6, 70, 0
12, 581744, Note_on_c, 6, 58, 0
12, 581760, Note_on_c, 6, 58, 76
12, 581760, Note_on_c, 6, 70, 76
12, 581864, Note_on_c, 6, 58, 0
12, 581864, Note_on_c, 6, 70, 0
12, 581880, Note_on_c, 6, 70, 76
12, 581880, Note_on_c, 6, 58, 76
12, 581984, Note_on_c, 6, 70, 0
12, 581984, Note_on_c, 6, 58, 0
12, 582000, Note_on_c, 6, 70, 76
12, 582000, Note_on_c, 6, 58, 76
12, 582104, Note_on_c, 6, 70, 0
12, 582104, Note_on_c, 6, 58, 0
12, 582120, Note_on_c, 6, 70, 76
12, 582120, Note_on_c, 6, 58, 76
12, 582224, Note_on_c, 6, 70, 0
12, 582224, Note_on_c, 6, 58, 0
12, 582240, Note_on_c, 6, 70, 76
12, 582240, Note_on_c, 6, 58, 76
12, 582344, Note_on_c, 6, 70, 0
12, 582344, Note_on_c, 6, 58, 0
12, 582360, Note_on_c, 6, 70, 76
12, 582360, Note_on_c, 6, 58, 76
12, 582464, Note_on_c, 6, 70, 0
12, 582464, Note_on_c, 6, 58, 0
12, 582480, Note_on_c, 6, 58, 76
12, 582480, Note_on_c, 6, 70, 76
12, 582584, Note_on_c, 6, 58, 0
12, 582584, Note_on_c, 6, 70, 0
12, 582600, Note_on_c, 6, 58, 76
12, 582600, Note_on_c, 6, 70, 76
12, 582704, Note_on_c, 6, 58, 0
12, 582704, Note_on_c, 6, 70, 0
12, 582720, Note_on_c, 6, 70, 76
12, 582720, Note_on_c, 6, 58, 76
12, 582824, Note_on_c, 6, 70, 0
12, 582824, Note_on_c, 6, 58, 0
12, 582840, Note_on_c, 6, 58, 76
12, 582840, Note_on_c, 6, 70, 76
12, 582944, Note_on_c, 6, 58, 0
12, 582944, Note_on_c, 6, 70, 0
12, 582960, Note_on_c, 6, 70, 76
12, 582960, Note_on_c, 6, 58, 76
12, 583064, Note_on_c, 6, 70, 0
12, 583064, Note_on_c, 6, 58, 0
12, 583080, Note_on_c, 6, 70, 76
12, 583080, Note_on_c, 6, 58, 76
12, 583184, Note_on_c, 6, 70, 0
12, 583184, Note_on_c, 6, 58, 0
12, 583200, Note_on_c, 6, 58, 76
12, 583200, Note_on_c, 6, 70, 76
12, 583304, Note_on_c, 6, 58, 0
12, 583304, Note_on_c, 6, 70, 0
12, 583320, Note_on_c, 6, 70, 76
12, 583320, Note_on_c, 6, 58, 76
12, 583424, Note_on_c, 6, 70, 0
12, 583424, Note_on_c, 6, 58, 0
12, 583440, Note_on_c, 6, 70, 76
12, 583440, Note_on_c, 6, 58, 76
12, 583544, Note_on_c, 6, 70, 0
12, 583544, Note_on_c, 6, 58, 0
12, 583560, Note_on_c, 6, 58, 76
12, 583560, Note_on_c, 6, 70, 76
12, 583664, Note_on_c, 6, 58, 0
12, 583664, Note_on_c, 6, 70, 0
12, 583680, Note_on_c, 6, 58, 76
12, 583680, Note_on_c, 6, 70, 76
12, 583784, Note_on_c, 6, 58, 0
12, 583784, Note_on_c, 6, 70, 0
12, 583800, Note_on_c, 6, 58, 76
12, 583800, Note_on_c, 6, 70, 76
12, 583904, Note_on_c, 6, 58, 0
12, 583904, Note_on_c, 6, 70, 0
12, 583920, Note_on_c, 6, 70, 76
12, 583920, Note_on_c, 6, 58, 76
12, 584024, Note_on_c, 6, 70, 0
12, 584024, Note_on_c, 6, 58, 0
12, 584040, Note_on_c, 6, 70, 76
12, 584040, Note_on_c, 6, 58, 76
12, 584144, Note_on_c, 6, 70, 0
12, 584144, Note_on_c, 6, 58, 0
12, 584160, Note_on_c, 6, 70, 76
12, 584160, Note_on_c, 6, 58, 76
12, 584264, Note_on_c, 6, 70, 0
12, 584264, Note_on_c, 6, 58, 0
12, 584280, Note_on_c, 6, 70, 76
12, 584280, Note_on_c, 6, 58, 76
12, 584384, Note_on_c, 6, 70, 0
12, 584384, Note_on_c, 6, 58, 0
12, 584400, Note_on_c, 6, 70, 76
12, 584400, Note_on_c, 6, 58, 76
12, 584504, Note_on_c, 6, 70, 0
12, 584504, Note_on_c, 6, 58, 0
12, 584520, Note_on_c, 6, 58, 76
12, 584520, Note_on_c, 6, 70, 76
12, 584624, Note_on_c, 6, 58, 0
12, 584624, Note_on_c, 6, 70, 0
12, 584640, Note_on_c, 6, 58, 76
12, 584640, Note_on_c, 6, 70, 76
12, 584744, Note_on_c, 6, 58, 0
12, 584744, Note_on_c, 6, 70, 0
12, 584760, Note_on_c, 6, 70, 76
12, 584760, Note_on_c, 6, 58, 76
12, 584864, Note_on_c, 6, 70, 0
12, 584864, Note_on_c, 6, 58, 0
12, 584880, Note_on_c, 6, 70, 76
12, 584880, Note_on_c, 6, 58, 76
12, 584984, Note_on_c, 6, 70, 0
12, 584984, Note_on_c, 6, 58, 0
12, 585000, Note_on_c, 6, 70, 76
12, 585000, Note_on_c, 6, 58, 76
12, 585104, Note_on_c, 6, 70, 0
12, 585104, Note_on_c, 6, 58, 0
12, 585120, Note_on_c, 6, 70, 76
12, 585120, Note_on_c, 6, 58, 76
12, 585224, Note_on_c, 6, 70, 0
12, 585224, Note_on_c, 6, 58, 0
12, 585240, Note_on_c, 6, 70, 76
12, 585240, Note_on_c, 6, 58, 76
12, 585344, Note_on_c, 6, 70, 0
12, 585344, Note_on_c, 6, 58, 0
12, 585360, Note_on_c, 6, 70, 76
12, 585360, Note_on_c, 6, 58, 76
12, 585584, Note_on_c, 6, 70, 0
12, 585584, Note_on_c, 6, 58, 0
12, 585600, Note_on_c, 6, 73, 76
12, 585824, Note_on_c, 6, 73, 0
12, 585840, Note_on_c, 6, 73, 76
12, 586064, Note_on_c, 6, 73, 0
12, 586080, Note_on_c, 6, 73, 76
12, 586799, Note_on_c, 6, 73, 0
12, 587040, Note_on_c, 6, 75, 84
12, 587040, Note_on_c, 6, 63, 84
12, 587144, Note_on_c, 6, 75, 0
12, 587144, Note_on_c, 6, 63, 0
12, 587160, Note_on_c, 6, 75, 76
12, 587160, Note_on_c, 6, 63, 76
12, 587264, Note_on_c, 6, 75, 0
12, 587264, Note_on_c, 6, 63, 0
12, 587280, Note_on_c, 6, 75, 76
12, 587280, Note_on_c, 6, 63, 76
12, 587519, Note_on_c, 6, 75, 0
12, 587519, Note_on_c, 6, 63, 0
12, 587760, Note_on_c, 6, 75, 84
12, 587760, Note_on_c, 6, 63, 84
12, 587864, Note_on_c, 6, 75, 0
12, 587864, Note_on_c, 6, 63, 0
12, 587880, Note_on_c, 6, 75, 76
12, 587880, Note_on_c, 6, 63, 76
12, 587984, Note_on_c, 6, 75, 0
12, 587984, Note_on_c, 6, 63, 0
12, 588000, Note_on_c, 6, 75, 76
12, 588000, Note_on_c, 6, 63, 76
12, 588239, Note_on_c, 6, 75, 0
12, 588239, Note_on_c, 6, 63, 0
12, 588480, Note_on_c, 6, 75, 84
12, 588480, Note_on_c, 6, 63, 84
12, 588584, Note_on_c, 6, 75, 0
12, 588584, Note_on_c, 6, 63, 0
12, 588600, Note_on_c, 6, 75, 76
12, 588600, Note_on_c, 6, 63, 76
12, 588704, Note_on_c, 6, 75, 0
12, 588704, Note_on_c, 6, 63, 0
12, 588720, Note_on_c, 6, 75, 76
12, 588720, Note_on_c, 6, 63, 76
12, 588959, Note_on_c, 6, 75, 0
12, 588959, Note_on_c, 6, 63, 0
12, 589200, Note_on_c, 6, 77, 76
12, 589304, Note_on_c, 6, 77, 0
12, 589320, Note_on_c, 6, 77, 76
12, 589424, Note_on_c, 6, 77, 0
12, 589440, Note_on_c, 6, 77, 76
12, 589679, Note_on_c, 6, 77, 0
12, 590640, Note_on_c, 6, 75, 76
12, 590640, Note_on_c, 6, 63, 76
12, 590864, Note_on_c, 6, 75, 0
12, 590864, Note_on_c, 6, 63, 0
12, 590880, Note_on_c, 6, 75, 76
12, 590880, Note_on_c, 6, 63, 76
12, 591104, Note_on_c, 6, 75, 0
12, 591104, Note_on_c, 6, 63, 0
12, 591120, Note_on_c, 6, 75, 84
12, 591120, Note_on_c, 6, 63, 84
12, 591224, Note_on_c, 6, 75, 0
12, 591224, Note_on_c, 6, 63, 0
12, 591240, Note_on_c, 6, 75, 84
12, 591240, Note_on_c, 6, 63, 84
12, 591344, Note_on_c, 6, 75, 0
12, 591344, Note_on_c, 6, 63, 0
12, 591360, Note_on_c, 6, 75, 84
12, 591360, Note_on_c, 6, 63, 84
12, 591464, Note_on_c, 6, 75, 0
12, 591464, Note_on_c, 6, 63, 0
12, 591480, Note_on_c, 6, 75, 84
12, 591480, Note_on_c, 6, 63, 84
12, 591584, Note_on_c, 6, 75, 0
12, 591584, Note_on_c, 6, 63, 0
12, 591600, Note_on_c, 6, 75, 84
12, 591600, Note_on_c, 6, 63, 84
12, 591704, Note_on_c, 6, 75, 0
12, 591704, Note_on_c, 6, 63, 0
12, 591720, Note_on_c, 6, 75, 84
12, 591720, Note_on_c, 6, 63, 84
12, 591824, Note_on_c, 6, 75, 0
12, 591824, Note_on_c, 6, 63, 0
12, 591840, Note_on_c, 6, 70, 84
12, 591840, Note_on_c, 6, 58, 84
12, 591944, Note_on_c, 6, 70, 0
12, 591944, Note_on_c, 6, 58, 0
12, 591960, Note_on_c, 6, 70, 84
12, 591960, Note_on_c, 6, 58, 84
12, 592064, Note_on_c, 6, 70, 0
12, 592064, Note_on_c, 6, 58, 0
12, 592080, Note_on_c, 6, 70, 84
12, 592080, Note_on_c, 6, 58, 84
12, 592184, Note_on_c, 6, 70, 0
12, 592184, Note_on_c, 6, 58, 0
12, 592200, Note_on_c, 6, 70, 84
12, 592200, Note_on_c, 6, 58, 84
12, 592304, Note_on_c, 6, 70, 0
12, 592304, Note_on_c, 6, 58, 0
12, 592320, Note_on_c, 6, 70, 84
12, 592320, Note_on_c, 6, 58, 84
12, 592424, Note_on_c, 6, 70, 0
12, 592424, Note_on_c, 6, 58, 0
12, 592440, Note_on_c, 6, 70, 84
12, 592440, Note_on_c, 6, 58, 84
12, 592544, Note_on_c, 6, 70, 0
12, 592544, Note_on_c, 6, 58, 0
12, 592560, Note_on_c, 6, 75, 52
12, 592560, Note_on_c, 6, 63, 52
12, 592799, Note_on_c, 6, 75, 0
12, 592799, Note_on_c, 6, 63, 0
12, 598560, Note_on_c, 6, 70, 76
12, 598560, Note_on_c, 6, 58, 76
12, 599264, Note_on_c, 6, 70, 0
12, 599264, Note_on_c, 6, 58, 0
12, 599280, Note_on_c, 6, 70, 76
12, 599280, Note_on_c, 6, 58, 76
12, 599984, Note_on_c, 6, 70, 0
12, 599984, Note_on_c, 6, 58, 0
12, 600000, Note_on_c, 6, 77, 76
12, 600000, Note_on_c, 6, 70, 76
12, 600464, Note_on_c, 6, 77, 0
12, 600464, Note_on_c, 6, 70, 0
12, 600480, Note_on_c, 6, 77, 76
12, 600480, Note_on_c, 6, 70, 76
12, 600944, Note_on_c, 6, 77, 0
12, 600944, Note_on_c, 6, 70, 0
12, 600960, Note_on_c, 6, 77, 76
12, 600960, Note_on_c, 6, 70, 76
12, 601139, Note_on_c, 6, 77, 0
12, 601139, Note_on_c, 6, 70, 0
12, 601200, Note_on_c, 6, 77, 76
12, 601200, Note_on_c, 6, 70, 76
12, 601379, Note_on_c, 6, 77, 0
12, 601379, Note_on_c, 6, 70, 0
12, 601440, Note_on_c, 6, 70, 84
12, 601440, Note_on_c, 6, 58, 84
12, 601664, Note_on_c, 6, 70, 0
12, 601664, Note_on_c, 6, 58, 0
12, 601680, Note_on_c, 6, 70, 84
12, 601680, Note_on_c, 6, 58, 84
12, 601904, Note_on_c, 6, 70, 0
12, 601904, Note_on_c, 6, 58, 0
12, 601920, Note_on_c, 6, 70, 84
12, 601920, Note_on_c, 6, 58, 84
12, 602099, Note_on_c, 6, 70, 0
12, 602099, Note_on_c, 6, 58, 0
12, 602160, Note_on_c, 6, 70, 84
12, 602160, Note_on_c, 6, 58, 84
12, 602339, Note_on_c, 6, 70, 0
12, 602339, Note_on_c, 6, 58, 0
12, 602400, Note_on_c, 6, 70, 84
12, 602400, Note_on_c, 6, 58, 84
12, 602579, Note_on_c, 6, 70, 0
12, 602579, Note_on_c, 6, 58, 0
12, 602640, Note_on_c, 6, 70, 84
12, 602640, Note_on_c, 6, 58, 84
12, 602864, Note_on_c, 6, 70, 0
12, 602864, Note_on_c, 6, 58, 0
12, 602880, Note_on_c, 6, 70, 84
12, 602880, Note_on_c, 6, 58, 84
12, 603104, Note_on_c, 6, 70, 0
12, 603104, Note_on_c, 6, 58, 0
12, 603120, Note_on_c, 6, 70, 84
12, 603120, Note_on_c, 6, 58, 84
12, 603344, Note_on_c, 6, 70, 0
12, 603344, Note_on_c, 6, 58, 0
12, 603360, Note_on_c, 6, 70, 84
12, 603360, Note_on_c, 6, 58, 84
12, 603584, Note_on_c, 6, 70, 0
12, 603584, Note_on_c, 6, 58, 0
12, 603600, Note_on_c, 6, 70, 84
12, 603600, Note_on_c, 6, 58, 84
12, 603824, Note_on_c, 6, 70, 0
12, 603824, Note_on_c, 6, 58, 0
12, 603840, Note_on_c, 6, 70, 84
12, 603840, Note_on_c, 6, 58, 84
12, 604064, Note_on_c, 6, 70, 0
12, 604064, Note_on_c, 6, 58, 0
12, 604080, Note_on_c, 6, 67, 84
12, 604080, Note_on_c, 6, 63, 84
12, 604319, Note_on_c, 6, 67, 0
12, 604319, Note_on_c, 6, 63, 0
12, 604800, Note_on_c, 6, 75, 84
12, 604800, Note_on_c, 6, 63, 84
12, 605039, Note_on_c, 6, 75, 0
12, 605039, Note_on_c, 6, 63, 0
12, 605520, Note_on_c, 6, 75, 84
12, 605520, Note_on_c, 6, 63, 84
12, 605759, Note_on_c, 6, 75, 0
12, 605759, Note_on_c, 6, 63, 0
12, 605759, End_track
13, 0, Start_track
13, 0, Title_t, "Timpani"
13, 0, MIDI_port, 0
13, 0, Program_c, 7, 47
13, 0, Control_c, 7, 7, 96
13, 0, Control_c, 7, 10, 25
13, 0, Control_c, 7, 11, 127
13, 0, Note_on_c, 7, 51, 76
13, 179, Note_on_c, 7, 51, 0
13, 720, Note_on_c, 7, 51, 76
13, 899, Note_on_c, 7, 51, 0
13, 25920, Note_on_c, 7, 51, 84
13, 26159, Note_on_c, 7, 51, 0
13, 26640, Note_on_c, 7, 51, 84
13, 26879, Note_on_c, 7, 51, 0
13, 27120, Note_on_c, 7, 46, 84
13, 27359, Note_on_c, 7, 46, 0
13, 27360, Note_on_c, 7, 51, 84
13, 27599, Note_on_c, 7, 51, 0
13, 27600, Note_on_c, 7, 51, 84
13, 27839, Note_on_c, 7, 51, 0
13, 27840, Note_on_c, 7, 51, 84
13, 28079, Note_on_c, 7, 51, 0
13, 28080, Note_on_c, 7, 51, 84
13, 28319, Note_on_c, 7, 51, 0
13, 28560, Note_on_c, 7, 51, 92
13, 28799, Note_on_c, 7, 51, 0
13, 28800, Note_on_c, 7, 51, 84
13, 29039, Note_on_c, 7, 51, 0
13, 29040, Note_on_c, 7, 51, 84
13, 29279, Note_on_c, 7, 51, 0
13, 29280, Note_on_c, 7, 51, 84
13, 29519, Note_on_c, 7, 51, 0
13, 29520, Note_on_c, 7, 51, 84
13, 29759, Note_on_c, 7, 51, 0
13, 30000, Note_on_c, 7, 51, 92
13, 30239, Note_on_c, 7, 51, 0
13, 30240, Note_on_c, 7, 51, 84
13, 30269, Note_on_c, 7, 51, 0
13, 30270, Note_on_c, 7, 51, 84
13, 30299, Note_on_c, 7, 51, 0
13, 30300, Note_on_c, 7, 51, 84
13, 30329, Note_on_c, 7, 51, 0
13, 30330, Note_on_c, 7, 51, 84
13, 30359, Note_on_c, 7, 51, 0
13, 30360, Note_on_c, 7, 51, 84
13, 30389, Note_on_c, 7, 51, 0
13, 30390, Note_on_c, 7, 51, 84
13, 30419, Note_on_c, 7, 51, 0
13, 30420, Note_on_c, 7, 51, 84
13, 30449, Note_on_c, 7, 51, 0
13, 30450, Note_on_c, 7, 51, 84
13, 30479, Note_on_c, 7, 51, 0
13, 30480, Note_on_c, 7, 51, 84
13, 30509, Note_on_c, 7, 51, 0
13, 30510, Note_on_c, 7, 51, 84
13, 30539, Note_on_c, 7, 51, 0
13, 30540, Note_on_c, 7, 51, 84
13, 30569, Note_on_c, 7, 51, 0
13, 30570, Note_on_c, 7, 51, 84
13, 30599, Note_on_c, 7, 51, 0
13, 30600, Note_on_c, 7, 51, 84
13, 30629, Note_on_c, 7, 51, 0
13, 30630, Note_on_c, 7, 51, 84
13, 30659, Note_on_c, 7, 51, 0
13, 30660, Note_on_c, 7, 51, 84
13, 30689, Note_on_c, 7, 51, 0
13, 30690, Note_on_c, 7, 51, 84
13, 30719, Note_on_c, 7, 51, 0
13, 30720, Note_on_c, 7, 51, 84
13, 30749, Note_on_c, 7, 51, 0
13, 30750, Note_on_c, 7, 51, 84
13, 30779, Note_on_c, 7, 51, 0
13, 30780, Note_on_c, 7, 51, 84
13, 30809, Note_on_c, 7, 51, 0
13, 30810, Note_on_c, 7, 51, 84
13, 30839, Note_on_c, 7, 51, 0
13, 30840, Note_on_c, 7, 51, 84
13, 30869, Note_on_c, 7, 51, 0
13, 30870, Note_on_c, 7, 51, 84
13, 30899, Note_on_c, 7, 51, 0
13, 30900, Note_on_c, 7, 51, 84
13, 30929, Note_on_c, 7, 51, 0
13, 30930, Note_on_c, 7, 51, 84
13, 30959, Note_on_c, 7, 51, 0
13, 30960, Note_on_c, 7, 46, 84
13, 30989, Note_on_c, 7, 46, 0
13, 30990, Note_on_c, 7, 46, 84
13, 31019, Note_on_c, 7, 46, 0
13, 31020, Note_on_c, 7, 46, 84
13, 31049, Note_on_c, 7, 46, 0
13, 31050, Note_on_c, 7, 46, 84
13, 31079, Note_on_c, 7, 46, 0
13, 31080, Note_on_c, 7, 46, 84
13, 31109, Note_on_c, 7, 46, 0
13, 31110, Note_on_c, 7, 46, 84
13, 31139, Note_on_c, 7, 46, 0
13, 31140, Note_on_c, 7, 46, 84
13, 31169, Note_on_c, 7, 46, 0
13, 31170, Note_on_c, 7, 46, 84
13, 31199, Note_on_c, 7, 46, 0
13, 31200, Note_on_c, 7, 46, 84
13, 31229, Note_on_c, 7, 46, 0
13, 31230, Note_on_c, 7, 46, 84
13, 31259, Note_on_c, 7, 46, 0
13, 31260, Note_on_c, 7, 46, 84
13, 31289, Note_on_c, 7, 46, 0
13, 31290, Note_on_c, 7, 46, 84
13, 31319, Note_on_c, 7, 46, 0
13, 31320, Note_on_c, 7, 46, 84
13, 31349, Note_on_c, 7, 46, 0
13, 31350, Note_on_c, 7, 46, 84
13, 31379, Note_on_c, 7, 46, 0
13, 31380, Note_on_c, 7, 46, 84
13, 31409, Note_on_c, 7, 46, 0
13, 31410, Note_on_c, 7, 46, 84
13, 31439, Note_on_c, 7, 46, 0
13, 31440, Note_on_c, 7, 46, 84
13, 31469, Note_on_c, 7, 46, 0
13, 31470, Note_on_c, 7, 46, 84
13, 31499, Note_on_c, 7, 46, 0
13, 31500, Note_on_c, 7, 46, 84
13, 31529, Note_on_c, 7, 46, 0
13, 31530, Note_on_c, 7, 46, 84
13, 31559, Note_on_c, 7, 46, 0
13, 31560, Note_on_c, 7, 46, 84
13, 31589, Note_on_c, 7, 46, 0
13, 31590, Note_on_c, 7, 46, 84
13, 31619, Note_on_c, 7, 46, 0
13, 31620, Note_on_c, 7, 46, 84
13, 31649, Note_on_c, 7, 46, 0
13, 31650, Note_on_c, 7, 46, 84
13, 31679, Note_on_c, 7, 46, 0
13, 46080, Note_on_c, 7, 51, 76
13, 46259, Note_on_c, 7, 51, 0
13, 46320, Note_on_c, 7, 51, 76
13, 46499, Note_on_c, 7, 51, 0
13, 47400, Note_on_c, 7, 51, 76
13, 47489, Note_on_c, 7, 51, 0
13, 47520, Note_on_c, 7, 46, 76
13, 47699, Note_on_c, 7, 46, 0
13, 47760, Note_on_c, 7, 46, 76
13, 47939, Note_on_c, 7, 46, 0
13, 52080, Note_on_c, 7, 46, 76
13, 52319, Note_on_c, 7, 46, 0
13, 52320, Note_on_c, 7, 46, 76
13, 52559, Note_on_c, 7, 46, 0
13, 52560, Note_on_c, 7, 46, 76
13, 52799, Note_on_c, 7, 46, 0
13, 52800, Note_on_c, 7, 46, 76
13, 53039, Note_on_c, 7, 46, 0
13, 53040, Note_on_c, 7, 46, 76
13, 53279, Note_on_c, 7, 46, 0
13, 53280, Note_on_c, 7, 46, 76
13, 53519, Note_on_c, 7, 46, 0
13, 54000, Note_on_c, 7, 51, 76
13, 54239, Note_on_c, 7, 51, 0
13, 77760, Note_on_c, 7, 46, 76
13, 77999, Note_on_c, 7, 46, 0
13, 78480, Note_on_c, 7, 46, 76
13, 78719, Note_on_c, 7, 46, 0
13, 79200, Note_on_c, 7, 51, 76
13, 79439, Note_on_c, 7, 51, 0
13, 79920, Note_on_c, 7, 51, 76
13, 80159, Note_on_c, 7, 51, 0
13, 80640, Note_on_c, 7, 46, 84
13, 80879, Note_on_c, 7, 46, 0
13, 80880, Note_on_c, 7, 46, 84
13, 81119, Note_on_c, 7, 46, 0
13, 81600, Note_on_c, 7, 46, 84
13, 81839, Note_on_c, 7, 46, 0
13, 82320, Note_on_c, 7, 51, 84
13, 82559, Note_on_c, 7, 51, 0
13, 83040, Note_on_c, 7, 51, 84
13, 83279, Note_on_c, 7, 51, 0
13, 83520, Note_on_c, 7, 46, 84
13, 83759, Note_on_c, 7, 46, 0
13, 83760, Note_on_c, 7, 46, 84
13, 83999, Note_on_c, 7, 46, 0
13, 84000, Note_on_c, 7, 46, 84
13, 84239, Note_on_c, 7, 46, 0
13, 84240, Note_on_c, 7, 46, 84
13, 84359, Note_on_c, 7, 46, 0
13, 89040, Note_on_c, 7, 51, 84
13, 89219, Note_on_c, 7, 51, 0
13, 90480, Note_on_c, 7, 46, 84
13, 90659, Note_on_c, 7, 46, 0
13, 91200, Note_on_c, 7, 51, 84
13, 91379, Note_on_c, 7, 51, 0
13, 91680, Note_on_c, 7, 46, 92
13, 91859, Note_on_c, 7, 46, 0
13, 92160, Note_on_c, 7, 46, 92
13, 92339, Note_on_c, 7, 46, 0
13, 92640, Note_on_c, 7, 46, 92
13, 92819, Note_on_c, 7, 46, 0
13, 93120, Note_on_c, 7, 46, 92
13, 93299, Note_on_c, 7, 46, 0
13, 93600, Note_on_c, 7, 46, 92
13, 93779, Note_on_c, 7, 46, 0
13, 94080, Note_on_c, 7, 46, 92
13, 94259, Note_on_c, 7, 46, 0
13, 102960, Note_on_c, 7, 46, 76
13, 103139, Note_on_c, 7, 46, 0
13, 103680, Note_on_c, 7, 46, 76
13, 103859, Note_on_c, 7, 46, 0
13, 104400, Note_on_c, 7, 46, 76
13, 104579, Note_on_c, 7, 46, 0
13, 105120, Note_on_c, 7, 46, 76
13, 105299, Note_on_c, 7, 46, 0
13, 105360, Note_on_c, 7, 46, 76
13, 105539, Note_on_c, 7, 46, 0
13, 105600, Note_on_c, 7, 46, 76
13, 105779, Note_on_c, 7, 46, 0
13, 105840, Note_on_c, 7, 46, 76
13, 106079, Note_on_c, 7, 46, 0
13, 134640, Note_on_c, 7, 51, 84
13, 134879, Note_on_c, 7, 51, 0
13, 135360, Note_on_c, 7, 51, 84
13, 135599, Note_on_c, 7, 51, 0
13, 135840, Note_on_c, 7, 46, 84
13, 136079, Note_on_c, 7, 46, 0
13, 136080, Note_on_c, 7, 51, 84
13, 136319, Note_on_c, 7, 51, 0
13, 136320, Note_on_c, 7, 51, 84
13, 136559, Note_on_c, 7, 51, 0
13, 136560, Note_on_c, 7, 51, 84
13, 136799, Note_on_c, 7, 51, 0
13, 136800, Note_on_c, 7, 51, 84
13, 137039, Note_on_c, 7, 51, 0
13, 137280, Note_on_c, 7, 51, 92
13, 137519, Note_on_c, 7, 51, 0
13, 137520, Note_on_c, 7, 51, 84
13, 137759, Note_on_c, 7, 51, 0
13, 137760, Note_on_c, 7, 51, 84
13, 137999, Note_on_c, 7, 51, 0
13, 138000, Note_on_c, 7, 51, 84
13, 138239, Note_on_c, 7, 51, 0
13, 138240, Note_on_c, 7, 51, 84
13, 138479, Note_on_c, 7, 51, 0
13, 138720, Note_on_c, 7, 51, 92
13, 138959, Note_on_c, 7, 51, 0
13, 138960, Note_on_c, 7, 51, 84
13, 138989, Note_on_c, 7, 51, 0
13, 138990, Note_on_c, 7, 51, 84
13, 139019, Note_on_c, 7, 51, 0
13, 139020, Note_on_c, 7, 51, 84
13, 139049, Note_on_c, 7, 51, 0
13, 139050, Note_on_c, 7, 51, 84
13, 139079, Note_on_c, 7, 51, 0
13, 139080, Note_on_c, 7, 51, 84
13, 139109, Note_on_c, 7, 51, 0
13, 139110, Note_on_c, 7, 51, 84
13, 139139, Note_on_c, 7, 51, 0
13, 139140, Note_on_c, 7, 51, 84
13, 139169, Note_on_c, 7, 51, 0
13, 139170, Note_on_c, 7, 51, 84
13, 139199, Note_on_c, 7, 51, 0
13, 139200, Note_on_c, 7, 51, 84
13, 139229, Note_on_c, 7, 51, 0
13, 139230, Note_on_c, 7, 51, 84
13, 139259, Note_on_c, 7, 51, 0
13, 139260, Note_on_c, 7, 51, 84
13, 139289, Note_on_c, 7, 51, 0
13, 139290, Note_on_c, 7, 51, 84
13, 139319, Note_on_c, 7, 51, 0
13, 139320, Note_on_c, 7, 51, 84
13, 139349, Note_on_c, 7, 51, 0
13, 139350, Note_on_c, 7, 51, 84
13, 139379, Note_on_c, 7, 51, 0
13, 139380, Note_on_c, 7, 51, 84
13, 139409, Note_on_c, 7, 51, 0
13, 139410, Note_on_c, 7, 51, 84
13, 139439, Note_on_c, 7, 51, 0
13, 139440, Note_on_c, 7, 51, 84
13, 139469, Note_on_c, 7, 51, 0
13, 139470, Note_on_c, 7, 51, 84
13, 139499, Note_on_c, 7, 51, 0
13, 139500, Note_on_c, 7, 51, 84
13, 139529, Note_on_c, 7, 51, 0
13, 139530, Note_on_c, 7, 51, 84
13, 139559, Note_on_c, 7, 51, 0
13, 139560, Note_on_c, 7, 51, 84
13, 139589, Note_on_c, 7, 51, 0
13, 139590, Note_on_c, 7, 51, 84
13, 139619, Note_on_c, 7, 51, 0
13, 139620, Note_on_c, 7, 51, 84
13, 139649, Note_on_c, 7, 51, 0
13, 139650, Note_on_c, 7, 51, 84
13, 139679, Note_on_c, 7, 51, 0
13, 139680, Note_on_c, 7, 46, 84
13, 139709, Note_on_c, 7, 46, 0
13, 139710, Note_on_c, 7, 46, 84
13, 139739, Note_on_c, 7, 46, 0
13, 139740, Note_on_c, 7, 46, 84
13, 139769, Note_on_c, 7, 46, 0
13, 139770, Note_on_c, 7, 46, 84
13, 139799, Note_on_c, 7, 46, 0
13, 139800, Note_on_c, 7, 46, 84
13, 139829, Note_on_c, 7, 46, 0
13, 139830, Note_on_c, 7, 46, 84
13, 139859, Note_on_c, 7, 46, 0
13, 139860, Note_on_c, 7, 46, 84
13, 139889, Note_on_c, 7, 46, 0
13, 139890, Note_on_c, 7, 46, 84
13, 139919, Note_on_c, 7, 46, 0
13, 139920, Note_on_c, 7, 46, 84
13, 139949, Note_on_c, 7, 46, 0
13, 139950, Note_on_c, 7, 46, 84
13, 139979, Note_on_c, 7, 46, 0
13, 139980, Note_on_c, 7, 46, 84
13, 140009, Note_on_c, 7, 46, 0
13, 140010, Note_on_c, 7, 46, 84
13, 140039, Note_on_c, 7, 46, 0
13, 140040, Note_on_c, 7, 46, 84
13, 140069, Note_on_c, 7, 46, 0
13, 140070, Note_on_c, 7, 46, 84
13, 140099, Note_on_c, 7, 46, 0
13, 140100, Note_on_c, 7, 46, 84
13, 140129, Note_on_c, 7, 46, 0
13, 140130, Note_on_c, 7, 46, 84
13, 140159, Note_on_c, 7, 46, 0
13, 140160, Note_on_c, 7, 46, 84
13, 140189, Note_on_c, 7, 46, 0
13, 140190, Note_on_c, 7, 46, 84
13, 140219, Note_on_c, 7, 46, 0
13, 140220, Note_on_c, 7, 46, 84
13, 140249, Note_on_c, 7, 46, 0
13, 140250, Note_on_c, 7, 46, 84
13, 140279, Note_on_c, 7, 46, 0
13, 140280, Note_on_c, 7, 46, 84
13, 140309, Note_on_c, 7, 46, 0
13, 140310, Note_on_c, 7, 46, 84
13, 140339, Note_on_c, 7, 46, 0
13, 140340, Note_on_c, 7, 46, 84
13, 140369, Note_on_c, 7, 46, 0
13, 140370, Note_on_c, 7, 46, 84
13, 140399, Note_on_c, 7, 46, 0
13, 154800, Note_on_c, 7, 51, 76
13, 154979, Note_on_c, 7, 51, 0
13, 155040, Note_on_c, 7, 51, 76
13, 155219, Note_on_c, 7, 51, 0
13, 156120, Note_on_c, 7, 51, 76
13, 156209, Note_on_c, 7, 51, 0
13, 156240, Note_on_c, 7, 46, 76
13, 156419, Note_on_c, 7, 46, 0
13, 156480, Note_on_c, 7, 46, 76
13, 156659, Note_on_c, 7, 46, 0
13, 160800, Note_on_c, 7, 46, 76
13, 161039, Note_on_c, 7, 46, 0
13, 161040, Note_on_c, 7, 46, 76
13, 161279, Note_on_c, 7, 46, 0
13, 161280, Note_on_c, 7, 46, 76
13, 161519, Note_on_c, 7, 46, 0
13, 161520, Note_on_c, 7, 46, 76
13, 161759, Note_on_c, 7, 46, 0
13, 161760, Note_on_c, 7, 46, 76
13, 161999, Note_on_c, 7, 46, 0
13, 162000, Note_on_c, 7, 46, 76
13, 162239, Note_on_c, 7, 46, 0
13, 162720, Note_on_c, 7, 51, 76
13, 162959, Note_on_c, 7, 51, 0
13, 186480, Note_on_c, 7, 46, 76
13, 186719, Note_on_c, 7, 46, 0
13, 187200, Note_on_c, 7, 46, 76
13, 187439, Note_on_c, 7, 46, 0
13, 187920, Note_on_c, 7, 51, 76
13, 188159, Note_on_c, 7, 51, 0
13, 188640, Note_on_c, 7, 51, 76
13, 188879, Note_on_c, 7, 51, 0
13, 189360, Note_on_c, 7, 46, 84
13, 189599, Note_on_c, 7, 46, 0
13, 189600, Note_on_c, 7, 46, 84
13, 189839, Note_on_c, 7, 46, 0
13, 190320, Note_on_c, 7, 46, 84
13, 190559, Note_on_c, 7, 46, 0
13, 191040, Note_on_c, 7, 51, 84
13, 191279, Note_on_c, 7, 51, 0
13, 191760, Note_on_c, 7, 51, 84
13, 191999, Note_on_c, 7, 51, 0
13, 192240, Note_on_c, 7, 46, 84
13, 192479, Note_on_c, 7, 46, 0
13, 192480, Note_on_c, 7, 46, 84
13, 192719, Note_on_c, 7, 46, 0
13, 192720, Note_on_c, 7, 46, 84
13, 192959, Note_on_c, 7, 46, 0
13, 192960, Note_on_c, 7, 46, 84
13, 193079, Note_on_c, 7, 46, 0
13, 197760, Note_on_c, 7, 51, 84
13, 197939, Note_on_c, 7, 51, 0
13, 199200, Note_on_c, 7, 46, 84
13, 199379, Note_on_c, 7, 46, 0
13, 199920, Note_on_c, 7, 51, 84
13, 200099, Note_on_c, 7, 51, 0
13, 200400, Note_on_c, 7, 46, 92
13, 200579, Note_on_c, 7, 46, 0
13, 200880, Note_on_c, 7, 46, 92
13, 201059, Note_on_c, 7, 46, 0
13, 201360, Note_on_c, 7, 46, 92
13, 201539, Note_on_c, 7, 46, 0
13, 201840, Note_on_c, 7, 46, 92
13, 202019, Note_on_c, 7, 46, 0
13, 202320, Note_on_c, 7, 46, 92
13, 202499, Note_on_c, 7, 46, 0
13, 202800, Note_on_c, 7, 46, 92
13, 202979, Note_on_c, 7, 46, 0
13, 211680, Note_on_c, 7, 46, 76
13, 211859, Note_on_c, 7, 46, 0
13, 212400, Note_on_c, 7, 46, 76
13, 212579, Note_on_c, 7, 46, 0
13, 213120, Note_on_c, 7, 46, 76
13, 213299, Note_on_c, 7, 46, 0
13, 213840, Note_on_c, 7, 46, 76
13, 214019, Note_on_c, 7, 46, 0
13, 214080, Note_on_c, 7, 46, 76
13, 214259, Note_on_c, 7, 46, 0
13, 214320, Note_on_c, 7, 46, 76
13, 214499, Note_on_c, 7, 46, 0
13, 214560, Note_on_c, 7, 46, 76
13, 214799, Note_on_c, 7, 46, 0
13, 250560, Note_on_c, 7, 46, 84
13, 250739, Note_on_c, 7, 46, 0
13, 251280, Note_on_c, 7, 46, 84
13, 251459, Note_on_c, 7, 46, 0
13, 252000, Note_on_c, 7, 46, 84
13, 252179, Note_on_c, 7, 46, 0
13, 252720, Note_on_c, 7, 46, 84
13, 252899, Note_on_c, 7, 46, 0
13, 295440, Note_on_c, 7, 51, 92
13, 295469, Note_on_c, 7, 51, 0
13, 295470, Note_on_c, 7, 51, 84
13, 295499, Note_on_c, 7, 51, 0
13, 295500, Note_on_c, 7, 51, 84
13, 295529, Note_on_c, 7, 51, 0
13, 295530, Note_on_c, 7, 51, 84
13, 295559, Note_on_c, 7, 51, 0
13, 295560, Note_on_c, 7, 51, 84
13, 295589, Note_on_c, 7, 51, 0
13, 295590, Note_on_c, 7, 51, 84
13, 295619, Note_on_c, 7, 51, 0
13, 295620, Note_on_c, 7, 51, 84
13, 295649, Note_on_c, 7, 51, 0
13, 295650, Note_on_c, 7, 51, 84
13, 295679, Note_on_c, 7, 51, 0
13, 295680, Note_on_c, 7, 51, 84
13, 295709, Note_on_c, 7, 51, 0
13, 295710, Note_on_c, 7, 51, 84
13, 295739, Note_on_c, 7, 51, 0
13, 295740, Note_on_c, 7, 51, 84
13, 295769, Note_on_c, 7, 51, 0
13, 295770, Note_on_c, 7, 51, 84
13, 295799, Note_on_c, 7, 51, 0
13, 295800, Note_on_c, 7, 51, 84
13, 295829, Note_on_c, 7, 51, 0
13, 295830, Note_on_c, 7, 51, 84
13, 295859, Note_on_c, 7, 51, 0
13, 295860, Note_on_c, 7, 51, 84
13, 295889, Note_on_c, 7, 51, 0
13, 295890, Note_on_c, 7, 51, 84
13, 295919, Note_on_c, 7, 51, 0
13, 295920, Note_on_c, 7, 51, 84
13, 295949, Note_on_c, 7, 51, 0
13, 295950, Note_on_c, 7, 51, 84
13, 295979, Note_on_c, 7, 51, 0
13, 295980, Note_on_c, 7, 51, 84
13, 296009, Note_on_c, 7, 51, 0
13, 296010, Note_on_c, 7, 51, 84
13, 296039, Note_on_c, 7, 51, 0
13, 296040, Note_on_c, 7, 51, 84
13, 296069, Note_on_c, 7, 51, 0
13, 296070, Note_on_c, 7, 51, 84
13, 296099, Note_on_c, 7, 51, 0
13, 296100, Note_on_c, 7, 51, 84
13, 296129, Note_on_c, 7, 51, 0
13, 296130, Note_on_c, 7, 51, 84
13, 296159, Note_on_c, 7, 51, 0
13, 296160, Note_on_c, 7, 51, 84
13, 296189, Note_on_c, 7, 51, 0
13, 296190, Note_on_c, 7, 51, 84
13, 296219, Note_on_c, 7, 51, 0
13, 296220, Note_on_c, 7, 51, 84
13, 296249, Note_on_c, 7, 51, 0
13, 296250, Note_on_c, 7, 51, 84
13, 296279, Note_on_c, 7, 51, 0
13, 296280, Note_on_c, 7, 51, 84
13, 296309, Note_on_c, 7, 51, 0
13, 296310, Note_on_c, 7, 51, 84
13, 296339, Note_on_c, 7, 51, 0
13, 296340, Note_on_c, 7, 51, 84
13, 296369, Note_on_c, 7, 51, 0
13, 296370, Note_on_c, 7, 51, 84
13, 296399, Note_on_c, 7, 51, 0
13, 296400, Note_on_c, 7, 51, 84
13, 296429, Note_on_c, 7, 51, 0
13, 296430, Note_on_c, 7, 51, 84
13, 296459, Note_on_c, 7, 51, 0
13, 296460, Note_on_c, 7, 51, 84
13, 296489, Note_on_c, 7, 51, 0
13, 296490, Note_on_c, 7, 51, 84
13, 296519, Note_on_c, 7, 51, 0
13, 296520, Note_on_c, 7, 51, 84
13, 296549, Note_on_c, 7, 51, 0
13, 296550, Note_on_c, 7, 51, 84
13, 296579, Note_on_c, 7, 51, 0
13, 296580, Note_on_c, 7, 51, 84
13, 296609, Note_on_c, 7, 51, 0
13, 296610, Note_on_c, 7, 51, 84
13, 296639, Note_on_c, 7, 51, 0
13, 296640, Note_on_c, 7, 51, 84
13, 296879, Note_on_c, 7, 51, 0
13, 296880, Note_on_c, 7, 51, 92
13, 297119, Note_on_c, 7, 51, 0
13, 297360, Note_on_c, 7, 51, 92
13, 297599, Note_on_c, 7, 51, 0
13, 297840, Note_on_c, 7, 51, 92
13, 297869, Note_on_c, 7, 51, 0
13, 297870, Note_on_c, 7, 51, 84
13, 297899, Note_on_c, 7, 51, 0
13, 297900, Note_on_c, 7, 51, 84
13, 297929, Note_on_c, 7, 51, 0
13, 297930, Note_on_c, 7, 51, 84
13, 297959, Note_on_c, 7, 51, 0
13, 297960, Note_on_c, 7, 51, 84
13, 297989, Note_on_c, 7, 51, 0
13, 297990, Note_on_c, 7, 51, 84
13, 298019, Note_on_c, 7, 51, 0
13, 298020, Note_on_c, 7, 51, 84
13, 298049, Note_on_c, 7, 51, 0
13, 298050, Note_on_c, 7, 51, 84
13, 298079, Note_on_c, 7, 51, 0
13, 298080, Note_on_c, 7, 51, 84
13, 298109, Note_on_c, 7, 51, 0
13, 298110, Note_on_c, 7, 51, 84
13, 298139, Note_on_c, 7, 51, 0
13, 298140, Note_on_c, 7, 51, 84
13, 298169, Note_on_c, 7, 51, 0
13, 298170, Note_on_c, 7, 51, 84
13, 298199, Note_on_c, 7, 51, 0
13, 298200, Note_on_c, 7, 51, 84
13, 298229, Note_on_c, 7, 51, 0
13, 298230, Note_on_c, 7, 51, 84
13, 298259, Note_on_c, 7, 51, 0
13, 298260, Note_on_c, 7, 51, 84
13, 298289, Note_on_c, 7, 51, 0
13, 298290, Note_on_c, 7, 51, 84
13, 298319, Note_on_c, 7, 51, 0
13, 298320, Note_on_c, 7, 51, 92
13, 298559, Note_on_c, 7, 51, 0
13, 298800, Note_on_c, 7, 51, 92
13, 299039, Note_on_c, 7, 51, 0
13, 299280, Note_on_c, 7, 51, 92
13, 299519, Note_on_c, 7, 51, 0
13, 299760, Note_on_c, 7, 46, 92
13, 299789, Note_on_c, 7, 46, 0
13, 299790, Note_on_c, 7, 46, 84
13, 299819, Note_on_c, 7, 46, 0
13, 299820, Note_on_c, 7, 46, 84
13, 299849, Note_on_c, 7, 46, 0
13, 299850, Note_on_c, 7, 46, 84
13, 299879, Note_on_c, 7, 46, 0
13, 299880, Note_on_c, 7, 46, 84
13, 299909, Note_on_c, 7, 46, 0
13, 299910, Note_on_c, 7, 46, 84
13, 299939, Note_on_c, 7, 46, 0
13, 299940, Note_on_c, 7, 46, 84
13, 299969, Note_on_c, 7, 46, 0
13, 299970, Note_on_c, 7, 46, 84
13, 299999, Note_on_c, 7, 46, 0
13, 300000, Note_on_c, 7, 46, 84
13, 300029, Note_on_c, 7, 46, 0
13, 300030, Note_on_c, 7, 46, 84
13, 300059, Note_on_c, 7, 46, 0
13, 300060, Note_on_c, 7, 46, 84
13, 300089, Note_on_c, 7, 46, 0
13, 300090, Note_on_c, 7, 46, 84
13, 300119, Note_on_c, 7, 46, 0
13, 300120, Note_on_c, 7, 46, 84
13, 300149, Note_on_c, 7, 46, 0
13, 300150, Note_on_c, 7, 46, 84
13, 300179, Note_on_c, 7, 46, 0
13, 300180, Note_on_c, 7, 46, 84
13, 300209, Note_on_c, 7, 46, 0
13, 300210, Note_on_c, 7, 46, 84
13, 300239, Note_on_c, 7, 46, 0
13, 300240, Note_on_c, 7, 46, 84
13, 300269, Note_on_c, 7, 46, 0
13, 300270, Note_on_c, 7, 46, 84
13, 300299, Note_on_c, 7, 46, 0
13, 300300, Note_on_c, 7, 46, 84
13, 300329, Note_on_c, 7, 46, 0
13, 300330, Note_on_c, 7, 46, 84
13, 300359, Note_on_c, 7, 46, 0
13, 300360, Note_on_c, 7, 46, 84
13, 300389, Note_on_c, 7, 46, 0
13, 300390, Note_on_c, 7, 46, 84
13, 300419, Note_on_c, 7, 46, 0
13, 300420, Note_on_c, 7, 46, 84
13, 300449, Note_on_c, 7, 46, 0
13, 300450, Note_on_c, 7, 46, 84
13, 300479, Note_on_c, 7, 46, 0
13, 300480, Note_on_c, 7, 46, 84
13, 300509, Note_on_c, 7, 46, 0
13, 300510, Note_on_c, 7, 46, 84
13, 300539, Note_on_c, 7, 46, 0
13, 300540, Note_on_c, 7, 46, 84
13, 300569, Note_on_c, 7, 46, 0
13, 300570, Note_on_c, 7, 46, 84
13, 300599, Note_on_c, 7, 46, 0
13, 300600, Note_on_c, 7, 46, 84
13, 300629, Note_on_c, 7, 46, 0
13, 300630, Note_on_c, 7, 46, 84
13, 300659, Note_on_c, 7, 46, 0
13, 300660, Note_on_c, 7, 46, 84
13, 300689, Note_on_c, 7, 46, 0
13, 300690, Note_on_c, 7, 46, 84
13, 300719, Note_on_c, 7, 46, 0
13, 300720, Note_on_c, 7, 46, 84
13, 300749, Note_on_c, 7, 46, 0
13, 300750, Note_on_c, 7, 46, 84
13, 300779, Note_on_c, 7, 46, 0
13, 300780, Note_on_c, 7, 46, 84
13, 300809, Note_on_c, 7, 46, 0
13, 300810, Note_on_c, 7, 46, 84
13, 300839, Note_on_c, 7, 46, 0
13, 300840, Note_on_c, 7, 46, 84
13, 300869, Note_on_c, 7, 46, 0
13, 300870, Note_on_c, 7, 46, 84
13, 300899, Note_on_c, 7, 46, 0
13, 300900, Note_on_c, 7, 46, 84
13, 300929, Note_on_c, 7, 46, 0
13, 300930, Note_on_c, 7, 46, 84
13, 300959, Note_on_c, 7, 46, 0
13, 300960, Note_on_c, 7, 46, 84
13, 301199, Note_on_c, 7, 46, 0
13, 301200, Note_on_c, 7, 46, 92
13, 301439, Note_on_c, 7, 46, 0
13, 301680, Note_on_c, 7, 46, 92
13, 301919, Note_on_c, 7, 46, 0
13, 302160, Note_on_c, 7, 46, 92
13, 302189, Note_on_c, 7, 46, 0
13, 302190, Note_on_c, 7, 46, 84
13, 302219, Note_on_c, 7, 46, 0
13, 302220, Note_on_c, 7, 46, 84
13, 302249, Note_on_c, 7, 46, 0
13, 302250, Note_on_c, 7, 46, 84
13, 302279, Note_on_c, 7, 46, 0
13, 302280, Note_on_c, 7, 46, 84
13, 302309, Note_on_c, 7, 46, 0
13, 302310, Note_on_c, 7, 46, 84
13, 302339, Note_on_c, 7, 46, 0
13, 302340, Note_on_c, 7, 46, 84
13, 302369, Note_on_c, 7, 46, 0
13, 302370, Note_on_c, 7, 46, 84
13, 302399, Note_on_c, 7, 46, 0
13, 302400, Note_on_c, 7, 46, 84
13, 302429, Note_on_c, 7, 46, 0
13, 302430, Note_on_c, 7, 46, 84
13, 302459, Note_on_c, 7, 46, 0
13, 302460, Note_on_c, 7, 46, 84
13, 302489, Note_on_c, 7, 46, 0
13, 302490, Note_on_c, 7, 46, 84
13, 302519, Note_on_c, 7, 46, 0
13, 302520, Note_on_c, 7, 46, 84
13, 302549, Note_on_c, 7, 46, 0
13, 302550, Note_on_c, 7, 46, 84
13, 302579, Note_on_c, 7, 46, 0
13, 302580, Note_on_c, 7, 46, 84
13, 302609, Note_on_c, 7, 46, 0
13, 302610, Note_on_c, 7, 46, 84
13, 302639, Note_on_c, 7, 46, 0
13, 302640, Note_on_c, 7, 46, 92
13, 302879, Note_on_c, 7, 46, 0
13, 303120, Note_on_c, 7, 46, 92
13, 303359, Note_on_c, 7, 46, 0
13, 303600, Note_on_c, 7, 46, 92
13, 303839, Note_on_c, 7, 46, 0
13, 335520, Note_on_c, 7, 46, 76
13, 335759, Note_on_c, 7, 46, 0
13, 335760, Note_on_c, 7, 46, 76
13, 335999, Note_on_c, 7, 46, 0
13, 336000, Note_on_c, 7, 46, 76
13, 336239, Note_on_c, 7, 46, 0
13, 336240, Note_on_c, 7, 46, 76
13, 336479, Note_on_c, 7, 46, 0
13, 336480, Note_on_c, 7, 46, 76
13, 336719, Note_on_c, 7, 46, 0
13, 336720, Note_on_c, 7, 46, 76
13, 336959, Note_on_c, 7, 46, 0
13, 336960, Note_on_c, 7, 46, 76
13, 336989, Note_on_c, 7, 46, 0
13, 336990, Note_on_c, 7, 46, 76
13, 337019, Note_on_c, 7, 46, 0
13, 337020, Note_on_c, 7, 46, 76
13, 337049, Note_on_c, 7, 46, 0
13, 337050, Note_on_c, 7, 46, 76
13, 337079, Note_on_c, 7, 46, 0
13, 337080, Note_on_c, 7, 46, 76
13, 337109, Note_on_c, 7, 46, 0
13, 337110, Note_on_c, 7, 46, 76
13, 337139, Note_on_c, 7, 46, 0
13, 337140, Note_on_c, 7, 46, 76
13, 337169, Note_on_c, 7, 46, 0
13, 337170, Note_on_c, 7, 46, 76
13, 337199, Note_on_c, 7, 46, 0
13, 337200, Note_on_c, 7, 46, 76
13, 337229, Note_on_c, 7, 46, 0
13, 337230, Note_on_c, 7, 46, 76
13, 337259, Note_on_c, 7, 46, 0
13, 337260, Note_on_c, 7, 46, 76
13, 337289, Note_on_c, 7, 46, 0
13, 337290, Note_on_c, 7, 46, 76
13, 337319, Note_on_c, 7, 46, 0
13, 337320, Note_on_c, 7, 46, 76
13, 337349, Note_on_c, 7, 46, 0
13, 337350, Note_on_c, 7, 46, 76
13, 337379, Note_on_c, 7, 46, 0
13, 337380, Note_on_c, 7, 46, 76
13, 337409, Note_on_c, 7, 46, 0
13, 337410, Note_on_c, 7, 46, 76
13, 337439, Note_on_c, 7, 46, 0
13, 337440, Note_on_c, 7, 46, 76
13, 337469, Note_on_c, 7, 46, 0
13, 337470, Note_on_c, 7, 46, 76
13, 337499, Note_on_c, 7, 46, 0
13, 337500, Note_on_c, 7, 46, 76
13, 337529, Note_on_c, 7, 46, 0
13, 337530, Note_on_c, 7, 46, 76
13, 337559, Note_on_c, 7, 46, 0
13, 337560, Note_on_c, 7, 46, 76
13, 337589, Note_on_c, 7, 46, 0
13, 337590, Note_on_c, 7, 46, 76
13, 337619, Note_on_c, 7, 46, 0
13, 337620, Note_on_c, 7, 46, 76
13, 337649, Note_on_c, 7, 46, 0
13, 337650, Note_on_c, 7, 46, 76
13, 337679, Note_on_c, 7, 46, 0
13, 337680, Note_on_c, 7, 46, 76
13, 337709, Note_on_c, 7, 46, 0
13, 337710, Note_on_c, 7, 46, 76
13, 337739, Note_on_c, 7, 46, 0
13, 337740, Note_on_c, 7, 46, 76
13, 337769, Note_on_c, 7, 46, 0
13, 337770, Note_on_c, 7, 46, 76
13, 337799, Note_on_c, 7, 46, 0
13, 337800, Note_on_c, 7, 46, 76
13, 337829, Note_on_c, 7, 46, 0
13, 337830, Note_on_c, 7, 46, 76
13, 337859, Note_on_c, 7, 46, 0
13, 337860, Note_on_c, 7, 46, 76
13, 337889, Note_on_c, 7, 46, 0
13, 337890, Note_on_c, 7, 46, 76
13, 337919, Note_on_c, 7, 46, 0
13, 337920, Note_on_c, 7, 46, 76
13, 337949, Note_on_c, 7, 46, 0
13, 337950, Note_on_c, 7, 46, 76
13, 337979, Note_on_c, 7, 46, 0
13, 337980, Note_on_c, 7, 46, 76
13, 338009, Note_on_c, 7, 46, 0
13, 338010, Note_on_c, 7, 46, 76
13, 338039, Note_on_c, 7, 46, 0
13, 338040, Note_on_c, 7, 46, 76
13, 338069, Note_on_c, 7, 46, 0
13, 338070, Note_on_c, 7, 46, 76
13, 338099, Note_on_c, 7, 46, 0
13, 338100, Note_on_c, 7, 46, 76
13, 338129, Note_on_c, 7, 46, 0
13, 338130, Note_on_c, 7, 46, 76
13, 338159, Note_on_c, 7, 46, 0
13, 338160, Note_on_c, 7, 46, 76
13, 338189, Note_on_c, 7, 46, 0
13, 338190, Note_on_c, 7, 46, 76
13, 338219, Note_on_c, 7, 46, 0
13, 338220, Note_on_c, 7, 46, 76
13, 338249, Note_on_c, 7, 46, 0
13, 338250, Note_on_c, 7, 46, 76
13, 338279, Note_on_c, 7, 46, 0
13, 338280, Note_on_c, 7, 46, 76
13, 338309, Note_on_c, 7, 46, 0
13, 338310, Note_on_c, 7, 46, 76
13, 338339, Note_on_c, 7, 46, 0
13, 338340, Note_on_c, 7, 46, 76
13, 338369, Note_on_c, 7, 46, 0
13, 338370, Note_on_c, 7, 46, 76
13, 338399, Note_on_c, 7, 46, 0
13, 338400, Note_on_c, 7, 46, 84
13, 338639, Note_on_c, 7, 46, 0
13, 338640, Note_on_c, 7, 46, 84
13, 338879, Note_on_c, 7, 46, 0
13, 338880, Note_on_c, 7, 46, 84
13, 339119, Note_on_c, 7, 46, 0
13, 339120, Note_on_c, 7, 46, 84
13, 339359, Note_on_c, 7, 46, 0
13, 339360, Note_on_c, 7, 51, 84
13, 339599, Note_on_c, 7, 51, 0
13, 339600, Note_on_c, 7, 51, 84
13, 339839, Note_on_c, 7, 51, 0
13, 339840, Note_on_c, 7, 51, 84
13, 340079, Note_on_c, 7, 51, 0
13, 368640, Note_on_c, 7, 51, 84
13, 368669, Note_on_c, 7, 51, 0
13, 368670, Note_on_c, 7, 51, 84
13, 368699, Note_on_c, 7, 51, 0
13, 368700, Note_on_c, 7, 51, 84
13, 368729, Note_on_c, 7, 51, 0
13, 368730, Note_on_c, 7, 51, 84
13, 368759, Note_on_c, 7, 51, 0
13, 368760, Note_on_c, 7, 51, 84
13, 368789, Note_on_c, 7, 51, 0
13, 368790, Note_on_c, 7, 51, 84
13, 368819, Note_on_c, 7, 51, 0
13, 368820, Note_on_c, 7, 51, 84
13, 368849, Note_on_c, 7, 51, 0
13, 368850, Note_on_c, 7, 51, 84
13, 368879, Note_on_c, 7, 51, 0
13, 368880, Note_on_c, 7, 51, 84
13, 368909, Note_on_c, 7, 51, 0
13, 368910, Note_on_c, 7, 51, 84
13, 368939, Note_on_c, 7, 51, 0
13, 368940, Note_on_c, 7, 51, 84
13, 368969, Note_on_c, 7, 51, 0
13, 368970, Note_on_c, 7, 51, 84
13, 368999, Note_on_c, 7, 51, 0
13, 369000, Note_on_c, 7, 51, 84
13, 369029, Note_on_c, 7, 51, 0
13, 369030, Note_on_c, 7, 51, 84
13, 369059, Note_on_c, 7, 51, 0
13, 369060, Note_on_c, 7, 51, 84
13, 369089, Note_on_c, 7, 51, 0
13, 369090, Note_on_c, 7, 51, 84
13, 369119, Note_on_c, 7, 51, 0
13, 369120, Note_on_c, 7, 51, 84
13, 369149, Note_on_c, 7, 51, 0
13, 369150, Note_on_c, 7, 51, 84
13, 369179, Note_on_c, 7, 51, 0
13, 369180, Note_on_c, 7, 51, 84
13, 369209, Note_on_c, 7, 51, 0
13, 369210, Note_on_c, 7, 51, 84
13, 369239, Note_on_c, 7, 51, 0
13, 369240, Note_on_c, 7, 51, 84
13, 369269, Note_on_c, 7, 51, 0
13, 369270, Note_on_c, 7, 51, 84
13, 369299, Note_on_c, 7, 51, 0
13, 369300, Note_on_c, 7, 51, 84
13, 369329, Note_on_c, 7, 51, 0
13, 369330, Note_on_c, 7, 51, 84
13, 369359, Note_on_c, 7, 51, 0
13, 369360, Note_on_c, 7, 51, 84
13, 369389, Note_on_c, 7, 51, 0
13, 369390, Note_on_c, 7, 51, 84
13, 369419, Note_on_c, 7, 51, 0
13, 369420, Note_on_c, 7, 51, 84
13, 369449, Note_on_c, 7, 51, 0
13, 369450, Note_on_c, 7, 51, 84
13, 369479, Note_on_c, 7, 51, 0
13, 369480, Note_on_c, 7, 51, 84
13, 369509, Note_on_c, 7, 51, 0
13, 369510, Note_on_c, 7, 51, 84
13, 369539, Note_on_c, 7, 51, 0
13, 369540, Note_on_c, 7, 51, 84
13, 369569, Note_on_c, 7, 51, 0
13, 369570, Note_on_c, 7, 51, 84
13, 369599, Note_on_c, 7, 51, 0
13, 369600, Note_on_c, 7, 51, 84
13, 369629, Note_on_c, 7, 51, 0
13, 369630, Note_on_c, 7, 51, 84
13, 369659, Note_on_c, 7, 51, 0
13, 369660, Note_on_c, 7, 51, 84
13, 369689, Note_on_c, 7, 51, 0
13, 369690, Note_on_c, 7, 51, 84
13, 369719, Note_on_c, 7, 51, 0
13, 369720, Note_on_c, 7, 51, 84
13, 369749, Note_on_c, 7, 51, 0
13, 369750, Note_on_c, 7, 51, 84
13, 369779, Note_on_c, 7, 51, 0
13, 369780, Note_on_c, 7, 51, 84
13, 369809, Note_on_c, 7, 51, 0
13, 369810, Note_on_c, 7, 51, 84
13, 369839, Note_on_c, 7, 51, 0
13, 369840, Note_on_c, 7, 51, 84
13, 369869, Note_on_c, 7, 51, 0
13, 369870, Note_on_c, 7, 51, 84
13, 369899, Note_on_c, 7, 51, 0
13, 369900, Note_on_c, 7, 51, 84
13, 369929, Note_on_c, 7, 51, 0
13, 369930, Note_on_c, 7, 51, 84
13, 369959, Note_on_c, 7, 51, 0
13, 369960, Note_on_c, 7, 51, 84
13, 369989, Note_on_c, 7, 51, 0
13, 369990, Note_on_c, 7, 51, 84
13, 370019, Note_on_c, 7, 51, 0
13, 370020, Note_on_c, 7, 51, 84
13, 370049, Note_on_c, 7, 51, 0
13, 370050, Note_on_c, 7, 51, 84
13, 370079, Note_on_c, 7, 51, 0
13, 370080, Note_on_c, 7, 51, 84
13, 370319, Note_on_c, 7, 51, 0
13, 370320, Note_on_c, 7, 51, 84
13, 370559, Note_on_c, 7, 51, 0
13, 370560, Note_on_c, 7, 51, 84
13, 370799, Note_on_c, 7, 51, 0
13, 370800, Note_on_c, 7, 51, 84
13, 371039, Note_on_c, 7, 51, 0
13, 371040, Note_on_c, 7, 51, 84
13, 371279, Note_on_c, 7, 51, 0
13, 371280, Note_on_c, 7, 51, 84
13, 371519, Note_on_c, 7, 51, 0
13, 371520, Note_on_c, 7, 51, 84
13, 371759, Note_on_c, 7, 51, 0
13, 393120, Note_on_c, 7, 46, 76
13, 393149, Note_on_c, 7, 46, 0
13, 393150, Note_on_c, 7, 46, 76
13, 393179, Note_on_c, 7, 46, 0
13, 393180, Note_on_c, 7, 46, 76
13, 393209, Note_on_c, 7, 46, 0
13, 393210, Note_on_c, 7, 46, 76
13, 393239, Note_on_c, 7, 46, 0
13, 393240, Note_on_c, 7, 46, 76
13, 393269, Note_on_c, 7, 46, 0
13, 393270, Note_on_c, 7, 46, 76
13, 393299, Note_on_c, 7, 46, 0
13, 393300, Note_on_c, 7, 46, 76
13, 393329, Note_on_c, 7, 46, 0
13, 393330, Note_on_c, 7, 46, 76
13, 393359, Note_on_c, 7, 46, 0
13, 393360, Note_on_c, 7, 46, 76
13, 393389, Note_on_c, 7, 46, 0
13, 393390, Note_on_c, 7, 46, 76
13, 393419, Note_on_c, 7, 46, 0
13, 393420, Note_on_c, 7, 46, 76
13, 393449, Note_on_c, 7, 46, 0
13, 393450, Note_on_c, 7, 46, 76
13, 393479, Note_on_c, 7, 46, 0
13, 393480, Note_on_c, 7, 46, 76
13, 393509, Note_on_c, 7, 46, 0
13, 393510, Note_on_c, 7, 46, 76
13, 393539, Note_on_c, 7, 46, 0
13, 393540, Note_on_c, 7, 46, 76
13, 393569, Note_on_c, 7, 46, 0
13, 393570, Note_on_c, 7, 46, 76
13, 393599, Note_on_c, 7, 46, 0
13, 393600, Note_on_c, 7, 46, 76
13, 393629, Note_on_c, 7, 46, 0
13, 393630, Note_on_c, 7, 46, 76
13, 393659, Note_on_c, 7, 46, 0
13, 393660, Note_on_c, 7, 46, 76
13, 393689, Note_on_c, 7, 46, 0
13, 393690, Note_on_c, 7, 46, 76
13, 393719, Note_on_c, 7, 46, 0
13, 393720, Note_on_c, 7, 46, 76
13, 393749, Note_on_c, 7, 46, 0
13, 393750, Note_on_c, 7, 46, 76
13, 393779, Note_on_c, 7, 46, 0
13, 393780, Note_on_c, 7, 46, 76
13, 393809, Note_on_c, 7, 46, 0
13, 393810, Note_on_c, 7, 46, 76
13, 393839, Note_on_c, 7, 46, 0
13, 393840, Note_on_c, 7, 46, 84
13, 394559, Note_on_c, 7, 46, 0
13, 394560, Note_on_c, 7, 51, 84
13, 394799, Note_on_c, 7, 51, 0
13, 416640, Note_on_c, 7, 46, 65
13, 416879, Note_on_c, 7, 46, 0
13, 416880, Note_on_c, 7, 46, 68
13, 417119, Note_on_c, 7, 46, 0
13, 417120, Note_on_c, 7, 46, 70
13, 417359, Note_on_c, 7, 46, 0
13, 417360, Note_on_c, 7, 46, 73
13, 417599, Note_on_c, 7, 46, 0
13, 417600, Note_on_c, 7, 51, 76
13, 417659, Note_on_c, 7, 51, 0
13, 417660, Note_on_c, 7, 51, 76
13, 417719, Note_on_c, 7, 51, 0
13, 417720, Note_on_c, 7, 51, 76
13, 417779, Note_on_c, 7, 51, 0
13, 417780, Note_on_c, 7, 51, 76
13, 417839, Note_on_c, 7, 51, 0
13, 417840, Note_on_c, 7, 51, 76
13, 417899, Note_on_c, 7, 51, 0
13, 417900, Note_on_c, 7, 51, 76
13, 417959, Note_on_c, 7, 51, 0
13, 417960, Note_on_c, 7, 51, 76
13, 418019, Note_on_c, 7, 51, 0
13, 418020, Note_on_c, 7, 51, 76
13, 418079, Note_on_c, 7, 51, 0
13, 418080, Note_on_c, 7, 51, 76
13, 418139, Note_on_c, 7, 51, 0
13, 418140, Note_on_c, 7, 51, 76
13, 418199, Note_on_c, 7, 51, 0
13, 418200, Note_on_c, 7, 51, 76
13, 418259, Note_on_c, 7, 51, 0
13, 418260, Note_on_c, 7, 51, 76
13, 418319, Note_on_c, 7, 51, 0
13, 418320, Note_on_c, 7, 51, 76
13, 418379, Note_on_c, 7, 51, 0
13, 418380, Note_on_c, 7, 51, 76
13, 418439, Note_on_c, 7, 51, 0
13, 418440, Note_on_c, 7, 51, 76
13, 418499, Note_on_c, 7, 51, 0
13, 418500, Note_on_c, 7, 51, 76
13, 418559, Note_on_c, 7, 51, 0
13, 418560, Note_on_c, 7, 51, 76
13, 418619, Note_on_c, 7, 51, 0
13, 418620, Note_on_c, 7, 51, 76
13, 418679, Note_on_c, 7, 51, 0
13, 418680, Note_on_c, 7, 51, 76
13, 418739, Note_on_c, 7, 51, 0
13, 418740, Note_on_c, 7, 51, 76
13, 418799, Note_on_c, 7, 51, 0
13, 418800, Note_on_c, 7, 51, 76
13, 418859, Note_on_c, 7, 51, 0
13, 418860, Note_on_c, 7, 51, 76
13, 418919, Note_on_c, 7, 51, 0
13, 418920, Note_on_c, 7, 51, 76
13, 418979, Note_on_c, 7, 51, 0
13, 418980, Note_on_c, 7, 51, 76
13, 419039, Note_on_c, 7, 51, 0
13, 419040, Note_on_c, 7, 51, 76
13, 419279, Note_on_c, 7, 51, 0
13, 419280, Note_on_c, 7, 51, 76
13, 419519, Note_on_c, 7, 51, 0
13, 419520, Note_on_c, 7, 51, 76
13, 419759, Note_on_c, 7, 51, 0
13, 419760, Note_on_c, 7, 51, 76
13, 419999, Note_on_c, 7, 51, 0
13, 420720, Note_on_c, 7, 51, 76
13, 420959, Note_on_c, 7, 51, 0
13, 420960, Note_on_c, 7, 51, 76
13, 421199, Note_on_c, 7, 51, 0
13, 421200, Note_on_c, 7, 51, 76
13, 421439, Note_on_c, 7, 51, 0
13, 421680, Note_on_c, 7, 51, 84
13, 421919, Note_on_c, 7, 51, 0
13, 421920, Note_on_c, 7, 51, 80
13, 422159, Note_on_c, 7, 51, 0
13, 422640, Note_on_c, 7, 51, 80
13, 422879, Note_on_c, 7, 51, 0
13, 423360, Note_on_c, 7, 51, 80
13, 423599, Note_on_c, 7, 51, 0
13, 424080, Note_on_c, 7, 51, 80
13, 424319, Note_on_c, 7, 51, 0
13, 424320, Note_on_c, 7, 51, 80
13, 424559, Note_on_c, 7, 51, 0
13, 424560, Note_on_c, 7, 51, 80
13, 424799, Note_on_c, 7, 51, 0
13, 424800, Note_on_c, 7, 51, 84
13, 424829, Note_on_c, 7, 51, 0
13, 424830, Note_on_c, 7, 51, 84
13, 424859, Note_on_c, 7, 51, 0
13, 424860, Note_on_c, 7, 51, 84
13, 424889, Note_on_c, 7, 51, 0
13, 424890, Note_on_c, 7, 51, 84
13, 424919, Note_on_c, 7, 51, 0
13, 424920, Note_on_c, 7, 51, 84
13, 424949, Note_on_c, 7, 51, 0
13, 424950, Note_on_c, 7, 51, 84
13, 424979, Note_on_c, 7, 51, 0
13, 424980, Note_on_c, 7, 51, 84
13, 425009, Note_on_c, 7, 51, 0
13, 425010, Note_on_c, 7, 51, 84
13, 425039, Note_on_c, 7, 51, 0
13, 425040, Note_on_c, 7, 51, 84
13, 425069, Note_on_c, 7, 51, 0
13, 425070, Note_on_c, 7, 51, 84
13, 425099, Note_on_c, 7, 51, 0
13, 425100, Note_on_c, 7, 51, 84
13, 425129, Note_on_c, 7, 51, 0
13, 425130, Note_on_c, 7, 51, 84
13, 425159, Note_on_c, 7, 51, 0
13, 425160, Note_on_c, 7, 51, 84
13, 425189, Note_on_c, 7, 51, 0
13, 425190, Note_on_c, 7, 51, 84
13, 425219, Note_on_c, 7, 51, 0
13, 425220, Note_on_c, 7, 51, 84
13, 425249, Note_on_c, 7, 51, 0
13, 425250, Note_on_c, 7, 51, 84
13, 425279, Note_on_c, 7, 51, 0
13, 425280, Note_on_c, 7, 51, 84
13, 425309, Note_on_c, 7, 51, 0
13, 425310, Note_on_c, 7, 51, 84
13, 425339, Note_on_c, 7, 51, 0
13, 425340, Note_on_c, 7, 51, 84
13, 425369, Note_on_c, 7, 51, 0
13, 425370, Note_on_c, 7, 51, 84
13, 425399, Note_on_c, 7, 51, 0
13, 425400, Note_on_c, 7, 51, 84
13, 425429, Note_on_c, 7, 51, 0
13, 425430, Note_on_c, 7, 51, 84
13, 425459, Note_on_c, 7, 51, 0
13, 425460, Note_on_c, 7, 51, 84
13, 425489, Note_on_c, 7, 51, 0
13, 425490, Note_on_c, 7, 51, 84
13, 425519, Note_on_c, 7, 51, 0
13, 425520, Note_on_c, 7, 51, 84
13, 425549, Note_on_c, 7, 51, 0
13, 425550, Note_on_c, 7, 51, 84
13, 425579, Note_on_c, 7, 51, 0
13, 425580, Note_on_c, 7, 51, 84
13, 425609, Note_on_c, 7, 51, 0
13, 425610, Note_on_c, 7, 51, 84
13, 425639, Note_on_c, 7, 51, 0
13, 425640, Note_on_c, 7, 51, 84
13, 425669, Note_on_c, 7, 51, 0
13, 425670, Note_on_c, 7, 51, 84
13, 425699, Note_on_c, 7, 51, 0
13, 425700, Note_on_c, 7, 51, 84
13, 425729, Note_on_c, 7, 51, 0
13, 425730, Note_on_c, 7, 51, 84
13, 425759, Note_on_c, 7, 51, 0
13, 425760, Note_on_c, 7, 51, 84
13, 425789, Note_on_c, 7, 51, 0
13, 425790, Note_on_c, 7, 51, 84
13, 425819, Note_on_c, 7, 51, 0
13, 425820, Note_on_c, 7, 51, 84
13, 425849, Note_on_c, 7, 51, 0
13, 425850, Note_on_c, 7, 51, 84
13, 425879, Note_on_c, 7, 51, 0
13, 425880, Note_on_c, 7, 51, 84
13, 425909, Note_on_c, 7, 51, 0
13, 425910, Note_on_c, 7, 51, 84
13, 425939, Note_on_c, 7, 51, 0
13, 425940, Note_on_c, 7, 51, 84
13, 425969, Note_on_c, 7, 51, 0
13, 425970, Note_on_c, 7, 51, 84
13, 425999, Note_on_c, 7, 51, 0
13, 426000, Note_on_c, 7, 46, 92
13, 426239, Note_on_c, 7, 46, 0
13, 426240, Note_on_c, 7, 51, 84
13, 426479, Note_on_c, 7, 51, 0
13, 426480, Note_on_c, 7, 46, 84
13, 426719, Note_on_c, 7, 46, 0
13, 426720, Note_on_c, 7, 46, 84
13, 426959, Note_on_c, 7, 46, 0
13, 426960, Note_on_c, 7, 51, 84
13, 427199, Note_on_c, 7, 51, 0
13, 427440, Note_on_c, 7, 51, 92
13, 427679, Note_on_c, 7, 51, 0
13, 427680, Note_on_c, 7, 51, 84
13, 427919, Note_on_c, 7, 51, 0
13, 427920, Note_on_c, 7, 51, 84
13, 428159, Note_on_c, 7, 51, 0
13, 428160, Note_on_c, 7, 51, 84
13, 428399, Note_on_c, 7, 51, 0
13, 428400, Note_on_c, 7, 51, 84
13, 428639, Note_on_c, 7, 51, 0
13, 429840, Note_on_c, 7, 51, 84
13, 430079, Note_on_c, 7, 51, 0
13, 430560, Note_on_c, 7, 46, 84
13, 430799, Note_on_c, 7, 46, 0
13, 438000, Note_on_c, 7, 46, 84
13, 438359, Note_on_c, 7, 46, 0
13, 438360, Note_on_c, 7, 46, 84
13, 438479, Note_on_c, 7, 46, 0
13, 438480, Note_on_c, 7, 46, 84
13, 438719, Note_on_c, 7, 46, 0
13, 438720, Note_on_c, 7, 46, 84
13, 438959, Note_on_c, 7, 46, 0
13, 438960, Note_on_c, 7, 46, 84
13, 439199, Note_on_c, 7, 46, 0
13, 439200, Note_on_c, 7, 51, 52
13, 439439, Note_on_c, 7, 51, 0
13, 446400, Note_on_c, 7, 51, 76
13, 446579, Note_on_c, 7, 51, 0
13, 446640, Note_on_c, 7, 51, 76
13, 446819, Note_on_c, 7, 51, 0
13, 447720, Note_on_c, 7, 51, 76
13, 447839, Note_on_c, 7, 51, 0
13, 447840, Note_on_c, 7, 46, 76
13, 448019, Note_on_c, 7, 46, 0
13, 448080, Note_on_c, 7, 46, 76
13, 448259, Note_on_c, 7, 46, 0
13, 450960, Note_on_c, 7, 51, 76
13, 451199, Note_on_c, 7, 51, 0
13, 451200, Note_on_c, 7, 51, 76
13, 451439, Note_on_c, 7, 51, 0
13, 451440, Note_on_c, 7, 51, 76
13, 451679, Note_on_c, 7, 51, 0
13, 451680, Note_on_c, 7, 51, 76
13, 451919, Note_on_c, 7, 51, 0
13, 451920, Note_on_c, 7, 51, 76
13, 452159, Note_on_c, 7, 51, 0
13, 452160, Note_on_c, 7, 51, 76
13, 452399, Note_on_c, 7, 51, 0
13, 455040, Note_on_c, 7, 46, 76
13, 455279, Note_on_c, 7, 46, 0
13, 455760, Note_on_c, 7, 46, 84
13, 455789, Note_on_c, 7, 46, 0
13, 455790, Note_on_c, 7, 46, 84
13, 455819, Note_on_c, 7, 46, 0
13, 455820, Note_on_c, 7, 46, 84
13, 455849, Note_on_c, 7, 46, 0
13, 455850, Note_on_c, 7, 46, 84
13, 455879, Note_on_c, 7, 46, 0
13, 455880, Note_on_c, 7, 46, 84
13, 455909, Note_on_c, 7, 46, 0
13, 455910, Note_on_c, 7, 46, 84
13, 455939, Note_on_c, 7, 46, 0
13, 455940, Note_on_c, 7, 46, 84
13, 455969, Note_on_c, 7, 46, 0
13, 455970, Note_on_c, 7, 46, 84
13, 455999, Note_on_c, 7, 46, 0
13, 456000, Note_on_c, 7, 46, 84
13, 456029, Note_on_c, 7, 46, 0
13, 456030, Note_on_c, 7, 46, 84
13, 456059, Note_on_c, 7, 46, 0
13, 456060, Note_on_c, 7, 46, 84
13, 456089, Note_on_c, 7, 46, 0
13, 456090, Note_on_c, 7, 46, 84
13, 456119, Note_on_c, 7, 46, 0
13, 456120, Note_on_c, 7, 46, 84
13, 456149, Note_on_c, 7, 46, 0
13, 456150, Note_on_c, 7, 46, 84
13, 456179, Note_on_c, 7, 46, 0
13, 456180, Note_on_c, 7, 46, 84
13, 456209, Note_on_c, 7, 46, 0
13, 456210, Note_on_c, 7, 46, 84
13, 456239, Note_on_c, 7, 46, 0
13, 456240, Note_on_c, 7, 46, 84
13, 456269, Note_on_c, 7, 46, 0
13, 456270, Note_on_c, 7, 46, 84
13, 456299, Note_on_c, 7, 46, 0
13, 456300, Note_on_c, 7, 46, 84
13, 456329, Note_on_c, 7, 46, 0
13, 456330, Note_on_c, 7, 46, 84
13, 456359, Note_on_c, 7, 46, 0
13, 456360, Note_on_c, 7, 46, 84
13, 456389, Note_on_c, 7, 46, 0
13, 456390, Note_on_c, 7, 46, 84
13, 456419, Note_on_c, 7, 46, 0
13, 456420, Note_on_c, 7, 46, 84
13, 456449, Note_on_c, 7, 46, 0
13, 456450, Note_on_c, 7, 46, 84
13, 456479, Note_on_c, 7, 46, 0
13, 456480, Note_on_c, 7, 46, 84
13, 456509, Note_on_c, 7, 46, 0
13, 456510, Note_on_c, 7, 46, 84
13, 456539, Note_on_c, 7, 46, 0
13, 456540, Note_on_c, 7, 46, 84
13, 456569, Note_on_c, 7, 46, 0
13, 456570, Note_on_c, 7, 46, 84
13, 456599, Note_on_c, 7, 46, 0
13, 456600, Note_on_c, 7, 46, 84
13, 456629, Note_on_c, 7, 46, 0
13, 456630, Note_on_c, 7, 46, 84
13, 456659, Note_on_c, 7, 46, 0
13, 456660, Note_on_c, 7, 46, 84
13, 456689, Note_on_c, 7, 46, 0
13, 456690, Note_on_c, 7, 46, 84
13, 456719, Note_on_c, 7, 46, 0
13, 456720, Note_on_c, 7, 46, 84
13, 456749, Note_on_c, 7, 46, 0
13, 456750, Note_on_c, 7, 46, 84
13, 456779, Note_on_c, 7, 46, 0
13, 456780, Note_on_c, 7, 46, 84
13, 456809, Note_on_c, 7, 46, 0
13, 456810, Note_on_c, 7, 46, 84
13, 456839, Note_on_c, 7, 46, 0
13, 456840, Note_on_c, 7, 46, 84
13, 456869, Note_on_c, 7, 46, 0
13, 456870, Note_on_c, 7, 46, 84
13, 456899, Note_on_c, 7, 46, 0
13, 456900, Note_on_c, 7, 46, 84
13, 456929, Note_on_c, 7, 46, 0
13, 456930, Note_on_c, 7, 46, 84
13, 456959, Note_on_c, 7, 46, 0
13, 456960, Note_on_c, 7, 46, 84
13, 456989, Note_on_c, 7, 46, 0
13, 456990, Note_on_c, 7, 46, 84
13, 457019, Note_on_c, 7, 46, 0
13, 457020, Note_on_c, 7, 46, 84
13, 457049, Note_on_c, 7, 46, 0
13, 457050, Note_on_c, 7, 46, 84
13, 457079, Note_on_c, 7, 46, 0
13, 457080, Note_on_c, 7, 46, 84
13, 457109, Note_on_c, 7, 46, 0
13, 457110, Note_on_c, 7, 46, 84
13, 457139, Note_on_c, 7, 46, 0
13, 457140, Note_on_c, 7, 46, 84
13, 457169, Note_on_c, 7, 46, 0
13, 457170, Note_on_c, 7, 46, 84
13, 457199, Note_on_c, 7, 46, 0
13, 457200, Note_on_c, 7, 51, 84
13, 457439, Note_on_c, 7, 51, 0
13, 476880, Note_on_c, 7, 46, 84
13, 477119, Note_on_c, 7, 46, 0
13, 477600, Note_on_c, 7, 46, 84
13, 477839, Note_on_c, 7, 46, 0
13, 478320, Note_on_c, 7, 46, 84
13, 478559, Note_on_c, 7, 46, 0
13, 479040, Note_on_c, 7, 46, 84
13, 479279, Note_on_c, 7, 46, 0
13, 479280, Note_on_c, 7, 46, 76
13, 479519, Note_on_c, 7, 46, 0
13, 479520, Note_on_c, 7, 46, 84
13, 479759, Note_on_c, 7, 46, 0
13, 480240, Note_on_c, 7, 46, 92
13, 480479, Note_on_c, 7, 46, 0
13, 480960, Note_on_c, 7, 46, 92
13, 481199, Note_on_c, 7, 46, 0
13, 481680, Note_on_c, 7, 46, 84
13, 481919, Note_on_c, 7, 46, 0
13, 481920, Note_on_c, 7, 46, 84
13, 482159, Note_on_c, 7, 46, 0
13, 482160, Note_on_c, 7, 46, 84
13, 482399, Note_on_c, 7, 46, 0
13, 482400, Note_on_c, 7, 51, 84
13, 482639, Note_on_c, 7, 51, 0
13, 482880, Note_on_c, 7, 51, 84
13, 482939, Note_on_c, 7, 51, 0
13, 482940, Note_on_c, 7, 51, 84
13, 482999, Note_on_c, 7, 51, 0
13, 483000, Note_on_c, 7, 51, 84
13, 483059, Note_on_c, 7, 51, 0
13, 483060, Note_on_c, 7, 51, 84
13, 483119, Note_on_c, 7, 51, 0
13, 483120, Note_on_c, 7, 51, 84
13, 483359, Note_on_c, 7, 51, 0
13, 487680, Note_on_c, 7, 51, 84
13, 487859, Note_on_c, 7, 51, 0
13, 487920, Note_on_c, 7, 51, 84
13, 488099, Note_on_c, 7, 51, 0
13, 488400, Note_on_c, 7, 51, 84
13, 488579, Note_on_c, 7, 51, 0
13, 488640, Note_on_c, 7, 46, 84
13, 488819, Note_on_c, 7, 46, 0
13, 489840, Note_on_c, 7, 51, 84
13, 490019, Note_on_c, 7, 51, 0
13, 490080, Note_on_c, 7, 51, 84
13, 490259, Note_on_c, 7, 51, 0
13, 490560, Note_on_c, 7, 51, 92
13, 490739, Note_on_c, 7, 51, 0
13, 491040, Note_on_c, 7, 51, 92
13, 491219, Note_on_c, 7, 51, 0
13, 491520, Note_on_c, 7, 51, 92
13, 491699, Note_on_c, 7, 51, 0
13, 492000, Note_on_c, 7, 51, 92
13, 492179, Note_on_c, 7, 51, 0
13, 492480, Note_on_c, 7, 51, 92
13, 492659, Note_on_c, 7, 51, 0
13, 492960, Note_on_c, 7, 51, 92
13, 493139, Note_on_c, 7, 51, 0
13, 501120, Note_on_c, 7, 46, 84
13, 501149, Note_on_c, 7, 46, 0
13, 501150, Note_on_c, 7, 46, 84
13, 501179, Note_on_c, 7, 46, 0
13, 501180, Note_on_c, 7, 46, 84
13, 501209, Note_on_c, 7, 46, 0
13, 501210, Note_on_c, 7, 46, 84
13, 501239, Note_on_c, 7, 46, 0
13, 501240, Note_on_c, 7, 46, 84
13, 501269, Note_on_c, 7, 46, 0
13, 501270, Note_on_c, 7, 46, 84
13, 501299, Note_on_c, 7, 46, 0
13, 501300, Note_on_c, 7, 46, 84
13, 501329, Note_on_c, 7, 46, 0
13, 501330, Note_on_c, 7, 46, 84
13, 501359, Note_on_c, 7, 46, 0
13, 501360, Note_on_c, 7, 46, 84
13, 501389, Note_on_c, 7, 46, 0
13, 501390, Note_on_c, 7, 46, 84
13, 501419, Note_on_c, 7, 46, 0
13, 501420, Note_on_c, 7, 46, 84
13, 501449, Note_on_c, 7, 46, 0
13, 501450, Note_on_c, 7, 46, 84
13, 501479, Note_on_c, 7, 46, 0
13, 501480, Note_on_c, 7, 46, 84
13, 501509, Note_on_c, 7, 46, 0
13, 501510, Note_on_c, 7, 46, 84
13, 501539, Note_on_c, 7, 46, 0
13, 501540, Note_on_c, 7, 46, 84
13, 501569, Note_on_c, 7, 46, 0
13, 501570, Note_on_c, 7, 46, 84
13, 501599, Note_on_c, 7, 46, 0
13, 501600, Note_on_c, 7, 46, 84
13, 501629, Note_on_c, 7, 46, 0
13, 501630, Note_on_c, 7, 46, 84
13, 501659, Note_on_c, 7, 46, 0
13, 501660, Note_on_c, 7, 46, 84
13, 501689, Note_on_c, 7, 46, 0
13, 501690, Note_on_c, 7, 46, 84
13, 501719, Note_on_c, 7, 46, 0
13, 501720, Note_on_c, 7, 46, 84
13, 501749, Note_on_c, 7, 46, 0
13, 501750, Note_on_c, 7, 46, 84
13, 501779, Note_on_c, 7, 46, 0
13, 501780, Note_on_c, 7, 46, 84
13, 501809, Note_on_c, 7, 46, 0
13, 501810, Note_on_c, 7, 46, 84
13, 501839, Note_on_c, 7, 46, 0
13, 501840, Note_on_c, 7, 51, 76
13, 502079, Note_on_c, 7, 51, 0
13, 502560, Note_on_c, 7, 51, 76
13, 502799, Note_on_c, 7, 51, 0
13, 503280, Note_on_c, 7, 51, 76
13, 503519, Note_on_c, 7, 51, 0
13, 504000, Note_on_c, 7, 51, 76
13, 504179, Note_on_c, 7, 51, 0
13, 504240, Note_on_c, 7, 51, 76
13, 504419, Note_on_c, 7, 51, 0
13, 504480, Note_on_c, 7, 51, 76
13, 504659, Note_on_c, 7, 51, 0
13, 504720, Note_on_c, 7, 51, 76
13, 504959, Note_on_c, 7, 51, 0
13, 532080, Note_on_c, 7, 51, 52
13, 532319, Note_on_c, 7, 51, 0
13, 533040, Note_on_c, 7, 51, 52
13, 533279, Note_on_c, 7, 51, 0
13, 533280, Note_on_c, 7, 51, 52
13, 533519, Note_on_c, 7, 51, 0
13, 533520, Note_on_c, 7, 46, 52
13, 533759, Note_on_c, 7, 46, 0
13, 534480, Note_on_c, 7, 46, 52
13, 534719, Note_on_c, 7, 46, 0
13, 534720, Note_on_c, 7, 46, 52
13, 534959, Note_on_c, 7, 46, 0
13, 534960, Note_on_c, 7, 51, 52
13, 535199, Note_on_c, 7, 51, 0
13, 535920, Note_on_c, 7, 51, 52
13, 536159, Note_on_c, 7, 51, 0
13, 536160, Note_on_c, 7, 51, 52
13, 536399, Note_on_c, 7, 51, 0
13, 536400, Note_on_c, 7, 46, 52
13, 536639, Note_on_c, 7, 46, 0
13, 559440, Note_on_c, 7, 46, 44
13, 559679, Note_on_c, 7, 46, 0
13, 560160, Note_on_c, 7, 46, 52
13, 560399, Note_on_c, 7, 46, 0
13, 560880, Note_on_c, 7, 46, 60
13, 561119, Note_on_c, 7, 46, 0
13, 561600, Note_on_c, 7, 46, 52
13, 561839, Note_on_c, 7, 46, 0
13, 562320, Note_on_c, 7, 51, 52
13, 562559, Note_on_c, 7, 51, 0
13, 573600, Note_on_c, 7, 46, 52
13, 573679, Note_on_c, 7, 46, 0
13, 573680, Note_on_c, 7, 46, 52
13, 573759, Note_on_c, 7, 46, 0
13, 573760, Note_on_c, 7, 46, 52
13, 573839, Note_on_c, 7, 46, 0
13, 573840, Note_on_c, 7, 46, 52
13, 574079, Note_on_c, 7, 46, 0
13, 574320, Note_on_c, 7, 46, 54
13, 574399, Note_on_c, 7, 46, 0
13, 574400, Note_on_c, 7, 46, 54
13, 574479, Note_on_c, 7, 46, 0
13, 574480, Note_on_c, 7, 46, 54
13, 574559, Note_on_c, 7, 46, 0
13, 574560, Note_on_c, 7, 46, 55
13, 574799, Note_on_c, 7, 46, 0
13, 575040, Note_on_c, 7, 46, 57
13, 575119, Note_on_c, 7, 46, 0
13, 575120, Note_on_c, 7, 46, 57
13, 575199, Note_on_c, 7, 46, 0
13, 575200, Note_on_c, 7, 46, 57
13, 575279, Note_on_c, 7, 46, 0
13, 575280, Note_on_c, 7, 46, 58
13, 575519, Note_on_c, 7, 46, 0
13, 575760, Note_on_c, 7, 46, 60
13, 575839, Note_on_c, 7, 46, 0
13, 575840, Note_on_c, 7, 46, 60
13, 575919, Note_on_c, 7, 46, 0
13, 575920, Note_on_c, 7, 46, 60
13, 575999, Note_on_c, 7, 46, 0
13, 576000, Note_on_c, 7, 46, 61
13, 576239, Note_on_c, 7, 46, 0
13, 576480, Note_on_c, 7, 46, 63
13, 576559, Note_on_c, 7, 46, 0
13, 576560, Note_on_c, 7, 46, 63
13, 576639, Note_on_c, 7, 46, 0
13, 576640, Note_on_c, 7, 46, 63
13, 576719, Note_on_c, 7, 46, 0
13, 576720, Note_on_c, 7, 46, 64
13, 576959, Note_on_c, 7, 46, 0
13, 577200, Note_on_c, 7, 46, 66
13, 577279, Note_on_c, 7, 46, 0
13, 577280, Note_on_c, 7, 46, 66
13, 577359, Note_on_c, 7, 46, 0
13, 577360, Note_on_c, 7, 46, 66
13, 577439, Note_on_c, 7, 46, 0
13, 577440, Note_on_c, 7, 46, 67
13, 577679, Note_on_c, 7, 46, 0
13, 577920, Note_on_c, 7, 46, 69
13, 577999, Note_on_c, 7, 46, 0
13, 578000, Note_on_c, 7, 46, 69
13, 578079, Note_on_c, 7, 46, 0
13, 578080, Note_on_c, 7, 46, 69
13, 578159, Note_on_c, 7, 46, 0
13, 578160, Note_on_c, 7, 46, 70
13, 578399, Note_on_c, 7, 46, 0
13, 578640, Note_on_c, 7, 46, 72
13, 578719, Note_on_c, 7, 46, 0
13, 578720, Note_on_c, 7, 46, 72
13, 578799, Note_on_c, 7, 46, 0
13, 578800, Note_on_c, 7, 46, 72
13, 578879, Note_on_c, 7, 46, 0
13, 578880, Note_on_c, 7, 46, 73
13, 579119, Note_on_c, 7, 46, 0
13, 579360, Note_on_c, 7, 46, 75
13, 579439, Note_on_c, 7, 46, 0
13, 579440, Note_on_c, 7, 46, 75
13, 579519, Note_on_c, 7, 46, 0
13, 579520, Note_on_c, 7, 46, 75
13, 579599, Note_on_c, 7, 46, 0
13, 579600, Note_on_c, 7, 51, 76
13, 579629, Note_on_c, 7, 51, 0
13, 579630, Note_on_c, 7, 51, 76
13, 579659, Note_on_c, 7, 51, 0
13, 579660, Note_on_c, 7, 51, 76
13, 579689, Note_on_c, 7, 51, 0
13, 579690, Note_on_c, 7, 51, 76
13, 579719, Note_on_c, 7, 51, 0
13, 579720, Note_on_c, 7, 51, 76
13, 579749, Note_on_c, 7, 51, 0
13, 579750, Note_on_c, 7, 51, 76
13, 579779, Note_on_c, 7, 51, 0
13, 579780, Note_on_c, 7, 51, 76
13, 579809, Note_on_c, 7, 51, 0
13, 579810, Note_on_c, 7, 51, 76
13, 579839, Note_on_c, 7, 51, 0
13, 579840, Note_on_c, 7, 51, 76
13, 579869, Note_on_c, 7, 51, 0
13, 579870, Note_on_c, 7, 51, 76
13, 579899, Note_on_c, 7, 51, 0
13, 579900, Note_on_c, 7, 51, 76
13, 579929, Note_on_c, 7, 51, 0
13, 579930, Note_on_c, 7, 51, 76
13, 579959, Note_on_c, 7, 51, 0
13, 579960, Note_on_c, 7, 51, 76
13, 579989, Note_on_c, 7, 51, 0
13, 579990, Note_on_c, 7, 51, 76
13, 580019, Note_on_c, 7, 51, 0
13, 580020, Note_on_c, 7, 51, 76
13, 580049, Note_on_c, 7, 51, 0
13, 580050, Note_on_c, 7, 51, 76
13, 580079, Note_on_c, 7, 51, 0
13, 580080, Note_on_c, 7, 51, 76
13, 580109, Note_on_c, 7, 51, 0
13, 580110, Note_on_c, 7, 51, 76
13, 580139, Note_on_c, 7, 51, 0
13, 580140, Note_on_c, 7, 51, 76
13, 580169, Note_on_c, 7, 51, 0
13, 580170, Note_on_c, 7, 51, 76
13, 580199, Note_on_c, 7, 51, 0
13, 580200, Note_on_c, 7, 51, 76
13, 580229, Note_on_c, 7, 51, 0
13, 580230, Note_on_c, 7, 51, 76
13, 580259, Note_on_c, 7, 51, 0
13, 580260, Note_on_c, 7, 51, 76
13, 580289, Note_on_c, 7, 51, 0
13, 580290, Note_on_c, 7, 51, 76
13, 580319, Note_on_c, 7, 51, 0
13, 580320, Note_on_c, 7, 51, 76
13, 580349, Note_on_c, 7, 51, 0
13, 580350, Note_on_c, 7, 51, 76
13, 580379, Note_on_c, 7, 51, 0
13, 580380, Note_on_c, 7, 51, 76
13, 580409, Note_on_c, 7, 51, 0
13, 580410, Note_on_c, 7, 51, 76
13, 580439, Note_on_c, 7, 51, 0
13, 580440, Note_on_c, 7, 51, 76
13, 580469, Note_on_c, 7, 51, 0
13, 580470, Note_on_c, 7, 51, 76
13, 580499, Note_on_c, 7, 51, 0
13, 580500, Note_on_c, 7, 51, 76
13, 580529, Note_on_c, 7, 51, 0
13, 580530, Note_on_c, 7, 51, 76
13, 580559, Note_on_c, 7, 51, 0
13, 580560, Note_on_c, 7, 51, 76
13, 580589, Note_on_c, 7, 51, 0
13, 580590, Note_on_c, 7, 51, 76
13, 580619, Note_on_c, 7, 51, 0
13, 580620, Note_on_c, 7, 51, 76
13, 580649, Note_on_c, 7, 51, 0
13, 580650, Note_on_c, 7, 51, 76
13, 580679, Note_on_c, 7, 51, 0
13, 580680, Note_on_c, 7, 51, 76
13, 580709, Note_on_c, 7, 51, 0
13, 580710, Note_on_c, 7, 51, 76
13, 580739, Note_on_c, 7, 51, 0
13, 580740, Note_on_c, 7, 51, 76
13, 580769, Note_on_c, 7, 51, 0
13, 580770, Note_on_c, 7, 51, 76
13, 580799, Note_on_c, 7, 51, 0
13, 580800, Note_on_c, 7, 51, 76
13, 580829, Note_on_c, 7, 51, 0
13, 580830, Note_on_c, 7, 51, 76
13, 580859, Note_on_c, 7, 51, 0
13, 580860, Note_on_c, 7, 51, 76
13, 580889, Note_on_c, 7, 51, 0
13, 580890, Note_on_c, 7, 51, 76
13, 580919, Note_on_c, 7, 51, 0
13, 580920, Note_on_c, 7, 51, 76
13, 580949, Note_on_c, 7, 51, 0
13, 580950, Note_on_c, 7, 51, 76
13, 580979, Note_on_c, 7, 51, 0
13, 580980, Note_on_c, 7, 51, 76
13, 581009, Note_on_c, 7, 51, 0
13, 581010, Note_on_c, 7, 51, 76
13, 581029, Note_on_c, 7, 51, 0
13, 581040, Note_on_c, 7, 51, 76
13, 581069, Note_on_c, 7, 51, 0
13, 581070, Note_on_c, 7, 51, 76
13, 581099, Note_on_c, 7, 51, 0
13, 581100, Note_on_c, 7, 51, 76
13, 581129, Note_on_c, 7, 51, 0
13, 581130, Note_on_c, 7, 51, 76
13, 581159, Note_on_c, 7, 51, 0
13, 581160, Note_on_c, 7, 51, 76
13, 581189, Note_on_c, 7, 51, 0
13, 581190, Note_on_c, 7, 51, 76
13, 581219, Note_on_c, 7, 51, 0
13, 581220, Note_on_c, 7, 51, 76
13, 581249, Note_on_c, 7, 51, 0
13, 581250, Note_on_c, 7, 51, 76
13, 581279, Note_on_c, 7, 51, 0
13, 581280, Note_on_c, 7, 51, 76
13, 581309, Note_on_c, 7, 51, 0
13, 581310, Note_on_c, 7, 51, 76
13, 581339, Note_on_c, 7, 51, 0
13, 581340, Note_on_c, 7, 51, 76
13, 581369, Note_on_c, 7, 51, 0
13, 581370, Note_on_c, 7, 51, 76
13, 581399, Note_on_c, 7, 51, 0
13, 581400, Note_on_c, 7, 51, 76
13, 581429, Note_on_c, 7, 51, 0
13, 581430, Note_on_c, 7, 51, 76
13, 581459, Note_on_c, 7, 51, 0
13, 581460, Note_on_c, 7, 51, 76
13, 581489, Note_on_c, 7, 51, 0
13, 581490, Note_on_c, 7, 51, 76
13, 581519, Note_on_c, 7, 51, 0
13, 581520, Note_on_c, 7, 51, 76
13, 581549, Note_on_c, 7, 51, 0
13, 581550, Note_on_c, 7, 51, 76
13, 581579, Note_on_c, 7, 51, 0
13, 581580, Note_on_c, 7, 51, 76
13, 581609, Note_on_c, 7, 51, 0
13, 581610, Note_on_c, 7, 51, 76
13, 581639, Note_on_c, 7, 51, 0
13, 581640, Note_on_c, 7, 51, 76
13, 581669, Note_on_c, 7, 51, 0
13, 581670, Note_on_c, 7, 51, 76
13, 581699, Note_on_c, 7, 51, 0
13, 581700, Note_on_c, 7, 51, 76
13, 581729, Note_on_c, 7, 51, 0
13, 581730, Note_on_c, 7, 51, 76
13, 581759, Note_on_c, 7, 51, 0
13, 581760, Note_on_c, 7, 51, 76
13, 581789, Note_on_c, 7, 51, 0
13, 581790, Note_on_c, 7, 51, 76
13, 581819, Note_on_c, 7, 51, 0
13, 581820, Note_on_c, 7, 51, 76
13, 581849, Note_on_c, 7, 51, 0
13, 581850, Note_on_c, 7, 51, 76
13, 581879, Note_on_c, 7, 51, 0
13, 581880, Note_on_c, 7, 51, 76
13, 581909, Note_on_c, 7, 51, 0
13, 581910, Note_on_c, 7, 51, 76
13, 581939, Note_on_c, 7, 51, 0
13, 581940, Note_on_c, 7, 51, 76
13, 581969, Note_on_c, 7, 51, 0
13, 581970, Note_on_c, 7, 51, 76
13, 581999, Note_on_c, 7, 51, 0
13, 582000, Note_on_c, 7, 51, 76
13, 582029, Note_on_c, 7, 51, 0
13, 582030, Note_on_c, 7, 51, 76
13, 582059, Note_on_c, 7, 51, 0
13, 582060, Note_on_c, 7, 51, 76
13, 582089, Note_on_c, 7, 51, 0
13, 582090, Note_on_c, 7, 51, 76
13, 582119, Note_on_c, 7, 51, 0
13, 582120, Note_on_c, 7, 51, 76
13, 582149, Note_on_c, 7, 51, 0
13, 582150, Note_on_c, 7, 51, 76
13, 582179, Note_on_c, 7, 51, 0
13, 582180, Note_on_c, 7, 51, 76
13, 582209, Note_on_c, 7, 51, 0
13, 582210, Note_on_c, 7, 51, 76
13, 582239, Note_on_c, 7, 51, 0
13, 582240, Note_on_c, 7, 51, 76
13, 582269, Note_on_c, 7, 51, 0
13, 582270, Note_on_c, 7, 51, 76
13, 582299, Note_on_c, 7, 51, 0
13, 582300, Note_on_c, 7, 51, 76
13, 582329, Note_on_c, 7, 51, 0
13, 582330, Note_on_c, 7, 51, 76
13, 582359, Note_on_c, 7, 51, 0
13, 582360, Note_on_c, 7, 51, 76
13, 582389, Note_on_c, 7, 51, 0
13, 582390, Note_on_c, 7, 51, 76
13, 582419, Note_on_c, 7, 51, 0
13, 582420, Note_on_c, 7, 51, 76
13, 582449, Note_on_c, 7, 51, 0
13, 582450, Note_on_c, 7, 51, 76
13, 582469, Note_on_c, 7, 51, 0
13, 582480, Note_on_c, 7, 46, 76
13, 582509, Note_on_c, 7, 46, 0
13, 582510, Note_on_c, 7, 46, 76
13, 582539, Note_on_c, 7, 46, 0
13, 582540, Note_on_c, 7, 46, 76
13, 582569, Note_on_c, 7, 46, 0
13, 582570, Note_on_c, 7, 46, 76
13, 582599, Note_on_c, 7, 46, 0
13, 582600, Note_on_c, 7, 46, 76
13, 582629, Note_on_c, 7, 46, 0
13, 582630, Note_on_c, 7, 46, 76
13, 582659, Note_on_c, 7, 46, 0
13, 582660, Note_on_c, 7, 46, 76
13, 582689, Note_on_c, 7, 46, 0
13, 582690, Note_on_c, 7, 46, 76
13, 582719, Note_on_c, 7, 46, 0
13, 582720, Note_on_c, 7, 46, 76
13, 582749, Note_on_c, 7, 46, 0
13, 582750, Note_on_c, 7, 46, 76
13, 582779, Note_on_c, 7, 46, 0
13, 582780, Note_on_c, 7, 46, 76
13, 582809, Note_on_c, 7, 46, 0
13, 582810, Note_on_c, 7, 46, 76
13, 582839, Note_on_c, 7, 46, 0
13, 582840, Note_on_c, 7, 46, 76
13, 582869, Note_on_c, 7, 46, 0
13, 582870, Note_on_c, 7, 46, 76
13, 582899, Note_on_c, 7, 46, 0
13, 582900, Note_on_c, 7, 46, 76
13, 582929, Note_on_c, 7, 46, 0
13, 582930, Note_on_c, 7, 46, 76
13, 582959, Note_on_c, 7, 46, 0
13, 582960, Note_on_c, 7, 46, 76
13, 582989, Note_on_c, 7, 46, 0
13, 582990, Note_on_c, 7, 46, 76
13, 583019, Note_on_c, 7, 46, 0
13, 583020, Note_on_c, 7, 46, 76
13, 583049, Note_on_c, 7, 46, 0
13, 583050, Note_on_c, 7, 46, 76
13, 583079, Note_on_c, 7, 46, 0
13, 583080, Note_on_c, 7, 46, 76
13, 583109, Note_on_c, 7, 46, 0
13, 583110, Note_on_c, 7, 46, 76
13, 583139, Note_on_c, 7, 46, 0
13, 583140, Note_on_c, 7, 46, 76
13, 583169, Note_on_c, 7, 46, 0
13, 583170, Note_on_c, 7, 46, 76
13, 583199, Note_on_c, 7, 46, 0
13, 583200, Note_on_c, 7, 46, 76
13, 583229, Note_on_c, 7, 46, 0
13, 583230, Note_on_c, 7, 46, 76
13, 583259, Note_on_c, 7, 46, 0
13, 583260, Note_on_c, 7, 46, 76
13, 583289, Note_on_c, 7, 46, 0
13, 583290, Note_on_c, 7, 46, 76
13, 583319, Note_on_c, 7, 46, 0
13, 583320, Note_on_c, 7, 46, 76
13, 583349, Note_on_c, 7, 46, 0
13, 583350, Note_on_c, 7, 46, 76
13, 583379, Note_on_c, 7, 46, 0
13, 583380, Note_on_c, 7, 46, 76
13, 583409, Note_on_c, 7, 46, 0
13, 583410, Note_on_c, 7, 46, 76
13, 583439, Note_on_c, 7, 46, 0
13, 583440, Note_on_c, 7, 46, 76
13, 583469, Note_on_c, 7, 46, 0
13, 583470, Note_on_c, 7, 46, 76
13, 583499, Note_on_c, 7, 46, 0
13, 583500, Note_on_c, 7, 46, 76
13, 583529, Note_on_c, 7, 46, 0
13, 583530, Note_on_c, 7, 46, 76
13, 583559, Note_on_c, 7, 46, 0
13, 583560, Note_on_c, 7, 46, 76
13, 583589, Note_on_c, 7, 46, 0
13, 583590, Note_on_c, 7, 46, 76
13, 583619, Note_on_c, 7, 46, 0
13, 583620, Note_on_c, 7, 46, 76
13, 583649, Note_on_c, 7, 46, 0
13, 583650, Note_on_c, 7, 46, 76
13, 583679, Note_on_c, 7, 46, 0
13, 583680, Note_on_c, 7, 46, 76
13, 583709, Note_on_c, 7, 46, 0
13, 583710, Note_on_c, 7, 46, 76
13, 583739, Note_on_c, 7, 46, 0
13, 583740, Note_on_c, 7, 46, 76
13, 583769, Note_on_c, 7, 46, 0
13, 583770, Note_on_c, 7, 46, 76
13, 583799, Note_on_c, 7, 46, 0
13, 583800, Note_on_c, 7, 46, 76
13, 583829, Note_on_c, 7, 46, 0
13, 583830, Note_on_c, 7, 46, 76
13, 583859, Note_on_c, 7, 46, 0
13, 583860, Note_on_c, 7, 46, 76
13, 583889, Note_on_c, 7, 46, 0
13, 583890, Note_on_c, 7, 46, 76
13, 583919, Note_on_c, 7, 46, 0
13, 583920, Note_on_c, 7, 46, 76
13, 583949, Note_on_c, 7, 46, 0
13, 583950, Note_on_c, 7, 46, 76
13, 583979, Note_on_c, 7, 46, 0
13, 583980, Note_on_c, 7, 46, 76
13, 584009, Note_on_c, 7, 46, 0
13, 584010, Note_on_c, 7, 46, 76
13, 584039, Note_on_c, 7, 46, 0
13, 584040, Note_on_c, 7, 46, 76
13, 584069, Note_on_c, 7, 46, 0
13, 584070, Note_on_c, 7, 46, 76
13, 584099, Note_on_c, 7, 46, 0
13, 584100, Note_on_c, 7, 46, 76
13, 584129, Note_on_c, 7, 46, 0
13, 584130, Note_on_c, 7, 46, 76
13, 584159, Note_on_c, 7, 46, 0
13, 584160, Note_on_c, 7, 46, 76
13, 584189, Note_on_c, 7, 46, 0
13, 584190, Note_on_c, 7, 46, 76
13, 584219, Note_on_c, 7, 46, 0
13, 584220, Note_on_c, 7, 46, 76
13, 584249, Note_on_c, 7, 46, 0
13, 584250, Note_on_c, 7, 46, 76
13, 584279, Note_on_c, 7, 46, 0
13, 584280, Note_on_c, 7, 46, 76
13, 584309, Note_on_c, 7, 46, 0
13, 584310, Note_on_c, 7, 46, 76
13, 584339, Note_on_c, 7, 46, 0
13, 584340, Note_on_c, 7, 46, 76
13, 584369, Note_on_c, 7, 46, 0
13, 584370, Note_on_c, 7, 46, 76
13, 584399, Note_on_c, 7, 46, 0
13, 584400, Note_on_c, 7, 46, 76
13, 584429, Note_on_c, 7, 46, 0
13, 584430, Note_on_c, 7, 46, 76
13, 584459, Note_on_c, 7, 46, 0
13, 584460, Note_on_c, 7, 46, 76
13, 584489, Note_on_c, 7, 46, 0
13, 584490, Note_on_c, 7, 46, 76
13, 584519, Note_on_c, 7, 46, 0
13, 584520, Note_on_c, 7, 46, 76
13, 584549, Note_on_c, 7, 46, 0
13, 584550, Note_on_c, 7, 46, 76
13, 584579, Note_on_c, 7, 46, 0
13, 584580, Note_on_c, 7, 46, 76
13, 584609, Note_on_c, 7, 46, 0
13, 584610, Note_on_c, 7, 46, 76
13, 584639, Note_on_c, 7, 46, 0
13, 584640, Note_on_c, 7, 46, 76
13, 584669, Note_on_c, 7, 46, 0
13, 584670, Note_on_c, 7, 46, 76
13, 584699, Note_on_c, 7, 46, 0
13, 584700, Note_on_c, 7, 46, 76
13, 584729, Note_on_c, 7, 46, 0
13, 584730, Note_on_c, 7, 46, 76
13, 584759, Note_on_c, 7, 46, 0
13, 584760, Note_on_c, 7, 46, 76
13, 584789, Note_on_c, 7, 46, 0
13, 584790, Note_on_c, 7, 46, 76
13, 584819, Note_on_c, 7, 46, 0
13, 584820, Note_on_c, 7, 46, 76
13, 584849, Note_on_c, 7, 46, 0
13, 584850, Note_on_c, 7, 46, 76
13, 584879, Note_on_c, 7, 46, 0
13, 584880, Note_on_c, 7, 46, 76
13, 584909, Note_on_c, 7, 46, 0
13, 584910, Note_on_c, 7, 46, 76
13, 584939, Note_on_c, 7, 46, 0
13, 584940, Note_on_c, 7, 46, 76
13, 584969, Note_on_c, 7, 46, 0
13, 584970, Note_on_c, 7, 46, 76
13, 584999, Note_on_c, 7, 46, 0
13, 585000, Note_on_c, 7, 46, 76
13, 585029, Note_on_c, 7, 46, 0
13, 585030, Note_on_c, 7, 46, 76
13, 585059, Note_on_c, 7, 46, 0
13, 585060, Note_on_c, 7, 46, 76
13, 585089, Note_on_c, 7, 46, 0
13, 585090, Note_on_c, 7, 46, 76
13, 585119, Note_on_c, 7, 46, 0
13, 585120, Note_on_c, 7, 46, 76
13, 585149, Note_on_c, 7, 46, 0
13, 585150, Note_on_c, 7, 46, 76
13, 585179, Note_on_c, 7, 46, 0
13, 585180, Note_on_c, 7, 46, 76
13, 585209, Note_on_c, 7, 46, 0
13, 585210, Note_on_c, 7, 46, 76
13, 585239, Note_on_c, 7, 46, 0
13, 585240, Note_on_c, 7, 46, 76
13, 585269, Note_on_c, 7, 46, 0
13, 585270, Note_on_c, 7, 46, 76
13, 585299, Note_on_c, 7, 46, 0
13, 585300, Note_on_c, 7, 46, 76
13, 585329, Note_on_c, 7, 46, 0
13, 585330, Note_on_c, 7, 46, 76
13, 585349, Note_on_c, 7, 46, 0
13, 585360, Note_on_c, 7, 46, 76
13, 585599, Note_on_c, 7, 46, 0
13, 585600, Note_on_c, 7, 46, 76
13, 585839, Note_on_c, 7, 46, 0
13, 585840, Note_on_c, 7, 46, 76
13, 586079, Note_on_c, 7, 46, 0
13, 586080, Note_on_c, 7, 46, 76
13, 586319, Note_on_c, 7, 46, 0
13, 586800, Note_on_c, 7, 51, 84
13, 587039, Note_on_c, 7, 51, 0
13, 587520, Note_on_c, 7, 51, 84
13, 587759, Note_on_c, 7, 51, 0
13, 588240, Note_on_c, 7, 51, 84
13, 588479, Note_on_c, 7, 51, 0
13, 589680, Note_on_c, 7, 51, 76
13, 589919, Note_on_c, 7, 51, 0
13, 590400, Note_on_c, 7, 51, 76
13, 590639, Note_on_c, 7, 51, 0
13, 591120, Note_on_c, 7, 46, 84
13, 591149, Note_on_c, 7, 46, 0
13, 591150, Note_on_c, 7, 46, 84
13, 591179, Note_on_c, 7, 46, 0
13, 591180, Note_on_c, 7, 46, 84
13, 591209, Note_on_c, 7, 46, 0
13, 591210, Note_on_c, 7, 46, 84
13, 591239, Note_on_c, 7, 46, 0
13, 591240, Note_on_c, 7, 46, 84
13, 591269, Note_on_c, 7, 46, 0
13, 591270, Note_on_c, 7, 46, 84
13, 591299, Note_on_c, 7, 46, 0
13, 591300, Note_on_c, 7, 46, 84
13, 591329, Note_on_c, 7, 46, 0
13, 591330, Note_on_c, 7, 46, 84
13, 591359, Note_on_c, 7, 46, 0
13, 591360, Note_on_c, 7, 46, 84
13, 591389, Note_on_c, 7, 46, 0
13, 591390, Note_on_c, 7, 46, 84
13, 591419, Note_on_c, 7, 46, 0
13, 591420, Note_on_c, 7, 46, 84
13, 591449, Note_on_c, 7, 46, 0
13, 591450, Note_on_c, 7, 46, 84
13, 591479, Note_on_c, 7, 46, 0
13, 591480, Note_on_c, 7, 46, 84
13, 591509, Note_on_c, 7, 46, 0
13, 591510, Note_on_c, 7, 46, 84
13, 591539, Note_on_c, 7, 46, 0
13, 591540, Note_on_c, 7, 46, 84
13, 591569, Note_on_c, 7, 46, 0
13, 591570, Note_on_c, 7, 46, 84
13, 591599, Note_on_c, 7, 46, 0
13, 591600, Note_on_c, 7, 46, 84
13, 591629, Note_on_c, 7, 46, 0
13, 591630, Note_on_c, 7, 46, 84
13, 591659, Note_on_c, 7, 46, 0
13, 591660, Note_on_c, 7, 46, 84
13, 591689, Note_on_c, 7, 46, 0
13, 591690, Note_on_c, 7, 46, 84
13, 591719, Note_on_c, 7, 46, 0
13, 591720, Note_on_c, 7, 46, 84
13, 591749, Note_on_c, 7, 46, 0
13, 591750, Note_on_c, 7, 46, 84
13, 591779, Note_on_c, 7, 46, 0
13, 591780, Note_on_c, 7, 46, 84
13, 591809, Note_on_c, 7, 46, 0
13, 591810, Note_on_c, 7, 46, 84
13, 591839, Note_on_c, 7, 46, 0
13, 591840, Note_on_c, 7, 46, 84
13, 591869, Note_on_c, 7, 46, 0
13, 591870, Note_on_c, 7, 46, 84
13, 591899, Note_on_c, 7, 46, 0
13, 591900, Note_on_c, 7, 46, 84
13, 591929, Note_on_c, 7, 46, 0
13, 591930, Note_on_c, 7, 46, 84
13, 591959, Note_on_c, 7, 46, 0
13, 591960, Note_on_c, 7, 46, 84
13, 591989, Note_on_c, 7, 46, 0
13, 591990, Note_on_c, 7, 46, 84
13, 592019, Note_on_c, 7, 46, 0
13, 592020, Note_on_c, 7, 46, 84
13, 592049, Note_on_c, 7, 46, 0
13, 592050, Note_on_c, 7, 46, 84
13, 592079, Note_on_c, 7, 46, 0
13, 592080, Note_on_c, 7, 46, 84
13, 592109, Note_on_c, 7, 46, 0
13, 592110, Note_on_c, 7, 46, 84
13, 592139, Note_on_c, 7, 46, 0
13, 592140, Note_on_c, 7, 46, 84
13, 592169, Note_on_c, 7, 46, 0
13, 592170, Note_on_c, 7, 46, 84
13, 592199, Note_on_c, 7, 46, 0
13, 592200, Note_on_c, 7, 46, 84
13, 592229, Note_on_c, 7, 46, 0
13, 592230, Note_on_c, 7, 46, 84
13, 592259, Note_on_c, 7, 46, 0
13, 592260, Note_on_c, 7, 46, 84
13, 592289, Note_on_c, 7, 46, 0
13, 592290, Note_on_c, 7, 46, 84
13, 592319, Note_on_c, 7, 46, 0
13, 592320, Note_on_c, 7, 46, 84
13, 592349, Note_on_c, 7, 46, 0
13, 592350, Note_on_c, 7, 46, 84
13, 592379, Note_on_c, 7, 46, 0
13, 592380, Note_on_c, 7, 46, 84
13, 592409, Note_on_c, 7, 46, 0
13, 592410, Note_on_c, 7, 46, 84
13, 592439, Note_on_c, 7, 46, 0
13, 592440, Note_on_c, 7, 46, 84
13, 592469, Note_on_c, 7, 46, 0
13, 592470, Note_on_c, 7, 46, 84
13, 592499, Note_on_c, 7, 46, 0
13, 592500, Note_on_c, 7, 46, 84
13, 592529, Note_on_c, 7, 46, 0
13, 592530, Note_on_c, 7, 46, 84
13, 592549, Note_on_c, 7, 46, 0
13, 598560, Note_on_c, 7, 46, 76
13, 598799, Note_on_c, 7, 46, 0
13, 599280, Note_on_c, 7, 46, 84
13, 599519, Note_on_c, 7, 46, 0
13, 600000, Note_on_c, 7, 46, 84
13, 600239, Note_on_c, 7, 46, 0
13, 600480, Note_on_c, 7, 46, 84
13, 600719, Note_on_c, 7, 46, 0
13, 600960, Note_on_c, 7, 46, 84
13, 601199, Note_on_c, 7, 46, 0
13, 601200, Note_on_c, 7, 46, 84
13, 601379, Note_on_c, 7, 46, 0
13, 601440, Note_on_c, 7, 46, 84
13, 601619, Note_on_c, 7, 46, 0
13, 601680, Note_on_c, 7, 46, 84
13, 601859, Note_on_c, 7, 46, 0
13, 601920, Note_on_c, 7, 46, 84
13, 602099, Note_on_c, 7, 46, 0
13, 602160, Note_on_c, 7, 46, 84
13, 602339, Note_on_c, 7, 46, 0
13, 602400, Note_on_c, 7, 46, 84
13, 602579, Note_on_c, 7, 46, 0
13, 602640, Note_on_c, 7, 46, 84
13, 602819, Note_on_c, 7, 46, 0
13, 602880, Note_on_c, 7, 46, 84
13, 603059, Note_on_c, 7, 46, 0
13, 603120, Note_on_c, 7, 46, 84
13, 603299, Note_on_c, 7, 46, 0
13, 603360, Note_on_c, 7, 46, 84
13, 603539, Note_on_c, 7, 46, 0
13, 603600, Note_on_c, 7, 46, 84
13, 603779, Note_on_c, 7, 46, 0
13, 603840, Note_on_c, 7, 46, 84
13, 604019, Note_on_c, 7, 46, 0
13, 604080, Note_on_c, 7, 51, 84
13, 604319, Note_on_c, 7, 51, 0
13, 604800, Note_on_c, 7, 51, 84
13, 605039, Note_on_c, 7, 51, 0
13, 605520, Note_on_c, 7, 51, 84
13, 605759, Note_on_c, 7, 51, 0
13, 605759, End_track
14, 0, Start_track
14, 0, Title_t, "Violin I"
14, 0, MIDI_port, 0
14, 0, Program_c, 11, 48
14, 0, Control_c, 11, 7, 96
14, 0, Control_c, 11, 10, 48
14, 0, Control_c, 11, 11, 127
14, 0, Note_on_c, 11, 79, 76
14, 0, Note_on_c, 11, 70, 76
14, 0, Note_on_c, 11, 63, 76
14, 0, Note_on_c, 11, 55, 76
14, 179, Note_on_c, 11, 79, 0
14, 179, Note_on_c, 11, 70, 0
14, 179, Note_on_c, 11, 63, 0
14, 179, Note_on_c, 11, 55, 0
14, 720, Note_on_c, 11, 70, 76
14, 720, Note_on_c, 11, 79, 76
14, 720, Note_on_c, 11, 55, 76
14, 720, Note_on_c, 11, 63, 76
14, 899, Note_on_c, 11, 70, 0
14, 899, Note_on_c, 11, 79, 0
14, 899, Note_on_c, 11, 55, 0
14, 899, Note_on_c, 11, 63, 0
14, 2880, Control_c, 11, 11, 96
14, 4410, Control_c, 11, 11, 97
14, 4440, Note_on_c, 11, 79, 68
14, 4500, Control_c, 11, 11, 99
14, 4590, Control_c, 11, 11, 100
14, 4664, Note_on_c, 11, 79, 0
14, 4680, Note_on_c, 11, 79, 68
14, 4680, Control_c, 11, 11, 101
14, 4770, Control_c, 11, 11, 102
14, 4860, Control_c, 11, 11, 104
14, 4904, Note_on_c, 11, 79, 0
14, 4920, Note_on_c, 11, 79, 68
14, 4950, Control_c, 11, 11, 105
14, 5040, Control_c, 11, 11, 106
14, 5130, Control_c, 11, 11, 108
14, 5144, Note_on_c, 11, 79, 0
14, 5160, Note_on_c, 11, 79, 68
14, 5220, Control_c, 11, 11, 109
14, 5310, Control_c, 11, 11, 110
14, 5384, Note_on_c, 11, 79, 0
14, 5400, Note_on_c, 11, 79, 68
14, 5400, Control_c, 11, 11, 112
14, 5490, Control_c, 11, 11, 113
14, 5580, Control_c, 11, 11, 114
14, 5624, Note_on_c, 11, 79, 0
14, 5640, Note_on_c, 11, 79, 68
14, 5670, Control_c, 11, 11, 115
14, 5760, Control_c, 11, 11, 117
14, 5850, Control_c, 11, 11, 118
14, 5940, Control_c, 11, 11, 119
14, 6030, Control_c, 11, 11, 121
14, 6120, Control_c, 11, 11, 122
14, 6210, Control_c, 11, 11, 123
14, 6300, Control_c, 11, 11, 124
14, 6390, Control_c, 11, 11, 127
14, 6464, Note_on_c, 11, 79, 0
14, 6480, Note_on_c, 11, 80, 76
14, 6480, Control_c, 11, 11, 127
14, 6540, Control_c, 11, 11, 123
14, 6600, Control_c, 11, 11, 119
14, 6660, Control_c, 11, 11, 115
14, 6720, Control_c, 11, 11, 111
14, 6780, Control_c, 11, 11, 107
14, 6840, Control_c, 11, 11, 104
14, 6900, Control_c, 11, 11, 100
14, 6960, Control_c, 11, 11, 96
14, 7020, Control_c, 11, 11, 92
14, 7080, Control_c, 11, 11, 88
14, 7140, Control_c, 11, 11, 84
14, 7200, Control_c, 11, 11, 80
14, 7649, Note_on_c, 11, 80, 0
14, 7665, Control_c, 11, 11, 96
14, 7680, Note_on_c, 11, 79, 68
14, 7919, Note_on_c, 11, 79, 0
14, 7920, Note_on_c, 11, 77, 68
14, 8159, Note_on_c, 11, 77, 0
14, 8160, Note_on_c, 11, 79, 68
14, 8399, Note_on_c, 11, 79, 0
14, 8400, Note_on_c, 11, 80, 68
14, 8624, Note_on_c, 11, 80, 0
14, 8640, Note_on_c, 11, 79, 68
14, 8640, Control_c, 11, 11, 96
14, 8759, Note_on_c, 11, 79, 0
14, 8760, Note_on_c, 11, 82, 68
14, 8760, Control_c, 11, 11, 99
14, 8879, Note_on_c, 11, 82, 0
14, 8880, Control_c, 11, 11, 101
14, 8880, Note_on_c, 11, 80, 68
14, 8999, Note_on_c, 11, 80, 0
14, 9000, Note_on_c, 11, 79, 68
14, 9000, Control_c, 11, 11, 104
14, 9119, Note_on_c, 11, 79, 0
14, 9120, Control_c, 11, 11, 106
14, 9120, Note_on_c, 11, 77, 68
14, 9239, Note_on_c, 11, 77, 0
14, 9240, Control_c, 11, 11, 109
14, 9240, Note_on_c, 11, 75, 68
14, 9344, Note_on_c, 11, 75, 0
14, 9360, Control_c, 11, 11, 112
14, 9360, Note_on_c, 11, 74, 68
14, 9479, Note_on_c, 11, 74, 0
14, 9480, Control_c, 11, 11, 114
14, 9480, Note_on_c, 11, 70, 68
14, 9599, Note_on_c, 11, 70, 0
14, 9600, Control_c, 11, 11, 117
14, 9600, Note_on_c, 11, 75, 68
14, 9719, Note_on_c, 11, 75, 0
14, 9720, Control_c, 11, 11, 119
14, 9720, Note_on_c, 11, 70, 68
14, 9839, Note_on_c, 11, 70, 0
14, 9840, Note_on_c, 11, 68, 68
14, 9840, Control_c, 11, 11, 122
14, 9959, Note_on_c, 11, 68, 0
14, 9960, Note_on_c, 11, 65, 68
14, 9960, Control_c, 11, 11, 127
14, 10064, Note_on_c, 11, 65, 0
14, 10080, Note_on_c, 11, 63, 52
14, 10319, Note_on_c, 11, 63, 0
14, 12720, Note_on_c, 11, 76, 52
14, 12959, Note_on_c, 11, 76, 0
14, 12960, Note_on_c, 11, 77, 52
14, 13199, Note_on_c, 11, 77, 0
14, 13200, Note_on_c, 11, 80, 52
14, 13439, Note_on_c, 11, 80, 0
14, 13440, Note_on_c, 11, 84, 52
14, 13664, Note_on_c, 11, 84, 0
14, 13680, Note_on_c, 11, 77, 52
14, 13919, Note_on_c, 11, 77, 0
14, 15600, Note_on_c, 11, 81, 76
14, 15839, Note_on_c, 11, 81, 0
14, 15840, Note_on_c, 11, 82, 76
14, 15960, Control_c, 11, 11, 80
14, 16289, Note_on_c, 11, 82, 0
14, 16305, Control_c, 11, 11, 127
14, 16320, Note_on_c, 11, 77, 52
14, 16559, Note_on_c, 11, 77, 0
14, 16560, Note_on_c, 11, 74, 52
14, 16799, Note_on_c, 11, 74, 0
14, 16800, Note_on_c, 11, 70, 52
14, 17039, Note_on_c, 11, 70, 0
14, 17040, Note_on_c, 11, 68, 52
14, 17264, Note_on_c, 11, 68, 0
14, 17280, Note_on_c, 11, 67, 52
14, 17459, Note_on_c, 11, 67, 0
14, 17520, Note_on_c, 11, 75, 76
14, 17759, Note_on_c, 11, 75, 0
14, 17760, Note_on_c, 11, 69, 52
14, 17984, Note_on_c, 11, 69, 0
14, 18000, Note_on_c, 11, 81, 76
14, 18239, Note_on_c, 11, 81, 0
14, 18240, Note_on_c, 11, 69, 52
14, 18464, Note_on_c, 11, 69, 0
14, 18480, Note_on_c, 11, 81, 76
14, 18719, Note_on_c, 11, 81, 0
14, 18720, Note_on_c, 11, 82, 76
14, 18840, Control_c, 11, 11, 80
14, 19169, Note_on_c, 11, 82, 0
14, 19185, Control_c, 11, 11, 127
14, 19200, Note_on_c, 11, 77, 52
14, 19439, Note_on_c, 11, 77, 0
14, 19440, Note_on_c, 11, 74, 52
14, 19679, Note_on_c, 11, 74, 0
14, 19680, Note_on_c, 11, 70, 52
14, 19904, Note_on_c, 11, 70, 0
14, 19920, Note_on_c, 11, 62, 76
14, 19920, Note_on_c, 11, 70, 76
14, 20159, Note_on_c, 11, 62, 0
14, 20159, Note_on_c, 11, 70, 0
14, 20160, Note_on_c, 11, 70, 52
14, 20160, Note_on_c, 11, 62, 52
14, 20369, Note_on_c, 11, 70, 0
14, 20369, Note_on_c, 11, 62, 0
14, 20400, Note_on_c, 11, 74, 76
14, 20639, Note_on_c, 11, 74, 0
14, 20640, Note_on_c, 11, 70, 52
14, 20864, Note_on_c, 11, 70, 0
14, 20880, Note_on_c, 11, 77, 76
14, 21119, Note_on_c, 11, 77, 0
14, 21120, Note_on_c, 11, 70, 52
14, 21344, Note_on_c, 11, 70, 0
14, 21360, Note_on_c, 11, 82, 76
14, 21360, Note_on_c, 11, 70, 76
14, 21599, Note_on_c, 11, 82, 0
14, 21599, Note_on_c, 11, 70, 0
14, 21600, Note_on_c, 11, 70, 52
14, 21600, Note_on_c, 11, 82, 52
14, 21824, Note_on_c, 11, 70, 0
14, 21824, Note_on_c, 11, 82, 0
14, 21840, Note_on_c, 11, 75, 76
14, 22079, Note_on_c, 11, 75, 0
14, 22080, Note_on_c, 11, 70, 52
14, 22304, Note_on_c, 11, 70, 0
14, 22320, Note_on_c, 11, 79, 76
14, 22559, Note_on_c, 11, 79, 0
14, 22560, Note_on_c, 11, 70, 52
14, 22784, Note_on_c, 11, 70, 0
14, 22800, Note_on_c, 11, 70, 76
14, 22800, Note_on_c, 11, 82, 76
14, 23039, Note_on_c, 11, 70, 0
14, 23039, Note_on_c, 11, 82, 0
14, 23040, Note_on_c, 11, 82, 52
14, 23040, Note_on_c, 11, 70, 52
14, 23264, Note_on_c, 11, 82, 0
14, 23264, Note_on_c, 11, 70, 0
14, 23280, Note_on_c, 11, 70, 52
14, 23459, Note_on_c, 11, 70, 0
14, 23520, Note_on_c, 11, 82, 76
14, 23520, Note_on_c, 11, 70, 76
14, 23759, Note_on_c, 11, 82, 0
14, 23759, Note_on_c, 11, 70, 0
14, 23760, Note_on_c, 11, 82, 52
14, 23760, Note_on_c, 11, 70, 52
14, 23984, Note_on_c, 11, 82, 0
14, 23984, Note_on_c, 11, 70, 0
14, 24000, Note_on_c, 11, 70, 52
14, 24179, Note_on_c, 11, 70, 0
14, 24240, Note_on_c, 11, 70, 76
14, 24240, Note_on_c, 11, 82, 76
14, 24479, Note_on_c, 11, 70, 0
14, 24479, Note_on_c, 11, 82, 0
14, 24480, Note_on_c, 11, 82, 52
14, 24480, Note_on_c, 11, 70, 52
14, 24704, Note_on_c, 11, 82, 0
14, 24704, Note_on_c, 11, 70, 0
14, 24720, Note_on_c, 11, 70, 52
14, 24771, Note_on_c, 11, 70, 0
14, 24780, Note_on_c, 11, 70, 53
14, 24831, Note_on_c, 11, 70, 0
14, 24840, Note_on_c, 11, 72, 55
14, 24891, Note_on_c, 11, 72, 0
14, 24900, Note_on_c, 11, 72, 56
14, 24951, Note_on_c, 11, 72, 0
14, 24960, Note_on_c, 11, 74, 58
14, 25011, Note_on_c, 11, 74, 0
14, 25020, Note_on_c, 11, 74, 60
14, 25071, Note_on_c, 11, 74, 0
14, 25080, Note_on_c, 11, 75, 61
14, 25131, Note_on_c, 11, 75, 0
14, 25140, Note_on_c, 11, 75, 63
14, 25191, Note_on_c, 11, 75, 0
14, 25200, Note_on_c, 11, 77, 64
14, 25251, Note_on_c, 11, 77, 0
14, 25260, Note_on_c, 11, 77, 66
14, 25311, Note_on_c, 11, 77, 0
14, 25320, Note_on_c, 11, 79, 68
14, 25371, Note_on_c, 11, 79, 0
14, 25380, Note_on_c, 11, 79, 69
14, 25431, Note_on_c, 11, 79, 0
14, 25440, Note_on_c, 11, 80, 71
14, 25491, Note_on_c, 11, 80, 0
14, 25500, Note_on_c, 11, 80, 72
14, 25551, Note_on_c, 11, 80, 0
14, 25560, Note_on_c, 11, 82, 74
14, 25611, Note_on_c, 11, 82, 0
14, 25620, Note_on_c, 11, 82, 76
14, 25671, Note_on_c, 11, 82, 0
14, 25680, Note_on_c, 11, 84, 77
14, 25731, Note_on_c, 11, 84, 0
14, 25740, Note_on_c, 11, 84, 79
14, 25791, Note_on_c, 11, 84, 0
14, 25800, Note_on_c, 11, 86, 80
14, 25851, Note_on_c, 11, 86, 0
14, 25860, Note_on_c, 11, 86, 82
14, 25911, Note_on_c, 11, 86, 0
14, 25920, Note_on_c, 11, 87, 84
14, 25971, Note_on_c, 11, 87, 0
14, 25980, Note_on_c, 11, 87, 84
14, 26031, Note_on_c, 11, 87, 0
14, 26040, Note_on_c, 11, 87, 84
14, 26091, Note_on_c, 11, 87, 0
14, 26100, Note_on_c, 11, 87, 84
14, 26151, Note_on_c, 11, 87, 0
14, 26160, Note_on_c, 11, 87, 84
14, 26211, Note_on_c, 11, 87, 0
14, 26220, Note_on_c, 11, 87, 84
14, 26271, Note_on_c, 11, 87, 0
14, 26280, Note_on_c, 11, 87, 84
14, 26331, Note_on_c, 11, 87, 0
14, 26340, Note_on_c, 11, 87, 84
14, 26391, Note_on_c, 11, 87, 0
14, 26400, Note_on_c, 11, 87, 84
14, 26451, Note_on_c, 11, 87, 0
14, 26460, Note_on_c, 11, 87, 84
14, 26511, Note_on_c, 11, 87, 0
14, 26520, Note_on_c, 11, 87, 84
14, 26571, Note_on_c, 11, 87, 0
14, 26580, Note_on_c, 11, 87, 84
14, 26631, Note_on_c, 11, 87, 0
14, 26640, Note_on_c, 11, 87, 84
14, 26691, Note_on_c, 11, 87, 0
14, 26700, Note_on_c, 11, 87, 84
14, 26751, Note_on_c, 11, 87, 0
14, 26760, Note_on_c, 11, 87, 84
14, 26811, Note_on_c, 11, 87, 0
14, 26820, Note_on_c, 11, 87, 84
14, 26871, Note_on_c, 11, 87, 0
14, 26880, Note_on_c, 11, 87, 84
14, 26931, Note_on_c, 11, 87, 0
14, 26940, Note_on_c, 11, 87, 84
14, 26991, Note_on_c, 11, 87, 0
14, 27000, Note_on_c, 11, 87, 84
14, 27051, Note_on_c, 11, 87, 0
14, 27060, Note_on_c, 11, 87, 84
14, 27111, Note_on_c, 11, 87, 0
14, 27120, Note_on_c, 11, 87, 84
14, 27171, Note_on_c, 11, 87, 0
14, 27180, Note_on_c, 11, 87, 84
14, 27231, Note_on_c, 11, 87, 0
14, 27240, Note_on_c, 11, 87, 84
14, 27291, Note_on_c, 11, 87, 0
14, 27300, Note_on_c, 11, 87, 84
14, 27351, Note_on_c, 11, 87, 0
14, 27360, Note_on_c, 11, 87, 84
14, 27411, Note_on_c, 11, 87, 0
14, 27420, Note_on_c, 11, 87, 84
14, 27471, Note_on_c, 11, 87, 0
14, 27480, Note_on_c, 11, 87, 84
14, 27531, Note_on_c, 11, 87, 0
14, 27540, Note_on_c, 11, 87, 84
14, 27591, Note_on_c, 11, 87, 0
14, 27600, Note_on_c, 11, 87, 84
14, 27651, Note_on_c, 11, 87, 0
14, 27660, Note_on_c, 11, 87, 84
14, 27711, Note_on_c, 11, 87, 0
14, 27720, Note_on_c, 11, 87, 84
14, 27771, Note_on_c, 11, 87, 0
14, 27780, Note_on_c, 11, 87, 84
14, 27831, Note_on_c, 11, 87, 0
14, 27840, Note_on_c, 11, 87, 84
14, 27891, Note_on_c, 11, 87, 0
14, 27900, Note_on_c, 11, 87, 84
14, 27951, Note_on_c, 11, 87, 0
14, 27960, Note_on_c, 11, 87, 84
14, 28011, Note_on_c, 11, 87, 0
14, 28020, Note_on_c, 11, 87, 84
14, 28071, Note_on_c, 11, 87, 0
14, 28080, Note_on_c, 11, 87, 84
14, 28131, Note_on_c, 11, 87, 0
14, 28140, Note_on_c, 11, 87, 84
14, 28191, Note_on_c, 11, 87, 0
14, 28200, Note_on_c, 11, 87, 84
14, 28251, Note_on_c, 11, 87, 0
14, 28260, Note_on_c, 11, 87, 84
14, 28311, Note_on_c, 11, 87, 0
14, 28320, Note_on_c, 11, 87, 84
14, 28371, Note_on_c, 11, 87, 0
14, 28380, Note_on_c, 11, 87, 84
14, 28431, Note_on_c, 11, 87, 0
14, 28440, Note_on_c, 11, 87, 84
14, 28491, Note_on_c, 11, 87, 0
14, 28500, Note_on_c, 11, 87, 84
14, 28551, Note_on_c, 11, 87, 0
14, 28560, Note_on_c, 11, 87, 92
14, 28611, Note_on_c, 11, 87, 0
14, 28620, Note_on_c, 11, 87, 84
14, 28671, Note_on_c, 11, 87, 0
14, 28680, Note_on_c, 11, 87, 84
14, 28731, Note_on_c, 11, 87, 0
14, 28740, Note_on_c, 11, 87, 84
14, 28791, Note_on_c, 11, 87, 0
14, 28800, Note_on_c, 11, 87, 84
14, 28851, Note_on_c, 11, 87, 0
14, 28860, Note_on_c, 11, 87, 84
14, 28911, Note_on_c, 11, 87, 0
14, 28920, Note_on_c, 11, 87, 84
14, 28971, Note_on_c, 11, 87, 0
14, 28980, Note_on_c, 11, 87, 84
14, 29031, Note_on_c, 11, 87, 0
14, 29040, Note_on_c, 11, 87, 84
14, 29091, Note_on_c, 11, 87, 0
14, 29100, Note_on_c, 11, 87, 84
14, 29151, Note_on_c, 11, 87, 0
14, 29160, Note_on_c, 11, 87, 84
14, 29211, Note_on_c, 11, 87, 0
14, 29220, Note_on_c, 11, 87, 84
14, 29271, Note_on_c, 11, 87, 0
14, 29280, Note_on_c, 11, 87, 84
14, 29331, Note_on_c, 11, 87, 0
14, 29340, Note_on_c, 11, 87, 84
14, 29391, Note_on_c, 11, 87, 0
14, 29400, Note_on_c, 11, 87, 84
14, 29451, Note_on_c, 11, 87, 0
14, 29460, Note_on_c, 11, 87, 84
14, 29511, Note_on_c, 11, 87, 0
14, 29520, Note_on_c, 11, 87, 84
14, 29571, Note_on_c, 11, 87, 0
14, 29580, Note_on_c, 11, 87, 84
14, 29631, Note_on_c, 11, 87, 0
14, 29640, Note_on_c, 11, 87, 84
14, 29691, Note_on_c, 11, 87, 0
14, 29700, Note_on_c, 11, 87, 84
14, 29751, Note_on_c, 11, 87, 0
14, 29760, Note_on_c, 11, 87, 84
14, 29811, Note_on_c, 11, 87, 0
14, 29820, Note_on_c, 11, 87, 84
14, 29871, Note_on_c, 11, 87, 0
14, 29880, Note_on_c, 11, 87, 84
14, 29931, Note_on_c, 11, 87, 0
14, 29940, Note_on_c, 11, 87, 84
14, 29991, Note_on_c, 11, 87, 0
14, 30000, Note_on_c, 11, 87, 92
14, 30051, Note_on_c, 11, 87, 0
14, 30060, Note_on_c, 11, 87, 84
14, 30111, Note_on_c, 11, 87, 0
14, 30120, Note_on_c, 11, 87, 84
14, 30171, Note_on_c, 11, 87, 0
14, 30180, Note_on_c, 11, 87, 84
14, 30231, Note_on_c, 11, 87, 0
14, 30240, Note_on_c, 11, 87, 84
14, 30291, Note_on_c, 11, 87, 0
14, 30300, Note_on_c, 11, 87, 84
14, 30351, Note_on_c, 11, 87, 0
14, 30360, Note_on_c, 11, 87, 84
14, 30411, Note_on_c, 11, 87, 0
14, 30420, Note_on_c, 11, 87, 84
14, 30471, Note_on_c, 11, 87, 0
14, 30480, Note_on_c, 11, 87, 84
14, 30531, Note_on_c, 11, 87, 0
14, 30540, Note_on_c, 11, 87, 84
14, 30591, Note_on_c, 11, 87, 0
14, 30600, Note_on_c, 11, 87, 84
14, 30651, Note_on_c, 11, 87, 0
14, 30660, Note_on_c, 11, 87, 84
14, 30711, Note_on_c, 11, 87, 0
14, 30720, Note_on_c, 11, 87, 84
14, 30771, Note_on_c, 11, 87, 0
14, 30780, Note_on_c, 11, 87, 84
14, 30831, Note_on_c, 11, 87, 0
14, 30840, Note_on_c, 11, 87, 84
14, 30891, Note_on_c, 11, 87, 0
14, 30900, Note_on_c, 11, 87, 84
14, 30951, Note_on_c, 11, 87, 0
14, 30960, Note_on_c, 11, 88, 84
14, 31011, Note_on_c, 11, 88, 0
14, 31020, Note_on_c, 11, 88, 84
14, 31071, Note_on_c, 11, 88, 0
14, 31080, Note_on_c, 11, 88, 84
14, 31131, Note_on_c, 11, 88, 0
14, 31140, Note_on_c, 11, 88, 84
14, 31191, Note_on_c, 11, 88, 0
14, 31200, Note_on_c, 11, 88, 84
14, 31251, Note_on_c, 11, 88, 0
14, 31260, Note_on_c, 11, 88, 84
14, 31311, Note_on_c, 11, 88, 0
14, 31320, Note_on_c, 11, 88, 84
14, 31371, Note_on_c, 11, 88, 0
14, 31380, Note_on_c, 11, 88, 84
14, 31431, Note_on_c, 11, 88, 0
14, 31440, Note_on_c, 11, 88, 84
14, 31491, Note_on_c, 11, 88, 0
14, 31500, Note_on_c, 11, 88, 84
14, 31551, Note_on_c, 11, 88, 0
14, 31560, Note_on_c, 11, 88, 84
14, 31611, Note_on_c, 11, 88, 0
14, 31620, Note_on_c, 11, 88, 84
14, 31671, Note_on_c, 11, 88, 0
14, 31680, Note_on_c, 11, 89, 84
14, 31919, Note_on_c, 11, 89, 0
14, 34080, Note_on_c, 11, 84, 52
14, 34439, Note_on_c, 11, 84, 0
14, 34440, Note_on_c, 11, 75, 52
14, 34544, Note_on_c, 11, 75, 0
14, 34560, Note_on_c, 11, 74, 52
14, 34799, Note_on_c, 11, 74, 0
14, 36960, Note_on_c, 11, 82, 52
14, 37319, Note_on_c, 11, 82, 0
14, 37320, Note_on_c, 11, 74, 52
14, 37424, Note_on_c, 11, 74, 0
14, 37440, Note_on_c, 11, 75, 52
14, 37529, Note_on_c, 11, 75, 0
14, 37560, Note_on_c, 11, 60, 52
14, 37679, Note_on_c, 11, 60, 0
14, 37680, Note_on_c, 11, 63, 52
14, 37799, Note_on_c, 11, 63, 0
14, 37800, Note_on_c, 11, 60, 52
14, 37919, Note_on_c, 11, 60, 0
14, 37920, Note_on_c, 11, 63, 52
14, 38039, Note_on_c, 11, 63, 0
14, 38040, Note_on_c, 11, 60, 52
14, 38144, Note_on_c, 11, 60, 0
14, 38160, Note_on_c, 11, 63, 52
14, 38279, Note_on_c, 11, 63, 0
14, 38280, Note_on_c, 11, 60, 52
14, 38399, Note_on_c, 11, 60, 0
14, 38400, Note_on_c, 11, 63, 52
14, 38519, Note_on_c, 11, 63, 0
14, 38520, Note_on_c, 11, 60, 52
14, 38639, Note_on_c, 11, 60, 0
14, 38640, Note_on_c, 11, 63, 52
14, 38759, Note_on_c, 11, 63, 0
14, 38760, Note_on_c, 11, 60, 52
14, 38864, Note_on_c, 11, 60, 0
14, 38880, Note_on_c, 11, 63, 52
14, 39104, Note_on_c, 11, 63, 0
14, 39120, Note_on_c, 11, 79, 84
14, 39464, Note_on_c, 11, 79, 0
14, 39480, Note_on_c, 11, 77, 84
14, 39584, Note_on_c, 11, 77, 0
14, 39600, Note_on_c, 11, 75, 84
14, 39779, Note_on_c, 11, 75, 0
14, 39840, Note_on_c, 11, 74, 84
14, 40019, Note_on_c, 11, 74, 0
14, 40080, Note_on_c, 11, 72, 84
14, 40259, Note_on_c, 11, 72, 0
14, 40305, Control_c, 11, 11, 96
14, 40320, Control_c, 11, 11, 96
14, 40320, Note_on_c, 11, 70, 68
14, 40380, Control_c, 11, 11, 99
14, 40440, Control_c, 11, 11, 101
14, 40500, Control_c, 11, 11, 104
14, 40560, Control_c, 11, 11, 106
14, 40620, Control_c, 11, 11, 109
14, 40680, Control_c, 11, 11, 112
14, 40740, Control_c, 11, 11, 114
14, 40800, Control_c, 11, 11, 117
14, 40860, Control_c, 11, 11, 119
14, 40920, Control_c, 11, 11, 122
14, 40980, Control_c, 11, 11, 124
14, 41039, Note_on_c, 11, 70, 0
14, 41040, Note_on_c, 11, 70, 68
14, 41040, Control_c, 11, 11, 127
14, 41100, Control_c, 11, 11, 124
14, 41160, Control_c, 11, 11, 122
14, 41220, Control_c, 11, 11, 119
14, 41280, Control_c, 11, 11, 117
14, 41340, Control_c, 11, 11, 114
14, 41400, Control_c, 11, 11, 112
14, 41460, Control_c, 11, 11, 109
14, 41520, Control_c, 11, 11, 106
14, 41580, Control_c, 11, 11, 104
14, 41640, Control_c, 11, 11, 101
14, 41700, Control_c, 11, 11, 96
14, 41984, Note_on_c, 11, 70, 0
14, 42000, Note_on_c, 11, 77, 68
14, 42209, Note_on_c, 11, 77, 0
14, 42240, Note_on_c, 11, 77, 68
14, 42449, Note_on_c, 11, 77, 0
14, 42480, Note_on_c, 11, 77, 68
14, 42689, Note_on_c, 11, 77, 0
14, 42720, Note_on_c, 11, 77, 68
14, 42929, Note_on_c, 11, 77, 0
14, 42960, Note_on_c, 11, 77, 68
14, 43169, Note_on_c, 11, 77, 0
14, 43185, Control_c, 11, 11, 80
14, 43200, Note_on_c, 11, 77, 76
14, 43200, Control_c, 11, 11, 80
14, 43289, Note_on_c, 11, 77, 0
14, 43320, Note_on_c, 11, 74, 76
14, 43320, Control_c, 11, 11, 82
14, 43439, Note_on_c, 11, 74, 0
14, 43440, Control_c, 11, 11, 84
14, 43440, Note_on_c, 11, 72, 76
14, 43559, Note_on_c, 11, 72, 0
14, 43560, Note_on_c, 11, 74, 76
14, 43560, Control_c, 11, 11, 86
14, 43679, Note_on_c, 11, 74, 0
14, 43680, Note_on_c, 11, 75, 76
14, 43680, Control_c, 11, 11, 88
14, 43799, Note_on_c, 11, 75, 0
14, 43800, Note_on_c, 11, 77, 76
14, 43800, Control_c, 11, 11, 90
14, 43904, Note_on_c, 11, 77, 0
14, 43920, Note_on_c, 11, 79, 76
14, 43920, Control_c, 11, 11, 92
14, 44039, Note_on_c, 11, 79, 0
14, 44040, Note_on_c, 11, 81, 76
14, 44040, Control_c, 11, 11, 94
14, 44144, Note_on_c, 11, 81, 0
14, 44160, Control_c, 11, 11, 96
14, 44160, Note_on_c, 11, 82, 76
14, 44249, Note_on_c, 11, 82, 0
14, 44280, Control_c, 11, 11, 98
14, 44280, Note_on_c, 11, 82, 76
14, 44369, Note_on_c, 11, 82, 0
14, 44400, Note_on_c, 11, 82, 76
14, 44400, Control_c, 11, 11, 100
14, 44489, Note_on_c, 11, 82, 0
14, 44520, Control_c, 11, 11, 102
14, 44520, Note_on_c, 11, 82, 76
14, 44609, Note_on_c, 11, 82, 0
14, 44640, Control_c, 11, 11, 104
14, 44640, Note_on_c, 11, 82, 76
14, 44729, Note_on_c, 11, 82, 0
14, 44760, Control_c, 11, 11, 105
14, 44760, Note_on_c, 11, 82, 76
14, 44849, Note_on_c, 11, 82, 0
14, 44880, Control_c, 11, 11, 107
14, 44880, Note_on_c, 11, 81, 76
14, 44969, Note_on_c, 11, 81, 0
14, 45000, Note_on_c, 11, 82, 76
14, 45000, Control_c, 11, 11, 109
14, 45089, Note_on_c, 11, 82, 0
14, 45120, Control_c, 11, 11, 111
14, 45120, Note_on_c, 11, 84, 76
14, 45209, Note_on_c, 11, 84, 0
14, 45240, Note_on_c, 11, 86, 76
14, 45240, Control_c, 11, 11, 113
14, 45329, Note_on_c, 11, 86, 0
14, 45360, Note_on_c, 11, 87, 76
14, 45360, Control_c, 11, 11, 115
14, 45449, Note_on_c, 11, 87, 0
14, 45480, Note_on_c, 11, 87, 76
14, 45480, Control_c, 11, 11, 117
14, 45569, Note_on_c, 11, 87, 0
14, 45600, Note_on_c, 11, 87, 76
14, 45600, Control_c, 11, 11, 119
14, 45689, Note_on_c, 11, 87, 0
14, 45720, Note_on_c, 11, 87, 76
14, 45720, Control_c, 11, 11, 121
14, 45809, Note_on_c, 11, 87, 0
14, 45840, Control_c, 11, 11, 123
14, 45840, Note_on_c, 11, 87, 76
14, 45929, Note_on_c, 11, 87, 0
14, 45960, Control_c, 11, 11, 127
14, 45960, Note_on_c, 11, 87, 76
14, 46049, Note_on_c, 11, 87, 0
14, 46080, Note_on_c, 11, 87, 76
14, 46169, Note_on_c, 11, 87, 0
14, 46200, Note_on_c, 11, 84, 76
14, 46259, Note_on_c, 11, 84, 0
14, 46260, Note_on_c, 11, 86, 76
14, 46311, Note_on_c, 11, 86, 0
14, 46320, Note_on_c, 11, 84, 76
14, 46409, Note_on_c, 11, 84, 0
14, 46440, Note_on_c, 11, 81, 76
14, 46499, Note_on_c, 11, 81, 0
14, 46500, Note_on_c, 11, 82, 76
14, 46551, Note_on_c, 11, 82, 0
14, 46560, Note_on_c, 11, 81, 76
14, 46649, Note_on_c, 11, 81, 0
14, 46680, Note_on_c, 11, 75, 76
14, 46739, Note_on_c, 11, 75, 0
14, 46740, Note_on_c, 11, 77, 76
14, 46791, Note_on_c, 11, 77, 0
14, 46800, Note_on_c, 11, 75, 76
14, 46889, Note_on_c, 11, 75, 0
14, 46920, Note_on_c, 11, 72, 76
14, 46979, Note_on_c, 11, 72, 0
14, 46980, Note_on_c, 11, 74, 76
14, 47031, Note_on_c, 11, 74, 0
14, 47040, Note_on_c, 11, 72, 76
14, 47129, Note_on_c, 11, 72, 0
14, 47160, Note_on_c, 11, 69, 76
14, 47219, Note_on_c, 11, 69, 0
14, 47220, Note_on_c, 11, 70, 76
14, 47271, Note_on_c, 11, 70, 0
14, 47280, Note_on_c, 11, 69, 76
14, 47369, Note_on_c, 11, 69, 0
14, 47400, Note_on_c, 11, 87, 76
14, 47489, Note_on_c, 11, 87, 0
14, 47520, Note_on_c, 11, 86, 76
14, 47609, Note_on_c, 11, 86, 0
14, 47640, Note_on_c, 11, 82, 76
14, 47699, Note_on_c, 11, 82, 0
14, 47700, Note_on_c, 11, 84, 76
14, 47751, Note_on_c, 11, 84, 0
14, 47760, Note_on_c, 11, 82, 76
14, 47849, Note_on_c, 11, 82, 0
14, 47880, Note_on_c, 11, 79, 76
14, 47939, Note_on_c, 11, 79, 0
14, 47940, Note_on_c, 11, 81, 76
14, 47991, Note_on_c, 11, 81, 0
14, 48000, Note_on_c, 11, 79, 76
14, 48089, Note_on_c, 11, 79, 0
14, 48120, Note_on_c, 11, 74, 76
14, 48179, Note_on_c, 11, 74, 0
14, 48180, Note_on_c, 11, 75, 76
14, 48231, Note_on_c, 11, 75, 0
14, 48240, Note_on_c, 11, 74, 76
14, 48329, Note_on_c, 11, 74, 0
14, 48360, Note_on_c, 11, 70, 76
14, 48419, Note_on_c, 11, 70, 0
14, 48420, Note_on_c, 11, 72, 76
14, 48471, Note_on_c, 11, 72, 0
14, 48480, Note_on_c, 11, 70, 76
14, 48569, Note_on_c, 11, 70, 0
14, 48600, Note_on_c, 11, 67, 76
14, 48659, Note_on_c, 11, 67, 0
14, 48660, Note_on_c, 11, 69, 76
14, 48711, Note_on_c, 11, 69, 0
14, 48720, Note_on_c, 11, 67, 76
14, 48809, Note_on_c, 11, 67, 0
14, 48840, Note_on_c, 11, 79, 76
14, 48929, Note_on_c, 11, 79, 0
14, 48960, Note_on_c, 11, 80, 76
14, 49049, Note_on_c, 11, 80, 0
14, 49080, Note_on_c, 11, 68, 76
14, 49139, Note_on_c, 11, 68, 0
14, 49140, Note_on_c, 11, 70, 76
14, 49191, Note_on_c, 11, 70, 0
14, 49200, Note_on_c, 11, 68, 76
14, 49289, Note_on_c, 11, 68, 0
14, 49320, Note_on_c, 11, 65, 76
14, 49379, Note_on_c, 11, 65, 0
14, 49380, Note_on_c, 11, 67, 76
14, 49431, Note_on_c, 11, 67, 0
14, 49440, Note_on_c, 11, 65, 76
14, 49529, Note_on_c, 11, 65, 0
14, 49560, Note_on_c, 11, 62, 76
14, 49619, Note_on_c, 11, 62, 0
14, 49620, Note_on_c, 11, 63, 76
14, 49671, Note_on_c, 11, 63, 0
14, 49680, Note_on_c, 11, 62, 76
14, 49769, Note_on_c, 11, 62, 0
14, 49800, Note_on_c, 11, 59, 76
14, 49859, Note_on_c, 11, 59, 0
14, 49860, Note_on_c, 11, 60, 76
14, 49911, Note_on_c, 11, 60, 0
14, 49920, Note_on_c, 11, 59, 76
14, 50009, Note_on_c, 11, 59, 0
14, 50040, Note_on_c, 11, 71, 76
14, 50099, Note_on_c, 11, 71, 0
14, 50100, Note_on_c, 11, 72, 76
14, 50151, Note_on_c, 11, 72, 0
14, 50160, Note_on_c, 11, 71, 76
14, 50249, Note_on_c, 11, 71, 0
14, 50280, Note_on_c, 11, 80, 76
14, 50369, Note_on_c, 11, 80, 0
14, 50400, Note_on_c, 11, 79, 76
14, 50489, Note_on_c, 11, 79, 0
14, 50520, Note_on_c, 11, 67, 76
14, 50579, Note_on_c, 11, 67, 0
14, 50580, Note_on_c, 11, 68, 76
14, 50631, Note_on_c, 11, 68, 0
14, 50640, Note_on_c, 11, 67, 76
14, 50729, Note_on_c, 11, 67, 0
14, 50760, Note_on_c, 11, 79, 76
14, 50849, Note_on_c, 11, 79, 0
14, 50880, Note_on_c, 11, 81, 76
14, 50969, Note_on_c, 11, 81, 0
14, 51000, Note_on_c, 11, 69, 76
14, 51089, Note_on_c, 11, 69, 0
14, 51120, Note_on_c, 11, 82, 76
14, 51209, Note_on_c, 11, 82, 0
14, 51240, Note_on_c, 11, 70, 76
14, 51299, Note_on_c, 11, 70, 0
14, 51300, Note_on_c, 11, 72, 76
14, 51351, Note_on_c, 11, 72, 0
14, 51360, Note_on_c, 11, 70, 76
14, 51449, Note_on_c, 11, 70, 0
14, 51480, Note_on_c, 11, 82, 76
14, 51569, Note_on_c, 11, 82, 0
14, 51600, Note_on_c, 11, 84, 76
14, 51689, Note_on_c, 11, 84, 0
14, 51720, Note_on_c, 11, 72, 76
14, 51809, Note_on_c, 11, 72, 0
14, 51840, Note_on_c, 11, 86, 76
14, 51929, Note_on_c, 11, 86, 0
14, 51960, Note_on_c, 11, 74, 76
14, 52049, Note_on_c, 11, 74, 0
14, 52080, Note_on_c, 11, 86, 76
14, 52169, Note_on_c, 11, 86, 0
14, 52200, Note_on_c, 11, 74, 76
14, 52289, Note_on_c, 11, 74, 0
14, 52320, Note_on_c, 11, 87, 76
14, 52409, Note_on_c, 11, 87, 0
14, 52440, Note_on_c, 11, 75, 76
14, 52529, Note_on_c, 11, 75, 0
14, 52560, Note_on_c, 11, 88, 76
14, 52649, Note_on_c, 11, 88, 0
14, 52680, Note_on_c, 11, 76, 76
14, 52769, Note_on_c, 11, 76, 0
14, 52800, Note_on_c, 11, 89, 76
14, 52889, Note_on_c, 11, 89, 0
14, 52920, Note_on_c, 11, 77, 76
14, 53009, Note_on_c, 11, 77, 0
14, 53040, Note_on_c, 11, 90, 76
14, 53129, Note_on_c, 11, 90, 0
14, 53160, Note_on_c, 11, 78, 76
14, 53249, Note_on_c, 11, 78, 0
14, 53280, Note_on_c, 11, 91, 76
14, 53331, Note_on_c, 11, 91, 0
14, 53340, Note_on_c, 11, 91, 76
14, 53391, Note_on_c, 11, 91, 0
14, 53400, Note_on_c, 11, 90, 76
14, 53451, Note_on_c, 11, 90, 0
14, 53460, Note_on_c, 11, 90, 76
14, 53511, Note_on_c, 11, 90, 0
14, 53520, Note_on_c, 11, 91, 76
14, 53571, Note_on_c, 11, 91, 0
14, 53580, Note_on_c, 11, 91, 76
14, 53631, Note_on_c, 11, 91, 0
14, 53640, Note_on_c, 11, 90, 76
14, 53691, Note_on_c, 11, 90, 0
14, 53700, Note_on_c, 11, 90, 76
14, 53751, Note_on_c, 11, 90, 0
14, 53760, Note_on_c, 11, 91, 76
14, 53811, Note_on_c, 11, 91, 0
14, 53820, Note_on_c, 11, 91, 76
14, 53871, Note_on_c, 11, 91, 0
14, 53880, Note_on_c, 11, 86, 76
14, 53931, Note_on_c, 11, 86, 0
14, 53940, Note_on_c, 11, 86, 76
14, 53991, Note_on_c, 11, 86, 0
14, 54000, Note_on_c, 11, 87, 76
14, 54051, Note_on_c, 11, 87, 0
14, 54060, Note_on_c, 11, 87, 76
14, 54111, Note_on_c, 11, 87, 0
14, 54120, Note_on_c, 11, 86, 76
14, 54171, Note_on_c, 11, 86, 0
14, 54180, Note_on_c, 11, 86, 76
14, 54231, Note_on_c, 11, 86, 0
14, 54240, Note_on_c, 11, 89, 76
14, 54291, Note_on_c, 11, 89, 0
14, 54300, Note_on_c, 11, 89, 76
14, 54351, Note_on_c, 11, 89, 0
14, 54360, Note_on_c, 11, 87, 76
14, 54411, Note_on_c, 11, 87, 0
14, 54420, Note_on_c, 11, 87, 76
14, 54471, Note_on_c, 11, 87, 0
14, 54480, Note_on_c, 11, 86, 76
14, 54531, Note_on_c, 11, 86, 0
14, 54540, Note_on_c, 11, 86, 76
14, 54591, Note_on_c, 11, 86, 0
14, 54600, Note_on_c, 11, 84, 76
14, 54651, Note_on_c, 11, 84, 0
14, 54660, Note_on_c, 11, 84, 76
14, 54711, Note_on_c, 11, 84, 0
14, 54720, Note_on_c, 11, 82, 76
14, 54771, Note_on_c, 11, 82, 0
14, 54780, Note_on_c, 11, 82, 76
14, 54831, Note_on_c, 11, 82, 0
14, 54840, Note_on_c, 11, 77, 76
14, 54891, Note_on_c, 11, 77, 0
14, 54900, Note_on_c, 11, 77, 76
14, 54951, Note_on_c, 11, 77, 0
14, 54960, Note_on_c, 11, 79, 76
14, 55011, Note_on_c, 11, 79, 0
14, 55020, Note_on_c, 11, 79, 76
14, 55071, Note_on_c, 11, 79, 0
14, 55080, Note_on_c, 11, 81, 76
14, 55131, Note_on_c, 11, 81, 0
14, 55140, Note_on_c, 11, 81, 76
14, 55191, Note_on_c, 11, 81, 0
14, 55200, Note_on_c, 11, 82, 76
14, 55251, Note_on_c, 11, 82, 0
14, 55260, Note_on_c, 11, 82, 76
14, 55311, Note_on_c, 11, 82, 0
14, 55320, Note_on_c, 11, 84, 76
14, 55371, Note_on_c, 11, 84, 0
14, 55380, Note_on_c, 11, 84, 76
14, 55431, Note_on_c, 11, 84, 0
14, 55440, Note_on_c, 11, 86, 76
14, 55491, Note_on_c, 11, 86, 0
14, 55500, Note_on_c, 11, 86, 76
14, 55551, Note_on_c, 11, 86, 0
14, 55560, Note_on_c, 11, 87, 76
14, 55611, Note_on_c, 11, 87, 0
14, 55620, Note_on_c, 11, 87, 76
14, 55671, Note_on_c, 11, 87, 0
14, 55680, Note_on_c, 11, 88, 76
14, 55731, Note_on_c, 11, 88, 0
14, 55740, Note_on_c, 11, 88, 76
14, 55791, Note_on_c, 11, 88, 0
14, 55800, Note_on_c, 11, 89, 76
14, 55851, Note_on_c, 11, 89, 0
14, 55860, Note_on_c, 11, 89, 76
14, 55911, Note_on_c, 11, 89, 0
14, 55920, Note_on_c, 11, 87, 76
14, 55971, Note_on_c, 11, 87, 0
14, 55980, Note_on_c, 11, 87, 76
14, 56031, Note_on_c, 11, 87, 0
14, 56040, Note_on_c, 11, 86, 76
14, 56091, Note_on_c, 11, 86, 0
14, 56100, Note_on_c, 11, 86, 76
14, 56151, Note_on_c, 11, 86, 0
14, 56160, Note_on_c, 11, 84, 76
14, 56211, Note_on_c, 11, 84, 0
14, 56220, Note_on_c, 11, 84, 76
14, 56271, Note_on_c, 11, 84, 0
14, 56280, Note_on_c, 11, 86, 76
14, 56331, Note_on_c, 11, 86, 0
14, 56340, Note_on_c, 11, 86, 76
14, 56391, Note_on_c, 11, 86, 0
14, 56400, Note_on_c, 11, 87, 76
14, 56451, Note_on_c, 11, 87, 0
14, 56460, Note_on_c, 11, 87, 76
14, 56511, Note_on_c, 11, 87, 0
14, 56520, Note_on_c, 11, 86, 76
14, 56571, Note_on_c, 11, 86, 0
14, 56580, Note_on_c, 11, 86, 76
14, 56631, Note_on_c, 11, 86, 0
14, 56640, Note_on_c, 11, 84, 76
14, 56691, Note_on_c, 11, 84, 0
14, 56700, Note_on_c, 11, 84, 76
14, 56751, Note_on_c, 11, 84, 0
14, 56760, Note_on_c, 11, 82, 76
14, 56811, Note_on_c, 11, 82, 0
14, 56820, Note_on_c, 11, 82, 76
14, 56871, Note_on_c, 11, 82, 0
14, 56880, Note_on_c, 11, 81, 76
14, 56931, Note_on_c, 11, 81, 0
14, 56940, Note_on_c, 11, 81, 76
14, 56991, Note_on_c, 11, 81, 0
14, 57000, Note_on_c, 11, 82, 76
14, 57051, Note_on_c, 11, 82, 0
14, 57060, Note_on_c, 11, 82, 76
14, 57111, Note_on_c, 11, 82, 0
14, 57120, Note_on_c, 11, 84, 76
14, 57171, Note_on_c, 11, 84, 0
14, 57180, Note_on_c, 11, 84, 76
14, 57231, Note_on_c, 11, 84, 0
14, 57240, Note_on_c, 11, 82, 76
14, 57291, Note_on_c, 11, 82, 0
14, 57300, Note_on_c, 11, 82, 76
14, 57351, Note_on_c, 11, 82, 0
14, 57360, Note_on_c, 11, 81, 76
14, 57411, Note_on_c, 11, 81, 0
14, 57420, Note_on_c, 11, 81, 76
14, 57471, Note_on_c, 11, 81, 0
14, 57480, Note_on_c, 11, 79, 76
14, 57531, Note_on_c, 11, 79, 0
14, 57540, Note_on_c, 11, 79, 76
14, 57591, Note_on_c, 11, 79, 0
14, 57600, Note_on_c, 11, 77, 84
14, 57651, Note_on_c, 11, 77, 0
14, 57660, Note_on_c, 11, 77, 84
14, 57711, Note_on_c, 11, 77, 0
14, 57720, Note_on_c, 11, 76, 84
14, 57771, Note_on_c, 11, 76, 0
14, 57780, Note_on_c, 11, 76, 84
14, 57831, Note_on_c, 11, 76, 0
14, 57840, Note_on_c, 11, 75, 84
14, 57891, Note_on_c, 11, 75, 0
14, 57900, Note_on_c, 11, 75, 84
14, 57951, Note_on_c, 11, 75, 0
14, 57960, Note_on_c, 11, 74, 84
14, 58011, Note_on_c, 11, 74, 0
14, 58020, Note_on_c, 11, 74, 84
14, 58071, Note_on_c, 11, 74, 0
14, 58080, Note_on_c, 11, 72, 84
14, 58131, Note_on_c, 11, 72, 0
14, 58140, Note_on_c, 11, 72, 84
14, 58191, Note_on_c, 11, 72, 0
14, 58200, Note_on_c, 11, 70, 84
14, 58251, Note_on_c, 11, 70, 0
14, 58260, Note_on_c, 11, 70, 84
14, 58311, Note_on_c, 11, 70, 0
14, 58320, Note_on_c, 11, 69, 84
14, 58371, Note_on_c, 11, 69, 0
14, 58380, Note_on_c, 11, 69, 84
14, 58431, Note_on_c, 11, 69, 0
14, 58440, Note_on_c, 11, 67, 84
14, 58491, Note_on_c, 11, 67, 0
14, 58500, Note_on_c, 11, 67, 84
14, 58551, Note_on_c, 11, 67, 0
14, 58560, Note_on_c, 11, 65, 84
14, 58611, Note_on_c, 11, 65, 0
14, 58620, Note_on_c, 11, 65, 84
14, 58671, Note_on_c, 11, 65, 0
14, 58680, Note_on_c, 11, 63, 84
14, 58731, Note_on_c, 11, 63, 0
14, 58740, Note_on_c, 11, 63, 84
14, 58791, Note_on_c, 11, 63, 0
14, 58800, Note_on_c, 11, 62, 84
14, 58851, Note_on_c, 11, 62, 0
14, 58860, Note_on_c, 11, 62, 84
14, 58911, Note_on_c, 11, 62, 0
14, 58920, Note_on_c, 11, 60, 84
14, 58971, Note_on_c, 11, 60, 0
14, 58980, Note_on_c, 11, 60, 84
14, 59031, Note_on_c, 11, 60, 0
14, 59040, Note_on_c, 11, 58, 84
14, 59279, Note_on_c, 11, 58, 0
14, 61920, Control_c, 11, 11, 96
14, 62160, Note_on_c, 11, 75, 68
14, 62369, Note_on_c, 11, 75, 0
14, 62400, Note_on_c, 11, 75, 68
14, 62609, Note_on_c, 11, 75, 0
14, 62640, Note_on_c, 11, 75, 68
14, 62640, Control_c, 11, 11, 96
14, 62760, Control_c, 11, 11, 99
14, 62849, Note_on_c, 11, 75, 0
14, 62880, Note_on_c, 11, 77, 68
14, 62880, Control_c, 11, 11, 101
14, 63000, Control_c, 11, 11, 104
14, 63089, Note_on_c, 11, 77, 0
14, 63120, Note_on_c, 11, 77, 68
14, 63120, Control_c, 11, 11, 106
14, 63240, Control_c, 11, 11, 109
14, 63329, Note_on_c, 11, 77, 0
14, 63360, Note_on_c, 11, 77, 68
14, 63360, Control_c, 11, 11, 112
14, 63480, Control_c, 11, 11, 114
14, 63599, Note_on_c, 11, 77, 0
14, 63600, Note_on_c, 11, 78, 68
14, 63600, Control_c, 11, 11, 117
14, 63720, Control_c, 11, 11, 119
14, 63839, Note_on_c, 11, 78, 0
14, 63840, Control_c, 11, 11, 122
14, 63840, Note_on_c, 11, 79, 68
14, 63960, Control_c, 11, 11, 127
14, 64079, Note_on_c, 11, 79, 0
14, 64080, Control_c, 11, 11, 127
14, 64080, Note_on_c, 11, 79, 76
14, 64140, Control_c, 11, 11, 124
14, 64200, Control_c, 11, 11, 122
14, 64260, Control_c, 11, 11, 119
14, 64319, Note_on_c, 11, 79, 0
14, 64320, Note_on_c, 11, 77, 68
14, 64320, Control_c, 11, 11, 117
14, 64380, Control_c, 11, 11, 114
14, 64439, Note_on_c, 11, 77, 0
14, 64440, Control_c, 11, 11, 112
14, 64440, Note_on_c, 11, 75, 68
14, 64500, Control_c, 11, 11, 109
14, 64559, Note_on_c, 11, 75, 0
14, 64560, Note_on_c, 11, 74, 68
14, 64560, Control_c, 11, 11, 106
14, 64620, Control_c, 11, 11, 104
14, 64679, Note_on_c, 11, 74, 0
14, 64680, Note_on_c, 11, 72, 68
14, 64680, Control_c, 11, 11, 101
14, 64740, Control_c, 11, 11, 96
14, 64784, Note_on_c, 11, 72, 0
14, 64800, Note_on_c, 11, 70, 68
14, 65039, Note_on_c, 11, 70, 0
14, 68640, Note_on_c, 11, 65, 68
14, 68849, Note_on_c, 11, 65, 0
14, 68880, Note_on_c, 11, 65, 68
14, 69089, Note_on_c, 11, 65, 0
14, 69120, Control_c, 11, 11, 96
14, 69120, Note_on_c, 11, 65, 68
14, 69160, Control_c, 11, 11, 99
14, 69200, Control_c, 11, 11, 101
14, 69240, Control_c, 11, 11, 104
14, 69280, Control_c, 11, 11, 106
14, 69320, Control_c, 11, 11, 109
14, 69360, Control_c, 11, 11, 112
14, 69400, Control_c, 11, 11, 114
14, 69440, Control_c, 11, 11, 117
14, 69480, Control_c, 11, 11, 119
14, 69520, Control_c, 11, 11, 122
14, 69560, Control_c, 11, 11, 124
14, 69599, Note_on_c, 11, 65, 0
14, 69600, Control_c, 11, 11, 127
14, 69600, Note_on_c, 11, 64, 68
14, 69640, Control_c, 11, 11, 122
14, 69680, Control_c, 11, 11, 117
14, 69720, Control_c, 11, 11, 112
14, 69760, Control_c, 11, 11, 106
14, 69800, Control_c, 11, 11, 101
14, 69839, Note_on_c, 11, 64, 0
14, 70560, Control_c, 11, 11, 127
14, 70800, Note_on_c, 11, 69, 44
14, 70979, Note_on_c, 11, 69, 0
14, 71040, Note_on_c, 11, 69, 44
14, 71219, Note_on_c, 11, 69, 0
14, 71520, Note_on_c, 11, 70, 44
14, 71699, Note_on_c, 11, 70, 0
14, 71760, Note_on_c, 11, 71, 44
14, 71939, Note_on_c, 11, 71, 0
14, 72240, Note_on_c, 11, 72, 44
14, 72419, Note_on_c, 11, 72, 0
14, 72480, Note_on_c, 11, 74, 44
14, 72659, Note_on_c, 11, 74, 0
14, 72720, Note_on_c, 11, 75, 44
14, 72899, Note_on_c, 11, 75, 0
14, 72960, Note_on_c, 11, 77, 44
14, 73139, Note_on_c, 11, 77, 0
14, 73200, Note_on_c, 11, 78, 44
14, 73379, Note_on_c, 11, 78, 0
14, 73440, Note_on_c, 11, 79, 44
14, 73529, Note_on_c, 11, 79, 0
14, 73560, Note_on_c, 11, 77, 44
14, 73649, Note_on_c, 11, 77, 0
14, 73680, Note_on_c, 11, 75, 44
14, 73769, Note_on_c, 11, 75, 0
14, 73800, Note_on_c, 11, 74, 44
14, 73889, Note_on_c, 11, 74, 0
14, 73920, Note_on_c, 11, 72, 44
14, 74009, Note_on_c, 11, 72, 0
14, 74040, Note_on_c, 11, 74, 44
14, 74129, Note_on_c, 11, 74, 0
14, 74160, Note_on_c, 11, 75, 44
14, 74249, Note_on_c, 11, 75, 0
14, 74280, Note_on_c, 11, 74, 44
14, 74369, Note_on_c, 11, 74, 0
14, 74400, Note_on_c, 11, 72, 44
14, 74489, Note_on_c, 11, 72, 0
14, 74520, Note_on_c, 11, 74, 44
14, 74609, Note_on_c, 11, 74, 0
14, 74640, Note_on_c, 11, 75, 44
14, 74729, Note_on_c, 11, 75, 0
14, 74760, Note_on_c, 11, 77, 44
14, 74849, Note_on_c, 11, 77, 0
14, 74880, Note_on_c, 11, 79, 44
14, 74969, Note_on_c, 11, 79, 0
14, 75000, Note_on_c, 11, 77, 45
14, 75089, Note_on_c, 11, 77, 0
14, 75120, Note_on_c, 11, 75, 46
14, 75209, Note_on_c, 11, 75, 0
14, 75240, Note_on_c, 11, 74, 48
14, 75329, Note_on_c, 11, 74, 0
14, 75360, Note_on_c, 11, 72, 49
14, 75449, Note_on_c, 11, 72, 0
14, 75480, Note_on_c, 11, 74, 50
14, 75569, Note_on_c, 11, 74, 0
14, 75600, Note_on_c, 11, 75, 52
14, 75689, Note_on_c, 11, 75, 0
14, 75720, Note_on_c, 11, 74, 53
14, 75809, Note_on_c, 11, 74, 0
14, 75840, Note_on_c, 11, 72, 54
14, 75929, Note_on_c, 11, 72, 0
14, 75960, Note_on_c, 11, 74, 56
14, 76049, Note_on_c, 11, 74, 0
14, 76080, Note_on_c, 11, 75, 57
14, 76169, Note_on_c, 11, 75, 0
14, 76200, Note_on_c, 11, 77, 58
14, 76289, Note_on_c, 11, 77, 0
14, 76320, Note_on_c, 11, 79, 60
14, 76409, Note_on_c, 11, 79, 0
14, 76440, Note_on_c, 11, 77, 61
14, 76529, Note_on_c, 11, 77, 0
14, 76560, Note_on_c, 11, 75, 62
14, 76649, Note_on_c, 11, 75, 0
14, 76680, Note_on_c, 11, 74, 64
14, 76769, Note_on_c, 11, 74, 0
14, 76800, Note_on_c, 11, 75, 65
14, 76889, Note_on_c, 11, 75, 0
14, 76920, Note_on_c, 11, 77, 66
14, 77009, Note_on_c, 11, 77, 0
14, 77040, Note_on_c, 11, 79, 68
14, 77129, Note_on_c, 11, 79, 0
14, 77160, Note_on_c, 11, 81, 69
14, 77249, Note_on_c, 11, 81, 0
14, 77280, Note_on_c, 11, 82, 70
14, 77369, Note_on_c, 11, 82, 0
14, 77400, Note_on_c, 11, 84, 72
14, 77489, Note_on_c, 11, 84, 0
14, 77520, Note_on_c, 11, 86, 73
14, 77609, Note_on_c, 11, 86, 0
14, 77640, Note_on_c, 11, 87, 74
14, 77729, Note_on_c, 11, 87, 0
14, 77760, Note_on_c, 11, 89, 76
14, 78224, Note_on_c, 11, 89, 0
14, 78240, Note_on_c, 11, 86, 76
14, 78419, Note_on_c, 11, 86, 0
14, 78480, Note_on_c, 11, 82, 76
14, 78659, Note_on_c, 11, 82, 0
14, 78720, Note_on_c, 11, 86, 84
14, 78899, Note_on_c, 11, 86, 0
14, 78960, Note_on_c, 11, 77, 76
14, 79139, Note_on_c, 11, 77, 0
14, 79200, Note_on_c, 11, 84, 76
14, 79379, Note_on_c, 11, 84, 0
14, 79440, Note_on_c, 11, 87, 84
14, 79619, Note_on_c, 11, 87, 0
14, 79680, Note_on_c, 11, 77, 76
14, 79859, Note_on_c, 11, 77, 0
14, 79920, Note_on_c, 11, 81, 76
14, 80099, Note_on_c, 11, 81, 0
14, 80160, Note_on_c, 11, 84, 84
14, 80339, Note_on_c, 11, 84, 0
14, 80400, Note_on_c, 11, 77, 76
14, 80579, Note_on_c, 11, 77, 0
14, 80640, Note_on_c, 11, 89, 84
14, 80640, Note_on_c, 11, 77, 84
14, 80691, Note_on_c, 11, 89, 0
14, 80691, Note_on_c, 11, 77, 0
14, 80700, Note_on_c, 11, 89, 84
14, 80700, Note_on_c, 11, 77, 84
14, 80751, Note_on_c, 11, 89, 0
14, 80751, Note_on_c, 11, 77, 0
14, 80760, Note_on_c, 11, 89, 84
14, 80760, Note_on_c, 11, 77, 84
14, 80811, Note_on_c, 11, 89, 0
14, 80811, Note_on_c, 11, 77, 0
14, 80820, Note_on_c, 11, 89, 84
14, 80820, Note_on_c, 11, 77, 84
14, 80871, Note_on_c, 11, 89, 0
14, 80871, Note_on_c, 11, 77, 0
14, 80880, Note_on_c, 11, 77, 84
14, 80880, Note_on_c, 11, 89, 84
14, 80931, Note_on_c, 11, 77, 0
14, 80931, Note_on_c, 11, 89, 0
14, 80940, Note_on_c, 11, 77, 84
14, 80940, Note_on_c, 11, 89, 84
14, 80991, Note_on_c, 11, 77, 0
14, 80991, Note_on_c, 11, 89, 0
14, 81000, Note_on_c, 11, 89, 84
14, 81000, Note_on_c, 11, 77, 84
14, 81051, Note_on_c, 11, 89, 0
14, 81051, Note_on_c, 11, 77, 0
14, 81060, Note_on_c, 11, 89, 84
14, 81060, Note_on_c, 11, 77, 84
14, 81111, Note_on_c, 11, 89, 0
14, 81111, Note_on_c, 11, 77, 0
14, 81120, Note_on_c, 11, 77, 84
14, 81120, Note_on_c, 11, 89, 84
14, 81171, Note_on_c, 11, 77, 0
14, 81171, Note_on_c, 11, 89, 0
14, 81180, Note_on_c, 11, 77, 84
14, 81180, Note_on_c, 11, 89, 84
14, 81231, Note_on_c, 11, 77, 0
14, 81231, Note_on_c, 11, 89, 0
14, 81240, Note_on_c, 11, 89, 84
14, 81240, Note_on_c, 11, 77, 84
14, 81291, Note_on_c, 11, 89, 0
14, 81291, Note_on_c, 11, 77, 0
14, 81300, Note_on_c, 11, 77, 84
14, 81300, Note_on_c, 11, 89, 84
14, 81351, Note_on_c, 11, 77, 0
14, 81351, Note_on_c, 11, 89, 0
14, 81360, Note_on_c, 11, 77, 84
14, 81360, Note_on_c, 11, 89, 84
14, 81411, Note_on_c, 11, 77, 0
14, 81411, Note_on_c, 11, 89, 0
14, 81420, Note_on_c, 11, 89, 84
14, 81420, Note_on_c, 11, 77, 84
14, 81471, Note_on_c, 11, 89, 0
14, 81471, Note_on_c, 11, 77, 0
14, 81480, Note_on_c, 11, 89, 84
14, 81480, Note_on_c, 11, 77, 84
14, 81531, Note_on_c, 11, 89, 0
14, 81531, Note_on_c, 11, 77, 0
14, 81540, Note_on_c, 11, 89, 84
14, 81540, Note_on_c, 11, 77, 84
14, 81591, Note_on_c, 11, 89, 0
14, 81591, Note_on_c, 11, 77, 0
14, 81600, Note_on_c, 11, 77, 84
14, 81600, Note_on_c, 11, 89, 84
14, 81651, Note_on_c, 11, 77, 0
14, 81651, Note_on_c, 11, 89, 0
14, 81660, Note_on_c, 11, 77, 84
14, 81660, Note_on_c, 11, 89, 84
14, 81711, Note_on_c, 11, 77, 0
14, 81711, Note_on_c, 11, 89, 0
14, 81720, Note_on_c, 11, 89, 84
14, 81720, Note_on_c, 11, 77, 84
14, 81771, Note_on_c, 11, 89, 0
14, 81771, Note_on_c, 11, 77, 0
14, 81780, Note_on_c, 11, 89, 84
14, 81780, Note_on_c, 11, 77, 84
14, 81831, Note_on_c, 11, 89, 0
14, 81831, Note_on_c, 11, 77, 0
14, 81840, Note_on_c, 11, 89, 84
14, 81840, Note_on_c, 11, 77, 84
14, 81891, Note_on_c, 11, 89, 0
14, 81891, Note_on_c, 11, 77, 0
14, 81900, Note_on_c, 11, 77, 84
14, 81900, Note_on_c, 11, 89, 84
14, 81951, Note_on_c, 11, 77, 0
14, 81951, Note_on_c, 11, 89, 0
14, 81960, Note_on_c, 11, 89, 84
14, 81960, Note_on_c, 11, 77, 84
14, 82011, Note_on_c, 11, 89, 0
14, 82011, Note_on_c, 11, 77, 0
14, 82020, Note_on_c, 11, 89, 84
14, 82020, Note_on_c, 11, 77, 84
14, 82071, Note_on_c, 11, 89, 0
14, 82071, Note_on_c, 11, 77, 0
14, 82080, Note_on_c, 11, 89, 84
14, 82080, Note_on_c, 11, 77, 84
14, 82131, Note_on_c, 11, 89, 0
14, 82131, Note_on_c, 11, 77, 0
14, 82140, Note_on_c, 11, 77, 84
14, 82140, Note_on_c, 11, 89, 84
14, 82191, Note_on_c, 11, 77, 0
14, 82191, Note_on_c, 11, 89, 0
14, 82200, Note_on_c, 11, 89, 84
14, 82200, Note_on_c, 11, 77, 84
14, 82251, Note_on_c, 11, 89, 0
14, 82251, Note_on_c, 11, 77, 0
14, 82260, Note_on_c, 11, 89, 84
14, 82260, Note_on_c, 11, 77, 84
14, 82311, Note_on_c, 11, 89, 0
14, 82311, Note_on_c, 11, 77, 0
14, 82320, Note_on_c, 11, 77, 84
14, 82320, Note_on_c, 11, 89, 84
14, 82371, Note_on_c, 11, 77, 0
14, 82371, Note_on_c, 11, 89, 0
14, 82380, Note_on_c, 11, 89, 84
14, 82380, Note_on_c, 11, 77, 84
14, 82431, Note_on_c, 11, 89, 0
14, 82431, Note_on_c, 11, 77, 0
14, 82440, Note_on_c, 11, 77, 84
14, 82440, Note_on_c, 11, 89, 84
14, 82491, Note_on_c, 11, 77, 0
14, 82491, Note_on_c, 11, 89, 0
14, 82500, Note_on_c, 11, 89, 84
14, 82500, Note_on_c, 11, 77, 84
14, 82551, Note_on_c, 11, 89, 0
14, 82551, Note_on_c, 11, 77, 0
14, 82560, Note_on_c, 11, 77, 84
14, 82560, Note_on_c, 11, 89, 84
14, 82611, Note_on_c, 11, 77, 0
14, 82611, Note_on_c, 11, 89, 0
14, 82620, Note_on_c, 11, 89, 84
14, 82620, Note_on_c, 11, 77, 84
14, 82671, Note_on_c, 11, 89, 0
14, 82671, Note_on_c, 11, 77, 0
14, 82680, Note_on_c, 11, 89, 84
14, 82680, Note_on_c, 11, 77, 84
14, 82731, Note_on_c, 11, 89, 0
14, 82731, Note_on_c, 11, 77, 0
14, 82740, Note_on_c, 11, 77, 84
14, 82740, Note_on_c, 11, 89, 84
14, 82791, Note_on_c, 11, 77, 0
14, 82791, Note_on_c, 11, 89, 0
14, 82800, Note_on_c, 11, 89, 84
14, 82800, Note_on_c, 11, 77, 84
14, 82851, Note_on_c, 11, 89, 0
14, 82851, Note_on_c, 11, 77, 0
14, 82860, Note_on_c, 11, 77, 84
14, 82860, Note_on_c, 11, 89, 84
14, 82911, Note_on_c, 11, 77, 0
14, 82911, Note_on_c, 11, 89, 0
14, 82920, Note_on_c, 11, 77, 84
14, 82920, Note_on_c, 11, 89, 84
14, 82971, Note_on_c, 11, 77, 0
14, 82971, Note_on_c, 11, 89, 0
14, 82980, Note_on_c, 11, 77, 84
14, 82980, Note_on_c, 11, 89, 84
14, 83031, Note_on_c, 11, 77, 0
14, 83031, Note_on_c, 11, 89, 0
14, 83040, Note_on_c, 11, 77, 84
14, 83040, Note_on_c, 11, 89, 84
14, 83091, Note_on_c, 11, 77, 0
14, 83091, Note_on_c, 11, 89, 0
14, 83100, Note_on_c, 11, 77, 84
14, 83100, Note_on_c, 11, 89, 84
14, 83151, Note_on_c, 11, 77, 0
14, 83151, Note_on_c, 11, 89, 0
14, 83160, Note_on_c, 11, 77, 84
14, 83160, Note_on_c, 11, 89, 84
14, 83211, Note_on_c, 11, 77, 0
14, 83211, Note_on_c, 11, 89, 0
14, 83220, Note_on_c, 11, 89, 84
14, 83220, Note_on_c, 11, 77, 84
14, 83271, Note_on_c, 11, 89, 0
14, 83271, Note_on_c, 11, 77, 0
14, 83280, Note_on_c, 11, 89, 84
14, 83280, Note_on_c, 11, 77, 84
14, 83331, Note_on_c, 11, 89, 0
14, 83331, Note_on_c, 11, 77, 0
14, 83340, Note_on_c, 11, 89, 84
14, 83340, Note_on_c, 11, 77, 84
14, 83391, Note_on_c, 11, 89, 0
14, 83391, Note_on_c, 11, 77, 0
14, 83400, Note_on_c, 11, 77, 84
14, 83400, Note_on_c, 11, 89, 84
14, 83451, Note_on_c, 11, 77, 0
14, 83451, Note_on_c, 11, 89, 0
14, 83460, Note_on_c, 11, 77, 84
14, 83460, Note_on_c, 11, 89, 84
14, 83511, Note_on_c, 11, 77, 0
14, 83511, Note_on_c, 11, 89, 0
14, 83520, Note_on_c, 11, 89, 84
14, 83571, Note_on_c, 11, 89, 0
14, 83580, Note_on_c, 11, 89, 84
14, 83631, Note_on_c, 11, 89, 0
14, 83640, Note_on_c, 11, 85, 84
14, 83691, Note_on_c, 11, 85, 0
14, 83700, Note_on_c, 11, 85, 84
14, 83751, Note_on_c, 11, 85, 0
14, 83760, Note_on_c, 11, 86, 84
14, 83811, Note_on_c, 11, 86, 0
14, 83820, Note_on_c, 11, 86, 84
14, 83871, Note_on_c, 11, 86, 0
14, 83880, Note_on_c, 11, 81, 84
14, 83931, Note_on_c, 11, 81, 0
14, 83940, Note_on_c, 11, 81, 84
14, 83991, Note_on_c, 11, 81, 0
14, 84000, Note_on_c, 11, 82, 84
14, 84051, Note_on_c, 11, 82, 0
14, 84060, Note_on_c, 11, 82, 84
14, 84111, Note_on_c, 11, 82, 0
14, 84120, Note_on_c, 11, 76, 84
14, 84171, Note_on_c, 11, 76, 0
14, 84180, Note_on_c, 11, 76, 84
14, 84231, Note_on_c, 11, 76, 0
14, 84240, Note_on_c, 11, 77, 84
14, 84291, Note_on_c, 11, 77, 0
14, 84300, Note_on_c, 11, 77, 84
14, 84351, Note_on_c, 11, 77, 0
14, 84360, Note_on_c, 11, 73, 84
14, 84411, Note_on_c, 11, 73, 0
14, 84420, Note_on_c, 11, 73, 84
14, 84471, Note_on_c, 11, 73, 0
14, 84480, Note_on_c, 11, 74, 84
14, 84531, Note_on_c, 11, 74, 0
14, 84540, Note_on_c, 11, 74, 84
14, 84591, Note_on_c, 11, 74, 0
14, 84600, Note_on_c, 11, 69, 84
14, 84651, Note_on_c, 11, 69, 0
14, 84660, Note_on_c, 11, 69, 84
14, 84711, Note_on_c, 11, 69, 0
14, 84720, Note_on_c, 11, 70, 84
14, 84771, Note_on_c, 11, 70, 0
14, 84780, Note_on_c, 11, 70, 84
14, 84831, Note_on_c, 11, 70, 0
14, 84840, Note_on_c, 11, 68, 84
14, 84891, Note_on_c, 11, 68, 0
14, 84900, Note_on_c, 11, 68, 84
14, 84951, Note_on_c, 11, 68, 0
14, 84960, Note_on_c, 11, 67, 84
14, 85011, Note_on_c, 11, 67, 0
14, 85020, Note_on_c, 11, 67, 84
14, 85071, Note_on_c, 11, 67, 0
14, 85080, Note_on_c, 11, 71, 84
14, 85131, Note_on_c, 11, 71, 0
14, 85140, Note_on_c, 11, 71, 84
14, 85191, Note_on_c, 11, 71, 0
14, 85200, Note_on_c, 11, 72, 92
14, 85251, Note_on_c, 11, 72, 0
14, 85260, Note_on_c, 11, 72, 84
14, 85311, Note_on_c, 11, 72, 0
14, 85320, Note_on_c, 11, 70, 84
14, 85371, Note_on_c, 11, 70, 0
14, 85380, Note_on_c, 11, 70, 84
14, 85431, Note_on_c, 11, 70, 0
14, 85440, Note_on_c, 11, 69, 84
14, 85491, Note_on_c, 11, 69, 0
14, 85500, Note_on_c, 11, 69, 84
14, 85551, Note_on_c, 11, 69, 0
14, 85560, Note_on_c, 11, 73, 84
14, 85611, Note_on_c, 11, 73, 0
14, 85620, Note_on_c, 11, 73, 84
14, 85671, Note_on_c, 11, 73, 0
14, 85680, Note_on_c, 11, 74, 92
14, 85731, Note_on_c, 11, 74, 0
14, 85740, Note_on_c, 11, 74, 84
14, 85791, Note_on_c, 11, 74, 0
14, 85800, Note_on_c, 11, 72, 84
14, 85851, Note_on_c, 11, 72, 0
14, 85860, Note_on_c, 11, 72, 84
14, 85911, Note_on_c, 11, 72, 0
14, 85920, Note_on_c, 11, 70, 84
14, 85971, Note_on_c, 11, 70, 0
14, 85980, Note_on_c, 11, 70, 84
14, 86031, Note_on_c, 11, 70, 0
14, 86040, Note_on_c, 11, 74, 84
14, 86091, Note_on_c, 11, 74, 0
14, 86100, Note_on_c, 11, 74, 84
14, 86151, Note_on_c, 11, 74, 0
14, 86160, Note_on_c, 11, 75, 92
14, 86211, Note_on_c, 11, 75, 0
14, 86220, Note_on_c, 11, 75, 84
14, 86271, Note_on_c, 11, 75, 0
14, 86280, Note_on_c, 11, 74, 84
14, 86331, Note_on_c, 11, 74, 0
14, 86340, Note_on_c, 11, 74, 84
14, 86391, Note_on_c, 11, 74, 0
14, 86400, Note_on_c, 11, 72, 84
14, 86451, Note_on_c, 11, 72, 0
14, 86460, Note_on_c, 11, 72, 84
14, 86511, Note_on_c, 11, 72, 0
14, 86520, Note_on_c, 11, 76, 84
14, 86571, Note_on_c, 11, 76, 0
14, 86580, Note_on_c, 11, 76, 84
14, 86631, Note_on_c, 11, 76, 0
14, 86640, Note_on_c, 11, 77, 92
14, 86691, Note_on_c, 11, 77, 0
14, 86700, Note_on_c, 11, 77, 84
14, 86751, Note_on_c, 11, 77, 0
14, 86760, Note_on_c, 11, 75, 84
14, 86811, Note_on_c, 11, 75, 0
14, 86820, Note_on_c, 11, 75, 84
14, 86871, Note_on_c, 11, 75, 0
14, 86880, Note_on_c, 11, 74, 84
14, 86931, Note_on_c, 11, 74, 0
14, 86940, Note_on_c, 11, 74, 84
14, 86991, Note_on_c, 11, 74, 0
14, 87000, Note_on_c, 11, 78, 84
14, 87051, Note_on_c, 11, 78, 0
14, 87060, Note_on_c, 11, 78, 84
14, 87111, Note_on_c, 11, 78, 0
14, 87120, Note_on_c, 11, 79, 84
14, 87171, Note_on_c, 11, 79, 0
14, 87180, Note_on_c, 11, 79, 84
14, 87231, Note_on_c, 11, 79, 0
14, 87240, Note_on_c, 11, 81, 84
14, 87291, Note_on_c, 11, 81, 0
14, 87300, Note_on_c, 11, 81, 84
14, 87351, Note_on_c, 11, 81, 0
14, 87360, Note_on_c, 11, 82, 84
14, 87411, Note_on_c, 11, 82, 0
14, 87420, Note_on_c, 11, 82, 84
14, 87471, Note_on_c, 11, 82, 0
14, 87480, Note_on_c, 11, 83, 84
14, 87531, Note_on_c, 11, 83, 0
14, 87540, Note_on_c, 11, 83, 84
14, 87591, Note_on_c, 11, 83, 0
14, 87600, Note_on_c, 11, 84, 84
14, 87651, Note_on_c, 11, 84, 0
14, 87660, Note_on_c, 11, 84, 84
14, 87711, Note_on_c, 11, 84, 0
14, 87720, Note_on_c, 11, 85, 84
14, 87771, Note_on_c, 11, 85, 0
14, 87780, Note_on_c, 11, 85, 84
14, 87831, Note_on_c, 11, 85, 0
14, 87840, Note_on_c, 11, 86, 84
14, 88019, Note_on_c, 11, 86, 0
14, 88080, Note_on_c, 11, 74, 84
14, 88080, Note_on_c, 11, 84, 84
14, 88080, Note_on_c, 11, 62, 84
14, 88259, Note_on_c, 11, 74, 0
14, 88259, Note_on_c, 11, 84, 0
14, 88259, Note_on_c, 11, 62, 0
14, 88320, Note_on_c, 11, 62, 84
14, 88320, Note_on_c, 11, 82, 84
14, 88320, Note_on_c, 11, 74, 84
14, 88499, Note_on_c, 11, 62, 0
14, 88499, Note_on_c, 11, 82, 0
14, 88499, Note_on_c, 11, 74, 0
14, 88800, Note_on_c, 11, 80, 84
14, 88800, Note_on_c, 11, 62, 84
14, 88800, Note_on_c, 11, 71, 84
14, 88979, Note_on_c, 11, 80, 0
14, 88979, Note_on_c, 11, 62, 0
14, 88979, Note_on_c, 11, 71, 0
14, 89040, Note_on_c, 11, 72, 84
14, 89040, Note_on_c, 11, 79, 84
14, 89040, Note_on_c, 11, 63, 84
14, 89219, Note_on_c, 11, 72, 0
14, 89219, Note_on_c, 11, 79, 0
14, 89219, Note_on_c, 11, 63, 0
14, 89520, Note_on_c, 11, 72, 84
14, 89520, Note_on_c, 11, 82, 84
14, 89520, Note_on_c, 11, 64, 84
14, 89699, Note_on_c, 11, 72, 0
14, 89699, Note_on_c, 11, 82, 0
14, 89699, Note_on_c, 11, 64, 0
14, 89760, Note_on_c, 11, 65, 84
14, 89760, Note_on_c, 11, 81, 84
14, 89760, Note_on_c, 11, 72, 84
14, 89939, Note_on_c, 11, 65, 0
14, 89939, Note_on_c, 11, 81, 0
14, 89939, Note_on_c, 11, 72, 0
14, 90240, Note_on_c, 11, 74, 84
14, 90240, Note_on_c, 11, 62, 84
14, 90240, Note_on_c, 11, 84, 84
14, 90419, Note_on_c, 11, 74, 0
14, 90419, Note_on_c, 11, 62, 0
14, 90419, Note_on_c, 11, 84, 0
14, 90480, Note_on_c, 11, 82, 84
14, 90480, Note_on_c, 11, 74, 84
14, 90480, Note_on_c, 11, 62, 84
14, 90659, Note_on_c, 11, 82, 0
14, 90659, Note_on_c, 11, 74, 0
14, 90659, Note_on_c, 11, 62, 0
14, 90960, Note_on_c, 11, 71, 84
14, 90960, Note_on_c, 11, 62, 84
14, 90960, Note_on_c, 11, 80, 84
14, 91139, Note_on_c, 11, 71, 0
14, 91139, Note_on_c, 11, 62, 0
14, 91139, Note_on_c, 11, 80, 0
14, 91200, Note_on_c, 11, 79, 84
14, 91200, Note_on_c, 11, 72, 84
14, 91200, Note_on_c, 11, 63, 84
14, 91379, Note_on_c, 11, 79, 0
14, 91379, Note_on_c, 11, 72, 0
14, 91379, Note_on_c, 11, 63, 0
14, 91680, Note_on_c, 11, 64, 92
14, 91680, Note_on_c, 11, 72, 92
14, 91680, Note_on_c, 11, 82, 92
14, 91859, Note_on_c, 11, 64, 0
14, 91859, Note_on_c, 11, 72, 0
14, 91859, Note_on_c, 11, 82, 0
14, 92160, Note_on_c, 11, 82, 92
14, 92160, Note_on_c, 11, 72, 92
14, 92160, Note_on_c, 11, 64, 92
14, 92339, Note_on_c, 11, 82, 0
14, 92339, Note_on_c, 11, 72, 0
14, 92339, Note_on_c, 11, 64, 0
14, 92640, Note_on_c, 11, 72, 92
14, 92640, Note_on_c, 11, 82, 92
14, 92640, Note_on_c, 11, 64, 92
14, 92819, Note_on_c, 11, 72, 0
14, 92819, Note_on_c, 11, 82, 0
14, 92819, Note_on_c, 11, 64, 0
14, 93120, Note_on_c, 11, 72, 92
14, 93120, Note_on_c, 11, 64, 92
14, 93120, Note_on_c, 11, 82, 92
14, 93299, Note_on_c, 11, 72, 0
14, 93299, Note_on_c, 11, 64, 0
14, 93299, Note_on_c, 11, 82, 0
14, 93600, Note_on_c, 11, 82, 92
14, 93600, Note_on_c, 11, 64, 92
14, 93600, Note_on_c, 11, 72, 92
14, 93779, Note_on_c, 11, 82, 0
14, 93779, Note_on_c, 11, 64, 0
14, 93779, Note_on_c, 11, 72, 0
14, 94080, Note_on_c, 11, 82, 92
14, 94080, Note_on_c, 11, 72, 92
14, 94080, Note_on_c, 11, 64, 92
14, 94259, Note_on_c, 11, 82, 0
14, 94259, Note_on_c, 11, 72, 0
14, 94259, Note_on_c, 11, 64, 0
14, 95040, Note_on_c, 11, 70, 76
14, 95160, Control_c, 11, 11, 80
14, 95279, Note_on_c, 11, 70, 0
14, 95280, Note_on_c, 11, 73, 76
14, 95519, Note_on_c, 11, 73, 0
14, 95520, Note_on_c, 11, 76, 76
14, 95744, Note_on_c, 11, 76, 0
14, 95760, Note_on_c, 11, 77, 76
14, 96449, Note_on_c, 11, 77, 0
14, 96465, Control_c, 11, 11, 127
14, 96480, Note_on_c, 11, 70, 76
14, 96600, Control_c, 11, 11, 80
14, 96719, Note_on_c, 11, 70, 0
14, 96720, Note_on_c, 11, 73, 76
14, 96959, Note_on_c, 11, 73, 0
14, 96960, Note_on_c, 11, 76, 76
14, 97439, Note_on_c, 11, 76, 0
14, 97440, Note_on_c, 11, 75, 76
14, 97679, Note_on_c, 11, 75, 0
14, 97680, Note_on_c, 11, 73, 76
14, 98159, Note_on_c, 11, 73, 0
14, 98160, Note_on_c, 11, 71, 76
14, 98399, Note_on_c, 11, 71, 0
14, 98400, Note_on_c, 11, 72, 76
14, 98864, Note_on_c, 11, 72, 0
14, 98880, Note_on_c, 11, 65, 76
14, 99119, Note_on_c, 11, 65, 0
14, 99120, Note_on_c, 11, 75, 76
14, 99599, Note_on_c, 11, 75, 0
14, 99600, Note_on_c, 11, 73, 76
14, 99839, Note_on_c, 11, 73, 0
14, 99840, Note_on_c, 11, 74, 76
14, 100169, Note_on_c, 11, 74, 0
14, 100185, Control_c, 11, 11, 64
14, 100200, Note_on_c, 11, 66, 84
14, 100319, Note_on_c, 11, 66, 0
14, 100320, Control_c, 11, 11, 64
14, 100320, Note_on_c, 11, 67, 84
14, 100400, Control_c, 11, 11, 67
14, 100439, Note_on_c, 11, 67, 0
14, 100440, Note_on_c, 11, 71, 84
14, 100480, Control_c, 11, 11, 69
14, 100559, Note_on_c, 11, 71, 0
14, 100560, Control_c, 11, 11, 72
14, 100560, Note_on_c, 11, 72, 84
14, 100640, Control_c, 11, 11, 75
14, 100679, Note_on_c, 11, 72, 0
14, 100680, Note_on_c, 11, 74, 84
14, 100720, Control_c, 11, 11, 77
14, 100799, Note_on_c, 11, 74, 0
14, 100800, Note_on_c, 11, 75, 84
14, 100800, Control_c, 11, 11, 80
14, 100880, Control_c, 11, 11, 82
14, 100919, Note_on_c, 11, 75, 0
14, 100920, Note_on_c, 11, 78, 84
14, 100960, Control_c, 11, 11, 85
14, 101039, Note_on_c, 11, 78, 0
14, 101040, Control_c, 11, 11, 88
14, 101040, Note_on_c, 11, 79, 84
14, 101120, Control_c, 11, 11, 90
14, 101159, Note_on_c, 11, 79, 0
14, 101160, Note_on_c, 11, 75, 84
14, 101200, Control_c, 11, 11, 93
14, 101279, Note_on_c, 11, 75, 0
14, 101280, Control_c, 11, 11, 96
14, 101280, Note_on_c, 11, 74, 84
14, 101360, Control_c, 11, 11, 98
14, 101399, Note_on_c, 11, 74, 0
14, 101400, Note_on_c, 11, 72, 84
14, 101440, Control_c, 11, 11, 101
14, 101504, Note_on_c, 11, 72, 0
14, 101520, Control_c, 11, 11, 103
14, 101520, Note_on_c, 11, 70, 84
14, 101571, Note_on_c, 11, 70, 0
14, 101580, Note_on_c, 11, 70, 84
14, 101600, Control_c, 11, 11, 106
14, 101631, Note_on_c, 11, 70, 0
14, 101640, Note_on_c, 11, 74, 84
14, 101680, Control_c, 11, 11, 109
14, 101691, Note_on_c, 11, 74, 0
14, 101700, Note_on_c, 11, 74, 84
14, 101751, Note_on_c, 11, 74, 0
14, 101760, Note_on_c, 11, 77, 84
14, 101760, Control_c, 11, 11, 111
14, 101811, Note_on_c, 11, 77, 0
14, 101820, Note_on_c, 11, 77, 84
14, 101840, Control_c, 11, 11, 114
14, 101871, Note_on_c, 11, 77, 0
14, 101880, Note_on_c, 11, 82, 84
14, 101920, Control_c, 11, 11, 117
14, 101931, Note_on_c, 11, 82, 0
14, 101940, Note_on_c, 11, 82, 84
14, 101991, Note_on_c, 11, 82, 0
14, 102000, Control_c, 11, 11, 119
14, 102000, Note_on_c, 11, 86, 84
14, 102051, Note_on_c, 11, 86, 0
14, 102060, Note_on_c, 11, 86, 84
14, 102080, Control_c, 11, 11, 122
14, 102111, Note_on_c, 11, 86, 0
14, 102120, Note_on_c, 11, 89, 84
14, 102160, Control_c, 11, 11, 127
14, 102171, Note_on_c, 11, 89, 0
14, 102180, Note_on_c, 11, 89, 84
14, 102231, Note_on_c, 11, 89, 0
14, 102240, Note_on_c, 11, 89, 84
14, 102291, Note_on_c, 11, 89, 0
14, 102300, Note_on_c, 11, 89, 84
14, 102351, Note_on_c, 11, 89, 0
14, 102360, Note_on_c, 11, 89, 84
14, 102411, Note_on_c, 11, 89, 0
14, 102420, Note_on_c, 11, 89, 84
14, 102471, Note_on_c, 11, 89, 0
14, 102480, Note_on_c, 11, 89, 84
14, 102531, Note_on_c, 11, 89, 0
14, 102540, Note_on_c, 11, 89, 84
14, 102591, Note_on_c, 11, 89, 0
14, 102600, Note_on_c, 11, 89, 84
14, 102651, Note_on_c, 11, 89, 0
14, 102660, Note_on_c, 11, 89, 84
14, 102711, Note_on_c, 11, 89, 0
14, 102720, Note_on_c, 11, 89, 84
14, 102771, Note_on_c, 11, 89, 0
14, 102780, Note_on_c, 11, 89, 84
14, 102831, Note_on_c, 11, 89, 0
14, 102840, Note_on_c, 11, 89, 84
14, 102891, Note_on_c, 11, 89, 0
14, 102900, Note_on_c, 11, 89, 84
14, 102951, Note_on_c, 11, 89, 0
14, 102960, Note_on_c, 11, 70, 76
14, 102960, Note_on_c, 11, 82, 76
14, 103139, Note_on_c, 11, 70, 0
14, 103139, Note_on_c, 11, 82, 0
14, 103680, Note_on_c, 11, 70, 76
14, 103680, Note_on_c, 11, 82, 76
14, 103859, Note_on_c, 11, 70, 0
14, 103859, Note_on_c, 11, 82, 0
14, 104400, Note_on_c, 11, 82, 76
14, 104400, Note_on_c, 11, 70, 76
14, 104579, Note_on_c, 11, 82, 0
14, 104579, Note_on_c, 11, 70, 0
14, 105120, Note_on_c, 11, 70, 76
14, 105120, Note_on_c, 11, 82, 76
14, 105299, Note_on_c, 11, 70, 0
14, 105299, Note_on_c, 11, 82, 0
14, 105360, Note_on_c, 11, 82, 76
14, 105360, Note_on_c, 11, 70, 76
14, 105539, Note_on_c, 11, 82, 0
14, 105539, Note_on_c, 11, 70, 0
14, 105600, Note_on_c, 11, 82, 76
14, 105600, Note_on_c, 11, 70, 76
14, 105779, Note_on_c, 11, 82, 0
14, 105779, Note_on_c, 11, 70, 0
14, 105840, Note_on_c, 11, 70, 76
14, 105840, Note_on_c, 11, 82, 76
14, 105960, Control_c, 11, 11, 80
14, 106319, Note_on_c, 11, 70, 0
14, 106319, Note_on_c, 11, 82, 0
14, 106320, Note_on_c, 11, 86, 76
14, 106559, Note_on_c, 11, 86, 0
14, 106560, Note_on_c, 11, 82, 76
14, 107039, Note_on_c, 11, 82, 0
14, 107040, Note_on_c, 11, 77, 76
14, 107279, Note_on_c, 11, 77, 0
14, 108000, Control_c, 11, 11, 127
14, 108120, Note_on_c, 11, 62, 52
14, 108239, Note_on_c, 11, 62, 0
14, 108240, Note_on_c, 11, 65, 52
14, 108359, Note_on_c, 11, 65, 0
14, 108360, Note_on_c, 11, 68, 52
14, 108479, Note_on_c, 11, 68, 0
14, 108480, Note_on_c, 11, 74, 52
14, 108599, Note_on_c, 11, 74, 0
14, 108600, Note_on_c, 11, 77, 52
14, 108719, Note_on_c, 11, 77, 0
14, 108720, Note_on_c, 11, 80, 52
14, 108959, Note_on_c, 11, 80, 0
14, 109920, Note_on_c, 11, 62, 68
14, 110040, Control_c, 11, 11, 96
14, 110159, Note_on_c, 11, 62, 0
14, 110160, Note_on_c, 11, 63, 68
14, 110399, Note_on_c, 11, 63, 0
14, 111600, Control_c, 11, 11, 96
14, 113130, Control_c, 11, 11, 97
14, 113160, Note_on_c, 11, 79, 68
14, 113220, Control_c, 11, 11, 99
14, 113310, Control_c, 11, 11, 100
14, 113384, Note_on_c, 11, 79, 0
14, 113400, Note_on_c, 11, 79, 68
14, 113400, Control_c, 11, 11, 101
14, 113490, Control_c, 11, 11, 102
14, 113580, Control_c, 11, 11, 104
14, 113624, Note_on_c, 11, 79, 0
14, 113640, Note_on_c, 11, 79, 68
14, 113670, Control_c, 11, 11, 105
14, 113760, Control_c, 11, 11, 106
14, 113850, Control_c, 11, 11, 108
14, 113864, Note_on_c, 11, 79, 0
14, 113880, Note_on_c, 11, 79, 68
14, 113940, Control_c, 11, 11, 109
14, 114030, Control_c, 11, 11, 110
14, 114104, Note_on_c, 11, 79, 0
14, 114120, Note_on_c, 11, 79, 68
14, 114120, Control_c, 11, 11, 112
14, 114210, Control_c, 11, 11, 113
14, 114300, Control_c, 11, 11, 114
14, 114344, Note_on_c, 11, 79, 0
14, 114360, Note_on_c, 11, 79, 68
14, 114390, Control_c, 11, 11, 115
14, 114480, Control_c, 11, 11, 117
14, 114570, Control_c, 11, 11, 118
14, 114660, Control_c, 11, 11, 119
14, 114750, Control_c, 11, 11, 121
14, 114840, Control_c, 11, 11, 122
14, 114930, Control_c, 11, 11, 123
14, 115020, Control_c, 11, 11, 124
14, 115110, Control_c, 11, 11, 127
14, 115184, Note_on_c, 11, 79, 0
14, 115200, Note_on_c, 11, 80, 76
14, 115200, Control_c, 11, 11, 127
14, 115260, Control_c, 11, 11, 123
14, 115320, Control_c, 11, 11, 119
14, 115380, Control_c, 11, 11, 115
14, 115440, Control_c, 11, 11, 111
14, 115500, Control_c, 11, 11, 107
14, 115560, Control_c, 11, 11, 104
14, 115620, Control_c, 11, 11, 100
14, 115680, Control_c, 11, 11, 96
14, 115740, Control_c, 11, 11, 92
14, 115800, Control_c, 11, 11, 88
14, 115860, Control_c, 11, 11, 84
14, 115920, Control_c, 11, 11, 80
14, 116369, Note_on_c, 11, 80, 0
14, 116385, Control_c, 11, 11, 96
14, 116400, Note_on_c, 11, 79, 68
14, 116639, Note_on_c, 11, 79, 0
14, 116640, Note_on_c, 11, 77, 68
14, 116879, Note_on_c, 11, 77, 0
14, 116880, Note_on_c, 11, 79, 68
14, 117119, Note_on_c, 11, 79, 0
14, 117120, Note_on_c, 11, 80, 68
14, 117344, Note_on_c, 11, 80, 0
14, 117360, Control_c, 11, 11, 96
14, 117360, Note_on_c, 11, 79, 68
14, 117479, Note_on_c, 11, 79, 0
14, 117480, Note_on_c, 11, 82, 68
14, 117480, Control_c, 11, 11, 99
14, 117599, Note_on_c, 11, 82, 0
14, 117600, Note_on_c, 11, 80, 68
14, 117600, Control_c, 11, 11, 101
14, 117719, Note_on_c, 11, 80, 0
14, 117720, Note_on_c, 11, 79, 68
14, 117720, Control_c, 11, 11, 104
14, 117839, Note_on_c, 11, 79, 0
14, 117840, Note_on_c, 11, 77, 68
14, 117840, Control_c, 11, 11, 106
14, 117959, Note_on_c, 11, 77, 0
14, 117960, Note_on_c, 11, 75, 68
14, 117960, Control_c, 11, 11, 109
14, 118064, Note_on_c, 11, 75, 0
14, 118080, Note_on_c, 11, 74, 68
14, 118080, Control_c, 11, 11, 112
14, 118199, Note_on_c, 11, 74, 0
14, 118200, Note_on_c, 11, 70, 68
14, 118200, Control_c, 11, 11, 114
14, 118319, Note_on_c, 11, 70, 0
14, 118320, Control_c, 11, 11, 117
14, 118320, Note_on_c, 11, 75, 68
14, 118439, Note_on_c, 11, 75, 0
14, 118440, Control_c, 11, 11, 119
14, 118440, Note_on_c, 11, 70, 68
14, 118559, Note_on_c, 11, 70, 0
14, 118560, Note_on_c, 11, 68, 68
14, 118560, Control_c, 11, 11, 122
14, 118679, Note_on_c, 11, 68, 0
14, 118680, Control_c, 11, 11, 127
14, 118680, Note_on_c, 11, 65, 68
14, 118784, Note_on_c, 11, 65, 0
14, 118800, Note_on_c, 11, 63, 52
14, 119039, Note_on_c, 11, 63, 0
14, 121440, Note_on_c, 11, 76, 52
14, 121679, Note_on_c, 11, 76, 0
14, 121680, Note_on_c, 11, 77, 52
14, 121919, Note_on_c, 11, 77, 0
14, 121920, Note_on_c, 11, 80, 52
14, 122159, Note_on_c, 11, 80, 0
14, 122160, Note_on_c, 11, 84, 52
14, 122384, Note_on_c, 11, 84, 0
14, 122400, Note_on_c, 11, 77, 52
14, 122639, Note_on_c, 11, 77, 0
14, 124320, Note_on_c, 11, 81, 76
14, 124559, Note_on_c, 11, 81, 0
14, 124560, Note_on_c, 11, 82, 76
14, 124680, Control_c, 11, 11, 80
14, 125009, Note_on_c, 11, 82, 0
14, 125025, Control_c, 11, 11, 127
14, 125040, Note_on_c, 11, 77, 52
14, 125279, Note_on_c, 11, 77, 0
14, 125280, Note_on_c, 11, 74, 52
14, 125519, Note_on_c, 11, 74, 0
14, 125520, Note_on_c, 11, 70, 52
14, 125759, Note_on_c, 11, 70, 0
14, 125760, Note_on_c, 11, 68, 52
14, 125984, Note_on_c, 11, 68, 0
14, 126000, Note_on_c, 11, 67, 52
14, 126179, Note_on_c, 11, 67, 0
14, 126240, Note_on_c, 11, 75, 76
14, 126479, Note_on_c, 11, 75, 0
14, 126480, Note_on_c, 11, 69, 52
14, 126704, Note_on_c, 11, 69, 0
14, 126720, Note_on_c, 11, 81, 76
14, 126959, Note_on_c, 11, 81, 0
14, 126960, Note_on_c, 11, 69, 52
14, 127184, Note_on_c, 11, 69, 0
14, 127200, Note_on_c, 11, 81, 76
14, 127439, Note_on_c, 11, 81, 0
14, 127440, Note_on_c, 11, 82, 76
14, 127560, Control_c, 11, 11, 80
14, 127889, Note_on_c, 11, 82, 0
14, 127905, Control_c, 11, 11, 127
14, 127920, Note_on_c, 11, 77, 52
14, 128159, Note_on_c, 11, 77, 0
14, 128160, Note_on_c, 11, 74, 52
14, 128399, Note_on_c, 11, 74, 0
14, 128400, Note_on_c, 11, 70, 52
14, 128624, Note_on_c, 11, 70, 0
14, 128640, Note_on_c, 11, 70, 76
14, 128640, Note_on_c, 11, 62, 76
14, 128879, Note_on_c, 11, 70, 0
14, 128879, Note_on_c, 11, 62, 0
14, 128880, Note_on_c, 11, 62, 52
14, 128880, Note_on_c, 11, 70, 52
14, 129089, Note_on_c, 11, 62, 0
14, 129089, Note_on_c, 11, 70, 0
14, 129120, Note_on_c, 11, 74, 76
14, 129359, Note_on_c, 11, 74, 0
14, 129360, Note_on_c, 11, 70, 52
14, 129584, Note_on_c, 11, 70, 0
14, 129600, Note_on_c, 11, 77, 76
14, 129839, Note_on_c, 11, 77, 0
14, 129840, Note_on_c, 11, 70, 52
14, 130064, Note_on_c, 11, 70, 0
14, 130080, Note_on_c, 11, 82, 76
14, 130080, Note_on_c, 11, 70, 76
14, 130319, Note_on_c, 11, 82, 0
14, 130319, Note_on_c, 11, 70, 0
14, 130320, Note_on_c, 11, 82, 52
14, 130320, Note_on_c, 11, 70, 52
14, 130544, Note_on_c, 11, 82, 0
14, 130544, Note_on_c, 11, 70, 0
14, 130560, Note_on_c, 11, 75, 76
14, 130799, Note_on_c, 11, 75, 0
14, 130800, Note_on_c, 11, 70, 52
14, 131024, Note_on_c, 11, 70, 0
14, 131040, Note_on_c, 11, 79, 76
14, 131279, Note_on_c, 11, 79, 0
14, 131280, Note_on_c, 11, 70, 52
14, 131504, Note_on_c, 11, 70, 0
14, 131520, Note_on_c, 11, 82, 76
14, 131520, Note_on_c, 11, 70, 76
14, 131759, Note_on_c, 11, 82, 0
14, 131759, Note_on_c, 11, 70, 0
14, 131760, Note_on_c, 11, 82, 52
14, 131760, Note_on_c, 11, 70, 52
14, 131984, Note_on_c, 11, 82, 0
14, 131984, Note_on_c, 11, 70, 0
14, 132000, Note_on_c, 11, 70, 52
14, 132179, Note_on_c, 11, 70, 0
14, 132240, Note_on_c, 11, 82, 76
14, 132240, Note_on_c, 11, 70, 76
14, 132479, Note_on_c, 11, 82, 0
14, 132479, Note_on_c, 11, 70, 0
14, 132480, Note_on_c, 11, 70, 52
14, 132480, Note_on_c, 11, 82, 52
14, 132704, Note_on_c, 11, 70, 0
14, 132704, Note_on_c, 11, 82, 0
14, 132720, Note_on_c, 11, 70, 52
14, 132899, Note_on_c, 11, 70, 0
14, 132960, Note_on_c, 11, 70, 76
14, 132960, Note_on_c, 11, 82, 76
14, 133199, Note_on_c, 11, 70, 0
14, 133199, Note_on_c, 11, 82, 0
14, 133200, Note_on_c, 11, 82, 52
14, 133200, Note_on_c, 11, 70, 52
14, 133424, Note_on_c, 11, 82, 0
14, 133424, Note_on_c, 11, 70, 0
14, 133440, Note_on_c, 11, 70, 52
14, 133491, Note_on_c, 11, 70, 0
14, 133500, Note_on_c, 11, 70, 53
14, 133551, Note_on_c, 11, 70, 0
14, 133560, Note_on_c, 11, 72, 55
14, 133611, Note_on_c, 11, 72, 0
14, 133620, Note_on_c, 11, 72, 56
14, 133671, Note_on_c, 11, 72, 0
14, 133680, Note_on_c, 11, 74, 58
14, 133731, Note_on_c, 11, 74, 0
14, 133740, Note_on_c, 11, 74, 60
14, 133791, Note_on_c, 11, 74, 0
14, 133800, Note_on_c, 11, 75, 61
14, 133851, Note_on_c, 11, 75, 0
14, 133860, Note_on_c, 11, 75, 63
14, 133911, Note_on_c, 11, 75, 0
14, 133920, Note_on_c, 11, 77, 64
14, 133971, Note_on_c, 11, 77, 0
14, 133980, Note_on_c, 11, 77, 66
14, 134031, Note_on_c, 11, 77, 0
14, 134040, Note_on_c, 11, 79, 68
14, 134091, Note_on_c, 11, 79, 0
14, 134100, Note_on_c, 11, 79, 69
14, 134151, Note_on_c, 11, 79, 0
14, 134160, Note_on_c, 11, 80, 71
14, 134211, Note_on_c, 11, 80, 0
14, 134220, Note_on_c, 11, 80, 72
14, 134271, Note_on_c, 11, 80, 0
14, 134280, Note_on_c, 11, 82, 74
14, 134331, Note_on_c, 11, 82, 0
14, 134340, Note_on_c, 11, 82, 76
14, 134391, Note_on_c, 11, 82, 0
14, 134400, Note_on_c, 11, 84, 77
14, 134451, Note_on_c, 11, 84, 0
14, 134460, Note_on_c, 11, 84, 79
14, 134511, Note_on_c, 11, 84, 0
14, 134520, Note_on_c, 11, 86, 80
14, 134571, Note_on_c, 11, 86, 0
14, 134580, Note_on_c, 11, 86, 82
14, 134631, Note_on_c, 11, 86, 0
14, 134640, Note_on_c, 11, 87, 84
14, 134691, Note_on_c, 11, 87, 0
14, 134700, Note_on_c, 11, 87, 84
14, 134751, Note_on_c, 11, 87, 0
14, 134760, Note_on_c, 11, 87, 84
14, 134811, Note_on_c, 11, 87, 0
14, 134820, Note_on_c, 11, 87, 84
14, 134871, Note_on_c, 11, 87, 0
14, 134880, Note_on_c, 11, 87, 84
14, 134931, Note_on_c, 11, 87, 0
14, 134940, Note_on_c, 11, 87, 84
14, 134991, Note_on_c, 11, 87, 0
14, 135000, Note_on_c, 11, 87, 84
14, 135051, Note_on_c, 11, 87, 0
14, 135060, Note_on_c, 11, 87, 84
14, 135111, Note_on_c, 11, 87, 0
14, 135120, Note_on_c, 11, 87, 84
14, 135171, Note_on_c, 11, 87, 0
14, 135180, Note_on_c, 11, 87, 84
14, 135231, Note_on_c, 11, 87, 0
14, 135240, Note_on_c, 11, 87, 84
14, 135291, Note_on_c, 11, 87, 0
14, 135300, Note_on_c, 11, 87, 84
14, 135351, Note_on_c, 11, 87, 0
14, 135360, Note_on_c, 11, 87, 84
14, 135411, Note_on_c, 11, 87, 0
14, 135420, Note_on_c, 11, 87, 84
14, 135471, Note_on_c, 11, 87, 0
14, 135480, Note_on_c, 11, 87, 84
14, 135531, Note_on_c, 11, 87, 0
14, 135540, Note_on_c, 11, 87, 84
14, 135591, Note_on_c, 11, 87, 0
14, 135600, Note_on_c, 11, 87, 84
14, 135651, Note_on_c, 11, 87, 0
14, 135660, Note_on_c, 11, 87, 84
14, 135711, Note_on_c, 11, 87, 0
14, 135720, Note_on_c, 11, 87, 84
14, 135771, Note_on_c, 11, 87, 0
14, 135780, Note_on_c, 11, 87, 84
14, 135831, Note_on_c, 11, 87, 0
14, 135840, Note_on_c, 11, 87, 84
14, 135891, Note_on_c, 11, 87, 0
14, 135900, Note_on_c, 11, 87, 84
14, 135951, Note_on_c, 11, 87, 0
14, 135960, Note_on_c, 11, 87, 84
14, 136011, Note_on_c, 11, 87, 0
14, 136020, Note_on_c, 11, 87, 84
14, 136071, Note_on_c, 11, 87, 0
14, 136080, Note_on_c, 11, 87, 84
14, 136131, Note_on_c, 11, 87, 0
14, 136140, Note_on_c, 11, 87, 84
14, 136191, Note_on_c, 11, 87, 0
14, 136200, Note_on_c, 11, 87, 84
14, 136251, Note_on_c, 11, 87, 0
14, 136260, Note_on_c, 11, 87, 84
14, 136311, Note_on_c, 11, 87, 0
14, 136320, Note_on_c, 11, 87, 84
14, 136371, Note_on_c, 11, 87, 0
14, 136380, Note_on_c, 11, 87, 84
14, 136431, Note_on_c, 11, 87, 0
14, 136440, Note_on_c, 11, 87, 84
14, 136491, Note_on_c, 11, 87, 0
14, 136500, Note_on_c, 11, 87, 84
14, 136551, Note_on_c, 11, 87, 0
14, 136560, Note_on_c, 11, 87, 84
14, 136611, Note_on_c, 11, 87, 0
14, 136620, Note_on_c, 11, 87, 84
14, 136671, Note_on_c, 11, 87, 0
14, 136680, Note_on_c, 11, 87, 84
14, 136731, Note_on_c, 11, 87, 0
14, 136740, Note_on_c, 11, 87, 84
14, 136791, Note_on_c, 11, 87, 0
14, 136800, Note_on_c, 11, 87, 84
14, 136851, Note_on_c, 11, 87, 0
14, 136860, Note_on_c, 11, 87, 84
14, 136911, Note_on_c, 11, 87, 0
14, 136920, Note_on_c, 11, 87, 84
14, 136971, Note_on_c, 11, 87, 0
14, 136980, Note_on_c, 11, 87, 84
14, 137031, Note_on_c, 11, 87, 0
14, 137040, Note_on_c, 11, 87, 84
14, 137091, Note_on_c, 11, 87, 0
14, 137100, Note_on_c, 11, 87, 84
14, 137151, Note_on_c, 11, 87, 0
14, 137160, Note_on_c, 11, 87, 84
14, 137211, Note_on_c, 11, 87, 0
14, 137220, Note_on_c, 11, 87, 84
14, 137271, Note_on_c, 11, 87, 0
14, 137280, Note_on_c, 11, 87, 92
14, 137331, Note_on_c, 11, 87, 0
14, 137340, Note_on_c, 11, 87, 84
14, 137391, Note_on_c, 11, 87, 0
14, 137400, Note_on_c, 11, 87, 84
14, 137451, Note_on_c, 11, 87, 0
14, 137460, Note_on_c, 11, 87, 84
14, 137511, Note_on_c, 11, 87, 0
14, 137520, Note_on_c, 11, 87, 84
14, 137571, Note_on_c, 11, 87, 0
14, 137580, Note_on_c, 11, 87, 84
14, 137631, Note_on_c, 11, 87, 0
14, 137640, Note_on_c, 11, 87, 84
14, 137691, Note_on_c, 11, 87, 0
14, 137700, Note_on_c, 11, 87, 84
14, 137751, Note_on_c, 11, 87, 0
14, 137760, Note_on_c, 11, 87, 84
14, 137811, Note_on_c, 11, 87, 0
14, 137820, Note_on_c, 11, 87, 84
14, 137871, Note_on_c, 11, 87, 0
14, 137880, Note_on_c, 11, 87, 84
14, 137931, Note_on_c, 11, 87, 0
14, 137940, Note_on_c, 11, 87, 84
14, 137991, Note_on_c, 11, 87, 0
14, 138000, Note_on_c, 11, 87, 84
14, 138051, Note_on_c, 11, 87, 0
14, 138060, Note_on_c, 11, 87, 84
14, 138111, Note_on_c, 11, 87, 0
14, 138120, Note_on_c, 11, 87, 84
14, 138171, Note_on_c, 11, 87, 0
14, 138180, Note_on_c, 11, 87, 84
14, 138231, Note_on_c, 11, 87, 0
14, 138240, Note_on_c, 11, 87, 84
14, 138291, Note_on_c, 11, 87, 0
14, 138300, Note_on_c, 11, 87, 84
14, 138351, Note_on_c, 11, 87, 0
14, 138360, Note_on_c, 11, 87, 84
14, 138411, Note_on_c, 11, 87, 0
14, 138420, Note_on_c, 11, 87, 84
14, 138471, Note_on_c, 11, 87, 0
14, 138480, Note_on_c, 11, 87, 84
14, 138531, Note_on_c, 11, 87, 0
14, 138540, Note_on_c, 11, 87, 84
14, 138591, Note_on_c, 11, 87, 0
14, 138600, Note_on_c, 11, 87, 84
14, 138651, Note_on_c, 11, 87, 0
14, 138660, Note_on_c, 11, 87, 84
14, 138711, Note_on_c, 11, 87, 0
14, 138720, Note_on_c, 11, 87, 92
14, 138771, Note_on_c, 11, 87, 0
14, 138780, Note_on_c, 11, 87, 84
14, 138831, Note_on_c, 11, 87, 0
14, 138840, Note_on_c, 11, 87, 84
14, 138891, Note_on_c, 11, 87, 0
14, 138900, Note_on_c, 11, 87, 84
14, 138951, Note_on_c, 11, 87, 0
14, 138960, Note_on_c, 11, 87, 84
14, 139011, Note_on_c, 11, 87, 0
14, 139020, Note_on_c, 11, 87, 84
14, 139071, Note_on_c, 11, 87, 0
14, 139080, Note_on_c, 11, 87, 84
14, 139131, Note_on_c, 11, 87, 0
14, 139140, Note_on_c, 11, 87, 84
14, 139191, Note_on_c, 11, 87, 0
14, 139200, Note_on_c, 11, 87, 84
14, 139251, Note_on_c, 11, 87, 0
14, 139260, Note_on_c, 11, 87, 84
14, 139311, Note_on_c, 11, 87, 0
14, 139320, Note_on_c, 11, 87, 84
14, 139371, Note_on_c, 11, 87, 0
14, 139380, Note_on_c, 11, 87, 84
14, 139431, Note_on_c, 11, 87, 0
14, 139440, Note_on_c, 11, 87, 84
14, 139491, Note_on_c, 11, 87, 0
14, 139500, Note_on_c, 11, 87, 84
14, 139551, Note_on_c, 11, 87, 0
14, 139560, Note_on_c, 11, 87, 84
14, 139611, Note_on_c, 11, 87, 0
14, 139620, Note_on_c, 11, 87, 84
14, 139671, Note_on_c, 11, 87, 0
14, 139680, Note_on_c, 11, 88, 84
14, 139731, Note_on_c, 11, 88, 0
14, 139740, Note_on_c, 11, 88, 84
14, 139791, Note_on_c, 11, 88, 0
14, 139800, Note_on_c, 11, 88, 84
14, 139851, Note_on_c, 11, 88, 0
14, 139860, Note_on_c, 11, 88, 84
14, 139911, Note_on_c, 11, 88, 0
14, 139920, Note_on_c, 11, 88, 84
14, 139971, Note_on_c, 11, 88, 0
14, 139980, Note_on_c, 11, 88, 84
14, 140031, Note_on_c, 11, 88, 0
14, 140040, Note_on_c, 11, 88, 84
14, 140091, Note_on_c, 11, 88, 0
14, 140100, Note_on_c, 11, 88, 84
14, 140151, Note_on_c, 11, 88, 0
14, 140160, Note_on_c, 11, 88, 84
14, 140211, Note_on_c, 11, 88, 0
14, 140220, Note_on_c, 11, 88, 84
14, 140271, Note_on_c, 11, 88, 0
14, 140280, Note_on_c, 11, 88, 84
14, 140331, Note_on_c, 11, 88, 0
14, 140340, Note_on_c, 11, 88, 84
14, 140391, Note_on_c, 11, 88, 0
14, 140400, Note_on_c, 11, 89, 84
14, 140639, Note_on_c, 11, 89, 0
14, 142800, Note_on_c, 11, 84, 52
14, 143159, Note_on_c, 11, 84, 0
14, 143160, Note_on_c, 11, 75, 52
14, 143264, Note_on_c, 11, 75, 0
14, 143280, Note_on_c, 11, 74, 52
14, 143519, Note_on_c, 11, 74, 0
14, 145680, Note_on_c, 11, 82, 52
14, 146039, Note_on_c, 11, 82, 0
14, 146040, Note_on_c, 11, 74, 52
14, 146144, Note_on_c, 11, 74, 0
14, 146160, Note_on_c, 11, 75, 52
14, 146249, Note_on_c, 11, 75, 0
14, 146280, Note_on_c, 11, 60, 52
14, 146399, Note_on_c, 11, 60, 0
14, 146400, Note_on_c, 11, 63, 52
14, 146519, Note_on_c, 11, 63, 0
14, 146520, Note_on_c, 11, 60, 52
14, 146639, Note_on_c, 11, 60, 0
14, 146640, Note_on_c, 11, 63, 52
14, 146759, Note_on_c, 11, 63, 0
14, 146760, Note_on_c, 11, 60, 52
14, 146864, Note_on_c, 11, 60, 0
14, 146880, Note_on_c, 11, 63, 52
14, 146999, Note_on_c, 11, 63, 0
14, 147000, Note_on_c, 11, 60, 52
14, 147119, Note_on_c, 11, 60, 0
14, 147120, Note_on_c, 11, 63, 52
14, 147239, Note_on_c, 11, 63, 0
14, 147240, Note_on_c, 11, 60, 52
14, 147359, Note_on_c, 11, 60, 0
14, 147360, Note_on_c, 11, 63, 52
14, 147479, Note_on_c, 11, 63, 0
14, 147480, Note_on_c, 11, 60, 52
14, 147584, Note_on_c, 11, 60, 0
14, 147600, Note_on_c, 11, 63, 52
14, 147824, Note_on_c, 11, 63, 0
14, 147840, Note_on_c, 11, 79, 84
14, 148184, Note_on_c, 11, 79, 0
14, 148200, Note_on_c, 11, 77, 84
14, 148304, Note_on_c, 11, 77, 0
14, 148320, Note_on_c, 11, 75, 84
14, 148499, Note_on_c, 11, 75, 0
14, 148560, Note_on_c, 11, 74, 84
14, 148739, Note_on_c, 11, 74, 0
14, 148800, Note_on_c, 11, 72, 84
14, 148979, Note_on_c, 11, 72, 0
14, 149025, Control_c, 11, 11, 96
14, 149040, Control_c, 11, 11, 96
14, 149040, Note_on_c, 11, 70, 68
14, 149100, Control_c, 11, 11, 99
14, 149160, Control_c, 11, 11, 101
14, 149220, Control_c, 11, 11, 104
14, 149280, Control_c, 11, 11, 106
14, 149340, Control_c, 11, 11, 109
14, 149400, Control_c, 11, 11, 112
14, 149460, Control_c, 11, 11, 114
14, 149520, Control_c, 11, 11, 117
14, 149580, Control_c, 11, 11, 119
14, 149640, Control_c, 11, 11, 122
14, 149700, Control_c, 11, 11, 124
14, 149759, Note_on_c, 11, 70, 0
14, 149760, Note_on_c, 11, 70, 68
14, 149760, Control_c, 11, 11, 127
14, 149820, Control_c, 11, 11, 124
14, 149880, Control_c, 11, 11, 122
14, 149940, Control_c, 11, 11, 119
14, 150000, Control_c, 11, 11, 117
14, 150060, Control_c, 11, 11, 114
14, 150120, Control_c, 11, 11, 112
14, 150180, Control_c, 11, 11, 109
14, 150240, Control_c, 11, 11, 106
14, 150300, Control_c, 11, 11, 104
14, 150360, Control_c, 11, 11, 101
14, 150420, Control_c, 11, 11, 96
14, 150704, Note_on_c, 11, 70, 0
14, 150720, Note_on_c, 11, 77, 68
14, 150929, Note_on_c, 11, 77, 0
14, 150960, Note_on_c, 11, 77, 68
14, 151169, Note_on_c, 11, 77, 0
14, 151200, Note_on_c, 11, 77, 68
14, 151409, Note_on_c, 11, 77, 0
14, 151440, Note_on_c, 11, 77, 68
14, 151649, Note_on_c, 11, 77, 0
14, 151680, Note_on_c, 11, 77, 68
14, 151889, Note_on_c, 11, 77, 0
14, 151905, Control_c, 11, 11, 80
14, 151920, Control_c, 11, 11, 80
14, 151920, Note_on_c, 11, 77, 76
14, 152009, Note_on_c, 11, 77, 0
14, 152040, Note_on_c, 11, 74, 76
14, 152040, Control_c, 11, 11, 82
14, 152159, Note_on_c, 11, 74, 0
14, 152160, Control_c, 11, 11, 84
14, 152160, Note_on_c, 11, 72, 76
14, 152279, Note_on_c, 11, 72, 0
14, 152280, Control_c, 11, 11, 86
14, 152280, Note_on_c, 11, 74, 76
14, 152399, Note_on_c, 11, 74, 0
14, 152400, Note_on_c, 11, 75, 76
14, 152400, Control_c, 11, 11, 88
14, 152519, Note_on_c, 11, 75, 0
14, 152520, Note_on_c, 11, 77, 76
14, 152520, Control_c, 11, 11, 90
14, 152624, Note_on_c, 11, 77, 0
14, 152640, Control_c, 11, 11, 92
14, 152640, Note_on_c, 11, 79, 76
14, 152759, Note_on_c, 11, 79, 0
14, 152760, Control_c, 11, 11, 94
14, 152760, Note_on_c, 11, 81, 76
14, 152864, Note_on_c, 11, 81, 0
14, 152880, Note_on_c, 11, 82, 76
14, 152880, Control_c, 11, 11, 96
14, 152969, Note_on_c, 11, 82, 0
14, 153000, Control_c, 11, 11, 98
14, 153000, Note_on_c, 11, 82, 76
14, 153089, Note_on_c, 11, 82, 0
14, 153120, Control_c, 11, 11, 100
14, 153120, Note_on_c, 11, 82, 76
14, 153209, Note_on_c, 11, 82, 0
14, 153240, Note_on_c, 11, 82, 76
14, 153240, Control_c, 11, 11, 102
14, 153329, Note_on_c, 11, 82, 0
14, 153360, Control_c, 11, 11, 104
14, 153360, Note_on_c, 11, 82, 76
14, 153449, Note_on_c, 11, 82, 0
14, 153480, Control_c, 11, 11, 105
14, 153480, Note_on_c, 11, 82, 76
14, 153569, Note_on_c, 11, 82, 0
14, 153600, Note_on_c, 11, 81, 76
14, 153600, Control_c, 11, 11, 107
14, 153689, Note_on_c, 11, 81, 0
14, 153720, Control_c, 11, 11, 109
14, 153720, Note_on_c, 11, 82, 76
14, 153809, Note_on_c, 11, 82, 0
14, 153840, Note_on_c, 11, 84, 76
14, 153840, Control_c, 11, 11, 111
14, 153929, Note_on_c, 11, 84, 0
14, 153960, Note_on_c, 11, 86, 76
14, 153960, Control_c, 11, 11, 113
14, 154049, Note_on_c, 11, 86, 0
14, 154080, Control_c, 11, 11, 115
14, 154080, Note_on_c, 11, 87, 76
14, 154169, Note_on_c, 11, 87, 0
14, 154200, Note_on_c, 11, 87, 76
14, 154200, Control_c, 11, 11, 117
14, 154289, Note_on_c, 11, 87, 0
14, 154320, Note_on_c, 11, 87, 76
14, 154320, Control_c, 11, 11, 119
14, 154409, Note_on_c, 11, 87, 0
14, 154440, Control_c, 11, 11, 121
14, 154440, Note_on_c, 11, 87, 76
14, 154529, Note_on_c, 11, 87, 0
14, 154560, Note_on_c, 11, 87, 76
14, 154560, Control_c, 11, 11, 123
14, 154649, Note_on_c, 11, 87, 0
14, 154680, Control_c, 11, 11, 127
14, 154680, Note_on_c, 11, 87, 76
14, 154769, Note_on_c, 11, 87, 0
14, 154800, Note_on_c, 11, 87, 76
14, 154889, Note_on_c, 11, 87, 0
14, 154920, Note_on_c, 11, 84, 76
14, 154979, Note_on_c, 11, 84, 0
14, 154980, Note_on_c, 11, 86, 76
14, 155031, Note_on_c, 11, 86, 0
14, 155040, Note_on_c, 11, 84, 76
14, 155129, Note_on_c, 11, 84, 0
14, 155160, Note_on_c, 11, 81, 76
14, 155219, Note_on_c, 11, 81, 0
14, 155220, Note_on_c, 11, 82, 76
14, 155271, Note_on_c, 11, 82, 0
14, 155280, Note_on_c, 11, 81, 76
14, 155369, Note_on_c, 11, 81, 0
14, 155400, Note_on_c, 11, 75, 76
14, 155459, Note_on_c, 11, 75, 0
14, 155460, Note_on_c, 11, 77, 76
14, 155511, Note_on_c, 11, 77, 0
14, 155520, Note_on_c, 11, 75, 76
14, 155609, Note_on_c, 11, 75, 0
14, 155640, Note_on_c, 11, 72, 76
14, 155699, Note_on_c, 11, 72, 0
14, 155700, Note_on_c, 11, 74, 76
14, 155751, Note_on_c, 11, 74, 0
14, 155760, Note_on_c, 11, 72, 76
14, 155849, Note_on_c, 11, 72, 0
14, 155880, Note_on_c, 11, 69, 76
14, 155939, Note_on_c, 11, 69, 0
14, 155940, Note_on_c, 11, 70, 76
14, 155991, Note_on_c, 11, 70, 0
14, 156000, Note_on_c, 11, 69, 76
14, 156089, Note_on_c, 11, 69, 0
14, 156120, Note_on_c, 11, 87, 76
14, 156209, Note_on_c, 11, 87, 0
14, 156240, Note_on_c, 11, 86, 76
14, 156329, Note_on_c, 11, 86, 0
14, 156360, Note_on_c, 11, 82, 76
14, 156419, Note_on_c, 11, 82, 0
14, 156420, Note_on_c, 11, 84, 76
14, 156471, Note_on_c, 11, 84, 0
14, 156480, Note_on_c, 11, 82, 76
14, 156569, Note_on_c, 11, 82, 0
14, 156600, Note_on_c, 11, 79, 76
14, 156659, Note_on_c, 11, 79, 0
14, 156660, Note_on_c, 11, 81, 76
14, 156711, Note_on_c, 11, 81, 0
14, 156720, Note_on_c, 11, 79, 76
14, 156809, Note_on_c, 11, 79, 0
14, 156840, Note_on_c, 11, 74, 76
14, 156899, Note_on_c, 11, 74, 0
14, 156900, Note_on_c, 11, 75, 76
14, 156951, Note_on_c, 11, 75, 0
14, 156960, Note_on_c, 11, 74, 76
14, 157049, Note_on_c, 11, 74, 0
14, 157080, Note_on_c, 11, 70, 76
14, 157139, Note_on_c, 11, 70, 0
14, 157140, Note_on_c, 11, 72, 76
14, 157191, Note_on_c, 11, 72, 0
14, 157200, Note_on_c, 11, 70, 76
14, 157289, Note_on_c, 11, 70, 0
14, 157320, Note_on_c, 11, 67, 76
14, 157379, Note_on_c, 11, 67, 0
14, 157380, Note_on_c, 11, 69, 76
14, 157431, Note_on_c, 11, 69, 0
14, 157440, Note_on_c, 11, 67, 76
14, 157529, Note_on_c, 11, 67, 0
14, 157560, Note_on_c, 11, 79, 76
14, 157649, Note_on_c, 11, 79, 0
14, 157680, Note_on_c, 11, 80, 76
14, 157769, Note_on_c, 11, 80, 0
14, 157800, Note_on_c, 11, 68, 76
14, 157859, Note_on_c, 11, 68, 0
14, 157860, Note_on_c, 11, 70, 76
14, 157911, Note_on_c, 11, 70, 0
14, 157920, Note_on_c, 11, 68, 76
14, 158009, Note_on_c, 11, 68, 0
14, 158040, Note_on_c, 11, 65, 76
14, 158099, Note_on_c, 11, 65, 0
14, 158100, Note_on_c, 11, 67, 76
14, 158151, Note_on_c, 11, 67, 0
14, 158160, Note_on_c, 11, 65, 76
14, 158249, Note_on_c, 11, 65, 0
14, 158280, Note_on_c, 11, 62, 76
14, 158339, Note_on_c, 11, 62, 0
14, 158340, Note_on_c, 11, 63, 76
14, 158391, Note_on_c, 11, 63, 0
14, 158400, Note_on_c, 11, 62, 76
14, 158489, Note_on_c, 11, 62, 0
14, 158520, Note_on_c, 11, 59, 76
14, 158579, Note_on_c, 11, 59, 0
14, 158580, Note_on_c, 11, 60, 76
14, 158631, Note_on_c, 11, 60, 0
14, 158640, Note_on_c, 11, 59, 76
14, 158729, Note_on_c, 11, 59, 0
14, 158760, Note_on_c, 11, 71, 76
14, 158819, Note_on_c, 11, 71, 0
14, 158820, Note_on_c, 11, 72, 76
14, 158871, Note_on_c, 11, 72, 0
14, 158880, Note_on_c, 11, 71, 76
14, 158969, Note_on_c, 11, 71, 0
14, 159000, Note_on_c, 11, 80, 76
14, 159089, Note_on_c, 11, 80, 0
14, 159120, Note_on_c, 11, 79, 76
14, 159209, Note_on_c, 11, 79, 0
14, 159240, Note_on_c, 11, 67, 76
14, 159299, Note_on_c, 11, 67, 0
14, 159300, Note_on_c, 11, 68, 76
14, 159351, Note_on_c, 11, 68, 0
14, 159360, Note_on_c, 11, 67, 76
14, 159449, Note_on_c, 11, 67, 0
14, 159480, Note_on_c, 11, 79, 76
14, 159569, Note_on_c, 11, 79, 0
14, 159600, Note_on_c, 11, 81, 76
14, 159689, Note_on_c, 11, 81, 0
14, 159720, Note_on_c, 11, 69, 76
14, 159809, Note_on_c, 11, 69, 0
14, 159840, Note_on_c, 11, 82, 76
14, 159929, Note_on_c, 11, 82, 0
14, 159960, Note_on_c, 11, 70, 76
14, 160019, Note_on_c, 11, 70, 0
14, 160020, Note_on_c, 11, 72, 76
14, 160071, Note_on_c, 11, 72, 0
14, 160080, Note_on_c, 11, 70, 76
14, 160169, Note_on_c, 11, 70, 0
14, 160200, Note_on_c, 11, 82, 76
14, 160289, Note_on_c, 11, 82, 0
14, 160320, Note_on_c, 11, 84, 76
14, 160409, Note_on_c, 11, 84, 0
14, 160440, Note_on_c, 11, 72, 76
14, 160529, Note_on_c, 11, 72, 0
14, 160560, Note_on_c, 11, 86, 76
14, 160649, Note_on_c, 11, 86, 0
14, 160680, Note_on_c, 11, 74, 76
14, 160769, Note_on_c, 11, 74, 0
14, 160800, Note_on_c, 11, 86, 76
14, 160889, Note_on_c, 11, 86, 0
14, 160920, Note_on_c, 11, 74, 76
14, 161009, Note_on_c, 11, 74, 0
14, 161040, Note_on_c, 11, 87, 76
14, 161129, Note_on_c, 11, 87, 0
14, 161160, Note_on_c, 11, 75, 76
14, 161249, Note_on_c, 11, 75, 0
14, 161280, Note_on_c, 11, 88, 76
14, 161369, Note_on_c, 11, 88, 0
14, 161400, Note_on_c, 11, 76, 76
14, 161489, Note_on_c, 11, 76, 0
14, 161520, Note_on_c, 11, 89, 76
14, 161609, Note_on_c, 11, 89, 0
14, 161640, Note_on_c, 11, 77, 76
14, 161729, Note_on_c, 11, 77, 0
14, 161760, Note_on_c, 11, 90, 76
14, 161849, Note_on_c, 11, 90, 0
14, 161880, Note_on_c, 11, 78, 76
14, 161969, Note_on_c, 11, 78, 0
14, 162000, Note_on_c, 11, 91, 76
14, 162051, Note_on_c, 11, 91, 0
14, 162060, Note_on_c, 11, 91, 76
14, 162111, Note_on_c, 11, 91, 0
14, 162120, Note_on_c, 11, 90, 76
14, 162171, Note_on_c, 11, 90, 0
14, 162180, Note_on_c, 11, 90, 76
14, 162231, Note_on_c, 11, 90, 0
14, 162240, Note_on_c, 11, 91, 76
14, 162291, Note_on_c, 11, 91, 0
14, 162300, Note_on_c, 11, 91, 76
14, 162351, Note_on_c, 11, 91, 0
14, 162360, Note_on_c, 11, 90, 76
14, 162411, Note_on_c, 11, 90, 0
14, 162420, Note_on_c, 11, 90, 76
14, 162471, Note_on_c, 11, 90, 0
14, 162480, Note_on_c, 11, 91, 76
14, 162531, Note_on_c, 11, 91, 0
14, 162540, Note_on_c, 11, 91, 76
14, 162591, Note_on_c, 11, 91, 0
14, 162600, Note_on_c, 11, 86, 76
14, 162651, Note_on_c, 11, 86, 0
14, 162660, Note_on_c, 11, 86, 76
14, 162711, Note_on_c, 11, 86, 0
14, 162720, Note_on_c, 11, 87, 76
14, 162771, Note_on_c, 11, 87, 0
14, 162780, Note_on_c, 11, 87, 76
14, 162831, Note_on_c, 11, 87, 0
14, 162840, Note_on_c, 11, 86, 76
14, 162891, Note_on_c, 11, 86, 0
14, 162900, Note_on_c, 11, 86, 76
14, 162951, Note_on_c, 11, 86, 0
14, 162960, Note_on_c, 11, 89, 76
14, 163011, Note_on_c, 11, 89, 0
14, 163020, Note_on_c, 11, 89, 76
14, 163071, Note_on_c, 11, 89, 0
14, 163080, Note_on_c, 11, 87, 76
14, 163131, Note_on_c, 11, 87, 0
14, 163140, Note_on_c, 11, 87, 76
14, 163191, Note_on_c, 11, 87, 0
14, 163200, Note_on_c, 11, 86, 76
14, 163251, Note_on_c, 11, 86, 0
14, 163260, Note_on_c, 11, 86, 76
14, 163311, Note_on_c, 11, 86, 0
14, 163320, Note_on_c, 11, 84, 76
14, 163371, Note_on_c, 11, 84, 0
14, 163380, Note_on_c, 11, 84, 76
14, 163431, Note_on_c, 11, 84, 0
14, 163440, Note_on_c, 11, 82, 76
14, 163491, Note_on_c, 11, 82, 0
14, 163500, Note_on_c, 11, 82, 76
14, 163551, Note_on_c, 11, 82, 0
14, 163560, Note_on_c, 11, 77, 76
14, 163611, Note_on_c, 11, 77, 0
14, 163620, Note_on_c, 11, 77, 76
14, 163671, Note_on_c, 11, 77, 0
14, 163680, Note_on_c, 11, 79, 76
14, 163731, Note_on_c, 11, 79, 0
14, 163740, Note_on_c, 11, 79, 76
14, 163791, Note_on_c, 11, 79, 0
14, 163800, Note_on_c, 11, 81, 76
14, 163851, Note_on_c, 11, 81, 0
14, 163860, Note_on_c, 11, 81, 76
14, 163911, Note_on_c, 11, 81, 0
14, 163920, Note_on_c, 11, 82, 76
14, 163971, Note_on_c, 11, 82, 0
14, 163980, Note_on_c, 11, 82, 76
14, 164031, Note_on_c, 11, 82, 0
14, 164040, Note_on_c, 11, 84, 76
14, 164091, Note_on_c, 11, 84, 0
14, 164100, Note_on_c, 11, 84, 76
14, 164151, Note_on_c, 11, 84, 0
14, 164160, Note_on_c, 11, 86, 76
14, 164211, Note_on_c, 11, 86, 0
14, 164220, Note_on_c, 11, 86, 76
14, 164271, Note_on_c, 11, 86, 0
14, 164280, Note_on_c, 11, 87, 76
14, 164331, Note_on_c, 11, 87, 0
14, 164340, Note_on_c, 11, 87, 76
14, 164391, Note_on_c, 11, 87, 0
14, 164400, Note_on_c, 11, 88, 76
14, 164451, Note_on_c, 11, 88, 0
14, 164460, Note_on_c, 11, 88, 76
14, 164511, Note_on_c, 11, 88, 0
14, 164520, Note_on_c, 11, 89, 76
14, 164571, Note_on_c, 11, 89, 0
14, 164580, Note_on_c, 11, 89, 76
14, 164631, Note_on_c, 11, 89, 0
14, 164640, Note_on_c, 11, 87, 76
14, 164691, Note_on_c, 11, 87, 0
14, 164700, Note_on_c, 11, 87, 76
14, 164751, Note_on_c, 11, 87, 0
14, 164760, Note_on_c, 11, 86, 76
14, 164811, Note_on_c, 11, 86, 0
14, 164820, Note_on_c, 11, 86, 76
14, 164871, Note_on_c, 11, 86, 0
14, 164880, Note_on_c, 11, 84, 76
14, 164931, Note_on_c, 11, 84, 0
14, 164940, Note_on_c, 11, 84, 76
14, 164991, Note_on_c, 11, 84, 0
14, 165000, Note_on_c, 11, 86, 76
14, 165051, Note_on_c, 11, 86, 0
14, 165060, Note_on_c, 11, 86, 76
14, 165111, Note_on_c, 11, 86, 0
14, 165120, Note_on_c, 11, 87, 76
14, 165171, Note_on_c, 11, 87, 0
14, 165180, Note_on_c, 11, 87, 76
14, 165231, Note_on_c, 11, 87, 0
14, 165240, Note_on_c, 11, 86, 76
14, 165291, Note_on_c, 11, 86, 0
14, 165300, Note_on_c, 11, 86, 76
14, 165351, Note_on_c, 11, 86, 0
14, 165360, Note_on_c, 11, 84, 76
14, 165411, Note_on_c, 11, 84, 0
14, 165420, Note_on_c, 11, 84, 76
14, 165471, Note_on_c, 11, 84, 0
14, 165480, Note_on_c, 11, 82, 76
14, 165531, Note_on_c, 11, 82, 0
14, 165540, Note_on_c, 11, 82, 76
14, 165591, Note_on_c, 11, 82, 0
14, 165600, Note_on_c, 11, 81, 76
14, 165651, Note_on_c, 11, 81, 0
14, 165660, Note_on_c, 11, 81, 76
14, 165711, Note_on_c, 11, 81, 0
14, 165720, Note_on_c, 11, 82, 76
14, 165771, Note_on_c, 11, 82, 0
14, 165780, Note_on_c, 11, 82, 76
14, 165831, Note_on_c, 11, 82, 0
14, 165840, Note_on_c, 11, 84, 76
14, 165891, Note_on_c, 11, 84, 0
14, 165900, Note_on_c, 11, 84, 76
14, 165951, Note_on_c, 11, 84, 0
14, 165960, Note_on_c, 11, 82, 76
14, 166011, Note_on_c, 11, 82, 0
14, 166020, Note_on_c, 11, 82, 76
14, 166071, Note_on_c, 11, 82, 0
14, 166080, Note_on_c, 11, 81, 76
14, 166131, Note_on_c, 11, 81, 0
14, 166140, Note_on_c, 11, 81, 76
14, 166191, Note_on_c, 11, 81, 0
14, 166200, Note_on_c, 11, 79, 76
14, 166251, Note_on_c, 11, 79, 0
14, 166260, Note_on_c, 11, 79, 76
14, 166311, Note_on_c, 11, 79, 0
14, 166320, Note_on_c, 11, 77, 84
14, 166371, Note_on_c, 11, 77, 0
14, 166380, Note_on_c, 11, 77, 84
14, 166431, Note_on_c, 11, 77, 0
14, 166440, Note_on_c, 11, 76, 84
14, 166491, Note_on_c, 11, 76, 0
14, 166500, Note_on_c, 11, 76, 84
14, 166551, Note_on_c, 11, 76, 0
14, 166560, Note_on_c, 11, 75, 84
14, 166611, Note_on_c, 11, 75, 0
14, 166620, Note_on_c, 11, 75, 84
14, 166671, Note_on_c, 11, 75, 0
14, 166680, Note_on_c, 11, 74, 84
14, 166731, Note_on_c, 11, 74, 0
14, 166740, Note_on_c, 11, 74, 84
14, 166791, Note_on_c, 11, 74, 0
14, 166800, Note_on_c, 11, 72, 84
14, 166851, Note_on_c, 11, 72, 0
14, 166860, Note_on_c, 11, 72, 84
14, 166911, Note_on_c, 11, 72, 0
14, 166920, Note_on_c, 11, 70, 84
14, 166971, Note_on_c, 11, 70, 0
14, 166980, Note_on_c, 11, 70, 84
14, 167031, Note_on_c, 11, 70, 0
14, 167040, Note_on_c, 11, 69, 84
14, 167091, Note_on_c, 11, 69, 0
14, 167100, Note_on_c, 11, 69, 84
14, 167151, Note_on_c, 11, 69, 0
14, 167160, Note_on_c, 11, 67, 84
14, 167211, Note_on_c, 11, 67, 0
14, 167220, Note_on_c, 11, 67, 84
14, 167271, Note_on_c, 11, 67, 0
14, 167280, Note_on_c, 11, 65, 84
14, 167331, Note_on_c, 11, 65, 0
14, 167340, Note_on_c, 11, 65, 84
14, 167391, Note_on_c, 11, 65, 0
14, 167400, Note_on_c, 11, 63, 84
14, 167451, Note_on_c, 11, 63, 0
14, 167460, Note_on_c, 11, 63, 84
14, 167511, Note_on_c, 11, 63, 0
14, 167520, Note_on_c, 11, 62, 84
14, 167571, Note_on_c, 11, 62, 0
14, 167580, Note_on_c, 11, 62, 84
14, 167631, Note_on_c, 11, 62, 0
14, 167640, Note_on_c, 11, 60, 84
14, 167691, Note_on_c, 11, 60, 0
14, 167700, Note_on_c, 11, 60, 84
14, 167751, Note_on_c, 11, 60, 0
14, 167760, Note_on_c, 11, 58, 84
14, 167999, Note_on_c, 11, 58, 0
14, 170640, Control_c, 11, 11, 96
14, 170880, Note_on_c, 11, 75, 68
14, 171089, Note_on_c, 11, 75, 0
14, 171120, Note_on_c, 11, 75, 68
14, 171329, Note_on_c, 11, 75, 0
14, 171360, Control_c, 11, 11, 96
14, 171360, Note_on_c, 11, 75, 68
14, 171480, Control_c, 11, 11, 99
14, 171569, Note_on_c, 11, 75, 0
14, 171600, Note_on_c, 11, 77, 68
14, 171600, Control_c, 11, 11, 101
14, 171720, Control_c, 11, 11, 104
14, 171809, Note_on_c, 11, 77, 0
14, 171840, Note_on_c, 11, 77, 68
14, 171840, Control_c, 11, 11, 106
14, 171960, Control_c, 11, 11, 109
14, 172049, Note_on_c, 11, 77, 0
14, 172080, Note_on_c, 11, 77, 68
14, 172080, Control_c, 11, 11, 112
14, 172200, Control_c, 11, 11, 114
14, 172319, Note_on_c, 11, 77, 0
14, 172320, Note_on_c, 11, 78, 68
14, 172320, Control_c, 11, 11, 117
14, 172440, Control_c, 11, 11, 119
14, 172559, Note_on_c, 11, 78, 0
14, 172560, Control_c, 11, 11, 122
14, 172560, Note_on_c, 11, 79, 68
14, 172680, Control_c, 11, 11, 127
14, 172799, Note_on_c, 11, 79, 0
14, 172800, Note_on_c, 11, 79, 76
14, 172800, Control_c, 11, 11, 127
14, 172860, Control_c, 11, 11, 124
14, 172920, Control_c, 11, 11, 122
14, 172980, Control_c, 11, 11, 119
14, 173039, Note_on_c, 11, 79, 0
14, 173040, Note_on_c, 11, 77, 68
14, 173040, Control_c, 11, 11, 117
14, 173100, Control_c, 11, 11, 114
14, 173159, Note_on_c, 11, 77, 0
14, 173160, Control_c, 11, 11, 112
14, 173160, Note_on_c, 11, 75, 68
14, 173220, Control_c, 11, 11, 109
14, 173279, Note_on_c, 11, 75, 0
14, 173280, Note_on_c, 11, 74, 68
14, 173280, Control_c, 11, 11, 106
14, 173340, Control_c, 11, 11, 104
14, 173399, Note_on_c, 11, 74, 0
14, 173400, Note_on_c, 11, 72, 68
14, 173400, Control_c, 11, 11, 101
14, 173460, Control_c, 11, 11, 96
14, 173504, Note_on_c, 11, 72, 0
14, 173520, Note_on_c, 11, 70, 68
14, 173759, Note_on_c, 11, 70, 0
14, 177360, Note_on_c, 11, 65, 68
14, 177569, Note_on_c, 11, 65, 0
14, 177600, Note_on_c, 11, 65, 68
14, 177809, Note_on_c, 11, 65, 0
14, 177840, Control_c, 11, 11, 96
14, 177840, Note_on_c, 11, 65, 68
14, 177880, Control_c, 11, 11, 99
14, 177920, Control_c, 11, 11, 101
14, 177960, Control_c, 11, 11, 104
14, 178000, Control_c, 11, 11, 106
14, 178040, Control_c, 11, 11, 109
14, 178080, Control_c, 11, 11, 112
14, 178120, Control_c, 11, 11, 114
14, 178160, Control_c, 11, 11, 117
14, 178200, Control_c, 11, 11, 119
14, 178240, Control_c, 11, 11, 122
14, 178280, Control_c, 11, 11, 124
14, 178319, Note_on_c, 11, 65, 0
14, 178320, Control_c, 11, 11, 127
14, 178320, Note_on_c, 11, 64, 68
14, 178360, Control_c, 11, 11, 122
14, 178400, Control_c, 11, 11, 117
14, 178440, Control_c, 11, 11, 112
14, 178480, Control_c, 11, 11, 106
14, 178520, Control_c, 11, 11, 101
14, 178559, Note_on_c, 11, 64, 0
14, 179280, Control_c, 11, 11, 127
14, 179520, Note_on_c, 11, 69, 44
14, 179699, Note_on_c, 11, 69, 0
14, 179760, Note_on_c, 11, 69, 44
14, 179939, Note_on_c, 11, 69, 0
14, 180240, Note_on_c, 11, 70, 44
14, 180419, Note_on_c, 11, 70, 0
14, 180480, Note_on_c, 11, 71, 44
14, 180659, Note_on_c, 11, 71, 0
14, 180960, Note_on_c, 11, 72, 44
14, 181139, Note_on_c, 11, 72, 0
14, 181200, Note_on_c, 11, 74, 44
14, 181379, Note_on_c, 11, 74, 0
14, 181440, Note_on_c, 11, 75, 44
14, 181619, Note_on_c, 11, 75, 0
14, 181680, Note_on_c, 11, 77, 44
14, 181859, Note_on_c, 11, 77, 0
14, 181920, Note_on_c, 11, 78, 44
14, 182099, Note_on_c, 11, 78, 0
14, 182160, Note_on_c, 11, 79, 44
14, 182249, Note_on_c, 11, 79, 0
14, 182280, Note_on_c, 11, 77, 44
14, 182369, Note_on_c, 11, 77, 0
14, 182400, Note_on_c, 11, 75, 44
14, 182489, Note_on_c, 11, 75, 0
14, 182520, Note_on_c, 11, 74, 44
14, 182609, Note_on_c, 11, 74, 0
14, 182640, Note_on_c, 11, 72, 44
14, 182729, Note_on_c, 11, 72, 0
14, 182760, Note_on_c, 11, 74, 44
14, 182849, Note_on_c, 11, 74, 0
14, 182880, Note_on_c, 11, 75, 44
14, 182969, Note_on_c, 11, 75, 0
14, 183000, Note_on_c, 11, 74, 44
14, 183089, Note_on_c, 11, 74, 0
14, 183120, Note_on_c, 11, 72, 44
14, 183209, Note_on_c, 11, 72, 0
14, 183240, Note_on_c, 11, 74, 44
14, 183329, Note_on_c, 11, 74, 0
14, 183360, Note_on_c, 11, 75, 44
14, 183449, Note_on_c, 11, 75, 0
14, 183480, Note_on_c, 11, 77, 44
14, 183569, Note_on_c, 11, 77, 0
14, 183600, Note_on_c, 11, 79, 44
14, 183689, Note_on_c, 11, 79, 0
14, 183720, Note_on_c, 11, 77, 45
14, 183809, Note_on_c, 11, 77, 0
14, 183840, Note_on_c, 11, 75, 46
14, 183929, Note_on_c, 11, 75, 0
14, 183960, Note_on_c, 11, 74, 48
14, 184049, Note_on_c, 11, 74, 0
14, 184080, Note_on_c, 11, 72, 49
14, 184169, Note_on_c, 11, 72, 0
14, 184200, Note_on_c, 11, 74, 50
14, 184289, Note_on_c, 11, 74, 0
14, 184320, Note_on_c, 11, 75, 52
14, 184409, Note_on_c, 11, 75, 0
14, 184440, Note_on_c, 11, 74, 53
14, 184529, Note_on_c, 11, 74, 0
14, 184560, Note_on_c, 11, 72, 54
14, 184649, Note_on_c, 11, 72, 0
14, 184680, Note_on_c, 11, 74, 56
14, 184769, Note_on_c, 11, 74, 0
14, 184800, Note_on_c, 11, 75, 57
14, 184889, Note_on_c, 11, 75, 0
14, 184920, Note_on_c, 11, 77, 58
14, 185009, Note_on_c, 11, 77, 0
14, 185040, Note_on_c, 11, 79, 60
14, 185129, Note_on_c, 11, 79, 0
14, 185160, Note_on_c, 11, 77, 61
14, 185249, Note_on_c, 11, 77, 0
14, 185280, Note_on_c, 11, 75, 62
14, 185369, Note_on_c, 11, 75, 0
14, 185400, Note_on_c, 11, 74, 64
14, 185489, Note_on_c, 11, 74, 0
14, 185520, Note_on_c, 11, 75, 65
14, 185609, Note_on_c, 11, 75, 0
14, 185640, Note_on_c, 11, 77, 66
14, 185729, Note_on_c, 11, 77, 0
14, 185760, Note_on_c, 11, 79, 68
14, 185849, Note_on_c, 11, 79, 0
14, 185880, Note_on_c, 11, 81, 69
14, 185969, Note_on_c, 11, 81, 0
14, 186000, Note_on_c, 11, 82, 70
14, 186089, Note_on_c, 11, 82, 0
14, 186120, Note_on_c, 11, 84, 72
14, 186209, Note_on_c, 11, 84, 0
14, 186240, Note_on_c, 11, 86, 73
14, 186329, Note_on_c, 11, 86, 0
14, 186360, Note_on_c, 11, 87, 74
14, 186449, Note_on_c, 11, 87, 0
14, 186480, Note_on_c, 11, 89, 76
14, 186944, Note_on_c, 11, 89, 0
14, 186960, Note_on_c, 11, 86, 76
14, 187139, Note_on_c, 11, 86, 0
14, 187200, Note_on_c, 11, 82, 76
14, 187379, Note_on_c, 11, 82, 0
14, 187440, Note_on_c, 11, 86, 84
14, 187619, Note_on_c, 11, 86, 0
14, 187680, Note_on_c, 11, 77, 76
14, 187859, Note_on_c, 11, 77, 0
14, 187920, Note_on_c, 11, 84, 76
14, 188099, Note_on_c, 11, 84, 0
14, 188160, Note_on_c, 11, 87, 84
14, 188339, Note_on_c, 11, 87, 0
14, 188400, Note_on_c, 11, 77, 76
14, 188579, Note_on_c, 11, 77, 0
14, 188640, Note_on_c, 11, 81, 76
14, 188819, Note_on_c, 11, 81, 0
14, 188880, Note_on_c, 11, 84, 84
14, 189059, Note_on_c, 11, 84, 0
14, 189120, Note_on_c, 11, 77, 76
14, 189299, Note_on_c, 11, 77, 0
14, 189360, Note_on_c, 11, 77, 84
14, 189360, Note_on_c, 11, 89, 84
14, 189411, Note_on_c, 11, 77, 0
14, 189411, Note_on_c, 11, 89, 0
14, 189420, Note_on_c, 11, 77, 84
14, 189420, Note_on_c, 11, 89, 84
14, 189471, Note_on_c, 11, 77, 0
14, 189471, Note_on_c, 11, 89, 0
14, 189480, Note_on_c, 11, 77, 84
14, 189480, Note_on_c, 11, 89, 84
14, 189531, Note_on_c, 11, 77, 0
14, 189531, Note_on_c, 11, 89, 0
14, 189540, Note_on_c, 11, 89, 84
14, 189540, Note_on_c, 11, 77, 84
14, 189591, Note_on_c, 11, 89, 0
14, 189591, Note_on_c, 11, 77, 0
14, 189600, Note_on_c, 11, 77, 84
14, 189600, Note_on_c, 11, 89, 84
14, 189651, Note_on_c, 11, 77, 0
14, 189651, Note_on_c, 11, 89, 0
14, 189660, Note_on_c, 11, 77, 84
14, 189660, Note_on_c, 11, 89, 84
14, 189711, Note_on_c, 11, 77, 0
14, 189711, Note_on_c, 11, 89, 0
14, 189720, Note_on_c, 11, 89, 84
14, 189720, Note_on_c, 11, 77, 84
14, 189771, Note_on_c, 11, 89, 0
14, 189771, Note_on_c, 11, 77, 0
14, 189780, Note_on_c, 11, 77, 84
14, 189780, Note_on_c, 11, 89, 84
14, 189831, Note_on_c, 11, 77, 0
14, 189831, Note_on_c, 11, 89, 0
14, 189840, Note_on_c, 11, 77, 84
14, 189840, Note_on_c, 11, 89, 84
14, 189891, Note_on_c, 11, 77, 0
14, 189891, Note_on_c, 11, 89, 0
14, 189900, Note_on_c, 11, 89, 84
14, 189900, Note_on_c, 11, 77, 84
14, 189951, Note_on_c, 11, 89, 0
14, 189951, Note_on_c, 11, 77, 0
14, 189960, Note_on_c, 11, 77, 84
14, 189960, Note_on_c, 11, 89, 84
14, 190011, Note_on_c, 11, 77, 0
14, 190011, Note_on_c, 11, 89, 0
14, 190020, Note_on_c, 11, 89, 84
14, 190020, Note_on_c, 11, 77, 84
14, 190071, Note_on_c, 11, 89, 0
14, 190071, Note_on_c, 11, 77, 0
14, 190080, Note_on_c, 11, 89, 84
14, 190080, Note_on_c, 11, 77, 84
14, 190131, Note_on_c, 11, 89, 0
14, 190131, Note_on_c, 11, 77, 0
14, 190140, Note_on_c, 11, 77, 84
14, 190140, Note_on_c, 11, 89, 84
14, 190191, Note_on_c, 11, 77, 0
14, 190191, Note_on_c, 11, 89, 0
14, 190200, Note_on_c, 11, 89, 84
14, 190200, Note_on_c, 11, 77, 84
14, 190251, Note_on_c, 11, 89, 0
14, 190251, Note_on_c, 11, 77, 0
14, 190260, Note_on_c, 11, 77, 84
14, 190260, Note_on_c, 11, 89, 84
14, 190311, Note_on_c, 11, 77, 0
14, 190311, Note_on_c, 11, 89, 0
14, 190320, Note_on_c, 11, 77, 84
14, 190320, Note_on_c, 11, 89, 84
14, 190371, Note_on_c, 11, 77, 0
14, 190371, Note_on_c, 11, 89, 0
14, 190380, Note_on_c, 11, 77, 84
14, 190380, Note_on_c, 11, 89, 84
14, 190431, Note_on_c, 11, 77, 0
14, 190431, Note_on_c, 11, 89, 0
14, 190440, Note_on_c, 11, 89, 84
14, 190440, Note_on_c, 11, 77, 84
14, 190491, Note_on_c, 11, 89, 0
14, 190491, Note_on_c, 11, 77, 0
14, 190500, Note_on_c, 11, 89, 84
14, 190500, Note_on_c, 11, 77, 84
14, 190551, Note_on_c, 11, 89, 0
14, 190551, Note_on_c, 11, 77, 0
14, 190560, Note_on_c, 11, 77, 84
14, 190560, Note_on_c, 11, 89, 84
14, 190611, Note_on_c, 11, 77, 0
14, 190611, Note_on_c, 11, 89, 0
14, 190620, Note_on_c, 11, 89, 84
14, 190620, Note_on_c, 11, 77, 84
14, 190671, Note_on_c, 11, 89, 0
14, 190671, Note_on_c, 11, 77, 0
14, 190680, Note_on_c, 11, 89, 84
14, 190680, Note_on_c, 11, 77, 84
14, 190731, Note_on_c, 11, 89, 0
14, 190731, Note_on_c, 11, 77, 0
14, 190740, Note_on_c, 11, 89, 84
14, 190740, Note_on_c, 11, 77, 84
14, 190791, Note_on_c, 11, 89, 0
14, 190791, Note_on_c, 11, 77, 0
14, 190800, Note_on_c, 11, 89, 84
14, 190800, Note_on_c, 11, 77, 84
14, 190851, Note_on_c, 11, 89, 0
14, 190851, Note_on_c, 11, 77, 0
14, 190860, Note_on_c, 11, 77, 84
14, 190860, Note_on_c, 11, 89, 84
14, 190911, Note_on_c, 11, 77, 0
14, 190911, Note_on_c, 11, 89, 0
14, 190920, Note_on_c, 11, 77, 84
14, 190920, Note_on_c, 11, 89, 84
14, 190971, Note_on_c, 11, 77, 0
14, 190971, Note_on_c, 11, 89, 0
14, 190980, Note_on_c, 11, 77, 84
14, 190980, Note_on_c, 11, 89, 84
14, 191031, Note_on_c, 11, 77, 0
14, 191031, Note_on_c, 11, 89, 0
14, 191040, Note_on_c, 11, 89, 84
14, 191040, Note_on_c, 11, 77, 84
14, 191091, Note_on_c, 11, 89, 0
14, 191091, Note_on_c, 11, 77, 0
14, 191100, Note_on_c, 11, 89, 84
14, 191100, Note_on_c, 11, 77, 84
14, 191151, Note_on_c, 11, 89, 0
14, 191151, Note_on_c, 11, 77, 0
14, 191160, Note_on_c, 11, 77, 84
14, 191160, Note_on_c, 11, 89, 84
14, 191211, Note_on_c, 11, 77, 0
14, 191211, Note_on_c, 11, 89, 0
14, 191220, Note_on_c, 11, 77, 84
14, 191220, Note_on_c, 11, 89, 84
14, 191271, Note_on_c, 11, 77, 0
14, 191271, Note_on_c, 11, 89, 0
14, 191280, Note_on_c, 11, 89, 84
14, 191280, Note_on_c, 11, 77, 84
14, 191331, Note_on_c, 11, 89, 0
14, 191331, Note_on_c, 11, 77, 0
14, 191340, Note_on_c, 11, 89, 84
14, 191340, Note_on_c, 11, 77, 84
14, 191391, Note_on_c, 11, 89, 0
14, 191391, Note_on_c, 11, 77, 0
14, 191400, Note_on_c, 11, 77, 84
14, 191400, Note_on_c, 11, 89, 84
14, 191451, Note_on_c, 11, 77, 0
14, 191451, Note_on_c, 11, 89, 0
14, 191460, Note_on_c, 11, 89, 84
14, 191460, Note_on_c, 11, 77, 84
14, 191511, Note_on_c, 11, 89, 0
14, 191511, Note_on_c, 11, 77, 0
14, 191520, Note_on_c, 11, 77, 84
14, 191520, Note_on_c, 11, 89, 84
14, 191571, Note_on_c, 11, 77, 0
14, 191571, Note_on_c, 11, 89, 0
14, 191580, Note_on_c, 11, 77, 84
14, 191580, Note_on_c, 11, 89, 84
14, 191631, Note_on_c, 11, 77, 0
14, 191631, Note_on_c, 11, 89, 0
14, 191640, Note_on_c, 11, 77, 84
14, 191640, Note_on_c, 11, 89, 84
14, 191691, Note_on_c, 11, 77, 0
14, 191691, Note_on_c, 11, 89, 0
14, 191700, Note_on_c, 11, 77, 84
14, 191700, Note_on_c, 11, 89, 84
14, 191751, Note_on_c, 11, 77, 0
14, 191751, Note_on_c, 11, 89, 0
14, 191760, Note_on_c, 11, 89, 84
14, 191760, Note_on_c, 11, 77, 84
14, 191811, Note_on_c, 11, 89, 0
14, 191811, Note_on_c, 11, 77, 0
14, 191820, Note_on_c, 11, 89, 84
14, 191820, Note_on_c, 11, 77, 84
14, 191871, Note_on_c, 11, 89, 0
14, 191871, Note_on_c, 11, 77, 0
14, 191880, Note_on_c, 11, 77, 84
14, 191880, Note_on_c, 11, 89, 84
14, 191931, Note_on_c, 11, 77, 0
14, 191931, Note_on_c, 11, 89, 0
14, 191940, Note_on_c, 11, 89, 84
14, 191940, Note_on_c, 11, 77, 84
14, 191991, Note_on_c, 11, 89, 0
14, 191991, Note_on_c, 11, 77, 0
14, 192000, Note_on_c, 11, 77, 84
14, 192000, Note_on_c, 11, 89, 84
14, 192051, Note_on_c, 11, 77, 0
14, 192051, Note_on_c, 11, 89, 0
14, 192060, Note_on_c, 11, 89, 84
14, 192060, Note_on_c, 11, 77, 84
14, 192111, Note_on_c, 11, 89, 0
14, 192111, Note_on_c, 11, 77, 0
14, 192120, Note_on_c, 11, 77, 84
14, 192120, Note_on_c, 11, 89, 84
14, 192171, Note_on_c, 11, 77, 0
14, 192171, Note_on_c, 11, 89, 0
14, 192180, Note_on_c, 11, 89, 84
14, 192180, Note_on_c, 11, 77, 84
14, 192231, Note_on_c, 11, 89, 0
14, 192231, Note_on_c, 11, 77, 0
14, 192240, Note_on_c, 11, 89, 84
14, 192291, Note_on_c, 11, 89, 0
14, 192300, Note_on_c, 11, 89, 84
14, 192351, Note_on_c, 11, 89, 0
14, 192360, Note_on_c, 11, 85, 84
14, 192411, Note_on_c, 11, 85, 0
14, 192420, Note_on_c, 11, 85, 84
14, 192471, Note_on_c, 11, 85, 0
14, 192480, Note_on_c, 11, 86, 84
14, 192531, Note_on_c, 11, 86, 0
14, 192540, Note_on_c, 11, 86, 84
14, 192591, Note_on_c, 11, 86, 0
14, 192600, Note_on_c, 11, 81, 84
14, 192651, Note_on_c, 11, 81, 0
14, 192660, Note_on_c, 11, 81, 84
14, 192711, Note_on_c, 11, 81, 0
14, 192720, Note_on_c, 11, 82, 84
14, 192771, Note_on_c, 11, 82, 0
14, 192780, Note_on_c, 11, 82, 84
14, 192831, Note_on_c, 11, 82, 0
14, 192840, Note_on_c, 11, 76, 84
14, 192891, Note_on_c, 11, 76, 0
14, 192900, Note_on_c, 11, 76, 84
14, 192951, Note_on_c, 11, 76, 0
14, 192960, Note_on_c, 11, 77, 84
14, 193011, Note_on_c, 11, 77, 0
14, 193020, Note_on_c, 11, 77, 84
14, 193071, Note_on_c, 11, 77, 0
14, 193080, Note_on_c, 11, 73, 84
14, 193131, Note_on_c, 11, 73, 0
14, 193140, Note_on_c, 11, 73, 84
14, 193191, Note_on_c, 11, 73, 0
14, 193200, Note_on_c, 11, 74, 84
14, 193251, Note_on_c, 11, 74, 0
14, 193260, Note_on_c, 11, 74, 84
14, 193311, Note_on_c, 11, 74, 0
14, 193320, Note_on_c, 11, 69, 84
14, 193371, Note_on_c, 11, 69, 0
14, 193380, Note_on_c, 11, 69, 84
14, 193431, Note_on_c, 11, 69, 0
14, 193440, Note_on_c, 11, 70, 84
14, 193491, Note_on_c, 11, 70, 0
14, 193500, Note_on_c, 11, 70, 84
14, 193551, Note_on_c, 11, 70, 0
14, 193560, Note_on_c, 11, 68, 84
14, 193611, Note_on_c, 11, 68, 0
14, 193620, Note_on_c, 11, 68, 84
14, 193671, Note_on_c, 11, 68, 0
14, 193680, Note_on_c, 11, 67, 84
14, 193731, Note_on_c, 11, 67, 0
14, 193740, Note_on_c, 11, 67, 84
14, 193791, Note_on_c, 11, 67, 0
14, 193800, Note_on_c, 11, 71, 84
14, 193851, Note_on_c, 11, 71, 0
14, 193860, Note_on_c, 11, 71, 84
14, 193911, Note_on_c, 11, 71, 0
14, 193920, Note_on_c, 11, 72, 92
14, 193971, Note_on_c, 11, 72, 0
14, 193980, Note_on_c, 11, 72, 84
14, 194031, Note_on_c, 11, 72, 0
14, 194040, Note_on_c, 11, 70, 84
14, 194091, Note_on_c, 11, 70, 0
14, 194100, Note_on_c, 11, 70, 84
14, 194151, Note_on_c, 11, 70, 0
14, 194160, Note_on_c, 11, 69, 84
14, 194211, Note_on_c, 11, 69, 0
14, 194220, Note_on_c, 11, 69, 84
14, 194271, Note_on_c, 11, 69, 0
14, 194280, Note_on_c, 11, 73, 84
14, 194331, Note_on_c, 11, 73, 0
14, 194340, Note_on_c, 11, 73, 84
14, 194391, Note_on_c, 11, 73, 0
14, 194400, Note_on_c, 11, 74, 92
14, 194451, Note_on_c, 11, 74, 0
14, 194460, Note_on_c, 11, 74, 84
14, 194511, Note_on_c, 11, 74, 0
14, 194520, Note_on_c, 11, 72, 84
14, 194571, Note_on_c, 11, 72, 0
14, 194580, Note_on_c, 11, 72, 84
14, 194631, Note_on_c, 11, 72, 0
14, 194640, Note_on_c, 11, 70, 84
14, 194691, Note_on_c, 11, 70, 0
14, 194700, Note_on_c, 11, 70, 84
14, 194751, Note_on_c, 11, 70, 0
14, 194760, Note_on_c, 11, 74, 84
14, 194811, Note_on_c, 11, 74, 0
14, 194820, Note_on_c, 11, 74, 84
14, 194871, Note_on_c, 11, 74, 0
14, 194880, Note_on_c, 11, 75, 92
14, 194931, Note_on_c, 11, 75, 0
14, 194940, Note_on_c, 11, 75, 84
14, 194991, Note_on_c, 11, 75, 0
14, 195000, Note_on_c, 11, 74, 84
14, 195051, Note_on_c, 11, 74, 0
14, 195060, Note_on_c, 11, 74, 84
14, 195111, Note_on_c, 11, 74, 0
14, 195120, Note_on_c, 11, 72, 84
14, 195171, Note_on_c, 11, 72, 0
14, 195180, Note_on_c, 11, 72, 84
14, 195231, Note_on_c, 11, 72, 0
14, 195240, Note_on_c, 11, 76, 84
14, 195291, Note_on_c, 11, 76, 0
14, 195300, Note_on_c, 11, 76, 84
14, 195351, Note_on_c, 11, 76, 0
14, 195360, Note_on_c, 11, 77, 92
14, 195411, Note_on_c, 11, 77, 0
14, 195420, Note_on_c, 11, 77, 84
14, 195471, Note_on_c, 11, 77, 0
14, 195480, Note_on_c, 11, 75, 84
14, 195531, Note_on_c, 11, 75, 0
14, 195540, Note_on_c, 11, 75, 84
14, 195591, Note_on_c, 11, 75, 0
14, 195600, Note_on_c, 11, 74, 84
14, 195651, Note_on_c, 11, 74, 0
14, 195660, Note_on_c, 11, 74, 84
14, 195711, Note_on_c, 11, 74, 0
14, 195720, Note_on_c, 11, 78, 84
14, 195771, Note_on_c, 11, 78, 0
14, 195780, Note_on_c, 11, 78, 84
14, 195831, Note_on_c, 11, 78, 0
14, 195840, Note_on_c, 11, 79, 84
14, 195891, Note_on_c, 11, 79, 0
14, 195900, Note_on_c, 11, 79, 84
14, 195951, Note_on_c, 11, 79, 0
14, 195960, Note_on_c, 11, 81, 84
14, 196011, Note_on_c, 11, 81, 0
14, 196020, Note_on_c, 11, 81, 84
14, 196071, Note_on_c, 11, 81, 0
14, 196080, Note_on_c, 11, 82, 84
14, 196131, Note_on_c, 11, 82, 0
14, 196140, Note_on_c, 11, 82, 84
14, 196191, Note_on_c, 11, 82, 0
14, 196200, Note_on_c, 11, 83, 84
14, 196251, Note_on_c, 11, 83, 0
14, 196260, Note_on_c, 11, 83, 84
14, 196311, Note_on_c, 11, 83, 0
14, 196320, Note_on_c, 11, 84, 84
14, 196371, Note_on_c, 11, 84, 0
14, 196380, Note_on_c, 11, 84, 84
14, 196431, Note_on_c, 11, 84, 0
14, 196440, Note_on_c, 11, 85, 84
14, 196491, Note_on_c, 11, 85, 0
14, 196500, Note_on_c, 11, 85, 84
14, 196551, Note_on_c, 11, 85, 0
14, 196560, Note_on_c, 11, 86, 84
14, 196739, Note_on_c, 11, 86, 0
14, 196800, Note_on_c, 11, 74, 84
14, 196800, Note_on_c, 11, 62, 84
14, 196800, Note_on_c, 11, 84, 84
14, 196979, Note_on_c, 11, 74, 0
14, 196979, Note_on_c, 11, 62, 0
14, 196979, Note_on_c, 11, 84, 0
14, 197040, Note_on_c, 11, 62, 84
14, 197040, Note_on_c, 11, 82, 84
14, 197040, Note_on_c, 11, 74, 84
14, 197219, Note_on_c, 11, 62, 0
14, 197219, Note_on_c, 11, 82, 0
14, 197219, Note_on_c, 11, 74, 0
14, 197520, Note_on_c, 11, 80, 84
14, 197520, Note_on_c, 11, 71, 84
14, 197520, Note_on_c, 11, 62, 84
14, 197699, Note_on_c, 11, 80, 0
14, 197699, Note_on_c, 11, 71, 0
14, 197699, Note_on_c, 11, 62, 0
14, 197760, Note_on_c, 11, 63, 84
14, 197760, Note_on_c, 11, 72, 84
14, 197760, Note_on_c, 11, 79, 84
14, 197939, Note_on_c, 11, 63, 0
14, 197939, Note_on_c, 11, 72, 0
14, 197939, Note_on_c, 11, 79, 0
14, 198240, Note_on_c, 11, 82, 84
14, 198240, Note_on_c, 11, 64, 84
14, 198240, Note_on_c, 11, 72, 84
14, 198419, Note_on_c, 11, 82, 0
14, 198419, Note_on_c, 11, 64, 0
14, 198419, Note_on_c, 11, 72, 0
14, 198480, Note_on_c, 11, 65, 84
14, 198480, Note_on_c, 11, 72, 84
14, 198480, Note_on_c, 11, 81, 84
14, 198659, Note_on_c, 11, 65, 0
14, 198659, Note_on_c, 11, 72, 0
14, 198659, Note_on_c, 11, 81, 0
14, 198960, Note_on_c, 11, 74, 84
14, 198960, Note_on_c, 11, 84, 84
14, 198960, Note_on_c, 11, 62, 84
14, 199139, Note_on_c, 11, 74, 0
14, 199139, Note_on_c, 11, 84, 0
14, 199139, Note_on_c, 11, 62, 0
14, 199200, Note_on_c, 11, 74, 84
14, 199200, Note_on_c, 11, 82, 84
14, 199200, Note_on_c, 11, 62, 84
14, 199379, Note_on_c, 11, 74, 0
14, 199379, Note_on_c, 11, 82, 0
14, 199379, Note_on_c, 11, 62, 0
14, 199680, Note_on_c, 11, 62, 84
14, 199680, Note_on_c, 11, 80, 84
14, 199680, Note_on_c, 11, 71, 84
14, 199859, Note_on_c, 11, 62, 0
14, 199859, Note_on_c, 11, 80, 0
14, 199859, Note_on_c, 11, 71, 0
14, 199920, Note_on_c, 11, 72, 84
14, 199920, Note_on_c, 11, 63, 84
14, 199920, Note_on_c, 11, 79, 84
14, 200099, Note_on_c, 11, 72, 0
14, 200099, Note_on_c, 11, 63, 0
14, 200099, Note_on_c, 11, 79, 0
14, 200400, Note_on_c, 11, 64, 92
14, 200400, Note_on_c, 11, 82, 92
14, 200400, Note_on_c, 11, 72, 92
14, 200579, Note_on_c, 11, 64, 0
14, 200579, Note_on_c, 11, 82, 0
14, 200579, Note_on_c, 11, 72, 0
14, 200880, Note_on_c, 11, 64, 92
14, 200880, Note_on_c, 11, 82, 92
14, 200880, Note_on_c, 11, 72, 92
14, 201059, Note_on_c, 11, 64, 0
14, 201059, Note_on_c, 11, 82, 0
14, 201059, Note_on_c, 11, 72, 0
14, 201360, Note_on_c, 11, 82, 92
14, 201360, Note_on_c, 11, 72, 92
14, 201360, Note_on_c, 11, 64, 92
14, 201539, Note_on_c, 11, 82, 0
14, 201539, Note_on_c, 11, 72, 0
14, 201539, Note_on_c, 11, 64, 0
14, 201840, Note_on_c, 11, 72, 92
14, 201840, Note_on_c, 11, 64, 92
14, 201840, Note_on_c, 11, 82, 92
14, 202019, Note_on_c, 11, 72, 0
14, 202019, Note_on_c, 11, 64, 0
14, 202019, Note_on_c, 11, 82, 0
14, 202320, Note_on_c, 11, 64, 92
14, 202320, Note_on_c, 11, 82, 92
14, 202320, Note_on_c, 11, 72, 92
14, 202499, Note_on_c, 11, 64, 0
14, 202499, Note_on_c, 11, 82, 0
14, 202499, Note_on_c, 11, 72, 0
14, 202800, Note_on_c, 11, 72, 92
14, 202800, Note_on_c, 11, 64, 92
14, 202800, Note_on_c, 11, 82, 92
14, 202979, Note_on_c, 11, 72, 0
14, 202979, Note_on_c, 11, 64, 0
14, 202979, Note_on_c, 11, 82, 0
14, 203760, Note_on_c, 11, 70, 76
14, 203880, Control_c, 11, 11, 80
14, 203999, Note_on_c, 11, 70, 0
14, 204000, Note_on_c, 11, 73, 76
14, 204239, Note_on_c, 11, 73, 0
14, 204240, Note_on_c, 11, 76, 76
14, 204464, Note_on_c, 11, 76, 0
14, 204480, Note_on_c, 11, 77, 76
14, 205169, Note_on_c, 11, 77, 0
14, 205185, Control_c, 11, 11, 127
14, 205200, Note_on_c, 11, 70, 76
14, 205320, Control_c, 11, 11, 80
14, 205439, Note_on_c, 11, 70, 0
14, 205440, Note_on_c, 11, 73, 76
14, 205679, Note_on_c, 11, 73, 0
14, 205680, Note_on_c, 11, 76, 76
14, 206159, Note_on_c, 11, 76, 0
14, 206160, Note_on_c, 11, 75, 76
14, 206399, Note_on_c, 11, 75, 0
14, 206400, Note_on_c, 11, 73, 76
14, 206879, Note_on_c, 11, 73, 0
14, 206880, Note_on_c, 11, 71, 76
14, 207119, Note_on_c, 11, 71, 0
14, 207120, Note_on_c, 11, 72, 76
14, 207584, Note_on_c, 11, 72, 0
14, 207600, Note_on_c, 11, 65, 76
14, 207839, Note_on_c, 11, 65, 0
14, 207840, Note_on_c, 11, 75, 76
14, 208319, Note_on_c, 11, 75, 0
14, 208320, Note_on_c, 11, 73, 76
14, 208559, Note_on_c, 11, 73, 0
14, 208560, Note_on_c, 11, 74, 76
14, 208889, Note_on_c, 11, 74, 0
14, 208905, Control_c, 11, 11, 64
14, 208920, Note_on_c, 11, 66, 84
14, 209039, Note_on_c, 11, 66, 0
14, 209040, Control_c, 11, 11, 64
14, 209040, Note_on_c, 11, 67, 84
14, 209120, Control_c, 11, 11, 67
14, 209159, Note_on_c, 11, 67, 0
14, 209160, Note_on_c, 11, 71, 84
14, 209200, Control_c, 11, 11, 69
14, 209279, Note_on_c, 11, 71, 0
14, 209280, Control_c, 11, 11, 72
14, 209280, Note_on_c, 11, 72, 84
14, 209360, Control_c, 11, 11, 75
14, 209399, Note_on_c, 11, 72, 0
14, 209400, Note_on_c, 11, 74, 84
14, 209440, Control_c, 11, 11, 77
14, 209519, Note_on_c, 11, 74, 0
14, 209520, Note_on_c, 11, 75, 84
14, 209520, Control_c, 11, 11, 80
14, 209600, Control_c, 11, 11, 82
14, 209639, Note_on_c, 11, 75, 0
14, 209640, Note_on_c, 11, 78, 84
14, 209680, Control_c, 11, 11, 85
14, 209759, Note_on_c, 11, 78, 0
14, 209760, Control_c, 11, 11, 88
14, 209760, Note_on_c, 11, 79, 84
14, 209840, Control_c, 11, 11, 90
14, 209879, Note_on_c, 11, 79, 0
14, 209880, Note_on_c, 11, 75, 84
14, 209920, Control_c, 11, 11, 93
14, 209999, Note_on_c, 11, 75, 0
14, 210000, Control_c, 11, 11, 96
14, 210000, Note_on_c, 11, 74, 84
14, 210080, Control_c, 11, 11, 98
14, 210119, Note_on_c, 11, 74, 0
14, 210120, Note_on_c, 11, 72, 84
14, 210160, Control_c, 11, 11, 101
14, 210224, Note_on_c, 11, 72, 0
14, 210240, Note_on_c, 11, 70, 84
14, 210240, Control_c, 11, 11, 103
14, 210291, Note_on_c, 11, 70, 0
14, 210300, Note_on_c, 11, 70, 84
14, 210320, Control_c, 11, 11, 106
14, 210351, Note_on_c, 11, 70, 0
14, 210360, Note_on_c, 11, 74, 84
14, 210400, Control_c, 11, 11, 109
14, 210411, Note_on_c, 11, 74, 0
14, 210420, Note_on_c, 11, 74, 84
14, 210471, Note_on_c, 11, 74, 0
14, 210480, Note_on_c, 11, 77, 84
14, 210480, Control_c, 11, 11, 111
14, 210531, Note_on_c, 11, 77, 0
14, 210540, Note_on_c, 11, 77, 84
14, 210560, Control_c, 11, 11, 114
14, 210591, Note_on_c, 11, 77, 0
14, 210600, Note_on_c, 11, 82, 84
14, 210640, Control_c, 11, 11, 117
14, 210651, Note_on_c, 11, 82, 0
14, 210660, Note_on_c, 11, 82, 84
14, 210711, Note_on_c, 11, 82, 0
14, 210720, Control_c, 11, 11, 119
14, 210720, Note_on_c, 11, 86, 84
14, 210771, Note_on_c, 11, 86, 0
14, 210780, Note_on_c, 11, 86, 84
14, 210800, Control_c, 11, 11, 122
14, 210831, Note_on_c, 11, 86, 0
14, 210840, Note_on_c, 11, 89, 84
14, 210880, Control_c, 11, 11, 127
14, 210891, Note_on_c, 11, 89, 0
14, 210900, Note_on_c, 11, 89, 84
14, 210951, Note_on_c, 11, 89, 0
14, 210960, Note_on_c, 11, 89, 84
14, 211011, Note_on_c, 11, 89, 0
14, 211020, Note_on_c, 11, 89, 84
14, 211071, Note_on_c, 11, 89, 0
14, 211080, Note_on_c, 11, 89, 84
14, 211131, Note_on_c, 11, 89, 0
14, 211140, Note_on_c, 11, 89, 84
14, 211191, Note_on_c, 11, 89, 0
14, 211200, Note_on_c, 11, 89, 84
14, 211251, Note_on_c, 11, 89, 0
14, 211260, Note_on_c, 11, 89, 84
14, 211311, Note_on_c, 11, 89, 0
14, 211320, Note_on_c, 11, 89, 84
14, 211371, Note_on_c, 11, 89, 0
14, 211380, Note_on_c, 11, 89, 84
14, 211431, Note_on_c, 11, 89, 0
14, 211440, Note_on_c, 11, 89, 84
14, 211491, Note_on_c, 11, 89, 0
14, 211500, Note_on_c, 11, 89, 84
14, 211551, Note_on_c, 11, 89, 0
14, 211560, Note_on_c, 11, 89, 84
14, 211611, Note_on_c, 11, 89, 0
14, 211620, Note_on_c, 11, 89, 84
14, 211671, Note_on_c, 11, 89, 0
14, 211680, Note_on_c, 11, 82, 76
14, 211680, Note_on_c, 11, 70, 76
14, 211859, Note_on_c, 11, 82, 0
14, 211859, Note_on_c, 11, 70, 0
14, 212400, Note_on_c, 11, 70, 76
14, 212400, Note_on_c, 11, 82, 76
14, 212579, Note_on_c, 11, 70, 0
14, 212579, Note_on_c, 11, 82, 0
14, 213120, Note_on_c, 11, 70, 76
14, 213120, Note_on_c, 11, 82, 76
14, 213299, Note_on_c, 11, 70, 0
14, 213299, Note_on_c, 11, 82, 0
14, 213840, Note_on_c, 11, 70, 76
14, 213840, Note_on_c, 11, 82, 76
14, 214019, Note_on_c, 11, 70, 0
14, 214019, Note_on_c, 11, 82, 0
14, 214080, Note_on_c, 11, 82, 76
14, 214080, Note_on_c, 11, 70, 76
14, 214259, Note_on_c, 11, 82, 0
14, 214259, Note_on_c, 11, 70, 0
14, 214320, Note_on_c, 11, 82, 76
14, 214320, Note_on_c, 11, 70, 76
14, 214499, Note_on_c, 11, 82, 0
14, 214499, Note_on_c, 11, 70, 0
14, 214560, Note_on_c, 11, 82, 76
14, 214560, Note_on_c, 11, 70, 76
14, 214680, Control_c, 11, 11, 80
14, 215039, Note_on_c, 11, 82, 0
14, 215039, Note_on_c, 11, 70, 0
14, 215040, Note_on_c, 11, 86, 76
14, 215279, Note_on_c, 11, 86, 0
14, 215280, Note_on_c, 11, 82, 76
14, 215759, Note_on_c, 11, 82, 0
14, 215760, Note_on_c, 11, 77, 76
14, 215999, Note_on_c, 11, 77, 0
14, 216720, Control_c, 11, 11, 127
14, 216840, Note_on_c, 11, 62, 52
14, 216959, Note_on_c, 11, 62, 0
14, 216960, Note_on_c, 11, 65, 52
14, 217079, Note_on_c, 11, 65, 0
14, 217080, Note_on_c, 11, 68, 52
14, 217199, Note_on_c, 11, 68, 0
14, 217200, Note_on_c, 11, 74, 52
14, 217319, Note_on_c, 11, 74, 0
14, 217320, Note_on_c, 11, 77, 52
14, 217439, Note_on_c, 11, 77, 0
14, 217440, Note_on_c, 11, 80, 52
14, 217679, Note_on_c, 11, 80, 0
14, 219360, Note_on_c, 11, 67, 44
14, 219599, Note_on_c, 11, 67, 0
14, 219600, Note_on_c, 11, 64, 44
14, 220079, Note_on_c, 11, 64, 0
14, 220080, Note_on_c, 11, 65, 44
14, 220304, Note_on_c, 11, 65, 0
14, 220320, Note_on_c, 11, 65, 44
14, 220559, Note_on_c, 11, 65, 0
14, 222240, Note_on_c, 11, 67, 44
14, 222479, Note_on_c, 11, 67, 0
14, 222480, Note_on_c, 11, 64, 44
14, 222959, Note_on_c, 11, 64, 0
14, 222960, Note_on_c, 11, 65, 44
14, 223184, Note_on_c, 11, 65, 0
14, 223200, Note_on_c, 11, 65, 44
14, 223439, Note_on_c, 11, 65, 0
14, 223665, Control_c, 11, 11, 96
14, 223680, Note_on_c, 11, 77, 68
14, 224384, Note_on_c, 11, 77, 0
14, 224400, Note_on_c, 11, 74, 68
14, 225104, Note_on_c, 11, 74, 0
14, 225120, Note_on_c, 11, 71, 68
14, 225824, Note_on_c, 11, 71, 0
14, 225840, Note_on_c, 11, 65, 68
14, 226080, Control_c, 11, 11, 96
14, 226140, Control_c, 11, 11, 99
14, 226200, Control_c, 11, 11, 101
14, 226260, Control_c, 11, 11, 104
14, 226320, Control_c, 11, 11, 106
14, 226380, Control_c, 11, 11, 109
14, 226440, Control_c, 11, 11, 112
14, 226500, Control_c, 11, 11, 114
14, 226544, Note_on_c, 11, 65, 0
14, 226560, Note_on_c, 11, 63, 68
14, 226560, Control_c, 11, 11, 117
14, 226620, Control_c, 11, 11, 119
14, 226680, Control_c, 11, 11, 122
14, 226740, Control_c, 11, 11, 127
14, 226799, Note_on_c, 11, 63, 0
14, 226800, Control_c, 11, 11, 127
14, 226800, Note_on_c, 11, 63, 76
14, 226860, Control_c, 11, 11, 124
14, 226920, Control_c, 11, 11, 122
14, 226980, Control_c, 11, 11, 119
14, 227040, Control_c, 11, 11, 117
14, 227100, Control_c, 11, 11, 114
14, 227160, Control_c, 11, 11, 112
14, 227220, Control_c, 11, 11, 109
14, 227279, Note_on_c, 11, 63, 0
14, 227280, Control_c, 11, 11, 106
14, 227280, Note_on_c, 11, 66, 68
14, 227340, Control_c, 11, 11, 104
14, 227400, Control_c, 11, 11, 101
14, 227460, Control_c, 11, 11, 96
14, 227519, Note_on_c, 11, 66, 0
14, 227520, Note_on_c, 11, 67, 68
14, 227759, Note_on_c, 11, 67, 0
14, 228225, Control_c, 11, 11, 127
14, 228240, Note_on_c, 11, 67, 76
14, 228360, Control_c, 11, 11, 80
14, 229049, Note_on_c, 11, 67, 0
14, 229080, Note_on_c, 11, 69, 76
14, 229169, Note_on_c, 11, 69, 0
14, 229200, Note_on_c, 11, 71, 76
14, 229289, Note_on_c, 11, 71, 0
14, 229320, Note_on_c, 11, 72, 76
14, 229409, Note_on_c, 11, 72, 0
14, 229440, Note_on_c, 11, 74, 76
14, 229529, Note_on_c, 11, 74, 0
14, 229560, Note_on_c, 11, 76, 76
14, 229649, Note_on_c, 11, 76, 0
14, 229680, Note_on_c, 11, 77, 76
14, 229859, Note_on_c, 11, 77, 0
14, 229920, Note_on_c, 11, 86, 76
14, 230279, Note_on_c, 11, 86, 0
14, 230280, Note_on_c, 11, 77, 76
14, 230384, Note_on_c, 11, 77, 0
14, 230400, Note_on_c, 11, 76, 76
14, 230639, Note_on_c, 11, 76, 0
14, 231105, Control_c, 11, 11, 127
14, 231120, Note_on_c, 11, 67, 76
14, 231240, Control_c, 11, 11, 80
14, 231929, Note_on_c, 11, 67, 0
14, 231960, Note_on_c, 11, 71, 76
14, 232049, Note_on_c, 11, 71, 0
14, 232080, Note_on_c, 11, 72, 76
14, 232169, Note_on_c, 11, 72, 0
14, 232200, Note_on_c, 11, 74, 76
14, 232289, Note_on_c, 11, 74, 0
14, 232320, Note_on_c, 11, 76, 76
14, 232409, Note_on_c, 11, 76, 0
14, 232440, Note_on_c, 11, 77, 76
14, 232529, Note_on_c, 11, 77, 0
14, 232560, Note_on_c, 11, 79, 76
14, 232739, Note_on_c, 11, 79, 0
14, 232800, Note_on_c, 11, 84, 76
14, 233159, Note_on_c, 11, 84, 0
14, 233160, Note_on_c, 11, 76, 76
14, 233264, Note_on_c, 11, 76, 0
14, 233280, Note_on_c, 11, 77, 76
14, 233459, Note_on_c, 11, 77, 0
14, 233520, Note_on_c, 11, 79, 76
14, 233879, Note_on_c, 11, 79, 0
14, 233880, Note_on_c, 11, 77, 76
14, 233984, Note_on_c, 11, 77, 0
14, 234000, Note_on_c, 11, 76, 76
14, 234179, Note_on_c, 11, 76, 0
14, 234240, Note_on_c, 11, 77, 76
14, 234599, Note_on_c, 11, 77, 0
14, 234600, Note_on_c, 11, 74, 76
14, 234704, Note_on_c, 11, 74, 0
14, 234720, Note_on_c, 11, 71, 76
14, 234899, Note_on_c, 11, 71, 0
14, 234960, Note_on_c, 11, 74, 76
14, 235319, Note_on_c, 11, 74, 0
14, 235320, Note_on_c, 11, 71, 76
14, 235424, Note_on_c, 11, 71, 0
14, 235440, Note_on_c, 11, 67, 76
14, 235619, Note_on_c, 11, 67, 0
14, 235680, Note_on_c, 11, 74, 76
14, 236039, Note_on_c, 11, 74, 0
14, 236040, Note_on_c, 11, 65, 76
14, 236144, Note_on_c, 11, 65, 0
14, 236160, Note_on_c, 11, 63, 68
14, 236399, Note_on_c, 11, 63, 0
14, 236880, Control_c, 11, 11, 96
14, 237360, Note_on_c, 11, 67, 60
14, 237599, Note_on_c, 11, 67, 0
14, 237600, Note_on_c, 11, 72, 60
14, 237839, Note_on_c, 11, 72, 0
14, 237840, Note_on_c, 11, 75, 60
14, 238079, Note_on_c, 11, 75, 0
14, 238080, Note_on_c, 11, 79, 60
14, 238304, Note_on_c, 11, 79, 0
14, 238320, Note_on_c, 11, 80, 60
14, 238320, Control_c, 11, 11, 96
14, 238380, Control_c, 11, 11, 99
14, 238440, Control_c, 11, 11, 101
14, 238500, Control_c, 11, 11, 104
14, 238560, Control_c, 11, 11, 106
14, 238620, Control_c, 11, 11, 109
14, 238680, Control_c, 11, 11, 112
14, 238740, Control_c, 11, 11, 114
14, 238800, Control_c, 11, 11, 117
14, 238860, Control_c, 11, 11, 119
14, 238920, Control_c, 11, 11, 122
14, 238980, Control_c, 11, 11, 127
14, 239039, Note_on_c, 11, 80, 0
14, 239040, Note_on_c, 11, 80, 52
14, 239279, Note_on_c, 11, 80, 0
14, 239760, Control_c, 11, 11, 64
14, 240240, Note_on_c, 11, 68, 84
14, 240479, Note_on_c, 11, 68, 0
14, 240480, Note_on_c, 11, 73, 84
14, 240719, Note_on_c, 11, 73, 0
14, 240720, Note_on_c, 11, 76, 84
14, 240959, Note_on_c, 11, 76, 0
14, 240960, Note_on_c, 11, 80, 84
14, 241199, Note_on_c, 11, 80, 0
14, 241200, Control_c, 11, 11, 64
14, 241200, Note_on_c, 11, 81, 84
14, 241260, Control_c, 11, 11, 69
14, 241320, Control_c, 11, 11, 75
14, 241380, Control_c, 11, 11, 80
14, 241440, Control_c, 11, 11, 85
14, 241500, Control_c, 11, 11, 90
14, 241560, Control_c, 11, 11, 96
14, 241620, Control_c, 11, 11, 101
14, 241680, Control_c, 11, 11, 106
14, 241740, Control_c, 11, 11, 111
14, 241800, Control_c, 11, 11, 117
14, 241860, Control_c, 11, 11, 127
14, 242009, Note_on_c, 11, 81, 0
14, 242040, Note_on_c, 11, 77, 84
14, 242099, Note_on_c, 11, 77, 0
14, 242100, Note_on_c, 11, 79, 84
14, 242151, Note_on_c, 11, 79, 0
14, 242160, Note_on_c, 11, 77, 84
14, 242249, Note_on_c, 11, 77, 0
14, 242280, Note_on_c, 11, 74, 84
14, 242339, Note_on_c, 11, 74, 0
14, 242340, Note_on_c, 11, 76, 84
14, 242391, Note_on_c, 11, 76, 0
14, 242400, Note_on_c, 11, 74, 84
14, 242489, Note_on_c, 11, 74, 0
14, 242520, Note_on_c, 11, 69, 84
14, 242579, Note_on_c, 11, 69, 0
14, 242580, Note_on_c, 11, 70, 84
14, 242631, Note_on_c, 11, 70, 0
14, 242640, Note_on_c, 11, 69, 84
14, 242729, Note_on_c, 11, 69, 0
14, 242760, Note_on_c, 11, 65, 84
14, 242819, Note_on_c, 11, 65, 0
14, 242820, Note_on_c, 11, 67, 84
14, 242871, Note_on_c, 11, 67, 0
14, 242880, Note_on_c, 11, 65, 84
14, 242969, Note_on_c, 11, 65, 0
14, 243000, Note_on_c, 11, 62, 84
14, 243059, Note_on_c, 11, 62, 0
14, 243060, Note_on_c, 11, 65, 84
14, 243111, Note_on_c, 11, 65, 0
14, 243120, Note_on_c, 11, 69, 84
14, 243209, Note_on_c, 11, 69, 0
14, 243240, Note_on_c, 11, 74, 84
14, 243299, Note_on_c, 11, 74, 0
14, 243300, Note_on_c, 11, 77, 84
14, 243351, Note_on_c, 11, 77, 0
14, 243360, Note_on_c, 11, 69, 84
14, 243360, Note_on_c, 11, 81, 84
14, 243464, Note_on_c, 11, 69, 0
14, 243464, Note_on_c, 11, 81, 0
14, 243480, Note_on_c, 11, 69, 84
14, 243480, Note_on_c, 11, 81, 84
14, 243704, Note_on_c, 11, 69, 0
14, 243704, Note_on_c, 11, 81, 0
14, 243720, Note_on_c, 11, 81, 84
14, 243720, Note_on_c, 11, 69, 84
14, 243944, Note_on_c, 11, 81, 0
14, 243944, Note_on_c, 11, 69, 0
14, 243960, Note_on_c, 11, 69, 84
14, 243960, Note_on_c, 11, 81, 84
14, 244184, Note_on_c, 11, 69, 0
14, 244184, Note_on_c, 11, 81, 0
14, 244200, Note_on_c, 11, 69, 84
14, 244200, Note_on_c, 11, 81, 84
14, 244424, Note_on_c, 11, 69, 0
14, 244424, Note_on_c, 11, 81, 0
14, 244440, Note_on_c, 11, 69, 84
14, 244440, Note_on_c, 11, 81, 84
14, 244664, Note_on_c, 11, 69, 0
14, 244664, Note_on_c, 11, 81, 0
14, 244680, Note_on_c, 11, 81, 84
14, 244680, Note_on_c, 11, 69, 84
14, 244904, Note_on_c, 11, 81, 0
14, 244904, Note_on_c, 11, 69, 0
14, 244920, Note_on_c, 11, 67, 84
14, 244979, Note_on_c, 11, 67, 0
14, 244980, Note_on_c, 11, 69, 84
14, 245031, Note_on_c, 11, 69, 0
14, 245040, Note_on_c, 11, 67, 84
14, 245129, Note_on_c, 11, 67, 0
14, 245160, Note_on_c, 11, 64, 84
14, 245219, Note_on_c, 11, 64, 0
14, 245220, Note_on_c, 11, 65, 84
14, 245271, Note_on_c, 11, 65, 0
14, 245280, Note_on_c, 11, 64, 84
14, 245369, Note_on_c, 11, 64, 0
14, 245400, Note_on_c, 11, 61, 84
14, 245459, Note_on_c, 11, 61, 0
14, 245460, Note_on_c, 11, 62, 84
14, 245511, Note_on_c, 11, 62, 0
14, 245520, Note_on_c, 11, 61, 84
14, 245609, Note_on_c, 11, 61, 0
14, 245640, Note_on_c, 11, 57, 84
14, 245699, Note_on_c, 11, 57, 0
14, 245700, Note_on_c, 11, 58, 84
14, 245751, Note_on_c, 11, 58, 0
14, 245760, Note_on_c, 11, 57, 84
14, 245849, Note_on_c, 11, 57, 0
14, 245880, Note_on_c, 11, 61, 84
14, 245939, Note_on_c, 11, 61, 0
14, 245940, Note_on_c, 11, 64, 84
14, 245991, Note_on_c, 11, 64, 0
14, 246000, Note_on_c, 11, 67, 84
14, 246089, Note_on_c, 11, 67, 0
14, 246120, Note_on_c, 11, 73, 84
14, 246179, Note_on_c, 11, 73, 0
14, 246180, Note_on_c, 11, 76, 84
14, 246231, Note_on_c, 11, 76, 0
14, 246240, Note_on_c, 11, 81, 84
14, 246329, Note_on_c, 11, 81, 0
14, 246360, Note_on_c, 11, 69, 84
14, 246360, Note_on_c, 11, 81, 84
14, 246584, Note_on_c, 11, 69, 0
14, 246584, Note_on_c, 11, 81, 0
14, 246600, Note_on_c, 11, 81, 84
14, 246600, Note_on_c, 11, 69, 84
14, 246824, Note_on_c, 11, 81, 0
14, 246824, Note_on_c, 11, 69, 0
14, 246840, Note_on_c, 11, 69, 84
14, 246840, Note_on_c, 11, 81, 84
14, 247064, Note_on_c, 11, 69, 0
14, 247064, Note_on_c, 11, 81, 0
14, 247080, Note_on_c, 11, 81, 84
14, 247080, Note_on_c, 11, 69, 84
14, 247304, Note_on_c, 11, 81, 0
14, 247304, Note_on_c, 11, 69, 0
14, 247320, Note_on_c, 11, 69, 84
14, 247320, Note_on_c, 11, 81, 84
14, 247544, Note_on_c, 11, 69, 0
14, 247544, Note_on_c, 11, 81, 0
14, 247560, Note_on_c, 11, 69, 84
14, 247560, Note_on_c, 11, 81, 84
14, 247664, Note_on_c, 11, 69, 0
14, 247664, Note_on_c, 11, 81, 0
14, 247680, Note_on_c, 11, 81, 52
14, 247680, Note_on_c, 11, 69, 52
14, 248024, Note_on_c, 11, 81, 0
14, 248024, Note_on_c, 11, 69, 0
14, 248040, Note_on_c, 11, 81, 52
14, 248091, Note_on_c, 11, 81, 0
14, 248100, Note_on_c, 11, 81, 52
14, 248151, Note_on_c, 11, 81, 0
14, 248160, Note_on_c, 11, 78, 52
14, 248211, Note_on_c, 11, 78, 0
14, 248220, Note_on_c, 11, 78, 52
14, 248271, Note_on_c, 11, 78, 0
14, 248280, Note_on_c, 11, 74, 52
14, 248331, Note_on_c, 11, 74, 0
14, 248340, Note_on_c, 11, 74, 52
14, 248391, Note_on_c, 11, 74, 0
14, 248400, Note_on_c, 11, 79, 52
14, 248744, Note_on_c, 11, 79, 0
14, 248760, Note_on_c, 11, 82, 52
14, 248811, Note_on_c, 11, 82, 0
14, 248820, Note_on_c, 11, 82, 52
14, 248871, Note_on_c, 11, 82, 0
14, 248880, Note_on_c, 11, 79, 52
14, 248931, Note_on_c, 11, 79, 0
14, 248940, Note_on_c, 11, 79, 52
14, 248991, Note_on_c, 11, 79, 0
14, 249000, Note_on_c, 11, 74, 52
14, 249051, Note_on_c, 11, 74, 0
14, 249060, Note_on_c, 11, 74, 52
14, 249111, Note_on_c, 11, 74, 0
14, 249120, Note_on_c, 11, 81, 52
14, 249171, Note_on_c, 11, 81, 0
14, 249180, Note_on_c, 11, 81, 53
14, 249231, Note_on_c, 11, 81, 0
14, 249240, Note_on_c, 11, 84, 54
14, 249291, Note_on_c, 11, 84, 0
14, 249300, Note_on_c, 11, 84, 56
14, 249351, Note_on_c, 11, 84, 0
14, 249360, Note_on_c, 11, 81, 57
14, 249411, Note_on_c, 11, 81, 0
14, 249420, Note_on_c, 11, 81, 58
14, 249471, Note_on_c, 11, 81, 0
14, 249480, Note_on_c, 11, 74, 60
14, 249531, Note_on_c, 11, 74, 0
14, 249540, Note_on_c, 11, 74, 61
14, 249591, Note_on_c, 11, 74, 0
14, 249600, Note_on_c, 11, 81, 62
14, 249651, Note_on_c, 11, 81, 0
14, 249660, Note_on_c, 11, 81, 64
14, 249711, Note_on_c, 11, 81, 0
14, 249720, Note_on_c, 11, 84, 65
14, 249771, Note_on_c, 11, 84, 0
14, 249780, Note_on_c, 11, 84, 66
14, 249831, Note_on_c, 11, 84, 0
14, 249840, Note_on_c, 11, 81, 68
14, 249891, Note_on_c, 11, 81, 0
14, 249900, Note_on_c, 11, 81, 69
14, 249951, Note_on_c, 11, 81, 0
14, 249960, Note_on_c, 11, 74, 70
14, 250011, Note_on_c, 11, 74, 0
14, 250020, Note_on_c, 11, 74, 72
14, 250071, Note_on_c, 11, 74, 0
14, 250080, Note_on_c, 11, 81, 73
14, 250131, Note_on_c, 11, 81, 0
14, 250140, Note_on_c, 11, 81, 74
14, 250191, Note_on_c, 11, 81, 0
14, 250200, Note_on_c, 11, 84, 76
14, 250251, Note_on_c, 11, 84, 0
14, 250260, Note_on_c, 11, 84, 77
14, 250311, Note_on_c, 11, 84, 0
14, 250320, Note_on_c, 11, 81, 78
14, 250371, Note_on_c, 11, 81, 0
14, 250380, Note_on_c, 11, 81, 80
14, 250431, Note_on_c, 11, 81, 0
14, 250440, Note_on_c, 11, 74, 81
14, 250491, Note_on_c, 11, 74, 0
14, 250500, Note_on_c, 11, 74, 82
14, 250551, Note_on_c, 11, 74, 0
14, 250560, Note_on_c, 11, 86, 84
14, 250649, Note_on_c, 11, 86, 0
14, 250680, Note_on_c, 11, 82, 84
14, 250739, Note_on_c, 11, 82, 0
14, 250740, Note_on_c, 11, 84, 84
14, 250791, Note_on_c, 11, 84, 0
14, 250800, Note_on_c, 11, 82, 84
14, 250889, Note_on_c, 11, 82, 0
14, 250920, Note_on_c, 11, 79, 84
14, 250979, Note_on_c, 11, 79, 0
14, 250980, Note_on_c, 11, 81, 84
14, 251031, Note_on_c, 11, 81, 0
14, 251040, Note_on_c, 11, 79, 84
14, 251129, Note_on_c, 11, 79, 0
14, 251160, Note_on_c, 11, 74, 84
14, 251219, Note_on_c, 11, 74, 0
14, 251220, Note_on_c, 11, 75, 84
14, 251271, Note_on_c, 11, 75, 0
14, 251280, Note_on_c, 11, 74, 84
14, 251369, Note_on_c, 11, 74, 0
14, 251400, Note_on_c, 11, 70, 84
14, 251459, Note_on_c, 11, 70, 0
14, 251460, Note_on_c, 11, 72, 84
14, 251511, Note_on_c, 11, 72, 0
14, 251520, Note_on_c, 11, 70, 84
14, 251609, Note_on_c, 11, 70, 0
14, 251640, Note_on_c, 11, 67, 84
14, 251699, Note_on_c, 11, 67, 0
14, 251700, Note_on_c, 11, 70, 84
14, 251751, Note_on_c, 11, 70, 0
14, 251760, Note_on_c, 11, 74, 84
14, 251849, Note_on_c, 11, 74, 0
14, 251880, Note_on_c, 11, 79, 84
14, 251939, Note_on_c, 11, 79, 0
14, 251940, Note_on_c, 11, 82, 84
14, 251991, Note_on_c, 11, 82, 0
14, 252000, Note_on_c, 11, 86, 84
14, 252000, Note_on_c, 11, 74, 84
14, 252104, Note_on_c, 11, 86, 0
14, 252104, Note_on_c, 11, 74, 0
14, 252120, Note_on_c, 11, 74, 84
14, 252120, Note_on_c, 11, 86, 84
14, 252344, Note_on_c, 11, 74, 0
14, 252344, Note_on_c, 11, 86, 0
14, 252360, Note_on_c, 11, 86, 84
14, 252360, Note_on_c, 11, 74, 84
14, 252584, Note_on_c, 11, 86, 0
14, 252584, Note_on_c, 11, 74, 0
14, 252600, Note_on_c, 11, 74, 84
14, 252600, Note_on_c, 11, 86, 84
14, 252824, Note_on_c, 11, 74, 0
14, 252824, Note_on_c, 11, 86, 0
14, 252840, Note_on_c, 11, 86, 84
14, 252840, Note_on_c, 11, 74, 84
14, 253064, Note_on_c, 11, 86, 0
14, 253064, Note_on_c, 11, 74, 0
14, 253080, Note_on_c, 11, 74, 84
14, 253080, Note_on_c, 11, 86, 84
14, 253304, Note_on_c, 11, 74, 0
14, 253304, Note_on_c, 11, 86, 0
14, 253320, Note_on_c, 11, 74, 84
14, 253320, Note_on_c, 11, 86, 84
14, 253544, Note_on_c, 11, 74, 0
14, 253544, Note_on_c, 11, 86, 0
14, 253560, Note_on_c, 11, 84, 84
14, 253619, Note_on_c, 11, 84, 0
14, 253620, Note_on_c, 11, 86, 84
14, 253671, Note_on_c, 11, 86, 0
14, 253680, Note_on_c, 11, 84, 84
14, 253769, Note_on_c, 11, 84, 0
14, 253800, Note_on_c, 11, 81, 84
14, 253859, Note_on_c, 11, 81, 0
14, 253860, Note_on_c, 11, 82, 84
14, 253911, Note_on_c, 11, 82, 0
14, 253920, Note_on_c, 11, 81, 84
14, 254009, Note_on_c, 11, 81, 0
14, 254040, Note_on_c, 11, 78, 84
14, 254099, Note_on_c, 11, 78, 0
14, 254100, Note_on_c, 11, 79, 84
14, 254151, Note_on_c, 11, 79, 0
14, 254160, Note_on_c, 11, 78, 84
14, 254249, Note_on_c, 11, 78, 0
14, 254280, Note_on_c, 11, 62, 84
14, 254339, Note_on_c, 11, 62, 0
14, 254340, Note_on_c, 11, 63, 84
14, 254391, Note_on_c, 11, 63, 0
14, 254400, Note_on_c, 11, 62, 84
14, 254489, Note_on_c, 11, 62, 0
14, 254520, Note_on_c, 11, 66, 84
14, 254579, Note_on_c, 11, 66, 0
14, 254580, Note_on_c, 11, 69, 84
14, 254631, Note_on_c, 11, 69, 0
14, 254640, Note_on_c, 11, 74, 84
14, 254729, Note_on_c, 11, 74, 0
14, 254760, Note_on_c, 11, 78, 84
14, 254819, Note_on_c, 11, 78, 0
14, 254820, Note_on_c, 11, 81, 84
14, 254871, Note_on_c, 11, 81, 0
14, 254880, Note_on_c, 11, 86, 84
14, 254880, Note_on_c, 11, 74, 84
14, 254984, Note_on_c, 11, 86, 0
14, 254984, Note_on_c, 11, 74, 0
14, 255000, Note_on_c, 11, 74, 84
14, 255000, Note_on_c, 11, 86, 84
14, 255224, Note_on_c, 11, 74, 0
14, 255224, Note_on_c, 11, 86, 0
14, 255240, Note_on_c, 11, 74, 84
14, 255240, Note_on_c, 11, 86, 84
14, 255464, Note_on_c, 11, 74, 0
14, 255464, Note_on_c, 11, 86, 0
14, 255480, Note_on_c, 11, 74, 84
14, 255480, Note_on_c, 11, 86, 84
14, 255704, Note_on_c, 11, 74, 0
14, 255704, Note_on_c, 11, 86, 0
14, 255720, Note_on_c, 11, 86, 84
14, 255720, Note_on_c, 11, 74, 84
14, 255944, Note_on_c, 11, 86, 0
14, 255944, Note_on_c, 11, 74, 0
14, 255960, Note_on_c, 11, 74, 84
14, 255960, Note_on_c, 11, 86, 84
14, 256184, Note_on_c, 11, 74, 0
14, 256184, Note_on_c, 11, 86, 0
14, 256200, Note_on_c, 11, 86, 84
14, 256200, Note_on_c, 11, 74, 84
14, 256304, Note_on_c, 11, 86, 0
14, 256304, Note_on_c, 11, 74, 0
14, 256320, Note_on_c, 11, 74, 52
14, 256320, Note_on_c, 11, 86, 52
14, 256664, Note_on_c, 11, 74, 0
14, 256664, Note_on_c, 11, 86, 0
14, 256680, Note_on_c, 11, 74, 52
14, 256731, Note_on_c, 11, 74, 0
14, 256740, Note_on_c, 11, 74, 52
14, 256791, Note_on_c, 11, 74, 0
14, 256800, Note_on_c, 11, 71, 52
14, 256851, Note_on_c, 11, 71, 0
14, 256860, Note_on_c, 11, 71, 52
14, 256911, Note_on_c, 11, 71, 0
14, 256920, Note_on_c, 11, 67, 52
14, 256971, Note_on_c, 11, 67, 0
14, 256980, Note_on_c, 11, 67, 52
14, 257031, Note_on_c, 11, 67, 0
14, 257040, Note_on_c, 11, 72, 52
14, 257384, Note_on_c, 11, 72, 0
14, 257400, Note_on_c, 11, 75, 52
14, 257451, Note_on_c, 11, 75, 0
14, 257460, Note_on_c, 11, 75, 52
14, 257511, Note_on_c, 11, 75, 0
14, 257520, Note_on_c, 11, 72, 52
14, 257571, Note_on_c, 11, 72, 0
14, 257580, Note_on_c, 11, 72, 52
14, 257631, Note_on_c, 11, 72, 0
14, 257640, Note_on_c, 11, 67, 52
14, 257691, Note_on_c, 11, 67, 0
14, 257700, Note_on_c, 11, 67, 52
14, 257751, Note_on_c, 11, 67, 0
14, 257760, Note_on_c, 11, 74, 52
14, 257811, Note_on_c, 11, 74, 0
14, 257820, Note_on_c, 11, 74, 52
14, 257871, Note_on_c, 11, 74, 0
14, 257880, Note_on_c, 11, 77, 53
14, 257931, Note_on_c, 11, 77, 0
14, 257940, Note_on_c, 11, 77, 54
14, 257991, Note_on_c, 11, 77, 0
14, 258000, Note_on_c, 11, 74, 54
14, 258051, Note_on_c, 11, 74, 0
14, 258060, Note_on_c, 11, 74, 55
14, 258111, Note_on_c, 11, 74, 0
14, 258120, Note_on_c, 11, 67, 56
14, 258171, Note_on_c, 11, 67, 0
14, 258180, Note_on_c, 11, 67, 56
14, 258231, Note_on_c, 11, 67, 0
14, 258240, Note_on_c, 11, 74, 57
14, 258291, Note_on_c, 11, 74, 0
14, 258300, Note_on_c, 11, 74, 58
14, 258351, Note_on_c, 11, 74, 0
14, 258360, Note_on_c, 11, 77, 58
14, 258411, Note_on_c, 11, 77, 0
14, 258420, Note_on_c, 11, 77, 59
14, 258471, Note_on_c, 11, 77, 0
14, 258480, Note_on_c, 11, 74, 60
14, 258531, Note_on_c, 11, 74, 0
14, 258540, Note_on_c, 11, 74, 60
14, 258591, Note_on_c, 11, 74, 0
14, 258600, Note_on_c, 11, 67, 61
14, 258651, Note_on_c, 11, 67, 0
14, 258660, Note_on_c, 11, 67, 62
14, 258711, Note_on_c, 11, 67, 0
14, 258720, Note_on_c, 11, 74, 62
14, 258771, Note_on_c, 11, 74, 0
14, 258780, Note_on_c, 11, 74, 63
14, 258831, Note_on_c, 11, 74, 0
14, 258840, Note_on_c, 11, 77, 64
14, 258891, Note_on_c, 11, 77, 0
14, 258900, Note_on_c, 11, 77, 64
14, 258951, Note_on_c, 11, 77, 0
14, 258960, Note_on_c, 11, 74, 65
14, 259011, Note_on_c, 11, 74, 0
14, 259020, Note_on_c, 11, 74, 66
14, 259071, Note_on_c, 11, 74, 0
14, 259080, Note_on_c, 11, 67, 66
14, 259131, Note_on_c, 11, 67, 0
14, 259140, Note_on_c, 11, 67, 67
14, 259191, Note_on_c, 11, 67, 0
14, 259200, Note_on_c, 11, 76, 52
14, 259544, Note_on_c, 11, 76, 0
14, 259560, Note_on_c, 11, 79, 52
14, 259611, Note_on_c, 11, 79, 0
14, 259620, Note_on_c, 11, 79, 52
14, 259671, Note_on_c, 11, 79, 0
14, 259680, Note_on_c, 11, 76, 52
14, 259731, Note_on_c, 11, 76, 0
14, 259740, Note_on_c, 11, 76, 52
14, 259791, Note_on_c, 11, 76, 0
14, 259800, Note_on_c, 11, 72, 52
14, 259851, Note_on_c, 11, 72, 0
14, 259860, Note_on_c, 11, 72, 52
14, 259911, Note_on_c, 11, 72, 0
14, 259920, Note_on_c, 11, 77, 52
14, 260264, Note_on_c, 11, 77, 0
14, 260280, Note_on_c, 11, 80, 52
14, 260331, Note_on_c, 11, 80, 0
14, 260340, Note_on_c, 11, 80, 52
14, 260391, Note_on_c, 11, 80, 0
14, 260400, Note_on_c, 11, 77, 52
14, 260451, Note_on_c, 11, 77, 0
14, 260460, Note_on_c, 11, 77, 52
14, 260511, Note_on_c, 11, 77, 0
14, 260520, Note_on_c, 11, 72, 52
14, 260571, Note_on_c, 11, 72, 0
14, 260580, Note_on_c, 11, 72, 52
14, 260631, Note_on_c, 11, 72, 0
14, 260640, Note_on_c, 11, 79, 52
14, 260691, Note_on_c, 11, 79, 0
14, 260700, Note_on_c, 11, 79, 53
14, 260751, Note_on_c, 11, 79, 0
14, 260760, Note_on_c, 11, 82, 54
14, 260811, Note_on_c, 11, 82, 0
14, 260820, Note_on_c, 11, 82, 55
14, 260871, Note_on_c, 11, 82, 0
14, 260880, Note_on_c, 11, 79, 56
14, 260931, Note_on_c, 11, 79, 0
14, 260940, Note_on_c, 11, 79, 57
14, 260991, Note_on_c, 11, 79, 0
14, 261000, Note_on_c, 11, 72, 58
14, 261051, Note_on_c, 11, 72, 0
14, 261060, Note_on_c, 11, 72, 59
14, 261111, Note_on_c, 11, 72, 0
14, 261120, Note_on_c, 11, 79, 60
14, 261171, Note_on_c, 11, 79, 0
14, 261180, Note_on_c, 11, 79, 61
14, 261231, Note_on_c, 11, 79, 0
14, 261240, Note_on_c, 11, 82, 62
14, 261291, Note_on_c, 11, 82, 0
14, 261300, Note_on_c, 11, 82, 63
14, 261351, Note_on_c, 11, 82, 0
14, 261360, Note_on_c, 11, 79, 64
14, 261411, Note_on_c, 11, 79, 0
14, 261420, Note_on_c, 11, 79, 65
14, 261471, Note_on_c, 11, 79, 0
14, 261480, Note_on_c, 11, 72, 66
14, 261531, Note_on_c, 11, 72, 0
14, 261540, Note_on_c, 11, 72, 67
14, 261591, Note_on_c, 11, 72, 0
14, 261600, Note_on_c, 11, 79, 68
14, 261651, Note_on_c, 11, 79, 0
14, 261660, Note_on_c, 11, 79, 69
14, 261711, Note_on_c, 11, 79, 0
14, 261720, Note_on_c, 11, 82, 70
14, 261771, Note_on_c, 11, 82, 0
14, 261780, Note_on_c, 11, 82, 71
14, 261831, Note_on_c, 11, 82, 0
14, 261840, Note_on_c, 11, 79, 72
14, 261891, Note_on_c, 11, 79, 0
14, 261900, Note_on_c, 11, 79, 73
14, 261951, Note_on_c, 11, 79, 0
14, 261960, Note_on_c, 11, 72, 74
14, 262011, Note_on_c, 11, 72, 0
14, 262020, Note_on_c, 11, 72, 75
14, 262071, Note_on_c, 11, 72, 0
14, 262080, Note_on_c, 11, 81, 76
14, 262131, Note_on_c, 11, 81, 0
14, 262140, Note_on_c, 11, 81, 76
14, 262191, Note_on_c, 11, 81, 0
14, 262200, Note_on_c, 11, 84, 76
14, 262251, Note_on_c, 11, 84, 0
14, 262260, Note_on_c, 11, 84, 76
14, 262311, Note_on_c, 11, 84, 0
14, 262320, Note_on_c, 11, 81, 76
14, 262371, Note_on_c, 11, 81, 0
14, 262380, Note_on_c, 11, 81, 76
14, 262431, Note_on_c, 11, 81, 0
14, 262440, Note_on_c, 11, 77, 76
14, 262491, Note_on_c, 11, 77, 0
14, 262500, Note_on_c, 11, 77, 76
14, 262551, Note_on_c, 11, 77, 0
14, 262560, Note_on_c, 11, 81, 76
14, 262611, Note_on_c, 11, 81, 0
14, 262620, Note_on_c, 11, 81, 76
14, 262671, Note_on_c, 11, 81, 0
14, 262680, Note_on_c, 11, 84, 76
14, 262731, Note_on_c, 11, 84, 0
14, 262740, Note_on_c, 11, 84, 76
14, 262791, Note_on_c, 11, 84, 0
14, 262800, Note_on_c, 11, 82, 76
14, 262851, Note_on_c, 11, 82, 0
14, 262860, Note_on_c, 11, 82, 76
14, 262911, Note_on_c, 11, 82, 0
14, 262920, Note_on_c, 11, 85, 76
14, 262971, Note_on_c, 11, 85, 0
14, 262980, Note_on_c, 11, 85, 76
14, 263031, Note_on_c, 11, 85, 0
14, 263040, Note_on_c, 11, 82, 76
14, 263091, Note_on_c, 11, 82, 0
14, 263100, Note_on_c, 11, 82, 76
14, 263151, Note_on_c, 11, 82, 0
14, 263160, Note_on_c, 11, 77, 76
14, 263211, Note_on_c, 11, 77, 0
14, 263220, Note_on_c, 11, 77, 76
14, 263271, Note_on_c, 11, 77, 0
14, 263280, Note_on_c, 11, 82, 76
14, 263331, Note_on_c, 11, 82, 0
14, 263340, Note_on_c, 11, 82, 76
14, 263391, Note_on_c, 11, 82, 0
14, 263400, Note_on_c, 11, 85, 76
14, 263451, Note_on_c, 11, 85, 0
14, 263460, Note_on_c, 11, 85, 76
14, 263511, Note_on_c, 11, 85, 0
14, 263520, Note_on_c, 11, 79, 76
14, 263571, Note_on_c, 11, 79, 0
14, 263580, Note_on_c, 11, 79, 76
14, 263631, Note_on_c, 11, 79, 0
14, 263640, Note_on_c, 11, 82, 76
14, 263691, Note_on_c, 11, 82, 0
14, 263700, Note_on_c, 11, 82, 76
14, 263751, Note_on_c, 11, 82, 0
14, 263760, Note_on_c, 11, 79, 76
14, 263811, Note_on_c, 11, 79, 0
14, 263820, Note_on_c, 11, 79, 76
14, 263871, Note_on_c, 11, 79, 0
14, 263880, Note_on_c, 11, 75, 76
14, 263931, Note_on_c, 11, 75, 0
14, 263940, Note_on_c, 11, 75, 76
14, 263991, Note_on_c, 11, 75, 0
14, 264000, Note_on_c, 11, 79, 76
14, 264051, Note_on_c, 11, 79, 0
14, 264060, Note_on_c, 11, 79, 76
14, 264111, Note_on_c, 11, 79, 0
14, 264120, Note_on_c, 11, 82, 76
14, 264171, Note_on_c, 11, 82, 0
14, 264180, Note_on_c, 11, 82, 76
14, 264231, Note_on_c, 11, 82, 0
14, 264240, Note_on_c, 11, 80, 76
14, 264291, Note_on_c, 11, 80, 0
14, 264300, Note_on_c, 11, 80, 76
14, 264351, Note_on_c, 11, 80, 0
14, 264360, Note_on_c, 11, 84, 76
14, 264411, Note_on_c, 11, 84, 0
14, 264420, Note_on_c, 11, 84, 76
14, 264471, Note_on_c, 11, 84, 0
14, 264480, Note_on_c, 11, 80, 76
14, 264531, Note_on_c, 11, 80, 0
14, 264540, Note_on_c, 11, 80, 76
14, 264591, Note_on_c, 11, 80, 0
14, 264600, Note_on_c, 11, 75, 76
14, 264651, Note_on_c, 11, 75, 0
14, 264660, Note_on_c, 11, 75, 76
14, 264711, Note_on_c, 11, 75, 0
14, 264720, Note_on_c, 11, 80, 76
14, 264771, Note_on_c, 11, 80, 0
14, 264780, Note_on_c, 11, 80, 76
14, 264831, Note_on_c, 11, 80, 0
14, 264840, Note_on_c, 11, 84, 76
14, 264891, Note_on_c, 11, 84, 0
14, 264900, Note_on_c, 11, 84, 76
14, 264951, Note_on_c, 11, 84, 0
14, 264960, Note_on_c, 11, 80, 84
14, 265011, Note_on_c, 11, 80, 0
14, 265020, Note_on_c, 11, 85, 84
14, 265071, Note_on_c, 11, 85, 0
14, 265080, Note_on_c, 11, 85, 84
14, 265131, Note_on_c, 11, 85, 0
14, 265140, Note_on_c, 11, 85, 84
14, 265191, Note_on_c, 11, 85, 0
14, 265200, Note_on_c, 11, 85, 84
14, 265251, Note_on_c, 11, 85, 0
14, 265260, Note_on_c, 11, 85, 84
14, 265311, Note_on_c, 11, 85, 0
14, 265320, Note_on_c, 11, 85, 84
14, 265371, Note_on_c, 11, 85, 0
14, 265380, Note_on_c, 11, 85, 84
14, 265431, Note_on_c, 11, 85, 0
14, 265440, Note_on_c, 11, 85, 84
14, 265491, Note_on_c, 11, 85, 0
14, 265500, Note_on_c, 11, 85, 84
14, 265551, Note_on_c, 11, 85, 0
14, 265560, Note_on_c, 11, 85, 84
14, 265611, Note_on_c, 11, 85, 0
14, 265620, Note_on_c, 11, 85, 84
14, 265671, Note_on_c, 11, 85, 0
14, 265680, Note_on_c, 11, 86, 84
14, 265731, Note_on_c, 11, 86, 0
14, 265740, Note_on_c, 11, 86, 84
14, 265791, Note_on_c, 11, 86, 0
14, 265800, Note_on_c, 11, 86, 84
14, 265851, Note_on_c, 11, 86, 0
14, 265860, Note_on_c, 11, 86, 84
14, 265911, Note_on_c, 11, 86, 0
14, 265920, Note_on_c, 11, 86, 84
14, 265971, Note_on_c, 11, 86, 0
14, 265980, Note_on_c, 11, 86, 84
14, 266031, Note_on_c, 11, 86, 0
14, 266040, Note_on_c, 11, 86, 84
14, 266091, Note_on_c, 11, 86, 0
14, 266100, Note_on_c, 11, 86, 84
14, 266151, Note_on_c, 11, 86, 0
14, 266160, Note_on_c, 11, 86, 84
14, 266211, Note_on_c, 11, 86, 0
14, 266220, Note_on_c, 11, 86, 84
14, 266271, Note_on_c, 11, 86, 0
14, 266280, Note_on_c, 11, 86, 84
14, 266331, Note_on_c, 11, 86, 0
14, 266340, Note_on_c, 11, 86, 84
14, 266391, Note_on_c, 11, 86, 0
14, 266400, Note_on_c, 11, 87, 84
14, 266639, Note_on_c, 11, 87, 0
14, 267120, Note_on_c, 11, 63, 68
14, 267240, Control_c, 11, 11, 96
14, 267929, Note_on_c, 11, 63, 0
14, 267960, Note_on_c, 11, 67, 68
14, 268049, Note_on_c, 11, 67, 0
14, 268080, Note_on_c, 11, 68, 68
14, 268169, Note_on_c, 11, 68, 0
14, 268200, Note_on_c, 11, 70, 68
14, 268289, Note_on_c, 11, 70, 0
14, 268320, Note_on_c, 11, 72, 68
14, 268409, Note_on_c, 11, 72, 0
14, 268440, Note_on_c, 11, 73, 68
14, 268529, Note_on_c, 11, 73, 0
14, 268560, Note_on_c, 11, 75, 68
14, 268739, Note_on_c, 11, 75, 0
14, 268800, Note_on_c, 11, 82, 68
14, 269159, Note_on_c, 11, 82, 0
14, 269160, Note_on_c, 11, 73, 68
14, 269264, Note_on_c, 11, 73, 0
14, 269280, Note_on_c, 11, 72, 68
14, 269519, Note_on_c, 11, 72, 0
14, 269985, Control_c, 11, 11, 127
14, 270000, Note_on_c, 11, 63, 68
14, 270120, Control_c, 11, 11, 96
14, 270809, Note_on_c, 11, 63, 0
14, 270840, Note_on_c, 11, 67, 68
14, 270929, Note_on_c, 11, 67, 0
14, 270960, Note_on_c, 11, 68, 68
14, 271049, Note_on_c, 11, 68, 0
14, 271080, Note_on_c, 11, 70, 68
14, 271169, Note_on_c, 11, 70, 0
14, 271200, Note_on_c, 11, 72, 68
14, 271289, Note_on_c, 11, 72, 0
14, 271320, Note_on_c, 11, 73, 68
14, 271409, Note_on_c, 11, 73, 0
14, 271440, Note_on_c, 11, 75, 68
14, 271619, Note_on_c, 11, 75, 0
14, 271680, Note_on_c, 11, 80, 68
14, 272039, Note_on_c, 11, 80, 0
14, 272040, Note_on_c, 11, 72, 68
14, 272144, Note_on_c, 11, 72, 0
14, 272160, Note_on_c, 11, 73, 68
14, 272339, Note_on_c, 11, 73, 0
14, 272400, Note_on_c, 11, 75, 68
14, 272759, Note_on_c, 11, 75, 0
14, 272760, Note_on_c, 11, 73, 68
14, 272864, Note_on_c, 11, 73, 0
14, 272880, Note_on_c, 11, 70, 68
14, 273059, Note_on_c, 11, 70, 0
14, 273120, Note_on_c, 11, 73, 68
14, 273479, Note_on_c, 11, 73, 0
14, 273480, Note_on_c, 11, 70, 68
14, 273584, Note_on_c, 11, 70, 0
14, 273600, Note_on_c, 11, 67, 68
14, 273779, Note_on_c, 11, 67, 0
14, 273840, Note_on_c, 11, 70, 68
14, 274199, Note_on_c, 11, 70, 0
14, 274200, Note_on_c, 11, 67, 68
14, 274304, Note_on_c, 11, 67, 0
14, 274320, Note_on_c, 11, 63, 68
14, 274499, Note_on_c, 11, 63, 0
14, 274560, Note_on_c, 11, 70, 68
14, 274919, Note_on_c, 11, 70, 0
14, 274920, Note_on_c, 11, 61, 68
14, 275024, Note_on_c, 11, 61, 0
14, 275040, Note_on_c, 11, 60, 68
14, 275129, Note_on_c, 11, 60, 0
14, 275160, Note_on_c, 11, 72, 68
14, 275279, Note_on_c, 11, 72, 0
14, 275280, Note_on_c, 11, 68, 68
14, 275399, Note_on_c, 11, 68, 0
14, 275400, Note_on_c, 11, 72, 68
14, 275519, Note_on_c, 11, 72, 0
14, 275520, Note_on_c, 11, 68, 68
14, 275639, Note_on_c, 11, 68, 0
14, 275640, Note_on_c, 11, 72, 68
14, 275744, Note_on_c, 11, 72, 0
14, 275760, Note_on_c, 11, 68, 68
14, 275879, Note_on_c, 11, 68, 0
14, 275880, Note_on_c, 11, 72, 68
14, 275999, Note_on_c, 11, 72, 0
14, 276000, Note_on_c, 11, 68, 68
14, 276119, Note_on_c, 11, 68, 0
14, 276120, Note_on_c, 11, 72, 68
14, 276239, Note_on_c, 11, 72, 0
14, 276240, Note_on_c, 11, 68, 68
14, 276359, Note_on_c, 11, 68, 0
14, 276360, Note_on_c, 11, 72, 68
14, 276464, Note_on_c, 11, 72, 0
14, 276480, Note_on_c, 11, 70, 68
14, 276599, Note_on_c, 11, 70, 0
14, 276600, Note_on_c, 11, 72, 68
14, 276719, Note_on_c, 11, 72, 0
14, 276720, Note_on_c, 11, 67, 68
14, 276839, Note_on_c, 11, 67, 0
14, 276840, Note_on_c, 11, 72, 68
14, 276959, Note_on_c, 11, 72, 0
14, 276960, Note_on_c, 11, 67, 68
14, 277079, Note_on_c, 11, 67, 0
14, 277080, Note_on_c, 11, 72, 68
14, 277184, Note_on_c, 11, 72, 0
14, 277200, Note_on_c, 11, 70, 68
14, 277319, Note_on_c, 11, 70, 0
14, 277320, Note_on_c, 11, 72, 68
14, 277424, Note_on_c, 11, 72, 0
14, 277440, Note_on_c, 11, 72, 68
14, 277529, Note_on_c, 11, 72, 0
14, 277560, Note_on_c, 11, 72, 68
14, 277649, Note_on_c, 11, 72, 0
14, 277680, Note_on_c, 11, 72, 68
14, 277769, Note_on_c, 11, 72, 0
14, 277800, Note_on_c, 11, 72, 68
14, 277889, Note_on_c, 11, 72, 0
14, 277920, Note_on_c, 11, 72, 68
14, 278159, Note_on_c, 11, 72, 0
14, 280560, Control_c, 11, 11, 80
14, 280800, Note_on_c, 11, 70, 76
14, 281024, Note_on_c, 11, 70, 0
14, 281040, Note_on_c, 11, 79, 92
14, 281384, Note_on_c, 11, 79, 0
14, 281400, Note_on_c, 11, 70, 76
14, 281504, Note_on_c, 11, 70, 0
14, 281520, Note_on_c, 11, 69, 76
14, 281699, Note_on_c, 11, 69, 0
14, 281760, Note_on_c, 11, 78, 92
14, 282104, Note_on_c, 11, 78, 0
14, 282120, Note_on_c, 11, 78, 76
14, 282224, Note_on_c, 11, 78, 0
14, 282240, Control_c, 11, 11, 80
14, 282240, Note_on_c, 11, 79, 76
14, 282329, Note_on_c, 11, 79, 0
14, 282360, Note_on_c, 11, 79, 76
14, 282419, Note_on_c, 11, 79, 0
14, 282420, Note_on_c, 11, 81, 76
14, 282430, Control_c, 11, 11, 82
14, 282471, Note_on_c, 11, 81, 0
14, 282480, Note_on_c, 11, 82, 76
14, 282569, Note_on_c, 11, 82, 0
14, 282600, Note_on_c, 11, 79, 76
14, 282620, Control_c, 11, 11, 84
14, 282689, Note_on_c, 11, 79, 0
14, 282720, Note_on_c, 11, 75, 76
14, 282809, Note_on_c, 11, 75, 0
14, 282810, Control_c, 11, 11, 86
14, 282840, Note_on_c, 11, 74, 76
14, 282929, Note_on_c, 11, 74, 0
14, 282960, Note_on_c, 11, 72, 76
14, 283000, Control_c, 11, 11, 88
14, 283049, Note_on_c, 11, 72, 0
14, 283080, Note_on_c, 11, 81, 76
14, 283169, Note_on_c, 11, 81, 0
14, 283190, Control_c, 11, 11, 90
14, 283200, Note_on_c, 11, 70, 76
14, 283289, Note_on_c, 11, 70, 0
14, 283320, Note_on_c, 11, 82, 76
14, 283380, Control_c, 11, 11, 92
14, 283409, Note_on_c, 11, 82, 0
14, 283440, Note_on_c, 11, 82, 76
14, 283529, Note_on_c, 11, 82, 0
14, 283560, Note_on_c, 11, 82, 76
14, 283570, Control_c, 11, 11, 94
14, 283649, Note_on_c, 11, 82, 0
14, 283680, Note_on_c, 11, 82, 76
14, 283760, Control_c, 11, 11, 96
14, 283859, Note_on_c, 11, 82, 0
14, 283920, Note_on_c, 11, 70, 88
14, 283950, Control_c, 11, 11, 98
14, 284140, Control_c, 11, 11, 100
14, 284264, Note_on_c, 11, 70, 0
14, 284280, Note_on_c, 11, 70, 76
14, 284330, Control_c, 11, 11, 102
14, 284384, Note_on_c, 11, 70, 0
14, 284400, Note_on_c, 11, 69, 76
14, 284520, Control_c, 11, 11, 104
14, 284624, Note_on_c, 11, 69, 0
14, 284640, Note_on_c, 11, 81, 88
14, 284710, Control_c, 11, 11, 105
14, 284900, Control_c, 11, 11, 107
14, 284984, Note_on_c, 11, 81, 0
14, 285000, Note_on_c, 11, 81, 76
14, 285090, Control_c, 11, 11, 109
14, 285104, Note_on_c, 11, 81, 0
14, 285120, Note_on_c, 11, 79, 76
14, 285280, Control_c, 11, 11, 111
14, 285299, Note_on_c, 11, 79, 0
14, 285360, Note_on_c, 11, 67, 84
14, 285470, Control_c, 11, 11, 113
14, 285660, Control_c, 11, 11, 115
14, 285704, Note_on_c, 11, 67, 0
14, 285720, Note_on_c, 11, 67, 76
14, 285824, Note_on_c, 11, 67, 0
14, 285840, Note_on_c, 11, 65, 76
14, 285850, Control_c, 11, 11, 117
14, 286019, Note_on_c, 11, 65, 0
14, 286040, Control_c, 11, 11, 119
14, 286080, Note_on_c, 11, 77, 84
14, 286230, Control_c, 11, 11, 121
14, 286420, Control_c, 11, 11, 123
14, 286424, Note_on_c, 11, 77, 0
14, 286440, Note_on_c, 11, 77, 76
14, 286544, Note_on_c, 11, 77, 0
14, 286560, Note_on_c, 11, 77, 76
14, 286610, Control_c, 11, 11, 127
14, 286784, Note_on_c, 11, 77, 0
14, 286800, Note_on_c, 11, 77, 84
14, 287144, Note_on_c, 11, 77, 0
14, 287160, Note_on_c, 11, 65, 84
14, 287264, Note_on_c, 11, 65, 0
14, 287280, Note_on_c, 11, 65, 84
14, 287504, Note_on_c, 11, 65, 0
14, 287520, Note_on_c, 11, 77, 92
14, 287864, Note_on_c, 11, 77, 0
14, 287880, Note_on_c, 11, 65, 84
14, 287984, Note_on_c, 11, 65, 0
14, 288000, Note_on_c, 11, 65, 84
14, 288224, Note_on_c, 11, 65, 0
14, 288240, Note_on_c, 11, 77, 92
14, 288479, Note_on_c, 11, 77, 0
14, 288480, Note_on_c, 11, 71, 84
14, 288704, Note_on_c, 11, 71, 0
14, 288720, Note_on_c, 11, 80, 92
14, 288959, Note_on_c, 11, 80, 0
14, 288960, Note_on_c, 11, 71, 84
14, 289184, Note_on_c, 11, 71, 0
14, 289200, Note_on_c, 11, 83, 92
14, 289664, Note_on_c, 11, 83, 0
14, 289680, Note_on_c, 11, 77, 92
14, 289919, Note_on_c, 11, 77, 0
14, 289920, Note_on_c, 11, 71, 84
14, 290144, Note_on_c, 11, 71, 0
14, 290160, Note_on_c, 11, 80, 92
14, 290399, Note_on_c, 11, 80, 0
14, 290400, Note_on_c, 11, 71, 84
14, 290624, Note_on_c, 11, 71, 0
14, 290640, Note_on_c, 11, 83, 92
14, 290864, Note_on_c, 11, 83, 0
14, 290880, Note_on_c, 11, 64, 84
14, 291104, Note_on_c, 11, 64, 0
14, 291120, Note_on_c, 11, 76, 92
14, 291464, Note_on_c, 11, 76, 0
14, 291480, Note_on_c, 11, 64, 84
14, 291584, Note_on_c, 11, 64, 0
14, 291600, Note_on_c, 11, 64, 84
14, 291824, Note_on_c, 11, 64, 0
14, 291840, Note_on_c, 11, 76, 92
14, 292184, Note_on_c, 11, 76, 0
14, 292200, Note_on_c, 11, 64, 84
14, 292304, Note_on_c, 11, 64, 0
14, 292320, Note_on_c, 11, 64, 84
14, 292544, Note_on_c, 11, 64, 0
14, 292560, Note_on_c, 11, 76, 92
14, 292799, Note_on_c, 11, 76, 0
14, 292800, Note_on_c, 11, 69, 84
14, 293024, Note_on_c, 11, 69, 0
14, 293040, Note_on_c, 11, 81, 92
14, 293279, Note_on_c, 11, 81, 0
14, 293280, Note_on_c, 11, 69, 84
14, 293504, Note_on_c, 11, 69, 0
14, 293520, Note_on_c, 11, 81, 92
14, 293984, Note_on_c, 11, 81, 0
14, 294000, Note_on_c, 11, 76, 92
14, 294239, Note_on_c, 11, 76, 0
14, 294240, Note_on_c, 11, 69, 84
14, 294464, Note_on_c, 11, 69, 0
14, 294480, Note_on_c, 11, 81, 92
14, 294719, Note_on_c, 11, 81, 0
14, 294720, Note_on_c, 11, 69, 84
14, 294944, Note_on_c, 11, 69, 0
14, 294960, Note_on_c, 11, 81, 92
14, 295424, Note_on_c, 11, 81, 0
14, 295440, Note_on_c, 11, 81, 92
14, 295784, Note_on_c, 11, 81, 0
14, 295800, Note_on_c, 11, 69, 84
14, 295904, Note_on_c, 11, 69, 0
14, 295920, Note_on_c, 11, 69, 84
14, 296144, Note_on_c, 11, 69, 0
14, 296160, Note_on_c, 11, 81, 92
14, 296504, Note_on_c, 11, 81, 0
14, 296520, Note_on_c, 11, 69, 84
14, 296624, Note_on_c, 11, 69, 0
14, 296640, Note_on_c, 11, 69, 84
14, 296864, Note_on_c, 11, 69, 0
14, 296880, Note_on_c, 11, 75, 92
14, 297119, Note_on_c, 11, 75, 0
14, 297120, Note_on_c, 11, 69, 84
14, 297344, Note_on_c, 11, 69, 0
14, 297360, Note_on_c, 11, 78, 92
14, 297599, Note_on_c, 11, 78, 0
14, 297600, Note_on_c, 11, 69, 84
14, 297824, Note_on_c, 11, 69, 0
14, 297840, Note_on_c, 11, 81, 92
14, 298304, Note_on_c, 11, 81, 0
14, 298320, Note_on_c, 11, 75, 92
14, 298559, Note_on_c, 11, 75, 0
14, 298560, Note_on_c, 11, 69, 84
14, 298784, Note_on_c, 11, 69, 0
14, 298800, Note_on_c, 11, 78, 92
14, 299039, Note_on_c, 11, 78, 0
14, 299040, Note_on_c, 11, 69, 84
14, 299264, Note_on_c, 11, 69, 0
14, 299280, Note_on_c, 11, 81, 92
14, 299504, Note_on_c, 11, 81, 0
14, 299520, Note_on_c, 11, 67, 84
14, 299744, Note_on_c, 11, 67, 0
14, 299760, Note_on_c, 11, 79, 92
14, 300104, Note_on_c, 11, 79, 0
14, 300120, Note_on_c, 11, 67, 84
14, 300224, Note_on_c, 11, 67, 0
14, 300240, Note_on_c, 11, 67, 84
14, 300464, Note_on_c, 11, 67, 0
14, 300480, Note_on_c, 11, 79, 92
14, 300824, Note_on_c, 11, 79, 0
14, 300840, Note_on_c, 11, 67, 84
14, 300944, Note_on_c, 11, 67, 0
14, 300960, Note_on_c, 11, 67, 84
14, 301184, Note_on_c, 11, 67, 0
14, 301200, Note_on_c, 11, 79, 92
14, 301439, Note_on_c, 11, 79, 0
14, 301440, Note_on_c, 11, 76, 84
14, 301664, Note_on_c, 11, 76, 0
14, 301680, Note_on_c, 11, 85, 92
14, 301919, Note_on_c, 11, 85, 0
14, 301920, Note_on_c, 11, 76, 84
14, 302144, Note_on_c, 11, 76, 0
14, 302160, Note_on_c, 11, 88, 92
14, 302624, Note_on_c, 11, 88, 0
14, 302640, Note_on_c, 11, 79, 92
14, 302879, Note_on_c, 11, 79, 0
14, 302880, Note_on_c, 11, 76, 84
14, 303104, Note_on_c, 11, 76, 0
14, 303120, Note_on_c, 11, 85, 92
14, 303359, Note_on_c, 11, 85, 0
14, 303360, Note_on_c, 11, 76, 84
14, 303584, Note_on_c, 11, 76, 0
14, 303600, Note_on_c, 11, 88, 92
14, 303824, Note_on_c, 11, 88, 0
14, 304080, Note_on_c, 11, 87, 92
14, 304544, Note_on_c, 11, 87, 0
14, 304560, Note_on_c, 11, 87, 92
14, 305024, Note_on_c, 11, 87, 0
14, 305040, Note_on_c, 11, 87, 92
14, 305279, Note_on_c, 11, 87, 0
14, 305520, Note_on_c, 11, 88, 92
14, 305984, Note_on_c, 11, 88, 0
14, 306000, Note_on_c, 11, 88, 92
14, 306464, Note_on_c, 11, 88, 0
14, 306480, Note_on_c, 11, 88, 92
14, 306659, Note_on_c, 11, 88, 0
14, 306960, Note_on_c, 11, 77, 76
14, 306960, Note_on_c, 11, 89, 76
14, 307439, Note_on_c, 11, 77, 0
14, 307439, Note_on_c, 11, 89, 0
14, 307680, Note_on_c, 11, 77, 76
14, 307680, Note_on_c, 11, 89, 76
14, 308159, Note_on_c, 11, 77, 0
14, 308159, Note_on_c, 11, 89, 0
14, 308400, Note_on_c, 11, 77, 76
14, 308400, Note_on_c, 11, 89, 76
14, 308864, Note_on_c, 11, 77, 0
14, 308864, Note_on_c, 11, 89, 0
14, 308880, Note_on_c, 11, 89, 76
14, 308880, Note_on_c, 11, 77, 76
14, 309344, Note_on_c, 11, 89, 0
14, 309344, Note_on_c, 11, 77, 0
14, 309360, Note_on_c, 11, 77, 76
14, 309360, Note_on_c, 11, 89, 76
14, 309539, Note_on_c, 11, 77, 0
14, 309539, Note_on_c, 11, 89, 0
14, 309840, Note_on_c, 11, 63, 76
14, 310019, Note_on_c, 11, 63, 0
14, 310080, Note_on_c, 11, 63, 76
14, 310259, Note_on_c, 11, 63, 0
14, 310320, Note_on_c, 11, 63, 76
14, 310499, Note_on_c, 11, 63, 0
14, 310560, Note_on_c, 11, 63, 72
14, 310739, Note_on_c, 11, 63, 0
14, 310800, Note_on_c, 11, 63, 68
14, 310979, Note_on_c, 11, 63, 0
14, 311040, Note_on_c, 11, 63, 64
14, 311219, Note_on_c, 11, 63, 0
14, 311280, Note_on_c, 11, 63, 60
14, 311459, Note_on_c, 11, 63, 0
14, 311520, Note_on_c, 11, 63, 56
14, 311699, Note_on_c, 11, 63, 0
14, 311760, Note_on_c, 11, 63, 52
14, 311939, Note_on_c, 11, 63, 0
14, 312000, Note_on_c, 11, 63, 52
14, 312179, Note_on_c, 11, 63, 0
14, 312240, Note_on_c, 11, 63, 52
14, 312419, Note_on_c, 11, 63, 0
14, 312480, Note_on_c, 11, 64, 52
14, 312584, Note_on_c, 11, 64, 0
14, 312600, Note_on_c, 11, 71, 52
14, 312824, Note_on_c, 11, 71, 0
14, 312840, Note_on_c, 11, 71, 52
14, 313064, Note_on_c, 11, 71, 0
14, 313080, Note_on_c, 11, 71, 52
14, 313304, Note_on_c, 11, 71, 0
14, 313320, Note_on_c, 11, 71, 52
14, 313544, Note_on_c, 11, 71, 0
14, 313560, Note_on_c, 11, 71, 52
14, 313784, Note_on_c, 11, 71, 0
14, 313800, Note_on_c, 11, 71, 52
14, 314024, Note_on_c, 11, 71, 0
14, 314040, Note_on_c, 11, 83, 52
14, 314264, Note_on_c, 11, 83, 0
14, 314280, Note_on_c, 11, 83, 52
14, 314504, Note_on_c, 11, 83, 0
14, 314520, Note_on_c, 11, 83, 52
14, 314744, Note_on_c, 11, 83, 0
14, 314760, Note_on_c, 11, 83, 52
14, 314984, Note_on_c, 11, 83, 0
14, 315000, Note_on_c, 11, 83, 52
14, 315224, Note_on_c, 11, 83, 0
14, 315240, Note_on_c, 11, 83, 52
14, 315464, Note_on_c, 11, 83, 0
14, 315480, Note_on_c, 11, 71, 52
14, 315704, Note_on_c, 11, 71, 0
14, 315720, Note_on_c, 11, 71, 52
14, 315944, Note_on_c, 11, 71, 0
14, 315960, Note_on_c, 11, 71, 52
14, 316184, Note_on_c, 11, 71, 0
14, 316200, Note_on_c, 11, 71, 52
14, 316424, Note_on_c, 11, 71, 0
14, 316440, Note_on_c, 11, 71, 52
14, 316664, Note_on_c, 11, 71, 0
14, 316680, Note_on_c, 11, 71, 52
14, 316889, Note_on_c, 11, 71, 0
14, 316905, Control_c, 11, 11, 96
14, 316920, Note_on_c, 11, 83, 52
14, 317144, Note_on_c, 11, 83, 0
14, 317160, Note_on_c, 11, 83, 52
14, 317384, Note_on_c, 11, 83, 0
14, 317400, Note_on_c, 11, 83, 52
14, 317520, Control_c, 11, 11, 96
14, 317580, Control_c, 11, 11, 99
14, 317624, Note_on_c, 11, 83, 0
14, 317640, Control_c, 11, 11, 101
14, 317640, Note_on_c, 11, 81, 68
14, 317700, Control_c, 11, 11, 104
14, 317759, Note_on_c, 11, 81, 0
14, 317760, Control_c, 11, 11, 106
14, 317760, Note_on_c, 11, 80, 68
14, 317820, Control_c, 11, 11, 109
14, 317879, Note_on_c, 11, 80, 0
14, 317880, Control_c, 11, 11, 112
14, 317880, Note_on_c, 11, 77, 68
14, 317940, Control_c, 11, 11, 114
14, 317999, Note_on_c, 11, 77, 0
14, 318000, Control_c, 11, 11, 117
14, 318000, Note_on_c, 11, 76, 68
14, 318060, Control_c, 11, 11, 119
14, 318119, Note_on_c, 11, 76, 0
14, 318120, Note_on_c, 11, 74, 68
14, 318120, Control_c, 11, 11, 122
14, 318180, Control_c, 11, 11, 127
14, 318224, Note_on_c, 11, 74, 0
14, 318240, Note_on_c, 11, 72, 52
14, 318464, Note_on_c, 11, 72, 0
14, 318480, Note_on_c, 11, 69, 52
14, 318719, Note_on_c, 11, 69, 0
14, 318720, Note_on_c, 11, 68, 52
14, 318959, Note_on_c, 11, 68, 0
14, 318960, Note_on_c, 11, 69, 68
14, 319319, Note_on_c, 11, 69, 0
14, 319320, Note_on_c, 11, 71, 52
14, 319439, Note_on_c, 11, 71, 0
14, 319440, Note_on_c, 11, 72, 52
14, 319664, Note_on_c, 11, 72, 0
14, 319680, Note_on_c, 11, 71, 52
14, 319919, Note_on_c, 11, 71, 0
14, 319920, Note_on_c, 11, 76, 52
14, 320159, Note_on_c, 11, 76, 0
14, 320160, Note_on_c, 11, 75, 52
14, 320399, Note_on_c, 11, 75, 0
14, 320400, Note_on_c, 11, 76, 68
14, 320759, Note_on_c, 11, 76, 0
14, 320760, Note_on_c, 11, 74, 52
14, 320879, Note_on_c, 11, 74, 0
14, 320880, Note_on_c, 11, 72, 52
14, 320999, Note_on_c, 11, 72, 0
14, 321000, Note_on_c, 11, 71, 52
14, 321104, Note_on_c, 11, 71, 0
14, 321120, Note_on_c, 11, 72, 52
14, 321344, Note_on_c, 11, 72, 0
14, 321360, Note_on_c, 11, 69, 52
14, 321599, Note_on_c, 11, 69, 0
14, 321600, Note_on_c, 11, 68, 52
14, 321839, Note_on_c, 11, 68, 0
14, 321840, Note_on_c, 11, 69, 68
14, 322199, Note_on_c, 11, 69, 0
14, 322200, Note_on_c, 11, 71, 52
14, 322319, Note_on_c, 11, 71, 0
14, 322320, Note_on_c, 11, 72, 52
14, 322544, Note_on_c, 11, 72, 0
14, 322560, Note_on_c, 11, 71, 52
14, 322799, Note_on_c, 11, 71, 0
14, 322800, Note_on_c, 11, 76, 52
14, 323039, Note_on_c, 11, 76, 0
14, 323040, Note_on_c, 11, 75, 52
14, 323279, Note_on_c, 11, 75, 0
14, 323280, Note_on_c, 11, 76, 52
14, 323384, Note_on_c, 11, 76, 0
14, 323400, Note_on_c, 11, 64, 56
14, 323519, Note_on_c, 11, 64, 0
14, 323520, Note_on_c, 11, 67, 60
14, 323639, Note_on_c, 11, 67, 0
14, 323640, Note_on_c, 11, 65, 64
14, 323759, Note_on_c, 11, 65, 0
14, 323760, Note_on_c, 11, 64, 68
14, 323879, Note_on_c, 11, 64, 0
14, 323880, Note_on_c, 11, 62, 72
14, 323984, Note_on_c, 11, 62, 0
14, 324000, Note_on_c, 11, 60, 76
14, 324059, Note_on_c, 11, 60, 0
14, 324060, Note_on_c, 11, 60, 76
14, 324111, Note_on_c, 11, 60, 0
14, 324120, Note_on_c, 11, 60, 76
14, 324171, Note_on_c, 11, 60, 0
14, 324180, Note_on_c, 11, 60, 76
14, 324231, Note_on_c, 11, 60, 0
14, 324240, Note_on_c, 11, 60, 76
14, 324291, Note_on_c, 11, 60, 0
14, 324300, Note_on_c, 11, 60, 76
14, 324351, Note_on_c, 11, 60, 0
14, 324360, Note_on_c, 11, 60, 76
14, 324411, Note_on_c, 11, 60, 0
14, 324420, Note_on_c, 11, 60, 76
14, 324471, Note_on_c, 11, 60, 0
14, 324480, Note_on_c, 11, 64, 76
14, 324531, Note_on_c, 11, 64, 0
14, 324540, Note_on_c, 11, 64, 76
14, 324591, Note_on_c, 11, 64, 0
14, 324600, Note_on_c, 11, 64, 76
14, 324651, Note_on_c, 11, 64, 0
14, 324660, Note_on_c, 11, 64, 76
14, 324711, Note_on_c, 11, 64, 0
14, 324720, Note_on_c, 11, 60, 76
14, 324771, Note_on_c, 11, 60, 0
14, 324780, Note_on_c, 11, 60, 76
14, 324831, Note_on_c, 11, 60, 0
14, 324840, Note_on_c, 11, 60, 76
14, 324891, Note_on_c, 11, 60, 0
14, 324900, Note_on_c, 11, 60, 76
14, 324951, Note_on_c, 11, 60, 0
14, 324960, Note_on_c, 11, 60, 76
14, 325011, Note_on_c, 11, 60, 0
14, 325020, Note_on_c, 11, 60, 76
14, 325071, Note_on_c, 11, 60, 0
14, 325080, Note_on_c, 11, 60, 76
14, 325131, Note_on_c, 11, 60, 0
14, 325140, Note_on_c, 11, 60, 76
14, 325191, Note_on_c, 11, 60, 0
14, 325200, Note_on_c, 11, 55, 76
14, 325251, Note_on_c, 11, 55, 0
14, 325260, Note_on_c, 11, 55, 76
14, 325311, Note_on_c, 11, 55, 0
14, 325320, Note_on_c, 11, 55, 76
14, 325371, Note_on_c, 11, 55, 0
14, 325380, Note_on_c, 11, 55, 76
14, 325431, Note_on_c, 11, 55, 0
14, 325440, Note_on_c, 11, 60, 76
14, 325491, Note_on_c, 11, 60, 0
14, 325500, Note_on_c, 11, 60, 76
14, 325551, Note_on_c, 11, 60, 0
14, 325560, Note_on_c, 11, 60, 76
14, 325611, Note_on_c, 11, 60, 0
14, 325620, Note_on_c, 11, 60, 76
14, 325671, Note_on_c, 11, 60, 0
14, 325680, Note_on_c, 11, 64, 76
14, 325731, Note_on_c, 11, 64, 0
14, 325740, Note_on_c, 11, 64, 76
14, 325791, Note_on_c, 11, 64, 0
14, 325800, Note_on_c, 11, 64, 76
14, 325851, Note_on_c, 11, 64, 0
14, 325860, Note_on_c, 11, 64, 76
14, 325911, Note_on_c, 11, 64, 0
14, 325920, Note_on_c, 11, 67, 76
14, 325971, Note_on_c, 11, 67, 0
14, 325980, Note_on_c, 11, 67, 76
14, 326031, Note_on_c, 11, 67, 0
14, 326040, Note_on_c, 11, 67, 76
14, 326091, Note_on_c, 11, 67, 0
14, 326100, Note_on_c, 11, 67, 76
14, 326151, Note_on_c, 11, 67, 0
14, 326160, Note_on_c, 11, 60, 76
14, 326211, Note_on_c, 11, 60, 0
14, 326220, Note_on_c, 11, 60, 76
14, 326271, Note_on_c, 11, 60, 0
14, 326280, Note_on_c, 11, 60, 76
14, 326331, Note_on_c, 11, 60, 0
14, 326340, Note_on_c, 11, 60, 76
14, 326391, Note_on_c, 11, 60, 0
14, 326400, Note_on_c, 11, 60, 76
14, 326451, Note_on_c, 11, 60, 0
14, 326460, Note_on_c, 11, 60, 76
14, 326511, Note_on_c, 11, 60, 0
14, 326520, Note_on_c, 11, 60, 76
14, 326571, Note_on_c, 11, 60, 0
14, 326580, Note_on_c, 11, 60, 76
14, 326631, Note_on_c, 11, 60, 0
14, 326640, Note_on_c, 11, 55, 76
14, 326691, Note_on_c, 11, 55, 0
14, 326700, Note_on_c, 11, 55, 76
14, 326751, Note_on_c, 11, 55, 0
14, 326760, Note_on_c, 11, 55, 76
14, 326811, Note_on_c, 11, 55, 0
14, 326820, Note_on_c, 11, 55, 76
14, 326871, Note_on_c, 11, 55, 0
14, 326880, Note_on_c, 11, 60, 76
14, 326931, Note_on_c, 11, 60, 0
14, 326940, Note_on_c, 11, 60, 76
14, 326991, Note_on_c, 11, 60, 0
14, 327000, Note_on_c, 11, 60, 76
14, 327051, Note_on_c, 11, 60, 0
14, 327060, Note_on_c, 11, 60, 76
14, 327111, Note_on_c, 11, 60, 0
14, 327120, Note_on_c, 11, 64, 76
14, 327171, Note_on_c, 11, 64, 0
14, 327180, Note_on_c, 11, 64, 76
14, 327231, Note_on_c, 11, 64, 0
14, 327240, Note_on_c, 11, 64, 76
14, 327291, Note_on_c, 11, 64, 0
14, 327300, Note_on_c, 11, 64, 76
14, 327351, Note_on_c, 11, 64, 0
14, 327360, Note_on_c, 11, 67, 76
14, 327411, Note_on_c, 11, 67, 0
14, 327420, Note_on_c, 11, 67, 76
14, 327471, Note_on_c, 11, 67, 0
14, 327480, Note_on_c, 11, 67, 76
14, 327531, Note_on_c, 11, 67, 0
14, 327540, Note_on_c, 11, 67, 76
14, 327591, Note_on_c, 11, 67, 0
14, 327600, Note_on_c, 11, 72, 76
14, 327651, Note_on_c, 11, 72, 0
14, 327660, Note_on_c, 11, 72, 76
14, 327711, Note_on_c, 11, 72, 0
14, 327720, Note_on_c, 11, 72, 76
14, 327771, Note_on_c, 11, 72, 0
14, 327780, Note_on_c, 11, 72, 76
14, 327831, Note_on_c, 11, 72, 0
14, 327840, Note_on_c, 11, 76, 76
14, 327891, Note_on_c, 11, 76, 0
14, 327900, Note_on_c, 11, 76, 76
14, 327951, Note_on_c, 11, 76, 0
14, 327960, Note_on_c, 11, 76, 76
14, 328011, Note_on_c, 11, 76, 0
14, 328020, Note_on_c, 11, 76, 76
14, 328071, Note_on_c, 11, 76, 0
14, 328080, Note_on_c, 11, 79, 84
14, 328131, Note_on_c, 11, 79, 0
14, 328140, Note_on_c, 11, 79, 76
14, 328191, Note_on_c, 11, 79, 0
14, 328200, Note_on_c, 11, 79, 76
14, 328251, Note_on_c, 11, 79, 0
14, 328260, Note_on_c, 11, 79, 76
14, 328311, Note_on_c, 11, 79, 0
14, 328320, Note_on_c, 11, 79, 76
14, 328371, Note_on_c, 11, 79, 0
14, 328380, Note_on_c, 11, 79, 76
14, 328431, Note_on_c, 11, 79, 0
14, 328440, Note_on_c, 11, 77, 76
14, 328491, Note_on_c, 11, 77, 0
14, 328500, Note_on_c, 11, 77, 76
14, 328551, Note_on_c, 11, 77, 0
14, 328560, Note_on_c, 11, 74, 76
14, 328611, Note_on_c, 11, 74, 0
14, 328620, Note_on_c, 11, 74, 76
14, 328671, Note_on_c, 11, 74, 0
14, 328680, Note_on_c, 11, 71, 76
14, 328731, Note_on_c, 11, 71, 0
14, 328740, Note_on_c, 11, 71, 76
14, 328791, Note_on_c, 11, 71, 0
14, 328800, Note_on_c, 11, 67, 76
14, 328851, Note_on_c, 11, 67, 0
14, 328860, Note_on_c, 11, 67, 76
14, 328911, Note_on_c, 11, 67, 0
14, 328920, Note_on_c, 11, 65, 76
14, 328971, Note_on_c, 11, 65, 0
14, 328980, Note_on_c, 11, 65, 76
14, 329031, Note_on_c, 11, 65, 0
14, 329040, Note_on_c, 11, 62, 76
14, 329091, Note_on_c, 11, 62, 0
14, 329100, Note_on_c, 11, 62, 76
14, 329151, Note_on_c, 11, 62, 0
14, 329160, Note_on_c, 11, 65, 76
14, 329211, Note_on_c, 11, 65, 0
14, 329220, Note_on_c, 11, 65, 76
14, 329271, Note_on_c, 11, 65, 0
14, 329280, Note_on_c, 11, 62, 76
14, 329331, Note_on_c, 11, 62, 0
14, 329340, Note_on_c, 11, 62, 76
14, 329391, Note_on_c, 11, 62, 0
14, 329400, Note_on_c, 11, 59, 76
14, 329451, Note_on_c, 11, 59, 0
14, 329460, Note_on_c, 11, 59, 76
14, 329511, Note_on_c, 11, 59, 0
14, 329520, Note_on_c, 11, 55, 76
14, 329571, Note_on_c, 11, 55, 0
14, 329580, Note_on_c, 11, 55, 76
14, 329631, Note_on_c, 11, 55, 0
14, 329640, Note_on_c, 11, 59, 76
14, 329691, Note_on_c, 11, 59, 0
14, 329700, Note_on_c, 11, 59, 76
14, 329751, Note_on_c, 11, 59, 0
14, 329760, Note_on_c, 11, 60, 76
14, 329811, Note_on_c, 11, 60, 0
14, 329820, Note_on_c, 11, 60, 76
14, 329871, Note_on_c, 11, 60, 0
14, 329880, Note_on_c, 11, 60, 76
14, 329931, Note_on_c, 11, 60, 0
14, 329940, Note_on_c, 11, 60, 76
14, 329991, Note_on_c, 11, 60, 0
14, 330000, Note_on_c, 11, 63, 76
14, 330051, Note_on_c, 11, 63, 0
14, 330060, Note_on_c, 11, 63, 76
14, 330111, Note_on_c, 11, 63, 0
14, 330120, Note_on_c, 11, 63, 76
14, 330171, Note_on_c, 11, 63, 0
14, 330180, Note_on_c, 11, 63, 76
14, 330231, Note_on_c, 11, 63, 0
14, 330240, Note_on_c, 11, 67, 76
14, 330291, Note_on_c, 11, 67, 0
14, 330300, Note_on_c, 11, 67, 76
14, 330351, Note_on_c, 11, 67, 0
14, 330360, Note_on_c, 11, 67, 76
14, 330411, Note_on_c, 11, 67, 0
14, 330420, Note_on_c, 11, 67, 76
14, 330471, Note_on_c, 11, 67, 0
14, 330480, Note_on_c, 11, 72, 76
14, 330531, Note_on_c, 11, 72, 0
14, 330540, Note_on_c, 11, 72, 76
14, 330591, Note_on_c, 11, 72, 0
14, 330600, Note_on_c, 11, 72, 76
14, 330651, Note_on_c, 11, 72, 0
14, 330660, Note_on_c, 11, 72, 76
14, 330711, Note_on_c, 11, 72, 0
14, 330720, Note_on_c, 11, 75, 76
14, 330771, Note_on_c, 11, 75, 0
14, 330780, Note_on_c, 11, 75, 76
14, 330831, Note_on_c, 11, 75, 0
14, 330840, Note_on_c, 11, 75, 76
14, 330891, Note_on_c, 11, 75, 0
14, 330900, Note_on_c, 11, 75, 76
14, 330951, Note_on_c, 11, 75, 0
14, 330960, Note_on_c, 11, 79, 84
14, 331011, Note_on_c, 11, 79, 0
14, 331020, Note_on_c, 11, 79, 76
14, 331071, Note_on_c, 11, 79, 0
14, 331080, Note_on_c, 11, 79, 76
14, 331131, Note_on_c, 11, 79, 0
14, 331140, Note_on_c, 11, 79, 76
14, 331191, Note_on_c, 11, 79, 0
14, 331200, Note_on_c, 11, 79, 76
14, 331251, Note_on_c, 11, 79, 0
14, 331260, Note_on_c, 11, 79, 76
14, 331311, Note_on_c, 11, 79, 0
14, 331320, Note_on_c, 11, 77, 76
14, 331371, Note_on_c, 11, 77, 0
14, 331380, Note_on_c, 11, 77, 76
14, 331431, Note_on_c, 11, 77, 0
14, 331440, Note_on_c, 11, 74, 76
14, 331491, Note_on_c, 11, 74, 0
14, 331500, Note_on_c, 11, 74, 76
14, 331551, Note_on_c, 11, 74, 0
14, 331560, Note_on_c, 11, 71, 76
14, 331611, Note_on_c, 11, 71, 0
14, 331620, Note_on_c, 11, 71, 76
14, 331671, Note_on_c, 11, 71, 0
14, 331680, Note_on_c, 11, 67, 76
14, 331731, Note_on_c, 11, 67, 0
14, 331740, Note_on_c, 11, 67, 76
14, 331791, Note_on_c, 11, 67, 0
14, 331800, Note_on_c, 11, 65, 76
14, 331851, Note_on_c, 11, 65, 0
14, 331860, Note_on_c, 11, 65, 76
14, 331911, Note_on_c, 11, 65, 0
14, 331920, Note_on_c, 11, 62, 76
14, 331971, Note_on_c, 11, 62, 0
14, 331980, Note_on_c, 11, 62, 76
14, 332031, Note_on_c, 11, 62, 0
14, 332040, Note_on_c, 11, 65, 76
14, 332091, Note_on_c, 11, 65, 0
14, 332100, Note_on_c, 11, 65, 76
14, 332151, Note_on_c, 11, 65, 0
14, 332160, Note_on_c, 11, 62, 76
14, 332211, Note_on_c, 11, 62, 0
14, 332220, Note_on_c, 11, 62, 76
14, 332271, Note_on_c, 11, 62, 0
14, 332280, Note_on_c, 11, 59, 76
14, 332331, Note_on_c, 11, 59, 0
14, 332340, Note_on_c, 11, 59, 76
14, 332391, Note_on_c, 11, 59, 0
14, 332400, Note_on_c, 11, 55, 76
14, 332451, Note_on_c, 11, 55, 0
14, 332460, Note_on_c, 11, 55, 76
14, 332511, Note_on_c, 11, 55, 0
14, 332520, Note_on_c, 11, 59, 76
14, 332571, Note_on_c, 11, 59, 0
14, 332580, Note_on_c, 11, 59, 76
14, 332631, Note_on_c, 11, 59, 0
14, 332640, Note_on_c, 11, 60, 76
14, 332691, Note_on_c, 11, 60, 0
14, 332700, Note_on_c, 11, 60, 76
14, 332751, Note_on_c, 11, 60, 0
14, 332760, Note_on_c, 11, 60, 76
14, 332811, Note_on_c, 11, 60, 0
14, 332820, Note_on_c, 11, 60, 76
14, 332871, Note_on_c, 11, 60, 0
14, 332880, Note_on_c, 11, 63, 76
14, 332931, Note_on_c, 11, 63, 0
14, 332940, Note_on_c, 11, 63, 76
14, 332991, Note_on_c, 11, 63, 0
14, 333000, Note_on_c, 11, 63, 76
14, 333051, Note_on_c, 11, 63, 0
14, 333060, Note_on_c, 11, 63, 76
14, 333111, Note_on_c, 11, 63, 0
14, 333120, Note_on_c, 11, 67, 76
14, 333171, Note_on_c, 11, 67, 0
14, 333180, Note_on_c, 11, 67, 76
14, 333231, Note_on_c, 11, 67, 0
14, 333240, Note_on_c, 11, 67, 76
14, 333291, Note_on_c, 11, 67, 0
14, 333300, Note_on_c, 11, 67, 76
14, 333351, Note_on_c, 11, 67, 0
14, 333360, Note_on_c, 11, 68, 84
14, 333411, Note_on_c, 11, 68, 0
14, 333420, Note_on_c, 11, 68, 76
14, 333471, Note_on_c, 11, 68, 0
14, 333480, Note_on_c, 11, 68, 76
14, 333531, Note_on_c, 11, 68, 0
14, 333540, Note_on_c, 11, 68, 76
14, 333591, Note_on_c, 11, 68, 0
14, 333600, Note_on_c, 11, 68, 76
14, 333651, Note_on_c, 11, 68, 0
14, 333660, Note_on_c, 11, 68, 76
14, 333711, Note_on_c, 11, 68, 0
14, 333720, Note_on_c, 11, 68, 76
14, 333771, Note_on_c, 11, 68, 0
14, 333780, Note_on_c, 11, 68, 76
14, 333831, Note_on_c, 11, 68, 0
14, 333840, Note_on_c, 11, 60, 76
14, 333891, Note_on_c, 11, 60, 0
14, 333900, Note_on_c, 11, 60, 76
14, 333951, Note_on_c, 11, 60, 0
14, 333960, Note_on_c, 11, 60, 76
14, 334011, Note_on_c, 11, 60, 0
14, 334020, Note_on_c, 11, 60, 76
14, 334071, Note_on_c, 11, 60, 0
14, 334080, Note_on_c, 11, 61, 76
14, 334131, Note_on_c, 11, 61, 0
14, 334140, Note_on_c, 11, 61, 76
14, 334191, Note_on_c, 11, 61, 0
14, 334200, Note_on_c, 11, 61, 76
14, 334251, Note_on_c, 11, 61, 0
14, 334260, Note_on_c, 11, 61, 76
14, 334311, Note_on_c, 11, 61, 0
14, 334320, Note_on_c, 11, 65, 76
14, 334371, Note_on_c, 11, 65, 0
14, 334380, Note_on_c, 11, 65, 76
14, 334431, Note_on_c, 11, 65, 0
14, 334440, Note_on_c, 11, 65, 76
14, 334491, Note_on_c, 11, 65, 0
14, 334500, Note_on_c, 11, 65, 76
14, 334551, Note_on_c, 11, 65, 0
14, 334560, Note_on_c, 11, 69, 76
14, 334611, Note_on_c, 11, 69, 0
14, 334620, Note_on_c, 11, 69, 76
14, 334671, Note_on_c, 11, 69, 0
14, 334680, Note_on_c, 11, 69, 76
14, 334731, Note_on_c, 11, 69, 0
14, 334740, Note_on_c, 11, 69, 76
14, 334791, Note_on_c, 11, 69, 0
14, 334800, Note_on_c, 11, 70, 84
14, 334851, Note_on_c, 11, 70, 0
14, 334860, Note_on_c, 11, 70, 76
14, 334911, Note_on_c, 11, 70, 0
14, 334920, Note_on_c, 11, 70, 76
14, 334971, Note_on_c, 11, 70, 0
14, 334980, Note_on_c, 11, 70, 76
14, 335031, Note_on_c, 11, 70, 0
14, 335040, Note_on_c, 11, 70, 76
14, 335091, Note_on_c, 11, 70, 0
14, 335100, Note_on_c, 11, 70, 76
14, 335151, Note_on_c, 11, 70, 0
14, 335160, Note_on_c, 11, 70, 76
14, 335211, Note_on_c, 11, 70, 0
14, 335220, Note_on_c, 11, 70, 76
14, 335271, Note_on_c, 11, 70, 0
14, 335280, Note_on_c, 11, 62, 76
14, 335331, Note_on_c, 11, 62, 0
14, 335340, Note_on_c, 11, 62, 76
14, 335391, Note_on_c, 11, 62, 0
14, 335400, Note_on_c, 11, 62, 76
14, 335451, Note_on_c, 11, 62, 0
14, 335460, Note_on_c, 11, 62, 76
14, 335511, Note_on_c, 11, 62, 0
14, 335520, Note_on_c, 11, 63, 76
14, 335571, Note_on_c, 11, 63, 0
14, 335580, Note_on_c, 11, 63, 76
14, 335631, Note_on_c, 11, 63, 0
14, 335640, Note_on_c, 11, 63, 76
14, 335691, Note_on_c, 11, 63, 0
14, 335700, Note_on_c, 11, 63, 76
14, 335751, Note_on_c, 11, 63, 0
14, 335760, Note_on_c, 11, 67, 76
14, 335811, Note_on_c, 11, 67, 0
14, 335820, Note_on_c, 11, 67, 76
14, 335871, Note_on_c, 11, 67, 0
14, 335880, Note_on_c, 11, 67, 76
14, 335931, Note_on_c, 11, 67, 0
14, 335940, Note_on_c, 11, 67, 76
14, 335991, Note_on_c, 11, 67, 0
14, 336000, Note_on_c, 11, 70, 76
14, 336051, Note_on_c, 11, 70, 0
14, 336060, Note_on_c, 11, 70, 76
14, 336111, Note_on_c, 11, 70, 0
14, 336120, Note_on_c, 11, 70, 76
14, 336171, Note_on_c, 11, 70, 0
14, 336180, Note_on_c, 11, 70, 76
14, 336231, Note_on_c, 11, 70, 0
14, 336240, Note_on_c, 11, 75, 76
14, 336291, Note_on_c, 11, 75, 0
14, 336300, Note_on_c, 11, 75, 76
14, 336351, Note_on_c, 11, 75, 0
14, 336360, Note_on_c, 11, 75, 76
14, 336411, Note_on_c, 11, 75, 0
14, 336420, Note_on_c, 11, 75, 76
14, 336471, Note_on_c, 11, 75, 0
14, 336480, Note_on_c, 11, 79, 76
14, 336531, Note_on_c, 11, 79, 0
14, 336540, Note_on_c, 11, 79, 76
14, 336591, Note_on_c, 11, 79, 0
14, 336600, Note_on_c, 11, 79, 76
14, 336651, Note_on_c, 11, 79, 0
14, 336660, Note_on_c, 11, 79, 76
14, 336711, Note_on_c, 11, 79, 0
14, 336720, Note_on_c, 11, 82, 76
14, 336771, Note_on_c, 11, 82, 0
14, 336780, Note_on_c, 11, 82, 76
14, 336831, Note_on_c, 11, 82, 0
14, 336840, Note_on_c, 11, 82, 76
14, 336891, Note_on_c, 11, 82, 0
14, 336900, Note_on_c, 11, 82, 76
14, 336951, Note_on_c, 11, 82, 0
14, 336960, Note_on_c, 11, 82, 76
14, 337011, Note_on_c, 11, 82, 0
14, 337020, Note_on_c, 11, 82, 76
14, 337071, Note_on_c, 11, 82, 0
14, 337080, Note_on_c, 11, 80, 76
14, 337131, Note_on_c, 11, 80, 0
14, 337140, Note_on_c, 11, 80, 76
14, 337191, Note_on_c, 11, 80, 0
14, 337200, Note_on_c, 11, 77, 76
14, 337251, Note_on_c, 11, 77, 0
14, 337260, Note_on_c, 11, 77, 76
14, 337311, Note_on_c, 11, 77, 0
14, 337320, Note_on_c, 11, 74, 76
14, 337371, Note_on_c, 11, 74, 0
14, 337380, Note_on_c, 11, 74, 76
14, 337431, Note_on_c, 11, 74, 0
14, 337440, Note_on_c, 11, 70, 76
14, 337491, Note_on_c, 11, 70, 0
14, 337500, Note_on_c, 11, 70, 76
14, 337551, Note_on_c, 11, 70, 0
14, 337560, Note_on_c, 11, 68, 76
14, 337611, Note_on_c, 11, 68, 0
14, 337620, Note_on_c, 11, 68, 76
14, 337671, Note_on_c, 11, 68, 0
14, 337680, Note_on_c, 11, 65, 76
14, 337731, Note_on_c, 11, 65, 0
14, 337740, Note_on_c, 11, 65, 76
14, 337791, Note_on_c, 11, 65, 0
14, 337800, Note_on_c, 11, 68, 76
14, 337851, Note_on_c, 11, 68, 0
14, 337860, Note_on_c, 11, 68, 76
14, 337911, Note_on_c, 11, 68, 0
14, 337920, Note_on_c, 11, 65, 76
14, 337971, Note_on_c, 11, 65, 0
14, 337980, Note_on_c, 11, 65, 76
14, 338031, Note_on_c, 11, 65, 0
14, 338040, Note_on_c, 11, 62, 76
14, 338091, Note_on_c, 11, 62, 0
14, 338100, Note_on_c, 11, 62, 76
14, 338151, Note_on_c, 11, 62, 0
14, 338160, Note_on_c, 11, 58, 76
14, 338211, Note_on_c, 11, 58, 0
14, 338220, Note_on_c, 11, 58, 76
14, 338271, Note_on_c, 11, 58, 0
14, 338280, Note_on_c, 11, 62, 76
14, 338331, Note_on_c, 11, 62, 0
14, 338340, Note_on_c, 11, 62, 76
14, 338391, Note_on_c, 11, 62, 0
14, 338400, Note_on_c, 11, 63, 84
14, 338451, Note_on_c, 11, 63, 0
14, 338460, Note_on_c, 11, 63, 84
14, 338511, Note_on_c, 11, 63, 0
14, 338520, Note_on_c, 11, 63, 84
14, 338571, Note_on_c, 11, 63, 0
14, 338580, Note_on_c, 11, 63, 84
14, 338631, Note_on_c, 11, 63, 0
14, 338640, Note_on_c, 11, 66, 84
14, 338691, Note_on_c, 11, 66, 0
14, 338700, Note_on_c, 11, 66, 84
14, 338751, Note_on_c, 11, 66, 0
14, 338760, Note_on_c, 11, 66, 84
14, 338811, Note_on_c, 11, 66, 0
14, 338820, Note_on_c, 11, 66, 84
14, 338871, Note_on_c, 11, 66, 0
14, 338880, Note_on_c, 11, 70, 84
14, 338931, Note_on_c, 11, 70, 0
14, 338940, Note_on_c, 11, 70, 84
14, 338991, Note_on_c, 11, 70, 0
14, 339000, Note_on_c, 11, 70, 84
14, 339051, Note_on_c, 11, 70, 0
14, 339060, Note_on_c, 11, 70, 84
14, 339111, Note_on_c, 11, 70, 0
14, 339120, Note_on_c, 11, 75, 84
14, 339171, Note_on_c, 11, 75, 0
14, 339180, Note_on_c, 11, 75, 84
14, 339231, Note_on_c, 11, 75, 0
14, 339240, Note_on_c, 11, 75, 84
14, 339291, Note_on_c, 11, 75, 0
14, 339300, Note_on_c, 11, 75, 84
14, 339351, Note_on_c, 11, 75, 0
14, 339360, Note_on_c, 11, 78, 84
14, 339411, Note_on_c, 11, 78, 0
14, 339420, Note_on_c, 11, 78, 84
14, 339471, Note_on_c, 11, 78, 0
14, 339480, Note_on_c, 11, 78, 84
14, 339531, Note_on_c, 11, 78, 0
14, 339540, Note_on_c, 11, 78, 84
14, 339591, Note_on_c, 11, 78, 0
14, 339600, Note_on_c, 11, 82, 84
14, 339651, Note_on_c, 11, 82, 0
14, 339660, Note_on_c, 11, 82, 84
14, 339711, Note_on_c, 11, 82, 0
14, 339720, Note_on_c, 11, 82, 84
14, 339771, Note_on_c, 11, 82, 0
14, 339780, Note_on_c, 11, 82, 84
14, 339831, Note_on_c, 11, 82, 0
14, 339840, Note_on_c, 11, 87, 76
14, 339944, Note_on_c, 11, 87, 0
14, 339960, Note_on_c, 11, 70, 52
14, 340184, Note_on_c, 11, 70, 0
14, 340200, Note_on_c, 11, 70, 52
14, 340424, Note_on_c, 11, 70, 0
14, 340440, Note_on_c, 11, 70, 52
14, 340664, Note_on_c, 11, 70, 0
14, 340680, Note_on_c, 11, 70, 52
14, 340904, Note_on_c, 11, 70, 0
14, 340920, Note_on_c, 11, 70, 52
14, 341144, Note_on_c, 11, 70, 0
14, 341160, Note_on_c, 11, 70, 52
14, 341384, Note_on_c, 11, 70, 0
14, 341400, Note_on_c, 11, 82, 52
14, 341624, Note_on_c, 11, 82, 0
14, 341640, Note_on_c, 11, 82, 52
14, 341864, Note_on_c, 11, 82, 0
14, 341880, Note_on_c, 11, 82, 52
14, 342104, Note_on_c, 11, 82, 0
14, 342120, Note_on_c, 11, 82, 52
14, 342344, Note_on_c, 11, 82, 0
14, 342360, Note_on_c, 11, 82, 52
14, 342584, Note_on_c, 11, 82, 0
14, 342600, Note_on_c, 11, 82, 52
14, 342809, Note_on_c, 11, 82, 0
14, 342825, Control_c, 11, 11, 96
14, 342840, Note_on_c, 11, 70, 68
14, 343064, Note_on_c, 11, 70, 0
14, 343080, Note_on_c, 11, 70, 68
14, 343304, Note_on_c, 11, 70, 0
14, 343320, Note_on_c, 11, 70, 68
14, 343544, Note_on_c, 11, 70, 0
14, 343560, Control_c, 11, 11, 96
14, 343560, Note_on_c, 11, 71, 68
14, 343620, Control_c, 11, 11, 95
14, 343680, Control_c, 11, 11, 93
14, 343740, Control_c, 11, 11, 92
14, 343784, Note_on_c, 11, 71, 0
14, 343800, Note_on_c, 11, 71, 68
14, 343800, Control_c, 11, 11, 91
14, 343860, Control_c, 11, 11, 89
14, 343920, Control_c, 11, 11, 88
14, 343980, Control_c, 11, 11, 87
14, 344024, Note_on_c, 11, 71, 0
14, 344040, Note_on_c, 11, 71, 68
14, 344040, Control_c, 11, 11, 85
14, 344100, Control_c, 11, 11, 84
14, 344160, Control_c, 11, 11, 83
14, 344220, Control_c, 11, 11, 80
14, 344264, Note_on_c, 11, 71, 0
14, 344280, Note_on_c, 11, 68, 68
14, 344280, Control_c, 11, 11, 80
14, 344335, Control_c, 11, 11, 82
14, 344390, Control_c, 11, 11, 84
14, 344445, Control_c, 11, 11, 86
14, 344500, Control_c, 11, 11, 88
14, 344504, Note_on_c, 11, 68, 0
14, 344520, Note_on_c, 11, 68, 68
14, 344555, Control_c, 11, 11, 90
14, 344610, Control_c, 11, 11, 92
14, 344665, Control_c, 11, 11, 94
14, 344720, Control_c, 11, 11, 96
14, 344744, Note_on_c, 11, 68, 0
14, 344760, Note_on_c, 11, 68, 68
14, 344775, Control_c, 11, 11, 98
14, 344830, Control_c, 11, 11, 100
14, 344885, Control_c, 11, 11, 102
14, 344940, Control_c, 11, 11, 104
14, 344984, Note_on_c, 11, 68, 0
14, 344995, Control_c, 11, 11, 105
14, 345000, Note_on_c, 11, 65, 68
14, 345050, Control_c, 11, 11, 107
14, 345105, Control_c, 11, 11, 109
14, 345160, Control_c, 11, 11, 111
14, 345215, Control_c, 11, 11, 113
14, 345224, Note_on_c, 11, 65, 0
14, 345240, Note_on_c, 11, 65, 68
14, 345270, Control_c, 11, 11, 115
14, 345325, Control_c, 11, 11, 117
14, 345380, Control_c, 11, 11, 119
14, 345435, Control_c, 11, 11, 121
14, 345464, Note_on_c, 11, 65, 0
14, 345480, Note_on_c, 11, 65, 68
14, 345490, Control_c, 11, 11, 123
14, 345545, Control_c, 11, 11, 127
14, 345584, Note_on_c, 11, 65, 0
14, 345600, Note_on_c, 11, 66, 52
14, 345824, Note_on_c, 11, 66, 0
14, 345840, Note_on_c, 11, 66, 52
14, 346079, Note_on_c, 11, 66, 0
14, 346080, Note_on_c, 11, 68, 52
14, 346319, Note_on_c, 11, 68, 0
14, 346320, Note_on_c, 11, 70, 52
14, 346679, Note_on_c, 11, 70, 0
14, 346680, Note_on_c, 11, 68, 52
14, 346799, Note_on_c, 11, 68, 0
14, 346800, Note_on_c, 11, 66, 52
14, 347024, Note_on_c, 11, 66, 0
14, 347040, Note_on_c, 11, 65, 52
14, 348464, Note_on_c, 11, 65, 0
14, 348480, Note_on_c, 11, 66, 52
14, 348584, Note_on_c, 11, 66, 0
14, 348600, Note_on_c, 11, 70, 52
14, 348824, Note_on_c, 11, 70, 0
14, 348840, Note_on_c, 11, 70, 52
14, 349064, Note_on_c, 11, 70, 0
14, 349080, Note_on_c, 11, 70, 52
14, 349304, Note_on_c, 11, 70, 0
14, 349320, Note_on_c, 11, 70, 52
14, 349544, Note_on_c, 11, 70, 0
14, 349560, Note_on_c, 11, 70, 52
14, 349784, Note_on_c, 11, 70, 0
14, 349800, Note_on_c, 11, 70, 52
14, 350024, Note_on_c, 11, 70, 0
14, 350040, Note_on_c, 11, 70, 52
14, 350264, Note_on_c, 11, 70, 0
14, 350280, Note_on_c, 11, 70, 52
14, 350504, Note_on_c, 11, 70, 0
14, 350520, Note_on_c, 11, 70, 52
14, 350744, Note_on_c, 11, 70, 0
14, 350760, Note_on_c, 11, 70, 52
14, 350984, Note_on_c, 11, 70, 0
14, 351000, Note_on_c, 11, 70, 52
14, 351224, Note_on_c, 11, 70, 0
14, 351240, Note_on_c, 11, 70, 52
14, 351344, Note_on_c, 11, 70, 0
14, 351360, Note_on_c, 11, 70, 52
14, 351360, Note_on_c, 11, 62, 52
14, 351411, Note_on_c, 11, 70, 0
14, 351411, Note_on_c, 11, 62, 0
14, 351420, Note_on_c, 11, 62, 52
14, 351420, Note_on_c, 11, 70, 52
14, 351471, Note_on_c, 11, 62, 0
14, 351471, Note_on_c, 11, 70, 0
14, 351480, Note_on_c, 11, 62, 52
14, 351480, Note_on_c, 11, 70, 52
14, 351531, Note_on_c, 11, 62, 0
14, 351531, Note_on_c, 11, 70, 0
14, 351540, Note_on_c, 11, 62, 52
14, 351540, Note_on_c, 11, 70, 52
14, 351591, Note_on_c, 11, 62, 0
14, 351591, Note_on_c, 11, 70, 0
14, 351600, Note_on_c, 11, 62, 52
14, 351600, Note_on_c, 11, 70, 52
14, 351651, Note_on_c, 11, 62, 0
14, 351651, Note_on_c, 11, 70, 0
14, 351660, Note_on_c, 11, 62, 52
14, 351660, Note_on_c, 11, 70, 52
14, 351711, Note_on_c, 11, 62, 0
14, 351711, Note_on_c, 11, 70, 0
14, 351720, Note_on_c, 11, 70, 52
14, 351720, Note_on_c, 11, 62, 52
14, 351771, Note_on_c, 11, 70, 0
14, 351771, Note_on_c, 11, 62, 0
14, 351780, Note_on_c, 11, 70, 52
14, 351780, Note_on_c, 11, 62, 52
14, 351831, Note_on_c, 11, 70, 0
14, 351831, Note_on_c, 11, 62, 0
14, 351840, Note_on_c, 11, 70, 52
14, 351840, Note_on_c, 11, 62, 52
14, 351891, Note_on_c, 11, 70, 0
14, 351891, Note_on_c, 11, 62, 0
14, 351900, Note_on_c, 11, 62, 52
14, 351900, Note_on_c, 11, 70, 52
14, 351951, Note_on_c, 11, 62, 0
14, 351951, Note_on_c, 11, 70, 0
14, 351960, Note_on_c, 11, 62, 52
14, 351960, Note_on_c, 11, 70, 52
14, 352011, Note_on_c, 11, 62, 0
14, 352011, Note_on_c, 11, 70, 0
14, 352020, Note_on_c, 11, 70, 52
14, 352020, Note_on_c, 11, 62, 52
14, 352071, Note_on_c, 11, 70, 0
14, 352071, Note_on_c, 11, 62, 0
14, 352080, Note_on_c, 11, 62, 52
14, 352080, Note_on_c, 11, 70, 52
14, 352131, Note_on_c, 11, 62, 0
14, 352131, Note_on_c, 11, 70, 0
14, 352140, Note_on_c, 11, 70, 52
14, 352140, Note_on_c, 11, 62, 52
14, 352191, Note_on_c, 11, 70, 0
14, 352191, Note_on_c, 11, 62, 0
14, 352200, Note_on_c, 11, 70, 52
14, 352200, Note_on_c, 11, 62, 52
14, 352251, Note_on_c, 11, 70, 0
14, 352251, Note_on_c, 11, 62, 0
14, 352260, Note_on_c, 11, 70, 52
14, 352260, Note_on_c, 11, 62, 52
14, 352311, Note_on_c, 11, 70, 0
14, 352311, Note_on_c, 11, 62, 0
14, 352320, Note_on_c, 11, 62, 52
14, 352320, Note_on_c, 11, 70, 52
14, 352371, Note_on_c, 11, 62, 0
14, 352371, Note_on_c, 11, 70, 0
14, 352380, Note_on_c, 11, 70, 52
14, 352380, Note_on_c, 11, 62, 52
14, 352431, Note_on_c, 11, 70, 0
14, 352431, Note_on_c, 11, 62, 0
14, 352440, Note_on_c, 11, 70, 52
14, 352440, Note_on_c, 11, 62, 52
14, 352491, Note_on_c, 11, 70, 0
14, 352491, Note_on_c, 11, 62, 0
14, 352500, Note_on_c, 11, 62, 52
14, 352500, Note_on_c, 11, 70, 52
14, 352551, Note_on_c, 11, 62, 0
14, 352551, Note_on_c, 11, 70, 0
14, 352560, Note_on_c, 11, 70, 52
14, 352560, Note_on_c, 11, 62, 52
14, 352611, Note_on_c, 11, 70, 0
14, 352611, Note_on_c, 11, 62, 0
14, 352620, Note_on_c, 11, 70, 52
14, 352620, Note_on_c, 11, 62, 52
14, 352671, Note_on_c, 11, 70, 0
14, 352671, Note_on_c, 11, 62, 0
14, 352680, Note_on_c, 11, 62, 52
14, 352680, Note_on_c, 11, 70, 52
14, 352731, Note_on_c, 11, 62, 0
14, 352731, Note_on_c, 11, 70, 0
14, 352740, Note_on_c, 11, 62, 52
14, 352740, Note_on_c, 11, 70, 52
14, 352791, Note_on_c, 11, 62, 0
14, 352791, Note_on_c, 11, 70, 0
14, 352800, Note_on_c, 11, 70, 52
14, 352800, Note_on_c, 11, 62, 52
14, 352851, Note_on_c, 11, 70, 0
14, 352851, Note_on_c, 11, 62, 0
14, 352860, Note_on_c, 11, 62, 52
14, 352860, Note_on_c, 11, 70, 52
14, 352911, Note_on_c, 11, 62, 0
14, 352911, Note_on_c, 11, 70, 0
14, 352920, Note_on_c, 11, 70, 52
14, 352920, Note_on_c, 11, 62, 52
14, 352971, Note_on_c, 11, 70, 0
14, 352971, Note_on_c, 11, 62, 0
14, 352980, Note_on_c, 11, 62, 52
14, 352980, Note_on_c, 11, 70, 52
14, 353031, Note_on_c, 11, 62, 0
14, 353031, Note_on_c, 11, 70, 0
14, 353040, Note_on_c, 11, 70, 52
14, 353040, Note_on_c, 11, 62, 52
14, 353091, Note_on_c, 11, 70, 0
14, 353091, Note_on_c, 11, 62, 0
14, 353100, Note_on_c, 11, 62, 52
14, 353100, Note_on_c, 11, 70, 52
14, 353151, Note_on_c, 11, 62, 0
14, 353151, Note_on_c, 11, 70, 0
14, 353160, Note_on_c, 11, 70, 52
14, 353160, Note_on_c, 11, 62, 52
14, 353211, Note_on_c, 11, 70, 0
14, 353211, Note_on_c, 11, 62, 0
14, 353220, Note_on_c, 11, 62, 52
14, 353220, Note_on_c, 11, 70, 52
14, 353271, Note_on_c, 11, 62, 0
14, 353271, Note_on_c, 11, 70, 0
14, 353280, Note_on_c, 11, 62, 52
14, 353280, Note_on_c, 11, 70, 52
14, 353331, Note_on_c, 11, 62, 0
14, 353331, Note_on_c, 11, 70, 0
14, 353340, Note_on_c, 11, 70, 52
14, 353340, Note_on_c, 11, 62, 52
14, 353391, Note_on_c, 11, 70, 0
14, 353391, Note_on_c, 11, 62, 0
14, 353400, Note_on_c, 11, 62, 52
14, 353400, Note_on_c, 11, 70, 52
14, 353451, Note_on_c, 11, 62, 0
14, 353451, Note_on_c, 11, 70, 0
14, 353460, Note_on_c, 11, 70, 52
14, 353460, Note_on_c, 11, 62, 52
14, 353511, Note_on_c, 11, 70, 0
14, 353511, Note_on_c, 11, 62, 0
14, 353520, Note_on_c, 11, 70, 68
14, 353571, Note_on_c, 11, 70, 0
14, 353580, Note_on_c, 11, 70, 52
14, 353631, Note_on_c, 11, 70, 0
14, 353640, Note_on_c, 11, 70, 52
14, 353691, Note_on_c, 11, 70, 0
14, 353700, Note_on_c, 11, 70, 52
14, 353751, Note_on_c, 11, 70, 0
14, 353760, Note_on_c, 11, 74, 52
14, 353811, Note_on_c, 11, 74, 0
14, 353820, Note_on_c, 11, 74, 52
14, 353871, Note_on_c, 11, 74, 0
14, 353880, Note_on_c, 11, 74, 52
14, 353931, Note_on_c, 11, 74, 0
14, 353940, Note_on_c, 11, 74, 52
14, 353991, Note_on_c, 11, 74, 0
14, 354000, Note_on_c, 11, 77, 52
14, 354051, Note_on_c, 11, 77, 0
14, 354060, Note_on_c, 11, 77, 52
14, 354111, Note_on_c, 11, 77, 0
14, 354120, Note_on_c, 11, 77, 52
14, 354171, Note_on_c, 11, 77, 0
14, 354180, Note_on_c, 11, 77, 52
14, 354231, Note_on_c, 11, 77, 0
14, 354240, Note_on_c, 11, 70, 52
14, 354240, Note_on_c, 11, 63, 52
14, 354291, Note_on_c, 11, 70, 0
14, 354291, Note_on_c, 11, 63, 0
14, 354300, Note_on_c, 11, 63, 52
14, 354300, Note_on_c, 11, 70, 52
14, 354351, Note_on_c, 11, 63, 0
14, 354351, Note_on_c, 11, 70, 0
14, 354360, Note_on_c, 11, 63, 52
14, 354360, Note_on_c, 11, 70, 52
14, 354411, Note_on_c, 11, 63, 0
14, 354411, Note_on_c, 11, 70, 0
14, 354420, Note_on_c, 11, 63, 52
14, 354420, Note_on_c, 11, 70, 52
14, 354471, Note_on_c, 11, 63, 0
14, 354471, Note_on_c, 11, 70, 0
14, 354480, Note_on_c, 11, 70, 52
14, 354480, Note_on_c, 11, 63, 52
14, 354531, Note_on_c, 11, 70, 0
14, 354531, Note_on_c, 11, 63, 0
14, 354540, Note_on_c, 11, 70, 52
14, 354540, Note_on_c, 11, 63, 52
14, 354591, Note_on_c, 11, 70, 0
14, 354591, Note_on_c, 11, 63, 0
14, 354600, Note_on_c, 11, 63, 52
14, 354600, Note_on_c, 11, 70, 52
14, 354651, Note_on_c, 11, 63, 0
14, 354651, Note_on_c, 11, 70, 0
14, 354660, Note_on_c, 11, 63, 52
14, 354660, Note_on_c, 11, 70, 52
14, 354711, Note_on_c, 11, 63, 0
14, 354711, Note_on_c, 11, 70, 0
14, 354720, Note_on_c, 11, 70, 52
14, 354720, Note_on_c, 11, 63, 52
14, 354771, Note_on_c, 11, 70, 0
14, 354771, Note_on_c, 11, 63, 0
14, 354780, Note_on_c, 11, 70, 52
14, 354780, Note_on_c, 11, 63, 52
14, 354831, Note_on_c, 11, 70, 0
14, 354831, Note_on_c, 11, 63, 0
14, 354840, Note_on_c, 11, 63, 52
14, 354840, Note_on_c, 11, 70, 52
14, 354891, Note_on_c, 11, 63, 0
14, 354891, Note_on_c, 11, 70, 0
14, 354900, Note_on_c, 11, 70, 52
14, 354900, Note_on_c, 11, 63, 52
14, 354951, Note_on_c, 11, 70, 0
14, 354951, Note_on_c, 11, 63, 0
14, 354960, Note_on_c, 11, 63, 52
14, 354960, Note_on_c, 11, 70, 52
14, 355011, Note_on_c, 11, 63, 0
14, 355011, Note_on_c, 11, 70, 0
14, 355020, Note_on_c, 11, 70, 52
14, 355020, Note_on_c, 11, 63, 52
14, 355071, Note_on_c, 11, 70, 0
14, 355071, Note_on_c, 11, 63, 0
14, 355080, Note_on_c, 11, 63, 52
14, 355080, Note_on_c, 11, 70, 52
14, 355131, Note_on_c, 11, 63, 0
14, 355131, Note_on_c, 11, 70, 0
14, 355140, Note_on_c, 11, 70, 52
14, 355140, Note_on_c, 11, 63, 52
14, 355191, Note_on_c, 11, 70, 0
14, 355191, Note_on_c, 11, 63, 0
14, 355200, Note_on_c, 11, 70, 52
14, 355200, Note_on_c, 11, 63, 52
14, 355251, Note_on_c, 11, 70, 0
14, 355251, Note_on_c, 11, 63, 0
14, 355260, Note_on_c, 11, 70, 52
14, 355260, Note_on_c, 11, 63, 52
14, 355311, Note_on_c, 11, 70, 0
14, 355311, Note_on_c, 11, 63, 0
14, 355320, Note_on_c, 11, 63, 52
14, 355320, Note_on_c, 11, 70, 52
14, 355371, Note_on_c, 11, 63, 0
14, 355371, Note_on_c, 11, 70, 0
14, 355380, Note_on_c, 11, 63, 52
14, 355380, Note_on_c, 11, 70, 52
14, 355431, Note_on_c, 11, 63, 0
14, 355431, Note_on_c, 11, 70, 0
14, 355440, Note_on_c, 11, 63, 52
14, 355440, Note_on_c, 11, 70, 52
14, 355491, Note_on_c, 11, 63, 0
14, 355491, Note_on_c, 11, 70, 0
14, 355500, Note_on_c, 11, 63, 52
14, 355500, Note_on_c, 11, 70, 52
14, 355551, Note_on_c, 11, 63, 0
14, 355551, Note_on_c, 11, 70, 0
14, 355560, Note_on_c, 11, 70, 52
14, 355560, Note_on_c, 11, 63, 52
14, 355611, Note_on_c, 11, 70, 0
14, 355611, Note_on_c, 11, 63, 0
14, 355620, Note_on_c, 11, 70, 52
14, 355620, Note_on_c, 11, 63, 52
14, 355671, Note_on_c, 11, 70, 0
14, 355671, Note_on_c, 11, 63, 0
14, 355680, Note_on_c, 11, 70, 52
14, 355680, Note_on_c, 11, 63, 52
14, 355731, Note_on_c, 11, 70, 0
14, 355731, Note_on_c, 11, 63, 0
14, 355740, Note_on_c, 11, 70, 52
14, 355740, Note_on_c, 11, 63, 52
14, 355791, Note_on_c, 11, 70, 0
14, 355791, Note_on_c, 11, 63, 0
14, 355800, Note_on_c, 11, 70, 52
14, 355800, Note_on_c, 11, 63, 52
14, 355851, Note_on_c, 11, 70, 0
14, 355851, Note_on_c, 11, 63, 0
14, 355860, Note_on_c, 11, 70, 52
14, 355860, Note_on_c, 11, 63, 52
14, 355911, Note_on_c, 11, 70, 0
14, 355911, Note_on_c, 11, 63, 0
14, 355920, Note_on_c, 11, 63, 52
14, 355920, Note_on_c, 11, 70, 52
14, 355971, Note_on_c, 11, 63, 0
14, 355971, Note_on_c, 11, 70, 0
14, 355980, Note_on_c, 11, 70, 52
14, 355980, Note_on_c, 11, 63, 52
14, 356031, Note_on_c, 11, 70, 0
14, 356031, Note_on_c, 11, 63, 0
14, 356040, Note_on_c, 11, 70, 52
14, 356040, Note_on_c, 11, 63, 52
14, 356091, Note_on_c, 11, 70, 0
14, 356091, Note_on_c, 11, 63, 0
14, 356100, Note_on_c, 11, 63, 52
14, 356100, Note_on_c, 11, 70, 52
14, 356151, Note_on_c, 11, 63, 0
14, 356151, Note_on_c, 11, 70, 0
14, 356160, Note_on_c, 11, 70, 52
14, 356160, Note_on_c, 11, 63, 52
14, 356211, Note_on_c, 11, 70, 0
14, 356211, Note_on_c, 11, 63, 0
14, 356220, Note_on_c, 11, 70, 52
14, 356220, Note_on_c, 11, 63, 52
14, 356271, Note_on_c, 11, 70, 0
14, 356271, Note_on_c, 11, 63, 0
14, 356280, Note_on_c, 11, 70, 52
14, 356280, Note_on_c, 11, 63, 52
14, 356331, Note_on_c, 11, 70, 0
14, 356331, Note_on_c, 11, 63, 0
14, 356340, Note_on_c, 11, 70, 52
14, 356340, Note_on_c, 11, 63, 52
14, 356391, Note_on_c, 11, 70, 0
14, 356391, Note_on_c, 11, 63, 0
14, 356400, Note_on_c, 11, 70, 68
14, 356451, Note_on_c, 11, 70, 0
14, 356460, Note_on_c, 11, 70, 52
14, 356511, Note_on_c, 11, 70, 0
14, 356520, Note_on_c, 11, 70, 52
14, 356571, Note_on_c, 11, 70, 0
14, 356580, Note_on_c, 11, 70, 52
14, 356631, Note_on_c, 11, 70, 0
14, 356640, Note_on_c, 11, 75, 52
14, 356691, Note_on_c, 11, 75, 0
14, 356700, Note_on_c, 11, 75, 52
14, 356751, Note_on_c, 11, 75, 0
14, 356760, Note_on_c, 11, 75, 52
14, 356811, Note_on_c, 11, 75, 0
14, 356820, Note_on_c, 11, 75, 52
14, 356871, Note_on_c, 11, 75, 0
14, 356880, Note_on_c, 11, 78, 52
14, 356931, Note_on_c, 11, 78, 0
14, 356940, Note_on_c, 11, 78, 52
14, 356991, Note_on_c, 11, 78, 0
14, 357000, Note_on_c, 11, 78, 52
14, 357051, Note_on_c, 11, 78, 0
14, 357060, Note_on_c, 11, 78, 52
14, 357111, Note_on_c, 11, 78, 0
14, 357120, Note_on_c, 11, 68, 52
14, 357171, Note_on_c, 11, 68, 0
14, 357180, Note_on_c, 11, 68, 52
14, 357231, Note_on_c, 11, 68, 0
14, 357240, Note_on_c, 11, 68, 52
14, 357291, Note_on_c, 11, 68, 0
14, 357300, Note_on_c, 11, 68, 52
14, 357351, Note_on_c, 11, 68, 0
14, 357360, Note_on_c, 11, 68, 52
14, 357411, Note_on_c, 11, 68, 0
14, 357420, Note_on_c, 11, 68, 52
14, 357471, Note_on_c, 11, 68, 0
14, 357480, Note_on_c, 11, 68, 52
14, 357531, Note_on_c, 11, 68, 0
14, 357540, Note_on_c, 11, 68, 52
14, 357591, Note_on_c, 11, 68, 0
14, 357600, Note_on_c, 11, 68, 52
14, 357651, Note_on_c, 11, 68, 0
14, 357660, Note_on_c, 11, 68, 52
14, 357711, Note_on_c, 11, 68, 0
14, 357720, Note_on_c, 11, 68, 52
14, 357771, Note_on_c, 11, 68, 0
14, 357780, Note_on_c, 11, 68, 52
14, 357831, Note_on_c, 11, 68, 0
14, 357840, Note_on_c, 11, 68, 52
14, 357891, Note_on_c, 11, 68, 0
14, 357900, Note_on_c, 11, 68, 52
14, 357951, Note_on_c, 11, 68, 0
14, 357960, Note_on_c, 11, 68, 52
14, 358011, Note_on_c, 11, 68, 0
14, 358020, Note_on_c, 11, 68, 52
14, 358071, Note_on_c, 11, 68, 0
14, 358080, Note_on_c, 11, 68, 52
14, 358131, Note_on_c, 11, 68, 0
14, 358140, Note_on_c, 11, 68, 52
14, 358191, Note_on_c, 11, 68, 0
14, 358200, Note_on_c, 11, 68, 52
14, 358251, Note_on_c, 11, 68, 0
14, 358260, Note_on_c, 11, 68, 52
14, 358311, Note_on_c, 11, 68, 0
14, 358320, Note_on_c, 11, 68, 52
14, 358371, Note_on_c, 11, 68, 0
14, 358380, Note_on_c, 11, 68, 52
14, 358431, Note_on_c, 11, 68, 0
14, 358440, Note_on_c, 11, 68, 52
14, 358491, Note_on_c, 11, 68, 0
14, 358500, Note_on_c, 11, 68, 52
14, 358551, Note_on_c, 11, 68, 0
14, 358560, Note_on_c, 11, 68, 52
14, 358611, Note_on_c, 11, 68, 0
14, 358620, Note_on_c, 11, 68, 52
14, 358671, Note_on_c, 11, 68, 0
14, 358680, Note_on_c, 11, 68, 52
14, 358731, Note_on_c, 11, 68, 0
14, 358740, Note_on_c, 11, 68, 52
14, 358791, Note_on_c, 11, 68, 0
14, 358800, Note_on_c, 11, 68, 52
14, 358851, Note_on_c, 11, 68, 0
14, 358860, Note_on_c, 11, 68, 52
14, 358911, Note_on_c, 11, 68, 0
14, 358920, Note_on_c, 11, 68, 52
14, 358971, Note_on_c, 11, 68, 0
14, 358980, Note_on_c, 11, 68, 52
14, 359031, Note_on_c, 11, 68, 0
14, 359040, Note_on_c, 11, 68, 52
14, 359091, Note_on_c, 11, 68, 0
14, 359100, Note_on_c, 11, 68, 52
14, 359151, Note_on_c, 11, 68, 0
14, 359160, Note_on_c, 11, 68, 52
14, 359211, Note_on_c, 11, 68, 0
14, 359220, Note_on_c, 11, 68, 52
14, 359271, Note_on_c, 11, 68, 0
14, 359280, Note_on_c, 11, 68, 68
14, 359331, Note_on_c, 11, 68, 0
14, 359340, Note_on_c, 11, 68, 52
14, 359391, Note_on_c, 11, 68, 0
14, 359400, Note_on_c, 11, 68, 52
14, 359451, Note_on_c, 11, 68, 0
14, 359460, Note_on_c, 11, 68, 52
14, 359511, Note_on_c, 11, 68, 0
14, 359520, Note_on_c, 11, 75, 52
14, 359571, Note_on_c, 11, 75, 0
14, 359580, Note_on_c, 11, 75, 52
14, 359631, Note_on_c, 11, 75, 0
14, 359640, Note_on_c, 11, 75, 52
14, 359691, Note_on_c, 11, 75, 0
14, 359700, Note_on_c, 11, 75, 52
14, 359751, Note_on_c, 11, 75, 0
14, 359760, Note_on_c, 11, 78, 52
14, 359811, Note_on_c, 11, 78, 0
14, 359820, Note_on_c, 11, 78, 52
14, 359871, Note_on_c, 11, 78, 0
14, 359880, Note_on_c, 11, 78, 52
14, 359931, Note_on_c, 11, 78, 0
14, 359940, Note_on_c, 11, 78, 52
14, 359991, Note_on_c, 11, 78, 0
14, 360000, Note_on_c, 11, 68, 52
14, 360051, Note_on_c, 11, 68, 0
14, 360060, Note_on_c, 11, 68, 52
14, 360111, Note_on_c, 11, 68, 0
14, 360120, Note_on_c, 11, 68, 52
14, 360171, Note_on_c, 11, 68, 0
14, 360180, Note_on_c, 11, 68, 52
14, 360231, Note_on_c, 11, 68, 0
14, 360240, Note_on_c, 11, 68, 52
14, 360291, Note_on_c, 11, 68, 0
14, 360300, Note_on_c, 11, 68, 52
14, 360351, Note_on_c, 11, 68, 0
14, 360360, Note_on_c, 11, 68, 52
14, 360411, Note_on_c, 11, 68, 0
14, 360420, Note_on_c, 11, 68, 52
14, 360471, Note_on_c, 11, 68, 0
14, 360480, Note_on_c, 11, 68, 52
14, 360531, Note_on_c, 11, 68, 0
14, 360540, Note_on_c, 11, 68, 52
14, 360591, Note_on_c, 11, 68, 0
14, 360600, Note_on_c, 11, 68, 52
14, 360651, Note_on_c, 11, 68, 0
14, 360660, Note_on_c, 11, 68, 52
14, 360711, Note_on_c, 11, 68, 0
14, 360720, Note_on_c, 11, 68, 52
14, 360771, Note_on_c, 11, 68, 0
14, 360780, Note_on_c, 11, 68, 52
14, 360831, Note_on_c, 11, 68, 0
14, 360840, Note_on_c, 11, 68, 52
14, 360891, Note_on_c, 11, 68, 0
14, 360900, Note_on_c, 11, 68, 52
14, 360951, Note_on_c, 11, 68, 0
14, 360960, Note_on_c, 11, 68, 52
14, 361011, Note_on_c, 11, 68, 0
14, 361020, Note_on_c, 11, 68, 52
14, 361071, Note_on_c, 11, 68, 0
14, 361080, Note_on_c, 11, 68, 52
14, 361131, Note_on_c, 11, 68, 0
14, 361140, Note_on_c, 11, 68, 52
14, 361191, Note_on_c, 11, 68, 0
14, 361200, Note_on_c, 11, 68, 52
14, 361251, Note_on_c, 11, 68, 0
14, 361260, Note_on_c, 11, 68, 52
14, 361311, Note_on_c, 11, 68, 0
14, 361320, Note_on_c, 11, 68, 52
14, 361371, Note_on_c, 11, 68, 0
14, 361380, Note_on_c, 11, 68, 52
14, 361431, Note_on_c, 11, 68, 0
14, 361440, Note_on_c, 11, 68, 52
14, 361491, Note_on_c, 11, 68, 0
14, 361500, Note_on_c, 11, 68, 52
14, 361551, Note_on_c, 11, 68, 0
14, 361560, Note_on_c, 11, 68, 52
14, 361611, Note_on_c, 11, 68, 0
14, 361620, Note_on_c, 11, 68, 52
14, 361671, Note_on_c, 11, 68, 0
14, 361680, Note_on_c, 11, 68, 52
14, 361731, Note_on_c, 11, 68, 0
14, 361740, Note_on_c, 11, 68, 52
14, 361791, Note_on_c, 11, 68, 0
14, 361800, Note_on_c, 11, 68, 52
14, 361851, Note_on_c, 11, 68, 0
14, 361860, Note_on_c, 11, 68, 52
14, 361911, Note_on_c, 11, 68, 0
14, 361920, Note_on_c, 11, 68, 52
14, 361971, Note_on_c, 11, 68, 0
14, 361980, Note_on_c, 11, 68, 52
14, 362031, Note_on_c, 11, 68, 0
14, 362040, Note_on_c, 11, 68, 52
14, 362091, Note_on_c, 11, 68, 0
14, 362100, Note_on_c, 11, 68, 52
14, 362151, Note_on_c, 11, 68, 0
14, 362160, Note_on_c, 11, 73, 68
14, 362211, Note_on_c, 11, 73, 0
14, 362220, Note_on_c, 11, 73, 52
14, 362271, Note_on_c, 11, 73, 0
14, 362280, Note_on_c, 11, 73, 52
14, 362331, Note_on_c, 11, 73, 0
14, 362340, Note_on_c, 11, 73, 52
14, 362391, Note_on_c, 11, 73, 0
14, 362400, Note_on_c, 11, 77, 52
14, 362451, Note_on_c, 11, 77, 0
14, 362460, Note_on_c, 11, 77, 52
14, 362511, Note_on_c, 11, 77, 0
14, 362520, Note_on_c, 11, 77, 52
14, 362571, Note_on_c, 11, 77, 0
14, 362580, Note_on_c, 11, 77, 52
14, 362631, Note_on_c, 11, 77, 0
14, 362640, Note_on_c, 11, 80, 52
14, 362691, Note_on_c, 11, 80, 0
14, 362700, Note_on_c, 11, 80, 52
14, 362751, Note_on_c, 11, 80, 0
14, 362760, Note_on_c, 11, 80, 52
14, 362811, Note_on_c, 11, 80, 0
14, 362820, Note_on_c, 11, 80, 52
14, 362871, Note_on_c, 11, 80, 0
14, 362880, Note_on_c, 11, 70, 52
14, 362931, Note_on_c, 11, 70, 0
14, 362940, Note_on_c, 11, 70, 52
14, 362991, Note_on_c, 11, 70, 0
14, 363000, Note_on_c, 11, 70, 52
14, 363051, Note_on_c, 11, 70, 0
14, 363060, Note_on_c, 11, 70, 53
14, 363111, Note_on_c, 11, 70, 0
14, 363120, Note_on_c, 11, 70, 53
14, 363171, Note_on_c, 11, 70, 0
14, 363180, Note_on_c, 11, 70, 53
14, 363231, Note_on_c, 11, 70, 0
14, 363240, Note_on_c, 11, 70, 54
14, 363291, Note_on_c, 11, 70, 0
14, 363300, Note_on_c, 11, 70, 54
14, 363351, Note_on_c, 11, 70, 0
14, 363360, Note_on_c, 11, 70, 54
14, 363411, Note_on_c, 11, 70, 0
14, 363420, Note_on_c, 11, 70, 55
14, 363471, Note_on_c, 11, 70, 0
14, 363480, Note_on_c, 11, 70, 55
14, 363531, Note_on_c, 11, 70, 0
14, 363540, Note_on_c, 11, 70, 55
14, 363591, Note_on_c, 11, 70, 0
14, 363600, Note_on_c, 11, 70, 56
14, 363651, Note_on_c, 11, 70, 0
14, 363660, Note_on_c, 11, 70, 56
14, 363711, Note_on_c, 11, 70, 0
14, 363720, Note_on_c, 11, 70, 56
14, 363771, Note_on_c, 11, 70, 0
14, 363780, Note_on_c, 11, 70, 57
14, 363831, Note_on_c, 11, 70, 0
14, 363840, Note_on_c, 11, 70, 57
14, 363891, Note_on_c, 11, 70, 0
14, 363900, Note_on_c, 11, 70, 57
14, 363951, Note_on_c, 11, 70, 0
14, 363960, Note_on_c, 11, 70, 58
14, 364011, Note_on_c, 11, 70, 0
14, 364020, Note_on_c, 11, 70, 58
14, 364071, Note_on_c, 11, 70, 0
14, 364080, Note_on_c, 11, 70, 58
14, 364131, Note_on_c, 11, 70, 0
14, 364140, Note_on_c, 11, 70, 59
14, 364191, Note_on_c, 11, 70, 0
14, 364200, Note_on_c, 11, 70, 59
14, 364251, Note_on_c, 11, 70, 0
14, 364260, Note_on_c, 11, 70, 59
14, 364311, Note_on_c, 11, 70, 0
14, 364320, Note_on_c, 11, 70, 60
14, 364371, Note_on_c, 11, 70, 0
14, 364380, Note_on_c, 11, 70, 60
14, 364431, Note_on_c, 11, 70, 0
14, 364440, Note_on_c, 11, 70, 60
14, 364491, Note_on_c, 11, 70, 0
14, 364500, Note_on_c, 11, 70, 61
14, 364551, Note_on_c, 11, 70, 0
14, 364560, Note_on_c, 11, 70, 61
14, 364611, Note_on_c, 11, 70, 0
14, 364620, Note_on_c, 11, 70, 61
14, 364671, Note_on_c, 11, 70, 0
14, 364680, Note_on_c, 11, 70, 62
14, 364731, Note_on_c, 11, 70, 0
14, 364740, Note_on_c, 11, 70, 62
14, 364791, Note_on_c, 11, 70, 0
14, 364800, Note_on_c, 11, 70, 62
14, 364851, Note_on_c, 11, 70, 0
14, 364860, Note_on_c, 11, 70, 63
14, 364911, Note_on_c, 11, 70, 0
14, 364920, Note_on_c, 11, 70, 63
14, 364971, Note_on_c, 11, 70, 0
14, 364980, Note_on_c, 11, 70, 63
14, 365031, Note_on_c, 11, 70, 0
14, 365040, Note_on_c, 11, 77, 80
14, 365091, Note_on_c, 11, 77, 0
14, 365100, Note_on_c, 11, 77, 64
14, 365151, Note_on_c, 11, 77, 0
14, 365160, Note_on_c, 11, 77, 64
14, 365211, Note_on_c, 11, 77, 0
14, 365220, Note_on_c, 11, 77, 65
14, 365271, Note_on_c, 11, 77, 0
14, 365280, Note_on_c, 11, 80, 65
14, 365331, Note_on_c, 11, 80, 0
14, 365340, Note_on_c, 11, 80, 65
14, 365391, Note_on_c, 11, 80, 0
14, 365400, Note_on_c, 11, 80, 66
14, 365451, Note_on_c, 11, 80, 0
14, 365460, Note_on_c, 11, 80, 66
14, 365511, Note_on_c, 11, 80, 0
14, 365520, Note_on_c, 11, 82, 66
14, 365571, Note_on_c, 11, 82, 0
14, 365580, Note_on_c, 11, 82, 67
14, 365631, Note_on_c, 11, 82, 0
14, 365640, Note_on_c, 11, 82, 67
14, 365691, Note_on_c, 11, 82, 0
14, 365700, Note_on_c, 11, 82, 67
14, 365751, Note_on_c, 11, 82, 0
14, 365760, Note_on_c, 11, 63, 68
14, 365760, Note_on_c, 11, 70, 68
14, 365811, Note_on_c, 11, 63, 0
14, 365811, Note_on_c, 11, 70, 0
14, 365820, Note_on_c, 11, 63, 68
14, 365820, Note_on_c, 11, 70, 68
14, 365871, Note_on_c, 11, 63, 0
14, 365871, Note_on_c, 11, 70, 0
14, 365880, Note_on_c, 11, 70, 68
14, 365880, Note_on_c, 11, 63, 68
14, 365931, Note_on_c, 11, 70, 0
14, 365931, Note_on_c, 11, 63, 0
14, 365940, Note_on_c, 11, 70, 69
14, 365940, Note_on_c, 11, 63, 69
14, 365991, Note_on_c, 11, 70, 0
14, 365991, Note_on_c, 11, 63, 0
14, 366000, Note_on_c, 11, 70, 69
14, 366000, Note_on_c, 11, 63, 69
14, 366051, Note_on_c, 11, 70, 0
14, 366051, Note_on_c, 11, 63, 0
14, 366060, Note_on_c, 11, 63, 69
14, 366060, Note_on_c, 11, 70, 69
14, 366111, Note_on_c, 11, 63, 0
14, 366111, Note_on_c, 11, 70, 0
14, 366120, Note_on_c, 11, 70, 70
14, 366120, Note_on_c, 11, 63, 70
14, 366171, Note_on_c, 11, 70, 0
14, 366171, Note_on_c, 11, 63, 0
14, 366180, Note_on_c, 11, 63, 70
14, 366180, Note_on_c, 11, 70, 70
14, 366231, Note_on_c, 11, 63, 0
14, 366231, Note_on_c, 11, 70, 0
14, 366240, Note_on_c, 11, 63, 70
14, 366240, Note_on_c, 11, 70, 70
14, 366291, Note_on_c, 11, 63, 0
14, 366291, Note_on_c, 11, 70, 0
14, 366300, Note_on_c, 11, 63, 71
14, 366300, Note_on_c, 11, 70, 71
14, 366351, Note_on_c, 11, 63, 0
14, 366351, Note_on_c, 11, 70, 0
14, 366360, Note_on_c, 11, 63, 71
14, 366360, Note_on_c, 11, 70, 71
14, 366411, Note_on_c, 11, 63, 0
14, 366411, Note_on_c, 11, 70, 0
14, 366420, Note_on_c, 11, 70, 71
14, 366420, Note_on_c, 11, 63, 71
14, 366471, Note_on_c, 11, 70, 0
14, 366471, Note_on_c, 11, 63, 0
14, 366480, Note_on_c, 11, 70, 72
14, 366480, Note_on_c, 11, 63, 72
14, 366531, Note_on_c, 11, 70, 0
14, 366531, Note_on_c, 11, 63, 0
14, 366540, Note_on_c, 11, 63, 72
14, 366540, Note_on_c, 11, 70, 72
14, 366591, Note_on_c, 11, 63, 0
14, 366591, Note_on_c, 11, 70, 0
14, 366600, Note_on_c, 11, 70, 72
14, 366600, Note_on_c, 11, 63, 72
14, 366651, Note_on_c, 11, 70, 0
14, 366651, Note_on_c, 11, 63, 0
14, 366660, Note_on_c, 11, 63, 73
14, 366660, Note_on_c, 11, 70, 73
14, 366711, Note_on_c, 11, 63, 0
14, 366711, Note_on_c, 11, 70, 0
14, 366720, Note_on_c, 11, 70, 73
14, 366720, Note_on_c, 11, 63, 73
14, 366771, Note_on_c, 11, 70, 0
14, 366771, Note_on_c, 11, 63, 0
14, 366780, Note_on_c, 11, 70, 73
14, 366780, Note_on_c, 11, 63, 73
14, 366831, Note_on_c, 11, 70, 0
14, 366831, Note_on_c, 11, 63, 0
14, 366840, Note_on_c, 11, 63, 74
14, 366840, Note_on_c, 11, 70, 74
14, 366891, Note_on_c, 11, 63, 0
14, 366891, Note_on_c, 11, 70, 0
14, 366900, Note_on_c, 11, 70, 74
14, 366900, Note_on_c, 11, 63, 74
14, 366951, Note_on_c, 11, 70, 0
14, 366951, Note_on_c, 11, 63, 0
14, 366960, Note_on_c, 11, 63, 74
14, 366960, Note_on_c, 11, 70, 74
14, 367011, Note_on_c, 11, 63, 0
14, 367011, Note_on_c, 11, 70, 0
14, 367020, Note_on_c, 11, 63, 75
14, 367020, Note_on_c, 11, 70, 75
14, 367071, Note_on_c, 11, 63, 0
14, 367071, Note_on_c, 11, 70, 0
14, 367080, Note_on_c, 11, 63, 75
14, 367080, Note_on_c, 11, 70, 75
14, 367131, Note_on_c, 11, 63, 0
14, 367131, Note_on_c, 11, 70, 0
14, 367140, Note_on_c, 11, 63, 75
14, 367140, Note_on_c, 11, 70, 75
14, 367191, Note_on_c, 11, 63, 0
14, 367191, Note_on_c, 11, 70, 0
14, 367200, Note_on_c, 11, 63, 76
14, 367200, Note_on_c, 11, 70, 76
14, 367251, Note_on_c, 11, 63, 0
14, 367251, Note_on_c, 11, 70, 0
14, 367260, Note_on_c, 11, 63, 76
14, 367260, Note_on_c, 11, 70, 76
14, 367311, Note_on_c, 11, 63, 0
14, 367311, Note_on_c, 11, 70, 0
14, 367320, Note_on_c, 11, 70, 76
14, 367320, Note_on_c, 11, 63, 76
14, 367371, Note_on_c, 11, 70, 0
14, 367371, Note_on_c, 11, 63, 0
14, 367380, Note_on_c, 11, 70, 77
14, 367380, Note_on_c, 11, 63, 77
14, 367431, Note_on_c, 11, 70, 0
14, 367431, Note_on_c, 11, 63, 0
14, 367440, Note_on_c, 11, 63, 77
14, 367440, Note_on_c, 11, 70, 77
14, 367491, Note_on_c, 11, 63, 0
14, 367491, Note_on_c, 11, 70, 0
14, 367500, Note_on_c, 11, 70, 77
14, 367500, Note_on_c, 11, 63, 77
14, 367551, Note_on_c, 11, 70, 0
14, 367551, Note_on_c, 11, 63, 0
14, 367560, Note_on_c, 11, 70, 78
14, 367560, Note_on_c, 11, 63, 78
14, 367611, Note_on_c, 11, 70, 0
14, 367611, Note_on_c, 11, 63, 0
14, 367620, Note_on_c, 11, 70, 78
14, 367620, Note_on_c, 11, 63, 78
14, 367671, Note_on_c, 11, 70, 0
14, 367671, Note_on_c, 11, 63, 0
14, 367680, Note_on_c, 11, 70, 78
14, 367680, Note_on_c, 11, 63, 78
14, 367731, Note_on_c, 11, 70, 0
14, 367731, Note_on_c, 11, 63, 0
14, 367740, Note_on_c, 11, 70, 79
14, 367740, Note_on_c, 11, 63, 79
14, 367791, Note_on_c, 11, 70, 0
14, 367791, Note_on_c, 11, 63, 0
14, 367800, Note_on_c, 11, 70, 79
14, 367800, Note_on_c, 11, 63, 79
14, 367851, Note_on_c, 11, 70, 0
14, 367851, Note_on_c, 11, 63, 0
14, 367860, Note_on_c, 11, 70, 79
14, 367860, Note_on_c, 11, 63, 79
14, 367911, Note_on_c, 11, 70, 0
14, 367911, Note_on_c, 11, 63, 0
14, 367920, Note_on_c, 11, 75, 88
14, 367971, Note_on_c, 11, 75, 0
14, 367980, Note_on_c, 11, 75, 80
14, 368031, Note_on_c, 11, 75, 0
14, 368040, Note_on_c, 11, 75, 80
14, 368091, Note_on_c, 11, 75, 0
14, 368100, Note_on_c, 11, 75, 81
14, 368151, Note_on_c, 11, 75, 0
14, 368160, Note_on_c, 11, 78, 81
14, 368211, Note_on_c, 11, 78, 0
14, 368220, Note_on_c, 11, 78, 81
14, 368271, Note_on_c, 11, 78, 0
14, 368280, Note_on_c, 11, 78, 82
14, 368331, Note_on_c, 11, 78, 0
14, 368340, Note_on_c, 11, 78, 82
14, 368391, Note_on_c, 11, 78, 0
14, 368400, Note_on_c, 11, 82, 82
14, 368451, Note_on_c, 11, 82, 0
14, 368460, Note_on_c, 11, 82, 83
14, 368511, Note_on_c, 11, 82, 0
14, 368520, Note_on_c, 11, 82, 83
14, 368571, Note_on_c, 11, 82, 0
14, 368580, Note_on_c, 11, 82, 83
14, 368631, Note_on_c, 11, 82, 0
14, 368640, Note_on_c, 11, 83, 84
14, 368640, Note_on_c, 11, 71, 84
14, 368691, Note_on_c, 11, 83, 0
14, 368691, Note_on_c, 11, 71, 0
14, 368700, Note_on_c, 11, 83, 84
14, 368700, Note_on_c, 11, 71, 84
14, 368751, Note_on_c, 11, 83, 0
14, 368751, Note_on_c, 11, 71, 0
14, 368760, Note_on_c, 11, 71, 84
14, 368760, Note_on_c, 11, 83, 84
14, 368811, Note_on_c, 11, 71, 0
14, 368811, Note_on_c, 11, 83, 0
14, 368820, Note_on_c, 11, 71, 84
14, 368820, Note_on_c, 11, 83, 84
14, 368871, Note_on_c, 11, 71, 0
14, 368871, Note_on_c, 11, 83, 0
14, 368880, Note_on_c, 11, 71, 84
14, 368880, Note_on_c, 11, 83, 84
14, 368931, Note_on_c, 11, 71, 0
14, 368931, Note_on_c, 11, 83, 0
14, 368940, Note_on_c, 11, 83, 84
14, 368940, Note_on_c, 11, 71, 84
14, 368991, Note_on_c, 11, 83, 0
14, 368991, Note_on_c, 11, 71, 0
14, 369000, Note_on_c, 11, 71, 84
14, 369000, Note_on_c, 11, 83, 84
14, 369051, Note_on_c, 11, 71, 0
14, 369051, Note_on_c, 11, 83, 0
14, 369060, Note_on_c, 11, 71, 84
14, 369060, Note_on_c, 11, 83, 84
14, 369111, Note_on_c, 11, 71, 0
14, 369111, Note_on_c, 11, 83, 0
14, 369120, Note_on_c, 11, 71, 84
14, 369120, Note_on_c, 11, 83, 84
14, 369171, Note_on_c, 11, 71, 0
14, 369171, Note_on_c, 11, 83, 0
14, 369180, Note_on_c, 11, 83, 84
14, 369180, Note_on_c, 11, 71, 84
14, 369231, Note_on_c, 11, 83, 0
14, 369231, Note_on_c, 11, 71, 0
14, 369240, Note_on_c, 11, 83, 84
14, 369240, Note_on_c, 11, 71, 84
14, 369291, Note_on_c, 11, 83, 0
14, 369291, Note_on_c, 11, 71, 0
14, 369300, Note_on_c, 11, 83, 84
14, 369300, Note_on_c, 11, 71, 84
14, 369351, Note_on_c, 11, 83, 0
14, 369351, Note_on_c, 11, 71, 0
14, 369360, Note_on_c, 11, 71, 84
14, 369360, Note_on_c, 11, 83, 84
14, 369411, Note_on_c, 11, 71, 0
14, 369411, Note_on_c, 11, 83, 0
14, 369420, Note_on_c, 11, 83, 84
14, 369420, Note_on_c, 11, 71, 84
14, 369471, Note_on_c, 11, 83, 0
14, 369471, Note_on_c, 11, 71, 0
14, 369480, Note_on_c, 11, 83, 84
14, 369480, Note_on_c, 11, 71, 84
14, 369531, Note_on_c, 11, 83, 0
14, 369531, Note_on_c, 11, 71, 0
14, 369540, Note_on_c, 11, 83, 84
14, 369540, Note_on_c, 11, 71, 84
14, 369591, Note_on_c, 11, 83, 0
14, 369591, Note_on_c, 11, 71, 0
14, 369600, Note_on_c, 11, 71, 84
14, 369600, Note_on_c, 11, 83, 84
14, 369651, Note_on_c, 11, 71, 0
14, 369651, Note_on_c, 11, 83, 0
14, 369660, Note_on_c, 11, 71, 84
14, 369660, Note_on_c, 11, 83, 84
14, 369711, Note_on_c, 11, 71, 0
14, 369711, Note_on_c, 11, 83, 0
14, 369720, Note_on_c, 11, 71, 84
14, 369720, Note_on_c, 11, 83, 84
14, 369771, Note_on_c, 11, 71, 0
14, 369771, Note_on_c, 11, 83, 0
14, 369780, Note_on_c, 11, 71, 84
14, 369780, Note_on_c, 11, 83, 84
14, 369831, Note_on_c, 11, 71, 0
14, 369831, Note_on_c, 11, 83, 0
14, 369840, Note_on_c, 11, 71, 84
14, 369840, Note_on_c, 11, 83, 84
14, 369891, Note_on_c, 11, 71, 0
14, 369891, Note_on_c, 11, 83, 0
14, 369900, Note_on_c, 11, 83, 84
14, 369900, Note_on_c, 11, 71, 84
14, 369951, Note_on_c, 11, 83, 0
14, 369951, Note_on_c, 11, 71, 0
14, 369960, Note_on_c, 11, 71, 84
14, 369960, Note_on_c, 11, 83, 84
14, 370011, Note_on_c, 11, 71, 0
14, 370011, Note_on_c, 11, 83, 0
14, 370020, Note_on_c, 11, 83, 84
14, 370020, Note_on_c, 11, 71, 84
14, 370071, Note_on_c, 11, 83, 0
14, 370071, Note_on_c, 11, 71, 0
14, 370080, Note_on_c, 11, 71, 84
14, 370080, Note_on_c, 11, 83, 84
14, 370131, Note_on_c, 11, 71, 0
14, 370131, Note_on_c, 11, 83, 0
14, 370140, Note_on_c, 11, 83, 84
14, 370140, Note_on_c, 11, 71, 84
14, 370191, Note_on_c, 11, 83, 0
14, 370191, Note_on_c, 11, 71, 0
14, 370200, Note_on_c, 11, 83, 84
14, 370200, Note_on_c, 11, 71, 84
14, 370251, Note_on_c, 11, 83, 0
14, 370251, Note_on_c, 11, 71, 0
14, 370260, Note_on_c, 11, 71, 84
14, 370260, Note_on_c, 11, 83, 84
14, 370311, Note_on_c, 11, 71, 0
14, 370311, Note_on_c, 11, 83, 0
14, 370320, Note_on_c, 11, 83, 84
14, 370320, Note_on_c, 11, 71, 84
14, 370371, Note_on_c, 11, 83, 0
14, 370371, Note_on_c, 11, 71, 0
14, 370380, Note_on_c, 11, 83, 84
14, 370380, Note_on_c, 11, 71, 84
14, 370431, Note_on_c, 11, 83, 0
14, 370431, Note_on_c, 11, 71, 0
14, 370440, Note_on_c, 11, 83, 84
14, 370440, Note_on_c, 11, 71, 84
14, 370491, Note_on_c, 11, 83, 0
14, 370491, Note_on_c, 11, 71, 0
14, 370500, Note_on_c, 11, 71, 84
14, 370500, Note_on_c, 11, 83, 84
14, 370551, Note_on_c, 11, 71, 0
14, 370551, Note_on_c, 11, 83, 0
14, 370560, Note_on_c, 11, 83, 84
14, 370560, Note_on_c, 11, 71, 84
14, 370611, Note_on_c, 11, 83, 0
14, 370611, Note_on_c, 11, 71, 0
14, 370620, Note_on_c, 11, 83, 84
14, 370620, Note_on_c, 11, 71, 84
14, 370671, Note_on_c, 11, 83, 0
14, 370671, Note_on_c, 11, 71, 0
14, 370680, Note_on_c, 11, 71, 84
14, 370680, Note_on_c, 11, 83, 84
14, 370731, Note_on_c, 11, 71, 0
14, 370731, Note_on_c, 11, 83, 0
14, 370740, Note_on_c, 11, 71, 84
14, 370740, Note_on_c, 11, 83, 84
14, 370791, Note_on_c, 11, 71, 0
14, 370791, Note_on_c, 11, 83, 0
14, 370800, Note_on_c, 11, 83, 84
14, 370800, Note_on_c, 11, 71, 84
14, 370851, Note_on_c, 11, 83, 0
14, 370851, Note_on_c, 11, 71, 0
14, 370860, Note_on_c, 11, 71, 84
14, 370860, Note_on_c, 11, 83, 84
14, 370911, Note_on_c, 11, 71, 0
14, 370911, Note_on_c, 11, 83, 0
14, 370920, Note_on_c, 11, 71, 84
14, 370920, Note_on_c, 11, 83, 84
14, 370971, Note_on_c, 11, 71, 0
14, 370971, Note_on_c, 11, 83, 0
14, 370980, Note_on_c, 11, 71, 84
14, 370980, Note_on_c, 11, 83, 84
14, 371031, Note_on_c, 11, 71, 0
14, 371031, Note_on_c, 11, 83, 0
14, 371040, Note_on_c, 11, 83, 84
14, 371040, Note_on_c, 11, 71, 84
14, 371091, Note_on_c, 11, 83, 0
14, 371091, Note_on_c, 11, 71, 0
14, 371100, Note_on_c, 11, 83, 84
14, 371100, Note_on_c, 11, 71, 84
14, 371151, Note_on_c, 11, 83, 0
14, 371151, Note_on_c, 11, 71, 0
14, 371160, Note_on_c, 11, 83, 84
14, 371160, Note_on_c, 11, 71, 84
14, 371211, Note_on_c, 11, 83, 0
14, 371211, Note_on_c, 11, 71, 0
14, 371220, Note_on_c, 11, 83, 84
14, 371220, Note_on_c, 11, 71, 84
14, 371271, Note_on_c, 11, 83, 0
14, 371271, Note_on_c, 11, 71, 0
14, 371280, Note_on_c, 11, 83, 84
14, 371280, Note_on_c, 11, 71, 84
14, 371331, Note_on_c, 11, 83, 0
14, 371331, Note_on_c, 11, 71, 0
14, 371340, Note_on_c, 11, 71, 84
14, 371340, Note_on_c, 11, 83, 84
14, 371391, Note_on_c, 11, 71, 0
14, 371391, Note_on_c, 11, 83, 0
14, 371400, Note_on_c, 11, 71, 84
14, 371400, Note_on_c, 11, 83, 84
14, 371451, Note_on_c, 11, 71, 0
14, 371451, Note_on_c, 11, 83, 0
14, 371460, Note_on_c, 11, 83, 84
14, 371460, Note_on_c, 11, 71, 84
14, 371511, Note_on_c, 11, 83, 0
14, 371511, Note_on_c, 11, 71, 0
14, 371520, Note_on_c, 11, 83, 84
14, 371520, Note_on_c, 11, 71, 84
14, 371759, Note_on_c, 11, 83, 0
14, 371759, Note_on_c, 11, 71, 0
14, 373680, Note_on_c, 11, 59, 76
14, 373919, Note_on_c, 11, 59, 0
14, 373920, Note_on_c, 11, 63, 76
14, 374159, Note_on_c, 11, 63, 0
14, 374160, Note_on_c, 11, 66, 76
14, 374399, Note_on_c, 11, 66, 0
14, 376560, Note_on_c, 11, 60, 52
14, 376799, Note_on_c, 11, 60, 0
14, 376800, Note_on_c, 11, 63, 52
14, 377039, Note_on_c, 11, 63, 0
14, 377040, Note_on_c, 11, 69, 52
14, 377279, Note_on_c, 11, 69, 0
14, 377640, Note_on_c, 11, 62, 52
14, 377759, Note_on_c, 11, 62, 0
14, 377760, Note_on_c, 11, 65, 52
14, 377879, Note_on_c, 11, 65, 0
14, 377880, Note_on_c, 11, 70, 51
14, 377999, Note_on_c, 11, 70, 0
14, 378360, Note_on_c, 11, 62, 50
14, 378479, Note_on_c, 11, 62, 0
14, 378480, Note_on_c, 11, 65, 50
14, 378599, Note_on_c, 11, 65, 0
14, 378600, Note_on_c, 11, 70, 49
14, 378719, Note_on_c, 11, 70, 0
14, 379080, Note_on_c, 11, 63, 48
14, 379199, Note_on_c, 11, 63, 0
14, 379200, Note_on_c, 11, 66, 47
14, 379319, Note_on_c, 11, 66, 0
14, 379320, Note_on_c, 11, 70, 47
14, 379439, Note_on_c, 11, 70, 0
14, 379800, Note_on_c, 11, 63, 46
14, 379919, Note_on_c, 11, 63, 0
14, 379920, Note_on_c, 11, 66, 45
14, 380039, Note_on_c, 11, 66, 0
14, 380040, Note_on_c, 11, 70, 45
14, 380159, Note_on_c, 11, 70, 0
14, 380160, Program_c, 11, 45
14, 380640, Note_on_c, 11, 58, 44
14, 380879, Note_on_c, 11, 58, 0
14, 381360, Note_on_c, 11, 58, 44
14, 381599, Note_on_c, 11, 58, 0
14, 382080, Note_on_c, 11, 58, 44
14, 382319, Note_on_c, 11, 58, 0
14, 382800, Note_on_c, 11, 58, 44
14, 383009, Note_on_c, 11, 58, 0
14, 383025, Program_c, 11, 48
14, 383040, Note_on_c, 11, 71, 44
14, 383091, Note_on_c, 11, 71, 0
14, 383100, Note_on_c, 11, 71, 44
14, 383151, Note_on_c, 11, 71, 0
14, 383160, Note_on_c, 11, 71, 44
14, 383211, Note_on_c, 11, 71, 0
14, 383220, Note_on_c, 11, 71, 44
14, 383271, Note_on_c, 11, 71, 0
14, 383280, Note_on_c, 11, 71, 44
14, 383331, Note_on_c, 11, 71, 0
14, 383340, Note_on_c, 11, 71, 44
14, 383391, Note_on_c, 11, 71, 0
14, 383400, Note_on_c, 11, 71, 44
14, 383451, Note_on_c, 11, 71, 0
14, 383460, Note_on_c, 11, 71, 44
14, 383511, Note_on_c, 11, 71, 0
14, 383520, Note_on_c, 11, 71, 44
14, 383571, Note_on_c, 11, 71, 0
14, 383580, Note_on_c, 11, 71, 44
14, 383631, Note_on_c, 11, 71, 0
14, 383640, Note_on_c, 11, 71, 44
14, 383691, Note_on_c, 11, 71, 0
14, 383700, Note_on_c, 11, 71, 44
14, 383751, Note_on_c, 11, 71, 0
14, 383760, Note_on_c, 11, 71, 44
14, 383811, Note_on_c, 11, 71, 0
14, 383820, Note_on_c, 11, 71, 44
14, 383871, Note_on_c, 11, 71, 0
14, 383880, Note_on_c, 11, 71, 44
14, 383931, Note_on_c, 11, 71, 0
14, 383940, Note_on_c, 11, 71, 44
14, 383991, Note_on_c, 11, 71, 0
14, 384000, Note_on_c, 11, 71, 44
14, 384051, Note_on_c, 11, 71, 0
14, 384060, Note_on_c, 11, 71, 44
14, 384111, Note_on_c, 11, 71, 0
14, 384120, Note_on_c, 11, 71, 44
14, 384171, Note_on_c, 11, 71, 0
14, 384180, Note_on_c, 11, 71, 44
14, 384231, Note_on_c, 11, 71, 0
14, 384240, Note_on_c, 11, 71, 44
14, 384291, Note_on_c, 11, 71, 0
14, 384300, Note_on_c, 11, 71, 44
14, 384351, Note_on_c, 11, 71, 0
14, 384360, Note_on_c, 11, 71, 44
14, 384411, Note_on_c, 11, 71, 0
14, 384420, Note_on_c, 11, 71, 44
14, 384471, Note_on_c, 11, 71, 0
14, 384480, Program_c, 11, 45
14, 384960, Note_on_c, 11, 58, 44
14, 385199, Note_on_c, 11, 58, 0
14, 385680, Note_on_c, 11, 58, 44
14, 385889, Note_on_c, 11, 58, 0
14, 385905, Program_c, 11, 48
14, 385920, Note_on_c, 11, 70, 44
14, 385971, Note_on_c, 11, 70, 0
14, 385980, Note_on_c, 11, 70, 44
14, 386031, Note_on_c, 11, 70, 0
14, 386040, Note_on_c, 11, 70, 44
14, 386091, Note_on_c, 11, 70, 0
14, 386100, Note_on_c, 11, 70, 44
14, 386151, Note_on_c, 11, 70, 0
14, 386160, Note_on_c, 11, 70, 44
14, 386211, Note_on_c, 11, 70, 0
14, 386220, Note_on_c, 11, 70, 44
14, 386271, Note_on_c, 11, 70, 0
14, 386280, Note_on_c, 11, 70, 44
14, 386331, Note_on_c, 11, 70, 0
14, 386340, Note_on_c, 11, 70, 44
14, 386391, Note_on_c, 11, 70, 0
14, 386400, Note_on_c, 11, 70, 44
14, 386451, Note_on_c, 11, 70, 0
14, 386460, Note_on_c, 11, 70, 44
14, 386511, Note_on_c, 11, 70, 0
14, 386520, Note_on_c, 11, 70, 44
14, 386571, Note_on_c, 11, 70, 0
14, 386580, Note_on_c, 11, 70, 44
14, 386631, Note_on_c, 11, 70, 0
14, 386640, Note_on_c, 11, 70, 44
14, 386691, Note_on_c, 11, 70, 0
14, 386700, Note_on_c, 11, 70, 44
14, 386751, Note_on_c, 11, 70, 0
14, 386760, Note_on_c, 11, 70, 44
14, 386811, Note_on_c, 11, 70, 0
14, 386820, Note_on_c, 11, 70, 44
14, 386871, Note_on_c, 11, 70, 0
14, 386880, Note_on_c, 11, 70, 44
14, 386931, Note_on_c, 11, 70, 0
14, 386940, Note_on_c, 11, 70, 44
14, 386991, Note_on_c, 11, 70, 0
14, 387000, Note_on_c, 11, 70, 44
14, 387051, Note_on_c, 11, 70, 0
14, 387060, Note_on_c, 11, 70, 44
14, 387111, Note_on_c, 11, 70, 0
14, 387120, Note_on_c, 11, 70, 44
14, 387171, Note_on_c, 11, 70, 0
14, 387180, Note_on_c, 11, 70, 44
14, 387231, Note_on_c, 11, 70, 0
14, 387240, Note_on_c, 11, 70, 44
14, 387291, Note_on_c, 11, 70, 0
14, 387300, Note_on_c, 11, 70, 44
14, 387351, Note_on_c, 11, 70, 0
14, 387360, Program_c, 11, 45
14, 387840, Note_on_c, 11, 58, 44
14, 388079, Note_on_c, 11, 58, 0
14, 388560, Note_on_c, 11, 58, 44
14, 388769, Note_on_c, 11, 58, 0
14, 388785, Program_c, 11, 48
14, 388800, Note_on_c, 11, 71, 44
14, 388851, Note_on_c, 11, 71, 0
14, 388860, Note_on_c, 11, 71, 44
14, 388911, Note_on_c, 11, 71, 0
14, 388920, Note_on_c, 11, 71, 44
14, 388971, Note_on_c, 11, 71, 0
14, 388980, Note_on_c, 11, 71, 44
14, 389031, Note_on_c, 11, 71, 0
14, 389040, Note_on_c, 11, 71, 44
14, 389091, Note_on_c, 11, 71, 0
14, 389100, Note_on_c, 11, 71, 44
14, 389151, Note_on_c, 11, 71, 0
14, 389160, Note_on_c, 11, 71, 44
14, 389211, Note_on_c, 11, 71, 0
14, 389220, Note_on_c, 11, 71, 44
14, 389271, Note_on_c, 11, 71, 0
14, 389280, Note_on_c, 11, 71, 44
14, 389331, Note_on_c, 11, 71, 0
14, 389340, Note_on_c, 11, 71, 44
14, 389391, Note_on_c, 11, 71, 0
14, 389400, Note_on_c, 11, 71, 44
14, 389451, Note_on_c, 11, 71, 0
14, 389460, Note_on_c, 11, 71, 44
14, 389511, Note_on_c, 11, 71, 0
14, 389520, Note_on_c, 11, 71, 44
14, 389571, Note_on_c, 11, 71, 0
14, 389580, Note_on_c, 11, 71, 44
14, 389631, Note_on_c, 11, 71, 0
14, 389640, Note_on_c, 11, 71, 44
14, 389691, Note_on_c, 11, 71, 0
14, 389700, Note_on_c, 11, 71, 44
14, 389751, Note_on_c, 11, 71, 0
14, 389760, Note_on_c, 11, 71, 44
14, 389811, Note_on_c, 11, 71, 0
14, 389820, Note_on_c, 11, 71, 44
14, 389871, Note_on_c, 11, 71, 0
14, 389880, Note_on_c, 11, 71, 44
14, 389931, Note_on_c, 11, 71, 0
14, 389940, Note_on_c, 11, 71, 44
14, 389991, Note_on_c, 11, 71, 0
14, 390000, Note_on_c, 11, 71, 44
14, 390051, Note_on_c, 11, 71, 0
14, 390060, Note_on_c, 11, 71, 44
14, 390111, Note_on_c, 11, 71, 0
14, 390120, Note_on_c, 11, 71, 44
14, 390171, Note_on_c, 11, 71, 0
14, 390180, Note_on_c, 11, 71, 44
14, 390231, Note_on_c, 11, 71, 0
14, 390240, Note_on_c, 11, 70, 44
14, 390291, Note_on_c, 11, 70, 0
14, 390300, Note_on_c, 11, 70, 44
14, 390351, Note_on_c, 11, 70, 0
14, 390360, Note_on_c, 11, 70, 44
14, 390411, Note_on_c, 11, 70, 0
14, 390420, Note_on_c, 11, 70, 44
14, 390471, Note_on_c, 11, 70, 0
14, 390480, Note_on_c, 11, 70, 44
14, 390531, Note_on_c, 11, 70, 0
14, 390540, Note_on_c, 11, 70, 44
14, 390591, Note_on_c, 11, 70, 0
14, 390600, Note_on_c, 11, 70, 44
14, 390651, Note_on_c, 11, 70, 0
14, 390660, Note_on_c, 11, 70, 44
14, 390711, Note_on_c, 11, 70, 0
14, 390720, Note_on_c, 11, 70, 44
14, 390771, Note_on_c, 11, 70, 0
14, 390780, Note_on_c, 11, 70, 44
14, 390831, Note_on_c, 11, 70, 0
14, 390840, Note_on_c, 11, 70, 44
14, 390891, Note_on_c, 11, 70, 0
14, 390900, Note_on_c, 11, 70, 44
14, 390951, Note_on_c, 11, 70, 0
14, 390960, Note_on_c, 11, 70, 44
14, 391011, Note_on_c, 11, 70, 0
14, 391020, Note_on_c, 11, 70, 44
14, 391071, Note_on_c, 11, 70, 0
14, 391080, Note_on_c, 11, 70, 44
14, 391131, Note_on_c, 11, 70, 0
14, 391140, Note_on_c, 11, 70, 44
14, 391191, Note_on_c, 11, 70, 0
14, 391200, Note_on_c, 11, 70, 44
14, 391251, Note_on_c, 11, 70, 0
14, 391260, Note_on_c, 11, 70, 44
14, 391311, Note_on_c, 11, 70, 0
14, 391320, Note_on_c, 11, 70, 44
14, 391371, Note_on_c, 11, 70, 0
14, 391380, Note_on_c, 11, 70, 44
14, 391431, Note_on_c, 11, 70, 0
14, 391440, Note_on_c, 11, 70, 44
14, 391491, Note_on_c, 11, 70, 0
14, 391500, Note_on_c, 11, 70, 44
14, 391551, Note_on_c, 11, 70, 0
14, 391560, Note_on_c, 11, 70, 44
14, 391611, Note_on_c, 11, 70, 0
14, 391620, Note_on_c, 11, 70, 44
14, 391671, Note_on_c, 11, 70, 0
14, 391680, Note_on_c, 11, 70, 36
14, 391731, Note_on_c, 11, 70, 0
14, 391740, Note_on_c, 11, 70, 36
14, 391791, Note_on_c, 11, 70, 0
14, 391800, Note_on_c, 11, 70, 36
14, 391851, Note_on_c, 11, 70, 0
14, 391860, Note_on_c, 11, 70, 36
14, 391911, Note_on_c, 11, 70, 0
14, 391920, Note_on_c, 11, 70, 36
14, 391971, Note_on_c, 11, 70, 0
14, 391980, Note_on_c, 11, 70, 36
14, 392031, Note_on_c, 11, 70, 0
14, 392040, Note_on_c, 11, 70, 36
14, 392091, Note_on_c, 11, 70, 0
14, 392100, Note_on_c, 11, 70, 36
14, 392151, Note_on_c, 11, 70, 0
14, 392160, Note_on_c, 11, 70, 36
14, 392211, Note_on_c, 11, 70, 0
14, 392220, Note_on_c, 11, 70, 36
14, 392271, Note_on_c, 11, 70, 0
14, 392280, Note_on_c, 11, 70, 36
14, 392331, Note_on_c, 11, 70, 0
14, 392340, Note_on_c, 11, 70, 36
14, 392391, Note_on_c, 11, 70, 0
14, 392400, Note_on_c, 11, 70, 36
14, 392451, Note_on_c, 11, 70, 0
14, 392460, Note_on_c, 11, 70, 36
14, 392511, Note_on_c, 11, 70, 0
14, 392520, Note_on_c, 11, 70, 36
14, 392571, Note_on_c, 11, 70, 0
14, 392580, Note_on_c, 11, 70, 36
14, 392631, Note_on_c, 11, 70, 0
14, 392640, Note_on_c, 11, 70, 36
14, 392691, Note_on_c, 11, 70, 0
14, 392700, Note_on_c, 11, 70, 36
14, 392751, Note_on_c, 11, 70, 0
14, 392760, Note_on_c, 11, 70, 36
14, 392811, Note_on_c, 11, 70, 0
14, 392820, Note_on_c, 11, 70, 36
14, 392871, Note_on_c, 11, 70, 0
14, 392880, Note_on_c, 11, 70, 36
14, 392931, Note_on_c, 11, 70, 0
14, 392940, Note_on_c, 11, 70, 36
14, 392991, Note_on_c, 11, 70, 0
14, 393000, Note_on_c, 11, 70, 36
14, 393051, Note_on_c, 11, 70, 0
14, 393060, Note_on_c, 11, 70, 36
14, 393111, Note_on_c, 11, 70, 0
14, 393120, Note_on_c, 11, 74, 76
14, 393171, Note_on_c, 11, 74, 0
14, 393180, Note_on_c, 11, 74, 76
14, 393231, Note_on_c, 11, 74, 0
14, 393240, Note_on_c, 11, 74, 76
14, 393291, Note_on_c, 11, 74, 0
14, 393300, Note_on_c, 11, 74, 76
14, 393351, Note_on_c, 11, 74, 0
14, 393360, Note_on_c, 11, 74, 76
14, 393411, Note_on_c, 11, 74, 0
14, 393420, Note_on_c, 11, 74, 76
14, 393471, Note_on_c, 11, 74, 0
14, 393480, Note_on_c, 11, 74, 76
14, 393531, Note_on_c, 11, 74, 0
14, 393540, Note_on_c, 11, 74, 76
14, 393591, Note_on_c, 11, 74, 0
14, 393600, Note_on_c, 11, 74, 76
14, 393651, Note_on_c, 11, 74, 0
14, 393660, Note_on_c, 11, 74, 76
14, 393711, Note_on_c, 11, 74, 0
14, 393720, Note_on_c, 11, 74, 76
14, 393771, Note_on_c, 11, 74, 0
14, 393780, Note_on_c, 11, 74, 76
14, 393831, Note_on_c, 11, 74, 0
14, 393840, Note_on_c, 11, 70, 84
14, 393840, Note_on_c, 11, 80, 84
14, 393891, Note_on_c, 11, 70, 0
14, 393891, Note_on_c, 11, 80, 0
14, 393900, Note_on_c, 11, 70, 84
14, 393900, Note_on_c, 11, 80, 84
14, 393951, Note_on_c, 11, 70, 0
14, 393951, Note_on_c, 11, 80, 0
14, 393960, Note_on_c, 11, 70, 84
14, 393960, Note_on_c, 11, 80, 84
14, 394011, Note_on_c, 11, 70, 0
14, 394011, Note_on_c, 11, 80, 0
14, 394020, Note_on_c, 11, 70, 84
14, 394020, Note_on_c, 11, 80, 84
14, 394071, Note_on_c, 11, 70, 0
14, 394071, Note_on_c, 11, 80, 0
14, 394080, Note_on_c, 11, 80, 84
14, 394080, Note_on_c, 11, 70, 84
14, 394131, Note_on_c, 11, 80, 0
14, 394131, Note_on_c, 11, 70, 0
14, 394140, Note_on_c, 11, 80, 84
14, 394140, Note_on_c, 11, 70, 84
14, 394191, Note_on_c, 11, 80, 0
14, 394191, Note_on_c, 11, 70, 0
14, 394200, Note_on_c, 11, 70, 84
14, 394200, Note_on_c, 11, 80, 84
14, 394251, Note_on_c, 11, 70, 0
14, 394251, Note_on_c, 11, 80, 0
14, 394260, Note_on_c, 11, 80, 84
14, 394260, Note_on_c, 11, 70, 84
14, 394311, Note_on_c, 11, 80, 0
14, 394311, Note_on_c, 11, 70, 0
14, 394320, Note_on_c, 11, 80, 84
14, 394320, Note_on_c, 11, 70, 84
14, 394371, Note_on_c, 11, 80, 0
14, 394371, Note_on_c, 11, 70, 0
14, 394380, Note_on_c, 11, 80, 84
14, 394380, Note_on_c, 11, 70, 84
14, 394431, Note_on_c, 11, 80, 0
14, 394431, Note_on_c, 11, 70, 0
14, 394440, Note_on_c, 11, 80, 84
14, 394440, Note_on_c, 11, 70, 84
14, 394491, Note_on_c, 11, 80, 0
14, 394491, Note_on_c, 11, 70, 0
14, 394500, Note_on_c, 11, 70, 84
14, 394500, Note_on_c, 11, 80, 84
14, 394551, Note_on_c, 11, 70, 0
14, 394551, Note_on_c, 11, 80, 0
14, 394560, Note_on_c, 11, 63, 84
14, 394560, Note_on_c, 11, 79, 84
14, 394560, Note_on_c, 11, 70, 84
14, 394560, Note_on_c, 11, 55, 84
14, 394799, Note_on_c, 11, 63, 0
14, 394799, Note_on_c, 11, 79, 0
14, 394799, Note_on_c, 11, 70, 0
14, 394799, Note_on_c, 11, 55, 0
14, 397440, Control_c, 11, 11, 96
14, 397500, Control_c, 11, 11, 97
14, 397560, Control_c, 11, 11, 99
14, 397560, Note_on_c, 11, 79, 68
14, 397620, Control_c, 11, 11, 100
14, 397680, Control_c, 11, 11, 101
14, 397740, Control_c, 11, 11, 102
14, 397784, Note_on_c, 11, 79, 0
14, 397800, Control_c, 11, 11, 104
14, 397800, Note_on_c, 11, 79, 68
14, 397860, Control_c, 11, 11, 105
14, 397920, Control_c, 11, 11, 106
14, 397980, Control_c, 11, 11, 108
14, 398024, Note_on_c, 11, 79, 0
14, 398040, Note_on_c, 11, 79, 68
14, 398040, Control_c, 11, 11, 109
14, 398100, Control_c, 11, 11, 110
14, 398160, Control_c, 11, 11, 112
14, 398220, Control_c, 11, 11, 113
14, 398264, Note_on_c, 11, 79, 0
14, 398280, Control_c, 11, 11, 114
14, 398280, Note_on_c, 11, 79, 68
14, 398340, Control_c, 11, 11, 115
14, 398400, Control_c, 11, 11, 117
14, 398460, Control_c, 11, 11, 118
14, 398504, Note_on_c, 11, 79, 0
14, 398520, Control_c, 11, 11, 119
14, 398520, Note_on_c, 11, 79, 68
14, 398580, Control_c, 11, 11, 121
14, 398640, Control_c, 11, 11, 122
14, 398700, Control_c, 11, 11, 123
14, 398744, Note_on_c, 11, 79, 0
14, 398760, Control_c, 11, 11, 124
14, 398760, Note_on_c, 11, 79, 68
14, 398820, Control_c, 11, 11, 127
14, 398879, Note_on_c, 11, 79, 0
14, 398880, Note_on_c, 11, 79, 76
14, 399000, Control_c, 11, 11, 112
14, 399050, Control_c, 11, 11, 109
14, 399100, Control_c, 11, 11, 107
14, 399150, Control_c, 11, 11, 104
14, 399200, Control_c, 11, 11, 101
14, 399250, Control_c, 11, 11, 99
14, 399300, Control_c, 11, 11, 96
14, 399350, Control_c, 11, 11, 93
14, 399400, Control_c, 11, 11, 91
14, 399450, Control_c, 11, 11, 88
14, 399500, Control_c, 11, 11, 85
14, 399550, Control_c, 11, 11, 80
14, 399599, Note_on_c, 11, 79, 0
14, 399600, Note_on_c, 11, 77, 76
14, 400559, Note_on_c, 11, 77, 0
14, 400560, Note_on_c, 11, 76, 76
14, 400799, Note_on_c, 11, 76, 0
14, 400800, Note_on_c, 11, 74, 76
14, 401009, Note_on_c, 11, 74, 0
14, 401025, Control_c, 11, 11, 96
14, 401040, Note_on_c, 11, 76, 68
14, 401069, Note_on_c, 11, 76, 0
14, 401070, Note_on_c, 11, 77, 68
14, 401099, Note_on_c, 11, 77, 0
14, 401100, Note_on_c, 11, 76, 68
14, 401129, Note_on_c, 11, 76, 0
14, 401130, Note_on_c, 11, 77, 68
14, 401159, Note_on_c, 11, 77, 0
14, 401160, Note_on_c, 11, 76, 68
14, 401189, Note_on_c, 11, 76, 0
14, 401190, Note_on_c, 11, 77, 68
14, 401219, Note_on_c, 11, 77, 0
14, 401220, Note_on_c, 11, 76, 68
14, 401249, Note_on_c, 11, 76, 0
14, 401250, Note_on_c, 11, 77, 68
14, 401279, Note_on_c, 11, 77, 0
14, 401280, Note_on_c, 11, 76, 68
14, 401309, Note_on_c, 11, 76, 0
14, 401310, Note_on_c, 11, 77, 68
14, 401339, Note_on_c, 11, 77, 0
14, 401340, Note_on_c, 11, 76, 68
14, 401369, Note_on_c, 11, 76, 0
14, 401370, Note_on_c, 11, 77, 68
14, 401399, Note_on_c, 11, 77, 0
14, 401400, Note_on_c, 11, 76, 68
14, 401429, Note_on_c, 11, 76, 0
14, 401430, Note_on_c, 11, 77, 68
14, 401459, Note_on_c, 11, 77, 0
14, 401460, Note_on_c, 11, 76, 68
14, 401489, Note_on_c, 11, 76, 0
14, 401490, Note_on_c, 11, 77, 68
14, 401519, Note_on_c, 11, 77, 0
14, 401520, Note_on_c, 11, 76, 68
14, 401549, Note_on_c, 11, 76, 0
14, 401550, Note_on_c, 11, 77, 68
14, 401579, Note_on_c, 11, 77, 0
14, 401580, Note_on_c, 11, 76, 68
14, 401609, Note_on_c, 11, 76, 0
14, 401610, Note_on_c, 11, 77, 68
14, 401639, Note_on_c, 11, 77, 0
14, 401640, Note_on_c, 11, 76, 68
14, 401669, Note_on_c, 11, 76, 0
14, 401670, Note_on_c, 11, 77, 68
14, 401699, Note_on_c, 11, 77, 0
14, 401700, Note_on_c, 11, 74, 68
14, 401729, Note_on_c, 11, 74, 0
14, 401730, Note_on_c, 11, 76, 68
14, 401749, Note_on_c, 11, 76, 0
14, 401760, Note_on_c, 11, 77, 68
14, 401864, Note_on_c, 11, 77, 0
14, 401880, Note_on_c, 11, 60, 68
14, 401984, Note_on_c, 11, 60, 0
14, 402000, Note_on_c, 11, 60, 68
14, 402104, Note_on_c, 11, 60, 0
14, 402120, Note_on_c, 11, 60, 68
14, 402224, Note_on_c, 11, 60, 0
14, 402240, Note_on_c, 11, 60, 68
14, 402344, Note_on_c, 11, 60, 0
14, 402360, Note_on_c, 11, 60, 68
14, 402464, Note_on_c, 11, 60, 0
14, 402480, Note_on_c, 11, 60, 68
14, 402584, Note_on_c, 11, 60, 0
14, 402600, Note_on_c, 11, 60, 68
14, 402704, Note_on_c, 11, 60, 0
14, 402720, Note_on_c, 11, 60, 68
14, 402824, Note_on_c, 11, 60, 0
14, 402840, Note_on_c, 11, 60, 68
14, 402944, Note_on_c, 11, 60, 0
14, 402960, Note_on_c, 11, 60, 68
14, 403064, Note_on_c, 11, 60, 0
14, 403080, Note_on_c, 11, 60, 68
14, 403184, Note_on_c, 11, 60, 0
14, 403200, Note_on_c, 11, 60, 68
14, 403304, Note_on_c, 11, 60, 0
14, 403320, Note_on_c, 11, 60, 68
14, 403424, Note_on_c, 11, 60, 0
14, 403440, Note_on_c, 11, 60, 68
14, 403544, Note_on_c, 11, 60, 0
14, 403560, Note_on_c, 11, 60, 68
14, 403664, Note_on_c, 11, 60, 0
14, 403680, Note_on_c, 11, 60, 68
14, 403784, Note_on_c, 11, 60, 0
14, 403800, Note_on_c, 11, 60, 68
14, 403904, Note_on_c, 11, 60, 0
14, 403920, Note_on_c, 11, 60, 68
14, 404024, Note_on_c, 11, 60, 0
14, 404040, Note_on_c, 11, 60, 68
14, 404144, Note_on_c, 11, 60, 0
14, 404160, Note_on_c, 11, 60, 68
14, 404264, Note_on_c, 11, 60, 0
14, 404280, Note_on_c, 11, 60, 68
14, 404384, Note_on_c, 11, 60, 0
14, 404400, Note_on_c, 11, 60, 68
14, 404504, Note_on_c, 11, 60, 0
14, 404520, Note_on_c, 11, 60, 68
14, 404624, Note_on_c, 11, 60, 0
14, 404640, Note_on_c, 11, 60, 68
14, 404744, Note_on_c, 11, 60, 0
14, 404760, Note_on_c, 11, 60, 68
14, 404864, Note_on_c, 11, 60, 0
14, 404880, Note_on_c, 11, 60, 68
14, 404984, Note_on_c, 11, 60, 0
14, 405000, Note_on_c, 11, 60, 68
14, 405104, Note_on_c, 11, 60, 0
14, 405120, Note_on_c, 11, 60, 68
14, 405224, Note_on_c, 11, 60, 0
14, 405240, Note_on_c, 11, 60, 68
14, 405344, Note_on_c, 11, 60, 0
14, 405360, Note_on_c, 11, 60, 68
14, 405464, Note_on_c, 11, 60, 0
14, 405480, Note_on_c, 11, 60, 68
14, 405584, Note_on_c, 11, 60, 0
14, 405600, Note_on_c, 11, 60, 68
14, 405704, Note_on_c, 11, 60, 0
14, 405720, Note_on_c, 11, 60, 68
14, 405824, Note_on_c, 11, 60, 0
14, 405840, Note_on_c, 11, 60, 68
14, 405944, Note_on_c, 11, 60, 0
14, 405960, Note_on_c, 11, 60, 68
14, 406064, Note_on_c, 11, 60, 0
14, 406080, Note_on_c, 11, 60, 68
14, 406080, Control_c, 11, 11, 96
14, 406140, Control_c, 11, 11, 97
14, 406184, Note_on_c, 11, 60, 0
14, 406200, Control_c, 11, 11, 99
14, 406200, Note_on_c, 11, 60, 68
14, 406260, Control_c, 11, 11, 100
14, 406304, Note_on_c, 11, 60, 0
14, 406320, Control_c, 11, 11, 101
14, 406320, Note_on_c, 11, 60, 68
14, 406380, Control_c, 11, 11, 102
14, 406424, Note_on_c, 11, 60, 0
14, 406440, Note_on_c, 11, 60, 68
14, 406440, Control_c, 11, 11, 104
14, 406500, Control_c, 11, 11, 105
14, 406544, Note_on_c, 11, 60, 0
14, 406560, Control_c, 11, 11, 106
14, 406560, Note_on_c, 11, 60, 68
14, 406620, Control_c, 11, 11, 108
14, 406664, Note_on_c, 11, 60, 0
14, 406680, Note_on_c, 11, 60, 68
14, 406680, Control_c, 11, 11, 109
14, 406740, Control_c, 11, 11, 110
14, 406784, Note_on_c, 11, 60, 0
14, 406800, Control_c, 11, 11, 112
14, 406800, Note_on_c, 11, 60, 68
14, 406860, Control_c, 11, 11, 113
14, 406904, Note_on_c, 11, 60, 0
14, 406920, Control_c, 11, 11, 114
14, 406920, Note_on_c, 11, 60, 68
14, 406980, Control_c, 11, 11, 115
14, 407024, Note_on_c, 11, 60, 0
14, 407040, Control_c, 11, 11, 117
14, 407040, Note_on_c, 11, 60, 68
14, 407100, Control_c, 11, 11, 118
14, 407144, Note_on_c, 11, 60, 0
14, 407160, Note_on_c, 11, 60, 68
14, 407160, Control_c, 11, 11, 119
14, 407220, Control_c, 11, 11, 121
14, 407264, Note_on_c, 11, 60, 0
14, 407280, Control_c, 11, 11, 122
14, 407280, Note_on_c, 11, 60, 68
14, 407340, Control_c, 11, 11, 123
14, 407384, Note_on_c, 11, 60, 0
14, 407400, Control_c, 11, 11, 124
14, 407400, Note_on_c, 11, 60, 68
14, 407460, Control_c, 11, 11, 127
14, 407504, Note_on_c, 11, 60, 0
14, 407520, Note_on_c, 11, 61, 52
14, 407999, Note_on_c, 11, 61, 0
14, 408000, Note_on_c, 11, 65, 52
14, 408239, Note_on_c, 11, 65, 0
14, 408240, Note_on_c, 11, 61, 52
14, 408719, Note_on_c, 11, 61, 0
14, 408720, Note_on_c, 11, 56, 52
14, 408944, Note_on_c, 11, 56, 0
14, 408960, Note_on_c, 11, 61, 52
14, 409199, Note_on_c, 11, 61, 0
14, 409425, Program_c, 11, 45
14, 409440, Note_on_c, 11, 68, 52
14, 409679, Note_on_c, 11, 68, 0
14, 409680, Note_on_c, 11, 73, 52
14, 409919, Note_on_c, 11, 73, 0
14, 409920, Note_on_c, 11, 77, 52
14, 410159, Note_on_c, 11, 77, 0
14, 410160, Note_on_c, 11, 80, 52
14, 410399, Note_on_c, 11, 80, 0
14, 410400, Note_on_c, 11, 80, 52
14, 410639, Note_on_c, 11, 80, 0
14, 410880, Note_on_c, 11, 78, 52
14, 411119, Note_on_c, 11, 78, 0
14, 411120, Note_on_c, 11, 75, 52
14, 411359, Note_on_c, 11, 75, 0
14, 411360, Note_on_c, 11, 72, 52
14, 411599, Note_on_c, 11, 72, 0
14, 411600, Note_on_c, 11, 66, 52
14, 411809, Note_on_c, 11, 66, 0
14, 411825, Control_c, 11, 11, 96
14, 411840, Note_on_c, 11, 65, 68
14, 411840, Control_c, 11, 11, 96
14, 411900, Control_c, 11, 11, 99
14, 411960, Control_c, 11, 11, 101
14, 412020, Control_c, 11, 11, 104
14, 412079, Note_on_c, 11, 65, 0
14, 412080, Control_c, 11, 11, 106
14, 412140, Control_c, 11, 11, 109
14, 412185, Program_c, 11, 48
14, 412200, Control_c, 11, 11, 112
14, 412200, Note_on_c, 11, 65, 68
14, 412260, Control_c, 11, 11, 114
14, 412320, Control_c, 11, 11, 117
14, 412380, Control_c, 11, 11, 119
14, 412439, Note_on_c, 11, 65, 0
14, 412440, Note_on_c, 11, 65, 68
14, 412440, Control_c, 11, 11, 122
14, 412500, Control_c, 11, 11, 127
14, 412559, Note_on_c, 11, 65, 0
14, 412560, Note_on_c, 11, 63, 68
14, 412560, Control_c, 11, 11, 127
14, 412620, Control_c, 11, 11, 123
14, 412664, Note_on_c, 11, 63, 0
14, 412680, Control_c, 11, 11, 119
14, 412680, Note_on_c, 11, 63, 68
14, 412740, Control_c, 11, 11, 115
14, 412800, Control_c, 11, 11, 111
14, 412860, Control_c, 11, 11, 107
14, 412904, Note_on_c, 11, 63, 0
14, 412920, Note_on_c, 11, 63, 68
14, 412920, Control_c, 11, 11, 104
14, 412980, Control_c, 11, 11, 100
14, 413040, Control_c, 11, 11, 96
14, 413100, Control_c, 11, 11, 92
14, 413144, Note_on_c, 11, 63, 0
14, 413160, Control_c, 11, 11, 88
14, 413160, Note_on_c, 11, 63, 68
14, 413220, Control_c, 11, 11, 80
14, 413264, Note_on_c, 11, 63, 0
14, 413272, Control_c, 11, 11, 64
14, 413280, Note_on_c, 11, 62, 76
14, 413331, Note_on_c, 11, 62, 0
14, 413340, Note_on_c, 11, 58, 76
14, 413340, Note_on_c, 11, 68, 76
14, 413391, Note_on_c, 11, 58, 0
14, 413391, Note_on_c, 11, 68, 0
14, 413400, Note_on_c, 11, 68, 76
14, 413400, Note_on_c, 11, 58, 76
14, 413451, Note_on_c, 11, 68, 0
14, 413451, Note_on_c, 11, 58, 0
14, 413460, Note_on_c, 11, 68, 76
14, 413460, Note_on_c, 11, 58, 76
14, 413511, Note_on_c, 11, 68, 0
14, 413511, Note_on_c, 11, 58, 0
14, 413520, Note_on_c, 11, 68, 76
14, 413520, Note_on_c, 11, 58, 76
14, 413571, Note_on_c, 11, 68, 0
14, 413571, Note_on_c, 11, 58, 0
14, 413580, Note_on_c, 11, 58, 76
14, 413580, Note_on_c, 11, 68, 76
14, 413631, Note_on_c, 11, 58, 0
14, 413631, Note_on_c, 11, 68, 0
14, 413640, Note_on_c, 11, 58, 76
14, 413640, Note_on_c, 11, 68, 76
14, 413691, Note_on_c, 11, 58, 0
14, 413691, Note_on_c, 11, 68, 0
14, 413700, Note_on_c, 11, 58, 76
14, 413700, Note_on_c, 11, 68, 76
14, 413751, Note_on_c, 11, 58, 0
14, 413751, Note_on_c, 11, 68, 0
14, 413760, Note_on_c, 11, 58, 76
14, 413760, Note_on_c, 11, 68, 76
14, 413811, Note_on_c, 11, 58, 0
14, 413811, Note_on_c, 11, 68, 0
14, 413820, Note_on_c, 11, 58, 76
14, 413820, Note_on_c, 11, 68, 76
14, 413871, Note_on_c, 11, 58, 0
14, 413871, Note_on_c, 11, 68, 0
14, 413880, Note_on_c, 11, 58, 76
14, 413880, Note_on_c, 11, 68, 76
14, 413931, Note_on_c, 11, 58, 0
14, 413931, Note_on_c, 11, 68, 0
14, 413940, Note_on_c, 11, 58, 76
14, 413940, Note_on_c, 11, 68, 76
14, 413991, Note_on_c, 11, 58, 0
14, 413991, Note_on_c, 11, 68, 0
14, 414000, Note_on_c, 11, 58, 76
14, 414000, Note_on_c, 11, 68, 76
14, 414051, Note_on_c, 11, 58, 0
14, 414051, Note_on_c, 11, 68, 0
14, 414060, Note_on_c, 11, 58, 76
14, 414060, Note_on_c, 11, 68, 76
14, 414111, Note_on_c, 11, 58, 0
14, 414111, Note_on_c, 11, 68, 0
14, 414120, Note_on_c, 11, 68, 76
14, 414120, Note_on_c, 11, 58, 76
14, 414171, Note_on_c, 11, 68, 0
14, 414171, Note_on_c, 11, 58, 0
14, 414180, Note_on_c, 11, 58, 76
14, 414180, Note_on_c, 11, 68, 76
14, 414231, Note_on_c, 11, 58, 0
14, 414231, Note_on_c, 11, 68, 0
14, 414240, Note_on_c, 11, 68, 76
14, 414240, Note_on_c, 11, 58, 76
14, 414291, Note_on_c, 11, 68, 0
14, 414291, Note_on_c, 11, 58, 0
14, 414300, Note_on_c, 11, 68, 76
14, 414300, Note_on_c, 11, 58, 76
14, 414351, Note_on_c, 11, 68, 0
14, 414351, Note_on_c, 11, 58, 0
14, 414360, Note_on_c, 11, 58, 76
14, 414360, Note_on_c, 11, 68, 76
14, 414411, Note_on_c, 11, 58, 0
14, 414411, Note_on_c, 11, 68, 0
14, 414420, Note_on_c, 11, 68, 76
14, 414420, Note_on_c, 11, 58, 76
14, 414471, Note_on_c, 11, 68, 0
14, 414471, Note_on_c, 11, 58, 0
14, 414480, Note_on_c, 11, 58, 76
14, 414480, Note_on_c, 11, 68, 76
14, 414531, Note_on_c, 11, 58, 0
14, 414531, Note_on_c, 11, 68, 0
14, 414540, Note_on_c, 11, 58, 76
14, 414540, Note_on_c, 11, 68, 76
14, 414591, Note_on_c, 11, 58, 0
14, 414591, Note_on_c, 11, 68, 0
14, 414600, Note_on_c, 11, 68, 76
14, 414600, Note_on_c, 11, 58, 76
14, 414651, Note_on_c, 11, 68, 0
14, 414651, Note_on_c, 11, 58, 0
14, 414660, Note_on_c, 11, 68, 76
14, 414660, Note_on_c, 11, 58, 76
14, 414711, Note_on_c, 11, 68, 0
14, 414711, Note_on_c, 11, 58, 0
14, 414720, Control_c, 11, 11, 80
14, 414720, Note_on_c, 11, 68, 76
14, 414720, Note_on_c, 11, 58, 76
14, 414771, Note_on_c, 11, 68, 0
14, 414771, Note_on_c, 11, 58, 0
14, 414780, Note_on_c, 11, 58, 76
14, 414780, Note_on_c, 11, 68, 76
14, 414800, Control_c, 11, 11, 81
14, 414831, Note_on_c, 11, 58, 0
14, 414831, Note_on_c, 11, 68, 0
14, 414840, Note_on_c, 11, 58, 76
14, 414840, Note_on_c, 11, 68, 76
14, 414880, Control_c, 11, 11, 83
14, 414891, Note_on_c, 11, 58, 0
14, 414891, Note_on_c, 11, 68, 0
14, 414900, Note_on_c, 11, 58, 76
14, 414900, Note_on_c, 11, 68, 76
14, 414951, Note_on_c, 11, 58, 0
14, 414951, Note_on_c, 11, 68, 0
14, 414960, Note_on_c, 11, 58, 76
14, 414960, Control_c, 11, 11, 84
14, 414960, Note_on_c, 11, 68, 76
14, 415011, Note_on_c, 11, 58, 0
14, 415011, Note_on_c, 11, 68, 0
14, 415020, Note_on_c, 11, 58, 76
14, 415020, Note_on_c, 11, 68, 76
14, 415040, Control_c, 11, 11, 85
14, 415071, Note_on_c, 11, 58, 0
14, 415071, Note_on_c, 11, 68, 0
14, 415080, Note_on_c, 11, 58, 76
14, 415080, Note_on_c, 11, 68, 76
14, 415120, Control_c, 11, 11, 87
14, 415131, Note_on_c, 11, 58, 0
14, 415131, Note_on_c, 11, 68, 0
14, 415140, Note_on_c, 11, 68, 76
14, 415140, Note_on_c, 11, 58, 76
14, 415191, Note_on_c, 11, 68, 0
14, 415191, Note_on_c, 11, 58, 0
14, 415200, Control_c, 11, 11, 88
14, 415200, Note_on_c, 11, 68, 76
14, 415200, Note_on_c, 11, 58, 76
14, 415251, Note_on_c, 11, 68, 0
14, 415251, Note_on_c, 11, 58, 0
14, 415260, Note_on_c, 11, 68, 76
14, 415260, Note_on_c, 11, 58, 76
14, 415280, Control_c, 11, 11, 89
14, 415311, Note_on_c, 11, 68, 0
14, 415311, Note_on_c, 11, 58, 0
14, 415320, Note_on_c, 11, 58, 76
14, 415320, Note_on_c, 11, 68, 76
14, 415360, Control_c, 11, 11, 90
14, 415371, Note_on_c, 11, 58, 0
14, 415371, Note_on_c, 11, 68, 0
14, 415380, Note_on_c, 11, 58, 76
14, 415380, Note_on_c, 11, 68, 76
14, 415431, Note_on_c, 11, 58, 0
14, 415431, Note_on_c, 11, 68, 0
14, 415440, Note_on_c, 11, 68, 76
14, 415440, Note_on_c, 11, 58, 76
14, 415440, Control_c, 11, 11, 92
14, 415491, Note_on_c, 11, 68, 0
14, 415491, Note_on_c, 11, 58, 0
14, 415500, Note_on_c, 11, 68, 76
14, 415500, Note_on_c, 11, 58, 76
14, 415520, Control_c, 11, 11, 93
14, 415551, Note_on_c, 11, 68, 0
14, 415551, Note_on_c, 11, 58, 0
14, 415560, Note_on_c, 11, 68, 76
14, 415560, Note_on_c, 11, 58, 76
14, 415600, Control_c, 11, 11, 94
14, 415611, Note_on_c, 11, 68, 0
14, 415611, Note_on_c, 11, 58, 0
14, 415620, Note_on_c, 11, 68, 76
14, 415620, Note_on_c, 11, 58, 76
14, 415671, Note_on_c, 11, 68, 0
14, 415671, Note_on_c, 11, 58, 0
14, 415680, Note_on_c, 11, 68, 76
14, 415680, Note_on_c, 11, 58, 76
14, 415680, Control_c, 11, 11, 96
14, 415731, Note_on_c, 11, 68, 0
14, 415731, Note_on_c, 11, 58, 0
14, 415740, Note_on_c, 11, 58, 76
14, 415740, Note_on_c, 11, 68, 76
14, 415760, Control_c, 11, 11, 97
14, 415791, Note_on_c, 11, 58, 0
14, 415791, Note_on_c, 11, 68, 0
14, 415800, Note_on_c, 11, 68, 76
14, 415800, Note_on_c, 11, 58, 76
14, 415840, Control_c, 11, 11, 98
14, 415851, Note_on_c, 11, 68, 0
14, 415851, Note_on_c, 11, 58, 0
14, 415860, Note_on_c, 11, 68, 76
14, 415860, Note_on_c, 11, 58, 76
14, 415911, Note_on_c, 11, 68, 0
14, 415911, Note_on_c, 11, 58, 0
14, 415920, Note_on_c, 11, 58, 76
14, 415920, Control_c, 11, 11, 100
14, 415920, Note_on_c, 11, 68, 76
14, 415971, Note_on_c, 11, 58, 0
14, 415971, Note_on_c, 11, 68, 0
14, 415980, Note_on_c, 11, 58, 76
14, 415980, Note_on_c, 11, 68, 76
14, 416000, Control_c, 11, 11, 101
14, 416031, Note_on_c, 11, 58, 0
14, 416031, Note_on_c, 11, 68, 0
14, 416040, Note_on_c, 11, 68, 76
14, 416040, Note_on_c, 11, 58, 76
14, 416080, Control_c, 11, 11, 102
14, 416091, Note_on_c, 11, 68, 0
14, 416091, Note_on_c, 11, 58, 0
14, 416100, Note_on_c, 11, 58, 76
14, 416100, Note_on_c, 11, 68, 76
14, 416151, Note_on_c, 11, 58, 0
14, 416151, Note_on_c, 11, 68, 0
14, 416160, Control_c, 11, 11, 104
14, 416160, Note_on_c, 11, 68, 76
14, 416160, Note_on_c, 11, 58, 76
14, 416211, Note_on_c, 11, 68, 0
14, 416211, Note_on_c, 11, 58, 0
14, 416220, Note_on_c, 11, 58, 76
14, 416220, Note_on_c, 11, 68, 76
14, 416240, Control_c, 11, 11, 105
14, 416271, Note_on_c, 11, 58, 0
14, 416271, Note_on_c, 11, 68, 0
14, 416280, Note_on_c, 11, 58, 76
14, 416280, Note_on_c, 11, 68, 76
14, 416320, Control_c, 11, 11, 106
14, 416331, Note_on_c, 11, 58, 0
14, 416331, Note_on_c, 11, 68, 0
14, 416340, Note_on_c, 11, 68, 76
14, 416340, Note_on_c, 11, 58, 76
14, 416391, Note_on_c, 11, 68, 0
14, 416391, Note_on_c, 11, 58, 0
14, 416400, Control_c, 11, 11, 107
14, 416400, Note_on_c, 11, 68, 76
14, 416400, Note_on_c, 11, 58, 76
14, 416451, Note_on_c, 11, 68, 0
14, 416451, Note_on_c, 11, 58, 0
14, 416460, Note_on_c, 11, 58, 76
14, 416460, Note_on_c, 11, 68, 76
14, 416480, Control_c, 11, 11, 109
14, 416511, Note_on_c, 11, 58, 0
14, 416511, Note_on_c, 11, 68, 0
14, 416520, Note_on_c, 11, 58, 76
14, 416520, Note_on_c, 11, 68, 76
14, 416560, Control_c, 11, 11, 110
14, 416571, Note_on_c, 11, 58, 0
14, 416571, Note_on_c, 11, 68, 0
14, 416580, Note_on_c, 11, 58, 76
14, 416580, Note_on_c, 11, 68, 76
14, 416631, Note_on_c, 11, 58, 0
14, 416631, Note_on_c, 11, 68, 0
14, 416640, Note_on_c, 11, 70, 76
14, 416640, Control_c, 11, 11, 111
14, 416691, Note_on_c, 11, 70, 0
14, 416700, Note_on_c, 11, 70, 76
14, 416720, Control_c, 11, 11, 113
14, 416751, Note_on_c, 11, 70, 0
14, 416760, Note_on_c, 11, 72, 76
14, 416800, Control_c, 11, 11, 114
14, 416811, Note_on_c, 11, 72, 0
14, 416820, Note_on_c, 11, 72, 76
14, 416871, Note_on_c, 11, 72, 0
14, 416880, Control_c, 11, 11, 115
14, 416880, Note_on_c, 11, 74, 76
14, 416931, Note_on_c, 11, 74, 0
14, 416940, Note_on_c, 11, 74, 76
14, 416960, Control_c, 11, 11, 117
14, 416991, Note_on_c, 11, 74, 0
14, 417000, Note_on_c, 11, 75, 76
14, 417040, Control_c, 11, 11, 118
14, 417051, Note_on_c, 11, 75, 0
14, 417060, Note_on_c, 11, 75, 76
14, 417111, Note_on_c, 11, 75, 0
14, 417120, Control_c, 11, 11, 119
14, 417120, Note_on_c, 11, 77, 76
14, 417171, Note_on_c, 11, 77, 0
14, 417180, Note_on_c, 11, 77, 76
14, 417200, Control_c, 11, 11, 120
14, 417231, Note_on_c, 11, 77, 0
14, 417240, Note_on_c, 11, 79, 76
14, 417280, Control_c, 11, 11, 122
14, 417291, Note_on_c, 11, 79, 0
14, 417300, Note_on_c, 11, 79, 76
14, 417351, Note_on_c, 11, 79, 0
14, 417360, Control_c, 11, 11, 123
14, 417360, Note_on_c, 11, 80, 76
14, 417411, Note_on_c, 11, 80, 0
14, 417420, Note_on_c, 11, 80, 76
14, 417440, Control_c, 11, 11, 124
14, 417471, Note_on_c, 11, 80, 0
14, 417480, Note_on_c, 11, 74, 76
14, 417520, Control_c, 11, 11, 127
14, 417531, Note_on_c, 11, 74, 0
14, 417540, Note_on_c, 11, 74, 76
14, 417591, Note_on_c, 11, 74, 0
14, 417600, Note_on_c, 11, 75, 76
14, 417651, Note_on_c, 11, 75, 0
14, 417660, Note_on_c, 11, 75, 76
14, 417711, Note_on_c, 11, 75, 0
14, 417720, Note_on_c, 11, 75, 76
14, 417771, Note_on_c, 11, 75, 0
14, 417780, Note_on_c, 11, 75, 76
14, 417831, Note_on_c, 11, 75, 0
14, 417840, Note_on_c, 11, 75, 76
14, 417891, Note_on_c, 11, 75, 0
14, 417900, Note_on_c, 11, 75, 76
14, 417951, Note_on_c, 11, 75, 0
14, 417960, Note_on_c, 11, 75, 76
14, 418011, Note_on_c, 11, 75, 0
14, 418020, Note_on_c, 11, 75, 76
14, 418071, Note_on_c, 11, 75, 0
14, 418080, Note_on_c, 11, 79, 76
14, 418131, Note_on_c, 11, 79, 0
14, 418140, Note_on_c, 11, 79, 76
14, 418191, Note_on_c, 11, 79, 0
14, 418200, Note_on_c, 11, 79, 76
14, 418251, Note_on_c, 11, 79, 0
14, 418260, Note_on_c, 11, 79, 76
14, 418311, Note_on_c, 11, 79, 0
14, 418320, Note_on_c, 11, 75, 76
14, 418371, Note_on_c, 11, 75, 0
14, 418380, Note_on_c, 11, 75, 76
14, 418431, Note_on_c, 11, 75, 0
14, 418440, Note_on_c, 11, 75, 76
14, 418491, Note_on_c, 11, 75, 0
14, 418500, Note_on_c, 11, 75, 76
14, 418551, Note_on_c, 11, 75, 0
14, 418560, Note_on_c, 11, 75, 76
14, 418611, Note_on_c, 11, 75, 0
14, 418620, Note_on_c, 11, 75, 76
14, 418671, Note_on_c, 11, 75, 0
14, 418680, Note_on_c, 11, 75, 76
14, 418731, Note_on_c, 11, 75, 0
14, 418740, Note_on_c, 11, 75, 76
14, 418791, Note_on_c, 11, 75, 0
14, 418800, Note_on_c, 11, 70, 76
14, 418851, Note_on_c, 11, 70, 0
14, 418860, Note_on_c, 11, 70, 76
14, 418911, Note_on_c, 11, 70, 0
14, 418920, Note_on_c, 11, 70, 76
14, 418971, Note_on_c, 11, 70, 0
14, 418980, Note_on_c, 11, 70, 76
14, 419031, Note_on_c, 11, 70, 0
14, 419040, Note_on_c, 11, 75, 76
14, 419091, Note_on_c, 11, 75, 0
14, 419100, Note_on_c, 11, 75, 76
14, 419151, Note_on_c, 11, 75, 0
14, 419160, Note_on_c, 11, 75, 76
14, 419211, Note_on_c, 11, 75, 0
14, 419220, Note_on_c, 11, 75, 76
14, 419271, Note_on_c, 11, 75, 0
14, 419280, Note_on_c, 11, 79, 76
14, 419331, Note_on_c, 11, 79, 0
14, 419340, Note_on_c, 11, 79, 76
14, 419391, Note_on_c, 11, 79, 0
14, 419400, Note_on_c, 11, 79, 76
14, 419451, Note_on_c, 11, 79, 0
14, 419460, Note_on_c, 11, 79, 76
14, 419511, Note_on_c, 11, 79, 0
14, 419520, Note_on_c, 11, 82, 76
14, 419571, Note_on_c, 11, 82, 0
14, 419580, Note_on_c, 11, 82, 76
14, 419631, Note_on_c, 11, 82, 0
14, 419640, Note_on_c, 11, 82, 76
14, 419691, Note_on_c, 11, 82, 0
14, 419700, Note_on_c, 11, 82, 76
14, 419751, Note_on_c, 11, 82, 0
14, 419760, Note_on_c, 11, 75, 76
14, 419811, Note_on_c, 11, 75, 0
14, 419820, Note_on_c, 11, 75, 76
14, 419871, Note_on_c, 11, 75, 0
14, 419880, Note_on_c, 11, 75, 76
14, 419931, Note_on_c, 11, 75, 0
14, 419940, Note_on_c, 11, 75, 76
14, 419991, Note_on_c, 11, 75, 0
14, 420000, Note_on_c, 11, 75, 76
14, 420051, Note_on_c, 11, 75, 0
14, 420060, Note_on_c, 11, 75, 76
14, 420111, Note_on_c, 11, 75, 0
14, 420120, Note_on_c, 11, 75, 76
14, 420171, Note_on_c, 11, 75, 0
14, 420180, Note_on_c, 11, 75, 76
14, 420231, Note_on_c, 11, 75, 0
14, 420240, Note_on_c, 11, 76, 84
14, 420291, Note_on_c, 11, 76, 0
14, 420300, Note_on_c, 11, 76, 76
14, 420351, Note_on_c, 11, 76, 0
14, 420360, Note_on_c, 11, 76, 76
14, 420411, Note_on_c, 11, 76, 0
14, 420420, Note_on_c, 11, 76, 76
14, 420471, Note_on_c, 11, 76, 0
14, 420480, Note_on_c, 11, 77, 76
14, 420531, Note_on_c, 11, 77, 0
14, 420540, Note_on_c, 11, 77, 76
14, 420591, Note_on_c, 11, 77, 0
14, 420600, Note_on_c, 11, 77, 76
14, 420651, Note_on_c, 11, 77, 0
14, 420660, Note_on_c, 11, 77, 76
14, 420711, Note_on_c, 11, 77, 0
14, 420720, Note_on_c, 11, 80, 76
14, 420771, Note_on_c, 11, 80, 0
14, 420780, Note_on_c, 11, 80, 76
14, 420831, Note_on_c, 11, 80, 0
14, 420840, Note_on_c, 11, 80, 76
14, 420891, Note_on_c, 11, 80, 0
14, 420900, Note_on_c, 11, 80, 76
14, 420951, Note_on_c, 11, 80, 0
14, 420960, Note_on_c, 11, 84, 76
14, 421011, Note_on_c, 11, 84, 0
14, 421020, Note_on_c, 11, 84, 76
14, 421071, Note_on_c, 11, 84, 0
14, 421080, Note_on_c, 11, 84, 76
14, 421131, Note_on_c, 11, 84, 0
14, 421140, Note_on_c, 11, 84, 76
14, 421191, Note_on_c, 11, 84, 0
14, 421200, Note_on_c, 11, 77, 76
14, 421251, Note_on_c, 11, 77, 0
14, 421260, Note_on_c, 11, 77, 76
14, 421311, Note_on_c, 11, 77, 0
14, 421320, Note_on_c, 11, 77, 76
14, 421371, Note_on_c, 11, 77, 0
14, 421380, Note_on_c, 11, 77, 76
14, 421431, Note_on_c, 11, 77, 0
14, 421440, Note_on_c, 11, 77, 76
14, 421491, Note_on_c, 11, 77, 0
14, 421500, Note_on_c, 11, 77, 76
14, 421551, Note_on_c, 11, 77, 0
14, 421560, Note_on_c, 11, 77, 76
14, 421611, Note_on_c, 11, 77, 0
14, 421620, Note_on_c, 11, 77, 76
14, 421671, Note_on_c, 11, 77, 0
14, 421680, Note_on_c, 11, 78, 84
14, 421731, Note_on_c, 11, 78, 0
14, 421740, Note_on_c, 11, 78, 76
14, 421791, Note_on_c, 11, 78, 0
14, 421800, Note_on_c, 11, 78, 76
14, 421851, Note_on_c, 11, 78, 0
14, 421860, Note_on_c, 11, 78, 76
14, 421911, Note_on_c, 11, 78, 0
14, 421920, Note_on_c, 11, 79, 80
14, 421971, Note_on_c, 11, 79, 0
14, 421980, Note_on_c, 11, 79, 80
14, 422031, Note_on_c, 11, 79, 0
14, 422040, Note_on_c, 11, 79, 80
14, 422091, Note_on_c, 11, 79, 0
14, 422100, Note_on_c, 11, 79, 80
14, 422151, Note_on_c, 11, 79, 0
14, 422160, Note_on_c, 11, 82, 80
14, 422211, Note_on_c, 11, 82, 0
14, 422220, Note_on_c, 11, 82, 80
14, 422271, Note_on_c, 11, 82, 0
14, 422280, Note_on_c, 11, 82, 80
14, 422331, Note_on_c, 11, 82, 0
14, 422340, Note_on_c, 11, 82, 80
14, 422391, Note_on_c, 11, 82, 0
14, 422400, Note_on_c, 11, 85, 80
14, 422451, Note_on_c, 11, 85, 0
14, 422460, Note_on_c, 11, 85, 80
14, 422511, Note_on_c, 11, 85, 0
14, 422520, Note_on_c, 11, 85, 80
14, 422571, Note_on_c, 11, 85, 0
14, 422580, Note_on_c, 11, 85, 80
14, 422631, Note_on_c, 11, 85, 0
14, 422640, Note_on_c, 11, 80, 80
14, 422691, Note_on_c, 11, 80, 0
14, 422700, Note_on_c, 11, 80, 80
14, 422751, Note_on_c, 11, 80, 0
14, 422760, Note_on_c, 11, 80, 80
14, 422811, Note_on_c, 11, 80, 0
14, 422820, Note_on_c, 11, 80, 80
14, 422871, Note_on_c, 11, 80, 0
14, 422880, Note_on_c, 11, 84, 80
14, 422931, Note_on_c, 11, 84, 0
14, 422940, Note_on_c, 11, 84, 80
14, 422991, Note_on_c, 11, 84, 0
14, 423000, Note_on_c, 11, 84, 80
14, 423051, Note_on_c, 11, 84, 0
14, 423060, Note_on_c, 11, 84, 80
14, 423111, Note_on_c, 11, 84, 0
14, 423120, Note_on_c, 11, 87, 80
14, 423171, Note_on_c, 11, 87, 0
14, 423180, Note_on_c, 11, 87, 80
14, 423231, Note_on_c, 11, 87, 0
14, 423240, Note_on_c, 11, 87, 80
14, 423291, Note_on_c, 11, 87, 0
14, 423300, Note_on_c, 11, 87, 80
14, 423351, Note_on_c, 11, 87, 0
14, 423360, Note_on_c, 11, 80, 80
14, 423411, Note_on_c, 11, 80, 0
14, 423420, Note_on_c, 11, 80, 80
14, 423471, Note_on_c, 11, 80, 0
14, 423480, Note_on_c, 11, 80, 80
14, 423531, Note_on_c, 11, 80, 0
14, 423540, Note_on_c, 11, 80, 80
14, 423591, Note_on_c, 11, 80, 0
14, 423600, Note_on_c, 11, 86, 80
14, 423651, Note_on_c, 11, 86, 0
14, 423660, Note_on_c, 11, 86, 80
14, 423711, Note_on_c, 11, 86, 0
14, 423720, Note_on_c, 11, 86, 80
14, 423771, Note_on_c, 11, 86, 0
14, 423780, Note_on_c, 11, 86, 80
14, 423831, Note_on_c, 11, 86, 0
14, 423840, Note_on_c, 11, 89, 80
14, 423891, Note_on_c, 11, 89, 0
14, 423900, Note_on_c, 11, 89, 80
14, 423951, Note_on_c, 11, 89, 0
14, 423960, Note_on_c, 11, 89, 80
14, 424011, Note_on_c, 11, 89, 0
14, 424020, Note_on_c, 11, 89, 80
14, 424071, Note_on_c, 11, 89, 0
14, 424080, Note_on_c, 11, 92, 80
14, 424131, Note_on_c, 11, 92, 0
14, 424140, Note_on_c, 11, 92, 80
14, 424191, Note_on_c, 11, 92, 0
14, 424200, Note_on_c, 11, 92, 80
14, 424251, Note_on_c, 11, 92, 0
14, 424260, Note_on_c, 11, 92, 80
14, 424311, Note_on_c, 11, 92, 0
14, 424320, Note_on_c, 11, 92, 80
14, 424371, Note_on_c, 11, 92, 0
14, 424380, Note_on_c, 11, 92, 80
14, 424431, Note_on_c, 11, 92, 0
14, 424440, Note_on_c, 11, 92, 80
14, 424491, Note_on_c, 11, 92, 0
14, 424500, Note_on_c, 11, 92, 80
14, 424551, Note_on_c, 11, 92, 0
14, 424560, Note_on_c, 11, 92, 80
14, 424611, Note_on_c, 11, 92, 0
14, 424620, Note_on_c, 11, 92, 80
14, 424671, Note_on_c, 11, 92, 0
14, 424680, Note_on_c, 11, 92, 80
14, 424731, Note_on_c, 11, 92, 0
14, 424740, Note_on_c, 11, 92, 80
14, 424791, Note_on_c, 11, 92, 0
14, 424800, Note_on_c, 11, 91, 84
14, 424851, Note_on_c, 11, 91, 0
14, 424860, Note_on_c, 11, 91, 84
14, 424911, Note_on_c, 11, 91, 0
14, 424920, Note_on_c, 11, 91, 84
14, 424971, Note_on_c, 11, 91, 0
14, 424980, Note_on_c, 11, 91, 84
14, 425031, Note_on_c, 11, 91, 0
14, 425040, Note_on_c, 11, 91, 84
14, 425091, Note_on_c, 11, 91, 0
14, 425100, Note_on_c, 11, 91, 84
14, 425151, Note_on_c, 11, 91, 0
14, 425160, Note_on_c, 11, 91, 84
14, 425211, Note_on_c, 11, 91, 0
14, 425220, Note_on_c, 11, 91, 84
14, 425271, Note_on_c, 11, 91, 0
14, 425280, Note_on_c, 11, 91, 92
14, 425331, Note_on_c, 11, 91, 0
14, 425340, Note_on_c, 11, 91, 84
14, 425391, Note_on_c, 11, 91, 0
14, 425400, Note_on_c, 11, 91, 84
14, 425451, Note_on_c, 11, 91, 0
14, 425460, Note_on_c, 11, 91, 84
14, 425511, Note_on_c, 11, 91, 0
14, 425520, Note_on_c, 11, 91, 84
14, 425571, Note_on_c, 11, 91, 0
14, 425580, Note_on_c, 11, 91, 84
14, 425631, Note_on_c, 11, 91, 0
14, 425640, Note_on_c, 11, 91, 84
14, 425691, Note_on_c, 11, 91, 0
14, 425700, Note_on_c, 11, 91, 84
14, 425751, Note_on_c, 11, 91, 0
14, 425760, Note_on_c, 11, 91, 84
14, 425811, Note_on_c, 11, 91, 0
14, 425820, Note_on_c, 11, 91, 84
14, 425871, Note_on_c, 11, 91, 0
14, 425880, Note_on_c, 11, 91, 84
14, 425931, Note_on_c, 11, 91, 0
14, 425940, Note_on_c, 11, 91, 84
14, 425991, Note_on_c, 11, 91, 0
14, 426000, Note_on_c, 11, 91, 92
14, 426051, Note_on_c, 11, 91, 0
14, 426060, Note_on_c, 11, 91, 84
14, 426111, Note_on_c, 11, 91, 0
14, 426120, Note_on_c, 11, 91, 84
14, 426171, Note_on_c, 11, 91, 0
14, 426180, Note_on_c, 11, 91, 84
14, 426231, Note_on_c, 11, 91, 0
14, 426240, Note_on_c, 11, 91, 84
14, 426291, Note_on_c, 11, 91, 0
14, 426300, Note_on_c, 11, 91, 84
14, 426351, Note_on_c, 11, 91, 0
14, 426360, Note_on_c, 11, 91, 84
14, 426411, Note_on_c, 11, 91, 0
14, 426420, Note_on_c, 11, 91, 84
14, 426471, Note_on_c, 11, 91, 0
14, 426480, Note_on_c, 11, 91, 84
14, 426531, Note_on_c, 11, 91, 0
14, 426540, Note_on_c, 11, 91, 84
14, 426591, Note_on_c, 11, 91, 0
14, 426600, Note_on_c, 11, 91, 84
14, 426651, Note_on_c, 11, 91, 0
14, 426660, Note_on_c, 11, 91, 84
14, 426711, Note_on_c, 11, 91, 0
14, 426720, Note_on_c, 11, 91, 84
14, 426771, Note_on_c, 11, 91, 0
14, 426780, Note_on_c, 11, 91, 84
14, 426831, Note_on_c, 11, 91, 0
14, 426840, Note_on_c, 11, 91, 84
14, 426891, Note_on_c, 11, 91, 0
14, 426900, Note_on_c, 11, 91, 84
14, 426951, Note_on_c, 11, 91, 0
14, 426960, Note_on_c, 11, 91, 84
14, 427011, Note_on_c, 11, 91, 0
14, 427020, Note_on_c, 11, 91, 84
14, 427071, Note_on_c, 11, 91, 0
14, 427080, Note_on_c, 11, 91, 84
14, 427131, Note_on_c, 11, 91, 0
14, 427140, Note_on_c, 11, 91, 84
14, 427191, Note_on_c, 11, 91, 0
14, 427200, Note_on_c, 11, 91, 84
14, 427251, Note_on_c, 11, 91, 0
14, 427260, Note_on_c, 11, 91, 84
14, 427311, Note_on_c, 11, 91, 0
14, 427320, Note_on_c, 11, 91, 84
14, 427371, Note_on_c, 11, 91, 0
14, 427380, Note_on_c, 11, 91, 84
14, 427431, Note_on_c, 11, 91, 0
14, 427440, Note_on_c, 11, 91, 92
14, 427491, Note_on_c, 11, 91, 0
14, 427500, Note_on_c, 11, 91, 84
14, 427551, Note_on_c, 11, 91, 0
14, 427560, Note_on_c, 11, 91, 84
14, 427611, Note_on_c, 11, 91, 0
14, 427620, Note_on_c, 11, 91, 84
14, 427671, Note_on_c, 11, 91, 0
14, 427680, Note_on_c, 11, 91, 84
14, 427731, Note_on_c, 11, 91, 0
14, 427740, Note_on_c, 11, 91, 84
14, 427791, Note_on_c, 11, 91, 0
14, 427800, Note_on_c, 11, 91, 84
14, 427851, Note_on_c, 11, 91, 0
14, 427860, Note_on_c, 11, 91, 84
14, 427911, Note_on_c, 11, 91, 0
14, 427920, Note_on_c, 11, 91, 84
14, 427971, Note_on_c, 11, 91, 0
14, 427980, Note_on_c, 11, 91, 84
14, 428031, Note_on_c, 11, 91, 0
14, 428040, Note_on_c, 11, 91, 84
14, 428091, Note_on_c, 11, 91, 0
14, 428100, Note_on_c, 11, 91, 84
14, 428151, Note_on_c, 11, 91, 0
14, 428160, Note_on_c, 11, 91, 84
14, 428211, Note_on_c, 11, 91, 0
14, 428220, Note_on_c, 11, 91, 84
14, 428271, Note_on_c, 11, 91, 0
14, 428280, Note_on_c, 11, 91, 84
14, 428331, Note_on_c, 11, 91, 0
14, 428340, Note_on_c, 11, 91, 84
14, 428391, Note_on_c, 11, 91, 0
14, 428400, Note_on_c, 11, 91, 84
14, 428451, Note_on_c, 11, 91, 0
14, 428460, Note_on_c, 11, 91, 84
14, 428511, Note_on_c, 11, 91, 0
14, 428520, Note_on_c, 11, 91, 84
14, 428571, Note_on_c, 11, 91, 0
14, 428580, Note_on_c, 11, 91, 84
14, 428631, Note_on_c, 11, 91, 0
14, 428640, Note_on_c, 11, 91, 84
14, 428691, Note_on_c, 11, 91, 0
14, 428700, Note_on_c, 11, 91, 84
14, 428751, Note_on_c, 11, 91, 0
14, 428760, Note_on_c, 11, 91, 84
14, 428811, Note_on_c, 11, 91, 0
14, 428820, Note_on_c, 11, 91, 84
14, 428871, Note_on_c, 11, 91, 0
14, 428880, Note_on_c, 11, 91, 92
14, 428931, Note_on_c, 11, 91, 0
14, 428940, Note_on_c, 11, 91, 84
14, 428991, Note_on_c, 11, 91, 0
14, 429000, Note_on_c, 11, 91, 84
14, 429051, Note_on_c, 11, 91, 0
14, 429060, Note_on_c, 11, 91, 84
14, 429111, Note_on_c, 11, 91, 0
14, 429120, Note_on_c, 11, 91, 84
14, 429171, Note_on_c, 11, 91, 0
14, 429180, Note_on_c, 11, 91, 84
14, 429231, Note_on_c, 11, 91, 0
14, 429240, Note_on_c, 11, 89, 84
14, 429291, Note_on_c, 11, 89, 0
14, 429300, Note_on_c, 11, 89, 84
14, 429351, Note_on_c, 11, 89, 0
14, 429360, Note_on_c, 11, 88, 84
14, 429411, Note_on_c, 11, 88, 0
14, 429420, Note_on_c, 11, 88, 84
14, 429471, Note_on_c, 11, 88, 0
14, 429480, Note_on_c, 11, 89, 84
14, 429531, Note_on_c, 11, 89, 0
14, 429540, Note_on_c, 11, 89, 84
14, 429591, Note_on_c, 11, 89, 0
14, 429600, Note_on_c, 11, 91, 84
14, 429651, Note_on_c, 11, 91, 0
14, 429660, Note_on_c, 11, 91, 84
14, 429711, Note_on_c, 11, 91, 0
14, 429720, Note_on_c, 11, 89, 84
14, 429771, Note_on_c, 11, 89, 0
14, 429780, Note_on_c, 11, 89, 84
14, 429831, Note_on_c, 11, 89, 0
14, 429840, Note_on_c, 11, 89, 84
14, 429891, Note_on_c, 11, 89, 0
14, 429900, Note_on_c, 11, 89, 84
14, 429951, Note_on_c, 11, 89, 0
14, 429960, Note_on_c, 11, 87, 84
14, 430011, Note_on_c, 11, 87, 0
14, 430020, Note_on_c, 11, 87, 84
14, 430071, Note_on_c, 11, 87, 0
14, 430080, Note_on_c, 11, 86, 84
14, 430131, Note_on_c, 11, 86, 0
14, 430140, Note_on_c, 11, 86, 84
14, 430191, Note_on_c, 11, 86, 0
14, 430200, Note_on_c, 11, 87, 84
14, 430251, Note_on_c, 11, 87, 0
14, 430260, Note_on_c, 11, 87, 84
14, 430311, Note_on_c, 11, 87, 0
14, 430320, Note_on_c, 11, 89, 84
14, 430371, Note_on_c, 11, 89, 0
14, 430380, Note_on_c, 11, 89, 84
14, 430431, Note_on_c, 11, 89, 0
14, 430440, Note_on_c, 11, 87, 84
14, 430491, Note_on_c, 11, 87, 0
14, 430500, Note_on_c, 11, 87, 84
14, 430551, Note_on_c, 11, 87, 0
14, 430560, Note_on_c, 11, 86, 84
14, 430799, Note_on_c, 11, 86, 0
14, 432960, Note_on_c, 11, 77, 52
14, 433319, Note_on_c, 11, 77, 0
14, 433320, Note_on_c, 11, 68, 52
14, 433424, Note_on_c, 11, 68, 0
14, 433440, Note_on_c, 11, 67, 52
14, 433679, Note_on_c, 11, 67, 0
14, 435840, Note_on_c, 11, 75, 52
14, 436199, Note_on_c, 11, 75, 0
14, 436200, Note_on_c, 11, 67, 52
14, 436304, Note_on_c, 11, 67, 0
14, 436320, Note_on_c, 11, 68, 52
14, 436439, Note_on_c, 11, 68, 0
14, 436440, Note_on_c, 11, 65, 52
14, 436559, Note_on_c, 11, 65, 0
14, 436560, Note_on_c, 11, 68, 52
14, 436679, Note_on_c, 11, 68, 0
14, 436680, Note_on_c, 11, 65, 52
14, 436799, Note_on_c, 11, 65, 0
14, 436800, Note_on_c, 11, 68, 52
14, 436919, Note_on_c, 11, 68, 0
14, 436920, Note_on_c, 11, 65, 52
14, 437024, Note_on_c, 11, 65, 0
14, 437040, Note_on_c, 11, 68, 52
14, 437159, Note_on_c, 11, 68, 0
14, 437160, Note_on_c, 11, 65, 52
14, 437279, Note_on_c, 11, 65, 0
14, 437280, Note_on_c, 11, 68, 52
14, 437399, Note_on_c, 11, 68, 0
14, 437400, Note_on_c, 11, 65, 52
14, 437519, Note_on_c, 11, 65, 0
14, 437520, Note_on_c, 11, 68, 52
14, 437639, Note_on_c, 11, 68, 0
14, 437640, Note_on_c, 11, 65, 52
14, 437744, Note_on_c, 11, 65, 0
14, 437760, Note_on_c, 11, 68, 52
14, 437984, Note_on_c, 11, 68, 0
14, 438000, Note_on_c, 11, 84, 84
14, 438344, Note_on_c, 11, 84, 0
14, 438360, Note_on_c, 11, 82, 84
14, 438449, Note_on_c, 11, 82, 0
14, 438480, Note_on_c, 11, 80, 84
14, 438659, Note_on_c, 11, 80, 0
14, 438720, Note_on_c, 11, 79, 84
14, 438899, Note_on_c, 11, 79, 0
14, 438960, Note_on_c, 11, 77, 84
14, 439139, Note_on_c, 11, 77, 0
14, 439200, Control_c, 11, 11, 96
14, 439200, Note_on_c, 11, 75, 68
14, 439260, Control_c, 11, 11, 99
14, 439320, Control_c, 11, 11, 101
14, 439380, Control_c, 11, 11, 104
14, 439440, Control_c, 11, 11, 106
14, 439500, Control_c, 11, 11, 109
14, 439560, Control_c, 11, 11, 112
14, 439620, Control_c, 11, 11, 114
14, 439680, Control_c, 11, 11, 117
14, 439740, Control_c, 11, 11, 119
14, 439800, Control_c, 11, 11, 122
14, 439860, Control_c, 11, 11, 124
14, 439920, Control_c, 11, 11, 127
14, 439980, Control_c, 11, 11, 124
14, 440040, Control_c, 11, 11, 122
14, 440100, Control_c, 11, 11, 119
14, 440160, Control_c, 11, 11, 117
14, 440220, Control_c, 11, 11, 114
14, 440280, Control_c, 11, 11, 112
14, 440340, Control_c, 11, 11, 109
14, 440400, Control_c, 11, 11, 106
14, 440460, Control_c, 11, 11, 104
14, 440520, Control_c, 11, 11, 101
14, 440580, Control_c, 11, 11, 96
14, 440879, Note_on_c, 11, 75, 0
14, 440880, Note_on_c, 11, 82, 68
14, 441104, Note_on_c, 11, 82, 0
14, 441120, Note_on_c, 11, 82, 68
14, 441329, Note_on_c, 11, 82, 0
14, 441360, Note_on_c, 11, 82, 68
14, 441569, Note_on_c, 11, 82, 0
14, 441600, Note_on_c, 11, 82, 68
14, 441809, Note_on_c, 11, 82, 0
14, 441840, Note_on_c, 11, 82, 68
14, 442049, Note_on_c, 11, 82, 0
14, 442065, Control_c, 11, 11, 80
14, 442080, Note_on_c, 11, 82, 76
14, 442169, Note_on_c, 11, 82, 0
14, 442200, Note_on_c, 11, 79, 76
14, 442319, Note_on_c, 11, 79, 0
14, 442320, Control_c, 11, 11, 80
14, 442320, Note_on_c, 11, 77, 76
14, 442430, Control_c, 11, 11, 82
14, 442439, Note_on_c, 11, 77, 0
14, 442440, Note_on_c, 11, 79, 76
14, 442540, Control_c, 11, 11, 84
14, 442559, Note_on_c, 11, 79, 0
14, 442560, Note_on_c, 11, 80, 76
14, 442650, Control_c, 11, 11, 86
14, 442679, Note_on_c, 11, 80, 0
14, 442680, Note_on_c, 11, 82, 76
14, 442760, Control_c, 11, 11, 88
14, 442784, Note_on_c, 11, 82, 0
14, 442800, Note_on_c, 11, 84, 76
14, 442870, Control_c, 11, 11, 90
14, 442919, Note_on_c, 11, 84, 0
14, 442920, Note_on_c, 11, 86, 76
14, 442980, Control_c, 11, 11, 92
14, 443024, Note_on_c, 11, 86, 0
14, 443040, Note_on_c, 11, 87, 76
14, 443090, Control_c, 11, 11, 94
14, 443129, Note_on_c, 11, 87, 0
14, 443160, Note_on_c, 11, 87, 76
14, 443200, Control_c, 11, 11, 96
14, 443249, Note_on_c, 11, 87, 0
14, 443280, Note_on_c, 11, 87, 76
14, 443310, Control_c, 11, 11, 98
14, 443369, Note_on_c, 11, 87, 0
14, 443400, Note_on_c, 11, 87, 76
14, 443420, Control_c, 11, 11, 100
14, 443489, Note_on_c, 11, 87, 0
14, 443520, Note_on_c, 11, 87, 76
14, 443530, Control_c, 11, 11, 102
14, 443609, Note_on_c, 11, 87, 0
14, 443640, Note_on_c, 11, 75, 76
14, 443640, Control_c, 11, 11, 104
14, 443729, Note_on_c, 11, 75, 0
14, 443750, Control_c, 11, 11, 105
14, 443760, Note_on_c, 11, 74, 76
14, 443849, Note_on_c, 11, 74, 0
14, 443860, Control_c, 11, 11, 107
14, 443880, Note_on_c, 11, 75, 76
14, 443969, Note_on_c, 11, 75, 0
14, 443970, Control_c, 11, 11, 109
14, 444000, Note_on_c, 11, 77, 76
14, 444080, Control_c, 11, 11, 111
14, 444089, Note_on_c, 11, 77, 0
14, 444120, Note_on_c, 11, 79, 76
14, 444190, Control_c, 11, 11, 113
14, 444209, Note_on_c, 11, 79, 0
14, 444240, Note_on_c, 11, 80, 76
14, 444300, Control_c, 11, 11, 115
14, 444329, Note_on_c, 11, 80, 0
14, 444360, Note_on_c, 11, 80, 76
14, 444410, Control_c, 11, 11, 117
14, 444449, Note_on_c, 11, 80, 0
14, 444480, Note_on_c, 11, 80, 76
14, 444520, Control_c, 11, 11, 119
14, 444569, Note_on_c, 11, 80, 0
14, 444600, Note_on_c, 11, 80, 76
14, 444630, Control_c, 11, 11, 121
14, 444689, Note_on_c, 11, 80, 0
14, 444720, Note_on_c, 11, 80, 76
14, 444740, Control_c, 11, 11, 123
14, 444809, Note_on_c, 11, 80, 0
14, 444840, Note_on_c, 11, 80, 76
14, 444850, Control_c, 11, 11, 127
14, 444929, Note_on_c, 11, 80, 0
14, 444960, Note_on_c, 11, 80, 76
14, 445049, Note_on_c, 11, 80, 0
14, 445080, Note_on_c, 11, 77, 76
14, 445139, Note_on_c, 11, 77, 0
14, 445140, Note_on_c, 11, 79, 76
14, 445191, Note_on_c, 11, 79, 0
14, 445200, Note_on_c, 11, 77, 76
14, 445289, Note_on_c, 11, 77, 0
14, 445320, Note_on_c, 11, 74, 76
14, 445379, Note_on_c, 11, 74, 0
14, 445380, Note_on_c, 11, 75, 76
14, 445431, Note_on_c, 11, 75, 0
14, 445440, Note_on_c, 11, 74, 76
14, 445529, Note_on_c, 11, 74, 0
14, 445560, Note_on_c, 11, 68, 76
14, 445619, Note_on_c, 11, 68, 0
14, 445620, Note_on_c, 11, 70, 76
14, 445671, Note_on_c, 11, 70, 0
14, 445680, Note_on_c, 11, 68, 76
14, 445769, Note_on_c, 11, 68, 0
14, 445800, Note_on_c, 11, 65, 76
14, 445859, Note_on_c, 11, 65, 0
14, 445860, Note_on_c, 11, 67, 76
14, 445911, Note_on_c, 11, 67, 0
14, 445920, Note_on_c, 11, 65, 76
14, 446009, Note_on_c, 11, 65, 0
14, 446040, Note_on_c, 11, 62, 76
14, 446099, Note_on_c, 11, 62, 0
14, 446100, Note_on_c, 11, 63, 76
14, 446151, Note_on_c, 11, 63, 0
14, 446160, Note_on_c, 11, 62, 76
14, 446249, Note_on_c, 11, 62, 0
14, 446280, Note_on_c, 11, 80, 76
14, 446369, Note_on_c, 11, 80, 0
14, 446400, Note_on_c, 11, 79, 76
14, 446489, Note_on_c, 11, 79, 0
14, 446520, Note_on_c, 11, 75, 76
14, 446579, Note_on_c, 11, 75, 0
14, 446580, Note_on_c, 11, 77, 76
14, 446631, Note_on_c, 11, 77, 0
14, 446640, Note_on_c, 11, 75, 76
14, 446729, Note_on_c, 11, 75, 0
14, 446760, Note_on_c, 11, 72, 76
14, 446819, Note_on_c, 11, 72, 0
14, 446820, Note_on_c, 11, 74, 76
14, 446871, Note_on_c, 11, 74, 0
14, 446880, Note_on_c, 11, 72, 76
14, 446969, Note_on_c, 11, 72, 0
14, 447000, Note_on_c, 11, 67, 76
14, 447059, Note_on_c, 11, 67, 0
14, 447060, Note_on_c, 11, 68, 76
14, 447111, Note_on_c, 11, 68, 0
14, 447120, Note_on_c, 11, 67, 76
14, 447209, Note_on_c, 11, 67, 0
14, 447240, Note_on_c, 11, 63, 76
14, 447299, Note_on_c, 11, 63, 0
14, 447300, Note_on_c, 11, 65, 76
14, 447351, Note_on_c, 11, 65, 0
14, 447360, Note_on_c, 11, 63, 76
14, 447449, Note_on_c, 11, 63, 0
14, 447480, Note_on_c, 11, 60, 76
14, 447539, Note_on_c, 11, 60, 0
14, 447540, Note_on_c, 11, 62, 76
14, 447591, Note_on_c, 11, 62, 0
14, 447600, Note_on_c, 11, 60, 76
14, 447689, Note_on_c, 11, 60, 0
14, 447720, Note_on_c, 11, 79, 76
14, 447809, Note_on_c, 11, 79, 0
14, 447840, Note_on_c, 11, 85, 76
14, 447929, Note_on_c, 11, 85, 0
14, 447960, Note_on_c, 11, 73, 76
14, 448019, Note_on_c, 11, 73, 0
14, 448020, Note_on_c, 11, 75, 76
14, 448071, Note_on_c, 11, 75, 0
14, 448080, Note_on_c, 11, 73, 76
14, 448169, Note_on_c, 11, 73, 0
14, 448200, Note_on_c, 11, 70, 76
14, 448259, Note_on_c, 11, 70, 0
14, 448260, Note_on_c, 11, 72, 76
14, 448311, Note_on_c, 11, 72, 0
14, 448320, Note_on_c, 11, 70, 76
14, 448409, Note_on_c, 11, 70, 0
14, 448440, Note_on_c, 11, 67, 76
14, 448499, Note_on_c, 11, 67, 0
14, 448500, Note_on_c, 11, 68, 76
14, 448551, Note_on_c, 11, 68, 0
14, 448560, Note_on_c, 11, 67, 76
14, 448649, Note_on_c, 11, 67, 0
14, 448680, Note_on_c, 11, 64, 76
14, 448739, Note_on_c, 11, 64, 0
14, 448740, Note_on_c, 11, 65, 76
14, 448791, Note_on_c, 11, 65, 0
14, 448800, Note_on_c, 11, 64, 76
14, 448889, Note_on_c, 11, 64, 0
14, 448920, Note_on_c, 11, 64, 76
14, 448979, Note_on_c, 11, 64, 0
14, 448980, Note_on_c, 11, 65, 76
14, 449031, Note_on_c, 11, 65, 0
14, 449040, Note_on_c, 11, 64, 76
14, 449129, Note_on_c, 11, 64, 0
14, 449160, Note_on_c, 11, 73, 76
14, 449249, Note_on_c, 11, 73, 0
14, 449280, Note_on_c, 11, 72, 76
14, 449369, Note_on_c, 11, 72, 0
14, 449400, Note_on_c, 11, 60, 76
14, 449459, Note_on_c, 11, 60, 0
14, 449460, Note_on_c, 11, 61, 76
14, 449511, Note_on_c, 11, 61, 0
14, 449520, Note_on_c, 11, 60, 76
14, 449609, Note_on_c, 11, 60, 0
14, 449640, Note_on_c, 11, 72, 76
14, 449729, Note_on_c, 11, 72, 0
14, 449760, Note_on_c, 11, 74, 76
14, 449849, Note_on_c, 11, 74, 0
14, 449880, Note_on_c, 11, 62, 76
14, 449969, Note_on_c, 11, 62, 0
14, 450000, Note_on_c, 11, 75, 76
14, 450089, Note_on_c, 11, 75, 0
14, 450120, Note_on_c, 11, 63, 76
14, 450179, Note_on_c, 11, 63, 0
14, 450180, Note_on_c, 11, 65, 76
14, 450231, Note_on_c, 11, 65, 0
14, 450240, Note_on_c, 11, 63, 76
14, 450329, Note_on_c, 11, 63, 0
14, 450360, Note_on_c, 11, 75, 76
14, 450449, Note_on_c, 11, 75, 0
14, 450480, Note_on_c, 11, 77, 76
14, 450569, Note_on_c, 11, 77, 0
14, 450600, Note_on_c, 11, 65, 76
14, 450689, Note_on_c, 11, 65, 0
14, 450720, Note_on_c, 11, 79, 76
14, 450809, Note_on_c, 11, 79, 0
14, 450840, Note_on_c, 11, 67, 76
14, 450929, Note_on_c, 11, 67, 0
14, 450960, Note_on_c, 11, 79, 76
14, 451049, Note_on_c, 11, 79, 0
14, 451080, Note_on_c, 11, 67, 76
14, 451169, Note_on_c, 11, 67, 0
14, 451200, Note_on_c, 11, 80, 76
14, 451289, Note_on_c, 11, 80, 0
14, 451320, Note_on_c, 11, 68, 76
14, 451409, Note_on_c, 11, 68, 0
14, 451440, Note_on_c, 11, 81, 76
14, 451529, Note_on_c, 11, 81, 0
14, 451560, Note_on_c, 11, 69, 76
14, 451649, Note_on_c, 11, 69, 0
14, 451680, Note_on_c, 11, 82, 76
14, 451769, Note_on_c, 11, 82, 0
14, 451800, Note_on_c, 11, 70, 76
14, 451889, Note_on_c, 11, 70, 0
14, 451920, Note_on_c, 11, 83, 76
14, 452009, Note_on_c, 11, 83, 0
14, 452040, Note_on_c, 11, 71, 76
14, 452129, Note_on_c, 11, 71, 0
14, 452160, Note_on_c, 11, 84, 76
14, 452211, Note_on_c, 11, 84, 0
14, 452220, Note_on_c, 11, 84, 76
14, 452271, Note_on_c, 11, 84, 0
14, 452280, Note_on_c, 11, 83, 76
14, 452331, Note_on_c, 11, 83, 0
14, 452340, Note_on_c, 11, 83, 76
14, 452391, Note_on_c, 11, 83, 0
14, 452400, Note_on_c, 11, 84, 76
14, 452451, Note_on_c, 11, 84, 0
14, 452460, Note_on_c, 11, 84, 76
14, 452511, Note_on_c, 11, 84, 0
14, 452520, Note_on_c, 11, 83, 76
14, 452571, Note_on_c, 11, 83, 0
14, 452580, Note_on_c, 11, 83, 76
14, 452631, Note_on_c, 11, 83, 0
14, 452640, Note_on_c, 11, 84, 76
14, 452691, Note_on_c, 11, 84, 0
14, 452700, Note_on_c, 11, 84, 76
14, 452751, Note_on_c, 11, 84, 0
14, 452760, Note_on_c, 11, 79, 76
14, 452811, Note_on_c, 11, 79, 0
14, 452820, Note_on_c, 11, 79, 76
14, 452871, Note_on_c, 11, 79, 0
14, 452880, Note_on_c, 11, 80, 76
14, 452931, Note_on_c, 11, 80, 0
14, 452940, Note_on_c, 11, 80, 76
14, 452991, Note_on_c, 11, 80, 0
14, 453000, Note_on_c, 11, 79, 76
14, 453051, Note_on_c, 11, 79, 0
14, 453060, Note_on_c, 11, 79, 76
14, 453111, Note_on_c, 11, 79, 0
14, 453120, Note_on_c, 11, 82, 76
14, 453171, Note_on_c, 11, 82, 0
14, 453180, Note_on_c, 11, 82, 76
14, 453231, Note_on_c, 11, 82, 0
14, 453240, Note_on_c, 11, 80, 76
14, 453291, Note_on_c, 11, 80, 0
14, 453300, Note_on_c, 11, 80, 76
14, 453351, Note_on_c, 11, 80, 0
14, 453360, Note_on_c, 11, 79, 76
14, 453411, Note_on_c, 11, 79, 0
14, 453420, Note_on_c, 11, 79, 76
14, 453471, Note_on_c, 11, 79, 0
14, 453480, Note_on_c, 11, 77, 76
14, 453531, Note_on_c, 11, 77, 0
14, 453540, Note_on_c, 11, 77, 76
14, 453591, Note_on_c, 11, 77, 0
14, 453600, Note_on_c, 11, 75, 76
14, 453651, Note_on_c, 11, 75, 0
14, 453660, Note_on_c, 11, 75, 76
14, 453711, Note_on_c, 11, 75, 0
14, 453720, Note_on_c, 11, 70, 76
14, 453771, Note_on_c, 11, 70, 0
14, 453780, Note_on_c, 11, 70, 76
14, 453831, Note_on_c, 11, 70, 0
14, 453840, Note_on_c, 11, 72, 76
14, 453891, Note_on_c, 11, 72, 0
14, 453900, Note_on_c, 11, 72, 76
14, 453951, Note_on_c, 11, 72, 0
14, 453960, Note_on_c, 11, 74, 76
14, 454011, Note_on_c, 11, 74, 0
14, 454020, Note_on_c, 11, 74, 76
14, 454071, Note_on_c, 11, 74, 0
14, 454080, Note_on_c, 11, 75, 76
14, 454131, Note_on_c, 11, 75, 0
14, 454140, Note_on_c, 11, 75, 76
14, 454191, Note_on_c, 11, 75, 0
14, 454200, Note_on_c, 11, 77, 76
14, 454251, Note_on_c, 11, 77, 0
14, 454260, Note_on_c, 11, 77, 76
14, 454311, Note_on_c, 11, 77, 0
14, 454320, Note_on_c, 11, 79, 76
14, 454371, Note_on_c, 11, 79, 0
14, 454380, Note_on_c, 11, 79, 76
14, 454431, Note_on_c, 11, 79, 0
14, 454440, Note_on_c, 11, 80, 76
14, 454491, Note_on_c, 11, 80, 0
14, 454500, Note_on_c, 11, 80, 76
14, 454551, Note_on_c, 11, 80, 0
14, 454560, Note_on_c, 11, 81, 76
14, 454611, Note_on_c, 11, 81, 0
14, 454620, Note_on_c, 11, 81, 76
14, 454671, Note_on_c, 11, 81, 0
14, 454680, Note_on_c, 11, 82, 76
14, 454731, Note_on_c, 11, 82, 0
14, 454740, Note_on_c, 11, 82, 76
14, 454791, Note_on_c, 11, 82, 0
14, 454800, Note_on_c, 11, 80, 76
14, 454851, Note_on_c, 11, 80, 0
14, 454860, Note_on_c, 11, 80, 76
14, 454911, Note_on_c, 11, 80, 0
14, 454920, Note_on_c, 11, 79, 76
14, 454971, Note_on_c, 11, 79, 0
14, 454980, Note_on_c, 11, 79, 76
14, 455031, Note_on_c, 11, 79, 0
14, 455040, Note_on_c, 11, 77, 76
14, 455091, Note_on_c, 11, 77, 0
14, 455100, Note_on_c, 11, 77, 76
14, 455151, Note_on_c, 11, 77, 0
14, 455160, Note_on_c, 11, 79, 76
14, 455211, Note_on_c, 11, 79, 0
14, 455220, Note_on_c, 11, 79, 77
14, 455271, Note_on_c, 11, 79, 0
14, 455280, Note_on_c, 11, 80, 77
14, 455331, Note_on_c, 11, 80, 0
14, 455340, Note_on_c, 11, 80, 77
14, 455391, Note_on_c, 11, 80, 0
14, 455400, Note_on_c, 11, 79, 78
14, 455451, Note_on_c, 11, 79, 0
14, 455460, Note_on_c, 11, 79, 78
14, 455511, Note_on_c, 11, 79, 0
14, 455520, Note_on_c, 11, 77, 78
14, 455571, Note_on_c, 11, 77, 0
14, 455580, Note_on_c, 11, 77, 79
14, 455631, Note_on_c, 11, 77, 0
14, 455640, Note_on_c, 11, 75, 79
14, 455691, Note_on_c, 11, 75, 0
14, 455700, Note_on_c, 11, 75, 79
14, 455751, Note_on_c, 11, 75, 0
14, 455760, Note_on_c, 11, 74, 80
14, 455811, Note_on_c, 11, 74, 0
14, 455820, Note_on_c, 11, 74, 80
14, 455871, Note_on_c, 11, 74, 0
14, 455880, Note_on_c, 11, 75, 80
14, 455931, Note_on_c, 11, 75, 0
14, 455940, Note_on_c, 11, 75, 81
14, 455991, Note_on_c, 11, 75, 0
14, 456000, Note_on_c, 11, 77, 81
14, 456051, Note_on_c, 11, 77, 0
14, 456060, Note_on_c, 11, 77, 81
14, 456111, Note_on_c, 11, 77, 0
14, 456120, Note_on_c, 11, 75, 82
14, 456171, Note_on_c, 11, 75, 0
14, 456180, Note_on_c, 11, 75, 82
14, 456231, Note_on_c, 11, 75, 0
14, 456240, Note_on_c, 11, 74, 82
14, 456291, Note_on_c, 11, 74, 0
14, 456300, Note_on_c, 11, 74, 83
14, 456351, Note_on_c, 11, 74, 0
14, 456360, Note_on_c, 11, 72, 83
14, 456411, Note_on_c, 11, 72, 0
14, 456420, Note_on_c, 11, 72, 83
14, 456471, Note_on_c, 11, 72, 0
14, 456480, Note_on_c, 11, 70, 84
14, 456531, Note_on_c, 11, 70, 0
14, 456540, Note_on_c, 11, 70, 84
14, 456591, Note_on_c, 11, 70, 0
14, 456600, Note_on_c, 11, 81, 84
14, 456651, Note_on_c, 11, 81, 0
14, 456660, Note_on_c, 11, 81, 84
14, 456711, Note_on_c, 11, 81, 0
14, 456720, Note_on_c, 11, 80, 84
14, 456771, Note_on_c, 11, 80, 0
14, 456780, Note_on_c, 11, 80, 84
14, 456831, Note_on_c, 11, 80, 0
14, 456840, Note_on_c, 11, 79, 84
14, 456891, Note_on_c, 11, 79, 0
14, 456900, Note_on_c, 11, 79, 84
14, 456951, Note_on_c, 11, 79, 0
14, 456960, Note_on_c, 11, 77, 84
14, 457011, Note_on_c, 11, 77, 0
14, 457020, Note_on_c, 11, 77, 84
14, 457071, Note_on_c, 11, 77, 0
14, 457080, Note_on_c, 11, 75, 84
14, 457131, Note_on_c, 11, 75, 0
14, 457140, Note_on_c, 11, 75, 84
14, 457191, Note_on_c, 11, 75, 0
14, 457200, Note_on_c, 11, 74, 84
14, 457251, Note_on_c, 11, 74, 0
14, 457260, Note_on_c, 11, 74, 84
14, 457311, Note_on_c, 11, 74, 0
14, 457320, Note_on_c, 11, 72, 84
14, 457371, Note_on_c, 11, 72, 0
14, 457380, Note_on_c, 11, 72, 84
14, 457431, Note_on_c, 11, 72, 0
14, 457440, Note_on_c, 11, 70, 84
14, 457491, Note_on_c, 11, 70, 0
14, 457500, Note_on_c, 11, 70, 84
14, 457551, Note_on_c, 11, 70, 0
14, 457560, Note_on_c, 11, 68, 84
14, 457611, Note_on_c, 11, 68, 0
14, 457620, Note_on_c, 11, 68, 84
14, 457671, Note_on_c, 11, 68, 0
14, 457680, Note_on_c, 11, 67, 84
14, 457731, Note_on_c, 11, 67, 0
14, 457740, Note_on_c, 11, 67, 84
14, 457791, Note_on_c, 11, 67, 0
14, 457800, Note_on_c, 11, 65, 84
14, 457851, Note_on_c, 11, 65, 0
14, 457860, Note_on_c, 11, 65, 84
14, 457911, Note_on_c, 11, 65, 0
14, 457920, Note_on_c, 11, 63, 84
14, 458159, Note_on_c, 11, 63, 0
14, 460800, Control_c, 11, 11, 96
14, 461040, Note_on_c, 11, 68, 68
14, 461249, Note_on_c, 11, 68, 0
14, 461280, Note_on_c, 11, 68, 68
14, 461489, Note_on_c, 11, 68, 0
14, 461520, Note_on_c, 11, 68, 68
14, 461520, Control_c, 11, 11, 96
14, 461620, Control_c, 11, 11, 99
14, 461720, Control_c, 11, 11, 101
14, 461729, Note_on_c, 11, 68, 0
14, 461760, Note_on_c, 11, 70, 68
14, 461820, Control_c, 11, 11, 104
14, 461920, Control_c, 11, 11, 106
14, 461969, Note_on_c, 11, 70, 0
14, 462000, Note_on_c, 11, 70, 68
14, 462020, Control_c, 11, 11, 109
14, 462120, Control_c, 11, 11, 112
14, 462209, Note_on_c, 11, 70, 0
14, 462220, Control_c, 11, 11, 114
14, 462240, Note_on_c, 11, 70, 68
14, 462320, Control_c, 11, 11, 117
14, 462420, Control_c, 11, 11, 119
14, 462479, Note_on_c, 11, 70, 0
14, 462480, Note_on_c, 11, 71, 68
14, 462520, Control_c, 11, 11, 122
14, 462620, Control_c, 11, 11, 127
14, 462719, Note_on_c, 11, 71, 0
14, 462720, Note_on_c, 11, 72, 76
14, 462959, Note_on_c, 11, 72, 0
14, 462960, Control_c, 11, 11, 127
14, 462960, Note_on_c, 11, 72, 68
14, 463020, Control_c, 11, 11, 124
14, 463080, Control_c, 11, 11, 122
14, 463140, Control_c, 11, 11, 119
14, 463199, Note_on_c, 11, 72, 0
14, 463200, Control_c, 11, 11, 117
14, 463200, Note_on_c, 11, 70, 68
14, 463260, Control_c, 11, 11, 114
14, 463319, Note_on_c, 11, 70, 0
14, 463320, Note_on_c, 11, 68, 68
14, 463320, Control_c, 11, 11, 112
14, 463380, Control_c, 11, 11, 109
14, 463439, Note_on_c, 11, 68, 0
14, 463440, Control_c, 11, 11, 106
14, 463440, Note_on_c, 11, 67, 68
14, 463500, Control_c, 11, 11, 104
14, 463559, Note_on_c, 11, 67, 0
14, 463560, Note_on_c, 11, 65, 68
14, 463560, Control_c, 11, 11, 101
14, 463620, Control_c, 11, 11, 96
14, 463679, Note_on_c, 11, 65, 0
14, 463680, Note_on_c, 11, 63, 68
14, 463919, Note_on_c, 11, 63, 0
14, 467520, Note_on_c, 11, 70, 68
14, 467729, Note_on_c, 11, 70, 0
14, 467760, Note_on_c, 11, 70, 68
14, 467969, Note_on_c, 11, 70, 0
14, 468000, Control_c, 11, 11, 96
14, 468000, Note_on_c, 11, 70, 68
14, 468040, Control_c, 11, 11, 99
14, 468080, Control_c, 11, 11, 101
14, 468120, Control_c, 11, 11, 104
14, 468160, Control_c, 11, 11, 106
14, 468200, Control_c, 11, 11, 109
14, 468240, Control_c, 11, 11, 112
14, 468280, Control_c, 11, 11, 114
14, 468320, Control_c, 11, 11, 117
14, 468360, Control_c, 11, 11, 119
14, 468400, Control_c, 11, 11, 122
14, 468440, Control_c, 11, 11, 124
14, 468479, Note_on_c, 11, 70, 0
14, 468480, Note_on_c, 11, 69, 68
14, 468480, Control_c, 11, 11, 127
14, 468520, Control_c, 11, 11, 122
14, 468560, Control_c, 11, 11, 117
14, 468600, Control_c, 11, 11, 112
14, 468640, Control_c, 11, 11, 106
14, 468680, Control_c, 11, 11, 96
14, 468719, Note_on_c, 11, 69, 0
14, 469440, Control_c, 11, 11, 127
14, 469680, Note_on_c, 11, 62, 44
14, 469859, Note_on_c, 11, 62, 0
14, 469920, Note_on_c, 11, 62, 44
14, 470099, Note_on_c, 11, 62, 0
14, 470400, Note_on_c, 11, 63, 44
14, 470579, Note_on_c, 11, 63, 0
14, 470640, Note_on_c, 11, 64, 44
14, 470819, Note_on_c, 11, 64, 0
14, 471120, Note_on_c, 11, 65, 44
14, 471299, Note_on_c, 11, 65, 0
14, 471360, Note_on_c, 11, 67, 44
14, 471539, Note_on_c, 11, 67, 0
14, 471600, Note_on_c, 11, 68, 44
14, 471779, Note_on_c, 11, 68, 0
14, 471840, Note_on_c, 11, 70, 44
14, 472019, Note_on_c, 11, 70, 0
14, 472080, Note_on_c, 11, 71, 44
14, 472259, Note_on_c, 11, 71, 0
14, 472320, Note_on_c, 11, 72, 44
14, 472409, Note_on_c, 11, 72, 0
14, 472440, Note_on_c, 11, 70, 44
14, 472529, Note_on_c, 11, 70, 0
14, 472560, Note_on_c, 11, 68, 44
14, 472649, Note_on_c, 11, 68, 0
14, 472680, Note_on_c, 11, 67, 44
14, 472769, Note_on_c, 11, 67, 0
14, 472800, Note_on_c, 11, 65, 44
14, 472889, Note_on_c, 11, 65, 0
14, 472920, Note_on_c, 11, 67, 44
14, 473009, Note_on_c, 11, 67, 0
14, 473040, Note_on_c, 11, 68, 44
14, 473129, Note_on_c, 11, 68, 0
14, 473160, Note_on_c, 11, 67, 44
14, 473249, Note_on_c, 11, 67, 0
14, 473280, Note_on_c, 11, 65, 44
14, 473369, Note_on_c, 11, 65, 0
14, 473400, Note_on_c, 11, 67, 44
14, 473489, Note_on_c, 11, 67, 0
14, 473520, Note_on_c, 11, 68, 44
14, 473609, Note_on_c, 11, 68, 0
14, 473640, Note_on_c, 11, 70, 44
14, 473729, Note_on_c, 11, 70, 0
14, 473760, Note_on_c, 11, 72, 44
14, 473849, Note_on_c, 11, 72, 0
14, 473880, Note_on_c, 11, 70, 45
14, 473969, Note_on_c, 11, 70, 0
14, 474000, Note_on_c, 11, 68, 46
14, 474089, Note_on_c, 11, 68, 0
14, 474120, Note_on_c, 11, 67, 48
14, 474209, Note_on_c, 11, 67, 0
14, 474240, Note_on_c, 11, 65, 49
14, 474329, Note_on_c, 11, 65, 0
14, 474360, Note_on_c, 11, 67, 50
14, 474449, Note_on_c, 11, 67, 0
14, 474480, Note_on_c, 11, 68, 52
14, 474569, Note_on_c, 11, 68, 0
14, 474600, Note_on_c, 11, 67, 53
14, 474689, Note_on_c, 11, 67, 0
14, 474720, Note_on_c, 11, 65, 54
14, 474809, Note_on_c, 11, 65, 0
14, 474840, Note_on_c, 11, 67, 56
14, 474929, Note_on_c, 11, 67, 0
14, 474960, Note_on_c, 11, 68, 57
14, 475049, Note_on_c, 11, 68, 0
14, 475080, Note_on_c, 11, 70, 58
14, 475169, Note_on_c, 11, 70, 0
14, 475200, Note_on_c, 11, 72, 60
14, 475289, Note_on_c, 11, 72, 0
14, 475320, Note_on_c, 11, 70, 61
14, 475409, Note_on_c, 11, 70, 0
14, 475440, Note_on_c, 11, 68, 62
14, 475529, Note_on_c, 11, 68, 0
14, 475560, Note_on_c, 11, 67, 64
14, 475649, Note_on_c, 11, 67, 0
14, 475680, Note_on_c, 11, 68, 65
14, 475769, Note_on_c, 11, 68, 0
14, 475800, Note_on_c, 11, 70, 66
14, 475889, Note_on_c, 11, 70, 0
14, 475920, Note_on_c, 11, 72, 68
14, 476009, Note_on_c, 11, 72, 0
14, 476040, Note_on_c, 11, 74, 69
14, 476129, Note_on_c, 11, 74, 0
14, 476160, Note_on_c, 11, 75, 70
14, 476249, Note_on_c, 11, 75, 0
14, 476280, Note_on_c, 11, 77, 72
14, 476369, Note_on_c, 11, 77, 0
14, 476400, Note_on_c, 11, 79, 73
14, 476489, Note_on_c, 11, 79, 0
14, 476520, Note_on_c, 11, 80, 74
14, 476609, Note_on_c, 11, 80, 0
14, 476640, Note_on_c, 11, 82, 76
14, 477104, Note_on_c, 11, 82, 0
14, 477120, Note_on_c, 11, 79, 76
14, 477299, Note_on_c, 11, 79, 0
14, 477360, Note_on_c, 11, 75, 76
14, 477539, Note_on_c, 11, 75, 0
14, 477600, Note_on_c, 11, 79, 84
14, 477779, Note_on_c, 11, 79, 0
14, 477840, Note_on_c, 11, 70, 76
14, 478019, Note_on_c, 11, 70, 0
14, 478080, Note_on_c, 11, 77, 76
14, 478259, Note_on_c, 11, 77, 0
14, 478320, Note_on_c, 11, 80, 84
14, 478499, Note_on_c, 11, 80, 0
14, 478560, Note_on_c, 11, 70, 76
14, 478739, Note_on_c, 11, 70, 0
14, 478800, Note_on_c, 11, 74, 76
14, 478979, Note_on_c, 11, 74, 0
14, 479040, Note_on_c, 11, 77, 84
14, 479219, Note_on_c, 11, 77, 0
14, 479280, Note_on_c, 11, 70, 76
14, 479459, Note_on_c, 11, 70, 0
14, 479520, Note_on_c, 11, 70, 84
14, 479520, Note_on_c, 11, 82, 84
14, 479571, Note_on_c, 11, 70, 0
14, 479571, Note_on_c, 11, 82, 0
14, 479580, Note_on_c, 11, 70, 84
14, 479580, Note_on_c, 11, 82, 84
14, 479631, Note_on_c, 11, 70, 0
14, 479631, Note_on_c, 11, 82, 0
14, 479640, Note_on_c, 11, 70, 84
14, 479640, Note_on_c, 11, 82, 84
14, 479691, Note_on_c, 11, 70, 0
14, 479691, Note_on_c, 11, 82, 0
14, 479700, Note_on_c, 11, 82, 84
14, 479700, Note_on_c, 11, 70, 84
14, 479751, Note_on_c, 11, 82, 0
14, 479751, Note_on_c, 11, 70, 0
14, 479760, Note_on_c, 11, 82, 84
14, 479760, Note_on_c, 11, 70, 84
14, 479811, Note_on_c, 11, 82, 0
14, 479811, Note_on_c, 11, 70, 0
14, 479820, Note_on_c, 11, 70, 84
14, 479820, Note_on_c, 11, 82, 84
14, 479871, Note_on_c, 11, 70, 0
14, 479871, Note_on_c, 11, 82, 0
14, 479880, Note_on_c, 11, 82, 84
14, 479880, Note_on_c, 11, 70, 84
14, 479931, Note_on_c, 11, 82, 0
14, 479931, Note_on_c, 11, 70, 0
14, 479940, Note_on_c, 11, 70, 84
14, 479940, Note_on_c, 11, 82, 84
14, 479991, Note_on_c, 11, 70, 0
14, 479991, Note_on_c, 11, 82, 0
14, 480000, Note_on_c, 11, 70, 84
14, 480000, Note_on_c, 11, 82, 84
14, 480051, Note_on_c, 11, 70, 0
14, 480051, Note_on_c, 11, 82, 0
14, 480060, Note_on_c, 11, 82, 84
14, 480060, Note_on_c, 11, 70, 84
14, 480111, Note_on_c, 11, 82, 0
14, 480111, Note_on_c, 11, 70, 0
14, 480120, Note_on_c, 11, 82, 84
14, 480120, Note_on_c, 11, 70, 84
14, 480171, Note_on_c, 11, 82, 0
14, 480171, Note_on_c, 11, 70, 0
14, 480180, Note_on_c, 11, 70, 84
14, 480180, Note_on_c, 11, 82, 84
14, 480231, Note_on_c, 11, 70, 0
14, 480231, Note_on_c, 11, 82, 0
14, 480240, Note_on_c, 11, 70, 84
14, 480240, Note_on_c, 11, 82, 84
14, 480291, Note_on_c, 11, 70, 0
14, 480291, Note_on_c, 11, 82, 0
14, 480300, Note_on_c, 11, 70, 84
14, 480300, Note_on_c, 11, 82, 84
14, 480351, Note_on_c, 11, 70, 0
14, 480351, Note_on_c, 11, 82, 0
14, 480360, Note_on_c, 11, 82, 84
14, 480360, Note_on_c, 11, 70, 84
14, 480411, Note_on_c, 11, 82, 0
14, 480411, Note_on_c, 11, 70, 0
14, 480420, Note_on_c, 11, 70, 84
14, 480420, Note_on_c, 11, 82, 84
14, 480471, Note_on_c, 11, 70, 0
14, 480471, Note_on_c, 11, 82, 0
14, 480480, Note_on_c, 11, 70, 84
14, 480480, Note_on_c, 11, 82, 84
14, 480531, Note_on_c, 11, 70, 0
14, 480531, Note_on_c, 11, 82, 0
14, 480540, Note_on_c, 11, 70, 84
14, 480540, Note_on_c, 11, 82, 84
14, 480591, Note_on_c, 11, 70, 0
14, 480591, Note_on_c, 11, 82, 0
14, 480600, Note_on_c, 11, 70, 84
14, 480600, Note_on_c, 11, 82, 84
14, 480651, Note_on_c, 11, 70, 0
14, 480651, Note_on_c, 11, 82, 0
14, 480660, Note_on_c, 11, 70, 84
14, 480660, Note_on_c, 11, 82, 84
14, 480711, Note_on_c, 11, 70, 0
14, 480711, Note_on_c, 11, 82, 0
14, 480720, Note_on_c, 11, 70, 84
14, 480720, Note_on_c, 11, 82, 84
14, 480771, Note_on_c, 11, 70, 0
14, 480771, Note_on_c, 11, 82, 0
14, 480780, Note_on_c, 11, 82, 84
14, 480780, Note_on_c, 11, 70, 84
14, 480831, Note_on_c, 11, 82, 0
14, 480831, Note_on_c, 11, 70, 0
14, 480840, Note_on_c, 11, 70, 84
14, 480840, Note_on_c, 11, 82, 84
14, 480891, Note_on_c, 11, 70, 0
14, 480891, Note_on_c, 11, 82, 0
14, 480900, Note_on_c, 11, 70, 84
14, 480900, Note_on_c, 11, 82, 84
14, 480951, Note_on_c, 11, 70, 0
14, 480951, Note_on_c, 11, 82, 0
14, 480960, Note_on_c, 11, 82, 84
14, 480960, Note_on_c, 11, 70, 84
14, 481011, Note_on_c, 11, 82, 0
14, 481011, Note_on_c, 11, 70, 0
14, 481020, Note_on_c, 11, 70, 84
14, 481020, Note_on_c, 11, 82, 84
14, 481071, Note_on_c, 11, 70, 0
14, 481071, Note_on_c, 11, 82, 0
14, 481080, Note_on_c, 11, 70, 84
14, 481080, Note_on_c, 11, 82, 84
14, 481131, Note_on_c, 11, 70, 0
14, 481131, Note_on_c, 11, 82, 0
14, 481140, Note_on_c, 11, 70, 84
14, 481140, Note_on_c, 11, 82, 84
14, 481191, Note_on_c, 11, 70, 0
14, 481191, Note_on_c, 11, 82, 0
14, 481200, Note_on_c, 11, 82, 84
14, 481200, Note_on_c, 11, 70, 84
14, 481251, Note_on_c, 11, 82, 0
14, 481251, Note_on_c, 11, 70, 0
14, 481260, Note_on_c, 11, 82, 84
14, 481260, Note_on_c, 11, 70, 84
14, 481311, Note_on_c, 11, 82, 0
14, 481311, Note_on_c, 11, 70, 0
14, 481320, Note_on_c, 11, 70, 84
14, 481320, Note_on_c, 11, 82, 84
14, 481371, Note_on_c, 11, 70, 0
14, 481371, Note_on_c, 11, 82, 0
14, 481380, Note_on_c, 11, 82, 84
14, 481380, Note_on_c, 11, 70, 84
14, 481431, Note_on_c, 11, 82, 0
14, 481431, Note_on_c, 11, 70, 0
14, 481440, Note_on_c, 11, 82, 84
14, 481440, Note_on_c, 11, 70, 84
14, 481491, Note_on_c, 11, 82, 0
14, 481491, Note_on_c, 11, 70, 0
14, 481500, Note_on_c, 11, 82, 84
14, 481500, Note_on_c, 11, 70, 84
14, 481551, Note_on_c, 11, 82, 0
14, 481551, Note_on_c, 11, 70, 0
14, 481560, Note_on_c, 11, 82, 84
14, 481560, Note_on_c, 11, 70, 84
14, 481611, Note_on_c, 11, 82, 0
14, 481611, Note_on_c, 11, 70, 0
14, 481620, Note_on_c, 11, 82, 84
14, 481620, Note_on_c, 11, 70, 84
14, 481671, Note_on_c, 11, 82, 0
14, 481671, Note_on_c, 11, 70, 0
14, 481680, Note_on_c, 11, 82, 84
14, 481680, Note_on_c, 11, 70, 84
14, 481731, Note_on_c, 11, 82, 0
14, 481731, Note_on_c, 11, 70, 0
14, 481740, Note_on_c, 11, 82, 84
14, 481740, Note_on_c, 11, 70, 84
14, 481791, Note_on_c, 11, 82, 0
14, 481791, Note_on_c, 11, 70, 0
14, 481800, Note_on_c, 11, 82, 84
14, 481800, Note_on_c, 11, 70, 84
14, 481851, Note_on_c, 11, 82, 0
14, 481851, Note_on_c, 11, 70, 0
14, 481860, Note_on_c, 11, 82, 84
14, 481860, Note_on_c, 11, 70, 84
14, 481911, Note_on_c, 11, 82, 0
14, 481911, Note_on_c, 11, 70, 0
14, 481920, Note_on_c, 11, 82, 84
14, 481920, Note_on_c, 11, 70, 84
14, 481971, Note_on_c, 11, 82, 0
14, 481971, Note_on_c, 11, 70, 0
14, 481980, Note_on_c, 11, 70, 84
14, 481980, Note_on_c, 11, 82, 84
14, 482031, Note_on_c, 11, 70, 0
14, 482031, Note_on_c, 11, 82, 0
14, 482040, Note_on_c, 11, 70, 84
14, 482040, Note_on_c, 11, 82, 84
14, 482091, Note_on_c, 11, 70, 0
14, 482091, Note_on_c, 11, 82, 0
14, 482100, Note_on_c, 11, 82, 84
14, 482100, Note_on_c, 11, 70, 84
14, 482151, Note_on_c, 11, 82, 0
14, 482151, Note_on_c, 11, 70, 0
14, 482160, Note_on_c, 11, 82, 84
14, 482160, Note_on_c, 11, 70, 84
14, 482211, Note_on_c, 11, 82, 0
14, 482211, Note_on_c, 11, 70, 0
14, 482220, Note_on_c, 11, 70, 84
14, 482220, Note_on_c, 11, 82, 84
14, 482271, Note_on_c, 11, 70, 0
14, 482271, Note_on_c, 11, 82, 0
14, 482280, Note_on_c, 11, 82, 84
14, 482280, Note_on_c, 11, 70, 84
14, 482331, Note_on_c, 11, 82, 0
14, 482331, Note_on_c, 11, 70, 0
14, 482340, Note_on_c, 11, 70, 84
14, 482340, Note_on_c, 11, 82, 84
14, 482391, Note_on_c, 11, 70, 0
14, 482391, Note_on_c, 11, 82, 0
14, 482400, Note_on_c, 11, 82, 84
14, 482451, Note_on_c, 11, 82, 0
14, 482460, Note_on_c, 11, 82, 84
14, 482511, Note_on_c, 11, 82, 0
14, 482520, Note_on_c, 11, 86, 84
14, 482571, Note_on_c, 11, 86, 0
14, 482580, Note_on_c, 11, 86, 84
14, 482631, Note_on_c, 11, 86, 0
14, 482640, Note_on_c, 11, 87, 84
14, 482691, Note_on_c, 11, 87, 0
14, 482700, Note_on_c, 11, 87, 84
14, 482751, Note_on_c, 11, 87, 0
14, 482760, Note_on_c, 11, 86, 84
14, 482811, Note_on_c, 11, 86, 0
14, 482820, Note_on_c, 11, 86, 84
14, 482871, Note_on_c, 11, 86, 0
14, 482880, Note_on_c, 11, 87, 84
14, 482931, Note_on_c, 11, 87, 0
14, 482940, Note_on_c, 11, 87, 84
14, 482991, Note_on_c, 11, 87, 0
14, 483000, Note_on_c, 11, 81, 84
14, 483051, Note_on_c, 11, 81, 0
14, 483060, Note_on_c, 11, 81, 84
14, 483111, Note_on_c, 11, 81, 0
14, 483120, Note_on_c, 11, 82, 84
14, 483171, Note_on_c, 11, 82, 0
14, 483180, Note_on_c, 11, 82, 84
14, 483231, Note_on_c, 11, 82, 0
14, 483240, Note_on_c, 11, 78, 84
14, 483291, Note_on_c, 11, 78, 0
14, 483300, Note_on_c, 11, 78, 84
14, 483351, Note_on_c, 11, 78, 0
14, 483360, Note_on_c, 11, 79, 84
14, 483411, Note_on_c, 11, 79, 0
14, 483420, Note_on_c, 11, 79, 84
14, 483471, Note_on_c, 11, 79, 0
14, 483480, Note_on_c, 11, 74, 84
14, 483531, Note_on_c, 11, 74, 0
14, 483540, Note_on_c, 11, 74, 84
14, 483591, Note_on_c, 11, 74, 0
14, 483600, Note_on_c, 11, 75, 84
14, 483651, Note_on_c, 11, 75, 0
14, 483660, Note_on_c, 11, 75, 84
14, 483711, Note_on_c, 11, 75, 0
14, 483720, Note_on_c, 11, 73, 84
14, 483771, Note_on_c, 11, 73, 0
14, 483780, Note_on_c, 11, 73, 84
14, 483831, Note_on_c, 11, 73, 0
14, 483840, Note_on_c, 11, 72, 84
14, 483891, Note_on_c, 11, 72, 0
14, 483900, Note_on_c, 11, 72, 84
14, 483951, Note_on_c, 11, 72, 0
14, 483960, Note_on_c, 11, 76, 84
14, 484011, Note_on_c, 11, 76, 0
14, 484020, Note_on_c, 11, 76, 84
14, 484071, Note_on_c, 11, 76, 0
14, 484080, Note_on_c, 11, 77, 92
14, 484131, Note_on_c, 11, 77, 0
14, 484140, Note_on_c, 11, 77, 84
14, 484191, Note_on_c, 11, 77, 0
14, 484200, Note_on_c, 11, 75, 84
14, 484251, Note_on_c, 11, 75, 0
14, 484260, Note_on_c, 11, 75, 84
14, 484311, Note_on_c, 11, 75, 0
14, 484320, Note_on_c, 11, 74, 84
14, 484371, Note_on_c, 11, 74, 0
14, 484380, Note_on_c, 11, 74, 84
14, 484431, Note_on_c, 11, 74, 0
14, 484440, Note_on_c, 11, 78, 84
14, 484491, Note_on_c, 11, 78, 0
14, 484500, Note_on_c, 11, 78, 84
14, 484551, Note_on_c, 11, 78, 0
14, 484560, Note_on_c, 11, 79, 92
14, 484611, Note_on_c, 11, 79, 0
14, 484620, Note_on_c, 11, 79, 84
14, 484671, Note_on_c, 11, 79, 0
14, 484680, Note_on_c, 11, 77, 84
14, 484731, Note_on_c, 11, 77, 0
14, 484740, Note_on_c, 11, 77, 84
14, 484791, Note_on_c, 11, 77, 0
14, 484800, Note_on_c, 11, 75, 84
14, 484851, Note_on_c, 11, 75, 0
14, 484860, Note_on_c, 11, 75, 84
14, 484911, Note_on_c, 11, 75, 0
14, 484920, Note_on_c, 11, 79, 84
14, 484971, Note_on_c, 11, 79, 0
14, 484980, Note_on_c, 11, 79, 84
14, 485031, Note_on_c, 11, 79, 0
14, 485040, Note_on_c, 11, 80, 92
14, 485091, Note_on_c, 11, 80, 0
14, 485100, Note_on_c, 11, 80, 84
14, 485151, Note_on_c, 11, 80, 0
14, 485160, Note_on_c, 11, 79, 84
14, 485211, Note_on_c, 11, 79, 0
14, 485220, Note_on_c, 11, 79, 84
14, 485271, Note_on_c, 11, 79, 0
14, 485280, Note_on_c, 11, 77, 84
14, 485331, Note_on_c, 11, 77, 0
14, 485340, Note_on_c, 11, 77, 84
14, 485391, Note_on_c, 11, 77, 0
14, 485400, Note_on_c, 11, 81, 84
14, 485451, Note_on_c, 11, 81, 0
14, 485460, Note_on_c, 11, 81, 84
14, 485511, Note_on_c, 11, 81, 0
14, 485520, Note_on_c, 11, 82, 92
14, 485571, Note_on_c, 11, 82, 0
14, 485580, Note_on_c, 11, 82, 84
14, 485631, Note_on_c, 11, 82, 0
14, 485640, Note_on_c, 11, 80, 84
14, 485691, Note_on_c, 11, 80, 0
14, 485700, Note_on_c, 11, 80, 84
14, 485751, Note_on_c, 11, 80, 0
14, 485760, Note_on_c, 11, 79, 84
14, 485811, Note_on_c, 11, 79, 0
14, 485820, Note_on_c, 11, 79, 84
14, 485871, Note_on_c, 11, 79, 0
14, 485880, Note_on_c, 11, 83, 84
14, 485931, Note_on_c, 11, 83, 0
14, 485940, Note_on_c, 11, 83, 84
14, 485991, Note_on_c, 11, 83, 0
14, 486000, Note_on_c, 11, 84, 84
14, 486051, Note_on_c, 11, 84, 0
14, 486060, Note_on_c, 11, 84, 84
14, 486111, Note_on_c, 11, 84, 0
14, 486120, Note_on_c, 11, 86, 84
14, 486171, Note_on_c, 11, 86, 0
14, 486180, Note_on_c, 11, 86, 84
14, 486231, Note_on_c, 11, 86, 0
14, 486240, Note_on_c, 11, 87, 84
14, 486291, Note_on_c, 11, 87, 0
14, 486300, Note_on_c, 11, 87, 84
14, 486351, Note_on_c, 11, 87, 0
14, 486360, Note_on_c, 11, 88, 84
14, 486411, Note_on_c, 11, 88, 0
14, 486420, Note_on_c, 11, 88, 84
14, 486471, Note_on_c, 11, 88, 0
14, 486480, Note_on_c, 11, 89, 84
14, 486531, Note_on_c, 11, 89, 0
14, 486540, Note_on_c, 11, 89, 84
14, 486591, Note_on_c, 11, 89, 0
14, 486600, Note_on_c, 11, 90, 84
14, 486651, Note_on_c, 11, 90, 0
14, 486660, Note_on_c, 11, 90, 84
14, 486711, Note_on_c, 11, 90, 0
14, 486720, Note_on_c, 11, 91, 84
14, 486899, Note_on_c, 11, 91, 0
14, 486960, Note_on_c, 11, 77, 84
14, 486960, Note_on_c, 11, 67, 84
14, 486960, Note_on_c, 11, 86, 84
14, 487184, Note_on_c, 11, 77, 0
14, 487184, Note_on_c, 11, 67, 0
14, 487184, Note_on_c, 11, 86, 0
14, 487200, Note_on_c, 11, 84, 84
14, 487200, Note_on_c, 11, 75, 84
14, 487200, Note_on_c, 11, 67, 84
14, 487439, Note_on_c, 11, 84, 0
14, 487439, Note_on_c, 11, 75, 0
14, 487439, Note_on_c, 11, 67, 0
14, 487680, Note_on_c, 11, 82, 84
14, 487680, Note_on_c, 11, 73, 84
14, 487680, Note_on_c, 11, 63, 84
14, 487859, Note_on_c, 11, 82, 0
14, 487859, Note_on_c, 11, 73, 0
14, 487859, Note_on_c, 11, 63, 0
14, 487920, Note_on_c, 11, 72, 84
14, 487920, Note_on_c, 11, 63, 84
14, 487920, Note_on_c, 11, 80, 84
14, 488099, Note_on_c, 11, 72, 0
14, 488099, Note_on_c, 11, 63, 0
14, 488099, Note_on_c, 11, 80, 0
14, 488400, Note_on_c, 11, 75, 84
14, 488400, Note_on_c, 11, 84, 84
14, 488400, Note_on_c, 11, 65, 84
14, 488579, Note_on_c, 11, 75, 0
14, 488579, Note_on_c, 11, 84, 0
14, 488579, Note_on_c, 11, 65, 0
14, 488640, Note_on_c, 11, 74, 84
14, 488640, Note_on_c, 11, 65, 84
14, 488640, Note_on_c, 11, 82, 84
14, 488819, Note_on_c, 11, 74, 0
14, 488819, Note_on_c, 11, 65, 0
14, 488819, Note_on_c, 11, 82, 0
14, 489120, Note_on_c, 11, 86, 84
14, 489120, Note_on_c, 11, 77, 84
14, 489120, Note_on_c, 11, 67, 84
14, 489299, Note_on_c, 11, 86, 0
14, 489299, Note_on_c, 11, 77, 0
14, 489299, Note_on_c, 11, 67, 0
14, 489360, Note_on_c, 11, 67, 84
14, 489360, Note_on_c, 11, 75, 84
14, 489360, Note_on_c, 11, 84, 84
14, 489539, Note_on_c, 11, 67, 0
14, 489539, Note_on_c, 11, 75, 0
14, 489539, Note_on_c, 11, 84, 0
14, 489840, Note_on_c, 11, 63, 84
14, 489840, Note_on_c, 11, 82, 84
14, 489840, Note_on_c, 11, 73, 84
14, 490019, Note_on_c, 11, 63, 0
14, 490019, Note_on_c, 11, 82, 0
14, 490019, Note_on_c, 11, 73, 0
14, 490080, Note_on_c, 11, 72, 84
14, 490080, Note_on_c, 11, 63, 84
14, 490080, Note_on_c, 11, 80, 84
14, 490259, Note_on_c, 11, 72, 0
14, 490259, Note_on_c, 11, 63, 0
14, 490259, Note_on_c, 11, 80, 0
14, 490560, Note_on_c, 11, 75, 92
14, 490560, Note_on_c, 11, 84, 92
14, 490560, Note_on_c, 11, 66, 92
14, 490739, Note_on_c, 11, 75, 0
14, 490739, Note_on_c, 11, 84, 0
14, 490739, Note_on_c, 11, 66, 0
14, 491040, Note_on_c, 11, 84, 92
14, 491040, Note_on_c, 11, 66, 92
14, 491040, Note_on_c, 11, 75, 92
14, 491219, Note_on_c, 11, 84, 0
14, 491219, Note_on_c, 11, 66, 0
14, 491219, Note_on_c, 11, 75, 0
14, 491520, Note_on_c, 11, 84, 92
14, 491520, Note_on_c, 11, 66, 92
14, 491520, Note_on_c, 11, 75, 92
14, 491699, Note_on_c, 11, 84, 0
14, 491699, Note_on_c, 11, 66, 0
14, 491699, Note_on_c, 11, 75, 0
14, 492000, Note_on_c, 11, 84, 92
14, 492000, Note_on_c, 11, 75, 92
14, 492000, Note_on_c, 11, 66, 92
14, 492179, Note_on_c, 11, 84, 0
14, 492179, Note_on_c, 11, 75, 0
14, 492179, Note_on_c, 11, 66, 0
14, 492480, Note_on_c, 11, 75, 92
14, 492480, Note_on_c, 11, 66, 92
14, 492480, Note_on_c, 11, 84, 92
14, 492659, Note_on_c, 11, 75, 0
14, 492659, Note_on_c, 11, 66, 0
14, 492659, Note_on_c, 11, 84, 0
14, 492960, Note_on_c, 11, 66, 92
14, 492960, Note_on_c, 11, 84, 92
14, 492960, Note_on_c, 11, 75, 92
14, 493139, Note_on_c, 11, 66, 0
14, 493139, Note_on_c, 11, 84, 0
14, 493139, Note_on_c, 11, 75, 0
14, 493920, Note_on_c, 11, 75, 68
14, 494039, Note_on_c, 11, 75, 0
14, 494040, Note_on_c, 11, 75, 52
14, 494159, Note_on_c, 11, 75, 0
14, 494160, Note_on_c, 11, 78, 52
14, 494399, Note_on_c, 11, 78, 0
14, 494400, Note_on_c, 11, 81, 52
14, 494624, Note_on_c, 11, 81, 0
14, 494640, Note_on_c, 11, 82, 52
14, 495329, Note_on_c, 11, 82, 0
14, 495360, Note_on_c, 11, 75, 68
14, 495479, Note_on_c, 11, 75, 0
14, 495480, Note_on_c, 11, 75, 52
14, 495599, Note_on_c, 11, 75, 0
14, 495600, Note_on_c, 11, 78, 52
14, 495839, Note_on_c, 11, 78, 0
14, 495840, Note_on_c, 11, 81, 52
14, 496319, Note_on_c, 11, 81, 0
14, 496320, Note_on_c, 11, 80, 52
14, 496559, Note_on_c, 11, 80, 0
14, 496560, Note_on_c, 11, 78, 52
14, 497039, Note_on_c, 11, 78, 0
14, 497040, Note_on_c, 11, 76, 52
14, 497279, Note_on_c, 11, 76, 0
14, 497280, Note_on_c, 11, 77, 52
14, 497759, Note_on_c, 11, 77, 0
14, 497760, Note_on_c, 11, 70, 52
14, 497999, Note_on_c, 11, 70, 0
14, 498000, Note_on_c, 11, 80, 52
14, 498479, Note_on_c, 11, 80, 0
14, 498480, Note_on_c, 11, 78, 52
14, 498719, Note_on_c, 11, 78, 0
14, 498720, Note_on_c, 11, 79, 52
14, 499064, Note_on_c, 11, 79, 0
14, 499080, Note_on_c, 11, 71, 52
14, 499199, Note_on_c, 11, 71, 0
14, 499200, Note_on_c, 11, 72, 53
14, 499319, Note_on_c, 11, 72, 0
14, 499320, Note_on_c, 11, 76, 55
14, 499439, Note_on_c, 11, 76, 0
14, 499440, Note_on_c, 11, 77, 57
14, 499559, Note_on_c, 11, 77, 0
14, 499560, Note_on_c, 11, 79, 59
14, 499679, Note_on_c, 11, 79, 0
14, 499680, Note_on_c, 11, 80, 61
14, 499799, Note_on_c, 11, 80, 0
14, 499800, Note_on_c, 11, 83, 63
14, 499919, Note_on_c, 11, 83, 0
14, 499920, Note_on_c, 11, 84, 65
14, 500039, Note_on_c, 11, 84, 0
14, 500040, Note_on_c, 11, 80, 67
14, 500159, Note_on_c, 11, 80, 0
14, 500160, Note_on_c, 11, 79, 68
14, 500279, Note_on_c, 11, 79, 0
14, 500280, Note_on_c, 11, 77, 70
14, 500384, Note_on_c, 11, 77, 0
14, 500400, Note_on_c, 11, 75, 72
14, 500451, Note_on_c, 11, 75, 0
14, 500460, Note_on_c, 11, 75, 73
14, 500511, Note_on_c, 11, 75, 0
14, 500520, Note_on_c, 11, 79, 74
14, 500571, Note_on_c, 11, 79, 0
14, 500580, Note_on_c, 11, 79, 75
14, 500631, Note_on_c, 11, 79, 0
14, 500640, Note_on_c, 11, 82, 76
14, 500691, Note_on_c, 11, 82, 0
14, 500700, Note_on_c, 11, 82, 77
14, 500751, Note_on_c, 11, 82, 0
14, 500760, Note_on_c, 11, 82, 78
14, 500811, Note_on_c, 11, 82, 0
14, 500820, Note_on_c, 11, 82, 79
14, 500871, Note_on_c, 11, 82, 0
14, 500880, Note_on_c, 11, 82, 80
14, 500931, Note_on_c, 11, 82, 0
14, 500940, Note_on_c, 11, 82, 81
14, 500991, Note_on_c, 11, 82, 0
14, 501000, Note_on_c, 11, 82, 82
14, 501051, Note_on_c, 11, 82, 0
14, 501060, Note_on_c, 11, 82, 83
14, 501111, Note_on_c, 11, 82, 0
14, 501120, Note_on_c, 11, 82, 84
14, 501171, Note_on_c, 11, 82, 0
14, 501180, Note_on_c, 11, 82, 84
14, 501231, Note_on_c, 11, 82, 0
14, 501240, Note_on_c, 11, 82, 84
14, 501291, Note_on_c, 11, 82, 0
14, 501300, Note_on_c, 11, 82, 84
14, 501351, Note_on_c, 11, 82, 0
14, 501360, Note_on_c, 11, 82, 84
14, 501411, Note_on_c, 11, 82, 0
14, 501420, Note_on_c, 11, 82, 84
14, 501471, Note_on_c, 11, 82, 0
14, 501480, Note_on_c, 11, 82, 84
14, 501531, Note_on_c, 11, 82, 0
14, 501540, Note_on_c, 11, 82, 84
14, 501591, Note_on_c, 11, 82, 0
14, 501600, Note_on_c, 11, 82, 84
14, 501651, Note_on_c, 11, 82, 0
14, 501660, Note_on_c, 11, 82, 84
14, 501711, Note_on_c, 11, 82, 0
14, 501720, Note_on_c, 11, 82, 84
14, 501771, Note_on_c, 11, 82, 0
14, 501780, Note_on_c, 11, 82, 84
14, 501831, Note_on_c, 11, 82, 0
14, 501840, Note_on_c, 11, 75, 76
14, 502079, Note_on_c, 11, 75, 0
14, 502560, Note_on_c, 11, 75, 76
14, 502560, Note_on_c, 11, 87, 76
14, 502799, Note_on_c, 11, 75, 0
14, 502799, Note_on_c, 11, 87, 0
14, 503280, Note_on_c, 11, 75, 76
14, 503280, Note_on_c, 11, 87, 76
14, 503519, Note_on_c, 11, 75, 0
14, 503519, Note_on_c, 11, 87, 0
14, 504000, Note_on_c, 11, 87, 76
14, 504000, Note_on_c, 11, 75, 76
14, 504179, Note_on_c, 11, 87, 0
14, 504179, Note_on_c, 11, 75, 0
14, 504240, Note_on_c, 11, 87, 76
14, 504240, Note_on_c, 11, 75, 76
14, 504419, Note_on_c, 11, 87, 0
14, 504419, Note_on_c, 11, 75, 0
14, 504480, Note_on_c, 11, 75, 76
14, 504480, Note_on_c, 11, 87, 76
14, 504659, Note_on_c, 11, 75, 0
14, 504659, Note_on_c, 11, 87, 0
14, 504720, Note_on_c, 11, 75, 76
14, 504720, Note_on_c, 11, 87, 76
14, 504840, Control_c, 11, 11, 80
14, 505199, Note_on_c, 11, 75, 0
14, 505199, Note_on_c, 11, 87, 0
14, 505200, Note_on_c, 11, 79, 76
14, 505439, Note_on_c, 11, 79, 0
14, 505440, Note_on_c, 11, 75, 76
14, 505919, Note_on_c, 11, 75, 0
14, 505920, Note_on_c, 11, 70, 76
14, 506144, Note_on_c, 11, 70, 0
14, 506160, Control_c, 11, 11, 80
14, 506160, Note_on_c, 11, 75, 76
14, 506250, Control_c, 11, 11, 79
14, 506340, Control_c, 11, 11, 78
14, 506430, Control_c, 11, 11, 77
14, 506520, Control_c, 11, 11, 76
14, 506610, Control_c, 11, 11, 75
14, 506700, Control_c, 11, 11, 74
14, 506790, Control_c, 11, 11, 73
14, 506880, Control_c, 11, 11, 72
14, 506970, Control_c, 11, 11, 71
14, 507060, Control_c, 11, 11, 70
14, 507150, Control_c, 11, 11, 69
14, 507240, Control_c, 11, 11, 68
14, 507330, Control_c, 11, 11, 67
14, 507420, Control_c, 11, 11, 66
14, 507510, Control_c, 11, 11, 64
14, 507599, Note_on_c, 11, 75, 0
14, 507600, Note_on_c, 11, 75, 76
14, 509009, Note_on_c, 11, 75, 0
14, 509038, Control_c, 11, 11, 127
14, 509040, Note_on_c, 11, 73, 76
14, 509519, Note_on_c, 11, 73, 0
14, 509520, Note_on_c, 11, 77, 76
14, 509759, Note_on_c, 11, 77, 0
14, 509760, Note_on_c, 11, 73, 76
14, 510239, Note_on_c, 11, 73, 0
14, 510240, Note_on_c, 11, 68, 76
14, 510464, Note_on_c, 11, 68, 0
14, 510480, Note_on_c, 11, 73, 52
14, 511904, Note_on_c, 11, 73, 0
14, 511920, Note_on_c, 11, 72, 84
14, 511971, Note_on_c, 11, 72, 0
14, 511980, Note_on_c, 11, 72, 84
14, 512031, Note_on_c, 11, 72, 0
14, 512040, Note_on_c, 11, 72, 84
14, 512091, Note_on_c, 11, 72, 0
14, 512100, Note_on_c, 11, 72, 84
14, 512151, Note_on_c, 11, 72, 0
14, 512160, Note_on_c, 11, 72, 84
14, 512211, Note_on_c, 11, 72, 0
14, 512220, Note_on_c, 11, 72, 84
14, 512271, Note_on_c, 11, 72, 0
14, 512280, Note_on_c, 11, 72, 84
14, 512331, Note_on_c, 11, 72, 0
14, 512340, Note_on_c, 11, 72, 84
14, 512391, Note_on_c, 11, 72, 0
14, 512400, Note_on_c, 11, 76, 84
14, 512451, Note_on_c, 11, 76, 0
14, 512460, Note_on_c, 11, 76, 84
14, 512511, Note_on_c, 11, 76, 0
14, 512520, Note_on_c, 11, 76, 84
14, 512571, Note_on_c, 11, 76, 0
14, 512580, Note_on_c, 11, 76, 84
14, 512631, Note_on_c, 11, 76, 0
14, 512640, Note_on_c, 11, 72, 84
14, 512691, Note_on_c, 11, 72, 0
14, 512700, Note_on_c, 11, 72, 84
14, 512751, Note_on_c, 11, 72, 0
14, 512760, Note_on_c, 11, 72, 84
14, 512811, Note_on_c, 11, 72, 0
14, 512820, Note_on_c, 11, 72, 84
14, 512871, Note_on_c, 11, 72, 0
14, 512880, Note_on_c, 11, 72, 84
14, 512931, Note_on_c, 11, 72, 0
14, 512940, Note_on_c, 11, 72, 84
14, 512991, Note_on_c, 11, 72, 0
14, 513000, Note_on_c, 11, 72, 84
14, 513051, Note_on_c, 11, 72, 0
14, 513060, Note_on_c, 11, 72, 84
14, 513111, Note_on_c, 11, 72, 0
14, 513120, Note_on_c, 11, 67, 84
14, 513171, Note_on_c, 11, 67, 0
14, 513180, Note_on_c, 11, 67, 84
14, 513231, Note_on_c, 11, 67, 0
14, 513240, Note_on_c, 11, 67, 84
14, 513291, Note_on_c, 11, 67, 0
14, 513300, Note_on_c, 11, 67, 84
14, 513351, Note_on_c, 11, 67, 0
14, 513360, Note_on_c, 11, 72, 52
14, 514080, Control_c, 11, 11, 127
14, 514140, Control_c, 11, 11, 126
14, 514200, Control_c, 11, 11, 125
14, 514260, Control_c, 11, 11, 123
14, 514320, Control_c, 11, 11, 122
14, 514380, Control_c, 11, 11, 121
14, 514440, Control_c, 11, 11, 120
14, 514500, Control_c, 11, 11, 118
14, 514560, Control_c, 11, 11, 117
14, 514620, Control_c, 11, 11, 116
14, 514680, Control_c, 11, 11, 115
14, 514740, Control_c, 11, 11, 112
14, 515039, Note_on_c, 11, 72, 0
14, 516240, Control_c, 11, 11, 127
14, 516360, Note_on_c, 11, 79, 44
14, 516419, Note_on_c, 11, 79, 0
14, 516420, Note_on_c, 11, 78, 44
14, 516471, Note_on_c, 11, 78, 0
14, 516480, Note_on_c, 11, 79, 44
14, 516569, Note_on_c, 11, 79, 0
14, 516600, Note_on_c, 11, 79, 44
14, 516689, Note_on_c, 11, 79, 0
14, 516720, Note_on_c, 11, 79, 44
14, 516809, Note_on_c, 11, 79, 0
14, 516840, Note_on_c, 11, 79, 44
14, 516929, Note_on_c, 11, 79, 0
14, 517080, Note_on_c, 11, 79, 44
14, 517139, Note_on_c, 11, 79, 0
14, 517140, Note_on_c, 11, 78, 44
14, 517191, Note_on_c, 11, 78, 0
14, 517200, Note_on_c, 11, 79, 44
14, 517289, Note_on_c, 11, 79, 0
14, 517320, Note_on_c, 11, 79, 44
14, 517409, Note_on_c, 11, 79, 0
14, 517440, Note_on_c, 11, 79, 44
14, 517529, Note_on_c, 11, 79, 0
14, 517560, Note_on_c, 11, 79, 44
14, 517649, Note_on_c, 11, 79, 0
14, 517800, Note_on_c, 11, 79, 44
14, 517859, Note_on_c, 11, 79, 0
14, 517860, Note_on_c, 11, 78, 44
14, 517911, Note_on_c, 11, 78, 0
14, 517920, Note_on_c, 11, 79, 44
14, 518009, Note_on_c, 11, 79, 0
14, 518040, Note_on_c, 11, 81, 44
14, 518129, Note_on_c, 11, 81, 0
14, 518160, Note_on_c, 11, 83, 44
14, 518249, Note_on_c, 11, 83, 0
14, 518280, Note_on_c, 11, 84, 44
14, 518369, Note_on_c, 11, 84, 0
14, 518400, Note_on_c, 11, 86, 44
14, 518489, Note_on_c, 11, 86, 0
14, 518520, Note_on_c, 11, 88, 44
14, 518609, Note_on_c, 11, 88, 0
14, 518640, Note_on_c, 11, 89, 44
14, 518729, Note_on_c, 11, 89, 0
14, 518760, Note_on_c, 11, 88, 44
14, 518849, Note_on_c, 11, 88, 0
14, 518880, Note_on_c, 11, 86, 44
14, 518969, Note_on_c, 11, 86, 0
14, 519000, Note_on_c, 11, 84, 44
14, 519089, Note_on_c, 11, 84, 0
14, 519120, Note_on_c, 11, 83, 44
14, 519209, Note_on_c, 11, 83, 0
14, 519240, Note_on_c, 11, 84, 44
14, 519329, Note_on_c, 11, 84, 0
14, 519360, Note_on_c, 11, 86, 44
14, 519449, Note_on_c, 11, 86, 0
14, 519480, Note_on_c, 11, 84, 44
14, 519569, Note_on_c, 11, 84, 0
14, 519600, Note_on_c, 11, 83, 44
14, 519689, Note_on_c, 11, 83, 0
14, 519720, Note_on_c, 11, 81, 44
14, 519809, Note_on_c, 11, 81, 0
14, 519840, Note_on_c, 11, 79, 44
14, 519929, Note_on_c, 11, 79, 0
14, 519960, Note_on_c, 11, 78, 44
14, 520049, Note_on_c, 11, 78, 0
14, 520080, Note_on_c, 11, 79, 44
14, 520169, Note_on_c, 11, 79, 0
14, 520200, Note_on_c, 11, 77, 44
14, 520289, Note_on_c, 11, 77, 0
14, 520320, Note_on_c, 11, 76, 44
14, 520409, Note_on_c, 11, 76, 0
14, 520440, Note_on_c, 11, 74, 44
14, 520529, Note_on_c, 11, 74, 0
14, 520680, Note_on_c, 11, 72, 44
14, 520739, Note_on_c, 11, 72, 0
14, 520740, Note_on_c, 11, 71, 44
14, 520791, Note_on_c, 11, 71, 0
14, 520800, Note_on_c, 11, 72, 44
14, 520889, Note_on_c, 11, 72, 0
14, 520920, Note_on_c, 11, 76, 44
14, 521009, Note_on_c, 11, 76, 0
14, 521040, Note_on_c, 11, 79, 44
14, 521129, Note_on_c, 11, 79, 0
14, 521160, Note_on_c, 11, 76, 44
14, 521249, Note_on_c, 11, 76, 0
14, 521280, Note_on_c, 11, 84, 44
14, 521369, Note_on_c, 11, 84, 0
14, 521400, Note_on_c, 11, 79, 44
14, 521489, Note_on_c, 11, 79, 0
14, 521520, Note_on_c, 11, 76, 44
14, 521609, Note_on_c, 11, 76, 0
14, 521640, Note_on_c, 11, 79, 44
14, 521729, Note_on_c, 11, 79, 0
14, 521760, Note_on_c, 11, 76, 44
14, 521849, Note_on_c, 11, 76, 0
14, 521880, Note_on_c, 11, 72, 44
14, 521969, Note_on_c, 11, 72, 0
14, 522120, Note_on_c, 11, 72, 44
14, 522179, Note_on_c, 11, 72, 0
14, 522180, Note_on_c, 11, 71, 44
14, 522231, Note_on_c, 11, 71, 0
14, 522240, Note_on_c, 11, 72, 44
14, 522329, Note_on_c, 11, 72, 0
14, 522360, Note_on_c, 11, 77, 44
14, 522449, Note_on_c, 11, 77, 0
14, 522480, Note_on_c, 11, 80, 44
14, 522569, Note_on_c, 11, 80, 0
14, 522600, Note_on_c, 11, 77, 44
14, 522689, Note_on_c, 11, 77, 0
14, 522720, Note_on_c, 11, 84, 44
14, 522809, Note_on_c, 11, 84, 0
14, 522840, Note_on_c, 11, 80, 44
14, 522929, Note_on_c, 11, 80, 0
14, 522960, Note_on_c, 11, 77, 44
14, 523049, Note_on_c, 11, 77, 0
14, 523080, Note_on_c, 11, 80, 44
14, 523169, Note_on_c, 11, 80, 0
14, 523200, Note_on_c, 11, 77, 44
14, 523289, Note_on_c, 11, 77, 0
14, 523320, Note_on_c, 11, 72, 44
14, 523409, Note_on_c, 11, 72, 0
14, 523560, Note_on_c, 11, 82, 44
14, 523649, Note_on_c, 11, 82, 0
14, 523680, Note_on_c, 11, 84, 44
14, 523769, Note_on_c, 11, 84, 0
14, 523800, Note_on_c, 11, 85, 44
14, 523889, Note_on_c, 11, 85, 0
14, 523920, Note_on_c, 11, 79, 44
14, 524009, Note_on_c, 11, 79, 0
14, 524040, Note_on_c, 11, 80, 44
14, 524129, Note_on_c, 11, 80, 0
14, 524160, Note_on_c, 11, 82, 44
14, 524249, Note_on_c, 11, 82, 0
14, 524280, Note_on_c, 11, 76, 44
14, 524369, Note_on_c, 11, 76, 0
14, 524400, Note_on_c, 11, 77, 44
14, 524489, Note_on_c, 11, 77, 0
14, 524520, Note_on_c, 11, 79, 44
14, 524609, Note_on_c, 11, 79, 0
14, 524640, Note_on_c, 11, 70, 44
14, 524729, Note_on_c, 11, 70, 0
14, 524760, Note_on_c, 11, 72, 44
14, 524849, Note_on_c, 11, 72, 0
14, 524880, Note_on_c, 11, 73, 44
14, 524969, Note_on_c, 11, 73, 0
14, 525000, Note_on_c, 11, 72, 44
14, 525089, Note_on_c, 11, 72, 0
14, 525120, Note_on_c, 11, 70, 44
14, 525209, Note_on_c, 11, 70, 0
14, 525240, Note_on_c, 11, 68, 44
14, 525329, Note_on_c, 11, 68, 0
14, 525360, Note_on_c, 11, 67, 44
14, 525449, Note_on_c, 11, 67, 0
14, 525480, Note_on_c, 11, 65, 44
14, 525569, Note_on_c, 11, 65, 0
14, 525600, Note_on_c, 11, 64, 44
14, 525689, Note_on_c, 11, 64, 0
14, 525720, Note_on_c, 11, 67, 44
14, 525809, Note_on_c, 11, 67, 0
14, 525840, Note_on_c, 11, 72, 44
14, 525929, Note_on_c, 11, 72, 0
14, 525960, Note_on_c, 11, 70, 44
14, 526049, Note_on_c, 11, 70, 0
14, 526080, Note_on_c, 11, 68, 44
14, 526169, Note_on_c, 11, 68, 0
14, 526200, Note_on_c, 11, 67, 44
14, 526289, Note_on_c, 11, 67, 0
14, 526320, Note_on_c, 11, 65, 44
14, 526409, Note_on_c, 11, 65, 0
14, 526425, Control_c, 11, 11, 80
14, 526440, Note_on_c, 11, 72, 68
14, 526664, Note_on_c, 11, 72, 0
14, 526680, Note_on_c, 11, 72, 68
14, 526904, Note_on_c, 11, 72, 0
14, 526920, Note_on_c, 11, 72, 68
14, 527144, Note_on_c, 11, 72, 0
14, 527160, Note_on_c, 11, 72, 68
14, 527384, Note_on_c, 11, 72, 0
14, 527400, Note_on_c, 11, 72, 68
14, 527624, Note_on_c, 11, 72, 0
14, 527640, Note_on_c, 11, 72, 68
14, 527864, Note_on_c, 11, 72, 0
14, 527880, Note_on_c, 11, 84, 68
14, 528104, Note_on_c, 11, 84, 0
14, 528120, Note_on_c, 11, 84, 68
14, 528344, Note_on_c, 11, 84, 0
14, 528360, Note_on_c, 11, 84, 68
14, 528584, Note_on_c, 11, 84, 0
14, 528600, Note_on_c, 11, 84, 68
14, 528824, Note_on_c, 11, 84, 0
14, 528840, Note_on_c, 11, 84, 68
14, 529064, Note_on_c, 11, 84, 0
14, 529080, Note_on_c, 11, 84, 68
14, 529304, Note_on_c, 11, 84, 0
14, 529320, Note_on_c, 11, 72, 68
14, 529544, Note_on_c, 11, 72, 0
14, 529560, Note_on_c, 11, 72, 68
14, 529784, Note_on_c, 11, 72, 0
14, 529800, Note_on_c, 11, 72, 68
14, 530024, Note_on_c, 11, 72, 0
14, 530040, Note_on_c, 11, 72, 68
14, 530264, Note_on_c, 11, 72, 0
14, 530280, Note_on_c, 11, 72, 68
14, 530504, Note_on_c, 11, 72, 0
14, 530520, Note_on_c, 11, 71, 68
14, 530639, Note_on_c, 11, 71, 0
14, 530640, Note_on_c, 11, 70, 68
14, 530640, Control_c, 11, 11, 80
14, 530700, Control_c, 11, 11, 82
14, 530744, Note_on_c, 11, 70, 0
14, 530760, Note_on_c, 11, 70, 68
14, 530760, Control_c, 11, 11, 84
14, 530820, Control_c, 11, 11, 86
14, 530880, Control_c, 11, 11, 88
14, 530940, Control_c, 11, 11, 90
14, 530984, Note_on_c, 11, 70, 0
14, 531000, Control_c, 11, 11, 92
14, 531000, Note_on_c, 11, 70, 68
14, 531060, Control_c, 11, 11, 94
14, 531120, Control_c, 11, 11, 96
14, 531180, Control_c, 11, 11, 98
14, 531224, Note_on_c, 11, 70, 0
14, 531240, Note_on_c, 11, 70, 68
14, 531240, Control_c, 11, 11, 100
14, 531300, Control_c, 11, 11, 102
14, 531360, Control_c, 11, 11, 104
14, 531420, Control_c, 11, 11, 105
14, 531464, Note_on_c, 11, 70, 0
14, 531480, Control_c, 11, 11, 107
14, 531480, Note_on_c, 11, 70, 68
14, 531540, Control_c, 11, 11, 109
14, 531600, Control_c, 11, 11, 111
14, 531660, Control_c, 11, 11, 113
14, 531704, Note_on_c, 11, 70, 0
14, 531720, Note_on_c, 11, 70, 68
14, 531720, Control_c, 11, 11, 115
14, 531780, Control_c, 11, 11, 117
14, 531840, Control_c, 11, 11, 119
14, 531900, Control_c, 11, 11, 121
14, 531944, Note_on_c, 11, 70, 0
14, 531960, Note_on_c, 11, 70, 68
14, 531960, Control_c, 11, 11, 123
14, 532020, Control_c, 11, 11, 127
14, 532184, Note_on_c, 11, 70, 0
14, 532200, Note_on_c, 11, 82, 52
14, 532424, Note_on_c, 11, 82, 0
14, 532440, Note_on_c, 11, 82, 52
14, 532664, Note_on_c, 11, 82, 0
14, 532680, Note_on_c, 11, 82, 52
14, 532904, Note_on_c, 11, 82, 0
14, 532920, Note_on_c, 11, 82, 52
14, 533144, Note_on_c, 11, 82, 0
14, 533160, Note_on_c, 11, 82, 52
14, 533384, Note_on_c, 11, 82, 0
14, 533400, Note_on_c, 11, 82, 52
14, 533624, Note_on_c, 11, 82, 0
14, 533640, Note_on_c, 11, 70, 52
14, 533864, Note_on_c, 11, 70, 0
14, 533880, Note_on_c, 11, 70, 52
14, 534104, Note_on_c, 11, 70, 0
14, 534120, Note_on_c, 11, 70, 52
14, 534344, Note_on_c, 11, 70, 0
14, 534360, Note_on_c, 11, 70, 52
14, 534584, Note_on_c, 11, 70, 0
14, 534600, Note_on_c, 11, 70, 52
14, 534824, Note_on_c, 11, 70, 0
14, 534840, Note_on_c, 11, 70, 52
14, 535064, Note_on_c, 11, 70, 0
14, 535080, Note_on_c, 11, 82, 52
14, 535304, Note_on_c, 11, 82, 0
14, 535320, Note_on_c, 11, 82, 52
14, 535544, Note_on_c, 11, 82, 0
14, 535560, Note_on_c, 11, 82, 52
14, 535784, Note_on_c, 11, 82, 0
14, 535800, Note_on_c, 11, 82, 52
14, 536024, Note_on_c, 11, 82, 0
14, 536040, Note_on_c, 11, 82, 52
14, 536264, Note_on_c, 11, 82, 0
14, 536280, Note_on_c, 11, 82, 52
14, 536504, Note_on_c, 11, 82, 0
14, 536520, Note_on_c, 11, 82, 52
14, 536579, Note_on_c, 11, 82, 0
14, 536580, Note_on_c, 11, 81, 52
14, 536631, Note_on_c, 11, 81, 0
14, 536640, Note_on_c, 11, 82, 52
14, 536729, Note_on_c, 11, 82, 0
14, 536760, Note_on_c, 11, 82, 52
14, 536849, Note_on_c, 11, 82, 0
14, 536880, Note_on_c, 11, 82, 52
14, 536969, Note_on_c, 11, 82, 0
14, 537000, Note_on_c, 11, 82, 52
14, 537089, Note_on_c, 11, 82, 0
14, 537120, Note_on_c, 11, 82, 52
14, 537944, Note_on_c, 11, 82, 0
14, 537960, Note_on_c, 11, 80, 52
14, 538019, Note_on_c, 11, 80, 0
14, 538020, Note_on_c, 11, 79, 52
14, 538071, Note_on_c, 11, 79, 0
14, 538080, Note_on_c, 11, 80, 52
14, 538169, Note_on_c, 11, 80, 0
14, 538200, Note_on_c, 11, 80, 52
14, 538289, Note_on_c, 11, 80, 0
14, 538320, Note_on_c, 11, 80, 52
14, 538409, Note_on_c, 11, 80, 0
14, 538440, Note_on_c, 11, 80, 52
14, 538529, Note_on_c, 11, 80, 0
14, 538560, Note_on_c, 11, 80, 52
14, 539384, Note_on_c, 11, 80, 0
14, 539400, Note_on_c, 11, 80, 52
14, 539459, Note_on_c, 11, 80, 0
14, 539460, Note_on_c, 11, 79, 52
14, 539511, Note_on_c, 11, 79, 0
14, 539520, Note_on_c, 11, 80, 52
14, 539609, Note_on_c, 11, 80, 0
14, 539640, Note_on_c, 11, 80, 51
14, 539729, Note_on_c, 11, 80, 0
14, 539760, Note_on_c, 11, 80, 51
14, 539849, Note_on_c, 11, 80, 0
14, 539880, Note_on_c, 11, 80, 51
14, 539969, Note_on_c, 11, 80, 0
14, 540120, Note_on_c, 11, 78, 50
14, 540179, Note_on_c, 11, 78, 0
14, 540180, Note_on_c, 11, 77, 50
14, 540231, Note_on_c, 11, 77, 0
14, 540240, Note_on_c, 11, 78, 50
14, 540329, Note_on_c, 11, 78, 0
14, 540360, Note_on_c, 11, 78, 49
14, 540449, Note_on_c, 11, 78, 0
14, 540480, Note_on_c, 11, 78, 49
14, 540569, Note_on_c, 11, 78, 0
14, 540600, Note_on_c, 11, 78, 49
14, 540689, Note_on_c, 11, 78, 0
14, 540840, Note_on_c, 11, 77, 48
14, 540899, Note_on_c, 11, 77, 0
14, 540900, Note_on_c, 11, 75, 48
14, 540951, Note_on_c, 11, 75, 0
14, 540960, Note_on_c, 11, 77, 48
14, 541049, Note_on_c, 11, 77, 0
14, 541080, Note_on_c, 11, 77, 47
14, 541169, Note_on_c, 11, 77, 0
14, 541200, Note_on_c, 11, 77, 47
14, 541289, Note_on_c, 11, 77, 0
14, 541320, Note_on_c, 11, 77, 47
14, 541409, Note_on_c, 11, 77, 0
14, 541560, Note_on_c, 11, 77, 46
14, 541619, Note_on_c, 11, 77, 0
14, 541620, Note_on_c, 11, 75, 46
14, 541671, Note_on_c, 11, 75, 0
14, 541680, Note_on_c, 11, 77, 46
14, 541769, Note_on_c, 11, 77, 0
14, 541800, Note_on_c, 11, 77, 45
14, 541889, Note_on_c, 11, 77, 0
14, 541920, Note_on_c, 11, 77, 45
14, 542009, Note_on_c, 11, 77, 0
14, 542040, Note_on_c, 11, 77, 45
14, 542129, Note_on_c, 11, 77, 0
14, 542160, Note_on_c, 11, 77, 44
14, 542211, Note_on_c, 11, 77, 0
14, 542220, Note_on_c, 11, 70, 44
14, 542271, Note_on_c, 11, 70, 0
14, 542280, Note_on_c, 11, 70, 44
14, 542331, Note_on_c, 11, 70, 0
14, 542340, Note_on_c, 11, 70, 44
14, 542391, Note_on_c, 11, 70, 0
14, 542400, Note_on_c, 11, 70, 44
14, 542451, Note_on_c, 11, 70, 0
14, 542460, Note_on_c, 11, 70, 44
14, 542511, Note_on_c, 11, 70, 0
14, 542520, Note_on_c, 11, 70, 44
14, 542571, Note_on_c, 11, 70, 0
14, 542580, Note_on_c, 11, 70, 44
14, 542631, Note_on_c, 11, 70, 0
14, 542640, Note_on_c, 11, 70, 44
14, 542691, Note_on_c, 11, 70, 0
14, 542700, Note_on_c, 11, 70, 44
14, 542751, Note_on_c, 11, 70, 0
14, 542760, Note_on_c, 11, 70, 44
14, 542811, Note_on_c, 11, 70, 0
14, 542820, Note_on_c, 11, 70, 44
14, 542871, Note_on_c, 11, 70, 0
14, 542880, Note_on_c, 11, 70, 44
14, 542931, Note_on_c, 11, 70, 0
14, 542940, Note_on_c, 11, 70, 44
14, 542991, Note_on_c, 11, 70, 0
14, 543000, Note_on_c, 11, 70, 44
14, 543051, Note_on_c, 11, 70, 0
14, 543060, Note_on_c, 11, 70, 44
14, 543111, Note_on_c, 11, 70, 0
14, 543120, Note_on_c, 11, 70, 44
14, 543171, Note_on_c, 11, 70, 0
14, 543180, Note_on_c, 11, 70, 44
14, 543231, Note_on_c, 11, 70, 0
14, 543240, Note_on_c, 11, 70, 44
14, 543291, Note_on_c, 11, 70, 0
14, 543300, Note_on_c, 11, 70, 44
14, 543351, Note_on_c, 11, 70, 0
14, 543360, Note_on_c, 11, 70, 44
14, 543411, Note_on_c, 11, 70, 0
14, 543420, Note_on_c, 11, 70, 44
14, 543471, Note_on_c, 11, 70, 0
14, 543480, Note_on_c, 11, 70, 44
14, 543531, Note_on_c, 11, 70, 0
14, 543540, Note_on_c, 11, 70, 44
14, 543591, Note_on_c, 11, 70, 0
14, 543600, Note_on_c, 11, 70, 44
14, 543600, Note_on_c, 11, 62, 44
14, 543651, Note_on_c, 11, 70, 0
14, 543651, Note_on_c, 11, 62, 0
14, 543660, Note_on_c, 11, 62, 44
14, 543660, Note_on_c, 11, 70, 44
14, 543711, Note_on_c, 11, 62, 0
14, 543711, Note_on_c, 11, 70, 0
14, 543720, Note_on_c, 11, 70, 44
14, 543720, Note_on_c, 11, 62, 44
14, 543771, Note_on_c, 11, 70, 0
14, 543771, Note_on_c, 11, 62, 0
14, 543780, Note_on_c, 11, 62, 44
14, 543780, Note_on_c, 11, 70, 44
14, 543831, Note_on_c, 11, 62, 0
14, 543831, Note_on_c, 11, 70, 0
14, 543840, Note_on_c, 11, 62, 44
14, 543840, Note_on_c, 11, 70, 44
14, 543891, Note_on_c, 11, 62, 0
14, 543891, Note_on_c, 11, 70, 0
14, 543900, Note_on_c, 11, 62, 44
14, 543900, Note_on_c, 11, 70, 44
14, 543951, Note_on_c, 11, 62, 0
14, 543951, Note_on_c, 11, 70, 0
14, 543960, Note_on_c, 11, 70, 44
14, 543960, Note_on_c, 11, 62, 44
14, 544011, Note_on_c, 11, 70, 0
14, 544011, Note_on_c, 11, 62, 0
14, 544020, Note_on_c, 11, 70, 44
14, 544020, Note_on_c, 11, 62, 44
14, 544071, Note_on_c, 11, 70, 0
14, 544071, Note_on_c, 11, 62, 0
14, 544080, Note_on_c, 11, 70, 44
14, 544080, Note_on_c, 11, 62, 44
14, 544131, Note_on_c, 11, 70, 0
14, 544131, Note_on_c, 11, 62, 0
14, 544140, Note_on_c, 11, 62, 44
14, 544140, Note_on_c, 11, 70, 44
14, 544191, Note_on_c, 11, 62, 0
14, 544191, Note_on_c, 11, 70, 0
14, 544200, Note_on_c, 11, 62, 44
14, 544200, Note_on_c, 11, 70, 44
14, 544251, Note_on_c, 11, 62, 0
14, 544251, Note_on_c, 11, 70, 0
14, 544260, Note_on_c, 11, 62, 44
14, 544260, Note_on_c, 11, 70, 44
14, 544311, Note_on_c, 11, 62, 0
14, 544311, Note_on_c, 11, 70, 0
14, 544320, Note_on_c, 11, 70, 44
14, 544320, Note_on_c, 11, 62, 44
14, 544371, Note_on_c, 11, 70, 0
14, 544371, Note_on_c, 11, 62, 0
14, 544380, Note_on_c, 11, 70, 44
14, 544380, Note_on_c, 11, 62, 44
14, 544431, Note_on_c, 11, 70, 0
14, 544431, Note_on_c, 11, 62, 0
14, 544440, Note_on_c, 11, 62, 44
14, 544440, Note_on_c, 11, 70, 44
14, 544491, Note_on_c, 11, 62, 0
14, 544491, Note_on_c, 11, 70, 0
14, 544500, Note_on_c, 11, 70, 44
14, 544500, Note_on_c, 11, 62, 44
14, 544551, Note_on_c, 11, 70, 0
14, 544551, Note_on_c, 11, 62, 0
14, 544560, Note_on_c, 11, 62, 44
14, 544560, Note_on_c, 11, 70, 44
14, 544611, Note_on_c, 11, 62, 0
14, 544611, Note_on_c, 11, 70, 0
14, 544620, Note_on_c, 11, 70, 44
14, 544620, Note_on_c, 11, 62, 44
14, 544671, Note_on_c, 11, 70, 0
14, 544671, Note_on_c, 11, 62, 0
14, 544680, Note_on_c, 11, 70, 44
14, 544680, Note_on_c, 11, 62, 44
14, 544731, Note_on_c, 11, 70, 0
14, 544731, Note_on_c, 11, 62, 0
14, 544740, Note_on_c, 11, 70, 44
14, 544740, Note_on_c, 11, 62, 44
14, 544791, Note_on_c, 11, 70, 0
14, 544791, Note_on_c, 11, 62, 0
14, 544800, Note_on_c, 11, 62, 44
14, 544800, Note_on_c, 11, 71, 44
14, 544851, Note_on_c, 11, 62, 0
14, 544851, Note_on_c, 11, 71, 0
14, 544860, Note_on_c, 11, 71, 44
14, 544860, Note_on_c, 11, 62, 44
14, 544911, Note_on_c, 11, 71, 0
14, 544911, Note_on_c, 11, 62, 0
14, 544920, Note_on_c, 11, 71, 44
14, 544920, Note_on_c, 11, 62, 44
14, 544971, Note_on_c, 11, 71, 0
14, 544971, Note_on_c, 11, 62, 0
14, 544980, Note_on_c, 11, 71, 44
14, 544980, Note_on_c, 11, 62, 44
14, 545031, Note_on_c, 11, 71, 0
14, 545031, Note_on_c, 11, 62, 0
14, 545040, Note_on_c, 11, 63, 44
14, 545040, Note_on_c, 11, 72, 44
14, 545091, Note_on_c, 11, 63, 0
14, 545091, Note_on_c, 11, 72, 0
14, 545100, Note_on_c, 11, 72, 44
14, 545100, Note_on_c, 11, 63, 44
14, 545151, Note_on_c, 11, 72, 0
14, 545151, Note_on_c, 11, 63, 0
14, 545160, Note_on_c, 11, 63, 44
14, 545160, Note_on_c, 11, 72, 44
14, 545211, Note_on_c, 11, 63, 0
14, 545211, Note_on_c, 11, 72, 0
14, 545220, Note_on_c, 11, 63, 44
14, 545220, Note_on_c, 11, 72, 44
14, 545271, Note_on_c, 11, 63, 0
14, 545271, Note_on_c, 11, 72, 0
14, 545280, Note_on_c, 11, 72, 44
14, 545280, Note_on_c, 11, 63, 44
14, 545331, Note_on_c, 11, 72, 0
14, 545331, Note_on_c, 11, 63, 0
14, 545340, Note_on_c, 11, 63, 44
14, 545340, Note_on_c, 11, 72, 44
14, 545391, Note_on_c, 11, 63, 0
14, 545391, Note_on_c, 11, 72, 0
14, 545400, Note_on_c, 11, 63, 44
14, 545400, Note_on_c, 11, 72, 44
14, 545451, Note_on_c, 11, 63, 0
14, 545451, Note_on_c, 11, 72, 0
14, 545460, Note_on_c, 11, 63, 44
14, 545460, Note_on_c, 11, 72, 44
14, 545511, Note_on_c, 11, 63, 0
14, 545511, Note_on_c, 11, 72, 0
14, 545520, Note_on_c, 11, 72, 44
14, 545520, Note_on_c, 11, 63, 44
14, 545571, Note_on_c, 11, 72, 0
14, 545571, Note_on_c, 11, 63, 0
14, 545580, Note_on_c, 11, 63, 44
14, 545580, Note_on_c, 11, 72, 44
14, 545631, Note_on_c, 11, 63, 0
14, 545631, Note_on_c, 11, 72, 0
14, 545640, Note_on_c, 11, 72, 44
14, 545640, Note_on_c, 11, 63, 44
14, 545691, Note_on_c, 11, 72, 0
14, 545691, Note_on_c, 11, 63, 0
14, 545700, Note_on_c, 11, 72, 44
14, 545700, Note_on_c, 11, 63, 44
14, 545751, Note_on_c, 11, 72, 0
14, 545751, Note_on_c, 11, 63, 0
14, 545760, Note_on_c, 11, 72, 44
14, 545760, Note_on_c, 11, 63, 44
14, 545811, Note_on_c, 11, 72, 0
14, 545811, Note_on_c, 11, 63, 0
14, 545820, Note_on_c, 11, 63, 44
14, 545820, Note_on_c, 11, 72, 44
14, 545871, Note_on_c, 11, 63, 0
14, 545871, Note_on_c, 11, 72, 0
14, 545880, Note_on_c, 11, 72, 44
14, 545880, Note_on_c, 11, 63, 44
14, 545931, Note_on_c, 11, 72, 0
14, 545931, Note_on_c, 11, 63, 0
14, 545940, Note_on_c, 11, 72, 44
14, 545940, Note_on_c, 11, 63, 44
14, 545991, Note_on_c, 11, 72, 0
14, 545991, Note_on_c, 11, 63, 0
14, 546000, Note_on_c, 11, 72, 44
14, 546000, Note_on_c, 11, 63, 44
14, 546051, Note_on_c, 11, 72, 0
14, 546051, Note_on_c, 11, 63, 0
14, 546060, Note_on_c, 11, 63, 44
14, 546060, Note_on_c, 11, 72, 44
14, 546111, Note_on_c, 11, 63, 0
14, 546111, Note_on_c, 11, 72, 0
14, 546120, Note_on_c, 11, 63, 44
14, 546120, Note_on_c, 11, 72, 44
14, 546171, Note_on_c, 11, 63, 0
14, 546171, Note_on_c, 11, 72, 0
14, 546180, Note_on_c, 11, 72, 44
14, 546180, Note_on_c, 11, 63, 44
14, 546231, Note_on_c, 11, 72, 0
14, 546231, Note_on_c, 11, 63, 0
14, 546240, Note_on_c, 11, 72, 44
14, 546240, Note_on_c, 11, 63, 44
14, 546291, Note_on_c, 11, 72, 0
14, 546291, Note_on_c, 11, 63, 0
14, 546300, Note_on_c, 11, 63, 44
14, 546300, Note_on_c, 11, 72, 44
14, 546351, Note_on_c, 11, 63, 0
14, 546351, Note_on_c, 11, 72, 0
14, 546360, Note_on_c, 11, 72, 44
14, 546360, Note_on_c, 11, 63, 44
14, 546411, Note_on_c, 11, 72, 0
14, 546411, Note_on_c, 11, 63, 0
14, 546420, Note_on_c, 11, 72, 44
14, 546420, Note_on_c, 11, 63, 44
14, 546471, Note_on_c, 11, 72, 0
14, 546471, Note_on_c, 11, 63, 0
14, 546480, Note_on_c, 11, 63, 44
14, 546480, Note_on_c, 11, 72, 44
14, 546531, Note_on_c, 11, 63, 0
14, 546531, Note_on_c, 11, 72, 0
14, 546540, Note_on_c, 11, 63, 44
14, 546540, Note_on_c, 11, 72, 44
14, 546591, Note_on_c, 11, 63, 0
14, 546591, Note_on_c, 11, 72, 0
14, 546600, Note_on_c, 11, 63, 44
14, 546600, Note_on_c, 11, 72, 44
14, 546651, Note_on_c, 11, 63, 0
14, 546651, Note_on_c, 11, 72, 0
14, 546660, Note_on_c, 11, 63, 44
14, 546660, Note_on_c, 11, 72, 44
14, 546711, Note_on_c, 11, 63, 0
14, 546711, Note_on_c, 11, 72, 0
14, 546720, Note_on_c, 11, 72, 44
14, 546720, Note_on_c, 11, 63, 44
14, 546771, Note_on_c, 11, 72, 0
14, 546771, Note_on_c, 11, 63, 0
14, 546780, Note_on_c, 11, 72, 44
14, 546780, Note_on_c, 11, 63, 44
14, 546831, Note_on_c, 11, 72, 0
14, 546831, Note_on_c, 11, 63, 0
14, 546840, Note_on_c, 11, 63, 44
14, 546840, Note_on_c, 11, 72, 44
14, 546891, Note_on_c, 11, 63, 0
14, 546891, Note_on_c, 11, 72, 0
14, 546900, Note_on_c, 11, 72, 44
14, 546900, Note_on_c, 11, 63, 44
14, 546951, Note_on_c, 11, 72, 0
14, 546951, Note_on_c, 11, 63, 0
14, 546960, Note_on_c, 11, 63, 44
14, 546960, Note_on_c, 11, 72, 44
14, 547011, Note_on_c, 11, 63, 0
14, 547011, Note_on_c, 11, 72, 0
14, 547020, Note_on_c, 11, 63, 44
14, 547020, Note_on_c, 11, 72, 44
14, 547071, Note_on_c, 11, 63, 0
14, 547071, Note_on_c, 11, 72, 0
14, 547080, Note_on_c, 11, 72, 44
14, 547080, Note_on_c, 11, 63, 44
14, 547131, Note_on_c, 11, 72, 0
14, 547131, Note_on_c, 11, 63, 0
14, 547140, Note_on_c, 11, 72, 44
14, 547140, Note_on_c, 11, 63, 44
14, 547191, Note_on_c, 11, 72, 0
14, 547191, Note_on_c, 11, 63, 0
14, 547200, Note_on_c, 11, 72, 44
14, 547200, Note_on_c, 11, 63, 44
14, 547251, Note_on_c, 11, 72, 0
14, 547251, Note_on_c, 11, 63, 0
14, 547260, Note_on_c, 11, 63, 44
14, 547260, Note_on_c, 11, 72, 44
14, 547311, Note_on_c, 11, 63, 0
14, 547311, Note_on_c, 11, 72, 0
14, 547320, Note_on_c, 11, 72, 44
14, 547320, Note_on_c, 11, 63, 44
14, 547371, Note_on_c, 11, 72, 0
14, 547371, Note_on_c, 11, 63, 0
14, 547380, Note_on_c, 11, 72, 44
14, 547380, Note_on_c, 11, 63, 44
14, 547431, Note_on_c, 11, 72, 0
14, 547431, Note_on_c, 11, 63, 0
14, 547440, Note_on_c, 11, 72, 44
14, 547440, Note_on_c, 11, 63, 44
14, 547491, Note_on_c, 11, 72, 0
14, 547491, Note_on_c, 11, 63, 0
14, 547500, Note_on_c, 11, 63, 44
14, 547500, Note_on_c, 11, 72, 44
14, 547551, Note_on_c, 11, 63, 0
14, 547551, Note_on_c, 11, 72, 0
14, 547560, Note_on_c, 11, 72, 44
14, 547560, Note_on_c, 11, 63, 44
14, 547611, Note_on_c, 11, 72, 0
14, 547611, Note_on_c, 11, 63, 0
14, 547620, Note_on_c, 11, 63, 44
14, 547620, Note_on_c, 11, 72, 44
14, 547671, Note_on_c, 11, 63, 0
14, 547671, Note_on_c, 11, 72, 0
14, 547680, Note_on_c, 11, 73, 44
14, 547680, Note_on_c, 11, 63, 44
14, 547731, Note_on_c, 11, 73, 0
14, 547731, Note_on_c, 11, 63, 0
14, 547740, Note_on_c, 11, 63, 44
14, 547740, Note_on_c, 11, 73, 44
14, 547791, Note_on_c, 11, 63, 0
14, 547791, Note_on_c, 11, 73, 0
14, 547800, Note_on_c, 11, 73, 44
14, 547800, Note_on_c, 11, 63, 44
14, 547851, Note_on_c, 11, 73, 0
14, 547851, Note_on_c, 11, 63, 0
14, 547860, Note_on_c, 11, 73, 44
14, 547860, Note_on_c, 11, 63, 44
14, 547911, Note_on_c, 11, 73, 0
14, 547911, Note_on_c, 11, 63, 0
14, 547920, Note_on_c, 11, 74, 44
14, 547920, Note_on_c, 11, 62, 44
14, 547971, Note_on_c, 11, 74, 0
14, 547971, Note_on_c, 11, 62, 0
14, 547980, Note_on_c, 11, 74, 44
14, 547980, Note_on_c, 11, 62, 44
14, 548031, Note_on_c, 11, 74, 0
14, 548031, Note_on_c, 11, 62, 0
14, 548040, Note_on_c, 11, 62, 44
14, 548040, Note_on_c, 11, 74, 44
14, 548091, Note_on_c, 11, 62, 0
14, 548091, Note_on_c, 11, 74, 0
14, 548100, Note_on_c, 11, 62, 44
14, 548100, Note_on_c, 11, 74, 44
14, 548151, Note_on_c, 11, 62, 0
14, 548151, Note_on_c, 11, 74, 0
14, 548160, Note_on_c, 11, 74, 44
14, 548160, Note_on_c, 11, 62, 44
14, 548211, Note_on_c, 11, 74, 0
14, 548211, Note_on_c, 11, 62, 0
14, 548220, Note_on_c, 11, 62, 44
14, 548220, Note_on_c, 11, 74, 44
14, 548271, Note_on_c, 11, 62, 0
14, 548271, Note_on_c, 11, 74, 0
14, 548280, Note_on_c, 11, 74, 44
14, 548280, Note_on_c, 11, 62, 44
14, 548331, Note_on_c, 11, 74, 0
14, 548331, Note_on_c, 11, 62, 0
14, 548340, Note_on_c, 11, 62, 44
14, 548340, Note_on_c, 11, 74, 44
14, 548391, Note_on_c, 11, 62, 0
14, 548391, Note_on_c, 11, 74, 0
14, 548400, Note_on_c, 11, 62, 44
14, 548400, Note_on_c, 11, 74, 44
14, 548451, Note_on_c, 11, 62, 0
14, 548451, Note_on_c, 11, 74, 0
14, 548460, Note_on_c, 11, 62, 44
14, 548460, Note_on_c, 11, 74, 44
14, 548511, Note_on_c, 11, 62, 0
14, 548511, Note_on_c, 11, 74, 0
14, 548520, Note_on_c, 11, 74, 44
14, 548520, Note_on_c, 11, 62, 44
14, 548571, Note_on_c, 11, 74, 0
14, 548571, Note_on_c, 11, 62, 0
14, 548580, Note_on_c, 11, 62, 44
14, 548580, Note_on_c, 11, 74, 44
14, 548631, Note_on_c, 11, 62, 0
14, 548631, Note_on_c, 11, 74, 0
14, 548640, Note_on_c, 11, 74, 44
14, 548640, Note_on_c, 11, 65, 44
14, 548691, Note_on_c, 11, 74, 0
14, 548691, Note_on_c, 11, 65, 0
14, 548700, Note_on_c, 11, 74, 44
14, 548700, Note_on_c, 11, 65, 44
14, 548751, Note_on_c, 11, 74, 0
14, 548751, Note_on_c, 11, 65, 0
14, 548760, Note_on_c, 11, 65, 44
14, 548760, Note_on_c, 11, 74, 44
14, 548811, Note_on_c, 11, 65, 0
14, 548811, Note_on_c, 11, 74, 0
14, 548820, Note_on_c, 11, 74, 44
14, 548820, Note_on_c, 11, 65, 44
14, 548871, Note_on_c, 11, 74, 0
14, 548871, Note_on_c, 11, 65, 0
14, 548880, Note_on_c, 11, 65, 44
14, 548880, Note_on_c, 11, 74, 44
14, 548931, Note_on_c, 11, 65, 0
14, 548931, Note_on_c, 11, 74, 0
14, 548940, Note_on_c, 11, 65, 44
14, 548940, Note_on_c, 11, 74, 44
14, 548991, Note_on_c, 11, 65, 0
14, 548991, Note_on_c, 11, 74, 0
14, 549000, Note_on_c, 11, 65, 44
14, 549000, Note_on_c, 11, 74, 44
14, 549051, Note_on_c, 11, 65, 0
14, 549051, Note_on_c, 11, 74, 0
14, 549060, Note_on_c, 11, 74, 44
14, 549060, Note_on_c, 11, 65, 44
14, 549111, Note_on_c, 11, 74, 0
14, 549111, Note_on_c, 11, 65, 0
14, 549120, Note_on_c, 11, 65, 44
14, 549120, Note_on_c, 11, 74, 44
14, 549171, Note_on_c, 11, 65, 0
14, 549171, Note_on_c, 11, 74, 0
14, 549180, Note_on_c, 11, 74, 44
14, 549180, Note_on_c, 11, 65, 44
14, 549231, Note_on_c, 11, 74, 0
14, 549231, Note_on_c, 11, 65, 0
14, 549240, Note_on_c, 11, 65, 44
14, 549240, Note_on_c, 11, 74, 44
14, 549291, Note_on_c, 11, 65, 0
14, 549291, Note_on_c, 11, 74, 0
14, 549300, Note_on_c, 11, 74, 44
14, 549300, Note_on_c, 11, 65, 44
14, 549351, Note_on_c, 11, 74, 0
14, 549351, Note_on_c, 11, 65, 0
14, 549360, Note_on_c, 11, 67, 44
14, 549360, Note_on_c, 11, 75, 44
14, 549411, Note_on_c, 11, 67, 0
14, 549411, Note_on_c, 11, 75, 0
14, 549420, Note_on_c, 11, 75, 44
14, 549420, Note_on_c, 11, 67, 44
14, 549471, Note_on_c, 11, 75, 0
14, 549471, Note_on_c, 11, 67, 0
14, 549480, Note_on_c, 11, 75, 44
14, 549480, Note_on_c, 11, 67, 44
14, 549531, Note_on_c, 11, 75, 0
14, 549531, Note_on_c, 11, 67, 0
14, 549540, Note_on_c, 11, 67, 44
14, 549540, Note_on_c, 11, 75, 44
14, 549591, Note_on_c, 11, 67, 0
14, 549591, Note_on_c, 11, 75, 0
14, 549600, Note_on_c, 11, 75, 44
14, 549600, Note_on_c, 11, 67, 44
14, 549651, Note_on_c, 11, 75, 0
14, 549651, Note_on_c, 11, 67, 0
14, 549660, Note_on_c, 11, 75, 44
14, 549660, Note_on_c, 11, 67, 44
14, 549711, Note_on_c, 11, 75, 0
14, 549711, Note_on_c, 11, 67, 0
14, 549720, Note_on_c, 11, 67, 44
14, 549720, Note_on_c, 11, 75, 44
14, 549771, Note_on_c, 11, 67, 0
14, 549771, Note_on_c, 11, 75, 0
14, 549780, Note_on_c, 11, 75, 44
14, 549780, Note_on_c, 11, 67, 44
14, 549831, Note_on_c, 11, 75, 0
14, 549831, Note_on_c, 11, 67, 0
14, 549840, Note_on_c, 11, 67, 44
14, 549840, Note_on_c, 11, 75, 44
14, 549891, Note_on_c, 11, 67, 0
14, 549891, Note_on_c, 11, 75, 0
14, 549900, Note_on_c, 11, 75, 44
14, 549900, Note_on_c, 11, 67, 44
14, 549951, Note_on_c, 11, 75, 0
14, 549951, Note_on_c, 11, 67, 0
14, 549960, Note_on_c, 11, 75, 44
14, 549960, Note_on_c, 11, 67, 44
14, 550011, Note_on_c, 11, 75, 0
14, 550011, Note_on_c, 11, 67, 0
14, 550020, Note_on_c, 11, 67, 44
14, 550020, Note_on_c, 11, 75, 44
14, 550071, Note_on_c, 11, 67, 0
14, 550071, Note_on_c, 11, 75, 0
14, 550080, Note_on_c, 11, 67, 44
14, 550080, Note_on_c, 11, 75, 44
14, 550131, Note_on_c, 11, 67, 0
14, 550131, Note_on_c, 11, 75, 0
14, 550140, Note_on_c, 11, 67, 44
14, 550140, Note_on_c, 11, 75, 44
14, 550191, Note_on_c, 11, 67, 0
14, 550191, Note_on_c, 11, 75, 0
14, 550200, Note_on_c, 11, 75, 44
14, 550200, Note_on_c, 11, 67, 44
14, 550251, Note_on_c, 11, 75, 0
14, 550251, Note_on_c, 11, 67, 0
14, 550260, Note_on_c, 11, 67, 44
14, 550260, Note_on_c, 11, 75, 44
14, 550311, Note_on_c, 11, 67, 0
14, 550311, Note_on_c, 11, 75, 0
14, 550320, Note_on_c, 11, 75, 44
14, 550320, Note_on_c, 11, 67, 44
14, 550371, Note_on_c, 11, 75, 0
14, 550371, Note_on_c, 11, 67, 0
14, 550380, Note_on_c, 11, 75, 44
14, 550380, Note_on_c, 11, 67, 44
14, 550431, Note_on_c, 11, 75, 0
14, 550431, Note_on_c, 11, 67, 0
14, 550440, Note_on_c, 11, 75, 44
14, 550440, Note_on_c, 11, 67, 44
14, 550491, Note_on_c, 11, 75, 0
14, 550491, Note_on_c, 11, 67, 0
14, 550500, Note_on_c, 11, 67, 44
14, 550500, Note_on_c, 11, 75, 44
14, 550551, Note_on_c, 11, 67, 0
14, 550551, Note_on_c, 11, 75, 0
14, 550560, Note_on_c, 11, 67, 44
14, 550560, Note_on_c, 11, 75, 44
14, 550611, Note_on_c, 11, 67, 0
14, 550611, Note_on_c, 11, 75, 0
14, 550620, Note_on_c, 11, 75, 44
14, 550620, Note_on_c, 11, 67, 44
14, 550671, Note_on_c, 11, 75, 0
14, 550671, Note_on_c, 11, 67, 0
14, 550680, Note_on_c, 11, 75, 44
14, 550680, Note_on_c, 11, 67, 44
14, 550731, Note_on_c, 11, 75, 0
14, 550731, Note_on_c, 11, 67, 0
14, 550740, Note_on_c, 11, 67, 44
14, 550740, Note_on_c, 11, 75, 44
14, 550791, Note_on_c, 11, 67, 0
14, 550791, Note_on_c, 11, 75, 0
14, 550800, Note_on_c, 11, 75, 44
14, 550851, Note_on_c, 11, 75, 0
14, 550860, Note_on_c, 11, 78, 44
14, 550911, Note_on_c, 11, 78, 0
14, 550920, Note_on_c, 11, 78, 44
14, 550971, Note_on_c, 11, 78, 0
14, 550980, Note_on_c, 11, 78, 45
14, 551031, Note_on_c, 11, 78, 0
14, 551040, Note_on_c, 11, 78, 45
14, 551091, Note_on_c, 11, 78, 0
14, 551100, Note_on_c, 11, 78, 45
14, 551151, Note_on_c, 11, 78, 0
14, 551160, Note_on_c, 11, 78, 46
14, 551211, Note_on_c, 11, 78, 0
14, 551220, Note_on_c, 11, 78, 46
14, 551271, Note_on_c, 11, 78, 0
14, 551280, Note_on_c, 11, 78, 46
14, 551331, Note_on_c, 11, 78, 0
14, 551340, Note_on_c, 11, 78, 47
14, 551391, Note_on_c, 11, 78, 0
14, 551400, Note_on_c, 11, 78, 47
14, 551451, Note_on_c, 11, 78, 0
14, 551460, Note_on_c, 11, 78, 47
14, 551511, Note_on_c, 11, 78, 0
14, 551520, Note_on_c, 11, 78, 48
14, 551571, Note_on_c, 11, 78, 0
14, 551580, Note_on_c, 11, 78, 48
14, 551631, Note_on_c, 11, 78, 0
14, 551640, Note_on_c, 11, 78, 48
14, 551691, Note_on_c, 11, 78, 0
14, 551700, Note_on_c, 11, 78, 49
14, 551751, Note_on_c, 11, 78, 0
14, 551760, Note_on_c, 11, 78, 49
14, 551811, Note_on_c, 11, 78, 0
14, 551820, Note_on_c, 11, 78, 49
14, 551871, Note_on_c, 11, 78, 0
14, 551880, Note_on_c, 11, 78, 50
14, 551931, Note_on_c, 11, 78, 0
14, 551940, Note_on_c, 11, 78, 50
14, 551991, Note_on_c, 11, 78, 0
14, 552000, Note_on_c, 11, 78, 50
14, 552051, Note_on_c, 11, 78, 0
14, 552060, Note_on_c, 11, 78, 51
14, 552111, Note_on_c, 11, 78, 0
14, 552120, Note_on_c, 11, 78, 51
14, 552171, Note_on_c, 11, 78, 0
14, 552180, Note_on_c, 11, 78, 51
14, 552231, Note_on_c, 11, 78, 0
14, 552240, Note_on_c, 11, 78, 52
14, 552291, Note_on_c, 11, 78, 0
14, 552300, Note_on_c, 11, 78, 52
14, 552351, Note_on_c, 11, 78, 0
14, 552360, Note_on_c, 11, 78, 52
14, 552411, Note_on_c, 11, 78, 0
14, 552420, Note_on_c, 11, 78, 53
14, 552471, Note_on_c, 11, 78, 0
14, 552480, Note_on_c, 11, 78, 53
14, 552531, Note_on_c, 11, 78, 0
14, 552540, Note_on_c, 11, 78, 53
14, 552591, Note_on_c, 11, 78, 0
14, 552600, Note_on_c, 11, 78, 54
14, 552651, Note_on_c, 11, 78, 0
14, 552660, Note_on_c, 11, 78, 54
14, 552711, Note_on_c, 11, 78, 0
14, 552720, Note_on_c, 11, 78, 54
14, 552771, Note_on_c, 11, 78, 0
14, 552780, Note_on_c, 11, 78, 55
14, 552831, Note_on_c, 11, 78, 0
14, 552840, Note_on_c, 11, 78, 55
14, 552891, Note_on_c, 11, 78, 0
14, 552900, Note_on_c, 11, 78, 55
14, 552951, Note_on_c, 11, 78, 0
14, 552960, Note_on_c, 11, 78, 56
14, 553011, Note_on_c, 11, 78, 0
14, 553020, Note_on_c, 11, 78, 56
14, 553071, Note_on_c, 11, 78, 0
14, 553080, Note_on_c, 11, 78, 56
14, 553131, Note_on_c, 11, 78, 0
14, 553140, Note_on_c, 11, 78, 57
14, 553191, Note_on_c, 11, 78, 0
14, 553200, Note_on_c, 11, 77, 57
14, 553251, Note_on_c, 11, 77, 0
14, 553260, Note_on_c, 11, 77, 57
14, 553311, Note_on_c, 11, 77, 0
14, 553320, Note_on_c, 11, 77, 58
14, 553371, Note_on_c, 11, 77, 0
14, 553380, Note_on_c, 11, 77, 58
14, 553431, Note_on_c, 11, 77, 0
14, 553440, Note_on_c, 11, 75, 58
14, 553491, Note_on_c, 11, 75, 0
14, 553500, Note_on_c, 11, 75, 59
14, 553551, Note_on_c, 11, 75, 0
14, 553560, Note_on_c, 11, 75, 59
14, 553611, Note_on_c, 11, 75, 0
14, 553620, Note_on_c, 11, 75, 59
14, 553671, Note_on_c, 11, 75, 0
14, 553680, Note_on_c, 11, 65, 60
14, 553680, Note_on_c, 11, 74, 60
14, 553731, Note_on_c, 11, 65, 0
14, 553731, Note_on_c, 11, 74, 0
14, 553740, Note_on_c, 11, 80, 60
14, 553791, Note_on_c, 11, 80, 0
14, 553800, Note_on_c, 11, 80, 60
14, 553851, Note_on_c, 11, 80, 0
14, 553860, Note_on_c, 11, 80, 61
14, 553911, Note_on_c, 11, 80, 0
14, 553920, Note_on_c, 11, 80, 61
14, 553971, Note_on_c, 11, 80, 0
14, 553980, Note_on_c, 11, 80, 61
14, 554031, Note_on_c, 11, 80, 0
14, 554040, Note_on_c, 11, 80, 62
14, 554091, Note_on_c, 11, 80, 0
14, 554100, Note_on_c, 11, 80, 62
14, 554151, Note_on_c, 11, 80, 0
14, 554160, Note_on_c, 11, 80, 62
14, 554211, Note_on_c, 11, 80, 0
14, 554220, Note_on_c, 11, 80, 63
14, 554271, Note_on_c, 11, 80, 0
14, 554280, Note_on_c, 11, 80, 63
14, 554331, Note_on_c, 11, 80, 0
14, 554340, Note_on_c, 11, 80, 63
14, 554391, Note_on_c, 11, 80, 0
14, 554400, Note_on_c, 11, 80, 64
14, 554451, Note_on_c, 11, 80, 0
14, 554460, Note_on_c, 11, 80, 64
14, 554511, Note_on_c, 11, 80, 0
14, 554520, Note_on_c, 11, 80, 64
14, 554571, Note_on_c, 11, 80, 0
14, 554580, Note_on_c, 11, 80, 65
14, 554631, Note_on_c, 11, 80, 0
14, 554640, Note_on_c, 11, 80, 65
14, 554691, Note_on_c, 11, 80, 0
14, 554700, Note_on_c, 11, 80, 65
14, 554751, Note_on_c, 11, 80, 0
14, 554760, Note_on_c, 11, 80, 66
14, 554811, Note_on_c, 11, 80, 0
14, 554820, Note_on_c, 11, 80, 66
14, 554871, Note_on_c, 11, 80, 0
14, 554880, Note_on_c, 11, 80, 66
14, 554931, Note_on_c, 11, 80, 0
14, 554940, Note_on_c, 11, 80, 67
14, 554991, Note_on_c, 11, 80, 0
14, 555000, Note_on_c, 11, 80, 67
14, 555051, Note_on_c, 11, 80, 0
14, 555060, Note_on_c, 11, 80, 67
14, 555111, Note_on_c, 11, 80, 0
14, 555120, Note_on_c, 11, 80, 68
14, 555171, Note_on_c, 11, 80, 0
14, 555180, Note_on_c, 11, 80, 68
14, 555231, Note_on_c, 11, 80, 0
14, 555240, Note_on_c, 11, 80, 67
14, 555291, Note_on_c, 11, 80, 0
14, 555300, Note_on_c, 11, 80, 66
14, 555351, Note_on_c, 11, 80, 0
14, 555360, Note_on_c, 11, 80, 66
14, 555411, Note_on_c, 11, 80, 0
14, 555420, Note_on_c, 11, 80, 65
14, 555471, Note_on_c, 11, 80, 0
14, 555480, Note_on_c, 11, 80, 64
14, 555531, Note_on_c, 11, 80, 0
14, 555540, Note_on_c, 11, 80, 64
14, 555591, Note_on_c, 11, 80, 0
14, 555600, Note_on_c, 11, 80, 63
14, 555651, Note_on_c, 11, 80, 0
14, 555660, Note_on_c, 11, 80, 62
14, 555711, Note_on_c, 11, 80, 0
14, 555720, Note_on_c, 11, 80, 62
14, 555771, Note_on_c, 11, 80, 0
14, 555780, Note_on_c, 11, 80, 61
14, 555831, Note_on_c, 11, 80, 0
14, 555840, Note_on_c, 11, 80, 60
14, 555891, Note_on_c, 11, 80, 0
14, 555900, Note_on_c, 11, 80, 60
14, 555951, Note_on_c, 11, 80, 0
14, 555960, Note_on_c, 11, 80, 59
14, 556011, Note_on_c, 11, 80, 0
14, 556020, Note_on_c, 11, 80, 58
14, 556071, Note_on_c, 11, 80, 0
14, 556080, Note_on_c, 11, 80, 58
14, 556131, Note_on_c, 11, 80, 0
14, 556140, Note_on_c, 11, 80, 57
14, 556191, Note_on_c, 11, 80, 0
14, 556200, Note_on_c, 11, 80, 56
14, 556251, Note_on_c, 11, 80, 0
14, 556260, Note_on_c, 11, 80, 56
14, 556311, Note_on_c, 11, 80, 0
14, 556320, Note_on_c, 11, 80, 55
14, 556371, Note_on_c, 11, 80, 0
14, 556380, Note_on_c, 11, 80, 54
14, 556431, Note_on_c, 11, 80, 0
14, 556440, Note_on_c, 11, 80, 54
14, 556491, Note_on_c, 11, 80, 0
14, 556500, Note_on_c, 11, 80, 53
14, 556551, Note_on_c, 11, 80, 0
14, 556560, Note_on_c, 11, 79, 52
14, 556664, Note_on_c, 11, 79, 0
14, 556680, Note_on_c, 11, 79, 52
14, 556799, Note_on_c, 11, 79, 0
14, 556800, Note_on_c, 11, 78, 52
14, 556919, Note_on_c, 11, 78, 0
14, 556920, Note_on_c, 11, 79, 52
14, 557039, Note_on_c, 11, 79, 0
14, 557040, Note_on_c, 11, 80, 52
14, 557159, Note_on_c, 11, 80, 0
14, 557160, Note_on_c, 11, 79, 52
14, 557279, Note_on_c, 11, 79, 0
14, 557400, Note_on_c, 11, 75, 52
14, 557519, Note_on_c, 11, 75, 0
14, 557520, Note_on_c, 11, 74, 52
14, 557639, Note_on_c, 11, 74, 0
14, 557640, Note_on_c, 11, 75, 52
14, 557759, Note_on_c, 11, 75, 0
14, 557760, Note_on_c, 11, 77, 52
14, 557879, Note_on_c, 11, 77, 0
14, 557880, Note_on_c, 11, 75, 52
14, 557999, Note_on_c, 11, 75, 0
14, 558120, Note_on_c, 11, 72, 52
14, 558239, Note_on_c, 11, 72, 0
14, 558240, Note_on_c, 11, 71, 52
14, 558359, Note_on_c, 11, 71, 0
14, 558360, Note_on_c, 11, 72, 52
14, 558479, Note_on_c, 11, 72, 0
14, 558480, Note_on_c, 11, 74, 52
14, 558599, Note_on_c, 11, 74, 0
14, 558600, Note_on_c, 11, 72, 52
14, 558719, Note_on_c, 11, 72, 0
14, 558840, Note_on_c, 11, 72, 52
14, 558959, Note_on_c, 11, 72, 0
14, 558960, Note_on_c, 11, 71, 52
14, 559079, Note_on_c, 11, 71, 0
14, 559080, Note_on_c, 11, 72, 52
14, 559199, Note_on_c, 11, 72, 0
14, 559200, Note_on_c, 11, 74, 52
14, 559319, Note_on_c, 11, 74, 0
14, 559320, Note_on_c, 11, 72, 52
14, 559439, Note_on_c, 11, 72, 0
14, 559560, Note_on_c, 11, 70, 52
14, 559679, Note_on_c, 11, 70, 0
14, 559680, Note_on_c, 11, 69, 53
14, 559799, Note_on_c, 11, 69, 0
14, 559800, Note_on_c, 11, 70, 54
14, 559919, Note_on_c, 11, 70, 0
14, 559920, Note_on_c, 11, 75, 55
14, 560039, Note_on_c, 11, 75, 0
14, 560040, Note_on_c, 11, 74, 56
14, 560144, Note_on_c, 11, 74, 0
14, 560160, Note_on_c, 11, 77, 57
14, 560279, Note_on_c, 11, 77, 0
14, 560280, Note_on_c, 11, 75, 58
14, 560399, Note_on_c, 11, 75, 0
14, 560400, Note_on_c, 11, 79, 59
14, 560519, Note_on_c, 11, 79, 0
14, 560520, Note_on_c, 11, 77, 60
14, 560639, Note_on_c, 11, 77, 0
14, 560640, Note_on_c, 11, 80, 60
14, 560759, Note_on_c, 11, 80, 0
14, 560760, Note_on_c, 11, 79, 61
14, 560879, Note_on_c, 11, 79, 0
14, 560880, Note_on_c, 11, 82, 62
14, 560999, Note_on_c, 11, 82, 0
14, 561000, Note_on_c, 11, 81, 63
14, 561119, Note_on_c, 11, 81, 0
14, 561120, Note_on_c, 11, 84, 64
14, 561239, Note_on_c, 11, 84, 0
14, 561240, Note_on_c, 11, 82, 65
14, 561359, Note_on_c, 11, 82, 0
14, 561360, Note_on_c, 11, 80, 66
14, 561479, Note_on_c, 11, 80, 0
14, 561480, Note_on_c, 11, 79, 67
14, 561599, Note_on_c, 11, 79, 0
14, 561600, Note_on_c, 11, 77, 52
14, 561719, Note_on_c, 11, 77, 0
14, 561720, Note_on_c, 11, 75, 52
14, 561839, Note_on_c, 11, 75, 0
14, 561840, Note_on_c, 11, 74, 52
14, 561959, Note_on_c, 11, 74, 0
14, 561960, Note_on_c, 11, 77, 52
14, 562079, Note_on_c, 11, 77, 0
14, 562080, Note_on_c, 11, 80, 52
14, 562199, Note_on_c, 11, 80, 0
14, 562200, Note_on_c, 11, 74, 52
14, 562304, Note_on_c, 11, 74, 0
14, 562320, Note_on_c, 11, 75, 52
14, 562409, Note_on_c, 11, 75, 0
14, 562440, Note_on_c, 11, 63, 52
14, 562499, Note_on_c, 11, 63, 0
14, 562500, Note_on_c, 11, 65, 52
14, 562559, Note_on_c, 11, 65, 0
14, 562560, Note_on_c, 11, 67, 52
14, 562649, Note_on_c, 11, 67, 0
14, 562680, Note_on_c, 11, 67, 52
14, 562739, Note_on_c, 11, 67, 0
14, 562740, Note_on_c, 11, 68, 52
14, 562799, Note_on_c, 11, 68, 0
14, 562800, Note_on_c, 11, 70, 52
14, 562889, Note_on_c, 11, 70, 0
14, 562920, Note_on_c, 11, 72, 52
14, 562979, Note_on_c, 11, 72, 0
14, 562980, Note_on_c, 11, 74, 52
14, 563039, Note_on_c, 11, 74, 0
14, 563040, Note_on_c, 11, 75, 52
14, 563129, Note_on_c, 11, 75, 0
14, 563160, Note_on_c, 11, 75, 52
14, 563219, Note_on_c, 11, 75, 0
14, 563220, Note_on_c, 11, 77, 52
14, 563279, Note_on_c, 11, 77, 0
14, 563280, Note_on_c, 11, 79, 52
14, 563369, Note_on_c, 11, 79, 0
14, 563400, Note_on_c, 11, 79, 52
14, 563459, Note_on_c, 11, 79, 0
14, 563460, Note_on_c, 11, 80, 52
14, 563519, Note_on_c, 11, 80, 0
14, 563520, Note_on_c, 11, 82, 52
14, 563609, Note_on_c, 11, 82, 0
14, 563640, Note_on_c, 11, 84, 52
14, 563699, Note_on_c, 11, 84, 0
14, 563700, Note_on_c, 11, 86, 52
14, 563759, Note_on_c, 11, 86, 0
14, 563760, Note_on_c, 11, 87, 68
14, 563849, Note_on_c, 11, 87, 0
14, 563880, Note_on_c, 11, 82, 52
14, 563939, Note_on_c, 11, 82, 0
14, 563940, Note_on_c, 11, 80, 52
14, 563999, Note_on_c, 11, 80, 0
14, 564000, Note_on_c, 11, 79, 52
14, 564089, Note_on_c, 11, 79, 0
14, 564120, Note_on_c, 11, 77, 52
14, 564209, Note_on_c, 11, 77, 0
14, 564240, Note_on_c, 11, 75, 52
14, 564329, Note_on_c, 11, 75, 0
14, 564360, Note_on_c, 11, 74, 52
14, 564449, Note_on_c, 11, 74, 0
14, 564480, Note_on_c, 11, 72, 52
14, 564569, Note_on_c, 11, 72, 0
14, 564600, Note_on_c, 11, 70, 52
14, 564689, Note_on_c, 11, 70, 0
14, 564720, Note_on_c, 11, 68, 52
14, 564809, Note_on_c, 11, 68, 0
14, 564840, Note_on_c, 11, 67, 52
14, 564929, Note_on_c, 11, 67, 0
14, 564960, Note_on_c, 11, 65, 52
14, 565049, Note_on_c, 11, 65, 0
14, 565080, Note_on_c, 11, 63, 52
14, 565169, Note_on_c, 11, 63, 0
14, 565320, Note_on_c, 11, 58, 52
14, 565379, Note_on_c, 11, 58, 0
14, 565380, Note_on_c, 11, 60, 52
14, 565439, Note_on_c, 11, 60, 0
14, 565440, Note_on_c, 11, 62, 52
14, 565529, Note_on_c, 11, 62, 0
14, 565560, Note_on_c, 11, 62, 52
14, 565619, Note_on_c, 11, 62, 0
14, 565620, Note_on_c, 11, 63, 52
14, 565679, Note_on_c, 11, 63, 0
14, 565680, Note_on_c, 11, 65, 52
14, 565769, Note_on_c, 11, 65, 0
14, 565800, Note_on_c, 11, 65, 52
14, 565859, Note_on_c, 11, 65, 0
14, 565860, Note_on_c, 11, 67, 52
14, 565919, Note_on_c, 11, 67, 0
14, 565920, Note_on_c, 11, 68, 52
14, 566009, Note_on_c, 11, 68, 0
14, 566040, Note_on_c, 11, 70, 52
14, 566099, Note_on_c, 11, 70, 0
14, 566100, Note_on_c, 11, 72, 52
14, 566159, Note_on_c, 11, 72, 0
14, 566160, Note_on_c, 11, 74, 52
14, 566249, Note_on_c, 11, 74, 0
14, 566280, Note_on_c, 11, 74, 52
14, 566339, Note_on_c, 11, 74, 0
14, 566340, Note_on_c, 11, 75, 52
14, 566399, Note_on_c, 11, 75, 0
14, 566400, Note_on_c, 11, 77, 52
14, 566489, Note_on_c, 11, 77, 0
14, 566520, Note_on_c, 11, 77, 52
14, 566579, Note_on_c, 11, 77, 0
14, 566580, Note_on_c, 11, 79, 52
14, 566639, Note_on_c, 11, 79, 0
14, 566640, Note_on_c, 11, 80, 68
14, 566729, Note_on_c, 11, 80, 0
14, 566760, Note_on_c, 11, 84, 52
14, 566819, Note_on_c, 11, 84, 0
14, 566820, Note_on_c, 11, 82, 52
14, 566879, Note_on_c, 11, 82, 0
14, 566880, Note_on_c, 11, 80, 52
14, 566969, Note_on_c, 11, 80, 0
14, 567000, Note_on_c, 11, 79, 52
14, 567089, Note_on_c, 11, 79, 0
14, 567120, Note_on_c, 11, 77, 52
14, 567209, Note_on_c, 11, 77, 0
14, 567240, Note_on_c, 11, 75, 52
14, 567329, Note_on_c, 11, 75, 0
14, 567360, Note_on_c, 11, 74, 52
14, 567449, Note_on_c, 11, 74, 0
14, 567480, Note_on_c, 11, 72, 52
14, 567569, Note_on_c, 11, 72, 0
14, 567600, Note_on_c, 11, 70, 52
14, 567689, Note_on_c, 11, 70, 0
14, 567720, Note_on_c, 11, 68, 52
14, 567809, Note_on_c, 11, 68, 0
14, 567840, Note_on_c, 11, 67, 52
14, 567929, Note_on_c, 11, 67, 0
14, 567960, Note_on_c, 11, 65, 52
14, 568049, Note_on_c, 11, 65, 0
14, 568080, Note_on_c, 11, 63, 52
14, 568304, Note_on_c, 11, 63, 0
14, 568320, Note_on_c, 11, 75, 52
14, 568559, Note_on_c, 11, 75, 0
14, 568560, Note_on_c, 11, 79, 52
14, 568799, Note_on_c, 11, 79, 0
14, 568800, Note_on_c, 11, 75, 52
14, 569279, Note_on_c, 11, 75, 0
14, 569280, Note_on_c, 11, 70, 52
14, 569504, Note_on_c, 11, 70, 0
14, 569520, Note_on_c, 11, 75, 52
14, 569759, Note_on_c, 11, 75, 0
14, 569760, Note_on_c, 11, 79, 52
14, 569984, Note_on_c, 11, 79, 0
14, 570000, Note_on_c, 11, 82, 52
14, 570224, Note_on_c, 11, 82, 0
14, 570240, Note_on_c, 11, 82, 52
14, 570944, Note_on_c, 11, 82, 0
14, 570960, Note_on_c, 11, 77, 52
14, 571439, Note_on_c, 11, 77, 0
14, 571440, Note_on_c, 11, 80, 52
14, 571679, Note_on_c, 11, 80, 0
14, 571680, Note_on_c, 11, 77, 52
14, 572159, Note_on_c, 11, 77, 0
14, 572160, Note_on_c, 11, 70, 52
14, 572384, Note_on_c, 11, 70, 0
14, 572400, Note_on_c, 11, 77, 52
14, 572639, Note_on_c, 11, 77, 0
14, 572640, Note_on_c, 11, 80, 52
14, 572864, Note_on_c, 11, 80, 0
14, 572880, Note_on_c, 11, 82, 52
14, 573059, Note_on_c, 11, 82, 0
14, 573105, Control_c, 11, 11, 80
14, 573120, Note_on_c, 11, 82, 76
14, 573840, Control_c, 11, 11, 80
14, 573944, Note_on_c, 11, 82, 0
14, 573960, Note_on_c, 11, 82, 76
14, 573960, Note_on_c, 11, 70, 76
14, 574000, Control_c, 11, 11, 81
14, 574160, Control_c, 11, 11, 83
14, 574184, Note_on_c, 11, 82, 0
14, 574184, Note_on_c, 11, 70, 0
14, 574200, Note_on_c, 11, 82, 76
14, 574200, Note_on_c, 11, 70, 76
14, 574320, Control_c, 11, 11, 84
14, 574424, Note_on_c, 11, 82, 0
14, 574424, Note_on_c, 11, 70, 0
14, 574440, Note_on_c, 11, 82, 76
14, 574440, Note_on_c, 11, 70, 76
14, 574480, Control_c, 11, 11, 85
14, 574640, Control_c, 11, 11, 87
14, 574664, Note_on_c, 11, 82, 0
14, 574664, Note_on_c, 11, 70, 0
14, 574680, Note_on_c, 11, 70, 76
14, 574680, Note_on_c, 11, 82, 76
14, 574800, Control_c, 11, 11, 88
14, 574904, Note_on_c, 11, 70, 0
14, 574904, Note_on_c, 11, 82, 0
14, 574920, Note_on_c, 11, 82, 76
14, 574920, Note_on_c, 11, 70, 76
14, 574960, Control_c, 11, 11, 89
14, 575120, Control_c, 11, 11, 90
14, 575144, Note_on_c, 11, 82, 0
14, 575144, Note_on_c, 11, 70, 0
14, 575160, Note_on_c, 11, 82, 76
14, 575160, Note_on_c, 11, 70, 76
14, 575280, Control_c, 11, 11, 92
14, 575384, Note_on_c, 11, 82, 0
14, 575384, Note_on_c, 11, 70, 0
14, 575400, Note_on_c, 11, 70, 76
14, 575400, Note_on_c, 11, 82, 76
14, 575440, Control_c, 11, 11, 93
14, 575600, Control_c, 11, 11, 94
14, 575624, Note_on_c, 11, 70, 0
14, 575624, Note_on_c, 11, 82, 0
14, 575640, Note_on_c, 11, 82, 76
14, 575640, Note_on_c, 11, 70, 76
14, 575760, Control_c, 11, 11, 96
14, 575864, Note_on_c, 11, 82, 0
14, 575864, Note_on_c, 11, 70, 0
14, 575880, Note_on_c, 11, 82, 76
14, 575880, Note_on_c, 11, 70, 76
14, 575920, Control_c, 11, 11, 97
14, 576080, Control_c, 11, 11, 98
14, 576104, Note_on_c, 11, 82, 0
14, 576104, Note_on_c, 11, 70, 0
14, 576120, Note_on_c, 11, 70, 76
14, 576120, Note_on_c, 11, 82, 76
14, 576240, Control_c, 11, 11, 100
14, 576344, Note_on_c, 11, 70, 0
14, 576344, Note_on_c, 11, 82, 0
14, 576360, Note_on_c, 11, 70, 76
14, 576360, Note_on_c, 11, 82, 76
14, 576400, Control_c, 11, 11, 101
14, 576560, Control_c, 11, 11, 102
14, 576584, Note_on_c, 11, 70, 0
14, 576584, Note_on_c, 11, 82, 0
14, 576600, Note_on_c, 11, 82, 76
14, 576600, Note_on_c, 11, 70, 76
14, 576720, Control_c, 11, 11, 104
14, 576824, Note_on_c, 11, 82, 0
14, 576824, Note_on_c, 11, 70, 0
14, 576840, Note_on_c, 11, 70, 76
14, 576840, Note_on_c, 11, 82, 76
14, 576880, Control_c, 11, 11, 105
14, 577040, Control_c, 11, 11, 106
14, 577064, Note_on_c, 11, 70, 0
14, 577064, Note_on_c, 11, 82, 0
14, 577080, Note_on_c, 11, 82, 76
14, 577080, Note_on_c, 11, 70, 76
14, 577200, Control_c, 11, 11, 107
14, 577304, Note_on_c, 11, 82, 0
14, 577304, Note_on_c, 11, 70, 0
14, 577320, Note_on_c, 11, 82, 76
14, 577320, Note_on_c, 11, 70, 76
14, 577360, Control_c, 11, 11, 109
14, 577520, Control_c, 11, 11, 110
14, 577544, Note_on_c, 11, 82, 0
14, 577544, Note_on_c, 11, 70, 0
14, 577560, Note_on_c, 11, 70, 76
14, 577560, Note_on_c, 11, 82, 76
14, 577680, Control_c, 11, 11, 111
14, 577784, Note_on_c, 11, 70, 0
14, 577784, Note_on_c, 11, 82, 0
14, 577800, Note_on_c, 11, 82, 76
14, 577800, Note_on_c, 11, 70, 76
14, 577840, Control_c, 11, 11, 113
14, 578000, Control_c, 11, 11, 114
14, 578024, Note_on_c, 11, 82, 0
14, 578024, Note_on_c, 11, 70, 0
14, 578040, Note_on_c, 11, 70, 76
14, 578040, Note_on_c, 11, 82, 76
14, 578160, Control_c, 11, 11, 115
14, 578264, Note_on_c, 11, 70, 0
14, 578264, Note_on_c, 11, 82, 0
14, 578280, Note_on_c, 11, 70, 76
14, 578280, Note_on_c, 11, 82, 76
14, 578320, Control_c, 11, 11, 117
14, 578480, Control_c, 11, 11, 118
14, 578504, Note_on_c, 11, 70, 0
14, 578504, Note_on_c, 11, 82, 0
14, 578520, Note_on_c, 11, 70, 76
14, 578520, Note_on_c, 11, 82, 76
14, 578640, Control_c, 11, 11, 119
14, 578744, Note_on_c, 11, 70, 0
14, 578744, Note_on_c, 11, 82, 0
14, 578760, Note_on_c, 11, 82, 76
14, 578760, Note_on_c, 11, 70, 76
14, 578800, Control_c, 11, 11, 120
14, 578960, Control_c, 11, 11, 122
14, 578984, Note_on_c, 11, 82, 0
14, 578984, Note_on_c, 11, 70, 0
14, 579000, Note_on_c, 11, 70, 76
14, 579000, Note_on_c, 11, 82, 76
14, 579104, Note_on_c, 11, 70, 0
14, 579104, Note_on_c, 11, 82, 0
14, 579120, Control_c, 11, 11, 123
14, 579120, Note_on_c, 11, 84, 76
14, 579224, Note_on_c, 11, 84, 0
14, 579240, Note_on_c, 11, 84, 76
14, 579280, Control_c, 11, 11, 124
14, 579344, Note_on_c, 11, 84, 0
14, 579360, Note_on_c, 11, 86, 76
14, 579440, Control_c, 11, 11, 127
14, 579464, Note_on_c, 11, 86, 0
14, 579480, Note_on_c, 11, 86, 76
14, 579584, Note_on_c, 11, 86, 0
14, 579600, Note_on_c, 11, 75, 76
14, 579600, Note_on_c, 11, 87, 76
14, 579651, Note_on_c, 11, 75, 0
14, 579651, Note_on_c, 11, 87, 0
14, 579660, Note_on_c, 11, 75, 76
14, 579660, Note_on_c, 11, 87, 76
14, 579711, Note_on_c, 11, 75, 0
14, 579711, Note_on_c, 11, 87, 0
14, 579720, Note_on_c, 11, 75, 76
14, 579720, Note_on_c, 11, 87, 76
14, 579771, Note_on_c, 11, 75, 0
14, 579771, Note_on_c, 11, 87, 0
14, 579780, Note_on_c, 11, 87, 76
14, 579780, Note_on_c, 11, 75, 76
14, 579831, Note_on_c, 11, 87, 0
14, 579831, Note_on_c, 11, 75, 0
14, 579840, Note_on_c, 11, 87, 76
14, 579840, Note_on_c, 11, 75, 76
14, 579891, Note_on_c, 11, 87, 0
14, 579891, Note_on_c, 11, 75, 0
14, 579900, Note_on_c, 11, 75, 76
14, 579900, Note_on_c, 11, 87, 76
14, 579951, Note_on_c, 11, 75, 0
14, 579951, Note_on_c, 11, 87, 0
14, 579960, Note_on_c, 11, 87, 76
14, 579960, Note_on_c, 11, 75, 76
14, 580011, Note_on_c, 11, 87, 0
14, 580011, Note_on_c, 11, 75, 0
14, 580020, Note_on_c, 11, 75, 76
14, 580020, Note_on_c, 11, 87, 76
14, 580071, Note_on_c, 11, 75, 0
14, 580071, Note_on_c, 11, 87, 0
14, 580080, Note_on_c, 11, 75, 76
14, 580080, Note_on_c, 11, 87, 76
14, 580131, Note_on_c, 11, 75, 0
14, 580131, Note_on_c, 11, 87, 0
14, 580140, Note_on_c, 11, 75, 76
14, 580140, Note_on_c, 11, 87, 76
14, 580191, Note_on_c, 11, 75, 0
14, 580191, Note_on_c, 11, 87, 0
14, 580200, Note_on_c, 11, 75, 76
14, 580200, Note_on_c, 11, 87, 76
14, 580251, Note_on_c, 11, 75, 0
14, 580251, Note_on_c, 11, 87, 0
14, 580260, Note_on_c, 11, 75, 76
14, 580260, Note_on_c, 11, 87, 76
14, 580311, Note_on_c, 11, 75, 0
14, 580311, Note_on_c, 11, 87, 0
14, 580320, Note_on_c, 11, 87, 76
14, 580320, Note_on_c, 11, 75, 76
14, 580371, Note_on_c, 11, 87, 0
14, 580371, Note_on_c, 11, 75, 0
14, 580380, Note_on_c, 11, 75, 76
14, 580380, Note_on_c, 11, 87, 76
14, 580431, Note_on_c, 11, 75, 0
14, 580431, Note_on_c, 11, 87, 0
14, 580440, Note_on_c, 11, 87, 76
14, 580440, Note_on_c, 11, 75, 76
14, 580491, Note_on_c, 11, 87, 0
14, 580491, Note_on_c, 11, 75, 0
14, 580500, Note_on_c, 11, 87, 76
14, 580500, Note_on_c, 11, 75, 76
14, 580551, Note_on_c, 11, 87, 0
14, 580551, Note_on_c, 11, 75, 0
14, 580560, Note_on_c, 11, 87, 76
14, 580560, Note_on_c, 11, 75, 76
14, 580611, Note_on_c, 11, 87, 0
14, 580611, Note_on_c, 11, 75, 0
14, 580620, Note_on_c, 11, 87, 76
14, 580620, Note_on_c, 11, 75, 76
14, 580671, Note_on_c, 11, 87, 0
14, 580671, Note_on_c, 11, 75, 0
14, 580680, Note_on_c, 11, 87, 76
14, 580680, Note_on_c, 11, 75, 76
14, 580731, Note_on_c, 11, 87, 0
14, 580731, Note_on_c, 11, 75, 0
14, 580740, Note_on_c, 11, 75, 76
14, 580740, Note_on_c, 11, 87, 76
14, 580791, Note_on_c, 11, 75, 0
14, 580791, Note_on_c, 11, 87, 0
14, 580800, Note_on_c, 11, 75, 76
14, 580800, Note_on_c, 11, 87, 76
14, 580851, Note_on_c, 11, 75, 0
14, 580851, Note_on_c, 11, 87, 0
14, 580860, Note_on_c, 11, 75, 76
14, 580860, Note_on_c, 11, 87, 76
14, 580911, Note_on_c, 11, 75, 0
14, 580911, Note_on_c, 11, 87, 0
14, 580920, Note_on_c, 11, 75, 76
14, 580920, Note_on_c, 11, 87, 76
14, 580971, Note_on_c, 11, 75, 0
14, 580971, Note_on_c, 11, 87, 0
14, 580980, Note_on_c, 11, 87, 76
14, 580980, Note_on_c, 11, 75, 76
14, 581031, Note_on_c, 11, 87, 0
14, 581031, Note_on_c, 11, 75, 0
14, 581040, Note_on_c, 11, 75, 76
14, 581040, Note_on_c, 11, 87, 76
14, 581091, Note_on_c, 11, 75, 0
14, 581091, Note_on_c, 11, 87, 0
14, 581100, Note_on_c, 11, 75, 76
14, 581100, Note_on_c, 11, 87, 76
14, 581151, Note_on_c, 11, 75, 0
14, 581151, Note_on_c, 11, 87, 0
14, 581160, Note_on_c, 11, 87, 76
14, 581160, Note_on_c, 11, 75, 76
14, 581211, Note_on_c, 11, 87, 0
14, 581211, Note_on_c, 11, 75, 0
14, 581220, Note_on_c, 11, 75, 76
14, 581220, Note_on_c, 11, 87, 76
14, 581271, Note_on_c, 11, 75, 0
14, 581271, Note_on_c, 11, 87, 0
14, 581280, Note_on_c, 11, 75, 76
14, 581280, Note_on_c, 11, 87, 76
14, 581331, Note_on_c, 11, 75, 0
14, 581331, Note_on_c, 11, 87, 0
14, 581340, Note_on_c, 11, 87, 76
14, 581340, Note_on_c, 11, 75, 76
14, 581391, Note_on_c, 11, 87, 0
14, 581391, Note_on_c, 11, 75, 0
14, 581400, Note_on_c, 11, 75, 76
14, 581400, Note_on_c, 11, 87, 76
14, 581451, Note_on_c, 11, 75, 0
14, 581451, Note_on_c, 11, 87, 0
14, 581460, Note_on_c, 11, 87, 76
14, 581460, Note_on_c, 11, 75, 76
14, 581511, Note_on_c, 11, 87, 0
14, 581511, Note_on_c, 11, 75, 0
14, 581520, Note_on_c, 11, 75, 76
14, 581520, Note_on_c, 11, 87, 76
14, 581571, Note_on_c, 11, 75, 0
14, 581571, Note_on_c, 11, 87, 0
14, 581580, Note_on_c, 11, 75, 76
14, 581580, Note_on_c, 11, 87, 76
14, 581631, Note_on_c, 11, 75, 0
14, 581631, Note_on_c, 11, 87, 0
14, 581640, Note_on_c, 11, 75, 76
14, 581640, Note_on_c, 11, 87, 76
14, 581691, Note_on_c, 11, 75, 0
14, 581691, Note_on_c, 11, 87, 0
14, 581700, Note_on_c, 11, 75, 76
14, 581700, Note_on_c, 11, 87, 76
14, 581751, Note_on_c, 11, 75, 0
14, 581751, Note_on_c, 11, 87, 0
14, 581760, Note_on_c, 11, 75, 76
14, 581760, Note_on_c, 11, 87, 76
14, 581811, Note_on_c, 11, 75, 0
14, 581811, Note_on_c, 11, 87, 0
14, 581820, Note_on_c, 11, 87, 76
14, 581820, Note_on_c, 11, 75, 76
14, 581871, Note_on_c, 11, 87, 0
14, 581871, Note_on_c, 11, 75, 0
14, 581880, Note_on_c, 11, 87, 76
14, 581880, Note_on_c, 11, 75, 76
14, 581931, Note_on_c, 11, 87, 0
14, 581931, Note_on_c, 11, 75, 0
14, 581940, Note_on_c, 11, 75, 76
14, 581940, Note_on_c, 11, 87, 76
14, 581991, Note_on_c, 11, 75, 0
14, 581991, Note_on_c, 11, 87, 0
14, 582000, Note_on_c, 11, 87, 76
14, 582000, Note_on_c, 11, 75, 76
14, 582051, Note_on_c, 11, 87, 0
14, 582051, Note_on_c, 11, 75, 0
14, 582060, Note_on_c, 11, 75, 76
14, 582060, Note_on_c, 11, 87, 76
14, 582111, Note_on_c, 11, 75, 0
14, 582111, Note_on_c, 11, 87, 0
14, 582120, Note_on_c, 11, 87, 76
14, 582120, Note_on_c, 11, 75, 76
14, 582171, Note_on_c, 11, 87, 0
14, 582171, Note_on_c, 11, 75, 0
14, 582180, Note_on_c, 11, 75, 76
14, 582180, Note_on_c, 11, 87, 76
14, 582231, Note_on_c, 11, 75, 0
14, 582231, Note_on_c, 11, 87, 0
14, 582240, Note_on_c, 11, 87, 76
14, 582240, Note_on_c, 11, 75, 76
14, 582291, Note_on_c, 11, 87, 0
14, 582291, Note_on_c, 11, 75, 0
14, 582300, Note_on_c, 11, 87, 76
14, 582300, Note_on_c, 11, 75, 76
14, 582351, Note_on_c, 11, 87, 0
14, 582351, Note_on_c, 11, 75, 0
14, 582360, Note_on_c, 11, 75, 76
14, 582360, Note_on_c, 11, 87, 76
14, 582411, Note_on_c, 11, 75, 0
14, 582411, Note_on_c, 11, 87, 0
14, 582420, Note_on_c, 11, 75, 76
14, 582420, Note_on_c, 11, 87, 76
14, 582471, Note_on_c, 11, 75, 0
14, 582471, Note_on_c, 11, 87, 0
14, 582480, Note_on_c, 11, 86, 76
14, 582480, Note_on_c, 11, 74, 76
14, 582531, Note_on_c, 11, 86, 0
14, 582531, Note_on_c, 11, 74, 0
14, 582540, Note_on_c, 11, 74, 76
14, 582540, Note_on_c, 11, 86, 76
14, 582591, Note_on_c, 11, 74, 0
14, 582591, Note_on_c, 11, 86, 0
14, 582600, Note_on_c, 11, 74, 76
14, 582600, Note_on_c, 11, 86, 76
14, 582651, Note_on_c, 11, 74, 0
14, 582651, Note_on_c, 11, 86, 0
14, 582660, Note_on_c, 11, 86, 76
14, 582660, Note_on_c, 11, 74, 76
14, 582711, Note_on_c, 11, 86, 0
14, 582711, Note_on_c, 11, 74, 0
14, 582720, Note_on_c, 11, 74, 76
14, 582720, Note_on_c, 11, 86, 76
14, 582771, Note_on_c, 11, 74, 0
14, 582771, Note_on_c, 11, 86, 0
14, 582780, Note_on_c, 11, 74, 76
14, 582780, Note_on_c, 11, 86, 76
14, 582831, Note_on_c, 11, 74, 0
14, 582831, Note_on_c, 11, 86, 0
14, 582840, Note_on_c, 11, 86, 76
14, 582840, Note_on_c, 11, 74, 76
14, 582891, Note_on_c, 11, 86, 0
14, 582891, Note_on_c, 11, 74, 0
14, 582900, Note_on_c, 11, 86, 76
14, 582900, Note_on_c, 11, 74, 76
14, 582951, Note_on_c, 11, 86, 0
14, 582951, Note_on_c, 11, 74, 0
14, 582960, Note_on_c, 11, 74, 76
14, 582960, Note_on_c, 11, 86, 76
14, 583011, Note_on_c, 11, 74, 0
14, 583011, Note_on_c, 11, 86, 0
14, 583020, Note_on_c, 11, 74, 76
14, 583020, Note_on_c, 11, 86, 76
14, 583071, Note_on_c, 11, 74, 0
14, 583071, Note_on_c, 11, 86, 0
14, 583080, Note_on_c, 11, 74, 76
14, 583080, Note_on_c, 11, 86, 76
14, 583131, Note_on_c, 11, 74, 0
14, 583131, Note_on_c, 11, 86, 0
14, 583140, Note_on_c, 11, 86, 76
14, 583140, Note_on_c, 11, 74, 76
14, 583191, Note_on_c, 11, 86, 0
14, 583191, Note_on_c, 11, 74, 0
14, 583200, Note_on_c, 11, 74, 76
14, 583200, Note_on_c, 11, 86, 76
14, 583251, Note_on_c, 11, 74, 0
14, 583251, Note_on_c, 11, 86, 0
14, 583260, Note_on_c, 11, 86, 76
14, 583260, Note_on_c, 11, 74, 76
14, 583311, Note_on_c, 11, 86, 0
14, 583311, Note_on_c, 11, 74, 0
14, 583320, Note_on_c, 11, 86, 76
14, 583320, Note_on_c, 11, 74, 76
14, 583371, Note_on_c, 11, 86, 0
14, 583371, Note_on_c, 11, 74, 0
14, 583380, Note_on_c, 11, 86, 76
14, 583380, Note_on_c, 11, 74, 76
14, 583431, Note_on_c, 11, 86, 0
14, 583431, Note_on_c, 11, 74, 0
14, 583440, Note_on_c, 11, 74, 76
14, 583440, Note_on_c, 11, 86, 76
14, 583491, Note_on_c, 11, 74, 0
14, 583491, Note_on_c, 11, 86, 0
14, 583500, Note_on_c, 11, 86, 76
14, 583500, Note_on_c, 11, 74, 76
14, 583551, Note_on_c, 11, 86, 0
14, 583551, Note_on_c, 11, 74, 0
14, 583560, Note_on_c, 11, 74, 76
14, 583560, Note_on_c, 11, 86, 76
14, 583611, Note_on_c, 11, 74, 0
14, 583611, Note_on_c, 11, 86, 0
14, 583620, Note_on_c, 11, 86, 76
14, 583620, Note_on_c, 11, 74, 76
14, 583671, Note_on_c, 11, 86, 0
14, 583671, Note_on_c, 11, 74, 0
14, 583680, Note_on_c, 11, 74, 76
14, 583680, Note_on_c, 11, 86, 76
14, 583731, Note_on_c, 11, 74, 0
14, 583731, Note_on_c, 11, 86, 0
14, 583740, Note_on_c, 11, 74, 76
14, 583740, Note_on_c, 11, 86, 76
14, 583791, Note_on_c, 11, 74, 0
14, 583791, Note_on_c, 11, 86, 0
14, 583800, Note_on_c, 11, 74, 76
14, 583800, Note_on_c, 11, 86, 76
14, 583851, Note_on_c, 11, 74, 0
14, 583851, Note_on_c, 11, 86, 0
14, 583860, Note_on_c, 11, 86, 76
14, 583860, Note_on_c, 11, 74, 76
14, 583911, Note_on_c, 11, 86, 0
14, 583911, Note_on_c, 11, 74, 0
14, 583920, Note_on_c, 11, 86, 76
14, 583920, Note_on_c, 11, 74, 76
14, 583971, Note_on_c, 11, 86, 0
14, 583971, Note_on_c, 11, 74, 0
14, 583980, Note_on_c, 11, 74, 76
14, 583980, Note_on_c, 11, 86, 76
14, 584031, Note_on_c, 11, 74, 0
14, 584031, Note_on_c, 11, 86, 0
14, 584040, Note_on_c, 11, 86, 76
14, 584040, Note_on_c, 11, 74, 76
14, 584091, Note_on_c, 11, 86, 0
14, 584091, Note_on_c, 11, 74, 0
14, 584100, Note_on_c, 11, 86, 76
14, 584100, Note_on_c, 11, 74, 76
14, 584151, Note_on_c, 11, 86, 0
14, 584151, Note_on_c, 11, 74, 0
14, 584160, Note_on_c, 11, 86, 76
14, 584160, Note_on_c, 11, 74, 76
14, 584211, Note_on_c, 11, 86, 0
14, 584211, Note_on_c, 11, 74, 0
14, 584220, Note_on_c, 11, 86, 76
14, 584220, Note_on_c, 11, 74, 76
14, 584271, Note_on_c, 11, 86, 0
14, 584271, Note_on_c, 11, 74, 0
14, 584280, Note_on_c, 11, 86, 76
14, 584280, Note_on_c, 11, 74, 76
14, 584331, Note_on_c, 11, 86, 0
14, 584331, Note_on_c, 11, 74, 0
14, 584340, Note_on_c, 11, 74, 76
14, 584340, Note_on_c, 11, 86, 76
14, 584391, Note_on_c, 11, 74, 0
14, 584391, Note_on_c, 11, 86, 0
14, 584400, Note_on_c, 11, 74, 76
14, 584400, Note_on_c, 11, 86, 76
14, 584451, Note_on_c, 11, 74, 0
14, 584451, Note_on_c, 11, 86, 0
14, 584460, Note_on_c, 11, 86, 76
14, 584460, Note_on_c, 11, 74, 76
14, 584511, Note_on_c, 11, 86, 0
14, 584511, Note_on_c, 11, 74, 0
14, 584520, Note_on_c, 11, 74, 76
14, 584520, Note_on_c, 11, 86, 76
14, 584571, Note_on_c, 11, 74, 0
14, 584571, Note_on_c, 11, 86, 0
14, 584580, Note_on_c, 11, 86, 76
14, 584580, Note_on_c, 11, 74, 76
14, 584631, Note_on_c, 11, 86, 0
14, 584631, Note_on_c, 11, 74, 0
14, 584640, Note_on_c, 11, 86, 76
14, 584640, Note_on_c, 11, 74, 76
14, 584691, Note_on_c, 11, 86, 0
14, 584691, Note_on_c, 11, 74, 0
14, 584700, Note_on_c, 11, 74, 76
14, 584700, Note_on_c, 11, 86, 76
14, 584751, Note_on_c, 11, 74, 0
14, 584751, Note_on_c, 11, 86, 0
14, 584760, Note_on_c, 11, 86, 76
14, 584760, Note_on_c, 11, 74, 76
14, 584811, Note_on_c, 11, 86, 0
14, 584811, Note_on_c, 11, 74, 0
14, 584820, Note_on_c, 11, 74, 76
14, 584820, Note_on_c, 11, 86, 76
14, 584871, Note_on_c, 11, 74, 0
14, 584871, Note_on_c, 11, 86, 0
14, 584880, Note_on_c, 11, 74, 76
14, 584880, Note_on_c, 11, 86, 76
14, 584931, Note_on_c, 11, 74, 0
14, 584931, Note_on_c, 11, 86, 0
14, 584940, Note_on_c, 11, 86, 76
14, 584940, Note_on_c, 11, 74, 76
14, 584991, Note_on_c, 11, 86, 0
14, 584991, Note_on_c, 11, 74, 0
14, 585000, Note_on_c, 11, 74, 76
14, 585000, Note_on_c, 11, 86, 76
14, 585051, Note_on_c, 11, 74, 0
14, 585051, Note_on_c, 11, 86, 0
14, 585060, Note_on_c, 11, 74, 76
14, 585060, Note_on_c, 11, 86, 76
14, 585111, Note_on_c, 11, 74, 0
14, 585111, Note_on_c, 11, 86, 0
14, 585120, Note_on_c, 11, 74, 76
14, 585120, Note_on_c, 11, 86, 76
14, 585171, Note_on_c, 11, 74, 0
14, 585171, Note_on_c, 11, 86, 0
14, 585180, Note_on_c, 11, 74, 76
14, 585180, Note_on_c, 11, 86, 76
14, 585231, Note_on_c, 11, 74, 0
14, 585231, Note_on_c, 11, 86, 0
14, 585240, Note_on_c, 11, 74, 76
14, 585240, Note_on_c, 11, 86, 76
14, 585291, Note_on_c, 11, 74, 0
14, 585291, Note_on_c, 11, 86, 0
14, 585300, Note_on_c, 11, 86, 76
14, 585300, Note_on_c, 11, 74, 76
14, 585351, Note_on_c, 11, 86, 0
14, 585351, Note_on_c, 11, 74, 0
14, 585360, Note_on_c, 11, 88, 76
14, 585411, Note_on_c, 11, 88, 0
14, 585420, Note_on_c, 11, 88, 76
14, 585471, Note_on_c, 11, 88, 0
14, 585480, Note_on_c, 11, 88, 76
14, 585531, Note_on_c, 11, 88, 0
14, 585540, Note_on_c, 11, 88, 76
14, 585591, Note_on_c, 11, 88, 0
14, 585600, Note_on_c, 11, 88, 76
14, 585651, Note_on_c, 11, 88, 0
14, 585660, Note_on_c, 11, 88, 76
14, 585711, Note_on_c, 11, 88, 0
14, 585720, Note_on_c, 11, 88, 76
14, 585771, Note_on_c, 11, 88, 0
14, 585780, Note_on_c, 11, 88, 76
14, 585831, Note_on_c, 11, 88, 0
14, 585840, Note_on_c, 11, 88, 76
14, 585891, Note_on_c, 11, 88, 0
14, 585900, Note_on_c, 11, 88, 76
14, 585951, Note_on_c, 11, 88, 0
14, 585960, Note_on_c, 11, 88, 76
14, 586011, Note_on_c, 11, 88, 0
14, 586020, Note_on_c, 11, 88, 76
14, 586071, Note_on_c, 11, 88, 0
14, 586080, Note_on_c, 11, 88, 76
14, 586131, Note_on_c, 11, 88, 0
14, 586140, Note_on_c, 11, 88, 76
14, 586191, Note_on_c, 11, 88, 0
14, 586200, Note_on_c, 11, 88, 76
14, 586251, Note_on_c, 11, 88, 0
14, 586260, Note_on_c, 11, 88, 76
14, 586311, Note_on_c, 11, 88, 0
14, 586320, Note_on_c, 11, 88, 76
14, 586371, Note_on_c, 11, 88, 0
14, 586380, Note_on_c, 11, 88, 76
14, 586431, Note_on_c, 11, 88, 0
14, 586440, Note_on_c, 11, 88, 76
14, 586491, Note_on_c, 11, 88, 0
14, 586500, Note_on_c, 11, 88, 76
14, 586551, Note_on_c, 11, 88, 0
14, 586560, Note_on_c, 11, 88, 76
14, 586611, Note_on_c, 11, 88, 0
14, 586620, Note_on_c, 11, 88, 76
14, 586671, Note_on_c, 11, 88, 0
14, 586680, Note_on_c, 11, 88, 76
14, 586731, Note_on_c, 11, 88, 0
14, 586740, Note_on_c, 11, 88, 76
14, 586791, Note_on_c, 11, 88, 0
14, 586800, Note_on_c, 11, 89, 84
14, 586851, Note_on_c, 11, 89, 0
14, 586860, Note_on_c, 11, 89, 76
14, 586911, Note_on_c, 11, 89, 0
14, 586920, Note_on_c, 11, 89, 76
14, 586971, Note_on_c, 11, 89, 0
14, 586980, Note_on_c, 11, 89, 76
14, 587031, Note_on_c, 11, 89, 0
14, 587040, Note_on_c, 11, 89, 76
14, 587091, Note_on_c, 11, 89, 0
14, 587100, Note_on_c, 11, 89, 76
14, 587151, Note_on_c, 11, 89, 0
14, 587160, Note_on_c, 11, 89, 76
14, 587211, Note_on_c, 11, 89, 0
14, 587220, Note_on_c, 11, 89, 76
14, 587271, Note_on_c, 11, 89, 0
14, 587280, Note_on_c, 11, 89, 76
14, 587331, Note_on_c, 11, 89, 0
14, 587340, Note_on_c, 11, 89, 76
14, 587391, Note_on_c, 11, 89, 0
14, 587400, Note_on_c, 11, 89, 76
14, 587451, Note_on_c, 11, 89, 0
14, 587460, Note_on_c, 11, 89, 76
14, 587511, Note_on_c, 11, 89, 0
14, 587520, Note_on_c, 11, 90, 84
14, 587571, Note_on_c, 11, 90, 0
14, 587580, Note_on_c, 11, 90, 76
14, 587631, Note_on_c, 11, 90, 0
14, 587640, Note_on_c, 11, 90, 76
14, 587691, Note_on_c, 11, 90, 0
14, 587700, Note_on_c, 11, 90, 76
14, 587751, Note_on_c, 11, 90, 0
14, 587760, Note_on_c, 11, 90, 76
14, 587811, Note_on_c, 11, 90, 0
14, 587820, Note_on_c, 11, 90, 76
14, 587871, Note_on_c, 11, 90, 0
14, 587880, Note_on_c, 11, 90, 76
14, 587931, Note_on_c, 11, 90, 0
14, 587940, Note_on_c, 11, 90, 76
14, 587991, Note_on_c, 11, 90, 0
14, 588000, Note_on_c, 11, 90, 76
14, 588051, Note_on_c, 11, 90, 0
14, 588060, Note_on_c, 11, 90, 76
14, 588111, Note_on_c, 11, 90, 0
14, 588120, Note_on_c, 11, 90, 76
14, 588171, Note_on_c, 11, 90, 0
14, 588180, Note_on_c, 11, 90, 76
14, 588231, Note_on_c, 11, 90, 0
14, 588240, Note_on_c, 11, 91, 84
14, 588291, Note_on_c, 11, 91, 0
14, 588300, Note_on_c, 11, 91, 76
14, 588351, Note_on_c, 11, 91, 0
14, 588360, Note_on_c, 11, 91, 76
14, 588411, Note_on_c, 11, 91, 0
14, 588420, Note_on_c, 11, 91, 76
14, 588471, Note_on_c, 11, 91, 0
14, 588480, Note_on_c, 11, 91, 76
14, 588531, Note_on_c, 11, 91, 0
14, 588540, Note_on_c, 11, 91, 76
14, 588591, Note_on_c, 11, 91, 0
14, 588600, Note_on_c, 11, 91, 76
14, 588651, Note_on_c, 11, 91, 0
14, 588660, Note_on_c, 11, 91, 76
14, 588711, Note_on_c, 11, 91, 0
14, 588720, Note_on_c, 11, 91, 76
14, 588771, Note_on_c, 11, 91, 0
14, 588780, Note_on_c, 11, 91, 76
14, 588831, Note_on_c, 11, 91, 0
14, 588840, Note_on_c, 11, 91, 76
14, 588891, Note_on_c, 11, 91, 0
14, 588900, Note_on_c, 11, 91, 76
14, 588951, Note_on_c, 11, 91, 0
14, 588960, Note_on_c, 11, 92, 76
14, 589011, Note_on_c, 11, 92, 0
14, 589020, Note_on_c, 11, 92, 76
14, 589071, Note_on_c, 11, 92, 0
14, 589080, Note_on_c, 11, 92, 76
14, 589131, Note_on_c, 11, 92, 0
14, 589140, Note_on_c, 11, 92, 76
14, 589191, Note_on_c, 11, 92, 0
14, 589200, Note_on_c, 11, 92, 76
14, 589251, Note_on_c, 11, 92, 0
14, 589260, Note_on_c, 11, 92, 76
14, 589311, Note_on_c, 11, 92, 0
14, 589320, Note_on_c, 11, 92, 76
14, 589371, Note_on_c, 11, 92, 0
14, 589380, Note_on_c, 11, 92, 76
14, 589431, Note_on_c, 11, 92, 0
14, 589440, Note_on_c, 11, 92, 76
14, 589491, Note_on_c, 11, 92, 0
14, 589500, Note_on_c, 11, 92, 76
14, 589551, Note_on_c, 11, 92, 0
14, 589560, Note_on_c, 11, 92, 76
14, 589611, Note_on_c, 11, 92, 0
14, 589620, Note_on_c, 11, 92, 76
14, 589671, Note_on_c, 11, 92, 0
14, 589680, Note_on_c, 11, 91, 76
14, 589731, Note_on_c, 11, 91, 0
14, 589740, Note_on_c, 11, 91, 76
14, 589791, Note_on_c, 11, 91, 0
14, 589800, Note_on_c, 11, 91, 76
14, 589851, Note_on_c, 11, 91, 0
14, 589860, Note_on_c, 11, 91, 76
14, 589911, Note_on_c, 11, 91, 0
14, 589920, Note_on_c, 11, 91, 76
14, 589971, Note_on_c, 11, 91, 0
14, 589980, Note_on_c, 11, 91, 76
14, 590031, Note_on_c, 11, 91, 0
14, 590040, Note_on_c, 11, 91, 76
14, 590091, Note_on_c, 11, 91, 0
14, 590100, Note_on_c, 11, 91, 76
14, 590151, Note_on_c, 11, 91, 0
14, 590160, Note_on_c, 11, 91, 76
14, 590211, Note_on_c, 11, 91, 0
14, 590220, Note_on_c, 11, 91, 76
14, 590271, Note_on_c, 11, 91, 0
14, 590280, Note_on_c, 11, 91, 76
14, 590331, Note_on_c, 11, 91, 0
14, 590340, Note_on_c, 11, 91, 76
14, 590391, Note_on_c, 11, 91, 0
14, 590400, Note_on_c, 11, 89, 76
14, 590451, Note_on_c, 11, 89, 0
14, 590460, Note_on_c, 11, 89, 76
14, 590511, Note_on_c, 11, 89, 0
14, 590520, Note_on_c, 11, 89, 76
14, 590571, Note_on_c, 11, 89, 0
14, 590580, Note_on_c, 11, 89, 76
14, 590631, Note_on_c, 11, 89, 0
14, 590640, Note_on_c, 11, 89, 76
14, 590691, Note_on_c, 11, 89, 0
14, 590700, Note_on_c, 11, 89, 76
14, 590751, Note_on_c, 11, 89, 0
14, 590760, Note_on_c, 11, 89, 76
14, 590811, Note_on_c, 11, 89, 0
14, 590820, Note_on_c, 11, 89, 76
14, 590871, Note_on_c, 11, 89, 0
14, 590880, Note_on_c, 11, 89, 76
14, 590931, Note_on_c, 11, 89, 0
14, 590940, Note_on_c, 11, 89, 76
14, 590991, Note_on_c, 11, 89, 0
14, 591000, Note_on_c, 11, 89, 76
14, 591051, Note_on_c, 11, 89, 0
14, 591060, Note_on_c, 11, 89, 76
14, 591111, Note_on_c, 11, 89, 0
14, 591120, Note_on_c, 11, 87, 84
14, 591171, Note_on_c, 11, 87, 0
14, 591180, Note_on_c, 11, 87, 84
14, 591231, Note_on_c, 11, 87, 0
14, 591240, Note_on_c, 11, 87, 84
14, 591291, Note_on_c, 11, 87, 0
14, 591300, Note_on_c, 11, 87, 84
14, 591351, Note_on_c, 11, 87, 0
14, 591360, Note_on_c, 11, 87, 84
14, 591411, Note_on_c, 11, 87, 0
14, 591420, Note_on_c, 11, 87, 84
14, 591471, Note_on_c, 11, 87, 0
14, 591480, Note_on_c, 11, 87, 84
14, 591531, Note_on_c, 11, 87, 0
14, 591540, Note_on_c, 11, 87, 84
14, 591591, Note_on_c, 11, 87, 0
14, 591600, Note_on_c, 11, 87, 84
14, 591651, Note_on_c, 11, 87, 0
14, 591660, Note_on_c, 11, 87, 84
14, 591711, Note_on_c, 11, 87, 0
14, 591720, Note_on_c, 11, 87, 84
14, 591771, Note_on_c, 11, 87, 0
14, 591780, Note_on_c, 11, 87, 84
14, 591831, Note_on_c, 11, 87, 0
14, 591840, Note_on_c, 11, 86, 84
14, 591891, Note_on_c, 11, 86, 0
14, 591900, Note_on_c, 11, 86, 84
14, 591951, Note_on_c, 11, 86, 0
14, 591960, Note_on_c, 11, 86, 84
14, 592011, Note_on_c, 11, 86, 0
14, 592020, Note_on_c, 11, 86, 84
14, 592071, Note_on_c, 11, 86, 0
14, 592080, Note_on_c, 11, 86, 84
14, 592131, Note_on_c, 11, 86, 0
14, 592140, Note_on_c, 11, 86, 84
14, 592191, Note_on_c, 11, 86, 0
14, 592200, Note_on_c, 11, 86, 84
14, 592251, Note_on_c, 11, 86, 0
14, 592260, Note_on_c, 11, 86, 84
14, 592311, Note_on_c, 11, 86, 0
14, 592320, Note_on_c, 11, 86, 84
14, 592371, Note_on_c, 11, 86, 0
14, 592380, Note_on_c, 11, 86, 84
14, 592431, Note_on_c, 11, 86, 0
14, 592440, Note_on_c, 11, 86, 84
14, 592491, Note_on_c, 11, 86, 0
14, 592500, Note_on_c, 11, 86, 84
14, 592551, Note_on_c, 11, 86, 0
14, 592560, Note_on_c, 11, 87, 52
14, 592799, Note_on_c, 11, 87, 0
14, 593040, Control_c, 11, 11, 96
14, 593280, Note_on_c, 11, 75, 68
14, 593280, Control_c, 11, 11, 96
14, 593320, Control_c, 11, 11, 101
14, 593360, Control_c, 11, 11, 106
14, 593400, Control_c, 11, 11, 112
14, 593440, Control_c, 11, 11, 117
14, 593480, Control_c, 11, 11, 122
14, 593520, Control_c, 11, 11, 127
14, 593560, Control_c, 11, 11, 124
14, 593600, Control_c, 11, 11, 122
14, 593640, Control_c, 11, 11, 119
14, 593680, Control_c, 11, 11, 117
14, 593720, Control_c, 11, 11, 114
14, 593760, Control_c, 11, 11, 112
14, 593800, Control_c, 11, 11, 109
14, 593840, Control_c, 11, 11, 106
14, 593880, Control_c, 11, 11, 104
14, 593920, Control_c, 11, 11, 101
14, 593960, Control_c, 11, 11, 96
14, 594239, Note_on_c, 11, 75, 0
14, 594240, Note_on_c, 11, 82, 68
14, 594464, Note_on_c, 11, 82, 0
14, 594480, Note_on_c, 11, 82, 68
14, 594689, Note_on_c, 11, 82, 0
14, 594720, Note_on_c, 11, 82, 68
14, 594929, Note_on_c, 11, 82, 0
14, 594960, Note_on_c, 11, 82, 68
14, 595169, Note_on_c, 11, 82, 0
14, 595200, Note_on_c, 11, 82, 68
14, 595409, Note_on_c, 11, 82, 0
14, 595425, Control_c, 11, 11, 80
14, 595440, Note_on_c, 11, 82, 76
14, 595440, Control_c, 11, 11, 80
14, 595529, Note_on_c, 11, 82, 0
14, 595560, Control_c, 11, 11, 82
14, 595560, Note_on_c, 11, 79, 76
14, 595649, Note_on_c, 11, 79, 0
14, 595680, Note_on_c, 11, 77, 76
14, 595680, Control_c, 11, 11, 84
14, 595769, Note_on_c, 11, 77, 0
14, 595800, Note_on_c, 11, 79, 76
14, 595800, Control_c, 11, 11, 86
14, 595889, Note_on_c, 11, 79, 0
14, 595920, Note_on_c, 11, 80, 76
14, 595920, Control_c, 11, 11, 88
14, 596009, Note_on_c, 11, 80, 0
14, 596040, Note_on_c, 11, 82, 76
14, 596040, Control_c, 11, 11, 90
14, 596129, Note_on_c, 11, 82, 0
14, 596160, Control_c, 11, 11, 92
14, 596160, Note_on_c, 11, 84, 76
14, 596249, Note_on_c, 11, 84, 0
14, 596280, Note_on_c, 11, 86, 76
14, 596280, Control_c, 11, 11, 94
14, 596369, Note_on_c, 11, 86, 0
14, 596400, Note_on_c, 11, 87, 76
14, 596400, Control_c, 11, 11, 96
14, 596489, Note_on_c, 11, 87, 0
14, 596520, Note_on_c, 11, 87, 76
14, 596520, Control_c, 11, 11, 98
14, 596609, Note_on_c, 11, 87, 0
14, 596640, Note_on_c, 11, 87, 76
14, 596640, Control_c, 11, 11, 100
14, 596729, Note_on_c, 11, 87, 0
14, 596760, Control_c, 11, 11, 102
14, 596760, Note_on_c, 11, 87, 76
14, 596849, Note_on_c, 11, 87, 0
14, 596880, Control_c, 11, 11, 104
14, 596880, Note_on_c, 11, 87, 76
14, 596969, Note_on_c, 11, 87, 0
14, 597000, Note_on_c, 11, 75, 76
14, 597000, Control_c, 11, 11, 105
14, 597089, Note_on_c, 11, 75, 0
14, 597120, Note_on_c, 11, 74, 76
14, 597120, Control_c, 11, 11, 107
14, 597209, Note_on_c, 11, 74, 0
14, 597240, Note_on_c, 11, 75, 76
14, 597240, Control_c, 11, 11, 109
14, 597329, Note_on_c, 11, 75, 0
14, 597360, Note_on_c, 11, 77, 76
14, 597360, Control_c, 11, 11, 111
14, 597449, Note_on_c, 11, 77, 0
14, 597480, Control_c, 11, 11, 113
14, 597480, Note_on_c, 11, 79, 76
14, 597569, Note_on_c, 11, 79, 0
14, 597600, Note_on_c, 11, 80, 76
14, 597600, Control_c, 11, 11, 115
14, 597689, Note_on_c, 11, 80, 0
14, 597720, Note_on_c, 11, 80, 76
14, 597720, Control_c, 11, 11, 117
14, 597809, Note_on_c, 11, 80, 0
14, 597840, Note_on_c, 11, 80, 76
14, 597840, Control_c, 11, 11, 119
14, 597929, Note_on_c, 11, 80, 0
14, 597960, Note_on_c, 11, 80, 76
14, 597960, Control_c, 11, 11, 121
14, 598049, Note_on_c, 11, 80, 0
14, 598080, Control_c, 11, 11, 123
14, 598080, Note_on_c, 11, 80, 76
14, 598169, Note_on_c, 11, 80, 0
14, 598200, Note_on_c, 11, 80, 76
14, 598200, Control_c, 11, 11, 127
14, 598289, Note_on_c, 11, 80, 0
14, 598320, Note_on_c, 11, 80, 76
14, 598544, Note_on_c, 11, 80, 0
14, 598560, Note_on_c, 11, 80, 76
14, 599264, Note_on_c, 11, 80, 0
14, 599280, Note_on_c, 11, 86, 76
14, 599984, Note_on_c, 11, 86, 0
14, 600000, Note_on_c, 11, 89, 76
14, 600464, Note_on_c, 11, 89, 0
14, 600480, Note_on_c, 11, 92, 76
14, 600944, Note_on_c, 11, 92, 0
14, 600960, Note_on_c, 11, 92, 76
14, 601139, Note_on_c, 11, 92, 0
14, 601200, Note_on_c, 11, 92, 76
14, 601424, Note_on_c, 11, 92, 0
14, 601440, Note_on_c, 11, 62, 84
14, 601491, Note_on_c, 11, 62, 0
14, 601500, Note_on_c, 11, 62, 84
14, 601551, Note_on_c, 11, 62, 0
14, 601560, Note_on_c, 11, 62, 84
14, 601611, Note_on_c, 11, 62, 0
14, 601620, Note_on_c, 11, 62, 84
14, 601671, Note_on_c, 11, 62, 0
14, 601680, Note_on_c, 11, 58, 84
14, 601731, Note_on_c, 11, 58, 0
14, 601740, Note_on_c, 11, 58, 84
14, 601791, Note_on_c, 11, 58, 0
14, 601800, Note_on_c, 11, 58, 84
14, 601851, Note_on_c, 11, 58, 0
14, 601860, Note_on_c, 11, 58, 84
14, 601911, Note_on_c, 11, 58, 0
14, 601920, Note_on_c, 11, 65, 84
14, 601971, Note_on_c, 11, 65, 0
14, 601980, Note_on_c, 11, 65, 84
14, 602031, Note_on_c, 11, 65, 0
14, 602040, Note_on_c, 11, 65, 84
14, 602091, Note_on_c, 11, 65, 0
14, 602100, Note_on_c, 11, 65, 84
14, 602151, Note_on_c, 11, 65, 0
14, 602160, Note_on_c, 11, 58, 84
14, 602211, Note_on_c, 11, 58, 0
14, 602220, Note_on_c, 11, 58, 84
14, 602271, Note_on_c, 11, 58, 0
14, 602280, Note_on_c, 11, 58, 84
14, 602331, Note_on_c, 11, 58, 0
14, 602340, Note_on_c, 11, 58, 84
14, 602391, Note_on_c, 11, 58, 0
14, 602400, Note_on_c, 11, 70, 84
14, 602451, Note_on_c, 11, 70, 0
14, 602460, Note_on_c, 11, 70, 84
14, 602511, Note_on_c, 11, 70, 0
14, 602520, Note_on_c, 11, 70, 84
14, 602571, Note_on_c, 11, 70, 0
14, 602580, Note_on_c, 11, 70, 84
14, 602631, Note_on_c, 11, 70, 0
14, 602640, Note_on_c, 11, 58, 84
14, 602691, Note_on_c, 11, 58, 0
14, 602700, Note_on_c, 11, 58, 84
14, 602751, Note_on_c, 11, 58, 0
14, 602760, Note_on_c, 11, 58, 84
14, 602811, Note_on_c, 11, 58, 0
14, 602820, Note_on_c, 11, 58, 84
14, 602871, Note_on_c, 11, 58, 0
14, 602880, Note_on_c, 11, 74, 84
14, 602931, Note_on_c, 11, 74, 0
14, 602940, Note_on_c, 11, 74, 84
14, 602991, Note_on_c, 11, 74, 0
14, 603000, Note_on_c, 11, 74, 84
14, 603051, Note_on_c, 11, 74, 0
14, 603060, Note_on_c, 11, 74, 84
14, 603111, Note_on_c, 11, 74, 0
14, 603120, Note_on_c, 11, 58, 84
14, 603171, Note_on_c, 11, 58, 0
14, 603180, Note_on_c, 11, 58, 84
14, 603231, Note_on_c, 11, 58, 0
14, 603240, Note_on_c, 11, 58, 84
14, 603291, Note_on_c, 11, 58, 0
14, 603300, Note_on_c, 11, 58, 84
14, 603351, Note_on_c, 11, 58, 0
14, 603360, Note_on_c, 11, 77, 84
14, 603411, Note_on_c, 11, 77, 0
14, 603420, Note_on_c, 11, 77, 84
14, 603471, Note_on_c, 11, 77, 0
14, 603480, Note_on_c, 11, 77, 84
14, 603531, Note_on_c, 11, 77, 0
14, 603540, Note_on_c, 11, 77, 84
14, 603591, Note_on_c, 11, 77, 0
14, 603600, Note_on_c, 11, 58, 84
14, 603651, Note_on_c, 11, 58, 0
14, 603660, Note_on_c, 11, 58, 84
14, 603711, Note_on_c, 11, 58, 0
14, 603720, Note_on_c, 11, 58, 84
14, 603771, Note_on_c, 11, 58, 0
14, 603780, Note_on_c, 11, 58, 84
14, 603831, Note_on_c, 11, 58, 0
14, 603840, Note_on_c, 11, 82, 84
14, 603891, Note_on_c, 11, 82, 0
14, 603900, Note_on_c, 11, 82, 84
14, 603951, Note_on_c, 11, 82, 0
14, 603960, Note_on_c, 11, 82, 84
14, 604011, Note_on_c, 11, 82, 0
14, 604020, Note_on_c, 11, 82, 84
14, 604071, Note_on_c, 11, 82, 0
14, 604080, Note_on_c, 11, 79, 84
14, 604319, Note_on_c, 11, 79, 0
14, 604800, Note_on_c, 11, 79, 84
14, 604800, Note_on_c, 11, 70, 84
14, 604800, Note_on_c, 11, 63, 84
14, 604800, Note_on_c, 11, 55, 84
14, 605039, Note_on_c, 11, 79, 0
14, 605039, Note_on_c, 11, 70, 0
14, 605039, Note_on_c, 11, 63, 0
14, 605039, Note_on_c, 11, 55, 0
14, 605520, Note_on_c, 11, 63, 84
14, 605520, Note_on_c, 11, 55, 84
14, 605759, Note_on_c, 11, 63, 0
14, 605759, Note_on_c, 11, 55, 0
14, 605759, End_track
15, 0, Start_track
15, 0, Title_t, "Violin II"
15, 0, MIDI_port, 0
15, 0, Program_c, 12, 48
15, 0, Control_c, 12, 7, 96
15, 0, Control_c, 12, 10, 24
15, 0, Control_c, 12, 11, 127
15, 0, Note_on_c, 12, 75, 76
15, 0, Note_on_c, 12, 63, 76
15, 0, Note_on_c, 12, 55, 76
15, 179, Note_on_c, 12, 75, 0
15, 179, Note_on_c, 12, 63, 0
15, 179, Note_on_c, 12, 55, 0
15, 720, Note_on_c, 12, 63, 76
15, 720, Note_on_c, 12, 55, 76
15, 720, Note_on_c, 12, 75, 76
15, 899, Note_on_c, 12, 63, 0
15, 899, Note_on_c, 12, 55, 0
15, 899, Note_on_c, 12, 75, 0
15, 1440, Note_on_c, 12, 67, 52
15, 1544, Note_on_c, 12, 67, 0
15, 1560, Note_on_c, 12, 67, 52
15, 1664, Note_on_c, 12, 67, 0
15, 1680, Note_on_c, 12, 67, 52
15, 1784, Note_on_c, 12, 67, 0
15, 1800, Note_on_c, 12, 67, 52
15, 1904, Note_on_c, 12, 67, 0
15, 1920, Note_on_c, 12, 67, 52
15, 2024, Note_on_c, 12, 67, 0
15, 2040, Note_on_c, 12, 67, 52
15, 2144, Note_on_c, 12, 67, 0
15, 2160, Note_on_c, 12, 67, 52
15, 2264, Note_on_c, 12, 67, 0
15, 2280, Note_on_c, 12, 67, 52
15, 2384, Note_on_c, 12, 67, 0
15, 2400, Note_on_c, 12, 67, 52
15, 2504, Note_on_c, 12, 67, 0
15, 2520, Note_on_c, 12, 67, 52
15, 2624, Note_on_c, 12, 67, 0
15, 2640, Note_on_c, 12, 67, 52
15, 2744, Note_on_c, 12, 67, 0
15, 2760, Note_on_c, 12, 67, 52
15, 2864, Note_on_c, 12, 67, 0
15, 2880, Note_on_c, 12, 67, 52
15, 2984, Note_on_c, 12, 67, 0
15, 3000, Note_on_c, 12, 67, 52
15, 3104, Note_on_c, 12, 67, 0
15, 3120, Note_on_c, 12, 67, 52
15, 3224, Note_on_c, 12, 67, 0
15, 3240, Note_on_c, 12, 67, 52
15, 3344, Note_on_c, 12, 67, 0
15, 3360, Note_on_c, 12, 67, 52
15, 3464, Note_on_c, 12, 67, 0
15, 3480, Note_on_c, 12, 67, 52
15, 3584, Note_on_c, 12, 67, 0
15, 3600, Note_on_c, 12, 67, 52
15, 3704, Note_on_c, 12, 67, 0
15, 3720, Note_on_c, 12, 67, 52
15, 3824, Note_on_c, 12, 67, 0
15, 3840, Note_on_c, 12, 67, 52
15, 3944, Note_on_c, 12, 67, 0
15, 3960, Note_on_c, 12, 67, 52
15, 4064, Note_on_c, 12, 67, 0
15, 4080, Note_on_c, 12, 67, 52
15, 4184, Note_on_c, 12, 67, 0
15, 4200, Note_on_c, 12, 67, 52
15, 4304, Note_on_c, 12, 67, 0
15, 4320, Note_on_c, 12, 67, 52
15, 4424, Note_on_c, 12, 67, 0
15, 4440, Note_on_c, 12, 67, 52
15, 4544, Note_on_c, 12, 67, 0
15, 4560, Note_on_c, 12, 67, 53
15, 4664, Note_on_c, 12, 67, 0
15, 4680, Note_on_c, 12, 67, 54
15, 4784, Note_on_c, 12, 67, 0
15, 4800, Note_on_c, 12, 67, 55
15, 4904, Note_on_c, 12, 67, 0
15, 4920, Note_on_c, 12, 67, 56
15, 5024, Note_on_c, 12, 67, 0
15, 5040, Note_on_c, 12, 67, 57
15, 5144, Note_on_c, 12, 67, 0
15, 5160, Note_on_c, 12, 67, 58
15, 5264, Note_on_c, 12, 67, 0
15, 5280, Note_on_c, 12, 67, 59
15, 5384, Note_on_c, 12, 67, 0
15, 5400, Note_on_c, 12, 67, 60
15, 5504, Note_on_c, 12, 67, 0
15, 5520, Note_on_c, 12, 67, 60
15, 5624, Note_on_c, 12, 67, 0
15, 5640, Note_on_c, 12, 67, 61
15, 5744, Note_on_c, 12, 67, 0
15, 5760, Note_on_c, 12, 67, 62
15, 5879, Note_on_c, 12, 67, 0
15, 5880, Note_on_c, 12, 58, 63
15, 5999, Note_on_c, 12, 58, 0
15, 6000, Note_on_c, 12, 67, 64
15, 6119, Note_on_c, 12, 67, 0
15, 6120, Note_on_c, 12, 58, 65
15, 6239, Note_on_c, 12, 58, 0
15, 6240, Note_on_c, 12, 67, 66
15, 6359, Note_on_c, 12, 67, 0
15, 6360, Note_on_c, 12, 58, 67
15, 6464, Note_on_c, 12, 58, 0
15, 6480, Note_on_c, 12, 65, 76
15, 6599, Note_on_c, 12, 65, 0
15, 6600, Note_on_c, 12, 58, 66
15, 6719, Note_on_c, 12, 58, 0
15, 6720, Note_on_c, 12, 65, 63
15, 6839, Note_on_c, 12, 65, 0
15, 6840, Note_on_c, 12, 58, 60
15, 6959, Note_on_c, 12, 58, 0
15, 6960, Note_on_c, 12, 65, 58
15, 7079, Note_on_c, 12, 65, 0
15, 7080, Note_on_c, 12, 58, 55
15, 7184, Note_on_c, 12, 58, 0
15, 7200, Note_on_c, 12, 63, 52
15, 7319, Note_on_c, 12, 63, 0
15, 7320, Note_on_c, 12, 58, 52
15, 7439, Note_on_c, 12, 58, 0
15, 7440, Note_on_c, 12, 63, 52
15, 7559, Note_on_c, 12, 63, 0
15, 7560, Note_on_c, 12, 58, 52
15, 7679, Note_on_c, 12, 58, 0
15, 7680, Note_on_c, 12, 63, 52
15, 7799, Note_on_c, 12, 63, 0
15, 7800, Note_on_c, 12, 58, 52
15, 7904, Note_on_c, 12, 58, 0
15, 7920, Note_on_c, 12, 60, 52
15, 8039, Note_on_c, 12, 60, 0
15, 8040, Note_on_c, 12, 63, 52
15, 8159, Note_on_c, 12, 63, 0
15, 8160, Note_on_c, 12, 58, 52
15, 8279, Note_on_c, 12, 58, 0
15, 8280, Note_on_c, 12, 63, 52
15, 8399, Note_on_c, 12, 63, 0
15, 8400, Note_on_c, 12, 56, 52
15, 8519, Note_on_c, 12, 56, 0
15, 8520, Note_on_c, 12, 63, 52
15, 8624, Note_on_c, 12, 63, 0
15, 8640, Note_on_c, 12, 58, 52
15, 8759, Note_on_c, 12, 58, 0
15, 8760, Note_on_c, 12, 63, 53
15, 8879, Note_on_c, 12, 63, 0
15, 8880, Note_on_c, 12, 55, 54
15, 8999, Note_on_c, 12, 55, 0
15, 9000, Note_on_c, 12, 58, 56
15, 9119, Note_on_c, 12, 58, 0
15, 9120, Note_on_c, 12, 55, 57
15, 9239, Note_on_c, 12, 55, 0
15, 9240, Note_on_c, 12, 58, 58
15, 9344, Note_on_c, 12, 58, 0
15, 9360, Note_on_c, 12, 56, 60
15, 9479, Note_on_c, 12, 56, 0
15, 9480, Note_on_c, 12, 58, 61
15, 9599, Note_on_c, 12, 58, 0
15, 9600, Note_on_c, 12, 55, 62
15, 9719, Note_on_c, 12, 55, 0
15, 9720, Note_on_c, 12, 58, 64
15, 9839, Note_on_c, 12, 58, 0
15, 9840, Note_on_c, 12, 62, 65
15, 9959, Note_on_c, 12, 62, 0
15, 9960, Note_on_c, 12, 58, 66
15, 10064, Note_on_c, 12, 58, 0
15, 10080, Note_on_c, 12, 63, 52
15, 10169, Note_on_c, 12, 63, 0
15, 10200, Note_on_c, 12, 58, 52
15, 10289, Note_on_c, 12, 58, 0
15, 10320, Note_on_c, 12, 58, 52
15, 10409, Note_on_c, 12, 58, 0
15, 10440, Note_on_c, 12, 58, 52
15, 10529, Note_on_c, 12, 58, 0
15, 10560, Note_on_c, 12, 58, 52
15, 10649, Note_on_c, 12, 58, 0
15, 10680, Note_on_c, 12, 58, 52
15, 10769, Note_on_c, 12, 58, 0
15, 10800, Note_on_c, 12, 58, 52
15, 10889, Note_on_c, 12, 58, 0
15, 10920, Note_on_c, 12, 58, 52
15, 11009, Note_on_c, 12, 58, 0
15, 11040, Note_on_c, 12, 58, 52
15, 11129, Note_on_c, 12, 58, 0
15, 11160, Note_on_c, 12, 58, 52
15, 11249, Note_on_c, 12, 58, 0
15, 11280, Note_on_c, 12, 58, 52
15, 11369, Note_on_c, 12, 58, 0
15, 11400, Note_on_c, 12, 58, 52
15, 11489, Note_on_c, 12, 58, 0
15, 11520, Note_on_c, 12, 58, 52
15, 11609, Note_on_c, 12, 58, 0
15, 11640, Note_on_c, 12, 58, 52
15, 11729, Note_on_c, 12, 58, 0
15, 11760, Note_on_c, 12, 58, 52
15, 11849, Note_on_c, 12, 58, 0
15, 11880, Note_on_c, 12, 58, 52
15, 11969, Note_on_c, 12, 58, 0
15, 12000, Note_on_c, 12, 58, 52
15, 12089, Note_on_c, 12, 58, 0
15, 12120, Note_on_c, 12, 58, 52
15, 12209, Note_on_c, 12, 58, 0
15, 12240, Note_on_c, 12, 58, 52
15, 12329, Note_on_c, 12, 58, 0
15, 12360, Note_on_c, 12, 58, 52
15, 12449, Note_on_c, 12, 58, 0
15, 12480, Note_on_c, 12, 61, 52
15, 12569, Note_on_c, 12, 61, 0
15, 12600, Note_on_c, 12, 61, 52
15, 12689, Note_on_c, 12, 61, 0
15, 12720, Note_on_c, 12, 60, 52
15, 12809, Note_on_c, 12, 60, 0
15, 12840, Note_on_c, 12, 60, 52
15, 12929, Note_on_c, 12, 60, 0
15, 12960, Note_on_c, 12, 60, 52
15, 13049, Note_on_c, 12, 60, 0
15, 13080, Note_on_c, 12, 60, 52
15, 13169, Note_on_c, 12, 60, 0
15, 13200, Note_on_c, 12, 60, 52
15, 13289, Note_on_c, 12, 60, 0
15, 13320, Note_on_c, 12, 60, 52
15, 13409, Note_on_c, 12, 60, 0
15, 13440, Note_on_c, 12, 60, 52
15, 13529, Note_on_c, 12, 60, 0
15, 13560, Note_on_c, 12, 60, 52
15, 13649, Note_on_c, 12, 60, 0
15, 13680, Note_on_c, 12, 60, 52
15, 13769, Note_on_c, 12, 60, 0
15, 13800, Note_on_c, 12, 60, 52
15, 13889, Note_on_c, 12, 60, 0
15, 13920, Note_on_c, 12, 61, 52
15, 14009, Note_on_c, 12, 61, 0
15, 14040, Note_on_c, 12, 61, 52
15, 14129, Note_on_c, 12, 61, 0
15, 14160, Note_on_c, 12, 63, 52
15, 14249, Note_on_c, 12, 63, 0
15, 14280, Note_on_c, 12, 63, 52
15, 14369, Note_on_c, 12, 63, 0
15, 14400, Note_on_c, 12, 63, 52
15, 14489, Note_on_c, 12, 63, 0
15, 14520, Note_on_c, 12, 63, 52
15, 14609, Note_on_c, 12, 63, 0
15, 14640, Note_on_c, 12, 63, 52
15, 14729, Note_on_c, 12, 63, 0
15, 14760, Note_on_c, 12, 63, 52
15, 14849, Note_on_c, 12, 63, 0
15, 14880, Note_on_c, 12, 63, 52
15, 14969, Note_on_c, 12, 63, 0
15, 15000, Note_on_c, 12, 63, 52
15, 15089, Note_on_c, 12, 63, 0
15, 15120, Note_on_c, 12, 63, 52
15, 15209, Note_on_c, 12, 63, 0
15, 15240, Note_on_c, 12, 63, 56
15, 15329, Note_on_c, 12, 63, 0
15, 15360, Note_on_c, 12, 63, 60
15, 15449, Note_on_c, 12, 63, 0
15, 15480, Note_on_c, 12, 63, 64
15, 15569, Note_on_c, 12, 63, 0
15, 15600, Note_on_c, 12, 63, 68
15, 15704, Note_on_c, 12, 63, 0
15, 15720, Note_on_c, 12, 63, 72
15, 15824, Note_on_c, 12, 63, 0
15, 15840, Note_on_c, 12, 62, 76
15, 15959, Note_on_c, 12, 62, 0
15, 15960, Note_on_c, 12, 58, 52
15, 16079, Note_on_c, 12, 58, 0
15, 16080, Note_on_c, 12, 62, 52
15, 16199, Note_on_c, 12, 62, 0
15, 16200, Note_on_c, 12, 65, 52
15, 16319, Note_on_c, 12, 65, 0
15, 16320, Note_on_c, 12, 70, 52
15, 16439, Note_on_c, 12, 70, 0
15, 16440, Note_on_c, 12, 74, 52
15, 16559, Note_on_c, 12, 74, 0
15, 16560, Note_on_c, 12, 77, 52
15, 16739, Note_on_c, 12, 77, 0
15, 16800, Note_on_c, 12, 65, 52
15, 17039, Note_on_c, 12, 65, 0
15, 17040, Note_on_c, 12, 62, 52
15, 17264, Note_on_c, 12, 62, 0
15, 17280, Note_on_c, 12, 63, 52
15, 17459, Note_on_c, 12, 63, 0
15, 17520, Note_on_c, 12, 63, 76
15, 17520, Note_on_c, 12, 72, 76
15, 17969, Note_on_c, 12, 63, 0
15, 17969, Note_on_c, 12, 72, 0
15, 18000, Note_on_c, 12, 63, 76
15, 18000, Note_on_c, 12, 72, 76
15, 18449, Note_on_c, 12, 63, 0
15, 18449, Note_on_c, 12, 72, 0
15, 18480, Note_on_c, 12, 72, 76
15, 18480, Note_on_c, 12, 63, 76
15, 18689, Note_on_c, 12, 72, 0
15, 18689, Note_on_c, 12, 63, 0
15, 18720, Note_on_c, 12, 70, 76
15, 18720, Note_on_c, 12, 62, 76
15, 18809, Note_on_c, 12, 70, 0
15, 18809, Note_on_c, 12, 62, 0
15, 18840, Note_on_c, 12, 58, 52
15, 18959, Note_on_c, 12, 58, 0
15, 18960, Note_on_c, 12, 62, 52
15, 19079, Note_on_c, 12, 62, 0
15, 19080, Note_on_c, 12, 65, 52
15, 19199, Note_on_c, 12, 65, 0
15, 19200, Note_on_c, 12, 70, 52
15, 19319, Note_on_c, 12, 70, 0
15, 19320, Note_on_c, 12, 74, 52
15, 19439, Note_on_c, 12, 74, 0
15, 19440, Note_on_c, 12, 77, 52
15, 19619, Note_on_c, 12, 77, 0
15, 19920, Note_on_c, 12, 65, 76
15, 19920, Note_on_c, 12, 58, 76
15, 20369, Note_on_c, 12, 65, 0
15, 20369, Note_on_c, 12, 58, 0
15, 20400, Note_on_c, 12, 58, 76
15, 20400, Note_on_c, 12, 65, 76
15, 20849, Note_on_c, 12, 58, 0
15, 20849, Note_on_c, 12, 65, 0
15, 20880, Note_on_c, 12, 58, 76
15, 20880, Note_on_c, 12, 65, 76
15, 21329, Note_on_c, 12, 58, 0
15, 21329, Note_on_c, 12, 65, 0
15, 21360, Note_on_c, 12, 65, 76
15, 21360, Note_on_c, 12, 58, 76
15, 21809, Note_on_c, 12, 65, 0
15, 21809, Note_on_c, 12, 58, 0
15, 21840, Note_on_c, 12, 58, 76
15, 21840, Note_on_c, 12, 63, 76
15, 22289, Note_on_c, 12, 58, 0
15, 22289, Note_on_c, 12, 63, 0
15, 22320, Note_on_c, 12, 58, 76
15, 22320, Note_on_c, 12, 63, 76
15, 22769, Note_on_c, 12, 58, 0
15, 22769, Note_on_c, 12, 63, 0
15, 22800, Note_on_c, 12, 63, 76
15, 22800, Note_on_c, 12, 58, 76
15, 23249, Note_on_c, 12, 63, 0
15, 23249, Note_on_c, 12, 58, 0
15, 23280, Note_on_c, 12, 58, 52
15, 23280, Note_on_c, 12, 62, 52
15, 23459, Note_on_c, 12, 58, 0
15, 23459, Note_on_c, 12, 62, 0
15, 23520, Note_on_c, 12, 62, 76
15, 23520, Note_on_c, 12, 58, 76
15, 23969, Note_on_c, 12, 62, 0
15, 23969, Note_on_c, 12, 58, 0
15, 24000, Note_on_c, 12, 62, 52
15, 24000, Note_on_c, 12, 58, 52
15, 24179, Note_on_c, 12, 62, 0
15, 24179, Note_on_c, 12, 58, 0
15, 24240, Note_on_c, 12, 62, 76
15, 24240, Note_on_c, 12, 58, 76
15, 24479, Note_on_c, 12, 62, 0
15, 24479, Note_on_c, 12, 58, 0
15, 24480, Note_on_c, 12, 58, 52
15, 24480, Note_on_c, 12, 68, 52
15, 24531, Note_on_c, 12, 58, 0
15, 24531, Note_on_c, 12, 68, 0
15, 24540, Note_on_c, 12, 80, 53
15, 24591, Note_on_c, 12, 80, 0
15, 24600, Note_on_c, 12, 80, 54
15, 24651, Note_on_c, 12, 80, 0
15, 24660, Note_on_c, 12, 80, 56
15, 24711, Note_on_c, 12, 80, 0
15, 24720, Note_on_c, 12, 80, 57
15, 24771, Note_on_c, 12, 80, 0
15, 24780, Note_on_c, 12, 80, 58
15, 24831, Note_on_c, 12, 80, 0
15, 24840, Note_on_c, 12, 79, 60
15, 24891, Note_on_c, 12, 79, 0
15, 24900, Note_on_c, 12, 79, 61
15, 24951, Note_on_c, 12, 79, 0
15, 24960, Note_on_c, 12, 77, 62
15, 25011, Note_on_c, 12, 77, 0
15, 25020, Note_on_c, 12, 77, 64
15, 25071, Note_on_c, 12, 77, 0
15, 25080, Note_on_c, 12, 75, 65
15, 25131, Note_on_c, 12, 75, 0
15, 25140, Note_on_c, 12, 75, 66
15, 25191, Note_on_c, 12, 75, 0
15, 25200, Note_on_c, 12, 74, 68
15, 25251, Note_on_c, 12, 74, 0
15, 25260, Note_on_c, 12, 74, 69
15, 25311, Note_on_c, 12, 74, 0
15, 25320, Note_on_c, 12, 72, 70
15, 25371, Note_on_c, 12, 72, 0
15, 25380, Note_on_c, 12, 72, 72
15, 25431, Note_on_c, 12, 72, 0
15, 25440, Note_on_c, 12, 70, 73
15, 25491, Note_on_c, 12, 70, 0
15, 25500, Note_on_c, 12, 70, 74
15, 25551, Note_on_c, 12, 70, 0
15, 25560, Note_on_c, 12, 68, 76
15, 25611, Note_on_c, 12, 68, 0
15, 25620, Note_on_c, 12, 68, 77
15, 25671, Note_on_c, 12, 68, 0
15, 25680, Note_on_c, 12, 67, 78
15, 25731, Note_on_c, 12, 67, 0
15, 25740, Note_on_c, 12, 67, 80
15, 25791, Note_on_c, 12, 67, 0
15, 25800, Note_on_c, 12, 65, 81
15, 25851, Note_on_c, 12, 65, 0
15, 25860, Note_on_c, 12, 65, 82
15, 25911, Note_on_c, 12, 65, 0
15, 25920, Note_on_c, 12, 63, 84
15, 25971, Note_on_c, 12, 63, 0
15, 25980, Note_on_c, 12, 70, 84
15, 25980, Note_on_c, 12, 79, 84
15, 26031, Note_on_c, 12, 70, 0
15, 26031, Note_on_c, 12, 79, 0
15, 26040, Note_on_c, 12, 79, 84
15, 26040, Note_on_c, 12, 70, 84
15, 26091, Note_on_c, 12, 79, 0
15, 26091, Note_on_c, 12, 70, 0
15, 26100, Note_on_c, 12, 70, 84
15, 26100, Note_on_c, 12, 79, 84
15, 26151, Note_on_c, 12, 70, 0
15, 26151, Note_on_c, 12, 79, 0
15, 26160, Note_on_c, 12, 79, 84
15, 26160, Note_on_c, 12, 70, 84
15, 26211, Note_on_c, 12, 79, 0
15, 26211, Note_on_c, 12, 70, 0
15, 26220, Note_on_c, 12, 70, 84
15, 26220, Note_on_c, 12, 79, 84
15, 26271, Note_on_c, 12, 70, 0
15, 26271, Note_on_c, 12, 79, 0
15, 26280, Note_on_c, 12, 70, 84
15, 26280, Note_on_c, 12, 79, 84
15, 26331, Note_on_c, 12, 70, 0
15, 26331, Note_on_c, 12, 79, 0
15, 26340, Note_on_c, 12, 70, 84
15, 26340, Note_on_c, 12, 79, 84
15, 26391, Note_on_c, 12, 70, 0
15, 26391, Note_on_c, 12, 79, 0
15, 26400, Note_on_c, 12, 79, 84
15, 26400, Note_on_c, 12, 70, 84
15, 26451, Note_on_c, 12, 79, 0
15, 26451, Note_on_c, 12, 70, 0
15, 26460, Note_on_c, 12, 70, 84
15, 26460, Note_on_c, 12, 79, 84
15, 26511, Note_on_c, 12, 70, 0
15, 26511, Note_on_c, 12, 79, 0
15, 26520, Note_on_c, 12, 79, 84
15, 26520, Note_on_c, 12, 70, 84
15, 26571, Note_on_c, 12, 79, 0
15, 26571, Note_on_c, 12, 70, 0
15, 26580, Note_on_c, 12, 79, 84
15, 26580, Note_on_c, 12, 70, 84
15, 26631, Note_on_c, 12, 79, 0
15, 26631, Note_on_c, 12, 70, 0
15, 26640, Note_on_c, 12, 70, 84
15, 26640, Note_on_c, 12, 79, 84
15, 26691, Note_on_c, 12, 70, 0
15, 26691, Note_on_c, 12, 79, 0
15, 26700, Note_on_c, 12, 79, 84
15, 26700, Note_on_c, 12, 70, 84
15, 26751, Note_on_c, 12, 79, 0
15, 26751, Note_on_c, 12, 70, 0
15, 26760, Note_on_c, 12, 70, 84
15, 26760, Note_on_c, 12, 79, 84
15, 26811, Note_on_c, 12, 70, 0
15, 26811, Note_on_c, 12, 79, 0
15, 26820, Note_on_c, 12, 79, 84
15, 26820, Note_on_c, 12, 70, 84
15, 26871, Note_on_c, 12, 79, 0
15, 26871, Note_on_c, 12, 70, 0
15, 26880, Note_on_c, 12, 79, 84
15, 26880, Note_on_c, 12, 70, 84
15, 26931, Note_on_c, 12, 79, 0
15, 26931, Note_on_c, 12, 70, 0
15, 26940, Note_on_c, 12, 79, 84
15, 26940, Note_on_c, 12, 70, 84
15, 26991, Note_on_c, 12, 79, 0
15, 26991, Note_on_c, 12, 70, 0
15, 27000, Note_on_c, 12, 79, 84
15, 27000, Note_on_c, 12, 70, 84
15, 27051, Note_on_c, 12, 79, 0
15, 27051, Note_on_c, 12, 70, 0
15, 27060, Note_on_c, 12, 79, 84
15, 27060, Note_on_c, 12, 70, 84
15, 27111, Note_on_c, 12, 79, 0
15, 27111, Note_on_c, 12, 70, 0
15, 27120, Note_on_c, 12, 79, 84
15, 27120, Note_on_c, 12, 70, 84
15, 27171, Note_on_c, 12, 79, 0
15, 27171, Note_on_c, 12, 70, 0
15, 27180, Note_on_c, 12, 79, 84
15, 27180, Note_on_c, 12, 70, 84
15, 27231, Note_on_c, 12, 79, 0
15, 27231, Note_on_c, 12, 70, 0
15, 27240, Note_on_c, 12, 70, 84
15, 27240, Note_on_c, 12, 79, 84
15, 27291, Note_on_c, 12, 70, 0
15, 27291, Note_on_c, 12, 79, 0
15, 27300, Note_on_c, 12, 79, 84
15, 27300, Note_on_c, 12, 70, 84
15, 27351, Note_on_c, 12, 79, 0
15, 27351, Note_on_c, 12, 70, 0
15, 27360, Note_on_c, 12, 79, 84
15, 27360, Note_on_c, 12, 70, 84
15, 27411, Note_on_c, 12, 79, 0
15, 27411, Note_on_c, 12, 70, 0
15, 27420, Note_on_c, 12, 79, 84
15, 27420, Note_on_c, 12, 70, 84
15, 27471, Note_on_c, 12, 79, 0
15, 27471, Note_on_c, 12, 70, 0
15, 27480, Note_on_c, 12, 70, 84
15, 27480, Note_on_c, 12, 79, 84
15, 27531, Note_on_c, 12, 70, 0
15, 27531, Note_on_c, 12, 79, 0
15, 27540, Note_on_c, 12, 70, 84
15, 27540, Note_on_c, 12, 79, 84
15, 27591, Note_on_c, 12, 70, 0
15, 27591, Note_on_c, 12, 79, 0
15, 27600, Note_on_c, 12, 79, 84
15, 27600, Note_on_c, 12, 70, 84
15, 27651, Note_on_c, 12, 79, 0
15, 27651, Note_on_c, 12, 70, 0
15, 27660, Note_on_c, 12, 79, 84
15, 27660, Note_on_c, 12, 70, 84
15, 27711, Note_on_c, 12, 79, 0
15, 27711, Note_on_c, 12, 70, 0
15, 27720, Note_on_c, 12, 79, 84
15, 27720, Note_on_c, 12, 70, 84
15, 27771, Note_on_c, 12, 79, 0
15, 27771, Note_on_c, 12, 70, 0
15, 27780, Note_on_c, 12, 70, 84
15, 27780, Note_on_c, 12, 79, 84
15, 27831, Note_on_c, 12, 70, 0
15, 27831, Note_on_c, 12, 79, 0
15, 27840, Note_on_c, 12, 70, 84
15, 27840, Note_on_c, 12, 79, 84
15, 27891, Note_on_c, 12, 70, 0
15, 27891, Note_on_c, 12, 79, 0
15, 27900, Note_on_c, 12, 79, 84
15, 27900, Note_on_c, 12, 70, 84
15, 27951, Note_on_c, 12, 79, 0
15, 27951, Note_on_c, 12, 70, 0
15, 27960, Note_on_c, 12, 79, 84
15, 27960, Note_on_c, 12, 70, 84
15, 28011, Note_on_c, 12, 79, 0
15, 28011, Note_on_c, 12, 70, 0
15, 28020, Note_on_c, 12, 70, 84
15, 28020, Note_on_c, 12, 79, 84
15, 28071, Note_on_c, 12, 70, 0
15, 28071, Note_on_c, 12, 79, 0
15, 28080, Note_on_c, 12, 70, 84
15, 28080, Note_on_c, 12, 79, 84
15, 28131, Note_on_c, 12, 70, 0
15, 28131, Note_on_c, 12, 79, 0
15, 28140, Note_on_c, 12, 70, 84
15, 28140, Note_on_c, 12, 79, 84
15, 28191, Note_on_c, 12, 70, 0
15, 28191, Note_on_c, 12, 79, 0
15, 28200, Note_on_c, 12, 70, 84
15, 28200, Note_on_c, 12, 79, 84
15, 28251, Note_on_c, 12, 70, 0
15, 28251, Note_on_c, 12, 79, 0
15, 28260, Note_on_c, 12, 79, 84
15, 28260, Note_on_c, 12, 70, 84
15, 28311, Note_on_c, 12, 79, 0
15, 28311, Note_on_c, 12, 70, 0
15, 28320, Note_on_c, 12, 79, 84
15, 28320, Note_on_c, 12, 70, 84
15, 28371, Note_on_c, 12, 79, 0
15, 28371, Note_on_c, 12, 70, 0
15, 28380, Note_on_c, 12, 79, 84
15, 28380, Note_on_c, 12, 70, 84
15, 28431, Note_on_c, 12, 79, 0
15, 28431, Note_on_c, 12, 70, 0
15, 28440, Note_on_c, 12, 79, 84
15, 28440, Note_on_c, 12, 70, 84
15, 28491, Note_on_c, 12, 79, 0
15, 28491, Note_on_c, 12, 70, 0
15, 28500, Note_on_c, 12, 70, 84
15, 28500, Note_on_c, 12, 79, 84
15, 28551, Note_on_c, 12, 70, 0
15, 28551, Note_on_c, 12, 79, 0
15, 28560, Note_on_c, 12, 71, 92
15, 28560, Note_on_c, 12, 79, 92
15, 28611, Note_on_c, 12, 71, 0
15, 28611, Note_on_c, 12, 79, 0
15, 28620, Note_on_c, 12, 71, 84
15, 28620, Note_on_c, 12, 79, 84
15, 28671, Note_on_c, 12, 71, 0
15, 28671, Note_on_c, 12, 79, 0
15, 28680, Note_on_c, 12, 79, 84
15, 28680, Note_on_c, 12, 71, 84
15, 28731, Note_on_c, 12, 79, 0
15, 28731, Note_on_c, 12, 71, 0
15, 28740, Note_on_c, 12, 79, 84
15, 28740, Note_on_c, 12, 71, 84
15, 28791, Note_on_c, 12, 79, 0
15, 28791, Note_on_c, 12, 71, 0
15, 28800, Note_on_c, 12, 79, 84
15, 28800, Note_on_c, 12, 72, 84
15, 28851, Note_on_c, 12, 79, 0
15, 28851, Note_on_c, 12, 72, 0
15, 28860, Note_on_c, 12, 79, 84
15, 28860, Note_on_c, 12, 72, 84
15, 28911, Note_on_c, 12, 79, 0
15, 28911, Note_on_c, 12, 72, 0
15, 28920, Note_on_c, 12, 79, 84
15, 28920, Note_on_c, 12, 72, 84
15, 28971, Note_on_c, 12, 79, 0
15, 28971, Note_on_c, 12, 72, 0
15, 28980, Note_on_c, 12, 72, 84
15, 28980, Note_on_c, 12, 79, 84
15, 29031, Note_on_c, 12, 72, 0
15, 29031, Note_on_c, 12, 79, 0
15, 29040, Note_on_c, 12, 72, 84
15, 29040, Note_on_c, 12, 79, 84
15, 29091, Note_on_c, 12, 72, 0
15, 29091, Note_on_c, 12, 79, 0
15, 29100, Note_on_c, 12, 79, 84
15, 29100, Note_on_c, 12, 72, 84
15, 29151, Note_on_c, 12, 79, 0
15, 29151, Note_on_c, 12, 72, 0
15, 29160, Note_on_c, 12, 79, 84
15, 29160, Note_on_c, 12, 72, 84
15, 29211, Note_on_c, 12, 79, 0
15, 29211, Note_on_c, 12, 72, 0
15, 29220, Note_on_c, 12, 79, 84
15, 29220, Note_on_c, 12, 72, 84
15, 29271, Note_on_c, 12, 79, 0
15, 29271, Note_on_c, 12, 72, 0
15, 29280, Note_on_c, 12, 79, 84
15, 29280, Note_on_c, 12, 72, 84
15, 29331, Note_on_c, 12, 79, 0
15, 29331, Note_on_c, 12, 72, 0
15, 29340, Note_on_c, 12, 79, 84
15, 29340, Note_on_c, 12, 72, 84
15, 29391, Note_on_c, 12, 79, 0
15, 29391, Note_on_c, 12, 72, 0
15, 29400, Note_on_c, 12, 72, 84
15, 29400, Note_on_c, 12, 79, 84
15, 29451, Note_on_c, 12, 72, 0
15, 29451, Note_on_c, 12, 79, 0
15, 29460, Note_on_c, 12, 72, 84
15, 29460, Note_on_c, 12, 79, 84
15, 29511, Note_on_c, 12, 72, 0
15, 29511, Note_on_c, 12, 79, 0
15, 29520, Note_on_c, 12, 72, 84
15, 29520, Note_on_c, 12, 79, 84
15, 29571, Note_on_c, 12, 72, 0
15, 29571, Note_on_c, 12, 79, 0
15, 29580, Note_on_c, 12, 79, 84
15, 29580, Note_on_c, 12, 72, 84
15, 29631, Note_on_c, 12, 79, 0
15, 29631, Note_on_c, 12, 72, 0
15, 29640, Note_on_c, 12, 72, 84
15, 29640, Note_on_c, 12, 79, 84
15, 29691, Note_on_c, 12, 72, 0
15, 29691, Note_on_c, 12, 79, 0
15, 29700, Note_on_c, 12, 79, 84
15, 29700, Note_on_c, 12, 72, 84
15, 29751, Note_on_c, 12, 79, 0
15, 29751, Note_on_c, 12, 72, 0
15, 29760, Note_on_c, 12, 72, 84
15, 29760, Note_on_c, 12, 79, 84
15, 29811, Note_on_c, 12, 72, 0
15, 29811, Note_on_c, 12, 79, 0
15, 29820, Note_on_c, 12, 79, 84
15, 29820, Note_on_c, 12, 72, 84
15, 29871, Note_on_c, 12, 79, 0
15, 29871, Note_on_c, 12, 72, 0
15, 29880, Note_on_c, 12, 79, 84
15, 29880, Note_on_c, 12, 72, 84
15, 29931, Note_on_c, 12, 79, 0
15, 29931, Note_on_c, 12, 72, 0
15, 29940, Note_on_c, 12, 72, 84
15, 29940, Note_on_c, 12, 79, 84
15, 29991, Note_on_c, 12, 72, 0
15, 29991, Note_on_c, 12, 79, 0
15, 30000, Note_on_c, 12, 70, 92
15, 30000, Note_on_c, 12, 79, 92
15, 30051, Note_on_c, 12, 70, 0
15, 30051, Note_on_c, 12, 79, 0
15, 30060, Note_on_c, 12, 79, 84
15, 30060, Note_on_c, 12, 70, 84
15, 30111, Note_on_c, 12, 79, 0
15, 30111, Note_on_c, 12, 70, 0
15, 30120, Note_on_c, 12, 79, 84
15, 30120, Note_on_c, 12, 70, 84
15, 30171, Note_on_c, 12, 79, 0
15, 30171, Note_on_c, 12, 70, 0
15, 30180, Note_on_c, 12, 79, 84
15, 30180, Note_on_c, 12, 70, 84
15, 30231, Note_on_c, 12, 79, 0
15, 30231, Note_on_c, 12, 70, 0
15, 30240, Note_on_c, 12, 72, 84
15, 30240, Note_on_c, 12, 80, 84
15, 30291, Note_on_c, 12, 72, 0
15, 30291, Note_on_c, 12, 80, 0
15, 30300, Note_on_c, 12, 72, 84
15, 30351, Note_on_c, 12, 72, 0
15, 30360, Note_on_c, 12, 72, 84
15, 30411, Note_on_c, 12, 72, 0
15, 30420, Note_on_c, 12, 72, 84
15, 30471, Note_on_c, 12, 72, 0
15, 30480, Note_on_c, 12, 72, 84
15, 30531, Note_on_c, 12, 72, 0
15, 30540, Note_on_c, 12, 72, 84
15, 30591, Note_on_c, 12, 72, 0
15, 30600, Note_on_c, 12, 72, 84
15, 30651, Note_on_c, 12, 72, 0
15, 30660, Note_on_c, 12, 72, 84
15, 30711, Note_on_c, 12, 72, 0
15, 30720, Note_on_c, 12, 72, 84
15, 30771, Note_on_c, 12, 72, 0
15, 30780, Note_on_c, 12, 72, 84
15, 30831, Note_on_c, 12, 72, 0
15, 30840, Note_on_c, 12, 72, 84
15, 30891, Note_on_c, 12, 72, 0
15, 30900, Note_on_c, 12, 72, 84
15, 30951, Note_on_c, 12, 72, 0
15, 30960, Note_on_c, 12, 72, 84
15, 31011, Note_on_c, 12, 72, 0
15, 31020, Note_on_c, 12, 72, 84
15, 31071, Note_on_c, 12, 72, 0
15, 31080, Note_on_c, 12, 70, 84
15, 31131, Note_on_c, 12, 70, 0
15, 31140, Note_on_c, 12, 70, 84
15, 31191, Note_on_c, 12, 70, 0
15, 31200, Note_on_c, 12, 69, 84
15, 31251, Note_on_c, 12, 69, 0
15, 31260, Note_on_c, 12, 69, 84
15, 31311, Note_on_c, 12, 69, 0
15, 31320, Note_on_c, 12, 70, 84
15, 31371, Note_on_c, 12, 70, 0
15, 31380, Note_on_c, 12, 70, 84
15, 31431, Note_on_c, 12, 70, 0
15, 31440, Note_on_c, 12, 72, 84
15, 31491, Note_on_c, 12, 72, 0
15, 31500, Note_on_c, 12, 72, 84
15, 31551, Note_on_c, 12, 72, 0
15, 31560, Note_on_c, 12, 70, 84
15, 31611, Note_on_c, 12, 70, 0
15, 31620, Note_on_c, 12, 70, 84
15, 31671, Note_on_c, 12, 70, 0
15, 31680, Note_on_c, 12, 69, 84
15, 31769, Note_on_c, 12, 69, 0
15, 31800, Note_on_c, 12, 57, 52
15, 31889, Note_on_c, 12, 57, 0
15, 31920, Note_on_c, 12, 60, 52
15, 32039, Note_on_c, 12, 60, 0
15, 32040, Note_on_c, 12, 57, 52
15, 32159, Note_on_c, 12, 57, 0
15, 32160, Note_on_c, 12, 60, 52
15, 32279, Note_on_c, 12, 60, 0
15, 32280, Note_on_c, 12, 57, 52
15, 32384, Note_on_c, 12, 57, 0
15, 32400, Note_on_c, 12, 60, 52
15, 32519, Note_on_c, 12, 60, 0
15, 32520, Note_on_c, 12, 57, 52
15, 32639, Note_on_c, 12, 57, 0
15, 32640, Note_on_c, 12, 60, 52
15, 32759, Note_on_c, 12, 60, 0
15, 32760, Note_on_c, 12, 57, 52
15, 32879, Note_on_c, 12, 57, 0
15, 32880, Note_on_c, 12, 60, 52
15, 32999, Note_on_c, 12, 60, 0
15, 33000, Note_on_c, 12, 57, 52
15, 33104, Note_on_c, 12, 57, 0
15, 33120, Note_on_c, 12, 60, 52
15, 33239, Note_on_c, 12, 60, 0
15, 33240, Note_on_c, 12, 57, 52
15, 33359, Note_on_c, 12, 57, 0
15, 33360, Note_on_c, 12, 60, 52
15, 33479, Note_on_c, 12, 60, 0
15, 33480, Note_on_c, 12, 57, 52
15, 33599, Note_on_c, 12, 57, 0
15, 33600, Note_on_c, 12, 60, 52
15, 33719, Note_on_c, 12, 60, 0
15, 33720, Note_on_c, 12, 57, 52
15, 33824, Note_on_c, 12, 57, 0
15, 33840, Note_on_c, 12, 60, 52
15, 33959, Note_on_c, 12, 60, 0
15, 33960, Note_on_c, 12, 57, 52
15, 34079, Note_on_c, 12, 57, 0
15, 34080, Note_on_c, 12, 60, 52
15, 34199, Note_on_c, 12, 60, 0
15, 34200, Note_on_c, 12, 57, 52
15, 34319, Note_on_c, 12, 57, 0
15, 34320, Note_on_c, 12, 60, 52
15, 34439, Note_on_c, 12, 60, 0
15, 34440, Note_on_c, 12, 57, 52
15, 34544, Note_on_c, 12, 57, 0
15, 34560, Note_on_c, 12, 62, 52
15, 34679, Note_on_c, 12, 62, 0
15, 34680, Note_on_c, 12, 58, 52
15, 34799, Note_on_c, 12, 58, 0
15, 34800, Note_on_c, 12, 62, 52
15, 34919, Note_on_c, 12, 62, 0
15, 34920, Note_on_c, 12, 58, 52
15, 35039, Note_on_c, 12, 58, 0
15, 35040, Note_on_c, 12, 62, 52
15, 35159, Note_on_c, 12, 62, 0
15, 35160, Note_on_c, 12, 58, 52
15, 35264, Note_on_c, 12, 58, 0
15, 35280, Note_on_c, 12, 62, 52
15, 35399, Note_on_c, 12, 62, 0
15, 35400, Note_on_c, 12, 58, 52
15, 35519, Note_on_c, 12, 58, 0
15, 35520, Note_on_c, 12, 62, 52
15, 35639, Note_on_c, 12, 62, 0
15, 35640, Note_on_c, 12, 58, 52
15, 35759, Note_on_c, 12, 58, 0
15, 35760, Note_on_c, 12, 62, 52
15, 35879, Note_on_c, 12, 62, 0
15, 35880, Note_on_c, 12, 58, 52
15, 35984, Note_on_c, 12, 58, 0
15, 36000, Note_on_c, 12, 62, 52
15, 36119, Note_on_c, 12, 62, 0
15, 36120, Note_on_c, 12, 58, 52
15, 36239, Note_on_c, 12, 58, 0
15, 36240, Note_on_c, 12, 62, 52
15, 36359, Note_on_c, 12, 62, 0
15, 36360, Note_on_c, 12, 58, 52
15, 36479, Note_on_c, 12, 58, 0
15, 36480, Note_on_c, 12, 62, 52
15, 36599, Note_on_c, 12, 62, 0
15, 36600, Note_on_c, 12, 58, 52
15, 36704, Note_on_c, 12, 58, 0
15, 36720, Note_on_c, 12, 62, 52
15, 36839, Note_on_c, 12, 62, 0
15, 36840, Note_on_c, 12, 58, 52
15, 36959, Note_on_c, 12, 58, 0
15, 36960, Note_on_c, 12, 62, 52
15, 37079, Note_on_c, 12, 62, 0
15, 37080, Note_on_c, 12, 58, 52
15, 37199, Note_on_c, 12, 58, 0
15, 37200, Note_on_c, 12, 62, 52
15, 37319, Note_on_c, 12, 62, 0
15, 37320, Note_on_c, 12, 58, 52
15, 37424, Note_on_c, 12, 58, 0
15, 37440, Note_on_c, 12, 63, 52
15, 37529, Note_on_c, 12, 63, 0
15, 37560, Note_on_c, 12, 57, 52
15, 37679, Note_on_c, 12, 57, 0
15, 37680, Note_on_c, 12, 60, 52
15, 37799, Note_on_c, 12, 60, 0
15, 37800, Note_on_c, 12, 57, 52
15, 37919, Note_on_c, 12, 57, 0
15, 37920, Note_on_c, 12, 60, 52
15, 38039, Note_on_c, 12, 60, 0
15, 38040, Note_on_c, 12, 57, 52
15, 38144, Note_on_c, 12, 57, 0
15, 38160, Note_on_c, 12, 60, 52
15, 38279, Note_on_c, 12, 60, 0
15, 38280, Note_on_c, 12, 57, 52
15, 38399, Note_on_c, 12, 57, 0
15, 38400, Note_on_c, 12, 60, 52
15, 38519, Note_on_c, 12, 60, 0
15, 38520, Note_on_c, 12, 57, 52
15, 38639, Note_on_c, 12, 57, 0
15, 38640, Note_on_c, 12, 60, 52
15, 38759, Note_on_c, 12, 60, 0
15, 38760, Note_on_c, 12, 57, 52
15, 38864, Note_on_c, 12, 57, 0
15, 38880, Note_on_c, 12, 60, 52
15, 39104, Note_on_c, 12, 60, 0
15, 39120, Note_on_c, 12, 67, 84
15, 39464, Note_on_c, 12, 67, 0
15, 39480, Note_on_c, 12, 65, 84
15, 39584, Note_on_c, 12, 65, 0
15, 39600, Note_on_c, 12, 63, 84
15, 39779, Note_on_c, 12, 63, 0
15, 39840, Note_on_c, 12, 62, 84
15, 40019, Note_on_c, 12, 62, 0
15, 40080, Note_on_c, 12, 60, 84
15, 40259, Note_on_c, 12, 60, 0
15, 40305, Control_c, 12, 11, 96
15, 40320, Control_c, 12, 11, 96
15, 40320, Note_on_c, 12, 58, 68
15, 40380, Control_c, 12, 11, 99
15, 40440, Control_c, 12, 11, 101
15, 40500, Control_c, 12, 11, 104
15, 40560, Control_c, 12, 11, 106
15, 40620, Control_c, 12, 11, 109
15, 40680, Control_c, 12, 11, 112
15, 40740, Control_c, 12, 11, 114
15, 40800, Control_c, 12, 11, 117
15, 40860, Control_c, 12, 11, 119
15, 40920, Control_c, 12, 11, 122
15, 40980, Control_c, 12, 11, 124
15, 41039, Note_on_c, 12, 58, 0
15, 41040, Control_c, 12, 11, 127
15, 41040, Note_on_c, 12, 58, 68
15, 41100, Control_c, 12, 11, 124
15, 41160, Control_c, 12, 11, 122
15, 41220, Control_c, 12, 11, 119
15, 41280, Control_c, 12, 11, 117
15, 41340, Control_c, 12, 11, 114
15, 41400, Control_c, 12, 11, 112
15, 41460, Control_c, 12, 11, 109
15, 41520, Control_c, 12, 11, 106
15, 41580, Control_c, 12, 11, 104
15, 41640, Control_c, 12, 11, 101
15, 41700, Control_c, 12, 11, 96
15, 41999, Note_on_c, 12, 58, 0
15, 42000, Note_on_c, 12, 65, 68
15, 42224, Note_on_c, 12, 65, 0
15, 42240, Note_on_c, 12, 65, 68
15, 42449, Note_on_c, 12, 65, 0
15, 42480, Note_on_c, 12, 65, 68
15, 42689, Note_on_c, 12, 65, 0
15, 42720, Note_on_c, 12, 65, 68
15, 42929, Note_on_c, 12, 65, 0
15, 42960, Note_on_c, 12, 65, 68
15, 43169, Note_on_c, 12, 65, 0
15, 43185, Control_c, 12, 11, 80
15, 43200, Note_on_c, 12, 65, 76
15, 43200, Control_c, 12, 11, 80
15, 43289, Note_on_c, 12, 65, 0
15, 43320, Note_on_c, 12, 70, 76
15, 43320, Control_c, 12, 11, 82
15, 43439, Note_on_c, 12, 70, 0
15, 43440, Note_on_c, 12, 69, 76
15, 43440, Control_c, 12, 11, 84
15, 43559, Note_on_c, 12, 69, 0
15, 43560, Control_c, 12, 11, 86
15, 43560, Note_on_c, 12, 70, 76
15, 43679, Note_on_c, 12, 70, 0
15, 43680, Note_on_c, 12, 72, 76
15, 43680, Control_c, 12, 11, 88
15, 43799, Note_on_c, 12, 72, 0
15, 43800, Note_on_c, 12, 74, 76
15, 43800, Control_c, 12, 11, 90
15, 43904, Note_on_c, 12, 74, 0
15, 43920, Control_c, 12, 11, 92
15, 43920, Note_on_c, 12, 75, 76
15, 44039, Note_on_c, 12, 75, 0
15, 44040, Control_c, 12, 11, 94
15, 44040, Note_on_c, 12, 77, 76
15, 44144, Note_on_c, 12, 77, 0
15, 44160, Note_on_c, 12, 79, 76
15, 44160, Control_c, 12, 11, 96
15, 44249, Note_on_c, 12, 79, 0
15, 44280, Note_on_c, 12, 70, 76
15, 44280, Control_c, 12, 11, 98
15, 44369, Note_on_c, 12, 70, 0
15, 44400, Note_on_c, 12, 69, 76
15, 44400, Control_c, 12, 11, 100
15, 44489, Note_on_c, 12, 69, 0
15, 44520, Control_c, 12, 11, 102
15, 44520, Note_on_c, 12, 67, 76
15, 44609, Note_on_c, 12, 67, 0
15, 44640, Note_on_c, 12, 65, 76
15, 44640, Control_c, 12, 11, 104
15, 44729, Note_on_c, 12, 65, 0
15, 44760, Note_on_c, 12, 70, 76
15, 44760, Control_c, 12, 11, 105
15, 44849, Note_on_c, 12, 70, 0
15, 44880, Note_on_c, 12, 69, 76
15, 44880, Control_c, 12, 11, 107
15, 44969, Note_on_c, 12, 69, 0
15, 45000, Note_on_c, 12, 70, 76
15, 45000, Control_c, 12, 11, 109
15, 45089, Note_on_c, 12, 70, 0
15, 45120, Note_on_c, 12, 72, 76
15, 45120, Control_c, 12, 11, 111
15, 45209, Note_on_c, 12, 72, 0
15, 45240, Control_c, 12, 11, 113
15, 45240, Note_on_c, 12, 74, 76
15, 45329, Note_on_c, 12, 74, 0
15, 45360, Note_on_c, 12, 75, 76
15, 45360, Control_c, 12, 11, 115
15, 45449, Note_on_c, 12, 75, 0
15, 45480, Control_c, 12, 11, 117
15, 45480, Note_on_c, 12, 75, 76
15, 45569, Note_on_c, 12, 75, 0
15, 45600, Control_c, 12, 11, 119
15, 45600, Note_on_c, 12, 75, 76
15, 45689, Note_on_c, 12, 75, 0
15, 45720, Note_on_c, 12, 75, 76
15, 45720, Control_c, 12, 11, 121
15, 45809, Note_on_c, 12, 75, 0
15, 45840, Note_on_c, 12, 75, 76
15, 45840, Control_c, 12, 11, 123
15, 45929, Note_on_c, 12, 75, 0
15, 45960, Control_c, 12, 11, 127
15, 45960, Note_on_c, 12, 75, 76
15, 46049, Note_on_c, 12, 75, 0
15, 46080, Note_on_c, 12, 75, 76
15, 46259, Note_on_c, 12, 75, 0
15, 46320, Note_on_c, 12, 69, 76
15, 46499, Note_on_c, 12, 69, 0
15, 46920, Note_on_c, 12, 63, 76
15, 46979, Note_on_c, 12, 63, 0
15, 46980, Note_on_c, 12, 65, 76
15, 47031, Note_on_c, 12, 65, 0
15, 47040, Note_on_c, 12, 63, 76
15, 47129, Note_on_c, 12, 63, 0
15, 47160, Note_on_c, 12, 60, 76
15, 47219, Note_on_c, 12, 60, 0
15, 47220, Note_on_c, 12, 62, 76
15, 47271, Note_on_c, 12, 62, 0
15, 47280, Note_on_c, 12, 60, 76
15, 47369, Note_on_c, 12, 60, 0
15, 47400, Note_on_c, 12, 69, 76
15, 47489, Note_on_c, 12, 69, 0
15, 47520, Note_on_c, 12, 70, 76
15, 47699, Note_on_c, 12, 70, 0
15, 47760, Note_on_c, 12, 62, 76
15, 47760, Note_on_c, 12, 70, 76
15, 47939, Note_on_c, 12, 62, 0
15, 47939, Note_on_c, 12, 70, 0
15, 48360, Note_on_c, 12, 62, 76
15, 48419, Note_on_c, 12, 62, 0
15, 48420, Note_on_c, 12, 63, 76
15, 48471, Note_on_c, 12, 63, 0
15, 48480, Note_on_c, 12, 62, 76
15, 48569, Note_on_c, 12, 62, 0
15, 48600, Note_on_c, 12, 58, 76
15, 48659, Note_on_c, 12, 58, 0
15, 48660, Note_on_c, 12, 60, 76
15, 48711, Note_on_c, 12, 60, 0
15, 48720, Note_on_c, 12, 58, 76
15, 48809, Note_on_c, 12, 58, 0
15, 48840, Note_on_c, 12, 70, 76
15, 48929, Note_on_c, 12, 70, 0
15, 48960, Note_on_c, 12, 71, 76
15, 49139, Note_on_c, 12, 71, 0
15, 49200, Note_on_c, 12, 71, 76
15, 49200, Note_on_c, 12, 80, 76
15, 49379, Note_on_c, 12, 71, 0
15, 49379, Note_on_c, 12, 80, 0
15, 49800, Note_on_c, 12, 74, 76
15, 49859, Note_on_c, 12, 74, 0
15, 49860, Note_on_c, 12, 75, 76
15, 49911, Note_on_c, 12, 75, 0
15, 49920, Note_on_c, 12, 74, 76
15, 50009, Note_on_c, 12, 74, 0
15, 50040, Note_on_c, 12, 62, 76
15, 50099, Note_on_c, 12, 62, 0
15, 50100, Note_on_c, 12, 63, 76
15, 50151, Note_on_c, 12, 63, 0
15, 50160, Note_on_c, 12, 62, 76
15, 50249, Note_on_c, 12, 62, 0
15, 50280, Note_on_c, 12, 62, 76
15, 50280, Note_on_c, 12, 71, 76
15, 50369, Note_on_c, 12, 62, 0
15, 50369, Note_on_c, 12, 71, 0
15, 50400, Note_on_c, 12, 63, 76
15, 50400, Note_on_c, 12, 72, 76
15, 50489, Note_on_c, 12, 63, 0
15, 50489, Note_on_c, 12, 72, 0
15, 50520, Note_on_c, 12, 67, 76
15, 50744, Note_on_c, 12, 67, 0
15, 50760, Note_on_c, 12, 72, 76
15, 50849, Note_on_c, 12, 72, 0
15, 50880, Note_on_c, 12, 72, 76
15, 50969, Note_on_c, 12, 72, 0
15, 51000, Note_on_c, 12, 74, 76
15, 51089, Note_on_c, 12, 74, 0
15, 51120, Note_on_c, 12, 74, 76
15, 51209, Note_on_c, 12, 74, 0
15, 51240, Note_on_c, 12, 75, 76
15, 51464, Note_on_c, 12, 75, 0
15, 51480, Note_on_c, 12, 75, 76
15, 51569, Note_on_c, 12, 75, 0
15, 51600, Note_on_c, 12, 75, 76
15, 51689, Note_on_c, 12, 75, 0
15, 51720, Note_on_c, 12, 77, 76
15, 51809, Note_on_c, 12, 77, 0
15, 51840, Note_on_c, 12, 77, 76
15, 51929, Note_on_c, 12, 77, 0
15, 51960, Note_on_c, 12, 70, 76
15, 52049, Note_on_c, 12, 70, 0
15, 52080, Note_on_c, 12, 82, 76
15, 52169, Note_on_c, 12, 82, 0
15, 52200, Note_on_c, 12, 70, 76
15, 52289, Note_on_c, 12, 70, 0
15, 52320, Note_on_c, 12, 82, 76
15, 52409, Note_on_c, 12, 82, 0
15, 52440, Note_on_c, 12, 70, 76
15, 52529, Note_on_c, 12, 70, 0
15, 52560, Note_on_c, 12, 82, 76
15, 52649, Note_on_c, 12, 82, 0
15, 52680, Note_on_c, 12, 70, 76
15, 52769, Note_on_c, 12, 70, 0
15, 52800, Note_on_c, 12, 82, 76
15, 52889, Note_on_c, 12, 82, 0
15, 52920, Note_on_c, 12, 70, 76
15, 53009, Note_on_c, 12, 70, 0
15, 53040, Note_on_c, 12, 82, 76
15, 53129, Note_on_c, 12, 82, 0
15, 53160, Note_on_c, 12, 70, 76
15, 53249, Note_on_c, 12, 70, 0
15, 53280, Note_on_c, 12, 82, 76
15, 53331, Note_on_c, 12, 82, 0
15, 53340, Note_on_c, 12, 70, 76
15, 53391, Note_on_c, 12, 70, 0
15, 53400, Note_on_c, 12, 70, 76
15, 53451, Note_on_c, 12, 70, 0
15, 53460, Note_on_c, 12, 70, 76
15, 53511, Note_on_c, 12, 70, 0
15, 53520, Note_on_c, 12, 70, 76
15, 53571, Note_on_c, 12, 70, 0
15, 53580, Note_on_c, 12, 70, 76
15, 53631, Note_on_c, 12, 70, 0
15, 53640, Note_on_c, 12, 70, 76
15, 53691, Note_on_c, 12, 70, 0
15, 53700, Note_on_c, 12, 70, 76
15, 53751, Note_on_c, 12, 70, 0
15, 53760, Note_on_c, 12, 71, 76
15, 53811, Note_on_c, 12, 71, 0
15, 53820, Note_on_c, 12, 71, 76
15, 53871, Note_on_c, 12, 71, 0
15, 53880, Note_on_c, 12, 71, 76
15, 53931, Note_on_c, 12, 71, 0
15, 53940, Note_on_c, 12, 71, 76
15, 53991, Note_on_c, 12, 71, 0
15, 54000, Note_on_c, 12, 72, 76
15, 54051, Note_on_c, 12, 72, 0
15, 54060, Note_on_c, 12, 72, 76
15, 54111, Note_on_c, 12, 72, 0
15, 54120, Note_on_c, 12, 74, 76
15, 54171, Note_on_c, 12, 74, 0
15, 54180, Note_on_c, 12, 74, 76
15, 54231, Note_on_c, 12, 74, 0
15, 54240, Note_on_c, 12, 77, 76
15, 54291, Note_on_c, 12, 77, 0
15, 54300, Note_on_c, 12, 77, 76
15, 54351, Note_on_c, 12, 77, 0
15, 54360, Note_on_c, 12, 75, 76
15, 54411, Note_on_c, 12, 75, 0
15, 54420, Note_on_c, 12, 75, 76
15, 54471, Note_on_c, 12, 75, 0
15, 54480, Note_on_c, 12, 74, 76
15, 54531, Note_on_c, 12, 74, 0
15, 54540, Note_on_c, 12, 74, 76
15, 54591, Note_on_c, 12, 74, 0
15, 54600, Note_on_c, 12, 72, 76
15, 54651, Note_on_c, 12, 72, 0
15, 54660, Note_on_c, 12, 72, 76
15, 54711, Note_on_c, 12, 72, 0
15, 54720, Note_on_c, 12, 70, 76
15, 54771, Note_on_c, 12, 70, 0
15, 54780, Note_on_c, 12, 70, 76
15, 54831, Note_on_c, 12, 70, 0
15, 54840, Note_on_c, 12, 65, 76
15, 54891, Note_on_c, 12, 65, 0
15, 54900, Note_on_c, 12, 65, 76
15, 54951, Note_on_c, 12, 65, 0
15, 54960, Note_on_c, 12, 67, 76
15, 55011, Note_on_c, 12, 67, 0
15, 55020, Note_on_c, 12, 67, 76
15, 55071, Note_on_c, 12, 67, 0
15, 55080, Note_on_c, 12, 69, 76
15, 55131, Note_on_c, 12, 69, 0
15, 55140, Note_on_c, 12, 69, 76
15, 55191, Note_on_c, 12, 69, 0
15, 55200, Note_on_c, 12, 70, 76
15, 55251, Note_on_c, 12, 70, 0
15, 55260, Note_on_c, 12, 70, 76
15, 55311, Note_on_c, 12, 70, 0
15, 55320, Note_on_c, 12, 72, 76
15, 55371, Note_on_c, 12, 72, 0
15, 55380, Note_on_c, 12, 72, 76
15, 55431, Note_on_c, 12, 72, 0
15, 55440, Note_on_c, 12, 74, 76
15, 55491, Note_on_c, 12, 74, 0
15, 55500, Note_on_c, 12, 74, 76
15, 55551, Note_on_c, 12, 74, 0
15, 55560, Note_on_c, 12, 75, 76
15, 55611, Note_on_c, 12, 75, 0
15, 55620, Note_on_c, 12, 75, 76
15, 55671, Note_on_c, 12, 75, 0
15, 55680, Note_on_c, 12, 76, 76
15, 55731, Note_on_c, 12, 76, 0
15, 55740, Note_on_c, 12, 76, 76
15, 55791, Note_on_c, 12, 76, 0
15, 55800, Note_on_c, 12, 77, 76
15, 55851, Note_on_c, 12, 77, 0
15, 55860, Note_on_c, 12, 77, 76
15, 55911, Note_on_c, 12, 77, 0
15, 55920, Note_on_c, 12, 75, 76
15, 55971, Note_on_c, 12, 75, 0
15, 55980, Note_on_c, 12, 75, 76
15, 56031, Note_on_c, 12, 75, 0
15, 56040, Note_on_c, 12, 74, 76
15, 56091, Note_on_c, 12, 74, 0
15, 56100, Note_on_c, 12, 74, 76
15, 56151, Note_on_c, 12, 74, 0
15, 56160, Note_on_c, 12, 72, 76
15, 56211, Note_on_c, 12, 72, 0
15, 56220, Note_on_c, 12, 72, 76
15, 56271, Note_on_c, 12, 72, 0
15, 56280, Note_on_c, 12, 74, 76
15, 56331, Note_on_c, 12, 74, 0
15, 56340, Note_on_c, 12, 74, 76
15, 56391, Note_on_c, 12, 74, 0
15, 56400, Note_on_c, 12, 75, 76
15, 56451, Note_on_c, 12, 75, 0
15, 56460, Note_on_c, 12, 75, 76
15, 56511, Note_on_c, 12, 75, 0
15, 56520, Note_on_c, 12, 74, 76
15, 56571, Note_on_c, 12, 74, 0
15, 56580, Note_on_c, 12, 74, 76
15, 56631, Note_on_c, 12, 74, 0
15, 56640, Note_on_c, 12, 72, 76
15, 56691, Note_on_c, 12, 72, 0
15, 56700, Note_on_c, 12, 72, 76
15, 56751, Note_on_c, 12, 72, 0
15, 56760, Note_on_c, 12, 70, 76
15, 56811, Note_on_c, 12, 70, 0
15, 56820, Note_on_c, 12, 70, 76
15, 56871, Note_on_c, 12, 70, 0
15, 56880, Note_on_c, 12, 69, 76
15, 56931, Note_on_c, 12, 69, 0
15, 56940, Note_on_c, 12, 69, 76
15, 56991, Note_on_c, 12, 69, 0
15, 57000, Note_on_c, 12, 70, 76
15, 57051, Note_on_c, 12, 70, 0
15, 57060, Note_on_c, 12, 70, 76
15, 57111, Note_on_c, 12, 70, 0
15, 57120, Note_on_c, 12, 72, 76
15, 57171, Note_on_c, 12, 72, 0
15, 57180, Note_on_c, 12, 72, 76
15, 57231, Note_on_c, 12, 72, 0
15, 57240, Note_on_c, 12, 70, 76
15, 57291, Note_on_c, 12, 70, 0
15, 57300, Note_on_c, 12, 70, 76
15, 57351, Note_on_c, 12, 70, 0
15, 57360, Note_on_c, 12, 69, 76
15, 57411, Note_on_c, 12, 69, 0
15, 57420, Note_on_c, 12, 69, 76
15, 57471, Note_on_c, 12, 69, 0
15, 57480, Note_on_c, 12, 67, 76
15, 57531, Note_on_c, 12, 67, 0
15, 57540, Note_on_c, 12, 67, 76
15, 57591, Note_on_c, 12, 67, 0
15, 57600, Note_on_c, 12, 65, 84
15, 57651, Note_on_c, 12, 65, 0
15, 57660, Note_on_c, 12, 65, 84
15, 57711, Note_on_c, 12, 65, 0
15, 57720, Note_on_c, 12, 64, 84
15, 57771, Note_on_c, 12, 64, 0
15, 57780, Note_on_c, 12, 64, 84
15, 57831, Note_on_c, 12, 64, 0
15, 57840, Note_on_c, 12, 63, 84
15, 57891, Note_on_c, 12, 63, 0
15, 57900, Note_on_c, 12, 63, 84
15, 57951, Note_on_c, 12, 63, 0
15, 57960, Note_on_c, 12, 62, 84
15, 58011, Note_on_c, 12, 62, 0
15, 58020, Note_on_c, 12, 62, 84
15, 58071, Note_on_c, 12, 62, 0
15, 58080, Note_on_c, 12, 60, 84
15, 58131, Note_on_c, 12, 60, 0
15, 58140, Note_on_c, 12, 60, 84
15, 58191, Note_on_c, 12, 60, 0
15, 58200, Note_on_c, 12, 58, 84
15, 58251, Note_on_c, 12, 58, 0
15, 58260, Note_on_c, 12, 58, 84
15, 58311, Note_on_c, 12, 58, 0
15, 58320, Note_on_c, 12, 57, 84
15, 58371, Note_on_c, 12, 57, 0
15, 58380, Note_on_c, 12, 57, 84
15, 58431, Note_on_c, 12, 57, 0
15, 58440, Note_on_c, 12, 67, 84
15, 58491, Note_on_c, 12, 67, 0
15, 58500, Note_on_c, 12, 67, 84
15, 58551, Note_on_c, 12, 67, 0
15, 58560, Note_on_c, 12, 65, 84
15, 58611, Note_on_c, 12, 65, 0
15, 58620, Note_on_c, 12, 65, 84
15, 58671, Note_on_c, 12, 65, 0
15, 58680, Note_on_c, 12, 63, 84
15, 58731, Note_on_c, 12, 63, 0
15, 58740, Note_on_c, 12, 63, 84
15, 58791, Note_on_c, 12, 63, 0
15, 58800, Note_on_c, 12, 62, 84
15, 58851, Note_on_c, 12, 62, 0
15, 58860, Note_on_c, 12, 62, 84
15, 58911, Note_on_c, 12, 62, 0
15, 58920, Note_on_c, 12, 60, 84
15, 58971, Note_on_c, 12, 60, 0
15, 58980, Note_on_c, 12, 60, 84
15, 59031, Note_on_c, 12, 60, 0
15, 59040, Note_on_c, 12, 58, 84
15, 59279, Note_on_c, 12, 58, 0
15, 61920, Control_c, 12, 11, 96
15, 62160, Note_on_c, 12, 67, 68
15, 62369, Note_on_c, 12, 67, 0
15, 62400, Note_on_c, 12, 68, 68
15, 62609, Note_on_c, 12, 68, 0
15, 62640, Note_on_c, 12, 69, 68
15, 62640, Control_c, 12, 11, 96
15, 62700, Control_c, 12, 11, 99
15, 62760, Control_c, 12, 11, 101
15, 62820, Control_c, 12, 11, 104
15, 62849, Note_on_c, 12, 69, 0
15, 62880, Control_c, 12, 11, 106
15, 62880, Note_on_c, 12, 69, 68
15, 62940, Control_c, 12, 11, 109
15, 63000, Control_c, 12, 11, 112
15, 63060, Control_c, 12, 11, 114
15, 63089, Note_on_c, 12, 69, 0
15, 63120, Control_c, 12, 11, 117
15, 63120, Note_on_c, 12, 69, 68
15, 63180, Control_c, 12, 11, 119
15, 63240, Control_c, 12, 11, 122
15, 63300, Control_c, 12, 11, 127
15, 63329, Note_on_c, 12, 69, 0
15, 63360, Note_on_c, 12, 69, 68
15, 63584, Note_on_c, 12, 69, 0
15, 63600, Note_on_c, 12, 69, 76
15, 64049, Note_on_c, 12, 69, 0
15, 64080, Control_c, 12, 11, 127
15, 64080, Note_on_c, 12, 69, 76
15, 64140, Control_c, 12, 11, 124
15, 64200, Control_c, 12, 11, 122
15, 64260, Control_c, 12, 11, 119
15, 64320, Control_c, 12, 11, 117
15, 64380, Control_c, 12, 11, 114
15, 64440, Control_c, 12, 11, 112
15, 64500, Control_c, 12, 11, 109
15, 64559, Note_on_c, 12, 69, 0
15, 64560, Control_c, 12, 11, 106
15, 64560, Note_on_c, 12, 69, 68
15, 64620, Control_c, 12, 11, 104
15, 64679, Note_on_c, 12, 69, 0
15, 64680, Note_on_c, 12, 72, 68
15, 64680, Control_c, 12, 11, 101
15, 64740, Control_c, 12, 11, 96
15, 64799, Note_on_c, 12, 72, 0
15, 64800, Note_on_c, 12, 70, 68
15, 65039, Note_on_c, 12, 70, 0
15, 68640, Note_on_c, 12, 56, 68
15, 68849, Note_on_c, 12, 56, 0
15, 68880, Note_on_c, 12, 56, 68
15, 69089, Note_on_c, 12, 56, 0
15, 69120, Note_on_c, 12, 58, 68
15, 69120, Control_c, 12, 11, 96
15, 69160, Control_c, 12, 11, 99
15, 69200, Control_c, 12, 11, 101
15, 69240, Control_c, 12, 11, 104
15, 69280, Control_c, 12, 11, 106
15, 69320, Control_c, 12, 11, 109
15, 69360, Control_c, 12, 11, 112
15, 69400, Control_c, 12, 11, 114
15, 69440, Control_c, 12, 11, 117
15, 69480, Control_c, 12, 11, 119
15, 69520, Control_c, 12, 11, 122
15, 69560, Control_c, 12, 11, 124
15, 69600, Control_c, 12, 11, 127
15, 69640, Control_c, 12, 11, 122
15, 69680, Control_c, 12, 11, 117
15, 69720, Control_c, 12, 11, 112
15, 69760, Control_c, 12, 11, 106
15, 69800, Control_c, 12, 11, 101
15, 69839, Note_on_c, 12, 58, 0
15, 70560, Control_c, 12, 11, 127
15, 70800, Note_on_c, 12, 66, 44
15, 70979, Note_on_c, 12, 66, 0
15, 71040, Note_on_c, 12, 66, 44
15, 71219, Note_on_c, 12, 66, 0
15, 71520, Note_on_c, 12, 65, 44
15, 71699, Note_on_c, 12, 65, 0
15, 71760, Note_on_c, 12, 68, 44
15, 71939, Note_on_c, 12, 68, 0
15, 72240, Note_on_c, 12, 69, 44
15, 72419, Note_on_c, 12, 69, 0
15, 72480, Note_on_c, 12, 70, 44
15, 72659, Note_on_c, 12, 70, 0
15, 72720, Note_on_c, 12, 72, 44
15, 72899, Note_on_c, 12, 72, 0
15, 72960, Note_on_c, 12, 74, 44
15, 73139, Note_on_c, 12, 74, 0
15, 73200, Note_on_c, 12, 74, 44
15, 73379, Note_on_c, 12, 74, 0
15, 73440, Note_on_c, 12, 75, 44
15, 73529, Note_on_c, 12, 75, 0
15, 73560, Note_on_c, 12, 74, 44
15, 73649, Note_on_c, 12, 74, 0
15, 73680, Note_on_c, 12, 72, 44
15, 73769, Note_on_c, 12, 72, 0
15, 73800, Note_on_c, 12, 70, 44
15, 73889, Note_on_c, 12, 70, 0
15, 73920, Note_on_c, 12, 69, 44
15, 74009, Note_on_c, 12, 69, 0
15, 74040, Note_on_c, 12, 70, 44
15, 74129, Note_on_c, 12, 70, 0
15, 74160, Note_on_c, 12, 72, 44
15, 74249, Note_on_c, 12, 72, 0
15, 74280, Note_on_c, 12, 70, 44
15, 74369, Note_on_c, 12, 70, 0
15, 74400, Note_on_c, 12, 69, 44
15, 74489, Note_on_c, 12, 69, 0
15, 74520, Note_on_c, 12, 70, 44
15, 74609, Note_on_c, 12, 70, 0
15, 74640, Note_on_c, 12, 72, 44
15, 74729, Note_on_c, 12, 72, 0
15, 74760, Note_on_c, 12, 74, 44
15, 74849, Note_on_c, 12, 74, 0
15, 74880, Note_on_c, 12, 75, 44
15, 74969, Note_on_c, 12, 75, 0
15, 75000, Note_on_c, 12, 74, 45
15, 75089, Note_on_c, 12, 74, 0
15, 75120, Note_on_c, 12, 72, 46
15, 75209, Note_on_c, 12, 72, 0
15, 75240, Note_on_c, 12, 70, 48
15, 75329, Note_on_c, 12, 70, 0
15, 75360, Note_on_c, 12, 69, 49
15, 75449, Note_on_c, 12, 69, 0
15, 75480, Note_on_c, 12, 70, 50
15, 75569, Note_on_c, 12, 70, 0
15, 75600, Note_on_c, 12, 72, 52
15, 75689, Note_on_c, 12, 72, 0
15, 75720, Note_on_c, 12, 70, 53
15, 75809, Note_on_c, 12, 70, 0
15, 75840, Note_on_c, 12, 69, 54
15, 75929, Note_on_c, 12, 69, 0
15, 75960, Note_on_c, 12, 70, 56
15, 76049, Note_on_c, 12, 70, 0
15, 76080, Note_on_c, 12, 72, 57
15, 76169, Note_on_c, 12, 72, 0
15, 76200, Note_on_c, 12, 74, 58
15, 76289, Note_on_c, 12, 74, 0
15, 76320, Note_on_c, 12, 75, 60
15, 76409, Note_on_c, 12, 75, 0
15, 76440, Note_on_c, 12, 74, 61
15, 76529, Note_on_c, 12, 74, 0
15, 76560, Note_on_c, 12, 72, 62
15, 76649, Note_on_c, 12, 72, 0
15, 76680, Note_on_c, 12, 71, 64
15, 76769, Note_on_c, 12, 71, 0
15, 76800, Note_on_c, 12, 72, 65
15, 76889, Note_on_c, 12, 72, 0
15, 76920, Note_on_c, 12, 74, 66
15, 77009, Note_on_c, 12, 74, 0
15, 77040, Note_on_c, 12, 75, 68
15, 77129, Note_on_c, 12, 75, 0
15, 77160, Note_on_c, 12, 77, 69
15, 77249, Note_on_c, 12, 77, 0
15, 77280, Note_on_c, 12, 79, 70
15, 77369, Note_on_c, 12, 79, 0
15, 77400, Note_on_c, 12, 81, 72
15, 77489, Note_on_c, 12, 81, 0
15, 77520, Note_on_c, 12, 82, 73
15, 77609, Note_on_c, 12, 82, 0
15, 77640, Note_on_c, 12, 84, 74
15, 77729, Note_on_c, 12, 84, 0
15, 77760, Note_on_c, 12, 86, 76
15, 77939, Note_on_c, 12, 86, 0
15, 78000, Note_on_c, 12, 77, 76
15, 78179, Note_on_c, 12, 77, 0
15, 78240, Note_on_c, 12, 74, 76
15, 78419, Note_on_c, 12, 74, 0
15, 78480, Note_on_c, 12, 70, 76
15, 78659, Note_on_c, 12, 70, 0
15, 78720, Note_on_c, 12, 74, 84
15, 78899, Note_on_c, 12, 74, 0
15, 78960, Note_on_c, 12, 65, 76
15, 79139, Note_on_c, 12, 65, 0
15, 79200, Note_on_c, 12, 72, 76
15, 79379, Note_on_c, 12, 72, 0
15, 79440, Note_on_c, 12, 75, 84
15, 79619, Note_on_c, 12, 75, 0
15, 79680, Note_on_c, 12, 65, 76
15, 79859, Note_on_c, 12, 65, 0
15, 79920, Note_on_c, 12, 69, 76
15, 80099, Note_on_c, 12, 69, 0
15, 80160, Note_on_c, 12, 72, 84
15, 80339, Note_on_c, 12, 72, 0
15, 80400, Note_on_c, 12, 65, 76
15, 80579, Note_on_c, 12, 65, 0
15, 80640, Note_on_c, 12, 74, 84
15, 80744, Note_on_c, 12, 74, 0
15, 80760, Note_on_c, 12, 62, 84
15, 80811, Note_on_c, 12, 62, 0
15, 80820, Note_on_c, 12, 62, 84
15, 80871, Note_on_c, 12, 62, 0
15, 80880, Note_on_c, 12, 65, 84
15, 80931, Note_on_c, 12, 65, 0
15, 80940, Note_on_c, 12, 65, 84
15, 80991, Note_on_c, 12, 65, 0
15, 81000, Note_on_c, 12, 70, 84
15, 81051, Note_on_c, 12, 70, 0
15, 81060, Note_on_c, 12, 70, 84
15, 81111, Note_on_c, 12, 70, 0
15, 81120, Note_on_c, 12, 74, 84
15, 81171, Note_on_c, 12, 74, 0
15, 81180, Note_on_c, 12, 74, 84
15, 81231, Note_on_c, 12, 74, 0
15, 81240, Note_on_c, 12, 62, 84
15, 81291, Note_on_c, 12, 62, 0
15, 81300, Note_on_c, 12, 62, 84
15, 81359, Note_on_c, 12, 62, 0
15, 81480, Note_on_c, 12, 62, 84
15, 81531, Note_on_c, 12, 62, 0
15, 81540, Note_on_c, 12, 62, 84
15, 81591, Note_on_c, 12, 62, 0
15, 81600, Note_on_c, 12, 65, 84
15, 81651, Note_on_c, 12, 65, 0
15, 81660, Note_on_c, 12, 65, 84
15, 81711, Note_on_c, 12, 65, 0
15, 81720, Note_on_c, 12, 70, 84
15, 81771, Note_on_c, 12, 70, 0
15, 81780, Note_on_c, 12, 70, 84
15, 81831, Note_on_c, 12, 70, 0
15, 81840, Note_on_c, 12, 74, 84
15, 81891, Note_on_c, 12, 74, 0
15, 81900, Note_on_c, 12, 74, 84
15, 81951, Note_on_c, 12, 74, 0
15, 81960, Note_on_c, 12, 62, 84
15, 82011, Note_on_c, 12, 62, 0
15, 82020, Note_on_c, 12, 62, 84
15, 82079, Note_on_c, 12, 62, 0
15, 82200, Note_on_c, 12, 63, 84
15, 82251, Note_on_c, 12, 63, 0
15, 82260, Note_on_c, 12, 63, 84
15, 82311, Note_on_c, 12, 63, 0
15, 82320, Note_on_c, 12, 65, 84
15, 82371, Note_on_c, 12, 65, 0
15, 82380, Note_on_c, 12, 65, 84
15, 82431, Note_on_c, 12, 65, 0
15, 82440, Note_on_c, 12, 72, 84
15, 82491, Note_on_c, 12, 72, 0
15, 82500, Note_on_c, 12, 72, 84
15, 82551, Note_on_c, 12, 72, 0
15, 82560, Note_on_c, 12, 75, 84
15, 82611, Note_on_c, 12, 75, 0
15, 82620, Note_on_c, 12, 75, 84
15, 82671, Note_on_c, 12, 75, 0
15, 82680, Note_on_c, 12, 63, 84
15, 82731, Note_on_c, 12, 63, 0
15, 82740, Note_on_c, 12, 63, 84
15, 82799, Note_on_c, 12, 63, 0
15, 82920, Note_on_c, 12, 63, 84
15, 82971, Note_on_c, 12, 63, 0
15, 82980, Note_on_c, 12, 63, 84
15, 83031, Note_on_c, 12, 63, 0
15, 83040, Note_on_c, 12, 65, 84
15, 83091, Note_on_c, 12, 65, 0
15, 83100, Note_on_c, 12, 65, 84
15, 83151, Note_on_c, 12, 65, 0
15, 83160, Note_on_c, 12, 69, 84
15, 83211, Note_on_c, 12, 69, 0
15, 83220, Note_on_c, 12, 69, 84
15, 83271, Note_on_c, 12, 69, 0
15, 83280, Note_on_c, 12, 72, 84
15, 83331, Note_on_c, 12, 72, 0
15, 83340, Note_on_c, 12, 72, 84
15, 83391, Note_on_c, 12, 72, 0
15, 83400, Note_on_c, 12, 69, 84
15, 83451, Note_on_c, 12, 69, 0
15, 83460, Note_on_c, 12, 69, 84
15, 83511, Note_on_c, 12, 69, 0
15, 83520, Note_on_c, 12, 70, 84
15, 83571, Note_on_c, 12, 70, 0
15, 83580, Note_on_c, 12, 70, 84
15, 83631, Note_on_c, 12, 70, 0
15, 83640, Note_on_c, 12, 73, 84
15, 83691, Note_on_c, 12, 73, 0
15, 83700, Note_on_c, 12, 73, 84
15, 83751, Note_on_c, 12, 73, 0
15, 83760, Note_on_c, 12, 74, 84
15, 83811, Note_on_c, 12, 74, 0
15, 83820, Note_on_c, 12, 74, 84
15, 83871, Note_on_c, 12, 74, 0
15, 83880, Note_on_c, 12, 69, 84
15, 83931, Note_on_c, 12, 69, 0
15, 83940, Note_on_c, 12, 69, 84
15, 83991, Note_on_c, 12, 69, 0
15, 84000, Note_on_c, 12, 70, 84
15, 84051, Note_on_c, 12, 70, 0
15, 84060, Note_on_c, 12, 70, 84
15, 84111, Note_on_c, 12, 70, 0
15, 84120, Note_on_c, 12, 64, 84
15, 84171, Note_on_c, 12, 64, 0
15, 84180, Note_on_c, 12, 64, 84
15, 84231, Note_on_c, 12, 64, 0
15, 84240, Note_on_c, 12, 65, 84
15, 84291, Note_on_c, 12, 65, 0
15, 84300, Note_on_c, 12, 65, 84
15, 84351, Note_on_c, 12, 65, 0
15, 84360, Note_on_c, 12, 61, 84
15, 84411, Note_on_c, 12, 61, 0
15, 84420, Note_on_c, 12, 61, 84
15, 84471, Note_on_c, 12, 61, 0
15, 84480, Note_on_c, 12, 62, 84
15, 84531, Note_on_c, 12, 62, 0
15, 84540, Note_on_c, 12, 62, 84
15, 84591, Note_on_c, 12, 62, 0
15, 84600, Note_on_c, 12, 57, 84
15, 84651, Note_on_c, 12, 57, 0
15, 84660, Note_on_c, 12, 57, 84
15, 84711, Note_on_c, 12, 57, 0
15, 84720, Note_on_c, 12, 58, 84
15, 84771, Note_on_c, 12, 58, 0
15, 84780, Note_on_c, 12, 58, 84
15, 84831, Note_on_c, 12, 58, 0
15, 84840, Note_on_c, 12, 56, 84
15, 84891, Note_on_c, 12, 56, 0
15, 84900, Note_on_c, 12, 56, 84
15, 84951, Note_on_c, 12, 56, 0
15, 84960, Note_on_c, 12, 55, 84
15, 85011, Note_on_c, 12, 55, 0
15, 85020, Note_on_c, 12, 55, 84
15, 85071, Note_on_c, 12, 55, 0
15, 85080, Note_on_c, 12, 59, 84
15, 85131, Note_on_c, 12, 59, 0
15, 85140, Note_on_c, 12, 59, 84
15, 85191, Note_on_c, 12, 59, 0
15, 85200, Note_on_c, 12, 60, 92
15, 85251, Note_on_c, 12, 60, 0
15, 85260, Note_on_c, 12, 60, 84
15, 85311, Note_on_c, 12, 60, 0
15, 85320, Note_on_c, 12, 58, 84
15, 85371, Note_on_c, 12, 58, 0
15, 85380, Note_on_c, 12, 58, 84
15, 85431, Note_on_c, 12, 58, 0
15, 85440, Note_on_c, 12, 57, 84
15, 85491, Note_on_c, 12, 57, 0
15, 85500, Note_on_c, 12, 57, 84
15, 85551, Note_on_c, 12, 57, 0
15, 85560, Note_on_c, 12, 61, 84
15, 85611, Note_on_c, 12, 61, 0
15, 85620, Note_on_c, 12, 61, 84
15, 85671, Note_on_c, 12, 61, 0
15, 85680, Note_on_c, 12, 62, 92
15, 85731, Note_on_c, 12, 62, 0
15, 85740, Note_on_c, 12, 62, 84
15, 85791, Note_on_c, 12, 62, 0
15, 85800, Note_on_c, 12, 60, 84
15, 85851, Note_on_c, 12, 60, 0
15, 85860, Note_on_c, 12, 60, 84
15, 85911, Note_on_c, 12, 60, 0
15, 85920, Note_on_c, 12, 58, 84
15, 85971, Note_on_c, 12, 58, 0
15, 85980, Note_on_c, 12, 58, 84
15, 86031, Note_on_c, 12, 58, 0
15, 86040, Note_on_c, 12, 62, 84
15, 86091, Note_on_c, 12, 62, 0
15, 86100, Note_on_c, 12, 62, 84
15, 86151, Note_on_c, 12, 62, 0
15, 86160, Note_on_c, 12, 63, 92
15, 86211, Note_on_c, 12, 63, 0
15, 86220, Note_on_c, 12, 63, 84
15, 86271, Note_on_c, 12, 63, 0
15, 86280, Note_on_c, 12, 62, 84
15, 86331, Note_on_c, 12, 62, 0
15, 86340, Note_on_c, 12, 62, 84
15, 86391, Note_on_c, 12, 62, 0
15, 86400, Note_on_c, 12, 60, 84
15, 86451, Note_on_c, 12, 60, 0
15, 86460, Note_on_c, 12, 60, 84
15, 86511, Note_on_c, 12, 60, 0
15, 86520, Note_on_c, 12, 64, 84
15, 86571, Note_on_c, 12, 64, 0
15, 86580, Note_on_c, 12, 64, 84
15, 86631, Note_on_c, 12, 64, 0
15, 86640, Note_on_c, 12, 65, 92
15, 86691, Note_on_c, 12, 65, 0
15, 86700, Note_on_c, 12, 65, 84
15, 86751, Note_on_c, 12, 65, 0
15, 86760, Note_on_c, 12, 63, 84
15, 86811, Note_on_c, 12, 63, 0
15, 86820, Note_on_c, 12, 63, 84
15, 86871, Note_on_c, 12, 63, 0
15, 86880, Note_on_c, 12, 62, 84
15, 86931, Note_on_c, 12, 62, 0
15, 86940, Note_on_c, 12, 62, 84
15, 86991, Note_on_c, 12, 62, 0
15, 87000, Note_on_c, 12, 66, 84
15, 87051, Note_on_c, 12, 66, 0
15, 87060, Note_on_c, 12, 66, 84
15, 87111, Note_on_c, 12, 66, 0
15, 87120, Note_on_c, 12, 67, 84
15, 87171, Note_on_c, 12, 67, 0
15, 87180, Note_on_c, 12, 67, 84
15, 87231, Note_on_c, 12, 67, 0
15, 87240, Note_on_c, 12, 69, 84
15, 87291, Note_on_c, 12, 69, 0
15, 87300, Note_on_c, 12, 69, 84
15, 87351, Note_on_c, 12, 69, 0
15, 87360, Note_on_c, 12, 70, 84
15, 87411, Note_on_c, 12, 70, 0
15, 87420, Note_on_c, 12, 70, 84
15, 87471, Note_on_c, 12, 70, 0
15, 87480, Note_on_c, 12, 71, 84
15, 87531, Note_on_c, 12, 71, 0
15, 87540, Note_on_c, 12, 71, 84
15, 87591, Note_on_c, 12, 71, 0
15, 87600, Note_on_c, 12, 72, 84
15, 87651, Note_on_c, 12, 72, 0
15, 87660, Note_on_c, 12, 72, 84
15, 87711, Note_on_c, 12, 72, 0
15, 87720, Note_on_c, 12, 73, 84
15, 87771, Note_on_c, 12, 73, 0
15, 87780, Note_on_c, 12, 73, 84
15, 87831, Note_on_c, 12, 73, 0
15, 87840, Note_on_c, 12, 74, 84
15, 88019, Note_on_c, 12, 74, 0
15, 88080, Note_on_c, 12, 72, 84
15, 88080, Note_on_c, 12, 62, 84
15, 88080, Note_on_c, 12, 81, 84
15, 88259, Note_on_c, 12, 72, 0
15, 88259, Note_on_c, 12, 62, 0
15, 88259, Note_on_c, 12, 81, 0
15, 88320, Note_on_c, 12, 79, 84
15, 88320, Note_on_c, 12, 62, 84
15, 88320, Note_on_c, 12, 70, 84
15, 88499, Note_on_c, 12, 79, 0
15, 88499, Note_on_c, 12, 62, 0
15, 88499, Note_on_c, 12, 70, 0
15, 88800, Note_on_c, 12, 71, 84
15, 88800, Note_on_c, 12, 65, 84
15, 88979, Note_on_c, 12, 71, 0
15, 88979, Note_on_c, 12, 65, 0
15, 89040, Note_on_c, 12, 72, 84
15, 89040, Note_on_c, 12, 63, 84
15, 89219, Note_on_c, 12, 72, 0
15, 89219, Note_on_c, 12, 63, 0
15, 89520, Note_on_c, 12, 79, 84
15, 89520, Note_on_c, 12, 64, 84
15, 89520, Note_on_c, 12, 72, 84
15, 89699, Note_on_c, 12, 79, 0
15, 89699, Note_on_c, 12, 64, 0
15, 89699, Note_on_c, 12, 72, 0
15, 89760, Note_on_c, 12, 77, 84
15, 89760, Note_on_c, 12, 72, 84
15, 89760, Note_on_c, 12, 65, 84
15, 89939, Note_on_c, 12, 77, 0
15, 89939, Note_on_c, 12, 72, 0
15, 89939, Note_on_c, 12, 65, 0
15, 90240, Note_on_c, 12, 72, 84
15, 90240, Note_on_c, 12, 62, 84
15, 90240, Note_on_c, 12, 81, 84
15, 90419, Note_on_c, 12, 72, 0
15, 90419, Note_on_c, 12, 62, 0
15, 90419, Note_on_c, 12, 81, 0
15, 90480, Note_on_c, 12, 79, 84
15, 90480, Note_on_c, 12, 62, 84
15, 90480, Note_on_c, 12, 70, 84
15, 90659, Note_on_c, 12, 79, 0
15, 90659, Note_on_c, 12, 62, 0
15, 90659, Note_on_c, 12, 70, 0
15, 90960, Note_on_c, 12, 65, 84
15, 90960, Note_on_c, 12, 71, 84
15, 91139, Note_on_c, 12, 65, 0
15, 91139, Note_on_c, 12, 71, 0
15, 91200, Note_on_c, 12, 63, 84
15, 91200, Note_on_c, 12, 72, 84
15, 91379, Note_on_c, 12, 63, 0
15, 91379, Note_on_c, 12, 72, 0
15, 91680, Note_on_c, 12, 79, 92
15, 91680, Note_on_c, 12, 64, 92
15, 91680, Note_on_c, 12, 72, 92
15, 91859, Note_on_c, 12, 79, 0
15, 91859, Note_on_c, 12, 64, 0
15, 91859, Note_on_c, 12, 72, 0
15, 92160, Note_on_c, 12, 64, 92
15, 92160, Note_on_c, 12, 79, 92
15, 92160, Note_on_c, 12, 72, 92
15, 92339, Note_on_c, 12, 64, 0
15, 92339, Note_on_c, 12, 79, 0
15, 92339, Note_on_c, 12, 72, 0
15, 92640, Note_on_c, 12, 72, 92
15, 92640, Note_on_c, 12, 64, 92
15, 92640, Note_on_c, 12, 79, 92
15, 92819, Note_on_c, 12, 72, 0
15, 92819, Note_on_c, 12, 64, 0
15, 92819, Note_on_c, 12, 79, 0
15, 93120, Note_on_c, 12, 79, 92
15, 93120, Note_on_c, 12, 64, 92
15, 93120, Note_on_c, 12, 72, 92
15, 93299, Note_on_c, 12, 79, 0
15, 93299, Note_on_c, 12, 64, 0
15, 93299, Note_on_c, 12, 72, 0
15, 93600, Note_on_c, 12, 79, 92
15, 93600, Note_on_c, 12, 64, 92
15, 93600, Note_on_c, 12, 72, 92
15, 93779, Note_on_c, 12, 79, 0
15, 93779, Note_on_c, 12, 64, 0
15, 93779, Note_on_c, 12, 72, 0
15, 94080, Note_on_c, 12, 79, 92
15, 94080, Note_on_c, 12, 72, 92
15, 94080, Note_on_c, 12, 64, 92
15, 94259, Note_on_c, 12, 79, 0
15, 94259, Note_on_c, 12, 72, 0
15, 94259, Note_on_c, 12, 64, 0
15, 95040, Note_on_c, 12, 64, 76
15, 95160, Control_c, 12, 11, 80
15, 95279, Note_on_c, 12, 64, 0
15, 95280, Note_on_c, 12, 61, 76
15, 95519, Note_on_c, 12, 61, 0
15, 95520, Note_on_c, 12, 58, 76
15, 95744, Note_on_c, 12, 58, 0
15, 95760, Note_on_c, 12, 62, 76
15, 95760, Note_on_c, 12, 58, 76
15, 96449, Note_on_c, 12, 62, 0
15, 96449, Note_on_c, 12, 58, 0
15, 96465, Control_c, 12, 11, 127
15, 96480, Note_on_c, 12, 64, 76
15, 96600, Control_c, 12, 11, 80
15, 96719, Note_on_c, 12, 64, 0
15, 96720, Note_on_c, 12, 61, 76
15, 96959, Note_on_c, 12, 61, 0
15, 96960, Note_on_c, 12, 58, 76
15, 97304, Note_on_c, 12, 58, 0
15, 97320, Note_on_c, 12, 55, 76
15, 97409, Note_on_c, 12, 55, 0
15, 97440, Note_on_c, 12, 58, 76
15, 97529, Note_on_c, 12, 58, 0
15, 97560, Note_on_c, 12, 63, 76
15, 97649, Note_on_c, 12, 63, 0
15, 97680, Note_on_c, 12, 55, 76
15, 97859, Note_on_c, 12, 55, 0
15, 98040, Note_on_c, 12, 56, 76
15, 98129, Note_on_c, 12, 56, 0
15, 98160, Note_on_c, 12, 60, 76
15, 98249, Note_on_c, 12, 60, 0
15, 98280, Note_on_c, 12, 63, 76
15, 98369, Note_on_c, 12, 63, 0
15, 98400, Note_on_c, 12, 56, 76
15, 98579, Note_on_c, 12, 56, 0
15, 98760, Note_on_c, 12, 57, 76
15, 98849, Note_on_c, 12, 57, 0
15, 98880, Note_on_c, 12, 60, 76
15, 98969, Note_on_c, 12, 60, 0
15, 99000, Note_on_c, 12, 65, 76
15, 99089, Note_on_c, 12, 65, 0
15, 99120, Note_on_c, 12, 57, 76
15, 99299, Note_on_c, 12, 57, 0
15, 99360, Control_c, 12, 11, 64
15, 99480, Note_on_c, 12, 58, 84
15, 99569, Note_on_c, 12, 58, 0
15, 99600, Note_on_c, 12, 62, 84
15, 99689, Note_on_c, 12, 62, 0
15, 99720, Note_on_c, 12, 65, 84
15, 99809, Note_on_c, 12, 65, 0
15, 99840, Note_on_c, 12, 70, 84
15, 99929, Note_on_c, 12, 70, 0
15, 99960, Note_on_c, 12, 66, 84
15, 100049, Note_on_c, 12, 66, 0
15, 100080, Note_on_c, 12, 67, 84
15, 100131, Note_on_c, 12, 67, 0
15, 100140, Note_on_c, 12, 67, 84
15, 100191, Note_on_c, 12, 67, 0
15, 100200, Note_on_c, 12, 55, 84
15, 100251, Note_on_c, 12, 55, 0
15, 100260, Note_on_c, 12, 55, 84
15, 100311, Note_on_c, 12, 55, 0
15, 100320, Note_on_c, 12, 67, 84
15, 100320, Control_c, 12, 11, 64
15, 100371, Note_on_c, 12, 67, 0
15, 100380, Note_on_c, 12, 67, 84
15, 100431, Note_on_c, 12, 67, 0
15, 100440, Note_on_c, 12, 67, 84
15, 100480, Control_c, 12, 11, 69
15, 100491, Note_on_c, 12, 67, 0
15, 100500, Note_on_c, 12, 67, 84
15, 100551, Note_on_c, 12, 67, 0
15, 100560, Note_on_c, 12, 67, 84
15, 100611, Note_on_c, 12, 67, 0
15, 100620, Note_on_c, 12, 67, 84
15, 100640, Control_c, 12, 11, 75
15, 100671, Note_on_c, 12, 67, 0
15, 100680, Note_on_c, 12, 67, 84
15, 100731, Note_on_c, 12, 67, 0
15, 100740, Note_on_c, 12, 67, 84
15, 100791, Note_on_c, 12, 67, 0
15, 100800, Note_on_c, 12, 63, 84
15, 100800, Control_c, 12, 11, 80
15, 100851, Note_on_c, 12, 63, 0
15, 100860, Note_on_c, 12, 63, 84
15, 100911, Note_on_c, 12, 63, 0
15, 100920, Note_on_c, 12, 63, 84
15, 100960, Control_c, 12, 11, 85
15, 100971, Note_on_c, 12, 63, 0
15, 100980, Note_on_c, 12, 63, 84
15, 101031, Note_on_c, 12, 63, 0
15, 101040, Note_on_c, 12, 63, 84
15, 101091, Note_on_c, 12, 63, 0
15, 101100, Note_on_c, 12, 63, 84
15, 101120, Control_c, 12, 11, 90
15, 101151, Note_on_c, 12, 63, 0
15, 101160, Note_on_c, 12, 67, 84
15, 101211, Note_on_c, 12, 67, 0
15, 101220, Note_on_c, 12, 67, 84
15, 101271, Note_on_c, 12, 67, 0
15, 101280, Note_on_c, 12, 65, 84
15, 101280, Control_c, 12, 11, 96
15, 101331, Note_on_c, 12, 65, 0
15, 101340, Note_on_c, 12, 65, 84
15, 101391, Note_on_c, 12, 65, 0
15, 101400, Note_on_c, 12, 63, 84
15, 101440, Control_c, 12, 11, 101
15, 101451, Note_on_c, 12, 63, 0
15, 101460, Note_on_c, 12, 63, 84
15, 101511, Note_on_c, 12, 63, 0
15, 101520, Note_on_c, 12, 62, 84
15, 101571, Note_on_c, 12, 62, 0
15, 101580, Note_on_c, 12, 62, 84
15, 101600, Control_c, 12, 11, 106
15, 101631, Note_on_c, 12, 62, 0
15, 101640, Note_on_c, 12, 58, 84
15, 101691, Note_on_c, 12, 58, 0
15, 101700, Note_on_c, 12, 58, 84
15, 101751, Note_on_c, 12, 58, 0
15, 101760, Note_on_c, 12, 62, 84
15, 101760, Control_c, 12, 11, 111
15, 101811, Note_on_c, 12, 62, 0
15, 101820, Note_on_c, 12, 62, 84
15, 101871, Note_on_c, 12, 62, 0
15, 101880, Note_on_c, 12, 65, 84
15, 101920, Control_c, 12, 11, 117
15, 101931, Note_on_c, 12, 65, 0
15, 101940, Note_on_c, 12, 65, 84
15, 101991, Note_on_c, 12, 65, 0
15, 102000, Note_on_c, 12, 70, 84
15, 102051, Note_on_c, 12, 70, 0
15, 102060, Note_on_c, 12, 70, 84
15, 102080, Control_c, 12, 11, 122
15, 102111, Note_on_c, 12, 70, 0
15, 102120, Note_on_c, 12, 74, 84
15, 102171, Note_on_c, 12, 74, 0
15, 102180, Note_on_c, 12, 74, 84
15, 102225, Control_c, 12, 11, 127
15, 102231, Note_on_c, 12, 74, 0
15, 102240, Note_on_c, 12, 75, 84
15, 102291, Note_on_c, 12, 75, 0
15, 102300, Note_on_c, 12, 75, 84
15, 102351, Note_on_c, 12, 75, 0
15, 102360, Note_on_c, 12, 75, 84
15, 102411, Note_on_c, 12, 75, 0
15, 102420, Note_on_c, 12, 75, 84
15, 102471, Note_on_c, 12, 75, 0
15, 102480, Note_on_c, 12, 75, 84
15, 102531, Note_on_c, 12, 75, 0
15, 102540, Note_on_c, 12, 75, 84
15, 102591, Note_on_c, 12, 75, 0
15, 102600, Note_on_c, 12, 75, 84
15, 102651, Note_on_c, 12, 75, 0
15, 102660, Note_on_c, 12, 75, 84
15, 102711, Note_on_c, 12, 75, 0
15, 102720, Note_on_c, 12, 75, 84
15, 102771, Note_on_c, 12, 75, 0
15, 102780, Note_on_c, 12, 75, 84
15, 102831, Note_on_c, 12, 75, 0
15, 102840, Note_on_c, 12, 75, 84
15, 102891, Note_on_c, 12, 75, 0
15, 102900, Note_on_c, 12, 75, 84
15, 102951, Note_on_c, 12, 75, 0
15, 102960, Note_on_c, 12, 74, 76
15, 103139, Note_on_c, 12, 74, 0
15, 103200, Note_on_c, 12, 65, 84
15, 103379, Note_on_c, 12, 65, 0
15, 103440, Note_on_c, 12, 62, 76
15, 103619, Note_on_c, 12, 62, 0
15, 103920, Note_on_c, 12, 67, 84
15, 104099, Note_on_c, 12, 67, 0
15, 104160, Note_on_c, 12, 63, 76
15, 104339, Note_on_c, 12, 63, 0
15, 104640, Note_on_c, 12, 65, 84
15, 104819, Note_on_c, 12, 65, 0
15, 104880, Note_on_c, 12, 62, 76
15, 105059, Note_on_c, 12, 62, 0
15, 105120, Note_on_c, 12, 66, 76
15, 105120, Note_on_c, 12, 69, 76
15, 105299, Note_on_c, 12, 66, 0
15, 105299, Note_on_c, 12, 69, 0
15, 105360, Note_on_c, 12, 69, 76
15, 105360, Note_on_c, 12, 66, 76
15, 105539, Note_on_c, 12, 69, 0
15, 105539, Note_on_c, 12, 66, 0
15, 105600, Note_on_c, 12, 66, 76
15, 105600, Note_on_c, 12, 69, 76
15, 105779, Note_on_c, 12, 66, 0
15, 105779, Note_on_c, 12, 69, 0
15, 105840, Note_on_c, 12, 70, 76
15, 105960, Control_c, 12, 11, 80
15, 106319, Note_on_c, 12, 70, 0
15, 106320, Note_on_c, 12, 74, 76
15, 106559, Note_on_c, 12, 74, 0
15, 106560, Note_on_c, 12, 70, 76
15, 107039, Note_on_c, 12, 70, 0
15, 107040, Note_on_c, 12, 65, 76
15, 107264, Note_on_c, 12, 65, 0
15, 107280, Note_on_c, 12, 68, 76
15, 107280, Control_c, 12, 11, 80
15, 107400, Control_c, 12, 11, 79
15, 107520, Control_c, 12, 11, 77
15, 107640, Control_c, 12, 11, 76
15, 107759, Note_on_c, 12, 68, 0
15, 107760, Control_c, 12, 11, 75
15, 107760, Note_on_c, 12, 71, 76
15, 107880, Control_c, 12, 11, 73
15, 107999, Note_on_c, 12, 71, 0
15, 108000, Control_c, 12, 11, 72
15, 108000, Note_on_c, 12, 68, 76
15, 108120, Control_c, 12, 11, 71
15, 108240, Control_c, 12, 11, 69
15, 108360, Control_c, 12, 11, 68
15, 108479, Note_on_c, 12, 68, 0
15, 108480, Note_on_c, 12, 65, 76
15, 108480, Control_c, 12, 11, 67
15, 108600, Control_c, 12, 11, 64
15, 108689, Note_on_c, 12, 65, 0
15, 108705, Control_c, 12, 11, 96
15, 108720, Note_on_c, 12, 62, 60
15, 109199, Note_on_c, 12, 62, 0
15, 109200, Note_on_c, 12, 59, 60
15, 109439, Note_on_c, 12, 59, 0
15, 109440, Note_on_c, 12, 57, 60
15, 109919, Note_on_c, 12, 57, 0
15, 109920, Note_on_c, 12, 56, 84
15, 110040, Control_c, 12, 11, 64
15, 110159, Note_on_c, 12, 56, 0
15, 110160, Note_on_c, 12, 55, 84
15, 110249, Note_on_c, 12, 55, 0
15, 110265, Control_c, 12, 11, 96
15, 110280, Note_on_c, 12, 67, 68
15, 110369, Note_on_c, 12, 67, 0
15, 110400, Note_on_c, 12, 67, 68
15, 110504, Note_on_c, 12, 67, 0
15, 110520, Note_on_c, 12, 67, 68
15, 110624, Note_on_c, 12, 67, 0
15, 110640, Note_on_c, 12, 67, 68
15, 110744, Note_on_c, 12, 67, 0
15, 110760, Note_on_c, 12, 67, 68
15, 110849, Note_on_c, 12, 67, 0
15, 110865, Control_c, 12, 11, 127
15, 110880, Note_on_c, 12, 67, 52
15, 110984, Note_on_c, 12, 67, 0
15, 111000, Note_on_c, 12, 67, 52
15, 111104, Note_on_c, 12, 67, 0
15, 111120, Note_on_c, 12, 67, 52
15, 111224, Note_on_c, 12, 67, 0
15, 111240, Note_on_c, 12, 67, 52
15, 111344, Note_on_c, 12, 67, 0
15, 111360, Note_on_c, 12, 67, 52
15, 111464, Note_on_c, 12, 67, 0
15, 111480, Note_on_c, 12, 67, 52
15, 111584, Note_on_c, 12, 67, 0
15, 111600, Note_on_c, 12, 67, 52
15, 111704, Note_on_c, 12, 67, 0
15, 111720, Note_on_c, 12, 67, 52
15, 111824, Note_on_c, 12, 67, 0
15, 111840, Note_on_c, 12, 67, 52
15, 111944, Note_on_c, 12, 67, 0
15, 111960, Note_on_c, 12, 67, 52
15, 112064, Note_on_c, 12, 67, 0
15, 112080, Note_on_c, 12, 67, 52
15, 112184, Note_on_c, 12, 67, 0
15, 112200, Note_on_c, 12, 67, 52
15, 112304, Note_on_c, 12, 67, 0
15, 112320, Note_on_c, 12, 67, 52
15, 112424, Note_on_c, 12, 67, 0
15, 112440, Note_on_c, 12, 67, 52
15, 112544, Note_on_c, 12, 67, 0
15, 112560, Note_on_c, 12, 67, 52
15, 112664, Note_on_c, 12, 67, 0
15, 112680, Note_on_c, 12, 67, 52
15, 112784, Note_on_c, 12, 67, 0
15, 112800, Note_on_c, 12, 67, 52
15, 112904, Note_on_c, 12, 67, 0
15, 112920, Note_on_c, 12, 67, 52
15, 113024, Note_on_c, 12, 67, 0
15, 113040, Note_on_c, 12, 67, 52
15, 113144, Note_on_c, 12, 67, 0
15, 113160, Note_on_c, 12, 67, 52
15, 113264, Note_on_c, 12, 67, 0
15, 113280, Note_on_c, 12, 67, 53
15, 113384, Note_on_c, 12, 67, 0
15, 113400, Note_on_c, 12, 67, 54
15, 113504, Note_on_c, 12, 67, 0
15, 113520, Note_on_c, 12, 67, 55
15, 113624, Note_on_c, 12, 67, 0
15, 113640, Note_on_c, 12, 67, 56
15, 113744, Note_on_c, 12, 67, 0
15, 113760, Note_on_c, 12, 67, 57
15, 113864, Note_on_c, 12, 67, 0
15, 113880, Note_on_c, 12, 67, 58
15, 113984, Note_on_c, 12, 67, 0
15, 114000, Note_on_c, 12, 67, 59
15, 114104, Note_on_c, 12, 67, 0
15, 114120, Note_on_c, 12, 67, 60
15, 114224, Note_on_c, 12, 67, 0
15, 114240, Note_on_c, 12, 67, 60
15, 114344, Note_on_c, 12, 67, 0
15, 114360, Note_on_c, 12, 67, 61
15, 114464, Note_on_c, 12, 67, 0
15, 114480, Note_on_c, 12, 67, 62
15, 114599, Note_on_c, 12, 67, 0
15, 114600, Note_on_c, 12, 58, 63
15, 114719, Note_on_c, 12, 58, 0
15, 114720, Note_on_c, 12, 67, 64
15, 114839, Note_on_c, 12, 67, 0
15, 114840, Note_on_c, 12, 58, 65
15, 114959, Note_on_c, 12, 58, 0
15, 114960, Note_on_c, 12, 67, 66
15, 115079, Note_on_c, 12, 67, 0
15, 115080, Note_on_c, 12, 58, 67
15, 115184, Note_on_c, 12, 58, 0
15, 115200, Note_on_c, 12, 65, 76
15, 115319, Note_on_c, 12, 65, 0
15, 115320, Note_on_c, 12, 58, 66
15, 115439, Note_on_c, 12, 58, 0
15, 115440, Note_on_c, 12, 65, 63
15, 115559, Note_on_c, 12, 65, 0
15, 115560, Note_on_c, 12, 58, 60
15, 115679, Note_on_c, 12, 58, 0
15, 115680, Note_on_c, 12, 65, 58
15, 115799, Note_on_c, 12, 65, 0
15, 115800, Note_on_c, 12, 58, 55
15, 115904, Note_on_c, 12, 58, 0
15, 115920, Note_on_c, 12, 63, 52
15, 116039, Note_on_c, 12, 63, 0
15, 116040, Note_on_c, 12, 58, 52
15, 116159, Note_on_c, 12, 58, 0
15, 116160, Note_on_c, 12, 63, 52
15, 116279, Note_on_c, 12, 63, 0
15, 116280, Note_on_c, 12, 58, 52
15, 116399, Note_on_c, 12, 58, 0
15, 116400, Note_on_c, 12, 63, 52
15, 116519, Note_on_c, 12, 63, 0
15, 116520, Note_on_c, 12, 58, 52
15, 116624, Note_on_c, 12, 58, 0
15, 116640, Note_on_c, 12, 60, 52
15, 116759, Note_on_c, 12, 60, 0
15, 116760, Note_on_c, 12, 63, 52
15, 116879, Note_on_c, 12, 63, 0
15, 116880, Note_on_c, 12, 58, 52
15, 116999, Note_on_c, 12, 58, 0
15, 117000, Note_on_c, 12, 63, 52
15, 117119, Note_on_c, 12, 63, 0
15, 117120, Note_on_c, 12, 56, 52
15, 117239, Note_on_c, 12, 56, 0
15, 117240, Note_on_c, 12, 63, 52
15, 117344, Note_on_c, 12, 63, 0
15, 117360, Note_on_c, 12, 58, 52
15, 117479, Note_on_c, 12, 58, 0
15, 117480, Note_on_c, 12, 63, 53
15, 117599, Note_on_c, 12, 63, 0
15, 117600, Note_on_c, 12, 55, 54
15, 117719, Note_on_c, 12, 55, 0
15, 117720, Note_on_c, 12, 58, 56
15, 117839, Note_on_c, 12, 58, 0
15, 117840, Note_on_c, 12, 55, 57
15, 117959, Note_on_c, 12, 55, 0
15, 117960, Note_on_c, 12, 58, 58
15, 118064, Note_on_c, 12, 58, 0
15, 118080, Note_on_c, 12, 56, 60
15, 118199, Note_on_c, 12, 56, 0
15, 118200, Note_on_c, 12, 58, 61
15, 118319, Note_on_c, 12, 58, 0
15, 118320, Note_on_c, 12, 55, 62
15, 118439, Note_on_c, 12, 55, 0
15, 118440, Note_on_c, 12, 58, 64
15, 118559, Note_on_c, 12, 58, 0
15, 118560, Note_on_c, 12, 62, 65
15, 118679, Note_on_c, 12, 62, 0
15, 118680, Note_on_c, 12, 58, 66
15, 118784, Note_on_c, 12, 58, 0
15, 118800, Note_on_c, 12, 63, 52
15, 118889, Note_on_c, 12, 63, 0
15, 118920, Note_on_c, 12, 58, 52
15, 119009, Note_on_c, 12, 58, 0
15, 119040, Note_on_c, 12, 58, 52
15, 119129, Note_on_c, 12, 58, 0
15, 119160, Note_on_c, 12, 58, 52
15, 119249, Note_on_c, 12, 58, 0
15, 119280, Note_on_c, 12, 58, 52
15, 119369, Note_on_c, 12, 58, 0
15, 119400, Note_on_c, 12, 58, 52
15, 119489, Note_on_c, 12, 58, 0
15, 119520, Note_on_c, 12, 58, 52
15, 119609, Note_on_c, 12, 58, 0
15, 119640, Note_on_c, 12, 58, 52
15, 119729, Note_on_c, 12, 58, 0
15, 119760, Note_on_c, 12, 58, 52
15, 119849, Note_on_c, 12, 58, 0
15, 119880, Note_on_c, 12, 58, 52
15, 119969, Note_on_c, 12, 58, 0
15, 120000, Note_on_c, 12, 58, 52
15, 120089, Note_on_c, 12, 58, 0
15, 120120, Note_on_c, 12, 58, 52
15, 120209, Note_on_c, 12, 58, 0
15, 120240, Note_on_c, 12, 58, 52
15, 120329, Note_on_c, 12, 58, 0
15, 120360, Note_on_c, 12, 58, 52
15, 120449, Note_on_c, 12, 58, 0
15, 120480, Note_on_c, 12, 58, 52
15, 120569, Note_on_c, 12, 58, 0
15, 120600, Note_on_c, 12, 58, 52
15, 120689, Note_on_c, 12, 58, 0
15, 120720, Note_on_c, 12, 58, 52
15, 120809, Note_on_c, 12, 58, 0
15, 120840, Note_on_c, 12, 58, 52
15, 120929, Note_on_c, 12, 58, 0
15, 120960, Note_on_c, 12, 58, 52
15, 121049, Note_on_c, 12, 58, 0
15, 121080, Note_on_c, 12, 58, 52
15, 121169, Note_on_c, 12, 58, 0
15, 121200, Note_on_c, 12, 61, 52
15, 121289, Note_on_c, 12, 61, 0
15, 121320, Note_on_c, 12, 61, 52
15, 121409, Note_on_c, 12, 61, 0
15, 121440, Note_on_c, 12, 60, 52
15, 121529, Note_on_c, 12, 60, 0
15, 121560, Note_on_c, 12, 60, 52
15, 121649, Note_on_c, 12, 60, 0
15, 121680, Note_on_c, 12, 60, 52
15, 121769, Note_on_c, 12, 60, 0
15, 121800, Note_on_c, 12, 60, 52
15, 121889, Note_on_c, 12, 60, 0
15, 121920, Note_on_c, 12, 60, 52
15, 122009, Note_on_c, 12, 60, 0
15, 122040, Note_on_c, 12, 60, 52
15, 122129, Note_on_c, 12, 60, 0
15, 122160, Note_on_c, 12, 60, 52
15, 122249, Note_on_c, 12, 60, 0
15, 122280, Note_on_c, 12, 60, 52
15, 122369, Note_on_c, 12, 60, 0
15, 122400, Note_on_c, 12, 60, 52
15, 122489, Note_on_c, 12, 60, 0
15, 122520, Note_on_c, 12, 60, 52
15, 122609, Note_on_c, 12, 60, 0
15, 122640, Note_on_c, 12, 61, 52
15, 122729, Note_on_c, 12, 61, 0
15, 122760, Note_on_c, 12, 61, 52
15, 122849, Note_on_c, 12, 61, 0
15, 122880, Note_on_c, 12, 63, 52
15, 122969, Note_on_c, 12, 63, 0
15, 123000, Note_on_c, 12, 63, 52
15, 123089, Note_on_c, 12, 63, 0
15, 123120, Note_on_c, 12, 63, 52
15, 123209, Note_on_c, 12, 63, 0
15, 123240, Note_on_c, 12, 63, 52
15, 123329, Note_on_c, 12, 63, 0
15, 123360, Note_on_c, 12, 63, 52
15, 123449, Note_on_c, 12, 63, 0
15, 123480, Note_on_c, 12, 63, 52
15, 123569, Note_on_c, 12, 63, 0
15, 123600, Note_on_c, 12, 63, 52
15, 123689, Note_on_c, 12, 63, 0
15, 123720, Note_on_c, 12, 63, 52
15, 123809, Note_on_c, 12, 63, 0
15, 123840, Note_on_c, 12, 63, 52
15, 123929, Note_on_c, 12, 63, 0
15, 123960, Note_on_c, 12, 63, 56
15, 124049, Note_on_c, 12, 63, 0
15, 124080, Note_on_c, 12, 63, 60
15, 124169, Note_on_c, 12, 63, 0
15, 124200, Note_on_c, 12, 63, 64
15, 124289, Note_on_c, 12, 63, 0
15, 124320, Note_on_c, 12, 63, 68
15, 124424, Note_on_c, 12, 63, 0
15, 124440, Note_on_c, 12, 63, 72
15, 124544, Note_on_c, 12, 63, 0
15, 124560, Note_on_c, 12, 62, 76
15, 124679, Note_on_c, 12, 62, 0
15, 124680, Note_on_c, 12, 58, 52
15, 124799, Note_on_c, 12, 58, 0
15, 124800, Note_on_c, 12, 62, 52
15, 124919, Note_on_c, 12, 62, 0
15, 124920, Note_on_c, 12, 65, 52
15, 125039, Note_on_c, 12, 65, 0
15, 125040, Note_on_c, 12, 70, 52
15, 125159, Note_on_c, 12, 70, 0
15, 125160, Note_on_c, 12, 74, 52
15, 125279, Note_on_c, 12, 74, 0
15, 125280, Note_on_c, 12, 77, 52
15, 125459, Note_on_c, 12, 77, 0
15, 125520, Note_on_c, 12, 65, 52
15, 125759, Note_on_c, 12, 65, 0
15, 125760, Note_on_c, 12, 62, 52
15, 125984, Note_on_c, 12, 62, 0
15, 126000, Note_on_c, 12, 63, 52
15, 126179, Note_on_c, 12, 63, 0
15, 126240, Note_on_c, 12, 63, 76
15, 126240, Note_on_c, 12, 72, 76
15, 126689, Note_on_c, 12, 63, 0
15, 126689, Note_on_c, 12, 72, 0
15, 126720, Note_on_c, 12, 63, 76
15, 126720, Note_on_c, 12, 72, 76
15, 127169, Note_on_c, 12, 63, 0
15, 127169, Note_on_c, 12, 72, 0
15, 127200, Note_on_c, 12, 72, 76
15, 127200, Note_on_c, 12, 63, 76
15, 127409, Note_on_c, 12, 72, 0
15, 127409, Note_on_c, 12, 63, 0
15, 127440, Note_on_c, 12, 62, 76
15, 127440, Note_on_c, 12, 70, 76
15, 127529, Note_on_c, 12, 62, 0
15, 127529, Note_on_c, 12, 70, 0
15, 127560, Note_on_c, 12, 58, 52
15, 127679, Note_on_c, 12, 58, 0
15, 127680, Note_on_c, 12, 62, 52
15, 127799, Note_on_c, 12, 62, 0
15, 127800, Note_on_c, 12, 65, 52
15, 127919, Note_on_c, 12, 65, 0
15, 127920, Note_on_c, 12, 70, 52
15, 128039, Note_on_c, 12, 70, 0
15, 128040, Note_on_c, 12, 74, 52
15, 128159, Note_on_c, 12, 74, 0
15, 128160, Note_on_c, 12, 77, 52
15, 128339, Note_on_c, 12, 77, 0
15, 128640, Note_on_c, 12, 58, 76
15, 128640, Note_on_c, 12, 65, 76
15, 129089, Note_on_c, 12, 58, 0
15, 129089, Note_on_c, 12, 65, 0
15, 129120, Note_on_c, 12, 65, 76
15, 129120, Note_on_c, 12, 58, 76
15, 129569, Note_on_c, 12, 65, 0
15, 129569, Note_on_c, 12, 58, 0
15, 129600, Note_on_c, 12, 58, 76
15, 129600, Note_on_c, 12, 65, 76
15, 130049, Note_on_c, 12, 58, 0
15, 130049, Note_on_c, 12, 65, 0
15, 130080, Note_on_c, 12, 65, 76
15, 130080, Note_on_c, 12, 58, 76
15, 130529, Note_on_c, 12, 65, 0
15, 130529, Note_on_c, 12, 58, 0
15, 130560, Note_on_c, 12, 63, 76
15, 130560, Note_on_c, 12, 58, 76
15, 131009, Note_on_c, 12, 63, 0
15, 131009, Note_on_c, 12, 58, 0
15, 131040, Note_on_c, 12, 63, 76
15, 131040, Note_on_c, 12, 58, 76
15, 131489, Note_on_c, 12, 63, 0
15, 131489, Note_on_c, 12, 58, 0
15, 131520, Note_on_c, 12, 63, 76
15, 131520, Note_on_c, 12, 58, 76
15, 131969, Note_on_c, 12, 63, 0
15, 131969, Note_on_c, 12, 58, 0
15, 132000, Note_on_c, 12, 58, 52
15, 132000, Note_on_c, 12, 62, 52
15, 132179, Note_on_c, 12, 58, 0
15, 132179, Note_on_c, 12, 62, 0
15, 132240, Note_on_c, 12, 58, 76
15, 132240, Note_on_c, 12, 62, 76
15, 132689, Note_on_c, 12, 58, 0
15, 132689, Note_on_c, 12, 62, 0
15, 132720, Note_on_c, 12, 58, 52
15, 132720, Note_on_c, 12, 62, 52
15, 132899, Note_on_c, 12, 58, 0
15, 132899, Note_on_c, 12, 62, 0
15, 132960, Note_on_c, 12, 58, 76
15, 132960, Note_on_c, 12, 62, 76
15, 133199, Note_on_c, 12, 58, 0
15, 133199, Note_on_c, 12, 62, 0
15, 133200, Note_on_c, 12, 58, 52
15, 133200, Note_on_c, 12, 68, 52
15, 133251, Note_on_c, 12, 58, 0
15, 133251, Note_on_c, 12, 68, 0
15, 133260, Note_on_c, 12, 80, 53
15, 133311, Note_on_c, 12, 80, 0
15, 133320, Note_on_c, 12, 80, 54
15, 133371, Note_on_c, 12, 80, 0
15, 133380, Note_on_c, 12, 80, 56
15, 133431, Note_on_c, 12, 80, 0
15, 133440, Note_on_c, 12, 80, 57
15, 133491, Note_on_c, 12, 80, 0
15, 133500, Note_on_c, 12, 80, 58
15, 133551, Note_on_c, 12, 80, 0
15, 133560, Note_on_c, 12, 79, 60
15, 133611, Note_on_c, 12, 79, 0
15, 133620, Note_on_c, 12, 79, 61
15, 133671, Note_on_c, 12, 79, 0
15, 133680, Note_on_c, 12, 77, 62
15, 133731, Note_on_c, 12, 77, 0
15, 133740, Note_on_c, 12, 77, 64
15, 133791, Note_on_c, 12, 77, 0
15, 133800, Note_on_c, 12, 75, 65
15, 133851, Note_on_c, 12, 75, 0
15, 133860, Note_on_c, 12, 75, 66
15, 133911, Note_on_c, 12, 75, 0
15, 133920, Note_on_c, 12, 74, 68
15, 133971, Note_on_c, 12, 74, 0
15, 133980, Note_on_c, 12, 74, 69
15, 134031, Note_on_c, 12, 74, 0
15, 134040, Note_on_c, 12, 72, 70
15, 134091, Note_on_c, 12, 72, 0
15, 134100, Note_on_c, 12, 72, 72
15, 134151, Note_on_c, 12, 72, 0
15, 134160, Note_on_c, 12, 70, 73
15, 134211, Note_on_c, 12, 70, 0
15, 134220, Note_on_c, 12, 70, 74
15, 134271, Note_on_c, 12, 70, 0
15, 134280, Note_on_c, 12, 68, 76
15, 134331, Note_on_c, 12, 68, 0
15, 134340, Note_on_c, 12, 68, 77
15, 134391, Note_on_c, 12, 68, 0
15, 134400, Note_on_c, 12, 67, 78
15, 134451, Note_on_c, 12, 67, 0
15, 134460, Note_on_c, 12, 67, 80
15, 134511, Note_on_c, 12, 67, 0
15, 134520, Note_on_c, 12, 65, 81
15, 134571, Note_on_c, 12, 65, 0
15, 134580, Note_on_c, 12, 65, 82
15, 134631, Note_on_c, 12, 65, 0
15, 134640, Note_on_c, 12, 63, 84
15, 134691, Note_on_c, 12, 63, 0
15, 134700, Note_on_c, 12, 70, 84
15, 134700, Note_on_c, 12, 79, 84
15, 134751, Note_on_c, 12, 70, 0
15, 134751, Note_on_c, 12, 79, 0
15, 134760, Note_on_c, 12, 70, 84
15, 134760, Note_on_c, 12, 79, 84
15, 134811, Note_on_c, 12, 70, 0
15, 134811, Note_on_c, 12, 79, 0
15, 134820, Note_on_c, 12, 70, 84
15, 134820, Note_on_c, 12, 79, 84
15, 134871, Note_on_c, 12, 70, 0
15, 134871, Note_on_c, 12, 79, 0
15, 134880, Note_on_c, 12, 70, 84
15, 134880, Note_on_c, 12, 79, 84
15, 134931, Note_on_c, 12, 70, 0
15, 134931, Note_on_c, 12, 79, 0
15, 134940, Note_on_c, 12, 79, 84
15, 134940, Note_on_c, 12, 70, 84
15, 134991, Note_on_c, 12, 79, 0
15, 134991, Note_on_c, 12, 70, 0
15, 135000, Note_on_c, 12, 79, 84
15, 135000, Note_on_c, 12, 70, 84
15, 135051, Note_on_c, 12, 79, 0
15, 135051, Note_on_c, 12, 70, 0
15, 135060, Note_on_c, 12, 79, 84
15, 135060, Note_on_c, 12, 70, 84
15, 135111, Note_on_c, 12, 79, 0
15, 135111, Note_on_c, 12, 70, 0
15, 135120, Note_on_c, 12, 70, 84
15, 135120, Note_on_c, 12, 79, 84
15, 135171, Note_on_c, 12, 70, 0
15, 135171, Note_on_c, 12, 79, 0
15, 135180, Note_on_c, 12, 70, 84
15, 135180, Note_on_c, 12, 79, 84
15, 135231, Note_on_c, 12, 70, 0
15, 135231, Note_on_c, 12, 79, 0
15, 135240, Note_on_c, 12, 70, 84
15, 135240, Note_on_c, 12, 79, 84
15, 135291, Note_on_c, 12, 70, 0
15, 135291, Note_on_c, 12, 79, 0
15, 135300, Note_on_c, 12, 79, 84
15, 135300, Note_on_c, 12, 70, 84
15, 135351, Note_on_c, 12, 79, 0
15, 135351, Note_on_c, 12, 70, 0
15, 135360, Note_on_c, 12, 70, 84
15, 135360, Note_on_c, 12, 79, 84
15, 135411, Note_on_c, 12, 70, 0
15, 135411, Note_on_c, 12, 79, 0
15, 135420, Note_on_c, 12, 70, 84
15, 135420, Note_on_c, 12, 79, 84
15, 135471, Note_on_c, 12, 70, 0
15, 135471, Note_on_c, 12, 79, 0
15, 135480, Note_on_c, 12, 79, 84
15, 135480, Note_on_c, 12, 70, 84
15, 135531, Note_on_c, 12, 79, 0
15, 135531, Note_on_c, 12, 70, 0
15, 135540, Note_on_c, 12, 79, 84
15, 135540, Note_on_c, 12, 70, 84
15, 135591, Note_on_c, 12, 79, 0
15, 135591, Note_on_c, 12, 70, 0
15, 135600, Note_on_c, 12, 79, 84
15, 135600, Note_on_c, 12, 70, 84
15, 135651, Note_on_c, 12, 79, 0
15, 135651, Note_on_c, 12, 70, 0
15, 135660, Note_on_c, 12, 79, 84
15, 135660, Note_on_c, 12, 70, 84
15, 135711, Note_on_c, 12, 79, 0
15, 135711, Note_on_c, 12, 70, 0
15, 135720, Note_on_c, 12, 79, 84
15, 135720, Note_on_c, 12, 70, 84
15, 135771, Note_on_c, 12, 79, 0
15, 135771, Note_on_c, 12, 70, 0
15, 135780, Note_on_c, 12, 70, 84
15, 135780, Note_on_c, 12, 79, 84
15, 135831, Note_on_c, 12, 70, 0
15, 135831, Note_on_c, 12, 79, 0
15, 135840, Note_on_c, 12, 70, 84
15, 135840, Note_on_c, 12, 79, 84
15, 135891, Note_on_c, 12, 70, 0
15, 135891, Note_on_c, 12, 79, 0
15, 135900, Note_on_c, 12, 79, 84
15, 135900, Note_on_c, 12, 70, 84
15, 135951, Note_on_c, 12, 79, 0
15, 135951, Note_on_c, 12, 70, 0
15, 135960, Note_on_c, 12, 70, 84
15, 135960, Note_on_c, 12, 79, 84
15, 136011, Note_on_c, 12, 70, 0
15, 136011, Note_on_c, 12, 79, 0
15, 136020, Note_on_c, 12, 79, 84
15, 136020, Note_on_c, 12, 70, 84
15, 136071, Note_on_c, 12, 79, 0
15, 136071, Note_on_c, 12, 70, 0
15, 136080, Note_on_c, 12, 70, 84
15, 136080, Note_on_c, 12, 79, 84
15, 136131, Note_on_c, 12, 70, 0
15, 136131, Note_on_c, 12, 79, 0
15, 136140, Note_on_c, 12, 70, 84
15, 136140, Note_on_c, 12, 79, 84
15, 136191, Note_on_c, 12, 70, 0
15, 136191, Note_on_c, 12, 79, 0
15, 136200, Note_on_c, 12, 70, 84
15, 136200, Note_on_c, 12, 79, 84
15, 136251, Note_on_c, 12, 70, 0
15, 136251, Note_on_c, 12, 79, 0
15, 136260, Note_on_c, 12, 70, 84
15, 136260, Note_on_c, 12, 79, 84
15, 136311, Note_on_c, 12, 70, 0
15, 136311, Note_on_c, 12, 79, 0
15, 136320, Note_on_c, 12, 70, 84
15, 136320, Note_on_c, 12, 79, 84
15, 136371, Note_on_c, 12, 70, 0
15, 136371, Note_on_c, 12, 79, 0
15, 136380, Note_on_c, 12, 70, 84
15, 136380, Note_on_c, 12, 79, 84
15, 136431, Note_on_c, 12, 70, 0
15, 136431, Note_on_c, 12, 79, 0
15, 136440, Note_on_c, 12, 79, 84
15, 136440, Note_on_c, 12, 70, 84
15, 136491, Note_on_c, 12, 79, 0
15, 136491, Note_on_c, 12, 70, 0
15, 136500, Note_on_c, 12, 79, 84
15, 136500, Note_on_c, 12, 70, 84
15, 136551, Note_on_c, 12, 79, 0
15, 136551, Note_on_c, 12, 70, 0
15, 136560, Note_on_c, 12, 70, 84
15, 136560, Note_on_c, 12, 79, 84
15, 136611, Note_on_c, 12, 70, 0
15, 136611, Note_on_c, 12, 79, 0
15, 136620, Note_on_c, 12, 70, 84
15, 136620, Note_on_c, 12, 79, 84
15, 136671, Note_on_c, 12, 70, 0
15, 136671, Note_on_c, 12, 79, 0
15, 136680, Note_on_c, 12, 79, 84
15, 136680, Note_on_c, 12, 70, 84
15, 136731, Note_on_c, 12, 79, 0
15, 136731, Note_on_c, 12, 70, 0
15, 136740, Note_on_c, 12, 70, 84
15, 136740, Note_on_c, 12, 79, 84
15, 136791, Note_on_c, 12, 70, 0
15, 136791, Note_on_c, 12, 79, 0
15, 136800, Note_on_c, 12, 79, 84
15, 136800, Note_on_c, 12, 70, 84
15, 136851, Note_on_c, 12, 79, 0
15, 136851, Note_on_c, 12, 70, 0
15, 136860, Note_on_c, 12, 70, 84
15, 136860, Note_on_c, 12, 79, 84
15, 136911, Note_on_c, 12, 70, 0
15, 136911, Note_on_c, 12, 79, 0
15, 136920, Note_on_c, 12, 79, 84
15, 136920, Note_on_c, 12, 70, 84
15, 136971, Note_on_c, 12, 79, 0
15, 136971, Note_on_c, 12, 70, 0
15, 136980, Note_on_c, 12, 70, 84
15, 136980, Note_on_c, 12, 79, 84
15, 137031, Note_on_c, 12, 70, 0
15, 137031, Note_on_c, 12, 79, 0
15, 137040, Note_on_c, 12, 70, 84
15, 137040, Note_on_c, 12, 79, 84
15, 137091, Note_on_c, 12, 70, 0
15, 137091, Note_on_c, 12, 79, 0
15, 137100, Note_on_c, 12, 70, 84
15, 137100, Note_on_c, 12, 79, 84
15, 137151, Note_on_c, 12, 70, 0
15, 137151, Note_on_c, 12, 79, 0
15, 137160, Note_on_c, 12, 79, 84
15, 137160, Note_on_c, 12, 70, 84
15, 137211, Note_on_c, 12, 79, 0
15, 137211, Note_on_c, 12, 70, 0
15, 137220, Note_on_c, 12, 79, 84
15, 137220, Note_on_c, 12, 70, 84
15, 137271, Note_on_c, 12, 79, 0
15, 137271, Note_on_c, 12, 70, 0
15, 137280, Note_on_c, 12, 71, 92
15, 137280, Note_on_c, 12, 79, 92
15, 137331, Note_on_c, 12, 71, 0
15, 137331, Note_on_c, 12, 79, 0
15, 137340, Note_on_c, 12, 71, 84
15, 137340, Note_on_c, 12, 79, 84
15, 137391, Note_on_c, 12, 71, 0
15, 137391, Note_on_c, 12, 79, 0
15, 137400, Note_on_c, 12, 79, 84
15, 137400, Note_on_c, 12, 71, 84
15, 137451, Note_on_c, 12, 79, 0
15, 137451, Note_on_c, 12, 71, 0
15, 137460, Note_on_c, 12, 79, 84
15, 137460, Note_on_c, 12, 71, 84
15, 137511, Note_on_c, 12, 79, 0
15, 137511, Note_on_c, 12, 71, 0
15, 137520, Note_on_c, 12, 72, 84
15, 137520, Note_on_c, 12, 79, 84
15, 137571, Note_on_c, 12, 72, 0
15, 137571, Note_on_c, 12, 79, 0
15, 137580, Note_on_c, 12, 72, 84
15, 137580, Note_on_c, 12, 79, 84
15, 137631, Note_on_c, 12, 72, 0
15, 137631, Note_on_c, 12, 79, 0
15, 137640, Note_on_c, 12, 72, 84
15, 137640, Note_on_c, 12, 79, 84
15, 137691, Note_on_c, 12, 72, 0
15, 137691, Note_on_c, 12, 79, 0
15, 137700, Note_on_c, 12, 79, 84
15, 137700, Note_on_c, 12, 72, 84
15, 137751, Note_on_c, 12, 79, 0
15, 137751, Note_on_c, 12, 72, 0
15, 137760, Note_on_c, 12, 72, 84
15, 137760, Note_on_c, 12, 79, 84
15, 137811, Note_on_c, 12, 72, 0
15, 137811, Note_on_c, 12, 79, 0
15, 137820, Note_on_c, 12, 72, 84
15, 137820, Note_on_c, 12, 79, 84
15, 137871, Note_on_c, 12, 72, 0
15, 137871, Note_on_c, 12, 79, 0
15, 137880, Note_on_c, 12, 72, 84
15, 137880, Note_on_c, 12, 79, 84
15, 137931, Note_on_c, 12, 72, 0
15, 137931, Note_on_c, 12, 79, 0
15, 137940, Note_on_c, 12, 72, 84
15, 137940, Note_on_c, 12, 79, 84
15, 137991, Note_on_c, 12, 72, 0
15, 137991, Note_on_c, 12, 79, 0
15, 138000, Note_on_c, 12, 72, 84
15, 138000, Note_on_c, 12, 79, 84
15, 138051, Note_on_c, 12, 72, 0
15, 138051, Note_on_c, 12, 79, 0
15, 138060, Note_on_c, 12, 79, 84
15, 138060, Note_on_c, 12, 72, 84
15, 138111, Note_on_c, 12, 79, 0
15, 138111, Note_on_c, 12, 72, 0
15, 138120, Note_on_c, 12, 79, 84
15, 138120, Note_on_c, 12, 72, 84
15, 138171, Note_on_c, 12, 79, 0
15, 138171, Note_on_c, 12, 72, 0
15, 138180, Note_on_c, 12, 72, 84
15, 138180, Note_on_c, 12, 79, 84
15, 138231, Note_on_c, 12, 72, 0
15, 138231, Note_on_c, 12, 79, 0
15, 138240, Note_on_c, 12, 79, 84
15, 138240, Note_on_c, 12, 72, 84
15, 138291, Note_on_c, 12, 79, 0
15, 138291, Note_on_c, 12, 72, 0
15, 138300, Note_on_c, 12, 79, 84
15, 138300, Note_on_c, 12, 72, 84
15, 138351, Note_on_c, 12, 79, 0
15, 138351, Note_on_c, 12, 72, 0
15, 138360, Note_on_c, 12, 72, 84
15, 138360, Note_on_c, 12, 79, 84
15, 138411, Note_on_c, 12, 72, 0
15, 138411, Note_on_c, 12, 79, 0
15, 138420, Note_on_c, 12, 79, 84
15, 138420, Note_on_c, 12, 72, 84
15, 138471, Note_on_c, 12, 79, 0
15, 138471, Note_on_c, 12, 72, 0
15, 138480, Note_on_c, 12, 72, 84
15, 138480, Note_on_c, 12, 79, 84
15, 138531, Note_on_c, 12, 72, 0
15, 138531, Note_on_c, 12, 79, 0
15, 138540, Note_on_c, 12, 72, 84
15, 138540, Note_on_c, 12, 79, 84
15, 138591, Note_on_c, 12, 72, 0
15, 138591, Note_on_c, 12, 79, 0
15, 138600, Note_on_c, 12, 72, 84
15, 138600, Note_on_c, 12, 79, 84
15, 138651, Note_on_c, 12, 72, 0
15, 138651, Note_on_c, 12, 79, 0
15, 138660, Note_on_c, 12, 79, 84
15, 138660, Note_on_c, 12, 72, 84
15, 138711, Note_on_c, 12, 79, 0
15, 138711, Note_on_c, 12, 72, 0
15, 138720, Note_on_c, 12, 70, 92
15, 138720, Note_on_c, 12, 79, 92
15, 138771, Note_on_c, 12, 70, 0
15, 138771, Note_on_c, 12, 79, 0
15, 138780, Note_on_c, 12, 70, 84
15, 138780, Note_on_c, 12, 79, 84
15, 138831, Note_on_c, 12, 70, 0
15, 138831, Note_on_c, 12, 79, 0
15, 138840, Note_on_c, 12, 70, 84
15, 138840, Note_on_c, 12, 79, 84
15, 138891, Note_on_c, 12, 70, 0
15, 138891, Note_on_c, 12, 79, 0
15, 138900, Note_on_c, 12, 79, 84
15, 138900, Note_on_c, 12, 70, 84
15, 138951, Note_on_c, 12, 79, 0
15, 138951, Note_on_c, 12, 70, 0
15, 138960, Note_on_c, 12, 80, 84
15, 138960, Note_on_c, 12, 72, 84
15, 139011, Note_on_c, 12, 80, 0
15, 139011, Note_on_c, 12, 72, 0
15, 139020, Note_on_c, 12, 72, 84
15, 139071, Note_on_c, 12, 72, 0
15, 139080, Note_on_c, 12, 72, 84
15, 139131, Note_on_c, 12, 72, 0
15, 139140, Note_on_c, 12, 72, 84
15, 139191, Note_on_c, 12, 72, 0
15, 139200, Note_on_c, 12, 72, 84
15, 139251, Note_on_c, 12, 72, 0
15, 139260, Note_on_c, 12, 72, 84
15, 139311, Note_on_c, 12, 72, 0
15, 139320, Note_on_c, 12, 72, 84
15, 139371, Note_on_c, 12, 72, 0
15, 139380, Note_on_c, 12, 72, 84
15, 139431, Note_on_c, 12, 72, 0
15, 139440, Note_on_c, 12, 72, 84
15, 139491, Note_on_c, 12, 72, 0
15, 139500, Note_on_c, 12, 72, 84
15, 139551, Note_on_c, 12, 72, 0
15, 139560, Note_on_c, 12, 72, 84
15, 139611, Note_on_c, 12, 72, 0
15, 139620, Note_on_c, 12, 72, 84
15, 139671, Note_on_c, 12, 72, 0
15, 139680, Note_on_c, 12, 72, 84
15, 139731, Note_on_c, 12, 72, 0
15, 139740, Note_on_c, 12, 72, 84
15, 139791, Note_on_c, 12, 72, 0
15, 139800, Note_on_c, 12, 70, 84
15, 139851, Note_on_c, 12, 70, 0
15, 139860, Note_on_c, 12, 70, 84
15, 139911, Note_on_c, 12, 70, 0
15, 139920, Note_on_c, 12, 69, 84
15, 139971, Note_on_c, 12, 69, 0
15, 139980, Note_on_c, 12, 69, 84
15, 140031, Note_on_c, 12, 69, 0
15, 140040, Note_on_c, 12, 70, 84
15, 140091, Note_on_c, 12, 70, 0
15, 140100, Note_on_c, 12, 70, 84
15, 140151, Note_on_c, 12, 70, 0
15, 140160, Note_on_c, 12, 72, 84
15, 140211, Note_on_c, 12, 72, 0
15, 140220, Note_on_c, 12, 72, 84
15, 140271, Note_on_c, 12, 72, 0
15, 140280, Note_on_c, 12, 70, 84
15, 140331, Note_on_c, 12, 70, 0
15, 140340, Note_on_c, 12, 70, 84
15, 140391, Note_on_c, 12, 70, 0
15, 140400, Note_on_c, 12, 69, 84
15, 140489, Note_on_c, 12, 69, 0
15, 140520, Note_on_c, 12, 57, 52
15, 140609, Note_on_c, 12, 57, 0
15, 140640, Note_on_c, 12, 60, 52
15, 140759, Note_on_c, 12, 60, 0
15, 140760, Note_on_c, 12, 57, 52
15, 140879, Note_on_c, 12, 57, 0
15, 140880, Note_on_c, 12, 60, 52
15, 140999, Note_on_c, 12, 60, 0
15, 141000, Note_on_c, 12, 57, 52
15, 141104, Note_on_c, 12, 57, 0
15, 141120, Note_on_c, 12, 60, 52
15, 141239, Note_on_c, 12, 60, 0
15, 141240, Note_on_c, 12, 57, 52
15, 141359, Note_on_c, 12, 57, 0
15, 141360, Note_on_c, 12, 60, 52
15, 141479, Note_on_c, 12, 60, 0
15, 141480, Note_on_c, 12, 57, 52
15, 141599, Note_on_c, 12, 57, 0
15, 141600, Note_on_c, 12, 60, 52
15, 141719, Note_on_c, 12, 60, 0
15, 141720, Note_on_c, 12, 57, 52
15, 141824, Note_on_c, 12, 57, 0
15, 141840, Note_on_c, 12, 60, 52
15, 141959, Note_on_c, 12, 60, 0
15, 141960, Note_on_c, 12, 57, 52
15, 142079, Note_on_c, 12, 57, 0
15, 142080, Note_on_c, 12, 60, 52
15, 142199, Note_on_c, 12, 60, 0
15, 142200, Note_on_c, 12, 57, 52
15, 142319, Note_on_c, 12, 57, 0
15, 142320, Note_on_c, 12, 60, 52
15, 142439, Note_on_c, 12, 60, 0
15, 142440, Note_on_c, 12, 57, 52
15, 142544, Note_on_c, 12, 57, 0
15, 142560, Note_on_c, 12, 60, 52
15, 142679, Note_on_c, 12, 60, 0
15, 142680, Note_on_c, 12, 57, 52
15, 142799, Note_on_c, 12, 57, 0
15, 142800, Note_on_c, 12, 60, 52
15, 142919, Note_on_c, 12, 60, 0
15, 142920, Note_on_c, 12, 57, 52
15, 143039, Note_on_c, 12, 57, 0
15, 143040, Note_on_c, 12, 60, 52
15, 143159, Note_on_c, 12, 60, 0
15, 143160, Note_on_c, 12, 57, 52
15, 143264, Note_on_c, 12, 57, 0
15, 143280, Note_on_c, 12, 62, 52
15, 143399, Note_on_c, 12, 62, 0
15, 143400, Note_on_c, 12, 58, 52
15, 143519, Note_on_c, 12, 58, 0
15, 143520, Note_on_c, 12, 62, 52
15, 143639, Note_on_c, 12, 62, 0
15, 143640, Note_on_c, 12, 58, 52
15, 143759, Note_on_c, 12, 58, 0
15, 143760, Note_on_c, 12, 62, 52
15, 143879, Note_on_c, 12, 62, 0
15, 143880, Note_on_c, 12, 58, 52
15, 143984, Note_on_c, 12, 58, 0
15, 144000, Note_on_c, 12, 62, 52
15, 144119, Note_on_c, 12, 62, 0
15, 144120, Note_on_c, 12, 58, 52
15, 144239, Note_on_c, 12, 58, 0
15, 144240, Note_on_c, 12, 62, 52
15, 144359, Note_on_c, 12, 62, 0
15, 144360, Note_on_c, 12, 58, 52
15, 144479, Note_on_c, 12, 58, 0
15, 144480, Note_on_c, 12, 62, 52
15, 144599, Note_on_c, 12, 62, 0
15, 144600, Note_on_c, 12, 58, 52
15, 144704, Note_on_c, 12, 58, 0
15, 144720, Note_on_c, 12, 62, 52
15, 144839, Note_on_c, 12, 62, 0
15, 144840, Note_on_c, 12, 58, 52
15, 144959, Note_on_c, 12, 58, 0
15, 144960, Note_on_c, 12, 62, 52
15, 145079, Note_on_c, 12, 62, 0
15, 145080, Note_on_c, 12, 58, 52
15, 145199, Note_on_c, 12, 58, 0
15, 145200, Note_on_c, 12, 62, 52
15, 145319, Note_on_c, 12, 62, 0
15, 145320, Note_on_c, 12, 58, 52
15, 145424, Note_on_c, 12, 58, 0
15, 145440, Note_on_c, 12, 62, 52
15, 145559, Note_on_c, 12, 62, 0
15, 145560, Note_on_c, 12, 58, 52
15, 145679, Note_on_c, 12, 58, 0
15, 145680, Note_on_c, 12, 62, 52
15, 145799, Note_on_c, 12, 62, 0
15, 145800, Note_on_c, 12, 58, 52
15, 145919, Note_on_c, 12, 58, 0
15, 145920, Note_on_c, 12, 62, 52
15, 146039, Note_on_c, 12, 62, 0
15, 146040, Note_on_c, 12, 58, 52
15, 146144, Note_on_c, 12, 58, 0
15, 146160, Note_on_c, 12, 63, 52
15, 146249, Note_on_c, 12, 63, 0
15, 146280, Note_on_c, 12, 57, 52
15, 146399, Note_on_c, 12, 57, 0
15, 146400, Note_on_c, 12, 60, 52
15, 146519, Note_on_c, 12, 60, 0
15, 146520, Note_on_c, 12, 57, 52
15, 146639, Note_on_c, 12, 57, 0
15, 146640, Note_on_c, 12, 60, 52
15, 146759, Note_on_c, 12, 60, 0
15, 146760, Note_on_c, 12, 57, 52
15, 146864, Note_on_c, 12, 57, 0
15, 146880, Note_on_c, 12, 60, 52
15, 146999, Note_on_c, 12, 60, 0
15, 147000, Note_on_c, 12, 57, 52
15, 147119, Note_on_c, 12, 57, 0
15, 147120, Note_on_c, 12, 60, 52
15, 147239, Note_on_c, 12, 60, 0
15, 147240, Note_on_c, 12, 57, 52
15, 147359, Note_on_c, 12, 57, 0
15, 147360, Note_on_c, 12, 60, 52
15, 147479, Note_on_c, 12, 60, 0
15, 147480, Note_on_c, 12, 57, 52
15, 147584, Note_on_c, 12, 57, 0
15, 147600, Note_on_c, 12, 60, 52
15, 147824, Note_on_c, 12, 60, 0
15, 147840, Note_on_c, 12, 67, 84
15, 148184, Note_on_c, 12, 67, 0
15, 148200, Note_on_c, 12, 65, 84
15, 148304, Note_on_c, 12, 65, 0
15, 148320, Note_on_c, 12, 63, 84
15, 148499, Note_on_c, 12, 63, 0
15, 148560, Note_on_c, 12, 62, 84
15, 148739, Note_on_c, 12, 62, 0
15, 148800, Note_on_c, 12, 60, 84
15, 148979, Note_on_c, 12, 60, 0
15, 149025, Control_c, 12, 11, 96
15, 149040, Control_c, 12, 11, 96
15, 149040, Note_on_c, 12, 58, 68
15, 149100, Control_c, 12, 11, 99
15, 149160, Control_c, 12, 11, 101
15, 149220, Control_c, 12, 11, 104
15, 149280, Control_c, 12, 11, 106
15, 149340, Control_c, 12, 11, 109
15, 149400, Control_c, 12, 11, 112
15, 149460, Control_c, 12, 11, 114
15, 149520, Control_c, 12, 11, 117
15, 149580, Control_c, 12, 11, 119
15, 149640, Control_c, 12, 11, 122
15, 149700, Control_c, 12, 11, 124
15, 149759, Note_on_c, 12, 58, 0
15, 149760, Note_on_c, 12, 58, 68
15, 149760, Control_c, 12, 11, 127
15, 149820, Control_c, 12, 11, 124
15, 149880, Control_c, 12, 11, 122
15, 149940, Control_c, 12, 11, 119
15, 150000, Control_c, 12, 11, 117
15, 150060, Control_c, 12, 11, 114
15, 150120, Control_c, 12, 11, 112
15, 150180, Control_c, 12, 11, 109
15, 150240, Control_c, 12, 11, 106
15, 150300, Control_c, 12, 11, 104
15, 150360, Control_c, 12, 11, 101
15, 150420, Control_c, 12, 11, 96
15, 150719, Note_on_c, 12, 58, 0
15, 150720, Note_on_c, 12, 65, 68
15, 150944, Note_on_c, 12, 65, 0
15, 150960, Note_on_c, 12, 65, 68
15, 151169, Note_on_c, 12, 65, 0
15, 151200, Note_on_c, 12, 65, 68
15, 151409, Note_on_c, 12, 65, 0
15, 151440, Note_on_c, 12, 65, 68
15, 151649, Note_on_c, 12, 65, 0
15, 151680, Note_on_c, 12, 65, 68
15, 151889, Note_on_c, 12, 65, 0
15, 151905, Control_c, 12, 11, 80
15, 151920, Control_c, 12, 11, 80
15, 151920, Note_on_c, 12, 65, 76
15, 152009, Note_on_c, 12, 65, 0
15, 152040, Note_on_c, 12, 70, 76
15, 152040, Control_c, 12, 11, 82
15, 152159, Note_on_c, 12, 70, 0
15, 152160, Control_c, 12, 11, 84
15, 152160, Note_on_c, 12, 69, 76
15, 152279, Note_on_c, 12, 69, 0
15, 152280, Note_on_c, 12, 70, 76
15, 152280, Control_c, 12, 11, 86
15, 152399, Note_on_c, 12, 70, 0
15, 152400, Control_c, 12, 11, 88
15, 152400, Note_on_c, 12, 72, 76
15, 152519, Note_on_c, 12, 72, 0
15, 152520, Control_c, 12, 11, 90
15, 152520, Note_on_c, 12, 74, 76
15, 152624, Note_on_c, 12, 74, 0
15, 152640, Note_on_c, 12, 75, 76
15, 152640, Control_c, 12, 11, 92
15, 152759, Note_on_c, 12, 75, 0
15, 152760, Control_c, 12, 11, 94
15, 152760, Note_on_c, 12, 77, 76
15, 152864, Note_on_c, 12, 77, 0
15, 152880, Control_c, 12, 11, 96
15, 152880, Note_on_c, 12, 79, 76
15, 152969, Note_on_c, 12, 79, 0
15, 153000, Note_on_c, 12, 70, 76
15, 153000, Control_c, 12, 11, 98
15, 153089, Note_on_c, 12, 70, 0
15, 153120, Control_c, 12, 11, 100
15, 153120, Note_on_c, 12, 69, 76
15, 153209, Note_on_c, 12, 69, 0
15, 153240, Control_c, 12, 11, 102
15, 153240, Note_on_c, 12, 67, 76
15, 153329, Note_on_c, 12, 67, 0
15, 153360, Note_on_c, 12, 65, 76
15, 153360, Control_c, 12, 11, 104
15, 153449, Note_on_c, 12, 65, 0
15, 153480, Control_c, 12, 11, 105
15, 153480, Note_on_c, 12, 70, 76
15, 153569, Note_on_c, 12, 70, 0
15, 153600, Note_on_c, 12, 69, 76
15, 153600, Control_c, 12, 11, 107
15, 153689, Note_on_c, 12, 69, 0
15, 153720, Control_c, 12, 11, 109
15, 153720, Note_on_c, 12, 70, 76
15, 153809, Note_on_c, 12, 70, 0
15, 153840, Note_on_c, 12, 72, 76
15, 153840, Control_c, 12, 11, 111
15, 153929, Note_on_c, 12, 72, 0
15, 153960, Control_c, 12, 11, 113
15, 153960, Note_on_c, 12, 74, 76
15, 154049, Note_on_c, 12, 74, 0
15, 154080, Control_c, 12, 11, 115
15, 154080, Note_on_c, 12, 75, 76
15, 154169, Note_on_c, 12, 75, 0
15, 154200, Control_c, 12, 11, 117
15, 154200, Note_on_c, 12, 75, 76
15, 154289, Note_on_c, 12, 75, 0
15, 154320, Control_c, 12, 11, 119
15, 154320, Note_on_c, 12, 75, 76
15, 154409, Note_on_c, 12, 75, 0
15, 154440, Note_on_c, 12, 75, 76
15, 154440, Control_c, 12, 11, 121
15, 154529, Note_on_c, 12, 75, 0
15, 154560, Note_on_c, 12, 75, 76
15, 154560, Control_c, 12, 11, 123
15, 154649, Note_on_c, 12, 75, 0
15, 154680, Control_c, 12, 11, 127
15, 154680, Note_on_c, 12, 75, 76
15, 154769, Note_on_c, 12, 75, 0
15, 154800, Note_on_c, 12, 75, 76
15, 154979, Note_on_c, 12, 75, 0
15, 155040, Note_on_c, 12, 69, 76
15, 155219, Note_on_c, 12, 69, 0
15, 155640, Note_on_c, 12, 63, 76
15, 155699, Note_on_c, 12, 63, 0
15, 155700, Note_on_c, 12, 65, 76
15, 155751, Note_on_c, 12, 65, 0
15, 155760, Note_on_c, 12, 63, 76
15, 155849, Note_on_c, 12, 63, 0
15, 155880, Note_on_c, 12, 60, 76
15, 155939, Note_on_c, 12, 60, 0
15, 155940, Note_on_c, 12, 62, 76
15, 155991, Note_on_c, 12, 62, 0
15, 156000, Note_on_c, 12, 60, 76
15, 156089, Note_on_c, 12, 60, 0
15, 156120, Note_on_c, 12, 69, 76
15, 156209, Note_on_c, 12, 69, 0
15, 156240, Note_on_c, 12, 70, 76
15, 156419, Note_on_c, 12, 70, 0
15, 156480, Note_on_c, 12, 70, 76
15, 156480, Note_on_c, 12, 62, 76
15, 156659, Note_on_c, 12, 70, 0
15, 156659, Note_on_c, 12, 62, 0
15, 157080, Note_on_c, 12, 62, 76
15, 157139, Note_on_c, 12, 62, 0
15, 157140, Note_on_c, 12, 63, 76
15, 157191, Note_on_c, 12, 63, 0
15, 157200, Note_on_c, 12, 62, 76
15, 157289, Note_on_c, 12, 62, 0
15, 157320, Note_on_c, 12, 58, 76
15, 157379, Note_on_c, 12, 58, 0
15, 157380, Note_on_c, 12, 60, 76
15, 157431, Note_on_c, 12, 60, 0
15, 157440, Note_on_c, 12, 58, 76
15, 157529, Note_on_c, 12, 58, 0
15, 157560, Note_on_c, 12, 70, 76
15, 157649, Note_on_c, 12, 70, 0
15, 157680, Note_on_c, 12, 71, 76
15, 157859, Note_on_c, 12, 71, 0
15, 157920, Note_on_c, 12, 71, 76
15, 157920, Note_on_c, 12, 80, 76
15, 158099, Note_on_c, 12, 71, 0
15, 158099, Note_on_c, 12, 80, 0
15, 158520, Note_on_c, 12, 74, 76
15, 158579, Note_on_c, 12, 74, 0
15, 158580, Note_on_c, 12, 75, 76
15, 158631, Note_on_c, 12, 75, 0
15, 158640, Note_on_c, 12, 74, 76
15, 158729, Note_on_c, 12, 74, 0
15, 158760, Note_on_c, 12, 62, 76
15, 158819, Note_on_c, 12, 62, 0
15, 158820, Note_on_c, 12, 63, 76
15, 158871, Note_on_c, 12, 63, 0
15, 158880, Note_on_c, 12, 62, 76
15, 158969, Note_on_c, 12, 62, 0
15, 159000, Note_on_c, 12, 62, 76
15, 159000, Note_on_c, 12, 71, 76
15, 159089, Note_on_c, 12, 62, 0
15, 159089, Note_on_c, 12, 71, 0
15, 159120, Note_on_c, 12, 72, 76
15, 159120, Note_on_c, 12, 63, 76
15, 159209, Note_on_c, 12, 72, 0
15, 159209, Note_on_c, 12, 63, 0
15, 159240, Note_on_c, 12, 67, 76
15, 159464, Note_on_c, 12, 67, 0
15, 159480, Note_on_c, 12, 72, 76
15, 159569, Note_on_c, 12, 72, 0
15, 159600, Note_on_c, 12, 72, 76
15, 159689, Note_on_c, 12, 72, 0
15, 159720, Note_on_c, 12, 74, 76
15, 159809, Note_on_c, 12, 74, 0
15, 159840, Note_on_c, 12, 74, 76
15, 159929, Note_on_c, 12, 74, 0
15, 159960, Note_on_c, 12, 75, 76
15, 160184, Note_on_c, 12, 75, 0
15, 160200, Note_on_c, 12, 75, 76
15, 160289, Note_on_c, 12, 75, 0
15, 160320, Note_on_c, 12, 75, 76
15, 160409, Note_on_c, 12, 75, 0
15, 160440, Note_on_c, 12, 77, 76
15, 160529, Note_on_c, 12, 77, 0
15, 160560, Note_on_c, 12, 77, 76
15, 160649, Note_on_c, 12, 77, 0
15, 160680, Note_on_c, 12, 70, 76
15, 160769, Note_on_c, 12, 70, 0
15, 160800, Note_on_c, 12, 82, 76
15, 160889, Note_on_c, 12, 82, 0
15, 160920, Note_on_c, 12, 70, 76
15, 161009, Note_on_c, 12, 70, 0
15, 161040, Note_on_c, 12, 82, 76
15, 161129, Note_on_c, 12, 82, 0
15, 161160, Note_on_c, 12, 70, 76
15, 161249, Note_on_c, 12, 70, 0
15, 161280, Note_on_c, 12, 82, 76
15, 161369, Note_on_c, 12, 82, 0
15, 161400, Note_on_c, 12, 70, 76
15, 161489, Note_on_c, 12, 70, 0
15, 161520, Note_on_c, 12, 82, 76
15, 161609, Note_on_c, 12, 82, 0
15, 161640, Note_on_c, 12, 70, 76
15, 161729, Note_on_c, 12, 70, 0
15, 161760, Note_on_c, 12, 82, 76
15, 161849, Note_on_c, 12, 82, 0
15, 161880, Note_on_c, 12, 70, 76
15, 161969, Note_on_c, 12, 70, 0
15, 162000, Note_on_c, 12, 82, 76
15, 162051, Note_on_c, 12, 82, 0
15, 162060, Note_on_c, 12, 70, 76
15, 162111, Note_on_c, 12, 70, 0
15, 162120, Note_on_c, 12, 70, 76
15, 162171, Note_on_c, 12, 70, 0
15, 162180, Note_on_c, 12, 70, 76
15, 162231, Note_on_c, 12, 70, 0
15, 162240, Note_on_c, 12, 70, 76
15, 162291, Note_on_c, 12, 70, 0
15, 162300, Note_on_c, 12, 70, 76
15, 162351, Note_on_c, 12, 70, 0
15, 162360, Note_on_c, 12, 70, 76
15, 162411, Note_on_c, 12, 70, 0
15, 162420, Note_on_c, 12, 70, 76
15, 162471, Note_on_c, 12, 70, 0
15, 162480, Note_on_c, 12, 71, 76
15, 162531, Note_on_c, 12, 71, 0
15, 162540, Note_on_c, 12, 71, 76
15, 162591, Note_on_c, 12, 71, 0
15, 162600, Note_on_c, 12, 71, 76
15, 162651, Note_on_c, 12, 71, 0
15, 162660, Note_on_c, 12, 71, 76
15, 162711, Note_on_c, 12, 71, 0
15, 162720, Note_on_c, 12, 72, 76
15, 162771, Note_on_c, 12, 72, 0
15, 162780, Note_on_c, 12, 72, 76
15, 162831, Note_on_c, 12, 72, 0
15, 162840, Note_on_c, 12, 74, 76
15, 162891, Note_on_c, 12, 74, 0
15, 162900, Note_on_c, 12, 74, 76
15, 162951, Note_on_c, 12, 74, 0
15, 162960, Note_on_c, 12, 77, 76
15, 163011, Note_on_c, 12, 77, 0
15, 163020, Note_on_c, 12, 77, 76
15, 163071, Note_on_c, 12, 77, 0
15, 163080, Note_on_c, 12, 75, 76
15, 163131, Note_on_c, 12, 75, 0
15, 163140, Note_on_c, 12, 75, 76
15, 163191, Note_on_c, 12, 75, 0
15, 163200, Note_on_c, 12, 74, 76
15, 163251, Note_on_c, 12, 74, 0
15, 163260, Note_on_c, 12, 74, 76
15, 163311, Note_on_c, 12, 74, 0
15, 163320, Note_on_c, 12, 72, 76
15, 163371, Note_on_c, 12, 72, 0
15, 163380, Note_on_c, 12, 72, 76
15, 163431, Note_on_c, 12, 72, 0
15, 163440, Note_on_c, 12, 70, 76
15, 163491, Note_on_c, 12, 70, 0
15, 163500, Note_on_c, 12, 70, 76
15, 163551, Note_on_c, 12, 70, 0
15, 163560, Note_on_c, 12, 65, 76
15, 163611, Note_on_c, 12, 65, 0
15, 163620, Note_on_c, 12, 65, 76
15, 163671, Note_on_c, 12, 65, 0
15, 163680, Note_on_c, 12, 67, 76
15, 163731, Note_on_c, 12, 67, 0
15, 163740, Note_on_c, 12, 67, 76
15, 163791, Note_on_c, 12, 67, 0
15, 163800, Note_on_c, 12, 69, 76
15, 163851, Note_on_c, 12, 69, 0
15, 163860, Note_on_c, 12, 69, 76
15, 163911, Note_on_c, 12, 69, 0
15, 163920, Note_on_c, 12, 70, 76
15, 163971, Note_on_c, 12, 70, 0
15, 163980, Note_on_c, 12, 70, 76
15, 164031, Note_on_c, 12, 70, 0
15, 164040, Note_on_c, 12, 72, 76
15, 164091, Note_on_c, 12, 72, 0
15, 164100, Note_on_c, 12, 72, 76
15, 164151, Note_on_c, 12, 72, 0
15, 164160, Note_on_c, 12, 74, 76
15, 164211, Note_on_c, 12, 74, 0
15, 164220, Note_on_c, 12, 74, 76
15, 164271, Note_on_c, 12, 74, 0
15, 164280, Note_on_c, 12, 75, 76
15, 164331, Note_on_c, 12, 75, 0
15, 164340, Note_on_c, 12, 75, 76
15, 164391, Note_on_c, 12, 75, 0
15, 164400, Note_on_c, 12, 76, 76
15, 164451, Note_on_c, 12, 76, 0
15, 164460, Note_on_c, 12, 76, 76
15, 164511, Note_on_c, 12, 76, 0
15, 164520, Note_on_c, 12, 77, 76
15, 164571, Note_on_c, 12, 77, 0
15, 164580, Note_on_c, 12, 77, 76
15, 164631, Note_on_c, 12, 77, 0
15, 164640, Note_on_c, 12, 75, 76
15, 164691, Note_on_c, 12, 75, 0
15, 164700, Note_on_c, 12, 75, 76
15, 164751, Note_on_c, 12, 75, 0
15, 164760, Note_on_c, 12, 74, 76
15, 164811, Note_on_c, 12, 74, 0
15, 164820, Note_on_c, 12, 74, 76
15, 164871, Note_on_c, 12, 74, 0
15, 164880, Note_on_c, 12, 72, 76
15, 164931, Note_on_c, 12, 72, 0
15, 164940, Note_on_c, 12, 72, 76
15, 164991, Note_on_c, 12, 72, 0
15, 165000, Note_on_c, 12, 74, 76
15, 165051, Note_on_c, 12, 74, 0
15, 165060, Note_on_c, 12, 74, 76
15, 165111, Note_on_c, 12, 74, 0
15, 165120, Note_on_c, 12, 75, 76
15, 165171, Note_on_c, 12, 75, 0
15, 165180, Note_on_c, 12, 75, 76
15, 165231, Note_on_c, 12, 75, 0
15, 165240, Note_on_c, 12, 74, 76
15, 165291, Note_on_c, 12, 74, 0
15, 165300, Note_on_c, 12, 74, 76
15, 165351, Note_on_c, 12, 74, 0
15, 165360, Note_on_c, 12, 72, 76
15, 165411, Note_on_c, 12, 72, 0
15, 165420, Note_on_c, 12, 72, 76
15, 165471, Note_on_c, 12, 72, 0
15, 165480, Note_on_c, 12, 70, 76
15, 165531, Note_on_c, 12, 70, 0
15, 165540, Note_on_c, 12, 70, 76
15, 165591, Note_on_c, 12, 70, 0
15, 165600, Note_on_c, 12, 69, 76
15, 165651, Note_on_c, 12, 69, 0
15, 165660, Note_on_c, 12, 69, 76
15, 165711, Note_on_c, 12, 69, 0
15, 165720, Note_on_c, 12, 70, 76
15, 165771, Note_on_c, 12, 70, 0
15, 165780, Note_on_c, 12, 70, 76
15, 165831, Note_on_c, 12, 70, 0
15, 165840, Note_on_c, 12, 72, 76
15, 165891, Note_on_c, 12, 72, 0
15, 165900, Note_on_c, 12, 72, 76
15, 165951, Note_on_c, 12, 72, 0
15, 165960, Note_on_c, 12, 70, 76
15, 166011, Note_on_c, 12, 70, 0
15, 166020, Note_on_c, 12, 70, 76
15, 166071, Note_on_c, 12, 70, 0
15, 166080, Note_on_c, 12, 69, 76
15, 166131, Note_on_c, 12, 69, 0
15, 166140, Note_on_c, 12, 69, 76
15, 166191, Note_on_c, 12, 69, 0
15, 166200, Note_on_c, 12, 67, 76
15, 166251, Note_on_c, 12, 67, 0
15, 166260, Note_on_c, 12, 67, 76
15, 166311, Note_on_c, 12, 67, 0
15, 166320, Note_on_c, 12, 65, 84
15, 166371, Note_on_c, 12, 65, 0
15, 166380, Note_on_c, 12, 65, 84
15, 166431, Note_on_c, 12, 65, 0
15, 166440, Note_on_c, 12, 64, 84
15, 166491, Note_on_c, 12, 64, 0
15, 166500, Note_on_c, 12, 64, 84
15, 166551, Note_on_c, 12, 64, 0
15, 166560, Note_on_c, 12, 63, 84
15, 166611, Note_on_c, 12, 63, 0
15, 166620, Note_on_c, 12, 63, 84
15, 166671, Note_on_c, 12, 63, 0
15, 166680, Note_on_c, 12, 62, 84
15, 166731, Note_on_c, 12, 62, 0
15, 166740, Note_on_c, 12, 62, 84
15, 166791, Note_on_c, 12, 62, 0
15, 166800, Note_on_c, 12, 60, 84
15, 166851, Note_on_c, 12, 60, 0
15, 166860, Note_on_c, 12, 60, 84
15, 166911, Note_on_c, 12, 60, 0
15, 166920, Note_on_c, 12, 58, 84
15, 166971, Note_on_c, 12, 58, 0
15, 166980, Note_on_c, 12, 58, 84
15, 167031, Note_on_c, 12, 58, 0
15, 167040, Note_on_c, 12, 57, 84
15, 167091, Note_on_c, 12, 57, 0
15, 167100, Note_on_c, 12, 57, 84
15, 167151, Note_on_c, 12, 57, 0
15, 167160, Note_on_c, 12, 67, 84
15, 167211, Note_on_c, 12, 67, 0
15, 167220, Note_on_c, 12, 67, 84
15, 167271, Note_on_c, 12, 67, 0
15, 167280, Note_on_c, 12, 65, 84
15, 167331, Note_on_c, 12, 65, 0
15, 167340, Note_on_c, 12, 65, 84
15, 167391, Note_on_c, 12, 65, 0
15, 167400, Note_on_c, 12, 63, 84
15, 167451, Note_on_c, 12, 63, 0
15, 167460, Note_on_c, 12, 63, 84
15, 167511, Note_on_c, 12, 63, 0
15, 167520, Note_on_c, 12, 62, 84
15, 167571, Note_on_c, 12, 62, 0
15, 167580, Note_on_c, 12, 62, 84
15, 167631, Note_on_c, 12, 62, 0
15, 167640, Note_on_c, 12, 60, 84
15, 167691, Note_on_c, 12, 60, 0
15, 167700, Note_on_c, 12, 60, 84
15, 167751, Note_on_c, 12, 60, 0
15, 167760, Note_on_c, 12, 58, 84
15, 167999, Note_on_c, 12, 58, 0
15, 170640, Control_c, 12, 11, 96
15, 170880, Note_on_c, 12, 67, 68
15, 171089, Note_on_c, 12, 67, 0
15, 171120, Note_on_c, 12, 68, 68
15, 171329, Note_on_c, 12, 68, 0
15, 171360, Control_c, 12, 11, 96
15, 171360, Note_on_c, 12, 69, 68
15, 171420, Control_c, 12, 11, 99
15, 171480, Control_c, 12, 11, 101
15, 171540, Control_c, 12, 11, 104
15, 171569, Note_on_c, 12, 69, 0
15, 171600, Note_on_c, 12, 69, 68
15, 171600, Control_c, 12, 11, 106
15, 171660, Control_c, 12, 11, 109
15, 171720, Control_c, 12, 11, 112
15, 171780, Control_c, 12, 11, 114
15, 171809, Note_on_c, 12, 69, 0
15, 171840, Control_c, 12, 11, 117
15, 171840, Note_on_c, 12, 69, 68
15, 171900, Control_c, 12, 11, 119
15, 171960, Control_c, 12, 11, 122
15, 172020, Control_c, 12, 11, 127
15, 172049, Note_on_c, 12, 69, 0
15, 172080, Note_on_c, 12, 69, 68
15, 172304, Note_on_c, 12, 69, 0
15, 172320, Note_on_c, 12, 69, 76
15, 172769, Note_on_c, 12, 69, 0
15, 172800, Control_c, 12, 11, 127
15, 172800, Note_on_c, 12, 69, 76
15, 172860, Control_c, 12, 11, 124
15, 172920, Control_c, 12, 11, 122
15, 172980, Control_c, 12, 11, 119
15, 173040, Control_c, 12, 11, 117
15, 173100, Control_c, 12, 11, 114
15, 173160, Control_c, 12, 11, 112
15, 173220, Control_c, 12, 11, 109
15, 173279, Note_on_c, 12, 69, 0
15, 173280, Control_c, 12, 11, 106
15, 173280, Note_on_c, 12, 69, 68
15, 173340, Control_c, 12, 11, 104
15, 173399, Note_on_c, 12, 69, 0
15, 173400, Note_on_c, 12, 72, 68
15, 173400, Control_c, 12, 11, 101
15, 173460, Control_c, 12, 11, 96
15, 173519, Note_on_c, 12, 72, 0
15, 173520, Note_on_c, 12, 70, 68
15, 173759, Note_on_c, 12, 70, 0
15, 177360, Note_on_c, 12, 56, 68
15, 177569, Note_on_c, 12, 56, 0
15, 177600, Note_on_c, 12, 56, 68
15, 177809, Note_on_c, 12, 56, 0
15, 177840, Note_on_c, 12, 58, 68
15, 177840, Control_c, 12, 11, 96
15, 177880, Control_c, 12, 11, 99
15, 177920, Control_c, 12, 11, 101
15, 177960, Control_c, 12, 11, 104
15, 178000, Control_c, 12, 11, 106
15, 178040, Control_c, 12, 11, 109
15, 178080, Control_c, 12, 11, 112
15, 178120, Control_c, 12, 11, 114
15, 178160, Control_c, 12, 11, 117
15, 178200, Control_c, 12, 11, 119
15, 178240, Control_c, 12, 11, 122
15, 178280, Control_c, 12, 11, 124
15, 178320, Control_c, 12, 11, 127
15, 178360, Control_c, 12, 11, 122
15, 178400, Control_c, 12, 11, 117
15, 178440, Control_c, 12, 11, 112
15, 178480, Control_c, 12, 11, 106
15, 178520, Control_c, 12, 11, 101
15, 178559, Note_on_c, 12, 58, 0
15, 179280, Control_c, 12, 11, 127
15, 179520, Note_on_c, 12, 66, 44
15, 179699, Note_on_c, 12, 66, 0
15, 179760, Note_on_c, 12, 66, 44
15, 179939, Note_on_c, 12, 66, 0
15, 180240, Note_on_c, 12, 65, 44
15, 180419, Note_on_c, 12, 65, 0
15, 180480, Note_on_c, 12, 68, 44
15, 180659, Note_on_c, 12, 68, 0
15, 180960, Note_on_c, 12, 69, 44
15, 181139, Note_on_c, 12, 69, 0
15, 181200, Note_on_c, 12, 70, 44
15, 181379, Note_on_c, 12, 70, 0
15, 181440, Note_on_c, 12, 72, 44
15, 181619, Note_on_c, 12, 72, 0
15, 181680, Note_on_c, 12, 74, 44
15, 181859, Note_on_c, 12, 74, 0
15, 181920, Note_on_c, 12, 74, 44
15, 182099, Note_on_c, 12, 74, 0
15, 182160, Note_on_c, 12, 75, 44
15, 182249, Note_on_c, 12, 75, 0
15, 182280, Note_on_c, 12, 74, 44
15, 182369, Note_on_c, 12, 74, 0
15, 182400, Note_on_c, 12, 72, 44
15, 182489, Note_on_c, 12, 72, 0
15, 182520, Note_on_c, 12, 70, 44
15, 182609, Note_on_c, 12, 70, 0
15, 182640, Note_on_c, 12, 69, 44
15, 182729, Note_on_c, 12, 69, 0
15, 182760, Note_on_c, 12, 70, 44
15, 182849, Note_on_c, 12, 70, 0
15, 182880, Note_on_c, 12, 72, 44
15, 182969, Note_on_c, 12, 72, 0
15, 183000, Note_on_c, 12, 70, 44
15, 183089, Note_on_c, 12, 70, 0
15, 183120, Note_on_c, 12, 69, 44
15, 183209, Note_on_c, 12, 69, 0
15, 183240, Note_on_c, 12, 70, 44
15, 183329, Note_on_c, 12, 70, 0
15, 183360, Note_on_c, 12, 72, 44
15, 183449, Note_on_c, 12, 72, 0
15, 183480, Note_on_c, 12, 74, 44
15, 183569, Note_on_c, 12, 74, 0
15, 183600, Note_on_c, 12, 75, 44
15, 183689, Note_on_c, 12, 75, 0
15, 183720, Note_on_c, 12, 74, 45
15, 183809, Note_on_c, 12, 74, 0
15, 183840, Note_on_c, 12, 72, 46
15, 183929, Note_on_c, 12, 72, 0
15, 183960, Note_on_c, 12, 70, 48
15, 184049, Note_on_c, 12, 70, 0
15, 184080, Note_on_c, 12, 69, 49
15, 184169, Note_on_c, 12, 69, 0
15, 184200, Note_on_c, 12, 70, 50
15, 184289, Note_on_c, 12, 70, 0
15, 184320, Note_on_c, 12, 72, 52
15, 184409, Note_on_c, 12, 72, 0
15, 184440, Note_on_c, 12, 70, 53
15, 184529, Note_on_c, 12, 70, 0
15, 184560, Note_on_c, 12, 69, 54
15, 184649, Note_on_c, 12, 69, 0
15, 184680, Note_on_c, 12, 70, 56
15, 184769, Note_on_c, 12, 70, 0
15, 184800, Note_on_c, 12, 72, 57
15, 184889, Note_on_c, 12, 72, 0
15, 184920, Note_on_c, 12, 74, 58
15, 185009, Note_on_c, 12, 74, 0
15, 185040, Note_on_c, 12, 75, 60
15, 185129, Note_on_c, 12, 75, 0
15, 185160, Note_on_c, 12, 74, 61
15, 185249, Note_on_c, 12, 74, 0
15, 185280, Note_on_c, 12, 72, 62
15, 185369, Note_on_c, 12, 72, 0
15, 185400, Note_on_c, 12, 71, 64
15, 185489, Note_on_c, 12, 71, 0
15, 185520, Note_on_c, 12, 72, 65
15, 185609, Note_on_c, 12, 72, 0
15, 185640, Note_on_c, 12, 74, 66
15, 185729, Note_on_c, 12, 74, 0
15, 185760, Note_on_c, 12, 75, 68
15, 185849, Note_on_c, 12, 75, 0
15, 185880, Note_on_c, 12, 77, 69
15, 185969, Note_on_c, 12, 77, 0
15, 186000, Note_on_c, 12, 79, 70
15, 186089, Note_on_c, 12, 79, 0
15, 186120, Note_on_c, 12, 81, 72
15, 186209, Note_on_c, 12, 81, 0
15, 186240, Note_on_c, 12, 82, 73
15, 186329, Note_on_c, 12, 82, 0
15, 186360, Note_on_c, 12, 84, 74
15, 186449, Note_on_c, 12, 84, 0
15, 186480, Note_on_c, 12, 86, 76
15, 186659, Note_on_c, 12, 86, 0
15, 186720, Note_on_c, 12, 77, 76
15, 186899, Note_on_c, 12, 77, 0
15, 186960, Note_on_c, 12, 74, 76
15, 187139, Note_on_c, 12, 74, 0
15, 187200, Note_on_c, 12, 70, 76
15, 187379, Note_on_c, 12, 70, 0
15, 187440, Note_on_c, 12, 74, 84
15, 187619, Note_on_c, 12, 74, 0
15, 187680, Note_on_c, 12, 65, 76
15, 187859, Note_on_c, 12, 65, 0
15, 187920, Note_on_c, 12, 72, 76
15, 188099, Note_on_c, 12, 72, 0
15, 188160, Note_on_c, 12, 75, 84
15, 188339, Note_on_c, 12, 75, 0
15, 188400, Note_on_c, 12, 65, 76
15, 188579, Note_on_c, 12, 65, 0
15, 188640, Note_on_c, 12, 69, 76
15, 188819, Note_on_c, 12, 69, 0
15, 188880, Note_on_c, 12, 72, 84
15, 189059, Note_on_c, 12, 72, 0
15, 189120, Note_on_c, 12, 65, 76
15, 189299, Note_on_c, 12, 65, 0
15, 189360, Note_on_c, 12, 74, 84
15, 189464, Note_on_c, 12, 74, 0
15, 189480, Note_on_c, 12, 62, 84
15, 189531, Note_on_c, 12, 62, 0
15, 189540, Note_on_c, 12, 62, 84
15, 189591, Note_on_c, 12, 62, 0
15, 189600, Note_on_c, 12, 65, 84
15, 189651, Note_on_c, 12, 65, 0
15, 189660, Note_on_c, 12, 65, 84
15, 189711, Note_on_c, 12, 65, 0
15, 189720, Note_on_c, 12, 70, 84
15, 189771, Note_on_c, 12, 70, 0
15, 189780, Note_on_c, 12, 70, 84
15, 189831, Note_on_c, 12, 70, 0
15, 189840, Note_on_c, 12, 74, 84
15, 189891, Note_on_c, 12, 74, 0
15, 189900, Note_on_c, 12, 74, 84
15, 189951, Note_on_c, 12, 74, 0
15, 189960, Note_on_c, 12, 62, 84
15, 190011, Note_on_c, 12, 62, 0
15, 190020, Note_on_c, 12, 62, 84
15, 190079, Note_on_c, 12, 62, 0
15, 190200, Note_on_c, 12, 62, 84
15, 190251, Note_on_c, 12, 62, 0
15, 190260, Note_on_c, 12, 62, 84
15, 190311, Note_on_c, 12, 62, 0
15, 190320, Note_on_c, 12, 65, 84
15, 190371, Note_on_c, 12, 65, 0
15, 190380, Note_on_c, 12, 65, 84
15, 190431, Note_on_c, 12, 65, 0
15, 190440, Note_on_c, 12, 70, 84
15, 190491, Note_on_c, 12, 70, 0
15, 190500, Note_on_c, 12, 70, 84
15, 190551, Note_on_c, 12, 70, 0
15, 190560, Note_on_c, 12, 74, 84
15, 190611, Note_on_c, 12, 74, 0
15, 190620, Note_on_c, 12, 74, 84
15, 190671, Note_on_c, 12, 74, 0
15, 190680, Note_on_c, 12, 62, 84
15, 190731, Note_on_c, 12, 62, 0
15, 190740, Note_on_c, 12, 62, 84
15, 190799, Note_on_c, 12, 62, 0
15, 190920, Note_on_c, 12, 63, 84
15, 190971, Note_on_c, 12, 63, 0
15, 190980, Note_on_c, 12, 63, 84
15, 191031, Note_on_c, 12, 63, 0
15, 191040, Note_on_c, 12, 65, 84
15, 191091, Note_on_c, 12, 65, 0
15, 191100, Note_on_c, 12, 65, 84
15, 191151, Note_on_c, 12, 65, 0
15, 191160, Note_on_c, 12, 72, 84
15, 191211, Note_on_c, 12, 72, 0
15, 191220, Note_on_c, 12, 72, 84
15, 191271, Note_on_c, 12, 72, 0
15, 191280, Note_on_c, 12, 75, 84
15, 191331, Note_on_c, 12, 75, 0
15, 191340, Note_on_c, 12, 75, 84
15, 191391, Note_on_c, 12, 75, 0
15, 191400, Note_on_c, 12, 63, 84
15, 191451, Note_on_c, 12, 63, 0
15, 191460, Note_on_c, 12, 63, 84
15, 191519, Note_on_c, 12, 63, 0
15, 191640, Note_on_c, 12, 63, 84
15, 191691, Note_on_c, 12, 63, 0
15, 191700, Note_on_c, 12, 63, 84
15, 191751, Note_on_c, 12, 63, 0
15, 191760, Note_on_c, 12, 65, 84
15, 191811, Note_on_c, 12, 65, 0
15, 191820, Note_on_c, 12, 65, 84
15, 191871, Note_on_c, 12, 65, 0
15, 191880, Note_on_c, 12, 69, 84
15, 191931, Note_on_c, 12, 69, 0
15, 191940, Note_on_c, 12, 69, 84
15, 191991, Note_on_c, 12, 69, 0
15, 192000, Note_on_c, 12, 72, 84
15, 192051, Note_on_c, 12, 72, 0
15, 192060, Note_on_c, 12, 72, 84
15, 192111, Note_on_c, 12, 72, 0
15, 192120, Note_on_c, 12, 69, 84
15, 192171, Note_on_c, 12, 69, 0
15, 192180, Note_on_c, 12, 69, 84
15, 192231, Note_on_c, 12, 69, 0
15, 192240, Note_on_c, 12, 70, 84
15, 192291, Note_on_c, 12, 70, 0
15, 192300, Note_on_c, 12, 70, 84
15, 192351, Note_on_c, 12, 70, 0
15, 192360, Note_on_c, 12, 73, 84
15, 192411, Note_on_c, 12, 73, 0
15, 192420, Note_on_c, 12, 73, 84
15, 192471, Note_on_c, 12, 73, 0
15, 192480, Note_on_c, 12, 74, 84
15, 192531, Note_on_c, 12, 74, 0
15, 192540, Note_on_c, 12, 74, 84
15, 192591, Note_on_c, 12, 74, 0
15, 192600, Note_on_c, 12, 69, 84
15, 192651, Note_on_c, 12, 69, 0
15, 192660, Note_on_c, 12, 69, 84
15, 192711, Note_on_c, 12, 69, 0
15, 192720, Note_on_c, 12, 70, 84
15, 192771, Note_on_c, 12, 70, 0
15, 192780, Note_on_c, 12, 70, 84
15, 192831, Note_on_c, 12, 70, 0
15, 192840, Note_on_c, 12, 64, 84
15, 192891, Note_on_c, 12, 64, 0
15, 192900, Note_on_c, 12, 64, 84
15, 192951, Note_on_c, 12, 64, 0
15, 192960, Note_on_c, 12, 65, 84
15, 193011, Note_on_c, 12, 65, 0
15, 193020, Note_on_c, 12, 65, 84
15, 193071, Note_on_c, 12, 65, 0
15, 193080, Note_on_c, 12, 61, 84
15, 193131, Note_on_c, 12, 61, 0
15, 193140, Note_on_c, 12, 61, 84
15, 193191, Note_on_c, 12, 61, 0
15, 193200, Note_on_c, 12, 62, 84
15, 193251, Note_on_c, 12, 62, 0
15, 193260, Note_on_c, 12, 62, 84
15, 193311, Note_on_c, 12, 62, 0
15, 193320, Note_on_c, 12, 57, 84
15, 193371, Note_on_c, 12, 57, 0
15, 193380, Note_on_c, 12, 57, 84
15, 193431, Note_on_c, 12, 57, 0
15, 193440, Note_on_c, 12, 58, 84
15, 193491, Note_on_c, 12, 58, 0
15, 193500, Note_on_c, 12, 58, 84
15, 193551, Note_on_c, 12, 58, 0
15, 193560, Note_on_c, 12, 56, 84
15, 193611, Note_on_c, 12, 56, 0
15, 193620, Note_on_c, 12, 56, 84
15, 193671, Note_on_c, 12, 56, 0
15, 193680, Note_on_c, 12, 55, 84
15, 193731, Note_on_c, 12, 55, 0
15, 193740, Note_on_c, 12, 55, 84
15, 193791, Note_on_c, 12, 55, 0
15, 193800, Note_on_c, 12, 59, 84
15, 193851, Note_on_c, 12, 59, 0
15, 193860, Note_on_c, 12, 59, 84
15, 193911, Note_on_c, 12, 59, 0
15, 193920, Note_on_c, 12, 60, 92
15, 193971, Note_on_c, 12, 60, 0
15, 193980, Note_on_c, 12, 60, 84
15, 194031, Note_on_c, 12, 60, 0
15, 194040, Note_on_c, 12, 58, 84
15, 194091, Note_on_c, 12, 58, 0
15, 194100, Note_on_c, 12, 58, 84
15, 194151, Note_on_c, 12, 58, 0
15, 194160, Note_on_c, 12, 57, 84
15, 194211, Note_on_c, 12, 57, 0
15, 194220, Note_on_c, 12, 57, 84
15, 194271, Note_on_c, 12, 57, 0
15, 194280, Note_on_c, 12, 61, 84
15, 194331, Note_on_c, 12, 61, 0
15, 194340, Note_on_c, 12, 61, 84
15, 194391, Note_on_c, 12, 61, 0
15, 194400, Note_on_c, 12, 62, 92
15, 194451, Note_on_c, 12, 62, 0
15, 194460, Note_on_c, 12, 62, 84
15, 194511, Note_on_c, 12, 62, 0
15, 194520, Note_on_c, 12, 60, 84
15, 194571, Note_on_c, 12, 60, 0
15, 194580, Note_on_c, 12, 60, 84
15, 194631, Note_on_c, 12, 60, 0
15, 194640, Note_on_c, 12, 58, 84
15, 194691, Note_on_c, 12, 58, 0
15, 194700, Note_on_c, 12, 58, 84
15, 194751, Note_on_c, 12, 58, 0
15, 194760, Note_on_c, 12, 62, 84
15, 194811, Note_on_c, 12, 62, 0
15, 194820, Note_on_c, 12, 62, 84
15, 194871, Note_on_c, 12, 62, 0
15, 194880, Note_on_c, 12, 63, 92
15, 194931, Note_on_c, 12, 63, 0
15, 194940, Note_on_c, 12, 63, 84
15, 194991, Note_on_c, 12, 63, 0
15, 195000, Note_on_c, 12, 62, 84
15, 195051, Note_on_c, 12, 62, 0
15, 195060, Note_on_c, 12, 62, 84
15, 195111, Note_on_c, 12, 62, 0
15, 195120, Note_on_c, 12, 60, 84
15, 195171, Note_on_c, 12, 60, 0
15, 195180, Note_on_c, 12, 60, 84
15, 195231, Note_on_c, 12, 60, 0
15, 195240, Note_on_c, 12, 64, 84
15, 195291, Note_on_c, 12, 64, 0
15, 195300, Note_on_c, 12, 64, 84
15, 195351, Note_on_c, 12, 64, 0
15, 195360, Note_on_c, 12, 65, 92
15, 195411, Note_on_c, 12, 65, 0
15, 195420, Note_on_c, 12, 65, 84
15, 195471, Note_on_c, 12, 65, 0
15, 195480, Note_on_c, 12, 63, 84
15, 195531, Note_on_c, 12, 63, 0
15, 195540, Note_on_c, 12, 63, 84
15, 195591, Note_on_c, 12, 63, 0
15, 195600, Note_on_c, 12, 62, 84
15, 195651, Note_on_c, 12, 62, 0
15, 195660, Note_on_c, 12, 62, 84
15, 195711, Note_on_c, 12, 62, 0
15, 195720, Note_on_c, 12, 66, 84
15, 195771, Note_on_c, 12, 66, 0
15, 195780, Note_on_c, 12, 66, 84
15, 195831, Note_on_c, 12, 66, 0
15, 195840, Note_on_c, 12, 67, 84
15, 195891, Note_on_c, 12, 67, 0
15, 195900, Note_on_c, 12, 67, 84
15, 195951, Note_on_c, 12, 67, 0
15, 195960, Note_on_c, 12, 69, 84
15, 196011, Note_on_c, 12, 69, 0
15, 196020, Note_on_c, 12, 69, 84
15, 196071, Note_on_c, 12, 69, 0
15, 196080, Note_on_c, 12, 70, 84
15, 196131, Note_on_c, 12, 70, 0
15, 196140, Note_on_c, 12, 70, 84
15, 196191, Note_on_c, 12, 70, 0
15, 196200, Note_on_c, 12, 71, 84
15, 196251, Note_on_c, 12, 71, 0
15, 196260, Note_on_c, 12, 71, 84
15, 196311, Note_on_c, 12, 71, 0
15, 196320, Note_on_c, 12, 72, 84
15, 196371, Note_on_c, 12, 72, 0
15, 196380, Note_on_c, 12, 72, 84
15, 196431, Note_on_c, 12, 72, 0
15, 196440, Note_on_c, 12, 73, 84
15, 196491, Note_on_c, 12, 73, 0
15, 196500, Note_on_c, 12, 73, 84
15, 196551, Note_on_c, 12, 73, 0
15, 196560, Note_on_c, 12, 74, 84
15, 196739, Note_on_c, 12, 74, 0
15, 196800, Note_on_c, 12, 72, 84
15, 196800, Note_on_c, 12, 62, 84
15, 196800, Note_on_c, 12, 81, 84
15, 196979, Note_on_c, 12, 72, 0
15, 196979, Note_on_c, 12, 62, 0
15, 196979, Note_on_c, 12, 81, 0
15, 197040, Note_on_c, 12, 62, 84
15, 197040, Note_on_c, 12, 70, 84
15, 197040, Note_on_c, 12, 79, 84
15, 197219, Note_on_c, 12, 62, 0
15, 197219, Note_on_c, 12, 70, 0
15, 197219, Note_on_c, 12, 79, 0
15, 197520, Note_on_c, 12, 71, 84
15, 197520, Note_on_c, 12, 65, 84
15, 197699, Note_on_c, 12, 71, 0
15, 197699, Note_on_c, 12, 65, 0
15, 197760, Note_on_c, 12, 72, 84
15, 197760, Note_on_c, 12, 63, 84
15, 197939, Note_on_c, 12, 72, 0
15, 197939, Note_on_c, 12, 63, 0
15, 198240, Note_on_c, 12, 79, 84
15, 198240, Note_on_c, 12, 72, 84
15, 198240, Note_on_c, 12, 64, 84
15, 198419, Note_on_c, 12, 79, 0
15, 198419, Note_on_c, 12, 72, 0
15, 198419, Note_on_c, 12, 64, 0
15, 198480, Note_on_c, 12, 72, 84
15, 198480, Note_on_c, 12, 65, 84
15, 198480, Note_on_c, 12, 77, 84
15, 198659, Note_on_c, 12, 72, 0
15, 198659, Note_on_c, 12, 65, 0
15, 198659, Note_on_c, 12, 77, 0
15, 198960, Note_on_c, 12, 72, 84
15, 198960, Note_on_c, 12, 81, 84
15, 198960, Note_on_c, 12, 62, 84
15, 199139, Note_on_c, 12, 72, 0
15, 199139, Note_on_c, 12, 81, 0
15, 199139, Note_on_c, 12, 62, 0
15, 199200, Note_on_c, 12, 70, 84
15, 199200, Note_on_c, 12, 79, 84
15, 199200, Note_on_c, 12, 62, 84
15, 199379, Note_on_c, 12, 70, 0
15, 199379, Note_on_c, 12, 79, 0
15, 199379, Note_on_c, 12, 62, 0
15, 199680, Note_on_c, 12, 65, 84
15, 199680, Note_on_c, 12, 71, 84
15, 199859, Note_on_c, 12, 65, 0
15, 199859, Note_on_c, 12, 71, 0
15, 199920, Note_on_c, 12, 72, 84
15, 199920, Note_on_c, 12, 63, 84
15, 200099, Note_on_c, 12, 72, 0
15, 200099, Note_on_c, 12, 63, 0
15, 200400, Note_on_c, 12, 72, 92
15, 200400, Note_on_c, 12, 79, 92
15, 200400, Note_on_c, 12, 64, 92
15, 200579, Note_on_c, 12, 72, 0
15, 200579, Note_on_c, 12, 79, 0
15, 200579, Note_on_c, 12, 64, 0
15, 200880, Note_on_c, 12, 64, 92
15, 200880, Note_on_c, 12, 72, 92
15, 200880, Note_on_c, 12, 79, 92
15, 201059, Note_on_c, 12, 64, 0
15, 201059, Note_on_c, 12, 72, 0
15, 201059, Note_on_c, 12, 79, 0
15, 201360, Note_on_c, 12, 64, 92
15, 201360, Note_on_c, 12, 79, 92
15, 201360, Note_on_c, 12, 72, 92
15, 201539, Note_on_c, 12, 64, 0
15, 201539, Note_on_c, 12, 79, 0
15, 201539, Note_on_c, 12, 72, 0
15, 201840, Note_on_c, 12, 64, 92
15, 201840, Note_on_c, 12, 79, 92
15, 201840, Note_on_c, 12, 72, 92
15, 202019, Note_on_c, 12, 64, 0
15, 202019, Note_on_c, 12, 79, 0
15, 202019, Note_on_c, 12, 72, 0
15, 202320, Note_on_c, 12, 64, 92
15, 202320, Note_on_c, 12, 72, 92
15, 202320, Note_on_c, 12, 79, 92
15, 202499, Note_on_c, 12, 64, 0
15, 202499, Note_on_c, 12, 72, 0
15, 202499, Note_on_c, 12, 79, 0
15, 202800, Note_on_c, 12, 72, 92
15, 202800, Note_on_c, 12, 64, 92
15, 202800, Note_on_c, 12, 79, 92
15, 202979, Note_on_c, 12, 72, 0
15, 202979, Note_on_c, 12, 64, 0
15, 202979, Note_on_c, 12, 79, 0
15, 203760, Note_on_c, 12, 64, 76
15, 203880, Control_c, 12, 11, 80
15, 203999, Note_on_c, 12, 64, 0
15, 204000, Note_on_c, 12, 61, 76
15, 204239, Note_on_c, 12, 61, 0
15, 204240, Note_on_c, 12, 58, 76
15, 204464, Note_on_c, 12, 58, 0
15, 204480, Note_on_c, 12, 62, 76
15, 204480, Note_on_c, 12, 58, 76
15, 205169, Note_on_c, 12, 62, 0
15, 205169, Note_on_c, 12, 58, 0
15, 205185, Control_c, 12, 11, 127
15, 205200, Note_on_c, 12, 64, 76
15, 205320, Control_c, 12, 11, 80
15, 205439, Note_on_c, 12, 64, 0
15, 205440, Note_on_c, 12, 61, 76
15, 205679, Note_on_c, 12, 61, 0
15, 205680, Note_on_c, 12, 58, 76
15, 206024, Note_on_c, 12, 58, 0
15, 206040, Note_on_c, 12, 55, 76
15, 206129, Note_on_c, 12, 55, 0
15, 206160, Note_on_c, 12, 58, 76
15, 206249, Note_on_c, 12, 58, 0
15, 206280, Note_on_c, 12, 63, 76
15, 206369, Note_on_c, 12, 63, 0
15, 206400, Note_on_c, 12, 55, 76
15, 206579, Note_on_c, 12, 55, 0
15, 206760, Note_on_c, 12, 56, 76
15, 206849, Note_on_c, 12, 56, 0
15, 206880, Note_on_c, 12, 60, 76
15, 206969, Note_on_c, 12, 60, 0
15, 207000, Note_on_c, 12, 63, 76
15, 207089, Note_on_c, 12, 63, 0
15, 207120, Note_on_c, 12, 56, 76
15, 207299, Note_on_c, 12, 56, 0
15, 207480, Note_on_c, 12, 57, 76
15, 207569, Note_on_c, 12, 57, 0
15, 207600, Note_on_c, 12, 60, 76
15, 207689, Note_on_c, 12, 60, 0
15, 207720, Note_on_c, 12, 65, 76
15, 207809, Note_on_c, 12, 65, 0
15, 207840, Note_on_c, 12, 57, 76
15, 208019, Note_on_c, 12, 57, 0
15, 208080, Control_c, 12, 11, 64
15, 208200, Note_on_c, 12, 58, 84
15, 208289, Note_on_c, 12, 58, 0
15, 208320, Note_on_c, 12, 62, 84
15, 208409, Note_on_c, 12, 62, 0
15, 208440, Note_on_c, 12, 65, 84
15, 208529, Note_on_c, 12, 65, 0
15, 208560, Note_on_c, 12, 70, 84
15, 208649, Note_on_c, 12, 70, 0
15, 208680, Note_on_c, 12, 66, 84
15, 208769, Note_on_c, 12, 66, 0
15, 208800, Note_on_c, 12, 67, 84
15, 208851, Note_on_c, 12, 67, 0
15, 208860, Note_on_c, 12, 67, 84
15, 208911, Note_on_c, 12, 67, 0
15, 208920, Note_on_c, 12, 55, 84
15, 208971, Note_on_c, 12, 55, 0
15, 208980, Note_on_c, 12, 55, 84
15, 209031, Note_on_c, 12, 55, 0
15, 209040, Note_on_c, 12, 67, 84
15, 209040, Control_c, 12, 11, 64
15, 209091, Note_on_c, 12, 67, 0
15, 209100, Note_on_c, 12, 67, 84
15, 209151, Note_on_c, 12, 67, 0
15, 209160, Note_on_c, 12, 67, 84
15, 209200, Control_c, 12, 11, 69
15, 209211, Note_on_c, 12, 67, 0
15, 209220, Note_on_c, 12, 67, 84
15, 209271, Note_on_c, 12, 67, 0
15, 209280, Note_on_c, 12, 67, 84
15, 209331, Note_on_c, 12, 67, 0
15, 209340, Note_on_c, 12, 67, 84
15, 209360, Control_c, 12, 11, 75
15, 209391, Note_on_c, 12, 67, 0
15, 209400, Note_on_c, 12, 67, 84
15, 209451, Note_on_c, 12, 67, 0
15, 209460, Note_on_c, 12, 67, 84
15, 209511, Note_on_c, 12, 67, 0
15, 209520, Control_c, 12, 11, 80
15, 209520, Note_on_c, 12, 63, 84
15, 209571, Note_on_c, 12, 63, 0
15, 209580, Note_on_c, 12, 63, 84
15, 209631, Note_on_c, 12, 63, 0
15, 209640, Note_on_c, 12, 63, 84
15, 209680, Control_c, 12, 11, 85
15, 209691, Note_on_c, 12, 63, 0
15, 209700, Note_on_c, 12, 63, 84
15, 209751, Note_on_c, 12, 63, 0
15, 209760, Note_on_c, 12, 63, 84
15, 209811, Note_on_c, 12, 63, 0
15, 209820, Note_on_c, 12, 63, 84
15, 209840, Control_c, 12, 11, 90
15, 209871, Note_on_c, 12, 63, 0
15, 209880, Note_on_c, 12, 67, 84
15, 209931, Note_on_c, 12, 67, 0
15, 209940, Note_on_c, 12, 67, 84
15, 209991, Note_on_c, 12, 67, 0
15, 210000, Note_on_c, 12, 65, 84
15, 210000, Control_c, 12, 11, 96
15, 210051, Note_on_c, 12, 65, 0
15, 210060, Note_on_c, 12, 65, 84
15, 210111, Note_on_c, 12, 65, 0
15, 210120, Note_on_c, 12, 63, 84
15, 210160, Control_c, 12, 11, 101
15, 210171, Note_on_c, 12, 63, 0
15, 210180, Note_on_c, 12, 63, 84
15, 210231, Note_on_c, 12, 63, 0
15, 210240, Note_on_c, 12, 62, 84
15, 210291, Note_on_c, 12, 62, 0
15, 210300, Note_on_c, 12, 62, 84
15, 210320, Control_c, 12, 11, 106
15, 210351, Note_on_c, 12, 62, 0
15, 210360, Note_on_c, 12, 58, 84
15, 210411, Note_on_c, 12, 58, 0
15, 210420, Note_on_c, 12, 58, 84
15, 210471, Note_on_c, 12, 58, 0
15, 210480, Note_on_c, 12, 62, 84
15, 210480, Control_c, 12, 11, 111
15, 210531, Note_on_c, 12, 62, 0
15, 210540, Note_on_c, 12, 62, 84
15, 210591, Note_on_c, 12, 62, 0
15, 210600, Note_on_c, 12, 65, 84
15, 210640, Control_c, 12, 11, 117
15, 210651, Note_on_c, 12, 65, 0
15, 210660, Note_on_c, 12, 65, 84
15, 210711, Note_on_c, 12, 65, 0
15, 210720, Note_on_c, 12, 70, 84
15, 210771, Note_on_c, 12, 70, 0
15, 210780, Note_on_c, 12, 70, 84
15, 210800, Control_c, 12, 11, 122
15, 210831, Note_on_c, 12, 70, 0
15, 210840, Note_on_c, 12, 74, 84
15, 210891, Note_on_c, 12, 74, 0
15, 210900, Note_on_c, 12, 74, 84
15, 210945, Control_c, 12, 11, 127
15, 210951, Note_on_c, 12, 74, 0
15, 210960, Note_on_c, 12, 75, 84
15, 211011, Note_on_c, 12, 75, 0
15, 211020, Note_on_c, 12, 75, 84
15, 211071, Note_on_c, 12, 75, 0
15, 211080, Note_on_c, 12, 75, 84
15, 211131, Note_on_c, 12, 75, 0
15, 211140, Note_on_c, 12, 75, 84
15, 211191, Note_on_c, 12, 75, 0
15, 211200, Note_on_c, 12, 75, 84
15, 211251, Note_on_c, 12, 75, 0
15, 211260, Note_on_c, 12, 75, 84
15, 211311, Note_on_c, 12, 75, 0
15, 211320, Note_on_c, 12, 75, 84
15, 211371, Note_on_c, 12, 75, 0
15, 211380, Note_on_c, 12, 75, 84
15, 211431, Note_on_c, 12, 75, 0
15, 211440, Note_on_c, 12, 75, 84
15, 211491, Note_on_c, 12, 75, 0
15, 211500, Note_on_c, 12, 75, 84
15, 211551, Note_on_c, 12, 75, 0
15, 211560, Note_on_c, 12, 75, 84
15, 211611, Note_on_c, 12, 75, 0
15, 211620, Note_on_c, 12, 75, 84
15, 211671, Note_on_c, 12, 75, 0
15, 211680, Note_on_c, 12, 74, 76
15, 211859, Note_on_c, 12, 74, 0
15, 211920, Note_on_c, 12, 65, 84
15, 212099, Note_on_c, 12, 65, 0
15, 212160, Note_on_c, 12, 62, 76
15, 212339, Note_on_c, 12, 62, 0
15, 212640, Note_on_c, 12, 67, 84
15, 212819, Note_on_c, 12, 67, 0
15, 212880, Note_on_c, 12, 63, 76
15, 213059, Note_on_c, 12, 63, 0
15, 213360, Note_on_c, 12, 65, 84
15, 213539, Note_on_c, 12, 65, 0
15, 213600, Note_on_c, 12, 62, 76
15, 213779, Note_on_c, 12, 62, 0
15, 213840, Note_on_c, 12, 69, 76
15, 213840, Note_on_c, 12, 66, 76
15, 214019, Note_on_c, 12, 69, 0
15, 214019, Note_on_c, 12, 66, 0
15, 214080, Note_on_c, 12, 66, 76
15, 214080, Note_on_c, 12, 69, 76
15, 214259, Note_on_c, 12, 66, 0
15, 214259, Note_on_c, 12, 69, 0
15, 214320, Note_on_c, 12, 66, 76
15, 214320, Note_on_c, 12, 69, 76
15, 214499, Note_on_c, 12, 66, 0
15, 214499, Note_on_c, 12, 69, 0
15, 214560, Note_on_c, 12, 70, 76
15, 214680, Control_c, 12, 11, 80
15, 215039, Note_on_c, 12, 70, 0
15, 215040, Note_on_c, 12, 74, 76
15, 215279, Note_on_c, 12, 74, 0
15, 215280, Note_on_c, 12, 70, 76
15, 215759, Note_on_c, 12, 70, 0
15, 215760, Note_on_c, 12, 65, 76
15, 215984, Note_on_c, 12, 65, 0
15, 216000, Note_on_c, 12, 68, 76
15, 216000, Control_c, 12, 11, 80
15, 216120, Control_c, 12, 11, 79
15, 216240, Control_c, 12, 11, 77
15, 216360, Control_c, 12, 11, 76
15, 216479, Note_on_c, 12, 68, 0
15, 216480, Note_on_c, 12, 71, 76
15, 216480, Control_c, 12, 11, 75
15, 216600, Control_c, 12, 11, 73
15, 216719, Note_on_c, 12, 71, 0
15, 216720, Control_c, 12, 11, 72
15, 216720, Note_on_c, 12, 68, 76
15, 216840, Control_c, 12, 11, 71
15, 216960, Control_c, 12, 11, 69
15, 217080, Control_c, 12, 11, 68
15, 217199, Note_on_c, 12, 68, 0
15, 217200, Note_on_c, 12, 65, 76
15, 217200, Control_c, 12, 11, 67
15, 217320, Control_c, 12, 11, 64
15, 217409, Note_on_c, 12, 65, 0
15, 217425, Control_c, 12, 11, 80
15, 217440, Note_on_c, 12, 62, 68
15, 217919, Note_on_c, 12, 62, 0
15, 217920, Note_on_c, 12, 59, 68
15, 218159, Note_on_c, 12, 59, 0
15, 218160, Note_on_c, 12, 57, 68
15, 218639, Note_on_c, 12, 57, 0
15, 218640, Note_on_c, 12, 58, 68
15, 218864, Note_on_c, 12, 58, 0
15, 218880, Note_on_c, 12, 56, 68
15, 219599, Note_on_c, 12, 56, 0
15, 219600, Note_on_c, 12, 60, 68
15, 220304, Note_on_c, 12, 60, 0
15, 220320, Note_on_c, 12, 59, 68
15, 221744, Note_on_c, 12, 59, 0
15, 221760, Note_on_c, 12, 60, 68
15, 223184, Note_on_c, 12, 60, 0
15, 223200, Note_on_c, 12, 59, 68
15, 223439, Note_on_c, 12, 59, 0
15, 223680, Note_on_c, 12, 74, 68
15, 224384, Note_on_c, 12, 74, 0
15, 224400, Note_on_c, 12, 71, 68
15, 225104, Note_on_c, 12, 71, 0
15, 225120, Note_on_c, 12, 65, 68
15, 225824, Note_on_c, 12, 65, 0
15, 225840, Note_on_c, 12, 62, 68
15, 226080, Control_c, 12, 11, 80
15, 226140, Control_c, 12, 11, 84
15, 226200, Control_c, 12, 11, 88
15, 226260, Control_c, 12, 11, 92
15, 226320, Control_c, 12, 11, 96
15, 226380, Control_c, 12, 11, 100
15, 226440, Control_c, 12, 11, 104
15, 226500, Control_c, 12, 11, 107
15, 226544, Note_on_c, 12, 62, 0
15, 226560, Control_c, 12, 11, 111
15, 226560, Note_on_c, 12, 60, 68
15, 226620, Control_c, 12, 11, 115
15, 226680, Control_c, 12, 11, 119
15, 226740, Control_c, 12, 11, 127
15, 226799, Note_on_c, 12, 60, 0
15, 226800, Note_on_c, 12, 60, 76
15, 226800, Control_c, 12, 11, 127
15, 226860, Control_c, 12, 11, 124
15, 226920, Control_c, 12, 11, 122
15, 226980, Control_c, 12, 11, 119
15, 227040, Control_c, 12, 11, 117
15, 227100, Control_c, 12, 11, 114
15, 227160, Control_c, 12, 11, 112
15, 227220, Control_c, 12, 11, 109
15, 227264, Note_on_c, 12, 60, 0
15, 227280, Note_on_c, 12, 63, 68
15, 227280, Note_on_c, 12, 60, 68
15, 227280, Control_c, 12, 11, 106
15, 227340, Control_c, 12, 11, 104
15, 227400, Control_c, 12, 11, 101
15, 227460, Control_c, 12, 11, 96
15, 227504, Note_on_c, 12, 63, 0
15, 227504, Note_on_c, 12, 60, 0
15, 227520, Note_on_c, 12, 62, 68
15, 227639, Note_on_c, 12, 62, 0
15, 227640, Note_on_c, 12, 67, 68
15, 227759, Note_on_c, 12, 67, 0
15, 227760, Note_on_c, 12, 62, 68
15, 227879, Note_on_c, 12, 62, 0
15, 227880, Note_on_c, 12, 67, 68
15, 227999, Note_on_c, 12, 67, 0
15, 228000, Note_on_c, 12, 62, 68
15, 228119, Note_on_c, 12, 62, 0
15, 228120, Note_on_c, 12, 67, 68
15, 228224, Note_on_c, 12, 67, 0
15, 228232, Control_c, 12, 11, 112
15, 228240, Note_on_c, 12, 62, 60
15, 228359, Note_on_c, 12, 62, 0
15, 228360, Note_on_c, 12, 67, 60
15, 228479, Note_on_c, 12, 67, 0
15, 228480, Note_on_c, 12, 62, 60
15, 228599, Note_on_c, 12, 62, 0
15, 228600, Note_on_c, 12, 67, 60
15, 228719, Note_on_c, 12, 67, 0
15, 228720, Note_on_c, 12, 62, 60
15, 228839, Note_on_c, 12, 62, 0
15, 228840, Note_on_c, 12, 67, 60
15, 228944, Note_on_c, 12, 67, 0
15, 228952, Control_c, 12, 11, 127
15, 228960, Note_on_c, 12, 65, 52
15, 229079, Note_on_c, 12, 65, 0
15, 229080, Note_on_c, 12, 67, 52
15, 229199, Note_on_c, 12, 67, 0
15, 229200, Note_on_c, 12, 65, 52
15, 229319, Note_on_c, 12, 65, 0
15, 229320, Note_on_c, 12, 67, 52
15, 229439, Note_on_c, 12, 67, 0
15, 229440, Note_on_c, 12, 65, 52
15, 229559, Note_on_c, 12, 65, 0
15, 229560, Note_on_c, 12, 67, 52
15, 229664, Note_on_c, 12, 67, 0
15, 229680, Note_on_c, 12, 65, 52
15, 229799, Note_on_c, 12, 65, 0
15, 229800, Note_on_c, 12, 67, 52
15, 229919, Note_on_c, 12, 67, 0
15, 229920, Note_on_c, 12, 62, 52
15, 230039, Note_on_c, 12, 62, 0
15, 230040, Note_on_c, 12, 67, 52
15, 230159, Note_on_c, 12, 67, 0
15, 230160, Note_on_c, 12, 62, 52
15, 230279, Note_on_c, 12, 62, 0
15, 230280, Note_on_c, 12, 67, 52
15, 230384, Note_on_c, 12, 67, 0
15, 230400, Note_on_c, 12, 64, 52
15, 230519, Note_on_c, 12, 64, 0
15, 230520, Note_on_c, 12, 67, 52
15, 230639, Note_on_c, 12, 67, 0
15, 230640, Note_on_c, 12, 64, 52
15, 230759, Note_on_c, 12, 64, 0
15, 230760, Note_on_c, 12, 67, 52
15, 230879, Note_on_c, 12, 67, 0
15, 230880, Note_on_c, 12, 64, 52
15, 230999, Note_on_c, 12, 64, 0
15, 231000, Note_on_c, 12, 67, 52
15, 231104, Note_on_c, 12, 67, 0
15, 231120, Note_on_c, 12, 64, 52
15, 231239, Note_on_c, 12, 64, 0
15, 231240, Note_on_c, 12, 67, 52
15, 231359, Note_on_c, 12, 67, 0
15, 231360, Note_on_c, 12, 64, 52
15, 231479, Note_on_c, 12, 64, 0
15, 231480, Note_on_c, 12, 67, 52
15, 231599, Note_on_c, 12, 67, 0
15, 231600, Note_on_c, 12, 64, 52
15, 231719, Note_on_c, 12, 64, 0
15, 231720, Note_on_c, 12, 67, 52
15, 231824, Note_on_c, 12, 67, 0
15, 231840, Note_on_c, 12, 64, 52
15, 231959, Note_on_c, 12, 64, 0
15, 231960, Note_on_c, 12, 67, 52
15, 232079, Note_on_c, 12, 67, 0
15, 232080, Note_on_c, 12, 64, 52
15, 232199, Note_on_c, 12, 64, 0
15, 232200, Note_on_c, 12, 67, 52
15, 232319, Note_on_c, 12, 67, 0
15, 232320, Note_on_c, 12, 64, 52
15, 232439, Note_on_c, 12, 64, 0
15, 232440, Note_on_c, 12, 67, 52
15, 232544, Note_on_c, 12, 67, 0
15, 232560, Note_on_c, 12, 64, 52
15, 232679, Note_on_c, 12, 64, 0
15, 232680, Note_on_c, 12, 67, 52
15, 232799, Note_on_c, 12, 67, 0
15, 232800, Note_on_c, 12, 64, 52
15, 232919, Note_on_c, 12, 64, 0
15, 232920, Note_on_c, 12, 67, 52
15, 233039, Note_on_c, 12, 67, 0
15, 233040, Note_on_c, 12, 64, 52
15, 233159, Note_on_c, 12, 64, 0
15, 233160, Note_on_c, 12, 67, 52
15, 233264, Note_on_c, 12, 67, 0
15, 233280, Note_on_c, 12, 65, 52
15, 233399, Note_on_c, 12, 65, 0
15, 233400, Note_on_c, 12, 67, 52
15, 233519, Note_on_c, 12, 67, 0
15, 233520, Note_on_c, 12, 65, 52
15, 233639, Note_on_c, 12, 65, 0
15, 233640, Note_on_c, 12, 67, 52
15, 233759, Note_on_c, 12, 67, 0
15, 233760, Note_on_c, 12, 65, 52
15, 233879, Note_on_c, 12, 65, 0
15, 233880, Note_on_c, 12, 67, 52
15, 233984, Note_on_c, 12, 67, 0
15, 234000, Note_on_c, 12, 65, 52
15, 234119, Note_on_c, 12, 65, 0
15, 234120, Note_on_c, 12, 67, 52
15, 234239, Note_on_c, 12, 67, 0
15, 234240, Note_on_c, 12, 65, 52
15, 234359, Note_on_c, 12, 65, 0
15, 234360, Note_on_c, 12, 67, 52
15, 234479, Note_on_c, 12, 67, 0
15, 234480, Note_on_c, 12, 65, 52
15, 234599, Note_on_c, 12, 65, 0
15, 234600, Note_on_c, 12, 67, 52
15, 234704, Note_on_c, 12, 67, 0
15, 234720, Note_on_c, 12, 65, 52
15, 234839, Note_on_c, 12, 65, 0
15, 234840, Note_on_c, 12, 67, 52
15, 234959, Note_on_c, 12, 67, 0
15, 234960, Note_on_c, 12, 62, 52
15, 235079, Note_on_c, 12, 62, 0
15, 235080, Note_on_c, 12, 67, 52
15, 235199, Note_on_c, 12, 67, 0
15, 235200, Note_on_c, 12, 62, 52
15, 235319, Note_on_c, 12, 62, 0
15, 235320, Note_on_c, 12, 67, 52
15, 235424, Note_on_c, 12, 67, 0
15, 235440, Note_on_c, 12, 62, 52
15, 235559, Note_on_c, 12, 62, 0
15, 235560, Note_on_c, 12, 67, 52
15, 235679, Note_on_c, 12, 67, 0
15, 235680, Note_on_c, 12, 65, 52
15, 235799, Note_on_c, 12, 65, 0
15, 235800, Note_on_c, 12, 67, 52
15, 235919, Note_on_c, 12, 67, 0
15, 235920, Note_on_c, 12, 65, 52
15, 236039, Note_on_c, 12, 65, 0
15, 236040, Note_on_c, 12, 67, 52
15, 236144, Note_on_c, 12, 67, 0
15, 236160, Note_on_c, 12, 63, 44
15, 236211, Note_on_c, 12, 63, 0
15, 236220, Note_on_c, 12, 67, 44
15, 236271, Note_on_c, 12, 67, 0
15, 236280, Note_on_c, 12, 67, 44
15, 236331, Note_on_c, 12, 67, 0
15, 236340, Note_on_c, 12, 67, 44
15, 236391, Note_on_c, 12, 67, 0
15, 236400, Note_on_c, 12, 67, 44
15, 236451, Note_on_c, 12, 67, 0
15, 236460, Note_on_c, 12, 67, 44
15, 236511, Note_on_c, 12, 67, 0
15, 236520, Note_on_c, 12, 67, 44
15, 236571, Note_on_c, 12, 67, 0
15, 236580, Note_on_c, 12, 67, 44
15, 236631, Note_on_c, 12, 67, 0
15, 236640, Note_on_c, 12, 67, 44
15, 236691, Note_on_c, 12, 67, 0
15, 236700, Note_on_c, 12, 67, 44
15, 236751, Note_on_c, 12, 67, 0
15, 236760, Note_on_c, 12, 67, 44
15, 236811, Note_on_c, 12, 67, 0
15, 236820, Note_on_c, 12, 67, 44
15, 236871, Note_on_c, 12, 67, 0
15, 236880, Note_on_c, 12, 67, 44
15, 236931, Note_on_c, 12, 67, 0
15, 236940, Note_on_c, 12, 67, 44
15, 236991, Note_on_c, 12, 67, 0
15, 237000, Note_on_c, 12, 67, 44
15, 237051, Note_on_c, 12, 67, 0
15, 237060, Note_on_c, 12, 67, 44
15, 237111, Note_on_c, 12, 67, 0
15, 237120, Note_on_c, 12, 67, 44
15, 237171, Note_on_c, 12, 67, 0
15, 237180, Note_on_c, 12, 67, 44
15, 237231, Note_on_c, 12, 67, 0
15, 237240, Note_on_c, 12, 67, 44
15, 237291, Note_on_c, 12, 67, 0
15, 237300, Note_on_c, 12, 67, 44
15, 237351, Note_on_c, 12, 67, 0
15, 237360, Note_on_c, 12, 67, 44
15, 237411, Note_on_c, 12, 67, 0
15, 237420, Note_on_c, 12, 67, 44
15, 237471, Note_on_c, 12, 67, 0
15, 237480, Note_on_c, 12, 67, 44
15, 237531, Note_on_c, 12, 67, 0
15, 237540, Note_on_c, 12, 67, 44
15, 237591, Note_on_c, 12, 67, 0
15, 237600, Note_on_c, 12, 67, 44
15, 237651, Note_on_c, 12, 67, 0
15, 237660, Note_on_c, 12, 67, 44
15, 237711, Note_on_c, 12, 67, 0
15, 237720, Note_on_c, 12, 67, 44
15, 237771, Note_on_c, 12, 67, 0
15, 237780, Note_on_c, 12, 67, 44
15, 237831, Note_on_c, 12, 67, 0
15, 237840, Note_on_c, 12, 67, 44
15, 237891, Note_on_c, 12, 67, 0
15, 237900, Note_on_c, 12, 67, 44
15, 237951, Note_on_c, 12, 67, 0
15, 237960, Note_on_c, 12, 67, 44
15, 238011, Note_on_c, 12, 67, 0
15, 238020, Note_on_c, 12, 67, 44
15, 238071, Note_on_c, 12, 67, 0
15, 238080, Note_on_c, 12, 67, 44
15, 238131, Note_on_c, 12, 67, 0
15, 238140, Note_on_c, 12, 67, 44
15, 238191, Note_on_c, 12, 67, 0
15, 238200, Note_on_c, 12, 67, 44
15, 238251, Note_on_c, 12, 67, 0
15, 238260, Note_on_c, 12, 67, 44
15, 238311, Note_on_c, 12, 67, 0
15, 238320, Note_on_c, 12, 68, 44
15, 238371, Note_on_c, 12, 68, 0
15, 238380, Note_on_c, 12, 68, 45
15, 238431, Note_on_c, 12, 68, 0
15, 238440, Note_on_c, 12, 68, 46
15, 238491, Note_on_c, 12, 68, 0
15, 238500, Note_on_c, 12, 68, 48
15, 238551, Note_on_c, 12, 68, 0
15, 238560, Note_on_c, 12, 68, 49
15, 238611, Note_on_c, 12, 68, 0
15, 238620, Note_on_c, 12, 68, 50
15, 238671, Note_on_c, 12, 68, 0
15, 238680, Note_on_c, 12, 68, 52
15, 238731, Note_on_c, 12, 68, 0
15, 238740, Note_on_c, 12, 68, 53
15, 238791, Note_on_c, 12, 68, 0
15, 238800, Note_on_c, 12, 68, 54
15, 238851, Note_on_c, 12, 68, 0
15, 238860, Note_on_c, 12, 68, 56
15, 238911, Note_on_c, 12, 68, 0
15, 238920, Note_on_c, 12, 68, 57
15, 238971, Note_on_c, 12, 68, 0
15, 238980, Note_on_c, 12, 68, 58
15, 239031, Note_on_c, 12, 68, 0
15, 239040, Note_on_c, 12, 68, 52
15, 239091, Note_on_c, 12, 68, 0
15, 239100, Note_on_c, 12, 68, 52
15, 239151, Note_on_c, 12, 68, 0
15, 239160, Note_on_c, 12, 68, 52
15, 239211, Note_on_c, 12, 68, 0
15, 239220, Note_on_c, 12, 68, 52
15, 239271, Note_on_c, 12, 68, 0
15, 239280, Note_on_c, 12, 68, 52
15, 239331, Note_on_c, 12, 68, 0
15, 239340, Note_on_c, 12, 68, 52
15, 239391, Note_on_c, 12, 68, 0
15, 239400, Note_on_c, 12, 68, 52
15, 239451, Note_on_c, 12, 68, 0
15, 239460, Note_on_c, 12, 68, 52
15, 239511, Note_on_c, 12, 68, 0
15, 239520, Note_on_c, 12, 68, 52
15, 239571, Note_on_c, 12, 68, 0
15, 239580, Note_on_c, 12, 68, 52
15, 239631, Note_on_c, 12, 68, 0
15, 239640, Note_on_c, 12, 68, 52
15, 239691, Note_on_c, 12, 68, 0
15, 239700, Note_on_c, 12, 68, 52
15, 239751, Note_on_c, 12, 68, 0
15, 239760, Note_on_c, 12, 68, 52
15, 239811, Note_on_c, 12, 68, 0
15, 239820, Note_on_c, 12, 68, 52
15, 239871, Note_on_c, 12, 68, 0
15, 239880, Note_on_c, 12, 68, 52
15, 239931, Note_on_c, 12, 68, 0
15, 239940, Note_on_c, 12, 68, 52
15, 239991, Note_on_c, 12, 68, 0
15, 240000, Note_on_c, 12, 68, 52
15, 240051, Note_on_c, 12, 68, 0
15, 240060, Note_on_c, 12, 68, 52
15, 240111, Note_on_c, 12, 68, 0
15, 240120, Note_on_c, 12, 68, 52
15, 240171, Note_on_c, 12, 68, 0
15, 240180, Note_on_c, 12, 68, 52
15, 240231, Note_on_c, 12, 68, 0
15, 240240, Note_on_c, 12, 68, 52
15, 240291, Note_on_c, 12, 68, 0
15, 240300, Note_on_c, 12, 68, 52
15, 240351, Note_on_c, 12, 68, 0
15, 240360, Note_on_c, 12, 68, 52
15, 240411, Note_on_c, 12, 68, 0
15, 240420, Note_on_c, 12, 68, 52
15, 240471, Note_on_c, 12, 68, 0
15, 240480, Note_on_c, 12, 68, 52
15, 240531, Note_on_c, 12, 68, 0
15, 240540, Note_on_c, 12, 68, 52
15, 240591, Note_on_c, 12, 68, 0
15, 240600, Note_on_c, 12, 68, 52
15, 240651, Note_on_c, 12, 68, 0
15, 240660, Note_on_c, 12, 68, 52
15, 240711, Note_on_c, 12, 68, 0
15, 240720, Note_on_c, 12, 68, 52
15, 240771, Note_on_c, 12, 68, 0
15, 240780, Note_on_c, 12, 68, 52
15, 240831, Note_on_c, 12, 68, 0
15, 240840, Note_on_c, 12, 68, 52
15, 240891, Note_on_c, 12, 68, 0
15, 240900, Note_on_c, 12, 68, 52
15, 240951, Note_on_c, 12, 68, 0
15, 240960, Note_on_c, 12, 68, 52
15, 241011, Note_on_c, 12, 68, 0
15, 241020, Note_on_c, 12, 68, 52
15, 241071, Note_on_c, 12, 68, 0
15, 241080, Note_on_c, 12, 68, 52
15, 241131, Note_on_c, 12, 68, 0
15, 241140, Note_on_c, 12, 68, 52
15, 241191, Note_on_c, 12, 68, 0
15, 241200, Note_on_c, 12, 69, 52
15, 241251, Note_on_c, 12, 69, 0
15, 241260, Note_on_c, 12, 69, 54
15, 241311, Note_on_c, 12, 69, 0
15, 241320, Note_on_c, 12, 69, 57
15, 241371, Note_on_c, 12, 69, 0
15, 241380, Note_on_c, 12, 69, 60
15, 241431, Note_on_c, 12, 69, 0
15, 241440, Note_on_c, 12, 69, 62
15, 241491, Note_on_c, 12, 69, 0
15, 241500, Note_on_c, 12, 69, 65
15, 241551, Note_on_c, 12, 69, 0
15, 241560, Note_on_c, 12, 69, 68
15, 241611, Note_on_c, 12, 69, 0
15, 241620, Note_on_c, 12, 69, 70
15, 241671, Note_on_c, 12, 69, 0
15, 241680, Note_on_c, 12, 69, 73
15, 241731, Note_on_c, 12, 69, 0
15, 241740, Note_on_c, 12, 69, 76
15, 241791, Note_on_c, 12, 69, 0
15, 241800, Note_on_c, 12, 69, 78
15, 241851, Note_on_c, 12, 69, 0
15, 241860, Note_on_c, 12, 69, 81
15, 241911, Note_on_c, 12, 69, 0
15, 241920, Note_on_c, 12, 69, 84
15, 242024, Note_on_c, 12, 69, 0
15, 242040, Note_on_c, 12, 69, 84
15, 242040, Note_on_c, 12, 81, 84
15, 242264, Note_on_c, 12, 69, 0
15, 242264, Note_on_c, 12, 81, 0
15, 242280, Note_on_c, 12, 81, 84
15, 242280, Note_on_c, 12, 69, 84
15, 242504, Note_on_c, 12, 81, 0
15, 242504, Note_on_c, 12, 69, 0
15, 242520, Note_on_c, 12, 69, 84
15, 242520, Note_on_c, 12, 81, 84
15, 242744, Note_on_c, 12, 69, 0
15, 242744, Note_on_c, 12, 81, 0
15, 242760, Note_on_c, 12, 81, 84
15, 242760, Note_on_c, 12, 69, 84
15, 242984, Note_on_c, 12, 81, 0
15, 242984, Note_on_c, 12, 69, 0
15, 243000, Note_on_c, 12, 69, 84
15, 243000, Note_on_c, 12, 81, 84
15, 243224, Note_on_c, 12, 69, 0
15, 243224, Note_on_c, 12, 81, 0
15, 243240, Note_on_c, 12, 69, 84
15, 243240, Note_on_c, 12, 81, 84
15, 243464, Note_on_c, 12, 69, 0
15, 243464, Note_on_c, 12, 81, 0
15, 243480, Note_on_c, 12, 77, 84
15, 243539, Note_on_c, 12, 77, 0
15, 243540, Note_on_c, 12, 79, 84
15, 243591, Note_on_c, 12, 79, 0
15, 243600, Note_on_c, 12, 77, 84
15, 243689, Note_on_c, 12, 77, 0
15, 243720, Note_on_c, 12, 74, 84
15, 243779, Note_on_c, 12, 74, 0
15, 243780, Note_on_c, 12, 76, 84
15, 243831, Note_on_c, 12, 76, 0
15, 243840, Note_on_c, 12, 74, 84
15, 243929, Note_on_c, 12, 74, 0
15, 243960, Note_on_c, 12, 69, 84
15, 244019, Note_on_c, 12, 69, 0
15, 244020, Note_on_c, 12, 70, 84
15, 244071, Note_on_c, 12, 70, 0
15, 244080, Note_on_c, 12, 69, 84
15, 244169, Note_on_c, 12, 69, 0
15, 244200, Note_on_c, 12, 65, 84
15, 244259, Note_on_c, 12, 65, 0
15, 244260, Note_on_c, 12, 67, 84
15, 244311, Note_on_c, 12, 67, 0
15, 244320, Note_on_c, 12, 65, 84
15, 244409, Note_on_c, 12, 65, 0
15, 244440, Note_on_c, 12, 69, 84
15, 244499, Note_on_c, 12, 69, 0
15, 244500, Note_on_c, 12, 74, 84
15, 244551, Note_on_c, 12, 74, 0
15, 244560, Note_on_c, 12, 77, 84
15, 244649, Note_on_c, 12, 77, 0
15, 244680, Note_on_c, 12, 76, 84
15, 244739, Note_on_c, 12, 76, 0
15, 244740, Note_on_c, 12, 74, 84
15, 244791, Note_on_c, 12, 74, 0
15, 244800, Note_on_c, 12, 73, 84
15, 244889, Note_on_c, 12, 73, 0
15, 244920, Note_on_c, 12, 69, 84
15, 244920, Note_on_c, 12, 81, 84
15, 245144, Note_on_c, 12, 69, 0
15, 245144, Note_on_c, 12, 81, 0
15, 245160, Note_on_c, 12, 69, 84
15, 245160, Note_on_c, 12, 81, 84
15, 245384, Note_on_c, 12, 69, 0
15, 245384, Note_on_c, 12, 81, 0
15, 245400, Note_on_c, 12, 81, 84
15, 245400, Note_on_c, 12, 69, 84
15, 245624, Note_on_c, 12, 81, 0
15, 245624, Note_on_c, 12, 69, 0
15, 245640, Note_on_c, 12, 69, 84
15, 245640, Note_on_c, 12, 81, 84
15, 245864, Note_on_c, 12, 69, 0
15, 245864, Note_on_c, 12, 81, 0
15, 245880, Note_on_c, 12, 69, 84
15, 245880, Note_on_c, 12, 81, 84
15, 246104, Note_on_c, 12, 69, 0
15, 246104, Note_on_c, 12, 81, 0
15, 246120, Note_on_c, 12, 81, 84
15, 246120, Note_on_c, 12, 69, 84
15, 246344, Note_on_c, 12, 81, 0
15, 246344, Note_on_c, 12, 69, 0
15, 246360, Note_on_c, 12, 67, 84
15, 246419, Note_on_c, 12, 67, 0
15, 246420, Note_on_c, 12, 69, 84
15, 246471, Note_on_c, 12, 69, 0
15, 246480, Note_on_c, 12, 67, 84
15, 246569, Note_on_c, 12, 67, 0
15, 246600, Note_on_c, 12, 64, 84
15, 246659, Note_on_c, 12, 64, 0
15, 246660, Note_on_c, 12, 65, 84
15, 246711, Note_on_c, 12, 65, 0
15, 246720, Note_on_c, 12, 64, 84
15, 246809, Note_on_c, 12, 64, 0
15, 246840, Note_on_c, 12, 61, 84
15, 246899, Note_on_c, 12, 61, 0
15, 246900, Note_on_c, 12, 62, 84
15, 246951, Note_on_c, 12, 62, 0
15, 246960, Note_on_c, 12, 61, 84
15, 247049, Note_on_c, 12, 61, 0
15, 247080, Note_on_c, 12, 64, 84
15, 247139, Note_on_c, 12, 64, 0
15, 247140, Note_on_c, 12, 69, 84
15, 247191, Note_on_c, 12, 69, 0
15, 247200, Note_on_c, 12, 73, 84
15, 247289, Note_on_c, 12, 73, 0
15, 247320, Note_on_c, 12, 76, 84
15, 247379, Note_on_c, 12, 76, 0
15, 247380, Note_on_c, 12, 74, 84
15, 247431, Note_on_c, 12, 74, 0
15, 247440, Note_on_c, 12, 73, 84
15, 247529, Note_on_c, 12, 73, 0
15, 247560, Note_on_c, 12, 76, 84
15, 247619, Note_on_c, 12, 76, 0
15, 247620, Note_on_c, 12, 73, 84
15, 247671, Note_on_c, 12, 73, 0
15, 247680, Note_on_c, 12, 74, 52
15, 247769, Note_on_c, 12, 74, 0
15, 247800, Note_on_c, 12, 62, 52
15, 247859, Note_on_c, 12, 62, 0
15, 247860, Note_on_c, 12, 63, 52
15, 247911, Note_on_c, 12, 63, 0
15, 247920, Note_on_c, 12, 62, 52
15, 248009, Note_on_c, 12, 62, 0
15, 248520, Note_on_c, 12, 62, 52
15, 248579, Note_on_c, 12, 62, 0
15, 248580, Note_on_c, 12, 63, 52
15, 248631, Note_on_c, 12, 63, 0
15, 248640, Note_on_c, 12, 62, 52
15, 248729, Note_on_c, 12, 62, 0
15, 249240, Note_on_c, 12, 62, 54
15, 249299, Note_on_c, 12, 62, 0
15, 249300, Note_on_c, 12, 63, 56
15, 249351, Note_on_c, 12, 63, 0
15, 249360, Note_on_c, 12, 62, 57
15, 249449, Note_on_c, 12, 62, 0
15, 249480, Note_on_c, 12, 62, 60
15, 249539, Note_on_c, 12, 62, 0
15, 249540, Note_on_c, 12, 63, 61
15, 249591, Note_on_c, 12, 63, 0
15, 249600, Note_on_c, 12, 62, 62
15, 249689, Note_on_c, 12, 62, 0
15, 249720, Note_on_c, 12, 62, 65
15, 249779, Note_on_c, 12, 62, 0
15, 249780, Note_on_c, 12, 63, 66
15, 249831, Note_on_c, 12, 63, 0
15, 249840, Note_on_c, 12, 62, 68
15, 249929, Note_on_c, 12, 62, 0
15, 249960, Note_on_c, 12, 62, 70
15, 250019, Note_on_c, 12, 62, 0
15, 250020, Note_on_c, 12, 63, 72
15, 250071, Note_on_c, 12, 63, 0
15, 250080, Note_on_c, 12, 62, 73
15, 250169, Note_on_c, 12, 62, 0
15, 250200, Note_on_c, 12, 62, 76
15, 250259, Note_on_c, 12, 62, 0
15, 250260, Note_on_c, 12, 63, 77
15, 250311, Note_on_c, 12, 63, 0
15, 250320, Note_on_c, 12, 62, 78
15, 250424, Note_on_c, 12, 62, 0
15, 250440, Note_on_c, 12, 62, 81
15, 250544, Note_on_c, 12, 62, 0
15, 250560, Note_on_c, 12, 62, 84
15, 250560, Note_on_c, 12, 70, 84
15, 250664, Note_on_c, 12, 62, 0
15, 250664, Note_on_c, 12, 70, 0
15, 250680, Note_on_c, 12, 62, 84
15, 250680, Note_on_c, 12, 74, 84
15, 250904, Note_on_c, 12, 62, 0
15, 250904, Note_on_c, 12, 74, 0
15, 250920, Note_on_c, 12, 74, 84
15, 250920, Note_on_c, 12, 62, 84
15, 251144, Note_on_c, 12, 74, 0
15, 251144, Note_on_c, 12, 62, 0
15, 251160, Note_on_c, 12, 74, 84
15, 251160, Note_on_c, 12, 62, 84
15, 251384, Note_on_c, 12, 74, 0
15, 251384, Note_on_c, 12, 62, 0
15, 251400, Note_on_c, 12, 62, 84
15, 251400, Note_on_c, 12, 74, 84
15, 251624, Note_on_c, 12, 62, 0
15, 251624, Note_on_c, 12, 74, 0
15, 251640, Note_on_c, 12, 62, 84
15, 251640, Note_on_c, 12, 74, 84
15, 251864, Note_on_c, 12, 62, 0
15, 251864, Note_on_c, 12, 74, 0
15, 251880, Note_on_c, 12, 62, 84
15, 251880, Note_on_c, 12, 74, 84
15, 251984, Note_on_c, 12, 62, 0
15, 251984, Note_on_c, 12, 74, 0
15, 252000, Note_on_c, 12, 82, 84
15, 252089, Note_on_c, 12, 82, 0
15, 252120, Note_on_c, 12, 70, 84
15, 252179, Note_on_c, 12, 70, 0
15, 252180, Note_on_c, 12, 72, 84
15, 252231, Note_on_c, 12, 72, 0
15, 252240, Note_on_c, 12, 70, 84
15, 252329, Note_on_c, 12, 70, 0
15, 252360, Note_on_c, 12, 67, 84
15, 252419, Note_on_c, 12, 67, 0
15, 252420, Note_on_c, 12, 69, 84
15, 252471, Note_on_c, 12, 69, 0
15, 252480, Note_on_c, 12, 67, 84
15, 252569, Note_on_c, 12, 67, 0
15, 252600, Note_on_c, 12, 62, 84
15, 252659, Note_on_c, 12, 62, 0
15, 252660, Note_on_c, 12, 63, 84
15, 252711, Note_on_c, 12, 63, 0
15, 252720, Note_on_c, 12, 62, 84
15, 252809, Note_on_c, 12, 62, 0
15, 252840, Note_on_c, 12, 58, 84
15, 252899, Note_on_c, 12, 58, 0
15, 252900, Note_on_c, 12, 60, 84
15, 252951, Note_on_c, 12, 60, 0
15, 252960, Note_on_c, 12, 58, 84
15, 253049, Note_on_c, 12, 58, 0
15, 253080, Note_on_c, 12, 67, 84
15, 253139, Note_on_c, 12, 67, 0
15, 253140, Note_on_c, 12, 69, 84
15, 253191, Note_on_c, 12, 69, 0
15, 253200, Note_on_c, 12, 70, 84
15, 253289, Note_on_c, 12, 70, 0
15, 253320, Note_on_c, 12, 69, 84
15, 253379, Note_on_c, 12, 69, 0
15, 253380, Note_on_c, 12, 67, 84
15, 253431, Note_on_c, 12, 67, 0
15, 253440, Note_on_c, 12, 66, 84
15, 253529, Note_on_c, 12, 66, 0
15, 253560, Note_on_c, 12, 74, 84
15, 253560, Note_on_c, 12, 62, 84
15, 253784, Note_on_c, 12, 74, 0
15, 253784, Note_on_c, 12, 62, 0
15, 253800, Note_on_c, 12, 62, 84
15, 253800, Note_on_c, 12, 74, 84
15, 254024, Note_on_c, 12, 62, 0
15, 254024, Note_on_c, 12, 74, 0
15, 254040, Note_on_c, 12, 62, 84
15, 254040, Note_on_c, 12, 74, 84
15, 254264, Note_on_c, 12, 62, 0
15, 254264, Note_on_c, 12, 74, 0
15, 254280, Note_on_c, 12, 74, 84
15, 254280, Note_on_c, 12, 62, 84
15, 254504, Note_on_c, 12, 74, 0
15, 254504, Note_on_c, 12, 62, 0
15, 254520, Note_on_c, 12, 62, 84
15, 254520, Note_on_c, 12, 74, 84
15, 254744, Note_on_c, 12, 62, 0
15, 254744, Note_on_c, 12, 74, 0
15, 254760, Note_on_c, 12, 62, 84
15, 254760, Note_on_c, 12, 74, 84
15, 254879, Note_on_c, 12, 74, 0
15, 254880, Note_on_c, 12, 72, 84
15, 254984, Note_on_c, 12, 62, 0
15, 254984, Note_on_c, 12, 72, 0
15, 255000, Note_on_c, 12, 72, 84
15, 255059, Note_on_c, 12, 72, 0
15, 255060, Note_on_c, 12, 74, 84
15, 255111, Note_on_c, 12, 74, 0
15, 255120, Note_on_c, 12, 72, 84
15, 255209, Note_on_c, 12, 72, 0
15, 255240, Note_on_c, 12, 69, 84
15, 255299, Note_on_c, 12, 69, 0
15, 255300, Note_on_c, 12, 70, 84
15, 255351, Note_on_c, 12, 70, 0
15, 255360, Note_on_c, 12, 69, 84
15, 255449, Note_on_c, 12, 69, 0
15, 255480, Note_on_c, 12, 66, 84
15, 255539, Note_on_c, 12, 66, 0
15, 255540, Note_on_c, 12, 67, 84
15, 255591, Note_on_c, 12, 67, 0
15, 255600, Note_on_c, 12, 66, 84
15, 255689, Note_on_c, 12, 66, 0
15, 255720, Note_on_c, 12, 69, 84
15, 255779, Note_on_c, 12, 69, 0
15, 255780, Note_on_c, 12, 67, 84
15, 255831, Note_on_c, 12, 67, 0
15, 255840, Note_on_c, 12, 66, 84
15, 255929, Note_on_c, 12, 66, 0
15, 255960, Note_on_c, 12, 69, 84
15, 256019, Note_on_c, 12, 69, 0
15, 256020, Note_on_c, 12, 74, 84
15, 256071, Note_on_c, 12, 74, 0
15, 256080, Note_on_c, 12, 78, 84
15, 256199, Note_on_c, 12, 78, 0
15, 256200, Note_on_c, 12, 81, 84
15, 256259, Note_on_c, 12, 81, 0
15, 256260, Note_on_c, 12, 78, 84
15, 256311, Note_on_c, 12, 78, 0
15, 256320, Note_on_c, 12, 79, 52
15, 256424, Note_on_c, 12, 79, 0
15, 256440, Note_on_c, 12, 55, 52
15, 256499, Note_on_c, 12, 55, 0
15, 256500, Note_on_c, 12, 56, 52
15, 256551, Note_on_c, 12, 56, 0
15, 256560, Note_on_c, 12, 55, 52
15, 256649, Note_on_c, 12, 55, 0
15, 257160, Note_on_c, 12, 55, 52
15, 257219, Note_on_c, 12, 55, 0
15, 257220, Note_on_c, 12, 56, 52
15, 257271, Note_on_c, 12, 56, 0
15, 257280, Note_on_c, 12, 55, 52
15, 257369, Note_on_c, 12, 55, 0
15, 257880, Note_on_c, 12, 55, 53
15, 257939, Note_on_c, 12, 55, 0
15, 257940, Note_on_c, 12, 56, 54
15, 257991, Note_on_c, 12, 56, 0
15, 258000, Note_on_c, 12, 55, 54
15, 258089, Note_on_c, 12, 55, 0
15, 258120, Note_on_c, 12, 55, 56
15, 258179, Note_on_c, 12, 55, 0
15, 258180, Note_on_c, 12, 56, 56
15, 258231, Note_on_c, 12, 56, 0
15, 258240, Note_on_c, 12, 55, 57
15, 258329, Note_on_c, 12, 55, 0
15, 258360, Note_on_c, 12, 55, 58
15, 258419, Note_on_c, 12, 55, 0
15, 258420, Note_on_c, 12, 56, 59
15, 258471, Note_on_c, 12, 56, 0
15, 258480, Note_on_c, 12, 55, 60
15, 258569, Note_on_c, 12, 55, 0
15, 258600, Note_on_c, 12, 55, 61
15, 258659, Note_on_c, 12, 55, 0
15, 258660, Note_on_c, 12, 56, 62
15, 258711, Note_on_c, 12, 56, 0
15, 258720, Note_on_c, 12, 55, 62
15, 258809, Note_on_c, 12, 55, 0
15, 258840, Note_on_c, 12, 55, 64
15, 258899, Note_on_c, 12, 55, 0
15, 258900, Note_on_c, 12, 56, 64
15, 258951, Note_on_c, 12, 56, 0
15, 258960, Note_on_c, 12, 55, 65
15, 259049, Note_on_c, 12, 55, 0
15, 259320, Note_on_c, 12, 60, 52
15, 259379, Note_on_c, 12, 60, 0
15, 259380, Note_on_c, 12, 61, 52
15, 259431, Note_on_c, 12, 61, 0
15, 259440, Note_on_c, 12, 60, 52
15, 259529, Note_on_c, 12, 60, 0
15, 260040, Note_on_c, 12, 60, 52
15, 260099, Note_on_c, 12, 60, 0
15, 260100, Note_on_c, 12, 61, 52
15, 260151, Note_on_c, 12, 61, 0
15, 260160, Note_on_c, 12, 60, 52
15, 260249, Note_on_c, 12, 60, 0
15, 260760, Note_on_c, 12, 60, 54
15, 260819, Note_on_c, 12, 60, 0
15, 260820, Note_on_c, 12, 61, 55
15, 260871, Note_on_c, 12, 61, 0
15, 260880, Note_on_c, 12, 60, 56
15, 260969, Note_on_c, 12, 60, 0
15, 261000, Note_on_c, 12, 60, 58
15, 261059, Note_on_c, 12, 60, 0
15, 261060, Note_on_c, 12, 61, 59
15, 261111, Note_on_c, 12, 61, 0
15, 261120, Note_on_c, 12, 60, 60
15, 261209, Note_on_c, 12, 60, 0
15, 261240, Note_on_c, 12, 60, 62
15, 261299, Note_on_c, 12, 60, 0
15, 261300, Note_on_c, 12, 61, 63
15, 261351, Note_on_c, 12, 61, 0
15, 261360, Note_on_c, 12, 60, 64
15, 261449, Note_on_c, 12, 60, 0
15, 261480, Note_on_c, 12, 60, 66
15, 261539, Note_on_c, 12, 60, 0
15, 261540, Note_on_c, 12, 61, 67
15, 261591, Note_on_c, 12, 61, 0
15, 261600, Note_on_c, 12, 60, 68
15, 261689, Note_on_c, 12, 60, 0
15, 261720, Note_on_c, 12, 60, 70
15, 261779, Note_on_c, 12, 60, 0
15, 261780, Note_on_c, 12, 61, 71
15, 261831, Note_on_c, 12, 61, 0
15, 261840, Note_on_c, 12, 60, 72
15, 261959, Note_on_c, 12, 60, 0
15, 262200, Note_on_c, 12, 65, 76
15, 262259, Note_on_c, 12, 65, 0
15, 262260, Note_on_c, 12, 66, 76
15, 262311, Note_on_c, 12, 66, 0
15, 262320, Note_on_c, 12, 65, 76
15, 262409, Note_on_c, 12, 65, 0
15, 262920, Note_on_c, 12, 70, 76
15, 262979, Note_on_c, 12, 70, 0
15, 262980, Note_on_c, 12, 72, 76
15, 263031, Note_on_c, 12, 72, 0
15, 263040, Note_on_c, 12, 70, 76
15, 263129, Note_on_c, 12, 70, 0
15, 263640, Note_on_c, 12, 63, 76
15, 263699, Note_on_c, 12, 63, 0
15, 263700, Note_on_c, 12, 65, 76
15, 263751, Note_on_c, 12, 65, 0
15, 263760, Note_on_c, 12, 63, 76
15, 263849, Note_on_c, 12, 63, 0
15, 264360, Note_on_c, 12, 68, 76
15, 264419, Note_on_c, 12, 68, 0
15, 264420, Note_on_c, 12, 70, 76
15, 264471, Note_on_c, 12, 70, 0
15, 264480, Note_on_c, 12, 68, 76
15, 264569, Note_on_c, 12, 68, 0
15, 264960, Note_on_c, 12, 68, 84
15, 265011, Note_on_c, 12, 68, 0
15, 265020, Note_on_c, 12, 68, 84
15, 265071, Note_on_c, 12, 68, 0
15, 265080, Note_on_c, 12, 68, 84
15, 265131, Note_on_c, 12, 68, 0
15, 265140, Note_on_c, 12, 68, 84
15, 265191, Note_on_c, 12, 68, 0
15, 265200, Note_on_c, 12, 68, 84
15, 265251, Note_on_c, 12, 68, 0
15, 265260, Note_on_c, 12, 68, 84
15, 265311, Note_on_c, 12, 68, 0
15, 265320, Note_on_c, 12, 68, 84
15, 265371, Note_on_c, 12, 68, 0
15, 265380, Note_on_c, 12, 68, 84
15, 265431, Note_on_c, 12, 68, 0
15, 265440, Note_on_c, 12, 68, 84
15, 265491, Note_on_c, 12, 68, 0
15, 265500, Note_on_c, 12, 68, 84
15, 265551, Note_on_c, 12, 68, 0
15, 265560, Note_on_c, 12, 68, 84
15, 265611, Note_on_c, 12, 68, 0
15, 265620, Note_on_c, 12, 68, 84
15, 265671, Note_on_c, 12, 68, 0
15, 265680, Note_on_c, 12, 70, 84
15, 265680, Note_on_c, 12, 68, 84
15, 265731, Note_on_c, 12, 70, 0
15, 265731, Note_on_c, 12, 68, 0
15, 265740, Note_on_c, 12, 70, 84
15, 265740, Note_on_c, 12, 68, 84
15, 265791, Note_on_c, 12, 70, 0
15, 265791, Note_on_c, 12, 68, 0
15, 265800, Note_on_c, 12, 70, 84
15, 265800, Note_on_c, 12, 68, 84
15, 265851, Note_on_c, 12, 70, 0
15, 265851, Note_on_c, 12, 68, 0
15, 265860, Note_on_c, 12, 68, 84
15, 265860, Note_on_c, 12, 70, 84
15, 265911, Note_on_c, 12, 68, 0
15, 265911, Note_on_c, 12, 70, 0
15, 265920, Note_on_c, 12, 70, 84
15, 265920, Note_on_c, 12, 68, 84
15, 265971, Note_on_c, 12, 70, 0
15, 265971, Note_on_c, 12, 68, 0
15, 265980, Note_on_c, 12, 68, 84
15, 265980, Note_on_c, 12, 70, 84
15, 266031, Note_on_c, 12, 68, 0
15, 266031, Note_on_c, 12, 70, 0
15, 266040, Note_on_c, 12, 70, 84
15, 266040, Note_on_c, 12, 68, 84
15, 266091, Note_on_c, 12, 70, 0
15, 266091, Note_on_c, 12, 68, 0
15, 266100, Note_on_c, 12, 70, 84
15, 266100, Note_on_c, 12, 68, 84
15, 266151, Note_on_c, 12, 70, 0
15, 266151, Note_on_c, 12, 68, 0
15, 266160, Note_on_c, 12, 68, 84
15, 266160, Note_on_c, 12, 70, 84
15, 266211, Note_on_c, 12, 68, 0
15, 266211, Note_on_c, 12, 70, 0
15, 266220, Note_on_c, 12, 70, 84
15, 266220, Note_on_c, 12, 68, 84
15, 266271, Note_on_c, 12, 70, 0
15, 266271, Note_on_c, 12, 68, 0
15, 266280, Note_on_c, 12, 70, 84
15, 266280, Note_on_c, 12, 68, 84
15, 266331, Note_on_c, 12, 70, 0
15, 266331, Note_on_c, 12, 68, 0
15, 266340, Note_on_c, 12, 68, 84
15, 266340, Note_on_c, 12, 70, 84
15, 266391, Note_on_c, 12, 68, 0
15, 266391, Note_on_c, 12, 70, 0
15, 266400, Note_on_c, 12, 70, 84
15, 266400, Note_on_c, 12, 67, 84
15, 266489, Note_on_c, 12, 70, 0
15, 266489, Note_on_c, 12, 67, 0
15, 266520, Note_on_c, 12, 63, 52
15, 266639, Note_on_c, 12, 63, 0
15, 266640, Note_on_c, 12, 58, 52
15, 266759, Note_on_c, 12, 58, 0
15, 266760, Note_on_c, 12, 63, 52
15, 266879, Note_on_c, 12, 63, 0
15, 266880, Note_on_c, 12, 58, 52
15, 266999, Note_on_c, 12, 58, 0
15, 267000, Note_on_c, 12, 63, 52
15, 267104, Note_on_c, 12, 63, 0
15, 267120, Note_on_c, 12, 58, 52
15, 267239, Note_on_c, 12, 58, 0
15, 267240, Note_on_c, 12, 63, 52
15, 267359, Note_on_c, 12, 63, 0
15, 267360, Note_on_c, 12, 58, 52
15, 267479, Note_on_c, 12, 58, 0
15, 267480, Note_on_c, 12, 63, 52
15, 267599, Note_on_c, 12, 63, 0
15, 267600, Note_on_c, 12, 58, 52
15, 267719, Note_on_c, 12, 58, 0
15, 267720, Note_on_c, 12, 63, 52
15, 267824, Note_on_c, 12, 63, 0
15, 267840, Note_on_c, 12, 58, 52
15, 267959, Note_on_c, 12, 58, 0
15, 267960, Note_on_c, 12, 63, 52
15, 268079, Note_on_c, 12, 63, 0
15, 268080, Note_on_c, 12, 58, 52
15, 268199, Note_on_c, 12, 58, 0
15, 268200, Note_on_c, 12, 63, 52
15, 268319, Note_on_c, 12, 63, 0
15, 268320, Note_on_c, 12, 58, 52
15, 268439, Note_on_c, 12, 58, 0
15, 268440, Note_on_c, 12, 63, 52
15, 268544, Note_on_c, 12, 63, 0
15, 268560, Note_on_c, 12, 58, 52
15, 268679, Note_on_c, 12, 58, 0
15, 268680, Note_on_c, 12, 63, 52
15, 268799, Note_on_c, 12, 63, 0
15, 268800, Note_on_c, 12, 58, 52
15, 268919, Note_on_c, 12, 58, 0
15, 268920, Note_on_c, 12, 63, 52
15, 269039, Note_on_c, 12, 63, 0
15, 269040, Note_on_c, 12, 58, 52
15, 269159, Note_on_c, 12, 58, 0
15, 269160, Note_on_c, 12, 63, 52
15, 269264, Note_on_c, 12, 63, 0
15, 269280, Note_on_c, 12, 60, 52
15, 269399, Note_on_c, 12, 60, 0
15, 269400, Note_on_c, 12, 63, 52
15, 269519, Note_on_c, 12, 63, 0
15, 269520, Note_on_c, 12, 60, 52
15, 269639, Note_on_c, 12, 60, 0
15, 269640, Note_on_c, 12, 63, 52
15, 269759, Note_on_c, 12, 63, 0
15, 269760, Note_on_c, 12, 60, 52
15, 269879, Note_on_c, 12, 60, 0
15, 269880, Note_on_c, 12, 63, 52
15, 269984, Note_on_c, 12, 63, 0
15, 270000, Note_on_c, 12, 60, 52
15, 270119, Note_on_c, 12, 60, 0
15, 270120, Note_on_c, 12, 63, 52
15, 270239, Note_on_c, 12, 63, 0
15, 270240, Note_on_c, 12, 60, 52
15, 270359, Note_on_c, 12, 60, 0
15, 270360, Note_on_c, 12, 63, 52
15, 270479, Note_on_c, 12, 63, 0
15, 270480, Note_on_c, 12, 60, 52
15, 270599, Note_on_c, 12, 60, 0
15, 270600, Note_on_c, 12, 63, 52
15, 270704, Note_on_c, 12, 63, 0
15, 270720, Note_on_c, 12, 60, 52
15, 270839, Note_on_c, 12, 60, 0
15, 270840, Note_on_c, 12, 63, 52
15, 270959, Note_on_c, 12, 63, 0
15, 270960, Note_on_c, 12, 60, 52
15, 271079, Note_on_c, 12, 60, 0
15, 271080, Note_on_c, 12, 63, 52
15, 271199, Note_on_c, 12, 63, 0
15, 271200, Note_on_c, 12, 60, 52
15, 271319, Note_on_c, 12, 60, 0
15, 271320, Note_on_c, 12, 63, 52
15, 271424, Note_on_c, 12, 63, 0
15, 271440, Note_on_c, 12, 60, 52
15, 271559, Note_on_c, 12, 60, 0
15, 271560, Note_on_c, 12, 63, 52
15, 271679, Note_on_c, 12, 63, 0
15, 271680, Note_on_c, 12, 60, 52
15, 271799, Note_on_c, 12, 60, 0
15, 271800, Note_on_c, 12, 63, 52
15, 271919, Note_on_c, 12, 63, 0
15, 271920, Note_on_c, 12, 60, 52
15, 272039, Note_on_c, 12, 60, 0
15, 272040, Note_on_c, 12, 63, 52
15, 272144, Note_on_c, 12, 63, 0
15, 272160, Note_on_c, 12, 61, 52
15, 272279, Note_on_c, 12, 61, 0
15, 272280, Note_on_c, 12, 63, 52
15, 272384, Note_on_c, 12, 63, 0
15, 272400, Note_on_c, 12, 58, 52
15, 272519, Note_on_c, 12, 58, 0
15, 272520, Note_on_c, 12, 63, 52
15, 272639, Note_on_c, 12, 63, 0
15, 272640, Note_on_c, 12, 58, 52
15, 272759, Note_on_c, 12, 58, 0
15, 272760, Note_on_c, 12, 63, 52
15, 272864, Note_on_c, 12, 63, 0
15, 272880, Note_on_c, 12, 58, 52
15, 272999, Note_on_c, 12, 58, 0
15, 273000, Note_on_c, 12, 63, 52
15, 273119, Note_on_c, 12, 63, 0
15, 273120, Note_on_c, 12, 58, 52
15, 273239, Note_on_c, 12, 58, 0
15, 273240, Note_on_c, 12, 63, 52
15, 273359, Note_on_c, 12, 63, 0
15, 273360, Note_on_c, 12, 58, 52
15, 273479, Note_on_c, 12, 58, 0
15, 273480, Note_on_c, 12, 63, 52
15, 273584, Note_on_c, 12, 63, 0
15, 273600, Note_on_c, 12, 58, 52
15, 273719, Note_on_c, 12, 58, 0
15, 273720, Note_on_c, 12, 63, 52
15, 273839, Note_on_c, 12, 63, 0
15, 273840, Note_on_c, 12, 58, 52
15, 273959, Note_on_c, 12, 58, 0
15, 273960, Note_on_c, 12, 63, 52
15, 274079, Note_on_c, 12, 63, 0
15, 274080, Note_on_c, 12, 58, 52
15, 274199, Note_on_c, 12, 58, 0
15, 274200, Note_on_c, 12, 63, 52
15, 274304, Note_on_c, 12, 63, 0
15, 274320, Note_on_c, 12, 58, 52
15, 274439, Note_on_c, 12, 58, 0
15, 274440, Note_on_c, 12, 63, 52
15, 274559, Note_on_c, 12, 63, 0
15, 274560, Note_on_c, 12, 58, 52
15, 274679, Note_on_c, 12, 58, 0
15, 274680, Note_on_c, 12, 63, 52
15, 274799, Note_on_c, 12, 63, 0
15, 274800, Note_on_c, 12, 58, 52
15, 274919, Note_on_c, 12, 58, 0
15, 274920, Note_on_c, 12, 63, 52
15, 275024, Note_on_c, 12, 63, 0
15, 275040, Note_on_c, 12, 60, 52
15, 275129, Note_on_c, 12, 60, 0
15, 275160, Note_on_c, 12, 60, 52
15, 275279, Note_on_c, 12, 60, 0
15, 275280, Note_on_c, 12, 63, 52
15, 275399, Note_on_c, 12, 63, 0
15, 275400, Note_on_c, 12, 60, 52
15, 275519, Note_on_c, 12, 60, 0
15, 275520, Note_on_c, 12, 63, 52
15, 275639, Note_on_c, 12, 63, 0
15, 275640, Note_on_c, 12, 60, 52
15, 275744, Note_on_c, 12, 60, 0
15, 275760, Note_on_c, 12, 65, 52
15, 275879, Note_on_c, 12, 65, 0
15, 275880, Note_on_c, 12, 60, 52
15, 275999, Note_on_c, 12, 60, 0
15, 276000, Note_on_c, 12, 65, 52
15, 276119, Note_on_c, 12, 65, 0
15, 276120, Note_on_c, 12, 60, 52
15, 276239, Note_on_c, 12, 60, 0
15, 276240, Note_on_c, 12, 65, 52
15, 276359, Note_on_c, 12, 65, 0
15, 276360, Note_on_c, 12, 60, 52
15, 276464, Note_on_c, 12, 60, 0
15, 276480, Note_on_c, 12, 67, 52
15, 276599, Note_on_c, 12, 67, 0
15, 276600, Note_on_c, 12, 60, 52
15, 276719, Note_on_c, 12, 60, 0
15, 276720, Note_on_c, 12, 64, 52
15, 276839, Note_on_c, 12, 64, 0
15, 276840, Note_on_c, 12, 60, 52
15, 276959, Note_on_c, 12, 60, 0
15, 276960, Note_on_c, 12, 64, 52
15, 277079, Note_on_c, 12, 64, 0
15, 277080, Note_on_c, 12, 60, 52
15, 277184, Note_on_c, 12, 60, 0
15, 277200, Note_on_c, 12, 67, 52
15, 277319, Note_on_c, 12, 67, 0
15, 277320, Note_on_c, 12, 60, 52
15, 277424, Note_on_c, 12, 60, 0
15, 277440, Note_on_c, 12, 60, 52
15, 277529, Note_on_c, 12, 60, 0
15, 277560, Note_on_c, 12, 60, 52
15, 277649, Note_on_c, 12, 60, 0
15, 277680, Note_on_c, 12, 60, 52
15, 277769, Note_on_c, 12, 60, 0
15, 277800, Note_on_c, 12, 60, 52
15, 277889, Note_on_c, 12, 60, 0
15, 277920, Note_on_c, 12, 60, 52
15, 278159, Note_on_c, 12, 60, 0
15, 279360, Note_on_c, 12, 65, 52
15, 279584, Note_on_c, 12, 65, 0
15, 279600, Note_on_c, 12, 74, 68
15, 279944, Note_on_c, 12, 74, 0
15, 279960, Note_on_c, 12, 65, 52
15, 280049, Note_on_c, 12, 65, 0
15, 280080, Note_on_c, 12, 63, 52
15, 280304, Note_on_c, 12, 63, 0
15, 280320, Note_on_c, 12, 72, 68
15, 280664, Note_on_c, 12, 72, 0
15, 280680, Note_on_c, 12, 63, 52
15, 280769, Note_on_c, 12, 63, 0
15, 280785, Control_c, 12, 11, 80
15, 280800, Note_on_c, 12, 62, 76
15, 280889, Note_on_c, 12, 62, 0
15, 280920, Note_on_c, 12, 67, 76
15, 280979, Note_on_c, 12, 67, 0
15, 280980, Note_on_c, 12, 69, 76
15, 281031, Note_on_c, 12, 69, 0
15, 281040, Note_on_c, 12, 70, 76
15, 281129, Note_on_c, 12, 70, 0
15, 281160, Note_on_c, 12, 67, 76
15, 281249, Note_on_c, 12, 67, 0
15, 281280, Note_on_c, 12, 63, 76
15, 281369, Note_on_c, 12, 63, 0
15, 281400, Note_on_c, 12, 62, 76
15, 281489, Note_on_c, 12, 62, 0
15, 281520, Note_on_c, 12, 60, 76
15, 281639, Note_on_c, 12, 60, 0
15, 281640, Note_on_c, 12, 66, 76
15, 281699, Note_on_c, 12, 66, 0
15, 281700, Note_on_c, 12, 67, 76
15, 281751, Note_on_c, 12, 67, 0
15, 281760, Note_on_c, 12, 69, 76
15, 281849, Note_on_c, 12, 69, 0
15, 281880, Note_on_c, 12, 66, 76
15, 281969, Note_on_c, 12, 66, 0
15, 282000, Note_on_c, 12, 62, 76
15, 282089, Note_on_c, 12, 62, 0
15, 282120, Note_on_c, 12, 62, 76
15, 282209, Note_on_c, 12, 62, 0
15, 282240, Note_on_c, 12, 62, 76
15, 282240, Control_c, 12, 11, 80
15, 282329, Note_on_c, 12, 62, 0
15, 282360, Note_on_c, 12, 67, 76
15, 282419, Note_on_c, 12, 67, 0
15, 282420, Note_on_c, 12, 69, 76
15, 282430, Control_c, 12, 11, 82
15, 282471, Note_on_c, 12, 69, 0
15, 282480, Note_on_c, 12, 70, 76
15, 282569, Note_on_c, 12, 70, 0
15, 282600, Note_on_c, 12, 67, 76
15, 282620, Control_c, 12, 11, 84
15, 282689, Note_on_c, 12, 67, 0
15, 282720, Note_on_c, 12, 63, 76
15, 282809, Note_on_c, 12, 63, 0
15, 282810, Control_c, 12, 11, 86
15, 282840, Note_on_c, 12, 62, 76
15, 282929, Note_on_c, 12, 62, 0
15, 282960, Note_on_c, 12, 60, 76
15, 283000, Control_c, 12, 11, 88
15, 283049, Note_on_c, 12, 60, 0
15, 283080, Note_on_c, 12, 69, 76
15, 283169, Note_on_c, 12, 69, 0
15, 283190, Control_c, 12, 11, 90
15, 283200, Note_on_c, 12, 58, 76
15, 283289, Note_on_c, 12, 58, 0
15, 283320, Note_on_c, 12, 70, 76
15, 283380, Control_c, 12, 11, 92
15, 283409, Note_on_c, 12, 70, 0
15, 283440, Note_on_c, 12, 70, 76
15, 283529, Note_on_c, 12, 70, 0
15, 283560, Note_on_c, 12, 79, 76
15, 283570, Control_c, 12, 11, 94
15, 283649, Note_on_c, 12, 79, 0
15, 283680, Note_on_c, 12, 79, 76
15, 283760, Control_c, 12, 11, 96
15, 283859, Note_on_c, 12, 79, 0
15, 283920, Note_on_c, 12, 67, 88
15, 283950, Control_c, 12, 11, 98
15, 284140, Control_c, 12, 11, 100
15, 284264, Note_on_c, 12, 67, 0
15, 284280, Note_on_c, 12, 67, 76
15, 284330, Control_c, 12, 11, 102
15, 284384, Note_on_c, 12, 67, 0
15, 284400, Note_on_c, 12, 65, 76
15, 284520, Control_c, 12, 11, 104
15, 284624, Note_on_c, 12, 65, 0
15, 284640, Note_on_c, 12, 77, 88
15, 284710, Control_c, 12, 11, 105
15, 284900, Control_c, 12, 11, 107
15, 284984, Note_on_c, 12, 77, 0
15, 285000, Note_on_c, 12, 77, 76
15, 285090, Control_c, 12, 11, 109
15, 285104, Note_on_c, 12, 77, 0
15, 285120, Note_on_c, 12, 77, 76
15, 285280, Control_c, 12, 11, 111
15, 285344, Note_on_c, 12, 77, 0
15, 285360, Note_on_c, 12, 64, 84
15, 285470, Control_c, 12, 11, 113
15, 285660, Control_c, 12, 11, 115
15, 285704, Note_on_c, 12, 64, 0
15, 285720, Note_on_c, 12, 64, 76
15, 285824, Note_on_c, 12, 64, 0
15, 285840, Note_on_c, 12, 62, 76
15, 285850, Control_c, 12, 11, 117
15, 286019, Note_on_c, 12, 62, 0
15, 286040, Control_c, 12, 11, 119
15, 286080, Note_on_c, 12, 74, 76
15, 286230, Control_c, 12, 11, 121
15, 286420, Control_c, 12, 11, 123
15, 286424, Note_on_c, 12, 74, 0
15, 286440, Note_on_c, 12, 74, 76
15, 286544, Note_on_c, 12, 74, 0
15, 286560, Note_on_c, 12, 74, 76
15, 286610, Control_c, 12, 11, 127
15, 286784, Note_on_c, 12, 74, 0
15, 286800, Note_on_c, 12, 59, 84
15, 288224, Note_on_c, 12, 59, 0
15, 288240, Note_on_c, 12, 59, 92
15, 288240, Note_on_c, 12, 68, 92
15, 288689, Note_on_c, 12, 59, 0
15, 288689, Note_on_c, 12, 68, 0
15, 288720, Note_on_c, 12, 59, 92
15, 288720, Note_on_c, 12, 68, 92
15, 289169, Note_on_c, 12, 59, 0
15, 289169, Note_on_c, 12, 68, 0
15, 289200, Note_on_c, 12, 68, 92
15, 289200, Note_on_c, 12, 59, 92
15, 289649, Note_on_c, 12, 68, 0
15, 289649, Note_on_c, 12, 59, 0
15, 289680, Note_on_c, 12, 59, 92
15, 289680, Note_on_c, 12, 68, 92
15, 290129, Note_on_c, 12, 59, 0
15, 290129, Note_on_c, 12, 68, 0
15, 290160, Note_on_c, 12, 59, 92
15, 290160, Note_on_c, 12, 68, 92
15, 290609, Note_on_c, 12, 59, 0
15, 290609, Note_on_c, 12, 68, 0
15, 290640, Note_on_c, 12, 59, 92
15, 290640, Note_on_c, 12, 68, 92
15, 290849, Note_on_c, 12, 59, 0
15, 290849, Note_on_c, 12, 68, 0
15, 290880, Note_on_c, 12, 60, 92
15, 290880, Note_on_c, 12, 69, 92
15, 292529, Note_on_c, 12, 60, 0
15, 292529, Note_on_c, 12, 69, 0
15, 292560, Note_on_c, 12, 60, 92
15, 292560, Note_on_c, 12, 69, 92
15, 293009, Note_on_c, 12, 60, 0
15, 293009, Note_on_c, 12, 69, 0
15, 293040, Note_on_c, 12, 60, 92
15, 293040, Note_on_c, 12, 69, 92
15, 293489, Note_on_c, 12, 60, 0
15, 293489, Note_on_c, 12, 69, 0
15, 293520, Note_on_c, 12, 69, 92
15, 293520, Note_on_c, 12, 60, 92
15, 293969, Note_on_c, 12, 69, 0
15, 293969, Note_on_c, 12, 60, 0
15, 294000, Note_on_c, 12, 69, 92
15, 294000, Note_on_c, 12, 60, 92
15, 294449, Note_on_c, 12, 69, 0
15, 294449, Note_on_c, 12, 60, 0
15, 294480, Note_on_c, 12, 69, 92
15, 294480, Note_on_c, 12, 60, 92
15, 294929, Note_on_c, 12, 69, 0
15, 294929, Note_on_c, 12, 60, 0
15, 294960, Note_on_c, 12, 64, 92
15, 295169, Note_on_c, 12, 64, 0
15, 295200, Note_on_c, 12, 63, 92
15, 296849, Note_on_c, 12, 63, 0
15, 296880, Note_on_c, 12, 63, 92
15, 297329, Note_on_c, 12, 63, 0
15, 297360, Note_on_c, 12, 66, 92
15, 297809, Note_on_c, 12, 66, 0
15, 297840, Note_on_c, 12, 63, 92
15, 298289, Note_on_c, 12, 63, 0
15, 298320, Note_on_c, 12, 63, 92
15, 298769, Note_on_c, 12, 63, 0
15, 298800, Note_on_c, 12, 66, 92
15, 299249, Note_on_c, 12, 66, 0
15, 299280, Note_on_c, 12, 63, 92
15, 299489, Note_on_c, 12, 63, 0
15, 299520, Note_on_c, 12, 64, 92
15, 299729, Note_on_c, 12, 64, 0
15, 299760, Note_on_c, 12, 76, 92
15, 300089, Note_on_c, 12, 76, 0
15, 300120, Note_on_c, 12, 64, 92
15, 300209, Note_on_c, 12, 64, 0
15, 300240, Note_on_c, 12, 64, 84
15, 300464, Note_on_c, 12, 64, 0
15, 300480, Note_on_c, 12, 76, 92
15, 300809, Note_on_c, 12, 76, 0
15, 300840, Note_on_c, 12, 64, 84
15, 300944, Note_on_c, 12, 64, 0
15, 300960, Note_on_c, 12, 64, 84
15, 301184, Note_on_c, 12, 64, 0
15, 301200, Note_on_c, 12, 64, 92
15, 301649, Note_on_c, 12, 64, 0
15, 301680, Note_on_c, 12, 64, 92
15, 302129, Note_on_c, 12, 64, 0
15, 302160, Note_on_c, 12, 67, 92
15, 302609, Note_on_c, 12, 67, 0
15, 302640, Note_on_c, 12, 64, 92
15, 303089, Note_on_c, 12, 64, 0
15, 303120, Note_on_c, 12, 64, 92
15, 303569, Note_on_c, 12, 64, 0
15, 303600, Note_on_c, 12, 67, 92
15, 303809, Note_on_c, 12, 67, 0
15, 304080, Note_on_c, 12, 78, 92
15, 304529, Note_on_c, 12, 78, 0
15, 304560, Note_on_c, 12, 78, 92
15, 305009, Note_on_c, 12, 78, 0
15, 305040, Note_on_c, 12, 78, 92
15, 305249, Note_on_c, 12, 78, 0
15, 305520, Note_on_c, 12, 79, 92
15, 305520, Note_on_c, 12, 72, 92
15, 305969, Note_on_c, 12, 79, 0
15, 305969, Note_on_c, 12, 72, 0
15, 306000, Note_on_c, 12, 79, 92
15, 306000, Note_on_c, 12, 72, 92
15, 306449, Note_on_c, 12, 79, 0
15, 306449, Note_on_c, 12, 72, 0
15, 306480, Note_on_c, 12, 72, 92
15, 306480, Note_on_c, 12, 79, 92
15, 306659, Note_on_c, 12, 72, 0
15, 306659, Note_on_c, 12, 79, 0
15, 306960, Note_on_c, 12, 76, 76
15, 306960, Note_on_c, 12, 72, 76
15, 307439, Note_on_c, 12, 76, 0
15, 307439, Note_on_c, 12, 72, 0
15, 307680, Note_on_c, 12, 72, 76
15, 307680, Note_on_c, 12, 76, 76
15, 308159, Note_on_c, 12, 72, 0
15, 308159, Note_on_c, 12, 76, 0
15, 308400, Note_on_c, 12, 72, 76
15, 308400, Note_on_c, 12, 76, 76
15, 308864, Note_on_c, 12, 72, 0
15, 308864, Note_on_c, 12, 76, 0
15, 308880, Note_on_c, 12, 72, 76
15, 308880, Note_on_c, 12, 76, 76
15, 309344, Note_on_c, 12, 72, 0
15, 309344, Note_on_c, 12, 76, 0
15, 309360, Note_on_c, 12, 76, 76
15, 309360, Note_on_c, 12, 72, 76
15, 309539, Note_on_c, 12, 76, 0
15, 309539, Note_on_c, 12, 72, 0
15, 309840, Note_on_c, 12, 60, 76
15, 310019, Note_on_c, 12, 60, 0
15, 310080, Note_on_c, 12, 60, 76
15, 310259, Note_on_c, 12, 60, 0
15, 310320, Note_on_c, 12, 60, 76
15, 310499, Note_on_c, 12, 60, 0
15, 310560, Note_on_c, 12, 60, 72
15, 310739, Note_on_c, 12, 60, 0
15, 310800, Note_on_c, 12, 60, 68
15, 310979, Note_on_c, 12, 60, 0
15, 311040, Note_on_c, 12, 60, 64
15, 311219, Note_on_c, 12, 60, 0
15, 311280, Note_on_c, 12, 59, 60
15, 311459, Note_on_c, 12, 59, 0
15, 311520, Note_on_c, 12, 59, 56
15, 311699, Note_on_c, 12, 59, 0
15, 311760, Note_on_c, 12, 59, 52
15, 311939, Note_on_c, 12, 59, 0
15, 312000, Note_on_c, 12, 59, 52
15, 312179, Note_on_c, 12, 59, 0
15, 312240, Note_on_c, 12, 59, 52
15, 312419, Note_on_c, 12, 59, 0
15, 312480, Note_on_c, 12, 59, 52
15, 312704, Note_on_c, 12, 59, 0
15, 312720, Note_on_c, 12, 64, 52
15, 312959, Note_on_c, 12, 64, 0
15, 312960, Note_on_c, 12, 66, 52
15, 313199, Note_on_c, 12, 66, 0
15, 313200, Note_on_c, 12, 67, 68
15, 313319, Note_on_c, 12, 67, 0
15, 313320, Note_on_c, 12, 67, 52
15, 313559, Note_on_c, 12, 67, 0
15, 313560, Note_on_c, 12, 66, 52
15, 313679, Note_on_c, 12, 66, 0
15, 313680, Note_on_c, 12, 64, 52
15, 313904, Note_on_c, 12, 64, 0
15, 313920, Note_on_c, 12, 63, 52
15, 314159, Note_on_c, 12, 63, 0
15, 314160, Note_on_c, 12, 62, 52
15, 314399, Note_on_c, 12, 62, 0
15, 314400, Note_on_c, 12, 61, 52
15, 314639, Note_on_c, 12, 61, 0
15, 314640, Note_on_c, 12, 59, 68
15, 314759, Note_on_c, 12, 59, 0
15, 314760, Note_on_c, 12, 59, 52
15, 315119, Note_on_c, 12, 59, 0
15, 315120, Note_on_c, 12, 61, 52
15, 315239, Note_on_c, 12, 61, 0
15, 315240, Note_on_c, 12, 63, 52
15, 315344, Note_on_c, 12, 63, 0
15, 315360, Note_on_c, 12, 64, 52
15, 315584, Note_on_c, 12, 64, 0
15, 315600, Note_on_c, 12, 64, 52
15, 315839, Note_on_c, 12, 64, 0
15, 315840, Note_on_c, 12, 66, 52
15, 316079, Note_on_c, 12, 66, 0
15, 316080, Note_on_c, 12, 67, 68
15, 316199, Note_on_c, 12, 67, 0
15, 316200, Note_on_c, 12, 67, 52
15, 316439, Note_on_c, 12, 67, 0
15, 316440, Note_on_c, 12, 66, 52
15, 316559, Note_on_c, 12, 66, 0
15, 316560, Note_on_c, 12, 64, 52
15, 316784, Note_on_c, 12, 64, 0
15, 316800, Note_on_c, 12, 63, 52
15, 317039, Note_on_c, 12, 63, 0
15, 317040, Note_on_c, 12, 62, 52
15, 317279, Note_on_c, 12, 62, 0
15, 317280, Note_on_c, 12, 61, 52
15, 317504, Note_on_c, 12, 61, 0
15, 317520, Note_on_c, 12, 59, 52
15, 317639, Note_on_c, 12, 59, 0
15, 317640, Note_on_c, 12, 65, 54
15, 317759, Note_on_c, 12, 65, 0
15, 317760, Note_on_c, 12, 64, 57
15, 317879, Note_on_c, 12, 64, 0
15, 317880, Note_on_c, 12, 65, 60
15, 317999, Note_on_c, 12, 65, 0
15, 318000, Note_on_c, 12, 64, 62
15, 318119, Note_on_c, 12, 64, 0
15, 318120, Note_on_c, 12, 62, 65
15, 318224, Note_on_c, 12, 62, 0
15, 318240, Note_on_c, 12, 60, 52
15, 318344, Note_on_c, 12, 60, 0
15, 318360, Note_on_c, 12, 64, 52
15, 318584, Note_on_c, 12, 64, 0
15, 318600, Note_on_c, 12, 64, 52
15, 318824, Note_on_c, 12, 64, 0
15, 318840, Note_on_c, 12, 64, 52
15, 319064, Note_on_c, 12, 64, 0
15, 319080, Note_on_c, 12, 64, 52
15, 319304, Note_on_c, 12, 64, 0
15, 319320, Note_on_c, 12, 64, 52
15, 319544, Note_on_c, 12, 64, 0
15, 319560, Note_on_c, 12, 64, 52
15, 319784, Note_on_c, 12, 64, 0
15, 319800, Note_on_c, 12, 76, 52
15, 320024, Note_on_c, 12, 76, 0
15, 320040, Note_on_c, 12, 76, 52
15, 320264, Note_on_c, 12, 76, 0
15, 320280, Note_on_c, 12, 76, 52
15, 320504, Note_on_c, 12, 76, 0
15, 320520, Note_on_c, 12, 76, 52
15, 320744, Note_on_c, 12, 76, 0
15, 320760, Note_on_c, 12, 76, 52
15, 320984, Note_on_c, 12, 76, 0
15, 321000, Note_on_c, 12, 76, 52
15, 321224, Note_on_c, 12, 76, 0
15, 321240, Note_on_c, 12, 64, 52
15, 321464, Note_on_c, 12, 64, 0
15, 321480, Note_on_c, 12, 64, 52
15, 321704, Note_on_c, 12, 64, 0
15, 321720, Note_on_c, 12, 64, 52
15, 321944, Note_on_c, 12, 64, 0
15, 321960, Note_on_c, 12, 64, 52
15, 322184, Note_on_c, 12, 64, 0
15, 322200, Note_on_c, 12, 64, 52
15, 322424, Note_on_c, 12, 64, 0
15, 322440, Note_on_c, 12, 64, 52
15, 322664, Note_on_c, 12, 64, 0
15, 322680, Note_on_c, 12, 76, 52
15, 322904, Note_on_c, 12, 76, 0
15, 322920, Note_on_c, 12, 76, 52
15, 323144, Note_on_c, 12, 76, 0
15, 323160, Note_on_c, 12, 76, 52
15, 323384, Note_on_c, 12, 76, 0
15, 323400, Note_on_c, 12, 76, 52
15, 323519, Note_on_c, 12, 76, 0
15, 323520, Note_on_c, 12, 79, 56
15, 323639, Note_on_c, 12, 79, 0
15, 323640, Note_on_c, 12, 77, 61
15, 323759, Note_on_c, 12, 77, 0
15, 323760, Note_on_c, 12, 76, 66
15, 323879, Note_on_c, 12, 76, 0
15, 323880, Note_on_c, 12, 74, 71
15, 323984, Note_on_c, 12, 74, 0
15, 324000, Note_on_c, 12, 72, 76
15, 324051, Note_on_c, 12, 72, 0
15, 324060, Note_on_c, 12, 60, 76
15, 324111, Note_on_c, 12, 60, 0
15, 324120, Note_on_c, 12, 60, 76
15, 324171, Note_on_c, 12, 60, 0
15, 324180, Note_on_c, 12, 60, 76
15, 324231, Note_on_c, 12, 60, 0
15, 324240, Note_on_c, 12, 60, 76
15, 324291, Note_on_c, 12, 60, 0
15, 324300, Note_on_c, 12, 60, 76
15, 324351, Note_on_c, 12, 60, 0
15, 324360, Note_on_c, 12, 60, 76
15, 324411, Note_on_c, 12, 60, 0
15, 324420, Note_on_c, 12, 60, 76
15, 324471, Note_on_c, 12, 60, 0
15, 324480, Note_on_c, 12, 64, 76
15, 324531, Note_on_c, 12, 64, 0
15, 324540, Note_on_c, 12, 64, 76
15, 324591, Note_on_c, 12, 64, 0
15, 324600, Note_on_c, 12, 64, 76
15, 324651, Note_on_c, 12, 64, 0
15, 324660, Note_on_c, 12, 64, 76
15, 324711, Note_on_c, 12, 64, 0
15, 324720, Note_on_c, 12, 60, 76
15, 324771, Note_on_c, 12, 60, 0
15, 324780, Note_on_c, 12, 60, 76
15, 324831, Note_on_c, 12, 60, 0
15, 324840, Note_on_c, 12, 60, 76
15, 324891, Note_on_c, 12, 60, 0
15, 324900, Note_on_c, 12, 60, 76
15, 324951, Note_on_c, 12, 60, 0
15, 324960, Note_on_c, 12, 60, 76
15, 325011, Note_on_c, 12, 60, 0
15, 325020, Note_on_c, 12, 60, 76
15, 325071, Note_on_c, 12, 60, 0
15, 325080, Note_on_c, 12, 60, 76
15, 325131, Note_on_c, 12, 60, 0
15, 325140, Note_on_c, 12, 60, 76
15, 325191, Note_on_c, 12, 60, 0
15, 325200, Note_on_c, 12, 55, 76
15, 325251, Note_on_c, 12, 55, 0
15, 325260, Note_on_c, 12, 55, 76
15, 325311, Note_on_c, 12, 55, 0
15, 325320, Note_on_c, 12, 55, 76
15, 325371, Note_on_c, 12, 55, 0
15, 325380, Note_on_c, 12, 55, 76
15, 325431, Note_on_c, 12, 55, 0
15, 325440, Note_on_c, 12, 60, 76
15, 325491, Note_on_c, 12, 60, 0
15, 325500, Note_on_c, 12, 60, 76
15, 325551, Note_on_c, 12, 60, 0
15, 325560, Note_on_c, 12, 60, 76
15, 325611, Note_on_c, 12, 60, 0
15, 325620, Note_on_c, 12, 60, 76
15, 325671, Note_on_c, 12, 60, 0
15, 325680, Note_on_c, 12, 64, 76
15, 325731, Note_on_c, 12, 64, 0
15, 325740, Note_on_c, 12, 64, 76
15, 325791, Note_on_c, 12, 64, 0
15, 325800, Note_on_c, 12, 64, 76
15, 325851, Note_on_c, 12, 64, 0
15, 325860, Note_on_c, 12, 64, 76
15, 325911, Note_on_c, 12, 64, 0
15, 325920, Note_on_c, 12, 67, 76
15, 325971, Note_on_c, 12, 67, 0
15, 325980, Note_on_c, 12, 67, 76
15, 326031, Note_on_c, 12, 67, 0
15, 326040, Note_on_c, 12, 67, 76
15, 326091, Note_on_c, 12, 67, 0
15, 326100, Note_on_c, 12, 67, 76
15, 326151, Note_on_c, 12, 67, 0
15, 326160, Note_on_c, 12, 60, 76
15, 326211, Note_on_c, 12, 60, 0
15, 326220, Note_on_c, 12, 60, 76
15, 326271, Note_on_c, 12, 60, 0
15, 326280, Note_on_c, 12, 60, 76
15, 326331, Note_on_c, 12, 60, 0
15, 326340, Note_on_c, 12, 60, 76
15, 326391, Note_on_c, 12, 60, 0
15, 326400, Note_on_c, 12, 60, 76
15, 326451, Note_on_c, 12, 60, 0
15, 326460, Note_on_c, 12, 60, 76
15, 326511, Note_on_c, 12, 60, 0
15, 326520, Note_on_c, 12, 60, 76
15, 326571, Note_on_c, 12, 60, 0
15, 326580, Note_on_c, 12, 60, 76
15, 326631, Note_on_c, 12, 60, 0
15, 326640, Note_on_c, 12, 55, 76
15, 326691, Note_on_c, 12, 55, 0
15, 326700, Note_on_c, 12, 55, 76
15, 326751, Note_on_c, 12, 55, 0
15, 326760, Note_on_c, 12, 55, 76
15, 326811, Note_on_c, 12, 55, 0
15, 326820, Note_on_c, 12, 55, 76
15, 326871, Note_on_c, 12, 55, 0
15, 326880, Note_on_c, 12, 60, 76
15, 326931, Note_on_c, 12, 60, 0
15, 326940, Note_on_c, 12, 64, 76
15, 326940, Note_on_c, 12, 55, 76
15, 326991, Note_on_c, 12, 64, 0
15, 326991, Note_on_c, 12, 55, 0
15, 327000, Note_on_c, 12, 55, 76
15, 327000, Note_on_c, 12, 64, 76
15, 327051, Note_on_c, 12, 55, 0
15, 327051, Note_on_c, 12, 64, 0
15, 327060, Note_on_c, 12, 64, 76
15, 327060, Note_on_c, 12, 55, 76
15, 327111, Note_on_c, 12, 64, 0
15, 327111, Note_on_c, 12, 55, 0
15, 327120, Note_on_c, 12, 55, 76
15, 327120, Note_on_c, 12, 64, 76
15, 327171, Note_on_c, 12, 55, 0
15, 327171, Note_on_c, 12, 64, 0
15, 327180, Note_on_c, 12, 55, 76
15, 327180, Note_on_c, 12, 64, 76
15, 327231, Note_on_c, 12, 55, 0
15, 327231, Note_on_c, 12, 64, 0
15, 327240, Note_on_c, 12, 55, 76
15, 327240, Note_on_c, 12, 64, 76
15, 327291, Note_on_c, 12, 55, 0
15, 327291, Note_on_c, 12, 64, 0
15, 327300, Note_on_c, 12, 55, 76
15, 327300, Note_on_c, 12, 64, 76
15, 327351, Note_on_c, 12, 55, 0
15, 327351, Note_on_c, 12, 64, 0
15, 327360, Note_on_c, 12, 64, 76
15, 327360, Note_on_c, 12, 55, 76
15, 327411, Note_on_c, 12, 64, 0
15, 327411, Note_on_c, 12, 55, 0
15, 327420, Note_on_c, 12, 55, 76
15, 327420, Note_on_c, 12, 64, 76
15, 327471, Note_on_c, 12, 55, 0
15, 327471, Note_on_c, 12, 64, 0
15, 327480, Note_on_c, 12, 64, 76
15, 327480, Note_on_c, 12, 55, 76
15, 327531, Note_on_c, 12, 64, 0
15, 327531, Note_on_c, 12, 55, 0
15, 327540, Note_on_c, 12, 64, 76
15, 327540, Note_on_c, 12, 55, 76
15, 327591, Note_on_c, 12, 64, 0
15, 327591, Note_on_c, 12, 55, 0
15, 327600, Note_on_c, 12, 55, 76
15, 327600, Note_on_c, 12, 64, 76
15, 327651, Note_on_c, 12, 55, 0
15, 327651, Note_on_c, 12, 64, 0
15, 327660, Note_on_c, 12, 55, 76
15, 327660, Note_on_c, 12, 64, 76
15, 327711, Note_on_c, 12, 55, 0
15, 327711, Note_on_c, 12, 64, 0
15, 327720, Note_on_c, 12, 64, 76
15, 327720, Note_on_c, 12, 55, 76
15, 327771, Note_on_c, 12, 64, 0
15, 327771, Note_on_c, 12, 55, 0
15, 327780, Note_on_c, 12, 55, 76
15, 327780, Note_on_c, 12, 64, 76
15, 327831, Note_on_c, 12, 55, 0
15, 327831, Note_on_c, 12, 64, 0
15, 327840, Note_on_c, 12, 55, 76
15, 327840, Note_on_c, 12, 64, 76
15, 327891, Note_on_c, 12, 55, 0
15, 327891, Note_on_c, 12, 64, 0
15, 327900, Note_on_c, 12, 64, 76
15, 327900, Note_on_c, 12, 55, 76
15, 327951, Note_on_c, 12, 64, 0
15, 327951, Note_on_c, 12, 55, 0
15, 327960, Note_on_c, 12, 64, 76
15, 327960, Note_on_c, 12, 55, 76
15, 328011, Note_on_c, 12, 64, 0
15, 328011, Note_on_c, 12, 55, 0
15, 328020, Note_on_c, 12, 64, 76
15, 328020, Note_on_c, 12, 55, 76
15, 328071, Note_on_c, 12, 64, 0
15, 328071, Note_on_c, 12, 55, 0
15, 328080, Note_on_c, 12, 64, 76
15, 328080, Note_on_c, 12, 55, 76
15, 328131, Note_on_c, 12, 64, 0
15, 328131, Note_on_c, 12, 55, 0
15, 328140, Note_on_c, 12, 64, 76
15, 328140, Note_on_c, 12, 55, 76
15, 328191, Note_on_c, 12, 64, 0
15, 328191, Note_on_c, 12, 55, 0
15, 328200, Note_on_c, 12, 55, 76
15, 328200, Note_on_c, 12, 64, 76
15, 328251, Note_on_c, 12, 55, 0
15, 328251, Note_on_c, 12, 64, 0
15, 328260, Note_on_c, 12, 64, 76
15, 328260, Note_on_c, 12, 55, 76
15, 328311, Note_on_c, 12, 64, 0
15, 328311, Note_on_c, 12, 55, 0
15, 328320, Note_on_c, 12, 55, 76
15, 328320, Note_on_c, 12, 65, 76
15, 328371, Note_on_c, 12, 55, 0
15, 328371, Note_on_c, 12, 65, 0
15, 328380, Note_on_c, 12, 65, 76
15, 328380, Note_on_c, 12, 55, 76
15, 328431, Note_on_c, 12, 65, 0
15, 328431, Note_on_c, 12, 55, 0
15, 328440, Note_on_c, 12, 55, 76
15, 328440, Note_on_c, 12, 65, 76
15, 328491, Note_on_c, 12, 55, 0
15, 328491, Note_on_c, 12, 65, 0
15, 328500, Note_on_c, 12, 65, 76
15, 328500, Note_on_c, 12, 55, 76
15, 328551, Note_on_c, 12, 65, 0
15, 328551, Note_on_c, 12, 55, 0
15, 328560, Note_on_c, 12, 65, 76
15, 328560, Note_on_c, 12, 55, 76
15, 328611, Note_on_c, 12, 65, 0
15, 328611, Note_on_c, 12, 55, 0
15, 328620, Note_on_c, 12, 65, 76
15, 328620, Note_on_c, 12, 55, 76
15, 328671, Note_on_c, 12, 65, 0
15, 328671, Note_on_c, 12, 55, 0
15, 328680, Note_on_c, 12, 65, 76
15, 328680, Note_on_c, 12, 55, 76
15, 328731, Note_on_c, 12, 65, 0
15, 328731, Note_on_c, 12, 55, 0
15, 328740, Note_on_c, 12, 65, 76
15, 328740, Note_on_c, 12, 55, 76
15, 328791, Note_on_c, 12, 65, 0
15, 328791, Note_on_c, 12, 55, 0
15, 328800, Note_on_c, 12, 65, 76
15, 328800, Note_on_c, 12, 55, 76
15, 328851, Note_on_c, 12, 65, 0
15, 328851, Note_on_c, 12, 55, 0
15, 328860, Note_on_c, 12, 55, 76
15, 328860, Note_on_c, 12, 65, 76
15, 328911, Note_on_c, 12, 55, 0
15, 328911, Note_on_c, 12, 65, 0
15, 328920, Note_on_c, 12, 65, 76
15, 328920, Note_on_c, 12, 55, 76
15, 328971, Note_on_c, 12, 65, 0
15, 328971, Note_on_c, 12, 55, 0
15, 328980, Note_on_c, 12, 65, 76
15, 328980, Note_on_c, 12, 55, 76
15, 329031, Note_on_c, 12, 65, 0
15, 329031, Note_on_c, 12, 55, 0
15, 329040, Note_on_c, 12, 65, 76
15, 329040, Note_on_c, 12, 55, 76
15, 329091, Note_on_c, 12, 65, 0
15, 329091, Note_on_c, 12, 55, 0
15, 329100, Note_on_c, 12, 55, 76
15, 329100, Note_on_c, 12, 65, 76
15, 329151, Note_on_c, 12, 55, 0
15, 329151, Note_on_c, 12, 65, 0
15, 329160, Note_on_c, 12, 55, 76
15, 329160, Note_on_c, 12, 65, 76
15, 329211, Note_on_c, 12, 55, 0
15, 329211, Note_on_c, 12, 65, 0
15, 329220, Note_on_c, 12, 65, 76
15, 329220, Note_on_c, 12, 55, 76
15, 329271, Note_on_c, 12, 65, 0
15, 329271, Note_on_c, 12, 55, 0
15, 329280, Note_on_c, 12, 65, 76
15, 329280, Note_on_c, 12, 55, 76
15, 329331, Note_on_c, 12, 65, 0
15, 329331, Note_on_c, 12, 55, 0
15, 329340, Note_on_c, 12, 55, 76
15, 329340, Note_on_c, 12, 65, 76
15, 329391, Note_on_c, 12, 55, 0
15, 329391, Note_on_c, 12, 65, 0
15, 329400, Note_on_c, 12, 55, 76
15, 329400, Note_on_c, 12, 65, 76
15, 329451, Note_on_c, 12, 55, 0
15, 329451, Note_on_c, 12, 65, 0
15, 329460, Note_on_c, 12, 65, 76
15, 329460, Note_on_c, 12, 55, 76
15, 329511, Note_on_c, 12, 65, 0
15, 329511, Note_on_c, 12, 55, 0
15, 329520, Note_on_c, 12, 65, 76
15, 329520, Note_on_c, 12, 55, 76
15, 329571, Note_on_c, 12, 65, 0
15, 329571, Note_on_c, 12, 55, 0
15, 329580, Note_on_c, 12, 65, 76
15, 329580, Note_on_c, 12, 55, 76
15, 329631, Note_on_c, 12, 65, 0
15, 329631, Note_on_c, 12, 55, 0
15, 329640, Note_on_c, 12, 55, 76
15, 329640, Note_on_c, 12, 65, 76
15, 329691, Note_on_c, 12, 55, 0
15, 329691, Note_on_c, 12, 65, 0
15, 329700, Note_on_c, 12, 65, 76
15, 329700, Note_on_c, 12, 55, 76
15, 329751, Note_on_c, 12, 65, 0
15, 329751, Note_on_c, 12, 55, 0
15, 329760, Note_on_c, 12, 55, 76
15, 329760, Note_on_c, 12, 63, 76
15, 329811, Note_on_c, 12, 55, 0
15, 329811, Note_on_c, 12, 63, 0
15, 329820, Note_on_c, 12, 63, 76
15, 329820, Note_on_c, 12, 55, 76
15, 329871, Note_on_c, 12, 63, 0
15, 329871, Note_on_c, 12, 55, 0
15, 329880, Note_on_c, 12, 63, 76
15, 329880, Note_on_c, 12, 55, 76
15, 329931, Note_on_c, 12, 63, 0
15, 329931, Note_on_c, 12, 55, 0
15, 329940, Note_on_c, 12, 55, 76
15, 329940, Note_on_c, 12, 63, 76
15, 329991, Note_on_c, 12, 55, 0
15, 329991, Note_on_c, 12, 63, 0
15, 330000, Note_on_c, 12, 63, 76
15, 330000, Note_on_c, 12, 55, 76
15, 330051, Note_on_c, 12, 63, 0
15, 330051, Note_on_c, 12, 55, 0
15, 330060, Note_on_c, 12, 55, 76
15, 330060, Note_on_c, 12, 63, 76
15, 330111, Note_on_c, 12, 55, 0
15, 330111, Note_on_c, 12, 63, 0
15, 330120, Note_on_c, 12, 63, 76
15, 330120, Note_on_c, 12, 55, 76
15, 330171, Note_on_c, 12, 63, 0
15, 330171, Note_on_c, 12, 55, 0
15, 330180, Note_on_c, 12, 55, 76
15, 330180, Note_on_c, 12, 63, 76
15, 330231, Note_on_c, 12, 55, 0
15, 330231, Note_on_c, 12, 63, 0
15, 330240, Note_on_c, 12, 63, 76
15, 330240, Note_on_c, 12, 55, 76
15, 330291, Note_on_c, 12, 63, 0
15, 330291, Note_on_c, 12, 55, 0
15, 330300, Note_on_c, 12, 63, 76
15, 330300, Note_on_c, 12, 55, 76
15, 330351, Note_on_c, 12, 63, 0
15, 330351, Note_on_c, 12, 55, 0
15, 330360, Note_on_c, 12, 63, 76
15, 330360, Note_on_c, 12, 55, 76
15, 330411, Note_on_c, 12, 63, 0
15, 330411, Note_on_c, 12, 55, 0
15, 330420, Note_on_c, 12, 55, 76
15, 330420, Note_on_c, 12, 63, 76
15, 330471, Note_on_c, 12, 55, 0
15, 330471, Note_on_c, 12, 63, 0
15, 330480, Note_on_c, 12, 55, 76
15, 330480, Note_on_c, 12, 63, 76
15, 330531, Note_on_c, 12, 55, 0
15, 330531, Note_on_c, 12, 63, 0
15, 330540, Note_on_c, 12, 63, 76
15, 330540, Note_on_c, 12, 55, 76
15, 330591, Note_on_c, 12, 63, 0
15, 330591, Note_on_c, 12, 55, 0
15, 330600, Note_on_c, 12, 55, 76
15, 330600, Note_on_c, 12, 63, 76
15, 330651, Note_on_c, 12, 55, 0
15, 330651, Note_on_c, 12, 63, 0
15, 330660, Note_on_c, 12, 63, 76
15, 330660, Note_on_c, 12, 55, 76
15, 330711, Note_on_c, 12, 63, 0
15, 330711, Note_on_c, 12, 55, 0
15, 330720, Note_on_c, 12, 63, 76
15, 330720, Note_on_c, 12, 55, 76
15, 330771, Note_on_c, 12, 63, 0
15, 330771, Note_on_c, 12, 55, 0
15, 330780, Note_on_c, 12, 63, 76
15, 330780, Note_on_c, 12, 55, 76
15, 330831, Note_on_c, 12, 63, 0
15, 330831, Note_on_c, 12, 55, 0
15, 330840, Note_on_c, 12, 55, 76
15, 330840, Note_on_c, 12, 63, 76
15, 330891, Note_on_c, 12, 55, 0
15, 330891, Note_on_c, 12, 63, 0
15, 330900, Note_on_c, 12, 55, 76
15, 330900, Note_on_c, 12, 63, 76
15, 330951, Note_on_c, 12, 55, 0
15, 330951, Note_on_c, 12, 63, 0
15, 330960, Note_on_c, 12, 63, 76
15, 330960, Note_on_c, 12, 55, 76
15, 331011, Note_on_c, 12, 63, 0
15, 331011, Note_on_c, 12, 55, 0
15, 331020, Note_on_c, 12, 55, 76
15, 331020, Note_on_c, 12, 63, 76
15, 331071, Note_on_c, 12, 55, 0
15, 331071, Note_on_c, 12, 63, 0
15, 331080, Note_on_c, 12, 55, 76
15, 331080, Note_on_c, 12, 63, 76
15, 331131, Note_on_c, 12, 55, 0
15, 331131, Note_on_c, 12, 63, 0
15, 331140, Note_on_c, 12, 63, 76
15, 331140, Note_on_c, 12, 55, 76
15, 331191, Note_on_c, 12, 63, 0
15, 331191, Note_on_c, 12, 55, 0
15, 331200, Note_on_c, 12, 65, 76
15, 331200, Note_on_c, 12, 55, 76
15, 331251, Note_on_c, 12, 65, 0
15, 331251, Note_on_c, 12, 55, 0
15, 331260, Note_on_c, 12, 55, 76
15, 331260, Note_on_c, 12, 65, 76
15, 331311, Note_on_c, 12, 55, 0
15, 331311, Note_on_c, 12, 65, 0
15, 331320, Note_on_c, 12, 65, 76
15, 331320, Note_on_c, 12, 55, 76
15, 331371, Note_on_c, 12, 65, 0
15, 331371, Note_on_c, 12, 55, 0
15, 331380, Note_on_c, 12, 55, 76
15, 331380, Note_on_c, 12, 65, 76
15, 331431, Note_on_c, 12, 55, 0
15, 331431, Note_on_c, 12, 65, 0
15, 331440, Note_on_c, 12, 65, 76
15, 331440, Note_on_c, 12, 55, 76
15, 331491, Note_on_c, 12, 65, 0
15, 331491, Note_on_c, 12, 55, 0
15, 331500, Note_on_c, 12, 55, 76
15, 331500, Note_on_c, 12, 65, 76
15, 331551, Note_on_c, 12, 55, 0
15, 331551, Note_on_c, 12, 65, 0
15, 331560, Note_on_c, 12, 55, 76
15, 331560, Note_on_c, 12, 65, 76
15, 331611, Note_on_c, 12, 55, 0
15, 331611, Note_on_c, 12, 65, 0
15, 331620, Note_on_c, 12, 55, 76
15, 331620, Note_on_c, 12, 65, 76
15, 331671, Note_on_c, 12, 55, 0
15, 331671, Note_on_c, 12, 65, 0
15, 331680, Note_on_c, 12, 55, 76
15, 331680, Note_on_c, 12, 65, 76
15, 331731, Note_on_c, 12, 55, 0
15, 331731, Note_on_c, 12, 65, 0
15, 331740, Note_on_c, 12, 65, 76
15, 331740, Note_on_c, 12, 55, 76
15, 331791, Note_on_c, 12, 65, 0
15, 331791, Note_on_c, 12, 55, 0
15, 331800, Note_on_c, 12, 65, 76
15, 331800, Note_on_c, 12, 55, 76
15, 331851, Note_on_c, 12, 65, 0
15, 331851, Note_on_c, 12, 55, 0
15, 331860, Note_on_c, 12, 65, 76
15, 331860, Note_on_c, 12, 55, 76
15, 331911, Note_on_c, 12, 65, 0
15, 331911, Note_on_c, 12, 55, 0
15, 331920, Note_on_c, 12, 55, 76
15, 331920, Note_on_c, 12, 65, 76
15, 331971, Note_on_c, 12, 55, 0
15, 331971, Note_on_c, 12, 65, 0
15, 331980, Note_on_c, 12, 55, 76
15, 331980, Note_on_c, 12, 65, 76
15, 332031, Note_on_c, 12, 55, 0
15, 332031, Note_on_c, 12, 65, 0
15, 332040, Note_on_c, 12, 65, 76
15, 332040, Note_on_c, 12, 55, 76
15, 332091, Note_on_c, 12, 65, 0
15, 332091, Note_on_c, 12, 55, 0
15, 332100, Note_on_c, 12, 55, 76
15, 332100, Note_on_c, 12, 65, 76
15, 332151, Note_on_c, 12, 55, 0
15, 332151, Note_on_c, 12, 65, 0
15, 332160, Note_on_c, 12, 55, 76
15, 332160, Note_on_c, 12, 65, 76
15, 332211, Note_on_c, 12, 55, 0
15, 332211, Note_on_c, 12, 65, 0
15, 332220, Note_on_c, 12, 55, 76
15, 332220, Note_on_c, 12, 65, 76
15, 332271, Note_on_c, 12, 55, 0
15, 332271, Note_on_c, 12, 65, 0
15, 332280, Note_on_c, 12, 65, 76
15, 332280, Note_on_c, 12, 55, 76
15, 332331, Note_on_c, 12, 65, 0
15, 332331, Note_on_c, 12, 55, 0
15, 332340, Note_on_c, 12, 65, 76
15, 332340, Note_on_c, 12, 55, 76
15, 332391, Note_on_c, 12, 65, 0
15, 332391, Note_on_c, 12, 55, 0
15, 332400, Note_on_c, 12, 65, 76
15, 332400, Note_on_c, 12, 55, 76
15, 332451, Note_on_c, 12, 65, 0
15, 332451, Note_on_c, 12, 55, 0
15, 332460, Note_on_c, 12, 55, 76
15, 332460, Note_on_c, 12, 65, 76
15, 332511, Note_on_c, 12, 55, 0
15, 332511, Note_on_c, 12, 65, 0
15, 332520, Note_on_c, 12, 55, 76
15, 332520, Note_on_c, 12, 65, 76
15, 332571, Note_on_c, 12, 55, 0
15, 332571, Note_on_c, 12, 65, 0
15, 332580, Note_on_c, 12, 65, 76
15, 332580, Note_on_c, 12, 55, 76
15, 332631, Note_on_c, 12, 65, 0
15, 332631, Note_on_c, 12, 55, 0
15, 332640, Note_on_c, 12, 63, 76
15, 332640, Note_on_c, 12, 55, 76
15, 332691, Note_on_c, 12, 63, 0
15, 332691, Note_on_c, 12, 55, 0
15, 332700, Note_on_c, 12, 60, 76
15, 332751, Note_on_c, 12, 60, 0
15, 332760, Note_on_c, 12, 60, 76
15, 332811, Note_on_c, 12, 60, 0
15, 332820, Note_on_c, 12, 60, 76
15, 332871, Note_on_c, 12, 60, 0
15, 332880, Note_on_c, 12, 63, 76
15, 332931, Note_on_c, 12, 63, 0
15, 332940, Note_on_c, 12, 63, 76
15, 332991, Note_on_c, 12, 63, 0
15, 333000, Note_on_c, 12, 63, 76
15, 333051, Note_on_c, 12, 63, 0
15, 333060, Note_on_c, 12, 63, 76
15, 333111, Note_on_c, 12, 63, 0
15, 333120, Note_on_c, 12, 67, 76
15, 333171, Note_on_c, 12, 67, 0
15, 333180, Note_on_c, 12, 67, 76
15, 333231, Note_on_c, 12, 67, 0
15, 333240, Note_on_c, 12, 67, 76
15, 333291, Note_on_c, 12, 67, 0
15, 333300, Note_on_c, 12, 67, 76
15, 333351, Note_on_c, 12, 67, 0
15, 333360, Note_on_c, 12, 68, 84
15, 333411, Note_on_c, 12, 68, 0
15, 333420, Note_on_c, 12, 68, 76
15, 333471, Note_on_c, 12, 68, 0
15, 333480, Note_on_c, 12, 68, 76
15, 333531, Note_on_c, 12, 68, 0
15, 333540, Note_on_c, 12, 68, 76
15, 333591, Note_on_c, 12, 68, 0
15, 333600, Note_on_c, 12, 68, 76
15, 333651, Note_on_c, 12, 68, 0
15, 333660, Note_on_c, 12, 68, 76
15, 333711, Note_on_c, 12, 68, 0
15, 333720, Note_on_c, 12, 68, 76
15, 333771, Note_on_c, 12, 68, 0
15, 333780, Note_on_c, 12, 68, 76
15, 333831, Note_on_c, 12, 68, 0
15, 333840, Note_on_c, 12, 60, 76
15, 333891, Note_on_c, 12, 60, 0
15, 333900, Note_on_c, 12, 60, 76
15, 333951, Note_on_c, 12, 60, 0
15, 333960, Note_on_c, 12, 60, 76
15, 334011, Note_on_c, 12, 60, 0
15, 334020, Note_on_c, 12, 60, 76
15, 334071, Note_on_c, 12, 60, 0
15, 334080, Note_on_c, 12, 61, 76
15, 334131, Note_on_c, 12, 61, 0
15, 334140, Note_on_c, 12, 61, 76
15, 334191, Note_on_c, 12, 61, 0
15, 334200, Note_on_c, 12, 61, 76
15, 334251, Note_on_c, 12, 61, 0
15, 334260, Note_on_c, 12, 61, 76
15, 334311, Note_on_c, 12, 61, 0
15, 334320, Note_on_c, 12, 65, 76
15, 334371, Note_on_c, 12, 65, 0
15, 334380, Note_on_c, 12, 65, 76
15, 334431, Note_on_c, 12, 65, 0
15, 334440, Note_on_c, 12, 65, 76
15, 334491, Note_on_c, 12, 65, 0
15, 334500, Note_on_c, 12, 65, 76
15, 334551, Note_on_c, 12, 65, 0
15, 334560, Note_on_c, 12, 69, 76
15, 334611, Note_on_c, 12, 69, 0
15, 334620, Note_on_c, 12, 69, 76
15, 334671, Note_on_c, 12, 69, 0
15, 334680, Note_on_c, 12, 69, 76
15, 334731, Note_on_c, 12, 69, 0
15, 334740, Note_on_c, 12, 69, 76
15, 334791, Note_on_c, 12, 69, 0
15, 334800, Note_on_c, 12, 70, 84
15, 334851, Note_on_c, 12, 70, 0
15, 334860, Note_on_c, 12, 70, 76
15, 334911, Note_on_c, 12, 70, 0
15, 334920, Note_on_c, 12, 70, 76
15, 334971, Note_on_c, 12, 70, 0
15, 334980, Note_on_c, 12, 70, 76
15, 335031, Note_on_c, 12, 70, 0
15, 335040, Note_on_c, 12, 70, 76
15, 335091, Note_on_c, 12, 70, 0
15, 335100, Note_on_c, 12, 70, 76
15, 335151, Note_on_c, 12, 70, 0
15, 335160, Note_on_c, 12, 70, 76
15, 335211, Note_on_c, 12, 70, 0
15, 335220, Note_on_c, 12, 70, 76
15, 335271, Note_on_c, 12, 70, 0
15, 335280, Note_on_c, 12, 62, 76
15, 335331, Note_on_c, 12, 62, 0
15, 335340, Note_on_c, 12, 62, 76
15, 335391, Note_on_c, 12, 62, 0
15, 335400, Note_on_c, 12, 62, 76
15, 335451, Note_on_c, 12, 62, 0
15, 335460, Note_on_c, 12, 62, 76
15, 335511, Note_on_c, 12, 62, 0
15, 335520, Note_on_c, 12, 63, 76
15, 335571, Note_on_c, 12, 63, 0
15, 335580, Note_on_c, 12, 58, 76
15, 335580, Note_on_c, 12, 67, 76
15, 335631, Note_on_c, 12, 58, 0
15, 335631, Note_on_c, 12, 67, 0
15, 335640, Note_on_c, 12, 67, 76
15, 335640, Note_on_c, 12, 58, 76
15, 335691, Note_on_c, 12, 67, 0
15, 335691, Note_on_c, 12, 58, 0
15, 335700, Note_on_c, 12, 67, 76
15, 335700, Note_on_c, 12, 58, 76
15, 335751, Note_on_c, 12, 67, 0
15, 335751, Note_on_c, 12, 58, 0
15, 335760, Note_on_c, 12, 58, 76
15, 335760, Note_on_c, 12, 67, 76
15, 335811, Note_on_c, 12, 58, 0
15, 335811, Note_on_c, 12, 67, 0
15, 335820, Note_on_c, 12, 67, 76
15, 335820, Note_on_c, 12, 58, 76
15, 335871, Note_on_c, 12, 67, 0
15, 335871, Note_on_c, 12, 58, 0
15, 335880, Note_on_c, 12, 67, 76
15, 335880, Note_on_c, 12, 58, 76
15, 335931, Note_on_c, 12, 67, 0
15, 335931, Note_on_c, 12, 58, 0
15, 335940, Note_on_c, 12, 58, 76
15, 335940, Note_on_c, 12, 67, 76
15, 335991, Note_on_c, 12, 58, 0
15, 335991, Note_on_c, 12, 67, 0
15, 336000, Note_on_c, 12, 58, 76
15, 336000, Note_on_c, 12, 67, 76
15, 336051, Note_on_c, 12, 58, 0
15, 336051, Note_on_c, 12, 67, 0
15, 336060, Note_on_c, 12, 58, 76
15, 336060, Note_on_c, 12, 67, 76
15, 336111, Note_on_c, 12, 58, 0
15, 336111, Note_on_c, 12, 67, 0
15, 336120, Note_on_c, 12, 58, 76
15, 336120, Note_on_c, 12, 67, 76
15, 336171, Note_on_c, 12, 58, 0
15, 336171, Note_on_c, 12, 67, 0
15, 336180, Note_on_c, 12, 67, 76
15, 336180, Note_on_c, 12, 58, 76
15, 336231, Note_on_c, 12, 67, 0
15, 336231, Note_on_c, 12, 58, 0
15, 336240, Note_on_c, 12, 58, 76
15, 336240, Note_on_c, 12, 67, 76
15, 336291, Note_on_c, 12, 58, 0
15, 336291, Note_on_c, 12, 67, 0
15, 336300, Note_on_c, 12, 58, 76
15, 336300, Note_on_c, 12, 67, 76
15, 336351, Note_on_c, 12, 58, 0
15, 336351, Note_on_c, 12, 67, 0
15, 336360, Note_on_c, 12, 58, 76
15, 336360, Note_on_c, 12, 67, 76
15, 336411, Note_on_c, 12, 58, 0
15, 336411, Note_on_c, 12, 67, 0
15, 336420, Note_on_c, 12, 67, 76
15, 336420, Note_on_c, 12, 58, 76
15, 336471, Note_on_c, 12, 67, 0
15, 336471, Note_on_c, 12, 58, 0
15, 336480, Note_on_c, 12, 58, 76
15, 336480, Note_on_c, 12, 67, 76
15, 336531, Note_on_c, 12, 58, 0
15, 336531, Note_on_c, 12, 67, 0
15, 336540, Note_on_c, 12, 58, 76
15, 336540, Note_on_c, 12, 67, 76
15, 336591, Note_on_c, 12, 58, 0
15, 336591, Note_on_c, 12, 67, 0
15, 336600, Note_on_c, 12, 58, 76
15, 336600, Note_on_c, 12, 67, 76
15, 336651, Note_on_c, 12, 58, 0
15, 336651, Note_on_c, 12, 67, 0
15, 336660, Note_on_c, 12, 58, 76
15, 336660, Note_on_c, 12, 67, 76
15, 336711, Note_on_c, 12, 58, 0
15, 336711, Note_on_c, 12, 67, 0
15, 336720, Note_on_c, 12, 67, 76
15, 336720, Note_on_c, 12, 58, 76
15, 336771, Note_on_c, 12, 67, 0
15, 336771, Note_on_c, 12, 58, 0
15, 336780, Note_on_c, 12, 58, 76
15, 336780, Note_on_c, 12, 67, 76
15, 336831, Note_on_c, 12, 58, 0
15, 336831, Note_on_c, 12, 67, 0
15, 336840, Note_on_c, 12, 58, 76
15, 336840, Note_on_c, 12, 67, 76
15, 336891, Note_on_c, 12, 58, 0
15, 336891, Note_on_c, 12, 67, 0
15, 336900, Note_on_c, 12, 67, 76
15, 336900, Note_on_c, 12, 58, 76
15, 336951, Note_on_c, 12, 67, 0
15, 336951, Note_on_c, 12, 58, 0
15, 336960, Note_on_c, 12, 68, 76
15, 336960, Note_on_c, 12, 58, 76
15, 337011, Note_on_c, 12, 68, 0
15, 337011, Note_on_c, 12, 58, 0
15, 337020, Note_on_c, 12, 58, 76
15, 337020, Note_on_c, 12, 68, 76
15, 337071, Note_on_c, 12, 58, 0
15, 337071, Note_on_c, 12, 68, 0
15, 337080, Note_on_c, 12, 68, 76
15, 337080, Note_on_c, 12, 58, 76
15, 337131, Note_on_c, 12, 68, 0
15, 337131, Note_on_c, 12, 58, 0
15, 337140, Note_on_c, 12, 58, 76
15, 337140, Note_on_c, 12, 68, 76
15, 337191, Note_on_c, 12, 58, 0
15, 337191, Note_on_c, 12, 68, 0
15, 337200, Note_on_c, 12, 58, 76
15, 337200, Note_on_c, 12, 68, 76
15, 337251, Note_on_c, 12, 58, 0
15, 337251, Note_on_c, 12, 68, 0
15, 337260, Note_on_c, 12, 68, 76
15, 337260, Note_on_c, 12, 58, 76
15, 337311, Note_on_c, 12, 68, 0
15, 337311, Note_on_c, 12, 58, 0
15, 337320, Note_on_c, 12, 58, 76
15, 337320, Note_on_c, 12, 68, 76
15, 337371, Note_on_c, 12, 58, 0
15, 337371, Note_on_c, 12, 68, 0
15, 337380, Note_on_c, 12, 68, 76
15, 337380, Note_on_c, 12, 58, 76
15, 337431, Note_on_c, 12, 68, 0
15, 337431, Note_on_c, 12, 58, 0
15, 337440, Note_on_c, 12, 58, 76
15, 337440, Note_on_c, 12, 68, 76
15, 337491, Note_on_c, 12, 58, 0
15, 337491, Note_on_c, 12, 68, 0
15, 337500, Note_on_c, 12, 68, 76
15, 337500, Note_on_c, 12, 58, 76
15, 337551, Note_on_c, 12, 68, 0
15, 337551, Note_on_c, 12, 58, 0
15, 337560, Note_on_c, 12, 58, 76
15, 337560, Note_on_c, 12, 68, 76
15, 337611, Note_on_c, 12, 58, 0
15, 337611, Note_on_c, 12, 68, 0
15, 337620, Note_on_c, 12, 68, 76
15, 337620, Note_on_c, 12, 58, 76
15, 337671, Note_on_c, 12, 68, 0
15, 337671, Note_on_c, 12, 58, 0
15, 337680, Note_on_c, 12, 58, 76
15, 337680, Note_on_c, 12, 68, 76
15, 337731, Note_on_c, 12, 58, 0
15, 337731, Note_on_c, 12, 68, 0
15, 337740, Note_on_c, 12, 58, 76
15, 337740, Note_on_c, 12, 68, 76
15, 337791, Note_on_c, 12, 58, 0
15, 337791, Note_on_c, 12, 68, 0
15, 337800, Note_on_c, 12, 58, 76
15, 337800, Note_on_c, 12, 68, 76
15, 337851, Note_on_c, 12, 58, 0
15, 337851, Note_on_c, 12, 68, 0
15, 337860, Note_on_c, 12, 58, 76
15, 337860, Note_on_c, 12, 68, 76
15, 337911, Note_on_c, 12, 58, 0
15, 337911, Note_on_c, 12, 68, 0
15, 337920, Note_on_c, 12, 58, 76
15, 337920, Note_on_c, 12, 68, 76
15, 337971, Note_on_c, 12, 58, 0
15, 337971, Note_on_c, 12, 68, 0
15, 337980, Note_on_c, 12, 58, 76
15, 337980, Note_on_c, 12, 68, 76
15, 338031, Note_on_c, 12, 58, 0
15, 338031, Note_on_c, 12, 68, 0
15, 338040, Note_on_c, 12, 58, 76
15, 338040, Note_on_c, 12, 68, 76
15, 338091, Note_on_c, 12, 58, 0
15, 338091, Note_on_c, 12, 68, 0
15, 338100, Note_on_c, 12, 68, 76
15, 338100, Note_on_c, 12, 58, 76
15, 338151, Note_on_c, 12, 68, 0
15, 338151, Note_on_c, 12, 58, 0
15, 338160, Note_on_c, 12, 68, 76
15, 338160, Note_on_c, 12, 58, 76
15, 338211, Note_on_c, 12, 68, 0
15, 338211, Note_on_c, 12, 58, 0
15, 338220, Note_on_c, 12, 58, 76
15, 338220, Note_on_c, 12, 68, 76
15, 338271, Note_on_c, 12, 58, 0
15, 338271, Note_on_c, 12, 68, 0
15, 338280, Note_on_c, 12, 68, 76
15, 338280, Note_on_c, 12, 58, 76
15, 338331, Note_on_c, 12, 68, 0
15, 338331, Note_on_c, 12, 58, 0
15, 338340, Note_on_c, 12, 58, 76
15, 338340, Note_on_c, 12, 68, 76
15, 338391, Note_on_c, 12, 58, 0
15, 338391, Note_on_c, 12, 68, 0
15, 338400, Note_on_c, 12, 66, 84
15, 338400, Note_on_c, 12, 58, 84
15, 338451, Note_on_c, 12, 66, 0
15, 338451, Note_on_c, 12, 58, 0
15, 338460, Note_on_c, 12, 63, 84
15, 338511, Note_on_c, 12, 63, 0
15, 338520, Note_on_c, 12, 63, 84
15, 338571, Note_on_c, 12, 63, 0
15, 338580, Note_on_c, 12, 63, 84
15, 338631, Note_on_c, 12, 63, 0
15, 338640, Note_on_c, 12, 66, 84
15, 338691, Note_on_c, 12, 66, 0
15, 338700, Note_on_c, 12, 66, 84
15, 338751, Note_on_c, 12, 66, 0
15, 338760, Note_on_c, 12, 66, 84
15, 338811, Note_on_c, 12, 66, 0
15, 338820, Note_on_c, 12, 66, 84
15, 338871, Note_on_c, 12, 66, 0
15, 338880, Note_on_c, 12, 70, 84
15, 338931, Note_on_c, 12, 70, 0
15, 338940, Note_on_c, 12, 70, 84
15, 338991, Note_on_c, 12, 70, 0
15, 339000, Note_on_c, 12, 70, 84
15, 339051, Note_on_c, 12, 70, 0
15, 339060, Note_on_c, 12, 70, 84
15, 339111, Note_on_c, 12, 70, 0
15, 339120, Note_on_c, 12, 63, 84
15, 339171, Note_on_c, 12, 63, 0
15, 339180, Note_on_c, 12, 63, 84
15, 339231, Note_on_c, 12, 63, 0
15, 339240, Note_on_c, 12, 63, 84
15, 339291, Note_on_c, 12, 63, 0
15, 339300, Note_on_c, 12, 63, 84
15, 339351, Note_on_c, 12, 63, 0
15, 339360, Note_on_c, 12, 66, 84
15, 339411, Note_on_c, 12, 66, 0
15, 339420, Note_on_c, 12, 66, 84
15, 339471, Note_on_c, 12, 66, 0
15, 339480, Note_on_c, 12, 66, 84
15, 339531, Note_on_c, 12, 66, 0
15, 339540, Note_on_c, 12, 66, 84
15, 339591, Note_on_c, 12, 66, 0
15, 339600, Note_on_c, 12, 70, 84
15, 339651, Note_on_c, 12, 70, 0
15, 339660, Note_on_c, 12, 70, 84
15, 339711, Note_on_c, 12, 70, 0
15, 339720, Note_on_c, 12, 70, 84
15, 339771, Note_on_c, 12, 70, 0
15, 339780, Note_on_c, 12, 70, 84
15, 339831, Note_on_c, 12, 70, 0
15, 339840, Note_on_c, 12, 75, 76
15, 339944, Note_on_c, 12, 75, 0
15, 339960, Note_on_c, 12, 58, 52
15, 340184, Note_on_c, 12, 58, 0
15, 340200, Note_on_c, 12, 58, 52
15, 340424, Note_on_c, 12, 58, 0
15, 340440, Note_on_c, 12, 58, 52
15, 340664, Note_on_c, 12, 58, 0
15, 340680, Note_on_c, 12, 58, 52
15, 340904, Note_on_c, 12, 58, 0
15, 340920, Note_on_c, 12, 58, 52
15, 341144, Note_on_c, 12, 58, 0
15, 341160, Note_on_c, 12, 58, 52
15, 341384, Note_on_c, 12, 58, 0
15, 341400, Note_on_c, 12, 70, 52
15, 341624, Note_on_c, 12, 70, 0
15, 341640, Note_on_c, 12, 70, 52
15, 341864, Note_on_c, 12, 70, 0
15, 341880, Note_on_c, 12, 70, 52
15, 342104, Note_on_c, 12, 70, 0
15, 342120, Note_on_c, 12, 70, 52
15, 342344, Note_on_c, 12, 70, 0
15, 342360, Note_on_c, 12, 70, 52
15, 342584, Note_on_c, 12, 70, 0
15, 342600, Note_on_c, 12, 70, 52
15, 342824, Note_on_c, 12, 70, 0
15, 343440, Control_c, 12, 11, 96
15, 343680, Note_on_c, 12, 66, 68
15, 343680, Control_c, 12, 11, 96
15, 343740, Control_c, 12, 11, 95
15, 343800, Control_c, 12, 11, 93
15, 343860, Control_c, 12, 11, 92
15, 343904, Note_on_c, 12, 66, 0
15, 343920, Control_c, 12, 11, 91
15, 343920, Note_on_c, 12, 66, 68
15, 343980, Control_c, 12, 11, 89
15, 344040, Control_c, 12, 11, 88
15, 344100, Control_c, 12, 11, 87
15, 344144, Note_on_c, 12, 66, 0
15, 344160, Control_c, 12, 11, 85
15, 344160, Note_on_c, 12, 68, 68
15, 344220, Control_c, 12, 11, 84
15, 344280, Control_c, 12, 11, 83
15, 344340, Control_c, 12, 11, 81
15, 344399, Note_on_c, 12, 68, 0
15, 344400, Control_c, 12, 11, 80
15, 344500, Control_c, 12, 11, 84
15, 344600, Control_c, 12, 11, 88
15, 344640, Note_on_c, 12, 61, 68
15, 344700, Control_c, 12, 11, 92
15, 344800, Control_c, 12, 11, 96
15, 344879, Note_on_c, 12, 61, 0
15, 344880, Note_on_c, 12, 59, 68
15, 344900, Control_c, 12, 11, 100
15, 345000, Control_c, 12, 11, 104
15, 345100, Control_c, 12, 11, 107
15, 345119, Note_on_c, 12, 59, 0
15, 345200, Control_c, 12, 11, 111
15, 345300, Control_c, 12, 11, 115
15, 345360, Note_on_c, 12, 59, 68
15, 345400, Control_c, 12, 11, 119
15, 345500, Control_c, 12, 11, 127
15, 345599, Note_on_c, 12, 59, 0
15, 345600, Note_on_c, 12, 58, 52
15, 347024, Note_on_c, 12, 58, 0
15, 347040, Note_on_c, 12, 59, 52
15, 347264, Note_on_c, 12, 59, 0
15, 347280, Note_on_c, 12, 71, 52
15, 347519, Note_on_c, 12, 71, 0
15, 347520, Note_on_c, 12, 73, 52
15, 347759, Note_on_c, 12, 73, 0
15, 347760, Note_on_c, 12, 75, 52
15, 348119, Note_on_c, 12, 75, 0
15, 348120, Note_on_c, 12, 73, 52
15, 348239, Note_on_c, 12, 73, 0
15, 348240, Note_on_c, 12, 71, 52
15, 348464, Note_on_c, 12, 71, 0
15, 348480, Note_on_c, 12, 70, 52
15, 348584, Note_on_c, 12, 70, 0
15, 348600, Note_on_c, 12, 58, 52
15, 348600, Note_on_c, 12, 66, 52
15, 348824, Note_on_c, 12, 58, 0
15, 348824, Note_on_c, 12, 66, 0
15, 348840, Note_on_c, 12, 66, 52
15, 348840, Note_on_c, 12, 58, 52
15, 349064, Note_on_c, 12, 66, 0
15, 349064, Note_on_c, 12, 58, 0
15, 349080, Note_on_c, 12, 58, 52
15, 349080, Note_on_c, 12, 66, 52
15, 349304, Note_on_c, 12, 58, 0
15, 349304, Note_on_c, 12, 66, 0
15, 349320, Note_on_c, 12, 58, 52
15, 349320, Note_on_c, 12, 66, 52
15, 349544, Note_on_c, 12, 58, 0
15, 349544, Note_on_c, 12, 66, 0
15, 349560, Note_on_c, 12, 58, 52
15, 349560, Note_on_c, 12, 66, 52
15, 349784, Note_on_c, 12, 58, 0
15, 349784, Note_on_c, 12, 66, 0
15, 349800, Note_on_c, 12, 66, 52
15, 349800, Note_on_c, 12, 58, 52
15, 349919, Note_on_c, 12, 66, 0
15, 349920, Note_on_c, 12, 68, 52
15, 350024, Note_on_c, 12, 58, 0
15, 350024, Note_on_c, 12, 68, 0
15, 350040, Note_on_c, 12, 58, 52
15, 350040, Note_on_c, 12, 68, 52
15, 350264, Note_on_c, 12, 58, 0
15, 350264, Note_on_c, 12, 68, 0
15, 350280, Note_on_c, 12, 68, 52
15, 350280, Note_on_c, 12, 58, 52
15, 350504, Note_on_c, 12, 68, 0
15, 350504, Note_on_c, 12, 58, 0
15, 350520, Note_on_c, 12, 68, 52
15, 350520, Note_on_c, 12, 58, 52
15, 350639, Note_on_c, 12, 68, 0
15, 350640, Note_on_c, 12, 66, 52
15, 350744, Note_on_c, 12, 58, 0
15, 350744, Note_on_c, 12, 66, 0
15, 350760, Note_on_c, 12, 66, 52
15, 350760, Note_on_c, 12, 58, 52
15, 350984, Note_on_c, 12, 66, 0
15, 350984, Note_on_c, 12, 58, 0
15, 351000, Note_on_c, 12, 58, 52
15, 351000, Note_on_c, 12, 66, 52
15, 351224, Note_on_c, 12, 58, 0
15, 351224, Note_on_c, 12, 66, 0
15, 351240, Note_on_c, 12, 66, 52
15, 351240, Note_on_c, 12, 58, 52
15, 351359, Note_on_c, 12, 66, 0
15, 351359, Note_on_c, 12, 58, 0
15, 351360, Note_on_c, 12, 58, 52
15, 351360, Note_on_c, 12, 65, 52
15, 351411, Note_on_c, 12, 58, 0
15, 351411, Note_on_c, 12, 65, 0
15, 351420, Note_on_c, 12, 65, 52
15, 351420, Note_on_c, 12, 58, 52
15, 351471, Note_on_c, 12, 65, 0
15, 351471, Note_on_c, 12, 58, 0
15, 351480, Note_on_c, 12, 58, 52
15, 351480, Note_on_c, 12, 65, 52
15, 351531, Note_on_c, 12, 58, 0
15, 351531, Note_on_c, 12, 65, 0
15, 351540, Note_on_c, 12, 65, 52
15, 351540, Note_on_c, 12, 58, 52
15, 351591, Note_on_c, 12, 65, 0
15, 351591, Note_on_c, 12, 58, 0
15, 351600, Note_on_c, 12, 65, 52
15, 351600, Note_on_c, 12, 58, 52
15, 351651, Note_on_c, 12, 65, 0
15, 351651, Note_on_c, 12, 58, 0
15, 351660, Note_on_c, 12, 65, 52
15, 351660, Note_on_c, 12, 58, 52
15, 351711, Note_on_c, 12, 65, 0
15, 351711, Note_on_c, 12, 58, 0
15, 351720, Note_on_c, 12, 58, 52
15, 351720, Note_on_c, 12, 65, 52
15, 351771, Note_on_c, 12, 58, 0
15, 351771, Note_on_c, 12, 65, 0
15, 351780, Note_on_c, 12, 65, 52
15, 351780, Note_on_c, 12, 58, 52
15, 351831, Note_on_c, 12, 65, 0
15, 351831, Note_on_c, 12, 58, 0
15, 351840, Note_on_c, 12, 58, 52
15, 351840, Note_on_c, 12, 65, 52
15, 351891, Note_on_c, 12, 58, 0
15, 351891, Note_on_c, 12, 65, 0
15, 351900, Note_on_c, 12, 65, 52
15, 351900, Note_on_c, 12, 58, 52
15, 351951, Note_on_c, 12, 65, 0
15, 351951, Note_on_c, 12, 58, 0
15, 351960, Note_on_c, 12, 65, 52
15, 351960, Note_on_c, 12, 58, 52
15, 352011, Note_on_c, 12, 65, 0
15, 352011, Note_on_c, 12, 58, 0
15, 352020, Note_on_c, 12, 58, 52
15, 352020, Note_on_c, 12, 65, 52
15, 352071, Note_on_c, 12, 58, 0
15, 352071, Note_on_c, 12, 65, 0
15, 352080, Note_on_c, 12, 58, 52
15, 352080, Note_on_c, 12, 65, 52
15, 352131, Note_on_c, 12, 58, 0
15, 352131, Note_on_c, 12, 65, 0
15, 352140, Note_on_c, 12, 65, 52
15, 352140, Note_on_c, 12, 58, 52
15, 352191, Note_on_c, 12, 65, 0
15, 352191, Note_on_c, 12, 58, 0
15, 352200, Note_on_c, 12, 65, 52
15, 352200, Note_on_c, 12, 58, 52
15, 352251, Note_on_c, 12, 65, 0
15, 352251, Note_on_c, 12, 58, 0
15, 352260, Note_on_c, 12, 65, 52
15, 352260, Note_on_c, 12, 58, 52
15, 352311, Note_on_c, 12, 65, 0
15, 352311, Note_on_c, 12, 58, 0
15, 352320, Note_on_c, 12, 58, 52
15, 352320, Note_on_c, 12, 65, 52
15, 352371, Note_on_c, 12, 58, 0
15, 352371, Note_on_c, 12, 65, 0
15, 352380, Note_on_c, 12, 65, 52
15, 352380, Note_on_c, 12, 58, 52
15, 352431, Note_on_c, 12, 65, 0
15, 352431, Note_on_c, 12, 58, 0
15, 352440, Note_on_c, 12, 58, 52
15, 352440, Note_on_c, 12, 65, 52
15, 352491, Note_on_c, 12, 58, 0
15, 352491, Note_on_c, 12, 65, 0
15, 352500, Note_on_c, 12, 58, 52
15, 352500, Note_on_c, 12, 65, 52
15, 352551, Note_on_c, 12, 58, 0
15, 352551, Note_on_c, 12, 65, 0
15, 352560, Note_on_c, 12, 65, 52
15, 352560, Note_on_c, 12, 58, 52
15, 352611, Note_on_c, 12, 65, 0
15, 352611, Note_on_c, 12, 58, 0
15, 352620, Note_on_c, 12, 65, 52
15, 352620, Note_on_c, 12, 58, 52
15, 352671, Note_on_c, 12, 65, 0
15, 352671, Note_on_c, 12, 58, 0
15, 352680, Note_on_c, 12, 65, 52
15, 352680, Note_on_c, 12, 58, 52
15, 352731, Note_on_c, 12, 65, 0
15, 352731, Note_on_c, 12, 58, 0
15, 352740, Note_on_c, 12, 65, 52
15, 352740, Note_on_c, 12, 58, 52
15, 352791, Note_on_c, 12, 65, 0
15, 352791, Note_on_c, 12, 58, 0
15, 352800, Note_on_c, 12, 58, 52
15, 352800, Note_on_c, 12, 65, 52
15, 352851, Note_on_c, 12, 58, 0
15, 352851, Note_on_c, 12, 65, 0
15, 352860, Note_on_c, 12, 58, 52
15, 352860, Note_on_c, 12, 65, 52
15, 352911, Note_on_c, 12, 58, 0
15, 352911, Note_on_c, 12, 65, 0
15, 352920, Note_on_c, 12, 65, 52
15, 352920, Note_on_c, 12, 58, 52
15, 352971, Note_on_c, 12, 65, 0
15, 352971, Note_on_c, 12, 58, 0
15, 352980, Note_on_c, 12, 65, 52
15, 352980, Note_on_c, 12, 58, 52
15, 353031, Note_on_c, 12, 65, 0
15, 353031, Note_on_c, 12, 58, 0
15, 353040, Note_on_c, 12, 65, 52
15, 353040, Note_on_c, 12, 58, 52
15, 353091, Note_on_c, 12, 65, 0
15, 353091, Note_on_c, 12, 58, 0
15, 353100, Note_on_c, 12, 65, 52
15, 353100, Note_on_c, 12, 58, 52
15, 353151, Note_on_c, 12, 65, 0
15, 353151, Note_on_c, 12, 58, 0
15, 353160, Note_on_c, 12, 58, 52
15, 353160, Note_on_c, 12, 65, 52
15, 353211, Note_on_c, 12, 58, 0
15, 353211, Note_on_c, 12, 65, 0
15, 353220, Note_on_c, 12, 65, 52
15, 353220, Note_on_c, 12, 58, 52
15, 353271, Note_on_c, 12, 65, 0
15, 353271, Note_on_c, 12, 58, 0
15, 353280, Note_on_c, 12, 58, 52
15, 353280, Note_on_c, 12, 65, 52
15, 353331, Note_on_c, 12, 58, 0
15, 353331, Note_on_c, 12, 65, 0
15, 353340, Note_on_c, 12, 58, 52
15, 353340, Note_on_c, 12, 65, 52
15, 353391, Note_on_c, 12, 58, 0
15, 353391, Note_on_c, 12, 65, 0
15, 353400, Note_on_c, 12, 65, 52
15, 353400, Note_on_c, 12, 58, 52
15, 353451, Note_on_c, 12, 65, 0
15, 353451, Note_on_c, 12, 58, 0
15, 353460, Note_on_c, 12, 58, 52
15, 353460, Note_on_c, 12, 65, 52
15, 353511, Note_on_c, 12, 58, 0
15, 353511, Note_on_c, 12, 65, 0
15, 353520, Note_on_c, 12, 62, 68
15, 353520, Note_on_c, 12, 58, 68
15, 353571, Note_on_c, 12, 62, 0
15, 353571, Note_on_c, 12, 58, 0
15, 353580, Note_on_c, 12, 62, 52
15, 353580, Note_on_c, 12, 58, 52
15, 353631, Note_on_c, 12, 62, 0
15, 353631, Note_on_c, 12, 58, 0
15, 353640, Note_on_c, 12, 62, 52
15, 353640, Note_on_c, 12, 58, 52
15, 353691, Note_on_c, 12, 62, 0
15, 353691, Note_on_c, 12, 58, 0
15, 353700, Note_on_c, 12, 58, 52
15, 353700, Note_on_c, 12, 62, 52
15, 353751, Note_on_c, 12, 58, 0
15, 353751, Note_on_c, 12, 62, 0
15, 353760, Note_on_c, 12, 58, 52
15, 353760, Note_on_c, 12, 62, 52
15, 353811, Note_on_c, 12, 58, 0
15, 353811, Note_on_c, 12, 62, 0
15, 353820, Note_on_c, 12, 62, 52
15, 353820, Note_on_c, 12, 58, 52
15, 353871, Note_on_c, 12, 62, 0
15, 353871, Note_on_c, 12, 58, 0
15, 353880, Note_on_c, 12, 58, 52
15, 353880, Note_on_c, 12, 62, 52
15, 353931, Note_on_c, 12, 58, 0
15, 353931, Note_on_c, 12, 62, 0
15, 353940, Note_on_c, 12, 58, 52
15, 353940, Note_on_c, 12, 62, 52
15, 353991, Note_on_c, 12, 58, 0
15, 353991, Note_on_c, 12, 62, 0
15, 354000, Note_on_c, 12, 58, 52
15, 354000, Note_on_c, 12, 62, 52
15, 354051, Note_on_c, 12, 58, 0
15, 354051, Note_on_c, 12, 62, 0
15, 354060, Note_on_c, 12, 58, 52
15, 354060, Note_on_c, 12, 62, 52
15, 354111, Note_on_c, 12, 58, 0
15, 354111, Note_on_c, 12, 62, 0
15, 354120, Note_on_c, 12, 62, 52
15, 354120, Note_on_c, 12, 58, 52
15, 354171, Note_on_c, 12, 62, 0
15, 354171, Note_on_c, 12, 58, 0
15, 354180, Note_on_c, 12, 58, 52
15, 354180, Note_on_c, 12, 62, 52
15, 354231, Note_on_c, 12, 58, 0
15, 354231, Note_on_c, 12, 62, 0
15, 354240, Note_on_c, 12, 58, 52
15, 354240, Note_on_c, 12, 66, 52
15, 354291, Note_on_c, 12, 58, 0
15, 354291, Note_on_c, 12, 66, 0
15, 354300, Note_on_c, 12, 66, 52
15, 354300, Note_on_c, 12, 58, 52
15, 354351, Note_on_c, 12, 66, 0
15, 354351, Note_on_c, 12, 58, 0
15, 354360, Note_on_c, 12, 66, 52
15, 354360, Note_on_c, 12, 58, 52
15, 354411, Note_on_c, 12, 66, 0
15, 354411, Note_on_c, 12, 58, 0
15, 354420, Note_on_c, 12, 58, 52
15, 354420, Note_on_c, 12, 66, 52
15, 354471, Note_on_c, 12, 58, 0
15, 354471, Note_on_c, 12, 66, 0
15, 354480, Note_on_c, 12, 58, 52
15, 354480, Note_on_c, 12, 66, 52
15, 354531, Note_on_c, 12, 58, 0
15, 354531, Note_on_c, 12, 66, 0
15, 354540, Note_on_c, 12, 58, 52
15, 354540, Note_on_c, 12, 66, 52
15, 354591, Note_on_c, 12, 58, 0
15, 354591, Note_on_c, 12, 66, 0
15, 354600, Note_on_c, 12, 58, 52
15, 354600, Note_on_c, 12, 66, 52
15, 354651, Note_on_c, 12, 58, 0
15, 354651, Note_on_c, 12, 66, 0
15, 354660, Note_on_c, 12, 58, 52
15, 354660, Note_on_c, 12, 66, 52
15, 354711, Note_on_c, 12, 58, 0
15, 354711, Note_on_c, 12, 66, 0
15, 354720, Note_on_c, 12, 66, 52
15, 354720, Note_on_c, 12, 58, 52
15, 354771, Note_on_c, 12, 66, 0
15, 354771, Note_on_c, 12, 58, 0
15, 354780, Note_on_c, 12, 66, 52
15, 354780, Note_on_c, 12, 58, 52
15, 354831, Note_on_c, 12, 66, 0
15, 354831, Note_on_c, 12, 58, 0
15, 354840, Note_on_c, 12, 58, 52
15, 354840, Note_on_c, 12, 66, 52
15, 354891, Note_on_c, 12, 58, 0
15, 354891, Note_on_c, 12, 66, 0
15, 354900, Note_on_c, 12, 66, 52
15, 354900, Note_on_c, 12, 58, 52
15, 354951, Note_on_c, 12, 66, 0
15, 354951, Note_on_c, 12, 58, 0
15, 354960, Note_on_c, 12, 58, 52
15, 354960, Note_on_c, 12, 66, 52
15, 355011, Note_on_c, 12, 58, 0
15, 355011, Note_on_c, 12, 66, 0
15, 355020, Note_on_c, 12, 66, 52
15, 355020, Note_on_c, 12, 58, 52
15, 355071, Note_on_c, 12, 66, 0
15, 355071, Note_on_c, 12, 58, 0
15, 355080, Note_on_c, 12, 66, 52
15, 355080, Note_on_c, 12, 58, 52
15, 355131, Note_on_c, 12, 66, 0
15, 355131, Note_on_c, 12, 58, 0
15, 355140, Note_on_c, 12, 58, 52
15, 355140, Note_on_c, 12, 66, 52
15, 355191, Note_on_c, 12, 58, 0
15, 355191, Note_on_c, 12, 66, 0
15, 355200, Note_on_c, 12, 58, 52
15, 355200, Note_on_c, 12, 66, 52
15, 355251, Note_on_c, 12, 58, 0
15, 355251, Note_on_c, 12, 66, 0
15, 355260, Note_on_c, 12, 66, 52
15, 355260, Note_on_c, 12, 58, 52
15, 355311, Note_on_c, 12, 66, 0
15, 355311, Note_on_c, 12, 58, 0
15, 355320, Note_on_c, 12, 58, 52
15, 355320, Note_on_c, 12, 66, 52
15, 355371, Note_on_c, 12, 58, 0
15, 355371, Note_on_c, 12, 66, 0
15, 355380, Note_on_c, 12, 66, 52
15, 355380, Note_on_c, 12, 58, 52
15, 355431, Note_on_c, 12, 66, 0
15, 355431, Note_on_c, 12, 58, 0
15, 355440, Note_on_c, 12, 66, 52
15, 355440, Note_on_c, 12, 58, 52
15, 355491, Note_on_c, 12, 66, 0
15, 355491, Note_on_c, 12, 58, 0
15, 355500, Note_on_c, 12, 58, 52
15, 355500, Note_on_c, 12, 66, 52
15, 355551, Note_on_c, 12, 58, 0
15, 355551, Note_on_c, 12, 66, 0
15, 355560, Note_on_c, 12, 58, 52
15, 355560, Note_on_c, 12, 66, 52
15, 355611, Note_on_c, 12, 58, 0
15, 355611, Note_on_c, 12, 66, 0
15, 355620, Note_on_c, 12, 58, 52
15, 355620, Note_on_c, 12, 66, 52
15, 355671, Note_on_c, 12, 58, 0
15, 355671, Note_on_c, 12, 66, 0
15, 355680, Note_on_c, 12, 58, 52
15, 355680, Note_on_c, 12, 66, 52
15, 355731, Note_on_c, 12, 58, 0
15, 355731, Note_on_c, 12, 66, 0
15, 355740, Note_on_c, 12, 66, 52
15, 355740, Note_on_c, 12, 58, 52
15, 355791, Note_on_c, 12, 66, 0
15, 355791, Note_on_c, 12, 58, 0
15, 355800, Note_on_c, 12, 58, 52
15, 355800, Note_on_c, 12, 66, 52
15, 355851, Note_on_c, 12, 58, 0
15, 355851, Note_on_c, 12, 66, 0
15, 355860, Note_on_c, 12, 58, 52
15, 355860, Note_on_c, 12, 66, 52
15, 355911, Note_on_c, 12, 58, 0
15, 355911, Note_on_c, 12, 66, 0
15, 355920, Note_on_c, 12, 58, 52
15, 355920, Note_on_c, 12, 66, 52
15, 355971, Note_on_c, 12, 58, 0
15, 355971, Note_on_c, 12, 66, 0
15, 355980, Note_on_c, 12, 66, 52
15, 355980, Note_on_c, 12, 58, 52
15, 356031, Note_on_c, 12, 66, 0
15, 356031, Note_on_c, 12, 58, 0
15, 356040, Note_on_c, 12, 58, 52
15, 356040, Note_on_c, 12, 66, 52
15, 356091, Note_on_c, 12, 58, 0
15, 356091, Note_on_c, 12, 66, 0
15, 356100, Note_on_c, 12, 66, 52
15, 356100, Note_on_c, 12, 58, 52
15, 356151, Note_on_c, 12, 66, 0
15, 356151, Note_on_c, 12, 58, 0
15, 356160, Note_on_c, 12, 66, 52
15, 356160, Note_on_c, 12, 58, 52
15, 356211, Note_on_c, 12, 66, 0
15, 356211, Note_on_c, 12, 58, 0
15, 356220, Note_on_c, 12, 58, 52
15, 356220, Note_on_c, 12, 66, 52
15, 356271, Note_on_c, 12, 58, 0
15, 356271, Note_on_c, 12, 66, 0
15, 356280, Note_on_c, 12, 58, 52
15, 356280, Note_on_c, 12, 66, 52
15, 356331, Note_on_c, 12, 58, 0
15, 356331, Note_on_c, 12, 66, 0
15, 356340, Note_on_c, 12, 66, 52
15, 356340, Note_on_c, 12, 58, 52
15, 356391, Note_on_c, 12, 66, 0
15, 356391, Note_on_c, 12, 58, 0
15, 356400, Note_on_c, 12, 58, 68
15, 356400, Note_on_c, 12, 63, 68
15, 356451, Note_on_c, 12, 58, 0
15, 356451, Note_on_c, 12, 63, 0
15, 356460, Note_on_c, 12, 63, 52
15, 356460, Note_on_c, 12, 58, 52
15, 356511, Note_on_c, 12, 63, 0
15, 356511, Note_on_c, 12, 58, 0
15, 356520, Note_on_c, 12, 63, 52
15, 356520, Note_on_c, 12, 58, 52
15, 356571, Note_on_c, 12, 63, 0
15, 356571, Note_on_c, 12, 58, 0
15, 356580, Note_on_c, 12, 63, 52
15, 356580, Note_on_c, 12, 58, 52
15, 356631, Note_on_c, 12, 63, 0
15, 356631, Note_on_c, 12, 58, 0
15, 356640, Note_on_c, 12, 63, 52
15, 356640, Note_on_c, 12, 58, 52
15, 356691, Note_on_c, 12, 63, 0
15, 356691, Note_on_c, 12, 58, 0
15, 356700, Note_on_c, 12, 63, 52
15, 356700, Note_on_c, 12, 58, 52
15, 356751, Note_on_c, 12, 63, 0
15, 356751, Note_on_c, 12, 58, 0
15, 356760, Note_on_c, 12, 63, 52
15, 356760, Note_on_c, 12, 58, 52
15, 356811, Note_on_c, 12, 63, 0
15, 356811, Note_on_c, 12, 58, 0
15, 356820, Note_on_c, 12, 63, 52
15, 356820, Note_on_c, 12, 58, 52
15, 356871, Note_on_c, 12, 63, 0
15, 356871, Note_on_c, 12, 58, 0
15, 356880, Note_on_c, 12, 58, 52
15, 356880, Note_on_c, 12, 63, 52
15, 356931, Note_on_c, 12, 58, 0
15, 356931, Note_on_c, 12, 63, 0
15, 356940, Note_on_c, 12, 63, 52
15, 356940, Note_on_c, 12, 58, 52
15, 356991, Note_on_c, 12, 63, 0
15, 356991, Note_on_c, 12, 58, 0
15, 357000, Note_on_c, 12, 63, 52
15, 357000, Note_on_c, 12, 58, 52
15, 357051, Note_on_c, 12, 63, 0
15, 357051, Note_on_c, 12, 58, 0
15, 357060, Note_on_c, 12, 58, 52
15, 357060, Note_on_c, 12, 63, 52
15, 357111, Note_on_c, 12, 58, 0
15, 357111, Note_on_c, 12, 63, 0
15, 357120, Note_on_c, 12, 66, 52
15, 357120, Note_on_c, 12, 56, 52
15, 357171, Note_on_c, 12, 66, 0
15, 357171, Note_on_c, 12, 56, 0
15, 357180, Note_on_c, 12, 56, 52
15, 357180, Note_on_c, 12, 66, 52
15, 357231, Note_on_c, 12, 56, 0
15, 357231, Note_on_c, 12, 66, 0
15, 357240, Note_on_c, 12, 66, 52
15, 357240, Note_on_c, 12, 56, 52
15, 357291, Note_on_c, 12, 66, 0
15, 357291, Note_on_c, 12, 56, 0
15, 357300, Note_on_c, 12, 56, 52
15, 357300, Note_on_c, 12, 66, 52
15, 357351, Note_on_c, 12, 56, 0
15, 357351, Note_on_c, 12, 66, 0
15, 357360, Note_on_c, 12, 66, 52
15, 357360, Note_on_c, 12, 56, 52
15, 357411, Note_on_c, 12, 66, 0
15, 357411, Note_on_c, 12, 56, 0
15, 357420, Note_on_c, 12, 56, 52
15, 357420, Note_on_c, 12, 66, 52
15, 357471, Note_on_c, 12, 56, 0
15, 357471, Note_on_c, 12, 66, 0
15, 357480, Note_on_c, 12, 56, 52
15, 357480, Note_on_c, 12, 66, 52
15, 357531, Note_on_c, 12, 56, 0
15, 357531, Note_on_c, 12, 66, 0
15, 357540, Note_on_c, 12, 56, 52
15, 357540, Note_on_c, 12, 66, 52
15, 357591, Note_on_c, 12, 56, 0
15, 357591, Note_on_c, 12, 66, 0
15, 357600, Note_on_c, 12, 66, 52
15, 357600, Note_on_c, 12, 56, 52
15, 357651, Note_on_c, 12, 66, 0
15, 357651, Note_on_c, 12, 56, 0
15, 357660, Note_on_c, 12, 66, 52
15, 357660, Note_on_c, 12, 56, 52
15, 357711, Note_on_c, 12, 66, 0
15, 357711, Note_on_c, 12, 56, 0
15, 357720, Note_on_c, 12, 56, 52
15, 357720, Note_on_c, 12, 66, 52
15, 357771, Note_on_c, 12, 56, 0
15, 357771, Note_on_c, 12, 66, 0
15, 357780, Note_on_c, 12, 66, 52
15, 357780, Note_on_c, 12, 56, 52
15, 357831, Note_on_c, 12, 66, 0
15, 357831, Note_on_c, 12, 56, 0
15, 357840, Note_on_c, 12, 56, 52
15, 357840, Note_on_c, 12, 66, 52
15, 357891, Note_on_c, 12, 56, 0
15, 357891, Note_on_c, 12, 66, 0
15, 357900, Note_on_c, 12, 56, 52
15, 357900, Note_on_c, 12, 66, 52
15, 357951, Note_on_c, 12, 56, 0
15, 357951, Note_on_c, 12, 66, 0
15, 357960, Note_on_c, 12, 56, 52
15, 357960, Note_on_c, 12, 66, 52
15, 358011, Note_on_c, 12, 56, 0
15, 358011, Note_on_c, 12, 66, 0
15, 358020, Note_on_c, 12, 56, 52
15, 358020, Note_on_c, 12, 66, 52
15, 358071, Note_on_c, 12, 56, 0
15, 358071, Note_on_c, 12, 66, 0
15, 358080, Note_on_c, 12, 66, 52
15, 358080, Note_on_c, 12, 56, 52
15, 358131, Note_on_c, 12, 66, 0
15, 358131, Note_on_c, 12, 56, 0
15, 358140, Note_on_c, 12, 66, 52
15, 358140, Note_on_c, 12, 56, 52
15, 358191, Note_on_c, 12, 66, 0
15, 358191, Note_on_c, 12, 56, 0
15, 358200, Note_on_c, 12, 66, 52
15, 358200, Note_on_c, 12, 56, 52
15, 358251, Note_on_c, 12, 66, 0
15, 358251, Note_on_c, 12, 56, 0
15, 358260, Note_on_c, 12, 56, 52
15, 358260, Note_on_c, 12, 66, 52
15, 358311, Note_on_c, 12, 56, 0
15, 358311, Note_on_c, 12, 66, 0
15, 358320, Note_on_c, 12, 66, 52
15, 358320, Note_on_c, 12, 56, 52
15, 358371, Note_on_c, 12, 66, 0
15, 358371, Note_on_c, 12, 56, 0
15, 358380, Note_on_c, 12, 56, 52
15, 358380, Note_on_c, 12, 66, 52
15, 358431, Note_on_c, 12, 56, 0
15, 358431, Note_on_c, 12, 66, 0
15, 358440, Note_on_c, 12, 56, 52
15, 358440, Note_on_c, 12, 66, 52
15, 358491, Note_on_c, 12, 56, 0
15, 358491, Note_on_c, 12, 66, 0
15, 358500, Note_on_c, 12, 66, 52
15, 358500, Note_on_c, 12, 56, 52
15, 358551, Note_on_c, 12, 66, 0
15, 358551, Note_on_c, 12, 56, 0
15, 358560, Note_on_c, 12, 66, 52
15, 358560, Note_on_c, 12, 56, 52
15, 358611, Note_on_c, 12, 66, 0
15, 358611, Note_on_c, 12, 56, 0
15, 358620, Note_on_c, 12, 56, 52
15, 358620, Note_on_c, 12, 66, 52
15, 358671, Note_on_c, 12, 56, 0
15, 358671, Note_on_c, 12, 66, 0
15, 358680, Note_on_c, 12, 66, 52
15, 358680, Note_on_c, 12, 56, 52
15, 358731, Note_on_c, 12, 66, 0
15, 358731, Note_on_c, 12, 56, 0
15, 358740, Note_on_c, 12, 56, 52
15, 358740, Note_on_c, 12, 66, 52
15, 358791, Note_on_c, 12, 56, 0
15, 358791, Note_on_c, 12, 66, 0
15, 358800, Note_on_c, 12, 56, 52
15, 358800, Note_on_c, 12, 66, 52
15, 358851, Note_on_c, 12, 56, 0
15, 358851, Note_on_c, 12, 66, 0
15, 358860, Note_on_c, 12, 56, 52
15, 358860, Note_on_c, 12, 66, 52
15, 358911, Note_on_c, 12, 56, 0
15, 358911, Note_on_c, 12, 66, 0
15, 358920, Note_on_c, 12, 56, 52
15, 358920, Note_on_c, 12, 66, 52
15, 358971, Note_on_c, 12, 56, 0
15, 358971, Note_on_c, 12, 66, 0
15, 358980, Note_on_c, 12, 56, 52
15, 358980, Note_on_c, 12, 66, 52
15, 359031, Note_on_c, 12, 56, 0
15, 359031, Note_on_c, 12, 66, 0
15, 359040, Note_on_c, 12, 66, 52
15, 359040, Note_on_c, 12, 56, 52
15, 359091, Note_on_c, 12, 66, 0
15, 359091, Note_on_c, 12, 56, 0
15, 359100, Note_on_c, 12, 56, 52
15, 359100, Note_on_c, 12, 66, 52
15, 359151, Note_on_c, 12, 56, 0
15, 359151, Note_on_c, 12, 66, 0
15, 359160, Note_on_c, 12, 66, 52
15, 359160, Note_on_c, 12, 56, 52
15, 359211, Note_on_c, 12, 66, 0
15, 359211, Note_on_c, 12, 56, 0
15, 359220, Note_on_c, 12, 56, 52
15, 359220, Note_on_c, 12, 66, 52
15, 359271, Note_on_c, 12, 56, 0
15, 359271, Note_on_c, 12, 66, 0
15, 359280, Note_on_c, 12, 60, 68
15, 359331, Note_on_c, 12, 60, 0
15, 359340, Note_on_c, 12, 60, 52
15, 359391, Note_on_c, 12, 60, 0
15, 359400, Note_on_c, 12, 60, 52
15, 359451, Note_on_c, 12, 60, 0
15, 359460, Note_on_c, 12, 60, 52
15, 359511, Note_on_c, 12, 60, 0
15, 359520, Note_on_c, 12, 60, 52
15, 359571, Note_on_c, 12, 60, 0
15, 359580, Note_on_c, 12, 60, 52
15, 359631, Note_on_c, 12, 60, 0
15, 359640, Note_on_c, 12, 60, 52
15, 359691, Note_on_c, 12, 60, 0
15, 359700, Note_on_c, 12, 60, 52
15, 359751, Note_on_c, 12, 60, 0
15, 359760, Note_on_c, 12, 60, 52
15, 359811, Note_on_c, 12, 60, 0
15, 359820, Note_on_c, 12, 60, 52
15, 359871, Note_on_c, 12, 60, 0
15, 359880, Note_on_c, 12, 60, 52
15, 359931, Note_on_c, 12, 60, 0
15, 359940, Note_on_c, 12, 60, 52
15, 359991, Note_on_c, 12, 60, 0
15, 360000, Note_on_c, 12, 65, 52
15, 360000, Note_on_c, 12, 56, 52
15, 360051, Note_on_c, 12, 65, 0
15, 360051, Note_on_c, 12, 56, 0
15, 360060, Note_on_c, 12, 56, 52
15, 360060, Note_on_c, 12, 65, 52
15, 360111, Note_on_c, 12, 56, 0
15, 360111, Note_on_c, 12, 65, 0
15, 360120, Note_on_c, 12, 56, 52
15, 360120, Note_on_c, 12, 65, 52
15, 360171, Note_on_c, 12, 56, 0
15, 360171, Note_on_c, 12, 65, 0
15, 360180, Note_on_c, 12, 65, 52
15, 360180, Note_on_c, 12, 56, 52
15, 360231, Note_on_c, 12, 65, 0
15, 360231, Note_on_c, 12, 56, 0
15, 360240, Note_on_c, 12, 56, 52
15, 360240, Note_on_c, 12, 65, 52
15, 360291, Note_on_c, 12, 56, 0
15, 360291, Note_on_c, 12, 65, 0
15, 360300, Note_on_c, 12, 65, 52
15, 360300, Note_on_c, 12, 56, 52
15, 360351, Note_on_c, 12, 65, 0
15, 360351, Note_on_c, 12, 56, 0
15, 360360, Note_on_c, 12, 65, 52
15, 360360, Note_on_c, 12, 56, 52
15, 360411, Note_on_c, 12, 65, 0
15, 360411, Note_on_c, 12, 56, 0
15, 360420, Note_on_c, 12, 56, 52
15, 360420, Note_on_c, 12, 65, 52
15, 360471, Note_on_c, 12, 56, 0
15, 360471, Note_on_c, 12, 65, 0
15, 360480, Note_on_c, 12, 65, 52
15, 360480, Note_on_c, 12, 56, 52
15, 360531, Note_on_c, 12, 65, 0
15, 360531, Note_on_c, 12, 56, 0
15, 360540, Note_on_c, 12, 65, 52
15, 360540, Note_on_c, 12, 56, 52
15, 360591, Note_on_c, 12, 65, 0
15, 360591, Note_on_c, 12, 56, 0
15, 360600, Note_on_c, 12, 65, 52
15, 360600, Note_on_c, 12, 56, 52
15, 360651, Note_on_c, 12, 65, 0
15, 360651, Note_on_c, 12, 56, 0
15, 360660, Note_on_c, 12, 56, 52
15, 360660, Note_on_c, 12, 65, 52
15, 360711, Note_on_c, 12, 56, 0
15, 360711, Note_on_c, 12, 65, 0
15, 360720, Note_on_c, 12, 65, 52
15, 360720, Note_on_c, 12, 56, 52
15, 360771, Note_on_c, 12, 65, 0
15, 360771, Note_on_c, 12, 56, 0
15, 360780, Note_on_c, 12, 56, 52
15, 360780, Note_on_c, 12, 65, 52
15, 360831, Note_on_c, 12, 56, 0
15, 360831, Note_on_c, 12, 65, 0
15, 360840, Note_on_c, 12, 56, 52
15, 360840, Note_on_c, 12, 65, 52
15, 360891, Note_on_c, 12, 56, 0
15, 360891, Note_on_c, 12, 65, 0
15, 360900, Note_on_c, 12, 56, 52
15, 360900, Note_on_c, 12, 65, 52
15, 360951, Note_on_c, 12, 56, 0
15, 360951, Note_on_c, 12, 65, 0
15, 360960, Note_on_c, 12, 65, 52
15, 360960, Note_on_c, 12, 56, 52
15, 361011, Note_on_c, 12, 65, 0
15, 361011, Note_on_c, 12, 56, 0
15, 361020, Note_on_c, 12, 65, 52
15, 361020, Note_on_c, 12, 56, 52
15, 361071, Note_on_c, 12, 65, 0
15, 361071, Note_on_c, 12, 56, 0
15, 361080, Note_on_c, 12, 56, 52
15, 361080, Note_on_c, 12, 65, 52
15, 361131, Note_on_c, 12, 56, 0
15, 361131, Note_on_c, 12, 65, 0
15, 361140, Note_on_c, 12, 56, 52
15, 361140, Note_on_c, 12, 65, 52
15, 361191, Note_on_c, 12, 56, 0
15, 361191, Note_on_c, 12, 65, 0
15, 361200, Note_on_c, 12, 65, 52
15, 361200, Note_on_c, 12, 56, 52
15, 361251, Note_on_c, 12, 65, 0
15, 361251, Note_on_c, 12, 56, 0
15, 361260, Note_on_c, 12, 56, 52
15, 361260, Note_on_c, 12, 65, 52
15, 361311, Note_on_c, 12, 56, 0
15, 361311, Note_on_c, 12, 65, 0
15, 361320, Note_on_c, 12, 65, 52
15, 361320, Note_on_c, 12, 56, 52
15, 361371, Note_on_c, 12, 65, 0
15, 361371, Note_on_c, 12, 56, 0
15, 361380, Note_on_c, 12, 65, 52
15, 361380, Note_on_c, 12, 56, 52
15, 361431, Note_on_c, 12, 65, 0
15, 361431, Note_on_c, 12, 56, 0
15, 361440, Note_on_c, 12, 65, 52
15, 361440, Note_on_c, 12, 56, 52
15, 361491, Note_on_c, 12, 65, 0
15, 361491, Note_on_c, 12, 56, 0
15, 361500, Note_on_c, 12, 65, 52
15, 361500, Note_on_c, 12, 56, 52
15, 361551, Note_on_c, 12, 65, 0
15, 361551, Note_on_c, 12, 56, 0
15, 361560, Note_on_c, 12, 56, 52
15, 361560, Note_on_c, 12, 65, 52
15, 361611, Note_on_c, 12, 56, 0
15, 361611, Note_on_c, 12, 65, 0
15, 361620, Note_on_c, 12, 65, 52
15, 361620, Note_on_c, 12, 56, 52
15, 361671, Note_on_c, 12, 65, 0
15, 361671, Note_on_c, 12, 56, 0
15, 361680, Note_on_c, 12, 56, 52
15, 361680, Note_on_c, 12, 65, 52
15, 361731, Note_on_c, 12, 56, 0
15, 361731, Note_on_c, 12, 65, 0
15, 361740, Note_on_c, 12, 65, 52
15, 361740, Note_on_c, 12, 56, 52
15, 361791, Note_on_c, 12, 65, 0
15, 361791, Note_on_c, 12, 56, 0
15, 361800, Note_on_c, 12, 56, 52
15, 361800, Note_on_c, 12, 65, 52
15, 361851, Note_on_c, 12, 56, 0
15, 361851, Note_on_c, 12, 65, 0
15, 361860, Note_on_c, 12, 65, 52
15, 361860, Note_on_c, 12, 56, 52
15, 361911, Note_on_c, 12, 65, 0
15, 361911, Note_on_c, 12, 56, 0
15, 361920, Note_on_c, 12, 56, 52
15, 361920, Note_on_c, 12, 65, 52
15, 361971, Note_on_c, 12, 56, 0
15, 361971, Note_on_c, 12, 65, 0
15, 361980, Note_on_c, 12, 65, 52
15, 361980, Note_on_c, 12, 56, 52
15, 362031, Note_on_c, 12, 65, 0
15, 362031, Note_on_c, 12, 56, 0
15, 362040, Note_on_c, 12, 65, 52
15, 362040, Note_on_c, 12, 56, 52
15, 362091, Note_on_c, 12, 65, 0
15, 362091, Note_on_c, 12, 56, 0
15, 362100, Note_on_c, 12, 56, 52
15, 362100, Note_on_c, 12, 65, 52
15, 362151, Note_on_c, 12, 56, 0
15, 362151, Note_on_c, 12, 65, 0
15, 362160, Note_on_c, 12, 65, 68
15, 362160, Note_on_c, 12, 56, 68
15, 362211, Note_on_c, 12, 65, 0
15, 362211, Note_on_c, 12, 56, 0
15, 362220, Note_on_c, 12, 65, 52
15, 362220, Note_on_c, 12, 56, 52
15, 362271, Note_on_c, 12, 65, 0
15, 362271, Note_on_c, 12, 56, 0
15, 362280, Note_on_c, 12, 65, 52
15, 362280, Note_on_c, 12, 56, 52
15, 362331, Note_on_c, 12, 65, 0
15, 362331, Note_on_c, 12, 56, 0
15, 362340, Note_on_c, 12, 65, 52
15, 362340, Note_on_c, 12, 56, 52
15, 362391, Note_on_c, 12, 65, 0
15, 362391, Note_on_c, 12, 56, 0
15, 362400, Note_on_c, 12, 56, 52
15, 362400, Note_on_c, 12, 65, 52
15, 362451, Note_on_c, 12, 56, 0
15, 362451, Note_on_c, 12, 65, 0
15, 362460, Note_on_c, 12, 65, 52
15, 362460, Note_on_c, 12, 56, 52
15, 362511, Note_on_c, 12, 65, 0
15, 362511, Note_on_c, 12, 56, 0
15, 362520, Note_on_c, 12, 65, 52
15, 362520, Note_on_c, 12, 56, 52
15, 362571, Note_on_c, 12, 65, 0
15, 362571, Note_on_c, 12, 56, 0
15, 362580, Note_on_c, 12, 65, 52
15, 362580, Note_on_c, 12, 56, 52
15, 362631, Note_on_c, 12, 65, 0
15, 362631, Note_on_c, 12, 56, 0
15, 362640, Note_on_c, 12, 56, 52
15, 362640, Note_on_c, 12, 65, 52
15, 362691, Note_on_c, 12, 56, 0
15, 362691, Note_on_c, 12, 65, 0
15, 362700, Note_on_c, 12, 65, 52
15, 362700, Note_on_c, 12, 56, 52
15, 362751, Note_on_c, 12, 65, 0
15, 362751, Note_on_c, 12, 56, 0
15, 362760, Note_on_c, 12, 56, 52
15, 362760, Note_on_c, 12, 65, 52
15, 362811, Note_on_c, 12, 56, 0
15, 362811, Note_on_c, 12, 65, 0
15, 362820, Note_on_c, 12, 65, 52
15, 362820, Note_on_c, 12, 56, 52
15, 362871, Note_on_c, 12, 65, 0
15, 362871, Note_on_c, 12, 56, 0
15, 362880, Note_on_c, 12, 58, 52
15, 362880, Note_on_c, 12, 65, 52
15, 362931, Note_on_c, 12, 58, 0
15, 362931, Note_on_c, 12, 65, 0
15, 362940, Note_on_c, 12, 58, 52
15, 362940, Note_on_c, 12, 65, 52
15, 362991, Note_on_c, 12, 58, 0
15, 362991, Note_on_c, 12, 65, 0
15, 363000, Note_on_c, 12, 58, 52
15, 363000, Note_on_c, 12, 65, 52
15, 363051, Note_on_c, 12, 58, 0
15, 363051, Note_on_c, 12, 65, 0
15, 363060, Note_on_c, 12, 65, 53
15, 363060, Note_on_c, 12, 58, 53
15, 363111, Note_on_c, 12, 65, 0
15, 363111, Note_on_c, 12, 58, 0
15, 363120, Note_on_c, 12, 58, 53
15, 363120, Note_on_c, 12, 65, 53
15, 363171, Note_on_c, 12, 58, 0
15, 363171, Note_on_c, 12, 65, 0
15, 363180, Note_on_c, 12, 65, 53
15, 363180, Note_on_c, 12, 58, 53
15, 363231, Note_on_c, 12, 65, 0
15, 363231, Note_on_c, 12, 58, 0
15, 363240, Note_on_c, 12, 65, 54
15, 363240, Note_on_c, 12, 58, 54
15, 363291, Note_on_c, 12, 65, 0
15, 363291, Note_on_c, 12, 58, 0
15, 363300, Note_on_c, 12, 58, 54
15, 363300, Note_on_c, 12, 65, 54
15, 363351, Note_on_c, 12, 58, 0
15, 363351, Note_on_c, 12, 65, 0
15, 363360, Note_on_c, 12, 65, 54
15, 363360, Note_on_c, 12, 58, 54
15, 363411, Note_on_c, 12, 65, 0
15, 363411, Note_on_c, 12, 58, 0
15, 363420, Note_on_c, 12, 65, 55
15, 363420, Note_on_c, 12, 58, 55
15, 363471, Note_on_c, 12, 65, 0
15, 363471, Note_on_c, 12, 58, 0
15, 363480, Note_on_c, 12, 58, 55
15, 363480, Note_on_c, 12, 65, 55
15, 363531, Note_on_c, 12, 58, 0
15, 363531, Note_on_c, 12, 65, 0
15, 363540, Note_on_c, 12, 65, 55
15, 363540, Note_on_c, 12, 58, 55
15, 363591, Note_on_c, 12, 65, 0
15, 363591, Note_on_c, 12, 58, 0
15, 363600, Note_on_c, 12, 58, 56
15, 363600, Note_on_c, 12, 68, 56
15, 363651, Note_on_c, 12, 58, 0
15, 363651, Note_on_c, 12, 68, 0
15, 363660, Note_on_c, 12, 58, 56
15, 363660, Note_on_c, 12, 68, 56
15, 363711, Note_on_c, 12, 58, 0
15, 363711, Note_on_c, 12, 68, 0
15, 363720, Note_on_c, 12, 68, 56
15, 363720, Note_on_c, 12, 58, 56
15, 363771, Note_on_c, 12, 68, 0
15, 363771, Note_on_c, 12, 58, 0
15, 363780, Note_on_c, 12, 68, 57
15, 363780, Note_on_c, 12, 58, 57
15, 363831, Note_on_c, 12, 68, 0
15, 363831, Note_on_c, 12, 58, 0
15, 363840, Note_on_c, 12, 68, 57
15, 363840, Note_on_c, 12, 58, 57
15, 363891, Note_on_c, 12, 68, 0
15, 363891, Note_on_c, 12, 58, 0
15, 363900, Note_on_c, 12, 68, 57
15, 363900, Note_on_c, 12, 58, 57
15, 363951, Note_on_c, 12, 68, 0
15, 363951, Note_on_c, 12, 58, 0
15, 363960, Note_on_c, 12, 68, 58
15, 363960, Note_on_c, 12, 58, 58
15, 364011, Note_on_c, 12, 68, 0
15, 364011, Note_on_c, 12, 58, 0
15, 364020, Note_on_c, 12, 58, 58
15, 364020, Note_on_c, 12, 68, 58
15, 364071, Note_on_c, 12, 58, 0
15, 364071, Note_on_c, 12, 68, 0
15, 364080, Note_on_c, 12, 58, 58
15, 364080, Note_on_c, 12, 68, 58
15, 364131, Note_on_c, 12, 58, 0
15, 364131, Note_on_c, 12, 68, 0
15, 364140, Note_on_c, 12, 58, 59
15, 364140, Note_on_c, 12, 68, 59
15, 364191, Note_on_c, 12, 58, 0
15, 364191, Note_on_c, 12, 68, 0
15, 364200, Note_on_c, 12, 58, 59
15, 364200, Note_on_c, 12, 68, 59
15, 364251, Note_on_c, 12, 58, 0
15, 364251, Note_on_c, 12, 68, 0
15, 364260, Note_on_c, 12, 58, 59
15, 364260, Note_on_c, 12, 68, 59
15, 364311, Note_on_c, 12, 58, 0
15, 364311, Note_on_c, 12, 68, 0
15, 364320, Note_on_c, 12, 58, 60
15, 364320, Note_on_c, 12, 68, 60
15, 364371, Note_on_c, 12, 58, 0
15, 364371, Note_on_c, 12, 68, 0
15, 364380, Note_on_c, 12, 68, 60
15, 364380, Note_on_c, 12, 58, 60
15, 364431, Note_on_c, 12, 68, 0
15, 364431, Note_on_c, 12, 58, 0
15, 364440, Note_on_c, 12, 58, 60
15, 364440, Note_on_c, 12, 68, 60
15, 364491, Note_on_c, 12, 58, 0
15, 364491, Note_on_c, 12, 68, 0
15, 364500, Note_on_c, 12, 58, 61
15, 364500, Note_on_c, 12, 68, 61
15, 364551, Note_on_c, 12, 58, 0
15, 364551, Note_on_c, 12, 68, 0
15, 364560, Note_on_c, 12, 58, 61
15, 364560, Note_on_c, 12, 68, 61
15, 364611, Note_on_c, 12, 58, 0
15, 364611, Note_on_c, 12, 68, 0
15, 364620, Note_on_c, 12, 68, 61
15, 364620, Note_on_c, 12, 58, 61
15, 364671, Note_on_c, 12, 68, 0
15, 364671, Note_on_c, 12, 58, 0
15, 364680, Note_on_c, 12, 68, 62
15, 364680, Note_on_c, 12, 58, 62
15, 364731, Note_on_c, 12, 68, 0
15, 364731, Note_on_c, 12, 58, 0
15, 364740, Note_on_c, 12, 58, 62
15, 364740, Note_on_c, 12, 68, 62
15, 364791, Note_on_c, 12, 58, 0
15, 364791, Note_on_c, 12, 68, 0
15, 364800, Note_on_c, 12, 68, 62
15, 364800, Note_on_c, 12, 58, 62
15, 364851, Note_on_c, 12, 68, 0
15, 364851, Note_on_c, 12, 58, 0
15, 364860, Note_on_c, 12, 68, 63
15, 364860, Note_on_c, 12, 58, 63
15, 364911, Note_on_c, 12, 68, 0
15, 364911, Note_on_c, 12, 58, 0
15, 364920, Note_on_c, 12, 58, 63
15, 364920, Note_on_c, 12, 68, 63
15, 364971, Note_on_c, 12, 58, 0
15, 364971, Note_on_c, 12, 68, 0
15, 364980, Note_on_c, 12, 58, 63
15, 364980, Note_on_c, 12, 68, 63
15, 365031, Note_on_c, 12, 58, 0
15, 365031, Note_on_c, 12, 68, 0
15, 365040, Note_on_c, 12, 68, 80
15, 365040, Note_on_c, 12, 58, 80
15, 365091, Note_on_c, 12, 68, 0
15, 365091, Note_on_c, 12, 58, 0
15, 365100, Note_on_c, 12, 58, 64
15, 365100, Note_on_c, 12, 68, 64
15, 365151, Note_on_c, 12, 58, 0
15, 365151, Note_on_c, 12, 68, 0
15, 365160, Note_on_c, 12, 68, 64
15, 365160, Note_on_c, 12, 58, 64
15, 365211, Note_on_c, 12, 68, 0
15, 365211, Note_on_c, 12, 58, 0
15, 365220, Note_on_c, 12, 68, 65
15, 365220, Note_on_c, 12, 58, 65
15, 365271, Note_on_c, 12, 68, 0
15, 365271, Note_on_c, 12, 58, 0
15, 365280, Note_on_c, 12, 58, 65
15, 365280, Note_on_c, 12, 68, 65
15, 365331, Note_on_c, 12, 58, 0
15, 365331, Note_on_c, 12, 68, 0
15, 365340, Note_on_c, 12, 68, 65
15, 365340, Note_on_c, 12, 58, 65
15, 365391, Note_on_c, 12, 68, 0
15, 365391, Note_on_c, 12, 58, 0
15, 365400, Note_on_c, 12, 68, 66
15, 365400, Note_on_c, 12, 58, 66
15, 365451, Note_on_c, 12, 68, 0
15, 365451, Note_on_c, 12, 58, 0
15, 365460, Note_on_c, 12, 68, 66
15, 365460, Note_on_c, 12, 58, 66
15, 365511, Note_on_c, 12, 68, 0
15, 365511, Note_on_c, 12, 58, 0
15, 365520, Note_on_c, 12, 58, 66
15, 365520, Note_on_c, 12, 68, 66
15, 365571, Note_on_c, 12, 58, 0
15, 365571, Note_on_c, 12, 68, 0
15, 365580, Note_on_c, 12, 58, 67
15, 365580, Note_on_c, 12, 68, 67
15, 365631, Note_on_c, 12, 58, 0
15, 365631, Note_on_c, 12, 68, 0
15, 365640, Note_on_c, 12, 68, 67
15, 365640, Note_on_c, 12, 58, 67
15, 365691, Note_on_c, 12, 68, 0
15, 365691, Note_on_c, 12, 58, 0
15, 365700, Note_on_c, 12, 58, 67
15, 365700, Note_on_c, 12, 68, 67
15, 365751, Note_on_c, 12, 58, 0
15, 365751, Note_on_c, 12, 68, 0
15, 365760, Note_on_c, 12, 58, 68
15, 365760, Note_on_c, 12, 66, 68
15, 365811, Note_on_c, 12, 58, 0
15, 365811, Note_on_c, 12, 66, 0
15, 365820, Note_on_c, 12, 58, 68
15, 365820, Note_on_c, 12, 66, 68
15, 365871, Note_on_c, 12, 58, 0
15, 365871, Note_on_c, 12, 66, 0
15, 365880, Note_on_c, 12, 58, 68
15, 365880, Note_on_c, 12, 66, 68
15, 365931, Note_on_c, 12, 58, 0
15, 365931, Note_on_c, 12, 66, 0
15, 365940, Note_on_c, 12, 58, 69
15, 365940, Note_on_c, 12, 66, 69
15, 365991, Note_on_c, 12, 58, 0
15, 365991, Note_on_c, 12, 66, 0
15, 366000, Note_on_c, 12, 58, 69
15, 366000, Note_on_c, 12, 66, 69
15, 366051, Note_on_c, 12, 58, 0
15, 366051, Note_on_c, 12, 66, 0
15, 366060, Note_on_c, 12, 58, 69
15, 366060, Note_on_c, 12, 66, 69
15, 366111, Note_on_c, 12, 58, 0
15, 366111, Note_on_c, 12, 66, 0
15, 366120, Note_on_c, 12, 66, 70
15, 366120, Note_on_c, 12, 58, 70
15, 366171, Note_on_c, 12, 66, 0
15, 366171, Note_on_c, 12, 58, 0
15, 366180, Note_on_c, 12, 58, 70
15, 366180, Note_on_c, 12, 66, 70
15, 366231, Note_on_c, 12, 58, 0
15, 366231, Note_on_c, 12, 66, 0
15, 366240, Note_on_c, 12, 66, 70
15, 366240, Note_on_c, 12, 58, 70
15, 366291, Note_on_c, 12, 66, 0
15, 366291, Note_on_c, 12, 58, 0
15, 366300, Note_on_c, 12, 66, 71
15, 366300, Note_on_c, 12, 58, 71
15, 366351, Note_on_c, 12, 66, 0
15, 366351, Note_on_c, 12, 58, 0
15, 366360, Note_on_c, 12, 66, 71
15, 366360, Note_on_c, 12, 58, 71
15, 366411, Note_on_c, 12, 66, 0
15, 366411, Note_on_c, 12, 58, 0
15, 366420, Note_on_c, 12, 66, 71
15, 366420, Note_on_c, 12, 58, 71
15, 366471, Note_on_c, 12, 66, 0
15, 366471, Note_on_c, 12, 58, 0
15, 366480, Note_on_c, 12, 58, 72
15, 366480, Note_on_c, 12, 66, 72
15, 366531, Note_on_c, 12, 58, 0
15, 366531, Note_on_c, 12, 66, 0
15, 366540, Note_on_c, 12, 66, 72
15, 366540, Note_on_c, 12, 58, 72
15, 366591, Note_on_c, 12, 66, 0
15, 366591, Note_on_c, 12, 58, 0
15, 366600, Note_on_c, 12, 66, 72
15, 366600, Note_on_c, 12, 58, 72
15, 366651, Note_on_c, 12, 66, 0
15, 366651, Note_on_c, 12, 58, 0
15, 366660, Note_on_c, 12, 66, 73
15, 366660, Note_on_c, 12, 58, 73
15, 366711, Note_on_c, 12, 66, 0
15, 366711, Note_on_c, 12, 58, 0
15, 366720, Note_on_c, 12, 66, 73
15, 366720, Note_on_c, 12, 58, 73
15, 366771, Note_on_c, 12, 66, 0
15, 366771, Note_on_c, 12, 58, 0
15, 366780, Note_on_c, 12, 58, 73
15, 366780, Note_on_c, 12, 66, 73
15, 366831, Note_on_c, 12, 58, 0
15, 366831, Note_on_c, 12, 66, 0
15, 366840, Note_on_c, 12, 66, 74
15, 366840, Note_on_c, 12, 58, 74
15, 366891, Note_on_c, 12, 66, 0
15, 366891, Note_on_c, 12, 58, 0
15, 366900, Note_on_c, 12, 66, 74
15, 366900, Note_on_c, 12, 58, 74
15, 366951, Note_on_c, 12, 66, 0
15, 366951, Note_on_c, 12, 58, 0
15, 366960, Note_on_c, 12, 66, 74
15, 366960, Note_on_c, 12, 58, 74
15, 367011, Note_on_c, 12, 66, 0
15, 367011, Note_on_c, 12, 58, 0
15, 367020, Note_on_c, 12, 66, 75
15, 367020, Note_on_c, 12, 58, 75
15, 367071, Note_on_c, 12, 66, 0
15, 367071, Note_on_c, 12, 58, 0
15, 367080, Note_on_c, 12, 58, 75
15, 367080, Note_on_c, 12, 66, 75
15, 367131, Note_on_c, 12, 58, 0
15, 367131, Note_on_c, 12, 66, 0
15, 367140, Note_on_c, 12, 58, 75
15, 367140, Note_on_c, 12, 66, 75
15, 367191, Note_on_c, 12, 58, 0
15, 367191, Note_on_c, 12, 66, 0
15, 367200, Note_on_c, 12, 58, 76
15, 367200, Note_on_c, 12, 66, 76
15, 367251, Note_on_c, 12, 58, 0
15, 367251, Note_on_c, 12, 66, 0
15, 367260, Note_on_c, 12, 58, 76
15, 367260, Note_on_c, 12, 66, 76
15, 367311, Note_on_c, 12, 58, 0
15, 367311, Note_on_c, 12, 66, 0
15, 367320, Note_on_c, 12, 58, 76
15, 367320, Note_on_c, 12, 66, 76
15, 367371, Note_on_c, 12, 58, 0
15, 367371, Note_on_c, 12, 66, 0
15, 367380, Note_on_c, 12, 66, 77
15, 367380, Note_on_c, 12, 58, 77
15, 367431, Note_on_c, 12, 66, 0
15, 367431, Note_on_c, 12, 58, 0
15, 367440, Note_on_c, 12, 66, 77
15, 367440, Note_on_c, 12, 58, 77
15, 367491, Note_on_c, 12, 66, 0
15, 367491, Note_on_c, 12, 58, 0
15, 367500, Note_on_c, 12, 66, 77
15, 367500, Note_on_c, 12, 58, 77
15, 367551, Note_on_c, 12, 66, 0
15, 367551, Note_on_c, 12, 58, 0
15, 367560, Note_on_c, 12, 66, 78
15, 367560, Note_on_c, 12, 58, 78
15, 367611, Note_on_c, 12, 66, 0
15, 367611, Note_on_c, 12, 58, 0
15, 367620, Note_on_c, 12, 58, 78
15, 367620, Note_on_c, 12, 66, 78
15, 367671, Note_on_c, 12, 58, 0
15, 367671, Note_on_c, 12, 66, 0
15, 367680, Note_on_c, 12, 66, 78
15, 367680, Note_on_c, 12, 58, 78
15, 367731, Note_on_c, 12, 66, 0
15, 367731, Note_on_c, 12, 58, 0
15, 367740, Note_on_c, 12, 66, 79
15, 367740, Note_on_c, 12, 58, 79
15, 367791, Note_on_c, 12, 66, 0
15, 367791, Note_on_c, 12, 58, 0
15, 367800, Note_on_c, 12, 66, 79
15, 367800, Note_on_c, 12, 58, 79
15, 367851, Note_on_c, 12, 66, 0
15, 367851, Note_on_c, 12, 58, 0
15, 367860, Note_on_c, 12, 66, 79
15, 367860, Note_on_c, 12, 58, 79
15, 367911, Note_on_c, 12, 66, 0
15, 367911, Note_on_c, 12, 58, 0
15, 367920, Note_on_c, 12, 66, 88
15, 367920, Note_on_c, 12, 58, 88
15, 367971, Note_on_c, 12, 66, 0
15, 367971, Note_on_c, 12, 58, 0
15, 367980, Note_on_c, 12, 58, 80
15, 367980, Note_on_c, 12, 66, 80
15, 368031, Note_on_c, 12, 58, 0
15, 368031, Note_on_c, 12, 66, 0
15, 368040, Note_on_c, 12, 58, 80
15, 368040, Note_on_c, 12, 66, 80
15, 368091, Note_on_c, 12, 58, 0
15, 368091, Note_on_c, 12, 66, 0
15, 368100, Note_on_c, 12, 66, 81
15, 368100, Note_on_c, 12, 58, 81
15, 368151, Note_on_c, 12, 66, 0
15, 368151, Note_on_c, 12, 58, 0
15, 368160, Note_on_c, 12, 66, 81
15, 368160, Note_on_c, 12, 58, 81
15, 368211, Note_on_c, 12, 66, 0
15, 368211, Note_on_c, 12, 58, 0
15, 368220, Note_on_c, 12, 66, 81
15, 368220, Note_on_c, 12, 58, 81
15, 368271, Note_on_c, 12, 66, 0
15, 368271, Note_on_c, 12, 58, 0
15, 368280, Note_on_c, 12, 58, 82
15, 368280, Note_on_c, 12, 66, 82
15, 368331, Note_on_c, 12, 58, 0
15, 368331, Note_on_c, 12, 66, 0
15, 368340, Note_on_c, 12, 66, 82
15, 368340, Note_on_c, 12, 58, 82
15, 368391, Note_on_c, 12, 66, 0
15, 368391, Note_on_c, 12, 58, 0
15, 368400, Note_on_c, 12, 66, 82
15, 368400, Note_on_c, 12, 58, 82
15, 368451, Note_on_c, 12, 66, 0
15, 368451, Note_on_c, 12, 58, 0
15, 368460, Note_on_c, 12, 66, 83
15, 368460, Note_on_c, 12, 58, 83
15, 368511, Note_on_c, 12, 66, 0
15, 368511, Note_on_c, 12, 58, 0
15, 368520, Note_on_c, 12, 58, 83
15, 368520, Note_on_c, 12, 66, 83
15, 368571, Note_on_c, 12, 58, 0
15, 368571, Note_on_c, 12, 66, 0
15, 368580, Note_on_c, 12, 66, 83
15, 368580, Note_on_c, 12, 58, 83
15, 368631, Note_on_c, 12, 66, 0
15, 368631, Note_on_c, 12, 58, 0
15, 368640, Note_on_c, 12, 63, 84
15, 368691, Note_on_c, 12, 63, 0
15, 368700, Note_on_c, 12, 63, 84
15, 368751, Note_on_c, 12, 63, 0
15, 368760, Note_on_c, 12, 63, 84
15, 368811, Note_on_c, 12, 63, 0
15, 368820, Note_on_c, 12, 63, 84
15, 368871, Note_on_c, 12, 63, 0
15, 368880, Note_on_c, 12, 66, 84
15, 368931, Note_on_c, 12, 66, 0
15, 368940, Note_on_c, 12, 66, 84
15, 368991, Note_on_c, 12, 66, 0
15, 369000, Note_on_c, 12, 66, 84
15, 369051, Note_on_c, 12, 66, 0
15, 369060, Note_on_c, 12, 66, 84
15, 369111, Note_on_c, 12, 66, 0
15, 369120, Note_on_c, 12, 63, 84
15, 369171, Note_on_c, 12, 63, 0
15, 369180, Note_on_c, 12, 63, 84
15, 369231, Note_on_c, 12, 63, 0
15, 369240, Note_on_c, 12, 63, 84
15, 369291, Note_on_c, 12, 63, 0
15, 369300, Note_on_c, 12, 63, 84
15, 369351, Note_on_c, 12, 63, 0
15, 369360, Note_on_c, 12, 71, 84
15, 369411, Note_on_c, 12, 71, 0
15, 369420, Note_on_c, 12, 71, 84
15, 369471, Note_on_c, 12, 71, 0
15, 369480, Note_on_c, 12, 71, 84
15, 369531, Note_on_c, 12, 71, 0
15, 369540, Note_on_c, 12, 71, 84
15, 369591, Note_on_c, 12, 71, 0
15, 369600, Note_on_c, 12, 63, 84
15, 369651, Note_on_c, 12, 63, 0
15, 369660, Note_on_c, 12, 63, 84
15, 369711, Note_on_c, 12, 63, 0
15, 369720, Note_on_c, 12, 63, 84
15, 369771, Note_on_c, 12, 63, 0
15, 369780, Note_on_c, 12, 63, 84
15, 369831, Note_on_c, 12, 63, 0
15, 369840, Note_on_c, 12, 75, 84
15, 369891, Note_on_c, 12, 75, 0
15, 369900, Note_on_c, 12, 75, 84
15, 369951, Note_on_c, 12, 75, 0
15, 369960, Note_on_c, 12, 75, 84
15, 370011, Note_on_c, 12, 75, 0
15, 370020, Note_on_c, 12, 75, 84
15, 370071, Note_on_c, 12, 75, 0
15, 370080, Note_on_c, 12, 63, 84
15, 370131, Note_on_c, 12, 63, 0
15, 370140, Note_on_c, 12, 63, 84
15, 370191, Note_on_c, 12, 63, 0
15, 370200, Note_on_c, 12, 63, 84
15, 370251, Note_on_c, 12, 63, 0
15, 370260, Note_on_c, 12, 63, 84
15, 370311, Note_on_c, 12, 63, 0
15, 370320, Note_on_c, 12, 75, 84
15, 370320, Note_on_c, 12, 78, 84
15, 370371, Note_on_c, 12, 75, 0
15, 370371, Note_on_c, 12, 78, 0
15, 370380, Note_on_c, 12, 78, 84
15, 370380, Note_on_c, 12, 75, 84
15, 370431, Note_on_c, 12, 78, 0
15, 370431, Note_on_c, 12, 75, 0
15, 370440, Note_on_c, 12, 75, 84
15, 370440, Note_on_c, 12, 78, 84
15, 370491, Note_on_c, 12, 75, 0
15, 370491, Note_on_c, 12, 78, 0
15, 370500, Note_on_c, 12, 75, 84
15, 370500, Note_on_c, 12, 78, 84
15, 370551, Note_on_c, 12, 75, 0
15, 370551, Note_on_c, 12, 78, 0
15, 370560, Note_on_c, 12, 75, 84
15, 370560, Note_on_c, 12, 78, 84
15, 370611, Note_on_c, 12, 75, 0
15, 370611, Note_on_c, 12, 78, 0
15, 370620, Note_on_c, 12, 75, 84
15, 370620, Note_on_c, 12, 78, 84
15, 370671, Note_on_c, 12, 75, 0
15, 370671, Note_on_c, 12, 78, 0
15, 370680, Note_on_c, 12, 75, 84
15, 370680, Note_on_c, 12, 78, 84
15, 370731, Note_on_c, 12, 75, 0
15, 370731, Note_on_c, 12, 78, 0
15, 370740, Note_on_c, 12, 75, 84
15, 370740, Note_on_c, 12, 78, 84
15, 370791, Note_on_c, 12, 75, 0
15, 370791, Note_on_c, 12, 78, 0
15, 370800, Note_on_c, 12, 75, 84
15, 370800, Note_on_c, 12, 78, 84
15, 370851, Note_on_c, 12, 75, 0
15, 370851, Note_on_c, 12, 78, 0
15, 370860, Note_on_c, 12, 78, 84
15, 370860, Note_on_c, 12, 75, 84
15, 370911, Note_on_c, 12, 78, 0
15, 370911, Note_on_c, 12, 75, 0
15, 370920, Note_on_c, 12, 75, 84
15, 370920, Note_on_c, 12, 78, 84
15, 370971, Note_on_c, 12, 75, 0
15, 370971, Note_on_c, 12, 78, 0
15, 370980, Note_on_c, 12, 75, 84
15, 370980, Note_on_c, 12, 78, 84
15, 371031, Note_on_c, 12, 75, 0
15, 371031, Note_on_c, 12, 78, 0
15, 371040, Note_on_c, 12, 75, 84
15, 371040, Note_on_c, 12, 78, 84
15, 371091, Note_on_c, 12, 75, 0
15, 371091, Note_on_c, 12, 78, 0
15, 371100, Note_on_c, 12, 75, 84
15, 371100, Note_on_c, 12, 78, 84
15, 371151, Note_on_c, 12, 75, 0
15, 371151, Note_on_c, 12, 78, 0
15, 371160, Note_on_c, 12, 78, 84
15, 371160, Note_on_c, 12, 75, 84
15, 371211, Note_on_c, 12, 78, 0
15, 371211, Note_on_c, 12, 75, 0
15, 371220, Note_on_c, 12, 78, 84
15, 371220, Note_on_c, 12, 75, 84
15, 371271, Note_on_c, 12, 78, 0
15, 371271, Note_on_c, 12, 75, 0
15, 371280, Note_on_c, 12, 78, 84
15, 371280, Note_on_c, 12, 75, 84
15, 371331, Note_on_c, 12, 78, 0
15, 371331, Note_on_c, 12, 75, 0
15, 371340, Note_on_c, 12, 75, 84
15, 371340, Note_on_c, 12, 78, 84
15, 371391, Note_on_c, 12, 75, 0
15, 371391, Note_on_c, 12, 78, 0
15, 371400, Note_on_c, 12, 75, 84
15, 371400, Note_on_c, 12, 78, 84
15, 371451, Note_on_c, 12, 75, 0
15, 371451, Note_on_c, 12, 78, 0
15, 371460, Note_on_c, 12, 78, 84
15, 371460, Note_on_c, 12, 75, 84
15, 371511, Note_on_c, 12, 78, 0
15, 371511, Note_on_c, 12, 75, 0
15, 371520, Note_on_c, 12, 75, 84
15, 371520, Note_on_c, 12, 78, 84
15, 371759, Note_on_c, 12, 75, 0
15, 371759, Note_on_c, 12, 78, 0
15, 373680, Note_on_c, 12, 59, 76
15, 373919, Note_on_c, 12, 59, 0
15, 373920, Note_on_c, 12, 63, 76
15, 374159, Note_on_c, 12, 63, 0
15, 374160, Note_on_c, 12, 66, 76
15, 374399, Note_on_c, 12, 66, 0
15, 376560, Note_on_c, 12, 60, 52
15, 376799, Note_on_c, 12, 60, 0
15, 376800, Note_on_c, 12, 63, 52
15, 377039, Note_on_c, 12, 63, 0
15, 377040, Note_on_c, 12, 69, 52
15, 377279, Note_on_c, 12, 69, 0
15, 377640, Note_on_c, 12, 62, 52
15, 377759, Note_on_c, 12, 62, 0
15, 377760, Note_on_c, 12, 65, 52
15, 377879, Note_on_c, 12, 65, 0
15, 377880, Note_on_c, 12, 70, 51
15, 377999, Note_on_c, 12, 70, 0
15, 378360, Note_on_c, 12, 62, 50
15, 378479, Note_on_c, 12, 62, 0
15, 378480, Note_on_c, 12, 65, 50
15, 378599, Note_on_c, 12, 65, 0
15, 378600, Note_on_c, 12, 70, 49
15, 378719, Note_on_c, 12, 70, 0
15, 379080, Note_on_c, 12, 63, 48
15, 379199, Note_on_c, 12, 63, 0
15, 379200, Note_on_c, 12, 66, 47
15, 379319, Note_on_c, 12, 66, 0
15, 379320, Note_on_c, 12, 70, 47
15, 379439, Note_on_c, 12, 70, 0
15, 379800, Note_on_c, 12, 63, 46
15, 379919, Note_on_c, 12, 63, 0
15, 379920, Note_on_c, 12, 66, 45
15, 380039, Note_on_c, 12, 66, 0
15, 380040, Note_on_c, 12, 70, 45
15, 380159, Note_on_c, 12, 70, 0
15, 380160, Program_c, 12, 45
15, 380640, Note_on_c, 12, 58, 44
15, 380879, Note_on_c, 12, 58, 0
15, 381360, Note_on_c, 12, 58, 44
15, 381599, Note_on_c, 12, 58, 0
15, 382080, Note_on_c, 12, 58, 44
15, 382319, Note_on_c, 12, 58, 0
15, 382800, Note_on_c, 12, 58, 44
15, 383009, Note_on_c, 12, 58, 0
15, 383025, Program_c, 12, 48
15, 383040, Note_on_c, 12, 68, 44
15, 383091, Note_on_c, 12, 68, 0
15, 383100, Note_on_c, 12, 68, 44
15, 383151, Note_on_c, 12, 68, 0
15, 383160, Note_on_c, 12, 68, 44
15, 383211, Note_on_c, 12, 68, 0
15, 383220, Note_on_c, 12, 68, 44
15, 383271, Note_on_c, 12, 68, 0
15, 383280, Note_on_c, 12, 68, 44
15, 383331, Note_on_c, 12, 68, 0
15, 383340, Note_on_c, 12, 68, 44
15, 383391, Note_on_c, 12, 68, 0
15, 383400, Note_on_c, 12, 68, 44
15, 383451, Note_on_c, 12, 68, 0
15, 383460, Note_on_c, 12, 68, 44
15, 383511, Note_on_c, 12, 68, 0
15, 383520, Note_on_c, 12, 68, 44
15, 383571, Note_on_c, 12, 68, 0
15, 383580, Note_on_c, 12, 68, 44
15, 383631, Note_on_c, 12, 68, 0
15, 383640, Note_on_c, 12, 68, 44
15, 383691, Note_on_c, 12, 68, 0
15, 383700, Note_on_c, 12, 68, 44
15, 383751, Note_on_c, 12, 68, 0
15, 383760, Note_on_c, 12, 68, 44
15, 383811, Note_on_c, 12, 68, 0
15, 383820, Note_on_c, 12, 68, 44
15, 383871, Note_on_c, 12, 68, 0
15, 383880, Note_on_c, 12, 68, 44
15, 383931, Note_on_c, 12, 68, 0
15, 383940, Note_on_c, 12, 68, 44
15, 383991, Note_on_c, 12, 68, 0
15, 384000, Note_on_c, 12, 68, 44
15, 384051, Note_on_c, 12, 68, 0
15, 384060, Note_on_c, 12, 68, 44
15, 384111, Note_on_c, 12, 68, 0
15, 384120, Note_on_c, 12, 68, 44
15, 384171, Note_on_c, 12, 68, 0
15, 384180, Note_on_c, 12, 68, 44
15, 384231, Note_on_c, 12, 68, 0
15, 384240, Note_on_c, 12, 68, 44
15, 384291, Note_on_c, 12, 68, 0
15, 384300, Note_on_c, 12, 68, 44
15, 384351, Note_on_c, 12, 68, 0
15, 384360, Note_on_c, 12, 68, 44
15, 384411, Note_on_c, 12, 68, 0
15, 384420, Note_on_c, 12, 68, 44
15, 384471, Note_on_c, 12, 68, 0
15, 384480, Program_c, 12, 45
15, 384960, Note_on_c, 12, 58, 44
15, 385199, Note_on_c, 12, 58, 0
15, 385680, Note_on_c, 12, 58, 44
15, 385889, Note_on_c, 12, 58, 0
15, 385905, Program_c, 12, 48
15, 385920, Note_on_c, 12, 68, 44
15, 385971, Note_on_c, 12, 68, 0
15, 385980, Note_on_c, 12, 68, 44
15, 386031, Note_on_c, 12, 68, 0
15, 386040, Note_on_c, 12, 68, 44
15, 386091, Note_on_c, 12, 68, 0
15, 386100, Note_on_c, 12, 68, 44
15, 386151, Note_on_c, 12, 68, 0
15, 386160, Note_on_c, 12, 68, 44
15, 386211, Note_on_c, 12, 68, 0
15, 386220, Note_on_c, 12, 68, 44
15, 386271, Note_on_c, 12, 68, 0
15, 386280, Note_on_c, 12, 68, 44
15, 386331, Note_on_c, 12, 68, 0
15, 386340, Note_on_c, 12, 68, 44
15, 386391, Note_on_c, 12, 68, 0
15, 386400, Note_on_c, 12, 68, 44
15, 386451, Note_on_c, 12, 68, 0
15, 386460, Note_on_c, 12, 68, 44
15, 386511, Note_on_c, 12, 68, 0
15, 386520, Note_on_c, 12, 68, 44
15, 386571, Note_on_c, 12, 68, 0
15, 386580, Note_on_c, 12, 68, 44
15, 386631, Note_on_c, 12, 68, 0
15, 386640, Note_on_c, 12, 68, 44
15, 386691, Note_on_c, 12, 68, 0
15, 386700, Note_on_c, 12, 68, 44
15, 386751, Note_on_c, 12, 68, 0
15, 386760, Note_on_c, 12, 68, 44
15, 386811, Note_on_c, 12, 68, 0
15, 386820, Note_on_c, 12, 68, 44
15, 386871, Note_on_c, 12, 68, 0
15, 386880, Note_on_c, 12, 68, 44
15, 386931, Note_on_c, 12, 68, 0
15, 386940, Note_on_c, 12, 68, 44
15, 386991, Note_on_c, 12, 68, 0
15, 387000, Note_on_c, 12, 68, 44
15, 387051, Note_on_c, 12, 68, 0
15, 387060, Note_on_c, 12, 68, 44
15, 387111, Note_on_c, 12, 68, 0
15, 387120, Note_on_c, 12, 68, 44
15, 387171, Note_on_c, 12, 68, 0
15, 387180, Note_on_c, 12, 68, 44
15, 387231, Note_on_c, 12, 68, 0
15, 387240, Note_on_c, 12, 68, 44
15, 387291, Note_on_c, 12, 68, 0
15, 387300, Note_on_c, 12, 68, 44
15, 387351, Note_on_c, 12, 68, 0
15, 387360, Program_c, 12, 45
15, 387840, Note_on_c, 12, 58, 44
15, 388079, Note_on_c, 12, 58, 0
15, 388560, Note_on_c, 12, 58, 44
15, 388769, Note_on_c, 12, 58, 0
15, 388785, Program_c, 12, 48
15, 388800, Note_on_c, 12, 68, 44
15, 388851, Note_on_c, 12, 68, 0
15, 388860, Note_on_c, 12, 68, 44
15, 388911, Note_on_c, 12, 68, 0
15, 388920, Note_on_c, 12, 68, 44
15, 388971, Note_on_c, 12, 68, 0
15, 388980, Note_on_c, 12, 68, 44
15, 389031, Note_on_c, 12, 68, 0
15, 389040, Note_on_c, 12, 68, 44
15, 389091, Note_on_c, 12, 68, 0
15, 389100, Note_on_c, 12, 68, 44
15, 389151, Note_on_c, 12, 68, 0
15, 389160, Note_on_c, 12, 68, 44
15, 389211, Note_on_c, 12, 68, 0
15, 389220, Note_on_c, 12, 68, 44
15, 389271, Note_on_c, 12, 68, 0
15, 389280, Note_on_c, 12, 68, 44
15, 389331, Note_on_c, 12, 68, 0
15, 389340, Note_on_c, 12, 68, 44
15, 389391, Note_on_c, 12, 68, 0
15, 389400, Note_on_c, 12, 68, 44
15, 389451, Note_on_c, 12, 68, 0
15, 389460, Note_on_c, 12, 68, 44
15, 389511, Note_on_c, 12, 68, 0
15, 389520, Note_on_c, 12, 68, 44
15, 389571, Note_on_c, 12, 68, 0
15, 389580, Note_on_c, 12, 68, 44
15, 389631, Note_on_c, 12, 68, 0
15, 389640, Note_on_c, 12, 68, 44
15, 389691, Note_on_c, 12, 68, 0
15, 389700, Note_on_c, 12, 68, 44
15, 389751, Note_on_c, 12, 68, 0
15, 389760, Note_on_c, 12, 68, 44
15, 389811, Note_on_c, 12, 68, 0
15, 389820, Note_on_c, 12, 68, 44
15, 389871, Note_on_c, 12, 68, 0
15, 389880, Note_on_c, 12, 68, 44
15, 389931, Note_on_c, 12, 68, 0
15, 389940, Note_on_c, 12, 68, 44
15, 389991, Note_on_c, 12, 68, 0
15, 390000, Note_on_c, 12, 68, 44
15, 390051, Note_on_c, 12, 68, 0
15, 390060, Note_on_c, 12, 68, 44
15, 390111, Note_on_c, 12, 68, 0
15, 390120, Note_on_c, 12, 68, 44
15, 390171, Note_on_c, 12, 68, 0
15, 390180, Note_on_c, 12, 68, 44
15, 390231, Note_on_c, 12, 68, 0
15, 390240, Note_on_c, 12, 68, 44
15, 390291, Note_on_c, 12, 68, 0
15, 390300, Note_on_c, 12, 68, 44
15, 390351, Note_on_c, 12, 68, 0
15, 390360, Note_on_c, 12, 68, 44
15, 390411, Note_on_c, 12, 68, 0
15, 390420, Note_on_c, 12, 68, 44
15, 390471, Note_on_c, 12, 68, 0
15, 390480, Note_on_c, 12, 68, 44
15, 390531, Note_on_c, 12, 68, 0
15, 390540, Note_on_c, 12, 68, 44
15, 390591, Note_on_c, 12, 68, 0
15, 390600, Note_on_c, 12, 68, 44
15, 390651, Note_on_c, 12, 68, 0
15, 390660, Note_on_c, 12, 68, 44
15, 390711, Note_on_c, 12, 68, 0
15, 390720, Note_on_c, 12, 68, 44
15, 390771, Note_on_c, 12, 68, 0
15, 390780, Note_on_c, 12, 68, 44
15, 390831, Note_on_c, 12, 68, 0
15, 390840, Note_on_c, 12, 68, 44
15, 390891, Note_on_c, 12, 68, 0
15, 390900, Note_on_c, 12, 68, 44
15, 390951, Note_on_c, 12, 68, 0
15, 390960, Note_on_c, 12, 68, 44
15, 391011, Note_on_c, 12, 68, 0
15, 391020, Note_on_c, 12, 68, 44
15, 391071, Note_on_c, 12, 68, 0
15, 391080, Note_on_c, 12, 68, 44
15, 391131, Note_on_c, 12, 68, 0
15, 391140, Note_on_c, 12, 68, 44
15, 391191, Note_on_c, 12, 68, 0
15, 391200, Note_on_c, 12, 68, 44
15, 391251, Note_on_c, 12, 68, 0
15, 391260, Note_on_c, 12, 68, 44
15, 391311, Note_on_c, 12, 68, 0
15, 391320, Note_on_c, 12, 68, 44
15, 391371, Note_on_c, 12, 68, 0
15, 391380, Note_on_c, 12, 68, 44
15, 391431, Note_on_c, 12, 68, 0
15, 391440, Note_on_c, 12, 68, 44
15, 391491, Note_on_c, 12, 68, 0
15, 391500, Note_on_c, 12, 68, 44
15, 391551, Note_on_c, 12, 68, 0
15, 391560, Note_on_c, 12, 68, 44
15, 391611, Note_on_c, 12, 68, 0
15, 391620, Note_on_c, 12, 68, 44
15, 391671, Note_on_c, 12, 68, 0
15, 391680, Note_on_c, 12, 68, 36
15, 391731, Note_on_c, 12, 68, 0
15, 391740, Note_on_c, 12, 68, 36
15, 391791, Note_on_c, 12, 68, 0
15, 391800, Note_on_c, 12, 68, 36
15, 391851, Note_on_c, 12, 68, 0
15, 391860, Note_on_c, 12, 68, 36
15, 391911, Note_on_c, 12, 68, 0
15, 391920, Note_on_c, 12, 68, 36
15, 391971, Note_on_c, 12, 68, 0
15, 391980, Note_on_c, 12, 68, 36
15, 392031, Note_on_c, 12, 68, 0
15, 392040, Note_on_c, 12, 68, 36
15, 392091, Note_on_c, 12, 68, 0
15, 392100, Note_on_c, 12, 68, 36
15, 392151, Note_on_c, 12, 68, 0
15, 392160, Note_on_c, 12, 68, 36
15, 392211, Note_on_c, 12, 68, 0
15, 392220, Note_on_c, 12, 68, 36
15, 392271, Note_on_c, 12, 68, 0
15, 392280, Note_on_c, 12, 68, 36
15, 392331, Note_on_c, 12, 68, 0
15, 392340, Note_on_c, 12, 68, 36
15, 392391, Note_on_c, 12, 68, 0
15, 392400, Note_on_c, 12, 68, 36
15, 392451, Note_on_c, 12, 68, 0
15, 392460, Note_on_c, 12, 68, 36
15, 392511, Note_on_c, 12, 68, 0
15, 392520, Note_on_c, 12, 68, 36
15, 392571, Note_on_c, 12, 68, 0
15, 392580, Note_on_c, 12, 68, 36
15, 392631, Note_on_c, 12, 68, 0
15, 392640, Note_on_c, 12, 68, 36
15, 392691, Note_on_c, 12, 68, 0
15, 392700, Note_on_c, 12, 68, 36
15, 392751, Note_on_c, 12, 68, 0
15, 392760, Note_on_c, 12, 68, 36
15, 392811, Note_on_c, 12, 68, 0
15, 392820, Note_on_c, 12, 68, 36
15, 392871, Note_on_c, 12, 68, 0
15, 392880, Note_on_c, 12, 68, 36
15, 392931, Note_on_c, 12, 68, 0
15, 392940, Note_on_c, 12, 68, 36
15, 392991, Note_on_c, 12, 68, 0
15, 393000, Note_on_c, 12, 68, 36
15, 393051, Note_on_c, 12, 68, 0
15, 393060, Note_on_c, 12, 68, 36
15, 393111, Note_on_c, 12, 68, 0
15, 393120, Note_on_c, 12, 68, 76
15, 393171, Note_on_c, 12, 68, 0
15, 393180, Note_on_c, 12, 68, 76
15, 393231, Note_on_c, 12, 68, 0
15, 393240, Note_on_c, 12, 68, 76
15, 393291, Note_on_c, 12, 68, 0
15, 393300, Note_on_c, 12, 68, 76
15, 393351, Note_on_c, 12, 68, 0
15, 393360, Note_on_c, 12, 68, 76
15, 393411, Note_on_c, 12, 68, 0
15, 393420, Note_on_c, 12, 68, 76
15, 393471, Note_on_c, 12, 68, 0
15, 393480, Note_on_c, 12, 68, 76
15, 393531, Note_on_c, 12, 68, 0
15, 393540, Note_on_c, 12, 68, 76
15, 393591, Note_on_c, 12, 68, 0
15, 393600, Note_on_c, 12, 68, 76
15, 393651, Note_on_c, 12, 68, 0
15, 393660, Note_on_c, 12, 68, 76
15, 393711, Note_on_c, 12, 68, 0
15, 393720, Note_on_c, 12, 68, 76
15, 393771, Note_on_c, 12, 68, 0
15, 393780, Note_on_c, 12, 68, 76
15, 393831, Note_on_c, 12, 68, 0
15, 393840, Note_on_c, 12, 74, 76
15, 393840, Note_on_c, 12, 65, 76
15, 393891, Note_on_c, 12, 74, 0
15, 393891, Note_on_c, 12, 65, 0
15, 393900, Note_on_c, 12, 74, 76
15, 393900, Note_on_c, 12, 65, 76
15, 393951, Note_on_c, 12, 74, 0
15, 393951, Note_on_c, 12, 65, 0
15, 393960, Note_on_c, 12, 74, 76
15, 393960, Note_on_c, 12, 65, 76
15, 394011, Note_on_c, 12, 74, 0
15, 394011, Note_on_c, 12, 65, 0
15, 394020, Note_on_c, 12, 74, 76
15, 394020, Note_on_c, 12, 65, 76
15, 394071, Note_on_c, 12, 74, 0
15, 394071, Note_on_c, 12, 65, 0
15, 394080, Note_on_c, 12, 65, 76
15, 394080, Note_on_c, 12, 74, 76
15, 394131, Note_on_c, 12, 65, 0
15, 394131, Note_on_c, 12, 74, 0
15, 394140, Note_on_c, 12, 74, 76
15, 394140, Note_on_c, 12, 65, 76
15, 394191, Note_on_c, 12, 74, 0
15, 394191, Note_on_c, 12, 65, 0
15, 394200, Note_on_c, 12, 65, 76
15, 394200, Note_on_c, 12, 74, 76
15, 394251, Note_on_c, 12, 65, 0
15, 394251, Note_on_c, 12, 74, 0
15, 394260, Note_on_c, 12, 65, 76
15, 394260, Note_on_c, 12, 74, 76
15, 394311, Note_on_c, 12, 65, 0
15, 394311, Note_on_c, 12, 74, 0
15, 394320, Note_on_c, 12, 74, 76
15, 394320, Note_on_c, 12, 65, 76
15, 394371, Note_on_c, 12, 74, 0
15, 394371, Note_on_c, 12, 65, 0
15, 394380, Note_on_c, 12, 74, 76
15, 394380, Note_on_c, 12, 65, 76
15, 394431, Note_on_c, 12, 74, 0
15, 394431, Note_on_c, 12, 65, 0
15, 394440, Note_on_c, 12, 65, 76
15, 394440, Note_on_c, 12, 74, 76
15, 394491, Note_on_c, 12, 65, 0
15, 394491, Note_on_c, 12, 74, 0
15, 394500, Note_on_c, 12, 65, 76
15, 394500, Note_on_c, 12, 74, 76
15, 394551, Note_on_c, 12, 65, 0
15, 394551, Note_on_c, 12, 74, 0
15, 394560, Note_on_c, 12, 67, 76
15, 394560, Note_on_c, 12, 75, 76
15, 394664, Note_on_c, 12, 67, 0
15, 394664, Note_on_c, 12, 75, 0
15, 394680, Note_on_c, 12, 67, 52
15, 394784, Note_on_c, 12, 67, 0
15, 394800, Note_on_c, 12, 67, 52
15, 394904, Note_on_c, 12, 67, 0
15, 394920, Note_on_c, 12, 67, 52
15, 395024, Note_on_c, 12, 67, 0
15, 395040, Note_on_c, 12, 67, 52
15, 395144, Note_on_c, 12, 67, 0
15, 395160, Note_on_c, 12, 67, 52
15, 395264, Note_on_c, 12, 67, 0
15, 395280, Note_on_c, 12, 67, 52
15, 395384, Note_on_c, 12, 67, 0
15, 395400, Note_on_c, 12, 67, 52
15, 395504, Note_on_c, 12, 67, 0
15, 395520, Note_on_c, 12, 67, 52
15, 395624, Note_on_c, 12, 67, 0
15, 395640, Note_on_c, 12, 67, 52
15, 395744, Note_on_c, 12, 67, 0
15, 395760, Note_on_c, 12, 67, 52
15, 395864, Note_on_c, 12, 67, 0
15, 395880, Note_on_c, 12, 67, 52
15, 395984, Note_on_c, 12, 67, 0
15, 396000, Note_on_c, 12, 67, 52
15, 396104, Note_on_c, 12, 67, 0
15, 396120, Note_on_c, 12, 67, 52
15, 396224, Note_on_c, 12, 67, 0
15, 396240, Note_on_c, 12, 67, 52
15, 396344, Note_on_c, 12, 67, 0
15, 396360, Note_on_c, 12, 67, 52
15, 396464, Note_on_c, 12, 67, 0
15, 396480, Note_on_c, 12, 67, 52
15, 396584, Note_on_c, 12, 67, 0
15, 396600, Note_on_c, 12, 67, 52
15, 396704, Note_on_c, 12, 67, 0
15, 396720, Note_on_c, 12, 67, 52
15, 396824, Note_on_c, 12, 67, 0
15, 396840, Note_on_c, 12, 67, 52
15, 396944, Note_on_c, 12, 67, 0
15, 396960, Note_on_c, 12, 67, 52
15, 397064, Note_on_c, 12, 67, 0
15, 397080, Note_on_c, 12, 67, 52
15, 397184, Note_on_c, 12, 67, 0
15, 397200, Note_on_c, 12, 67, 52
15, 397304, Note_on_c, 12, 67, 0
15, 397320, Note_on_c, 12, 67, 52
15, 397424, Note_on_c, 12, 67, 0
15, 397440, Note_on_c, 12, 67, 52
15, 397559, Note_on_c, 12, 67, 0
15, 397560, Note_on_c, 12, 58, 53
15, 397679, Note_on_c, 12, 58, 0
15, 397680, Note_on_c, 12, 64, 54
15, 397799, Note_on_c, 12, 64, 0
15, 397800, Note_on_c, 12, 58, 56
15, 397919, Note_on_c, 12, 58, 0
15, 397920, Note_on_c, 12, 64, 57
15, 398039, Note_on_c, 12, 64, 0
15, 398040, Note_on_c, 12, 58, 58
15, 398144, Note_on_c, 12, 58, 0
15, 398160, Note_on_c, 12, 64, 60
15, 398279, Note_on_c, 12, 64, 0
15, 398280, Note_on_c, 12, 58, 61
15, 398399, Note_on_c, 12, 58, 0
15, 398400, Note_on_c, 12, 64, 62
15, 398519, Note_on_c, 12, 64, 0
15, 398520, Note_on_c, 12, 58, 64
15, 398639, Note_on_c, 12, 58, 0
15, 398640, Note_on_c, 12, 64, 65
15, 398759, Note_on_c, 12, 64, 0
15, 398760, Note_on_c, 12, 58, 66
15, 398864, Note_on_c, 12, 58, 0
15, 398880, Note_on_c, 12, 64, 76
15, 398999, Note_on_c, 12, 64, 0
15, 399000, Note_on_c, 12, 58, 68
15, 399119, Note_on_c, 12, 58, 0
15, 399120, Note_on_c, 12, 60, 65
15, 399239, Note_on_c, 12, 60, 0
15, 399240, Note_on_c, 12, 58, 62
15, 399359, Note_on_c, 12, 58, 0
15, 399360, Note_on_c, 12, 60, 59
15, 399479, Note_on_c, 12, 60, 0
15, 399480, Note_on_c, 12, 58, 56
15, 399584, Note_on_c, 12, 58, 0
15, 399600, Note_on_c, 12, 57, 52
15, 399719, Note_on_c, 12, 57, 0
15, 399720, Note_on_c, 12, 60, 52
15, 399839, Note_on_c, 12, 60, 0
15, 399840, Note_on_c, 12, 57, 52
15, 399959, Note_on_c, 12, 57, 0
15, 399960, Note_on_c, 12, 60, 52
15, 400079, Note_on_c, 12, 60, 0
15, 400080, Note_on_c, 12, 57, 52
15, 400199, Note_on_c, 12, 57, 0
15, 400200, Note_on_c, 12, 60, 52
15, 400304, Note_on_c, 12, 60, 0
15, 400320, Note_on_c, 12, 55, 52
15, 400439, Note_on_c, 12, 55, 0
15, 400440, Note_on_c, 12, 60, 52
15, 400559, Note_on_c, 12, 60, 0
15, 400560, Note_on_c, 12, 55, 52
15, 400679, Note_on_c, 12, 55, 0
15, 400680, Note_on_c, 12, 60, 52
15, 400799, Note_on_c, 12, 60, 0
15, 400800, Note_on_c, 12, 55, 52
15, 400919, Note_on_c, 12, 55, 0
15, 400920, Note_on_c, 12, 60, 52
15, 401024, Note_on_c, 12, 60, 0
15, 401040, Note_on_c, 12, 55, 52
15, 401159, Note_on_c, 12, 55, 0
15, 401160, Note_on_c, 12, 60, 52
15, 401279, Note_on_c, 12, 60, 0
15, 401280, Note_on_c, 12, 58, 52
15, 401399, Note_on_c, 12, 58, 0
15, 401400, Note_on_c, 12, 60, 52
15, 401519, Note_on_c, 12, 60, 0
15, 401520, Note_on_c, 12, 58, 52
15, 401639, Note_on_c, 12, 58, 0
15, 401640, Note_on_c, 12, 60, 52
15, 401744, Note_on_c, 12, 60, 0
15, 401760, Note_on_c, 12, 57, 52
15, 401864, Note_on_c, 12, 57, 0
15, 401880, Note_on_c, 12, 57, 52
15, 401984, Note_on_c, 12, 57, 0
15, 402000, Note_on_c, 12, 57, 52
15, 402104, Note_on_c, 12, 57, 0
15, 402120, Note_on_c, 12, 57, 52
15, 402224, Note_on_c, 12, 57, 0
15, 402240, Note_on_c, 12, 57, 52
15, 402344, Note_on_c, 12, 57, 0
15, 402360, Note_on_c, 12, 57, 52
15, 402464, Note_on_c, 12, 57, 0
15, 402480, Note_on_c, 12, 57, 52
15, 402584, Note_on_c, 12, 57, 0
15, 402600, Note_on_c, 12, 57, 52
15, 402704, Note_on_c, 12, 57, 0
15, 402720, Note_on_c, 12, 57, 52
15, 402824, Note_on_c, 12, 57, 0
15, 402840, Note_on_c, 12, 57, 52
15, 402944, Note_on_c, 12, 57, 0
15, 402960, Note_on_c, 12, 57, 52
15, 403064, Note_on_c, 12, 57, 0
15, 403080, Note_on_c, 12, 57, 52
15, 403184, Note_on_c, 12, 57, 0
15, 403200, Note_on_c, 12, 57, 52
15, 403304, Note_on_c, 12, 57, 0
15, 403320, Note_on_c, 12, 57, 52
15, 403424, Note_on_c, 12, 57, 0
15, 403440, Note_on_c, 12, 57, 52
15, 403544, Note_on_c, 12, 57, 0
15, 403560, Note_on_c, 12, 57, 52
15, 403664, Note_on_c, 12, 57, 0
15, 403680, Note_on_c, 12, 57, 52
15, 403784, Note_on_c, 12, 57, 0
15, 403800, Note_on_c, 12, 57, 52
15, 403904, Note_on_c, 12, 57, 0
15, 403920, Note_on_c, 12, 57, 52
15, 404024, Note_on_c, 12, 57, 0
15, 404040, Note_on_c, 12, 57, 52
15, 404144, Note_on_c, 12, 57, 0
15, 404160, Note_on_c, 12, 57, 52
15, 404264, Note_on_c, 12, 57, 0
15, 404280, Note_on_c, 12, 57, 52
15, 404384, Note_on_c, 12, 57, 0
15, 404400, Note_on_c, 12, 57, 52
15, 404504, Note_on_c, 12, 57, 0
15, 404520, Note_on_c, 12, 57, 52
15, 404624, Note_on_c, 12, 57, 0
15, 404640, Note_on_c, 12, 58, 52
15, 404744, Note_on_c, 12, 58, 0
15, 404760, Note_on_c, 12, 58, 52
15, 404864, Note_on_c, 12, 58, 0
15, 404880, Note_on_c, 12, 58, 52
15, 404984, Note_on_c, 12, 58, 0
15, 405000, Note_on_c, 12, 58, 52
15, 405104, Note_on_c, 12, 58, 0
15, 405120, Note_on_c, 12, 58, 52
15, 405224, Note_on_c, 12, 58, 0
15, 405240, Note_on_c, 12, 58, 52
15, 405344, Note_on_c, 12, 58, 0
15, 405360, Note_on_c, 12, 58, 52
15, 405464, Note_on_c, 12, 58, 0
15, 405480, Note_on_c, 12, 58, 52
15, 405584, Note_on_c, 12, 58, 0
15, 405600, Note_on_c, 12, 58, 52
15, 405704, Note_on_c, 12, 58, 0
15, 405720, Note_on_c, 12, 58, 52
15, 405824, Note_on_c, 12, 58, 0
15, 405840, Note_on_c, 12, 58, 52
15, 405944, Note_on_c, 12, 58, 0
15, 405960, Note_on_c, 12, 58, 52
15, 406064, Note_on_c, 12, 58, 0
15, 406080, Note_on_c, 12, 57, 52
15, 406184, Note_on_c, 12, 57, 0
15, 406200, Note_on_c, 12, 57, 53
15, 406304, Note_on_c, 12, 57, 0
15, 406320, Note_on_c, 12, 57, 54
15, 406424, Note_on_c, 12, 57, 0
15, 406440, Note_on_c, 12, 57, 56
15, 406544, Note_on_c, 12, 57, 0
15, 406560, Note_on_c, 12, 57, 57
15, 406664, Note_on_c, 12, 57, 0
15, 406680, Note_on_c, 12, 57, 58
15, 406784, Note_on_c, 12, 57, 0
15, 406800, Note_on_c, 12, 56, 60
15, 406904, Note_on_c, 12, 56, 0
15, 406920, Note_on_c, 12, 56, 61
15, 407024, Note_on_c, 12, 56, 0
15, 407040, Note_on_c, 12, 56, 62
15, 407144, Note_on_c, 12, 56, 0
15, 407160, Note_on_c, 12, 56, 64
15, 407264, Note_on_c, 12, 56, 0
15, 407280, Note_on_c, 12, 56, 65
15, 407384, Note_on_c, 12, 56, 0
15, 407400, Note_on_c, 12, 56, 66
15, 407504, Note_on_c, 12, 56, 0
15, 407520, Note_on_c, 12, 56, 52
15, 407624, Note_on_c, 12, 56, 0
15, 407640, Note_on_c, 12, 56, 52
15, 407744, Note_on_c, 12, 56, 0
15, 407760, Note_on_c, 12, 56, 52
15, 407864, Note_on_c, 12, 56, 0
15, 407880, Note_on_c, 12, 56, 52
15, 407984, Note_on_c, 12, 56, 0
15, 408000, Note_on_c, 12, 56, 52
15, 408104, Note_on_c, 12, 56, 0
15, 408120, Note_on_c, 12, 56, 52
15, 408224, Note_on_c, 12, 56, 0
15, 408240, Note_on_c, 12, 56, 52
15, 408344, Note_on_c, 12, 56, 0
15, 408360, Note_on_c, 12, 56, 52
15, 408464, Note_on_c, 12, 56, 0
15, 408480, Note_on_c, 12, 56, 52
15, 408584, Note_on_c, 12, 56, 0
15, 408600, Note_on_c, 12, 56, 52
15, 408704, Note_on_c, 12, 56, 0
15, 408720, Note_on_c, 12, 56, 52
15, 408824, Note_on_c, 12, 56, 0
15, 408840, Note_on_c, 12, 56, 52
15, 408944, Note_on_c, 12, 56, 0
15, 408960, Note_on_c, 12, 56, 52
15, 409064, Note_on_c, 12, 56, 0
15, 409080, Note_on_c, 12, 56, 52
15, 409184, Note_on_c, 12, 56, 0
15, 409200, Note_on_c, 12, 56, 52
15, 409304, Note_on_c, 12, 56, 0
15, 409320, Note_on_c, 12, 56, 52
15, 409424, Note_on_c, 12, 56, 0
15, 409440, Note_on_c, 12, 56, 52
15, 409544, Note_on_c, 12, 56, 0
15, 409560, Note_on_c, 12, 56, 52
15, 409664, Note_on_c, 12, 56, 0
15, 409680, Note_on_c, 12, 56, 52
15, 409784, Note_on_c, 12, 56, 0
15, 409800, Note_on_c, 12, 56, 52
15, 409904, Note_on_c, 12, 56, 0
15, 409920, Note_on_c, 12, 56, 52
15, 410024, Note_on_c, 12, 56, 0
15, 410040, Note_on_c, 12, 56, 52
15, 410144, Note_on_c, 12, 56, 0
15, 410160, Note_on_c, 12, 56, 52
15, 410264, Note_on_c, 12, 56, 0
15, 410280, Note_on_c, 12, 56, 52
15, 410384, Note_on_c, 12, 56, 0
15, 410400, Note_on_c, 12, 56, 52
15, 410504, Note_on_c, 12, 56, 0
15, 410520, Note_on_c, 12, 56, 52
15, 410624, Note_on_c, 12, 56, 0
15, 410640, Note_on_c, 12, 56, 52
15, 410744, Note_on_c, 12, 56, 0
15, 410760, Note_on_c, 12, 56, 52
15, 410864, Note_on_c, 12, 56, 0
15, 410880, Note_on_c, 12, 56, 52
15, 410984, Note_on_c, 12, 56, 0
15, 411000, Note_on_c, 12, 56, 52
15, 411104, Note_on_c, 12, 56, 0
15, 411120, Note_on_c, 12, 56, 52
15, 411224, Note_on_c, 12, 56, 0
15, 411240, Note_on_c, 12, 56, 52
15, 411344, Note_on_c, 12, 56, 0
15, 411360, Note_on_c, 12, 56, 52
15, 411464, Note_on_c, 12, 56, 0
15, 411480, Note_on_c, 12, 56, 52
15, 411584, Note_on_c, 12, 56, 0
15, 411600, Note_on_c, 12, 56, 52
15, 411704, Note_on_c, 12, 56, 0
15, 411720, Note_on_c, 12, 56, 52
15, 411824, Note_on_c, 12, 56, 0
15, 411832, Control_c, 12, 11, 96
15, 411840, Note_on_c, 12, 56, 68
15, 411944, Note_on_c, 12, 56, 0
15, 411960, Control_c, 12, 11, 96
15, 411960, Note_on_c, 12, 68, 68
15, 412010, Control_c, 12, 11, 99
15, 412060, Control_c, 12, 11, 101
15, 412110, Control_c, 12, 11, 104
15, 412160, Control_c, 12, 11, 106
15, 412184, Note_on_c, 12, 68, 0
15, 412200, Note_on_c, 12, 68, 68
15, 412210, Control_c, 12, 11, 109
15, 412260, Control_c, 12, 11, 112
15, 412310, Control_c, 12, 11, 114
15, 412360, Control_c, 12, 11, 117
15, 412410, Control_c, 12, 11, 119
15, 412424, Note_on_c, 12, 68, 0
15, 412440, Note_on_c, 12, 68, 68
15, 412460, Control_c, 12, 11, 122
15, 412510, Control_c, 12, 11, 127
15, 412560, Control_c, 12, 11, 127
15, 412620, Control_c, 12, 11, 123
15, 412664, Note_on_c, 12, 68, 0
15, 412680, Note_on_c, 12, 68, 68
15, 412680, Control_c, 12, 11, 119
15, 412740, Control_c, 12, 11, 115
15, 412800, Control_c, 12, 11, 111
15, 412860, Control_c, 12, 11, 107
15, 412904, Note_on_c, 12, 68, 0
15, 412920, Control_c, 12, 11, 104
15, 412920, Note_on_c, 12, 68, 68
15, 412980, Control_c, 12, 11, 100
15, 413040, Control_c, 12, 11, 96
15, 413100, Control_c, 12, 11, 92
15, 413144, Note_on_c, 12, 68, 0
15, 413160, Note_on_c, 12, 68, 68
15, 413160, Control_c, 12, 11, 88
15, 413220, Control_c, 12, 11, 80
15, 413331, Note_on_c, 12, 68, 0
15, 413340, Note_on_c, 12, 62, 68
15, 413340, Note_on_c, 12, 65, 68
15, 413391, Note_on_c, 12, 62, 0
15, 413391, Note_on_c, 12, 65, 0
15, 413400, Note_on_c, 12, 65, 68
15, 413400, Note_on_c, 12, 62, 68
15, 413451, Note_on_c, 12, 65, 0
15, 413451, Note_on_c, 12, 62, 0
15, 413460, Note_on_c, 12, 65, 68
15, 413460, Note_on_c, 12, 62, 68
15, 413511, Note_on_c, 12, 65, 0
15, 413511, Note_on_c, 12, 62, 0
15, 413520, Note_on_c, 12, 62, 68
15, 413520, Note_on_c, 12, 65, 68
15, 413571, Note_on_c, 12, 62, 0
15, 413571, Note_on_c, 12, 65, 0
15, 413580, Note_on_c, 12, 62, 68
15, 413580, Note_on_c, 12, 65, 68
15, 413631, Note_on_c, 12, 62, 0
15, 413631, Note_on_c, 12, 65, 0
15, 413640, Note_on_c, 12, 65, 68
15, 413640, Note_on_c, 12, 62, 68
15, 413691, Note_on_c, 12, 65, 0
15, 413691, Note_on_c, 12, 62, 0
15, 413700, Note_on_c, 12, 65, 68
15, 413700, Note_on_c, 12, 62, 68
15, 413751, Note_on_c, 12, 65, 0
15, 413751, Note_on_c, 12, 62, 0
15, 413760, Note_on_c, 12, 62, 68
15, 413760, Note_on_c, 12, 65, 68
15, 413811, Note_on_c, 12, 62, 0
15, 413811, Note_on_c, 12, 65, 0
15, 413820, Note_on_c, 12, 62, 68
15, 413820, Note_on_c, 12, 65, 68
15, 413871, Note_on_c, 12, 62, 0
15, 413871, Note_on_c, 12, 65, 0
15, 413880, Note_on_c, 12, 65, 68
15, 413880, Note_on_c, 12, 62, 68
15, 413931, Note_on_c, 12, 65, 0
15, 413931, Note_on_c, 12, 62, 0
15, 413940, Note_on_c, 12, 62, 68
15, 413940, Note_on_c, 12, 65, 68
15, 413984, Note_on_c, 12, 62, 0
15, 413984, Note_on_c, 12, 65, 0
15, 413992, Control_c, 12, 11, 64
15, 414000, Note_on_c, 12, 65, 76
15, 414000, Note_on_c, 12, 62, 76
15, 414051, Note_on_c, 12, 65, 0
15, 414051, Note_on_c, 12, 62, 0
15, 414060, Note_on_c, 12, 62, 76
15, 414060, Note_on_c, 12, 65, 76
15, 414111, Note_on_c, 12, 62, 0
15, 414111, Note_on_c, 12, 65, 0
15, 414120, Note_on_c, 12, 65, 76
15, 414120, Note_on_c, 12, 62, 76
15, 414171, Note_on_c, 12, 65, 0
15, 414171, Note_on_c, 12, 62, 0
15, 414180, Note_on_c, 12, 65, 76
15, 414180, Note_on_c, 12, 62, 76
15, 414231, Note_on_c, 12, 65, 0
15, 414231, Note_on_c, 12, 62, 0
15, 414240, Note_on_c, 12, 65, 76
15, 414240, Note_on_c, 12, 62, 76
15, 414291, Note_on_c, 12, 65, 0
15, 414291, Note_on_c, 12, 62, 0
15, 414300, Note_on_c, 12, 65, 76
15, 414300, Note_on_c, 12, 62, 76
15, 414351, Note_on_c, 12, 65, 0
15, 414351, Note_on_c, 12, 62, 0
15, 414360, Note_on_c, 12, 65, 76
15, 414360, Note_on_c, 12, 62, 76
15, 414411, Note_on_c, 12, 65, 0
15, 414411, Note_on_c, 12, 62, 0
15, 414420, Note_on_c, 12, 65, 76
15, 414420, Note_on_c, 12, 62, 76
15, 414471, Note_on_c, 12, 65, 0
15, 414471, Note_on_c, 12, 62, 0
15, 414480, Note_on_c, 12, 62, 76
15, 414480, Note_on_c, 12, 65, 76
15, 414531, Note_on_c, 12, 62, 0
15, 414531, Note_on_c, 12, 65, 0
15, 414540, Note_on_c, 12, 65, 76
15, 414540, Note_on_c, 12, 62, 76
15, 414591, Note_on_c, 12, 65, 0
15, 414591, Note_on_c, 12, 62, 0
15, 414600, Note_on_c, 12, 62, 76
15, 414600, Note_on_c, 12, 65, 76
15, 414651, Note_on_c, 12, 62, 0
15, 414651, Note_on_c, 12, 65, 0
15, 414660, Note_on_c, 12, 65, 76
15, 414660, Note_on_c, 12, 62, 76
15, 414711, Note_on_c, 12, 65, 0
15, 414711, Note_on_c, 12, 62, 0
15, 414720, Control_c, 12, 11, 64
15, 414720, Note_on_c, 12, 62, 76
15, 414720, Note_on_c, 12, 65, 76
15, 414771, Note_on_c, 12, 62, 0
15, 414771, Note_on_c, 12, 65, 0
15, 414780, Note_on_c, 12, 65, 76
15, 414780, Note_on_c, 12, 62, 76
15, 414800, Control_c, 12, 11, 66
15, 414831, Note_on_c, 12, 65, 0
15, 414831, Note_on_c, 12, 62, 0
15, 414840, Note_on_c, 12, 65, 76
15, 414840, Note_on_c, 12, 62, 76
15, 414880, Control_c, 12, 11, 68
15, 414891, Note_on_c, 12, 65, 0
15, 414891, Note_on_c, 12, 62, 0
15, 414900, Note_on_c, 12, 65, 76
15, 414900, Note_on_c, 12, 62, 76
15, 414951, Note_on_c, 12, 65, 0
15, 414951, Note_on_c, 12, 62, 0
15, 414960, Control_c, 12, 11, 69
15, 414960, Note_on_c, 12, 65, 76
15, 414960, Note_on_c, 12, 62, 76
15, 415011, Note_on_c, 12, 65, 0
15, 415011, Note_on_c, 12, 62, 0
15, 415020, Note_on_c, 12, 65, 76
15, 415020, Note_on_c, 12, 62, 76
15, 415040, Control_c, 12, 11, 71
15, 415071, Note_on_c, 12, 65, 0
15, 415071, Note_on_c, 12, 62, 0
15, 415080, Note_on_c, 12, 65, 76
15, 415080, Note_on_c, 12, 62, 76
15, 415120, Control_c, 12, 11, 73
15, 415131, Note_on_c, 12, 65, 0
15, 415131, Note_on_c, 12, 62, 0
15, 415140, Note_on_c, 12, 65, 76
15, 415140, Note_on_c, 12, 62, 76
15, 415191, Note_on_c, 12, 65, 0
15, 415191, Note_on_c, 12, 62, 0
15, 415200, Note_on_c, 12, 65, 76
15, 415200, Control_c, 12, 11, 75
15, 415200, Note_on_c, 12, 62, 76
15, 415251, Note_on_c, 12, 65, 0
15, 415251, Note_on_c, 12, 62, 0
15, 415260, Note_on_c, 12, 65, 76
15, 415260, Note_on_c, 12, 62, 76
15, 415280, Control_c, 12, 11, 76
15, 415311, Note_on_c, 12, 65, 0
15, 415311, Note_on_c, 12, 62, 0
15, 415320, Note_on_c, 12, 65, 76
15, 415320, Note_on_c, 12, 62, 76
15, 415360, Control_c, 12, 11, 78
15, 415371, Note_on_c, 12, 65, 0
15, 415371, Note_on_c, 12, 62, 0
15, 415380, Note_on_c, 12, 65, 76
15, 415380, Note_on_c, 12, 62, 76
15, 415431, Note_on_c, 12, 65, 0
15, 415431, Note_on_c, 12, 62, 0
15, 415440, Control_c, 12, 11, 80
15, 415440, Note_on_c, 12, 62, 76
15, 415440, Note_on_c, 12, 65, 76
15, 415491, Note_on_c, 12, 62, 0
15, 415491, Note_on_c, 12, 65, 0
15, 415500, Note_on_c, 12, 65, 76
15, 415500, Note_on_c, 12, 62, 76
15, 415520, Control_c, 12, 11, 82
15, 415551, Note_on_c, 12, 65, 0
15, 415551, Note_on_c, 12, 62, 0
15, 415560, Note_on_c, 12, 65, 76
15, 415560, Note_on_c, 12, 62, 76
15, 415600, Control_c, 12, 11, 83
15, 415611, Note_on_c, 12, 65, 0
15, 415611, Note_on_c, 12, 62, 0
15, 415620, Note_on_c, 12, 62, 76
15, 415620, Note_on_c, 12, 65, 76
15, 415671, Note_on_c, 12, 62, 0
15, 415671, Note_on_c, 12, 65, 0
15, 415680, Control_c, 12, 11, 85
15, 415680, Note_on_c, 12, 62, 76
15, 415680, Note_on_c, 12, 65, 76
15, 415731, Note_on_c, 12, 62, 0
15, 415731, Note_on_c, 12, 65, 0
15, 415740, Note_on_c, 12, 62, 76
15, 415740, Note_on_c, 12, 65, 76
15, 415760, Control_c, 12, 11, 87
15, 415791, Note_on_c, 12, 62, 0
15, 415791, Note_on_c, 12, 65, 0
15, 415800, Note_on_c, 12, 62, 76
15, 415800, Note_on_c, 12, 65, 76
15, 415840, Control_c, 12, 11, 89
15, 415851, Note_on_c, 12, 62, 0
15, 415851, Note_on_c, 12, 65, 0
15, 415860, Note_on_c, 12, 65, 76
15, 415860, Note_on_c, 12, 62, 76
15, 415911, Note_on_c, 12, 65, 0
15, 415911, Note_on_c, 12, 62, 0
15, 415920, Control_c, 12, 11, 90
15, 415920, Note_on_c, 12, 62, 76
15, 415920, Note_on_c, 12, 65, 76
15, 415971, Note_on_c, 12, 62, 0
15, 415971, Note_on_c, 12, 65, 0
15, 415980, Note_on_c, 12, 65, 76
15, 415980, Note_on_c, 12, 62, 76
15, 416000, Control_c, 12, 11, 92
15, 416031, Note_on_c, 12, 65, 0
15, 416031, Note_on_c, 12, 62, 0
15, 416040, Note_on_c, 12, 62, 76
15, 416040, Note_on_c, 12, 65, 76
15, 416080, Control_c, 12, 11, 94
15, 416091, Note_on_c, 12, 62, 0
15, 416091, Note_on_c, 12, 65, 0
15, 416100, Note_on_c, 12, 62, 76
15, 416100, Note_on_c, 12, 65, 76
15, 416151, Note_on_c, 12, 62, 0
15, 416151, Note_on_c, 12, 65, 0
15, 416160, Control_c, 12, 11, 96
15, 416160, Note_on_c, 12, 65, 76
15, 416160, Note_on_c, 12, 62, 76
15, 416211, Note_on_c, 12, 65, 0
15, 416211, Note_on_c, 12, 62, 0
15, 416220, Note_on_c, 12, 65, 76
15, 416220, Note_on_c, 12, 62, 76
15, 416240, Control_c, 12, 11, 97
15, 416271, Note_on_c, 12, 65, 0
15, 416271, Note_on_c, 12, 62, 0
15, 416280, Note_on_c, 12, 62, 76
15, 416280, Note_on_c, 12, 65, 76
15, 416320, Control_c, 12, 11, 99
15, 416331, Note_on_c, 12, 62, 0
15, 416331, Note_on_c, 12, 65, 0
15, 416340, Note_on_c, 12, 62, 76
15, 416340, Note_on_c, 12, 65, 76
15, 416391, Note_on_c, 12, 62, 0
15, 416391, Note_on_c, 12, 65, 0
15, 416400, Note_on_c, 12, 62, 76
15, 416400, Note_on_c, 12, 65, 76
15, 416400, Control_c, 12, 11, 101
15, 416451, Note_on_c, 12, 62, 0
15, 416451, Note_on_c, 12, 65, 0
15, 416460, Note_on_c, 12, 65, 76
15, 416460, Note_on_c, 12, 62, 76
15, 416480, Control_c, 12, 11, 103
15, 416511, Note_on_c, 12, 65, 0
15, 416511, Note_on_c, 12, 62, 0
15, 416520, Note_on_c, 12, 65, 76
15, 416520, Note_on_c, 12, 62, 76
15, 416560, Control_c, 12, 11, 104
15, 416571, Note_on_c, 12, 65, 0
15, 416571, Note_on_c, 12, 62, 0
15, 416580, Note_on_c, 12, 62, 76
15, 416580, Note_on_c, 12, 65, 76
15, 416631, Note_on_c, 12, 62, 0
15, 416631, Note_on_c, 12, 65, 0
15, 416640, Control_c, 12, 11, 106
15, 416640, Note_on_c, 12, 68, 76
15, 416691, Note_on_c, 12, 68, 0
15, 416700, Note_on_c, 12, 68, 76
15, 416720, Control_c, 12, 11, 108
15, 416751, Note_on_c, 12, 68, 0
15, 416760, Note_on_c, 12, 67, 76
15, 416800, Control_c, 12, 11, 110
15, 416811, Note_on_c, 12, 67, 0
15, 416820, Note_on_c, 12, 67, 76
15, 416871, Note_on_c, 12, 67, 0
15, 416880, Control_c, 12, 11, 111
15, 416880, Note_on_c, 12, 65, 76
15, 416931, Note_on_c, 12, 65, 0
15, 416940, Note_on_c, 12, 65, 76
15, 416960, Control_c, 12, 11, 113
15, 416991, Note_on_c, 12, 65, 0
15, 417000, Note_on_c, 12, 63, 76
15, 417040, Control_c, 12, 11, 115
15, 417051, Note_on_c, 12, 63, 0
15, 417060, Note_on_c, 12, 63, 76
15, 417111, Note_on_c, 12, 63, 0
15, 417120, Control_c, 12, 11, 117
15, 417120, Note_on_c, 12, 62, 76
15, 417171, Note_on_c, 12, 62, 0
15, 417180, Note_on_c, 12, 62, 76
15, 417200, Control_c, 12, 11, 118
15, 417231, Note_on_c, 12, 62, 0
15, 417240, Note_on_c, 12, 63, 76
15, 417280, Control_c, 12, 11, 120
15, 417291, Note_on_c, 12, 63, 0
15, 417300, Note_on_c, 12, 63, 76
15, 417351, Note_on_c, 12, 63, 0
15, 417360, Control_c, 12, 11, 122
15, 417360, Note_on_c, 12, 65, 76
15, 417411, Note_on_c, 12, 65, 0
15, 417420, Note_on_c, 12, 65, 76
15, 417440, Control_c, 12, 11, 124
15, 417471, Note_on_c, 12, 65, 0
15, 417480, Note_on_c, 12, 68, 76
15, 417520, Control_c, 12, 11, 127
15, 417531, Note_on_c, 12, 68, 0
15, 417540, Note_on_c, 12, 68, 76
15, 417591, Note_on_c, 12, 68, 0
15, 417600, Note_on_c, 12, 67, 76
15, 417651, Note_on_c, 12, 67, 0
15, 417660, Note_on_c, 12, 63, 76
15, 417711, Note_on_c, 12, 63, 0
15, 417720, Note_on_c, 12, 63, 76
15, 417771, Note_on_c, 12, 63, 0
15, 417780, Note_on_c, 12, 63, 76
15, 417831, Note_on_c, 12, 63, 0
15, 417840, Note_on_c, 12, 63, 76
15, 417891, Note_on_c, 12, 63, 0
15, 417900, Note_on_c, 12, 63, 76
15, 417951, Note_on_c, 12, 63, 0
15, 417960, Note_on_c, 12, 63, 76
15, 418011, Note_on_c, 12, 63, 0
15, 418020, Note_on_c, 12, 63, 76
15, 418071, Note_on_c, 12, 63, 0
15, 418080, Note_on_c, 12, 67, 76
15, 418131, Note_on_c, 12, 67, 0
15, 418140, Note_on_c, 12, 67, 76
15, 418191, Note_on_c, 12, 67, 0
15, 418200, Note_on_c, 12, 67, 76
15, 418251, Note_on_c, 12, 67, 0
15, 418260, Note_on_c, 12, 67, 76
15, 418311, Note_on_c, 12, 67, 0
15, 418320, Note_on_c, 12, 63, 76
15, 418371, Note_on_c, 12, 63, 0
15, 418380, Note_on_c, 12, 63, 76
15, 418431, Note_on_c, 12, 63, 0
15, 418440, Note_on_c, 12, 63, 76
15, 418491, Note_on_c, 12, 63, 0
15, 418500, Note_on_c, 12, 63, 76
15, 418551, Note_on_c, 12, 63, 0
15, 418560, Note_on_c, 12, 63, 76
15, 418611, Note_on_c, 12, 63, 0
15, 418620, Note_on_c, 12, 63, 76
15, 418671, Note_on_c, 12, 63, 0
15, 418680, Note_on_c, 12, 63, 76
15, 418731, Note_on_c, 12, 63, 0
15, 418740, Note_on_c, 12, 63, 76
15, 418791, Note_on_c, 12, 63, 0
15, 418800, Note_on_c, 12, 58, 76
15, 418851, Note_on_c, 12, 58, 0
15, 418860, Note_on_c, 12, 58, 76
15, 418911, Note_on_c, 12, 58, 0
15, 418920, Note_on_c, 12, 58, 76
15, 418971, Note_on_c, 12, 58, 0
15, 418980, Note_on_c, 12, 58, 76
15, 419031, Note_on_c, 12, 58, 0
15, 419040, Note_on_c, 12, 63, 76
15, 419091, Note_on_c, 12, 63, 0
15, 419100, Note_on_c, 12, 63, 76
15, 419151, Note_on_c, 12, 63, 0
15, 419160, Note_on_c, 12, 63, 76
15, 419211, Note_on_c, 12, 63, 0
15, 419220, Note_on_c, 12, 63, 76
15, 419271, Note_on_c, 12, 63, 0
15, 419280, Note_on_c, 12, 67, 76
15, 419331, Note_on_c, 12, 67, 0
15, 419340, Note_on_c, 12, 67, 76
15, 419391, Note_on_c, 12, 67, 0
15, 419400, Note_on_c, 12, 67, 76
15, 419451, Note_on_c, 12, 67, 0
15, 419460, Note_on_c, 12, 67, 76
15, 419511, Note_on_c, 12, 67, 0
15, 419520, Note_on_c, 12, 70, 76
15, 419571, Note_on_c, 12, 70, 0
15, 419580, Note_on_c, 12, 70, 76
15, 419631, Note_on_c, 12, 70, 0
15, 419640, Note_on_c, 12, 70, 76
15, 419691, Note_on_c, 12, 70, 0
15, 419700, Note_on_c, 12, 70, 76
15, 419751, Note_on_c, 12, 70, 0
15, 419760, Note_on_c, 12, 63, 76
15, 419811, Note_on_c, 12, 63, 0
15, 419820, Note_on_c, 12, 63, 76
15, 419871, Note_on_c, 12, 63, 0
15, 419880, Note_on_c, 12, 63, 76
15, 419931, Note_on_c, 12, 63, 0
15, 419940, Note_on_c, 12, 63, 76
15, 419991, Note_on_c, 12, 63, 0
15, 420000, Note_on_c, 12, 63, 76
15, 420051, Note_on_c, 12, 63, 0
15, 420060, Note_on_c, 12, 63, 76
15, 420111, Note_on_c, 12, 63, 0
15, 420120, Note_on_c, 12, 63, 76
15, 420171, Note_on_c, 12, 63, 0
15, 420180, Note_on_c, 12, 63, 76
15, 420231, Note_on_c, 12, 63, 0
15, 420240, Note_on_c, 12, 64, 84
15, 420291, Note_on_c, 12, 64, 0
15, 420300, Note_on_c, 12, 64, 76
15, 420351, Note_on_c, 12, 64, 0
15, 420360, Note_on_c, 12, 64, 76
15, 420411, Note_on_c, 12, 64, 0
15, 420420, Note_on_c, 12, 64, 76
15, 420471, Note_on_c, 12, 64, 0
15, 420480, Note_on_c, 12, 65, 76
15, 420531, Note_on_c, 12, 65, 0
15, 420540, Note_on_c, 12, 65, 76
15, 420591, Note_on_c, 12, 65, 0
15, 420600, Note_on_c, 12, 65, 76
15, 420651, Note_on_c, 12, 65, 0
15, 420660, Note_on_c, 12, 65, 76
15, 420711, Note_on_c, 12, 65, 0
15, 420720, Note_on_c, 12, 68, 76
15, 420771, Note_on_c, 12, 68, 0
15, 420780, Note_on_c, 12, 68, 76
15, 420831, Note_on_c, 12, 68, 0
15, 420840, Note_on_c, 12, 68, 76
15, 420891, Note_on_c, 12, 68, 0
15, 420900, Note_on_c, 12, 68, 76
15, 420951, Note_on_c, 12, 68, 0
15, 420960, Note_on_c, 12, 72, 76
15, 421011, Note_on_c, 12, 72, 0
15, 421020, Note_on_c, 12, 72, 76
15, 421071, Note_on_c, 12, 72, 0
15, 421080, Note_on_c, 12, 72, 76
15, 421131, Note_on_c, 12, 72, 0
15, 421140, Note_on_c, 12, 72, 76
15, 421191, Note_on_c, 12, 72, 0
15, 421200, Note_on_c, 12, 65, 76
15, 421251, Note_on_c, 12, 65, 0
15, 421260, Note_on_c, 12, 65, 76
15, 421311, Note_on_c, 12, 65, 0
15, 421320, Note_on_c, 12, 65, 76
15, 421371, Note_on_c, 12, 65, 0
15, 421380, Note_on_c, 12, 65, 76
15, 421431, Note_on_c, 12, 65, 0
15, 421440, Note_on_c, 12, 65, 76
15, 421491, Note_on_c, 12, 65, 0
15, 421500, Note_on_c, 12, 65, 76
15, 421551, Note_on_c, 12, 65, 0
15, 421560, Note_on_c, 12, 65, 76
15, 421611, Note_on_c, 12, 65, 0
15, 421620, Note_on_c, 12, 65, 76
15, 421671, Note_on_c, 12, 65, 0
15, 421680, Note_on_c, 12, 66, 84
15, 421731, Note_on_c, 12, 66, 0
15, 421740, Note_on_c, 12, 66, 76
15, 421791, Note_on_c, 12, 66, 0
15, 421800, Note_on_c, 12, 66, 76
15, 421851, Note_on_c, 12, 66, 0
15, 421860, Note_on_c, 12, 66, 76
15, 421911, Note_on_c, 12, 66, 0
15, 421920, Note_on_c, 12, 67, 80
15, 421971, Note_on_c, 12, 67, 0
15, 421980, Note_on_c, 12, 67, 80
15, 422031, Note_on_c, 12, 67, 0
15, 422040, Note_on_c, 12, 67, 80
15, 422091, Note_on_c, 12, 67, 0
15, 422100, Note_on_c, 12, 67, 80
15, 422151, Note_on_c, 12, 67, 0
15, 422160, Note_on_c, 12, 70, 80
15, 422211, Note_on_c, 12, 70, 0
15, 422220, Note_on_c, 12, 70, 80
15, 422271, Note_on_c, 12, 70, 0
15, 422280, Note_on_c, 12, 70, 80
15, 422331, Note_on_c, 12, 70, 0
15, 422340, Note_on_c, 12, 70, 80
15, 422391, Note_on_c, 12, 70, 0
15, 422400, Note_on_c, 12, 73, 80
15, 422451, Note_on_c, 12, 73, 0
15, 422460, Note_on_c, 12, 73, 80
15, 422511, Note_on_c, 12, 73, 0
15, 422520, Note_on_c, 12, 73, 80
15, 422571, Note_on_c, 12, 73, 0
15, 422580, Note_on_c, 12, 73, 80
15, 422631, Note_on_c, 12, 73, 0
15, 422640, Note_on_c, 12, 68, 80
15, 422691, Note_on_c, 12, 68, 0
15, 422700, Note_on_c, 12, 68, 80
15, 422751, Note_on_c, 12, 68, 0
15, 422760, Note_on_c, 12, 68, 80
15, 422811, Note_on_c, 12, 68, 0
15, 422820, Note_on_c, 12, 68, 80
15, 422871, Note_on_c, 12, 68, 0
15, 422880, Note_on_c, 12, 72, 80
15, 422931, Note_on_c, 12, 72, 0
15, 422940, Note_on_c, 12, 72, 80
15, 422991, Note_on_c, 12, 72, 0
15, 423000, Note_on_c, 12, 72, 80
15, 423051, Note_on_c, 12, 72, 0
15, 423060, Note_on_c, 12, 72, 80
15, 423111, Note_on_c, 12, 72, 0
15, 423120, Note_on_c, 12, 75, 80
15, 423171, Note_on_c, 12, 75, 0
15, 423180, Note_on_c, 12, 75, 80
15, 423231, Note_on_c, 12, 75, 0
15, 423240, Note_on_c, 12, 75, 80
15, 423291, Note_on_c, 12, 75, 0
15, 423300, Note_on_c, 12, 75, 80
15, 423351, Note_on_c, 12, 75, 0
15, 423360, Note_on_c, 12, 68, 80
15, 423411, Note_on_c, 12, 68, 0
15, 423420, Note_on_c, 12, 68, 80
15, 423471, Note_on_c, 12, 68, 0
15, 423480, Note_on_c, 12, 68, 80
15, 423531, Note_on_c, 12, 68, 0
15, 423540, Note_on_c, 12, 68, 80
15, 423591, Note_on_c, 12, 68, 0
15, 423600, Note_on_c, 12, 74, 80
15, 423651, Note_on_c, 12, 74, 0
15, 423660, Note_on_c, 12, 74, 80
15, 423711, Note_on_c, 12, 74, 0
15, 423720, Note_on_c, 12, 74, 80
15, 423771, Note_on_c, 12, 74, 0
15, 423780, Note_on_c, 12, 74, 80
15, 423831, Note_on_c, 12, 74, 0
15, 423840, Note_on_c, 12, 77, 80
15, 423891, Note_on_c, 12, 77, 0
15, 423900, Note_on_c, 12, 77, 80
15, 423951, Note_on_c, 12, 77, 0
15, 423960, Note_on_c, 12, 77, 80
15, 424011, Note_on_c, 12, 77, 0
15, 424020, Note_on_c, 12, 77, 80
15, 424071, Note_on_c, 12, 77, 0
15, 424080, Note_on_c, 12, 80, 80
15, 424131, Note_on_c, 12, 80, 0
15, 424140, Note_on_c, 12, 80, 80
15, 424191, Note_on_c, 12, 80, 0
15, 424200, Note_on_c, 12, 80, 80
15, 424251, Note_on_c, 12, 80, 0
15, 424260, Note_on_c, 12, 80, 80
15, 424311, Note_on_c, 12, 80, 0
15, 424320, Note_on_c, 12, 80, 80
15, 424371, Note_on_c, 12, 80, 0
15, 424380, Note_on_c, 12, 80, 80
15, 424431, Note_on_c, 12, 80, 0
15, 424440, Note_on_c, 12, 80, 80
15, 424491, Note_on_c, 12, 80, 0
15, 424500, Note_on_c, 12, 80, 80
15, 424551, Note_on_c, 12, 80, 0
15, 424560, Note_on_c, 12, 80, 80
15, 424611, Note_on_c, 12, 80, 0
15, 424620, Note_on_c, 12, 80, 80
15, 424671, Note_on_c, 12, 80, 0
15, 424680, Note_on_c, 12, 80, 80
15, 424731, Note_on_c, 12, 80, 0
15, 424740, Note_on_c, 12, 80, 80
15, 424791, Note_on_c, 12, 80, 0
15, 424800, Note_on_c, 12, 79, 84
15, 424851, Note_on_c, 12, 79, 0
15, 424860, Note_on_c, 12, 75, 84
15, 424860, Note_on_c, 12, 87, 84
15, 424911, Note_on_c, 12, 75, 0
15, 424911, Note_on_c, 12, 87, 0
15, 424920, Note_on_c, 12, 87, 84
15, 424920, Note_on_c, 12, 75, 84
15, 424971, Note_on_c, 12, 87, 0
15, 424971, Note_on_c, 12, 75, 0
15, 424980, Note_on_c, 12, 75, 84
15, 424980, Note_on_c, 12, 87, 84
15, 425031, Note_on_c, 12, 75, 0
15, 425031, Note_on_c, 12, 87, 0
15, 425040, Note_on_c, 12, 87, 84
15, 425040, Note_on_c, 12, 75, 84
15, 425091, Note_on_c, 12, 87, 0
15, 425091, Note_on_c, 12, 75, 0
15, 425100, Note_on_c, 12, 75, 84
15, 425100, Note_on_c, 12, 87, 84
15, 425151, Note_on_c, 12, 75, 0
15, 425151, Note_on_c, 12, 87, 0
15, 425160, Note_on_c, 12, 87, 84
15, 425160, Note_on_c, 12, 75, 84
15, 425211, Note_on_c, 12, 87, 0
15, 425211, Note_on_c, 12, 75, 0
15, 425220, Note_on_c, 12, 75, 84
15, 425220, Note_on_c, 12, 87, 84
15, 425271, Note_on_c, 12, 75, 0
15, 425271, Note_on_c, 12, 87, 0
15, 425280, Note_on_c, 12, 75, 92
15, 425280, Note_on_c, 12, 87, 92
15, 425331, Note_on_c, 12, 75, 0
15, 425331, Note_on_c, 12, 87, 0
15, 425340, Note_on_c, 12, 75, 84
15, 425340, Note_on_c, 12, 87, 84
15, 425391, Note_on_c, 12, 75, 0
15, 425391, Note_on_c, 12, 87, 0
15, 425400, Note_on_c, 12, 87, 84
15, 425400, Note_on_c, 12, 75, 84
15, 425451, Note_on_c, 12, 87, 0
15, 425451, Note_on_c, 12, 75, 0
15, 425460, Note_on_c, 12, 75, 84
15, 425460, Note_on_c, 12, 87, 84
15, 425511, Note_on_c, 12, 75, 0
15, 425511, Note_on_c, 12, 87, 0
15, 425520, Note_on_c, 12, 87, 84
15, 425520, Note_on_c, 12, 75, 84
15, 425571, Note_on_c, 12, 87, 0
15, 425571, Note_on_c, 12, 75, 0
15, 425580, Note_on_c, 12, 87, 84
15, 425580, Note_on_c, 12, 75, 84
15, 425631, Note_on_c, 12, 87, 0
15, 425631, Note_on_c, 12, 75, 0
15, 425640, Note_on_c, 12, 75, 84
15, 425640, Note_on_c, 12, 87, 84
15, 425691, Note_on_c, 12, 75, 0
15, 425691, Note_on_c, 12, 87, 0
15, 425700, Note_on_c, 12, 87, 84
15, 425700, Note_on_c, 12, 75, 84
15, 425751, Note_on_c, 12, 87, 0
15, 425751, Note_on_c, 12, 75, 0
15, 425760, Note_on_c, 12, 87, 84
15, 425760, Note_on_c, 12, 75, 84
15, 425811, Note_on_c, 12, 87, 0
15, 425811, Note_on_c, 12, 75, 0
15, 425820, Note_on_c, 12, 75, 84
15, 425820, Note_on_c, 12, 87, 84
15, 425871, Note_on_c, 12, 75, 0
15, 425871, Note_on_c, 12, 87, 0
15, 425880, Note_on_c, 12, 75, 84
15, 425880, Note_on_c, 12, 87, 84
15, 425931, Note_on_c, 12, 75, 0
15, 425931, Note_on_c, 12, 87, 0
15, 425940, Note_on_c, 12, 87, 84
15, 425940, Note_on_c, 12, 75, 84
15, 425991, Note_on_c, 12, 87, 0
15, 425991, Note_on_c, 12, 75, 0
15, 426000, Note_on_c, 12, 75, 92
15, 426000, Note_on_c, 12, 87, 92
15, 426051, Note_on_c, 12, 75, 0
15, 426051, Note_on_c, 12, 87, 0
15, 426060, Note_on_c, 12, 87, 84
15, 426060, Note_on_c, 12, 75, 84
15, 426111, Note_on_c, 12, 87, 0
15, 426111, Note_on_c, 12, 75, 0
15, 426120, Note_on_c, 12, 87, 84
15, 426120, Note_on_c, 12, 75, 84
15, 426171, Note_on_c, 12, 87, 0
15, 426171, Note_on_c, 12, 75, 0
15, 426180, Note_on_c, 12, 75, 84
15, 426180, Note_on_c, 12, 87, 84
15, 426231, Note_on_c, 12, 75, 0
15, 426231, Note_on_c, 12, 87, 0
15, 426240, Note_on_c, 12, 75, 84
15, 426240, Note_on_c, 12, 87, 84
15, 426291, Note_on_c, 12, 75, 0
15, 426291, Note_on_c, 12, 87, 0
15, 426300, Note_on_c, 12, 75, 84
15, 426300, Note_on_c, 12, 87, 84
15, 426351, Note_on_c, 12, 75, 0
15, 426351, Note_on_c, 12, 87, 0
15, 426360, Note_on_c, 12, 75, 84
15, 426360, Note_on_c, 12, 87, 84
15, 426411, Note_on_c, 12, 75, 0
15, 426411, Note_on_c, 12, 87, 0
15, 426420, Note_on_c, 12, 75, 84
15, 426420, Note_on_c, 12, 87, 84
15, 426471, Note_on_c, 12, 75, 0
15, 426471, Note_on_c, 12, 87, 0
15, 426480, Note_on_c, 12, 75, 84
15, 426480, Note_on_c, 12, 87, 84
15, 426531, Note_on_c, 12, 75, 0
15, 426531, Note_on_c, 12, 87, 0
15, 426540, Note_on_c, 12, 87, 84
15, 426540, Note_on_c, 12, 75, 84
15, 426591, Note_on_c, 12, 87, 0
15, 426591, Note_on_c, 12, 75, 0
15, 426600, Note_on_c, 12, 87, 84
15, 426600, Note_on_c, 12, 75, 84
15, 426651, Note_on_c, 12, 87, 0
15, 426651, Note_on_c, 12, 75, 0
15, 426660, Note_on_c, 12, 87, 84
15, 426660, Note_on_c, 12, 75, 84
15, 426711, Note_on_c, 12, 87, 0
15, 426711, Note_on_c, 12, 75, 0
15, 426720, Note_on_c, 12, 75, 84
15, 426720, Note_on_c, 12, 87, 84
15, 426771, Note_on_c, 12, 75, 0
15, 426771, Note_on_c, 12, 87, 0
15, 426780, Note_on_c, 12, 87, 84
15, 426780, Note_on_c, 12, 75, 84
15, 426831, Note_on_c, 12, 87, 0
15, 426831, Note_on_c, 12, 75, 0
15, 426840, Note_on_c, 12, 87, 84
15, 426840, Note_on_c, 12, 75, 84
15, 426891, Note_on_c, 12, 87, 0
15, 426891, Note_on_c, 12, 75, 0
15, 426900, Note_on_c, 12, 75, 84
15, 426900, Note_on_c, 12, 87, 84
15, 426951, Note_on_c, 12, 75, 0
15, 426951, Note_on_c, 12, 87, 0
15, 426960, Note_on_c, 12, 75, 84
15, 426960, Note_on_c, 12, 87, 84
15, 427011, Note_on_c, 12, 75, 0
15, 427011, Note_on_c, 12, 87, 0
15, 427020, Note_on_c, 12, 87, 84
15, 427020, Note_on_c, 12, 75, 84
15, 427071, Note_on_c, 12, 87, 0
15, 427071, Note_on_c, 12, 75, 0
15, 427080, Note_on_c, 12, 75, 84
15, 427080, Note_on_c, 12, 87, 84
15, 427131, Note_on_c, 12, 75, 0
15, 427131, Note_on_c, 12, 87, 0
15, 427140, Note_on_c, 12, 75, 84
15, 427140, Note_on_c, 12, 87, 84
15, 427191, Note_on_c, 12, 75, 0
15, 427191, Note_on_c, 12, 87, 0
15, 427200, Note_on_c, 12, 87, 84
15, 427200, Note_on_c, 12, 75, 84
15, 427251, Note_on_c, 12, 87, 0
15, 427251, Note_on_c, 12, 75, 0
15, 427260, Note_on_c, 12, 87, 84
15, 427260, Note_on_c, 12, 75, 84
15, 427311, Note_on_c, 12, 87, 0
15, 427311, Note_on_c, 12, 75, 0
15, 427320, Note_on_c, 12, 75, 84
15, 427320, Note_on_c, 12, 87, 84
15, 427371, Note_on_c, 12, 75, 0
15, 427371, Note_on_c, 12, 87, 0
15, 427380, Note_on_c, 12, 75, 84
15, 427380, Note_on_c, 12, 87, 84
15, 427431, Note_on_c, 12, 75, 0
15, 427431, Note_on_c, 12, 87, 0
15, 427440, Note_on_c, 12, 87, 92
15, 427440, Note_on_c, 12, 75, 92
15, 427491, Note_on_c, 12, 87, 0
15, 427491, Note_on_c, 12, 75, 0
15, 427500, Note_on_c, 12, 87, 84
15, 427500, Note_on_c, 12, 75, 84
15, 427551, Note_on_c, 12, 87, 0
15, 427551, Note_on_c, 12, 75, 0
15, 427560, Note_on_c, 12, 75, 84
15, 427560, Note_on_c, 12, 87, 84
15, 427611, Note_on_c, 12, 75, 0
15, 427611, Note_on_c, 12, 87, 0
15, 427620, Note_on_c, 12, 87, 84
15, 427620, Note_on_c, 12, 75, 84
15, 427671, Note_on_c, 12, 87, 0
15, 427671, Note_on_c, 12, 75, 0
15, 427680, Note_on_c, 12, 75, 84
15, 427680, Note_on_c, 12, 87, 84
15, 427731, Note_on_c, 12, 75, 0
15, 427731, Note_on_c, 12, 87, 0
15, 427740, Note_on_c, 12, 87, 84
15, 427740, Note_on_c, 12, 75, 84
15, 427791, Note_on_c, 12, 87, 0
15, 427791, Note_on_c, 12, 75, 0
15, 427800, Note_on_c, 12, 87, 84
15, 427800, Note_on_c, 12, 75, 84
15, 427851, Note_on_c, 12, 87, 0
15, 427851, Note_on_c, 12, 75, 0
15, 427860, Note_on_c, 12, 75, 84
15, 427860, Note_on_c, 12, 87, 84
15, 427911, Note_on_c, 12, 75, 0
15, 427911, Note_on_c, 12, 87, 0
15, 427920, Note_on_c, 12, 87, 84
15, 427920, Note_on_c, 12, 75, 84
15, 427971, Note_on_c, 12, 87, 0
15, 427971, Note_on_c, 12, 75, 0
15, 427980, Note_on_c, 12, 75, 84
15, 427980, Note_on_c, 12, 87, 84
15, 428031, Note_on_c, 12, 75, 0
15, 428031, Note_on_c, 12, 87, 0
15, 428040, Note_on_c, 12, 87, 84
15, 428040, Note_on_c, 12, 75, 84
15, 428091, Note_on_c, 12, 87, 0
15, 428091, Note_on_c, 12, 75, 0
15, 428100, Note_on_c, 12, 75, 84
15, 428100, Note_on_c, 12, 87, 84
15, 428151, Note_on_c, 12, 75, 0
15, 428151, Note_on_c, 12, 87, 0
15, 428160, Note_on_c, 12, 75, 84
15, 428160, Note_on_c, 12, 87, 84
15, 428211, Note_on_c, 12, 75, 0
15, 428211, Note_on_c, 12, 87, 0
15, 428220, Note_on_c, 12, 75, 84
15, 428220, Note_on_c, 12, 87, 84
15, 428271, Note_on_c, 12, 75, 0
15, 428271, Note_on_c, 12, 87, 0
15, 428280, Note_on_c, 12, 75, 84
15, 428280, Note_on_c, 12, 87, 84
15, 428331, Note_on_c, 12, 75, 0
15, 428331, Note_on_c, 12, 87, 0
15, 428340, Note_on_c, 12, 75, 84
15, 428340, Note_on_c, 12, 87, 84
15, 428391, Note_on_c, 12, 75, 0
15, 428391, Note_on_c, 12, 87, 0
15, 428400, Note_on_c, 12, 87, 84
15, 428451, Note_on_c, 12, 87, 0
15, 428460, Note_on_c, 12, 75, 84
15, 428511, Note_on_c, 12, 75, 0
15, 428520, Note_on_c, 12, 75, 84
15, 428571, Note_on_c, 12, 75, 0
15, 428580, Note_on_c, 12, 75, 84
15, 428631, Note_on_c, 12, 75, 0
15, 428640, Note_on_c, 12, 75, 84
15, 428691, Note_on_c, 12, 75, 0
15, 428700, Note_on_c, 12, 75, 84
15, 428751, Note_on_c, 12, 75, 0
15, 428760, Note_on_c, 12, 75, 84
15, 428811, Note_on_c, 12, 75, 0
15, 428820, Note_on_c, 12, 75, 84
15, 428871, Note_on_c, 12, 75, 0
15, 428880, Note_on_c, 12, 76, 92
15, 428931, Note_on_c, 12, 76, 0
15, 428940, Note_on_c, 12, 76, 84
15, 428991, Note_on_c, 12, 76, 0
15, 429000, Note_on_c, 12, 76, 84
15, 429051, Note_on_c, 12, 76, 0
15, 429060, Note_on_c, 12, 76, 84
15, 429111, Note_on_c, 12, 76, 0
15, 429120, Note_on_c, 12, 79, 84
15, 429171, Note_on_c, 12, 79, 0
15, 429180, Note_on_c, 12, 79, 84
15, 429231, Note_on_c, 12, 79, 0
15, 429240, Note_on_c, 12, 77, 84
15, 429291, Note_on_c, 12, 77, 0
15, 429300, Note_on_c, 12, 77, 84
15, 429351, Note_on_c, 12, 77, 0
15, 429360, Note_on_c, 12, 76, 84
15, 429411, Note_on_c, 12, 76, 0
15, 429420, Note_on_c, 12, 76, 84
15, 429471, Note_on_c, 12, 76, 0
15, 429480, Note_on_c, 12, 77, 84
15, 429531, Note_on_c, 12, 77, 0
15, 429540, Note_on_c, 12, 77, 84
15, 429591, Note_on_c, 12, 77, 0
15, 429600, Note_on_c, 12, 79, 84
15, 429651, Note_on_c, 12, 79, 0
15, 429660, Note_on_c, 12, 79, 84
15, 429711, Note_on_c, 12, 79, 0
15, 429720, Note_on_c, 12, 77, 84
15, 429771, Note_on_c, 12, 77, 0
15, 429780, Note_on_c, 12, 77, 84
15, 429831, Note_on_c, 12, 77, 0
15, 429840, Note_on_c, 12, 77, 84
15, 429891, Note_on_c, 12, 77, 0
15, 429900, Note_on_c, 12, 77, 84
15, 429951, Note_on_c, 12, 77, 0
15, 429960, Note_on_c, 12, 75, 84
15, 430011, Note_on_c, 12, 75, 0
15, 430020, Note_on_c, 12, 75, 84
15, 430071, Note_on_c, 12, 75, 0
15, 430080, Note_on_c, 12, 74, 84
15, 430131, Note_on_c, 12, 74, 0
15, 430140, Note_on_c, 12, 74, 84
15, 430191, Note_on_c, 12, 74, 0
15, 430200, Note_on_c, 12, 75, 84
15, 430251, Note_on_c, 12, 75, 0
15, 430260, Note_on_c, 12, 75, 84
15, 430311, Note_on_c, 12, 75, 0
15, 430320, Note_on_c, 12, 77, 84
15, 430371, Note_on_c, 12, 77, 0
15, 430380, Note_on_c, 12, 77, 84
15, 430431, Note_on_c, 12, 77, 0
15, 430440, Note_on_c, 12, 75, 84
15, 430491, Note_on_c, 12, 75, 0
15, 430500, Note_on_c, 12, 75, 84
15, 430551, Note_on_c, 12, 75, 0
15, 430560, Note_on_c, 12, 74, 52
15, 430649, Note_on_c, 12, 74, 0
15, 430680, Note_on_c, 12, 70, 52
15, 430799, Note_on_c, 12, 70, 0
15, 430800, Note_on_c, 12, 65, 52
15, 430919, Note_on_c, 12, 65, 0
15, 430920, Note_on_c, 12, 70, 52
15, 431039, Note_on_c, 12, 70, 0
15, 431040, Note_on_c, 12, 65, 52
15, 431159, Note_on_c, 12, 65, 0
15, 431160, Note_on_c, 12, 70, 52
15, 431264, Note_on_c, 12, 70, 0
15, 431280, Note_on_c, 12, 65, 52
15, 431399, Note_on_c, 12, 65, 0
15, 431400, Note_on_c, 12, 70, 52
15, 431519, Note_on_c, 12, 70, 0
15, 431520, Note_on_c, 12, 65, 52
15, 431639, Note_on_c, 12, 65, 0
15, 431640, Note_on_c, 12, 70, 52
15, 431759, Note_on_c, 12, 70, 0
15, 431760, Note_on_c, 12, 65, 52
15, 431879, Note_on_c, 12, 65, 0
15, 431880, Note_on_c, 12, 70, 52
15, 431984, Note_on_c, 12, 70, 0
15, 432000, Note_on_c, 12, 65, 52
15, 432119, Note_on_c, 12, 65, 0
15, 432120, Note_on_c, 12, 70, 52
15, 432239, Note_on_c, 12, 70, 0
15, 432240, Note_on_c, 12, 65, 52
15, 432359, Note_on_c, 12, 65, 0
15, 432360, Note_on_c, 12, 70, 52
15, 432479, Note_on_c, 12, 70, 0
15, 432480, Note_on_c, 12, 65, 52
15, 432599, Note_on_c, 12, 65, 0
15, 432600, Note_on_c, 12, 70, 52
15, 432704, Note_on_c, 12, 70, 0
15, 432720, Note_on_c, 12, 65, 52
15, 432839, Note_on_c, 12, 65, 0
15, 432840, Note_on_c, 12, 70, 52
15, 432959, Note_on_c, 12, 70, 0
15, 432960, Note_on_c, 12, 68, 52
15, 433079, Note_on_c, 12, 68, 0
15, 433080, Note_on_c, 12, 70, 52
15, 433199, Note_on_c, 12, 70, 0
15, 433200, Note_on_c, 12, 68, 52
15, 433319, Note_on_c, 12, 68, 0
15, 433320, Note_on_c, 12, 70, 52
15, 433424, Note_on_c, 12, 70, 0
15, 433440, Note_on_c, 12, 67, 52
15, 433559, Note_on_c, 12, 67, 0
15, 433560, Note_on_c, 12, 70, 52
15, 433679, Note_on_c, 12, 70, 0
15, 433680, Note_on_c, 12, 67, 52
15, 433799, Note_on_c, 12, 67, 0
15, 433800, Note_on_c, 12, 70, 52
15, 433919, Note_on_c, 12, 70, 0
15, 433920, Note_on_c, 12, 67, 52
15, 434039, Note_on_c, 12, 67, 0
15, 434040, Note_on_c, 12, 70, 52
15, 434144, Note_on_c, 12, 70, 0
15, 434160, Note_on_c, 12, 67, 52
15, 434279, Note_on_c, 12, 67, 0
15, 434280, Note_on_c, 12, 70, 52
15, 434399, Note_on_c, 12, 70, 0
15, 434400, Note_on_c, 12, 67, 52
15, 434519, Note_on_c, 12, 67, 0
15, 434520, Note_on_c, 12, 70, 52
15, 434639, Note_on_c, 12, 70, 0
15, 434640, Note_on_c, 12, 67, 52
15, 434759, Note_on_c, 12, 67, 0
15, 434760, Note_on_c, 12, 70, 52
15, 434864, Note_on_c, 12, 70, 0
15, 434880, Note_on_c, 12, 67, 52
15, 434999, Note_on_c, 12, 67, 0
15, 435000, Note_on_c, 12, 70, 52
15, 435119, Note_on_c, 12, 70, 0
15, 435120, Note_on_c, 12, 67, 52
15, 435239, Note_on_c, 12, 67, 0
15, 435240, Note_on_c, 12, 70, 52
15, 435359, Note_on_c, 12, 70, 0
15, 435360, Note_on_c, 12, 67, 52
15, 435479, Note_on_c, 12, 67, 0
15, 435480, Note_on_c, 12, 70, 52
15, 435584, Note_on_c, 12, 70, 0
15, 435600, Note_on_c, 12, 67, 52
15, 435719, Note_on_c, 12, 67, 0
15, 435720, Note_on_c, 12, 70, 52
15, 435839, Note_on_c, 12, 70, 0
15, 435840, Note_on_c, 12, 67, 52
15, 435959, Note_on_c, 12, 67, 0
15, 435960, Note_on_c, 12, 70, 52
15, 436079, Note_on_c, 12, 70, 0
15, 436080, Note_on_c, 12, 67, 52
15, 436199, Note_on_c, 12, 67, 0
15, 436200, Note_on_c, 12, 70, 52
15, 436304, Note_on_c, 12, 70, 0
15, 436320, Note_on_c, 12, 65, 52
15, 436439, Note_on_c, 12, 65, 0
15, 436440, Note_on_c, 12, 62, 52
15, 436559, Note_on_c, 12, 62, 0
15, 436560, Note_on_c, 12, 65, 52
15, 436679, Note_on_c, 12, 65, 0
15, 436680, Note_on_c, 12, 62, 52
15, 436799, Note_on_c, 12, 62, 0
15, 436800, Note_on_c, 12, 65, 52
15, 436919, Note_on_c, 12, 65, 0
15, 436920, Note_on_c, 12, 62, 52
15, 437024, Note_on_c, 12, 62, 0
15, 437040, Note_on_c, 12, 65, 52
15, 437159, Note_on_c, 12, 65, 0
15, 437160, Note_on_c, 12, 62, 52
15, 437279, Note_on_c, 12, 62, 0
15, 437280, Note_on_c, 12, 65, 52
15, 437399, Note_on_c, 12, 65, 0
15, 437400, Note_on_c, 12, 62, 52
15, 437519, Note_on_c, 12, 62, 0
15, 437520, Note_on_c, 12, 65, 52
15, 437639, Note_on_c, 12, 65, 0
15, 437640, Note_on_c, 12, 62, 52
15, 437744, Note_on_c, 12, 62, 0
15, 437760, Note_on_c, 12, 65, 52
15, 437984, Note_on_c, 12, 65, 0
15, 438000, Note_on_c, 12, 72, 84
15, 438359, Note_on_c, 12, 72, 0
15, 438360, Note_on_c, 12, 70, 84
15, 438449, Note_on_c, 12, 70, 0
15, 438480, Note_on_c, 12, 68, 84
15, 438659, Note_on_c, 12, 68, 0
15, 438720, Note_on_c, 12, 67, 84
15, 438899, Note_on_c, 12, 67, 0
15, 438960, Note_on_c, 12, 65, 84
15, 439139, Note_on_c, 12, 65, 0
15, 439185, Control_c, 12, 11, 96
15, 439200, Control_c, 12, 11, 96
15, 439200, Note_on_c, 12, 63, 68
15, 439260, Control_c, 12, 11, 99
15, 439320, Control_c, 12, 11, 101
15, 439380, Control_c, 12, 11, 104
15, 439440, Control_c, 12, 11, 106
15, 439500, Control_c, 12, 11, 109
15, 439560, Control_c, 12, 11, 112
15, 439620, Control_c, 12, 11, 114
15, 439680, Control_c, 12, 11, 117
15, 439740, Control_c, 12, 11, 119
15, 439800, Control_c, 12, 11, 122
15, 439860, Control_c, 12, 11, 124
15, 439919, Note_on_c, 12, 63, 0
15, 439920, Note_on_c, 12, 63, 68
15, 439920, Control_c, 12, 11, 127
15, 439980, Control_c, 12, 11, 124
15, 440040, Control_c, 12, 11, 122
15, 440100, Control_c, 12, 11, 119
15, 440160, Control_c, 12, 11, 117
15, 440220, Control_c, 12, 11, 114
15, 440280, Control_c, 12, 11, 112
15, 440340, Control_c, 12, 11, 109
15, 440400, Control_c, 12, 11, 106
15, 440460, Control_c, 12, 11, 104
15, 440520, Control_c, 12, 11, 101
15, 440580, Control_c, 12, 11, 96
15, 440879, Note_on_c, 12, 63, 0
15, 440880, Note_on_c, 12, 70, 68
15, 441104, Note_on_c, 12, 70, 0
15, 441120, Note_on_c, 12, 70, 68
15, 441329, Note_on_c, 12, 70, 0
15, 441360, Note_on_c, 12, 70, 68
15, 441569, Note_on_c, 12, 70, 0
15, 441600, Note_on_c, 12, 70, 68
15, 441809, Note_on_c, 12, 70, 0
15, 441840, Note_on_c, 12, 70, 68
15, 442049, Note_on_c, 12, 70, 0
15, 442065, Control_c, 12, 11, 80
15, 442080, Note_on_c, 12, 70, 76
15, 442169, Note_on_c, 12, 70, 0
15, 442200, Note_on_c, 12, 63, 76
15, 442319, Note_on_c, 12, 63, 0
15, 442320, Control_c, 12, 11, 80
15, 442320, Note_on_c, 12, 62, 76
15, 442430, Control_c, 12, 11, 82
15, 442439, Note_on_c, 12, 62, 0
15, 442440, Note_on_c, 12, 63, 76
15, 442540, Control_c, 12, 11, 84
15, 442559, Note_on_c, 12, 63, 0
15, 442560, Note_on_c, 12, 65, 76
15, 442650, Control_c, 12, 11, 86
15, 442679, Note_on_c, 12, 65, 0
15, 442680, Note_on_c, 12, 67, 76
15, 442760, Control_c, 12, 11, 88
15, 442784, Note_on_c, 12, 67, 0
15, 442800, Note_on_c, 12, 68, 76
15, 442870, Control_c, 12, 11, 90
15, 442919, Note_on_c, 12, 68, 0
15, 442920, Note_on_c, 12, 70, 76
15, 442980, Control_c, 12, 11, 92
15, 443024, Note_on_c, 12, 70, 0
15, 443040, Note_on_c, 12, 72, 76
15, 443090, Control_c, 12, 11, 94
15, 443129, Note_on_c, 12, 72, 0
15, 443160, Note_on_c, 12, 75, 76
15, 443200, Control_c, 12, 11, 96
15, 443249, Note_on_c, 12, 75, 0
15, 443280, Note_on_c, 12, 74, 76
15, 443310, Control_c, 12, 11, 98
15, 443369, Note_on_c, 12, 74, 0
15, 443400, Note_on_c, 12, 72, 76
15, 443420, Control_c, 12, 11, 100
15, 443489, Note_on_c, 12, 72, 0
15, 443520, Note_on_c, 12, 70, 76
15, 443530, Control_c, 12, 11, 102
15, 443609, Note_on_c, 12, 70, 0
15, 443640, Control_c, 12, 11, 104
15, 443640, Note_on_c, 12, 67, 76
15, 443729, Note_on_c, 12, 67, 0
15, 443750, Control_c, 12, 11, 105
15, 443760, Note_on_c, 12, 65, 76
15, 443849, Note_on_c, 12, 65, 0
15, 443860, Control_c, 12, 11, 107
15, 443880, Note_on_c, 12, 67, 76
15, 443969, Note_on_c, 12, 67, 0
15, 443970, Control_c, 12, 11, 109
15, 444000, Note_on_c, 12, 74, 76
15, 444080, Control_c, 12, 11, 111
15, 444089, Note_on_c, 12, 74, 0
15, 444120, Note_on_c, 12, 75, 76
15, 444190, Control_c, 12, 11, 113
15, 444209, Note_on_c, 12, 75, 0
15, 444240, Note_on_c, 12, 77, 76
15, 444300, Control_c, 12, 11, 115
15, 444329, Note_on_c, 12, 77, 0
15, 444360, Note_on_c, 12, 79, 76
15, 444410, Control_c, 12, 11, 117
15, 444449, Note_on_c, 12, 79, 0
15, 444480, Note_on_c, 12, 80, 76
15, 444520, Control_c, 12, 11, 119
15, 444569, Note_on_c, 12, 80, 0
15, 444600, Note_on_c, 12, 79, 76
15, 444630, Control_c, 12, 11, 121
15, 444689, Note_on_c, 12, 79, 0
15, 444720, Note_on_c, 12, 77, 76
15, 444740, Control_c, 12, 11, 123
15, 444809, Note_on_c, 12, 77, 0
15, 444840, Note_on_c, 12, 75, 76
15, 444850, Control_c, 12, 11, 127
15, 444929, Note_on_c, 12, 75, 0
15, 444960, Note_on_c, 12, 74, 76
15, 445139, Note_on_c, 12, 74, 0
15, 445200, Note_on_c, 12, 68, 76
15, 445379, Note_on_c, 12, 68, 0
15, 446280, Note_on_c, 12, 74, 76
15, 446369, Note_on_c, 12, 74, 0
15, 446400, Note_on_c, 12, 75, 76
15, 446579, Note_on_c, 12, 75, 0
15, 446640, Note_on_c, 12, 63, 76
15, 446819, Note_on_c, 12, 63, 0
15, 447720, Note_on_c, 12, 63, 76
15, 447824, Note_on_c, 12, 63, 0
15, 447840, Note_on_c, 12, 64, 76
15, 448019, Note_on_c, 12, 64, 0
15, 448080, Note_on_c, 12, 73, 76
15, 448259, Note_on_c, 12, 73, 0
15, 449160, Note_on_c, 12, 67, 76
15, 449249, Note_on_c, 12, 67, 0
15, 449280, Note_on_c, 12, 68, 76
15, 449369, Note_on_c, 12, 68, 0
15, 449400, Note_on_c, 12, 60, 76
15, 449624, Note_on_c, 12, 60, 0
15, 449640, Note_on_c, 12, 63, 76
15, 449729, Note_on_c, 12, 63, 0
15, 449760, Note_on_c, 12, 62, 76
15, 449849, Note_on_c, 12, 62, 0
15, 449880, Note_on_c, 12, 65, 76
15, 449969, Note_on_c, 12, 65, 0
15, 450000, Note_on_c, 12, 63, 76
15, 450089, Note_on_c, 12, 63, 0
15, 450120, Note_on_c, 12, 68, 76
15, 450344, Note_on_c, 12, 68, 0
15, 450360, Note_on_c, 12, 68, 76
15, 450449, Note_on_c, 12, 68, 0
15, 450480, Note_on_c, 12, 68, 76
15, 450569, Note_on_c, 12, 68, 0
15, 450600, Note_on_c, 12, 68, 76
15, 450689, Note_on_c, 12, 68, 0
15, 450720, Note_on_c, 12, 67, 76
15, 450809, Note_on_c, 12, 67, 0
15, 450840, Note_on_c, 12, 63, 76
15, 450929, Note_on_c, 12, 63, 0
15, 450960, Note_on_c, 12, 75, 76
15, 451049, Note_on_c, 12, 75, 0
15, 451080, Note_on_c, 12, 63, 76
15, 451169, Note_on_c, 12, 63, 0
15, 451200, Note_on_c, 12, 75, 76
15, 451289, Note_on_c, 12, 75, 0
15, 451320, Note_on_c, 12, 63, 76
15, 451409, Note_on_c, 12, 63, 0
15, 451440, Note_on_c, 12, 75, 76
15, 451529, Note_on_c, 12, 75, 0
15, 451560, Note_on_c, 12, 63, 76
15, 451649, Note_on_c, 12, 63, 0
15, 451680, Note_on_c, 12, 75, 76
15, 451769, Note_on_c, 12, 75, 0
15, 451800, Note_on_c, 12, 63, 76
15, 451889, Note_on_c, 12, 63, 0
15, 451920, Note_on_c, 12, 75, 76
15, 452009, Note_on_c, 12, 75, 0
15, 452040, Note_on_c, 12, 63, 76
15, 452129, Note_on_c, 12, 63, 0
15, 452160, Note_on_c, 12, 72, 76
15, 452211, Note_on_c, 12, 72, 0
15, 452220, Note_on_c, 12, 72, 76
15, 452271, Note_on_c, 12, 72, 0
15, 452280, Note_on_c, 12, 71, 76
15, 452331, Note_on_c, 12, 71, 0
15, 452340, Note_on_c, 12, 71, 76
15, 452391, Note_on_c, 12, 71, 0
15, 452400, Note_on_c, 12, 72, 76
15, 452451, Note_on_c, 12, 72, 0
15, 452460, Note_on_c, 12, 72, 76
15, 452511, Note_on_c, 12, 72, 0
15, 452520, Note_on_c, 12, 71, 76
15, 452571, Note_on_c, 12, 71, 0
15, 452580, Note_on_c, 12, 71, 76
15, 452631, Note_on_c, 12, 71, 0
15, 452640, Note_on_c, 12, 72, 76
15, 452691, Note_on_c, 12, 72, 0
15, 452700, Note_on_c, 12, 72, 76
15, 452751, Note_on_c, 12, 72, 0
15, 452760, Note_on_c, 12, 67, 76
15, 452811, Note_on_c, 12, 67, 0
15, 452820, Note_on_c, 12, 67, 76
15, 452871, Note_on_c, 12, 67, 0
15, 452880, Note_on_c, 12, 68, 76
15, 452931, Note_on_c, 12, 68, 0
15, 452940, Note_on_c, 12, 68, 76
15, 452991, Note_on_c, 12, 68, 0
15, 453000, Note_on_c, 12, 67, 76
15, 453051, Note_on_c, 12, 67, 0
15, 453060, Note_on_c, 12, 67, 76
15, 453111, Note_on_c, 12, 67, 0
15, 453120, Note_on_c, 12, 70, 76
15, 453171, Note_on_c, 12, 70, 0
15, 453180, Note_on_c, 12, 70, 76
15, 453231, Note_on_c, 12, 70, 0
15, 453240, Note_on_c, 12, 68, 76
15, 453291, Note_on_c, 12, 68, 0
15, 453300, Note_on_c, 12, 68, 76
15, 453351, Note_on_c, 12, 68, 0
15, 453360, Note_on_c, 12, 67, 76
15, 453411, Note_on_c, 12, 67, 0
15, 453420, Note_on_c, 12, 67, 76
15, 453471, Note_on_c, 12, 67, 0
15, 453480, Note_on_c, 12, 65, 76
15, 453531, Note_on_c, 12, 65, 0
15, 453540, Note_on_c, 12, 65, 76
15, 453591, Note_on_c, 12, 65, 0
15, 453600, Note_on_c, 12, 63, 76
15, 453651, Note_on_c, 12, 63, 0
15, 453660, Note_on_c, 12, 63, 76
15, 453711, Note_on_c, 12, 63, 0
15, 453720, Note_on_c, 12, 58, 76
15, 453771, Note_on_c, 12, 58, 0
15, 453780, Note_on_c, 12, 58, 76
15, 453831, Note_on_c, 12, 58, 0
15, 453840, Note_on_c, 12, 60, 76
15, 453891, Note_on_c, 12, 60, 0
15, 453900, Note_on_c, 12, 60, 76
15, 453951, Note_on_c, 12, 60, 0
15, 453960, Note_on_c, 12, 62, 76
15, 454011, Note_on_c, 12, 62, 0
15, 454020, Note_on_c, 12, 62, 76
15, 454071, Note_on_c, 12, 62, 0
15, 454080, Note_on_c, 12, 63, 76
15, 454131, Note_on_c, 12, 63, 0
15, 454140, Note_on_c, 12, 63, 76
15, 454191, Note_on_c, 12, 63, 0
15, 454200, Note_on_c, 12, 65, 76
15, 454251, Note_on_c, 12, 65, 0
15, 454260, Note_on_c, 12, 65, 76
15, 454311, Note_on_c, 12, 65, 0
15, 454320, Note_on_c, 12, 67, 76
15, 454371, Note_on_c, 12, 67, 0
15, 454380, Note_on_c, 12, 67, 76
15, 454431, Note_on_c, 12, 67, 0
15, 454440, Note_on_c, 12, 68, 76
15, 454491, Note_on_c, 12, 68, 0
15, 454500, Note_on_c, 12, 68, 76
15, 454551, Note_on_c, 12, 68, 0
15, 454560, Note_on_c, 12, 69, 76
15, 454611, Note_on_c, 12, 69, 0
15, 454620, Note_on_c, 12, 69, 76
15, 454671, Note_on_c, 12, 69, 0
15, 454680, Note_on_c, 12, 70, 76
15, 454731, Note_on_c, 12, 70, 0
15, 454740, Note_on_c, 12, 70, 76
15, 454791, Note_on_c, 12, 70, 0
15, 454800, Note_on_c, 12, 68, 76
15, 454851, Note_on_c, 12, 68, 0
15, 454860, Note_on_c, 12, 68, 76
15, 454911, Note_on_c, 12, 68, 0
15, 454920, Note_on_c, 12, 67, 76
15, 454971, Note_on_c, 12, 67, 0
15, 454980, Note_on_c, 12, 67, 76
15, 455031, Note_on_c, 12, 67, 0
15, 455040, Note_on_c, 12, 65, 76
15, 455091, Note_on_c, 12, 65, 0
15, 455100, Note_on_c, 12, 65, 76
15, 455151, Note_on_c, 12, 65, 0
15, 455160, Note_on_c, 12, 67, 76
15, 455211, Note_on_c, 12, 67, 0
15, 455220, Note_on_c, 12, 67, 77
15, 455271, Note_on_c, 12, 67, 0
15, 455280, Note_on_c, 12, 68, 77
15, 455331, Note_on_c, 12, 68, 0
15, 455340, Note_on_c, 12, 68, 77
15, 455391, Note_on_c, 12, 68, 0
15, 455400, Note_on_c, 12, 67, 78
15, 455451, Note_on_c, 12, 67, 0
15, 455460, Note_on_c, 12, 67, 78
15, 455511, Note_on_c, 12, 67, 0
15, 455520, Note_on_c, 12, 65, 78
15, 455571, Note_on_c, 12, 65, 0
15, 455580, Note_on_c, 12, 65, 79
15, 455631, Note_on_c, 12, 65, 0
15, 455640, Note_on_c, 12, 63, 79
15, 455691, Note_on_c, 12, 63, 0
15, 455700, Note_on_c, 12, 63, 79
15, 455751, Note_on_c, 12, 63, 0
15, 455760, Note_on_c, 12, 62, 80
15, 455811, Note_on_c, 12, 62, 0
15, 455820, Note_on_c, 12, 62, 80
15, 455871, Note_on_c, 12, 62, 0
15, 455880, Note_on_c, 12, 63, 80
15, 455931, Note_on_c, 12, 63, 0
15, 455940, Note_on_c, 12, 63, 81
15, 455991, Note_on_c, 12, 63, 0
15, 456000, Note_on_c, 12, 65, 81
15, 456051, Note_on_c, 12, 65, 0
15, 456060, Note_on_c, 12, 65, 81
15, 456111, Note_on_c, 12, 65, 0
15, 456120, Note_on_c, 12, 63, 82
15, 456171, Note_on_c, 12, 63, 0
15, 456180, Note_on_c, 12, 63, 82
15, 456231, Note_on_c, 12, 63, 0
15, 456240, Note_on_c, 12, 62, 82
15, 456291, Note_on_c, 12, 62, 0
15, 456300, Note_on_c, 12, 62, 83
15, 456351, Note_on_c, 12, 62, 0
15, 456360, Note_on_c, 12, 60, 83
15, 456411, Note_on_c, 12, 60, 0
15, 456420, Note_on_c, 12, 60, 83
15, 456471, Note_on_c, 12, 60, 0
15, 456480, Note_on_c, 12, 58, 84
15, 456531, Note_on_c, 12, 58, 0
15, 456540, Note_on_c, 12, 58, 84
15, 456591, Note_on_c, 12, 58, 0
15, 456600, Note_on_c, 12, 69, 84
15, 456651, Note_on_c, 12, 69, 0
15, 456660, Note_on_c, 12, 69, 84
15, 456711, Note_on_c, 12, 69, 0
15, 456720, Note_on_c, 12, 68, 84
15, 456771, Note_on_c, 12, 68, 0
15, 456780, Note_on_c, 12, 68, 84
15, 456831, Note_on_c, 12, 68, 0
15, 456840, Note_on_c, 12, 67, 84
15, 456891, Note_on_c, 12, 67, 0
15, 456900, Note_on_c, 12, 67, 84
15, 456951, Note_on_c, 12, 67, 0
15, 456960, Note_on_c, 12, 65, 84
15, 457011, Note_on_c, 12, 65, 0
15, 457020, Note_on_c, 12, 65, 84
15, 457071, Note_on_c, 12, 65, 0
15, 457080, Note_on_c, 12, 63, 84
15, 457131, Note_on_c, 12, 63, 0
15, 457140, Note_on_c, 12, 63, 84
15, 457191, Note_on_c, 12, 63, 0
15, 457200, Note_on_c, 12, 62, 84
15, 457251, Note_on_c, 12, 62, 0
15, 457260, Note_on_c, 12, 62, 84
15, 457311, Note_on_c, 12, 62, 0
15, 457320, Note_on_c, 12, 72, 84
15, 457371, Note_on_c, 12, 72, 0
15, 457380, Note_on_c, 12, 72, 84
15, 457431, Note_on_c, 12, 72, 0
15, 457440, Note_on_c, 12, 70, 84
15, 457491, Note_on_c, 12, 70, 0
15, 457500, Note_on_c, 12, 70, 84
15, 457551, Note_on_c, 12, 70, 0
15, 457560, Note_on_c, 12, 68, 84
15, 457611, Note_on_c, 12, 68, 0
15, 457620, Note_on_c, 12, 68, 84
15, 457671, Note_on_c, 12, 68, 0
15, 457680, Note_on_c, 12, 67, 84
15, 457731, Note_on_c, 12, 67, 0
15, 457740, Note_on_c, 12, 67, 84
15, 457791, Note_on_c, 12, 67, 0
15, 457800, Note_on_c, 12, 65, 84
15, 457851, Note_on_c, 12, 65, 0
15, 457860, Note_on_c, 12, 65, 84
15, 457911, Note_on_c, 12, 65, 0
15, 457920, Note_on_c, 12, 63, 84
15, 458159, Note_on_c, 12, 63, 0
15, 460800, Control_c, 12, 11, 96
15, 461040, Note_on_c, 12, 60, 68
15, 461249, Note_on_c, 12, 60, 0
15, 461280, Note_on_c, 12, 61, 68
15, 461489, Note_on_c, 12, 61, 0
15, 461520, Note_on_c, 12, 62, 68
15, 461520, Control_c, 12, 11, 96
15, 461620, Control_c, 12, 11, 99
15, 461720, Control_c, 12, 11, 101
15, 461729, Note_on_c, 12, 62, 0
15, 461760, Note_on_c, 12, 62, 68
15, 461820, Control_c, 12, 11, 104
15, 461920, Control_c, 12, 11, 106
15, 461969, Note_on_c, 12, 62, 0
15, 462000, Note_on_c, 12, 62, 68
15, 462020, Control_c, 12, 11, 109
15, 462120, Control_c, 12, 11, 112
15, 462209, Note_on_c, 12, 62, 0
15, 462220, Control_c, 12, 11, 114
15, 462240, Note_on_c, 12, 62, 68
15, 462320, Control_c, 12, 11, 117
15, 462420, Control_c, 12, 11, 119
15, 462464, Note_on_c, 12, 62, 0
15, 462480, Note_on_c, 12, 62, 76
15, 462520, Control_c, 12, 11, 122
15, 462620, Control_c, 12, 11, 124
15, 462929, Note_on_c, 12, 62, 0
15, 462960, Note_on_c, 12, 62, 76
15, 463080, Control_c, 12, 11, 112
15, 463130, Control_c, 12, 11, 109
15, 463180, Control_c, 12, 11, 107
15, 463230, Control_c, 12, 11, 104
15, 463280, Control_c, 12, 11, 101
15, 463330, Control_c, 12, 11, 99
15, 463380, Control_c, 12, 11, 96
15, 463430, Control_c, 12, 11, 93
15, 463480, Control_c, 12, 11, 91
15, 463530, Control_c, 12, 11, 88
15, 463559, Note_on_c, 12, 62, 0
15, 463560, Note_on_c, 12, 56, 76
15, 463580, Control_c, 12, 11, 85
15, 463630, Control_c, 12, 11, 80
15, 463679, Note_on_c, 12, 56, 0
15, 463680, Note_on_c, 12, 55, 76
15, 463919, Note_on_c, 12, 55, 0
15, 467280, Control_c, 12, 11, 96
15, 467520, Note_on_c, 12, 67, 68
15, 467729, Note_on_c, 12, 67, 0
15, 467760, Note_on_c, 12, 67, 68
15, 467969, Note_on_c, 12, 67, 0
15, 468000, Note_on_c, 12, 63, 68
15, 468000, Control_c, 12, 11, 96
15, 468040, Control_c, 12, 11, 99
15, 468080, Control_c, 12, 11, 101
15, 468120, Control_c, 12, 11, 104
15, 468160, Control_c, 12, 11, 106
15, 468200, Control_c, 12, 11, 109
15, 468240, Control_c, 12, 11, 112
15, 468280, Control_c, 12, 11, 114
15, 468320, Control_c, 12, 11, 117
15, 468360, Control_c, 12, 11, 119
15, 468400, Control_c, 12, 11, 122
15, 468440, Control_c, 12, 11, 124
15, 468480, Control_c, 12, 11, 127
15, 468520, Control_c, 12, 11, 122
15, 468560, Control_c, 12, 11, 117
15, 468600, Control_c, 12, 11, 112
15, 468640, Control_c, 12, 11, 106
15, 468680, Control_c, 12, 11, 96
15, 468719, Note_on_c, 12, 63, 0
15, 469440, Control_c, 12, 11, 127
15, 469680, Note_on_c, 12, 59, 44
15, 469859, Note_on_c, 12, 59, 0
15, 469920, Note_on_c, 12, 59, 44
15, 470099, Note_on_c, 12, 59, 0
15, 470400, Note_on_c, 12, 58, 44
15, 470579, Note_on_c, 12, 58, 0
15, 470640, Note_on_c, 12, 61, 44
15, 470819, Note_on_c, 12, 61, 0
15, 471120, Note_on_c, 12, 62, 44
15, 471299, Note_on_c, 12, 62, 0
15, 471360, Note_on_c, 12, 63, 44
15, 471539, Note_on_c, 12, 63, 0
15, 471600, Note_on_c, 12, 65, 44
15, 471779, Note_on_c, 12, 65, 0
15, 471840, Note_on_c, 12, 67, 44
15, 472019, Note_on_c, 12, 67, 0
15, 472080, Note_on_c, 12, 67, 44
15, 472259, Note_on_c, 12, 67, 0
15, 472320, Note_on_c, 12, 68, 44
15, 472409, Note_on_c, 12, 68, 0
15, 472440, Note_on_c, 12, 67, 44
15, 472529, Note_on_c, 12, 67, 0
15, 472560, Note_on_c, 12, 65, 44
15, 472649, Note_on_c, 12, 65, 0
15, 472680, Note_on_c, 12, 63, 44
15, 472769, Note_on_c, 12, 63, 0
15, 472800, Note_on_c, 12, 62, 44
15, 472889, Note_on_c, 12, 62, 0
15, 472920, Note_on_c, 12, 63, 44
15, 473009, Note_on_c, 12, 63, 0
15, 473040, Note_on_c, 12, 65, 44
15, 473129, Note_on_c, 12, 65, 0
15, 473160, Note_on_c, 12, 63, 44
15, 473249, Note_on_c, 12, 63, 0
15, 473280, Note_on_c, 12, 62, 44
15, 473369, Note_on_c, 12, 62, 0
15, 473400, Note_on_c, 12, 63, 44
15, 473489, Note_on_c, 12, 63, 0
15, 473520, Note_on_c, 12, 65, 44
15, 473609, Note_on_c, 12, 65, 0
15, 473640, Note_on_c, 12, 67, 44
15, 473729, Note_on_c, 12, 67, 0
15, 473760, Note_on_c, 12, 68, 44
15, 473849, Note_on_c, 12, 68, 0
15, 473880, Note_on_c, 12, 67, 45
15, 473969, Note_on_c, 12, 67, 0
15, 474000, Note_on_c, 12, 65, 46
15, 474089, Note_on_c, 12, 65, 0
15, 474120, Note_on_c, 12, 63, 48
15, 474209, Note_on_c, 12, 63, 0
15, 474240, Note_on_c, 12, 62, 49
15, 474329, Note_on_c, 12, 62, 0
15, 474360, Note_on_c, 12, 63, 50
15, 474449, Note_on_c, 12, 63, 0
15, 474480, Note_on_c, 12, 65, 52
15, 474569, Note_on_c, 12, 65, 0
15, 474600, Note_on_c, 12, 63, 53
15, 474689, Note_on_c, 12, 63, 0
15, 474720, Note_on_c, 12, 62, 54
15, 474809, Note_on_c, 12, 62, 0
15, 474840, Note_on_c, 12, 63, 56
15, 474929, Note_on_c, 12, 63, 0
15, 474960, Note_on_c, 12, 65, 57
15, 475049, Note_on_c, 12, 65, 0
15, 475080, Note_on_c, 12, 67, 58
15, 475169, Note_on_c, 12, 67, 0
15, 475200, Note_on_c, 12, 68, 60
15, 475289, Note_on_c, 12, 68, 0
15, 475320, Note_on_c, 12, 67, 61
15, 475409, Note_on_c, 12, 67, 0
15, 475440, Note_on_c, 12, 65, 62
15, 475529, Note_on_c, 12, 65, 0
15, 475560, Note_on_c, 12, 64, 64
15, 475649, Note_on_c, 12, 64, 0
15, 475680, Note_on_c, 12, 65, 65
15, 475769, Note_on_c, 12, 65, 0
15, 475800, Note_on_c, 12, 67, 66
15, 475889, Note_on_c, 12, 67, 0
15, 475920, Note_on_c, 12, 68, 68
15, 476009, Note_on_c, 12, 68, 0
15, 476040, Note_on_c, 12, 70, 69
15, 476129, Note_on_c, 12, 70, 0
15, 476160, Note_on_c, 12, 72, 70
15, 476249, Note_on_c, 12, 72, 0
15, 476280, Note_on_c, 12, 74, 72
15, 476369, Note_on_c, 12, 74, 0
15, 476400, Note_on_c, 12, 75, 73
15, 476489, Note_on_c, 12, 75, 0
15, 476520, Note_on_c, 12, 77, 74
15, 476609, Note_on_c, 12, 77, 0
15, 476640, Note_on_c, 12, 79, 76
15, 476819, Note_on_c, 12, 79, 0
15, 476880, Note_on_c, 12, 70, 76
15, 477059, Note_on_c, 12, 70, 0
15, 477120, Note_on_c, 12, 67, 76
15, 477299, Note_on_c, 12, 67, 0
15, 477360, Note_on_c, 12, 63, 76
15, 477539, Note_on_c, 12, 63, 0
15, 477600, Note_on_c, 12, 67, 84
15, 477779, Note_on_c, 12, 67, 0
15, 477840, Note_on_c, 12, 58, 76
15, 478019, Note_on_c, 12, 58, 0
15, 478080, Note_on_c, 12, 65, 76
15, 478259, Note_on_c, 12, 65, 0
15, 478320, Note_on_c, 12, 68, 84
15, 478499, Note_on_c, 12, 68, 0
15, 478560, Note_on_c, 12, 58, 76
15, 478739, Note_on_c, 12, 58, 0
15, 478800, Note_on_c, 12, 62, 76
15, 478979, Note_on_c, 12, 62, 0
15, 479040, Note_on_c, 12, 65, 84
15, 479219, Note_on_c, 12, 65, 0
15, 479280, Note_on_c, 12, 58, 76
15, 479459, Note_on_c, 12, 58, 0
15, 479640, Note_on_c, 12, 67, 84
15, 479691, Note_on_c, 12, 67, 0
15, 479700, Note_on_c, 12, 67, 84
15, 479751, Note_on_c, 12, 67, 0
15, 479760, Note_on_c, 12, 70, 84
15, 479811, Note_on_c, 12, 70, 0
15, 479820, Note_on_c, 12, 70, 84
15, 479871, Note_on_c, 12, 70, 0
15, 479880, Note_on_c, 12, 75, 84
15, 479931, Note_on_c, 12, 75, 0
15, 479940, Note_on_c, 12, 75, 84
15, 479991, Note_on_c, 12, 75, 0
15, 480000, Note_on_c, 12, 79, 84
15, 480051, Note_on_c, 12, 79, 0
15, 480060, Note_on_c, 12, 79, 84
15, 480111, Note_on_c, 12, 79, 0
15, 480120, Note_on_c, 12, 67, 84
15, 480171, Note_on_c, 12, 67, 0
15, 480180, Note_on_c, 12, 67, 84
15, 480239, Note_on_c, 12, 67, 0
15, 480360, Note_on_c, 12, 67, 84
15, 480411, Note_on_c, 12, 67, 0
15, 480420, Note_on_c, 12, 67, 84
15, 480471, Note_on_c, 12, 67, 0
15, 480480, Note_on_c, 12, 70, 84
15, 480531, Note_on_c, 12, 70, 0
15, 480540, Note_on_c, 12, 70, 84
15, 480591, Note_on_c, 12, 70, 0
15, 480600, Note_on_c, 12, 75, 84
15, 480651, Note_on_c, 12, 75, 0
15, 480660, Note_on_c, 12, 75, 84
15, 480711, Note_on_c, 12, 75, 0
15, 480720, Note_on_c, 12, 79, 84
15, 480771, Note_on_c, 12, 79, 0
15, 480780, Note_on_c, 12, 79, 84
15, 480831, Note_on_c, 12, 79, 0
15, 480840, Note_on_c, 12, 67, 84
15, 480891, Note_on_c, 12, 67, 0
15, 480900, Note_on_c, 12, 67, 84
15, 480959, Note_on_c, 12, 67, 0
15, 481080, Note_on_c, 12, 68, 84
15, 481131, Note_on_c, 12, 68, 0
15, 481140, Note_on_c, 12, 68, 84
15, 481191, Note_on_c, 12, 68, 0
15, 481200, Note_on_c, 12, 70, 84
15, 481251, Note_on_c, 12, 70, 0
15, 481260, Note_on_c, 12, 70, 84
15, 481311, Note_on_c, 12, 70, 0
15, 481320, Note_on_c, 12, 74, 84
15, 481371, Note_on_c, 12, 74, 0
15, 481380, Note_on_c, 12, 74, 84
15, 481431, Note_on_c, 12, 74, 0
15, 481440, Note_on_c, 12, 77, 84
15, 481491, Note_on_c, 12, 77, 0
15, 481500, Note_on_c, 12, 77, 84
15, 481551, Note_on_c, 12, 77, 0
15, 481560, Note_on_c, 12, 68, 84
15, 481611, Note_on_c, 12, 68, 0
15, 481620, Note_on_c, 12, 68, 84
15, 481679, Note_on_c, 12, 68, 0
15, 481800, Note_on_c, 12, 68, 84
15, 481851, Note_on_c, 12, 68, 0
15, 481860, Note_on_c, 12, 68, 84
15, 481911, Note_on_c, 12, 68, 0
15, 481920, Note_on_c, 12, 74, 84
15, 481971, Note_on_c, 12, 74, 0
15, 481980, Note_on_c, 12, 74, 84
15, 482031, Note_on_c, 12, 74, 0
15, 482040, Note_on_c, 12, 77, 84
15, 482091, Note_on_c, 12, 77, 0
15, 482100, Note_on_c, 12, 77, 84
15, 482151, Note_on_c, 12, 77, 0
15, 482160, Note_on_c, 12, 80, 84
15, 482211, Note_on_c, 12, 80, 0
15, 482220, Note_on_c, 12, 80, 84
15, 482271, Note_on_c, 12, 80, 0
15, 482280, Note_on_c, 12, 74, 84
15, 482331, Note_on_c, 12, 74, 0
15, 482340, Note_on_c, 12, 74, 84
15, 482391, Note_on_c, 12, 74, 0
15, 482400, Note_on_c, 12, 75, 84
15, 482451, Note_on_c, 12, 75, 0
15, 482460, Note_on_c, 12, 75, 84
15, 482511, Note_on_c, 12, 75, 0
15, 482520, Note_on_c, 12, 74, 84
15, 482571, Note_on_c, 12, 74, 0
15, 482580, Note_on_c, 12, 74, 84
15, 482631, Note_on_c, 12, 74, 0
15, 482640, Note_on_c, 12, 75, 84
15, 482691, Note_on_c, 12, 75, 0
15, 482700, Note_on_c, 12, 75, 84
15, 482751, Note_on_c, 12, 75, 0
15, 482760, Note_on_c, 12, 74, 84
15, 482811, Note_on_c, 12, 74, 0
15, 482820, Note_on_c, 12, 74, 84
15, 482871, Note_on_c, 12, 74, 0
15, 482880, Note_on_c, 12, 75, 84
15, 482931, Note_on_c, 12, 75, 0
15, 482940, Note_on_c, 12, 75, 84
15, 482991, Note_on_c, 12, 75, 0
15, 483000, Note_on_c, 12, 69, 84
15, 483051, Note_on_c, 12, 69, 0
15, 483060, Note_on_c, 12, 69, 84
15, 483111, Note_on_c, 12, 69, 0
15, 483120, Note_on_c, 12, 70, 84
15, 483171, Note_on_c, 12, 70, 0
15, 483180, Note_on_c, 12, 70, 84
15, 483231, Note_on_c, 12, 70, 0
15, 483240, Note_on_c, 12, 66, 84
15, 483291, Note_on_c, 12, 66, 0
15, 483300, Note_on_c, 12, 66, 84
15, 483351, Note_on_c, 12, 66, 0
15, 483360, Note_on_c, 12, 67, 84
15, 483411, Note_on_c, 12, 67, 0
15, 483420, Note_on_c, 12, 67, 84
15, 483471, Note_on_c, 12, 67, 0
15, 483480, Note_on_c, 12, 62, 84
15, 483531, Note_on_c, 12, 62, 0
15, 483540, Note_on_c, 12, 62, 84
15, 483591, Note_on_c, 12, 62, 0
15, 483600, Note_on_c, 12, 63, 84
15, 483651, Note_on_c, 12, 63, 0
15, 483660, Note_on_c, 12, 63, 84
15, 483711, Note_on_c, 12, 63, 0
15, 483720, Note_on_c, 12, 61, 84
15, 483771, Note_on_c, 12, 61, 0
15, 483780, Note_on_c, 12, 61, 84
15, 483831, Note_on_c, 12, 61, 0
15, 483840, Note_on_c, 12, 60, 84
15, 483891, Note_on_c, 12, 60, 0
15, 483900, Note_on_c, 12, 60, 84
15, 483951, Note_on_c, 12, 60, 0
15, 483960, Note_on_c, 12, 64, 84
15, 484011, Note_on_c, 12, 64, 0
15, 484020, Note_on_c, 12, 64, 84
15, 484071, Note_on_c, 12, 64, 0
15, 484080, Note_on_c, 12, 65, 92
15, 484131, Note_on_c, 12, 65, 0
15, 484140, Note_on_c, 12, 65, 84
15, 484191, Note_on_c, 12, 65, 0
15, 484200, Note_on_c, 12, 63, 84
15, 484251, Note_on_c, 12, 63, 0
15, 484260, Note_on_c, 12, 63, 84
15, 484311, Note_on_c, 12, 63, 0
15, 484320, Note_on_c, 12, 62, 84
15, 484371, Note_on_c, 12, 62, 0
15, 484380, Note_on_c, 12, 62, 84
15, 484431, Note_on_c, 12, 62, 0
15, 484440, Note_on_c, 12, 66, 84
15, 484491, Note_on_c, 12, 66, 0
15, 484500, Note_on_c, 12, 66, 84
15, 484551, Note_on_c, 12, 66, 0
15, 484560, Note_on_c, 12, 67, 92
15, 484611, Note_on_c, 12, 67, 0
15, 484620, Note_on_c, 12, 67, 84
15, 484671, Note_on_c, 12, 67, 0
15, 484680, Note_on_c, 12, 65, 84
15, 484731, Note_on_c, 12, 65, 0
15, 484740, Note_on_c, 12, 65, 84
15, 484791, Note_on_c, 12, 65, 0
15, 484800, Note_on_c, 12, 63, 84
15, 484851, Note_on_c, 12, 63, 0
15, 484860, Note_on_c, 12, 63, 84
15, 484911, Note_on_c, 12, 63, 0
15, 484920, Note_on_c, 12, 67, 84
15, 484971, Note_on_c, 12, 67, 0
15, 484980, Note_on_c, 12, 67, 84
15, 485031, Note_on_c, 12, 67, 0
15, 485040, Note_on_c, 12, 68, 92
15, 485091, Note_on_c, 12, 68, 0
15, 485100, Note_on_c, 12, 68, 84
15, 485151, Note_on_c, 12, 68, 0
15, 485160, Note_on_c, 12, 67, 84
15, 485211, Note_on_c, 12, 67, 0
15, 485220, Note_on_c, 12, 67, 84
15, 485271, Note_on_c, 12, 67, 0
15, 485280, Note_on_c, 12, 65, 84
15, 485331, Note_on_c, 12, 65, 0
15, 485340, Note_on_c, 12, 65, 84
15, 485391, Note_on_c, 12, 65, 0
15, 485400, Note_on_c, 12, 69, 84
15, 485451, Note_on_c, 12, 69, 0
15, 485460, Note_on_c, 12, 69, 84
15, 485511, Note_on_c, 12, 69, 0
15, 485520, Note_on_c, 12, 70, 92
15, 485571, Note_on_c, 12, 70, 0
15, 485580, Note_on_c, 12, 70, 84
15, 485631, Note_on_c, 12, 70, 0
15, 485640, Note_on_c, 12, 68, 84
15, 485691, Note_on_c, 12, 68, 0
15, 485700, Note_on_c, 12, 68, 84
15, 485751, Note_on_c, 12, 68, 0
15, 485760, Note_on_c, 12, 67, 84
15, 485811, Note_on_c, 12, 67, 0
15, 485820, Note_on_c, 12, 67, 84
15, 485871, Note_on_c, 12, 67, 0
15, 485880, Note_on_c, 12, 71, 84
15, 485931, Note_on_c, 12, 71, 0
15, 485940, Note_on_c, 12, 71, 84
15, 485991, Note_on_c, 12, 71, 0
15, 486000, Note_on_c, 12, 72, 84
15, 486051, Note_on_c, 12, 72, 0
15, 486060, Note_on_c, 12, 72, 84
15, 486111, Note_on_c, 12, 72, 0
15, 486120, Note_on_c, 12, 74, 84
15, 486171, Note_on_c, 12, 74, 0
15, 486180, Note_on_c, 12, 74, 84
15, 486231, Note_on_c, 12, 74, 0
15, 486240, Note_on_c, 12, 75, 84
15, 486291, Note_on_c, 12, 75, 0
15, 486300, Note_on_c, 12, 75, 84
15, 486351, Note_on_c, 12, 75, 0
15, 486360, Note_on_c, 12, 76, 84
15, 486411, Note_on_c, 12, 76, 0
15, 486420, Note_on_c, 12, 76, 84
15, 486471, Note_on_c, 12, 76, 0
15, 486480, Note_on_c, 12, 77, 84
15, 486531, Note_on_c, 12, 77, 0
15, 486540, Note_on_c, 12, 77, 84
15, 486591, Note_on_c, 12, 77, 0
15, 486600, Note_on_c, 12, 78, 84
15, 486651, Note_on_c, 12, 78, 0
15, 486660, Note_on_c, 12, 78, 84
15, 486711, Note_on_c, 12, 78, 0
15, 486720, Note_on_c, 12, 79, 84
15, 486899, Note_on_c, 12, 79, 0
15, 486960, Note_on_c, 12, 77, 84
15, 486960, Note_on_c, 12, 67, 84
15, 487184, Note_on_c, 12, 77, 0
15, 487184, Note_on_c, 12, 67, 0
15, 487200, Note_on_c, 12, 67, 84
15, 487200, Note_on_c, 12, 75, 84
15, 487424, Note_on_c, 12, 67, 0
15, 487424, Note_on_c, 12, 75, 0
15, 487680, Note_on_c, 12, 55, 84
15, 487680, Note_on_c, 12, 73, 84
15, 487680, Note_on_c, 12, 63, 84
15, 487859, Note_on_c, 12, 55, 0
15, 487859, Note_on_c, 12, 73, 0
15, 487859, Note_on_c, 12, 63, 0
15, 487920, Note_on_c, 12, 56, 84
15, 487920, Note_on_c, 12, 63, 84
15, 487920, Note_on_c, 12, 72, 84
15, 488099, Note_on_c, 12, 56, 0
15, 488099, Note_on_c, 12, 63, 0
15, 488099, Note_on_c, 12, 72, 0
15, 488400, Note_on_c, 12, 75, 84
15, 488400, Note_on_c, 12, 65, 84
15, 488400, Note_on_c, 12, 57, 84
15, 488579, Note_on_c, 12, 75, 0
15, 488579, Note_on_c, 12, 65, 0
15, 488579, Note_on_c, 12, 57, 0
15, 488640, Note_on_c, 12, 58, 84
15, 488640, Note_on_c, 12, 65, 84
15, 488640, Note_on_c, 12, 74, 84
15, 488819, Note_on_c, 12, 58, 0
15, 488819, Note_on_c, 12, 65, 0
15, 488819, Note_on_c, 12, 74, 0
15, 489120, Note_on_c, 12, 77, 84
15, 489120, Note_on_c, 12, 67, 84
15, 489299, Note_on_c, 12, 77, 0
15, 489299, Note_on_c, 12, 67, 0
15, 489360, Note_on_c, 12, 75, 84
15, 489360, Note_on_c, 12, 67, 84
15, 489539, Note_on_c, 12, 75, 0
15, 489539, Note_on_c, 12, 67, 0
15, 489840, Note_on_c, 12, 73, 84
15, 489840, Note_on_c, 12, 63, 84
15, 489840, Note_on_c, 12, 55, 84
15, 490019, Note_on_c, 12, 73, 0
15, 490019, Note_on_c, 12, 63, 0
15, 490019, Note_on_c, 12, 55, 0
15, 490080, Note_on_c, 12, 56, 84
15, 490080, Note_on_c, 12, 72, 84
15, 490080, Note_on_c, 12, 63, 84
15, 490259, Note_on_c, 12, 56, 0
15, 490259, Note_on_c, 12, 72, 0
15, 490259, Note_on_c, 12, 63, 0
15, 490560, Note_on_c, 12, 57, 92
15, 490560, Note_on_c, 12, 75, 92
15, 490560, Note_on_c, 12, 66, 92
15, 490739, Note_on_c, 12, 57, 0
15, 490739, Note_on_c, 12, 75, 0
15, 490739, Note_on_c, 12, 66, 0
15, 491040, Note_on_c, 12, 57, 92
15, 491040, Note_on_c, 12, 66, 92
15, 491040, Note_on_c, 12, 75, 92
15, 491219, Note_on_c, 12, 57, 0
15, 491219, Note_on_c, 12, 66, 0
15, 491219, Note_on_c, 12, 75, 0
15, 491520, Note_on_c, 12, 66, 92
15, 491520, Note_on_c, 12, 57, 92
15, 491520, Note_on_c, 12, 75, 92
15, 491699, Note_on_c, 12, 66, 0
15, 491699, Note_on_c, 12, 57, 0
15, 491699, Note_on_c, 12, 75, 0
15, 492000, Note_on_c, 12, 57, 92
15, 492000, Note_on_c, 12, 66, 92
15, 492000, Note_on_c, 12, 75, 92
15, 492179, Note_on_c, 12, 57, 0
15, 492179, Note_on_c, 12, 66, 0
15, 492179, Note_on_c, 12, 75, 0
15, 492480, Note_on_c, 12, 75, 92
15, 492480, Note_on_c, 12, 66, 92
15, 492480, Note_on_c, 12, 57, 92
15, 492659, Note_on_c, 12, 75, 0
15, 492659, Note_on_c, 12, 66, 0
15, 492659, Note_on_c, 12, 57, 0
15, 492960, Note_on_c, 12, 75, 92
15, 492960, Note_on_c, 12, 57, 92
15, 492960, Note_on_c, 12, 66, 92
15, 493139, Note_on_c, 12, 75, 0
15, 493139, Note_on_c, 12, 57, 0
15, 493139, Note_on_c, 12, 66, 0
15, 493920, Note_on_c, 12, 63, 68
15, 494039, Note_on_c, 12, 63, 0
15, 494040, Note_on_c, 12, 63, 52
15, 494159, Note_on_c, 12, 63, 0
15, 494160, Note_on_c, 12, 66, 52
15, 494399, Note_on_c, 12, 66, 0
15, 494400, Note_on_c, 12, 69, 52
15, 494624, Note_on_c, 12, 69, 0
15, 494640, Note_on_c, 12, 70, 52
15, 495329, Note_on_c, 12, 70, 0
15, 495360, Note_on_c, 12, 63, 68
15, 495479, Note_on_c, 12, 63, 0
15, 495480, Note_on_c, 12, 63, 52
15, 495599, Note_on_c, 12, 63, 0
15, 495600, Note_on_c, 12, 66, 52
15, 495839, Note_on_c, 12, 66, 0
15, 495840, Note_on_c, 12, 69, 52
15, 496319, Note_on_c, 12, 69, 0
15, 496320, Note_on_c, 12, 68, 52
15, 496559, Note_on_c, 12, 68, 0
15, 496560, Note_on_c, 12, 66, 52
15, 497039, Note_on_c, 12, 66, 0
15, 497040, Note_on_c, 12, 64, 52
15, 497279, Note_on_c, 12, 64, 0
15, 497280, Note_on_c, 12, 65, 52
15, 497759, Note_on_c, 12, 65, 0
15, 497760, Note_on_c, 12, 58, 52
15, 497999, Note_on_c, 12, 58, 0
15, 498000, Note_on_c, 12, 68, 52
15, 498479, Note_on_c, 12, 68, 0
15, 498480, Note_on_c, 12, 66, 52
15, 498719, Note_on_c, 12, 66, 0
15, 498720, Note_on_c, 12, 67, 52
15, 499049, Note_on_c, 12, 67, 0
15, 499080, Note_on_c, 12, 59, 52
15, 499199, Note_on_c, 12, 59, 0
15, 499200, Note_on_c, 12, 60, 53
15, 499319, Note_on_c, 12, 60, 0
15, 499320, Note_on_c, 12, 64, 55
15, 499439, Note_on_c, 12, 64, 0
15, 499440, Note_on_c, 12, 65, 57
15, 499559, Note_on_c, 12, 65, 0
15, 499560, Note_on_c, 12, 67, 59
15, 499679, Note_on_c, 12, 67, 0
15, 499680, Note_on_c, 12, 68, 61
15, 499799, Note_on_c, 12, 68, 0
15, 499800, Note_on_c, 12, 71, 63
15, 499919, Note_on_c, 12, 71, 0
15, 499920, Note_on_c, 12, 72, 65
15, 500039, Note_on_c, 12, 72, 0
15, 500040, Note_on_c, 12, 68, 67
15, 500159, Note_on_c, 12, 68, 0
15, 500160, Note_on_c, 12, 67, 68
15, 500279, Note_on_c, 12, 67, 0
15, 500280, Note_on_c, 12, 65, 70
15, 500384, Note_on_c, 12, 65, 0
15, 500400, Note_on_c, 12, 63, 72
15, 500451, Note_on_c, 12, 63, 0
15, 500460, Note_on_c, 12, 63, 73
15, 500511, Note_on_c, 12, 63, 0
15, 500520, Note_on_c, 12, 67, 74
15, 500571, Note_on_c, 12, 67, 0
15, 500580, Note_on_c, 12, 67, 75
15, 500631, Note_on_c, 12, 67, 0
15, 500640, Note_on_c, 12, 70, 76
15, 500691, Note_on_c, 12, 70, 0
15, 500700, Note_on_c, 12, 70, 77
15, 500751, Note_on_c, 12, 70, 0
15, 500760, Note_on_c, 12, 70, 78
15, 500811, Note_on_c, 12, 70, 0
15, 500820, Note_on_c, 12, 70, 79
15, 500871, Note_on_c, 12, 70, 0
15, 500880, Note_on_c, 12, 75, 80
15, 500931, Note_on_c, 12, 75, 0
15, 500940, Note_on_c, 12, 75, 81
15, 500991, Note_on_c, 12, 75, 0
15, 501000, Note_on_c, 12, 79, 82
15, 501051, Note_on_c, 12, 79, 0
15, 501060, Note_on_c, 12, 79, 83
15, 501111, Note_on_c, 12, 79, 0
15, 501120, Note_on_c, 12, 80, 84
15, 501171, Note_on_c, 12, 80, 0
15, 501180, Note_on_c, 12, 68, 84
15, 501231, Note_on_c, 12, 68, 0
15, 501240, Note_on_c, 12, 68, 84
15, 501291, Note_on_c, 12, 68, 0
15, 501300, Note_on_c, 12, 68, 84
15, 501351, Note_on_c, 12, 68, 0
15, 501360, Note_on_c, 12, 68, 84
15, 501411, Note_on_c, 12, 68, 0
15, 501420, Note_on_c, 12, 68, 84
15, 501471, Note_on_c, 12, 68, 0
15, 501480, Note_on_c, 12, 68, 84
15, 501531, Note_on_c, 12, 68, 0
15, 501540, Note_on_c, 12, 68, 84
15, 501591, Note_on_c, 12, 68, 0
15, 501600, Note_on_c, 12, 68, 84
15, 501651, Note_on_c, 12, 68, 0
15, 501660, Note_on_c, 12, 68, 84
15, 501711, Note_on_c, 12, 68, 0
15, 501720, Note_on_c, 12, 68, 84
15, 501771, Note_on_c, 12, 68, 0
15, 501780, Note_on_c, 12, 68, 84
15, 501831, Note_on_c, 12, 68, 0
15, 501840, Note_on_c, 12, 67, 76
15, 502019, Note_on_c, 12, 67, 0
15, 502080, Note_on_c, 12, 70, 84
15, 502259, Note_on_c, 12, 70, 0
15, 502320, Note_on_c, 12, 67, 76
15, 502499, Note_on_c, 12, 67, 0
15, 502800, Note_on_c, 12, 72, 84
15, 502979, Note_on_c, 12, 72, 0
15, 503040, Note_on_c, 12, 68, 76
15, 503219, Note_on_c, 12, 68, 0
15, 503520, Note_on_c, 12, 70, 84
15, 503699, Note_on_c, 12, 70, 0
15, 503760, Note_on_c, 12, 67, 76
15, 503939, Note_on_c, 12, 67, 0
15, 504000, Note_on_c, 12, 71, 76
15, 504000, Note_on_c, 12, 68, 76
15, 504179, Note_on_c, 12, 71, 0
15, 504179, Note_on_c, 12, 68, 0
15, 504240, Note_on_c, 12, 68, 76
15, 504240, Note_on_c, 12, 71, 76
15, 504419, Note_on_c, 12, 68, 0
15, 504419, Note_on_c, 12, 71, 0
15, 504480, Note_on_c, 12, 68, 76
15, 504480, Note_on_c, 12, 71, 76
15, 504659, Note_on_c, 12, 68, 0
15, 504659, Note_on_c, 12, 71, 0
15, 504720, Note_on_c, 12, 70, 76
15, 504720, Note_on_c, 12, 67, 52
15, 504839, Note_on_c, 12, 70, 0
15, 504839, Note_on_c, 12, 67, 0
15, 504840, Note_on_c, 12, 67, 52
15, 504840, Note_on_c, 12, 70, 52
15, 505199, Note_on_c, 12, 67, 0
15, 505199, Note_on_c, 12, 70, 0
15, 505200, Note_on_c, 12, 67, 52
15, 505439, Note_on_c, 12, 67, 0
15, 505440, Note_on_c, 12, 63, 52
15, 505919, Note_on_c, 12, 63, 0
15, 505920, Note_on_c, 12, 58, 52
15, 506144, Note_on_c, 12, 58, 0
15, 506160, Control_c, 12, 11, 127
15, 506160, Note_on_c, 12, 63, 52
15, 506256, Control_c, 12, 11, 126
15, 506352, Control_c, 12, 11, 125
15, 506448, Control_c, 12, 11, 124
15, 506544, Control_c, 12, 11, 123
15, 506640, Control_c, 12, 11, 122
15, 506736, Control_c, 12, 11, 121
15, 506832, Control_c, 12, 11, 120
15, 506928, Control_c, 12, 11, 119
15, 507024, Control_c, 12, 11, 118
15, 507120, Control_c, 12, 11, 117
15, 507216, Control_c, 12, 11, 116
15, 507312, Control_c, 12, 11, 115
15, 507408, Control_c, 12, 11, 114
15, 507504, Control_c, 12, 11, 112
15, 507599, Note_on_c, 12, 63, 0
15, 507600, Note_on_c, 12, 63, 52
15, 509009, Note_on_c, 12, 63, 0
15, 509025, Control_c, 12, 11, 127
15, 509040, Note_on_c, 12, 61, 76
15, 509519, Note_on_c, 12, 61, 0
15, 509520, Note_on_c, 12, 65, 76
15, 509759, Note_on_c, 12, 65, 0
15, 509760, Note_on_c, 12, 61, 76
15, 510239, Note_on_c, 12, 61, 0
15, 510240, Note_on_c, 12, 56, 76
15, 510464, Note_on_c, 12, 56, 0
15, 510480, Note_on_c, 12, 61, 52
15, 511904, Note_on_c, 12, 61, 0
15, 511920, Note_on_c, 12, 60, 84
15, 511971, Note_on_c, 12, 60, 0
15, 511980, Note_on_c, 12, 64, 84
15, 511980, Note_on_c, 12, 55, 84
15, 512031, Note_on_c, 12, 64, 0
15, 512031, Note_on_c, 12, 55, 0
15, 512040, Note_on_c, 12, 55, 84
15, 512040, Note_on_c, 12, 64, 84
15, 512091, Note_on_c, 12, 55, 0
15, 512091, Note_on_c, 12, 64, 0
15, 512100, Note_on_c, 12, 55, 84
15, 512100, Note_on_c, 12, 64, 84
15, 512151, Note_on_c, 12, 55, 0
15, 512151, Note_on_c, 12, 64, 0
15, 512160, Note_on_c, 12, 55, 84
15, 512160, Note_on_c, 12, 64, 84
15, 512211, Note_on_c, 12, 55, 0
15, 512211, Note_on_c, 12, 64, 0
15, 512220, Note_on_c, 12, 55, 84
15, 512220, Note_on_c, 12, 64, 84
15, 512271, Note_on_c, 12, 55, 0
15, 512271, Note_on_c, 12, 64, 0
15, 512280, Note_on_c, 12, 55, 84
15, 512280, Note_on_c, 12, 64, 84
15, 512331, Note_on_c, 12, 55, 0
15, 512331, Note_on_c, 12, 64, 0
15, 512340, Note_on_c, 12, 64, 84
15, 512340, Note_on_c, 12, 55, 84
15, 512391, Note_on_c, 12, 64, 0
15, 512391, Note_on_c, 12, 55, 0
15, 512400, Note_on_c, 12, 55, 84
15, 512400, Note_on_c, 12, 64, 84
15, 512451, Note_on_c, 12, 55, 0
15, 512451, Note_on_c, 12, 64, 0
15, 512460, Note_on_c, 12, 55, 84
15, 512460, Note_on_c, 12, 64, 84
15, 512511, Note_on_c, 12, 55, 0
15, 512511, Note_on_c, 12, 64, 0
15, 512520, Note_on_c, 12, 55, 84
15, 512520, Note_on_c, 12, 64, 84
15, 512571, Note_on_c, 12, 55, 0
15, 512571, Note_on_c, 12, 64, 0
15, 512580, Note_on_c, 12, 64, 84
15, 512580, Note_on_c, 12, 55, 84
15, 512631, Note_on_c, 12, 64, 0
15, 512631, Note_on_c, 12, 55, 0
15, 512640, Note_on_c, 12, 64, 84
15, 512640, Note_on_c, 12, 55, 84
15, 512691, Note_on_c, 12, 64, 0
15, 512691, Note_on_c, 12, 55, 0
15, 512700, Note_on_c, 12, 72, 84
15, 512700, Note_on_c, 12, 64, 84
15, 512751, Note_on_c, 12, 72, 0
15, 512751, Note_on_c, 12, 64, 0
15, 512760, Note_on_c, 12, 72, 84
15, 512760, Note_on_c, 12, 64, 84
15, 512811, Note_on_c, 12, 72, 0
15, 512811, Note_on_c, 12, 64, 0
15, 512820, Note_on_c, 12, 64, 84
15, 512820, Note_on_c, 12, 72, 84
15, 512871, Note_on_c, 12, 64, 0
15, 512871, Note_on_c, 12, 72, 0
15, 512880, Note_on_c, 12, 72, 84
15, 512880, Note_on_c, 12, 64, 84
15, 512931, Note_on_c, 12, 72, 0
15, 512931, Note_on_c, 12, 64, 0
15, 512940, Note_on_c, 12, 64, 84
15, 512940, Note_on_c, 12, 72, 84
15, 512991, Note_on_c, 12, 64, 0
15, 512991, Note_on_c, 12, 72, 0
15, 513000, Note_on_c, 12, 64, 84
15, 513000, Note_on_c, 12, 72, 84
15, 513051, Note_on_c, 12, 64, 0
15, 513051, Note_on_c, 12, 72, 0
15, 513060, Note_on_c, 12, 64, 84
15, 513060, Note_on_c, 12, 72, 84
15, 513111, Note_on_c, 12, 64, 0
15, 513111, Note_on_c, 12, 72, 0
15, 513120, Note_on_c, 12, 72, 84
15, 513120, Note_on_c, 12, 64, 84
15, 513171, Note_on_c, 12, 72, 0
15, 513171, Note_on_c, 12, 64, 0
15, 513180, Note_on_c, 12, 72, 84
15, 513180, Note_on_c, 12, 64, 84
15, 513231, Note_on_c, 12, 72, 0
15, 513231, Note_on_c, 12, 64, 0
15, 513240, Note_on_c, 12, 72, 84
15, 513240, Note_on_c, 12, 64, 84
15, 513291, Note_on_c, 12, 72, 0
15, 513291, Note_on_c, 12, 64, 0
15, 513300, Note_on_c, 12, 72, 84
15, 513300, Note_on_c, 12, 64, 84
15, 513351, Note_on_c, 12, 72, 0
15, 513351, Note_on_c, 12, 64, 0
15, 513360, Note_on_c, 12, 64, 52
15, 513360, Note_on_c, 12, 72, 52
15, 513599, Note_on_c, 12, 64, 0
15, 513599, Note_on_c, 12, 72, 0
15, 514080, Control_c, 12, 11, 127
15, 514080, Note_on_c, 12, 60, 52
15, 514140, Control_c, 12, 11, 126
15, 514200, Control_c, 12, 11, 125
15, 514260, Control_c, 12, 11, 123
15, 514320, Control_c, 12, 11, 122
15, 514380, Control_c, 12, 11, 121
15, 514440, Control_c, 12, 11, 120
15, 514500, Control_c, 12, 11, 118
15, 514560, Control_c, 12, 11, 117
15, 514620, Control_c, 12, 11, 116
15, 514680, Control_c, 12, 11, 115
15, 514740, Control_c, 12, 11, 112
15, 515279, Note_on_c, 12, 60, 0
15, 515280, Note_on_c, 12, 64, 52
15, 515519, Note_on_c, 12, 64, 0
15, 515520, Note_on_c, 12, 60, 52
15, 515999, Note_on_c, 12, 60, 0
15, 516000, Note_on_c, 12, 55, 52
15, 516224, Note_on_c, 12, 55, 0
15, 516232, Control_c, 12, 11, 127
15, 516240, Note_on_c, 12, 60, 44
15, 516719, Note_on_c, 12, 60, 0
15, 516720, Note_on_c, 12, 64, 44
15, 516959, Note_on_c, 12, 64, 0
15, 516960, Note_on_c, 12, 60, 44
15, 517439, Note_on_c, 12, 60, 0
15, 517440, Note_on_c, 12, 55, 44
15, 517664, Note_on_c, 12, 55, 0
15, 517680, Note_on_c, 12, 62, 44
15, 518159, Note_on_c, 12, 62, 0
15, 518160, Note_on_c, 12, 65, 44
15, 518399, Note_on_c, 12, 65, 0
15, 518400, Note_on_c, 12, 62, 44
15, 518879, Note_on_c, 12, 62, 0
15, 518880, Note_on_c, 12, 55, 44
15, 519104, Note_on_c, 12, 55, 0
15, 519120, Note_on_c, 12, 62, 44
15, 519599, Note_on_c, 12, 62, 0
15, 519600, Note_on_c, 12, 65, 44
15, 519839, Note_on_c, 12, 65, 0
15, 519840, Note_on_c, 12, 62, 44
15, 520319, Note_on_c, 12, 62, 0
15, 520320, Note_on_c, 12, 55, 44
15, 520544, Note_on_c, 12, 55, 0
15, 520560, Note_on_c, 12, 64, 44
15, 521039, Note_on_c, 12, 64, 0
15, 521040, Note_on_c, 12, 67, 44
15, 521279, Note_on_c, 12, 67, 0
15, 521280, Note_on_c, 12, 64, 44
15, 521759, Note_on_c, 12, 64, 0
15, 521760, Note_on_c, 12, 60, 44
15, 521984, Note_on_c, 12, 60, 0
15, 522000, Note_on_c, 12, 65, 44
15, 522479, Note_on_c, 12, 65, 0
15, 522480, Note_on_c, 12, 68, 44
15, 522719, Note_on_c, 12, 68, 0
15, 522720, Note_on_c, 12, 65, 44
15, 523199, Note_on_c, 12, 65, 0
15, 523200, Note_on_c, 12, 60, 44
15, 523424, Note_on_c, 12, 60, 0
15, 523440, Note_on_c, 12, 67, 44
15, 523679, Note_on_c, 12, 67, 0
15, 525000, Note_on_c, 12, 56, 44
15, 525089, Note_on_c, 12, 56, 0
15, 525120, Note_on_c, 12, 55, 44
15, 525209, Note_on_c, 12, 55, 0
15, 525240, Note_on_c, 12, 56, 44
15, 525329, Note_on_c, 12, 56, 0
15, 525360, Note_on_c, 12, 58, 44
15, 525449, Note_on_c, 12, 58, 0
15, 525480, Note_on_c, 12, 59, 44
15, 525569, Note_on_c, 12, 59, 0
15, 525600, Note_on_c, 12, 60, 44
15, 525689, Note_on_c, 12, 60, 0
15, 525720, Note_on_c, 12, 59, 44
15, 525809, Note_on_c, 12, 59, 0
15, 525840, Note_on_c, 12, 60, 44
15, 525929, Note_on_c, 12, 60, 0
15, 525960, Note_on_c, 12, 62, 44
15, 526049, Note_on_c, 12, 62, 0
15, 526080, Note_on_c, 12, 63, 44
15, 526169, Note_on_c, 12, 63, 0
15, 526200, Note_on_c, 12, 64, 44
15, 526289, Note_on_c, 12, 64, 0
15, 526320, Note_on_c, 12, 65, 52
15, 526544, Note_on_c, 12, 65, 0
15, 526560, Note_on_c, 12, 68, 52
15, 526799, Note_on_c, 12, 68, 0
15, 526800, Note_on_c, 12, 70, 52
15, 527039, Note_on_c, 12, 70, 0
15, 527040, Note_on_c, 12, 72, 68
15, 527399, Note_on_c, 12, 72, 0
15, 527400, Note_on_c, 12, 70, 52
15, 527519, Note_on_c, 12, 70, 0
15, 527520, Note_on_c, 12, 68, 52
15, 527744, Note_on_c, 12, 68, 0
15, 527760, Note_on_c, 12, 67, 52
15, 527984, Note_on_c, 12, 67, 0
15, 528000, Note_on_c, 12, 67, 52
15, 528239, Note_on_c, 12, 67, 0
15, 528240, Note_on_c, 12, 65, 52
15, 528479, Note_on_c, 12, 65, 0
15, 528480, Note_on_c, 12, 64, 68
15, 528959, Note_on_c, 12, 64, 0
15, 528960, Note_on_c, 12, 65, 52
15, 529079, Note_on_c, 12, 65, 0
15, 529080, Note_on_c, 12, 67, 52
15, 529184, Note_on_c, 12, 67, 0
15, 529200, Note_on_c, 12, 68, 52
15, 529379, Note_on_c, 12, 68, 0
15, 529440, Note_on_c, 12, 68, 52
15, 529679, Note_on_c, 12, 68, 0
15, 529680, Note_on_c, 12, 70, 52
15, 529919, Note_on_c, 12, 70, 0
15, 529920, Note_on_c, 12, 72, 68
15, 530279, Note_on_c, 12, 72, 0
15, 530280, Note_on_c, 12, 70, 52
15, 530399, Note_on_c, 12, 70, 0
15, 530400, Note_on_c, 12, 68, 52
15, 530609, Note_on_c, 12, 68, 0
15, 530625, Control_c, 12, 11, 96
15, 530640, Control_c, 12, 11, 96
15, 530640, Note_on_c, 12, 68, 68
15, 530700, Control_c, 12, 11, 97
15, 530744, Note_on_c, 12, 68, 0
15, 530760, Note_on_c, 12, 58, 68
15, 530760, Control_c, 12, 11, 99
15, 530820, Control_c, 12, 11, 100
15, 530880, Control_c, 12, 11, 101
15, 530940, Control_c, 12, 11, 102
15, 530984, Note_on_c, 12, 58, 0
15, 531000, Control_c, 12, 11, 104
15, 531000, Note_on_c, 12, 58, 68
15, 531060, Control_c, 12, 11, 105
15, 531120, Control_c, 12, 11, 106
15, 531180, Control_c, 12, 11, 108
15, 531224, Note_on_c, 12, 58, 0
15, 531240, Note_on_c, 12, 58, 68
15, 531240, Control_c, 12, 11, 109
15, 531300, Control_c, 12, 11, 110
15, 531360, Control_c, 12, 11, 112
15, 531420, Control_c, 12, 11, 113
15, 531464, Note_on_c, 12, 58, 0
15, 531480, Note_on_c, 12, 58, 68
15, 531480, Control_c, 12, 11, 114
15, 531540, Control_c, 12, 11, 115
15, 531600, Control_c, 12, 11, 117
15, 531660, Control_c, 12, 11, 118
15, 531704, Note_on_c, 12, 58, 0
15, 531720, Note_on_c, 12, 58, 68
15, 531720, Control_c, 12, 11, 119
15, 531780, Control_c, 12, 11, 121
15, 531840, Control_c, 12, 11, 122
15, 531900, Control_c, 12, 11, 123
15, 531944, Note_on_c, 12, 58, 0
15, 531960, Note_on_c, 12, 58, 68
15, 531960, Control_c, 12, 11, 124
15, 532020, Control_c, 12, 11, 127
15, 532184, Note_on_c, 12, 58, 0
15, 532200, Note_on_c, 12, 70, 52
15, 532424, Note_on_c, 12, 70, 0
15, 532440, Note_on_c, 12, 70, 52
15, 532664, Note_on_c, 12, 70, 0
15, 532680, Note_on_c, 12, 70, 52
15, 532904, Note_on_c, 12, 70, 0
15, 532920, Note_on_c, 12, 70, 52
15, 533144, Note_on_c, 12, 70, 0
15, 533160, Note_on_c, 12, 70, 52
15, 533384, Note_on_c, 12, 70, 0
15, 533400, Note_on_c, 12, 70, 52
15, 533624, Note_on_c, 12, 70, 0
15, 533640, Note_on_c, 12, 58, 52
15, 533864, Note_on_c, 12, 58, 0
15, 533880, Note_on_c, 12, 58, 52
15, 534104, Note_on_c, 12, 58, 0
15, 534120, Note_on_c, 12, 58, 52
15, 534344, Note_on_c, 12, 58, 0
15, 534360, Note_on_c, 12, 58, 52
15, 534584, Note_on_c, 12, 58, 0
15, 534600, Note_on_c, 12, 58, 52
15, 534824, Note_on_c, 12, 58, 0
15, 534840, Note_on_c, 12, 58, 52
15, 535064, Note_on_c, 12, 58, 0
15, 535080, Note_on_c, 12, 70, 52
15, 535304, Note_on_c, 12, 70, 0
15, 535320, Note_on_c, 12, 70, 52
15, 535544, Note_on_c, 12, 70, 0
15, 535560, Note_on_c, 12, 70, 52
15, 535784, Note_on_c, 12, 70, 0
15, 535800, Note_on_c, 12, 70, 52
15, 536024, Note_on_c, 12, 70, 0
15, 536040, Note_on_c, 12, 70, 52
15, 536264, Note_on_c, 12, 70, 0
15, 536280, Note_on_c, 12, 70, 52
15, 536639, Note_on_c, 12, 70, 0
15, 537240, Note_on_c, 12, 75, 52
15, 537299, Note_on_c, 12, 75, 0
15, 537300, Note_on_c, 12, 74, 52
15, 537351, Note_on_c, 12, 74, 0
15, 537360, Note_on_c, 12, 75, 52
15, 537449, Note_on_c, 12, 75, 0
15, 537480, Note_on_c, 12, 75, 52
15, 537569, Note_on_c, 12, 75, 0
15, 537600, Note_on_c, 12, 75, 52
15, 537689, Note_on_c, 12, 75, 0
15, 537720, Note_on_c, 12, 75, 52
15, 537809, Note_on_c, 12, 75, 0
15, 537840, Note_on_c, 12, 75, 52
15, 538664, Note_on_c, 12, 75, 0
15, 538680, Note_on_c, 12, 77, 52
15, 538739, Note_on_c, 12, 77, 0
15, 538740, Note_on_c, 12, 76, 52
15, 538791, Note_on_c, 12, 76, 0
15, 538800, Note_on_c, 12, 77, 52
15, 538889, Note_on_c, 12, 77, 0
15, 538920, Note_on_c, 12, 77, 52
15, 539009, Note_on_c, 12, 77, 0
15, 539040, Note_on_c, 12, 77, 52
15, 539129, Note_on_c, 12, 77, 0
15, 539160, Note_on_c, 12, 77, 52
15, 539249, Note_on_c, 12, 77, 0
15, 539400, Note_on_c, 12, 77, 52
15, 539459, Note_on_c, 12, 77, 0
15, 539460, Note_on_c, 12, 76, 52
15, 539511, Note_on_c, 12, 76, 0
15, 539520, Note_on_c, 12, 77, 52
15, 539609, Note_on_c, 12, 77, 0
15, 539640, Note_on_c, 12, 77, 51
15, 539729, Note_on_c, 12, 77, 0
15, 539760, Note_on_c, 12, 77, 51
15, 539849, Note_on_c, 12, 77, 0
15, 539880, Note_on_c, 12, 77, 51
15, 539969, Note_on_c, 12, 77, 0
15, 540120, Note_on_c, 12, 75, 50
15, 540179, Note_on_c, 12, 75, 0
15, 540180, Note_on_c, 12, 74, 50
15, 540231, Note_on_c, 12, 74, 0
15, 540240, Note_on_c, 12, 75, 50
15, 540329, Note_on_c, 12, 75, 0
15, 540360, Note_on_c, 12, 75, 49
15, 540449, Note_on_c, 12, 75, 0
15, 540480, Note_on_c, 12, 75, 49
15, 540569, Note_on_c, 12, 75, 0
15, 540600, Note_on_c, 12, 75, 49
15, 540689, Note_on_c, 12, 75, 0
15, 540840, Note_on_c, 12, 75, 48
15, 540899, Note_on_c, 12, 75, 0
15, 540900, Note_on_c, 12, 63, 48
15, 540951, Note_on_c, 12, 63, 0
15, 540960, Note_on_c, 12, 75, 48
15, 541049, Note_on_c, 12, 75, 0
15, 541080, Note_on_c, 12, 75, 47
15, 541169, Note_on_c, 12, 75, 0
15, 541200, Note_on_c, 12, 75, 47
15, 541289, Note_on_c, 12, 75, 0
15, 541320, Note_on_c, 12, 75, 47
15, 541409, Note_on_c, 12, 75, 0
15, 541560, Note_on_c, 12, 75, 46
15, 541619, Note_on_c, 12, 75, 0
15, 541620, Note_on_c, 12, 63, 46
15, 541671, Note_on_c, 12, 63, 0
15, 541680, Note_on_c, 12, 75, 46
15, 541769, Note_on_c, 12, 75, 0
15, 541800, Note_on_c, 12, 75, 45
15, 541889, Note_on_c, 12, 75, 0
15, 541920, Note_on_c, 12, 75, 45
15, 542009, Note_on_c, 12, 75, 0
15, 542040, Note_on_c, 12, 75, 45
15, 542129, Note_on_c, 12, 75, 0
15, 542160, Note_on_c, 12, 74, 44
15, 542219, Note_on_c, 12, 74, 0
15, 542220, Note_on_c, 12, 58, 44
15, 542271, Note_on_c, 12, 58, 0
15, 542280, Note_on_c, 12, 58, 44
15, 542331, Note_on_c, 12, 58, 0
15, 542340, Note_on_c, 12, 58, 44
15, 542391, Note_on_c, 12, 58, 0
15, 542400, Note_on_c, 12, 58, 44
15, 542451, Note_on_c, 12, 58, 0
15, 542460, Note_on_c, 12, 58, 44
15, 542511, Note_on_c, 12, 58, 0
15, 542520, Note_on_c, 12, 58, 44
15, 542571, Note_on_c, 12, 58, 0
15, 542580, Note_on_c, 12, 58, 44
15, 542631, Note_on_c, 12, 58, 0
15, 542640, Note_on_c, 12, 58, 44
15, 542691, Note_on_c, 12, 58, 0
15, 542700, Note_on_c, 12, 58, 44
15, 542751, Note_on_c, 12, 58, 0
15, 542760, Note_on_c, 12, 58, 44
15, 542811, Note_on_c, 12, 58, 0
15, 542820, Note_on_c, 12, 58, 44
15, 542871, Note_on_c, 12, 58, 0
15, 542880, Note_on_c, 12, 58, 44
15, 542931, Note_on_c, 12, 58, 0
15, 542940, Note_on_c, 12, 58, 44
15, 542991, Note_on_c, 12, 58, 0
15, 543000, Note_on_c, 12, 58, 44
15, 543051, Note_on_c, 12, 58, 0
15, 543060, Note_on_c, 12, 58, 44
15, 543111, Note_on_c, 12, 58, 0
15, 543120, Note_on_c, 12, 58, 44
15, 543171, Note_on_c, 12, 58, 0
15, 543180, Note_on_c, 12, 58, 44
15, 543231, Note_on_c, 12, 58, 0
15, 543240, Note_on_c, 12, 58, 44
15, 543291, Note_on_c, 12, 58, 0
15, 543300, Note_on_c, 12, 58, 44
15, 543351, Note_on_c, 12, 58, 0
15, 543360, Note_on_c, 12, 58, 44
15, 543411, Note_on_c, 12, 58, 0
15, 543420, Note_on_c, 12, 58, 44
15, 543471, Note_on_c, 12, 58, 0
15, 543480, Note_on_c, 12, 58, 44
15, 543531, Note_on_c, 12, 58, 0
15, 543540, Note_on_c, 12, 58, 44
15, 543591, Note_on_c, 12, 58, 0
15, 543600, Note_on_c, 12, 58, 44
15, 543600, Note_on_c, 12, 65, 44
15, 543651, Note_on_c, 12, 58, 0
15, 543651, Note_on_c, 12, 65, 0
15, 543660, Note_on_c, 12, 65, 44
15, 543660, Note_on_c, 12, 58, 44
15, 543711, Note_on_c, 12, 65, 0
15, 543711, Note_on_c, 12, 58, 0
15, 543720, Note_on_c, 12, 65, 44
15, 543720, Note_on_c, 12, 58, 44
15, 543771, Note_on_c, 12, 65, 0
15, 543771, Note_on_c, 12, 58, 0
15, 543780, Note_on_c, 12, 65, 44
15, 543780, Note_on_c, 12, 58, 44
15, 543831, Note_on_c, 12, 65, 0
15, 543831, Note_on_c, 12, 58, 0
15, 543840, Note_on_c, 12, 65, 44
15, 543840, Note_on_c, 12, 58, 44
15, 543891, Note_on_c, 12, 65, 0
15, 543891, Note_on_c, 12, 58, 0
15, 543900, Note_on_c, 12, 58, 44
15, 543900, Note_on_c, 12, 65, 44
15, 543951, Note_on_c, 12, 58, 0
15, 543951, Note_on_c, 12, 65, 0
15, 543960, Note_on_c, 12, 65, 44
15, 543960, Note_on_c, 12, 58, 44
15, 544011, Note_on_c, 12, 65, 0
15, 544011, Note_on_c, 12, 58, 0
15, 544020, Note_on_c, 12, 65, 44
15, 544020, Note_on_c, 12, 58, 44
15, 544071, Note_on_c, 12, 65, 0
15, 544071, Note_on_c, 12, 58, 0
15, 544080, Note_on_c, 12, 65, 44
15, 544080, Note_on_c, 12, 58, 44
15, 544131, Note_on_c, 12, 65, 0
15, 544131, Note_on_c, 12, 58, 0
15, 544140, Note_on_c, 12, 58, 44
15, 544140, Note_on_c, 12, 65, 44
15, 544191, Note_on_c, 12, 58, 0
15, 544191, Note_on_c, 12, 65, 0
15, 544200, Note_on_c, 12, 65, 44
15, 544200, Note_on_c, 12, 58, 44
15, 544251, Note_on_c, 12, 65, 0
15, 544251, Note_on_c, 12, 58, 0
15, 544260, Note_on_c, 12, 65, 44
15, 544260, Note_on_c, 12, 58, 44
15, 544311, Note_on_c, 12, 65, 0
15, 544311, Note_on_c, 12, 58, 0
15, 544320, Note_on_c, 12, 68, 44
15, 544320, Note_on_c, 12, 58, 44
15, 544371, Note_on_c, 12, 68, 0
15, 544371, Note_on_c, 12, 58, 0
15, 544380, Note_on_c, 12, 68, 44
15, 544380, Note_on_c, 12, 58, 44
15, 544431, Note_on_c, 12, 68, 0
15, 544431, Note_on_c, 12, 58, 0
15, 544440, Note_on_c, 12, 58, 44
15, 544440, Note_on_c, 12, 68, 44
15, 544491, Note_on_c, 12, 58, 0
15, 544491, Note_on_c, 12, 68, 0
15, 544500, Note_on_c, 12, 68, 44
15, 544500, Note_on_c, 12, 58, 44
15, 544551, Note_on_c, 12, 68, 0
15, 544551, Note_on_c, 12, 58, 0
15, 544560, Note_on_c, 12, 58, 44
15, 544560, Note_on_c, 12, 68, 44
15, 544611, Note_on_c, 12, 58, 0
15, 544611, Note_on_c, 12, 68, 0
15, 544620, Note_on_c, 12, 68, 44
15, 544620, Note_on_c, 12, 58, 44
15, 544671, Note_on_c, 12, 68, 0
15, 544671, Note_on_c, 12, 58, 0
15, 544680, Note_on_c, 12, 68, 44
15, 544680, Note_on_c, 12, 58, 44
15, 544731, Note_on_c, 12, 68, 0
15, 544731, Note_on_c, 12, 58, 0
15, 544740, Note_on_c, 12, 58, 44
15, 544740, Note_on_c, 12, 68, 44
15, 544791, Note_on_c, 12, 58, 0
15, 544791, Note_on_c, 12, 68, 0
15, 544800, Note_on_c, 12, 68, 44
15, 544800, Note_on_c, 12, 58, 44
15, 544851, Note_on_c, 12, 68, 0
15, 544851, Note_on_c, 12, 58, 0
15, 544860, Note_on_c, 12, 68, 44
15, 544860, Note_on_c, 12, 58, 44
15, 544911, Note_on_c, 12, 68, 0
15, 544911, Note_on_c, 12, 58, 0
15, 544920, Note_on_c, 12, 58, 44
15, 544920, Note_on_c, 12, 68, 44
15, 544971, Note_on_c, 12, 58, 0
15, 544971, Note_on_c, 12, 68, 0
15, 544980, Note_on_c, 12, 68, 44
15, 544980, Note_on_c, 12, 58, 44
15, 545031, Note_on_c, 12, 68, 0
15, 545031, Note_on_c, 12, 58, 0
15, 545040, Note_on_c, 12, 69, 44
15, 545091, Note_on_c, 12, 69, 0
15, 545100, Note_on_c, 12, 69, 44
15, 545151, Note_on_c, 12, 69, 0
15, 545160, Note_on_c, 12, 69, 44
15, 545211, Note_on_c, 12, 69, 0
15, 545220, Note_on_c, 12, 69, 44
15, 545271, Note_on_c, 12, 69, 0
15, 545280, Note_on_c, 12, 69, 44
15, 545331, Note_on_c, 12, 69, 0
15, 545340, Note_on_c, 12, 69, 44
15, 545391, Note_on_c, 12, 69, 0
15, 545400, Note_on_c, 12, 69, 44
15, 545451, Note_on_c, 12, 69, 0
15, 545460, Note_on_c, 12, 69, 44
15, 545511, Note_on_c, 12, 69, 0
15, 545520, Note_on_c, 12, 69, 44
15, 545571, Note_on_c, 12, 69, 0
15, 545580, Note_on_c, 12, 69, 44
15, 545631, Note_on_c, 12, 69, 0
15, 545640, Note_on_c, 12, 69, 44
15, 545691, Note_on_c, 12, 69, 0
15, 545700, Note_on_c, 12, 69, 44
15, 545751, Note_on_c, 12, 69, 0
15, 545760, Note_on_c, 12, 69, 44
15, 545811, Note_on_c, 12, 69, 0
15, 545820, Note_on_c, 12, 69, 44
15, 545871, Note_on_c, 12, 69, 0
15, 545880, Note_on_c, 12, 69, 44
15, 545931, Note_on_c, 12, 69, 0
15, 545940, Note_on_c, 12, 69, 44
15, 545991, Note_on_c, 12, 69, 0
15, 546000, Note_on_c, 12, 69, 44
15, 546051, Note_on_c, 12, 69, 0
15, 546060, Note_on_c, 12, 69, 44
15, 546111, Note_on_c, 12, 69, 0
15, 546120, Note_on_c, 12, 69, 44
15, 546171, Note_on_c, 12, 69, 0
15, 546180, Note_on_c, 12, 69, 44
15, 546231, Note_on_c, 12, 69, 0
15, 546240, Note_on_c, 12, 69, 44
15, 546291, Note_on_c, 12, 69, 0
15, 546300, Note_on_c, 12, 69, 44
15, 546351, Note_on_c, 12, 69, 0
15, 546360, Note_on_c, 12, 69, 44
15, 546411, Note_on_c, 12, 69, 0
15, 546420, Note_on_c, 12, 69, 44
15, 546471, Note_on_c, 12, 69, 0
15, 546480, Note_on_c, 12, 69, 44
15, 546531, Note_on_c, 12, 69, 0
15, 546540, Note_on_c, 12, 69, 44
15, 546591, Note_on_c, 12, 69, 0
15, 546600, Note_on_c, 12, 69, 44
15, 546651, Note_on_c, 12, 69, 0
15, 546660, Note_on_c, 12, 69, 44
15, 546711, Note_on_c, 12, 69, 0
15, 546720, Note_on_c, 12, 69, 44
15, 546771, Note_on_c, 12, 69, 0
15, 546780, Note_on_c, 12, 69, 44
15, 546831, Note_on_c, 12, 69, 0
15, 546840, Note_on_c, 12, 69, 44
15, 546891, Note_on_c, 12, 69, 0
15, 546900, Note_on_c, 12, 69, 44
15, 546951, Note_on_c, 12, 69, 0
15, 546960, Note_on_c, 12, 69, 44
15, 547011, Note_on_c, 12, 69, 0
15, 547020, Note_on_c, 12, 69, 44
15, 547071, Note_on_c, 12, 69, 0
15, 547080, Note_on_c, 12, 69, 44
15, 547131, Note_on_c, 12, 69, 0
15, 547140, Note_on_c, 12, 69, 44
15, 547191, Note_on_c, 12, 69, 0
15, 547200, Note_on_c, 12, 69, 44
15, 547251, Note_on_c, 12, 69, 0
15, 547260, Note_on_c, 12, 69, 44
15, 547311, Note_on_c, 12, 69, 0
15, 547320, Note_on_c, 12, 69, 44
15, 547371, Note_on_c, 12, 69, 0
15, 547380, Note_on_c, 12, 69, 44
15, 547431, Note_on_c, 12, 69, 0
15, 547440, Note_on_c, 12, 69, 44
15, 547491, Note_on_c, 12, 69, 0
15, 547500, Note_on_c, 12, 69, 44
15, 547551, Note_on_c, 12, 69, 0
15, 547560, Note_on_c, 12, 69, 44
15, 547611, Note_on_c, 12, 69, 0
15, 547620, Note_on_c, 12, 69, 44
15, 547671, Note_on_c, 12, 69, 0
15, 547680, Note_on_c, 12, 69, 44
15, 547731, Note_on_c, 12, 69, 0
15, 547740, Note_on_c, 12, 69, 44
15, 547791, Note_on_c, 12, 69, 0
15, 547800, Note_on_c, 12, 69, 44
15, 547851, Note_on_c, 12, 69, 0
15, 547860, Note_on_c, 12, 69, 44
15, 547911, Note_on_c, 12, 69, 0
15, 547920, Note_on_c, 12, 58, 44
15, 547971, Note_on_c, 12, 58, 0
15, 547980, Note_on_c, 12, 70, 44
15, 548031, Note_on_c, 12, 70, 0
15, 548040, Note_on_c, 12, 70, 44
15, 548091, Note_on_c, 12, 70, 0
15, 548100, Note_on_c, 12, 70, 44
15, 548151, Note_on_c, 12, 70, 0
15, 548160, Note_on_c, 12, 70, 44
15, 548211, Note_on_c, 12, 70, 0
15, 548220, Note_on_c, 12, 70, 44
15, 548271, Note_on_c, 12, 70, 0
15, 548280, Note_on_c, 12, 70, 44
15, 548331, Note_on_c, 12, 70, 0
15, 548340, Note_on_c, 12, 70, 44
15, 548391, Note_on_c, 12, 70, 0
15, 548400, Note_on_c, 12, 70, 44
15, 548451, Note_on_c, 12, 70, 0
15, 548460, Note_on_c, 12, 70, 44
15, 548511, Note_on_c, 12, 70, 0
15, 548520, Note_on_c, 12, 70, 44
15, 548571, Note_on_c, 12, 70, 0
15, 548580, Note_on_c, 12, 70, 44
15, 548631, Note_on_c, 12, 70, 0
15, 548640, Note_on_c, 12, 62, 44
15, 548640, Note_on_c, 12, 70, 44
15, 548691, Note_on_c, 12, 62, 0
15, 548691, Note_on_c, 12, 70, 0
15, 548700, Note_on_c, 12, 70, 44
15, 548700, Note_on_c, 12, 62, 44
15, 548751, Note_on_c, 12, 70, 0
15, 548751, Note_on_c, 12, 62, 0
15, 548760, Note_on_c, 12, 70, 44
15, 548760, Note_on_c, 12, 62, 44
15, 548811, Note_on_c, 12, 70, 0
15, 548811, Note_on_c, 12, 62, 0
15, 548820, Note_on_c, 12, 62, 44
15, 548820, Note_on_c, 12, 70, 44
15, 548871, Note_on_c, 12, 62, 0
15, 548871, Note_on_c, 12, 70, 0
15, 548880, Note_on_c, 12, 62, 44
15, 548880, Note_on_c, 12, 70, 44
15, 548931, Note_on_c, 12, 62, 0
15, 548931, Note_on_c, 12, 70, 0
15, 548940, Note_on_c, 12, 62, 44
15, 548940, Note_on_c, 12, 70, 44
15, 548991, Note_on_c, 12, 62, 0
15, 548991, Note_on_c, 12, 70, 0
15, 549000, Note_on_c, 12, 62, 44
15, 549000, Note_on_c, 12, 70, 44
15, 549051, Note_on_c, 12, 62, 0
15, 549051, Note_on_c, 12, 70, 0
15, 549060, Note_on_c, 12, 70, 44
15, 549060, Note_on_c, 12, 62, 44
15, 549111, Note_on_c, 12, 70, 0
15, 549111, Note_on_c, 12, 62, 0
15, 549120, Note_on_c, 12, 70, 44
15, 549120, Note_on_c, 12, 62, 44
15, 549171, Note_on_c, 12, 70, 0
15, 549171, Note_on_c, 12, 62, 0
15, 549180, Note_on_c, 12, 70, 44
15, 549180, Note_on_c, 12, 62, 44
15, 549231, Note_on_c, 12, 70, 0
15, 549231, Note_on_c, 12, 62, 0
15, 549240, Note_on_c, 12, 70, 44
15, 549240, Note_on_c, 12, 62, 44
15, 549291, Note_on_c, 12, 70, 0
15, 549291, Note_on_c, 12, 62, 0
15, 549300, Note_on_c, 12, 62, 44
15, 549300, Note_on_c, 12, 70, 44
15, 549351, Note_on_c, 12, 62, 0
15, 549351, Note_on_c, 12, 70, 0
15, 549360, Note_on_c, 12, 70, 44
15, 549360, Note_on_c, 12, 63, 44
15, 549411, Note_on_c, 12, 70, 0
15, 549411, Note_on_c, 12, 63, 0
15, 549420, Note_on_c, 12, 70, 44
15, 549420, Note_on_c, 12, 63, 44
15, 549471, Note_on_c, 12, 70, 0
15, 549471, Note_on_c, 12, 63, 0
15, 549480, Note_on_c, 12, 70, 44
15, 549480, Note_on_c, 12, 63, 44
15, 549531, Note_on_c, 12, 70, 0
15, 549531, Note_on_c, 12, 63, 0
15, 549540, Note_on_c, 12, 63, 44
15, 549540, Note_on_c, 12, 70, 44
15, 549591, Note_on_c, 12, 63, 0
15, 549591, Note_on_c, 12, 70, 0
15, 549600, Note_on_c, 12, 70, 44
15, 549600, Note_on_c, 12, 63, 44
15, 549651, Note_on_c, 12, 70, 0
15, 549651, Note_on_c, 12, 63, 0
15, 549660, Note_on_c, 12, 70, 44
15, 549660, Note_on_c, 12, 63, 44
15, 549711, Note_on_c, 12, 70, 0
15, 549711, Note_on_c, 12, 63, 0
15, 549720, Note_on_c, 12, 63, 44
15, 549720, Note_on_c, 12, 70, 44
15, 549771, Note_on_c, 12, 63, 0
15, 549771, Note_on_c, 12, 70, 0
15, 549780, Note_on_c, 12, 63, 44
15, 549780, Note_on_c, 12, 70, 44
15, 549831, Note_on_c, 12, 63, 0
15, 549831, Note_on_c, 12, 70, 0
15, 549840, Note_on_c, 12, 63, 44
15, 549840, Note_on_c, 12, 70, 44
15, 549891, Note_on_c, 12, 63, 0
15, 549891, Note_on_c, 12, 70, 0
15, 549900, Note_on_c, 12, 70, 44
15, 549900, Note_on_c, 12, 63, 44
15, 549951, Note_on_c, 12, 70, 0
15, 549951, Note_on_c, 12, 63, 0
15, 549960, Note_on_c, 12, 63, 44
15, 549960, Note_on_c, 12, 70, 44
15, 550011, Note_on_c, 12, 63, 0
15, 550011, Note_on_c, 12, 70, 0
15, 550020, Note_on_c, 12, 63, 44
15, 550020, Note_on_c, 12, 70, 44
15, 550071, Note_on_c, 12, 63, 0
15, 550071, Note_on_c, 12, 70, 0
15, 550080, Note_on_c, 12, 63, 44
15, 550080, Note_on_c, 12, 70, 44
15, 550131, Note_on_c, 12, 63, 0
15, 550131, Note_on_c, 12, 70, 0
15, 550140, Note_on_c, 12, 63, 44
15, 550140, Note_on_c, 12, 70, 44
15, 550191, Note_on_c, 12, 63, 0
15, 550191, Note_on_c, 12, 70, 0
15, 550200, Note_on_c, 12, 70, 44
15, 550200, Note_on_c, 12, 63, 44
15, 550251, Note_on_c, 12, 70, 0
15, 550251, Note_on_c, 12, 63, 0
15, 550260, Note_on_c, 12, 70, 44
15, 550260, Note_on_c, 12, 63, 44
15, 550311, Note_on_c, 12, 70, 0
15, 550311, Note_on_c, 12, 63, 0
15, 550320, Note_on_c, 12, 70, 44
15, 550320, Note_on_c, 12, 63, 44
15, 550371, Note_on_c, 12, 70, 0
15, 550371, Note_on_c, 12, 63, 0
15, 550380, Note_on_c, 12, 70, 44
15, 550380, Note_on_c, 12, 63, 44
15, 550431, Note_on_c, 12, 70, 0
15, 550431, Note_on_c, 12, 63, 0
15, 550440, Note_on_c, 12, 63, 44
15, 550440, Note_on_c, 12, 70, 44
15, 550491, Note_on_c, 12, 63, 0
15, 550491, Note_on_c, 12, 70, 0
15, 550500, Note_on_c, 12, 63, 44
15, 550500, Note_on_c, 12, 70, 44
15, 550551, Note_on_c, 12, 63, 0
15, 550551, Note_on_c, 12, 70, 0
15, 550560, Note_on_c, 12, 70, 44
15, 550560, Note_on_c, 12, 63, 44
15, 550611, Note_on_c, 12, 70, 0
15, 550611, Note_on_c, 12, 63, 0
15, 550620, Note_on_c, 12, 63, 44
15, 550620, Note_on_c, 12, 70, 44
15, 550671, Note_on_c, 12, 63, 0
15, 550671, Note_on_c, 12, 70, 0
15, 550680, Note_on_c, 12, 70, 44
15, 550680, Note_on_c, 12, 63, 44
15, 550731, Note_on_c, 12, 70, 0
15, 550731, Note_on_c, 12, 63, 0
15, 550740, Note_on_c, 12, 70, 44
15, 550740, Note_on_c, 12, 63, 44
15, 550791, Note_on_c, 12, 70, 0
15, 550791, Note_on_c, 12, 63, 0
15, 550800, Note_on_c, 12, 72, 44
15, 550800, Note_on_c, 12, 63, 44
15, 550851, Note_on_c, 12, 72, 0
15, 550851, Note_on_c, 12, 63, 0
15, 550860, Note_on_c, 12, 72, 44
15, 550860, Note_on_c, 12, 63, 44
15, 550911, Note_on_c, 12, 72, 0
15, 550911, Note_on_c, 12, 63, 0
15, 550920, Note_on_c, 12, 72, 44
15, 550920, Note_on_c, 12, 63, 44
15, 550971, Note_on_c, 12, 72, 0
15, 550971, Note_on_c, 12, 63, 0
15, 550980, Note_on_c, 12, 72, 45
15, 550980, Note_on_c, 12, 63, 45
15, 551031, Note_on_c, 12, 72, 0
15, 551031, Note_on_c, 12, 63, 0
15, 551040, Note_on_c, 12, 63, 45
15, 551040, Note_on_c, 12, 72, 45
15, 551091, Note_on_c, 12, 63, 0
15, 551091, Note_on_c, 12, 72, 0
15, 551100, Note_on_c, 12, 72, 45
15, 551100, Note_on_c, 12, 63, 45
15, 551151, Note_on_c, 12, 72, 0
15, 551151, Note_on_c, 12, 63, 0
15, 551160, Note_on_c, 12, 63, 46
15, 551160, Note_on_c, 12, 72, 46
15, 551211, Note_on_c, 12, 63, 0
15, 551211, Note_on_c, 12, 72, 0
15, 551220, Note_on_c, 12, 72, 46
15, 551220, Note_on_c, 12, 63, 46
15, 551271, Note_on_c, 12, 72, 0
15, 551271, Note_on_c, 12, 63, 0
15, 551280, Note_on_c, 12, 63, 46
15, 551280, Note_on_c, 12, 72, 46
15, 551331, Note_on_c, 12, 63, 0
15, 551331, Note_on_c, 12, 72, 0
15, 551340, Note_on_c, 12, 63, 47
15, 551340, Note_on_c, 12, 72, 47
15, 551391, Note_on_c, 12, 63, 0
15, 551391, Note_on_c, 12, 72, 0
15, 551400, Note_on_c, 12, 72, 47
15, 551400, Note_on_c, 12, 63, 47
15, 551451, Note_on_c, 12, 72, 0
15, 551451, Note_on_c, 12, 63, 0
15, 551460, Note_on_c, 12, 63, 47
15, 551460, Note_on_c, 12, 72, 47
15, 551511, Note_on_c, 12, 63, 0
15, 551511, Note_on_c, 12, 72, 0
15, 551520, Note_on_c, 12, 63, 48
15, 551520, Note_on_c, 12, 72, 48
15, 551571, Note_on_c, 12, 63, 0
15, 551571, Note_on_c, 12, 72, 0
15, 551580, Note_on_c, 12, 72, 48
15, 551580, Note_on_c, 12, 63, 48
15, 551631, Note_on_c, 12, 72, 0
15, 551631, Note_on_c, 12, 63, 0
15, 551640, Note_on_c, 12, 72, 48
15, 551640, Note_on_c, 12, 63, 48
15, 551691, Note_on_c, 12, 72, 0
15, 551691, Note_on_c, 12, 63, 0
15, 551700, Note_on_c, 12, 72, 49
15, 551700, Note_on_c, 12, 63, 49
15, 551751, Note_on_c, 12, 72, 0
15, 551751, Note_on_c, 12, 63, 0
15, 551760, Note_on_c, 12, 63, 49
15, 551760, Note_on_c, 12, 72, 49
15, 551811, Note_on_c, 12, 63, 0
15, 551811, Note_on_c, 12, 72, 0
15, 551820, Note_on_c, 12, 72, 49
15, 551820, Note_on_c, 12, 63, 49
15, 551871, Note_on_c, 12, 72, 0
15, 551871, Note_on_c, 12, 63, 0
15, 551880, Note_on_c, 12, 63, 50
15, 551880, Note_on_c, 12, 72, 50
15, 551931, Note_on_c, 12, 63, 0
15, 551931, Note_on_c, 12, 72, 0
15, 551940, Note_on_c, 12, 63, 50
15, 551940, Note_on_c, 12, 72, 50
15, 551991, Note_on_c, 12, 63, 0
15, 551991, Note_on_c, 12, 72, 0
15, 552000, Note_on_c, 12, 63, 50
15, 552000, Note_on_c, 12, 72, 50
15, 552051, Note_on_c, 12, 63, 0
15, 552051, Note_on_c, 12, 72, 0
15, 552060, Note_on_c, 12, 63, 51
15, 552060, Note_on_c, 12, 72, 51
15, 552111, Note_on_c, 12, 63, 0
15, 552111, Note_on_c, 12, 72, 0
15, 552120, Note_on_c, 12, 63, 51
15, 552120, Note_on_c, 12, 72, 51
15, 552171, Note_on_c, 12, 63, 0
15, 552171, Note_on_c, 12, 72, 0
15, 552180, Note_on_c, 12, 72, 51
15, 552180, Note_on_c, 12, 63, 51
15, 552231, Note_on_c, 12, 72, 0
15, 552231, Note_on_c, 12, 63, 0
15, 552240, Note_on_c, 12, 63, 52
15, 552240, Note_on_c, 12, 72, 52
15, 552291, Note_on_c, 12, 63, 0
15, 552291, Note_on_c, 12, 72, 0
15, 552300, Note_on_c, 12, 63, 52
15, 552300, Note_on_c, 12, 72, 52
15, 552351, Note_on_c, 12, 63, 0
15, 552351, Note_on_c, 12, 72, 0
15, 552360, Note_on_c, 12, 63, 52
15, 552360, Note_on_c, 12, 72, 52
15, 552411, Note_on_c, 12, 63, 0
15, 552411, Note_on_c, 12, 72, 0
15, 552420, Note_on_c, 12, 63, 53
15, 552420, Note_on_c, 12, 72, 53
15, 552471, Note_on_c, 12, 63, 0
15, 552471, Note_on_c, 12, 72, 0
15, 552480, Note_on_c, 12, 63, 53
15, 552480, Note_on_c, 12, 72, 53
15, 552531, Note_on_c, 12, 63, 0
15, 552531, Note_on_c, 12, 72, 0
15, 552540, Note_on_c, 12, 72, 53
15, 552540, Note_on_c, 12, 63, 53
15, 552591, Note_on_c, 12, 72, 0
15, 552591, Note_on_c, 12, 63, 0
15, 552600, Note_on_c, 12, 72, 54
15, 552600, Note_on_c, 12, 63, 54
15, 552651, Note_on_c, 12, 72, 0
15, 552651, Note_on_c, 12, 63, 0
15, 552660, Note_on_c, 12, 72, 54
15, 552660, Note_on_c, 12, 63, 54
15, 552711, Note_on_c, 12, 72, 0
15, 552711, Note_on_c, 12, 63, 0
15, 552720, Note_on_c, 12, 72, 54
15, 552720, Note_on_c, 12, 63, 54
15, 552771, Note_on_c, 12, 72, 0
15, 552771, Note_on_c, 12, 63, 0
15, 552780, Note_on_c, 12, 63, 55
15, 552780, Note_on_c, 12, 72, 55
15, 552831, Note_on_c, 12, 63, 0
15, 552831, Note_on_c, 12, 72, 0
15, 552840, Note_on_c, 12, 63, 55
15, 552840, Note_on_c, 12, 72, 55
15, 552891, Note_on_c, 12, 63, 0
15, 552891, Note_on_c, 12, 72, 0
15, 552900, Note_on_c, 12, 63, 55
15, 552900, Note_on_c, 12, 72, 55
15, 552951, Note_on_c, 12, 63, 0
15, 552951, Note_on_c, 12, 72, 0
15, 552960, Note_on_c, 12, 72, 56
15, 552960, Note_on_c, 12, 63, 56
15, 553011, Note_on_c, 12, 72, 0
15, 553011, Note_on_c, 12, 63, 0
15, 553020, Note_on_c, 12, 72, 56
15, 553020, Note_on_c, 12, 63, 56
15, 553071, Note_on_c, 12, 72, 0
15, 553071, Note_on_c, 12, 63, 0
15, 553080, Note_on_c, 12, 63, 56
15, 553080, Note_on_c, 12, 72, 56
15, 553131, Note_on_c, 12, 63, 0
15, 553131, Note_on_c, 12, 72, 0
15, 553140, Note_on_c, 12, 63, 57
15, 553140, Note_on_c, 12, 72, 57
15, 553191, Note_on_c, 12, 63, 0
15, 553191, Note_on_c, 12, 72, 0
15, 553200, Note_on_c, 12, 63, 57
15, 553200, Note_on_c, 12, 72, 57
15, 553251, Note_on_c, 12, 63, 0
15, 553251, Note_on_c, 12, 72, 0
15, 553260, Note_on_c, 12, 72, 57
15, 553260, Note_on_c, 12, 63, 57
15, 553311, Note_on_c, 12, 72, 0
15, 553311, Note_on_c, 12, 63, 0
15, 553320, Note_on_c, 12, 63, 58
15, 553320, Note_on_c, 12, 72, 58
15, 553371, Note_on_c, 12, 63, 0
15, 553371, Note_on_c, 12, 72, 0
15, 553380, Note_on_c, 12, 72, 58
15, 553380, Note_on_c, 12, 63, 58
15, 553431, Note_on_c, 12, 72, 0
15, 553431, Note_on_c, 12, 63, 0
15, 553440, Note_on_c, 12, 63, 58
15, 553440, Note_on_c, 12, 72, 58
15, 553491, Note_on_c, 12, 63, 0
15, 553491, Note_on_c, 12, 72, 0
15, 553500, Note_on_c, 12, 63, 59
15, 553500, Note_on_c, 12, 72, 59
15, 553551, Note_on_c, 12, 63, 0
15, 553551, Note_on_c, 12, 72, 0
15, 553560, Note_on_c, 12, 72, 59
15, 553560, Note_on_c, 12, 63, 59
15, 553611, Note_on_c, 12, 72, 0
15, 553611, Note_on_c, 12, 63, 0
15, 553620, Note_on_c, 12, 72, 59
15, 553620, Note_on_c, 12, 63, 59
15, 553671, Note_on_c, 12, 72, 0
15, 553671, Note_on_c, 12, 63, 0
15, 553680, Note_on_c, 12, 65, 60
15, 553731, Note_on_c, 12, 65, 0
15, 553740, Note_on_c, 12, 65, 60
15, 553791, Note_on_c, 12, 65, 0
15, 553800, Note_on_c, 12, 65, 60
15, 553851, Note_on_c, 12, 65, 0
15, 553860, Note_on_c, 12, 65, 61
15, 553911, Note_on_c, 12, 65, 0
15, 553920, Note_on_c, 12, 65, 61
15, 553971, Note_on_c, 12, 65, 0
15, 553980, Note_on_c, 12, 65, 61
15, 554031, Note_on_c, 12, 65, 0
15, 554040, Note_on_c, 12, 65, 62
15, 554091, Note_on_c, 12, 65, 0
15, 554100, Note_on_c, 12, 65, 62
15, 554151, Note_on_c, 12, 65, 0
15, 554160, Note_on_c, 12, 65, 62
15, 554211, Note_on_c, 12, 65, 0
15, 554220, Note_on_c, 12, 65, 63
15, 554271, Note_on_c, 12, 65, 0
15, 554280, Note_on_c, 12, 65, 63
15, 554331, Note_on_c, 12, 65, 0
15, 554340, Note_on_c, 12, 65, 63
15, 554391, Note_on_c, 12, 65, 0
15, 554400, Note_on_c, 12, 65, 64
15, 554400, Note_on_c, 12, 74, 64
15, 554451, Note_on_c, 12, 65, 0
15, 554451, Note_on_c, 12, 74, 0
15, 554460, Note_on_c, 12, 65, 64
15, 554460, Note_on_c, 12, 74, 64
15, 554511, Note_on_c, 12, 65, 0
15, 554511, Note_on_c, 12, 74, 0
15, 554520, Note_on_c, 12, 65, 64
15, 554520, Note_on_c, 12, 74, 64
15, 554571, Note_on_c, 12, 65, 0
15, 554571, Note_on_c, 12, 74, 0
15, 554580, Note_on_c, 12, 74, 65
15, 554580, Note_on_c, 12, 65, 65
15, 554631, Note_on_c, 12, 74, 0
15, 554631, Note_on_c, 12, 65, 0
15, 554640, Note_on_c, 12, 74, 65
15, 554640, Note_on_c, 12, 65, 65
15, 554691, Note_on_c, 12, 74, 0
15, 554691, Note_on_c, 12, 65, 0
15, 554700, Note_on_c, 12, 74, 65
15, 554700, Note_on_c, 12, 65, 65
15, 554751, Note_on_c, 12, 74, 0
15, 554751, Note_on_c, 12, 65, 0
15, 554760, Note_on_c, 12, 74, 66
15, 554760, Note_on_c, 12, 65, 66
15, 554811, Note_on_c, 12, 74, 0
15, 554811, Note_on_c, 12, 65, 0
15, 554820, Note_on_c, 12, 74, 66
15, 554820, Note_on_c, 12, 65, 66
15, 554871, Note_on_c, 12, 74, 0
15, 554871, Note_on_c, 12, 65, 0
15, 554880, Note_on_c, 12, 65, 66
15, 554880, Note_on_c, 12, 74, 66
15, 554931, Note_on_c, 12, 65, 0
15, 554931, Note_on_c, 12, 74, 0
15, 554940, Note_on_c, 12, 65, 67
15, 554940, Note_on_c, 12, 74, 67
15, 554991, Note_on_c, 12, 65, 0
15, 554991, Note_on_c, 12, 74, 0
15, 555000, Note_on_c, 12, 74, 67
15, 555000, Note_on_c, 12, 65, 67
15, 555051, Note_on_c, 12, 74, 0
15, 555051, Note_on_c, 12, 65, 0
15, 555060, Note_on_c, 12, 65, 67
15, 555060, Note_on_c, 12, 74, 67
15, 555111, Note_on_c, 12, 65, 0
15, 555111, Note_on_c, 12, 74, 0
15, 555120, Note_on_c, 12, 65, 68
15, 555120, Note_on_c, 12, 74, 68
15, 555171, Note_on_c, 12, 65, 0
15, 555171, Note_on_c, 12, 74, 0
15, 555180, Note_on_c, 12, 74, 68
15, 555180, Note_on_c, 12, 65, 68
15, 555231, Note_on_c, 12, 74, 0
15, 555231, Note_on_c, 12, 65, 0
15, 555240, Note_on_c, 12, 74, 67
15, 555240, Note_on_c, 12, 65, 67
15, 555291, Note_on_c, 12, 74, 0
15, 555291, Note_on_c, 12, 65, 0
15, 555300, Note_on_c, 12, 74, 66
15, 555300, Note_on_c, 12, 65, 66
15, 555351, Note_on_c, 12, 74, 0
15, 555351, Note_on_c, 12, 65, 0
15, 555360, Note_on_c, 12, 65, 66
15, 555360, Note_on_c, 12, 74, 66
15, 555411, Note_on_c, 12, 65, 0
15, 555411, Note_on_c, 12, 74, 0
15, 555420, Note_on_c, 12, 65, 65
15, 555420, Note_on_c, 12, 74, 65
15, 555471, Note_on_c, 12, 65, 0
15, 555471, Note_on_c, 12, 74, 0
15, 555480, Note_on_c, 12, 65, 64
15, 555480, Note_on_c, 12, 74, 64
15, 555531, Note_on_c, 12, 65, 0
15, 555531, Note_on_c, 12, 74, 0
15, 555540, Note_on_c, 12, 74, 64
15, 555540, Note_on_c, 12, 65, 64
15, 555591, Note_on_c, 12, 74, 0
15, 555591, Note_on_c, 12, 65, 0
15, 555600, Note_on_c, 12, 74, 63
15, 555600, Note_on_c, 12, 65, 63
15, 555651, Note_on_c, 12, 74, 0
15, 555651, Note_on_c, 12, 65, 0
15, 555660, Note_on_c, 12, 65, 62
15, 555660, Note_on_c, 12, 74, 62
15, 555711, Note_on_c, 12, 65, 0
15, 555711, Note_on_c, 12, 74, 0
15, 555720, Note_on_c, 12, 74, 62
15, 555720, Note_on_c, 12, 65, 62
15, 555771, Note_on_c, 12, 74, 0
15, 555771, Note_on_c, 12, 65, 0
15, 555780, Note_on_c, 12, 65, 61
15, 555780, Note_on_c, 12, 74, 61
15, 555831, Note_on_c, 12, 65, 0
15, 555831, Note_on_c, 12, 74, 0
15, 555840, Note_on_c, 12, 65, 60
15, 555891, Note_on_c, 12, 65, 0
15, 555900, Note_on_c, 12, 65, 60
15, 555951, Note_on_c, 12, 65, 0
15, 555960, Note_on_c, 12, 65, 59
15, 556011, Note_on_c, 12, 65, 0
15, 556020, Note_on_c, 12, 65, 58
15, 556071, Note_on_c, 12, 65, 0
15, 556080, Note_on_c, 12, 65, 58
15, 556131, Note_on_c, 12, 65, 0
15, 556140, Note_on_c, 12, 65, 57
15, 556191, Note_on_c, 12, 65, 0
15, 556200, Note_on_c, 12, 65, 56
15, 556251, Note_on_c, 12, 65, 0
15, 556260, Note_on_c, 12, 65, 56
15, 556311, Note_on_c, 12, 65, 0
15, 556320, Note_on_c, 12, 62, 55
15, 556371, Note_on_c, 12, 62, 0
15, 556380, Note_on_c, 12, 62, 54
15, 556431, Note_on_c, 12, 62, 0
15, 556440, Note_on_c, 12, 62, 54
15, 556491, Note_on_c, 12, 62, 0
15, 556500, Note_on_c, 12, 62, 53
15, 556551, Note_on_c, 12, 62, 0
15, 556560, Note_on_c, 12, 63, 52
15, 556784, Note_on_c, 12, 63, 0
15, 556800, Note_on_c, 12, 67, 52
15, 557039, Note_on_c, 12, 67, 0
15, 557520, Note_on_c, 12, 67, 52
15, 557699, Note_on_c, 12, 67, 0
15, 558240, Note_on_c, 12, 65, 52
15, 558419, Note_on_c, 12, 65, 0
15, 558960, Note_on_c, 12, 65, 52
15, 559139, Note_on_c, 12, 65, 0
15, 559560, Note_on_c, 12, 58, 52
15, 559679, Note_on_c, 12, 58, 0
15, 559680, Note_on_c, 12, 57, 53
15, 559799, Note_on_c, 12, 57, 0
15, 559800, Note_on_c, 12, 58, 54
15, 559919, Note_on_c, 12, 58, 0
15, 559920, Note_on_c, 12, 63, 55
15, 560039, Note_on_c, 12, 63, 0
15, 560040, Note_on_c, 12, 62, 56
15, 560144, Note_on_c, 12, 62, 0
15, 560160, Note_on_c, 12, 65, 57
15, 560279, Note_on_c, 12, 65, 0
15, 560280, Note_on_c, 12, 63, 58
15, 560399, Note_on_c, 12, 63, 0
15, 560400, Note_on_c, 12, 67, 59
15, 560519, Note_on_c, 12, 67, 0
15, 560520, Note_on_c, 12, 65, 60
15, 560639, Note_on_c, 12, 65, 0
15, 560640, Note_on_c, 12, 68, 60
15, 560759, Note_on_c, 12, 68, 0
15, 560760, Note_on_c, 12, 67, 61
15, 560879, Note_on_c, 12, 67, 0
15, 560880, Note_on_c, 12, 70, 62
15, 560999, Note_on_c, 12, 70, 0
15, 561000, Note_on_c, 12, 69, 63
15, 561119, Note_on_c, 12, 69, 0
15, 561120, Note_on_c, 12, 72, 64
15, 561239, Note_on_c, 12, 72, 0
15, 561240, Note_on_c, 12, 70, 65
15, 561359, Note_on_c, 12, 70, 0
15, 561360, Note_on_c, 12, 68, 66
15, 561479, Note_on_c, 12, 68, 0
15, 561480, Note_on_c, 12, 67, 67
15, 561599, Note_on_c, 12, 67, 0
15, 561600, Note_on_c, 12, 65, 52
15, 561719, Note_on_c, 12, 65, 0
15, 561720, Note_on_c, 12, 63, 52
15, 561839, Note_on_c, 12, 63, 0
15, 561840, Note_on_c, 12, 62, 52
15, 561959, Note_on_c, 12, 62, 0
15, 561960, Note_on_c, 12, 65, 52
15, 562079, Note_on_c, 12, 65, 0
15, 562080, Note_on_c, 12, 68, 52
15, 562199, Note_on_c, 12, 68, 0
15, 562200, Note_on_c, 12, 62, 52
15, 562304, Note_on_c, 12, 62, 0
15, 562320, Note_on_c, 12, 63, 52
15, 562439, Note_on_c, 12, 63, 0
15, 562440, Note_on_c, 12, 58, 52
15, 562559, Note_on_c, 12, 58, 0
15, 562560, Note_on_c, 12, 63, 52
15, 562679, Note_on_c, 12, 63, 0
15, 562680, Note_on_c, 12, 58, 52
15, 562799, Note_on_c, 12, 58, 0
15, 562800, Note_on_c, 12, 55, 52
15, 562919, Note_on_c, 12, 55, 0
15, 562920, Note_on_c, 12, 58, 52
15, 563024, Note_on_c, 12, 58, 0
15, 563040, Note_on_c, 12, 55, 52
15, 563159, Note_on_c, 12, 55, 0
15, 563160, Note_on_c, 12, 58, 52
15, 563279, Note_on_c, 12, 58, 0
15, 563280, Note_on_c, 12, 63, 52
15, 563399, Note_on_c, 12, 63, 0
15, 563400, Note_on_c, 12, 58, 52
15, 563519, Note_on_c, 12, 58, 0
15, 563520, Note_on_c, 12, 55, 52
15, 563639, Note_on_c, 12, 55, 0
15, 563640, Note_on_c, 12, 58, 52
15, 563744, Note_on_c, 12, 58, 0
15, 563760, Note_on_c, 12, 55, 52
15, 563879, Note_on_c, 12, 55, 0
15, 563880, Note_on_c, 12, 58, 52
15, 563999, Note_on_c, 12, 58, 0
15, 564000, Note_on_c, 12, 63, 52
15, 564119, Note_on_c, 12, 63, 0
15, 564120, Note_on_c, 12, 58, 52
15, 564239, Note_on_c, 12, 58, 0
15, 564240, Note_on_c, 12, 55, 52
15, 564359, Note_on_c, 12, 55, 0
15, 564360, Note_on_c, 12, 58, 52
15, 564464, Note_on_c, 12, 58, 0
15, 564480, Note_on_c, 12, 55, 52
15, 564599, Note_on_c, 12, 55, 0
15, 564600, Note_on_c, 12, 58, 52
15, 564719, Note_on_c, 12, 58, 0
15, 564720, Note_on_c, 12, 63, 52
15, 564839, Note_on_c, 12, 63, 0
15, 564840, Note_on_c, 12, 58, 52
15, 564959, Note_on_c, 12, 58, 0
15, 564960, Note_on_c, 12, 55, 52
15, 565079, Note_on_c, 12, 55, 0
15, 565080, Note_on_c, 12, 58, 52
15, 565184, Note_on_c, 12, 58, 0
15, 565200, Note_on_c, 12, 56, 52
15, 565319, Note_on_c, 12, 56, 0
15, 565320, Note_on_c, 12, 58, 52
15, 565439, Note_on_c, 12, 58, 0
15, 565440, Note_on_c, 12, 65, 52
15, 565559, Note_on_c, 12, 65, 0
15, 565560, Note_on_c, 12, 58, 52
15, 565679, Note_on_c, 12, 58, 0
15, 565680, Note_on_c, 12, 56, 52
15, 565799, Note_on_c, 12, 56, 0
15, 565800, Note_on_c, 12, 58, 52
15, 565904, Note_on_c, 12, 58, 0
15, 565920, Note_on_c, 12, 56, 52
15, 566039, Note_on_c, 12, 56, 0
15, 566040, Note_on_c, 12, 58, 52
15, 566159, Note_on_c, 12, 58, 0
15, 566160, Note_on_c, 12, 65, 52
15, 566279, Note_on_c, 12, 65, 0
15, 566280, Note_on_c, 12, 58, 52
15, 566399, Note_on_c, 12, 58, 0
15, 566400, Note_on_c, 12, 56, 52
15, 566519, Note_on_c, 12, 56, 0
15, 566520, Note_on_c, 12, 58, 52
15, 566624, Note_on_c, 12, 58, 0
15, 566640, Note_on_c, 12, 56, 52
15, 566759, Note_on_c, 12, 56, 0
15, 566760, Note_on_c, 12, 58, 52
15, 566879, Note_on_c, 12, 58, 0
15, 566880, Note_on_c, 12, 62, 52
15, 566999, Note_on_c, 12, 62, 0
15, 567000, Note_on_c, 12, 58, 52
15, 567119, Note_on_c, 12, 58, 0
15, 567120, Note_on_c, 12, 56, 52
15, 567239, Note_on_c, 12, 56, 0
15, 567240, Note_on_c, 12, 58, 52
15, 567344, Note_on_c, 12, 58, 0
15, 567360, Note_on_c, 12, 56, 52
15, 567479, Note_on_c, 12, 56, 0
15, 567480, Note_on_c, 12, 58, 52
15, 567599, Note_on_c, 12, 58, 0
15, 567600, Note_on_c, 12, 62, 52
15, 567719, Note_on_c, 12, 62, 0
15, 567720, Note_on_c, 12, 58, 52
15, 567839, Note_on_c, 12, 58, 0
15, 567840, Note_on_c, 12, 56, 52
15, 567959, Note_on_c, 12, 56, 0
15, 567960, Note_on_c, 12, 58, 52
15, 568064, Note_on_c, 12, 58, 0
15, 568080, Note_on_c, 12, 55, 52
15, 568169, Note_on_c, 12, 55, 0
15, 568200, Note_on_c, 12, 55, 52
15, 568259, Note_on_c, 12, 55, 0
15, 568260, Note_on_c, 12, 56, 52
15, 568319, Note_on_c, 12, 56, 0
15, 568320, Note_on_c, 12, 58, 52
15, 568409, Note_on_c, 12, 58, 0
15, 568440, Note_on_c, 12, 60, 52
15, 568499, Note_on_c, 12, 60, 0
15, 568500, Note_on_c, 12, 62, 52
15, 568559, Note_on_c, 12, 62, 0
15, 568560, Note_on_c, 12, 63, 52
15, 568649, Note_on_c, 12, 63, 0
15, 568680, Note_on_c, 12, 63, 52
15, 568739, Note_on_c, 12, 63, 0
15, 568740, Note_on_c, 12, 65, 52
15, 568799, Note_on_c, 12, 65, 0
15, 568800, Note_on_c, 12, 67, 52
15, 568889, Note_on_c, 12, 67, 0
15, 568920, Note_on_c, 12, 67, 52
15, 568979, Note_on_c, 12, 67, 0
15, 568980, Note_on_c, 12, 68, 52
15, 569039, Note_on_c, 12, 68, 0
15, 569040, Note_on_c, 12, 70, 52
15, 569129, Note_on_c, 12, 70, 0
15, 569160, Note_on_c, 12, 70, 52
15, 569219, Note_on_c, 12, 70, 0
15, 569220, Note_on_c, 12, 72, 52
15, 569279, Note_on_c, 12, 72, 0
15, 569280, Note_on_c, 12, 74, 52
15, 569369, Note_on_c, 12, 74, 0
15, 569400, Note_on_c, 12, 75, 52
15, 569459, Note_on_c, 12, 75, 0
15, 569460, Note_on_c, 12, 77, 52
15, 569519, Note_on_c, 12, 77, 0
15, 569520, Note_on_c, 12, 79, 68
15, 569609, Note_on_c, 12, 79, 0
15, 569640, Note_on_c, 12, 77, 52
15, 569729, Note_on_c, 12, 77, 0
15, 569760, Note_on_c, 12, 75, 52
15, 569849, Note_on_c, 12, 75, 0
15, 569880, Note_on_c, 12, 74, 52
15, 569969, Note_on_c, 12, 74, 0
15, 570000, Note_on_c, 12, 72, 52
15, 570089, Note_on_c, 12, 72, 0
15, 570120, Note_on_c, 12, 70, 52
15, 570209, Note_on_c, 12, 70, 0
15, 570240, Note_on_c, 12, 68, 52
15, 570329, Note_on_c, 12, 68, 0
15, 570360, Note_on_c, 12, 67, 52
15, 570449, Note_on_c, 12, 67, 0
15, 570480, Note_on_c, 12, 65, 52
15, 570569, Note_on_c, 12, 65, 0
15, 570600, Note_on_c, 12, 63, 52
15, 570689, Note_on_c, 12, 63, 0
15, 570720, Note_on_c, 12, 62, 52
15, 570809, Note_on_c, 12, 62, 0
15, 570840, Note_on_c, 12, 60, 52
15, 570929, Note_on_c, 12, 60, 0
15, 571080, Note_on_c, 12, 58, 52
15, 571139, Note_on_c, 12, 58, 0
15, 571140, Note_on_c, 12, 60, 52
15, 571199, Note_on_c, 12, 60, 0
15, 571200, Note_on_c, 12, 62, 52
15, 571289, Note_on_c, 12, 62, 0
15, 571320, Note_on_c, 12, 62, 52
15, 571379, Note_on_c, 12, 62, 0
15, 571380, Note_on_c, 12, 63, 52
15, 571439, Note_on_c, 12, 63, 0
15, 571440, Note_on_c, 12, 65, 52
15, 571529, Note_on_c, 12, 65, 0
15, 571560, Note_on_c, 12, 65, 52
15, 571619, Note_on_c, 12, 65, 0
15, 571620, Note_on_c, 12, 67, 52
15, 571679, Note_on_c, 12, 67, 0
15, 571680, Note_on_c, 12, 68, 52
15, 571769, Note_on_c, 12, 68, 0
15, 571800, Note_on_c, 12, 70, 52
15, 571859, Note_on_c, 12, 70, 0
15, 571860, Note_on_c, 12, 72, 52
15, 571919, Note_on_c, 12, 72, 0
15, 571920, Note_on_c, 12, 74, 52
15, 572009, Note_on_c, 12, 74, 0
15, 572040, Note_on_c, 12, 74, 52
15, 572099, Note_on_c, 12, 74, 0
15, 572100, Note_on_c, 12, 75, 52
15, 572159, Note_on_c, 12, 75, 0
15, 572160, Note_on_c, 12, 77, 52
15, 572249, Note_on_c, 12, 77, 0
15, 572280, Note_on_c, 12, 77, 52
15, 572339, Note_on_c, 12, 77, 0
15, 572340, Note_on_c, 12, 79, 52
15, 572399, Note_on_c, 12, 79, 0
15, 572400, Note_on_c, 12, 80, 68
15, 572489, Note_on_c, 12, 80, 0
15, 572520, Note_on_c, 12, 79, 52
15, 572609, Note_on_c, 12, 79, 0
15, 572640, Note_on_c, 12, 77, 52
15, 572729, Note_on_c, 12, 77, 0
15, 572760, Note_on_c, 12, 75, 52
15, 572849, Note_on_c, 12, 75, 0
15, 572880, Note_on_c, 12, 74, 52
15, 572969, Note_on_c, 12, 74, 0
15, 573000, Note_on_c, 12, 72, 52
15, 573089, Note_on_c, 12, 72, 0
15, 573120, Note_on_c, 12, 70, 52
15, 573209, Note_on_c, 12, 70, 0
15, 573240, Note_on_c, 12, 72, 52
15, 573329, Note_on_c, 12, 72, 0
15, 573360, Note_on_c, 12, 70, 52
15, 573449, Note_on_c, 12, 70, 0
15, 573480, Note_on_c, 12, 68, 52
15, 573569, Note_on_c, 12, 68, 0
15, 573600, Note_on_c, 12, 67, 52
15, 573689, Note_on_c, 12, 67, 0
15, 573720, Note_on_c, 12, 65, 52
15, 573809, Note_on_c, 12, 65, 0
15, 573825, Control_c, 12, 11, 80
15, 573840, Note_on_c, 12, 63, 76
15, 573944, Note_on_c, 12, 63, 0
15, 573960, Note_on_c, 12, 70, 76
15, 573960, Control_c, 12, 11, 80
15, 573960, Note_on_c, 12, 79, 76
15, 574117, Control_c, 12, 11, 81
15, 574184, Note_on_c, 12, 70, 0
15, 574184, Note_on_c, 12, 79, 0
15, 574200, Note_on_c, 12, 79, 76
15, 574200, Note_on_c, 12, 70, 76
15, 574273, Control_c, 12, 11, 83
15, 574424, Note_on_c, 12, 79, 0
15, 574424, Note_on_c, 12, 70, 0
15, 574430, Control_c, 12, 11, 84
15, 574440, Note_on_c, 12, 79, 76
15, 574440, Note_on_c, 12, 70, 76
15, 574587, Control_c, 12, 11, 85
15, 574664, Note_on_c, 12, 79, 0
15, 574664, Note_on_c, 12, 70, 0
15, 574680, Note_on_c, 12, 70, 76
15, 574680, Note_on_c, 12, 79, 76
15, 574743, Control_c, 12, 11, 87
15, 574900, Control_c, 12, 11, 88
15, 574904, Note_on_c, 12, 70, 0
15, 574904, Note_on_c, 12, 79, 0
15, 574920, Note_on_c, 12, 79, 76
15, 574920, Note_on_c, 12, 70, 76
15, 575057, Control_c, 12, 11, 89
15, 575144, Note_on_c, 12, 79, 0
15, 575144, Note_on_c, 12, 70, 0
15, 575160, Note_on_c, 12, 70, 76
15, 575160, Note_on_c, 12, 79, 76
15, 575213, Control_c, 12, 11, 90
15, 575370, Control_c, 12, 11, 92
15, 575384, Note_on_c, 12, 70, 0
15, 575384, Note_on_c, 12, 79, 0
15, 575400, Note_on_c, 12, 79, 76
15, 575400, Note_on_c, 12, 70, 76
15, 575527, Control_c, 12, 11, 93
15, 575624, Note_on_c, 12, 79, 0
15, 575624, Note_on_c, 12, 70, 0
15, 575640, Note_on_c, 12, 70, 76
15, 575640, Note_on_c, 12, 79, 76
15, 575683, Control_c, 12, 11, 94
15, 575840, Control_c, 12, 11, 96
15, 575864, Note_on_c, 12, 70, 0
15, 575864, Note_on_c, 12, 79, 0
15, 575880, Note_on_c, 12, 79, 76
15, 575880, Note_on_c, 12, 70, 76
15, 575997, Control_c, 12, 11, 97
15, 576104, Note_on_c, 12, 79, 0
15, 576104, Note_on_c, 12, 70, 0
15, 576120, Note_on_c, 12, 79, 76
15, 576120, Note_on_c, 12, 70, 76
15, 576153, Control_c, 12, 11, 98
15, 576310, Control_c, 12, 11, 100
15, 576344, Note_on_c, 12, 79, 0
15, 576344, Note_on_c, 12, 70, 0
15, 576360, Note_on_c, 12, 70, 76
15, 576360, Note_on_c, 12, 79, 76
15, 576467, Control_c, 12, 11, 101
15, 576584, Note_on_c, 12, 70, 0
15, 576584, Note_on_c, 12, 79, 0
15, 576600, Note_on_c, 12, 79, 76
15, 576600, Note_on_c, 12, 70, 76
15, 576623, Control_c, 12, 11, 102
15, 576719, Note_on_c, 12, 79, 0
15, 576720, Note_on_c, 12, 80, 76
15, 576780, Control_c, 12, 11, 104
15, 576824, Note_on_c, 12, 70, 0
15, 576824, Note_on_c, 12, 80, 0
15, 576840, Note_on_c, 12, 70, 76
15, 576840, Note_on_c, 12, 80, 76
15, 576937, Control_c, 12, 11, 105
15, 577064, Note_on_c, 12, 70, 0
15, 577064, Note_on_c, 12, 80, 0
15, 577080, Note_on_c, 12, 80, 76
15, 577080, Note_on_c, 12, 70, 76
15, 577093, Control_c, 12, 11, 106
15, 577250, Control_c, 12, 11, 107
15, 577304, Note_on_c, 12, 80, 0
15, 577304, Note_on_c, 12, 70, 0
15, 577320, Note_on_c, 12, 70, 76
15, 577320, Note_on_c, 12, 80, 76
15, 577407, Control_c, 12, 11, 109
15, 577544, Note_on_c, 12, 70, 0
15, 577544, Note_on_c, 12, 80, 0
15, 577560, Note_on_c, 12, 70, 76
15, 577560, Note_on_c, 12, 80, 76
15, 577563, Control_c, 12, 11, 110
15, 577720, Control_c, 12, 11, 111
15, 577784, Note_on_c, 12, 70, 0
15, 577784, Note_on_c, 12, 80, 0
15, 577800, Note_on_c, 12, 70, 76
15, 577800, Note_on_c, 12, 80, 76
15, 577877, Control_c, 12, 11, 113
15, 578024, Note_on_c, 12, 70, 0
15, 578024, Note_on_c, 12, 80, 0
15, 578033, Control_c, 12, 11, 114
15, 578040, Note_on_c, 12, 80, 76
15, 578040, Note_on_c, 12, 70, 76
15, 578190, Control_c, 12, 11, 115
15, 578264, Note_on_c, 12, 80, 0
15, 578264, Note_on_c, 12, 70, 0
15, 578280, Note_on_c, 12, 80, 76
15, 578280, Note_on_c, 12, 70, 76
15, 578347, Control_c, 12, 11, 117
15, 578503, Control_c, 12, 11, 118
15, 578504, Note_on_c, 12, 80, 0
15, 578504, Note_on_c, 12, 70, 0
15, 578520, Note_on_c, 12, 70, 76
15, 578520, Note_on_c, 12, 80, 76
15, 578660, Control_c, 12, 11, 119
15, 578744, Note_on_c, 12, 70, 0
15, 578744, Note_on_c, 12, 80, 0
15, 578760, Note_on_c, 12, 80, 76
15, 578760, Note_on_c, 12, 70, 76
15, 578817, Control_c, 12, 11, 120
15, 578973, Control_c, 12, 11, 122
15, 578984, Note_on_c, 12, 80, 0
15, 578984, Note_on_c, 12, 70, 0
15, 579000, Note_on_c, 12, 70, 76
15, 579104, Note_on_c, 12, 70, 0
15, 579120, Note_on_c, 12, 72, 76
15, 579130, Control_c, 12, 11, 123
15, 579224, Note_on_c, 12, 72, 0
15, 579240, Note_on_c, 12, 72, 76
15, 579287, Control_c, 12, 11, 124
15, 579344, Note_on_c, 12, 72, 0
15, 579360, Note_on_c, 12, 74, 76
15, 579443, Control_c, 12, 11, 127
15, 579464, Note_on_c, 12, 74, 0
15, 579480, Note_on_c, 12, 74, 76
15, 579584, Note_on_c, 12, 74, 0
15, 579600, Note_on_c, 12, 75, 76
15, 579651, Note_on_c, 12, 75, 0
15, 579660, Note_on_c, 12, 79, 76
15, 579660, Note_on_c, 12, 70, 76
15, 579711, Note_on_c, 12, 79, 0
15, 579711, Note_on_c, 12, 70, 0
15, 579720, Note_on_c, 12, 79, 76
15, 579720, Note_on_c, 12, 70, 76
15, 579771, Note_on_c, 12, 79, 0
15, 579771, Note_on_c, 12, 70, 0
15, 579780, Note_on_c, 12, 79, 76
15, 579780, Note_on_c, 12, 70, 76
15, 579831, Note_on_c, 12, 79, 0
15, 579831, Note_on_c, 12, 70, 0
15, 579840, Note_on_c, 12, 79, 76
15, 579840, Note_on_c, 12, 70, 76
15, 579891, Note_on_c, 12, 79, 0
15, 579891, Note_on_c, 12, 70, 0
15, 579900, Note_on_c, 12, 79, 76
15, 579900, Note_on_c, 12, 70, 76
15, 579951, Note_on_c, 12, 79, 0
15, 579951, Note_on_c, 12, 70, 0
15, 579960, Note_on_c, 12, 70, 76
15, 579960, Note_on_c, 12, 79, 76
15, 580011, Note_on_c, 12, 70, 0
15, 580011, Note_on_c, 12, 79, 0
15, 580020, Note_on_c, 12, 70, 76
15, 580020, Note_on_c, 12, 79, 76
15, 580071, Note_on_c, 12, 70, 0
15, 580071, Note_on_c, 12, 79, 0
15, 580080, Note_on_c, 12, 70, 76
15, 580080, Note_on_c, 12, 79, 76
15, 580131, Note_on_c, 12, 70, 0
15, 580131, Note_on_c, 12, 79, 0
15, 580140, Note_on_c, 12, 79, 76
15, 580140, Note_on_c, 12, 70, 76
15, 580191, Note_on_c, 12, 79, 0
15, 580191, Note_on_c, 12, 70, 0
15, 580200, Note_on_c, 12, 70, 76
15, 580200, Note_on_c, 12, 79, 76
15, 580251, Note_on_c, 12, 70, 0
15, 580251, Note_on_c, 12, 79, 0
15, 580260, Note_on_c, 12, 70, 76
15, 580260, Note_on_c, 12, 79, 76
15, 580311, Note_on_c, 12, 70, 0
15, 580311, Note_on_c, 12, 79, 0
15, 580320, Note_on_c, 12, 79, 76
15, 580320, Note_on_c, 12, 70, 76
15, 580371, Note_on_c, 12, 79, 0
15, 580371, Note_on_c, 12, 70, 0
15, 580380, Note_on_c, 12, 79, 76
15, 580380, Note_on_c, 12, 70, 76
15, 580431, Note_on_c, 12, 79, 0
15, 580431, Note_on_c, 12, 70, 0
15, 580440, Note_on_c, 12, 70, 76
15, 580440, Note_on_c, 12, 79, 76
15, 580491, Note_on_c, 12, 70, 0
15, 580491, Note_on_c, 12, 79, 0
15, 580500, Note_on_c, 12, 79, 76
15, 580500, Note_on_c, 12, 70, 76
15, 580551, Note_on_c, 12, 79, 0
15, 580551, Note_on_c, 12, 70, 0
15, 580560, Note_on_c, 12, 70, 76
15, 580560, Note_on_c, 12, 79, 76
15, 580611, Note_on_c, 12, 70, 0
15, 580611, Note_on_c, 12, 79, 0
15, 580620, Note_on_c, 12, 70, 76
15, 580620, Note_on_c, 12, 79, 76
15, 580671, Note_on_c, 12, 70, 0
15, 580671, Note_on_c, 12, 79, 0
15, 580680, Note_on_c, 12, 79, 76
15, 580680, Note_on_c, 12, 70, 76
15, 580731, Note_on_c, 12, 79, 0
15, 580731, Note_on_c, 12, 70, 0
15, 580740, Note_on_c, 12, 79, 76
15, 580740, Note_on_c, 12, 70, 76
15, 580791, Note_on_c, 12, 79, 0
15, 580791, Note_on_c, 12, 70, 0
15, 580800, Note_on_c, 12, 70, 76
15, 580800, Note_on_c, 12, 79, 76
15, 580851, Note_on_c, 12, 70, 0
15, 580851, Note_on_c, 12, 79, 0
15, 580860, Note_on_c, 12, 79, 76
15, 580860, Note_on_c, 12, 70, 76
15, 580911, Note_on_c, 12, 79, 0
15, 580911, Note_on_c, 12, 70, 0
15, 580920, Note_on_c, 12, 79, 76
15, 580920, Note_on_c, 12, 70, 76
15, 580971, Note_on_c, 12, 79, 0
15, 580971, Note_on_c, 12, 70, 0
15, 580980, Note_on_c, 12, 70, 76
15, 580980, Note_on_c, 12, 79, 76
15, 581031, Note_on_c, 12, 70, 0
15, 581031, Note_on_c, 12, 79, 0
15, 581040, Note_on_c, 12, 70, 76
15, 581040, Note_on_c, 12, 79, 76
15, 581091, Note_on_c, 12, 70, 0
15, 581091, Note_on_c, 12, 79, 0
15, 581100, Note_on_c, 12, 70, 76
15, 581100, Note_on_c, 12, 79, 76
15, 581151, Note_on_c, 12, 70, 0
15, 581151, Note_on_c, 12, 79, 0
15, 581160, Note_on_c, 12, 70, 76
15, 581160, Note_on_c, 12, 79, 76
15, 581211, Note_on_c, 12, 70, 0
15, 581211, Note_on_c, 12, 79, 0
15, 581220, Note_on_c, 12, 70, 76
15, 581220, Note_on_c, 12, 79, 76
15, 581271, Note_on_c, 12, 70, 0
15, 581271, Note_on_c, 12, 79, 0
15, 581280, Note_on_c, 12, 79, 76
15, 581280, Note_on_c, 12, 70, 76
15, 581331, Note_on_c, 12, 79, 0
15, 581331, Note_on_c, 12, 70, 0
15, 581340, Note_on_c, 12, 70, 76
15, 581340, Note_on_c, 12, 79, 76
15, 581391, Note_on_c, 12, 70, 0
15, 581391, Note_on_c, 12, 79, 0
15, 581400, Note_on_c, 12, 70, 76
15, 581400, Note_on_c, 12, 79, 76
15, 581451, Note_on_c, 12, 70, 0
15, 581451, Note_on_c, 12, 79, 0
15, 581460, Note_on_c, 12, 70, 76
15, 581460, Note_on_c, 12, 79, 76
15, 581511, Note_on_c, 12, 70, 0
15, 581511, Note_on_c, 12, 79, 0
15, 581520, Note_on_c, 12, 70, 76
15, 581520, Note_on_c, 12, 79, 76
15, 581571, Note_on_c, 12, 70, 0
15, 581571, Note_on_c, 12, 79, 0
15, 581580, Note_on_c, 12, 70, 76
15, 581580, Note_on_c, 12, 79, 76
15, 581631, Note_on_c, 12, 70, 0
15, 581631, Note_on_c, 12, 79, 0
15, 581640, Note_on_c, 12, 70, 76
15, 581640, Note_on_c, 12, 79, 76
15, 581691, Note_on_c, 12, 70, 0
15, 581691, Note_on_c, 12, 79, 0
15, 581700, Note_on_c, 12, 79, 76
15, 581700, Note_on_c, 12, 70, 76
15, 581751, Note_on_c, 12, 79, 0
15, 581751, Note_on_c, 12, 70, 0
15, 581760, Note_on_c, 12, 79, 76
15, 581760, Note_on_c, 12, 70, 76
15, 581811, Note_on_c, 12, 79, 0
15, 581811, Note_on_c, 12, 70, 0
15, 581820, Note_on_c, 12, 70, 76
15, 581820, Note_on_c, 12, 79, 76
15, 581871, Note_on_c, 12, 70, 0
15, 581871, Note_on_c, 12, 79, 0
15, 581880, Note_on_c, 12, 79, 76
15, 581880, Note_on_c, 12, 70, 76
15, 581931, Note_on_c, 12, 79, 0
15, 581931, Note_on_c, 12, 70, 0
15, 581940, Note_on_c, 12, 79, 76
15, 581940, Note_on_c, 12, 70, 76
15, 581991, Note_on_c, 12, 79, 0
15, 581991, Note_on_c, 12, 70, 0
15, 582000, Note_on_c, 12, 70, 76
15, 582000, Note_on_c, 12, 79, 76
15, 582051, Note_on_c, 12, 70, 0
15, 582051, Note_on_c, 12, 79, 0
15, 582060, Note_on_c, 12, 70, 76
15, 582060, Note_on_c, 12, 79, 76
15, 582111, Note_on_c, 12, 70, 0
15, 582111, Note_on_c, 12, 79, 0
15, 582120, Note_on_c, 12, 79, 76
15, 582120, Note_on_c, 12, 70, 76
15, 582171, Note_on_c, 12, 79, 0
15, 582171, Note_on_c, 12, 70, 0
15, 582180, Note_on_c, 12, 70, 76
15, 582180, Note_on_c, 12, 79, 76
15, 582231, Note_on_c, 12, 70, 0
15, 582231, Note_on_c, 12, 79, 0
15, 582240, Note_on_c, 12, 70, 76
15, 582240, Note_on_c, 12, 79, 76
15, 582291, Note_on_c, 12, 70, 0
15, 582291, Note_on_c, 12, 79, 0
15, 582300, Note_on_c, 12, 70, 76
15, 582300, Note_on_c, 12, 79, 76
15, 582351, Note_on_c, 12, 70, 0
15, 582351, Note_on_c, 12, 79, 0
15, 582360, Note_on_c, 12, 70, 76
15, 582360, Note_on_c, 12, 79, 76
15, 582411, Note_on_c, 12, 70, 0
15, 582411, Note_on_c, 12, 79, 0
15, 582420, Note_on_c, 12, 79, 76
15, 582420, Note_on_c, 12, 70, 76
15, 582471, Note_on_c, 12, 79, 0
15, 582471, Note_on_c, 12, 70, 0
15, 582480, Note_on_c, 12, 80, 76
15, 582480, Note_on_c, 12, 70, 76
15, 582531, Note_on_c, 12, 80, 0
15, 582531, Note_on_c, 12, 70, 0
15, 582540, Note_on_c, 12, 70, 76
15, 582540, Note_on_c, 12, 80, 76
15, 582591, Note_on_c, 12, 70, 0
15, 582591, Note_on_c, 12, 80, 0
15, 582600, Note_on_c, 12, 70, 76
15, 582600, Note_on_c, 12, 80, 76
15, 582651, Note_on_c, 12, 70, 0
15, 582651, Note_on_c, 12, 80, 0
15, 582660, Note_on_c, 12, 70, 76
15, 582660, Note_on_c, 12, 80, 76
15, 582711, Note_on_c, 12, 70, 0
15, 582711, Note_on_c, 12, 80, 0
15, 582720, Note_on_c, 12, 70, 76
15, 582720, Note_on_c, 12, 80, 76
15, 582771, Note_on_c, 12, 70, 0
15, 582771, Note_on_c, 12, 80, 0
15, 582780, Note_on_c, 12, 70, 76
15, 582780, Note_on_c, 12, 80, 76
15, 582831, Note_on_c, 12, 70, 0
15, 582831, Note_on_c, 12, 80, 0
15, 582840, Note_on_c, 12, 80, 76
15, 582840, Note_on_c, 12, 70, 76
15, 582891, Note_on_c, 12, 80, 0
15, 582891, Note_on_c, 12, 70, 0
15, 582900, Note_on_c, 12, 80, 76
15, 582900, Note_on_c, 12, 70, 76
15, 582951, Note_on_c, 12, 80, 0
15, 582951, Note_on_c, 12, 70, 0
15, 582960, Note_on_c, 12, 80, 76
15, 582960, Note_on_c, 12, 70, 76
15, 583011, Note_on_c, 12, 80, 0
15, 583011, Note_on_c, 12, 70, 0
15, 583020, Note_on_c, 12, 80, 76
15, 583020, Note_on_c, 12, 70, 76
15, 583071, Note_on_c, 12, 80, 0
15, 583071, Note_on_c, 12, 70, 0
15, 583080, Note_on_c, 12, 80, 76
15, 583080, Note_on_c, 12, 70, 76
15, 583131, Note_on_c, 12, 80, 0
15, 583131, Note_on_c, 12, 70, 0
15, 583140, Note_on_c, 12, 70, 76
15, 583140, Note_on_c, 12, 80, 76
15, 583191, Note_on_c, 12, 70, 0
15, 583191, Note_on_c, 12, 80, 0
15, 583200, Note_on_c, 12, 80, 76
15, 583200, Note_on_c, 12, 70, 76
15, 583251, Note_on_c, 12, 80, 0
15, 583251, Note_on_c, 12, 70, 0
15, 583260, Note_on_c, 12, 70, 76
15, 583260, Note_on_c, 12, 80, 76
15, 583311, Note_on_c, 12, 70, 0
15, 583311, Note_on_c, 12, 80, 0
15, 583320, Note_on_c, 12, 70, 76
15, 583320, Note_on_c, 12, 80, 76
15, 583371, Note_on_c, 12, 70, 0
15, 583371, Note_on_c, 12, 80, 0
15, 583380, Note_on_c, 12, 70, 76
15, 583380, Note_on_c, 12, 80, 76
15, 583431, Note_on_c, 12, 70, 0
15, 583431, Note_on_c, 12, 80, 0
15, 583440, Note_on_c, 12, 70, 76
15, 583440, Note_on_c, 12, 80, 76
15, 583491, Note_on_c, 12, 70, 0
15, 583491, Note_on_c, 12, 80, 0
15, 583500, Note_on_c, 12, 80, 76
15, 583500, Note_on_c, 12, 70, 76
15, 583551, Note_on_c, 12, 80, 0
15, 583551, Note_on_c, 12, 70, 0
15, 583560, Note_on_c, 12, 80, 76
15, 583560, Note_on_c, 12, 70, 76
15, 583611, Note_on_c, 12, 80, 0
15, 583611, Note_on_c, 12, 70, 0
15, 583620, Note_on_c, 12, 70, 76
15, 583620, Note_on_c, 12, 80, 76
15, 583671, Note_on_c, 12, 70, 0
15, 583671, Note_on_c, 12, 80, 0
15, 583680, Note_on_c, 12, 80, 76
15, 583680, Note_on_c, 12, 70, 76
15, 583731, Note_on_c, 12, 80, 0
15, 583731, Note_on_c, 12, 70, 0
15, 583740, Note_on_c, 12, 70, 76
15, 583740, Note_on_c, 12, 80, 76
15, 583791, Note_on_c, 12, 70, 0
15, 583791, Note_on_c, 12, 80, 0
15, 583800, Note_on_c, 12, 70, 76
15, 583800, Note_on_c, 12, 80, 76
15, 583851, Note_on_c, 12, 70, 0
15, 583851, Note_on_c, 12, 80, 0
15, 583860, Note_on_c, 12, 70, 76
15, 583860, Note_on_c, 12, 80, 76
15, 583911, Note_on_c, 12, 70, 0
15, 583911, Note_on_c, 12, 80, 0
15, 583920, Note_on_c, 12, 80, 76
15, 583920, Note_on_c, 12, 70, 76
15, 583971, Note_on_c, 12, 80, 0
15, 583971, Note_on_c, 12, 70, 0
15, 583980, Note_on_c, 12, 70, 76
15, 583980, Note_on_c, 12, 80, 76
15, 584031, Note_on_c, 12, 70, 0
15, 584031, Note_on_c, 12, 80, 0
15, 584040, Note_on_c, 12, 80, 76
15, 584040, Note_on_c, 12, 70, 76
15, 584091, Note_on_c, 12, 80, 0
15, 584091, Note_on_c, 12, 70, 0
15, 584100, Note_on_c, 12, 70, 76
15, 584100, Note_on_c, 12, 80, 76
15, 584151, Note_on_c, 12, 70, 0
15, 584151, Note_on_c, 12, 80, 0
15, 584160, Note_on_c, 12, 80, 76
15, 584160, Note_on_c, 12, 70, 76
15, 584211, Note_on_c, 12, 80, 0
15, 584211, Note_on_c, 12, 70, 0
15, 584220, Note_on_c, 12, 70, 76
15, 584220, Note_on_c, 12, 80, 76
15, 584271, Note_on_c, 12, 70, 0
15, 584271, Note_on_c, 12, 80, 0
15, 584280, Note_on_c, 12, 80, 76
15, 584280, Note_on_c, 12, 70, 76
15, 584331, Note_on_c, 12, 80, 0
15, 584331, Note_on_c, 12, 70, 0
15, 584340, Note_on_c, 12, 80, 76
15, 584340, Note_on_c, 12, 70, 76
15, 584391, Note_on_c, 12, 80, 0
15, 584391, Note_on_c, 12, 70, 0
15, 584400, Note_on_c, 12, 80, 76
15, 584400, Note_on_c, 12, 70, 76
15, 584451, Note_on_c, 12, 80, 0
15, 584451, Note_on_c, 12, 70, 0
15, 584460, Note_on_c, 12, 80, 76
15, 584460, Note_on_c, 12, 70, 76
15, 584511, Note_on_c, 12, 80, 0
15, 584511, Note_on_c, 12, 70, 0
15, 584520, Note_on_c, 12, 70, 76
15, 584520, Note_on_c, 12, 80, 76
15, 584571, Note_on_c, 12, 70, 0
15, 584571, Note_on_c, 12, 80, 0
15, 584580, Note_on_c, 12, 80, 76
15, 584580, Note_on_c, 12, 70, 76
15, 584631, Note_on_c, 12, 80, 0
15, 584631, Note_on_c, 12, 70, 0
15, 584640, Note_on_c, 12, 80, 76
15, 584640, Note_on_c, 12, 70, 76
15, 584691, Note_on_c, 12, 80, 0
15, 584691, Note_on_c, 12, 70, 0
15, 584700, Note_on_c, 12, 70, 76
15, 584700, Note_on_c, 12, 80, 76
15, 584751, Note_on_c, 12, 70, 0
15, 584751, Note_on_c, 12, 80, 0
15, 584760, Note_on_c, 12, 80, 76
15, 584760, Note_on_c, 12, 70, 76
15, 584811, Note_on_c, 12, 80, 0
15, 584811, Note_on_c, 12, 70, 0
15, 584820, Note_on_c, 12, 70, 76
15, 584820, Note_on_c, 12, 80, 76
15, 584871, Note_on_c, 12, 70, 0
15, 584871, Note_on_c, 12, 80, 0
15, 584880, Note_on_c, 12, 70, 76
15, 584880, Note_on_c, 12, 80, 76
15, 584931, Note_on_c, 12, 70, 0
15, 584931, Note_on_c, 12, 80, 0
15, 584940, Note_on_c, 12, 80, 76
15, 584940, Note_on_c, 12, 70, 76
15, 584991, Note_on_c, 12, 80, 0
15, 584991, Note_on_c, 12, 70, 0
15, 585000, Note_on_c, 12, 70, 76
15, 585000, Note_on_c, 12, 80, 76
15, 585051, Note_on_c, 12, 70, 0
15, 585051, Note_on_c, 12, 80, 0
15, 585060, Note_on_c, 12, 80, 76
15, 585060, Note_on_c, 12, 70, 76
15, 585111, Note_on_c, 12, 80, 0
15, 585111, Note_on_c, 12, 70, 0
15, 585120, Note_on_c, 12, 70, 76
15, 585120, Note_on_c, 12, 80, 76
15, 585171, Note_on_c, 12, 70, 0
15, 585171, Note_on_c, 12, 80, 0
15, 585180, Note_on_c, 12, 80, 76
15, 585180, Note_on_c, 12, 70, 76
15, 585231, Note_on_c, 12, 80, 0
15, 585231, Note_on_c, 12, 70, 0
15, 585240, Note_on_c, 12, 70, 76
15, 585240, Note_on_c, 12, 80, 76
15, 585291, Note_on_c, 12, 70, 0
15, 585291, Note_on_c, 12, 80, 0
15, 585300, Note_on_c, 12, 80, 76
15, 585300, Note_on_c, 12, 70, 76
15, 585351, Note_on_c, 12, 80, 0
15, 585351, Note_on_c, 12, 70, 0
15, 585360, Note_on_c, 12, 79, 76
15, 585360, Note_on_c, 12, 70, 76
15, 585411, Note_on_c, 12, 79, 0
15, 585411, Note_on_c, 12, 70, 0
15, 585420, Note_on_c, 12, 79, 76
15, 585420, Note_on_c, 12, 70, 76
15, 585471, Note_on_c, 12, 79, 0
15, 585471, Note_on_c, 12, 70, 0
15, 585480, Note_on_c, 12, 79, 76
15, 585480, Note_on_c, 12, 70, 76
15, 585531, Note_on_c, 12, 79, 0
15, 585531, Note_on_c, 12, 70, 0
15, 585540, Note_on_c, 12, 70, 76
15, 585540, Note_on_c, 12, 79, 76
15, 585591, Note_on_c, 12, 70, 0
15, 585591, Note_on_c, 12, 79, 0
15, 585600, Note_on_c, 12, 70, 76
15, 585600, Note_on_c, 12, 79, 76
15, 585651, Note_on_c, 12, 70, 0
15, 585651, Note_on_c, 12, 79, 0
15, 585660, Note_on_c, 12, 79, 76
15, 585660, Note_on_c, 12, 70, 76
15, 585711, Note_on_c, 12, 79, 0
15, 585711, Note_on_c, 12, 70, 0
15, 585720, Note_on_c, 12, 79, 76
15, 585720, Note_on_c, 12, 70, 76
15, 585771, Note_on_c, 12, 79, 0
15, 585771, Note_on_c, 12, 70, 0
15, 585780, Note_on_c, 12, 79, 76
15, 585780, Note_on_c, 12, 70, 76
15, 585831, Note_on_c, 12, 79, 0
15, 585831, Note_on_c, 12, 70, 0
15, 585840, Note_on_c, 12, 79, 76
15, 585840, Note_on_c, 12, 70, 76
15, 585891, Note_on_c, 12, 79, 0
15, 585891, Note_on_c, 12, 70, 0
15, 585900, Note_on_c, 12, 70, 76
15, 585900, Note_on_c, 12, 79, 76
15, 585951, Note_on_c, 12, 70, 0
15, 585951, Note_on_c, 12, 79, 0
15, 585960, Note_on_c, 12, 70, 76
15, 585960, Note_on_c, 12, 79, 76
15, 586011, Note_on_c, 12, 70, 0
15, 586011, Note_on_c, 12, 79, 0
15, 586020, Note_on_c, 12, 70, 76
15, 586020, Note_on_c, 12, 79, 76
15, 586071, Note_on_c, 12, 70, 0
15, 586071, Note_on_c, 12, 79, 0
15, 586080, Note_on_c, 12, 79, 76
15, 586080, Note_on_c, 12, 70, 76
15, 586131, Note_on_c, 12, 79, 0
15, 586131, Note_on_c, 12, 70, 0
15, 586140, Note_on_c, 12, 70, 76
15, 586140, Note_on_c, 12, 79, 76
15, 586191, Note_on_c, 12, 70, 0
15, 586191, Note_on_c, 12, 79, 0
15, 586200, Note_on_c, 12, 79, 76
15, 586200, Note_on_c, 12, 70, 76
15, 586251, Note_on_c, 12, 79, 0
15, 586251, Note_on_c, 12, 70, 0
15, 586260, Note_on_c, 12, 70, 76
15, 586260, Note_on_c, 12, 79, 76
15, 586311, Note_on_c, 12, 70, 0
15, 586311, Note_on_c, 12, 79, 0
15, 586320, Note_on_c, 12, 70, 76
15, 586320, Note_on_c, 12, 79, 76
15, 586371, Note_on_c, 12, 70, 0
15, 586371, Note_on_c, 12, 79, 0
15, 586380, Note_on_c, 12, 79, 76
15, 586380, Note_on_c, 12, 70, 76
15, 586431, Note_on_c, 12, 79, 0
15, 586431, Note_on_c, 12, 70, 0
15, 586440, Note_on_c, 12, 70, 76
15, 586440, Note_on_c, 12, 79, 76
15, 586491, Note_on_c, 12, 70, 0
15, 586491, Note_on_c, 12, 79, 0
15, 586500, Note_on_c, 12, 70, 76
15, 586500, Note_on_c, 12, 79, 76
15, 586551, Note_on_c, 12, 70, 0
15, 586551, Note_on_c, 12, 79, 0
15, 586560, Note_on_c, 12, 79, 76
15, 586560, Note_on_c, 12, 70, 76
15, 586611, Note_on_c, 12, 79, 0
15, 586611, Note_on_c, 12, 70, 0
15, 586620, Note_on_c, 12, 79, 76
15, 586620, Note_on_c, 12, 70, 76
15, 586671, Note_on_c, 12, 79, 0
15, 586671, Note_on_c, 12, 70, 0
15, 586680, Note_on_c, 12, 70, 76
15, 586680, Note_on_c, 12, 79, 76
15, 586731, Note_on_c, 12, 70, 0
15, 586731, Note_on_c, 12, 79, 0
15, 586740, Note_on_c, 12, 79, 76
15, 586740, Note_on_c, 12, 70, 76
15, 586791, Note_on_c, 12, 79, 0
15, 586791, Note_on_c, 12, 70, 0
15, 586800, Note_on_c, 12, 72, 84
15, 586800, Note_on_c, 12, 77, 84
15, 586851, Note_on_c, 12, 72, 0
15, 586851, Note_on_c, 12, 77, 0
15, 586860, Note_on_c, 12, 72, 76
15, 586860, Note_on_c, 12, 77, 76
15, 586911, Note_on_c, 12, 72, 0
15, 586911, Note_on_c, 12, 77, 0
15, 586920, Note_on_c, 12, 72, 76
15, 586920, Note_on_c, 12, 77, 76
15, 586971, Note_on_c, 12, 72, 0
15, 586971, Note_on_c, 12, 77, 0
15, 586980, Note_on_c, 12, 72, 76
15, 586980, Note_on_c, 12, 77, 76
15, 587031, Note_on_c, 12, 72, 0
15, 587031, Note_on_c, 12, 77, 0
15, 587040, Note_on_c, 12, 77, 76
15, 587040, Note_on_c, 12, 72, 76
15, 587091, Note_on_c, 12, 77, 0
15, 587091, Note_on_c, 12, 72, 0
15, 587100, Note_on_c, 12, 72, 76
15, 587100, Note_on_c, 12, 77, 76
15, 587151, Note_on_c, 12, 72, 0
15, 587151, Note_on_c, 12, 77, 0
15, 587160, Note_on_c, 12, 72, 76
15, 587160, Note_on_c, 12, 77, 76
15, 587211, Note_on_c, 12, 72, 0
15, 587211, Note_on_c, 12, 77, 0
15, 587220, Note_on_c, 12, 77, 76
15, 587220, Note_on_c, 12, 72, 76
15, 587271, Note_on_c, 12, 77, 0
15, 587271, Note_on_c, 12, 72, 0
15, 587280, Note_on_c, 12, 72, 76
15, 587280, Note_on_c, 12, 77, 76
15, 587331, Note_on_c, 12, 72, 0
15, 587331, Note_on_c, 12, 77, 0
15, 587340, Note_on_c, 12, 72, 76
15, 587340, Note_on_c, 12, 77, 76
15, 587391, Note_on_c, 12, 72, 0
15, 587391, Note_on_c, 12, 77, 0
15, 587400, Note_on_c, 12, 77, 76
15, 587400, Note_on_c, 12, 72, 76
15, 587451, Note_on_c, 12, 77, 0
15, 587451, Note_on_c, 12, 72, 0
15, 587460, Note_on_c, 12, 77, 76
15, 587460, Note_on_c, 12, 72, 76
15, 587511, Note_on_c, 12, 77, 0
15, 587511, Note_on_c, 12, 72, 0
15, 587520, Note_on_c, 12, 84, 84
15, 587571, Note_on_c, 12, 84, 0
15, 587580, Note_on_c, 12, 84, 76
15, 587631, Note_on_c, 12, 84, 0
15, 587640, Note_on_c, 12, 84, 76
15, 587691, Note_on_c, 12, 84, 0
15, 587700, Note_on_c, 12, 84, 76
15, 587751, Note_on_c, 12, 84, 0
15, 587760, Note_on_c, 12, 84, 76
15, 587811, Note_on_c, 12, 84, 0
15, 587820, Note_on_c, 12, 84, 76
15, 587871, Note_on_c, 12, 84, 0
15, 587880, Note_on_c, 12, 84, 76
15, 587931, Note_on_c, 12, 84, 0
15, 587940, Note_on_c, 12, 84, 76
15, 587991, Note_on_c, 12, 84, 0
15, 588000, Note_on_c, 12, 84, 76
15, 588051, Note_on_c, 12, 84, 0
15, 588060, Note_on_c, 12, 84, 76
15, 588111, Note_on_c, 12, 84, 0
15, 588120, Note_on_c, 12, 84, 76
15, 588171, Note_on_c, 12, 84, 0
15, 588180, Note_on_c, 12, 84, 76
15, 588231, Note_on_c, 12, 84, 0
15, 588240, Note_on_c, 12, 75, 84
15, 588291, Note_on_c, 12, 75, 0
15, 588300, Note_on_c, 12, 75, 76
15, 588351, Note_on_c, 12, 75, 0
15, 588360, Note_on_c, 12, 75, 76
15, 588411, Note_on_c, 12, 75, 0
15, 588420, Note_on_c, 12, 75, 76
15, 588471, Note_on_c, 12, 75, 0
15, 588480, Note_on_c, 12, 75, 76
15, 588531, Note_on_c, 12, 75, 0
15, 588540, Note_on_c, 12, 75, 76
15, 588591, Note_on_c, 12, 75, 0
15, 588600, Note_on_c, 12, 75, 76
15, 588651, Note_on_c, 12, 75, 0
15, 588660, Note_on_c, 12, 75, 76
15, 588711, Note_on_c, 12, 75, 0
15, 588720, Note_on_c, 12, 75, 76
15, 588771, Note_on_c, 12, 75, 0
15, 588780, Note_on_c, 12, 75, 76
15, 588831, Note_on_c, 12, 75, 0
15, 588840, Note_on_c, 12, 75, 76
15, 588891, Note_on_c, 12, 75, 0
15, 588900, Note_on_c, 12, 75, 76
15, 588951, Note_on_c, 12, 75, 0
15, 588960, Note_on_c, 12, 74, 76
15, 588960, Note_on_c, 12, 77, 76
15, 589011, Note_on_c, 12, 74, 0
15, 589011, Note_on_c, 12, 77, 0
15, 589020, Note_on_c, 12, 77, 76
15, 589020, Note_on_c, 12, 74, 76
15, 589071, Note_on_c, 12, 77, 0
15, 589071, Note_on_c, 12, 74, 0
15, 589080, Note_on_c, 12, 77, 76
15, 589080, Note_on_c, 12, 74, 76
15, 589131, Note_on_c, 12, 77, 0
15, 589131, Note_on_c, 12, 74, 0
15, 589140, Note_on_c, 12, 74, 76
15, 589140, Note_on_c, 12, 77, 76
15, 589191, Note_on_c, 12, 74, 0
15, 589191, Note_on_c, 12, 77, 0
15, 589200, Note_on_c, 12, 74, 76
15, 589200, Note_on_c, 12, 77, 76
15, 589251, Note_on_c, 12, 74, 0
15, 589251, Note_on_c, 12, 77, 0
15, 589260, Note_on_c, 12, 74, 76
15, 589260, Note_on_c, 12, 77, 76
15, 589311, Note_on_c, 12, 74, 0
15, 589311, Note_on_c, 12, 77, 0
15, 589320, Note_on_c, 12, 77, 76
15, 589320, Note_on_c, 12, 74, 76
15, 589371, Note_on_c, 12, 77, 0
15, 589371, Note_on_c, 12, 74, 0
15, 589380, Note_on_c, 12, 74, 76
15, 589380, Note_on_c, 12, 77, 76
15, 589431, Note_on_c, 12, 74, 0
15, 589431, Note_on_c, 12, 77, 0
15, 589440, Note_on_c, 12, 74, 76
15, 589440, Note_on_c, 12, 77, 76
15, 589491, Note_on_c, 12, 74, 0
15, 589491, Note_on_c, 12, 77, 0
15, 589500, Note_on_c, 12, 77, 76
15, 589500, Note_on_c, 12, 74, 76
15, 589551, Note_on_c, 12, 77, 0
15, 589551, Note_on_c, 12, 74, 0
15, 589560, Note_on_c, 12, 74, 76
15, 589560, Note_on_c, 12, 77, 76
15, 589611, Note_on_c, 12, 74, 0
15, 589611, Note_on_c, 12, 77, 0
15, 589620, Note_on_c, 12, 74, 76
15, 589620, Note_on_c, 12, 77, 76
15, 589671, Note_on_c, 12, 74, 0
15, 589671, Note_on_c, 12, 77, 0
15, 589680, Note_on_c, 12, 75, 76
15, 589731, Note_on_c, 12, 75, 0
15, 589740, Note_on_c, 12, 75, 76
15, 589791, Note_on_c, 12, 75, 0
15, 589800, Note_on_c, 12, 75, 76
15, 589851, Note_on_c, 12, 75, 0
15, 589860, Note_on_c, 12, 75, 76
15, 589911, Note_on_c, 12, 75, 0
15, 589920, Note_on_c, 12, 75, 76
15, 589971, Note_on_c, 12, 75, 0
15, 589980, Note_on_c, 12, 75, 76
15, 590031, Note_on_c, 12, 75, 0
15, 590040, Note_on_c, 12, 75, 76
15, 590091, Note_on_c, 12, 75, 0
15, 590100, Note_on_c, 12, 75, 76
15, 590151, Note_on_c, 12, 75, 0
15, 590160, Note_on_c, 12, 75, 76
15, 590211, Note_on_c, 12, 75, 0
15, 590220, Note_on_c, 12, 75, 76
15, 590271, Note_on_c, 12, 75, 0
15, 590280, Note_on_c, 12, 75, 76
15, 590331, Note_on_c, 12, 75, 0
15, 590340, Note_on_c, 12, 75, 76
15, 590391, Note_on_c, 12, 75, 0
15, 590400, Note_on_c, 12, 72, 76
15, 590400, Note_on_c, 12, 80, 76
15, 590451, Note_on_c, 12, 72, 0
15, 590451, Note_on_c, 12, 80, 0
15, 590460, Note_on_c, 12, 72, 76
15, 590460, Note_on_c, 12, 80, 76
15, 590511, Note_on_c, 12, 72, 0
15, 590511, Note_on_c, 12, 80, 0
15, 590520, Note_on_c, 12, 72, 76
15, 590520, Note_on_c, 12, 80, 76
15, 590571, Note_on_c, 12, 72, 0
15, 590571, Note_on_c, 12, 80, 0
15, 590580, Note_on_c, 12, 80, 76
15, 590580, Note_on_c, 12, 72, 76
15, 590631, Note_on_c, 12, 80, 0
15, 590631, Note_on_c, 12, 72, 0
15, 590640, Note_on_c, 12, 72, 76
15, 590640, Note_on_c, 12, 80, 76
15, 590691, Note_on_c, 12, 72, 0
15, 590691, Note_on_c, 12, 80, 0
15, 590700, Note_on_c, 12, 80, 76
15, 590700, Note_on_c, 12, 72, 76
15, 590751, Note_on_c, 12, 80, 0
15, 590751, Note_on_c, 12, 72, 0
15, 590760, Note_on_c, 12, 72, 76
15, 590760, Note_on_c, 12, 80, 76
15, 590811, Note_on_c, 12, 72, 0
15, 590811, Note_on_c, 12, 80, 0
15, 590820, Note_on_c, 12, 80, 76
15, 590820, Note_on_c, 12, 72, 76
15, 590871, Note_on_c, 12, 80, 0
15, 590871, Note_on_c, 12, 72, 0
15, 590880, Note_on_c, 12, 80, 76
15, 590880, Note_on_c, 12, 72, 76
15, 590931, Note_on_c, 12, 80, 0
15, 590931, Note_on_c, 12, 72, 0
15, 590940, Note_on_c, 12, 80, 76
15, 590940, Note_on_c, 12, 72, 76
15, 590991, Note_on_c, 12, 80, 0
15, 590991, Note_on_c, 12, 72, 0
15, 591000, Note_on_c, 12, 80, 76
15, 591000, Note_on_c, 12, 72, 76
15, 591051, Note_on_c, 12, 80, 0
15, 591051, Note_on_c, 12, 72, 0
15, 591060, Note_on_c, 12, 72, 76
15, 591060, Note_on_c, 12, 80, 76
15, 591111, Note_on_c, 12, 72, 0
15, 591111, Note_on_c, 12, 80, 0
15, 591120, Note_on_c, 12, 79, 84
15, 591120, Note_on_c, 12, 70, 84
15, 591171, Note_on_c, 12, 79, 0
15, 591171, Note_on_c, 12, 70, 0
15, 591180, Note_on_c, 12, 70, 84
15, 591180, Note_on_c, 12, 79, 84
15, 591231, Note_on_c, 12, 70, 0
15, 591231, Note_on_c, 12, 79, 0
15, 591240, Note_on_c, 12, 70, 84
15, 591240, Note_on_c, 12, 79, 84
15, 591291, Note_on_c, 12, 70, 0
15, 591291, Note_on_c, 12, 79, 0
15, 591300, Note_on_c, 12, 70, 84
15, 591300, Note_on_c, 12, 79, 84
15, 591351, Note_on_c, 12, 70, 0
15, 591351, Note_on_c, 12, 79, 0
15, 591360, Note_on_c, 12, 70, 84
15, 591360, Note_on_c, 12, 79, 84
15, 591411, Note_on_c, 12, 70, 0
15, 591411, Note_on_c, 12, 79, 0
15, 591420, Note_on_c, 12, 70, 84
15, 591420, Note_on_c, 12, 79, 84
15, 591471, Note_on_c, 12, 70, 0
15, 591471, Note_on_c, 12, 79, 0
15, 591480, Note_on_c, 12, 79, 84
15, 591480, Note_on_c, 12, 70, 84
15, 591531, Note_on_c, 12, 79, 0
15, 591531, Note_on_c, 12, 70, 0
15, 591540, Note_on_c, 12, 79, 84
15, 591540, Note_on_c, 12, 70, 84
15, 591591, Note_on_c, 12, 79, 0
15, 591591, Note_on_c, 12, 70, 0
15, 591600, Note_on_c, 12, 70, 84
15, 591600, Note_on_c, 12, 79, 84
15, 591651, Note_on_c, 12, 70, 0
15, 591651, Note_on_c, 12, 79, 0
15, 591660, Note_on_c, 12, 70, 84
15, 591660, Note_on_c, 12, 79, 84
15, 591711, Note_on_c, 12, 70, 0
15, 591711, Note_on_c, 12, 79, 0
15, 591720, Note_on_c, 12, 79, 84
15, 591720, Note_on_c, 12, 70, 84
15, 591771, Note_on_c, 12, 79, 0
15, 591771, Note_on_c, 12, 70, 0
15, 591780, Note_on_c, 12, 79, 84
15, 591780, Note_on_c, 12, 70, 84
15, 591831, Note_on_c, 12, 79, 0
15, 591831, Note_on_c, 12, 70, 0
15, 591840, Note_on_c, 12, 70, 84
15, 591840, Note_on_c, 12, 77, 84
15, 591891, Note_on_c, 12, 70, 0
15, 591891, Note_on_c, 12, 77, 0
15, 591900, Note_on_c, 12, 70, 84
15, 591900, Note_on_c, 12, 77, 84
15, 591951, Note_on_c, 12, 70, 0
15, 591951, Note_on_c, 12, 77, 0
15, 591960, Note_on_c, 12, 77, 84
15, 591960, Note_on_c, 12, 70, 84
15, 592011, Note_on_c, 12, 77, 0
15, 592011, Note_on_c, 12, 70, 0
15, 592020, Note_on_c, 12, 70, 84
15, 592020, Note_on_c, 12, 77, 84
15, 592071, Note_on_c, 12, 70, 0
15, 592071, Note_on_c, 12, 77, 0
15, 592080, Note_on_c, 12, 70, 84
15, 592080, Note_on_c, 12, 77, 84
15, 592131, Note_on_c, 12, 70, 0
15, 592131, Note_on_c, 12, 77, 0
15, 592140, Note_on_c, 12, 77, 84
15, 592140, Note_on_c, 12, 70, 84
15, 592191, Note_on_c, 12, 77, 0
15, 592191, Note_on_c, 12, 70, 0
15, 592200, Note_on_c, 12, 70, 84
15, 592200, Note_on_c, 12, 77, 84
15, 592251, Note_on_c, 12, 70, 0
15, 592251, Note_on_c, 12, 77, 0
15, 592260, Note_on_c, 12, 70, 84
15, 592260, Note_on_c, 12, 77, 84
15, 592311, Note_on_c, 12, 70, 0
15, 592311, Note_on_c, 12, 77, 0
15, 592320, Note_on_c, 12, 77, 84
15, 592320, Note_on_c, 12, 70, 84
15, 592371, Note_on_c, 12, 77, 0
15, 592371, Note_on_c, 12, 70, 0
15, 592380, Note_on_c, 12, 70, 84
15, 592380, Note_on_c, 12, 77, 84
15, 592431, Note_on_c, 12, 70, 0
15, 592431, Note_on_c, 12, 77, 0
15, 592440, Note_on_c, 12, 70, 84
15, 592440, Note_on_c, 12, 77, 84
15, 592491, Note_on_c, 12, 70, 0
15, 592491, Note_on_c, 12, 77, 0
15, 592500, Note_on_c, 12, 77, 84
15, 592500, Note_on_c, 12, 70, 84
15, 592551, Note_on_c, 12, 77, 0
15, 592551, Note_on_c, 12, 70, 0
15, 592560, Note_on_c, 12, 79, 52
15, 592560, Note_on_c, 12, 70, 52
15, 592799, Note_on_c, 12, 79, 0
15, 592799, Note_on_c, 12, 70, 0
15, 593040, Control_c, 12, 11, 96
15, 593280, Note_on_c, 12, 63, 68
15, 593280, Control_c, 12, 11, 96
15, 593320, Control_c, 12, 11, 101
15, 593360, Control_c, 12, 11, 106
15, 593400, Control_c, 12, 11, 112
15, 593440, Control_c, 12, 11, 117
15, 593480, Control_c, 12, 11, 122
15, 593520, Control_c, 12, 11, 127
15, 593560, Control_c, 12, 11, 124
15, 593600, Control_c, 12, 11, 122
15, 593640, Control_c, 12, 11, 119
15, 593680, Control_c, 12, 11, 117
15, 593720, Control_c, 12, 11, 114
15, 593760, Control_c, 12, 11, 112
15, 593800, Control_c, 12, 11, 109
15, 593840, Control_c, 12, 11, 106
15, 593880, Control_c, 12, 11, 104
15, 593920, Control_c, 12, 11, 101
15, 593960, Control_c, 12, 11, 96
15, 594239, Note_on_c, 12, 63, 0
15, 594240, Note_on_c, 12, 70, 68
15, 594464, Note_on_c, 12, 70, 0
15, 594480, Note_on_c, 12, 70, 68
15, 594689, Note_on_c, 12, 70, 0
15, 594720, Note_on_c, 12, 70, 68
15, 594929, Note_on_c, 12, 70, 0
15, 594960, Note_on_c, 12, 70, 68
15, 595169, Note_on_c, 12, 70, 0
15, 595200, Note_on_c, 12, 70, 68
15, 595409, Note_on_c, 12, 70, 0
15, 595425, Control_c, 12, 11, 80
15, 595440, Note_on_c, 12, 70, 76
15, 595440, Control_c, 12, 11, 80
15, 595529, Note_on_c, 12, 70, 0
15, 595560, Note_on_c, 12, 75, 76
15, 595560, Control_c, 12, 11, 82
15, 595649, Note_on_c, 12, 75, 0
15, 595680, Control_c, 12, 11, 84
15, 595680, Note_on_c, 12, 74, 76
15, 595769, Note_on_c, 12, 74, 0
15, 595800, Note_on_c, 12, 75, 76
15, 595800, Control_c, 12, 11, 86
15, 595889, Note_on_c, 12, 75, 0
15, 595920, Note_on_c, 12, 77, 76
15, 595920, Control_c, 12, 11, 88
15, 596009, Note_on_c, 12, 77, 0
15, 596040, Control_c, 12, 11, 90
15, 596040, Note_on_c, 12, 79, 76
15, 596129, Note_on_c, 12, 79, 0
15, 596160, Note_on_c, 12, 80, 76
15, 596160, Control_c, 12, 11, 92
15, 596249, Note_on_c, 12, 80, 0
15, 596280, Note_on_c, 12, 82, 76
15, 596280, Control_c, 12, 11, 94
15, 596369, Note_on_c, 12, 82, 0
15, 596400, Control_c, 12, 11, 96
15, 596400, Note_on_c, 12, 84, 76
15, 596489, Note_on_c, 12, 84, 0
15, 596520, Note_on_c, 12, 75, 76
15, 596520, Control_c, 12, 11, 98
15, 596609, Note_on_c, 12, 75, 0
15, 596640, Note_on_c, 12, 74, 76
15, 596640, Control_c, 12, 11, 100
15, 596729, Note_on_c, 12, 74, 0
15, 596760, Control_c, 12, 11, 102
15, 596760, Note_on_c, 12, 72, 76
15, 596849, Note_on_c, 12, 72, 0
15, 596880, Control_c, 12, 11, 104
15, 596880, Note_on_c, 12, 70, 76
15, 596969, Note_on_c, 12, 70, 0
15, 597000, Note_on_c, 12, 67, 76
15, 597000, Control_c, 12, 11, 105
15, 597089, Note_on_c, 12, 67, 0
15, 597120, Note_on_c, 12, 65, 76
15, 597120, Control_c, 12, 11, 107
15, 597209, Note_on_c, 12, 65, 0
15, 597240, Control_c, 12, 11, 109
15, 597240, Note_on_c, 12, 67, 76
15, 597329, Note_on_c, 12, 67, 0
15, 597360, Note_on_c, 12, 74, 76
15, 597360, Control_c, 12, 11, 111
15, 597449, Note_on_c, 12, 74, 0
15, 597480, Note_on_c, 12, 75, 76
15, 597480, Control_c, 12, 11, 113
15, 597569, Note_on_c, 12, 75, 0
15, 597600, Control_c, 12, 11, 115
15, 597600, Note_on_c, 12, 77, 76
15, 597689, Note_on_c, 12, 77, 0
15, 597720, Note_on_c, 12, 77, 76
15, 597720, Control_c, 12, 11, 117
15, 597809, Note_on_c, 12, 77, 0
15, 597840, Note_on_c, 12, 77, 76
15, 597840, Control_c, 12, 11, 119
15, 597929, Note_on_c, 12, 77, 0
15, 597960, Control_c, 12, 11, 121
15, 597960, Note_on_c, 12, 77, 76
15, 598049, Note_on_c, 12, 77, 0
15, 598080, Note_on_c, 12, 77, 76
15, 598080, Control_c, 12, 11, 123
15, 598169, Note_on_c, 12, 77, 0
15, 598200, Note_on_c, 12, 77, 76
15, 598200, Control_c, 12, 11, 127
15, 598289, Note_on_c, 12, 77, 0
15, 598320, Note_on_c, 12, 77, 76
15, 598544, Note_on_c, 12, 77, 0
15, 598560, Note_on_c, 12, 68, 76
15, 599264, Note_on_c, 12, 68, 0
15, 599280, Note_on_c, 12, 74, 76
15, 599984, Note_on_c, 12, 74, 0
15, 600000, Note_on_c, 12, 77, 76
15, 600464, Note_on_c, 12, 77, 0
15, 600480, Note_on_c, 12, 80, 76
15, 600480, Note_on_c, 12, 70, 76
15, 600944, Note_on_c, 12, 80, 0
15, 600944, Note_on_c, 12, 70, 0
15, 600960, Note_on_c, 12, 80, 76
15, 600960, Note_on_c, 12, 70, 76
15, 601139, Note_on_c, 12, 80, 0
15, 601139, Note_on_c, 12, 70, 0
15, 601200, Note_on_c, 12, 80, 76
15, 601200, Note_on_c, 12, 70, 76
15, 601409, Note_on_c, 12, 80, 0
15, 601409, Note_on_c, 12, 70, 0
15, 601440, Note_on_c, 12, 56, 84
15, 601491, Note_on_c, 12, 56, 0
15, 601500, Note_on_c, 12, 56, 84
15, 601551, Note_on_c, 12, 56, 0
15, 601560, Note_on_c, 12, 56, 84
15, 601611, Note_on_c, 12, 56, 0
15, 601620, Note_on_c, 12, 56, 84
15, 601671, Note_on_c, 12, 56, 0
15, 601680, Note_on_c, 12, 56, 84
15, 601731, Note_on_c, 12, 56, 0
15, 601740, Note_on_c, 12, 56, 84
15, 601791, Note_on_c, 12, 56, 0
15, 601800, Note_on_c, 12, 56, 84
15, 601851, Note_on_c, 12, 56, 0
15, 601860, Note_on_c, 12, 56, 84
15, 601911, Note_on_c, 12, 56, 0
15, 601920, Note_on_c, 12, 56, 84
15, 601971, Note_on_c, 12, 56, 0
15, 601980, Note_on_c, 12, 56, 84
15, 602031, Note_on_c, 12, 56, 0
15, 602040, Note_on_c, 12, 56, 84
15, 602091, Note_on_c, 12, 56, 0
15, 602100, Note_on_c, 12, 56, 84
15, 602151, Note_on_c, 12, 56, 0
15, 602160, Note_on_c, 12, 56, 84
15, 602211, Note_on_c, 12, 56, 0
15, 602220, Note_on_c, 12, 56, 84
15, 602271, Note_on_c, 12, 56, 0
15, 602280, Note_on_c, 12, 56, 84
15, 602331, Note_on_c, 12, 56, 0
15, 602340, Note_on_c, 12, 56, 84
15, 602391, Note_on_c, 12, 56, 0
15, 602400, Note_on_c, 12, 56, 84
15, 602451, Note_on_c, 12, 56, 0
15, 602460, Note_on_c, 12, 56, 84
15, 602511, Note_on_c, 12, 56, 0
15, 602520, Note_on_c, 12, 56, 84
15, 602571, Note_on_c, 12, 56, 0
15, 602580, Note_on_c, 12, 56, 84
15, 602631, Note_on_c, 12, 56, 0
15, 602640, Note_on_c, 12, 56, 84
15, 602691, Note_on_c, 12, 56, 0
15, 602700, Note_on_c, 12, 56, 84
15, 602751, Note_on_c, 12, 56, 0
15, 602760, Note_on_c, 12, 56, 84
15, 602811, Note_on_c, 12, 56, 0
15, 602820, Note_on_c, 12, 56, 84
15, 602871, Note_on_c, 12, 56, 0
15, 602880, Note_on_c, 12, 56, 84
15, 602931, Note_on_c, 12, 56, 0
15, 602940, Note_on_c, 12, 56, 84
15, 602991, Note_on_c, 12, 56, 0
15, 603000, Note_on_c, 12, 56, 84
15, 603051, Note_on_c, 12, 56, 0
15, 603060, Note_on_c, 12, 56, 84
15, 603111, Note_on_c, 12, 56, 0
15, 603120, Note_on_c, 12, 56, 84
15, 603171, Note_on_c, 12, 56, 0
15, 603180, Note_on_c, 12, 56, 84
15, 603231, Note_on_c, 12, 56, 0
15, 603240, Note_on_c, 12, 56, 84
15, 603291, Note_on_c, 12, 56, 0
15, 603300, Note_on_c, 12, 56, 84
15, 603351, Note_on_c, 12, 56, 0
15, 603360, Note_on_c, 12, 56, 84
15, 603411, Note_on_c, 12, 56, 0
15, 603420, Note_on_c, 12, 56, 84
15, 603471, Note_on_c, 12, 56, 0
15, 603480, Note_on_c, 12, 56, 84
15, 603531, Note_on_c, 12, 56, 0
15, 603540, Note_on_c, 12, 56, 84
15, 603591, Note_on_c, 12, 56, 0
15, 603600, Note_on_c, 12, 56, 84
15, 603651, Note_on_c, 12, 56, 0
15, 603660, Note_on_c, 12, 56, 84
15, 603711, Note_on_c, 12, 56, 0
15, 603720, Note_on_c, 12, 56, 84
15, 603771, Note_on_c, 12, 56, 0
15, 603780, Note_on_c, 12, 56, 84
15, 603831, Note_on_c, 12, 56, 0
15, 603840, Note_on_c, 12, 74, 84
15, 603840, Note_on_c, 12, 65, 84
15, 603891, Note_on_c, 12, 74, 0
15, 603891, Note_on_c, 12, 65, 0
15, 603900, Note_on_c, 12, 74, 84
15, 603900, Note_on_c, 12, 65, 84
15, 603951, Note_on_c, 12, 74, 0
15, 603951, Note_on_c, 12, 65, 0
15, 603960, Note_on_c, 12, 74, 84
15, 603960, Note_on_c, 12, 65, 84
15, 604011, Note_on_c, 12, 74, 0
15, 604011, Note_on_c, 12, 65, 0
15, 604020, Note_on_c, 12, 74, 84
15, 604020, Note_on_c, 12, 65, 84
15, 604071, Note_on_c, 12, 74, 0
15, 604071, Note_on_c, 12, 65, 0
15, 604080, Note_on_c, 12, 75, 84
15, 604080, Note_on_c, 12, 67, 84
15, 604319, Note_on_c, 12, 75, 0
15, 604319, Note_on_c, 12, 67, 0
15, 604800, Note_on_c, 12, 79, 84
15, 604800, Note_on_c, 12, 70, 84
15, 604800, Note_on_c, 12, 63, 84
15, 604800, Note_on_c, 12, 55, 84
15, 605039, Note_on_c, 12, 79, 0
15, 605039, Note_on_c, 12, 70, 0
15, 605039, Note_on_c, 12, 63, 0
15, 605039, Note_on_c, 12, 55, 0
15, 605520, Note_on_c, 12, 63, 84
15, 605520, Note_on_c, 12, 55, 84
15, 605759, Note_on_c, 12, 63, 0
15, 605759, Note_on_c, 12, 55, 0
15, 605759, End_track
16, 0, Start_track
16, 0, Title_t, "Viola "
16, 0, MIDI_port, 0
16, 0, Program_c, 13, 48
16, 0, Control_c, 13, 11, 127
16, 0, Control_c, 13, 10, 70
16, 0, Control_c, 13, 7, 96
16, 0, Note_on_c, 13, 63, 76
16, 0, Note_on_c, 13, 55, 76
16, 179, Note_on_c, 13, 63, 0
16, 179, Note_on_c, 13, 55, 0
16, 720, Note_on_c, 13, 63, 76
16, 720, Note_on_c, 13, 55, 76
16, 899, Note_on_c, 13, 63, 0
16, 899, Note_on_c, 13, 55, 0
16, 1440, Note_on_c, 13, 58, 52
16, 1544, Note_on_c, 13, 58, 0
16, 1560, Note_on_c, 13, 58, 52
16, 1664, Note_on_c, 13, 58, 0
16, 1680, Note_on_c, 13, 58, 52
16, 1784, Note_on_c, 13, 58, 0
16, 1800, Note_on_c, 13, 58, 52
16, 1904, Note_on_c, 13, 58, 0
16, 1920, Note_on_c, 13, 58, 52
16, 2024, Note_on_c, 13, 58, 0
16, 2040, Note_on_c, 13, 58, 52
16, 2144, Note_on_c, 13, 58, 0
16, 2160, Note_on_c, 13, 58, 52
16, 2264, Note_on_c, 13, 58, 0
16, 2280, Note_on_c, 13, 58, 52
16, 2384, Note_on_c, 13, 58, 0
16, 2400, Note_on_c, 13, 58, 52
16, 2504, Note_on_c, 13, 58, 0
16, 2520, Note_on_c, 13, 58, 52
16, 2624, Note_on_c, 13, 58, 0
16, 2640, Note_on_c, 13, 58, 52
16, 2744, Note_on_c, 13, 58, 0
16, 2760, Note_on_c, 13, 58, 52
16, 2864, Note_on_c, 13, 58, 0
16, 2880, Note_on_c, 13, 58, 52
16, 2984, Note_on_c, 13, 58, 0
16, 3000, Note_on_c, 13, 58, 52
16, 3104, Note_on_c, 13, 58, 0
16, 3120, Note_on_c, 13, 58, 52
16, 3224, Note_on_c, 13, 58, 0
16, 3240, Note_on_c, 13, 58, 52
16, 3344, Note_on_c, 13, 58, 0
16, 3360, Note_on_c, 13, 58, 52
16, 3464, Note_on_c, 13, 58, 0
16, 3480, Note_on_c, 13, 58, 52
16, 3584, Note_on_c, 13, 58, 0
16, 3600, Note_on_c, 13, 58, 52
16, 3704, Note_on_c, 13, 58, 0
16, 3720, Note_on_c, 13, 58, 52
16, 3824, Note_on_c, 13, 58, 0
16, 3840, Note_on_c, 13, 58, 52
16, 3944, Note_on_c, 13, 58, 0
16, 3960, Note_on_c, 13, 58, 52
16, 4064, Note_on_c, 13, 58, 0
16, 4080, Note_on_c, 13, 58, 52
16, 4184, Note_on_c, 13, 58, 0
16, 4200, Note_on_c, 13, 58, 52
16, 4304, Note_on_c, 13, 58, 0
16, 4320, Note_on_c, 13, 58, 52
16, 4424, Note_on_c, 13, 58, 0
16, 4440, Note_on_c, 13, 58, 52
16, 4544, Note_on_c, 13, 58, 0
16, 4560, Note_on_c, 13, 58, 53
16, 4664, Note_on_c, 13, 58, 0
16, 4680, Note_on_c, 13, 58, 54
16, 4784, Note_on_c, 13, 58, 0
16, 4800, Note_on_c, 13, 58, 55
16, 4904, Note_on_c, 13, 58, 0
16, 4920, Note_on_c, 13, 58, 56
16, 5024, Note_on_c, 13, 58, 0
16, 5040, Note_on_c, 13, 58, 57
16, 5144, Note_on_c, 13, 58, 0
16, 5160, Note_on_c, 13, 58, 58
16, 5264, Note_on_c, 13, 58, 0
16, 5280, Note_on_c, 13, 58, 59
16, 5384, Note_on_c, 13, 58, 0
16, 5400, Note_on_c, 13, 58, 60
16, 5504, Note_on_c, 13, 58, 0
16, 5520, Note_on_c, 13, 58, 60
16, 5624, Note_on_c, 13, 58, 0
16, 5640, Note_on_c, 13, 58, 61
16, 5744, Note_on_c, 13, 58, 0
16, 5760, Note_on_c, 13, 58, 62
16, 5999, Note_on_c, 13, 58, 0
16, 6480, Control_c, 13, 11, 127
16, 6480, Note_on_c, 13, 68, 76
16, 6540, Control_c, 13, 11, 123
16, 6600, Control_c, 13, 11, 119
16, 6660, Control_c, 13, 11, 115
16, 6720, Control_c, 13, 11, 111
16, 6780, Control_c, 13, 11, 107
16, 6840, Control_c, 13, 11, 104
16, 6900, Control_c, 13, 11, 100
16, 6960, Control_c, 13, 11, 96
16, 7020, Control_c, 13, 11, 92
16, 7080, Control_c, 13, 11, 88
16, 7140, Control_c, 13, 11, 84
16, 7200, Control_c, 13, 11, 80
16, 7649, Note_on_c, 13, 68, 0
16, 7665, Control_c, 13, 11, 96
16, 7680, Note_on_c, 13, 67, 68
16, 7919, Note_on_c, 13, 67, 0
16, 7920, Note_on_c, 13, 65, 68
16, 8159, Note_on_c, 13, 65, 0
16, 8160, Note_on_c, 13, 67, 68
16, 8399, Note_on_c, 13, 67, 0
16, 8400, Note_on_c, 13, 68, 68
16, 8624, Note_on_c, 13, 68, 0
16, 8640, Control_c, 13, 11, 96
16, 8640, Note_on_c, 13, 67, 68
16, 8759, Note_on_c, 13, 67, 0
16, 8760, Note_on_c, 13, 70, 68
16, 8760, Control_c, 13, 11, 99
16, 8879, Note_on_c, 13, 70, 0
16, 8880, Note_on_c, 13, 68, 68
16, 8880, Control_c, 13, 11, 101
16, 8999, Note_on_c, 13, 68, 0
16, 9000, Control_c, 13, 11, 104
16, 9000, Note_on_c, 13, 67, 68
16, 9119, Note_on_c, 13, 67, 0
16, 9120, Note_on_c, 13, 65, 68
16, 9120, Control_c, 13, 11, 106
16, 9239, Note_on_c, 13, 65, 0
16, 9240, Control_c, 13, 11, 109
16, 9240, Note_on_c, 13, 63, 68
16, 9344, Note_on_c, 13, 63, 0
16, 9360, Control_c, 13, 11, 112
16, 9360, Note_on_c, 13, 62, 68
16, 9479, Note_on_c, 13, 62, 0
16, 9480, Note_on_c, 13, 58, 68
16, 9480, Control_c, 13, 11, 114
16, 9599, Note_on_c, 13, 58, 0
16, 9600, Note_on_c, 13, 63, 68
16, 9600, Control_c, 13, 11, 117
16, 9719, Note_on_c, 13, 63, 0
16, 9720, Note_on_c, 13, 58, 68
16, 9720, Control_c, 13, 11, 119
16, 9839, Note_on_c, 13, 58, 0
16, 9840, Control_c, 13, 11, 122
16, 9840, Note_on_c, 13, 56, 68
16, 9959, Note_on_c, 13, 56, 0
16, 9960, Control_c, 13, 11, 124
16, 9960, Note_on_c, 13, 53, 68
16, 10049, Note_on_c, 13, 53, 0
16, 10065, Control_c, 13, 11, 80
16, 10080, Note_on_c, 13, 55, 76
16, 10169, Note_on_c, 13, 55, 0
16, 10200, Note_on_c, 13, 55, 76
16, 10200, Note_on_c, 13, 51, 76
16, 10289, Note_on_c, 13, 55, 0
16, 10289, Note_on_c, 13, 51, 0
16, 10320, Note_on_c, 13, 51, 76
16, 10320, Note_on_c, 13, 55, 76
16, 10409, Note_on_c, 13, 51, 0
16, 10409, Note_on_c, 13, 55, 0
16, 10440, Note_on_c, 13, 51, 76
16, 10440, Note_on_c, 13, 55, 76
16, 10529, Note_on_c, 13, 51, 0
16, 10529, Note_on_c, 13, 55, 0
16, 10560, Note_on_c, 13, 51, 76
16, 10560, Note_on_c, 13, 55, 76
16, 10649, Note_on_c, 13, 51, 0
16, 10649, Note_on_c, 13, 55, 0
16, 10680, Note_on_c, 13, 51, 76
16, 10680, Note_on_c, 13, 55, 76
16, 10769, Note_on_c, 13, 51, 0
16, 10769, Note_on_c, 13, 55, 0
16, 10800, Note_on_c, 13, 51, 76
16, 10800, Note_on_c, 13, 55, 76
16, 10889, Note_on_c, 13, 51, 0
16, 10889, Note_on_c, 13, 55, 0
16, 10920, Note_on_c, 13, 51, 76
16, 10920, Note_on_c, 13, 55, 76
16, 11009, Note_on_c, 13, 51, 0
16, 11009, Note_on_c, 13, 55, 0
16, 11040, Note_on_c, 13, 51, 76
16, 11040, Note_on_c, 13, 55, 76
16, 11129, Note_on_c, 13, 51, 0
16, 11129, Note_on_c, 13, 55, 0
16, 11160, Note_on_c, 13, 55, 76
16, 11160, Note_on_c, 13, 51, 76
16, 11249, Note_on_c, 13, 55, 0
16, 11249, Note_on_c, 13, 51, 0
16, 11280, Note_on_c, 13, 51, 76
16, 11280, Note_on_c, 13, 55, 76
16, 11369, Note_on_c, 13, 51, 0
16, 11369, Note_on_c, 13, 55, 0
16, 11400, Note_on_c, 13, 55, 76
16, 11400, Note_on_c, 13, 51, 76
16, 11489, Note_on_c, 13, 55, 0
16, 11489, Note_on_c, 13, 51, 0
16, 11520, Note_on_c, 13, 51, 76
16, 11520, Note_on_c, 13, 55, 76
16, 11609, Note_on_c, 13, 51, 0
16, 11609, Note_on_c, 13, 55, 0
16, 11640, Note_on_c, 13, 51, 76
16, 11640, Note_on_c, 13, 55, 76
16, 11729, Note_on_c, 13, 51, 0
16, 11729, Note_on_c, 13, 55, 0
16, 11760, Note_on_c, 13, 55, 76
16, 11760, Note_on_c, 13, 51, 76
16, 11849, Note_on_c, 13, 55, 0
16, 11849, Note_on_c, 13, 51, 0
16, 11880, Note_on_c, 13, 51, 76
16, 11880, Note_on_c, 13, 55, 76
16, 11969, Note_on_c, 13, 51, 0
16, 11969, Note_on_c, 13, 55, 0
16, 12000, Note_on_c, 13, 55, 76
16, 12000, Note_on_c, 13, 51, 76
16, 12089, Note_on_c, 13, 55, 0
16, 12089, Note_on_c, 13, 51, 0
16, 12120, Note_on_c, 13, 55, 76
16, 12120, Note_on_c, 13, 51, 76
16, 12209, Note_on_c, 13, 55, 0
16, 12209, Note_on_c, 13, 51, 0
16, 12240, Note_on_c, 13, 55, 76
16, 12329, Note_on_c, 13, 55, 0
16, 12360, Note_on_c, 13, 55, 76
16, 12449, Note_on_c, 13, 55, 0
16, 12480, Note_on_c, 13, 55, 76
16, 12480, Note_on_c, 13, 58, 76
16, 12569, Note_on_c, 13, 55, 0
16, 12569, Note_on_c, 13, 58, 0
16, 12600, Note_on_c, 13, 58, 76
16, 12600, Note_on_c, 13, 55, 76
16, 12689, Note_on_c, 13, 58, 0
16, 12689, Note_on_c, 13, 55, 0
16, 12720, Note_on_c, 13, 55, 76
16, 12720, Note_on_c, 13, 58, 76
16, 12809, Note_on_c, 13, 55, 0
16, 12809, Note_on_c, 13, 58, 0
16, 12840, Note_on_c, 13, 58, 76
16, 12840, Note_on_c, 13, 55, 76
16, 12929, Note_on_c, 13, 58, 0
16, 12929, Note_on_c, 13, 55, 0
16, 12960, Note_on_c, 13, 56, 76
16, 12960, Note_on_c, 13, 53, 76
16, 13049, Note_on_c, 13, 56, 0
16, 13049, Note_on_c, 13, 53, 0
16, 13080, Note_on_c, 13, 53, 76
16, 13080, Note_on_c, 13, 56, 76
16, 13169, Note_on_c, 13, 53, 0
16, 13169, Note_on_c, 13, 56, 0
16, 13200, Note_on_c, 13, 56, 76
16, 13200, Note_on_c, 13, 53, 76
16, 13289, Note_on_c, 13, 56, 0
16, 13289, Note_on_c, 13, 53, 0
16, 13320, Note_on_c, 13, 56, 76
16, 13320, Note_on_c, 13, 53, 76
16, 13409, Note_on_c, 13, 56, 0
16, 13409, Note_on_c, 13, 53, 0
16, 13440, Note_on_c, 13, 56, 76
16, 13440, Note_on_c, 13, 53, 76
16, 13529, Note_on_c, 13, 56, 0
16, 13529, Note_on_c, 13, 53, 0
16, 13560, Note_on_c, 13, 53, 76
16, 13560, Note_on_c, 13, 56, 76
16, 13649, Note_on_c, 13, 53, 0
16, 13649, Note_on_c, 13, 56, 0
16, 13680, Note_on_c, 13, 53, 76
16, 13680, Note_on_c, 13, 56, 76
16, 13769, Note_on_c, 13, 53, 0
16, 13769, Note_on_c, 13, 56, 0
16, 13800, Note_on_c, 13, 56, 76
16, 13800, Note_on_c, 13, 53, 76
16, 13889, Note_on_c, 13, 56, 0
16, 13889, Note_on_c, 13, 53, 0
16, 13920, Note_on_c, 13, 53, 76
16, 13920, Note_on_c, 13, 56, 76
16, 14009, Note_on_c, 13, 53, 0
16, 14009, Note_on_c, 13, 56, 0
16, 14040, Note_on_c, 13, 56, 76
16, 14040, Note_on_c, 13, 53, 76
16, 14129, Note_on_c, 13, 56, 0
16, 14129, Note_on_c, 13, 53, 0
16, 14160, Note_on_c, 13, 58, 76
16, 14160, Note_on_c, 13, 61, 76
16, 14249, Note_on_c, 13, 58, 0
16, 14249, Note_on_c, 13, 61, 0
16, 14280, Note_on_c, 13, 58, 76
16, 14280, Note_on_c, 13, 61, 76
16, 14369, Note_on_c, 13, 58, 0
16, 14369, Note_on_c, 13, 61, 0
16, 14400, Note_on_c, 13, 60, 76
16, 14400, Note_on_c, 13, 56, 76
16, 14489, Note_on_c, 13, 60, 0
16, 14489, Note_on_c, 13, 56, 0
16, 14520, Note_on_c, 13, 56, 76
16, 14520, Note_on_c, 13, 60, 76
16, 14609, Note_on_c, 13, 56, 0
16, 14609, Note_on_c, 13, 60, 0
16, 14640, Note_on_c, 13, 56, 76
16, 14640, Note_on_c, 13, 60, 76
16, 14729, Note_on_c, 13, 56, 0
16, 14729, Note_on_c, 13, 60, 0
16, 14760, Note_on_c, 13, 60, 76
16, 14760, Note_on_c, 13, 56, 76
16, 14849, Note_on_c, 13, 60, 0
16, 14849, Note_on_c, 13, 56, 0
16, 14880, Note_on_c, 13, 60, 76
16, 14880, Note_on_c, 13, 56, 76
16, 14969, Note_on_c, 13, 60, 0
16, 14969, Note_on_c, 13, 56, 0
16, 15000, Note_on_c, 13, 56, 76
16, 15000, Note_on_c, 13, 60, 76
16, 15089, Note_on_c, 13, 56, 0
16, 15089, Note_on_c, 13, 60, 0
16, 15120, Note_on_c, 13, 60, 76
16, 15120, Note_on_c, 13, 56, 76
16, 15120, Control_c, 13, 11, 80
16, 15180, Control_c, 13, 11, 84
16, 15209, Note_on_c, 13, 60, 0
16, 15209, Note_on_c, 13, 56, 0
16, 15240, Control_c, 13, 11, 88
16, 15240, Note_on_c, 13, 60, 76
16, 15300, Control_c, 13, 11, 92
16, 15329, Note_on_c, 13, 60, 0
16, 15360, Note_on_c, 13, 60, 76
16, 15360, Control_c, 13, 11, 96
16, 15420, Control_c, 13, 11, 100
16, 15449, Note_on_c, 13, 60, 0
16, 15480, Control_c, 13, 11, 104
16, 15480, Note_on_c, 13, 60, 76
16, 15540, Control_c, 13, 11, 107
16, 15569, Note_on_c, 13, 60, 0
16, 15600, Control_c, 13, 11, 111
16, 15600, Note_on_c, 13, 59, 76
16, 15660, Control_c, 13, 11, 115
16, 15689, Note_on_c, 13, 59, 0
16, 15720, Control_c, 13, 11, 119
16, 15720, Note_on_c, 13, 59, 76
16, 15780, Control_c, 13, 11, 127
16, 15809, Note_on_c, 13, 59, 0
16, 15840, Note_on_c, 13, 58, 76
16, 15960, Control_c, 13, 11, 80
16, 16769, Note_on_c, 13, 58, 0
16, 16785, Control_c, 13, 11, 127
16, 16800, Note_on_c, 13, 50, 52
16, 17039, Note_on_c, 13, 50, 0
16, 17040, Note_on_c, 13, 53, 52
16, 17264, Note_on_c, 13, 53, 0
16, 17280, Note_on_c, 13, 55, 52
16, 17459, Note_on_c, 13, 55, 0
16, 17520, Note_on_c, 13, 54, 76
16, 17969, Note_on_c, 13, 54, 0
16, 18000, Note_on_c, 13, 54, 76
16, 18449, Note_on_c, 13, 54, 0
16, 18480, Note_on_c, 13, 54, 76
16, 18689, Note_on_c, 13, 54, 0
16, 18720, Note_on_c, 13, 53, 76
16, 18840, Control_c, 13, 11, 80
16, 18899, Note_on_c, 13, 53, 0
16, 18945, Control_c, 13, 11, 127
16, 18960, Note_on_c, 13, 58, 52
16, 19679, Note_on_c, 13, 58, 0
16, 19680, Note_on_c, 13, 50, 52
16, 19904, Note_on_c, 13, 50, 0
16, 19920, Note_on_c, 13, 58, 76
16, 20159, Note_on_c, 13, 58, 0
16, 20160, Note_on_c, 13, 56, 52
16, 20369, Note_on_c, 13, 56, 0
16, 20400, Note_on_c, 13, 68, 76
16, 20849, Note_on_c, 13, 68, 0
16, 20880, Note_on_c, 13, 68, 76
16, 21329, Note_on_c, 13, 68, 0
16, 21360, Note_on_c, 13, 68, 76
16, 21809, Note_on_c, 13, 68, 0
16, 21840, Note_on_c, 13, 67, 76
16, 22289, Note_on_c, 13, 67, 0
16, 22320, Note_on_c, 13, 67, 76
16, 22769, Note_on_c, 13, 67, 0
16, 22800, Note_on_c, 13, 67, 76
16, 23249, Note_on_c, 13, 67, 0
16, 23280, Note_on_c, 13, 68, 52
16, 23459, Note_on_c, 13, 68, 0
16, 23520, Note_on_c, 13, 68, 76
16, 23969, Note_on_c, 13, 68, 0
16, 24000, Note_on_c, 13, 67, 52
16, 24179, Note_on_c, 13, 67, 0
16, 24240, Note_on_c, 13, 67, 76
16, 24479, Note_on_c, 13, 67, 0
16, 24480, Note_on_c, 13, 62, 52
16, 24531, Note_on_c, 13, 62, 0
16, 24540, Note_on_c, 13, 65, 53
16, 24591, Note_on_c, 13, 65, 0
16, 24600, Note_on_c, 13, 65, 54
16, 24651, Note_on_c, 13, 65, 0
16, 24660, Note_on_c, 13, 65, 56
16, 24711, Note_on_c, 13, 65, 0
16, 24720, Note_on_c, 13, 65, 57
16, 24771, Note_on_c, 13, 65, 0
16, 24780, Note_on_c, 13, 65, 58
16, 24831, Note_on_c, 13, 65, 0
16, 24840, Note_on_c, 13, 63, 60
16, 24891, Note_on_c, 13, 63, 0
16, 24900, Note_on_c, 13, 63, 61
16, 24951, Note_on_c, 13, 63, 0
16, 24960, Note_on_c, 13, 62, 62
16, 25011, Note_on_c, 13, 62, 0
16, 25020, Note_on_c, 13, 62, 64
16, 25071, Note_on_c, 13, 62, 0
16, 25080, Note_on_c, 13, 60, 65
16, 25131, Note_on_c, 13, 60, 0
16, 25140, Note_on_c, 13, 60, 66
16, 25191, Note_on_c, 13, 60, 0
16, 25200, Note_on_c, 13, 58, 68
16, 25251, Note_on_c, 13, 58, 0
16, 25260, Note_on_c, 13, 58, 69
16, 25311, Note_on_c, 13, 58, 0
16, 25320, Note_on_c, 13, 56, 70
16, 25371, Note_on_c, 13, 56, 0
16, 25380, Note_on_c, 13, 56, 72
16, 25431, Note_on_c, 13, 56, 0
16, 25440, Note_on_c, 13, 55, 73
16, 25491, Note_on_c, 13, 55, 0
16, 25500, Note_on_c, 13, 55, 74
16, 25551, Note_on_c, 13, 55, 0
16, 25560, Note_on_c, 13, 53, 76
16, 25611, Note_on_c, 13, 53, 0
16, 25620, Note_on_c, 13, 53, 77
16, 25671, Note_on_c, 13, 53, 0
16, 25680, Note_on_c, 13, 51, 78
16, 25731, Note_on_c, 13, 51, 0
16, 25740, Note_on_c, 13, 51, 80
16, 25791, Note_on_c, 13, 51, 0
16, 25800, Note_on_c, 13, 56, 81
16, 25851, Note_on_c, 13, 56, 0
16, 25860, Note_on_c, 13, 56, 82
16, 25911, Note_on_c, 13, 56, 0
16, 25920, Note_on_c, 13, 55, 84
16, 26159, Note_on_c, 13, 55, 0
16, 26160, Note_on_c, 13, 63, 84
16, 26399, Note_on_c, 13, 63, 0
16, 26400, Note_on_c, 13, 67, 84
16, 26624, Note_on_c, 13, 67, 0
16, 26640, Note_on_c, 13, 63, 84
16, 27119, Note_on_c, 13, 63, 0
16, 27120, Note_on_c, 13, 58, 84
16, 27344, Note_on_c, 13, 58, 0
16, 27360, Note_on_c, 13, 63, 84
16, 27599, Note_on_c, 13, 63, 0
16, 27600, Note_on_c, 13, 67, 84
16, 27839, Note_on_c, 13, 67, 0
16, 27840, Note_on_c, 13, 70, 84
16, 28064, Note_on_c, 13, 70, 0
16, 28080, Note_on_c, 13, 63, 84
16, 28544, Note_on_c, 13, 63, 0
16, 28560, Note_on_c, 13, 55, 92
16, 28784, Note_on_c, 13, 55, 0
16, 28800, Note_on_c, 13, 60, 84
16, 29039, Note_on_c, 13, 60, 0
16, 29040, Note_on_c, 13, 63, 84
16, 29279, Note_on_c, 13, 63, 0
16, 29280, Note_on_c, 13, 67, 84
16, 29504, Note_on_c, 13, 67, 0
16, 29520, Note_on_c, 13, 60, 84
16, 29984, Note_on_c, 13, 60, 0
16, 30000, Note_on_c, 13, 61, 92
16, 30051, Note_on_c, 13, 61, 0
16, 30060, Note_on_c, 13, 61, 84
16, 30111, Note_on_c, 13, 61, 0
16, 30120, Note_on_c, 13, 61, 84
16, 30171, Note_on_c, 13, 61, 0
16, 30180, Note_on_c, 13, 61, 84
16, 30231, Note_on_c, 13, 61, 0
16, 30240, Note_on_c, 13, 60, 84
16, 30291, Note_on_c, 13, 60, 0
16, 30300, Note_on_c, 13, 60, 84
16, 30351, Note_on_c, 13, 60, 0
16, 30360, Note_on_c, 13, 60, 84
16, 30411, Note_on_c, 13, 60, 0
16, 30420, Note_on_c, 13, 60, 84
16, 30471, Note_on_c, 13, 60, 0
16, 30480, Note_on_c, 13, 60, 84
16, 30531, Note_on_c, 13, 60, 0
16, 30540, Note_on_c, 13, 60, 84
16, 30591, Note_on_c, 13, 60, 0
16, 30600, Note_on_c, 13, 60, 84
16, 30651, Note_on_c, 13, 60, 0
16, 30660, Note_on_c, 13, 60, 84
16, 30711, Note_on_c, 13, 60, 0
16, 30720, Note_on_c, 13, 60, 84
16, 30771, Note_on_c, 13, 60, 0
16, 30780, Note_on_c, 13, 60, 84
16, 30831, Note_on_c, 13, 60, 0
16, 30840, Note_on_c, 13, 60, 84
16, 30891, Note_on_c, 13, 60, 0
16, 30900, Note_on_c, 13, 60, 84
16, 30951, Note_on_c, 13, 60, 0
16, 30960, Note_on_c, 13, 60, 84
16, 31011, Note_on_c, 13, 60, 0
16, 31020, Note_on_c, 13, 60, 84
16, 31071, Note_on_c, 13, 60, 0
16, 31080, Note_on_c, 13, 58, 84
16, 31131, Note_on_c, 13, 58, 0
16, 31140, Note_on_c, 13, 58, 84
16, 31191, Note_on_c, 13, 58, 0
16, 31200, Note_on_c, 13, 57, 84
16, 31251, Note_on_c, 13, 57, 0
16, 31260, Note_on_c, 13, 57, 84
16, 31311, Note_on_c, 13, 57, 0
16, 31320, Note_on_c, 13, 58, 84
16, 31371, Note_on_c, 13, 58, 0
16, 31380, Note_on_c, 13, 58, 84
16, 31431, Note_on_c, 13, 58, 0
16, 31440, Note_on_c, 13, 60, 84
16, 31491, Note_on_c, 13, 60, 0
16, 31500, Note_on_c, 13, 60, 84
16, 31551, Note_on_c, 13, 60, 0
16, 31560, Note_on_c, 13, 58, 84
16, 31611, Note_on_c, 13, 58, 0
16, 31620, Note_on_c, 13, 58, 84
16, 31671, Note_on_c, 13, 58, 0
16, 31680, Note_on_c, 13, 57, 52
16, 31769, Note_on_c, 13, 57, 0
16, 31800, Note_on_c, 13, 53, 52
16, 31919, Note_on_c, 13, 53, 0
16, 31920, Note_on_c, 13, 57, 52
16, 32039, Note_on_c, 13, 57, 0
16, 32040, Note_on_c, 13, 53, 52
16, 32159, Note_on_c, 13, 53, 0
16, 32160, Note_on_c, 13, 57, 52
16, 32279, Note_on_c, 13, 57, 0
16, 32280, Note_on_c, 13, 53, 52
16, 32384, Note_on_c, 13, 53, 0
16, 32400, Note_on_c, 13, 57, 52
16, 32519, Note_on_c, 13, 57, 0
16, 32520, Note_on_c, 13, 53, 52
16, 32639, Note_on_c, 13, 53, 0
16, 32640, Note_on_c, 13, 57, 52
16, 32759, Note_on_c, 13, 57, 0
16, 32760, Note_on_c, 13, 53, 52
16, 32879, Note_on_c, 13, 53, 0
16, 32880, Note_on_c, 13, 57, 52
16, 32999, Note_on_c, 13, 57, 0
16, 33000, Note_on_c, 13, 53, 52
16, 33104, Note_on_c, 13, 53, 0
16, 33120, Note_on_c, 13, 57, 52
16, 33239, Note_on_c, 13, 57, 0
16, 33240, Note_on_c, 13, 53, 52
16, 33359, Note_on_c, 13, 53, 0
16, 33360, Note_on_c, 13, 57, 52
16, 33479, Note_on_c, 13, 57, 0
16, 33480, Note_on_c, 13, 53, 52
16, 33599, Note_on_c, 13, 53, 0
16, 33600, Note_on_c, 13, 57, 52
16, 33719, Note_on_c, 13, 57, 0
16, 33720, Note_on_c, 13, 53, 52
16, 33824, Note_on_c, 13, 53, 0
16, 33840, Note_on_c, 13, 57, 52
16, 33959, Note_on_c, 13, 57, 0
16, 33960, Note_on_c, 13, 53, 52
16, 34079, Note_on_c, 13, 53, 0
16, 34080, Note_on_c, 13, 57, 52
16, 34199, Note_on_c, 13, 57, 0
16, 34200, Note_on_c, 13, 53, 52
16, 34319, Note_on_c, 13, 53, 0
16, 34320, Note_on_c, 13, 57, 52
16, 34439, Note_on_c, 13, 57, 0
16, 34440, Note_on_c, 13, 53, 52
16, 34544, Note_on_c, 13, 53, 0
16, 34560, Note_on_c, 13, 58, 52
16, 34679, Note_on_c, 13, 58, 0
16, 34680, Note_on_c, 13, 53, 52
16, 34799, Note_on_c, 13, 53, 0
16, 34800, Note_on_c, 13, 58, 52
16, 34919, Note_on_c, 13, 58, 0
16, 34920, Note_on_c, 13, 53, 52
16, 35039, Note_on_c, 13, 53, 0
16, 35040, Note_on_c, 13, 58, 52
16, 35159, Note_on_c, 13, 58, 0
16, 35160, Note_on_c, 13, 53, 52
16, 35264, Note_on_c, 13, 53, 0
16, 35280, Note_on_c, 13, 58, 52
16, 35399, Note_on_c, 13, 58, 0
16, 35400, Note_on_c, 13, 53, 52
16, 35519, Note_on_c, 13, 53, 0
16, 35520, Note_on_c, 13, 58, 52
16, 35639, Note_on_c, 13, 58, 0
16, 35640, Note_on_c, 13, 53, 52
16, 35759, Note_on_c, 13, 53, 0
16, 35760, Note_on_c, 13, 58, 52
16, 35879, Note_on_c, 13, 58, 0
16, 35880, Note_on_c, 13, 53, 52
16, 35984, Note_on_c, 13, 53, 0
16, 36000, Note_on_c, 13, 58, 52
16, 36119, Note_on_c, 13, 58, 0
16, 36120, Note_on_c, 13, 53, 52
16, 36239, Note_on_c, 13, 53, 0
16, 36240, Note_on_c, 13, 58, 52
16, 36359, Note_on_c, 13, 58, 0
16, 36360, Note_on_c, 13, 53, 52
16, 36479, Note_on_c, 13, 53, 0
16, 36480, Note_on_c, 13, 58, 52
16, 36599, Note_on_c, 13, 58, 0
16, 36600, Note_on_c, 13, 53, 52
16, 36704, Note_on_c, 13, 53, 0
16, 36720, Note_on_c, 13, 58, 52
16, 36839, Note_on_c, 13, 58, 0
16, 36840, Note_on_c, 13, 53, 52
16, 36959, Note_on_c, 13, 53, 0
16, 36960, Note_on_c, 13, 58, 52
16, 37079, Note_on_c, 13, 58, 0
16, 37080, Note_on_c, 13, 53, 52
16, 37199, Note_on_c, 13, 53, 0
16, 37200, Note_on_c, 13, 58, 52
16, 37319, Note_on_c, 13, 58, 0
16, 37320, Note_on_c, 13, 53, 52
16, 37424, Note_on_c, 13, 53, 0
16, 37440, Note_on_c, 13, 60, 52
16, 37679, Note_on_c, 13, 60, 0
16, 39120, Note_on_c, 13, 67, 84
16, 39464, Note_on_c, 13, 67, 0
16, 39480, Note_on_c, 13, 65, 84
16, 39584, Note_on_c, 13, 65, 0
16, 39600, Note_on_c, 13, 63, 84
16, 39779, Note_on_c, 13, 63, 0
16, 39840, Note_on_c, 13, 62, 84
16, 40019, Note_on_c, 13, 62, 0
16, 40080, Note_on_c, 13, 60, 84
16, 40259, Note_on_c, 13, 60, 0
16, 40305, Control_c, 13, 11, 96
16, 40320, Note_on_c, 13, 58, 68
16, 40799, Note_on_c, 13, 58, 0
16, 40800, Note_on_c, 13, 57, 68
16, 40800, Control_c, 13, 11, 96
16, 40840, Control_c, 13, 11, 101
16, 40880, Control_c, 13, 11, 106
16, 40919, Note_on_c, 13, 57, 0
16, 40920, Note_on_c, 13, 56, 68
16, 40920, Control_c, 13, 11, 112
16, 40960, Control_c, 13, 11, 117
16, 41000, Control_c, 13, 11, 122
16, 41039, Note_on_c, 13, 56, 0
16, 41040, Note_on_c, 13, 55, 68
16, 41040, Control_c, 13, 11, 127
16, 41100, Control_c, 13, 11, 124
16, 41160, Control_c, 13, 11, 122
16, 41220, Control_c, 13, 11, 119
16, 41279, Note_on_c, 13, 55, 0
16, 41280, Note_on_c, 13, 53, 68
16, 41280, Control_c, 13, 11, 117
16, 41340, Control_c, 13, 11, 114
16, 41400, Control_c, 13, 11, 112
16, 41460, Control_c, 13, 11, 109
16, 41519, Note_on_c, 13, 53, 0
16, 41520, Control_c, 13, 11, 106
16, 41520, Note_on_c, 13, 51, 68
16, 41580, Control_c, 13, 11, 104
16, 41640, Control_c, 13, 11, 101
16, 41700, Control_c, 13, 11, 96
16, 41744, Note_on_c, 13, 51, 0
16, 41760, Note_on_c, 13, 50, 68
16, 41849, Note_on_c, 13, 50, 0
16, 41880, Note_on_c, 13, 65, 68
16, 41969, Note_on_c, 13, 65, 0
16, 42000, Note_on_c, 13, 63, 68
16, 42089, Note_on_c, 13, 63, 0
16, 42120, Note_on_c, 13, 62, 68
16, 42209, Note_on_c, 13, 62, 0
16, 42240, Note_on_c, 13, 60, 68
16, 42329, Note_on_c, 13, 60, 0
16, 42360, Note_on_c, 13, 58, 68
16, 42449, Note_on_c, 13, 58, 0
16, 42480, Note_on_c, 13, 57, 68
16, 42569, Note_on_c, 13, 57, 0
16, 42600, Note_on_c, 13, 58, 68
16, 42689, Note_on_c, 13, 58, 0
16, 42720, Note_on_c, 13, 60, 68
16, 42809, Note_on_c, 13, 60, 0
16, 42840, Note_on_c, 13, 53, 68
16, 42929, Note_on_c, 13, 53, 0
16, 42960, Note_on_c, 13, 55, 68
16, 43049, Note_on_c, 13, 55, 0
16, 43080, Note_on_c, 13, 57, 68
16, 43169, Note_on_c, 13, 57, 0
16, 43185, Control_c, 13, 11, 80
16, 43200, Note_on_c, 13, 58, 76
16, 43200, Control_c, 13, 11, 80
16, 43289, Note_on_c, 13, 58, 0
16, 43320, Note_on_c, 13, 70, 76
16, 43320, Control_c, 13, 11, 82
16, 43409, Note_on_c, 13, 70, 0
16, 43440, Control_c, 13, 11, 84
16, 43440, Note_on_c, 13, 70, 76
16, 43529, Note_on_c, 13, 70, 0
16, 43560, Control_c, 13, 11, 86
16, 43560, Note_on_c, 13, 70, 76
16, 43679, Note_on_c, 13, 70, 0
16, 43680, Note_on_c, 13, 69, 76
16, 43680, Control_c, 13, 11, 88
16, 43799, Note_on_c, 13, 69, 0
16, 43800, Control_c, 13, 11, 90
16, 43800, Note_on_c, 13, 68, 76
16, 43904, Note_on_c, 13, 68, 0
16, 43920, Control_c, 13, 11, 92
16, 43920, Note_on_c, 13, 67, 76
16, 44039, Note_on_c, 13, 67, 0
16, 44040, Note_on_c, 13, 65, 76
16, 44040, Control_c, 13, 11, 94
16, 44144, Note_on_c, 13, 65, 0
16, 44160, Note_on_c, 13, 63, 76
16, 44160, Control_c, 13, 11, 96
16, 44249, Note_on_c, 13, 63, 0
16, 44280, Control_c, 13, 11, 98
16, 44280, Note_on_c, 13, 67, 76
16, 44369, Note_on_c, 13, 67, 0
16, 44400, Note_on_c, 13, 65, 76
16, 44400, Control_c, 13, 11, 100
16, 44489, Note_on_c, 13, 65, 0
16, 44520, Control_c, 13, 11, 102
16, 44520, Note_on_c, 13, 63, 76
16, 44609, Note_on_c, 13, 63, 0
16, 44640, Control_c, 13, 11, 104
16, 44640, Note_on_c, 13, 62, 76
16, 44729, Note_on_c, 13, 62, 0
16, 44760, Note_on_c, 13, 62, 76
16, 44760, Control_c, 13, 11, 105
16, 44849, Note_on_c, 13, 62, 0
16, 44880, Control_c, 13, 11, 107
16, 44880, Note_on_c, 13, 60, 76
16, 44969, Note_on_c, 13, 60, 0
16, 45000, Control_c, 13, 11, 109
16, 45000, Note_on_c, 13, 65, 76
16, 45089, Note_on_c, 13, 65, 0
16, 45120, Control_c, 13, 11, 111
16, 45120, Note_on_c, 13, 69, 76
16, 45209, Note_on_c, 13, 69, 0
16, 45240, Control_c, 13, 11, 113
16, 45240, Note_on_c, 13, 70, 76
16, 45329, Note_on_c, 13, 70, 0
16, 45360, Control_c, 13, 11, 115
16, 45360, Note_on_c, 13, 72, 76
16, 45449, Note_on_c, 13, 72, 0
16, 45480, Control_c, 13, 11, 117
16, 45480, Note_on_c, 13, 72, 76
16, 45569, Note_on_c, 13, 72, 0
16, 45600, Control_c, 13, 11, 119
16, 45600, Note_on_c, 13, 72, 76
16, 45689, Note_on_c, 13, 72, 0
16, 45720, Control_c, 13, 11, 121
16, 45720, Note_on_c, 13, 72, 76
16, 45809, Note_on_c, 13, 72, 0
16, 45840, Control_c, 13, 11, 123
16, 45840, Note_on_c, 13, 72, 76
16, 45929, Note_on_c, 13, 72, 0
16, 45960, Control_c, 13, 11, 127
16, 45960, Note_on_c, 13, 72, 76
16, 46049, Note_on_c, 13, 72, 0
16, 46080, Note_on_c, 13, 72, 76
16, 46259, Note_on_c, 13, 72, 0
16, 46320, Note_on_c, 13, 60, 76
16, 46320, Note_on_c, 13, 63, 76
16, 46499, Note_on_c, 13, 60, 0
16, 46499, Note_on_c, 13, 63, 0
16, 47400, Note_on_c, 13, 60, 76
16, 47489, Note_on_c, 13, 60, 0
16, 47520, Note_on_c, 13, 58, 76
16, 47699, Note_on_c, 13, 58, 0
16, 47760, Note_on_c, 13, 62, 76
16, 47760, Note_on_c, 13, 58, 76
16, 47939, Note_on_c, 13, 62, 0
16, 47939, Note_on_c, 13, 58, 0
16, 48840, Note_on_c, 13, 62, 76
16, 48929, Note_on_c, 13, 62, 0
16, 48960, Note_on_c, 13, 62, 76
16, 49184, Note_on_c, 13, 62, 0
16, 49200, Note_on_c, 13, 74, 76
16, 49379, Note_on_c, 13, 74, 0
16, 50040, Note_on_c, 13, 56, 76
16, 50129, Note_on_c, 13, 56, 0
16, 50160, Note_on_c, 13, 56, 76
16, 50249, Note_on_c, 13, 56, 0
16, 50280, Note_on_c, 13, 65, 76
16, 50369, Note_on_c, 13, 65, 0
16, 50400, Note_on_c, 13, 63, 76
16, 50489, Note_on_c, 13, 63, 0
16, 50520, Note_on_c, 13, 60, 76
16, 50744, Note_on_c, 13, 60, 0
16, 50760, Note_on_c, 13, 60, 76
16, 50849, Note_on_c, 13, 60, 0
16, 50880, Note_on_c, 13, 57, 76
16, 50969, Note_on_c, 13, 57, 0
16, 51000, Note_on_c, 13, 62, 76
16, 51089, Note_on_c, 13, 62, 0
16, 51120, Note_on_c, 13, 62, 76
16, 51209, Note_on_c, 13, 62, 0
16, 51240, Note_on_c, 13, 58, 76
16, 51464, Note_on_c, 13, 58, 0
16, 51480, Note_on_c, 13, 63, 76
16, 51569, Note_on_c, 13, 63, 0
16, 51600, Note_on_c, 13, 60, 76
16, 51689, Note_on_c, 13, 60, 0
16, 51720, Note_on_c, 13, 65, 76
16, 51809, Note_on_c, 13, 65, 0
16, 51840, Note_on_c, 13, 65, 76
16, 51944, Note_on_c, 13, 65, 0
16, 51960, Note_on_c, 13, 70, 76
16, 52064, Note_on_c, 13, 70, 0
16, 52080, Note_on_c, 13, 68, 76
16, 52184, Note_on_c, 13, 68, 0
16, 52200, Note_on_c, 13, 68, 76
16, 52304, Note_on_c, 13, 68, 0
16, 52320, Note_on_c, 13, 67, 76
16, 52424, Note_on_c, 13, 67, 0
16, 52440, Note_on_c, 13, 67, 76
16, 52544, Note_on_c, 13, 67, 0
16, 52560, Note_on_c, 13, 66, 76
16, 52664, Note_on_c, 13, 66, 0
16, 52680, Note_on_c, 13, 66, 76
16, 52784, Note_on_c, 13, 66, 0
16, 52800, Note_on_c, 13, 65, 76
16, 52904, Note_on_c, 13, 65, 0
16, 52920, Note_on_c, 13, 65, 76
16, 53024, Note_on_c, 13, 65, 0
16, 53040, Note_on_c, 13, 62, 76
16, 53144, Note_on_c, 13, 62, 0
16, 53160, Note_on_c, 13, 62, 76
16, 53264, Note_on_c, 13, 62, 0
16, 53280, Note_on_c, 13, 63, 76
16, 53331, Note_on_c, 13, 63, 0
16, 53340, Note_on_c, 13, 58, 76
16, 53391, Note_on_c, 13, 58, 0
16, 53400, Note_on_c, 13, 58, 76
16, 53451, Note_on_c, 13, 58, 0
16, 53460, Note_on_c, 13, 58, 76
16, 53511, Note_on_c, 13, 58, 0
16, 53520, Note_on_c, 13, 58, 76
16, 53571, Note_on_c, 13, 58, 0
16, 53580, Note_on_c, 13, 58, 76
16, 53631, Note_on_c, 13, 58, 0
16, 53640, Note_on_c, 13, 58, 76
16, 53691, Note_on_c, 13, 58, 0
16, 53700, Note_on_c, 13, 58, 76
16, 53751, Note_on_c, 13, 58, 0
16, 53760, Note_on_c, 13, 59, 76
16, 53811, Note_on_c, 13, 59, 0
16, 53820, Note_on_c, 13, 59, 76
16, 53871, Note_on_c, 13, 59, 0
16, 53880, Note_on_c, 13, 59, 76
16, 53931, Note_on_c, 13, 59, 0
16, 53940, Note_on_c, 13, 59, 76
16, 53991, Note_on_c, 13, 59, 0
16, 54000, Note_on_c, 13, 60, 76
16, 54051, Note_on_c, 13, 60, 0
16, 54060, Note_on_c, 13, 60, 76
16, 54111, Note_on_c, 13, 60, 0
16, 54120, Note_on_c, 13, 59, 76
16, 54171, Note_on_c, 13, 59, 0
16, 54180, Note_on_c, 13, 59, 76
16, 54231, Note_on_c, 13, 59, 0
16, 54240, Note_on_c, 13, 62, 76
16, 54291, Note_on_c, 13, 62, 0
16, 54300, Note_on_c, 13, 62, 76
16, 54351, Note_on_c, 13, 62, 0
16, 54360, Note_on_c, 13, 60, 76
16, 54411, Note_on_c, 13, 60, 0
16, 54420, Note_on_c, 13, 60, 76
16, 54471, Note_on_c, 13, 60, 0
16, 54480, Note_on_c, 13, 65, 76
16, 54531, Note_on_c, 13, 65, 0
16, 54540, Note_on_c, 13, 65, 76
16, 54591, Note_on_c, 13, 65, 0
16, 54600, Note_on_c, 13, 63, 76
16, 54651, Note_on_c, 13, 63, 0
16, 54660, Note_on_c, 13, 63, 76
16, 54711, Note_on_c, 13, 63, 0
16, 54720, Note_on_c, 13, 62, 76
16, 54771, Note_on_c, 13, 62, 0
16, 54780, Note_on_c, 13, 62, 76
16, 54831, Note_on_c, 13, 62, 0
16, 54840, Note_on_c, 13, 65, 76
16, 54891, Note_on_c, 13, 65, 0
16, 54900, Note_on_c, 13, 65, 76
16, 54951, Note_on_c, 13, 65, 0
16, 54960, Note_on_c, 13, 64, 76
16, 55011, Note_on_c, 13, 64, 0
16, 55020, Note_on_c, 13, 64, 76
16, 55071, Note_on_c, 13, 64, 0
16, 55080, Note_on_c, 13, 63, 76
16, 55131, Note_on_c, 13, 63, 0
16, 55140, Note_on_c, 13, 63, 76
16, 55191, Note_on_c, 13, 63, 0
16, 55200, Note_on_c, 13, 62, 76
16, 55251, Note_on_c, 13, 62, 0
16, 55260, Note_on_c, 13, 62, 76
16, 55311, Note_on_c, 13, 62, 0
16, 55320, Note_on_c, 13, 60, 76
16, 55371, Note_on_c, 13, 60, 0
16, 55380, Note_on_c, 13, 60, 76
16, 55431, Note_on_c, 13, 60, 0
16, 55440, Note_on_c, 13, 58, 76
16, 55491, Note_on_c, 13, 58, 0
16, 55500, Note_on_c, 13, 58, 76
16, 55551, Note_on_c, 13, 58, 0
16, 55560, Note_on_c, 13, 60, 76
16, 55611, Note_on_c, 13, 60, 0
16, 55620, Note_on_c, 13, 60, 76
16, 55671, Note_on_c, 13, 60, 0
16, 55680, Note_on_c, 13, 61, 76
16, 55731, Note_on_c, 13, 61, 0
16, 55740, Note_on_c, 13, 61, 76
16, 55791, Note_on_c, 13, 61, 0
16, 55800, Note_on_c, 13, 62, 76
16, 55851, Note_on_c, 13, 62, 0
16, 55860, Note_on_c, 13, 62, 76
16, 55911, Note_on_c, 13, 62, 0
16, 55920, Note_on_c, 13, 60, 76
16, 55971, Note_on_c, 13, 60, 0
16, 55980, Note_on_c, 13, 60, 76
16, 56031, Note_on_c, 13, 60, 0
16, 56040, Note_on_c, 13, 58, 76
16, 56091, Note_on_c, 13, 58, 0
16, 56100, Note_on_c, 13, 58, 76
16, 56151, Note_on_c, 13, 58, 0
16, 56160, Note_on_c, 13, 57, 76
16, 56211, Note_on_c, 13, 57, 0
16, 56220, Note_on_c, 13, 60, 76
16, 56220, Note_on_c, 13, 63, 76
16, 56271, Note_on_c, 13, 60, 0
16, 56271, Note_on_c, 13, 63, 0
16, 56280, Note_on_c, 13, 60, 76
16, 56280, Note_on_c, 13, 63, 76
16, 56331, Note_on_c, 13, 60, 0
16, 56331, Note_on_c, 13, 63, 0
16, 56340, Note_on_c, 13, 60, 76
16, 56340, Note_on_c, 13, 63, 76
16, 56391, Note_on_c, 13, 60, 0
16, 56391, Note_on_c, 13, 63, 0
16, 56400, Note_on_c, 13, 63, 76
16, 56400, Note_on_c, 13, 60, 76
16, 56451, Note_on_c, 13, 63, 0
16, 56451, Note_on_c, 13, 60, 0
16, 56460, Note_on_c, 13, 63, 76
16, 56460, Note_on_c, 13, 60, 76
16, 56511, Note_on_c, 13, 63, 0
16, 56511, Note_on_c, 13, 60, 0
16, 56520, Note_on_c, 13, 60, 76
16, 56520, Note_on_c, 13, 63, 76
16, 56571, Note_on_c, 13, 60, 0
16, 56571, Note_on_c, 13, 63, 0
16, 56580, Note_on_c, 13, 63, 76
16, 56580, Note_on_c, 13, 60, 76
16, 56631, Note_on_c, 13, 63, 0
16, 56631, Note_on_c, 13, 60, 0
16, 56640, Note_on_c, 13, 63, 76
16, 56640, Note_on_c, 13, 60, 76
16, 56691, Note_on_c, 13, 63, 0
16, 56691, Note_on_c, 13, 60, 0
16, 56700, Note_on_c, 13, 63, 76
16, 56700, Note_on_c, 13, 60, 76
16, 56751, Note_on_c, 13, 63, 0
16, 56751, Note_on_c, 13, 60, 0
16, 56760, Note_on_c, 13, 63, 76
16, 56760, Note_on_c, 13, 60, 76
16, 56811, Note_on_c, 13, 63, 0
16, 56811, Note_on_c, 13, 60, 0
16, 56820, Note_on_c, 13, 63, 76
16, 56820, Note_on_c, 13, 60, 76
16, 56871, Note_on_c, 13, 63, 0
16, 56871, Note_on_c, 13, 60, 0
16, 56880, Note_on_c, 13, 63, 76
16, 56880, Note_on_c, 13, 60, 76
16, 56931, Note_on_c, 13, 63, 0
16, 56931, Note_on_c, 13, 60, 0
16, 56940, Note_on_c, 13, 60, 76
16, 56940, Note_on_c, 13, 63, 76
16, 56991, Note_on_c, 13, 60, 0
16, 56991, Note_on_c, 13, 63, 0
16, 57000, Note_on_c, 13, 63, 76
16, 57000, Note_on_c, 13, 60, 76
16, 57051, Note_on_c, 13, 63, 0
16, 57051, Note_on_c, 13, 60, 0
16, 57060, Note_on_c, 13, 60, 76
16, 57060, Note_on_c, 13, 63, 76
16, 57111, Note_on_c, 13, 60, 0
16, 57111, Note_on_c, 13, 63, 0
16, 57120, Note_on_c, 13, 60, 76
16, 57120, Note_on_c, 13, 63, 76
16, 57171, Note_on_c, 13, 60, 0
16, 57171, Note_on_c, 13, 63, 0
16, 57180, Note_on_c, 13, 60, 76
16, 57180, Note_on_c, 13, 63, 76
16, 57231, Note_on_c, 13, 60, 0
16, 57231, Note_on_c, 13, 63, 0
16, 57240, Note_on_c, 13, 60, 76
16, 57240, Note_on_c, 13, 63, 76
16, 57291, Note_on_c, 13, 60, 0
16, 57291, Note_on_c, 13, 63, 0
16, 57300, Note_on_c, 13, 63, 76
16, 57300, Note_on_c, 13, 60, 76
16, 57351, Note_on_c, 13, 63, 0
16, 57351, Note_on_c, 13, 60, 0
16, 57360, Note_on_c, 13, 63, 76
16, 57360, Note_on_c, 13, 60, 76
16, 57411, Note_on_c, 13, 63, 0
16, 57411, Note_on_c, 13, 60, 0
16, 57420, Note_on_c, 13, 60, 76
16, 57420, Note_on_c, 13, 63, 76
16, 57471, Note_on_c, 13, 60, 0
16, 57471, Note_on_c, 13, 63, 0
16, 57480, Note_on_c, 13, 60, 76
16, 57480, Note_on_c, 13, 63, 76
16, 57531, Note_on_c, 13, 60, 0
16, 57531, Note_on_c, 13, 63, 0
16, 57540, Note_on_c, 13, 63, 76
16, 57540, Note_on_c, 13, 60, 76
16, 57591, Note_on_c, 13, 63, 0
16, 57591, Note_on_c, 13, 60, 0
16, 57600, Note_on_c, 13, 57, 84
16, 57651, Note_on_c, 13, 57, 0
16, 57660, Note_on_c, 13, 57, 84
16, 57711, Note_on_c, 13, 57, 0
16, 57720, Note_on_c, 13, 64, 84
16, 57771, Note_on_c, 13, 64, 0
16, 57780, Note_on_c, 13, 64, 84
16, 57831, Note_on_c, 13, 64, 0
16, 57840, Note_on_c, 13, 63, 84
16, 57891, Note_on_c, 13, 63, 0
16, 57900, Note_on_c, 13, 63, 84
16, 57951, Note_on_c, 13, 63, 0
16, 57960, Note_on_c, 13, 62, 84
16, 58011, Note_on_c, 13, 62, 0
16, 58020, Note_on_c, 13, 62, 84
16, 58071, Note_on_c, 13, 62, 0
16, 58080, Note_on_c, 13, 60, 84
16, 58131, Note_on_c, 13, 60, 0
16, 58140, Note_on_c, 13, 60, 84
16, 58191, Note_on_c, 13, 60, 0
16, 58200, Note_on_c, 13, 58, 84
16, 58251, Note_on_c, 13, 58, 0
16, 58260, Note_on_c, 13, 58, 84
16, 58311, Note_on_c, 13, 58, 0
16, 58320, Note_on_c, 13, 57, 84
16, 58371, Note_on_c, 13, 57, 0
16, 58380, Note_on_c, 13, 57, 84
16, 58431, Note_on_c, 13, 57, 0
16, 58440, Note_on_c, 13, 55, 84
16, 58491, Note_on_c, 13, 55, 0
16, 58500, Note_on_c, 13, 55, 84
16, 58551, Note_on_c, 13, 55, 0
16, 58560, Note_on_c, 13, 53, 84
16, 58611, Note_on_c, 13, 53, 0
16, 58620, Note_on_c, 13, 53, 84
16, 58671, Note_on_c, 13, 53, 0
16, 58680, Note_on_c, 13, 51, 84
16, 58731, Note_on_c, 13, 51, 0
16, 58740, Note_on_c, 13, 51, 84
16, 58791, Note_on_c, 13, 51, 0
16, 58800, Note_on_c, 13, 50, 84
16, 58851, Note_on_c, 13, 50, 0
16, 58860, Note_on_c, 13, 50, 84
16, 58911, Note_on_c, 13, 50, 0
16, 58920, Note_on_c, 13, 60, 84
16, 58971, Note_on_c, 13, 60, 0
16, 58980, Note_on_c, 13, 60, 84
16, 59031, Note_on_c, 13, 60, 0
16, 59040, Note_on_c, 13, 58, 84
16, 59279, Note_on_c, 13, 58, 0
16, 61920, Control_c, 13, 11, 96
16, 62160, Note_on_c, 13, 63, 68
16, 62369, Note_on_c, 13, 63, 0
16, 62400, Note_on_c, 13, 63, 68
16, 62609, Note_on_c, 13, 63, 0
16, 62640, Control_c, 13, 11, 96
16, 62640, Note_on_c, 13, 63, 68
16, 62740, Control_c, 13, 11, 99
16, 62840, Control_c, 13, 11, 101
16, 62849, Note_on_c, 13, 63, 0
16, 62880, Note_on_c, 13, 63, 68
16, 62940, Control_c, 13, 11, 104
16, 63040, Control_c, 13, 11, 106
16, 63089, Note_on_c, 13, 63, 0
16, 63120, Note_on_c, 13, 63, 68
16, 63140, Control_c, 13, 11, 109
16, 63240, Control_c, 13, 11, 112
16, 63329, Note_on_c, 13, 63, 0
16, 63340, Control_c, 13, 11, 114
16, 63360, Note_on_c, 13, 63, 68
16, 63440, Control_c, 13, 11, 117
16, 63540, Control_c, 13, 11, 119
16, 63584, Note_on_c, 13, 63, 0
16, 63600, Note_on_c, 13, 63, 76
16, 63640, Control_c, 13, 11, 122
16, 63740, Control_c, 13, 11, 127
16, 64064, Note_on_c, 13, 63, 0
16, 64080, Note_on_c, 13, 63, 76
16, 64080, Control_c, 13, 11, 127
16, 64140, Control_c, 13, 11, 124
16, 64200, Control_c, 13, 11, 122
16, 64260, Control_c, 13, 11, 119
16, 64320, Control_c, 13, 11, 117
16, 64380, Control_c, 13, 11, 114
16, 64440, Control_c, 13, 11, 112
16, 64500, Control_c, 13, 11, 109
16, 64559, Note_on_c, 13, 63, 0
16, 64560, Note_on_c, 13, 63, 68
16, 64560, Control_c, 13, 11, 106
16, 64620, Control_c, 13, 11, 104
16, 64679, Note_on_c, 13, 63, 0
16, 64680, Note_on_c, 13, 60, 68
16, 64680, Control_c, 13, 11, 101
16, 64740, Control_c, 13, 11, 96
16, 64799, Note_on_c, 13, 60, 0
16, 64800, Note_on_c, 13, 62, 68
16, 65039, Note_on_c, 13, 62, 0
16, 68640, Note_on_c, 13, 62, 68
16, 68849, Note_on_c, 13, 62, 0
16, 68880, Note_on_c, 13, 62, 68
16, 69089, Note_on_c, 13, 62, 0
16, 69120, Note_on_c, 13, 55, 68
16, 69120, Control_c, 13, 11, 96
16, 69160, Control_c, 13, 11, 99
16, 69200, Control_c, 13, 11, 101
16, 69240, Control_c, 13, 11, 104
16, 69280, Control_c, 13, 11, 106
16, 69320, Control_c, 13, 11, 109
16, 69360, Control_c, 13, 11, 112
16, 69400, Control_c, 13, 11, 114
16, 69440, Control_c, 13, 11, 117
16, 69480, Control_c, 13, 11, 119
16, 69520, Control_c, 13, 11, 122
16, 69560, Control_c, 13, 11, 124
16, 69600, Control_c, 13, 11, 127
16, 69640, Control_c, 13, 11, 122
16, 69680, Control_c, 13, 11, 117
16, 69720, Control_c, 13, 11, 112
16, 69760, Control_c, 13, 11, 106
16, 69800, Control_c, 13, 11, 101
16, 69839, Note_on_c, 13, 55, 0
16, 70560, Control_c, 13, 11, 127
16, 70800, Note_on_c, 13, 60, 44
16, 70800, Note_on_c, 13, 63, 44
16, 70979, Note_on_c, 13, 60, 0
16, 70979, Note_on_c, 13, 63, 0
16, 71040, Note_on_c, 13, 60, 44
16, 71040, Note_on_c, 13, 63, 44
16, 71219, Note_on_c, 13, 60, 0
16, 71219, Note_on_c, 13, 63, 0
16, 71520, Note_on_c, 13, 62, 44
16, 71520, Note_on_c, 13, 65, 44
16, 71699, Note_on_c, 13, 62, 0
16, 71699, Note_on_c, 13, 65, 0
16, 71760, Note_on_c, 13, 65, 44
16, 71939, Note_on_c, 13, 65, 0
16, 72240, Note_on_c, 13, 65, 44
16, 72419, Note_on_c, 13, 65, 0
16, 72480, Note_on_c, 13, 65, 44
16, 72659, Note_on_c, 13, 65, 0
16, 72720, Note_on_c, 13, 65, 44
16, 72899, Note_on_c, 13, 65, 0
16, 72960, Note_on_c, 13, 65, 44
16, 73139, Note_on_c, 13, 65, 0
16, 73200, Note_on_c, 13, 65, 44
16, 73379, Note_on_c, 13, 65, 0
16, 73920, Note_on_c, 13, 67, 44
16, 74009, Note_on_c, 13, 67, 0
16, 74040, Note_on_c, 13, 65, 44
16, 74129, Note_on_c, 13, 65, 0
16, 74160, Note_on_c, 13, 63, 44
16, 74249, Note_on_c, 13, 63, 0
16, 74280, Note_on_c, 13, 65, 44
16, 74369, Note_on_c, 13, 65, 0
16, 74400, Note_on_c, 13, 67, 44
16, 74489, Note_on_c, 13, 67, 0
16, 74520, Note_on_c, 13, 65, 44
16, 74609, Note_on_c, 13, 65, 0
16, 74640, Note_on_c, 13, 63, 44
16, 74729, Note_on_c, 13, 63, 0
16, 74760, Note_on_c, 13, 62, 44
16, 74849, Note_on_c, 13, 62, 0
16, 74880, Note_on_c, 13, 60, 44
16, 74969, Note_on_c, 13, 60, 0
16, 75000, Note_on_c, 13, 62, 45
16, 75089, Note_on_c, 13, 62, 0
16, 75120, Note_on_c, 13, 63, 46
16, 75209, Note_on_c, 13, 63, 0
16, 75240, Note_on_c, 13, 65, 48
16, 75329, Note_on_c, 13, 65, 0
16, 75360, Note_on_c, 13, 67, 49
16, 75449, Note_on_c, 13, 67, 0
16, 75480, Note_on_c, 13, 65, 50
16, 75569, Note_on_c, 13, 65, 0
16, 75600, Note_on_c, 13, 63, 52
16, 75689, Note_on_c, 13, 63, 0
16, 75720, Note_on_c, 13, 65, 53
16, 75809, Note_on_c, 13, 65, 0
16, 75840, Note_on_c, 13, 67, 54
16, 75929, Note_on_c, 13, 67, 0
16, 75960, Note_on_c, 13, 65, 56
16, 76049, Note_on_c, 13, 65, 0
16, 76080, Note_on_c, 13, 63, 57
16, 76169, Note_on_c, 13, 63, 0
16, 76200, Note_on_c, 13, 62, 58
16, 76289, Note_on_c, 13, 62, 0
16, 76320, Note_on_c, 13, 60, 60
16, 76409, Note_on_c, 13, 60, 0
16, 76440, Note_on_c, 13, 62, 61
16, 76529, Note_on_c, 13, 62, 0
16, 76560, Note_on_c, 13, 63, 62
16, 76649, Note_on_c, 13, 63, 0
16, 76680, Note_on_c, 13, 65, 64
16, 76769, Note_on_c, 13, 65, 0
16, 76800, Note_on_c, 13, 63, 65
16, 76889, Note_on_c, 13, 63, 0
16, 76920, Note_on_c, 13, 62, 66
16, 77009, Note_on_c, 13, 62, 0
16, 77040, Note_on_c, 13, 60, 68
16, 77129, Note_on_c, 13, 60, 0
16, 77160, Note_on_c, 13, 58, 69
16, 77249, Note_on_c, 13, 58, 0
16, 77280, Note_on_c, 13, 57, 70
16, 77369, Note_on_c, 13, 57, 0
16, 77400, Note_on_c, 13, 55, 72
16, 77489, Note_on_c, 13, 55, 0
16, 77520, Note_on_c, 13, 53, 73
16, 77609, Note_on_c, 13, 53, 0
16, 77640, Note_on_c, 13, 51, 74
16, 77729, Note_on_c, 13, 51, 0
16, 77760, Note_on_c, 13, 50, 76
16, 77849, Note_on_c, 13, 50, 0
16, 77880, Note_on_c, 13, 50, 76
16, 77969, Note_on_c, 13, 50, 0
16, 78000, Note_on_c, 13, 53, 76
16, 78089, Note_on_c, 13, 53, 0
16, 78120, Note_on_c, 13, 58, 76
16, 78209, Note_on_c, 13, 58, 0
16, 78240, Note_on_c, 13, 62, 76
16, 78329, Note_on_c, 13, 62, 0
16, 78360, Note_on_c, 13, 50, 76
16, 78449, Note_on_c, 13, 50, 0
16, 78600, Note_on_c, 13, 50, 76
16, 78689, Note_on_c, 13, 50, 0
16, 78720, Note_on_c, 13, 53, 84
16, 78809, Note_on_c, 13, 53, 0
16, 78840, Note_on_c, 13, 58, 76
16, 78929, Note_on_c, 13, 58, 0
16, 78960, Note_on_c, 13, 62, 76
16, 79049, Note_on_c, 13, 62, 0
16, 79080, Note_on_c, 13, 50, 76
16, 79169, Note_on_c, 13, 50, 0
16, 79320, Note_on_c, 13, 51, 76
16, 79409, Note_on_c, 13, 51, 0
16, 79440, Note_on_c, 13, 53, 84
16, 79529, Note_on_c, 13, 53, 0
16, 79560, Note_on_c, 13, 57, 76
16, 79649, Note_on_c, 13, 57, 0
16, 79680, Note_on_c, 13, 60, 76
16, 79769, Note_on_c, 13, 60, 0
16, 79800, Note_on_c, 13, 51, 76
16, 79889, Note_on_c, 13, 51, 0
16, 80040, Note_on_c, 13, 51, 76
16, 80129, Note_on_c, 13, 51, 0
16, 80160, Note_on_c, 13, 57, 84
16, 80249, Note_on_c, 13, 57, 0
16, 80280, Note_on_c, 13, 60, 76
16, 80369, Note_on_c, 13, 60, 0
16, 80400, Note_on_c, 13, 63, 76
16, 80489, Note_on_c, 13, 63, 0
16, 80520, Note_on_c, 13, 51, 76
16, 80609, Note_on_c, 13, 51, 0
16, 80640, Note_on_c, 13, 50, 84
16, 80744, Note_on_c, 13, 50, 0
16, 80760, Note_on_c, 13, 50, 84
16, 80811, Note_on_c, 13, 50, 0
16, 80820, Note_on_c, 13, 50, 84
16, 80871, Note_on_c, 13, 50, 0
16, 80880, Note_on_c, 13, 53, 84
16, 80931, Note_on_c, 13, 53, 0
16, 80940, Note_on_c, 13, 53, 84
16, 80991, Note_on_c, 13, 53, 0
16, 81000, Note_on_c, 13, 58, 84
16, 81051, Note_on_c, 13, 58, 0
16, 81060, Note_on_c, 13, 58, 84
16, 81111, Note_on_c, 13, 58, 0
16, 81120, Note_on_c, 13, 62, 84
16, 81171, Note_on_c, 13, 62, 0
16, 81180, Note_on_c, 13, 62, 84
16, 81231, Note_on_c, 13, 62, 0
16, 81240, Note_on_c, 13, 50, 84
16, 81291, Note_on_c, 13, 50, 0
16, 81300, Note_on_c, 13, 50, 84
16, 81351, Note_on_c, 13, 50, 0
16, 81480, Note_on_c, 13, 50, 84
16, 81531, Note_on_c, 13, 50, 0
16, 81540, Note_on_c, 13, 50, 84
16, 81591, Note_on_c, 13, 50, 0
16, 81600, Note_on_c, 13, 53, 84
16, 81651, Note_on_c, 13, 53, 0
16, 81660, Note_on_c, 13, 53, 84
16, 81711, Note_on_c, 13, 53, 0
16, 81720, Note_on_c, 13, 58, 84
16, 81771, Note_on_c, 13, 58, 0
16, 81780, Note_on_c, 13, 58, 84
16, 81831, Note_on_c, 13, 58, 0
16, 81840, Note_on_c, 13, 62, 84
16, 81891, Note_on_c, 13, 62, 0
16, 81900, Note_on_c, 13, 62, 84
16, 81951, Note_on_c, 13, 62, 0
16, 81960, Note_on_c, 13, 50, 84
16, 82011, Note_on_c, 13, 50, 0
16, 82020, Note_on_c, 13, 50, 84
16, 82071, Note_on_c, 13, 50, 0
16, 82200, Note_on_c, 13, 51, 84
16, 82251, Note_on_c, 13, 51, 0
16, 82260, Note_on_c, 13, 51, 84
16, 82311, Note_on_c, 13, 51, 0
16, 82320, Note_on_c, 13, 53, 84
16, 82371, Note_on_c, 13, 53, 0
16, 82380, Note_on_c, 13, 53, 84
16, 82431, Note_on_c, 13, 53, 0
16, 82440, Note_on_c, 13, 60, 84
16, 82491, Note_on_c, 13, 60, 0
16, 82500, Note_on_c, 13, 60, 84
16, 82551, Note_on_c, 13, 60, 0
16, 82560, Note_on_c, 13, 63, 84
16, 82611, Note_on_c, 13, 63, 0
16, 82620, Note_on_c, 13, 63, 84
16, 82671, Note_on_c, 13, 63, 0
16, 82680, Note_on_c, 13, 51, 84
16, 82731, Note_on_c, 13, 51, 0
16, 82740, Note_on_c, 13, 51, 84
16, 82791, Note_on_c, 13, 51, 0
16, 82920, Note_on_c, 13, 51, 84
16, 82971, Note_on_c, 13, 51, 0
16, 82980, Note_on_c, 13, 51, 84
16, 83031, Note_on_c, 13, 51, 0
16, 83040, Note_on_c, 13, 53, 84
16, 83091, Note_on_c, 13, 53, 0
16, 83100, Note_on_c, 13, 53, 84
16, 83151, Note_on_c, 13, 53, 0
16, 83160, Note_on_c, 13, 57, 84
16, 83211, Note_on_c, 13, 57, 0
16, 83220, Note_on_c, 13, 57, 84
16, 83271, Note_on_c, 13, 57, 0
16, 83280, Note_on_c, 13, 60, 84
16, 83331, Note_on_c, 13, 60, 0
16, 83340, Note_on_c, 13, 60, 84
16, 83391, Note_on_c, 13, 60, 0
16, 83400, Note_on_c, 13, 57, 84
16, 83451, Note_on_c, 13, 57, 0
16, 83460, Note_on_c, 13, 57, 84
16, 83511, Note_on_c, 13, 57, 0
16, 83520, Note_on_c, 13, 58, 84
16, 83520, Note_on_c, 13, 65, 84
16, 83759, Note_on_c, 13, 58, 0
16, 83759, Note_on_c, 13, 65, 0
16, 84600, Note_on_c, 13, 51, 84
16, 84651, Note_on_c, 13, 51, 0
16, 84660, Note_on_c, 13, 51, 84
16, 84711, Note_on_c, 13, 51, 0
16, 84720, Note_on_c, 13, 52, 84
16, 84771, Note_on_c, 13, 52, 0
16, 84780, Note_on_c, 13, 52, 84
16, 84831, Note_on_c, 13, 52, 0
16, 84840, Note_on_c, 13, 53, 84
16, 84891, Note_on_c, 13, 53, 0
16, 84900, Note_on_c, 13, 53, 84
16, 84951, Note_on_c, 13, 53, 0
16, 84960, Note_on_c, 13, 55, 84
16, 85011, Note_on_c, 13, 55, 0
16, 85020, Note_on_c, 13, 55, 84
16, 85071, Note_on_c, 13, 55, 0
16, 85080, Note_on_c, 13, 53, 84
16, 85131, Note_on_c, 13, 53, 0
16, 85140, Note_on_c, 13, 53, 84
16, 85191, Note_on_c, 13, 53, 0
16, 85200, Note_on_c, 13, 51, 92
16, 85251, Note_on_c, 13, 51, 0
16, 85260, Note_on_c, 13, 51, 84
16, 85311, Note_on_c, 13, 51, 0
16, 85320, Note_on_c, 13, 55, 84
16, 85371, Note_on_c, 13, 55, 0
16, 85380, Note_on_c, 13, 55, 84
16, 85431, Note_on_c, 13, 55, 0
16, 85440, Note_on_c, 13, 48, 84
16, 85491, Note_on_c, 13, 48, 0
16, 85500, Note_on_c, 13, 48, 84
16, 85551, Note_on_c, 13, 48, 0
16, 85560, Note_on_c, 13, 55, 84
16, 85611, Note_on_c, 13, 55, 0
16, 85620, Note_on_c, 13, 55, 84
16, 85671, Note_on_c, 13, 55, 0
16, 85680, Note_on_c, 13, 54, 92
16, 85731, Note_on_c, 13, 54, 0
16, 85740, Note_on_c, 13, 54, 84
16, 85791, Note_on_c, 13, 54, 0
16, 85800, Note_on_c, 13, 57, 84
16, 85851, Note_on_c, 13, 57, 0
16, 85860, Note_on_c, 13, 57, 84
16, 85911, Note_on_c, 13, 57, 0
16, 85920, Note_on_c, 13, 50, 84
16, 85971, Note_on_c, 13, 50, 0
16, 85980, Note_on_c, 13, 50, 84
16, 86031, Note_on_c, 13, 50, 0
16, 86040, Note_on_c, 13, 56, 84
16, 86091, Note_on_c, 13, 56, 0
16, 86100, Note_on_c, 13, 56, 84
16, 86151, Note_on_c, 13, 56, 0
16, 86160, Note_on_c, 13, 55, 92
16, 86211, Note_on_c, 13, 55, 0
16, 86220, Note_on_c, 13, 55, 84
16, 86271, Note_on_c, 13, 55, 0
16, 86280, Note_on_c, 13, 58, 84
16, 86331, Note_on_c, 13, 58, 0
16, 86340, Note_on_c, 13, 58, 84
16, 86391, Note_on_c, 13, 58, 0
16, 86400, Note_on_c, 13, 51, 84
16, 86451, Note_on_c, 13, 51, 0
16, 86460, Note_on_c, 13, 51, 84
16, 86511, Note_on_c, 13, 51, 0
16, 86520, Note_on_c, 13, 58, 84
16, 86571, Note_on_c, 13, 58, 0
16, 86580, Note_on_c, 13, 58, 84
16, 86631, Note_on_c, 13, 58, 0
16, 86640, Note_on_c, 13, 57, 92
16, 86691, Note_on_c, 13, 57, 0
16, 86700, Note_on_c, 13, 57, 84
16, 86751, Note_on_c, 13, 57, 0
16, 86760, Note_on_c, 13, 60, 84
16, 86811, Note_on_c, 13, 60, 0
16, 86820, Note_on_c, 13, 60, 84
16, 86871, Note_on_c, 13, 60, 0
16, 86880, Note_on_c, 13, 53, 84
16, 86931, Note_on_c, 13, 53, 0
16, 86940, Note_on_c, 13, 53, 84
16, 86991, Note_on_c, 13, 53, 0
16, 87000, Note_on_c, 13, 60, 84
16, 87051, Note_on_c, 13, 60, 0
16, 87060, Note_on_c, 13, 60, 84
16, 87111, Note_on_c, 13, 60, 0
16, 87120, Note_on_c, 13, 58, 84
16, 87171, Note_on_c, 13, 58, 0
16, 87180, Note_on_c, 13, 58, 84
16, 87231, Note_on_c, 13, 58, 0
16, 87240, Note_on_c, 13, 62, 84
16, 87291, Note_on_c, 13, 62, 0
16, 87300, Note_on_c, 13, 62, 84
16, 87351, Note_on_c, 13, 62, 0
16, 87360, Note_on_c, 13, 55, 84
16, 87411, Note_on_c, 13, 55, 0
16, 87420, Note_on_c, 13, 67, 84
16, 87471, Note_on_c, 13, 67, 0
16, 87480, Note_on_c, 13, 67, 84
16, 87531, Note_on_c, 13, 67, 0
16, 87540, Note_on_c, 13, 67, 84
16, 87591, Note_on_c, 13, 67, 0
16, 87600, Note_on_c, 13, 67, 84
16, 87651, Note_on_c, 13, 67, 0
16, 87660, Note_on_c, 13, 67, 84
16, 87711, Note_on_c, 13, 67, 0
16, 87720, Note_on_c, 13, 67, 84
16, 87771, Note_on_c, 13, 67, 0
16, 87780, Note_on_c, 13, 67, 84
16, 87831, Note_on_c, 13, 67, 0
16, 87840, Note_on_c, 13, 66, 84
16, 88019, Note_on_c, 13, 66, 0
16, 88080, Note_on_c, 13, 66, 84
16, 88259, Note_on_c, 13, 66, 0
16, 88320, Note_on_c, 13, 67, 84
16, 88499, Note_on_c, 13, 67, 0
16, 88800, Note_on_c, 13, 62, 84
16, 88979, Note_on_c, 13, 62, 0
16, 89040, Note_on_c, 13, 63, 84
16, 89219, Note_on_c, 13, 63, 0
16, 89520, Note_on_c, 13, 64, 84
16, 89699, Note_on_c, 13, 64, 0
16, 89760, Note_on_c, 13, 65, 84
16, 89939, Note_on_c, 13, 65, 0
16, 90240, Note_on_c, 13, 66, 84
16, 90419, Note_on_c, 13, 66, 0
16, 90480, Note_on_c, 13, 67, 84
16, 90659, Note_on_c, 13, 67, 0
16, 90960, Note_on_c, 13, 62, 84
16, 91139, Note_on_c, 13, 62, 0
16, 91200, Note_on_c, 13, 63, 84
16, 91379, Note_on_c, 13, 63, 0
16, 91680, Note_on_c, 13, 64, 92
16, 91859, Note_on_c, 13, 64, 0
16, 92160, Note_on_c, 13, 64, 92
16, 92339, Note_on_c, 13, 64, 0
16, 92640, Note_on_c, 13, 64, 92
16, 92819, Note_on_c, 13, 64, 0
16, 93120, Note_on_c, 13, 64, 92
16, 93299, Note_on_c, 13, 64, 0
16, 93600, Note_on_c, 13, 64, 92
16, 93779, Note_on_c, 13, 64, 0
16, 94080, Note_on_c, 13, 64, 92
16, 94259, Note_on_c, 13, 64, 0
16, 94320, Note_on_c, 13, 53, 52
16, 94559, Note_on_c, 13, 53, 0
16, 94560, Note_on_c, 13, 58, 52
16, 94799, Note_on_c, 13, 58, 0
16, 94800, Note_on_c, 13, 62, 52
16, 95009, Note_on_c, 13, 62, 0
16, 95040, Note_on_c, 13, 54, 76
16, 95160, Control_c, 13, 11, 80
16, 95729, Note_on_c, 13, 54, 0
16, 95760, Note_on_c, 13, 53, 76
16, 95999, Note_on_c, 13, 53, 0
16, 96000, Note_on_c, 13, 58, 76
16, 96239, Note_on_c, 13, 58, 0
16, 96240, Note_on_c, 13, 62, 76
16, 96449, Note_on_c, 13, 62, 0
16, 96465, Control_c, 13, 11, 127
16, 96480, Note_on_c, 13, 55, 76
16, 96600, Control_c, 13, 11, 80
16, 97439, Note_on_c, 13, 55, 0
16, 97560, Note_on_c, 13, 58, 76
16, 97649, Note_on_c, 13, 58, 0
16, 97680, Note_on_c, 13, 55, 76
16, 97769, Note_on_c, 13, 55, 0
16, 97800, Note_on_c, 13, 51, 76
16, 97889, Note_on_c, 13, 51, 0
16, 97920, Note_on_c, 13, 60, 76
16, 98159, Note_on_c, 13, 60, 0
16, 98280, Note_on_c, 13, 60, 76
16, 98369, Note_on_c, 13, 60, 0
16, 98400, Note_on_c, 13, 56, 76
16, 98489, Note_on_c, 13, 56, 0
16, 98520, Note_on_c, 13, 51, 76
16, 98609, Note_on_c, 13, 51, 0
16, 98640, Note_on_c, 13, 60, 76
16, 98879, Note_on_c, 13, 60, 0
16, 99000, Note_on_c, 13, 60, 76
16, 99089, Note_on_c, 13, 60, 0
16, 99120, Note_on_c, 13, 57, 76
16, 99209, Note_on_c, 13, 57, 0
16, 99240, Note_on_c, 13, 53, 76
16, 99329, Note_on_c, 13, 53, 0
16, 99345, Control_c, 13, 11, 64
16, 99360, Note_on_c, 13, 62, 84
16, 99599, Note_on_c, 13, 62, 0
16, 99720, Note_on_c, 13, 58, 84
16, 99809, Note_on_c, 13, 58, 0
16, 99840, Note_on_c, 13, 65, 84
16, 99929, Note_on_c, 13, 65, 0
16, 99960, Note_on_c, 13, 62, 84
16, 100049, Note_on_c, 13, 62, 0
16, 100080, Note_on_c, 13, 63, 84
16, 100184, Note_on_c, 13, 63, 0
16, 100200, Note_on_c, 13, 51, 84
16, 100304, Note_on_c, 13, 51, 0
16, 100320, Control_c, 13, 11, 64
16, 100320, Note_on_c, 13, 63, 84
16, 100400, Control_c, 13, 11, 67
16, 100424, Note_on_c, 13, 63, 0
16, 100440, Note_on_c, 13, 63, 84
16, 100480, Control_c, 13, 11, 69
16, 100544, Note_on_c, 13, 63, 0
16, 100560, Control_c, 13, 11, 72
16, 100560, Note_on_c, 13, 63, 84
16, 100640, Control_c, 13, 11, 75
16, 100664, Note_on_c, 13, 63, 0
16, 100680, Note_on_c, 13, 63, 84
16, 100720, Control_c, 13, 11, 77
16, 100784, Note_on_c, 13, 63, 0
16, 100800, Control_c, 13, 11, 80
16, 100800, Note_on_c, 13, 55, 84
16, 100880, Control_c, 13, 11, 82
16, 100904, Note_on_c, 13, 55, 0
16, 100920, Note_on_c, 13, 55, 84
16, 100960, Control_c, 13, 11, 85
16, 101024, Note_on_c, 13, 55, 0
16, 101040, Note_on_c, 13, 55, 84
16, 101040, Control_c, 13, 11, 88
16, 101120, Control_c, 13, 11, 90
16, 101144, Note_on_c, 13, 55, 0
16, 101160, Note_on_c, 13, 55, 84
16, 101200, Control_c, 13, 11, 93
16, 101279, Note_on_c, 13, 55, 0
16, 101280, Note_on_c, 13, 59, 84
16, 101280, Control_c, 13, 11, 96
16, 101360, Control_c, 13, 11, 98
16, 101399, Note_on_c, 13, 59, 0
16, 101400, Note_on_c, 13, 60, 84
16, 101440, Control_c, 13, 11, 101
16, 101504, Note_on_c, 13, 60, 0
16, 101520, Control_c, 13, 11, 103
16, 101520, Note_on_c, 13, 65, 84
16, 101571, Note_on_c, 13, 65, 0
16, 101580, Note_on_c, 13, 65, 84
16, 101600, Control_c, 13, 11, 106
16, 101631, Note_on_c, 13, 65, 0
16, 101640, Note_on_c, 13, 65, 84
16, 101680, Control_c, 13, 11, 109
16, 101691, Note_on_c, 13, 65, 0
16, 101700, Note_on_c, 13, 65, 84
16, 101751, Note_on_c, 13, 65, 0
16, 101760, Note_on_c, 13, 65, 84
16, 101760, Control_c, 13, 11, 111
16, 101811, Note_on_c, 13, 65, 0
16, 101820, Note_on_c, 13, 65, 84
16, 101840, Control_c, 13, 11, 114
16, 101871, Note_on_c, 13, 65, 0
16, 101880, Note_on_c, 13, 65, 84
16, 101920, Control_c, 13, 11, 117
16, 101931, Note_on_c, 13, 65, 0
16, 101940, Note_on_c, 13, 65, 84
16, 101991, Note_on_c, 13, 65, 0
16, 102000, Note_on_c, 13, 62, 84
16, 102000, Control_c, 13, 11, 119
16, 102051, Note_on_c, 13, 62, 0
16, 102060, Note_on_c, 13, 62, 84
16, 102080, Control_c, 13, 11, 122
16, 102111, Note_on_c, 13, 62, 0
16, 102120, Note_on_c, 13, 58, 84
16, 102160, Control_c, 13, 11, 127
16, 102171, Note_on_c, 13, 58, 0
16, 102180, Note_on_c, 13, 58, 84
16, 102231, Note_on_c, 13, 58, 0
16, 102240, Note_on_c, 13, 57, 84
16, 102291, Note_on_c, 13, 57, 0
16, 102300, Note_on_c, 13, 69, 84
16, 102351, Note_on_c, 13, 69, 0
16, 102360, Note_on_c, 13, 69, 84
16, 102411, Note_on_c, 13, 69, 0
16, 102420, Note_on_c, 13, 69, 84
16, 102471, Note_on_c, 13, 69, 0
16, 102480, Note_on_c, 13, 69, 84
16, 102531, Note_on_c, 13, 69, 0
16, 102540, Note_on_c, 13, 69, 84
16, 102591, Note_on_c, 13, 69, 0
16, 102600, Note_on_c, 13, 69, 84
16, 102651, Note_on_c, 13, 69, 0
16, 102660, Note_on_c, 13, 69, 84
16, 102711, Note_on_c, 13, 69, 0
16, 102720, Note_on_c, 13, 69, 84
16, 102771, Note_on_c, 13, 69, 0
16, 102780, Note_on_c, 13, 69, 84
16, 102831, Note_on_c, 13, 69, 0
16, 102840, Note_on_c, 13, 69, 84
16, 102891, Note_on_c, 13, 69, 0
16, 102900, Note_on_c, 13, 69, 84
16, 102951, Note_on_c, 13, 69, 0
16, 102960, Note_on_c, 13, 70, 76
16, 103139, Note_on_c, 13, 70, 0
16, 103200, Note_on_c, 13, 53, 84
16, 103379, Note_on_c, 13, 53, 0
16, 103440, Note_on_c, 13, 50, 76
16, 103619, Note_on_c, 13, 50, 0
16, 103920, Note_on_c, 13, 55, 84
16, 104099, Note_on_c, 13, 55, 0
16, 104160, Note_on_c, 13, 51, 76
16, 104339, Note_on_c, 13, 51, 0
16, 104640, Note_on_c, 13, 53, 84
16, 104819, Note_on_c, 13, 53, 0
16, 104880, Note_on_c, 13, 50, 76
16, 105059, Note_on_c, 13, 50, 0
16, 105120, Note_on_c, 13, 63, 76
16, 105120, Note_on_c, 13, 60, 76
16, 105299, Note_on_c, 13, 63, 0
16, 105299, Note_on_c, 13, 60, 0
16, 105360, Note_on_c, 13, 60, 76
16, 105360, Note_on_c, 13, 63, 76
16, 105539, Note_on_c, 13, 60, 0
16, 105539, Note_on_c, 13, 63, 0
16, 105600, Note_on_c, 13, 63, 76
16, 105600, Note_on_c, 13, 60, 76
16, 105779, Note_on_c, 13, 63, 0
16, 105779, Note_on_c, 13, 60, 0
16, 105840, Note_on_c, 13, 62, 76
16, 105840, Note_on_c, 13, 58, 76
16, 105960, Control_c, 13, 11, 80
16, 106079, Note_on_c, 13, 62, 0
16, 106079, Note_on_c, 13, 58, 0
16, 106800, Control_c, 13, 11, 127
16, 107040, Note_on_c, 13, 50, 52
16, 107159, Note_on_c, 13, 50, 0
16, 107160, Note_on_c, 13, 53, 52
16, 107264, Note_on_c, 13, 53, 0
16, 107280, Control_c, 13, 11, 127
16, 107280, Note_on_c, 13, 56, 52
16, 107400, Control_c, 13, 11, 126
16, 107520, Control_c, 13, 11, 125
16, 107640, Control_c, 13, 11, 123
16, 107759, Note_on_c, 13, 56, 0
16, 107760, Control_c, 13, 11, 122
16, 107760, Note_on_c, 13, 59, 52
16, 107880, Control_c, 13, 11, 121
16, 107999, Note_on_c, 13, 59, 0
16, 108000, Control_c, 13, 11, 120
16, 108000, Note_on_c, 13, 56, 52
16, 108120, Control_c, 13, 11, 118
16, 108240, Control_c, 13, 11, 117
16, 108360, Control_c, 13, 11, 116
16, 108479, Note_on_c, 13, 56, 0
16, 108480, Note_on_c, 13, 53, 52
16, 108480, Control_c, 13, 11, 115
16, 108600, Control_c, 13, 11, 113
16, 108689, Note_on_c, 13, 53, 0
16, 108705, Control_c, 13, 11, 127
16, 108720, Note_on_c, 13, 50, 44
16, 109199, Note_on_c, 13, 50, 0
16, 109200, Note_on_c, 13, 59, 44
16, 109439, Note_on_c, 13, 59, 0
16, 109440, Note_on_c, 13, 57, 44
16, 109919, Note_on_c, 13, 57, 0
16, 109920, Note_on_c, 13, 58, 68
16, 110040, Control_c, 13, 11, 96
16, 110159, Note_on_c, 13, 58, 0
16, 110160, Note_on_c, 13, 51, 68
16, 110264, Note_on_c, 13, 51, 0
16, 110280, Note_on_c, 13, 58, 68
16, 110369, Note_on_c, 13, 58, 0
16, 110400, Note_on_c, 13, 58, 68
16, 110504, Note_on_c, 13, 58, 0
16, 110520, Note_on_c, 13, 58, 68
16, 110624, Note_on_c, 13, 58, 0
16, 110640, Note_on_c, 13, 58, 68
16, 110744, Note_on_c, 13, 58, 0
16, 110760, Note_on_c, 13, 58, 68
16, 110864, Note_on_c, 13, 58, 0
16, 110872, Control_c, 13, 11, 127
16, 110880, Note_on_c, 13, 58, 52
16, 110984, Note_on_c, 13, 58, 0
16, 111000, Note_on_c, 13, 58, 52
16, 111104, Note_on_c, 13, 58, 0
16, 111120, Note_on_c, 13, 58, 52
16, 111224, Note_on_c, 13, 58, 0
16, 111240, Note_on_c, 13, 58, 52
16, 111344, Note_on_c, 13, 58, 0
16, 111360, Note_on_c, 13, 58, 52
16, 111464, Note_on_c, 13, 58, 0
16, 111480, Note_on_c, 13, 58, 52
16, 111584, Note_on_c, 13, 58, 0
16, 111600, Note_on_c, 13, 58, 52
16, 111704, Note_on_c, 13, 58, 0
16, 111720, Note_on_c, 13, 58, 52
16, 111824, Note_on_c, 13, 58, 0
16, 111840, Note_on_c, 13, 58, 52
16, 111944, Note_on_c, 13, 58, 0
16, 111960, Note_on_c, 13, 58, 52
16, 112064, Note_on_c, 13, 58, 0
16, 112080, Note_on_c, 13, 58, 52
16, 112184, Note_on_c, 13, 58, 0
16, 112200, Note_on_c, 13, 58, 52
16, 112304, Note_on_c, 13, 58, 0
16, 112320, Note_on_c, 13, 58, 52
16, 112424, Note_on_c, 13, 58, 0
16, 112440, Note_on_c, 13, 58, 52
16, 112544, Note_on_c, 13, 58, 0
16, 112560, Note_on_c, 13, 58, 52
16, 112664, Note_on_c, 13, 58, 0
16, 112680, Note_on_c, 13, 58, 52
16, 112784, Note_on_c, 13, 58, 0
16, 112800, Note_on_c, 13, 58, 52
16, 112904, Note_on_c, 13, 58, 0
16, 112920, Note_on_c, 13, 58, 52
16, 113024, Note_on_c, 13, 58, 0
16, 113040, Note_on_c, 13, 58, 52
16, 113144, Note_on_c, 13, 58, 0
16, 113160, Note_on_c, 13, 58, 52
16, 113264, Note_on_c, 13, 58, 0
16, 113280, Note_on_c, 13, 58, 53
16, 113384, Note_on_c, 13, 58, 0
16, 113400, Note_on_c, 13, 58, 54
16, 113504, Note_on_c, 13, 58, 0
16, 113520, Note_on_c, 13, 58, 55
16, 113624, Note_on_c, 13, 58, 0
16, 113640, Note_on_c, 13, 58, 56
16, 113744, Note_on_c, 13, 58, 0
16, 113760, Note_on_c, 13, 58, 57
16, 113864, Note_on_c, 13, 58, 0
16, 113880, Note_on_c, 13, 58, 58
16, 113984, Note_on_c, 13, 58, 0
16, 114000, Note_on_c, 13, 58, 59
16, 114104, Note_on_c, 13, 58, 0
16, 114120, Note_on_c, 13, 58, 60
16, 114224, Note_on_c, 13, 58, 0
16, 114240, Note_on_c, 13, 58, 60
16, 114344, Note_on_c, 13, 58, 0
16, 114360, Note_on_c, 13, 58, 61
16, 114464, Note_on_c, 13, 58, 0
16, 114480, Note_on_c, 13, 58, 62
16, 114719, Note_on_c, 13, 58, 0
16, 115200, Control_c, 13, 11, 127
16, 115200, Note_on_c, 13, 68, 76
16, 115260, Control_c, 13, 11, 123
16, 115320, Control_c, 13, 11, 119
16, 115380, Control_c, 13, 11, 115
16, 115440, Control_c, 13, 11, 111
16, 115500, Control_c, 13, 11, 107
16, 115560, Control_c, 13, 11, 104
16, 115620, Control_c, 13, 11, 100
16, 115680, Control_c, 13, 11, 96
16, 115740, Control_c, 13, 11, 92
16, 115800, Control_c, 13, 11, 88
16, 115860, Control_c, 13, 11, 84
16, 115920, Control_c, 13, 11, 80
16, 116369, Note_on_c, 13, 68, 0
16, 116385, Control_c, 13, 11, 96
16, 116400, Note_on_c, 13, 67, 68
16, 116639, Note_on_c, 13, 67, 0
16, 116640, Note_on_c, 13, 65, 68
16, 116879, Note_on_c, 13, 65, 0
16, 116880, Note_on_c, 13, 67, 68
16, 117119, Note_on_c, 13, 67, 0
16, 117120, Note_on_c, 13, 68, 68
16, 117344, Note_on_c, 13, 68, 0
16, 117360, Control_c, 13, 11, 96
16, 117360, Note_on_c, 13, 67, 68
16, 117479, Note_on_c, 13, 67, 0
16, 117480, Control_c, 13, 11, 99
16, 117480, Note_on_c, 13, 70, 68
16, 117599, Note_on_c, 13, 70, 0
16, 117600, Control_c, 13, 11, 101
16, 117600, Note_on_c, 13, 68, 68
16, 117719, Note_on_c, 13, 68, 0
16, 117720, Note_on_c, 13, 67, 68
16, 117720, Control_c, 13, 11, 104
16, 117839, Note_on_c, 13, 67, 0
16, 117840, Control_c, 13, 11, 106
16, 117840, Note_on_c, 13, 65, 68
16, 117959, Note_on_c, 13, 65, 0
16, 117960, Control_c, 13, 11, 109
16, 117960, Note_on_c, 13, 63, 68
16, 118064, Note_on_c, 13, 63, 0
16, 118080, Control_c, 13, 11, 112
16, 118080, Note_on_c, 13, 62, 68
16, 118199, Note_on_c, 13, 62, 0
16, 118200, Control_c, 13, 11, 114
16, 118200, Note_on_c, 13, 58, 68
16, 118319, Note_on_c, 13, 58, 0
16, 118320, Note_on_c, 13, 63, 68
16, 118320, Control_c, 13, 11, 117
16, 118439, Note_on_c, 13, 63, 0
16, 118440, Note_on_c, 13, 58, 68
16, 118440, Control_c, 13, 11, 119
16, 118559, Note_on_c, 13, 58, 0
16, 118560, Note_on_c, 13, 56, 68
16, 118560, Control_c, 13, 11, 122
16, 118679, Note_on_c, 13, 56, 0
16, 118680, Control_c, 13, 11, 124
16, 118680, Note_on_c, 13, 53, 68
16, 118769, Note_on_c, 13, 53, 0
16, 118785, Control_c, 13, 11, 80
16, 118800, Note_on_c, 13, 55, 76
16, 118889, Note_on_c, 13, 55, 0
16, 118920, Note_on_c, 13, 55, 76
16, 118920, Note_on_c, 13, 51, 76
16, 119009, Note_on_c, 13, 55, 0
16, 119009, Note_on_c, 13, 51, 0
16, 119040, Note_on_c, 13, 51, 76
16, 119040, Note_on_c, 13, 55, 76
16, 119129, Note_on_c, 13, 51, 0
16, 119129, Note_on_c, 13, 55, 0
16, 119160, Note_on_c, 13, 55, 76
16, 119160, Note_on_c, 13, 51, 76
16, 119249, Note_on_c, 13, 55, 0
16, 119249, Note_on_c, 13, 51, 0
16, 119280, Note_on_c, 13, 55, 76
16, 119280, Note_on_c, 13, 51, 76
16, 119369, Note_on_c, 13, 55, 0
16, 119369, Note_on_c, 13, 51, 0
16, 119400, Note_on_c, 13, 51, 76
16, 119400, Note_on_c, 13, 55, 76
16, 119489, Note_on_c, 13, 51, 0
16, 119489, Note_on_c, 13, 55, 0
16, 119520, Note_on_c, 13, 55, 76
16, 119520, Note_on_c, 13, 51, 76
16, 119609, Note_on_c, 13, 55, 0
16, 119609, Note_on_c, 13, 51, 0
16, 119640, Note_on_c, 13, 55, 76
16, 119640, Note_on_c, 13, 51, 76
16, 119729, Note_on_c, 13, 55, 0
16, 119729, Note_on_c, 13, 51, 0
16, 119760, Note_on_c, 13, 51, 76
16, 119760, Note_on_c, 13, 55, 76
16, 119849, Note_on_c, 13, 51, 0
16, 119849, Note_on_c, 13, 55, 0
16, 119880, Note_on_c, 13, 51, 76
16, 119880, Note_on_c, 13, 55, 76
16, 119969, Note_on_c, 13, 51, 0
16, 119969, Note_on_c, 13, 55, 0
16, 120000, Note_on_c, 13, 51, 76
16, 120000, Note_on_c, 13, 55, 76
16, 120089, Note_on_c, 13, 51, 0
16, 120089, Note_on_c, 13, 55, 0
16, 120120, Note_on_c, 13, 55, 76
16, 120120, Note_on_c, 13, 51, 76
16, 120209, Note_on_c, 13, 55, 0
16, 120209, Note_on_c, 13, 51, 0
16, 120240, Note_on_c, 13, 55, 76
16, 120240, Note_on_c, 13, 51, 76
16, 120329, Note_on_c, 13, 55, 0
16, 120329, Note_on_c, 13, 51, 0
16, 120360, Note_on_c, 13, 55, 76
16, 120360, Note_on_c, 13, 51, 76
16, 120449, Note_on_c, 13, 55, 0
16, 120449, Note_on_c, 13, 51, 0
16, 120480, Note_on_c, 13, 51, 76
16, 120480, Note_on_c, 13, 55, 76
16, 120569, Note_on_c, 13, 51, 0
16, 120569, Note_on_c, 13, 55, 0
16, 120600, Note_on_c, 13, 55, 76
16, 120600, Note_on_c, 13, 51, 76
16, 120689, Note_on_c, 13, 55, 0
16, 120689, Note_on_c, 13, 51, 0
16, 120720, Note_on_c, 13, 55, 76
16, 120720, Note_on_c, 13, 51, 76
16, 120809, Note_on_c, 13, 55, 0
16, 120809, Note_on_c, 13, 51, 0
16, 120840, Note_on_c, 13, 51, 76
16, 120840, Note_on_c, 13, 55, 76
16, 120929, Note_on_c, 13, 51, 0
16, 120929, Note_on_c, 13, 55, 0
16, 120960, Note_on_c, 13, 55, 76
16, 121049, Note_on_c, 13, 55, 0
16, 121080, Note_on_c, 13, 55, 76
16, 121169, Note_on_c, 13, 55, 0
16, 121200, Note_on_c, 13, 55, 76
16, 121200, Note_on_c, 13, 58, 76
16, 121289, Note_on_c, 13, 55, 0
16, 121289, Note_on_c, 13, 58, 0
16, 121320, Note_on_c, 13, 58, 76
16, 121320, Note_on_c, 13, 55, 76
16, 121409, Note_on_c, 13, 58, 0
16, 121409, Note_on_c, 13, 55, 0
16, 121440, Note_on_c, 13, 58, 76
16, 121440, Note_on_c, 13, 55, 76
16, 121529, Note_on_c, 13, 58, 0
16, 121529, Note_on_c, 13, 55, 0
16, 121560, Note_on_c, 13, 58, 76
16, 121560, Note_on_c, 13, 55, 76
16, 121649, Note_on_c, 13, 58, 0
16, 121649, Note_on_c, 13, 55, 0
16, 121680, Note_on_c, 13, 53, 76
16, 121680, Note_on_c, 13, 56, 76
16, 121769, Note_on_c, 13, 53, 0
16, 121769, Note_on_c, 13, 56, 0
16, 121800, Note_on_c, 13, 56, 76
16, 121800, Note_on_c, 13, 53, 76
16, 121889, Note_on_c, 13, 56, 0
16, 121889, Note_on_c, 13, 53, 0
16, 121920, Note_on_c, 13, 53, 76
16, 121920, Note_on_c, 13, 56, 76
16, 122009, Note_on_c, 13, 53, 0
16, 122009, Note_on_c, 13, 56, 0
16, 122040, Note_on_c, 13, 56, 76
16, 122040, Note_on_c, 13, 53, 76
16, 122129, Note_on_c, 13, 56, 0
16, 122129, Note_on_c, 13, 53, 0
16, 122160, Note_on_c, 13, 53, 76
16, 122160, Note_on_c, 13, 56, 76
16, 122249, Note_on_c, 13, 53, 0
16, 122249, Note_on_c, 13, 56, 0
16, 122280, Note_on_c, 13, 56, 76
16, 122280, Note_on_c, 13, 53, 76
16, 122369, Note_on_c, 13, 56, 0
16, 122369, Note_on_c, 13, 53, 0
16, 122400, Note_on_c, 13, 53, 76
16, 122400, Note_on_c, 13, 56, 76
16, 122489, Note_on_c, 13, 53, 0
16, 122489, Note_on_c, 13, 56, 0
16, 122520, Note_on_c, 13, 53, 76
16, 122520, Note_on_c, 13, 56, 76
16, 122609, Note_on_c, 13, 53, 0
16, 122609, Note_on_c, 13, 56, 0
16, 122640, Note_on_c, 13, 56, 76
16, 122640, Note_on_c, 13, 53, 76
16, 122729, Note_on_c, 13, 56, 0
16, 122729, Note_on_c, 13, 53, 0
16, 122760, Note_on_c, 13, 56, 76
16, 122760, Note_on_c, 13, 53, 76
16, 122849, Note_on_c, 13, 56, 0
16, 122849, Note_on_c, 13, 53, 0
16, 122880, Note_on_c, 13, 61, 76
16, 122880, Note_on_c, 13, 58, 76
16, 122969, Note_on_c, 13, 61, 0
16, 122969, Note_on_c, 13, 58, 0
16, 123000, Note_on_c, 13, 58, 76
16, 123000, Note_on_c, 13, 61, 76
16, 123089, Note_on_c, 13, 58, 0
16, 123089, Note_on_c, 13, 61, 0
16, 123120, Note_on_c, 13, 56, 76
16, 123120, Note_on_c, 13, 60, 76
16, 123209, Note_on_c, 13, 56, 0
16, 123209, Note_on_c, 13, 60, 0
16, 123240, Note_on_c, 13, 56, 76
16, 123240, Note_on_c, 13, 60, 76
16, 123329, Note_on_c, 13, 56, 0
16, 123329, Note_on_c, 13, 60, 0
16, 123360, Note_on_c, 13, 56, 76
16, 123360, Note_on_c, 13, 60, 76
16, 123449, Note_on_c, 13, 56, 0
16, 123449, Note_on_c, 13, 60, 0
16, 123480, Note_on_c, 13, 60, 76
16, 123480, Note_on_c, 13, 56, 76
16, 123569, Note_on_c, 13, 60, 0
16, 123569, Note_on_c, 13, 56, 0
16, 123600, Note_on_c, 13, 60, 76
16, 123600, Note_on_c, 13, 56, 76
16, 123689, Note_on_c, 13, 60, 0
16, 123689, Note_on_c, 13, 56, 0
16, 123720, Note_on_c, 13, 60, 76
16, 123720, Note_on_c, 13, 56, 76
16, 123809, Note_on_c, 13, 60, 0
16, 123809, Note_on_c, 13, 56, 0
16, 123840, Control_c, 13, 11, 80
16, 123840, Note_on_c, 13, 60, 76
16, 123840, Note_on_c, 13, 56, 76
16, 123900, Control_c, 13, 11, 84
16, 123929, Note_on_c, 13, 60, 0
16, 123929, Note_on_c, 13, 56, 0
16, 123960, Note_on_c, 13, 60, 76
16, 123960, Control_c, 13, 11, 88
16, 124020, Control_c, 13, 11, 92
16, 124049, Note_on_c, 13, 60, 0
16, 124080, Note_on_c, 13, 60, 76
16, 124080, Control_c, 13, 11, 96
16, 124140, Control_c, 13, 11, 100
16, 124169, Note_on_c, 13, 60, 0
16, 124200, Note_on_c, 13, 60, 76
16, 124200, Control_c, 13, 11, 104
16, 124260, Control_c, 13, 11, 107
16, 124289, Note_on_c, 13, 60, 0
16, 124320, Note_on_c, 13, 59, 76
16, 124320, Control_c, 13, 11, 111
16, 124380, Control_c, 13, 11, 115
16, 124409, Note_on_c, 13, 59, 0
16, 124440, Note_on_c, 13, 59, 76
16, 124440, Control_c, 13, 11, 119
16, 124500, Control_c, 13, 11, 127
16, 124529, Note_on_c, 13, 59, 0
16, 124560, Note_on_c, 13, 58, 76
16, 124680, Control_c, 13, 11, 80
16, 125489, Note_on_c, 13, 58, 0
16, 125505, Control_c, 13, 11, 127
16, 125520, Note_on_c, 13, 50, 52
16, 125759, Note_on_c, 13, 50, 0
16, 125760, Note_on_c, 13, 53, 52
16, 125984, Note_on_c, 13, 53, 0
16, 126000, Note_on_c, 13, 55, 52
16, 126179, Note_on_c, 13, 55, 0
16, 126240, Note_on_c, 13, 54, 76
16, 126689, Note_on_c, 13, 54, 0
16, 126720, Note_on_c, 13, 54, 76
16, 127169, Note_on_c, 13, 54, 0
16, 127200, Note_on_c, 13, 54, 76
16, 127409, Note_on_c, 13, 54, 0
16, 127440, Note_on_c, 13, 53, 76
16, 127560, Control_c, 13, 11, 80
16, 127619, Note_on_c, 13, 53, 0
16, 127665, Control_c, 13, 11, 127
16, 127680, Note_on_c, 13, 58, 52
16, 128399, Note_on_c, 13, 58, 0
16, 128400, Note_on_c, 13, 50, 52
16, 128624, Note_on_c, 13, 50, 0
16, 128640, Note_on_c, 13, 58, 76
16, 128879, Note_on_c, 13, 58, 0
16, 128880, Note_on_c, 13, 56, 52
16, 129089, Note_on_c, 13, 56, 0
16, 129120, Note_on_c, 13, 68, 76
16, 129569, Note_on_c, 13, 68, 0
16, 129600, Note_on_c, 13, 68, 76
16, 130049, Note_on_c, 13, 68, 0
16, 130080, Note_on_c, 13, 68, 76
16, 130529, Note_on_c, 13, 68, 0
16, 130560, Note_on_c, 13, 67, 76
16, 131009, Note_on_c, 13, 67, 0
16, 131040, Note_on_c, 13, 67, 76
16, 131489, Note_on_c, 13, 67, 0
16, 131520, Note_on_c, 13, 67, 76
16, 131969, Note_on_c, 13, 67, 0
16, 132000, Note_on_c, 13, 68, 52
16, 132179, Note_on_c, 13, 68, 0
16, 132240, Note_on_c, 13, 68, 76
16, 132689, Note_on_c, 13, 68, 0
16, 132720, Note_on_c, 13, 67, 52
16, 132899, Note_on_c, 13, 67, 0
16, 132960, Note_on_c, 13, 67, 76
16, 133199, Note_on_c, 13, 67, 0
16, 133200, Note_on_c, 13, 62, 52
16, 133251, Note_on_c, 13, 62, 0
16, 133260, Note_on_c, 13, 65, 53
16, 133311, Note_on_c, 13, 65, 0
16, 133320, Note_on_c, 13, 65, 54
16, 133371, Note_on_c, 13, 65, 0
16, 133380, Note_on_c, 13, 65, 56
16, 133431, Note_on_c, 13, 65, 0
16, 133440, Note_on_c, 13, 65, 57
16, 133491, Note_on_c, 13, 65, 0
16, 133500, Note_on_c, 13, 65, 58
16, 133551, Note_on_c, 13, 65, 0
16, 133560, Note_on_c, 13, 63, 60
16, 133611, Note_on_c, 13, 63, 0
16, 133620, Note_on_c, 13, 63, 61
16, 133671, Note_on_c, 13, 63, 0
16, 133680, Note_on_c, 13, 62, 62
16, 133731, Note_on_c, 13, 62, 0
16, 133740, Note_on_c, 13, 62, 64
16, 133791, Note_on_c, 13, 62, 0
16, 133800, Note_on_c, 13, 60, 65
16, 133851, Note_on_c, 13, 60, 0
16, 133860, Note_on_c, 13, 60, 66
16, 133911, Note_on_c, 13, 60, 0
16, 133920, Note_on_c, 13, 58, 68
16, 133971, Note_on_c, 13, 58, 0
16, 133980, Note_on_c, 13, 58, 69
16, 134031, Note_on_c, 13, 58, 0
16, 134040, Note_on_c, 13, 56, 70
16, 134091, Note_on_c, 13, 56, 0
16, 134100, Note_on_c, 13, 56, 72
16, 134151, Note_on_c, 13, 56, 0
16, 134160, Note_on_c, 13, 55, 73
16, 134211, Note_on_c, 13, 55, 0
16, 134220, Note_on_c, 13, 55, 74
16, 134271, Note_on_c, 13, 55, 0
16, 134280, Note_on_c, 13, 53, 76
16, 134331, Note_on_c, 13, 53, 0
16, 134340, Note_on_c, 13, 53, 77
16, 134391, Note_on_c, 13, 53, 0
16, 134400, Note_on_c, 13, 51, 78
16, 134451, Note_on_c, 13, 51, 0
16, 134460, Note_on_c, 13, 51, 80
16, 134511, Note_on_c, 13, 51, 0
16, 134520, Note_on_c, 13, 56, 81
16, 134571, Note_on_c, 13, 56, 0
16, 134580, Note_on_c, 13, 56, 82
16, 134631, Note_on_c, 13, 56, 0
16, 134640, Note_on_c, 13, 55, 84
16, 134879, Note_on_c, 13, 55, 0
16, 134880, Note_on_c, 13, 63, 84
16, 135119, Note_on_c, 13, 63, 0
16, 135120, Note_on_c, 13, 67, 84
16, 135344, Note_on_c, 13, 67, 0
16, 135360, Note_on_c, 13, 63, 84
16, 135839, Note_on_c, 13, 63, 0
16, 135840, Note_on_c, 13, 58, 84
16, 136064, Note_on_c, 13, 58, 0
16, 136080, Note_on_c, 13, 63, 84
16, 136319, Note_on_c, 13, 63, 0
16, 136320, Note_on_c, 13, 67, 84
16, 136559, Note_on_c, 13, 67, 0
16, 136560, Note_on_c, 13, 70, 84
16, 136784, Note_on_c, 13, 70, 0
16, 136800, Note_on_c, 13, 63, 84
16, 137264, Note_on_c, 13, 63, 0
16, 137280, Note_on_c, 13, 55, 92
16, 137504, Note_on_c, 13, 55, 0
16, 137520, Note_on_c, 13, 60, 84
16, 137759, Note_on_c, 13, 60, 0
16, 137760, Note_on_c, 13, 63, 84
16, 137999, Note_on_c, 13, 63, 0
16, 138000, Note_on_c, 13, 67, 84
16, 138224, Note_on_c, 13, 67, 0
16, 138240, Note_on_c, 13, 60, 84
16, 138704, Note_on_c, 13, 60, 0
16, 138720, Note_on_c, 13, 61, 92
16, 138771, Note_on_c, 13, 61, 0
16, 138780, Note_on_c, 13, 61, 84
16, 138831, Note_on_c, 13, 61, 0
16, 138840, Note_on_c, 13, 61, 84
16, 138891, Note_on_c, 13, 61, 0
16, 138900, Note_on_c, 13, 61, 84
16, 138951, Note_on_c, 13, 61, 0
16, 138960, Note_on_c, 13, 60, 84
16, 139011, Note_on_c, 13, 60, 0
16, 139020, Note_on_c, 13, 60, 84
16, 139071, Note_on_c, 13, 60, 0
16, 139080, Note_on_c, 13, 60, 84
16, 139131, Note_on_c, 13, 60, 0
16, 139140, Note_on_c, 13, 60, 84
16, 139191, Note_on_c, 13, 60, 0
16, 139200, Note_on_c, 13, 60, 84
16, 139251, Note_on_c, 13, 60, 0
16, 139260, Note_on_c, 13, 60, 84
16, 139311, Note_on_c, 13, 60, 0
16, 139320, Note_on_c, 13, 60, 84
16, 139371, Note_on_c, 13, 60, 0
16, 139380, Note_on_c, 13, 60, 84
16, 139431, Note_on_c, 13, 60, 0
16, 139440, Note_on_c, 13, 60, 84
16, 139491, Note_on_c, 13, 60, 0
16, 139500, Note_on_c, 13, 60, 84
16, 139551, Note_on_c, 13, 60, 0
16, 139560, Note_on_c, 13, 60, 84
16, 139611, Note_on_c, 13, 60, 0
16, 139620, Note_on_c, 13, 60, 84
16, 139671, Note_on_c, 13, 60, 0
16, 139680, Note_on_c, 13, 60, 84
16, 139731, Note_on_c, 13, 60, 0
16, 139740, Note_on_c, 13, 60, 84
16, 139791, Note_on_c, 13, 60, 0
16, 139800, Note_on_c, 13, 58, 84
16, 139851, Note_on_c, 13, 58, 0
16, 139860, Note_on_c, 13, 58, 84
16, 139911, Note_on_c, 13, 58, 0
16, 139920, Note_on_c, 13, 57, 84
16, 139971, Note_on_c, 13, 57, 0
16, 139980, Note_on_c, 13, 57, 84
16, 140031, Note_on_c, 13, 57, 0
16, 140040, Note_on_c, 13, 58, 84
16, 140091, Note_on_c, 13, 58, 0
16, 140100, Note_on_c, 13, 58, 84
16, 140151, Note_on_c, 13, 58, 0
16, 140160, Note_on_c, 13, 60, 84
16, 140211, Note_on_c, 13, 60, 0
16, 140220, Note_on_c, 13, 60, 84
16, 140271, Note_on_c, 13, 60, 0
16, 140280, Note_on_c, 13, 58, 84
16, 140331, Note_on_c, 13, 58, 0
16, 140340, Note_on_c, 13, 58, 84
16, 140391, Note_on_c, 13, 58, 0
16, 140400, Note_on_c, 13, 57, 52
16, 140489, Note_on_c, 13, 57, 0
16, 140520, Note_on_c, 13, 53, 52
16, 140639, Note_on_c, 13, 53, 0
16, 140640, Note_on_c, 13, 57, 52
16, 140759, Note_on_c, 13, 57, 0
16, 140760, Note_on_c, 13, 53, 52
16, 140879, Note_on_c, 13, 53, 0
16, 140880, Note_on_c, 13, 57, 52
16, 140999, Note_on_c, 13, 57, 0
16, 141000, Note_on_c, 13, 53, 52
16, 141104, Note_on_c, 13, 53, 0
16, 141120, Note_on_c, 13, 57, 52
16, 141239, Note_on_c, 13, 57, 0
16, 141240, Note_on_c, 13, 53, 52
16, 141359, Note_on_c, 13, 53, 0
16, 141360, Note_on_c, 13, 57, 52
16, 141479, Note_on_c, 13, 57, 0
16, 141480, Note_on_c, 13, 53, 52
16, 141599, Note_on_c, 13, 53, 0
16, 141600, Note_on_c, 13, 57, 52
16, 141719, Note_on_c, 13, 57, 0
16, 141720, Note_on_c, 13, 53, 52
16, 141824, Note_on_c, 13, 53, 0
16, 141840, Note_on_c, 13, 57, 52
16, 141959, Note_on_c, 13, 57, 0
16, 141960, Note_on_c, 13, 53, 52
16, 142079, Note_on_c, 13, 53, 0
16, 142080, Note_on_c, 13, 57, 52
16, 142199, Note_on_c, 13, 57, 0
16, 142200, Note_on_c, 13, 53, 52
16, 142319, Note_on_c, 13, 53, 0
16, 142320, Note_on_c, 13, 57, 52
16, 142439, Note_on_c, 13, 57, 0
16, 142440, Note_on_c, 13, 53, 52
16, 142544, Note_on_c, 13, 53, 0
16, 142560, Note_on_c, 13, 57, 52
16, 142679, Note_on_c, 13, 57, 0
16, 142680, Note_on_c, 13, 53, 52
16, 142799, Note_on_c, 13, 53, 0
16, 142800, Note_on_c, 13, 57, 52
16, 142919, Note_on_c, 13, 57, 0
16, 142920, Note_on_c, 13, 53, 52
16, 143039, Note_on_c, 13, 53, 0
16, 143040, Note_on_c, 13, 57, 52
16, 143159, Note_on_c, 13, 57, 0
16, 143160, Note_on_c, 13, 53, 52
16, 143264, Note_on_c, 13, 53, 0
16, 143280, Note_on_c, 13, 58, 52
16, 143399, Note_on_c, 13, 58, 0
16, 143400, Note_on_c, 13, 53, 52
16, 143519, Note_on_c, 13, 53, 0
16, 143520, Note_on_c, 13, 58, 52
16, 143639, Note_on_c, 13, 58, 0
16, 143640, Note_on_c, 13, 53, 52
16, 143759, Note_on_c, 13, 53, 0
16, 143760, Note_on_c, 13, 58, 52
16, 143879, Note_on_c, 13, 58, 0
16, 143880, Note_on_c, 13, 53, 52
16, 143984, Note_on_c, 13, 53, 0
16, 144000, Note_on_c, 13, 58, 52
16, 144119, Note_on_c, 13, 58, 0
16, 144120, Note_on_c, 13, 53, 52
16, 144239, Note_on_c, 13, 53, 0
16, 144240, Note_on_c, 13, 58, 52
16, 144359, Note_on_c, 13, 58, 0
16, 144360, Note_on_c, 13, 53, 52
16, 144479, Note_on_c, 13, 53, 0
16, 144480, Note_on_c, 13, 58, 52
16, 144599, Note_on_c, 13, 58, 0
16, 144600, Note_on_c, 13, 53, 52
16, 144704, Note_on_c, 13, 53, 0
16, 144720, Note_on_c, 13, 58, 52
16, 144839, Note_on_c, 13, 58, 0
16, 144840, Note_on_c, 13, 53, 52
16, 144959, Note_on_c, 13, 53, 0
16, 144960, Note_on_c, 13, 58, 52
16, 145079, Note_on_c, 13, 58, 0
16, 145080, Note_on_c, 13, 53, 52
16, 145199, Note_on_c, 13, 53, 0
16, 145200, Note_on_c, 13, 58, 52
16, 145319, Note_on_c, 13, 58, 0
16, 145320, Note_on_c, 13, 53, 52
16, 145424, Note_on_c, 13, 53, 0
16, 145440, Note_on_c, 13, 58, 52
16, 145559, Note_on_c, 13, 58, 0
16, 145560, Note_on_c, 13, 53, 52
16, 145679, Note_on_c, 13, 53, 0
16, 145680, Note_on_c, 13, 58, 52
16, 145799, Note_on_c, 13, 58, 0
16, 145800, Note_on_c, 13, 53, 52
16, 145919, Note_on_c, 13, 53, 0
16, 145920, Note_on_c, 13, 58, 52
16, 146039, Note_on_c, 13, 58, 0
16, 146040, Note_on_c, 13, 53, 52
16, 146144, Note_on_c, 13, 53, 0
16, 146160, Note_on_c, 13, 60, 52
16, 146399, Note_on_c, 13, 60, 0
16, 147840, Note_on_c, 13, 67, 84
16, 148184, Note_on_c, 13, 67, 0
16, 148200, Note_on_c, 13, 65, 84
16, 148304, Note_on_c, 13, 65, 0
16, 148320, Note_on_c, 13, 63, 84
16, 148499, Note_on_c, 13, 63, 0
16, 148560, Note_on_c, 13, 62, 84
16, 148739, Note_on_c, 13, 62, 0
16, 148800, Note_on_c, 13, 60, 84
16, 148979, Note_on_c, 13, 60, 0
16, 149025, Control_c, 13, 11, 96
16, 149040, Note_on_c, 13, 58, 68
16, 149519, Note_on_c, 13, 58, 0
16, 149520, Control_c, 13, 11, 96
16, 149520, Note_on_c, 13, 57, 68
16, 149560, Control_c, 13, 11, 101
16, 149600, Control_c, 13, 11, 106
16, 149639, Note_on_c, 13, 57, 0
16, 149640, Control_c, 13, 11, 112
16, 149640, Note_on_c, 13, 56, 68
16, 149680, Control_c, 13, 11, 117
16, 149720, Control_c, 13, 11, 122
16, 149759, Note_on_c, 13, 56, 0
16, 149760, Note_on_c, 13, 55, 68
16, 149760, Control_c, 13, 11, 127
16, 149820, Control_c, 13, 11, 124
16, 149880, Control_c, 13, 11, 122
16, 149940, Control_c, 13, 11, 119
16, 149999, Note_on_c, 13, 55, 0
16, 150000, Note_on_c, 13, 53, 68
16, 150000, Control_c, 13, 11, 117
16, 150060, Control_c, 13, 11, 114
16, 150120, Control_c, 13, 11, 112
16, 150180, Control_c, 13, 11, 109
16, 150239, Note_on_c, 13, 53, 0
16, 150240, Note_on_c, 13, 51, 68
16, 150240, Control_c, 13, 11, 106
16, 150300, Control_c, 13, 11, 104
16, 150360, Control_c, 13, 11, 101
16, 150420, Control_c, 13, 11, 96
16, 150464, Note_on_c, 13, 51, 0
16, 150480, Note_on_c, 13, 50, 68
16, 150569, Note_on_c, 13, 50, 0
16, 150600, Note_on_c, 13, 65, 68
16, 150689, Note_on_c, 13, 65, 0
16, 150720, Note_on_c, 13, 63, 68
16, 150809, Note_on_c, 13, 63, 0
16, 150840, Note_on_c, 13, 62, 68
16, 150929, Note_on_c, 13, 62, 0
16, 150960, Note_on_c, 13, 60, 68
16, 151049, Note_on_c, 13, 60, 0
16, 151080, Note_on_c, 13, 58, 68
16, 151169, Note_on_c, 13, 58, 0
16, 151200, Note_on_c, 13, 57, 68
16, 151289, Note_on_c, 13, 57, 0
16, 151320, Note_on_c, 13, 58, 68
16, 151409, Note_on_c, 13, 58, 0
16, 151440, Note_on_c, 13, 60, 68
16, 151529, Note_on_c, 13, 60, 0
16, 151560, Note_on_c, 13, 53, 68
16, 151649, Note_on_c, 13, 53, 0
16, 151680, Note_on_c, 13, 55, 68
16, 151769, Note_on_c, 13, 55, 0
16, 151800, Note_on_c, 13, 57, 68
16, 151889, Note_on_c, 13, 57, 0
16, 151905, Control_c, 13, 11, 80
16, 151920, Control_c, 13, 11, 80
16, 151920, Note_on_c, 13, 58, 76
16, 152009, Note_on_c, 13, 58, 0
16, 152040, Control_c, 13, 11, 82
16, 152040, Note_on_c, 13, 70, 76
16, 152129, Note_on_c, 13, 70, 0
16, 152160, Control_c, 13, 11, 84
16, 152160, Note_on_c, 13, 70, 76
16, 152249, Note_on_c, 13, 70, 0
16, 152280, Note_on_c, 13, 70, 76
16, 152280, Control_c, 13, 11, 86
16, 152399, Note_on_c, 13, 70, 0
16, 152400, Note_on_c, 13, 69, 76
16, 152400, Control_c, 13, 11, 88
16, 152519, Note_on_c, 13, 69, 0
16, 152520, Note_on_c, 13, 68, 76
16, 152520, Control_c, 13, 11, 90
16, 152624, Note_on_c, 13, 68, 0
16, 152640, Control_c, 13, 11, 92
16, 152640, Note_on_c, 13, 67, 76
16, 152759, Note_on_c, 13, 67, 0
16, 152760, Control_c, 13, 11, 94
16, 152760, Note_on_c, 13, 65, 76
16, 152864, Note_on_c, 13, 65, 0
16, 152880, Control_c, 13, 11, 96
16, 152880, Note_on_c, 13, 63, 76
16, 152969, Note_on_c, 13, 63, 0
16, 153000, Note_on_c, 13, 67, 76
16, 153000, Control_c, 13, 11, 98
16, 153089, Note_on_c, 13, 67, 0
16, 153120, Control_c, 13, 11, 100
16, 153120, Note_on_c, 13, 65, 76
16, 153209, Note_on_c, 13, 65, 0
16, 153240, Control_c, 13, 11, 102
16, 153240, Note_on_c, 13, 63, 76
16, 153329, Note_on_c, 13, 63, 0
16, 153360, Control_c, 13, 11, 104
16, 153360, Note_on_c, 13, 62, 76
16, 153449, Note_on_c, 13, 62, 0
16, 153480, Control_c, 13, 11, 105
16, 153480, Note_on_c, 13, 62, 76
16, 153569, Note_on_c, 13, 62, 0
16, 153600, Control_c, 13, 11, 107
16, 153600, Note_on_c, 13, 60, 76
16, 153689, Note_on_c, 13, 60, 0
16, 153720, Control_c, 13, 11, 109
16, 153720, Note_on_c, 13, 65, 76
16, 153809, Note_on_c, 13, 65, 0
16, 153840, Control_c, 13, 11, 111
16, 153840, Note_on_c, 13, 69, 76
16, 153929, Note_on_c, 13, 69, 0
16, 153960, Note_on_c, 13, 70, 76
16, 153960, Control_c, 13, 11, 113
16, 154049, Note_on_c, 13, 70, 0
16, 154080, Note_on_c, 13, 72, 76
16, 154080, Control_c, 13, 11, 115
16, 154169, Note_on_c, 13, 72, 0
16, 154200, Control_c, 13, 11, 117
16, 154200, Note_on_c, 13, 72, 76
16, 154289, Note_on_c, 13, 72, 0
16, 154320, Note_on_c, 13, 72, 76
16, 154320, Control_c, 13, 11, 119
16, 154409, Note_on_c, 13, 72, 0
16, 154440, Note_on_c, 13, 72, 76
16, 154440, Control_c, 13, 11, 121
16, 154529, Note_on_c, 13, 72, 0
16, 154560, Note_on_c, 13, 72, 76
16, 154560, Control_c, 13, 11, 123
16, 154649, Note_on_c, 13, 72, 0
16, 154680, Control_c, 13, 11, 127
16, 154680, Note_on_c, 13, 72, 76
16, 154769, Note_on_c, 13, 72, 0
16, 154800, Note_on_c, 13, 72, 76
16, 154979, Note_on_c, 13, 72, 0
16, 155040, Note_on_c, 13, 63, 76
16, 155040, Note_on_c, 13, 60, 76
16, 155219, Note_on_c, 13, 63, 0
16, 155219, Note_on_c, 13, 60, 0
16, 156120, Note_on_c, 13, 60, 76
16, 156209, Note_on_c, 13, 60, 0
16, 156240, Note_on_c, 13, 58, 76
16, 156419, Note_on_c, 13, 58, 0
16, 156480, Note_on_c, 13, 62, 76
16, 156480, Note_on_c, 13, 58, 76
16, 156659, Note_on_c, 13, 62, 0
16, 156659, Note_on_c, 13, 58, 0
16, 157560, Note_on_c, 13, 62, 76
16, 157649, Note_on_c, 13, 62, 0
16, 157680, Note_on_c, 13, 62, 76
16, 157904, Note_on_c, 13, 62, 0
16, 157920, Note_on_c, 13, 74, 76
16, 158099, Note_on_c, 13, 74, 0
16, 158760, Note_on_c, 13, 56, 76
16, 158849, Note_on_c, 13, 56, 0
16, 158880, Note_on_c, 13, 56, 76
16, 158969, Note_on_c, 13, 56, 0
16, 159000, Note_on_c, 13, 65, 76
16, 159089, Note_on_c, 13, 65, 0
16, 159120, Note_on_c, 13, 63, 76
16, 159209, Note_on_c, 13, 63, 0
16, 159240, Note_on_c, 13, 60, 76
16, 159464, Note_on_c, 13, 60, 0
16, 159480, Note_on_c, 13, 60, 76
16, 159569, Note_on_c, 13, 60, 0
16, 159600, Note_on_c, 13, 57, 76
16, 159689, Note_on_c, 13, 57, 0
16, 159720, Note_on_c, 13, 62, 76
16, 159809, Note_on_c, 13, 62, 0
16, 159840, Note_on_c, 13, 62, 76
16, 159929, Note_on_c, 13, 62, 0
16, 159960, Note_on_c, 13, 58, 76
16, 160184, Note_on_c, 13, 58, 0
16, 160200, Note_on_c, 13, 63, 76
16, 160289, Note_on_c, 13, 63, 0
16, 160320, Note_on_c, 13, 60, 76
16, 160409, Note_on_c, 13, 60, 0
16, 160440, Note_on_c, 13, 65, 76
16, 160529, Note_on_c, 13, 65, 0
16, 160560, Note_on_c, 13, 65, 76
16, 160664, Note_on_c, 13, 65, 0
16, 160680, Note_on_c, 13, 70, 76
16, 160784, Note_on_c, 13, 70, 0
16, 160800, Note_on_c, 13, 68, 76
16, 160904, Note_on_c, 13, 68, 0
16, 160920, Note_on_c, 13, 68, 76
16, 161024, Note_on_c, 13, 68, 0
16, 161040, Note_on_c, 13, 67, 76
16, 161144, Note_on_c, 13, 67, 0
16, 161160, Note_on_c, 13, 67, 76
16, 161264, Note_on_c, 13, 67, 0
16, 161280, Note_on_c, 13, 66, 76
16, 161384, Note_on_c, 13, 66, 0
16, 161400, Note_on_c, 13, 66, 76
16, 161504, Note_on_c, 13, 66, 0
16, 161520, Note_on_c, 13, 65, 76
16, 161624, Note_on_c, 13, 65, 0
16, 161640, Note_on_c, 13, 65, 76
16, 161744, Note_on_c, 13, 65, 0
16, 161760, Note_on_c, 13, 62, 76
16, 161864, Note_on_c, 13, 62, 0
16, 161880, Note_on_c, 13, 62, 76
16, 161984, Note_on_c, 13, 62, 0
16, 162000, Note_on_c, 13, 63, 76
16, 162051, Note_on_c, 13, 63, 0
16, 162060, Note_on_c, 13, 58, 76
16, 162111, Note_on_c, 13, 58, 0
16, 162120, Note_on_c, 13, 58, 76
16, 162171, Note_on_c, 13, 58, 0
16, 162180, Note_on_c, 13, 58, 76
16, 162231, Note_on_c, 13, 58, 0
16, 162240, Note_on_c, 13, 58, 76
16, 162291, Note_on_c, 13, 58, 0
16, 162300, Note_on_c, 13, 58, 76
16, 162351, Note_on_c, 13, 58, 0
16, 162360, Note_on_c, 13, 58, 76
16, 162411, Note_on_c, 13, 58, 0
16, 162420, Note_on_c, 13, 58, 76
16, 162471, Note_on_c, 13, 58, 0
16, 162480, Note_on_c, 13, 59, 76
16, 162531, Note_on_c, 13, 59, 0
16, 162540, Note_on_c, 13, 59, 76
16, 162591, Note_on_c, 13, 59, 0
16, 162600, Note_on_c, 13, 59, 76
16, 162651, Note_on_c, 13, 59, 0
16, 162660, Note_on_c, 13, 59, 76
16, 162711, Note_on_c, 13, 59, 0
16, 162720, Note_on_c, 13, 60, 76
16, 162771, Note_on_c, 13, 60, 0
16, 162780, Note_on_c, 13, 60, 76
16, 162831, Note_on_c, 13, 60, 0
16, 162840, Note_on_c, 13, 59, 76
16, 162891, Note_on_c, 13, 59, 0
16, 162900, Note_on_c, 13, 59, 76
16, 162951, Note_on_c, 13, 59, 0
16, 162960, Note_on_c, 13, 62, 76
16, 163011, Note_on_c, 13, 62, 0
16, 163020, Note_on_c, 13, 62, 76
16, 163071, Note_on_c, 13, 62, 0
16, 163080, Note_on_c, 13, 60, 76
16, 163131, Note_on_c, 13, 60, 0
16, 163140, Note_on_c, 13, 60, 76
16, 163191, Note_on_c, 13, 60, 0
16, 163200, Note_on_c, 13, 65, 76
16, 163251, Note_on_c, 13, 65, 0
16, 163260, Note_on_c, 13, 65, 76
16, 163311, Note_on_c, 13, 65, 0
16, 163320, Note_on_c, 13, 63, 76
16, 163371, Note_on_c, 13, 63, 0
16, 163380, Note_on_c, 13, 63, 76
16, 163431, Note_on_c, 13, 63, 0
16, 163440, Note_on_c, 13, 62, 76
16, 163491, Note_on_c, 13, 62, 0
16, 163500, Note_on_c, 13, 62, 76
16, 163551, Note_on_c, 13, 62, 0
16, 163560, Note_on_c, 13, 65, 76
16, 163611, Note_on_c, 13, 65, 0
16, 163620, Note_on_c, 13, 65, 76
16, 163671, Note_on_c, 13, 65, 0
16, 163680, Note_on_c, 13, 64, 76
16, 163731, Note_on_c, 13, 64, 0
16, 163740, Note_on_c, 13, 64, 76
16, 163791, Note_on_c, 13, 64, 0
16, 163800, Note_on_c, 13, 63, 76
16, 163851, Note_on_c, 13, 63, 0
16, 163860, Note_on_c, 13, 63, 76
16, 163911, Note_on_c, 13, 63, 0
16, 163920, Note_on_c, 13, 62, 76
16, 163971, Note_on_c, 13, 62, 0
16, 163980, Note_on_c, 13, 62, 76
16, 164031, Note_on_c, 13, 62, 0
16, 164040, Note_on_c, 13, 60, 76
16, 164091, Note_on_c, 13, 60, 0
16, 164100, Note_on_c, 13, 60, 76
16, 164151, Note_on_c, 13, 60, 0
16, 164160, Note_on_c, 13, 58, 76
16, 164211, Note_on_c, 13, 58, 0
16, 164220, Note_on_c, 13, 58, 76
16, 164271, Note_on_c, 13, 58, 0
16, 164280, Note_on_c, 13, 60, 76
16, 164331, Note_on_c, 13, 60, 0
16, 164340, Note_on_c, 13, 60, 76
16, 164391, Note_on_c, 13, 60, 0
16, 164400, Note_on_c, 13, 61, 76
16, 164451, Note_on_c, 13, 61, 0
16, 164460, Note_on_c, 13, 61, 76
16, 164511, Note_on_c, 13, 61, 0
16, 164520, Note_on_c, 13, 62, 76
16, 164571, Note_on_c, 13, 62, 0
16, 164580, Note_on_c, 13, 62, 76
16, 164631, Note_on_c, 13, 62, 0
16, 164640, Note_on_c, 13, 60, 76
16, 164691, Note_on_c, 13, 60, 0
16, 164700, Note_on_c, 13, 60, 76
16, 164751, Note_on_c, 13, 60, 0
16, 164760, Note_on_c, 13, 58, 76
16, 164811, Note_on_c, 13, 58, 0
16, 164820, Note_on_c, 13, 58, 76
16, 164871, Note_on_c, 13, 58, 0
16, 164880, Note_on_c, 13, 57, 76
16, 164931, Note_on_c, 13, 57, 0
16, 164940, Note_on_c, 13, 60, 76
16, 164940, Note_on_c, 13, 63, 76
16, 164991, Note_on_c, 13, 60, 0
16, 164991, Note_on_c, 13, 63, 0
16, 165000, Note_on_c, 13, 60, 76
16, 165000, Note_on_c, 13, 63, 76
16, 165051, Note_on_c, 13, 60, 0
16, 165051, Note_on_c, 13, 63, 0
16, 165060, Note_on_c, 13, 63, 76
16, 165060, Note_on_c, 13, 60, 76
16, 165111, Note_on_c, 13, 63, 0
16, 165111, Note_on_c, 13, 60, 0
16, 165120, Note_on_c, 13, 60, 76
16, 165120, Note_on_c, 13, 63, 76
16, 165171, Note_on_c, 13, 60, 0
16, 165171, Note_on_c, 13, 63, 0
16, 165180, Note_on_c, 13, 63, 76
16, 165180, Note_on_c, 13, 60, 76
16, 165231, Note_on_c, 13, 63, 0
16, 165231, Note_on_c, 13, 60, 0
16, 165240, Note_on_c, 13, 60, 76
16, 165240, Note_on_c, 13, 63, 76
16, 165291, Note_on_c, 13, 60, 0
16, 165291, Note_on_c, 13, 63, 0
16, 165300, Note_on_c, 13, 63, 76
16, 165300, Note_on_c, 13, 60, 76
16, 165351, Note_on_c, 13, 63, 0
16, 165351, Note_on_c, 13, 60, 0
16, 165360, Note_on_c, 13, 63, 76
16, 165360, Note_on_c, 13, 60, 76
16, 165411, Note_on_c, 13, 63, 0
16, 165411, Note_on_c, 13, 60, 0
16, 165420, Note_on_c, 13, 60, 76
16, 165420, Note_on_c, 13, 63, 76
16, 165471, Note_on_c, 13, 60, 0
16, 165471, Note_on_c, 13, 63, 0
16, 165480, Note_on_c, 13, 60, 76
16, 165480, Note_on_c, 13, 63, 76
16, 165531, Note_on_c, 13, 60, 0
16, 165531, Note_on_c, 13, 63, 0
16, 165540, Note_on_c, 13, 63, 76
16, 165540, Note_on_c, 13, 60, 76
16, 165591, Note_on_c, 13, 63, 0
16, 165591, Note_on_c, 13, 60, 0
16, 165600, Note_on_c, 13, 60, 76
16, 165600, Note_on_c, 13, 63, 76
16, 165651, Note_on_c, 13, 60, 0
16, 165651, Note_on_c, 13, 63, 0
16, 165660, Note_on_c, 13, 60, 76
16, 165660, Note_on_c, 13, 63, 76
16, 165711, Note_on_c, 13, 60, 0
16, 165711, Note_on_c, 13, 63, 0
16, 165720, Note_on_c, 13, 60, 76
16, 165720, Note_on_c, 13, 63, 76
16, 165771, Note_on_c, 13, 60, 0
16, 165771, Note_on_c, 13, 63, 0
16, 165780, Note_on_c, 13, 60, 76
16, 165780, Note_on_c, 13, 63, 76
16, 165831, Note_on_c, 13, 60, 0
16, 165831, Note_on_c, 13, 63, 0
16, 165840, Note_on_c, 13, 63, 76
16, 165840, Note_on_c, 13, 60, 76
16, 165891, Note_on_c, 13, 63, 0
16, 165891, Note_on_c, 13, 60, 0
16, 165900, Note_on_c, 13, 63, 76
16, 165900, Note_on_c, 13, 60, 76
16, 165951, Note_on_c, 13, 63, 0
16, 165951, Note_on_c, 13, 60, 0
16, 165960, Note_on_c, 13, 60, 76
16, 165960, Note_on_c, 13, 63, 76
16, 166011, Note_on_c, 13, 60, 0
16, 166011, Note_on_c, 13, 63, 0
16, 166020, Note_on_c, 13, 60, 76
16, 166020, Note_on_c, 13, 63, 76
16, 166071, Note_on_c, 13, 60, 0
16, 166071, Note_on_c, 13, 63, 0
16, 166080, Note_on_c, 13, 63, 76
16, 166080, Note_on_c, 13, 60, 76
16, 166131, Note_on_c, 13, 63, 0
16, 166131, Note_on_c, 13, 60, 0
16, 166140, Note_on_c, 13, 60, 76
16, 166140, Note_on_c, 13, 63, 76
16, 166191, Note_on_c, 13, 60, 0
16, 166191, Note_on_c, 13, 63, 0
16, 166200, Note_on_c, 13, 60, 76
16, 166200, Note_on_c, 13, 63, 76
16, 166251, Note_on_c, 13, 60, 0
16, 166251, Note_on_c, 13, 63, 0
16, 166260, Note_on_c, 13, 60, 76
16, 166260, Note_on_c, 13, 63, 76
16, 166311, Note_on_c, 13, 60, 0
16, 166311, Note_on_c, 13, 63, 0
16, 166320, Note_on_c, 13, 57, 84
16, 166371, Note_on_c, 13, 57, 0
16, 166380, Note_on_c, 13, 57, 84
16, 166431, Note_on_c, 13, 57, 0
16, 166440, Note_on_c, 13, 64, 84
16, 166491, Note_on_c, 13, 64, 0
16, 166500, Note_on_c, 13, 64, 84
16, 166551, Note_on_c, 13, 64, 0
16, 166560, Note_on_c, 13, 63, 84
16, 166611, Note_on_c, 13, 63, 0
16, 166620, Note_on_c, 13, 63, 84
16, 166671, Note_on_c, 13, 63, 0
16, 166680, Note_on_c, 13, 62, 84
16, 166731, Note_on_c, 13, 62, 0
16, 166740, Note_on_c, 13, 62, 84
16, 166791, Note_on_c, 13, 62, 0
16, 166800, Note_on_c, 13, 60, 84
16, 166851, Note_on_c, 13, 60, 0
16, 166860, Note_on_c, 13, 60, 84
16, 166911, Note_on_c, 13, 60, 0
16, 166920, Note_on_c, 13, 58, 84
16, 166971, Note_on_c, 13, 58, 0
16, 166980, Note_on_c, 13, 58, 84
16, 167031, Note_on_c, 13, 58, 0
16, 167040, Note_on_c, 13, 57, 84
16, 167091, Note_on_c, 13, 57, 0
16, 167100, Note_on_c, 13, 57, 84
16, 167151, Note_on_c, 13, 57, 0
16, 167160, Note_on_c, 13, 55, 84
16, 167211, Note_on_c, 13, 55, 0
16, 167220, Note_on_c, 13, 55, 84
16, 167271, Note_on_c, 13, 55, 0
16, 167280, Note_on_c, 13, 53, 84
16, 167331, Note_on_c, 13, 53, 0
16, 167340, Note_on_c, 13, 53, 84
16, 167391, Note_on_c, 13, 53, 0
16, 167400, Note_on_c, 13, 51, 84
16, 167451, Note_on_c, 13, 51, 0
16, 167460, Note_on_c, 13, 51, 84
16, 167511, Note_on_c, 13, 51, 0
16, 167520, Note_on_c, 13, 50, 84
16, 167571, Note_on_c, 13, 50, 0
16, 167580, Note_on_c, 13, 50, 84
16, 167631, Note_on_c, 13, 50, 0
16, 167640, Note_on_c, 13, 60, 84
16, 167691, Note_on_c, 13, 60, 0
16, 167700, Note_on_c, 13, 60, 84
16, 167751, Note_on_c, 13, 60, 0
16, 167760, Note_on_c, 13, 58, 84
16, 167999, Note_on_c, 13, 58, 0
16, 170640, Control_c, 13, 11, 96
16, 170880, Note_on_c, 13, 63, 68
16, 171089, Note_on_c, 13, 63, 0
16, 171120, Note_on_c, 13, 63, 68
16, 171329, Note_on_c, 13, 63, 0
16, 171360, Note_on_c, 13, 63, 68
16, 171360, Control_c, 13, 11, 96
16, 171460, Control_c, 13, 11, 99
16, 171560, Control_c, 13, 11, 101
16, 171569, Note_on_c, 13, 63, 0
16, 171600, Note_on_c, 13, 63, 68
16, 171660, Control_c, 13, 11, 104
16, 171760, Control_c, 13, 11, 106
16, 171809, Note_on_c, 13, 63, 0
16, 171840, Note_on_c, 13, 63, 68
16, 171860, Control_c, 13, 11, 109
16, 171960, Control_c, 13, 11, 112
16, 172049, Note_on_c, 13, 63, 0
16, 172060, Control_c, 13, 11, 114
16, 172080, Note_on_c, 13, 63, 68
16, 172160, Control_c, 13, 11, 117
16, 172260, Control_c, 13, 11, 119
16, 172304, Note_on_c, 13, 63, 0
16, 172320, Note_on_c, 13, 63, 76
16, 172360, Control_c, 13, 11, 122
16, 172460, Control_c, 13, 11, 127
16, 172784, Note_on_c, 13, 63, 0
16, 172800, Note_on_c, 13, 63, 76
16, 172800, Control_c, 13, 11, 127
16, 172860, Control_c, 13, 11, 124
16, 172920, Control_c, 13, 11, 122
16, 172980, Control_c, 13, 11, 119
16, 173040, Control_c, 13, 11, 117
16, 173100, Control_c, 13, 11, 114
16, 173160, Control_c, 13, 11, 112
16, 173220, Control_c, 13, 11, 109
16, 173279, Note_on_c, 13, 63, 0
16, 173280, Note_on_c, 13, 63, 68
16, 173280, Control_c, 13, 11, 106
16, 173340, Control_c, 13, 11, 104
16, 173399, Note_on_c, 13, 63, 0
16, 173400, Note_on_c, 13, 60, 68
16, 173400, Control_c, 13, 11, 101
16, 173460, Control_c, 13, 11, 96
16, 173519, Note_on_c, 13, 60, 0
16, 173520, Note_on_c, 13, 62, 68
16, 173759, Note_on_c, 13, 62, 0
16, 177360, Note_on_c, 13, 62, 68
16, 177569, Note_on_c, 13, 62, 0
16, 177600, Note_on_c, 13, 62, 68
16, 177809, Note_on_c, 13, 62, 0
16, 177840, Control_c, 13, 11, 96
16, 177840, Note_on_c, 13, 55, 68
16, 177880, Control_c, 13, 11, 99
16, 177920, Control_c, 13, 11, 101
16, 177960, Control_c, 13, 11, 104
16, 178000, Control_c, 13, 11, 106
16, 178040, Control_c, 13, 11, 109
16, 178080, Control_c, 13, 11, 112
16, 178120, Control_c, 13, 11, 114
16, 178160, Control_c, 13, 11, 117
16, 178200, Control_c, 13, 11, 119
16, 178240, Control_c, 13, 11, 122
16, 178280, Control_c, 13, 11, 124
16, 178320, Control_c, 13, 11, 127
16, 178360, Control_c, 13, 11, 122
16, 178400, Control_c, 13, 11, 117
16, 178440, Control_c, 13, 11, 112
16, 178480, Control_c, 13, 11, 106
16, 178520, Control_c, 13, 11, 101
16, 178559, Note_on_c, 13, 55, 0
16, 179280, Control_c, 13, 11, 127
16, 179520, Note_on_c, 13, 60, 44
16, 179520, Note_on_c, 13, 63, 44
16, 179699, Note_on_c, 13, 60, 0
16, 179699, Note_on_c, 13, 63, 0
16, 179760, Note_on_c, 13, 60, 44
16, 179760, Note_on_c, 13, 63, 44
16, 179939, Note_on_c, 13, 60, 0
16, 179939, Note_on_c, 13, 63, 0
16, 180240, Note_on_c, 13, 65, 44
16, 180240, Note_on_c, 13, 62, 44
16, 180419, Note_on_c, 13, 65, 0
16, 180419, Note_on_c, 13, 62, 0
16, 180480, Note_on_c, 13, 65, 44
16, 180659, Note_on_c, 13, 65, 0
16, 180960, Note_on_c, 13, 65, 44
16, 181139, Note_on_c, 13, 65, 0
16, 181200, Note_on_c, 13, 65, 44
16, 181379, Note_on_c, 13, 65, 0
16, 181440, Note_on_c, 13, 65, 44
16, 181619, Note_on_c, 13, 65, 0
16, 181680, Note_on_c, 13, 65, 44
16, 181859, Note_on_c, 13, 65, 0
16, 181920, Note_on_c, 13, 65, 44
16, 182099, Note_on_c, 13, 65, 0
16, 182640, Note_on_c, 13, 67, 44
16, 182729, Note_on_c, 13, 67, 0
16, 182760, Note_on_c, 13, 65, 44
16, 182849, Note_on_c, 13, 65, 0
16, 182880, Note_on_c, 13, 63, 44
16, 182969, Note_on_c, 13, 63, 0
16, 183000, Note_on_c, 13, 65, 44
16, 183089, Note_on_c, 13, 65, 0
16, 183120, Note_on_c, 13, 67, 44
16, 183209, Note_on_c, 13, 67, 0
16, 183240, Note_on_c, 13, 65, 44
16, 183329, Note_on_c, 13, 65, 0
16, 183360, Note_on_c, 13, 63, 44
16, 183449, Note_on_c, 13, 63, 0
16, 183480, Note_on_c, 13, 62, 44
16, 183569, Note_on_c, 13, 62, 0
16, 183600, Note_on_c, 13, 60, 44
16, 183689, Note_on_c, 13, 60, 0
16, 183720, Note_on_c, 13, 62, 45
16, 183809, Note_on_c, 13, 62, 0
16, 183840, Note_on_c, 13, 63, 46
16, 183929, Note_on_c, 13, 63, 0
16, 183960, Note_on_c, 13, 65, 48
16, 184049, Note_on_c, 13, 65, 0
16, 184080, Note_on_c, 13, 67, 49
16, 184169, Note_on_c, 13, 67, 0
16, 184200, Note_on_c, 13, 65, 50
16, 184289, Note_on_c, 13, 65, 0
16, 184320, Note_on_c, 13, 63, 52
16, 184409, Note_on_c, 13, 63, 0
16, 184440, Note_on_c, 13, 65, 53
16, 184529, Note_on_c, 13, 65, 0
16, 184560, Note_on_c, 13, 67, 54
16, 184649, Note_on_c, 13, 67, 0
16, 184680, Note_on_c, 13, 65, 56
16, 184769, Note_on_c, 13, 65, 0
16, 184800, Note_on_c, 13, 63, 57
16, 184889, Note_on_c, 13, 63, 0
16, 184920, Note_on_c, 13, 62, 58
16, 185009, Note_on_c, 13, 62, 0
16, 185040, Note_on_c, 13, 60, 60
16, 185129, Note_on_c, 13, 60, 0
16, 185160, Note_on_c, 13, 62, 61
16, 185249, Note_on_c, 13, 62, 0
16, 185280, Note_on_c, 13, 63, 62
16, 185369, Note_on_c, 13, 63, 0
16, 185400, Note_on_c, 13, 65, 64
16, 185489, Note_on_c, 13, 65, 0
16, 185520, Note_on_c, 13, 63, 65
16, 185609, Note_on_c, 13, 63, 0
16, 185640, Note_on_c, 13, 62, 66
16, 185729, Note_on_c, 13, 62, 0
16, 185760, Note_on_c, 13, 60, 68
16, 185849, Note_on_c, 13, 60, 0
16, 185880, Note_on_c, 13, 58, 69
16, 185969, Note_on_c, 13, 58, 0
16, 186000, Note_on_c, 13, 57, 70
16, 186089, Note_on_c, 13, 57, 0
16, 186120, Note_on_c, 13, 55, 72
16, 186209, Note_on_c, 13, 55, 0
16, 186240, Note_on_c, 13, 53, 73
16, 186329, Note_on_c, 13, 53, 0
16, 186360, Note_on_c, 13, 51, 74
16, 186449, Note_on_c, 13, 51, 0
16, 186480, Note_on_c, 13, 50, 76
16, 186569, Note_on_c, 13, 50, 0
16, 186600, Note_on_c, 13, 50, 76
16, 186689, Note_on_c, 13, 50, 0
16, 186720, Note_on_c, 13, 53, 76
16, 186809, Note_on_c, 13, 53, 0
16, 186840, Note_on_c, 13, 58, 76
16, 186929, Note_on_c, 13, 58, 0
16, 186960, Note_on_c, 13, 62, 76
16, 187049, Note_on_c, 13, 62, 0
16, 187080, Note_on_c, 13, 50, 76
16, 187169, Note_on_c, 13, 50, 0
16, 187320, Note_on_c, 13, 50, 76
16, 187409, Note_on_c, 13, 50, 0
16, 187440, Note_on_c, 13, 53, 84
16, 187529, Note_on_c, 13, 53, 0
16, 187560, Note_on_c, 13, 58, 76
16, 187649, Note_on_c, 13, 58, 0
16, 187680, Note_on_c, 13, 62, 76
16, 187769, Note_on_c, 13, 62, 0
16, 187800, Note_on_c, 13, 50, 76
16, 187889, Note_on_c, 13, 50, 0
16, 188040, Note_on_c, 13, 51, 76
16, 188129, Note_on_c, 13, 51, 0
16, 188160, Note_on_c, 13, 53, 84
16, 188249, Note_on_c, 13, 53, 0
16, 188280, Note_on_c, 13, 57, 76
16, 188369, Note_on_c, 13, 57, 0
16, 188400, Note_on_c, 13, 60, 76
16, 188489, Note_on_c, 13, 60, 0
16, 188520, Note_on_c, 13, 51, 76
16, 188609, Note_on_c, 13, 51, 0
16, 188760, Note_on_c, 13, 51, 76
16, 188849, Note_on_c, 13, 51, 0
16, 188880, Note_on_c, 13, 57, 84
16, 188969, Note_on_c, 13, 57, 0
16, 189000, Note_on_c, 13, 60, 76
16, 189089, Note_on_c, 13, 60, 0
16, 189120, Note_on_c, 13, 63, 76
16, 189209, Note_on_c, 13, 63, 0
16, 189240, Note_on_c, 13, 51, 76
16, 189329, Note_on_c, 13, 51, 0
16, 189360, Note_on_c, 13, 50, 84
16, 189464, Note_on_c, 13, 50, 0
16, 189480, Note_on_c, 13, 50, 84
16, 189531, Note_on_c, 13, 50, 0
16, 189540, Note_on_c, 13, 50, 84
16, 189591, Note_on_c, 13, 50, 0
16, 189600, Note_on_c, 13, 53, 84
16, 189651, Note_on_c, 13, 53, 0
16, 189660, Note_on_c, 13, 53, 84
16, 189711, Note_on_c, 13, 53, 0
16, 189720, Note_on_c, 13, 58, 84
16, 189771, Note_on_c, 13, 58, 0
16, 189780, Note_on_c, 13, 58, 84
16, 189831, Note_on_c, 13, 58, 0
16, 189840, Note_on_c, 13, 62, 84
16, 189891, Note_on_c, 13, 62, 0
16, 189900, Note_on_c, 13, 62, 84
16, 189951, Note_on_c, 13, 62, 0
16, 189960, Note_on_c, 13, 50, 84
16, 190011, Note_on_c, 13, 50, 0
16, 190020, Note_on_c, 13, 50, 84
16, 190071, Note_on_c, 13, 50, 0
16, 190200, Note_on_c, 13, 50, 84
16, 190251, Note_on_c, 13, 50, 0
16, 190260, Note_on_c, 13, 50, 84
16, 190311, Note_on_c, 13, 50, 0
16, 190320, Note_on_c, 13, 53, 84
16, 190371, Note_on_c, 13, 53, 0
16, 190380, Note_on_c, 13, 53, 84
16, 190431, Note_on_c, 13, 53, 0
16, 190440, Note_on_c, 13, 58, 84
16, 190491, Note_on_c, 13, 58, 0
16, 190500, Note_on_c, 13, 58, 84
16, 190551, Note_on_c, 13, 58, 0
16, 190560, Note_on_c, 13, 62, 84
16, 190611, Note_on_c, 13, 62, 0
16, 190620, Note_on_c, 13, 62, 84
16, 190671, Note_on_c, 13, 62, 0
16, 190680, Note_on_c, 13, 50, 84
16, 190731, Note_on_c, 13, 50, 0
16, 190740, Note_on_c, 13, 50, 84
16, 190791, Note_on_c, 13, 50, 0
16, 190920, Note_on_c, 13, 51, 84
16, 190971, Note_on_c, 13, 51, 0
16, 190980, Note_on_c, 13, 51, 84
16, 191031, Note_on_c, 13, 51, 0
16, 191040, Note_on_c, 13, 53, 84
16, 191091, Note_on_c, 13, 53, 0
16, 191100, Note_on_c, 13, 53, 84
16, 191151, Note_on_c, 13, 53, 0
16, 191160, Note_on_c, 13, 60, 84
16, 191211, Note_on_c, 13, 60, 0
16, 191220, Note_on_c, 13, 60, 84
16, 191271, Note_on_c, 13, 60, 0
16, 191280, Note_on_c, 13, 63, 84
16, 191331, Note_on_c, 13, 63, 0
16, 191340, Note_on_c, 13, 63, 84
16, 191391, Note_on_c, 13, 63, 0
16, 191400, Note_on_c, 13, 51, 84
16, 191451, Note_on_c, 13, 51, 0
16, 191460, Note_on_c, 13, 51, 84
16, 191511, Note_on_c, 13, 51, 0
16, 191640, Note_on_c, 13, 51, 84
16, 191691, Note_on_c, 13, 51, 0
16, 191700, Note_on_c, 13, 51, 84
16, 191751, Note_on_c, 13, 51, 0
16, 191760, Note_on_c, 13, 53, 84
16, 191811, Note_on_c, 13, 53, 0
16, 191820, Note_on_c, 13, 53, 84
16, 191871, Note_on_c, 13, 53, 0
16, 191880, Note_on_c, 13, 57, 84
16, 191931, Note_on_c, 13, 57, 0
16, 191940, Note_on_c, 13, 57, 84
16, 191991, Note_on_c, 13, 57, 0
16, 192000, Note_on_c, 13, 60, 84
16, 192051, Note_on_c, 13, 60, 0
16, 192060, Note_on_c, 13, 60, 84
16, 192111, Note_on_c, 13, 60, 0
16, 192120, Note_on_c, 13, 57, 84
16, 192171, Note_on_c, 13, 57, 0
16, 192180, Note_on_c, 13, 57, 84
16, 192231, Note_on_c, 13, 57, 0
16, 192240, Note_on_c, 13, 58, 84
16, 192240, Note_on_c, 13, 65, 84
16, 192479, Note_on_c, 13, 58, 0
16, 192479, Note_on_c, 13, 65, 0
16, 193320, Note_on_c, 13, 51, 84
16, 193371, Note_on_c, 13, 51, 0
16, 193380, Note_on_c, 13, 51, 84
16, 193431, Note_on_c, 13, 51, 0
16, 193440, Note_on_c, 13, 52, 84
16, 193491, Note_on_c, 13, 52, 0
16, 193500, Note_on_c, 13, 52, 84
16, 193551, Note_on_c, 13, 52, 0
16, 193560, Note_on_c, 13, 53, 84
16, 193611, Note_on_c, 13, 53, 0
16, 193620, Note_on_c, 13, 53, 84
16, 193671, Note_on_c, 13, 53, 0
16, 193680, Note_on_c, 13, 55, 84
16, 193731, Note_on_c, 13, 55, 0
16, 193740, Note_on_c, 13, 55, 84
16, 193791, Note_on_c, 13, 55, 0
16, 193800, Note_on_c, 13, 53, 84
16, 193851, Note_on_c, 13, 53, 0
16, 193860, Note_on_c, 13, 53, 84
16, 193911, Note_on_c, 13, 53, 0
16, 193920, Note_on_c, 13, 51, 92
16, 193971, Note_on_c, 13, 51, 0
16, 193980, Note_on_c, 13, 51, 84
16, 194031, Note_on_c, 13, 51, 0
16, 194040, Note_on_c, 13, 55, 84
16, 194091, Note_on_c, 13, 55, 0
16, 194100, Note_on_c, 13, 55, 84
16, 194151, Note_on_c, 13, 55, 0
16, 194160, Note_on_c, 13, 48, 84
16, 194211, Note_on_c, 13, 48, 0
16, 194220, Note_on_c, 13, 48, 84
16, 194271, Note_on_c, 13, 48, 0
16, 194280, Note_on_c, 13, 55, 84
16, 194331, Note_on_c, 13, 55, 0
16, 194340, Note_on_c, 13, 55, 84
16, 194391, Note_on_c, 13, 55, 0
16, 194400, Note_on_c, 13, 54, 92
16, 194451, Note_on_c, 13, 54, 0
16, 194460, Note_on_c, 13, 54, 84
16, 194511, Note_on_c, 13, 54, 0
16, 194520, Note_on_c, 13, 57, 84
16, 194571, Note_on_c, 13, 57, 0
16, 194580, Note_on_c, 13, 57, 84
16, 194631, Note_on_c, 13, 57, 0
16, 194640, Note_on_c, 13, 50, 84
16, 194691, Note_on_c, 13, 50, 0
16, 194700, Note_on_c, 13, 50, 84
16, 194751, Note_on_c, 13, 50, 0
16, 194760, Note_on_c, 13, 56, 84
16, 194811, Note_on_c, 13, 56, 0
16, 194820, Note_on_c, 13, 56, 84
16, 194871, Note_on_c, 13, 56, 0
16, 194880, Note_on_c, 13, 55, 92
16, 194931, Note_on_c, 13, 55, 0
16, 194940, Note_on_c, 13, 55, 84
16, 194991, Note_on_c, 13, 55, 0
16, 195000, Note_on_c, 13, 58, 84
16, 195051, Note_on_c, 13, 58, 0
16, 195060, Note_on_c, 13, 58, 84
16, 195111, Note_on_c, 13, 58, 0
16, 195120, Note_on_c, 13, 51, 84
16, 195171, Note_on_c, 13, 51, 0
16, 195180, Note_on_c, 13, 51, 84
16, 195231, Note_on_c, 13, 51, 0
16, 195240, Note_on_c, 13, 58, 84
16, 195291, Note_on_c, 13, 58, 0
16, 195300, Note_on_c, 13, 58, 84
16, 195351, Note_on_c, 13, 58, 0
16, 195360, Note_on_c, 13, 57, 92
16, 195411, Note_on_c, 13, 57, 0
16, 195420, Note_on_c, 13, 57, 84
16, 195471, Note_on_c, 13, 57, 0
16, 195480, Note_on_c, 13, 60, 84
16, 195531, Note_on_c, 13, 60, 0
16, 195540, Note_on_c, 13, 60, 84
16, 195591, Note_on_c, 13, 60, 0
16, 195600, Note_on_c, 13, 53, 84
16, 195651, Note_on_c, 13, 53, 0
16, 195660, Note_on_c, 13, 53, 84
16, 195711, Note_on_c, 13, 53, 0
16, 195720, Note_on_c, 13, 60, 84
16, 195771, Note_on_c, 13, 60, 0
16, 195780, Note_on_c, 13, 60, 84
16, 195831, Note_on_c, 13, 60, 0
16, 195840, Note_on_c, 13, 58, 84
16, 195891, Note_on_c, 13, 58, 0
16, 195900, Note_on_c, 13, 58, 84
16, 195951, Note_on_c, 13, 58, 0
16, 195960, Note_on_c, 13, 62, 84
16, 196011, Note_on_c, 13, 62, 0
16, 196020, Note_on_c, 13, 62, 84
16, 196071, Note_on_c, 13, 62, 0
16, 196080, Note_on_c, 13, 55, 84
16, 196131, Note_on_c, 13, 55, 0
16, 196140, Note_on_c, 13, 67, 84
16, 196191, Note_on_c, 13, 67, 0
16, 196200, Note_on_c, 13, 67, 84
16, 196251, Note_on_c, 13, 67, 0
16, 196260, Note_on_c, 13, 67, 84
16, 196311, Note_on_c, 13, 67, 0
16, 196320, Note_on_c, 13, 67, 84
16, 196371, Note_on_c, 13, 67, 0
16, 196380, Note_on_c, 13, 67, 84
16, 196431, Note_on_c, 13, 67, 0
16, 196440, Note_on_c, 13, 67, 84
16, 196491, Note_on_c, 13, 67, 0
16, 196500, Note_on_c, 13, 67, 84
16, 196551, Note_on_c, 13, 67, 0
16, 196560, Note_on_c, 13, 66, 84
16, 196739, Note_on_c, 13, 66, 0
16, 196800, Note_on_c, 13, 66, 84
16, 196979, Note_on_c, 13, 66, 0
16, 197040, Note_on_c, 13, 67, 84
16, 197219, Note_on_c, 13, 67, 0
16, 197520, Note_on_c, 13, 62, 84
16, 197699, Note_on_c, 13, 62, 0
16, 197760, Note_on_c, 13, 63, 84
16, 197939, Note_on_c, 13, 63, 0
16, 198240, Note_on_c, 13, 64, 84
16, 198419, Note_on_c, 13, 64, 0
16, 198480, Note_on_c, 13, 65, 84
16, 198659, Note_on_c, 13, 65, 0
16, 198960, Note_on_c, 13, 66, 84
16, 199139, Note_on_c, 13, 66, 0
16, 199200, Note_on_c, 13, 67, 84
16, 199379, Note_on_c, 13, 67, 0
16, 199680, Note_on_c, 13, 62, 84
16, 199859, Note_on_c, 13, 62, 0
16, 199920, Note_on_c, 13, 63, 84
16, 200099, Note_on_c, 13, 63, 0
16, 200400, Note_on_c, 13, 64, 92
16, 200579, Note_on_c, 13, 64, 0
16, 200880, Note_on_c, 13, 64, 92
16, 201059, Note_on_c, 13, 64, 0
16, 201360, Note_on_c, 13, 64, 92
16, 201539, Note_on_c, 13, 64, 0
16, 201840, Note_on_c, 13, 64, 92
16, 202019, Note_on_c, 13, 64, 0
16, 202320, Note_on_c, 13, 64, 92
16, 202499, Note_on_c, 13, 64, 0
16, 202800, Note_on_c, 13, 64, 92
16, 202979, Note_on_c, 13, 64, 0
16, 203040, Note_on_c, 13, 53, 52
16, 203279, Note_on_c, 13, 53, 0
16, 203280, Note_on_c, 13, 58, 52
16, 203519, Note_on_c, 13, 58, 0
16, 203520, Note_on_c, 13, 62, 52
16, 203729, Note_on_c, 13, 62, 0
16, 203760, Note_on_c, 13, 54, 76
16, 203880, Control_c, 13, 11, 80
16, 204449, Note_on_c, 13, 54, 0
16, 204480, Note_on_c, 13, 53, 76
16, 204719, Note_on_c, 13, 53, 0
16, 204720, Note_on_c, 13, 58, 76
16, 204959, Note_on_c, 13, 58, 0
16, 204960, Note_on_c, 13, 62, 76
16, 205169, Note_on_c, 13, 62, 0
16, 205185, Control_c, 13, 11, 127
16, 205200, Note_on_c, 13, 55, 76
16, 205320, Control_c, 13, 11, 80
16, 206159, Note_on_c, 13, 55, 0
16, 206280, Note_on_c, 13, 58, 76
16, 206369, Note_on_c, 13, 58, 0
16, 206400, Note_on_c, 13, 55, 76
16, 206489, Note_on_c, 13, 55, 0
16, 206520, Note_on_c, 13, 51, 76
16, 206609, Note_on_c, 13, 51, 0
16, 206640, Note_on_c, 13, 60, 76
16, 206879, Note_on_c, 13, 60, 0
16, 207000, Note_on_c, 13, 60, 76
16, 207089, Note_on_c, 13, 60, 0
16, 207120, Note_on_c, 13, 56, 76
16, 207209, Note_on_c, 13, 56, 0
16, 207240, Note_on_c, 13, 51, 76
16, 207329, Note_on_c, 13, 51, 0
16, 207360, Note_on_c, 13, 60, 76
16, 207599, Note_on_c, 13, 60, 0
16, 207720, Note_on_c, 13, 60, 76
16, 207809, Note_on_c, 13, 60, 0
16, 207840, Note_on_c, 13, 57, 76
16, 207929, Note_on_c, 13, 57, 0
16, 207960, Note_on_c, 13, 53, 76
16, 208049, Note_on_c, 13, 53, 0
16, 208065, Control_c, 13, 11, 64
16, 208080, Note_on_c, 13, 62, 84
16, 208319, Note_on_c, 13, 62, 0
16, 208440, Note_on_c, 13, 58, 84
16, 208529, Note_on_c, 13, 58, 0
16, 208560, Note_on_c, 13, 65, 84
16, 208649, Note_on_c, 13, 65, 0
16, 208680, Note_on_c, 13, 62, 84
16, 208769, Note_on_c, 13, 62, 0
16, 208800, Note_on_c, 13, 63, 84
16, 208904, Note_on_c, 13, 63, 0
16, 208920, Note_on_c, 13, 51, 84
16, 209024, Note_on_c, 13, 51, 0
16, 209040, Note_on_c, 13, 63, 84
16, 209040, Control_c, 13, 11, 64
16, 209120, Control_c, 13, 11, 67
16, 209144, Note_on_c, 13, 63, 0
16, 209160, Note_on_c, 13, 63, 84
16, 209200, Control_c, 13, 11, 69
16, 209264, Note_on_c, 13, 63, 0
16, 209280, Control_c, 13, 11, 72
16, 209280, Note_on_c, 13, 63, 84
16, 209360, Control_c, 13, 11, 75
16, 209384, Note_on_c, 13, 63, 0
16, 209400, Note_on_c, 13, 63, 84
16, 209440, Control_c, 13, 11, 77
16, 209504, Note_on_c, 13, 63, 0
16, 209520, Note_on_c, 13, 55, 84
16, 209520, Control_c, 13, 11, 80
16, 209600, Control_c, 13, 11, 82
16, 209624, Note_on_c, 13, 55, 0
16, 209640, Note_on_c, 13, 55, 84
16, 209680, Control_c, 13, 11, 85
16, 209744, Note_on_c, 13, 55, 0
16, 209760, Control_c, 13, 11, 88
16, 209760, Note_on_c, 13, 55, 84
16, 209840, Control_c, 13, 11, 90
16, 209864, Note_on_c, 13, 55, 0
16, 209880, Note_on_c, 13, 55, 84
16, 209920, Control_c, 13, 11, 93
16, 209999, Note_on_c, 13, 55, 0
16, 210000, Control_c, 13, 11, 96
16, 210000, Note_on_c, 13, 59, 84
16, 210080, Control_c, 13, 11, 98
16, 210119, Note_on_c, 13, 59, 0
16, 210120, Note_on_c, 13, 60, 84
16, 210160, Control_c, 13, 11, 101
16, 210224, Note_on_c, 13, 60, 0
16, 210240, Note_on_c, 13, 65, 84
16, 210240, Control_c, 13, 11, 103
16, 210291, Note_on_c, 13, 65, 0
16, 210300, Note_on_c, 13, 65, 84
16, 210320, Control_c, 13, 11, 106
16, 210351, Note_on_c, 13, 65, 0
16, 210360, Note_on_c, 13, 65, 84
16, 210400, Control_c, 13, 11, 109
16, 210411, Note_on_c, 13, 65, 0
16, 210420, Note_on_c, 13, 65, 84
16, 210471, Note_on_c, 13, 65, 0
16, 210480, Control_c, 13, 11, 111
16, 210480, Note_on_c, 13, 65, 84
16, 210531, Note_on_c, 13, 65, 0
16, 210540, Note_on_c, 13, 65, 84
16, 210560, Control_c, 13, 11, 114
16, 210591, Note_on_c, 13, 65, 0
16, 210600, Note_on_c, 13, 65, 84
16, 210640, Control_c, 13, 11, 117
16, 210651, Note_on_c, 13, 65, 0
16, 210660, Note_on_c, 13, 65, 84
16, 210711, Note_on_c, 13, 65, 0
16, 210720, Control_c, 13, 11, 119
16, 210720, Note_on_c, 13, 62, 84
16, 210771, Note_on_c, 13, 62, 0
16, 210780, Note_on_c, 13, 62, 84
16, 210800, Control_c, 13, 11, 122
16, 210831, Note_on_c, 13, 62, 0
16, 210840, Note_on_c, 13, 58, 84
16, 210880, Control_c, 13, 11, 127
16, 210891, Note_on_c, 13, 58, 0
16, 210900, Note_on_c, 13, 58, 84
16, 210951, Note_on_c, 13, 58, 0
16, 210960, Note_on_c, 13, 57, 84
16, 211011, Note_on_c, 13, 57, 0
16, 211020, Note_on_c, 13, 69, 84
16, 211071, Note_on_c, 13, 69, 0
16, 211080, Note_on_c, 13, 69, 84
16, 211131, Note_on_c, 13, 69, 0
16, 211140, Note_on_c, 13, 69, 84
16, 211191, Note_on_c, 13, 69, 0
16, 211200, Note_on_c, 13, 69, 84
16, 211251, Note_on_c, 13, 69, 0
16, 211260, Note_on_c, 13, 69, 84
16, 211311, Note_on_c, 13, 69, 0
16, 211320, Note_on_c, 13, 69, 84
16, 211371, Note_on_c, 13, 69, 0
16, 211380, Note_on_c, 13, 69, 84
16, 211431, Note_on_c, 13, 69, 0
16, 211440, Note_on_c, 13, 69, 84
16, 211491, Note_on_c, 13, 69, 0
16, 211500, Note_on_c, 13, 69, 84
16, 211551, Note_on_c, 13, 69, 0
16, 211560, Note_on_c, 13, 69, 84
16, 211611, Note_on_c, 13, 69, 0
16, 211620, Note_on_c, 13, 69, 84
16, 211671, Note_on_c, 13, 69, 0
16, 211680, Note_on_c, 13, 70, 76
16, 211859, Note_on_c, 13, 70, 0
16, 211920, Note_on_c, 13, 53, 84
16, 212099, Note_on_c, 13, 53, 0
16, 212160, Note_on_c, 13, 50, 76
16, 212339, Note_on_c, 13, 50, 0
16, 212640, Note_on_c, 13, 55, 84
16, 212819, Note_on_c, 13, 55, 0
16, 212880, Note_on_c, 13, 51, 76
16, 213059, Note_on_c, 13, 51, 0
16, 213360, Note_on_c, 13, 53, 84
16, 213539, Note_on_c, 13, 53, 0
16, 213600, Note_on_c, 13, 50, 76
16, 213779, Note_on_c, 13, 50, 0
16, 213840, Note_on_c, 13, 60, 76
16, 213840, Note_on_c, 13, 63, 76
16, 214019, Note_on_c, 13, 60, 0
16, 214019, Note_on_c, 13, 63, 0
16, 214080, Note_on_c, 13, 63, 76
16, 214080, Note_on_c, 13, 60, 76
16, 214259, Note_on_c, 13, 63, 0
16, 214259, Note_on_c, 13, 60, 0
16, 214320, Note_on_c, 13, 63, 76
16, 214320, Note_on_c, 13, 60, 76
16, 214499, Note_on_c, 13, 63, 0
16, 214499, Note_on_c, 13, 60, 0
16, 214560, Note_on_c, 13, 58, 76
16, 214560, Note_on_c, 13, 62, 76
16, 214680, Control_c, 13, 11, 80
16, 214799, Note_on_c, 13, 58, 0
16, 214799, Note_on_c, 13, 62, 0
16, 215520, Control_c, 13, 11, 127
16, 215760, Note_on_c, 13, 50, 52
16, 215879, Note_on_c, 13, 50, 0
16, 215880, Note_on_c, 13, 53, 52
16, 215984, Note_on_c, 13, 53, 0
16, 216000, Control_c, 13, 11, 127
16, 216000, Note_on_c, 13, 56, 52
16, 216120, Control_c, 13, 11, 126
16, 216240, Control_c, 13, 11, 125
16, 216360, Control_c, 13, 11, 123
16, 216479, Note_on_c, 13, 56, 0
16, 216480, Control_c, 13, 11, 122
16, 216480, Note_on_c, 13, 59, 52
16, 216600, Control_c, 13, 11, 121
16, 216719, Note_on_c, 13, 59, 0
16, 216720, Control_c, 13, 11, 120
16, 216720, Note_on_c, 13, 56, 52
16, 216840, Control_c, 13, 11, 118
16, 216960, Control_c, 13, 11, 117
16, 217080, Control_c, 13, 11, 116
16, 217199, Note_on_c, 13, 56, 0
16, 217200, Note_on_c, 13, 53, 52
16, 217200, Control_c, 13, 11, 115
16, 217320, Control_c, 13, 11, 113
16, 217409, Note_on_c, 13, 53, 0
16, 217425, Control_c, 13, 11, 127
16, 217440, Note_on_c, 13, 50, 44
16, 217919, Note_on_c, 13, 50, 0
16, 217920, Note_on_c, 13, 59, 44
16, 218159, Note_on_c, 13, 59, 0
16, 218160, Note_on_c, 13, 57, 44
16, 218639, Note_on_c, 13, 57, 0
16, 218640, Note_on_c, 13, 58, 44
16, 218864, Note_on_c, 13, 58, 0
16, 218880, Note_on_c, 13, 56, 44
16, 220304, Note_on_c, 13, 56, 0
16, 220320, Note_on_c, 13, 55, 44
16, 221744, Note_on_c, 13, 55, 0
16, 221760, Note_on_c, 13, 56, 44
16, 223184, Note_on_c, 13, 56, 0
16, 223200, Note_on_c, 13, 55, 44
16, 223439, Note_on_c, 13, 55, 0
16, 223665, Control_c, 13, 11, 96
16, 223680, Note_on_c, 13, 71, 68
16, 224384, Note_on_c, 13, 71, 0
16, 224400, Note_on_c, 13, 65, 68
16, 225104, Note_on_c, 13, 65, 0
16, 225120, Note_on_c, 13, 62, 68
16, 225824, Note_on_c, 13, 62, 0
16, 225840, Note_on_c, 13, 59, 68
16, 226080, Control_c, 13, 11, 96
16, 226140, Control_c, 13, 11, 99
16, 226200, Control_c, 13, 11, 101
16, 226260, Control_c, 13, 11, 104
16, 226319, Note_on_c, 13, 59, 0
16, 226320, Note_on_c, 13, 55, 68
16, 226320, Control_c, 13, 11, 106
16, 226380, Control_c, 13, 11, 109
16, 226440, Control_c, 13, 11, 112
16, 226500, Control_c, 13, 11, 114
16, 226559, Note_on_c, 13, 55, 0
16, 226560, Note_on_c, 13, 56, 68
16, 226560, Control_c, 13, 11, 117
16, 226620, Control_c, 13, 11, 119
16, 226680, Control_c, 13, 11, 122
16, 226740, Control_c, 13, 11, 124
16, 226784, Note_on_c, 13, 56, 0
16, 226800, Note_on_c, 13, 57, 76
16, 227504, Note_on_c, 13, 57, 0
16, 227520, Control_c, 13, 11, 127
16, 227520, Note_on_c, 13, 59, 60
16, 227580, Control_c, 13, 11, 124
16, 227639, Note_on_c, 13, 59, 0
16, 227640, Note_on_c, 13, 55, 60
16, 227640, Control_c, 13, 11, 122
16, 227700, Control_c, 13, 11, 119
16, 227759, Note_on_c, 13, 55, 0
16, 227760, Note_on_c, 13, 59, 60
16, 227760, Control_c, 13, 11, 117
16, 227820, Control_c, 13, 11, 114
16, 227879, Note_on_c, 13, 59, 0
16, 227880, Note_on_c, 13, 55, 60
16, 227880, Control_c, 13, 11, 112
16, 227940, Control_c, 13, 11, 109
16, 227999, Note_on_c, 13, 55, 0
16, 228000, Control_c, 13, 11, 106
16, 228000, Note_on_c, 13, 59, 60
16, 228060, Control_c, 13, 11, 104
16, 228119, Note_on_c, 13, 59, 0
16, 228120, Note_on_c, 13, 55, 60
16, 228120, Control_c, 13, 11, 101
16, 228180, Control_c, 13, 11, 96
16, 228209, Note_on_c, 13, 55, 0
16, 228225, Control_c, 13, 11, 112
16, 228240, Note_on_c, 13, 59, 60
16, 228359, Note_on_c, 13, 59, 0
16, 228360, Note_on_c, 13, 55, 60
16, 228479, Note_on_c, 13, 55, 0
16, 228480, Note_on_c, 13, 59, 60
16, 228599, Note_on_c, 13, 59, 0
16, 228600, Note_on_c, 13, 55, 60
16, 228719, Note_on_c, 13, 55, 0
16, 228720, Note_on_c, 13, 59, 60
16, 228839, Note_on_c, 13, 59, 0
16, 228840, Note_on_c, 13, 55, 60
16, 228929, Note_on_c, 13, 55, 0
16, 228945, Control_c, 13, 11, 127
16, 228960, Note_on_c, 13, 62, 52
16, 229079, Note_on_c, 13, 62, 0
16, 229080, Note_on_c, 13, 55, 52
16, 229199, Note_on_c, 13, 55, 0
16, 229200, Note_on_c, 13, 62, 52
16, 229319, Note_on_c, 13, 62, 0
16, 229320, Note_on_c, 13, 55, 52
16, 229439, Note_on_c, 13, 55, 0
16, 229440, Note_on_c, 13, 62, 52
16, 229559, Note_on_c, 13, 62, 0
16, 229560, Note_on_c, 13, 55, 52
16, 229664, Note_on_c, 13, 55, 0
16, 229680, Note_on_c, 13, 62, 52
16, 229799, Note_on_c, 13, 62, 0
16, 229800, Note_on_c, 13, 55, 52
16, 229919, Note_on_c, 13, 55, 0
16, 229920, Note_on_c, 13, 59, 52
16, 230039, Note_on_c, 13, 59, 0
16, 230040, Note_on_c, 13, 55, 52
16, 230159, Note_on_c, 13, 55, 0
16, 230160, Note_on_c, 13, 59, 52
16, 230279, Note_on_c, 13, 59, 0
16, 230280, Note_on_c, 13, 55, 52
16, 230384, Note_on_c, 13, 55, 0
16, 230400, Note_on_c, 13, 60, 52
16, 230519, Note_on_c, 13, 60, 0
16, 230520, Note_on_c, 13, 55, 52
16, 230639, Note_on_c, 13, 55, 0
16, 230640, Note_on_c, 13, 60, 52
16, 230759, Note_on_c, 13, 60, 0
16, 230760, Note_on_c, 13, 55, 52
16, 230879, Note_on_c, 13, 55, 0
16, 230880, Note_on_c, 13, 60, 52
16, 230999, Note_on_c, 13, 60, 0
16, 231000, Note_on_c, 13, 55, 52
16, 231104, Note_on_c, 13, 55, 0
16, 231120, Note_on_c, 13, 60, 52
16, 231239, Note_on_c, 13, 60, 0
16, 231240, Note_on_c, 13, 55, 52
16, 231359, Note_on_c, 13, 55, 0
16, 231360, Note_on_c, 13, 60, 52
16, 231479, Note_on_c, 13, 60, 0
16, 231480, Note_on_c, 13, 55, 52
16, 231599, Note_on_c, 13, 55, 0
16, 231600, Note_on_c, 13, 60, 52
16, 231719, Note_on_c, 13, 60, 0
16, 231720, Note_on_c, 13, 55, 52
16, 231824, Note_on_c, 13, 55, 0
16, 231840, Note_on_c, 13, 60, 52
16, 231959, Note_on_c, 13, 60, 0
16, 231960, Note_on_c, 13, 55, 52
16, 232079, Note_on_c, 13, 55, 0
16, 232080, Note_on_c, 13, 60, 52
16, 232199, Note_on_c, 13, 60, 0
16, 232200, Note_on_c, 13, 55, 52
16, 232319, Note_on_c, 13, 55, 0
16, 232320, Note_on_c, 13, 60, 52
16, 232439, Note_on_c, 13, 60, 0
16, 232440, Note_on_c, 13, 55, 52
16, 232544, Note_on_c, 13, 55, 0
16, 232560, Note_on_c, 13, 60, 52
16, 232679, Note_on_c, 13, 60, 0
16, 232680, Note_on_c, 13, 55, 52
16, 232799, Note_on_c, 13, 55, 0
16, 232800, Note_on_c, 13, 60, 52
16, 232919, Note_on_c, 13, 60, 0
16, 232920, Note_on_c, 13, 55, 52
16, 233039, Note_on_c, 13, 55, 0
16, 233040, Note_on_c, 13, 60, 52
16, 233159, Note_on_c, 13, 60, 0
16, 233160, Note_on_c, 13, 55, 52
16, 233264, Note_on_c, 13, 55, 0
16, 233280, Note_on_c, 13, 59, 52
16, 233399, Note_on_c, 13, 59, 0
16, 233400, Note_on_c, 13, 55, 52
16, 233519, Note_on_c, 13, 55, 0
16, 233520, Note_on_c, 13, 59, 52
16, 233639, Note_on_c, 13, 59, 0
16, 233640, Note_on_c, 13, 55, 52
16, 233759, Note_on_c, 13, 55, 0
16, 233760, Note_on_c, 13, 59, 52
16, 233879, Note_on_c, 13, 59, 0
16, 233880, Note_on_c, 13, 55, 52
16, 233984, Note_on_c, 13, 55, 0
16, 234000, Note_on_c, 13, 59, 52
16, 234119, Note_on_c, 13, 59, 0
16, 234120, Note_on_c, 13, 55, 52
16, 234239, Note_on_c, 13, 55, 0
16, 234240, Note_on_c, 13, 62, 52
16, 234359, Note_on_c, 13, 62, 0
16, 234360, Note_on_c, 13, 55, 52
16, 234479, Note_on_c, 13, 55, 0
16, 234480, Note_on_c, 13, 62, 52
16, 234599, Note_on_c, 13, 62, 0
16, 234600, Note_on_c, 13, 55, 52
16, 234704, Note_on_c, 13, 55, 0
16, 234720, Note_on_c, 13, 62, 52
16, 234839, Note_on_c, 13, 62, 0
16, 234840, Note_on_c, 13, 55, 52
16, 234959, Note_on_c, 13, 55, 0
16, 234960, Note_on_c, 13, 59, 52
16, 235079, Note_on_c, 13, 59, 0
16, 235080, Note_on_c, 13, 55, 52
16, 235199, Note_on_c, 13, 55, 0
16, 235200, Note_on_c, 13, 59, 52
16, 235319, Note_on_c, 13, 59, 0
16, 235320, Note_on_c, 13, 55, 52
16, 235424, Note_on_c, 13, 55, 0
16, 235440, Note_on_c, 13, 59, 52
16, 235559, Note_on_c, 13, 59, 0
16, 235560, Note_on_c, 13, 55, 52
16, 235679, Note_on_c, 13, 55, 0
16, 235680, Note_on_c, 13, 62, 52
16, 235799, Note_on_c, 13, 62, 0
16, 235800, Note_on_c, 13, 55, 52
16, 235919, Note_on_c, 13, 55, 0
16, 235920, Note_on_c, 13, 62, 52
16, 236039, Note_on_c, 13, 62, 0
16, 236040, Note_on_c, 13, 55, 52
16, 236144, Note_on_c, 13, 55, 0
16, 236160, Note_on_c, 13, 60, 44
16, 236211, Note_on_c, 13, 60, 0
16, 236220, Note_on_c, 13, 63, 44
16, 236220, Note_on_c, 13, 60, 44
16, 236271, Note_on_c, 13, 63, 0
16, 236271, Note_on_c, 13, 60, 0
16, 236280, Note_on_c, 13, 60, 44
16, 236280, Note_on_c, 13, 63, 44
16, 236331, Note_on_c, 13, 60, 0
16, 236331, Note_on_c, 13, 63, 0
16, 236340, Note_on_c, 13, 63, 44
16, 236340, Note_on_c, 13, 60, 44
16, 236391, Note_on_c, 13, 63, 0
16, 236391, Note_on_c, 13, 60, 0
16, 236400, Note_on_c, 13, 63, 44
16, 236400, Note_on_c, 13, 60, 44
16, 236451, Note_on_c, 13, 63, 0
16, 236451, Note_on_c, 13, 60, 0
16, 236460, Note_on_c, 13, 60, 44
16, 236460, Note_on_c, 13, 63, 44
16, 236511, Note_on_c, 13, 60, 0
16, 236511, Note_on_c, 13, 63, 0
16, 236520, Note_on_c, 13, 60, 44
16, 236520, Note_on_c, 13, 63, 44
16, 236571, Note_on_c, 13, 60, 0
16, 236571, Note_on_c, 13, 63, 0
16, 236580, Note_on_c, 13, 63, 44
16, 236580, Note_on_c, 13, 60, 44
16, 236631, Note_on_c, 13, 63, 0
16, 236631, Note_on_c, 13, 60, 0
16, 236640, Note_on_c, 13, 63, 44
16, 236640, Note_on_c, 13, 60, 44
16, 236691, Note_on_c, 13, 63, 0
16, 236691, Note_on_c, 13, 60, 0
16, 236700, Note_on_c, 13, 60, 44
16, 236700, Note_on_c, 13, 63, 44
16, 236751, Note_on_c, 13, 60, 0
16, 236751, Note_on_c, 13, 63, 0
16, 236760, Note_on_c, 13, 63, 44
16, 236760, Note_on_c, 13, 60, 44
16, 236811, Note_on_c, 13, 63, 0
16, 236811, Note_on_c, 13, 60, 0
16, 236820, Note_on_c, 13, 63, 44
16, 236820, Note_on_c, 13, 60, 44
16, 236871, Note_on_c, 13, 63, 0
16, 236871, Note_on_c, 13, 60, 0
16, 236880, Note_on_c, 13, 63, 44
16, 236880, Note_on_c, 13, 60, 44
16, 236931, Note_on_c, 13, 63, 0
16, 236931, Note_on_c, 13, 60, 0
16, 236940, Note_on_c, 13, 60, 44
16, 236940, Note_on_c, 13, 63, 44
16, 236991, Note_on_c, 13, 60, 0
16, 236991, Note_on_c, 13, 63, 0
16, 237000, Note_on_c, 13, 60, 44
16, 237000, Note_on_c, 13, 63, 44
16, 237051, Note_on_c, 13, 60, 0
16, 237051, Note_on_c, 13, 63, 0
16, 237060, Note_on_c, 13, 63, 44
16, 237060, Note_on_c, 13, 60, 44
16, 237111, Note_on_c, 13, 63, 0
16, 237111, Note_on_c, 13, 60, 0
16, 237120, Note_on_c, 13, 63, 44
16, 237120, Note_on_c, 13, 60, 44
16, 237171, Note_on_c, 13, 63, 0
16, 237171, Note_on_c, 13, 60, 0
16, 237180, Note_on_c, 13, 60, 44
16, 237180, Note_on_c, 13, 63, 44
16, 237231, Note_on_c, 13, 60, 0
16, 237231, Note_on_c, 13, 63, 0
16, 237240, Note_on_c, 13, 60, 44
16, 237240, Note_on_c, 13, 63, 44
16, 237291, Note_on_c, 13, 60, 0
16, 237291, Note_on_c, 13, 63, 0
16, 237300, Note_on_c, 13, 60, 44
16, 237300, Note_on_c, 13, 63, 44
16, 237351, Note_on_c, 13, 60, 0
16, 237351, Note_on_c, 13, 63, 0
16, 237360, Note_on_c, 13, 63, 44
16, 237360, Note_on_c, 13, 60, 44
16, 237411, Note_on_c, 13, 63, 0
16, 237411, Note_on_c, 13, 60, 0
16, 237420, Note_on_c, 13, 63, 44
16, 237420, Note_on_c, 13, 60, 44
16, 237471, Note_on_c, 13, 63, 0
16, 237471, Note_on_c, 13, 60, 0
16, 237480, Note_on_c, 13, 60, 44
16, 237480, Note_on_c, 13, 63, 44
16, 237531, Note_on_c, 13, 60, 0
16, 237531, Note_on_c, 13, 63, 0
16, 237540, Note_on_c, 13, 60, 44
16, 237540, Note_on_c, 13, 63, 44
16, 237591, Note_on_c, 13, 60, 0
16, 237591, Note_on_c, 13, 63, 0
16, 237600, Note_on_c, 13, 60, 44
16, 237600, Note_on_c, 13, 63, 44
16, 237651, Note_on_c, 13, 60, 0
16, 237651, Note_on_c, 13, 63, 0
16, 237660, Note_on_c, 13, 60, 44
16, 237660, Note_on_c, 13, 63, 44
16, 237711, Note_on_c, 13, 60, 0
16, 237711, Note_on_c, 13, 63, 0
16, 237720, Note_on_c, 13, 63, 44
16, 237720, Note_on_c, 13, 60, 44
16, 237771, Note_on_c, 13, 63, 0
16, 237771, Note_on_c, 13, 60, 0
16, 237780, Note_on_c, 13, 60, 44
16, 237780, Note_on_c, 13, 63, 44
16, 237831, Note_on_c, 13, 60, 0
16, 237831, Note_on_c, 13, 63, 0
16, 237840, Note_on_c, 13, 60, 44
16, 237840, Note_on_c, 13, 63, 44
16, 237891, Note_on_c, 13, 60, 0
16, 237891, Note_on_c, 13, 63, 0
16, 237900, Note_on_c, 13, 63, 44
16, 237900, Note_on_c, 13, 60, 44
16, 237951, Note_on_c, 13, 63, 0
16, 237951, Note_on_c, 13, 60, 0
16, 237960, Note_on_c, 13, 60, 44
16, 237960, Note_on_c, 13, 63, 44
16, 238011, Note_on_c, 13, 60, 0
16, 238011, Note_on_c, 13, 63, 0
16, 238020, Note_on_c, 13, 60, 44
16, 238020, Note_on_c, 13, 63, 44
16, 238071, Note_on_c, 13, 60, 0
16, 238071, Note_on_c, 13, 63, 0
16, 238080, Note_on_c, 13, 60, 44
16, 238080, Note_on_c, 13, 63, 44
16, 238131, Note_on_c, 13, 60, 0
16, 238131, Note_on_c, 13, 63, 0
16, 238140, Note_on_c, 13, 60, 44
16, 238140, Note_on_c, 13, 63, 44
16, 238191, Note_on_c, 13, 60, 0
16, 238191, Note_on_c, 13, 63, 0
16, 238200, Note_on_c, 13, 60, 44
16, 238200, Note_on_c, 13, 63, 44
16, 238251, Note_on_c, 13, 60, 0
16, 238251, Note_on_c, 13, 63, 0
16, 238260, Note_on_c, 13, 60, 44
16, 238260, Note_on_c, 13, 63, 44
16, 238311, Note_on_c, 13, 60, 0
16, 238311, Note_on_c, 13, 63, 0
16, 238320, Note_on_c, 13, 60, 44
16, 238320, Note_on_c, 13, 63, 44
16, 238371, Note_on_c, 13, 60, 0
16, 238371, Note_on_c, 13, 63, 0
16, 238380, Note_on_c, 13, 63, 45
16, 238380, Note_on_c, 13, 60, 45
16, 238431, Note_on_c, 13, 63, 0
16, 238431, Note_on_c, 13, 60, 0
16, 238440, Note_on_c, 13, 60, 46
16, 238440, Note_on_c, 13, 63, 46
16, 238491, Note_on_c, 13, 60, 0
16, 238491, Note_on_c, 13, 63, 0
16, 238500, Note_on_c, 13, 60, 48
16, 238500, Note_on_c, 13, 63, 48
16, 238551, Note_on_c, 13, 60, 0
16, 238551, Note_on_c, 13, 63, 0
16, 238560, Note_on_c, 13, 60, 49
16, 238560, Note_on_c, 13, 63, 49
16, 238611, Note_on_c, 13, 60, 0
16, 238611, Note_on_c, 13, 63, 0
16, 238620, Note_on_c, 13, 63, 50
16, 238620, Note_on_c, 13, 60, 50
16, 238671, Note_on_c, 13, 63, 0
16, 238671, Note_on_c, 13, 60, 0
16, 238680, Note_on_c, 13, 60, 52
16, 238680, Note_on_c, 13, 63, 52
16, 238731, Note_on_c, 13, 60, 0
16, 238731, Note_on_c, 13, 63, 0
16, 238740, Note_on_c, 13, 60, 53
16, 238740, Note_on_c, 13, 63, 53
16, 238791, Note_on_c, 13, 60, 0
16, 238791, Note_on_c, 13, 63, 0
16, 238800, Note_on_c, 13, 60, 54
16, 238800, Note_on_c, 13, 63, 54
16, 238851, Note_on_c, 13, 60, 0
16, 238851, Note_on_c, 13, 63, 0
16, 238860, Note_on_c, 13, 63, 56
16, 238860, Note_on_c, 13, 60, 56
16, 238911, Note_on_c, 13, 63, 0
16, 238911, Note_on_c, 13, 60, 0
16, 238920, Note_on_c, 13, 63, 57
16, 238920, Note_on_c, 13, 60, 57
16, 238971, Note_on_c, 13, 63, 0
16, 238971, Note_on_c, 13, 60, 0
16, 238980, Note_on_c, 13, 60, 58
16, 238980, Note_on_c, 13, 63, 58
16, 239031, Note_on_c, 13, 60, 0
16, 239031, Note_on_c, 13, 63, 0
16, 239040, Note_on_c, 13, 61, 52
16, 239040, Note_on_c, 13, 64, 52
16, 239091, Note_on_c, 13, 61, 0
16, 239091, Note_on_c, 13, 64, 0
16, 239100, Note_on_c, 13, 61, 52
16, 239100, Note_on_c, 13, 64, 52
16, 239151, Note_on_c, 13, 61, 0
16, 239151, Note_on_c, 13, 64, 0
16, 239160, Note_on_c, 13, 64, 52
16, 239160, Note_on_c, 13, 61, 52
16, 239211, Note_on_c, 13, 64, 0
16, 239211, Note_on_c, 13, 61, 0
16, 239220, Note_on_c, 13, 64, 52
16, 239220, Note_on_c, 13, 61, 52
16, 239271, Note_on_c, 13, 64, 0
16, 239271, Note_on_c, 13, 61, 0
16, 239280, Note_on_c, 13, 61, 52
16, 239280, Note_on_c, 13, 64, 52
16, 239331, Note_on_c, 13, 61, 0
16, 239331, Note_on_c, 13, 64, 0
16, 239340, Note_on_c, 13, 61, 52
16, 239340, Note_on_c, 13, 64, 52
16, 239391, Note_on_c, 13, 61, 0
16, 239391, Note_on_c, 13, 64, 0
16, 239400, Note_on_c, 13, 61, 52
16, 239400, Note_on_c, 13, 64, 52
16, 239451, Note_on_c, 13, 61, 0
16, 239451, Note_on_c, 13, 64, 0
16, 239460, Note_on_c, 13, 61, 52
16, 239460, Note_on_c, 13, 64, 52
16, 239511, Note_on_c, 13, 61, 0
16, 239511, Note_on_c, 13, 64, 0
16, 239520, Note_on_c, 13, 64, 52
16, 239520, Note_on_c, 13, 61, 52
16, 239571, Note_on_c, 13, 64, 0
16, 239571, Note_on_c, 13, 61, 0
16, 239580, Note_on_c, 13, 61, 52
16, 239580, Note_on_c, 13, 64, 52
16, 239631, Note_on_c, 13, 61, 0
16, 239631, Note_on_c, 13, 64, 0
16, 239640, Note_on_c, 13, 61, 52
16, 239640, Note_on_c, 13, 64, 52
16, 239691, Note_on_c, 13, 61, 0
16, 239691, Note_on_c, 13, 64, 0
16, 239700, Note_on_c, 13, 64, 52
16, 239700, Note_on_c, 13, 61, 52
16, 239751, Note_on_c, 13, 64, 0
16, 239751, Note_on_c, 13, 61, 0
16, 239760, Note_on_c, 13, 61, 52
16, 239760, Note_on_c, 13, 64, 52
16, 239811, Note_on_c, 13, 61, 0
16, 239811, Note_on_c, 13, 64, 0
16, 239820, Note_on_c, 13, 61, 52
16, 239820, Note_on_c, 13, 64, 52
16, 239871, Note_on_c, 13, 61, 0
16, 239871, Note_on_c, 13, 64, 0
16, 239880, Note_on_c, 13, 64, 52
16, 239880, Note_on_c, 13, 61, 52
16, 239931, Note_on_c, 13, 64, 0
16, 239931, Note_on_c, 13, 61, 0
16, 239940, Note_on_c, 13, 64, 52
16, 239940, Note_on_c, 13, 61, 52
16, 239991, Note_on_c, 13, 64, 0
16, 239991, Note_on_c, 13, 61, 0
16, 240000, Note_on_c, 13, 64, 52
16, 240000, Note_on_c, 13, 61, 52
16, 240051, Note_on_c, 13, 64, 0
16, 240051, Note_on_c, 13, 61, 0
16, 240060, Note_on_c, 13, 64, 52
16, 240060, Note_on_c, 13, 61, 52
16, 240111, Note_on_c, 13, 64, 0
16, 240111, Note_on_c, 13, 61, 0
16, 240120, Note_on_c, 13, 64, 52
16, 240120, Note_on_c, 13, 61, 52
16, 240171, Note_on_c, 13, 64, 0
16, 240171, Note_on_c, 13, 61, 0
16, 240180, Note_on_c, 13, 64, 52
16, 240180, Note_on_c, 13, 61, 52
16, 240231, Note_on_c, 13, 64, 0
16, 240231, Note_on_c, 13, 61, 0
16, 240240, Note_on_c, 13, 64, 52
16, 240240, Note_on_c, 13, 61, 52
16, 240291, Note_on_c, 13, 64, 0
16, 240291, Note_on_c, 13, 61, 0
16, 240300, Note_on_c, 13, 61, 52
16, 240300, Note_on_c, 13, 64, 52
16, 240351, Note_on_c, 13, 61, 0
16, 240351, Note_on_c, 13, 64, 0
16, 240360, Note_on_c, 13, 64, 52
16, 240360, Note_on_c, 13, 61, 52
16, 240411, Note_on_c, 13, 64, 0
16, 240411, Note_on_c, 13, 61, 0
16, 240420, Note_on_c, 13, 61, 52
16, 240420, Note_on_c, 13, 64, 52
16, 240471, Note_on_c, 13, 61, 0
16, 240471, Note_on_c, 13, 64, 0
16, 240480, Note_on_c, 13, 64, 52
16, 240480, Note_on_c, 13, 61, 52
16, 240531, Note_on_c, 13, 64, 0
16, 240531, Note_on_c, 13, 61, 0
16, 240540, Note_on_c, 13, 61, 52
16, 240540, Note_on_c, 13, 64, 52
16, 240591, Note_on_c, 13, 61, 0
16, 240591, Note_on_c, 13, 64, 0
16, 240600, Note_on_c, 13, 61, 52
16, 240600, Note_on_c, 13, 64, 52
16, 240651, Note_on_c, 13, 61, 0
16, 240651, Note_on_c, 13, 64, 0
16, 240660, Note_on_c, 13, 64, 52
16, 240660, Note_on_c, 13, 61, 52
16, 240711, Note_on_c, 13, 64, 0
16, 240711, Note_on_c, 13, 61, 0
16, 240720, Note_on_c, 13, 61, 52
16, 240720, Note_on_c, 13, 64, 52
16, 240771, Note_on_c, 13, 61, 0
16, 240771, Note_on_c, 13, 64, 0
16, 240780, Note_on_c, 13, 61, 52
16, 240780, Note_on_c, 13, 64, 52
16, 240831, Note_on_c, 13, 61, 0
16, 240831, Note_on_c, 13, 64, 0
16, 240840, Note_on_c, 13, 61, 52
16, 240840, Note_on_c, 13, 64, 52
16, 240891, Note_on_c, 13, 61, 0
16, 240891, Note_on_c, 13, 64, 0
16, 240900, Note_on_c, 13, 64, 52
16, 240900, Note_on_c, 13, 61, 52
16, 240951, Note_on_c, 13, 64, 0
16, 240951, Note_on_c, 13, 61, 0
16, 240960, Note_on_c, 13, 64, 52
16, 240960, Note_on_c, 13, 61, 52
16, 241011, Note_on_c, 13, 64, 0
16, 241011, Note_on_c, 13, 61, 0
16, 241020, Note_on_c, 13, 61, 52
16, 241020, Note_on_c, 13, 64, 52
16, 241071, Note_on_c, 13, 61, 0
16, 241071, Note_on_c, 13, 64, 0
16, 241080, Note_on_c, 13, 61, 52
16, 241080, Note_on_c, 13, 64, 52
16, 241131, Note_on_c, 13, 61, 0
16, 241131, Note_on_c, 13, 64, 0
16, 241140, Note_on_c, 13, 64, 52
16, 241140, Note_on_c, 13, 61, 52
16, 241191, Note_on_c, 13, 64, 0
16, 241191, Note_on_c, 13, 61, 0
16, 241200, Note_on_c, 13, 64, 52
16, 241200, Note_on_c, 13, 61, 52
16, 241251, Note_on_c, 13, 64, 0
16, 241251, Note_on_c, 13, 61, 0
16, 241260, Note_on_c, 13, 61, 54
16, 241260, Note_on_c, 13, 64, 54
16, 241311, Note_on_c, 13, 61, 0
16, 241311, Note_on_c, 13, 64, 0
16, 241320, Note_on_c, 13, 61, 57
16, 241320, Note_on_c, 13, 64, 57
16, 241371, Note_on_c, 13, 61, 0
16, 241371, Note_on_c, 13, 64, 0
16, 241380, Note_on_c, 13, 64, 60
16, 241380, Note_on_c, 13, 61, 60
16, 241431, Note_on_c, 13, 64, 0
16, 241431, Note_on_c, 13, 61, 0
16, 241440, Note_on_c, 13, 64, 62
16, 241440, Note_on_c, 13, 61, 62
16, 241491, Note_on_c, 13, 64, 0
16, 241491, Note_on_c, 13, 61, 0
16, 241500, Note_on_c, 13, 64, 65
16, 241500, Note_on_c, 13, 61, 65
16, 241551, Note_on_c, 13, 64, 0
16, 241551, Note_on_c, 13, 61, 0
16, 241560, Note_on_c, 13, 64, 68
16, 241560, Note_on_c, 13, 61, 68
16, 241611, Note_on_c, 13, 64, 0
16, 241611, Note_on_c, 13, 61, 0
16, 241620, Note_on_c, 13, 64, 70
16, 241620, Note_on_c, 13, 61, 70
16, 241671, Note_on_c, 13, 64, 0
16, 241671, Note_on_c, 13, 61, 0
16, 241680, Note_on_c, 13, 61, 73
16, 241680, Note_on_c, 13, 65, 73
16, 241731, Note_on_c, 13, 61, 0
16, 241731, Note_on_c, 13, 65, 0
16, 241740, Note_on_c, 13, 65, 76
16, 241740, Note_on_c, 13, 61, 76
16, 241791, Note_on_c, 13, 65, 0
16, 241791, Note_on_c, 13, 61, 0
16, 241800, Note_on_c, 13, 65, 78
16, 241800, Note_on_c, 13, 61, 78
16, 241851, Note_on_c, 13, 65, 0
16, 241851, Note_on_c, 13, 61, 0
16, 241860, Note_on_c, 13, 65, 81
16, 241860, Note_on_c, 13, 61, 81
16, 241911, Note_on_c, 13, 65, 0
16, 241911, Note_on_c, 13, 61, 0
16, 241920, Note_on_c, 13, 62, 84
16, 242399, Note_on_c, 13, 62, 0
16, 242400, Note_on_c, 13, 65, 84
16, 242639, Note_on_c, 13, 65, 0
16, 242640, Note_on_c, 13, 62, 84
16, 243119, Note_on_c, 13, 62, 0
16, 243120, Note_on_c, 13, 57, 84
16, 243344, Note_on_c, 13, 57, 0
16, 243360, Note_on_c, 13, 62, 84
16, 243839, Note_on_c, 13, 62, 0
16, 243840, Note_on_c, 13, 65, 84
16, 244079, Note_on_c, 13, 65, 0
16, 244080, Note_on_c, 13, 62, 84
16, 244559, Note_on_c, 13, 62, 0
16, 244560, Note_on_c, 13, 57, 84
16, 244784, Note_on_c, 13, 57, 0
16, 244800, Note_on_c, 13, 64, 84
16, 245279, Note_on_c, 13, 64, 0
16, 245280, Note_on_c, 13, 67, 84
16, 245519, Note_on_c, 13, 67, 0
16, 245520, Note_on_c, 13, 64, 84
16, 245999, Note_on_c, 13, 64, 0
16, 246000, Note_on_c, 13, 57, 84
16, 246224, Note_on_c, 13, 57, 0
16, 246240, Note_on_c, 13, 64, 84
16, 246719, Note_on_c, 13, 64, 0
16, 246720, Note_on_c, 13, 67, 84
16, 246944, Note_on_c, 13, 67, 0
16, 246960, Note_on_c, 13, 64, 84
16, 247439, Note_on_c, 13, 64, 0
16, 247440, Note_on_c, 13, 67, 84
16, 247664, Note_on_c, 13, 67, 0
16, 247680, Note_on_c, 13, 66, 52
16, 247769, Note_on_c, 13, 66, 0
16, 247800, Note_on_c, 13, 66, 52
16, 247889, Note_on_c, 13, 66, 0
16, 247920, Note_on_c, 13, 66, 52
16, 248009, Note_on_c, 13, 66, 0
16, 248520, Note_on_c, 13, 67, 52
16, 248609, Note_on_c, 13, 67, 0
16, 248640, Note_on_c, 13, 67, 52
16, 248729, Note_on_c, 13, 67, 0
16, 249120, Note_on_c, 13, 62, 52
16, 249120, Note_on_c, 13, 72, 52
16, 249359, Note_on_c, 13, 62, 0
16, 249359, Note_on_c, 13, 72, 0
16, 249960, Note_on_c, 13, 57, 57
16, 250064, Note_on_c, 13, 57, 0
16, 250080, Note_on_c, 13, 57, 62
16, 250184, Note_on_c, 13, 57, 0
16, 250200, Note_on_c, 13, 57, 68
16, 250304, Note_on_c, 13, 57, 0
16, 250320, Note_on_c, 13, 57, 73
16, 250424, Note_on_c, 13, 57, 0
16, 250440, Note_on_c, 13, 57, 78
16, 250544, Note_on_c, 13, 57, 0
16, 250560, Note_on_c, 13, 58, 84
16, 250799, Note_on_c, 13, 58, 0
16, 250800, Note_on_c, 13, 55, 84
16, 251039, Note_on_c, 13, 55, 0
16, 251040, Note_on_c, 13, 58, 92
16, 251279, Note_on_c, 13, 58, 0
16, 251280, Note_on_c, 13, 55, 84
16, 251759, Note_on_c, 13, 55, 0
16, 251760, Note_on_c, 13, 50, 84
16, 251984, Note_on_c, 13, 50, 0
16, 252000, Note_on_c, 13, 55, 84
16, 252479, Note_on_c, 13, 55, 0
16, 252480, Note_on_c, 13, 58, 92
16, 252719, Note_on_c, 13, 58, 0
16, 252720, Note_on_c, 13, 55, 84
16, 253199, Note_on_c, 13, 55, 0
16, 253200, Note_on_c, 13, 50, 84
16, 253424, Note_on_c, 13, 50, 0
16, 253440, Note_on_c, 13, 57, 84
16, 253919, Note_on_c, 13, 57, 0
16, 253920, Note_on_c, 13, 60, 92
16, 254159, Note_on_c, 13, 60, 0
16, 254160, Note_on_c, 13, 57, 84
16, 254639, Note_on_c, 13, 57, 0
16, 254640, Note_on_c, 13, 50, 84
16, 254864, Note_on_c, 13, 50, 0
16, 254880, Note_on_c, 13, 57, 84
16, 255359, Note_on_c, 13, 57, 0
16, 255360, Note_on_c, 13, 60, 84
16, 255584, Note_on_c, 13, 60, 0
16, 255600, Note_on_c, 13, 57, 84
16, 256079, Note_on_c, 13, 57, 0
16, 256080, Note_on_c, 13, 60, 84
16, 256304, Note_on_c, 13, 60, 0
16, 256440, Note_on_c, 13, 65, 52
16, 256529, Note_on_c, 13, 65, 0
16, 256560, Note_on_c, 13, 65, 52
16, 256649, Note_on_c, 13, 65, 0
16, 257160, Note_on_c, 13, 63, 52
16, 257249, Note_on_c, 13, 63, 0
16, 257280, Note_on_c, 13, 63, 52
16, 257369, Note_on_c, 13, 63, 0
16, 257760, Note_on_c, 13, 65, 52
16, 257760, Note_on_c, 13, 55, 52
16, 257999, Note_on_c, 13, 65, 0
16, 257999, Note_on_c, 13, 55, 0
16, 259320, Note_on_c, 13, 72, 52
16, 259409, Note_on_c, 13, 72, 0
16, 259440, Note_on_c, 13, 72, 52
16, 259529, Note_on_c, 13, 72, 0
16, 260040, Note_on_c, 13, 65, 60
16, 260129, Note_on_c, 13, 65, 0
16, 260160, Note_on_c, 13, 65, 60
16, 260249, Note_on_c, 13, 65, 0
16, 260760, Note_on_c, 13, 67, 54
16, 260849, Note_on_c, 13, 67, 0
16, 260880, Note_on_c, 13, 67, 56
16, 260969, Note_on_c, 13, 67, 0
16, 261480, Note_on_c, 13, 64, 66
16, 261599, Note_on_c, 13, 64, 0
16, 261600, Note_on_c, 13, 64, 68
16, 261719, Note_on_c, 13, 64, 0
16, 261720, Note_on_c, 13, 64, 70
16, 261839, Note_on_c, 13, 64, 0
16, 261840, Note_on_c, 13, 64, 72
16, 261959, Note_on_c, 13, 64, 0
16, 261960, Note_on_c, 13, 64, 74
16, 262079, Note_on_c, 13, 64, 0
16, 262080, Note_on_c, 13, 63, 76
16, 262169, Note_on_c, 13, 63, 0
16, 262200, Note_on_c, 13, 72, 76
16, 262289, Note_on_c, 13, 72, 0
16, 262320, Note_on_c, 13, 72, 76
16, 262409, Note_on_c, 13, 72, 0
16, 262920, Note_on_c, 13, 65, 76
16, 263009, Note_on_c, 13, 65, 0
16, 263040, Note_on_c, 13, 65, 76
16, 263129, Note_on_c, 13, 65, 0
16, 263640, Note_on_c, 13, 51, 76
16, 263699, Note_on_c, 13, 51, 0
16, 263700, Note_on_c, 13, 53, 76
16, 263751, Note_on_c, 13, 53, 0
16, 263760, Note_on_c, 13, 51, 76
16, 263849, Note_on_c, 13, 51, 0
16, 264360, Note_on_c, 13, 56, 76
16, 264419, Note_on_c, 13, 56, 0
16, 264420, Note_on_c, 13, 58, 76
16, 264471, Note_on_c, 13, 58, 0
16, 264480, Note_on_c, 13, 56, 76
16, 264569, Note_on_c, 13, 56, 0
16, 264960, Note_on_c, 13, 53, 84
16, 265011, Note_on_c, 13, 53, 0
16, 265020, Note_on_c, 13, 65, 84
16, 265071, Note_on_c, 13, 65, 0
16, 265080, Note_on_c, 13, 65, 84
16, 265131, Note_on_c, 13, 65, 0
16, 265140, Note_on_c, 13, 65, 84
16, 265191, Note_on_c, 13, 65, 0
16, 265200, Note_on_c, 13, 65, 84
16, 265251, Note_on_c, 13, 65, 0
16, 265260, Note_on_c, 13, 65, 84
16, 265311, Note_on_c, 13, 65, 0
16, 265320, Note_on_c, 13, 65, 84
16, 265371, Note_on_c, 13, 65, 0
16, 265380, Note_on_c, 13, 65, 84
16, 265431, Note_on_c, 13, 65, 0
16, 265440, Note_on_c, 13, 65, 84
16, 265491, Note_on_c, 13, 65, 0
16, 265500, Note_on_c, 13, 65, 84
16, 265551, Note_on_c, 13, 65, 0
16, 265560, Note_on_c, 13, 65, 84
16, 265611, Note_on_c, 13, 65, 0
16, 265620, Note_on_c, 13, 65, 84
16, 265671, Note_on_c, 13, 65, 0
16, 265680, Note_on_c, 13, 64, 84
16, 265731, Note_on_c, 13, 64, 0
16, 265740, Note_on_c, 13, 64, 84
16, 265791, Note_on_c, 13, 64, 0
16, 265800, Note_on_c, 13, 64, 84
16, 265851, Note_on_c, 13, 64, 0
16, 265860, Note_on_c, 13, 64, 84
16, 265911, Note_on_c, 13, 64, 0
16, 265920, Note_on_c, 13, 64, 84
16, 265971, Note_on_c, 13, 64, 0
16, 265980, Note_on_c, 13, 64, 84
16, 266031, Note_on_c, 13, 64, 0
16, 266040, Note_on_c, 13, 64, 84
16, 266091, Note_on_c, 13, 64, 0
16, 266100, Note_on_c, 13, 64, 84
16, 266151, Note_on_c, 13, 64, 0
16, 266160, Note_on_c, 13, 64, 84
16, 266211, Note_on_c, 13, 64, 0
16, 266220, Note_on_c, 13, 64, 84
16, 266271, Note_on_c, 13, 64, 0
16, 266280, Note_on_c, 13, 64, 84
16, 266331, Note_on_c, 13, 64, 0
16, 266340, Note_on_c, 13, 64, 84
16, 266391, Note_on_c, 13, 64, 0
16, 266400, Note_on_c, 13, 63, 52
16, 266489, Note_on_c, 13, 63, 0
16, 266520, Note_on_c, 13, 51, 52
16, 266639, Note_on_c, 13, 51, 0
16, 266640, Note_on_c, 13, 55, 52
16, 266759, Note_on_c, 13, 55, 0
16, 266760, Note_on_c, 13, 51, 52
16, 266879, Note_on_c, 13, 51, 0
16, 266880, Note_on_c, 13, 55, 52
16, 266999, Note_on_c, 13, 55, 0
16, 267000, Note_on_c, 13, 51, 52
16, 267104, Note_on_c, 13, 51, 0
16, 267120, Note_on_c, 13, 55, 52
16, 267239, Note_on_c, 13, 55, 0
16, 267240, Note_on_c, 13, 51, 52
16, 267359, Note_on_c, 13, 51, 0
16, 267360, Note_on_c, 13, 55, 52
16, 267479, Note_on_c, 13, 55, 0
16, 267480, Note_on_c, 13, 51, 52
16, 267599, Note_on_c, 13, 51, 0
16, 267600, Note_on_c, 13, 55, 52
16, 267719, Note_on_c, 13, 55, 0
16, 267720, Note_on_c, 13, 51, 52
16, 267824, Note_on_c, 13, 51, 0
16, 267840, Note_on_c, 13, 55, 52
16, 267959, Note_on_c, 13, 55, 0
16, 267960, Note_on_c, 13, 51, 52
16, 268079, Note_on_c, 13, 51, 0
16, 268080, Note_on_c, 13, 55, 52
16, 268199, Note_on_c, 13, 55, 0
16, 268200, Note_on_c, 13, 51, 52
16, 268319, Note_on_c, 13, 51, 0
16, 268320, Note_on_c, 13, 55, 52
16, 268439, Note_on_c, 13, 55, 0
16, 268440, Note_on_c, 13, 51, 52
16, 268544, Note_on_c, 13, 51, 0
16, 268560, Note_on_c, 13, 55, 52
16, 268679, Note_on_c, 13, 55, 0
16, 268680, Note_on_c, 13, 51, 52
16, 268799, Note_on_c, 13, 51, 0
16, 268800, Note_on_c, 13, 55, 52
16, 268919, Note_on_c, 13, 55, 0
16, 268920, Note_on_c, 13, 51, 52
16, 269039, Note_on_c, 13, 51, 0
16, 269040, Note_on_c, 13, 55, 52
16, 269159, Note_on_c, 13, 55, 0
16, 269160, Note_on_c, 13, 51, 52
16, 269264, Note_on_c, 13, 51, 0
16, 269280, Note_on_c, 13, 56, 52
16, 269399, Note_on_c, 13, 56, 0
16, 269400, Note_on_c, 13, 51, 52
16, 269519, Note_on_c, 13, 51, 0
16, 269520, Note_on_c, 13, 56, 52
16, 269639, Note_on_c, 13, 56, 0
16, 269640, Note_on_c, 13, 51, 52
16, 269759, Note_on_c, 13, 51, 0
16, 269760, Note_on_c, 13, 56, 52
16, 269879, Note_on_c, 13, 56, 0
16, 269880, Note_on_c, 13, 51, 52
16, 269984, Note_on_c, 13, 51, 0
16, 270000, Note_on_c, 13, 56, 52
16, 270119, Note_on_c, 13, 56, 0
16, 270120, Note_on_c, 13, 51, 52
16, 270239, Note_on_c, 13, 51, 0
16, 270240, Note_on_c, 13, 56, 52
16, 270359, Note_on_c, 13, 56, 0
16, 270360, Note_on_c, 13, 51, 52
16, 270479, Note_on_c, 13, 51, 0
16, 270480, Note_on_c, 13, 56, 52
16, 270599, Note_on_c, 13, 56, 0
16, 270600, Note_on_c, 13, 51, 52
16, 270704, Note_on_c, 13, 51, 0
16, 270720, Note_on_c, 13, 56, 52
16, 270839, Note_on_c, 13, 56, 0
16, 270840, Note_on_c, 13, 51, 52
16, 270959, Note_on_c, 13, 51, 0
16, 270960, Note_on_c, 13, 56, 52
16, 271079, Note_on_c, 13, 56, 0
16, 271080, Note_on_c, 13, 51, 52
16, 271199, Note_on_c, 13, 51, 0
16, 271200, Note_on_c, 13, 56, 52
16, 271319, Note_on_c, 13, 56, 0
16, 271320, Note_on_c, 13, 51, 52
16, 271424, Note_on_c, 13, 51, 0
16, 271440, Note_on_c, 13, 56, 52
16, 271559, Note_on_c, 13, 56, 0
16, 271560, Note_on_c, 13, 51, 52
16, 271679, Note_on_c, 13, 51, 0
16, 271680, Note_on_c, 13, 56, 52
16, 271799, Note_on_c, 13, 56, 0
16, 271800, Note_on_c, 13, 51, 52
16, 271919, Note_on_c, 13, 51, 0
16, 271920, Note_on_c, 13, 56, 52
16, 272039, Note_on_c, 13, 56, 0
16, 272040, Note_on_c, 13, 51, 52
16, 272144, Note_on_c, 13, 51, 0
16, 272160, Note_on_c, 13, 58, 52
16, 272279, Note_on_c, 13, 58, 0
16, 272280, Note_on_c, 13, 51, 52
16, 272384, Note_on_c, 13, 51, 0
16, 272400, Note_on_c, 13, 55, 52
16, 272519, Note_on_c, 13, 55, 0
16, 272520, Note_on_c, 13, 51, 52
16, 272639, Note_on_c, 13, 51, 0
16, 272640, Note_on_c, 13, 55, 52
16, 272759, Note_on_c, 13, 55, 0
16, 272760, Note_on_c, 13, 51, 52
16, 272864, Note_on_c, 13, 51, 0
16, 272880, Note_on_c, 13, 55, 52
16, 272999, Note_on_c, 13, 55, 0
16, 273000, Note_on_c, 13, 51, 52
16, 273119, Note_on_c, 13, 51, 0
16, 273120, Note_on_c, 13, 55, 52
16, 273239, Note_on_c, 13, 55, 0
16, 273240, Note_on_c, 13, 51, 52
16, 273359, Note_on_c, 13, 51, 0
16, 273360, Note_on_c, 13, 55, 52
16, 273479, Note_on_c, 13, 55, 0
16, 273480, Note_on_c, 13, 51, 52
16, 273584, Note_on_c, 13, 51, 0
16, 273600, Note_on_c, 13, 55, 52
16, 273719, Note_on_c, 13, 55, 0
16, 273720, Note_on_c, 13, 51, 52
16, 273839, Note_on_c, 13, 51, 0
16, 273840, Note_on_c, 13, 55, 52
16, 273959, Note_on_c, 13, 55, 0
16, 273960, Note_on_c, 13, 51, 52
16, 274079, Note_on_c, 13, 51, 0
16, 274080, Note_on_c, 13, 55, 52
16, 274199, Note_on_c, 13, 55, 0
16, 274200, Note_on_c, 13, 51, 52
16, 274304, Note_on_c, 13, 51, 0
16, 274320, Note_on_c, 13, 55, 52
16, 274439, Note_on_c, 13, 55, 0
16, 274440, Note_on_c, 13, 51, 52
16, 274559, Note_on_c, 13, 51, 0
16, 274560, Note_on_c, 13, 55, 52
16, 274679, Note_on_c, 13, 55, 0
16, 274680, Note_on_c, 13, 51, 52
16, 274799, Note_on_c, 13, 51, 0
16, 274800, Note_on_c, 13, 55, 52
16, 274919, Note_on_c, 13, 55, 0
16, 274920, Note_on_c, 13, 51, 52
16, 275024, Note_on_c, 13, 51, 0
16, 275040, Note_on_c, 13, 56, 52
16, 275279, Note_on_c, 13, 56, 0
16, 275760, Note_on_c, 13, 48, 76
16, 275880, Control_c, 13, 11, 80
16, 276569, Note_on_c, 13, 48, 0
16, 276600, Note_on_c, 13, 50, 76
16, 276689, Note_on_c, 13, 50, 0
16, 276720, Note_on_c, 13, 52, 76
16, 276809, Note_on_c, 13, 52, 0
16, 276840, Note_on_c, 13, 53, 76
16, 276929, Note_on_c, 13, 53, 0
16, 276960, Note_on_c, 13, 55, 76
16, 277049, Note_on_c, 13, 55, 0
16, 277080, Note_on_c, 13, 56, 76
16, 277169, Note_on_c, 13, 56, 0
16, 277200, Note_on_c, 13, 58, 76
16, 277439, Note_on_c, 13, 58, 0
16, 277440, Note_on_c, 13, 56, 76
16, 277559, Note_on_c, 13, 56, 0
16, 277560, Note_on_c, 13, 55, 76
16, 277679, Note_on_c, 13, 55, 0
16, 277680, Note_on_c, 13, 53, 76
16, 277799, Note_on_c, 13, 53, 0
16, 277800, Note_on_c, 13, 52, 76
16, 277904, Note_on_c, 13, 52, 0
16, 277920, Note_on_c, 13, 53, 76
16, 278129, Note_on_c, 13, 53, 0
16, 278160, Control_c, 13, 11, 127
16, 278160, Note_on_c, 13, 65, 68
16, 278280, Control_c, 13, 11, 96
16, 278504, Note_on_c, 13, 65, 0
16, 278520, Note_on_c, 13, 56, 68
16, 278624, Note_on_c, 13, 56, 0
16, 278640, Note_on_c, 13, 55, 68
16, 278849, Note_on_c, 13, 55, 0
16, 278880, Note_on_c, 13, 63, 84
16, 279224, Note_on_c, 13, 63, 0
16, 279240, Note_on_c, 13, 63, 68
16, 279344, Note_on_c, 13, 63, 0
16, 279360, Note_on_c, 13, 63, 68
16, 279419, Note_on_c, 13, 63, 0
16, 279420, Note_on_c, 13, 60, 68
16, 279479, Note_on_c, 13, 60, 0
16, 279480, Note_on_c, 13, 59, 68
16, 279539, Note_on_c, 13, 59, 0
16, 279540, Note_on_c, 13, 60, 68
16, 279591, Note_on_c, 13, 60, 0
16, 279600, Note_on_c, 13, 62, 68
16, 279689, Note_on_c, 13, 62, 0
16, 279720, Note_on_c, 13, 59, 68
16, 279809, Note_on_c, 13, 59, 0
16, 279840, Note_on_c, 13, 60, 68
16, 279929, Note_on_c, 13, 60, 0
16, 279960, Note_on_c, 13, 62, 68
16, 280049, Note_on_c, 13, 62, 0
16, 280080, Note_on_c, 13, 63, 68
16, 280169, Note_on_c, 13, 63, 0
16, 280200, Note_on_c, 13, 63, 68
16, 280259, Note_on_c, 13, 63, 0
16, 280260, Note_on_c, 13, 62, 68
16, 280311, Note_on_c, 13, 62, 0
16, 280320, Note_on_c, 13, 63, 68
16, 280409, Note_on_c, 13, 63, 0
16, 280440, Note_on_c, 13, 66, 68
16, 280529, Note_on_c, 13, 66, 0
16, 280560, Note_on_c, 13, 67, 68
16, 280649, Note_on_c, 13, 67, 0
16, 280680, Note_on_c, 13, 69, 68
16, 280769, Note_on_c, 13, 69, 0
16, 280800, Note_on_c, 13, 70, 68
16, 281039, Note_on_c, 13, 70, 0
16, 282240, Control_c, 13, 11, 80
16, 282430, Control_c, 13, 11, 82
16, 282480, Note_on_c, 13, 62, 76
16, 282620, Control_c, 13, 11, 84
16, 282659, Note_on_c, 13, 62, 0
16, 282720, Note_on_c, 13, 67, 76
16, 282810, Control_c, 13, 11, 86
16, 283000, Control_c, 13, 11, 88
16, 283049, Note_on_c, 13, 67, 0
16, 283080, Note_on_c, 13, 60, 76
16, 283169, Note_on_c, 13, 60, 0
16, 283190, Control_c, 13, 11, 90
16, 283200, Note_on_c, 13, 67, 76
16, 283289, Note_on_c, 13, 67, 0
16, 283320, Note_on_c, 13, 55, 76
16, 283380, Control_c, 13, 11, 92
16, 283409, Note_on_c, 13, 55, 0
16, 283440, Note_on_c, 13, 55, 76
16, 283529, Note_on_c, 13, 55, 0
16, 283560, Note_on_c, 13, 53, 76
16, 283570, Control_c, 13, 11, 94
16, 283649, Note_on_c, 13, 53, 0
16, 283680, Note_on_c, 13, 52, 76
16, 283760, Control_c, 13, 11, 96
16, 283904, Note_on_c, 13, 52, 0
16, 283920, Note_on_c, 13, 64, 88
16, 283950, Control_c, 13, 11, 98
16, 284140, Control_c, 13, 11, 100
16, 284264, Note_on_c, 13, 64, 0
16, 284280, Note_on_c, 13, 64, 76
16, 284330, Control_c, 13, 11, 102
16, 284384, Note_on_c, 13, 64, 0
16, 284400, Note_on_c, 13, 65, 76
16, 284520, Control_c, 13, 11, 104
16, 284639, Note_on_c, 13, 65, 0
16, 284710, Control_c, 13, 11, 105
16, 284760, Note_on_c, 13, 53, 76
16, 284819, Note_on_c, 13, 53, 0
16, 284820, Note_on_c, 13, 52, 76
16, 284871, Note_on_c, 13, 52, 0
16, 284880, Note_on_c, 13, 53, 76
16, 284900, Control_c, 13, 11, 107
16, 284969, Note_on_c, 13, 53, 0
16, 285000, Note_on_c, 13, 52, 76
16, 285089, Note_on_c, 13, 52, 0
16, 285090, Control_c, 13, 11, 109
16, 285120, Note_on_c, 13, 50, 76
16, 285280, Control_c, 13, 11, 111
16, 285359, Note_on_c, 13, 50, 0
16, 285470, Control_c, 13, 11, 113
16, 285480, Note_on_c, 13, 52, 76
16, 285539, Note_on_c, 13, 52, 0
16, 285540, Note_on_c, 13, 50, 76
16, 285591, Note_on_c, 13, 50, 0
16, 285600, Note_on_c, 13, 52, 76
16, 285660, Control_c, 13, 11, 115
16, 285689, Note_on_c, 13, 52, 0
16, 285720, Note_on_c, 13, 49, 76
16, 285809, Note_on_c, 13, 49, 0
16, 285840, Note_on_c, 13, 53, 76
16, 285850, Control_c, 13, 11, 117
16, 285929, Note_on_c, 13, 53, 0
16, 285960, Note_on_c, 13, 69, 76
16, 286040, Control_c, 13, 11, 119
16, 286049, Note_on_c, 13, 69, 0
16, 286080, Note_on_c, 13, 65, 76
16, 286169, Note_on_c, 13, 65, 0
16, 286200, Note_on_c, 13, 64, 76
16, 286230, Control_c, 13, 11, 121
16, 286289, Note_on_c, 13, 64, 0
16, 286320, Note_on_c, 13, 62, 76
16, 286409, Note_on_c, 13, 62, 0
16, 286420, Control_c, 13, 11, 123
16, 286440, Note_on_c, 13, 60, 76
16, 286529, Note_on_c, 13, 60, 0
16, 286560, Note_on_c, 13, 59, 76
16, 286610, Control_c, 13, 11, 127
16, 286784, Note_on_c, 13, 59, 0
16, 286800, Note_on_c, 13, 56, 84
16, 288224, Note_on_c, 13, 56, 0
16, 288240, Note_on_c, 13, 53, 92
16, 288689, Note_on_c, 13, 53, 0
16, 288720, Note_on_c, 13, 53, 92
16, 289169, Note_on_c, 13, 53, 0
16, 289200, Note_on_c, 13, 53, 92
16, 289649, Note_on_c, 13, 53, 0
16, 289680, Note_on_c, 13, 53, 92
16, 290129, Note_on_c, 13, 53, 0
16, 290160, Note_on_c, 13, 53, 92
16, 290609, Note_on_c, 13, 53, 0
16, 290640, Note_on_c, 13, 53, 92
16, 290849, Note_on_c, 13, 53, 0
16, 290880, Note_on_c, 13, 52, 92
16, 292529, Note_on_c, 13, 52, 0
16, 292560, Note_on_c, 13, 52, 92
16, 293009, Note_on_c, 13, 52, 0
16, 293040, Note_on_c, 13, 52, 92
16, 293489, Note_on_c, 13, 52, 0
16, 293520, Note_on_c, 13, 52, 92
16, 293969, Note_on_c, 13, 52, 0
16, 294000, Note_on_c, 13, 52, 92
16, 294449, Note_on_c, 13, 52, 0
16, 294480, Note_on_c, 13, 52, 92
16, 294929, Note_on_c, 13, 52, 0
16, 294960, Note_on_c, 13, 52, 92
16, 295169, Note_on_c, 13, 52, 0
16, 295200, Note_on_c, 13, 54, 92
16, 296849, Note_on_c, 13, 54, 0
16, 296880, Note_on_c, 13, 54, 92
16, 297329, Note_on_c, 13, 54, 0
16, 297360, Note_on_c, 13, 51, 92
16, 297809, Note_on_c, 13, 51, 0
16, 297840, Note_on_c, 13, 54, 92
16, 298289, Note_on_c, 13, 54, 0
16, 298320, Note_on_c, 13, 54, 92
16, 298769, Note_on_c, 13, 54, 0
16, 298800, Note_on_c, 13, 51, 92
16, 299249, Note_on_c, 13, 51, 0
16, 299280, Note_on_c, 13, 54, 92
16, 299489, Note_on_c, 13, 54, 0
16, 299520, Note_on_c, 13, 49, 92
16, 301169, Note_on_c, 13, 49, 0
16, 301200, Note_on_c, 13, 49, 92
16, 301649, Note_on_c, 13, 49, 0
16, 301680, Note_on_c, 13, 55, 92
16, 302129, Note_on_c, 13, 55, 0
16, 302160, Note_on_c, 13, 49, 92
16, 302609, Note_on_c, 13, 49, 0
16, 302640, Note_on_c, 13, 49, 92
16, 303089, Note_on_c, 13, 49, 0
16, 303120, Note_on_c, 13, 55, 92
16, 303569, Note_on_c, 13, 55, 0
16, 303600, Note_on_c, 13, 49, 92
16, 303809, Note_on_c, 13, 49, 0
16, 303840, Note_on_c, 13, 48, 84
16, 304019, Note_on_c, 13, 48, 0
16, 304080, Note_on_c, 13, 60, 92
16, 304529, Note_on_c, 13, 60, 0
16, 304560, Note_on_c, 13, 60, 92
16, 305009, Note_on_c, 13, 60, 0
16, 305040, Note_on_c, 13, 60, 92
16, 305249, Note_on_c, 13, 60, 0
16, 305280, Note_on_c, 13, 48, 84
16, 305459, Note_on_c, 13, 48, 0
16, 305520, Note_on_c, 13, 60, 92
16, 305520, Note_on_c, 13, 64, 92
16, 305969, Note_on_c, 13, 60, 0
16, 305969, Note_on_c, 13, 64, 0
16, 306000, Note_on_c, 13, 60, 92
16, 306000, Note_on_c, 13, 64, 92
16, 306449, Note_on_c, 13, 60, 0
16, 306449, Note_on_c, 13, 64, 0
16, 306480, Note_on_c, 13, 60, 92
16, 306480, Note_on_c, 13, 64, 92
16, 306659, Note_on_c, 13, 60, 0
16, 306659, Note_on_c, 13, 64, 0
16, 306720, Note_on_c, 13, 48, 84
16, 306899, Note_on_c, 13, 48, 0
16, 306960, Note_on_c, 13, 64, 76
16, 306960, Note_on_c, 13, 60, 76
16, 307439, Note_on_c, 13, 64, 0
16, 307439, Note_on_c, 13, 60, 0
16, 307680, Note_on_c, 13, 60, 76
16, 307680, Note_on_c, 13, 64, 76
16, 308159, Note_on_c, 13, 60, 0
16, 308159, Note_on_c, 13, 64, 0
16, 308400, Note_on_c, 13, 60, 76
16, 308400, Note_on_c, 13, 64, 76
16, 308864, Note_on_c, 13, 60, 0
16, 308864, Note_on_c, 13, 64, 0
16, 308880, Note_on_c, 13, 64, 76
16, 308880, Note_on_c, 13, 60, 76
16, 309344, Note_on_c, 13, 64, 0
16, 309344, Note_on_c, 13, 60, 0
16, 309360, Note_on_c, 13, 64, 76
16, 309360, Note_on_c, 13, 60, 76
16, 309539, Note_on_c, 13, 64, 0
16, 309539, Note_on_c, 13, 60, 0
16, 309840, Note_on_c, 13, 57, 76
16, 309840, Note_on_c, 13, 54, 76
16, 310019, Note_on_c, 13, 57, 0
16, 310019, Note_on_c, 13, 54, 0
16, 310080, Note_on_c, 13, 54, 76
16, 310080, Note_on_c, 13, 57, 76
16, 310259, Note_on_c, 13, 54, 0
16, 310259, Note_on_c, 13, 57, 0
16, 310320, Note_on_c, 13, 54, 76
16, 310320, Note_on_c, 13, 57, 76
16, 310499, Note_on_c, 13, 54, 0
16, 310499, Note_on_c, 13, 57, 0
16, 310560, Note_on_c, 13, 57, 72
16, 310560, Note_on_c, 13, 54, 72
16, 310739, Note_on_c, 13, 57, 0
16, 310739, Note_on_c, 13, 54, 0
16, 310800, Note_on_c, 13, 54, 68
16, 310800, Note_on_c, 13, 57, 68
16, 310979, Note_on_c, 13, 54, 0
16, 310979, Note_on_c, 13, 57, 0
16, 311040, Note_on_c, 13, 54, 64
16, 311040, Note_on_c, 13, 57, 64
16, 311219, Note_on_c, 13, 54, 0
16, 311219, Note_on_c, 13, 57, 0
16, 311280, Note_on_c, 13, 57, 60
16, 311280, Note_on_c, 13, 54, 60
16, 311459, Note_on_c, 13, 57, 0
16, 311459, Note_on_c, 13, 54, 0
16, 311520, Note_on_c, 13, 57, 56
16, 311520, Note_on_c, 13, 54, 56
16, 311699, Note_on_c, 13, 57, 0
16, 311699, Note_on_c, 13, 54, 0
16, 311760, Note_on_c, 13, 54, 52
16, 311760, Note_on_c, 13, 57, 52
16, 311939, Note_on_c, 13, 54, 0
16, 311939, Note_on_c, 13, 57, 0
16, 312000, Note_on_c, 13, 57, 52
16, 312000, Note_on_c, 13, 54, 52
16, 312179, Note_on_c, 13, 57, 0
16, 312179, Note_on_c, 13, 54, 0
16, 312240, Note_on_c, 13, 57, 52
16, 312240, Note_on_c, 13, 54, 52
16, 312419, Note_on_c, 13, 57, 0
16, 312419, Note_on_c, 13, 54, 0
16, 312480, Note_on_c, 13, 55, 52
16, 312719, Note_on_c, 13, 55, 0
16, 318240, Note_on_c, 13, 57, 52
16, 318344, Note_on_c, 13, 57, 0
16, 318360, Note_on_c, 13, 52, 52
16, 318584, Note_on_c, 13, 52, 0
16, 318600, Note_on_c, 13, 52, 52
16, 318824, Note_on_c, 13, 52, 0
16, 318840, Note_on_c, 13, 52, 52
16, 319064, Note_on_c, 13, 52, 0
16, 319080, Note_on_c, 13, 52, 52
16, 319304, Note_on_c, 13, 52, 0
16, 319320, Note_on_c, 13, 52, 52
16, 319544, Note_on_c, 13, 52, 0
16, 319560, Note_on_c, 13, 52, 52
16, 319784, Note_on_c, 13, 52, 0
16, 319800, Note_on_c, 13, 64, 52
16, 320024, Note_on_c, 13, 64, 0
16, 320040, Note_on_c, 13, 64, 52
16, 320264, Note_on_c, 13, 64, 0
16, 320280, Note_on_c, 13, 64, 52
16, 320504, Note_on_c, 13, 64, 0
16, 320520, Note_on_c, 13, 64, 52
16, 320744, Note_on_c, 13, 64, 0
16, 320760, Note_on_c, 13, 64, 52
16, 320984, Note_on_c, 13, 64, 0
16, 321000, Note_on_c, 13, 64, 52
16, 321104, Note_on_c, 13, 64, 0
16, 321120, Note_on_c, 13, 64, 52
16, 321224, Note_on_c, 13, 64, 0
16, 321240, Note_on_c, 13, 52, 52
16, 321464, Note_on_c, 13, 52, 0
16, 321480, Note_on_c, 13, 52, 52
16, 321704, Note_on_c, 13, 52, 0
16, 321720, Note_on_c, 13, 52, 52
16, 321944, Note_on_c, 13, 52, 0
16, 321960, Note_on_c, 13, 52, 52
16, 322184, Note_on_c, 13, 52, 0
16, 322200, Note_on_c, 13, 52, 52
16, 322424, Note_on_c, 13, 52, 0
16, 322440, Note_on_c, 13, 52, 52
16, 322664, Note_on_c, 13, 52, 0
16, 322680, Note_on_c, 13, 64, 52
16, 322904, Note_on_c, 13, 64, 0
16, 322920, Note_on_c, 13, 64, 52
16, 323144, Note_on_c, 13, 64, 0
16, 323160, Note_on_c, 13, 64, 52
16, 323384, Note_on_c, 13, 64, 0
16, 323400, Note_on_c, 13, 52, 52
16, 323519, Note_on_c, 13, 52, 0
16, 323520, Note_on_c, 13, 55, 56
16, 323639, Note_on_c, 13, 55, 0
16, 323640, Note_on_c, 13, 53, 61
16, 323759, Note_on_c, 13, 53, 0
16, 323760, Note_on_c, 13, 52, 66
16, 323879, Note_on_c, 13, 52, 0
16, 323880, Note_on_c, 13, 50, 71
16, 323984, Note_on_c, 13, 50, 0
16, 324000, Note_on_c, 13, 48, 76
16, 324224, Note_on_c, 13, 48, 0
16, 324240, Note_on_c, 13, 60, 76
16, 324479, Note_on_c, 13, 60, 0
16, 324480, Note_on_c, 13, 64, 76
16, 324719, Note_on_c, 13, 64, 0
16, 324720, Note_on_c, 13, 60, 76
16, 325199, Note_on_c, 13, 60, 0
16, 325200, Note_on_c, 13, 55, 76
16, 325424, Note_on_c, 13, 55, 0
16, 325440, Note_on_c, 13, 60, 76
16, 325619, Note_on_c, 13, 60, 0
16, 325680, Note_on_c, 13, 64, 76
16, 325859, Note_on_c, 13, 64, 0
16, 325920, Note_on_c, 13, 67, 76
16, 326099, Note_on_c, 13, 67, 0
16, 326160, Note_on_c, 13, 60, 76
16, 326639, Note_on_c, 13, 60, 0
16, 326640, Note_on_c, 13, 55, 76
16, 326864, Note_on_c, 13, 55, 0
16, 326880, Note_on_c, 13, 60, 76
16, 327059, Note_on_c, 13, 60, 0
16, 327120, Note_on_c, 13, 52, 76
16, 327299, Note_on_c, 13, 52, 0
16, 327360, Note_on_c, 13, 55, 76
16, 327539, Note_on_c, 13, 55, 0
16, 327600, Note_on_c, 13, 60, 76
16, 327779, Note_on_c, 13, 60, 0
16, 327840, Note_on_c, 13, 64, 76
16, 328019, Note_on_c, 13, 64, 0
16, 328080, Note_on_c, 13, 67, 84
16, 328409, Note_on_c, 13, 67, 0
16, 328440, Note_on_c, 13, 65, 76
16, 328529, Note_on_c, 13, 65, 0
16, 328560, Note_on_c, 13, 62, 76
16, 328649, Note_on_c, 13, 62, 0
16, 328680, Note_on_c, 13, 59, 76
16, 328769, Note_on_c, 13, 59, 0
16, 328800, Note_on_c, 13, 55, 76
16, 328889, Note_on_c, 13, 55, 0
16, 328920, Note_on_c, 13, 53, 76
16, 329009, Note_on_c, 13, 53, 0
16, 329040, Note_on_c, 13, 50, 76
16, 329129, Note_on_c, 13, 50, 0
16, 329160, Note_on_c, 13, 65, 76
16, 329249, Note_on_c, 13, 65, 0
16, 329280, Note_on_c, 13, 62, 76
16, 329369, Note_on_c, 13, 62, 0
16, 329400, Note_on_c, 13, 59, 76
16, 329489, Note_on_c, 13, 59, 0
16, 329520, Note_on_c, 13, 55, 76
16, 329609, Note_on_c, 13, 55, 0
16, 329640, Note_on_c, 13, 59, 76
16, 329729, Note_on_c, 13, 59, 0
16, 329760, Note_on_c, 13, 60, 76
16, 329939, Note_on_c, 13, 60, 0
16, 330000, Note_on_c, 13, 51, 76
16, 330179, Note_on_c, 13, 51, 0
16, 330240, Note_on_c, 13, 55, 76
16, 330419, Note_on_c, 13, 55, 0
16, 330480, Note_on_c, 13, 60, 76
16, 330659, Note_on_c, 13, 60, 0
16, 330720, Note_on_c, 13, 63, 76
16, 330899, Note_on_c, 13, 63, 0
16, 330960, Note_on_c, 13, 67, 84
16, 331289, Note_on_c, 13, 67, 0
16, 331320, Note_on_c, 13, 65, 76
16, 331409, Note_on_c, 13, 65, 0
16, 331440, Note_on_c, 13, 62, 76
16, 331529, Note_on_c, 13, 62, 0
16, 331560, Note_on_c, 13, 59, 76
16, 331649, Note_on_c, 13, 59, 0
16, 331680, Note_on_c, 13, 55, 76
16, 331769, Note_on_c, 13, 55, 0
16, 331800, Note_on_c, 13, 53, 76
16, 331889, Note_on_c, 13, 53, 0
16, 331920, Note_on_c, 13, 50, 76
16, 332009, Note_on_c, 13, 50, 0
16, 332040, Note_on_c, 13, 65, 76
16, 332129, Note_on_c, 13, 65, 0
16, 332160, Note_on_c, 13, 62, 76
16, 332249, Note_on_c, 13, 62, 0
16, 332280, Note_on_c, 13, 59, 76
16, 332369, Note_on_c, 13, 59, 0
16, 332400, Note_on_c, 13, 55, 76
16, 332489, Note_on_c, 13, 55, 0
16, 332520, Note_on_c, 13, 59, 76
16, 332609, Note_on_c, 13, 59, 0
16, 332640, Note_on_c, 13, 60, 76
16, 332879, Note_on_c, 13, 60, 0
16, 332880, Note_on_c, 13, 51, 76
16, 333119, Note_on_c, 13, 51, 0
16, 333120, Note_on_c, 13, 55, 76
16, 333344, Note_on_c, 13, 55, 0
16, 333360, Note_on_c, 13, 56, 84
16, 333839, Note_on_c, 13, 56, 0
16, 333840, Note_on_c, 13, 48, 76
16, 334064, Note_on_c, 13, 48, 0
16, 334080, Note_on_c, 13, 49, 76
16, 334319, Note_on_c, 13, 49, 0
16, 334320, Note_on_c, 13, 53, 76
16, 334559, Note_on_c, 13, 53, 0
16, 334560, Note_on_c, 13, 57, 76
16, 334784, Note_on_c, 13, 57, 0
16, 334800, Note_on_c, 13, 58, 84
16, 335279, Note_on_c, 13, 58, 0
16, 335280, Note_on_c, 13, 50, 76
16, 335504, Note_on_c, 13, 50, 0
16, 335520, Note_on_c, 13, 51, 76
16, 335699, Note_on_c, 13, 51, 0
16, 335760, Note_on_c, 13, 55, 76
16, 335939, Note_on_c, 13, 55, 0
16, 336000, Note_on_c, 13, 58, 76
16, 336179, Note_on_c, 13, 58, 0
16, 336240, Note_on_c, 13, 63, 76
16, 336419, Note_on_c, 13, 63, 0
16, 336480, Note_on_c, 13, 67, 76
16, 336659, Note_on_c, 13, 67, 0
16, 336720, Note_on_c, 13, 70, 84
16, 337049, Note_on_c, 13, 70, 0
16, 337080, Note_on_c, 13, 68, 76
16, 337169, Note_on_c, 13, 68, 0
16, 337200, Note_on_c, 13, 65, 76
16, 337289, Note_on_c, 13, 65, 0
16, 337320, Note_on_c, 13, 62, 76
16, 337409, Note_on_c, 13, 62, 0
16, 337440, Note_on_c, 13, 58, 76
16, 337529, Note_on_c, 13, 58, 0
16, 337560, Note_on_c, 13, 56, 76
16, 337649, Note_on_c, 13, 56, 0
16, 337680, Note_on_c, 13, 53, 76
16, 337769, Note_on_c, 13, 53, 0
16, 337800, Note_on_c, 13, 68, 76
16, 337889, Note_on_c, 13, 68, 0
16, 337920, Note_on_c, 13, 65, 76
16, 338009, Note_on_c, 13, 65, 0
16, 338040, Note_on_c, 13, 62, 76
16, 338129, Note_on_c, 13, 62, 0
16, 338160, Note_on_c, 13, 58, 76
16, 338249, Note_on_c, 13, 58, 0
16, 338280, Note_on_c, 13, 62, 76
16, 338369, Note_on_c, 13, 62, 0
16, 338400, Note_on_c, 13, 63, 84
16, 338624, Note_on_c, 13, 63, 0
16, 338640, Note_on_c, 13, 54, 84
16, 338819, Note_on_c, 13, 54, 0
16, 338880, Note_on_c, 13, 58, 84
16, 339059, Note_on_c, 13, 58, 0
16, 339120, Note_on_c, 13, 63, 84
16, 339299, Note_on_c, 13, 63, 0
16, 339360, Note_on_c, 13, 66, 84
16, 339539, Note_on_c, 13, 66, 0
16, 339600, Note_on_c, 13, 70, 84
16, 339779, Note_on_c, 13, 70, 0
16, 339840, Note_on_c, 13, 75, 84
16, 340079, Note_on_c, 13, 75, 0
16, 342720, Control_c, 13, 11, 96
16, 342840, Note_on_c, 13, 58, 68
16, 343064, Note_on_c, 13, 58, 0
16, 343080, Note_on_c, 13, 58, 68
16, 343304, Note_on_c, 13, 58, 0
16, 343320, Note_on_c, 13, 58, 68
16, 343544, Note_on_c, 13, 58, 0
16, 343560, Note_on_c, 13, 59, 68
16, 343560, Control_c, 13, 11, 96
16, 343620, Control_c, 13, 11, 95
16, 343680, Control_c, 13, 11, 93
16, 343740, Control_c, 13, 11, 92
16, 343784, Note_on_c, 13, 59, 0
16, 343800, Note_on_c, 13, 59, 68
16, 343800, Control_c, 13, 11, 91
16, 343860, Control_c, 13, 11, 89
16, 343920, Control_c, 13, 11, 88
16, 343980, Control_c, 13, 11, 87
16, 344024, Note_on_c, 13, 59, 0
16, 344040, Note_on_c, 13, 59, 68
16, 344040, Control_c, 13, 11, 85
16, 344100, Control_c, 13, 11, 84
16, 344160, Control_c, 13, 11, 83
16, 344220, Control_c, 13, 11, 81
16, 344264, Note_on_c, 13, 59, 0
16, 344280, Note_on_c, 13, 56, 68
16, 344280, Control_c, 13, 11, 80
16, 344390, Control_c, 13, 11, 84
16, 344500, Control_c, 13, 11, 88
16, 344504, Note_on_c, 13, 56, 0
16, 344520, Note_on_c, 13, 56, 68
16, 344610, Control_c, 13, 11, 92
16, 344720, Control_c, 13, 11, 96
16, 344744, Note_on_c, 13, 56, 0
16, 344760, Note_on_c, 13, 56, 68
16, 344830, Control_c, 13, 11, 100
16, 344940, Control_c, 13, 11, 104
16, 344984, Note_on_c, 13, 56, 0
16, 345000, Note_on_c, 13, 53, 68
16, 345050, Control_c, 13, 11, 107
16, 345160, Control_c, 13, 11, 111
16, 345224, Note_on_c, 13, 53, 0
16, 345240, Note_on_c, 13, 53, 68
16, 345270, Control_c, 13, 11, 115
16, 345380, Control_c, 13, 11, 119
16, 345464, Note_on_c, 13, 53, 0
16, 345480, Note_on_c, 13, 53, 68
16, 345490, Control_c, 13, 11, 127
16, 345584, Note_on_c, 13, 53, 0
16, 345600, Note_on_c, 13, 54, 52
16, 345719, Note_on_c, 13, 54, 0
16, 345720, Note_on_c, 13, 49, 52
16, 345839, Note_on_c, 13, 49, 0
16, 345840, Note_on_c, 13, 54, 52
16, 345959, Note_on_c, 13, 54, 0
16, 345960, Note_on_c, 13, 49, 52
16, 346079, Note_on_c, 13, 49, 0
16, 346080, Note_on_c, 13, 54, 52
16, 346199, Note_on_c, 13, 54, 0
16, 346200, Note_on_c, 13, 49, 52
16, 346304, Note_on_c, 13, 49, 0
16, 346320, Note_on_c, 13, 54, 52
16, 346439, Note_on_c, 13, 54, 0
16, 346440, Note_on_c, 13, 49, 52
16, 346559, Note_on_c, 13, 49, 0
16, 346560, Note_on_c, 13, 54, 52
16, 346679, Note_on_c, 13, 54, 0
16, 346680, Note_on_c, 13, 49, 52
16, 346799, Note_on_c, 13, 49, 0
16, 346800, Note_on_c, 13, 54, 52
16, 346919, Note_on_c, 13, 54, 0
16, 346920, Note_on_c, 13, 49, 52
16, 347024, Note_on_c, 13, 49, 0
16, 347040, Note_on_c, 13, 56, 52
16, 347159, Note_on_c, 13, 56, 0
16, 347160, Note_on_c, 13, 49, 52
16, 347279, Note_on_c, 13, 49, 0
16, 347280, Note_on_c, 13, 56, 52
16, 347399, Note_on_c, 13, 56, 0
16, 347400, Note_on_c, 13, 49, 52
16, 347519, Note_on_c, 13, 49, 0
16, 347520, Note_on_c, 13, 56, 52
16, 347639, Note_on_c, 13, 56, 0
16, 347640, Note_on_c, 13, 49, 52
16, 347744, Note_on_c, 13, 49, 0
16, 347760, Note_on_c, 13, 56, 52
16, 347879, Note_on_c, 13, 56, 0
16, 347880, Note_on_c, 13, 49, 52
16, 347999, Note_on_c, 13, 49, 0
16, 348000, Note_on_c, 13, 56, 52
16, 348119, Note_on_c, 13, 56, 0
16, 348120, Note_on_c, 13, 49, 52
16, 348239, Note_on_c, 13, 49, 0
16, 348240, Note_on_c, 13, 56, 52
16, 348359, Note_on_c, 13, 56, 0
16, 348360, Note_on_c, 13, 49, 52
16, 348464, Note_on_c, 13, 49, 0
16, 348480, Note_on_c, 13, 54, 52
16, 348584, Note_on_c, 13, 54, 0
16, 348600, Note_on_c, 13, 61, 52
16, 348824, Note_on_c, 13, 61, 0
16, 348840, Note_on_c, 13, 61, 52
16, 349064, Note_on_c, 13, 61, 0
16, 349080, Note_on_c, 13, 61, 52
16, 349304, Note_on_c, 13, 61, 0
16, 349320, Note_on_c, 13, 61, 52
16, 349544, Note_on_c, 13, 61, 0
16, 349560, Note_on_c, 13, 61, 52
16, 349784, Note_on_c, 13, 61, 0
16, 349800, Note_on_c, 13, 61, 52
16, 349919, Note_on_c, 13, 61, 0
16, 349920, Note_on_c, 13, 62, 52
16, 350024, Note_on_c, 13, 62, 0
16, 350040, Note_on_c, 13, 62, 52
16, 350264, Note_on_c, 13, 62, 0
16, 350280, Note_on_c, 13, 62, 52
16, 350504, Note_on_c, 13, 62, 0
16, 350520, Note_on_c, 13, 62, 52
16, 350639, Note_on_c, 13, 62, 0
16, 350640, Note_on_c, 13, 63, 52
16, 350744, Note_on_c, 13, 63, 0
16, 350760, Note_on_c, 13, 63, 52
16, 350984, Note_on_c, 13, 63, 0
16, 351000, Note_on_c, 13, 63, 52
16, 351224, Note_on_c, 13, 63, 0
16, 351240, Note_on_c, 13, 63, 52
16, 351359, Note_on_c, 13, 63, 0
16, 351360, Note_on_c, 13, 62, 52
16, 351584, Note_on_c, 13, 62, 0
16, 351600, Note_on_c, 13, 62, 52
16, 351779, Note_on_c, 13, 62, 0
16, 351840, Note_on_c, 13, 58, 52
16, 352019, Note_on_c, 13, 58, 0
16, 352080, Note_on_c, 13, 65, 52
16, 352259, Note_on_c, 13, 65, 0
16, 352320, Note_on_c, 13, 58, 52
16, 352499, Note_on_c, 13, 58, 0
16, 352560, Note_on_c, 13, 70, 52
16, 352739, Note_on_c, 13, 70, 0
16, 352800, Note_on_c, 13, 58, 52
16, 352979, Note_on_c, 13, 58, 0
16, 353040, Note_on_c, 13, 74, 52
16, 353219, Note_on_c, 13, 74, 0
16, 353280, Note_on_c, 13, 58, 52
16, 353459, Note_on_c, 13, 58, 0
16, 353520, Note_on_c, 13, 65, 68
16, 353639, Note_on_c, 13, 65, 0
16, 353640, Note_on_c, 13, 65, 52
16, 354209, Note_on_c, 13, 65, 0
16, 354240, Note_on_c, 13, 58, 52
16, 354419, Note_on_c, 13, 58, 0
16, 354480, Note_on_c, 13, 63, 52
16, 354659, Note_on_c, 13, 63, 0
16, 354720, Note_on_c, 13, 58, 52
16, 354899, Note_on_c, 13, 58, 0
16, 354960, Note_on_c, 13, 66, 52
16, 355139, Note_on_c, 13, 66, 0
16, 355200, Note_on_c, 13, 58, 52
16, 355379, Note_on_c, 13, 58, 0
16, 355440, Note_on_c, 13, 70, 52
16, 355619, Note_on_c, 13, 70, 0
16, 355680, Note_on_c, 13, 58, 52
16, 355859, Note_on_c, 13, 58, 0
16, 355920, Note_on_c, 13, 75, 52
16, 356099, Note_on_c, 13, 75, 0
16, 356160, Note_on_c, 13, 58, 52
16, 356339, Note_on_c, 13, 58, 0
16, 356400, Note_on_c, 13, 66, 68
16, 356519, Note_on_c, 13, 66, 0
16, 356520, Note_on_c, 13, 66, 52
16, 357089, Note_on_c, 13, 66, 0
16, 357120, Note_on_c, 13, 48, 52
16, 357299, Note_on_c, 13, 48, 0
16, 357360, Note_on_c, 13, 51, 52
16, 357539, Note_on_c, 13, 51, 0
16, 357600, Note_on_c, 13, 48, 52
16, 357779, Note_on_c, 13, 48, 0
16, 357840, Note_on_c, 13, 56, 52
16, 358019, Note_on_c, 13, 56, 0
16, 358080, Note_on_c, 13, 48, 52
16, 358259, Note_on_c, 13, 48, 0
16, 358320, Note_on_c, 13, 60, 52
16, 358499, Note_on_c, 13, 60, 0
16, 358560, Note_on_c, 13, 48, 52
16, 358739, Note_on_c, 13, 48, 0
16, 358800, Note_on_c, 13, 63, 52
16, 358979, Note_on_c, 13, 63, 0
16, 359040, Note_on_c, 13, 48, 52
16, 359219, Note_on_c, 13, 48, 0
16, 359280, Note_on_c, 13, 68, 68
16, 359399, Note_on_c, 13, 68, 0
16, 359400, Note_on_c, 13, 68, 52
16, 359969, Note_on_c, 13, 68, 0
16, 360000, Note_on_c, 13, 49, 52
16, 360179, Note_on_c, 13, 49, 0
16, 360240, Note_on_c, 13, 53, 52
16, 360419, Note_on_c, 13, 53, 0
16, 360480, Note_on_c, 13, 49, 52
16, 360659, Note_on_c, 13, 49, 0
16, 360720, Note_on_c, 13, 56, 52
16, 360899, Note_on_c, 13, 56, 0
16, 360960, Note_on_c, 13, 49, 52
16, 361139, Note_on_c, 13, 49, 0
16, 361200, Note_on_c, 13, 61, 52
16, 361379, Note_on_c, 13, 61, 0
16, 361440, Note_on_c, 13, 49, 52
16, 361619, Note_on_c, 13, 49, 0
16, 361680, Note_on_c, 13, 65, 52
16, 361859, Note_on_c, 13, 65, 0
16, 361920, Note_on_c, 13, 49, 52
16, 362099, Note_on_c, 13, 49, 0
16, 362160, Note_on_c, 13, 68, 68
16, 362279, Note_on_c, 13, 68, 0
16, 362280, Note_on_c, 13, 68, 52
16, 362849, Note_on_c, 13, 68, 0
16, 362865, Control_c, 13, 11, 64
16, 362880, Control_c, 13, 11, 64
16, 362880, Note_on_c, 13, 50, 84
16, 363040, Control_c, 13, 11, 66
16, 363059, Note_on_c, 13, 50, 0
16, 363120, Note_on_c, 13, 53, 84
16, 363200, Control_c, 13, 11, 68
16, 363299, Note_on_c, 13, 53, 0
16, 363360, Note_on_c, 13, 50, 84
16, 363360, Control_c, 13, 11, 69
16, 363520, Control_c, 13, 11, 71
16, 363539, Note_on_c, 13, 50, 0
16, 363600, Note_on_c, 13, 58, 84
16, 363680, Control_c, 13, 11, 73
16, 363779, Note_on_c, 13, 58, 0
16, 363840, Note_on_c, 13, 50, 84
16, 363840, Control_c, 13, 11, 75
16, 364000, Control_c, 13, 11, 76
16, 364019, Note_on_c, 13, 50, 0
16, 364080, Note_on_c, 13, 62, 84
16, 364160, Control_c, 13, 11, 78
16, 364259, Note_on_c, 13, 62, 0
16, 364320, Note_on_c, 13, 50, 84
16, 364320, Control_c, 13, 11, 80
16, 364480, Control_c, 13, 11, 82
16, 364499, Note_on_c, 13, 50, 0
16, 364560, Note_on_c, 13, 65, 84
16, 364640, Control_c, 13, 11, 83
16, 364739, Note_on_c, 13, 65, 0
16, 364800, Note_on_c, 13, 50, 84
16, 364800, Control_c, 13, 11, 85
16, 364960, Control_c, 13, 11, 87
16, 364979, Note_on_c, 13, 50, 0
16, 365040, Note_on_c, 13, 70, 100
16, 365120, Control_c, 13, 11, 89
16, 365280, Control_c, 13, 11, 90
16, 365440, Control_c, 13, 11, 92
16, 365600, Control_c, 13, 11, 94
16, 365729, Note_on_c, 13, 70, 0
16, 365760, Control_c, 13, 11, 96
16, 365760, Note_on_c, 13, 51, 84
16, 365920, Control_c, 13, 11, 97
16, 365939, Note_on_c, 13, 51, 0
16, 366000, Note_on_c, 13, 54, 84
16, 366080, Control_c, 13, 11, 99
16, 366179, Note_on_c, 13, 54, 0
16, 366240, Note_on_c, 13, 51, 84
16, 366240, Control_c, 13, 11, 101
16, 366400, Control_c, 13, 11, 103
16, 366419, Note_on_c, 13, 51, 0
16, 366480, Note_on_c, 13, 58, 84
16, 366560, Control_c, 13, 11, 104
16, 366659, Note_on_c, 13, 58, 0
16, 366720, Control_c, 13, 11, 106
16, 366720, Note_on_c, 13, 51, 84
16, 366880, Control_c, 13, 11, 108
16, 366899, Note_on_c, 13, 51, 0
16, 366960, Note_on_c, 13, 63, 84
16, 367040, Control_c, 13, 11, 110
16, 367139, Note_on_c, 13, 63, 0
16, 367200, Note_on_c, 13, 51, 84
16, 367200, Control_c, 13, 11, 111
16, 367360, Control_c, 13, 11, 113
16, 367379, Note_on_c, 13, 51, 0
16, 367440, Note_on_c, 13, 66, 84
16, 367520, Control_c, 13, 11, 115
16, 367619, Note_on_c, 13, 66, 0
16, 367680, Control_c, 13, 11, 117
16, 367680, Note_on_c, 13, 51, 84
16, 367840, Control_c, 13, 11, 118
16, 367859, Note_on_c, 13, 51, 0
16, 367920, Note_on_c, 13, 70, 92
16, 368000, Control_c, 13, 11, 120
16, 368160, Control_c, 13, 11, 122
16, 368320, Control_c, 13, 11, 124
16, 368480, Control_c, 13, 11, 127
16, 368609, Note_on_c, 13, 70, 0
16, 368640, Note_on_c, 13, 59, 84
16, 368819, Note_on_c, 13, 59, 0
16, 368880, Note_on_c, 13, 63, 84
16, 369059, Note_on_c, 13, 63, 0
16, 369120, Note_on_c, 13, 59, 84
16, 369299, Note_on_c, 13, 59, 0
16, 369360, Note_on_c, 13, 66, 84
16, 369539, Note_on_c, 13, 66, 0
16, 369600, Note_on_c, 13, 59, 84
16, 369779, Note_on_c, 13, 59, 0
16, 369840, Note_on_c, 13, 71, 84
16, 370019, Note_on_c, 13, 71, 0
16, 370080, Note_on_c, 13, 59, 84
16, 370259, Note_on_c, 13, 59, 0
16, 370320, Note_on_c, 13, 75, 84
16, 370499, Note_on_c, 13, 75, 0
16, 370560, Note_on_c, 13, 59, 84
16, 370739, Note_on_c, 13, 59, 0
16, 370800, Note_on_c, 13, 78, 84
16, 370889, Note_on_c, 13, 78, 0
16, 370920, Note_on_c, 13, 75, 84
16, 371009, Note_on_c, 13, 75, 0
16, 371040, Note_on_c, 13, 71, 84
16, 371129, Note_on_c, 13, 71, 0
16, 371160, Note_on_c, 13, 66, 84
16, 371249, Note_on_c, 13, 66, 0
16, 371280, Note_on_c, 13, 63, 84
16, 371369, Note_on_c, 13, 63, 0
16, 371400, Note_on_c, 13, 66, 84
16, 371489, Note_on_c, 13, 66, 0
16, 371520, Note_on_c, 13, 59, 84
16, 371759, Note_on_c, 13, 59, 0
16, 373680, Note_on_c, 13, 59, 76
16, 373919, Note_on_c, 13, 59, 0
16, 373920, Note_on_c, 13, 63, 76
16, 374159, Note_on_c, 13, 63, 0
16, 374160, Note_on_c, 13, 66, 76
16, 374399, Note_on_c, 13, 66, 0
16, 376560, Note_on_c, 13, 48, 52
16, 376799, Note_on_c, 13, 48, 0
16, 376800, Note_on_c, 13, 51, 52
16, 377039, Note_on_c, 13, 51, 0
16, 377040, Note_on_c, 13, 57, 52
16, 377279, Note_on_c, 13, 57, 0
16, 377640, Note_on_c, 13, 50, 51
16, 377759, Note_on_c, 13, 50, 0
16, 377760, Note_on_c, 13, 53, 51
16, 377879, Note_on_c, 13, 53, 0
16, 377880, Note_on_c, 13, 58, 51
16, 377999, Note_on_c, 13, 58, 0
16, 378360, Note_on_c, 13, 50, 49
16, 378479, Note_on_c, 13, 50, 0
16, 378480, Note_on_c, 13, 53, 49
16, 378599, Note_on_c, 13, 53, 0
16, 378600, Note_on_c, 13, 58, 49
16, 378719, Note_on_c, 13, 58, 0
16, 379080, Note_on_c, 13, 51, 47
16, 379199, Note_on_c, 13, 51, 0
16, 379200, Note_on_c, 13, 54, 47
16, 379319, Note_on_c, 13, 54, 0
16, 379320, Note_on_c, 13, 58, 47
16, 379439, Note_on_c, 13, 58, 0
16, 379800, Note_on_c, 13, 51, 45
16, 379919, Note_on_c, 13, 51, 0
16, 379920, Note_on_c, 13, 54, 45
16, 380039, Note_on_c, 13, 54, 0
16, 380040, Note_on_c, 13, 58, 45
16, 380159, Note_on_c, 13, 58, 0
16, 380400, Program_c, 13, 45
16, 380640, Note_on_c, 13, 58, 44
16, 380879, Note_on_c, 13, 58, 0
16, 381360, Note_on_c, 13, 58, 44
16, 381599, Note_on_c, 13, 58, 0
16, 382080, Note_on_c, 13, 58, 44
16, 382319, Note_on_c, 13, 58, 0
16, 382800, Note_on_c, 13, 58, 44
16, 383039, Note_on_c, 13, 58, 0
16, 384960, Note_on_c, 13, 58, 44
16, 385199, Note_on_c, 13, 58, 0
16, 385680, Note_on_c, 13, 58, 44
16, 385919, Note_on_c, 13, 58, 0
16, 387840, Note_on_c, 13, 58, 44
16, 388079, Note_on_c, 13, 58, 0
16, 388560, Note_on_c, 13, 58, 44
16, 388799, Note_on_c, 13, 58, 0
16, 392880, Program_c, 13, 48
16, 393120, Note_on_c, 13, 58, 76
16, 393171, Note_on_c, 13, 58, 0
16, 393180, Note_on_c, 13, 65, 76
16, 393231, Note_on_c, 13, 65, 0
16, 393240, Note_on_c, 13, 65, 76
16, 393291, Note_on_c, 13, 65, 0
16, 393300, Note_on_c, 13, 65, 76
16, 393351, Note_on_c, 13, 65, 0
16, 393360, Note_on_c, 13, 65, 76
16, 393411, Note_on_c, 13, 65, 0
16, 393420, Note_on_c, 13, 65, 76
16, 393471, Note_on_c, 13, 65, 0
16, 393480, Note_on_c, 13, 65, 76
16, 393531, Note_on_c, 13, 65, 0
16, 393540, Note_on_c, 13, 65, 76
16, 393591, Note_on_c, 13, 65, 0
16, 393600, Note_on_c, 13, 65, 76
16, 393651, Note_on_c, 13, 65, 0
16, 393660, Note_on_c, 13, 65, 76
16, 393711, Note_on_c, 13, 65, 0
16, 393720, Note_on_c, 13, 65, 76
16, 393771, Note_on_c, 13, 65, 0
16, 393780, Note_on_c, 13, 65, 76
16, 393831, Note_on_c, 13, 65, 0
16, 393840, Note_on_c, 13, 70, 84
16, 393891, Note_on_c, 13, 70, 0
16, 393900, Note_on_c, 13, 70, 84
16, 393951, Note_on_c, 13, 70, 0
16, 393960, Note_on_c, 13, 70, 84
16, 394011, Note_on_c, 13, 70, 0
16, 394020, Note_on_c, 13, 70, 84
16, 394071, Note_on_c, 13, 70, 0
16, 394080, Note_on_c, 13, 70, 84
16, 394131, Note_on_c, 13, 70, 0
16, 394140, Note_on_c, 13, 70, 84
16, 394191, Note_on_c, 13, 70, 0
16, 394200, Note_on_c, 13, 70, 84
16, 394251, Note_on_c, 13, 70, 0
16, 394260, Note_on_c, 13, 70, 84
16, 394311, Note_on_c, 13, 70, 0
16, 394320, Note_on_c, 13, 70, 84
16, 394371, Note_on_c, 13, 70, 0
16, 394380, Note_on_c, 13, 70, 84
16, 394431, Note_on_c, 13, 70, 0
16, 394440, Note_on_c, 13, 70, 84
16, 394491, Note_on_c, 13, 70, 0
16, 394500, Note_on_c, 13, 70, 84
16, 394551, Note_on_c, 13, 70, 0
16, 394560, Note_on_c, 13, 63, 76
16, 394664, Note_on_c, 13, 63, 0
16, 394680, Note_on_c, 13, 58, 52
16, 394784, Note_on_c, 13, 58, 0
16, 394800, Note_on_c, 13, 58, 52
16, 394904, Note_on_c, 13, 58, 0
16, 394920, Note_on_c, 13, 58, 52
16, 395024, Note_on_c, 13, 58, 0
16, 395040, Note_on_c, 13, 58, 52
16, 395144, Note_on_c, 13, 58, 0
16, 395160, Note_on_c, 13, 58, 52
16, 395264, Note_on_c, 13, 58, 0
16, 395280, Note_on_c, 13, 58, 52
16, 395384, Note_on_c, 13, 58, 0
16, 395400, Note_on_c, 13, 58, 52
16, 395504, Note_on_c, 13, 58, 0
16, 395520, Note_on_c, 13, 58, 52
16, 395624, Note_on_c, 13, 58, 0
16, 395640, Note_on_c, 13, 58, 52
16, 395744, Note_on_c, 13, 58, 0
16, 395760, Note_on_c, 13, 58, 52
16, 395864, Note_on_c, 13, 58, 0
16, 395880, Note_on_c, 13, 58, 52
16, 395984, Note_on_c, 13, 58, 0
16, 396000, Note_on_c, 13, 58, 52
16, 396104, Note_on_c, 13, 58, 0
16, 396120, Note_on_c, 13, 58, 52
16, 396224, Note_on_c, 13, 58, 0
16, 396240, Note_on_c, 13, 58, 52
16, 396344, Note_on_c, 13, 58, 0
16, 396360, Note_on_c, 13, 58, 52
16, 396464, Note_on_c, 13, 58, 0
16, 396480, Note_on_c, 13, 58, 52
16, 396584, Note_on_c, 13, 58, 0
16, 396600, Note_on_c, 13, 58, 52
16, 396704, Note_on_c, 13, 58, 0
16, 396720, Note_on_c, 13, 58, 52
16, 396824, Note_on_c, 13, 58, 0
16, 396840, Note_on_c, 13, 58, 52
16, 396944, Note_on_c, 13, 58, 0
16, 396960, Note_on_c, 13, 58, 52
16, 397064, Note_on_c, 13, 58, 0
16, 397080, Note_on_c, 13, 58, 52
16, 397184, Note_on_c, 13, 58, 0
16, 397200, Note_on_c, 13, 58, 52
16, 397304, Note_on_c, 13, 58, 0
16, 397320, Note_on_c, 13, 58, 52
16, 397409, Note_on_c, 13, 58, 0
16, 397425, Control_c, 13, 11, 96
16, 397440, Note_on_c, 13, 58, 68
16, 397440, Control_c, 13, 11, 96
16, 397500, Control_c, 13, 11, 97
16, 397544, Note_on_c, 13, 58, 0
16, 397560, Control_c, 13, 11, 99
16, 397560, Note_on_c, 13, 67, 68
16, 397620, Control_c, 13, 11, 100
16, 397680, Control_c, 13, 11, 101
16, 397740, Control_c, 13, 11, 102
16, 397784, Note_on_c, 13, 67, 0
16, 397800, Note_on_c, 13, 67, 68
16, 397800, Control_c, 13, 11, 104
16, 397860, Control_c, 13, 11, 105
16, 397920, Control_c, 13, 11, 106
16, 397980, Control_c, 13, 11, 108
16, 398024, Note_on_c, 13, 67, 0
16, 398040, Control_c, 13, 11, 109
16, 398040, Note_on_c, 13, 67, 68
16, 398100, Control_c, 13, 11, 110
16, 398160, Control_c, 13, 11, 112
16, 398220, Control_c, 13, 11, 113
16, 398264, Note_on_c, 13, 67, 0
16, 398280, Note_on_c, 13, 67, 68
16, 398280, Control_c, 13, 11, 114
16, 398340, Control_c, 13, 11, 115
16, 398400, Control_c, 13, 11, 117
16, 398460, Control_c, 13, 11, 118
16, 398504, Note_on_c, 13, 67, 0
16, 398520, Control_c, 13, 11, 119
16, 398520, Note_on_c, 13, 67, 68
16, 398580, Control_c, 13, 11, 121
16, 398640, Control_c, 13, 11, 122
16, 398700, Control_c, 13, 11, 123
16, 398744, Note_on_c, 13, 67, 0
16, 398760, Note_on_c, 13, 67, 68
16, 398760, Control_c, 13, 11, 124
16, 398820, Control_c, 13, 11, 127
16, 398879, Note_on_c, 13, 67, 0
16, 398880, Note_on_c, 13, 67, 76
16, 399000, Control_c, 13, 11, 112
16, 399050, Control_c, 13, 11, 109
16, 399100, Control_c, 13, 11, 107
16, 399150, Control_c, 13, 11, 104
16, 399200, Control_c, 13, 11, 101
16, 399250, Control_c, 13, 11, 99
16, 399300, Control_c, 13, 11, 96
16, 399350, Control_c, 13, 11, 93
16, 399400, Control_c, 13, 11, 91
16, 399450, Control_c, 13, 11, 88
16, 399500, Control_c, 13, 11, 85
16, 399550, Control_c, 13, 11, 80
16, 399599, Note_on_c, 13, 67, 0
16, 399600, Note_on_c, 13, 65, 76
16, 400559, Note_on_c, 13, 65, 0
16, 400560, Note_on_c, 13, 64, 76
16, 400799, Note_on_c, 13, 64, 0
16, 400800, Note_on_c, 13, 62, 76
16, 401009, Note_on_c, 13, 62, 0
16, 401025, Control_c, 13, 11, 96
16, 401040, Note_on_c, 13, 64, 68
16, 401069, Note_on_c, 13, 64, 0
16, 401070, Note_on_c, 13, 65, 68
16, 401099, Note_on_c, 13, 65, 0
16, 401100, Note_on_c, 13, 64, 68
16, 401129, Note_on_c, 13, 64, 0
16, 401130, Note_on_c, 13, 65, 68
16, 401159, Note_on_c, 13, 65, 0
16, 401160, Note_on_c, 13, 64, 68
16, 401189, Note_on_c, 13, 64, 0
16, 401190, Note_on_c, 13, 65, 68
16, 401219, Note_on_c, 13, 65, 0
16, 401220, Note_on_c, 13, 64, 68
16, 401249, Note_on_c, 13, 64, 0
16, 401250, Note_on_c, 13, 65, 68
16, 401279, Note_on_c, 13, 65, 0
16, 401280, Note_on_c, 13, 64, 68
16, 401309, Note_on_c, 13, 64, 0
16, 401310, Note_on_c, 13, 65, 68
16, 401339, Note_on_c, 13, 65, 0
16, 401340, Note_on_c, 13, 64, 68
16, 401369, Note_on_c, 13, 64, 0
16, 401370, Note_on_c, 13, 65, 68
16, 401399, Note_on_c, 13, 65, 0
16, 401400, Note_on_c, 13, 64, 68
16, 401429, Note_on_c, 13, 64, 0
16, 401430, Note_on_c, 13, 65, 68
16, 401459, Note_on_c, 13, 65, 0
16, 401460, Note_on_c, 13, 64, 68
16, 401489, Note_on_c, 13, 64, 0
16, 401490, Note_on_c, 13, 65, 68
16, 401519, Note_on_c, 13, 65, 0
16, 401520, Note_on_c, 13, 64, 68
16, 401549, Note_on_c, 13, 64, 0
16, 401550, Note_on_c, 13, 65, 68
16, 401579, Note_on_c, 13, 65, 0
16, 401580, Note_on_c, 13, 64, 68
16, 401609, Note_on_c, 13, 64, 0
16, 401610, Note_on_c, 13, 65, 68
16, 401639, Note_on_c, 13, 65, 0
16, 401640, Note_on_c, 13, 64, 68
16, 401669, Note_on_c, 13, 64, 0
16, 401670, Note_on_c, 13, 65, 68
16, 401699, Note_on_c, 13, 65, 0
16, 401700, Note_on_c, 13, 62, 68
16, 401729, Note_on_c, 13, 62, 0
16, 401730, Note_on_c, 13, 64, 68
16, 401749, Note_on_c, 13, 64, 0
16, 401760, Note_on_c, 13, 65, 68
16, 401864, Note_on_c, 13, 65, 0
16, 401880, Note_on_c, 13, 53, 68
16, 401984, Note_on_c, 13, 53, 0
16, 402000, Note_on_c, 13, 53, 68
16, 402104, Note_on_c, 13, 53, 0
16, 402120, Note_on_c, 13, 53, 68
16, 402224, Note_on_c, 13, 53, 0
16, 402240, Note_on_c, 13, 53, 68
16, 402344, Note_on_c, 13, 53, 0
16, 402360, Note_on_c, 13, 53, 68
16, 402464, Note_on_c, 13, 53, 0
16, 402480, Note_on_c, 13, 53, 68
16, 402584, Note_on_c, 13, 53, 0
16, 402600, Note_on_c, 13, 53, 68
16, 402704, Note_on_c, 13, 53, 0
16, 402720, Note_on_c, 13, 53, 68
16, 402824, Note_on_c, 13, 53, 0
16, 402840, Note_on_c, 13, 53, 68
16, 402944, Note_on_c, 13, 53, 0
16, 402960, Note_on_c, 13, 53, 68
16, 403064, Note_on_c, 13, 53, 0
16, 403080, Note_on_c, 13, 53, 68
16, 403184, Note_on_c, 13, 53, 0
16, 403200, Note_on_c, 13, 53, 68
16, 403304, Note_on_c, 13, 53, 0
16, 403320, Note_on_c, 13, 53, 68
16, 403424, Note_on_c, 13, 53, 0
16, 403440, Note_on_c, 13, 53, 68
16, 403544, Note_on_c, 13, 53, 0
16, 403560, Note_on_c, 13, 53, 68
16, 403664, Note_on_c, 13, 53, 0
16, 403680, Note_on_c, 13, 53, 68
16, 403784, Note_on_c, 13, 53, 0
16, 403800, Note_on_c, 13, 53, 68
16, 403904, Note_on_c, 13, 53, 0
16, 403920, Note_on_c, 13, 53, 68
16, 404024, Note_on_c, 13, 53, 0
16, 404040, Note_on_c, 13, 53, 68
16, 404144, Note_on_c, 13, 53, 0
16, 404160, Note_on_c, 13, 53, 68
16, 404264, Note_on_c, 13, 53, 0
16, 404280, Note_on_c, 13, 53, 68
16, 404384, Note_on_c, 13, 53, 0
16, 404400, Note_on_c, 13, 53, 68
16, 404504, Note_on_c, 13, 53, 0
16, 404520, Note_on_c, 13, 53, 68
16, 404624, Note_on_c, 13, 53, 0
16, 404640, Note_on_c, 13, 52, 68
16, 404640, Note_on_c, 13, 55, 68
16, 404744, Note_on_c, 13, 52, 0
16, 404744, Note_on_c, 13, 55, 0
16, 404760, Note_on_c, 13, 52, 68
16, 404760, Note_on_c, 13, 55, 68
16, 404864, Note_on_c, 13, 52, 0
16, 404864, Note_on_c, 13, 55, 0
16, 404880, Note_on_c, 13, 52, 68
16, 404880, Note_on_c, 13, 55, 68
16, 404984, Note_on_c, 13, 52, 0
16, 404984, Note_on_c, 13, 55, 0
16, 405000, Note_on_c, 13, 55, 68
16, 405000, Note_on_c, 13, 52, 68
16, 405104, Note_on_c, 13, 55, 0
16, 405104, Note_on_c, 13, 52, 0
16, 405120, Note_on_c, 13, 52, 68
16, 405120, Note_on_c, 13, 55, 68
16, 405224, Note_on_c, 13, 52, 0
16, 405224, Note_on_c, 13, 55, 0
16, 405240, Note_on_c, 13, 55, 68
16, 405240, Note_on_c, 13, 52, 68
16, 405344, Note_on_c, 13, 55, 0
16, 405344, Note_on_c, 13, 52, 0
16, 405360, Note_on_c, 13, 52, 68
16, 405360, Note_on_c, 13, 55, 68
16, 405464, Note_on_c, 13, 52, 0
16, 405464, Note_on_c, 13, 55, 0
16, 405480, Note_on_c, 13, 52, 68
16, 405480, Note_on_c, 13, 55, 68
16, 405584, Note_on_c, 13, 52, 0
16, 405584, Note_on_c, 13, 55, 0
16, 405600, Note_on_c, 13, 52, 68
16, 405600, Note_on_c, 13, 55, 68
16, 405704, Note_on_c, 13, 52, 0
16, 405704, Note_on_c, 13, 55, 0
16, 405720, Note_on_c, 13, 52, 68
16, 405720, Note_on_c, 13, 55, 68
16, 405824, Note_on_c, 13, 52, 0
16, 405824, Note_on_c, 13, 55, 0
16, 405840, Note_on_c, 13, 52, 68
16, 405840, Note_on_c, 13, 55, 68
16, 405944, Note_on_c, 13, 52, 0
16, 405944, Note_on_c, 13, 55, 0
16, 405960, Note_on_c, 13, 52, 68
16, 405960, Note_on_c, 13, 55, 68
16, 406064, Note_on_c, 13, 52, 0
16, 406064, Note_on_c, 13, 55, 0
16, 406080, Note_on_c, 13, 53, 68
16, 406080, Control_c, 13, 11, 96
16, 406140, Control_c, 13, 11, 97
16, 406184, Note_on_c, 13, 53, 0
16, 406200, Note_on_c, 13, 53, 68
16, 406200, Control_c, 13, 11, 99
16, 406260, Control_c, 13, 11, 100
16, 406304, Note_on_c, 13, 53, 0
16, 406320, Note_on_c, 13, 53, 68
16, 406320, Control_c, 13, 11, 101
16, 406380, Control_c, 13, 11, 102
16, 406424, Note_on_c, 13, 53, 0
16, 406440, Note_on_c, 13, 53, 68
16, 406440, Control_c, 13, 11, 104
16, 406500, Control_c, 13, 11, 105
16, 406544, Note_on_c, 13, 53, 0
16, 406560, Control_c, 13, 11, 106
16, 406560, Note_on_c, 13, 53, 68
16, 406620, Control_c, 13, 11, 108
16, 406664, Note_on_c, 13, 53, 0
16, 406680, Note_on_c, 13, 53, 68
16, 406680, Control_c, 13, 11, 109
16, 406740, Control_c, 13, 11, 110
16, 406784, Note_on_c, 13, 53, 0
16, 406800, Note_on_c, 13, 53, 68
16, 406800, Control_c, 13, 11, 112
16, 406860, Control_c, 13, 11, 113
16, 406904, Note_on_c, 13, 53, 0
16, 406920, Control_c, 13, 11, 114
16, 406920, Note_on_c, 13, 53, 68
16, 406980, Control_c, 13, 11, 115
16, 407024, Note_on_c, 13, 53, 0
16, 407040, Control_c, 13, 11, 117
16, 407040, Note_on_c, 13, 53, 68
16, 407100, Control_c, 13, 11, 118
16, 407144, Note_on_c, 13, 53, 0
16, 407160, Control_c, 13, 11, 119
16, 407160, Note_on_c, 13, 53, 68
16, 407220, Control_c, 13, 11, 121
16, 407264, Note_on_c, 13, 53, 0
16, 407280, Control_c, 13, 11, 122
16, 407280, Note_on_c, 13, 53, 68
16, 407340, Control_c, 13, 11, 123
16, 407384, Note_on_c, 13, 53, 0
16, 407400, Note_on_c, 13, 53, 68
16, 407400, Control_c, 13, 11, 124
16, 407460, Control_c, 13, 11, 127
16, 407504, Note_on_c, 13, 53, 0
16, 407520, Note_on_c, 13, 53, 52
16, 407624, Note_on_c, 13, 53, 0
16, 407640, Note_on_c, 13, 49, 52
16, 407640, Note_on_c, 13, 53, 52
16, 407744, Note_on_c, 13, 49, 0
16, 407744, Note_on_c, 13, 53, 0
16, 407760, Note_on_c, 13, 49, 52
16, 407760, Note_on_c, 13, 53, 52
16, 407864, Note_on_c, 13, 49, 0
16, 407864, Note_on_c, 13, 53, 0
16, 407880, Note_on_c, 13, 49, 52
16, 407880, Note_on_c, 13, 53, 52
16, 407984, Note_on_c, 13, 49, 0
16, 407984, Note_on_c, 13, 53, 0
16, 408000, Note_on_c, 13, 49, 52
16, 408000, Note_on_c, 13, 53, 52
16, 408104, Note_on_c, 13, 49, 0
16, 408104, Note_on_c, 13, 53, 0
16, 408120, Note_on_c, 13, 53, 52
16, 408120, Note_on_c, 13, 49, 52
16, 408224, Note_on_c, 13, 53, 0
16, 408224, Note_on_c, 13, 49, 0
16, 408240, Note_on_c, 13, 49, 52
16, 408240, Note_on_c, 13, 53, 52
16, 408344, Note_on_c, 13, 49, 0
16, 408344, Note_on_c, 13, 53, 0
16, 408360, Note_on_c, 13, 53, 52
16, 408360, Note_on_c, 13, 49, 52
16, 408464, Note_on_c, 13, 53, 0
16, 408464, Note_on_c, 13, 49, 0
16, 408480, Note_on_c, 13, 53, 52
16, 408480, Note_on_c, 13, 49, 52
16, 408584, Note_on_c, 13, 53, 0
16, 408584, Note_on_c, 13, 49, 0
16, 408600, Note_on_c, 13, 53, 52
16, 408600, Note_on_c, 13, 49, 52
16, 408704, Note_on_c, 13, 53, 0
16, 408704, Note_on_c, 13, 49, 0
16, 408720, Note_on_c, 13, 49, 52
16, 408720, Note_on_c, 13, 53, 52
16, 408824, Note_on_c, 13, 49, 0
16, 408824, Note_on_c, 13, 53, 0
16, 408840, Note_on_c, 13, 53, 52
16, 408840, Note_on_c, 13, 49, 52
16, 408944, Note_on_c, 13, 53, 0
16, 408944, Note_on_c, 13, 49, 0
16, 408960, Note_on_c, 13, 49, 52
16, 408960, Note_on_c, 13, 53, 52
16, 409064, Note_on_c, 13, 49, 0
16, 409064, Note_on_c, 13, 53, 0
16, 409080, Note_on_c, 13, 53, 52
16, 409080, Note_on_c, 13, 49, 52
16, 409184, Note_on_c, 13, 53, 0
16, 409184, Note_on_c, 13, 49, 0
16, 409200, Note_on_c, 13, 53, 52
16, 409200, Note_on_c, 13, 49, 52
16, 409304, Note_on_c, 13, 53, 0
16, 409304, Note_on_c, 13, 49, 0
16, 409320, Note_on_c, 13, 53, 52
16, 409320, Note_on_c, 13, 49, 52
16, 409424, Note_on_c, 13, 53, 0
16, 409424, Note_on_c, 13, 49, 0
16, 409440, Note_on_c, 13, 49, 52
16, 409440, Note_on_c, 13, 53, 52
16, 409544, Note_on_c, 13, 49, 0
16, 409544, Note_on_c, 13, 53, 0
16, 409560, Note_on_c, 13, 49, 52
16, 409560, Note_on_c, 13, 53, 52
16, 409664, Note_on_c, 13, 49, 0
16, 409664, Note_on_c, 13, 53, 0
16, 409680, Note_on_c, 13, 53, 52
16, 409680, Note_on_c, 13, 49, 52
16, 409784, Note_on_c, 13, 53, 0
16, 409784, Note_on_c, 13, 49, 0
16, 409800, Note_on_c, 13, 49, 52
16, 409800, Note_on_c, 13, 53, 52
16, 409904, Note_on_c, 13, 49, 0
16, 409904, Note_on_c, 13, 53, 0
16, 409920, Note_on_c, 13, 49, 52
16, 409920, Note_on_c, 13, 53, 52
16, 410024, Note_on_c, 13, 49, 0
16, 410024, Note_on_c, 13, 53, 0
16, 410040, Note_on_c, 13, 53, 52
16, 410040, Note_on_c, 13, 49, 52
16, 410144, Note_on_c, 13, 53, 0
16, 410144, Note_on_c, 13, 49, 0
16, 410160, Note_on_c, 13, 49, 52
16, 410160, Note_on_c, 13, 53, 52
16, 410264, Note_on_c, 13, 49, 0
16, 410264, Note_on_c, 13, 53, 0
16, 410280, Note_on_c, 13, 49, 52
16, 410280, Note_on_c, 13, 53, 52
16, 410384, Note_on_c, 13, 49, 0
16, 410384, Note_on_c, 13, 53, 0
16, 410400, Note_on_c, 13, 54, 52
16, 410400, Note_on_c, 13, 51, 52
16, 410504, Note_on_c, 13, 54, 0
16, 410504, Note_on_c, 13, 51, 0
16, 410520, Note_on_c, 13, 51, 52
16, 410520, Note_on_c, 13, 54, 52
16, 410624, Note_on_c, 13, 51, 0
16, 410624, Note_on_c, 13, 54, 0
16, 410640, Note_on_c, 13, 54, 52
16, 410640, Note_on_c, 13, 51, 52
16, 410744, Note_on_c, 13, 54, 0
16, 410744, Note_on_c, 13, 51, 0
16, 410760, Note_on_c, 13, 51, 52
16, 410760, Note_on_c, 13, 54, 52
16, 410864, Note_on_c, 13, 51, 0
16, 410864, Note_on_c, 13, 54, 0
16, 410880, Note_on_c, 13, 51, 52
16, 410880, Note_on_c, 13, 54, 52
16, 410984, Note_on_c, 13, 51, 0
16, 410984, Note_on_c, 13, 54, 0
16, 411000, Note_on_c, 13, 51, 52
16, 411000, Note_on_c, 13, 54, 52
16, 411104, Note_on_c, 13, 51, 0
16, 411104, Note_on_c, 13, 54, 0
16, 411120, Note_on_c, 13, 54, 52
16, 411120, Note_on_c, 13, 51, 52
16, 411224, Note_on_c, 13, 54, 0
16, 411224, Note_on_c, 13, 51, 0
16, 411240, Note_on_c, 13, 54, 52
16, 411240, Note_on_c, 13, 51, 52
16, 411344, Note_on_c, 13, 54, 0
16, 411344, Note_on_c, 13, 51, 0
16, 411360, Note_on_c, 13, 51, 52
16, 411360, Note_on_c, 13, 54, 52
16, 411464, Note_on_c, 13, 51, 0
16, 411464, Note_on_c, 13, 54, 0
16, 411480, Note_on_c, 13, 51, 52
16, 411480, Note_on_c, 13, 54, 52
16, 411584, Note_on_c, 13, 51, 0
16, 411584, Note_on_c, 13, 54, 0
16, 411600, Note_on_c, 13, 51, 52
16, 411600, Note_on_c, 13, 54, 52
16, 411704, Note_on_c, 13, 51, 0
16, 411704, Note_on_c, 13, 54, 0
16, 411720, Note_on_c, 13, 51, 52
16, 411720, Note_on_c, 13, 54, 52
16, 411824, Note_on_c, 13, 51, 0
16, 411824, Note_on_c, 13, 54, 0
16, 411832, Control_c, 13, 11, 96
16, 411840, Note_on_c, 13, 53, 68
16, 411840, Note_on_c, 13, 49, 68
16, 411944, Note_on_c, 13, 53, 0
16, 411944, Note_on_c, 13, 49, 0
16, 411960, Control_c, 13, 11, 96
16, 411960, Note_on_c, 13, 49, 68
16, 412010, Control_c, 13, 11, 99
16, 412060, Control_c, 13, 11, 101
16, 412110, Control_c, 13, 11, 104
16, 412160, Control_c, 13, 11, 106
16, 412184, Note_on_c, 13, 49, 0
16, 412200, Note_on_c, 13, 49, 68
16, 412210, Control_c, 13, 11, 109
16, 412260, Control_c, 13, 11, 112
16, 412310, Control_c, 13, 11, 114
16, 412360, Control_c, 13, 11, 117
16, 412410, Control_c, 13, 11, 119
16, 412424, Note_on_c, 13, 49, 0
16, 412440, Note_on_c, 13, 49, 68
16, 412460, Control_c, 13, 11, 122
16, 412510, Control_c, 13, 11, 124
16, 412559, Note_on_c, 13, 49, 0
16, 412560, Control_c, 13, 11, 127
16, 412560, Note_on_c, 13, 51, 68
16, 412620, Control_c, 13, 11, 123
16, 412664, Note_on_c, 13, 51, 0
16, 412680, Control_c, 13, 11, 119
16, 412680, Note_on_c, 13, 51, 68
16, 412740, Control_c, 13, 11, 115
16, 412800, Control_c, 13, 11, 111
16, 412860, Control_c, 13, 11, 107
16, 412904, Note_on_c, 13, 51, 0
16, 412920, Note_on_c, 13, 51, 68
16, 412920, Control_c, 13, 11, 104
16, 412980, Control_c, 13, 11, 100
16, 413040, Control_c, 13, 11, 96
16, 413100, Control_c, 13, 11, 92
16, 413144, Note_on_c, 13, 51, 0
16, 413160, Note_on_c, 13, 51, 68
16, 413160, Control_c, 13, 11, 88
16, 413220, Control_c, 13, 11, 84
16, 413249, Note_on_c, 13, 51, 0
16, 413265, Control_c, 13, 11, 64
16, 413280, Note_on_c, 13, 53, 76
16, 413519, Note_on_c, 13, 53, 0
16, 413520, Note_on_c, 13, 58, 76
16, 413759, Note_on_c, 13, 58, 0
16, 413760, Note_on_c, 13, 62, 76
16, 413999, Note_on_c, 13, 62, 0
16, 414000, Note_on_c, 13, 58, 76
16, 414479, Note_on_c, 13, 58, 0
16, 414480, Note_on_c, 13, 53, 76
16, 414704, Note_on_c, 13, 53, 0
16, 414720, Note_on_c, 13, 58, 76
16, 414720, Control_c, 13, 11, 64
16, 414809, Note_on_c, 13, 58, 0
16, 414840, Control_c, 13, 11, 67
16, 414840, Note_on_c, 13, 62, 76
16, 414929, Note_on_c, 13, 62, 0
16, 414960, Note_on_c, 13, 65, 76
16, 414960, Control_c, 13, 11, 69
16, 415049, Note_on_c, 13, 65, 0
16, 415080, Note_on_c, 13, 58, 76
16, 415080, Control_c, 13, 11, 72
16, 415169, Note_on_c, 13, 58, 0
16, 415200, Note_on_c, 13, 62, 76
16, 415200, Control_c, 13, 11, 75
16, 415289, Note_on_c, 13, 62, 0
16, 415320, Note_on_c, 13, 65, 76
16, 415320, Control_c, 13, 11, 77
16, 415409, Note_on_c, 13, 65, 0
16, 415440, Control_c, 13, 11, 80
16, 415440, Note_on_c, 13, 68, 76
16, 415529, Note_on_c, 13, 68, 0
16, 415560, Note_on_c, 13, 62, 76
16, 415560, Control_c, 13, 11, 82
16, 415649, Note_on_c, 13, 62, 0
16, 415680, Control_c, 13, 11, 85
16, 415680, Note_on_c, 13, 65, 76
16, 415769, Note_on_c, 13, 65, 0
16, 415800, Note_on_c, 13, 68, 76
16, 415800, Control_c, 13, 11, 88
16, 415889, Note_on_c, 13, 68, 0
16, 415920, Control_c, 13, 11, 90
16, 415920, Note_on_c, 13, 72, 76
16, 416009, Note_on_c, 13, 72, 0
16, 416040, Control_c, 13, 11, 93
16, 416040, Note_on_c, 13, 70, 76
16, 416129, Note_on_c, 13, 70, 0
16, 416160, Control_c, 13, 11, 96
16, 416160, Note_on_c, 13, 68, 76
16, 416249, Note_on_c, 13, 68, 0
16, 416280, Note_on_c, 13, 70, 76
16, 416280, Control_c, 13, 11, 98
16, 416369, Note_on_c, 13, 70, 0
16, 416400, Control_c, 13, 11, 101
16, 416400, Note_on_c, 13, 68, 76
16, 416489, Note_on_c, 13, 68, 0
16, 416520, Note_on_c, 13, 67, 76
16, 416520, Control_c, 13, 11, 103
16, 416609, Note_on_c, 13, 67, 0
16, 416640, Control_c, 13, 11, 106
16, 416640, Note_on_c, 13, 65, 76
16, 416729, Note_on_c, 13, 65, 0
16, 416760, Note_on_c, 13, 63, 76
16, 416760, Control_c, 13, 11, 109
16, 416849, Note_on_c, 13, 63, 0
16, 416880, Control_c, 13, 11, 111
16, 416880, Note_on_c, 13, 62, 76
16, 416969, Note_on_c, 13, 62, 0
16, 417000, Control_c, 13, 11, 114
16, 417000, Note_on_c, 13, 60, 76
16, 417089, Note_on_c, 13, 60, 0
16, 417120, Control_c, 13, 11, 117
16, 417120, Note_on_c, 13, 58, 76
16, 417209, Note_on_c, 13, 58, 0
16, 417240, Note_on_c, 13, 70, 76
16, 417240, Control_c, 13, 11, 119
16, 417329, Note_on_c, 13, 70, 0
16, 417360, Note_on_c, 13, 70, 76
16, 417360, Control_c, 13, 11, 122
16, 417449, Note_on_c, 13, 70, 0
16, 417480, Control_c, 13, 11, 127
16, 417480, Note_on_c, 13, 70, 76
16, 417569, Note_on_c, 13, 70, 0
16, 417600, Note_on_c, 13, 63, 76
16, 417651, Note_on_c, 13, 63, 0
16, 417660, Note_on_c, 13, 55, 76
16, 417660, Note_on_c, 13, 58, 76
16, 417711, Note_on_c, 13, 55, 0
16, 417711, Note_on_c, 13, 58, 0
16, 417720, Note_on_c, 13, 58, 76
16, 417720, Note_on_c, 13, 55, 76
16, 417771, Note_on_c, 13, 58, 0
16, 417771, Note_on_c, 13, 55, 0
16, 417780, Note_on_c, 13, 58, 76
16, 417780, Note_on_c, 13, 55, 76
16, 417831, Note_on_c, 13, 58, 0
16, 417831, Note_on_c, 13, 55, 0
16, 417840, Note_on_c, 13, 55, 76
16, 417840, Note_on_c, 13, 58, 76
16, 417891, Note_on_c, 13, 55, 0
16, 417891, Note_on_c, 13, 58, 0
16, 417900, Note_on_c, 13, 58, 76
16, 417900, Note_on_c, 13, 55, 76
16, 417951, Note_on_c, 13, 58, 0
16, 417951, Note_on_c, 13, 55, 0
16, 417960, Note_on_c, 13, 55, 76
16, 417960, Note_on_c, 13, 58, 76
16, 418011, Note_on_c, 13, 55, 0
16, 418011, Note_on_c, 13, 58, 0
16, 418020, Note_on_c, 13, 55, 76
16, 418020, Note_on_c, 13, 58, 76
16, 418071, Note_on_c, 13, 55, 0
16, 418071, Note_on_c, 13, 58, 0
16, 418080, Note_on_c, 13, 58, 76
16, 418080, Note_on_c, 13, 55, 76
16, 418131, Note_on_c, 13, 58, 0
16, 418131, Note_on_c, 13, 55, 0
16, 418140, Note_on_c, 13, 55, 76
16, 418140, Note_on_c, 13, 58, 76
16, 418191, Note_on_c, 13, 55, 0
16, 418191, Note_on_c, 13, 58, 0
16, 418200, Note_on_c, 13, 55, 76
16, 418200, Note_on_c, 13, 58, 76
16, 418251, Note_on_c, 13, 55, 0
16, 418251, Note_on_c, 13, 58, 0
16, 418260, Note_on_c, 13, 58, 76
16, 418260, Note_on_c, 13, 55, 76
16, 418311, Note_on_c, 13, 58, 0
16, 418311, Note_on_c, 13, 55, 0
16, 418320, Note_on_c, 13, 55, 76
16, 418320, Note_on_c, 13, 58, 76
16, 418371, Note_on_c, 13, 55, 0
16, 418371, Note_on_c, 13, 58, 0
16, 418380, Note_on_c, 13, 58, 76
16, 418380, Note_on_c, 13, 55, 76
16, 418431, Note_on_c, 13, 58, 0
16, 418431, Note_on_c, 13, 55, 0
16, 418440, Note_on_c, 13, 55, 76
16, 418440, Note_on_c, 13, 58, 76
16, 418491, Note_on_c, 13, 55, 0
16, 418491, Note_on_c, 13, 58, 0
16, 418500, Note_on_c, 13, 55, 76
16, 418500, Note_on_c, 13, 58, 76
16, 418551, Note_on_c, 13, 55, 0
16, 418551, Note_on_c, 13, 58, 0
16, 418560, Note_on_c, 13, 55, 76
16, 418560, Note_on_c, 13, 58, 76
16, 418611, Note_on_c, 13, 55, 0
16, 418611, Note_on_c, 13, 58, 0
16, 418620, Note_on_c, 13, 55, 76
16, 418620, Note_on_c, 13, 58, 76
16, 418671, Note_on_c, 13, 55, 0
16, 418671, Note_on_c, 13, 58, 0
16, 418680, Note_on_c, 13, 58, 76
16, 418680, Note_on_c, 13, 55, 76
16, 418731, Note_on_c, 13, 58, 0
16, 418731, Note_on_c, 13, 55, 0
16, 418740, Note_on_c, 13, 55, 76
16, 418740, Note_on_c, 13, 58, 76
16, 418791, Note_on_c, 13, 55, 0
16, 418791, Note_on_c, 13, 58, 0
16, 418800, Note_on_c, 13, 55, 76
16, 418800, Note_on_c, 13, 58, 76
16, 418851, Note_on_c, 13, 55, 0
16, 418851, Note_on_c, 13, 58, 0
16, 418860, Note_on_c, 13, 58, 76
16, 418860, Note_on_c, 13, 55, 76
16, 418911, Note_on_c, 13, 58, 0
16, 418911, Note_on_c, 13, 55, 0
16, 418920, Note_on_c, 13, 55, 76
16, 418920, Note_on_c, 13, 58, 76
16, 418971, Note_on_c, 13, 55, 0
16, 418971, Note_on_c, 13, 58, 0
16, 418980, Note_on_c, 13, 55, 76
16, 418980, Note_on_c, 13, 58, 76
16, 419031, Note_on_c, 13, 55, 0
16, 419031, Note_on_c, 13, 58, 0
16, 419040, Note_on_c, 13, 55, 76
16, 419040, Note_on_c, 13, 58, 76
16, 419091, Note_on_c, 13, 55, 0
16, 419091, Note_on_c, 13, 58, 0
16, 419100, Note_on_c, 13, 55, 76
16, 419100, Note_on_c, 13, 58, 76
16, 419151, Note_on_c, 13, 55, 0
16, 419151, Note_on_c, 13, 58, 0
16, 419160, Note_on_c, 13, 58, 76
16, 419160, Note_on_c, 13, 55, 76
16, 419211, Note_on_c, 13, 58, 0
16, 419211, Note_on_c, 13, 55, 0
16, 419220, Note_on_c, 13, 58, 76
16, 419220, Note_on_c, 13, 55, 76
16, 419271, Note_on_c, 13, 58, 0
16, 419271, Note_on_c, 13, 55, 0
16, 419280, Note_on_c, 13, 58, 76
16, 419280, Note_on_c, 13, 55, 76
16, 419331, Note_on_c, 13, 58, 0
16, 419331, Note_on_c, 13, 55, 0
16, 419340, Note_on_c, 13, 58, 76
16, 419340, Note_on_c, 13, 55, 76
16, 419391, Note_on_c, 13, 58, 0
16, 419391, Note_on_c, 13, 55, 0
16, 419400, Note_on_c, 13, 58, 76
16, 419400, Note_on_c, 13, 55, 76
16, 419451, Note_on_c, 13, 58, 0
16, 419451, Note_on_c, 13, 55, 0
16, 419460, Note_on_c, 13, 58, 76
16, 419460, Note_on_c, 13, 55, 76
16, 419511, Note_on_c, 13, 58, 0
16, 419511, Note_on_c, 13, 55, 0
16, 419520, Note_on_c, 13, 58, 76
16, 419520, Note_on_c, 13, 55, 76
16, 419571, Note_on_c, 13, 58, 0
16, 419571, Note_on_c, 13, 55, 0
16, 419580, Note_on_c, 13, 58, 76
16, 419580, Note_on_c, 13, 55, 76
16, 419631, Note_on_c, 13, 58, 0
16, 419631, Note_on_c, 13, 55, 0
16, 419640, Note_on_c, 13, 55, 76
16, 419640, Note_on_c, 13, 58, 76
16, 419691, Note_on_c, 13, 55, 0
16, 419691, Note_on_c, 13, 58, 0
16, 419700, Note_on_c, 13, 58, 76
16, 419700, Note_on_c, 13, 55, 76
16, 419751, Note_on_c, 13, 58, 0
16, 419751, Note_on_c, 13, 55, 0
16, 419760, Note_on_c, 13, 55, 76
16, 419760, Note_on_c, 13, 58, 76
16, 419811, Note_on_c, 13, 55, 0
16, 419811, Note_on_c, 13, 58, 0
16, 419820, Note_on_c, 13, 58, 76
16, 419820, Note_on_c, 13, 55, 76
16, 419871, Note_on_c, 13, 58, 0
16, 419871, Note_on_c, 13, 55, 0
16, 419880, Note_on_c, 13, 55, 76
16, 419880, Note_on_c, 13, 58, 76
16, 419931, Note_on_c, 13, 55, 0
16, 419931, Note_on_c, 13, 58, 0
16, 419940, Note_on_c, 13, 55, 76
16, 419940, Note_on_c, 13, 58, 76
16, 419991, Note_on_c, 13, 55, 0
16, 419991, Note_on_c, 13, 58, 0
16, 420000, Note_on_c, 13, 55, 76
16, 420000, Note_on_c, 13, 58, 76
16, 420051, Note_on_c, 13, 55, 0
16, 420051, Note_on_c, 13, 58, 0
16, 420060, Note_on_c, 13, 58, 76
16, 420060, Note_on_c, 13, 55, 76
16, 420111, Note_on_c, 13, 58, 0
16, 420111, Note_on_c, 13, 55, 0
16, 420120, Note_on_c, 13, 55, 76
16, 420120, Note_on_c, 13, 58, 76
16, 420171, Note_on_c, 13, 55, 0
16, 420171, Note_on_c, 13, 58, 0
16, 420180, Note_on_c, 13, 55, 76
16, 420180, Note_on_c, 13, 58, 76
16, 420231, Note_on_c, 13, 55, 0
16, 420231, Note_on_c, 13, 58, 0
16, 420240, Note_on_c, 13, 61, 84
16, 420240, Note_on_c, 13, 55, 84
16, 420291, Note_on_c, 13, 61, 0
16, 420291, Note_on_c, 13, 55, 0
16, 420300, Note_on_c, 13, 55, 76
16, 420300, Note_on_c, 13, 61, 76
16, 420351, Note_on_c, 13, 55, 0
16, 420351, Note_on_c, 13, 61, 0
16, 420360, Note_on_c, 13, 55, 76
16, 420360, Note_on_c, 13, 61, 76
16, 420411, Note_on_c, 13, 55, 0
16, 420411, Note_on_c, 13, 61, 0
16, 420420, Note_on_c, 13, 55, 76
16, 420420, Note_on_c, 13, 61, 76
16, 420471, Note_on_c, 13, 55, 0
16, 420471, Note_on_c, 13, 61, 0
16, 420480, Note_on_c, 13, 56, 76
16, 420480, Note_on_c, 13, 60, 76
16, 420531, Note_on_c, 13, 56, 0
16, 420531, Note_on_c, 13, 60, 0
16, 420540, Note_on_c, 13, 60, 76
16, 420540, Note_on_c, 13, 56, 76
16, 420591, Note_on_c, 13, 60, 0
16, 420591, Note_on_c, 13, 56, 0
16, 420600, Note_on_c, 13, 56, 76
16, 420600, Note_on_c, 13, 60, 76
16, 420651, Note_on_c, 13, 56, 0
16, 420651, Note_on_c, 13, 60, 0
16, 420660, Note_on_c, 13, 56, 76
16, 420660, Note_on_c, 13, 60, 76
16, 420711, Note_on_c, 13, 56, 0
16, 420711, Note_on_c, 13, 60, 0
16, 420720, Note_on_c, 13, 60, 76
16, 420720, Note_on_c, 13, 56, 76
16, 420771, Note_on_c, 13, 60, 0
16, 420771, Note_on_c, 13, 56, 0
16, 420780, Note_on_c, 13, 60, 76
16, 420780, Note_on_c, 13, 56, 76
16, 420831, Note_on_c, 13, 60, 0
16, 420831, Note_on_c, 13, 56, 0
16, 420840, Note_on_c, 13, 56, 76
16, 420840, Note_on_c, 13, 60, 76
16, 420891, Note_on_c, 13, 56, 0
16, 420891, Note_on_c, 13, 60, 0
16, 420900, Note_on_c, 13, 56, 76
16, 420900, Note_on_c, 13, 60, 76
16, 420951, Note_on_c, 13, 56, 0
16, 420951, Note_on_c, 13, 60, 0
16, 420960, Note_on_c, 13, 56, 76
16, 420960, Note_on_c, 13, 60, 76
16, 421011, Note_on_c, 13, 56, 0
16, 421011, Note_on_c, 13, 60, 0
16, 421020, Note_on_c, 13, 56, 76
16, 421020, Note_on_c, 13, 60, 76
16, 421071, Note_on_c, 13, 56, 0
16, 421071, Note_on_c, 13, 60, 0
16, 421080, Note_on_c, 13, 56, 76
16, 421080, Note_on_c, 13, 60, 76
16, 421131, Note_on_c, 13, 56, 0
16, 421131, Note_on_c, 13, 60, 0
16, 421140, Note_on_c, 13, 56, 76
16, 421140, Note_on_c, 13, 60, 76
16, 421191, Note_on_c, 13, 56, 0
16, 421191, Note_on_c, 13, 60, 0
16, 421200, Note_on_c, 13, 60, 76
16, 421200, Note_on_c, 13, 56, 76
16, 421251, Note_on_c, 13, 60, 0
16, 421251, Note_on_c, 13, 56, 0
16, 421260, Note_on_c, 13, 56, 76
16, 421260, Note_on_c, 13, 60, 76
16, 421311, Note_on_c, 13, 56, 0
16, 421311, Note_on_c, 13, 60, 0
16, 421320, Note_on_c, 13, 60, 76
16, 421320, Note_on_c, 13, 56, 76
16, 421371, Note_on_c, 13, 60, 0
16, 421371, Note_on_c, 13, 56, 0
16, 421380, Note_on_c, 13, 56, 76
16, 421380, Note_on_c, 13, 60, 76
16, 421431, Note_on_c, 13, 56, 0
16, 421431, Note_on_c, 13, 60, 0
16, 421440, Note_on_c, 13, 60, 76
16, 421440, Note_on_c, 13, 56, 76
16, 421491, Note_on_c, 13, 60, 0
16, 421491, Note_on_c, 13, 56, 0
16, 421500, Note_on_c, 13, 56, 76
16, 421500, Note_on_c, 13, 60, 76
16, 421551, Note_on_c, 13, 56, 0
16, 421551, Note_on_c, 13, 60, 0
16, 421560, Note_on_c, 13, 56, 76
16, 421560, Note_on_c, 13, 60, 76
16, 421611, Note_on_c, 13, 56, 0
16, 421611, Note_on_c, 13, 60, 0
16, 421620, Note_on_c, 13, 60, 76
16, 421620, Note_on_c, 13, 56, 76
16, 421671, Note_on_c, 13, 60, 0
16, 421671, Note_on_c, 13, 56, 0
16, 421680, Note_on_c, 13, 60, 84
16, 421680, Note_on_c, 13, 57, 84
16, 421731, Note_on_c, 13, 60, 0
16, 421731, Note_on_c, 13, 57, 0
16, 421740, Note_on_c, 13, 57, 76
16, 421740, Note_on_c, 13, 60, 76
16, 421791, Note_on_c, 13, 57, 0
16, 421791, Note_on_c, 13, 60, 0
16, 421800, Note_on_c, 13, 57, 76
16, 421800, Note_on_c, 13, 60, 76
16, 421851, Note_on_c, 13, 57, 0
16, 421851, Note_on_c, 13, 60, 0
16, 421860, Note_on_c, 13, 60, 76
16, 421860, Note_on_c, 13, 57, 76
16, 421911, Note_on_c, 13, 60, 0
16, 421911, Note_on_c, 13, 57, 0
16, 421920, Note_on_c, 13, 58, 80
16, 421920, Note_on_c, 13, 61, 80
16, 421971, Note_on_c, 13, 58, 0
16, 421971, Note_on_c, 13, 61, 0
16, 421980, Note_on_c, 13, 61, 80
16, 421980, Note_on_c, 13, 58, 80
16, 422031, Note_on_c, 13, 61, 0
16, 422031, Note_on_c, 13, 58, 0
16, 422040, Note_on_c, 13, 58, 80
16, 422040, Note_on_c, 13, 61, 80
16, 422091, Note_on_c, 13, 58, 0
16, 422091, Note_on_c, 13, 61, 0
16, 422100, Note_on_c, 13, 58, 80
16, 422100, Note_on_c, 13, 61, 80
16, 422151, Note_on_c, 13, 58, 0
16, 422151, Note_on_c, 13, 61, 0
16, 422160, Note_on_c, 13, 61, 80
16, 422160, Note_on_c, 13, 58, 80
16, 422211, Note_on_c, 13, 61, 0
16, 422211, Note_on_c, 13, 58, 0
16, 422220, Note_on_c, 13, 61, 80
16, 422220, Note_on_c, 13, 58, 80
16, 422271, Note_on_c, 13, 61, 0
16, 422271, Note_on_c, 13, 58, 0
16, 422280, Note_on_c, 13, 61, 80
16, 422280, Note_on_c, 13, 58, 80
16, 422331, Note_on_c, 13, 61, 0
16, 422331, Note_on_c, 13, 58, 0
16, 422340, Note_on_c, 13, 58, 80
16, 422340, Note_on_c, 13, 61, 80
16, 422391, Note_on_c, 13, 58, 0
16, 422391, Note_on_c, 13, 61, 0
16, 422400, Note_on_c, 13, 67, 80
16, 422400, Note_on_c, 13, 58, 80
16, 422451, Note_on_c, 13, 67, 0
16, 422451, Note_on_c, 13, 58, 0
16, 422460, Note_on_c, 13, 58, 80
16, 422460, Note_on_c, 13, 67, 80
16, 422511, Note_on_c, 13, 58, 0
16, 422511, Note_on_c, 13, 67, 0
16, 422520, Note_on_c, 13, 58, 80
16, 422520, Note_on_c, 13, 67, 80
16, 422571, Note_on_c, 13, 58, 0
16, 422571, Note_on_c, 13, 67, 0
16, 422580, Note_on_c, 13, 67, 80
16, 422580, Note_on_c, 13, 58, 80
16, 422631, Note_on_c, 13, 67, 0
16, 422631, Note_on_c, 13, 58, 0
16, 422640, Note_on_c, 13, 60, 80
16, 422640, Note_on_c, 13, 63, 80
16, 422691, Note_on_c, 13, 60, 0
16, 422691, Note_on_c, 13, 63, 0
16, 422700, Note_on_c, 13, 63, 80
16, 422700, Note_on_c, 13, 60, 80
16, 422751, Note_on_c, 13, 63, 0
16, 422751, Note_on_c, 13, 60, 0
16, 422760, Note_on_c, 13, 60, 80
16, 422760, Note_on_c, 13, 63, 80
16, 422811, Note_on_c, 13, 60, 0
16, 422811, Note_on_c, 13, 63, 0
16, 422820, Note_on_c, 13, 63, 80
16, 422820, Note_on_c, 13, 60, 80
16, 422871, Note_on_c, 13, 63, 0
16, 422871, Note_on_c, 13, 60, 0
16, 422880, Note_on_c, 13, 60, 80
16, 422880, Note_on_c, 13, 63, 80
16, 422931, Note_on_c, 13, 60, 0
16, 422931, Note_on_c, 13, 63, 0
16, 422940, Note_on_c, 13, 63, 80
16, 422940, Note_on_c, 13, 60, 80
16, 422991, Note_on_c, 13, 63, 0
16, 422991, Note_on_c, 13, 60, 0
16, 423000, Note_on_c, 13, 60, 80
16, 423000, Note_on_c, 13, 63, 80
16, 423051, Note_on_c, 13, 60, 0
16, 423051, Note_on_c, 13, 63, 0
16, 423060, Note_on_c, 13, 63, 80
16, 423060, Note_on_c, 13, 60, 80
16, 423111, Note_on_c, 13, 63, 0
16, 423111, Note_on_c, 13, 60, 0
16, 423120, Note_on_c, 13, 60, 80
16, 423120, Note_on_c, 13, 68, 80
16, 423171, Note_on_c, 13, 60, 0
16, 423171, Note_on_c, 13, 68, 0
16, 423180, Note_on_c, 13, 60, 80
16, 423180, Note_on_c, 13, 68, 80
16, 423231, Note_on_c, 13, 60, 0
16, 423231, Note_on_c, 13, 68, 0
16, 423240, Note_on_c, 13, 60, 80
16, 423240, Note_on_c, 13, 68, 80
16, 423291, Note_on_c, 13, 60, 0
16, 423291, Note_on_c, 13, 68, 0
16, 423300, Note_on_c, 13, 68, 80
16, 423300, Note_on_c, 13, 60, 80
16, 423351, Note_on_c, 13, 68, 0
16, 423351, Note_on_c, 13, 60, 0
16, 423360, Note_on_c, 13, 59, 80
16, 423360, Note_on_c, 13, 65, 80
16, 423411, Note_on_c, 13, 59, 0
16, 423411, Note_on_c, 13, 65, 0
16, 423420, Note_on_c, 13, 59, 80
16, 423420, Note_on_c, 13, 65, 80
16, 423471, Note_on_c, 13, 59, 0
16, 423471, Note_on_c, 13, 65, 0
16, 423480, Note_on_c, 13, 59, 80
16, 423480, Note_on_c, 13, 65, 80
16, 423531, Note_on_c, 13, 59, 0
16, 423531, Note_on_c, 13, 65, 0
16, 423540, Note_on_c, 13, 59, 80
16, 423540, Note_on_c, 13, 65, 80
16, 423591, Note_on_c, 13, 59, 0
16, 423591, Note_on_c, 13, 65, 0
16, 423600, Note_on_c, 13, 59, 80
16, 423600, Note_on_c, 13, 68, 80
16, 423651, Note_on_c, 13, 59, 0
16, 423651, Note_on_c, 13, 68, 0
16, 423660, Note_on_c, 13, 68, 80
16, 423660, Note_on_c, 13, 59, 80
16, 423711, Note_on_c, 13, 68, 0
16, 423711, Note_on_c, 13, 59, 0
16, 423720, Note_on_c, 13, 68, 80
16, 423720, Note_on_c, 13, 59, 80
16, 423771, Note_on_c, 13, 68, 0
16, 423771, Note_on_c, 13, 59, 0
16, 423780, Note_on_c, 13, 68, 80
16, 423780, Note_on_c, 13, 59, 80
16, 423831, Note_on_c, 13, 68, 0
16, 423831, Note_on_c, 13, 59, 0
16, 423840, Note_on_c, 13, 59, 80
16, 423840, Note_on_c, 13, 68, 80
16, 423891, Note_on_c, 13, 59, 0
16, 423891, Note_on_c, 13, 68, 0
16, 423900, Note_on_c, 13, 59, 80
16, 423900, Note_on_c, 13, 68, 80
16, 423951, Note_on_c, 13, 59, 0
16, 423951, Note_on_c, 13, 68, 0
16, 423960, Note_on_c, 13, 68, 80
16, 423960, Note_on_c, 13, 59, 80
16, 424011, Note_on_c, 13, 68, 0
16, 424011, Note_on_c, 13, 59, 0
16, 424020, Note_on_c, 13, 68, 80
16, 424020, Note_on_c, 13, 59, 80
16, 424071, Note_on_c, 13, 68, 0
16, 424071, Note_on_c, 13, 59, 0
16, 424080, Note_on_c, 13, 65, 80
16, 424080, Note_on_c, 13, 59, 80
16, 424131, Note_on_c, 13, 65, 0
16, 424131, Note_on_c, 13, 59, 0
16, 424140, Note_on_c, 13, 59, 80
16, 424140, Note_on_c, 13, 65, 80
16, 424191, Note_on_c, 13, 59, 0
16, 424191, Note_on_c, 13, 65, 0
16, 424200, Note_on_c, 13, 59, 80
16, 424200, Note_on_c, 13, 65, 80
16, 424251, Note_on_c, 13, 59, 0
16, 424251, Note_on_c, 13, 65, 0
16, 424260, Note_on_c, 13, 65, 80
16, 424260, Note_on_c, 13, 59, 80
16, 424311, Note_on_c, 13, 65, 0
16, 424311, Note_on_c, 13, 59, 0
16, 424320, Note_on_c, 13, 65, 80
16, 424320, Note_on_c, 13, 58, 80
16, 424371, Note_on_c, 13, 65, 0
16, 424371, Note_on_c, 13, 58, 0
16, 424380, Note_on_c, 13, 65, 80
16, 424380, Note_on_c, 13, 58, 80
16, 424431, Note_on_c, 13, 65, 0
16, 424431, Note_on_c, 13, 58, 0
16, 424440, Note_on_c, 13, 58, 80
16, 424440, Note_on_c, 13, 65, 80
16, 424491, Note_on_c, 13, 58, 0
16, 424491, Note_on_c, 13, 65, 0
16, 424500, Note_on_c, 13, 58, 80
16, 424500, Note_on_c, 13, 65, 80
16, 424551, Note_on_c, 13, 58, 0
16, 424551, Note_on_c, 13, 65, 0
16, 424560, Note_on_c, 13, 65, 80
16, 424560, Note_on_c, 13, 58, 80
16, 424611, Note_on_c, 13, 65, 0
16, 424611, Note_on_c, 13, 58, 0
16, 424620, Note_on_c, 13, 65, 80
16, 424620, Note_on_c, 13, 58, 80
16, 424671, Note_on_c, 13, 65, 0
16, 424671, Note_on_c, 13, 58, 0
16, 424680, Note_on_c, 13, 65, 80
16, 424680, Note_on_c, 13, 58, 80
16, 424731, Note_on_c, 13, 65, 0
16, 424731, Note_on_c, 13, 58, 0
16, 424740, Note_on_c, 13, 65, 80
16, 424740, Note_on_c, 13, 58, 80
16, 424791, Note_on_c, 13, 65, 0
16, 424791, Note_on_c, 13, 58, 0
16, 424800, Note_on_c, 13, 63, 84
16, 424800, Note_on_c, 13, 58, 84
16, 424904, Note_on_c, 13, 63, 0
16, 424904, Note_on_c, 13, 58, 0
16, 424920, Note_on_c, 13, 63, 84
16, 425024, Note_on_c, 13, 63, 0
16, 425040, Note_on_c, 13, 63, 84
16, 425144, Note_on_c, 13, 63, 0
16, 425160, Note_on_c, 13, 63, 84
16, 425264, Note_on_c, 13, 63, 0
16, 425280, Note_on_c, 13, 67, 92
16, 425384, Note_on_c, 13, 67, 0
16, 425400, Note_on_c, 13, 67, 84
16, 425504, Note_on_c, 13, 67, 0
16, 425520, Note_on_c, 13, 63, 84
16, 425624, Note_on_c, 13, 63, 0
16, 425640, Note_on_c, 13, 63, 84
16, 425744, Note_on_c, 13, 63, 0
16, 425760, Note_on_c, 13, 63, 84
16, 425864, Note_on_c, 13, 63, 0
16, 425880, Note_on_c, 13, 63, 84
16, 425984, Note_on_c, 13, 63, 0
16, 426000, Note_on_c, 13, 58, 92
16, 426104, Note_on_c, 13, 58, 0
16, 426120, Note_on_c, 13, 58, 84
16, 426224, Note_on_c, 13, 58, 0
16, 426240, Note_on_c, 13, 63, 84
16, 426344, Note_on_c, 13, 63, 0
16, 426360, Note_on_c, 13, 63, 84
16, 426464, Note_on_c, 13, 63, 0
16, 426480, Note_on_c, 13, 67, 84
16, 426584, Note_on_c, 13, 67, 0
16, 426600, Note_on_c, 13, 67, 84
16, 426704, Note_on_c, 13, 67, 0
16, 426720, Note_on_c, 13, 70, 84
16, 426824, Note_on_c, 13, 70, 0
16, 426840, Note_on_c, 13, 70, 84
16, 426944, Note_on_c, 13, 70, 0
16, 426960, Note_on_c, 13, 63, 84
16, 427064, Note_on_c, 13, 63, 0
16, 427080, Note_on_c, 13, 63, 84
16, 427184, Note_on_c, 13, 63, 0
16, 427200, Note_on_c, 13, 63, 84
16, 427304, Note_on_c, 13, 63, 0
16, 427320, Note_on_c, 13, 63, 84
16, 427424, Note_on_c, 13, 63, 0
16, 427440, Note_on_c, 13, 55, 92
16, 427544, Note_on_c, 13, 55, 0
16, 427560, Note_on_c, 13, 55, 84
16, 427664, Note_on_c, 13, 55, 0
16, 427680, Note_on_c, 13, 60, 84
16, 427784, Note_on_c, 13, 60, 0
16, 427800, Note_on_c, 13, 60, 84
16, 427904, Note_on_c, 13, 60, 0
16, 427920, Note_on_c, 13, 63, 84
16, 428024, Note_on_c, 13, 63, 0
16, 428040, Note_on_c, 13, 63, 84
16, 428144, Note_on_c, 13, 63, 0
16, 428160, Note_on_c, 13, 67, 84
16, 428264, Note_on_c, 13, 67, 0
16, 428280, Note_on_c, 13, 67, 84
16, 428384, Note_on_c, 13, 67, 0
16, 428400, Note_on_c, 13, 60, 84
16, 428504, Note_on_c, 13, 60, 0
16, 428520, Note_on_c, 13, 60, 84
16, 428624, Note_on_c, 13, 60, 0
16, 428640, Note_on_c, 13, 60, 84
16, 428744, Note_on_c, 13, 60, 0
16, 428760, Note_on_c, 13, 60, 84
16, 428864, Note_on_c, 13, 60, 0
16, 428880, Note_on_c, 13, 60, 92
16, 428984, Note_on_c, 13, 60, 0
16, 429000, Note_on_c, 13, 60, 84
16, 429104, Note_on_c, 13, 60, 0
16, 429120, Note_on_c, 13, 60, 84
16, 429224, Note_on_c, 13, 60, 0
16, 429240, Note_on_c, 13, 72, 84
16, 429344, Note_on_c, 13, 72, 0
16, 429360, Note_on_c, 13, 72, 84
16, 429464, Note_on_c, 13, 72, 0
16, 429480, Note_on_c, 13, 72, 84
16, 429584, Note_on_c, 13, 72, 0
16, 429600, Note_on_c, 13, 72, 84
16, 429704, Note_on_c, 13, 72, 0
16, 429720, Note_on_c, 13, 72, 84
16, 429824, Note_on_c, 13, 72, 0
16, 429840, Note_on_c, 13, 72, 84
16, 429944, Note_on_c, 13, 72, 0
16, 429960, Note_on_c, 13, 60, 84
16, 430064, Note_on_c, 13, 60, 0
16, 430080, Note_on_c, 13, 60, 84
16, 430184, Note_on_c, 13, 60, 0
16, 430200, Note_on_c, 13, 60, 84
16, 430304, Note_on_c, 13, 60, 0
16, 430320, Note_on_c, 13, 60, 84
16, 430424, Note_on_c, 13, 60, 0
16, 430440, Note_on_c, 13, 60, 84
16, 430544, Note_on_c, 13, 60, 0
16, 430560, Note_on_c, 13, 53, 84
16, 430649, Note_on_c, 13, 53, 0
16, 430680, Note_on_c, 13, 58, 52
16, 430799, Note_on_c, 13, 58, 0
16, 430800, Note_on_c, 13, 62, 52
16, 430919, Note_on_c, 13, 62, 0
16, 430920, Note_on_c, 13, 58, 52
16, 431039, Note_on_c, 13, 58, 0
16, 431040, Note_on_c, 13, 62, 52
16, 431159, Note_on_c, 13, 62, 0
16, 431160, Note_on_c, 13, 58, 52
16, 431264, Note_on_c, 13, 58, 0
16, 431280, Note_on_c, 13, 62, 52
16, 431399, Note_on_c, 13, 62, 0
16, 431400, Note_on_c, 13, 58, 52
16, 431519, Note_on_c, 13, 58, 0
16, 431520, Note_on_c, 13, 62, 52
16, 431639, Note_on_c, 13, 62, 0
16, 431640, Note_on_c, 13, 58, 52
16, 431759, Note_on_c, 13, 58, 0
16, 431760, Note_on_c, 13, 62, 52
16, 431879, Note_on_c, 13, 62, 0
16, 431880, Note_on_c, 13, 58, 52
16, 431984, Note_on_c, 13, 58, 0
16, 432000, Note_on_c, 13, 62, 52
16, 432119, Note_on_c, 13, 62, 0
16, 432120, Note_on_c, 13, 58, 52
16, 432239, Note_on_c, 13, 58, 0
16, 432240, Note_on_c, 13, 62, 52
16, 432359, Note_on_c, 13, 62, 0
16, 432360, Note_on_c, 13, 58, 52
16, 432479, Note_on_c, 13, 58, 0
16, 432480, Note_on_c, 13, 62, 52
16, 432599, Note_on_c, 13, 62, 0
16, 432600, Note_on_c, 13, 58, 52
16, 432704, Note_on_c, 13, 58, 0
16, 432720, Note_on_c, 13, 62, 52
16, 432839, Note_on_c, 13, 62, 0
16, 432840, Note_on_c, 13, 58, 52
16, 432959, Note_on_c, 13, 58, 0
16, 432960, Note_on_c, 13, 65, 52
16, 433079, Note_on_c, 13, 65, 0
16, 433080, Note_on_c, 13, 58, 52
16, 433199, Note_on_c, 13, 58, 0
16, 433200, Note_on_c, 13, 62, 52
16, 433319, Note_on_c, 13, 62, 0
16, 433320, Note_on_c, 13, 58, 52
16, 433424, Note_on_c, 13, 58, 0
16, 433440, Note_on_c, 13, 63, 52
16, 433559, Note_on_c, 13, 63, 0
16, 433560, Note_on_c, 13, 58, 52
16, 433679, Note_on_c, 13, 58, 0
16, 433680, Note_on_c, 13, 63, 52
16, 433799, Note_on_c, 13, 63, 0
16, 433800, Note_on_c, 13, 58, 52
16, 433919, Note_on_c, 13, 58, 0
16, 433920, Note_on_c, 13, 63, 52
16, 434039, Note_on_c, 13, 63, 0
16, 434040, Note_on_c, 13, 58, 52
16, 434144, Note_on_c, 13, 58, 0
16, 434160, Note_on_c, 13, 63, 52
16, 434279, Note_on_c, 13, 63, 0
16, 434280, Note_on_c, 13, 58, 52
16, 434399, Note_on_c, 13, 58, 0
16, 434400, Note_on_c, 13, 63, 52
16, 434519, Note_on_c, 13, 63, 0
16, 434520, Note_on_c, 13, 58, 52
16, 434639, Note_on_c, 13, 58, 0
16, 434640, Note_on_c, 13, 63, 52
16, 434759, Note_on_c, 13, 63, 0
16, 434760, Note_on_c, 13, 58, 52
16, 434864, Note_on_c, 13, 58, 0
16, 434880, Note_on_c, 13, 63, 52
16, 434999, Note_on_c, 13, 63, 0
16, 435000, Note_on_c, 13, 58, 52
16, 435119, Note_on_c, 13, 58, 0
16, 435120, Note_on_c, 13, 63, 52
16, 435239, Note_on_c, 13, 63, 0
16, 435240, Note_on_c, 13, 58, 52
16, 435359, Note_on_c, 13, 58, 0
16, 435360, Note_on_c, 13, 63, 52
16, 435479, Note_on_c, 13, 63, 0
16, 435480, Note_on_c, 13, 58, 52
16, 435584, Note_on_c, 13, 58, 0
16, 435600, Note_on_c, 13, 63, 52
16, 435719, Note_on_c, 13, 63, 0
16, 435720, Note_on_c, 13, 58, 52
16, 435839, Note_on_c, 13, 58, 0
16, 435840, Note_on_c, 13, 63, 52
16, 435959, Note_on_c, 13, 63, 0
16, 435960, Note_on_c, 13, 58, 52
16, 436079, Note_on_c, 13, 58, 0
16, 436080, Note_on_c, 13, 63, 52
16, 436199, Note_on_c, 13, 63, 0
16, 436200, Note_on_c, 13, 58, 52
16, 436304, Note_on_c, 13, 58, 0
16, 436320, Note_on_c, 13, 62, 52
16, 436559, Note_on_c, 13, 62, 0
16, 438000, Note_on_c, 13, 72, 84
16, 438344, Note_on_c, 13, 72, 0
16, 438360, Note_on_c, 13, 70, 84
16, 438449, Note_on_c, 13, 70, 0
16, 438480, Note_on_c, 13, 68, 84
16, 438659, Note_on_c, 13, 68, 0
16, 438720, Note_on_c, 13, 67, 84
16, 438899, Note_on_c, 13, 67, 0
16, 438960, Note_on_c, 13, 65, 84
16, 439139, Note_on_c, 13, 65, 0
16, 439185, Control_c, 13, 11, 96
16, 439200, Note_on_c, 13, 63, 68
16, 439200, Control_c, 13, 11, 96
16, 439260, Control_c, 13, 11, 99
16, 439320, Control_c, 13, 11, 101
16, 439380, Control_c, 13, 11, 104
16, 439440, Control_c, 13, 11, 106
16, 439500, Control_c, 13, 11, 109
16, 439560, Control_c, 13, 11, 112
16, 439620, Control_c, 13, 11, 114
16, 439679, Note_on_c, 13, 63, 0
16, 439680, Note_on_c, 13, 62, 68
16, 439680, Control_c, 13, 11, 117
16, 439740, Control_c, 13, 11, 119
16, 439799, Note_on_c, 13, 62, 0
16, 439800, Note_on_c, 13, 61, 68
16, 439800, Control_c, 13, 11, 122
16, 439860, Control_c, 13, 11, 124
16, 439919, Note_on_c, 13, 61, 0
16, 439920, Note_on_c, 13, 60, 68
16, 439920, Control_c, 13, 11, 127
16, 439980, Control_c, 13, 11, 124
16, 440040, Control_c, 13, 11, 122
16, 440100, Control_c, 13, 11, 119
16, 440159, Note_on_c, 13, 60, 0
16, 440160, Note_on_c, 13, 58, 68
16, 440160, Control_c, 13, 11, 117
16, 440220, Control_c, 13, 11, 114
16, 440280, Control_c, 13, 11, 112
16, 440340, Control_c, 13, 11, 109
16, 440399, Note_on_c, 13, 58, 0
16, 440400, Control_c, 13, 11, 106
16, 440400, Note_on_c, 13, 56, 68
16, 440460, Control_c, 13, 11, 104
16, 440520, Control_c, 13, 11, 101
16, 440580, Control_c, 13, 11, 96
16, 440624, Note_on_c, 13, 56, 0
16, 440640, Note_on_c, 13, 55, 68
16, 440729, Note_on_c, 13, 55, 0
16, 440760, Note_on_c, 13, 58, 68
16, 440849, Note_on_c, 13, 58, 0
16, 440880, Note_on_c, 13, 56, 68
16, 440969, Note_on_c, 13, 56, 0
16, 441000, Note_on_c, 13, 55, 68
16, 441089, Note_on_c, 13, 55, 0
16, 441120, Note_on_c, 13, 53, 68
16, 441209, Note_on_c, 13, 53, 0
16, 441240, Note_on_c, 13, 51, 68
16, 441329, Note_on_c, 13, 51, 0
16, 441360, Note_on_c, 13, 50, 68
16, 441449, Note_on_c, 13, 50, 0
16, 441480, Note_on_c, 13, 58, 68
16, 441569, Note_on_c, 13, 58, 0
16, 441600, Note_on_c, 13, 58, 68
16, 441689, Note_on_c, 13, 58, 0
16, 441720, Note_on_c, 13, 58, 68
16, 441809, Note_on_c, 13, 58, 0
16, 441840, Note_on_c, 13, 58, 68
16, 441929, Note_on_c, 13, 58, 0
16, 441960, Note_on_c, 13, 58, 68
16, 442049, Note_on_c, 13, 58, 0
16, 442065, Control_c, 13, 11, 80
16, 442080, Note_on_c, 13, 58, 76
16, 442169, Note_on_c, 13, 58, 0
16, 442200, Note_on_c, 13, 63, 76
16, 442289, Note_on_c, 13, 63, 0
16, 442320, Note_on_c, 13, 63, 76
16, 442320, Control_c, 13, 11, 80
16, 442409, Note_on_c, 13, 63, 0
16, 442430, Control_c, 13, 11, 82
16, 442440, Note_on_c, 13, 63, 76
16, 442540, Control_c, 13, 11, 84
16, 442559, Note_on_c, 13, 63, 0
16, 442560, Note_on_c, 13, 62, 76
16, 442650, Control_c, 13, 11, 86
16, 442679, Note_on_c, 13, 62, 0
16, 442680, Note_on_c, 13, 61, 76
16, 442760, Control_c, 13, 11, 88
16, 442784, Note_on_c, 13, 61, 0
16, 442800, Note_on_c, 13, 60, 76
16, 442870, Control_c, 13, 11, 90
16, 442919, Note_on_c, 13, 60, 0
16, 442920, Note_on_c, 13, 58, 76
16, 442980, Control_c, 13, 11, 92
16, 443024, Note_on_c, 13, 58, 0
16, 443040, Note_on_c, 13, 56, 76
16, 443090, Control_c, 13, 11, 94
16, 443129, Note_on_c, 13, 56, 0
16, 443160, Note_on_c, 13, 60, 76
16, 443200, Control_c, 13, 11, 96
16, 443249, Note_on_c, 13, 60, 0
16, 443280, Note_on_c, 13, 58, 76
16, 443310, Control_c, 13, 11, 98
16, 443369, Note_on_c, 13, 58, 0
16, 443400, Note_on_c, 13, 56, 76
16, 443420, Control_c, 13, 11, 100
16, 443489, Note_on_c, 13, 56, 0
16, 443520, Note_on_c, 13, 55, 76
16, 443530, Control_c, 13, 11, 102
16, 443609, Note_on_c, 13, 55, 0
16, 443640, Control_c, 13, 11, 104
16, 443640, Note_on_c, 13, 70, 76
16, 443729, Note_on_c, 13, 70, 0
16, 443750, Control_c, 13, 11, 105
16, 443760, Note_on_c, 13, 70, 76
16, 443849, Note_on_c, 13, 70, 0
16, 443860, Control_c, 13, 11, 107
16, 443880, Note_on_c, 13, 70, 76
16, 443969, Note_on_c, 13, 70, 0
16, 443970, Control_c, 13, 11, 109
16, 444000, Note_on_c, 13, 68, 76
16, 444080, Control_c, 13, 11, 111
16, 444089, Note_on_c, 13, 68, 0
16, 444120, Note_on_c, 13, 67, 76
16, 444190, Control_c, 13, 11, 113
16, 444209, Note_on_c, 13, 67, 0
16, 444240, Note_on_c, 13, 65, 76
16, 444300, Control_c, 13, 11, 115
16, 444329, Note_on_c, 13, 65, 0
16, 444360, Note_on_c, 13, 63, 76
16, 444410, Control_c, 13, 11, 117
16, 444449, Note_on_c, 13, 63, 0
16, 444480, Note_on_c, 13, 62, 76
16, 444520, Control_c, 13, 11, 119
16, 444569, Note_on_c, 13, 62, 0
16, 444600, Note_on_c, 13, 63, 76
16, 444630, Control_c, 13, 11, 121
16, 444689, Note_on_c, 13, 63, 0
16, 444720, Note_on_c, 13, 65, 76
16, 444740, Control_c, 13, 11, 123
16, 444809, Note_on_c, 13, 65, 0
16, 444840, Note_on_c, 13, 65, 76
16, 444850, Control_c, 13, 11, 127
16, 444929, Note_on_c, 13, 65, 0
16, 444960, Note_on_c, 13, 65, 76
16, 445139, Note_on_c, 13, 65, 0
16, 445200, Note_on_c, 13, 62, 76
16, 445379, Note_on_c, 13, 62, 0
16, 446280, Note_on_c, 13, 59, 76
16, 446369, Note_on_c, 13, 59, 0
16, 446400, Note_on_c, 13, 60, 76
16, 446579, Note_on_c, 13, 60, 0
16, 446640, Note_on_c, 13, 72, 76
16, 446819, Note_on_c, 13, 72, 0
16, 447720, Note_on_c, 13, 60, 76
16, 447824, Note_on_c, 13, 60, 0
16, 447840, Note_on_c, 13, 58, 76
16, 448019, Note_on_c, 13, 58, 0
16, 448080, Note_on_c, 13, 67, 76
16, 448259, Note_on_c, 13, 67, 0
16, 449160, Note_on_c, 13, 52, 76
16, 449249, Note_on_c, 13, 52, 0
16, 449280, Note_on_c, 13, 53, 76
16, 449369, Note_on_c, 13, 53, 0
16, 449400, Note_on_c, 13, 53, 76
16, 449624, Note_on_c, 13, 53, 0
16, 449640, Note_on_c, 13, 53, 76
16, 449729, Note_on_c, 13, 53, 0
16, 449760, Note_on_c, 13, 53, 76
16, 449849, Note_on_c, 13, 53, 0
16, 449880, Note_on_c, 13, 55, 76
16, 449969, Note_on_c, 13, 55, 0
16, 450000, Note_on_c, 13, 55, 76
16, 450089, Note_on_c, 13, 55, 0
16, 450120, Note_on_c, 13, 60, 76
16, 450344, Note_on_c, 13, 60, 0
16, 450360, Note_on_c, 13, 60, 76
16, 450449, Note_on_c, 13, 60, 0
16, 450480, Note_on_c, 13, 58, 76
16, 450569, Note_on_c, 13, 58, 0
16, 450600, Note_on_c, 13, 58, 76
16, 450689, Note_on_c, 13, 58, 0
16, 450720, Note_on_c, 13, 63, 76
16, 450824, Note_on_c, 13, 63, 0
16, 450840, Note_on_c, 13, 63, 76
16, 450944, Note_on_c, 13, 63, 0
16, 450960, Note_on_c, 13, 70, 76
16, 451064, Note_on_c, 13, 70, 0
16, 451080, Note_on_c, 13, 70, 76
16, 451184, Note_on_c, 13, 70, 0
16, 451200, Note_on_c, 13, 68, 76
16, 451304, Note_on_c, 13, 68, 0
16, 451320, Note_on_c, 13, 68, 76
16, 451424, Note_on_c, 13, 68, 0
16, 451440, Note_on_c, 13, 66, 76
16, 451544, Note_on_c, 13, 66, 0
16, 451560, Note_on_c, 13, 66, 76
16, 451664, Note_on_c, 13, 66, 0
16, 451680, Note_on_c, 13, 67, 76
16, 451784, Note_on_c, 13, 67, 0
16, 451800, Note_on_c, 13, 67, 76
16, 451904, Note_on_c, 13, 67, 0
16, 451920, Note_on_c, 13, 63, 76
16, 452024, Note_on_c, 13, 63, 0
16, 452040, Note_on_c, 13, 63, 76
16, 452144, Note_on_c, 13, 63, 0
16, 452160, Note_on_c, 13, 63, 76
16, 452211, Note_on_c, 13, 63, 0
16, 452220, Note_on_c, 13, 51, 76
16, 452271, Note_on_c, 13, 51, 0
16, 452280, Note_on_c, 13, 51, 76
16, 452331, Note_on_c, 13, 51, 0
16, 452340, Note_on_c, 13, 51, 76
16, 452391, Note_on_c, 13, 51, 0
16, 452400, Note_on_c, 13, 51, 76
16, 452451, Note_on_c, 13, 51, 0
16, 452460, Note_on_c, 13, 51, 76
16, 452511, Note_on_c, 13, 51, 0
16, 452520, Note_on_c, 13, 51, 76
16, 452571, Note_on_c, 13, 51, 0
16, 452580, Note_on_c, 13, 51, 76
16, 452631, Note_on_c, 13, 51, 0
16, 452640, Note_on_c, 13, 52, 76
16, 452691, Note_on_c, 13, 52, 0
16, 452700, Note_on_c, 13, 52, 76
16, 452751, Note_on_c, 13, 52, 0
16, 452760, Note_on_c, 13, 52, 76
16, 452811, Note_on_c, 13, 52, 0
16, 452820, Note_on_c, 13, 52, 76
16, 452871, Note_on_c, 13, 52, 0
16, 452880, Note_on_c, 13, 53, 76
16, 452931, Note_on_c, 13, 53, 0
16, 452940, Note_on_c, 13, 53, 76
16, 452991, Note_on_c, 13, 53, 0
16, 453000, Note_on_c, 13, 52, 76
16, 453051, Note_on_c, 13, 52, 0
16, 453060, Note_on_c, 13, 52, 76
16, 453111, Note_on_c, 13, 52, 0
16, 453120, Note_on_c, 13, 55, 76
16, 453171, Note_on_c, 13, 55, 0
16, 453180, Note_on_c, 13, 55, 76
16, 453231, Note_on_c, 13, 55, 0
16, 453240, Note_on_c, 13, 53, 76
16, 453291, Note_on_c, 13, 53, 0
16, 453300, Note_on_c, 13, 53, 76
16, 453351, Note_on_c, 13, 53, 0
16, 453360, Note_on_c, 13, 58, 76
16, 453411, Note_on_c, 13, 58, 0
16, 453420, Note_on_c, 13, 58, 76
16, 453471, Note_on_c, 13, 58, 0
16, 453480, Note_on_c, 13, 56, 76
16, 453531, Note_on_c, 13, 56, 0
16, 453540, Note_on_c, 13, 56, 76
16, 453591, Note_on_c, 13, 56, 0
16, 453600, Note_on_c, 13, 55, 76
16, 453600, Note_on_c, 13, 51, 76
16, 453651, Note_on_c, 13, 55, 0
16, 453651, Note_on_c, 13, 51, 0
16, 453660, Note_on_c, 13, 51, 76
16, 453660, Note_on_c, 13, 55, 76
16, 453711, Note_on_c, 13, 51, 0
16, 453711, Note_on_c, 13, 55, 0
16, 453720, Note_on_c, 13, 55, 76
16, 453720, Note_on_c, 13, 51, 76
16, 453771, Note_on_c, 13, 55, 0
16, 453771, Note_on_c, 13, 51, 0
16, 453780, Note_on_c, 13, 51, 76
16, 453780, Note_on_c, 13, 55, 76
16, 453831, Note_on_c, 13, 51, 0
16, 453831, Note_on_c, 13, 55, 0
16, 453840, Note_on_c, 13, 55, 76
16, 453840, Note_on_c, 13, 51, 76
16, 453891, Note_on_c, 13, 55, 0
16, 453891, Note_on_c, 13, 51, 0
16, 453900, Note_on_c, 13, 55, 76
16, 453900, Note_on_c, 13, 51, 76
16, 453951, Note_on_c, 13, 55, 0
16, 453951, Note_on_c, 13, 51, 0
16, 453960, Note_on_c, 13, 51, 76
16, 453960, Note_on_c, 13, 55, 76
16, 454011, Note_on_c, 13, 51, 0
16, 454011, Note_on_c, 13, 55, 0
16, 454020, Note_on_c, 13, 51, 76
16, 454020, Note_on_c, 13, 55, 76
16, 454071, Note_on_c, 13, 51, 0
16, 454071, Note_on_c, 13, 55, 0
16, 454080, Note_on_c, 13, 51, 76
16, 454080, Note_on_c, 13, 55, 76
16, 454131, Note_on_c, 13, 51, 0
16, 454131, Note_on_c, 13, 55, 0
16, 454140, Note_on_c, 13, 51, 76
16, 454140, Note_on_c, 13, 55, 76
16, 454191, Note_on_c, 13, 51, 0
16, 454191, Note_on_c, 13, 55, 0
16, 454200, Note_on_c, 13, 55, 76
16, 454200, Note_on_c, 13, 51, 76
16, 454251, Note_on_c, 13, 55, 0
16, 454251, Note_on_c, 13, 51, 0
16, 454260, Note_on_c, 13, 55, 76
16, 454260, Note_on_c, 13, 51, 76
16, 454311, Note_on_c, 13, 55, 0
16, 454311, Note_on_c, 13, 51, 0
16, 454320, Note_on_c, 13, 55, 76
16, 454320, Note_on_c, 13, 51, 76
16, 454371, Note_on_c, 13, 55, 0
16, 454371, Note_on_c, 13, 51, 0
16, 454380, Note_on_c, 13, 51, 76
16, 454380, Note_on_c, 13, 55, 76
16, 454431, Note_on_c, 13, 51, 0
16, 454431, Note_on_c, 13, 55, 0
16, 454440, Note_on_c, 13, 51, 76
16, 454440, Note_on_c, 13, 55, 76
16, 454491, Note_on_c, 13, 51, 0
16, 454491, Note_on_c, 13, 55, 0
16, 454500, Note_on_c, 13, 51, 76
16, 454500, Note_on_c, 13, 55, 76
16, 454551, Note_on_c, 13, 51, 0
16, 454551, Note_on_c, 13, 55, 0
16, 454560, Note_on_c, 13, 55, 76
16, 454560, Note_on_c, 13, 51, 76
16, 454611, Note_on_c, 13, 55, 0
16, 454611, Note_on_c, 13, 51, 0
16, 454620, Note_on_c, 13, 55, 76
16, 454620, Note_on_c, 13, 51, 76
16, 454671, Note_on_c, 13, 55, 0
16, 454671, Note_on_c, 13, 51, 0
16, 454680, Note_on_c, 13, 55, 76
16, 454680, Note_on_c, 13, 51, 76
16, 454731, Note_on_c, 13, 55, 0
16, 454731, Note_on_c, 13, 51, 0
16, 454740, Note_on_c, 13, 51, 76
16, 454740, Note_on_c, 13, 55, 76
16, 454791, Note_on_c, 13, 51, 0
16, 454791, Note_on_c, 13, 55, 0
16, 454800, Note_on_c, 13, 51, 76
16, 454800, Note_on_c, 13, 55, 76
16, 454851, Note_on_c, 13, 51, 0
16, 454851, Note_on_c, 13, 55, 0
16, 454860, Note_on_c, 13, 55, 76
16, 454860, Note_on_c, 13, 51, 76
16, 454911, Note_on_c, 13, 55, 0
16, 454911, Note_on_c, 13, 51, 0
16, 454920, Note_on_c, 13, 55, 76
16, 454920, Note_on_c, 13, 51, 76
16, 454971, Note_on_c, 13, 55, 0
16, 454971, Note_on_c, 13, 51, 0
16, 454980, Note_on_c, 13, 55, 76
16, 454980, Note_on_c, 13, 51, 76
16, 455031, Note_on_c, 13, 55, 0
16, 455031, Note_on_c, 13, 51, 0
16, 455040, Note_on_c, 13, 56, 76
16, 455040, Note_on_c, 13, 50, 76
16, 455279, Note_on_c, 13, 56, 0
16, 455279, Note_on_c, 13, 50, 0
16, 455760, Note_on_c, 13, 62, 80
16, 455811, Note_on_c, 13, 62, 0
16, 455820, Note_on_c, 13, 62, 80
16, 455871, Note_on_c, 13, 62, 0
16, 455880, Note_on_c, 13, 63, 80
16, 455931, Note_on_c, 13, 63, 0
16, 455940, Note_on_c, 13, 63, 81
16, 455991, Note_on_c, 13, 63, 0
16, 456000, Note_on_c, 13, 65, 81
16, 456051, Note_on_c, 13, 65, 0
16, 456060, Note_on_c, 13, 65, 81
16, 456111, Note_on_c, 13, 65, 0
16, 456120, Note_on_c, 13, 63, 82
16, 456171, Note_on_c, 13, 63, 0
16, 456180, Note_on_c, 13, 63, 82
16, 456231, Note_on_c, 13, 63, 0
16, 456240, Note_on_c, 13, 62, 82
16, 456291, Note_on_c, 13, 62, 0
16, 456300, Note_on_c, 13, 62, 83
16, 456351, Note_on_c, 13, 62, 0
16, 456360, Note_on_c, 13, 60, 83
16, 456411, Note_on_c, 13, 60, 0
16, 456420, Note_on_c, 13, 60, 83
16, 456471, Note_on_c, 13, 60, 0
16, 456480, Note_on_c, 13, 58, 84
16, 456531, Note_on_c, 13, 58, 0
16, 456540, Note_on_c, 13, 58, 84
16, 456591, Note_on_c, 13, 58, 0
16, 456600, Note_on_c, 13, 57, 84
16, 456651, Note_on_c, 13, 57, 0
16, 456660, Note_on_c, 13, 57, 84
16, 456711, Note_on_c, 13, 57, 0
16, 456720, Note_on_c, 13, 56, 84
16, 456771, Note_on_c, 13, 56, 0
16, 456780, Note_on_c, 13, 56, 84
16, 456831, Note_on_c, 13, 56, 0
16, 456840, Note_on_c, 13, 55, 84
16, 456891, Note_on_c, 13, 55, 0
16, 456900, Note_on_c, 13, 55, 84
16, 456951, Note_on_c, 13, 55, 0
16, 456960, Note_on_c, 13, 53, 84
16, 457011, Note_on_c, 13, 53, 0
16, 457020, Note_on_c, 13, 53, 84
16, 457071, Note_on_c, 13, 53, 0
16, 457080, Note_on_c, 13, 51, 84
16, 457131, Note_on_c, 13, 51, 0
16, 457140, Note_on_c, 13, 51, 84
16, 457191, Note_on_c, 13, 51, 0
16, 457200, Note_on_c, 13, 50, 84
16, 457251, Note_on_c, 13, 50, 0
16, 457260, Note_on_c, 13, 50, 84
16, 457311, Note_on_c, 13, 50, 0
16, 457320, Note_on_c, 13, 60, 84
16, 457371, Note_on_c, 13, 60, 0
16, 457380, Note_on_c, 13, 60, 84
16, 457431, Note_on_c, 13, 60, 0
16, 457440, Note_on_c, 13, 58, 84
16, 457491, Note_on_c, 13, 58, 0
16, 457500, Note_on_c, 13, 58, 84
16, 457551, Note_on_c, 13, 58, 0
16, 457560, Note_on_c, 13, 56, 84
16, 457611, Note_on_c, 13, 56, 0
16, 457620, Note_on_c, 13, 56, 84
16, 457671, Note_on_c, 13, 56, 0
16, 457680, Note_on_c, 13, 55, 84
16, 457731, Note_on_c, 13, 55, 0
16, 457740, Note_on_c, 13, 55, 84
16, 457791, Note_on_c, 13, 55, 0
16, 457800, Note_on_c, 13, 53, 84
16, 457851, Note_on_c, 13, 53, 0
16, 457860, Note_on_c, 13, 53, 84
16, 457911, Note_on_c, 13, 53, 0
16, 457920, Note_on_c, 13, 51, 84
16, 458159, Note_on_c, 13, 51, 0
16, 460800, Control_c, 13, 11, 96
16, 461040, Note_on_c, 13, 56, 68
16, 461249, Note_on_c, 13, 56, 0
16, 461280, Note_on_c, 13, 56, 68
16, 461489, Note_on_c, 13, 56, 0
16, 461520, Note_on_c, 13, 56, 68
16, 461520, Control_c, 13, 11, 96
16, 461580, Control_c, 13, 11, 99
16, 461640, Control_c, 13, 11, 101
16, 461700, Control_c, 13, 11, 104
16, 461729, Note_on_c, 13, 56, 0
16, 461760, Control_c, 13, 11, 106
16, 461760, Note_on_c, 13, 56, 68
16, 461820, Control_c, 13, 11, 109
16, 461880, Control_c, 13, 11, 112
16, 461940, Control_c, 13, 11, 114
16, 461969, Note_on_c, 13, 56, 0
16, 462000, Control_c, 13, 11, 117
16, 462000, Note_on_c, 13, 56, 68
16, 462060, Control_c, 13, 11, 119
16, 462120, Control_c, 13, 11, 122
16, 462180, Control_c, 13, 11, 127
16, 462209, Note_on_c, 13, 56, 0
16, 462240, Note_on_c, 13, 56, 68
16, 462464, Note_on_c, 13, 56, 0
16, 462480, Note_on_c, 13, 56, 76
16, 462929, Note_on_c, 13, 56, 0
16, 462960, Note_on_c, 13, 56, 76
16, 463080, Control_c, 13, 11, 112
16, 463130, Control_c, 13, 11, 109
16, 463180, Control_c, 13, 11, 107
16, 463230, Control_c, 13, 11, 104
16, 463280, Control_c, 13, 11, 101
16, 463330, Control_c, 13, 11, 99
16, 463380, Control_c, 13, 11, 96
16, 463430, Control_c, 13, 11, 93
16, 463480, Control_c, 13, 11, 91
16, 463530, Control_c, 13, 11, 88
16, 463559, Note_on_c, 13, 56, 0
16, 463560, Note_on_c, 13, 50, 76
16, 463580, Control_c, 13, 11, 85
16, 463630, Control_c, 13, 11, 80
16, 463679, Note_on_c, 13, 50, 0
16, 463680, Note_on_c, 13, 51, 76
16, 463919, Note_on_c, 13, 51, 0
16, 467280, Control_c, 13, 11, 96
16, 467520, Note_on_c, 13, 61, 68
16, 467729, Note_on_c, 13, 61, 0
16, 467760, Note_on_c, 13, 61, 68
16, 467969, Note_on_c, 13, 61, 0
16, 468000, Control_c, 13, 11, 96
16, 468000, Note_on_c, 13, 60, 68
16, 468040, Control_c, 13, 11, 99
16, 468080, Control_c, 13, 11, 101
16, 468120, Control_c, 13, 11, 104
16, 468160, Control_c, 13, 11, 106
16, 468200, Control_c, 13, 11, 109
16, 468240, Control_c, 13, 11, 112
16, 468280, Control_c, 13, 11, 114
16, 468320, Control_c, 13, 11, 117
16, 468360, Control_c, 13, 11, 119
16, 468400, Control_c, 13, 11, 122
16, 468440, Control_c, 13, 11, 124
16, 468480, Control_c, 13, 11, 127
16, 468520, Control_c, 13, 11, 122
16, 468560, Control_c, 13, 11, 117
16, 468600, Control_c, 13, 11, 112
16, 468640, Control_c, 13, 11, 106
16, 468680, Control_c, 13, 11, 96
16, 468719, Note_on_c, 13, 60, 0
16, 469440, Control_c, 13, 11, 127
16, 469680, Note_on_c, 13, 56, 44
16, 469680, Note_on_c, 13, 53, 44
16, 469859, Note_on_c, 13, 56, 0
16, 469859, Note_on_c, 13, 53, 0
16, 469920, Note_on_c, 13, 53, 44
16, 469920, Note_on_c, 13, 56, 44
16, 470099, Note_on_c, 13, 53, 0
16, 470099, Note_on_c, 13, 56, 0
16, 470400, Note_on_c, 13, 55, 44
16, 470579, Note_on_c, 13, 55, 0
16, 470640, Note_on_c, 13, 58, 44
16, 470640, Note_on_c, 13, 55, 44
16, 470819, Note_on_c, 13, 58, 0
16, 470819, Note_on_c, 13, 55, 0
16, 471120, Note_on_c, 13, 58, 44
16, 471299, Note_on_c, 13, 58, 0
16, 471360, Note_on_c, 13, 58, 44
16, 471539, Note_on_c, 13, 58, 0
16, 471600, Note_on_c, 13, 58, 44
16, 471779, Note_on_c, 13, 58, 0
16, 471840, Note_on_c, 13, 58, 44
16, 472019, Note_on_c, 13, 58, 0
16, 472080, Note_on_c, 13, 58, 44
16, 472259, Note_on_c, 13, 58, 0
16, 472320, Note_on_c, 13, 58, 44
16, 472409, Note_on_c, 13, 58, 0
16, 472440, Note_on_c, 13, 58, 44
16, 472529, Note_on_c, 13, 58, 0
16, 472560, Note_on_c, 13, 58, 44
16, 472649, Note_on_c, 13, 58, 0
16, 472680, Note_on_c, 13, 58, 44
16, 472769, Note_on_c, 13, 58, 0
16, 472800, Note_on_c, 13, 60, 44
16, 472889, Note_on_c, 13, 60, 0
16, 472920, Note_on_c, 13, 58, 44
16, 473009, Note_on_c, 13, 58, 0
16, 473040, Note_on_c, 13, 56, 44
16, 473129, Note_on_c, 13, 56, 0
16, 473160, Note_on_c, 13, 58, 44
16, 473249, Note_on_c, 13, 58, 0
16, 473280, Note_on_c, 13, 60, 44
16, 473369, Note_on_c, 13, 60, 0
16, 473400, Note_on_c, 13, 58, 44
16, 473489, Note_on_c, 13, 58, 0
16, 473520, Note_on_c, 13, 56, 44
16, 473609, Note_on_c, 13, 56, 0
16, 473640, Note_on_c, 13, 55, 44
16, 473729, Note_on_c, 13, 55, 0
16, 473760, Note_on_c, 13, 53, 44
16, 473849, Note_on_c, 13, 53, 0
16, 473880, Note_on_c, 13, 55, 45
16, 473969, Note_on_c, 13, 55, 0
16, 474000, Note_on_c, 13, 56, 46
16, 474089, Note_on_c, 13, 56, 0
16, 474120, Note_on_c, 13, 58, 48
16, 474209, Note_on_c, 13, 58, 0
16, 474240, Note_on_c, 13, 60, 49
16, 474329, Note_on_c, 13, 60, 0
16, 474360, Note_on_c, 13, 58, 50
16, 474449, Note_on_c, 13, 58, 0
16, 474480, Note_on_c, 13, 56, 52
16, 474569, Note_on_c, 13, 56, 0
16, 474600, Note_on_c, 13, 58, 53
16, 474689, Note_on_c, 13, 58, 0
16, 474720, Note_on_c, 13, 60, 54
16, 474809, Note_on_c, 13, 60, 0
16, 474840, Note_on_c, 13, 58, 56
16, 474929, Note_on_c, 13, 58, 0
16, 474960, Note_on_c, 13, 56, 57
16, 475049, Note_on_c, 13, 56, 0
16, 475080, Note_on_c, 13, 55, 58
16, 475169, Note_on_c, 13, 55, 0
16, 475200, Note_on_c, 13, 53, 60
16, 475289, Note_on_c, 13, 53, 0
16, 475320, Note_on_c, 13, 55, 61
16, 475409, Note_on_c, 13, 55, 0
16, 475440, Note_on_c, 13, 56, 62
16, 475529, Note_on_c, 13, 56, 0
16, 475560, Note_on_c, 13, 58, 64
16, 475649, Note_on_c, 13, 58, 0
16, 475680, Note_on_c, 13, 56, 65
16, 475769, Note_on_c, 13, 56, 0
16, 475800, Note_on_c, 13, 55, 66
16, 475889, Note_on_c, 13, 55, 0
16, 475920, Note_on_c, 13, 53, 68
16, 476009, Note_on_c, 13, 53, 0
16, 476040, Note_on_c, 13, 51, 69
16, 476129, Note_on_c, 13, 51, 0
16, 476160, Note_on_c, 13, 50, 70
16, 476249, Note_on_c, 13, 50, 0
16, 476280, Note_on_c, 13, 60, 72
16, 476369, Note_on_c, 13, 60, 0
16, 476400, Note_on_c, 13, 58, 73
16, 476489, Note_on_c, 13, 58, 0
16, 476520, Note_on_c, 13, 56, 74
16, 476609, Note_on_c, 13, 56, 0
16, 476640, Note_on_c, 13, 55, 76
16, 476744, Note_on_c, 13, 55, 0
16, 476760, Note_on_c, 13, 55, 76
16, 476864, Note_on_c, 13, 55, 0
16, 476880, Note_on_c, 13, 58, 76
16, 476984, Note_on_c, 13, 58, 0
16, 477000, Note_on_c, 13, 63, 76
16, 477104, Note_on_c, 13, 63, 0
16, 477120, Note_on_c, 13, 67, 76
16, 477224, Note_on_c, 13, 67, 0
16, 477240, Note_on_c, 13, 55, 76
16, 477359, Note_on_c, 13, 55, 0
16, 477480, Note_on_c, 13, 58, 76
16, 477584, Note_on_c, 13, 58, 0
16, 477600, Note_on_c, 13, 63, 84
16, 477704, Note_on_c, 13, 63, 0
16, 477720, Note_on_c, 13, 67, 76
16, 477824, Note_on_c, 13, 67, 0
16, 477840, Note_on_c, 13, 70, 76
16, 477944, Note_on_c, 13, 70, 0
16, 477960, Note_on_c, 13, 58, 76
16, 478079, Note_on_c, 13, 58, 0
16, 478200, Note_on_c, 13, 58, 76
16, 478304, Note_on_c, 13, 58, 0
16, 478320, Note_on_c, 13, 65, 84
16, 478424, Note_on_c, 13, 65, 0
16, 478440, Note_on_c, 13, 68, 76
16, 478544, Note_on_c, 13, 68, 0
16, 478560, Note_on_c, 13, 70, 76
16, 478664, Note_on_c, 13, 70, 0
16, 478680, Note_on_c, 13, 58, 76
16, 478799, Note_on_c, 13, 58, 0
16, 478920, Note_on_c, 13, 58, 76
16, 479024, Note_on_c, 13, 58, 0
16, 479040, Note_on_c, 13, 62, 84
16, 479144, Note_on_c, 13, 62, 0
16, 479160, Note_on_c, 13, 65, 76
16, 479264, Note_on_c, 13, 65, 0
16, 479280, Note_on_c, 13, 70, 76
16, 479384, Note_on_c, 13, 70, 0
16, 479400, Note_on_c, 13, 68, 76
16, 479504, Note_on_c, 13, 68, 0
16, 479520, Note_on_c, 13, 67, 84
16, 479624, Note_on_c, 13, 67, 0
16, 479640, Note_on_c, 13, 55, 84
16, 479691, Note_on_c, 13, 55, 0
16, 479700, Note_on_c, 13, 55, 84
16, 479751, Note_on_c, 13, 55, 0
16, 479760, Note_on_c, 13, 58, 84
16, 479811, Note_on_c, 13, 58, 0
16, 479820, Note_on_c, 13, 58, 84
16, 479871, Note_on_c, 13, 58, 0
16, 479880, Note_on_c, 13, 63, 84
16, 479931, Note_on_c, 13, 63, 0
16, 479940, Note_on_c, 13, 63, 84
16, 479991, Note_on_c, 13, 63, 0
16, 480000, Note_on_c, 13, 67, 84
16, 480051, Note_on_c, 13, 67, 0
16, 480060, Note_on_c, 13, 67, 84
16, 480111, Note_on_c, 13, 67, 0
16, 480120, Note_on_c, 13, 55, 84
16, 480171, Note_on_c, 13, 55, 0
16, 480180, Note_on_c, 13, 55, 84
16, 480239, Note_on_c, 13, 55, 0
16, 480360, Note_on_c, 13, 55, 84
16, 480411, Note_on_c, 13, 55, 0
16, 480420, Note_on_c, 13, 55, 84
16, 480471, Note_on_c, 13, 55, 0
16, 480480, Note_on_c, 13, 58, 84
16, 480531, Note_on_c, 13, 58, 0
16, 480540, Note_on_c, 13, 58, 84
16, 480591, Note_on_c, 13, 58, 0
16, 480600, Note_on_c, 13, 63, 84
16, 480651, Note_on_c, 13, 63, 0
16, 480660, Note_on_c, 13, 63, 84
16, 480711, Note_on_c, 13, 63, 0
16, 480720, Note_on_c, 13, 67, 84
16, 480771, Note_on_c, 13, 67, 0
16, 480780, Note_on_c, 13, 67, 84
16, 480831, Note_on_c, 13, 67, 0
16, 480840, Note_on_c, 13, 55, 84
16, 480891, Note_on_c, 13, 55, 0
16, 480900, Note_on_c, 13, 55, 84
16, 480959, Note_on_c, 13, 55, 0
16, 481080, Note_on_c, 13, 56, 84
16, 481131, Note_on_c, 13, 56, 0
16, 481140, Note_on_c, 13, 56, 84
16, 481191, Note_on_c, 13, 56, 0
16, 481200, Note_on_c, 13, 58, 84
16, 481251, Note_on_c, 13, 58, 0
16, 481260, Note_on_c, 13, 58, 84
16, 481311, Note_on_c, 13, 58, 0
16, 481320, Note_on_c, 13, 62, 84
16, 481371, Note_on_c, 13, 62, 0
16, 481380, Note_on_c, 13, 62, 84
16, 481431, Note_on_c, 13, 62, 0
16, 481440, Note_on_c, 13, 65, 84
16, 481491, Note_on_c, 13, 65, 0
16, 481500, Note_on_c, 13, 65, 84
16, 481551, Note_on_c, 13, 65, 0
16, 481560, Note_on_c, 13, 56, 84
16, 481611, Note_on_c, 13, 56, 0
16, 481620, Note_on_c, 13, 56, 84
16, 481679, Note_on_c, 13, 56, 0
16, 481800, Note_on_c, 13, 56, 84
16, 481851, Note_on_c, 13, 56, 0
16, 481860, Note_on_c, 13, 56, 84
16, 481911, Note_on_c, 13, 56, 0
16, 481920, Note_on_c, 13, 62, 84
16, 481971, Note_on_c, 13, 62, 0
16, 481980, Note_on_c, 13, 62, 84
16, 482031, Note_on_c, 13, 62, 0
16, 482040, Note_on_c, 13, 65, 84
16, 482091, Note_on_c, 13, 65, 0
16, 482100, Note_on_c, 13, 65, 84
16, 482151, Note_on_c, 13, 65, 0
16, 482160, Note_on_c, 13, 68, 84
16, 482211, Note_on_c, 13, 68, 0
16, 482220, Note_on_c, 13, 68, 84
16, 482271, Note_on_c, 13, 68, 0
16, 482280, Note_on_c, 13, 62, 84
16, 482331, Note_on_c, 13, 62, 0
16, 482340, Note_on_c, 13, 62, 84
16, 482391, Note_on_c, 13, 62, 0
16, 482400, Note_on_c, 13, 63, 84
16, 482639, Note_on_c, 13, 63, 0
16, 483480, Note_on_c, 13, 56, 84
16, 483531, Note_on_c, 13, 56, 0
16, 483540, Note_on_c, 13, 56, 84
16, 483591, Note_on_c, 13, 56, 0
16, 483600, Note_on_c, 13, 58, 84
16, 483651, Note_on_c, 13, 58, 0
16, 483660, Note_on_c, 13, 58, 84
16, 483711, Note_on_c, 13, 58, 0
16, 483720, Note_on_c, 13, 58, 84
16, 483771, Note_on_c, 13, 58, 0
16, 483780, Note_on_c, 13, 58, 84
16, 483831, Note_on_c, 13, 58, 0
16, 483840, Note_on_c, 13, 51, 84
16, 483891, Note_on_c, 13, 51, 0
16, 483900, Note_on_c, 13, 51, 84
16, 483951, Note_on_c, 13, 51, 0
16, 483960, Note_on_c, 13, 58, 84
16, 484011, Note_on_c, 13, 58, 0
16, 484020, Note_on_c, 13, 58, 84
16, 484071, Note_on_c, 13, 58, 0
16, 484080, Note_on_c, 13, 56, 92
16, 484131, Note_on_c, 13, 56, 0
16, 484140, Note_on_c, 13, 56, 84
16, 484191, Note_on_c, 13, 56, 0
16, 484200, Note_on_c, 13, 60, 84
16, 484251, Note_on_c, 13, 60, 0
16, 484260, Note_on_c, 13, 60, 84
16, 484311, Note_on_c, 13, 60, 0
16, 484320, Note_on_c, 13, 53, 84
16, 484371, Note_on_c, 13, 53, 0
16, 484380, Note_on_c, 13, 53, 84
16, 484431, Note_on_c, 13, 53, 0
16, 484440, Note_on_c, 13, 60, 84
16, 484491, Note_on_c, 13, 60, 0
16, 484500, Note_on_c, 13, 60, 84
16, 484551, Note_on_c, 13, 60, 0
16, 484560, Note_on_c, 13, 59, 92
16, 484611, Note_on_c, 13, 59, 0
16, 484620, Note_on_c, 13, 59, 84
16, 484671, Note_on_c, 13, 59, 0
16, 484680, Note_on_c, 13, 62, 84
16, 484731, Note_on_c, 13, 62, 0
16, 484740, Note_on_c, 13, 62, 84
16, 484791, Note_on_c, 13, 62, 0
16, 484800, Note_on_c, 13, 55, 84
16, 484851, Note_on_c, 13, 55, 0
16, 484860, Note_on_c, 13, 55, 84
16, 484911, Note_on_c, 13, 55, 0
16, 484920, Note_on_c, 13, 61, 84
16, 484971, Note_on_c, 13, 61, 0
16, 484980, Note_on_c, 13, 61, 84
16, 485031, Note_on_c, 13, 61, 0
16, 485040, Note_on_c, 13, 60, 92
16, 485091, Note_on_c, 13, 60, 0
16, 485100, Note_on_c, 13, 60, 84
16, 485151, Note_on_c, 13, 60, 0
16, 485160, Note_on_c, 13, 63, 84
16, 485211, Note_on_c, 13, 63, 0
16, 485220, Note_on_c, 13, 63, 84
16, 485271, Note_on_c, 13, 63, 0
16, 485280, Note_on_c, 13, 56, 84
16, 485331, Note_on_c, 13, 56, 0
16, 485340, Note_on_c, 13, 56, 84
16, 485391, Note_on_c, 13, 56, 0
16, 485400, Note_on_c, 13, 63, 84
16, 485451, Note_on_c, 13, 63, 0
16, 485460, Note_on_c, 13, 63, 84
16, 485511, Note_on_c, 13, 63, 0
16, 485520, Note_on_c, 13, 62, 92
16, 485571, Note_on_c, 13, 62, 0
16, 485580, Note_on_c, 13, 62, 84
16, 485631, Note_on_c, 13, 62, 0
16, 485640, Note_on_c, 13, 65, 84
16, 485691, Note_on_c, 13, 65, 0
16, 485700, Note_on_c, 13, 65, 84
16, 485751, Note_on_c, 13, 65, 0
16, 485760, Note_on_c, 13, 58, 84
16, 485811, Note_on_c, 13, 58, 0
16, 485820, Note_on_c, 13, 58, 84
16, 485871, Note_on_c, 13, 58, 0
16, 485880, Note_on_c, 13, 65, 84
16, 485931, Note_on_c, 13, 65, 0
16, 485940, Note_on_c, 13, 65, 84
16, 485991, Note_on_c, 13, 65, 0
16, 486000, Note_on_c, 13, 63, 84
16, 486051, Note_on_c, 13, 63, 0
16, 486060, Note_on_c, 13, 67, 84
16, 486111, Note_on_c, 13, 67, 0
16, 486120, Note_on_c, 13, 67, 84
16, 486171, Note_on_c, 13, 67, 0
16, 486180, Note_on_c, 13, 67, 84
16, 486231, Note_on_c, 13, 67, 0
16, 486240, Note_on_c, 13, 67, 84
16, 486291, Note_on_c, 13, 67, 0
16, 486300, Note_on_c, 13, 72, 84
16, 486351, Note_on_c, 13, 72, 0
16, 486360, Note_on_c, 13, 72, 84
16, 486411, Note_on_c, 13, 72, 0
16, 486420, Note_on_c, 13, 72, 84
16, 486471, Note_on_c, 13, 72, 0
16, 486480, Note_on_c, 13, 72, 84
16, 486531, Note_on_c, 13, 72, 0
16, 486540, Note_on_c, 13, 72, 84
16, 486591, Note_on_c, 13, 72, 0
16, 486600, Note_on_c, 13, 72, 84
16, 486651, Note_on_c, 13, 72, 0
16, 486660, Note_on_c, 13, 72, 84
16, 486711, Note_on_c, 13, 72, 0
16, 486720, Note_on_c, 13, 71, 84
16, 486899, Note_on_c, 13, 71, 0
16, 486960, Note_on_c, 13, 55, 84
16, 486960, Note_on_c, 13, 67, 84
16, 487139, Note_on_c, 13, 55, 0
16, 487139, Note_on_c, 13, 67, 0
16, 487200, Note_on_c, 13, 67, 84
16, 487200, Note_on_c, 13, 55, 84
16, 487379, Note_on_c, 13, 67, 0
16, 487379, Note_on_c, 13, 55, 0
16, 487680, Note_on_c, 13, 55, 84
16, 487859, Note_on_c, 13, 55, 0
16, 487920, Note_on_c, 13, 56, 84
16, 488099, Note_on_c, 13, 56, 0
16, 488400, Note_on_c, 13, 57, 84
16, 488579, Note_on_c, 13, 57, 0
16, 488640, Note_on_c, 13, 58, 84
16, 488819, Note_on_c, 13, 58, 0
16, 489120, Note_on_c, 13, 55, 84
16, 489120, Note_on_c, 13, 67, 84
16, 489299, Note_on_c, 13, 55, 0
16, 489299, Note_on_c, 13, 67, 0
16, 489360, Note_on_c, 13, 55, 84
16, 489360, Note_on_c, 13, 67, 84
16, 489539, Note_on_c, 13, 55, 0
16, 489539, Note_on_c, 13, 67, 0
16, 489840, Note_on_c, 13, 67, 92
16, 490019, Note_on_c, 13, 67, 0
16, 490080, Note_on_c, 13, 68, 92
16, 490259, Note_on_c, 13, 68, 0
16, 490560, Note_on_c, 13, 69, 92
16, 490739, Note_on_c, 13, 69, 0
16, 491040, Note_on_c, 13, 69, 92
16, 491219, Note_on_c, 13, 69, 0
16, 491520, Note_on_c, 13, 69, 92
16, 491699, Note_on_c, 13, 69, 0
16, 492000, Note_on_c, 13, 69, 92
16, 492179, Note_on_c, 13, 69, 0
16, 492480, Note_on_c, 13, 69, 92
16, 492659, Note_on_c, 13, 69, 0
16, 492960, Note_on_c, 13, 69, 92
16, 493139, Note_on_c, 13, 69, 0
16, 493920, Note_on_c, 13, 57, 68
16, 494039, Note_on_c, 13, 57, 0
16, 494040, Note_on_c, 13, 57, 52
16, 494159, Note_on_c, 13, 57, 0
16, 494160, Note_on_c, 13, 54, 52
16, 494399, Note_on_c, 13, 54, 0
16, 494400, Note_on_c, 13, 51, 52
16, 494624, Note_on_c, 13, 51, 0
16, 494640, Note_on_c, 13, 55, 52
16, 495344, Note_on_c, 13, 55, 0
16, 495360, Note_on_c, 13, 57, 68
16, 495479, Note_on_c, 13, 57, 0
16, 495480, Note_on_c, 13, 57, 52
16, 495599, Note_on_c, 13, 57, 0
16, 495600, Note_on_c, 13, 54, 52
16, 495839, Note_on_c, 13, 54, 0
16, 495840, Note_on_c, 13, 51, 52
16, 496184, Note_on_c, 13, 51, 0
16, 496200, Note_on_c, 13, 48, 52
16, 496289, Note_on_c, 13, 48, 0
16, 496320, Note_on_c, 13, 51, 52
16, 496409, Note_on_c, 13, 51, 0
16, 496440, Note_on_c, 13, 56, 52
16, 496529, Note_on_c, 13, 56, 0
16, 496560, Note_on_c, 13, 48, 52
16, 496799, Note_on_c, 13, 48, 0
16, 496920, Note_on_c, 13, 49, 52
16, 497009, Note_on_c, 13, 49, 0
16, 497040, Note_on_c, 13, 53, 52
16, 497129, Note_on_c, 13, 53, 0
16, 497160, Note_on_c, 13, 56, 52
16, 497249, Note_on_c, 13, 56, 0
16, 497280, Note_on_c, 13, 49, 52
16, 497519, Note_on_c, 13, 49, 0
16, 497640, Note_on_c, 13, 50, 52
16, 497729, Note_on_c, 13, 50, 0
16, 497760, Note_on_c, 13, 53, 52
16, 497849, Note_on_c, 13, 53, 0
16, 497880, Note_on_c, 13, 58, 52
16, 497969, Note_on_c, 13, 58, 0
16, 498000, Note_on_c, 13, 50, 52
16, 498239, Note_on_c, 13, 50, 0
16, 498360, Note_on_c, 13, 58, 52
16, 498479, Note_on_c, 13, 58, 0
16, 498480, Note_on_c, 13, 63, 52
16, 498599, Note_on_c, 13, 63, 0
16, 498600, Note_on_c, 13, 58, 52
16, 498719, Note_on_c, 13, 58, 0
16, 498720, Note_on_c, 13, 63, 52
16, 498839, Note_on_c, 13, 63, 0
16, 498840, Note_on_c, 13, 59, 52
16, 498944, Note_on_c, 13, 59, 0
16, 498960, Note_on_c, 13, 60, 52
16, 499011, Note_on_c, 13, 60, 0
16, 499020, Note_on_c, 13, 60, 52
16, 499071, Note_on_c, 13, 60, 0
16, 499080, Note_on_c, 13, 60, 53
16, 499131, Note_on_c, 13, 60, 0
16, 499140, Note_on_c, 13, 60, 54
16, 499191, Note_on_c, 13, 60, 0
16, 499200, Note_on_c, 13, 60, 55
16, 499251, Note_on_c, 13, 60, 0
16, 499260, Note_on_c, 13, 60, 56
16, 499311, Note_on_c, 13, 60, 0
16, 499320, Note_on_c, 13, 60, 57
16, 499371, Note_on_c, 13, 60, 0
16, 499380, Note_on_c, 13, 60, 58
16, 499431, Note_on_c, 13, 60, 0
16, 499440, Note_on_c, 13, 60, 59
16, 499491, Note_on_c, 13, 60, 0
16, 499500, Note_on_c, 13, 60, 60
16, 499551, Note_on_c, 13, 60, 0
16, 499560, Note_on_c, 13, 60, 60
16, 499611, Note_on_c, 13, 60, 0
16, 499620, Note_on_c, 13, 60, 61
16, 499671, Note_on_c, 13, 60, 0
16, 499680, Note_on_c, 13, 56, 62
16, 499731, Note_on_c, 13, 56, 0
16, 499740, Note_on_c, 13, 68, 63
16, 499791, Note_on_c, 13, 68, 0
16, 499800, Note_on_c, 13, 68, 64
16, 499851, Note_on_c, 13, 68, 0
16, 499860, Note_on_c, 13, 68, 65
16, 499911, Note_on_c, 13, 68, 0
16, 499920, Note_on_c, 13, 68, 66
16, 499971, Note_on_c, 13, 68, 0
16, 499980, Note_on_c, 13, 68, 67
16, 500031, Note_on_c, 13, 68, 0
16, 500040, Note_on_c, 13, 68, 68
16, 500091, Note_on_c, 13, 68, 0
16, 500100, Note_on_c, 13, 68, 68
16, 500151, Note_on_c, 13, 68, 0
16, 500160, Note_on_c, 13, 70, 69
16, 500211, Note_on_c, 13, 70, 0
16, 500220, Note_on_c, 13, 70, 70
16, 500271, Note_on_c, 13, 70, 0
16, 500280, Note_on_c, 13, 72, 71
16, 500331, Note_on_c, 13, 72, 0
16, 500340, Note_on_c, 13, 72, 72
16, 500391, Note_on_c, 13, 72, 0
16, 500400, Note_on_c, 13, 67, 73
16, 500489, Note_on_c, 13, 67, 0
16, 500520, Note_on_c, 13, 70, 75
16, 500609, Note_on_c, 13, 70, 0
16, 500640, Note_on_c, 13, 67, 76
16, 500729, Note_on_c, 13, 67, 0
16, 500760, Note_on_c, 13, 63, 78
16, 500849, Note_on_c, 13, 63, 0
16, 500880, Note_on_c, 13, 58, 80
16, 500969, Note_on_c, 13, 58, 0
16, 501000, Note_on_c, 13, 55, 82
16, 501089, Note_on_c, 13, 55, 0
16, 501120, Note_on_c, 13, 53, 84
16, 501171, Note_on_c, 13, 53, 0
16, 501180, Note_on_c, 13, 62, 84
16, 501231, Note_on_c, 13, 62, 0
16, 501240, Note_on_c, 13, 62, 84
16, 501291, Note_on_c, 13, 62, 0
16, 501300, Note_on_c, 13, 62, 84
16, 501351, Note_on_c, 13, 62, 0
16, 501360, Note_on_c, 13, 62, 84
16, 501411, Note_on_c, 13, 62, 0
16, 501420, Note_on_c, 13, 62, 84
16, 501471, Note_on_c, 13, 62, 0
16, 501480, Note_on_c, 13, 62, 84
16, 501531, Note_on_c, 13, 62, 0
16, 501540, Note_on_c, 13, 62, 84
16, 501591, Note_on_c, 13, 62, 0
16, 501600, Note_on_c, 13, 62, 84
16, 501651, Note_on_c, 13, 62, 0
16, 501660, Note_on_c, 13, 62, 84
16, 501711, Note_on_c, 13, 62, 0
16, 501720, Note_on_c, 13, 62, 84
16, 501771, Note_on_c, 13, 62, 0
16, 501780, Note_on_c, 13, 62, 84
16, 501831, Note_on_c, 13, 62, 0
16, 501840, Note_on_c, 13, 63, 76
16, 502019, Note_on_c, 13, 63, 0
16, 502080, Note_on_c, 13, 58, 84
16, 502259, Note_on_c, 13, 58, 0
16, 502320, Note_on_c, 13, 55, 76
16, 502499, Note_on_c, 13, 55, 0
16, 502800, Note_on_c, 13, 60, 84
16, 502979, Note_on_c, 13, 60, 0
16, 503040, Note_on_c, 13, 56, 76
16, 503219, Note_on_c, 13, 56, 0
16, 503520, Note_on_c, 13, 62, 84
16, 503699, Note_on_c, 13, 62, 0
16, 503760, Note_on_c, 13, 58, 76
16, 503939, Note_on_c, 13, 58, 0
16, 504000, Note_on_c, 13, 62, 76
16, 504000, Note_on_c, 13, 53, 76
16, 504179, Note_on_c, 13, 62, 0
16, 504179, Note_on_c, 13, 53, 0
16, 504240, Note_on_c, 13, 53, 76
16, 504240, Note_on_c, 13, 62, 76
16, 504419, Note_on_c, 13, 53, 0
16, 504419, Note_on_c, 13, 62, 0
16, 504480, Note_on_c, 13, 53, 76
16, 504480, Note_on_c, 13, 62, 76
16, 504659, Note_on_c, 13, 53, 0
16, 504659, Note_on_c, 13, 62, 0
16, 504720, Note_on_c, 13, 51, 76
16, 504839, Note_on_c, 13, 51, 0
16, 504840, Note_on_c, 13, 51, 52
16, 506159, Note_on_c, 13, 51, 0
16, 506160, Control_c, 13, 11, 127
16, 506160, Note_on_c, 13, 51, 52
16, 506256, Control_c, 13, 11, 126
16, 506352, Control_c, 13, 11, 125
16, 506448, Control_c, 13, 11, 124
16, 506544, Control_c, 13, 11, 123
16, 506640, Control_c, 13, 11, 122
16, 506736, Control_c, 13, 11, 121
16, 506832, Control_c, 13, 11, 120
16, 506928, Control_c, 13, 11, 119
16, 507024, Control_c, 13, 11, 118
16, 507120, Control_c, 13, 11, 117
16, 507216, Control_c, 13, 11, 116
16, 507312, Control_c, 13, 11, 115
16, 507408, Control_c, 13, 11, 114
16, 507504, Control_c, 13, 11, 112
16, 507599, Note_on_c, 13, 51, 0
16, 507600, Note_on_c, 13, 51, 52
16, 509009, Note_on_c, 13, 51, 0
16, 509025, Control_c, 13, 11, 127
16, 509040, Note_on_c, 13, 49, 76
16, 509040, Note_on_c, 13, 56, 76
16, 510464, Note_on_c, 13, 49, 0
16, 510464, Note_on_c, 13, 56, 0
16, 510480, Note_on_c, 13, 49, 52
16, 511904, Note_on_c, 13, 49, 0
16, 511920, Note_on_c, 13, 55, 84
16, 511920, Note_on_c, 13, 48, 84
16, 511971, Note_on_c, 13, 55, 0
16, 511971, Note_on_c, 13, 48, 0
16, 511980, Note_on_c, 13, 48, 84
16, 511980, Note_on_c, 13, 55, 84
16, 512031, Note_on_c, 13, 48, 0
16, 512031, Note_on_c, 13, 55, 0
16, 512040, Note_on_c, 13, 48, 84
16, 512040, Note_on_c, 13, 55, 84
16, 512091, Note_on_c, 13, 48, 0
16, 512091, Note_on_c, 13, 55, 0
16, 512100, Note_on_c, 13, 48, 84
16, 512100, Note_on_c, 13, 55, 84
16, 512151, Note_on_c, 13, 48, 0
16, 512151, Note_on_c, 13, 55, 0
16, 512160, Note_on_c, 13, 55, 84
16, 512160, Note_on_c, 13, 48, 84
16, 512211, Note_on_c, 13, 55, 0
16, 512211, Note_on_c, 13, 48, 0
16, 512220, Note_on_c, 13, 55, 84
16, 512220, Note_on_c, 13, 48, 84
16, 512271, Note_on_c, 13, 55, 0
16, 512271, Note_on_c, 13, 48, 0
16, 512280, Note_on_c, 13, 48, 84
16, 512280, Note_on_c, 13, 55, 84
16, 512331, Note_on_c, 13, 48, 0
16, 512331, Note_on_c, 13, 55, 0
16, 512340, Note_on_c, 13, 48, 84
16, 512340, Note_on_c, 13, 55, 84
16, 512391, Note_on_c, 13, 48, 0
16, 512391, Note_on_c, 13, 55, 0
16, 512400, Note_on_c, 13, 55, 84
16, 512400, Note_on_c, 13, 48, 84
16, 512451, Note_on_c, 13, 55, 0
16, 512451, Note_on_c, 13, 48, 0
16, 512460, Note_on_c, 13, 55, 84
16, 512460, Note_on_c, 13, 48, 84
16, 512511, Note_on_c, 13, 55, 0
16, 512511, Note_on_c, 13, 48, 0
16, 512520, Note_on_c, 13, 55, 84
16, 512520, Note_on_c, 13, 48, 84
16, 512571, Note_on_c, 13, 55, 0
16, 512571, Note_on_c, 13, 48, 0
16, 512580, Note_on_c, 13, 48, 84
16, 512580, Note_on_c, 13, 55, 84
16, 512631, Note_on_c, 13, 48, 0
16, 512631, Note_on_c, 13, 55, 0
16, 512640, Note_on_c, 13, 55, 84
16, 512640, Note_on_c, 13, 48, 84
16, 512691, Note_on_c, 13, 55, 0
16, 512691, Note_on_c, 13, 48, 0
16, 512700, Note_on_c, 13, 48, 84
16, 512700, Note_on_c, 13, 55, 84
16, 512751, Note_on_c, 13, 48, 0
16, 512751, Note_on_c, 13, 55, 0
16, 512760, Note_on_c, 13, 48, 84
16, 512760, Note_on_c, 13, 55, 84
16, 512811, Note_on_c, 13, 48, 0
16, 512811, Note_on_c, 13, 55, 0
16, 512820, Note_on_c, 13, 55, 84
16, 512820, Note_on_c, 13, 48, 84
16, 512871, Note_on_c, 13, 55, 0
16, 512871, Note_on_c, 13, 48, 0
16, 512880, Note_on_c, 13, 55, 84
16, 512880, Note_on_c, 13, 48, 84
16, 512931, Note_on_c, 13, 55, 0
16, 512931, Note_on_c, 13, 48, 0
16, 512940, Note_on_c, 13, 55, 84
16, 512940, Note_on_c, 13, 48, 84
16, 512991, Note_on_c, 13, 55, 0
16, 512991, Note_on_c, 13, 48, 0
16, 513000, Note_on_c, 13, 55, 84
16, 513000, Note_on_c, 13, 48, 84
16, 513051, Note_on_c, 13, 55, 0
16, 513051, Note_on_c, 13, 48, 0
16, 513060, Note_on_c, 13, 48, 84
16, 513060, Note_on_c, 13, 55, 84
16, 513111, Note_on_c, 13, 48, 0
16, 513111, Note_on_c, 13, 55, 0
16, 513120, Note_on_c, 13, 55, 84
16, 513120, Note_on_c, 13, 48, 84
16, 513171, Note_on_c, 13, 55, 0
16, 513171, Note_on_c, 13, 48, 0
16, 513180, Note_on_c, 13, 48, 84
16, 513180, Note_on_c, 13, 55, 84
16, 513231, Note_on_c, 13, 48, 0
16, 513231, Note_on_c, 13, 55, 0
16, 513240, Note_on_c, 13, 48, 84
16, 513240, Note_on_c, 13, 55, 84
16, 513291, Note_on_c, 13, 48, 0
16, 513291, Note_on_c, 13, 55, 0
16, 513300, Note_on_c, 13, 55, 84
16, 513300, Note_on_c, 13, 48, 84
16, 513351, Note_on_c, 13, 55, 0
16, 513351, Note_on_c, 13, 48, 0
16, 513360, Note_on_c, 13, 48, 52
16, 514080, Control_c, 13, 11, 127
16, 514128, Control_c, 13, 11, 126
16, 514176, Control_c, 13, 11, 125
16, 514224, Control_c, 13, 11, 124
16, 514272, Control_c, 13, 11, 123
16, 514320, Control_c, 13, 11, 122
16, 514368, Control_c, 13, 11, 121
16, 514416, Control_c, 13, 11, 120
16, 514464, Control_c, 13, 11, 119
16, 514512, Control_c, 13, 11, 118
16, 514560, Control_c, 13, 11, 117
16, 514608, Control_c, 13, 11, 116
16, 514656, Control_c, 13, 11, 115
16, 514704, Control_c, 13, 11, 114
16, 514752, Control_c, 13, 11, 112
16, 514799, Note_on_c, 13, 48, 0
16, 514800, Note_on_c, 13, 48, 52
16, 516239, Note_on_c, 13, 48, 0
16, 516240, Note_on_c, 13, 48, 52
16, 517664, Note_on_c, 13, 48, 0
16, 517680, Note_on_c, 13, 55, 52
16, 519119, Note_on_c, 13, 55, 0
16, 519120, Note_on_c, 13, 55, 52
16, 520559, Note_on_c, 13, 55, 0
16, 520560, Note_on_c, 13, 55, 52
16, 521039, Note_on_c, 13, 55, 0
16, 521040, Note_on_c, 13, 48, 52
16, 521279, Note_on_c, 13, 48, 0
16, 521280, Note_on_c, 13, 52, 52
16, 521759, Note_on_c, 13, 52, 0
16, 521760, Note_on_c, 13, 55, 52
16, 521999, Note_on_c, 13, 55, 0
16, 522240, Control_c, 13, 11, 127
16, 522480, Note_on_c, 13, 48, 44
16, 522719, Note_on_c, 13, 48, 0
16, 522720, Note_on_c, 13, 53, 44
16, 523199, Note_on_c, 13, 53, 0
16, 523200, Note_on_c, 13, 56, 44
16, 523424, Note_on_c, 13, 56, 0
16, 523440, Note_on_c, 13, 48, 44
16, 523440, Note_on_c, 13, 60, 44
16, 523679, Note_on_c, 13, 48, 0
16, 523679, Note_on_c, 13, 60, 0
16, 526560, Note_on_c, 13, 65, 52
16, 526799, Note_on_c, 13, 65, 0
16, 526800, Note_on_c, 13, 67, 52
16, 527039, Note_on_c, 13, 67, 0
16, 527040, Note_on_c, 13, 68, 68
16, 527399, Note_on_c, 13, 68, 0
16, 527400, Note_on_c, 13, 67, 52
16, 527519, Note_on_c, 13, 67, 0
16, 527520, Note_on_c, 13, 65, 52
16, 527744, Note_on_c, 13, 65, 0
16, 527760, Note_on_c, 13, 64, 52
16, 527999, Note_on_c, 13, 64, 0
16, 528000, Note_on_c, 13, 63, 52
16, 528239, Note_on_c, 13, 63, 0
16, 528240, Note_on_c, 13, 62, 52
16, 528479, Note_on_c, 13, 62, 0
16, 528480, Note_on_c, 13, 60, 68
16, 528959, Note_on_c, 13, 60, 0
16, 528960, Note_on_c, 13, 62, 52
16, 529079, Note_on_c, 13, 62, 0
16, 529080, Note_on_c, 13, 64, 52
16, 529184, Note_on_c, 13, 64, 0
16, 529200, Note_on_c, 13, 65, 52
16, 529379, Note_on_c, 13, 65, 0
16, 529440, Note_on_c, 13, 65, 52
16, 529679, Note_on_c, 13, 65, 0
16, 529680, Note_on_c, 13, 67, 52
16, 529919, Note_on_c, 13, 67, 0
16, 529920, Note_on_c, 13, 68, 68
16, 530279, Note_on_c, 13, 68, 0
16, 530280, Note_on_c, 13, 67, 52
16, 530399, Note_on_c, 13, 67, 0
16, 530400, Note_on_c, 13, 65, 52
16, 530609, Note_on_c, 13, 65, 0
16, 530625, Control_c, 13, 11, 96
16, 530640, Note_on_c, 13, 65, 68
16, 530640, Control_c, 13, 11, 96
16, 530700, Control_c, 13, 11, 97
16, 530760, Control_c, 13, 11, 99
16, 530820, Control_c, 13, 11, 100
16, 530864, Note_on_c, 13, 65, 0
16, 530880, Control_c, 13, 11, 101
16, 530880, Note_on_c, 13, 58, 68
16, 530940, Control_c, 13, 11, 102
16, 531000, Control_c, 13, 11, 104
16, 531060, Control_c, 13, 11, 105
16, 531119, Note_on_c, 13, 58, 0
16, 531120, Control_c, 13, 11, 106
16, 531120, Note_on_c, 13, 60, 68
16, 531180, Control_c, 13, 11, 108
16, 531240, Control_c, 13, 11, 109
16, 531300, Control_c, 13, 11, 110
16, 531359, Note_on_c, 13, 60, 0
16, 531360, Control_c, 13, 11, 112
16, 531360, Note_on_c, 13, 62, 84
16, 531420, Control_c, 13, 11, 113
16, 531480, Control_c, 13, 11, 114
16, 531540, Control_c, 13, 11, 115
16, 531600, Control_c, 13, 11, 117
16, 531660, Control_c, 13, 11, 118
16, 531719, Note_on_c, 13, 62, 0
16, 531720, Control_c, 13, 11, 119
16, 531720, Note_on_c, 13, 60, 68
16, 531780, Control_c, 13, 11, 121
16, 531839, Note_on_c, 13, 60, 0
16, 531840, Control_c, 13, 11, 122
16, 531840, Note_on_c, 13, 58, 68
16, 531900, Control_c, 13, 11, 123
16, 531960, Control_c, 13, 11, 124
16, 532020, Control_c, 13, 11, 127
16, 532064, Note_on_c, 13, 58, 0
16, 532080, Note_on_c, 13, 63, 52
16, 532319, Note_on_c, 13, 63, 0
16, 532800, Program_c, 13, 45
16, 533040, Note_on_c, 13, 63, 52
16, 533279, Note_on_c, 13, 63, 0
16, 533280, Note_on_c, 13, 63, 52
16, 533519, Note_on_c, 13, 63, 0
16, 533520, Note_on_c, 13, 58, 52
16, 533759, Note_on_c, 13, 58, 0
16, 534480, Note_on_c, 13, 58, 52
16, 534719, Note_on_c, 13, 58, 0
16, 534720, Note_on_c, 13, 58, 52
16, 534959, Note_on_c, 13, 58, 0
16, 534960, Note_on_c, 13, 63, 52
16, 535199, Note_on_c, 13, 63, 0
16, 535920, Note_on_c, 13, 63, 52
16, 536159, Note_on_c, 13, 63, 0
16, 536160, Note_on_c, 13, 63, 52
16, 536399, Note_on_c, 13, 63, 0
16, 536400, Note_on_c, 13, 58, 52
16, 536639, Note_on_c, 13, 58, 0
16, 541920, Program_c, 13, 48
16, 542160, Note_on_c, 13, 58, 44
16, 542339, Note_on_c, 13, 58, 0
16, 542400, Note_on_c, 13, 62, 44
16, 542579, Note_on_c, 13, 62, 0
16, 542640, Note_on_c, 13, 58, 44
16, 542819, Note_on_c, 13, 58, 0
16, 542880, Note_on_c, 13, 65, 44
16, 543059, Note_on_c, 13, 65, 0
16, 543120, Note_on_c, 13, 58, 44
16, 543299, Note_on_c, 13, 58, 0
16, 543360, Note_on_c, 13, 70, 44
16, 543539, Note_on_c, 13, 70, 0
16, 543600, Note_on_c, 13, 58, 44
16, 543779, Note_on_c, 13, 58, 0
16, 543840, Note_on_c, 13, 74, 44
16, 544019, Note_on_c, 13, 74, 0
16, 544080, Note_on_c, 13, 58, 44
16, 544259, Note_on_c, 13, 58, 0
16, 544320, Note_on_c, 13, 65, 68
16, 544439, Note_on_c, 13, 65, 0
16, 544440, Note_on_c, 13, 65, 52
16, 545024, Note_on_c, 13, 65, 0
16, 545040, Note_on_c, 13, 58, 52
16, 545219, Note_on_c, 13, 58, 0
16, 545280, Note_on_c, 13, 63, 52
16, 545459, Note_on_c, 13, 63, 0
16, 545520, Note_on_c, 13, 58, 52
16, 545699, Note_on_c, 13, 58, 0
16, 545760, Note_on_c, 13, 66, 52
16, 545939, Note_on_c, 13, 66, 0
16, 546000, Note_on_c, 13, 58, 52
16, 546179, Note_on_c, 13, 58, 0
16, 546240, Note_on_c, 13, 70, 52
16, 546419, Note_on_c, 13, 70, 0
16, 546480, Note_on_c, 13, 58, 52
16, 546659, Note_on_c, 13, 58, 0
16, 546720, Note_on_c, 13, 75, 52
16, 546899, Note_on_c, 13, 75, 0
16, 546960, Note_on_c, 13, 58, 52
16, 547139, Note_on_c, 13, 58, 0
16, 547200, Note_on_c, 13, 66, 68
16, 547319, Note_on_c, 13, 66, 0
16, 547320, Note_on_c, 13, 66, 52
16, 548144, Note_on_c, 13, 66, 0
16, 548160, Note_on_c, 13, 65, 52
16, 548339, Note_on_c, 13, 65, 0
16, 548400, Note_on_c, 13, 58, 52
16, 548579, Note_on_c, 13, 58, 0
16, 548640, Note_on_c, 13, 68, 68
16, 548759, Note_on_c, 13, 68, 0
16, 548760, Note_on_c, 13, 68, 52
16, 549584, Note_on_c, 13, 68, 0
16, 549600, Note_on_c, 13, 67, 52
16, 549779, Note_on_c, 13, 67, 0
16, 549840, Note_on_c, 13, 58, 52
16, 550019, Note_on_c, 13, 58, 0
16, 550080, Note_on_c, 13, 70, 68
16, 550200, Control_c, 13, 11, 96
16, 550800, Control_c, 13, 11, 80
16, 550980, Control_c, 13, 11, 82
16, 551024, Note_on_c, 13, 70, 0
16, 551040, Note_on_c, 13, 69, 68
16, 551160, Control_c, 13, 11, 84
16, 551219, Note_on_c, 13, 69, 0
16, 551280, Note_on_c, 13, 58, 68
16, 551340, Control_c, 13, 11, 86
16, 551459, Note_on_c, 13, 58, 0
16, 551520, Note_on_c, 13, 69, 68
16, 551520, Control_c, 13, 11, 88
16, 551699, Note_on_c, 13, 69, 0
16, 551700, Control_c, 13, 11, 90
16, 551760, Note_on_c, 13, 58, 68
16, 551880, Control_c, 13, 11, 92
16, 551939, Note_on_c, 13, 58, 0
16, 552000, Note_on_c, 13, 69, 68
16, 552060, Control_c, 13, 11, 94
16, 552179, Note_on_c, 13, 69, 0
16, 552240, Control_c, 13, 11, 96
16, 552240, Note_on_c, 13, 58, 68
16, 552419, Note_on_c, 13, 58, 0
16, 552420, Control_c, 13, 11, 98
16, 552480, Note_on_c, 13, 69, 68
16, 552600, Control_c, 13, 11, 100
16, 552659, Note_on_c, 13, 69, 0
16, 552720, Note_on_c, 13, 58, 68
16, 552780, Control_c, 13, 11, 102
16, 552899, Note_on_c, 13, 58, 0
16, 552960, Control_c, 13, 11, 104
16, 552960, Note_on_c, 13, 69, 68
16, 553139, Note_on_c, 13, 69, 0
16, 553140, Control_c, 13, 11, 105
16, 553200, Note_on_c, 13, 58, 68
16, 553320, Control_c, 13, 11, 107
16, 553379, Note_on_c, 13, 58, 0
16, 553440, Note_on_c, 13, 69, 68
16, 553500, Control_c, 13, 11, 109
16, 553619, Note_on_c, 13, 69, 0
16, 553680, Note_on_c, 13, 58, 68
16, 553680, Control_c, 13, 11, 111
16, 553859, Note_on_c, 13, 58, 0
16, 553860, Control_c, 13, 11, 113
16, 553920, Note_on_c, 13, 70, 68
16, 554040, Control_c, 13, 11, 115
16, 554099, Note_on_c, 13, 70, 0
16, 554160, Note_on_c, 13, 58, 68
16, 554220, Control_c, 13, 11, 117
16, 554339, Note_on_c, 13, 58, 0
16, 554400, Note_on_c, 13, 70, 68
16, 554400, Control_c, 13, 11, 119
16, 554579, Note_on_c, 13, 70, 0
16, 554580, Control_c, 13, 11, 121
16, 554640, Note_on_c, 13, 58, 68
16, 554760, Control_c, 13, 11, 123
16, 554819, Note_on_c, 13, 58, 0
16, 554880, Note_on_c, 13, 70, 68
16, 554940, Control_c, 13, 11, 125
16, 555059, Note_on_c, 13, 70, 0
16, 555120, Control_c, 13, 11, 127
16, 555120, Note_on_c, 13, 59, 68
16, 555240, Control_c, 13, 11, 124
16, 555299, Note_on_c, 13, 59, 0
16, 555360, Note_on_c, 13, 71, 68
16, 555360, Control_c, 13, 11, 122
16, 555480, Control_c, 13, 11, 119
16, 555539, Note_on_c, 13, 71, 0
16, 555600, Control_c, 13, 11, 117
16, 555600, Note_on_c, 13, 59, 68
16, 555720, Control_c, 13, 11, 114
16, 555779, Note_on_c, 13, 59, 0
16, 555840, Control_c, 13, 11, 112
16, 555840, Note_on_c, 13, 71, 68
16, 555960, Control_c, 13, 11, 109
16, 556019, Note_on_c, 13, 71, 0
16, 556080, Note_on_c, 13, 59, 68
16, 556080, Control_c, 13, 11, 106
16, 556200, Control_c, 13, 11, 104
16, 556259, Note_on_c, 13, 59, 0
16, 556320, Control_c, 13, 11, 101
16, 556320, Note_on_c, 13, 71, 68
16, 556440, Control_c, 13, 11, 96
16, 556499, Note_on_c, 13, 71, 0
16, 556560, Note_on_c, 13, 60, 68
16, 556739, Note_on_c, 13, 60, 0
16, 556800, Note_on_c, 13, 72, 68
16, 556979, Note_on_c, 13, 72, 0
16, 557040, Note_on_c, 13, 60, 68
16, 557219, Note_on_c, 13, 60, 0
16, 557280, Note_on_c, 13, 72, 68
16, 557459, Note_on_c, 13, 72, 0
16, 557520, Note_on_c, 13, 60, 68
16, 557699, Note_on_c, 13, 60, 0
16, 557760, Note_on_c, 13, 72, 68
16, 557939, Note_on_c, 13, 72, 0
16, 558000, Note_on_c, 13, 56, 68
16, 558179, Note_on_c, 13, 56, 0
16, 558240, Note_on_c, 13, 68, 68
16, 558419, Note_on_c, 13, 68, 0
16, 558480, Note_on_c, 13, 56, 68
16, 558659, Note_on_c, 13, 56, 0
16, 558720, Note_on_c, 13, 68, 68
16, 558899, Note_on_c, 13, 68, 0
16, 558960, Note_on_c, 13, 56, 68
16, 559139, Note_on_c, 13, 56, 0
16, 559200, Note_on_c, 13, 68, 68
16, 559379, Note_on_c, 13, 68, 0
16, 559440, Note_on_c, 13, 58, 68
16, 559440, Control_c, 13, 11, 96
16, 559619, Note_on_c, 13, 58, 0
16, 559620, Control_c, 13, 11, 99
16, 559680, Note_on_c, 13, 70, 68
16, 559800, Control_c, 13, 11, 101
16, 559859, Note_on_c, 13, 70, 0
16, 559920, Note_on_c, 13, 58, 68
16, 559980, Control_c, 13, 11, 104
16, 560099, Note_on_c, 13, 58, 0
16, 560160, Note_on_c, 13, 70, 68
16, 560160, Control_c, 13, 11, 106
16, 560339, Note_on_c, 13, 70, 0
16, 560340, Control_c, 13, 11, 109
16, 560400, Note_on_c, 13, 58, 68
16, 560520, Control_c, 13, 11, 112
16, 560579, Note_on_c, 13, 58, 0
16, 560640, Note_on_c, 13, 70, 68
16, 560700, Control_c, 13, 11, 114
16, 560819, Note_on_c, 13, 70, 0
16, 560880, Note_on_c, 13, 58, 68
16, 560880, Control_c, 13, 11, 117
16, 561059, Note_on_c, 13, 58, 0
16, 561060, Control_c, 13, 11, 119
16, 561120, Note_on_c, 13, 70, 68
16, 561240, Control_c, 13, 11, 122
16, 561299, Note_on_c, 13, 70, 0
16, 561360, Note_on_c, 13, 58, 68
16, 561420, Control_c, 13, 11, 127
16, 561539, Note_on_c, 13, 58, 0
16, 561600, Note_on_c, 13, 70, 52
16, 561779, Note_on_c, 13, 70, 0
16, 561840, Note_on_c, 13, 58, 52
16, 562019, Note_on_c, 13, 58, 0
16, 562080, Note_on_c, 13, 70, 52
16, 562259, Note_on_c, 13, 70, 0
16, 562320, Note_on_c, 13, 63, 52
16, 562499, Note_on_c, 13, 63, 0
16, 563760, Note_on_c, 13, 63, 52
16, 563999, Note_on_c, 13, 63, 0
16, 564720, Note_on_c, 13, 63, 52
16, 564899, Note_on_c, 13, 63, 0
16, 564960, Note_on_c, 13, 63, 52
16, 565139, Note_on_c, 13, 63, 0
16, 565200, Note_on_c, 13, 62, 52
16, 565379, Note_on_c, 13, 62, 0
16, 566640, Note_on_c, 13, 58, 52
16, 566819, Note_on_c, 13, 58, 0
16, 567600, Note_on_c, 13, 58, 52
16, 567779, Note_on_c, 13, 58, 0
16, 567840, Note_on_c, 13, 58, 52
16, 568019, Note_on_c, 13, 58, 0
16, 568080, Note_on_c, 13, 63, 52
16, 568319, Note_on_c, 13, 63, 0
16, 569520, Note_on_c, 13, 63, 52
16, 569759, Note_on_c, 13, 63, 0
16, 570480, Note_on_c, 13, 63, 52
16, 570659, Note_on_c, 13, 63, 0
16, 570720, Note_on_c, 13, 63, 52
16, 570899, Note_on_c, 13, 63, 0
16, 570960, Note_on_c, 13, 62, 52
16, 571139, Note_on_c, 13, 62, 0
16, 572400, Note_on_c, 13, 58, 52
16, 572579, Note_on_c, 13, 58, 0
16, 573360, Note_on_c, 13, 58, 52
16, 573539, Note_on_c, 13, 58, 0
16, 573600, Note_on_c, 13, 58, 52
16, 573779, Note_on_c, 13, 58, 0
16, 573825, Control_c, 13, 11, 80
16, 573840, Control_c, 13, 11, 80
16, 573840, Note_on_c, 13, 63, 76
16, 574000, Control_c, 13, 11, 81
16, 574160, Control_c, 13, 11, 83
16, 574319, Note_on_c, 13, 63, 0
16, 574320, Control_c, 13, 11, 84
16, 574320, Note_on_c, 13, 67, 76
16, 574480, Control_c, 13, 11, 85
16, 574559, Note_on_c, 13, 67, 0
16, 574560, Note_on_c, 13, 63, 76
16, 574640, Control_c, 13, 11, 87
16, 574800, Control_c, 13, 11, 88
16, 574960, Control_c, 13, 11, 89
16, 575039, Note_on_c, 13, 63, 0
16, 575040, Note_on_c, 13, 58, 76
16, 575120, Control_c, 13, 11, 90
16, 575264, Note_on_c, 13, 58, 0
16, 575280, Control_c, 13, 11, 92
16, 575280, Note_on_c, 13, 63, 76
16, 575440, Control_c, 13, 11, 93
16, 575519, Note_on_c, 13, 63, 0
16, 575520, Note_on_c, 13, 67, 76
16, 575600, Control_c, 13, 11, 94
16, 575744, Note_on_c, 13, 67, 0
16, 575760, Note_on_c, 13, 70, 76
16, 575760, Control_c, 13, 11, 96
16, 575920, Control_c, 13, 11, 97
16, 575939, Note_on_c, 13, 70, 0
16, 576000, Note_on_c, 13, 70, 76
16, 576080, Control_c, 13, 11, 98
16, 576240, Control_c, 13, 11, 100
16, 576400, Control_c, 13, 11, 101
16, 576560, Control_c, 13, 11, 102
16, 576704, Note_on_c, 13, 70, 0
16, 576720, Control_c, 13, 11, 104
16, 576720, Note_on_c, 13, 65, 76
16, 576880, Control_c, 13, 11, 105
16, 577040, Control_c, 13, 11, 106
16, 577199, Note_on_c, 13, 65, 0
16, 577200, Control_c, 13, 11, 107
16, 577200, Note_on_c, 13, 68, 76
16, 577360, Control_c, 13, 11, 109
16, 577439, Note_on_c, 13, 68, 0
16, 577440, Note_on_c, 13, 65, 76
16, 577520, Control_c, 13, 11, 110
16, 577680, Control_c, 13, 11, 111
16, 577840, Control_c, 13, 11, 113
16, 577919, Note_on_c, 13, 65, 0
16, 577920, Note_on_c, 13, 58, 76
16, 578000, Control_c, 13, 11, 114
16, 578144, Note_on_c, 13, 58, 0
16, 578160, Note_on_c, 13, 65, 76
16, 578160, Control_c, 13, 11, 115
16, 578320, Control_c, 13, 11, 117
16, 578399, Note_on_c, 13, 65, 0
16, 578400, Note_on_c, 13, 68, 76
16, 578480, Control_c, 13, 11, 118
16, 578624, Note_on_c, 13, 68, 0
16, 578640, Note_on_c, 13, 70, 76
16, 578640, Control_c, 13, 11, 119
16, 578800, Control_c, 13, 11, 120
16, 578819, Note_on_c, 13, 70, 0
16, 578880, Note_on_c, 13, 70, 76
16, 578960, Control_c, 13, 11, 122
16, 579120, Control_c, 13, 11, 123
16, 579280, Control_c, 13, 11, 124
16, 579440, Control_c, 13, 11, 127
16, 579704, Note_on_c, 13, 70, 0
16, 579720, Note_on_c, 13, 63, 76
16, 579779, Note_on_c, 13, 63, 0
16, 579780, Note_on_c, 13, 65, 76
16, 579839, Note_on_c, 13, 65, 0
16, 579840, Note_on_c, 13, 67, 76
16, 579929, Note_on_c, 13, 67, 0
16, 579960, Note_on_c, 13, 67, 76
16, 580019, Note_on_c, 13, 67, 0
16, 580020, Note_on_c, 13, 68, 76
16, 580079, Note_on_c, 13, 68, 0
16, 580080, Note_on_c, 13, 70, 76
16, 580169, Note_on_c, 13, 70, 0
16, 580200, Note_on_c, 13, 72, 76
16, 580259, Note_on_c, 13, 72, 0
16, 580260, Note_on_c, 13, 74, 76
16, 580319, Note_on_c, 13, 74, 0
16, 580320, Note_on_c, 13, 75, 76
16, 580409, Note_on_c, 13, 75, 0
16, 580440, Note_on_c, 13, 67, 76
16, 580499, Note_on_c, 13, 67, 0
16, 580500, Note_on_c, 13, 68, 76
16, 580559, Note_on_c, 13, 68, 0
16, 580560, Note_on_c, 13, 70, 76
16, 580649, Note_on_c, 13, 70, 0
16, 580680, Note_on_c, 13, 70, 76
16, 580739, Note_on_c, 13, 70, 0
16, 580740, Note_on_c, 13, 72, 76
16, 580799, Note_on_c, 13, 72, 0
16, 580800, Note_on_c, 13, 74, 76
16, 580889, Note_on_c, 13, 74, 0
16, 580920, Note_on_c, 13, 75, 76
16, 580979, Note_on_c, 13, 75, 0
16, 580980, Note_on_c, 13, 77, 76
16, 581039, Note_on_c, 13, 77, 0
16, 581040, Note_on_c, 13, 79, 84
16, 581129, Note_on_c, 13, 79, 0
16, 581160, Note_on_c, 13, 77, 76
16, 581249, Note_on_c, 13, 77, 0
16, 581280, Note_on_c, 13, 75, 76
16, 581369, Note_on_c, 13, 75, 0
16, 581400, Note_on_c, 13, 74, 76
16, 581489, Note_on_c, 13, 74, 0
16, 581520, Note_on_c, 13, 72, 76
16, 581609, Note_on_c, 13, 72, 0
16, 581640, Note_on_c, 13, 70, 76
16, 581729, Note_on_c, 13, 70, 0
16, 581760, Note_on_c, 13, 68, 76
16, 581849, Note_on_c, 13, 68, 0
16, 581880, Note_on_c, 13, 67, 76
16, 581969, Note_on_c, 13, 67, 0
16, 582000, Note_on_c, 13, 65, 76
16, 582089, Note_on_c, 13, 65, 0
16, 582120, Note_on_c, 13, 63, 76
16, 582209, Note_on_c, 13, 63, 0
16, 582240, Note_on_c, 13, 62, 76
16, 582329, Note_on_c, 13, 62, 0
16, 582360, Note_on_c, 13, 60, 76
16, 582449, Note_on_c, 13, 60, 0
16, 582480, Note_on_c, 13, 58, 76
16, 582569, Note_on_c, 13, 58, 0
16, 582600, Note_on_c, 13, 58, 76
16, 582659, Note_on_c, 13, 58, 0
16, 582660, Note_on_c, 13, 60, 76
16, 582719, Note_on_c, 13, 60, 0
16, 582720, Note_on_c, 13, 62, 76
16, 582809, Note_on_c, 13, 62, 0
16, 582840, Note_on_c, 13, 62, 76
16, 582899, Note_on_c, 13, 62, 0
16, 582900, Note_on_c, 13, 63, 76
16, 582959, Note_on_c, 13, 63, 0
16, 582960, Note_on_c, 13, 65, 76
16, 583049, Note_on_c, 13, 65, 0
16, 583080, Note_on_c, 13, 65, 76
16, 583139, Note_on_c, 13, 65, 0
16, 583140, Note_on_c, 13, 67, 76
16, 583199, Note_on_c, 13, 67, 0
16, 583200, Note_on_c, 13, 68, 76
16, 583289, Note_on_c, 13, 68, 0
16, 583320, Note_on_c, 13, 62, 76
16, 583379, Note_on_c, 13, 62, 0
16, 583380, Note_on_c, 13, 63, 76
16, 583439, Note_on_c, 13, 63, 0
16, 583440, Note_on_c, 13, 65, 76
16, 583529, Note_on_c, 13, 65, 0
16, 583560, Note_on_c, 13, 65, 76
16, 583619, Note_on_c, 13, 65, 0
16, 583620, Note_on_c, 13, 67, 76
16, 583679, Note_on_c, 13, 67, 0
16, 583680, Note_on_c, 13, 68, 76
16, 583769, Note_on_c, 13, 68, 0
16, 583800, Note_on_c, 13, 68, 76
16, 583859, Note_on_c, 13, 68, 0
16, 583860, Note_on_c, 13, 70, 76
16, 583919, Note_on_c, 13, 70, 0
16, 583920, Note_on_c, 13, 72, 84
16, 584009, Note_on_c, 13, 72, 0
16, 584040, Note_on_c, 13, 70, 76
16, 584129, Note_on_c, 13, 70, 0
16, 584160, Note_on_c, 13, 68, 76
16, 584249, Note_on_c, 13, 68, 0
16, 584280, Note_on_c, 13, 67, 76
16, 584369, Note_on_c, 13, 67, 0
16, 584400, Note_on_c, 13, 65, 76
16, 584489, Note_on_c, 13, 65, 0
16, 584520, Note_on_c, 13, 63, 76
16, 584609, Note_on_c, 13, 63, 0
16, 584640, Note_on_c, 13, 62, 76
16, 584729, Note_on_c, 13, 62, 0
16, 584760, Note_on_c, 13, 60, 76
16, 584849, Note_on_c, 13, 60, 0
16, 584880, Note_on_c, 13, 58, 76
16, 584969, Note_on_c, 13, 58, 0
16, 585000, Note_on_c, 13, 56, 76
16, 585089, Note_on_c, 13, 56, 0
16, 585120, Note_on_c, 13, 55, 76
16, 585209, Note_on_c, 13, 55, 0
16, 585240, Note_on_c, 13, 53, 76
16, 585329, Note_on_c, 13, 53, 0
16, 585360, Note_on_c, 13, 55, 76
16, 585464, Note_on_c, 13, 55, 0
16, 585480, Note_on_c, 13, 55, 76
16, 585584, Note_on_c, 13, 55, 0
16, 585600, Note_on_c, 13, 58, 76
16, 585704, Note_on_c, 13, 58, 0
16, 585720, Note_on_c, 13, 58, 76
16, 585824, Note_on_c, 13, 58, 0
16, 585840, Note_on_c, 13, 61, 76
16, 585944, Note_on_c, 13, 61, 0
16, 585960, Note_on_c, 13, 61, 76
16, 586064, Note_on_c, 13, 61, 0
16, 586080, Note_on_c, 13, 61, 84
16, 586769, Note_on_c, 13, 61, 0
16, 586800, Note_on_c, 13, 56, 84
16, 587144, Note_on_c, 13, 56, 0
16, 587160, Note_on_c, 13, 56, 76
16, 587249, Note_on_c, 13, 56, 0
16, 587280, Note_on_c, 13, 60, 76
16, 587369, Note_on_c, 13, 60, 0
16, 587400, Note_on_c, 13, 65, 76
16, 587489, Note_on_c, 13, 65, 0
16, 587520, Note_on_c, 13, 57, 84
16, 587864, Note_on_c, 13, 57, 0
16, 587880, Note_on_c, 13, 57, 76
16, 587969, Note_on_c, 13, 57, 0
16, 588000, Note_on_c, 13, 60, 76
16, 588089, Note_on_c, 13, 60, 0
16, 588120, Note_on_c, 13, 63, 76
16, 588209, Note_on_c, 13, 63, 0
16, 588240, Note_on_c, 13, 58, 84
16, 588584, Note_on_c, 13, 58, 0
16, 588600, Note_on_c, 13, 58, 76
16, 588689, Note_on_c, 13, 58, 0
16, 588720, Note_on_c, 13, 63, 76
16, 588809, Note_on_c, 13, 63, 0
16, 588840, Note_on_c, 13, 67, 76
16, 588929, Note_on_c, 13, 67, 0
16, 588960, Note_on_c, 13, 59, 76
16, 589064, Note_on_c, 13, 59, 0
16, 589080, Note_on_c, 13, 62, 76
16, 589184, Note_on_c, 13, 62, 0
16, 589200, Note_on_c, 13, 65, 76
16, 589304, Note_on_c, 13, 65, 0
16, 589320, Note_on_c, 13, 59, 76
16, 589424, Note_on_c, 13, 59, 0
16, 589440, Note_on_c, 13, 62, 76
16, 589544, Note_on_c, 13, 62, 0
16, 589560, Note_on_c, 13, 65, 76
16, 589664, Note_on_c, 13, 65, 0
16, 589680, Note_on_c, 13, 60, 76
16, 589784, Note_on_c, 13, 60, 0
16, 589800, Note_on_c, 13, 63, 76
16, 589904, Note_on_c, 13, 63, 0
16, 589920, Note_on_c, 13, 67, 76
16, 590024, Note_on_c, 13, 67, 0
16, 590040, Note_on_c, 13, 60, 76
16, 590144, Note_on_c, 13, 60, 0
16, 590160, Note_on_c, 13, 63, 76
16, 590264, Note_on_c, 13, 63, 0
16, 590280, Note_on_c, 13, 67, 76
16, 590384, Note_on_c, 13, 67, 0
16, 590400, Note_on_c, 13, 56, 76
16, 590504, Note_on_c, 13, 56, 0
16, 590520, Note_on_c, 13, 60, 76
16, 590624, Note_on_c, 13, 60, 0
16, 590640, Note_on_c, 13, 65, 76
16, 590744, Note_on_c, 13, 65, 0
16, 590760, Note_on_c, 13, 56, 76
16, 590864, Note_on_c, 13, 56, 0
16, 590880, Note_on_c, 13, 60, 76
16, 590984, Note_on_c, 13, 60, 0
16, 591000, Note_on_c, 13, 65, 76
16, 591104, Note_on_c, 13, 65, 0
16, 591120, Note_on_c, 13, 58, 84
16, 591224, Note_on_c, 13, 58, 0
16, 591240, Note_on_c, 13, 63, 84
16, 591344, Note_on_c, 13, 63, 0
16, 591360, Note_on_c, 13, 67, 84
16, 591464, Note_on_c, 13, 67, 0
16, 591480, Note_on_c, 13, 58, 84
16, 591584, Note_on_c, 13, 58, 0
16, 591600, Note_on_c, 13, 63, 84
16, 591704, Note_on_c, 13, 63, 0
16, 591720, Note_on_c, 13, 67, 84
16, 591824, Note_on_c, 13, 67, 0
16, 591840, Note_on_c, 13, 70, 84
16, 591944, Note_on_c, 13, 70, 0
16, 591960, Note_on_c, 13, 58, 84
16, 592064, Note_on_c, 13, 58, 0
16, 592080, Note_on_c, 13, 58, 84
16, 592184, Note_on_c, 13, 58, 0
16, 592200, Note_on_c, 13, 58, 84
16, 592304, Note_on_c, 13, 58, 0
16, 592320, Note_on_c, 13, 58, 84
16, 592424, Note_on_c, 13, 58, 0
16, 592440, Note_on_c, 13, 58, 84
16, 592544, Note_on_c, 13, 58, 0
16, 592560, Note_on_c, 13, 63, 52
16, 592799, Note_on_c, 13, 63, 0
16, 597240, Note_on_c, 13, 70, 67
16, 597329, Note_on_c, 13, 70, 0
16, 597360, Note_on_c, 13, 68, 68
16, 597449, Note_on_c, 13, 68, 0
16, 597480, Note_on_c, 13, 67, 69
16, 597569, Note_on_c, 13, 67, 0
16, 597600, Note_on_c, 13, 65, 70
16, 597689, Note_on_c, 13, 65, 0
16, 597720, Note_on_c, 13, 67, 71
16, 597809, Note_on_c, 13, 67, 0
16, 597840, Note_on_c, 13, 68, 72
16, 597929, Note_on_c, 13, 68, 0
16, 597960, Note_on_c, 13, 67, 73
16, 598049, Note_on_c, 13, 67, 0
16, 598080, Note_on_c, 13, 65, 74
16, 598169, Note_on_c, 13, 65, 0
16, 598200, Note_on_c, 13, 63, 75
16, 598289, Note_on_c, 13, 63, 0
16, 598320, Note_on_c, 13, 62, 76
16, 598544, Note_on_c, 13, 62, 0
16, 598560, Note_on_c, 13, 65, 76
16, 599264, Note_on_c, 13, 65, 0
16, 599280, Note_on_c, 13, 68, 76
16, 599984, Note_on_c, 13, 68, 0
16, 600000, Note_on_c, 13, 62, 76
16, 600464, Note_on_c, 13, 62, 0
16, 600480, Note_on_c, 13, 65, 76
16, 600944, Note_on_c, 13, 65, 0
16, 600960, Note_on_c, 13, 65, 76
16, 601139, Note_on_c, 13, 65, 0
16, 601200, Note_on_c, 13, 65, 76
16, 601379, Note_on_c, 13, 65, 0
16, 601440, Note_on_c, 13, 58, 84
16, 601491, Note_on_c, 13, 58, 0
16, 601500, Note_on_c, 13, 58, 84
16, 601551, Note_on_c, 13, 58, 0
16, 601560, Note_on_c, 13, 58, 84
16, 601611, Note_on_c, 13, 58, 0
16, 601620, Note_on_c, 13, 58, 84
16, 601671, Note_on_c, 13, 58, 0
16, 601680, Note_on_c, 13, 58, 84
16, 601731, Note_on_c, 13, 58, 0
16, 601740, Note_on_c, 13, 58, 84
16, 601791, Note_on_c, 13, 58, 0
16, 601800, Note_on_c, 13, 58, 84
16, 601851, Note_on_c, 13, 58, 0
16, 601860, Note_on_c, 13, 58, 84
16, 601911, Note_on_c, 13, 58, 0
16, 601920, Note_on_c, 13, 58, 84
16, 601971, Note_on_c, 13, 58, 0
16, 601980, Note_on_c, 13, 58, 84
16, 602031, Note_on_c, 13, 58, 0
16, 602040, Note_on_c, 13, 58, 84
16, 602091, Note_on_c, 13, 58, 0
16, 602100, Note_on_c, 13, 58, 84
16, 602151, Note_on_c, 13, 58, 0
16, 602160, Note_on_c, 13, 58, 84
16, 602211, Note_on_c, 13, 58, 0
16, 602220, Note_on_c, 13, 58, 84
16, 602271, Note_on_c, 13, 58, 0
16, 602280, Note_on_c, 13, 58, 84
16, 602331, Note_on_c, 13, 58, 0
16, 602340, Note_on_c, 13, 58, 84
16, 602391, Note_on_c, 13, 58, 0
16, 602400, Note_on_c, 13, 58, 84
16, 602451, Note_on_c, 13, 58, 0
16, 602460, Note_on_c, 13, 58, 84
16, 602511, Note_on_c, 13, 58, 0
16, 602520, Note_on_c, 13, 58, 84
16, 602571, Note_on_c, 13, 58, 0
16, 602580, Note_on_c, 13, 58, 84
16, 602631, Note_on_c, 13, 58, 0
16, 602640, Note_on_c, 13, 58, 84
16, 602691, Note_on_c, 13, 58, 0
16, 602700, Note_on_c, 13, 58, 84
16, 602751, Note_on_c, 13, 58, 0
16, 602760, Note_on_c, 13, 58, 84
16, 602811, Note_on_c, 13, 58, 0
16, 602820, Note_on_c, 13, 58, 84
16, 602871, Note_on_c, 13, 58, 0
16, 602880, Note_on_c, 13, 58, 84
16, 602931, Note_on_c, 13, 58, 0
16, 602940, Note_on_c, 13, 58, 84
16, 602991, Note_on_c, 13, 58, 0
16, 603000, Note_on_c, 13, 58, 84
16, 603051, Note_on_c, 13, 58, 0
16, 603060, Note_on_c, 13, 58, 84
16, 603111, Note_on_c, 13, 58, 0
16, 603120, Note_on_c, 13, 58, 84
16, 603171, Note_on_c, 13, 58, 0
16, 603180, Note_on_c, 13, 58, 84
16, 603231, Note_on_c, 13, 58, 0
16, 603240, Note_on_c, 13, 58, 84
16, 603291, Note_on_c, 13, 58, 0
16, 603300, Note_on_c, 13, 58, 84
16, 603351, Note_on_c, 13, 58, 0
16, 603360, Note_on_c, 13, 58, 84
16, 603411, Note_on_c, 13, 58, 0
16, 603420, Note_on_c, 13, 58, 84
16, 603471, Note_on_c, 13, 58, 0
16, 603480, Note_on_c, 13, 58, 84
16, 603531, Note_on_c, 13, 58, 0
16, 603540, Note_on_c, 13, 58, 84
16, 603591, Note_on_c, 13, 58, 0
16, 603600, Note_on_c, 13, 58, 84
16, 603651, Note_on_c, 13, 58, 0
16, 603660, Note_on_c, 13, 58, 84
16, 603711, Note_on_c, 13, 58, 0
16, 603720, Note_on_c, 13, 58, 84
16, 603771, Note_on_c, 13, 58, 0
16, 603780, Note_on_c, 13, 58, 84
16, 603831, Note_on_c, 13, 58, 0
16, 603840, Note_on_c, 13, 58, 84
16, 603891, Note_on_c, 13, 58, 0
16, 603900, Note_on_c, 13, 58, 84
16, 603951, Note_on_c, 13, 58, 0
16, 603960, Note_on_c, 13, 58, 84
16, 604011, Note_on_c, 13, 58, 0
16, 604020, Note_on_c, 13, 58, 84
16, 604071, Note_on_c, 13, 58, 0
16, 604080, Note_on_c, 13, 63, 84
16, 604319, Note_on_c, 13, 63, 0
16, 604800, Note_on_c, 13, 75, 84
16, 604800, Note_on_c, 13, 63, 84
16, 604800, Note_on_c, 13, 55, 84
16, 605039, Note_on_c, 13, 75, 0
16, 605039, Note_on_c, 13, 63, 0
16, 605039, Note_on_c, 13, 55, 0
16, 605520, Note_on_c, 13, 51, 84
16, 605759, Note_on_c, 13, 51, 0
16, 605759, End_track
17, 0, Start_track
17, 0, Title_t, "Cello"
17, 0, MIDI_port, 0
17, 0, Program_c, 14, 48
17, 0, Control_c, 14, 7, 96
17, 0, Control_c, 14, 10, 90
17, 0, Control_c, 14, 11, 127
17, 0, Note_on_c, 14, 51, 76
17, 179, Note_on_c, 14, 51, 0
17, 720, Note_on_c, 14, 51, 76
17, 899, Note_on_c, 14, 51, 0
17, 1200, Control_c, 14, 11, 96
17, 1440, Note_on_c, 14, 51, 68
17, 1919, Note_on_c, 14, 51, 0
17, 1920, Note_on_c, 14, 55, 68
17, 2159, Note_on_c, 14, 55, 0
17, 2160, Note_on_c, 14, 51, 68
17, 2639, Note_on_c, 14, 51, 0
17, 2640, Note_on_c, 14, 46, 68
17, 2864, Note_on_c, 14, 46, 0
17, 2880, Note_on_c, 14, 51, 68
17, 3119, Note_on_c, 14, 51, 0
17, 3120, Note_on_c, 14, 55, 68
17, 3359, Note_on_c, 14, 55, 0
17, 3360, Note_on_c, 14, 58, 68
17, 3584, Note_on_c, 14, 58, 0
17, 3600, Note_on_c, 14, 51, 68
17, 4079, Note_on_c, 14, 51, 0
17, 4080, Note_on_c, 14, 50, 68
17, 4319, Note_on_c, 14, 50, 0
17, 4320, Note_on_c, 14, 49, 68
17, 4320, Control_c, 14, 11, 96
17, 4440, Control_c, 14, 11, 99
17, 4560, Control_c, 14, 11, 101
17, 4680, Control_c, 14, 11, 104
17, 4800, Control_c, 14, 11, 106
17, 4920, Control_c, 14, 11, 109
17, 5040, Control_c, 14, 11, 112
17, 5160, Control_c, 14, 11, 114
17, 5280, Control_c, 14, 11, 117
17, 5400, Control_c, 14, 11, 119
17, 5520, Control_c, 14, 11, 122
17, 5640, Control_c, 14, 11, 124
17, 5729, Note_on_c, 14, 49, 0
17, 5760, Note_on_c, 14, 50, 76
17, 5760, Control_c, 14, 11, 127
17, 6479, Note_on_c, 14, 50, 0
17, 6480, Note_on_c, 14, 50, 68
17, 6480, Control_c, 14, 11, 127
17, 6540, Control_c, 14, 11, 124
17, 6600, Control_c, 14, 11, 122
17, 6660, Control_c, 14, 11, 119
17, 6720, Control_c, 14, 11, 117
17, 6780, Control_c, 14, 11, 114
17, 6840, Control_c, 14, 11, 112
17, 6900, Control_c, 14, 11, 109
17, 6944, Note_on_c, 14, 50, 0
17, 6960, Note_on_c, 14, 50, 68
17, 6960, Control_c, 14, 11, 106
17, 7020, Control_c, 14, 11, 104
17, 7080, Control_c, 14, 11, 101
17, 7140, Control_c, 14, 11, 96
17, 7199, Note_on_c, 14, 50, 0
17, 7200, Note_on_c, 14, 51, 68
17, 7904, Note_on_c, 14, 51, 0
17, 7920, Note_on_c, 14, 44, 68
17, 8159, Note_on_c, 14, 44, 0
17, 8160, Note_on_c, 14, 46, 68
17, 8399, Note_on_c, 14, 46, 0
17, 8400, Note_on_c, 14, 48, 68
17, 8624, Note_on_c, 14, 48, 0
17, 8640, Note_on_c, 14, 46, 68
17, 8640, Control_c, 14, 11, 96
17, 8760, Control_c, 14, 11, 99
17, 8880, Control_c, 14, 11, 101
17, 9000, Control_c, 14, 11, 104
17, 9120, Control_c, 14, 11, 106
17, 9240, Control_c, 14, 11, 109
17, 9360, Control_c, 14, 11, 112
17, 9480, Control_c, 14, 11, 114
17, 9584, Note_on_c, 14, 46, 0
17, 9600, Note_on_c, 14, 46, 68
17, 9600, Control_c, 14, 11, 117
17, 9720, Control_c, 14, 11, 119
17, 9779, Note_on_c, 14, 46, 0
17, 9840, Control_c, 14, 11, 122
17, 9840, Note_on_c, 14, 46, 68
17, 9960, Control_c, 14, 11, 127
17, 10019, Note_on_c, 14, 46, 0
17, 10080, Note_on_c, 14, 51, 52
17, 10319, Note_on_c, 14, 51, 0
17, 12720, Note_on_c, 14, 48, 52
17, 12959, Note_on_c, 14, 48, 0
17, 12960, Note_on_c, 14, 53, 52
17, 13199, Note_on_c, 14, 53, 0
17, 13200, Note_on_c, 14, 56, 52
17, 13439, Note_on_c, 14, 56, 0
17, 13440, Note_on_c, 14, 60, 52
17, 13664, Note_on_c, 14, 60, 0
17, 13680, Note_on_c, 14, 53, 52
17, 13919, Note_on_c, 14, 53, 0
17, 15300, Control_c, 14, 11, 92
17, 15360, Control_c, 14, 11, 96
17, 15360, Note_on_c, 14, 48, 76
17, 15420, Control_c, 14, 11, 100
17, 15480, Control_c, 14, 11, 104
17, 15540, Control_c, 14, 11, 107
17, 15599, Note_on_c, 14, 48, 0
17, 15600, Control_c, 14, 11, 111
17, 15600, Note_on_c, 14, 47, 76
17, 15660, Control_c, 14, 11, 115
17, 15720, Control_c, 14, 11, 119
17, 15780, Control_c, 14, 11, 123
17, 15824, Note_on_c, 14, 47, 0
17, 15840, Note_on_c, 14, 46, 76
17, 15840, Control_c, 14, 11, 127
17, 15944, Note_on_c, 14, 46, 0
17, 15960, Note_on_c, 14, 46, 52
17, 16079, Note_on_c, 14, 46, 0
17, 16080, Note_on_c, 14, 50, 52
17, 16199, Note_on_c, 14, 50, 0
17, 16200, Note_on_c, 14, 53, 52
17, 16319, Note_on_c, 14, 53, 0
17, 16320, Note_on_c, 14, 58, 52
17, 16439, Note_on_c, 14, 58, 0
17, 16440, Note_on_c, 14, 62, 52
17, 16559, Note_on_c, 14, 62, 0
17, 16560, Note_on_c, 14, 65, 52
17, 16799, Note_on_c, 14, 65, 0
17, 17040, Note_on_c, 14, 46, 52
17, 17489, Note_on_c, 14, 46, 0
17, 17520, Note_on_c, 14, 46, 76
17, 17969, Note_on_c, 14, 46, 0
17, 18000, Note_on_c, 14, 46, 76
17, 18449, Note_on_c, 14, 46, 0
17, 18480, Note_on_c, 14, 46, 76
17, 18689, Note_on_c, 14, 46, 0
17, 18720, Note_on_c, 14, 46, 76
17, 18824, Note_on_c, 14, 46, 0
17, 18840, Note_on_c, 14, 46, 52
17, 18959, Note_on_c, 14, 46, 0
17, 18960, Note_on_c, 14, 50, 52
17, 19079, Note_on_c, 14, 50, 0
17, 19080, Note_on_c, 14, 53, 52
17, 19199, Note_on_c, 14, 53, 0
17, 19200, Note_on_c, 14, 58, 52
17, 19319, Note_on_c, 14, 58, 0
17, 19320, Note_on_c, 14, 62, 52
17, 19439, Note_on_c, 14, 62, 0
17, 19440, Note_on_c, 14, 65, 52
17, 19679, Note_on_c, 14, 65, 0
17, 19920, Note_on_c, 14, 46, 76
17, 20159, Note_on_c, 14, 46, 0
17, 20160, Note_on_c, 14, 44, 52
17, 20339, Note_on_c, 14, 44, 0
17, 20400, Note_on_c, 14, 56, 76
17, 20849, Note_on_c, 14, 56, 0
17, 20880, Note_on_c, 14, 56, 76
17, 21329, Note_on_c, 14, 56, 0
17, 21360, Note_on_c, 14, 56, 76
17, 21809, Note_on_c, 14, 56, 0
17, 21840, Note_on_c, 14, 55, 76
17, 22289, Note_on_c, 14, 55, 0
17, 22320, Note_on_c, 14, 55, 76
17, 22769, Note_on_c, 14, 55, 0
17, 22800, Note_on_c, 14, 55, 76
17, 23249, Note_on_c, 14, 55, 0
17, 23280, Note_on_c, 14, 56, 52
17, 23459, Note_on_c, 14, 56, 0
17, 23520, Note_on_c, 14, 56, 76
17, 23969, Note_on_c, 14, 56, 0
17, 24000, Note_on_c, 14, 55, 52
17, 24179, Note_on_c, 14, 55, 0
17, 24240, Note_on_c, 14, 55, 76
17, 24449, Note_on_c, 14, 55, 0
17, 24480, Note_on_c, 14, 53, 52
17, 24584, Note_on_c, 14, 53, 0
17, 24600, Note_on_c, 14, 53, 54
17, 24689, Note_on_c, 14, 53, 0
17, 24720, Note_on_c, 14, 53, 57
17, 24809, Note_on_c, 14, 53, 0
17, 24840, Note_on_c, 14, 53, 60
17, 24929, Note_on_c, 14, 53, 0
17, 24960, Note_on_c, 14, 53, 62
17, 25049, Note_on_c, 14, 53, 0
17, 25080, Note_on_c, 14, 53, 65
17, 25169, Note_on_c, 14, 53, 0
17, 25200, Note_on_c, 14, 46, 68
17, 25304, Note_on_c, 14, 46, 0
17, 25320, Note_on_c, 14, 58, 70
17, 25424, Note_on_c, 14, 58, 0
17, 25440, Note_on_c, 14, 58, 73
17, 25544, Note_on_c, 14, 58, 0
17, 25560, Note_on_c, 14, 58, 76
17, 25664, Note_on_c, 14, 58, 0
17, 25680, Note_on_c, 14, 58, 78
17, 25784, Note_on_c, 14, 58, 0
17, 25800, Note_on_c, 14, 58, 81
17, 25904, Note_on_c, 14, 58, 0
17, 25920, Note_on_c, 14, 51, 84
17, 26399, Note_on_c, 14, 51, 0
17, 26400, Note_on_c, 14, 55, 84
17, 26639, Note_on_c, 14, 55, 0
17, 26640, Note_on_c, 14, 51, 84
17, 27119, Note_on_c, 14, 51, 0
17, 27120, Note_on_c, 14, 46, 84
17, 27344, Note_on_c, 14, 46, 0
17, 27360, Note_on_c, 14, 51, 84
17, 27599, Note_on_c, 14, 51, 0
17, 27600, Note_on_c, 14, 55, 84
17, 27839, Note_on_c, 14, 55, 0
17, 27840, Note_on_c, 14, 58, 84
17, 28064, Note_on_c, 14, 58, 0
17, 28080, Note_on_c, 14, 51, 84
17, 28544, Note_on_c, 14, 51, 0
17, 28560, Note_on_c, 14, 43, 92
17, 28784, Note_on_c, 14, 43, 0
17, 28800, Note_on_c, 14, 48, 84
17, 29039, Note_on_c, 14, 48, 0
17, 29040, Note_on_c, 14, 51, 84
17, 29279, Note_on_c, 14, 51, 0
17, 29280, Note_on_c, 14, 55, 84
17, 29504, Note_on_c, 14, 55, 0
17, 29520, Note_on_c, 14, 48, 84
17, 29984, Note_on_c, 14, 48, 0
17, 30000, Note_on_c, 14, 39, 92
17, 30224, Note_on_c, 14, 39, 0
17, 30240, Note_on_c, 14, 44, 84
17, 30344, Note_on_c, 14, 44, 0
17, 30360, Note_on_c, 14, 56, 84
17, 30464, Note_on_c, 14, 56, 0
17, 30480, Note_on_c, 14, 56, 84
17, 30584, Note_on_c, 14, 56, 0
17, 30600, Note_on_c, 14, 56, 84
17, 30704, Note_on_c, 14, 56, 0
17, 30720, Note_on_c, 14, 56, 84
17, 30824, Note_on_c, 14, 56, 0
17, 30840, Note_on_c, 14, 56, 84
17, 30944, Note_on_c, 14, 56, 0
17, 30960, Note_on_c, 14, 54, 84
17, 31064, Note_on_c, 14, 54, 0
17, 31080, Note_on_c, 14, 54, 84
17, 31184, Note_on_c, 14, 54, 0
17, 31200, Note_on_c, 14, 54, 84
17, 31304, Note_on_c, 14, 54, 0
17, 31320, Note_on_c, 14, 54, 84
17, 31424, Note_on_c, 14, 54, 0
17, 31440, Note_on_c, 14, 54, 84
17, 31544, Note_on_c, 14, 54, 0
17, 31560, Note_on_c, 14, 54, 84
17, 31664, Note_on_c, 14, 54, 0
17, 31680, Note_on_c, 14, 53, 84
17, 31919, Note_on_c, 14, 53, 0
17, 33120, Note_on_c, 14, 41, 52
17, 33299, Note_on_c, 14, 41, 0
17, 33360, Note_on_c, 14, 45, 52
17, 33539, Note_on_c, 14, 45, 0
17, 33600, Note_on_c, 14, 48, 52
17, 33779, Note_on_c, 14, 48, 0
17, 33840, Note_on_c, 14, 53, 52
17, 34019, Note_on_c, 14, 53, 0
17, 34080, Note_on_c, 14, 57, 52
17, 34259, Note_on_c, 14, 57, 0
17, 34320, Note_on_c, 14, 60, 52
17, 34499, Note_on_c, 14, 60, 0
17, 34560, Note_on_c, 14, 53, 52
17, 34799, Note_on_c, 14, 53, 0
17, 36000, Note_on_c, 14, 41, 52
17, 36179, Note_on_c, 14, 41, 0
17, 36240, Note_on_c, 14, 46, 52
17, 36419, Note_on_c, 14, 46, 0
17, 36480, Note_on_c, 14, 50, 52
17, 36659, Note_on_c, 14, 50, 0
17, 36720, Note_on_c, 14, 53, 52
17, 36899, Note_on_c, 14, 53, 0
17, 36960, Note_on_c, 14, 62, 52
17, 37139, Note_on_c, 14, 62, 0
17, 37200, Note_on_c, 14, 58, 52
17, 37379, Note_on_c, 14, 58, 0
17, 37440, Note_on_c, 14, 53, 52
17, 37679, Note_on_c, 14, 53, 0
17, 39120, Note_on_c, 14, 55, 84
17, 39464, Note_on_c, 14, 55, 0
17, 39480, Note_on_c, 14, 53, 84
17, 39584, Note_on_c, 14, 53, 0
17, 39600, Note_on_c, 14, 51, 84
17, 39779, Note_on_c, 14, 51, 0
17, 39840, Note_on_c, 14, 50, 84
17, 40019, Note_on_c, 14, 50, 0
17, 40080, Note_on_c, 14, 48, 84
17, 40259, Note_on_c, 14, 48, 0
17, 40305, Control_c, 14, 11, 96
17, 40320, Note_on_c, 14, 58, 68
17, 40320, Control_c, 14, 11, 96
17, 40380, Control_c, 14, 11, 99
17, 40440, Control_c, 14, 11, 101
17, 40500, Control_c, 14, 11, 104
17, 40560, Control_c, 14, 11, 106
17, 40620, Control_c, 14, 11, 109
17, 40680, Control_c, 14, 11, 112
17, 40740, Control_c, 14, 11, 114
17, 40799, Note_on_c, 14, 58, 0
17, 40800, Control_c, 14, 11, 117
17, 40800, Note_on_c, 14, 57, 68
17, 40860, Control_c, 14, 11, 119
17, 40919, Note_on_c, 14, 57, 0
17, 40920, Control_c, 14, 11, 122
17, 40920, Note_on_c, 14, 56, 68
17, 40980, Control_c, 14, 11, 124
17, 41039, Note_on_c, 14, 56, 0
17, 41040, Control_c, 14, 11, 127
17, 41040, Note_on_c, 14, 55, 68
17, 41100, Control_c, 14, 11, 124
17, 41160, Control_c, 14, 11, 122
17, 41220, Control_c, 14, 11, 119
17, 41279, Note_on_c, 14, 55, 0
17, 41280, Note_on_c, 14, 53, 68
17, 41280, Control_c, 14, 11, 117
17, 41340, Control_c, 14, 11, 114
17, 41400, Control_c, 14, 11, 112
17, 41460, Control_c, 14, 11, 109
17, 41519, Note_on_c, 14, 53, 0
17, 41520, Control_c, 14, 11, 106
17, 41520, Note_on_c, 14, 51, 68
17, 41580, Control_c, 14, 11, 104
17, 41640, Control_c, 14, 11, 101
17, 41700, Control_c, 14, 11, 96
17, 41759, Note_on_c, 14, 51, 0
17, 41760, Note_on_c, 14, 50, 68
17, 41849, Note_on_c, 14, 50, 0
17, 41880, Note_on_c, 14, 53, 68
17, 41969, Note_on_c, 14, 53, 0
17, 42000, Note_on_c, 14, 51, 68
17, 42089, Note_on_c, 14, 51, 0
17, 42120, Note_on_c, 14, 50, 68
17, 42209, Note_on_c, 14, 50, 0
17, 42240, Note_on_c, 14, 48, 68
17, 42329, Note_on_c, 14, 48, 0
17, 42360, Note_on_c, 14, 46, 68
17, 42449, Note_on_c, 14, 46, 0
17, 42480, Note_on_c, 14, 45, 68
17, 42569, Note_on_c, 14, 45, 0
17, 42600, Note_on_c, 14, 46, 68
17, 42689, Note_on_c, 14, 46, 0
17, 42720, Note_on_c, 14, 48, 68
17, 42809, Note_on_c, 14, 48, 0
17, 42840, Note_on_c, 14, 41, 68
17, 42929, Note_on_c, 14, 41, 0
17, 42960, Note_on_c, 14, 43, 68
17, 43049, Note_on_c, 14, 43, 0
17, 43080, Note_on_c, 14, 45, 68
17, 43169, Note_on_c, 14, 45, 0
17, 43185, Control_c, 14, 11, 80
17, 43200, Control_c, 14, 11, 80
17, 43200, Note_on_c, 14, 46, 76
17, 43289, Note_on_c, 14, 46, 0
17, 43320, Control_c, 14, 11, 82
17, 43320, Note_on_c, 14, 58, 76
17, 43409, Note_on_c, 14, 58, 0
17, 43440, Control_c, 14, 11, 84
17, 43440, Note_on_c, 14, 58, 76
17, 43529, Note_on_c, 14, 58, 0
17, 43560, Control_c, 14, 11, 86
17, 43560, Note_on_c, 14, 58, 76
17, 43679, Note_on_c, 14, 58, 0
17, 43680, Control_c, 14, 11, 88
17, 43680, Note_on_c, 14, 57, 76
17, 43799, Note_on_c, 14, 57, 0
17, 43800, Note_on_c, 14, 56, 76
17, 43800, Control_c, 14, 11, 90
17, 43904, Note_on_c, 14, 56, 0
17, 43920, Control_c, 14, 11, 92
17, 43920, Note_on_c, 14, 55, 76
17, 44039, Note_on_c, 14, 55, 0
17, 44040, Control_c, 14, 11, 94
17, 44040, Note_on_c, 14, 53, 76
17, 44144, Note_on_c, 14, 53, 0
17, 44160, Note_on_c, 14, 51, 76
17, 44160, Control_c, 14, 11, 96
17, 44264, Note_on_c, 14, 51, 0
17, 44280, Control_c, 14, 11, 98
17, 44280, Note_on_c, 14, 55, 76
17, 44369, Note_on_c, 14, 55, 0
17, 44400, Control_c, 14, 11, 100
17, 44400, Note_on_c, 14, 53, 76
17, 44489, Note_on_c, 14, 53, 0
17, 44520, Note_on_c, 14, 51, 76
17, 44520, Control_c, 14, 11, 102
17, 44609, Note_on_c, 14, 51, 0
17, 44640, Note_on_c, 14, 50, 76
17, 44640, Control_c, 14, 11, 104
17, 44729, Note_on_c, 14, 50, 0
17, 44760, Note_on_c, 14, 53, 76
17, 44760, Control_c, 14, 11, 105
17, 44849, Note_on_c, 14, 53, 0
17, 44880, Note_on_c, 14, 51, 76
17, 44880, Control_c, 14, 11, 107
17, 44969, Note_on_c, 14, 51, 0
17, 45000, Note_on_c, 14, 50, 76
17, 45000, Control_c, 14, 11, 109
17, 45089, Note_on_c, 14, 50, 0
17, 45120, Control_c, 14, 11, 111
17, 45120, Note_on_c, 14, 48, 76
17, 45209, Note_on_c, 14, 48, 0
17, 45240, Control_c, 14, 11, 113
17, 45240, Note_on_c, 14, 46, 76
17, 45329, Note_on_c, 14, 46, 0
17, 45360, Note_on_c, 14, 45, 76
17, 45360, Control_c, 14, 11, 115
17, 45449, Note_on_c, 14, 45, 0
17, 45480, Note_on_c, 14, 46, 76
17, 45480, Control_c, 14, 11, 117
17, 45569, Note_on_c, 14, 46, 0
17, 45600, Note_on_c, 14, 48, 76
17, 45600, Control_c, 14, 11, 119
17, 45689, Note_on_c, 14, 48, 0
17, 45720, Note_on_c, 14, 46, 76
17, 45720, Control_c, 14, 11, 121
17, 45809, Note_on_c, 14, 46, 0
17, 45840, Note_on_c, 14, 45, 76
17, 45840, Control_c, 14, 11, 123
17, 45929, Note_on_c, 14, 45, 0
17, 45960, Control_c, 14, 11, 127
17, 45960, Note_on_c, 14, 43, 76
17, 46049, Note_on_c, 14, 43, 0
17, 46080, Note_on_c, 14, 42, 76
17, 46259, Note_on_c, 14, 42, 0
17, 46320, Note_on_c, 14, 54, 76
17, 46499, Note_on_c, 14, 54, 0
17, 47400, Note_on_c, 14, 42, 76
17, 47489, Note_on_c, 14, 42, 0
17, 47520, Note_on_c, 14, 43, 76
17, 47699, Note_on_c, 14, 43, 0
17, 47760, Note_on_c, 14, 55, 76
17, 47939, Note_on_c, 14, 55, 0
17, 48840, Note_on_c, 14, 55, 76
17, 48929, Note_on_c, 14, 55, 0
17, 48960, Note_on_c, 14, 53, 76
17, 49184, Note_on_c, 14, 53, 0
17, 49200, Note_on_c, 14, 65, 76
17, 49379, Note_on_c, 14, 65, 0
17, 50040, Note_on_c, 14, 53, 76
17, 50129, Note_on_c, 14, 53, 0
17, 50160, Note_on_c, 14, 53, 76
17, 50249, Note_on_c, 14, 53, 0
17, 50280, Note_on_c, 14, 53, 76
17, 50369, Note_on_c, 14, 53, 0
17, 50400, Note_on_c, 14, 51, 76
17, 50489, Note_on_c, 14, 51, 0
17, 50520, Note_on_c, 14, 51, 76
17, 50744, Note_on_c, 14, 51, 0
17, 50760, Note_on_c, 14, 52, 76
17, 50849, Note_on_c, 14, 52, 0
17, 50880, Note_on_c, 14, 53, 76
17, 50969, Note_on_c, 14, 53, 0
17, 51000, Note_on_c, 14, 54, 76
17, 51089, Note_on_c, 14, 54, 0
17, 51120, Note_on_c, 14, 55, 76
17, 51209, Note_on_c, 14, 55, 0
17, 51240, Note_on_c, 14, 55, 76
17, 51464, Note_on_c, 14, 55, 0
17, 51480, Note_on_c, 14, 55, 76
17, 51569, Note_on_c, 14, 55, 0
17, 51600, Note_on_c, 14, 56, 76
17, 51689, Note_on_c, 14, 56, 0
17, 51720, Note_on_c, 14, 57, 76
17, 51809, Note_on_c, 14, 57, 0
17, 51840, Note_on_c, 14, 58, 76
17, 51944, Note_on_c, 14, 58, 0
17, 51960, Note_on_c, 14, 58, 76
17, 52064, Note_on_c, 14, 58, 0
17, 52080, Note_on_c, 14, 56, 76
17, 52184, Note_on_c, 14, 56, 0
17, 52200, Note_on_c, 14, 56, 76
17, 52304, Note_on_c, 14, 56, 0
17, 52320, Note_on_c, 14, 55, 76
17, 52424, Note_on_c, 14, 55, 0
17, 52440, Note_on_c, 14, 55, 76
17, 52544, Note_on_c, 14, 55, 0
17, 52560, Note_on_c, 14, 54, 76
17, 52664, Note_on_c, 14, 54, 0
17, 52680, Note_on_c, 14, 54, 76
17, 52784, Note_on_c, 14, 54, 0
17, 52800, Note_on_c, 14, 53, 76
17, 52904, Note_on_c, 14, 53, 0
17, 52920, Note_on_c, 14, 53, 76
17, 53024, Note_on_c, 14, 53, 0
17, 53040, Note_on_c, 14, 50, 76
17, 53144, Note_on_c, 14, 50, 0
17, 53160, Note_on_c, 14, 50, 76
17, 53264, Note_on_c, 14, 50, 0
17, 53280, Note_on_c, 14, 51, 76
17, 53384, Note_on_c, 14, 51, 0
17, 53400, Note_on_c, 14, 51, 76
17, 53504, Note_on_c, 14, 51, 0
17, 53520, Note_on_c, 14, 51, 76
17, 53624, Note_on_c, 14, 51, 0
17, 53640, Note_on_c, 14, 51, 76
17, 53744, Note_on_c, 14, 51, 0
17, 53760, Note_on_c, 14, 51, 76
17, 53864, Note_on_c, 14, 51, 0
17, 53880, Note_on_c, 14, 51, 76
17, 53984, Note_on_c, 14, 51, 0
17, 54000, Note_on_c, 14, 51, 76
17, 54104, Note_on_c, 14, 51, 0
17, 54120, Note_on_c, 14, 51, 76
17, 54224, Note_on_c, 14, 51, 0
17, 54240, Note_on_c, 14, 51, 76
17, 54344, Note_on_c, 14, 51, 0
17, 54360, Note_on_c, 14, 51, 76
17, 54464, Note_on_c, 14, 51, 0
17, 54480, Note_on_c, 14, 51, 76
17, 54584, Note_on_c, 14, 51, 0
17, 54600, Note_on_c, 14, 51, 76
17, 54704, Note_on_c, 14, 51, 0
17, 54720, Note_on_c, 14, 53, 76
17, 54824, Note_on_c, 14, 53, 0
17, 54840, Note_on_c, 14, 53, 76
17, 54944, Note_on_c, 14, 53, 0
17, 54960, Note_on_c, 14, 53, 76
17, 55064, Note_on_c, 14, 53, 0
17, 55080, Note_on_c, 14, 53, 76
17, 55184, Note_on_c, 14, 53, 0
17, 55200, Note_on_c, 14, 53, 76
17, 55304, Note_on_c, 14, 53, 0
17, 55320, Note_on_c, 14, 53, 76
17, 55424, Note_on_c, 14, 53, 0
17, 55440, Note_on_c, 14, 53, 76
17, 55544, Note_on_c, 14, 53, 0
17, 55560, Note_on_c, 14, 53, 76
17, 55664, Note_on_c, 14, 53, 0
17, 55680, Note_on_c, 14, 53, 76
17, 55784, Note_on_c, 14, 53, 0
17, 55800, Note_on_c, 14, 53, 76
17, 55904, Note_on_c, 14, 53, 0
17, 55920, Note_on_c, 14, 53, 76
17, 56024, Note_on_c, 14, 53, 0
17, 56040, Note_on_c, 14, 53, 76
17, 56144, Note_on_c, 14, 53, 0
17, 56160, Note_on_c, 14, 41, 76
17, 56264, Note_on_c, 14, 41, 0
17, 56280, Note_on_c, 14, 53, 76
17, 56384, Note_on_c, 14, 53, 0
17, 56400, Note_on_c, 14, 53, 76
17, 56504, Note_on_c, 14, 53, 0
17, 56520, Note_on_c, 14, 53, 76
17, 56624, Note_on_c, 14, 53, 0
17, 56640, Note_on_c, 14, 53, 76
17, 56744, Note_on_c, 14, 53, 0
17, 56760, Note_on_c, 14, 53, 76
17, 56864, Note_on_c, 14, 53, 0
17, 56880, Note_on_c, 14, 53, 76
17, 56984, Note_on_c, 14, 53, 0
17, 57000, Note_on_c, 14, 53, 76
17, 57104, Note_on_c, 14, 53, 0
17, 57120, Note_on_c, 14, 53, 76
17, 57224, Note_on_c, 14, 53, 0
17, 57240, Note_on_c, 14, 53, 76
17, 57344, Note_on_c, 14, 53, 0
17, 57360, Note_on_c, 14, 53, 76
17, 57464, Note_on_c, 14, 53, 0
17, 57480, Note_on_c, 14, 53, 76
17, 57584, Note_on_c, 14, 53, 0
17, 57600, Note_on_c, 14, 53, 84
17, 57689, Note_on_c, 14, 53, 0
17, 57720, Note_on_c, 14, 64, 84
17, 57809, Note_on_c, 14, 64, 0
17, 57840, Note_on_c, 14, 63, 84
17, 57929, Note_on_c, 14, 63, 0
17, 57960, Note_on_c, 14, 62, 84
17, 58049, Note_on_c, 14, 62, 0
17, 58080, Note_on_c, 14, 60, 84
17, 58169, Note_on_c, 14, 60, 0
17, 58200, Note_on_c, 14, 58, 84
17, 58289, Note_on_c, 14, 58, 0
17, 58320, Note_on_c, 14, 57, 84
17, 58409, Note_on_c, 14, 57, 0
17, 58440, Note_on_c, 14, 55, 84
17, 58529, Note_on_c, 14, 55, 0
17, 58560, Note_on_c, 14, 53, 84
17, 58649, Note_on_c, 14, 53, 0
17, 58680, Note_on_c, 14, 51, 84
17, 58769, Note_on_c, 14, 51, 0
17, 58800, Note_on_c, 14, 50, 84
17, 58889, Note_on_c, 14, 50, 0
17, 58920, Note_on_c, 14, 48, 84
17, 59009, Note_on_c, 14, 48, 0
17, 59040, Note_on_c, 14, 46, 84
17, 59279, Note_on_c, 14, 46, 0
17, 61920, Control_c, 14, 11, 96
17, 62160, Control_c, 14, 11, 96
17, 62160, Note_on_c, 14, 60, 68
17, 62260, Control_c, 14, 11, 99
17, 62360, Control_c, 14, 11, 101
17, 62369, Note_on_c, 14, 60, 0
17, 62400, Note_on_c, 14, 60, 68
17, 62460, Control_c, 14, 11, 104
17, 62560, Control_c, 14, 11, 106
17, 62609, Note_on_c, 14, 60, 0
17, 62640, Note_on_c, 14, 60, 68
17, 62660, Control_c, 14, 11, 109
17, 62760, Control_c, 14, 11, 112
17, 62849, Note_on_c, 14, 60, 0
17, 62860, Control_c, 14, 11, 114
17, 62880, Note_on_c, 14, 60, 68
17, 62960, Control_c, 14, 11, 117
17, 63060, Control_c, 14, 11, 119
17, 63089, Note_on_c, 14, 60, 0
17, 63120, Note_on_c, 14, 60, 68
17, 63160, Control_c, 14, 11, 122
17, 63260, Control_c, 14, 11, 127
17, 63329, Note_on_c, 14, 60, 0
17, 63360, Note_on_c, 14, 60, 68
17, 63584, Note_on_c, 14, 60, 0
17, 63600, Note_on_c, 14, 60, 76
17, 64049, Note_on_c, 14, 60, 0
17, 64080, Control_c, 14, 11, 127
17, 64080, Note_on_c, 14, 60, 76
17, 64140, Control_c, 14, 11, 124
17, 64200, Control_c, 14, 11, 122
17, 64260, Control_c, 14, 11, 119
17, 64320, Control_c, 14, 11, 117
17, 64380, Control_c, 14, 11, 114
17, 64440, Control_c, 14, 11, 112
17, 64500, Control_c, 14, 11, 109
17, 64559, Note_on_c, 14, 60, 0
17, 64560, Note_on_c, 14, 60, 68
17, 64560, Control_c, 14, 11, 106
17, 64620, Control_c, 14, 11, 104
17, 64679, Note_on_c, 14, 60, 0
17, 64680, Control_c, 14, 11, 101
17, 64680, Note_on_c, 14, 57, 68
17, 64740, Control_c, 14, 11, 96
17, 64799, Note_on_c, 14, 57, 0
17, 64800, Note_on_c, 14, 58, 68
17, 65039, Note_on_c, 14, 58, 0
17, 67680, Control_c, 14, 11, 96
17, 67920, Note_on_c, 14, 53, 68
17, 68159, Note_on_c, 14, 53, 0
17, 68160, Note_on_c, 14, 49, 68
17, 68399, Note_on_c, 14, 49, 0
17, 68400, Note_on_c, 14, 48, 68
17, 68440, Control_c, 14, 11, 99
17, 68480, Control_c, 14, 11, 101
17, 68520, Control_c, 14, 11, 104
17, 68560, Control_c, 14, 11, 106
17, 68600, Control_c, 14, 11, 109
17, 68640, Control_c, 14, 11, 112
17, 68680, Control_c, 14, 11, 114
17, 68720, Control_c, 14, 11, 117
17, 68760, Control_c, 14, 11, 119
17, 68800, Control_c, 14, 11, 122
17, 68840, Control_c, 14, 11, 124
17, 68879, Note_on_c, 14, 48, 0
17, 68880, Note_on_c, 14, 47, 68
17, 68880, Control_c, 14, 11, 127
17, 68920, Control_c, 14, 11, 122
17, 68960, Control_c, 14, 11, 117
17, 69000, Control_c, 14, 11, 112
17, 69040, Control_c, 14, 11, 106
17, 69080, Control_c, 14, 11, 96
17, 69119, Note_on_c, 14, 47, 0
17, 69120, Note_on_c, 14, 48, 68
17, 69359, Note_on_c, 14, 48, 0
17, 70560, Control_c, 14, 11, 127
17, 70800, Note_on_c, 14, 53, 44
17, 70979, Note_on_c, 14, 53, 0
17, 71040, Note_on_c, 14, 53, 44
17, 71219, Note_on_c, 14, 53, 0
17, 71520, Note_on_c, 14, 53, 44
17, 71699, Note_on_c, 14, 53, 0
17, 71760, Note_on_c, 14, 53, 44
17, 71939, Note_on_c, 14, 53, 0
17, 72240, Note_on_c, 14, 53, 44
17, 72419, Note_on_c, 14, 53, 0
17, 72480, Note_on_c, 14, 53, 44
17, 72659, Note_on_c, 14, 53, 0
17, 72720, Note_on_c, 14, 53, 44
17, 72899, Note_on_c, 14, 53, 0
17, 72960, Note_on_c, 14, 53, 44
17, 73139, Note_on_c, 14, 53, 0
17, 73200, Note_on_c, 14, 53, 44
17, 73379, Note_on_c, 14, 53, 0
17, 73920, Note_on_c, 14, 63, 44
17, 74009, Note_on_c, 14, 63, 0
17, 74040, Note_on_c, 14, 62, 44
17, 74129, Note_on_c, 14, 62, 0
17, 74160, Note_on_c, 14, 60, 44
17, 74249, Note_on_c, 14, 60, 0
17, 74280, Note_on_c, 14, 62, 44
17, 74369, Note_on_c, 14, 62, 0
17, 74400, Note_on_c, 14, 63, 44
17, 74489, Note_on_c, 14, 63, 0
17, 74520, Note_on_c, 14, 62, 44
17, 74609, Note_on_c, 14, 62, 0
17, 74640, Note_on_c, 14, 60, 44
17, 74729, Note_on_c, 14, 60, 0
17, 74760, Note_on_c, 14, 58, 44
17, 74849, Note_on_c, 14, 58, 0
17, 74880, Note_on_c, 14, 57, 44
17, 74969, Note_on_c, 14, 57, 0
17, 75000, Note_on_c, 14, 58, 45
17, 75089, Note_on_c, 14, 58, 0
17, 75120, Note_on_c, 14, 60, 46
17, 75209, Note_on_c, 14, 60, 0
17, 75240, Note_on_c, 14, 62, 48
17, 75329, Note_on_c, 14, 62, 0
17, 75360, Note_on_c, 14, 63, 49
17, 75449, Note_on_c, 14, 63, 0
17, 75480, Note_on_c, 14, 62, 50
17, 75569, Note_on_c, 14, 62, 0
17, 75600, Note_on_c, 14, 60, 52
17, 75689, Note_on_c, 14, 60, 0
17, 75720, Note_on_c, 14, 62, 53
17, 75809, Note_on_c, 14, 62, 0
17, 75840, Note_on_c, 14, 63, 54
17, 75929, Note_on_c, 14, 63, 0
17, 75960, Note_on_c, 14, 62, 56
17, 76049, Note_on_c, 14, 62, 0
17, 76080, Note_on_c, 14, 60, 57
17, 76169, Note_on_c, 14, 60, 0
17, 76200, Note_on_c, 14, 58, 58
17, 76289, Note_on_c, 14, 58, 0
17, 76320, Note_on_c, 14, 57, 60
17, 76409, Note_on_c, 14, 57, 0
17, 76440, Note_on_c, 14, 58, 61
17, 76529, Note_on_c, 14, 58, 0
17, 76560, Note_on_c, 14, 60, 62
17, 76649, Note_on_c, 14, 60, 0
17, 76680, Note_on_c, 14, 62, 64
17, 76769, Note_on_c, 14, 62, 0
17, 76800, Note_on_c, 14, 60, 65
17, 76889, Note_on_c, 14, 60, 0
17, 76920, Note_on_c, 14, 58, 66
17, 77009, Note_on_c, 14, 58, 0
17, 77040, Note_on_c, 14, 57, 68
17, 77129, Note_on_c, 14, 57, 0
17, 77160, Note_on_c, 14, 55, 69
17, 77249, Note_on_c, 14, 55, 0
17, 77280, Note_on_c, 14, 53, 70
17, 77369, Note_on_c, 14, 53, 0
17, 77400, Note_on_c, 14, 51, 72
17, 77489, Note_on_c, 14, 51, 0
17, 77520, Note_on_c, 14, 50, 73
17, 77609, Note_on_c, 14, 50, 0
17, 77640, Note_on_c, 14, 48, 74
17, 77729, Note_on_c, 14, 48, 0
17, 77760, Note_on_c, 14, 46, 76
17, 77864, Note_on_c, 14, 46, 0
17, 77880, Note_on_c, 14, 41, 76
17, 77984, Note_on_c, 14, 41, 0
17, 78000, Note_on_c, 14, 46, 76
17, 78104, Note_on_c, 14, 46, 0
17, 78120, Note_on_c, 14, 41, 76
17, 78224, Note_on_c, 14, 41, 0
17, 78240, Note_on_c, 14, 46, 76
17, 78344, Note_on_c, 14, 46, 0
17, 78360, Note_on_c, 14, 41, 76
17, 78464, Note_on_c, 14, 41, 0
17, 78480, Note_on_c, 14, 46, 76
17, 78584, Note_on_c, 14, 46, 0
17, 78600, Note_on_c, 14, 41, 76
17, 78704, Note_on_c, 14, 41, 0
17, 78720, Note_on_c, 14, 46, 84
17, 78824, Note_on_c, 14, 46, 0
17, 78840, Note_on_c, 14, 41, 76
17, 78944, Note_on_c, 14, 41, 0
17, 78960, Note_on_c, 14, 46, 76
17, 79064, Note_on_c, 14, 46, 0
17, 79080, Note_on_c, 14, 41, 76
17, 79184, Note_on_c, 14, 41, 0
17, 79200, Note_on_c, 14, 45, 76
17, 79304, Note_on_c, 14, 45, 0
17, 79320, Note_on_c, 14, 41, 76
17, 79424, Note_on_c, 14, 41, 0
17, 79440, Note_on_c, 14, 45, 84
17, 79544, Note_on_c, 14, 45, 0
17, 79560, Note_on_c, 14, 41, 76
17, 79664, Note_on_c, 14, 41, 0
17, 79680, Note_on_c, 14, 45, 76
17, 79784, Note_on_c, 14, 45, 0
17, 79800, Note_on_c, 14, 41, 76
17, 79904, Note_on_c, 14, 41, 0
17, 79920, Note_on_c, 14, 48, 76
17, 80024, Note_on_c, 14, 48, 0
17, 80040, Note_on_c, 14, 41, 76
17, 80144, Note_on_c, 14, 41, 0
17, 80160, Note_on_c, 14, 51, 84
17, 80264, Note_on_c, 14, 51, 0
17, 80280, Note_on_c, 14, 41, 76
17, 80384, Note_on_c, 14, 41, 0
17, 80400, Note_on_c, 14, 45, 76
17, 80504, Note_on_c, 14, 45, 0
17, 80520, Note_on_c, 14, 41, 76
17, 80624, Note_on_c, 14, 41, 0
17, 80640, Note_on_c, 14, 46, 84
17, 80744, Note_on_c, 14, 46, 0
17, 80760, Note_on_c, 14, 41, 84
17, 80864, Note_on_c, 14, 41, 0
17, 80880, Note_on_c, 14, 46, 84
17, 80984, Note_on_c, 14, 46, 0
17, 81000, Note_on_c, 14, 41, 84
17, 81104, Note_on_c, 14, 41, 0
17, 81120, Note_on_c, 14, 46, 84
17, 81224, Note_on_c, 14, 46, 0
17, 81240, Note_on_c, 14, 41, 84
17, 81344, Note_on_c, 14, 41, 0
17, 81360, Note_on_c, 14, 46, 84
17, 81464, Note_on_c, 14, 46, 0
17, 81480, Note_on_c, 14, 41, 84
17, 81584, Note_on_c, 14, 41, 0
17, 81600, Note_on_c, 14, 46, 84
17, 81704, Note_on_c, 14, 46, 0
17, 81720, Note_on_c, 14, 41, 84
17, 81824, Note_on_c, 14, 41, 0
17, 81840, Note_on_c, 14, 46, 84
17, 81944, Note_on_c, 14, 46, 0
17, 81960, Note_on_c, 14, 41, 84
17, 82064, Note_on_c, 14, 41, 0
17, 82080, Note_on_c, 14, 45, 84
17, 82184, Note_on_c, 14, 45, 0
17, 82200, Note_on_c, 14, 41, 84
17, 82304, Note_on_c, 14, 41, 0
17, 82320, Note_on_c, 14, 45, 84
17, 82424, Note_on_c, 14, 45, 0
17, 82440, Note_on_c, 14, 41, 84
17, 82544, Note_on_c, 14, 41, 0
17, 82560, Note_on_c, 14, 45, 84
17, 82664, Note_on_c, 14, 45, 0
17, 82680, Note_on_c, 14, 41, 84
17, 82784, Note_on_c, 14, 41, 0
17, 82800, Note_on_c, 14, 48, 84
17, 82904, Note_on_c, 14, 48, 0
17, 82920, Note_on_c, 14, 41, 84
17, 83024, Note_on_c, 14, 41, 0
17, 83040, Note_on_c, 14, 51, 84
17, 83144, Note_on_c, 14, 51, 0
17, 83160, Note_on_c, 14, 53, 84
17, 83264, Note_on_c, 14, 53, 0
17, 83280, Note_on_c, 14, 51, 84
17, 83384, Note_on_c, 14, 51, 0
17, 83400, Note_on_c, 14, 53, 84
17, 83504, Note_on_c, 14, 53, 0
17, 83520, Note_on_c, 14, 50, 84
17, 84119, Note_on_c, 14, 50, 0
17, 84120, Note_on_c, 14, 49, 84
17, 84224, Note_on_c, 14, 49, 0
17, 84240, Note_on_c, 14, 50, 84
17, 84329, Note_on_c, 14, 50, 0
17, 84360, Note_on_c, 14, 45, 84
17, 84449, Note_on_c, 14, 45, 0
17, 84480, Note_on_c, 14, 46, 84
17, 84569, Note_on_c, 14, 46, 0
17, 84600, Note_on_c, 14, 48, 84
17, 84689, Note_on_c, 14, 48, 0
17, 84720, Note_on_c, 14, 49, 84
17, 84809, Note_on_c, 14, 49, 0
17, 84840, Note_on_c, 14, 50, 84
17, 84929, Note_on_c, 14, 50, 0
17, 84960, Note_on_c, 14, 51, 84
17, 85049, Note_on_c, 14, 51, 0
17, 85080, Note_on_c, 14, 50, 84
17, 85169, Note_on_c, 14, 50, 0
17, 85200, Note_on_c, 14, 48, 92
17, 85289, Note_on_c, 14, 48, 0
17, 85320, Note_on_c, 14, 52, 84
17, 85409, Note_on_c, 14, 52, 0
17, 85440, Note_on_c, 14, 53, 84
17, 85529, Note_on_c, 14, 53, 0
17, 85560, Note_on_c, 14, 51, 84
17, 85649, Note_on_c, 14, 51, 0
17, 85680, Note_on_c, 14, 50, 92
17, 85769, Note_on_c, 14, 50, 0
17, 85800, Note_on_c, 14, 54, 84
17, 85889, Note_on_c, 14, 54, 0
17, 85920, Note_on_c, 14, 55, 84
17, 86009, Note_on_c, 14, 55, 0
17, 86040, Note_on_c, 14, 53, 84
17, 86129, Note_on_c, 14, 53, 0
17, 86160, Note_on_c, 14, 51, 92
17, 86249, Note_on_c, 14, 51, 0
17, 86280, Note_on_c, 14, 55, 84
17, 86369, Note_on_c, 14, 55, 0
17, 86400, Note_on_c, 14, 57, 84
17, 86489, Note_on_c, 14, 57, 0
17, 86520, Note_on_c, 14, 55, 84
17, 86609, Note_on_c, 14, 55, 0
17, 86640, Note_on_c, 14, 53, 92
17, 86729, Note_on_c, 14, 53, 0
17, 86760, Note_on_c, 14, 57, 84
17, 86849, Note_on_c, 14, 57, 0
17, 86880, Note_on_c, 14, 58, 84
17, 86969, Note_on_c, 14, 58, 0
17, 87000, Note_on_c, 14, 57, 84
17, 87089, Note_on_c, 14, 57, 0
17, 87120, Note_on_c, 14, 55, 84
17, 87209, Note_on_c, 14, 55, 0
17, 87240, Note_on_c, 14, 54, 84
17, 87329, Note_on_c, 14, 54, 0
17, 87360, Note_on_c, 14, 55, 84
17, 87449, Note_on_c, 14, 55, 0
17, 87480, Note_on_c, 14, 53, 84
17, 87569, Note_on_c, 14, 53, 0
17, 87600, Note_on_c, 14, 52, 84
17, 87689, Note_on_c, 14, 52, 0
17, 87720, Note_on_c, 14, 51, 84
17, 87809, Note_on_c, 14, 51, 0
17, 87840, Note_on_c, 14, 50, 84
17, 88019, Note_on_c, 14, 50, 0
17, 88080, Note_on_c, 14, 54, 84
17, 88259, Note_on_c, 14, 54, 0
17, 88320, Note_on_c, 14, 55, 84
17, 88499, Note_on_c, 14, 55, 0
17, 88800, Note_on_c, 14, 50, 84
17, 88979, Note_on_c, 14, 50, 0
17, 89040, Note_on_c, 14, 51, 84
17, 89219, Note_on_c, 14, 51, 0
17, 89520, Note_on_c, 14, 52, 84
17, 89699, Note_on_c, 14, 52, 0
17, 89760, Note_on_c, 14, 53, 84
17, 89939, Note_on_c, 14, 53, 0
17, 90240, Note_on_c, 14, 54, 84
17, 90419, Note_on_c, 14, 54, 0
17, 90480, Note_on_c, 14, 55, 84
17, 90659, Note_on_c, 14, 55, 0
17, 90960, Note_on_c, 14, 50, 84
17, 91139, Note_on_c, 14, 50, 0
17, 91200, Note_on_c, 14, 51, 84
17, 91379, Note_on_c, 14, 51, 0
17, 91680, Note_on_c, 14, 52, 92
17, 91859, Note_on_c, 14, 52, 0
17, 92160, Note_on_c, 14, 52, 92
17, 92339, Note_on_c, 14, 52, 0
17, 92640, Note_on_c, 14, 52, 92
17, 92819, Note_on_c, 14, 52, 0
17, 93120, Note_on_c, 14, 52, 92
17, 93299, Note_on_c, 14, 52, 0
17, 93600, Note_on_c, 14, 52, 92
17, 93779, Note_on_c, 14, 52, 0
17, 94080, Note_on_c, 14, 52, 92
17, 94259, Note_on_c, 14, 52, 0
17, 94320, Note_on_c, 14, 53, 52
17, 94559, Note_on_c, 14, 53, 0
17, 94560, Note_on_c, 14, 58, 52
17, 94799, Note_on_c, 14, 58, 0
17, 94800, Note_on_c, 14, 62, 52
17, 95024, Note_on_c, 14, 62, 0
17, 95040, Note_on_c, 14, 54, 76
17, 95160, Control_c, 14, 11, 80
17, 95729, Note_on_c, 14, 54, 0
17, 95760, Note_on_c, 14, 53, 76
17, 95999, Note_on_c, 14, 53, 0
17, 96000, Note_on_c, 14, 58, 76
17, 96239, Note_on_c, 14, 58, 0
17, 96240, Note_on_c, 14, 62, 76
17, 96449, Note_on_c, 14, 62, 0
17, 96465, Control_c, 14, 11, 127
17, 96480, Note_on_c, 14, 55, 76
17, 96600, Control_c, 14, 11, 80
17, 96650, Control_c, 14, 11, 79
17, 96700, Control_c, 14, 11, 77
17, 96750, Control_c, 14, 11, 76
17, 96800, Control_c, 14, 11, 75
17, 96850, Control_c, 14, 11, 73
17, 96900, Control_c, 14, 11, 72
17, 96950, Control_c, 14, 11, 71
17, 97000, Control_c, 14, 11, 69
17, 97050, Control_c, 14, 11, 68
17, 97100, Control_c, 14, 11, 67
17, 97150, Control_c, 14, 11, 64
17, 97439, Note_on_c, 14, 55, 0
17, 97560, Note_on_c, 14, 43, 84
17, 97649, Note_on_c, 14, 43, 0
17, 97680, Note_on_c, 14, 46, 84
17, 97769, Note_on_c, 14, 46, 0
17, 97800, Note_on_c, 14, 51, 84
17, 97889, Note_on_c, 14, 51, 0
17, 97920, Note_on_c, 14, 44, 84
17, 98159, Note_on_c, 14, 44, 0
17, 98280, Note_on_c, 14, 44, 84
17, 98369, Note_on_c, 14, 44, 0
17, 98400, Note_on_c, 14, 48, 84
17, 98489, Note_on_c, 14, 48, 0
17, 98520, Note_on_c, 14, 51, 84
17, 98609, Note_on_c, 14, 51, 0
17, 98640, Note_on_c, 14, 45, 84
17, 98879, Note_on_c, 14, 45, 0
17, 99000, Note_on_c, 14, 45, 84
17, 99089, Note_on_c, 14, 45, 0
17, 99120, Note_on_c, 14, 48, 84
17, 99209, Note_on_c, 14, 48, 0
17, 99240, Note_on_c, 14, 53, 84
17, 99329, Note_on_c, 14, 53, 0
17, 99360, Note_on_c, 14, 46, 84
17, 99599, Note_on_c, 14, 46, 0
17, 99720, Note_on_c, 14, 58, 84
17, 99809, Note_on_c, 14, 58, 0
17, 99840, Note_on_c, 14, 53, 84
17, 99929, Note_on_c, 14, 53, 0
17, 99960, Note_on_c, 14, 50, 84
17, 100049, Note_on_c, 14, 50, 0
17, 100080, Control_c, 14, 11, 64
17, 100080, Note_on_c, 14, 51, 84
17, 100170, Control_c, 14, 11, 67
17, 100184, Note_on_c, 14, 51, 0
17, 100200, Note_on_c, 14, 51, 84
17, 100260, Control_c, 14, 11, 69
17, 100304, Note_on_c, 14, 51, 0
17, 100320, Note_on_c, 14, 51, 84
17, 100350, Control_c, 14, 11, 72
17, 100424, Note_on_c, 14, 51, 0
17, 100440, Note_on_c, 14, 51, 84
17, 100440, Control_c, 14, 11, 75
17, 100530, Control_c, 14, 11, 77
17, 100544, Note_on_c, 14, 51, 0
17, 100560, Note_on_c, 14, 51, 84
17, 100620, Control_c, 14, 11, 80
17, 100664, Note_on_c, 14, 51, 0
17, 100680, Note_on_c, 14, 51, 84
17, 100710, Control_c, 14, 11, 82
17, 100784, Note_on_c, 14, 51, 0
17, 100800, Control_c, 14, 11, 85
17, 100800, Note_on_c, 14, 48, 84
17, 100890, Control_c, 14, 11, 88
17, 100904, Note_on_c, 14, 48, 0
17, 100920, Note_on_c, 14, 48, 84
17, 100980, Control_c, 14, 11, 90
17, 101024, Note_on_c, 14, 48, 0
17, 101040, Note_on_c, 14, 48, 84
17, 101070, Control_c, 14, 11, 93
17, 101144, Note_on_c, 14, 48, 0
17, 101160, Note_on_c, 14, 48, 84
17, 101160, Control_c, 14, 11, 96
17, 101250, Control_c, 14, 11, 98
17, 101279, Note_on_c, 14, 48, 0
17, 101280, Note_on_c, 14, 50, 84
17, 101340, Control_c, 14, 11, 101
17, 101399, Note_on_c, 14, 50, 0
17, 101400, Note_on_c, 14, 51, 84
17, 101430, Control_c, 14, 11, 103
17, 101504, Note_on_c, 14, 51, 0
17, 101520, Control_c, 14, 11, 106
17, 101520, Note_on_c, 14, 53, 84
17, 101610, Control_c, 14, 11, 109
17, 101624, Note_on_c, 14, 53, 0
17, 101640, Note_on_c, 14, 53, 84
17, 101700, Control_c, 14, 11, 111
17, 101744, Note_on_c, 14, 53, 0
17, 101760, Note_on_c, 14, 53, 84
17, 101790, Control_c, 14, 11, 114
17, 101864, Note_on_c, 14, 53, 0
17, 101880, Control_c, 14, 11, 117
17, 101880, Note_on_c, 14, 53, 84
17, 101970, Control_c, 14, 11, 119
17, 101984, Note_on_c, 14, 53, 0
17, 102000, Note_on_c, 14, 50, 84
17, 102060, Control_c, 14, 11, 122
17, 102104, Note_on_c, 14, 50, 0
17, 102120, Note_on_c, 14, 46, 84
17, 102150, Control_c, 14, 11, 127
17, 102224, Note_on_c, 14, 46, 0
17, 102240, Note_on_c, 14, 41, 84
17, 102344, Note_on_c, 14, 41, 0
17, 102360, Note_on_c, 14, 53, 84
17, 102464, Note_on_c, 14, 53, 0
17, 102480, Note_on_c, 14, 53, 84
17, 102584, Note_on_c, 14, 53, 0
17, 102600, Note_on_c, 14, 53, 84
17, 102704, Note_on_c, 14, 53, 0
17, 102720, Note_on_c, 14, 53, 84
17, 102824, Note_on_c, 14, 53, 0
17, 102840, Note_on_c, 14, 53, 84
17, 102944, Note_on_c, 14, 53, 0
17, 102960, Note_on_c, 14, 58, 76
17, 103139, Note_on_c, 14, 58, 0
17, 103680, Note_on_c, 14, 46, 76
17, 103859, Note_on_c, 14, 46, 0
17, 104400, Note_on_c, 14, 46, 76
17, 104579, Note_on_c, 14, 46, 0
17, 105120, Note_on_c, 14, 46, 76
17, 105299, Note_on_c, 14, 46, 0
17, 105360, Note_on_c, 14, 46, 76
17, 105539, Note_on_c, 14, 46, 0
17, 105600, Note_on_c, 14, 46, 76
17, 105779, Note_on_c, 14, 46, 0
17, 105840, Note_on_c, 14, 46, 76
17, 105960, Control_c, 14, 11, 80
17, 107279, Note_on_c, 14, 46, 0
17, 107280, Control_c, 14, 11, 80
17, 107280, Note_on_c, 14, 46, 76
17, 107400, Control_c, 14, 11, 79
17, 107520, Control_c, 14, 11, 77
17, 107640, Control_c, 14, 11, 76
17, 107760, Control_c, 14, 11, 75
17, 107880, Control_c, 14, 11, 73
17, 108000, Control_c, 14, 11, 72
17, 108120, Control_c, 14, 11, 71
17, 108240, Control_c, 14, 11, 69
17, 108360, Control_c, 14, 11, 68
17, 108480, Control_c, 14, 11, 67
17, 108704, Note_on_c, 14, 46, 0
17, 108712, Control_c, 14, 11, 96
17, 108720, Note_on_c, 14, 46, 60
17, 109199, Note_on_c, 14, 46, 0
17, 109200, Note_on_c, 14, 47, 60
17, 109439, Note_on_c, 14, 47, 0
17, 109440, Note_on_c, 14, 45, 60
17, 109919, Note_on_c, 14, 45, 0
17, 109920, Note_on_c, 14, 46, 84
17, 110040, Control_c, 14, 11, 64
17, 110129, Note_on_c, 14, 46, 0
17, 110152, Control_c, 14, 11, 96
17, 110160, Note_on_c, 14, 51, 68
17, 110639, Note_on_c, 14, 51, 0
17, 110640, Note_on_c, 14, 55, 68
17, 110879, Note_on_c, 14, 55, 0
17, 110880, Note_on_c, 14, 51, 68
17, 111359, Note_on_c, 14, 51, 0
17, 111360, Note_on_c, 14, 46, 68
17, 111584, Note_on_c, 14, 46, 0
17, 111600, Note_on_c, 14, 51, 68
17, 111839, Note_on_c, 14, 51, 0
17, 111840, Note_on_c, 14, 55, 68
17, 112079, Note_on_c, 14, 55, 0
17, 112080, Note_on_c, 14, 58, 68
17, 112304, Note_on_c, 14, 58, 0
17, 112320, Note_on_c, 14, 51, 68
17, 112799, Note_on_c, 14, 51, 0
17, 112800, Note_on_c, 14, 50, 68
17, 113039, Note_on_c, 14, 50, 0
17, 113040, Control_c, 14, 11, 96
17, 113040, Note_on_c, 14, 49, 68
17, 113160, Control_c, 14, 11, 99
17, 113280, Control_c, 14, 11, 101
17, 113400, Control_c, 14, 11, 104
17, 113520, Control_c, 14, 11, 106
17, 113640, Control_c, 14, 11, 109
17, 113760, Control_c, 14, 11, 112
17, 113880, Control_c, 14, 11, 114
17, 114000, Control_c, 14, 11, 117
17, 114120, Control_c, 14, 11, 119
17, 114240, Control_c, 14, 11, 122
17, 114360, Control_c, 14, 11, 124
17, 114449, Note_on_c, 14, 49, 0
17, 114480, Control_c, 14, 11, 127
17, 114480, Note_on_c, 14, 50, 76
17, 115199, Note_on_c, 14, 50, 0
17, 115200, Control_c, 14, 11, 127
17, 115200, Note_on_c, 14, 50, 68
17, 115260, Control_c, 14, 11, 124
17, 115320, Control_c, 14, 11, 122
17, 115380, Control_c, 14, 11, 119
17, 115440, Control_c, 14, 11, 117
17, 115500, Control_c, 14, 11, 114
17, 115560, Control_c, 14, 11, 112
17, 115620, Control_c, 14, 11, 109
17, 115664, Note_on_c, 14, 50, 0
17, 115680, Control_c, 14, 11, 106
17, 115680, Note_on_c, 14, 50, 68
17, 115740, Control_c, 14, 11, 104
17, 115800, Control_c, 14, 11, 101
17, 115860, Control_c, 14, 11, 96
17, 115919, Note_on_c, 14, 50, 0
17, 115920, Note_on_c, 14, 51, 68
17, 116624, Note_on_c, 14, 51, 0
17, 116640, Note_on_c, 14, 44, 68
17, 116879, Note_on_c, 14, 44, 0
17, 116880, Note_on_c, 14, 46, 68
17, 117119, Note_on_c, 14, 46, 0
17, 117120, Note_on_c, 14, 48, 68
17, 117344, Note_on_c, 14, 48, 0
17, 117360, Control_c, 14, 11, 96
17, 117360, Note_on_c, 14, 46, 68
17, 117480, Control_c, 14, 11, 99
17, 117600, Control_c, 14, 11, 101
17, 117720, Control_c, 14, 11, 104
17, 117840, Control_c, 14, 11, 106
17, 117960, Control_c, 14, 11, 109
17, 118080, Control_c, 14, 11, 112
17, 118200, Control_c, 14, 11, 114
17, 118304, Note_on_c, 14, 46, 0
17, 118320, Note_on_c, 14, 46, 68
17, 118320, Control_c, 14, 11, 117
17, 118440, Control_c, 14, 11, 119
17, 118499, Note_on_c, 14, 46, 0
17, 118560, Note_on_c, 14, 46, 68
17, 118560, Control_c, 14, 11, 122
17, 118680, Control_c, 14, 11, 127
17, 118739, Note_on_c, 14, 46, 0
17, 118800, Note_on_c, 14, 51, 52
17, 119039, Note_on_c, 14, 51, 0
17, 121440, Note_on_c, 14, 48, 52
17, 121679, Note_on_c, 14, 48, 0
17, 121680, Note_on_c, 14, 53, 52
17, 121919, Note_on_c, 14, 53, 0
17, 121920, Note_on_c, 14, 56, 52
17, 122159, Note_on_c, 14, 56, 0
17, 122160, Note_on_c, 14, 60, 52
17, 122384, Note_on_c, 14, 60, 0
17, 122400, Note_on_c, 14, 53, 52
17, 122639, Note_on_c, 14, 53, 0
17, 124020, Control_c, 14, 11, 92
17, 124080, Control_c, 14, 11, 96
17, 124080, Note_on_c, 14, 48, 76
17, 124140, Control_c, 14, 11, 100
17, 124200, Control_c, 14, 11, 104
17, 124260, Control_c, 14, 11, 107
17, 124319, Note_on_c, 14, 48, 0
17, 124320, Note_on_c, 14, 47, 76
17, 124320, Control_c, 14, 11, 111
17, 124380, Control_c, 14, 11, 115
17, 124440, Control_c, 14, 11, 119
17, 124500, Control_c, 14, 11, 123
17, 124544, Note_on_c, 14, 47, 0
17, 124560, Control_c, 14, 11, 127
17, 124560, Note_on_c, 14, 46, 76
17, 124664, Note_on_c, 14, 46, 0
17, 124680, Note_on_c, 14, 46, 52
17, 124799, Note_on_c, 14, 46, 0
17, 124800, Note_on_c, 14, 50, 52
17, 124919, Note_on_c, 14, 50, 0
17, 124920, Note_on_c, 14, 53, 52
17, 125039, Note_on_c, 14, 53, 0
17, 125040, Note_on_c, 14, 58, 52
17, 125159, Note_on_c, 14, 58, 0
17, 125160, Note_on_c, 14, 62, 52
17, 125279, Note_on_c, 14, 62, 0
17, 125280, Note_on_c, 14, 65, 52
17, 125519, Note_on_c, 14, 65, 0
17, 125760, Note_on_c, 14, 46, 52
17, 126209, Note_on_c, 14, 46, 0
17, 126240, Note_on_c, 14, 46, 76
17, 126689, Note_on_c, 14, 46, 0
17, 126720, Note_on_c, 14, 46, 76
17, 127169, Note_on_c, 14, 46, 0
17, 127200, Note_on_c, 14, 46, 76
17, 127409, Note_on_c, 14, 46, 0
17, 127440, Note_on_c, 14, 46, 76
17, 127544, Note_on_c, 14, 46, 0
17, 127560, Note_on_c, 14, 46, 52
17, 127679, Note_on_c, 14, 46, 0
17, 127680, Note_on_c, 14, 50, 52
17, 127799, Note_on_c, 14, 50, 0
17, 127800, Note_on_c, 14, 53, 52
17, 127919, Note_on_c, 14, 53, 0
17, 127920, Note_on_c, 14, 58, 52
17, 128039, Note_on_c, 14, 58, 0
17, 128040, Note_on_c, 14, 62, 52
17, 128159, Note_on_c, 14, 62, 0
17, 128160, Note_on_c, 14, 65, 52
17, 128399, Note_on_c, 14, 65, 0
17, 128640, Note_on_c, 14, 46, 76
17, 128879, Note_on_c, 14, 46, 0
17, 128880, Note_on_c, 14, 44, 52
17, 129059, Note_on_c, 14, 44, 0
17, 129120, Note_on_c, 14, 56, 76
17, 129569, Note_on_c, 14, 56, 0
17, 129600, Note_on_c, 14, 56, 76
17, 130049, Note_on_c, 14, 56, 0
17, 130080, Note_on_c, 14, 56, 76
17, 130529, Note_on_c, 14, 56, 0
17, 130560, Note_on_c, 14, 55, 76
17, 131009, Note_on_c, 14, 55, 0
17, 131040, Note_on_c, 14, 55, 76
17, 131489, Note_on_c, 14, 55, 0
17, 131520, Note_on_c, 14, 55, 76
17, 131969, Note_on_c, 14, 55, 0
17, 132000, Note_on_c, 14, 56, 52
17, 132179, Note_on_c, 14, 56, 0
17, 132240, Note_on_c, 14, 56, 76
17, 132689, Note_on_c, 14, 56, 0
17, 132720, Note_on_c, 14, 55, 52
17, 132899, Note_on_c, 14, 55, 0
17, 132960, Note_on_c, 14, 55, 76
17, 133169, Note_on_c, 14, 55, 0
17, 133200, Note_on_c, 14, 53, 52
17, 133304, Note_on_c, 14, 53, 0
17, 133320, Note_on_c, 14, 53, 54
17, 133409, Note_on_c, 14, 53, 0
17, 133440, Note_on_c, 14, 53, 57
17, 133529, Note_on_c, 14, 53, 0
17, 133560, Note_on_c, 14, 53, 60
17, 133649, Note_on_c, 14, 53, 0
17, 133680, Note_on_c, 14, 53, 62
17, 133769, Note_on_c, 14, 53, 0
17, 133800, Note_on_c, 14, 53, 65
17, 133889, Note_on_c, 14, 53, 0
17, 133920, Note_on_c, 14, 46, 68
17, 134024, Note_on_c, 14, 46, 0
17, 134040, Note_on_c, 14, 58, 70
17, 134144, Note_on_c, 14, 58, 0
17, 134160, Note_on_c, 14, 58, 73
17, 134264, Note_on_c, 14, 58, 0
17, 134280, Note_on_c, 14, 58, 76
17, 134384, Note_on_c, 14, 58, 0
17, 134400, Note_on_c, 14, 58, 78
17, 134504, Note_on_c, 14, 58, 0
17, 134520, Note_on_c, 14, 58, 81
17, 134624, Note_on_c, 14, 58, 0
17, 134640, Note_on_c, 14, 51, 84
17, 135119, Note_on_c, 14, 51, 0
17, 135120, Note_on_c, 14, 55, 84
17, 135359, Note_on_c, 14, 55, 0
17, 135360, Note_on_c, 14, 51, 84
17, 135839, Note_on_c, 14, 51, 0
17, 135840, Note_on_c, 14, 46, 84
17, 136064, Note_on_c, 14, 46, 0
17, 136080, Note_on_c, 14, 51, 84
17, 136319, Note_on_c, 14, 51, 0
17, 136320, Note_on_c, 14, 55, 84
17, 136559, Note_on_c, 14, 55, 0
17, 136560, Note_on_c, 14, 58, 84
17, 136784, Note_on_c, 14, 58, 0
17, 136800, Note_on_c, 14, 51, 84
17, 137264, Note_on_c, 14, 51, 0
17, 137280, Note_on_c, 14, 43, 92
17, 137504, Note_on_c, 14, 43, 0
17, 137520, Note_on_c, 14, 48, 84
17, 137759, Note_on_c, 14, 48, 0
17, 137760, Note_on_c, 14, 51, 84
17, 137999, Note_on_c, 14, 51, 0
17, 138000, Note_on_c, 14, 55, 84
17, 138224, Note_on_c, 14, 55, 0
17, 138240, Note_on_c, 14, 48, 84
17, 138704, Note_on_c, 14, 48, 0
17, 138720, Note_on_c, 14, 39, 92
17, 138944, Note_on_c, 14, 39, 0
17, 138960, Note_on_c, 14, 44, 84
17, 139064, Note_on_c, 14, 44, 0
17, 139080, Note_on_c, 14, 56, 84
17, 139184, Note_on_c, 14, 56, 0
17, 139200, Note_on_c, 14, 56, 84
17, 139304, Note_on_c, 14, 56, 0
17, 139320, Note_on_c, 14, 56, 84
17, 139424, Note_on_c, 14, 56, 0
17, 139440, Note_on_c, 14, 56, 84
17, 139544, Note_on_c, 14, 56, 0
17, 139560, Note_on_c, 14, 56, 84
17, 139664, Note_on_c, 14, 56, 0
17, 139680, Note_on_c, 14, 54, 84
17, 139784, Note_on_c, 14, 54, 0
17, 139800, Note_on_c, 14, 54, 84
17, 139904, Note_on_c, 14, 54, 0
17, 139920, Note_on_c, 14, 54, 84
17, 140024, Note_on_c, 14, 54, 0
17, 140040, Note_on_c, 14, 54, 84
17, 140144, Note_on_c, 14, 54, 0
17, 140160, Note_on_c, 14, 54, 84
17, 140264, Note_on_c, 14, 54, 0
17, 140280, Note_on_c, 14, 54, 84
17, 140384, Note_on_c, 14, 54, 0
17, 140400, Note_on_c, 14, 53, 84
17, 140639, Note_on_c, 14, 53, 0
17, 141840, Note_on_c, 14, 41, 52
17, 142019, Note_on_c, 14, 41, 0
17, 142080, Note_on_c, 14, 45, 52
17, 142259, Note_on_c, 14, 45, 0
17, 142320, Note_on_c, 14, 48, 52
17, 142499, Note_on_c, 14, 48, 0
17, 142560, Note_on_c, 14, 53, 52
17, 142739, Note_on_c, 14, 53, 0
17, 142800, Note_on_c, 14, 57, 52
17, 142979, Note_on_c, 14, 57, 0
17, 143040, Note_on_c, 14, 60, 52
17, 143219, Note_on_c, 14, 60, 0
17, 143280, Note_on_c, 14, 53, 52
17, 143519, Note_on_c, 14, 53, 0
17, 144720, Note_on_c, 14, 41, 52
17, 144899, Note_on_c, 14, 41, 0
17, 144960, Note_on_c, 14, 46, 52
17, 145139, Note_on_c, 14, 46, 0
17, 145200, Note_on_c, 14, 50, 52
17, 145379, Note_on_c, 14, 50, 0
17, 145440, Note_on_c, 14, 53, 52
17, 145619, Note_on_c, 14, 53, 0
17, 145680, Note_on_c, 14, 62, 52
17, 145859, Note_on_c, 14, 62, 0
17, 145920, Note_on_c, 14, 58, 52
17, 146099, Note_on_c, 14, 58, 0
17, 146160, Note_on_c, 14, 53, 52
17, 146399, Note_on_c, 14, 53, 0
17, 147840, Note_on_c, 14, 55, 84
17, 148184, Note_on_c, 14, 55, 0
17, 148200, Note_on_c, 14, 53, 84
17, 148304, Note_on_c, 14, 53, 0
17, 148320, Note_on_c, 14, 51, 84
17, 148499, Note_on_c, 14, 51, 0
17, 148560, Note_on_c, 14, 50, 84
17, 148739, Note_on_c, 14, 50, 0
17, 148800, Note_on_c, 14, 48, 84
17, 148979, Note_on_c, 14, 48, 0
17, 149025, Control_c, 14, 11, 96
17, 149040, Control_c, 14, 11, 96
17, 149040, Note_on_c, 14, 58, 68
17, 149100, Control_c, 14, 11, 99
17, 149160, Control_c, 14, 11, 101
17, 149220, Control_c, 14, 11, 104
17, 149280, Control_c, 14, 11, 106
17, 149340, Control_c, 14, 11, 109
17, 149400, Control_c, 14, 11, 112
17, 149460, Control_c, 14, 11, 114
17, 149519, Note_on_c, 14, 58, 0
17, 149520, Control_c, 14, 11, 117
17, 149520, Note_on_c, 14, 57, 68
17, 149580, Control_c, 14, 11, 119
17, 149639, Note_on_c, 14, 57, 0
17, 149640, Control_c, 14, 11, 122
17, 149640, Note_on_c, 14, 56, 68
17, 149700, Control_c, 14, 11, 124
17, 149759, Note_on_c, 14, 56, 0
17, 149760, Note_on_c, 14, 55, 68
17, 149760, Control_c, 14, 11, 127
17, 149820, Control_c, 14, 11, 124
17, 149880, Control_c, 14, 11, 122
17, 149940, Control_c, 14, 11, 119
17, 149999, Note_on_c, 14, 55, 0
17, 150000, Note_on_c, 14, 53, 68
17, 150000, Control_c, 14, 11, 117
17, 150060, Control_c, 14, 11, 114
17, 150120, Control_c, 14, 11, 112
17, 150180, Control_c, 14, 11, 109
17, 150239, Note_on_c, 14, 53, 0
17, 150240, Note_on_c, 14, 51, 68
17, 150240, Control_c, 14, 11, 106
17, 150300, Control_c, 14, 11, 104
17, 150360, Control_c, 14, 11, 101
17, 150420, Control_c, 14, 11, 96
17, 150479, Note_on_c, 14, 51, 0
17, 150480, Note_on_c, 14, 50, 68
17, 150569, Note_on_c, 14, 50, 0
17, 150600, Note_on_c, 14, 53, 68
17, 150689, Note_on_c, 14, 53, 0
17, 150720, Note_on_c, 14, 51, 68
17, 150809, Note_on_c, 14, 51, 0
17, 150840, Note_on_c, 14, 50, 68
17, 150929, Note_on_c, 14, 50, 0
17, 150960, Note_on_c, 14, 48, 68
17, 151049, Note_on_c, 14, 48, 0
17, 151080, Note_on_c, 14, 46, 68
17, 151169, Note_on_c, 14, 46, 0
17, 151200, Note_on_c, 14, 45, 68
17, 151289, Note_on_c, 14, 45, 0
17, 151320, Note_on_c, 14, 46, 68
17, 151409, Note_on_c, 14, 46, 0
17, 151440, Note_on_c, 14, 48, 68
17, 151529, Note_on_c, 14, 48, 0
17, 151560, Note_on_c, 14, 41, 68
17, 151649, Note_on_c, 14, 41, 0
17, 151680, Note_on_c, 14, 43, 68
17, 151769, Note_on_c, 14, 43, 0
17, 151800, Note_on_c, 14, 45, 68
17, 151889, Note_on_c, 14, 45, 0
17, 151905, Control_c, 14, 11, 80
17, 151920, Note_on_c, 14, 46, 76
17, 151920, Control_c, 14, 11, 80
17, 152009, Note_on_c, 14, 46, 0
17, 152040, Control_c, 14, 11, 82
17, 152040, Note_on_c, 14, 58, 76
17, 152129, Note_on_c, 14, 58, 0
17, 152160, Control_c, 14, 11, 84
17, 152160, Note_on_c, 14, 58, 76
17, 152249, Note_on_c, 14, 58, 0
17, 152280, Note_on_c, 14, 58, 76
17, 152280, Control_c, 14, 11, 86
17, 152399, Note_on_c, 14, 58, 0
17, 152400, Note_on_c, 14, 57, 76
17, 152400, Control_c, 14, 11, 88
17, 152519, Note_on_c, 14, 57, 0
17, 152520, Note_on_c, 14, 56, 76
17, 152520, Control_c, 14, 11, 90
17, 152624, Note_on_c, 14, 56, 0
17, 152640, Note_on_c, 14, 55, 76
17, 152640, Control_c, 14, 11, 92
17, 152759, Note_on_c, 14, 55, 0
17, 152760, Note_on_c, 14, 53, 76
17, 152760, Control_c, 14, 11, 94
17, 152864, Note_on_c, 14, 53, 0
17, 152880, Note_on_c, 14, 51, 76
17, 152880, Control_c, 14, 11, 96
17, 152984, Note_on_c, 14, 51, 0
17, 153000, Control_c, 14, 11, 98
17, 153000, Note_on_c, 14, 55, 76
17, 153089, Note_on_c, 14, 55, 0
17, 153120, Control_c, 14, 11, 100
17, 153120, Note_on_c, 14, 53, 76
17, 153209, Note_on_c, 14, 53, 0
17, 153240, Control_c, 14, 11, 102
17, 153240, Note_on_c, 14, 51, 76
17, 153329, Note_on_c, 14, 51, 0
17, 153360, Note_on_c, 14, 50, 76
17, 153360, Control_c, 14, 11, 104
17, 153449, Note_on_c, 14, 50, 0
17, 153480, Control_c, 14, 11, 105
17, 153480, Note_on_c, 14, 53, 76
17, 153569, Note_on_c, 14, 53, 0
17, 153600, Note_on_c, 14, 51, 76
17, 153600, Control_c, 14, 11, 107
17, 153689, Note_on_c, 14, 51, 0
17, 153720, Control_c, 14, 11, 109
17, 153720, Note_on_c, 14, 50, 76
17, 153809, Note_on_c, 14, 50, 0
17, 153840, Control_c, 14, 11, 111
17, 153840, Note_on_c, 14, 48, 76
17, 153929, Note_on_c, 14, 48, 0
17, 153960, Control_c, 14, 11, 113
17, 153960, Note_on_c, 14, 46, 76
17, 154049, Note_on_c, 14, 46, 0
17, 154080, Note_on_c, 14, 45, 76
17, 154080, Control_c, 14, 11, 115
17, 154169, Note_on_c, 14, 45, 0
17, 154200, Control_c, 14, 11, 117
17, 154200, Note_on_c, 14, 46, 76
17, 154289, Note_on_c, 14, 46, 0
17, 154320, Control_c, 14, 11, 119
17, 154320, Note_on_c, 14, 48, 76
17, 154409, Note_on_c, 14, 48, 0
17, 154440, Note_on_c, 14, 46, 76
17, 154440, Control_c, 14, 11, 121
17, 154529, Note_on_c, 14, 46, 0
17, 154560, Note_on_c, 14, 45, 76
17, 154560, Control_c, 14, 11, 123
17, 154649, Note_on_c, 14, 45, 0
17, 154680, Control_c, 14, 11, 127
17, 154680, Note_on_c, 14, 43, 76
17, 154769, Note_on_c, 14, 43, 0
17, 154800, Note_on_c, 14, 42, 76
17, 154979, Note_on_c, 14, 42, 0
17, 155040, Note_on_c, 14, 54, 76
17, 155219, Note_on_c, 14, 54, 0
17, 156120, Note_on_c, 14, 42, 76
17, 156209, Note_on_c, 14, 42, 0
17, 156240, Note_on_c, 14, 43, 76
17, 156419, Note_on_c, 14, 43, 0
17, 156480, Note_on_c, 14, 55, 76
17, 156659, Note_on_c, 14, 55, 0
17, 157560, Note_on_c, 14, 55, 76
17, 157649, Note_on_c, 14, 55, 0
17, 157680, Note_on_c, 14, 53, 76
17, 157904, Note_on_c, 14, 53, 0
17, 157920, Note_on_c, 14, 65, 76
17, 158099, Note_on_c, 14, 65, 0
17, 158760, Note_on_c, 14, 53, 76
17, 158849, Note_on_c, 14, 53, 0
17, 158880, Note_on_c, 14, 53, 76
17, 158969, Note_on_c, 14, 53, 0
17, 159000, Note_on_c, 14, 53, 76
17, 159089, Note_on_c, 14, 53, 0
17, 159120, Note_on_c, 14, 51, 76
17, 159209, Note_on_c, 14, 51, 0
17, 159240, Note_on_c, 14, 51, 76
17, 159464, Note_on_c, 14, 51, 0
17, 159480, Note_on_c, 14, 52, 76
17, 159569, Note_on_c, 14, 52, 0
17, 159600, Note_on_c, 14, 53, 76
17, 159689, Note_on_c, 14, 53, 0
17, 159720, Note_on_c, 14, 54, 76
17, 159809, Note_on_c, 14, 54, 0
17, 159840, Note_on_c, 14, 55, 76
17, 159929, Note_on_c, 14, 55, 0
17, 159960, Note_on_c, 14, 55, 76
17, 160184, Note_on_c, 14, 55, 0
17, 160200, Note_on_c, 14, 55, 76
17, 160289, Note_on_c, 14, 55, 0
17, 160320, Note_on_c, 14, 56, 76
17, 160409, Note_on_c, 14, 56, 0
17, 160440, Note_on_c, 14, 57, 76
17, 160529, Note_on_c, 14, 57, 0
17, 160560, Note_on_c, 14, 58, 76
17, 160664, Note_on_c, 14, 58, 0
17, 160680, Note_on_c, 14, 58, 76
17, 160784, Note_on_c, 14, 58, 0
17, 160800, Note_on_c, 14, 56, 76
17, 160904, Note_on_c, 14, 56, 0
17, 160920, Note_on_c, 14, 56, 76
17, 161024, Note_on_c, 14, 56, 0
17, 161040, Note_on_c, 14, 55, 76
17, 161144, Note_on_c, 14, 55, 0
17, 161160, Note_on_c, 14, 55, 76
17, 161264, Note_on_c, 14, 55, 0
17, 161280, Note_on_c, 14, 54, 76
17, 161384, Note_on_c, 14, 54, 0
17, 161400, Note_on_c, 14, 54, 76
17, 161504, Note_on_c, 14, 54, 0
17, 161520, Note_on_c, 14, 53, 76
17, 161624, Note_on_c, 14, 53, 0
17, 161640, Note_on_c, 14, 53, 76
17, 161744, Note_on_c, 14, 53, 0
17, 161760, Note_on_c, 14, 50, 76
17, 161864, Note_on_c, 14, 50, 0
17, 161880, Note_on_c, 14, 50, 76
17, 161984, Note_on_c, 14, 50, 0
17, 162000, Note_on_c, 14, 51, 76
17, 162104, Note_on_c, 14, 51, 0
17, 162120, Note_on_c, 14, 51, 76
17, 162224, Note_on_c, 14, 51, 0
17, 162240, Note_on_c, 14, 51, 76
17, 162344, Note_on_c, 14, 51, 0
17, 162360, Note_on_c, 14, 51, 76
17, 162464, Note_on_c, 14, 51, 0
17, 162480, Note_on_c, 14, 51, 76
17, 162584, Note_on_c, 14, 51, 0
17, 162600, Note_on_c, 14, 51, 76
17, 162704, Note_on_c, 14, 51, 0
17, 162720, Note_on_c, 14, 51, 76
17, 162824, Note_on_c, 14, 51, 0
17, 162840, Note_on_c, 14, 51, 76
17, 162944, Note_on_c, 14, 51, 0
17, 162960, Note_on_c, 14, 51, 76
17, 163064, Note_on_c, 14, 51, 0
17, 163080, Note_on_c, 14, 51, 76
17, 163184, Note_on_c, 14, 51, 0
17, 163200, Note_on_c, 14, 51, 76
17, 163304, Note_on_c, 14, 51, 0
17, 163320, Note_on_c, 14, 51, 76
17, 163424, Note_on_c, 14, 51, 0
17, 163440, Note_on_c, 14, 53, 76
17, 163544, Note_on_c, 14, 53, 0
17, 163560, Note_on_c, 14, 53, 76
17, 163664, Note_on_c, 14, 53, 0
17, 163680, Note_on_c, 14, 53, 76
17, 163784, Note_on_c, 14, 53, 0
17, 163800, Note_on_c, 14, 53, 76
17, 163904, Note_on_c, 14, 53, 0
17, 163920, Note_on_c, 14, 53, 76
17, 164024, Note_on_c, 14, 53, 0
17, 164040, Note_on_c, 14, 53, 76
17, 164144, Note_on_c, 14, 53, 0
17, 164160, Note_on_c, 14, 53, 76
17, 164264, Note_on_c, 14, 53, 0
17, 164280, Note_on_c, 14, 53, 76
17, 164384, Note_on_c, 14, 53, 0
17, 164400, Note_on_c, 14, 53, 76
17, 164504, Note_on_c, 14, 53, 0
17, 164520, Note_on_c, 14, 53, 76
17, 164624, Note_on_c, 14, 53, 0
17, 164640, Note_on_c, 14, 53, 76
17, 164744, Note_on_c, 14, 53, 0
17, 164760, Note_on_c, 14, 53, 76
17, 164864, Note_on_c, 14, 53, 0
17, 164880, Note_on_c, 14, 41, 76
17, 164984, Note_on_c, 14, 41, 0
17, 165000, Note_on_c, 14, 53, 76
17, 165104, Note_on_c, 14, 53, 0
17, 165120, Note_on_c, 14, 53, 76
17, 165224, Note_on_c, 14, 53, 0
17, 165240, Note_on_c, 14, 53, 76
17, 165344, Note_on_c, 14, 53, 0
17, 165360, Note_on_c, 14, 53, 76
17, 165464, Note_on_c, 14, 53, 0
17, 165480, Note_on_c, 14, 53, 76
17, 165584, Note_on_c, 14, 53, 0
17, 165600, Note_on_c, 14, 53, 76
17, 165704, Note_on_c, 14, 53, 0
17, 165720, Note_on_c, 14, 53, 76
17, 165824, Note_on_c, 14, 53, 0
17, 165840, Note_on_c, 14, 53, 76
17, 165944, Note_on_c, 14, 53, 0
17, 165960, Note_on_c, 14, 53, 76
17, 166064, Note_on_c, 14, 53, 0
17, 166080, Note_on_c, 14, 53, 76
17, 166184, Note_on_c, 14, 53, 0
17, 166200, Note_on_c, 14, 53, 76
17, 166304, Note_on_c, 14, 53, 0
17, 166320, Note_on_c, 14, 53, 84
17, 166409, Note_on_c, 14, 53, 0
17, 166440, Note_on_c, 14, 64, 84
17, 166529, Note_on_c, 14, 64, 0
17, 166560, Note_on_c, 14, 63, 84
17, 166649, Note_on_c, 14, 63, 0
17, 166680, Note_on_c, 14, 62, 84
17, 166769, Note_on_c, 14, 62, 0
17, 166800, Note_on_c, 14, 60, 84
17, 166889, Note_on_c, 14, 60, 0
17, 166920, Note_on_c, 14, 58, 84
17, 167009, Note_on_c, 14, 58, 0
17, 167040, Note_on_c, 14, 57, 84
17, 167129, Note_on_c, 14, 57, 0
17, 167160, Note_on_c, 14, 55, 84
17, 167249, Note_on_c, 14, 55, 0
17, 167280, Note_on_c, 14, 53, 84
17, 167369, Note_on_c, 14, 53, 0
17, 167400, Note_on_c, 14, 51, 84
17, 167489, Note_on_c, 14, 51, 0
17, 167520, Note_on_c, 14, 50, 84
17, 167609, Note_on_c, 14, 50, 0
17, 167640, Note_on_c, 14, 48, 84
17, 167729, Note_on_c, 14, 48, 0
17, 167760, Note_on_c, 14, 46, 84
17, 167999, Note_on_c, 14, 46, 0
17, 170640, Control_c, 14, 11, 96
17, 170880, Note_on_c, 14, 60, 68
17, 170880, Control_c, 14, 11, 96
17, 170980, Control_c, 14, 11, 99
17, 171080, Control_c, 14, 11, 101
17, 171089, Note_on_c, 14, 60, 0
17, 171120, Note_on_c, 14, 60, 68
17, 171180, Control_c, 14, 11, 104
17, 171280, Control_c, 14, 11, 106
17, 171329, Note_on_c, 14, 60, 0
17, 171360, Note_on_c, 14, 60, 68
17, 171380, Control_c, 14, 11, 109
17, 171480, Control_c, 14, 11, 112
17, 171569, Note_on_c, 14, 60, 0
17, 171580, Control_c, 14, 11, 114
17, 171600, Note_on_c, 14, 60, 68
17, 171680, Control_c, 14, 11, 117
17, 171780, Control_c, 14, 11, 119
17, 171809, Note_on_c, 14, 60, 0
17, 171840, Note_on_c, 14, 60, 68
17, 171880, Control_c, 14, 11, 122
17, 171980, Control_c, 14, 11, 127
17, 172049, Note_on_c, 14, 60, 0
17, 172080, Note_on_c, 14, 60, 68
17, 172304, Note_on_c, 14, 60, 0
17, 172320, Note_on_c, 14, 60, 76
17, 172769, Note_on_c, 14, 60, 0
17, 172800, Control_c, 14, 11, 127
17, 172800, Note_on_c, 14, 60, 76
17, 172860, Control_c, 14, 11, 124
17, 172920, Control_c, 14, 11, 122
17, 172980, Control_c, 14, 11, 119
17, 173040, Control_c, 14, 11, 117
17, 173100, Control_c, 14, 11, 114
17, 173160, Control_c, 14, 11, 112
17, 173220, Control_c, 14, 11, 109
17, 173279, Note_on_c, 14, 60, 0
17, 173280, Control_c, 14, 11, 106
17, 173280, Note_on_c, 14, 60, 68
17, 173340, Control_c, 14, 11, 104
17, 173399, Note_on_c, 14, 60, 0
17, 173400, Note_on_c, 14, 57, 68
17, 173400, Control_c, 14, 11, 101
17, 173460, Control_c, 14, 11, 96
17, 173519, Note_on_c, 14, 57, 0
17, 173520, Note_on_c, 14, 58, 68
17, 173759, Note_on_c, 14, 58, 0
17, 176640, Note_on_c, 14, 53, 68
17, 176879, Note_on_c, 14, 53, 0
17, 176880, Note_on_c, 14, 49, 68
17, 177119, Note_on_c, 14, 49, 0
17, 177120, Note_on_c, 14, 48, 68
17, 177120, Control_c, 14, 11, 96
17, 177160, Control_c, 14, 11, 99
17, 177200, Control_c, 14, 11, 101
17, 177240, Control_c, 14, 11, 104
17, 177280, Control_c, 14, 11, 106
17, 177320, Control_c, 14, 11, 109
17, 177360, Control_c, 14, 11, 112
17, 177400, Control_c, 14, 11, 114
17, 177440, Control_c, 14, 11, 117
17, 177480, Control_c, 14, 11, 119
17, 177520, Control_c, 14, 11, 122
17, 177560, Control_c, 14, 11, 124
17, 177599, Note_on_c, 14, 48, 0
17, 177600, Control_c, 14, 11, 127
17, 177600, Note_on_c, 14, 47, 68
17, 177640, Control_c, 14, 11, 122
17, 177680, Control_c, 14, 11, 117
17, 177720, Control_c, 14, 11, 112
17, 177760, Control_c, 14, 11, 106
17, 177800, Control_c, 14, 11, 96
17, 177839, Note_on_c, 14, 47, 0
17, 177840, Note_on_c, 14, 48, 68
17, 178079, Note_on_c, 14, 48, 0
17, 179280, Control_c, 14, 11, 127
17, 179520, Note_on_c, 14, 53, 44
17, 179699, Note_on_c, 14, 53, 0
17, 179760, Note_on_c, 14, 53, 44
17, 179939, Note_on_c, 14, 53, 0
17, 180240, Note_on_c, 14, 53, 44
17, 180419, Note_on_c, 14, 53, 0
17, 180480, Note_on_c, 14, 53, 44
17, 180659, Note_on_c, 14, 53, 0
17, 180960, Note_on_c, 14, 53, 44
17, 181139, Note_on_c, 14, 53, 0
17, 181200, Note_on_c, 14, 53, 44
17, 181379, Note_on_c, 14, 53, 0
17, 181440, Note_on_c, 14, 53, 44
17, 181619, Note_on_c, 14, 53, 0
17, 181680, Note_on_c, 14, 53, 44
17, 181859, Note_on_c, 14, 53, 0
17, 181920, Note_on_c, 14, 53, 44
17, 182099, Note_on_c, 14, 53, 0
17, 182640, Note_on_c, 14, 63, 44
17, 182729, Note_on_c, 14, 63, 0
17, 182760, Note_on_c, 14, 62, 44
17, 182849, Note_on_c, 14, 62, 0
17, 182880, Note_on_c, 14, 60, 44
17, 182969, Note_on_c, 14, 60, 0
17, 183000, Note_on_c, 14, 62, 44
17, 183089, Note_on_c, 14, 62, 0
17, 183120, Note_on_c, 14, 63, 44
17, 183209, Note_on_c, 14, 63, 0
17, 183240, Note_on_c, 14, 62, 44
17, 183329, Note_on_c, 14, 62, 0
17, 183360, Note_on_c, 14, 60, 44
17, 183449, Note_on_c, 14, 60, 0
17, 183480, Note_on_c, 14, 58, 44
17, 183569, Note_on_c, 14, 58, 0
17, 183600, Note_on_c, 14, 57, 44
17, 183689, Note_on_c, 14, 57, 0
17, 183720, Note_on_c, 14, 58, 45
17, 183809, Note_on_c, 14, 58, 0
17, 183840, Note_on_c, 14, 60, 46
17, 183929, Note_on_c, 14, 60, 0
17, 183960, Note_on_c, 14, 62, 48
17, 184049, Note_on_c, 14, 62, 0
17, 184080, Note_on_c, 14, 63, 49
17, 184169, Note_on_c, 14, 63, 0
17, 184200, Note_on_c, 14, 62, 50
17, 184289, Note_on_c, 14, 62, 0
17, 184320, Note_on_c, 14, 60, 52
17, 184409, Note_on_c, 14, 60, 0
17, 184440, Note_on_c, 14, 62, 53
17, 184529, Note_on_c, 14, 62, 0
17, 184560, Note_on_c, 14, 63, 54
17, 184649, Note_on_c, 14, 63, 0
17, 184680, Note_on_c, 14, 62, 56
17, 184769, Note_on_c, 14, 62, 0
17, 184800, Note_on_c, 14, 60, 57
17, 184889, Note_on_c, 14, 60, 0
17, 184920, Note_on_c, 14, 58, 58
17, 185009, Note_on_c, 14, 58, 0
17, 185040, Note_on_c, 14, 57, 60
17, 185129, Note_on_c, 14, 57, 0
17, 185160, Note_on_c, 14, 58, 61
17, 185249, Note_on_c, 14, 58, 0
17, 185280, Note_on_c, 14, 60, 62
17, 185369, Note_on_c, 14, 60, 0
17, 185400, Note_on_c, 14, 62, 64
17, 185489, Note_on_c, 14, 62, 0
17, 185520, Note_on_c, 14, 60, 65
17, 185609, Note_on_c, 14, 60, 0
17, 185640, Note_on_c, 14, 58, 66
17, 185729, Note_on_c, 14, 58, 0
17, 185760, Note_on_c, 14, 57, 68
17, 185849, Note_on_c, 14, 57, 0
17, 185880, Note_on_c, 14, 55, 69
17, 185969, Note_on_c, 14, 55, 0
17, 186000, Note_on_c, 14, 53, 70
17, 186089, Note_on_c, 14, 53, 0
17, 186120, Note_on_c, 14, 51, 72
17, 186209, Note_on_c, 14, 51, 0
17, 186240, Note_on_c, 14, 50, 73
17, 186329, Note_on_c, 14, 50, 0
17, 186360, Note_on_c, 14, 48, 74
17, 186449, Note_on_c, 14, 48, 0
17, 186480, Note_on_c, 14, 46, 76
17, 186584, Note_on_c, 14, 46, 0
17, 186600, Note_on_c, 14, 41, 76
17, 186704, Note_on_c, 14, 41, 0
17, 186720, Note_on_c, 14, 46, 76
17, 186824, Note_on_c, 14, 46, 0
17, 186840, Note_on_c, 14, 41, 76
17, 186944, Note_on_c, 14, 41, 0
17, 186960, Note_on_c, 14, 46, 76
17, 187064, Note_on_c, 14, 46, 0
17, 187080, Note_on_c, 14, 41, 76
17, 187184, Note_on_c, 14, 41, 0
17, 187200, Note_on_c, 14, 46, 76
17, 187304, Note_on_c, 14, 46, 0
17, 187320, Note_on_c, 14, 41, 76
17, 187424, Note_on_c, 14, 41, 0
17, 187440, Note_on_c, 14, 46, 84
17, 187544, Note_on_c, 14, 46, 0
17, 187560, Note_on_c, 14, 41, 76
17, 187664, Note_on_c, 14, 41, 0
17, 187680, Note_on_c, 14, 46, 76
17, 187784, Note_on_c, 14, 46, 0
17, 187800, Note_on_c, 14, 41, 76
17, 187904, Note_on_c, 14, 41, 0
17, 187920, Note_on_c, 14, 45, 76
17, 188024, Note_on_c, 14, 45, 0
17, 188040, Note_on_c, 14, 41, 76
17, 188144, Note_on_c, 14, 41, 0
17, 188160, Note_on_c, 14, 45, 84
17, 188264, Note_on_c, 14, 45, 0
17, 188280, Note_on_c, 14, 41, 76
17, 188384, Note_on_c, 14, 41, 0
17, 188400, Note_on_c, 14, 45, 76
17, 188504, Note_on_c, 14, 45, 0
17, 188520, Note_on_c, 14, 41, 76
17, 188624, Note_on_c, 14, 41, 0
17, 188640, Note_on_c, 14, 48, 76
17, 188744, Note_on_c, 14, 48, 0
17, 188760, Note_on_c, 14, 41, 76
17, 188864, Note_on_c, 14, 41, 0
17, 188880, Note_on_c, 14, 51, 84
17, 188984, Note_on_c, 14, 51, 0
17, 189000, Note_on_c, 14, 41, 76
17, 189104, Note_on_c, 14, 41, 0
17, 189120, Note_on_c, 14, 45, 76
17, 189224, Note_on_c, 14, 45, 0
17, 189240, Note_on_c, 14, 41, 76
17, 189344, Note_on_c, 14, 41, 0
17, 189360, Note_on_c, 14, 46, 84
17, 189464, Note_on_c, 14, 46, 0
17, 189480, Note_on_c, 14, 41, 84
17, 189584, Note_on_c, 14, 41, 0
17, 189600, Note_on_c, 14, 46, 84
17, 189704, Note_on_c, 14, 46, 0
17, 189720, Note_on_c, 14, 41, 84
17, 189824, Note_on_c, 14, 41, 0
17, 189840, Note_on_c, 14, 46, 84
17, 189944, Note_on_c, 14, 46, 0
17, 189960, Note_on_c, 14, 41, 84
17, 190064, Note_on_c, 14, 41, 0
17, 190080, Note_on_c, 14, 46, 84
17, 190184, Note_on_c, 14, 46, 0
17, 190200, Note_on_c, 14, 41, 84
17, 190304, Note_on_c, 14, 41, 0
17, 190320, Note_on_c, 14, 46, 84
17, 190424, Note_on_c, 14, 46, 0
17, 190440, Note_on_c, 14, 41, 84
17, 190544, Note_on_c, 14, 41, 0
17, 190560, Note_on_c, 14, 46, 84
17, 190664, Note_on_c, 14, 46, 0
17, 190680, Note_on_c, 14, 41, 84
17, 190784, Note_on_c, 14, 41, 0
17, 190800, Note_on_c, 14, 45, 84
17, 190904, Note_on_c, 14, 45, 0
17, 190920, Note_on_c, 14, 41, 84
17, 191024, Note_on_c, 14, 41, 0
17, 191040, Note_on_c, 14, 45, 84
17, 191144, Note_on_c, 14, 45, 0
17, 191160, Note_on_c, 14, 41, 84
17, 191264, Note_on_c, 14, 41, 0
17, 191280, Note_on_c, 14, 45, 84
17, 191384, Note_on_c, 14, 45, 0
17, 191400, Note_on_c, 14, 41, 84
17, 191504, Note_on_c, 14, 41, 0
17, 191520, Note_on_c, 14, 48, 84
17, 191624, Note_on_c, 14, 48, 0
17, 191640, Note_on_c, 14, 41, 84
17, 191744, Note_on_c, 14, 41, 0
17, 191760, Note_on_c, 14, 51, 84
17, 191864, Note_on_c, 14, 51, 0
17, 191880, Note_on_c, 14, 53, 84
17, 191984, Note_on_c, 14, 53, 0
17, 192000, Note_on_c, 14, 51, 84
17, 192104, Note_on_c, 14, 51, 0
17, 192120, Note_on_c, 14, 53, 84
17, 192224, Note_on_c, 14, 53, 0
17, 192240, Note_on_c, 14, 50, 84
17, 192839, Note_on_c, 14, 50, 0
17, 192840, Note_on_c, 14, 49, 84
17, 192944, Note_on_c, 14, 49, 0
17, 192960, Note_on_c, 14, 50, 84
17, 193049, Note_on_c, 14, 50, 0
17, 193080, Note_on_c, 14, 45, 84
17, 193169, Note_on_c, 14, 45, 0
17, 193200, Note_on_c, 14, 46, 84
17, 193289, Note_on_c, 14, 46, 0
17, 193320, Note_on_c, 14, 48, 84
17, 193409, Note_on_c, 14, 48, 0
17, 193440, Note_on_c, 14, 49, 84
17, 193529, Note_on_c, 14, 49, 0
17, 193560, Note_on_c, 14, 50, 84
17, 193649, Note_on_c, 14, 50, 0
17, 193680, Note_on_c, 14, 51, 84
17, 193769, Note_on_c, 14, 51, 0
17, 193800, Note_on_c, 14, 50, 84
17, 193889, Note_on_c, 14, 50, 0
17, 193920, Note_on_c, 14, 48, 92
17, 194009, Note_on_c, 14, 48, 0
17, 194040, Note_on_c, 14, 52, 84
17, 194129, Note_on_c, 14, 52, 0
17, 194160, Note_on_c, 14, 53, 84
17, 194249, Note_on_c, 14, 53, 0
17, 194280, Note_on_c, 14, 51, 84
17, 194369, Note_on_c, 14, 51, 0
17, 194400, Note_on_c, 14, 50, 92
17, 194489, Note_on_c, 14, 50, 0
17, 194520, Note_on_c, 14, 54, 84
17, 194609, Note_on_c, 14, 54, 0
17, 194640, Note_on_c, 14, 55, 84
17, 194729, Note_on_c, 14, 55, 0
17, 194760, Note_on_c, 14, 53, 84
17, 194849, Note_on_c, 14, 53, 0
17, 194880, Note_on_c, 14, 51, 92
17, 194969, Note_on_c, 14, 51, 0
17, 195000, Note_on_c, 14, 55, 84
17, 195089, Note_on_c, 14, 55, 0
17, 195120, Note_on_c, 14, 57, 84
17, 195209, Note_on_c, 14, 57, 0
17, 195240, Note_on_c, 14, 55, 84
17, 195329, Note_on_c, 14, 55, 0
17, 195360, Note_on_c, 14, 53, 92
17, 195449, Note_on_c, 14, 53, 0
17, 195480, Note_on_c, 14, 57, 84
17, 195569, Note_on_c, 14, 57, 0
17, 195600, Note_on_c, 14, 58, 84
17, 195689, Note_on_c, 14, 58, 0
17, 195720, Note_on_c, 14, 57, 84
17, 195809, Note_on_c, 14, 57, 0
17, 195840, Note_on_c, 14, 55, 84
17, 195929, Note_on_c, 14, 55, 0
17, 195960, Note_on_c, 14, 54, 84
17, 196049, Note_on_c, 14, 54, 0
17, 196080, Note_on_c, 14, 55, 84
17, 196169, Note_on_c, 14, 55, 0
17, 196200, Note_on_c, 14, 53, 84
17, 196289, Note_on_c, 14, 53, 0
17, 196320, Note_on_c, 14, 52, 84
17, 196409, Note_on_c, 14, 52, 0
17, 196440, Note_on_c, 14, 51, 84
17, 196529, Note_on_c, 14, 51, 0
17, 196560, Note_on_c, 14, 50, 84
17, 196739, Note_on_c, 14, 50, 0
17, 196800, Note_on_c, 14, 54, 84
17, 196979, Note_on_c, 14, 54, 0
17, 197040, Note_on_c, 14, 55, 84
17, 197219, Note_on_c, 14, 55, 0
17, 197520, Note_on_c, 14, 50, 84
17, 197699, Note_on_c, 14, 50, 0
17, 197760, Note_on_c, 14, 51, 84
17, 197939, Note_on_c, 14, 51, 0
17, 198240, Note_on_c, 14, 52, 84
17, 198419, Note_on_c, 14, 52, 0
17, 198480, Note_on_c, 14, 53, 84
17, 198659, Note_on_c, 14, 53, 0
17, 198960, Note_on_c, 14, 54, 84
17, 199139, Note_on_c, 14, 54, 0
17, 199200, Note_on_c, 14, 55, 84
17, 199379, Note_on_c, 14, 55, 0
17, 199680, Note_on_c, 14, 50, 84
17, 199859, Note_on_c, 14, 50, 0
17, 199920, Note_on_c, 14, 51, 84
17, 200099, Note_on_c, 14, 51, 0
17, 200400, Note_on_c, 14, 52, 92
17, 200579, Note_on_c, 14, 52, 0
17, 200880, Note_on_c, 14, 52, 92
17, 201059, Note_on_c, 14, 52, 0
17, 201360, Note_on_c, 14, 52, 92
17, 201539, Note_on_c, 14, 52, 0
17, 201840, Note_on_c, 14, 52, 92
17, 202019, Note_on_c, 14, 52, 0
17, 202320, Note_on_c, 14, 52, 92
17, 202499, Note_on_c, 14, 52, 0
17, 202800, Note_on_c, 14, 52, 92
17, 202979, Note_on_c, 14, 52, 0
17, 203040, Note_on_c, 14, 53, 52
17, 203279, Note_on_c, 14, 53, 0
17, 203280, Note_on_c, 14, 58, 52
17, 203519, Note_on_c, 14, 58, 0
17, 203520, Note_on_c, 14, 62, 52
17, 203744, Note_on_c, 14, 62, 0
17, 203760, Note_on_c, 14, 54, 76
17, 203880, Control_c, 14, 11, 80
17, 204449, Note_on_c, 14, 54, 0
17, 204480, Note_on_c, 14, 53, 76
17, 204719, Note_on_c, 14, 53, 0
17, 204720, Note_on_c, 14, 58, 76
17, 204959, Note_on_c, 14, 58, 0
17, 204960, Note_on_c, 14, 62, 76
17, 205169, Note_on_c, 14, 62, 0
17, 205185, Control_c, 14, 11, 127
17, 205200, Note_on_c, 14, 55, 76
17, 205320, Control_c, 14, 11, 80
17, 205370, Control_c, 14, 11, 79
17, 205420, Control_c, 14, 11, 77
17, 205470, Control_c, 14, 11, 76
17, 205520, Control_c, 14, 11, 75
17, 205570, Control_c, 14, 11, 73
17, 205620, Control_c, 14, 11, 72
17, 205670, Control_c, 14, 11, 71
17, 205720, Control_c, 14, 11, 69
17, 205770, Control_c, 14, 11, 68
17, 205820, Control_c, 14, 11, 67
17, 205870, Control_c, 14, 11, 64
17, 206159, Note_on_c, 14, 55, 0
17, 206280, Note_on_c, 14, 43, 84
17, 206369, Note_on_c, 14, 43, 0
17, 206400, Note_on_c, 14, 46, 84
17, 206489, Note_on_c, 14, 46, 0
17, 206520, Note_on_c, 14, 51, 84
17, 206609, Note_on_c, 14, 51, 0
17, 206640, Note_on_c, 14, 44, 84
17, 206879, Note_on_c, 14, 44, 0
17, 207000, Note_on_c, 14, 44, 84
17, 207089, Note_on_c, 14, 44, 0
17, 207120, Note_on_c, 14, 48, 84
17, 207209, Note_on_c, 14, 48, 0
17, 207240, Note_on_c, 14, 51, 84
17, 207329, Note_on_c, 14, 51, 0
17, 207360, Note_on_c, 14, 45, 84
17, 207599, Note_on_c, 14, 45, 0
17, 207720, Note_on_c, 14, 45, 84
17, 207809, Note_on_c, 14, 45, 0
17, 207840, Note_on_c, 14, 48, 84
17, 207929, Note_on_c, 14, 48, 0
17, 207960, Note_on_c, 14, 53, 84
17, 208049, Note_on_c, 14, 53, 0
17, 208080, Note_on_c, 14, 46, 84
17, 208319, Note_on_c, 14, 46, 0
17, 208440, Note_on_c, 14, 58, 84
17, 208529, Note_on_c, 14, 58, 0
17, 208560, Note_on_c, 14, 53, 84
17, 208649, Note_on_c, 14, 53, 0
17, 208680, Note_on_c, 14, 50, 84
17, 208769, Note_on_c, 14, 50, 0
17, 208800, Note_on_c, 14, 51, 84
17, 208800, Control_c, 14, 11, 64
17, 208890, Control_c, 14, 11, 67
17, 208904, Note_on_c, 14, 51, 0
17, 208920, Note_on_c, 14, 51, 84
17, 208980, Control_c, 14, 11, 69
17, 209024, Note_on_c, 14, 51, 0
17, 209040, Note_on_c, 14, 51, 84
17, 209070, Control_c, 14, 11, 72
17, 209144, Note_on_c, 14, 51, 0
17, 209160, Note_on_c, 14, 51, 84
17, 209160, Control_c, 14, 11, 75
17, 209250, Control_c, 14, 11, 77
17, 209264, Note_on_c, 14, 51, 0
17, 209280, Note_on_c, 14, 51, 84
17, 209340, Control_c, 14, 11, 80
17, 209384, Note_on_c, 14, 51, 0
17, 209400, Note_on_c, 14, 51, 84
17, 209430, Control_c, 14, 11, 82
17, 209504, Note_on_c, 14, 51, 0
17, 209520, Note_on_c, 14, 48, 84
17, 209520, Control_c, 14, 11, 85
17, 209610, Control_c, 14, 11, 88
17, 209624, Note_on_c, 14, 48, 0
17, 209640, Note_on_c, 14, 48, 84
17, 209700, Control_c, 14, 11, 90
17, 209744, Note_on_c, 14, 48, 0
17, 209760, Note_on_c, 14, 48, 84
17, 209790, Control_c, 14, 11, 93
17, 209864, Note_on_c, 14, 48, 0
17, 209880, Note_on_c, 14, 48, 84
17, 209880, Control_c, 14, 11, 96
17, 209970, Control_c, 14, 11, 98
17, 209999, Note_on_c, 14, 48, 0
17, 210000, Note_on_c, 14, 50, 84
17, 210060, Control_c, 14, 11, 101
17, 210119, Note_on_c, 14, 50, 0
17, 210120, Note_on_c, 14, 51, 84
17, 210150, Control_c, 14, 11, 103
17, 210224, Note_on_c, 14, 51, 0
17, 210240, Control_c, 14, 11, 106
17, 210240, Note_on_c, 14, 53, 84
17, 210330, Control_c, 14, 11, 109
17, 210344, Note_on_c, 14, 53, 0
17, 210360, Note_on_c, 14, 53, 84
17, 210420, Control_c, 14, 11, 111
17, 210464, Note_on_c, 14, 53, 0
17, 210480, Note_on_c, 14, 53, 84
17, 210510, Control_c, 14, 11, 114
17, 210584, Note_on_c, 14, 53, 0
17, 210600, Note_on_c, 14, 53, 84
17, 210600, Control_c, 14, 11, 117
17, 210690, Control_c, 14, 11, 119
17, 210704, Note_on_c, 14, 53, 0
17, 210720, Note_on_c, 14, 50, 84
17, 210780, Control_c, 14, 11, 122
17, 210824, Note_on_c, 14, 50, 0
17, 210840, Note_on_c, 14, 46, 84
17, 210870, Control_c, 14, 11, 127
17, 210944, Note_on_c, 14, 46, 0
17, 210960, Note_on_c, 14, 41, 84
17, 211064, Note_on_c, 14, 41, 0
17, 211080, Note_on_c, 14, 53, 84
17, 211184, Note_on_c, 14, 53, 0
17, 211200, Note_on_c, 14, 53, 84
17, 211304, Note_on_c, 14, 53, 0
17, 211320, Note_on_c, 14, 53, 84
17, 211424, Note_on_c, 14, 53, 0
17, 211440, Note_on_c, 14, 53, 84
17, 211544, Note_on_c, 14, 53, 0
17, 211560, Note_on_c, 14, 53, 84
17, 211664, Note_on_c, 14, 53, 0
17, 211680, Note_on_c, 14, 58, 76
17, 211859, Note_on_c, 14, 58, 0
17, 212400, Note_on_c, 14, 46, 76
17, 212579, Note_on_c, 14, 46, 0
17, 213120, Note_on_c, 14, 46, 76
17, 213299, Note_on_c, 14, 46, 0
17, 213840, Note_on_c, 14, 46, 76
17, 214019, Note_on_c, 14, 46, 0
17, 214080, Note_on_c, 14, 46, 76
17, 214259, Note_on_c, 14, 46, 0
17, 214320, Note_on_c, 14, 46, 76
17, 214499, Note_on_c, 14, 46, 0
17, 214560, Note_on_c, 14, 46, 76
17, 214680, Control_c, 14, 11, 80
17, 215999, Note_on_c, 14, 46, 0
17, 216000, Note_on_c, 14, 46, 76
17, 216000, Control_c, 14, 11, 80
17, 216120, Control_c, 14, 11, 79
17, 216240, Control_c, 14, 11, 77
17, 216360, Control_c, 14, 11, 76
17, 216480, Control_c, 14, 11, 75
17, 216600, Control_c, 14, 11, 73
17, 216720, Control_c, 14, 11, 72
17, 216840, Control_c, 14, 11, 71
17, 216960, Control_c, 14, 11, 69
17, 217080, Control_c, 14, 11, 68
17, 217200, Control_c, 14, 11, 67
17, 217424, Note_on_c, 14, 46, 0
17, 217432, Control_c, 14, 11, 96
17, 217440, Note_on_c, 14, 46, 60
17, 217919, Note_on_c, 14, 46, 0
17, 217920, Note_on_c, 14, 47, 60
17, 218159, Note_on_c, 14, 47, 0
17, 218160, Note_on_c, 14, 45, 60
17, 218639, Note_on_c, 14, 45, 0
17, 218640, Note_on_c, 14, 46, 60
17, 218864, Note_on_c, 14, 46, 0
17, 218880, Note_on_c, 14, 44, 60
17, 220304, Note_on_c, 14, 44, 0
17, 220320, Note_on_c, 14, 43, 60
17, 221744, Note_on_c, 14, 43, 0
17, 221760, Note_on_c, 14, 44, 60
17, 223184, Note_on_c, 14, 44, 0
17, 223200, Note_on_c, 14, 43, 60
17, 223439, Note_on_c, 14, 43, 0
17, 223680, Control_c, 14, 11, 80
17, 223920, Note_on_c, 14, 55, 68
17, 224159, Note_on_c, 14, 55, 0
17, 224640, Note_on_c, 14, 55, 68
17, 224879, Note_on_c, 14, 55, 0
17, 225360, Note_on_c, 14, 55, 68
17, 225599, Note_on_c, 14, 55, 0
17, 226080, Control_c, 14, 11, 80
17, 226080, Note_on_c, 14, 55, 68
17, 226140, Control_c, 14, 11, 84
17, 226200, Control_c, 14, 11, 88
17, 226260, Control_c, 14, 11, 92
17, 226290, Control_c, 14, 11, 94
17, 226319, Note_on_c, 14, 55, 0
17, 226770, Control_c, 14, 11, 127
17, 226800, Note_on_c, 14, 43, 76
17, 227039, Note_on_c, 14, 43, 0
17, 227520, Note_on_c, 14, 43, 52
17, 227759, Note_on_c, 14, 43, 0
17, 228960, Note_on_c, 14, 47, 52
17, 229199, Note_on_c, 14, 47, 0
17, 229680, Note_on_c, 14, 43, 52
17, 229919, Note_on_c, 14, 43, 0
17, 230400, Note_on_c, 14, 48, 52
17, 230639, Note_on_c, 14, 48, 0
17, 231840, Note_on_c, 14, 52, 52
17, 232079, Note_on_c, 14, 52, 0
17, 232560, Note_on_c, 14, 48, 52
17, 232799, Note_on_c, 14, 48, 0
17, 233280, Note_on_c, 14, 50, 52
17, 233519, Note_on_c, 14, 50, 0
17, 234000, Note_on_c, 14, 43, 68
17, 234120, Control_c, 14, 11, 96
17, 234809, Note_on_c, 14, 43, 0
17, 234840, Note_on_c, 14, 45, 68
17, 234929, Note_on_c, 14, 45, 0
17, 234960, Note_on_c, 14, 47, 68
17, 235049, Note_on_c, 14, 47, 0
17, 235080, Note_on_c, 14, 48, 68
17, 235169, Note_on_c, 14, 48, 0
17, 235200, Note_on_c, 14, 50, 68
17, 235289, Note_on_c, 14, 50, 0
17, 235320, Note_on_c, 14, 52, 68
17, 235409, Note_on_c, 14, 52, 0
17, 235440, Note_on_c, 14, 53, 68
17, 235529, Note_on_c, 14, 53, 0
17, 235560, Note_on_c, 14, 50, 68
17, 235649, Note_on_c, 14, 50, 0
17, 235680, Note_on_c, 14, 47, 68
17, 235769, Note_on_c, 14, 47, 0
17, 235800, Note_on_c, 14, 43, 68
17, 235889, Note_on_c, 14, 43, 0
17, 235920, Note_on_c, 14, 45, 68
17, 236009, Note_on_c, 14, 45, 0
17, 236040, Note_on_c, 14, 47, 68
17, 236129, Note_on_c, 14, 47, 0
17, 236145, Control_c, 14, 11, 80
17, 236160, Note_on_c, 14, 48, 68
17, 236639, Note_on_c, 14, 48, 0
17, 236640, Note_on_c, 14, 51, 68
17, 236879, Note_on_c, 14, 51, 0
17, 236880, Note_on_c, 14, 48, 68
17, 237359, Note_on_c, 14, 48, 0
17, 237360, Note_on_c, 14, 43, 68
17, 237584, Note_on_c, 14, 43, 0
17, 237600, Note_on_c, 14, 48, 68
17, 237839, Note_on_c, 14, 48, 0
17, 238785, Control_c, 14, 11, 127
17, 238800, Note_on_c, 14, 44, 44
17, 239024, Note_on_c, 14, 44, 0
17, 239040, Note_on_c, 14, 49, 52
17, 239519, Note_on_c, 14, 49, 0
17, 239520, Note_on_c, 14, 52, 52
17, 239759, Note_on_c, 14, 52, 0
17, 239760, Note_on_c, 14, 49, 52
17, 240239, Note_on_c, 14, 49, 0
17, 240240, Note_on_c, 14, 44, 52
17, 240464, Note_on_c, 14, 44, 0
17, 240480, Note_on_c, 14, 49, 52
17, 240719, Note_on_c, 14, 49, 0
17, 241620, Control_c, 14, 11, 107
17, 241680, Control_c, 14, 11, 111
17, 241680, Note_on_c, 14, 45, 76
17, 241740, Control_c, 14, 11, 115
17, 241800, Control_c, 14, 11, 119
17, 241860, Control_c, 14, 11, 127
17, 241919, Note_on_c, 14, 45, 0
17, 241920, Note_on_c, 14, 50, 84
17, 242399, Note_on_c, 14, 50, 0
17, 242400, Note_on_c, 14, 53, 84
17, 242639, Note_on_c, 14, 53, 0
17, 242640, Note_on_c, 14, 50, 84
17, 243119, Note_on_c, 14, 50, 0
17, 243120, Note_on_c, 14, 45, 84
17, 243344, Note_on_c, 14, 45, 0
17, 243360, Note_on_c, 14, 50, 84
17, 243839, Note_on_c, 14, 50, 0
17, 243840, Note_on_c, 14, 53, 84
17, 244079, Note_on_c, 14, 53, 0
17, 244080, Note_on_c, 14, 50, 84
17, 244559, Note_on_c, 14, 50, 0
17, 244560, Note_on_c, 14, 45, 84
17, 244799, Note_on_c, 14, 45, 0
17, 244800, Note_on_c, 14, 52, 84
17, 245279, Note_on_c, 14, 52, 0
17, 245280, Note_on_c, 14, 55, 84
17, 245519, Note_on_c, 14, 55, 0
17, 245520, Note_on_c, 14, 52, 84
17, 245999, Note_on_c, 14, 52, 0
17, 246000, Note_on_c, 14, 45, 84
17, 246224, Note_on_c, 14, 45, 0
17, 246240, Note_on_c, 14, 52, 84
17, 246719, Note_on_c, 14, 52, 0
17, 246720, Note_on_c, 14, 55, 84
17, 246944, Note_on_c, 14, 55, 0
17, 246960, Note_on_c, 14, 52, 84
17, 247439, Note_on_c, 14, 52, 0
17, 247440, Note_on_c, 14, 55, 84
17, 247664, Note_on_c, 14, 55, 0
17, 247680, Note_on_c, 14, 54, 52
17, 247769, Note_on_c, 14, 54, 0
17, 247800, Note_on_c, 14, 60, 52
17, 247889, Note_on_c, 14, 60, 0
17, 247920, Note_on_c, 14, 60, 52
17, 248009, Note_on_c, 14, 60, 0
17, 248520, Note_on_c, 14, 58, 52
17, 248609, Note_on_c, 14, 58, 0
17, 248640, Note_on_c, 14, 58, 52
17, 248729, Note_on_c, 14, 58, 0
17, 249120, Note_on_c, 14, 54, 52
17, 249359, Note_on_c, 14, 54, 0
17, 249960, Note_on_c, 14, 54, 57
17, 250064, Note_on_c, 14, 54, 0
17, 250080, Note_on_c, 14, 54, 62
17, 250184, Note_on_c, 14, 54, 0
17, 250200, Note_on_c, 14, 54, 68
17, 250304, Note_on_c, 14, 54, 0
17, 250320, Note_on_c, 14, 54, 73
17, 250424, Note_on_c, 14, 54, 0
17, 250440, Note_on_c, 14, 54, 78
17, 250544, Note_on_c, 14, 54, 0
17, 250560, Note_on_c, 14, 55, 84
17, 251039, Note_on_c, 14, 55, 0
17, 251040, Note_on_c, 14, 58, 92
17, 251279, Note_on_c, 14, 58, 0
17, 251280, Note_on_c, 14, 55, 84
17, 251759, Note_on_c, 14, 55, 0
17, 251760, Note_on_c, 14, 50, 84
17, 251984, Note_on_c, 14, 50, 0
17, 252000, Note_on_c, 14, 55, 84
17, 252479, Note_on_c, 14, 55, 0
17, 252480, Note_on_c, 14, 58, 92
17, 252719, Note_on_c, 14, 58, 0
17, 252720, Note_on_c, 14, 55, 84
17, 253199, Note_on_c, 14, 55, 0
17, 253200, Note_on_c, 14, 50, 84
17, 253424, Note_on_c, 14, 50, 0
17, 253440, Note_on_c, 14, 57, 84
17, 253919, Note_on_c, 14, 57, 0
17, 253920, Note_on_c, 14, 60, 92
17, 254159, Note_on_c, 14, 60, 0
17, 254160, Note_on_c, 14, 57, 84
17, 254639, Note_on_c, 14, 57, 0
17, 254640, Note_on_c, 14, 50, 84
17, 254864, Note_on_c, 14, 50, 0
17, 254880, Note_on_c, 14, 57, 84
17, 255359, Note_on_c, 14, 57, 0
17, 255360, Note_on_c, 14, 60, 84
17, 255584, Note_on_c, 14, 60, 0
17, 255600, Note_on_c, 14, 57, 84
17, 256079, Note_on_c, 14, 57, 0
17, 256080, Note_on_c, 14, 60, 84
17, 256304, Note_on_c, 14, 60, 0
17, 256320, Note_on_c, 14, 59, 52
17, 256439, Note_on_c, 14, 59, 0
17, 256440, Note_on_c, 14, 65, 52
17, 256529, Note_on_c, 14, 65, 0
17, 256560, Note_on_c, 14, 65, 52
17, 256649, Note_on_c, 14, 65, 0
17, 257160, Note_on_c, 14, 63, 52
17, 257249, Note_on_c, 14, 63, 0
17, 257280, Note_on_c, 14, 63, 52
17, 257369, Note_on_c, 14, 63, 0
17, 257760, Note_on_c, 14, 59, 52
17, 257999, Note_on_c, 14, 59, 0
17, 258600, Note_on_c, 14, 59, 54
17, 258704, Note_on_c, 14, 59, 0
17, 258720, Note_on_c, 14, 59, 57
17, 258824, Note_on_c, 14, 59, 0
17, 258840, Note_on_c, 14, 59, 60
17, 258944, Note_on_c, 14, 59, 0
17, 258960, Note_on_c, 14, 59, 62
17, 259064, Note_on_c, 14, 59, 0
17, 259080, Note_on_c, 14, 59, 65
17, 259184, Note_on_c, 14, 59, 0
17, 259200, Note_on_c, 14, 58, 52
17, 259289, Note_on_c, 14, 58, 0
17, 259320, Note_on_c, 14, 58, 52
17, 259409, Note_on_c, 14, 58, 0
17, 259440, Note_on_c, 14, 58, 52
17, 259529, Note_on_c, 14, 58, 0
17, 260040, Note_on_c, 14, 56, 52
17, 260129, Note_on_c, 14, 56, 0
17, 260160, Note_on_c, 14, 56, 52
17, 260249, Note_on_c, 14, 56, 0
17, 260760, Note_on_c, 14, 52, 54
17, 260849, Note_on_c, 14, 52, 0
17, 260880, Note_on_c, 14, 52, 56
17, 260969, Note_on_c, 14, 52, 0
17, 261480, Note_on_c, 14, 52, 66
17, 261584, Note_on_c, 14, 52, 0
17, 261600, Note_on_c, 14, 52, 68
17, 261704, Note_on_c, 14, 52, 0
17, 261720, Note_on_c, 14, 52, 70
17, 261824, Note_on_c, 14, 52, 0
17, 261840, Note_on_c, 14, 52, 72
17, 261944, Note_on_c, 14, 52, 0
17, 261960, Note_on_c, 14, 52, 74
17, 262064, Note_on_c, 14, 52, 0
17, 262080, Note_on_c, 14, 51, 76
17, 262169, Note_on_c, 14, 51, 0
17, 262200, Note_on_c, 14, 63, 76
17, 262289, Note_on_c, 14, 63, 0
17, 262320, Note_on_c, 14, 63, 76
17, 262409, Note_on_c, 14, 63, 0
17, 262920, Note_on_c, 14, 61, 76
17, 263009, Note_on_c, 14, 61, 0
17, 263040, Note_on_c, 14, 61, 76
17, 263129, Note_on_c, 14, 61, 0
17, 263640, Note_on_c, 14, 61, 76
17, 263729, Note_on_c, 14, 61, 0
17, 263760, Note_on_c, 14, 61, 76
17, 263849, Note_on_c, 14, 61, 0
17, 264360, Note_on_c, 14, 48, 76
17, 264449, Note_on_c, 14, 48, 0
17, 264480, Note_on_c, 14, 48, 76
17, 264569, Note_on_c, 14, 48, 0
17, 264960, Note_on_c, 14, 41, 84
17, 265064, Note_on_c, 14, 41, 0
17, 265080, Note_on_c, 14, 53, 84
17, 265184, Note_on_c, 14, 53, 0
17, 265200, Note_on_c, 14, 53, 84
17, 265304, Note_on_c, 14, 53, 0
17, 265320, Note_on_c, 14, 53, 84
17, 265424, Note_on_c, 14, 53, 0
17, 265440, Note_on_c, 14, 53, 84
17, 265544, Note_on_c, 14, 53, 0
17, 265560, Note_on_c, 14, 53, 84
17, 265664, Note_on_c, 14, 53, 0
17, 265680, Note_on_c, 14, 52, 84
17, 265784, Note_on_c, 14, 52, 0
17, 265800, Note_on_c, 14, 52, 84
17, 265904, Note_on_c, 14, 52, 0
17, 265920, Note_on_c, 14, 52, 84
17, 266024, Note_on_c, 14, 52, 0
17, 266040, Note_on_c, 14, 52, 84
17, 266144, Note_on_c, 14, 52, 0
17, 266160, Note_on_c, 14, 52, 84
17, 266264, Note_on_c, 14, 52, 0
17, 266280, Note_on_c, 14, 52, 84
17, 266384, Note_on_c, 14, 52, 0
17, 266400, Note_on_c, 14, 51, 84
17, 266639, Note_on_c, 14, 51, 0
17, 267840, Note_on_c, 14, 55, 52
17, 268079, Note_on_c, 14, 55, 0
17, 268560, Note_on_c, 14, 51, 52
17, 268799, Note_on_c, 14, 51, 0
17, 269280, Note_on_c, 14, 56, 52
17, 269519, Note_on_c, 14, 56, 0
17, 270720, Note_on_c, 14, 60, 52
17, 270959, Note_on_c, 14, 60, 0
17, 271440, Note_on_c, 14, 56, 52
17, 271679, Note_on_c, 14, 56, 0
17, 272160, Note_on_c, 14, 55, 52
17, 272399, Note_on_c, 14, 55, 0
17, 273600, Note_on_c, 14, 51, 68
17, 273720, Control_c, 14, 11, 96
17, 274409, Note_on_c, 14, 51, 0
17, 274440, Note_on_c, 14, 53, 68
17, 274529, Note_on_c, 14, 53, 0
17, 274560, Note_on_c, 14, 51, 68
17, 274649, Note_on_c, 14, 51, 0
17, 274680, Note_on_c, 14, 49, 68
17, 274769, Note_on_c, 14, 49, 0
17, 274800, Note_on_c, 14, 48, 68
17, 274889, Note_on_c, 14, 48, 0
17, 274920, Note_on_c, 14, 46, 68
17, 275009, Note_on_c, 14, 46, 0
17, 275025, Control_c, 14, 11, 112
17, 275040, Note_on_c, 14, 44, 60
17, 275219, Note_on_c, 14, 44, 0
17, 275280, Note_on_c, 14, 61, 60
17, 275639, Note_on_c, 14, 61, 0
17, 275640, Note_on_c, 14, 60, 60
17, 275744, Note_on_c, 14, 60, 0
17, 275752, Control_c, 14, 11, 127
17, 275760, Note_on_c, 14, 59, 52
17, 275939, Note_on_c, 14, 59, 0
17, 276000, Note_on_c, 14, 60, 52
17, 276359, Note_on_c, 14, 60, 0
17, 276360, Note_on_c, 14, 53, 52
17, 276464, Note_on_c, 14, 53, 0
17, 276480, Note_on_c, 14, 52, 52
17, 276659, Note_on_c, 14, 52, 0
17, 276720, Note_on_c, 14, 58, 52
17, 277079, Note_on_c, 14, 58, 0
17, 277080, Note_on_c, 14, 55, 52
17, 277184, Note_on_c, 14, 55, 0
17, 277200, Note_on_c, 14, 52, 52
17, 277379, Note_on_c, 14, 52, 0
17, 277440, Note_on_c, 14, 55, 52
17, 277799, Note_on_c, 14, 55, 0
17, 277800, Note_on_c, 14, 48, 52
17, 277904, Note_on_c, 14, 48, 0
17, 277920, Note_on_c, 14, 53, 52
17, 278024, Note_on_c, 14, 53, 0
17, 278040, Note_on_c, 14, 53, 52
17, 278099, Note_on_c, 14, 53, 0
17, 278100, Note_on_c, 14, 55, 52
17, 278151, Note_on_c, 14, 55, 0
17, 278160, Note_on_c, 14, 56, 52
17, 278249, Note_on_c, 14, 56, 0
17, 278280, Note_on_c, 14, 53, 52
17, 278369, Note_on_c, 14, 53, 0
17, 278400, Note_on_c, 14, 49, 52
17, 278489, Note_on_c, 14, 49, 0
17, 278520, Note_on_c, 14, 48, 52
17, 278609, Note_on_c, 14, 48, 0
17, 278640, Note_on_c, 14, 47, 52
17, 278744, Note_on_c, 14, 47, 0
17, 278760, Note_on_c, 14, 43, 52
17, 278799, Note_on_c, 14, 43, 0
17, 278800, Note_on_c, 14, 45, 52
17, 278839, Note_on_c, 14, 45, 0
17, 278840, Note_on_c, 14, 47, 52
17, 278871, Note_on_c, 14, 47, 0
17, 278880, Note_on_c, 14, 48, 52
17, 278969, Note_on_c, 14, 48, 0
17, 279000, Note_on_c, 14, 50, 52
17, 279089, Note_on_c, 14, 50, 0
17, 279120, Note_on_c, 14, 48, 52
17, 279209, Note_on_c, 14, 48, 0
17, 279240, Note_on_c, 14, 46, 52
17, 279329, Note_on_c, 14, 46, 0
17, 279360, Note_on_c, 14, 45, 52
17, 279464, Note_on_c, 14, 45, 0
17, 279480, Note_on_c, 14, 55, 52
17, 279539, Note_on_c, 14, 55, 0
17, 279540, Note_on_c, 14, 57, 52
17, 279591, Note_on_c, 14, 57, 0
17, 279600, Note_on_c, 14, 59, 52
17, 279689, Note_on_c, 14, 59, 0
17, 279720, Note_on_c, 14, 55, 52
17, 279809, Note_on_c, 14, 55, 0
17, 279840, Note_on_c, 14, 57, 52
17, 279929, Note_on_c, 14, 57, 0
17, 279960, Note_on_c, 14, 59, 52
17, 280049, Note_on_c, 14, 59, 0
17, 280080, Note_on_c, 14, 60, 52
17, 280169, Note_on_c, 14, 60, 0
17, 280200, Note_on_c, 14, 60, 52
17, 280259, Note_on_c, 14, 60, 0
17, 280260, Note_on_c, 14, 59, 52
17, 280311, Note_on_c, 14, 59, 0
17, 280320, Note_on_c, 14, 60, 52
17, 280409, Note_on_c, 14, 60, 0
17, 280440, Note_on_c, 14, 62, 52
17, 280529, Note_on_c, 14, 62, 0
17, 280560, Note_on_c, 14, 63, 52
17, 280649, Note_on_c, 14, 63, 0
17, 280680, Note_on_c, 14, 66, 52
17, 280769, Note_on_c, 14, 66, 0
17, 280800, Note_on_c, 14, 67, 52
17, 281039, Note_on_c, 14, 67, 0
17, 282000, Control_c, 14, 11, 80
17, 282120, Note_on_c, 14, 48, 76
17, 282224, Note_on_c, 14, 48, 0
17, 282240, Note_on_c, 14, 46, 76
17, 282464, Note_on_c, 14, 46, 0
17, 282480, Control_c, 14, 11, 80
17, 282480, Note_on_c, 14, 55, 92
17, 282660, Control_c, 14, 11, 82
17, 282824, Note_on_c, 14, 55, 0
17, 282840, Control_c, 14, 11, 84
17, 282840, Note_on_c, 14, 46, 76
17, 282944, Note_on_c, 14, 46, 0
17, 282960, Note_on_c, 14, 45, 76
17, 283020, Control_c, 14, 11, 86
17, 283049, Note_on_c, 14, 45, 0
17, 283080, Note_on_c, 14, 54, 76
17, 283169, Note_on_c, 14, 54, 0
17, 283200, Note_on_c, 14, 43, 76
17, 283200, Control_c, 14, 11, 88
17, 283289, Note_on_c, 14, 43, 0
17, 283320, Note_on_c, 14, 55, 76
17, 283380, Control_c, 14, 11, 90
17, 283409, Note_on_c, 14, 55, 0
17, 283440, Note_on_c, 14, 51, 76
17, 283529, Note_on_c, 14, 51, 0
17, 283560, Control_c, 14, 11, 92
17, 283560, Note_on_c, 14, 50, 76
17, 283649, Note_on_c, 14, 50, 0
17, 283680, Note_on_c, 14, 49, 76
17, 283740, Control_c, 14, 11, 94
17, 283904, Note_on_c, 14, 49, 0
17, 283920, Control_c, 14, 11, 96
17, 283920, Note_on_c, 14, 61, 88
17, 284100, Control_c, 14, 11, 98
17, 284264, Note_on_c, 14, 61, 0
17, 284280, Note_on_c, 14, 61, 76
17, 284280, Control_c, 14, 11, 100
17, 284384, Note_on_c, 14, 61, 0
17, 284400, Note_on_c, 14, 62, 76
17, 284460, Control_c, 14, 11, 102
17, 284639, Note_on_c, 14, 62, 0
17, 284640, Control_c, 14, 11, 104
17, 284760, Note_on_c, 14, 50, 76
17, 284819, Note_on_c, 14, 50, 0
17, 284820, Note_on_c, 14, 49, 76
17, 284820, Control_c, 14, 11, 105
17, 284871, Note_on_c, 14, 49, 0
17, 284880, Note_on_c, 14, 50, 76
17, 284984, Note_on_c, 14, 50, 0
17, 285000, Control_c, 14, 11, 107
17, 285000, Note_on_c, 14, 48, 76
17, 285104, Note_on_c, 14, 48, 0
17, 285120, Note_on_c, 14, 47, 76
17, 285180, Control_c, 14, 11, 109
17, 285359, Note_on_c, 14, 47, 0
17, 285360, Control_c, 14, 11, 111
17, 285480, Note_on_c, 14, 49, 76
17, 285539, Note_on_c, 14, 49, 0
17, 285540, Note_on_c, 14, 47, 76
17, 285540, Control_c, 14, 11, 113
17, 285591, Note_on_c, 14, 47, 0
17, 285600, Note_on_c, 14, 49, 76
17, 285689, Note_on_c, 14, 49, 0
17, 285720, Note_on_c, 14, 45, 76
17, 285720, Control_c, 14, 11, 115
17, 285809, Note_on_c, 14, 45, 0
17, 285840, Note_on_c, 14, 50, 76
17, 285900, Control_c, 14, 11, 117
17, 285929, Note_on_c, 14, 50, 0
17, 285960, Note_on_c, 14, 50, 76
17, 286019, Note_on_c, 14, 50, 0
17, 286020, Note_on_c, 14, 49, 76
17, 286071, Note_on_c, 14, 49, 0
17, 286080, Note_on_c, 14, 50, 76
17, 286080, Control_c, 14, 11, 119
17, 286169, Note_on_c, 14, 50, 0
17, 286200, Note_on_c, 14, 48, 76
17, 286260, Control_c, 14, 11, 121
17, 286289, Note_on_c, 14, 48, 0
17, 286320, Note_on_c, 14, 46, 76
17, 286409, Note_on_c, 14, 46, 0
17, 286440, Control_c, 14, 11, 123
17, 286440, Note_on_c, 14, 45, 76
17, 286529, Note_on_c, 14, 45, 0
17, 286560, Note_on_c, 14, 44, 76
17, 286620, Control_c, 14, 11, 127
17, 286784, Note_on_c, 14, 44, 0
17, 286800, Note_on_c, 14, 50, 84
17, 288224, Note_on_c, 14, 50, 0
17, 288240, Note_on_c, 14, 50, 92
17, 288689, Note_on_c, 14, 50, 0
17, 288720, Note_on_c, 14, 50, 92
17, 289169, Note_on_c, 14, 50, 0
17, 289200, Note_on_c, 14, 50, 92
17, 289649, Note_on_c, 14, 50, 0
17, 289680, Note_on_c, 14, 50, 92
17, 290129, Note_on_c, 14, 50, 0
17, 290160, Note_on_c, 14, 50, 92
17, 290609, Note_on_c, 14, 50, 0
17, 290640, Note_on_c, 14, 50, 92
17, 290849, Note_on_c, 14, 50, 0
17, 290880, Note_on_c, 14, 48, 84
17, 290880, Note_on_c, 14, 36, 84
17, 291059, Note_on_c, 14, 48, 0
17, 291059, Note_on_c, 14, 36, 0
17, 291120, Note_on_c, 14, 48, 92
17, 292529, Note_on_c, 14, 48, 0
17, 292560, Note_on_c, 14, 48, 92
17, 293009, Note_on_c, 14, 48, 0
17, 293040, Note_on_c, 14, 48, 92
17, 293489, Note_on_c, 14, 48, 0
17, 293520, Note_on_c, 14, 48, 92
17, 293969, Note_on_c, 14, 48, 0
17, 294000, Note_on_c, 14, 48, 92
17, 294449, Note_on_c, 14, 48, 0
17, 294480, Note_on_c, 14, 48, 92
17, 294929, Note_on_c, 14, 48, 0
17, 294960, Note_on_c, 14, 48, 92
17, 295169, Note_on_c, 14, 48, 0
17, 295200, Note_on_c, 14, 47, 84
17, 295379, Note_on_c, 14, 47, 0
17, 295440, Note_on_c, 14, 59, 92
17, 296849, Note_on_c, 14, 59, 0
17, 296880, Note_on_c, 14, 47, 92
17, 297329, Note_on_c, 14, 47, 0
17, 297360, Note_on_c, 14, 47, 92
17, 297809, Note_on_c, 14, 47, 0
17, 297840, Note_on_c, 14, 47, 92
17, 298289, Note_on_c, 14, 47, 0
17, 298320, Note_on_c, 14, 47, 92
17, 298769, Note_on_c, 14, 47, 0
17, 298800, Note_on_c, 14, 47, 92
17, 299249, Note_on_c, 14, 47, 0
17, 299280, Note_on_c, 14, 47, 92
17, 299489, Note_on_c, 14, 47, 0
17, 299520, Note_on_c, 14, 46, 84
17, 299744, Note_on_c, 14, 46, 0
17, 299760, Note_on_c, 14, 58, 92
17, 301169, Note_on_c, 14, 58, 0
17, 301200, Note_on_c, 14, 58, 92
17, 301649, Note_on_c, 14, 58, 0
17, 301680, Note_on_c, 14, 58, 92
17, 302129, Note_on_c, 14, 58, 0
17, 302160, Note_on_c, 14, 58, 92
17, 302609, Note_on_c, 14, 58, 0
17, 302640, Note_on_c, 14, 58, 92
17, 303089, Note_on_c, 14, 58, 0
17, 303120, Note_on_c, 14, 58, 92
17, 303569, Note_on_c, 14, 58, 0
17, 303600, Note_on_c, 14, 58, 92
17, 303809, Note_on_c, 14, 58, 0
17, 303840, Note_on_c, 14, 45, 84
17, 304019, Note_on_c, 14, 45, 0
17, 304080, Note_on_c, 14, 57, 92
17, 304529, Note_on_c, 14, 57, 0
17, 304560, Note_on_c, 14, 57, 92
17, 305009, Note_on_c, 14, 57, 0
17, 305040, Note_on_c, 14, 57, 92
17, 305249, Note_on_c, 14, 57, 0
17, 305280, Note_on_c, 14, 43, 84
17, 305459, Note_on_c, 14, 43, 0
17, 305520, Note_on_c, 14, 55, 92
17, 305969, Note_on_c, 14, 55, 0
17, 306000, Note_on_c, 14, 55, 92
17, 306449, Note_on_c, 14, 55, 0
17, 306480, Note_on_c, 14, 55, 92
17, 306659, Note_on_c, 14, 55, 0
17, 306720, Note_on_c, 14, 45, 84
17, 306944, Note_on_c, 14, 45, 0
17, 306960, Note_on_c, 14, 57, 76
17, 307439, Note_on_c, 14, 57, 0
17, 307680, Note_on_c, 14, 57, 76
17, 308159, Note_on_c, 14, 57, 0
17, 308400, Note_on_c, 14, 57, 76
17, 308864, Note_on_c, 14, 57, 0
17, 308880, Note_on_c, 14, 57, 76
17, 309344, Note_on_c, 14, 57, 0
17, 309360, Note_on_c, 14, 57, 76
17, 309539, Note_on_c, 14, 57, 0
17, 309840, Note_on_c, 14, 47, 76
17, 310019, Note_on_c, 14, 47, 0
17, 310080, Note_on_c, 14, 47, 76
17, 310259, Note_on_c, 14, 47, 0
17, 310320, Note_on_c, 14, 47, 76
17, 310499, Note_on_c, 14, 47, 0
17, 310560, Note_on_c, 14, 47, 72
17, 310739, Note_on_c, 14, 47, 0
17, 310800, Note_on_c, 14, 47, 68
17, 310979, Note_on_c, 14, 47, 0
17, 311040, Note_on_c, 14, 47, 64
17, 311219, Note_on_c, 14, 47, 0
17, 311280, Note_on_c, 14, 47, 60
17, 311459, Note_on_c, 14, 47, 0
17, 311520, Note_on_c, 14, 47, 56
17, 311699, Note_on_c, 14, 47, 0
17, 311760, Note_on_c, 14, 47, 52
17, 311939, Note_on_c, 14, 47, 0
17, 312000, Note_on_c, 14, 47, 52
17, 312179, Note_on_c, 14, 47, 0
17, 312240, Note_on_c, 14, 47, 52
17, 312419, Note_on_c, 14, 47, 0
17, 312480, Note_on_c, 14, 52, 52
17, 312704, Note_on_c, 14, 52, 0
17, 312720, Note_on_c, 14, 64, 52
17, 312959, Note_on_c, 14, 64, 0
17, 312960, Note_on_c, 14, 66, 52
17, 313199, Note_on_c, 14, 66, 0
17, 313200, Note_on_c, 14, 67, 68
17, 313319, Note_on_c, 14, 67, 0
17, 313320, Note_on_c, 14, 67, 52
17, 313559, Note_on_c, 14, 67, 0
17, 313560, Note_on_c, 14, 66, 52
17, 313679, Note_on_c, 14, 66, 0
17, 313680, Note_on_c, 14, 64, 52
17, 313904, Note_on_c, 14, 64, 0
17, 313920, Note_on_c, 14, 63, 52
17, 314159, Note_on_c, 14, 63, 0
17, 314160, Note_on_c, 14, 62, 52
17, 314399, Note_on_c, 14, 62, 0
17, 314400, Note_on_c, 14, 61, 52
17, 314639, Note_on_c, 14, 61, 0
17, 314640, Note_on_c, 14, 59, 68
17, 314759, Note_on_c, 14, 59, 0
17, 314760, Note_on_c, 14, 59, 52
17, 315119, Note_on_c, 14, 59, 0
17, 315120, Note_on_c, 14, 61, 52
17, 315239, Note_on_c, 14, 61, 0
17, 315240, Note_on_c, 14, 63, 52
17, 315344, Note_on_c, 14, 63, 0
17, 315360, Note_on_c, 14, 64, 52
17, 315584, Note_on_c, 14, 64, 0
17, 315600, Note_on_c, 14, 64, 52
17, 315839, Note_on_c, 14, 64, 0
17, 315840, Note_on_c, 14, 66, 52
17, 316079, Note_on_c, 14, 66, 0
17, 316080, Note_on_c, 14, 67, 68
17, 316199, Note_on_c, 14, 67, 0
17, 316200, Note_on_c, 14, 67, 52
17, 316439, Note_on_c, 14, 67, 0
17, 316440, Note_on_c, 14, 66, 52
17, 316559, Note_on_c, 14, 66, 0
17, 316560, Note_on_c, 14, 64, 52
17, 316784, Note_on_c, 14, 64, 0
17, 316800, Note_on_c, 14, 63, 52
17, 317039, Note_on_c, 14, 63, 0
17, 317040, Note_on_c, 14, 62, 52
17, 317279, Note_on_c, 14, 62, 0
17, 317280, Note_on_c, 14, 61, 52
17, 317489, Note_on_c, 14, 61, 0
17, 317505, Control_c, 14, 11, 96
17, 317520, Note_on_c, 14, 59, 68
17, 317520, Control_c, 14, 11, 96
17, 317580, Control_c, 14, 11, 99
17, 317640, Control_c, 14, 11, 101
17, 317700, Control_c, 14, 11, 104
17, 317760, Control_c, 14, 11, 106
17, 317820, Control_c, 14, 11, 109
17, 317880, Control_c, 14, 11, 112
17, 317940, Control_c, 14, 11, 114
17, 317999, Note_on_c, 14, 59, 0
17, 318000, Note_on_c, 14, 64, 68
17, 318000, Control_c, 14, 11, 117
17, 318060, Control_c, 14, 11, 119
17, 318120, Control_c, 14, 11, 122
17, 318180, Control_c, 14, 11, 127
17, 318224, Note_on_c, 14, 64, 0
17, 318240, Note_on_c, 14, 57, 52
17, 318479, Note_on_c, 14, 57, 0
17, 318960, Program_c, 14, 45
17, 319200, Note_on_c, 14, 57, 52
17, 319439, Note_on_c, 14, 57, 0
17, 319440, Note_on_c, 14, 57, 52
17, 319679, Note_on_c, 14, 57, 0
17, 319680, Note_on_c, 14, 52, 52
17, 319919, Note_on_c, 14, 52, 0
17, 320640, Note_on_c, 14, 52, 52
17, 320879, Note_on_c, 14, 52, 0
17, 320880, Note_on_c, 14, 52, 52
17, 321119, Note_on_c, 14, 52, 0
17, 321120, Note_on_c, 14, 57, 52
17, 321359, Note_on_c, 14, 57, 0
17, 322080, Note_on_c, 14, 57, 52
17, 322319, Note_on_c, 14, 57, 0
17, 322320, Note_on_c, 14, 57, 52
17, 322559, Note_on_c, 14, 57, 0
17, 322560, Note_on_c, 14, 52, 52
17, 322799, Note_on_c, 14, 52, 0
17, 323040, Program_c, 14, 48
17, 323280, Control_c, 14, 11, 80
17, 323400, Note_on_c, 14, 52, 76
17, 323400, Control_c, 14, 11, 80
17, 323450, Control_c, 14, 11, 84
17, 323500, Control_c, 14, 11, 88
17, 323519, Note_on_c, 14, 52, 0
17, 323520, Note_on_c, 14, 55, 76
17, 323550, Control_c, 14, 11, 92
17, 323600, Control_c, 14, 11, 96
17, 323639, Note_on_c, 14, 55, 0
17, 323640, Note_on_c, 14, 53, 76
17, 323650, Control_c, 14, 11, 100
17, 323700, Control_c, 14, 11, 104
17, 323750, Control_c, 14, 11, 107
17, 323759, Note_on_c, 14, 53, 0
17, 323760, Note_on_c, 14, 52, 76
17, 323800, Control_c, 14, 11, 111
17, 323850, Control_c, 14, 11, 115
17, 323879, Note_on_c, 14, 52, 0
17, 323880, Note_on_c, 14, 50, 76
17, 323900, Control_c, 14, 11, 119
17, 323950, Control_c, 14, 11, 127
17, 323984, Note_on_c, 14, 50, 0
17, 324000, Note_on_c, 14, 48, 76
17, 324479, Note_on_c, 14, 48, 0
17, 324480, Note_on_c, 14, 52, 76
17, 324719, Note_on_c, 14, 52, 0
17, 324720, Note_on_c, 14, 48, 76
17, 325199, Note_on_c, 14, 48, 0
17, 325200, Note_on_c, 14, 43, 76
17, 325424, Note_on_c, 14, 43, 0
17, 325440, Note_on_c, 14, 48, 76
17, 325619, Note_on_c, 14, 48, 0
17, 325680, Note_on_c, 14, 52, 76
17, 325859, Note_on_c, 14, 52, 0
17, 325920, Note_on_c, 14, 55, 76
17, 326099, Note_on_c, 14, 55, 0
17, 326160, Note_on_c, 14, 48, 76
17, 326639, Note_on_c, 14, 48, 0
17, 326640, Note_on_c, 14, 43, 76
17, 326864, Note_on_c, 14, 43, 0
17, 326880, Note_on_c, 14, 48, 76
17, 327059, Note_on_c, 14, 48, 0
17, 327120, Note_on_c, 14, 52, 76
17, 327299, Note_on_c, 14, 52, 0
17, 327360, Note_on_c, 14, 55, 76
17, 327539, Note_on_c, 14, 55, 0
17, 327600, Note_on_c, 14, 60, 76
17, 327779, Note_on_c, 14, 60, 0
17, 327840, Note_on_c, 14, 64, 76
17, 328019, Note_on_c, 14, 64, 0
17, 328080, Note_on_c, 14, 67, 84
17, 328409, Note_on_c, 14, 67, 0
17, 328440, Note_on_c, 14, 65, 76
17, 328529, Note_on_c, 14, 65, 0
17, 328560, Note_on_c, 14, 62, 76
17, 328649, Note_on_c, 14, 62, 0
17, 328680, Note_on_c, 14, 59, 76
17, 328769, Note_on_c, 14, 59, 0
17, 328800, Note_on_c, 14, 55, 76
17, 328889, Note_on_c, 14, 55, 0
17, 328920, Note_on_c, 14, 53, 76
17, 329009, Note_on_c, 14, 53, 0
17, 329040, Note_on_c, 14, 50, 76
17, 329129, Note_on_c, 14, 50, 0
17, 329160, Note_on_c, 14, 53, 76
17, 329249, Note_on_c, 14, 53, 0
17, 329280, Note_on_c, 14, 50, 76
17, 329369, Note_on_c, 14, 50, 0
17, 329400, Note_on_c, 14, 47, 76
17, 329489, Note_on_c, 14, 47, 0
17, 329520, Note_on_c, 14, 43, 76
17, 329609, Note_on_c, 14, 43, 0
17, 329640, Note_on_c, 14, 47, 76
17, 329729, Note_on_c, 14, 47, 0
17, 329760, Note_on_c, 14, 48, 76
17, 329939, Note_on_c, 14, 48, 0
17, 330000, Note_on_c, 14, 51, 76
17, 330179, Note_on_c, 14, 51, 0
17, 330240, Note_on_c, 14, 55, 76
17, 330419, Note_on_c, 14, 55, 0
17, 330480, Note_on_c, 14, 60, 76
17, 330659, Note_on_c, 14, 60, 0
17, 330720, Note_on_c, 14, 63, 76
17, 330899, Note_on_c, 14, 63, 0
17, 330960, Note_on_c, 14, 67, 84
17, 331289, Note_on_c, 14, 67, 0
17, 331320, Note_on_c, 14, 65, 76
17, 331409, Note_on_c, 14, 65, 0
17, 331440, Note_on_c, 14, 62, 76
17, 331529, Note_on_c, 14, 62, 0
17, 331560, Note_on_c, 14, 59, 76
17, 331649, Note_on_c, 14, 59, 0
17, 331680, Note_on_c, 14, 55, 76
17, 331769, Note_on_c, 14, 55, 0
17, 331800, Note_on_c, 14, 53, 76
17, 331889, Note_on_c, 14, 53, 0
17, 331920, Note_on_c, 14, 50, 76
17, 332009, Note_on_c, 14, 50, 0
17, 332040, Note_on_c, 14, 53, 76
17, 332129, Note_on_c, 14, 53, 0
17, 332160, Note_on_c, 14, 50, 76
17, 332249, Note_on_c, 14, 50, 0
17, 332280, Note_on_c, 14, 47, 76
17, 332369, Note_on_c, 14, 47, 0
17, 332400, Note_on_c, 14, 43, 76
17, 332489, Note_on_c, 14, 43, 0
17, 332520, Note_on_c, 14, 47, 76
17, 332609, Note_on_c, 14, 47, 0
17, 332640, Note_on_c, 14, 48, 76
17, 332879, Note_on_c, 14, 48, 0
17, 332880, Note_on_c, 14, 51, 76
17, 333119, Note_on_c, 14, 51, 0
17, 333120, Note_on_c, 14, 55, 76
17, 333344, Note_on_c, 14, 55, 0
17, 333360, Note_on_c, 14, 56, 84
17, 333839, Note_on_c, 14, 56, 0
17, 333840, Note_on_c, 14, 48, 76
17, 334064, Note_on_c, 14, 48, 0
17, 334080, Note_on_c, 14, 49, 76
17, 334319, Note_on_c, 14, 49, 0
17, 334320, Note_on_c, 14, 53, 76
17, 334559, Note_on_c, 14, 53, 0
17, 334560, Note_on_c, 14, 57, 76
17, 334784, Note_on_c, 14, 57, 0
17, 334800, Note_on_c, 14, 58, 84
17, 335279, Note_on_c, 14, 58, 0
17, 335280, Note_on_c, 14, 50, 76
17, 335504, Note_on_c, 14, 50, 0
17, 335520, Note_on_c, 14, 51, 76
17, 335699, Note_on_c, 14, 51, 0
17, 335760, Note_on_c, 14, 43, 76
17, 335939, Note_on_c, 14, 43, 0
17, 336000, Note_on_c, 14, 46, 76
17, 336179, Note_on_c, 14, 46, 0
17, 336240, Note_on_c, 14, 51, 76
17, 336419, Note_on_c, 14, 51, 0
17, 336480, Note_on_c, 14, 55, 76
17, 336659, Note_on_c, 14, 55, 0
17, 336720, Note_on_c, 14, 58, 84
17, 337049, Note_on_c, 14, 58, 0
17, 337080, Note_on_c, 14, 56, 76
17, 337169, Note_on_c, 14, 56, 0
17, 337200, Note_on_c, 14, 53, 76
17, 337289, Note_on_c, 14, 53, 0
17, 337320, Note_on_c, 14, 50, 76
17, 337409, Note_on_c, 14, 50, 0
17, 337440, Note_on_c, 14, 46, 76
17, 337529, Note_on_c, 14, 46, 0
17, 337560, Note_on_c, 14, 44, 76
17, 337649, Note_on_c, 14, 44, 0
17, 337680, Note_on_c, 14, 41, 76
17, 337769, Note_on_c, 14, 41, 0
17, 337800, Note_on_c, 14, 56, 76
17, 337889, Note_on_c, 14, 56, 0
17, 337920, Note_on_c, 14, 53, 76
17, 338009, Note_on_c, 14, 53, 0
17, 338040, Note_on_c, 14, 50, 76
17, 338129, Note_on_c, 14, 50, 0
17, 338160, Note_on_c, 14, 46, 76
17, 338249, Note_on_c, 14, 46, 0
17, 338280, Note_on_c, 14, 50, 76
17, 338369, Note_on_c, 14, 50, 0
17, 338400, Note_on_c, 14, 51, 84
17, 338579, Note_on_c, 14, 51, 0
17, 338640, Note_on_c, 14, 42, 84
17, 338819, Note_on_c, 14, 42, 0
17, 338880, Note_on_c, 14, 46, 84
17, 339059, Note_on_c, 14, 46, 0
17, 339120, Note_on_c, 14, 51, 84
17, 339299, Note_on_c, 14, 51, 0
17, 339360, Note_on_c, 14, 54, 84
17, 339539, Note_on_c, 14, 54, 0
17, 339600, Note_on_c, 14, 58, 84
17, 339779, Note_on_c, 14, 58, 0
17, 339840, Note_on_c, 14, 63, 84
17, 340064, Note_on_c, 14, 63, 0
17, 340080, Note_on_c, 14, 63, 52
17, 340319, Note_on_c, 14, 63, 0
17, 340320, Note_on_c, 14, 65, 52
17, 340559, Note_on_c, 14, 65, 0
17, 340560, Note_on_c, 14, 66, 68
17, 340919, Note_on_c, 14, 66, 0
17, 340920, Note_on_c, 14, 65, 52
17, 341039, Note_on_c, 14, 65, 0
17, 341040, Note_on_c, 14, 63, 52
17, 341264, Note_on_c, 14, 63, 0
17, 341280, Note_on_c, 14, 62, 52
17, 341519, Note_on_c, 14, 62, 0
17, 341520, Note_on_c, 14, 61, 52
17, 341759, Note_on_c, 14, 61, 0
17, 341760, Note_on_c, 14, 60, 52
17, 341999, Note_on_c, 14, 60, 0
17, 342000, Note_on_c, 14, 58, 68
17, 342479, Note_on_c, 14, 58, 0
17, 342480, Note_on_c, 14, 60, 52
17, 342599, Note_on_c, 14, 60, 0
17, 342600, Note_on_c, 14, 62, 52
17, 342704, Note_on_c, 14, 62, 0
17, 342720, Note_on_c, 14, 63, 52
17, 342959, Note_on_c, 14, 63, 0
17, 343440, Control_c, 14, 11, 96
17, 343680, Note_on_c, 14, 51, 68
17, 343680, Control_c, 14, 11, 96
17, 343720, Control_c, 14, 11, 95
17, 343760, Control_c, 14, 11, 93
17, 343800, Control_c, 14, 11, 92
17, 343840, Control_c, 14, 11, 91
17, 343880, Control_c, 14, 11, 89
17, 343904, Note_on_c, 14, 51, 0
17, 343920, Control_c, 14, 11, 88
17, 343920, Note_on_c, 14, 51, 68
17, 343960, Control_c, 14, 11, 87
17, 344000, Control_c, 14, 11, 85
17, 344040, Control_c, 14, 11, 84
17, 344080, Control_c, 14, 11, 83
17, 344120, Control_c, 14, 11, 81
17, 344144, Note_on_c, 14, 51, 0
17, 344160, Control_c, 14, 11, 80
17, 344160, Note_on_c, 14, 53, 68
17, 344220, Control_c, 14, 11, 82
17, 344280, Control_c, 14, 11, 84
17, 344340, Control_c, 14, 11, 86
17, 344400, Control_c, 14, 11, 88
17, 344460, Control_c, 14, 11, 90
17, 344520, Control_c, 14, 11, 92
17, 344580, Control_c, 14, 11, 94
17, 344640, Control_c, 14, 11, 96
17, 344700, Control_c, 14, 11, 98
17, 344760, Control_c, 14, 11, 100
17, 344820, Control_c, 14, 11, 102
17, 344879, Note_on_c, 14, 53, 0
17, 344880, Note_on_c, 14, 49, 68
17, 344880, Control_c, 14, 11, 104
17, 344940, Control_c, 14, 11, 105
17, 345000, Control_c, 14, 11, 107
17, 345060, Control_c, 14, 11, 109
17, 345120, Control_c, 14, 11, 111
17, 345180, Control_c, 14, 11, 113
17, 345240, Control_c, 14, 11, 115
17, 345300, Control_c, 14, 11, 117
17, 345360, Control_c, 14, 11, 119
17, 345420, Control_c, 14, 11, 121
17, 345480, Control_c, 14, 11, 123
17, 345540, Control_c, 14, 11, 127
17, 345584, Note_on_c, 14, 49, 0
17, 345600, Note_on_c, 14, 54, 52
17, 347024, Note_on_c, 14, 54, 0
17, 347040, Note_on_c, 14, 56, 52
17, 347759, Note_on_c, 14, 56, 0
17, 347760, Note_on_c, 14, 49, 52
17, 348464, Note_on_c, 14, 49, 0
17, 348480, Note_on_c, 14, 54, 52
17, 348704, Note_on_c, 14, 54, 0
17, 348720, Note_on_c, 14, 54, 52
17, 348959, Note_on_c, 14, 54, 0
17, 348960, Note_on_c, 14, 56, 52
17, 349199, Note_on_c, 14, 56, 0
17, 349200, Note_on_c, 14, 58, 68
17, 349559, Note_on_c, 14, 58, 0
17, 349560, Note_on_c, 14, 56, 52
17, 349679, Note_on_c, 14, 56, 0
17, 349680, Note_on_c, 14, 54, 52
17, 349904, Note_on_c, 14, 54, 0
17, 349920, Note_on_c, 14, 53, 52
17, 350639, Note_on_c, 14, 53, 0
17, 350640, Note_on_c, 14, 51, 52
17, 351344, Note_on_c, 14, 51, 0
17, 351360, Note_on_c, 14, 46, 52
17, 351539, Note_on_c, 14, 46, 0
17, 351600, Note_on_c, 14, 50, 52
17, 351779, Note_on_c, 14, 50, 0
17, 351840, Note_on_c, 14, 46, 52
17, 352019, Note_on_c, 14, 46, 0
17, 352080, Note_on_c, 14, 53, 52
17, 352259, Note_on_c, 14, 53, 0
17, 352320, Note_on_c, 14, 46, 52
17, 352499, Note_on_c, 14, 46, 0
17, 352560, Note_on_c, 14, 58, 52
17, 352739, Note_on_c, 14, 58, 0
17, 352800, Note_on_c, 14, 46, 52
17, 352979, Note_on_c, 14, 46, 0
17, 353040, Note_on_c, 14, 62, 52
17, 353219, Note_on_c, 14, 62, 0
17, 353280, Note_on_c, 14, 46, 52
17, 353459, Note_on_c, 14, 46, 0
17, 353520, Note_on_c, 14, 65, 68
17, 353639, Note_on_c, 14, 65, 0
17, 353640, Note_on_c, 14, 65, 52
17, 354209, Note_on_c, 14, 65, 0
17, 354240, Note_on_c, 14, 46, 52
17, 354419, Note_on_c, 14, 46, 0
17, 354480, Note_on_c, 14, 51, 52
17, 354659, Note_on_c, 14, 51, 0
17, 354720, Note_on_c, 14, 46, 52
17, 354899, Note_on_c, 14, 46, 0
17, 354960, Note_on_c, 14, 54, 52
17, 355139, Note_on_c, 14, 54, 0
17, 355200, Note_on_c, 14, 46, 52
17, 355379, Note_on_c, 14, 46, 0
17, 355440, Note_on_c, 14, 58, 52
17, 355619, Note_on_c, 14, 58, 0
17, 355680, Note_on_c, 14, 46, 52
17, 355859, Note_on_c, 14, 46, 0
17, 355920, Note_on_c, 14, 63, 52
17, 356099, Note_on_c, 14, 63, 0
17, 356160, Note_on_c, 14, 46, 52
17, 356339, Note_on_c, 14, 46, 0
17, 356400, Note_on_c, 14, 66, 68
17, 356519, Note_on_c, 14, 66, 0
17, 356520, Note_on_c, 14, 66, 52
17, 357089, Note_on_c, 14, 66, 0
17, 357120, Note_on_c, 14, 36, 52
17, 357299, Note_on_c, 14, 36, 0
17, 357360, Note_on_c, 14, 39, 52
17, 357539, Note_on_c, 14, 39, 0
17, 357600, Note_on_c, 14, 36, 52
17, 357779, Note_on_c, 14, 36, 0
17, 357840, Note_on_c, 14, 44, 52
17, 358019, Note_on_c, 14, 44, 0
17, 358080, Note_on_c, 14, 36, 52
17, 358259, Note_on_c, 14, 36, 0
17, 358320, Note_on_c, 14, 48, 52
17, 358499, Note_on_c, 14, 48, 0
17, 358560, Note_on_c, 14, 36, 52
17, 358739, Note_on_c, 14, 36, 0
17, 358800, Note_on_c, 14, 51, 52
17, 358979, Note_on_c, 14, 51, 0
17, 359040, Note_on_c, 14, 36, 52
17, 359219, Note_on_c, 14, 36, 0
17, 359280, Note_on_c, 14, 56, 68
17, 359399, Note_on_c, 14, 56, 0
17, 359400, Note_on_c, 14, 56, 52
17, 359969, Note_on_c, 14, 56, 0
17, 360000, Note_on_c, 14, 37, 52
17, 360179, Note_on_c, 14, 37, 0
17, 360240, Note_on_c, 14, 41, 52
17, 360419, Note_on_c, 14, 41, 0
17, 360480, Note_on_c, 14, 37, 52
17, 360659, Note_on_c, 14, 37, 0
17, 360720, Note_on_c, 14, 44, 52
17, 360899, Note_on_c, 14, 44, 0
17, 360960, Note_on_c, 14, 37, 52
17, 361139, Note_on_c, 14, 37, 0
17, 361200, Note_on_c, 14, 49, 52
17, 361379, Note_on_c, 14, 49, 0
17, 361440, Note_on_c, 14, 37, 52
17, 361619, Note_on_c, 14, 37, 0
17, 361680, Note_on_c, 14, 53, 52
17, 361859, Note_on_c, 14, 53, 0
17, 361920, Note_on_c, 14, 37, 52
17, 362099, Note_on_c, 14, 37, 0
17, 362160, Note_on_c, 14, 56, 68
17, 362279, Note_on_c, 14, 56, 0
17, 362280, Note_on_c, 14, 56, 52
17, 362849, Note_on_c, 14, 56, 0
17, 362865, Control_c, 14, 11, 64
17, 362880, Note_on_c, 14, 38, 84
17, 362880, Control_c, 14, 11, 64
17, 363040, Control_c, 14, 11, 66
17, 363059, Note_on_c, 14, 38, 0
17, 363120, Note_on_c, 14, 41, 84
17, 363200, Control_c, 14, 11, 68
17, 363299, Note_on_c, 14, 41, 0
17, 363360, Note_on_c, 14, 38, 84
17, 363360, Control_c, 14, 11, 69
17, 363520, Control_c, 14, 11, 71
17, 363539, Note_on_c, 14, 38, 0
17, 363600, Note_on_c, 14, 46, 84
17, 363680, Control_c, 14, 11, 73
17, 363779, Note_on_c, 14, 46, 0
17, 363840, Note_on_c, 14, 38, 84
17, 363840, Control_c, 14, 11, 75
17, 364000, Control_c, 14, 11, 76
17, 364019, Note_on_c, 14, 38, 0
17, 364080, Note_on_c, 14, 50, 84
17, 364160, Control_c, 14, 11, 78
17, 364259, Note_on_c, 14, 50, 0
17, 364320, Control_c, 14, 11, 80
17, 364320, Note_on_c, 14, 38, 84
17, 364480, Control_c, 14, 11, 82
17, 364499, Note_on_c, 14, 38, 0
17, 364560, Note_on_c, 14, 53, 84
17, 364640, Control_c, 14, 11, 83
17, 364739, Note_on_c, 14, 53, 0
17, 364800, Control_c, 14, 11, 85
17, 364800, Note_on_c, 14, 38, 84
17, 364960, Control_c, 14, 11, 87
17, 364979, Note_on_c, 14, 38, 0
17, 365040, Note_on_c, 14, 58, 100
17, 365120, Control_c, 14, 11, 89
17, 365280, Control_c, 14, 11, 90
17, 365440, Control_c, 14, 11, 92
17, 365600, Control_c, 14, 11, 94
17, 365729, Note_on_c, 14, 58, 0
17, 365760, Note_on_c, 14, 39, 84
17, 365760, Control_c, 14, 11, 96
17, 365920, Control_c, 14, 11, 97
17, 365939, Note_on_c, 14, 39, 0
17, 366000, Note_on_c, 14, 42, 84
17, 366080, Control_c, 14, 11, 99
17, 366179, Note_on_c, 14, 42, 0
17, 366240, Control_c, 14, 11, 101
17, 366240, Note_on_c, 14, 39, 84
17, 366400, Control_c, 14, 11, 103
17, 366419, Note_on_c, 14, 39, 0
17, 366480, Note_on_c, 14, 46, 84
17, 366560, Control_c, 14, 11, 104
17, 366659, Note_on_c, 14, 46, 0
17, 366720, Control_c, 14, 11, 106
17, 366720, Note_on_c, 14, 39, 84
17, 366880, Control_c, 14, 11, 108
17, 366899, Note_on_c, 14, 39, 0
17, 366960, Note_on_c, 14, 51, 84
17, 367040, Control_c, 14, 11, 110
17, 367139, Note_on_c, 14, 51, 0
17, 367200, Control_c, 14, 11, 111
17, 367200, Note_on_c, 14, 39, 84
17, 367360, Control_c, 14, 11, 113
17, 367379, Note_on_c, 14, 39, 0
17, 367440, Note_on_c, 14, 54, 84
17, 367520, Control_c, 14, 11, 115
17, 367619, Note_on_c, 14, 54, 0
17, 367680, Note_on_c, 14, 39, 84
17, 367680, Control_c, 14, 11, 117
17, 367840, Control_c, 14, 11, 118
17, 367859, Note_on_c, 14, 39, 0
17, 367920, Note_on_c, 14, 58, 92
17, 368000, Control_c, 14, 11, 120
17, 368160, Control_c, 14, 11, 122
17, 368320, Control_c, 14, 11, 124
17, 368480, Control_c, 14, 11, 127
17, 368609, Note_on_c, 14, 58, 0
17, 368640, Note_on_c, 14, 47, 84
17, 368819, Note_on_c, 14, 47, 0
17, 368880, Note_on_c, 14, 51, 84
17, 369059, Note_on_c, 14, 51, 0
17, 369120, Note_on_c, 14, 47, 84
17, 369299, Note_on_c, 14, 47, 0
17, 369360, Note_on_c, 14, 54, 84
17, 369539, Note_on_c, 14, 54, 0
17, 369600, Note_on_c, 14, 47, 84
17, 369779, Note_on_c, 14, 47, 0
17, 369840, Note_on_c, 14, 59, 84
17, 370019, Note_on_c, 14, 59, 0
17, 370080, Note_on_c, 14, 47, 84
17, 370259, Note_on_c, 14, 47, 0
17, 370320, Note_on_c, 14, 63, 84
17, 370499, Note_on_c, 14, 63, 0
17, 370560, Note_on_c, 14, 47, 84
17, 370739, Note_on_c, 14, 47, 0
17, 370800, Note_on_c, 14, 66, 84
17, 370889, Note_on_c, 14, 66, 0
17, 370920, Note_on_c, 14, 63, 84
17, 371009, Note_on_c, 14, 63, 0
17, 371040, Note_on_c, 14, 59, 84
17, 371129, Note_on_c, 14, 59, 0
17, 371160, Note_on_c, 14, 54, 84
17, 371249, Note_on_c, 14, 54, 0
17, 371280, Note_on_c, 14, 51, 84
17, 371369, Note_on_c, 14, 51, 0
17, 371400, Note_on_c, 14, 54, 84
17, 371489, Note_on_c, 14, 54, 0
17, 371520, Note_on_c, 14, 47, 84
17, 371759, Note_on_c, 14, 47, 0
17, 373680, Note_on_c, 14, 47, 76
17, 373919, Note_on_c, 14, 47, 0
17, 373920, Note_on_c, 14, 51, 76
17, 374159, Note_on_c, 14, 51, 0
17, 374160, Note_on_c, 14, 54, 76
17, 374399, Note_on_c, 14, 54, 0
17, 376560, Note_on_c, 14, 48, 52
17, 376799, Note_on_c, 14, 48, 0
17, 376800, Note_on_c, 14, 51, 52
17, 377039, Note_on_c, 14, 51, 0
17, 377040, Note_on_c, 14, 57, 52
17, 377279, Note_on_c, 14, 57, 0
17, 377640, Note_on_c, 14, 50, 52
17, 377759, Note_on_c, 14, 50, 0
17, 377760, Note_on_c, 14, 53, 52
17, 377879, Note_on_c, 14, 53, 0
17, 377880, Note_on_c, 14, 58, 51
17, 377999, Note_on_c, 14, 58, 0
17, 378360, Note_on_c, 14, 50, 50
17, 378479, Note_on_c, 14, 50, 0
17, 378480, Note_on_c, 14, 53, 50
17, 378599, Note_on_c, 14, 53, 0
17, 378600, Note_on_c, 14, 58, 49
17, 378719, Note_on_c, 14, 58, 0
17, 379080, Note_on_c, 14, 51, 48
17, 379199, Note_on_c, 14, 51, 0
17, 379200, Note_on_c, 14, 54, 47
17, 379319, Note_on_c, 14, 54, 0
17, 379320, Note_on_c, 14, 58, 47
17, 379439, Note_on_c, 14, 58, 0
17, 379800, Note_on_c, 14, 51, 46
17, 379919, Note_on_c, 14, 51, 0
17, 379920, Note_on_c, 14, 54, 45
17, 380039, Note_on_c, 14, 54, 0
17, 380040, Note_on_c, 14, 58, 45
17, 380159, Note_on_c, 14, 58, 0
17, 380160, Program_c, 14, 45
17, 380640, Note_on_c, 14, 46, 44
17, 380879, Note_on_c, 14, 46, 0
17, 381360, Note_on_c, 14, 46, 44
17, 381599, Note_on_c, 14, 46, 0
17, 382080, Note_on_c, 14, 46, 44
17, 382319, Note_on_c, 14, 46, 0
17, 382800, Note_on_c, 14, 46, 44
17, 383039, Note_on_c, 14, 46, 0
17, 384960, Note_on_c, 14, 46, 44
17, 385199, Note_on_c, 14, 46, 0
17, 385680, Note_on_c, 14, 46, 44
17, 385919, Note_on_c, 14, 46, 0
17, 387840, Note_on_c, 14, 46, 44
17, 388079, Note_on_c, 14, 46, 0
17, 388560, Note_on_c, 14, 46, 44
17, 388799, Note_on_c, 14, 46, 0
17, 392880, Program_c, 14, 48
17, 393120, Note_on_c, 14, 46, 76
17, 393224, Note_on_c, 14, 46, 0
17, 393240, Note_on_c, 14, 58, 76
17, 393344, Note_on_c, 14, 58, 0
17, 393360, Note_on_c, 14, 58, 76
17, 393464, Note_on_c, 14, 58, 0
17, 393480, Note_on_c, 14, 58, 76
17, 393584, Note_on_c, 14, 58, 0
17, 393600, Note_on_c, 14, 58, 76
17, 393704, Note_on_c, 14, 58, 0
17, 393720, Note_on_c, 14, 58, 76
17, 393824, Note_on_c, 14, 58, 0
17, 393840, Note_on_c, 14, 58, 84
17, 393944, Note_on_c, 14, 58, 0
17, 393960, Note_on_c, 14, 58, 84
17, 394064, Note_on_c, 14, 58, 0
17, 394080, Note_on_c, 14, 58, 84
17, 394184, Note_on_c, 14, 58, 0
17, 394200, Note_on_c, 14, 58, 84
17, 394304, Note_on_c, 14, 58, 0
17, 394320, Note_on_c, 14, 58, 84
17, 394424, Note_on_c, 14, 58, 0
17, 394440, Note_on_c, 14, 58, 84
17, 394544, Note_on_c, 14, 58, 0
17, 394560, Note_on_c, 14, 51, 76
17, 394679, Note_on_c, 14, 51, 0
17, 394680, Note_on_c, 14, 51, 52
17, 395039, Note_on_c, 14, 51, 0
17, 395040, Note_on_c, 14, 55, 52
17, 395279, Note_on_c, 14, 55, 0
17, 395280, Note_on_c, 14, 51, 52
17, 395759, Note_on_c, 14, 51, 0
17, 395760, Note_on_c, 14, 46, 52
17, 395984, Note_on_c, 14, 46, 0
17, 396000, Note_on_c, 14, 51, 52
17, 396239, Note_on_c, 14, 51, 0
17, 396240, Note_on_c, 14, 55, 52
17, 396479, Note_on_c, 14, 55, 0
17, 396480, Note_on_c, 14, 58, 52
17, 396719, Note_on_c, 14, 58, 0
17, 396720, Note_on_c, 14, 51, 52
17, 397199, Note_on_c, 14, 51, 0
17, 397200, Note_on_c, 14, 50, 52
17, 397424, Note_on_c, 14, 50, 0
17, 397425, Control_c, 14, 11, 96
17, 397440, Control_c, 14, 11, 96
17, 397440, Note_on_c, 14, 49, 68
17, 397500, Control_c, 14, 11, 97
17, 397560, Control_c, 14, 11, 99
17, 397620, Control_c, 14, 11, 100
17, 397680, Control_c, 14, 11, 101
17, 397740, Control_c, 14, 11, 102
17, 397800, Control_c, 14, 11, 104
17, 397860, Control_c, 14, 11, 105
17, 397920, Control_c, 14, 11, 106
17, 397980, Control_c, 14, 11, 108
17, 398040, Control_c, 14, 11, 109
17, 398100, Control_c, 14, 11, 110
17, 398160, Control_c, 14, 11, 112
17, 398220, Control_c, 14, 11, 113
17, 398280, Control_c, 14, 11, 114
17, 398340, Control_c, 14, 11, 115
17, 398400, Control_c, 14, 11, 117
17, 398460, Control_c, 14, 11, 118
17, 398520, Control_c, 14, 11, 119
17, 398580, Control_c, 14, 11, 121
17, 398640, Control_c, 14, 11, 122
17, 398700, Control_c, 14, 11, 123
17, 398760, Control_c, 14, 11, 124
17, 398820, Control_c, 14, 11, 127
17, 398864, Note_on_c, 14, 49, 0
17, 398880, Note_on_c, 14, 48, 76
17, 399000, Control_c, 14, 11, 112
17, 399050, Control_c, 14, 11, 109
17, 399100, Control_c, 14, 11, 107
17, 399150, Control_c, 14, 11, 104
17, 399200, Control_c, 14, 11, 101
17, 399250, Control_c, 14, 11, 99
17, 399300, Control_c, 14, 11, 96
17, 399350, Control_c, 14, 11, 93
17, 399400, Control_c, 14, 11, 91
17, 399450, Control_c, 14, 11, 88
17, 399500, Control_c, 14, 11, 85
17, 399550, Control_c, 14, 11, 80
17, 400304, Note_on_c, 14, 48, 0
17, 400320, Note_on_c, 14, 48, 76
17, 401264, Note_on_c, 14, 48, 0
17, 401280, Note_on_c, 14, 48, 76
17, 401504, Note_on_c, 14, 48, 0
17, 401520, Note_on_c, 14, 48, 76
17, 401744, Note_on_c, 14, 48, 0
17, 401760, Note_on_c, 14, 53, 76
17, 401999, Note_on_c, 14, 53, 0
17, 402960, Control_c, 14, 11, 127
17, 402960, Program_c, 14, 45
17, 403200, Note_on_c, 14, 53, 52
17, 403439, Note_on_c, 14, 53, 0
17, 403680, Note_on_c, 14, 48, 52
17, 403919, Note_on_c, 14, 48, 0
17, 403920, Note_on_c, 14, 53, 52
17, 404159, Note_on_c, 14, 53, 0
17, 404160, Note_on_c, 14, 57, 52
17, 404399, Note_on_c, 14, 57, 0
17, 404400, Note_on_c, 14, 60, 52
17, 404639, Note_on_c, 14, 60, 0
17, 404640, Note_on_c, 14, 60, 52
17, 404879, Note_on_c, 14, 60, 0
17, 405120, Note_on_c, 14, 58, 52
17, 405359, Note_on_c, 14, 58, 0
17, 405360, Note_on_c, 14, 55, 52
17, 405599, Note_on_c, 14, 55, 0
17, 405600, Note_on_c, 14, 52, 52
17, 405839, Note_on_c, 14, 52, 0
17, 405840, Note_on_c, 14, 48, 52
17, 406079, Note_on_c, 14, 48, 0
17, 406080, Note_on_c, 14, 53, 52
17, 406319, Note_on_c, 14, 53, 0
17, 407520, Note_on_c, 14, 49, 52
17, 407759, Note_on_c, 14, 49, 0
17, 408960, Note_on_c, 14, 49, 52
17, 409199, Note_on_c, 14, 49, 0
17, 409440, Note_on_c, 14, 61, 52
17, 409679, Note_on_c, 14, 61, 0
17, 409680, Note_on_c, 14, 56, 52
17, 409919, Note_on_c, 14, 56, 0
17, 409920, Note_on_c, 14, 53, 52
17, 410159, Note_on_c, 14, 53, 0
17, 410160, Note_on_c, 14, 49, 52
17, 410399, Note_on_c, 14, 49, 0
17, 410400, Note_on_c, 14, 48, 52
17, 410639, Note_on_c, 14, 48, 0
17, 410880, Note_on_c, 14, 48, 52
17, 411119, Note_on_c, 14, 48, 0
17, 411120, Note_on_c, 14, 51, 52
17, 411359, Note_on_c, 14, 51, 0
17, 411360, Note_on_c, 14, 56, 52
17, 411599, Note_on_c, 14, 56, 0
17, 411600, Note_on_c, 14, 60, 52
17, 411839, Note_on_c, 14, 60, 0
17, 411840, Note_on_c, 14, 61, 52
17, 411840, Control_c, 14, 11, 96
17, 411900, Control_c, 14, 11, 99
17, 411960, Control_c, 14, 11, 101
17, 412020, Control_c, 14, 11, 104
17, 412079, Note_on_c, 14, 61, 0
17, 412080, Control_c, 14, 11, 106
17, 412140, Control_c, 14, 11, 109
17, 412185, Program_c, 14, 48
17, 412200, Note_on_c, 14, 49, 68
17, 412200, Control_c, 14, 11, 112
17, 412260, Control_c, 14, 11, 114
17, 412304, Note_on_c, 14, 49, 0
17, 412320, Note_on_c, 14, 49, 68
17, 412320, Control_c, 14, 11, 117
17, 412380, Control_c, 14, 11, 119
17, 412424, Note_on_c, 14, 49, 0
17, 412440, Note_on_c, 14, 49, 68
17, 412440, Control_c, 14, 11, 122
17, 412500, Control_c, 14, 11, 124
17, 412544, Note_on_c, 14, 49, 0
17, 412560, Control_c, 14, 11, 127
17, 412560, Note_on_c, 14, 47, 68
17, 412620, Control_c, 14, 11, 123
17, 412664, Note_on_c, 14, 47, 0
17, 412680, Control_c, 14, 11, 119
17, 412680, Note_on_c, 14, 47, 68
17, 412740, Control_c, 14, 11, 115
17, 412784, Note_on_c, 14, 47, 0
17, 412800, Control_c, 14, 11, 111
17, 412800, Note_on_c, 14, 47, 68
17, 412860, Control_c, 14, 11, 107
17, 412904, Note_on_c, 14, 47, 0
17, 412920, Note_on_c, 14, 47, 68
17, 412920, Control_c, 14, 11, 104
17, 412980, Control_c, 14, 11, 100
17, 413024, Note_on_c, 14, 47, 0
17, 413040, Control_c, 14, 11, 96
17, 413040, Note_on_c, 14, 47, 68
17, 413100, Control_c, 14, 11, 92
17, 413144, Note_on_c, 14, 47, 0
17, 413160, Note_on_c, 14, 47, 68
17, 413160, Control_c, 14, 11, 88
17, 413220, Control_c, 14, 11, 84
17, 413264, Note_on_c, 14, 47, 0
17, 413272, Control_c, 14, 11, 64
17, 413280, Note_on_c, 14, 46, 76
17, 413759, Note_on_c, 14, 46, 0
17, 413760, Note_on_c, 14, 50, 76
17, 413999, Note_on_c, 14, 50, 0
17, 414000, Note_on_c, 14, 46, 76
17, 414479, Note_on_c, 14, 46, 0
17, 414480, Note_on_c, 14, 41, 76
17, 414704, Note_on_c, 14, 41, 0
17, 414720, Control_c, 14, 11, 64
17, 414720, Note_on_c, 14, 46, 76
17, 414809, Note_on_c, 14, 46, 0
17, 414840, Note_on_c, 14, 50, 76
17, 414840, Control_c, 14, 11, 67
17, 414929, Note_on_c, 14, 50, 0
17, 414960, Control_c, 14, 11, 69
17, 414960, Note_on_c, 14, 53, 76
17, 415049, Note_on_c, 14, 53, 0
17, 415080, Control_c, 14, 11, 72
17, 415080, Note_on_c, 14, 46, 76
17, 415169, Note_on_c, 14, 46, 0
17, 415200, Note_on_c, 14, 50, 76
17, 415200, Control_c, 14, 11, 75
17, 415289, Note_on_c, 14, 50, 0
17, 415320, Note_on_c, 14, 53, 76
17, 415320, Control_c, 14, 11, 77
17, 415409, Note_on_c, 14, 53, 0
17, 415440, Note_on_c, 14, 56, 76
17, 415440, Control_c, 14, 11, 80
17, 415529, Note_on_c, 14, 56, 0
17, 415560, Control_c, 14, 11, 82
17, 415560, Note_on_c, 14, 50, 76
17, 415649, Note_on_c, 14, 50, 0
17, 415680, Note_on_c, 14, 53, 76
17, 415680, Control_c, 14, 11, 85
17, 415769, Note_on_c, 14, 53, 0
17, 415800, Note_on_c, 14, 56, 76
17, 415800, Control_c, 14, 11, 88
17, 415889, Note_on_c, 14, 56, 0
17, 415920, Note_on_c, 14, 60, 76
17, 415920, Control_c, 14, 11, 90
17, 416009, Note_on_c, 14, 60, 0
17, 416040, Control_c, 14, 11, 93
17, 416040, Note_on_c, 14, 58, 76
17, 416129, Note_on_c, 14, 58, 0
17, 416160, Note_on_c, 14, 56, 76
17, 416160, Control_c, 14, 11, 96
17, 416249, Note_on_c, 14, 56, 0
17, 416280, Note_on_c, 14, 58, 76
17, 416280, Control_c, 14, 11, 98
17, 416369, Note_on_c, 14, 58, 0
17, 416400, Control_c, 14, 11, 101
17, 416400, Note_on_c, 14, 56, 76
17, 416489, Note_on_c, 14, 56, 0
17, 416520, Note_on_c, 14, 55, 76
17, 416520, Control_c, 14, 11, 103
17, 416609, Note_on_c, 14, 55, 0
17, 416640, Control_c, 14, 11, 106
17, 416640, Note_on_c, 14, 53, 76
17, 416729, Note_on_c, 14, 53, 0
17, 416760, Control_c, 14, 11, 109
17, 416760, Note_on_c, 14, 51, 76
17, 416849, Note_on_c, 14, 51, 0
17, 416880, Note_on_c, 14, 50, 76
17, 416880, Control_c, 14, 11, 111
17, 416969, Note_on_c, 14, 50, 0
17, 417000, Note_on_c, 14, 48, 76
17, 417000, Control_c, 14, 11, 114
17, 417089, Note_on_c, 14, 48, 0
17, 417120, Control_c, 14, 11, 117
17, 417120, Note_on_c, 14, 46, 76
17, 417209, Note_on_c, 14, 46, 0
17, 417240, Control_c, 14, 11, 119
17, 417240, Note_on_c, 14, 58, 76
17, 417329, Note_on_c, 14, 58, 0
17, 417360, Control_c, 14, 11, 122
17, 417360, Note_on_c, 14, 58, 76
17, 417449, Note_on_c, 14, 58, 0
17, 417480, Note_on_c, 14, 58, 76
17, 417480, Control_c, 14, 11, 127
17, 417569, Note_on_c, 14, 58, 0
17, 417600, Note_on_c, 14, 51, 76
17, 417704, Note_on_c, 14, 51, 0
17, 417720, Note_on_c, 14, 51, 76
17, 417824, Note_on_c, 14, 51, 0
17, 417840, Note_on_c, 14, 51, 76
17, 417944, Note_on_c, 14, 51, 0
17, 417960, Note_on_c, 14, 51, 76
17, 418064, Note_on_c, 14, 51, 0
17, 418080, Note_on_c, 14, 51, 76
17, 418184, Note_on_c, 14, 51, 0
17, 418200, Note_on_c, 14, 51, 76
17, 418304, Note_on_c, 14, 51, 0
17, 418320, Note_on_c, 14, 51, 76
17, 418424, Note_on_c, 14, 51, 0
17, 418440, Note_on_c, 14, 51, 76
17, 418544, Note_on_c, 14, 51, 0
17, 418560, Note_on_c, 14, 51, 76
17, 418664, Note_on_c, 14, 51, 0
17, 418680, Note_on_c, 14, 51, 76
17, 418784, Note_on_c, 14, 51, 0
17, 418800, Note_on_c, 14, 51, 76
17, 418904, Note_on_c, 14, 51, 0
17, 418920, Note_on_c, 14, 51, 76
17, 419024, Note_on_c, 14, 51, 0
17, 419040, Note_on_c, 14, 51, 76
17, 419144, Note_on_c, 14, 51, 0
17, 419160, Note_on_c, 14, 51, 76
17, 419264, Note_on_c, 14, 51, 0
17, 419280, Note_on_c, 14, 51, 76
17, 419384, Note_on_c, 14, 51, 0
17, 419400, Note_on_c, 14, 51, 76
17, 419504, Note_on_c, 14, 51, 0
17, 419520, Note_on_c, 14, 51, 76
17, 419624, Note_on_c, 14, 51, 0
17, 419640, Note_on_c, 14, 51, 76
17, 419744, Note_on_c, 14, 51, 0
17, 419760, Note_on_c, 14, 51, 76
17, 419864, Note_on_c, 14, 51, 0
17, 419880, Note_on_c, 14, 51, 76
17, 419984, Note_on_c, 14, 51, 0
17, 420000, Note_on_c, 14, 51, 76
17, 420104, Note_on_c, 14, 51, 0
17, 420120, Note_on_c, 14, 51, 76
17, 420224, Note_on_c, 14, 51, 0
17, 420240, Note_on_c, 14, 51, 84
17, 420344, Note_on_c, 14, 51, 0
17, 420360, Note_on_c, 14, 51, 76
17, 420464, Note_on_c, 14, 51, 0
17, 420480, Note_on_c, 14, 51, 76
17, 420584, Note_on_c, 14, 51, 0
17, 420600, Note_on_c, 14, 51, 76
17, 420704, Note_on_c, 14, 51, 0
17, 420720, Note_on_c, 14, 51, 76
17, 420824, Note_on_c, 14, 51, 0
17, 420840, Note_on_c, 14, 51, 76
17, 420944, Note_on_c, 14, 51, 0
17, 420960, Note_on_c, 14, 51, 76
17, 421064, Note_on_c, 14, 51, 0
17, 421080, Note_on_c, 14, 51, 76
17, 421184, Note_on_c, 14, 51, 0
17, 421200, Note_on_c, 14, 51, 76
17, 421304, Note_on_c, 14, 51, 0
17, 421320, Note_on_c, 14, 51, 76
17, 421424, Note_on_c, 14, 51, 0
17, 421440, Note_on_c, 14, 51, 76
17, 421544, Note_on_c, 14, 51, 0
17, 421560, Note_on_c, 14, 51, 76
17, 421664, Note_on_c, 14, 51, 0
17, 421680, Note_on_c, 14, 51, 84
17, 421784, Note_on_c, 14, 51, 0
17, 421800, Note_on_c, 14, 51, 76
17, 421904, Note_on_c, 14, 51, 0
17, 421920, Note_on_c, 14, 51, 80
17, 422024, Note_on_c, 14, 51, 0
17, 422040, Note_on_c, 14, 51, 80
17, 422144, Note_on_c, 14, 51, 0
17, 422160, Note_on_c, 14, 51, 80
17, 422264, Note_on_c, 14, 51, 0
17, 422280, Note_on_c, 14, 51, 80
17, 422384, Note_on_c, 14, 51, 0
17, 422400, Note_on_c, 14, 51, 80
17, 422504, Note_on_c, 14, 51, 0
17, 422520, Note_on_c, 14, 51, 80
17, 422624, Note_on_c, 14, 51, 0
17, 422640, Note_on_c, 14, 51, 80
17, 422744, Note_on_c, 14, 51, 0
17, 422760, Note_on_c, 14, 51, 80
17, 422864, Note_on_c, 14, 51, 0
17, 422880, Note_on_c, 14, 51, 80
17, 422984, Note_on_c, 14, 51, 0
17, 423000, Note_on_c, 14, 51, 80
17, 423104, Note_on_c, 14, 51, 0
17, 423120, Note_on_c, 14, 51, 80
17, 423224, Note_on_c, 14, 51, 0
17, 423240, Note_on_c, 14, 51, 80
17, 423344, Note_on_c, 14, 51, 0
17, 423360, Note_on_c, 14, 51, 80
17, 423464, Note_on_c, 14, 51, 0
17, 423480, Note_on_c, 14, 51, 80
17, 423584, Note_on_c, 14, 51, 0
17, 423600, Note_on_c, 14, 51, 80
17, 423704, Note_on_c, 14, 51, 0
17, 423720, Note_on_c, 14, 51, 80
17, 423824, Note_on_c, 14, 51, 0
17, 423840, Note_on_c, 14, 51, 80
17, 423944, Note_on_c, 14, 51, 0
17, 423960, Note_on_c, 14, 51, 80
17, 424064, Note_on_c, 14, 51, 0
17, 424080, Note_on_c, 14, 51, 80
17, 424184, Note_on_c, 14, 51, 0
17, 424200, Note_on_c, 14, 51, 80
17, 424304, Note_on_c, 14, 51, 0
17, 424320, Note_on_c, 14, 51, 80
17, 424424, Note_on_c, 14, 51, 0
17, 424440, Note_on_c, 14, 51, 80
17, 424544, Note_on_c, 14, 51, 0
17, 424560, Note_on_c, 14, 51, 80
17, 424664, Note_on_c, 14, 51, 0
17, 424680, Note_on_c, 14, 51, 80
17, 424784, Note_on_c, 14, 51, 0
17, 424800, Note_on_c, 14, 51, 84
17, 424904, Note_on_c, 14, 51, 0
17, 424920, Note_on_c, 14, 51, 84
17, 425024, Note_on_c, 14, 51, 0
17, 425040, Note_on_c, 14, 51, 84
17, 425144, Note_on_c, 14, 51, 0
17, 425160, Note_on_c, 14, 51, 84
17, 425264, Note_on_c, 14, 51, 0
17, 425280, Note_on_c, 14, 55, 92
17, 425384, Note_on_c, 14, 55, 0
17, 425400, Note_on_c, 14, 55, 84
17, 425504, Note_on_c, 14, 55, 0
17, 425520, Note_on_c, 14, 51, 84
17, 425624, Note_on_c, 14, 51, 0
17, 425640, Note_on_c, 14, 51, 84
17, 425744, Note_on_c, 14, 51, 0
17, 425760, Note_on_c, 14, 51, 84
17, 425864, Note_on_c, 14, 51, 0
17, 425880, Note_on_c, 14, 51, 84
17, 425984, Note_on_c, 14, 51, 0
17, 426000, Note_on_c, 14, 46, 92
17, 426104, Note_on_c, 14, 46, 0
17, 426120, Note_on_c, 14, 46, 84
17, 426224, Note_on_c, 14, 46, 0
17, 426240, Note_on_c, 14, 51, 84
17, 426344, Note_on_c, 14, 51, 0
17, 426360, Note_on_c, 14, 51, 84
17, 426464, Note_on_c, 14, 51, 0
17, 426480, Note_on_c, 14, 55, 84
17, 426584, Note_on_c, 14, 55, 0
17, 426600, Note_on_c, 14, 55, 84
17, 426704, Note_on_c, 14, 55, 0
17, 426720, Note_on_c, 14, 58, 84
17, 426824, Note_on_c, 14, 58, 0
17, 426840, Note_on_c, 14, 58, 84
17, 426944, Note_on_c, 14, 58, 0
17, 426960, Note_on_c, 14, 51, 84
17, 427064, Note_on_c, 14, 51, 0
17, 427080, Note_on_c, 14, 51, 84
17, 427184, Note_on_c, 14, 51, 0
17, 427200, Note_on_c, 14, 51, 84
17, 427304, Note_on_c, 14, 51, 0
17, 427320, Note_on_c, 14, 51, 84
17, 427424, Note_on_c, 14, 51, 0
17, 427440, Note_on_c, 14, 43, 92
17, 427544, Note_on_c, 14, 43, 0
17, 427560, Note_on_c, 14, 43, 84
17, 427664, Note_on_c, 14, 43, 0
17, 427680, Note_on_c, 14, 48, 84
17, 427784, Note_on_c, 14, 48, 0
17, 427800, Note_on_c, 14, 48, 84
17, 427904, Note_on_c, 14, 48, 0
17, 427920, Note_on_c, 14, 51, 84
17, 428024, Note_on_c, 14, 51, 0
17, 428040, Note_on_c, 14, 51, 84
17, 428144, Note_on_c, 14, 51, 0
17, 428160, Note_on_c, 14, 55, 84
17, 428264, Note_on_c, 14, 55, 0
17, 428280, Note_on_c, 14, 55, 84
17, 428384, Note_on_c, 14, 55, 0
17, 428400, Note_on_c, 14, 48, 84
17, 428504, Note_on_c, 14, 48, 0
17, 428520, Note_on_c, 14, 48, 84
17, 428624, Note_on_c, 14, 48, 0
17, 428640, Note_on_c, 14, 48, 84
17, 428744, Note_on_c, 14, 48, 0
17, 428760, Note_on_c, 14, 48, 84
17, 428864, Note_on_c, 14, 48, 0
17, 428880, Note_on_c, 14, 46, 92
17, 428984, Note_on_c, 14, 46, 0
17, 429000, Note_on_c, 14, 46, 84
17, 429104, Note_on_c, 14, 46, 0
17, 429120, Note_on_c, 14, 44, 84
17, 429224, Note_on_c, 14, 44, 0
17, 429240, Note_on_c, 14, 56, 84
17, 429344, Note_on_c, 14, 56, 0
17, 429360, Note_on_c, 14, 56, 84
17, 429464, Note_on_c, 14, 56, 0
17, 429480, Note_on_c, 14, 56, 84
17, 429584, Note_on_c, 14, 56, 0
17, 429600, Note_on_c, 14, 56, 84
17, 429704, Note_on_c, 14, 56, 0
17, 429720, Note_on_c, 14, 56, 84
17, 429824, Note_on_c, 14, 56, 0
17, 429840, Note_on_c, 14, 45, 84
17, 429944, Note_on_c, 14, 45, 0
17, 429960, Note_on_c, 14, 57, 84
17, 430064, Note_on_c, 14, 57, 0
17, 430080, Note_on_c, 14, 57, 84
17, 430184, Note_on_c, 14, 57, 0
17, 430200, Note_on_c, 14, 57, 84
17, 430304, Note_on_c, 14, 57, 0
17, 430320, Note_on_c, 14, 57, 84
17, 430424, Note_on_c, 14, 57, 0
17, 430440, Note_on_c, 14, 57, 84
17, 430544, Note_on_c, 14, 57, 0
17, 430560, Note_on_c, 14, 58, 52
17, 430799, Note_on_c, 14, 58, 0
17, 432000, Note_on_c, 14, 46, 52
17, 432179, Note_on_c, 14, 46, 0
17, 432240, Note_on_c, 14, 50, 52
17, 432419, Note_on_c, 14, 50, 0
17, 432480, Note_on_c, 14, 53, 52
17, 432659, Note_on_c, 14, 53, 0
17, 432720, Note_on_c, 14, 58, 52
17, 432899, Note_on_c, 14, 58, 0
17, 432960, Note_on_c, 14, 62, 52
17, 433139, Note_on_c, 14, 62, 0
17, 433200, Note_on_c, 14, 65, 52
17, 433379, Note_on_c, 14, 65, 0
17, 433440, Note_on_c, 14, 46, 52
17, 433679, Note_on_c, 14, 46, 0
17, 434880, Note_on_c, 14, 46, 52
17, 435059, Note_on_c, 14, 46, 0
17, 435120, Note_on_c, 14, 51, 52
17, 435299, Note_on_c, 14, 51, 0
17, 435360, Note_on_c, 14, 55, 52
17, 435539, Note_on_c, 14, 55, 0
17, 435600, Note_on_c, 14, 58, 52
17, 435779, Note_on_c, 14, 58, 0
17, 435840, Note_on_c, 14, 67, 52
17, 436019, Note_on_c, 14, 67, 0
17, 436080, Note_on_c, 14, 63, 52
17, 436259, Note_on_c, 14, 63, 0
17, 436320, Note_on_c, 14, 58, 52
17, 436499, Note_on_c, 14, 58, 0
17, 438000, Note_on_c, 14, 60, 84
17, 438359, Note_on_c, 14, 60, 0
17, 438360, Note_on_c, 14, 58, 84
17, 438449, Note_on_c, 14, 58, 0
17, 438480, Note_on_c, 14, 56, 84
17, 438659, Note_on_c, 14, 56, 0
17, 438720, Note_on_c, 14, 55, 84
17, 438899, Note_on_c, 14, 55, 0
17, 438960, Note_on_c, 14, 53, 84
17, 439139, Note_on_c, 14, 53, 0
17, 439185, Control_c, 14, 11, 96
17, 439200, Control_c, 14, 11, 96
17, 439200, Note_on_c, 14, 63, 68
17, 439260, Control_c, 14, 11, 99
17, 439320, Control_c, 14, 11, 101
17, 439380, Control_c, 14, 11, 104
17, 439440, Control_c, 14, 11, 106
17, 439500, Control_c, 14, 11, 109
17, 439560, Control_c, 14, 11, 112
17, 439620, Control_c, 14, 11, 114
17, 439679, Note_on_c, 14, 63, 0
17, 439680, Note_on_c, 14, 62, 68
17, 439680, Control_c, 14, 11, 117
17, 439740, Control_c, 14, 11, 119
17, 439799, Note_on_c, 14, 62, 0
17, 439800, Note_on_c, 14, 61, 68
17, 439800, Control_c, 14, 11, 122
17, 439860, Control_c, 14, 11, 124
17, 439919, Note_on_c, 14, 61, 0
17, 439920, Control_c, 14, 11, 127
17, 439920, Note_on_c, 14, 60, 68
17, 439980, Control_c, 14, 11, 124
17, 440040, Control_c, 14, 11, 122
17, 440100, Control_c, 14, 11, 119
17, 440159, Note_on_c, 14, 60, 0
17, 440160, Note_on_c, 14, 58, 68
17, 440160, Control_c, 14, 11, 117
17, 440220, Control_c, 14, 11, 114
17, 440280, Control_c, 14, 11, 112
17, 440340, Control_c, 14, 11, 109
17, 440399, Note_on_c, 14, 58, 0
17, 440400, Note_on_c, 14, 56, 68
17, 440400, Control_c, 14, 11, 106
17, 440460, Control_c, 14, 11, 104
17, 440520, Control_c, 14, 11, 101
17, 440580, Control_c, 14, 11, 96
17, 440624, Note_on_c, 14, 56, 0
17, 440640, Note_on_c, 14, 55, 68
17, 440729, Note_on_c, 14, 55, 0
17, 440760, Note_on_c, 14, 58, 68
17, 440849, Note_on_c, 14, 58, 0
17, 440880, Note_on_c, 14, 56, 68
17, 440969, Note_on_c, 14, 56, 0
17, 441000, Note_on_c, 14, 55, 68
17, 441089, Note_on_c, 14, 55, 0
17, 441120, Note_on_c, 14, 53, 68
17, 441209, Note_on_c, 14, 53, 0
17, 441240, Note_on_c, 14, 51, 68
17, 441329, Note_on_c, 14, 51, 0
17, 441360, Note_on_c, 14, 50, 68
17, 441449, Note_on_c, 14, 50, 0
17, 441480, Note_on_c, 14, 51, 68
17, 441569, Note_on_c, 14, 51, 0
17, 441600, Note_on_c, 14, 53, 68
17, 441689, Note_on_c, 14, 53, 0
17, 441720, Note_on_c, 14, 46, 68
17, 441809, Note_on_c, 14, 46, 0
17, 441840, Note_on_c, 14, 48, 68
17, 441929, Note_on_c, 14, 48, 0
17, 441960, Note_on_c, 14, 50, 68
17, 442049, Note_on_c, 14, 50, 0
17, 442065, Control_c, 14, 11, 80
17, 442080, Note_on_c, 14, 51, 76
17, 442080, Control_c, 14, 11, 80
17, 442169, Note_on_c, 14, 51, 0
17, 442200, Control_c, 14, 11, 82
17, 442200, Note_on_c, 14, 63, 76
17, 442289, Note_on_c, 14, 63, 0
17, 442320, Note_on_c, 14, 63, 76
17, 442320, Control_c, 14, 11, 84
17, 442409, Note_on_c, 14, 63, 0
17, 442440, Control_c, 14, 11, 86
17, 442440, Note_on_c, 14, 63, 76
17, 442559, Note_on_c, 14, 63, 0
17, 442560, Control_c, 14, 11, 88
17, 442560, Note_on_c, 14, 62, 76
17, 442679, Note_on_c, 14, 62, 0
17, 442680, Control_c, 14, 11, 90
17, 442680, Note_on_c, 14, 61, 76
17, 442784, Note_on_c, 14, 61, 0
17, 442800, Control_c, 14, 11, 92
17, 442800, Note_on_c, 14, 60, 76
17, 442919, Note_on_c, 14, 60, 0
17, 442920, Note_on_c, 14, 58, 76
17, 442920, Control_c, 14, 11, 94
17, 443024, Note_on_c, 14, 58, 0
17, 443040, Control_c, 14, 11, 96
17, 443040, Note_on_c, 14, 56, 76
17, 443129, Note_on_c, 14, 56, 0
17, 443160, Control_c, 14, 11, 98
17, 443160, Note_on_c, 14, 60, 76
17, 443249, Note_on_c, 14, 60, 0
17, 443280, Note_on_c, 14, 58, 76
17, 443280, Control_c, 14, 11, 100
17, 443369, Note_on_c, 14, 58, 0
17, 443400, Control_c, 14, 11, 102
17, 443400, Note_on_c, 14, 56, 76
17, 443489, Note_on_c, 14, 56, 0
17, 443520, Note_on_c, 14, 55, 76
17, 443520, Control_c, 14, 11, 104
17, 443609, Note_on_c, 14, 55, 0
17, 443640, Control_c, 14, 11, 105
17, 443640, Note_on_c, 14, 58, 76
17, 443729, Note_on_c, 14, 58, 0
17, 443760, Note_on_c, 14, 56, 76
17, 443760, Control_c, 14, 11, 107
17, 443849, Note_on_c, 14, 56, 0
17, 443880, Control_c, 14, 11, 109
17, 443880, Note_on_c, 14, 55, 76
17, 443969, Note_on_c, 14, 55, 0
17, 444000, Note_on_c, 14, 53, 76
17, 444000, Control_c, 14, 11, 111
17, 444089, Note_on_c, 14, 53, 0
17, 444120, Note_on_c, 14, 51, 76
17, 444120, Control_c, 14, 11, 113
17, 444209, Note_on_c, 14, 51, 0
17, 444240, Control_c, 14, 11, 115
17, 444240, Note_on_c, 14, 50, 76
17, 444329, Note_on_c, 14, 50, 0
17, 444360, Control_c, 14, 11, 117
17, 444360, Note_on_c, 14, 51, 76
17, 444449, Note_on_c, 14, 51, 0
17, 444480, Note_on_c, 14, 53, 76
17, 444480, Control_c, 14, 11, 119
17, 444569, Note_on_c, 14, 53, 0
17, 444600, Note_on_c, 14, 51, 76
17, 444600, Control_c, 14, 11, 121
17, 444689, Note_on_c, 14, 51, 0
17, 444720, Control_c, 14, 11, 123
17, 444720, Note_on_c, 14, 50, 76
17, 444809, Note_on_c, 14, 50, 0
17, 444840, Control_c, 14, 11, 127
17, 444840, Note_on_c, 14, 48, 76
17, 444929, Note_on_c, 14, 48, 0
17, 444960, Note_on_c, 14, 47, 76
17, 445139, Note_on_c, 14, 47, 0
17, 445200, Note_on_c, 14, 59, 76
17, 445379, Note_on_c, 14, 59, 0
17, 446280, Note_on_c, 14, 47, 76
17, 446369, Note_on_c, 14, 47, 0
17, 446400, Note_on_c, 14, 48, 76
17, 446579, Note_on_c, 14, 48, 0
17, 446640, Note_on_c, 14, 60, 76
17, 446819, Note_on_c, 14, 60, 0
17, 447720, Note_on_c, 14, 48, 76
17, 447824, Note_on_c, 14, 48, 0
17, 447840, Note_on_c, 14, 46, 76
17, 448019, Note_on_c, 14, 46, 0
17, 448080, Note_on_c, 14, 58, 76
17, 448259, Note_on_c, 14, 58, 0
17, 449160, Note_on_c, 14, 46, 76
17, 449249, Note_on_c, 14, 46, 0
17, 449280, Note_on_c, 14, 44, 76
17, 449369, Note_on_c, 14, 44, 0
17, 449400, Note_on_c, 14, 44, 76
17, 449624, Note_on_c, 14, 44, 0
17, 449640, Note_on_c, 14, 45, 76
17, 449729, Note_on_c, 14, 45, 0
17, 449760, Note_on_c, 14, 46, 76
17, 449849, Note_on_c, 14, 46, 0
17, 449880, Note_on_c, 14, 47, 76
17, 449969, Note_on_c, 14, 47, 0
17, 450000, Note_on_c, 14, 48, 76
17, 450089, Note_on_c, 14, 48, 0
17, 450120, Note_on_c, 14, 48, 76
17, 450344, Note_on_c, 14, 48, 0
17, 450360, Note_on_c, 14, 48, 76
17, 450449, Note_on_c, 14, 48, 0
17, 450480, Note_on_c, 14, 50, 76
17, 450569, Note_on_c, 14, 50, 0
17, 450600, Note_on_c, 14, 50, 76
17, 450689, Note_on_c, 14, 50, 0
17, 450720, Note_on_c, 14, 51, 76
17, 450824, Note_on_c, 14, 51, 0
17, 450840, Note_on_c, 14, 51, 76
17, 450944, Note_on_c, 14, 51, 0
17, 450960, Note_on_c, 14, 61, 76
17, 451064, Note_on_c, 14, 61, 0
17, 451080, Note_on_c, 14, 61, 76
17, 451184, Note_on_c, 14, 61, 0
17, 451200, Note_on_c, 14, 60, 76
17, 451304, Note_on_c, 14, 60, 0
17, 451320, Note_on_c, 14, 60, 76
17, 451424, Note_on_c, 14, 60, 0
17, 451440, Note_on_c, 14, 59, 76
17, 451544, Note_on_c, 14, 59, 0
17, 451560, Note_on_c, 14, 59, 76
17, 451664, Note_on_c, 14, 59, 0
17, 451680, Note_on_c, 14, 58, 76
17, 451784, Note_on_c, 14, 58, 0
17, 451800, Note_on_c, 14, 58, 76
17, 451904, Note_on_c, 14, 58, 0
17, 451920, Note_on_c, 14, 55, 76
17, 452024, Note_on_c, 14, 55, 0
17, 452040, Note_on_c, 14, 55, 76
17, 452144, Note_on_c, 14, 55, 0
17, 452160, Note_on_c, 14, 56, 76
17, 452264, Note_on_c, 14, 56, 0
17, 452280, Note_on_c, 14, 44, 76
17, 452384, Note_on_c, 14, 44, 0
17, 452400, Note_on_c, 14, 44, 76
17, 452504, Note_on_c, 14, 44, 0
17, 452520, Note_on_c, 14, 44, 76
17, 452624, Note_on_c, 14, 44, 0
17, 452640, Note_on_c, 14, 44, 76
17, 452744, Note_on_c, 14, 44, 0
17, 452760, Note_on_c, 14, 44, 76
17, 452864, Note_on_c, 14, 44, 0
17, 452880, Note_on_c, 14, 44, 76
17, 452984, Note_on_c, 14, 44, 0
17, 453000, Note_on_c, 14, 44, 76
17, 453104, Note_on_c, 14, 44, 0
17, 453120, Note_on_c, 14, 44, 76
17, 453224, Note_on_c, 14, 44, 0
17, 453240, Note_on_c, 14, 44, 76
17, 453344, Note_on_c, 14, 44, 0
17, 453360, Note_on_c, 14, 44, 76
17, 453464, Note_on_c, 14, 44, 0
17, 453480, Note_on_c, 14, 44, 76
17, 453584, Note_on_c, 14, 44, 0
17, 453600, Note_on_c, 14, 46, 76
17, 453704, Note_on_c, 14, 46, 0
17, 453720, Note_on_c, 14, 46, 76
17, 453824, Note_on_c, 14, 46, 0
17, 453840, Note_on_c, 14, 46, 76
17, 453944, Note_on_c, 14, 46, 0
17, 453960, Note_on_c, 14, 46, 76
17, 454064, Note_on_c, 14, 46, 0
17, 454080, Note_on_c, 14, 46, 76
17, 454184, Note_on_c, 14, 46, 0
17, 454200, Note_on_c, 14, 46, 76
17, 454304, Note_on_c, 14, 46, 0
17, 454320, Note_on_c, 14, 46, 76
17, 454424, Note_on_c, 14, 46, 0
17, 454440, Note_on_c, 14, 46, 76
17, 454544, Note_on_c, 14, 46, 0
17, 454560, Note_on_c, 14, 46, 76
17, 454664, Note_on_c, 14, 46, 0
17, 454680, Note_on_c, 14, 46, 76
17, 454784, Note_on_c, 14, 46, 0
17, 454800, Note_on_c, 14, 46, 76
17, 454904, Note_on_c, 14, 46, 0
17, 454920, Note_on_c, 14, 46, 76
17, 455024, Note_on_c, 14, 46, 0
17, 455040, Note_on_c, 14, 46, 76
17, 455279, Note_on_c, 14, 46, 0
17, 456480, Note_on_c, 14, 58, 84
17, 456569, Note_on_c, 14, 58, 0
17, 456600, Note_on_c, 14, 57, 84
17, 456689, Note_on_c, 14, 57, 0
17, 456720, Note_on_c, 14, 56, 84
17, 456809, Note_on_c, 14, 56, 0
17, 456840, Note_on_c, 14, 55, 84
17, 456929, Note_on_c, 14, 55, 0
17, 456960, Note_on_c, 14, 53, 84
17, 457049, Note_on_c, 14, 53, 0
17, 457080, Note_on_c, 14, 51, 84
17, 457169, Note_on_c, 14, 51, 0
17, 457200, Note_on_c, 14, 50, 84
17, 457304, Note_on_c, 14, 50, 0
17, 457320, Note_on_c, 14, 48, 84
17, 457424, Note_on_c, 14, 48, 0
17, 457440, Note_on_c, 14, 46, 84
17, 457544, Note_on_c, 14, 46, 0
17, 457560, Note_on_c, 14, 44, 84
17, 457664, Note_on_c, 14, 44, 0
17, 457680, Note_on_c, 14, 43, 84
17, 457784, Note_on_c, 14, 43, 0
17, 457800, Note_on_c, 14, 41, 84
17, 457904, Note_on_c, 14, 41, 0
17, 457920, Note_on_c, 14, 39, 84
17, 458159, Note_on_c, 14, 39, 0
17, 460800, Control_c, 14, 11, 96
17, 461040, Note_on_c, 14, 53, 68
17, 461249, Note_on_c, 14, 53, 0
17, 461280, Note_on_c, 14, 53, 68
17, 461489, Note_on_c, 14, 53, 0
17, 461520, Control_c, 14, 11, 96
17, 461520, Note_on_c, 14, 53, 68
17, 461600, Control_c, 14, 11, 99
17, 461680, Control_c, 14, 11, 101
17, 461729, Note_on_c, 14, 53, 0
17, 461760, Note_on_c, 14, 53, 68
17, 461760, Control_c, 14, 11, 104
17, 461840, Control_c, 14, 11, 106
17, 461920, Control_c, 14, 11, 109
17, 461969, Note_on_c, 14, 53, 0
17, 462000, Control_c, 14, 11, 112
17, 462000, Note_on_c, 14, 53, 68
17, 462080, Control_c, 14, 11, 114
17, 462160, Control_c, 14, 11, 117
17, 462209, Note_on_c, 14, 53, 0
17, 462240, Control_c, 14, 11, 119
17, 462240, Note_on_c, 14, 53, 68
17, 462320, Control_c, 14, 11, 122
17, 462400, Control_c, 14, 11, 127
17, 462464, Note_on_c, 14, 53, 0
17, 462480, Note_on_c, 14, 53, 76
17, 462929, Note_on_c, 14, 53, 0
17, 462960, Note_on_c, 14, 53, 76
17, 463080, Control_c, 14, 11, 112
17, 463130, Control_c, 14, 11, 109
17, 463180, Control_c, 14, 11, 107
17, 463230, Control_c, 14, 11, 104
17, 463280, Control_c, 14, 11, 101
17, 463330, Control_c, 14, 11, 99
17, 463380, Control_c, 14, 11, 96
17, 463430, Control_c, 14, 11, 93
17, 463480, Control_c, 14, 11, 91
17, 463530, Control_c, 14, 11, 88
17, 463559, Note_on_c, 14, 53, 0
17, 463560, Note_on_c, 14, 50, 76
17, 463580, Control_c, 14, 11, 85
17, 463630, Control_c, 14, 11, 80
17, 463679, Note_on_c, 14, 50, 0
17, 463680, Note_on_c, 14, 51, 76
17, 463919, Note_on_c, 14, 51, 0
17, 466560, Control_c, 14, 11, 96
17, 466800, Note_on_c, 14, 46, 68
17, 467039, Note_on_c, 14, 46, 0
17, 467040, Note_on_c, 14, 42, 68
17, 467279, Note_on_c, 14, 42, 0
17, 467280, Note_on_c, 14, 41, 68
17, 467320, Control_c, 14, 11, 99
17, 467360, Control_c, 14, 11, 101
17, 467400, Control_c, 14, 11, 104
17, 467440, Control_c, 14, 11, 106
17, 467480, Control_c, 14, 11, 109
17, 467520, Control_c, 14, 11, 112
17, 467560, Control_c, 14, 11, 114
17, 467600, Control_c, 14, 11, 117
17, 467640, Control_c, 14, 11, 119
17, 467680, Control_c, 14, 11, 122
17, 467720, Control_c, 14, 11, 124
17, 467759, Note_on_c, 14, 41, 0
17, 467760, Control_c, 14, 11, 127
17, 467760, Note_on_c, 14, 40, 68
17, 467800, Control_c, 14, 11, 122
17, 467840, Control_c, 14, 11, 117
17, 467880, Control_c, 14, 11, 112
17, 467920, Control_c, 14, 11, 106
17, 467960, Control_c, 14, 11, 96
17, 467999, Note_on_c, 14, 40, 0
17, 469440, Control_c, 14, 11, 127
17, 469680, Note_on_c, 14, 46, 44
17, 469859, Note_on_c, 14, 46, 0
17, 469920, Note_on_c, 14, 46, 44
17, 470099, Note_on_c, 14, 46, 0
17, 470400, Note_on_c, 14, 46, 44
17, 470579, Note_on_c, 14, 46, 0
17, 470640, Note_on_c, 14, 46, 44
17, 470819, Note_on_c, 14, 46, 0
17, 471120, Note_on_c, 14, 46, 44
17, 471299, Note_on_c, 14, 46, 0
17, 471360, Note_on_c, 14, 46, 44
17, 471539, Note_on_c, 14, 46, 0
17, 471600, Note_on_c, 14, 46, 44
17, 471779, Note_on_c, 14, 46, 0
17, 471840, Note_on_c, 14, 46, 44
17, 472019, Note_on_c, 14, 46, 0
17, 472080, Note_on_c, 14, 46, 44
17, 472259, Note_on_c, 14, 46, 0
17, 472320, Note_on_c, 14, 46, 44
17, 472409, Note_on_c, 14, 46, 0
17, 472440, Note_on_c, 14, 46, 44
17, 472529, Note_on_c, 14, 46, 0
17, 472560, Note_on_c, 14, 46, 44
17, 472649, Note_on_c, 14, 46, 0
17, 472680, Note_on_c, 14, 46, 44
17, 472769, Note_on_c, 14, 46, 0
17, 472800, Note_on_c, 14, 56, 44
17, 472889, Note_on_c, 14, 56, 0
17, 472920, Note_on_c, 14, 55, 44
17, 473009, Note_on_c, 14, 55, 0
17, 473040, Note_on_c, 14, 53, 44
17, 473129, Note_on_c, 14, 53, 0
17, 473160, Note_on_c, 14, 55, 44
17, 473249, Note_on_c, 14, 55, 0
17, 473280, Note_on_c, 14, 56, 44
17, 473369, Note_on_c, 14, 56, 0
17, 473400, Note_on_c, 14, 55, 44
17, 473489, Note_on_c, 14, 55, 0
17, 473520, Note_on_c, 14, 53, 44
17, 473609, Note_on_c, 14, 53, 0
17, 473640, Note_on_c, 14, 51, 44
17, 473729, Note_on_c, 14, 51, 0
17, 473760, Note_on_c, 14, 50, 44
17, 473849, Note_on_c, 14, 50, 0
17, 473880, Note_on_c, 14, 51, 45
17, 473969, Note_on_c, 14, 51, 0
17, 474000, Note_on_c, 14, 53, 46
17, 474089, Note_on_c, 14, 53, 0
17, 474120, Note_on_c, 14, 55, 48
17, 474209, Note_on_c, 14, 55, 0
17, 474240, Note_on_c, 14, 56, 49
17, 474329, Note_on_c, 14, 56, 0
17, 474360, Note_on_c, 14, 55, 50
17, 474449, Note_on_c, 14, 55, 0
17, 474480, Note_on_c, 14, 53, 52
17, 474569, Note_on_c, 14, 53, 0
17, 474600, Note_on_c, 14, 55, 53
17, 474689, Note_on_c, 14, 55, 0
17, 474720, Note_on_c, 14, 56, 54
17, 474809, Note_on_c, 14, 56, 0
17, 474840, Note_on_c, 14, 55, 56
17, 474929, Note_on_c, 14, 55, 0
17, 474960, Note_on_c, 14, 53, 57
17, 475049, Note_on_c, 14, 53, 0
17, 475080, Note_on_c, 14, 51, 58
17, 475169, Note_on_c, 14, 51, 0
17, 475200, Note_on_c, 14, 50, 60
17, 475289, Note_on_c, 14, 50, 0
17, 475320, Note_on_c, 14, 51, 61
17, 475409, Note_on_c, 14, 51, 0
17, 475440, Note_on_c, 14, 53, 62
17, 475529, Note_on_c, 14, 53, 0
17, 475560, Note_on_c, 14, 55, 64
17, 475649, Note_on_c, 14, 55, 0
17, 475680, Note_on_c, 14, 53, 65
17, 475769, Note_on_c, 14, 53, 0
17, 475800, Note_on_c, 14, 51, 66
17, 475889, Note_on_c, 14, 51, 0
17, 475920, Note_on_c, 14, 50, 68
17, 476009, Note_on_c, 14, 50, 0
17, 476040, Note_on_c, 14, 48, 69
17, 476129, Note_on_c, 14, 48, 0
17, 476160, Note_on_c, 14, 46, 70
17, 476249, Note_on_c, 14, 46, 0
17, 476280, Note_on_c, 14, 44, 72
17, 476369, Note_on_c, 14, 44, 0
17, 476400, Note_on_c, 14, 43, 73
17, 476489, Note_on_c, 14, 43, 0
17, 476520, Note_on_c, 14, 41, 74
17, 476609, Note_on_c, 14, 41, 0
17, 476640, Note_on_c, 14, 39, 76
17, 476744, Note_on_c, 14, 39, 0
17, 476760, Note_on_c, 14, 46, 76
17, 476864, Note_on_c, 14, 46, 0
17, 476880, Note_on_c, 14, 51, 76
17, 476984, Note_on_c, 14, 51, 0
17, 477000, Note_on_c, 14, 46, 76
17, 477104, Note_on_c, 14, 46, 0
17, 477120, Note_on_c, 14, 51, 76
17, 477224, Note_on_c, 14, 51, 0
17, 477240, Note_on_c, 14, 46, 76
17, 477359, Note_on_c, 14, 46, 0
17, 477480, Note_on_c, 14, 46, 76
17, 477584, Note_on_c, 14, 46, 0
17, 477600, Note_on_c, 14, 51, 84
17, 477704, Note_on_c, 14, 51, 0
17, 477720, Note_on_c, 14, 55, 76
17, 477824, Note_on_c, 14, 55, 0
17, 477840, Note_on_c, 14, 58, 76
17, 477944, Note_on_c, 14, 58, 0
17, 477960, Note_on_c, 14, 46, 76
17, 478079, Note_on_c, 14, 46, 0
17, 478200, Note_on_c, 14, 46, 76
17, 478304, Note_on_c, 14, 46, 0
17, 478320, Note_on_c, 14, 53, 84
17, 478424, Note_on_c, 14, 53, 0
17, 478440, Note_on_c, 14, 56, 76
17, 478544, Note_on_c, 14, 56, 0
17, 478560, Note_on_c, 14, 58, 76
17, 478664, Note_on_c, 14, 58, 0
17, 478680, Note_on_c, 14, 46, 76
17, 478799, Note_on_c, 14, 46, 0
17, 478920, Note_on_c, 14, 46, 76
17, 479039, Note_on_c, 14, 46, 0
17, 479040, Note_on_c, 14, 50, 84
17, 479144, Note_on_c, 14, 50, 0
17, 479160, Note_on_c, 14, 53, 76
17, 479264, Note_on_c, 14, 53, 0
17, 479280, Note_on_c, 14, 58, 76
17, 479384, Note_on_c, 14, 58, 0
17, 479400, Note_on_c, 14, 56, 76
17, 479504, Note_on_c, 14, 56, 0
17, 479520, Note_on_c, 14, 55, 84
17, 479624, Note_on_c, 14, 55, 0
17, 479640, Note_on_c, 14, 46, 84
17, 479744, Note_on_c, 14, 46, 0
17, 479760, Note_on_c, 14, 51, 84
17, 479864, Note_on_c, 14, 51, 0
17, 479880, Note_on_c, 14, 46, 84
17, 479984, Note_on_c, 14, 46, 0
17, 480000, Note_on_c, 14, 51, 84
17, 480104, Note_on_c, 14, 51, 0
17, 480120, Note_on_c, 14, 46, 84
17, 480224, Note_on_c, 14, 46, 0
17, 480240, Note_on_c, 14, 51, 84
17, 480344, Note_on_c, 14, 51, 0
17, 480360, Note_on_c, 14, 46, 84
17, 480464, Note_on_c, 14, 46, 0
17, 480480, Note_on_c, 14, 51, 84
17, 480584, Note_on_c, 14, 51, 0
17, 480600, Note_on_c, 14, 46, 84
17, 480704, Note_on_c, 14, 46, 0
17, 480720, Note_on_c, 14, 51, 84
17, 480824, Note_on_c, 14, 51, 0
17, 480840, Note_on_c, 14, 46, 84
17, 480944, Note_on_c, 14, 46, 0
17, 480960, Note_on_c, 14, 50, 84
17, 481064, Note_on_c, 14, 50, 0
17, 481080, Note_on_c, 14, 46, 84
17, 481184, Note_on_c, 14, 46, 0
17, 481200, Note_on_c, 14, 50, 84
17, 481304, Note_on_c, 14, 50, 0
17, 481320, Note_on_c, 14, 46, 84
17, 481424, Note_on_c, 14, 46, 0
17, 481440, Note_on_c, 14, 50, 84
17, 481544, Note_on_c, 14, 50, 0
17, 481560, Note_on_c, 14, 46, 84
17, 481664, Note_on_c, 14, 46, 0
17, 481680, Note_on_c, 14, 53, 84
17, 481784, Note_on_c, 14, 53, 0
17, 481800, Note_on_c, 14, 46, 84
17, 481904, Note_on_c, 14, 46, 0
17, 481920, Note_on_c, 14, 56, 84
17, 482024, Note_on_c, 14, 56, 0
17, 482040, Note_on_c, 14, 58, 84
17, 482144, Note_on_c, 14, 58, 0
17, 482160, Note_on_c, 14, 56, 84
17, 482264, Note_on_c, 14, 56, 0
17, 482280, Note_on_c, 14, 58, 84
17, 482384, Note_on_c, 14, 58, 0
17, 482400, Note_on_c, 14, 55, 84
17, 482999, Note_on_c, 14, 55, 0
17, 483000, Note_on_c, 14, 54, 84
17, 483119, Note_on_c, 14, 54, 0
17, 483120, Note_on_c, 14, 55, 84
17, 483224, Note_on_c, 14, 55, 0
17, 483240, Note_on_c, 14, 50, 84
17, 483329, Note_on_c, 14, 50, 0
17, 483360, Note_on_c, 14, 51, 84
17, 483449, Note_on_c, 14, 51, 0
17, 483480, Note_on_c, 14, 53, 84
17, 483569, Note_on_c, 14, 53, 0
17, 483600, Note_on_c, 14, 54, 84
17, 483689, Note_on_c, 14, 54, 0
17, 483720, Note_on_c, 14, 55, 84
17, 483809, Note_on_c, 14, 55, 0
17, 483840, Note_on_c, 14, 56, 84
17, 483944, Note_on_c, 14, 56, 0
17, 483960, Note_on_c, 14, 55, 84
17, 484064, Note_on_c, 14, 55, 0
17, 484080, Note_on_c, 14, 53, 92
17, 484184, Note_on_c, 14, 53, 0
17, 484200, Note_on_c, 14, 57, 84
17, 484304, Note_on_c, 14, 57, 0
17, 484320, Note_on_c, 14, 58, 84
17, 484424, Note_on_c, 14, 58, 0
17, 484440, Note_on_c, 14, 56, 84
17, 484544, Note_on_c, 14, 56, 0
17, 484560, Note_on_c, 14, 55, 92
17, 484664, Note_on_c, 14, 55, 0
17, 484680, Note_on_c, 14, 47, 84
17, 484784, Note_on_c, 14, 47, 0
17, 484800, Note_on_c, 14, 48, 84
17, 484904, Note_on_c, 14, 48, 0
17, 484920, Note_on_c, 14, 46, 84
17, 485024, Note_on_c, 14, 46, 0
17, 485040, Note_on_c, 14, 44, 92
17, 485144, Note_on_c, 14, 44, 0
17, 485160, Note_on_c, 14, 48, 84
17, 485264, Note_on_c, 14, 48, 0
17, 485280, Note_on_c, 14, 50, 84
17, 485384, Note_on_c, 14, 50, 0
17, 485400, Note_on_c, 14, 48, 84
17, 485504, Note_on_c, 14, 48, 0
17, 485520, Note_on_c, 14, 46, 92
17, 485624, Note_on_c, 14, 46, 0
17, 485640, Note_on_c, 14, 50, 84
17, 485744, Note_on_c, 14, 50, 0
17, 485760, Note_on_c, 14, 51, 84
17, 485864, Note_on_c, 14, 51, 0
17, 485880, Note_on_c, 14, 50, 84
17, 485984, Note_on_c, 14, 50, 0
17, 486000, Note_on_c, 14, 48, 84
17, 486104, Note_on_c, 14, 48, 0
17, 486120, Note_on_c, 14, 59, 84
17, 486224, Note_on_c, 14, 59, 0
17, 486240, Note_on_c, 14, 60, 84
17, 486344, Note_on_c, 14, 60, 0
17, 486360, Note_on_c, 14, 58, 84
17, 486464, Note_on_c, 14, 58, 0
17, 486480, Note_on_c, 14, 57, 84
17, 486584, Note_on_c, 14, 57, 0
17, 486600, Note_on_c, 14, 56, 84
17, 486704, Note_on_c, 14, 56, 0
17, 486720, Note_on_c, 14, 55, 84
17, 486899, Note_on_c, 14, 55, 0
17, 486960, Note_on_c, 14, 59, 84
17, 487139, Note_on_c, 14, 59, 0
17, 487200, Note_on_c, 14, 60, 84
17, 487379, Note_on_c, 14, 60, 0
17, 487680, Note_on_c, 14, 55, 84
17, 487859, Note_on_c, 14, 55, 0
17, 487920, Note_on_c, 14, 56, 84
17, 488099, Note_on_c, 14, 56, 0
17, 488400, Note_on_c, 14, 57, 84
17, 488579, Note_on_c, 14, 57, 0
17, 488640, Note_on_c, 14, 58, 84
17, 488819, Note_on_c, 14, 58, 0
17, 489120, Note_on_c, 14, 59, 84
17, 489299, Note_on_c, 14, 59, 0
17, 489360, Note_on_c, 14, 60, 84
17, 489539, Note_on_c, 14, 60, 0
17, 489840, Note_on_c, 14, 55, 84
17, 490019, Note_on_c, 14, 55, 0
17, 490080, Note_on_c, 14, 56, 84
17, 490259, Note_on_c, 14, 56, 0
17, 490560, Note_on_c, 14, 57, 92
17, 490739, Note_on_c, 14, 57, 0
17, 491040, Note_on_c, 14, 45, 92
17, 491219, Note_on_c, 14, 45, 0
17, 491520, Note_on_c, 14, 45, 92
17, 491699, Note_on_c, 14, 45, 0
17, 492000, Note_on_c, 14, 45, 92
17, 492179, Note_on_c, 14, 45, 0
17, 492480, Note_on_c, 14, 45, 92
17, 492659, Note_on_c, 14, 45, 0
17, 492960, Note_on_c, 14, 45, 92
17, 493139, Note_on_c, 14, 45, 0
17, 493920, Note_on_c, 14, 47, 68
17, 494039, Note_on_c, 14, 47, 0
17, 494040, Note_on_c, 14, 47, 52
17, 494624, Note_on_c, 14, 47, 0
17, 494640, Note_on_c, 14, 46, 60
17, 495344, Note_on_c, 14, 46, 0
17, 495360, Note_on_c, 14, 48, 68
17, 495479, Note_on_c, 14, 48, 0
17, 495480, Note_on_c, 14, 48, 52
17, 496319, Note_on_c, 14, 48, 0
17, 496440, Note_on_c, 14, 36, 52
17, 496529, Note_on_c, 14, 36, 0
17, 496560, Note_on_c, 14, 39, 52
17, 496649, Note_on_c, 14, 39, 0
17, 496680, Note_on_c, 14, 44, 52
17, 496769, Note_on_c, 14, 44, 0
17, 496800, Note_on_c, 14, 37, 52
17, 497039, Note_on_c, 14, 37, 0
17, 497160, Note_on_c, 14, 37, 52
17, 497249, Note_on_c, 14, 37, 0
17, 497280, Note_on_c, 14, 41, 52
17, 497369, Note_on_c, 14, 41, 0
17, 497400, Note_on_c, 14, 44, 52
17, 497489, Note_on_c, 14, 44, 0
17, 497520, Note_on_c, 14, 38, 52
17, 497759, Note_on_c, 14, 38, 0
17, 497880, Note_on_c, 14, 38, 52
17, 497969, Note_on_c, 14, 38, 0
17, 498000, Note_on_c, 14, 41, 52
17, 498089, Note_on_c, 14, 41, 0
17, 498120, Note_on_c, 14, 46, 52
17, 498209, Note_on_c, 14, 46, 0
17, 498240, Note_on_c, 14, 39, 52
17, 498479, Note_on_c, 14, 39, 0
17, 498600, Note_on_c, 14, 51, 52
17, 498704, Note_on_c, 14, 51, 0
17, 498720, Note_on_c, 14, 51, 52
17, 498824, Note_on_c, 14, 51, 0
17, 498840, Note_on_c, 14, 51, 52
17, 498944, Note_on_c, 14, 51, 0
17, 498960, Note_on_c, 14, 56, 52
17, 499064, Note_on_c, 14, 56, 0
17, 499080, Note_on_c, 14, 56, 53
17, 499184, Note_on_c, 14, 56, 0
17, 499200, Note_on_c, 14, 56, 55
17, 499304, Note_on_c, 14, 56, 0
17, 499320, Note_on_c, 14, 56, 57
17, 499424, Note_on_c, 14, 56, 0
17, 499440, Note_on_c, 14, 56, 59
17, 499544, Note_on_c, 14, 56, 0
17, 499560, Note_on_c, 14, 56, 60
17, 499664, Note_on_c, 14, 56, 0
17, 499680, Note_on_c, 14, 53, 62
17, 499784, Note_on_c, 14, 53, 0
17, 499800, Note_on_c, 14, 53, 64
17, 499904, Note_on_c, 14, 53, 0
17, 499920, Note_on_c, 14, 53, 66
17, 500024, Note_on_c, 14, 53, 0
17, 500040, Note_on_c, 14, 53, 68
17, 500159, Note_on_c, 14, 53, 0
17, 500160, Note_on_c, 14, 55, 69
17, 500279, Note_on_c, 14, 55, 0
17, 500280, Note_on_c, 14, 56, 71
17, 500384, Note_on_c, 14, 56, 0
17, 500400, Note_on_c, 14, 58, 73
17, 500489, Note_on_c, 14, 58, 0
17, 500520, Note_on_c, 14, 55, 75
17, 500609, Note_on_c, 14, 55, 0
17, 500640, Note_on_c, 14, 51, 76
17, 500729, Note_on_c, 14, 51, 0
17, 500760, Note_on_c, 14, 58, 78
17, 500849, Note_on_c, 14, 58, 0
17, 500880, Note_on_c, 14, 55, 80
17, 500969, Note_on_c, 14, 55, 0
17, 501000, Note_on_c, 14, 51, 82
17, 501089, Note_on_c, 14, 51, 0
17, 501120, Note_on_c, 14, 46, 84
17, 501224, Note_on_c, 14, 46, 0
17, 501240, Note_on_c, 14, 46, 84
17, 501344, Note_on_c, 14, 46, 0
17, 501360, Note_on_c, 14, 46, 84
17, 501464, Note_on_c, 14, 46, 0
17, 501480, Note_on_c, 14, 46, 84
17, 501584, Note_on_c, 14, 46, 0
17, 501600, Note_on_c, 14, 46, 84
17, 501704, Note_on_c, 14, 46, 0
17, 501720, Note_on_c, 14, 46, 84
17, 501824, Note_on_c, 14, 46, 0
17, 501840, Note_on_c, 14, 51, 76
17, 502079, Note_on_c, 14, 51, 0
17, 502560, Note_on_c, 14, 51, 76
17, 502799, Note_on_c, 14, 51, 0
17, 503280, Note_on_c, 14, 51, 76
17, 503519, Note_on_c, 14, 51, 0
17, 504000, Note_on_c, 14, 51, 76
17, 504179, Note_on_c, 14, 51, 0
17, 504240, Note_on_c, 14, 51, 76
17, 504419, Note_on_c, 14, 51, 0
17, 504480, Note_on_c, 14, 51, 76
17, 504659, Note_on_c, 14, 51, 0
17, 504720, Note_on_c, 14, 51, 76
17, 504839, Note_on_c, 14, 51, 0
17, 504840, Note_on_c, 14, 51, 52
17, 506159, Note_on_c, 14, 51, 0
17, 506160, Control_c, 14, 11, 127
17, 506160, Note_on_c, 14, 51, 52
17, 506256, Control_c, 14, 11, 126
17, 506352, Control_c, 14, 11, 125
17, 506448, Control_c, 14, 11, 124
17, 506544, Control_c, 14, 11, 123
17, 506640, Control_c, 14, 11, 122
17, 506736, Control_c, 14, 11, 121
17, 506832, Control_c, 14, 11, 120
17, 506928, Control_c, 14, 11, 119
17, 507024, Control_c, 14, 11, 118
17, 507120, Control_c, 14, 11, 117
17, 507216, Control_c, 14, 11, 116
17, 507312, Control_c, 14, 11, 115
17, 507408, Control_c, 14, 11, 114
17, 507504, Control_c, 14, 11, 112
17, 507599, Note_on_c, 14, 51, 0
17, 507600, Note_on_c, 14, 51, 52
17, 509009, Note_on_c, 14, 51, 0
17, 509025, Control_c, 14, 11, 127
17, 509040, Note_on_c, 14, 37, 76
17, 509040, Note_on_c, 14, 44, 76
17, 510464, Note_on_c, 14, 37, 0
17, 510464, Note_on_c, 14, 44, 0
17, 510480, Note_on_c, 14, 49, 52
17, 511904, Note_on_c, 14, 49, 0
17, 511920, Note_on_c, 14, 36, 84
17, 511920, Note_on_c, 14, 43, 84
17, 511971, Note_on_c, 14, 36, 0
17, 511971, Note_on_c, 14, 43, 0
17, 511980, Note_on_c, 14, 43, 84
17, 511980, Note_on_c, 14, 36, 84
17, 512031, Note_on_c, 14, 43, 0
17, 512031, Note_on_c, 14, 36, 0
17, 512040, Note_on_c, 14, 36, 84
17, 512040, Note_on_c, 14, 43, 84
17, 512091, Note_on_c, 14, 36, 0
17, 512091, Note_on_c, 14, 43, 0
17, 512100, Note_on_c, 14, 43, 84
17, 512100, Note_on_c, 14, 36, 84
17, 512151, Note_on_c, 14, 43, 0
17, 512151, Note_on_c, 14, 36, 0
17, 512160, Note_on_c, 14, 36, 84
17, 512160, Note_on_c, 14, 43, 84
17, 512211, Note_on_c, 14, 36, 0
17, 512211, Note_on_c, 14, 43, 0
17, 512220, Note_on_c, 14, 43, 84
17, 512220, Note_on_c, 14, 36, 84
17, 512271, Note_on_c, 14, 43, 0
17, 512271, Note_on_c, 14, 36, 0
17, 512280, Note_on_c, 14, 36, 84
17, 512280, Note_on_c, 14, 43, 84
17, 512331, Note_on_c, 14, 36, 0
17, 512331, Note_on_c, 14, 43, 0
17, 512340, Note_on_c, 14, 43, 84
17, 512340, Note_on_c, 14, 36, 84
17, 512391, Note_on_c, 14, 43, 0
17, 512391, Note_on_c, 14, 36, 0
17, 512400, Note_on_c, 14, 43, 84
17, 512400, Note_on_c, 14, 36, 84
17, 512451, Note_on_c, 14, 43, 0
17, 512451, Note_on_c, 14, 36, 0
17, 512460, Note_on_c, 14, 36, 84
17, 512460, Note_on_c, 14, 43, 84
17, 512511, Note_on_c, 14, 36, 0
17, 512511, Note_on_c, 14, 43, 0
17, 512520, Note_on_c, 14, 43, 84
17, 512520, Note_on_c, 14, 36, 84
17, 512571, Note_on_c, 14, 43, 0
17, 512571, Note_on_c, 14, 36, 0
17, 512580, Note_on_c, 14, 43, 84
17, 512580, Note_on_c, 14, 36, 84
17, 512631, Note_on_c, 14, 43, 0
17, 512631, Note_on_c, 14, 36, 0
17, 512640, Note_on_c, 14, 43, 84
17, 512640, Note_on_c, 14, 36, 84
17, 512691, Note_on_c, 14, 43, 0
17, 512691, Note_on_c, 14, 36, 0
17, 512700, Note_on_c, 14, 43, 84
17, 512700, Note_on_c, 14, 36, 84
17, 512751, Note_on_c, 14, 43, 0
17, 512751, Note_on_c, 14, 36, 0
17, 512760, Note_on_c, 14, 36, 84
17, 512760, Note_on_c, 14, 43, 84
17, 512811, Note_on_c, 14, 36, 0
17, 512811, Note_on_c, 14, 43, 0
17, 512820, Note_on_c, 14, 43, 84
17, 512820, Note_on_c, 14, 36, 84
17, 512871, Note_on_c, 14, 43, 0
17, 512871, Note_on_c, 14, 36, 0
17, 512880, Note_on_c, 14, 43, 84
17, 512880, Note_on_c, 14, 36, 84
17, 512931, Note_on_c, 14, 43, 0
17, 512931, Note_on_c, 14, 36, 0
17, 512940, Note_on_c, 14, 43, 84
17, 512940, Note_on_c, 14, 36, 84
17, 512991, Note_on_c, 14, 43, 0
17, 512991, Note_on_c, 14, 36, 0
17, 513000, Note_on_c, 14, 36, 84
17, 513000, Note_on_c, 14, 43, 84
17, 513051, Note_on_c, 14, 36, 0
17, 513051, Note_on_c, 14, 43, 0
17, 513060, Note_on_c, 14, 43, 84
17, 513060, Note_on_c, 14, 36, 84
17, 513111, Note_on_c, 14, 43, 0
17, 513111, Note_on_c, 14, 36, 0
17, 513120, Note_on_c, 14, 36, 84
17, 513120, Note_on_c, 14, 43, 84
17, 513171, Note_on_c, 14, 36, 0
17, 513171, Note_on_c, 14, 43, 0
17, 513180, Note_on_c, 14, 43, 84
17, 513180, Note_on_c, 14, 36, 84
17, 513231, Note_on_c, 14, 43, 0
17, 513231, Note_on_c, 14, 36, 0
17, 513240, Note_on_c, 14, 43, 84
17, 513240, Note_on_c, 14, 36, 84
17, 513291, Note_on_c, 14, 43, 0
17, 513291, Note_on_c, 14, 36, 0
17, 513300, Note_on_c, 14, 36, 84
17, 513300, Note_on_c, 14, 43, 84
17, 513351, Note_on_c, 14, 36, 0
17, 513351, Note_on_c, 14, 43, 0
17, 513360, Note_on_c, 14, 48, 52
17, 514080, Control_c, 14, 11, 127
17, 514128, Control_c, 14, 11, 126
17, 514176, Control_c, 14, 11, 125
17, 514224, Control_c, 14, 11, 124
17, 514272, Control_c, 14, 11, 123
17, 514320, Control_c, 14, 11, 122
17, 514368, Control_c, 14, 11, 121
17, 514416, Control_c, 14, 11, 120
17, 514464, Control_c, 14, 11, 119
17, 514512, Control_c, 14, 11, 118
17, 514560, Control_c, 14, 11, 117
17, 514608, Control_c, 14, 11, 116
17, 514656, Control_c, 14, 11, 115
17, 514704, Control_c, 14, 11, 114
17, 514752, Control_c, 14, 11, 112
17, 514799, Note_on_c, 14, 48, 0
17, 514800, Note_on_c, 14, 48, 52
17, 516239, Note_on_c, 14, 48, 0
17, 516240, Note_on_c, 14, 48, 52
17, 517664, Note_on_c, 14, 48, 0
17, 517680, Note_on_c, 14, 47, 52
17, 519119, Note_on_c, 14, 47, 0
17, 519120, Note_on_c, 14, 47, 52
17, 520544, Note_on_c, 14, 47, 0
17, 520560, Note_on_c, 14, 46, 52
17, 521279, Note_on_c, 14, 46, 0
17, 521280, Note_on_c, 14, 58, 52
17, 521984, Note_on_c, 14, 58, 0
17, 522000, Note_on_c, 14, 56, 52
17, 523424, Note_on_c, 14, 56, 0
17, 523440, Note_on_c, 14, 52, 52
17, 523679, Note_on_c, 14, 52, 0
17, 525600, Program_c, 14, 45
17, 525600, Control_c, 14, 11, 127
17, 525840, Note_on_c, 14, 48, 52
17, 526079, Note_on_c, 14, 48, 0
17, 526080, Note_on_c, 14, 48, 52
17, 526319, Note_on_c, 14, 48, 0
17, 526320, Note_on_c, 14, 53, 52
17, 526559, Note_on_c, 14, 53, 0
17, 527280, Note_on_c, 14, 53, 52
17, 527519, Note_on_c, 14, 53, 0
17, 527520, Note_on_c, 14, 53, 52
17, 527759, Note_on_c, 14, 53, 0
17, 527760, Note_on_c, 14, 48, 52
17, 527999, Note_on_c, 14, 48, 0
17, 528720, Note_on_c, 14, 48, 52
17, 528959, Note_on_c, 14, 48, 0
17, 528960, Note_on_c, 14, 48, 52
17, 529199, Note_on_c, 14, 48, 0
17, 529200, Note_on_c, 14, 53, 52
17, 529439, Note_on_c, 14, 53, 0
17, 530160, Note_on_c, 14, 53, 52
17, 530399, Note_on_c, 14, 53, 0
17, 530400, Note_on_c, 14, 53, 52
17, 530639, Note_on_c, 14, 53, 0
17, 530640, Program_c, 14, 48
17, 530640, Control_c, 14, 11, 96
17, 530700, Control_c, 14, 11, 97
17, 530760, Control_c, 14, 11, 99
17, 530820, Control_c, 14, 11, 100
17, 530880, Control_c, 14, 11, 101
17, 530880, Note_on_c, 14, 46, 68
17, 530940, Control_c, 14, 11, 102
17, 531000, Control_c, 14, 11, 104
17, 531060, Control_c, 14, 11, 105
17, 531119, Note_on_c, 14, 46, 0
17, 531120, Control_c, 14, 11, 106
17, 531120, Note_on_c, 14, 48, 68
17, 531180, Control_c, 14, 11, 108
17, 531240, Control_c, 14, 11, 109
17, 531300, Control_c, 14, 11, 110
17, 531359, Note_on_c, 14, 48, 0
17, 531360, Control_c, 14, 11, 112
17, 531360, Note_on_c, 14, 50, 84
17, 531420, Control_c, 14, 11, 113
17, 531480, Control_c, 14, 11, 114
17, 531540, Control_c, 14, 11, 115
17, 531600, Control_c, 14, 11, 117
17, 531660, Control_c, 14, 11, 118
17, 531719, Note_on_c, 14, 50, 0
17, 531720, Control_c, 14, 11, 119
17, 531720, Note_on_c, 14, 48, 68
17, 531780, Control_c, 14, 11, 121
17, 531839, Note_on_c, 14, 48, 0
17, 531840, Note_on_c, 14, 46, 68
17, 531840, Control_c, 14, 11, 122
17, 531900, Control_c, 14, 11, 123
17, 531960, Control_c, 14, 11, 124
17, 532020, Control_c, 14, 11, 127
17, 532064, Note_on_c, 14, 46, 0
17, 532080, Note_on_c, 14, 51, 52
17, 532304, Note_on_c, 14, 51, 0
17, 532320, Note_on_c, 14, 63, 52
17, 532559, Note_on_c, 14, 63, 0
17, 532560, Note_on_c, 14, 65, 52
17, 532799, Note_on_c, 14, 65, 0
17, 532800, Note_on_c, 14, 66, 68
17, 533159, Note_on_c, 14, 66, 0
17, 533160, Note_on_c, 14, 65, 52
17, 533279, Note_on_c, 14, 65, 0
17, 533280, Note_on_c, 14, 63, 52
17, 533504, Note_on_c, 14, 63, 0
17, 533520, Note_on_c, 14, 62, 52
17, 533759, Note_on_c, 14, 62, 0
17, 533760, Note_on_c, 14, 61, 52
17, 533999, Note_on_c, 14, 61, 0
17, 534000, Note_on_c, 14, 60, 52
17, 534239, Note_on_c, 14, 60, 0
17, 534240, Note_on_c, 14, 58, 68
17, 534719, Note_on_c, 14, 58, 0
17, 534720, Note_on_c, 14, 60, 52
17, 534839, Note_on_c, 14, 60, 0
17, 534840, Note_on_c, 14, 62, 52
17, 534944, Note_on_c, 14, 62, 0
17, 534960, Note_on_c, 14, 63, 52
17, 535184, Note_on_c, 14, 63, 0
17, 535200, Note_on_c, 14, 63, 52
17, 535439, Note_on_c, 14, 63, 0
17, 535440, Note_on_c, 14, 65, 52
17, 535679, Note_on_c, 14, 65, 0
17, 535680, Note_on_c, 14, 66, 68
17, 536039, Note_on_c, 14, 66, 0
17, 536040, Note_on_c, 14, 65, 52
17, 536159, Note_on_c, 14, 65, 0
17, 536160, Note_on_c, 14, 63, 52
17, 536384, Note_on_c, 14, 63, 0
17, 536400, Note_on_c, 14, 62, 52
17, 537119, Note_on_c, 14, 62, 0
17, 537120, Note_on_c, 14, 61, 52
17, 537839, Note_on_c, 14, 61, 0
17, 537840, Note_on_c, 14, 60, 52
17, 538559, Note_on_c, 14, 60, 0
17, 538560, Note_on_c, 14, 59, 52
17, 539279, Note_on_c, 14, 59, 0
17, 539280, Note_on_c, 14, 58, 52
17, 539280, Control_c, 14, 11, 127
17, 539472, Control_c, 14, 11, 126
17, 539664, Control_c, 14, 11, 125
17, 539856, Control_c, 14, 11, 124
17, 539969, Note_on_c, 14, 58, 0
17, 540000, Note_on_c, 14, 58, 52
17, 540048, Control_c, 14, 11, 123
17, 540240, Control_c, 14, 11, 122
17, 540432, Control_c, 14, 11, 121
17, 540624, Control_c, 14, 11, 120
17, 540719, Note_on_c, 14, 58, 0
17, 540720, Note_on_c, 14, 57, 52
17, 540816, Control_c, 14, 11, 119
17, 541008, Control_c, 14, 11, 118
17, 541200, Control_c, 14, 11, 117
17, 541392, Control_c, 14, 11, 116
17, 541439, Note_on_c, 14, 57, 0
17, 541440, Note_on_c, 14, 56, 52
17, 541584, Control_c, 14, 11, 115
17, 541776, Control_c, 14, 11, 114
17, 541968, Control_c, 14, 11, 113
17, 542159, Note_on_c, 14, 56, 0
17, 542160, Note_on_c, 14, 56, 52
17, 542369, Note_on_c, 14, 56, 0
17, 542385, Control_c, 14, 11, 127
17, 542400, Note_on_c, 14, 50, 52
17, 542579, Note_on_c, 14, 50, 0
17, 542640, Note_on_c, 14, 46, 52
17, 542819, Note_on_c, 14, 46, 0
17, 542880, Note_on_c, 14, 53, 52
17, 543059, Note_on_c, 14, 53, 0
17, 543120, Note_on_c, 14, 46, 52
17, 543299, Note_on_c, 14, 46, 0
17, 543360, Note_on_c, 14, 58, 52
17, 543539, Note_on_c, 14, 58, 0
17, 543600, Note_on_c, 14, 46, 52
17, 543779, Note_on_c, 14, 46, 0
17, 543840, Note_on_c, 14, 62, 52
17, 544019, Note_on_c, 14, 62, 0
17, 544080, Note_on_c, 14, 46, 52
17, 544259, Note_on_c, 14, 46, 0
17, 544320, Note_on_c, 14, 65, 68
17, 544439, Note_on_c, 14, 65, 0
17, 544440, Note_on_c, 14, 65, 52
17, 545024, Note_on_c, 14, 65, 0
17, 545040, Note_on_c, 14, 46, 52
17, 545219, Note_on_c, 14, 46, 0
17, 545280, Note_on_c, 14, 51, 52
17, 545459, Note_on_c, 14, 51, 0
17, 545520, Note_on_c, 14, 46, 52
17, 545699, Note_on_c, 14, 46, 0
17, 545760, Note_on_c, 14, 54, 52
17, 545939, Note_on_c, 14, 54, 0
17, 546000, Note_on_c, 14, 46, 52
17, 546179, Note_on_c, 14, 46, 0
17, 546240, Note_on_c, 14, 58, 52
17, 546419, Note_on_c, 14, 58, 0
17, 546480, Note_on_c, 14, 46, 52
17, 546659, Note_on_c, 14, 46, 0
17, 546720, Note_on_c, 14, 51, 52
17, 546899, Note_on_c, 14, 51, 0
17, 546960, Note_on_c, 14, 46, 52
17, 547139, Note_on_c, 14, 46, 0
17, 547200, Note_on_c, 14, 54, 68
17, 547319, Note_on_c, 14, 54, 0
17, 547320, Note_on_c, 14, 54, 52
17, 548144, Note_on_c, 14, 54, 0
17, 548160, Note_on_c, 14, 53, 52
17, 548339, Note_on_c, 14, 53, 0
17, 548400, Note_on_c, 14, 46, 52
17, 548579, Note_on_c, 14, 46, 0
17, 548640, Note_on_c, 14, 56, 68
17, 548759, Note_on_c, 14, 56, 0
17, 548760, Note_on_c, 14, 56, 52
17, 549584, Note_on_c, 14, 56, 0
17, 549600, Note_on_c, 14, 55, 52
17, 549779, Note_on_c, 14, 55, 0
17, 549840, Note_on_c, 14, 46, 52
17, 550019, Note_on_c, 14, 46, 0
17, 550080, Note_on_c, 14, 58, 68
17, 550200, Control_c, 14, 11, 96
17, 550800, Control_c, 14, 11, 80
17, 550980, Control_c, 14, 11, 82
17, 551024, Note_on_c, 14, 58, 0
17, 551040, Note_on_c, 14, 57, 68
17, 551160, Control_c, 14, 11, 84
17, 551219, Note_on_c, 14, 57, 0
17, 551280, Note_on_c, 14, 46, 68
17, 551340, Control_c, 14, 11, 86
17, 551459, Note_on_c, 14, 46, 0
17, 551520, Control_c, 14, 11, 88
17, 551520, Note_on_c, 14, 57, 68
17, 551699, Note_on_c, 14, 57, 0
17, 551700, Control_c, 14, 11, 90
17, 551760, Note_on_c, 14, 46, 68
17, 551880, Control_c, 14, 11, 92
17, 551939, Note_on_c, 14, 46, 0
17, 552000, Note_on_c, 14, 57, 68
17, 552060, Control_c, 14, 11, 94
17, 552179, Note_on_c, 14, 57, 0
17, 552240, Control_c, 14, 11, 96
17, 552240, Note_on_c, 14, 46, 68
17, 552419, Note_on_c, 14, 46, 0
17, 552420, Control_c, 14, 11, 98
17, 552480, Note_on_c, 14, 57, 68
17, 552600, Control_c, 14, 11, 100
17, 552659, Note_on_c, 14, 57, 0
17, 552720, Note_on_c, 14, 46, 68
17, 552780, Control_c, 14, 11, 102
17, 552899, Note_on_c, 14, 46, 0
17, 552960, Control_c, 14, 11, 104
17, 552960, Note_on_c, 14, 57, 68
17, 553139, Note_on_c, 14, 57, 0
17, 553140, Control_c, 14, 11, 105
17, 553200, Note_on_c, 14, 46, 68
17, 553320, Control_c, 14, 11, 107
17, 553379, Note_on_c, 14, 46, 0
17, 553440, Note_on_c, 14, 57, 68
17, 553500, Control_c, 14, 11, 109
17, 553619, Note_on_c, 14, 57, 0
17, 553680, Control_c, 14, 11, 111
17, 553680, Note_on_c, 14, 46, 68
17, 553859, Note_on_c, 14, 46, 0
17, 553860, Control_c, 14, 11, 113
17, 553920, Note_on_c, 14, 58, 68
17, 554040, Control_c, 14, 11, 115
17, 554099, Note_on_c, 14, 58, 0
17, 554160, Note_on_c, 14, 46, 68
17, 554220, Control_c, 14, 11, 117
17, 554339, Note_on_c, 14, 46, 0
17, 554400, Control_c, 14, 11, 119
17, 554400, Note_on_c, 14, 58, 68
17, 554579, Note_on_c, 14, 58, 0
17, 554580, Control_c, 14, 11, 121
17, 554640, Note_on_c, 14, 46, 68
17, 554760, Control_c, 14, 11, 123
17, 554819, Note_on_c, 14, 46, 0
17, 554880, Note_on_c, 14, 58, 68
17, 554940, Control_c, 14, 11, 127
17, 555059, Note_on_c, 14, 58, 0
17, 555120, Note_on_c, 14, 47, 68
17, 555120, Control_c, 14, 11, 127
17, 555240, Control_c, 14, 11, 124
17, 555299, Note_on_c, 14, 47, 0
17, 555360, Note_on_c, 14, 59, 68
17, 555360, Control_c, 14, 11, 122
17, 555480, Control_c, 14, 11, 119
17, 555539, Note_on_c, 14, 59, 0
17, 555600, Control_c, 14, 11, 117
17, 555600, Note_on_c, 14, 47, 68
17, 555720, Control_c, 14, 11, 114
17, 555779, Note_on_c, 14, 47, 0
17, 555840, Control_c, 14, 11, 112
17, 555840, Note_on_c, 14, 59, 68
17, 555960, Control_c, 14, 11, 109
17, 556019, Note_on_c, 14, 59, 0
17, 556080, Control_c, 14, 11, 106
17, 556080, Note_on_c, 14, 47, 68
17, 556200, Control_c, 14, 11, 104
17, 556259, Note_on_c, 14, 47, 0
17, 556320, Control_c, 14, 11, 101
17, 556320, Note_on_c, 14, 59, 68
17, 556440, Control_c, 14, 11, 96
17, 556499, Note_on_c, 14, 59, 0
17, 556560, Note_on_c, 14, 48, 68
17, 556739, Note_on_c, 14, 48, 0
17, 556800, Note_on_c, 14, 60, 68
17, 556979, Note_on_c, 14, 60, 0
17, 557040, Note_on_c, 14, 48, 68
17, 557219, Note_on_c, 14, 48, 0
17, 557280, Note_on_c, 14, 60, 68
17, 557459, Note_on_c, 14, 60, 0
17, 557520, Note_on_c, 14, 48, 68
17, 557699, Note_on_c, 14, 48, 0
17, 557760, Note_on_c, 14, 60, 68
17, 557939, Note_on_c, 14, 60, 0
17, 558000, Note_on_c, 14, 44, 68
17, 558179, Note_on_c, 14, 44, 0
17, 558240, Note_on_c, 14, 56, 68
17, 558419, Note_on_c, 14, 56, 0
17, 558480, Note_on_c, 14, 44, 68
17, 558659, Note_on_c, 14, 44, 0
17, 558720, Note_on_c, 14, 56, 68
17, 558899, Note_on_c, 14, 56, 0
17, 558960, Note_on_c, 14, 44, 68
17, 559139, Note_on_c, 14, 44, 0
17, 559200, Note_on_c, 14, 56, 68
17, 559379, Note_on_c, 14, 56, 0
17, 559440, Note_on_c, 14, 46, 68
17, 559440, Control_c, 14, 11, 96
17, 559619, Note_on_c, 14, 46, 0
17, 559620, Control_c, 14, 11, 99
17, 559680, Note_on_c, 14, 58, 68
17, 559800, Control_c, 14, 11, 101
17, 559859, Note_on_c, 14, 58, 0
17, 559920, Note_on_c, 14, 46, 68
17, 559980, Control_c, 14, 11, 104
17, 560099, Note_on_c, 14, 46, 0
17, 560160, Note_on_c, 14, 58, 68
17, 560160, Control_c, 14, 11, 106
17, 560339, Note_on_c, 14, 58, 0
17, 560340, Control_c, 14, 11, 109
17, 560400, Note_on_c, 14, 46, 68
17, 560520, Control_c, 14, 11, 112
17, 560579, Note_on_c, 14, 46, 0
17, 560640, Note_on_c, 14, 58, 68
17, 560700, Control_c, 14, 11, 114
17, 560819, Note_on_c, 14, 58, 0
17, 560880, Note_on_c, 14, 46, 68
17, 560880, Control_c, 14, 11, 117
17, 561059, Note_on_c, 14, 46, 0
17, 561060, Control_c, 14, 11, 119
17, 561120, Note_on_c, 14, 58, 68
17, 561240, Control_c, 14, 11, 122
17, 561299, Note_on_c, 14, 58, 0
17, 561360, Note_on_c, 14, 46, 68
17, 561420, Control_c, 14, 11, 127
17, 561539, Note_on_c, 14, 46, 0
17, 561600, Note_on_c, 14, 58, 52
17, 561779, Note_on_c, 14, 58, 0
17, 561840, Note_on_c, 14, 46, 52
17, 562019, Note_on_c, 14, 46, 0
17, 562080, Note_on_c, 14, 58, 52
17, 562259, Note_on_c, 14, 58, 0
17, 562320, Note_on_c, 14, 51, 52
17, 562499, Note_on_c, 14, 51, 0
17, 563760, Note_on_c, 14, 51, 52
17, 563939, Note_on_c, 14, 51, 0
17, 565200, Note_on_c, 14, 50, 52
17, 565379, Note_on_c, 14, 50, 0
17, 566640, Note_on_c, 14, 46, 52
17, 566819, Note_on_c, 14, 46, 0
17, 567600, Note_on_c, 14, 46, 52
17, 567779, Note_on_c, 14, 46, 0
17, 567840, Note_on_c, 14, 46, 52
17, 568019, Note_on_c, 14, 46, 0
17, 568080, Note_on_c, 14, 51, 52
17, 568199, Note_on_c, 14, 51, 0
17, 568200, Note_on_c, 14, 46, 52
17, 568319, Note_on_c, 14, 46, 0
17, 568320, Note_on_c, 14, 51, 52
17, 568439, Note_on_c, 14, 51, 0
17, 568440, Note_on_c, 14, 46, 52
17, 568559, Note_on_c, 14, 46, 0
17, 568560, Note_on_c, 14, 43, 52
17, 568679, Note_on_c, 14, 43, 0
17, 568680, Note_on_c, 14, 46, 52
17, 568784, Note_on_c, 14, 46, 0
17, 568800, Note_on_c, 14, 43, 52
17, 568919, Note_on_c, 14, 43, 0
17, 568920, Note_on_c, 14, 46, 52
17, 569039, Note_on_c, 14, 46, 0
17, 569040, Note_on_c, 14, 51, 52
17, 569159, Note_on_c, 14, 51, 0
17, 569160, Note_on_c, 14, 46, 52
17, 569279, Note_on_c, 14, 46, 0
17, 569280, Note_on_c, 14, 43, 52
17, 569399, Note_on_c, 14, 43, 0
17, 569400, Note_on_c, 14, 46, 52
17, 569504, Note_on_c, 14, 46, 0
17, 569520, Note_on_c, 14, 43, 52
17, 569639, Note_on_c, 14, 43, 0
17, 569640, Note_on_c, 14, 46, 52
17, 569759, Note_on_c, 14, 46, 0
17, 569760, Note_on_c, 14, 51, 52
17, 569879, Note_on_c, 14, 51, 0
17, 569880, Note_on_c, 14, 46, 52
17, 569999, Note_on_c, 14, 46, 0
17, 570000, Note_on_c, 14, 43, 52
17, 570119, Note_on_c, 14, 43, 0
17, 570120, Note_on_c, 14, 46, 52
17, 570224, Note_on_c, 14, 46, 0
17, 570240, Note_on_c, 14, 43, 52
17, 570359, Note_on_c, 14, 43, 0
17, 570360, Note_on_c, 14, 46, 52
17, 570479, Note_on_c, 14, 46, 0
17, 570480, Note_on_c, 14, 51, 52
17, 570599, Note_on_c, 14, 51, 0
17, 570600, Note_on_c, 14, 46, 52
17, 570719, Note_on_c, 14, 46, 0
17, 570720, Note_on_c, 14, 43, 52
17, 570839, Note_on_c, 14, 43, 0
17, 570840, Note_on_c, 14, 46, 52
17, 570944, Note_on_c, 14, 46, 0
17, 570960, Note_on_c, 14, 44, 52
17, 571079, Note_on_c, 14, 44, 0
17, 571080, Note_on_c, 14, 46, 52
17, 571199, Note_on_c, 14, 46, 0
17, 571200, Note_on_c, 14, 53, 52
17, 571319, Note_on_c, 14, 53, 0
17, 571320, Note_on_c, 14, 46, 52
17, 571439, Note_on_c, 14, 46, 0
17, 571440, Note_on_c, 14, 44, 52
17, 571559, Note_on_c, 14, 44, 0
17, 571560, Note_on_c, 14, 46, 52
17, 571664, Note_on_c, 14, 46, 0
17, 571680, Note_on_c, 14, 44, 52
17, 571799, Note_on_c, 14, 44, 0
17, 571800, Note_on_c, 14, 46, 52
17, 571919, Note_on_c, 14, 46, 0
17, 571920, Note_on_c, 14, 53, 52
17, 572039, Note_on_c, 14, 53, 0
17, 572040, Note_on_c, 14, 46, 52
17, 572159, Note_on_c, 14, 46, 0
17, 572160, Note_on_c, 14, 44, 52
17, 572279, Note_on_c, 14, 44, 0
17, 572280, Note_on_c, 14, 46, 52
17, 572384, Note_on_c, 14, 46, 0
17, 572400, Note_on_c, 14, 44, 52
17, 572519, Note_on_c, 14, 44, 0
17, 572520, Note_on_c, 14, 46, 52
17, 572639, Note_on_c, 14, 46, 0
17, 572640, Note_on_c, 14, 50, 52
17, 572759, Note_on_c, 14, 50, 0
17, 572760, Note_on_c, 14, 46, 52
17, 572879, Note_on_c, 14, 46, 0
17, 572880, Note_on_c, 14, 44, 52
17, 572999, Note_on_c, 14, 44, 0
17, 573000, Note_on_c, 14, 46, 52
17, 573104, Note_on_c, 14, 46, 0
17, 573120, Note_on_c, 14, 44, 52
17, 573239, Note_on_c, 14, 44, 0
17, 573240, Note_on_c, 14, 46, 52
17, 573359, Note_on_c, 14, 46, 0
17, 573360, Note_on_c, 14, 50, 52
17, 573479, Note_on_c, 14, 50, 0
17, 573480, Note_on_c, 14, 46, 52
17, 573599, Note_on_c, 14, 46, 0
17, 573600, Note_on_c, 14, 44, 52
17, 573719, Note_on_c, 14, 44, 0
17, 573720, Note_on_c, 14, 46, 52
17, 573809, Note_on_c, 14, 46, 0
17, 573825, Control_c, 14, 11, 80
17, 573840, Note_on_c, 14, 51, 76
17, 573840, Control_c, 14, 11, 80
17, 574000, Control_c, 14, 11, 81
17, 574160, Control_c, 14, 11, 83
17, 574319, Note_on_c, 14, 51, 0
17, 574320, Note_on_c, 14, 55, 76
17, 574320, Control_c, 14, 11, 84
17, 574480, Control_c, 14, 11, 85
17, 574559, Note_on_c, 14, 55, 0
17, 574560, Note_on_c, 14, 51, 76
17, 574640, Control_c, 14, 11, 87
17, 574800, Control_c, 14, 11, 88
17, 574960, Control_c, 14, 11, 89
17, 575039, Note_on_c, 14, 51, 0
17, 575040, Note_on_c, 14, 46, 76
17, 575120, Control_c, 14, 11, 90
17, 575264, Note_on_c, 14, 46, 0
17, 575280, Note_on_c, 14, 51, 76
17, 575280, Control_c, 14, 11, 92
17, 575440, Control_c, 14, 11, 93
17, 575519, Note_on_c, 14, 51, 0
17, 575520, Note_on_c, 14, 55, 76
17, 575600, Control_c, 14, 11, 94
17, 575744, Note_on_c, 14, 55, 0
17, 575760, Note_on_c, 14, 58, 76
17, 575760, Control_c, 14, 11, 96
17, 575920, Control_c, 14, 11, 97
17, 575984, Note_on_c, 14, 58, 0
17, 576000, Note_on_c, 14, 58, 76
17, 576080, Control_c, 14, 11, 98
17, 576240, Control_c, 14, 11, 100
17, 576400, Control_c, 14, 11, 101
17, 576560, Control_c, 14, 11, 102
17, 576704, Note_on_c, 14, 58, 0
17, 576720, Control_c, 14, 11, 104
17, 576720, Note_on_c, 14, 53, 76
17, 576880, Control_c, 14, 11, 105
17, 577040, Control_c, 14, 11, 106
17, 577199, Note_on_c, 14, 53, 0
17, 577200, Note_on_c, 14, 56, 76
17, 577200, Control_c, 14, 11, 107
17, 577360, Control_c, 14, 11, 109
17, 577439, Note_on_c, 14, 56, 0
17, 577440, Note_on_c, 14, 53, 76
17, 577520, Control_c, 14, 11, 110
17, 577680, Control_c, 14, 11, 111
17, 577840, Control_c, 14, 11, 113
17, 577919, Note_on_c, 14, 53, 0
17, 577920, Note_on_c, 14, 46, 76
17, 578000, Control_c, 14, 11, 114
17, 578144, Note_on_c, 14, 46, 0
17, 578160, Note_on_c, 14, 53, 76
17, 578160, Control_c, 14, 11, 115
17, 578320, Control_c, 14, 11, 117
17, 578399, Note_on_c, 14, 53, 0
17, 578400, Note_on_c, 14, 56, 76
17, 578480, Control_c, 14, 11, 118
17, 578624, Note_on_c, 14, 56, 0
17, 578640, Control_c, 14, 11, 119
17, 578640, Note_on_c, 14, 58, 76
17, 578800, Control_c, 14, 11, 120
17, 578819, Note_on_c, 14, 58, 0
17, 578880, Note_on_c, 14, 58, 76
17, 578960, Control_c, 14, 11, 122
17, 579120, Control_c, 14, 11, 123
17, 579280, Control_c, 14, 11, 124
17, 579440, Control_c, 14, 11, 127
17, 579704, Note_on_c, 14, 58, 0
17, 579720, Note_on_c, 14, 51, 76
17, 579779, Note_on_c, 14, 51, 0
17, 579780, Note_on_c, 14, 53, 76
17, 579839, Note_on_c, 14, 53, 0
17, 579840, Note_on_c, 14, 55, 76
17, 579929, Note_on_c, 14, 55, 0
17, 579960, Note_on_c, 14, 55, 76
17, 580019, Note_on_c, 14, 55, 0
17, 580020, Note_on_c, 14, 56, 76
17, 580079, Note_on_c, 14, 56, 0
17, 580080, Note_on_c, 14, 58, 76
17, 580169, Note_on_c, 14, 58, 0
17, 580200, Note_on_c, 14, 60, 76
17, 580259, Note_on_c, 14, 60, 0
17, 580260, Note_on_c, 14, 62, 76
17, 580319, Note_on_c, 14, 62, 0
17, 580320, Note_on_c, 14, 63, 76
17, 580409, Note_on_c, 14, 63, 0
17, 580440, Note_on_c, 14, 55, 76
17, 580499, Note_on_c, 14, 55, 0
17, 580500, Note_on_c, 14, 56, 76
17, 580559, Note_on_c, 14, 56, 0
17, 580560, Note_on_c, 14, 58, 76
17, 580649, Note_on_c, 14, 58, 0
17, 580680, Note_on_c, 14, 58, 76
17, 580739, Note_on_c, 14, 58, 0
17, 580740, Note_on_c, 14, 60, 76
17, 580799, Note_on_c, 14, 60, 0
17, 580800, Note_on_c, 14, 62, 76
17, 580889, Note_on_c, 14, 62, 0
17, 580920, Note_on_c, 14, 63, 76
17, 580979, Note_on_c, 14, 63, 0
17, 580980, Note_on_c, 14, 65, 76
17, 581039, Note_on_c, 14, 65, 0
17, 581040, Note_on_c, 14, 67, 84
17, 581129, Note_on_c, 14, 67, 0
17, 581160, Note_on_c, 14, 65, 76
17, 581249, Note_on_c, 14, 65, 0
17, 581280, Note_on_c, 14, 63, 76
17, 581369, Note_on_c, 14, 63, 0
17, 581400, Note_on_c, 14, 62, 76
17, 581489, Note_on_c, 14, 62, 0
17, 581520, Note_on_c, 14, 60, 76
17, 581609, Note_on_c, 14, 60, 0
17, 581640, Note_on_c, 14, 58, 76
17, 581729, Note_on_c, 14, 58, 0
17, 581760, Note_on_c, 14, 56, 76
17, 581849, Note_on_c, 14, 56, 0
17, 581880, Note_on_c, 14, 55, 76
17, 581969, Note_on_c, 14, 55, 0
17, 582000, Note_on_c, 14, 53, 76
17, 582089, Note_on_c, 14, 53, 0
17, 582120, Note_on_c, 14, 51, 76
17, 582209, Note_on_c, 14, 51, 0
17, 582240, Note_on_c, 14, 50, 76
17, 582329, Note_on_c, 14, 50, 0
17, 582360, Note_on_c, 14, 48, 76
17, 582449, Note_on_c, 14, 48, 0
17, 582480, Note_on_c, 14, 46, 76
17, 582569, Note_on_c, 14, 46, 0
17, 582600, Note_on_c, 14, 46, 76
17, 582659, Note_on_c, 14, 46, 0
17, 582660, Note_on_c, 14, 48, 76
17, 582719, Note_on_c, 14, 48, 0
17, 582720, Note_on_c, 14, 50, 76
17, 582809, Note_on_c, 14, 50, 0
17, 582840, Note_on_c, 14, 50, 76
17, 582899, Note_on_c, 14, 50, 0
17, 582900, Note_on_c, 14, 51, 76
17, 582959, Note_on_c, 14, 51, 0
17, 582960, Note_on_c, 14, 53, 76
17, 583049, Note_on_c, 14, 53, 0
17, 583080, Note_on_c, 14, 53, 76
17, 583139, Note_on_c, 14, 53, 0
17, 583140, Note_on_c, 14, 55, 76
17, 583199, Note_on_c, 14, 55, 0
17, 583200, Note_on_c, 14, 56, 76
17, 583289, Note_on_c, 14, 56, 0
17, 583320, Note_on_c, 14, 50, 76
17, 583379, Note_on_c, 14, 50, 0
17, 583380, Note_on_c, 14, 51, 76
17, 583439, Note_on_c, 14, 51, 0
17, 583440, Note_on_c, 14, 53, 76
17, 583529, Note_on_c, 14, 53, 0
17, 583560, Note_on_c, 14, 53, 76
17, 583619, Note_on_c, 14, 53, 0
17, 583620, Note_on_c, 14, 55, 76
17, 583679, Note_on_c, 14, 55, 0
17, 583680, Note_on_c, 14, 56, 76
17, 583769, Note_on_c, 14, 56, 0
17, 583800, Note_on_c, 14, 56, 76
17, 583859, Note_on_c, 14, 56, 0
17, 583860, Note_on_c, 14, 58, 76
17, 583919, Note_on_c, 14, 58, 0
17, 583920, Note_on_c, 14, 60, 84
17, 584009, Note_on_c, 14, 60, 0
17, 584040, Note_on_c, 14, 58, 76
17, 584129, Note_on_c, 14, 58, 0
17, 584160, Note_on_c, 14, 56, 76
17, 584249, Note_on_c, 14, 56, 0
17, 584280, Note_on_c, 14, 55, 76
17, 584369, Note_on_c, 14, 55, 0
17, 584400, Note_on_c, 14, 53, 76
17, 584489, Note_on_c, 14, 53, 0
17, 584520, Note_on_c, 14, 51, 76
17, 584609, Note_on_c, 14, 51, 0
17, 584640, Note_on_c, 14, 50, 76
17, 584729, Note_on_c, 14, 50, 0
17, 584760, Note_on_c, 14, 48, 76
17, 584849, Note_on_c, 14, 48, 0
17, 584880, Note_on_c, 14, 46, 76
17, 584969, Note_on_c, 14, 46, 0
17, 585000, Note_on_c, 14, 44, 76
17, 585089, Note_on_c, 14, 44, 0
17, 585120, Note_on_c, 14, 43, 76
17, 585209, Note_on_c, 14, 43, 0
17, 585240, Note_on_c, 14, 41, 76
17, 585329, Note_on_c, 14, 41, 0
17, 585360, Note_on_c, 14, 43, 76
17, 585464, Note_on_c, 14, 43, 0
17, 585480, Note_on_c, 14, 43, 76
17, 585584, Note_on_c, 14, 43, 0
17, 585600, Note_on_c, 14, 46, 76
17, 585704, Note_on_c, 14, 46, 0
17, 585720, Note_on_c, 14, 46, 76
17, 585824, Note_on_c, 14, 46, 0
17, 585840, Note_on_c, 14, 49, 76
17, 585944, Note_on_c, 14, 49, 0
17, 585960, Note_on_c, 14, 49, 76
17, 586064, Note_on_c, 14, 49, 0
17, 586080, Note_on_c, 14, 49, 84
17, 586769, Note_on_c, 14, 49, 0
17, 586800, Note_on_c, 14, 44, 84
17, 587129, Note_on_c, 14, 44, 0
17, 587160, Note_on_c, 14, 44, 76
17, 587249, Note_on_c, 14, 44, 0
17, 587280, Note_on_c, 14, 48, 76
17, 587369, Note_on_c, 14, 48, 0
17, 587400, Note_on_c, 14, 53, 76
17, 587489, Note_on_c, 14, 53, 0
17, 587520, Note_on_c, 14, 45, 84
17, 587849, Note_on_c, 14, 45, 0
17, 587880, Note_on_c, 14, 45, 76
17, 587969, Note_on_c, 14, 45, 0
17, 588000, Note_on_c, 14, 48, 76
17, 588089, Note_on_c, 14, 48, 0
17, 588120, Note_on_c, 14, 51, 76
17, 588209, Note_on_c, 14, 51, 0
17, 588240, Note_on_c, 14, 46, 84
17, 588569, Note_on_c, 14, 46, 0
17, 588600, Note_on_c, 14, 46, 76
17, 588689, Note_on_c, 14, 46, 0
17, 588720, Note_on_c, 14, 51, 76
17, 588809, Note_on_c, 14, 51, 0
17, 588840, Note_on_c, 14, 55, 76
17, 588929, Note_on_c, 14, 55, 0
17, 588960, Note_on_c, 14, 47, 76
17, 589064, Note_on_c, 14, 47, 0
17, 589080, Note_on_c, 14, 50, 76
17, 589184, Note_on_c, 14, 50, 0
17, 589200, Note_on_c, 14, 53, 76
17, 589304, Note_on_c, 14, 53, 0
17, 589320, Note_on_c, 14, 47, 76
17, 589424, Note_on_c, 14, 47, 0
17, 589440, Note_on_c, 14, 50, 76
17, 589544, Note_on_c, 14, 50, 0
17, 589560, Note_on_c, 14, 53, 76
17, 589664, Note_on_c, 14, 53, 0
17, 589680, Note_on_c, 14, 48, 76
17, 589784, Note_on_c, 14, 48, 0
17, 589800, Note_on_c, 14, 51, 76
17, 589904, Note_on_c, 14, 51, 0
17, 589920, Note_on_c, 14, 55, 76
17, 590024, Note_on_c, 14, 55, 0
17, 590040, Note_on_c, 14, 48, 76
17, 590144, Note_on_c, 14, 48, 0
17, 590160, Note_on_c, 14, 51, 76
17, 590264, Note_on_c, 14, 51, 0
17, 590280, Note_on_c, 14, 55, 76
17, 590384, Note_on_c, 14, 55, 0
17, 590400, Note_on_c, 14, 44, 76
17, 590504, Note_on_c, 14, 44, 0
17, 590520, Note_on_c, 14, 48, 76
17, 590624, Note_on_c, 14, 48, 0
17, 590640, Note_on_c, 14, 53, 76
17, 590744, Note_on_c, 14, 53, 0
17, 590760, Note_on_c, 14, 44, 76
17, 590864, Note_on_c, 14, 44, 0
17, 590880, Note_on_c, 14, 48, 76
17, 590984, Note_on_c, 14, 48, 0
17, 591000, Note_on_c, 14, 53, 76
17, 591104, Note_on_c, 14, 53, 0
17, 591120, Note_on_c, 14, 46, 84
17, 591224, Note_on_c, 14, 46, 0
17, 591240, Note_on_c, 14, 51, 84
17, 591344, Note_on_c, 14, 51, 0
17, 591360, Note_on_c, 14, 55, 84
17, 591464, Note_on_c, 14, 55, 0
17, 591480, Note_on_c, 14, 46, 84
17, 591584, Note_on_c, 14, 46, 0
17, 591600, Note_on_c, 14, 51, 84
17, 591704, Note_on_c, 14, 51, 0
17, 591720, Note_on_c, 14, 55, 84
17, 591824, Note_on_c, 14, 55, 0
17, 591840, Note_on_c, 14, 58, 84
17, 591944, Note_on_c, 14, 58, 0
17, 591960, Note_on_c, 14, 46, 84
17, 592064, Note_on_c, 14, 46, 0
17, 592080, Note_on_c, 14, 46, 84
17, 592184, Note_on_c, 14, 46, 0
17, 592200, Note_on_c, 14, 46, 84
17, 592304, Note_on_c, 14, 46, 0
17, 592320, Note_on_c, 14, 46, 84
17, 592424, Note_on_c, 14, 46, 0
17, 592440, Note_on_c, 14, 46, 84
17, 592529, Note_on_c, 14, 46, 0
17, 592545, Control_c, 14, 11, 96
17, 592560, Note_on_c, 14, 63, 68
17, 592560, Control_c, 14, 11, 96
17, 592590, Control_c, 14, 11, 97
17, 592620, Control_c, 14, 11, 99
17, 592650, Control_c, 14, 11, 100
17, 592680, Control_c, 14, 11, 101
17, 592710, Control_c, 14, 11, 102
17, 592740, Control_c, 14, 11, 104
17, 592770, Control_c, 14, 11, 105
17, 592800, Control_c, 14, 11, 106
17, 592830, Control_c, 14, 11, 108
17, 592860, Control_c, 14, 11, 109
17, 592890, Control_c, 14, 11, 110
17, 592920, Control_c, 14, 11, 112
17, 592950, Control_c, 14, 11, 113
17, 592980, Control_c, 14, 11, 114
17, 593010, Control_c, 14, 11, 115
17, 593039, Note_on_c, 14, 63, 0
17, 593040, Note_on_c, 14, 62, 68
17, 593040, Control_c, 14, 11, 117
17, 593070, Control_c, 14, 11, 118
17, 593100, Control_c, 14, 11, 119
17, 593130, Control_c, 14, 11, 121
17, 593159, Note_on_c, 14, 62, 0
17, 593160, Control_c, 14, 11, 122
17, 593160, Note_on_c, 14, 61, 68
17, 593190, Control_c, 14, 11, 123
17, 593220, Control_c, 14, 11, 124
17, 593250, Control_c, 14, 11, 126
17, 593279, Note_on_c, 14, 61, 0
17, 593280, Note_on_c, 14, 60, 68
17, 593280, Control_c, 14, 11, 127
17, 593310, Control_c, 14, 11, 126
17, 593340, Control_c, 14, 11, 124
17, 593370, Control_c, 14, 11, 123
17, 593400, Control_c, 14, 11, 122
17, 593430, Control_c, 14, 11, 121
17, 593460, Control_c, 14, 11, 119
17, 593490, Control_c, 14, 11, 118
17, 593519, Note_on_c, 14, 60, 0
17, 593520, Note_on_c, 14, 58, 68
17, 593520, Control_c, 14, 11, 117
17, 593550, Control_c, 14, 11, 115
17, 593580, Control_c, 14, 11, 114
17, 593610, Control_c, 14, 11, 113
17, 593640, Control_c, 14, 11, 112
17, 593670, Control_c, 14, 11, 110
17, 593700, Control_c, 14, 11, 109
17, 593730, Control_c, 14, 11, 108
17, 593759, Note_on_c, 14, 58, 0
17, 593760, Control_c, 14, 11, 106
17, 593760, Note_on_c, 14, 56, 68
17, 593790, Control_c, 14, 11, 105
17, 593820, Control_c, 14, 11, 104
17, 593850, Control_c, 14, 11, 102
17, 593880, Control_c, 14, 11, 101
17, 593910, Control_c, 14, 11, 100
17, 593940, Control_c, 14, 11, 99
17, 593970, Control_c, 14, 11, 96
17, 593984, Note_on_c, 14, 56, 0
17, 594000, Note_on_c, 14, 55, 68
17, 594119, Note_on_c, 14, 55, 0
17, 594120, Note_on_c, 14, 58, 68
17, 594224, Note_on_c, 14, 58, 0
17, 594240, Note_on_c, 14, 56, 68
17, 594329, Note_on_c, 14, 56, 0
17, 594360, Note_on_c, 14, 55, 68
17, 594449, Note_on_c, 14, 55, 0
17, 594480, Note_on_c, 14, 53, 68
17, 594569, Note_on_c, 14, 53, 0
17, 594600, Note_on_c, 14, 51, 68
17, 594689, Note_on_c, 14, 51, 0
17, 594720, Note_on_c, 14, 50, 68
17, 594809, Note_on_c, 14, 50, 0
17, 594840, Note_on_c, 14, 51, 68
17, 594929, Note_on_c, 14, 51, 0
17, 594960, Note_on_c, 14, 53, 68
17, 595049, Note_on_c, 14, 53, 0
17, 595080, Note_on_c, 14, 46, 68
17, 595169, Note_on_c, 14, 46, 0
17, 595200, Note_on_c, 14, 48, 68
17, 595289, Note_on_c, 14, 48, 0
17, 595320, Note_on_c, 14, 50, 68
17, 595409, Note_on_c, 14, 50, 0
17, 595425, Control_c, 14, 11, 80
17, 595440, Note_on_c, 14, 51, 76
17, 595440, Control_c, 14, 11, 80
17, 595529, Note_on_c, 14, 51, 0
17, 595560, Control_c, 14, 11, 82
17, 595560, Note_on_c, 14, 63, 76
17, 595649, Note_on_c, 14, 63, 0
17, 595680, Control_c, 14, 11, 84
17, 595680, Note_on_c, 14, 63, 76
17, 595769, Note_on_c, 14, 63, 0
17, 595800, Note_on_c, 14, 63, 76
17, 595800, Control_c, 14, 11, 86
17, 595889, Note_on_c, 14, 63, 0
17, 595920, Control_c, 14, 11, 88
17, 595920, Note_on_c, 14, 62, 76
17, 596009, Note_on_c, 14, 62, 0
17, 596040, Control_c, 14, 11, 90
17, 596040, Note_on_c, 14, 61, 76
17, 596129, Note_on_c, 14, 61, 0
17, 596160, Note_on_c, 14, 60, 76
17, 596160, Control_c, 14, 11, 92
17, 596249, Note_on_c, 14, 60, 0
17, 596280, Control_c, 14, 11, 94
17, 596280, Note_on_c, 14, 58, 76
17, 596369, Note_on_c, 14, 58, 0
17, 596400, Control_c, 14, 11, 96
17, 596400, Note_on_c, 14, 56, 76
17, 596489, Note_on_c, 14, 56, 0
17, 596520, Note_on_c, 14, 60, 76
17, 596520, Control_c, 14, 11, 98
17, 596609, Note_on_c, 14, 60, 0
17, 596640, Control_c, 14, 11, 100
17, 596640, Note_on_c, 14, 58, 76
17, 596729, Note_on_c, 14, 58, 0
17, 596760, Control_c, 14, 11, 102
17, 596760, Note_on_c, 14, 56, 76
17, 596849, Note_on_c, 14, 56, 0
17, 596880, Note_on_c, 14, 55, 76
17, 596880, Control_c, 14, 11, 104
17, 596969, Note_on_c, 14, 55, 0
17, 597000, Control_c, 14, 11, 105
17, 597000, Note_on_c, 14, 58, 76
17, 597089, Note_on_c, 14, 58, 0
17, 597120, Control_c, 14, 11, 107
17, 597120, Note_on_c, 14, 56, 76
17, 597209, Note_on_c, 14, 56, 0
17, 597240, Note_on_c, 14, 55, 76
17, 597240, Control_c, 14, 11, 109
17, 597329, Note_on_c, 14, 55, 0
17, 597360, Control_c, 14, 11, 111
17, 597360, Note_on_c, 14, 53, 76
17, 597449, Note_on_c, 14, 53, 0
17, 597480, Control_c, 14, 11, 113
17, 597480, Note_on_c, 14, 51, 76
17, 597569, Note_on_c, 14, 51, 0
17, 597600, Note_on_c, 14, 50, 76
17, 597600, Control_c, 14, 11, 115
17, 597689, Note_on_c, 14, 50, 0
17, 597720, Control_c, 14, 11, 117
17, 597720, Note_on_c, 14, 51, 76
17, 597809, Note_on_c, 14, 51, 0
17, 597840, Control_c, 14, 11, 119
17, 597840, Note_on_c, 14, 53, 76
17, 597929, Note_on_c, 14, 53, 0
17, 597960, Note_on_c, 14, 51, 76
17, 597960, Control_c, 14, 11, 121
17, 598049, Note_on_c, 14, 51, 0
17, 598080, Control_c, 14, 11, 123
17, 598080, Note_on_c, 14, 50, 76
17, 598169, Note_on_c, 14, 50, 0
17, 598200, Control_c, 14, 11, 127
17, 598200, Note_on_c, 14, 48, 76
17, 598289, Note_on_c, 14, 48, 0
17, 598320, Note_on_c, 14, 46, 76
17, 598544, Note_on_c, 14, 46, 0
17, 598560, Note_on_c, 14, 58, 76
17, 599264, Note_on_c, 14, 58, 0
17, 599280, Note_on_c, 14, 58, 76
17, 599984, Note_on_c, 14, 58, 0
17, 600000, Note_on_c, 14, 58, 76
17, 600464, Note_on_c, 14, 58, 0
17, 600480, Note_on_c, 14, 58, 76
17, 600944, Note_on_c, 14, 58, 0
17, 600960, Note_on_c, 14, 58, 76
17, 601139, Note_on_c, 14, 58, 0
17, 601200, Note_on_c, 14, 58, 76
17, 601379, Note_on_c, 14, 58, 0
17, 601440, Note_on_c, 14, 46, 84
17, 601619, Note_on_c, 14, 46, 0
17, 601680, Note_on_c, 14, 46, 84
17, 601859, Note_on_c, 14, 46, 0
17, 601920, Note_on_c, 14, 46, 84
17, 602099, Note_on_c, 14, 46, 0
17, 602160, Note_on_c, 14, 46, 84
17, 602339, Note_on_c, 14, 46, 0
17, 602400, Note_on_c, 14, 46, 84
17, 602579, Note_on_c, 14, 46, 0
17, 602640, Note_on_c, 14, 46, 84
17, 602819, Note_on_c, 14, 46, 0
17, 602880, Note_on_c, 14, 46, 84
17, 603059, Note_on_c, 14, 46, 0
17, 603120, Note_on_c, 14, 46, 84
17, 603299, Note_on_c, 14, 46, 0
17, 603360, Note_on_c, 14, 46, 84
17, 603539, Note_on_c, 14, 46, 0
17, 603600, Note_on_c, 14, 46, 84
17, 603779, Note_on_c, 14, 46, 0
17, 603840, Note_on_c, 14, 46, 84
17, 604019, Note_on_c, 14, 46, 0
17, 604080, Note_on_c, 14, 51, 84
17, 604319, Note_on_c, 14, 51, 0
17, 604800, Note_on_c, 14, 63, 84
17, 605039, Note_on_c, 14, 63, 0
17, 605520, Note_on_c, 14, 51, 84
17, 605759, Note_on_c, 14, 51, 0
17, 605759, End_track
18, 0, Start_track
18, 0, Title_t, "Contrabass"
18, 0, MIDI_port, 0
18, 0, Program_c, 15, 48
18, 0, Control_c, 15, 7, 88
18, 0, Control_c, 15, 10, 100
18, 0, Control_c, 15, 11, 127
18, 0, Note_on_c, 15, 39, 76
18, 179, Note_on_c, 15, 39, 0
18, 720, Note_on_c, 15, 39, 76
18, 899, Note_on_c, 15, 39, 0
18, 10080, Note_on_c, 15, 39, 52
18, 10319, Note_on_c, 15, 39, 0
18, 12720, Note_on_c, 15, 36, 52
18, 12959, Note_on_c, 15, 36, 0
18, 12960, Note_on_c, 15, 41, 52
18, 13199, Note_on_c, 15, 41, 0
18, 13200, Note_on_c, 15, 44, 52
18, 13439, Note_on_c, 15, 44, 0
18, 13440, Note_on_c, 15, 48, 52
18, 13664, Note_on_c, 15, 48, 0
18, 13680, Note_on_c, 15, 41, 52
18, 13919, Note_on_c, 15, 41, 0
18, 15300, Control_c, 15, 11, 92
18, 15360, Control_c, 15, 11, 96
18, 15360, Note_on_c, 15, 36, 76
18, 15420, Control_c, 15, 11, 100
18, 15480, Control_c, 15, 11, 104
18, 15540, Control_c, 15, 11, 107
18, 15599, Note_on_c, 15, 36, 0
18, 15600, Control_c, 15, 11, 111
18, 15600, Note_on_c, 15, 35, 76
18, 15660, Control_c, 15, 11, 115
18, 15720, Control_c, 15, 11, 119
18, 15780, Control_c, 15, 11, 123
18, 15824, Note_on_c, 15, 35, 0
18, 15840, Note_on_c, 15, 34, 76
18, 15840, Control_c, 15, 11, 127
18, 15960, Control_c, 15, 11, 80
18, 17024, Note_on_c, 15, 34, 0
18, 17040, Note_on_c, 15, 34, 76
18, 17489, Note_on_c, 15, 34, 0
18, 17505, Control_c, 15, 11, 127
18, 17520, Note_on_c, 15, 34, 76
18, 17969, Note_on_c, 15, 34, 0
18, 18000, Note_on_c, 15, 34, 76
18, 18449, Note_on_c, 15, 34, 0
18, 18480, Note_on_c, 15, 34, 76
18, 18689, Note_on_c, 15, 34, 0
18, 18720, Note_on_c, 15, 34, 76
18, 18840, Control_c, 15, 11, 80
18, 19889, Note_on_c, 15, 34, 0
18, 19905, Control_c, 15, 11, 127
18, 19920, Note_on_c, 15, 34, 76
18, 20159, Note_on_c, 15, 34, 0
18, 20160, Note_on_c, 15, 32, 52
18, 20339, Note_on_c, 15, 32, 0
18, 20400, Note_on_c, 15, 44, 76
18, 20849, Note_on_c, 15, 44, 0
18, 20880, Note_on_c, 15, 44, 76
18, 21329, Note_on_c, 15, 44, 0
18, 21360, Note_on_c, 15, 44, 76
18, 21809, Note_on_c, 15, 44, 0
18, 21840, Note_on_c, 15, 43, 76
18, 22289, Note_on_c, 15, 43, 0
18, 22320, Note_on_c, 15, 43, 76
18, 22769, Note_on_c, 15, 43, 0
18, 22800, Note_on_c, 15, 43, 76
18, 23249, Note_on_c, 15, 43, 0
18, 23280, Note_on_c, 15, 44, 52
18, 23459, Note_on_c, 15, 44, 0
18, 23520, Note_on_c, 15, 44, 76
18, 23969, Note_on_c, 15, 44, 0
18, 24000, Note_on_c, 15, 43, 52
18, 24179, Note_on_c, 15, 43, 0
18, 24240, Note_on_c, 15, 43, 76
18, 24449, Note_on_c, 15, 43, 0
18, 24480, Note_on_c, 15, 41, 52
18, 24584, Note_on_c, 15, 41, 0
18, 24600, Note_on_c, 15, 41, 54
18, 24689, Note_on_c, 15, 41, 0
18, 24720, Note_on_c, 15, 41, 57
18, 24809, Note_on_c, 15, 41, 0
18, 24840, Note_on_c, 15, 41, 60
18, 24929, Note_on_c, 15, 41, 0
18, 24960, Note_on_c, 15, 41, 62
18, 25049, Note_on_c, 15, 41, 0
18, 25080, Note_on_c, 15, 41, 65
18, 25169, Note_on_c, 15, 41, 0
18, 25200, Note_on_c, 15, 34, 68
18, 25304, Note_on_c, 15, 34, 0
18, 25320, Note_on_c, 15, 46, 70
18, 25424, Note_on_c, 15, 46, 0
18, 25440, Note_on_c, 15, 46, 73
18, 25544, Note_on_c, 15, 46, 0
18, 25560, Note_on_c, 15, 46, 76
18, 25664, Note_on_c, 15, 46, 0
18, 25680, Note_on_c, 15, 46, 78
18, 25784, Note_on_c, 15, 46, 0
18, 25800, Note_on_c, 15, 46, 81
18, 25904, Note_on_c, 15, 46, 0
18, 25920, Note_on_c, 15, 39, 84
18, 26399, Note_on_c, 15, 39, 0
18, 26400, Note_on_c, 15, 43, 84
18, 26639, Note_on_c, 15, 43, 0
18, 26640, Note_on_c, 15, 39, 84
18, 27119, Note_on_c, 15, 39, 0
18, 27120, Note_on_c, 15, 34, 84
18, 27344, Note_on_c, 15, 34, 0
18, 27360, Note_on_c, 15, 39, 84
18, 27599, Note_on_c, 15, 39, 0
18, 27600, Note_on_c, 15, 43, 84
18, 27839, Note_on_c, 15, 43, 0
18, 27840, Note_on_c, 15, 46, 84
18, 28064, Note_on_c, 15, 46, 0
18, 28080, Note_on_c, 15, 39, 84
18, 28544, Note_on_c, 15, 39, 0
18, 28560, Note_on_c, 15, 31, 92
18, 28784, Note_on_c, 15, 31, 0
18, 28800, Note_on_c, 15, 36, 84
18, 29039, Note_on_c, 15, 36, 0
18, 29040, Note_on_c, 15, 39, 84
18, 29279, Note_on_c, 15, 39, 0
18, 29280, Note_on_c, 15, 43, 84
18, 29504, Note_on_c, 15, 43, 0
18, 29520, Note_on_c, 15, 36, 84
18, 29984, Note_on_c, 15, 36, 0
18, 30000, Note_on_c, 15, 27, 92
18, 30224, Note_on_c, 15, 27, 0
18, 30240, Note_on_c, 15, 32, 84
18, 30344, Note_on_c, 15, 32, 0
18, 30360, Note_on_c, 15, 44, 84
18, 30464, Note_on_c, 15, 44, 0
18, 30480, Note_on_c, 15, 44, 84
18, 30584, Note_on_c, 15, 44, 0
18, 30600, Note_on_c, 15, 44, 84
18, 30704, Note_on_c, 15, 44, 0
18, 30720, Note_on_c, 15, 44, 84
18, 30824, Note_on_c, 15, 44, 0
18, 30840, Note_on_c, 15, 44, 84
18, 30944, Note_on_c, 15, 44, 0
18, 30960, Note_on_c, 15, 42, 84
18, 31064, Note_on_c, 15, 42, 0
18, 31080, Note_on_c, 15, 42, 84
18, 31184, Note_on_c, 15, 42, 0
18, 31200, Note_on_c, 15, 42, 84
18, 31304, Note_on_c, 15, 42, 0
18, 31320, Note_on_c, 15, 42, 84
18, 31424, Note_on_c, 15, 42, 0
18, 31440, Note_on_c, 15, 42, 84
18, 31544, Note_on_c, 15, 42, 0
18, 31560, Note_on_c, 15, 42, 84
18, 31664, Note_on_c, 15, 42, 0
18, 31680, Note_on_c, 15, 41, 84
18, 31919, Note_on_c, 15, 41, 0
18, 33120, Note_on_c, 15, 29, 52
18, 33299, Note_on_c, 15, 29, 0
18, 33360, Note_on_c, 15, 33, 52
18, 33539, Note_on_c, 15, 33, 0
18, 33600, Note_on_c, 15, 36, 52
18, 33779, Note_on_c, 15, 36, 0
18, 33840, Note_on_c, 15, 41, 52
18, 34019, Note_on_c, 15, 41, 0
18, 34080, Note_on_c, 15, 45, 52
18, 34259, Note_on_c, 15, 45, 0
18, 34320, Note_on_c, 15, 48, 52
18, 34499, Note_on_c, 15, 48, 0
18, 34560, Note_on_c, 15, 41, 52
18, 34799, Note_on_c, 15, 41, 0
18, 36000, Note_on_c, 15, 29, 52
18, 36179, Note_on_c, 15, 29, 0
18, 36240, Note_on_c, 15, 34, 52
18, 36419, Note_on_c, 15, 34, 0
18, 36480, Note_on_c, 15, 38, 52
18, 36659, Note_on_c, 15, 38, 0
18, 36720, Note_on_c, 15, 41, 52
18, 36899, Note_on_c, 15, 41, 0
18, 36960, Note_on_c, 15, 50, 52
18, 37139, Note_on_c, 15, 50, 0
18, 37200, Note_on_c, 15, 46, 52
18, 37379, Note_on_c, 15, 46, 0
18, 37440, Note_on_c, 15, 41, 52
18, 37679, Note_on_c, 15, 41, 0
18, 39120, Note_on_c, 15, 43, 84
18, 39464, Note_on_c, 15, 43, 0
18, 39480, Note_on_c, 15, 41, 84
18, 39584, Note_on_c, 15, 41, 0
18, 39600, Note_on_c, 15, 39, 84
18, 39779, Note_on_c, 15, 39, 0
18, 39840, Note_on_c, 15, 38, 84
18, 40019, Note_on_c, 15, 38, 0
18, 40080, Note_on_c, 15, 36, 84
18, 40259, Note_on_c, 15, 36, 0
18, 40320, Note_on_c, 15, 34, 52
18, 40559, Note_on_c, 15, 34, 0
18, 42960, Control_c, 15, 11, 80
18, 43200, Note_on_c, 15, 34, 76
18, 43200, Control_c, 15, 11, 80
18, 43320, Control_c, 15, 11, 82
18, 43440, Control_c, 15, 11, 84
18, 43560, Control_c, 15, 11, 86
18, 43680, Control_c, 15, 11, 88
18, 43800, Control_c, 15, 11, 90
18, 43920, Control_c, 15, 11, 92
18, 44040, Control_c, 15, 11, 94
18, 44160, Control_c, 15, 11, 96
18, 44280, Control_c, 15, 11, 98
18, 44400, Control_c, 15, 11, 100
18, 44520, Control_c, 15, 11, 102
18, 44640, Control_c, 15, 11, 104
18, 44744, Note_on_c, 15, 34, 0
18, 44760, Note_on_c, 15, 41, 76
18, 44760, Control_c, 15, 11, 105
18, 44849, Note_on_c, 15, 41, 0
18, 44880, Note_on_c, 15, 39, 76
18, 44880, Control_c, 15, 11, 107
18, 44969, Note_on_c, 15, 39, 0
18, 45000, Control_c, 15, 11, 109
18, 45000, Note_on_c, 15, 38, 76
18, 45089, Note_on_c, 15, 38, 0
18, 45120, Control_c, 15, 11, 111
18, 45120, Note_on_c, 15, 36, 76
18, 45209, Note_on_c, 15, 36, 0
18, 45240, Note_on_c, 15, 34, 76
18, 45240, Control_c, 15, 11, 113
18, 45329, Note_on_c, 15, 34, 0
18, 45360, Control_c, 15, 11, 115
18, 45360, Note_on_c, 15, 33, 76
18, 45449, Note_on_c, 15, 33, 0
18, 45480, Note_on_c, 15, 34, 76
18, 45480, Control_c, 15, 11, 117
18, 45569, Note_on_c, 15, 34, 0
18, 45600, Note_on_c, 15, 36, 76
18, 45600, Control_c, 15, 11, 119
18, 45689, Note_on_c, 15, 36, 0
18, 45720, Note_on_c, 15, 34, 76
18, 45720, Control_c, 15, 11, 121
18, 45809, Note_on_c, 15, 34, 0
18, 45840, Note_on_c, 15, 33, 76
18, 45840, Control_c, 15, 11, 123
18, 45929, Note_on_c, 15, 33, 0
18, 45960, Note_on_c, 15, 31, 76
18, 45960, Control_c, 15, 11, 127
18, 46049, Note_on_c, 15, 31, 0
18, 46080, Note_on_c, 15, 30, 76
18, 46259, Note_on_c, 15, 30, 0
18, 46320, Note_on_c, 15, 42, 76
18, 46499, Note_on_c, 15, 42, 0
18, 47400, Note_on_c, 15, 30, 76
18, 47489, Note_on_c, 15, 30, 0
18, 47520, Note_on_c, 15, 31, 76
18, 47699, Note_on_c, 15, 31, 0
18, 47760, Note_on_c, 15, 43, 76
18, 47939, Note_on_c, 15, 43, 0
18, 48840, Note_on_c, 15, 43, 76
18, 48929, Note_on_c, 15, 43, 0
18, 48960, Note_on_c, 15, 41, 76
18, 49184, Note_on_c, 15, 41, 0
18, 49200, Note_on_c, 15, 53, 76
18, 49379, Note_on_c, 15, 53, 0
18, 50040, Note_on_c, 15, 41, 76
18, 50129, Note_on_c, 15, 41, 0
18, 50160, Note_on_c, 15, 41, 76
18, 50249, Note_on_c, 15, 41, 0
18, 50280, Note_on_c, 15, 41, 76
18, 50369, Note_on_c, 15, 41, 0
18, 50400, Note_on_c, 15, 39, 76
18, 50489, Note_on_c, 15, 39, 0
18, 50520, Note_on_c, 15, 39, 76
18, 50744, Note_on_c, 15, 39, 0
18, 50760, Note_on_c, 15, 40, 76
18, 50849, Note_on_c, 15, 40, 0
18, 50880, Note_on_c, 15, 41, 76
18, 50969, Note_on_c, 15, 41, 0
18, 51000, Note_on_c, 15, 42, 76
18, 51089, Note_on_c, 15, 42, 0
18, 51120, Note_on_c, 15, 43, 76
18, 51209, Note_on_c, 15, 43, 0
18, 51240, Note_on_c, 15, 43, 76
18, 51464, Note_on_c, 15, 43, 0
18, 51480, Note_on_c, 15, 43, 76
18, 51569, Note_on_c, 15, 43, 0
18, 51600, Note_on_c, 15, 44, 76
18, 51689, Note_on_c, 15, 44, 0
18, 51720, Note_on_c, 15, 45, 76
18, 51809, Note_on_c, 15, 45, 0
18, 51840, Note_on_c, 15, 46, 76
18, 51944, Note_on_c, 15, 46, 0
18, 51960, Note_on_c, 15, 46, 76
18, 52064, Note_on_c, 15, 46, 0
18, 52080, Note_on_c, 15, 44, 76
18, 52184, Note_on_c, 15, 44, 0
18, 52200, Note_on_c, 15, 44, 76
18, 52304, Note_on_c, 15, 44, 0
18, 52320, Note_on_c, 15, 43, 76
18, 52424, Note_on_c, 15, 43, 0
18, 52440, Note_on_c, 15, 43, 76
18, 52544, Note_on_c, 15, 43, 0
18, 52560, Note_on_c, 15, 42, 76
18, 52664, Note_on_c, 15, 42, 0
18, 52680, Note_on_c, 15, 42, 76
18, 52784, Note_on_c, 15, 42, 0
18, 52800, Note_on_c, 15, 41, 76
18, 52904, Note_on_c, 15, 41, 0
18, 52920, Note_on_c, 15, 41, 76
18, 53024, Note_on_c, 15, 41, 0
18, 53040, Note_on_c, 15, 38, 76
18, 53144, Note_on_c, 15, 38, 0
18, 53160, Note_on_c, 15, 38, 76
18, 53264, Note_on_c, 15, 38, 0
18, 53280, Note_on_c, 15, 39, 76
18, 53384, Note_on_c, 15, 39, 0
18, 53400, Note_on_c, 15, 39, 76
18, 53504, Note_on_c, 15, 39, 0
18, 53520, Note_on_c, 15, 39, 76
18, 53624, Note_on_c, 15, 39, 0
18, 53640, Note_on_c, 15, 39, 76
18, 53744, Note_on_c, 15, 39, 0
18, 53760, Note_on_c, 15, 39, 76
18, 53864, Note_on_c, 15, 39, 0
18, 53880, Note_on_c, 15, 39, 76
18, 53984, Note_on_c, 15, 39, 0
18, 54000, Note_on_c, 15, 39, 76
18, 54104, Note_on_c, 15, 39, 0
18, 54120, Note_on_c, 15, 39, 76
18, 54224, Note_on_c, 15, 39, 0
18, 54240, Note_on_c, 15, 39, 76
18, 54344, Note_on_c, 15, 39, 0
18, 54360, Note_on_c, 15, 39, 76
18, 54464, Note_on_c, 15, 39, 0
18, 54480, Note_on_c, 15, 39, 76
18, 54584, Note_on_c, 15, 39, 0
18, 54600, Note_on_c, 15, 39, 76
18, 54704, Note_on_c, 15, 39, 0
18, 54720, Note_on_c, 15, 41, 76
18, 54824, Note_on_c, 15, 41, 0
18, 54840, Note_on_c, 15, 41, 76
18, 54944, Note_on_c, 15, 41, 0
18, 54960, Note_on_c, 15, 41, 76
18, 55064, Note_on_c, 15, 41, 0
18, 55080, Note_on_c, 15, 41, 76
18, 55184, Note_on_c, 15, 41, 0
18, 55200, Note_on_c, 15, 41, 76
18, 55304, Note_on_c, 15, 41, 0
18, 55320, Note_on_c, 15, 41, 76
18, 55424, Note_on_c, 15, 41, 0
18, 55440, Note_on_c, 15, 41, 76
18, 55544, Note_on_c, 15, 41, 0
18, 55560, Note_on_c, 15, 41, 76
18, 55664, Note_on_c, 15, 41, 0
18, 55680, Note_on_c, 15, 41, 76
18, 55784, Note_on_c, 15, 41, 0
18, 55800, Note_on_c, 15, 41, 76
18, 55904, Note_on_c, 15, 41, 0
18, 55920, Note_on_c, 15, 41, 76
18, 56024, Note_on_c, 15, 41, 0
18, 56040, Note_on_c, 15, 41, 76
18, 56144, Note_on_c, 15, 41, 0
18, 56160, Note_on_c, 15, 29, 76
18, 56264, Note_on_c, 15, 29, 0
18, 56280, Note_on_c, 15, 41, 76
18, 56384, Note_on_c, 15, 41, 0
18, 56400, Note_on_c, 15, 41, 76
18, 56504, Note_on_c, 15, 41, 0
18, 56520, Note_on_c, 15, 41, 76
18, 56624, Note_on_c, 15, 41, 0
18, 56640, Note_on_c, 15, 41, 76
18, 56744, Note_on_c, 15, 41, 0
18, 56760, Note_on_c, 15, 41, 76
18, 56864, Note_on_c, 15, 41, 0
18, 56880, Note_on_c, 15, 41, 76
18, 56984, Note_on_c, 15, 41, 0
18, 57000, Note_on_c, 15, 41, 76
18, 57104, Note_on_c, 15, 41, 0
18, 57120, Note_on_c, 15, 41, 76
18, 57224, Note_on_c, 15, 41, 0
18, 57240, Note_on_c, 15, 41, 76
18, 57344, Note_on_c, 15, 41, 0
18, 57360, Note_on_c, 15, 41, 76
18, 57464, Note_on_c, 15, 41, 0
18, 57480, Note_on_c, 15, 41, 76
18, 57584, Note_on_c, 15, 41, 0
18, 57600, Note_on_c, 15, 41, 84
18, 57689, Note_on_c, 15, 41, 0
18, 57720, Note_on_c, 15, 52, 84
18, 57809, Note_on_c, 15, 52, 0
18, 57840, Note_on_c, 15, 51, 84
18, 57929, Note_on_c, 15, 51, 0
18, 57960, Note_on_c, 15, 50, 84
18, 58049, Note_on_c, 15, 50, 0
18, 58080, Note_on_c, 15, 48, 84
18, 58169, Note_on_c, 15, 48, 0
18, 58200, Note_on_c, 15, 46, 84
18, 58289, Note_on_c, 15, 46, 0
18, 58320, Note_on_c, 15, 45, 84
18, 58409, Note_on_c, 15, 45, 0
18, 58440, Note_on_c, 15, 43, 84
18, 58529, Note_on_c, 15, 43, 0
18, 58560, Note_on_c, 15, 41, 84
18, 58649, Note_on_c, 15, 41, 0
18, 58680, Note_on_c, 15, 39, 84
18, 58769, Note_on_c, 15, 39, 0
18, 58800, Note_on_c, 15, 38, 84
18, 58889, Note_on_c, 15, 38, 0
18, 58920, Note_on_c, 15, 36, 84
18, 59009, Note_on_c, 15, 36, 0
18, 59040, Note_on_c, 15, 34, 84
18, 59279, Note_on_c, 15, 34, 0
18, 61200, Program_c, 15, 45
18, 61440, Note_on_c, 15, 39, 68
18, 61679, Note_on_c, 15, 39, 0
18, 61680, Note_on_c, 15, 39, 68
18, 61919, Note_on_c, 15, 39, 0
18, 61920, Note_on_c, 15, 36, 68
18, 62159, Note_on_c, 15, 36, 0
18, 63840, Note_on_c, 15, 41, 68
18, 64079, Note_on_c, 15, 41, 0
18, 64320, Note_on_c, 15, 41, 68
18, 64559, Note_on_c, 15, 41, 0
18, 64560, Note_on_c, 15, 41, 68
18, 64799, Note_on_c, 15, 41, 0
18, 64800, Note_on_c, 15, 34, 68
18, 65039, Note_on_c, 15, 34, 0
18, 67680, Program_c, 15, 48
18, 67680, Control_c, 15, 11, 96
18, 67920, Note_on_c, 15, 41, 68
18, 68159, Note_on_c, 15, 41, 0
18, 68160, Note_on_c, 15, 37, 68
18, 68399, Note_on_c, 15, 37, 0
18, 68400, Note_on_c, 15, 36, 68
18, 68440, Control_c, 15, 11, 99
18, 68480, Control_c, 15, 11, 101
18, 68520, Control_c, 15, 11, 104
18, 68560, Control_c, 15, 11, 106
18, 68600, Control_c, 15, 11, 109
18, 68640, Control_c, 15, 11, 112
18, 68680, Control_c, 15, 11, 114
18, 68720, Control_c, 15, 11, 117
18, 68760, Control_c, 15, 11, 119
18, 68800, Control_c, 15, 11, 122
18, 68840, Control_c, 15, 11, 124
18, 68879, Note_on_c, 15, 36, 0
18, 68880, Control_c, 15, 11, 127
18, 68880, Note_on_c, 15, 35, 68
18, 68920, Control_c, 15, 11, 122
18, 68960, Control_c, 15, 11, 117
18, 69000, Control_c, 15, 11, 112
18, 69040, Control_c, 15, 11, 106
18, 69080, Control_c, 15, 11, 96
18, 69119, Note_on_c, 15, 35, 0
18, 69120, Note_on_c, 15, 36, 68
18, 69359, Note_on_c, 15, 36, 0
18, 70560, Control_c, 15, 11, 127
18, 70800, Note_on_c, 15, 41, 44
18, 70979, Note_on_c, 15, 41, 0
18, 71040, Note_on_c, 15, 41, 44
18, 71219, Note_on_c, 15, 41, 0
18, 71520, Note_on_c, 15, 41, 44
18, 71699, Note_on_c, 15, 41, 0
18, 71760, Note_on_c, 15, 41, 44
18, 71939, Note_on_c, 15, 41, 0
18, 72240, Note_on_c, 15, 41, 44
18, 72419, Note_on_c, 15, 41, 0
18, 72480, Note_on_c, 15, 41, 44
18, 72659, Note_on_c, 15, 41, 0
18, 72720, Note_on_c, 15, 41, 44
18, 72899, Note_on_c, 15, 41, 0
18, 72960, Note_on_c, 15, 41, 44
18, 73139, Note_on_c, 15, 41, 0
18, 73200, Note_on_c, 15, 41, 44
18, 73379, Note_on_c, 15, 41, 0
18, 73440, Note_on_c, 15, 41, 44
18, 73529, Note_on_c, 15, 41, 0
18, 73560, Note_on_c, 15, 41, 44
18, 73649, Note_on_c, 15, 41, 0
18, 73680, Note_on_c, 15, 41, 44
18, 73769, Note_on_c, 15, 41, 0
18, 73800, Note_on_c, 15, 41, 44
18, 73889, Note_on_c, 15, 41, 0
18, 73920, Note_on_c, 15, 41, 44
18, 74009, Note_on_c, 15, 41, 0
18, 74040, Note_on_c, 15, 41, 44
18, 74129, Note_on_c, 15, 41, 0
18, 74160, Note_on_c, 15, 41, 44
18, 74249, Note_on_c, 15, 41, 0
18, 74280, Note_on_c, 15, 41, 44
18, 74369, Note_on_c, 15, 41, 0
18, 74400, Note_on_c, 15, 41, 44
18, 74489, Note_on_c, 15, 41, 0
18, 74520, Note_on_c, 15, 41, 44
18, 74609, Note_on_c, 15, 41, 0
18, 74640, Note_on_c, 15, 41, 44
18, 74729, Note_on_c, 15, 41, 0
18, 74760, Note_on_c, 15, 41, 44
18, 74849, Note_on_c, 15, 41, 0
18, 74880, Note_on_c, 15, 41, 44
18, 74969, Note_on_c, 15, 41, 0
18, 75000, Note_on_c, 15, 41, 45
18, 75089, Note_on_c, 15, 41, 0
18, 75120, Note_on_c, 15, 41, 46
18, 75209, Note_on_c, 15, 41, 0
18, 75240, Note_on_c, 15, 41, 48
18, 75329, Note_on_c, 15, 41, 0
18, 75360, Note_on_c, 15, 41, 49
18, 75449, Note_on_c, 15, 41, 0
18, 75480, Note_on_c, 15, 41, 50
18, 75569, Note_on_c, 15, 41, 0
18, 75600, Note_on_c, 15, 41, 52
18, 75689, Note_on_c, 15, 41, 0
18, 75720, Note_on_c, 15, 41, 53
18, 75809, Note_on_c, 15, 41, 0
18, 75840, Note_on_c, 15, 41, 54
18, 75929, Note_on_c, 15, 41, 0
18, 75960, Note_on_c, 15, 41, 56
18, 76049, Note_on_c, 15, 41, 0
18, 76080, Note_on_c, 15, 41, 57
18, 76169, Note_on_c, 15, 41, 0
18, 76200, Note_on_c, 15, 41, 58
18, 76289, Note_on_c, 15, 41, 0
18, 76320, Note_on_c, 15, 41, 60
18, 76409, Note_on_c, 15, 41, 0
18, 76440, Note_on_c, 15, 41, 61
18, 76529, Note_on_c, 15, 41, 0
18, 76560, Note_on_c, 15, 41, 62
18, 76649, Note_on_c, 15, 41, 0
18, 76680, Note_on_c, 15, 41, 64
18, 76769, Note_on_c, 15, 41, 0
18, 76800, Note_on_c, 15, 41, 65
18, 76889, Note_on_c, 15, 41, 0
18, 76920, Note_on_c, 15, 41, 66
18, 77009, Note_on_c, 15, 41, 0
18, 77040, Note_on_c, 15, 41, 68
18, 77129, Note_on_c, 15, 41, 0
18, 77160, Note_on_c, 15, 41, 69
18, 77249, Note_on_c, 15, 41, 0
18, 77280, Note_on_c, 15, 41, 70
18, 77369, Note_on_c, 15, 41, 0
18, 77400, Note_on_c, 15, 39, 72
18, 77489, Note_on_c, 15, 39, 0
18, 77520, Note_on_c, 15, 38, 73
18, 77609, Note_on_c, 15, 38, 0
18, 77640, Note_on_c, 15, 36, 74
18, 77729, Note_on_c, 15, 36, 0
18, 77760, Note_on_c, 15, 34, 76
18, 77864, Note_on_c, 15, 34, 0
18, 77880, Note_on_c, 15, 29, 76
18, 77984, Note_on_c, 15, 29, 0
18, 78000, Note_on_c, 15, 34, 76
18, 78104, Note_on_c, 15, 34, 0
18, 78120, Note_on_c, 15, 29, 76
18, 78224, Note_on_c, 15, 29, 0
18, 78240, Note_on_c, 15, 34, 76
18, 78344, Note_on_c, 15, 34, 0
18, 78360, Note_on_c, 15, 29, 76
18, 78464, Note_on_c, 15, 29, 0
18, 78480, Note_on_c, 15, 34, 76
18, 78584, Note_on_c, 15, 34, 0
18, 78600, Note_on_c, 15, 29, 76
18, 78704, Note_on_c, 15, 29, 0
18, 78720, Note_on_c, 15, 34, 84
18, 78824, Note_on_c, 15, 34, 0
18, 78840, Note_on_c, 15, 29, 76
18, 78944, Note_on_c, 15, 29, 0
18, 78960, Note_on_c, 15, 34, 76
18, 79064, Note_on_c, 15, 34, 0
18, 79080, Note_on_c, 15, 29, 76
18, 79184, Note_on_c, 15, 29, 0
18, 79200, Note_on_c, 15, 33, 76
18, 79304, Note_on_c, 15, 33, 0
18, 79320, Note_on_c, 15, 29, 76
18, 79424, Note_on_c, 15, 29, 0
18, 79440, Note_on_c, 15, 33, 84
18, 79544, Note_on_c, 15, 33, 0
18, 79560, Note_on_c, 15, 29, 76
18, 79664, Note_on_c, 15, 29, 0
18, 79680, Note_on_c, 15, 33, 76
18, 79784, Note_on_c, 15, 33, 0
18, 79800, Note_on_c, 15, 29, 76
18, 79904, Note_on_c, 15, 29, 0
18, 79920, Note_on_c, 15, 36, 76
18, 80024, Note_on_c, 15, 36, 0
18, 80040, Note_on_c, 15, 29, 76
18, 80144, Note_on_c, 15, 29, 0
18, 80160, Note_on_c, 15, 39, 84
18, 80264, Note_on_c, 15, 39, 0
18, 80280, Note_on_c, 15, 29, 76
18, 80384, Note_on_c, 15, 29, 0
18, 80400, Note_on_c, 15, 33, 76
18, 80504, Note_on_c, 15, 33, 0
18, 80520, Note_on_c, 15, 29, 76
18, 80624, Note_on_c, 15, 29, 0
18, 80640, Note_on_c, 15, 34, 84
18, 80744, Note_on_c, 15, 34, 0
18, 80760, Note_on_c, 15, 29, 84
18, 80864, Note_on_c, 15, 29, 0
18, 80880, Note_on_c, 15, 34, 84
18, 80984, Note_on_c, 15, 34, 0
18, 81000, Note_on_c, 15, 29, 84
18, 81104, Note_on_c, 15, 29, 0
18, 81120, Note_on_c, 15, 34, 84
18, 81224, Note_on_c, 15, 34, 0
18, 81240, Note_on_c, 15, 29, 84
18, 81344, Note_on_c, 15, 29, 0
18, 81360, Note_on_c, 15, 34, 84
18, 81464, Note_on_c, 15, 34, 0
18, 81480, Note_on_c, 15, 29, 84
18, 81584, Note_on_c, 15, 29, 0
18, 81600, Note_on_c, 15, 34, 84
18, 81704, Note_on_c, 15, 34, 0
18, 81720, Note_on_c, 15, 29, 84
18, 81824, Note_on_c, 15, 29, 0
18, 81840, Note_on_c, 15, 34, 84
18, 81944, Note_on_c, 15, 34, 0
18, 81960, Note_on_c, 15, 29, 84
18, 82064, Note_on_c, 15, 29, 0
18, 82080, Note_on_c, 15, 33, 84
18, 82184, Note_on_c, 15, 33, 0
18, 82200, Note_on_c, 15, 29, 84
18, 82304, Note_on_c, 15, 29, 0
18, 82320, Note_on_c, 15, 33, 84
18, 82424, Note_on_c, 15, 33, 0
18, 82440, Note_on_c, 15, 29, 84
18, 82544, Note_on_c, 15, 29, 0
18, 82560, Note_on_c, 15, 33, 84
18, 82664, Note_on_c, 15, 33, 0
18, 82680, Note_on_c, 15, 29, 84
18, 82784, Note_on_c, 15, 29, 0
18, 82800, Note_on_c, 15, 36, 84
18, 82904, Note_on_c, 15, 36, 0
18, 82920, Note_on_c, 15, 29, 84
18, 83024, Note_on_c, 15, 29, 0
18, 83040, Note_on_c, 15, 39, 84
18, 83144, Note_on_c, 15, 39, 0
18, 83160, Note_on_c, 15, 41, 84
18, 83264, Note_on_c, 15, 41, 0
18, 83280, Note_on_c, 15, 39, 84
18, 83384, Note_on_c, 15, 39, 0
18, 83400, Note_on_c, 15, 41, 84
18, 83504, Note_on_c, 15, 41, 0
18, 83520, Note_on_c, 15, 38, 84
18, 84119, Note_on_c, 15, 38, 0
18, 84120, Note_on_c, 15, 37, 84
18, 84224, Note_on_c, 15, 37, 0
18, 84240, Note_on_c, 15, 38, 84
18, 84329, Note_on_c, 15, 38, 0
18, 84360, Note_on_c, 15, 33, 84
18, 84449, Note_on_c, 15, 33, 0
18, 84480, Note_on_c, 15, 34, 84
18, 84569, Note_on_c, 15, 34, 0
18, 84600, Note_on_c, 15, 36, 84
18, 84689, Note_on_c, 15, 36, 0
18, 84720, Note_on_c, 15, 37, 84
18, 84809, Note_on_c, 15, 37, 0
18, 84840, Note_on_c, 15, 38, 84
18, 84929, Note_on_c, 15, 38, 0
18, 84960, Note_on_c, 15, 39, 84
18, 85049, Note_on_c, 15, 39, 0
18, 85080, Note_on_c, 15, 38, 84
18, 85169, Note_on_c, 15, 38, 0
18, 85200, Note_on_c, 15, 36, 92
18, 85289, Note_on_c, 15, 36, 0
18, 85320, Note_on_c, 15, 40, 84
18, 85409, Note_on_c, 15, 40, 0
18, 85440, Note_on_c, 15, 41, 84
18, 85529, Note_on_c, 15, 41, 0
18, 85560, Note_on_c, 15, 39, 84
18, 85649, Note_on_c, 15, 39, 0
18, 85680, Note_on_c, 15, 38, 92
18, 85769, Note_on_c, 15, 38, 0
18, 85800, Note_on_c, 15, 42, 84
18, 85889, Note_on_c, 15, 42, 0
18, 85920, Note_on_c, 15, 43, 84
18, 86009, Note_on_c, 15, 43, 0
18, 86040, Note_on_c, 15, 41, 84
18, 86129, Note_on_c, 15, 41, 0
18, 86160, Note_on_c, 15, 39, 92
18, 86249, Note_on_c, 15, 39, 0
18, 86280, Note_on_c, 15, 43, 84
18, 86369, Note_on_c, 15, 43, 0
18, 86400, Note_on_c, 15, 45, 84
18, 86489, Note_on_c, 15, 45, 0
18, 86520, Note_on_c, 15, 43, 84
18, 86609, Note_on_c, 15, 43, 0
18, 86640, Note_on_c, 15, 41, 92
18, 86729, Note_on_c, 15, 41, 0
18, 86760, Note_on_c, 15, 45, 84
18, 86849, Note_on_c, 15, 45, 0
18, 86880, Note_on_c, 15, 46, 84
18, 86969, Note_on_c, 15, 46, 0
18, 87000, Note_on_c, 15, 45, 84
18, 87089, Note_on_c, 15, 45, 0
18, 87120, Note_on_c, 15, 43, 84
18, 87209, Note_on_c, 15, 43, 0
18, 87240, Note_on_c, 15, 42, 84
18, 87329, Note_on_c, 15, 42, 0
18, 87360, Note_on_c, 15, 43, 84
18, 87449, Note_on_c, 15, 43, 0
18, 87480, Note_on_c, 15, 41, 84
18, 87569, Note_on_c, 15, 41, 0
18, 87600, Note_on_c, 15, 40, 84
18, 87689, Note_on_c, 15, 40, 0
18, 87720, Note_on_c, 15, 39, 84
18, 87809, Note_on_c, 15, 39, 0
18, 87840, Note_on_c, 15, 38, 84
18, 88019, Note_on_c, 15, 38, 0
18, 88080, Note_on_c, 15, 42, 84
18, 88259, Note_on_c, 15, 42, 0
18, 88320, Note_on_c, 15, 43, 84
18, 88499, Note_on_c, 15, 43, 0
18, 88800, Note_on_c, 15, 38, 84
18, 88979, Note_on_c, 15, 38, 0
18, 89040, Note_on_c, 15, 39, 84
18, 89219, Note_on_c, 15, 39, 0
18, 89520, Note_on_c, 15, 40, 84
18, 89699, Note_on_c, 15, 40, 0
18, 89760, Note_on_c, 15, 41, 84
18, 89939, Note_on_c, 15, 41, 0
18, 90240, Note_on_c, 15, 42, 84
18, 90419, Note_on_c, 15, 42, 0
18, 90480, Note_on_c, 15, 43, 84
18, 90659, Note_on_c, 15, 43, 0
18, 90960, Note_on_c, 15, 38, 84
18, 91139, Note_on_c, 15, 38, 0
18, 91200, Note_on_c, 15, 39, 84
18, 91379, Note_on_c, 15, 39, 0
18, 91680, Note_on_c, 15, 40, 92
18, 91859, Note_on_c, 15, 40, 0
18, 92160, Note_on_c, 15, 40, 92
18, 92339, Note_on_c, 15, 40, 0
18, 92640, Note_on_c, 15, 40, 92
18, 92819, Note_on_c, 15, 40, 0
18, 93120, Note_on_c, 15, 40, 92
18, 93299, Note_on_c, 15, 40, 0
18, 93600, Note_on_c, 15, 40, 92
18, 93779, Note_on_c, 15, 40, 0
18, 94080, Note_on_c, 15, 40, 92
18, 94259, Note_on_c, 15, 40, 0
18, 97200, Note_on_c, 15, 31, 52
18, 97439, Note_on_c, 15, 31, 0
18, 97920, Note_on_c, 15, 32, 52
18, 98159, Note_on_c, 15, 32, 0
18, 98640, Note_on_c, 15, 33, 52
18, 98879, Note_on_c, 15, 33, 0
18, 99360, Note_on_c, 15, 34, 52
18, 99599, Note_on_c, 15, 34, 0
18, 99840, Control_c, 15, 11, 64
18, 100080, Note_on_c, 15, 39, 84
18, 100080, Control_c, 15, 11, 64
18, 100170, Control_c, 15, 11, 67
18, 100184, Note_on_c, 15, 39, 0
18, 100200, Note_on_c, 15, 39, 84
18, 100260, Control_c, 15, 11, 69
18, 100304, Note_on_c, 15, 39, 0
18, 100320, Note_on_c, 15, 39, 84
18, 100350, Control_c, 15, 11, 72
18, 100424, Note_on_c, 15, 39, 0
18, 100440, Control_c, 15, 11, 75
18, 100440, Note_on_c, 15, 39, 84
18, 100530, Control_c, 15, 11, 77
18, 100544, Note_on_c, 15, 39, 0
18, 100560, Note_on_c, 15, 39, 84
18, 100620, Control_c, 15, 11, 80
18, 100664, Note_on_c, 15, 39, 0
18, 100680, Note_on_c, 15, 39, 84
18, 100710, Control_c, 15, 11, 82
18, 100784, Note_on_c, 15, 39, 0
18, 100800, Note_on_c, 15, 36, 84
18, 100800, Control_c, 15, 11, 85
18, 100890, Control_c, 15, 11, 88
18, 100904, Note_on_c, 15, 36, 0
18, 100920, Note_on_c, 15, 36, 84
18, 100980, Control_c, 15, 11, 90
18, 101024, Note_on_c, 15, 36, 0
18, 101040, Note_on_c, 15, 36, 84
18, 101070, Control_c, 15, 11, 93
18, 101144, Note_on_c, 15, 36, 0
18, 101160, Control_c, 15, 11, 96
18, 101160, Note_on_c, 15, 36, 84
18, 101250, Control_c, 15, 11, 98
18, 101279, Note_on_c, 15, 36, 0
18, 101280, Note_on_c, 15, 38, 84
18, 101340, Control_c, 15, 11, 101
18, 101399, Note_on_c, 15, 38, 0
18, 101400, Note_on_c, 15, 39, 84
18, 101430, Control_c, 15, 11, 103
18, 101504, Note_on_c, 15, 39, 0
18, 101520, Control_c, 15, 11, 106
18, 101520, Note_on_c, 15, 41, 84
18, 101610, Control_c, 15, 11, 109
18, 101624, Note_on_c, 15, 41, 0
18, 101640, Note_on_c, 15, 41, 84
18, 101700, Control_c, 15, 11, 111
18, 101744, Note_on_c, 15, 41, 0
18, 101760, Note_on_c, 15, 41, 84
18, 101790, Control_c, 15, 11, 114
18, 101864, Note_on_c, 15, 41, 0
18, 101880, Note_on_c, 15, 41, 84
18, 101880, Control_c, 15, 11, 117
18, 101970, Control_c, 15, 11, 119
18, 101984, Note_on_c, 15, 41, 0
18, 102000, Note_on_c, 15, 38, 84
18, 102060, Control_c, 15, 11, 122
18, 102104, Note_on_c, 15, 38, 0
18, 102120, Note_on_c, 15, 34, 84
18, 102150, Control_c, 15, 11, 127
18, 102224, Note_on_c, 15, 34, 0
18, 102240, Note_on_c, 15, 29, 84
18, 102344, Note_on_c, 15, 29, 0
18, 102360, Note_on_c, 15, 41, 84
18, 102464, Note_on_c, 15, 41, 0
18, 102480, Note_on_c, 15, 41, 84
18, 102584, Note_on_c, 15, 41, 0
18, 102600, Note_on_c, 15, 41, 84
18, 102704, Note_on_c, 15, 41, 0
18, 102720, Note_on_c, 15, 41, 84
18, 102824, Note_on_c, 15, 41, 0
18, 102840, Note_on_c, 15, 41, 84
18, 102944, Note_on_c, 15, 41, 0
18, 102960, Note_on_c, 15, 46, 76
18, 103139, Note_on_c, 15, 46, 0
18, 103680, Note_on_c, 15, 34, 76
18, 103859, Note_on_c, 15, 34, 0
18, 104400, Note_on_c, 15, 34, 76
18, 104579, Note_on_c, 15, 34, 0
18, 105120, Note_on_c, 15, 34, 76
18, 105299, Note_on_c, 15, 34, 0
18, 105360, Note_on_c, 15, 34, 76
18, 105539, Note_on_c, 15, 34, 0
18, 105600, Note_on_c, 15, 34, 76
18, 105779, Note_on_c, 15, 34, 0
18, 105840, Note_on_c, 15, 34, 76
18, 105960, Control_c, 15, 11, 80
18, 107279, Note_on_c, 15, 34, 0
18, 107280, Control_c, 15, 11, 80
18, 107280, Note_on_c, 15, 34, 76
18, 107400, Control_c, 15, 11, 79
18, 107520, Control_c, 15, 11, 77
18, 107640, Control_c, 15, 11, 76
18, 107760, Control_c, 15, 11, 75
18, 107880, Control_c, 15, 11, 73
18, 108000, Control_c, 15, 11, 72
18, 108120, Control_c, 15, 11, 71
18, 108240, Control_c, 15, 11, 69
18, 108360, Control_c, 15, 11, 68
18, 108480, Control_c, 15, 11, 67
18, 108704, Note_on_c, 15, 34, 0
18, 108712, Control_c, 15, 11, 96
18, 108720, Note_on_c, 15, 34, 60
18, 109199, Note_on_c, 15, 34, 0
18, 109200, Note_on_c, 15, 35, 60
18, 109439, Note_on_c, 15, 35, 0
18, 109440, Note_on_c, 15, 33, 60
18, 109919, Note_on_c, 15, 33, 0
18, 109920, Note_on_c, 15, 34, 84
18, 110040, Control_c, 15, 11, 64
18, 110129, Note_on_c, 15, 34, 0
18, 110152, Control_c, 15, 11, 96
18, 110160, Note_on_c, 15, 39, 68
18, 110399, Note_on_c, 15, 39, 0
18, 118800, Note_on_c, 15, 39, 52
18, 119039, Note_on_c, 15, 39, 0
18, 121440, Note_on_c, 15, 36, 52
18, 121679, Note_on_c, 15, 36, 0
18, 121680, Note_on_c, 15, 41, 52
18, 121919, Note_on_c, 15, 41, 0
18, 121920, Note_on_c, 15, 44, 52
18, 122159, Note_on_c, 15, 44, 0
18, 122160, Note_on_c, 15, 48, 52
18, 122384, Note_on_c, 15, 48, 0
18, 122400, Note_on_c, 15, 41, 52
18, 122639, Note_on_c, 15, 41, 0
18, 124020, Control_c, 15, 11, 92
18, 124080, Control_c, 15, 11, 96
18, 124080, Note_on_c, 15, 36, 76
18, 124140, Control_c, 15, 11, 100
18, 124200, Control_c, 15, 11, 104
18, 124260, Control_c, 15, 11, 107
18, 124319, Note_on_c, 15, 36, 0
18, 124320, Control_c, 15, 11, 111
18, 124320, Note_on_c, 15, 35, 76
18, 124380, Control_c, 15, 11, 115
18, 124440, Control_c, 15, 11, 119
18, 124500, Control_c, 15, 11, 123
18, 124544, Note_on_c, 15, 35, 0
18, 124560, Note_on_c, 15, 34, 76
18, 124560, Control_c, 15, 11, 127
18, 124680, Control_c, 15, 11, 80
18, 125744, Note_on_c, 15, 34, 0
18, 125760, Note_on_c, 15, 34, 76
18, 126209, Note_on_c, 15, 34, 0
18, 126225, Control_c, 15, 11, 127
18, 126240, Note_on_c, 15, 34, 76
18, 126689, Note_on_c, 15, 34, 0
18, 126720, Note_on_c, 15, 34, 76
18, 127169, Note_on_c, 15, 34, 0
18, 127200, Note_on_c, 15, 34, 76
18, 127409, Note_on_c, 15, 34, 0
18, 127440, Note_on_c, 15, 34, 76
18, 127560, Control_c, 15, 11, 80
18, 128609, Note_on_c, 15, 34, 0
18, 128625, Control_c, 15, 11, 127
18, 128640, Note_on_c, 15, 34, 76
18, 128879, Note_on_c, 15, 34, 0
18, 128880, Note_on_c, 15, 32, 52
18, 129059, Note_on_c, 15, 32, 0
18, 129120, Note_on_c, 15, 44, 76
18, 129569, Note_on_c, 15, 44, 0
18, 129600, Note_on_c, 15, 44, 76
18, 130049, Note_on_c, 15, 44, 0
18, 130080, Note_on_c, 15, 44, 76
18, 130529, Note_on_c, 15, 44, 0
18, 130560, Note_on_c, 15, 43, 76
18, 131009, Note_on_c, 15, 43, 0
18, 131040, Note_on_c, 15, 43, 76
18, 131489, Note_on_c, 15, 43, 0
18, 131520, Note_on_c, 15, 43, 76
18, 131969, Note_on_c, 15, 43, 0
18, 132000, Note_on_c, 15, 44, 52
18, 132179, Note_on_c, 15, 44, 0
18, 132240, Note_on_c, 15, 44, 76
18, 132689, Note_on_c, 15, 44, 0
18, 132720, Note_on_c, 15, 43, 52
18, 132899, Note_on_c, 15, 43, 0
18, 132960, Note_on_c, 15, 43, 76
18, 133169, Note_on_c, 15, 43, 0
18, 133200, Note_on_c, 15, 41, 52
18, 133304, Note_on_c, 15, 41, 0
18, 133320, Note_on_c, 15, 41, 54
18, 133409, Note_on_c, 15, 41, 0
18, 133440, Note_on_c, 15, 41, 57
18, 133529, Note_on_c, 15, 41, 0
18, 133560, Note_on_c, 15, 41, 60
18, 133649, Note_on_c, 15, 41, 0
18, 133680, Note_on_c, 15, 41, 62
18, 133769, Note_on_c, 15, 41, 0
18, 133800, Note_on_c, 15, 41, 65
18, 133889, Note_on_c, 15, 41, 0
18, 133920, Note_on_c, 15, 34, 68
18, 134024, Note_on_c, 15, 34, 0
18, 134040, Note_on_c, 15, 46, 70
18, 134144, Note_on_c, 15, 46, 0
18, 134160, Note_on_c, 15, 46, 73
18, 134264, Note_on_c, 15, 46, 0
18, 134280, Note_on_c, 15, 46, 76
18, 134384, Note_on_c, 15, 46, 0
18, 134400, Note_on_c, 15, 46, 78
18, 134504, Note_on_c, 15, 46, 0
18, 134520, Note_on_c, 15, 46, 81
18, 134624, Note_on_c, 15, 46, 0
18, 134640, Note_on_c, 15, 39, 84
18, 135119, Note_on_c, 15, 39, 0
18, 135120, Note_on_c, 15, 43, 84
18, 135359, Note_on_c, 15, 43, 0
18, 135360, Note_on_c, 15, 39, 84
18, 135839, Note_on_c, 15, 39, 0
18, 135840, Note_on_c, 15, 34, 84
18, 136064, Note_on_c, 15, 34, 0
18, 136080, Note_on_c, 15, 39, 84
18, 136319, Note_on_c, 15, 39, 0
18, 136320, Note_on_c, 15, 43, 84
18, 136559, Note_on_c, 15, 43, 0
18, 136560, Note_on_c, 15, 46, 84
18, 136784, Note_on_c, 15, 46, 0
18, 136800, Note_on_c, 15, 39, 84
18, 137264, Note_on_c, 15, 39, 0
18, 137280, Note_on_c, 15, 31, 92
18, 137504, Note_on_c, 15, 31, 0
18, 137520, Note_on_c, 15, 36, 84
18, 137759, Note_on_c, 15, 36, 0
18, 137760, Note_on_c, 15, 39, 84
18, 137999, Note_on_c, 15, 39, 0
18, 138000, Note_on_c, 15, 43, 84
18, 138224, Note_on_c, 15, 43, 0
18, 138240, Note_on_c, 15, 36, 84
18, 138704, Note_on_c, 15, 36, 0
18, 138720, Note_on_c, 15, 27, 92
18, 138944, Note_on_c, 15, 27, 0
18, 138960, Note_on_c, 15, 32, 84
18, 139064, Note_on_c, 15, 32, 0
18, 139080, Note_on_c, 15, 44, 84
18, 139184, Note_on_c, 15, 44, 0
18, 139200, Note_on_c, 15, 44, 84
18, 139304, Note_on_c, 15, 44, 0
18, 139320, Note_on_c, 15, 44, 84
18, 139424, Note_on_c, 15, 44, 0
18, 139440, Note_on_c, 15, 44, 84
18, 139544, Note_on_c, 15, 44, 0
18, 139560, Note_on_c, 15, 44, 84
18, 139664, Note_on_c, 15, 44, 0
18, 139680, Note_on_c, 15, 42, 84
18, 139784, Note_on_c, 15, 42, 0
18, 139800, Note_on_c, 15, 42, 84
18, 139904, Note_on_c, 15, 42, 0
18, 139920, Note_on_c, 15, 42, 84
18, 140024, Note_on_c, 15, 42, 0
18, 140040, Note_on_c, 15, 42, 84
18, 140144, Note_on_c, 15, 42, 0
18, 140160, Note_on_c, 15, 42, 84
18, 140264, Note_on_c, 15, 42, 0
18, 140280, Note_on_c, 15, 42, 84
18, 140384, Note_on_c, 15, 42, 0
18, 140400, Note_on_c, 15, 41, 84
18, 140639, Note_on_c, 15, 41, 0
18, 141840, Note_on_c, 15, 29, 52
18, 142019, Note_on_c, 15, 29, 0
18, 142080, Note_on_c, 15, 33, 52
18, 142259, Note_on_c, 15, 33, 0
18, 142320, Note_on_c, 15, 36, 52
18, 142499, Note_on_c, 15, 36, 0
18, 142560, Note_on_c, 15, 41, 52
18, 142739, Note_on_c, 15, 41, 0
18, 142800, Note_on_c, 15, 45, 52
18, 142979, Note_on_c, 15, 45, 0
18, 143040, Note_on_c, 15, 48, 52
18, 143219, Note_on_c, 15, 48, 0
18, 143280, Note_on_c, 15, 41, 52
18, 143519, Note_on_c, 15, 41, 0
18, 144720, Note_on_c, 15, 29, 52
18, 144899, Note_on_c, 15, 29, 0
18, 144960, Note_on_c, 15, 34, 52
18, 145139, Note_on_c, 15, 34, 0
18, 145200, Note_on_c, 15, 38, 52
18, 145379, Note_on_c, 15, 38, 0
18, 145440, Note_on_c, 15, 41, 52
18, 145619, Note_on_c, 15, 41, 0
18, 145680, Note_on_c, 15, 50, 52
18, 145859, Note_on_c, 15, 50, 0
18, 145920, Note_on_c, 15, 46, 52
18, 146099, Note_on_c, 15, 46, 0
18, 146160, Note_on_c, 15, 41, 52
18, 146399, Note_on_c, 15, 41, 0
18, 147840, Note_on_c, 15, 43, 84
18, 148184, Note_on_c, 15, 43, 0
18, 148200, Note_on_c, 15, 41, 84
18, 148304, Note_on_c, 15, 41, 0
18, 148320, Note_on_c, 15, 39, 84
18, 148499, Note_on_c, 15, 39, 0
18, 148560, Note_on_c, 15, 38, 84
18, 148739, Note_on_c, 15, 38, 0
18, 148800, Note_on_c, 15, 36, 84
18, 148979, Note_on_c, 15, 36, 0
18, 149040, Note_on_c, 15, 34, 52
18, 149279, Note_on_c, 15, 34, 0
18, 151680, Control_c, 15, 11, 80
18, 151920, Note_on_c, 15, 34, 76
18, 151920, Control_c, 15, 11, 80
18, 152040, Control_c, 15, 11, 82
18, 152160, Control_c, 15, 11, 84
18, 152280, Control_c, 15, 11, 86
18, 152400, Control_c, 15, 11, 88
18, 152520, Control_c, 15, 11, 90
18, 152640, Control_c, 15, 11, 92
18, 152760, Control_c, 15, 11, 94
18, 152880, Control_c, 15, 11, 96
18, 153000, Control_c, 15, 11, 98
18, 153120, Control_c, 15, 11, 100
18, 153240, Control_c, 15, 11, 102
18, 153360, Control_c, 15, 11, 104
18, 153464, Note_on_c, 15, 34, 0
18, 153480, Note_on_c, 15, 41, 76
18, 153480, Control_c, 15, 11, 105
18, 153569, Note_on_c, 15, 41, 0
18, 153600, Note_on_c, 15, 39, 76
18, 153600, Control_c, 15, 11, 107
18, 153689, Note_on_c, 15, 39, 0
18, 153720, Control_c, 15, 11, 109
18, 153720, Note_on_c, 15, 38, 76
18, 153809, Note_on_c, 15, 38, 0
18, 153840, Note_on_c, 15, 36, 76
18, 153840, Control_c, 15, 11, 111
18, 153929, Note_on_c, 15, 36, 0
18, 153960, Note_on_c, 15, 34, 76
18, 153960, Control_c, 15, 11, 113
18, 154049, Note_on_c, 15, 34, 0
18, 154080, Control_c, 15, 11, 115
18, 154080, Note_on_c, 15, 33, 76
18, 154169, Note_on_c, 15, 33, 0
18, 154200, Control_c, 15, 11, 117
18, 154200, Note_on_c, 15, 34, 76
18, 154289, Note_on_c, 15, 34, 0
18, 154320, Note_on_c, 15, 36, 76
18, 154320, Control_c, 15, 11, 119
18, 154409, Note_on_c, 15, 36, 0
18, 154440, Note_on_c, 15, 34, 76
18, 154440, Control_c, 15, 11, 121
18, 154529, Note_on_c, 15, 34, 0
18, 154560, Note_on_c, 15, 33, 76
18, 154560, Control_c, 15, 11, 123
18, 154649, Note_on_c, 15, 33, 0
18, 154680, Control_c, 15, 11, 127
18, 154680, Note_on_c, 15, 31, 76
18, 154769, Note_on_c, 15, 31, 0
18, 154800, Note_on_c, 15, 30, 76
18, 154979, Note_on_c, 15, 30, 0
18, 155040, Note_on_c, 15, 42, 76
18, 155219, Note_on_c, 15, 42, 0
18, 156120, Note_on_c, 15, 30, 76
18, 156209, Note_on_c, 15, 30, 0
18, 156240, Note_on_c, 15, 31, 76
18, 156419, Note_on_c, 15, 31, 0
18, 156480, Note_on_c, 15, 43, 76
18, 156659, Note_on_c, 15, 43, 0
18, 157560, Note_on_c, 15, 43, 76
18, 157649, Note_on_c, 15, 43, 0
18, 157680, Note_on_c, 15, 41, 76
18, 157904, Note_on_c, 15, 41, 0
18, 157920, Note_on_c, 15, 53, 76
18, 158099, Note_on_c, 15, 53, 0
18, 158760, Note_on_c, 15, 41, 76
18, 158849, Note_on_c, 15, 41, 0
18, 158880, Note_on_c, 15, 41, 76
18, 158969, Note_on_c, 15, 41, 0
18, 159000, Note_on_c, 15, 41, 76
18, 159089, Note_on_c, 15, 41, 0
18, 159120, Note_on_c, 15, 39, 76
18, 159209, Note_on_c, 15, 39, 0
18, 159240, Note_on_c, 15, 39, 76
18, 159464, Note_on_c, 15, 39, 0
18, 159480, Note_on_c, 15, 40, 76
18, 159569, Note_on_c, 15, 40, 0
18, 159600, Note_on_c, 15, 41, 76
18, 159689, Note_on_c, 15, 41, 0
18, 159720, Note_on_c, 15, 42, 76
18, 159809, Note_on_c, 15, 42, 0
18, 159840, Note_on_c, 15, 43, 76
18, 159929, Note_on_c, 15, 43, 0
18, 159960, Note_on_c, 15, 43, 76
18, 160184, Note_on_c, 15, 43, 0
18, 160200, Note_on_c, 15, 43, 76
18, 160289, Note_on_c, 15, 43, 0
18, 160320, Note_on_c, 15, 44, 76
18, 160409, Note_on_c, 15, 44, 0
18, 160440, Note_on_c, 15, 45, 76
18, 160529, Note_on_c, 15, 45, 0
18, 160560, Note_on_c, 15, 46, 76
18, 160664, Note_on_c, 15, 46, 0
18, 160680, Note_on_c, 15, 46, 76
18, 160784, Note_on_c, 15, 46, 0
18, 160800, Note_on_c, 15, 44, 76
18, 160904, Note_on_c, 15, 44, 0
18, 160920, Note_on_c, 15, 44, 76
18, 161024, Note_on_c, 15, 44, 0
18, 161040, Note_on_c, 15, 43, 76
18, 161144, Note_on_c, 15, 43, 0
18, 161160, Note_on_c, 15, 43, 76
18, 161264, Note_on_c, 15, 43, 0
18, 161280, Note_on_c, 15, 42, 76
18, 161384, Note_on_c, 15, 42, 0
18, 161400, Note_on_c, 15, 42, 76
18, 161504, Note_on_c, 15, 42, 0
18, 161520, Note_on_c, 15, 41, 76
18, 161624, Note_on_c, 15, 41, 0
18, 161640, Note_on_c, 15, 41, 76
18, 161744, Note_on_c, 15, 41, 0
18, 161760, Note_on_c, 15, 38, 76
18, 161864, Note_on_c, 15, 38, 0
18, 161880, Note_on_c, 15, 38, 76
18, 161984, Note_on_c, 15, 38, 0
18, 162000, Note_on_c, 15, 39, 76
18, 162104, Note_on_c, 15, 39, 0
18, 162120, Note_on_c, 15, 39, 76
18, 162224, Note_on_c, 15, 39, 0
18, 162240, Note_on_c, 15, 39, 76
18, 162344, Note_on_c, 15, 39, 0
18, 162360, Note_on_c, 15, 39, 76
18, 162464, Note_on_c, 15, 39, 0
18, 162480, Note_on_c, 15, 39, 76
18, 162584, Note_on_c, 15, 39, 0
18, 162600, Note_on_c, 15, 39, 76
18, 162704, Note_on_c, 15, 39, 0
18, 162720, Note_on_c, 15, 39, 76
18, 162824, Note_on_c, 15, 39, 0
18, 162840, Note_on_c, 15, 39, 76
18, 162944, Note_on_c, 15, 39, 0
18, 162960, Note_on_c, 15, 39, 76
18, 163064, Note_on_c, 15, 39, 0
18, 163080, Note_on_c, 15, 39, 76
18, 163184, Note_on_c, 15, 39, 0
18, 163200, Note_on_c, 15, 39, 76
18, 163304, Note_on_c, 15, 39, 0
18, 163320, Note_on_c, 15, 39, 76
18, 163424, Note_on_c, 15, 39, 0
18, 163440, Note_on_c, 15, 41, 76
18, 163544, Note_on_c, 15, 41, 0
18, 163560, Note_on_c, 15, 41, 76
18, 163664, Note_on_c, 15, 41, 0
18, 163680, Note_on_c, 15, 41, 76
18, 163784, Note_on_c, 15, 41, 0
18, 163800, Note_on_c, 15, 41, 76
18, 163904, Note_on_c, 15, 41, 0
18, 163920, Note_on_c, 15, 41, 76
18, 164024, Note_on_c, 15, 41, 0
18, 164040, Note_on_c, 15, 41, 76
18, 164144, Note_on_c, 15, 41, 0
18, 164160, Note_on_c, 15, 41, 76
18, 164264, Note_on_c, 15, 41, 0
18, 164280, Note_on_c, 15, 41, 76
18, 164384, Note_on_c, 15, 41, 0
18, 164400, Note_on_c, 15, 41, 76
18, 164504, Note_on_c, 15, 41, 0
18, 164520, Note_on_c, 15, 41, 76
18, 164624, Note_on_c, 15, 41, 0
18, 164640, Note_on_c, 15, 41, 76
18, 164744, Note_on_c, 15, 41, 0
18, 164760, Note_on_c, 15, 41, 76
18, 164864, Note_on_c, 15, 41, 0
18, 164880, Note_on_c, 15, 29, 76
18, 164984, Note_on_c, 15, 29, 0
18, 165000, Note_on_c, 15, 41, 76
18, 165104, Note_on_c, 15, 41, 0
18, 165120, Note_on_c, 15, 41, 76
18, 165224, Note_on_c, 15, 41, 0
18, 165240, Note_on_c, 15, 41, 76
18, 165344, Note_on_c, 15, 41, 0
18, 165360, Note_on_c, 15, 41, 76
18, 165464, Note_on_c, 15, 41, 0
18, 165480, Note_on_c, 15, 41, 76
18, 165584, Note_on_c, 15, 41, 0
18, 165600, Note_on_c, 15, 41, 76
18, 165704, Note_on_c, 15, 41, 0
18, 165720, Note_on_c, 15, 41, 76
18, 165824, Note_on_c, 15, 41, 0
18, 165840, Note_on_c, 15, 41, 76
18, 165944, Note_on_c, 15, 41, 0
18, 165960, Note_on_c, 15, 41, 76
18, 166064, Note_on_c, 15, 41, 0
18, 166080, Note_on_c, 15, 41, 76
18, 166184, Note_on_c, 15, 41, 0
18, 166200, Note_on_c, 15, 41, 76
18, 166304, Note_on_c, 15, 41, 0
18, 166320, Note_on_c, 15, 41, 84
18, 166409, Note_on_c, 15, 41, 0
18, 166440, Note_on_c, 15, 52, 84
18, 166529, Note_on_c, 15, 52, 0
18, 166560, Note_on_c, 15, 51, 84
18, 166649, Note_on_c, 15, 51, 0
18, 166680, Note_on_c, 15, 50, 84
18, 166769, Note_on_c, 15, 50, 0
18, 166800, Note_on_c, 15, 48, 84
18, 166889, Note_on_c, 15, 48, 0
18, 166920, Note_on_c, 15, 46, 84
18, 167009, Note_on_c, 15, 46, 0
18, 167040, Note_on_c, 15, 45, 84
18, 167129, Note_on_c, 15, 45, 0
18, 167160, Note_on_c, 15, 43, 84
18, 167249, Note_on_c, 15, 43, 0
18, 167280, Note_on_c, 15, 41, 84
18, 167369, Note_on_c, 15, 41, 0
18, 167400, Note_on_c, 15, 39, 84
18, 167489, Note_on_c, 15, 39, 0
18, 167520, Note_on_c, 15, 38, 84
18, 167609, Note_on_c, 15, 38, 0
18, 167640, Note_on_c, 15, 36, 84
18, 167729, Note_on_c, 15, 36, 0
18, 167760, Note_on_c, 15, 34, 84
18, 167999, Note_on_c, 15, 34, 0
18, 169920, Program_c, 15, 45
18, 170160, Note_on_c, 15, 39, 68
18, 170399, Note_on_c, 15, 39, 0
18, 170400, Note_on_c, 15, 39, 68
18, 170639, Note_on_c, 15, 39, 0
18, 170640, Note_on_c, 15, 36, 68
18, 170879, Note_on_c, 15, 36, 0
18, 172560, Note_on_c, 15, 41, 68
18, 172799, Note_on_c, 15, 41, 0
18, 173040, Note_on_c, 15, 41, 68
18, 173279, Note_on_c, 15, 41, 0
18, 173280, Note_on_c, 15, 41, 68
18, 173519, Note_on_c, 15, 41, 0
18, 173520, Note_on_c, 15, 34, 68
18, 173759, Note_on_c, 15, 34, 0
18, 176400, Control_c, 15, 11, 96
18, 176400, Program_c, 15, 48
18, 176640, Note_on_c, 15, 41, 68
18, 176879, Note_on_c, 15, 41, 0
18, 176880, Note_on_c, 15, 37, 68
18, 177119, Note_on_c, 15, 37, 0
18, 177120, Note_on_c, 15, 36, 68
18, 177160, Control_c, 15, 11, 99
18, 177200, Control_c, 15, 11, 101
18, 177240, Control_c, 15, 11, 104
18, 177280, Control_c, 15, 11, 106
18, 177320, Control_c, 15, 11, 109
18, 177360, Control_c, 15, 11, 112
18, 177400, Control_c, 15, 11, 114
18, 177440, Control_c, 15, 11, 117
18, 177480, Control_c, 15, 11, 119
18, 177520, Control_c, 15, 11, 122
18, 177560, Control_c, 15, 11, 124
18, 177599, Note_on_c, 15, 36, 0
18, 177600, Control_c, 15, 11, 127
18, 177600, Note_on_c, 15, 35, 68
18, 177640, Control_c, 15, 11, 122
18, 177680, Control_c, 15, 11, 117
18, 177720, Control_c, 15, 11, 112
18, 177760, Control_c, 15, 11, 106
18, 177800, Control_c, 15, 11, 96
18, 177839, Note_on_c, 15, 35, 0
18, 177840, Note_on_c, 15, 36, 68
18, 178079, Note_on_c, 15, 36, 0
18, 179280, Control_c, 15, 11, 127
18, 179520, Note_on_c, 15, 41, 44
18, 179699, Note_on_c, 15, 41, 0
18, 179760, Note_on_c, 15, 41, 44
18, 179939, Note_on_c, 15, 41, 0
18, 180240, Note_on_c, 15, 41, 44
18, 180419, Note_on_c, 15, 41, 0
18, 180480, Note_on_c, 15, 41, 44
18, 180659, Note_on_c, 15, 41, 0
18, 180960, Note_on_c, 15, 41, 44
18, 181139, Note_on_c, 15, 41, 0
18, 181200, Note_on_c, 15, 41, 44
18, 181379, Note_on_c, 15, 41, 0
18, 181440, Note_on_c, 15, 41, 44
18, 181619, Note_on_c, 15, 41, 0
18, 181680, Note_on_c, 15, 41, 44
18, 181859, Note_on_c, 15, 41, 0
18, 181920, Note_on_c, 15, 41, 44
18, 182099, Note_on_c, 15, 41, 0
18, 182160, Note_on_c, 15, 41, 44
18, 182249, Note_on_c, 15, 41, 0
18, 182280, Note_on_c, 15, 41, 44
18, 182369, Note_on_c, 15, 41, 0
18, 182400, Note_on_c, 15, 41, 44
18, 182489, Note_on_c, 15, 41, 0
18, 182520, Note_on_c, 15, 41, 44
18, 182609, Note_on_c, 15, 41, 0
18, 182640, Note_on_c, 15, 41, 44
18, 182729, Note_on_c, 15, 41, 0
18, 182760, Note_on_c, 15, 41, 44
18, 182849, Note_on_c, 15, 41, 0
18, 182880, Note_on_c, 15, 41, 44
18, 182969, Note_on_c, 15, 41, 0
18, 183000, Note_on_c, 15, 41, 44
18, 183089, Note_on_c, 15, 41, 0
18, 183120, Note_on_c, 15, 41, 44
18, 183209, Note_on_c, 15, 41, 0
18, 183240, Note_on_c, 15, 41, 44
18, 183329, Note_on_c, 15, 41, 0
18, 183360, Note_on_c, 15, 41, 44
18, 183449, Note_on_c, 15, 41, 0
18, 183480, Note_on_c, 15, 41, 44
18, 183569, Note_on_c, 15, 41, 0
18, 183600, Note_on_c, 15, 41, 44
18, 183689, Note_on_c, 15, 41, 0
18, 183720, Note_on_c, 15, 41, 45
18, 183809, Note_on_c, 15, 41, 0
18, 183840, Note_on_c, 15, 41, 46
18, 183929, Note_on_c, 15, 41, 0
18, 183960, Note_on_c, 15, 41, 48
18, 184049, Note_on_c, 15, 41, 0
18, 184080, Note_on_c, 15, 41, 49
18, 184169, Note_on_c, 15, 41, 0
18, 184200, Note_on_c, 15, 41, 50
18, 184289, Note_on_c, 15, 41, 0
18, 184320, Note_on_c, 15, 41, 52
18, 184409, Note_on_c, 15, 41, 0
18, 184440, Note_on_c, 15, 41, 53
18, 184529, Note_on_c, 15, 41, 0
18, 184560, Note_on_c, 15, 41, 54
18, 184649, Note_on_c, 15, 41, 0
18, 184680, Note_on_c, 15, 41, 56
18, 184769, Note_on_c, 15, 41, 0
18, 184800, Note_on_c, 15, 41, 57
18, 184889, Note_on_c, 15, 41, 0
18, 184920, Note_on_c, 15, 41, 58
18, 185009, Note_on_c, 15, 41, 0
18, 185040, Note_on_c, 15, 41, 60
18, 185129, Note_on_c, 15, 41, 0
18, 185160, Note_on_c, 15, 41, 61
18, 185249, Note_on_c, 15, 41, 0
18, 185280, Note_on_c, 15, 41, 62
18, 185369, Note_on_c, 15, 41, 0
18, 185400, Note_on_c, 15, 41, 64
18, 185489, Note_on_c, 15, 41, 0
18, 185520, Note_on_c, 15, 41, 65
18, 185609, Note_on_c, 15, 41, 0
18, 185640, Note_on_c, 15, 41, 66
18, 185729, Note_on_c, 15, 41, 0
18, 185760, Note_on_c, 15, 41, 68
18, 185849, Note_on_c, 15, 41, 0
18, 185880, Note_on_c, 15, 41, 69
18, 185969, Note_on_c, 15, 41, 0
18, 186000, Note_on_c, 15, 41, 70
18, 186089, Note_on_c, 15, 41, 0
18, 186120, Note_on_c, 15, 39, 72
18, 186209, Note_on_c, 15, 39, 0
18, 186240, Note_on_c, 15, 38, 73
18, 186329, Note_on_c, 15, 38, 0
18, 186360, Note_on_c, 15, 36, 74
18, 186449, Note_on_c, 15, 36, 0
18, 186480, Note_on_c, 15, 34, 76
18, 186584, Note_on_c, 15, 34, 0
18, 186600, Note_on_c, 15, 29, 76
18, 186704, Note_on_c, 15, 29, 0
18, 186720, Note_on_c, 15, 34, 76
18, 186824, Note_on_c, 15, 34, 0
18, 186840, Note_on_c, 15, 29, 76
18, 186944, Note_on_c, 15, 29, 0
18, 186960, Note_on_c, 15, 34, 76
18, 187064, Note_on_c, 15, 34, 0
18, 187080, Note_on_c, 15, 29, 76
18, 187184, Note_on_c, 15, 29, 0
18, 187200, Note_on_c, 15, 34, 76
18, 187304, Note_on_c, 15, 34, 0
18, 187320, Note_on_c, 15, 29, 76
18, 187424, Note_on_c, 15, 29, 0
18, 187440, Note_on_c, 15, 34, 84
18, 187544, Note_on_c, 15, 34, 0
18, 187560, Note_on_c, 15, 29, 76
18, 187664, Note_on_c, 15, 29, 0
18, 187680, Note_on_c, 15, 34, 76
18, 187784, Note_on_c, 15, 34, 0
18, 187800, Note_on_c, 15, 29, 76
18, 187904, Note_on_c, 15, 29, 0
18, 187920, Note_on_c, 15, 33, 76
18, 188024, Note_on_c, 15, 33, 0
18, 188040, Note_on_c, 15, 29, 76
18, 188144, Note_on_c, 15, 29, 0
18, 188160, Note_on_c, 15, 33, 84
18, 188264, Note_on_c, 15, 33, 0
18, 188280, Note_on_c, 15, 29, 76
18, 188384, Note_on_c, 15, 29, 0
18, 188400, Note_on_c, 15, 33, 76
18, 188504, Note_on_c, 15, 33, 0
18, 188520, Note_on_c, 15, 29, 76
18, 188624, Note_on_c, 15, 29, 0
18, 188640, Note_on_c, 15, 36, 76
18, 188744, Note_on_c, 15, 36, 0
18, 188760, Note_on_c, 15, 29, 76
18, 188864, Note_on_c, 15, 29, 0
18, 188880, Note_on_c, 15, 39, 84
18, 188984, Note_on_c, 15, 39, 0
18, 189000, Note_on_c, 15, 29, 76
18, 189104, Note_on_c, 15, 29, 0
18, 189120, Note_on_c, 15, 33, 76
18, 189224, Note_on_c, 15, 33, 0
18, 189240, Note_on_c, 15, 29, 76
18, 189344, Note_on_c, 15, 29, 0
18, 189360, Note_on_c, 15, 34, 84
18, 189464, Note_on_c, 15, 34, 0
18, 189480, Note_on_c, 15, 29, 84
18, 189584, Note_on_c, 15, 29, 0
18, 189600, Note_on_c, 15, 34, 84
18, 189704, Note_on_c, 15, 34, 0
18, 189720, Note_on_c, 15, 29, 84
18, 189824, Note_on_c, 15, 29, 0
18, 189840, Note_on_c, 15, 34, 84
18, 189944, Note_on_c, 15, 34, 0
18, 189960, Note_on_c, 15, 29, 84
18, 190064, Note_on_c, 15, 29, 0
18, 190080, Note_on_c, 15, 34, 84
18, 190184, Note_on_c, 15, 34, 0
18, 190200, Note_on_c, 15, 29, 84
18, 190304, Note_on_c, 15, 29, 0
18, 190320, Note_on_c, 15, 34, 84
18, 190424, Note_on_c, 15, 34, 0
18, 190440, Note_on_c, 15, 29, 84
18, 190544, Note_on_c, 15, 29, 0
18, 190560, Note_on_c, 15, 34, 84
18, 190664, Note_on_c, 15, 34, 0
18, 190680, Note_on_c, 15, 29, 84
18, 190784, Note_on_c, 15, 29, 0
18, 190800, Note_on_c, 15, 33, 84
18, 190904, Note_on_c, 15, 33, 0
18, 190920, Note_on_c, 15, 29, 84
18, 191024, Note_on_c, 15, 29, 0
18, 191040, Note_on_c, 15, 33, 84
18, 191144, Note_on_c, 15, 33, 0
18, 191160, Note_on_c, 15, 29, 84
18, 191264, Note_on_c, 15, 29, 0
18, 191280, Note_on_c, 15, 33, 84
18, 191384, Note_on_c, 15, 33, 0
18, 191400, Note_on_c, 15, 29, 84
18, 191504, Note_on_c, 15, 29, 0
18, 191520, Note_on_c, 15, 36, 84
18, 191624, Note_on_c, 15, 36, 0
18, 191640, Note_on_c, 15, 29, 84
18, 191744, Note_on_c, 15, 29, 0
18, 191760, Note_on_c, 15, 39, 84
18, 191864, Note_on_c, 15, 39, 0
18, 191880, Note_on_c, 15, 41, 84
18, 191984, Note_on_c, 15, 41, 0
18, 192000, Note_on_c, 15, 39, 84
18, 192104, Note_on_c, 15, 39, 0
18, 192120, Note_on_c, 15, 41, 84
18, 192224, Note_on_c, 15, 41, 0
18, 192240, Note_on_c, 15, 38, 84
18, 192839, Note_on_c, 15, 38, 0
18, 192840, Note_on_c, 15, 37, 84
18, 192944, Note_on_c, 15, 37, 0
18, 192960, Note_on_c, 15, 38, 84
18, 193049, Note_on_c, 15, 38, 0
18, 193080, Note_on_c, 15, 33, 84
18, 193169, Note_on_c, 15, 33, 0
18, 193200, Note_on_c, 15, 34, 84
18, 193289, Note_on_c, 15, 34, 0
18, 193320, Note_on_c, 15, 36, 84
18, 193409, Note_on_c, 15, 36, 0
18, 193440, Note_on_c, 15, 37, 84
18, 193529, Note_on_c, 15, 37, 0
18, 193560, Note_on_c, 15, 38, 84
18, 193649, Note_on_c, 15, 38, 0
18, 193680, Note_on_c, 15, 39, 84
18, 193769, Note_on_c, 15, 39, 0
18, 193800, Note_on_c, 15, 38, 84
18, 193889, Note_on_c, 15, 38, 0
18, 193920, Note_on_c, 15, 36, 92
18, 194009, Note_on_c, 15, 36, 0
18, 194040, Note_on_c, 15, 40, 84
18, 194129, Note_on_c, 15, 40, 0
18, 194160, Note_on_c, 15, 41, 84
18, 194249, Note_on_c, 15, 41, 0
18, 194280, Note_on_c, 15, 39, 84
18, 194369, Note_on_c, 15, 39, 0
18, 194400, Note_on_c, 15, 38, 92
18, 194489, Note_on_c, 15, 38, 0
18, 194520, Note_on_c, 15, 42, 84
18, 194609, Note_on_c, 15, 42, 0
18, 194640, Note_on_c, 15, 43, 84
18, 194729, Note_on_c, 15, 43, 0
18, 194760, Note_on_c, 15, 41, 84
18, 194849, Note_on_c, 15, 41, 0
18, 194880, Note_on_c, 15, 39, 92
18, 194969, Note_on_c, 15, 39, 0
18, 195000, Note_on_c, 15, 43, 84
18, 195089, Note_on_c, 15, 43, 0
18, 195120, Note_on_c, 15, 45, 84
18, 195209, Note_on_c, 15, 45, 0
18, 195240, Note_on_c, 15, 43, 84
18, 195329, Note_on_c, 15, 43, 0
18, 195360, Note_on_c, 15, 41, 92
18, 195449, Note_on_c, 15, 41, 0
18, 195480, Note_on_c, 15, 45, 84
18, 195569, Note_on_c, 15, 45, 0
18, 195600, Note_on_c, 15, 46, 84
18, 195689, Note_on_c, 15, 46, 0
18, 195720, Note_on_c, 15, 45, 84
18, 195809, Note_on_c, 15, 45, 0
18, 195840, Note_on_c, 15, 43, 84
18, 195929, Note_on_c, 15, 43, 0
18, 195960, Note_on_c, 15, 42, 84
18, 196049, Note_on_c, 15, 42, 0
18, 196080, Note_on_c, 15, 43, 84
18, 196169, Note_on_c, 15, 43, 0
18, 196200, Note_on_c, 15, 41, 84
18, 196289, Note_on_c, 15, 41, 0
18, 196320, Note_on_c, 15, 40, 84
18, 196409, Note_on_c, 15, 40, 0
18, 196440, Note_on_c, 15, 39, 84
18, 196529, Note_on_c, 15, 39, 0
18, 196560, Note_on_c, 15, 38, 84
18, 196739, Note_on_c, 15, 38, 0
18, 196800, Note_on_c, 15, 42, 84
18, 196979, Note_on_c, 15, 42, 0
18, 197040, Note_on_c, 15, 43, 84
18, 197219, Note_on_c, 15, 43, 0
18, 197520, Note_on_c, 15, 38, 84
18, 197699, Note_on_c, 15, 38, 0
18, 197760, Note_on_c, 15, 39, 84
18, 197939, Note_on_c, 15, 39, 0
18, 198240, Note_on_c, 15, 40, 84
18, 198419, Note_on_c, 15, 40, 0
18, 198480, Note_on_c, 15, 41, 84
18, 198659, Note_on_c, 15, 41, 0
18, 198960, Note_on_c, 15, 42, 84
18, 199139, Note_on_c, 15, 42, 0
18, 199200, Note_on_c, 15, 43, 84
18, 199379, Note_on_c, 15, 43, 0
18, 199680, Note_on_c, 15, 38, 84
18, 199859, Note_on_c, 15, 38, 0
18, 199920, Note_on_c, 15, 39, 84
18, 200099, Note_on_c, 15, 39, 0
18, 200400, Note_on_c, 15, 40, 92
18, 200579, Note_on_c, 15, 40, 0
18, 200880, Note_on_c, 15, 40, 92
18, 201059, Note_on_c, 15, 40, 0
18, 201360, Note_on_c, 15, 40, 92
18, 201539, Note_on_c, 15, 40, 0
18, 201840, Note_on_c, 15, 40, 92
18, 202019, Note_on_c, 15, 40, 0
18, 202320, Note_on_c, 15, 40, 92
18, 202499, Note_on_c, 15, 40, 0
18, 202800, Note_on_c, 15, 40, 92
18, 202979, Note_on_c, 15, 40, 0
18, 205920, Note_on_c, 15, 31, 52
18, 206159, Note_on_c, 15, 31, 0
18, 206640, Note_on_c, 15, 32, 52
18, 206879, Note_on_c, 15, 32, 0
18, 207360, Note_on_c, 15, 33, 52
18, 207599, Note_on_c, 15, 33, 0
18, 208080, Note_on_c, 15, 34, 52
18, 208319, Note_on_c, 15, 34, 0
18, 208560, Control_c, 15, 11, 64
18, 208800, Note_on_c, 15, 39, 84
18, 208800, Control_c, 15, 11, 64
18, 208890, Control_c, 15, 11, 67
18, 208904, Note_on_c, 15, 39, 0
18, 208920, Note_on_c, 15, 39, 84
18, 208980, Control_c, 15, 11, 69
18, 209024, Note_on_c, 15, 39, 0
18, 209040, Note_on_c, 15, 39, 84
18, 209070, Control_c, 15, 11, 72
18, 209144, Note_on_c, 15, 39, 0
18, 209160, Note_on_c, 15, 39, 84
18, 209160, Control_c, 15, 11, 75
18, 209250, Control_c, 15, 11, 77
18, 209264, Note_on_c, 15, 39, 0
18, 209280, Note_on_c, 15, 39, 84
18, 209340, Control_c, 15, 11, 80
18, 209384, Note_on_c, 15, 39, 0
18, 209400, Note_on_c, 15, 39, 84
18, 209430, Control_c, 15, 11, 82
18, 209504, Note_on_c, 15, 39, 0
18, 209520, Control_c, 15, 11, 85
18, 209520, Note_on_c, 15, 36, 84
18, 209610, Control_c, 15, 11, 88
18, 209624, Note_on_c, 15, 36, 0
18, 209640, Note_on_c, 15, 36, 84
18, 209700, Control_c, 15, 11, 90
18, 209744, Note_on_c, 15, 36, 0
18, 209760, Note_on_c, 15, 36, 84
18, 209790, Control_c, 15, 11, 93
18, 209864, Note_on_c, 15, 36, 0
18, 209880, Note_on_c, 15, 36, 84
18, 209880, Control_c, 15, 11, 96
18, 209970, Control_c, 15, 11, 98
18, 209999, Note_on_c, 15, 36, 0
18, 210000, Note_on_c, 15, 38, 84
18, 210060, Control_c, 15, 11, 101
18, 210119, Note_on_c, 15, 38, 0
18, 210120, Note_on_c, 15, 39, 84
18, 210150, Control_c, 15, 11, 103
18, 210224, Note_on_c, 15, 39, 0
18, 210240, Control_c, 15, 11, 106
18, 210240, Note_on_c, 15, 41, 84
18, 210330, Control_c, 15, 11, 109
18, 210344, Note_on_c, 15, 41, 0
18, 210360, Note_on_c, 15, 41, 84
18, 210420, Control_c, 15, 11, 111
18, 210464, Note_on_c, 15, 41, 0
18, 210480, Note_on_c, 15, 41, 84
18, 210510, Control_c, 15, 11, 114
18, 210584, Note_on_c, 15, 41, 0
18, 210600, Note_on_c, 15, 41, 84
18, 210600, Control_c, 15, 11, 117
18, 210690, Control_c, 15, 11, 119
18, 210704, Note_on_c, 15, 41, 0
18, 210720, Note_on_c, 15, 38, 84
18, 210780, Control_c, 15, 11, 122
18, 210824, Note_on_c, 15, 38, 0
18, 210840, Note_on_c, 15, 34, 84
18, 210870, Control_c, 15, 11, 127
18, 210944, Note_on_c, 15, 34, 0
18, 210960, Note_on_c, 15, 29, 84
18, 211064, Note_on_c, 15, 29, 0
18, 211080, Note_on_c, 15, 41, 84
18, 211184, Note_on_c, 15, 41, 0
18, 211200, Note_on_c, 15, 41, 84
18, 211304, Note_on_c, 15, 41, 0
18, 211320, Note_on_c, 15, 41, 84
18, 211424, Note_on_c, 15, 41, 0
18, 211440, Note_on_c, 15, 41, 84
18, 211544, Note_on_c, 15, 41, 0
18, 211560, Note_on_c, 15, 41, 84
18, 211664, Note_on_c, 15, 41, 0
18, 211680, Note_on_c, 15, 46, 76
18, 211859, Note_on_c, 15, 46, 0
18, 212400, Note_on_c, 15, 34, 76
18, 212579, Note_on_c, 15, 34, 0
18, 213120, Note_on_c, 15, 34, 76
18, 213299, Note_on_c, 15, 34, 0
18, 213840, Note_on_c, 15, 34, 76
18, 214019, Note_on_c, 15, 34, 0
18, 214080, Note_on_c, 15, 34, 76
18, 214259, Note_on_c, 15, 34, 0
18, 214320, Note_on_c, 15, 34, 76
18, 214499, Note_on_c, 15, 34, 0
18, 214560, Note_on_c, 15, 34, 76
18, 214680, Control_c, 15, 11, 80
18, 215999, Note_on_c, 15, 34, 0
18, 216000, Note_on_c, 15, 34, 76
18, 216000, Control_c, 15, 11, 80
18, 216120, Control_c, 15, 11, 79
18, 216240, Control_c, 15, 11, 77
18, 216360, Control_c, 15, 11, 76
18, 216480, Control_c, 15, 11, 75
18, 216600, Control_c, 15, 11, 73
18, 216720, Control_c, 15, 11, 72
18, 216840, Control_c, 15, 11, 71
18, 216960, Control_c, 15, 11, 69
18, 217080, Control_c, 15, 11, 68
18, 217200, Control_c, 15, 11, 67
18, 217424, Note_on_c, 15, 34, 0
18, 217432, Control_c, 15, 11, 96
18, 217440, Note_on_c, 15, 34, 60
18, 217919, Note_on_c, 15, 34, 0
18, 217920, Note_on_c, 15, 35, 60
18, 218159, Note_on_c, 15, 35, 0
18, 218160, Note_on_c, 15, 33, 60
18, 218639, Note_on_c, 15, 33, 0
18, 218640, Note_on_c, 15, 34, 60
18, 218864, Note_on_c, 15, 34, 0
18, 218880, Note_on_c, 15, 32, 60
18, 220304, Note_on_c, 15, 32, 0
18, 220320, Note_on_c, 15, 31, 60
18, 221744, Note_on_c, 15, 31, 0
18, 221760, Note_on_c, 15, 32, 60
18, 223184, Note_on_c, 15, 32, 0
18, 223200, Note_on_c, 15, 31, 60
18, 223439, Note_on_c, 15, 31, 0
18, 223680, Control_c, 15, 11, 80
18, 223920, Note_on_c, 15, 43, 68
18, 224159, Note_on_c, 15, 43, 0
18, 224640, Note_on_c, 15, 43, 68
18, 224879, Note_on_c, 15, 43, 0
18, 225360, Note_on_c, 15, 43, 68
18, 225599, Note_on_c, 15, 43, 0
18, 226080, Note_on_c, 15, 43, 68
18, 226080, Control_c, 15, 11, 80
18, 226140, Control_c, 15, 11, 84
18, 226200, Control_c, 15, 11, 88
18, 226260, Control_c, 15, 11, 92
18, 226290, Control_c, 15, 11, 94
18, 226319, Note_on_c, 15, 43, 0
18, 226770, Control_c, 15, 11, 127
18, 226800, Note_on_c, 15, 31, 76
18, 227039, Note_on_c, 15, 31, 0
18, 227520, Note_on_c, 15, 31, 52
18, 227759, Note_on_c, 15, 31, 0
18, 228960, Note_on_c, 15, 35, 52
18, 229199, Note_on_c, 15, 35, 0
18, 229680, Note_on_c, 15, 31, 52
18, 229919, Note_on_c, 15, 31, 0
18, 230400, Note_on_c, 15, 36, 52
18, 230639, Note_on_c, 15, 36, 0
18, 231840, Note_on_c, 15, 40, 52
18, 232079, Note_on_c, 15, 40, 0
18, 232560, Note_on_c, 15, 36, 52
18, 232799, Note_on_c, 15, 36, 0
18, 233280, Note_on_c, 15, 38, 52
18, 233519, Note_on_c, 15, 38, 0
18, 234000, Note_on_c, 15, 31, 68
18, 234120, Control_c, 15, 11, 96
18, 234809, Note_on_c, 15, 31, 0
18, 234840, Note_on_c, 15, 33, 68
18, 234929, Note_on_c, 15, 33, 0
18, 234960, Note_on_c, 15, 35, 68
18, 235049, Note_on_c, 15, 35, 0
18, 235080, Note_on_c, 15, 36, 68
18, 235169, Note_on_c, 15, 36, 0
18, 235200, Note_on_c, 15, 38, 68
18, 235289, Note_on_c, 15, 38, 0
18, 235320, Note_on_c, 15, 40, 68
18, 235409, Note_on_c, 15, 40, 0
18, 235440, Note_on_c, 15, 41, 68
18, 235529, Note_on_c, 15, 41, 0
18, 235560, Note_on_c, 15, 38, 68
18, 235649, Note_on_c, 15, 38, 0
18, 235680, Note_on_c, 15, 35, 68
18, 235769, Note_on_c, 15, 35, 0
18, 235800, Note_on_c, 15, 31, 68
18, 235889, Note_on_c, 15, 31, 0
18, 235920, Note_on_c, 15, 33, 68
18, 236009, Note_on_c, 15, 33, 0
18, 236040, Note_on_c, 15, 35, 68
18, 236129, Note_on_c, 15, 35, 0
18, 236145, Control_c, 15, 11, 80
18, 236160, Note_on_c, 15, 36, 68
18, 236639, Note_on_c, 15, 36, 0
18, 236640, Note_on_c, 15, 39, 68
18, 236879, Note_on_c, 15, 39, 0
18, 236880, Note_on_c, 15, 36, 68
18, 237359, Note_on_c, 15, 36, 0
18, 237360, Note_on_c, 15, 31, 68
18, 237584, Note_on_c, 15, 31, 0
18, 237600, Note_on_c, 15, 36, 68
18, 237839, Note_on_c, 15, 36, 0
18, 238785, Control_c, 15, 11, 127
18, 238800, Note_on_c, 15, 32, 44
18, 239024, Note_on_c, 15, 32, 0
18, 239040, Note_on_c, 15, 37, 52
18, 239519, Note_on_c, 15, 37, 0
18, 239520, Note_on_c, 15, 40, 52
18, 239759, Note_on_c, 15, 40, 0
18, 239760, Note_on_c, 15, 37, 52
18, 240239, Note_on_c, 15, 37, 0
18, 240240, Note_on_c, 15, 32, 52
18, 240464, Note_on_c, 15, 32, 0
18, 240480, Note_on_c, 15, 37, 52
18, 240719, Note_on_c, 15, 37, 0
18, 241620, Control_c, 15, 11, 107
18, 241680, Control_c, 15, 11, 111
18, 241680, Note_on_c, 15, 33, 76
18, 241740, Control_c, 15, 11, 115
18, 241800, Control_c, 15, 11, 119
18, 241860, Control_c, 15, 11, 127
18, 241919, Note_on_c, 15, 33, 0
18, 241920, Note_on_c, 15, 38, 84
18, 242399, Note_on_c, 15, 38, 0
18, 242400, Note_on_c, 15, 41, 84
18, 242639, Note_on_c, 15, 41, 0
18, 242640, Note_on_c, 15, 38, 84
18, 243119, Note_on_c, 15, 38, 0
18, 243120, Note_on_c, 15, 33, 84
18, 243344, Note_on_c, 15, 33, 0
18, 243360, Note_on_c, 15, 38, 84
18, 243839, Note_on_c, 15, 38, 0
18, 243840, Note_on_c, 15, 41, 84
18, 244079, Note_on_c, 15, 41, 0
18, 244080, Note_on_c, 15, 38, 84
18, 244559, Note_on_c, 15, 38, 0
18, 244560, Note_on_c, 15, 33, 84
18, 244799, Note_on_c, 15, 33, 0
18, 244800, Note_on_c, 15, 40, 84
18, 245279, Note_on_c, 15, 40, 0
18, 245280, Note_on_c, 15, 43, 84
18, 245519, Note_on_c, 15, 43, 0
18, 245520, Note_on_c, 15, 40, 84
18, 245999, Note_on_c, 15, 40, 0
18, 246000, Note_on_c, 15, 33, 84
18, 246224, Note_on_c, 15, 33, 0
18, 246240, Note_on_c, 15, 40, 84
18, 246719, Note_on_c, 15, 40, 0
18, 246720, Note_on_c, 15, 43, 84
18, 246944, Note_on_c, 15, 43, 0
18, 246960, Note_on_c, 15, 40, 84
18, 247439, Note_on_c, 15, 40, 0
18, 247440, Note_on_c, 15, 43, 84
18, 247664, Note_on_c, 15, 43, 0
18, 247680, Note_on_c, 15, 42, 52
18, 247769, Note_on_c, 15, 42, 0
18, 247800, Note_on_c, 15, 48, 52
18, 247889, Note_on_c, 15, 48, 0
18, 247920, Note_on_c, 15, 48, 52
18, 248009, Note_on_c, 15, 48, 0
18, 248520, Note_on_c, 15, 46, 52
18, 248609, Note_on_c, 15, 46, 0
18, 248640, Note_on_c, 15, 46, 52
18, 248729, Note_on_c, 15, 46, 0
18, 249120, Note_on_c, 15, 42, 52
18, 249359, Note_on_c, 15, 42, 0
18, 249960, Note_on_c, 15, 42, 57
18, 250064, Note_on_c, 15, 42, 0
18, 250080, Note_on_c, 15, 42, 62
18, 250184, Note_on_c, 15, 42, 0
18, 250200, Note_on_c, 15, 42, 68
18, 250304, Note_on_c, 15, 42, 0
18, 250320, Note_on_c, 15, 42, 73
18, 250424, Note_on_c, 15, 42, 0
18, 250440, Note_on_c, 15, 42, 78
18, 250544, Note_on_c, 15, 42, 0
18, 250560, Note_on_c, 15, 43, 84
18, 251039, Note_on_c, 15, 43, 0
18, 251040, Note_on_c, 15, 46, 92
18, 251279, Note_on_c, 15, 46, 0
18, 251280, Note_on_c, 15, 43, 84
18, 251759, Note_on_c, 15, 43, 0
18, 251760, Note_on_c, 15, 38, 84
18, 251984, Note_on_c, 15, 38, 0
18, 252000, Note_on_c, 15, 43, 84
18, 252479, Note_on_c, 15, 43, 0
18, 252480, Note_on_c, 15, 46, 92
18, 252719, Note_on_c, 15, 46, 0
18, 252720, Note_on_c, 15, 43, 84
18, 253199, Note_on_c, 15, 43, 0
18, 253200, Note_on_c, 15, 38, 84
18, 253424, Note_on_c, 15, 38, 0
18, 253440, Note_on_c, 15, 45, 84
18, 253919, Note_on_c, 15, 45, 0
18, 253920, Note_on_c, 15, 48, 92
18, 254159, Note_on_c, 15, 48, 0
18, 254160, Note_on_c, 15, 45, 84
18, 254639, Note_on_c, 15, 45, 0
18, 254640, Note_on_c, 15, 38, 84
18, 254864, Note_on_c, 15, 38, 0
18, 254880, Note_on_c, 15, 45, 84
18, 255359, Note_on_c, 15, 45, 0
18, 255360, Note_on_c, 15, 48, 84
18, 255584, Note_on_c, 15, 48, 0
18, 255600, Note_on_c, 15, 45, 84
18, 256079, Note_on_c, 15, 45, 0
18, 256080, Note_on_c, 15, 48, 84
18, 256304, Note_on_c, 15, 48, 0
18, 256320, Note_on_c, 15, 47, 52
18, 256439, Note_on_c, 15, 47, 0
18, 256440, Note_on_c, 15, 53, 52
18, 256529, Note_on_c, 15, 53, 0
18, 256560, Note_on_c, 15, 53, 52
18, 256649, Note_on_c, 15, 53, 0
18, 257160, Note_on_c, 15, 51, 52
18, 257249, Note_on_c, 15, 51, 0
18, 257280, Note_on_c, 15, 51, 52
18, 257369, Note_on_c, 15, 51, 0
18, 257760, Note_on_c, 15, 47, 52
18, 257999, Note_on_c, 15, 47, 0
18, 258600, Note_on_c, 15, 47, 54
18, 258704, Note_on_c, 15, 47, 0
18, 258720, Note_on_c, 15, 47, 57
18, 258824, Note_on_c, 15, 47, 0
18, 258840, Note_on_c, 15, 47, 60
18, 258944, Note_on_c, 15, 47, 0
18, 258960, Note_on_c, 15, 47, 62
18, 259064, Note_on_c, 15, 47, 0
18, 259080, Note_on_c, 15, 47, 65
18, 259184, Note_on_c, 15, 47, 0
18, 259200, Note_on_c, 15, 46, 52
18, 259289, Note_on_c, 15, 46, 0
18, 259320, Note_on_c, 15, 46, 52
18, 259409, Note_on_c, 15, 46, 0
18, 259440, Note_on_c, 15, 46, 52
18, 259529, Note_on_c, 15, 46, 0
18, 260040, Note_on_c, 15, 44, 52
18, 260129, Note_on_c, 15, 44, 0
18, 260160, Note_on_c, 15, 44, 52
18, 260249, Note_on_c, 15, 44, 0
18, 260760, Note_on_c, 15, 40, 54
18, 260849, Note_on_c, 15, 40, 0
18, 260880, Note_on_c, 15, 40, 56
18, 260969, Note_on_c, 15, 40, 0
18, 261480, Note_on_c, 15, 40, 66
18, 261584, Note_on_c, 15, 40, 0
18, 261600, Note_on_c, 15, 40, 68
18, 261704, Note_on_c, 15, 40, 0
18, 261720, Note_on_c, 15, 40, 70
18, 261824, Note_on_c, 15, 40, 0
18, 261840, Note_on_c, 15, 40, 72
18, 261944, Note_on_c, 15, 40, 0
18, 261960, Note_on_c, 15, 40, 74
18, 262064, Note_on_c, 15, 40, 0
18, 262080, Note_on_c, 15, 39, 76
18, 262169, Note_on_c, 15, 39, 0
18, 262200, Note_on_c, 15, 51, 76
18, 262289, Note_on_c, 15, 51, 0
18, 262320, Note_on_c, 15, 51, 76
18, 262409, Note_on_c, 15, 51, 0
18, 262920, Note_on_c, 15, 49, 76
18, 263009, Note_on_c, 15, 49, 0
18, 263040, Note_on_c, 15, 49, 76
18, 263129, Note_on_c, 15, 49, 0
18, 263640, Note_on_c, 15, 49, 76
18, 263729, Note_on_c, 15, 49, 0
18, 263760, Note_on_c, 15, 49, 76
18, 263849, Note_on_c, 15, 49, 0
18, 264360, Note_on_c, 15, 36, 76
18, 264449, Note_on_c, 15, 36, 0
18, 264480, Note_on_c, 15, 36, 76
18, 264569, Note_on_c, 15, 36, 0
18, 264960, Note_on_c, 15, 29, 84
18, 265064, Note_on_c, 15, 29, 0
18, 265080, Note_on_c, 15, 41, 84
18, 265184, Note_on_c, 15, 41, 0
18, 265200, Note_on_c, 15, 41, 84
18, 265304, Note_on_c, 15, 41, 0
18, 265320, Note_on_c, 15, 41, 84
18, 265424, Note_on_c, 15, 41, 0
18, 265440, Note_on_c, 15, 41, 84
18, 265544, Note_on_c, 15, 41, 0
18, 265560, Note_on_c, 15, 41, 84
18, 265664, Note_on_c, 15, 41, 0
18, 265680, Note_on_c, 15, 40, 84
18, 265784, Note_on_c, 15, 40, 0
18, 265800, Note_on_c, 15, 40, 84
18, 265904, Note_on_c, 15, 40, 0
18, 265920, Note_on_c, 15, 40, 84
18, 266024, Note_on_c, 15, 40, 0
18, 266040, Note_on_c, 15, 40, 84
18, 266144, Note_on_c, 15, 40, 0
18, 266160, Note_on_c, 15, 40, 84
18, 266264, Note_on_c, 15, 40, 0
18, 266280, Note_on_c, 15, 40, 84
18, 266384, Note_on_c, 15, 40, 0
18, 266400, Note_on_c, 15, 39, 84
18, 266639, Note_on_c, 15, 39, 0
18, 267840, Note_on_c, 15, 43, 52
18, 268079, Note_on_c, 15, 43, 0
18, 268560, Note_on_c, 15, 39, 52
18, 268799, Note_on_c, 15, 39, 0
18, 269280, Note_on_c, 15, 44, 52
18, 269519, Note_on_c, 15, 44, 0
18, 270720, Note_on_c, 15, 48, 52
18, 270959, Note_on_c, 15, 48, 0
18, 271440, Note_on_c, 15, 44, 52
18, 271679, Note_on_c, 15, 44, 0
18, 272160, Note_on_c, 15, 43, 52
18, 272399, Note_on_c, 15, 43, 0
18, 273600, Note_on_c, 15, 39, 68
18, 273720, Control_c, 15, 11, 96
18, 274409, Note_on_c, 15, 39, 0
18, 274440, Note_on_c, 15, 41, 68
18, 274529, Note_on_c, 15, 41, 0
18, 274560, Note_on_c, 15, 39, 68
18, 274649, Note_on_c, 15, 39, 0
18, 274680, Note_on_c, 15, 37, 68
18, 274769, Note_on_c, 15, 37, 0
18, 274800, Note_on_c, 15, 36, 68
18, 274889, Note_on_c, 15, 36, 0
18, 274920, Note_on_c, 15, 34, 68
18, 275009, Note_on_c, 15, 34, 0
18, 275025, Control_c, 15, 11, 112
18, 275040, Note_on_c, 15, 32, 60
18, 275219, Note_on_c, 15, 32, 0
18, 275280, Note_on_c, 15, 49, 60
18, 275639, Note_on_c, 15, 49, 0
18, 275640, Note_on_c, 15, 48, 60
18, 275744, Note_on_c, 15, 48, 0
18, 275752, Control_c, 15, 11, 127
18, 275760, Note_on_c, 15, 47, 52
18, 275939, Note_on_c, 15, 47, 0
18, 276000, Note_on_c, 15, 48, 52
18, 276359, Note_on_c, 15, 48, 0
18, 276360, Note_on_c, 15, 41, 52
18, 276464, Note_on_c, 15, 41, 0
18, 276480, Note_on_c, 15, 40, 52
18, 276659, Note_on_c, 15, 40, 0
18, 276720, Note_on_c, 15, 46, 52
18, 277079, Note_on_c, 15, 46, 0
18, 277080, Note_on_c, 15, 43, 52
18, 277184, Note_on_c, 15, 43, 0
18, 277200, Note_on_c, 15, 40, 52
18, 277379, Note_on_c, 15, 40, 0
18, 277440, Note_on_c, 15, 43, 52
18, 277799, Note_on_c, 15, 43, 0
18, 277800, Note_on_c, 15, 36, 52
18, 277904, Note_on_c, 15, 36, 0
18, 277920, Note_on_c, 15, 41, 52
18, 278159, Note_on_c, 15, 41, 0
18, 282000, Control_c, 15, 11, 80
18, 282120, Note_on_c, 15, 36, 76
18, 282224, Note_on_c, 15, 36, 0
18, 282240, Note_on_c, 15, 34, 76
18, 282464, Note_on_c, 15, 34, 0
18, 282480, Note_on_c, 15, 43, 92
18, 282480, Control_c, 15, 11, 80
18, 282660, Control_c, 15, 11, 82
18, 282824, Note_on_c, 15, 43, 0
18, 282840, Note_on_c, 15, 34, 76
18, 282840, Control_c, 15, 11, 84
18, 282944, Note_on_c, 15, 34, 0
18, 282960, Note_on_c, 15, 33, 76
18, 283020, Control_c, 15, 11, 86
18, 283049, Note_on_c, 15, 33, 0
18, 283080, Note_on_c, 15, 42, 76
18, 283169, Note_on_c, 15, 42, 0
18, 283200, Control_c, 15, 11, 88
18, 283200, Note_on_c, 15, 31, 76
18, 283289, Note_on_c, 15, 31, 0
18, 283320, Note_on_c, 15, 43, 76
18, 283380, Control_c, 15, 11, 90
18, 283409, Note_on_c, 15, 43, 0
18, 283440, Note_on_c, 15, 39, 76
18, 283529, Note_on_c, 15, 39, 0
18, 283560, Note_on_c, 15, 38, 76
18, 283560, Control_c, 15, 11, 92
18, 283649, Note_on_c, 15, 38, 0
18, 283680, Note_on_c, 15, 37, 76
18, 283740, Control_c, 15, 11, 94
18, 283919, Note_on_c, 15, 37, 0
18, 283920, Control_c, 15, 11, 96
18, 284100, Control_c, 15, 11, 98
18, 284280, Control_c, 15, 11, 100
18, 284400, Note_on_c, 15, 38, 76
18, 284460, Control_c, 15, 11, 102
18, 284639, Note_on_c, 15, 38, 0
18, 284640, Control_c, 15, 11, 104
18, 284760, Note_on_c, 15, 38, 76
18, 284819, Note_on_c, 15, 38, 0
18, 284820, Note_on_c, 15, 37, 76
18, 284820, Control_c, 15, 11, 105
18, 284871, Note_on_c, 15, 37, 0
18, 284880, Note_on_c, 15, 38, 76
18, 284984, Note_on_c, 15, 38, 0
18, 285000, Control_c, 15, 11, 107
18, 285000, Note_on_c, 15, 36, 76
18, 285104, Note_on_c, 15, 36, 0
18, 285120, Note_on_c, 15, 35, 76
18, 285180, Control_c, 15, 11, 109
18, 285359, Note_on_c, 15, 35, 0
18, 285360, Control_c, 15, 11, 111
18, 285480, Note_on_c, 15, 37, 76
18, 285539, Note_on_c, 15, 37, 0
18, 285540, Control_c, 15, 11, 113
18, 285540, Note_on_c, 15, 35, 76
18, 285591, Note_on_c, 15, 35, 0
18, 285600, Note_on_c, 15, 37, 76
18, 285689, Note_on_c, 15, 37, 0
18, 285720, Control_c, 15, 11, 115
18, 285720, Note_on_c, 15, 33, 76
18, 285809, Note_on_c, 15, 33, 0
18, 285840, Note_on_c, 15, 38, 76
18, 285900, Control_c, 15, 11, 117
18, 285929, Note_on_c, 15, 38, 0
18, 285960, Note_on_c, 15, 38, 76
18, 286019, Note_on_c, 15, 38, 0
18, 286020, Note_on_c, 15, 37, 76
18, 286071, Note_on_c, 15, 37, 0
18, 286080, Control_c, 15, 11, 119
18, 286080, Note_on_c, 15, 38, 76
18, 286169, Note_on_c, 15, 38, 0
18, 286200, Note_on_c, 15, 36, 76
18, 286260, Control_c, 15, 11, 121
18, 286289, Note_on_c, 15, 36, 0
18, 286320, Note_on_c, 15, 34, 76
18, 286409, Note_on_c, 15, 34, 0
18, 286440, Control_c, 15, 11, 123
18, 286440, Note_on_c, 15, 33, 76
18, 286529, Note_on_c, 15, 33, 0
18, 286560, Note_on_c, 15, 32, 76
18, 286620, Control_c, 15, 11, 127
18, 286784, Note_on_c, 15, 32, 0
18, 286800, Note_on_c, 15, 38, 84
18, 288224, Note_on_c, 15, 38, 0
18, 288240, Note_on_c, 15, 38, 92
18, 288689, Note_on_c, 15, 38, 0
18, 288720, Note_on_c, 15, 38, 92
18, 289169, Note_on_c, 15, 38, 0
18, 289200, Note_on_c, 15, 38, 92
18, 289649, Note_on_c, 15, 38, 0
18, 289680, Note_on_c, 15, 38, 92
18, 290129, Note_on_c, 15, 38, 0
18, 290160, Note_on_c, 15, 38, 92
18, 290609, Note_on_c, 15, 38, 0
18, 290640, Note_on_c, 15, 38, 92
18, 290849, Note_on_c, 15, 38, 0
18, 290880, Note_on_c, 15, 36, 84
18, 290880, Note_on_c, 15, 24, 84
18, 291059, Note_on_c, 15, 36, 0
18, 291059, Note_on_c, 15, 24, 0
18, 291120, Note_on_c, 15, 36, 92
18, 292529, Note_on_c, 15, 36, 0
18, 292560, Note_on_c, 15, 36, 92
18, 293009, Note_on_c, 15, 36, 0
18, 293040, Note_on_c, 15, 36, 92
18, 293489, Note_on_c, 15, 36, 0
18, 293520, Note_on_c, 15, 36, 92
18, 293969, Note_on_c, 15, 36, 0
18, 294000, Note_on_c, 15, 36, 92
18, 294449, Note_on_c, 15, 36, 0
18, 294480, Note_on_c, 15, 36, 92
18, 294929, Note_on_c, 15, 36, 0
18, 294960, Note_on_c, 15, 36, 92
18, 295169, Note_on_c, 15, 36, 0
18, 295200, Note_on_c, 15, 35, 84
18, 295379, Note_on_c, 15, 35, 0
18, 295440, Note_on_c, 15, 47, 92
18, 296849, Note_on_c, 15, 47, 0
18, 296880, Note_on_c, 15, 35, 92
18, 297329, Note_on_c, 15, 35, 0
18, 297360, Note_on_c, 15, 35, 92
18, 297809, Note_on_c, 15, 35, 0
18, 297840, Note_on_c, 15, 35, 92
18, 298289, Note_on_c, 15, 35, 0
18, 298320, Note_on_c, 15, 35, 92
18, 298769, Note_on_c, 15, 35, 0
18, 298800, Note_on_c, 15, 35, 92
18, 299249, Note_on_c, 15, 35, 0
18, 299280, Note_on_c, 15, 35, 92
18, 299489, Note_on_c, 15, 35, 0
18, 299520, Note_on_c, 15, 34, 84
18, 299744, Note_on_c, 15, 34, 0
18, 299760, Note_on_c, 15, 46, 92
18, 301169, Note_on_c, 15, 46, 0
18, 301200, Note_on_c, 15, 46, 92
18, 301649, Note_on_c, 15, 46, 0
18, 301680, Note_on_c, 15, 46, 92
18, 302129, Note_on_c, 15, 46, 0
18, 302160, Note_on_c, 15, 46, 92
18, 302609, Note_on_c, 15, 46, 0
18, 302640, Note_on_c, 15, 46, 92
18, 303089, Note_on_c, 15, 46, 0
18, 303120, Note_on_c, 15, 46, 92
18, 303569, Note_on_c, 15, 46, 0
18, 303600, Note_on_c, 15, 46, 92
18, 303809, Note_on_c, 15, 46, 0
18, 303840, Note_on_c, 15, 33, 84
18, 304019, Note_on_c, 15, 33, 0
18, 304080, Note_on_c, 15, 45, 92
18, 304529, Note_on_c, 15, 45, 0
18, 304560, Note_on_c, 15, 45, 92
18, 305009, Note_on_c, 15, 45, 0
18, 305040, Note_on_c, 15, 45, 92
18, 305249, Note_on_c, 15, 45, 0
18, 305280, Note_on_c, 15, 31, 84
18, 305459, Note_on_c, 15, 31, 0
18, 305520, Note_on_c, 15, 43, 92
18, 305969, Note_on_c, 15, 43, 0
18, 306000, Note_on_c, 15, 43, 92
18, 306449, Note_on_c, 15, 43, 0
18, 306480, Note_on_c, 15, 43, 92
18, 306659, Note_on_c, 15, 43, 0
18, 306720, Note_on_c, 15, 33, 84
18, 306944, Note_on_c, 15, 33, 0
18, 306960, Note_on_c, 15, 45, 76
18, 307439, Note_on_c, 15, 45, 0
18, 307680, Note_on_c, 15, 45, 76
18, 308159, Note_on_c, 15, 45, 0
18, 308400, Note_on_c, 15, 45, 76
18, 308864, Note_on_c, 15, 45, 0
18, 308880, Note_on_c, 15, 45, 76
18, 309344, Note_on_c, 15, 45, 0
18, 309360, Note_on_c, 15, 45, 76
18, 309539, Note_on_c, 15, 45, 0
18, 309840, Note_on_c, 15, 35, 76
18, 310019, Note_on_c, 15, 35, 0
18, 310080, Note_on_c, 15, 35, 76
18, 310259, Note_on_c, 15, 35, 0
18, 310320, Note_on_c, 15, 35, 76
18, 310499, Note_on_c, 15, 35, 0
18, 310560, Note_on_c, 15, 35, 72
18, 310739, Note_on_c, 15, 35, 0
18, 310800, Note_on_c, 15, 35, 68
18, 310979, Note_on_c, 15, 35, 0
18, 311040, Note_on_c, 15, 35, 64
18, 311219, Note_on_c, 15, 35, 0
18, 311280, Note_on_c, 15, 35, 60
18, 311459, Note_on_c, 15, 35, 0
18, 311520, Note_on_c, 15, 35, 56
18, 311699, Note_on_c, 15, 35, 0
18, 311760, Note_on_c, 15, 35, 52
18, 311939, Note_on_c, 15, 35, 0
18, 312000, Note_on_c, 15, 35, 52
18, 312179, Note_on_c, 15, 35, 0
18, 312240, Note_on_c, 15, 35, 52
18, 312419, Note_on_c, 15, 35, 0
18, 312480, Note_on_c, 15, 40, 52
18, 312719, Note_on_c, 15, 40, 0
18, 313200, Program_c, 15, 45
18, 313440, Note_on_c, 15, 40, 52
18, 313679, Note_on_c, 15, 40, 0
18, 313680, Note_on_c, 15, 40, 52
18, 313919, Note_on_c, 15, 40, 0
18, 313920, Note_on_c, 15, 35, 52
18, 314159, Note_on_c, 15, 35, 0
18, 314880, Note_on_c, 15, 35, 52
18, 315119, Note_on_c, 15, 35, 0
18, 315120, Note_on_c, 15, 35, 52
18, 315359, Note_on_c, 15, 35, 0
18, 315360, Note_on_c, 15, 40, 52
18, 315599, Note_on_c, 15, 40, 0
18, 316320, Note_on_c, 15, 40, 52
18, 316559, Note_on_c, 15, 40, 0
18, 316560, Note_on_c, 15, 40, 52
18, 316799, Note_on_c, 15, 40, 0
18, 316800, Note_on_c, 15, 35, 52
18, 317039, Note_on_c, 15, 35, 0
18, 317760, Note_on_c, 15, 35, 52
18, 317999, Note_on_c, 15, 35, 0
18, 318000, Note_on_c, 15, 40, 52
18, 318239, Note_on_c, 15, 40, 0
18, 318240, Note_on_c, 15, 33, 52
18, 318479, Note_on_c, 15, 33, 0
18, 319200, Note_on_c, 15, 45, 52
18, 319439, Note_on_c, 15, 45, 0
18, 319440, Note_on_c, 15, 45, 52
18, 319679, Note_on_c, 15, 45, 0
18, 319680, Note_on_c, 15, 40, 52
18, 319919, Note_on_c, 15, 40, 0
18, 320640, Note_on_c, 15, 40, 52
18, 320879, Note_on_c, 15, 40, 0
18, 320880, Note_on_c, 15, 40, 52
18, 321119, Note_on_c, 15, 40, 0
18, 321120, Note_on_c, 15, 45, 52
18, 321359, Note_on_c, 15, 45, 0
18, 322080, Note_on_c, 15, 45, 52
18, 322319, Note_on_c, 15, 45, 0
18, 322320, Note_on_c, 15, 45, 52
18, 322559, Note_on_c, 15, 45, 0
18, 322560, Note_on_c, 15, 40, 52
18, 322799, Note_on_c, 15, 40, 0
18, 323040, Program_c, 15, 48
18, 323280, Control_c, 15, 11, 80
18, 323400, Control_c, 15, 11, 80
18, 323400, Note_on_c, 15, 40, 76
18, 323450, Control_c, 15, 11, 84
18, 323500, Control_c, 15, 11, 88
18, 323519, Note_on_c, 15, 40, 0
18, 323520, Note_on_c, 15, 43, 76
18, 323550, Control_c, 15, 11, 92
18, 323600, Control_c, 15, 11, 96
18, 323639, Note_on_c, 15, 43, 0
18, 323640, Note_on_c, 15, 41, 76
18, 323650, Control_c, 15, 11, 100
18, 323700, Control_c, 15, 11, 104
18, 323750, Control_c, 15, 11, 107
18, 323759, Note_on_c, 15, 41, 0
18, 323760, Note_on_c, 15, 40, 76
18, 323800, Control_c, 15, 11, 111
18, 323850, Control_c, 15, 11, 115
18, 323879, Note_on_c, 15, 40, 0
18, 323880, Note_on_c, 15, 38, 76
18, 323900, Control_c, 15, 11, 119
18, 323950, Control_c, 15, 11, 127
18, 323984, Note_on_c, 15, 38, 0
18, 324000, Note_on_c, 15, 36, 76
18, 324479, Note_on_c, 15, 36, 0
18, 324480, Note_on_c, 15, 40, 76
18, 324719, Note_on_c, 15, 40, 0
18, 324720, Note_on_c, 15, 36, 76
18, 325199, Note_on_c, 15, 36, 0
18, 325200, Note_on_c, 15, 31, 76
18, 325424, Note_on_c, 15, 31, 0
18, 325440, Note_on_c, 15, 36, 76
18, 325619, Note_on_c, 15, 36, 0
18, 325680, Note_on_c, 15, 40, 76
18, 325859, Note_on_c, 15, 40, 0
18, 325920, Note_on_c, 15, 43, 76
18, 326099, Note_on_c, 15, 43, 0
18, 326160, Note_on_c, 15, 36, 76
18, 326639, Note_on_c, 15, 36, 0
18, 326640, Note_on_c, 15, 31, 76
18, 326864, Note_on_c, 15, 31, 0
18, 326880, Note_on_c, 15, 36, 76
18, 327059, Note_on_c, 15, 36, 0
18, 327120, Note_on_c, 15, 40, 76
18, 327299, Note_on_c, 15, 40, 0
18, 327360, Note_on_c, 15, 43, 76
18, 327539, Note_on_c, 15, 43, 0
18, 327600, Note_on_c, 15, 48, 76
18, 327779, Note_on_c, 15, 48, 0
18, 327840, Note_on_c, 15, 52, 76
18, 328019, Note_on_c, 15, 52, 0
18, 328080, Note_on_c, 15, 55, 84
18, 328409, Note_on_c, 15, 55, 0
18, 328440, Note_on_c, 15, 53, 76
18, 328529, Note_on_c, 15, 53, 0
18, 328560, Note_on_c, 15, 50, 76
18, 328649, Note_on_c, 15, 50, 0
18, 328680, Note_on_c, 15, 47, 76
18, 328769, Note_on_c, 15, 47, 0
18, 328800, Note_on_c, 15, 43, 76
18, 328889, Note_on_c, 15, 43, 0
18, 328920, Note_on_c, 15, 41, 76
18, 329009, Note_on_c, 15, 41, 0
18, 329040, Note_on_c, 15, 38, 76
18, 329129, Note_on_c, 15, 38, 0
18, 329160, Note_on_c, 15, 41, 76
18, 329249, Note_on_c, 15, 41, 0
18, 329280, Note_on_c, 15, 38, 76
18, 329369, Note_on_c, 15, 38, 0
18, 329400, Note_on_c, 15, 35, 76
18, 329489, Note_on_c, 15, 35, 0
18, 329520, Note_on_c, 15, 31, 76
18, 329609, Note_on_c, 15, 31, 0
18, 329640, Note_on_c, 15, 35, 76
18, 329729, Note_on_c, 15, 35, 0
18, 329760, Note_on_c, 15, 36, 76
18, 329939, Note_on_c, 15, 36, 0
18, 330000, Note_on_c, 15, 39, 76
18, 330179, Note_on_c, 15, 39, 0
18, 330240, Note_on_c, 15, 43, 76
18, 330419, Note_on_c, 15, 43, 0
18, 330480, Note_on_c, 15, 48, 76
18, 330659, Note_on_c, 15, 48, 0
18, 330720, Note_on_c, 15, 51, 76
18, 330899, Note_on_c, 15, 51, 0
18, 330960, Note_on_c, 15, 55, 84
18, 331289, Note_on_c, 15, 55, 0
18, 331320, Note_on_c, 15, 53, 76
18, 331409, Note_on_c, 15, 53, 0
18, 331440, Note_on_c, 15, 50, 76
18, 331529, Note_on_c, 15, 50, 0
18, 331560, Note_on_c, 15, 47, 76
18, 331649, Note_on_c, 15, 47, 0
18, 331680, Note_on_c, 15, 43, 76
18, 331769, Note_on_c, 15, 43, 0
18, 331800, Note_on_c, 15, 41, 76
18, 331889, Note_on_c, 15, 41, 0
18, 331920, Note_on_c, 15, 38, 76
18, 332009, Note_on_c, 15, 38, 0
18, 332040, Note_on_c, 15, 41, 76
18, 332129, Note_on_c, 15, 41, 0
18, 332160, Note_on_c, 15, 38, 76
18, 332249, Note_on_c, 15, 38, 0
18, 332280, Note_on_c, 15, 35, 76
18, 332369, Note_on_c, 15, 35, 0
18, 332400, Note_on_c, 15, 31, 76
18, 332489, Note_on_c, 15, 31, 0
18, 332520, Note_on_c, 15, 35, 76
18, 332609, Note_on_c, 15, 35, 0
18, 332640, Note_on_c, 15, 36, 76
18, 332879, Note_on_c, 15, 36, 0
18, 332880, Note_on_c, 15, 39, 76
18, 333119, Note_on_c, 15, 39, 0
18, 333120, Note_on_c, 15, 43, 76
18, 333344, Note_on_c, 15, 43, 0
18, 333360, Note_on_c, 15, 44, 84
18, 333839, Note_on_c, 15, 44, 0
18, 333840, Note_on_c, 15, 36, 76
18, 334064, Note_on_c, 15, 36, 0
18, 334080, Note_on_c, 15, 37, 76
18, 334319, Note_on_c, 15, 37, 0
18, 334320, Note_on_c, 15, 41, 76
18, 334559, Note_on_c, 15, 41, 0
18, 334560, Note_on_c, 15, 45, 76
18, 334784, Note_on_c, 15, 45, 0
18, 334800, Note_on_c, 15, 46, 84
18, 335279, Note_on_c, 15, 46, 0
18, 335280, Note_on_c, 15, 38, 76
18, 335504, Note_on_c, 15, 38, 0
18, 335520, Note_on_c, 15, 39, 76
18, 335699, Note_on_c, 15, 39, 0
18, 335760, Note_on_c, 15, 31, 76
18, 335939, Note_on_c, 15, 31, 0
18, 336000, Note_on_c, 15, 34, 76
18, 336179, Note_on_c, 15, 34, 0
18, 336240, Note_on_c, 15, 39, 76
18, 336419, Note_on_c, 15, 39, 0
18, 336480, Note_on_c, 15, 43, 76
18, 336659, Note_on_c, 15, 43, 0
18, 336720, Note_on_c, 15, 46, 84
18, 337049, Note_on_c, 15, 46, 0
18, 337080, Note_on_c, 15, 44, 76
18, 337169, Note_on_c, 15, 44, 0
18, 337200, Note_on_c, 15, 41, 76
18, 337289, Note_on_c, 15, 41, 0
18, 337320, Note_on_c, 15, 38, 76
18, 337409, Note_on_c, 15, 38, 0
18, 337440, Note_on_c, 15, 34, 76
18, 337529, Note_on_c, 15, 34, 0
18, 337560, Note_on_c, 15, 32, 76
18, 337649, Note_on_c, 15, 32, 0
18, 337680, Note_on_c, 15, 29, 76
18, 337769, Note_on_c, 15, 29, 0
18, 337800, Note_on_c, 15, 44, 76
18, 337889, Note_on_c, 15, 44, 0
18, 337920, Note_on_c, 15, 41, 76
18, 338009, Note_on_c, 15, 41, 0
18, 338040, Note_on_c, 15, 38, 76
18, 338129, Note_on_c, 15, 38, 0
18, 338160, Note_on_c, 15, 34, 76
18, 338249, Note_on_c, 15, 34, 0
18, 338280, Note_on_c, 15, 38, 76
18, 338369, Note_on_c, 15, 38, 0
18, 338400, Note_on_c, 15, 39, 84
18, 338579, Note_on_c, 15, 39, 0
18, 338640, Note_on_c, 15, 30, 84
18, 338819, Note_on_c, 15, 30, 0
18, 338880, Note_on_c, 15, 34, 84
18, 339059, Note_on_c, 15, 34, 0
18, 339120, Note_on_c, 15, 39, 84
18, 339299, Note_on_c, 15, 39, 0
18, 339360, Note_on_c, 15, 42, 84
18, 339539, Note_on_c, 15, 42, 0
18, 339600, Note_on_c, 15, 46, 84
18, 339779, Note_on_c, 15, 46, 0
18, 339840, Note_on_c, 15, 51, 84
18, 340064, Note_on_c, 15, 51, 0
18, 340560, Program_c, 15, 45
18, 340800, Note_on_c, 15, 39, 52
18, 341039, Note_on_c, 15, 39, 0
18, 341040, Note_on_c, 15, 39, 52
18, 341279, Note_on_c, 15, 39, 0
18, 341280, Note_on_c, 15, 34, 52
18, 341519, Note_on_c, 15, 34, 0
18, 342240, Note_on_c, 15, 46, 52
18, 342479, Note_on_c, 15, 46, 0
18, 342480, Note_on_c, 15, 46, 52
18, 342719, Note_on_c, 15, 46, 0
18, 342720, Note_on_c, 15, 51, 52
18, 342959, Note_on_c, 15, 51, 0
18, 343440, Program_c, 15, 48
18, 343440, Control_c, 15, 11, 96
18, 343680, Note_on_c, 15, 39, 68
18, 343680, Control_c, 15, 11, 96
18, 343720, Control_c, 15, 11, 95
18, 343760, Control_c, 15, 11, 93
18, 343800, Control_c, 15, 11, 92
18, 343840, Control_c, 15, 11, 91
18, 343880, Control_c, 15, 11, 89
18, 343904, Note_on_c, 15, 39, 0
18, 343920, Note_on_c, 15, 39, 68
18, 343920, Control_c, 15, 11, 88
18, 343960, Control_c, 15, 11, 87
18, 344000, Control_c, 15, 11, 85
18, 344040, Control_c, 15, 11, 84
18, 344080, Control_c, 15, 11, 83
18, 344120, Control_c, 15, 11, 81
18, 344144, Note_on_c, 15, 39, 0
18, 344160, Note_on_c, 15, 41, 68
18, 344160, Control_c, 15, 11, 80
18, 344220, Control_c, 15, 11, 82
18, 344280, Control_c, 15, 11, 84
18, 344340, Control_c, 15, 11, 86
18, 344400, Control_c, 15, 11, 88
18, 344460, Control_c, 15, 11, 90
18, 344520, Control_c, 15, 11, 92
18, 344580, Control_c, 15, 11, 94
18, 344640, Control_c, 15, 11, 96
18, 344700, Control_c, 15, 11, 98
18, 344760, Control_c, 15, 11, 100
18, 344820, Control_c, 15, 11, 102
18, 344879, Note_on_c, 15, 41, 0
18, 344880, Note_on_c, 15, 37, 68
18, 344880, Control_c, 15, 11, 104
18, 344940, Control_c, 15, 11, 105
18, 345000, Control_c, 15, 11, 107
18, 345060, Control_c, 15, 11, 109
18, 345120, Control_c, 15, 11, 111
18, 345180, Control_c, 15, 11, 113
18, 345240, Control_c, 15, 11, 115
18, 345300, Control_c, 15, 11, 117
18, 345360, Control_c, 15, 11, 119
18, 345420, Control_c, 15, 11, 121
18, 345480, Control_c, 15, 11, 123
18, 345540, Control_c, 15, 11, 127
18, 345584, Note_on_c, 15, 37, 0
18, 345600, Note_on_c, 15, 42, 52
18, 347024, Note_on_c, 15, 42, 0
18, 347040, Note_on_c, 15, 44, 52
18, 347759, Note_on_c, 15, 44, 0
18, 347760, Note_on_c, 15, 37, 52
18, 348464, Note_on_c, 15, 37, 0
18, 348480, Note_on_c, 15, 42, 52
18, 348704, Note_on_c, 15, 42, 0
18, 348720, Note_on_c, 15, 42, 52
18, 348959, Note_on_c, 15, 42, 0
18, 348960, Note_on_c, 15, 44, 52
18, 349199, Note_on_c, 15, 44, 0
18, 349200, Note_on_c, 15, 46, 68
18, 349559, Note_on_c, 15, 46, 0
18, 349560, Note_on_c, 15, 44, 52
18, 349679, Note_on_c, 15, 44, 0
18, 349680, Note_on_c, 15, 42, 52
18, 349904, Note_on_c, 15, 42, 0
18, 349920, Note_on_c, 15, 41, 52
18, 350639, Note_on_c, 15, 41, 0
18, 350640, Note_on_c, 15, 39, 52
18, 351344, Note_on_c, 15, 39, 0
18, 351360, Note_on_c, 15, 34, 52
18, 351539, Note_on_c, 15, 34, 0
18, 351600, Note_on_c, 15, 38, 52
18, 351779, Note_on_c, 15, 38, 0
18, 351840, Note_on_c, 15, 34, 52
18, 352019, Note_on_c, 15, 34, 0
18, 352080, Note_on_c, 15, 41, 52
18, 352259, Note_on_c, 15, 41, 0
18, 352320, Note_on_c, 15, 34, 52
18, 352499, Note_on_c, 15, 34, 0
18, 352560, Note_on_c, 15, 46, 52
18, 352739, Note_on_c, 15, 46, 0
18, 352800, Note_on_c, 15, 34, 52
18, 352979, Note_on_c, 15, 34, 0
18, 353040, Note_on_c, 15, 50, 52
18, 353219, Note_on_c, 15, 50, 0
18, 353280, Note_on_c, 15, 34, 52
18, 353459, Note_on_c, 15, 34, 0
18, 353520, Note_on_c, 15, 53, 68
18, 353639, Note_on_c, 15, 53, 0
18, 353640, Note_on_c, 15, 53, 52
18, 354209, Note_on_c, 15, 53, 0
18, 354240, Note_on_c, 15, 34, 52
18, 354419, Note_on_c, 15, 34, 0
18, 354480, Note_on_c, 15, 39, 52
18, 354659, Note_on_c, 15, 39, 0
18, 354720, Note_on_c, 15, 34, 52
18, 354899, Note_on_c, 15, 34, 0
18, 354960, Note_on_c, 15, 42, 52
18, 355139, Note_on_c, 15, 42, 0
18, 355200, Note_on_c, 15, 34, 52
18, 355379, Note_on_c, 15, 34, 0
18, 355440, Note_on_c, 15, 46, 52
18, 355619, Note_on_c, 15, 46, 0
18, 355680, Note_on_c, 15, 34, 52
18, 355859, Note_on_c, 15, 34, 0
18, 355920, Note_on_c, 15, 51, 52
18, 356099, Note_on_c, 15, 51, 0
18, 356160, Note_on_c, 15, 34, 52
18, 356339, Note_on_c, 15, 34, 0
18, 356400, Note_on_c, 15, 54, 68
18, 356519, Note_on_c, 15, 54, 0
18, 356520, Note_on_c, 15, 54, 52
18, 357089, Note_on_c, 15, 54, 0
18, 357120, Note_on_c, 15, 36, 52
18, 357299, Note_on_c, 15, 36, 0
18, 357360, Note_on_c, 15, 39, 52
18, 357539, Note_on_c, 15, 39, 0
18, 357600, Note_on_c, 15, 36, 52
18, 357779, Note_on_c, 15, 36, 0
18, 357840, Note_on_c, 15, 44, 52
18, 358019, Note_on_c, 15, 44, 0
18, 358080, Note_on_c, 15, 36, 52
18, 358259, Note_on_c, 15, 36, 0
18, 358320, Note_on_c, 15, 48, 52
18, 358499, Note_on_c, 15, 48, 0
18, 358560, Note_on_c, 15, 36, 52
18, 358739, Note_on_c, 15, 36, 0
18, 358800, Note_on_c, 15, 39, 52
18, 358979, Note_on_c, 15, 39, 0
18, 359040, Note_on_c, 15, 36, 52
18, 359219, Note_on_c, 15, 36, 0
18, 359280, Note_on_c, 15, 44, 68
18, 359399, Note_on_c, 15, 44, 0
18, 359400, Note_on_c, 15, 44, 52
18, 359969, Note_on_c, 15, 44, 0
18, 360000, Note_on_c, 15, 37, 52
18, 360179, Note_on_c, 15, 37, 0
18, 360240, Note_on_c, 15, 41, 52
18, 360419, Note_on_c, 15, 41, 0
18, 360480, Note_on_c, 15, 37, 52
18, 360659, Note_on_c, 15, 37, 0
18, 360720, Note_on_c, 15, 44, 52
18, 360899, Note_on_c, 15, 44, 0
18, 360960, Note_on_c, 15, 37, 52
18, 361139, Note_on_c, 15, 37, 0
18, 361200, Note_on_c, 15, 49, 52
18, 361379, Note_on_c, 15, 49, 0
18, 361440, Note_on_c, 15, 37, 52
18, 361619, Note_on_c, 15, 37, 0
18, 361680, Note_on_c, 15, 53, 52
18, 361859, Note_on_c, 15, 53, 0
18, 361920, Note_on_c, 15, 37, 52
18, 362099, Note_on_c, 15, 37, 0
18, 362160, Note_on_c, 15, 44, 68
18, 362279, Note_on_c, 15, 44, 0
18, 362280, Note_on_c, 15, 44, 52
18, 362849, Note_on_c, 15, 44, 0
18, 362865, Control_c, 15, 11, 64
18, 362880, Control_c, 15, 11, 64
18, 362880, Note_on_c, 15, 38, 84
18, 363040, Control_c, 15, 11, 66
18, 363059, Note_on_c, 15, 38, 0
18, 363120, Note_on_c, 15, 41, 84
18, 363200, Control_c, 15, 11, 68
18, 363299, Note_on_c, 15, 41, 0
18, 363360, Note_on_c, 15, 38, 84
18, 363360, Control_c, 15, 11, 69
18, 363520, Control_c, 15, 11, 71
18, 363539, Note_on_c, 15, 38, 0
18, 363600, Note_on_c, 15, 46, 84
18, 363680, Control_c, 15, 11, 73
18, 363779, Note_on_c, 15, 46, 0
18, 363840, Control_c, 15, 11, 75
18, 363840, Note_on_c, 15, 38, 84
18, 364000, Control_c, 15, 11, 76
18, 364019, Note_on_c, 15, 38, 0
18, 364080, Note_on_c, 15, 50, 84
18, 364160, Control_c, 15, 11, 78
18, 364259, Note_on_c, 15, 50, 0
18, 364320, Note_on_c, 15, 38, 84
18, 364320, Control_c, 15, 11, 80
18, 364480, Control_c, 15, 11, 82
18, 364499, Note_on_c, 15, 38, 0
18, 364560, Note_on_c, 15, 41, 84
18, 364640, Control_c, 15, 11, 83
18, 364739, Note_on_c, 15, 41, 0
18, 364800, Control_c, 15, 11, 85
18, 364800, Note_on_c, 15, 38, 84
18, 364960, Control_c, 15, 11, 87
18, 364979, Note_on_c, 15, 38, 0
18, 365040, Note_on_c, 15, 46, 100
18, 365120, Control_c, 15, 11, 89
18, 365280, Control_c, 15, 11, 90
18, 365440, Control_c, 15, 11, 92
18, 365600, Control_c, 15, 11, 94
18, 365729, Note_on_c, 15, 46, 0
18, 365760, Note_on_c, 15, 39, 84
18, 365760, Control_c, 15, 11, 96
18, 365920, Control_c, 15, 11, 97
18, 365939, Note_on_c, 15, 39, 0
18, 366000, Note_on_c, 15, 42, 84
18, 366080, Control_c, 15, 11, 99
18, 366179, Note_on_c, 15, 42, 0
18, 366240, Control_c, 15, 11, 101
18, 366240, Note_on_c, 15, 39, 84
18, 366400, Control_c, 15, 11, 103
18, 366419, Note_on_c, 15, 39, 0
18, 366480, Note_on_c, 15, 46, 84
18, 366560, Control_c, 15, 11, 104
18, 366659, Note_on_c, 15, 46, 0
18, 366720, Control_c, 15, 11, 106
18, 366720, Note_on_c, 15, 39, 84
18, 366880, Control_c, 15, 11, 108
18, 366899, Note_on_c, 15, 39, 0
18, 366960, Note_on_c, 15, 51, 84
18, 367040, Control_c, 15, 11, 110
18, 367139, Note_on_c, 15, 51, 0
18, 367200, Control_c, 15, 11, 111
18, 367200, Note_on_c, 15, 39, 84
18, 367360, Control_c, 15, 11, 113
18, 367379, Note_on_c, 15, 39, 0
18, 367440, Note_on_c, 15, 42, 84
18, 367520, Control_c, 15, 11, 115
18, 367619, Note_on_c, 15, 42, 0
18, 367680, Control_c, 15, 11, 117
18, 367680, Note_on_c, 15, 39, 84
18, 367840, Control_c, 15, 11, 118
18, 367859, Note_on_c, 15, 39, 0
18, 367920, Note_on_c, 15, 46, 92
18, 368000, Control_c, 15, 11, 120
18, 368160, Control_c, 15, 11, 122
18, 368320, Control_c, 15, 11, 124
18, 368480, Control_c, 15, 11, 127
18, 368609, Note_on_c, 15, 46, 0
18, 368640, Note_on_c, 15, 35, 84
18, 368819, Note_on_c, 15, 35, 0
18, 368880, Note_on_c, 15, 39, 84
18, 369059, Note_on_c, 15, 39, 0
18, 369120, Note_on_c, 15, 35, 84
18, 369299, Note_on_c, 15, 35, 0
18, 369360, Note_on_c, 15, 42, 84
18, 369539, Note_on_c, 15, 42, 0
18, 369600, Note_on_c, 15, 35, 84
18, 369779, Note_on_c, 15, 35, 0
18, 369840, Note_on_c, 15, 47, 84
18, 370019, Note_on_c, 15, 47, 0
18, 370080, Note_on_c, 15, 35, 84
18, 370259, Note_on_c, 15, 35, 0
18, 370320, Note_on_c, 15, 51, 84
18, 370499, Note_on_c, 15, 51, 0
18, 370560, Note_on_c, 15, 35, 84
18, 370739, Note_on_c, 15, 35, 0
18, 370800, Note_on_c, 15, 54, 84
18, 370889, Note_on_c, 15, 54, 0
18, 370920, Note_on_c, 15, 51, 84
18, 371009, Note_on_c, 15, 51, 0
18, 371040, Note_on_c, 15, 47, 84
18, 371129, Note_on_c, 15, 47, 0
18, 371160, Note_on_c, 15, 42, 84
18, 371249, Note_on_c, 15, 42, 0
18, 371280, Note_on_c, 15, 39, 84
18, 371369, Note_on_c, 15, 39, 0
18, 371400, Note_on_c, 15, 42, 84
18, 371489, Note_on_c, 15, 42, 0
18, 371520, Note_on_c, 15, 35, 84
18, 371759, Note_on_c, 15, 35, 0
18, 373680, Note_on_c, 15, 35, 76
18, 373919, Note_on_c, 15, 35, 0
18, 373920, Note_on_c, 15, 39, 76
18, 374159, Note_on_c, 15, 39, 0
18, 374160, Note_on_c, 15, 42, 76
18, 374399, Note_on_c, 15, 42, 0
18, 376560, Note_on_c, 15, 36, 52
18, 376799, Note_on_c, 15, 36, 0
18, 376800, Note_on_c, 15, 39, 52
18, 377039, Note_on_c, 15, 39, 0
18, 377040, Note_on_c, 15, 45, 52
18, 377279, Note_on_c, 15, 45, 0
18, 377640, Note_on_c, 15, 38, 52
18, 377759, Note_on_c, 15, 38, 0
18, 377760, Note_on_c, 15, 41, 52
18, 377879, Note_on_c, 15, 41, 0
18, 377880, Note_on_c, 15, 46, 51
18, 377999, Note_on_c, 15, 46, 0
18, 378360, Note_on_c, 15, 38, 50
18, 378479, Note_on_c, 15, 38, 0
18, 378480, Note_on_c, 15, 41, 50
18, 378599, Note_on_c, 15, 41, 0
18, 378600, Note_on_c, 15, 46, 49
18, 378719, Note_on_c, 15, 46, 0
18, 379080, Note_on_c, 15, 39, 48
18, 379199, Note_on_c, 15, 39, 0
18, 379200, Note_on_c, 15, 42, 47
18, 379319, Note_on_c, 15, 42, 0
18, 379320, Note_on_c, 15, 46, 47
18, 379439, Note_on_c, 15, 46, 0
18, 379800, Note_on_c, 15, 39, 46
18, 379919, Note_on_c, 15, 39, 0
18, 379920, Note_on_c, 15, 42, 45
18, 380039, Note_on_c, 15, 42, 0
18, 380040, Note_on_c, 15, 46, 45
18, 380159, Note_on_c, 15, 46, 0
18, 380160, Program_c, 15, 45
18, 380640, Note_on_c, 15, 34, 44
18, 380879, Note_on_c, 15, 34, 0
18, 381360, Note_on_c, 15, 34, 44
18, 381599, Note_on_c, 15, 34, 0
18, 382080, Note_on_c, 15, 34, 44
18, 382319, Note_on_c, 15, 34, 0
18, 382800, Note_on_c, 15, 34, 44
18, 383039, Note_on_c, 15, 34, 0
18, 384960, Note_on_c, 15, 34, 44
18, 385199, Note_on_c, 15, 34, 0
18, 385680, Note_on_c, 15, 34, 44
18, 385919, Note_on_c, 15, 34, 0
18, 387840, Note_on_c, 15, 34, 44
18, 388079, Note_on_c, 15, 34, 0
18, 388560, Note_on_c, 15, 34, 44
18, 388799, Note_on_c, 15, 34, 0
18, 392880, Program_c, 15, 48
18, 393120, Note_on_c, 15, 34, 76
18, 393224, Note_on_c, 15, 34, 0
18, 393240, Note_on_c, 15, 46, 76
18, 393344, Note_on_c, 15, 46, 0
18, 393360, Note_on_c, 15, 46, 76
18, 393464, Note_on_c, 15, 46, 0
18, 393480, Note_on_c, 15, 46, 76
18, 393584, Note_on_c, 15, 46, 0
18, 393600, Note_on_c, 15, 46, 76
18, 393704, Note_on_c, 15, 46, 0
18, 393720, Note_on_c, 15, 46, 76
18, 393824, Note_on_c, 15, 46, 0
18, 393840, Note_on_c, 15, 46, 84
18, 393944, Note_on_c, 15, 46, 0
18, 393960, Note_on_c, 15, 46, 84
18, 394064, Note_on_c, 15, 46, 0
18, 394080, Note_on_c, 15, 46, 84
18, 394184, Note_on_c, 15, 46, 0
18, 394200, Note_on_c, 15, 46, 84
18, 394304, Note_on_c, 15, 46, 0
18, 394320, Note_on_c, 15, 46, 84
18, 394424, Note_on_c, 15, 46, 0
18, 394440, Note_on_c, 15, 46, 84
18, 394544, Note_on_c, 15, 46, 0
18, 394560, Note_on_c, 15, 39, 76
18, 394799, Note_on_c, 15, 39, 0
18, 401040, Program_c, 15, 45
18, 401280, Note_on_c, 15, 36, 76
18, 401504, Note_on_c, 15, 36, 0
18, 401520, Note_on_c, 15, 36, 76
18, 401744, Note_on_c, 15, 36, 0
18, 401760, Note_on_c, 15, 41, 76
18, 401999, Note_on_c, 15, 41, 0
18, 403200, Note_on_c, 15, 41, 52
18, 403439, Note_on_c, 15, 41, 0
18, 403680, Note_on_c, 15, 36, 52
18, 403919, Note_on_c, 15, 36, 0
18, 403920, Note_on_c, 15, 41, 52
18, 404159, Note_on_c, 15, 41, 0
18, 404160, Note_on_c, 15, 45, 52
18, 404399, Note_on_c, 15, 45, 0
18, 404400, Note_on_c, 15, 48, 52
18, 404639, Note_on_c, 15, 48, 0
18, 404640, Note_on_c, 15, 48, 52
18, 404879, Note_on_c, 15, 48, 0
18, 405120, Note_on_c, 15, 46, 52
18, 405359, Note_on_c, 15, 46, 0
18, 405360, Note_on_c, 15, 43, 52
18, 405599, Note_on_c, 15, 43, 0
18, 405600, Note_on_c, 15, 40, 52
18, 405839, Note_on_c, 15, 40, 0
18, 405840, Note_on_c, 15, 36, 52
18, 406079, Note_on_c, 15, 36, 0
18, 406080, Note_on_c, 15, 41, 52
18, 406319, Note_on_c, 15, 41, 0
18, 407520, Note_on_c, 15, 37, 52
18, 407759, Note_on_c, 15, 37, 0
18, 408960, Note_on_c, 15, 37, 52
18, 409199, Note_on_c, 15, 37, 0
18, 409440, Note_on_c, 15, 49, 52
18, 409679, Note_on_c, 15, 49, 0
18, 409680, Note_on_c, 15, 44, 52
18, 409919, Note_on_c, 15, 44, 0
18, 409920, Note_on_c, 15, 41, 52
18, 410159, Note_on_c, 15, 41, 0
18, 410160, Note_on_c, 15, 37, 52
18, 410399, Note_on_c, 15, 37, 0
18, 410400, Note_on_c, 15, 36, 52
18, 410639, Note_on_c, 15, 36, 0
18, 410880, Note_on_c, 15, 36, 52
18, 411119, Note_on_c, 15, 36, 0
18, 411120, Note_on_c, 15, 39, 52
18, 411359, Note_on_c, 15, 39, 0
18, 411360, Note_on_c, 15, 44, 52
18, 411599, Note_on_c, 15, 44, 0
18, 411600, Note_on_c, 15, 48, 52
18, 411839, Note_on_c, 15, 48, 0
18, 411840, Note_on_c, 15, 49, 52
18, 412079, Note_on_c, 15, 49, 0
18, 412080, Control_c, 15, 11, 106
18, 412140, Control_c, 15, 11, 109
18, 412185, Program_c, 15, 48
18, 412200, Note_on_c, 15, 37, 68
18, 412200, Control_c, 15, 11, 112
18, 412260, Control_c, 15, 11, 114
18, 412304, Note_on_c, 15, 37, 0
18, 412320, Note_on_c, 15, 37, 68
18, 412320, Control_c, 15, 11, 117
18, 412380, Control_c, 15, 11, 119
18, 412424, Note_on_c, 15, 37, 0
18, 412440, Control_c, 15, 11, 122
18, 412440, Note_on_c, 15, 37, 68
18, 412500, Control_c, 15, 11, 124
18, 412544, Note_on_c, 15, 37, 0
18, 412560, Control_c, 15, 11, 127
18, 412560, Note_on_c, 15, 35, 68
18, 412620, Control_c, 15, 11, 123
18, 412664, Note_on_c, 15, 35, 0
18, 412680, Note_on_c, 15, 35, 68
18, 412680, Control_c, 15, 11, 119
18, 412740, Control_c, 15, 11, 115
18, 412784, Note_on_c, 15, 35, 0
18, 412800, Note_on_c, 15, 35, 68
18, 412800, Control_c, 15, 11, 111
18, 412860, Control_c, 15, 11, 107
18, 412904, Note_on_c, 15, 35, 0
18, 412920, Control_c, 15, 11, 104
18, 412920, Note_on_c, 15, 35, 68
18, 412980, Control_c, 15, 11, 100
18, 413024, Note_on_c, 15, 35, 0
18, 413040, Control_c, 15, 11, 96
18, 413040, Note_on_c, 15, 35, 68
18, 413100, Control_c, 15, 11, 92
18, 413144, Note_on_c, 15, 35, 0
18, 413160, Note_on_c, 15, 35, 68
18, 413160, Control_c, 15, 11, 88
18, 413220, Control_c, 15, 11, 84
18, 413264, Note_on_c, 15, 35, 0
18, 413272, Control_c, 15, 11, 64
18, 413280, Note_on_c, 15, 34, 76
18, 413759, Note_on_c, 15, 34, 0
18, 413760, Note_on_c, 15, 38, 76
18, 413999, Note_on_c, 15, 38, 0
18, 414000, Note_on_c, 15, 34, 76
18, 414479, Note_on_c, 15, 34, 0
18, 414480, Note_on_c, 15, 29, 76
18, 414704, Note_on_c, 15, 29, 0
18, 414720, Control_c, 15, 11, 64
18, 414720, Note_on_c, 15, 34, 76
18, 414809, Note_on_c, 15, 34, 0
18, 414840, Control_c, 15, 11, 67
18, 414840, Note_on_c, 15, 38, 76
18, 414929, Note_on_c, 15, 38, 0
18, 414960, Note_on_c, 15, 41, 76
18, 414960, Control_c, 15, 11, 69
18, 415049, Note_on_c, 15, 41, 0
18, 415080, Control_c, 15, 11, 72
18, 415080, Note_on_c, 15, 34, 76
18, 415169, Note_on_c, 15, 34, 0
18, 415200, Note_on_c, 15, 38, 76
18, 415200, Control_c, 15, 11, 75
18, 415289, Note_on_c, 15, 38, 0
18, 415320, Control_c, 15, 11, 77
18, 415320, Note_on_c, 15, 41, 76
18, 415409, Note_on_c, 15, 41, 0
18, 415440, Note_on_c, 15, 44, 76
18, 415440, Control_c, 15, 11, 80
18, 415529, Note_on_c, 15, 44, 0
18, 415560, Control_c, 15, 11, 82
18, 415560, Note_on_c, 15, 38, 76
18, 415649, Note_on_c, 15, 38, 0
18, 415680, Control_c, 15, 11, 85
18, 415680, Note_on_c, 15, 41, 76
18, 415769, Note_on_c, 15, 41, 0
18, 415800, Control_c, 15, 11, 88
18, 415800, Note_on_c, 15, 44, 76
18, 415889, Note_on_c, 15, 44, 0
18, 415920, Note_on_c, 15, 48, 76
18, 415920, Control_c, 15, 11, 90
18, 416009, Note_on_c, 15, 48, 0
18, 416040, Control_c, 15, 11, 93
18, 416040, Note_on_c, 15, 46, 76
18, 416129, Note_on_c, 15, 46, 0
18, 416160, Note_on_c, 15, 44, 76
18, 416160, Control_c, 15, 11, 96
18, 416249, Note_on_c, 15, 44, 0
18, 416280, Control_c, 15, 11, 98
18, 416280, Note_on_c, 15, 46, 76
18, 416369, Note_on_c, 15, 46, 0
18, 416400, Control_c, 15, 11, 101
18, 416400, Note_on_c, 15, 44, 76
18, 416489, Note_on_c, 15, 44, 0
18, 416520, Control_c, 15, 11, 103
18, 416520, Note_on_c, 15, 43, 76
18, 416609, Note_on_c, 15, 43, 0
18, 416640, Note_on_c, 15, 41, 76
18, 416640, Control_c, 15, 11, 106
18, 416729, Note_on_c, 15, 41, 0
18, 416760, Note_on_c, 15, 39, 76
18, 416760, Control_c, 15, 11, 109
18, 416849, Note_on_c, 15, 39, 0
18, 416880, Note_on_c, 15, 38, 76
18, 416880, Control_c, 15, 11, 111
18, 416969, Note_on_c, 15, 38, 0
18, 417000, Control_c, 15, 11, 114
18, 417000, Note_on_c, 15, 36, 76
18, 417089, Note_on_c, 15, 36, 0
18, 417120, Note_on_c, 15, 34, 76
18, 417120, Control_c, 15, 11, 117
18, 417209, Note_on_c, 15, 34, 0
18, 417240, Control_c, 15, 11, 119
18, 417240, Note_on_c, 15, 46, 76
18, 417329, Note_on_c, 15, 46, 0
18, 417360, Control_c, 15, 11, 122
18, 417360, Note_on_c, 15, 46, 76
18, 417449, Note_on_c, 15, 46, 0
18, 417480, Control_c, 15, 11, 127
18, 417480, Note_on_c, 15, 46, 76
18, 417569, Note_on_c, 15, 46, 0
18, 417600, Note_on_c, 15, 39, 76
18, 417704, Note_on_c, 15, 39, 0
18, 417720, Note_on_c, 15, 39, 76
18, 417824, Note_on_c, 15, 39, 0
18, 417840, Note_on_c, 15, 39, 76
18, 417944, Note_on_c, 15, 39, 0
18, 417960, Note_on_c, 15, 39, 76
18, 418064, Note_on_c, 15, 39, 0
18, 418080, Note_on_c, 15, 39, 76
18, 418184, Note_on_c, 15, 39, 0
18, 418200, Note_on_c, 15, 39, 76
18, 418304, Note_on_c, 15, 39, 0
18, 418320, Note_on_c, 15, 39, 76
18, 418424, Note_on_c, 15, 39, 0
18, 418440, Note_on_c, 15, 39, 76
18, 418544, Note_on_c, 15, 39, 0
18, 418560, Note_on_c, 15, 39, 76
18, 418664, Note_on_c, 15, 39, 0
18, 418680, Note_on_c, 15, 39, 76
18, 418784, Note_on_c, 15, 39, 0
18, 418800, Note_on_c, 15, 39, 76
18, 418904, Note_on_c, 15, 39, 0
18, 418920, Note_on_c, 15, 39, 76
18, 419024, Note_on_c, 15, 39, 0
18, 419040, Note_on_c, 15, 39, 76
18, 419144, Note_on_c, 15, 39, 0
18, 419160, Note_on_c, 15, 39, 76
18, 419264, Note_on_c, 15, 39, 0
18, 419280, Note_on_c, 15, 39, 76
18, 419384, Note_on_c, 15, 39, 0
18, 419400, Note_on_c, 15, 39, 76
18, 419504, Note_on_c, 15, 39, 0
18, 419520, Note_on_c, 15, 39, 76
18, 419624, Note_on_c, 15, 39, 0
18, 419640, Note_on_c, 15, 39, 76
18, 419744, Note_on_c, 15, 39, 0
18, 419760, Note_on_c, 15, 39, 76
18, 419864, Note_on_c, 15, 39, 0
18, 419880, Note_on_c, 15, 39, 76
18, 419984, Note_on_c, 15, 39, 0
18, 420000, Note_on_c, 15, 39, 76
18, 420104, Note_on_c, 15, 39, 0
18, 420120, Note_on_c, 15, 39, 76
18, 420224, Note_on_c, 15, 39, 0
18, 420240, Note_on_c, 15, 39, 84
18, 420344, Note_on_c, 15, 39, 0
18, 420360, Note_on_c, 15, 39, 76
18, 420464, Note_on_c, 15, 39, 0
18, 420480, Note_on_c, 15, 39, 76
18, 420584, Note_on_c, 15, 39, 0
18, 420600, Note_on_c, 15, 39, 76
18, 420704, Note_on_c, 15, 39, 0
18, 420720, Note_on_c, 15, 39, 76
18, 420824, Note_on_c, 15, 39, 0
18, 420840, Note_on_c, 15, 39, 76
18, 420944, Note_on_c, 15, 39, 0
18, 420960, Note_on_c, 15, 39, 76
18, 421064, Note_on_c, 15, 39, 0
18, 421080, Note_on_c, 15, 39, 76
18, 421184, Note_on_c, 15, 39, 0
18, 421200, Note_on_c, 15, 39, 76
18, 421304, Note_on_c, 15, 39, 0
18, 421320, Note_on_c, 15, 39, 76
18, 421424, Note_on_c, 15, 39, 0
18, 421440, Note_on_c, 15, 39, 76
18, 421544, Note_on_c, 15, 39, 0
18, 421560, Note_on_c, 15, 39, 76
18, 421664, Note_on_c, 15, 39, 0
18, 421680, Note_on_c, 15, 39, 84
18, 421784, Note_on_c, 15, 39, 0
18, 421800, Note_on_c, 15, 39, 76
18, 421904, Note_on_c, 15, 39, 0
18, 421920, Note_on_c, 15, 39, 80
18, 422024, Note_on_c, 15, 39, 0
18, 422040, Note_on_c, 15, 39, 80
18, 422144, Note_on_c, 15, 39, 0
18, 422160, Note_on_c, 15, 39, 80
18, 422264, Note_on_c, 15, 39, 0
18, 422280, Note_on_c, 15, 39, 80
18, 422384, Note_on_c, 15, 39, 0
18, 422400, Note_on_c, 15, 39, 80
18, 422504, Note_on_c, 15, 39, 0
18, 422520, Note_on_c, 15, 39, 80
18, 422624, Note_on_c, 15, 39, 0
18, 422640, Note_on_c, 15, 39, 80
18, 422744, Note_on_c, 15, 39, 0
18, 422760, Note_on_c, 15, 39, 80
18, 422864, Note_on_c, 15, 39, 0
18, 422880, Note_on_c, 15, 39, 80
18, 422984, Note_on_c, 15, 39, 0
18, 423000, Note_on_c, 15, 39, 80
18, 423104, Note_on_c, 15, 39, 0
18, 423120, Note_on_c, 15, 39, 80
18, 423224, Note_on_c, 15, 39, 0
18, 423240, Note_on_c, 15, 39, 80
18, 423344, Note_on_c, 15, 39, 0
18, 423360, Note_on_c, 15, 39, 80
18, 423464, Note_on_c, 15, 39, 0
18, 423480, Note_on_c, 15, 39, 80
18, 423584, Note_on_c, 15, 39, 0
18, 423600, Note_on_c, 15, 39, 80
18, 423704, Note_on_c, 15, 39, 0
18, 423720, Note_on_c, 15, 39, 80
18, 423824, Note_on_c, 15, 39, 0
18, 423840, Note_on_c, 15, 39, 80
18, 423944, Note_on_c, 15, 39, 0
18, 423960, Note_on_c, 15, 39, 80
18, 424064, Note_on_c, 15, 39, 0
18, 424080, Note_on_c, 15, 39, 80
18, 424184, Note_on_c, 15, 39, 0
18, 424200, Note_on_c, 15, 39, 80
18, 424304, Note_on_c, 15, 39, 0
18, 424320, Note_on_c, 15, 39, 80
18, 424424, Note_on_c, 15, 39, 0
18, 424440, Note_on_c, 15, 39, 80
18, 424544, Note_on_c, 15, 39, 0
18, 424560, Note_on_c, 15, 39, 80
18, 424664, Note_on_c, 15, 39, 0
18, 424680, Note_on_c, 15, 39, 80
18, 424784, Note_on_c, 15, 39, 0
18, 424800, Note_on_c, 15, 39, 84
18, 424904, Note_on_c, 15, 39, 0
18, 424920, Note_on_c, 15, 39, 84
18, 425024, Note_on_c, 15, 39, 0
18, 425040, Note_on_c, 15, 39, 84
18, 425144, Note_on_c, 15, 39, 0
18, 425160, Note_on_c, 15, 39, 84
18, 425264, Note_on_c, 15, 39, 0
18, 425280, Note_on_c, 15, 43, 92
18, 425384, Note_on_c, 15, 43, 0
18, 425400, Note_on_c, 15, 43, 84
18, 425504, Note_on_c, 15, 43, 0
18, 425520, Note_on_c, 15, 39, 84
18, 425624, Note_on_c, 15, 39, 0
18, 425640, Note_on_c, 15, 39, 84
18, 425744, Note_on_c, 15, 39, 0
18, 425760, Note_on_c, 15, 39, 84
18, 425864, Note_on_c, 15, 39, 0
18, 425880, Note_on_c, 15, 39, 84
18, 425984, Note_on_c, 15, 39, 0
18, 426000, Note_on_c, 15, 34, 92
18, 426104, Note_on_c, 15, 34, 0
18, 426120, Note_on_c, 15, 34, 84
18, 426224, Note_on_c, 15, 34, 0
18, 426240, Note_on_c, 15, 39, 84
18, 426344, Note_on_c, 15, 39, 0
18, 426360, Note_on_c, 15, 39, 84
18, 426464, Note_on_c, 15, 39, 0
18, 426480, Note_on_c, 15, 43, 84
18, 426584, Note_on_c, 15, 43, 0
18, 426600, Note_on_c, 15, 43, 84
18, 426704, Note_on_c, 15, 43, 0
18, 426720, Note_on_c, 15, 46, 84
18, 426824, Note_on_c, 15, 46, 0
18, 426840, Note_on_c, 15, 46, 84
18, 426944, Note_on_c, 15, 46, 0
18, 426960, Note_on_c, 15, 39, 84
18, 427064, Note_on_c, 15, 39, 0
18, 427080, Note_on_c, 15, 39, 84
18, 427184, Note_on_c, 15, 39, 0
18, 427200, Note_on_c, 15, 39, 84
18, 427304, Note_on_c, 15, 39, 0
18, 427320, Note_on_c, 15, 39, 84
18, 427424, Note_on_c, 15, 39, 0
18, 427440, Note_on_c, 15, 31, 92
18, 427544, Note_on_c, 15, 31, 0
18, 427560, Note_on_c, 15, 31, 84
18, 427664, Note_on_c, 15, 31, 0
18, 427680, Note_on_c, 15, 36, 84
18, 427784, Note_on_c, 15, 36, 0
18, 427800, Note_on_c, 15, 36, 84
18, 427904, Note_on_c, 15, 36, 0
18, 427920, Note_on_c, 15, 39, 84
18, 428024, Note_on_c, 15, 39, 0
18, 428040, Note_on_c, 15, 39, 84
18, 428144, Note_on_c, 15, 39, 0
18, 428160, Note_on_c, 15, 43, 84
18, 428264, Note_on_c, 15, 43, 0
18, 428280, Note_on_c, 15, 43, 84
18, 428384, Note_on_c, 15, 43, 0
18, 428400, Note_on_c, 15, 36, 84
18, 428504, Note_on_c, 15, 36, 0
18, 428520, Note_on_c, 15, 36, 84
18, 428624, Note_on_c, 15, 36, 0
18, 428640, Note_on_c, 15, 36, 84
18, 428744, Note_on_c, 15, 36, 0
18, 428760, Note_on_c, 15, 36, 84
18, 428864, Note_on_c, 15, 36, 0
18, 428880, Note_on_c, 15, 34, 92
18, 428984, Note_on_c, 15, 34, 0
18, 429000, Note_on_c, 15, 34, 84
18, 429104, Note_on_c, 15, 34, 0
18, 429120, Note_on_c, 15, 32, 84
18, 429224, Note_on_c, 15, 32, 0
18, 429240, Note_on_c, 15, 44, 84
18, 429344, Note_on_c, 15, 44, 0
18, 429360, Note_on_c, 15, 44, 84
18, 429464, Note_on_c, 15, 44, 0
18, 429480, Note_on_c, 15, 44, 84
18, 429584, Note_on_c, 15, 44, 0
18, 429600, Note_on_c, 15, 44, 84
18, 429704, Note_on_c, 15, 44, 0
18, 429720, Note_on_c, 15, 44, 84
18, 429824, Note_on_c, 15, 44, 0
18, 429840, Note_on_c, 15, 33, 84
18, 429944, Note_on_c, 15, 33, 0
18, 429960, Note_on_c, 15, 45, 84
18, 430064, Note_on_c, 15, 45, 0
18, 430080, Note_on_c, 15, 45, 84
18, 430184, Note_on_c, 15, 45, 0
18, 430200, Note_on_c, 15, 45, 84
18, 430304, Note_on_c, 15, 45, 0
18, 430320, Note_on_c, 15, 45, 84
18, 430424, Note_on_c, 15, 45, 0
18, 430440, Note_on_c, 15, 45, 84
18, 430544, Note_on_c, 15, 45, 0
18, 430560, Note_on_c, 15, 46, 52
18, 430799, Note_on_c, 15, 46, 0
18, 432000, Note_on_c, 15, 34, 52
18, 432179, Note_on_c, 15, 34, 0
18, 432240, Note_on_c, 15, 38, 52
18, 432419, Note_on_c, 15, 38, 0
18, 432480, Note_on_c, 15, 41, 52
18, 432659, Note_on_c, 15, 41, 0
18, 432720, Note_on_c, 15, 46, 52
18, 432899, Note_on_c, 15, 46, 0
18, 432960, Note_on_c, 15, 50, 52
18, 433139, Note_on_c, 15, 50, 0
18, 433200, Note_on_c, 15, 53, 52
18, 433379, Note_on_c, 15, 53, 0
18, 433440, Note_on_c, 15, 34, 52
18, 433679, Note_on_c, 15, 34, 0
18, 434880, Note_on_c, 15, 34, 52
18, 435059, Note_on_c, 15, 34, 0
18, 435120, Note_on_c, 15, 39, 52
18, 435299, Note_on_c, 15, 39, 0
18, 435360, Note_on_c, 15, 43, 52
18, 435539, Note_on_c, 15, 43, 0
18, 435600, Note_on_c, 15, 46, 52
18, 435779, Note_on_c, 15, 46, 0
18, 435840, Note_on_c, 15, 55, 52
18, 436019, Note_on_c, 15, 55, 0
18, 436080, Note_on_c, 15, 51, 52
18, 436259, Note_on_c, 15, 51, 0
18, 436320, Note_on_c, 15, 46, 52
18, 436499, Note_on_c, 15, 46, 0
18, 438000, Note_on_c, 15, 48, 84
18, 438359, Note_on_c, 15, 48, 0
18, 438360, Note_on_c, 15, 46, 84
18, 438449, Note_on_c, 15, 46, 0
18, 438480, Note_on_c, 15, 44, 84
18, 438659, Note_on_c, 15, 44, 0
18, 438720, Note_on_c, 15, 43, 84
18, 438899, Note_on_c, 15, 43, 0
18, 438960, Note_on_c, 15, 41, 84
18, 439139, Note_on_c, 15, 41, 0
18, 439200, Note_on_c, 15, 39, 52
18, 439439, Note_on_c, 15, 39, 0
18, 441840, Control_c, 15, 11, 80
18, 442080, Note_on_c, 15, 39, 76
18, 442080, Control_c, 15, 11, 80
18, 442160, Control_c, 15, 11, 81
18, 442240, Control_c, 15, 11, 83
18, 442320, Control_c, 15, 11, 84
18, 442400, Control_c, 15, 11, 85
18, 442480, Control_c, 15, 11, 87
18, 442560, Control_c, 15, 11, 88
18, 442640, Control_c, 15, 11, 89
18, 442720, Control_c, 15, 11, 90
18, 442800, Control_c, 15, 11, 92
18, 442880, Control_c, 15, 11, 93
18, 442960, Control_c, 15, 11, 94
18, 443040, Control_c, 15, 11, 96
18, 443120, Control_c, 15, 11, 97
18, 443200, Control_c, 15, 11, 98
18, 443280, Control_c, 15, 11, 100
18, 443360, Control_c, 15, 11, 101
18, 443440, Control_c, 15, 11, 102
18, 443520, Control_c, 15, 11, 104
18, 443600, Control_c, 15, 11, 105
18, 443624, Note_on_c, 15, 39, 0
18, 443640, Note_on_c, 15, 46, 76
18, 443680, Control_c, 15, 11, 106
18, 443729, Note_on_c, 15, 46, 0
18, 443760, Control_c, 15, 11, 107
18, 443760, Note_on_c, 15, 44, 76
18, 443840, Control_c, 15, 11, 109
18, 443849, Note_on_c, 15, 44, 0
18, 443880, Note_on_c, 15, 43, 76
18, 443920, Control_c, 15, 11, 110
18, 443969, Note_on_c, 15, 43, 0
18, 444000, Control_c, 15, 11, 111
18, 444000, Note_on_c, 15, 41, 76
18, 444080, Control_c, 15, 11, 113
18, 444089, Note_on_c, 15, 41, 0
18, 444120, Note_on_c, 15, 39, 76
18, 444160, Control_c, 15, 11, 114
18, 444209, Note_on_c, 15, 39, 0
18, 444240, Note_on_c, 15, 38, 76
18, 444240, Control_c, 15, 11, 115
18, 444320, Control_c, 15, 11, 117
18, 444329, Note_on_c, 15, 38, 0
18, 444360, Note_on_c, 15, 39, 76
18, 444400, Control_c, 15, 11, 118
18, 444449, Note_on_c, 15, 39, 0
18, 444480, Control_c, 15, 11, 119
18, 444480, Note_on_c, 15, 41, 76
18, 444560, Control_c, 15, 11, 120
18, 444569, Note_on_c, 15, 41, 0
18, 444600, Note_on_c, 15, 39, 76
18, 444640, Control_c, 15, 11, 122
18, 444689, Note_on_c, 15, 39, 0
18, 444720, Note_on_c, 15, 38, 76
18, 444720, Control_c, 15, 11, 123
18, 444800, Control_c, 15, 11, 124
18, 444809, Note_on_c, 15, 38, 0
18, 444840, Note_on_c, 15, 36, 76
18, 444880, Control_c, 15, 11, 127
18, 444929, Note_on_c, 15, 36, 0
18, 444960, Note_on_c, 15, 35, 76
18, 445139, Note_on_c, 15, 35, 0
18, 445200, Note_on_c, 15, 47, 76
18, 445379, Note_on_c, 15, 47, 0
18, 446280, Note_on_c, 15, 35, 76
18, 446369, Note_on_c, 15, 35, 0
18, 446400, Note_on_c, 15, 36, 76
18, 446579, Note_on_c, 15, 36, 0
18, 446640, Note_on_c, 15, 48, 76
18, 446819, Note_on_c, 15, 48, 0
18, 447720, Note_on_c, 15, 36, 76
18, 447824, Note_on_c, 15, 36, 0
18, 447840, Note_on_c, 15, 34, 76
18, 448019, Note_on_c, 15, 34, 0
18, 448080, Note_on_c, 15, 46, 76
18, 448259, Note_on_c, 15, 46, 0
18, 449160, Note_on_c, 15, 34, 76
18, 449249, Note_on_c, 15, 34, 0
18, 449280, Note_on_c, 15, 32, 76
18, 449369, Note_on_c, 15, 32, 0
18, 449400, Note_on_c, 15, 32, 76
18, 449624, Note_on_c, 15, 32, 0
18, 449640, Note_on_c, 15, 33, 76
18, 449729, Note_on_c, 15, 33, 0
18, 449760, Note_on_c, 15, 34, 76
18, 449849, Note_on_c, 15, 34, 0
18, 449880, Note_on_c, 15, 35, 76
18, 449969, Note_on_c, 15, 35, 0
18, 450000, Note_on_c, 15, 36, 76
18, 450089, Note_on_c, 15, 36, 0
18, 450120, Note_on_c, 15, 36, 76
18, 450344, Note_on_c, 15, 36, 0
18, 450360, Note_on_c, 15, 36, 76
18, 450449, Note_on_c, 15, 36, 0
18, 450480, Note_on_c, 15, 38, 76
18, 450569, Note_on_c, 15, 38, 0
18, 450600, Note_on_c, 15, 38, 76
18, 450689, Note_on_c, 15, 38, 0
18, 450720, Note_on_c, 15, 39, 76
18, 450824, Note_on_c, 15, 39, 0
18, 450840, Note_on_c, 15, 39, 76
18, 450944, Note_on_c, 15, 39, 0
18, 450960, Note_on_c, 15, 49, 76
18, 451064, Note_on_c, 15, 49, 0
18, 451080, Note_on_c, 15, 49, 76
18, 451184, Note_on_c, 15, 49, 0
18, 451200, Note_on_c, 15, 48, 76
18, 451304, Note_on_c, 15, 48, 0
18, 451320, Note_on_c, 15, 48, 76
18, 451424, Note_on_c, 15, 48, 0
18, 451440, Note_on_c, 15, 47, 76
18, 451544, Note_on_c, 15, 47, 0
18, 451560, Note_on_c, 15, 47, 76
18, 451664, Note_on_c, 15, 47, 0
18, 451680, Note_on_c, 15, 46, 76
18, 451784, Note_on_c, 15, 46, 0
18, 451800, Note_on_c, 15, 46, 76
18, 451904, Note_on_c, 15, 46, 0
18, 451920, Note_on_c, 15, 43, 76
18, 452024, Note_on_c, 15, 43, 0
18, 452040, Note_on_c, 15, 43, 76
18, 452144, Note_on_c, 15, 43, 0
18, 452160, Note_on_c, 15, 44, 76
18, 452264, Note_on_c, 15, 44, 0
18, 452280, Note_on_c, 15, 32, 76
18, 452384, Note_on_c, 15, 32, 0
18, 452400, Note_on_c, 15, 32, 76
18, 452504, Note_on_c, 15, 32, 0
18, 452520, Note_on_c, 15, 32, 76
18, 452624, Note_on_c, 15, 32, 0
18, 452640, Note_on_c, 15, 32, 76
18, 452744, Note_on_c, 15, 32, 0
18, 452760, Note_on_c, 15, 32, 76
18, 452864, Note_on_c, 15, 32, 0
18, 452880, Note_on_c, 15, 32, 76
18, 452984, Note_on_c, 15, 32, 0
18, 453000, Note_on_c, 15, 32, 76
18, 453104, Note_on_c, 15, 32, 0
18, 453120, Note_on_c, 15, 32, 76
18, 453224, Note_on_c, 15, 32, 0
18, 453240, Note_on_c, 15, 32, 76
18, 453344, Note_on_c, 15, 32, 0
18, 453360, Note_on_c, 15, 32, 76
18, 453464, Note_on_c, 15, 32, 0
18, 453480, Note_on_c, 15, 32, 76
18, 453584, Note_on_c, 15, 32, 0
18, 453600, Note_on_c, 15, 34, 76
18, 453704, Note_on_c, 15, 34, 0
18, 453720, Note_on_c, 15, 34, 76
18, 453824, Note_on_c, 15, 34, 0
18, 453840, Note_on_c, 15, 34, 76
18, 453944, Note_on_c, 15, 34, 0
18, 453960, Note_on_c, 15, 34, 76
18, 454064, Note_on_c, 15, 34, 0
18, 454080, Note_on_c, 15, 34, 76
18, 454184, Note_on_c, 15, 34, 0
18, 454200, Note_on_c, 15, 34, 76
18, 454304, Note_on_c, 15, 34, 0
18, 454320, Note_on_c, 15, 34, 76
18, 454424, Note_on_c, 15, 34, 0
18, 454440, Note_on_c, 15, 34, 76
18, 454544, Note_on_c, 15, 34, 0
18, 454560, Note_on_c, 15, 34, 76
18, 454664, Note_on_c, 15, 34, 0
18, 454680, Note_on_c, 15, 34, 76
18, 454784, Note_on_c, 15, 34, 0
18, 454800, Note_on_c, 15, 34, 76
18, 454904, Note_on_c, 15, 34, 0
18, 454920, Note_on_c, 15, 34, 76
18, 455024, Note_on_c, 15, 34, 0
18, 455040, Note_on_c, 15, 34, 76
18, 455279, Note_on_c, 15, 34, 0
18, 456480, Note_on_c, 15, 46, 84
18, 456569, Note_on_c, 15, 46, 0
18, 456600, Note_on_c, 15, 45, 84
18, 456689, Note_on_c, 15, 45, 0
18, 456720, Note_on_c, 15, 44, 84
18, 456809, Note_on_c, 15, 44, 0
18, 456840, Note_on_c, 15, 43, 84
18, 456929, Note_on_c, 15, 43, 0
18, 456960, Note_on_c, 15, 41, 84
18, 457049, Note_on_c, 15, 41, 0
18, 457080, Note_on_c, 15, 39, 84
18, 457169, Note_on_c, 15, 39, 0
18, 457200, Note_on_c, 15, 38, 84
18, 457304, Note_on_c, 15, 38, 0
18, 457320, Note_on_c, 15, 36, 84
18, 457424, Note_on_c, 15, 36, 0
18, 457440, Note_on_c, 15, 34, 84
18, 457544, Note_on_c, 15, 34, 0
18, 457560, Note_on_c, 15, 44, 84
18, 457664, Note_on_c, 15, 44, 0
18, 457680, Note_on_c, 15, 43, 84
18, 457784, Note_on_c, 15, 43, 0
18, 457800, Note_on_c, 15, 41, 84
18, 457904, Note_on_c, 15, 41, 0
18, 457920, Note_on_c, 15, 39, 84
18, 458159, Note_on_c, 15, 39, 0
18, 460080, Program_c, 15, 45
18, 460320, Note_on_c, 15, 44, 52
18, 460559, Note_on_c, 15, 44, 0
18, 460560, Note_on_c, 15, 44, 52
18, 460799, Note_on_c, 15, 44, 0
18, 460800, Note_on_c, 15, 41, 52
18, 461039, Note_on_c, 15, 41, 0
18, 462720, Note_on_c, 15, 34, 68
18, 462959, Note_on_c, 15, 34, 0
18, 463200, Note_on_c, 15, 34, 60
18, 463439, Note_on_c, 15, 34, 0
18, 463440, Note_on_c, 15, 34, 56
18, 463679, Note_on_c, 15, 34, 0
18, 463920, Note_on_c, 15, 39, 52
18, 464159, Note_on_c, 15, 39, 0
18, 466560, Control_c, 15, 11, 96
18, 466560, Program_c, 15, 48
18, 466800, Note_on_c, 15, 34, 68
18, 467039, Note_on_c, 15, 34, 0
18, 467040, Note_on_c, 15, 30, 68
18, 467279, Note_on_c, 15, 30, 0
18, 467280, Note_on_c, 15, 29, 68
18, 467320, Control_c, 15, 11, 99
18, 467360, Control_c, 15, 11, 101
18, 467400, Control_c, 15, 11, 104
18, 467440, Control_c, 15, 11, 106
18, 467480, Control_c, 15, 11, 109
18, 467520, Control_c, 15, 11, 112
18, 467560, Control_c, 15, 11, 114
18, 467600, Control_c, 15, 11, 117
18, 467640, Control_c, 15, 11, 119
18, 467680, Control_c, 15, 11, 122
18, 467720, Control_c, 15, 11, 124
18, 467759, Note_on_c, 15, 29, 0
18, 467760, Note_on_c, 15, 28, 68
18, 467760, Control_c, 15, 11, 127
18, 467800, Control_c, 15, 11, 122
18, 467840, Control_c, 15, 11, 117
18, 467880, Control_c, 15, 11, 112
18, 467920, Control_c, 15, 11, 106
18, 467960, Control_c, 15, 11, 96
18, 467999, Note_on_c, 15, 28, 0
18, 469440, Control_c, 15, 11, 127
18, 469680, Note_on_c, 15, 34, 44
18, 469859, Note_on_c, 15, 34, 0
18, 469920, Note_on_c, 15, 34, 44
18, 470099, Note_on_c, 15, 34, 0
18, 470400, Note_on_c, 15, 34, 44
18, 470579, Note_on_c, 15, 34, 0
18, 470640, Note_on_c, 15, 34, 44
18, 470819, Note_on_c, 15, 34, 0
18, 471120, Note_on_c, 15, 34, 44
18, 471299, Note_on_c, 15, 34, 0
18, 471360, Note_on_c, 15, 34, 44
18, 471539, Note_on_c, 15, 34, 0
18, 471600, Note_on_c, 15, 34, 44
18, 471779, Note_on_c, 15, 34, 0
18, 471840, Note_on_c, 15, 34, 44
18, 472019, Note_on_c, 15, 34, 0
18, 472080, Note_on_c, 15, 34, 44
18, 472259, Note_on_c, 15, 34, 0
18, 472320, Note_on_c, 15, 34, 44
18, 472409, Note_on_c, 15, 34, 0
18, 472440, Note_on_c, 15, 34, 44
18, 472529, Note_on_c, 15, 34, 0
18, 472560, Note_on_c, 15, 34, 44
18, 472649, Note_on_c, 15, 34, 0
18, 472680, Note_on_c, 15, 34, 44
18, 472769, Note_on_c, 15, 34, 0
18, 472800, Note_on_c, 15, 34, 44
18, 472889, Note_on_c, 15, 34, 0
18, 472920, Note_on_c, 15, 34, 44
18, 473009, Note_on_c, 15, 34, 0
18, 473040, Note_on_c, 15, 34, 44
18, 473129, Note_on_c, 15, 34, 0
18, 473160, Note_on_c, 15, 34, 44
18, 473249, Note_on_c, 15, 34, 0
18, 473280, Note_on_c, 15, 34, 44
18, 473369, Note_on_c, 15, 34, 0
18, 473400, Note_on_c, 15, 34, 44
18, 473489, Note_on_c, 15, 34, 0
18, 473520, Note_on_c, 15, 34, 44
18, 473609, Note_on_c, 15, 34, 0
18, 473640, Note_on_c, 15, 34, 44
18, 473729, Note_on_c, 15, 34, 0
18, 473760, Note_on_c, 15, 34, 44
18, 473849, Note_on_c, 15, 34, 0
18, 473880, Note_on_c, 15, 34, 45
18, 473969, Note_on_c, 15, 34, 0
18, 474000, Note_on_c, 15, 34, 46
18, 474089, Note_on_c, 15, 34, 0
18, 474120, Note_on_c, 15, 34, 48
18, 474209, Note_on_c, 15, 34, 0
18, 474240, Note_on_c, 15, 34, 49
18, 474329, Note_on_c, 15, 34, 0
18, 474360, Note_on_c, 15, 34, 50
18, 474449, Note_on_c, 15, 34, 0
18, 474480, Note_on_c, 15, 34, 52
18, 474569, Note_on_c, 15, 34, 0
18, 474600, Note_on_c, 15, 34, 53
18, 474689, Note_on_c, 15, 34, 0
18, 474720, Note_on_c, 15, 34, 54
18, 474809, Note_on_c, 15, 34, 0
18, 474840, Note_on_c, 15, 34, 56
18, 474929, Note_on_c, 15, 34, 0
18, 474960, Note_on_c, 15, 34, 57
18, 475049, Note_on_c, 15, 34, 0
18, 475080, Note_on_c, 15, 34, 58
18, 475169, Note_on_c, 15, 34, 0
18, 475200, Note_on_c, 15, 34, 60
18, 475289, Note_on_c, 15, 34, 0
18, 475320, Note_on_c, 15, 34, 61
18, 475409, Note_on_c, 15, 34, 0
18, 475440, Note_on_c, 15, 34, 62
18, 475529, Note_on_c, 15, 34, 0
18, 475560, Note_on_c, 15, 34, 64
18, 475649, Note_on_c, 15, 34, 0
18, 475680, Note_on_c, 15, 34, 65
18, 475769, Note_on_c, 15, 34, 0
18, 475800, Note_on_c, 15, 34, 66
18, 475889, Note_on_c, 15, 34, 0
18, 475920, Note_on_c, 15, 34, 68
18, 476009, Note_on_c, 15, 34, 0
18, 476040, Note_on_c, 15, 34, 69
18, 476129, Note_on_c, 15, 34, 0
18, 476160, Note_on_c, 15, 34, 70
18, 476249, Note_on_c, 15, 34, 0
18, 476280, Note_on_c, 15, 44, 72
18, 476369, Note_on_c, 15, 44, 0
18, 476400, Note_on_c, 15, 43, 73
18, 476489, Note_on_c, 15, 43, 0
18, 476520, Note_on_c, 15, 41, 74
18, 476609, Note_on_c, 15, 41, 0
18, 476640, Note_on_c, 15, 39, 76
18, 476744, Note_on_c, 15, 39, 0
18, 476760, Note_on_c, 15, 34, 76
18, 476864, Note_on_c, 15, 34, 0
18, 476880, Note_on_c, 15, 39, 76
18, 476984, Note_on_c, 15, 39, 0
18, 477000, Note_on_c, 15, 34, 76
18, 477104, Note_on_c, 15, 34, 0
18, 477120, Note_on_c, 15, 39, 76
18, 477224, Note_on_c, 15, 39, 0
18, 477240, Note_on_c, 15, 34, 76
18, 477344, Note_on_c, 15, 34, 0
18, 477360, Note_on_c, 15, 39, 76
18, 477464, Note_on_c, 15, 39, 0
18, 477480, Note_on_c, 15, 34, 76
18, 477584, Note_on_c, 15, 34, 0
18, 477600, Note_on_c, 15, 39, 84
18, 477704, Note_on_c, 15, 39, 0
18, 477720, Note_on_c, 15, 34, 76
18, 477824, Note_on_c, 15, 34, 0
18, 477840, Note_on_c, 15, 39, 76
18, 477944, Note_on_c, 15, 39, 0
18, 477960, Note_on_c, 15, 34, 76
18, 478064, Note_on_c, 15, 34, 0
18, 478080, Note_on_c, 15, 38, 76
18, 478184, Note_on_c, 15, 38, 0
18, 478200, Note_on_c, 15, 34, 76
18, 478304, Note_on_c, 15, 34, 0
18, 478320, Note_on_c, 15, 38, 84
18, 478424, Note_on_c, 15, 38, 0
18, 478440, Note_on_c, 15, 34, 76
18, 478544, Note_on_c, 15, 34, 0
18, 478560, Note_on_c, 15, 38, 76
18, 478664, Note_on_c, 15, 38, 0
18, 478680, Note_on_c, 15, 34, 76
18, 478784, Note_on_c, 15, 34, 0
18, 478800, Note_on_c, 15, 41, 76
18, 478904, Note_on_c, 15, 41, 0
18, 478920, Note_on_c, 15, 34, 76
18, 479024, Note_on_c, 15, 34, 0
18, 479040, Note_on_c, 15, 44, 84
18, 479144, Note_on_c, 15, 44, 0
18, 479160, Note_on_c, 15, 34, 76
18, 479264, Note_on_c, 15, 34, 0
18, 479280, Note_on_c, 15, 38, 76
18, 479384, Note_on_c, 15, 38, 0
18, 479400, Note_on_c, 15, 34, 76
18, 479504, Note_on_c, 15, 34, 0
18, 479520, Note_on_c, 15, 39, 84
18, 479624, Note_on_c, 15, 39, 0
18, 479640, Note_on_c, 15, 34, 84
18, 479744, Note_on_c, 15, 34, 0
18, 479760, Note_on_c, 15, 39, 84
18, 479864, Note_on_c, 15, 39, 0
18, 479880, Note_on_c, 15, 34, 84
18, 479984, Note_on_c, 15, 34, 0
18, 480000, Note_on_c, 15, 39, 84
18, 480104, Note_on_c, 15, 39, 0
18, 480120, Note_on_c, 15, 34, 84
18, 480224, Note_on_c, 15, 34, 0
18, 480240, Note_on_c, 15, 39, 84
18, 480344, Note_on_c, 15, 39, 0
18, 480360, Note_on_c, 15, 34, 84
18, 480464, Note_on_c, 15, 34, 0
18, 480480, Note_on_c, 15, 39, 84
18, 480584, Note_on_c, 15, 39, 0
18, 480600, Note_on_c, 15, 34, 84
18, 480704, Note_on_c, 15, 34, 0
18, 480720, Note_on_c, 15, 39, 84
18, 480824, Note_on_c, 15, 39, 0
18, 480840, Note_on_c, 15, 34, 84
18, 480944, Note_on_c, 15, 34, 0
18, 480960, Note_on_c, 15, 38, 84
18, 481064, Note_on_c, 15, 38, 0
18, 481080, Note_on_c, 15, 34, 84
18, 481184, Note_on_c, 15, 34, 0
18, 481200, Note_on_c, 15, 38, 84
18, 481304, Note_on_c, 15, 38, 0
18, 481320, Note_on_c, 15, 34, 84
18, 481424, Note_on_c, 15, 34, 0
18, 481440, Note_on_c, 15, 38, 84
18, 481544, Note_on_c, 15, 38, 0
18, 481560, Note_on_c, 15, 34, 84
18, 481664, Note_on_c, 15, 34, 0
18, 481680, Note_on_c, 15, 41, 84
18, 481784, Note_on_c, 15, 41, 0
18, 481800, Note_on_c, 15, 34, 84
18, 481904, Note_on_c, 15, 34, 0
18, 481920, Note_on_c, 15, 44, 84
18, 482024, Note_on_c, 15, 44, 0
18, 482040, Note_on_c, 15, 46, 84
18, 482144, Note_on_c, 15, 46, 0
18, 482160, Note_on_c, 15, 44, 84
18, 482264, Note_on_c, 15, 44, 0
18, 482280, Note_on_c, 15, 46, 84
18, 482384, Note_on_c, 15, 46, 0
18, 482400, Note_on_c, 15, 43, 84
18, 482999, Note_on_c, 15, 43, 0
18, 483000, Note_on_c, 15, 42, 84
18, 483119, Note_on_c, 15, 42, 0
18, 483120, Note_on_c, 15, 43, 84
18, 483224, Note_on_c, 15, 43, 0
18, 483240, Note_on_c, 15, 38, 84
18, 483329, Note_on_c, 15, 38, 0
18, 483360, Note_on_c, 15, 39, 84
18, 483449, Note_on_c, 15, 39, 0
18, 483480, Note_on_c, 15, 41, 84
18, 483569, Note_on_c, 15, 41, 0
18, 483600, Note_on_c, 15, 42, 84
18, 483689, Note_on_c, 15, 42, 0
18, 483720, Note_on_c, 15, 43, 84
18, 483809, Note_on_c, 15, 43, 0
18, 483840, Note_on_c, 15, 44, 84
18, 483944, Note_on_c, 15, 44, 0
18, 483960, Note_on_c, 15, 43, 84
18, 484064, Note_on_c, 15, 43, 0
18, 484080, Note_on_c, 15, 41, 92
18, 484184, Note_on_c, 15, 41, 0
18, 484200, Note_on_c, 15, 45, 84
18, 484304, Note_on_c, 15, 45, 0
18, 484320, Note_on_c, 15, 46, 84
18, 484424, Note_on_c, 15, 46, 0
18, 484440, Note_on_c, 15, 44, 84
18, 484544, Note_on_c, 15, 44, 0
18, 484560, Note_on_c, 15, 43, 92
18, 484664, Note_on_c, 15, 43, 0
18, 484680, Note_on_c, 15, 35, 84
18, 484784, Note_on_c, 15, 35, 0
18, 484800, Note_on_c, 15, 36, 84
18, 484904, Note_on_c, 15, 36, 0
18, 484920, Note_on_c, 15, 34, 84
18, 485024, Note_on_c, 15, 34, 0
18, 485040, Note_on_c, 15, 32, 92
18, 485144, Note_on_c, 15, 32, 0
18, 485160, Note_on_c, 15, 36, 84
18, 485264, Note_on_c, 15, 36, 0
18, 485280, Note_on_c, 15, 38, 84
18, 485384, Note_on_c, 15, 38, 0
18, 485400, Note_on_c, 15, 36, 84
18, 485504, Note_on_c, 15, 36, 0
18, 485520, Note_on_c, 15, 34, 92
18, 485624, Note_on_c, 15, 34, 0
18, 485640, Note_on_c, 15, 38, 84
18, 485744, Note_on_c, 15, 38, 0
18, 485760, Note_on_c, 15, 39, 84
18, 485864, Note_on_c, 15, 39, 0
18, 485880, Note_on_c, 15, 38, 84
18, 485984, Note_on_c, 15, 38, 0
18, 486000, Note_on_c, 15, 36, 84
18, 486104, Note_on_c, 15, 36, 0
18, 486120, Note_on_c, 15, 47, 84
18, 486224, Note_on_c, 15, 47, 0
18, 486240, Note_on_c, 15, 48, 84
18, 486344, Note_on_c, 15, 48, 0
18, 486360, Note_on_c, 15, 46, 84
18, 486464, Note_on_c, 15, 46, 0
18, 486480, Note_on_c, 15, 45, 84
18, 486584, Note_on_c, 15, 45, 0
18, 486600, Note_on_c, 15, 44, 84
18, 486704, Note_on_c, 15, 44, 0
18, 486720, Note_on_c, 15, 43, 84
18, 486899, Note_on_c, 15, 43, 0
18, 486960, Note_on_c, 15, 47, 84
18, 487139, Note_on_c, 15, 47, 0
18, 487200, Note_on_c, 15, 48, 84
18, 487379, Note_on_c, 15, 48, 0
18, 487680, Note_on_c, 15, 43, 84
18, 487859, Note_on_c, 15, 43, 0
18, 487920, Note_on_c, 15, 44, 84
18, 488099, Note_on_c, 15, 44, 0
18, 488400, Note_on_c, 15, 45, 84
18, 488579, Note_on_c, 15, 45, 0
18, 488640, Note_on_c, 15, 46, 84
18, 488819, Note_on_c, 15, 46, 0
18, 489120, Note_on_c, 15, 47, 84
18, 489299, Note_on_c, 15, 47, 0
18, 489360, Note_on_c, 15, 48, 84
18, 489539, Note_on_c, 15, 48, 0
18, 489840, Note_on_c, 15, 43, 84
18, 490019, Note_on_c, 15, 43, 0
18, 490080, Note_on_c, 15, 44, 84
18, 490259, Note_on_c, 15, 44, 0
18, 490560, Note_on_c, 15, 45, 92
18, 490739, Note_on_c, 15, 45, 0
18, 491040, Note_on_c, 15, 33, 92
18, 491219, Note_on_c, 15, 33, 0
18, 491520, Note_on_c, 15, 33, 92
18, 491699, Note_on_c, 15, 33, 0
18, 492000, Note_on_c, 15, 33, 92
18, 492179, Note_on_c, 15, 33, 0
18, 492480, Note_on_c, 15, 33, 92
18, 492659, Note_on_c, 15, 33, 0
18, 492960, Note_on_c, 15, 33, 92
18, 493139, Note_on_c, 15, 33, 0
18, 496080, Note_on_c, 15, 36, 52
18, 496319, Note_on_c, 15, 36, 0
18, 496800, Note_on_c, 15, 37, 52
18, 497039, Note_on_c, 15, 37, 0
18, 497520, Note_on_c, 15, 38, 52
18, 497759, Note_on_c, 15, 38, 0
18, 498240, Note_on_c, 15, 27, 52
18, 498479, Note_on_c, 15, 27, 0
18, 498600, Note_on_c, 15, 39, 52
18, 498704, Note_on_c, 15, 39, 0
18, 498720, Note_on_c, 15, 39, 52
18, 498824, Note_on_c, 15, 39, 0
18, 498840, Note_on_c, 15, 39, 52
18, 498944, Note_on_c, 15, 39, 0
18, 498960, Note_on_c, 15, 44, 52
18, 499064, Note_on_c, 15, 44, 0
18, 499080, Note_on_c, 15, 44, 53
18, 499184, Note_on_c, 15, 44, 0
18, 499200, Note_on_c, 15, 44, 55
18, 499304, Note_on_c, 15, 44, 0
18, 499320, Note_on_c, 15, 44, 57
18, 499424, Note_on_c, 15, 44, 0
18, 499440, Note_on_c, 15, 44, 59
18, 499544, Note_on_c, 15, 44, 0
18, 499560, Note_on_c, 15, 44, 60
18, 499664, Note_on_c, 15, 44, 0
18, 499680, Note_on_c, 15, 41, 62
18, 499784, Note_on_c, 15, 41, 0
18, 499800, Note_on_c, 15, 41, 64
18, 499904, Note_on_c, 15, 41, 0
18, 499920, Note_on_c, 15, 41, 66
18, 500024, Note_on_c, 15, 41, 0
18, 500040, Note_on_c, 15, 41, 68
18, 500159, Note_on_c, 15, 41, 0
18, 500160, Note_on_c, 15, 43, 69
18, 500279, Note_on_c, 15, 43, 0
18, 500280, Note_on_c, 15, 44, 71
18, 500384, Note_on_c, 15, 44, 0
18, 500400, Note_on_c, 15, 46, 73
18, 500489, Note_on_c, 15, 46, 0
18, 500520, Note_on_c, 15, 43, 75
18, 500609, Note_on_c, 15, 43, 0
18, 500640, Note_on_c, 15, 39, 76
18, 500729, Note_on_c, 15, 39, 0
18, 500760, Note_on_c, 15, 46, 78
18, 500849, Note_on_c, 15, 46, 0
18, 500880, Note_on_c, 15, 43, 80
18, 500969, Note_on_c, 15, 43, 0
18, 501000, Note_on_c, 15, 39, 82
18, 501089, Note_on_c, 15, 39, 0
18, 501120, Note_on_c, 15, 34, 84
18, 501224, Note_on_c, 15, 34, 0
18, 501240, Note_on_c, 15, 34, 84
18, 501344, Note_on_c, 15, 34, 0
18, 501360, Note_on_c, 15, 34, 84
18, 501464, Note_on_c, 15, 34, 0
18, 501480, Note_on_c, 15, 34, 84
18, 501584, Note_on_c, 15, 34, 0
18, 501600, Note_on_c, 15, 34, 84
18, 501704, Note_on_c, 15, 34, 0
18, 501720, Note_on_c, 15, 34, 84
18, 501824, Note_on_c, 15, 34, 0
18, 501840, Note_on_c, 15, 39, 76
18, 502079, Note_on_c, 15, 39, 0
18, 502560, Note_on_c, 15, 39, 76
18, 502799, Note_on_c, 15, 39, 0
18, 503280, Note_on_c, 15, 39, 76
18, 503519, Note_on_c, 15, 39, 0
18, 504000, Note_on_c, 15, 39, 76
18, 504179, Note_on_c, 15, 39, 0
18, 504240, Note_on_c, 15, 39, 76
18, 504419, Note_on_c, 15, 39, 0
18, 504480, Note_on_c, 15, 39, 76
18, 504659, Note_on_c, 15, 39, 0
18, 504720, Note_on_c, 15, 39, 76
18, 504839, Note_on_c, 15, 39, 0
18, 504840, Note_on_c, 15, 39, 52
18, 506159, Note_on_c, 15, 39, 0
18, 506160, Note_on_c, 15, 39, 52
18, 506160, Control_c, 15, 11, 127
18, 506256, Control_c, 15, 11, 126
18, 506352, Control_c, 15, 11, 125
18, 506448, Control_c, 15, 11, 124
18, 506544, Control_c, 15, 11, 123
18, 506640, Control_c, 15, 11, 122
18, 506736, Control_c, 15, 11, 121
18, 506832, Control_c, 15, 11, 120
18, 506928, Control_c, 15, 11, 119
18, 507024, Control_c, 15, 11, 118
18, 507120, Control_c, 15, 11, 117
18, 507216, Control_c, 15, 11, 116
18, 507312, Control_c, 15, 11, 115
18, 507408, Control_c, 15, 11, 114
18, 507504, Control_c, 15, 11, 112
18, 507599, Note_on_c, 15, 39, 0
18, 507600, Note_on_c, 15, 39, 52
18, 509009, Note_on_c, 15, 39, 0
18, 509025, Control_c, 15, 11, 127
18, 509040, Note_on_c, 15, 37, 76
18, 510464, Note_on_c, 15, 37, 0
18, 510480, Note_on_c, 15, 37, 52
18, 511904, Note_on_c, 15, 37, 0
18, 511920, Note_on_c, 15, 36, 84
18, 512024, Note_on_c, 15, 36, 0
18, 512040, Note_on_c, 15, 36, 84
18, 512144, Note_on_c, 15, 36, 0
18, 512160, Note_on_c, 15, 36, 84
18, 512264, Note_on_c, 15, 36, 0
18, 512280, Note_on_c, 15, 36, 84
18, 512384, Note_on_c, 15, 36, 0
18, 512400, Note_on_c, 15, 36, 84
18, 512504, Note_on_c, 15, 36, 0
18, 512520, Note_on_c, 15, 36, 84
18, 512624, Note_on_c, 15, 36, 0
18, 512640, Note_on_c, 15, 36, 84
18, 512744, Note_on_c, 15, 36, 0
18, 512760, Note_on_c, 15, 36, 84
18, 512864, Note_on_c, 15, 36, 0
18, 512880, Note_on_c, 15, 36, 84
18, 512984, Note_on_c, 15, 36, 0
18, 513000, Note_on_c, 15, 36, 84
18, 513104, Note_on_c, 15, 36, 0
18, 513120, Note_on_c, 15, 36, 84
18, 513224, Note_on_c, 15, 36, 0
18, 513240, Note_on_c, 15, 36, 84
18, 513344, Note_on_c, 15, 36, 0
18, 513360, Note_on_c, 15, 36, 52
18, 514080, Control_c, 15, 11, 127
18, 514128, Control_c, 15, 11, 126
18, 514176, Control_c, 15, 11, 125
18, 514224, Control_c, 15, 11, 124
18, 514272, Control_c, 15, 11, 123
18, 514320, Control_c, 15, 11, 122
18, 514368, Control_c, 15, 11, 121
18, 514416, Control_c, 15, 11, 120
18, 514464, Control_c, 15, 11, 119
18, 514512, Control_c, 15, 11, 118
18, 514560, Control_c, 15, 11, 117
18, 514608, Control_c, 15, 11, 116
18, 514656, Control_c, 15, 11, 115
18, 514704, Control_c, 15, 11, 114
18, 514752, Control_c, 15, 11, 112
18, 514799, Note_on_c, 15, 36, 0
18, 514800, Note_on_c, 15, 36, 52
18, 516239, Note_on_c, 15, 36, 0
18, 516240, Note_on_c, 15, 36, 52
18, 517664, Note_on_c, 15, 36, 0
18, 517680, Note_on_c, 15, 35, 52
18, 519119, Note_on_c, 15, 35, 0
18, 519120, Note_on_c, 15, 35, 52
18, 520544, Note_on_c, 15, 35, 0
18, 520560, Note_on_c, 15, 34, 52
18, 521279, Note_on_c, 15, 34, 0
18, 521280, Note_on_c, 15, 46, 52
18, 521984, Note_on_c, 15, 46, 0
18, 522000, Note_on_c, 15, 44, 52
18, 523424, Note_on_c, 15, 44, 0
18, 523440, Note_on_c, 15, 40, 52
18, 523679, Note_on_c, 15, 40, 0
18, 525600, Program_c, 15, 45
18, 525600, Control_c, 15, 11, 127
18, 525840, Note_on_c, 15, 36, 52
18, 526079, Note_on_c, 15, 36, 0
18, 526080, Note_on_c, 15, 36, 52
18, 526319, Note_on_c, 15, 36, 0
18, 526320, Note_on_c, 15, 41, 52
18, 526559, Note_on_c, 15, 41, 0
18, 527280, Note_on_c, 15, 41, 52
18, 527519, Note_on_c, 15, 41, 0
18, 527520, Note_on_c, 15, 41, 52
18, 527759, Note_on_c, 15, 41, 0
18, 527760, Note_on_c, 15, 36, 52
18, 527999, Note_on_c, 15, 36, 0
18, 528720, Note_on_c, 15, 36, 52
18, 528959, Note_on_c, 15, 36, 0
18, 528960, Note_on_c, 15, 36, 52
18, 529199, Note_on_c, 15, 36, 0
18, 529200, Note_on_c, 15, 41, 52
18, 529439, Note_on_c, 15, 41, 0
18, 530160, Note_on_c, 15, 41, 52
18, 530399, Note_on_c, 15, 41, 0
18, 530400, Note_on_c, 15, 41, 52
18, 530639, Note_on_c, 15, 41, 0
18, 530640, Control_c, 15, 11, 96
18, 530640, Program_c, 15, 48
18, 530700, Control_c, 15, 11, 97
18, 530760, Control_c, 15, 11, 99
18, 530820, Control_c, 15, 11, 100
18, 530880, Note_on_c, 15, 34, 68
18, 530880, Control_c, 15, 11, 101
18, 530940, Control_c, 15, 11, 102
18, 531000, Control_c, 15, 11, 104
18, 531060, Control_c, 15, 11, 105
18, 531119, Note_on_c, 15, 34, 0
18, 531120, Note_on_c, 15, 36, 68
18, 531120, Control_c, 15, 11, 106
18, 531180, Control_c, 15, 11, 108
18, 531240, Control_c, 15, 11, 109
18, 531300, Control_c, 15, 11, 110
18, 531359, Note_on_c, 15, 36, 0
18, 531360, Note_on_c, 15, 38, 84
18, 531360, Control_c, 15, 11, 112
18, 531420, Control_c, 15, 11, 113
18, 531480, Control_c, 15, 11, 114
18, 531540, Control_c, 15, 11, 115
18, 531600, Control_c, 15, 11, 117
18, 531660, Control_c, 15, 11, 118
18, 531719, Note_on_c, 15, 38, 0
18, 531720, Note_on_c, 15, 36, 68
18, 531720, Control_c, 15, 11, 119
18, 531780, Control_c, 15, 11, 121
18, 531839, Note_on_c, 15, 36, 0
18, 531840, Control_c, 15, 11, 122
18, 531840, Note_on_c, 15, 34, 68
18, 531900, Control_c, 15, 11, 123
18, 531960, Control_c, 15, 11, 124
18, 532020, Control_c, 15, 11, 127
18, 532064, Note_on_c, 15, 34, 0
18, 532080, Note_on_c, 15, 39, 52
18, 532319, Note_on_c, 15, 39, 0
18, 532800, Program_c, 15, 45
18, 533040, Note_on_c, 15, 39, 52
18, 533279, Note_on_c, 15, 39, 0
18, 533280, Note_on_c, 15, 39, 52
18, 533519, Note_on_c, 15, 39, 0
18, 533520, Note_on_c, 15, 34, 52
18, 533759, Note_on_c, 15, 34, 0
18, 534480, Note_on_c, 15, 34, 52
18, 534719, Note_on_c, 15, 34, 0
18, 534720, Note_on_c, 15, 34, 52
18, 534959, Note_on_c, 15, 34, 0
18, 534960, Note_on_c, 15, 39, 52
18, 535199, Note_on_c, 15, 39, 0
18, 535920, Note_on_c, 15, 39, 52
18, 536159, Note_on_c, 15, 39, 0
18, 536160, Note_on_c, 15, 39, 52
18, 536399, Note_on_c, 15, 39, 0
18, 536400, Note_on_c, 15, 34, 52
18, 536639, Note_on_c, 15, 34, 0
18, 536880, Program_c, 15, 48
18, 537000, Note_on_c, 15, 46, 52
18, 537104, Note_on_c, 15, 46, 0
18, 537120, Note_on_c, 15, 43, 52
18, 537359, Note_on_c, 15, 43, 0
18, 537720, Note_on_c, 15, 43, 52
18, 537824, Note_on_c, 15, 43, 0
18, 537840, Note_on_c, 15, 44, 52
18, 538079, Note_on_c, 15, 44, 0
18, 538440, Note_on_c, 15, 44, 52
18, 538544, Note_on_c, 15, 44, 0
18, 538560, Note_on_c, 15, 41, 52
18, 538799, Note_on_c, 15, 41, 0
18, 539160, Note_on_c, 15, 41, 52
18, 539264, Note_on_c, 15, 41, 0
18, 539280, Note_on_c, 15, 38, 52
18, 539519, Note_on_c, 15, 38, 0
18, 539880, Note_on_c, 15, 38, 51
18, 539984, Note_on_c, 15, 38, 0
18, 540000, Note_on_c, 15, 39, 50
18, 540239, Note_on_c, 15, 39, 0
18, 540600, Note_on_c, 15, 39, 49
18, 540704, Note_on_c, 15, 39, 0
18, 540720, Note_on_c, 15, 36, 48
18, 540959, Note_on_c, 15, 36, 0
18, 541320, Note_on_c, 15, 36, 47
18, 541424, Note_on_c, 15, 36, 0
18, 541440, Note_on_c, 15, 35, 46
18, 541679, Note_on_c, 15, 35, 0
18, 542040, Note_on_c, 15, 35, 45
18, 542144, Note_on_c, 15, 35, 0
18, 542160, Note_on_c, 15, 34, 44
18, 542339, Note_on_c, 15, 34, 0
18, 542400, Note_on_c, 15, 38, 44
18, 542579, Note_on_c, 15, 38, 0
18, 542640, Note_on_c, 15, 34, 44
18, 542819, Note_on_c, 15, 34, 0
18, 542880, Note_on_c, 15, 41, 52
18, 543059, Note_on_c, 15, 41, 0
18, 543120, Note_on_c, 15, 34, 52
18, 543299, Note_on_c, 15, 34, 0
18, 543360, Note_on_c, 15, 46, 52
18, 543539, Note_on_c, 15, 46, 0
18, 543600, Note_on_c, 15, 34, 52
18, 543779, Note_on_c, 15, 34, 0
18, 543840, Note_on_c, 15, 50, 52
18, 544019, Note_on_c, 15, 50, 0
18, 544080, Note_on_c, 15, 34, 52
18, 544259, Note_on_c, 15, 34, 0
18, 544320, Note_on_c, 15, 53, 68
18, 544439, Note_on_c, 15, 53, 0
18, 544440, Note_on_c, 15, 53, 52
18, 545024, Note_on_c, 15, 53, 0
18, 545040, Note_on_c, 15, 34, 52
18, 545219, Note_on_c, 15, 34, 0
18, 545280, Note_on_c, 15, 39, 52
18, 545459, Note_on_c, 15, 39, 0
18, 545520, Note_on_c, 15, 34, 52
18, 545699, Note_on_c, 15, 34, 0
18, 545760, Note_on_c, 15, 42, 52
18, 545939, Note_on_c, 15, 42, 0
18, 546000, Note_on_c, 15, 34, 52
18, 546179, Note_on_c, 15, 34, 0
18, 546240, Note_on_c, 15, 46, 52
18, 546419, Note_on_c, 15, 46, 0
18, 546480, Note_on_c, 15, 34, 52
18, 546659, Note_on_c, 15, 34, 0
18, 546720, Note_on_c, 15, 39, 52
18, 546899, Note_on_c, 15, 39, 0
18, 546960, Note_on_c, 15, 34, 52
18, 547139, Note_on_c, 15, 34, 0
18, 547200, Note_on_c, 15, 42, 68
18, 547319, Note_on_c, 15, 42, 0
18, 547320, Note_on_c, 15, 42, 52
18, 548144, Note_on_c, 15, 42, 0
18, 548160, Note_on_c, 15, 41, 52
18, 548339, Note_on_c, 15, 41, 0
18, 548400, Note_on_c, 15, 34, 52
18, 548579, Note_on_c, 15, 34, 0
18, 548640, Note_on_c, 15, 44, 68
18, 548759, Note_on_c, 15, 44, 0
18, 548760, Note_on_c, 15, 44, 52
18, 549584, Note_on_c, 15, 44, 0
18, 549600, Note_on_c, 15, 43, 52
18, 549779, Note_on_c, 15, 43, 0
18, 549840, Note_on_c, 15, 34, 52
18, 550019, Note_on_c, 15, 34, 0
18, 550080, Note_on_c, 15, 46, 68
18, 550200, Control_c, 15, 11, 96
18, 550800, Control_c, 15, 11, 80
18, 550980, Control_c, 15, 11, 82
18, 551024, Note_on_c, 15, 46, 0
18, 551040, Note_on_c, 15, 45, 68
18, 551160, Control_c, 15, 11, 84
18, 551219, Note_on_c, 15, 45, 0
18, 551280, Note_on_c, 15, 34, 68
18, 551340, Control_c, 15, 11, 86
18, 551459, Note_on_c, 15, 34, 0
18, 551520, Note_on_c, 15, 45, 68
18, 551520, Control_c, 15, 11, 88
18, 551699, Note_on_c, 15, 45, 0
18, 551700, Control_c, 15, 11, 90
18, 551760, Note_on_c, 15, 34, 68
18, 551880, Control_c, 15, 11, 92
18, 551939, Note_on_c, 15, 34, 0
18, 552000, Note_on_c, 15, 45, 68
18, 552060, Control_c, 15, 11, 94
18, 552179, Note_on_c, 15, 45, 0
18, 552240, Note_on_c, 15, 34, 68
18, 552240, Control_c, 15, 11, 96
18, 552419, Note_on_c, 15, 34, 0
18, 552420, Control_c, 15, 11, 98
18, 552480, Note_on_c, 15, 45, 68
18, 552600, Control_c, 15, 11, 100
18, 552659, Note_on_c, 15, 45, 0
18, 552720, Note_on_c, 15, 34, 68
18, 552780, Control_c, 15, 11, 102
18, 552899, Note_on_c, 15, 34, 0
18, 552960, Note_on_c, 15, 45, 68
18, 552960, Control_c, 15, 11, 104
18, 553139, Note_on_c, 15, 45, 0
18, 553140, Control_c, 15, 11, 105
18, 553200, Note_on_c, 15, 34, 68
18, 553320, Control_c, 15, 11, 107
18, 553379, Note_on_c, 15, 34, 0
18, 553440, Note_on_c, 15, 45, 68
18, 553500, Control_c, 15, 11, 109
18, 553619, Note_on_c, 15, 45, 0
18, 553680, Control_c, 15, 11, 111
18, 553680, Note_on_c, 15, 34, 68
18, 553859, Note_on_c, 15, 34, 0
18, 553860, Control_c, 15, 11, 113
18, 553920, Note_on_c, 15, 46, 68
18, 554040, Control_c, 15, 11, 115
18, 554099, Note_on_c, 15, 46, 0
18, 554160, Note_on_c, 15, 34, 68
18, 554220, Control_c, 15, 11, 117
18, 554339, Note_on_c, 15, 34, 0
18, 554400, Control_c, 15, 11, 119
18, 554400, Note_on_c, 15, 46, 68
18, 554579, Note_on_c, 15, 46, 0
18, 554580, Control_c, 15, 11, 121
18, 554640, Note_on_c, 15, 34, 68
18, 554760, Control_c, 15, 11, 123
18, 554819, Note_on_c, 15, 34, 0
18, 554880, Note_on_c, 15, 46, 68
18, 554940, Control_c, 15, 11, 127
18, 555059, Note_on_c, 15, 46, 0
18, 555120, Control_c, 15, 11, 127
18, 555120, Note_on_c, 15, 35, 68
18, 555240, Control_c, 15, 11, 124
18, 555299, Note_on_c, 15, 35, 0
18, 555360, Note_on_c, 15, 47, 68
18, 555360, Control_c, 15, 11, 122
18, 555480, Control_c, 15, 11, 119
18, 555539, Note_on_c, 15, 47, 0
18, 555600, Control_c, 15, 11, 117
18, 555600, Note_on_c, 15, 35, 68
18, 555720, Control_c, 15, 11, 114
18, 555779, Note_on_c, 15, 35, 0
18, 555840, Control_c, 15, 11, 112
18, 555840, Note_on_c, 15, 47, 68
18, 555960, Control_c, 15, 11, 109
18, 556019, Note_on_c, 15, 47, 0
18, 556080, Control_c, 15, 11, 106
18, 556080, Note_on_c, 15, 35, 68
18, 556200, Control_c, 15, 11, 104
18, 556259, Note_on_c, 15, 35, 0
18, 556320, Control_c, 15, 11, 101
18, 556320, Note_on_c, 15, 47, 68
18, 556440, Control_c, 15, 11, 96
18, 556499, Note_on_c, 15, 47, 0
18, 556560, Note_on_c, 15, 36, 68
18, 556739, Note_on_c, 15, 36, 0
18, 557520, Note_on_c, 15, 36, 68
18, 557699, Note_on_c, 15, 36, 0
18, 557760, Note_on_c, 15, 36, 68
18, 557939, Note_on_c, 15, 36, 0
18, 558000, Note_on_c, 15, 32, 68
18, 558179, Note_on_c, 15, 32, 0
18, 558960, Note_on_c, 15, 32, 68
18, 559139, Note_on_c, 15, 32, 0
18, 559200, Note_on_c, 15, 32, 68
18, 559379, Note_on_c, 15, 32, 0
18, 559440, Note_on_c, 15, 34, 68
18, 559440, Control_c, 15, 11, 96
18, 559619, Note_on_c, 15, 34, 0
18, 559620, Control_c, 15, 11, 99
18, 559800, Control_c, 15, 11, 101
18, 559980, Control_c, 15, 11, 104
18, 560160, Control_c, 15, 11, 106
18, 560340, Control_c, 15, 11, 109
18, 560520, Control_c, 15, 11, 112
18, 560700, Control_c, 15, 11, 114
18, 560880, Control_c, 15, 11, 117
18, 561060, Control_c, 15, 11, 119
18, 561120, Note_on_c, 15, 34, 68
18, 561240, Control_c, 15, 11, 122
18, 561299, Note_on_c, 15, 34, 0
18, 561360, Note_on_c, 15, 34, 68
18, 561420, Control_c, 15, 11, 127
18, 561539, Note_on_c, 15, 34, 0
18, 561600, Note_on_c, 15, 34, 52
18, 561779, Note_on_c, 15, 34, 0
18, 561840, Note_on_c, 15, 34, 52
18, 562019, Note_on_c, 15, 34, 0
18, 562080, Note_on_c, 15, 34, 52
18, 562259, Note_on_c, 15, 34, 0
18, 562320, Note_on_c, 15, 39, 52
18, 562499, Note_on_c, 15, 39, 0
18, 563760, Note_on_c, 15, 39, 52
18, 563939, Note_on_c, 15, 39, 0
18, 565200, Note_on_c, 15, 38, 52
18, 565379, Note_on_c, 15, 38, 0
18, 566640, Note_on_c, 15, 34, 52
18, 566819, Note_on_c, 15, 34, 0
18, 567600, Note_on_c, 15, 34, 52
18, 567779, Note_on_c, 15, 34, 0
18, 567840, Note_on_c, 15, 34, 52
18, 568019, Note_on_c, 15, 34, 0
18, 568065, Program_c, 15, 45
18, 568080, Note_on_c, 15, 39, 52
18, 568319, Note_on_c, 15, 39, 0
18, 569520, Note_on_c, 15, 39, 52
18, 569759, Note_on_c, 15, 39, 0
18, 570480, Note_on_c, 15, 39, 52
18, 570719, Note_on_c, 15, 39, 0
18, 570720, Note_on_c, 15, 39, 52
18, 570959, Note_on_c, 15, 39, 0
18, 570960, Note_on_c, 15, 38, 52
18, 571199, Note_on_c, 15, 38, 0
18, 572400, Note_on_c, 15, 34, 52
18, 572639, Note_on_c, 15, 34, 0
18, 573360, Note_on_c, 15, 34, 52
18, 573599, Note_on_c, 15, 34, 0
18, 573600, Note_on_c, 15, 34, 52
18, 573809, Note_on_c, 15, 34, 0
18, 573825, Program_c, 15, 48
18, 573825, Control_c, 15, 11, 80
18, 573840, Control_c, 15, 11, 80
18, 573840, Note_on_c, 15, 39, 76
18, 574000, Control_c, 15, 11, 81
18, 574160, Control_c, 15, 11, 83
18, 574319, Note_on_c, 15, 39, 0
18, 574320, Note_on_c, 15, 43, 76
18, 574320, Control_c, 15, 11, 84
18, 574480, Control_c, 15, 11, 85
18, 574559, Note_on_c, 15, 43, 0
18, 574560, Note_on_c, 15, 39, 76
18, 574640, Control_c, 15, 11, 87
18, 574800, Control_c, 15, 11, 88
18, 574960, Control_c, 15, 11, 89
18, 575039, Note_on_c, 15, 39, 0
18, 575040, Note_on_c, 15, 34, 76
18, 575120, Control_c, 15, 11, 90
18, 575264, Note_on_c, 15, 34, 0
18, 575280, Note_on_c, 15, 39, 76
18, 575280, Control_c, 15, 11, 92
18, 575440, Control_c, 15, 11, 93
18, 575519, Note_on_c, 15, 39, 0
18, 575520, Note_on_c, 15, 43, 76
18, 575600, Control_c, 15, 11, 94
18, 575744, Note_on_c, 15, 43, 0
18, 575760, Note_on_c, 15, 46, 76
18, 575760, Control_c, 15, 11, 96
18, 575920, Control_c, 15, 11, 97
18, 575984, Note_on_c, 15, 46, 0
18, 576000, Note_on_c, 15, 46, 76
18, 576080, Control_c, 15, 11, 98
18, 576240, Control_c, 15, 11, 100
18, 576400, Control_c, 15, 11, 101
18, 576560, Control_c, 15, 11, 102
18, 576704, Note_on_c, 15, 46, 0
18, 576720, Control_c, 15, 11, 104
18, 576720, Note_on_c, 15, 41, 76
18, 576880, Control_c, 15, 11, 105
18, 577040, Control_c, 15, 11, 106
18, 577199, Note_on_c, 15, 41, 0
18, 577200, Control_c, 15, 11, 107
18, 577200, Note_on_c, 15, 44, 76
18, 577360, Control_c, 15, 11, 109
18, 577439, Note_on_c, 15, 44, 0
18, 577440, Note_on_c, 15, 41, 76
18, 577520, Control_c, 15, 11, 110
18, 577680, Control_c, 15, 11, 111
18, 577840, Control_c, 15, 11, 113
18, 577919, Note_on_c, 15, 41, 0
18, 577920, Note_on_c, 15, 34, 76
18, 578000, Control_c, 15, 11, 114
18, 578144, Note_on_c, 15, 34, 0
18, 578160, Control_c, 15, 11, 115
18, 578160, Note_on_c, 15, 41, 76
18, 578320, Control_c, 15, 11, 117
18, 578399, Note_on_c, 15, 41, 0
18, 578400, Note_on_c, 15, 44, 76
18, 578480, Control_c, 15, 11, 118
18, 578624, Note_on_c, 15, 44, 0
18, 578640, Note_on_c, 15, 46, 76
18, 578640, Control_c, 15, 11, 119
18, 578800, Control_c, 15, 11, 120
18, 578819, Note_on_c, 15, 46, 0
18, 578880, Note_on_c, 15, 46, 76
18, 578960, Control_c, 15, 11, 122
18, 579120, Control_c, 15, 11, 123
18, 579280, Control_c, 15, 11, 124
18, 579440, Control_c, 15, 11, 127
18, 579704, Note_on_c, 15, 46, 0
18, 579720, Note_on_c, 15, 39, 76
18, 579779, Note_on_c, 15, 39, 0
18, 579780, Note_on_c, 15, 41, 76
18, 579839, Note_on_c, 15, 41, 0
18, 579840, Note_on_c, 15, 43, 76
18, 579929, Note_on_c, 15, 43, 0
18, 579960, Note_on_c, 15, 43, 76
18, 580019, Note_on_c, 15, 43, 0
18, 580020, Note_on_c, 15, 44, 76
18, 580079, Note_on_c, 15, 44, 0
18, 580080, Note_on_c, 15, 46, 76
18, 580169, Note_on_c, 15, 46, 0
18, 580200, Note_on_c, 15, 48, 76
18, 580259, Note_on_c, 15, 48, 0
18, 580260, Note_on_c, 15, 50, 76
18, 580319, Note_on_c, 15, 50, 0
18, 580320, Note_on_c, 15, 51, 76
18, 580409, Note_on_c, 15, 51, 0
18, 580440, Note_on_c, 15, 43, 76
18, 580499, Note_on_c, 15, 43, 0
18, 580500, Note_on_c, 15, 44, 76
18, 580559, Note_on_c, 15, 44, 0
18, 580560, Note_on_c, 15, 46, 76
18, 580649, Note_on_c, 15, 46, 0
18, 580680, Note_on_c, 15, 46, 76
18, 580739, Note_on_c, 15, 46, 0
18, 580740, Note_on_c, 15, 48, 76
18, 580799, Note_on_c, 15, 48, 0
18, 580800, Note_on_c, 15, 50, 76
18, 580889, Note_on_c, 15, 50, 0
18, 580920, Note_on_c, 15, 51, 76
18, 580979, Note_on_c, 15, 51, 0
18, 580980, Note_on_c, 15, 53, 76
18, 581039, Note_on_c, 15, 53, 0
18, 581040, Note_on_c, 15, 55, 84
18, 581129, Note_on_c, 15, 55, 0
18, 581160, Note_on_c, 15, 53, 76
18, 581249, Note_on_c, 15, 53, 0
18, 581280, Note_on_c, 15, 51, 76
18, 581369, Note_on_c, 15, 51, 0
18, 581400, Note_on_c, 15, 50, 76
18, 581489, Note_on_c, 15, 50, 0
18, 581520, Note_on_c, 15, 48, 76
18, 581609, Note_on_c, 15, 48, 0
18, 581640, Note_on_c, 15, 46, 76
18, 581729, Note_on_c, 15, 46, 0
18, 581760, Note_on_c, 15, 44, 76
18, 581849, Note_on_c, 15, 44, 0
18, 581880, Note_on_c, 15, 43, 76
18, 581969, Note_on_c, 15, 43, 0
18, 582000, Note_on_c, 15, 41, 76
18, 582089, Note_on_c, 15, 41, 0
18, 582120, Note_on_c, 15, 39, 76
18, 582209, Note_on_c, 15, 39, 0
18, 582240, Note_on_c, 15, 38, 76
18, 582329, Note_on_c, 15, 38, 0
18, 582360, Note_on_c, 15, 36, 76
18, 582449, Note_on_c, 15, 36, 0
18, 582480, Note_on_c, 15, 34, 76
18, 582569, Note_on_c, 15, 34, 0
18, 582600, Note_on_c, 15, 34, 76
18, 582659, Note_on_c, 15, 34, 0
18, 582660, Note_on_c, 15, 36, 76
18, 582719, Note_on_c, 15, 36, 0
18, 582720, Note_on_c, 15, 38, 76
18, 582809, Note_on_c, 15, 38, 0
18, 582840, Note_on_c, 15, 38, 76
18, 582899, Note_on_c, 15, 38, 0
18, 582900, Note_on_c, 15, 39, 76
18, 582959, Note_on_c, 15, 39, 0
18, 582960, Note_on_c, 15, 41, 76
18, 583049, Note_on_c, 15, 41, 0
18, 583080, Note_on_c, 15, 41, 76
18, 583139, Note_on_c, 15, 41, 0
18, 583140, Note_on_c, 15, 43, 76
18, 583199, Note_on_c, 15, 43, 0
18, 583200, Note_on_c, 15, 44, 76
18, 583289, Note_on_c, 15, 44, 0
18, 583320, Note_on_c, 15, 38, 76
18, 583379, Note_on_c, 15, 38, 0
18, 583380, Note_on_c, 15, 39, 76
18, 583439, Note_on_c, 15, 39, 0
18, 583440, Note_on_c, 15, 41, 76
18, 583529, Note_on_c, 15, 41, 0
18, 583560, Note_on_c, 15, 41, 76
18, 583619, Note_on_c, 15, 41, 0
18, 583620, Note_on_c, 15, 43, 76
18, 583679, Note_on_c, 15, 43, 0
18, 583680, Note_on_c, 15, 44, 76
18, 583769, Note_on_c, 15, 44, 0
18, 583800, Note_on_c, 15, 44, 76
18, 583859, Note_on_c, 15, 44, 0
18, 583860, Note_on_c, 15, 46, 76
18, 583919, Note_on_c, 15, 46, 0
18, 583920, Note_on_c, 15, 48, 84
18, 584009, Note_on_c, 15, 48, 0
18, 584040, Note_on_c, 15, 46, 76
18, 584129, Note_on_c, 15, 46, 0
18, 584160, Note_on_c, 15, 44, 76
18, 584249, Note_on_c, 15, 44, 0
18, 584280, Note_on_c, 15, 43, 76
18, 584369, Note_on_c, 15, 43, 0
18, 584400, Note_on_c, 15, 41, 76
18, 584489, Note_on_c, 15, 41, 0
18, 584520, Note_on_c, 15, 39, 76
18, 584609, Note_on_c, 15, 39, 0
18, 584640, Note_on_c, 15, 38, 76
18, 584729, Note_on_c, 15, 38, 0
18, 584760, Note_on_c, 15, 36, 76
18, 584849, Note_on_c, 15, 36, 0
18, 584880, Note_on_c, 15, 34, 76
18, 584969, Note_on_c, 15, 34, 0
18, 585000, Note_on_c, 15, 32, 76
18, 585089, Note_on_c, 15, 32, 0
18, 585120, Note_on_c, 15, 31, 76
18, 585209, Note_on_c, 15, 31, 0
18, 585240, Note_on_c, 15, 29, 76
18, 585329, Note_on_c, 15, 29, 0
18, 585360, Note_on_c, 15, 31, 76
18, 585464, Note_on_c, 15, 31, 0
18, 585480, Note_on_c, 15, 31, 76
18, 585584, Note_on_c, 15, 31, 0
18, 585600, Note_on_c, 15, 34, 76
18, 585704, Note_on_c, 15, 34, 0
18, 585720, Note_on_c, 15, 34, 76
18, 585824, Note_on_c, 15, 34, 0
18, 585840, Note_on_c, 15, 37, 76
18, 585944, Note_on_c, 15, 37, 0
18, 585960, Note_on_c, 15, 37, 76
18, 586064, Note_on_c, 15, 37, 0
18, 586080, Note_on_c, 15, 37, 84
18, 586769, Note_on_c, 15, 37, 0
18, 586800, Note_on_c, 15, 32, 84
18, 587129, Note_on_c, 15, 32, 0
18, 587160, Note_on_c, 15, 32, 76
18, 587249, Note_on_c, 15, 32, 0
18, 587280, Note_on_c, 15, 36, 76
18, 587369, Note_on_c, 15, 36, 0
18, 587400, Note_on_c, 15, 41, 76
18, 587489, Note_on_c, 15, 41, 0
18, 587520, Note_on_c, 15, 33, 84
18, 587849, Note_on_c, 15, 33, 0
18, 587880, Note_on_c, 15, 33, 76
18, 587969, Note_on_c, 15, 33, 0
18, 588000, Note_on_c, 15, 36, 76
18, 588089, Note_on_c, 15, 36, 0
18, 588120, Note_on_c, 15, 39, 76
18, 588209, Note_on_c, 15, 39, 0
18, 588240, Note_on_c, 15, 34, 84
18, 588569, Note_on_c, 15, 34, 0
18, 588600, Note_on_c, 15, 34, 76
18, 588689, Note_on_c, 15, 34, 0
18, 588720, Note_on_c, 15, 39, 76
18, 588809, Note_on_c, 15, 39, 0
18, 588840, Note_on_c, 15, 43, 76
18, 588929, Note_on_c, 15, 43, 0
18, 588960, Note_on_c, 15, 35, 76
18, 589064, Note_on_c, 15, 35, 0
18, 589080, Note_on_c, 15, 38, 76
18, 589184, Note_on_c, 15, 38, 0
18, 589200, Note_on_c, 15, 41, 76
18, 589304, Note_on_c, 15, 41, 0
18, 589320, Note_on_c, 15, 35, 76
18, 589424, Note_on_c, 15, 35, 0
18, 589440, Note_on_c, 15, 38, 76
18, 589544, Note_on_c, 15, 38, 0
18, 589560, Note_on_c, 15, 41, 76
18, 589664, Note_on_c, 15, 41, 0
18, 589680, Note_on_c, 15, 36, 76
18, 589784, Note_on_c, 15, 36, 0
18, 589800, Note_on_c, 15, 39, 76
18, 589904, Note_on_c, 15, 39, 0
18, 589920, Note_on_c, 15, 43, 76
18, 590024, Note_on_c, 15, 43, 0
18, 590040, Note_on_c, 15, 36, 76
18, 590144, Note_on_c, 15, 36, 0
18, 590160, Note_on_c, 15, 39, 76
18, 590264, Note_on_c, 15, 39, 0
18, 590280, Note_on_c, 15, 43, 76
18, 590384, Note_on_c, 15, 43, 0
18, 590400, Note_on_c, 15, 32, 76
18, 590504, Note_on_c, 15, 32, 0
18, 590520, Note_on_c, 15, 36, 76
18, 590624, Note_on_c, 15, 36, 0
18, 590640, Note_on_c, 15, 41, 76
18, 590744, Note_on_c, 15, 41, 0
18, 590760, Note_on_c, 15, 32, 76
18, 590864, Note_on_c, 15, 32, 0
18, 590880, Note_on_c, 15, 36, 76
18, 590984, Note_on_c, 15, 36, 0
18, 591000, Note_on_c, 15, 41, 76
18, 591104, Note_on_c, 15, 41, 0
18, 591120, Note_on_c, 15, 34, 84
18, 591224, Note_on_c, 15, 34, 0
18, 591240, Note_on_c, 15, 39, 84
18, 591344, Note_on_c, 15, 39, 0
18, 591360, Note_on_c, 15, 43, 84
18, 591464, Note_on_c, 15, 43, 0
18, 591480, Note_on_c, 15, 34, 84
18, 591584, Note_on_c, 15, 34, 0
18, 591600, Note_on_c, 15, 39, 84
18, 591704, Note_on_c, 15, 39, 0
18, 591720, Note_on_c, 15, 43, 84
18, 591824, Note_on_c, 15, 43, 0
18, 591840, Note_on_c, 15, 46, 84
18, 591944, Note_on_c, 15, 46, 0
18, 591960, Note_on_c, 15, 34, 84
18, 592064, Note_on_c, 15, 34, 0
18, 592080, Note_on_c, 15, 34, 84
18, 592184, Note_on_c, 15, 34, 0
18, 592200, Note_on_c, 15, 34, 84
18, 592304, Note_on_c, 15, 34, 0
18, 592320, Note_on_c, 15, 34, 84
18, 592424, Note_on_c, 15, 34, 0
18, 592440, Note_on_c, 15, 34, 84
18, 592529, Note_on_c, 15, 34, 0
18, 592560, Note_on_c, 15, 39, 52
18, 592799, Note_on_c, 15, 39, 0
18, 595200, Control_c, 15, 11, 80
18, 595440, Control_c, 15, 11, 80
18, 595440, Note_on_c, 15, 39, 76
18, 595560, Control_c, 15, 11, 82
18, 595680, Control_c, 15, 11, 84
18, 595800, Control_c, 15, 11, 86
18, 595920, Control_c, 15, 11, 88
18, 596040, Control_c, 15, 11, 90
18, 596160, Control_c, 15, 11, 92
18, 596280, Control_c, 15, 11, 94
18, 596400, Control_c, 15, 11, 96
18, 596520, Control_c, 15, 11, 98
18, 596640, Control_c, 15, 11, 100
18, 596760, Control_c, 15, 11, 102
18, 596880, Control_c, 15, 11, 104
18, 596984, Note_on_c, 15, 39, 0
18, 597000, Control_c, 15, 11, 105
18, 597000, Note_on_c, 15, 46, 76
18, 597089, Note_on_c, 15, 46, 0
18, 597120, Note_on_c, 15, 44, 76
18, 597120, Control_c, 15, 11, 107
18, 597209, Note_on_c, 15, 44, 0
18, 597240, Control_c, 15, 11, 109
18, 597240, Note_on_c, 15, 43, 76
18, 597329, Note_on_c, 15, 43, 0
18, 597360, Note_on_c, 15, 41, 76
18, 597360, Control_c, 15, 11, 111
18, 597449, Note_on_c, 15, 41, 0
18, 597480, Control_c, 15, 11, 113
18, 597480, Note_on_c, 15, 39, 76
18, 597569, Note_on_c, 15, 39, 0
18, 597600, Control_c, 15, 11, 115
18, 597600, Note_on_c, 15, 38, 76
18, 597689, Note_on_c, 15, 38, 0
18, 597720, Note_on_c, 15, 39, 76
18, 597720, Control_c, 15, 11, 117
18, 597809, Note_on_c, 15, 39, 0
18, 597840, Note_on_c, 15, 41, 76
18, 597840, Control_c, 15, 11, 119
18, 597929, Note_on_c, 15, 41, 0
18, 597960, Note_on_c, 15, 39, 76
18, 597960, Control_c, 15, 11, 121
18, 598049, Note_on_c, 15, 39, 0
18, 598080, Note_on_c, 15, 38, 76
18, 598080, Control_c, 15, 11, 123
18, 598169, Note_on_c, 15, 38, 0
18, 598200, Control_c, 15, 11, 127
18, 598200, Note_on_c, 15, 36, 76
18, 598289, Note_on_c, 15, 36, 0
18, 598320, Note_on_c, 15, 34, 76
18, 598544, Note_on_c, 15, 34, 0
18, 598560, Note_on_c, 15, 46, 76
18, 599264, Note_on_c, 15, 46, 0
18, 599280, Note_on_c, 15, 46, 76
18, 599984, Note_on_c, 15, 46, 0
18, 600000, Note_on_c, 15, 46, 76
18, 600464, Note_on_c, 15, 46, 0
18, 600480, Note_on_c, 15, 46, 76
18, 600944, Note_on_c, 15, 46, 0
18, 600960, Note_on_c, 15, 46, 76
18, 601139, Note_on_c, 15, 46, 0
18, 601200, Note_on_c, 15, 46, 76
18, 601379, Note_on_c, 15, 46, 0
18, 601440, Note_on_c, 15, 34, 84
18, 601619, Note_on_c, 15, 34, 0
18, 601680, Note_on_c, 15, 34, 84
18, 601859, Note_on_c, 15, 34, 0
18, 601920, Note_on_c, 15, 34, 84
18, 602099, Note_on_c, 15, 34, 0
18, 602160, Note_on_c, 15, 34, 84
18, 602339, Note_on_c, 15, 34, 0
18, 602400, Note_on_c, 15, 34, 84
18, 602579, Note_on_c, 15, 34, 0
18, 602640, Note_on_c, 15, 34, 84
18, 602819, Note_on_c, 15, 34, 0
18, 602880, Note_on_c, 15, 34, 84
18, 603059, Note_on_c, 15, 34, 0
18, 603120, Note_on_c, 15, 34, 84
18, 603299, Note_on_c, 15, 34, 0
18, 603360, Note_on_c, 15, 34, 84
18, 603539, Note_on_c, 15, 34, 0
18, 603600, Note_on_c, 15, 34, 84
18, 603779, Note_on_c, 15, 34, 0
18, 603840, Note_on_c, 15, 34, 84
18, 604019, Note_on_c, 15, 34, 0
18, 604080, Note_on_c, 15, 39, 84
18, 604319, Note_on_c, 15, 39, 0
18, 604800, Note_on_c, 15, 51, 84
18, 605039, Note_on_c, 15, 51, 0
18, 605520, Note_on_c, 15, 39, 84
18, 605759, Note_on_c, 15, 39, 0
18, 605759, End_track
19, 0, Start_track
19, 0, Title_t, "Ludwig van Beethoven - Symphony No. 3, Op.55 (Eroica) - No. 1 Allegro con brio"
19, 0, MIDI_port, 0
19, 0, End_track
0, 0, End_of_file
