0, 0, Header, 1, 18, 240
1, 0, Start_track
1, 0, Sequencer_specific, 10, 0, 0, 91, 35, 1, 0, 5, 6, 42, 0
1, 0, Title_t, "Ludwig van Beethoven - Symphony No. 4 in B-flat Major, Op.60"
1, 0, Instrument_name_t, "Conductor Track"
1, 0, SMPTE_offset, 96, 0, 3, 0, 0
1, 0, MIDI_port, 0
1, 0, Key_signature, -2, "major"
1, 0, Tempo, 375000
1, 0, Time_signature, 2, 2, 24, 8
1, 201840, Tempo, 3000000
1, 202080, Tempo, 375000
1, 215880, Tempo, 3000000
1, 216000, Tempo, 375000
1, 216360, Tempo, 3000000
1, 216480, Tempo, 375000
1, 216960, Tempo, 2000000
1, 217200, Tempo, 375000
1, 219480, Tempo, 2000000
1, 219600, Tempo, 375000
1, 219600, End_track
2, 0, Start_track
2, 0, Title_t, "4th Movement - Allegro ma non troppo"
2, 0, MIDI_port, 0
2, 0, End_track
3, 0, Start_track
3, 0, Title_t, "Sequenced by D. L. Viens 11 Jun 2000"
3, 0, MIDI_port, 0
3, 0, End_track
4, 0, Start_track
4, 0, Title_t, "dlviens@empire.net"
4, 0, MIDI_port, 0
4, 0, End_track
5, 0, Start_track
5, 0, MIDI_port, 0
5, 0, End_track
6, 0, Start_track
6, 0, Title_t, "Flute"
6, 0, MIDI_port, 0
6, 0, Program_c, 0, 73
6, 0, Control_c, 0, 7, 72
6, 0, Control_c, 0, 10, 60
6, 0, Control_c, 0, 11, 127
6, 1200, Note_on_c, 0, 81, 76
6, 1319, Note_on_c, 0, 81, 0
6, 1440, Note_on_c, 0, 82, 76
6, 1559, Note_on_c, 0, 82, 0
6, 1680, Note_on_c, 0, 84, 76
6, 1799, Note_on_c, 0, 84, 0
6, 6720, Note_on_c, 0, 77, 52
6, 6839, Note_on_c, 0, 77, 0
6, 6840, Note_on_c, 0, 82, 52
6, 6959, Note_on_c, 0, 82, 0
6, 6960, Note_on_c, 0, 86, 52
6, 7079, Note_on_c, 0, 86, 0
6, 7080, Note_on_c, 0, 89, 52
6, 7184, Note_on_c, 0, 89, 0
6, 7200, Note_on_c, 0, 87, 52
6, 7319, Note_on_c, 0, 87, 0
6, 7320, Note_on_c, 0, 86, 52
6, 7439, Note_on_c, 0, 86, 0
6, 7440, Note_on_c, 0, 87, 52
6, 7559, Note_on_c, 0, 87, 0
6, 7560, Note_on_c, 0, 84, 52
6, 7679, Note_on_c, 0, 84, 0
6, 7680, Note_on_c, 0, 82, 52
6, 7799, Note_on_c, 0, 82, 0
6, 7800, Note_on_c, 0, 86, 52
6, 7919, Note_on_c, 0, 86, 0
6, 7920, Note_on_c, 0, 82, 52
6, 8039, Note_on_c, 0, 82, 0
6, 8040, Note_on_c, 0, 79, 52
6, 8144, Note_on_c, 0, 79, 0
6, 8160, Note_on_c, 0, 77, 52
6, 8279, Note_on_c, 0, 77, 0
6, 8400, Note_on_c, 0, 77, 52
6, 8519, Note_on_c, 0, 77, 0
6, 8640, Note_on_c, 0, 77, 52
6, 9104, Note_on_c, 0, 77, 0
6, 9120, Note_on_c, 0, 77, 52
6, 9239, Note_on_c, 0, 77, 0
6, 9360, Note_on_c, 0, 77, 68
6, 9479, Note_on_c, 0, 77, 0
6, 9600, Note_on_c, 0, 82, 84
6, 11144, Note_on_c, 0, 82, 0
6, 11160, Note_on_c, 0, 82, 84
6, 11264, Note_on_c, 0, 82, 0
6, 11280, Note_on_c, 0, 72, 84
6, 11384, Note_on_c, 0, 72, 0
6, 11400, Note_on_c, 0, 77, 84
6, 11504, Note_on_c, 0, 77, 0
6, 11520, Note_on_c, 0, 82, 84
6, 11759, Note_on_c, 0, 82, 0
6, 12000, Note_on_c, 0, 82, 84
6, 12239, Note_on_c, 0, 82, 0
6, 12480, Note_on_c, 0, 81, 84
6, 12719, Note_on_c, 0, 81, 0
6, 12960, Note_on_c, 0, 84, 84
6, 13199, Note_on_c, 0, 84, 0
6, 13440, Note_on_c, 0, 82, 84
6, 13679, Note_on_c, 0, 82, 0
6, 13920, Note_on_c, 0, 82, 84
6, 14159, Note_on_c, 0, 82, 0
6, 14400, Note_on_c, 0, 81, 84
6, 14504, Note_on_c, 0, 81, 0
6, 14520, Note_on_c, 0, 84, 84
6, 14624, Note_on_c, 0, 84, 0
6, 14640, Note_on_c, 0, 77, 84
6, 14744, Note_on_c, 0, 77, 0
6, 14760, Note_on_c, 0, 81, 84
6, 14864, Note_on_c, 0, 81, 0
6, 14880, Note_on_c, 0, 74, 84
6, 14984, Note_on_c, 0, 74, 0
6, 15000, Note_on_c, 0, 77, 84
6, 15104, Note_on_c, 0, 77, 0
6, 15120, Note_on_c, 0, 69, 84
6, 15224, Note_on_c, 0, 69, 0
6, 15240, Note_on_c, 0, 71, 84
6, 15344, Note_on_c, 0, 71, 0
6, 15360, Note_on_c, 0, 72, 84
6, 15464, Note_on_c, 0, 72, 0
6, 15480, Note_on_c, 0, 76, 84
6, 15584, Note_on_c, 0, 76, 0
6, 15600, Note_on_c, 0, 79, 84
6, 15704, Note_on_c, 0, 79, 0
6, 15720, Note_on_c, 0, 81, 84
6, 15824, Note_on_c, 0, 81, 0
6, 15840, Note_on_c, 0, 82, 84
6, 16424, Note_on_c, 0, 82, 0
6, 16440, Note_on_c, 0, 82, 84
6, 16544, Note_on_c, 0, 82, 0
6, 16560, Note_on_c, 0, 82, 84
6, 16664, Note_on_c, 0, 82, 0
6, 16680, Note_on_c, 0, 82, 84
6, 16784, Note_on_c, 0, 82, 0
6, 16800, Note_on_c, 0, 82, 84
6, 16919, Note_on_c, 0, 82, 0
6, 19200, Note_on_c, 0, 91, 52
6, 19559, Note_on_c, 0, 91, 0
6, 19560, Note_on_c, 0, 89, 52
6, 19664, Note_on_c, 0, 89, 0
6, 19680, Note_on_c, 0, 88, 52
6, 19799, Note_on_c, 0, 88, 0
6, 19800, Note_on_c, 0, 91, 52
6, 19904, Note_on_c, 0, 91, 0
6, 19920, Note_on_c, 0, 84, 52
6, 20039, Note_on_c, 0, 84, 0
6, 20040, Note_on_c, 0, 88, 52
6, 20144, Note_on_c, 0, 88, 0
6, 20160, Note_on_c, 0, 79, 52
6, 20279, Note_on_c, 0, 79, 0
6, 20280, Note_on_c, 0, 84, 52
6, 20384, Note_on_c, 0, 84, 0
6, 20400, Note_on_c, 0, 83, 52
6, 20519, Note_on_c, 0, 83, 0
6, 20520, Note_on_c, 0, 86, 52
6, 20624, Note_on_c, 0, 86, 0
6, 20640, Note_on_c, 0, 84, 52
6, 20759, Note_on_c, 0, 84, 0
6, 25800, Note_on_c, 0, 84, 76
6, 25904, Note_on_c, 0, 84, 0
6, 25920, Note_on_c, 0, 84, 76
6, 26024, Note_on_c, 0, 84, 0
6, 26040, Note_on_c, 0, 84, 76
6, 26144, Note_on_c, 0, 84, 0
6, 26160, Note_on_c, 0, 84, 76
6, 26264, Note_on_c, 0, 84, 0
6, 26280, Note_on_c, 0, 84, 76
6, 26384, Note_on_c, 0, 84, 0
6, 26400, Note_on_c, 0, 84, 76
6, 26639, Note_on_c, 0, 84, 0
6, 27720, Note_on_c, 0, 84, 76
6, 27824, Note_on_c, 0, 84, 0
6, 27840, Note_on_c, 0, 84, 76
6, 27944, Note_on_c, 0, 84, 0
6, 27960, Note_on_c, 0, 84, 76
6, 28064, Note_on_c, 0, 84, 0
6, 28080, Note_on_c, 0, 84, 76
6, 28184, Note_on_c, 0, 84, 0
6, 28200, Note_on_c, 0, 84, 76
6, 28304, Note_on_c, 0, 84, 0
6, 28320, Note_on_c, 0, 84, 76
6, 28424, Note_on_c, 0, 84, 0
6, 28440, Note_on_c, 0, 84, 76
6, 28559, Note_on_c, 0, 84, 0
6, 28680, Note_on_c, 0, 84, 76
6, 28784, Note_on_c, 0, 84, 0
6, 28800, Note_on_c, 0, 84, 76
6, 28904, Note_on_c, 0, 84, 0
6, 28920, Note_on_c, 0, 84, 76
6, 29024, Note_on_c, 0, 84, 0
6, 29040, Note_on_c, 0, 84, 76
6, 29144, Note_on_c, 0, 84, 0
6, 29160, Note_on_c, 0, 84, 76
6, 29264, Note_on_c, 0, 84, 0
6, 29280, Note_on_c, 0, 84, 76
6, 29384, Note_on_c, 0, 84, 0
6, 29400, Note_on_c, 0, 84, 76
6, 29519, Note_on_c, 0, 84, 0
6, 29640, Note_on_c, 0, 84, 76
6, 29744, Note_on_c, 0, 84, 0
6, 29760, Note_on_c, 0, 86, 76
6, 29864, Note_on_c, 0, 86, 0
6, 29880, Note_on_c, 0, 84, 76
6, 29984, Note_on_c, 0, 84, 0
6, 30000, Note_on_c, 0, 86, 76
6, 30104, Note_on_c, 0, 86, 0
6, 30120, Note_on_c, 0, 88, 76
6, 30224, Note_on_c, 0, 88, 0
6, 30240, Note_on_c, 0, 89, 84
6, 31184, Note_on_c, 0, 89, 0
6, 31200, Note_on_c, 0, 83, 84
6, 31409, Note_on_c, 0, 83, 0
6, 31440, Note_on_c, 0, 83, 92
6, 31679, Note_on_c, 0, 83, 0
6, 31920, Note_on_c, 0, 83, 92
6, 32159, Note_on_c, 0, 83, 0
6, 32400, Note_on_c, 0, 83, 92
6, 32639, Note_on_c, 0, 83, 0
6, 32880, Note_on_c, 0, 83, 92
6, 33119, Note_on_c, 0, 83, 0
6, 35040, Note_on_c, 0, 83, 84
6, 35249, Note_on_c, 0, 83, 0
6, 35280, Note_on_c, 0, 83, 92
6, 35519, Note_on_c, 0, 83, 0
6, 35760, Note_on_c, 0, 83, 92
6, 35999, Note_on_c, 0, 83, 0
6, 36240, Note_on_c, 0, 83, 92
6, 36479, Note_on_c, 0, 83, 0
6, 36720, Note_on_c, 0, 83, 92
6, 36959, Note_on_c, 0, 83, 0
6, 37560, Note_on_c, 0, 87, 52
6, 37619, Note_on_c, 0, 87, 0
6, 37620, Note_on_c, 0, 86, 52
6, 37679, Note_on_c, 0, 86, 0
6, 37800, Note_on_c, 0, 84, 52
6, 37859, Note_on_c, 0, 84, 0
6, 37860, Note_on_c, 0, 82, 52
6, 37919, Note_on_c, 0, 82, 0
6, 38520, Note_on_c, 0, 89, 52
6, 38579, Note_on_c, 0, 89, 0
6, 38580, Note_on_c, 0, 88, 52
6, 38639, Note_on_c, 0, 88, 0
6, 38760, Note_on_c, 0, 86, 52
6, 38819, Note_on_c, 0, 86, 0
6, 38820, Note_on_c, 0, 84, 52
6, 38879, Note_on_c, 0, 84, 0
6, 39000, Note_on_c, 0, 89, 54
6, 39059, Note_on_c, 0, 89, 0
6, 39060, Note_on_c, 0, 84, 55
6, 39119, Note_on_c, 0, 84, 0
6, 39240, Note_on_c, 0, 81, 58
6, 39299, Note_on_c, 0, 81, 0
6, 39300, Note_on_c, 0, 77, 59
6, 39359, Note_on_c, 0, 77, 0
6, 39480, Note_on_c, 0, 86, 62
6, 39539, Note_on_c, 0, 86, 0
6, 39540, Note_on_c, 0, 82, 63
6, 39599, Note_on_c, 0, 82, 0
6, 39720, Note_on_c, 0, 79, 66
6, 39779, Note_on_c, 0, 79, 0
6, 39780, Note_on_c, 0, 84, 67
6, 39839, Note_on_c, 0, 84, 0
6, 39960, Note_on_c, 0, 89, 70
6, 40019, Note_on_c, 0, 89, 0
6, 40020, Note_on_c, 0, 84, 71
6, 40079, Note_on_c, 0, 84, 0
6, 40200, Note_on_c, 0, 81, 74
6, 40259, Note_on_c, 0, 81, 0
6, 40260, Note_on_c, 0, 77, 75
6, 40319, Note_on_c, 0, 77, 0
6, 40440, Note_on_c, 0, 86, 78
6, 40499, Note_on_c, 0, 86, 0
6, 40500, Note_on_c, 0, 82, 79
6, 40559, Note_on_c, 0, 82, 0
6, 40680, Note_on_c, 0, 79, 82
6, 40739, Note_on_c, 0, 79, 0
6, 40740, Note_on_c, 0, 84, 83
6, 40791, Note_on_c, 0, 84, 0
6, 40800, Note_on_c, 0, 77, 84
6, 40904, Note_on_c, 0, 77, 0
6, 40920, Note_on_c, 0, 89, 84
6, 41024, Note_on_c, 0, 89, 0
6, 41040, Note_on_c, 0, 89, 84
6, 41144, Note_on_c, 0, 89, 0
6, 41160, Note_on_c, 0, 89, 84
6, 41264, Note_on_c, 0, 89, 0
6, 41280, Note_on_c, 0, 89, 84
6, 41384, Note_on_c, 0, 89, 0
6, 41400, Note_on_c, 0, 89, 84
6, 41504, Note_on_c, 0, 89, 0
6, 41520, Note_on_c, 0, 88, 84
6, 41624, Note_on_c, 0, 88, 0
6, 41640, Note_on_c, 0, 88, 84
6, 41744, Note_on_c, 0, 88, 0
6, 41760, Note_on_c, 0, 89, 84
6, 41879, Note_on_c, 0, 89, 0
6, 42720, Note_on_c, 0, 89, 84
6, 42809, Note_on_c, 0, 89, 0
6, 42840, Note_on_c, 0, 89, 84
6, 42929, Note_on_c, 0, 89, 0
6, 42960, Note_on_c, 0, 86, 84
6, 43049, Note_on_c, 0, 86, 0
6, 43080, Note_on_c, 0, 91, 84
6, 43169, Note_on_c, 0, 91, 0
6, 43200, Note_on_c, 0, 84, 84
6, 43289, Note_on_c, 0, 84, 0
6, 43320, Note_on_c, 0, 89, 84
6, 43409, Note_on_c, 0, 89, 0
6, 43440, Note_on_c, 0, 82, 84
6, 43529, Note_on_c, 0, 82, 0
6, 43560, Note_on_c, 0, 88, 84
6, 43649, Note_on_c, 0, 88, 0
6, 43680, Note_on_c, 0, 89, 84
6, 43799, Note_on_c, 0, 89, 0
6, 44640, Note_on_c, 0, 89, 84
6, 44729, Note_on_c, 0, 89, 0
6, 44760, Note_on_c, 0, 89, 84
6, 44849, Note_on_c, 0, 89, 0
6, 44880, Note_on_c, 0, 86, 84
6, 44969, Note_on_c, 0, 86, 0
6, 45000, Note_on_c, 0, 91, 84
6, 45089, Note_on_c, 0, 91, 0
6, 45120, Note_on_c, 0, 84, 84
6, 45209, Note_on_c, 0, 84, 0
6, 45240, Note_on_c, 0, 89, 84
6, 45329, Note_on_c, 0, 89, 0
6, 45360, Note_on_c, 0, 82, 84
6, 45449, Note_on_c, 0, 82, 0
6, 45480, Note_on_c, 0, 88, 84
6, 45569, Note_on_c, 0, 88, 0
6, 45600, Note_on_c, 0, 89, 84
6, 45704, Note_on_c, 0, 89, 0
6, 45720, Note_on_c, 0, 89, 84
6, 45839, Note_on_c, 0, 89, 0
6, 45960, Note_on_c, 0, 89, 84
6, 46064, Note_on_c, 0, 89, 0
6, 46080, Note_on_c, 0, 89, 84
6, 46184, Note_on_c, 0, 89, 0
6, 46200, Note_on_c, 0, 89, 84
6, 46319, Note_on_c, 0, 89, 0
6, 46440, Note_on_c, 0, 89, 84
6, 46544, Note_on_c, 0, 89, 0
6, 46560, Note_on_c, 0, 89, 84
6, 46664, Note_on_c, 0, 89, 0
6, 46680, Note_on_c, 0, 89, 84
6, 46799, Note_on_c, 0, 89, 0
6, 46920, Note_on_c, 0, 89, 84
6, 47024, Note_on_c, 0, 89, 0
6, 47040, Note_on_c, 0, 89, 84
6, 47144, Note_on_c, 0, 89, 0
6, 47160, Note_on_c, 0, 89, 84
6, 47264, Note_on_c, 0, 89, 0
6, 47280, Note_on_c, 0, 89, 84
6, 47384, Note_on_c, 0, 89, 0
6, 47400, Note_on_c, 0, 89, 84
6, 47504, Note_on_c, 0, 89, 0
6, 47520, Note_on_c, 0, 89, 52
6, 47639, Note_on_c, 0, 89, 0
6, 50640, Note_on_c, 0, 81, 76
6, 50759, Note_on_c, 0, 81, 0
6, 50880, Note_on_c, 0, 82, 76
6, 50999, Note_on_c, 0, 82, 0
6, 51120, Note_on_c, 0, 84, 76
6, 51239, Note_on_c, 0, 84, 0
6, 56160, Note_on_c, 0, 77, 52
6, 56279, Note_on_c, 0, 77, 0
6, 56280, Note_on_c, 0, 82, 52
6, 56399, Note_on_c, 0, 82, 0
6, 56400, Note_on_c, 0, 86, 52
6, 56519, Note_on_c, 0, 86, 0
6, 56520, Note_on_c, 0, 89, 52
6, 56624, Note_on_c, 0, 89, 0
6, 56640, Note_on_c, 0, 87, 52
6, 56759, Note_on_c, 0, 87, 0
6, 56760, Note_on_c, 0, 86, 52
6, 56879, Note_on_c, 0, 86, 0
6, 56880, Note_on_c, 0, 87, 52
6, 56999, Note_on_c, 0, 87, 0
6, 57000, Note_on_c, 0, 84, 52
6, 57119, Note_on_c, 0, 84, 0
6, 57120, Note_on_c, 0, 82, 52
6, 57239, Note_on_c, 0, 82, 0
6, 57240, Note_on_c, 0, 86, 52
6, 57359, Note_on_c, 0, 86, 0
6, 57360, Note_on_c, 0, 82, 52
6, 57479, Note_on_c, 0, 82, 0
6, 57480, Note_on_c, 0, 79, 52
6, 57584, Note_on_c, 0, 79, 0
6, 57600, Note_on_c, 0, 77, 52
6, 57719, Note_on_c, 0, 77, 0
6, 57840, Note_on_c, 0, 77, 52
6, 57959, Note_on_c, 0, 77, 0
6, 58080, Note_on_c, 0, 77, 52
6, 58544, Note_on_c, 0, 77, 0
6, 58560, Note_on_c, 0, 77, 52
6, 58679, Note_on_c, 0, 77, 0
6, 58800, Note_on_c, 0, 77, 68
6, 58919, Note_on_c, 0, 77, 0
6, 59040, Note_on_c, 0, 82, 84
6, 60584, Note_on_c, 0, 82, 0
6, 60600, Note_on_c, 0, 82, 84
6, 60704, Note_on_c, 0, 82, 0
6, 60720, Note_on_c, 0, 72, 84
6, 60824, Note_on_c, 0, 72, 0
6, 60840, Note_on_c, 0, 77, 84
6, 60944, Note_on_c, 0, 77, 0
6, 60960, Note_on_c, 0, 82, 84
6, 61199, Note_on_c, 0, 82, 0
6, 61440, Note_on_c, 0, 82, 84
6, 61679, Note_on_c, 0, 82, 0
6, 61920, Note_on_c, 0, 81, 84
6, 62159, Note_on_c, 0, 81, 0
6, 62400, Note_on_c, 0, 84, 84
6, 62639, Note_on_c, 0, 84, 0
6, 62880, Note_on_c, 0, 82, 84
6, 63119, Note_on_c, 0, 82, 0
6, 63360, Note_on_c, 0, 82, 84
6, 63599, Note_on_c, 0, 82, 0
6, 63840, Note_on_c, 0, 81, 84
6, 63944, Note_on_c, 0, 81, 0
6, 63960, Note_on_c, 0, 84, 84
6, 64064, Note_on_c, 0, 84, 0
6, 64080, Note_on_c, 0, 77, 84
6, 64184, Note_on_c, 0, 77, 0
6, 64200, Note_on_c, 0, 81, 84
6, 64304, Note_on_c, 0, 81, 0
6, 64320, Note_on_c, 0, 74, 84
6, 64424, Note_on_c, 0, 74, 0
6, 64440, Note_on_c, 0, 77, 84
6, 64544, Note_on_c, 0, 77, 0
6, 64560, Note_on_c, 0, 69, 84
6, 64664, Note_on_c, 0, 69, 0
6, 64680, Note_on_c, 0, 71, 84
6, 64784, Note_on_c, 0, 71, 0
6, 64800, Note_on_c, 0, 72, 84
6, 64904, Note_on_c, 0, 72, 0
6, 64920, Note_on_c, 0, 76, 84
6, 65024, Note_on_c, 0, 76, 0
6, 65040, Note_on_c, 0, 79, 84
6, 65144, Note_on_c, 0, 79, 0
6, 65160, Note_on_c, 0, 81, 84
6, 65264, Note_on_c, 0, 81, 0
6, 65280, Note_on_c, 0, 82, 84
6, 65864, Note_on_c, 0, 82, 0
6, 65880, Note_on_c, 0, 82, 84
6, 65984, Note_on_c, 0, 82, 0
6, 66000, Note_on_c, 0, 82, 84
6, 66104, Note_on_c, 0, 82, 0
6, 66120, Note_on_c, 0, 82, 84
6, 66224, Note_on_c, 0, 82, 0
6, 66240, Note_on_c, 0, 82, 84
6, 66359, Note_on_c, 0, 82, 0
6, 68640, Note_on_c, 0, 91, 52
6, 68999, Note_on_c, 0, 91, 0
6, 69000, Note_on_c, 0, 89, 52
6, 69104, Note_on_c, 0, 89, 0
6, 69120, Note_on_c, 0, 88, 52
6, 69239, Note_on_c, 0, 88, 0
6, 69240, Note_on_c, 0, 91, 52
6, 69344, Note_on_c, 0, 91, 0
6, 69360, Note_on_c, 0, 84, 52
6, 69479, Note_on_c, 0, 84, 0
6, 69480, Note_on_c, 0, 88, 52
6, 69584, Note_on_c, 0, 88, 0
6, 69600, Note_on_c, 0, 79, 52
6, 69719, Note_on_c, 0, 79, 0
6, 69720, Note_on_c, 0, 84, 52
6, 69824, Note_on_c, 0, 84, 0
6, 69840, Note_on_c, 0, 83, 52
6, 69959, Note_on_c, 0, 83, 0
6, 69960, Note_on_c, 0, 86, 52
6, 70064, Note_on_c, 0, 86, 0
6, 70080, Note_on_c, 0, 84, 52
6, 70199, Note_on_c, 0, 84, 0
6, 75240, Note_on_c, 0, 84, 76
6, 75344, Note_on_c, 0, 84, 0
6, 75360, Note_on_c, 0, 84, 76
6, 75464, Note_on_c, 0, 84, 0
6, 75480, Note_on_c, 0, 84, 76
6, 75584, Note_on_c, 0, 84, 0
6, 75600, Note_on_c, 0, 84, 76
6, 75704, Note_on_c, 0, 84, 0
6, 75720, Note_on_c, 0, 84, 76
6, 75824, Note_on_c, 0, 84, 0
6, 75840, Note_on_c, 0, 84, 76
6, 76079, Note_on_c, 0, 84, 0
6, 77160, Note_on_c, 0, 84, 76
6, 77264, Note_on_c, 0, 84, 0
6, 77280, Note_on_c, 0, 84, 76
6, 77384, Note_on_c, 0, 84, 0
6, 77400, Note_on_c, 0, 84, 76
6, 77504, Note_on_c, 0, 84, 0
6, 77520, Note_on_c, 0, 84, 76
6, 77624, Note_on_c, 0, 84, 0
6, 77640, Note_on_c, 0, 84, 76
6, 77744, Note_on_c, 0, 84, 0
6, 77760, Note_on_c, 0, 84, 76
6, 77864, Note_on_c, 0, 84, 0
6, 77880, Note_on_c, 0, 84, 76
6, 77999, Note_on_c, 0, 84, 0
6, 78120, Note_on_c, 0, 84, 76
6, 78224, Note_on_c, 0, 84, 0
6, 78240, Note_on_c, 0, 84, 76
6, 78344, Note_on_c, 0, 84, 0
6, 78360, Note_on_c, 0, 84, 76
6, 78464, Note_on_c, 0, 84, 0
6, 78480, Note_on_c, 0, 84, 76
6, 78584, Note_on_c, 0, 84, 0
6, 78600, Note_on_c, 0, 84, 76
6, 78704, Note_on_c, 0, 84, 0
6, 78720, Note_on_c, 0, 84, 76
6, 78824, Note_on_c, 0, 84, 0
6, 78840, Note_on_c, 0, 84, 76
6, 78959, Note_on_c, 0, 84, 0
6, 79080, Note_on_c, 0, 84, 76
6, 79184, Note_on_c, 0, 84, 0
6, 79200, Note_on_c, 0, 86, 76
6, 79304, Note_on_c, 0, 86, 0
6, 79320, Note_on_c, 0, 84, 76
6, 79424, Note_on_c, 0, 84, 0
6, 79440, Note_on_c, 0, 86, 76
6, 79544, Note_on_c, 0, 86, 0
6, 79560, Note_on_c, 0, 88, 76
6, 79664, Note_on_c, 0, 88, 0
6, 79680, Note_on_c, 0, 89, 84
6, 80624, Note_on_c, 0, 89, 0
6, 80640, Note_on_c, 0, 83, 84
6, 80849, Note_on_c, 0, 83, 0
6, 80880, Note_on_c, 0, 83, 92
6, 81119, Note_on_c, 0, 83, 0
6, 81360, Note_on_c, 0, 83, 92
6, 81599, Note_on_c, 0, 83, 0
6, 81840, Note_on_c, 0, 83, 92
6, 82079, Note_on_c, 0, 83, 0
6, 82320, Note_on_c, 0, 83, 92
6, 82559, Note_on_c, 0, 83, 0
6, 84480, Note_on_c, 0, 83, 84
6, 84689, Note_on_c, 0, 83, 0
6, 84720, Note_on_c, 0, 83, 92
6, 84959, Note_on_c, 0, 83, 0
6, 85200, Note_on_c, 0, 83, 92
6, 85439, Note_on_c, 0, 83, 0
6, 85680, Note_on_c, 0, 83, 92
6, 85919, Note_on_c, 0, 83, 0
6, 86160, Note_on_c, 0, 83, 92
6, 86399, Note_on_c, 0, 83, 0
6, 87000, Note_on_c, 0, 87, 52
6, 87059, Note_on_c, 0, 87, 0
6, 87060, Note_on_c, 0, 86, 52
6, 87119, Note_on_c, 0, 86, 0
6, 87240, Note_on_c, 0, 84, 52
6, 87299, Note_on_c, 0, 84, 0
6, 87300, Note_on_c, 0, 82, 52
6, 87359, Note_on_c, 0, 82, 0
6, 87960, Note_on_c, 0, 89, 52
6, 88019, Note_on_c, 0, 89, 0
6, 88020, Note_on_c, 0, 88, 52
6, 88079, Note_on_c, 0, 88, 0
6, 88200, Note_on_c, 0, 86, 52
6, 88259, Note_on_c, 0, 86, 0
6, 88260, Note_on_c, 0, 84, 52
6, 88319, Note_on_c, 0, 84, 0
6, 88440, Note_on_c, 0, 89, 54
6, 88499, Note_on_c, 0, 89, 0
6, 88500, Note_on_c, 0, 84, 55
6, 88559, Note_on_c, 0, 84, 0
6, 88680, Note_on_c, 0, 81, 58
6, 88739, Note_on_c, 0, 81, 0
6, 88740, Note_on_c, 0, 77, 59
6, 88799, Note_on_c, 0, 77, 0
6, 88920, Note_on_c, 0, 86, 62
6, 88979, Note_on_c, 0, 86, 0
6, 88980, Note_on_c, 0, 82, 63
6, 89039, Note_on_c, 0, 82, 0
6, 89160, Note_on_c, 0, 79, 66
6, 89219, Note_on_c, 0, 79, 0
6, 89220, Note_on_c, 0, 84, 67
6, 89279, Note_on_c, 0, 84, 0
6, 89400, Note_on_c, 0, 89, 70
6, 89459, Note_on_c, 0, 89, 0
6, 89460, Note_on_c, 0, 84, 71
6, 89519, Note_on_c, 0, 84, 0
6, 89640, Note_on_c, 0, 81, 74
6, 89699, Note_on_c, 0, 81, 0
6, 89700, Note_on_c, 0, 77, 75
6, 89759, Note_on_c, 0, 77, 0
6, 89880, Note_on_c, 0, 86, 78
6, 89939, Note_on_c, 0, 86, 0
6, 89940, Note_on_c, 0, 82, 79
6, 89999, Note_on_c, 0, 82, 0
6, 90120, Note_on_c, 0, 79, 82
6, 90179, Note_on_c, 0, 79, 0
6, 90180, Note_on_c, 0, 84, 83
6, 90231, Note_on_c, 0, 84, 0
6, 90240, Note_on_c, 0, 77, 84
6, 90344, Note_on_c, 0, 77, 0
6, 90360, Note_on_c, 0, 89, 84
6, 90464, Note_on_c, 0, 89, 0
6, 90480, Note_on_c, 0, 89, 84
6, 90584, Note_on_c, 0, 89, 0
6, 90600, Note_on_c, 0, 89, 84
6, 90704, Note_on_c, 0, 89, 0
6, 90720, Note_on_c, 0, 89, 84
6, 90824, Note_on_c, 0, 89, 0
6, 90840, Note_on_c, 0, 89, 84
6, 90944, Note_on_c, 0, 89, 0
6, 90960, Note_on_c, 0, 88, 84
6, 91064, Note_on_c, 0, 88, 0
6, 91080, Note_on_c, 0, 88, 84
6, 91184, Note_on_c, 0, 88, 0
6, 91200, Note_on_c, 0, 89, 84
6, 91319, Note_on_c, 0, 89, 0
6, 92160, Note_on_c, 0, 89, 84
6, 92249, Note_on_c, 0, 89, 0
6, 92280, Note_on_c, 0, 89, 84
6, 92369, Note_on_c, 0, 89, 0
6, 92400, Note_on_c, 0, 86, 84
6, 92489, Note_on_c, 0, 86, 0
6, 92520, Note_on_c, 0, 91, 84
6, 92609, Note_on_c, 0, 91, 0
6, 92640, Note_on_c, 0, 84, 84
6, 92729, Note_on_c, 0, 84, 0
6, 92760, Note_on_c, 0, 89, 84
6, 92849, Note_on_c, 0, 89, 0
6, 92880, Note_on_c, 0, 82, 84
6, 92969, Note_on_c, 0, 82, 0
6, 93000, Note_on_c, 0, 88, 84
6, 93089, Note_on_c, 0, 88, 0
6, 93120, Note_on_c, 0, 89, 84
6, 93239, Note_on_c, 0, 89, 0
6, 94080, Note_on_c, 0, 89, 84
6, 94169, Note_on_c, 0, 89, 0
6, 94200, Note_on_c, 0, 89, 84
6, 94289, Note_on_c, 0, 89, 0
6, 94320, Note_on_c, 0, 86, 84
6, 94409, Note_on_c, 0, 86, 0
6, 94440, Note_on_c, 0, 91, 84
6, 94529, Note_on_c, 0, 91, 0
6, 94560, Note_on_c, 0, 84, 84
6, 94649, Note_on_c, 0, 84, 0
6, 94680, Note_on_c, 0, 89, 84
6, 94769, Note_on_c, 0, 89, 0
6, 94800, Note_on_c, 0, 82, 84
6, 94889, Note_on_c, 0, 82, 0
6, 94920, Note_on_c, 0, 88, 84
6, 95009, Note_on_c, 0, 88, 0
6, 95040, Note_on_c, 0, 89, 84
6, 95144, Note_on_c, 0, 89, 0
6, 95160, Note_on_c, 0, 89, 84
6, 95279, Note_on_c, 0, 89, 0
6, 95400, Note_on_c, 0, 89, 84
6, 95504, Note_on_c, 0, 89, 0
6, 95520, Note_on_c, 0, 89, 84
6, 95624, Note_on_c, 0, 89, 0
6, 95640, Note_on_c, 0, 89, 84
6, 95759, Note_on_c, 0, 89, 0
6, 95880, Note_on_c, 0, 89, 84
6, 95984, Note_on_c, 0, 89, 0
6, 96000, Note_on_c, 0, 89, 84
6, 96104, Note_on_c, 0, 89, 0
6, 96120, Note_on_c, 0, 89, 84
6, 96239, Note_on_c, 0, 89, 0
6, 96360, Note_on_c, 0, 89, 84
6, 96464, Note_on_c, 0, 89, 0
6, 96480, Note_on_c, 0, 89, 84
6, 96584, Note_on_c, 0, 89, 0
6, 96600, Note_on_c, 0, 89, 84
6, 96704, Note_on_c, 0, 89, 0
6, 96720, Note_on_c, 0, 89, 84
6, 96824, Note_on_c, 0, 89, 0
6, 96840, Note_on_c, 0, 89, 84
6, 96944, Note_on_c, 0, 89, 0
6, 96960, Note_on_c, 0, 89, 52
6, 97079, Note_on_c, 0, 89, 0
6, 105600, Note_on_c, 0, 83, 84
6, 106559, Note_on_c, 0, 83, 0
6, 108480, Note_on_c, 0, 84, 52
6, 108599, Note_on_c, 0, 84, 0
6, 108600, Note_on_c, 0, 83, 52
6, 108719, Note_on_c, 0, 83, 0
6, 108720, Note_on_c, 0, 84, 52
6, 108839, Note_on_c, 0, 84, 0
6, 108840, Note_on_c, 0, 81, 52
6, 108959, Note_on_c, 0, 81, 0
6, 108960, Note_on_c, 0, 79, 52
6, 109079, Note_on_c, 0, 79, 0
6, 109080, Note_on_c, 0, 83, 52
6, 109199, Note_on_c, 0, 83, 0
6, 109200, Note_on_c, 0, 79, 52
6, 109319, Note_on_c, 0, 79, 0
6, 109320, Note_on_c, 0, 76, 52
6, 109424, Note_on_c, 0, 76, 0
6, 109440, Note_on_c, 0, 74, 52
6, 109559, Note_on_c, 0, 74, 0
6, 109680, Note_on_c, 0, 74, 52
6, 109799, Note_on_c, 0, 74, 0
6, 109920, Note_on_c, 0, 74, 52
6, 110399, Note_on_c, 0, 74, 0
6, 124080, Control_c, 0, 11, 48
6, 124320, Note_on_c, 0, 87, 84
6, 124320, Control_c, 0, 11, 48
6, 124373, Control_c, 0, 11, 50
6, 124427, Control_c, 0, 11, 52
6, 124480, Control_c, 0, 11, 55
6, 124533, Control_c, 0, 11, 57
6, 124587, Control_c, 0, 11, 59
6, 124640, Control_c, 0, 11, 61
6, 124693, Control_c, 0, 11, 63
6, 124747, Control_c, 0, 11, 66
6, 124800, Control_c, 0, 11, 68
6, 124853, Control_c, 0, 11, 70
6, 124907, Control_c, 0, 11, 72
6, 124960, Control_c, 0, 11, 74
6, 125013, Control_c, 0, 11, 77
6, 125067, Control_c, 0, 11, 79
6, 125120, Control_c, 0, 11, 81
6, 125173, Control_c, 0, 11, 83
6, 125227, Control_c, 0, 11, 85
6, 125280, Control_c, 0, 11, 88
6, 125333, Control_c, 0, 11, 90
6, 125387, Control_c, 0, 11, 92
6, 125440, Control_c, 0, 11, 94
6, 125493, Control_c, 0, 11, 96
6, 125547, Control_c, 0, 11, 98
6, 125600, Control_c, 0, 11, 101
6, 125653, Control_c, 0, 11, 103
6, 125707, Control_c, 0, 11, 105
6, 125760, Control_c, 0, 11, 107
6, 125813, Control_c, 0, 11, 109
6, 125867, Control_c, 0, 11, 112
6, 125920, Control_c, 0, 11, 114
6, 125973, Control_c, 0, 11, 116
6, 126027, Control_c, 0, 11, 118
6, 126080, Control_c, 0, 11, 120
6, 126133, Control_c, 0, 11, 123
6, 126187, Control_c, 0, 11, 127
6, 126224, Note_on_c, 0, 87, 0
6, 126240, Note_on_c, 0, 87, 84
6, 126344, Note_on_c, 0, 87, 0
6, 126360, Note_on_c, 0, 87, 84
6, 126479, Note_on_c, 0, 87, 0
6, 126600, Note_on_c, 0, 87, 84
6, 126704, Note_on_c, 0, 87, 0
6, 126720, Note_on_c, 0, 87, 84
6, 126824, Note_on_c, 0, 87, 0
6, 126840, Note_on_c, 0, 87, 84
6, 126959, Note_on_c, 0, 87, 0
6, 127080, Note_on_c, 0, 87, 84
6, 127184, Note_on_c, 0, 87, 0
6, 127200, Note_on_c, 0, 87, 84
6, 127304, Note_on_c, 0, 87, 0
6, 127320, Note_on_c, 0, 87, 84
6, 127439, Note_on_c, 0, 87, 0
6, 127560, Note_on_c, 0, 87, 84
6, 127664, Note_on_c, 0, 87, 0
6, 127680, Note_on_c, 0, 87, 84
6, 127784, Note_on_c, 0, 87, 0
6, 127800, Note_on_c, 0, 87, 84
6, 127919, Note_on_c, 0, 87, 0
6, 128040, Note_on_c, 0, 87, 84
6, 128144, Note_on_c, 0, 87, 0
6, 128160, Note_on_c, 0, 87, 84
6, 128279, Note_on_c, 0, 87, 0
6, 128400, Note_on_c, 0, 87, 84
6, 128519, Note_on_c, 0, 87, 0
6, 128640, Note_on_c, 0, 87, 84
6, 128759, Note_on_c, 0, 87, 0
6, 128880, Note_on_c, 0, 87, 84
6, 128999, Note_on_c, 0, 87, 0
6, 129120, Note_on_c, 0, 87, 84
6, 129239, Note_on_c, 0, 87, 0
6, 129360, Note_on_c, 0, 87, 84
6, 129479, Note_on_c, 0, 87, 0
6, 129600, Note_on_c, 0, 87, 84
6, 129719, Note_on_c, 0, 87, 0
6, 129840, Note_on_c, 0, 87, 84
6, 129959, Note_on_c, 0, 87, 0
6, 130080, Note_on_c, 0, 87, 92
6, 130529, Note_on_c, 0, 87, 0
6, 130560, Note_on_c, 0, 87, 92
6, 131009, Note_on_c, 0, 87, 0
6, 131040, Note_on_c, 0, 87, 92
6, 131489, Note_on_c, 0, 87, 0
6, 131520, Note_on_c, 0, 87, 92
6, 131969, Note_on_c, 0, 87, 0
6, 132000, Note_on_c, 0, 87, 84
6, 132119, Note_on_c, 0, 87, 0
6, 132240, Note_on_c, 0, 87, 84
6, 132359, Note_on_c, 0, 87, 0
6, 132480, Note_on_c, 0, 87, 84
6, 132599, Note_on_c, 0, 87, 0
6, 132720, Note_on_c, 0, 87, 84
6, 132839, Note_on_c, 0, 87, 0
6, 132960, Note_on_c, 0, 87, 84
6, 133079, Note_on_c, 0, 87, 0
6, 133200, Note_on_c, 0, 87, 84
6, 133319, Note_on_c, 0, 87, 0
6, 133440, Note_on_c, 0, 87, 84
6, 133559, Note_on_c, 0, 87, 0
6, 133680, Note_on_c, 0, 87, 84
6, 133799, Note_on_c, 0, 87, 0
6, 133920, Note_on_c, 0, 87, 92
6, 134369, Note_on_c, 0, 87, 0
6, 134400, Note_on_c, 0, 87, 92
6, 134849, Note_on_c, 0, 87, 0
6, 134880, Note_on_c, 0, 87, 92
6, 135329, Note_on_c, 0, 87, 0
6, 135360, Note_on_c, 0, 87, 92
6, 135809, Note_on_c, 0, 87, 0
6, 135840, Note_on_c, 0, 87, 84
6, 135959, Note_on_c, 0, 87, 0
6, 139680, Note_on_c, 0, 82, 76
6, 139799, Note_on_c, 0, 82, 0
6, 139920, Note_on_c, 0, 82, 76
6, 140039, Note_on_c, 0, 82, 0
6, 140160, Note_on_c, 0, 82, 76
6, 140279, Note_on_c, 0, 82, 0
6, 140880, Note_on_c, 0, 81, 76
6, 140999, Note_on_c, 0, 81, 0
6, 141120, Note_on_c, 0, 82, 76
6, 141239, Note_on_c, 0, 82, 0
6, 141360, Note_on_c, 0, 84, 76
6, 141479, Note_on_c, 0, 84, 0
6, 141600, Note_on_c, 0, 82, 76
6, 141839, Note_on_c, 0, 82, 0
6, 142080, Note_on_c, 0, 82, 76
6, 142319, Note_on_c, 0, 82, 0
6, 142560, Note_on_c, 0, 81, 76
6, 142799, Note_on_c, 0, 81, 0
6, 143040, Note_on_c, 0, 81, 76
6, 143279, Note_on_c, 0, 81, 0
6, 143520, Note_on_c, 0, 82, 76
6, 143759, Note_on_c, 0, 82, 0
6, 144000, Note_on_c, 0, 82, 76
6, 144239, Note_on_c, 0, 82, 0
6, 144480, Note_on_c, 0, 86, 76
6, 144719, Note_on_c, 0, 86, 0
6, 144960, Note_on_c, 0, 86, 76
6, 145199, Note_on_c, 0, 86, 0
6, 145440, Note_on_c, 0, 87, 76
6, 145679, Note_on_c, 0, 87, 0
6, 145920, Note_on_c, 0, 87, 76
6, 146159, Note_on_c, 0, 87, 0
6, 146400, Note_on_c, 0, 86, 76
6, 146639, Note_on_c, 0, 86, 0
6, 146880, Note_on_c, 0, 86, 76
6, 147119, Note_on_c, 0, 86, 0
6, 147360, Note_on_c, 0, 87, 52
6, 147464, Note_on_c, 0, 87, 0
6, 147480, Note_on_c, 0, 91, 52
6, 147584, Note_on_c, 0, 91, 0
6, 147600, Note_on_c, 0, 82, 52
6, 147704, Note_on_c, 0, 82, 0
6, 147720, Note_on_c, 0, 87, 52
6, 147824, Note_on_c, 0, 87, 0
6, 147840, Note_on_c, 0, 79, 52
6, 147944, Note_on_c, 0, 79, 0
6, 147960, Note_on_c, 0, 82, 52
6, 148064, Note_on_c, 0, 82, 0
6, 148080, Note_on_c, 0, 75, 52
6, 148184, Note_on_c, 0, 75, 0
6, 148200, Note_on_c, 0, 79, 52
6, 148319, Note_on_c, 0, 79, 0
6, 149880, Note_on_c, 0, 87, 76
6, 149984, Note_on_c, 0, 87, 0
6, 150000, Note_on_c, 0, 81, 76
6, 150104, Note_on_c, 0, 81, 0
6, 150120, Note_on_c, 0, 84, 76
6, 150224, Note_on_c, 0, 84, 0
6, 150240, Note_on_c, 0, 81, 84
6, 150824, Note_on_c, 0, 81, 0
6, 150840, Note_on_c, 0, 84, 84
6, 150944, Note_on_c, 0, 84, 0
6, 150960, Note_on_c, 0, 84, 84
6, 151064, Note_on_c, 0, 84, 0
6, 151080, Note_on_c, 0, 84, 84
6, 151184, Note_on_c, 0, 84, 0
6, 151200, Note_on_c, 0, 84, 84
6, 151304, Note_on_c, 0, 84, 0
6, 151320, Note_on_c, 0, 87, 84
6, 151424, Note_on_c, 0, 87, 0
6, 151440, Note_on_c, 0, 87, 84
6, 151544, Note_on_c, 0, 87, 0
6, 151560, Note_on_c, 0, 87, 84
6, 151664, Note_on_c, 0, 87, 0
6, 151680, Note_on_c, 0, 87, 84
6, 151799, Note_on_c, 0, 87, 0
6, 160680, Note_on_c, 0, 86, 76
6, 160784, Note_on_c, 0, 86, 0
6, 160800, Note_on_c, 0, 84, 76
6, 160919, Note_on_c, 0, 84, 0
6, 160920, Note_on_c, 0, 82, 76
6, 161024, Note_on_c, 0, 82, 0
6, 161040, Note_on_c, 0, 84, 76
6, 161129, Note_on_c, 0, 84, 0
6, 161160, Note_on_c, 0, 86, 76
6, 161249, Note_on_c, 0, 86, 0
6, 161280, Note_on_c, 0, 87, 76
6, 161519, Note_on_c, 0, 87, 0
6, 162600, Note_on_c, 0, 86, 76
6, 162704, Note_on_c, 0, 86, 0
6, 162720, Note_on_c, 0, 84, 76
6, 162839, Note_on_c, 0, 84, 0
6, 162840, Note_on_c, 0, 82, 76
6, 162944, Note_on_c, 0, 82, 0
6, 162960, Note_on_c, 0, 84, 76
6, 163049, Note_on_c, 0, 84, 0
6, 163080, Note_on_c, 0, 86, 76
6, 163169, Note_on_c, 0, 86, 0
6, 163200, Note_on_c, 0, 87, 76
6, 163289, Note_on_c, 0, 87, 0
6, 163320, Note_on_c, 0, 87, 76
6, 163409, Note_on_c, 0, 87, 0
6, 163560, Note_on_c, 0, 86, 76
6, 163664, Note_on_c, 0, 86, 0
6, 163680, Note_on_c, 0, 84, 76
6, 163799, Note_on_c, 0, 84, 0
6, 163800, Note_on_c, 0, 82, 76
6, 163904, Note_on_c, 0, 82, 0
6, 163920, Note_on_c, 0, 84, 76
6, 164009, Note_on_c, 0, 84, 0
6, 164040, Note_on_c, 0, 86, 76
6, 164129, Note_on_c, 0, 86, 0
6, 164160, Note_on_c, 0, 87, 76
6, 164264, Note_on_c, 0, 87, 0
6, 164280, Note_on_c, 0, 87, 76
6, 164399, Note_on_c, 0, 87, 0
6, 164520, Note_on_c, 0, 89, 76
6, 164624, Note_on_c, 0, 89, 0
6, 164640, Note_on_c, 0, 89, 76
6, 164744, Note_on_c, 0, 89, 0
6, 164760, Note_on_c, 0, 89, 76
6, 164864, Note_on_c, 0, 89, 0
6, 164880, Note_on_c, 0, 89, 76
6, 164984, Note_on_c, 0, 89, 0
6, 165000, Note_on_c, 0, 89, 76
6, 165104, Note_on_c, 0, 89, 0
6, 165120, Note_on_c, 0, 85, 84
6, 166064, Note_on_c, 0, 85, 0
6, 166080, Note_on_c, 0, 88, 84
6, 166304, Note_on_c, 0, 88, 0
6, 166320, Note_on_c, 0, 88, 92
6, 166559, Note_on_c, 0, 88, 0
6, 166800, Note_on_c, 0, 88, 92
6, 167039, Note_on_c, 0, 88, 0
6, 167280, Note_on_c, 0, 88, 92
6, 167519, Note_on_c, 0, 88, 0
6, 167760, Note_on_c, 0, 88, 92
6, 167999, Note_on_c, 0, 88, 0
6, 169920, Note_on_c, 0, 88, 84
6, 170144, Note_on_c, 0, 88, 0
6, 170160, Note_on_c, 0, 88, 92
6, 170399, Note_on_c, 0, 88, 0
6, 170640, Note_on_c, 0, 88, 92
6, 170879, Note_on_c, 0, 88, 0
6, 171120, Note_on_c, 0, 88, 92
6, 171359, Note_on_c, 0, 88, 0
6, 171600, Note_on_c, 0, 88, 92
6, 171839, Note_on_c, 0, 88, 0
6, 173400, Note_on_c, 0, 82, 52
6, 173459, Note_on_c, 0, 82, 0
6, 173460, Note_on_c, 0, 81, 52
6, 173519, Note_on_c, 0, 81, 0
6, 173640, Note_on_c, 0, 79, 52
6, 173699, Note_on_c, 0, 79, 0
6, 173700, Note_on_c, 0, 77, 52
6, 173759, Note_on_c, 0, 77, 0
6, 174120, Note_on_c, 0, 86, 56
6, 174179, Note_on_c, 0, 86, 0
6, 174180, Note_on_c, 0, 82, 57
6, 174239, Note_on_c, 0, 82, 0
6, 174360, Note_on_c, 0, 91, 60
6, 174419, Note_on_c, 0, 91, 0
6, 174420, Note_on_c, 0, 87, 61
6, 174479, Note_on_c, 0, 87, 0
6, 174600, Note_on_c, 0, 84, 64
6, 174659, Note_on_c, 0, 84, 0
6, 174660, Note_on_c, 0, 89, 65
6, 174719, Note_on_c, 0, 89, 0
6, 175080, Note_on_c, 0, 86, 73
6, 175139, Note_on_c, 0, 86, 0
6, 175140, Note_on_c, 0, 82, 74
6, 175199, Note_on_c, 0, 82, 0
6, 175320, Note_on_c, 0, 91, 77
6, 175379, Note_on_c, 0, 91, 0
6, 175380, Note_on_c, 0, 87, 78
6, 175439, Note_on_c, 0, 87, 0
6, 175560, Note_on_c, 0, 84, 81
6, 175619, Note_on_c, 0, 84, 0
6, 175620, Note_on_c, 0, 89, 82
6, 175671, Note_on_c, 0, 89, 0
6, 175680, Note_on_c, 0, 82, 84
6, 175784, Note_on_c, 0, 82, 0
6, 175800, Note_on_c, 0, 86, 84
6, 175904, Note_on_c, 0, 86, 0
6, 175920, Note_on_c, 0, 86, 84
6, 176024, Note_on_c, 0, 86, 0
6, 176040, Note_on_c, 0, 86, 84
6, 176144, Note_on_c, 0, 86, 0
6, 176160, Note_on_c, 0, 84, 84
6, 176264, Note_on_c, 0, 84, 0
6, 176280, Note_on_c, 0, 84, 84
6, 176384, Note_on_c, 0, 84, 0
6, 176400, Note_on_c, 0, 84, 84
6, 176504, Note_on_c, 0, 84, 0
6, 176520, Note_on_c, 0, 84, 84
6, 176624, Note_on_c, 0, 84, 0
6, 176640, Note_on_c, 0, 82, 84
6, 176759, Note_on_c, 0, 82, 0
6, 177600, Note_on_c, 0, 82, 84
6, 177689, Note_on_c, 0, 82, 0
6, 177720, Note_on_c, 0, 86, 84
6, 177809, Note_on_c, 0, 86, 0
6, 177840, Note_on_c, 0, 79, 84
6, 177929, Note_on_c, 0, 79, 0
6, 177960, Note_on_c, 0, 84, 84
6, 178049, Note_on_c, 0, 84, 0
6, 178080, Note_on_c, 0, 77, 84
6, 178169, Note_on_c, 0, 77, 0
6, 178200, Note_on_c, 0, 82, 84
6, 178289, Note_on_c, 0, 82, 0
6, 178320, Note_on_c, 0, 75, 84
6, 178409, Note_on_c, 0, 75, 0
6, 178440, Note_on_c, 0, 81, 84
6, 178529, Note_on_c, 0, 81, 0
6, 178560, Note_on_c, 0, 82, 84
6, 178679, Note_on_c, 0, 82, 0
6, 179520, Note_on_c, 0, 82, 84
6, 179609, Note_on_c, 0, 82, 0
6, 179640, Note_on_c, 0, 86, 84
6, 179729, Note_on_c, 0, 86, 0
6, 179760, Note_on_c, 0, 79, 84
6, 179849, Note_on_c, 0, 79, 0
6, 179880, Note_on_c, 0, 84, 84
6, 179969, Note_on_c, 0, 84, 0
6, 180000, Note_on_c, 0, 77, 84
6, 180089, Note_on_c, 0, 77, 0
6, 180120, Note_on_c, 0, 82, 84
6, 180209, Note_on_c, 0, 82, 0
6, 180240, Note_on_c, 0, 75, 84
6, 180329, Note_on_c, 0, 75, 0
6, 180360, Note_on_c, 0, 81, 84
6, 180449, Note_on_c, 0, 81, 0
6, 180480, Note_on_c, 0, 82, 84
6, 180584, Note_on_c, 0, 82, 0
6, 180600, Note_on_c, 0, 82, 84
6, 180719, Note_on_c, 0, 82, 0
6, 180840, Note_on_c, 0, 86, 84
6, 180944, Note_on_c, 0, 86, 0
6, 180960, Note_on_c, 0, 82, 84
6, 181064, Note_on_c, 0, 82, 0
6, 181080, Note_on_c, 0, 82, 84
6, 181199, Note_on_c, 0, 82, 0
6, 181320, Note_on_c, 0, 86, 84
6, 181424, Note_on_c, 0, 86, 0
6, 181440, Note_on_c, 0, 82, 84
6, 181544, Note_on_c, 0, 82, 0
6, 181560, Note_on_c, 0, 82, 84
6, 181679, Note_on_c, 0, 82, 0
6, 181800, Note_on_c, 0, 86, 84
6, 181904, Note_on_c, 0, 86, 0
6, 181920, Note_on_c, 0, 82, 84
6, 182024, Note_on_c, 0, 82, 0
6, 182040, Note_on_c, 0, 86, 84
6, 182144, Note_on_c, 0, 86, 0
6, 182160, Note_on_c, 0, 82, 84
6, 182264, Note_on_c, 0, 82, 0
6, 182280, Note_on_c, 0, 86, 84
6, 182384, Note_on_c, 0, 86, 0
6, 182400, Note_on_c, 0, 82, 52
6, 182519, Note_on_c, 0, 82, 0
6, 188400, Note_on_c, 0, 87, 76
6, 188639, Note_on_c, 0, 87, 0
6, 188880, Note_on_c, 0, 87, 84
6, 189119, Note_on_c, 0, 87, 0
6, 189360, Note_on_c, 0, 87, 84
6, 189599, Note_on_c, 0, 87, 0
6, 189840, Note_on_c, 0, 87, 84
6, 190079, Note_on_c, 0, 87, 0
6, 192000, Note_on_c, 0, 82, 44
6, 192119, Note_on_c, 0, 82, 0
6, 192240, Note_on_c, 0, 82, 44
6, 192359, Note_on_c, 0, 82, 0
6, 192480, Note_on_c, 0, 82, 44
6, 192599, Note_on_c, 0, 82, 0
6, 193200, Note_on_c, 0, 81, 44
6, 193319, Note_on_c, 0, 81, 0
6, 193440, Note_on_c, 0, 82, 44
6, 193559, Note_on_c, 0, 82, 0
6, 193680, Note_on_c, 0, 84, 44
6, 193799, Note_on_c, 0, 84, 0
6, 193920, Note_on_c, 0, 82, 84
6, 194384, Note_on_c, 0, 82, 0
6, 194400, Note_on_c, 0, 82, 84
6, 195104, Note_on_c, 0, 82, 0
6, 195120, Note_on_c, 0, 81, 84
6, 195344, Note_on_c, 0, 81, 0
6, 195360, Note_on_c, 0, 82, 84
6, 195584, Note_on_c, 0, 82, 0
6, 195600, Note_on_c, 0, 84, 84
6, 196064, Note_on_c, 0, 84, 0
6, 196080, Note_on_c, 0, 81, 84
6, 196304, Note_on_c, 0, 81, 0
6, 196320, Note_on_c, 0, 82, 84
6, 196544, Note_on_c, 0, 82, 0
6, 196560, Note_on_c, 0, 84, 84
6, 197024, Note_on_c, 0, 84, 0
6, 197040, Note_on_c, 0, 84, 84
6, 197264, Note_on_c, 0, 84, 0
6, 197280, Note_on_c, 0, 86, 84
6, 197504, Note_on_c, 0, 86, 0
6, 197520, Note_on_c, 0, 87, 84
6, 197984, Note_on_c, 0, 87, 0
6, 198000, Note_on_c, 0, 87, 84
6, 198224, Note_on_c, 0, 87, 0
6, 198240, Note_on_c, 0, 89, 84
6, 198464, Note_on_c, 0, 89, 0
6, 198480, Note_on_c, 0, 91, 84
6, 200624, Note_on_c, 0, 91, 0
6, 200640, Note_on_c, 0, 81, 92
6, 200760, Control_c, 0, 11, 112
6, 200795, Control_c, 0, 11, 109
6, 200830, Control_c, 0, 11, 107
6, 200865, Control_c, 0, 11, 104
6, 200900, Control_c, 0, 11, 101
6, 200935, Control_c, 0, 11, 99
6, 200970, Control_c, 0, 11, 96
6, 201005, Control_c, 0, 11, 93
6, 201040, Control_c, 0, 11, 91
6, 201075, Control_c, 0, 11, 88
6, 201110, Control_c, 0, 11, 85
6, 201145, Control_c, 0, 11, 83
6, 201180, Control_c, 0, 11, 80
6, 201215, Control_c, 0, 11, 77
6, 201250, Control_c, 0, 11, 75
6, 201285, Control_c, 0, 11, 72
6, 201320, Control_c, 0, 11, 69
6, 201355, Control_c, 0, 11, 67
6, 201390, Control_c, 0, 11, 64
6, 201425, Control_c, 0, 11, 61
6, 201460, Control_c, 0, 11, 59
6, 201495, Control_c, 0, 11, 56
6, 201530, Control_c, 0, 11, 53
6, 201565, Control_c, 0, 11, 48
6, 202079, Note_on_c, 0, 81, 0
6, 204000, Control_c, 0, 11, 127
6, 204480, Note_on_c, 0, 87, 52
6, 204599, Note_on_c, 0, 87, 0
6, 204600, Note_on_c, 0, 86, 52
6, 204719, Note_on_c, 0, 86, 0
6, 204720, Note_on_c, 0, 87, 52
6, 204839, Note_on_c, 0, 87, 0
6, 204840, Note_on_c, 0, 84, 52
6, 204959, Note_on_c, 0, 84, 0
6, 204960, Note_on_c, 0, 82, 52
6, 205079, Note_on_c, 0, 82, 0
6, 205080, Note_on_c, 0, 86, 52
6, 205199, Note_on_c, 0, 86, 0
6, 205200, Note_on_c, 0, 82, 52
6, 205319, Note_on_c, 0, 82, 0
6, 205320, Note_on_c, 0, 79, 52
6, 205424, Note_on_c, 0, 79, 0
6, 205440, Note_on_c, 0, 77, 52
6, 205559, Note_on_c, 0, 77, 0
6, 205680, Note_on_c, 0, 77, 52
6, 205799, Note_on_c, 0, 77, 0
6, 205920, Note_on_c, 0, 77, 44
6, 208184, Note_on_c, 0, 77, 0
6, 208200, Note_on_c, 0, 86, 44
6, 208319, Note_on_c, 0, 86, 0
6, 208320, Note_on_c, 0, 87, 44
6, 208439, Note_on_c, 0, 87, 0
6, 208440, Note_on_c, 0, 89, 44
6, 208559, Note_on_c, 0, 89, 0
6, 208560, Note_on_c, 0, 91, 44
6, 208679, Note_on_c, 0, 91, 0
6, 208680, Note_on_c, 0, 89, 44
6, 208799, Note_on_c, 0, 89, 0
6, 208800, Note_on_c, 0, 87, 44
6, 209039, Note_on_c, 0, 87, 0
6, 209040, Control_c, 0, 11, 64
6, 209160, Note_on_c, 0, 84, 84
6, 209279, Note_on_c, 0, 84, 0
6, 209280, Note_on_c, 0, 86, 84
6, 209399, Note_on_c, 0, 86, 0
6, 209400, Note_on_c, 0, 87, 84
6, 209519, Note_on_c, 0, 87, 0
6, 209520, Note_on_c, 0, 89, 84
6, 209639, Note_on_c, 0, 89, 0
6, 209640, Note_on_c, 0, 87, 84
6, 209744, Note_on_c, 0, 87, 0
6, 209760, Note_on_c, 0, 86, 84
6, 209760, Control_c, 0, 11, 64
6, 209813, Control_c, 0, 11, 66
6, 209867, Control_c, 0, 11, 68
6, 209920, Control_c, 0, 11, 69
6, 209973, Control_c, 0, 11, 71
6, 209999, Note_on_c, 0, 86, 0
6, 210000, Note_on_c, 0, 89, 84
6, 210027, Control_c, 0, 11, 73
6, 210080, Control_c, 0, 11, 75
6, 210133, Control_c, 0, 11, 76
6, 210187, Control_c, 0, 11, 78
6, 210239, Note_on_c, 0, 89, 0
6, 210240, Control_c, 0, 11, 80
6, 210240, Note_on_c, 0, 87, 84
6, 210293, Control_c, 0, 11, 82
6, 210347, Control_c, 0, 11, 83
6, 210400, Control_c, 0, 11, 85
6, 210453, Control_c, 0, 11, 87
6, 210479, Note_on_c, 0, 87, 0
6, 210480, Note_on_c, 0, 91, 84
6, 210507, Control_c, 0, 11, 89
6, 210560, Control_c, 0, 11, 90
6, 210613, Control_c, 0, 11, 92
6, 210667, Control_c, 0, 11, 94
6, 210719, Note_on_c, 0, 91, 0
6, 210720, Control_c, 0, 11, 96
6, 210720, Note_on_c, 0, 89, 84
6, 210773, Control_c, 0, 11, 97
6, 210827, Control_c, 0, 11, 99
6, 210880, Control_c, 0, 11, 101
6, 210933, Control_c, 0, 11, 103
6, 210959, Note_on_c, 0, 89, 0
6, 210960, Note_on_c, 0, 82, 84
6, 210987, Control_c, 0, 11, 104
6, 211040, Control_c, 0, 11, 106
6, 211093, Control_c, 0, 11, 108
6, 211147, Control_c, 0, 11, 110
6, 211200, Control_c, 0, 11, 111
6, 211253, Control_c, 0, 11, 113
6, 211307, Control_c, 0, 11, 115
6, 211360, Control_c, 0, 11, 117
6, 211413, Control_c, 0, 11, 118
6, 211424, Note_on_c, 0, 82, 0
6, 211440, Note_on_c, 0, 82, 84
6, 211467, Control_c, 0, 11, 120
6, 211520, Control_c, 0, 11, 122
6, 211573, Control_c, 0, 11, 124
6, 211627, Control_c, 0, 11, 127
6, 212624, Note_on_c, 0, 82, 0
6, 212640, Note_on_c, 0, 82, 84
6, 212759, Note_on_c, 0, 82, 0
6, 212880, Note_on_c, 0, 82, 84
6, 212999, Note_on_c, 0, 82, 0
6, 213600, Note_on_c, 0, 89, 84
6, 213719, Note_on_c, 0, 89, 0
6, 213840, Note_on_c, 0, 89, 84
6, 213959, Note_on_c, 0, 89, 0
6, 217680, Note_on_c, 0, 81, 84
6, 217799, Note_on_c, 0, 81, 0
6, 217920, Note_on_c, 0, 82, 84
6, 218039, Note_on_c, 0, 82, 0
6, 218160, Note_on_c, 0, 84, 84
6, 218279, Note_on_c, 0, 84, 0
6, 218400, Note_on_c, 0, 86, 84
6, 218519, Note_on_c, 0, 86, 0
6, 218880, Note_on_c, 0, 89, 84
6, 218999, Note_on_c, 0, 89, 0
6, 219360, Note_on_c, 0, 82, 84
6, 219479, Note_on_c, 0, 82, 0
6, 219479, End_track
7, 0, Start_track
7, 0, Title_t, "Oboe"
7, 0, MIDI_port, 0
7, 0, Program_c, 1, 68
7, 0, Control_c, 1, 7, 80
7, 0, Control_c, 1, 10, 70
7, 0, Control_c, 1, 11, 127
7, 1200, Note_on_c, 1, 72, 76
7, 1200, Note_on_c, 1, 69, 76
7, 1319, Note_on_c, 1, 72, 0
7, 1319, Note_on_c, 1, 69, 0
7, 1440, Note_on_c, 1, 70, 76
7, 1440, Note_on_c, 1, 74, 76
7, 1559, Note_on_c, 1, 70, 0
7, 1559, Note_on_c, 1, 74, 0
7, 1680, Note_on_c, 1, 77, 76
7, 1680, Note_on_c, 1, 69, 76
7, 1799, Note_on_c, 1, 77, 0
7, 1799, Note_on_c, 1, 69, 0
7, 9120, Note_on_c, 1, 65, 52
7, 9120, Note_on_c, 1, 77, 52
7, 9239, Note_on_c, 1, 65, 0
7, 9239, Note_on_c, 1, 77, 0
7, 9360, Note_on_c, 1, 77, 68
7, 9360, Note_on_c, 1, 65, 68
7, 9479, Note_on_c, 1, 77, 0
7, 9479, Note_on_c, 1, 65, 0
7, 9600, Note_on_c, 1, 70, 84
7, 9600, Note_on_c, 1, 82, 84
7, 11144, Note_on_c, 1, 70, 0
7, 11144, Note_on_c, 1, 82, 0
7, 11160, Note_on_c, 1, 82, 84
7, 11264, Note_on_c, 1, 82, 0
7, 11280, Note_on_c, 1, 72, 84
7, 11384, Note_on_c, 1, 72, 0
7, 11400, Note_on_c, 1, 77, 84
7, 11504, Note_on_c, 1, 77, 0
7, 11520, Note_on_c, 1, 74, 84
7, 11520, Note_on_c, 1, 82, 84
7, 11759, Note_on_c, 1, 74, 0
7, 11759, Note_on_c, 1, 82, 0
7, 12000, Note_on_c, 1, 74, 84
7, 12000, Note_on_c, 1, 82, 84
7, 12239, Note_on_c, 1, 74, 0
7, 12239, Note_on_c, 1, 82, 0
7, 12480, Note_on_c, 1, 75, 84
7, 12480, Note_on_c, 1, 81, 84
7, 12719, Note_on_c, 1, 75, 0
7, 12719, Note_on_c, 1, 81, 0
7, 12960, Note_on_c, 1, 84, 84
7, 12960, Note_on_c, 1, 75, 84
7, 13199, Note_on_c, 1, 84, 0
7, 13199, Note_on_c, 1, 75, 0
7, 13440, Note_on_c, 1, 74, 84
7, 13440, Note_on_c, 1, 82, 84
7, 13679, Note_on_c, 1, 74, 0
7, 13679, Note_on_c, 1, 82, 0
7, 13920, Note_on_c, 1, 79, 84
7, 13920, Note_on_c, 1, 82, 84
7, 14159, Note_on_c, 1, 79, 0
7, 14159, Note_on_c, 1, 82, 0
7, 14400, Note_on_c, 1, 81, 84
7, 14400, Note_on_c, 1, 69, 84
7, 14504, Note_on_c, 1, 81, 0
7, 14504, Note_on_c, 1, 69, 0
7, 14520, Note_on_c, 1, 72, 84
7, 14520, Note_on_c, 1, 84, 84
7, 14624, Note_on_c, 1, 72, 0
7, 14624, Note_on_c, 1, 84, 0
7, 14640, Note_on_c, 1, 65, 84
7, 14640, Note_on_c, 1, 77, 84
7, 14744, Note_on_c, 1, 65, 0
7, 14744, Note_on_c, 1, 77, 0
7, 14760, Note_on_c, 1, 69, 84
7, 14760, Note_on_c, 1, 81, 84
7, 14864, Note_on_c, 1, 69, 0
7, 14864, Note_on_c, 1, 81, 0
7, 14880, Note_on_c, 1, 74, 84
7, 14880, Note_on_c, 1, 62, 84
7, 14984, Note_on_c, 1, 74, 0
7, 14984, Note_on_c, 1, 62, 0
7, 15000, Note_on_c, 1, 77, 84
7, 15000, Note_on_c, 1, 65, 84
7, 15104, Note_on_c, 1, 77, 0
7, 15104, Note_on_c, 1, 65, 0
7, 15120, Note_on_c, 1, 69, 84
7, 15224, Note_on_c, 1, 69, 0
7, 15240, Note_on_c, 1, 71, 84
7, 15344, Note_on_c, 1, 71, 0
7, 15360, Note_on_c, 1, 72, 84
7, 15480, Note_on_c, 1, 76, 84
7, 15584, Note_on_c, 1, 72, 0
7, 15584, Note_on_c, 1, 76, 0
7, 15600, Note_on_c, 1, 79, 84
7, 15600, Note_on_c, 1, 76, 84
7, 15704, Note_on_c, 1, 79, 0
7, 15704, Note_on_c, 1, 76, 0
7, 15720, Note_on_c, 1, 81, 84
7, 15720, Note_on_c, 1, 77, 84
7, 15824, Note_on_c, 1, 81, 0
7, 15824, Note_on_c, 1, 77, 0
7, 15840, Note_on_c, 1, 79, 84
7, 15840, Note_on_c, 1, 82, 84
7, 16424, Note_on_c, 1, 79, 0
7, 16424, Note_on_c, 1, 82, 0
7, 16440, Note_on_c, 1, 79, 84
7, 16440, Note_on_c, 1, 82, 84
7, 16544, Note_on_c, 1, 79, 0
7, 16544, Note_on_c, 1, 82, 0
7, 16560, Note_on_c, 1, 79, 84
7, 16560, Note_on_c, 1, 82, 84
7, 16664, Note_on_c, 1, 79, 0
7, 16664, Note_on_c, 1, 82, 0
7, 16680, Note_on_c, 1, 79, 84
7, 16680, Note_on_c, 1, 82, 84
7, 16784, Note_on_c, 1, 79, 0
7, 16784, Note_on_c, 1, 82, 0
7, 16800, Note_on_c, 1, 82, 84
7, 16800, Note_on_c, 1, 79, 84
7, 16919, Note_on_c, 1, 82, 0
7, 16919, Note_on_c, 1, 79, 0
7, 16920, Note_on_c, 1, 84, 76
7, 17039, Note_on_c, 1, 84, 0
7, 17040, Note_on_c, 1, 82, 68
7, 17159, Note_on_c, 1, 82, 0
7, 17160, Note_on_c, 1, 79, 48
7, 17264, Note_on_c, 1, 79, 0
7, 17280, Note_on_c, 1, 77, 48
7, 17624, Note_on_c, 1, 77, 0
7, 17640, Note_on_c, 1, 77, 48
7, 17759, Note_on_c, 1, 77, 0
7, 17760, Note_on_c, 1, 76, 48
7, 17879, Note_on_c, 1, 76, 0
7, 17880, Note_on_c, 1, 84, 48
7, 17999, Note_on_c, 1, 84, 0
7, 18000, Note_on_c, 1, 82, 48
7, 18119, Note_on_c, 1, 82, 0
7, 18120, Note_on_c, 1, 79, 48
7, 18239, Note_on_c, 1, 79, 0
7, 18240, Note_on_c, 1, 81, 48
7, 18359, Note_on_c, 1, 81, 0
7, 18360, Note_on_c, 1, 77, 48
7, 18479, Note_on_c, 1, 77, 0
7, 18480, Note_on_c, 1, 76, 48
7, 18599, Note_on_c, 1, 76, 0
7, 18600, Note_on_c, 1, 77, 48
7, 18719, Note_on_c, 1, 77, 0
7, 18720, Note_on_c, 1, 78, 48
7, 18839, Note_on_c, 1, 78, 0
7, 18840, Note_on_c, 1, 79, 48
7, 18944, Note_on_c, 1, 79, 0
7, 18960, Note_on_c, 1, 76, 48
7, 19049, Note_on_c, 1, 76, 0
7, 19080, Note_on_c, 1, 72, 48
7, 19169, Note_on_c, 1, 72, 0
7, 24240, Control_c, 1, 11, 96
7, 24480, Note_on_c, 1, 72, 68
7, 24520, Control_c, 1, 11, 99
7, 24560, Control_c, 1, 11, 101
7, 24600, Control_c, 1, 11, 104
7, 24640, Control_c, 1, 11, 106
7, 24680, Control_c, 1, 11, 109
7, 24720, Control_c, 1, 11, 112
7, 24760, Control_c, 1, 11, 114
7, 24800, Control_c, 1, 11, 117
7, 24839, Note_on_c, 1, 72, 0
7, 24840, Note_on_c, 1, 73, 68
7, 24840, Control_c, 1, 11, 119
7, 24880, Control_c, 1, 11, 122
7, 24920, Control_c, 1, 11, 127
7, 24959, Note_on_c, 1, 73, 0
7, 24960, Note_on_c, 1, 74, 68
7, 24960, Control_c, 1, 11, 127
7, 25000, Control_c, 1, 11, 124
7, 25040, Control_c, 1, 11, 122
7, 25080, Control_c, 1, 11, 119
7, 25120, Control_c, 1, 11, 117
7, 25160, Control_c, 1, 11, 114
7, 25200, Control_c, 1, 11, 112
7, 25240, Control_c, 1, 11, 109
7, 25280, Control_c, 1, 11, 106
7, 25319, Note_on_c, 1, 74, 0
7, 25320, Note_on_c, 1, 72, 68
7, 25320, Control_c, 1, 11, 104
7, 25360, Control_c, 1, 11, 101
7, 25400, Control_c, 1, 11, 96
7, 25424, Note_on_c, 1, 72, 0
7, 25440, Note_on_c, 1, 70, 68
7, 25799, Note_on_c, 1, 70, 0
7, 26760, Note_on_c, 1, 73, 68
7, 26879, Note_on_c, 1, 73, 0
7, 26880, Control_c, 1, 11, 96
7, 26880, Note_on_c, 1, 74, 68
7, 26907, Control_c, 1, 11, 99
7, 26933, Control_c, 1, 11, 103
7, 26960, Control_c, 1, 11, 106
7, 26984, Note_on_c, 1, 74, 0
7, 26987, Control_c, 1, 11, 110
7, 27000, Note_on_c, 1, 74, 68
7, 27013, Control_c, 1, 11, 113
7, 27040, Control_c, 1, 11, 117
7, 27067, Control_c, 1, 11, 120
7, 27093, Control_c, 1, 11, 127
7, 27119, Note_on_c, 1, 74, 0
7, 27120, Control_c, 1, 11, 127
7, 27160, Control_c, 1, 11, 124
7, 27200, Control_c, 1, 11, 122
7, 27240, Control_c, 1, 11, 119
7, 27240, Note_on_c, 1, 72, 68
7, 27280, Control_c, 1, 11, 117
7, 27320, Control_c, 1, 11, 114
7, 27359, Note_on_c, 1, 72, 0
7, 27360, Control_c, 1, 11, 112
7, 27360, Note_on_c, 1, 70, 68
7, 27400, Control_c, 1, 11, 109
7, 27440, Control_c, 1, 11, 106
7, 27464, Note_on_c, 1, 70, 0
7, 27480, Note_on_c, 1, 70, 68
7, 27480, Control_c, 1, 11, 104
7, 27520, Control_c, 1, 11, 101
7, 27560, Control_c, 1, 11, 96
7, 27599, Note_on_c, 1, 70, 0
7, 29280, Control_c, 1, 11, 127
7, 29640, Note_on_c, 1, 84, 76
7, 29640, Note_on_c, 1, 72, 76
7, 29744, Note_on_c, 1, 84, 0
7, 29744, Note_on_c, 1, 72, 0
7, 29760, Note_on_c, 1, 84, 76
7, 29760, Note_on_c, 1, 72, 76
7, 29864, Note_on_c, 1, 84, 0
7, 29864, Note_on_c, 1, 72, 0
7, 29880, Note_on_c, 1, 72, 76
7, 29880, Note_on_c, 1, 84, 76
7, 29984, Note_on_c, 1, 72, 0
7, 29984, Note_on_c, 1, 84, 0
7, 30000, Note_on_c, 1, 84, 76
7, 30000, Note_on_c, 1, 72, 76
7, 30104, Note_on_c, 1, 84, 0
7, 30104, Note_on_c, 1, 72, 0
7, 30120, Note_on_c, 1, 72, 76
7, 30120, Note_on_c, 1, 84, 76
7, 30224, Note_on_c, 1, 72, 0
7, 30224, Note_on_c, 1, 84, 0
7, 30240, Note_on_c, 1, 77, 84
7, 30240, Note_on_c, 1, 80, 84
7, 31184, Note_on_c, 1, 77, 0
7, 31184, Note_on_c, 1, 80, 0
7, 31200, Note_on_c, 1, 74, 84
7, 31200, Note_on_c, 1, 83, 84
7, 31424, Note_on_c, 1, 74, 0
7, 31424, Note_on_c, 1, 83, 0
7, 31440, Note_on_c, 1, 74, 92
7, 31440, Note_on_c, 1, 83, 92
7, 31679, Note_on_c, 1, 74, 0
7, 31679, Note_on_c, 1, 83, 0
7, 31920, Note_on_c, 1, 74, 92
7, 31920, Note_on_c, 1, 83, 92
7, 32159, Note_on_c, 1, 74, 0
7, 32159, Note_on_c, 1, 83, 0
7, 32400, Note_on_c, 1, 74, 92
7, 32400, Note_on_c, 1, 83, 92
7, 32639, Note_on_c, 1, 74, 0
7, 32639, Note_on_c, 1, 83, 0
7, 32880, Note_on_c, 1, 74, 92
7, 32880, Note_on_c, 1, 83, 92
7, 33119, Note_on_c, 1, 74, 0
7, 33119, Note_on_c, 1, 83, 0
7, 35040, Note_on_c, 1, 83, 84
7, 35040, Note_on_c, 1, 74, 84
7, 35264, Note_on_c, 1, 83, 0
7, 35264, Note_on_c, 1, 74, 0
7, 35280, Note_on_c, 1, 83, 92
7, 35280, Note_on_c, 1, 74, 92
7, 35519, Note_on_c, 1, 83, 0
7, 35519, Note_on_c, 1, 74, 0
7, 35760, Note_on_c, 1, 83, 92
7, 35760, Note_on_c, 1, 74, 92
7, 35999, Note_on_c, 1, 83, 0
7, 35999, Note_on_c, 1, 74, 0
7, 36240, Note_on_c, 1, 83, 92
7, 36240, Note_on_c, 1, 74, 92
7, 36479, Note_on_c, 1, 83, 0
7, 36479, Note_on_c, 1, 74, 0
7, 36720, Note_on_c, 1, 83, 92
7, 36720, Note_on_c, 1, 74, 92
7, 36959, Note_on_c, 1, 83, 0
7, 36959, Note_on_c, 1, 74, 0
7, 40040, Control_c, 1, 11, 77
7, 40080, Control_c, 1, 11, 80
7, 40080, Note_on_c, 1, 77, 84
7, 40080, Note_on_c, 1, 81, 84
7, 40120, Control_c, 1, 11, 82
7, 40160, Control_c, 1, 11, 85
7, 40200, Control_c, 1, 11, 88
7, 40240, Control_c, 1, 11, 90
7, 40280, Control_c, 1, 11, 93
7, 40319, Note_on_c, 1, 81, 0
7, 40320, Control_c, 1, 11, 96
7, 40320, Note_on_c, 1, 79, 84
7, 40360, Control_c, 1, 11, 98
7, 40400, Control_c, 1, 11, 101
7, 40440, Control_c, 1, 11, 103
7, 40480, Control_c, 1, 11, 106
7, 40520, Control_c, 1, 11, 109
7, 40544, Note_on_c, 1, 77, 0
7, 40560, Note_on_c, 1, 76, 84
7, 40560, Control_c, 1, 11, 111
7, 40600, Control_c, 1, 11, 114
7, 40640, Control_c, 1, 11, 117
7, 40680, Control_c, 1, 11, 119
7, 40720, Control_c, 1, 11, 122
7, 40760, Control_c, 1, 11, 124
7, 40784, Note_on_c, 1, 79, 0
7, 40784, Note_on_c, 1, 76, 0
7, 40800, Note_on_c, 1, 77, 84
7, 40800, Note_on_c, 1, 81, 84
7, 40904, Note_on_c, 1, 77, 0
7, 40904, Note_on_c, 1, 81, 0
7, 40920, Note_on_c, 1, 81, 84
7, 40920, Note_on_c, 1, 77, 84
7, 41024, Note_on_c, 1, 81, 0
7, 41024, Note_on_c, 1, 77, 0
7, 41040, Note_on_c, 1, 81, 84
7, 41040, Note_on_c, 1, 77, 84
7, 41144, Note_on_c, 1, 81, 0
7, 41144, Note_on_c, 1, 77, 0
7, 41160, Note_on_c, 1, 77, 84
7, 41160, Note_on_c, 1, 81, 84
7, 41264, Note_on_c, 1, 77, 0
7, 41264, Note_on_c, 1, 81, 0
7, 41280, Note_on_c, 1, 77, 84
7, 41280, Note_on_c, 1, 79, 84
7, 41384, Note_on_c, 1, 77, 0
7, 41384, Note_on_c, 1, 79, 0
7, 41400, Note_on_c, 1, 79, 84
7, 41400, Note_on_c, 1, 77, 84
7, 41504, Note_on_c, 1, 79, 0
7, 41504, Note_on_c, 1, 77, 0
7, 41520, Note_on_c, 1, 76, 84
7, 41520, Note_on_c, 1, 79, 84
7, 41624, Note_on_c, 1, 76, 0
7, 41624, Note_on_c, 1, 79, 0
7, 41640, Note_on_c, 1, 79, 84
7, 41640, Note_on_c, 1, 70, 84
7, 41744, Note_on_c, 1, 79, 0
7, 41744, Note_on_c, 1, 70, 0
7, 41760, Note_on_c, 1, 77, 84
7, 41760, Note_on_c, 1, 69, 84
7, 41879, Note_on_c, 1, 77, 0
7, 41879, Note_on_c, 1, 69, 0
7, 42720, Note_on_c, 1, 77, 84
7, 42809, Note_on_c, 1, 77, 0
7, 42840, Note_on_c, 1, 77, 84
7, 42929, Note_on_c, 1, 77, 0
7, 42960, Note_on_c, 1, 74, 84
7, 43049, Note_on_c, 1, 74, 0
7, 43080, Note_on_c, 1, 79, 84
7, 43169, Note_on_c, 1, 79, 0
7, 43200, Note_on_c, 1, 72, 84
7, 43289, Note_on_c, 1, 72, 0
7, 43320, Note_on_c, 1, 77, 84
7, 43409, Note_on_c, 1, 77, 0
7, 43440, Note_on_c, 1, 70, 84
7, 43529, Note_on_c, 1, 70, 0
7, 43560, Note_on_c, 1, 76, 84
7, 43649, Note_on_c, 1, 76, 0
7, 43680, Note_on_c, 1, 77, 84
7, 43680, Note_on_c, 1, 69, 84
7, 43799, Note_on_c, 1, 77, 0
7, 43799, Note_on_c, 1, 69, 0
7, 44640, Note_on_c, 1, 77, 84
7, 44729, Note_on_c, 1, 77, 0
7, 44760, Note_on_c, 1, 77, 84
7, 44849, Note_on_c, 1, 77, 0
7, 44880, Note_on_c, 1, 74, 84
7, 44969, Note_on_c, 1, 74, 0
7, 45000, Note_on_c, 1, 79, 84
7, 45089, Note_on_c, 1, 79, 0
7, 45120, Note_on_c, 1, 72, 84
7, 45209, Note_on_c, 1, 72, 0
7, 45240, Note_on_c, 1, 77, 84
7, 45329, Note_on_c, 1, 77, 0
7, 45360, Note_on_c, 1, 70, 84
7, 45449, Note_on_c, 1, 70, 0
7, 45480, Note_on_c, 1, 76, 84
7, 45569, Note_on_c, 1, 76, 0
7, 45600, Note_on_c, 1, 69, 84
7, 45600, Note_on_c, 1, 77, 84
7, 45704, Note_on_c, 1, 69, 0
7, 45704, Note_on_c, 1, 77, 0
7, 45720, Note_on_c, 1, 77, 84
7, 45720, Note_on_c, 1, 81, 84
7, 45839, Note_on_c, 1, 77, 0
7, 45839, Note_on_c, 1, 81, 0
7, 45960, Note_on_c, 1, 77, 84
7, 45960, Note_on_c, 1, 81, 84
7, 46064, Note_on_c, 1, 77, 0
7, 46064, Note_on_c, 1, 81, 0
7, 46080, Note_on_c, 1, 81, 84
7, 46080, Note_on_c, 1, 77, 84
7, 46184, Note_on_c, 1, 81, 0
7, 46184, Note_on_c, 1, 77, 0
7, 46200, Note_on_c, 1, 81, 84
7, 46200, Note_on_c, 1, 77, 84
7, 46319, Note_on_c, 1, 81, 0
7, 46319, Note_on_c, 1, 77, 0
7, 46440, Note_on_c, 1, 77, 84
7, 46440, Note_on_c, 1, 81, 84
7, 46544, Note_on_c, 1, 77, 0
7, 46544, Note_on_c, 1, 81, 0
7, 46560, Note_on_c, 1, 81, 84
7, 46560, Note_on_c, 1, 77, 84
7, 46664, Note_on_c, 1, 81, 0
7, 46664, Note_on_c, 1, 77, 0
7, 46680, Note_on_c, 1, 77, 84
7, 46680, Note_on_c, 1, 81, 84
7, 46799, Note_on_c, 1, 77, 0
7, 46799, Note_on_c, 1, 81, 0
7, 46920, Note_on_c, 1, 77, 84
7, 46920, Note_on_c, 1, 81, 84
7, 47024, Note_on_c, 1, 77, 0
7, 47024, Note_on_c, 1, 81, 0
7, 47040, Note_on_c, 1, 81, 84
7, 47040, Note_on_c, 1, 77, 84
7, 47144, Note_on_c, 1, 81, 0
7, 47144, Note_on_c, 1, 77, 0
7, 47160, Note_on_c, 1, 81, 84
7, 47160, Note_on_c, 1, 77, 84
7, 47264, Note_on_c, 1, 81, 0
7, 47264, Note_on_c, 1, 77, 0
7, 47280, Note_on_c, 1, 77, 84
7, 47280, Note_on_c, 1, 81, 84
7, 47384, Note_on_c, 1, 77, 0
7, 47384, Note_on_c, 1, 81, 0
7, 47400, Note_on_c, 1, 77, 84
7, 47400, Note_on_c, 1, 81, 84
7, 47504, Note_on_c, 1, 77, 0
7, 47504, Note_on_c, 1, 81, 0
7, 47520, Note_on_c, 1, 81, 52
7, 47520, Note_on_c, 1, 77, 52
7, 47639, Note_on_c, 1, 81, 0
7, 47639, Note_on_c, 1, 77, 0
7, 50640, Note_on_c, 1, 72, 76
7, 50640, Note_on_c, 1, 69, 76
7, 50759, Note_on_c, 1, 72, 0
7, 50759, Note_on_c, 1, 69, 0
7, 50880, Note_on_c, 1, 74, 76
7, 50880, Note_on_c, 1, 70, 76
7, 50999, Note_on_c, 1, 74, 0
7, 50999, Note_on_c, 1, 70, 0
7, 51120, Note_on_c, 1, 69, 76
7, 51120, Note_on_c, 1, 77, 76
7, 51239, Note_on_c, 1, 69, 0
7, 51239, Note_on_c, 1, 77, 0
7, 58560, Note_on_c, 1, 77, 52
7, 58560, Note_on_c, 1, 65, 52
7, 58679, Note_on_c, 1, 77, 0
7, 58679, Note_on_c, 1, 65, 0
7, 58800, Note_on_c, 1, 77, 68
7, 58800, Note_on_c, 1, 65, 68
7, 58919, Note_on_c, 1, 77, 0
7, 58919, Note_on_c, 1, 65, 0
7, 59040, Note_on_c, 1, 70, 84
7, 59040, Note_on_c, 1, 82, 84
7, 60584, Note_on_c, 1, 70, 0
7, 60584, Note_on_c, 1, 82, 0
7, 60600, Note_on_c, 1, 82, 84
7, 60704, Note_on_c, 1, 82, 0
7, 60720, Note_on_c, 1, 72, 84
7, 60824, Note_on_c, 1, 72, 0
7, 60840, Note_on_c, 1, 77, 84
7, 60944, Note_on_c, 1, 77, 0
7, 60960, Note_on_c, 1, 82, 84
7, 60960, Note_on_c, 1, 74, 84
7, 61199, Note_on_c, 1, 82, 0
7, 61199, Note_on_c, 1, 74, 0
7, 61440, Note_on_c, 1, 82, 84
7, 61440, Note_on_c, 1, 74, 84
7, 61679, Note_on_c, 1, 82, 0
7, 61679, Note_on_c, 1, 74, 0
7, 61920, Note_on_c, 1, 81, 84
7, 61920, Note_on_c, 1, 75, 84
7, 62159, Note_on_c, 1, 81, 0
7, 62159, Note_on_c, 1, 75, 0
7, 62400, Note_on_c, 1, 84, 84
7, 62400, Note_on_c, 1, 75, 84
7, 62639, Note_on_c, 1, 84, 0
7, 62639, Note_on_c, 1, 75, 0
7, 62880, Note_on_c, 1, 74, 84
7, 62880, Note_on_c, 1, 82, 84
7, 63119, Note_on_c, 1, 74, 0
7, 63119, Note_on_c, 1, 82, 0
7, 63360, Note_on_c, 1, 79, 84
7, 63360, Note_on_c, 1, 82, 84
7, 63599, Note_on_c, 1, 79, 0
7, 63599, Note_on_c, 1, 82, 0
7, 63840, Note_on_c, 1, 81, 84
7, 63840, Note_on_c, 1, 69, 84
7, 63944, Note_on_c, 1, 81, 0
7, 63944, Note_on_c, 1, 69, 0
7, 63960, Note_on_c, 1, 84, 84
7, 63960, Note_on_c, 1, 72, 84
7, 64064, Note_on_c, 1, 84, 0
7, 64064, Note_on_c, 1, 72, 0
7, 64080, Note_on_c, 1, 65, 84
7, 64080, Note_on_c, 1, 77, 84
7, 64184, Note_on_c, 1, 65, 0
7, 64184, Note_on_c, 1, 77, 0
7, 64200, Note_on_c, 1, 81, 84
7, 64200, Note_on_c, 1, 69, 84
7, 64304, Note_on_c, 1, 81, 0
7, 64304, Note_on_c, 1, 69, 0
7, 64320, Note_on_c, 1, 74, 84
7, 64320, Note_on_c, 1, 62, 84
7, 64424, Note_on_c, 1, 74, 0
7, 64424, Note_on_c, 1, 62, 0
7, 64440, Note_on_c, 1, 77, 84
7, 64440, Note_on_c, 1, 65, 84
7, 64544, Note_on_c, 1, 77, 0
7, 64544, Note_on_c, 1, 65, 0
7, 64560, Note_on_c, 1, 69, 84
7, 64664, Note_on_c, 1, 69, 0
7, 64680, Note_on_c, 1, 71, 84
7, 64784, Note_on_c, 1, 71, 0
7, 64800, Note_on_c, 1, 72, 84
7, 64920, Note_on_c, 1, 76, 84
7, 65024, Note_on_c, 1, 72, 0
7, 65024, Note_on_c, 1, 76, 0
7, 65040, Note_on_c, 1, 79, 84
7, 65040, Note_on_c, 1, 76, 84
7, 65144, Note_on_c, 1, 79, 0
7, 65144, Note_on_c, 1, 76, 0
7, 65160, Note_on_c, 1, 81, 84
7, 65160, Note_on_c, 1, 77, 84
7, 65264, Note_on_c, 1, 81, 0
7, 65264, Note_on_c, 1, 77, 0
7, 65280, Note_on_c, 1, 79, 84
7, 65280, Note_on_c, 1, 82, 84
7, 65864, Note_on_c, 1, 79, 0
7, 65864, Note_on_c, 1, 82, 0
7, 65880, Note_on_c, 1, 79, 84
7, 65880, Note_on_c, 1, 82, 84
7, 65984, Note_on_c, 1, 79, 0
7, 65984, Note_on_c, 1, 82, 0
7, 66000, Note_on_c, 1, 82, 84
7, 66000, Note_on_c, 1, 79, 84
7, 66104, Note_on_c, 1, 82, 0
7, 66104, Note_on_c, 1, 79, 0
7, 66120, Note_on_c, 1, 82, 84
7, 66120, Note_on_c, 1, 79, 84
7, 66224, Note_on_c, 1, 82, 0
7, 66224, Note_on_c, 1, 79, 0
7, 66240, Note_on_c, 1, 79, 84
7, 66240, Note_on_c, 1, 82, 84
7, 66359, Note_on_c, 1, 79, 0
7, 66359, Note_on_c, 1, 82, 0
7, 66360, Note_on_c, 1, 84, 76
7, 66479, Note_on_c, 1, 84, 0
7, 66480, Note_on_c, 1, 82, 68
7, 66599, Note_on_c, 1, 82, 0
7, 66600, Note_on_c, 1, 79, 48
7, 66704, Note_on_c, 1, 79, 0
7, 66720, Note_on_c, 1, 77, 48
7, 67064, Note_on_c, 1, 77, 0
7, 67080, Note_on_c, 1, 77, 48
7, 67199, Note_on_c, 1, 77, 0
7, 67200, Note_on_c, 1, 76, 48
7, 67319, Note_on_c, 1, 76, 0
7, 67320, Note_on_c, 1, 84, 48
7, 67439, Note_on_c, 1, 84, 0
7, 67440, Note_on_c, 1, 82, 48
7, 67559, Note_on_c, 1, 82, 0
7, 67560, Note_on_c, 1, 79, 48
7, 67679, Note_on_c, 1, 79, 0
7, 67680, Note_on_c, 1, 81, 48
7, 67799, Note_on_c, 1, 81, 0
7, 67800, Note_on_c, 1, 77, 48
7, 67919, Note_on_c, 1, 77, 0
7, 67920, Note_on_c, 1, 76, 48
7, 68039, Note_on_c, 1, 76, 0
7, 68040, Note_on_c, 1, 77, 48
7, 68159, Note_on_c, 1, 77, 0
7, 68160, Note_on_c, 1, 78, 48
7, 68279, Note_on_c, 1, 78, 0
7, 68280, Note_on_c, 1, 79, 48
7, 68384, Note_on_c, 1, 79, 0
7, 68400, Note_on_c, 1, 76, 48
7, 68489, Note_on_c, 1, 76, 0
7, 68520, Note_on_c, 1, 72, 48
7, 68609, Note_on_c, 1, 72, 0
7, 73680, Control_c, 1, 11, 96
7, 73920, Note_on_c, 1, 72, 68
7, 73960, Control_c, 1, 11, 99
7, 74000, Control_c, 1, 11, 101
7, 74040, Control_c, 1, 11, 104
7, 74080, Control_c, 1, 11, 106
7, 74120, Control_c, 1, 11, 109
7, 74160, Control_c, 1, 11, 112
7, 74200, Control_c, 1, 11, 114
7, 74240, Control_c, 1, 11, 117
7, 74279, Note_on_c, 1, 72, 0
7, 74280, Note_on_c, 1, 73, 68
7, 74280, Control_c, 1, 11, 119
7, 74320, Control_c, 1, 11, 122
7, 74360, Control_c, 1, 11, 127
7, 74399, Note_on_c, 1, 73, 0
7, 74400, Control_c, 1, 11, 127
7, 74400, Note_on_c, 1, 74, 68
7, 74440, Control_c, 1, 11, 124
7, 74480, Control_c, 1, 11, 122
7, 74520, Control_c, 1, 11, 119
7, 74560, Control_c, 1, 11, 117
7, 74600, Control_c, 1, 11, 114
7, 74640, Control_c, 1, 11, 112
7, 74680, Control_c, 1, 11, 109
7, 74720, Control_c, 1, 11, 106
7, 74759, Note_on_c, 1, 74, 0
7, 74760, Control_c, 1, 11, 104
7, 74760, Note_on_c, 1, 72, 68
7, 74800, Control_c, 1, 11, 101
7, 74840, Control_c, 1, 11, 96
7, 74864, Note_on_c, 1, 72, 0
7, 74880, Note_on_c, 1, 70, 68
7, 75239, Note_on_c, 1, 70, 0
7, 76200, Note_on_c, 1, 73, 68
7, 76319, Note_on_c, 1, 73, 0
7, 76320, Note_on_c, 1, 74, 68
7, 76320, Control_c, 1, 11, 96
7, 76347, Control_c, 1, 11, 99
7, 76373, Control_c, 1, 11, 103
7, 76400, Control_c, 1, 11, 106
7, 76424, Note_on_c, 1, 74, 0
7, 76427, Control_c, 1, 11, 110
7, 76440, Note_on_c, 1, 74, 68
7, 76453, Control_c, 1, 11, 113
7, 76480, Control_c, 1, 11, 117
7, 76507, Control_c, 1, 11, 120
7, 76533, Control_c, 1, 11, 127
7, 76559, Note_on_c, 1, 74, 0
7, 76560, Control_c, 1, 11, 127
7, 76600, Control_c, 1, 11, 124
7, 76640, Control_c, 1, 11, 122
7, 76680, Control_c, 1, 11, 119
7, 76680, Note_on_c, 1, 72, 68
7, 76720, Control_c, 1, 11, 117
7, 76760, Control_c, 1, 11, 114
7, 76799, Note_on_c, 1, 72, 0
7, 76800, Control_c, 1, 11, 112
7, 76800, Note_on_c, 1, 70, 68
7, 76840, Control_c, 1, 11, 109
7, 76880, Control_c, 1, 11, 106
7, 76904, Note_on_c, 1, 70, 0
7, 76920, Note_on_c, 1, 70, 68
7, 76920, Control_c, 1, 11, 104
7, 76960, Control_c, 1, 11, 101
7, 77000, Control_c, 1, 11, 96
7, 77039, Note_on_c, 1, 70, 0
7, 78720, Control_c, 1, 11, 127
7, 79080, Note_on_c, 1, 72, 76
7, 79080, Note_on_c, 1, 84, 76
7, 79184, Note_on_c, 1, 72, 0
7, 79184, Note_on_c, 1, 84, 0
7, 79200, Note_on_c, 1, 84, 76
7, 79200, Note_on_c, 1, 72, 76
7, 79304, Note_on_c, 1, 84, 0
7, 79304, Note_on_c, 1, 72, 0
7, 79320, Note_on_c, 1, 84, 76
7, 79320, Note_on_c, 1, 72, 76
7, 79424, Note_on_c, 1, 84, 0
7, 79424, Note_on_c, 1, 72, 0
7, 79440, Note_on_c, 1, 84, 76
7, 79440, Note_on_c, 1, 72, 76
7, 79544, Note_on_c, 1, 84, 0
7, 79544, Note_on_c, 1, 72, 0
7, 79560, Note_on_c, 1, 72, 76
7, 79560, Note_on_c, 1, 84, 76
7, 79664, Note_on_c, 1, 72, 0
7, 79664, Note_on_c, 1, 84, 0
7, 79680, Note_on_c, 1, 77, 84
7, 79680, Note_on_c, 1, 80, 84
7, 80624, Note_on_c, 1, 77, 0
7, 80624, Note_on_c, 1, 80, 0
7, 80640, Note_on_c, 1, 83, 84
7, 80640, Note_on_c, 1, 74, 84
7, 80864, Note_on_c, 1, 83, 0
7, 80864, Note_on_c, 1, 74, 0
7, 80880, Note_on_c, 1, 83, 92
7, 80880, Note_on_c, 1, 74, 92
7, 81119, Note_on_c, 1, 83, 0
7, 81119, Note_on_c, 1, 74, 0
7, 81360, Note_on_c, 1, 74, 92
7, 81360, Note_on_c, 1, 83, 92
7, 81599, Note_on_c, 1, 74, 0
7, 81599, Note_on_c, 1, 83, 0
7, 81840, Note_on_c, 1, 83, 92
7, 81840, Note_on_c, 1, 74, 92
7, 82079, Note_on_c, 1, 83, 0
7, 82079, Note_on_c, 1, 74, 0
7, 82320, Note_on_c, 1, 83, 92
7, 82320, Note_on_c, 1, 74, 92
7, 82559, Note_on_c, 1, 83, 0
7, 82559, Note_on_c, 1, 74, 0
7, 84480, Note_on_c, 1, 74, 84
7, 84480, Note_on_c, 1, 83, 84
7, 84704, Note_on_c, 1, 74, 0
7, 84704, Note_on_c, 1, 83, 0
7, 84720, Note_on_c, 1, 83, 92
7, 84720, Note_on_c, 1, 74, 92
7, 84959, Note_on_c, 1, 83, 0
7, 84959, Note_on_c, 1, 74, 0
7, 85200, Note_on_c, 1, 83, 92
7, 85200, Note_on_c, 1, 74, 92
7, 85439, Note_on_c, 1, 83, 0
7, 85439, Note_on_c, 1, 74, 0
7, 85680, Note_on_c, 1, 83, 92
7, 85680, Note_on_c, 1, 74, 92
7, 85919, Note_on_c, 1, 83, 0
7, 85919, Note_on_c, 1, 74, 0
7, 86160, Note_on_c, 1, 74, 92
7, 86160, Note_on_c, 1, 83, 92
7, 86399, Note_on_c, 1, 74, 0
7, 86399, Note_on_c, 1, 83, 0
7, 89480, Control_c, 1, 11, 77
7, 89520, Note_on_c, 1, 81, 84
7, 89520, Control_c, 1, 11, 80
7, 89520, Note_on_c, 1, 77, 84
7, 89560, Control_c, 1, 11, 82
7, 89600, Control_c, 1, 11, 85
7, 89640, Control_c, 1, 11, 88
7, 89680, Control_c, 1, 11, 90
7, 89720, Control_c, 1, 11, 93
7, 89759, Note_on_c, 1, 81, 0
7, 89760, Control_c, 1, 11, 96
7, 89760, Note_on_c, 1, 79, 84
7, 89800, Control_c, 1, 11, 98
7, 89840, Control_c, 1, 11, 101
7, 89880, Control_c, 1, 11, 103
7, 89920, Control_c, 1, 11, 106
7, 89960, Control_c, 1, 11, 109
7, 89984, Note_on_c, 1, 77, 0
7, 90000, Control_c, 1, 11, 111
7, 90000, Note_on_c, 1, 76, 84
7, 90040, Control_c, 1, 11, 114
7, 90080, Control_c, 1, 11, 117
7, 90120, Control_c, 1, 11, 119
7, 90160, Control_c, 1, 11, 122
7, 90200, Control_c, 1, 11, 124
7, 90224, Note_on_c, 1, 79, 0
7, 90224, Note_on_c, 1, 76, 0
7, 90240, Note_on_c, 1, 77, 84
7, 90240, Note_on_c, 1, 81, 84
7, 90344, Note_on_c, 1, 77, 0
7, 90344, Note_on_c, 1, 81, 0
7, 90360, Note_on_c, 1, 77, 84
7, 90360, Note_on_c, 1, 81, 84
7, 90464, Note_on_c, 1, 77, 0
7, 90464, Note_on_c, 1, 81, 0
7, 90480, Note_on_c, 1, 77, 84
7, 90480, Note_on_c, 1, 81, 84
7, 90584, Note_on_c, 1, 77, 0
7, 90584, Note_on_c, 1, 81, 0
7, 90600, Note_on_c, 1, 77, 84
7, 90600, Note_on_c, 1, 81, 84
7, 90704, Note_on_c, 1, 77, 0
7, 90704, Note_on_c, 1, 81, 0
7, 90720, Note_on_c, 1, 77, 84
7, 90720, Note_on_c, 1, 79, 84
7, 90824, Note_on_c, 1, 77, 0
7, 90824, Note_on_c, 1, 79, 0
7, 90840, Note_on_c, 1, 77, 84
7, 90840, Note_on_c, 1, 79, 84
7, 90944, Note_on_c, 1, 77, 0
7, 90944, Note_on_c, 1, 79, 0
7, 90960, Note_on_c, 1, 79, 84
7, 90960, Note_on_c, 1, 76, 84
7, 91064, Note_on_c, 1, 79, 0
7, 91064, Note_on_c, 1, 76, 0
7, 91080, Note_on_c, 1, 70, 84
7, 91080, Note_on_c, 1, 79, 84
7, 91184, Note_on_c, 1, 70, 0
7, 91184, Note_on_c, 1, 79, 0
7, 91200, Note_on_c, 1, 77, 84
7, 91200, Note_on_c, 1, 69, 84
7, 91319, Note_on_c, 1, 77, 0
7, 91319, Note_on_c, 1, 69, 0
7, 92160, Note_on_c, 1, 77, 84
7, 92249, Note_on_c, 1, 77, 0
7, 92280, Note_on_c, 1, 77, 84
7, 92369, Note_on_c, 1, 77, 0
7, 92400, Note_on_c, 1, 74, 84
7, 92489, Note_on_c, 1, 74, 0
7, 92520, Note_on_c, 1, 79, 84
7, 92609, Note_on_c, 1, 79, 0
7, 92640, Note_on_c, 1, 72, 84
7, 92729, Note_on_c, 1, 72, 0
7, 92760, Note_on_c, 1, 77, 84
7, 92849, Note_on_c, 1, 77, 0
7, 92880, Note_on_c, 1, 70, 84
7, 92969, Note_on_c, 1, 70, 0
7, 93000, Note_on_c, 1, 76, 84
7, 93089, Note_on_c, 1, 76, 0
7, 93120, Note_on_c, 1, 77, 84
7, 93120, Note_on_c, 1, 69, 84
7, 93239, Note_on_c, 1, 77, 0
7, 93239, Note_on_c, 1, 69, 0
7, 94080, Note_on_c, 1, 77, 84
7, 94169, Note_on_c, 1, 77, 0
7, 94200, Note_on_c, 1, 77, 84
7, 94289, Note_on_c, 1, 77, 0
7, 94320, Note_on_c, 1, 74, 84
7, 94409, Note_on_c, 1, 74, 0
7, 94440, Note_on_c, 1, 79, 84
7, 94529, Note_on_c, 1, 79, 0
7, 94560, Note_on_c, 1, 72, 84
7, 94649, Note_on_c, 1, 72, 0
7, 94680, Note_on_c, 1, 77, 84
7, 94769, Note_on_c, 1, 77, 0
7, 94800, Note_on_c, 1, 70, 84
7, 94889, Note_on_c, 1, 70, 0
7, 94920, Note_on_c, 1, 76, 84
7, 95009, Note_on_c, 1, 76, 0
7, 95040, Note_on_c, 1, 69, 84
7, 95040, Note_on_c, 1, 77, 84
7, 95144, Note_on_c, 1, 69, 0
7, 95144, Note_on_c, 1, 77, 0
7, 95160, Note_on_c, 1, 81, 84
7, 95160, Note_on_c, 1, 77, 84
7, 95279, Note_on_c, 1, 81, 0
7, 95279, Note_on_c, 1, 77, 0
7, 95400, Note_on_c, 1, 77, 84
7, 95400, Note_on_c, 1, 81, 84
7, 95504, Note_on_c, 1, 77, 0
7, 95504, Note_on_c, 1, 81, 0
7, 95520, Note_on_c, 1, 81, 84
7, 95520, Note_on_c, 1, 77, 84
7, 95624, Note_on_c, 1, 81, 0
7, 95624, Note_on_c, 1, 77, 0
7, 95640, Note_on_c, 1, 81, 84
7, 95640, Note_on_c, 1, 77, 84
7, 95759, Note_on_c, 1, 81, 0
7, 95759, Note_on_c, 1, 77, 0
7, 95880, Note_on_c, 1, 81, 84
7, 95880, Note_on_c, 1, 77, 84
7, 95984, Note_on_c, 1, 81, 0
7, 95984, Note_on_c, 1, 77, 0
7, 96000, Note_on_c, 1, 81, 84
7, 96000, Note_on_c, 1, 77, 84
7, 96104, Note_on_c, 1, 81, 0
7, 96104, Note_on_c, 1, 77, 0
7, 96120, Note_on_c, 1, 81, 84
7, 96120, Note_on_c, 1, 77, 84
7, 96239, Note_on_c, 1, 81, 0
7, 96239, Note_on_c, 1, 77, 0
7, 96360, Note_on_c, 1, 77, 84
7, 96360, Note_on_c, 1, 81, 84
7, 96464, Note_on_c, 1, 77, 0
7, 96464, Note_on_c, 1, 81, 0
7, 96480, Note_on_c, 1, 81, 84
7, 96480, Note_on_c, 1, 77, 84
7, 96584, Note_on_c, 1, 81, 0
7, 96584, Note_on_c, 1, 77, 0
7, 96600, Note_on_c, 1, 77, 84
7, 96600, Note_on_c, 1, 81, 84
7, 96704, Note_on_c, 1, 77, 0
7, 96704, Note_on_c, 1, 81, 0
7, 96720, Note_on_c, 1, 81, 84
7, 96720, Note_on_c, 1, 77, 84
7, 96824, Note_on_c, 1, 81, 0
7, 96824, Note_on_c, 1, 77, 0
7, 96840, Note_on_c, 1, 81, 84
7, 96840, Note_on_c, 1, 77, 84
7, 96944, Note_on_c, 1, 81, 0
7, 96944, Note_on_c, 1, 77, 0
7, 96960, Note_on_c, 1, 81, 52
7, 96960, Note_on_c, 1, 77, 52
7, 97079, Note_on_c, 1, 81, 0
7, 97079, Note_on_c, 1, 77, 0
7, 105600, Note_on_c, 1, 71, 84
7, 105600, Note_on_c, 1, 83, 84
7, 106559, Note_on_c, 1, 71, 0
7, 106559, Note_on_c, 1, 83, 0
7, 110400, Note_on_c, 1, 74, 52
7, 110519, Note_on_c, 1, 74, 0
7, 110640, Note_on_c, 1, 74, 52
7, 110759, Note_on_c, 1, 74, 0
7, 110880, Note_on_c, 1, 74, 52
7, 111359, Note_on_c, 1, 74, 0
7, 114240, Note_on_c, 1, 74, 52
7, 114240, Note_on_c, 1, 70, 52
7, 114479, Note_on_c, 1, 74, 0
7, 114479, Note_on_c, 1, 70, 0
7, 114480, Note_on_c, 1, 79, 52
7, 114480, Note_on_c, 1, 75, 52
7, 114719, Note_on_c, 1, 79, 0
7, 114719, Note_on_c, 1, 75, 0
7, 114720, Note_on_c, 1, 77, 52
7, 114720, Note_on_c, 1, 74, 52
7, 114839, Note_on_c, 1, 77, 0
7, 114839, Note_on_c, 1, 74, 0
7, 116160, Note_on_c, 1, 70, 52
7, 116399, Note_on_c, 1, 70, 0
7, 116400, Note_on_c, 1, 79, 52
7, 116639, Note_on_c, 1, 79, 0
7, 116640, Note_on_c, 1, 77, 52
7, 116759, Note_on_c, 1, 77, 0
7, 117120, Note_on_c, 1, 74, 52
7, 117120, Note_on_c, 1, 77, 52
7, 117359, Note_on_c, 1, 74, 0
7, 117359, Note_on_c, 1, 77, 0
7, 117360, Note_on_c, 1, 82, 52
7, 117360, Note_on_c, 1, 79, 52
7, 117599, Note_on_c, 1, 82, 0
7, 117599, Note_on_c, 1, 79, 0
7, 117600, Note_on_c, 1, 81, 52
7, 117600, Note_on_c, 1, 77, 52
7, 117719, Note_on_c, 1, 81, 0
7, 117719, Note_on_c, 1, 77, 0
7, 118560, Note_on_c, 1, 74, 52
7, 118799, Note_on_c, 1, 74, 0
7, 118800, Note_on_c, 1, 82, 52
7, 119039, Note_on_c, 1, 82, 0
7, 119040, Note_on_c, 1, 81, 52
7, 119159, Note_on_c, 1, 81, 0
7, 119520, Note_on_c, 1, 74, 52
7, 119759, Note_on_c, 1, 74, 0
7, 119760, Note_on_c, 1, 82, 52
7, 119760, Note_on_c, 1, 79, 52
7, 119999, Note_on_c, 1, 82, 0
7, 119999, Note_on_c, 1, 79, 0
7, 120000, Note_on_c, 1, 77, 52
7, 120000, Note_on_c, 1, 81, 52
7, 120239, Note_on_c, 1, 77, 0
7, 120239, Note_on_c, 1, 81, 0
7, 120240, Note_on_c, 1, 79, 52
7, 120240, Note_on_c, 1, 82, 52
7, 120479, Note_on_c, 1, 79, 0
7, 120479, Note_on_c, 1, 82, 0
7, 120480, Note_on_c, 1, 81, 44
7, 120480, Note_on_c, 1, 77, 44
7, 120599, Note_on_c, 1, 77, 0
7, 122384, Note_on_c, 1, 81, 0
7, 122400, Note_on_c, 1, 79, 44
7, 124304, Note_on_c, 1, 79, 0
7, 124318, Control_c, 1, 11, 48
7, 124320, Control_c, 1, 11, 48
7, 124320, Note_on_c, 1, 75, 84
7, 124320, Note_on_c, 1, 79, 84
7, 124373, Control_c, 1, 11, 50
7, 124427, Control_c, 1, 11, 52
7, 124480, Control_c, 1, 11, 55
7, 124533, Control_c, 1, 11, 57
7, 124587, Control_c, 1, 11, 59
7, 124640, Control_c, 1, 11, 61
7, 124693, Control_c, 1, 11, 63
7, 124747, Control_c, 1, 11, 66
7, 124800, Control_c, 1, 11, 68
7, 124853, Control_c, 1, 11, 70
7, 124907, Control_c, 1, 11, 72
7, 124960, Control_c, 1, 11, 74
7, 125013, Control_c, 1, 11, 77
7, 125067, Control_c, 1, 11, 79
7, 125120, Control_c, 1, 11, 81
7, 125173, Control_c, 1, 11, 83
7, 125227, Control_c, 1, 11, 85
7, 125280, Control_c, 1, 11, 88
7, 125333, Control_c, 1, 11, 90
7, 125387, Control_c, 1, 11, 92
7, 125440, Control_c, 1, 11, 94
7, 125493, Control_c, 1, 11, 96
7, 125547, Control_c, 1, 11, 98
7, 125600, Control_c, 1, 11, 101
7, 125653, Control_c, 1, 11, 103
7, 125707, Control_c, 1, 11, 105
7, 125760, Control_c, 1, 11, 107
7, 125813, Control_c, 1, 11, 109
7, 125867, Control_c, 1, 11, 112
7, 125920, Control_c, 1, 11, 114
7, 125973, Control_c, 1, 11, 116
7, 126027, Control_c, 1, 11, 118
7, 126080, Control_c, 1, 11, 120
7, 126133, Control_c, 1, 11, 123
7, 126187, Control_c, 1, 11, 127
7, 126224, Note_on_c, 1, 75, 0
7, 126224, Note_on_c, 1, 79, 0
7, 126240, Note_on_c, 1, 75, 84
7, 126240, Note_on_c, 1, 84, 84
7, 126344, Note_on_c, 1, 75, 0
7, 126344, Note_on_c, 1, 84, 0
7, 126360, Note_on_c, 1, 84, 84
7, 126360, Note_on_c, 1, 75, 84
7, 126479, Note_on_c, 1, 84, 0
7, 126479, Note_on_c, 1, 75, 0
7, 126600, Note_on_c, 1, 75, 84
7, 126600, Note_on_c, 1, 84, 84
7, 126704, Note_on_c, 1, 75, 0
7, 126704, Note_on_c, 1, 84, 0
7, 126720, Note_on_c, 1, 84, 84
7, 126720, Note_on_c, 1, 75, 84
7, 126824, Note_on_c, 1, 84, 0
7, 126824, Note_on_c, 1, 75, 0
7, 126840, Note_on_c, 1, 75, 84
7, 126840, Note_on_c, 1, 84, 84
7, 126959, Note_on_c, 1, 75, 0
7, 126959, Note_on_c, 1, 84, 0
7, 127080, Note_on_c, 1, 75, 84
7, 127080, Note_on_c, 1, 84, 84
7, 127184, Note_on_c, 1, 75, 0
7, 127184, Note_on_c, 1, 84, 0
7, 127200, Note_on_c, 1, 84, 84
7, 127200, Note_on_c, 1, 75, 84
7, 127304, Note_on_c, 1, 84, 0
7, 127304, Note_on_c, 1, 75, 0
7, 127320, Note_on_c, 1, 75, 84
7, 127320, Note_on_c, 1, 84, 84
7, 127439, Note_on_c, 1, 75, 0
7, 127439, Note_on_c, 1, 84, 0
7, 127560, Note_on_c, 1, 84, 84
7, 127560, Note_on_c, 1, 75, 84
7, 127664, Note_on_c, 1, 84, 0
7, 127664, Note_on_c, 1, 75, 0
7, 127680, Note_on_c, 1, 75, 84
7, 127680, Note_on_c, 1, 84, 84
7, 127784, Note_on_c, 1, 75, 0
7, 127784, Note_on_c, 1, 84, 0
7, 127800, Note_on_c, 1, 84, 84
7, 127800, Note_on_c, 1, 75, 84
7, 127919, Note_on_c, 1, 84, 0
7, 127919, Note_on_c, 1, 75, 0
7, 128040, Note_on_c, 1, 84, 84
7, 128040, Note_on_c, 1, 75, 84
7, 128144, Note_on_c, 1, 84, 0
7, 128144, Note_on_c, 1, 75, 0
7, 128160, Note_on_c, 1, 84, 84
7, 128160, Note_on_c, 1, 75, 84
7, 128279, Note_on_c, 1, 84, 0
7, 128279, Note_on_c, 1, 75, 0
7, 128400, Note_on_c, 1, 84, 84
7, 128400, Note_on_c, 1, 75, 84
7, 128519, Note_on_c, 1, 84, 0
7, 128519, Note_on_c, 1, 75, 0
7, 128640, Note_on_c, 1, 75, 84
7, 128640, Note_on_c, 1, 84, 84
7, 128759, Note_on_c, 1, 75, 0
7, 128759, Note_on_c, 1, 84, 0
7, 128880, Note_on_c, 1, 75, 84
7, 128880, Note_on_c, 1, 84, 84
7, 128999, Note_on_c, 1, 75, 0
7, 128999, Note_on_c, 1, 84, 0
7, 129120, Note_on_c, 1, 75, 84
7, 129120, Note_on_c, 1, 84, 84
7, 129239, Note_on_c, 1, 75, 0
7, 129239, Note_on_c, 1, 84, 0
7, 129360, Note_on_c, 1, 75, 84
7, 129360, Note_on_c, 1, 84, 84
7, 129479, Note_on_c, 1, 75, 0
7, 129479, Note_on_c, 1, 84, 0
7, 129600, Note_on_c, 1, 75, 84
7, 129600, Note_on_c, 1, 84, 84
7, 129719, Note_on_c, 1, 75, 0
7, 129719, Note_on_c, 1, 84, 0
7, 129840, Note_on_c, 1, 75, 84
7, 129840, Note_on_c, 1, 84, 84
7, 129959, Note_on_c, 1, 75, 0
7, 129959, Note_on_c, 1, 84, 0
7, 130080, Note_on_c, 1, 75, 92
7, 130080, Note_on_c, 1, 84, 92
7, 130529, Note_on_c, 1, 75, 0
7, 130529, Note_on_c, 1, 84, 0
7, 130560, Note_on_c, 1, 84, 92
7, 130560, Note_on_c, 1, 75, 92
7, 131009, Note_on_c, 1, 84, 0
7, 131009, Note_on_c, 1, 75, 0
7, 131040, Note_on_c, 1, 84, 92
7, 131040, Note_on_c, 1, 75, 92
7, 131489, Note_on_c, 1, 84, 0
7, 131489, Note_on_c, 1, 75, 0
7, 131520, Note_on_c, 1, 75, 92
7, 131520, Note_on_c, 1, 84, 92
7, 131969, Note_on_c, 1, 75, 0
7, 131969, Note_on_c, 1, 84, 0
7, 132000, Note_on_c, 1, 84, 84
7, 132000, Note_on_c, 1, 75, 84
7, 132119, Note_on_c, 1, 84, 0
7, 132119, Note_on_c, 1, 75, 0
7, 132240, Note_on_c, 1, 75, 84
7, 132240, Note_on_c, 1, 84, 84
7, 132359, Note_on_c, 1, 75, 0
7, 132359, Note_on_c, 1, 84, 0
7, 132480, Note_on_c, 1, 84, 84
7, 132480, Note_on_c, 1, 75, 84
7, 132599, Note_on_c, 1, 84, 0
7, 132599, Note_on_c, 1, 75, 0
7, 132720, Note_on_c, 1, 84, 84
7, 132720, Note_on_c, 1, 75, 84
7, 132839, Note_on_c, 1, 84, 0
7, 132839, Note_on_c, 1, 75, 0
7, 132960, Note_on_c, 1, 84, 84
7, 132960, Note_on_c, 1, 75, 84
7, 133079, Note_on_c, 1, 84, 0
7, 133079, Note_on_c, 1, 75, 0
7, 133200, Note_on_c, 1, 84, 84
7, 133200, Note_on_c, 1, 75, 84
7, 133319, Note_on_c, 1, 84, 0
7, 133319, Note_on_c, 1, 75, 0
7, 133440, Note_on_c, 1, 75, 84
7, 133440, Note_on_c, 1, 84, 84
7, 133559, Note_on_c, 1, 75, 0
7, 133559, Note_on_c, 1, 84, 0
7, 133680, Note_on_c, 1, 75, 84
7, 133680, Note_on_c, 1, 84, 84
7, 133799, Note_on_c, 1, 75, 0
7, 133799, Note_on_c, 1, 84, 0
7, 133920, Note_on_c, 1, 84, 92
7, 133920, Note_on_c, 1, 75, 92
7, 134369, Note_on_c, 1, 84, 0
7, 134369, Note_on_c, 1, 75, 0
7, 134400, Note_on_c, 1, 84, 92
7, 134400, Note_on_c, 1, 75, 92
7, 134849, Note_on_c, 1, 84, 0
7, 134849, Note_on_c, 1, 75, 0
7, 134880, Note_on_c, 1, 84, 92
7, 134880, Note_on_c, 1, 75, 92
7, 135329, Note_on_c, 1, 84, 0
7, 135329, Note_on_c, 1, 75, 0
7, 135360, Note_on_c, 1, 75, 92
7, 135360, Note_on_c, 1, 84, 92
7, 135809, Note_on_c, 1, 75, 0
7, 135809, Note_on_c, 1, 84, 0
7, 135840, Note_on_c, 1, 84, 84
7, 135840, Note_on_c, 1, 75, 84
7, 135959, Note_on_c, 1, 84, 0
7, 135959, Note_on_c, 1, 75, 0
7, 139680, Note_on_c, 1, 74, 76
7, 139680, Note_on_c, 1, 70, 76
7, 139799, Note_on_c, 1, 74, 0
7, 139799, Note_on_c, 1, 70, 0
7, 139920, Note_on_c, 1, 74, 76
7, 139920, Note_on_c, 1, 70, 76
7, 140039, Note_on_c, 1, 74, 0
7, 140039, Note_on_c, 1, 70, 0
7, 140160, Note_on_c, 1, 70, 76
7, 140160, Note_on_c, 1, 72, 76
7, 140279, Note_on_c, 1, 70, 0
7, 140279, Note_on_c, 1, 72, 0
7, 140880, Note_on_c, 1, 81, 76
7, 140880, Note_on_c, 1, 72, 76
7, 140999, Note_on_c, 1, 81, 0
7, 140999, Note_on_c, 1, 72, 0
7, 141120, Note_on_c, 1, 82, 76
7, 141120, Note_on_c, 1, 74, 76
7, 141239, Note_on_c, 1, 82, 0
7, 141239, Note_on_c, 1, 74, 0
7, 141360, Note_on_c, 1, 72, 76
7, 141360, Note_on_c, 1, 81, 76
7, 141479, Note_on_c, 1, 72, 0
7, 141479, Note_on_c, 1, 81, 0
7, 141600, Note_on_c, 1, 82, 76
7, 141600, Note_on_c, 1, 74, 76
7, 141839, Note_on_c, 1, 82, 0
7, 141839, Note_on_c, 1, 74, 0
7, 142080, Note_on_c, 1, 74, 76
7, 142080, Note_on_c, 1, 82, 76
7, 142319, Note_on_c, 1, 74, 0
7, 142319, Note_on_c, 1, 82, 0
7, 142560, Note_on_c, 1, 81, 76
7, 142560, Note_on_c, 1, 72, 76
7, 142799, Note_on_c, 1, 81, 0
7, 142799, Note_on_c, 1, 72, 0
7, 143040, Note_on_c, 1, 72, 76
7, 143040, Note_on_c, 1, 81, 76
7, 143279, Note_on_c, 1, 72, 0
7, 143279, Note_on_c, 1, 81, 0
7, 143520, Note_on_c, 1, 74, 76
7, 143520, Note_on_c, 1, 82, 76
7, 143759, Note_on_c, 1, 74, 0
7, 143759, Note_on_c, 1, 82, 0
7, 144000, Note_on_c, 1, 82, 76
7, 144000, Note_on_c, 1, 74, 76
7, 144239, Note_on_c, 1, 82, 0
7, 144239, Note_on_c, 1, 74, 0
7, 144480, Note_on_c, 1, 80, 76
7, 144480, Note_on_c, 1, 77, 76
7, 144719, Note_on_c, 1, 80, 0
7, 144719, Note_on_c, 1, 77, 0
7, 144960, Note_on_c, 1, 80, 76
7, 144960, Note_on_c, 1, 77, 76
7, 145199, Note_on_c, 1, 80, 0
7, 145199, Note_on_c, 1, 77, 0
7, 145440, Note_on_c, 1, 79, 76
7, 145440, Note_on_c, 1, 75, 76
7, 145679, Note_on_c, 1, 79, 0
7, 145679, Note_on_c, 1, 75, 0
7, 145920, Note_on_c, 1, 79, 76
7, 145920, Note_on_c, 1, 75, 76
7, 146159, Note_on_c, 1, 79, 0
7, 146159, Note_on_c, 1, 75, 0
7, 146400, Note_on_c, 1, 80, 76
7, 146400, Note_on_c, 1, 77, 76
7, 146639, Note_on_c, 1, 80, 0
7, 146639, Note_on_c, 1, 77, 0
7, 146880, Note_on_c, 1, 80, 76
7, 146880, Note_on_c, 1, 77, 76
7, 147119, Note_on_c, 1, 80, 0
7, 147119, Note_on_c, 1, 77, 0
7, 149280, Note_on_c, 1, 81, 76
7, 149384, Note_on_c, 1, 81, 0
7, 149400, Note_on_c, 1, 84, 76
7, 149504, Note_on_c, 1, 84, 0
7, 149520, Note_on_c, 1, 75, 76
7, 149624, Note_on_c, 1, 75, 0
7, 149640, Note_on_c, 1, 81, 76
7, 149744, Note_on_c, 1, 81, 0
7, 149760, Note_on_c, 1, 72, 76
7, 149864, Note_on_c, 1, 72, 0
7, 149880, Note_on_c, 1, 75, 76
7, 149984, Note_on_c, 1, 75, 0
7, 150000, Note_on_c, 1, 69, 76
7, 150104, Note_on_c, 1, 69, 0
7, 150120, Note_on_c, 1, 72, 76
7, 150224, Note_on_c, 1, 72, 0
7, 150240, Note_on_c, 1, 81, 84
7, 150240, Note_on_c, 1, 72, 84
7, 150719, Note_on_c, 1, 81, 0
7, 150719, Note_on_c, 1, 72, 0
7, 150720, Note_on_c, 1, 81, 84
7, 150720, Note_on_c, 1, 72, 84
7, 150824, Note_on_c, 1, 81, 0
7, 150824, Note_on_c, 1, 72, 0
7, 150840, Note_on_c, 1, 72, 84
7, 150840, Note_on_c, 1, 81, 84
7, 150944, Note_on_c, 1, 72, 0
7, 150944, Note_on_c, 1, 81, 0
7, 150960, Note_on_c, 1, 72, 84
7, 150960, Note_on_c, 1, 81, 84
7, 151064, Note_on_c, 1, 72, 0
7, 151064, Note_on_c, 1, 81, 0
7, 151080, Note_on_c, 1, 72, 84
7, 151080, Note_on_c, 1, 81, 84
7, 151184, Note_on_c, 1, 72, 0
7, 151184, Note_on_c, 1, 81, 0
7, 151200, Note_on_c, 1, 81, 84
7, 151200, Note_on_c, 1, 72, 84
7, 151304, Note_on_c, 1, 81, 0
7, 151304, Note_on_c, 1, 72, 0
7, 151320, Note_on_c, 1, 84, 84
7, 151320, Note_on_c, 1, 81, 84
7, 151424, Note_on_c, 1, 84, 0
7, 151424, Note_on_c, 1, 81, 0
7, 151440, Note_on_c, 1, 81, 84
7, 151440, Note_on_c, 1, 84, 84
7, 151544, Note_on_c, 1, 81, 0
7, 151544, Note_on_c, 1, 84, 0
7, 151560, Note_on_c, 1, 84, 84
7, 151560, Note_on_c, 1, 81, 84
7, 151664, Note_on_c, 1, 84, 0
7, 151664, Note_on_c, 1, 81, 0
7, 151680, Note_on_c, 1, 84, 84
7, 151680, Note_on_c, 1, 81, 84
7, 151799, Note_on_c, 1, 84, 0
7, 151799, Note_on_c, 1, 81, 0
7, 154080, Note_on_c, 1, 84, 52
7, 154439, Note_on_c, 1, 84, 0
7, 154440, Note_on_c, 1, 82, 52
7, 154544, Note_on_c, 1, 82, 0
7, 154560, Note_on_c, 1, 81, 52
7, 154679, Note_on_c, 1, 81, 0
7, 154680, Note_on_c, 1, 84, 52
7, 154784, Note_on_c, 1, 84, 0
7, 154800, Note_on_c, 1, 77, 52
7, 154919, Note_on_c, 1, 77, 0
7, 154920, Note_on_c, 1, 81, 52
7, 155024, Note_on_c, 1, 81, 0
7, 155040, Note_on_c, 1, 72, 52
7, 155159, Note_on_c, 1, 72, 0
7, 155160, Note_on_c, 1, 77, 52
7, 155264, Note_on_c, 1, 77, 0
7, 155280, Note_on_c, 1, 76, 52
7, 155399, Note_on_c, 1, 76, 0
7, 155400, Note_on_c, 1, 79, 52
7, 155504, Note_on_c, 1, 79, 0
7, 155520, Note_on_c, 1, 77, 52
7, 155639, Note_on_c, 1, 77, 0
7, 159120, Control_c, 1, 11, 96
7, 159360, Note_on_c, 1, 77, 68
7, 159719, Note_on_c, 1, 77, 0
7, 159720, Note_on_c, 1, 78, 68
7, 159720, Note_on_c, 1, 74, 68
7, 159839, Note_on_c, 1, 78, 0
7, 159839, Note_on_c, 1, 74, 0
7, 159840, Control_c, 1, 11, 96
7, 159840, Note_on_c, 1, 79, 68
7, 159840, Note_on_c, 1, 75, 68
7, 159867, Control_c, 1, 11, 99
7, 159893, Control_c, 1, 11, 103
7, 159920, Control_c, 1, 11, 106
7, 159947, Control_c, 1, 11, 110
7, 159973, Control_c, 1, 11, 113
7, 160000, Control_c, 1, 11, 117
7, 160027, Control_c, 1, 11, 120
7, 160053, Control_c, 1, 11, 127
7, 160080, Control_c, 1, 11, 127
7, 160107, Control_c, 1, 11, 124
7, 160133, Control_c, 1, 11, 120
7, 160160, Control_c, 1, 11, 117
7, 160187, Control_c, 1, 11, 113
7, 160199, Note_on_c, 1, 79, 0
7, 160199, Note_on_c, 1, 75, 0
7, 160200, Note_on_c, 1, 77, 68
7, 160200, Note_on_c, 1, 74, 68
7, 160213, Control_c, 1, 11, 110
7, 160240, Control_c, 1, 11, 106
7, 160267, Control_c, 1, 11, 103
7, 160293, Control_c, 1, 11, 96
7, 160304, Note_on_c, 1, 77, 0
7, 160304, Note_on_c, 1, 74, 0
7, 160320, Note_on_c, 1, 72, 68
7, 160320, Note_on_c, 1, 75, 68
7, 160559, Note_on_c, 1, 72, 0
7, 160559, Note_on_c, 1, 75, 0
7, 161640, Note_on_c, 1, 78, 68
7, 161640, Note_on_c, 1, 74, 68
7, 161759, Note_on_c, 1, 78, 0
7, 161759, Note_on_c, 1, 74, 0
7, 161760, Note_on_c, 1, 75, 68
7, 161760, Note_on_c, 1, 79, 68
7, 161760, Control_c, 1, 11, 96
7, 161787, Control_c, 1, 11, 99
7, 161813, Control_c, 1, 11, 103
7, 161840, Control_c, 1, 11, 106
7, 161864, Note_on_c, 1, 75, 0
7, 161864, Note_on_c, 1, 79, 0
7, 161867, Control_c, 1, 11, 110
7, 161880, Note_on_c, 1, 79, 68
7, 161880, Note_on_c, 1, 75, 68
7, 161893, Control_c, 1, 11, 113
7, 161920, Control_c, 1, 11, 117
7, 161947, Control_c, 1, 11, 120
7, 161973, Control_c, 1, 11, 127
7, 161999, Note_on_c, 1, 79, 0
7, 161999, Note_on_c, 1, 75, 0
7, 162000, Control_c, 1, 11, 127
7, 162027, Control_c, 1, 11, 124
7, 162053, Control_c, 1, 11, 120
7, 162080, Control_c, 1, 11, 117
7, 162107, Control_c, 1, 11, 113
7, 162120, Note_on_c, 1, 74, 68
7, 162120, Note_on_c, 1, 77, 68
7, 162133, Control_c, 1, 11, 110
7, 162160, Control_c, 1, 11, 106
7, 162187, Control_c, 1, 11, 103
7, 162213, Control_c, 1, 11, 96
7, 162239, Note_on_c, 1, 74, 0
7, 162239, Note_on_c, 1, 77, 0
7, 162240, Note_on_c, 1, 75, 68
7, 162240, Note_on_c, 1, 72, 68
7, 162344, Note_on_c, 1, 75, 0
7, 162344, Note_on_c, 1, 72, 0
7, 162360, Note_on_c, 1, 75, 68
7, 162360, Note_on_c, 1, 72, 68
7, 162479, Note_on_c, 1, 75, 0
7, 162479, Note_on_c, 1, 72, 0
7, 162585, Control_c, 1, 11, 127
7, 162600, Note_on_c, 1, 74, 76
7, 162704, Note_on_c, 1, 74, 0
7, 162720, Note_on_c, 1, 72, 76
7, 162839, Note_on_c, 1, 72, 0
7, 162840, Note_on_c, 1, 70, 76
7, 162944, Note_on_c, 1, 70, 0
7, 162960, Note_on_c, 1, 72, 76
7, 163049, Note_on_c, 1, 72, 0
7, 163080, Note_on_c, 1, 74, 76
7, 163169, Note_on_c, 1, 74, 0
7, 163200, Note_on_c, 1, 75, 76
7, 163289, Note_on_c, 1, 75, 0
7, 163320, Note_on_c, 1, 75, 76
7, 163409, Note_on_c, 1, 75, 0
7, 163560, Note_on_c, 1, 74, 76
7, 163664, Note_on_c, 1, 74, 0
7, 163680, Note_on_c, 1, 72, 76
7, 163799, Note_on_c, 1, 72, 0
7, 163800, Note_on_c, 1, 70, 76
7, 163904, Note_on_c, 1, 70, 0
7, 163920, Note_on_c, 1, 72, 76
7, 164009, Note_on_c, 1, 72, 0
7, 164040, Note_on_c, 1, 74, 76
7, 164129, Note_on_c, 1, 74, 0
7, 164160, Note_on_c, 1, 75, 76
7, 164264, Note_on_c, 1, 75, 0
7, 164280, Note_on_c, 1, 75, 76
7, 164399, Note_on_c, 1, 75, 0
7, 164520, Note_on_c, 1, 77, 76
7, 164624, Note_on_c, 1, 77, 0
7, 164640, Note_on_c, 1, 79, 76
7, 164640, Note_on_c, 1, 67, 76
7, 164744, Note_on_c, 1, 79, 0
7, 164744, Note_on_c, 1, 67, 0
7, 164760, Note_on_c, 1, 65, 76
7, 164760, Note_on_c, 1, 77, 76
7, 164864, Note_on_c, 1, 65, 0
7, 164864, Note_on_c, 1, 77, 0
7, 164880, Note_on_c, 1, 67, 76
7, 164880, Note_on_c, 1, 79, 76
7, 164984, Note_on_c, 1, 67, 0
7, 164984, Note_on_c, 1, 79, 0
7, 165000, Note_on_c, 1, 69, 76
7, 165000, Note_on_c, 1, 81, 76
7, 165104, Note_on_c, 1, 69, 0
7, 165104, Note_on_c, 1, 81, 0
7, 165120, Note_on_c, 1, 82, 84
7, 165120, Note_on_c, 1, 70, 84
7, 166079, Note_on_c, 1, 82, 0
7, 166079, Note_on_c, 1, 70, 0
7, 166080, Note_on_c, 1, 79, 84
7, 166080, Note_on_c, 1, 76, 84
7, 166319, Note_on_c, 1, 79, 0
7, 166319, Note_on_c, 1, 76, 0
7, 166320, Note_on_c, 1, 76, 92
7, 166320, Note_on_c, 1, 79, 92
7, 166559, Note_on_c, 1, 76, 0
7, 166559, Note_on_c, 1, 79, 0
7, 166800, Note_on_c, 1, 79, 84
7, 166800, Note_on_c, 1, 76, 84
7, 167039, Note_on_c, 1, 79, 0
7, 167039, Note_on_c, 1, 76, 0
7, 167280, Note_on_c, 1, 79, 84
7, 167280, Note_on_c, 1, 76, 84
7, 167519, Note_on_c, 1, 79, 0
7, 167519, Note_on_c, 1, 76, 0
7, 167760, Note_on_c, 1, 76, 84
7, 167760, Note_on_c, 1, 79, 84
7, 167999, Note_on_c, 1, 76, 0
7, 167999, Note_on_c, 1, 79, 0
7, 169920, Note_on_c, 1, 79, 84
7, 169920, Note_on_c, 1, 76, 84
7, 170159, Note_on_c, 1, 79, 0
7, 170159, Note_on_c, 1, 76, 0
7, 170160, Note_on_c, 1, 76, 92
7, 170160, Note_on_c, 1, 79, 92
7, 170399, Note_on_c, 1, 76, 0
7, 170399, Note_on_c, 1, 79, 0
7, 170640, Note_on_c, 1, 76, 84
7, 170640, Note_on_c, 1, 79, 84
7, 170879, Note_on_c, 1, 76, 0
7, 170879, Note_on_c, 1, 79, 0
7, 171120, Note_on_c, 1, 76, 84
7, 171120, Note_on_c, 1, 79, 84
7, 171359, Note_on_c, 1, 76, 0
7, 171359, Note_on_c, 1, 79, 0
7, 171600, Note_on_c, 1, 76, 84
7, 171600, Note_on_c, 1, 79, 84
7, 171839, Note_on_c, 1, 76, 0
7, 171839, Note_on_c, 1, 79, 0
7, 172440, Note_on_c, 1, 80, 52
7, 172499, Note_on_c, 1, 80, 0
7, 172500, Note_on_c, 1, 79, 52
7, 172559, Note_on_c, 1, 79, 0
7, 172680, Note_on_c, 1, 77, 52
7, 172739, Note_on_c, 1, 77, 0
7, 172740, Note_on_c, 1, 75, 52
7, 172799, Note_on_c, 1, 75, 0
7, 175800, Note_on_c, 1, 82, 84
7, 175800, Note_on_c, 1, 74, 84
7, 175904, Note_on_c, 1, 82, 0
7, 175904, Note_on_c, 1, 74, 0
7, 175920, Note_on_c, 1, 82, 84
7, 175920, Note_on_c, 1, 74, 84
7, 176024, Note_on_c, 1, 82, 0
7, 176024, Note_on_c, 1, 74, 0
7, 176040, Note_on_c, 1, 82, 84
7, 176040, Note_on_c, 1, 74, 84
7, 176144, Note_on_c, 1, 82, 0
7, 176144, Note_on_c, 1, 74, 0
7, 176160, Note_on_c, 1, 82, 84
7, 176160, Note_on_c, 1, 72, 84
7, 176264, Note_on_c, 1, 82, 0
7, 176264, Note_on_c, 1, 72, 0
7, 176280, Note_on_c, 1, 82, 84
7, 176280, Note_on_c, 1, 72, 84
7, 176384, Note_on_c, 1, 82, 0
7, 176384, Note_on_c, 1, 72, 0
7, 176400, Note_on_c, 1, 81, 84
7, 176400, Note_on_c, 1, 72, 84
7, 176504, Note_on_c, 1, 81, 0
7, 176504, Note_on_c, 1, 72, 0
7, 176520, Note_on_c, 1, 81, 84
7, 176520, Note_on_c, 1, 72, 84
7, 176624, Note_on_c, 1, 81, 0
7, 176624, Note_on_c, 1, 72, 0
7, 176640, Note_on_c, 1, 82, 84
7, 176640, Note_on_c, 1, 74, 84
7, 176759, Note_on_c, 1, 82, 0
7, 176759, Note_on_c, 1, 74, 0
7, 180480, Note_on_c, 1, 82, 84
7, 180480, Note_on_c, 1, 74, 84
7, 180584, Note_on_c, 1, 82, 0
7, 180584, Note_on_c, 1, 74, 0
7, 180600, Note_on_c, 1, 82, 84
7, 180600, Note_on_c, 1, 74, 84
7, 180719, Note_on_c, 1, 82, 0
7, 180719, Note_on_c, 1, 74, 0
7, 180840, Note_on_c, 1, 86, 84
7, 180840, Note_on_c, 1, 74, 84
7, 180944, Note_on_c, 1, 86, 0
7, 180944, Note_on_c, 1, 74, 0
7, 180960, Note_on_c, 1, 82, 84
7, 180960, Note_on_c, 1, 74, 84
7, 181064, Note_on_c, 1, 82, 0
7, 181064, Note_on_c, 1, 74, 0
7, 181080, Note_on_c, 1, 82, 84
7, 181080, Note_on_c, 1, 74, 84
7, 181199, Note_on_c, 1, 82, 0
7, 181199, Note_on_c, 1, 74, 0
7, 181320, Note_on_c, 1, 86, 84
7, 181320, Note_on_c, 1, 74, 84
7, 181424, Note_on_c, 1, 86, 0
7, 181424, Note_on_c, 1, 74, 0
7, 181440, Note_on_c, 1, 82, 84
7, 181440, Note_on_c, 1, 74, 84
7, 181544, Note_on_c, 1, 82, 0
7, 181544, Note_on_c, 1, 74, 0
7, 181560, Note_on_c, 1, 82, 84
7, 181560, Note_on_c, 1, 74, 84
7, 181679, Note_on_c, 1, 82, 0
7, 181679, Note_on_c, 1, 74, 0
7, 181800, Note_on_c, 1, 86, 84
7, 181800, Note_on_c, 1, 74, 84
7, 181904, Note_on_c, 1, 86, 0
7, 181904, Note_on_c, 1, 74, 0
7, 181920, Note_on_c, 1, 82, 84
7, 181920, Note_on_c, 1, 74, 84
7, 182024, Note_on_c, 1, 82, 0
7, 182024, Note_on_c, 1, 74, 0
7, 182040, Note_on_c, 1, 86, 84
7, 182040, Note_on_c, 1, 74, 84
7, 182144, Note_on_c, 1, 86, 0
7, 182144, Note_on_c, 1, 74, 0
7, 182160, Note_on_c, 1, 82, 84
7, 182160, Note_on_c, 1, 74, 84
7, 182264, Note_on_c, 1, 82, 0
7, 182264, Note_on_c, 1, 74, 0
7, 182280, Note_on_c, 1, 86, 84
7, 182280, Note_on_c, 1, 74, 84
7, 182384, Note_on_c, 1, 86, 0
7, 182384, Note_on_c, 1, 74, 0
7, 182400, Note_on_c, 1, 82, 52
7, 182400, Note_on_c, 1, 74, 52
7, 182519, Note_on_c, 1, 82, 0
7, 182519, Note_on_c, 1, 74, 0
7, 188400, Note_on_c, 1, 84, 76
7, 188400, Note_on_c, 1, 81, 76
7, 188639, Note_on_c, 1, 84, 0
7, 188639, Note_on_c, 1, 81, 0
7, 188880, Note_on_c, 1, 84, 84
7, 188880, Note_on_c, 1, 81, 84
7, 189119, Note_on_c, 1, 84, 0
7, 189119, Note_on_c, 1, 81, 0
7, 189360, Note_on_c, 1, 84, 84
7, 189360, Note_on_c, 1, 81, 84
7, 189599, Note_on_c, 1, 84, 0
7, 189599, Note_on_c, 1, 81, 0
7, 189840, Note_on_c, 1, 84, 84
7, 189840, Note_on_c, 1, 81, 84
7, 190079, Note_on_c, 1, 84, 0
7, 190079, Note_on_c, 1, 81, 0
7, 192000, Note_on_c, 1, 74, 44
7, 192000, Note_on_c, 1, 70, 44
7, 192119, Note_on_c, 1, 74, 0
7, 192119, Note_on_c, 1, 70, 0
7, 192240, Note_on_c, 1, 74, 44
7, 192240, Note_on_c, 1, 70, 44
7, 192359, Note_on_c, 1, 74, 0
7, 192359, Note_on_c, 1, 70, 0
7, 192480, Note_on_c, 1, 72, 44
7, 192480, Note_on_c, 1, 70, 44
7, 192599, Note_on_c, 1, 72, 0
7, 192599, Note_on_c, 1, 70, 0
7, 193200, Note_on_c, 1, 72, 44
7, 193200, Note_on_c, 1, 69, 44
7, 193319, Note_on_c, 1, 72, 0
7, 193319, Note_on_c, 1, 69, 0
7, 193440, Note_on_c, 1, 74, 44
7, 193440, Note_on_c, 1, 70, 44
7, 193559, Note_on_c, 1, 74, 0
7, 193559, Note_on_c, 1, 70, 0
7, 193680, Note_on_c, 1, 81, 44
7, 193680, Note_on_c, 1, 72, 44
7, 193799, Note_on_c, 1, 81, 0
7, 193799, Note_on_c, 1, 72, 0
7, 193920, Note_on_c, 1, 82, 84
7, 193920, Note_on_c, 1, 74, 84
7, 194384, Note_on_c, 1, 82, 0
7, 194384, Note_on_c, 1, 74, 0
7, 194400, Note_on_c, 1, 82, 84
7, 194400, Note_on_c, 1, 72, 84
7, 195104, Note_on_c, 1, 82, 0
7, 195104, Note_on_c, 1, 72, 0
7, 195120, Note_on_c, 1, 81, 84
7, 195120, Note_on_c, 1, 72, 84
7, 195344, Note_on_c, 1, 81, 0
7, 195344, Note_on_c, 1, 72, 0
7, 195360, Note_on_c, 1, 82, 84
7, 195360, Note_on_c, 1, 74, 84
7, 195584, Note_on_c, 1, 82, 0
7, 195584, Note_on_c, 1, 74, 0
7, 195600, Note_on_c, 1, 84, 84
7, 195600, Note_on_c, 1, 75, 84
7, 196064, Note_on_c, 1, 84, 0
7, 196064, Note_on_c, 1, 75, 0
7, 196080, Note_on_c, 1, 81, 84
7, 196080, Note_on_c, 1, 72, 84
7, 196304, Note_on_c, 1, 81, 0
7, 196304, Note_on_c, 1, 72, 0
7, 196320, Note_on_c, 1, 82, 84
7, 196320, Note_on_c, 1, 74, 84
7, 196544, Note_on_c, 1, 82, 0
7, 196544, Note_on_c, 1, 74, 0
7, 196560, Note_on_c, 1, 84, 84
7, 196560, Note_on_c, 1, 75, 84
7, 197024, Note_on_c, 1, 84, 0
7, 197024, Note_on_c, 1, 75, 0
7, 197040, Note_on_c, 1, 81, 84
7, 197040, Note_on_c, 1, 72, 84
7, 197264, Note_on_c, 1, 81, 0
7, 197264, Note_on_c, 1, 72, 0
7, 197280, Note_on_c, 1, 82, 84
7, 197280, Note_on_c, 1, 74, 84
7, 197504, Note_on_c, 1, 82, 0
7, 197504, Note_on_c, 1, 74, 0
7, 197520, Note_on_c, 1, 84, 84
7, 197520, Note_on_c, 1, 75, 84
7, 197984, Note_on_c, 1, 84, 0
7, 197984, Note_on_c, 1, 75, 0
7, 198000, Note_on_c, 1, 84, 84
7, 198000, Note_on_c, 1, 75, 84
7, 198224, Note_on_c, 1, 84, 0
7, 198224, Note_on_c, 1, 75, 0
7, 198240, Note_on_c, 1, 86, 84
7, 198240, Note_on_c, 1, 77, 84
7, 198464, Note_on_c, 1, 86, 0
7, 198464, Note_on_c, 1, 77, 0
7, 198480, Note_on_c, 1, 79, 84
7, 198480, Note_on_c, 1, 76, 84
7, 200624, Note_on_c, 1, 79, 0
7, 200624, Note_on_c, 1, 76, 0
7, 200640, Note_on_c, 1, 78, 92
7, 200640, Note_on_c, 1, 75, 92
7, 200760, Control_c, 1, 11, 112
7, 200795, Control_c, 1, 11, 109
7, 200830, Control_c, 1, 11, 107
7, 200865, Control_c, 1, 11, 104
7, 200900, Control_c, 1, 11, 101
7, 200935, Control_c, 1, 11, 99
7, 200970, Control_c, 1, 11, 96
7, 201005, Control_c, 1, 11, 93
7, 201040, Control_c, 1, 11, 91
7, 201075, Control_c, 1, 11, 88
7, 201110, Control_c, 1, 11, 85
7, 201145, Control_c, 1, 11, 83
7, 201180, Control_c, 1, 11, 80
7, 201215, Control_c, 1, 11, 77
7, 201250, Control_c, 1, 11, 75
7, 201285, Control_c, 1, 11, 72
7, 201320, Control_c, 1, 11, 69
7, 201355, Control_c, 1, 11, 67
7, 201390, Control_c, 1, 11, 64
7, 201425, Control_c, 1, 11, 61
7, 201460, Control_c, 1, 11, 59
7, 201495, Control_c, 1, 11, 56
7, 201530, Control_c, 1, 11, 53
7, 201565, Control_c, 1, 11, 48
7, 201599, Note_on_c, 1, 78, 0
7, 201600, Note_on_c, 1, 77, 92
7, 202079, Note_on_c, 1, 75, 0
7, 202079, Note_on_c, 1, 77, 0
7, 207840, Control_c, 1, 11, 127
7, 208200, Note_on_c, 1, 74, 44
7, 208200, Note_on_c, 1, 70, 44
7, 208319, Note_on_c, 1, 74, 0
7, 208319, Note_on_c, 1, 70, 0
7, 208320, Note_on_c, 1, 75, 44
7, 208320, Note_on_c, 1, 72, 44
7, 208439, Note_on_c, 1, 75, 0
7, 208439, Note_on_c, 1, 72, 0
7, 208440, Note_on_c, 1, 77, 44
7, 208440, Note_on_c, 1, 74, 44
7, 208559, Note_on_c, 1, 77, 0
7, 208559, Note_on_c, 1, 74, 0
7, 208560, Note_on_c, 1, 79, 44
7, 208560, Note_on_c, 1, 75, 44
7, 208679, Note_on_c, 1, 79, 0
7, 208679, Note_on_c, 1, 75, 0
7, 208680, Note_on_c, 1, 77, 44
7, 208680, Note_on_c, 1, 74, 44
7, 208799, Note_on_c, 1, 77, 0
7, 208799, Note_on_c, 1, 74, 0
7, 208800, Note_on_c, 1, 75, 44
7, 208800, Note_on_c, 1, 72, 44
7, 209039, Note_on_c, 1, 75, 0
7, 209039, Note_on_c, 1, 72, 0
7, 209145, Control_c, 1, 11, 48
7, 209160, Note_on_c, 1, 72, 84
7, 209160, Note_on_c, 1, 69, 84
7, 209279, Note_on_c, 1, 72, 0
7, 209279, Note_on_c, 1, 69, 0
7, 209280, Note_on_c, 1, 74, 84
7, 209280, Note_on_c, 1, 70, 84
7, 209399, Note_on_c, 1, 74, 0
7, 209399, Note_on_c, 1, 70, 0
7, 209400, Note_on_c, 1, 75, 84
7, 209400, Note_on_c, 1, 72, 84
7, 209519, Note_on_c, 1, 75, 0
7, 209519, Note_on_c, 1, 72, 0
7, 209520, Note_on_c, 1, 77, 84
7, 209520, Note_on_c, 1, 74, 84
7, 209639, Note_on_c, 1, 77, 0
7, 209639, Note_on_c, 1, 74, 0
7, 209640, Note_on_c, 1, 75, 84
7, 209640, Note_on_c, 1, 72, 84
7, 209744, Note_on_c, 1, 75, 0
7, 209744, Note_on_c, 1, 72, 0
7, 209760, Note_on_c, 1, 74, 84
7, 209760, Note_on_c, 1, 70, 84
7, 209760, Control_c, 1, 11, 48
7, 209813, Control_c, 1, 11, 50
7, 209867, Control_c, 1, 11, 52
7, 209920, Control_c, 1, 11, 55
7, 209973, Control_c, 1, 11, 57
7, 209999, Note_on_c, 1, 74, 0
7, 209999, Note_on_c, 1, 70, 0
7, 210000, Note_on_c, 1, 74, 84
7, 210000, Note_on_c, 1, 77, 84
7, 210027, Control_c, 1, 11, 59
7, 210080, Control_c, 1, 11, 61
7, 210133, Control_c, 1, 11, 63
7, 210187, Control_c, 1, 11, 66
7, 210239, Note_on_c, 1, 74, 0
7, 210239, Note_on_c, 1, 77, 0
7, 210240, Note_on_c, 1, 72, 84
7, 210240, Note_on_c, 1, 75, 84
7, 210240, Control_c, 1, 11, 68
7, 210293, Control_c, 1, 11, 70
7, 210347, Control_c, 1, 11, 72
7, 210400, Control_c, 1, 11, 74
7, 210453, Control_c, 1, 11, 77
7, 210479, Note_on_c, 1, 72, 0
7, 210479, Note_on_c, 1, 75, 0
7, 210480, Note_on_c, 1, 79, 84
7, 210480, Note_on_c, 1, 76, 84
7, 210507, Control_c, 1, 11, 79
7, 210560, Control_c, 1, 11, 81
7, 210613, Control_c, 1, 11, 83
7, 210667, Control_c, 1, 11, 85
7, 210719, Note_on_c, 1, 79, 0
7, 210719, Note_on_c, 1, 76, 0
7, 210720, Control_c, 1, 11, 88
7, 210720, Note_on_c, 1, 74, 84
7, 210720, Note_on_c, 1, 77, 84
7, 210773, Control_c, 1, 11, 90
7, 210827, Control_c, 1, 11, 92
7, 210880, Control_c, 1, 11, 94
7, 210933, Control_c, 1, 11, 96
7, 210959, Note_on_c, 1, 74, 0
7, 210959, Note_on_c, 1, 77, 0
7, 210960, Note_on_c, 1, 77, 84
7, 210960, Note_on_c, 1, 80, 84
7, 210987, Control_c, 1, 11, 98
7, 211040, Control_c, 1, 11, 101
7, 211093, Control_c, 1, 11, 103
7, 211147, Control_c, 1, 11, 105
7, 211199, Note_on_c, 1, 77, 0
7, 211199, Note_on_c, 1, 80, 0
7, 211200, Control_c, 1, 11, 107
7, 211200, Note_on_c, 1, 79, 84
7, 211200, Note_on_c, 1, 75, 84
7, 211253, Control_c, 1, 11, 109
7, 211307, Control_c, 1, 11, 112
7, 211360, Control_c, 1, 11, 114
7, 211413, Control_c, 1, 11, 116
7, 211424, Note_on_c, 1, 79, 0
7, 211424, Note_on_c, 1, 75, 0
7, 211440, Note_on_c, 1, 82, 84
7, 211440, Note_on_c, 1, 79, 84
7, 211467, Control_c, 1, 11, 118
7, 211520, Control_c, 1, 11, 120
7, 211573, Control_c, 1, 11, 123
7, 211627, Control_c, 1, 11, 127
7, 212624, Note_on_c, 1, 82, 0
7, 212624, Note_on_c, 1, 79, 0
7, 212640, Note_on_c, 1, 82, 84
7, 212640, Note_on_c, 1, 76, 84
7, 212759, Note_on_c, 1, 82, 0
7, 212759, Note_on_c, 1, 76, 0
7, 212880, Note_on_c, 1, 82, 84
7, 212880, Note_on_c, 1, 76, 84
7, 212999, Note_on_c, 1, 82, 0
7, 212999, Note_on_c, 1, 76, 0
7, 213600, Note_on_c, 1, 77, 84
7, 213719, Note_on_c, 1, 77, 0
7, 213840, Note_on_c, 1, 77, 84
7, 213959, Note_on_c, 1, 77, 0
7, 217680, Note_on_c, 1, 81, 84
7, 217680, Note_on_c, 1, 72, 84
7, 217799, Note_on_c, 1, 81, 0
7, 217799, Note_on_c, 1, 72, 0
7, 217920, Note_on_c, 1, 82, 84
7, 217920, Note_on_c, 1, 74, 84
7, 218039, Note_on_c, 1, 82, 0
7, 218039, Note_on_c, 1, 74, 0
7, 218160, Note_on_c, 1, 81, 84
7, 218160, Note_on_c, 1, 72, 84
7, 218279, Note_on_c, 1, 81, 0
7, 218279, Note_on_c, 1, 72, 0
7, 218400, Note_on_c, 1, 82, 84
7, 218400, Note_on_c, 1, 74, 84
7, 218519, Note_on_c, 1, 82, 0
7, 218519, Note_on_c, 1, 74, 0
7, 218880, Note_on_c, 1, 81, 84
7, 218880, Note_on_c, 1, 72, 84
7, 218999, Note_on_c, 1, 81, 0
7, 218999, Note_on_c, 1, 72, 0
7, 219360, Note_on_c, 1, 82, 84
7, 219360, Note_on_c, 1, 74, 84
7, 219479, Note_on_c, 1, 82, 0
7, 219479, Note_on_c, 1, 74, 0
7, 219479, End_track
8, 0, Start_track
8, 0, Title_t, "Clarinet in B-flat"
8, 0, MIDI_port, 0
8, 0, Program_c, 2, 71
8, 0, Control_c, 2, 7, 88
8, 0, Control_c, 2, 10, 75
8, 0, Control_c, 2, 11, 127
8, 1200, Note_on_c, 2, 60, 76
8, 1200, Note_on_c, 2, 69, 76
8, 1319, Note_on_c, 2, 60, 0
8, 1319, Note_on_c, 2, 69, 0
8, 1440, Note_on_c, 2, 70, 76
8, 1440, Note_on_c, 2, 62, 76
8, 1559, Note_on_c, 2, 70, 0
8, 1559, Note_on_c, 2, 62, 0
8, 1680, Note_on_c, 2, 72, 76
8, 1680, Note_on_c, 2, 69, 76
8, 1799, Note_on_c, 2, 72, 0
8, 1799, Note_on_c, 2, 69, 0
8, 6720, Note_on_c, 2, 65, 52
8, 6839, Note_on_c, 2, 65, 0
8, 6840, Note_on_c, 2, 70, 52
8, 6959, Note_on_c, 2, 70, 0
8, 6960, Note_on_c, 2, 74, 52
8, 7079, Note_on_c, 2, 74, 0
8, 7080, Note_on_c, 2, 77, 52
8, 7184, Note_on_c, 2, 77, 0
8, 7200, Note_on_c, 2, 75, 52
8, 7319, Note_on_c, 2, 75, 0
8, 7320, Note_on_c, 2, 74, 52
8, 7439, Note_on_c, 2, 74, 0
8, 7440, Note_on_c, 2, 75, 52
8, 7559, Note_on_c, 2, 75, 0
8, 7560, Note_on_c, 2, 72, 52
8, 7679, Note_on_c, 2, 72, 0
8, 7680, Note_on_c, 2, 70, 52
8, 7799, Note_on_c, 2, 70, 0
8, 7800, Note_on_c, 2, 74, 52
8, 7919, Note_on_c, 2, 74, 0
8, 7920, Note_on_c, 2, 70, 52
8, 8039, Note_on_c, 2, 70, 0
8, 8040, Note_on_c, 2, 67, 52
8, 8144, Note_on_c, 2, 67, 0
8, 8160, Note_on_c, 2, 65, 52
8, 8279, Note_on_c, 2, 65, 0
8, 8400, Note_on_c, 2, 65, 52
8, 8519, Note_on_c, 2, 65, 0
8, 8640, Note_on_c, 2, 65, 52
8, 9104, Note_on_c, 2, 65, 0
8, 9120, Note_on_c, 2, 65, 52
8, 9239, Note_on_c, 2, 65, 0
8, 9360, Note_on_c, 2, 65, 68
8, 9479, Note_on_c, 2, 65, 0
8, 9600, Note_on_c, 2, 70, 84
8, 11144, Note_on_c, 2, 70, 0
8, 11160, Note_on_c, 2, 70, 84
8, 11264, Note_on_c, 2, 70, 0
8, 11280, Note_on_c, 2, 72, 84
8, 11384, Note_on_c, 2, 72, 0
8, 11400, Note_on_c, 2, 77, 84
8, 11400, Note_on_c, 2, 65, 84
8, 11504, Note_on_c, 2, 77, 0
8, 11504, Note_on_c, 2, 65, 0
8, 11520, Note_on_c, 2, 70, 84
8, 11520, Note_on_c, 2, 74, 84
8, 11759, Note_on_c, 2, 70, 0
8, 11759, Note_on_c, 2, 74, 0
8, 12000, Note_on_c, 2, 74, 84
8, 12000, Note_on_c, 2, 70, 84
8, 12239, Note_on_c, 2, 74, 0
8, 12239, Note_on_c, 2, 70, 0
8, 12480, Note_on_c, 2, 72, 84
8, 12480, Note_on_c, 2, 75, 84
8, 12719, Note_on_c, 2, 72, 0
8, 12719, Note_on_c, 2, 75, 0
8, 12960, Note_on_c, 2, 75, 84
8, 12960, Note_on_c, 2, 72, 84
8, 13199, Note_on_c, 2, 75, 0
8, 13199, Note_on_c, 2, 72, 0
8, 13440, Note_on_c, 2, 74, 84
8, 13440, Note_on_c, 2, 70, 84
8, 13679, Note_on_c, 2, 74, 0
8, 13679, Note_on_c, 2, 70, 0
8, 13920, Note_on_c, 2, 70, 84
8, 14159, Note_on_c, 2, 70, 0
8, 14400, Note_on_c, 2, 69, 84
8, 14504, Note_on_c, 2, 69, 0
8, 14520, Note_on_c, 2, 72, 84
8, 14624, Note_on_c, 2, 72, 0
8, 14640, Note_on_c, 2, 65, 84
8, 14744, Note_on_c, 2, 65, 0
8, 14760, Note_on_c, 2, 69, 84
8, 14864, Note_on_c, 2, 69, 0
8, 14880, Note_on_c, 2, 62, 84
8, 14984, Note_on_c, 2, 62, 0
8, 15000, Note_on_c, 2, 65, 84
8, 15104, Note_on_c, 2, 65, 0
8, 15120, Note_on_c, 2, 69, 84
8, 15120, Note_on_c, 2, 57, 84
8, 15224, Note_on_c, 2, 69, 0
8, 15224, Note_on_c, 2, 57, 0
8, 15240, Note_on_c, 2, 71, 84
8, 15240, Note_on_c, 2, 59, 84
8, 15344, Note_on_c, 2, 71, 0
8, 15344, Note_on_c, 2, 59, 0
8, 15360, Note_on_c, 2, 60, 84
8, 15360, Note_on_c, 2, 72, 84
8, 15464, Note_on_c, 2, 72, 0
8, 15480, Note_on_c, 2, 64, 84
8, 15584, Note_on_c, 2, 60, 0
8, 15584, Note_on_c, 2, 64, 0
8, 15600, Note_on_c, 2, 64, 84
8, 15600, Note_on_c, 2, 67, 84
8, 15704, Note_on_c, 2, 64, 0
8, 15704, Note_on_c, 2, 67, 0
8, 15720, Note_on_c, 2, 65, 84
8, 15720, Note_on_c, 2, 69, 84
8, 15824, Note_on_c, 2, 65, 0
8, 15824, Note_on_c, 2, 69, 0
8, 15840, Note_on_c, 2, 70, 84
8, 15840, Note_on_c, 2, 67, 84
8, 16424, Note_on_c, 2, 70, 0
8, 16424, Note_on_c, 2, 67, 0
8, 16440, Note_on_c, 2, 70, 84
8, 16440, Note_on_c, 2, 67, 84
8, 16544, Note_on_c, 2, 70, 0
8, 16544, Note_on_c, 2, 67, 0
8, 16560, Note_on_c, 2, 70, 84
8, 16560, Note_on_c, 2, 67, 84
8, 16664, Note_on_c, 2, 70, 0
8, 16664, Note_on_c, 2, 67, 0
8, 16680, Note_on_c, 2, 67, 84
8, 16680, Note_on_c, 2, 70, 84
8, 16784, Note_on_c, 2, 67, 0
8, 16784, Note_on_c, 2, 70, 0
8, 16800, Note_on_c, 2, 70, 84
8, 16800, Note_on_c, 2, 67, 84
8, 16919, Note_on_c, 2, 70, 0
8, 16919, Note_on_c, 2, 67, 0
8, 17280, Note_on_c, 2, 53, 52
8, 17347, Note_on_c, 2, 53, 0
8, 17360, Note_on_c, 2, 57, 52
8, 17427, Note_on_c, 2, 57, 0
8, 17440, Note_on_c, 2, 60, 52
8, 17507, Note_on_c, 2, 60, 0
8, 17520, Note_on_c, 2, 53, 52
8, 17587, Note_on_c, 2, 53, 0
8, 17600, Note_on_c, 2, 57, 52
8, 17667, Note_on_c, 2, 57, 0
8, 17680, Note_on_c, 2, 60, 52
8, 17747, Note_on_c, 2, 60, 0
8, 17760, Note_on_c, 2, 55, 52
8, 17827, Note_on_c, 2, 55, 0
8, 17840, Note_on_c, 2, 58, 52
8, 17907, Note_on_c, 2, 58, 0
8, 17920, Note_on_c, 2, 60, 52
8, 17987, Note_on_c, 2, 60, 0
8, 18000, Note_on_c, 2, 52, 52
8, 18067, Note_on_c, 2, 52, 0
8, 18080, Note_on_c, 2, 55, 52
8, 18147, Note_on_c, 2, 55, 0
8, 18160, Note_on_c, 2, 60, 52
8, 18227, Note_on_c, 2, 60, 0
8, 18240, Note_on_c, 2, 53, 52
8, 18307, Note_on_c, 2, 53, 0
8, 18320, Note_on_c, 2, 57, 52
8, 18387, Note_on_c, 2, 57, 0
8, 18400, Note_on_c, 2, 60, 52
8, 18467, Note_on_c, 2, 60, 0
8, 18480, Note_on_c, 2, 53, 52
8, 18547, Note_on_c, 2, 53, 0
8, 18560, Note_on_c, 2, 57, 52
8, 18627, Note_on_c, 2, 57, 0
8, 18640, Note_on_c, 2, 60, 52
8, 18707, Note_on_c, 2, 60, 0
8, 18720, Note_on_c, 2, 52, 52
8, 18787, Note_on_c, 2, 52, 0
8, 18800, Note_on_c, 2, 55, 52
8, 18867, Note_on_c, 2, 55, 0
8, 18880, Note_on_c, 2, 60, 52
8, 18947, Note_on_c, 2, 60, 0
8, 18960, Note_on_c, 2, 52, 52
8, 19027, Note_on_c, 2, 52, 0
8, 19040, Note_on_c, 2, 55, 52
8, 19107, Note_on_c, 2, 55, 0
8, 19120, Note_on_c, 2, 60, 52
8, 19187, Note_on_c, 2, 60, 0
8, 19200, Note_on_c, 2, 50, 52
8, 19267, Note_on_c, 2, 50, 0
8, 19280, Note_on_c, 2, 55, 52
8, 19347, Note_on_c, 2, 55, 0
8, 19360, Note_on_c, 2, 59, 52
8, 19427, Note_on_c, 2, 59, 0
8, 19440, Note_on_c, 2, 50, 52
8, 19507, Note_on_c, 2, 50, 0
8, 19520, Note_on_c, 2, 55, 52
8, 19587, Note_on_c, 2, 55, 0
8, 19600, Note_on_c, 2, 59, 52
8, 19667, Note_on_c, 2, 59, 0
8, 19680, Note_on_c, 2, 52, 52
8, 19747, Note_on_c, 2, 52, 0
8, 19760, Note_on_c, 2, 55, 52
8, 19827, Note_on_c, 2, 55, 0
8, 19840, Note_on_c, 2, 60, 52
8, 19907, Note_on_c, 2, 60, 0
8, 19920, Note_on_c, 2, 52, 52
8, 19987, Note_on_c, 2, 52, 0
8, 20000, Note_on_c, 2, 55, 52
8, 20067, Note_on_c, 2, 55, 0
8, 20080, Note_on_c, 2, 60, 52
8, 20147, Note_on_c, 2, 60, 0
8, 20160, Note_on_c, 2, 52, 52
8, 20227, Note_on_c, 2, 52, 0
8, 20240, Note_on_c, 2, 55, 52
8, 20307, Note_on_c, 2, 55, 0
8, 20320, Note_on_c, 2, 60, 52
8, 20387, Note_on_c, 2, 60, 0
8, 20400, Note_on_c, 2, 53, 52
8, 20467, Note_on_c, 2, 53, 0
8, 20480, Note_on_c, 2, 55, 52
8, 20547, Note_on_c, 2, 55, 0
8, 20560, Note_on_c, 2, 59, 52
8, 20627, Note_on_c, 2, 59, 0
8, 20640, Note_on_c, 2, 60, 52
8, 20759, Note_on_c, 2, 60, 0
8, 24240, Control_c, 2, 11, 96
8, 24480, Note_on_c, 2, 72, 68
8, 24520, Control_c, 2, 11, 99
8, 24560, Control_c, 2, 11, 101
8, 24600, Control_c, 2, 11, 104
8, 24640, Control_c, 2, 11, 106
8, 24680, Control_c, 2, 11, 109
8, 24720, Control_c, 2, 11, 112
8, 24760, Control_c, 2, 11, 114
8, 24800, Control_c, 2, 11, 117
8, 24839, Note_on_c, 2, 72, 0
8, 24840, Control_c, 2, 11, 119
8, 24840, Note_on_c, 2, 69, 68
8, 24880, Control_c, 2, 11, 122
8, 24920, Control_c, 2, 11, 127
8, 24959, Note_on_c, 2, 69, 0
8, 24960, Note_on_c, 2, 70, 68
8, 24960, Control_c, 2, 11, 127
8, 25000, Control_c, 2, 11, 124
8, 25040, Control_c, 2, 11, 122
8, 25080, Control_c, 2, 11, 119
8, 25120, Control_c, 2, 11, 117
8, 25160, Control_c, 2, 11, 114
8, 25200, Control_c, 2, 11, 112
8, 25240, Control_c, 2, 11, 109
8, 25280, Control_c, 2, 11, 106
8, 25319, Note_on_c, 2, 70, 0
8, 25320, Note_on_c, 2, 69, 68
8, 25320, Control_c, 2, 11, 104
8, 25360, Control_c, 2, 11, 101
8, 25400, Control_c, 2, 11, 96
8, 25424, Note_on_c, 2, 69, 0
8, 25440, Note_on_c, 2, 67, 68
8, 25799, Note_on_c, 2, 67, 0
8, 26760, Note_on_c, 2, 69, 68
8, 26879, Note_on_c, 2, 69, 0
8, 26880, Control_c, 2, 11, 96
8, 26880, Note_on_c, 2, 70, 68
8, 26907, Control_c, 2, 11, 99
8, 26933, Control_c, 2, 11, 103
8, 26960, Control_c, 2, 11, 106
8, 26984, Note_on_c, 2, 70, 0
8, 26987, Control_c, 2, 11, 110
8, 27000, Note_on_c, 2, 70, 68
8, 27013, Control_c, 2, 11, 113
8, 27040, Control_c, 2, 11, 117
8, 27067, Control_c, 2, 11, 120
8, 27093, Control_c, 2, 11, 127
8, 27119, Note_on_c, 2, 70, 0
8, 27120, Control_c, 2, 11, 127
8, 27160, Control_c, 2, 11, 124
8, 27200, Control_c, 2, 11, 122
8, 27240, Control_c, 2, 11, 119
8, 27240, Note_on_c, 2, 69, 68
8, 27280, Control_c, 2, 11, 117
8, 27320, Control_c, 2, 11, 114
8, 27359, Note_on_c, 2, 69, 0
8, 27360, Control_c, 2, 11, 112
8, 27360, Note_on_c, 2, 67, 68
8, 27400, Control_c, 2, 11, 109
8, 27440, Control_c, 2, 11, 106
8, 27464, Note_on_c, 2, 67, 0
8, 27480, Control_c, 2, 11, 104
8, 27480, Note_on_c, 2, 67, 68
8, 27520, Control_c, 2, 11, 101
8, 27560, Control_c, 2, 11, 96
8, 27599, Note_on_c, 2, 67, 0
8, 29280, Control_c, 2, 11, 127
8, 29640, Note_on_c, 2, 72, 76
8, 29744, Note_on_c, 2, 72, 0
8, 29760, Note_on_c, 2, 74, 76
8, 29864, Note_on_c, 2, 74, 0
8, 29880, Note_on_c, 2, 72, 76
8, 29984, Note_on_c, 2, 72, 0
8, 30000, Note_on_c, 2, 74, 76
8, 30104, Note_on_c, 2, 74, 0
8, 30120, Note_on_c, 2, 76, 76
8, 30224, Note_on_c, 2, 76, 0
8, 30240, Note_on_c, 2, 77, 84
8, 30240, Note_on_c, 2, 68, 84
8, 31184, Note_on_c, 2, 77, 0
8, 31184, Note_on_c, 2, 68, 0
8, 31200, Note_on_c, 2, 71, 84
8, 31200, Note_on_c, 2, 80, 84
8, 31424, Note_on_c, 2, 71, 0
8, 31424, Note_on_c, 2, 80, 0
8, 31440, Note_on_c, 2, 80, 92
8, 31440, Note_on_c, 2, 71, 92
8, 31679, Note_on_c, 2, 80, 0
8, 31679, Note_on_c, 2, 71, 0
8, 31920, Note_on_c, 2, 80, 92
8, 31920, Note_on_c, 2, 71, 92
8, 32159, Note_on_c, 2, 80, 0
8, 32159, Note_on_c, 2, 71, 0
8, 32400, Note_on_c, 2, 71, 92
8, 32400, Note_on_c, 2, 80, 92
8, 32639, Note_on_c, 2, 71, 0
8, 32639, Note_on_c, 2, 80, 0
8, 32880, Note_on_c, 2, 71, 92
8, 32880, Note_on_c, 2, 80, 92
8, 33119, Note_on_c, 2, 71, 0
8, 33119, Note_on_c, 2, 80, 0
8, 35040, Note_on_c, 2, 71, 84
8, 35040, Note_on_c, 2, 80, 84
8, 35264, Note_on_c, 2, 71, 0
8, 35264, Note_on_c, 2, 80, 0
8, 35280, Note_on_c, 2, 71, 92
8, 35280, Note_on_c, 2, 80, 92
8, 35519, Note_on_c, 2, 71, 0
8, 35519, Note_on_c, 2, 80, 0
8, 35760, Note_on_c, 2, 71, 92
8, 35760, Note_on_c, 2, 80, 92
8, 35999, Note_on_c, 2, 71, 0
8, 35999, Note_on_c, 2, 80, 0
8, 36240, Note_on_c, 2, 71, 92
8, 36240, Note_on_c, 2, 80, 92
8, 36479, Note_on_c, 2, 71, 0
8, 36479, Note_on_c, 2, 80, 0
8, 36720, Note_on_c, 2, 80, 92
8, 36720, Note_on_c, 2, 71, 92
8, 36959, Note_on_c, 2, 80, 0
8, 36959, Note_on_c, 2, 71, 0
8, 40800, Note_on_c, 2, 69, 84
8, 40800, Note_on_c, 2, 65, 84
8, 40904, Note_on_c, 2, 69, 0
8, 40904, Note_on_c, 2, 65, 0
8, 40920, Note_on_c, 2, 69, 84
8, 40920, Note_on_c, 2, 77, 84
8, 41024, Note_on_c, 2, 69, 0
8, 41024, Note_on_c, 2, 77, 0
8, 41040, Note_on_c, 2, 77, 84
8, 41040, Note_on_c, 2, 69, 84
8, 41144, Note_on_c, 2, 77, 0
8, 41144, Note_on_c, 2, 69, 0
8, 41160, Note_on_c, 2, 69, 84
8, 41160, Note_on_c, 2, 77, 84
8, 41264, Note_on_c, 2, 69, 0
8, 41264, Note_on_c, 2, 77, 0
8, 41280, Note_on_c, 2, 67, 84
8, 41280, Note_on_c, 2, 77, 84
8, 41384, Note_on_c, 2, 67, 0
8, 41384, Note_on_c, 2, 77, 0
8, 41400, Note_on_c, 2, 67, 84
8, 41400, Note_on_c, 2, 77, 84
8, 41504, Note_on_c, 2, 67, 0
8, 41504, Note_on_c, 2, 77, 0
8, 41520, Note_on_c, 2, 76, 84
8, 41520, Note_on_c, 2, 67, 84
8, 41624, Note_on_c, 2, 76, 0
8, 41624, Note_on_c, 2, 67, 0
8, 41640, Note_on_c, 2, 76, 84
8, 41640, Note_on_c, 2, 67, 84
8, 41744, Note_on_c, 2, 76, 0
8, 41744, Note_on_c, 2, 67, 0
8, 41760, Note_on_c, 2, 77, 84
8, 41760, Note_on_c, 2, 69, 84
8, 41879, Note_on_c, 2, 77, 0
8, 41879, Note_on_c, 2, 69, 0
8, 45600, Note_on_c, 2, 69, 84
8, 45600, Note_on_c, 2, 77, 84
8, 45704, Note_on_c, 2, 69, 0
8, 45704, Note_on_c, 2, 77, 0
8, 45720, Note_on_c, 2, 77, 84
8, 45720, Note_on_c, 2, 69, 84
8, 45839, Note_on_c, 2, 77, 0
8, 45839, Note_on_c, 2, 69, 0
8, 45960, Note_on_c, 2, 81, 84
8, 45960, Note_on_c, 2, 69, 84
8, 46064, Note_on_c, 2, 81, 0
8, 46064, Note_on_c, 2, 69, 0
8, 46080, Note_on_c, 2, 69, 84
8, 46080, Note_on_c, 2, 77, 84
8, 46184, Note_on_c, 2, 69, 0
8, 46184, Note_on_c, 2, 77, 0
8, 46200, Note_on_c, 2, 77, 84
8, 46200, Note_on_c, 2, 69, 84
8, 46319, Note_on_c, 2, 77, 0
8, 46319, Note_on_c, 2, 69, 0
8, 46440, Note_on_c, 2, 69, 84
8, 46440, Note_on_c, 2, 81, 84
8, 46544, Note_on_c, 2, 69, 0
8, 46544, Note_on_c, 2, 81, 0
8, 46560, Note_on_c, 2, 69, 84
8, 46560, Note_on_c, 2, 77, 84
8, 46664, Note_on_c, 2, 69, 0
8, 46664, Note_on_c, 2, 77, 0
8, 46680, Note_on_c, 2, 77, 84
8, 46680, Note_on_c, 2, 69, 84
8, 46799, Note_on_c, 2, 77, 0
8, 46799, Note_on_c, 2, 69, 0
8, 46920, Note_on_c, 2, 81, 84
8, 46920, Note_on_c, 2, 69, 84
8, 47024, Note_on_c, 2, 81, 0
8, 47024, Note_on_c, 2, 69, 0
8, 47040, Note_on_c, 2, 77, 84
8, 47040, Note_on_c, 2, 69, 84
8, 47144, Note_on_c, 2, 77, 0
8, 47144, Note_on_c, 2, 69, 0
8, 47160, Note_on_c, 2, 81, 84
8, 47160, Note_on_c, 2, 69, 84
8, 47264, Note_on_c, 2, 81, 0
8, 47264, Note_on_c, 2, 69, 0
8, 47280, Note_on_c, 2, 69, 84
8, 47280, Note_on_c, 2, 77, 84
8, 47384, Note_on_c, 2, 69, 0
8, 47384, Note_on_c, 2, 77, 0
8, 47400, Note_on_c, 2, 69, 84
8, 47400, Note_on_c, 2, 81, 84
8, 47504, Note_on_c, 2, 69, 0
8, 47504, Note_on_c, 2, 81, 0
8, 47520, Note_on_c, 2, 69, 52
8, 47520, Note_on_c, 2, 77, 52
8, 47639, Note_on_c, 2, 69, 0
8, 47639, Note_on_c, 2, 77, 0
8, 50640, Note_on_c, 2, 60, 76
8, 50640, Note_on_c, 2, 69, 76
8, 50759, Note_on_c, 2, 60, 0
8, 50759, Note_on_c, 2, 69, 0
8, 50880, Note_on_c, 2, 70, 76
8, 50880, Note_on_c, 2, 62, 76
8, 50999, Note_on_c, 2, 70, 0
8, 50999, Note_on_c, 2, 62, 0
8, 51120, Note_on_c, 2, 69, 76
8, 51120, Note_on_c, 2, 72, 76
8, 51239, Note_on_c, 2, 69, 0
8, 51239, Note_on_c, 2, 72, 0
8, 56160, Note_on_c, 2, 65, 52
8, 56279, Note_on_c, 2, 65, 0
8, 56280, Note_on_c, 2, 70, 52
8, 56399, Note_on_c, 2, 70, 0
8, 56400, Note_on_c, 2, 74, 52
8, 56519, Note_on_c, 2, 74, 0
8, 56520, Note_on_c, 2, 77, 52
8, 56624, Note_on_c, 2, 77, 0
8, 56640, Note_on_c, 2, 75, 52
8, 56759, Note_on_c, 2, 75, 0
8, 56760, Note_on_c, 2, 74, 52
8, 56879, Note_on_c, 2, 74, 0
8, 56880, Note_on_c, 2, 75, 52
8, 56999, Note_on_c, 2, 75, 0
8, 57000, Note_on_c, 2, 72, 52
8, 57119, Note_on_c, 2, 72, 0
8, 57120, Note_on_c, 2, 70, 52
8, 57239, Note_on_c, 2, 70, 0
8, 57240, Note_on_c, 2, 74, 52
8, 57359, Note_on_c, 2, 74, 0
8, 57360, Note_on_c, 2, 70, 52
8, 57479, Note_on_c, 2, 70, 0
8, 57480, Note_on_c, 2, 67, 52
8, 57584, Note_on_c, 2, 67, 0
8, 57600, Note_on_c, 2, 65, 52
8, 57719, Note_on_c, 2, 65, 0
8, 57840, Note_on_c, 2, 65, 52
8, 57959, Note_on_c, 2, 65, 0
8, 58080, Note_on_c, 2, 65, 52
8, 58544, Note_on_c, 2, 65, 0
8, 58560, Note_on_c, 2, 65, 52
8, 58679, Note_on_c, 2, 65, 0
8, 58800, Note_on_c, 2, 65, 68
8, 58919, Note_on_c, 2, 65, 0
8, 59040, Note_on_c, 2, 70, 84
8, 60584, Note_on_c, 2, 70, 0
8, 60600, Note_on_c, 2, 70, 84
8, 60704, Note_on_c, 2, 70, 0
8, 60720, Note_on_c, 2, 72, 84
8, 60824, Note_on_c, 2, 72, 0
8, 60840, Note_on_c, 2, 77, 84
8, 60840, Note_on_c, 2, 65, 84
8, 60944, Note_on_c, 2, 77, 0
8, 60944, Note_on_c, 2, 65, 0
8, 60960, Note_on_c, 2, 74, 84
8, 60960, Note_on_c, 2, 70, 84
8, 61199, Note_on_c, 2, 74, 0
8, 61199, Note_on_c, 2, 70, 0
8, 61440, Note_on_c, 2, 70, 84
8, 61440, Note_on_c, 2, 74, 84
8, 61679, Note_on_c, 2, 70, 0
8, 61679, Note_on_c, 2, 74, 0
8, 61920, Note_on_c, 2, 72, 84
8, 61920, Note_on_c, 2, 75, 84
8, 62159, Note_on_c, 2, 72, 0
8, 62159, Note_on_c, 2, 75, 0
8, 62400, Note_on_c, 2, 75, 84
8, 62400, Note_on_c, 2, 72, 84
8, 62639, Note_on_c, 2, 75, 0
8, 62639, Note_on_c, 2, 72, 0
8, 62880, Note_on_c, 2, 74, 84
8, 62880, Note_on_c, 2, 70, 84
8, 63119, Note_on_c, 2, 74, 0
8, 63119, Note_on_c, 2, 70, 0
8, 63360, Note_on_c, 2, 70, 84
8, 63599, Note_on_c, 2, 70, 0
8, 63840, Note_on_c, 2, 69, 84
8, 63944, Note_on_c, 2, 69, 0
8, 63960, Note_on_c, 2, 72, 84
8, 64064, Note_on_c, 2, 72, 0
8, 64080, Note_on_c, 2, 65, 84
8, 64184, Note_on_c, 2, 65, 0
8, 64200, Note_on_c, 2, 69, 84
8, 64304, Note_on_c, 2, 69, 0
8, 64320, Note_on_c, 2, 62, 84
8, 64424, Note_on_c, 2, 62, 0
8, 64440, Note_on_c, 2, 65, 84
8, 64544, Note_on_c, 2, 65, 0
8, 64560, Note_on_c, 2, 69, 84
8, 64560, Note_on_c, 2, 57, 84
8, 64664, Note_on_c, 2, 69, 0
8, 64664, Note_on_c, 2, 57, 0
8, 64680, Note_on_c, 2, 59, 84
8, 64680, Note_on_c, 2, 71, 84
8, 64784, Note_on_c, 2, 59, 0
8, 64784, Note_on_c, 2, 71, 0
8, 64800, Note_on_c, 2, 60, 84
8, 64800, Note_on_c, 2, 72, 84
8, 64904, Note_on_c, 2, 72, 0
8, 64920, Note_on_c, 2, 64, 84
8, 65024, Note_on_c, 2, 60, 0
8, 65024, Note_on_c, 2, 64, 0
8, 65040, Note_on_c, 2, 64, 84
8, 65040, Note_on_c, 2, 67, 84
8, 65144, Note_on_c, 2, 64, 0
8, 65144, Note_on_c, 2, 67, 0
8, 65160, Note_on_c, 2, 65, 84
8, 65160, Note_on_c, 2, 69, 84
8, 65264, Note_on_c, 2, 65, 0
8, 65264, Note_on_c, 2, 69, 0
8, 65280, Note_on_c, 2, 70, 84
8, 65280, Note_on_c, 2, 67, 84
8, 65864, Note_on_c, 2, 70, 0
8, 65864, Note_on_c, 2, 67, 0
8, 65880, Note_on_c, 2, 70, 84
8, 65880, Note_on_c, 2, 67, 84
8, 65984, Note_on_c, 2, 70, 0
8, 65984, Note_on_c, 2, 67, 0
8, 66000, Note_on_c, 2, 70, 84
8, 66000, Note_on_c, 2, 67, 84
8, 66104, Note_on_c, 2, 70, 0
8, 66104, Note_on_c, 2, 67, 0
8, 66120, Note_on_c, 2, 70, 84
8, 66120, Note_on_c, 2, 67, 84
8, 66224, Note_on_c, 2, 70, 0
8, 66224, Note_on_c, 2, 67, 0
8, 66240, Note_on_c, 2, 67, 84
8, 66240, Note_on_c, 2, 70, 84
8, 66359, Note_on_c, 2, 67, 0
8, 66359, Note_on_c, 2, 70, 0
8, 66720, Note_on_c, 2, 53, 52
8, 66787, Note_on_c, 2, 53, 0
8, 66800, Note_on_c, 2, 57, 52
8, 66867, Note_on_c, 2, 57, 0
8, 66880, Note_on_c, 2, 60, 52
8, 66947, Note_on_c, 2, 60, 0
8, 66960, Note_on_c, 2, 53, 52
8, 67027, Note_on_c, 2, 53, 0
8, 67040, Note_on_c, 2, 57, 52
8, 67107, Note_on_c, 2, 57, 0
8, 67120, Note_on_c, 2, 60, 52
8, 67187, Note_on_c, 2, 60, 0
8, 67200, Note_on_c, 2, 55, 52
8, 67267, Note_on_c, 2, 55, 0
8, 67280, Note_on_c, 2, 58, 52
8, 67347, Note_on_c, 2, 58, 0
8, 67360, Note_on_c, 2, 60, 52
8, 67427, Note_on_c, 2, 60, 0
8, 67440, Note_on_c, 2, 52, 52
8, 67507, Note_on_c, 2, 52, 0
8, 67520, Note_on_c, 2, 55, 52
8, 67587, Note_on_c, 2, 55, 0
8, 67600, Note_on_c, 2, 60, 52
8, 67667, Note_on_c, 2, 60, 0
8, 67680, Note_on_c, 2, 53, 52
8, 67747, Note_on_c, 2, 53, 0
8, 67760, Note_on_c, 2, 57, 52
8, 67827, Note_on_c, 2, 57, 0
8, 67840, Note_on_c, 2, 60, 52
8, 67907, Note_on_c, 2, 60, 0
8, 67920, Note_on_c, 2, 53, 52
8, 67987, Note_on_c, 2, 53, 0
8, 68000, Note_on_c, 2, 57, 52
8, 68067, Note_on_c, 2, 57, 0
8, 68080, Note_on_c, 2, 60, 52
8, 68147, Note_on_c, 2, 60, 0
8, 68160, Note_on_c, 2, 52, 52
8, 68227, Note_on_c, 2, 52, 0
8, 68240, Note_on_c, 2, 55, 52
8, 68307, Note_on_c, 2, 55, 0
8, 68320, Note_on_c, 2, 60, 52
8, 68387, Note_on_c, 2, 60, 0
8, 68400, Note_on_c, 2, 52, 52
8, 68467, Note_on_c, 2, 52, 0
8, 68480, Note_on_c, 2, 55, 52
8, 68547, Note_on_c, 2, 55, 0
8, 68560, Note_on_c, 2, 60, 52
8, 68627, Note_on_c, 2, 60, 0
8, 68640, Note_on_c, 2, 50, 52
8, 68707, Note_on_c, 2, 50, 0
8, 68720, Note_on_c, 2, 55, 52
8, 68787, Note_on_c, 2, 55, 0
8, 68800, Note_on_c, 2, 59, 52
8, 68867, Note_on_c, 2, 59, 0
8, 68880, Note_on_c, 2, 50, 52
8, 68947, Note_on_c, 2, 50, 0
8, 68960, Note_on_c, 2, 55, 52
8, 69027, Note_on_c, 2, 55, 0
8, 69040, Note_on_c, 2, 59, 52
8, 69107, Note_on_c, 2, 59, 0
8, 69120, Note_on_c, 2, 52, 52
8, 69187, Note_on_c, 2, 52, 0
8, 69200, Note_on_c, 2, 55, 52
8, 69267, Note_on_c, 2, 55, 0
8, 69280, Note_on_c, 2, 60, 52
8, 69347, Note_on_c, 2, 60, 0
8, 69360, Note_on_c, 2, 52, 52
8, 69427, Note_on_c, 2, 52, 0
8, 69440, Note_on_c, 2, 55, 52
8, 69507, Note_on_c, 2, 55, 0
8, 69520, Note_on_c, 2, 60, 52
8, 69587, Note_on_c, 2, 60, 0
8, 69600, Note_on_c, 2, 52, 52
8, 69667, Note_on_c, 2, 52, 0
8, 69680, Note_on_c, 2, 55, 52
8, 69747, Note_on_c, 2, 55, 0
8, 69760, Note_on_c, 2, 60, 52
8, 69827, Note_on_c, 2, 60, 0
8, 69840, Note_on_c, 2, 53, 52
8, 69907, Note_on_c, 2, 53, 0
8, 69920, Note_on_c, 2, 55, 52
8, 69987, Note_on_c, 2, 55, 0
8, 70000, Note_on_c, 2, 59, 52
8, 70067, Note_on_c, 2, 59, 0
8, 70080, Note_on_c, 2, 60, 52
8, 70199, Note_on_c, 2, 60, 0
8, 73680, Control_c, 2, 11, 96
8, 73920, Note_on_c, 2, 72, 68
8, 73960, Control_c, 2, 11, 99
8, 74000, Control_c, 2, 11, 101
8, 74040, Control_c, 2, 11, 104
8, 74080, Control_c, 2, 11, 106
8, 74120, Control_c, 2, 11, 109
8, 74160, Control_c, 2, 11, 112
8, 74200, Control_c, 2, 11, 114
8, 74240, Control_c, 2, 11, 117
8, 74279, Note_on_c, 2, 72, 0
8, 74280, Note_on_c, 2, 69, 68
8, 74280, Control_c, 2, 11, 119
8, 74320, Control_c, 2, 11, 122
8, 74360, Control_c, 2, 11, 127
8, 74399, Note_on_c, 2, 69, 0
8, 74400, Note_on_c, 2, 70, 68
8, 74400, Control_c, 2, 11, 127
8, 74440, Control_c, 2, 11, 124
8, 74480, Control_c, 2, 11, 122
8, 74520, Control_c, 2, 11, 119
8, 74560, Control_c, 2, 11, 117
8, 74600, Control_c, 2, 11, 114
8, 74640, Control_c, 2, 11, 112
8, 74680, Control_c, 2, 11, 109
8, 74720, Control_c, 2, 11, 106
8, 74759, Note_on_c, 2, 70, 0
8, 74760, Control_c, 2, 11, 104
8, 74760, Note_on_c, 2, 69, 68
8, 74800, Control_c, 2, 11, 101
8, 74840, Control_c, 2, 11, 96
8, 74864, Note_on_c, 2, 69, 0
8, 74880, Note_on_c, 2, 67, 68
8, 75239, Note_on_c, 2, 67, 0
8, 76200, Note_on_c, 2, 69, 68
8, 76319, Note_on_c, 2, 69, 0
8, 76320, Control_c, 2, 11, 96
8, 76320, Note_on_c, 2, 70, 68
8, 76347, Control_c, 2, 11, 99
8, 76373, Control_c, 2, 11, 103
8, 76400, Control_c, 2, 11, 106
8, 76424, Note_on_c, 2, 70, 0
8, 76427, Control_c, 2, 11, 110
8, 76440, Note_on_c, 2, 70, 68
8, 76453, Control_c, 2, 11, 113
8, 76480, Control_c, 2, 11, 117
8, 76507, Control_c, 2, 11, 120
8, 76533, Control_c, 2, 11, 127
8, 76559, Note_on_c, 2, 70, 0
8, 76560, Control_c, 2, 11, 127
8, 76600, Control_c, 2, 11, 124
8, 76640, Control_c, 2, 11, 122
8, 76680, Note_on_c, 2, 69, 68
8, 76680, Control_c, 2, 11, 119
8, 76720, Control_c, 2, 11, 117
8, 76760, Control_c, 2, 11, 114
8, 76799, Note_on_c, 2, 69, 0
8, 76800, Control_c, 2, 11, 112
8, 76800, Note_on_c, 2, 67, 68
8, 76840, Control_c, 2, 11, 109
8, 76880, Control_c, 2, 11, 106
8, 76904, Note_on_c, 2, 67, 0
8, 76920, Note_on_c, 2, 67, 68
8, 76920, Control_c, 2, 11, 104
8, 76960, Control_c, 2, 11, 101
8, 77000, Control_c, 2, 11, 96
8, 77039, Note_on_c, 2, 67, 0
8, 78720, Control_c, 2, 11, 127
8, 79080, Note_on_c, 2, 72, 76
8, 79184, Note_on_c, 2, 72, 0
8, 79200, Note_on_c, 2, 74, 76
8, 79304, Note_on_c, 2, 74, 0
8, 79320, Note_on_c, 2, 72, 76
8, 79424, Note_on_c, 2, 72, 0
8, 79440, Note_on_c, 2, 74, 76
8, 79544, Note_on_c, 2, 74, 0
8, 79560, Note_on_c, 2, 76, 76
8, 79664, Note_on_c, 2, 76, 0
8, 79680, Note_on_c, 2, 77, 84
8, 79680, Note_on_c, 2, 68, 84
8, 80624, Note_on_c, 2, 77, 0
8, 80624, Note_on_c, 2, 68, 0
8, 80640, Note_on_c, 2, 80, 84
8, 80640, Note_on_c, 2, 71, 84
8, 80864, Note_on_c, 2, 80, 0
8, 80864, Note_on_c, 2, 71, 0
8, 80880, Note_on_c, 2, 71, 92
8, 80880, Note_on_c, 2, 80, 92
8, 81119, Note_on_c, 2, 71, 0
8, 81119, Note_on_c, 2, 80, 0
8, 81360, Note_on_c, 2, 80, 92
8, 81360, Note_on_c, 2, 71, 92
8, 81599, Note_on_c, 2, 80, 0
8, 81599, Note_on_c, 2, 71, 0
8, 81840, Note_on_c, 2, 71, 92
8, 81840, Note_on_c, 2, 80, 92
8, 82079, Note_on_c, 2, 71, 0
8, 82079, Note_on_c, 2, 80, 0
8, 82320, Note_on_c, 2, 80, 92
8, 82320, Note_on_c, 2, 71, 92
8, 82559, Note_on_c, 2, 80, 0
8, 82559, Note_on_c, 2, 71, 0
8, 84480, Note_on_c, 2, 80, 84
8, 84480, Note_on_c, 2, 71, 84
8, 84704, Note_on_c, 2, 80, 0
8, 84704, Note_on_c, 2, 71, 0
8, 84720, Note_on_c, 2, 71, 92
8, 84720, Note_on_c, 2, 80, 92
8, 84959, Note_on_c, 2, 71, 0
8, 84959, Note_on_c, 2, 80, 0
8, 85200, Note_on_c, 2, 80, 92
8, 85200, Note_on_c, 2, 71, 92
8, 85439, Note_on_c, 2, 80, 0
8, 85439, Note_on_c, 2, 71, 0
8, 85680, Note_on_c, 2, 71, 92
8, 85680, Note_on_c, 2, 80, 92
8, 85919, Note_on_c, 2, 71, 0
8, 85919, Note_on_c, 2, 80, 0
8, 86160, Note_on_c, 2, 71, 92
8, 86160, Note_on_c, 2, 80, 92
8, 86399, Note_on_c, 2, 71, 0
8, 86399, Note_on_c, 2, 80, 0
8, 90240, Note_on_c, 2, 69, 84
8, 90240, Note_on_c, 2, 65, 84
8, 90344, Note_on_c, 2, 69, 0
8, 90344, Note_on_c, 2, 65, 0
8, 90360, Note_on_c, 2, 69, 84
8, 90360, Note_on_c, 2, 77, 84
8, 90464, Note_on_c, 2, 69, 0
8, 90464, Note_on_c, 2, 77, 0
8, 90480, Note_on_c, 2, 77, 84
8, 90480, Note_on_c, 2, 69, 84
8, 90584, Note_on_c, 2, 77, 0
8, 90584, Note_on_c, 2, 69, 0
8, 90600, Note_on_c, 2, 77, 84
8, 90600, Note_on_c, 2, 69, 84
8, 90704, Note_on_c, 2, 77, 0
8, 90704, Note_on_c, 2, 69, 0
8, 90720, Note_on_c, 2, 77, 84
8, 90720, Note_on_c, 2, 67, 84
8, 90824, Note_on_c, 2, 77, 0
8, 90824, Note_on_c, 2, 67, 0
8, 90840, Note_on_c, 2, 67, 84
8, 90840, Note_on_c, 2, 77, 84
8, 90944, Note_on_c, 2, 67, 0
8, 90944, Note_on_c, 2, 77, 0
8, 90960, Note_on_c, 2, 67, 84
8, 90960, Note_on_c, 2, 76, 84
8, 91064, Note_on_c, 2, 67, 0
8, 91064, Note_on_c, 2, 76, 0
8, 91080, Note_on_c, 2, 67, 84
8, 91080, Note_on_c, 2, 76, 84
8, 91184, Note_on_c, 2, 67, 0
8, 91184, Note_on_c, 2, 76, 0
8, 91200, Note_on_c, 2, 77, 84
8, 91200, Note_on_c, 2, 69, 84
8, 91319, Note_on_c, 2, 77, 0
8, 91319, Note_on_c, 2, 69, 0
8, 95040, Note_on_c, 2, 77, 84
8, 95040, Note_on_c, 2, 69, 84
8, 95144, Note_on_c, 2, 77, 0
8, 95144, Note_on_c, 2, 69, 0
8, 95160, Note_on_c, 2, 77, 84
8, 95160, Note_on_c, 2, 69, 84
8, 95279, Note_on_c, 2, 77, 0
8, 95279, Note_on_c, 2, 69, 0
8, 95400, Note_on_c, 2, 81, 84
8, 95400, Note_on_c, 2, 69, 84
8, 95504, Note_on_c, 2, 81, 0
8, 95504, Note_on_c, 2, 69, 0
8, 95520, Note_on_c, 2, 69, 84
8, 95520, Note_on_c, 2, 77, 84
8, 95624, Note_on_c, 2, 69, 0
8, 95624, Note_on_c, 2, 77, 0
8, 95640, Note_on_c, 2, 77, 84
8, 95640, Note_on_c, 2, 69, 84
8, 95759, Note_on_c, 2, 77, 0
8, 95759, Note_on_c, 2, 69, 0
8, 95880, Note_on_c, 2, 81, 84
8, 95880, Note_on_c, 2, 69, 84
8, 95984, Note_on_c, 2, 81, 0
8, 95984, Note_on_c, 2, 69, 0
8, 96000, Note_on_c, 2, 69, 84
8, 96000, Note_on_c, 2, 77, 84
8, 96104, Note_on_c, 2, 69, 0
8, 96104, Note_on_c, 2, 77, 0
8, 96120, Note_on_c, 2, 69, 84
8, 96120, Note_on_c, 2, 77, 84
8, 96239, Note_on_c, 2, 69, 0
8, 96239, Note_on_c, 2, 77, 0
8, 96360, Note_on_c, 2, 69, 84
8, 96360, Note_on_c, 2, 81, 84
8, 96464, Note_on_c, 2, 69, 0
8, 96464, Note_on_c, 2, 81, 0
8, 96480, Note_on_c, 2, 69, 84
8, 96480, Note_on_c, 2, 77, 84
8, 96584, Note_on_c, 2, 69, 0
8, 96584, Note_on_c, 2, 77, 0
8, 96600, Note_on_c, 2, 81, 84
8, 96600, Note_on_c, 2, 69, 84
8, 96704, Note_on_c, 2, 81, 0
8, 96704, Note_on_c, 2, 69, 0
8, 96720, Note_on_c, 2, 77, 84
8, 96720, Note_on_c, 2, 69, 84
8, 96824, Note_on_c, 2, 77, 0
8, 96824, Note_on_c, 2, 69, 0
8, 96840, Note_on_c, 2, 81, 84
8, 96840, Note_on_c, 2, 69, 84
8, 96944, Note_on_c, 2, 81, 0
8, 96944, Note_on_c, 2, 69, 0
8, 96960, Note_on_c, 2, 69, 52
8, 96960, Note_on_c, 2, 77, 52
8, 97079, Note_on_c, 2, 69, 0
8, 97079, Note_on_c, 2, 77, 0
8, 108480, Note_on_c, 2, 72, 52
8, 108599, Note_on_c, 2, 72, 0
8, 108600, Note_on_c, 2, 71, 52
8, 108719, Note_on_c, 2, 71, 0
8, 108720, Note_on_c, 2, 72, 52
8, 108839, Note_on_c, 2, 72, 0
8, 108840, Note_on_c, 2, 69, 52
8, 108959, Note_on_c, 2, 69, 0
8, 108960, Note_on_c, 2, 67, 52
8, 109079, Note_on_c, 2, 67, 0
8, 109080, Note_on_c, 2, 71, 52
8, 109199, Note_on_c, 2, 71, 0
8, 109200, Note_on_c, 2, 67, 52
8, 109319, Note_on_c, 2, 67, 0
8, 109320, Note_on_c, 2, 64, 52
8, 109424, Note_on_c, 2, 64, 0
8, 109440, Note_on_c, 2, 62, 52
8, 109559, Note_on_c, 2, 62, 0
8, 109680, Note_on_c, 2, 62, 52
8, 109799, Note_on_c, 2, 62, 0
8, 109920, Note_on_c, 2, 62, 52
8, 110399, Note_on_c, 2, 62, 0
8, 113280, Note_on_c, 2, 67, 52
8, 113519, Note_on_c, 2, 67, 0
8, 113520, Note_on_c, 2, 75, 52
8, 113759, Note_on_c, 2, 75, 0
8, 113760, Note_on_c, 2, 74, 52
8, 113879, Note_on_c, 2, 74, 0
8, 114240, Note_on_c, 2, 58, 52
8, 114240, Note_on_c, 2, 62, 52
8, 114479, Note_on_c, 2, 58, 0
8, 114479, Note_on_c, 2, 62, 0
8, 114480, Note_on_c, 2, 67, 52
8, 114480, Note_on_c, 2, 63, 52
8, 114719, Note_on_c, 2, 67, 0
8, 114719, Note_on_c, 2, 63, 0
8, 114720, Note_on_c, 2, 62, 52
8, 114720, Note_on_c, 2, 65, 52
8, 114839, Note_on_c, 2, 62, 0
8, 114839, Note_on_c, 2, 65, 0
8, 117120, Note_on_c, 2, 62, 52
8, 117120, Note_on_c, 2, 65, 52
8, 117359, Note_on_c, 2, 62, 0
8, 117359, Note_on_c, 2, 65, 0
8, 117360, Note_on_c, 2, 67, 52
8, 117360, Note_on_c, 2, 70, 52
8, 117599, Note_on_c, 2, 67, 0
8, 117599, Note_on_c, 2, 70, 0
8, 117600, Note_on_c, 2, 69, 52
8, 117600, Note_on_c, 2, 65, 52
8, 117719, Note_on_c, 2, 69, 0
8, 117719, Note_on_c, 2, 65, 0
8, 119040, Note_on_c, 2, 62, 52
8, 119279, Note_on_c, 2, 62, 0
8, 119280, Note_on_c, 2, 70, 52
8, 119519, Note_on_c, 2, 70, 0
8, 119520, Note_on_c, 2, 69, 52
8, 119639, Note_on_c, 2, 69, 0
8, 120000, Note_on_c, 2, 69, 52
8, 120239, Note_on_c, 2, 69, 0
8, 120240, Note_on_c, 2, 70, 52
8, 120479, Note_on_c, 2, 70, 0
8, 120480, Note_on_c, 2, 69, 44
8, 120599, Note_on_c, 2, 69, 0
8, 122400, Note_on_c, 2, 67, 44
8, 124304, Note_on_c, 2, 67, 0
8, 124318, Control_c, 2, 11, 48
8, 124320, Note_on_c, 2, 63, 84
8, 124320, Note_on_c, 2, 67, 84
8, 124320, Control_c, 2, 11, 48
8, 124373, Control_c, 2, 11, 50
8, 124427, Control_c, 2, 11, 52
8, 124480, Control_c, 2, 11, 55
8, 124533, Control_c, 2, 11, 57
8, 124587, Control_c, 2, 11, 59
8, 124640, Control_c, 2, 11, 61
8, 124693, Control_c, 2, 11, 63
8, 124747, Control_c, 2, 11, 66
8, 124800, Control_c, 2, 11, 68
8, 124853, Control_c, 2, 11, 70
8, 124907, Control_c, 2, 11, 72
8, 124960, Control_c, 2, 11, 74
8, 125013, Control_c, 2, 11, 77
8, 125067, Control_c, 2, 11, 79
8, 125120, Control_c, 2, 11, 81
8, 125173, Control_c, 2, 11, 83
8, 125227, Control_c, 2, 11, 85
8, 125280, Control_c, 2, 11, 88
8, 125333, Control_c, 2, 11, 90
8, 125387, Control_c, 2, 11, 92
8, 125440, Control_c, 2, 11, 94
8, 125493, Control_c, 2, 11, 96
8, 125547, Control_c, 2, 11, 98
8, 125600, Control_c, 2, 11, 101
8, 125653, Control_c, 2, 11, 103
8, 125707, Control_c, 2, 11, 105
8, 125760, Control_c, 2, 11, 107
8, 125813, Control_c, 2, 11, 109
8, 125867, Control_c, 2, 11, 112
8, 125920, Control_c, 2, 11, 114
8, 125973, Control_c, 2, 11, 116
8, 126027, Control_c, 2, 11, 118
8, 126080, Control_c, 2, 11, 120
8, 126133, Control_c, 2, 11, 123
8, 126187, Control_c, 2, 11, 127
8, 126224, Note_on_c, 2, 63, 0
8, 126224, Note_on_c, 2, 67, 0
8, 126240, Note_on_c, 2, 81, 84
8, 126240, Note_on_c, 2, 69, 84
8, 126344, Note_on_c, 2, 81, 0
8, 126344, Note_on_c, 2, 69, 0
8, 126360, Note_on_c, 2, 81, 84
8, 126360, Note_on_c, 2, 69, 84
8, 126479, Note_on_c, 2, 81, 0
8, 126479, Note_on_c, 2, 69, 0
8, 126600, Note_on_c, 2, 81, 84
8, 126600, Note_on_c, 2, 69, 84
8, 126704, Note_on_c, 2, 81, 0
8, 126704, Note_on_c, 2, 69, 0
8, 126720, Note_on_c, 2, 69, 84
8, 126720, Note_on_c, 2, 81, 84
8, 126824, Note_on_c, 2, 69, 0
8, 126824, Note_on_c, 2, 81, 0
8, 126840, Note_on_c, 2, 69, 84
8, 126840, Note_on_c, 2, 81, 84
8, 126959, Note_on_c, 2, 69, 0
8, 126959, Note_on_c, 2, 81, 0
8, 127080, Note_on_c, 2, 69, 84
8, 127080, Note_on_c, 2, 81, 84
8, 127184, Note_on_c, 2, 69, 0
8, 127184, Note_on_c, 2, 81, 0
8, 127200, Note_on_c, 2, 81, 84
8, 127200, Note_on_c, 2, 69, 84
8, 127304, Note_on_c, 2, 81, 0
8, 127304, Note_on_c, 2, 69, 0
8, 127320, Note_on_c, 2, 69, 84
8, 127320, Note_on_c, 2, 81, 84
8, 127439, Note_on_c, 2, 69, 0
8, 127439, Note_on_c, 2, 81, 0
8, 127560, Note_on_c, 2, 69, 84
8, 127560, Note_on_c, 2, 81, 84
8, 127664, Note_on_c, 2, 69, 0
8, 127664, Note_on_c, 2, 81, 0
8, 127680, Note_on_c, 2, 69, 84
8, 127680, Note_on_c, 2, 81, 84
8, 127784, Note_on_c, 2, 69, 0
8, 127784, Note_on_c, 2, 81, 0
8, 127800, Note_on_c, 2, 81, 84
8, 127800, Note_on_c, 2, 69, 84
8, 127919, Note_on_c, 2, 81, 0
8, 127919, Note_on_c, 2, 69, 0
8, 128040, Note_on_c, 2, 69, 84
8, 128040, Note_on_c, 2, 81, 84
8, 128144, Note_on_c, 2, 69, 0
8, 128144, Note_on_c, 2, 81, 0
8, 128160, Note_on_c, 2, 81, 84
8, 128160, Note_on_c, 2, 69, 84
8, 128279, Note_on_c, 2, 81, 0
8, 128279, Note_on_c, 2, 69, 0
8, 128400, Note_on_c, 2, 81, 84
8, 128400, Note_on_c, 2, 69, 84
8, 128519, Note_on_c, 2, 81, 0
8, 128519, Note_on_c, 2, 69, 0
8, 128640, Note_on_c, 2, 81, 84
8, 128640, Note_on_c, 2, 69, 84
8, 128759, Note_on_c, 2, 81, 0
8, 128759, Note_on_c, 2, 69, 0
8, 128880, Note_on_c, 2, 81, 84
8, 128880, Note_on_c, 2, 69, 84
8, 128999, Note_on_c, 2, 81, 0
8, 128999, Note_on_c, 2, 69, 0
8, 129120, Note_on_c, 2, 81, 84
8, 129120, Note_on_c, 2, 69, 84
8, 129239, Note_on_c, 2, 81, 0
8, 129239, Note_on_c, 2, 69, 0
8, 129360, Note_on_c, 2, 69, 84
8, 129360, Note_on_c, 2, 81, 84
8, 129479, Note_on_c, 2, 69, 0
8, 129479, Note_on_c, 2, 81, 0
8, 129600, Note_on_c, 2, 81, 84
8, 129600, Note_on_c, 2, 69, 84
8, 129719, Note_on_c, 2, 81, 0
8, 129719, Note_on_c, 2, 69, 0
8, 129840, Note_on_c, 2, 69, 84
8, 129840, Note_on_c, 2, 81, 84
8, 129959, Note_on_c, 2, 69, 0
8, 129959, Note_on_c, 2, 81, 0
8, 130080, Note_on_c, 2, 69, 92
8, 130080, Note_on_c, 2, 81, 92
8, 130529, Note_on_c, 2, 69, 0
8, 130529, Note_on_c, 2, 81, 0
8, 130560, Note_on_c, 2, 81, 92
8, 130560, Note_on_c, 2, 69, 92
8, 131009, Note_on_c, 2, 81, 0
8, 131009, Note_on_c, 2, 69, 0
8, 131040, Note_on_c, 2, 69, 92
8, 131040, Note_on_c, 2, 81, 92
8, 131489, Note_on_c, 2, 69, 0
8, 131489, Note_on_c, 2, 81, 0
8, 131520, Note_on_c, 2, 69, 92
8, 131520, Note_on_c, 2, 81, 92
8, 131969, Note_on_c, 2, 69, 0
8, 131969, Note_on_c, 2, 81, 0
8, 132000, Note_on_c, 2, 69, 84
8, 132000, Note_on_c, 2, 81, 84
8, 132119, Note_on_c, 2, 69, 0
8, 132119, Note_on_c, 2, 81, 0
8, 132240, Note_on_c, 2, 81, 84
8, 132240, Note_on_c, 2, 69, 84
8, 132359, Note_on_c, 2, 81, 0
8, 132359, Note_on_c, 2, 69, 0
8, 132480, Note_on_c, 2, 69, 84
8, 132480, Note_on_c, 2, 81, 84
8, 132599, Note_on_c, 2, 69, 0
8, 132599, Note_on_c, 2, 81, 0
8, 132720, Note_on_c, 2, 81, 84
8, 132720, Note_on_c, 2, 69, 84
8, 132839, Note_on_c, 2, 81, 0
8, 132839, Note_on_c, 2, 69, 0
8, 132960, Note_on_c, 2, 69, 84
8, 132960, Note_on_c, 2, 81, 84
8, 133079, Note_on_c, 2, 69, 0
8, 133079, Note_on_c, 2, 81, 0
8, 133200, Note_on_c, 2, 69, 84
8, 133200, Note_on_c, 2, 81, 84
8, 133319, Note_on_c, 2, 69, 0
8, 133319, Note_on_c, 2, 81, 0
8, 133440, Note_on_c, 2, 81, 84
8, 133440, Note_on_c, 2, 69, 84
8, 133559, Note_on_c, 2, 81, 0
8, 133559, Note_on_c, 2, 69, 0
8, 133680, Note_on_c, 2, 69, 84
8, 133680, Note_on_c, 2, 81, 84
8, 133799, Note_on_c, 2, 69, 0
8, 133799, Note_on_c, 2, 81, 0
8, 133920, Note_on_c, 2, 69, 92
8, 133920, Note_on_c, 2, 81, 92
8, 134369, Note_on_c, 2, 69, 0
8, 134369, Note_on_c, 2, 81, 0
8, 134400, Note_on_c, 2, 69, 92
8, 134400, Note_on_c, 2, 81, 92
8, 134849, Note_on_c, 2, 69, 0
8, 134849, Note_on_c, 2, 81, 0
8, 134880, Note_on_c, 2, 69, 92
8, 134880, Note_on_c, 2, 81, 92
8, 135329, Note_on_c, 2, 69, 0
8, 135329, Note_on_c, 2, 81, 0
8, 135360, Note_on_c, 2, 69, 92
8, 135360, Note_on_c, 2, 81, 92
8, 135809, Note_on_c, 2, 69, 0
8, 135809, Note_on_c, 2, 81, 0
8, 135840, Note_on_c, 2, 81, 84
8, 135840, Note_on_c, 2, 69, 84
8, 135959, Note_on_c, 2, 81, 0
8, 135959, Note_on_c, 2, 69, 0
8, 139680, Note_on_c, 2, 65, 76
8, 139680, Note_on_c, 2, 70, 76
8, 139799, Note_on_c, 2, 65, 0
8, 139799, Note_on_c, 2, 70, 0
8, 139920, Note_on_c, 2, 70, 76
8, 139920, Note_on_c, 2, 74, 76
8, 140039, Note_on_c, 2, 70, 0
8, 140039, Note_on_c, 2, 74, 0
8, 140160, Note_on_c, 2, 72, 76
8, 140160, Note_on_c, 2, 67, 76
8, 140279, Note_on_c, 2, 72, 0
8, 140279, Note_on_c, 2, 67, 0
8, 140880, Note_on_c, 2, 69, 76
8, 140880, Note_on_c, 2, 77, 76
8, 140999, Note_on_c, 2, 69, 0
8, 140999, Note_on_c, 2, 77, 0
8, 141120, Note_on_c, 2, 74, 76
8, 141120, Note_on_c, 2, 70, 76
8, 141239, Note_on_c, 2, 74, 0
8, 141239, Note_on_c, 2, 70, 0
8, 141360, Note_on_c, 2, 72, 76
8, 141360, Note_on_c, 2, 69, 76
8, 141479, Note_on_c, 2, 72, 0
8, 141479, Note_on_c, 2, 69, 0
8, 141600, Note_on_c, 2, 74, 76
8, 141600, Note_on_c, 2, 70, 76
8, 141839, Note_on_c, 2, 74, 0
8, 141839, Note_on_c, 2, 70, 0
8, 142080, Note_on_c, 2, 74, 76
8, 142080, Note_on_c, 2, 70, 76
8, 142319, Note_on_c, 2, 74, 0
8, 142319, Note_on_c, 2, 70, 0
8, 142560, Note_on_c, 2, 72, 76
8, 142560, Note_on_c, 2, 75, 76
8, 142799, Note_on_c, 2, 72, 0
8, 142799, Note_on_c, 2, 75, 0
8, 143040, Note_on_c, 2, 72, 76
8, 143040, Note_on_c, 2, 75, 76
8, 143279, Note_on_c, 2, 72, 0
8, 143279, Note_on_c, 2, 75, 0
8, 143520, Note_on_c, 2, 74, 76
8, 143520, Note_on_c, 2, 70, 76
8, 143759, Note_on_c, 2, 74, 0
8, 143759, Note_on_c, 2, 70, 0
8, 144000, Note_on_c, 2, 74, 76
8, 144000, Note_on_c, 2, 70, 76
8, 144239, Note_on_c, 2, 74, 0
8, 144239, Note_on_c, 2, 70, 0
8, 144480, Note_on_c, 2, 68, 76
8, 144480, Note_on_c, 2, 74, 76
8, 144719, Note_on_c, 2, 68, 0
8, 144719, Note_on_c, 2, 74, 0
8, 144960, Note_on_c, 2, 68, 76
8, 144960, Note_on_c, 2, 74, 76
8, 145199, Note_on_c, 2, 68, 0
8, 145199, Note_on_c, 2, 74, 0
8, 145440, Note_on_c, 2, 75, 76
8, 145440, Note_on_c, 2, 67, 76
8, 145679, Note_on_c, 2, 75, 0
8, 145679, Note_on_c, 2, 67, 0
8, 145920, Note_on_c, 2, 75, 76
8, 145920, Note_on_c, 2, 67, 76
8, 146159, Note_on_c, 2, 75, 0
8, 146159, Note_on_c, 2, 67, 0
8, 146400, Note_on_c, 2, 68, 76
8, 146400, Note_on_c, 2, 77, 76
8, 146639, Note_on_c, 2, 68, 0
8, 146639, Note_on_c, 2, 77, 0
8, 146880, Note_on_c, 2, 77, 76
8, 146880, Note_on_c, 2, 68, 76
8, 147119, Note_on_c, 2, 77, 0
8, 147119, Note_on_c, 2, 68, 0
8, 147360, Note_on_c, 2, 75, 52
8, 147464, Note_on_c, 2, 75, 0
8, 147480, Note_on_c, 2, 79, 52
8, 147584, Note_on_c, 2, 79, 0
8, 147600, Note_on_c, 2, 70, 52
8, 147704, Note_on_c, 2, 70, 0
8, 147720, Note_on_c, 2, 75, 52
8, 147824, Note_on_c, 2, 75, 0
8, 147840, Note_on_c, 2, 67, 52
8, 147944, Note_on_c, 2, 67, 0
8, 147960, Note_on_c, 2, 70, 52
8, 148064, Note_on_c, 2, 70, 0
8, 148080, Note_on_c, 2, 63, 52
8, 148184, Note_on_c, 2, 63, 0
8, 148200, Note_on_c, 2, 67, 52
8, 148319, Note_on_c, 2, 67, 0
8, 149280, Note_on_c, 2, 69, 76
8, 149384, Note_on_c, 2, 69, 0
8, 149400, Note_on_c, 2, 72, 76
8, 149504, Note_on_c, 2, 72, 0
8, 149520, Note_on_c, 2, 63, 76
8, 149624, Note_on_c, 2, 63, 0
8, 149640, Note_on_c, 2, 69, 76
8, 149744, Note_on_c, 2, 69, 0
8, 149760, Note_on_c, 2, 60, 76
8, 149864, Note_on_c, 2, 60, 0
8, 149880, Note_on_c, 2, 63, 76
8, 149880, Note_on_c, 2, 75, 76
8, 149984, Note_on_c, 2, 63, 0
8, 149984, Note_on_c, 2, 75, 0
8, 150000, Note_on_c, 2, 69, 76
8, 150000, Note_on_c, 2, 57, 76
8, 150104, Note_on_c, 2, 69, 0
8, 150104, Note_on_c, 2, 57, 0
8, 150120, Note_on_c, 2, 60, 76
8, 150120, Note_on_c, 2, 72, 76
8, 150224, Note_on_c, 2, 60, 0
8, 150224, Note_on_c, 2, 72, 0
8, 150240, Note_on_c, 2, 69, 84
8, 150240, Note_on_c, 2, 72, 84
8, 150719, Note_on_c, 2, 69, 0
8, 150719, Note_on_c, 2, 72, 0
8, 150720, Note_on_c, 2, 72, 84
8, 150720, Note_on_c, 2, 69, 84
8, 150824, Note_on_c, 2, 72, 0
8, 150824, Note_on_c, 2, 69, 0
8, 150840, Note_on_c, 2, 69, 84
8, 150840, Note_on_c, 2, 72, 84
8, 150944, Note_on_c, 2, 69, 0
8, 150944, Note_on_c, 2, 72, 0
8, 150960, Note_on_c, 2, 69, 84
8, 150960, Note_on_c, 2, 72, 84
8, 151064, Note_on_c, 2, 69, 0
8, 151064, Note_on_c, 2, 72, 0
8, 151080, Note_on_c, 2, 72, 84
8, 151080, Note_on_c, 2, 69, 84
8, 151184, Note_on_c, 2, 72, 0
8, 151184, Note_on_c, 2, 69, 0
8, 151200, Note_on_c, 2, 72, 84
8, 151200, Note_on_c, 2, 69, 84
8, 151304, Note_on_c, 2, 72, 0
8, 151304, Note_on_c, 2, 69, 0
8, 151320, Note_on_c, 2, 72, 84
8, 151320, Note_on_c, 2, 75, 84
8, 151424, Note_on_c, 2, 72, 0
8, 151424, Note_on_c, 2, 75, 0
8, 151440, Note_on_c, 2, 72, 84
8, 151440, Note_on_c, 2, 75, 84
8, 151544, Note_on_c, 2, 72, 0
8, 151544, Note_on_c, 2, 75, 0
8, 151560, Note_on_c, 2, 72, 84
8, 151560, Note_on_c, 2, 75, 84
8, 151664, Note_on_c, 2, 72, 0
8, 151664, Note_on_c, 2, 75, 0
8, 151680, Note_on_c, 2, 75, 84
8, 151680, Note_on_c, 2, 72, 84
8, 151784, Note_on_c, 2, 75, 0
8, 151784, Note_on_c, 2, 72, 0
8, 151800, Note_on_c, 2, 77, 76
8, 151919, Note_on_c, 2, 77, 0
8, 151920, Note_on_c, 2, 75, 68
8, 152039, Note_on_c, 2, 75, 0
8, 152040, Note_on_c, 2, 72, 60
8, 152159, Note_on_c, 2, 72, 0
8, 152160, Note_on_c, 2, 50, 52
8, 152160, Note_on_c, 2, 70, 48
8, 152239, Note_on_c, 2, 50, 0
8, 152240, Note_on_c, 2, 53, 52
8, 152319, Note_on_c, 2, 53, 0
8, 152320, Note_on_c, 2, 58, 52
8, 152387, Note_on_c, 2, 58, 0
8, 152400, Note_on_c, 2, 50, 52
8, 152479, Note_on_c, 2, 50, 0
8, 152480, Note_on_c, 2, 53, 52
8, 152504, Note_on_c, 2, 70, 0
8, 152520, Note_on_c, 2, 70, 48
8, 152559, Note_on_c, 2, 53, 0
8, 152560, Note_on_c, 2, 58, 52
8, 152627, Note_on_c, 2, 58, 0
8, 152639, Note_on_c, 2, 70, 0
8, 152640, Note_on_c, 2, 51, 52
8, 152640, Note_on_c, 2, 69, 48
8, 152719, Note_on_c, 2, 51, 0
8, 152720, Note_on_c, 2, 53, 52
8, 152759, Note_on_c, 2, 69, 0
8, 152760, Note_on_c, 2, 77, 48
8, 152799, Note_on_c, 2, 53, 0
8, 152800, Note_on_c, 2, 57, 52
8, 152867, Note_on_c, 2, 57, 0
8, 152879, Note_on_c, 2, 77, 0
8, 152880, Note_on_c, 2, 51, 52
8, 152880, Note_on_c, 2, 75, 48
8, 152959, Note_on_c, 2, 51, 0
8, 152960, Note_on_c, 2, 53, 52
8, 152999, Note_on_c, 2, 75, 0
8, 153000, Note_on_c, 2, 72, 48
8, 153039, Note_on_c, 2, 53, 0
8, 153040, Note_on_c, 2, 57, 52
8, 153107, Note_on_c, 2, 57, 0
8, 153119, Note_on_c, 2, 72, 0
8, 153120, Note_on_c, 2, 50, 52
8, 153120, Note_on_c, 2, 74, 48
8, 153199, Note_on_c, 2, 50, 0
8, 153200, Note_on_c, 2, 53, 52
8, 153239, Note_on_c, 2, 74, 0
8, 153240, Note_on_c, 2, 70, 48
8, 153279, Note_on_c, 2, 53, 0
8, 153280, Note_on_c, 2, 58, 52
8, 153347, Note_on_c, 2, 58, 0
8, 153359, Note_on_c, 2, 70, 0
8, 153360, Note_on_c, 2, 69, 48
8, 153360, Note_on_c, 2, 50, 52
8, 153439, Note_on_c, 2, 50, 0
8, 153440, Note_on_c, 2, 53, 52
8, 153479, Note_on_c, 2, 69, 0
8, 153480, Note_on_c, 2, 70, 48
8, 153519, Note_on_c, 2, 53, 0
8, 153520, Note_on_c, 2, 58, 52
8, 153587, Note_on_c, 2, 58, 0
8, 153599, Note_on_c, 2, 70, 0
8, 153600, Note_on_c, 2, 71, 48
8, 153600, Note_on_c, 2, 53, 52
8, 153679, Note_on_c, 2, 53, 0
8, 153680, Note_on_c, 2, 57, 52
8, 153719, Note_on_c, 2, 71, 0
8, 153720, Note_on_c, 2, 72, 48
8, 153759, Note_on_c, 2, 57, 0
8, 153760, Note_on_c, 2, 60, 52
8, 153824, Note_on_c, 2, 72, 0
8, 153827, Note_on_c, 2, 60, 0
8, 153840, Note_on_c, 2, 69, 48
8, 153840, Note_on_c, 2, 53, 52
8, 153919, Note_on_c, 2, 53, 0
8, 153920, Note_on_c, 2, 57, 52
8, 153929, Note_on_c, 2, 69, 0
8, 153960, Note_on_c, 2, 65, 48
8, 153999, Note_on_c, 2, 57, 0
8, 154000, Note_on_c, 2, 60, 52
8, 154049, Note_on_c, 2, 65, 0
8, 154067, Note_on_c, 2, 60, 0
8, 154080, Note_on_c, 2, 52, 52
8, 154159, Note_on_c, 2, 52, 0
8, 154160, Note_on_c, 2, 55, 52
8, 154239, Note_on_c, 2, 55, 0
8, 154240, Note_on_c, 2, 60, 52
8, 154307, Note_on_c, 2, 60, 0
8, 154320, Note_on_c, 2, 52, 52
8, 154399, Note_on_c, 2, 52, 0
8, 154400, Note_on_c, 2, 55, 52
8, 154479, Note_on_c, 2, 55, 0
8, 154480, Note_on_c, 2, 60, 52
8, 154547, Note_on_c, 2, 60, 0
8, 154560, Note_on_c, 2, 53, 52
8, 154639, Note_on_c, 2, 53, 0
8, 154640, Note_on_c, 2, 57, 52
8, 154719, Note_on_c, 2, 57, 0
8, 154720, Note_on_c, 2, 60, 52
8, 154787, Note_on_c, 2, 60, 0
8, 154800, Note_on_c, 2, 53, 52
8, 154879, Note_on_c, 2, 53, 0
8, 154880, Note_on_c, 2, 57, 52
8, 154959, Note_on_c, 2, 57, 0
8, 154960, Note_on_c, 2, 60, 52
8, 155027, Note_on_c, 2, 60, 0
8, 155040, Note_on_c, 2, 53, 52
8, 155119, Note_on_c, 2, 53, 0
8, 155120, Note_on_c, 2, 57, 52
8, 155199, Note_on_c, 2, 57, 0
8, 155200, Note_on_c, 2, 60, 52
8, 155267, Note_on_c, 2, 60, 0
8, 155280, Note_on_c, 2, 53, 52
8, 155359, Note_on_c, 2, 53, 0
8, 155360, Note_on_c, 2, 58, 52
8, 155439, Note_on_c, 2, 58, 0
8, 155440, Note_on_c, 2, 60, 52
8, 155507, Note_on_c, 2, 60, 0
8, 155520, Note_on_c, 2, 57, 52
8, 155639, Note_on_c, 2, 57, 0
8, 156000, Note_on_c, 2, 70, 52
8, 156479, Note_on_c, 2, 70, 0
8, 156480, Note_on_c, 2, 72, 52
8, 156959, Note_on_c, 2, 72, 0
8, 156960, Note_on_c, 2, 74, 52
8, 157439, Note_on_c, 2, 74, 0
8, 157440, Note_on_c, 2, 72, 52
8, 157904, Note_on_c, 2, 72, 0
8, 157920, Note_on_c, 2, 72, 52
8, 158264, Note_on_c, 2, 72, 0
8, 158280, Note_on_c, 2, 72, 52
8, 158384, Note_on_c, 2, 72, 0
8, 158400, Note_on_c, 2, 72, 52
8, 158519, Note_on_c, 2, 72, 0
8, 158640, Note_on_c, 2, 72, 52
8, 158759, Note_on_c, 2, 72, 0
8, 158880, Note_on_c, 2, 72, 52
8, 158999, Note_on_c, 2, 72, 0
8, 159120, Note_on_c, 2, 72, 52
8, 159239, Note_on_c, 2, 72, 0
8, 159358, Control_c, 2, 11, 96
8, 159360, Note_on_c, 2, 65, 68
8, 159719, Note_on_c, 2, 65, 0
8, 159720, Note_on_c, 2, 66, 68
8, 159720, Note_on_c, 2, 62, 68
8, 159839, Note_on_c, 2, 66, 0
8, 159839, Note_on_c, 2, 62, 0
8, 159840, Control_c, 2, 11, 96
8, 159840, Note_on_c, 2, 63, 68
8, 159840, Note_on_c, 2, 67, 68
8, 159867, Control_c, 2, 11, 99
8, 159893, Control_c, 2, 11, 103
8, 159920, Control_c, 2, 11, 106
8, 159947, Control_c, 2, 11, 110
8, 159973, Control_c, 2, 11, 113
8, 160000, Control_c, 2, 11, 117
8, 160027, Control_c, 2, 11, 120
8, 160053, Control_c, 2, 11, 127
8, 160080, Control_c, 2, 11, 127
8, 160107, Control_c, 2, 11, 124
8, 160133, Control_c, 2, 11, 120
8, 160160, Control_c, 2, 11, 117
8, 160187, Control_c, 2, 11, 113
8, 160199, Note_on_c, 2, 63, 0
8, 160199, Note_on_c, 2, 67, 0
8, 160200, Note_on_c, 2, 65, 68
8, 160200, Note_on_c, 2, 62, 68
8, 160213, Control_c, 2, 11, 110
8, 160240, Control_c, 2, 11, 106
8, 160267, Control_c, 2, 11, 103
8, 160293, Control_c, 2, 11, 96
8, 160304, Note_on_c, 2, 65, 0
8, 160304, Note_on_c, 2, 62, 0
8, 160320, Note_on_c, 2, 60, 68
8, 160320, Note_on_c, 2, 63, 68
8, 160559, Note_on_c, 2, 60, 0
8, 160559, Note_on_c, 2, 63, 0
8, 160678, Control_c, 2, 11, 127
8, 160680, Note_on_c, 2, 65, 76
8, 160680, Note_on_c, 2, 77, 76
8, 160784, Note_on_c, 2, 65, 0
8, 160784, Note_on_c, 2, 77, 0
8, 160800, Note_on_c, 2, 77, 76
8, 160800, Note_on_c, 2, 65, 76
8, 160889, Note_on_c, 2, 77, 0
8, 160889, Note_on_c, 2, 65, 0
8, 160920, Note_on_c, 2, 65, 76
8, 160920, Note_on_c, 2, 77, 76
8, 161009, Note_on_c, 2, 65, 0
8, 161009, Note_on_c, 2, 77, 0
8, 161040, Note_on_c, 2, 65, 76
8, 161040, Note_on_c, 2, 77, 76
8, 161129, Note_on_c, 2, 65, 0
8, 161129, Note_on_c, 2, 77, 0
8, 161160, Note_on_c, 2, 65, 76
8, 161160, Note_on_c, 2, 77, 76
8, 161249, Note_on_c, 2, 65, 0
8, 161249, Note_on_c, 2, 77, 0
8, 161280, Note_on_c, 2, 65, 76
8, 161280, Note_on_c, 2, 77, 76
8, 161519, Note_on_c, 2, 65, 0
8, 161519, Note_on_c, 2, 77, 0
8, 161638, Control_c, 2, 11, 96
8, 161640, Note_on_c, 2, 66, 68
8, 161640, Note_on_c, 2, 62, 68
8, 161759, Note_on_c, 2, 66, 0
8, 161759, Note_on_c, 2, 62, 0
8, 161760, Note_on_c, 2, 63, 68
8, 161760, Note_on_c, 2, 67, 68
8, 161760, Control_c, 2, 11, 96
8, 161787, Control_c, 2, 11, 99
8, 161813, Control_c, 2, 11, 103
8, 161840, Control_c, 2, 11, 106
8, 161864, Note_on_c, 2, 63, 0
8, 161864, Note_on_c, 2, 67, 0
8, 161867, Control_c, 2, 11, 110
8, 161880, Note_on_c, 2, 63, 68
8, 161880, Note_on_c, 2, 67, 68
8, 161893, Control_c, 2, 11, 113
8, 161920, Control_c, 2, 11, 117
8, 161947, Control_c, 2, 11, 120
8, 161973, Control_c, 2, 11, 127
8, 161999, Note_on_c, 2, 63, 0
8, 161999, Note_on_c, 2, 67, 0
8, 162000, Control_c, 2, 11, 127
8, 162027, Control_c, 2, 11, 124
8, 162053, Control_c, 2, 11, 120
8, 162080, Control_c, 2, 11, 117
8, 162107, Control_c, 2, 11, 113
8, 162120, Note_on_c, 2, 62, 68
8, 162120, Note_on_c, 2, 65, 68
8, 162133, Control_c, 2, 11, 110
8, 162160, Control_c, 2, 11, 106
8, 162187, Control_c, 2, 11, 103
8, 162213, Control_c, 2, 11, 96
8, 162239, Note_on_c, 2, 62, 0
8, 162239, Note_on_c, 2, 65, 0
8, 162240, Note_on_c, 2, 63, 68
8, 162240, Note_on_c, 2, 60, 68
8, 162344, Note_on_c, 2, 63, 0
8, 162344, Note_on_c, 2, 60, 0
8, 162360, Note_on_c, 2, 60, 68
8, 162360, Note_on_c, 2, 63, 68
8, 162479, Note_on_c, 2, 60, 0
8, 162479, Note_on_c, 2, 63, 0
8, 162598, Control_c, 2, 11, 127
8, 162600, Note_on_c, 2, 77, 76
8, 162600, Note_on_c, 2, 65, 76
8, 162704, Note_on_c, 2, 77, 0
8, 162704, Note_on_c, 2, 65, 0
8, 162720, Note_on_c, 2, 65, 76
8, 162720, Note_on_c, 2, 77, 76
8, 162824, Note_on_c, 2, 65, 0
8, 162824, Note_on_c, 2, 77, 0
8, 162840, Note_on_c, 2, 65, 76
8, 162840, Note_on_c, 2, 77, 76
8, 162944, Note_on_c, 2, 65, 0
8, 162944, Note_on_c, 2, 77, 0
8, 162960, Note_on_c, 2, 77, 76
8, 162960, Note_on_c, 2, 65, 76
8, 163064, Note_on_c, 2, 77, 0
8, 163064, Note_on_c, 2, 65, 0
8, 163080, Note_on_c, 2, 65, 76
8, 163080, Note_on_c, 2, 77, 76
8, 163184, Note_on_c, 2, 65, 0
8, 163184, Note_on_c, 2, 77, 0
8, 163200, Note_on_c, 2, 77, 76
8, 163200, Note_on_c, 2, 65, 76
8, 163289, Note_on_c, 2, 77, 0
8, 163289, Note_on_c, 2, 65, 0
8, 163320, Note_on_c, 2, 77, 76
8, 163320, Note_on_c, 2, 65, 76
8, 163409, Note_on_c, 2, 77, 0
8, 163409, Note_on_c, 2, 65, 0
8, 163560, Note_on_c, 2, 65, 76
8, 163560, Note_on_c, 2, 77, 76
8, 163664, Note_on_c, 2, 65, 0
8, 163664, Note_on_c, 2, 77, 0
8, 163680, Note_on_c, 2, 65, 76
8, 163680, Note_on_c, 2, 77, 76
8, 163784, Note_on_c, 2, 65, 0
8, 163784, Note_on_c, 2, 77, 0
8, 163800, Note_on_c, 2, 77, 76
8, 163800, Note_on_c, 2, 65, 76
8, 163904, Note_on_c, 2, 77, 0
8, 163904, Note_on_c, 2, 65, 0
8, 163920, Note_on_c, 2, 77, 76
8, 163920, Note_on_c, 2, 65, 76
8, 164024, Note_on_c, 2, 77, 0
8, 164024, Note_on_c, 2, 65, 0
8, 164040, Note_on_c, 2, 65, 76
8, 164040, Note_on_c, 2, 77, 76
8, 164144, Note_on_c, 2, 65, 0
8, 164144, Note_on_c, 2, 77, 0
8, 164160, Note_on_c, 2, 77, 76
8, 164160, Note_on_c, 2, 65, 76
8, 164264, Note_on_c, 2, 77, 0
8, 164264, Note_on_c, 2, 65, 0
8, 164280, Note_on_c, 2, 77, 76
8, 164280, Note_on_c, 2, 65, 76
8, 164399, Note_on_c, 2, 77, 0
8, 164399, Note_on_c, 2, 65, 0
8, 164520, Note_on_c, 2, 77, 76
8, 164520, Note_on_c, 2, 65, 76
8, 164624, Note_on_c, 2, 77, 0
8, 164624, Note_on_c, 2, 65, 0
8, 164640, Note_on_c, 2, 65, 76
8, 164640, Note_on_c, 2, 77, 76
8, 164744, Note_on_c, 2, 65, 0
8, 164744, Note_on_c, 2, 77, 0
8, 164760, Note_on_c, 2, 65, 76
8, 164760, Note_on_c, 2, 77, 76
8, 164864, Note_on_c, 2, 65, 0
8, 164864, Note_on_c, 2, 77, 0
8, 164880, Note_on_c, 2, 65, 76
8, 164880, Note_on_c, 2, 77, 76
8, 164984, Note_on_c, 2, 65, 0
8, 164984, Note_on_c, 2, 77, 0
8, 165000, Note_on_c, 2, 65, 76
8, 165000, Note_on_c, 2, 77, 76
8, 165104, Note_on_c, 2, 65, 0
8, 165104, Note_on_c, 2, 77, 0
8, 165120, Note_on_c, 2, 70, 84
8, 165120, Note_on_c, 2, 73, 84
8, 166064, Note_on_c, 2, 70, 0
8, 166064, Note_on_c, 2, 73, 0
8, 166080, Note_on_c, 2, 67, 84
8, 166080, Note_on_c, 2, 70, 84
8, 166304, Note_on_c, 2, 67, 0
8, 166304, Note_on_c, 2, 70, 0
8, 166320, Note_on_c, 2, 70, 92
8, 166320, Note_on_c, 2, 67, 92
8, 166559, Note_on_c, 2, 70, 0
8, 166559, Note_on_c, 2, 67, 0
8, 166800, Note_on_c, 2, 70, 92
8, 166800, Note_on_c, 2, 67, 92
8, 167039, Note_on_c, 2, 70, 0
8, 167039, Note_on_c, 2, 67, 0
8, 167280, Note_on_c, 2, 70, 92
8, 167280, Note_on_c, 2, 67, 92
8, 167519, Note_on_c, 2, 70, 0
8, 167519, Note_on_c, 2, 67, 0
8, 167760, Note_on_c, 2, 67, 92
8, 167760, Note_on_c, 2, 70, 92
8, 167999, Note_on_c, 2, 67, 0
8, 167999, Note_on_c, 2, 70, 0
8, 169920, Note_on_c, 2, 70, 84
8, 169920, Note_on_c, 2, 67, 84
8, 170144, Note_on_c, 2, 70, 0
8, 170144, Note_on_c, 2, 67, 0
8, 170160, Note_on_c, 2, 70, 92
8, 170160, Note_on_c, 2, 67, 92
8, 170399, Note_on_c, 2, 70, 0
8, 170399, Note_on_c, 2, 67, 0
8, 170640, Note_on_c, 2, 70, 92
8, 170640, Note_on_c, 2, 67, 92
8, 170879, Note_on_c, 2, 70, 0
8, 170879, Note_on_c, 2, 67, 0
8, 171120, Note_on_c, 2, 67, 92
8, 171120, Note_on_c, 2, 70, 92
8, 171359, Note_on_c, 2, 67, 0
8, 171359, Note_on_c, 2, 70, 0
8, 171600, Note_on_c, 2, 67, 92
8, 171600, Note_on_c, 2, 70, 92
8, 171839, Note_on_c, 2, 67, 0
8, 171839, Note_on_c, 2, 70, 0
8, 175800, Note_on_c, 2, 74, 84
8, 175800, Note_on_c, 2, 70, 84
8, 175904, Note_on_c, 2, 74, 0
8, 175904, Note_on_c, 2, 70, 0
8, 175920, Note_on_c, 2, 74, 84
8, 175920, Note_on_c, 2, 70, 84
8, 176024, Note_on_c, 2, 74, 0
8, 176024, Note_on_c, 2, 70, 0
8, 176040, Note_on_c, 2, 70, 84
8, 176040, Note_on_c, 2, 74, 84
8, 176144, Note_on_c, 2, 70, 0
8, 176144, Note_on_c, 2, 74, 0
8, 176160, Note_on_c, 2, 70, 84
8, 176160, Note_on_c, 2, 79, 84
8, 176264, Note_on_c, 2, 70, 0
8, 176264, Note_on_c, 2, 79, 0
8, 176280, Note_on_c, 2, 70, 84
8, 176280, Note_on_c, 2, 79, 84
8, 176384, Note_on_c, 2, 70, 0
8, 176384, Note_on_c, 2, 79, 0
8, 176400, Note_on_c, 2, 75, 84
8, 176400, Note_on_c, 2, 69, 84
8, 176504, Note_on_c, 2, 75, 0
8, 176504, Note_on_c, 2, 69, 0
8, 176520, Note_on_c, 2, 75, 84
8, 176520, Note_on_c, 2, 69, 84
8, 176624, Note_on_c, 2, 75, 0
8, 176624, Note_on_c, 2, 69, 0
8, 176640, Note_on_c, 2, 74, 84
8, 176640, Note_on_c, 2, 70, 84
8, 176759, Note_on_c, 2, 74, 0
8, 176759, Note_on_c, 2, 70, 0
8, 177600, Note_on_c, 2, 70, 84
8, 177689, Note_on_c, 2, 70, 0
8, 177720, Note_on_c, 2, 74, 84
8, 177809, Note_on_c, 2, 74, 0
8, 177840, Note_on_c, 2, 67, 84
8, 177929, Note_on_c, 2, 67, 0
8, 177960, Note_on_c, 2, 72, 84
8, 178049, Note_on_c, 2, 72, 0
8, 178080, Note_on_c, 2, 65, 84
8, 178169, Note_on_c, 2, 65, 0
8, 178200, Note_on_c, 2, 70, 84
8, 178289, Note_on_c, 2, 70, 0
8, 178320, Note_on_c, 2, 63, 84
8, 178409, Note_on_c, 2, 63, 0
8, 178440, Note_on_c, 2, 69, 84
8, 178529, Note_on_c, 2, 69, 0
8, 178560, Note_on_c, 2, 70, 84
8, 178560, Note_on_c, 2, 62, 84
8, 178679, Note_on_c, 2, 70, 0
8, 178679, Note_on_c, 2, 62, 0
8, 179520, Note_on_c, 2, 70, 84
8, 179609, Note_on_c, 2, 70, 0
8, 179640, Note_on_c, 2, 74, 84
8, 179729, Note_on_c, 2, 74, 0
8, 179760, Note_on_c, 2, 67, 84
8, 179849, Note_on_c, 2, 67, 0
8, 179880, Note_on_c, 2, 72, 84
8, 179969, Note_on_c, 2, 72, 0
8, 180000, Note_on_c, 2, 65, 84
8, 180089, Note_on_c, 2, 65, 0
8, 180120, Note_on_c, 2, 70, 84
8, 180209, Note_on_c, 2, 70, 0
8, 180240, Note_on_c, 2, 63, 84
8, 180329, Note_on_c, 2, 63, 0
8, 180360, Note_on_c, 2, 69, 84
8, 180449, Note_on_c, 2, 69, 0
8, 180480, Note_on_c, 2, 70, 84
8, 180480, Note_on_c, 2, 62, 84
8, 180584, Note_on_c, 2, 70, 0
8, 180584, Note_on_c, 2, 62, 0
8, 180600, Note_on_c, 2, 70, 84
8, 180600, Note_on_c, 2, 62, 84
8, 180719, Note_on_c, 2, 70, 0
8, 180719, Note_on_c, 2, 62, 0
8, 180840, Note_on_c, 2, 74, 84
8, 180840, Note_on_c, 2, 62, 84
8, 180944, Note_on_c, 2, 74, 0
8, 180944, Note_on_c, 2, 62, 0
8, 180960, Note_on_c, 2, 70, 84
8, 180960, Note_on_c, 2, 62, 84
8, 181064, Note_on_c, 2, 70, 0
8, 181064, Note_on_c, 2, 62, 0
8, 181080, Note_on_c, 2, 70, 84
8, 181080, Note_on_c, 2, 62, 84
8, 181199, Note_on_c, 2, 70, 0
8, 181199, Note_on_c, 2, 62, 0
8, 181320, Note_on_c, 2, 74, 84
8, 181320, Note_on_c, 2, 62, 84
8, 181424, Note_on_c, 2, 74, 0
8, 181424, Note_on_c, 2, 62, 0
8, 181440, Note_on_c, 2, 70, 84
8, 181440, Note_on_c, 2, 62, 84
8, 181544, Note_on_c, 2, 70, 0
8, 181544, Note_on_c, 2, 62, 0
8, 181560, Note_on_c, 2, 70, 84
8, 181560, Note_on_c, 2, 62, 84
8, 181679, Note_on_c, 2, 70, 0
8, 181679, Note_on_c, 2, 62, 0
8, 181800, Note_on_c, 2, 74, 84
8, 181800, Note_on_c, 2, 62, 84
8, 181904, Note_on_c, 2, 74, 0
8, 181904, Note_on_c, 2, 62, 0
8, 181920, Note_on_c, 2, 70, 84
8, 181920, Note_on_c, 2, 62, 84
8, 182024, Note_on_c, 2, 70, 0
8, 182024, Note_on_c, 2, 62, 0
8, 182040, Note_on_c, 2, 74, 84
8, 182040, Note_on_c, 2, 62, 84
8, 182144, Note_on_c, 2, 74, 0
8, 182144, Note_on_c, 2, 62, 0
8, 182160, Note_on_c, 2, 70, 84
8, 182160, Note_on_c, 2, 62, 84
8, 182264, Note_on_c, 2, 70, 0
8, 182264, Note_on_c, 2, 62, 0
8, 182280, Note_on_c, 2, 74, 84
8, 182280, Note_on_c, 2, 62, 84
8, 182384, Note_on_c, 2, 74, 0
8, 182384, Note_on_c, 2, 62, 0
8, 182400, Note_on_c, 2, 70, 52
8, 182400, Note_on_c, 2, 62, 52
8, 182519, Note_on_c, 2, 70, 0
8, 182519, Note_on_c, 2, 62, 0
8, 188400, Note_on_c, 2, 75, 76
8, 188400, Note_on_c, 2, 72, 76
8, 188639, Note_on_c, 2, 75, 0
8, 188639, Note_on_c, 2, 72, 0
8, 188880, Note_on_c, 2, 75, 84
8, 188880, Note_on_c, 2, 72, 84
8, 189119, Note_on_c, 2, 75, 0
8, 189119, Note_on_c, 2, 72, 0
8, 189360, Note_on_c, 2, 75, 84
8, 189360, Note_on_c, 2, 72, 84
8, 189599, Note_on_c, 2, 75, 0
8, 189599, Note_on_c, 2, 72, 0
8, 189840, Note_on_c, 2, 75, 84
8, 189840, Note_on_c, 2, 72, 84
8, 190079, Note_on_c, 2, 75, 0
8, 190079, Note_on_c, 2, 72, 0
8, 191760, Note_on_c, 2, 70, 48
8, 191811, Note_on_c, 2, 70, 0
8, 191820, Note_on_c, 2, 69, 48
8, 191871, Note_on_c, 2, 69, 0
8, 191880, Note_on_c, 2, 70, 48
8, 191931, Note_on_c, 2, 70, 0
8, 191940, Note_on_c, 2, 74, 48
8, 191991, Note_on_c, 2, 74, 0
8, 192000, Note_on_c, 2, 70, 48
8, 192051, Note_on_c, 2, 70, 0
8, 192060, Note_on_c, 2, 69, 48
8, 192111, Note_on_c, 2, 69, 0
8, 192120, Note_on_c, 2, 70, 48
8, 192171, Note_on_c, 2, 70, 0
8, 192180, Note_on_c, 2, 74, 48
8, 192231, Note_on_c, 2, 74, 0
8, 192240, Note_on_c, 2, 65, 48
8, 192291, Note_on_c, 2, 65, 0
8, 192300, Note_on_c, 2, 67, 48
8, 192351, Note_on_c, 2, 67, 0
8, 192360, Note_on_c, 2, 69, 48
8, 192411, Note_on_c, 2, 69, 0
8, 192420, Note_on_c, 2, 70, 48
8, 192451, Note_on_c, 2, 70, 0
8, 192460, Note_on_c, 2, 74, 48
8, 192479, Note_on_c, 2, 74, 0
8, 192480, Note_on_c, 2, 72, 48
8, 192531, Note_on_c, 2, 72, 0
8, 192540, Note_on_c, 2, 71, 48
8, 192591, Note_on_c, 2, 71, 0
8, 192600, Note_on_c, 2, 72, 48
8, 192651, Note_on_c, 2, 72, 0
8, 192660, Note_on_c, 2, 75, 48
8, 192711, Note_on_c, 2, 75, 0
8, 192720, Note_on_c, 2, 79, 48
8, 192771, Note_on_c, 2, 79, 0
8, 192780, Note_on_c, 2, 77, 48
8, 192831, Note_on_c, 2, 77, 0
8, 192840, Note_on_c, 2, 75, 48
8, 192891, Note_on_c, 2, 75, 0
8, 192900, Note_on_c, 2, 74, 48
8, 192951, Note_on_c, 2, 74, 0
8, 192960, Note_on_c, 2, 72, 48
8, 193011, Note_on_c, 2, 72, 0
8, 193020, Note_on_c, 2, 70, 48
8, 193071, Note_on_c, 2, 70, 0
8, 193080, Note_on_c, 2, 69, 48
8, 193131, Note_on_c, 2, 69, 0
8, 193140, Note_on_c, 2, 67, 48
8, 193191, Note_on_c, 2, 67, 0
8, 193200, Note_on_c, 2, 69, 44
8, 193200, Note_on_c, 2, 65, 44
8, 193319, Note_on_c, 2, 69, 0
8, 193319, Note_on_c, 2, 65, 0
8, 193440, Note_on_c, 2, 70, 44
8, 193440, Note_on_c, 2, 65, 44
8, 193559, Note_on_c, 2, 70, 0
8, 193559, Note_on_c, 2, 65, 0
8, 193680, Note_on_c, 2, 69, 44
8, 193680, Note_on_c, 2, 65, 44
8, 193799, Note_on_c, 2, 69, 0
8, 193799, Note_on_c, 2, 65, 0
8, 193920, Note_on_c, 2, 70, 84
8, 194384, Note_on_c, 2, 70, 0
8, 194400, Note_on_c, 2, 72, 84
8, 194400, Note_on_c, 2, 70, 84
8, 195104, Note_on_c, 2, 72, 0
8, 195104, Note_on_c, 2, 70, 0
8, 195120, Note_on_c, 2, 69, 84
8, 195120, Note_on_c, 2, 60, 84
8, 195344, Note_on_c, 2, 69, 0
8, 195344, Note_on_c, 2, 60, 0
8, 195360, Note_on_c, 2, 70, 84
8, 195360, Note_on_c, 2, 62, 84
8, 195584, Note_on_c, 2, 70, 0
8, 195584, Note_on_c, 2, 62, 0
8, 195600, Note_on_c, 2, 72, 84
8, 195600, Note_on_c, 2, 69, 84
8, 196064, Note_on_c, 2, 72, 0
8, 196064, Note_on_c, 2, 69, 0
8, 196080, Note_on_c, 2, 69, 84
8, 196080, Note_on_c, 2, 60, 84
8, 196304, Note_on_c, 2, 69, 0
8, 196304, Note_on_c, 2, 60, 0
8, 196320, Note_on_c, 2, 70, 84
8, 196320, Note_on_c, 2, 62, 84
8, 196544, Note_on_c, 2, 70, 0
8, 196544, Note_on_c, 2, 62, 0
8, 196560, Note_on_c, 2, 72, 84
8, 196560, Note_on_c, 2, 69, 84
8, 197024, Note_on_c, 2, 72, 0
8, 197024, Note_on_c, 2, 69, 0
8, 197040, Note_on_c, 2, 72, 84
8, 197040, Note_on_c, 2, 69, 84
8, 197264, Note_on_c, 2, 72, 0
8, 197264, Note_on_c, 2, 69, 0
8, 197280, Note_on_c, 2, 74, 84
8, 197280, Note_on_c, 2, 70, 84
8, 197504, Note_on_c, 2, 74, 0
8, 197504, Note_on_c, 2, 70, 0
8, 197520, Note_on_c, 2, 75, 84
8, 197520, Note_on_c, 2, 72, 84
8, 197984, Note_on_c, 2, 75, 0
8, 197984, Note_on_c, 2, 72, 0
8, 198000, Note_on_c, 2, 63, 84
8, 198000, Note_on_c, 2, 60, 84
8, 198224, Note_on_c, 2, 63, 0
8, 198224, Note_on_c, 2, 60, 0
8, 198240, Note_on_c, 2, 65, 84
8, 198240, Note_on_c, 2, 62, 84
8, 198464, Note_on_c, 2, 65, 0
8, 198464, Note_on_c, 2, 62, 0
8, 198480, Note_on_c, 2, 67, 84
8, 198480, Note_on_c, 2, 64, 84
8, 200624, Note_on_c, 2, 67, 0
8, 200624, Note_on_c, 2, 64, 0
8, 200640, Note_on_c, 2, 66, 92
8, 200640, Note_on_c, 2, 63, 92
8, 200760, Control_c, 2, 11, 112
8, 200795, Control_c, 2, 11, 109
8, 200830, Control_c, 2, 11, 107
8, 200865, Control_c, 2, 11, 104
8, 200900, Control_c, 2, 11, 101
8, 200935, Control_c, 2, 11, 99
8, 200970, Control_c, 2, 11, 96
8, 201005, Control_c, 2, 11, 93
8, 201040, Control_c, 2, 11, 91
8, 201075, Control_c, 2, 11, 88
8, 201110, Control_c, 2, 11, 85
8, 201145, Control_c, 2, 11, 83
8, 201180, Control_c, 2, 11, 80
8, 201215, Control_c, 2, 11, 77
8, 201250, Control_c, 2, 11, 75
8, 201285, Control_c, 2, 11, 72
8, 201320, Control_c, 2, 11, 69
8, 201355, Control_c, 2, 11, 67
8, 201390, Control_c, 2, 11, 64
8, 201425, Control_c, 2, 11, 61
8, 201460, Control_c, 2, 11, 59
8, 201495, Control_c, 2, 11, 56
8, 201530, Control_c, 2, 11, 53
8, 201565, Control_c, 2, 11, 48
8, 201599, Note_on_c, 2, 66, 0
8, 201600, Note_on_c, 2, 65, 92
8, 202079, Note_on_c, 2, 63, 0
8, 202079, Note_on_c, 2, 65, 0
8, 204240, Control_c, 2, 11, 127
8, 204480, Note_on_c, 2, 75, 52
8, 204599, Note_on_c, 2, 75, 0
8, 204600, Note_on_c, 2, 74, 52
8, 204719, Note_on_c, 2, 74, 0
8, 204720, Note_on_c, 2, 75, 52
8, 204839, Note_on_c, 2, 75, 0
8, 204840, Note_on_c, 2, 72, 52
8, 204959, Note_on_c, 2, 72, 0
8, 204960, Note_on_c, 2, 70, 52
8, 205079, Note_on_c, 2, 70, 0
8, 205080, Note_on_c, 2, 74, 52
8, 205199, Note_on_c, 2, 74, 0
8, 205200, Note_on_c, 2, 70, 52
8, 205319, Note_on_c, 2, 70, 0
8, 205320, Note_on_c, 2, 67, 52
8, 205424, Note_on_c, 2, 67, 0
8, 205440, Note_on_c, 2, 65, 52
8, 205559, Note_on_c, 2, 65, 0
8, 205680, Note_on_c, 2, 65, 52
8, 205799, Note_on_c, 2, 65, 0
8, 205920, Note_on_c, 2, 65, 44
8, 206159, Note_on_c, 2, 65, 0
8, 206280, Note_on_c, 2, 74, 52
8, 206280, Note_on_c, 2, 70, 52
8, 206399, Note_on_c, 2, 74, 0
8, 206399, Note_on_c, 2, 70, 0
8, 206400, Note_on_c, 2, 75, 52
8, 206400, Note_on_c, 2, 72, 52
8, 206519, Note_on_c, 2, 75, 0
8, 206519, Note_on_c, 2, 72, 0
8, 206520, Note_on_c, 2, 77, 52
8, 206520, Note_on_c, 2, 74, 52
8, 206639, Note_on_c, 2, 77, 0
8, 206639, Note_on_c, 2, 74, 0
8, 206640, Note_on_c, 2, 79, 52
8, 206640, Note_on_c, 2, 75, 52
8, 206759, Note_on_c, 2, 79, 0
8, 206759, Note_on_c, 2, 75, 0
8, 206760, Note_on_c, 2, 77, 52
8, 206760, Note_on_c, 2, 74, 52
8, 206879, Note_on_c, 2, 77, 0
8, 206879, Note_on_c, 2, 74, 0
8, 206880, Note_on_c, 2, 75, 52
8, 206880, Note_on_c, 2, 72, 52
8, 207119, Note_on_c, 2, 75, 0
8, 207119, Note_on_c, 2, 72, 0
8, 207240, Note_on_c, 2, 72, 52
8, 207240, Note_on_c, 2, 69, 52
8, 207359, Note_on_c, 2, 72, 0
8, 207359, Note_on_c, 2, 69, 0
8, 207360, Note_on_c, 2, 74, 52
8, 207360, Note_on_c, 2, 70, 52
8, 207479, Note_on_c, 2, 74, 0
8, 207479, Note_on_c, 2, 70, 0
8, 207480, Note_on_c, 2, 75, 52
8, 207480, Note_on_c, 2, 72, 52
8, 207599, Note_on_c, 2, 75, 0
8, 207599, Note_on_c, 2, 72, 0
8, 207600, Note_on_c, 2, 77, 52
8, 207600, Note_on_c, 2, 74, 52
8, 207719, Note_on_c, 2, 77, 0
8, 207719, Note_on_c, 2, 74, 0
8, 207720, Note_on_c, 2, 75, 52
8, 207720, Note_on_c, 2, 72, 52
8, 207839, Note_on_c, 2, 75, 0
8, 207839, Note_on_c, 2, 72, 0
8, 207840, Note_on_c, 2, 74, 52
8, 207840, Note_on_c, 2, 70, 52
8, 208079, Note_on_c, 2, 74, 0
8, 208079, Note_on_c, 2, 70, 0
8, 208200, Note_on_c, 2, 62, 44
8, 208200, Note_on_c, 2, 58, 44
8, 208319, Note_on_c, 2, 62, 0
8, 208319, Note_on_c, 2, 58, 0
8, 208320, Note_on_c, 2, 63, 44
8, 208320, Note_on_c, 2, 60, 44
8, 208439, Note_on_c, 2, 63, 0
8, 208439, Note_on_c, 2, 60, 0
8, 208440, Note_on_c, 2, 65, 44
8, 208440, Note_on_c, 2, 62, 44
8, 208559, Note_on_c, 2, 65, 0
8, 208559, Note_on_c, 2, 62, 0
8, 208560, Note_on_c, 2, 67, 44
8, 208560, Note_on_c, 2, 63, 44
8, 208679, Note_on_c, 2, 67, 0
8, 208679, Note_on_c, 2, 63, 0
8, 208680, Note_on_c, 2, 65, 44
8, 208680, Note_on_c, 2, 62, 44
8, 208799, Note_on_c, 2, 65, 0
8, 208799, Note_on_c, 2, 62, 0
8, 208800, Note_on_c, 2, 63, 44
8, 208800, Note_on_c, 2, 60, 44
8, 209039, Note_on_c, 2, 63, 0
8, 209039, Note_on_c, 2, 60, 0
8, 209158, Control_c, 2, 11, 48
8, 209160, Note_on_c, 2, 60, 84
8, 209160, Note_on_c, 2, 57, 84
8, 209279, Note_on_c, 2, 60, 0
8, 209279, Note_on_c, 2, 57, 0
8, 209280, Note_on_c, 2, 62, 84
8, 209280, Note_on_c, 2, 58, 84
8, 209399, Note_on_c, 2, 62, 0
8, 209399, Note_on_c, 2, 58, 0
8, 209400, Note_on_c, 2, 63, 84
8, 209400, Note_on_c, 2, 60, 84
8, 209519, Note_on_c, 2, 63, 0
8, 209519, Note_on_c, 2, 60, 0
8, 209520, Note_on_c, 2, 65, 84
8, 209520, Note_on_c, 2, 62, 84
8, 209639, Note_on_c, 2, 65, 0
8, 209639, Note_on_c, 2, 62, 0
8, 209640, Note_on_c, 2, 63, 84
8, 209640, Note_on_c, 2, 60, 84
8, 209744, Note_on_c, 2, 63, 0
8, 209744, Note_on_c, 2, 60, 0
8, 209760, Note_on_c, 2, 62, 84
8, 209760, Note_on_c, 2, 58, 84
8, 209760, Control_c, 2, 11, 48
8, 209813, Control_c, 2, 11, 50
8, 209867, Control_c, 2, 11, 52
8, 209920, Control_c, 2, 11, 55
8, 209973, Control_c, 2, 11, 57
8, 209999, Note_on_c, 2, 62, 0
8, 209999, Note_on_c, 2, 58, 0
8, 210000, Note_on_c, 2, 62, 84
8, 210000, Note_on_c, 2, 65, 84
8, 210027, Control_c, 2, 11, 59
8, 210080, Control_c, 2, 11, 61
8, 210133, Control_c, 2, 11, 63
8, 210187, Control_c, 2, 11, 66
8, 210239, Note_on_c, 2, 62, 0
8, 210239, Note_on_c, 2, 65, 0
8, 210240, Note_on_c, 2, 63, 84
8, 210240, Note_on_c, 2, 60, 84
8, 210240, Control_c, 2, 11, 68
8, 210293, Control_c, 2, 11, 70
8, 210347, Control_c, 2, 11, 72
8, 210400, Control_c, 2, 11, 74
8, 210453, Control_c, 2, 11, 77
8, 210479, Note_on_c, 2, 63, 0
8, 210479, Note_on_c, 2, 60, 0
8, 210480, Note_on_c, 2, 67, 84
8, 210480, Note_on_c, 2, 64, 84
8, 210507, Control_c, 2, 11, 79
8, 210560, Control_c, 2, 11, 81
8, 210613, Control_c, 2, 11, 83
8, 210667, Control_c, 2, 11, 85
8, 210719, Note_on_c, 2, 67, 0
8, 210719, Note_on_c, 2, 64, 0
8, 210720, Note_on_c, 2, 65, 84
8, 210720, Note_on_c, 2, 62, 84
8, 210720, Control_c, 2, 11, 88
8, 210773, Control_c, 2, 11, 90
8, 210827, Control_c, 2, 11, 92
8, 210880, Control_c, 2, 11, 94
8, 210933, Control_c, 2, 11, 96
8, 210959, Note_on_c, 2, 65, 0
8, 210959, Note_on_c, 2, 62, 0
8, 210960, Note_on_c, 2, 68, 84
8, 210960, Note_on_c, 2, 65, 84
8, 210987, Control_c, 2, 11, 98
8, 211040, Control_c, 2, 11, 101
8, 211093, Control_c, 2, 11, 103
8, 211147, Control_c, 2, 11, 105
8, 211199, Note_on_c, 2, 68, 0
8, 211199, Note_on_c, 2, 65, 0
8, 211200, Note_on_c, 2, 67, 84
8, 211200, Note_on_c, 2, 63, 84
8, 211200, Control_c, 2, 11, 107
8, 211253, Control_c, 2, 11, 109
8, 211307, Control_c, 2, 11, 112
8, 211360, Control_c, 2, 11, 114
8, 211413, Control_c, 2, 11, 116
8, 211424, Note_on_c, 2, 67, 0
8, 211424, Note_on_c, 2, 63, 0
8, 211440, Note_on_c, 2, 67, 84
8, 211440, Note_on_c, 2, 70, 84
8, 211467, Control_c, 2, 11, 118
8, 211520, Control_c, 2, 11, 120
8, 211573, Control_c, 2, 11, 123
8, 211627, Control_c, 2, 11, 127
8, 212624, Note_on_c, 2, 67, 0
8, 212624, Note_on_c, 2, 70, 0
8, 212640, Note_on_c, 2, 70, 84
8, 212640, Note_on_c, 2, 64, 84
8, 212759, Note_on_c, 2, 70, 0
8, 212759, Note_on_c, 2, 64, 0
8, 212880, Note_on_c, 2, 70, 84
8, 212880, Note_on_c, 2, 64, 84
8, 212999, Note_on_c, 2, 70, 0
8, 212999, Note_on_c, 2, 64, 0
8, 213600, Note_on_c, 2, 77, 84
8, 213600, Note_on_c, 2, 65, 84
8, 213719, Note_on_c, 2, 77, 0
8, 213719, Note_on_c, 2, 65, 0
8, 213840, Note_on_c, 2, 77, 84
8, 213840, Note_on_c, 2, 65, 84
8, 213959, Note_on_c, 2, 77, 0
8, 213959, Note_on_c, 2, 65, 0
8, 217680, Note_on_c, 2, 69, 84
8, 217680, Note_on_c, 2, 60, 84
8, 217799, Note_on_c, 2, 69, 0
8, 217799, Note_on_c, 2, 60, 0
8, 217920, Note_on_c, 2, 70, 84
8, 217920, Note_on_c, 2, 62, 84
8, 218039, Note_on_c, 2, 70, 0
8, 218039, Note_on_c, 2, 62, 0
8, 218160, Note_on_c, 2, 72, 84
8, 218160, Note_on_c, 2, 69, 84
8, 218279, Note_on_c, 2, 72, 0
8, 218279, Note_on_c, 2, 69, 0
8, 218400, Note_on_c, 2, 74, 84
8, 218400, Note_on_c, 2, 70, 84
8, 218519, Note_on_c, 2, 74, 0
8, 218519, Note_on_c, 2, 70, 0
8, 218880, Note_on_c, 2, 77, 84
8, 218880, Note_on_c, 2, 69, 84
8, 218999, Note_on_c, 2, 77, 0
8, 218999, Note_on_c, 2, 69, 0
8, 219360, Note_on_c, 2, 70, 84
8, 219479, Note_on_c, 2, 70, 0
8, 219479, End_track
9, 0, Start_track
9, 0, Title_t, "Bassoon"
9, 0, MIDI_port, 0
9, 0, Program_c, 3, 70
9, 0, Control_c, 3, 7, 96
9, 0, Control_c, 3, 10, 65
9, 0, Control_c, 3, 11, 127
9, 1200, Note_on_c, 3, 65, 76
9, 1200, Note_on_c, 3, 53, 76
9, 1319, Note_on_c, 3, 65, 0
9, 1319, Note_on_c, 3, 53, 0
9, 1440, Note_on_c, 3, 58, 76
9, 1440, Note_on_c, 3, 46, 76
9, 1559, Note_on_c, 3, 58, 0
9, 1559, Note_on_c, 3, 46, 0
9, 1680, Note_on_c, 3, 41, 76
9, 1680, Note_on_c, 3, 53, 76
9, 1799, Note_on_c, 3, 41, 0
9, 1799, Note_on_c, 3, 53, 0
9, 6720, Note_on_c, 3, 53, 52
9, 6839, Note_on_c, 3, 53, 0
9, 6840, Note_on_c, 3, 58, 52
9, 6959, Note_on_c, 3, 58, 0
9, 6960, Note_on_c, 3, 62, 52
9, 7079, Note_on_c, 3, 62, 0
9, 7080, Note_on_c, 3, 65, 52
9, 7184, Note_on_c, 3, 65, 0
9, 7200, Note_on_c, 3, 63, 52
9, 7319, Note_on_c, 3, 63, 0
9, 7320, Note_on_c, 3, 62, 52
9, 7439, Note_on_c, 3, 62, 0
9, 7440, Note_on_c, 3, 63, 52
9, 7559, Note_on_c, 3, 63, 0
9, 7560, Note_on_c, 3, 60, 52
9, 7679, Note_on_c, 3, 60, 0
9, 7680, Note_on_c, 3, 58, 52
9, 7799, Note_on_c, 3, 58, 0
9, 7800, Note_on_c, 3, 62, 52
9, 7919, Note_on_c, 3, 62, 0
9, 7920, Note_on_c, 3, 58, 52
9, 8039, Note_on_c, 3, 58, 0
9, 8040, Note_on_c, 3, 55, 52
9, 8144, Note_on_c, 3, 55, 0
9, 8160, Note_on_c, 3, 53, 52
9, 8279, Note_on_c, 3, 53, 0
9, 8400, Note_on_c, 3, 53, 52
9, 8519, Note_on_c, 3, 53, 0
9, 8640, Note_on_c, 3, 53, 52
9, 9104, Note_on_c, 3, 53, 0
9, 9120, Note_on_c, 3, 53, 52
9, 9239, Note_on_c, 3, 53, 0
9, 9360, Note_on_c, 3, 53, 68
9, 9479, Note_on_c, 3, 53, 0
9, 9600, Note_on_c, 3, 58, 84
9, 9651, Note_on_c, 3, 58, 0
9, 9660, Note_on_c, 3, 57, 84
9, 9711, Note_on_c, 3, 57, 0
9, 9720, Note_on_c, 3, 58, 84
9, 9771, Note_on_c, 3, 58, 0
9, 9780, Note_on_c, 3, 62, 84
9, 9831, Note_on_c, 3, 62, 0
9, 9840, Note_on_c, 3, 60, 84
9, 9891, Note_on_c, 3, 60, 0
9, 9900, Note_on_c, 3, 58, 84
9, 9951, Note_on_c, 3, 58, 0
9, 9960, Note_on_c, 3, 57, 84
9, 10011, Note_on_c, 3, 57, 0
9, 10020, Note_on_c, 3, 58, 84
9, 10071, Note_on_c, 3, 58, 0
9, 10080, Note_on_c, 3, 57, 84
9, 10131, Note_on_c, 3, 57, 0
9, 10140, Note_on_c, 3, 55, 84
9, 10191, Note_on_c, 3, 55, 0
9, 10200, Note_on_c, 3, 53, 84
9, 10251, Note_on_c, 3, 53, 0
9, 10260, Note_on_c, 3, 55, 84
9, 10311, Note_on_c, 3, 55, 0
9, 10320, Note_on_c, 3, 53, 84
9, 10371, Note_on_c, 3, 53, 0
9, 10380, Note_on_c, 3, 51, 84
9, 10431, Note_on_c, 3, 51, 0
9, 10440, Note_on_c, 3, 50, 84
9, 10491, Note_on_c, 3, 50, 0
9, 10500, Note_on_c, 3, 51, 84
9, 10551, Note_on_c, 3, 51, 0
9, 10560, Note_on_c, 3, 50, 84
9, 10611, Note_on_c, 3, 50, 0
9, 10620, Note_on_c, 3, 60, 84
9, 10671, Note_on_c, 3, 60, 0
9, 10680, Note_on_c, 3, 58, 84
9, 10731, Note_on_c, 3, 58, 0
9, 10740, Note_on_c, 3, 60, 84
9, 10791, Note_on_c, 3, 60, 0
9, 10800, Note_on_c, 3, 58, 84
9, 10851, Note_on_c, 3, 58, 0
9, 10860, Note_on_c, 3, 57, 84
9, 10911, Note_on_c, 3, 57, 0
9, 10920, Note_on_c, 3, 55, 84
9, 10971, Note_on_c, 3, 55, 0
9, 10980, Note_on_c, 3, 57, 84
9, 11031, Note_on_c, 3, 57, 0
9, 11040, Note_on_c, 3, 55, 84
9, 11091, Note_on_c, 3, 55, 0
9, 11100, Note_on_c, 3, 53, 84
9, 11151, Note_on_c, 3, 53, 0
9, 11160, Note_on_c, 3, 51, 84
9, 11211, Note_on_c, 3, 51, 0
9, 11220, Note_on_c, 3, 50, 84
9, 11271, Note_on_c, 3, 50, 0
9, 11280, Note_on_c, 3, 48, 84
9, 11384, Note_on_c, 3, 48, 0
9, 11400, Note_on_c, 3, 53, 84
9, 11504, Note_on_c, 3, 53, 0
9, 11520, Note_on_c, 3, 46, 84
9, 11759, Note_on_c, 3, 46, 0
9, 12000, Note_on_c, 3, 62, 84
9, 12000, Note_on_c, 3, 58, 84
9, 12239, Note_on_c, 3, 62, 0
9, 12239, Note_on_c, 3, 58, 0
9, 12480, Note_on_c, 3, 60, 84
9, 12480, Note_on_c, 3, 63, 84
9, 12719, Note_on_c, 3, 60, 0
9, 12719, Note_on_c, 3, 63, 0
9, 12960, Note_on_c, 3, 60, 84
9, 12960, Note_on_c, 3, 63, 84
9, 13199, Note_on_c, 3, 60, 0
9, 13199, Note_on_c, 3, 63, 0
9, 13440, Note_on_c, 3, 62, 84
9, 13440, Note_on_c, 3, 58, 84
9, 13679, Note_on_c, 3, 62, 0
9, 13679, Note_on_c, 3, 58, 0
9, 13920, Note_on_c, 3, 52, 84
9, 13920, Note_on_c, 3, 55, 84
9, 14159, Note_on_c, 3, 52, 0
9, 14159, Note_on_c, 3, 55, 0
9, 14400, Note_on_c, 3, 53, 84
9, 14504, Note_on_c, 3, 53, 0
9, 14520, Note_on_c, 3, 60, 84
9, 14624, Note_on_c, 3, 60, 0
9, 14640, Note_on_c, 3, 53, 84
9, 14744, Note_on_c, 3, 53, 0
9, 14760, Note_on_c, 3, 57, 84
9, 14864, Note_on_c, 3, 57, 0
9, 14880, Note_on_c, 3, 50, 84
9, 14984, Note_on_c, 3, 50, 0
9, 15000, Note_on_c, 3, 53, 84
9, 15104, Note_on_c, 3, 53, 0
9, 15120, Note_on_c, 3, 45, 84
9, 15224, Note_on_c, 3, 45, 0
9, 15240, Note_on_c, 3, 47, 84
9, 15344, Note_on_c, 3, 47, 0
9, 15360, Note_on_c, 3, 48, 84
9, 15944, Note_on_c, 3, 48, 0
9, 15960, Note_on_c, 3, 49, 84
9, 16079, Note_on_c, 3, 49, 0
9, 16080, Note_on_c, 3, 48, 84
9, 16199, Note_on_c, 3, 48, 0
9, 16200, Note_on_c, 3, 49, 84
9, 16304, Note_on_c, 3, 49, 0
9, 16320, Note_on_c, 3, 48, 84
9, 16424, Note_on_c, 3, 48, 0
9, 16440, Note_on_c, 3, 58, 84
9, 16559, Note_on_c, 3, 58, 0
9, 16560, Note_on_c, 3, 55, 84
9, 16679, Note_on_c, 3, 55, 0
9, 16680, Note_on_c, 3, 52, 84
9, 16784, Note_on_c, 3, 52, 0
9, 16800, Note_on_c, 3, 48, 84
9, 16919, Note_on_c, 3, 48, 0
9, 24480, Note_on_c, 3, 60, 68
9, 24480, Control_c, 3, 11, 96
9, 24520, Control_c, 3, 11, 99
9, 24560, Control_c, 3, 11, 101
9, 24600, Control_c, 3, 11, 104
9, 24640, Control_c, 3, 11, 106
9, 24680, Control_c, 3, 11, 109
9, 24720, Control_c, 3, 11, 112
9, 24760, Control_c, 3, 11, 114
9, 24800, Control_c, 3, 11, 117
9, 24839, Note_on_c, 3, 60, 0
9, 24840, Note_on_c, 3, 61, 68
9, 24840, Control_c, 3, 11, 119
9, 24840, Note_on_c, 3, 57, 68
9, 24880, Control_c, 3, 11, 122
9, 24920, Control_c, 3, 11, 124
9, 24959, Note_on_c, 3, 61, 0
9, 24959, Note_on_c, 3, 57, 0
9, 24960, Control_c, 3, 11, 127
9, 24960, Note_on_c, 3, 58, 68
9, 24960, Note_on_c, 3, 62, 68
9, 25000, Control_c, 3, 11, 124
9, 25040, Control_c, 3, 11, 122
9, 25080, Control_c, 3, 11, 119
9, 25120, Control_c, 3, 11, 117
9, 25160, Control_c, 3, 11, 114
9, 25200, Control_c, 3, 11, 112
9, 25240, Control_c, 3, 11, 109
9, 25280, Control_c, 3, 11, 106
9, 25319, Note_on_c, 3, 58, 0
9, 25319, Note_on_c, 3, 62, 0
9, 25320, Note_on_c, 3, 60, 68
9, 25320, Control_c, 3, 11, 104
9, 25320, Note_on_c, 3, 57, 68
9, 25360, Control_c, 3, 11, 101
9, 25400, Control_c, 3, 11, 99
9, 25424, Note_on_c, 3, 60, 0
9, 25424, Note_on_c, 3, 57, 0
9, 25440, Control_c, 3, 11, 96
9, 25440, Note_on_c, 3, 55, 68
9, 25440, Note_on_c, 3, 58, 68
9, 25799, Note_on_c, 3, 55, 0
9, 25799, Note_on_c, 3, 58, 0
9, 26400, Control_c, 3, 11, 127
9, 26760, Note_on_c, 3, 61, 52
9, 26760, Note_on_c, 3, 57, 52
9, 26879, Note_on_c, 3, 61, 0
9, 26879, Note_on_c, 3, 57, 0
9, 26880, Note_on_c, 3, 62, 60
9, 26880, Note_on_c, 3, 58, 60
9, 26984, Note_on_c, 3, 62, 0
9, 26984, Note_on_c, 3, 58, 0
9, 27000, Note_on_c, 3, 62, 68
9, 27000, Note_on_c, 3, 58, 68
9, 27119, Note_on_c, 3, 62, 0
9, 27119, Note_on_c, 3, 58, 0
9, 27240, Note_on_c, 3, 60, 68
9, 27240, Note_on_c, 3, 57, 68
9, 27359, Note_on_c, 3, 60, 0
9, 27359, Note_on_c, 3, 57, 0
9, 27360, Note_on_c, 3, 55, 60
9, 27360, Note_on_c, 3, 58, 60
9, 27464, Note_on_c, 3, 55, 0
9, 27464, Note_on_c, 3, 58, 0
9, 27480, Note_on_c, 3, 55, 52
9, 27480, Note_on_c, 3, 58, 52
9, 27599, Note_on_c, 3, 55, 0
9, 27599, Note_on_c, 3, 58, 0
9, 27720, Note_on_c, 3, 53, 76
9, 27824, Note_on_c, 3, 53, 0
9, 27840, Note_on_c, 3, 52, 76
9, 27959, Note_on_c, 3, 52, 0
9, 27960, Note_on_c, 3, 50, 76
9, 28064, Note_on_c, 3, 50, 0
9, 28080, Note_on_c, 3, 52, 76
9, 28169, Note_on_c, 3, 52, 0
9, 28200, Note_on_c, 3, 53, 76
9, 28289, Note_on_c, 3, 53, 0
9, 28320, Note_on_c, 3, 55, 76
9, 28424, Note_on_c, 3, 55, 0
9, 28440, Note_on_c, 3, 55, 76
9, 28559, Note_on_c, 3, 55, 0
9, 28680, Note_on_c, 3, 53, 76
9, 28784, Note_on_c, 3, 53, 0
9, 28800, Note_on_c, 3, 52, 76
9, 28919, Note_on_c, 3, 52, 0
9, 28920, Note_on_c, 3, 50, 76
9, 29024, Note_on_c, 3, 50, 0
9, 29040, Note_on_c, 3, 52, 76
9, 29129, Note_on_c, 3, 52, 0
9, 29160, Note_on_c, 3, 53, 76
9, 29249, Note_on_c, 3, 53, 0
9, 29280, Note_on_c, 3, 55, 76
9, 29384, Note_on_c, 3, 55, 0
9, 29400, Note_on_c, 3, 55, 76
9, 29519, Note_on_c, 3, 55, 0
9, 29640, Note_on_c, 3, 57, 76
9, 29640, Note_on_c, 3, 60, 76
9, 29744, Note_on_c, 3, 57, 0
9, 29744, Note_on_c, 3, 60, 0
9, 29760, Note_on_c, 3, 62, 76
9, 29760, Note_on_c, 3, 58, 76
9, 29864, Note_on_c, 3, 62, 0
9, 29864, Note_on_c, 3, 58, 0
9, 29880, Note_on_c, 3, 57, 76
9, 29880, Note_on_c, 3, 60, 76
9, 29984, Note_on_c, 3, 57, 0
9, 29984, Note_on_c, 3, 60, 0
9, 30000, Note_on_c, 3, 58, 76
9, 30000, Note_on_c, 3, 62, 76
9, 30104, Note_on_c, 3, 58, 0
9, 30104, Note_on_c, 3, 62, 0
9, 30120, Note_on_c, 3, 58, 76
9, 30120, Note_on_c, 3, 55, 76
9, 30224, Note_on_c, 3, 58, 0
9, 30224, Note_on_c, 3, 55, 0
9, 30240, Note_on_c, 3, 53, 84
9, 30240, Note_on_c, 3, 56, 84
9, 31184, Note_on_c, 3, 53, 0
9, 31184, Note_on_c, 3, 56, 0
9, 31200, Note_on_c, 3, 53, 84
9, 31200, Note_on_c, 3, 56, 84
9, 31424, Note_on_c, 3, 53, 0
9, 31424, Note_on_c, 3, 56, 0
9, 31440, Note_on_c, 3, 53, 92
9, 31440, Note_on_c, 3, 56, 92
9, 31679, Note_on_c, 3, 53, 0
9, 31679, Note_on_c, 3, 56, 0
9, 31920, Note_on_c, 3, 56, 92
9, 31920, Note_on_c, 3, 53, 92
9, 32159, Note_on_c, 3, 56, 0
9, 32159, Note_on_c, 3, 53, 0
9, 32400, Note_on_c, 3, 56, 92
9, 32400, Note_on_c, 3, 53, 92
9, 32639, Note_on_c, 3, 56, 0
9, 32639, Note_on_c, 3, 53, 0
9, 32880, Note_on_c, 3, 56, 92
9, 32880, Note_on_c, 3, 53, 92
9, 33119, Note_on_c, 3, 56, 0
9, 33119, Note_on_c, 3, 53, 0
9, 35040, Note_on_c, 3, 53, 84
9, 35040, Note_on_c, 3, 56, 84
9, 35264, Note_on_c, 3, 53, 0
9, 35264, Note_on_c, 3, 56, 0
9, 35280, Note_on_c, 3, 53, 92
9, 35280, Note_on_c, 3, 56, 92
9, 35519, Note_on_c, 3, 53, 0
9, 35519, Note_on_c, 3, 56, 0
9, 35760, Note_on_c, 3, 53, 92
9, 35760, Note_on_c, 3, 56, 92
9, 35999, Note_on_c, 3, 53, 0
9, 35999, Note_on_c, 3, 56, 0
9, 36240, Note_on_c, 3, 56, 92
9, 36240, Note_on_c, 3, 53, 92
9, 36479, Note_on_c, 3, 56, 0
9, 36479, Note_on_c, 3, 53, 0
9, 36720, Note_on_c, 3, 56, 92
9, 36720, Note_on_c, 3, 53, 92
9, 36959, Note_on_c, 3, 56, 0
9, 36959, Note_on_c, 3, 53, 0
9, 39600, Control_c, 3, 11, 64
9, 39840, Note_on_c, 3, 57, 84
9, 39840, Note_on_c, 3, 45, 84
9, 40079, Note_on_c, 3, 57, 0
9, 40079, Note_on_c, 3, 45, 0
9, 40080, Note_on_c, 3, 62, 84
9, 40080, Control_c, 3, 11, 64
9, 40080, Note_on_c, 3, 50, 84
9, 40120, Control_c, 3, 11, 68
9, 40160, Control_c, 3, 11, 71
9, 40200, Control_c, 3, 11, 75
9, 40240, Control_c, 3, 11, 78
9, 40280, Control_c, 3, 11, 82
9, 40319, Note_on_c, 3, 62, 0
9, 40319, Note_on_c, 3, 50, 0
9, 40320, Control_c, 3, 11, 85
9, 40320, Note_on_c, 3, 46, 84
9, 40320, Note_on_c, 3, 58, 84
9, 40360, Control_c, 3, 11, 89
9, 40400, Control_c, 3, 11, 92
9, 40440, Control_c, 3, 11, 96
9, 40480, Control_c, 3, 11, 99
9, 40520, Control_c, 3, 11, 103
9, 40559, Note_on_c, 3, 46, 0
9, 40559, Note_on_c, 3, 58, 0
9, 40560, Note_on_c, 3, 60, 84
9, 40560, Control_c, 3, 11, 106
9, 40560, Note_on_c, 3, 48, 84
9, 40600, Control_c, 3, 11, 110
9, 40640, Control_c, 3, 11, 113
9, 40680, Control_c, 3, 11, 117
9, 40720, Control_c, 3, 11, 120
9, 40760, Control_c, 3, 11, 124
9, 40784, Note_on_c, 3, 60, 0
9, 40784, Note_on_c, 3, 48, 0
9, 40800, Control_c, 3, 11, 127
9, 40800, Note_on_c, 3, 45, 84
9, 40800, Note_on_c, 3, 57, 84
9, 40904, Note_on_c, 3, 45, 0
9, 40904, Note_on_c, 3, 57, 0
9, 40920, Note_on_c, 3, 57, 84
9, 40920, Note_on_c, 3, 45, 84
9, 41024, Note_on_c, 3, 57, 0
9, 41024, Note_on_c, 3, 45, 0
9, 41040, Note_on_c, 3, 62, 84
9, 41040, Note_on_c, 3, 50, 84
9, 41144, Note_on_c, 3, 62, 0
9, 41144, Note_on_c, 3, 50, 0
9, 41160, Note_on_c, 3, 62, 84
9, 41160, Note_on_c, 3, 50, 84
9, 41264, Note_on_c, 3, 62, 0
9, 41264, Note_on_c, 3, 50, 0
9, 41280, Note_on_c, 3, 46, 84
9, 41280, Note_on_c, 3, 58, 84
9, 41384, Note_on_c, 3, 46, 0
9, 41384, Note_on_c, 3, 58, 0
9, 41400, Note_on_c, 3, 58, 84
9, 41400, Note_on_c, 3, 46, 84
9, 41504, Note_on_c, 3, 58, 0
9, 41504, Note_on_c, 3, 46, 0
9, 41520, Note_on_c, 3, 48, 84
9, 41520, Note_on_c, 3, 60, 84
9, 41624, Note_on_c, 3, 48, 0
9, 41624, Note_on_c, 3, 60, 0
9, 41640, Note_on_c, 3, 60, 84
9, 41640, Note_on_c, 3, 48, 84
9, 41744, Note_on_c, 3, 60, 0
9, 41744, Note_on_c, 3, 48, 0
9, 41760, Note_on_c, 3, 53, 84
9, 41760, Note_on_c, 3, 41, 84
9, 41879, Note_on_c, 3, 53, 0
9, 41879, Note_on_c, 3, 41, 0
9, 42720, Note_on_c, 3, 65, 84
9, 42809, Note_on_c, 3, 65, 0
9, 42840, Note_on_c, 3, 65, 84
9, 42929, Note_on_c, 3, 65, 0
9, 42960, Note_on_c, 3, 62, 84
9, 43049, Note_on_c, 3, 62, 0
9, 43080, Note_on_c, 3, 67, 84
9, 43169, Note_on_c, 3, 67, 0
9, 43200, Note_on_c, 3, 60, 84
9, 43289, Note_on_c, 3, 60, 0
9, 43320, Note_on_c, 3, 65, 84
9, 43409, Note_on_c, 3, 65, 0
9, 43440, Note_on_c, 3, 58, 84
9, 43529, Note_on_c, 3, 58, 0
9, 43560, Note_on_c, 3, 64, 84
9, 43649, Note_on_c, 3, 64, 0
9, 43680, Note_on_c, 3, 65, 84
9, 43680, Note_on_c, 3, 57, 84
9, 43799, Note_on_c, 3, 65, 0
9, 43799, Note_on_c, 3, 57, 0
9, 44640, Note_on_c, 3, 65, 84
9, 44729, Note_on_c, 3, 65, 0
9, 44760, Note_on_c, 3, 65, 84
9, 44849, Note_on_c, 3, 65, 0
9, 44880, Note_on_c, 3, 62, 84
9, 44969, Note_on_c, 3, 62, 0
9, 45000, Note_on_c, 3, 67, 84
9, 45089, Note_on_c, 3, 67, 0
9, 45120, Note_on_c, 3, 60, 84
9, 45209, Note_on_c, 3, 60, 0
9, 45240, Note_on_c, 3, 65, 84
9, 45329, Note_on_c, 3, 65, 0
9, 45360, Note_on_c, 3, 58, 84
9, 45449, Note_on_c, 3, 58, 0
9, 45480, Note_on_c, 3, 64, 84
9, 45569, Note_on_c, 3, 64, 0
9, 45600, Note_on_c, 3, 57, 84
9, 45600, Note_on_c, 3, 65, 84
9, 45704, Note_on_c, 3, 57, 0
9, 45704, Note_on_c, 3, 65, 0
9, 45720, Note_on_c, 3, 53, 84
9, 45720, Note_on_c, 3, 57, 84
9, 45839, Note_on_c, 3, 53, 0
9, 45839, Note_on_c, 3, 57, 0
9, 45960, Note_on_c, 3, 57, 84
9, 45960, Note_on_c, 3, 53, 84
9, 46064, Note_on_c, 3, 57, 0
9, 46064, Note_on_c, 3, 53, 0
9, 46080, Note_on_c, 3, 57, 84
9, 46080, Note_on_c, 3, 53, 84
9, 46184, Note_on_c, 3, 57, 0
9, 46184, Note_on_c, 3, 53, 0
9, 46200, Note_on_c, 3, 53, 84
9, 46200, Note_on_c, 3, 57, 84
9, 46319, Note_on_c, 3, 53, 0
9, 46319, Note_on_c, 3, 57, 0
9, 46440, Note_on_c, 3, 53, 84
9, 46440, Note_on_c, 3, 57, 84
9, 46544, Note_on_c, 3, 53, 0
9, 46544, Note_on_c, 3, 57, 0
9, 46560, Note_on_c, 3, 57, 84
9, 46560, Note_on_c, 3, 53, 84
9, 46664, Note_on_c, 3, 57, 0
9, 46664, Note_on_c, 3, 53, 0
9, 46680, Note_on_c, 3, 57, 84
9, 46680, Note_on_c, 3, 53, 84
9, 46799, Note_on_c, 3, 57, 0
9, 46799, Note_on_c, 3, 53, 0
9, 46920, Note_on_c, 3, 53, 84
9, 46920, Note_on_c, 3, 57, 84
9, 47024, Note_on_c, 3, 53, 0
9, 47024, Note_on_c, 3, 57, 0
9, 47040, Note_on_c, 3, 53, 84
9, 47040, Note_on_c, 3, 57, 84
9, 47144, Note_on_c, 3, 53, 0
9, 47144, Note_on_c, 3, 57, 0
9, 47160, Note_on_c, 3, 57, 84
9, 47160, Note_on_c, 3, 53, 84
9, 47264, Note_on_c, 3, 57, 0
9, 47264, Note_on_c, 3, 53, 0
9, 47280, Note_on_c, 3, 53, 84
9, 47280, Note_on_c, 3, 57, 84
9, 47384, Note_on_c, 3, 53, 0
9, 47384, Note_on_c, 3, 57, 0
9, 47400, Note_on_c, 3, 57, 84
9, 47400, Note_on_c, 3, 53, 84
9, 47504, Note_on_c, 3, 57, 0
9, 47504, Note_on_c, 3, 53, 0
9, 47520, Note_on_c, 3, 53, 52
9, 47520, Note_on_c, 3, 57, 52
9, 47639, Note_on_c, 3, 53, 0
9, 47639, Note_on_c, 3, 57, 0
9, 50640, Note_on_c, 3, 65, 76
9, 50640, Note_on_c, 3, 53, 76
9, 50759, Note_on_c, 3, 65, 0
9, 50759, Note_on_c, 3, 53, 0
9, 50880, Note_on_c, 3, 46, 76
9, 50880, Note_on_c, 3, 58, 76
9, 50999, Note_on_c, 3, 46, 0
9, 50999, Note_on_c, 3, 58, 0
9, 51120, Note_on_c, 3, 53, 76
9, 51120, Note_on_c, 3, 41, 76
9, 51239, Note_on_c, 3, 53, 0
9, 51239, Note_on_c, 3, 41, 0
9, 56160, Note_on_c, 3, 53, 52
9, 56279, Note_on_c, 3, 53, 0
9, 56280, Note_on_c, 3, 58, 52
9, 56399, Note_on_c, 3, 58, 0
9, 56400, Note_on_c, 3, 62, 52
9, 56519, Note_on_c, 3, 62, 0
9, 56520, Note_on_c, 3, 65, 52
9, 56624, Note_on_c, 3, 65, 0
9, 56640, Note_on_c, 3, 63, 52
9, 56759, Note_on_c, 3, 63, 0
9, 56760, Note_on_c, 3, 62, 52
9, 56879, Note_on_c, 3, 62, 0
9, 56880, Note_on_c, 3, 63, 52
9, 56999, Note_on_c, 3, 63, 0
9, 57000, Note_on_c, 3, 60, 52
9, 57119, Note_on_c, 3, 60, 0
9, 57120, Note_on_c, 3, 58, 52
9, 57239, Note_on_c, 3, 58, 0
9, 57240, Note_on_c, 3, 62, 52
9, 57359, Note_on_c, 3, 62, 0
9, 57360, Note_on_c, 3, 58, 52
9, 57479, Note_on_c, 3, 58, 0
9, 57480, Note_on_c, 3, 55, 52
9, 57584, Note_on_c, 3, 55, 0
9, 57600, Note_on_c, 3, 53, 52
9, 57719, Note_on_c, 3, 53, 0
9, 57840, Note_on_c, 3, 53, 52
9, 57959, Note_on_c, 3, 53, 0
9, 58080, Note_on_c, 3, 53, 52
9, 58544, Note_on_c, 3, 53, 0
9, 58560, Note_on_c, 3, 53, 52
9, 58679, Note_on_c, 3, 53, 0
9, 58800, Note_on_c, 3, 53, 68
9, 58919, Note_on_c, 3, 53, 0
9, 59040, Note_on_c, 3, 58, 84
9, 59091, Note_on_c, 3, 58, 0
9, 59100, Note_on_c, 3, 57, 84
9, 59151, Note_on_c, 3, 57, 0
9, 59160, Note_on_c, 3, 58, 84
9, 59211, Note_on_c, 3, 58, 0
9, 59220, Note_on_c, 3, 62, 84
9, 59271, Note_on_c, 3, 62, 0
9, 59280, Note_on_c, 3, 60, 84
9, 59331, Note_on_c, 3, 60, 0
9, 59340, Note_on_c, 3, 58, 84
9, 59391, Note_on_c, 3, 58, 0
9, 59400, Note_on_c, 3, 57, 84
9, 59451, Note_on_c, 3, 57, 0
9, 59460, Note_on_c, 3, 58, 84
9, 59511, Note_on_c, 3, 58, 0
9, 59520, Note_on_c, 3, 57, 84
9, 59571, Note_on_c, 3, 57, 0
9, 59580, Note_on_c, 3, 55, 84
9, 59631, Note_on_c, 3, 55, 0
9, 59640, Note_on_c, 3, 53, 84
9, 59691, Note_on_c, 3, 53, 0
9, 59700, Note_on_c, 3, 55, 84
9, 59751, Note_on_c, 3, 55, 0
9, 59760, Note_on_c, 3, 53, 84
9, 59811, Note_on_c, 3, 53, 0
9, 59820, Note_on_c, 3, 51, 84
9, 59871, Note_on_c, 3, 51, 0
9, 59880, Note_on_c, 3, 50, 84
9, 59931, Note_on_c, 3, 50, 0
9, 59940, Note_on_c, 3, 51, 84
9, 59991, Note_on_c, 3, 51, 0
9, 60000, Note_on_c, 3, 50, 84
9, 60051, Note_on_c, 3, 50, 0
9, 60060, Note_on_c, 3, 60, 84
9, 60111, Note_on_c, 3, 60, 0
9, 60120, Note_on_c, 3, 58, 84
9, 60171, Note_on_c, 3, 58, 0
9, 60180, Note_on_c, 3, 60, 84
9, 60231, Note_on_c, 3, 60, 0
9, 60240, Note_on_c, 3, 58, 84
9, 60291, Note_on_c, 3, 58, 0
9, 60300, Note_on_c, 3, 57, 84
9, 60351, Note_on_c, 3, 57, 0
9, 60360, Note_on_c, 3, 55, 84
9, 60411, Note_on_c, 3, 55, 0
9, 60420, Note_on_c, 3, 57, 84
9, 60471, Note_on_c, 3, 57, 0
9, 60480, Note_on_c, 3, 55, 84
9, 60531, Note_on_c, 3, 55, 0
9, 60540, Note_on_c, 3, 53, 84
9, 60591, Note_on_c, 3, 53, 0
9, 60600, Note_on_c, 3, 51, 84
9, 60651, Note_on_c, 3, 51, 0
9, 60660, Note_on_c, 3, 50, 84
9, 60711, Note_on_c, 3, 50, 0
9, 60720, Note_on_c, 3, 48, 84
9, 60824, Note_on_c, 3, 48, 0
9, 60840, Note_on_c, 3, 53, 84
9, 60944, Note_on_c, 3, 53, 0
9, 60960, Note_on_c, 3, 46, 84
9, 61199, Note_on_c, 3, 46, 0
9, 61440, Note_on_c, 3, 58, 84
9, 61440, Note_on_c, 3, 62, 84
9, 61679, Note_on_c, 3, 58, 0
9, 61679, Note_on_c, 3, 62, 0
9, 61920, Note_on_c, 3, 60, 84
9, 61920, Note_on_c, 3, 63, 84
9, 62159, Note_on_c, 3, 60, 0
9, 62159, Note_on_c, 3, 63, 0
9, 62400, Note_on_c, 3, 63, 84
9, 62400, Note_on_c, 3, 60, 84
9, 62639, Note_on_c, 3, 63, 0
9, 62639, Note_on_c, 3, 60, 0
9, 62880, Note_on_c, 3, 58, 84
9, 62880, Note_on_c, 3, 62, 84
9, 63119, Note_on_c, 3, 58, 0
9, 63119, Note_on_c, 3, 62, 0
9, 63360, Note_on_c, 3, 52, 84
9, 63360, Note_on_c, 3, 55, 84
9, 63599, Note_on_c, 3, 52, 0
9, 63599, Note_on_c, 3, 55, 0
9, 63840, Note_on_c, 3, 53, 84
9, 63944, Note_on_c, 3, 53, 0
9, 63960, Note_on_c, 3, 60, 84
9, 64064, Note_on_c, 3, 60, 0
9, 64080, Note_on_c, 3, 53, 84
9, 64184, Note_on_c, 3, 53, 0
9, 64200, Note_on_c, 3, 57, 84
9, 64304, Note_on_c, 3, 57, 0
9, 64320, Note_on_c, 3, 50, 84
9, 64424, Note_on_c, 3, 50, 0
9, 64440, Note_on_c, 3, 53, 84
9, 64544, Note_on_c, 3, 53, 0
9, 64560, Note_on_c, 3, 45, 84
9, 64664, Note_on_c, 3, 45, 0
9, 64680, Note_on_c, 3, 47, 84
9, 64784, Note_on_c, 3, 47, 0
9, 64800, Note_on_c, 3, 48, 84
9, 65384, Note_on_c, 3, 48, 0
9, 65400, Note_on_c, 3, 49, 84
9, 65519, Note_on_c, 3, 49, 0
9, 65520, Note_on_c, 3, 48, 84
9, 65639, Note_on_c, 3, 48, 0
9, 65640, Note_on_c, 3, 49, 84
9, 65744, Note_on_c, 3, 49, 0
9, 65760, Note_on_c, 3, 48, 84
9, 65864, Note_on_c, 3, 48, 0
9, 65880, Note_on_c, 3, 58, 84
9, 65999, Note_on_c, 3, 58, 0
9, 66000, Note_on_c, 3, 55, 84
9, 66119, Note_on_c, 3, 55, 0
9, 66120, Note_on_c, 3, 52, 84
9, 66224, Note_on_c, 3, 52, 0
9, 66240, Note_on_c, 3, 48, 84
9, 66359, Note_on_c, 3, 48, 0
9, 73920, Control_c, 3, 11, 96
9, 73920, Note_on_c, 3, 60, 68
9, 73960, Control_c, 3, 11, 99
9, 74000, Control_c, 3, 11, 101
9, 74040, Control_c, 3, 11, 104
9, 74080, Control_c, 3, 11, 106
9, 74120, Control_c, 3, 11, 109
9, 74160, Control_c, 3, 11, 112
9, 74200, Control_c, 3, 11, 114
9, 74240, Control_c, 3, 11, 117
9, 74279, Note_on_c, 3, 60, 0
9, 74280, Note_on_c, 3, 57, 68
9, 74280, Note_on_c, 3, 61, 68
9, 74280, Control_c, 3, 11, 119
9, 74320, Control_c, 3, 11, 122
9, 74360, Control_c, 3, 11, 124
9, 74399, Note_on_c, 3, 57, 0
9, 74399, Note_on_c, 3, 61, 0
9, 74400, Note_on_c, 3, 62, 68
9, 74400, Control_c, 3, 11, 127
9, 74400, Note_on_c, 3, 58, 68
9, 74440, Control_c, 3, 11, 124
9, 74480, Control_c, 3, 11, 122
9, 74520, Control_c, 3, 11, 119
9, 74560, Control_c, 3, 11, 117
9, 74600, Control_c, 3, 11, 114
9, 74640, Control_c, 3, 11, 112
9, 74680, Control_c, 3, 11, 109
9, 74720, Control_c, 3, 11, 106
9, 74759, Note_on_c, 3, 62, 0
9, 74759, Note_on_c, 3, 58, 0
9, 74760, Control_c, 3, 11, 104
9, 74760, Note_on_c, 3, 60, 68
9, 74760, Note_on_c, 3, 57, 68
9, 74800, Control_c, 3, 11, 101
9, 74840, Control_c, 3, 11, 99
9, 74864, Note_on_c, 3, 60, 0
9, 74864, Note_on_c, 3, 57, 0
9, 74880, Control_c, 3, 11, 96
9, 74880, Note_on_c, 3, 58, 68
9, 74880, Note_on_c, 3, 55, 68
9, 75239, Note_on_c, 3, 58, 0
9, 75239, Note_on_c, 3, 55, 0
9, 75840, Control_c, 3, 11, 127
9, 76200, Note_on_c, 3, 61, 52
9, 76200, Note_on_c, 3, 57, 52
9, 76319, Note_on_c, 3, 61, 0
9, 76319, Note_on_c, 3, 57, 0
9, 76320, Note_on_c, 3, 62, 60
9, 76320, Note_on_c, 3, 58, 60
9, 76424, Note_on_c, 3, 62, 0
9, 76424, Note_on_c, 3, 58, 0
9, 76440, Note_on_c, 3, 58, 68
9, 76440, Note_on_c, 3, 62, 68
9, 76559, Note_on_c, 3, 58, 0
9, 76559, Note_on_c, 3, 62, 0
9, 76680, Note_on_c, 3, 60, 68
9, 76680, Note_on_c, 3, 57, 68
9, 76799, Note_on_c, 3, 60, 0
9, 76799, Note_on_c, 3, 57, 0
9, 76800, Note_on_c, 3, 58, 60
9, 76800, Note_on_c, 3, 55, 60
9, 76904, Note_on_c, 3, 58, 0
9, 76904, Note_on_c, 3, 55, 0
9, 76920, Note_on_c, 3, 55, 52
9, 76920, Note_on_c, 3, 58, 52
9, 77039, Note_on_c, 3, 55, 0
9, 77039, Note_on_c, 3, 58, 0
9, 77160, Note_on_c, 3, 53, 76
9, 77264, Note_on_c, 3, 53, 0
9, 77280, Note_on_c, 3, 52, 76
9, 77399, Note_on_c, 3, 52, 0
9, 77400, Note_on_c, 3, 50, 76
9, 77504, Note_on_c, 3, 50, 0
9, 77520, Note_on_c, 3, 52, 76
9, 77609, Note_on_c, 3, 52, 0
9, 77640, Note_on_c, 3, 53, 76
9, 77729, Note_on_c, 3, 53, 0
9, 77760, Note_on_c, 3, 55, 76
9, 77864, Note_on_c, 3, 55, 0
9, 77880, Note_on_c, 3, 55, 76
9, 77999, Note_on_c, 3, 55, 0
9, 78120, Note_on_c, 3, 53, 76
9, 78224, Note_on_c, 3, 53, 0
9, 78240, Note_on_c, 3, 52, 76
9, 78359, Note_on_c, 3, 52, 0
9, 78360, Note_on_c, 3, 50, 76
9, 78464, Note_on_c, 3, 50, 0
9, 78480, Note_on_c, 3, 52, 76
9, 78569, Note_on_c, 3, 52, 0
9, 78600, Note_on_c, 3, 53, 76
9, 78689, Note_on_c, 3, 53, 0
9, 78720, Note_on_c, 3, 55, 76
9, 78824, Note_on_c, 3, 55, 0
9, 78840, Note_on_c, 3, 55, 76
9, 78959, Note_on_c, 3, 55, 0
9, 79080, Note_on_c, 3, 57, 76
9, 79080, Note_on_c, 3, 60, 76
9, 79184, Note_on_c, 3, 57, 0
9, 79184, Note_on_c, 3, 60, 0
9, 79200, Note_on_c, 3, 58, 76
9, 79200, Note_on_c, 3, 62, 76
9, 79304, Note_on_c, 3, 58, 0
9, 79304, Note_on_c, 3, 62, 0
9, 79320, Note_on_c, 3, 60, 76
9, 79320, Note_on_c, 3, 57, 76
9, 79424, Note_on_c, 3, 60, 0
9, 79424, Note_on_c, 3, 57, 0
9, 79440, Note_on_c, 3, 62, 76
9, 79440, Note_on_c, 3, 58, 76
9, 79544, Note_on_c, 3, 62, 0
9, 79544, Note_on_c, 3, 58, 0
9, 79560, Note_on_c, 3, 58, 76
9, 79560, Note_on_c, 3, 55, 76
9, 79664, Note_on_c, 3, 58, 0
9, 79664, Note_on_c, 3, 55, 0
9, 79680, Note_on_c, 3, 56, 84
9, 79680, Note_on_c, 3, 53, 84
9, 80624, Note_on_c, 3, 56, 0
9, 80624, Note_on_c, 3, 53, 0
9, 80640, Note_on_c, 3, 53, 84
9, 80640, Note_on_c, 3, 56, 84
9, 80864, Note_on_c, 3, 53, 0
9, 80864, Note_on_c, 3, 56, 0
9, 80880, Note_on_c, 3, 56, 92
9, 80880, Note_on_c, 3, 53, 92
9, 81119, Note_on_c, 3, 56, 0
9, 81119, Note_on_c, 3, 53, 0
9, 81360, Note_on_c, 3, 56, 92
9, 81360, Note_on_c, 3, 53, 92
9, 81599, Note_on_c, 3, 56, 0
9, 81599, Note_on_c, 3, 53, 0
9, 81840, Note_on_c, 3, 56, 92
9, 81840, Note_on_c, 3, 53, 92
9, 82079, Note_on_c, 3, 56, 0
9, 82079, Note_on_c, 3, 53, 0
9, 82320, Note_on_c, 3, 56, 92
9, 82320, Note_on_c, 3, 53, 92
9, 82559, Note_on_c, 3, 56, 0
9, 82559, Note_on_c, 3, 53, 0
9, 84480, Note_on_c, 3, 53, 84
9, 84480, Note_on_c, 3, 56, 84
9, 84704, Note_on_c, 3, 53, 0
9, 84704, Note_on_c, 3, 56, 0
9, 84720, Note_on_c, 3, 56, 92
9, 84720, Note_on_c, 3, 53, 92
9, 84959, Note_on_c, 3, 56, 0
9, 84959, Note_on_c, 3, 53, 0
9, 85200, Note_on_c, 3, 56, 92
9, 85200, Note_on_c, 3, 53, 92
9, 85439, Note_on_c, 3, 56, 0
9, 85439, Note_on_c, 3, 53, 0
9, 85680, Note_on_c, 3, 56, 92
9, 85680, Note_on_c, 3, 53, 92
9, 85919, Note_on_c, 3, 56, 0
9, 85919, Note_on_c, 3, 53, 0
9, 86160, Note_on_c, 3, 56, 92
9, 86160, Note_on_c, 3, 53, 92
9, 86399, Note_on_c, 3, 56, 0
9, 86399, Note_on_c, 3, 53, 0
9, 89040, Control_c, 3, 11, 64
9, 89280, Note_on_c, 3, 45, 84
9, 89280, Note_on_c, 3, 57, 84
9, 89519, Note_on_c, 3, 45, 0
9, 89519, Note_on_c, 3, 57, 0
9, 89520, Note_on_c, 3, 62, 84
9, 89520, Note_on_c, 3, 50, 84
9, 89520, Control_c, 3, 11, 64
9, 89560, Control_c, 3, 11, 68
9, 89600, Control_c, 3, 11, 71
9, 89640, Control_c, 3, 11, 75
9, 89680, Control_c, 3, 11, 78
9, 89720, Control_c, 3, 11, 82
9, 89759, Note_on_c, 3, 62, 0
9, 89759, Note_on_c, 3, 50, 0
9, 89760, Control_c, 3, 11, 85
9, 89760, Note_on_c, 3, 46, 84
9, 89760, Note_on_c, 3, 58, 84
9, 89800, Control_c, 3, 11, 89
9, 89840, Control_c, 3, 11, 92
9, 89880, Control_c, 3, 11, 96
9, 89920, Control_c, 3, 11, 99
9, 89960, Control_c, 3, 11, 103
9, 89999, Note_on_c, 3, 46, 0
9, 89999, Note_on_c, 3, 58, 0
9, 90000, Control_c, 3, 11, 106
9, 90000, Note_on_c, 3, 60, 84
9, 90000, Note_on_c, 3, 48, 84
9, 90040, Control_c, 3, 11, 110
9, 90080, Control_c, 3, 11, 113
9, 90120, Control_c, 3, 11, 117
9, 90160, Control_c, 3, 11, 120
9, 90200, Control_c, 3, 11, 124
9, 90224, Note_on_c, 3, 60, 0
9, 90224, Note_on_c, 3, 48, 0
9, 90240, Note_on_c, 3, 57, 84
9, 90240, Note_on_c, 3, 45, 84
9, 90240, Control_c, 3, 11, 127
9, 90344, Note_on_c, 3, 57, 0
9, 90344, Note_on_c, 3, 45, 0
9, 90360, Note_on_c, 3, 45, 84
9, 90360, Note_on_c, 3, 57, 84
9, 90464, Note_on_c, 3, 45, 0
9, 90464, Note_on_c, 3, 57, 0
9, 90480, Note_on_c, 3, 62, 84
9, 90480, Note_on_c, 3, 50, 84
9, 90584, Note_on_c, 3, 62, 0
9, 90584, Note_on_c, 3, 50, 0
9, 90600, Note_on_c, 3, 62, 84
9, 90600, Note_on_c, 3, 50, 84
9, 90704, Note_on_c, 3, 62, 0
9, 90704, Note_on_c, 3, 50, 0
9, 90720, Note_on_c, 3, 58, 84
9, 90720, Note_on_c, 3, 46, 84
9, 90824, Note_on_c, 3, 58, 0
9, 90824, Note_on_c, 3, 46, 0
9, 90840, Note_on_c, 3, 58, 84
9, 90840, Note_on_c, 3, 46, 84
9, 90944, Note_on_c, 3, 58, 0
9, 90944, Note_on_c, 3, 46, 0
9, 90960, Note_on_c, 3, 60, 84
9, 90960, Note_on_c, 3, 48, 84
9, 91064, Note_on_c, 3, 60, 0
9, 91064, Note_on_c, 3, 48, 0
9, 91080, Note_on_c, 3, 48, 84
9, 91080, Note_on_c, 3, 60, 84
9, 91184, Note_on_c, 3, 48, 0
9, 91184, Note_on_c, 3, 60, 0
9, 91200, Note_on_c, 3, 41, 84
9, 91200, Note_on_c, 3, 53, 84
9, 91319, Note_on_c, 3, 41, 0
9, 91319, Note_on_c, 3, 53, 0
9, 92160, Note_on_c, 3, 65, 84
9, 92249, Note_on_c, 3, 65, 0
9, 92280, Note_on_c, 3, 65, 84
9, 92369, Note_on_c, 3, 65, 0
9, 92400, Note_on_c, 3, 62, 84
9, 92489, Note_on_c, 3, 62, 0
9, 92520, Note_on_c, 3, 67, 84
9, 92609, Note_on_c, 3, 67, 0
9, 92640, Note_on_c, 3, 60, 84
9, 92729, Note_on_c, 3, 60, 0
9, 92760, Note_on_c, 3, 65, 84
9, 92849, Note_on_c, 3, 65, 0
9, 92880, Note_on_c, 3, 58, 84
9, 92969, Note_on_c, 3, 58, 0
9, 93000, Note_on_c, 3, 64, 84
9, 93089, Note_on_c, 3, 64, 0
9, 93120, Note_on_c, 3, 57, 84
9, 93120, Note_on_c, 3, 65, 84
9, 93239, Note_on_c, 3, 57, 0
9, 93239, Note_on_c, 3, 65, 0
9, 94080, Note_on_c, 3, 65, 84
9, 94169, Note_on_c, 3, 65, 0
9, 94200, Note_on_c, 3, 65, 84
9, 94289, Note_on_c, 3, 65, 0
9, 94320, Note_on_c, 3, 62, 84
9, 94409, Note_on_c, 3, 62, 0
9, 94440, Note_on_c, 3, 67, 84
9, 94529, Note_on_c, 3, 67, 0
9, 94560, Note_on_c, 3, 60, 84
9, 94649, Note_on_c, 3, 60, 0
9, 94680, Note_on_c, 3, 65, 84
9, 94769, Note_on_c, 3, 65, 0
9, 94800, Note_on_c, 3, 58, 84
9, 94889, Note_on_c, 3, 58, 0
9, 94920, Note_on_c, 3, 64, 84
9, 95009, Note_on_c, 3, 64, 0
9, 95040, Note_on_c, 3, 65, 84
9, 95040, Note_on_c, 3, 57, 84
9, 95144, Note_on_c, 3, 65, 0
9, 95144, Note_on_c, 3, 57, 0
9, 95160, Note_on_c, 3, 57, 84
9, 95160, Note_on_c, 3, 53, 84
9, 95279, Note_on_c, 3, 57, 0
9, 95279, Note_on_c, 3, 53, 0
9, 95400, Note_on_c, 3, 57, 84
9, 95400, Note_on_c, 3, 53, 84
9, 95504, Note_on_c, 3, 57, 0
9, 95504, Note_on_c, 3, 53, 0
9, 95520, Note_on_c, 3, 57, 84
9, 95520, Note_on_c, 3, 53, 84
9, 95624, Note_on_c, 3, 57, 0
9, 95624, Note_on_c, 3, 53, 0
9, 95640, Note_on_c, 3, 53, 84
9, 95640, Note_on_c, 3, 57, 84
9, 95759, Note_on_c, 3, 53, 0
9, 95759, Note_on_c, 3, 57, 0
9, 95880, Note_on_c, 3, 57, 84
9, 95880, Note_on_c, 3, 53, 84
9, 95984, Note_on_c, 3, 57, 0
9, 95984, Note_on_c, 3, 53, 0
9, 96000, Note_on_c, 3, 57, 84
9, 96000, Note_on_c, 3, 53, 84
9, 96104, Note_on_c, 3, 57, 0
9, 96104, Note_on_c, 3, 53, 0
9, 96120, Note_on_c, 3, 53, 84
9, 96120, Note_on_c, 3, 57, 84
9, 96239, Note_on_c, 3, 53, 0
9, 96239, Note_on_c, 3, 57, 0
9, 96360, Note_on_c, 3, 57, 84
9, 96360, Note_on_c, 3, 53, 84
9, 96464, Note_on_c, 3, 57, 0
9, 96464, Note_on_c, 3, 53, 0
9, 96480, Note_on_c, 3, 53, 84
9, 96480, Note_on_c, 3, 57, 84
9, 96584, Note_on_c, 3, 53, 0
9, 96584, Note_on_c, 3, 57, 0
9, 96600, Note_on_c, 3, 57, 84
9, 96600, Note_on_c, 3, 53, 84
9, 96704, Note_on_c, 3, 57, 0
9, 96704, Note_on_c, 3, 53, 0
9, 96720, Note_on_c, 3, 53, 84
9, 96720, Note_on_c, 3, 57, 84
9, 96824, Note_on_c, 3, 53, 0
9, 96824, Note_on_c, 3, 57, 0
9, 96840, Note_on_c, 3, 57, 84
9, 96840, Note_on_c, 3, 53, 84
9, 96944, Note_on_c, 3, 57, 0
9, 96944, Note_on_c, 3, 53, 0
9, 96960, Note_on_c, 3, 57, 52
9, 96960, Note_on_c, 3, 53, 52
9, 97079, Note_on_c, 3, 57, 0
9, 97079, Note_on_c, 3, 53, 0
9, 105600, Note_on_c, 3, 59, 84
9, 105600, Note_on_c, 3, 47, 84
9, 106559, Note_on_c, 3, 59, 0
9, 106559, Note_on_c, 3, 47, 0
9, 108480, Note_on_c, 3, 60, 52
9, 108599, Note_on_c, 3, 60, 0
9, 108600, Note_on_c, 3, 59, 52
9, 108719, Note_on_c, 3, 59, 0
9, 108720, Note_on_c, 3, 60, 52
9, 108839, Note_on_c, 3, 60, 0
9, 108840, Note_on_c, 3, 57, 52
9, 108959, Note_on_c, 3, 57, 0
9, 108960, Note_on_c, 3, 55, 52
9, 109079, Note_on_c, 3, 55, 0
9, 109080, Note_on_c, 3, 59, 52
9, 109199, Note_on_c, 3, 59, 0
9, 109200, Note_on_c, 3, 55, 52
9, 109319, Note_on_c, 3, 55, 0
9, 109320, Note_on_c, 3, 52, 52
9, 109424, Note_on_c, 3, 52, 0
9, 109440, Note_on_c, 3, 50, 52
9, 109559, Note_on_c, 3, 50, 0
9, 109680, Note_on_c, 3, 50, 52
9, 109799, Note_on_c, 3, 50, 0
9, 109920, Note_on_c, 3, 50, 52
9, 110399, Note_on_c, 3, 50, 0
9, 112800, Note_on_c, 3, 55, 52
9, 113039, Note_on_c, 3, 55, 0
9, 113040, Note_on_c, 3, 63, 52
9, 113279, Note_on_c, 3, 63, 0
9, 113280, Note_on_c, 3, 62, 52
9, 113399, Note_on_c, 3, 62, 0
9, 113760, Note_on_c, 3, 55, 52
9, 113999, Note_on_c, 3, 55, 0
9, 114000, Note_on_c, 3, 63, 52
9, 114239, Note_on_c, 3, 63, 0
9, 114240, Note_on_c, 3, 62, 52
9, 114359, Note_on_c, 3, 62, 0
9, 115680, Note_on_c, 3, 58, 52
9, 115919, Note_on_c, 3, 58, 0
9, 115920, Note_on_c, 3, 67, 52
9, 116159, Note_on_c, 3, 67, 0
9, 116160, Note_on_c, 3, 65, 52
9, 116279, Note_on_c, 3, 65, 0
9, 116640, Note_on_c, 3, 58, 52
9, 116879, Note_on_c, 3, 58, 0
9, 116880, Note_on_c, 3, 67, 52
9, 117119, Note_on_c, 3, 67, 0
9, 117120, Note_on_c, 3, 65, 52
9, 117239, Note_on_c, 3, 65, 0
9, 119040, Note_on_c, 3, 50, 52
9, 119279, Note_on_c, 3, 50, 0
9, 119280, Note_on_c, 3, 58, 52
9, 119519, Note_on_c, 3, 58, 0
9, 119520, Note_on_c, 3, 57, 52
9, 119639, Note_on_c, 3, 57, 0
9, 120000, Note_on_c, 3, 65, 52
9, 120239, Note_on_c, 3, 65, 0
9, 120240, Note_on_c, 3, 67, 52
9, 120479, Note_on_c, 3, 67, 0
9, 120480, Note_on_c, 3, 65, 44
9, 120599, Note_on_c, 3, 65, 0
9, 124080, Control_c, 3, 11, 48
9, 124320, Control_c, 3, 11, 48
9, 124320, Note_on_c, 3, 60, 84
9, 124373, Control_c, 3, 11, 50
9, 124427, Control_c, 3, 11, 52
9, 124480, Control_c, 3, 11, 55
9, 124533, Control_c, 3, 11, 57
9, 124587, Control_c, 3, 11, 59
9, 124640, Control_c, 3, 11, 61
9, 124693, Control_c, 3, 11, 63
9, 124747, Control_c, 3, 11, 66
9, 124800, Control_c, 3, 11, 68
9, 124853, Control_c, 3, 11, 70
9, 124907, Control_c, 3, 11, 72
9, 124960, Control_c, 3, 11, 74
9, 125013, Control_c, 3, 11, 77
9, 125067, Control_c, 3, 11, 79
9, 125120, Control_c, 3, 11, 81
9, 125173, Control_c, 3, 11, 83
9, 125227, Control_c, 3, 11, 85
9, 125280, Control_c, 3, 11, 88
9, 125333, Control_c, 3, 11, 90
9, 125387, Control_c, 3, 11, 92
9, 125440, Control_c, 3, 11, 94
9, 125493, Control_c, 3, 11, 96
9, 125547, Control_c, 3, 11, 98
9, 125600, Control_c, 3, 11, 101
9, 125653, Control_c, 3, 11, 103
9, 125707, Control_c, 3, 11, 105
9, 125760, Control_c, 3, 11, 107
9, 125813, Control_c, 3, 11, 109
9, 125867, Control_c, 3, 11, 112
9, 125920, Control_c, 3, 11, 114
9, 125973, Control_c, 3, 11, 116
9, 126027, Control_c, 3, 11, 118
9, 126080, Control_c, 3, 11, 120
9, 126133, Control_c, 3, 11, 123
9, 126187, Control_c, 3, 11, 127
9, 126224, Note_on_c, 3, 60, 0
9, 126240, Note_on_c, 3, 63, 84
9, 126240, Note_on_c, 3, 60, 84
9, 126344, Note_on_c, 3, 63, 0
9, 126344, Note_on_c, 3, 60, 0
9, 126360, Note_on_c, 3, 63, 84
9, 126360, Note_on_c, 3, 60, 84
9, 126479, Note_on_c, 3, 63, 0
9, 126479, Note_on_c, 3, 60, 0
9, 126600, Note_on_c, 3, 63, 84
9, 126600, Note_on_c, 3, 60, 84
9, 126704, Note_on_c, 3, 63, 0
9, 126704, Note_on_c, 3, 60, 0
9, 126720, Note_on_c, 3, 63, 84
9, 126720, Note_on_c, 3, 60, 84
9, 126824, Note_on_c, 3, 63, 0
9, 126824, Note_on_c, 3, 60, 0
9, 126840, Note_on_c, 3, 60, 84
9, 126840, Note_on_c, 3, 63, 84
9, 126959, Note_on_c, 3, 60, 0
9, 126959, Note_on_c, 3, 63, 0
9, 127080, Note_on_c, 3, 63, 84
9, 127080, Note_on_c, 3, 60, 84
9, 127184, Note_on_c, 3, 63, 0
9, 127184, Note_on_c, 3, 60, 0
9, 127200, Note_on_c, 3, 60, 84
9, 127200, Note_on_c, 3, 63, 84
9, 127304, Note_on_c, 3, 60, 0
9, 127304, Note_on_c, 3, 63, 0
9, 127320, Note_on_c, 3, 60, 84
9, 127320, Note_on_c, 3, 63, 84
9, 127439, Note_on_c, 3, 60, 0
9, 127439, Note_on_c, 3, 63, 0
9, 127560, Note_on_c, 3, 60, 84
9, 127560, Note_on_c, 3, 63, 84
9, 127664, Note_on_c, 3, 60, 0
9, 127664, Note_on_c, 3, 63, 0
9, 127680, Note_on_c, 3, 63, 84
9, 127680, Note_on_c, 3, 60, 84
9, 127784, Note_on_c, 3, 63, 0
9, 127784, Note_on_c, 3, 60, 0
9, 127800, Note_on_c, 3, 63, 84
9, 127800, Note_on_c, 3, 60, 84
9, 127919, Note_on_c, 3, 63, 0
9, 127919, Note_on_c, 3, 60, 0
9, 128040, Note_on_c, 3, 63, 84
9, 128040, Note_on_c, 3, 60, 84
9, 128144, Note_on_c, 3, 63, 0
9, 128144, Note_on_c, 3, 60, 0
9, 128160, Note_on_c, 3, 63, 84
9, 128160, Note_on_c, 3, 60, 84
9, 128279, Note_on_c, 3, 63, 0
9, 128279, Note_on_c, 3, 60, 0
9, 128400, Note_on_c, 3, 60, 84
9, 128400, Note_on_c, 3, 63, 84
9, 128519, Note_on_c, 3, 60, 0
9, 128519, Note_on_c, 3, 63, 0
9, 128640, Note_on_c, 3, 60, 84
9, 128640, Note_on_c, 3, 63, 84
9, 128759, Note_on_c, 3, 60, 0
9, 128759, Note_on_c, 3, 63, 0
9, 128880, Note_on_c, 3, 63, 84
9, 128880, Note_on_c, 3, 60, 84
9, 128999, Note_on_c, 3, 63, 0
9, 128999, Note_on_c, 3, 60, 0
9, 129120, Note_on_c, 3, 63, 84
9, 129120, Note_on_c, 3, 60, 84
9, 129239, Note_on_c, 3, 63, 0
9, 129239, Note_on_c, 3, 60, 0
9, 129360, Note_on_c, 3, 60, 84
9, 129360, Note_on_c, 3, 63, 84
9, 129479, Note_on_c, 3, 60, 0
9, 129479, Note_on_c, 3, 63, 0
9, 129600, Note_on_c, 3, 60, 84
9, 129600, Note_on_c, 3, 63, 84
9, 129719, Note_on_c, 3, 60, 0
9, 129719, Note_on_c, 3, 63, 0
9, 129840, Note_on_c, 3, 63, 84
9, 129840, Note_on_c, 3, 60, 84
9, 129959, Note_on_c, 3, 63, 0
9, 129959, Note_on_c, 3, 60, 0
9, 130080, Note_on_c, 3, 57, 92
9, 130080, Note_on_c, 3, 60, 92
9, 130529, Note_on_c, 3, 57, 0
9, 130529, Note_on_c, 3, 60, 0
9, 130560, Note_on_c, 3, 60, 92
9, 130560, Note_on_c, 3, 57, 92
9, 131009, Note_on_c, 3, 60, 0
9, 131009, Note_on_c, 3, 57, 0
9, 131040, Note_on_c, 3, 60, 92
9, 131040, Note_on_c, 3, 57, 92
9, 131489, Note_on_c, 3, 60, 0
9, 131489, Note_on_c, 3, 57, 0
9, 131520, Note_on_c, 3, 60, 92
9, 131520, Note_on_c, 3, 57, 92
9, 131969, Note_on_c, 3, 60, 0
9, 131969, Note_on_c, 3, 57, 0
9, 132000, Note_on_c, 3, 57, 84
9, 132000, Note_on_c, 3, 60, 84
9, 132119, Note_on_c, 3, 57, 0
9, 132119, Note_on_c, 3, 60, 0
9, 132240, Note_on_c, 3, 63, 84
9, 132240, Note_on_c, 3, 60, 84
9, 132359, Note_on_c, 3, 63, 0
9, 132359, Note_on_c, 3, 60, 0
9, 132480, Note_on_c, 3, 60, 84
9, 132480, Note_on_c, 3, 63, 84
9, 132599, Note_on_c, 3, 60, 0
9, 132599, Note_on_c, 3, 63, 0
9, 132720, Note_on_c, 3, 63, 84
9, 132720, Note_on_c, 3, 60, 84
9, 132839, Note_on_c, 3, 63, 0
9, 132839, Note_on_c, 3, 60, 0
9, 132960, Note_on_c, 3, 63, 84
9, 132960, Note_on_c, 3, 60, 84
9, 133079, Note_on_c, 3, 63, 0
9, 133079, Note_on_c, 3, 60, 0
9, 133200, Note_on_c, 3, 60, 84
9, 133200, Note_on_c, 3, 63, 84
9, 133319, Note_on_c, 3, 60, 0
9, 133319, Note_on_c, 3, 63, 0
9, 133440, Note_on_c, 3, 60, 84
9, 133440, Note_on_c, 3, 63, 84
9, 133559, Note_on_c, 3, 60, 0
9, 133559, Note_on_c, 3, 63, 0
9, 133680, Note_on_c, 3, 63, 84
9, 133680, Note_on_c, 3, 60, 84
9, 133799, Note_on_c, 3, 63, 0
9, 133799, Note_on_c, 3, 60, 0
9, 133920, Note_on_c, 3, 57, 92
9, 133920, Note_on_c, 3, 60, 92
9, 134369, Note_on_c, 3, 57, 0
9, 134369, Note_on_c, 3, 60, 0
9, 134400, Note_on_c, 3, 57, 92
9, 134400, Note_on_c, 3, 60, 92
9, 134849, Note_on_c, 3, 57, 0
9, 134849, Note_on_c, 3, 60, 0
9, 134880, Note_on_c, 3, 57, 92
9, 134880, Note_on_c, 3, 60, 92
9, 135329, Note_on_c, 3, 57, 0
9, 135329, Note_on_c, 3, 60, 0
9, 135360, Note_on_c, 3, 57, 92
9, 135360, Note_on_c, 3, 60, 92
9, 135809, Note_on_c, 3, 57, 0
9, 135809, Note_on_c, 3, 60, 0
9, 135840, Note_on_c, 3, 57, 84
9, 135840, Note_on_c, 3, 60, 84
9, 135959, Note_on_c, 3, 57, 0
9, 135959, Note_on_c, 3, 60, 0
9, 137520, Note_on_c, 3, 58, 48
9, 137571, Note_on_c, 3, 58, 0
9, 137580, Note_on_c, 3, 57, 48
9, 137631, Note_on_c, 3, 57, 0
9, 137640, Note_on_c, 3, 58, 48
9, 137691, Note_on_c, 3, 58, 0
9, 137700, Note_on_c, 3, 62, 48
9, 137751, Note_on_c, 3, 62, 0
9, 137760, Note_on_c, 3, 58, 48
9, 137811, Note_on_c, 3, 58, 0
9, 137820, Note_on_c, 3, 57, 48
9, 137871, Note_on_c, 3, 57, 0
9, 137880, Note_on_c, 3, 58, 48
9, 137931, Note_on_c, 3, 58, 0
9, 137940, Note_on_c, 3, 62, 48
9, 137991, Note_on_c, 3, 62, 0
9, 138000, Note_on_c, 3, 53, 48
9, 138051, Note_on_c, 3, 53, 0
9, 138060, Note_on_c, 3, 55, 48
9, 138111, Note_on_c, 3, 55, 0
9, 138120, Note_on_c, 3, 57, 48
9, 138171, Note_on_c, 3, 57, 0
9, 138180, Note_on_c, 3, 58, 48
9, 138211, Note_on_c, 3, 58, 0
9, 138220, Note_on_c, 3, 62, 48
9, 138239, Note_on_c, 3, 62, 0
9, 138240, Note_on_c, 3, 60, 48
9, 138291, Note_on_c, 3, 60, 0
9, 138300, Note_on_c, 3, 59, 48
9, 138351, Note_on_c, 3, 59, 0
9, 138360, Note_on_c, 3, 60, 48
9, 138411, Note_on_c, 3, 60, 0
9, 138420, Note_on_c, 3, 63, 48
9, 138471, Note_on_c, 3, 63, 0
9, 138480, Note_on_c, 3, 67, 48
9, 138531, Note_on_c, 3, 67, 0
9, 138540, Note_on_c, 3, 65, 48
9, 138591, Note_on_c, 3, 65, 0
9, 138600, Note_on_c, 3, 63, 48
9, 138651, Note_on_c, 3, 63, 0
9, 138660, Note_on_c, 3, 62, 48
9, 138711, Note_on_c, 3, 62, 0
9, 138720, Note_on_c, 3, 60, 48
9, 138771, Note_on_c, 3, 60, 0
9, 138780, Note_on_c, 3, 58, 48
9, 138831, Note_on_c, 3, 58, 0
9, 138840, Note_on_c, 3, 57, 48
9, 138891, Note_on_c, 3, 57, 0
9, 138900, Note_on_c, 3, 55, 48
9, 138951, Note_on_c, 3, 55, 0
9, 138960, Note_on_c, 3, 41, 52
9, 138960, Note_on_c, 3, 53, 52
9, 139064, Note_on_c, 3, 41, 0
9, 139064, Note_on_c, 3, 53, 0
9, 139200, Note_on_c, 3, 46, 52
9, 139319, Note_on_c, 3, 46, 0
9, 139440, Note_on_c, 3, 41, 52
9, 139559, Note_on_c, 3, 41, 0
9, 139680, Note_on_c, 3, 46, 76
9, 139799, Note_on_c, 3, 46, 0
9, 139920, Note_on_c, 3, 58, 76
9, 140039, Note_on_c, 3, 58, 0
9, 140160, Note_on_c, 3, 51, 76
9, 140279, Note_on_c, 3, 51, 0
9, 140880, Note_on_c, 3, 65, 76
9, 140880, Note_on_c, 3, 53, 76
9, 140999, Note_on_c, 3, 65, 0
9, 140999, Note_on_c, 3, 53, 0
9, 141120, Note_on_c, 3, 46, 76
9, 141120, Note_on_c, 3, 58, 76
9, 141239, Note_on_c, 3, 46, 0
9, 141239, Note_on_c, 3, 58, 0
9, 141360, Note_on_c, 3, 41, 76
9, 141360, Note_on_c, 3, 53, 76
9, 141479, Note_on_c, 3, 41, 0
9, 141479, Note_on_c, 3, 53, 0
9, 141600, Note_on_c, 3, 46, 76
9, 141600, Note_on_c, 3, 58, 76
9, 141839, Note_on_c, 3, 46, 0
9, 141839, Note_on_c, 3, 58, 0
9, 142080, Note_on_c, 3, 58, 76
9, 142080, Note_on_c, 3, 62, 76
9, 142319, Note_on_c, 3, 58, 0
9, 142319, Note_on_c, 3, 62, 0
9, 142560, Note_on_c, 3, 60, 76
9, 142560, Note_on_c, 3, 63, 76
9, 142799, Note_on_c, 3, 60, 0
9, 142799, Note_on_c, 3, 63, 0
9, 143040, Note_on_c, 3, 60, 76
9, 143040, Note_on_c, 3, 63, 76
9, 143279, Note_on_c, 3, 60, 0
9, 143279, Note_on_c, 3, 63, 0
9, 143520, Note_on_c, 3, 62, 76
9, 143520, Note_on_c, 3, 58, 76
9, 143759, Note_on_c, 3, 62, 0
9, 143759, Note_on_c, 3, 58, 0
9, 144000, Note_on_c, 3, 58, 76
9, 144000, Note_on_c, 3, 62, 76
9, 144239, Note_on_c, 3, 58, 0
9, 144239, Note_on_c, 3, 62, 0
9, 144480, Note_on_c, 3, 53, 76
9, 144480, Note_on_c, 3, 56, 76
9, 144719, Note_on_c, 3, 53, 0
9, 144719, Note_on_c, 3, 56, 0
9, 144960, Note_on_c, 3, 56, 76
9, 144960, Note_on_c, 3, 53, 76
9, 145199, Note_on_c, 3, 56, 0
9, 145199, Note_on_c, 3, 53, 0
9, 145440, Note_on_c, 3, 51, 76
9, 145440, Note_on_c, 3, 55, 76
9, 145679, Note_on_c, 3, 51, 0
9, 145679, Note_on_c, 3, 55, 0
9, 145920, Note_on_c, 3, 55, 76
9, 145920, Note_on_c, 3, 51, 76
9, 146159, Note_on_c, 3, 55, 0
9, 146159, Note_on_c, 3, 51, 0
9, 146400, Note_on_c, 3, 53, 76
9, 146400, Note_on_c, 3, 56, 76
9, 146639, Note_on_c, 3, 53, 0
9, 146639, Note_on_c, 3, 56, 0
9, 146880, Note_on_c, 3, 56, 76
9, 146880, Note_on_c, 3, 53, 76
9, 147119, Note_on_c, 3, 56, 0
9, 147119, Note_on_c, 3, 53, 0
9, 147360, Note_on_c, 3, 63, 52
9, 147464, Note_on_c, 3, 63, 0
9, 147480, Note_on_c, 3, 67, 52
9, 147584, Note_on_c, 3, 67, 0
9, 147600, Note_on_c, 3, 58, 52
9, 147704, Note_on_c, 3, 58, 0
9, 147720, Note_on_c, 3, 63, 52
9, 147824, Note_on_c, 3, 63, 0
9, 147840, Note_on_c, 3, 55, 52
9, 147944, Note_on_c, 3, 55, 0
9, 147960, Note_on_c, 3, 58, 52
9, 148064, Note_on_c, 3, 58, 0
9, 148080, Note_on_c, 3, 51, 52
9, 148184, Note_on_c, 3, 51, 0
9, 148200, Note_on_c, 3, 55, 52
9, 148319, Note_on_c, 3, 55, 0
9, 149280, Note_on_c, 3, 57, 76
9, 149384, Note_on_c, 3, 57, 0
9, 149400, Note_on_c, 3, 60, 76
9, 149504, Note_on_c, 3, 60, 0
9, 149520, Note_on_c, 3, 51, 76
9, 149624, Note_on_c, 3, 51, 0
9, 149640, Note_on_c, 3, 57, 76
9, 149744, Note_on_c, 3, 57, 0
9, 149760, Note_on_c, 3, 48, 76
9, 149864, Note_on_c, 3, 48, 0
9, 149880, Note_on_c, 3, 51, 76
9, 149984, Note_on_c, 3, 51, 0
9, 150000, Note_on_c, 3, 45, 76
9, 150104, Note_on_c, 3, 45, 0
9, 150120, Note_on_c, 3, 48, 76
9, 150224, Note_on_c, 3, 48, 0
9, 150240, Note_on_c, 3, 41, 84
9, 150240, Note_on_c, 3, 53, 84
9, 150824, Note_on_c, 3, 41, 0
9, 150824, Note_on_c, 3, 53, 0
9, 150840, Note_on_c, 3, 54, 84
9, 150840, Note_on_c, 3, 42, 84
9, 150959, Note_on_c, 3, 54, 0
9, 150959, Note_on_c, 3, 42, 0
9, 150960, Note_on_c, 3, 53, 84
9, 150960, Note_on_c, 3, 41, 84
9, 151079, Note_on_c, 3, 53, 0
9, 151079, Note_on_c, 3, 41, 0
9, 151080, Note_on_c, 3, 54, 84
9, 151080, Note_on_c, 3, 42, 84
9, 151184, Note_on_c, 3, 54, 0
9, 151184, Note_on_c, 3, 42, 0
9, 151200, Note_on_c, 3, 41, 84
9, 151200, Note_on_c, 3, 53, 84
9, 151304, Note_on_c, 3, 41, 0
9, 151304, Note_on_c, 3, 53, 0
9, 151320, Note_on_c, 3, 51, 84
9, 151320, Note_on_c, 3, 63, 84
9, 151439, Note_on_c, 3, 51, 0
9, 151439, Note_on_c, 3, 63, 0
9, 151440, Note_on_c, 3, 60, 84
9, 151440, Note_on_c, 3, 48, 84
9, 151559, Note_on_c, 3, 60, 0
9, 151559, Note_on_c, 3, 48, 0
9, 151560, Note_on_c, 3, 45, 84
9, 151560, Note_on_c, 3, 57, 84
9, 151664, Note_on_c, 3, 45, 0
9, 151664, Note_on_c, 3, 57, 0
9, 151680, Note_on_c, 3, 41, 84
9, 151680, Note_on_c, 3, 53, 84
9, 151799, Note_on_c, 3, 41, 0
9, 151799, Note_on_c, 3, 53, 0
9, 156000, Note_on_c, 3, 58, 52
9, 156479, Note_on_c, 3, 58, 0
9, 156480, Note_on_c, 3, 60, 52
9, 156959, Note_on_c, 3, 60, 0
9, 156960, Note_on_c, 3, 62, 52
9, 157439, Note_on_c, 3, 62, 0
9, 157440, Note_on_c, 3, 60, 52
9, 157904, Note_on_c, 3, 60, 0
9, 157920, Note_on_c, 3, 60, 52
9, 158279, Note_on_c, 3, 60, 0
9, 158280, Note_on_c, 3, 60, 52
9, 158384, Note_on_c, 3, 60, 0
9, 158400, Note_on_c, 3, 60, 52
9, 158519, Note_on_c, 3, 60, 0
9, 158640, Note_on_c, 3, 60, 52
9, 158759, Note_on_c, 3, 60, 0
9, 158880, Note_on_c, 3, 60, 52
9, 158999, Note_on_c, 3, 60, 0
9, 159120, Note_on_c, 3, 60, 52
9, 159239, Note_on_c, 3, 60, 0
9, 159358, Control_c, 3, 11, 96
9, 159360, Note_on_c, 3, 53, 68
9, 159719, Note_on_c, 3, 53, 0
9, 159720, Note_on_c, 3, 54, 68
9, 159720, Note_on_c, 3, 50, 68
9, 159839, Note_on_c, 3, 54, 0
9, 159839, Note_on_c, 3, 50, 0
9, 159840, Note_on_c, 3, 51, 68
9, 159840, Control_c, 3, 11, 96
9, 159840, Note_on_c, 3, 55, 68
9, 159867, Control_c, 3, 11, 99
9, 159893, Control_c, 3, 11, 103
9, 159920, Control_c, 3, 11, 106
9, 159947, Control_c, 3, 11, 110
9, 159973, Control_c, 3, 11, 113
9, 160000, Control_c, 3, 11, 117
9, 160027, Control_c, 3, 11, 120
9, 160053, Control_c, 3, 11, 127
9, 160080, Control_c, 3, 11, 127
9, 160107, Control_c, 3, 11, 124
9, 160133, Control_c, 3, 11, 120
9, 160160, Control_c, 3, 11, 117
9, 160187, Control_c, 3, 11, 113
9, 160199, Note_on_c, 3, 51, 0
9, 160199, Note_on_c, 3, 55, 0
9, 160200, Note_on_c, 3, 53, 68
9, 160200, Note_on_c, 3, 50, 68
9, 160213, Control_c, 3, 11, 110
9, 160240, Control_c, 3, 11, 106
9, 160267, Control_c, 3, 11, 103
9, 160293, Control_c, 3, 11, 96
9, 160304, Note_on_c, 3, 53, 0
9, 160304, Note_on_c, 3, 50, 0
9, 160320, Note_on_c, 3, 48, 68
9, 160320, Note_on_c, 3, 51, 68
9, 160559, Note_on_c, 3, 48, 0
9, 160559, Note_on_c, 3, 51, 0
9, 161640, Note_on_c, 3, 54, 68
9, 161640, Note_on_c, 3, 50, 68
9, 161759, Note_on_c, 3, 54, 0
9, 161759, Note_on_c, 3, 50, 0
9, 161760, Control_c, 3, 11, 96
9, 161760, Note_on_c, 3, 55, 68
9, 161760, Note_on_c, 3, 51, 68
9, 161787, Control_c, 3, 11, 99
9, 161813, Control_c, 3, 11, 103
9, 161840, Control_c, 3, 11, 106
9, 161864, Note_on_c, 3, 55, 0
9, 161864, Note_on_c, 3, 51, 0
9, 161867, Control_c, 3, 11, 110
9, 161880, Note_on_c, 3, 51, 68
9, 161880, Note_on_c, 3, 55, 68
9, 161893, Control_c, 3, 11, 113
9, 161920, Control_c, 3, 11, 117
9, 161947, Control_c, 3, 11, 120
9, 161973, Control_c, 3, 11, 127
9, 161999, Note_on_c, 3, 51, 0
9, 161999, Note_on_c, 3, 55, 0
9, 162000, Control_c, 3, 11, 127
9, 162027, Control_c, 3, 11, 124
9, 162053, Control_c, 3, 11, 120
9, 162080, Control_c, 3, 11, 117
9, 162107, Control_c, 3, 11, 113
9, 162120, Note_on_c, 3, 50, 68
9, 162120, Note_on_c, 3, 53, 68
9, 162133, Control_c, 3, 11, 110
9, 162160, Control_c, 3, 11, 106
9, 162187, Control_c, 3, 11, 103
9, 162213, Control_c, 3, 11, 96
9, 162239, Note_on_c, 3, 50, 0
9, 162239, Note_on_c, 3, 53, 0
9, 162240, Note_on_c, 3, 51, 68
9, 162240, Note_on_c, 3, 48, 68
9, 162344, Note_on_c, 3, 51, 0
9, 162344, Note_on_c, 3, 48, 0
9, 162360, Note_on_c, 3, 51, 68
9, 162360, Note_on_c, 3, 48, 68
9, 162479, Note_on_c, 3, 51, 0
9, 162479, Note_on_c, 3, 48, 0
9, 162598, Control_c, 3, 11, 127
9, 162600, Note_on_c, 3, 58, 76
9, 162600, Note_on_c, 3, 46, 76
9, 162704, Note_on_c, 3, 58, 0
9, 162704, Note_on_c, 3, 46, 0
9, 162720, Note_on_c, 3, 57, 76
9, 162720, Note_on_c, 3, 45, 76
9, 162839, Note_on_c, 3, 57, 0
9, 162839, Note_on_c, 3, 45, 0
9, 162840, Note_on_c, 3, 43, 76
9, 162840, Note_on_c, 3, 55, 76
9, 162944, Note_on_c, 3, 43, 0
9, 162944, Note_on_c, 3, 55, 0
9, 162960, Note_on_c, 3, 57, 76
9, 162960, Note_on_c, 3, 45, 76
9, 163049, Note_on_c, 3, 57, 0
9, 163049, Note_on_c, 3, 45, 0
9, 163080, Note_on_c, 3, 58, 76
9, 163080, Note_on_c, 3, 46, 76
9, 163169, Note_on_c, 3, 58, 0
9, 163169, Note_on_c, 3, 46, 0
9, 163200, Note_on_c, 3, 48, 76
9, 163200, Note_on_c, 3, 60, 76
9, 163289, Note_on_c, 3, 48, 0
9, 163289, Note_on_c, 3, 60, 0
9, 163320, Note_on_c, 3, 60, 76
9, 163320, Note_on_c, 3, 48, 76
9, 163409, Note_on_c, 3, 60, 0
9, 163409, Note_on_c, 3, 48, 0
9, 163560, Note_on_c, 3, 58, 76
9, 163560, Note_on_c, 3, 46, 76
9, 163664, Note_on_c, 3, 58, 0
9, 163664, Note_on_c, 3, 46, 0
9, 163680, Note_on_c, 3, 45, 76
9, 163680, Note_on_c, 3, 57, 76
9, 163799, Note_on_c, 3, 45, 0
9, 163799, Note_on_c, 3, 57, 0
9, 163800, Note_on_c, 3, 55, 76
9, 163800, Note_on_c, 3, 43, 76
9, 163904, Note_on_c, 3, 55, 0
9, 163904, Note_on_c, 3, 43, 0
9, 163920, Note_on_c, 3, 45, 76
9, 163920, Note_on_c, 3, 57, 76
9, 164009, Note_on_c, 3, 45, 0
9, 164009, Note_on_c, 3, 57, 0
9, 164040, Note_on_c, 3, 46, 76
9, 164040, Note_on_c, 3, 58, 76
9, 164129, Note_on_c, 3, 46, 0
9, 164129, Note_on_c, 3, 58, 0
9, 164160, Note_on_c, 3, 48, 76
9, 164160, Note_on_c, 3, 60, 76
9, 164264, Note_on_c, 3, 48, 0
9, 164264, Note_on_c, 3, 60, 0
9, 164280, Note_on_c, 3, 60, 76
9, 164280, Note_on_c, 3, 48, 76
9, 164399, Note_on_c, 3, 60, 0
9, 164399, Note_on_c, 3, 48, 0
9, 164520, Note_on_c, 3, 62, 76
9, 164520, Note_on_c, 3, 50, 76
9, 164624, Note_on_c, 3, 62, 0
9, 164624, Note_on_c, 3, 50, 0
9, 164640, Note_on_c, 3, 63, 76
9, 164640, Note_on_c, 3, 51, 76
9, 164744, Note_on_c, 3, 63, 0
9, 164744, Note_on_c, 3, 51, 0
9, 164760, Note_on_c, 3, 62, 76
9, 164760, Note_on_c, 3, 50, 76
9, 164864, Note_on_c, 3, 62, 0
9, 164864, Note_on_c, 3, 50, 0
9, 164880, Note_on_c, 3, 63, 76
9, 164880, Note_on_c, 3, 51, 76
9, 164984, Note_on_c, 3, 63, 0
9, 164984, Note_on_c, 3, 51, 0
9, 165000, Note_on_c, 3, 60, 76
9, 165000, Note_on_c, 3, 48, 76
9, 165104, Note_on_c, 3, 60, 0
9, 165104, Note_on_c, 3, 48, 0
9, 165120, Note_on_c, 3, 58, 84
9, 165120, Note_on_c, 3, 61, 84
9, 166064, Note_on_c, 3, 58, 0
9, 166064, Note_on_c, 3, 61, 0
9, 166080, Note_on_c, 3, 58, 84
9, 166080, Note_on_c, 3, 61, 84
9, 166304, Note_on_c, 3, 58, 0
9, 166304, Note_on_c, 3, 61, 0
9, 166320, Note_on_c, 3, 61, 92
9, 166320, Note_on_c, 3, 58, 92
9, 166559, Note_on_c, 3, 61, 0
9, 166559, Note_on_c, 3, 58, 0
9, 166800, Note_on_c, 3, 58, 92
9, 166800, Note_on_c, 3, 61, 92
9, 167039, Note_on_c, 3, 58, 0
9, 167039, Note_on_c, 3, 61, 0
9, 167280, Note_on_c, 3, 58, 92
9, 167280, Note_on_c, 3, 61, 92
9, 167519, Note_on_c, 3, 58, 0
9, 167519, Note_on_c, 3, 61, 0
9, 167760, Note_on_c, 3, 61, 92
9, 167760, Note_on_c, 3, 58, 92
9, 167999, Note_on_c, 3, 61, 0
9, 167999, Note_on_c, 3, 58, 0
9, 169920, Note_on_c, 3, 58, 84
9, 169920, Note_on_c, 3, 61, 84
9, 170144, Note_on_c, 3, 58, 0
9, 170144, Note_on_c, 3, 61, 0
9, 170160, Note_on_c, 3, 61, 92
9, 170160, Note_on_c, 3, 58, 92
9, 170399, Note_on_c, 3, 61, 0
9, 170399, Note_on_c, 3, 58, 0
9, 170640, Note_on_c, 3, 61, 92
9, 170640, Note_on_c, 3, 58, 92
9, 170879, Note_on_c, 3, 61, 0
9, 170879, Note_on_c, 3, 58, 0
9, 171120, Note_on_c, 3, 61, 92
9, 171120, Note_on_c, 3, 58, 92
9, 171359, Note_on_c, 3, 61, 0
9, 171359, Note_on_c, 3, 58, 0
9, 171600, Note_on_c, 3, 61, 92
9, 171600, Note_on_c, 3, 58, 92
9, 171839, Note_on_c, 3, 61, 0
9, 171839, Note_on_c, 3, 58, 0
9, 174480, Control_c, 3, 11, 64
9, 174720, Note_on_c, 3, 62, 84
9, 174720, Note_on_c, 3, 50, 84
9, 174720, Control_c, 3, 11, 64
9, 174760, Control_c, 3, 11, 67
9, 174800, Control_c, 3, 11, 69
9, 174840, Control_c, 3, 11, 72
9, 174880, Control_c, 3, 11, 75
9, 174920, Control_c, 3, 11, 77
9, 174959, Note_on_c, 3, 62, 0
9, 174959, Note_on_c, 3, 50, 0
9, 174960, Control_c, 3, 11, 80
9, 174960, Note_on_c, 3, 55, 84
9, 174960, Note_on_c, 3, 67, 84
9, 175000, Control_c, 3, 11, 82
9, 175040, Control_c, 3, 11, 85
9, 175080, Control_c, 3, 11, 88
9, 175120, Control_c, 3, 11, 90
9, 175160, Control_c, 3, 11, 93
9, 175199, Note_on_c, 3, 55, 0
9, 175199, Note_on_c, 3, 67, 0
9, 175200, Note_on_c, 3, 51, 84
9, 175200, Control_c, 3, 11, 96
9, 175200, Note_on_c, 3, 63, 84
9, 175240, Control_c, 3, 11, 98
9, 175280, Control_c, 3, 11, 101
9, 175320, Control_c, 3, 11, 103
9, 175360, Control_c, 3, 11, 106
9, 175400, Control_c, 3, 11, 109
9, 175439, Note_on_c, 3, 51, 0
9, 175439, Note_on_c, 3, 63, 0
9, 175440, Control_c, 3, 11, 111
9, 175440, Note_on_c, 3, 53, 84
9, 175440, Note_on_c, 3, 65, 84
9, 175480, Control_c, 3, 11, 114
9, 175520, Control_c, 3, 11, 117
9, 175560, Control_c, 3, 11, 119
9, 175600, Control_c, 3, 11, 122
9, 175640, Control_c, 3, 11, 127
9, 175664, Note_on_c, 3, 53, 0
9, 175664, Note_on_c, 3, 65, 0
9, 175680, Note_on_c, 3, 62, 84
9, 175680, Note_on_c, 3, 50, 84
9, 175784, Note_on_c, 3, 62, 0
9, 175784, Note_on_c, 3, 50, 0
9, 175800, Note_on_c, 3, 62, 84
9, 175800, Note_on_c, 3, 50, 84
9, 175904, Note_on_c, 3, 62, 0
9, 175904, Note_on_c, 3, 50, 0
9, 175920, Note_on_c, 3, 67, 84
9, 175920, Note_on_c, 3, 55, 84
9, 176024, Note_on_c, 3, 67, 0
9, 176024, Note_on_c, 3, 55, 0
9, 176040, Note_on_c, 3, 67, 84
9, 176040, Note_on_c, 3, 55, 84
9, 176144, Note_on_c, 3, 67, 0
9, 176144, Note_on_c, 3, 55, 0
9, 176160, Note_on_c, 3, 51, 84
9, 176160, Note_on_c, 3, 63, 84
9, 176264, Note_on_c, 3, 51, 0
9, 176264, Note_on_c, 3, 63, 0
9, 176280, Note_on_c, 3, 63, 84
9, 176280, Note_on_c, 3, 51, 84
9, 176384, Note_on_c, 3, 63, 0
9, 176384, Note_on_c, 3, 51, 0
9, 176400, Note_on_c, 3, 65, 84
9, 176400, Note_on_c, 3, 53, 84
9, 176504, Note_on_c, 3, 65, 0
9, 176504, Note_on_c, 3, 53, 0
9, 176520, Note_on_c, 3, 53, 84
9, 176520, Note_on_c, 3, 65, 84
9, 176624, Note_on_c, 3, 53, 0
9, 176624, Note_on_c, 3, 65, 0
9, 176640, Note_on_c, 3, 46, 84
9, 176640, Note_on_c, 3, 58, 84
9, 176759, Note_on_c, 3, 46, 0
9, 176759, Note_on_c, 3, 58, 0
9, 177600, Note_on_c, 3, 58, 84
9, 177689, Note_on_c, 3, 58, 0
9, 177720, Note_on_c, 3, 62, 84
9, 177809, Note_on_c, 3, 62, 0
9, 177840, Note_on_c, 3, 55, 84
9, 177929, Note_on_c, 3, 55, 0
9, 177960, Note_on_c, 3, 60, 84
9, 178049, Note_on_c, 3, 60, 0
9, 178080, Note_on_c, 3, 53, 84
9, 178169, Note_on_c, 3, 53, 0
9, 178200, Note_on_c, 3, 58, 84
9, 178289, Note_on_c, 3, 58, 0
9, 178320, Note_on_c, 3, 51, 84
9, 178409, Note_on_c, 3, 51, 0
9, 178440, Note_on_c, 3, 57, 84
9, 178529, Note_on_c, 3, 57, 0
9, 178560, Note_on_c, 3, 58, 84
9, 178560, Note_on_c, 3, 50, 84
9, 178679, Note_on_c, 3, 58, 0
9, 178679, Note_on_c, 3, 50, 0
9, 179520, Note_on_c, 3, 58, 84
9, 179609, Note_on_c, 3, 58, 0
9, 179640, Note_on_c, 3, 62, 84
9, 179729, Note_on_c, 3, 62, 0
9, 179760, Note_on_c, 3, 55, 84
9, 179849, Note_on_c, 3, 55, 0
9, 179880, Note_on_c, 3, 60, 84
9, 179969, Note_on_c, 3, 60, 0
9, 180000, Note_on_c, 3, 53, 84
9, 180089, Note_on_c, 3, 53, 0
9, 180120, Note_on_c, 3, 58, 84
9, 180209, Note_on_c, 3, 58, 0
9, 180240, Note_on_c, 3, 51, 84
9, 180329, Note_on_c, 3, 51, 0
9, 180360, Note_on_c, 3, 57, 84
9, 180449, Note_on_c, 3, 57, 0
9, 180480, Note_on_c, 3, 46, 84
9, 180480, Note_on_c, 3, 58, 84
9, 180584, Note_on_c, 3, 46, 0
9, 180584, Note_on_c, 3, 58, 0
9, 180600, Note_on_c, 3, 58, 84
9, 180600, Note_on_c, 3, 62, 84
9, 180719, Note_on_c, 3, 58, 0
9, 180719, Note_on_c, 3, 62, 0
9, 180840, Note_on_c, 3, 58, 84
9, 180840, Note_on_c, 3, 62, 84
9, 180944, Note_on_c, 3, 58, 0
9, 180944, Note_on_c, 3, 62, 0
9, 180960, Note_on_c, 3, 58, 84
9, 180960, Note_on_c, 3, 62, 84
9, 181064, Note_on_c, 3, 58, 0
9, 181064, Note_on_c, 3, 62, 0
9, 181080, Note_on_c, 3, 62, 84
9, 181080, Note_on_c, 3, 58, 84
9, 181199, Note_on_c, 3, 62, 0
9, 181199, Note_on_c, 3, 58, 0
9, 181320, Note_on_c, 3, 62, 84
9, 181320, Note_on_c, 3, 58, 84
9, 181424, Note_on_c, 3, 62, 0
9, 181424, Note_on_c, 3, 58, 0
9, 181440, Note_on_c, 3, 58, 84
9, 181440, Note_on_c, 3, 62, 84
9, 181544, Note_on_c, 3, 58, 0
9, 181544, Note_on_c, 3, 62, 0
9, 181560, Note_on_c, 3, 58, 84
9, 181560, Note_on_c, 3, 62, 84
9, 181679, Note_on_c, 3, 58, 0
9, 181679, Note_on_c, 3, 62, 0
9, 181800, Note_on_c, 3, 62, 84
9, 181800, Note_on_c, 3, 58, 84
9, 181904, Note_on_c, 3, 62, 0
9, 181904, Note_on_c, 3, 58, 0
9, 181920, Note_on_c, 3, 62, 84
9, 181920, Note_on_c, 3, 58, 84
9, 182024, Note_on_c, 3, 62, 0
9, 182024, Note_on_c, 3, 58, 0
9, 182040, Note_on_c, 3, 62, 84
9, 182040, Note_on_c, 3, 58, 84
9, 182144, Note_on_c, 3, 62, 0
9, 182144, Note_on_c, 3, 58, 0
9, 182160, Note_on_c, 3, 62, 84
9, 182160, Note_on_c, 3, 58, 84
9, 182264, Note_on_c, 3, 62, 0
9, 182264, Note_on_c, 3, 58, 0
9, 182280, Note_on_c, 3, 62, 84
9, 182280, Note_on_c, 3, 58, 84
9, 182384, Note_on_c, 3, 62, 0
9, 182384, Note_on_c, 3, 58, 0
9, 182400, Note_on_c, 3, 62, 52
9, 182400, Note_on_c, 3, 58, 52
9, 182519, Note_on_c, 3, 62, 0
9, 182519, Note_on_c, 3, 58, 0
9, 188400, Note_on_c, 3, 63, 76
9, 188400, Note_on_c, 3, 60, 76
9, 188639, Note_on_c, 3, 63, 0
9, 188639, Note_on_c, 3, 60, 0
9, 188880, Note_on_c, 3, 60, 84
9, 188880, Note_on_c, 3, 63, 84
9, 189119, Note_on_c, 3, 60, 0
9, 189119, Note_on_c, 3, 63, 0
9, 189360, Note_on_c, 3, 60, 84
9, 189360, Note_on_c, 3, 63, 84
9, 189599, Note_on_c, 3, 60, 0
9, 189599, Note_on_c, 3, 63, 0
9, 189840, Note_on_c, 3, 60, 84
9, 189840, Note_on_c, 3, 63, 84
9, 190079, Note_on_c, 3, 60, 0
9, 190079, Note_on_c, 3, 63, 0
9, 192000, Note_on_c, 3, 58, 44
9, 192119, Note_on_c, 3, 58, 0
9, 192240, Note_on_c, 3, 58, 44
9, 192359, Note_on_c, 3, 58, 0
9, 192480, Note_on_c, 3, 51, 44
9, 192599, Note_on_c, 3, 51, 0
9, 193200, Note_on_c, 3, 41, 44
9, 193200, Note_on_c, 3, 65, 44
9, 193251, Note_on_c, 3, 65, 0
9, 193260, Note_on_c, 3, 63, 44
9, 193311, Note_on_c, 3, 63, 0
9, 193319, Note_on_c, 3, 41, 0
9, 193320, Note_on_c, 3, 62, 44
9, 193371, Note_on_c, 3, 62, 0
9, 193380, Note_on_c, 3, 60, 44
9, 193431, Note_on_c, 3, 60, 0
9, 193440, Note_on_c, 3, 58, 44
9, 193440, Note_on_c, 3, 46, 44
9, 193491, Note_on_c, 3, 58, 0
9, 193500, Note_on_c, 3, 60, 44
9, 193551, Note_on_c, 3, 60, 0
9, 193559, Note_on_c, 3, 46, 0
9, 193560, Note_on_c, 3, 62, 44
9, 193611, Note_on_c, 3, 62, 0
9, 193620, Note_on_c, 3, 58, 44
9, 193671, Note_on_c, 3, 58, 0
9, 193680, Note_on_c, 3, 53, 44
9, 193680, Note_on_c, 3, 41, 44
9, 193731, Note_on_c, 3, 53, 0
9, 193740, Note_on_c, 3, 57, 44
9, 193791, Note_on_c, 3, 57, 0
9, 193799, Note_on_c, 3, 41, 0
9, 193800, Note_on_c, 3, 60, 44
9, 193851, Note_on_c, 3, 60, 0
9, 193860, Note_on_c, 3, 65, 44
9, 193911, Note_on_c, 3, 65, 0
9, 193920, Note_on_c, 3, 58, 84
9, 193920, Note_on_c, 3, 46, 84
9, 194384, Note_on_c, 3, 58, 0
9, 194384, Note_on_c, 3, 46, 0
9, 194400, Note_on_c, 3, 63, 84
9, 194400, Note_on_c, 3, 51, 84
9, 195104, Note_on_c, 3, 63, 0
9, 195104, Note_on_c, 3, 51, 0
9, 195120, Note_on_c, 3, 65, 84
9, 195120, Note_on_c, 3, 53, 84
9, 195344, Note_on_c, 3, 65, 0
9, 195344, Note_on_c, 3, 53, 0
9, 195360, Note_on_c, 3, 58, 84
9, 195360, Note_on_c, 3, 46, 84
9, 195584, Note_on_c, 3, 58, 0
9, 195584, Note_on_c, 3, 46, 0
9, 195600, Note_on_c, 3, 53, 84
9, 195600, Note_on_c, 3, 41, 84
9, 196064, Note_on_c, 3, 53, 0
9, 196064, Note_on_c, 3, 41, 0
9, 196080, Note_on_c, 3, 65, 84
9, 196080, Note_on_c, 3, 53, 84
9, 196304, Note_on_c, 3, 65, 0
9, 196304, Note_on_c, 3, 53, 0
9, 196320, Note_on_c, 3, 58, 84
9, 196320, Note_on_c, 3, 46, 84
9, 196544, Note_on_c, 3, 58, 0
9, 196544, Note_on_c, 3, 46, 0
9, 196560, Note_on_c, 3, 53, 84
9, 196560, Note_on_c, 3, 41, 84
9, 197024, Note_on_c, 3, 53, 0
9, 197024, Note_on_c, 3, 41, 0
9, 197040, Note_on_c, 3, 65, 84
9, 197040, Note_on_c, 3, 53, 84
9, 197264, Note_on_c, 3, 65, 0
9, 197264, Note_on_c, 3, 53, 0
9, 197280, Note_on_c, 3, 58, 84
9, 197280, Note_on_c, 3, 46, 84
9, 197504, Note_on_c, 3, 58, 0
9, 197504, Note_on_c, 3, 46, 0
9, 197520, Note_on_c, 3, 53, 84
9, 197520, Note_on_c, 3, 41, 84
9, 197984, Note_on_c, 3, 53, 0
9, 197984, Note_on_c, 3, 41, 0
9, 198000, Note_on_c, 3, 65, 84
9, 198000, Note_on_c, 3, 53, 84
9, 198224, Note_on_c, 3, 65, 0
9, 198224, Note_on_c, 3, 53, 0
9, 198240, Note_on_c, 3, 46, 84
9, 198240, Note_on_c, 3, 58, 84
9, 198464, Note_on_c, 3, 46, 0
9, 198464, Note_on_c, 3, 58, 0
9, 198480, Note_on_c, 3, 53, 84
9, 198480, Note_on_c, 3, 41, 84
9, 198824, Note_on_c, 3, 53, 0
9, 198824, Note_on_c, 3, 41, 0
9, 198840, Note_on_c, 3, 46, 84
9, 198944, Note_on_c, 3, 46, 0
9, 198960, Note_on_c, 3, 49, 84
9, 199064, Note_on_c, 3, 49, 0
9, 199080, Note_on_c, 3, 53, 84
9, 199184, Note_on_c, 3, 53, 0
9, 199200, Note_on_c, 3, 58, 84
9, 199304, Note_on_c, 3, 58, 0
9, 199320, Note_on_c, 3, 61, 84
9, 199424, Note_on_c, 3, 61, 0
9, 199440, Note_on_c, 3, 65, 84
9, 199544, Note_on_c, 3, 65, 0
9, 199560, Note_on_c, 3, 61, 84
9, 199664, Note_on_c, 3, 61, 0
9, 199680, Note_on_c, 3, 58, 84
9, 199784, Note_on_c, 3, 58, 0
9, 199800, Note_on_c, 3, 61, 84
9, 199904, Note_on_c, 3, 61, 0
9, 199920, Note_on_c, 3, 58, 84
9, 200024, Note_on_c, 3, 58, 0
9, 200040, Note_on_c, 3, 53, 84
9, 200144, Note_on_c, 3, 53, 0
9, 200160, Note_on_c, 3, 49, 84
9, 200264, Note_on_c, 3, 49, 0
9, 200280, Note_on_c, 3, 46, 84
9, 200384, Note_on_c, 3, 46, 0
9, 200400, Note_on_c, 3, 41, 84
9, 200504, Note_on_c, 3, 41, 0
9, 200520, Note_on_c, 3, 46, 84
9, 200624, Note_on_c, 3, 46, 0
9, 200640, Note_on_c, 3, 41, 92
9, 200760, Control_c, 3, 11, 112
9, 200795, Control_c, 3, 11, 109
9, 200830, Control_c, 3, 11, 107
9, 200865, Control_c, 3, 11, 104
9, 200900, Control_c, 3, 11, 101
9, 200935, Control_c, 3, 11, 99
9, 200970, Control_c, 3, 11, 96
9, 201005, Control_c, 3, 11, 93
9, 201040, Control_c, 3, 11, 91
9, 201075, Control_c, 3, 11, 88
9, 201110, Control_c, 3, 11, 85
9, 201145, Control_c, 3, 11, 83
9, 201180, Control_c, 3, 11, 80
9, 201215, Control_c, 3, 11, 77
9, 201250, Control_c, 3, 11, 75
9, 201285, Control_c, 3, 11, 72
9, 201320, Control_c, 3, 11, 69
9, 201355, Control_c, 3, 11, 67
9, 201390, Control_c, 3, 11, 64
9, 201425, Control_c, 3, 11, 61
9, 201460, Control_c, 3, 11, 59
9, 201495, Control_c, 3, 11, 56
9, 201530, Control_c, 3, 11, 53
9, 201565, Control_c, 3, 11, 48
9, 202079, Note_on_c, 3, 41, 0
9, 204240, Control_c, 3, 11, 127
9, 204480, Note_on_c, 3, 63, 52
9, 204599, Note_on_c, 3, 63, 0
9, 204600, Note_on_c, 3, 62, 52
9, 204719, Note_on_c, 3, 62, 0
9, 204720, Note_on_c, 3, 63, 52
9, 204839, Note_on_c, 3, 63, 0
9, 204840, Note_on_c, 3, 60, 52
9, 204959, Note_on_c, 3, 60, 0
9, 204960, Note_on_c, 3, 58, 52
9, 205079, Note_on_c, 3, 58, 0
9, 205080, Note_on_c, 3, 62, 52
9, 205199, Note_on_c, 3, 62, 0
9, 205200, Note_on_c, 3, 58, 52
9, 205319, Note_on_c, 3, 58, 0
9, 205320, Note_on_c, 3, 55, 52
9, 205424, Note_on_c, 3, 55, 0
9, 205440, Note_on_c, 3, 53, 52
9, 205559, Note_on_c, 3, 53, 0
9, 205680, Note_on_c, 3, 53, 52
9, 205799, Note_on_c, 3, 53, 0
9, 205920, Note_on_c, 3, 53, 44
9, 206159, Note_on_c, 3, 53, 0
9, 206280, Note_on_c, 3, 58, 52
9, 206280, Note_on_c, 3, 62, 52
9, 206399, Note_on_c, 3, 58, 0
9, 206399, Note_on_c, 3, 62, 0
9, 206400, Note_on_c, 3, 60, 52
9, 206400, Note_on_c, 3, 63, 52
9, 206519, Note_on_c, 3, 60, 0
9, 206519, Note_on_c, 3, 63, 0
9, 206520, Note_on_c, 3, 62, 52
9, 206520, Note_on_c, 3, 65, 52
9, 206639, Note_on_c, 3, 62, 0
9, 206639, Note_on_c, 3, 65, 0
9, 206640, Note_on_c, 3, 63, 52
9, 206640, Note_on_c, 3, 67, 52
9, 206759, Note_on_c, 3, 63, 0
9, 206759, Note_on_c, 3, 67, 0
9, 206760, Note_on_c, 3, 62, 52
9, 206760, Note_on_c, 3, 65, 52
9, 206879, Note_on_c, 3, 62, 0
9, 206879, Note_on_c, 3, 65, 0
9, 206880, Note_on_c, 3, 60, 52
9, 206880, Note_on_c, 3, 63, 52
9, 207119, Note_on_c, 3, 60, 0
9, 207119, Note_on_c, 3, 63, 0
9, 207240, Note_on_c, 3, 57, 52
9, 207240, Note_on_c, 3, 60, 52
9, 207359, Note_on_c, 3, 57, 0
9, 207359, Note_on_c, 3, 60, 0
9, 207360, Note_on_c, 3, 58, 52
9, 207360, Note_on_c, 3, 62, 52
9, 207479, Note_on_c, 3, 58, 0
9, 207479, Note_on_c, 3, 62, 0
9, 207480, Note_on_c, 3, 60, 52
9, 207480, Note_on_c, 3, 63, 52
9, 207599, Note_on_c, 3, 60, 0
9, 207599, Note_on_c, 3, 63, 0
9, 207600, Note_on_c, 3, 65, 52
9, 207600, Note_on_c, 3, 62, 52
9, 207719, Note_on_c, 3, 65, 0
9, 207719, Note_on_c, 3, 62, 0
9, 207720, Note_on_c, 3, 63, 52
9, 207720, Note_on_c, 3, 60, 52
9, 207839, Note_on_c, 3, 63, 0
9, 207839, Note_on_c, 3, 60, 0
9, 207840, Note_on_c, 3, 62, 52
9, 207840, Note_on_c, 3, 58, 52
9, 208079, Note_on_c, 3, 62, 0
9, 208079, Note_on_c, 3, 58, 0
9, 210920, Control_c, 3, 11, 96
9, 210960, Note_on_c, 3, 50, 84
9, 210960, Note_on_c, 3, 53, 84
9, 210960, Control_c, 3, 11, 97
9, 211000, Control_c, 3, 11, 99
9, 211040, Control_c, 3, 11, 101
9, 211080, Control_c, 3, 11, 102
9, 211120, Control_c, 3, 11, 104
9, 211160, Control_c, 3, 11, 106
9, 211199, Note_on_c, 3, 50, 0
9, 211199, Note_on_c, 3, 53, 0
9, 211200, Control_c, 3, 11, 107
9, 211200, Note_on_c, 3, 55, 84
9, 211200, Note_on_c, 3, 51, 84
9, 211240, Control_c, 3, 11, 109
9, 211280, Control_c, 3, 11, 111
9, 211320, Control_c, 3, 11, 112
9, 211360, Control_c, 3, 11, 114
9, 211400, Control_c, 3, 11, 115
9, 211424, Note_on_c, 3, 55, 0
9, 211424, Note_on_c, 3, 51, 0
9, 211440, Note_on_c, 3, 52, 84
9, 211440, Note_on_c, 3, 55, 84
9, 211440, Control_c, 3, 11, 117
9, 211480, Control_c, 3, 11, 119
9, 211520, Control_c, 3, 11, 120
9, 211560, Control_c, 3, 11, 122
9, 211600, Control_c, 3, 11, 124
9, 211640, Control_c, 3, 11, 127
9, 212624, Note_on_c, 3, 52, 0
9, 212624, Note_on_c, 3, 55, 0
9, 212640, Note_on_c, 3, 52, 84
9, 212759, Note_on_c, 3, 52, 0
9, 212880, Note_on_c, 3, 52, 84
9, 212999, Note_on_c, 3, 52, 0
9, 213600, Note_on_c, 3, 53, 84
9, 213719, Note_on_c, 3, 53, 0
9, 213840, Note_on_c, 3, 53, 84
9, 213959, Note_on_c, 3, 53, 0
9, 216000, Note_on_c, 3, 67, 44
9, 216119, Note_on_c, 3, 67, 0
9, 216120, Note_on_c, 3, 65, 44
9, 216239, Note_on_c, 3, 65, 0
9, 216240, Note_on_c, 3, 63, 44
9, 216359, Note_on_c, 3, 63, 0
9, 216360, Note_on_c, 3, 62, 44
9, 216479, Note_on_c, 3, 62, 0
9, 217200, Note_on_c, 3, 67, 84
9, 217251, Note_on_c, 3, 67, 0
9, 217260, Note_on_c, 3, 65, 84
9, 217311, Note_on_c, 3, 65, 0
9, 217320, Note_on_c, 3, 63, 84
9, 217371, Note_on_c, 3, 63, 0
9, 217380, Note_on_c, 3, 62, 84
9, 217431, Note_on_c, 3, 62, 0
9, 217440, Note_on_c, 3, 60, 84
9, 217491, Note_on_c, 3, 60, 0
9, 217500, Note_on_c, 3, 58, 84
9, 217551, Note_on_c, 3, 58, 0
9, 217560, Note_on_c, 3, 57, 84
9, 217611, Note_on_c, 3, 57, 0
9, 217620, Note_on_c, 3, 55, 84
9, 217671, Note_on_c, 3, 55, 0
9, 217680, Note_on_c, 3, 53, 84
9, 217731, Note_on_c, 3, 53, 0
9, 217740, Note_on_c, 3, 51, 84
9, 217791, Note_on_c, 3, 51, 0
9, 217800, Note_on_c, 3, 50, 84
9, 217851, Note_on_c, 3, 50, 0
9, 217860, Note_on_c, 3, 48, 84
9, 217911, Note_on_c, 3, 48, 0
9, 217920, Note_on_c, 3, 46, 84
9, 217971, Note_on_c, 3, 46, 0
9, 217980, Note_on_c, 3, 48, 84
9, 218031, Note_on_c, 3, 48, 0
9, 218040, Note_on_c, 3, 50, 84
9, 218091, Note_on_c, 3, 50, 0
9, 218100, Note_on_c, 3, 46, 84
9, 218151, Note_on_c, 3, 46, 0
9, 218160, Note_on_c, 3, 41, 84
9, 218211, Note_on_c, 3, 41, 0
9, 218220, Note_on_c, 3, 45, 84
9, 218271, Note_on_c, 3, 45, 0
9, 218280, Note_on_c, 3, 48, 84
9, 218331, Note_on_c, 3, 48, 0
9, 218340, Note_on_c, 3, 53, 84
9, 218391, Note_on_c, 3, 53, 0
9, 218400, Note_on_c, 3, 46, 84
9, 218519, Note_on_c, 3, 46, 0
9, 218880, Note_on_c, 3, 41, 84
9, 218999, Note_on_c, 3, 41, 0
9, 219360, Note_on_c, 3, 46, 84
9, 219479, Note_on_c, 3, 46, 0
9, 219479, End_track
10, 0, Start_track
10, 0, Title_t, "French Horn I and II in B-flat"
10, 0, MIDI_port, 0
10, 0, Program_c, 4, 60
10, 0, Control_c, 4, 7, 96
10, 0, Control_c, 4, 10, 45
10, 0, Control_c, 4, 11, 127
10, 1200, Note_on_c, 4, 60, 76
10, 1200, Note_on_c, 4, 53, 76
10, 1319, Note_on_c, 4, 60, 0
10, 1319, Note_on_c, 4, 53, 0
10, 1440, Note_on_c, 4, 62, 76
10, 1440, Note_on_c, 4, 58, 76
10, 1559, Note_on_c, 4, 62, 0
10, 1559, Note_on_c, 4, 58, 0
10, 1680, Note_on_c, 4, 65, 76
10, 1680, Note_on_c, 4, 53, 76
10, 1799, Note_on_c, 4, 65, 0
10, 1799, Note_on_c, 4, 53, 0
10, 9120, Note_on_c, 4, 65, 52
10, 9120, Note_on_c, 4, 53, 52
10, 9224, Note_on_c, 4, 65, 0
10, 9224, Note_on_c, 4, 53, 0
10, 9360, Note_on_c, 4, 53, 68
10, 9360, Note_on_c, 4, 65, 68
10, 9464, Note_on_c, 4, 53, 0
10, 9464, Note_on_c, 4, 65, 0
10, 9600, Note_on_c, 4, 58, 84
10, 9600, Note_on_c, 4, 46, 84
10, 11144, Note_on_c, 4, 58, 0
10, 11144, Note_on_c, 4, 46, 0
10, 11160, Note_on_c, 4, 58, 84
10, 11160, Note_on_c, 4, 46, 84
10, 11264, Note_on_c, 4, 58, 0
10, 11264, Note_on_c, 4, 46, 0
10, 11280, Note_on_c, 4, 46, 84
10, 11280, Note_on_c, 4, 58, 84
10, 11384, Note_on_c, 4, 46, 0
10, 11384, Note_on_c, 4, 58, 0
10, 11400, Note_on_c, 4, 53, 84
10, 11400, Note_on_c, 4, 41, 84
10, 11504, Note_on_c, 4, 53, 0
10, 11504, Note_on_c, 4, 41, 0
10, 11520, Note_on_c, 4, 46, 84
10, 11520, Note_on_c, 4, 58, 84
10, 11759, Note_on_c, 4, 46, 0
10, 11759, Note_on_c, 4, 58, 0
10, 12000, Note_on_c, 4, 58, 84
10, 12000, Note_on_c, 4, 50, 84
10, 12239, Note_on_c, 4, 58, 0
10, 12239, Note_on_c, 4, 50, 0
10, 12480, Note_on_c, 4, 53, 84
10, 12480, Note_on_c, 4, 60, 84
10, 12719, Note_on_c, 4, 53, 0
10, 12719, Note_on_c, 4, 60, 0
10, 12960, Note_on_c, 4, 60, 84
10, 12960, Note_on_c, 4, 53, 84
10, 13199, Note_on_c, 4, 60, 0
10, 13199, Note_on_c, 4, 53, 0
10, 13440, Note_on_c, 4, 58, 84
10, 13440, Note_on_c, 4, 50, 84
10, 13679, Note_on_c, 4, 58, 0
10, 13679, Note_on_c, 4, 50, 0
10, 13920, Note_on_c, 4, 60, 84
10, 13920, Note_on_c, 4, 58, 84
10, 14159, Note_on_c, 4, 60, 0
10, 14159, Note_on_c, 4, 58, 0
10, 14400, Note_on_c, 4, 60, 84
10, 14504, Note_on_c, 4, 60, 0
10, 14520, Note_on_c, 4, 53, 84
10, 14520, Note_on_c, 4, 65, 84
10, 14624, Note_on_c, 4, 53, 0
10, 14624, Note_on_c, 4, 65, 0
10, 14640, Note_on_c, 4, 53, 84
10, 14640, Note_on_c, 4, 65, 84
10, 14744, Note_on_c, 4, 53, 0
10, 14744, Note_on_c, 4, 65, 0
10, 14760, Note_on_c, 4, 65, 84
10, 14760, Note_on_c, 4, 53, 84
10, 14864, Note_on_c, 4, 65, 0
10, 14864, Note_on_c, 4, 53, 0
10, 14880, Note_on_c, 4, 65, 84
10, 14880, Note_on_c, 4, 53, 84
10, 14984, Note_on_c, 4, 65, 0
10, 14984, Note_on_c, 4, 53, 0
10, 15000, Note_on_c, 4, 53, 84
10, 15000, Note_on_c, 4, 65, 84
10, 15104, Note_on_c, 4, 53, 0
10, 15104, Note_on_c, 4, 65, 0
10, 15120, Note_on_c, 4, 65, 84
10, 15120, Note_on_c, 4, 53, 84
10, 15224, Note_on_c, 4, 65, 0
10, 15224, Note_on_c, 4, 53, 0
10, 15240, Note_on_c, 4, 65, 84
10, 15240, Note_on_c, 4, 53, 84
10, 15344, Note_on_c, 4, 65, 0
10, 15344, Note_on_c, 4, 53, 0
10, 15360, Note_on_c, 4, 60, 84
10, 15599, Note_on_c, 4, 60, 0
10, 16440, Note_on_c, 4, 60, 84
10, 16544, Note_on_c, 4, 60, 0
10, 16560, Note_on_c, 4, 60, 84
10, 16664, Note_on_c, 4, 60, 0
10, 16680, Note_on_c, 4, 60, 84
10, 16784, Note_on_c, 4, 60, 0
10, 16800, Note_on_c, 4, 60, 84
10, 16919, Note_on_c, 4, 60, 0
10, 25800, Note_on_c, 4, 60, 76
10, 25904, Note_on_c, 4, 60, 0
10, 25920, Note_on_c, 4, 60, 76
10, 26024, Note_on_c, 4, 60, 0
10, 26040, Note_on_c, 4, 60, 76
10, 26144, Note_on_c, 4, 60, 0
10, 26160, Note_on_c, 4, 60, 76
10, 26264, Note_on_c, 4, 60, 0
10, 26280, Note_on_c, 4, 60, 76
10, 26384, Note_on_c, 4, 60, 0
10, 26400, Note_on_c, 4, 60, 76
10, 26639, Note_on_c, 4, 60, 0
10, 27720, Note_on_c, 4, 60, 76
10, 27824, Note_on_c, 4, 60, 0
10, 27840, Note_on_c, 4, 60, 76
10, 27944, Note_on_c, 4, 60, 0
10, 27960, Note_on_c, 4, 60, 76
10, 28064, Note_on_c, 4, 60, 0
10, 28080, Note_on_c, 4, 60, 76
10, 28184, Note_on_c, 4, 60, 0
10, 28200, Note_on_c, 4, 60, 76
10, 28304, Note_on_c, 4, 60, 0
10, 28320, Note_on_c, 4, 60, 76
10, 28424, Note_on_c, 4, 60, 0
10, 28440, Note_on_c, 4, 60, 76
10, 28559, Note_on_c, 4, 60, 0
10, 28680, Note_on_c, 4, 60, 76
10, 28784, Note_on_c, 4, 60, 0
10, 28800, Note_on_c, 4, 60, 76
10, 28904, Note_on_c, 4, 60, 0
10, 28920, Note_on_c, 4, 60, 76
10, 29024, Note_on_c, 4, 60, 0
10, 29040, Note_on_c, 4, 60, 76
10, 29144, Note_on_c, 4, 60, 0
10, 29160, Note_on_c, 4, 60, 76
10, 29264, Note_on_c, 4, 60, 0
10, 29280, Note_on_c, 4, 60, 76
10, 29384, Note_on_c, 4, 60, 0
10, 29400, Note_on_c, 4, 60, 76
10, 29519, Note_on_c, 4, 60, 0
10, 29640, Note_on_c, 4, 60, 76
10, 29744, Note_on_c, 4, 60, 0
10, 29760, Note_on_c, 4, 60, 76
10, 29864, Note_on_c, 4, 60, 0
10, 29880, Note_on_c, 4, 60, 76
10, 29984, Note_on_c, 4, 60, 0
10, 30000, Note_on_c, 4, 60, 76
10, 30104, Note_on_c, 4, 60, 0
10, 30120, Note_on_c, 4, 60, 76
10, 30224, Note_on_c, 4, 60, 0
10, 30240, Note_on_c, 4, 53, 84
10, 30240, Note_on_c, 4, 65, 84
10, 31184, Note_on_c, 4, 53, 0
10, 31184, Note_on_c, 4, 65, 0
10, 31200, Note_on_c, 4, 65, 84
10, 31200, Note_on_c, 4, 53, 84
10, 31424, Note_on_c, 4, 65, 0
10, 31424, Note_on_c, 4, 53, 0
10, 31440, Note_on_c, 4, 53, 92
10, 31440, Note_on_c, 4, 65, 92
10, 31679, Note_on_c, 4, 53, 0
10, 31679, Note_on_c, 4, 65, 0
10, 31920, Note_on_c, 4, 65, 92
10, 31920, Note_on_c, 4, 53, 92
10, 32159, Note_on_c, 4, 65, 0
10, 32159, Note_on_c, 4, 53, 0
10, 32400, Note_on_c, 4, 53, 92
10, 32400, Note_on_c, 4, 65, 92
10, 32639, Note_on_c, 4, 53, 0
10, 32639, Note_on_c, 4, 65, 0
10, 32880, Note_on_c, 4, 65, 92
10, 32880, Note_on_c, 4, 53, 92
10, 33119, Note_on_c, 4, 65, 0
10, 33119, Note_on_c, 4, 53, 0
10, 35040, Note_on_c, 4, 65, 84
10, 35040, Note_on_c, 4, 53, 84
10, 35264, Note_on_c, 4, 65, 0
10, 35264, Note_on_c, 4, 53, 0
10, 35280, Note_on_c, 4, 53, 92
10, 35280, Note_on_c, 4, 65, 92
10, 35519, Note_on_c, 4, 53, 0
10, 35519, Note_on_c, 4, 65, 0
10, 35760, Note_on_c, 4, 53, 92
10, 35760, Note_on_c, 4, 65, 92
10, 35999, Note_on_c, 4, 53, 0
10, 35999, Note_on_c, 4, 65, 0
10, 36240, Note_on_c, 4, 65, 92
10, 36240, Note_on_c, 4, 53, 92
10, 36479, Note_on_c, 4, 65, 0
10, 36479, Note_on_c, 4, 53, 0
10, 36720, Note_on_c, 4, 65, 92
10, 36720, Note_on_c, 4, 53, 92
10, 36959, Note_on_c, 4, 65, 0
10, 36959, Note_on_c, 4, 53, 0
10, 40800, Note_on_c, 4, 65, 84
10, 40800, Note_on_c, 4, 53, 84
10, 40904, Note_on_c, 4, 65, 0
10, 40904, Note_on_c, 4, 53, 0
10, 40920, Note_on_c, 4, 53, 84
10, 40920, Note_on_c, 4, 65, 84
10, 41024, Note_on_c, 4, 53, 0
10, 41024, Note_on_c, 4, 65, 0
10, 41040, Note_on_c, 4, 65, 84
10, 41040, Note_on_c, 4, 53, 84
10, 41144, Note_on_c, 4, 65, 0
10, 41144, Note_on_c, 4, 53, 0
10, 41160, Note_on_c, 4, 53, 84
10, 41160, Note_on_c, 4, 65, 84
10, 41264, Note_on_c, 4, 53, 0
10, 41264, Note_on_c, 4, 65, 0
10, 41280, Note_on_c, 4, 53, 84
10, 41280, Note_on_c, 4, 65, 84
10, 41384, Note_on_c, 4, 53, 0
10, 41384, Note_on_c, 4, 65, 0
10, 41400, Note_on_c, 4, 53, 84
10, 41400, Note_on_c, 4, 65, 84
10, 41504, Note_on_c, 4, 53, 0
10, 41504, Note_on_c, 4, 65, 0
10, 41520, Note_on_c, 4, 60, 84
10, 41624, Note_on_c, 4, 60, 0
10, 41640, Note_on_c, 4, 60, 84
10, 41744, Note_on_c, 4, 60, 0
10, 41760, Note_on_c, 4, 53, 84
10, 41760, Note_on_c, 4, 60, 84
10, 41879, Note_on_c, 4, 53, 0
10, 41879, Note_on_c, 4, 60, 0
10, 42720, Note_on_c, 4, 53, 84
10, 42720, Note_on_c, 4, 60, 84
10, 42839, Note_on_c, 4, 53, 0
10, 42839, Note_on_c, 4, 60, 0
10, 43680, Note_on_c, 4, 60, 84
10, 43680, Note_on_c, 4, 53, 84
10, 43799, Note_on_c, 4, 60, 0
10, 43799, Note_on_c, 4, 53, 0
10, 44640, Note_on_c, 4, 53, 84
10, 44640, Note_on_c, 4, 60, 84
10, 44759, Note_on_c, 4, 53, 0
10, 44759, Note_on_c, 4, 60, 0
10, 45600, Note_on_c, 4, 60, 84
10, 45600, Note_on_c, 4, 53, 84
10, 45704, Note_on_c, 4, 60, 0
10, 45704, Note_on_c, 4, 53, 0
10, 45720, Note_on_c, 4, 60, 84
10, 45720, Note_on_c, 4, 53, 84
10, 45839, Note_on_c, 4, 60, 0
10, 45839, Note_on_c, 4, 53, 0
10, 45960, Note_on_c, 4, 53, 84
10, 45960, Note_on_c, 4, 60, 84
10, 46064, Note_on_c, 4, 53, 0
10, 46064, Note_on_c, 4, 60, 0
10, 46080, Note_on_c, 4, 53, 84
10, 46080, Note_on_c, 4, 60, 84
10, 46184, Note_on_c, 4, 53, 0
10, 46184, Note_on_c, 4, 60, 0
10, 46200, Note_on_c, 4, 60, 84
10, 46200, Note_on_c, 4, 53, 84
10, 46319, Note_on_c, 4, 60, 0
10, 46319, Note_on_c, 4, 53, 0
10, 46440, Note_on_c, 4, 53, 84
10, 46440, Note_on_c, 4, 60, 84
10, 46544, Note_on_c, 4, 53, 0
10, 46544, Note_on_c, 4, 60, 0
10, 46560, Note_on_c, 4, 53, 84
10, 46560, Note_on_c, 4, 60, 84
10, 46664, Note_on_c, 4, 53, 0
10, 46664, Note_on_c, 4, 60, 0
10, 46680, Note_on_c, 4, 53, 84
10, 46680, Note_on_c, 4, 60, 84
10, 46799, Note_on_c, 4, 53, 0
10, 46799, Note_on_c, 4, 60, 0
10, 46920, Note_on_c, 4, 53, 84
10, 46920, Note_on_c, 4, 60, 84
10, 47024, Note_on_c, 4, 53, 0
10, 47024, Note_on_c, 4, 60, 0
10, 47040, Note_on_c, 4, 53, 84
10, 47040, Note_on_c, 4, 60, 84
10, 47144, Note_on_c, 4, 53, 0
10, 47144, Note_on_c, 4, 60, 0
10, 47160, Note_on_c, 4, 60, 84
10, 47160, Note_on_c, 4, 53, 84
10, 47264, Note_on_c, 4, 60, 0
10, 47264, Note_on_c, 4, 53, 0
10, 47280, Note_on_c, 4, 53, 84
10, 47280, Note_on_c, 4, 60, 84
10, 47384, Note_on_c, 4, 53, 0
10, 47384, Note_on_c, 4, 60, 0
10, 47400, Note_on_c, 4, 53, 84
10, 47400, Note_on_c, 4, 60, 84
10, 47504, Note_on_c, 4, 53, 0
10, 47504, Note_on_c, 4, 60, 0
10, 47520, Note_on_c, 4, 60, 52
10, 47520, Note_on_c, 4, 53, 52
10, 47639, Note_on_c, 4, 60, 0
10, 47639, Note_on_c, 4, 53, 0
10, 50640, Note_on_c, 4, 53, 76
10, 50640, Note_on_c, 4, 60, 76
10, 50759, Note_on_c, 4, 53, 0
10, 50759, Note_on_c, 4, 60, 0
10, 50880, Note_on_c, 4, 62, 76
10, 50880, Note_on_c, 4, 58, 76
10, 50999, Note_on_c, 4, 62, 0
10, 50999, Note_on_c, 4, 58, 0
10, 51120, Note_on_c, 4, 53, 76
10, 51120, Note_on_c, 4, 65, 76
10, 51239, Note_on_c, 4, 53, 0
10, 51239, Note_on_c, 4, 65, 0
10, 58560, Note_on_c, 4, 53, 52
10, 58560, Note_on_c, 4, 65, 52
10, 58664, Note_on_c, 4, 53, 0
10, 58664, Note_on_c, 4, 65, 0
10, 58800, Note_on_c, 4, 53, 68
10, 58800, Note_on_c, 4, 65, 68
10, 58904, Note_on_c, 4, 53, 0
10, 58904, Note_on_c, 4, 65, 0
10, 59040, Note_on_c, 4, 58, 84
10, 59040, Note_on_c, 4, 46, 84
10, 60584, Note_on_c, 4, 58, 0
10, 60584, Note_on_c, 4, 46, 0
10, 60600, Note_on_c, 4, 58, 84
10, 60600, Note_on_c, 4, 46, 84
10, 60704, Note_on_c, 4, 58, 0
10, 60704, Note_on_c, 4, 46, 0
10, 60720, Note_on_c, 4, 58, 84
10, 60720, Note_on_c, 4, 46, 84
10, 60824, Note_on_c, 4, 58, 0
10, 60824, Note_on_c, 4, 46, 0
10, 60840, Note_on_c, 4, 41, 84
10, 60840, Note_on_c, 4, 53, 84
10, 60944, Note_on_c, 4, 41, 0
10, 60944, Note_on_c, 4, 53, 0
10, 60960, Note_on_c, 4, 58, 84
10, 60960, Note_on_c, 4, 46, 84
10, 61199, Note_on_c, 4, 58, 0
10, 61199, Note_on_c, 4, 46, 0
10, 61440, Note_on_c, 4, 50, 84
10, 61440, Note_on_c, 4, 58, 84
10, 61679, Note_on_c, 4, 50, 0
10, 61679, Note_on_c, 4, 58, 0
10, 61920, Note_on_c, 4, 60, 84
10, 61920, Note_on_c, 4, 53, 84
10, 62159, Note_on_c, 4, 60, 0
10, 62159, Note_on_c, 4, 53, 0
10, 62400, Note_on_c, 4, 60, 84
10, 62400, Note_on_c, 4, 53, 84
10, 62639, Note_on_c, 4, 60, 0
10, 62639, Note_on_c, 4, 53, 0
10, 62880, Note_on_c, 4, 58, 84
10, 62880, Note_on_c, 4, 50, 84
10, 63119, Note_on_c, 4, 58, 0
10, 63119, Note_on_c, 4, 50, 0
10, 63360, Note_on_c, 4, 60, 84
10, 63360, Note_on_c, 4, 58, 84
10, 63599, Note_on_c, 4, 60, 0
10, 63599, Note_on_c, 4, 58, 0
10, 63840, Note_on_c, 4, 60, 84
10, 63944, Note_on_c, 4, 60, 0
10, 63960, Note_on_c, 4, 65, 84
10, 63960, Note_on_c, 4, 53, 84
10, 64064, Note_on_c, 4, 65, 0
10, 64064, Note_on_c, 4, 53, 0
10, 64080, Note_on_c, 4, 65, 84
10, 64080, Note_on_c, 4, 53, 84
10, 64184, Note_on_c, 4, 65, 0
10, 64184, Note_on_c, 4, 53, 0
10, 64200, Note_on_c, 4, 53, 84
10, 64200, Note_on_c, 4, 65, 84
10, 64304, Note_on_c, 4, 53, 0
10, 64304, Note_on_c, 4, 65, 0
10, 64320, Note_on_c, 4, 65, 84
10, 64320, Note_on_c, 4, 53, 84
10, 64424, Note_on_c, 4, 65, 0
10, 64424, Note_on_c, 4, 53, 0
10, 64440, Note_on_c, 4, 65, 84
10, 64440, Note_on_c, 4, 53, 84
10, 64544, Note_on_c, 4, 65, 0
10, 64544, Note_on_c, 4, 53, 0
10, 64560, Note_on_c, 4, 65, 84
10, 64560, Note_on_c, 4, 53, 84
10, 64664, Note_on_c, 4, 65, 0
10, 64664, Note_on_c, 4, 53, 0
10, 64680, Note_on_c, 4, 65, 84
10, 64680, Note_on_c, 4, 53, 84
10, 64784, Note_on_c, 4, 65, 0
10, 64784, Note_on_c, 4, 53, 0
10, 64800, Note_on_c, 4, 60, 84
10, 65039, Note_on_c, 4, 60, 0
10, 65880, Note_on_c, 4, 60, 84
10, 65984, Note_on_c, 4, 60, 0
10, 66000, Note_on_c, 4, 60, 84
10, 66104, Note_on_c, 4, 60, 0
10, 66120, Note_on_c, 4, 60, 84
10, 66224, Note_on_c, 4, 60, 0
10, 66240, Note_on_c, 4, 60, 84
10, 66359, Note_on_c, 4, 60, 0
10, 75240, Note_on_c, 4, 60, 76
10, 75344, Note_on_c, 4, 60, 0
10, 75360, Note_on_c, 4, 60, 76
10, 75464, Note_on_c, 4, 60, 0
10, 75480, Note_on_c, 4, 60, 76
10, 75584, Note_on_c, 4, 60, 0
10, 75600, Note_on_c, 4, 60, 76
10, 75704, Note_on_c, 4, 60, 0
10, 75720, Note_on_c, 4, 60, 76
10, 75824, Note_on_c, 4, 60, 0
10, 75840, Note_on_c, 4, 60, 76
10, 76079, Note_on_c, 4, 60, 0
10, 77160, Note_on_c, 4, 60, 76
10, 77264, Note_on_c, 4, 60, 0
10, 77280, Note_on_c, 4, 60, 76
10, 77384, Note_on_c, 4, 60, 0
10, 77400, Note_on_c, 4, 60, 76
10, 77504, Note_on_c, 4, 60, 0
10, 77520, Note_on_c, 4, 60, 76
10, 77624, Note_on_c, 4, 60, 0
10, 77640, Note_on_c, 4, 60, 76
10, 77744, Note_on_c, 4, 60, 0
10, 77760, Note_on_c, 4, 60, 76
10, 77864, Note_on_c, 4, 60, 0
10, 77880, Note_on_c, 4, 60, 76
10, 77999, Note_on_c, 4, 60, 0
10, 78120, Note_on_c, 4, 60, 76
10, 78224, Note_on_c, 4, 60, 0
10, 78240, Note_on_c, 4, 60, 76
10, 78344, Note_on_c, 4, 60, 0
10, 78360, Note_on_c, 4, 60, 76
10, 78464, Note_on_c, 4, 60, 0
10, 78480, Note_on_c, 4, 60, 76
10, 78584, Note_on_c, 4, 60, 0
10, 78600, Note_on_c, 4, 60, 76
10, 78704, Note_on_c, 4, 60, 0
10, 78720, Note_on_c, 4, 60, 76
10, 78824, Note_on_c, 4, 60, 0
10, 78840, Note_on_c, 4, 60, 76
10, 78959, Note_on_c, 4, 60, 0
10, 79080, Note_on_c, 4, 60, 76
10, 79184, Note_on_c, 4, 60, 0
10, 79200, Note_on_c, 4, 60, 76
10, 79304, Note_on_c, 4, 60, 0
10, 79320, Note_on_c, 4, 60, 76
10, 79424, Note_on_c, 4, 60, 0
10, 79440, Note_on_c, 4, 60, 76
10, 79544, Note_on_c, 4, 60, 0
10, 79560, Note_on_c, 4, 60, 76
10, 79664, Note_on_c, 4, 60, 0
10, 79680, Note_on_c, 4, 65, 84
10, 79680, Note_on_c, 4, 53, 84
10, 80624, Note_on_c, 4, 65, 0
10, 80624, Note_on_c, 4, 53, 0
10, 80640, Note_on_c, 4, 65, 84
10, 80640, Note_on_c, 4, 53, 84
10, 80864, Note_on_c, 4, 65, 0
10, 80864, Note_on_c, 4, 53, 0
10, 80880, Note_on_c, 4, 53, 92
10, 80880, Note_on_c, 4, 65, 92
10, 81119, Note_on_c, 4, 53, 0
10, 81119, Note_on_c, 4, 65, 0
10, 81360, Note_on_c, 4, 65, 92
10, 81360, Note_on_c, 4, 53, 92
10, 81599, Note_on_c, 4, 65, 0
10, 81599, Note_on_c, 4, 53, 0
10, 81840, Note_on_c, 4, 53, 92
10, 81840, Note_on_c, 4, 65, 92
10, 82079, Note_on_c, 4, 53, 0
10, 82079, Note_on_c, 4, 65, 0
10, 82320, Note_on_c, 4, 65, 92
10, 82320, Note_on_c, 4, 53, 92
10, 82559, Note_on_c, 4, 65, 0
10, 82559, Note_on_c, 4, 53, 0
10, 84480, Note_on_c, 4, 65, 84
10, 84480, Note_on_c, 4, 53, 84
10, 84704, Note_on_c, 4, 65, 0
10, 84704, Note_on_c, 4, 53, 0
10, 84720, Note_on_c, 4, 53, 92
10, 84720, Note_on_c, 4, 65, 92
10, 84959, Note_on_c, 4, 53, 0
10, 84959, Note_on_c, 4, 65, 0
10, 85200, Note_on_c, 4, 53, 92
10, 85200, Note_on_c, 4, 65, 92
10, 85439, Note_on_c, 4, 53, 0
10, 85439, Note_on_c, 4, 65, 0
10, 85680, Note_on_c, 4, 65, 92
10, 85680, Note_on_c, 4, 53, 92
10, 85919, Note_on_c, 4, 65, 0
10, 85919, Note_on_c, 4, 53, 0
10, 86160, Note_on_c, 4, 53, 92
10, 86160, Note_on_c, 4, 65, 92
10, 86399, Note_on_c, 4, 53, 0
10, 86399, Note_on_c, 4, 65, 0
10, 90240, Note_on_c, 4, 65, 84
10, 90240, Note_on_c, 4, 53, 84
10, 90344, Note_on_c, 4, 65, 0
10, 90344, Note_on_c, 4, 53, 0
10, 90360, Note_on_c, 4, 65, 84
10, 90360, Note_on_c, 4, 53, 84
10, 90464, Note_on_c, 4, 65, 0
10, 90464, Note_on_c, 4, 53, 0
10, 90480, Note_on_c, 4, 53, 84
10, 90480, Note_on_c, 4, 65, 84
10, 90584, Note_on_c, 4, 53, 0
10, 90584, Note_on_c, 4, 65, 0
10, 90600, Note_on_c, 4, 53, 84
10, 90600, Note_on_c, 4, 65, 84
10, 90704, Note_on_c, 4, 53, 0
10, 90704, Note_on_c, 4, 65, 0
10, 90720, Note_on_c, 4, 65, 84
10, 90720, Note_on_c, 4, 53, 84
10, 90824, Note_on_c, 4, 65, 0
10, 90824, Note_on_c, 4, 53, 0
10, 90840, Note_on_c, 4, 53, 84
10, 90840, Note_on_c, 4, 65, 84
10, 90944, Note_on_c, 4, 53, 0
10, 90944, Note_on_c, 4, 65, 0
10, 90960, Note_on_c, 4, 60, 84
10, 91064, Note_on_c, 4, 60, 0
10, 91080, Note_on_c, 4, 60, 84
10, 91184, Note_on_c, 4, 60, 0
10, 91200, Note_on_c, 4, 60, 84
10, 91200, Note_on_c, 4, 53, 84
10, 91319, Note_on_c, 4, 60, 0
10, 91319, Note_on_c, 4, 53, 0
10, 92160, Note_on_c, 4, 60, 84
10, 92160, Note_on_c, 4, 53, 84
10, 92279, Note_on_c, 4, 60, 0
10, 92279, Note_on_c, 4, 53, 0
10, 93120, Note_on_c, 4, 53, 84
10, 93120, Note_on_c, 4, 60, 84
10, 93239, Note_on_c, 4, 53, 0
10, 93239, Note_on_c, 4, 60, 0
10, 94080, Note_on_c, 4, 60, 84
10, 94080, Note_on_c, 4, 53, 84
10, 94199, Note_on_c, 4, 60, 0
10, 94199, Note_on_c, 4, 53, 0
10, 95040, Note_on_c, 4, 53, 84
10, 95040, Note_on_c, 4, 60, 84
10, 95144, Note_on_c, 4, 53, 0
10, 95144, Note_on_c, 4, 60, 0
10, 95160, Note_on_c, 4, 53, 84
10, 95160, Note_on_c, 4, 60, 84
10, 95279, Note_on_c, 4, 53, 0
10, 95279, Note_on_c, 4, 60, 0
10, 95400, Note_on_c, 4, 53, 84
10, 95400, Note_on_c, 4, 60, 84
10, 95504, Note_on_c, 4, 53, 0
10, 95504, Note_on_c, 4, 60, 0
10, 95520, Note_on_c, 4, 60, 84
10, 95520, Note_on_c, 4, 53, 84
10, 95624, Note_on_c, 4, 60, 0
10, 95624, Note_on_c, 4, 53, 0
10, 95640, Note_on_c, 4, 60, 84
10, 95640, Note_on_c, 4, 53, 84
10, 95759, Note_on_c, 4, 60, 0
10, 95759, Note_on_c, 4, 53, 0
10, 95880, Note_on_c, 4, 60, 84
10, 95880, Note_on_c, 4, 53, 84
10, 95984, Note_on_c, 4, 60, 0
10, 95984, Note_on_c, 4, 53, 0
10, 96000, Note_on_c, 4, 53, 84
10, 96000, Note_on_c, 4, 60, 84
10, 96104, Note_on_c, 4, 53, 0
10, 96104, Note_on_c, 4, 60, 0
10, 96120, Note_on_c, 4, 60, 84
10, 96120, Note_on_c, 4, 53, 84
10, 96239, Note_on_c, 4, 60, 0
10, 96239, Note_on_c, 4, 53, 0
10, 96360, Note_on_c, 4, 53, 84
10, 96360, Note_on_c, 4, 60, 84
10, 96464, Note_on_c, 4, 53, 0
10, 96464, Note_on_c, 4, 60, 0
10, 96480, Note_on_c, 4, 60, 84
10, 96480, Note_on_c, 4, 53, 84
10, 96584, Note_on_c, 4, 60, 0
10, 96584, Note_on_c, 4, 53, 0
10, 96600, Note_on_c, 4, 60, 84
10, 96600, Note_on_c, 4, 53, 84
10, 96704, Note_on_c, 4, 60, 0
10, 96704, Note_on_c, 4, 53, 0
10, 96720, Note_on_c, 4, 60, 84
10, 96720, Note_on_c, 4, 53, 84
10, 96824, Note_on_c, 4, 60, 0
10, 96824, Note_on_c, 4, 53, 0
10, 96840, Note_on_c, 4, 53, 84
10, 96840, Note_on_c, 4, 60, 84
10, 96944, Note_on_c, 4, 53, 0
10, 96944, Note_on_c, 4, 60, 0
10, 96960, Note_on_c, 4, 60, 52
10, 96960, Note_on_c, 4, 53, 52
10, 97079, Note_on_c, 4, 60, 0
10, 97079, Note_on_c, 4, 53, 0
10, 110400, Note_on_c, 4, 50, 52
10, 110400, Note_on_c, 4, 62, 52
10, 110519, Note_on_c, 4, 50, 0
10, 110519, Note_on_c, 4, 62, 0
10, 110640, Note_on_c, 4, 62, 52
10, 110640, Note_on_c, 4, 50, 52
10, 110759, Note_on_c, 4, 62, 0
10, 110759, Note_on_c, 4, 50, 0
10, 110880, Note_on_c, 4, 62, 52
10, 110880, Note_on_c, 4, 50, 52
10, 111359, Note_on_c, 4, 62, 0
10, 111359, Note_on_c, 4, 50, 0
10, 126240, Note_on_c, 4, 53, 84
10, 126240, Note_on_c, 4, 60, 84
10, 126344, Note_on_c, 4, 53, 0
10, 126344, Note_on_c, 4, 60, 0
10, 126360, Note_on_c, 4, 60, 84
10, 126360, Note_on_c, 4, 53, 84
10, 126479, Note_on_c, 4, 60, 0
10, 126479, Note_on_c, 4, 53, 0
10, 126600, Note_on_c, 4, 53, 84
10, 126600, Note_on_c, 4, 60, 84
10, 126704, Note_on_c, 4, 53, 0
10, 126704, Note_on_c, 4, 60, 0
10, 126720, Note_on_c, 4, 53, 84
10, 126720, Note_on_c, 4, 60, 84
10, 126824, Note_on_c, 4, 53, 0
10, 126824, Note_on_c, 4, 60, 0
10, 126840, Note_on_c, 4, 53, 84
10, 126840, Note_on_c, 4, 60, 84
10, 126959, Note_on_c, 4, 53, 0
10, 126959, Note_on_c, 4, 60, 0
10, 127080, Note_on_c, 4, 53, 84
10, 127080, Note_on_c, 4, 60, 84
10, 127184, Note_on_c, 4, 53, 0
10, 127184, Note_on_c, 4, 60, 0
10, 127200, Note_on_c, 4, 60, 84
10, 127200, Note_on_c, 4, 53, 84
10, 127304, Note_on_c, 4, 60, 0
10, 127304, Note_on_c, 4, 53, 0
10, 127320, Note_on_c, 4, 60, 84
10, 127320, Note_on_c, 4, 53, 84
10, 127439, Note_on_c, 4, 60, 0
10, 127439, Note_on_c, 4, 53, 0
10, 127560, Note_on_c, 4, 60, 84
10, 127560, Note_on_c, 4, 53, 84
10, 127664, Note_on_c, 4, 60, 0
10, 127664, Note_on_c, 4, 53, 0
10, 127680, Note_on_c, 4, 53, 84
10, 127680, Note_on_c, 4, 60, 84
10, 127784, Note_on_c, 4, 53, 0
10, 127784, Note_on_c, 4, 60, 0
10, 127800, Note_on_c, 4, 60, 84
10, 127800, Note_on_c, 4, 53, 84
10, 127919, Note_on_c, 4, 60, 0
10, 127919, Note_on_c, 4, 53, 0
10, 128040, Note_on_c, 4, 53, 84
10, 128040, Note_on_c, 4, 60, 84
10, 128144, Note_on_c, 4, 53, 0
10, 128144, Note_on_c, 4, 60, 0
10, 128160, Note_on_c, 4, 60, 84
10, 128160, Note_on_c, 4, 53, 84
10, 128279, Note_on_c, 4, 60, 0
10, 128279, Note_on_c, 4, 53, 0
10, 128400, Note_on_c, 4, 53, 84
10, 128400, Note_on_c, 4, 60, 84
10, 128519, Note_on_c, 4, 53, 0
10, 128519, Note_on_c, 4, 60, 0
10, 128640, Note_on_c, 4, 53, 84
10, 128640, Note_on_c, 4, 60, 84
10, 128759, Note_on_c, 4, 53, 0
10, 128759, Note_on_c, 4, 60, 0
10, 128880, Note_on_c, 4, 60, 84
10, 128880, Note_on_c, 4, 53, 84
10, 128999, Note_on_c, 4, 60, 0
10, 128999, Note_on_c, 4, 53, 0
10, 129120, Note_on_c, 4, 60, 84
10, 129120, Note_on_c, 4, 53, 84
10, 129239, Note_on_c, 4, 60, 0
10, 129239, Note_on_c, 4, 53, 0
10, 129360, Note_on_c, 4, 60, 84
10, 129360, Note_on_c, 4, 53, 84
10, 129479, Note_on_c, 4, 60, 0
10, 129479, Note_on_c, 4, 53, 0
10, 129600, Note_on_c, 4, 53, 84
10, 129600, Note_on_c, 4, 60, 84
10, 129719, Note_on_c, 4, 53, 0
10, 129719, Note_on_c, 4, 60, 0
10, 129840, Note_on_c, 4, 53, 84
10, 129840, Note_on_c, 4, 60, 84
10, 129959, Note_on_c, 4, 53, 0
10, 129959, Note_on_c, 4, 60, 0
10, 130080, Note_on_c, 4, 60, 92
10, 130080, Note_on_c, 4, 41, 92
10, 130529, Note_on_c, 4, 60, 0
10, 130529, Note_on_c, 4, 41, 0
10, 130560, Note_on_c, 4, 60, 92
10, 130560, Note_on_c, 4, 41, 92
10, 131009, Note_on_c, 4, 60, 0
10, 131009, Note_on_c, 4, 41, 0
10, 131040, Note_on_c, 4, 60, 92
10, 131040, Note_on_c, 4, 41, 92
10, 131489, Note_on_c, 4, 60, 0
10, 131489, Note_on_c, 4, 41, 0
10, 131520, Note_on_c, 4, 41, 92
10, 131520, Note_on_c, 4, 60, 92
10, 131969, Note_on_c, 4, 41, 0
10, 131969, Note_on_c, 4, 60, 0
10, 132000, Note_on_c, 4, 41, 84
10, 132000, Note_on_c, 4, 60, 84
10, 132119, Note_on_c, 4, 41, 0
10, 132119, Note_on_c, 4, 60, 0
10, 132240, Note_on_c, 4, 60, 84
10, 132240, Note_on_c, 4, 41, 84
10, 132359, Note_on_c, 4, 60, 0
10, 132359, Note_on_c, 4, 41, 0
10, 132480, Note_on_c, 4, 60, 84
10, 132480, Note_on_c, 4, 41, 84
10, 132599, Note_on_c, 4, 60, 0
10, 132599, Note_on_c, 4, 41, 0
10, 132720, Note_on_c, 4, 60, 84
10, 132720, Note_on_c, 4, 41, 84
10, 132839, Note_on_c, 4, 60, 0
10, 132839, Note_on_c, 4, 41, 0
10, 132960, Note_on_c, 4, 41, 84
10, 132960, Note_on_c, 4, 60, 84
10, 133079, Note_on_c, 4, 41, 0
10, 133079, Note_on_c, 4, 60, 0
10, 133200, Note_on_c, 4, 41, 84
10, 133200, Note_on_c, 4, 60, 84
10, 133319, Note_on_c, 4, 41, 0
10, 133319, Note_on_c, 4, 60, 0
10, 133440, Note_on_c, 4, 60, 84
10, 133440, Note_on_c, 4, 41, 84
10, 133559, Note_on_c, 4, 60, 0
10, 133559, Note_on_c, 4, 41, 0
10, 133680, Note_on_c, 4, 60, 84
10, 133680, Note_on_c, 4, 41, 84
10, 133799, Note_on_c, 4, 60, 0
10, 133799, Note_on_c, 4, 41, 0
10, 133920, Note_on_c, 4, 60, 92
10, 133920, Note_on_c, 4, 53, 92
10, 134369, Note_on_c, 4, 60, 0
10, 134369, Note_on_c, 4, 53, 0
10, 134400, Note_on_c, 4, 53, 92
10, 134400, Note_on_c, 4, 60, 92
10, 134849, Note_on_c, 4, 53, 0
10, 134849, Note_on_c, 4, 60, 0
10, 134880, Note_on_c, 4, 53, 92
10, 134880, Note_on_c, 4, 60, 92
10, 135329, Note_on_c, 4, 53, 0
10, 135329, Note_on_c, 4, 60, 0
10, 135360, Note_on_c, 4, 60, 92
10, 135360, Note_on_c, 4, 53, 92
10, 135809, Note_on_c, 4, 60, 0
10, 135809, Note_on_c, 4, 53, 0
10, 135840, Note_on_c, 4, 60, 84
10, 135840, Note_on_c, 4, 53, 84
10, 135959, Note_on_c, 4, 60, 0
10, 135959, Note_on_c, 4, 53, 0
10, 139680, Note_on_c, 4, 58, 76
10, 139680, Note_on_c, 4, 50, 76
10, 139799, Note_on_c, 4, 58, 0
10, 139799, Note_on_c, 4, 50, 0
10, 139920, Note_on_c, 4, 58, 76
10, 140039, Note_on_c, 4, 58, 0
10, 140160, Note_on_c, 4, 58, 76
10, 140160, Note_on_c, 4, 60, 76
10, 140279, Note_on_c, 4, 58, 0
10, 140279, Note_on_c, 4, 60, 0
10, 140880, Note_on_c, 4, 60, 76
10, 140880, Note_on_c, 4, 53, 76
10, 140999, Note_on_c, 4, 60, 0
10, 140999, Note_on_c, 4, 53, 0
10, 141120, Note_on_c, 4, 62, 76
10, 141120, Note_on_c, 4, 58, 76
10, 141239, Note_on_c, 4, 62, 0
10, 141239, Note_on_c, 4, 58, 0
10, 141360, Note_on_c, 4, 60, 76
10, 141360, Note_on_c, 4, 53, 76
10, 141479, Note_on_c, 4, 60, 0
10, 141479, Note_on_c, 4, 53, 0
10, 141600, Note_on_c, 4, 50, 76
10, 141600, Note_on_c, 4, 58, 76
10, 141839, Note_on_c, 4, 50, 0
10, 141839, Note_on_c, 4, 58, 0
10, 142080, Note_on_c, 4, 50, 76
10, 142080, Note_on_c, 4, 58, 76
10, 142319, Note_on_c, 4, 50, 0
10, 142319, Note_on_c, 4, 58, 0
10, 142560, Note_on_c, 4, 60, 76
10, 142560, Note_on_c, 4, 53, 76
10, 142799, Note_on_c, 4, 60, 0
10, 142799, Note_on_c, 4, 53, 0
10, 143040, Note_on_c, 4, 60, 76
10, 143040, Note_on_c, 4, 53, 76
10, 143279, Note_on_c, 4, 60, 0
10, 143279, Note_on_c, 4, 53, 0
10, 143520, Note_on_c, 4, 58, 76
10, 143520, Note_on_c, 4, 50, 76
10, 143759, Note_on_c, 4, 58, 0
10, 143759, Note_on_c, 4, 50, 0
10, 144000, Note_on_c, 4, 50, 76
10, 144000, Note_on_c, 4, 58, 76
10, 144239, Note_on_c, 4, 50, 0
10, 144239, Note_on_c, 4, 58, 0
10, 144480, Note_on_c, 4, 50, 76
10, 144480, Note_on_c, 4, 58, 76
10, 144719, Note_on_c, 4, 50, 0
10, 144719, Note_on_c, 4, 58, 0
10, 144960, Note_on_c, 4, 58, 76
10, 144960, Note_on_c, 4, 50, 76
10, 145199, Note_on_c, 4, 58, 0
10, 145199, Note_on_c, 4, 50, 0
10, 145440, Note_on_c, 4, 63, 76
10, 145679, Note_on_c, 4, 63, 0
10, 145920, Note_on_c, 4, 63, 76
10, 146159, Note_on_c, 4, 63, 0
10, 146400, Note_on_c, 4, 63, 76
10, 146639, Note_on_c, 4, 63, 0
10, 146880, Note_on_c, 4, 63, 76
10, 147119, Note_on_c, 4, 63, 0
10, 150240, Note_on_c, 4, 53, 84
10, 150240, Note_on_c, 4, 60, 84
10, 150719, Note_on_c, 4, 53, 0
10, 150719, Note_on_c, 4, 60, 0
10, 150720, Note_on_c, 4, 53, 84
10, 150720, Note_on_c, 4, 60, 84
10, 150824, Note_on_c, 4, 53, 0
10, 150824, Note_on_c, 4, 60, 0
10, 150840, Note_on_c, 4, 60, 84
10, 150944, Note_on_c, 4, 60, 0
10, 150960, Note_on_c, 4, 53, 84
10, 150960, Note_on_c, 4, 60, 84
10, 151064, Note_on_c, 4, 53, 0
10, 151064, Note_on_c, 4, 60, 0
10, 151080, Note_on_c, 4, 60, 84
10, 151184, Note_on_c, 4, 60, 0
10, 151200, Note_on_c, 4, 60, 84
10, 151200, Note_on_c, 4, 53, 84
10, 151304, Note_on_c, 4, 60, 0
10, 151304, Note_on_c, 4, 53, 0
10, 151320, Note_on_c, 4, 60, 84
10, 151320, Note_on_c, 4, 53, 84
10, 151424, Note_on_c, 4, 60, 0
10, 151424, Note_on_c, 4, 53, 0
10, 151440, Note_on_c, 4, 60, 84
10, 151440, Note_on_c, 4, 53, 84
10, 151544, Note_on_c, 4, 60, 0
10, 151544, Note_on_c, 4, 53, 0
10, 151560, Note_on_c, 4, 60, 84
10, 151560, Note_on_c, 4, 53, 84
10, 151664, Note_on_c, 4, 60, 0
10, 151664, Note_on_c, 4, 53, 0
10, 151680, Note_on_c, 4, 60, 84
10, 151680, Note_on_c, 4, 53, 84
10, 151799, Note_on_c, 4, 60, 0
10, 151799, Note_on_c, 4, 53, 0
10, 152160, Note_on_c, 4, 50, 52
10, 152160, Note_on_c, 4, 58, 52
10, 152639, Note_on_c, 4, 50, 0
10, 152639, Note_on_c, 4, 58, 0
10, 152640, Note_on_c, 4, 60, 52
10, 152640, Note_on_c, 4, 53, 52
10, 153119, Note_on_c, 4, 60, 0
10, 153119, Note_on_c, 4, 53, 0
10, 153120, Note_on_c, 4, 58, 52
10, 153120, Note_on_c, 4, 62, 52
10, 153599, Note_on_c, 4, 58, 0
10, 153599, Note_on_c, 4, 62, 0
10, 153600, Note_on_c, 4, 60, 52
10, 153600, Note_on_c, 4, 53, 52
10, 154064, Note_on_c, 4, 60, 0
10, 154064, Note_on_c, 4, 53, 0
10, 154080, Note_on_c, 4, 60, 52
10, 154424, Note_on_c, 4, 60, 0
10, 154440, Note_on_c, 4, 60, 52
10, 154544, Note_on_c, 4, 60, 0
10, 154560, Note_on_c, 4, 60, 52
10, 154679, Note_on_c, 4, 60, 0
10, 154800, Note_on_c, 4, 60, 52
10, 154919, Note_on_c, 4, 60, 0
10, 155040, Note_on_c, 4, 60, 52
10, 155159, Note_on_c, 4, 60, 0
10, 155280, Note_on_c, 4, 60, 52
10, 155399, Note_on_c, 4, 60, 0
10, 155520, Note_on_c, 4, 60, 52
10, 155639, Note_on_c, 4, 60, 0
10, 160680, Note_on_c, 4, 65, 76
10, 160680, Note_on_c, 4, 53, 76
10, 160784, Note_on_c, 4, 65, 0
10, 160784, Note_on_c, 4, 53, 0
10, 160800, Note_on_c, 4, 65, 76
10, 160800, Note_on_c, 4, 53, 76
10, 160889, Note_on_c, 4, 65, 0
10, 160889, Note_on_c, 4, 53, 0
10, 160920, Note_on_c, 4, 65, 76
10, 160920, Note_on_c, 4, 53, 76
10, 161009, Note_on_c, 4, 65, 0
10, 161009, Note_on_c, 4, 53, 0
10, 161040, Note_on_c, 4, 53, 76
10, 161040, Note_on_c, 4, 65, 76
10, 161129, Note_on_c, 4, 53, 0
10, 161129, Note_on_c, 4, 65, 0
10, 161160, Note_on_c, 4, 53, 76
10, 161160, Note_on_c, 4, 65, 76
10, 161249, Note_on_c, 4, 53, 0
10, 161249, Note_on_c, 4, 65, 0
10, 161280, Note_on_c, 4, 65, 76
10, 161280, Note_on_c, 4, 53, 76
10, 161519, Note_on_c, 4, 65, 0
10, 161519, Note_on_c, 4, 53, 0
10, 162600, Note_on_c, 4, 65, 76
10, 162600, Note_on_c, 4, 53, 76
10, 162704, Note_on_c, 4, 65, 0
10, 162704, Note_on_c, 4, 53, 0
10, 162720, Note_on_c, 4, 65, 76
10, 162720, Note_on_c, 4, 53, 76
10, 162824, Note_on_c, 4, 65, 0
10, 162824, Note_on_c, 4, 53, 0
10, 162840, Note_on_c, 4, 65, 76
10, 162840, Note_on_c, 4, 53, 76
10, 162944, Note_on_c, 4, 65, 0
10, 162944, Note_on_c, 4, 53, 0
10, 162960, Note_on_c, 4, 65, 76
10, 162960, Note_on_c, 4, 53, 76
10, 163064, Note_on_c, 4, 65, 0
10, 163064, Note_on_c, 4, 53, 0
10, 163080, Note_on_c, 4, 65, 76
10, 163080, Note_on_c, 4, 53, 76
10, 163184, Note_on_c, 4, 65, 0
10, 163184, Note_on_c, 4, 53, 0
10, 163200, Note_on_c, 4, 65, 76
10, 163200, Note_on_c, 4, 53, 76
10, 163289, Note_on_c, 4, 65, 0
10, 163289, Note_on_c, 4, 53, 0
10, 163320, Note_on_c, 4, 53, 76
10, 163320, Note_on_c, 4, 65, 76
10, 163409, Note_on_c, 4, 53, 0
10, 163409, Note_on_c, 4, 65, 0
10, 163560, Note_on_c, 4, 65, 76
10, 163560, Note_on_c, 4, 53, 76
10, 163664, Note_on_c, 4, 65, 0
10, 163664, Note_on_c, 4, 53, 0
10, 163680, Note_on_c, 4, 53, 76
10, 163680, Note_on_c, 4, 65, 76
10, 163784, Note_on_c, 4, 53, 0
10, 163784, Note_on_c, 4, 65, 0
10, 163800, Note_on_c, 4, 65, 76
10, 163800, Note_on_c, 4, 53, 76
10, 163904, Note_on_c, 4, 65, 0
10, 163904, Note_on_c, 4, 53, 0
10, 163920, Note_on_c, 4, 65, 76
10, 163920, Note_on_c, 4, 53, 76
10, 164024, Note_on_c, 4, 65, 0
10, 164024, Note_on_c, 4, 53, 0
10, 164040, Note_on_c, 4, 65, 76
10, 164040, Note_on_c, 4, 53, 76
10, 164144, Note_on_c, 4, 65, 0
10, 164144, Note_on_c, 4, 53, 0
10, 164160, Note_on_c, 4, 65, 76
10, 164160, Note_on_c, 4, 53, 76
10, 164264, Note_on_c, 4, 65, 0
10, 164264, Note_on_c, 4, 53, 0
10, 164280, Note_on_c, 4, 65, 76
10, 164280, Note_on_c, 4, 53, 76
10, 164399, Note_on_c, 4, 65, 0
10, 164399, Note_on_c, 4, 53, 0
10, 164520, Note_on_c, 4, 65, 76
10, 164520, Note_on_c, 4, 53, 76
10, 164624, Note_on_c, 4, 65, 0
10, 164624, Note_on_c, 4, 53, 0
10, 164640, Note_on_c, 4, 65, 76
10, 164640, Note_on_c, 4, 53, 76
10, 164744, Note_on_c, 4, 65, 0
10, 164744, Note_on_c, 4, 53, 0
10, 164760, Note_on_c, 4, 53, 76
10, 164760, Note_on_c, 4, 65, 76
10, 164864, Note_on_c, 4, 53, 0
10, 164864, Note_on_c, 4, 65, 0
10, 164880, Note_on_c, 4, 53, 76
10, 164880, Note_on_c, 4, 65, 76
10, 164984, Note_on_c, 4, 53, 0
10, 164984, Note_on_c, 4, 65, 0
10, 165000, Note_on_c, 4, 65, 76
10, 165000, Note_on_c, 4, 53, 76
10, 165104, Note_on_c, 4, 65, 0
10, 165104, Note_on_c, 4, 53, 0
10, 165120, Note_on_c, 4, 58, 84
10, 165120, Note_on_c, 4, 46, 84
10, 166064, Note_on_c, 4, 58, 0
10, 166064, Note_on_c, 4, 46, 0
10, 166080, Note_on_c, 4, 58, 84
10, 166080, Note_on_c, 4, 46, 84
10, 166304, Note_on_c, 4, 58, 0
10, 166304, Note_on_c, 4, 46, 0
10, 166320, Note_on_c, 4, 46, 92
10, 166320, Note_on_c, 4, 58, 92
10, 166559, Note_on_c, 4, 46, 0
10, 166559, Note_on_c, 4, 58, 0
10, 166800, Note_on_c, 4, 46, 92
10, 166800, Note_on_c, 4, 58, 92
10, 167039, Note_on_c, 4, 46, 0
10, 167039, Note_on_c, 4, 58, 0
10, 167280, Note_on_c, 4, 58, 92
10, 167280, Note_on_c, 4, 46, 92
10, 167519, Note_on_c, 4, 58, 0
10, 167519, Note_on_c, 4, 46, 0
10, 167760, Note_on_c, 4, 58, 92
10, 167760, Note_on_c, 4, 46, 92
10, 167999, Note_on_c, 4, 58, 0
10, 167999, Note_on_c, 4, 46, 0
10, 169920, Note_on_c, 4, 58, 84
10, 169920, Note_on_c, 4, 46, 84
10, 170144, Note_on_c, 4, 58, 0
10, 170144, Note_on_c, 4, 46, 0
10, 170160, Note_on_c, 4, 46, 92
10, 170160, Note_on_c, 4, 58, 92
10, 170399, Note_on_c, 4, 46, 0
10, 170399, Note_on_c, 4, 58, 0
10, 170640, Note_on_c, 4, 46, 92
10, 170640, Note_on_c, 4, 58, 92
10, 170879, Note_on_c, 4, 46, 0
10, 170879, Note_on_c, 4, 58, 0
10, 171120, Note_on_c, 4, 58, 92
10, 171120, Note_on_c, 4, 46, 92
10, 171359, Note_on_c, 4, 58, 0
10, 171359, Note_on_c, 4, 46, 0
10, 171600, Note_on_c, 4, 58, 92
10, 171600, Note_on_c, 4, 46, 92
10, 171839, Note_on_c, 4, 58, 0
10, 171839, Note_on_c, 4, 46, 0
10, 175680, Note_on_c, 4, 62, 84
10, 175680, Note_on_c, 4, 58, 84
10, 175784, Note_on_c, 4, 62, 0
10, 175784, Note_on_c, 4, 58, 0
10, 175800, Note_on_c, 4, 58, 84
10, 175800, Note_on_c, 4, 62, 84
10, 175904, Note_on_c, 4, 58, 0
10, 175904, Note_on_c, 4, 62, 0
10, 175920, Note_on_c, 4, 58, 84
10, 175920, Note_on_c, 4, 62, 84
10, 176024, Note_on_c, 4, 58, 0
10, 176024, Note_on_c, 4, 62, 0
10, 176040, Note_on_c, 4, 62, 84
10, 176040, Note_on_c, 4, 58, 84
10, 176144, Note_on_c, 4, 62, 0
10, 176144, Note_on_c, 4, 58, 0
10, 176160, Note_on_c, 4, 60, 84
10, 176160, Note_on_c, 4, 58, 84
10, 176264, Note_on_c, 4, 60, 0
10, 176264, Note_on_c, 4, 58, 0
10, 176280, Note_on_c, 4, 60, 84
10, 176280, Note_on_c, 4, 58, 84
10, 176384, Note_on_c, 4, 60, 0
10, 176384, Note_on_c, 4, 58, 0
10, 176400, Note_on_c, 4, 53, 84
10, 176400, Note_on_c, 4, 60, 84
10, 176504, Note_on_c, 4, 53, 0
10, 176504, Note_on_c, 4, 60, 0
10, 176520, Note_on_c, 4, 53, 84
10, 176520, Note_on_c, 4, 60, 84
10, 176624, Note_on_c, 4, 53, 0
10, 176624, Note_on_c, 4, 60, 0
10, 176640, Note_on_c, 4, 58, 84
10, 176640, Note_on_c, 4, 50, 84
10, 176759, Note_on_c, 4, 58, 0
10, 176759, Note_on_c, 4, 50, 0
10, 177600, Note_on_c, 4, 58, 84
10, 177600, Note_on_c, 4, 46, 84
10, 177719, Note_on_c, 4, 58, 0
10, 177719, Note_on_c, 4, 46, 0
10, 178560, Note_on_c, 4, 58, 84
10, 178560, Note_on_c, 4, 46, 84
10, 178679, Note_on_c, 4, 58, 0
10, 178679, Note_on_c, 4, 46, 0
10, 179520, Note_on_c, 4, 58, 84
10, 179520, Note_on_c, 4, 46, 84
10, 179639, Note_on_c, 4, 58, 0
10, 179639, Note_on_c, 4, 46, 0
10, 180480, Note_on_c, 4, 58, 84
10, 180480, Note_on_c, 4, 50, 84
10, 180584, Note_on_c, 4, 58, 0
10, 180584, Note_on_c, 4, 50, 0
10, 180600, Note_on_c, 4, 58, 84
10, 180600, Note_on_c, 4, 50, 84
10, 180719, Note_on_c, 4, 58, 0
10, 180719, Note_on_c, 4, 50, 0
10, 180840, Note_on_c, 4, 58, 84
10, 180840, Note_on_c, 4, 50, 84
10, 180944, Note_on_c, 4, 58, 0
10, 180944, Note_on_c, 4, 50, 0
10, 180960, Note_on_c, 4, 50, 84
10, 180960, Note_on_c, 4, 58, 84
10, 181064, Note_on_c, 4, 50, 0
10, 181064, Note_on_c, 4, 58, 0
10, 181080, Note_on_c, 4, 58, 84
10, 181080, Note_on_c, 4, 50, 84
10, 181199, Note_on_c, 4, 58, 0
10, 181199, Note_on_c, 4, 50, 0
10, 181320, Note_on_c, 4, 50, 84
10, 181320, Note_on_c, 4, 58, 84
10, 181424, Note_on_c, 4, 50, 0
10, 181424, Note_on_c, 4, 58, 0
10, 181440, Note_on_c, 4, 58, 84
10, 181440, Note_on_c, 4, 50, 84
10, 181544, Note_on_c, 4, 58, 0
10, 181544, Note_on_c, 4, 50, 0
10, 181560, Note_on_c, 4, 58, 84
10, 181560, Note_on_c, 4, 50, 84
10, 181679, Note_on_c, 4, 58, 0
10, 181679, Note_on_c, 4, 50, 0
10, 181800, Note_on_c, 4, 58, 84
10, 181800, Note_on_c, 4, 50, 84
10, 181904, Note_on_c, 4, 58, 0
10, 181904, Note_on_c, 4, 50, 0
10, 181920, Note_on_c, 4, 58, 84
10, 181920, Note_on_c, 4, 50, 84
10, 182024, Note_on_c, 4, 58, 0
10, 182024, Note_on_c, 4, 50, 0
10, 182040, Note_on_c, 4, 58, 84
10, 182040, Note_on_c, 4, 50, 84
10, 182144, Note_on_c, 4, 58, 0
10, 182144, Note_on_c, 4, 50, 0
10, 182160, Note_on_c, 4, 58, 84
10, 182160, Note_on_c, 4, 50, 84
10, 182264, Note_on_c, 4, 58, 0
10, 182264, Note_on_c, 4, 50, 0
10, 182280, Note_on_c, 4, 58, 84
10, 182280, Note_on_c, 4, 50, 84
10, 182384, Note_on_c, 4, 58, 0
10, 182384, Note_on_c, 4, 50, 0
10, 182400, Note_on_c, 4, 50, 52
10, 182400, Note_on_c, 4, 58, 52
10, 182519, Note_on_c, 4, 50, 0
10, 182519, Note_on_c, 4, 58, 0
10, 188400, Note_on_c, 4, 41, 76
10, 188400, Note_on_c, 4, 53, 76
10, 188639, Note_on_c, 4, 41, 0
10, 188639, Note_on_c, 4, 53, 0
10, 188880, Note_on_c, 4, 53, 84
10, 188880, Note_on_c, 4, 41, 84
10, 189119, Note_on_c, 4, 53, 0
10, 189119, Note_on_c, 4, 41, 0
10, 189360, Note_on_c, 4, 53, 84
10, 189360, Note_on_c, 4, 41, 84
10, 189599, Note_on_c, 4, 53, 0
10, 189599, Note_on_c, 4, 41, 0
10, 189840, Note_on_c, 4, 53, 84
10, 189840, Note_on_c, 4, 41, 84
10, 190079, Note_on_c, 4, 53, 0
10, 190079, Note_on_c, 4, 41, 0
10, 192000, Note_on_c, 4, 58, 44
10, 192000, Note_on_c, 4, 62, 44
10, 192119, Note_on_c, 4, 58, 0
10, 192119, Note_on_c, 4, 62, 0
10, 192240, Note_on_c, 4, 58, 44
10, 192240, Note_on_c, 4, 62, 44
10, 192359, Note_on_c, 4, 58, 0
10, 192359, Note_on_c, 4, 62, 0
10, 192480, Note_on_c, 4, 60, 44
10, 192480, Note_on_c, 4, 58, 44
10, 192599, Note_on_c, 4, 60, 0
10, 192599, Note_on_c, 4, 58, 0
10, 193200, Note_on_c, 4, 60, 44
10, 193200, Note_on_c, 4, 53, 44
10, 193319, Note_on_c, 4, 60, 0
10, 193319, Note_on_c, 4, 53, 0
10, 193440, Note_on_c, 4, 62, 44
10, 193440, Note_on_c, 4, 58, 44
10, 193559, Note_on_c, 4, 62, 0
10, 193559, Note_on_c, 4, 58, 0
10, 193680, Note_on_c, 4, 53, 44
10, 193680, Note_on_c, 4, 60, 44
10, 193799, Note_on_c, 4, 53, 0
10, 193799, Note_on_c, 4, 60, 0
10, 193920, Note_on_c, 4, 46, 84
10, 193920, Note_on_c, 4, 58, 84
10, 194384, Note_on_c, 4, 46, 0
10, 194384, Note_on_c, 4, 58, 0
10, 194400, Note_on_c, 4, 60, 84
10, 194400, Note_on_c, 4, 58, 84
10, 195104, Note_on_c, 4, 60, 0
10, 195104, Note_on_c, 4, 58, 0
10, 195120, Note_on_c, 4, 60, 84
10, 195120, Note_on_c, 4, 53, 84
10, 195344, Note_on_c, 4, 60, 0
10, 195344, Note_on_c, 4, 53, 0
10, 195360, Note_on_c, 4, 62, 84
10, 195360, Note_on_c, 4, 58, 84
10, 195584, Note_on_c, 4, 62, 0
10, 195584, Note_on_c, 4, 58, 0
10, 195600, Note_on_c, 4, 53, 84
10, 195600, Note_on_c, 4, 60, 84
10, 196064, Note_on_c, 4, 53, 0
10, 196064, Note_on_c, 4, 60, 0
10, 196080, Note_on_c, 4, 53, 84
10, 196080, Note_on_c, 4, 60, 84
10, 196304, Note_on_c, 4, 53, 0
10, 196304, Note_on_c, 4, 60, 0
10, 196320, Note_on_c, 4, 62, 84
10, 196320, Note_on_c, 4, 58, 84
10, 196544, Note_on_c, 4, 62, 0
10, 196544, Note_on_c, 4, 58, 0
10, 196560, Note_on_c, 4, 60, 84
10, 196560, Note_on_c, 4, 53, 84
10, 197024, Note_on_c, 4, 60, 0
10, 197024, Note_on_c, 4, 53, 0
10, 197040, Note_on_c, 4, 60, 84
10, 197040, Note_on_c, 4, 53, 84
10, 197264, Note_on_c, 4, 60, 0
10, 197264, Note_on_c, 4, 53, 0
10, 197280, Note_on_c, 4, 58, 84
10, 197280, Note_on_c, 4, 62, 84
10, 197504, Note_on_c, 4, 58, 0
10, 197504, Note_on_c, 4, 62, 0
10, 197520, Note_on_c, 4, 53, 84
10, 197520, Note_on_c, 4, 60, 84
10, 197984, Note_on_c, 4, 53, 0
10, 197984, Note_on_c, 4, 60, 0
10, 198000, Note_on_c, 4, 60, 84
10, 198000, Note_on_c, 4, 53, 84
10, 198224, Note_on_c, 4, 60, 0
10, 198224, Note_on_c, 4, 53, 0
10, 198240, Note_on_c, 4, 62, 84
10, 198240, Note_on_c, 4, 58, 84
10, 198464, Note_on_c, 4, 62, 0
10, 198464, Note_on_c, 4, 58, 0
10, 198480, Note_on_c, 4, 61, 84
10, 198480, Note_on_c, 4, 58, 84
10, 200624, Note_on_c, 4, 61, 0
10, 200624, Note_on_c, 4, 58, 0
10, 201600, Note_on_c, 4, 60, 52
10, 201600, Note_on_c, 4, 53, 52
10, 202079, Note_on_c, 4, 60, 0
10, 202079, Note_on_c, 4, 53, 0
10, 205440, Note_on_c, 4, 53, 52
10, 205440, Note_on_c, 4, 41, 52
10, 205559, Note_on_c, 4, 53, 0
10, 205559, Note_on_c, 4, 41, 0
10, 205680, Note_on_c, 4, 53, 52
10, 205680, Note_on_c, 4, 41, 52
10, 205799, Note_on_c, 4, 53, 0
10, 205799, Note_on_c, 4, 41, 0
10, 205920, Note_on_c, 4, 53, 44
10, 205920, Note_on_c, 4, 41, 44
10, 207839, Note_on_c, 4, 53, 0
10, 207839, Note_on_c, 4, 41, 0
10, 207840, Note_on_c, 4, 53, 44
10, 207840, Note_on_c, 4, 41, 44
10, 209759, Note_on_c, 4, 53, 0
10, 209759, Note_on_c, 4, 41, 0
10, 211440, Note_on_c, 4, 58, 76
10, 211440, Note_on_c, 4, 46, 76
10, 211679, Note_on_c, 4, 58, 0
10, 211679, Note_on_c, 4, 46, 0
10, 211680, Note_on_c, 4, 58, 84
10, 211680, Note_on_c, 4, 46, 84
10, 212624, Note_on_c, 4, 58, 0
10, 212624, Note_on_c, 4, 46, 0
10, 212640, Note_on_c, 4, 58, 84
10, 212640, Note_on_c, 4, 46, 84
10, 212759, Note_on_c, 4, 58, 0
10, 212759, Note_on_c, 4, 46, 0
10, 212880, Note_on_c, 4, 58, 84
10, 212880, Note_on_c, 4, 46, 84
10, 212999, Note_on_c, 4, 58, 0
10, 212999, Note_on_c, 4, 46, 0
10, 213600, Note_on_c, 4, 65, 84
10, 213600, Note_on_c, 4, 53, 84
10, 213719, Note_on_c, 4, 65, 0
10, 213719, Note_on_c, 4, 53, 0
10, 213840, Note_on_c, 4, 65, 84
10, 213840, Note_on_c, 4, 53, 84
10, 213959, Note_on_c, 4, 65, 0
10, 213959, Note_on_c, 4, 53, 0
10, 217680, Note_on_c, 4, 60, 84
10, 217680, Note_on_c, 4, 53, 84
10, 217799, Note_on_c, 4, 60, 0
10, 217799, Note_on_c, 4, 53, 0
10, 217920, Note_on_c, 4, 62, 84
10, 217920, Note_on_c, 4, 58, 84
10, 218039, Note_on_c, 4, 62, 0
10, 218039, Note_on_c, 4, 58, 0
10, 218160, Note_on_c, 4, 60, 84
10, 218160, Note_on_c, 4, 53, 84
10, 218279, Note_on_c, 4, 60, 0
10, 218279, Note_on_c, 4, 53, 0
10, 218400, Note_on_c, 4, 62, 84
10, 218400, Note_on_c, 4, 58, 84
10, 218519, Note_on_c, 4, 62, 0
10, 218519, Note_on_c, 4, 58, 0
10, 218880, Note_on_c, 4, 65, 84
10, 218880, Note_on_c, 4, 53, 84
10, 218999, Note_on_c, 4, 65, 0
10, 218999, Note_on_c, 4, 53, 0
10, 219360, Note_on_c, 4, 58, 84
10, 219360, Note_on_c, 4, 50, 84
10, 219479, Note_on_c, 4, 58, 0
10, 219479, Note_on_c, 4, 50, 0
10, 219479, End_track
11, 0, Start_track
11, 0, Title_t, "Trumpet in B-flat"
11, 0, MIDI_port, 0
11, 0, Program_c, 5, 56
11, 0, Control_c, 5, 7, 96
11, 0, Control_c, 5, 10, 60
11, 0, Control_c, 5, 11, 127
11, 1200, Note_on_c, 5, 53, 76
11, 1200, Note_on_c, 5, 65, 76
11, 1319, Note_on_c, 5, 53, 0
11, 1319, Note_on_c, 5, 65, 0
11, 1440, Note_on_c, 5, 58, 76
11, 1440, Note_on_c, 5, 70, 76
11, 1559, Note_on_c, 5, 58, 0
11, 1559, Note_on_c, 5, 70, 0
11, 1680, Note_on_c, 5, 53, 76
11, 1680, Note_on_c, 5, 65, 76
11, 1799, Note_on_c, 5, 53, 0
11, 1799, Note_on_c, 5, 65, 0
11, 9120, Note_on_c, 5, 65, 52
11, 9120, Note_on_c, 5, 53, 52
11, 9239, Note_on_c, 5, 65, 0
11, 9239, Note_on_c, 5, 53, 0
11, 9360, Note_on_c, 5, 65, 68
11, 9360, Note_on_c, 5, 53, 68
11, 9479, Note_on_c, 5, 65, 0
11, 9479, Note_on_c, 5, 53, 0
11, 9600, Note_on_c, 5, 70, 84
11, 9600, Note_on_c, 5, 58, 84
11, 11144, Note_on_c, 5, 70, 0
11, 11144, Note_on_c, 5, 58, 0
11, 11160, Note_on_c, 5, 58, 84
11, 11160, Note_on_c, 5, 70, 84
11, 11264, Note_on_c, 5, 58, 0
11, 11264, Note_on_c, 5, 70, 0
11, 11280, Note_on_c, 5, 70, 84
11, 11280, Note_on_c, 5, 58, 84
11, 11384, Note_on_c, 5, 70, 0
11, 11384, Note_on_c, 5, 58, 0
11, 11400, Note_on_c, 5, 65, 84
11, 11400, Note_on_c, 5, 53, 84
11, 11504, Note_on_c, 5, 65, 0
11, 11504, Note_on_c, 5, 53, 0
11, 11520, Note_on_c, 5, 58, 84
11, 11520, Note_on_c, 5, 70, 84
11, 11759, Note_on_c, 5, 58, 0
11, 11759, Note_on_c, 5, 70, 0
11, 12000, Note_on_c, 5, 70, 84
11, 12000, Note_on_c, 5, 58, 84
11, 12239, Note_on_c, 5, 70, 0
11, 12239, Note_on_c, 5, 58, 0
11, 12480, Note_on_c, 5, 65, 84
11, 12480, Note_on_c, 5, 53, 84
11, 12719, Note_on_c, 5, 65, 0
11, 12719, Note_on_c, 5, 53, 0
11, 12960, Note_on_c, 5, 65, 84
11, 12960, Note_on_c, 5, 53, 84
11, 13199, Note_on_c, 5, 65, 0
11, 13199, Note_on_c, 5, 53, 0
11, 13440, Note_on_c, 5, 58, 84
11, 13440, Note_on_c, 5, 70, 84
11, 13679, Note_on_c, 5, 58, 0
11, 13679, Note_on_c, 5, 70, 0
11, 13920, Note_on_c, 5, 70, 84
11, 13920, Note_on_c, 5, 58, 84
11, 14159, Note_on_c, 5, 70, 0
11, 14159, Note_on_c, 5, 58, 0
11, 14400, Note_on_c, 5, 53, 84
11, 14400, Note_on_c, 5, 65, 84
11, 14984, Note_on_c, 5, 53, 0
11, 14984, Note_on_c, 5, 65, 0
11, 15000, Note_on_c, 5, 65, 84
11, 15000, Note_on_c, 5, 53, 84
11, 15104, Note_on_c, 5, 65, 0
11, 15104, Note_on_c, 5, 53, 0
11, 15120, Note_on_c, 5, 53, 84
11, 15120, Note_on_c, 5, 65, 84
11, 15224, Note_on_c, 5, 53, 0
11, 15224, Note_on_c, 5, 65, 0
11, 15240, Note_on_c, 5, 53, 84
11, 15240, Note_on_c, 5, 65, 84
11, 15344, Note_on_c, 5, 53, 0
11, 15344, Note_on_c, 5, 65, 0
11, 15360, Note_on_c, 5, 72, 84
11, 15599, Note_on_c, 5, 72, 0
11, 16440, Note_on_c, 5, 72, 84
11, 16544, Note_on_c, 5, 72, 0
11, 16560, Note_on_c, 5, 72, 84
11, 16664, Note_on_c, 5, 72, 0
11, 16680, Note_on_c, 5, 72, 84
11, 16784, Note_on_c, 5, 72, 0
11, 16800, Note_on_c, 5, 72, 84
11, 16919, Note_on_c, 5, 72, 0
11, 25800, Note_on_c, 5, 72, 76
11, 25904, Note_on_c, 5, 72, 0
11, 25920, Note_on_c, 5, 72, 76
11, 26024, Note_on_c, 5, 72, 0
11, 26040, Note_on_c, 5, 72, 76
11, 26144, Note_on_c, 5, 72, 0
11, 26160, Note_on_c, 5, 72, 76
11, 26264, Note_on_c, 5, 72, 0
11, 26280, Note_on_c, 5, 72, 76
11, 26384, Note_on_c, 5, 72, 0
11, 26400, Note_on_c, 5, 72, 76
11, 26639, Note_on_c, 5, 72, 0
11, 27720, Note_on_c, 5, 72, 76
11, 27824, Note_on_c, 5, 72, 0
11, 27840, Note_on_c, 5, 72, 76
11, 27944, Note_on_c, 5, 72, 0
11, 27960, Note_on_c, 5, 72, 76
11, 28064, Note_on_c, 5, 72, 0
11, 28080, Note_on_c, 5, 72, 76
11, 28184, Note_on_c, 5, 72, 0
11, 28200, Note_on_c, 5, 72, 76
11, 28304, Note_on_c, 5, 72, 0
11, 28320, Note_on_c, 5, 72, 76
11, 28424, Note_on_c, 5, 72, 0
11, 28440, Note_on_c, 5, 72, 76
11, 28559, Note_on_c, 5, 72, 0
11, 28680, Note_on_c, 5, 72, 76
11, 28784, Note_on_c, 5, 72, 0
11, 28800, Note_on_c, 5, 72, 76
11, 28904, Note_on_c, 5, 72, 0
11, 28920, Note_on_c, 5, 72, 76
11, 29024, Note_on_c, 5, 72, 0
11, 29040, Note_on_c, 5, 72, 76
11, 29144, Note_on_c, 5, 72, 0
11, 29160, Note_on_c, 5, 72, 76
11, 29264, Note_on_c, 5, 72, 0
11, 29280, Note_on_c, 5, 72, 76
11, 29384, Note_on_c, 5, 72, 0
11, 29400, Note_on_c, 5, 72, 76
11, 29519, Note_on_c, 5, 72, 0
11, 29640, Note_on_c, 5, 72, 76
11, 29744, Note_on_c, 5, 72, 0
11, 29760, Note_on_c, 5, 72, 76
11, 29864, Note_on_c, 5, 72, 0
11, 29880, Note_on_c, 5, 72, 76
11, 29984, Note_on_c, 5, 72, 0
11, 30000, Note_on_c, 5, 72, 76
11, 30104, Note_on_c, 5, 72, 0
11, 30120, Note_on_c, 5, 72, 76
11, 30224, Note_on_c, 5, 72, 0
11, 30240, Note_on_c, 5, 77, 84
11, 30240, Note_on_c, 5, 65, 84
11, 31184, Note_on_c, 5, 77, 0
11, 31184, Note_on_c, 5, 65, 0
11, 31200, Note_on_c, 5, 62, 84
11, 31200, Note_on_c, 5, 74, 84
11, 31424, Note_on_c, 5, 62, 0
11, 31424, Note_on_c, 5, 74, 0
11, 31440, Note_on_c, 5, 74, 92
11, 31440, Note_on_c, 5, 62, 92
11, 31679, Note_on_c, 5, 74, 0
11, 31679, Note_on_c, 5, 62, 0
11, 31920, Note_on_c, 5, 74, 92
11, 31920, Note_on_c, 5, 62, 92
11, 32159, Note_on_c, 5, 74, 0
11, 32159, Note_on_c, 5, 62, 0
11, 32400, Note_on_c, 5, 74, 92
11, 32400, Note_on_c, 5, 62, 92
11, 32639, Note_on_c, 5, 74, 0
11, 32639, Note_on_c, 5, 62, 0
11, 32880, Note_on_c, 5, 74, 92
11, 32880, Note_on_c, 5, 62, 92
11, 33119, Note_on_c, 5, 74, 0
11, 33119, Note_on_c, 5, 62, 0
11, 35040, Note_on_c, 5, 62, 84
11, 35040, Note_on_c, 5, 74, 84
11, 35264, Note_on_c, 5, 62, 0
11, 35264, Note_on_c, 5, 74, 0
11, 35280, Note_on_c, 5, 74, 92
11, 35280, Note_on_c, 5, 62, 92
11, 35519, Note_on_c, 5, 74, 0
11, 35519, Note_on_c, 5, 62, 0
11, 35760, Note_on_c, 5, 74, 92
11, 35760, Note_on_c, 5, 62, 92
11, 35999, Note_on_c, 5, 74, 0
11, 35999, Note_on_c, 5, 62, 0
11, 36240, Note_on_c, 5, 74, 92
11, 36240, Note_on_c, 5, 62, 92
11, 36479, Note_on_c, 5, 74, 0
11, 36479, Note_on_c, 5, 62, 0
11, 36720, Note_on_c, 5, 62, 92
11, 36720, Note_on_c, 5, 74, 92
11, 36959, Note_on_c, 5, 62, 0
11, 36959, Note_on_c, 5, 74, 0
11, 40800, Note_on_c, 5, 77, 84
11, 40800, Note_on_c, 5, 65, 84
11, 41504, Note_on_c, 5, 77, 0
11, 41504, Note_on_c, 5, 65, 0
11, 41520, Note_on_c, 5, 72, 84
11, 41744, Note_on_c, 5, 72, 0
11, 41760, Note_on_c, 5, 65, 84
11, 41879, Note_on_c, 5, 65, 0
11, 42720, Note_on_c, 5, 65, 84
11, 42720, Note_on_c, 5, 53, 84
11, 42839, Note_on_c, 5, 65, 0
11, 42839, Note_on_c, 5, 53, 0
11, 43680, Note_on_c, 5, 53, 84
11, 43680, Note_on_c, 5, 65, 84
11, 43799, Note_on_c, 5, 53, 0
11, 43799, Note_on_c, 5, 65, 0
11, 44640, Note_on_c, 5, 53, 84
11, 44640, Note_on_c, 5, 65, 84
11, 44759, Note_on_c, 5, 53, 0
11, 44759, Note_on_c, 5, 65, 0
11, 45600, Note_on_c, 5, 65, 84
11, 45600, Note_on_c, 5, 53, 84
11, 45704, Note_on_c, 5, 65, 0
11, 45704, Note_on_c, 5, 53, 0
11, 45720, Note_on_c, 5, 53, 84
11, 45720, Note_on_c, 5, 65, 84
11, 45839, Note_on_c, 5, 53, 0
11, 45839, Note_on_c, 5, 65, 0
11, 45960, Note_on_c, 5, 53, 84
11, 45960, Note_on_c, 5, 65, 84
11, 46064, Note_on_c, 5, 53, 0
11, 46064, Note_on_c, 5, 65, 0
11, 46080, Note_on_c, 5, 65, 84
11, 46080, Note_on_c, 5, 53, 84
11, 46184, Note_on_c, 5, 65, 0
11, 46184, Note_on_c, 5, 53, 0
11, 46200, Note_on_c, 5, 53, 84
11, 46200, Note_on_c, 5, 65, 84
11, 46319, Note_on_c, 5, 53, 0
11, 46319, Note_on_c, 5, 65, 0
11, 46440, Note_on_c, 5, 65, 84
11, 46440, Note_on_c, 5, 53, 84
11, 46544, Note_on_c, 5, 65, 0
11, 46544, Note_on_c, 5, 53, 0
11, 46560, Note_on_c, 5, 53, 84
11, 46560, Note_on_c, 5, 65, 84
11, 46664, Note_on_c, 5, 53, 0
11, 46664, Note_on_c, 5, 65, 0
11, 46680, Note_on_c, 5, 53, 84
11, 46680, Note_on_c, 5, 65, 84
11, 46799, Note_on_c, 5, 53, 0
11, 46799, Note_on_c, 5, 65, 0
11, 46920, Note_on_c, 5, 53, 84
11, 46920, Note_on_c, 5, 65, 84
11, 47024, Note_on_c, 5, 53, 0
11, 47024, Note_on_c, 5, 65, 0
11, 47040, Note_on_c, 5, 65, 84
11, 47040, Note_on_c, 5, 53, 84
11, 47144, Note_on_c, 5, 65, 0
11, 47144, Note_on_c, 5, 53, 0
11, 47160, Note_on_c, 5, 53, 84
11, 47160, Note_on_c, 5, 65, 84
11, 47264, Note_on_c, 5, 53, 0
11, 47264, Note_on_c, 5, 65, 0
11, 47280, Note_on_c, 5, 53, 84
11, 47280, Note_on_c, 5, 65, 84
11, 47384, Note_on_c, 5, 53, 0
11, 47384, Note_on_c, 5, 65, 0
11, 47400, Note_on_c, 5, 53, 84
11, 47400, Note_on_c, 5, 65, 84
11, 47504, Note_on_c, 5, 53, 0
11, 47504, Note_on_c, 5, 65, 0
11, 47520, Note_on_c, 5, 65, 52
11, 47520, Note_on_c, 5, 53, 52
11, 47639, Note_on_c, 5, 65, 0
11, 47639, Note_on_c, 5, 53, 0
11, 50640, Note_on_c, 5, 53, 76
11, 50640, Note_on_c, 5, 65, 76
11, 50759, Note_on_c, 5, 53, 0
11, 50759, Note_on_c, 5, 65, 0
11, 50880, Note_on_c, 5, 70, 76
11, 50880, Note_on_c, 5, 58, 76
11, 50999, Note_on_c, 5, 70, 0
11, 50999, Note_on_c, 5, 58, 0
11, 51120, Note_on_c, 5, 65, 76
11, 51120, Note_on_c, 5, 53, 76
11, 51239, Note_on_c, 5, 65, 0
11, 51239, Note_on_c, 5, 53, 0
11, 58560, Note_on_c, 5, 53, 52
11, 58560, Note_on_c, 5, 65, 52
11, 58679, Note_on_c, 5, 53, 0
11, 58679, Note_on_c, 5, 65, 0
11, 58800, Note_on_c, 5, 65, 68
11, 58800, Note_on_c, 5, 53, 68
11, 58919, Note_on_c, 5, 65, 0
11, 58919, Note_on_c, 5, 53, 0
11, 59040, Note_on_c, 5, 58, 84
11, 59040, Note_on_c, 5, 70, 84
11, 60584, Note_on_c, 5, 58, 0
11, 60584, Note_on_c, 5, 70, 0
11, 60600, Note_on_c, 5, 70, 84
11, 60600, Note_on_c, 5, 58, 84
11, 60704, Note_on_c, 5, 70, 0
11, 60704, Note_on_c, 5, 58, 0
11, 60720, Note_on_c, 5, 70, 84
11, 60720, Note_on_c, 5, 58, 84
11, 60824, Note_on_c, 5, 70, 0
11, 60824, Note_on_c, 5, 58, 0
11, 60840, Note_on_c, 5, 53, 84
11, 60840, Note_on_c, 5, 65, 84
11, 60944, Note_on_c, 5, 53, 0
11, 60944, Note_on_c, 5, 65, 0
11, 60960, Note_on_c, 5, 58, 84
11, 60960, Note_on_c, 5, 70, 84
11, 61199, Note_on_c, 5, 58, 0
11, 61199, Note_on_c, 5, 70, 0
11, 61440, Note_on_c, 5, 58, 84
11, 61440, Note_on_c, 5, 70, 84
11, 61679, Note_on_c, 5, 58, 0
11, 61679, Note_on_c, 5, 70, 0
11, 61920, Note_on_c, 5, 53, 84
11, 61920, Note_on_c, 5, 65, 84
11, 62159, Note_on_c, 5, 53, 0
11, 62159, Note_on_c, 5, 65, 0
11, 62400, Note_on_c, 5, 53, 84
11, 62400, Note_on_c, 5, 65, 84
11, 62639, Note_on_c, 5, 53, 0
11, 62639, Note_on_c, 5, 65, 0
11, 62880, Note_on_c, 5, 70, 84
11, 62880, Note_on_c, 5, 58, 84
11, 63119, Note_on_c, 5, 70, 0
11, 63119, Note_on_c, 5, 58, 0
11, 63360, Note_on_c, 5, 70, 84
11, 63360, Note_on_c, 5, 58, 84
11, 63599, Note_on_c, 5, 70, 0
11, 63599, Note_on_c, 5, 58, 0
11, 63840, Note_on_c, 5, 65, 84
11, 63840, Note_on_c, 5, 53, 84
11, 64424, Note_on_c, 5, 65, 0
11, 64424, Note_on_c, 5, 53, 0
11, 64440, Note_on_c, 5, 53, 84
11, 64440, Note_on_c, 5, 65, 84
11, 64544, Note_on_c, 5, 53, 0
11, 64544, Note_on_c, 5, 65, 0
11, 64560, Note_on_c, 5, 65, 84
11, 64560, Note_on_c, 5, 53, 84
11, 64664, Note_on_c, 5, 65, 0
11, 64664, Note_on_c, 5, 53, 0
11, 64680, Note_on_c, 5, 65, 84
11, 64680, Note_on_c, 5, 53, 84
11, 64784, Note_on_c, 5, 65, 0
11, 64784, Note_on_c, 5, 53, 0
11, 64800, Note_on_c, 5, 72, 84
11, 65039, Note_on_c, 5, 72, 0
11, 65880, Note_on_c, 5, 72, 84
11, 65984, Note_on_c, 5, 72, 0
11, 66000, Note_on_c, 5, 72, 84
11, 66104, Note_on_c, 5, 72, 0
11, 66120, Note_on_c, 5, 72, 84
11, 66224, Note_on_c, 5, 72, 0
11, 66240, Note_on_c, 5, 72, 84
11, 66359, Note_on_c, 5, 72, 0
11, 75240, Note_on_c, 5, 72, 76
11, 75344, Note_on_c, 5, 72, 0
11, 75360, Note_on_c, 5, 72, 76
11, 75464, Note_on_c, 5, 72, 0
11, 75480, Note_on_c, 5, 72, 76
11, 75584, Note_on_c, 5, 72, 0
11, 75600, Note_on_c, 5, 72, 76
11, 75704, Note_on_c, 5, 72, 0
11, 75720, Note_on_c, 5, 72, 76
11, 75824, Note_on_c, 5, 72, 0
11, 75840, Note_on_c, 5, 72, 76
11, 76079, Note_on_c, 5, 72, 0
11, 77160, Note_on_c, 5, 72, 76
11, 77264, Note_on_c, 5, 72, 0
11, 77280, Note_on_c, 5, 72, 76
11, 77384, Note_on_c, 5, 72, 0
11, 77400, Note_on_c, 5, 72, 76
11, 77504, Note_on_c, 5, 72, 0
11, 77520, Note_on_c, 5, 72, 76
11, 77624, Note_on_c, 5, 72, 0
11, 77640, Note_on_c, 5, 72, 76
11, 77744, Note_on_c, 5, 72, 0
11, 77760, Note_on_c, 5, 72, 76
11, 77864, Note_on_c, 5, 72, 0
11, 77880, Note_on_c, 5, 72, 76
11, 77999, Note_on_c, 5, 72, 0
11, 78120, Note_on_c, 5, 72, 76
11, 78224, Note_on_c, 5, 72, 0
11, 78240, Note_on_c, 5, 72, 76
11, 78344, Note_on_c, 5, 72, 0
11, 78360, Note_on_c, 5, 72, 76
11, 78464, Note_on_c, 5, 72, 0
11, 78480, Note_on_c, 5, 72, 76
11, 78584, Note_on_c, 5, 72, 0
11, 78600, Note_on_c, 5, 72, 76
11, 78704, Note_on_c, 5, 72, 0
11, 78720, Note_on_c, 5, 72, 76
11, 78824, Note_on_c, 5, 72, 0
11, 78840, Note_on_c, 5, 72, 76
11, 78959, Note_on_c, 5, 72, 0
11, 79080, Note_on_c, 5, 72, 76
11, 79184, Note_on_c, 5, 72, 0
11, 79200, Note_on_c, 5, 72, 76
11, 79304, Note_on_c, 5, 72, 0
11, 79320, Note_on_c, 5, 72, 76
11, 79424, Note_on_c, 5, 72, 0
11, 79440, Note_on_c, 5, 72, 76
11, 79544, Note_on_c, 5, 72, 0
11, 79560, Note_on_c, 5, 72, 76
11, 79664, Note_on_c, 5, 72, 0
11, 79680, Note_on_c, 5, 65, 84
11, 79680, Note_on_c, 5, 77, 84
11, 80624, Note_on_c, 5, 65, 0
11, 80624, Note_on_c, 5, 77, 0
11, 80640, Note_on_c, 5, 74, 84
11, 80640, Note_on_c, 5, 62, 84
11, 80864, Note_on_c, 5, 74, 0
11, 80864, Note_on_c, 5, 62, 0
11, 80880, Note_on_c, 5, 74, 92
11, 80880, Note_on_c, 5, 62, 92
11, 81119, Note_on_c, 5, 74, 0
11, 81119, Note_on_c, 5, 62, 0
11, 81360, Note_on_c, 5, 62, 92
11, 81360, Note_on_c, 5, 74, 92
11, 81599, Note_on_c, 5, 62, 0
11, 81599, Note_on_c, 5, 74, 0
11, 81840, Note_on_c, 5, 62, 92
11, 81840, Note_on_c, 5, 74, 92
11, 82079, Note_on_c, 5, 62, 0
11, 82079, Note_on_c, 5, 74, 0
11, 82320, Note_on_c, 5, 74, 92
11, 82320, Note_on_c, 5, 62, 92
11, 82559, Note_on_c, 5, 74, 0
11, 82559, Note_on_c, 5, 62, 0
11, 84480, Note_on_c, 5, 74, 84
11, 84480, Note_on_c, 5, 62, 84
11, 84704, Note_on_c, 5, 74, 0
11, 84704, Note_on_c, 5, 62, 0
11, 84720, Note_on_c, 5, 62, 92
11, 84720, Note_on_c, 5, 74, 92
11, 84959, Note_on_c, 5, 62, 0
11, 84959, Note_on_c, 5, 74, 0
11, 85200, Note_on_c, 5, 62, 92
11, 85200, Note_on_c, 5, 74, 92
11, 85439, Note_on_c, 5, 62, 0
11, 85439, Note_on_c, 5, 74, 0
11, 85680, Note_on_c, 5, 74, 92
11, 85680, Note_on_c, 5, 62, 92
11, 85919, Note_on_c, 5, 74, 0
11, 85919, Note_on_c, 5, 62, 0
11, 86160, Note_on_c, 5, 74, 92
11, 86160, Note_on_c, 5, 62, 92
11, 86399, Note_on_c, 5, 74, 0
11, 86399, Note_on_c, 5, 62, 0
11, 90240, Note_on_c, 5, 77, 84
11, 90240, Note_on_c, 5, 65, 84
11, 90944, Note_on_c, 5, 77, 0
11, 90944, Note_on_c, 5, 65, 0
11, 90960, Note_on_c, 5, 72, 84
11, 91184, Note_on_c, 5, 72, 0
11, 91200, Note_on_c, 5, 65, 84
11, 91319, Note_on_c, 5, 65, 0
11, 92160, Note_on_c, 5, 53, 84
11, 92160, Note_on_c, 5, 65, 84
11, 92279, Note_on_c, 5, 53, 0
11, 92279, Note_on_c, 5, 65, 0
11, 93120, Note_on_c, 5, 53, 84
11, 93120, Note_on_c, 5, 65, 84
11, 93239, Note_on_c, 5, 53, 0
11, 93239, Note_on_c, 5, 65, 0
11, 94080, Note_on_c, 5, 65, 84
11, 94080, Note_on_c, 5, 53, 84
11, 94199, Note_on_c, 5, 65, 0
11, 94199, Note_on_c, 5, 53, 0
11, 95040, Note_on_c, 5, 53, 84
11, 95040, Note_on_c, 5, 65, 84
11, 95144, Note_on_c, 5, 53, 0
11, 95144, Note_on_c, 5, 65, 0
11, 95160, Note_on_c, 5, 53, 84
11, 95160, Note_on_c, 5, 65, 84
11, 95279, Note_on_c, 5, 53, 0
11, 95279, Note_on_c, 5, 65, 0
11, 95400, Note_on_c, 5, 65, 84
11, 95400, Note_on_c, 5, 53, 84
11, 95504, Note_on_c, 5, 65, 0
11, 95504, Note_on_c, 5, 53, 0
11, 95520, Note_on_c, 5, 53, 84
11, 95520, Note_on_c, 5, 65, 84
11, 95624, Note_on_c, 5, 53, 0
11, 95624, Note_on_c, 5, 65, 0
11, 95640, Note_on_c, 5, 53, 84
11, 95640, Note_on_c, 5, 65, 84
11, 95759, Note_on_c, 5, 53, 0
11, 95759, Note_on_c, 5, 65, 0
11, 95880, Note_on_c, 5, 53, 84
11, 95880, Note_on_c, 5, 65, 84
11, 95984, Note_on_c, 5, 53, 0
11, 95984, Note_on_c, 5, 65, 0
11, 96000, Note_on_c, 5, 65, 84
11, 96000, Note_on_c, 5, 53, 84
11, 96104, Note_on_c, 5, 65, 0
11, 96104, Note_on_c, 5, 53, 0
11, 96120, Note_on_c, 5, 65, 84
11, 96120, Note_on_c, 5, 53, 84
11, 96239, Note_on_c, 5, 65, 0
11, 96239, Note_on_c, 5, 53, 0
11, 96360, Note_on_c, 5, 53, 84
11, 96360, Note_on_c, 5, 65, 84
11, 96464, Note_on_c, 5, 53, 0
11, 96464, Note_on_c, 5, 65, 0
11, 96480, Note_on_c, 5, 53, 84
11, 96480, Note_on_c, 5, 65, 84
11, 96584, Note_on_c, 5, 53, 0
11, 96584, Note_on_c, 5, 65, 0
11, 96600, Note_on_c, 5, 65, 84
11, 96600, Note_on_c, 5, 53, 84
11, 96704, Note_on_c, 5, 65, 0
11, 96704, Note_on_c, 5, 53, 0
11, 96720, Note_on_c, 5, 53, 84
11, 96720, Note_on_c, 5, 65, 84
11, 96824, Note_on_c, 5, 53, 0
11, 96824, Note_on_c, 5, 65, 0
11, 96840, Note_on_c, 5, 53, 84
11, 96840, Note_on_c, 5, 65, 84
11, 96944, Note_on_c, 5, 53, 0
11, 96944, Note_on_c, 5, 65, 0
11, 96960, Note_on_c, 5, 53, 52
11, 96960, Note_on_c, 5, 65, 52
11, 97079, Note_on_c, 5, 53, 0
11, 97079, Note_on_c, 5, 65, 0
11, 126240, Note_on_c, 5, 65, 84
11, 126240, Note_on_c, 5, 53, 84
11, 126344, Note_on_c, 5, 65, 0
11, 126344, Note_on_c, 5, 53, 0
11, 126360, Note_on_c, 5, 65, 84
11, 126360, Note_on_c, 5, 53, 84
11, 126479, Note_on_c, 5, 65, 0
11, 126479, Note_on_c, 5, 53, 0
11, 126600, Note_on_c, 5, 65, 84
11, 126600, Note_on_c, 5, 53, 84
11, 126704, Note_on_c, 5, 65, 0
11, 126704, Note_on_c, 5, 53, 0
11, 126720, Note_on_c, 5, 65, 84
11, 126720, Note_on_c, 5, 53, 84
11, 126824, Note_on_c, 5, 65, 0
11, 126824, Note_on_c, 5, 53, 0
11, 126840, Note_on_c, 5, 65, 84
11, 126840, Note_on_c, 5, 53, 84
11, 126959, Note_on_c, 5, 65, 0
11, 126959, Note_on_c, 5, 53, 0
11, 127080, Note_on_c, 5, 53, 84
11, 127080, Note_on_c, 5, 65, 84
11, 127184, Note_on_c, 5, 53, 0
11, 127184, Note_on_c, 5, 65, 0
11, 127200, Note_on_c, 5, 65, 84
11, 127200, Note_on_c, 5, 53, 84
11, 127304, Note_on_c, 5, 65, 0
11, 127304, Note_on_c, 5, 53, 0
11, 127320, Note_on_c, 5, 53, 84
11, 127320, Note_on_c, 5, 65, 84
11, 127439, Note_on_c, 5, 53, 0
11, 127439, Note_on_c, 5, 65, 0
11, 127560, Note_on_c, 5, 53, 84
11, 127560, Note_on_c, 5, 65, 84
11, 127664, Note_on_c, 5, 53, 0
11, 127664, Note_on_c, 5, 65, 0
11, 127680, Note_on_c, 5, 65, 84
11, 127680, Note_on_c, 5, 53, 84
11, 127784, Note_on_c, 5, 65, 0
11, 127784, Note_on_c, 5, 53, 0
11, 127800, Note_on_c, 5, 53, 84
11, 127800, Note_on_c, 5, 65, 84
11, 127919, Note_on_c, 5, 53, 0
11, 127919, Note_on_c, 5, 65, 0
11, 128040, Note_on_c, 5, 65, 84
11, 128040, Note_on_c, 5, 53, 84
11, 128144, Note_on_c, 5, 65, 0
11, 128144, Note_on_c, 5, 53, 0
11, 128160, Note_on_c, 5, 53, 84
11, 128160, Note_on_c, 5, 65, 84
11, 128279, Note_on_c, 5, 53, 0
11, 128279, Note_on_c, 5, 65, 0
11, 128400, Note_on_c, 5, 53, 84
11, 128400, Note_on_c, 5, 65, 84
11, 128519, Note_on_c, 5, 53, 0
11, 128519, Note_on_c, 5, 65, 0
11, 128640, Note_on_c, 5, 53, 84
11, 128640, Note_on_c, 5, 65, 84
11, 128759, Note_on_c, 5, 53, 0
11, 128759, Note_on_c, 5, 65, 0
11, 128880, Note_on_c, 5, 65, 84
11, 128880, Note_on_c, 5, 53, 84
11, 128999, Note_on_c, 5, 65, 0
11, 128999, Note_on_c, 5, 53, 0
11, 129120, Note_on_c, 5, 65, 84
11, 129120, Note_on_c, 5, 53, 84
11, 129239, Note_on_c, 5, 65, 0
11, 129239, Note_on_c, 5, 53, 0
11, 129360, Note_on_c, 5, 53, 84
11, 129360, Note_on_c, 5, 65, 84
11, 129479, Note_on_c, 5, 53, 0
11, 129479, Note_on_c, 5, 65, 0
11, 129600, Note_on_c, 5, 53, 84
11, 129600, Note_on_c, 5, 65, 84
11, 129719, Note_on_c, 5, 53, 0
11, 129719, Note_on_c, 5, 65, 0
11, 129840, Note_on_c, 5, 53, 84
11, 129840, Note_on_c, 5, 65, 84
11, 129959, Note_on_c, 5, 53, 0
11, 129959, Note_on_c, 5, 65, 0
11, 130080, Note_on_c, 5, 72, 92
11, 130529, Note_on_c, 5, 72, 0
11, 130560, Note_on_c, 5, 72, 92
11, 131009, Note_on_c, 5, 72, 0
11, 131040, Note_on_c, 5, 72, 92
11, 131489, Note_on_c, 5, 72, 0
11, 131520, Note_on_c, 5, 72, 92
11, 131969, Note_on_c, 5, 72, 0
11, 132000, Note_on_c, 5, 72, 84
11, 132119, Note_on_c, 5, 72, 0
11, 132240, Note_on_c, 5, 72, 84
11, 132240, Note_on_c, 5, 75, 84
11, 132359, Note_on_c, 5, 72, 0
11, 132359, Note_on_c, 5, 75, 0
11, 132480, Note_on_c, 5, 75, 84
11, 132480, Note_on_c, 5, 72, 84
11, 132599, Note_on_c, 5, 75, 0
11, 132599, Note_on_c, 5, 72, 0
11, 132720, Note_on_c, 5, 75, 84
11, 132720, Note_on_c, 5, 72, 84
11, 132839, Note_on_c, 5, 75, 0
11, 132839, Note_on_c, 5, 72, 0
11, 132960, Note_on_c, 5, 72, 84
11, 132960, Note_on_c, 5, 75, 84
11, 133079, Note_on_c, 5, 72, 0
11, 133079, Note_on_c, 5, 75, 0
11, 133200, Note_on_c, 5, 75, 84
11, 133200, Note_on_c, 5, 72, 84
11, 133319, Note_on_c, 5, 75, 0
11, 133319, Note_on_c, 5, 72, 0
11, 133440, Note_on_c, 5, 75, 84
11, 133440, Note_on_c, 5, 72, 84
11, 133559, Note_on_c, 5, 75, 0
11, 133559, Note_on_c, 5, 72, 0
11, 133680, Note_on_c, 5, 72, 84
11, 133680, Note_on_c, 5, 75, 84
11, 133799, Note_on_c, 5, 72, 0
11, 133799, Note_on_c, 5, 75, 0
11, 133920, Note_on_c, 5, 72, 92
11, 134369, Note_on_c, 5, 72, 0
11, 134400, Note_on_c, 5, 72, 92
11, 134849, Note_on_c, 5, 72, 0
11, 134880, Note_on_c, 5, 72, 92
11, 135329, Note_on_c, 5, 72, 0
11, 135360, Note_on_c, 5, 72, 92
11, 135809, Note_on_c, 5, 72, 0
11, 135840, Note_on_c, 5, 72, 84
11, 135959, Note_on_c, 5, 72, 0
11, 139680, Note_on_c, 5, 58, 76
11, 139680, Note_on_c, 5, 70, 76
11, 139799, Note_on_c, 5, 58, 0
11, 139799, Note_on_c, 5, 70, 0
11, 139920, Note_on_c, 5, 58, 76
11, 139920, Note_on_c, 5, 70, 76
11, 140039, Note_on_c, 5, 58, 0
11, 140039, Note_on_c, 5, 70, 0
11, 140160, Note_on_c, 5, 58, 76
11, 140160, Note_on_c, 5, 70, 76
11, 140279, Note_on_c, 5, 58, 0
11, 140279, Note_on_c, 5, 70, 0
11, 140880, Note_on_c, 5, 65, 76
11, 140880, Note_on_c, 5, 53, 76
11, 140999, Note_on_c, 5, 65, 0
11, 140999, Note_on_c, 5, 53, 0
11, 141120, Note_on_c, 5, 53, 76
11, 141120, Note_on_c, 5, 65, 76
11, 141239, Note_on_c, 5, 53, 0
11, 141239, Note_on_c, 5, 65, 0
11, 141360, Note_on_c, 5, 65, 76
11, 141360, Note_on_c, 5, 53, 76
11, 141479, Note_on_c, 5, 65, 0
11, 141479, Note_on_c, 5, 53, 0
11, 141600, Note_on_c, 5, 58, 76
11, 141600, Note_on_c, 5, 70, 76
11, 141839, Note_on_c, 5, 58, 0
11, 141839, Note_on_c, 5, 70, 0
11, 142080, Note_on_c, 5, 70, 76
11, 142080, Note_on_c, 5, 58, 76
11, 142319, Note_on_c, 5, 70, 0
11, 142319, Note_on_c, 5, 58, 0
11, 142560, Note_on_c, 5, 58, 76
11, 142560, Note_on_c, 5, 70, 76
11, 142799, Note_on_c, 5, 58, 0
11, 142799, Note_on_c, 5, 70, 0
11, 143040, Note_on_c, 5, 58, 76
11, 143040, Note_on_c, 5, 70, 76
11, 143279, Note_on_c, 5, 58, 0
11, 143279, Note_on_c, 5, 70, 0
11, 143520, Note_on_c, 5, 70, 76
11, 143520, Note_on_c, 5, 58, 76
11, 143759, Note_on_c, 5, 70, 0
11, 143759, Note_on_c, 5, 58, 0
11, 144000, Note_on_c, 5, 58, 76
11, 144000, Note_on_c, 5, 70, 76
11, 144239, Note_on_c, 5, 58, 0
11, 144239, Note_on_c, 5, 70, 0
11, 144480, Note_on_c, 5, 58, 76
11, 144480, Note_on_c, 5, 70, 76
11, 144719, Note_on_c, 5, 58, 0
11, 144719, Note_on_c, 5, 70, 0
11, 144960, Note_on_c, 5, 70, 76
11, 144960, Note_on_c, 5, 58, 76
11, 145199, Note_on_c, 5, 70, 0
11, 145199, Note_on_c, 5, 58, 0
11, 150240, Note_on_c, 5, 65, 84
11, 150240, Note_on_c, 5, 53, 84
11, 150839, Note_on_c, 5, 65, 0
11, 150839, Note_on_c, 5, 53, 0
11, 151200, Note_on_c, 5, 53, 84
11, 151200, Note_on_c, 5, 65, 84
11, 151319, Note_on_c, 5, 53, 0
11, 151319, Note_on_c, 5, 65, 0
11, 151440, Note_on_c, 5, 65, 84
11, 151440, Note_on_c, 5, 53, 84
11, 151559, Note_on_c, 5, 65, 0
11, 151559, Note_on_c, 5, 53, 0
11, 151680, Note_on_c, 5, 65, 84
11, 151680, Note_on_c, 5, 53, 84
11, 151799, Note_on_c, 5, 65, 0
11, 151799, Note_on_c, 5, 53, 0
11, 160680, Note_on_c, 5, 65, 76
11, 160680, Note_on_c, 5, 53, 76
11, 160784, Note_on_c, 5, 65, 0
11, 160784, Note_on_c, 5, 53, 0
11, 160800, Note_on_c, 5, 53, 76
11, 160800, Note_on_c, 5, 65, 76
11, 160889, Note_on_c, 5, 53, 0
11, 160889, Note_on_c, 5, 65, 0
11, 160920, Note_on_c, 5, 65, 76
11, 160920, Note_on_c, 5, 53, 76
11, 161009, Note_on_c, 5, 65, 0
11, 161009, Note_on_c, 5, 53, 0
11, 161040, Note_on_c, 5, 53, 76
11, 161040, Note_on_c, 5, 65, 76
11, 161129, Note_on_c, 5, 53, 0
11, 161129, Note_on_c, 5, 65, 0
11, 161160, Note_on_c, 5, 53, 76
11, 161160, Note_on_c, 5, 65, 76
11, 161249, Note_on_c, 5, 53, 0
11, 161249, Note_on_c, 5, 65, 0
11, 161280, Note_on_c, 5, 65, 76
11, 161280, Note_on_c, 5, 53, 76
11, 161519, Note_on_c, 5, 65, 0
11, 161519, Note_on_c, 5, 53, 0
11, 162600, Note_on_c, 5, 53, 76
11, 162600, Note_on_c, 5, 65, 76
11, 162704, Note_on_c, 5, 53, 0
11, 162704, Note_on_c, 5, 65, 0
11, 162720, Note_on_c, 5, 53, 76
11, 162720, Note_on_c, 5, 65, 76
11, 162824, Note_on_c, 5, 53, 0
11, 162824, Note_on_c, 5, 65, 0
11, 162840, Note_on_c, 5, 65, 76
11, 162840, Note_on_c, 5, 53, 76
11, 162944, Note_on_c, 5, 65, 0
11, 162944, Note_on_c, 5, 53, 0
11, 162960, Note_on_c, 5, 65, 76
11, 162960, Note_on_c, 5, 53, 76
11, 163064, Note_on_c, 5, 65, 0
11, 163064, Note_on_c, 5, 53, 0
11, 163080, Note_on_c, 5, 53, 76
11, 163080, Note_on_c, 5, 65, 76
11, 163184, Note_on_c, 5, 53, 0
11, 163184, Note_on_c, 5, 65, 0
11, 163200, Note_on_c, 5, 53, 76
11, 163200, Note_on_c, 5, 65, 76
11, 163289, Note_on_c, 5, 53, 0
11, 163289, Note_on_c, 5, 65, 0
11, 163320, Note_on_c, 5, 53, 76
11, 163320, Note_on_c, 5, 65, 76
11, 163409, Note_on_c, 5, 53, 0
11, 163409, Note_on_c, 5, 65, 0
11, 163560, Note_on_c, 5, 53, 76
11, 163560, Note_on_c, 5, 65, 76
11, 163664, Note_on_c, 5, 53, 0
11, 163664, Note_on_c, 5, 65, 0
11, 163680, Note_on_c, 5, 65, 76
11, 163680, Note_on_c, 5, 53, 76
11, 163784, Note_on_c, 5, 65, 0
11, 163784, Note_on_c, 5, 53, 0
11, 163800, Note_on_c, 5, 65, 76
11, 163800, Note_on_c, 5, 53, 76
11, 163904, Note_on_c, 5, 65, 0
11, 163904, Note_on_c, 5, 53, 0
11, 163920, Note_on_c, 5, 65, 76
11, 163920, Note_on_c, 5, 53, 76
11, 164024, Note_on_c, 5, 65, 0
11, 164024, Note_on_c, 5, 53, 0
11, 164040, Note_on_c, 5, 53, 76
11, 164040, Note_on_c, 5, 65, 76
11, 164144, Note_on_c, 5, 53, 0
11, 164144, Note_on_c, 5, 65, 0
11, 164160, Note_on_c, 5, 53, 76
11, 164160, Note_on_c, 5, 65, 76
11, 164264, Note_on_c, 5, 53, 0
11, 164264, Note_on_c, 5, 65, 0
11, 164280, Note_on_c, 5, 53, 76
11, 164280, Note_on_c, 5, 65, 76
11, 164399, Note_on_c, 5, 53, 0
11, 164399, Note_on_c, 5, 65, 0
11, 164520, Note_on_c, 5, 65, 76
11, 164520, Note_on_c, 5, 53, 76
11, 164624, Note_on_c, 5, 65, 0
11, 164624, Note_on_c, 5, 53, 0
11, 164640, Note_on_c, 5, 53, 76
11, 164640, Note_on_c, 5, 65, 76
11, 164744, Note_on_c, 5, 53, 0
11, 164744, Note_on_c, 5, 65, 0
11, 164760, Note_on_c, 5, 65, 76
11, 164760, Note_on_c, 5, 53, 76
11, 164864, Note_on_c, 5, 65, 0
11, 164864, Note_on_c, 5, 53, 0
11, 164880, Note_on_c, 5, 65, 76
11, 164880, Note_on_c, 5, 53, 76
11, 164984, Note_on_c, 5, 65, 0
11, 164984, Note_on_c, 5, 53, 0
11, 165000, Note_on_c, 5, 65, 76
11, 165000, Note_on_c, 5, 53, 76
11, 165104, Note_on_c, 5, 65, 0
11, 165104, Note_on_c, 5, 53, 0
11, 165120, Note_on_c, 5, 58, 84
11, 165120, Note_on_c, 5, 70, 84
11, 166064, Note_on_c, 5, 58, 0
11, 166064, Note_on_c, 5, 70, 0
11, 166080, Note_on_c, 5, 58, 84
11, 166080, Note_on_c, 5, 70, 84
11, 166304, Note_on_c, 5, 58, 0
11, 166304, Note_on_c, 5, 70, 0
11, 166320, Note_on_c, 5, 70, 92
11, 166320, Note_on_c, 5, 58, 92
11, 166559, Note_on_c, 5, 70, 0
11, 166559, Note_on_c, 5, 58, 0
11, 166800, Note_on_c, 5, 58, 92
11, 166800, Note_on_c, 5, 70, 92
11, 167039, Note_on_c, 5, 58, 0
11, 167039, Note_on_c, 5, 70, 0
11, 167280, Note_on_c, 5, 58, 92
11, 167280, Note_on_c, 5, 70, 92
11, 167519, Note_on_c, 5, 58, 0
11, 167519, Note_on_c, 5, 70, 0
11, 167760, Note_on_c, 5, 58, 92
11, 167760, Note_on_c, 5, 70, 92
11, 167999, Note_on_c, 5, 58, 0
11, 167999, Note_on_c, 5, 70, 0
11, 169920, Note_on_c, 5, 58, 84
11, 169920, Note_on_c, 5, 70, 84
11, 170144, Note_on_c, 5, 58, 0
11, 170144, Note_on_c, 5, 70, 0
11, 170160, Note_on_c, 5, 58, 92
11, 170160, Note_on_c, 5, 70, 92
11, 170399, Note_on_c, 5, 58, 0
11, 170399, Note_on_c, 5, 70, 0
11, 170640, Note_on_c, 5, 58, 92
11, 170640, Note_on_c, 5, 70, 92
11, 170879, Note_on_c, 5, 58, 0
11, 170879, Note_on_c, 5, 70, 0
11, 171120, Note_on_c, 5, 70, 92
11, 171120, Note_on_c, 5, 58, 92
11, 171359, Note_on_c, 5, 70, 0
11, 171359, Note_on_c, 5, 58, 0
11, 171600, Note_on_c, 5, 70, 92
11, 171600, Note_on_c, 5, 58, 92
11, 171839, Note_on_c, 5, 70, 0
11, 171839, Note_on_c, 5, 58, 0
11, 175680, Note_on_c, 5, 70, 84
11, 175680, Note_on_c, 5, 58, 84
11, 175799, Note_on_c, 5, 70, 0
11, 175799, Note_on_c, 5, 58, 0
11, 175920, Note_on_c, 5, 58, 84
11, 175920, Note_on_c, 5, 70, 84
11, 176039, Note_on_c, 5, 58, 0
11, 176039, Note_on_c, 5, 70, 0
11, 176160, Note_on_c, 5, 58, 84
11, 176160, Note_on_c, 5, 70, 84
11, 176279, Note_on_c, 5, 58, 0
11, 176279, Note_on_c, 5, 70, 0
11, 176400, Note_on_c, 5, 65, 84
11, 176400, Note_on_c, 5, 53, 84
11, 176519, Note_on_c, 5, 65, 0
11, 176519, Note_on_c, 5, 53, 0
11, 176640, Note_on_c, 5, 70, 84
11, 176640, Note_on_c, 5, 58, 84
11, 176759, Note_on_c, 5, 70, 0
11, 176759, Note_on_c, 5, 58, 0
11, 177600, Note_on_c, 5, 70, 84
11, 177600, Note_on_c, 5, 58, 84
11, 177719, Note_on_c, 5, 70, 0
11, 177719, Note_on_c, 5, 58, 0
11, 178560, Note_on_c, 5, 58, 84
11, 178560, Note_on_c, 5, 70, 84
11, 178679, Note_on_c, 5, 58, 0
11, 178679, Note_on_c, 5, 70, 0
11, 179520, Note_on_c, 5, 58, 84
11, 179520, Note_on_c, 5, 70, 84
11, 179639, Note_on_c, 5, 58, 0
11, 179639, Note_on_c, 5, 70, 0
11, 180480, Note_on_c, 5, 58, 84
11, 180480, Note_on_c, 5, 70, 84
11, 180584, Note_on_c, 5, 58, 0
11, 180584, Note_on_c, 5, 70, 0
11, 180600, Note_on_c, 5, 70, 84
11, 180600, Note_on_c, 5, 58, 84
11, 180719, Note_on_c, 5, 70, 0
11, 180719, Note_on_c, 5, 58, 0
11, 180840, Note_on_c, 5, 70, 84
11, 180840, Note_on_c, 5, 58, 84
11, 180944, Note_on_c, 5, 70, 0
11, 180944, Note_on_c, 5, 58, 0
11, 180960, Note_on_c, 5, 58, 84
11, 180960, Note_on_c, 5, 70, 84
11, 181064, Note_on_c, 5, 58, 0
11, 181064, Note_on_c, 5, 70, 0
11, 181080, Note_on_c, 5, 70, 84
11, 181080, Note_on_c, 5, 58, 84
11, 181199, Note_on_c, 5, 70, 0
11, 181199, Note_on_c, 5, 58, 0
11, 181320, Note_on_c, 5, 70, 84
11, 181320, Note_on_c, 5, 58, 84
11, 181424, Note_on_c, 5, 70, 0
11, 181424, Note_on_c, 5, 58, 0
11, 181440, Note_on_c, 5, 70, 84
11, 181440, Note_on_c, 5, 58, 84
11, 181544, Note_on_c, 5, 70, 0
11, 181544, Note_on_c, 5, 58, 0
11, 181560, Note_on_c, 5, 58, 84
11, 181560, Note_on_c, 5, 70, 84
11, 181679, Note_on_c, 5, 58, 0
11, 181679, Note_on_c, 5, 70, 0
11, 181800, Note_on_c, 5, 58, 84
11, 181800, Note_on_c, 5, 70, 84
11, 181904, Note_on_c, 5, 58, 0
11, 181904, Note_on_c, 5, 70, 0
11, 181920, Note_on_c, 5, 58, 84
11, 181920, Note_on_c, 5, 70, 84
11, 182024, Note_on_c, 5, 58, 0
11, 182024, Note_on_c, 5, 70, 0
11, 182040, Note_on_c, 5, 70, 84
11, 182040, Note_on_c, 5, 58, 84
11, 182144, Note_on_c, 5, 70, 0
11, 182144, Note_on_c, 5, 58, 0
11, 182160, Note_on_c, 5, 58, 84
11, 182160, Note_on_c, 5, 70, 84
11, 182264, Note_on_c, 5, 58, 0
11, 182264, Note_on_c, 5, 70, 0
11, 182280, Note_on_c, 5, 70, 84
11, 182280, Note_on_c, 5, 58, 84
11, 182384, Note_on_c, 5, 70, 0
11, 182384, Note_on_c, 5, 58, 0
11, 182400, Note_on_c, 5, 58, 52
11, 182400, Note_on_c, 5, 70, 52
11, 182519, Note_on_c, 5, 58, 0
11, 182519, Note_on_c, 5, 70, 0
11, 188400, Note_on_c, 5, 72, 76
11, 188400, Note_on_c, 5, 65, 76
11, 188639, Note_on_c, 5, 72, 0
11, 188639, Note_on_c, 5, 65, 0
11, 188880, Note_on_c, 5, 72, 84
11, 188880, Note_on_c, 5, 65, 84
11, 189119, Note_on_c, 5, 72, 0
11, 189119, Note_on_c, 5, 65, 0
11, 189360, Note_on_c, 5, 72, 84
11, 189360, Note_on_c, 5, 65, 84
11, 189599, Note_on_c, 5, 72, 0
11, 189599, Note_on_c, 5, 65, 0
11, 189840, Note_on_c, 5, 72, 84
11, 189840, Note_on_c, 5, 65, 84
11, 190079, Note_on_c, 5, 72, 0
11, 190079, Note_on_c, 5, 65, 0
11, 193200, Note_on_c, 5, 65, 44
11, 193200, Note_on_c, 5, 53, 44
11, 193319, Note_on_c, 5, 65, 0
11, 193319, Note_on_c, 5, 53, 0
11, 193440, Note_on_c, 5, 65, 44
11, 193440, Note_on_c, 5, 53, 44
11, 193559, Note_on_c, 5, 65, 0
11, 193559, Note_on_c, 5, 53, 0
11, 193680, Note_on_c, 5, 65, 44
11, 193680, Note_on_c, 5, 53, 44
11, 193799, Note_on_c, 5, 65, 0
11, 193799, Note_on_c, 5, 53, 0
11, 193920, Note_on_c, 5, 70, 84
11, 193920, Note_on_c, 5, 58, 84
11, 194384, Note_on_c, 5, 70, 0
11, 194384, Note_on_c, 5, 58, 0
11, 194400, Note_on_c, 5, 70, 84
11, 194400, Note_on_c, 5, 58, 84
11, 194999, Note_on_c, 5, 70, 0
11, 194999, Note_on_c, 5, 58, 0
11, 195120, Note_on_c, 5, 65, 84
11, 195120, Note_on_c, 5, 53, 84
11, 195239, Note_on_c, 5, 65, 0
11, 195239, Note_on_c, 5, 53, 0
11, 195360, Note_on_c, 5, 70, 84
11, 195360, Note_on_c, 5, 58, 84
11, 195479, Note_on_c, 5, 70, 0
11, 195479, Note_on_c, 5, 58, 0
11, 195600, Note_on_c, 5, 65, 84
11, 195600, Note_on_c, 5, 53, 84
11, 195719, Note_on_c, 5, 65, 0
11, 195719, Note_on_c, 5, 53, 0
11, 196080, Note_on_c, 5, 65, 84
11, 196080, Note_on_c, 5, 53, 84
11, 196199, Note_on_c, 5, 65, 0
11, 196199, Note_on_c, 5, 53, 0
11, 196320, Note_on_c, 5, 70, 84
11, 196320, Note_on_c, 5, 58, 84
11, 196439, Note_on_c, 5, 70, 0
11, 196439, Note_on_c, 5, 58, 0
11, 196560, Note_on_c, 5, 65, 84
11, 196560, Note_on_c, 5, 53, 84
11, 196679, Note_on_c, 5, 65, 0
11, 196679, Note_on_c, 5, 53, 0
11, 197040, Note_on_c, 5, 65, 84
11, 197040, Note_on_c, 5, 53, 84
11, 197159, Note_on_c, 5, 65, 0
11, 197159, Note_on_c, 5, 53, 0
11, 197280, Note_on_c, 5, 70, 84
11, 197280, Note_on_c, 5, 58, 84
11, 197399, Note_on_c, 5, 70, 0
11, 197399, Note_on_c, 5, 58, 0
11, 197520, Note_on_c, 5, 65, 84
11, 197520, Note_on_c, 5, 53, 84
11, 197639, Note_on_c, 5, 65, 0
11, 197639, Note_on_c, 5, 53, 0
11, 198000, Note_on_c, 5, 65, 84
11, 198000, Note_on_c, 5, 53, 84
11, 198119, Note_on_c, 5, 65, 0
11, 198119, Note_on_c, 5, 53, 0
11, 198240, Note_on_c, 5, 70, 84
11, 198240, Note_on_c, 5, 58, 84
11, 198359, Note_on_c, 5, 70, 0
11, 198359, Note_on_c, 5, 58, 0
11, 198480, Note_on_c, 5, 70, 84
11, 198480, Note_on_c, 5, 58, 84
11, 200639, Note_on_c, 5, 70, 0
11, 200639, Note_on_c, 5, 58, 0
11, 201600, Note_on_c, 5, 65, 52
11, 201600, Note_on_c, 5, 53, 52
11, 202079, Note_on_c, 5, 65, 0
11, 202079, Note_on_c, 5, 53, 0
11, 211680, Note_on_c, 5, 70, 84
11, 211680, Note_on_c, 5, 58, 84
11, 212624, Note_on_c, 5, 70, 0
11, 212624, Note_on_c, 5, 58, 0
11, 212640, Note_on_c, 5, 70, 84
11, 212640, Note_on_c, 5, 58, 84
11, 212759, Note_on_c, 5, 70, 0
11, 212759, Note_on_c, 5, 58, 0
11, 212880, Note_on_c, 5, 70, 84
11, 212880, Note_on_c, 5, 58, 84
11, 212999, Note_on_c, 5, 70, 0
11, 212999, Note_on_c, 5, 58, 0
11, 213600, Note_on_c, 5, 77, 84
11, 213600, Note_on_c, 5, 65, 84
11, 213719, Note_on_c, 5, 77, 0
11, 213719, Note_on_c, 5, 65, 0
11, 213840, Note_on_c, 5, 77, 84
11, 213840, Note_on_c, 5, 65, 84
11, 213959, Note_on_c, 5, 77, 0
11, 213959, Note_on_c, 5, 65, 0
11, 217680, Note_on_c, 5, 65, 84
11, 217680, Note_on_c, 5, 53, 84
11, 217799, Note_on_c, 5, 65, 0
11, 217799, Note_on_c, 5, 53, 0
11, 217920, Note_on_c, 5, 70, 84
11, 217920, Note_on_c, 5, 58, 84
11, 218039, Note_on_c, 5, 70, 0
11, 218039, Note_on_c, 5, 58, 0
11, 218160, Note_on_c, 5, 65, 84
11, 218160, Note_on_c, 5, 53, 84
11, 218279, Note_on_c, 5, 65, 0
11, 218279, Note_on_c, 5, 53, 0
11, 218400, Note_on_c, 5, 70, 84
11, 218400, Note_on_c, 5, 58, 84
11, 218519, Note_on_c, 5, 70, 0
11, 218519, Note_on_c, 5, 58, 0
11, 218880, Note_on_c, 5, 72, 84
11, 218880, Note_on_c, 5, 65, 84
11, 218999, Note_on_c, 5, 72, 0
11, 218999, Note_on_c, 5, 65, 0
11, 219360, Note_on_c, 5, 70, 84
11, 219360, Note_on_c, 5, 62, 84
11, 219479, Note_on_c, 5, 70, 0
11, 219479, Note_on_c, 5, 62, 0
11, 219479, End_track
12, 0, Start_track
12, 0, Title_t, "Timpani"
12, 0, MIDI_port, 0
12, 0, Program_c, 6, 47
12, 0, Control_c, 6, 7, 96
12, 0, Control_c, 6, 10, 25
12, 0, Control_c, 6, 11, 127
12, 1200, Note_on_c, 6, 41, 76
12, 1319, Note_on_c, 6, 41, 0
12, 1440, Note_on_c, 6, 46, 76
12, 1559, Note_on_c, 6, 46, 0
12, 1680, Note_on_c, 6, 41, 76
12, 1799, Note_on_c, 6, 41, 0
12, 9120, Note_on_c, 6, 41, 52
12, 9239, Note_on_c, 6, 41, 0
12, 9360, Note_on_c, 6, 41, 68
12, 9479, Note_on_c, 6, 41, 0
12, 9600, Note_on_c, 6, 46, 84
12, 9659, Note_on_c, 6, 46, 0
12, 9660, Note_on_c, 6, 46, 84
12, 9719, Note_on_c, 6, 46, 0
12, 9720, Note_on_c, 6, 46, 84
12, 9779, Note_on_c, 6, 46, 0
12, 9780, Note_on_c, 6, 46, 84
12, 9839, Note_on_c, 6, 46, 0
12, 9840, Note_on_c, 6, 46, 84
12, 9899, Note_on_c, 6, 46, 0
12, 9900, Note_on_c, 6, 46, 84
12, 9959, Note_on_c, 6, 46, 0
12, 9960, Note_on_c, 6, 46, 84
12, 10019, Note_on_c, 6, 46, 0
12, 10020, Note_on_c, 6, 46, 84
12, 10079, Note_on_c, 6, 46, 0
12, 10080, Note_on_c, 6, 46, 84
12, 10139, Note_on_c, 6, 46, 0
12, 10140, Note_on_c, 6, 46, 84
12, 10199, Note_on_c, 6, 46, 0
12, 10200, Note_on_c, 6, 46, 84
12, 10259, Note_on_c, 6, 46, 0
12, 10260, Note_on_c, 6, 46, 84
12, 10319, Note_on_c, 6, 46, 0
12, 10320, Note_on_c, 6, 46, 84
12, 10379, Note_on_c, 6, 46, 0
12, 10380, Note_on_c, 6, 46, 84
12, 10439, Note_on_c, 6, 46, 0
12, 10440, Note_on_c, 6, 46, 84
12, 10499, Note_on_c, 6, 46, 0
12, 10500, Note_on_c, 6, 46, 84
12, 10559, Note_on_c, 6, 46, 0
12, 10560, Note_on_c, 6, 46, 84
12, 10619, Note_on_c, 6, 46, 0
12, 10620, Note_on_c, 6, 46, 84
12, 10679, Note_on_c, 6, 46, 0
12, 10680, Note_on_c, 6, 46, 84
12, 10739, Note_on_c, 6, 46, 0
12, 10740, Note_on_c, 6, 46, 84
12, 10799, Note_on_c, 6, 46, 0
12, 10800, Note_on_c, 6, 46, 84
12, 10859, Note_on_c, 6, 46, 0
12, 10860, Note_on_c, 6, 46, 84
12, 10919, Note_on_c, 6, 46, 0
12, 10920, Note_on_c, 6, 46, 84
12, 10979, Note_on_c, 6, 46, 0
12, 10980, Note_on_c, 6, 46, 84
12, 11039, Note_on_c, 6, 46, 0
12, 11040, Note_on_c, 6, 46, 84
12, 11099, Note_on_c, 6, 46, 0
12, 11100, Note_on_c, 6, 46, 84
12, 11159, Note_on_c, 6, 46, 0
12, 11160, Note_on_c, 6, 46, 84
12, 11219, Note_on_c, 6, 46, 0
12, 11220, Note_on_c, 6, 46, 84
12, 11279, Note_on_c, 6, 46, 0
12, 11280, Note_on_c, 6, 46, 84
12, 11399, Note_on_c, 6, 46, 0
12, 11400, Note_on_c, 6, 41, 84
12, 11519, Note_on_c, 6, 41, 0
12, 11520, Note_on_c, 6, 46, 84
12, 11759, Note_on_c, 6, 46, 0
12, 12000, Note_on_c, 6, 46, 84
12, 12239, Note_on_c, 6, 46, 0
12, 12480, Note_on_c, 6, 46, 84
12, 12719, Note_on_c, 6, 46, 0
12, 12960, Note_on_c, 6, 46, 84
12, 13199, Note_on_c, 6, 46, 0
12, 13440, Note_on_c, 6, 46, 84
12, 13679, Note_on_c, 6, 46, 0
12, 13920, Note_on_c, 6, 46, 84
12, 14159, Note_on_c, 6, 46, 0
12, 14400, Note_on_c, 6, 41, 84
12, 14519, Note_on_c, 6, 41, 0
12, 14520, Note_on_c, 6, 41, 84
12, 14639, Note_on_c, 6, 41, 0
12, 14640, Note_on_c, 6, 41, 84
12, 14759, Note_on_c, 6, 41, 0
12, 14760, Note_on_c, 6, 41, 84
12, 14879, Note_on_c, 6, 41, 0
12, 14880, Note_on_c, 6, 41, 84
12, 14999, Note_on_c, 6, 41, 0
12, 15000, Note_on_c, 6, 41, 84
12, 15119, Note_on_c, 6, 41, 0
12, 15120, Note_on_c, 6, 41, 84
12, 15239, Note_on_c, 6, 41, 0
12, 15240, Note_on_c, 6, 41, 84
12, 15359, Note_on_c, 6, 41, 0
12, 30240, Note_on_c, 6, 41, 84
12, 30279, Note_on_c, 6, 41, 0
12, 30280, Note_on_c, 6, 41, 84
12, 30319, Note_on_c, 6, 41, 0
12, 30320, Note_on_c, 6, 41, 84
12, 30359, Note_on_c, 6, 41, 0
12, 30360, Note_on_c, 6, 41, 84
12, 30399, Note_on_c, 6, 41, 0
12, 30400, Note_on_c, 6, 41, 84
12, 30439, Note_on_c, 6, 41, 0
12, 30440, Note_on_c, 6, 41, 84
12, 30479, Note_on_c, 6, 41, 0
12, 30480, Note_on_c, 6, 41, 84
12, 30519, Note_on_c, 6, 41, 0
12, 30520, Note_on_c, 6, 41, 84
12, 30559, Note_on_c, 6, 41, 0
12, 30560, Note_on_c, 6, 41, 84
12, 30599, Note_on_c, 6, 41, 0
12, 30600, Note_on_c, 6, 41, 84
12, 30639, Note_on_c, 6, 41, 0
12, 30640, Note_on_c, 6, 41, 84
12, 30679, Note_on_c, 6, 41, 0
12, 30680, Note_on_c, 6, 41, 84
12, 30719, Note_on_c, 6, 41, 0
12, 30720, Note_on_c, 6, 41, 84
12, 30759, Note_on_c, 6, 41, 0
12, 30760, Note_on_c, 6, 41, 84
12, 30799, Note_on_c, 6, 41, 0
12, 30800, Note_on_c, 6, 41, 84
12, 30839, Note_on_c, 6, 41, 0
12, 30840, Note_on_c, 6, 41, 84
12, 30879, Note_on_c, 6, 41, 0
12, 30880, Note_on_c, 6, 41, 84
12, 30919, Note_on_c, 6, 41, 0
12, 30920, Note_on_c, 6, 41, 84
12, 30959, Note_on_c, 6, 41, 0
12, 30960, Note_on_c, 6, 41, 84
12, 30999, Note_on_c, 6, 41, 0
12, 31000, Note_on_c, 6, 41, 84
12, 31039, Note_on_c, 6, 41, 0
12, 31040, Note_on_c, 6, 41, 84
12, 31079, Note_on_c, 6, 41, 0
12, 31080, Note_on_c, 6, 41, 84
12, 31119, Note_on_c, 6, 41, 0
12, 31120, Note_on_c, 6, 41, 84
12, 31159, Note_on_c, 6, 41, 0
12, 31160, Note_on_c, 6, 41, 84
12, 31199, Note_on_c, 6, 41, 0
12, 31200, Note_on_c, 6, 41, 84
12, 31439, Note_on_c, 6, 41, 0
12, 31440, Note_on_c, 6, 41, 92
12, 31679, Note_on_c, 6, 41, 0
12, 31920, Note_on_c, 6, 41, 92
12, 32159, Note_on_c, 6, 41, 0
12, 32400, Note_on_c, 6, 41, 92
12, 32639, Note_on_c, 6, 41, 0
12, 32880, Note_on_c, 6, 41, 92
12, 33119, Note_on_c, 6, 41, 0
12, 35040, Note_on_c, 6, 41, 84
12, 35279, Note_on_c, 6, 41, 0
12, 35280, Note_on_c, 6, 41, 92
12, 35519, Note_on_c, 6, 41, 0
12, 35760, Note_on_c, 6, 41, 92
12, 35999, Note_on_c, 6, 41, 0
12, 36240, Note_on_c, 6, 41, 92
12, 36479, Note_on_c, 6, 41, 0
12, 36720, Note_on_c, 6, 41, 92
12, 36959, Note_on_c, 6, 41, 0
12, 40800, Note_on_c, 6, 41, 84
12, 40859, Note_on_c, 6, 41, 0
12, 40860, Note_on_c, 6, 41, 84
12, 40919, Note_on_c, 6, 41, 0
12, 40920, Note_on_c, 6, 41, 84
12, 40979, Note_on_c, 6, 41, 0
12, 40980, Note_on_c, 6, 41, 84
12, 41039, Note_on_c, 6, 41, 0
12, 41040, Note_on_c, 6, 41, 84
12, 41099, Note_on_c, 6, 41, 0
12, 41100, Note_on_c, 6, 41, 84
12, 41159, Note_on_c, 6, 41, 0
12, 41160, Note_on_c, 6, 41, 84
12, 41219, Note_on_c, 6, 41, 0
12, 41220, Note_on_c, 6, 41, 84
12, 41279, Note_on_c, 6, 41, 0
12, 41280, Note_on_c, 6, 41, 84
12, 41339, Note_on_c, 6, 41, 0
12, 41340, Note_on_c, 6, 41, 84
12, 41399, Note_on_c, 6, 41, 0
12, 41400, Note_on_c, 6, 41, 84
12, 41459, Note_on_c, 6, 41, 0
12, 41460, Note_on_c, 6, 41, 84
12, 41519, Note_on_c, 6, 41, 0
12, 41760, Note_on_c, 6, 41, 84
12, 41879, Note_on_c, 6, 41, 0
12, 42720, Note_on_c, 6, 41, 84
12, 42839, Note_on_c, 6, 41, 0
12, 43680, Note_on_c, 6, 41, 84
12, 43799, Note_on_c, 6, 41, 0
12, 44640, Note_on_c, 6, 41, 84
12, 44759, Note_on_c, 6, 41, 0
12, 45600, Note_on_c, 6, 41, 84
12, 45719, Note_on_c, 6, 41, 0
12, 45720, Note_on_c, 6, 41, 84
12, 45839, Note_on_c, 6, 41, 0
12, 45960, Note_on_c, 6, 41, 84
12, 46079, Note_on_c, 6, 41, 0
12, 46080, Note_on_c, 6, 41, 84
12, 46199, Note_on_c, 6, 41, 0
12, 46200, Note_on_c, 6, 41, 84
12, 46319, Note_on_c, 6, 41, 0
12, 46440, Note_on_c, 6, 41, 84
12, 46559, Note_on_c, 6, 41, 0
12, 46560, Note_on_c, 6, 41, 84
12, 46679, Note_on_c, 6, 41, 0
12, 46680, Note_on_c, 6, 41, 84
12, 46799, Note_on_c, 6, 41, 0
12, 46920, Note_on_c, 6, 41, 84
12, 47039, Note_on_c, 6, 41, 0
12, 47040, Note_on_c, 6, 41, 84
12, 47159, Note_on_c, 6, 41, 0
12, 47160, Note_on_c, 6, 41, 84
12, 47279, Note_on_c, 6, 41, 0
12, 47280, Note_on_c, 6, 41, 84
12, 47399, Note_on_c, 6, 41, 0
12, 47400, Note_on_c, 6, 41, 84
12, 47519, Note_on_c, 6, 41, 0
12, 47520, Note_on_c, 6, 41, 52
12, 47639, Note_on_c, 6, 41, 0
12, 50640, Note_on_c, 6, 41, 76
12, 50759, Note_on_c, 6, 41, 0
12, 50880, Note_on_c, 6, 46, 76
12, 50999, Note_on_c, 6, 46, 0
12, 51120, Note_on_c, 6, 41, 76
12, 51239, Note_on_c, 6, 41, 0
12, 58560, Note_on_c, 6, 41, 52
12, 58679, Note_on_c, 6, 41, 0
12, 58800, Note_on_c, 6, 41, 68
12, 58919, Note_on_c, 6, 41, 0
12, 59040, Note_on_c, 6, 46, 84
12, 59099, Note_on_c, 6, 46, 0
12, 59100, Note_on_c, 6, 46, 84
12, 59159, Note_on_c, 6, 46, 0
12, 59160, Note_on_c, 6, 46, 84
12, 59219, Note_on_c, 6, 46, 0
12, 59220, Note_on_c, 6, 46, 84
12, 59279, Note_on_c, 6, 46, 0
12, 59280, Note_on_c, 6, 46, 84
12, 59339, Note_on_c, 6, 46, 0
12, 59340, Note_on_c, 6, 46, 84
12, 59399, Note_on_c, 6, 46, 0
12, 59400, Note_on_c, 6, 46, 84
12, 59459, Note_on_c, 6, 46, 0
12, 59460, Note_on_c, 6, 46, 84
12, 59519, Note_on_c, 6, 46, 0
12, 59520, Note_on_c, 6, 46, 84
12, 59579, Note_on_c, 6, 46, 0
12, 59580, Note_on_c, 6, 46, 84
12, 59639, Note_on_c, 6, 46, 0
12, 59640, Note_on_c, 6, 46, 84
12, 59699, Note_on_c, 6, 46, 0
12, 59700, Note_on_c, 6, 46, 84
12, 59759, Note_on_c, 6, 46, 0
12, 59760, Note_on_c, 6, 46, 84
12, 59819, Note_on_c, 6, 46, 0
12, 59820, Note_on_c, 6, 46, 84
12, 59879, Note_on_c, 6, 46, 0
12, 59880, Note_on_c, 6, 46, 84
12, 59939, Note_on_c, 6, 46, 0
12, 59940, Note_on_c, 6, 46, 84
12, 59999, Note_on_c, 6, 46, 0
12, 60000, Note_on_c, 6, 46, 84
12, 60059, Note_on_c, 6, 46, 0
12, 60060, Note_on_c, 6, 46, 84
12, 60119, Note_on_c, 6, 46, 0
12, 60120, Note_on_c, 6, 46, 84
12, 60179, Note_on_c, 6, 46, 0
12, 60180, Note_on_c, 6, 46, 84
12, 60239, Note_on_c, 6, 46, 0
12, 60240, Note_on_c, 6, 46, 84
12, 60299, Note_on_c, 6, 46, 0
12, 60300, Note_on_c, 6, 46, 84
12, 60359, Note_on_c, 6, 46, 0
12, 60360, Note_on_c, 6, 46, 84
12, 60419, Note_on_c, 6, 46, 0
12, 60420, Note_on_c, 6, 46, 84
12, 60479, Note_on_c, 6, 46, 0
12, 60480, Note_on_c, 6, 46, 84
12, 60539, Note_on_c, 6, 46, 0
12, 60540, Note_on_c, 6, 46, 84
12, 60599, Note_on_c, 6, 46, 0
12, 60600, Note_on_c, 6, 46, 84
12, 60659, Note_on_c, 6, 46, 0
12, 60660, Note_on_c, 6, 46, 84
12, 60719, Note_on_c, 6, 46, 0
12, 60720, Note_on_c, 6, 46, 84
12, 60839, Note_on_c, 6, 46, 0
12, 60840, Note_on_c, 6, 41, 84
12, 60959, Note_on_c, 6, 41, 0
12, 60960, Note_on_c, 6, 46, 84
12, 61199, Note_on_c, 6, 46, 0
12, 61440, Note_on_c, 6, 46, 84
12, 61679, Note_on_c, 6, 46, 0
12, 61920, Note_on_c, 6, 46, 84
12, 62159, Note_on_c, 6, 46, 0
12, 62400, Note_on_c, 6, 46, 84
12, 62639, Note_on_c, 6, 46, 0
12, 62880, Note_on_c, 6, 46, 84
12, 63119, Note_on_c, 6, 46, 0
12, 63360, Note_on_c, 6, 46, 84
12, 63599, Note_on_c, 6, 46, 0
12, 63840, Note_on_c, 6, 41, 84
12, 63959, Note_on_c, 6, 41, 0
12, 63960, Note_on_c, 6, 41, 84
12, 64079, Note_on_c, 6, 41, 0
12, 64080, Note_on_c, 6, 41, 84
12, 64199, Note_on_c, 6, 41, 0
12, 64200, Note_on_c, 6, 41, 84
12, 64319, Note_on_c, 6, 41, 0
12, 64320, Note_on_c, 6, 41, 84
12, 64439, Note_on_c, 6, 41, 0
12, 64440, Note_on_c, 6, 41, 84
12, 64559, Note_on_c, 6, 41, 0
12, 64560, Note_on_c, 6, 41, 84
12, 64679, Note_on_c, 6, 41, 0
12, 64680, Note_on_c, 6, 41, 84
12, 64799, Note_on_c, 6, 41, 0
12, 79680, Note_on_c, 6, 41, 84
12, 79719, Note_on_c, 6, 41, 0
12, 79720, Note_on_c, 6, 41, 84
12, 79759, Note_on_c, 6, 41, 0
12, 79760, Note_on_c, 6, 41, 84
12, 79799, Note_on_c, 6, 41, 0
12, 79800, Note_on_c, 6, 41, 84
12, 79839, Note_on_c, 6, 41, 0
12, 79840, Note_on_c, 6, 41, 84
12, 79879, Note_on_c, 6, 41, 0
12, 79880, Note_on_c, 6, 41, 84
12, 79919, Note_on_c, 6, 41, 0
12, 79920, Note_on_c, 6, 41, 84
12, 79959, Note_on_c, 6, 41, 0
12, 79960, Note_on_c, 6, 41, 84
12, 79999, Note_on_c, 6, 41, 0
12, 80000, Note_on_c, 6, 41, 84
12, 80039, Note_on_c, 6, 41, 0
12, 80040, Note_on_c, 6, 41, 84
12, 80079, Note_on_c, 6, 41, 0
12, 80080, Note_on_c, 6, 41, 84
12, 80119, Note_on_c, 6, 41, 0
12, 80120, Note_on_c, 6, 41, 84
12, 80159, Note_on_c, 6, 41, 0
12, 80160, Note_on_c, 6, 41, 84
12, 80199, Note_on_c, 6, 41, 0
12, 80200, Note_on_c, 6, 41, 84
12, 80239, Note_on_c, 6, 41, 0
12, 80240, Note_on_c, 6, 41, 84
12, 80279, Note_on_c, 6, 41, 0
12, 80280, Note_on_c, 6, 41, 84
12, 80319, Note_on_c, 6, 41, 0
12, 80320, Note_on_c, 6, 41, 84
12, 80359, Note_on_c, 6, 41, 0
12, 80360, Note_on_c, 6, 41, 84
12, 80399, Note_on_c, 6, 41, 0
12, 80400, Note_on_c, 6, 41, 84
12, 80439, Note_on_c, 6, 41, 0
12, 80440, Note_on_c, 6, 41, 84
12, 80479, Note_on_c, 6, 41, 0
12, 80480, Note_on_c, 6, 41, 84
12, 80519, Note_on_c, 6, 41, 0
12, 80520, Note_on_c, 6, 41, 84
12, 80559, Note_on_c, 6, 41, 0
12, 80560, Note_on_c, 6, 41, 84
12, 80599, Note_on_c, 6, 41, 0
12, 80600, Note_on_c, 6, 41, 84
12, 80639, Note_on_c, 6, 41, 0
12, 80640, Note_on_c, 6, 41, 84
12, 80879, Note_on_c, 6, 41, 0
12, 80880, Note_on_c, 6, 41, 92
12, 81119, Note_on_c, 6, 41, 0
12, 81360, Note_on_c, 6, 41, 92
12, 81599, Note_on_c, 6, 41, 0
12, 81840, Note_on_c, 6, 41, 92
12, 82079, Note_on_c, 6, 41, 0
12, 82320, Note_on_c, 6, 41, 92
12, 82559, Note_on_c, 6, 41, 0
12, 84480, Note_on_c, 6, 41, 84
12, 84719, Note_on_c, 6, 41, 0
12, 84720, Note_on_c, 6, 41, 92
12, 84959, Note_on_c, 6, 41, 0
12, 85200, Note_on_c, 6, 41, 92
12, 85439, Note_on_c, 6, 41, 0
12, 85680, Note_on_c, 6, 41, 92
12, 85919, Note_on_c, 6, 41, 0
12, 86160, Note_on_c, 6, 41, 92
12, 86399, Note_on_c, 6, 41, 0
12, 90240, Note_on_c, 6, 41, 84
12, 90299, Note_on_c, 6, 41, 0
12, 90300, Note_on_c, 6, 41, 84
12, 90359, Note_on_c, 6, 41, 0
12, 90360, Note_on_c, 6, 41, 84
12, 90419, Note_on_c, 6, 41, 0
12, 90420, Note_on_c, 6, 41, 84
12, 90479, Note_on_c, 6, 41, 0
12, 90480, Note_on_c, 6, 41, 84
12, 90539, Note_on_c, 6, 41, 0
12, 90540, Note_on_c, 6, 41, 84
12, 90599, Note_on_c, 6, 41, 0
12, 90600, Note_on_c, 6, 41, 84
12, 90659, Note_on_c, 6, 41, 0
12, 90660, Note_on_c, 6, 41, 84
12, 90719, Note_on_c, 6, 41, 0
12, 90720, Note_on_c, 6, 41, 84
12, 90779, Note_on_c, 6, 41, 0
12, 90780, Note_on_c, 6, 41, 84
12, 90839, Note_on_c, 6, 41, 0
12, 90840, Note_on_c, 6, 41, 84
12, 90899, Note_on_c, 6, 41, 0
12, 90900, Note_on_c, 6, 41, 84
12, 90959, Note_on_c, 6, 41, 0
12, 91200, Note_on_c, 6, 41, 84
12, 91319, Note_on_c, 6, 41, 0
12, 92160, Note_on_c, 6, 41, 84
12, 92279, Note_on_c, 6, 41, 0
12, 93120, Note_on_c, 6, 41, 84
12, 93239, Note_on_c, 6, 41, 0
12, 94080, Note_on_c, 6, 41, 84
12, 94199, Note_on_c, 6, 41, 0
12, 95040, Note_on_c, 6, 41, 84
12, 95159, Note_on_c, 6, 41, 0
12, 95160, Note_on_c, 6, 41, 84
12, 95279, Note_on_c, 6, 41, 0
12, 95400, Note_on_c, 6, 41, 84
12, 95519, Note_on_c, 6, 41, 0
12, 95520, Note_on_c, 6, 41, 84
12, 95639, Note_on_c, 6, 41, 0
12, 95640, Note_on_c, 6, 41, 84
12, 95759, Note_on_c, 6, 41, 0
12, 95880, Note_on_c, 6, 41, 84
12, 95999, Note_on_c, 6, 41, 0
12, 96000, Note_on_c, 6, 41, 84
12, 96119, Note_on_c, 6, 41, 0
12, 96120, Note_on_c, 6, 41, 84
12, 96239, Note_on_c, 6, 41, 0
12, 96360, Note_on_c, 6, 41, 84
12, 96479, Note_on_c, 6, 41, 0
12, 96480, Note_on_c, 6, 41, 84
12, 96599, Note_on_c, 6, 41, 0
12, 96600, Note_on_c, 6, 41, 84
12, 96719, Note_on_c, 6, 41, 0
12, 96720, Note_on_c, 6, 41, 84
12, 96839, Note_on_c, 6, 41, 0
12, 96840, Note_on_c, 6, 41, 84
12, 96959, Note_on_c, 6, 41, 0
12, 96960, Note_on_c, 6, 41, 52
12, 97079, Note_on_c, 6, 41, 0
12, 126240, Note_on_c, 6, 41, 84
12, 126359, Note_on_c, 6, 41, 0
12, 126360, Note_on_c, 6, 41, 84
12, 126479, Note_on_c, 6, 41, 0
12, 126600, Note_on_c, 6, 41, 84
12, 126719, Note_on_c, 6, 41, 0
12, 126720, Note_on_c, 6, 41, 84
12, 126839, Note_on_c, 6, 41, 0
12, 126840, Note_on_c, 6, 41, 84
12, 126959, Note_on_c, 6, 41, 0
12, 127080, Note_on_c, 6, 41, 84
12, 127199, Note_on_c, 6, 41, 0
12, 127200, Note_on_c, 6, 41, 84
12, 127319, Note_on_c, 6, 41, 0
12, 127320, Note_on_c, 6, 41, 84
12, 127439, Note_on_c, 6, 41, 0
12, 127560, Note_on_c, 6, 41, 84
12, 127679, Note_on_c, 6, 41, 0
12, 127680, Note_on_c, 6, 41, 84
12, 127799, Note_on_c, 6, 41, 0
12, 127800, Note_on_c, 6, 41, 84
12, 127919, Note_on_c, 6, 41, 0
12, 128040, Note_on_c, 6, 41, 84
12, 128159, Note_on_c, 6, 41, 0
12, 128160, Note_on_c, 6, 41, 84
12, 128279, Note_on_c, 6, 41, 0
12, 128400, Note_on_c, 6, 41, 84
12, 128519, Note_on_c, 6, 41, 0
12, 128640, Note_on_c, 6, 41, 84
12, 128759, Note_on_c, 6, 41, 0
12, 128880, Note_on_c, 6, 41, 84
12, 128999, Note_on_c, 6, 41, 0
12, 129120, Note_on_c, 6, 41, 84
12, 129239, Note_on_c, 6, 41, 0
12, 129360, Note_on_c, 6, 41, 84
12, 129479, Note_on_c, 6, 41, 0
12, 129600, Note_on_c, 6, 41, 84
12, 129719, Note_on_c, 6, 41, 0
12, 129840, Note_on_c, 6, 41, 84
12, 129959, Note_on_c, 6, 41, 0
12, 130080, Note_on_c, 6, 41, 92
12, 130319, Note_on_c, 6, 41, 0
12, 130560, Note_on_c, 6, 41, 92
12, 130799, Note_on_c, 6, 41, 0
12, 131040, Note_on_c, 6, 41, 92
12, 131279, Note_on_c, 6, 41, 0
12, 131520, Note_on_c, 6, 41, 92
12, 131759, Note_on_c, 6, 41, 0
12, 132000, Note_on_c, 6, 41, 84
12, 132119, Note_on_c, 6, 41, 0
12, 132240, Note_on_c, 6, 41, 84
12, 132359, Note_on_c, 6, 41, 0
12, 132480, Note_on_c, 6, 41, 84
12, 132599, Note_on_c, 6, 41, 0
12, 132720, Note_on_c, 6, 41, 84
12, 132839, Note_on_c, 6, 41, 0
12, 132960, Note_on_c, 6, 41, 84
12, 133079, Note_on_c, 6, 41, 0
12, 133200, Note_on_c, 6, 41, 84
12, 133319, Note_on_c, 6, 41, 0
12, 133440, Note_on_c, 6, 41, 84
12, 133559, Note_on_c, 6, 41, 0
12, 133680, Note_on_c, 6, 41, 84
12, 133799, Note_on_c, 6, 41, 0
12, 133920, Note_on_c, 6, 41, 92
12, 134159, Note_on_c, 6, 41, 0
12, 134400, Note_on_c, 6, 41, 92
12, 134639, Note_on_c, 6, 41, 0
12, 134880, Note_on_c, 6, 41, 92
12, 135119, Note_on_c, 6, 41, 0
12, 135360, Note_on_c, 6, 41, 92
12, 135599, Note_on_c, 6, 41, 0
12, 135840, Note_on_c, 6, 41, 84
12, 135959, Note_on_c, 6, 41, 0
12, 139680, Note_on_c, 6, 46, 76
12, 139799, Note_on_c, 6, 46, 0
12, 139920, Note_on_c, 6, 46, 76
12, 140039, Note_on_c, 6, 46, 0
12, 140160, Note_on_c, 6, 46, 76
12, 140279, Note_on_c, 6, 46, 0
12, 140880, Note_on_c, 6, 41, 76
12, 140999, Note_on_c, 6, 41, 0
12, 141120, Note_on_c, 6, 46, 76
12, 141239, Note_on_c, 6, 46, 0
12, 141360, Note_on_c, 6, 41, 76
12, 141479, Note_on_c, 6, 41, 0
12, 141600, Note_on_c, 6, 46, 76
12, 141839, Note_on_c, 6, 46, 0
12, 142080, Note_on_c, 6, 46, 76
12, 142319, Note_on_c, 6, 46, 0
12, 142560, Note_on_c, 6, 46, 76
12, 142799, Note_on_c, 6, 46, 0
12, 143040, Note_on_c, 6, 46, 76
12, 143279, Note_on_c, 6, 46, 0
12, 143520, Note_on_c, 6, 46, 76
12, 143759, Note_on_c, 6, 46, 0
12, 144000, Note_on_c, 6, 46, 76
12, 144239, Note_on_c, 6, 46, 0
12, 144480, Note_on_c, 6, 46, 76
12, 144719, Note_on_c, 6, 46, 0
12, 144960, Note_on_c, 6, 46, 76
12, 145199, Note_on_c, 6, 46, 0
12, 150240, Note_on_c, 6, 41, 84
12, 150279, Note_on_c, 6, 41, 0
12, 150280, Note_on_c, 6, 41, 84
12, 150319, Note_on_c, 6, 41, 0
12, 150320, Note_on_c, 6, 41, 84
12, 150359, Note_on_c, 6, 41, 0
12, 150360, Note_on_c, 6, 41, 84
12, 150399, Note_on_c, 6, 41, 0
12, 150400, Note_on_c, 6, 41, 84
12, 150439, Note_on_c, 6, 41, 0
12, 150440, Note_on_c, 6, 41, 84
12, 150479, Note_on_c, 6, 41, 0
12, 150480, Note_on_c, 6, 41, 84
12, 150519, Note_on_c, 6, 41, 0
12, 150520, Note_on_c, 6, 41, 84
12, 150559, Note_on_c, 6, 41, 0
12, 150560, Note_on_c, 6, 41, 84
12, 150599, Note_on_c, 6, 41, 0
12, 150600, Note_on_c, 6, 41, 84
12, 150639, Note_on_c, 6, 41, 0
12, 150640, Note_on_c, 6, 41, 84
12, 150679, Note_on_c, 6, 41, 0
12, 150680, Note_on_c, 6, 41, 84
12, 150719, Note_on_c, 6, 41, 0
12, 150720, Note_on_c, 6, 41, 84
12, 150839, Note_on_c, 6, 41, 0
12, 151200, Note_on_c, 6, 41, 84
12, 151319, Note_on_c, 6, 41, 0
12, 151440, Note_on_c, 6, 41, 84
12, 151559, Note_on_c, 6, 41, 0
12, 151680, Note_on_c, 6, 41, 84
12, 151799, Note_on_c, 6, 41, 0
12, 160680, Note_on_c, 6, 41, 76
12, 160799, Note_on_c, 6, 41, 0
12, 160800, Note_on_c, 6, 41, 76
12, 160889, Note_on_c, 6, 41, 0
12, 160920, Note_on_c, 6, 41, 76
12, 161009, Note_on_c, 6, 41, 0
12, 161040, Note_on_c, 6, 41, 76
12, 161129, Note_on_c, 6, 41, 0
12, 161160, Note_on_c, 6, 41, 76
12, 161249, Note_on_c, 6, 41, 0
12, 161280, Note_on_c, 6, 41, 76
12, 161519, Note_on_c, 6, 41, 0
12, 162600, Note_on_c, 6, 41, 76
12, 162719, Note_on_c, 6, 41, 0
12, 162720, Note_on_c, 6, 41, 76
12, 162839, Note_on_c, 6, 41, 0
12, 162840, Note_on_c, 6, 41, 76
12, 162959, Note_on_c, 6, 41, 0
12, 162960, Note_on_c, 6, 41, 76
12, 163079, Note_on_c, 6, 41, 0
12, 163080, Note_on_c, 6, 41, 76
12, 163199, Note_on_c, 6, 41, 0
12, 163200, Note_on_c, 6, 41, 76
12, 163289, Note_on_c, 6, 41, 0
12, 163320, Note_on_c, 6, 41, 76
12, 163409, Note_on_c, 6, 41, 0
12, 163560, Note_on_c, 6, 41, 76
12, 163679, Note_on_c, 6, 41, 0
12, 163680, Note_on_c, 6, 41, 76
12, 163799, Note_on_c, 6, 41, 0
12, 163800, Note_on_c, 6, 41, 76
12, 163919, Note_on_c, 6, 41, 0
12, 163920, Note_on_c, 6, 41, 76
12, 164039, Note_on_c, 6, 41, 0
12, 164040, Note_on_c, 6, 41, 76
12, 164159, Note_on_c, 6, 41, 0
12, 164160, Note_on_c, 6, 41, 76
12, 164279, Note_on_c, 6, 41, 0
12, 164280, Note_on_c, 6, 41, 76
12, 164399, Note_on_c, 6, 41, 0
12, 164520, Note_on_c, 6, 41, 76
12, 164639, Note_on_c, 6, 41, 0
12, 164640, Note_on_c, 6, 41, 76
12, 164759, Note_on_c, 6, 41, 0
12, 164760, Note_on_c, 6, 41, 76
12, 164879, Note_on_c, 6, 41, 0
12, 164880, Note_on_c, 6, 41, 76
12, 164999, Note_on_c, 6, 41, 0
12, 165000, Note_on_c, 6, 41, 76
12, 165119, Note_on_c, 6, 41, 0
12, 165120, Note_on_c, 6, 46, 84
12, 165159, Note_on_c, 6, 46, 0
12, 165160, Note_on_c, 6, 46, 84
12, 165199, Note_on_c, 6, 46, 0
12, 165200, Note_on_c, 6, 46, 84
12, 165239, Note_on_c, 6, 46, 0
12, 165240, Note_on_c, 6, 46, 84
12, 165279, Note_on_c, 6, 46, 0
12, 165280, Note_on_c, 6, 46, 84
12, 165319, Note_on_c, 6, 46, 0
12, 165320, Note_on_c, 6, 46, 84
12, 165359, Note_on_c, 6, 46, 0
12, 165360, Note_on_c, 6, 46, 84
12, 165399, Note_on_c, 6, 46, 0
12, 165400, Note_on_c, 6, 46, 84
12, 165439, Note_on_c, 6, 46, 0
12, 165440, Note_on_c, 6, 46, 84
12, 165479, Note_on_c, 6, 46, 0
12, 165480, Note_on_c, 6, 46, 84
12, 165519, Note_on_c, 6, 46, 0
12, 165520, Note_on_c, 6, 46, 84
12, 165559, Note_on_c, 6, 46, 0
12, 165560, Note_on_c, 6, 46, 84
12, 165599, Note_on_c, 6, 46, 0
12, 165600, Note_on_c, 6, 46, 84
12, 165639, Note_on_c, 6, 46, 0
12, 165640, Note_on_c, 6, 46, 84
12, 165679, Note_on_c, 6, 46, 0
12, 165680, Note_on_c, 6, 46, 84
12, 165719, Note_on_c, 6, 46, 0
12, 165720, Note_on_c, 6, 46, 84
12, 165759, Note_on_c, 6, 46, 0
12, 165760, Note_on_c, 6, 46, 84
12, 165799, Note_on_c, 6, 46, 0
12, 165800, Note_on_c, 6, 46, 84
12, 165839, Note_on_c, 6, 46, 0
12, 165840, Note_on_c, 6, 46, 84
12, 165879, Note_on_c, 6, 46, 0
12, 165880, Note_on_c, 6, 46, 84
12, 165919, Note_on_c, 6, 46, 0
12, 165920, Note_on_c, 6, 46, 84
12, 165959, Note_on_c, 6, 46, 0
12, 165960, Note_on_c, 6, 46, 84
12, 165999, Note_on_c, 6, 46, 0
12, 166000, Note_on_c, 6, 46, 84
12, 166039, Note_on_c, 6, 46, 0
12, 166040, Note_on_c, 6, 46, 84
12, 166079, Note_on_c, 6, 46, 0
12, 166080, Note_on_c, 6, 46, 84
12, 166319, Note_on_c, 6, 46, 0
12, 166320, Note_on_c, 6, 46, 92
12, 166559, Note_on_c, 6, 46, 0
12, 166800, Note_on_c, 6, 46, 92
12, 167039, Note_on_c, 6, 46, 0
12, 167280, Note_on_c, 6, 46, 92
12, 167519, Note_on_c, 6, 46, 0
12, 167760, Note_on_c, 6, 46, 92
12, 167999, Note_on_c, 6, 46, 0
12, 169920, Note_on_c, 6, 46, 84
12, 170159, Note_on_c, 6, 46, 0
12, 170160, Note_on_c, 6, 46, 92
12, 170399, Note_on_c, 6, 46, 0
12, 170640, Note_on_c, 6, 46, 92
12, 170879, Note_on_c, 6, 46, 0
12, 171120, Note_on_c, 6, 46, 92
12, 171359, Note_on_c, 6, 46, 0
12, 171600, Note_on_c, 6, 46, 92
12, 171839, Note_on_c, 6, 46, 0
12, 175680, Note_on_c, 6, 46, 84
12, 175799, Note_on_c, 6, 46, 0
12, 175920, Note_on_c, 6, 46, 84
12, 176039, Note_on_c, 6, 46, 0
12, 176160, Note_on_c, 6, 46, 84
12, 176279, Note_on_c, 6, 46, 0
12, 176400, Note_on_c, 6, 41, 84
12, 176519, Note_on_c, 6, 41, 0
12, 176640, Note_on_c, 6, 46, 84
12, 176759, Note_on_c, 6, 46, 0
12, 177600, Note_on_c, 6, 46, 84
12, 177719, Note_on_c, 6, 46, 0
12, 178560, Note_on_c, 6, 46, 84
12, 178679, Note_on_c, 6, 46, 0
12, 179520, Note_on_c, 6, 46, 84
12, 179639, Note_on_c, 6, 46, 0
12, 180480, Note_on_c, 6, 46, 84
12, 180599, Note_on_c, 6, 46, 0
12, 180600, Note_on_c, 6, 46, 84
12, 180719, Note_on_c, 6, 46, 0
12, 180840, Note_on_c, 6, 46, 84
12, 180959, Note_on_c, 6, 46, 0
12, 180960, Note_on_c, 6, 46, 84
12, 181079, Note_on_c, 6, 46, 0
12, 181080, Note_on_c, 6, 46, 84
12, 181199, Note_on_c, 6, 46, 0
12, 181320, Note_on_c, 6, 46, 84
12, 181439, Note_on_c, 6, 46, 0
12, 181440, Note_on_c, 6, 46, 84
12, 181559, Note_on_c, 6, 46, 0
12, 181560, Note_on_c, 6, 46, 84
12, 181679, Note_on_c, 6, 46, 0
12, 181800, Note_on_c, 6, 46, 84
12, 181919, Note_on_c, 6, 46, 0
12, 181920, Note_on_c, 6, 46, 84
12, 182039, Note_on_c, 6, 46, 0
12, 182040, Note_on_c, 6, 46, 84
12, 182159, Note_on_c, 6, 46, 0
12, 182160, Note_on_c, 6, 46, 84
12, 182279, Note_on_c, 6, 46, 0
12, 182280, Note_on_c, 6, 46, 84
12, 182399, Note_on_c, 6, 46, 0
12, 182400, Note_on_c, 6, 46, 52
12, 182519, Note_on_c, 6, 46, 0
12, 188400, Note_on_c, 6, 41, 76
12, 188639, Note_on_c, 6, 41, 0
12, 188880, Note_on_c, 6, 41, 84
12, 189119, Note_on_c, 6, 41, 0
12, 189360, Note_on_c, 6, 41, 84
12, 189599, Note_on_c, 6, 41, 0
12, 189840, Note_on_c, 6, 41, 84
12, 190079, Note_on_c, 6, 41, 0
12, 193200, Note_on_c, 6, 41, 44
12, 193319, Note_on_c, 6, 41, 0
12, 193440, Note_on_c, 6, 46, 44
12, 193559, Note_on_c, 6, 46, 0
12, 193680, Note_on_c, 6, 41, 44
12, 193799, Note_on_c, 6, 41, 0
12, 193920, Note_on_c, 6, 46, 84
12, 193959, Note_on_c, 6, 46, 0
12, 193960, Note_on_c, 6, 46, 84
12, 193999, Note_on_c, 6, 46, 0
12, 194000, Note_on_c, 6, 46, 84
12, 194039, Note_on_c, 6, 46, 0
12, 194040, Note_on_c, 6, 46, 84
12, 194079, Note_on_c, 6, 46, 0
12, 194080, Note_on_c, 6, 46, 84
12, 194119, Note_on_c, 6, 46, 0
12, 194120, Note_on_c, 6, 46, 84
12, 194159, Note_on_c, 6, 46, 0
12, 194160, Note_on_c, 6, 46, 84
12, 194199, Note_on_c, 6, 46, 0
12, 194200, Note_on_c, 6, 46, 84
12, 194239, Note_on_c, 6, 46, 0
12, 194240, Note_on_c, 6, 46, 84
12, 194279, Note_on_c, 6, 46, 0
12, 194280, Note_on_c, 6, 46, 84
12, 194319, Note_on_c, 6, 46, 0
12, 194320, Note_on_c, 6, 46, 84
12, 194359, Note_on_c, 6, 46, 0
12, 194360, Note_on_c, 6, 46, 84
12, 194399, Note_on_c, 6, 46, 0
12, 194400, Note_on_c, 6, 46, 84
12, 194439, Note_on_c, 6, 46, 0
12, 194440, Note_on_c, 6, 46, 84
12, 194479, Note_on_c, 6, 46, 0
12, 194480, Note_on_c, 6, 46, 84
12, 194519, Note_on_c, 6, 46, 0
12, 194520, Note_on_c, 6, 46, 84
12, 194559, Note_on_c, 6, 46, 0
12, 194560, Note_on_c, 6, 46, 84
12, 194599, Note_on_c, 6, 46, 0
12, 194600, Note_on_c, 6, 46, 84
12, 194639, Note_on_c, 6, 46, 0
12, 194640, Note_on_c, 6, 46, 84
12, 194679, Note_on_c, 6, 46, 0
12, 194680, Note_on_c, 6, 46, 84
12, 194719, Note_on_c, 6, 46, 0
12, 194720, Note_on_c, 6, 46, 84
12, 194759, Note_on_c, 6, 46, 0
12, 194760, Note_on_c, 6, 46, 84
12, 194799, Note_on_c, 6, 46, 0
12, 194800, Note_on_c, 6, 46, 84
12, 194839, Note_on_c, 6, 46, 0
12, 194840, Note_on_c, 6, 46, 84
12, 194879, Note_on_c, 6, 46, 0
12, 194880, Note_on_c, 6, 46, 84
12, 194999, Note_on_c, 6, 46, 0
12, 195120, Note_on_c, 6, 41, 84
12, 195239, Note_on_c, 6, 41, 0
12, 195360, Note_on_c, 6, 46, 84
12, 195479, Note_on_c, 6, 46, 0
12, 195600, Note_on_c, 6, 41, 84
12, 195719, Note_on_c, 6, 41, 0
12, 196080, Note_on_c, 6, 41, 84
12, 196199, Note_on_c, 6, 41, 0
12, 196320, Note_on_c, 6, 46, 84
12, 196439, Note_on_c, 6, 46, 0
12, 196560, Note_on_c, 6, 41, 84
12, 196679, Note_on_c, 6, 41, 0
12, 197040, Note_on_c, 6, 41, 84
12, 197159, Note_on_c, 6, 41, 0
12, 197280, Note_on_c, 6, 46, 84
12, 197399, Note_on_c, 6, 46, 0
12, 197520, Note_on_c, 6, 41, 84
12, 197639, Note_on_c, 6, 41, 0
12, 198000, Note_on_c, 6, 41, 84
12, 198119, Note_on_c, 6, 41, 0
12, 198240, Note_on_c, 6, 46, 84
12, 198359, Note_on_c, 6, 46, 0
12, 198480, Note_on_c, 6, 41, 84
12, 198519, Note_on_c, 6, 41, 0
12, 198520, Note_on_c, 6, 41, 84
12, 198559, Note_on_c, 6, 41, 0
12, 198560, Note_on_c, 6, 41, 84
12, 198599, Note_on_c, 6, 41, 0
12, 198600, Note_on_c, 6, 41, 84
12, 198639, Note_on_c, 6, 41, 0
12, 198640, Note_on_c, 6, 41, 84
12, 198679, Note_on_c, 6, 41, 0
12, 198680, Note_on_c, 6, 41, 84
12, 198719, Note_on_c, 6, 41, 0
12, 198720, Note_on_c, 6, 41, 84
12, 198759, Note_on_c, 6, 41, 0
12, 198760, Note_on_c, 6, 41, 84
12, 198799, Note_on_c, 6, 41, 0
12, 198800, Note_on_c, 6, 41, 84
12, 198839, Note_on_c, 6, 41, 0
12, 198840, Note_on_c, 6, 41, 84
12, 198879, Note_on_c, 6, 41, 0
12, 198880, Note_on_c, 6, 41, 84
12, 198919, Note_on_c, 6, 41, 0
12, 198920, Note_on_c, 6, 41, 84
12, 198959, Note_on_c, 6, 41, 0
12, 198960, Note_on_c, 6, 41, 84
12, 198999, Note_on_c, 6, 41, 0
12, 199000, Note_on_c, 6, 41, 84
12, 199039, Note_on_c, 6, 41, 0
12, 199040, Note_on_c, 6, 41, 84
12, 199079, Note_on_c, 6, 41, 0
12, 199080, Note_on_c, 6, 41, 84
12, 199119, Note_on_c, 6, 41, 0
12, 199120, Note_on_c, 6, 41, 84
12, 199159, Note_on_c, 6, 41, 0
12, 199160, Note_on_c, 6, 41, 84
12, 199199, Note_on_c, 6, 41, 0
12, 199200, Note_on_c, 6, 41, 84
12, 199239, Note_on_c, 6, 41, 0
12, 199240, Note_on_c, 6, 41, 84
12, 199279, Note_on_c, 6, 41, 0
12, 199280, Note_on_c, 6, 41, 84
12, 199319, Note_on_c, 6, 41, 0
12, 199320, Note_on_c, 6, 41, 84
12, 199359, Note_on_c, 6, 41, 0
12, 199360, Note_on_c, 6, 41, 84
12, 199399, Note_on_c, 6, 41, 0
12, 199400, Note_on_c, 6, 41, 84
12, 199439, Note_on_c, 6, 41, 0
12, 199440, Note_on_c, 6, 41, 84
12, 199479, Note_on_c, 6, 41, 0
12, 199480, Note_on_c, 6, 41, 84
12, 199519, Note_on_c, 6, 41, 0
12, 199520, Note_on_c, 6, 41, 84
12, 199559, Note_on_c, 6, 41, 0
12, 199560, Note_on_c, 6, 41, 84
12, 199599, Note_on_c, 6, 41, 0
12, 199600, Note_on_c, 6, 41, 84
12, 199639, Note_on_c, 6, 41, 0
12, 199640, Note_on_c, 6, 41, 84
12, 199679, Note_on_c, 6, 41, 0
12, 199680, Note_on_c, 6, 41, 84
12, 199719, Note_on_c, 6, 41, 0
12, 199720, Note_on_c, 6, 41, 84
12, 199759, Note_on_c, 6, 41, 0
12, 199760, Note_on_c, 6, 41, 84
12, 199799, Note_on_c, 6, 41, 0
12, 199800, Note_on_c, 6, 41, 84
12, 199839, Note_on_c, 6, 41, 0
12, 199840, Note_on_c, 6, 41, 84
12, 199879, Note_on_c, 6, 41, 0
12, 199880, Note_on_c, 6, 41, 84
12, 199919, Note_on_c, 6, 41, 0
12, 199920, Note_on_c, 6, 41, 84
12, 199959, Note_on_c, 6, 41, 0
12, 199960, Note_on_c, 6, 41, 84
12, 199999, Note_on_c, 6, 41, 0
12, 200000, Note_on_c, 6, 41, 84
12, 200039, Note_on_c, 6, 41, 0
12, 200040, Note_on_c, 6, 41, 84
12, 200079, Note_on_c, 6, 41, 0
12, 200080, Note_on_c, 6, 41, 84
12, 200119, Note_on_c, 6, 41, 0
12, 200120, Note_on_c, 6, 41, 84
12, 200159, Note_on_c, 6, 41, 0
12, 200160, Note_on_c, 6, 41, 84
12, 200199, Note_on_c, 6, 41, 0
12, 200200, Note_on_c, 6, 41, 84
12, 200239, Note_on_c, 6, 41, 0
12, 200240, Note_on_c, 6, 41, 84
12, 200279, Note_on_c, 6, 41, 0
12, 200280, Note_on_c, 6, 41, 84
12, 200319, Note_on_c, 6, 41, 0
12, 200320, Note_on_c, 6, 41, 84
12, 200359, Note_on_c, 6, 41, 0
12, 200360, Note_on_c, 6, 41, 84
12, 200399, Note_on_c, 6, 41, 0
12, 200400, Note_on_c, 6, 41, 84
12, 200439, Note_on_c, 6, 41, 0
12, 200440, Note_on_c, 6, 41, 84
12, 200479, Note_on_c, 6, 41, 0
12, 200480, Note_on_c, 6, 41, 84
12, 200519, Note_on_c, 6, 41, 0
12, 200520, Note_on_c, 6, 41, 84
12, 200559, Note_on_c, 6, 41, 0
12, 200560, Note_on_c, 6, 41, 84
12, 200599, Note_on_c, 6, 41, 0
12, 200600, Note_on_c, 6, 41, 84
12, 200639, Note_on_c, 6, 41, 0
12, 200640, Note_on_c, 6, 41, 92
12, 200679, Note_on_c, 6, 41, 0
12, 200680, Note_on_c, 6, 41, 83
12, 200719, Note_on_c, 6, 41, 0
12, 200720, Note_on_c, 6, 41, 82
12, 200759, Note_on_c, 6, 41, 0
12, 200760, Note_on_c, 6, 41, 80
12, 200799, Note_on_c, 6, 41, 0
12, 200800, Note_on_c, 6, 41, 79
12, 200839, Note_on_c, 6, 41, 0
12, 200840, Note_on_c, 6, 41, 78
12, 200879, Note_on_c, 6, 41, 0
12, 200880, Note_on_c, 6, 41, 76
12, 200919, Note_on_c, 6, 41, 0
12, 200920, Note_on_c, 6, 41, 75
12, 200959, Note_on_c, 6, 41, 0
12, 200960, Note_on_c, 6, 41, 74
12, 200999, Note_on_c, 6, 41, 0
12, 201000, Note_on_c, 6, 41, 72
12, 201039, Note_on_c, 6, 41, 0
12, 201040, Note_on_c, 6, 41, 71
12, 201079, Note_on_c, 6, 41, 0
12, 201080, Note_on_c, 6, 41, 70
12, 201119, Note_on_c, 6, 41, 0
12, 201120, Note_on_c, 6, 41, 68
12, 201159, Note_on_c, 6, 41, 0
12, 201160, Note_on_c, 6, 41, 67
12, 201199, Note_on_c, 6, 41, 0
12, 201200, Note_on_c, 6, 41, 66
12, 201239, Note_on_c, 6, 41, 0
12, 201240, Note_on_c, 6, 41, 64
12, 201279, Note_on_c, 6, 41, 0
12, 201280, Note_on_c, 6, 41, 63
12, 201319, Note_on_c, 6, 41, 0
12, 201320, Note_on_c, 6, 41, 62
12, 201359, Note_on_c, 6, 41, 0
12, 201360, Note_on_c, 6, 41, 60
12, 201399, Note_on_c, 6, 41, 0
12, 201400, Note_on_c, 6, 41, 59
12, 201439, Note_on_c, 6, 41, 0
12, 201440, Note_on_c, 6, 41, 58
12, 201479, Note_on_c, 6, 41, 0
12, 201480, Note_on_c, 6, 41, 56
12, 201519, Note_on_c, 6, 41, 0
12, 201520, Note_on_c, 6, 41, 55
12, 201559, Note_on_c, 6, 41, 0
12, 201560, Note_on_c, 6, 41, 54
12, 201599, Note_on_c, 6, 41, 0
12, 201600, Note_on_c, 6, 41, 52
12, 201719, Note_on_c, 6, 41, 0
12, 211680, Note_on_c, 6, 46, 84
12, 211719, Note_on_c, 6, 46, 0
12, 211720, Note_on_c, 6, 46, 84
12, 211759, Note_on_c, 6, 46, 0
12, 211760, Note_on_c, 6, 46, 84
12, 211799, Note_on_c, 6, 46, 0
12, 211800, Note_on_c, 6, 46, 84
12, 211839, Note_on_c, 6, 46, 0
12, 211840, Note_on_c, 6, 46, 84
12, 211879, Note_on_c, 6, 46, 0
12, 211880, Note_on_c, 6, 46, 84
12, 211919, Note_on_c, 6, 46, 0
12, 211920, Note_on_c, 6, 46, 84
12, 211959, Note_on_c, 6, 46, 0
12, 211960, Note_on_c, 6, 46, 84
12, 211999, Note_on_c, 6, 46, 0
12, 212000, Note_on_c, 6, 46, 84
12, 212039, Note_on_c, 6, 46, 0
12, 212040, Note_on_c, 6, 46, 84
12, 212079, Note_on_c, 6, 46, 0
12, 212080, Note_on_c, 6, 46, 84
12, 212119, Note_on_c, 6, 46, 0
12, 212120, Note_on_c, 6, 46, 84
12, 212159, Note_on_c, 6, 46, 0
12, 212160, Note_on_c, 6, 46, 84
12, 212199, Note_on_c, 6, 46, 0
12, 212200, Note_on_c, 6, 46, 84
12, 212239, Note_on_c, 6, 46, 0
12, 212240, Note_on_c, 6, 46, 84
12, 212279, Note_on_c, 6, 46, 0
12, 212280, Note_on_c, 6, 46, 84
12, 212319, Note_on_c, 6, 46, 0
12, 212320, Note_on_c, 6, 46, 84
12, 212359, Note_on_c, 6, 46, 0
12, 212360, Note_on_c, 6, 46, 84
12, 212399, Note_on_c, 6, 46, 0
12, 212400, Note_on_c, 6, 46, 84
12, 212439, Note_on_c, 6, 46, 0
12, 212440, Note_on_c, 6, 46, 84
12, 212479, Note_on_c, 6, 46, 0
12, 212480, Note_on_c, 6, 46, 84
12, 212519, Note_on_c, 6, 46, 0
12, 212520, Note_on_c, 6, 46, 84
12, 212559, Note_on_c, 6, 46, 0
12, 212560, Note_on_c, 6, 46, 84
12, 212599, Note_on_c, 6, 46, 0
12, 212600, Note_on_c, 6, 46, 84
12, 212639, Note_on_c, 6, 46, 0
12, 212640, Note_on_c, 6, 46, 84
12, 212759, Note_on_c, 6, 46, 0
12, 212880, Note_on_c, 6, 46, 84
12, 212999, Note_on_c, 6, 46, 0
12, 213600, Note_on_c, 6, 41, 84
12, 213719, Note_on_c, 6, 41, 0
12, 213840, Note_on_c, 6, 41, 84
12, 213959, Note_on_c, 6, 41, 0
12, 217680, Note_on_c, 6, 41, 84
12, 217799, Note_on_c, 6, 41, 0
12, 217920, Note_on_c, 6, 46, 84
12, 218039, Note_on_c, 6, 46, 0
12, 218160, Note_on_c, 6, 41, 84
12, 218279, Note_on_c, 6, 41, 0
12, 218400, Note_on_c, 6, 46, 84
12, 218519, Note_on_c, 6, 46, 0
12, 218880, Note_on_c, 6, 41, 84
12, 218999, Note_on_c, 6, 41, 0
12, 219360, Note_on_c, 6, 46, 84
12, 219479, Note_on_c, 6, 46, 0
12, 219479, End_track
13, 0, Start_track
13, 0, Title_t, "Violin I"
13, 0, MIDI_port, 0
13, 0, Program_c, 11, 48
13, 0, Control_c, 11, 7, 96
13, 0, Control_c, 11, 10, 48
13, 0, Control_c, 11, 11, 127
13, 0, Note_on_c, 11, 70, 52
13, 51, Note_on_c, 11, 70, 0
13, 60, Note_on_c, 11, 69, 52
13, 111, Note_on_c, 11, 69, 0
13, 120, Note_on_c, 11, 70, 52
13, 171, Note_on_c, 11, 70, 0
13, 180, Note_on_c, 11, 74, 52
13, 231, Note_on_c, 11, 74, 0
13, 240, Note_on_c, 11, 65, 52
13, 291, Note_on_c, 11, 65, 0
13, 300, Note_on_c, 11, 67, 52
13, 351, Note_on_c, 11, 67, 0
13, 360, Note_on_c, 11, 69, 52
13, 411, Note_on_c, 11, 69, 0
13, 420, Note_on_c, 11, 70, 52
13, 451, Note_on_c, 11, 70, 0
13, 460, Note_on_c, 11, 74, 52
13, 479, Note_on_c, 11, 74, 0
13, 480, Note_on_c, 11, 72, 52
13, 531, Note_on_c, 11, 72, 0
13, 540, Note_on_c, 11, 71, 52
13, 591, Note_on_c, 11, 71, 0
13, 600, Note_on_c, 11, 72, 52
13, 651, Note_on_c, 11, 72, 0
13, 660, Note_on_c, 11, 75, 52
13, 719, Note_on_c, 11, 75, 0
13, 1200, Note_on_c, 11, 65, 76
13, 1200, Note_on_c, 11, 81, 76
13, 1200, Note_on_c, 11, 72, 76
13, 1319, Note_on_c, 11, 65, 0
13, 1319, Note_on_c, 11, 81, 0
13, 1319, Note_on_c, 11, 72, 0
13, 1440, Note_on_c, 11, 82, 76
13, 1440, Note_on_c, 11, 74, 76
13, 1440, Note_on_c, 11, 65, 76
13, 1559, Note_on_c, 11, 82, 0
13, 1559, Note_on_c, 11, 74, 0
13, 1559, Note_on_c, 11, 65, 0
13, 1680, Note_on_c, 11, 69, 76
13, 1680, Note_on_c, 11, 84, 76
13, 1799, Note_on_c, 11, 69, 0
13, 1799, Note_on_c, 11, 84, 0
13, 1920, Note_on_c, 11, 62, 44
13, 1971, Note_on_c, 11, 62, 0
13, 1980, Note_on_c, 11, 60, 44
13, 2031, Note_on_c, 11, 60, 0
13, 2040, Note_on_c, 11, 62, 44
13, 2091, Note_on_c, 11, 62, 0
13, 2100, Note_on_c, 11, 65, 44
13, 2151, Note_on_c, 11, 65, 0
13, 2160, Note_on_c, 11, 62, 44
13, 2211, Note_on_c, 11, 62, 0
13, 2220, Note_on_c, 11, 63, 44
13, 2271, Note_on_c, 11, 63, 0
13, 2280, Note_on_c, 11, 65, 44
13, 2331, Note_on_c, 11, 65, 0
13, 2340, Note_on_c, 11, 63, 44
13, 2391, Note_on_c, 11, 63, 0
13, 2400, Note_on_c, 11, 62, 44
13, 2451, Note_on_c, 11, 62, 0
13, 2460, Note_on_c, 11, 60, 44
13, 2511, Note_on_c, 11, 60, 0
13, 2520, Note_on_c, 11, 62, 44
13, 2571, Note_on_c, 11, 62, 0
13, 2580, Note_on_c, 11, 65, 44
13, 2631, Note_on_c, 11, 65, 0
13, 2640, Note_on_c, 11, 63, 44
13, 2691, Note_on_c, 11, 63, 0
13, 2700, Note_on_c, 11, 65, 44
13, 2751, Note_on_c, 11, 65, 0
13, 2760, Note_on_c, 11, 67, 44
13, 2811, Note_on_c, 11, 67, 0
13, 2820, Note_on_c, 11, 65, 44
13, 2871, Note_on_c, 11, 65, 0
13, 2880, Note_on_c, 11, 63, 44
13, 2931, Note_on_c, 11, 63, 0
13, 2940, Note_on_c, 11, 62, 44
13, 2991, Note_on_c, 11, 62, 0
13, 3000, Note_on_c, 11, 63, 44
13, 3051, Note_on_c, 11, 63, 0
13, 3060, Note_on_c, 11, 67, 44
13, 3111, Note_on_c, 11, 67, 0
13, 3120, Note_on_c, 11, 63, 44
13, 3171, Note_on_c, 11, 63, 0
13, 3180, Note_on_c, 11, 65, 44
13, 3231, Note_on_c, 11, 65, 0
13, 3240, Note_on_c, 11, 67, 44
13, 3291, Note_on_c, 11, 67, 0
13, 3300, Note_on_c, 11, 65, 44
13, 3351, Note_on_c, 11, 65, 0
13, 3360, Note_on_c, 11, 63, 44
13, 3411, Note_on_c, 11, 63, 0
13, 3420, Note_on_c, 11, 62, 44
13, 3471, Note_on_c, 11, 62, 0
13, 3480, Note_on_c, 11, 63, 44
13, 3531, Note_on_c, 11, 63, 0
13, 3540, Note_on_c, 11, 67, 44
13, 3591, Note_on_c, 11, 67, 0
13, 3600, Note_on_c, 11, 65, 44
13, 3651, Note_on_c, 11, 65, 0
13, 3660, Note_on_c, 11, 67, 44
13, 3711, Note_on_c, 11, 67, 0
13, 3720, Note_on_c, 11, 68, 44
13, 3771, Note_on_c, 11, 68, 0
13, 3780, Note_on_c, 11, 67, 44
13, 3831, Note_on_c, 11, 67, 0
13, 3840, Note_on_c, 11, 65, 44
13, 3891, Note_on_c, 11, 65, 0
13, 3900, Note_on_c, 11, 63, 44
13, 3951, Note_on_c, 11, 63, 0
13, 3960, Note_on_c, 11, 65, 44
13, 4011, Note_on_c, 11, 65, 0
13, 4020, Note_on_c, 11, 68, 44
13, 4071, Note_on_c, 11, 68, 0
13, 4080, Note_on_c, 11, 67, 44
13, 4131, Note_on_c, 11, 67, 0
13, 4140, Note_on_c, 11, 68, 44
13, 4191, Note_on_c, 11, 68, 0
13, 4200, Note_on_c, 11, 70, 44
13, 4251, Note_on_c, 11, 70, 0
13, 4260, Note_on_c, 11, 68, 44
13, 4311, Note_on_c, 11, 68, 0
13, 4320, Note_on_c, 11, 67, 44
13, 4371, Note_on_c, 11, 67, 0
13, 4380, Note_on_c, 11, 65, 44
13, 4431, Note_on_c, 11, 65, 0
13, 4440, Note_on_c, 11, 67, 44
13, 4491, Note_on_c, 11, 67, 0
13, 4500, Note_on_c, 11, 70, 44
13, 4551, Note_on_c, 11, 70, 0
13, 4560, Note_on_c, 11, 69, 44
13, 4611, Note_on_c, 11, 69, 0
13, 4620, Note_on_c, 11, 70, 44
13, 4671, Note_on_c, 11, 70, 0
13, 4680, Note_on_c, 11, 72, 44
13, 4731, Note_on_c, 11, 72, 0
13, 4740, Note_on_c, 11, 70, 44
13, 4791, Note_on_c, 11, 70, 0
13, 4800, Note_on_c, 11, 69, 44
13, 4851, Note_on_c, 11, 69, 0
13, 4860, Note_on_c, 11, 70, 44
13, 4911, Note_on_c, 11, 70, 0
13, 4920, Note_on_c, 11, 72, 44
13, 4971, Note_on_c, 11, 72, 0
13, 4980, Note_on_c, 11, 70, 44
13, 5031, Note_on_c, 11, 70, 0
13, 5040, Note_on_c, 11, 69, 44
13, 5091, Note_on_c, 11, 69, 0
13, 5100, Note_on_c, 11, 70, 44
13, 5151, Note_on_c, 11, 70, 0
13, 5160, Note_on_c, 11, 72, 44
13, 5211, Note_on_c, 11, 72, 0
13, 5220, Note_on_c, 11, 74, 44
13, 5271, Note_on_c, 11, 74, 0
13, 5280, Note_on_c, 11, 75, 44
13, 5639, Note_on_c, 11, 75, 0
13, 5640, Note_on_c, 11, 72, 44
13, 5744, Note_on_c, 11, 72, 0
13, 5760, Note_on_c, 11, 70, 44
13, 6119, Note_on_c, 11, 70, 0
13, 6120, Note_on_c, 11, 67, 44
13, 6224, Note_on_c, 11, 67, 0
13, 6240, Note_on_c, 11, 65, 44
13, 6359, Note_on_c, 11, 65, 0
13, 6480, Note_on_c, 11, 65, 44
13, 6599, Note_on_c, 11, 65, 0
13, 6720, Note_on_c, 11, 65, 44
13, 7199, Note_on_c, 11, 65, 0
13, 8640, Note_on_c, 11, 74, 44
13, 8691, Note_on_c, 11, 74, 0
13, 8700, Note_on_c, 11, 72, 44
13, 8751, Note_on_c, 11, 72, 0
13, 8760, Note_on_c, 11, 74, 44
13, 8811, Note_on_c, 11, 74, 0
13, 8820, Note_on_c, 11, 77, 44
13, 8871, Note_on_c, 11, 77, 0
13, 8880, Note_on_c, 11, 75, 44
13, 8931, Note_on_c, 11, 75, 0
13, 8940, Note_on_c, 11, 74, 44
13, 8991, Note_on_c, 11, 74, 0
13, 9000, Note_on_c, 11, 72, 44
13, 9051, Note_on_c, 11, 72, 0
13, 9060, Note_on_c, 11, 74, 44
13, 9111, Note_on_c, 11, 74, 0
13, 9120, Note_on_c, 11, 77, 44
13, 9239, Note_on_c, 11, 77, 0
13, 9360, Note_on_c, 11, 77, 64
13, 9479, Note_on_c, 11, 77, 0
13, 9600, Note_on_c, 11, 82, 84
13, 9651, Note_on_c, 11, 82, 0
13, 9660, Note_on_c, 11, 81, 84
13, 9711, Note_on_c, 11, 81, 0
13, 9720, Note_on_c, 11, 82, 84
13, 9771, Note_on_c, 11, 82, 0
13, 9780, Note_on_c, 11, 86, 84
13, 9831, Note_on_c, 11, 86, 0
13, 9840, Note_on_c, 11, 84, 84
13, 9891, Note_on_c, 11, 84, 0
13, 9900, Note_on_c, 11, 82, 84
13, 9951, Note_on_c, 11, 82, 0
13, 9960, Note_on_c, 11, 81, 84
13, 10011, Note_on_c, 11, 81, 0
13, 10020, Note_on_c, 11, 82, 84
13, 10071, Note_on_c, 11, 82, 0
13, 10080, Note_on_c, 11, 81, 84
13, 10131, Note_on_c, 11, 81, 0
13, 10140, Note_on_c, 11, 79, 84
13, 10191, Note_on_c, 11, 79, 0
13, 10200, Note_on_c, 11, 77, 84
13, 10251, Note_on_c, 11, 77, 0
13, 10260, Note_on_c, 11, 79, 84
13, 10311, Note_on_c, 11, 79, 0
13, 10320, Note_on_c, 11, 77, 84
13, 10371, Note_on_c, 11, 77, 0
13, 10380, Note_on_c, 11, 75, 84
13, 10431, Note_on_c, 11, 75, 0
13, 10440, Note_on_c, 11, 74, 84
13, 10491, Note_on_c, 11, 74, 0
13, 10500, Note_on_c, 11, 75, 84
13, 10551, Note_on_c, 11, 75, 0
13, 10560, Note_on_c, 11, 74, 84
13, 10611, Note_on_c, 11, 74, 0
13, 10620, Note_on_c, 11, 72, 84
13, 10671, Note_on_c, 11, 72, 0
13, 10680, Note_on_c, 11, 70, 84
13, 10731, Note_on_c, 11, 70, 0
13, 10740, Note_on_c, 11, 72, 84
13, 10791, Note_on_c, 11, 72, 0
13, 10800, Note_on_c, 11, 70, 84
13, 10851, Note_on_c, 11, 70, 0
13, 10860, Note_on_c, 11, 69, 84
13, 10911, Note_on_c, 11, 69, 0
13, 10920, Note_on_c, 11, 67, 84
13, 10971, Note_on_c, 11, 67, 0
13, 10980, Note_on_c, 11, 69, 84
13, 11031, Note_on_c, 11, 69, 0
13, 11040, Note_on_c, 11, 67, 84
13, 11091, Note_on_c, 11, 67, 0
13, 11100, Note_on_c, 11, 65, 84
13, 11151, Note_on_c, 11, 65, 0
13, 11160, Note_on_c, 11, 63, 84
13, 11211, Note_on_c, 11, 63, 0
13, 11220, Note_on_c, 11, 62, 84
13, 11271, Note_on_c, 11, 62, 0
13, 11280, Note_on_c, 11, 60, 84
13, 11384, Note_on_c, 11, 60, 0
13, 11400, Note_on_c, 11, 65, 84
13, 11504, Note_on_c, 11, 65, 0
13, 11520, Note_on_c, 11, 58, 84
13, 11571, Note_on_c, 11, 58, 0
13, 11580, Note_on_c, 11, 62, 84
13, 11631, Note_on_c, 11, 62, 0
13, 11640, Note_on_c, 11, 65, 84
13, 11691, Note_on_c, 11, 65, 0
13, 11700, Note_on_c, 11, 70, 84
13, 11751, Note_on_c, 11, 70, 0
13, 11760, Note_on_c, 11, 74, 84
13, 11811, Note_on_c, 11, 74, 0
13, 11820, Note_on_c, 11, 77, 84
13, 11871, Note_on_c, 11, 77, 0
13, 11880, Note_on_c, 11, 82, 84
13, 11931, Note_on_c, 11, 82, 0
13, 11940, Note_on_c, 11, 82, 84
13, 11991, Note_on_c, 11, 82, 0
13, 12000, Note_on_c, 11, 82, 84
13, 12344, Note_on_c, 11, 82, 0
13, 12360, Note_on_c, 11, 89, 84
13, 12464, Note_on_c, 11, 89, 0
13, 12480, Note_on_c, 11, 81, 84
13, 12584, Note_on_c, 11, 81, 0
13, 12600, Note_on_c, 11, 87, 84
13, 12704, Note_on_c, 11, 87, 0
13, 12720, Note_on_c, 11, 81, 84
13, 12824, Note_on_c, 11, 81, 0
13, 12840, Note_on_c, 11, 84, 84
13, 12944, Note_on_c, 11, 84, 0
13, 12960, Note_on_c, 11, 75, 84
13, 13064, Note_on_c, 11, 75, 0
13, 13080, Note_on_c, 11, 79, 84
13, 13184, Note_on_c, 11, 79, 0
13, 13200, Note_on_c, 11, 72, 84
13, 13304, Note_on_c, 11, 72, 0
13, 13320, Note_on_c, 11, 77, 84
13, 13424, Note_on_c, 11, 77, 0
13, 13440, Note_on_c, 11, 58, 84
13, 13491, Note_on_c, 11, 58, 0
13, 13500, Note_on_c, 11, 62, 84
13, 13551, Note_on_c, 11, 62, 0
13, 13560, Note_on_c, 11, 65, 84
13, 13611, Note_on_c, 11, 65, 0
13, 13620, Note_on_c, 11, 70, 84
13, 13671, Note_on_c, 11, 70, 0
13, 13680, Note_on_c, 11, 74, 84
13, 13731, Note_on_c, 11, 74, 0
13, 13740, Note_on_c, 11, 79, 84
13, 13791, Note_on_c, 11, 79, 0
13, 13800, Note_on_c, 11, 82, 84
13, 13851, Note_on_c, 11, 82, 0
13, 13860, Note_on_c, 11, 82, 84
13, 13911, Note_on_c, 11, 82, 0
13, 13920, Note_on_c, 11, 82, 84
13, 13971, Note_on_c, 11, 82, 0
13, 13980, Note_on_c, 11, 82, 84
13, 14031, Note_on_c, 11, 82, 0
13, 14040, Note_on_c, 11, 82, 84
13, 14091, Note_on_c, 11, 82, 0
13, 14100, Note_on_c, 11, 82, 84
13, 14151, Note_on_c, 11, 82, 0
13, 14160, Note_on_c, 11, 82, 84
13, 14211, Note_on_c, 11, 82, 0
13, 14220, Note_on_c, 11, 82, 84
13, 14271, Note_on_c, 11, 82, 0
13, 14280, Note_on_c, 11, 82, 84
13, 14331, Note_on_c, 11, 82, 0
13, 14340, Note_on_c, 11, 82, 84
13, 14391, Note_on_c, 11, 82, 0
13, 14400, Note_on_c, 11, 81, 84
13, 14451, Note_on_c, 11, 81, 0
13, 14460, Note_on_c, 11, 81, 84
13, 14511, Note_on_c, 11, 81, 0
13, 14520, Note_on_c, 11, 84, 84
13, 14571, Note_on_c, 11, 84, 0
13, 14580, Note_on_c, 11, 84, 84
13, 14631, Note_on_c, 11, 84, 0
13, 14640, Note_on_c, 11, 77, 84
13, 14691, Note_on_c, 11, 77, 0
13, 14700, Note_on_c, 11, 77, 84
13, 14751, Note_on_c, 11, 77, 0
13, 14760, Note_on_c, 11, 81, 84
13, 14811, Note_on_c, 11, 81, 0
13, 14820, Note_on_c, 11, 81, 84
13, 14871, Note_on_c, 11, 81, 0
13, 14880, Note_on_c, 11, 74, 84
13, 14931, Note_on_c, 11, 74, 0
13, 14940, Note_on_c, 11, 74, 84
13, 14991, Note_on_c, 11, 74, 0
13, 15000, Note_on_c, 11, 77, 84
13, 15051, Note_on_c, 11, 77, 0
13, 15060, Note_on_c, 11, 77, 84
13, 15111, Note_on_c, 11, 77, 0
13, 15120, Note_on_c, 11, 69, 84
13, 15171, Note_on_c, 11, 69, 0
13, 15180, Note_on_c, 11, 69, 84
13, 15231, Note_on_c, 11, 69, 0
13, 15240, Note_on_c, 11, 71, 84
13, 15291, Note_on_c, 11, 71, 0
13, 15300, Note_on_c, 11, 71, 84
13, 15351, Note_on_c, 11, 71, 0
13, 15360, Note_on_c, 11, 72, 84
13, 15411, Note_on_c, 11, 72, 0
13, 15420, Note_on_c, 11, 72, 84
13, 15471, Note_on_c, 11, 72, 0
13, 15480, Note_on_c, 11, 76, 84
13, 15531, Note_on_c, 11, 76, 0
13, 15540, Note_on_c, 11, 76, 84
13, 15591, Note_on_c, 11, 76, 0
13, 15600, Note_on_c, 11, 79, 84
13, 15651, Note_on_c, 11, 79, 0
13, 15660, Note_on_c, 11, 79, 84
13, 15711, Note_on_c, 11, 79, 0
13, 15720, Note_on_c, 11, 81, 84
13, 15771, Note_on_c, 11, 81, 0
13, 15780, Note_on_c, 11, 81, 84
13, 15831, Note_on_c, 11, 81, 0
13, 15840, Note_on_c, 11, 82, 84
13, 15891, Note_on_c, 11, 82, 0
13, 15900, Note_on_c, 11, 82, 84
13, 15951, Note_on_c, 11, 82, 0
13, 15960, Note_on_c, 11, 82, 84
13, 16011, Note_on_c, 11, 82, 0
13, 16020, Note_on_c, 11, 82, 84
13, 16071, Note_on_c, 11, 82, 0
13, 16080, Note_on_c, 11, 82, 84
13, 16131, Note_on_c, 11, 82, 0
13, 16140, Note_on_c, 11, 82, 84
13, 16191, Note_on_c, 11, 82, 0
13, 16200, Note_on_c, 11, 82, 84
13, 16251, Note_on_c, 11, 82, 0
13, 16260, Note_on_c, 11, 82, 84
13, 16311, Note_on_c, 11, 82, 0
13, 16320, Note_on_c, 11, 82, 84
13, 16371, Note_on_c, 11, 82, 0
13, 16380, Note_on_c, 11, 82, 84
13, 16431, Note_on_c, 11, 82, 0
13, 16440, Note_on_c, 11, 82, 84
13, 16491, Note_on_c, 11, 82, 0
13, 16500, Note_on_c, 11, 82, 84
13, 16551, Note_on_c, 11, 82, 0
13, 16560, Note_on_c, 11, 82, 84
13, 16611, Note_on_c, 11, 82, 0
13, 16620, Note_on_c, 11, 82, 84
13, 16671, Note_on_c, 11, 82, 0
13, 16680, Note_on_c, 11, 82, 84
13, 16731, Note_on_c, 11, 82, 0
13, 16740, Note_on_c, 11, 82, 84
13, 16791, Note_on_c, 11, 82, 0
13, 16800, Note_on_c, 11, 86, 84
13, 16851, Note_on_c, 11, 86, 0
13, 16860, Note_on_c, 11, 86, 80
13, 16911, Note_on_c, 11, 86, 0
13, 16920, Note_on_c, 11, 84, 76
13, 16971, Note_on_c, 11, 84, 0
13, 16980, Note_on_c, 11, 84, 72
13, 17031, Note_on_c, 11, 84, 0
13, 17040, Note_on_c, 11, 82, 68
13, 17091, Note_on_c, 11, 82, 0
13, 17100, Note_on_c, 11, 82, 64
13, 17151, Note_on_c, 11, 82, 0
13, 17160, Note_on_c, 11, 79, 60
13, 17211, Note_on_c, 11, 79, 0
13, 17220, Note_on_c, 11, 79, 56
13, 17271, Note_on_c, 11, 79, 0
13, 17280, Note_on_c, 11, 77, 52
13, 17504, Note_on_c, 11, 77, 0
13, 17520, Note_on_c, 11, 65, 52
13, 17759, Note_on_c, 11, 65, 0
13, 17760, Note_on_c, 11, 67, 52
13, 18239, Note_on_c, 11, 67, 0
13, 18240, Note_on_c, 11, 69, 52
13, 18719, Note_on_c, 11, 69, 0
13, 18720, Note_on_c, 11, 67, 52
13, 19184, Note_on_c, 11, 67, 0
13, 19200, Note_on_c, 11, 67, 52
13, 19544, Note_on_c, 11, 67, 0
13, 19560, Note_on_c, 11, 67, 52
13, 19664, Note_on_c, 11, 67, 0
13, 19680, Note_on_c, 11, 67, 52
13, 19799, Note_on_c, 11, 67, 0
13, 19920, Note_on_c, 11, 67, 52
13, 20039, Note_on_c, 11, 67, 0
13, 20160, Note_on_c, 11, 67, 52
13, 20279, Note_on_c, 11, 67, 0
13, 20400, Note_on_c, 11, 67, 52
13, 20519, Note_on_c, 11, 67, 0
13, 20640, Note_on_c, 11, 67, 52
13, 20729, Note_on_c, 11, 67, 0
13, 20760, Note_on_c, 11, 72, 52
13, 20879, Note_on_c, 11, 72, 0
13, 20880, Note_on_c, 11, 70, 52
13, 20999, Note_on_c, 11, 70, 0
13, 21000, Note_on_c, 11, 67, 52
13, 21104, Note_on_c, 11, 67, 0
13, 21120, Note_on_c, 11, 69, 52
13, 21239, Note_on_c, 11, 69, 0
13, 21240, Note_on_c, 11, 70, 52
13, 21359, Note_on_c, 11, 70, 0
13, 21360, Note_on_c, 11, 71, 52
13, 21479, Note_on_c, 11, 71, 0
13, 21480, Note_on_c, 11, 72, 52
13, 21704, Note_on_c, 11, 72, 0
13, 21720, Note_on_c, 11, 72, 52
13, 21944, Note_on_c, 11, 72, 0
13, 21960, Note_on_c, 11, 76, 52
13, 22184, Note_on_c, 11, 76, 0
13, 22200, Note_on_c, 11, 77, 52
13, 22424, Note_on_c, 11, 77, 0
13, 22440, Note_on_c, 11, 81, 52
13, 22664, Note_on_c, 11, 81, 0
13, 22680, Note_on_c, 11, 84, 52
13, 22904, Note_on_c, 11, 84, 0
13, 22920, Note_on_c, 11, 76, 52
13, 23024, Note_on_c, 11, 76, 0
13, 23040, Note_on_c, 11, 79, 52
13, 23399, Note_on_c, 11, 79, 0
13, 23400, Note_on_c, 11, 77, 52
13, 23504, Note_on_c, 11, 77, 0
13, 23520, Note_on_c, 11, 76, 52
13, 23639, Note_on_c, 11, 76, 0
13, 23640, Note_on_c, 11, 79, 52
13, 23744, Note_on_c, 11, 79, 0
13, 23760, Note_on_c, 11, 72, 52
13, 23879, Note_on_c, 11, 72, 0
13, 23880, Note_on_c, 11, 76, 52
13, 23984, Note_on_c, 11, 76, 0
13, 24000, Note_on_c, 11, 67, 52
13, 24119, Note_on_c, 11, 67, 0
13, 24120, Note_on_c, 11, 72, 52
13, 24224, Note_on_c, 11, 72, 0
13, 24240, Note_on_c, 11, 71, 52
13, 24359, Note_on_c, 11, 71, 0
13, 24360, Note_on_c, 11, 74, 52
13, 24464, Note_on_c, 11, 74, 0
13, 24480, Note_on_c, 11, 72, 52
13, 24599, Note_on_c, 11, 72, 0
13, 25800, Note_on_c, 11, 81, 76
13, 25904, Note_on_c, 11, 81, 0
13, 25920, Note_on_c, 11, 79, 76
13, 26039, Note_on_c, 11, 79, 0
13, 26040, Note_on_c, 11, 77, 76
13, 26144, Note_on_c, 11, 77, 0
13, 26160, Note_on_c, 11, 79, 76
13, 26249, Note_on_c, 11, 79, 0
13, 26280, Note_on_c, 11, 81, 76
13, 26369, Note_on_c, 11, 81, 0
13, 26400, Note_on_c, 11, 82, 76
13, 26519, Note_on_c, 11, 82, 0
13, 27720, Note_on_c, 11, 81, 76
13, 27824, Note_on_c, 11, 81, 0
13, 27840, Note_on_c, 11, 79, 76
13, 27959, Note_on_c, 11, 79, 0
13, 27960, Note_on_c, 11, 77, 76
13, 28064, Note_on_c, 11, 77, 0
13, 28080, Note_on_c, 11, 79, 76
13, 28169, Note_on_c, 11, 79, 0
13, 28200, Note_on_c, 11, 81, 76
13, 28289, Note_on_c, 11, 81, 0
13, 28320, Note_on_c, 11, 82, 76
13, 28424, Note_on_c, 11, 82, 0
13, 28440, Note_on_c, 11, 82, 76
13, 28559, Note_on_c, 11, 82, 0
13, 28680, Note_on_c, 11, 81, 76
13, 28731, Note_on_c, 11, 81, 0
13, 28740, Note_on_c, 11, 81, 76
13, 28791, Note_on_c, 11, 81, 0
13, 28800, Note_on_c, 11, 79, 76
13, 28851, Note_on_c, 11, 79, 0
13, 28860, Note_on_c, 11, 79, 76
13, 28911, Note_on_c, 11, 79, 0
13, 28920, Note_on_c, 11, 77, 76
13, 28971, Note_on_c, 11, 77, 0
13, 28980, Note_on_c, 11, 77, 76
13, 29031, Note_on_c, 11, 77, 0
13, 29040, Note_on_c, 11, 79, 76
13, 29091, Note_on_c, 11, 79, 0
13, 29100, Note_on_c, 11, 79, 76
13, 29151, Note_on_c, 11, 79, 0
13, 29160, Note_on_c, 11, 81, 76
13, 29211, Note_on_c, 11, 81, 0
13, 29220, Note_on_c, 11, 81, 76
13, 29271, Note_on_c, 11, 81, 0
13, 29280, Note_on_c, 11, 82, 76
13, 29384, Note_on_c, 11, 82, 0
13, 29400, Note_on_c, 11, 82, 76
13, 29519, Note_on_c, 11, 82, 0
13, 29640, Note_on_c, 11, 84, 76
13, 29691, Note_on_c, 11, 84, 0
13, 29700, Note_on_c, 11, 84, 76
13, 29751, Note_on_c, 11, 84, 0
13, 29760, Note_on_c, 11, 86, 76
13, 29811, Note_on_c, 11, 86, 0
13, 29820, Note_on_c, 11, 86, 76
13, 29871, Note_on_c, 11, 86, 0
13, 29880, Note_on_c, 11, 84, 76
13, 29931, Note_on_c, 11, 84, 0
13, 29940, Note_on_c, 11, 84, 76
13, 29991, Note_on_c, 11, 84, 0
13, 30000, Note_on_c, 11, 86, 76
13, 30051, Note_on_c, 11, 86, 0
13, 30060, Note_on_c, 11, 86, 76
13, 30111, Note_on_c, 11, 86, 0
13, 30120, Note_on_c, 11, 88, 76
13, 30171, Note_on_c, 11, 88, 0
13, 30180, Note_on_c, 11, 88, 76
13, 30231, Note_on_c, 11, 88, 0
13, 30240, Note_on_c, 11, 89, 84
13, 30944, Note_on_c, 11, 89, 0
13, 30960, Note_on_c, 11, 65, 84
13, 31019, Note_on_c, 11, 65, 0
13, 31020, Note_on_c, 11, 63, 84
13, 31079, Note_on_c, 11, 63, 0
13, 31080, Note_on_c, 11, 61, 84
13, 31139, Note_on_c, 11, 61, 0
13, 31140, Note_on_c, 11, 60, 84
13, 31191, Note_on_c, 11, 60, 0
13, 31200, Note_on_c, 11, 59, 84
13, 31424, Note_on_c, 11, 59, 0
13, 31440, Note_on_c, 11, 59, 92
13, 31499, Note_on_c, 11, 59, 0
13, 31500, Note_on_c, 11, 58, 84
13, 31559, Note_on_c, 11, 58, 0
13, 31560, Note_on_c, 11, 59, 84
13, 31619, Note_on_c, 11, 59, 0
13, 31620, Note_on_c, 11, 62, 84
13, 31679, Note_on_c, 11, 62, 0
13, 31920, Note_on_c, 11, 59, 92
13, 31979, Note_on_c, 11, 59, 0
13, 31980, Note_on_c, 11, 58, 84
13, 32039, Note_on_c, 11, 58, 0
13, 32040, Note_on_c, 11, 59, 84
13, 32099, Note_on_c, 11, 59, 0
13, 32100, Note_on_c, 11, 62, 84
13, 32159, Note_on_c, 11, 62, 0
13, 32400, Note_on_c, 11, 59, 92
13, 32459, Note_on_c, 11, 59, 0
13, 32460, Note_on_c, 11, 58, 84
13, 32519, Note_on_c, 11, 58, 0
13, 32520, Note_on_c, 11, 59, 84
13, 32579, Note_on_c, 11, 59, 0
13, 32580, Note_on_c, 11, 62, 84
13, 32639, Note_on_c, 11, 62, 0
13, 32880, Note_on_c, 11, 59, 92
13, 32939, Note_on_c, 11, 59, 0
13, 32940, Note_on_c, 11, 58, 84
13, 32999, Note_on_c, 11, 58, 0
13, 33000, Note_on_c, 11, 59, 84
13, 33059, Note_on_c, 11, 59, 0
13, 33060, Note_on_c, 11, 62, 84
13, 33119, Note_on_c, 11, 62, 0
13, 33360, Note_on_c, 11, 84, 52
13, 33704, Note_on_c, 11, 84, 0
13, 33720, Note_on_c, 11, 86, 52
13, 33779, Note_on_c, 11, 86, 0
13, 33780, Note_on_c, 11, 84, 52
13, 33839, Note_on_c, 11, 84, 0
13, 33960, Note_on_c, 11, 82, 52
13, 34019, Note_on_c, 11, 82, 0
13, 34020, Note_on_c, 11, 81, 52
13, 34079, Note_on_c, 11, 81, 0
13, 34200, Note_on_c, 11, 84, 52
13, 34259, Note_on_c, 11, 84, 0
13, 34260, Note_on_c, 11, 82, 52
13, 34319, Note_on_c, 11, 82, 0
13, 34440, Note_on_c, 11, 81, 52
13, 34499, Note_on_c, 11, 81, 0
13, 34500, Note_on_c, 11, 79, 52
13, 34559, Note_on_c, 11, 79, 0
13, 34680, Note_on_c, 11, 79, 52
13, 34739, Note_on_c, 11, 79, 0
13, 34740, Note_on_c, 11, 77, 52
13, 34799, Note_on_c, 11, 77, 0
13, 34920, Note_on_c, 11, 77, 52
13, 34979, Note_on_c, 11, 77, 0
13, 34980, Note_on_c, 11, 76, 52
13, 35039, Note_on_c, 11, 76, 0
13, 35040, Note_on_c, 11, 80, 84
13, 35040, Note_on_c, 11, 71, 84
13, 35264, Note_on_c, 11, 80, 0
13, 35264, Note_on_c, 11, 71, 0
13, 35280, Note_on_c, 11, 59, 92
13, 35339, Note_on_c, 11, 59, 0
13, 35340, Note_on_c, 11, 58, 84
13, 35399, Note_on_c, 11, 58, 0
13, 35400, Note_on_c, 11, 59, 84
13, 35459, Note_on_c, 11, 59, 0
13, 35460, Note_on_c, 11, 62, 84
13, 35519, Note_on_c, 11, 62, 0
13, 35760, Note_on_c, 11, 59, 92
13, 35819, Note_on_c, 11, 59, 0
13, 35820, Note_on_c, 11, 58, 84
13, 35879, Note_on_c, 11, 58, 0
13, 35880, Note_on_c, 11, 59, 84
13, 35939, Note_on_c, 11, 59, 0
13, 35940, Note_on_c, 11, 62, 84
13, 35999, Note_on_c, 11, 62, 0
13, 36240, Note_on_c, 11, 59, 92
13, 36299, Note_on_c, 11, 59, 0
13, 36300, Note_on_c, 11, 58, 84
13, 36359, Note_on_c, 11, 58, 0
13, 36360, Note_on_c, 11, 59, 84
13, 36419, Note_on_c, 11, 59, 0
13, 36420, Note_on_c, 11, 62, 84
13, 36479, Note_on_c, 11, 62, 0
13, 36720, Note_on_c, 11, 59, 92
13, 36779, Note_on_c, 11, 59, 0
13, 36780, Note_on_c, 11, 58, 84
13, 36839, Note_on_c, 11, 58, 0
13, 36840, Note_on_c, 11, 59, 84
13, 36899, Note_on_c, 11, 59, 0
13, 36900, Note_on_c, 11, 62, 84
13, 36959, Note_on_c, 11, 62, 0
13, 37200, Note_on_c, 11, 86, 52
13, 37544, Note_on_c, 11, 86, 0
13, 37560, Note_on_c, 11, 87, 52
13, 37619, Note_on_c, 11, 87, 0
13, 37620, Note_on_c, 11, 86, 52
13, 37679, Note_on_c, 11, 86, 0
13, 37800, Note_on_c, 11, 84, 52
13, 37859, Note_on_c, 11, 84, 0
13, 37860, Note_on_c, 11, 82, 52
13, 37919, Note_on_c, 11, 82, 0
13, 38160, Note_on_c, 11, 88, 52
13, 38504, Note_on_c, 11, 88, 0
13, 38520, Note_on_c, 11, 89, 52
13, 38579, Note_on_c, 11, 89, 0
13, 38580, Note_on_c, 11, 88, 52
13, 38639, Note_on_c, 11, 88, 0
13, 38760, Note_on_c, 11, 86, 52
13, 38819, Note_on_c, 11, 86, 0
13, 38820, Note_on_c, 11, 84, 52
13, 38879, Note_on_c, 11, 84, 0
13, 39000, Note_on_c, 11, 89, 54
13, 39059, Note_on_c, 11, 89, 0
13, 39060, Note_on_c, 11, 84, 55
13, 39119, Note_on_c, 11, 84, 0
13, 39240, Note_on_c, 11, 81, 58
13, 39299, Note_on_c, 11, 81, 0
13, 39300, Note_on_c, 11, 77, 59
13, 39359, Note_on_c, 11, 77, 0
13, 39480, Note_on_c, 11, 86, 62
13, 39539, Note_on_c, 11, 86, 0
13, 39540, Note_on_c, 11, 82, 63
13, 39599, Note_on_c, 11, 82, 0
13, 39720, Note_on_c, 11, 79, 66
13, 39779, Note_on_c, 11, 79, 0
13, 39780, Note_on_c, 11, 84, 67
13, 39839, Note_on_c, 11, 84, 0
13, 39960, Note_on_c, 11, 89, 70
13, 40019, Note_on_c, 11, 89, 0
13, 40020, Note_on_c, 11, 84, 71
13, 40079, Note_on_c, 11, 84, 0
13, 40200, Note_on_c, 11, 81, 74
13, 40259, Note_on_c, 11, 81, 0
13, 40260, Note_on_c, 11, 77, 75
13, 40319, Note_on_c, 11, 77, 0
13, 40440, Note_on_c, 11, 86, 78
13, 40499, Note_on_c, 11, 86, 0
13, 40500, Note_on_c, 11, 82, 79
13, 40559, Note_on_c, 11, 82, 0
13, 40680, Note_on_c, 11, 79, 82
13, 40739, Note_on_c, 11, 79, 0
13, 40740, Note_on_c, 11, 84, 83
13, 40791, Note_on_c, 11, 84, 0
13, 40800, Note_on_c, 11, 77, 84
13, 40851, Note_on_c, 11, 77, 0
13, 40860, Note_on_c, 11, 89, 84
13, 40911, Note_on_c, 11, 89, 0
13, 40920, Note_on_c, 11, 89, 84
13, 40971, Note_on_c, 11, 89, 0
13, 40980, Note_on_c, 11, 84, 84
13, 41031, Note_on_c, 11, 84, 0
13, 41040, Note_on_c, 11, 81, 84
13, 41091, Note_on_c, 11, 81, 0
13, 41100, Note_on_c, 11, 81, 84
13, 41151, Note_on_c, 11, 81, 0
13, 41160, Note_on_c, 11, 81, 84
13, 41211, Note_on_c, 11, 81, 0
13, 41220, Note_on_c, 11, 77, 84
13, 41271, Note_on_c, 11, 77, 0
13, 41280, Note_on_c, 11, 86, 84
13, 41331, Note_on_c, 11, 86, 0
13, 41340, Note_on_c, 11, 86, 84
13, 41391, Note_on_c, 11, 86, 0
13, 41400, Note_on_c, 11, 86, 84
13, 41451, Note_on_c, 11, 86, 0
13, 41460, Note_on_c, 11, 82, 84
13, 41511, Note_on_c, 11, 82, 0
13, 41520, Note_on_c, 11, 79, 84
13, 41571, Note_on_c, 11, 79, 0
13, 41580, Note_on_c, 11, 79, 84
13, 41631, Note_on_c, 11, 79, 0
13, 41640, Note_on_c, 11, 79, 84
13, 41691, Note_on_c, 11, 79, 0
13, 41700, Note_on_c, 11, 84, 84
13, 41751, Note_on_c, 11, 84, 0
13, 41760, Note_on_c, 11, 84, 84
13, 42104, Note_on_c, 11, 84, 0
13, 42120, Note_on_c, 11, 82, 84
13, 42224, Note_on_c, 11, 82, 0
13, 42240, Note_on_c, 11, 81, 84
13, 42344, Note_on_c, 11, 81, 0
13, 42360, Note_on_c, 11, 81, 84
13, 42464, Note_on_c, 11, 81, 0
13, 42480, Note_on_c, 11, 79, 84
13, 42509, Note_on_c, 11, 79, 0
13, 42510, Note_on_c, 11, 81, 84
13, 42539, Note_on_c, 11, 81, 0
13, 42540, Note_on_c, 11, 79, 84
13, 42569, Note_on_c, 11, 79, 0
13, 42570, Note_on_c, 11, 81, 84
13, 42599, Note_on_c, 11, 81, 0
13, 42600, Note_on_c, 11, 79, 84
13, 42629, Note_on_c, 11, 79, 0
13, 42630, Note_on_c, 11, 81, 84
13, 42659, Note_on_c, 11, 81, 0
13, 42660, Note_on_c, 11, 77, 84
13, 42689, Note_on_c, 11, 77, 0
13, 42690, Note_on_c, 11, 79, 84
13, 42719, Note_on_c, 11, 79, 0
13, 42720, Note_on_c, 11, 77, 84
13, 42771, Note_on_c, 11, 77, 0
13, 42780, Note_on_c, 11, 76, 84
13, 42831, Note_on_c, 11, 76, 0
13, 42840, Note_on_c, 11, 77, 84
13, 42891, Note_on_c, 11, 77, 0
13, 42900, Note_on_c, 11, 81, 84
13, 42951, Note_on_c, 11, 81, 0
13, 42960, Note_on_c, 11, 74, 84
13, 43011, Note_on_c, 11, 74, 0
13, 43020, Note_on_c, 11, 76, 84
13, 43071, Note_on_c, 11, 76, 0
13, 43080, Note_on_c, 11, 77, 84
13, 43131, Note_on_c, 11, 77, 0
13, 43140, Note_on_c, 11, 79, 84
13, 43191, Note_on_c, 11, 79, 0
13, 43200, Note_on_c, 11, 72, 84
13, 43251, Note_on_c, 11, 72, 0
13, 43260, Note_on_c, 11, 74, 84
13, 43311, Note_on_c, 11, 74, 0
13, 43320, Note_on_c, 11, 76, 84
13, 43371, Note_on_c, 11, 76, 0
13, 43380, Note_on_c, 11, 77, 84
13, 43431, Note_on_c, 11, 77, 0
13, 43440, Note_on_c, 11, 70, 84
13, 43491, Note_on_c, 11, 70, 0
13, 43500, Note_on_c, 11, 72, 84
13, 43551, Note_on_c, 11, 72, 0
13, 43560, Note_on_c, 11, 74, 84
13, 43611, Note_on_c, 11, 74, 0
13, 43620, Note_on_c, 11, 76, 84
13, 43671, Note_on_c, 11, 76, 0
13, 43680, Note_on_c, 11, 69, 84
13, 43784, Note_on_c, 11, 69, 0
13, 43800, Note_on_c, 11, 84, 84
13, 44024, Note_on_c, 11, 84, 0
13, 44040, Note_on_c, 11, 82, 84
13, 44144, Note_on_c, 11, 82, 0
13, 44160, Note_on_c, 11, 81, 84
13, 44264, Note_on_c, 11, 81, 0
13, 44280, Note_on_c, 11, 81, 84
13, 44384, Note_on_c, 11, 81, 0
13, 44400, Note_on_c, 11, 79, 84
13, 44429, Note_on_c, 11, 79, 0
13, 44430, Note_on_c, 11, 81, 84
13, 44459, Note_on_c, 11, 81, 0
13, 44460, Note_on_c, 11, 79, 84
13, 44489, Note_on_c, 11, 79, 0
13, 44490, Note_on_c, 11, 81, 84
13, 44519, Note_on_c, 11, 81, 0
13, 44520, Note_on_c, 11, 79, 84
13, 44549, Note_on_c, 11, 79, 0
13, 44550, Note_on_c, 11, 81, 84
13, 44579, Note_on_c, 11, 81, 0
13, 44580, Note_on_c, 11, 77, 84
13, 44609, Note_on_c, 11, 77, 0
13, 44610, Note_on_c, 11, 79, 84
13, 44639, Note_on_c, 11, 79, 0
13, 44640, Note_on_c, 11, 77, 84
13, 44691, Note_on_c, 11, 77, 0
13, 44700, Note_on_c, 11, 76, 84
13, 44751, Note_on_c, 11, 76, 0
13, 44760, Note_on_c, 11, 77, 84
13, 44811, Note_on_c, 11, 77, 0
13, 44820, Note_on_c, 11, 81, 84
13, 44871, Note_on_c, 11, 81, 0
13, 44880, Note_on_c, 11, 74, 84
13, 44931, Note_on_c, 11, 74, 0
13, 44940, Note_on_c, 11, 76, 84
13, 44991, Note_on_c, 11, 76, 0
13, 45000, Note_on_c, 11, 77, 84
13, 45051, Note_on_c, 11, 77, 0
13, 45060, Note_on_c, 11, 79, 84
13, 45111, Note_on_c, 11, 79, 0
13, 45120, Note_on_c, 11, 72, 84
13, 45171, Note_on_c, 11, 72, 0
13, 45180, Note_on_c, 11, 74, 84
13, 45231, Note_on_c, 11, 74, 0
13, 45240, Note_on_c, 11, 76, 84
13, 45291, Note_on_c, 11, 76, 0
13, 45300, Note_on_c, 11, 77, 84
13, 45351, Note_on_c, 11, 77, 0
13, 45360, Note_on_c, 11, 70, 84
13, 45411, Note_on_c, 11, 70, 0
13, 45420, Note_on_c, 11, 72, 84
13, 45471, Note_on_c, 11, 72, 0
13, 45480, Note_on_c, 11, 74, 84
13, 45531, Note_on_c, 11, 74, 0
13, 45540, Note_on_c, 11, 76, 84
13, 45591, Note_on_c, 11, 76, 0
13, 45600, Note_on_c, 11, 77, 84
13, 45600, Note_on_c, 11, 69, 84
13, 45704, Note_on_c, 11, 77, 0
13, 45704, Note_on_c, 11, 69, 0
13, 45720, Note_on_c, 11, 77, 84
13, 45720, Note_on_c, 11, 69, 84
13, 45839, Note_on_c, 11, 77, 0
13, 45839, Note_on_c, 11, 69, 0
13, 45960, Note_on_c, 11, 69, 84
13, 45960, Note_on_c, 11, 81, 84
13, 46064, Note_on_c, 11, 69, 0
13, 46064, Note_on_c, 11, 81, 0
13, 46080, Note_on_c, 11, 77, 84
13, 46080, Note_on_c, 11, 69, 84
13, 46184, Note_on_c, 11, 77, 0
13, 46184, Note_on_c, 11, 69, 0
13, 46200, Note_on_c, 11, 69, 84
13, 46200, Note_on_c, 11, 77, 84
13, 46319, Note_on_c, 11, 69, 0
13, 46319, Note_on_c, 11, 77, 0
13, 46440, Note_on_c, 11, 69, 84
13, 46440, Note_on_c, 11, 81, 84
13, 46544, Note_on_c, 11, 69, 0
13, 46544, Note_on_c, 11, 81, 0
13, 46560, Note_on_c, 11, 69, 84
13, 46560, Note_on_c, 11, 77, 84
13, 46664, Note_on_c, 11, 69, 0
13, 46664, Note_on_c, 11, 77, 0
13, 46680, Note_on_c, 11, 69, 84
13, 46680, Note_on_c, 11, 77, 84
13, 46799, Note_on_c, 11, 69, 0
13, 46799, Note_on_c, 11, 77, 0
13, 46920, Note_on_c, 11, 81, 84
13, 46920, Note_on_c, 11, 69, 84
13, 47024, Note_on_c, 11, 81, 0
13, 47024, Note_on_c, 11, 69, 0
13, 47040, Note_on_c, 11, 77, 84
13, 47040, Note_on_c, 11, 69, 84
13, 47144, Note_on_c, 11, 77, 0
13, 47144, Note_on_c, 11, 69, 0
13, 47160, Note_on_c, 11, 69, 84
13, 47160, Note_on_c, 11, 81, 84
13, 47264, Note_on_c, 11, 69, 0
13, 47264, Note_on_c, 11, 81, 0
13, 47280, Note_on_c, 11, 77, 84
13, 47280, Note_on_c, 11, 69, 84
13, 47384, Note_on_c, 11, 77, 0
13, 47384, Note_on_c, 11, 69, 0
13, 47400, Note_on_c, 11, 81, 84
13, 47400, Note_on_c, 11, 69, 84
13, 47504, Note_on_c, 11, 81, 0
13, 47504, Note_on_c, 11, 69, 0
13, 47520, Note_on_c, 11, 65, 52
13, 47571, Note_on_c, 11, 65, 0
13, 47580, Note_on_c, 11, 64, 52
13, 47631, Note_on_c, 11, 64, 0
13, 47640, Note_on_c, 11, 65, 52
13, 47691, Note_on_c, 11, 65, 0
13, 47700, Note_on_c, 11, 69, 52
13, 47751, Note_on_c, 11, 69, 0
13, 47760, Note_on_c, 11, 60, 52
13, 47811, Note_on_c, 11, 60, 0
13, 47820, Note_on_c, 11, 62, 52
13, 47871, Note_on_c, 11, 62, 0
13, 47880, Note_on_c, 11, 63, 52
13, 47931, Note_on_c, 11, 63, 0
13, 47940, Note_on_c, 11, 64, 52
13, 47991, Note_on_c, 11, 64, 0
13, 48000, Note_on_c, 11, 65, 52
13, 48051, Note_on_c, 11, 65, 0
13, 48060, Note_on_c, 11, 64, 52
13, 48111, Note_on_c, 11, 64, 0
13, 48120, Note_on_c, 11, 65, 52
13, 48171, Note_on_c, 11, 65, 0
13, 48180, Note_on_c, 11, 69, 52
13, 48231, Note_on_c, 11, 69, 0
13, 48240, Note_on_c, 11, 62, 52
13, 48291, Note_on_c, 11, 62, 0
13, 48300, Note_on_c, 11, 63, 52
13, 48351, Note_on_c, 11, 63, 0
13, 48360, Note_on_c, 11, 65, 52
13, 48411, Note_on_c, 11, 65, 0
13, 48420, Note_on_c, 11, 66, 52
13, 48471, Note_on_c, 11, 66, 0
13, 48480, Note_on_c, 11, 67, 52
13, 48531, Note_on_c, 11, 67, 0
13, 48540, Note_on_c, 11, 66, 52
13, 48591, Note_on_c, 11, 66, 0
13, 48600, Note_on_c, 11, 67, 52
13, 48651, Note_on_c, 11, 67, 0
13, 48660, Note_on_c, 11, 70, 52
13, 48711, Note_on_c, 11, 70, 0
13, 48720, Note_on_c, 11, 63, 52
13, 48771, Note_on_c, 11, 63, 0
13, 48780, Note_on_c, 11, 65, 52
13, 48831, Note_on_c, 11, 65, 0
13, 48840, Note_on_c, 11, 66, 52
13, 48891, Note_on_c, 11, 66, 0
13, 48900, Note_on_c, 11, 67, 52
13, 48951, Note_on_c, 11, 67, 0
13, 48960, Note_on_c, 11, 69, 52
13, 49011, Note_on_c, 11, 69, 0
13, 49020, Note_on_c, 11, 68, 52
13, 49071, Note_on_c, 11, 68, 0
13, 49080, Note_on_c, 11, 69, 52
13, 49131, Note_on_c, 11, 69, 0
13, 49140, Note_on_c, 11, 72, 52
13, 49191, Note_on_c, 11, 72, 0
13, 49200, Note_on_c, 11, 65, 52
13, 49251, Note_on_c, 11, 65, 0
13, 49260, Note_on_c, 11, 67, 52
13, 49311, Note_on_c, 11, 67, 0
13, 49320, Note_on_c, 11, 68, 52
13, 49371, Note_on_c, 11, 68, 0
13, 49380, Note_on_c, 11, 69, 52
13, 49431, Note_on_c, 11, 69, 0
13, 49440, Note_on_c, 11, 70, 52
13, 49491, Note_on_c, 11, 70, 0
13, 49500, Note_on_c, 11, 69, 52
13, 49551, Note_on_c, 11, 69, 0
13, 49560, Note_on_c, 11, 70, 52
13, 49611, Note_on_c, 11, 70, 0
13, 49620, Note_on_c, 11, 74, 52
13, 49671, Note_on_c, 11, 74, 0
13, 49680, Note_on_c, 11, 65, 52
13, 49731, Note_on_c, 11, 65, 0
13, 49740, Note_on_c, 11, 67, 52
13, 49791, Note_on_c, 11, 67, 0
13, 49800, Note_on_c, 11, 69, 52
13, 49851, Note_on_c, 11, 69, 0
13, 49860, Note_on_c, 11, 70, 52
13, 49891, Note_on_c, 11, 70, 0
13, 49900, Note_on_c, 11, 74, 52
13, 49919, Note_on_c, 11, 74, 0
13, 49920, Note_on_c, 11, 72, 52
13, 49971, Note_on_c, 11, 72, 0
13, 49980, Note_on_c, 11, 71, 52
13, 50031, Note_on_c, 11, 71, 0
13, 50040, Note_on_c, 11, 72, 52
13, 50091, Note_on_c, 11, 72, 0
13, 50100, Note_on_c, 11, 75, 52
13, 50159, Note_on_c, 11, 75, 0
13, 50640, Note_on_c, 11, 81, 76
13, 50640, Note_on_c, 11, 65, 76
13, 50640, Note_on_c, 11, 72, 76
13, 50759, Note_on_c, 11, 81, 0
13, 50759, Note_on_c, 11, 65, 0
13, 50759, Note_on_c, 11, 72, 0
13, 50880, Note_on_c, 11, 74, 76
13, 50880, Note_on_c, 11, 65, 76
13, 50880, Note_on_c, 11, 82, 76
13, 50999, Note_on_c, 11, 74, 0
13, 50999, Note_on_c, 11, 65, 0
13, 50999, Note_on_c, 11, 82, 0
13, 51120, Note_on_c, 11, 69, 76
13, 51120, Note_on_c, 11, 84, 76
13, 51239, Note_on_c, 11, 69, 0
13, 51239, Note_on_c, 11, 84, 0
13, 51360, Note_on_c, 11, 62, 44
13, 51411, Note_on_c, 11, 62, 0
13, 51420, Note_on_c, 11, 60, 44
13, 51471, Note_on_c, 11, 60, 0
13, 51480, Note_on_c, 11, 62, 44
13, 51531, Note_on_c, 11, 62, 0
13, 51540, Note_on_c, 11, 65, 44
13, 51591, Note_on_c, 11, 65, 0
13, 51600, Note_on_c, 11, 62, 44
13, 51651, Note_on_c, 11, 62, 0
13, 51660, Note_on_c, 11, 63, 44
13, 51711, Note_on_c, 11, 63, 0
13, 51720, Note_on_c, 11, 65, 44
13, 51771, Note_on_c, 11, 65, 0
13, 51780, Note_on_c, 11, 63, 44
13, 51831, Note_on_c, 11, 63, 0
13, 51840, Note_on_c, 11, 62, 44
13, 51891, Note_on_c, 11, 62, 0
13, 51900, Note_on_c, 11, 60, 44
13, 51951, Note_on_c, 11, 60, 0
13, 51960, Note_on_c, 11, 62, 44
13, 52011, Note_on_c, 11, 62, 0
13, 52020, Note_on_c, 11, 65, 44
13, 52071, Note_on_c, 11, 65, 0
13, 52080, Note_on_c, 11, 63, 44
13, 52131, Note_on_c, 11, 63, 0
13, 52140, Note_on_c, 11, 65, 44
13, 52191, Note_on_c, 11, 65, 0
13, 52200, Note_on_c, 11, 67, 44
13, 52251, Note_on_c, 11, 67, 0
13, 52260, Note_on_c, 11, 65, 44
13, 52311, Note_on_c, 11, 65, 0
13, 52320, Note_on_c, 11, 63, 44
13, 52371, Note_on_c, 11, 63, 0
13, 52380, Note_on_c, 11, 62, 44
13, 52431, Note_on_c, 11, 62, 0
13, 52440, Note_on_c, 11, 63, 44
13, 52491, Note_on_c, 11, 63, 0
13, 52500, Note_on_c, 11, 67, 44
13, 52551, Note_on_c, 11, 67, 0
13, 52560, Note_on_c, 11, 63, 44
13, 52611, Note_on_c, 11, 63, 0
13, 52620, Note_on_c, 11, 65, 44
13, 52671, Note_on_c, 11, 65, 0
13, 52680, Note_on_c, 11, 67, 44
13, 52731, Note_on_c, 11, 67, 0
13, 52740, Note_on_c, 11, 65, 44
13, 52791, Note_on_c, 11, 65, 0
13, 52800, Note_on_c, 11, 63, 44
13, 52851, Note_on_c, 11, 63, 0
13, 52860, Note_on_c, 11, 62, 44
13, 52911, Note_on_c, 11, 62, 0
13, 52920, Note_on_c, 11, 63, 44
13, 52971, Note_on_c, 11, 63, 0
13, 52980, Note_on_c, 11, 67, 44
13, 53031, Note_on_c, 11, 67, 0
13, 53040, Note_on_c, 11, 65, 44
13, 53091, Note_on_c, 11, 65, 0
13, 53100, Note_on_c, 11, 67, 44
13, 53151, Note_on_c, 11, 67, 0
13, 53160, Note_on_c, 11, 68, 44
13, 53211, Note_on_c, 11, 68, 0
13, 53220, Note_on_c, 11, 67, 44
13, 53271, Note_on_c, 11, 67, 0
13, 53280, Note_on_c, 11, 65, 44
13, 53331, Note_on_c, 11, 65, 0
13, 53340, Note_on_c, 11, 63, 44
13, 53391, Note_on_c, 11, 63, 0
13, 53400, Note_on_c, 11, 65, 44
13, 53451, Note_on_c, 11, 65, 0
13, 53460, Note_on_c, 11, 68, 44
13, 53511, Note_on_c, 11, 68, 0
13, 53520, Note_on_c, 11, 67, 44
13, 53571, Note_on_c, 11, 67, 0
13, 53580, Note_on_c, 11, 68, 44
13, 53631, Note_on_c, 11, 68, 0
13, 53640, Note_on_c, 11, 70, 44
13, 53691, Note_on_c, 11, 70, 0
13, 53700, Note_on_c, 11, 68, 44
13, 53751, Note_on_c, 11, 68, 0
13, 53760, Note_on_c, 11, 67, 44
13, 53811, Note_on_c, 11, 67, 0
13, 53820, Note_on_c, 11, 65, 44
13, 53871, Note_on_c, 11, 65, 0
13, 53880, Note_on_c, 11, 67, 44
13, 53931, Note_on_c, 11, 67, 0
13, 53940, Note_on_c, 11, 70, 44
13, 53991, Note_on_c, 11, 70, 0
13, 54000, Note_on_c, 11, 69, 44
13, 54051, Note_on_c, 11, 69, 0
13, 54060, Note_on_c, 11, 70, 44
13, 54111, Note_on_c, 11, 70, 0
13, 54120, Note_on_c, 11, 72, 44
13, 54171, Note_on_c, 11, 72, 0
13, 54180, Note_on_c, 11, 70, 44
13, 54231, Note_on_c, 11, 70, 0
13, 54240, Note_on_c, 11, 69, 44
13, 54291, Note_on_c, 11, 69, 0
13, 54300, Note_on_c, 11, 70, 44
13, 54351, Note_on_c, 11, 70, 0
13, 54360, Note_on_c, 11, 72, 44
13, 54411, Note_on_c, 11, 72, 0
13, 54420, Note_on_c, 11, 70, 44
13, 54471, Note_on_c, 11, 70, 0
13, 54480, Note_on_c, 11, 69, 44
13, 54531, Note_on_c, 11, 69, 0
13, 54540, Note_on_c, 11, 70, 44
13, 54591, Note_on_c, 11, 70, 0
13, 54600, Note_on_c, 11, 72, 44
13, 54651, Note_on_c, 11, 72, 0
13, 54660, Note_on_c, 11, 74, 44
13, 54711, Note_on_c, 11, 74, 0
13, 54720, Note_on_c, 11, 75, 44
13, 55079, Note_on_c, 11, 75, 0
13, 55080, Note_on_c, 11, 72, 44
13, 55184, Note_on_c, 11, 72, 0
13, 55200, Note_on_c, 11, 70, 44
13, 55559, Note_on_c, 11, 70, 0
13, 55560, Note_on_c, 11, 67, 44
13, 55664, Note_on_c, 11, 67, 0
13, 55680, Note_on_c, 11, 65, 44
13, 55799, Note_on_c, 11, 65, 0
13, 55920, Note_on_c, 11, 65, 44
13, 56039, Note_on_c, 11, 65, 0
13, 56160, Note_on_c, 11, 65, 44
13, 56639, Note_on_c, 11, 65, 0
13, 58080, Note_on_c, 11, 74, 44
13, 58131, Note_on_c, 11, 74, 0
13, 58140, Note_on_c, 11, 72, 44
13, 58191, Note_on_c, 11, 72, 0
13, 58200, Note_on_c, 11, 74, 44
13, 58251, Note_on_c, 11, 74, 0
13, 58260, Note_on_c, 11, 77, 44
13, 58311, Note_on_c, 11, 77, 0
13, 58320, Note_on_c, 11, 75, 44
13, 58371, Note_on_c, 11, 75, 0
13, 58380, Note_on_c, 11, 74, 44
13, 58431, Note_on_c, 11, 74, 0
13, 58440, Note_on_c, 11, 72, 44
13, 58491, Note_on_c, 11, 72, 0
13, 58500, Note_on_c, 11, 74, 44
13, 58551, Note_on_c, 11, 74, 0
13, 58560, Note_on_c, 11, 77, 44
13, 58679, Note_on_c, 11, 77, 0
13, 58800, Note_on_c, 11, 77, 64
13, 58919, Note_on_c, 11, 77, 0
13, 59040, Note_on_c, 11, 82, 84
13, 59091, Note_on_c, 11, 82, 0
13, 59100, Note_on_c, 11, 81, 84
13, 59151, Note_on_c, 11, 81, 0
13, 59160, Note_on_c, 11, 82, 84
13, 59211, Note_on_c, 11, 82, 0
13, 59220, Note_on_c, 11, 86, 84
13, 59271, Note_on_c, 11, 86, 0
13, 59280, Note_on_c, 11, 84, 84
13, 59331, Note_on_c, 11, 84, 0
13, 59340, Note_on_c, 11, 82, 84
13, 59391, Note_on_c, 11, 82, 0
13, 59400, Note_on_c, 11, 81, 84
13, 59451, Note_on_c, 11, 81, 0
13, 59460, Note_on_c, 11, 82, 84
13, 59511, Note_on_c, 11, 82, 0
13, 59520, Note_on_c, 11, 81, 84
13, 59571, Note_on_c, 11, 81, 0
13, 59580, Note_on_c, 11, 79, 84
13, 59631, Note_on_c, 11, 79, 0
13, 59640, Note_on_c, 11, 77, 84
13, 59691, Note_on_c, 11, 77, 0
13, 59700, Note_on_c, 11, 79, 84
13, 59751, Note_on_c, 11, 79, 0
13, 59760, Note_on_c, 11, 77, 84
13, 59811, Note_on_c, 11, 77, 0
13, 59820, Note_on_c, 11, 75, 84
13, 59871, Note_on_c, 11, 75, 0
13, 59880, Note_on_c, 11, 74, 84
13, 59931, Note_on_c, 11, 74, 0
13, 59940, Note_on_c, 11, 75, 84
13, 59991, Note_on_c, 11, 75, 0
13, 60000, Note_on_c, 11, 74, 84
13, 60051, Note_on_c, 11, 74, 0
13, 60060, Note_on_c, 11, 72, 84
13, 60111, Note_on_c, 11, 72, 0
13, 60120, Note_on_c, 11, 70, 84
13, 60171, Note_on_c, 11, 70, 0
13, 60180, Note_on_c, 11, 72, 84
13, 60231, Note_on_c, 11, 72, 0
13, 60240, Note_on_c, 11, 70, 84
13, 60291, Note_on_c, 11, 70, 0
13, 60300, Note_on_c, 11, 69, 84
13, 60351, Note_on_c, 11, 69, 0
13, 60360, Note_on_c, 11, 67, 84
13, 60411, Note_on_c, 11, 67, 0
13, 60420, Note_on_c, 11, 69, 84
13, 60471, Note_on_c, 11, 69, 0
13, 60480, Note_on_c, 11, 67, 84
13, 60531, Note_on_c, 11, 67, 0
13, 60540, Note_on_c, 11, 65, 84
13, 60591, Note_on_c, 11, 65, 0
13, 60600, Note_on_c, 11, 63, 84
13, 60651, Note_on_c, 11, 63, 0
13, 60660, Note_on_c, 11, 62, 84
13, 60711, Note_on_c, 11, 62, 0
13, 60720, Note_on_c, 11, 60, 84
13, 60824, Note_on_c, 11, 60, 0
13, 60840, Note_on_c, 11, 65, 84
13, 60944, Note_on_c, 11, 65, 0
13, 60960, Note_on_c, 11, 58, 84
13, 61011, Note_on_c, 11, 58, 0
13, 61020, Note_on_c, 11, 62, 84
13, 61071, Note_on_c, 11, 62, 0
13, 61080, Note_on_c, 11, 65, 84
13, 61131, Note_on_c, 11, 65, 0
13, 61140, Note_on_c, 11, 70, 84
13, 61191, Note_on_c, 11, 70, 0
13, 61200, Note_on_c, 11, 74, 84
13, 61251, Note_on_c, 11, 74, 0
13, 61260, Note_on_c, 11, 77, 84
13, 61311, Note_on_c, 11, 77, 0
13, 61320, Note_on_c, 11, 82, 84
13, 61371, Note_on_c, 11, 82, 0
13, 61380, Note_on_c, 11, 82, 84
13, 61431, Note_on_c, 11, 82, 0
13, 61440, Note_on_c, 11, 82, 84
13, 61784, Note_on_c, 11, 82, 0
13, 61800, Note_on_c, 11, 89, 84
13, 61904, Note_on_c, 11, 89, 0
13, 61920, Note_on_c, 11, 81, 84
13, 62024, Note_on_c, 11, 81, 0
13, 62040, Note_on_c, 11, 87, 84
13, 62144, Note_on_c, 11, 87, 0
13, 62160, Note_on_c, 11, 81, 84
13, 62264, Note_on_c, 11, 81, 0
13, 62280, Note_on_c, 11, 84, 84
13, 62384, Note_on_c, 11, 84, 0
13, 62400, Note_on_c, 11, 75, 84
13, 62504, Note_on_c, 11, 75, 0
13, 62520, Note_on_c, 11, 79, 84
13, 62624, Note_on_c, 11, 79, 0
13, 62640, Note_on_c, 11, 72, 84
13, 62744, Note_on_c, 11, 72, 0
13, 62760, Note_on_c, 11, 77, 84
13, 62864, Note_on_c, 11, 77, 0
13, 62880, Note_on_c, 11, 58, 84
13, 62931, Note_on_c, 11, 58, 0
13, 62940, Note_on_c, 11, 62, 84
13, 62991, Note_on_c, 11, 62, 0
13, 63000, Note_on_c, 11, 65, 84
13, 63051, Note_on_c, 11, 65, 0
13, 63060, Note_on_c, 11, 70, 84
13, 63111, Note_on_c, 11, 70, 0
13, 63120, Note_on_c, 11, 74, 84
13, 63171, Note_on_c, 11, 74, 0
13, 63180, Note_on_c, 11, 79, 84
13, 63231, Note_on_c, 11, 79, 0
13, 63240, Note_on_c, 11, 82, 84
13, 63291, Note_on_c, 11, 82, 0
13, 63300, Note_on_c, 11, 82, 84
13, 63351, Note_on_c, 11, 82, 0
13, 63360, Note_on_c, 11, 82, 84
13, 63411, Note_on_c, 11, 82, 0
13, 63420, Note_on_c, 11, 82, 84
13, 63471, Note_on_c, 11, 82, 0
13, 63480, Note_on_c, 11, 82, 84
13, 63531, Note_on_c, 11, 82, 0
13, 63540, Note_on_c, 11, 82, 84
13, 63591, Note_on_c, 11, 82, 0
13, 63600, Note_on_c, 11, 82, 84
13, 63651, Note_on_c, 11, 82, 0
13, 63660, Note_on_c, 11, 82, 84
13, 63711, Note_on_c, 11, 82, 0
13, 63720, Note_on_c, 11, 82, 84
13, 63771, Note_on_c, 11, 82, 0
13, 63780, Note_on_c, 11, 82, 84
13, 63831, Note_on_c, 11, 82, 0
13, 63840, Note_on_c, 11, 81, 84
13, 63891, Note_on_c, 11, 81, 0
13, 63900, Note_on_c, 11, 81, 84
13, 63951, Note_on_c, 11, 81, 0
13, 63960, Note_on_c, 11, 84, 84
13, 64011, Note_on_c, 11, 84, 0
13, 64020, Note_on_c, 11, 84, 84
13, 64071, Note_on_c, 11, 84, 0
13, 64080, Note_on_c, 11, 77, 84
13, 64131, Note_on_c, 11, 77, 0
13, 64140, Note_on_c, 11, 77, 84
13, 64191, Note_on_c, 11, 77, 0
13, 64200, Note_on_c, 11, 81, 84
13, 64251, Note_on_c, 11, 81, 0
13, 64260, Note_on_c, 11, 81, 84
13, 64311, Note_on_c, 11, 81, 0
13, 64320, Note_on_c, 11, 74, 84
13, 64371, Note_on_c, 11, 74, 0
13, 64380, Note_on_c, 11, 74, 84
13, 64431, Note_on_c, 11, 74, 0
13, 64440, Note_on_c, 11, 77, 84
13, 64491, Note_on_c, 11, 77, 0
13, 64500, Note_on_c, 11, 77, 84
13, 64551, Note_on_c, 11, 77, 0
13, 64560, Note_on_c, 11, 69, 84
13, 64611, Note_on_c, 11, 69, 0
13, 64620, Note_on_c, 11, 69, 84
13, 64671, Note_on_c, 11, 69, 0
13, 64680, Note_on_c, 11, 71, 84
13, 64731, Note_on_c, 11, 71, 0
13, 64740, Note_on_c, 11, 71, 84
13, 64791, Note_on_c, 11, 71, 0
13, 64800, Note_on_c, 11, 72, 84
13, 64851, Note_on_c, 11, 72, 0
13, 64860, Note_on_c, 11, 72, 84
13, 64911, Note_on_c, 11, 72, 0
13, 64920, Note_on_c, 11, 76, 84
13, 64971, Note_on_c, 11, 76, 0
13, 64980, Note_on_c, 11, 76, 84
13, 65031, Note_on_c, 11, 76, 0
13, 65040, Note_on_c, 11, 79, 84
13, 65091, Note_on_c, 11, 79, 0
13, 65100, Note_on_c, 11, 79, 84
13, 65151, Note_on_c, 11, 79, 0
13, 65160, Note_on_c, 11, 81, 84
13, 65211, Note_on_c, 11, 81, 0
13, 65220, Note_on_c, 11, 81, 84
13, 65271, Note_on_c, 11, 81, 0
13, 65280, Note_on_c, 11, 82, 84
13, 65331, Note_on_c, 11, 82, 0
13, 65340, Note_on_c, 11, 82, 84
13, 65391, Note_on_c, 11, 82, 0
13, 65400, Note_on_c, 11, 82, 84
13, 65451, Note_on_c, 11, 82, 0
13, 65460, Note_on_c, 11, 82, 84
13, 65511, Note_on_c, 11, 82, 0
13, 65520, Note_on_c, 11, 82, 84
13, 65571, Note_on_c, 11, 82, 0
13, 65580, Note_on_c, 11, 82, 84
13, 65631, Note_on_c, 11, 82, 0
13, 65640, Note_on_c, 11, 82, 84
13, 65691, Note_on_c, 11, 82, 0
13, 65700, Note_on_c, 11, 82, 84
13, 65751, Note_on_c, 11, 82, 0
13, 65760, Note_on_c, 11, 82, 84
13, 65811, Note_on_c, 11, 82, 0
13, 65820, Note_on_c, 11, 82, 84
13, 65871, Note_on_c, 11, 82, 0
13, 65880, Note_on_c, 11, 82, 84
13, 65931, Note_on_c, 11, 82, 0
13, 65940, Note_on_c, 11, 82, 84
13, 65991, Note_on_c, 11, 82, 0
13, 66000, Note_on_c, 11, 82, 84
13, 66051, Note_on_c, 11, 82, 0
13, 66060, Note_on_c, 11, 82, 84
13, 66111, Note_on_c, 11, 82, 0
13, 66120, Note_on_c, 11, 82, 84
13, 66171, Note_on_c, 11, 82, 0
13, 66180, Note_on_c, 11, 82, 84
13, 66231, Note_on_c, 11, 82, 0
13, 66240, Note_on_c, 11, 86, 84
13, 66291, Note_on_c, 11, 86, 0
13, 66300, Note_on_c, 11, 86, 80
13, 66351, Note_on_c, 11, 86, 0
13, 66360, Note_on_c, 11, 84, 76
13, 66411, Note_on_c, 11, 84, 0
13, 66420, Note_on_c, 11, 84, 72
13, 66471, Note_on_c, 11, 84, 0
13, 66480, Note_on_c, 11, 82, 68
13, 66531, Note_on_c, 11, 82, 0
13, 66540, Note_on_c, 11, 82, 64
13, 66591, Note_on_c, 11, 82, 0
13, 66600, Note_on_c, 11, 79, 60
13, 66651, Note_on_c, 11, 79, 0
13, 66660, Note_on_c, 11, 79, 56
13, 66711, Note_on_c, 11, 79, 0
13, 66720, Note_on_c, 11, 77, 52
13, 66944, Note_on_c, 11, 77, 0
13, 66960, Note_on_c, 11, 65, 52
13, 67199, Note_on_c, 11, 65, 0
13, 67200, Note_on_c, 11, 67, 52
13, 67679, Note_on_c, 11, 67, 0
13, 67680, Note_on_c, 11, 69, 52
13, 68159, Note_on_c, 11, 69, 0
13, 68160, Note_on_c, 11, 67, 52
13, 68624, Note_on_c, 11, 67, 0
13, 68640, Note_on_c, 11, 67, 52
13, 68984, Note_on_c, 11, 67, 0
13, 69000, Note_on_c, 11, 67, 52
13, 69104, Note_on_c, 11, 67, 0
13, 69120, Note_on_c, 11, 67, 52
13, 69239, Note_on_c, 11, 67, 0
13, 69360, Note_on_c, 11, 67, 52
13, 69479, Note_on_c, 11, 67, 0
13, 69600, Note_on_c, 11, 67, 52
13, 69719, Note_on_c, 11, 67, 0
13, 69840, Note_on_c, 11, 67, 52
13, 69959, Note_on_c, 11, 67, 0
13, 70080, Note_on_c, 11, 67, 52
13, 70169, Note_on_c, 11, 67, 0
13, 70200, Note_on_c, 11, 72, 52
13, 70319, Note_on_c, 11, 72, 0
13, 70320, Note_on_c, 11, 70, 52
13, 70439, Note_on_c, 11, 70, 0
13, 70440, Note_on_c, 11, 67, 52
13, 70544, Note_on_c, 11, 67, 0
13, 70560, Note_on_c, 11, 69, 52
13, 70679, Note_on_c, 11, 69, 0
13, 70680, Note_on_c, 11, 70, 52
13, 70799, Note_on_c, 11, 70, 0
13, 70800, Note_on_c, 11, 71, 52
13, 70919, Note_on_c, 11, 71, 0
13, 70920, Note_on_c, 11, 72, 52
13, 71144, Note_on_c, 11, 72, 0
13, 71160, Note_on_c, 11, 72, 52
13, 71384, Note_on_c, 11, 72, 0
13, 71400, Note_on_c, 11, 76, 52
13, 71624, Note_on_c, 11, 76, 0
13, 71640, Note_on_c, 11, 77, 52
13, 71864, Note_on_c, 11, 77, 0
13, 71880, Note_on_c, 11, 81, 52
13, 72104, Note_on_c, 11, 81, 0
13, 72120, Note_on_c, 11, 84, 52
13, 72344, Note_on_c, 11, 84, 0
13, 72360, Note_on_c, 11, 76, 52
13, 72464, Note_on_c, 11, 76, 0
13, 72480, Note_on_c, 11, 79, 52
13, 72839, Note_on_c, 11, 79, 0
13, 72840, Note_on_c, 11, 77, 52
13, 72944, Note_on_c, 11, 77, 0
13, 72960, Note_on_c, 11, 76, 52
13, 73079, Note_on_c, 11, 76, 0
13, 73080, Note_on_c, 11, 79, 52
13, 73184, Note_on_c, 11, 79, 0
13, 73200, Note_on_c, 11, 72, 52
13, 73319, Note_on_c, 11, 72, 0
13, 73320, Note_on_c, 11, 76, 52
13, 73424, Note_on_c, 11, 76, 0
13, 73440, Note_on_c, 11, 67, 52
13, 73559, Note_on_c, 11, 67, 0
13, 73560, Note_on_c, 11, 72, 52
13, 73664, Note_on_c, 11, 72, 0
13, 73680, Note_on_c, 11, 71, 52
13, 73799, Note_on_c, 11, 71, 0
13, 73800, Note_on_c, 11, 74, 52
13, 73904, Note_on_c, 11, 74, 0
13, 73920, Note_on_c, 11, 72, 52
13, 74039, Note_on_c, 11, 72, 0
13, 75240, Note_on_c, 11, 81, 76
13, 75344, Note_on_c, 11, 81, 0
13, 75360, Note_on_c, 11, 79, 76
13, 75479, Note_on_c, 11, 79, 0
13, 75480, Note_on_c, 11, 77, 76
13, 75584, Note_on_c, 11, 77, 0
13, 75600, Note_on_c, 11, 79, 76
13, 75689, Note_on_c, 11, 79, 0
13, 75720, Note_on_c, 11, 81, 76
13, 75809, Note_on_c, 11, 81, 0
13, 75840, Note_on_c, 11, 82, 76
13, 75959, Note_on_c, 11, 82, 0
13, 77160, Note_on_c, 11, 81, 76
13, 77264, Note_on_c, 11, 81, 0
13, 77280, Note_on_c, 11, 79, 76
13, 77399, Note_on_c, 11, 79, 0
13, 77400, Note_on_c, 11, 77, 76
13, 77504, Note_on_c, 11, 77, 0
13, 77520, Note_on_c, 11, 79, 76
13, 77609, Note_on_c, 11, 79, 0
13, 77640, Note_on_c, 11, 81, 76
13, 77729, Note_on_c, 11, 81, 0
13, 77760, Note_on_c, 11, 82, 76
13, 77864, Note_on_c, 11, 82, 0
13, 77880, Note_on_c, 11, 82, 76
13, 77999, Note_on_c, 11, 82, 0
13, 78120, Note_on_c, 11, 81, 76
13, 78171, Note_on_c, 11, 81, 0
13, 78180, Note_on_c, 11, 81, 76
13, 78231, Note_on_c, 11, 81, 0
13, 78240, Note_on_c, 11, 79, 76
13, 78291, Note_on_c, 11, 79, 0
13, 78300, Note_on_c, 11, 79, 76
13, 78351, Note_on_c, 11, 79, 0
13, 78360, Note_on_c, 11, 77, 76
13, 78411, Note_on_c, 11, 77, 0
13, 78420, Note_on_c, 11, 77, 76
13, 78471, Note_on_c, 11, 77, 0
13, 78480, Note_on_c, 11, 79, 76
13, 78531, Note_on_c, 11, 79, 0
13, 78540, Note_on_c, 11, 79, 76
13, 78591, Note_on_c, 11, 79, 0
13, 78600, Note_on_c, 11, 81, 76
13, 78651, Note_on_c, 11, 81, 0
13, 78660, Note_on_c, 11, 81, 76
13, 78711, Note_on_c, 11, 81, 0
13, 78720, Note_on_c, 11, 82, 76
13, 78824, Note_on_c, 11, 82, 0
13, 78840, Note_on_c, 11, 82, 76
13, 78959, Note_on_c, 11, 82, 0
13, 79080, Note_on_c, 11, 84, 76
13, 79131, Note_on_c, 11, 84, 0
13, 79140, Note_on_c, 11, 84, 76
13, 79191, Note_on_c, 11, 84, 0
13, 79200, Note_on_c, 11, 86, 76
13, 79251, Note_on_c, 11, 86, 0
13, 79260, Note_on_c, 11, 86, 76
13, 79311, Note_on_c, 11, 86, 0
13, 79320, Note_on_c, 11, 84, 76
13, 79371, Note_on_c, 11, 84, 0
13, 79380, Note_on_c, 11, 84, 76
13, 79431, Note_on_c, 11, 84, 0
13, 79440, Note_on_c, 11, 86, 76
13, 79491, Note_on_c, 11, 86, 0
13, 79500, Note_on_c, 11, 86, 76
13, 79551, Note_on_c, 11, 86, 0
13, 79560, Note_on_c, 11, 88, 76
13, 79611, Note_on_c, 11, 88, 0
13, 79620, Note_on_c, 11, 88, 76
13, 79671, Note_on_c, 11, 88, 0
13, 79680, Note_on_c, 11, 89, 84
13, 80384, Note_on_c, 11, 89, 0
13, 80400, Note_on_c, 11, 65, 84
13, 80459, Note_on_c, 11, 65, 0
13, 80460, Note_on_c, 11, 63, 84
13, 80519, Note_on_c, 11, 63, 0
13, 80520, Note_on_c, 11, 61, 84
13, 80579, Note_on_c, 11, 61, 0
13, 80580, Note_on_c, 11, 60, 84
13, 80631, Note_on_c, 11, 60, 0
13, 80640, Note_on_c, 11, 59, 84
13, 80864, Note_on_c, 11, 59, 0
13, 80880, Note_on_c, 11, 59, 92
13, 80939, Note_on_c, 11, 59, 0
13, 80940, Note_on_c, 11, 58, 84
13, 80999, Note_on_c, 11, 58, 0
13, 81000, Note_on_c, 11, 59, 84
13, 81059, Note_on_c, 11, 59, 0
13, 81060, Note_on_c, 11, 62, 84
13, 81119, Note_on_c, 11, 62, 0
13, 81360, Note_on_c, 11, 59, 92
13, 81419, Note_on_c, 11, 59, 0
13, 81420, Note_on_c, 11, 58, 84
13, 81479, Note_on_c, 11, 58, 0
13, 81480, Note_on_c, 11, 59, 84
13, 81539, Note_on_c, 11, 59, 0
13, 81540, Note_on_c, 11, 62, 84
13, 81599, Note_on_c, 11, 62, 0
13, 81840, Note_on_c, 11, 59, 92
13, 81899, Note_on_c, 11, 59, 0
13, 81900, Note_on_c, 11, 58, 84
13, 81959, Note_on_c, 11, 58, 0
13, 81960, Note_on_c, 11, 59, 84
13, 82019, Note_on_c, 11, 59, 0
13, 82020, Note_on_c, 11, 62, 84
13, 82079, Note_on_c, 11, 62, 0
13, 82320, Note_on_c, 11, 59, 92
13, 82379, Note_on_c, 11, 59, 0
13, 82380, Note_on_c, 11, 58, 84
13, 82439, Note_on_c, 11, 58, 0
13, 82440, Note_on_c, 11, 59, 84
13, 82499, Note_on_c, 11, 59, 0
13, 82500, Note_on_c, 11, 62, 84
13, 82559, Note_on_c, 11, 62, 0
13, 82800, Note_on_c, 11, 84, 52
13, 83144, Note_on_c, 11, 84, 0
13, 83160, Note_on_c, 11, 86, 52
13, 83219, Note_on_c, 11, 86, 0
13, 83220, Note_on_c, 11, 84, 52
13, 83279, Note_on_c, 11, 84, 0
13, 83400, Note_on_c, 11, 82, 52
13, 83459, Note_on_c, 11, 82, 0
13, 83460, Note_on_c, 11, 81, 52
13, 83519, Note_on_c, 11, 81, 0
13, 83640, Note_on_c, 11, 84, 52
13, 83699, Note_on_c, 11, 84, 0
13, 83700, Note_on_c, 11, 82, 52
13, 83759, Note_on_c, 11, 82, 0
13, 83880, Note_on_c, 11, 81, 52
13, 83939, Note_on_c, 11, 81, 0
13, 83940, Note_on_c, 11, 79, 52
13, 83999, Note_on_c, 11, 79, 0
13, 84120, Note_on_c, 11, 79, 52
13, 84179, Note_on_c, 11, 79, 0
13, 84180, Note_on_c, 11, 77, 52
13, 84239, Note_on_c, 11, 77, 0
13, 84360, Note_on_c, 11, 77, 52
13, 84419, Note_on_c, 11, 77, 0
13, 84420, Note_on_c, 11, 76, 52
13, 84479, Note_on_c, 11, 76, 0
13, 84480, Note_on_c, 11, 71, 84
13, 84480, Note_on_c, 11, 80, 84
13, 84704, Note_on_c, 11, 71, 0
13, 84704, Note_on_c, 11, 80, 0
13, 84720, Note_on_c, 11, 59, 92
13, 84779, Note_on_c, 11, 59, 0
13, 84780, Note_on_c, 11, 58, 84
13, 84839, Note_on_c, 11, 58, 0
13, 84840, Note_on_c, 11, 59, 84
13, 84899, Note_on_c, 11, 59, 0
13, 84900, Note_on_c, 11, 62, 84
13, 84959, Note_on_c, 11, 62, 0
13, 85200, Note_on_c, 11, 59, 92
13, 85259, Note_on_c, 11, 59, 0
13, 85260, Note_on_c, 11, 58, 84
13, 85319, Note_on_c, 11, 58, 0
13, 85320, Note_on_c, 11, 59, 84
13, 85379, Note_on_c, 11, 59, 0
13, 85380, Note_on_c, 11, 62, 84
13, 85439, Note_on_c, 11, 62, 0
13, 85680, Note_on_c, 11, 59, 92
13, 85739, Note_on_c, 11, 59, 0
13, 85740, Note_on_c, 11, 58, 84
13, 85799, Note_on_c, 11, 58, 0
13, 85800, Note_on_c, 11, 59, 84
13, 85859, Note_on_c, 11, 59, 0
13, 85860, Note_on_c, 11, 62, 84
13, 85919, Note_on_c, 11, 62, 0
13, 86160, Note_on_c, 11, 59, 92
13, 86219, Note_on_c, 11, 59, 0
13, 86220, Note_on_c, 11, 58, 84
13, 86279, Note_on_c, 11, 58, 0
13, 86280, Note_on_c, 11, 59, 84
13, 86339, Note_on_c, 11, 59, 0
13, 86340, Note_on_c, 11, 62, 84
13, 86399, Note_on_c, 11, 62, 0
13, 86640, Note_on_c, 11, 86, 52
13, 86984, Note_on_c, 11, 86, 0
13, 87000, Note_on_c, 11, 87, 52
13, 87059, Note_on_c, 11, 87, 0
13, 87060, Note_on_c, 11, 86, 52
13, 87119, Note_on_c, 11, 86, 0
13, 87240, Note_on_c, 11, 84, 52
13, 87299, Note_on_c, 11, 84, 0
13, 87300, Note_on_c, 11, 82, 52
13, 87359, Note_on_c, 11, 82, 0
13, 87600, Note_on_c, 11, 88, 52
13, 87944, Note_on_c, 11, 88, 0
13, 87960, Note_on_c, 11, 89, 52
13, 88019, Note_on_c, 11, 89, 0
13, 88020, Note_on_c, 11, 88, 52
13, 88079, Note_on_c, 11, 88, 0
13, 88200, Note_on_c, 11, 86, 52
13, 88259, Note_on_c, 11, 86, 0
13, 88260, Note_on_c, 11, 84, 52
13, 88319, Note_on_c, 11, 84, 0
13, 88440, Note_on_c, 11, 89, 54
13, 88499, Note_on_c, 11, 89, 0
13, 88500, Note_on_c, 11, 84, 55
13, 88559, Note_on_c, 11, 84, 0
13, 88680, Note_on_c, 11, 81, 58
13, 88739, Note_on_c, 11, 81, 0
13, 88740, Note_on_c, 11, 77, 59
13, 88799, Note_on_c, 11, 77, 0
13, 88920, Note_on_c, 11, 86, 62
13, 88979, Note_on_c, 11, 86, 0
13, 88980, Note_on_c, 11, 82, 63
13, 89039, Note_on_c, 11, 82, 0
13, 89160, Note_on_c, 11, 79, 66
13, 89219, Note_on_c, 11, 79, 0
13, 89220, Note_on_c, 11, 84, 67
13, 89279, Note_on_c, 11, 84, 0
13, 89400, Note_on_c, 11, 89, 70
13, 89459, Note_on_c, 11, 89, 0
13, 89460, Note_on_c, 11, 84, 71
13, 89519, Note_on_c, 11, 84, 0
13, 89640, Note_on_c, 11, 81, 74
13, 89699, Note_on_c, 11, 81, 0
13, 89700, Note_on_c, 11, 77, 75
13, 89759, Note_on_c, 11, 77, 0
13, 89880, Note_on_c, 11, 86, 78
13, 89939, Note_on_c, 11, 86, 0
13, 89940, Note_on_c, 11, 82, 79
13, 89999, Note_on_c, 11, 82, 0
13, 90120, Note_on_c, 11, 79, 82
13, 90179, Note_on_c, 11, 79, 0
13, 90180, Note_on_c, 11, 84, 83
13, 90231, Note_on_c, 11, 84, 0
13, 90240, Note_on_c, 11, 77, 84
13, 90291, Note_on_c, 11, 77, 0
13, 90300, Note_on_c, 11, 89, 84
13, 90351, Note_on_c, 11, 89, 0
13, 90360, Note_on_c, 11, 89, 84
13, 90411, Note_on_c, 11, 89, 0
13, 90420, Note_on_c, 11, 84, 84
13, 90471, Note_on_c, 11, 84, 0
13, 90480, Note_on_c, 11, 81, 84
13, 90531, Note_on_c, 11, 81, 0
13, 90540, Note_on_c, 11, 81, 84
13, 90591, Note_on_c, 11, 81, 0
13, 90600, Note_on_c, 11, 81, 84
13, 90651, Note_on_c, 11, 81, 0
13, 90660, Note_on_c, 11, 77, 84
13, 90711, Note_on_c, 11, 77, 0
13, 90720, Note_on_c, 11, 86, 84
13, 90771, Note_on_c, 11, 86, 0
13, 90780, Note_on_c, 11, 86, 84
13, 90831, Note_on_c, 11, 86, 0
13, 90840, Note_on_c, 11, 86, 84
13, 90891, Note_on_c, 11, 86, 0
13, 90900, Note_on_c, 11, 82, 84
13, 90951, Note_on_c, 11, 82, 0
13, 90960, Note_on_c, 11, 79, 84
13, 91011, Note_on_c, 11, 79, 0
13, 91020, Note_on_c, 11, 79, 84
13, 91071, Note_on_c, 11, 79, 0
13, 91080, Note_on_c, 11, 79, 84
13, 91131, Note_on_c, 11, 79, 0
13, 91140, Note_on_c, 11, 84, 84
13, 91191, Note_on_c, 11, 84, 0
13, 91200, Note_on_c, 11, 84, 84
13, 91544, Note_on_c, 11, 84, 0
13, 91560, Note_on_c, 11, 82, 84
13, 91664, Note_on_c, 11, 82, 0
13, 91680, Note_on_c, 11, 81, 84
13, 91784, Note_on_c, 11, 81, 0
13, 91800, Note_on_c, 11, 81, 84
13, 91904, Note_on_c, 11, 81, 0
13, 91920, Note_on_c, 11, 79, 84
13, 91949, Note_on_c, 11, 79, 0
13, 91950, Note_on_c, 11, 81, 84
13, 91979, Note_on_c, 11, 81, 0
13, 91980, Note_on_c, 11, 79, 84
13, 92009, Note_on_c, 11, 79, 0
13, 92010, Note_on_c, 11, 81, 84
13, 92039, Note_on_c, 11, 81, 0
13, 92040, Note_on_c, 11, 79, 84
13, 92069, Note_on_c, 11, 79, 0
13, 92070, Note_on_c, 11, 81, 84
13, 92099, Note_on_c, 11, 81, 0
13, 92100, Note_on_c, 11, 77, 84
13, 92129, Note_on_c, 11, 77, 0
13, 92130, Note_on_c, 11, 79, 84
13, 92159, Note_on_c, 11, 79, 0
13, 92160, Note_on_c, 11, 77, 84
13, 92211, Note_on_c, 11, 77, 0
13, 92220, Note_on_c, 11, 76, 84
13, 92271, Note_on_c, 11, 76, 0
13, 92280, Note_on_c, 11, 77, 84
13, 92331, Note_on_c, 11, 77, 0
13, 92340, Note_on_c, 11, 81, 84
13, 92391, Note_on_c, 11, 81, 0
13, 92400, Note_on_c, 11, 74, 84
13, 92451, Note_on_c, 11, 74, 0
13, 92460, Note_on_c, 11, 76, 84
13, 92511, Note_on_c, 11, 76, 0
13, 92520, Note_on_c, 11, 77, 84
13, 92571, Note_on_c, 11, 77, 0
13, 92580, Note_on_c, 11, 79, 84
13, 92631, Note_on_c, 11, 79, 0
13, 92640, Note_on_c, 11, 72, 84
13, 92691, Note_on_c, 11, 72, 0
13, 92700, Note_on_c, 11, 74, 84
13, 92751, Note_on_c, 11, 74, 0
13, 92760, Note_on_c, 11, 76, 84
13, 92811, Note_on_c, 11, 76, 0
13, 92820, Note_on_c, 11, 77, 84
13, 92871, Note_on_c, 11, 77, 0
13, 92880, Note_on_c, 11, 70, 84
13, 92931, Note_on_c, 11, 70, 0
13, 92940, Note_on_c, 11, 72, 84
13, 92991, Note_on_c, 11, 72, 0
13, 93000, Note_on_c, 11, 74, 84
13, 93051, Note_on_c, 11, 74, 0
13, 93060, Note_on_c, 11, 76, 84
13, 93111, Note_on_c, 11, 76, 0
13, 93120, Note_on_c, 11, 69, 84
13, 93224, Note_on_c, 11, 69, 0
13, 93240, Note_on_c, 11, 84, 84
13, 93464, Note_on_c, 11, 84, 0
13, 93480, Note_on_c, 11, 82, 84
13, 93584, Note_on_c, 11, 82, 0
13, 93600, Note_on_c, 11, 81, 84
13, 93704, Note_on_c, 11, 81, 0
13, 93720, Note_on_c, 11, 81, 84
13, 93824, Note_on_c, 11, 81, 0
13, 93840, Note_on_c, 11, 79, 84
13, 93869, Note_on_c, 11, 79, 0
13, 93870, Note_on_c, 11, 81, 84
13, 93899, Note_on_c, 11, 81, 0
13, 93900, Note_on_c, 11, 79, 84
13, 93929, Note_on_c, 11, 79, 0
13, 93930, Note_on_c, 11, 81, 84
13, 93959, Note_on_c, 11, 81, 0
13, 93960, Note_on_c, 11, 79, 84
13, 93989, Note_on_c, 11, 79, 0
13, 93990, Note_on_c, 11, 81, 84
13, 94019, Note_on_c, 11, 81, 0
13, 94020, Note_on_c, 11, 77, 84
13, 94049, Note_on_c, 11, 77, 0
13, 94050, Note_on_c, 11, 79, 84
13, 94079, Note_on_c, 11, 79, 0
13, 94080, Note_on_c, 11, 77, 84
13, 94131, Note_on_c, 11, 77, 0
13, 94140, Note_on_c, 11, 76, 84
13, 94191, Note_on_c, 11, 76, 0
13, 94200, Note_on_c, 11, 77, 84
13, 94251, Note_on_c, 11, 77, 0
13, 94260, Note_on_c, 11, 81, 84
13, 94311, Note_on_c, 11, 81, 0
13, 94320, Note_on_c, 11, 74, 84
13, 94371, Note_on_c, 11, 74, 0
13, 94380, Note_on_c, 11, 76, 84
13, 94431, Note_on_c, 11, 76, 0
13, 94440, Note_on_c, 11, 77, 84
13, 94491, Note_on_c, 11, 77, 0
13, 94500, Note_on_c, 11, 79, 84
13, 94551, Note_on_c, 11, 79, 0
13, 94560, Note_on_c, 11, 72, 84
13, 94611, Note_on_c, 11, 72, 0
13, 94620, Note_on_c, 11, 74, 84
13, 94671, Note_on_c, 11, 74, 0
13, 94680, Note_on_c, 11, 76, 84
13, 94731, Note_on_c, 11, 76, 0
13, 94740, Note_on_c, 11, 77, 84
13, 94791, Note_on_c, 11, 77, 0
13, 94800, Note_on_c, 11, 70, 84
13, 94851, Note_on_c, 11, 70, 0
13, 94860, Note_on_c, 11, 72, 84
13, 94911, Note_on_c, 11, 72, 0
13, 94920, Note_on_c, 11, 74, 84
13, 94971, Note_on_c, 11, 74, 0
13, 94980, Note_on_c, 11, 76, 84
13, 95031, Note_on_c, 11, 76, 0
13, 95040, Note_on_c, 11, 69, 84
13, 95040, Note_on_c, 11, 77, 84
13, 95144, Note_on_c, 11, 69, 0
13, 95144, Note_on_c, 11, 77, 0
13, 95160, Note_on_c, 11, 69, 84
13, 95160, Note_on_c, 11, 77, 84
13, 95279, Note_on_c, 11, 69, 0
13, 95279, Note_on_c, 11, 77, 0
13, 95400, Note_on_c, 11, 81, 84
13, 95400, Note_on_c, 11, 69, 84
13, 95504, Note_on_c, 11, 81, 0
13, 95504, Note_on_c, 11, 69, 0
13, 95520, Note_on_c, 11, 69, 84
13, 95520, Note_on_c, 11, 77, 84
13, 95624, Note_on_c, 11, 69, 0
13, 95624, Note_on_c, 11, 77, 0
13, 95640, Note_on_c, 11, 77, 84
13, 95640, Note_on_c, 11, 69, 84
13, 95759, Note_on_c, 11, 77, 0
13, 95759, Note_on_c, 11, 69, 0
13, 95880, Note_on_c, 11, 81, 84
13, 95880, Note_on_c, 11, 69, 84
13, 95984, Note_on_c, 11, 81, 0
13, 95984, Note_on_c, 11, 69, 0
13, 96000, Note_on_c, 11, 69, 84
13, 96000, Note_on_c, 11, 77, 84
13, 96104, Note_on_c, 11, 69, 0
13, 96104, Note_on_c, 11, 77, 0
13, 96120, Note_on_c, 11, 77, 84
13, 96120, Note_on_c, 11, 69, 84
13, 96239, Note_on_c, 11, 77, 0
13, 96239, Note_on_c, 11, 69, 0
13, 96360, Note_on_c, 11, 81, 84
13, 96360, Note_on_c, 11, 69, 84
13, 96464, Note_on_c, 11, 81, 0
13, 96464, Note_on_c, 11, 69, 0
13, 96480, Note_on_c, 11, 77, 84
13, 96480, Note_on_c, 11, 69, 84
13, 96584, Note_on_c, 11, 77, 0
13, 96584, Note_on_c, 11, 69, 0
13, 96600, Note_on_c, 11, 69, 84
13, 96600, Note_on_c, 11, 81, 84
13, 96704, Note_on_c, 11, 69, 0
13, 96704, Note_on_c, 11, 81, 0
13, 96720, Note_on_c, 11, 69, 84
13, 96720, Note_on_c, 11, 77, 84
13, 96824, Note_on_c, 11, 69, 0
13, 96824, Note_on_c, 11, 77, 0
13, 96840, Note_on_c, 11, 81, 84
13, 96840, Note_on_c, 11, 69, 84
13, 96944, Note_on_c, 11, 81, 0
13, 96944, Note_on_c, 11, 69, 0
13, 96960, Note_on_c, 11, 65, 52
13, 97011, Note_on_c, 11, 65, 0
13, 97020, Note_on_c, 11, 64, 52
13, 97071, Note_on_c, 11, 64, 0
13, 97080, Note_on_c, 11, 65, 52
13, 97131, Note_on_c, 11, 65, 0
13, 97140, Note_on_c, 11, 69, 52
13, 97191, Note_on_c, 11, 69, 0
13, 97200, Note_on_c, 11, 60, 52
13, 97251, Note_on_c, 11, 60, 0
13, 97260, Note_on_c, 11, 62, 52
13, 97311, Note_on_c, 11, 62, 0
13, 97320, Note_on_c, 11, 63, 52
13, 97371, Note_on_c, 11, 63, 0
13, 97380, Note_on_c, 11, 64, 52
13, 97431, Note_on_c, 11, 64, 0
13, 97440, Note_on_c, 11, 65, 52
13, 97491, Note_on_c, 11, 65, 0
13, 97500, Note_on_c, 11, 64, 52
13, 97551, Note_on_c, 11, 64, 0
13, 97560, Note_on_c, 11, 65, 52
13, 97611, Note_on_c, 11, 65, 0
13, 97620, Note_on_c, 11, 69, 52
13, 97671, Note_on_c, 11, 69, 0
13, 97680, Note_on_c, 11, 62, 52
13, 97731, Note_on_c, 11, 62, 0
13, 97740, Note_on_c, 11, 63, 52
13, 97791, Note_on_c, 11, 63, 0
13, 97800, Note_on_c, 11, 65, 52
13, 97851, Note_on_c, 11, 65, 0
13, 97860, Note_on_c, 11, 66, 52
13, 97911, Note_on_c, 11, 66, 0
13, 97920, Note_on_c, 11, 67, 52
13, 97971, Note_on_c, 11, 67, 0
13, 97980, Note_on_c, 11, 66, 52
13, 98031, Note_on_c, 11, 66, 0
13, 98040, Note_on_c, 11, 67, 52
13, 98091, Note_on_c, 11, 67, 0
13, 98100, Note_on_c, 11, 70, 52
13, 98151, Note_on_c, 11, 70, 0
13, 98160, Note_on_c, 11, 62, 52
13, 98211, Note_on_c, 11, 62, 0
13, 98220, Note_on_c, 11, 63, 52
13, 98271, Note_on_c, 11, 63, 0
13, 98280, Note_on_c, 11, 65, 52
13, 98331, Note_on_c, 11, 65, 0
13, 98340, Note_on_c, 11, 66, 52
13, 98391, Note_on_c, 11, 66, 0
13, 98400, Note_on_c, 11, 67, 52
13, 98451, Note_on_c, 11, 67, 0
13, 98460, Note_on_c, 11, 66, 52
13, 98511, Note_on_c, 11, 66, 0
13, 98520, Note_on_c, 11, 67, 52
13, 98571, Note_on_c, 11, 67, 0
13, 98580, Note_on_c, 11, 70, 52
13, 98631, Note_on_c, 11, 70, 0
13, 98640, Note_on_c, 11, 63, 52
13, 98691, Note_on_c, 11, 63, 0
13, 98700, Note_on_c, 11, 65, 52
13, 98751, Note_on_c, 11, 65, 0
13, 98760, Note_on_c, 11, 66, 52
13, 98811, Note_on_c, 11, 66, 0
13, 98820, Note_on_c, 11, 67, 52
13, 98871, Note_on_c, 11, 67, 0
13, 98880, Note_on_c, 11, 68, 52
13, 98931, Note_on_c, 11, 68, 0
13, 98940, Note_on_c, 11, 67, 52
13, 98991, Note_on_c, 11, 67, 0
13, 99000, Note_on_c, 11, 68, 52
13, 99051, Note_on_c, 11, 68, 0
13, 99060, Note_on_c, 11, 72, 52
13, 99111, Note_on_c, 11, 72, 0
13, 99120, Note_on_c, 11, 63, 52
13, 99171, Note_on_c, 11, 63, 0
13, 99180, Note_on_c, 11, 65, 52
13, 99231, Note_on_c, 11, 65, 0
13, 99240, Note_on_c, 11, 66, 52
13, 99291, Note_on_c, 11, 66, 0
13, 99300, Note_on_c, 11, 67, 52
13, 99351, Note_on_c, 11, 67, 0
13, 99360, Note_on_c, 11, 68, 52
13, 99411, Note_on_c, 11, 68, 0
13, 99420, Note_on_c, 11, 67, 52
13, 99471, Note_on_c, 11, 67, 0
13, 99480, Note_on_c, 11, 68, 52
13, 99531, Note_on_c, 11, 68, 0
13, 99540, Note_on_c, 11, 72, 52
13, 99591, Note_on_c, 11, 72, 0
13, 99600, Note_on_c, 11, 63, 52
13, 99651, Note_on_c, 11, 63, 0
13, 99660, Note_on_c, 11, 65, 52
13, 99711, Note_on_c, 11, 65, 0
13, 99720, Note_on_c, 11, 66, 52
13, 99771, Note_on_c, 11, 66, 0
13, 99780, Note_on_c, 11, 67, 52
13, 99831, Note_on_c, 11, 67, 0
13, 99840, Note_on_c, 11, 68, 52
13, 99891, Note_on_c, 11, 68, 0
13, 99900, Note_on_c, 11, 67, 52
13, 99951, Note_on_c, 11, 67, 0
13, 99960, Note_on_c, 11, 68, 52
13, 100011, Note_on_c, 11, 68, 0
13, 100020, Note_on_c, 11, 72, 52
13, 100071, Note_on_c, 11, 72, 0
13, 100080, Note_on_c, 11, 63, 52
13, 100131, Note_on_c, 11, 63, 0
13, 100140, Note_on_c, 11, 65, 52
13, 100191, Note_on_c, 11, 65, 0
13, 100200, Note_on_c, 11, 66, 52
13, 100251, Note_on_c, 11, 66, 0
13, 100260, Note_on_c, 11, 67, 52
13, 100311, Note_on_c, 11, 67, 0
13, 100320, Note_on_c, 11, 68, 52
13, 100371, Note_on_c, 11, 68, 0
13, 100380, Note_on_c, 11, 67, 52
13, 100431, Note_on_c, 11, 67, 0
13, 100440, Note_on_c, 11, 68, 52
13, 100491, Note_on_c, 11, 68, 0
13, 100500, Note_on_c, 11, 72, 52
13, 100551, Note_on_c, 11, 72, 0
13, 100560, Note_on_c, 11, 69, 52
13, 100611, Note_on_c, 11, 69, 0
13, 100620, Note_on_c, 11, 68, 52
13, 100671, Note_on_c, 11, 68, 0
13, 100680, Note_on_c, 11, 69, 52
13, 100731, Note_on_c, 11, 69, 0
13, 100740, Note_on_c, 11, 72, 52
13, 100791, Note_on_c, 11, 72, 0
13, 100800, Note_on_c, 11, 70, 52
13, 100851, Note_on_c, 11, 70, 0
13, 100860, Note_on_c, 11, 69, 52
13, 100911, Note_on_c, 11, 69, 0
13, 100920, Note_on_c, 11, 70, 53
13, 100971, Note_on_c, 11, 70, 0
13, 100980, Note_on_c, 11, 73, 53
13, 101031, Note_on_c, 11, 73, 0
13, 101040, Note_on_c, 11, 65, 54
13, 101091, Note_on_c, 11, 65, 0
13, 101100, Note_on_c, 11, 67, 54
13, 101151, Note_on_c, 11, 67, 0
13, 101160, Note_on_c, 11, 68, 55
13, 101211, Note_on_c, 11, 68, 0
13, 101220, Note_on_c, 11, 69, 55
13, 101271, Note_on_c, 11, 69, 0
13, 101280, Note_on_c, 11, 70, 56
13, 101331, Note_on_c, 11, 70, 0
13, 101340, Note_on_c, 11, 69, 56
13, 101391, Note_on_c, 11, 69, 0
13, 101400, Note_on_c, 11, 70, 57
13, 101451, Note_on_c, 11, 70, 0
13, 101460, Note_on_c, 11, 73, 57
13, 101511, Note_on_c, 11, 73, 0
13, 101520, Note_on_c, 11, 65, 58
13, 101571, Note_on_c, 11, 65, 0
13, 101580, Note_on_c, 11, 67, 58
13, 101631, Note_on_c, 11, 67, 0
13, 101640, Note_on_c, 11, 68, 59
13, 101691, Note_on_c, 11, 68, 0
13, 101700, Note_on_c, 11, 69, 59
13, 101751, Note_on_c, 11, 69, 0
13, 101760, Note_on_c, 11, 70, 60
13, 101811, Note_on_c, 11, 70, 0
13, 101820, Note_on_c, 11, 69, 60
13, 101871, Note_on_c, 11, 69, 0
13, 101880, Note_on_c, 11, 70, 61
13, 101931, Note_on_c, 11, 70, 0
13, 101940, Note_on_c, 11, 73, 61
13, 101991, Note_on_c, 11, 73, 0
13, 102000, Note_on_c, 11, 65, 62
13, 102051, Note_on_c, 11, 65, 0
13, 102060, Note_on_c, 11, 67, 62
13, 102111, Note_on_c, 11, 67, 0
13, 102120, Note_on_c, 11, 68, 63
13, 102171, Note_on_c, 11, 68, 0
13, 102180, Note_on_c, 11, 69, 63
13, 102231, Note_on_c, 11, 69, 0
13, 102240, Note_on_c, 11, 70, 64
13, 102291, Note_on_c, 11, 70, 0
13, 102300, Note_on_c, 11, 69, 64
13, 102351, Note_on_c, 11, 69, 0
13, 102360, Note_on_c, 11, 70, 65
13, 102411, Note_on_c, 11, 70, 0
13, 102420, Note_on_c, 11, 73, 65
13, 102471, Note_on_c, 11, 73, 0
13, 102480, Note_on_c, 11, 71, 66
13, 102531, Note_on_c, 11, 71, 0
13, 102540, Note_on_c, 11, 69, 66
13, 102591, Note_on_c, 11, 69, 0
13, 102600, Note_on_c, 11, 71, 67
13, 102651, Note_on_c, 11, 71, 0
13, 102660, Note_on_c, 11, 74, 67
13, 102711, Note_on_c, 11, 74, 0
13, 102720, Note_on_c, 11, 72, 68
13, 102771, Note_on_c, 11, 72, 0
13, 102780, Note_on_c, 11, 71, 68
13, 102831, Note_on_c, 11, 71, 0
13, 102840, Note_on_c, 11, 72, 69
13, 102891, Note_on_c, 11, 72, 0
13, 102900, Note_on_c, 11, 75, 69
13, 102951, Note_on_c, 11, 75, 0
13, 102960, Note_on_c, 11, 67, 70
13, 103011, Note_on_c, 11, 67, 0
13, 103020, Note_on_c, 11, 69, 70
13, 103071, Note_on_c, 11, 69, 0
13, 103080, Note_on_c, 11, 70, 71
13, 103131, Note_on_c, 11, 70, 0
13, 103140, Note_on_c, 11, 71, 71
13, 103191, Note_on_c, 11, 71, 0
13, 103200, Note_on_c, 11, 72, 72
13, 103251, Note_on_c, 11, 72, 0
13, 103260, Note_on_c, 11, 71, 72
13, 103311, Note_on_c, 11, 71, 0
13, 103320, Note_on_c, 11, 72, 73
13, 103371, Note_on_c, 11, 72, 0
13, 103380, Note_on_c, 11, 75, 73
13, 103431, Note_on_c, 11, 75, 0
13, 103440, Note_on_c, 11, 73, 74
13, 103491, Note_on_c, 11, 73, 0
13, 103500, Note_on_c, 11, 72, 74
13, 103551, Note_on_c, 11, 72, 0
13, 103560, Note_on_c, 11, 73, 75
13, 103611, Note_on_c, 11, 73, 0
13, 103620, Note_on_c, 11, 76, 75
13, 103671, Note_on_c, 11, 76, 0
13, 103680, Note_on_c, 11, 74, 76
13, 103731, Note_on_c, 11, 74, 0
13, 103740, Note_on_c, 11, 73, 76
13, 103791, Note_on_c, 11, 73, 0
13, 103800, Note_on_c, 11, 74, 76
13, 103851, Note_on_c, 11, 74, 0
13, 103860, Note_on_c, 11, 77, 76
13, 103911, Note_on_c, 11, 77, 0
13, 103920, Note_on_c, 11, 74, 76
13, 103971, Note_on_c, 11, 74, 0
13, 103980, Note_on_c, 11, 73, 76
13, 104031, Note_on_c, 11, 73, 0
13, 104040, Note_on_c, 11, 74, 76
13, 104091, Note_on_c, 11, 74, 0
13, 104100, Note_on_c, 11, 77, 76
13, 104151, Note_on_c, 11, 77, 0
13, 104160, Note_on_c, 11, 74, 76
13, 104211, Note_on_c, 11, 74, 0
13, 104220, Note_on_c, 11, 73, 76
13, 104271, Note_on_c, 11, 73, 0
13, 104280, Note_on_c, 11, 74, 76
13, 104331, Note_on_c, 11, 74, 0
13, 104340, Note_on_c, 11, 77, 76
13, 104391, Note_on_c, 11, 77, 0
13, 104400, Note_on_c, 11, 74, 76
13, 104451, Note_on_c, 11, 74, 0
13, 104460, Note_on_c, 11, 73, 76
13, 104511, Note_on_c, 11, 73, 0
13, 104520, Note_on_c, 11, 74, 76
13, 104571, Note_on_c, 11, 74, 0
13, 104580, Note_on_c, 11, 77, 76
13, 104631, Note_on_c, 11, 77, 0
13, 104640, Note_on_c, 11, 75, 80
13, 104691, Note_on_c, 11, 75, 0
13, 104700, Note_on_c, 11, 73, 80
13, 104751, Note_on_c, 11, 73, 0
13, 104760, Note_on_c, 11, 75, 80
13, 104811, Note_on_c, 11, 75, 0
13, 104820, Note_on_c, 11, 78, 80
13, 104871, Note_on_c, 11, 78, 0
13, 104880, Note_on_c, 11, 75, 80
13, 104931, Note_on_c, 11, 75, 0
13, 104940, Note_on_c, 11, 73, 80
13, 104991, Note_on_c, 11, 73, 0
13, 105000, Note_on_c, 11, 75, 80
13, 105051, Note_on_c, 11, 75, 0
13, 105060, Note_on_c, 11, 78, 80
13, 105111, Note_on_c, 11, 78, 0
13, 105120, Note_on_c, 11, 75, 80
13, 105171, Note_on_c, 11, 75, 0
13, 105180, Note_on_c, 11, 73, 80
13, 105231, Note_on_c, 11, 73, 0
13, 105240, Note_on_c, 11, 75, 80
13, 105291, Note_on_c, 11, 75, 0
13, 105300, Note_on_c, 11, 78, 80
13, 105351, Note_on_c, 11, 78, 0
13, 105360, Note_on_c, 11, 75, 80
13, 105411, Note_on_c, 11, 75, 0
13, 105420, Note_on_c, 11, 73, 80
13, 105471, Note_on_c, 11, 73, 0
13, 105480, Note_on_c, 11, 75, 80
13, 105531, Note_on_c, 11, 75, 0
13, 105540, Note_on_c, 11, 78, 80
13, 105591, Note_on_c, 11, 78, 0
13, 105600, Note_on_c, 11, 83, 84
13, 105600, Note_on_c, 11, 71, 84
13, 105651, Note_on_c, 11, 83, 0
13, 105651, Note_on_c, 11, 71, 0
13, 105660, Note_on_c, 11, 71, 84
13, 105660, Note_on_c, 11, 83, 84
13, 105711, Note_on_c, 11, 71, 0
13, 105711, Note_on_c, 11, 83, 0
13, 105720, Note_on_c, 11, 83, 84
13, 105720, Note_on_c, 11, 71, 84
13, 105771, Note_on_c, 11, 83, 0
13, 105771, Note_on_c, 11, 71, 0
13, 105780, Note_on_c, 11, 71, 84
13, 105780, Note_on_c, 11, 83, 84
13, 105831, Note_on_c, 11, 71, 0
13, 105831, Note_on_c, 11, 83, 0
13, 105840, Note_on_c, 11, 71, 84
13, 105840, Note_on_c, 11, 83, 84
13, 105891, Note_on_c, 11, 71, 0
13, 105891, Note_on_c, 11, 83, 0
13, 105900, Note_on_c, 11, 71, 84
13, 105900, Note_on_c, 11, 83, 84
13, 105951, Note_on_c, 11, 71, 0
13, 105951, Note_on_c, 11, 83, 0
13, 105960, Note_on_c, 11, 83, 84
13, 105960, Note_on_c, 11, 71, 84
13, 106011, Note_on_c, 11, 83, 0
13, 106011, Note_on_c, 11, 71, 0
13, 106020, Note_on_c, 11, 83, 84
13, 106020, Note_on_c, 11, 71, 84
13, 106071, Note_on_c, 11, 83, 0
13, 106079, Note_on_c, 11, 71, 0
13, 106080, Note_on_c, 11, 71, 84
13, 106080, Note_on_c, 11, 83, 84
13, 106131, Note_on_c, 11, 71, 0
13, 106131, Note_on_c, 11, 83, 0
13, 106140, Note_on_c, 11, 83, 84
13, 106140, Note_on_c, 11, 71, 84
13, 106191, Note_on_c, 11, 83, 0
13, 106191, Note_on_c, 11, 71, 0
13, 106200, Note_on_c, 11, 71, 84
13, 106200, Note_on_c, 11, 83, 84
13, 106251, Note_on_c, 11, 71, 0
13, 106251, Note_on_c, 11, 83, 0
13, 106260, Note_on_c, 11, 83, 84
13, 106260, Note_on_c, 11, 71, 84
13, 106311, Note_on_c, 11, 83, 0
13, 106311, Note_on_c, 11, 71, 0
13, 106320, Note_on_c, 11, 83, 84
13, 106320, Note_on_c, 11, 71, 84
13, 106371, Note_on_c, 11, 83, 0
13, 106371, Note_on_c, 11, 71, 0
13, 106380, Note_on_c, 11, 71, 84
13, 106380, Note_on_c, 11, 83, 84
13, 106431, Note_on_c, 11, 71, 0
13, 106431, Note_on_c, 11, 83, 0
13, 106440, Note_on_c, 11, 71, 84
13, 106440, Note_on_c, 11, 83, 84
13, 106491, Note_on_c, 11, 71, 0
13, 106491, Note_on_c, 11, 83, 0
13, 106500, Note_on_c, 11, 71, 84
13, 106500, Note_on_c, 11, 83, 84
13, 106559, Note_on_c, 11, 71, 0
13, 106559, Note_on_c, 11, 83, 0
13, 107520, Note_on_c, 11, 72, 52
13, 107879, Note_on_c, 11, 72, 0
13, 107880, Note_on_c, 11, 69, 52
13, 107984, Note_on_c, 11, 69, 0
13, 108000, Note_on_c, 11, 67, 52
13, 108359, Note_on_c, 11, 67, 0
13, 108360, Note_on_c, 11, 64, 52
13, 108464, Note_on_c, 11, 64, 0
13, 108480, Note_on_c, 11, 62, 52
13, 108599, Note_on_c, 11, 62, 0
13, 108720, Note_on_c, 11, 62, 52
13, 108839, Note_on_c, 11, 62, 0
13, 108960, Note_on_c, 11, 62, 52
13, 109439, Note_on_c, 11, 62, 0
13, 109920, Note_on_c, 11, 71, 52
13, 109964, Note_on_c, 11, 71, 0
13, 109980, Note_on_c, 11, 69, 52
13, 110024, Note_on_c, 11, 69, 0
13, 110040, Note_on_c, 11, 71, 52
13, 110084, Note_on_c, 11, 71, 0
13, 110100, Note_on_c, 11, 74, 52
13, 110144, Note_on_c, 11, 74, 0
13, 110160, Note_on_c, 11, 72, 52
13, 110204, Note_on_c, 11, 72, 0
13, 110220, Note_on_c, 11, 71, 52
13, 110264, Note_on_c, 11, 71, 0
13, 110280, Note_on_c, 11, 69, 52
13, 110324, Note_on_c, 11, 69, 0
13, 110340, Note_on_c, 11, 71, 52
13, 110384, Note_on_c, 11, 71, 0
13, 110880, Note_on_c, 11, 70, 52
13, 110924, Note_on_c, 11, 70, 0
13, 110940, Note_on_c, 11, 69, 52
13, 110984, Note_on_c, 11, 69, 0
13, 111000, Note_on_c, 11, 70, 52
13, 111044, Note_on_c, 11, 70, 0
13, 111060, Note_on_c, 11, 74, 52
13, 111104, Note_on_c, 11, 74, 0
13, 111120, Note_on_c, 11, 72, 52
13, 111164, Note_on_c, 11, 72, 0
13, 111180, Note_on_c, 11, 70, 52
13, 111224, Note_on_c, 11, 70, 0
13, 111240, Note_on_c, 11, 69, 52
13, 111284, Note_on_c, 11, 69, 0
13, 111300, Note_on_c, 11, 70, 52
13, 111344, Note_on_c, 11, 70, 0
13, 111360, Note_on_c, 11, 74, 52
13, 111479, Note_on_c, 11, 74, 0
13, 111600, Note_on_c, 11, 74, 64
13, 111719, Note_on_c, 11, 74, 0
13, 111840, Note_on_c, 11, 67, 76
13, 111891, Note_on_c, 11, 67, 0
13, 111900, Note_on_c, 11, 66, 76
13, 111951, Note_on_c, 11, 66, 0
13, 111960, Note_on_c, 11, 67, 76
13, 112011, Note_on_c, 11, 67, 0
13, 112020, Note_on_c, 11, 70, 76
13, 112071, Note_on_c, 11, 70, 0
13, 112080, Note_on_c, 11, 69, 76
13, 112131, Note_on_c, 11, 69, 0
13, 112140, Note_on_c, 11, 67, 76
13, 112191, Note_on_c, 11, 67, 0
13, 112200, Note_on_c, 11, 66, 76
13, 112251, Note_on_c, 11, 66, 0
13, 112260, Note_on_c, 11, 67, 76
13, 112311, Note_on_c, 11, 67, 0
13, 112320, Note_on_c, 11, 75, 84
13, 112379, Note_on_c, 11, 75, 0
13, 112380, Note_on_c, 11, 75, 52
13, 112784, Note_on_c, 11, 75, 0
13, 112800, Note_on_c, 11, 74, 52
13, 112919, Note_on_c, 11, 74, 0
13, 114480, Note_on_c, 11, 70, 52
13, 114531, Note_on_c, 11, 70, 0
13, 114540, Note_on_c, 11, 69, 52
13, 114591, Note_on_c, 11, 69, 0
13, 114600, Note_on_c, 11, 70, 52
13, 114651, Note_on_c, 11, 70, 0
13, 114660, Note_on_c, 11, 75, 52
13, 114711, Note_on_c, 11, 75, 0
13, 114720, Note_on_c, 11, 70, 76
13, 114771, Note_on_c, 11, 70, 0
13, 114780, Note_on_c, 11, 69, 76
13, 114831, Note_on_c, 11, 69, 0
13, 114840, Note_on_c, 11, 72, 76
13, 114891, Note_on_c, 11, 72, 0
13, 114900, Note_on_c, 11, 74, 76
13, 114951, Note_on_c, 11, 74, 0
13, 114960, Note_on_c, 11, 72, 76
13, 115011, Note_on_c, 11, 72, 0
13, 115020, Note_on_c, 11, 70, 76
13, 115071, Note_on_c, 11, 70, 0
13, 115080, Note_on_c, 11, 69, 76
13, 115131, Note_on_c, 11, 69, 0
13, 115140, Note_on_c, 11, 70, 76
13, 115191, Note_on_c, 11, 70, 0
13, 115200, Note_on_c, 11, 79, 84
13, 115259, Note_on_c, 11, 79, 0
13, 115260, Note_on_c, 11, 79, 52
13, 115664, Note_on_c, 11, 79, 0
13, 115680, Note_on_c, 11, 77, 52
13, 115799, Note_on_c, 11, 77, 0
13, 115920, Note_on_c, 11, 70, 52
13, 115971, Note_on_c, 11, 70, 0
13, 115980, Note_on_c, 11, 69, 52
13, 116031, Note_on_c, 11, 69, 0
13, 116040, Note_on_c, 11, 70, 52
13, 116091, Note_on_c, 11, 70, 0
13, 116100, Note_on_c, 11, 75, 52
13, 116159, Note_on_c, 11, 75, 0
13, 116400, Note_on_c, 11, 70, 52
13, 116451, Note_on_c, 11, 70, 0
13, 116460, Note_on_c, 11, 69, 52
13, 116511, Note_on_c, 11, 69, 0
13, 116520, Note_on_c, 11, 70, 52
13, 116571, Note_on_c, 11, 70, 0
13, 116580, Note_on_c, 11, 75, 52
13, 116639, Note_on_c, 11, 75, 0
13, 116880, Note_on_c, 11, 70, 52
13, 116931, Note_on_c, 11, 70, 0
13, 116940, Note_on_c, 11, 69, 52
13, 116991, Note_on_c, 11, 69, 0
13, 117000, Note_on_c, 11, 70, 52
13, 117051, Note_on_c, 11, 70, 0
13, 117060, Note_on_c, 11, 75, 52
13, 117111, Note_on_c, 11, 75, 0
13, 117120, Note_on_c, 11, 70, 52
13, 117171, Note_on_c, 11, 70, 0
13, 117180, Note_on_c, 11, 69, 52
13, 117231, Note_on_c, 11, 69, 0
13, 117240, Note_on_c, 11, 70, 52
13, 117291, Note_on_c, 11, 70, 0
13, 117300, Note_on_c, 11, 74, 52
13, 117351, Note_on_c, 11, 74, 0
13, 117360, Note_on_c, 11, 74, 52
13, 117411, Note_on_c, 11, 74, 0
13, 117420, Note_on_c, 11, 73, 52
13, 117471, Note_on_c, 11, 73, 0
13, 117480, Note_on_c, 11, 74, 52
13, 117531, Note_on_c, 11, 74, 0
13, 117540, Note_on_c, 11, 79, 52
13, 117591, Note_on_c, 11, 79, 0
13, 117600, Note_on_c, 11, 74, 76
13, 117659, Note_on_c, 11, 74, 0
13, 117660, Note_on_c, 11, 73, 76
13, 117719, Note_on_c, 11, 73, 0
13, 117720, Note_on_c, 11, 74, 76
13, 117779, Note_on_c, 11, 74, 0
13, 117780, Note_on_c, 11, 77, 76
13, 117839, Note_on_c, 11, 77, 0
13, 117840, Note_on_c, 11, 76, 76
13, 117899, Note_on_c, 11, 76, 0
13, 117900, Note_on_c, 11, 74, 76
13, 117959, Note_on_c, 11, 74, 0
13, 117960, Note_on_c, 11, 73, 76
13, 118019, Note_on_c, 11, 73, 0
13, 118020, Note_on_c, 11, 74, 76
13, 118079, Note_on_c, 11, 74, 0
13, 118080, Note_on_c, 11, 82, 84
13, 118139, Note_on_c, 11, 82, 0
13, 118140, Note_on_c, 11, 82, 76
13, 118140, Control_c, 11, 11, 127
13, 118175, Control_c, 11, 11, 123
13, 118210, Control_c, 11, 11, 119
13, 118245, Control_c, 11, 11, 115
13, 118280, Control_c, 11, 11, 111
13, 118315, Control_c, 11, 11, 107
13, 118350, Control_c, 11, 11, 104
13, 118385, Control_c, 11, 11, 100
13, 118420, Control_c, 11, 11, 96
13, 118455, Control_c, 11, 11, 92
13, 118490, Control_c, 11, 11, 88
13, 118525, Control_c, 11, 11, 80
13, 118544, Note_on_c, 11, 82, 0
13, 118560, Note_on_c, 11, 81, 76
13, 118679, Note_on_c, 11, 81, 0
13, 120000, Control_c, 11, 11, 127
13, 120240, Note_on_c, 11, 74, 52
13, 120291, Note_on_c, 11, 74, 0
13, 120300, Note_on_c, 11, 73, 52
13, 120351, Note_on_c, 11, 73, 0
13, 120360, Note_on_c, 11, 74, 52
13, 120411, Note_on_c, 11, 74, 0
13, 120420, Note_on_c, 11, 79, 52
13, 120471, Note_on_c, 11, 79, 0
13, 120480, Note_on_c, 11, 74, 44
13, 120531, Note_on_c, 11, 74, 0
13, 120540, Note_on_c, 11, 73, 44
13, 120591, Note_on_c, 11, 73, 0
13, 120600, Note_on_c, 11, 74, 44
13, 120651, Note_on_c, 11, 74, 0
13, 120660, Note_on_c, 11, 77, 44
13, 120711, Note_on_c, 11, 77, 0
13, 120720, Note_on_c, 11, 69, 44
13, 120771, Note_on_c, 11, 69, 0
13, 120780, Note_on_c, 11, 71, 44
13, 120831, Note_on_c, 11, 71, 0
13, 120840, Note_on_c, 11, 72, 44
13, 120891, Note_on_c, 11, 72, 0
13, 120900, Note_on_c, 11, 73, 44
13, 120951, Note_on_c, 11, 73, 0
13, 120960, Note_on_c, 11, 74, 44
13, 121011, Note_on_c, 11, 74, 0
13, 121020, Note_on_c, 11, 73, 44
13, 121071, Note_on_c, 11, 73, 0
13, 121080, Note_on_c, 11, 74, 44
13, 121131, Note_on_c, 11, 74, 0
13, 121140, Note_on_c, 11, 77, 44
13, 121191, Note_on_c, 11, 77, 0
13, 121200, Note_on_c, 11, 69, 44
13, 121251, Note_on_c, 11, 69, 0
13, 121260, Note_on_c, 11, 71, 44
13, 121311, Note_on_c, 11, 71, 0
13, 121320, Note_on_c, 11, 72, 44
13, 121371, Note_on_c, 11, 72, 0
13, 121380, Note_on_c, 11, 73, 44
13, 121431, Note_on_c, 11, 73, 0
13, 121440, Note_on_c, 11, 74, 44
13, 121491, Note_on_c, 11, 74, 0
13, 121500, Note_on_c, 11, 73, 44
13, 121551, Note_on_c, 11, 73, 0
13, 121560, Note_on_c, 11, 74, 44
13, 121611, Note_on_c, 11, 74, 0
13, 121620, Note_on_c, 11, 77, 44
13, 121671, Note_on_c, 11, 77, 0
13, 121680, Note_on_c, 11, 69, 44
13, 121731, Note_on_c, 11, 69, 0
13, 121740, Note_on_c, 11, 71, 44
13, 121791, Note_on_c, 11, 71, 0
13, 121800, Note_on_c, 11, 72, 44
13, 121851, Note_on_c, 11, 72, 0
13, 121860, Note_on_c, 11, 73, 44
13, 121911, Note_on_c, 11, 73, 0
13, 121920, Note_on_c, 11, 74, 44
13, 121971, Note_on_c, 11, 74, 0
13, 121980, Note_on_c, 11, 73, 44
13, 122031, Note_on_c, 11, 73, 0
13, 122040, Note_on_c, 11, 74, 44
13, 122091, Note_on_c, 11, 74, 0
13, 122100, Note_on_c, 11, 77, 44
13, 122151, Note_on_c, 11, 77, 0
13, 122160, Note_on_c, 11, 69, 44
13, 122211, Note_on_c, 11, 69, 0
13, 122220, Note_on_c, 11, 71, 44
13, 122271, Note_on_c, 11, 71, 0
13, 122280, Note_on_c, 11, 72, 44
13, 122331, Note_on_c, 11, 72, 0
13, 122340, Note_on_c, 11, 73, 44
13, 122391, Note_on_c, 11, 73, 0
13, 122400, Note_on_c, 11, 74, 44
13, 122451, Note_on_c, 11, 74, 0
13, 122460, Note_on_c, 11, 73, 44
13, 122511, Note_on_c, 11, 73, 0
13, 122520, Note_on_c, 11, 74, 44
13, 122571, Note_on_c, 11, 74, 0
13, 122580, Note_on_c, 11, 77, 44
13, 122631, Note_on_c, 11, 77, 0
13, 122640, Note_on_c, 11, 67, 44
13, 122691, Note_on_c, 11, 67, 0
13, 122700, Note_on_c, 11, 69, 44
13, 122751, Note_on_c, 11, 69, 0
13, 122760, Note_on_c, 11, 71, 44
13, 122811, Note_on_c, 11, 71, 0
13, 122820, Note_on_c, 11, 72, 44
13, 122871, Note_on_c, 11, 72, 0
13, 122880, Note_on_c, 11, 74, 44
13, 122931, Note_on_c, 11, 74, 0
13, 122940, Note_on_c, 11, 73, 44
13, 122991, Note_on_c, 11, 73, 0
13, 123000, Note_on_c, 11, 74, 44
13, 123051, Note_on_c, 11, 74, 0
13, 123060, Note_on_c, 11, 77, 44
13, 123111, Note_on_c, 11, 77, 0
13, 123120, Note_on_c, 11, 67, 44
13, 123171, Note_on_c, 11, 67, 0
13, 123180, Note_on_c, 11, 69, 44
13, 123231, Note_on_c, 11, 69, 0
13, 123240, Note_on_c, 11, 71, 44
13, 123291, Note_on_c, 11, 71, 0
13, 123300, Note_on_c, 11, 72, 44
13, 123351, Note_on_c, 11, 72, 0
13, 123360, Note_on_c, 11, 74, 44
13, 123411, Note_on_c, 11, 74, 0
13, 123420, Note_on_c, 11, 73, 44
13, 123471, Note_on_c, 11, 73, 0
13, 123480, Note_on_c, 11, 74, 44
13, 123531, Note_on_c, 11, 74, 0
13, 123540, Note_on_c, 11, 77, 44
13, 123591, Note_on_c, 11, 77, 0
13, 123600, Note_on_c, 11, 67, 44
13, 123651, Note_on_c, 11, 67, 0
13, 123660, Note_on_c, 11, 69, 44
13, 123711, Note_on_c, 11, 69, 0
13, 123720, Note_on_c, 11, 71, 44
13, 123771, Note_on_c, 11, 71, 0
13, 123780, Note_on_c, 11, 72, 44
13, 123831, Note_on_c, 11, 72, 0
13, 123840, Note_on_c, 11, 74, 44
13, 123891, Note_on_c, 11, 74, 0
13, 123900, Note_on_c, 11, 73, 44
13, 123951, Note_on_c, 11, 73, 0
13, 123960, Note_on_c, 11, 74, 44
13, 124011, Note_on_c, 11, 74, 0
13, 124020, Note_on_c, 11, 77, 44
13, 124071, Note_on_c, 11, 77, 0
13, 124080, Note_on_c, 11, 67, 44
13, 124131, Note_on_c, 11, 67, 0
13, 124140, Note_on_c, 11, 69, 44
13, 124191, Note_on_c, 11, 69, 0
13, 124200, Note_on_c, 11, 70, 44
13, 124251, Note_on_c, 11, 70, 0
13, 124260, Note_on_c, 11, 71, 44
13, 124311, Note_on_c, 11, 71, 0
13, 124320, Note_on_c, 11, 72, 44
13, 124371, Note_on_c, 11, 72, 0
13, 124380, Note_on_c, 11, 71, 45
13, 124431, Note_on_c, 11, 71, 0
13, 124440, Note_on_c, 11, 72, 46
13, 124491, Note_on_c, 11, 72, 0
13, 124500, Note_on_c, 11, 75, 47
13, 124551, Note_on_c, 11, 75, 0
13, 124560, Note_on_c, 11, 67, 49
13, 124611, Note_on_c, 11, 67, 0
13, 124620, Note_on_c, 11, 69, 50
13, 124671, Note_on_c, 11, 69, 0
13, 124680, Note_on_c, 11, 70, 51
13, 124731, Note_on_c, 11, 70, 0
13, 124740, Note_on_c, 11, 71, 52
13, 124791, Note_on_c, 11, 71, 0
13, 124800, Note_on_c, 11, 72, 54
13, 124851, Note_on_c, 11, 72, 0
13, 124860, Note_on_c, 11, 71, 55
13, 124911, Note_on_c, 11, 71, 0
13, 124920, Note_on_c, 11, 72, 56
13, 124971, Note_on_c, 11, 72, 0
13, 124980, Note_on_c, 11, 75, 57
13, 125031, Note_on_c, 11, 75, 0
13, 125040, Note_on_c, 11, 67, 59
13, 125091, Note_on_c, 11, 67, 0
13, 125100, Note_on_c, 11, 69, 60
13, 125151, Note_on_c, 11, 69, 0
13, 125160, Note_on_c, 11, 70, 61
13, 125211, Note_on_c, 11, 70, 0
13, 125220, Note_on_c, 11, 71, 62
13, 125271, Note_on_c, 11, 71, 0
13, 125280, Note_on_c, 11, 72, 64
13, 125331, Note_on_c, 11, 72, 0
13, 125340, Note_on_c, 11, 71, 65
13, 125391, Note_on_c, 11, 71, 0
13, 125400, Note_on_c, 11, 72, 66
13, 125451, Note_on_c, 11, 72, 0
13, 125460, Note_on_c, 11, 75, 67
13, 125511, Note_on_c, 11, 75, 0
13, 125520, Note_on_c, 11, 67, 69
13, 125571, Note_on_c, 11, 67, 0
13, 125580, Note_on_c, 11, 69, 70
13, 125631, Note_on_c, 11, 69, 0
13, 125640, Note_on_c, 11, 70, 71
13, 125691, Note_on_c, 11, 70, 0
13, 125700, Note_on_c, 11, 71, 72
13, 125751, Note_on_c, 11, 71, 0
13, 125760, Note_on_c, 11, 72, 74
13, 125811, Note_on_c, 11, 72, 0
13, 125820, Note_on_c, 11, 71, 75
13, 125871, Note_on_c, 11, 71, 0
13, 125880, Note_on_c, 11, 72, 76
13, 125931, Note_on_c, 11, 72, 0
13, 125940, Note_on_c, 11, 75, 77
13, 125991, Note_on_c, 11, 75, 0
13, 126000, Note_on_c, 11, 67, 79
13, 126051, Note_on_c, 11, 67, 0
13, 126060, Note_on_c, 11, 69, 80
13, 126111, Note_on_c, 11, 69, 0
13, 126120, Note_on_c, 11, 70, 81
13, 126171, Note_on_c, 11, 70, 0
13, 126180, Note_on_c, 11, 71, 82
13, 126231, Note_on_c, 11, 71, 0
13, 126240, Note_on_c, 11, 72, 84
13, 126291, Note_on_c, 11, 72, 0
13, 126300, Note_on_c, 11, 71, 84
13, 126351, Note_on_c, 11, 71, 0
13, 126360, Note_on_c, 11, 72, 84
13, 126411, Note_on_c, 11, 72, 0
13, 126420, Note_on_c, 11, 75, 84
13, 126471, Note_on_c, 11, 75, 0
13, 126480, Note_on_c, 11, 69, 84
13, 126531, Note_on_c, 11, 69, 0
13, 126540, Note_on_c, 11, 70, 84
13, 126591, Note_on_c, 11, 70, 0
13, 126600, Note_on_c, 11, 71, 84
13, 126651, Note_on_c, 11, 71, 0
13, 126660, Note_on_c, 11, 72, 84
13, 126711, Note_on_c, 11, 72, 0
13, 126720, Note_on_c, 11, 72, 84
13, 126771, Note_on_c, 11, 72, 0
13, 126780, Note_on_c, 11, 71, 84
13, 126831, Note_on_c, 11, 71, 0
13, 126840, Note_on_c, 11, 72, 84
13, 126891, Note_on_c, 11, 72, 0
13, 126900, Note_on_c, 11, 75, 84
13, 126951, Note_on_c, 11, 75, 0
13, 126960, Note_on_c, 11, 69, 84
13, 127011, Note_on_c, 11, 69, 0
13, 127020, Note_on_c, 11, 70, 84
13, 127071, Note_on_c, 11, 70, 0
13, 127080, Note_on_c, 11, 71, 84
13, 127131, Note_on_c, 11, 71, 0
13, 127140, Note_on_c, 11, 72, 84
13, 127191, Note_on_c, 11, 72, 0
13, 127200, Note_on_c, 11, 72, 84
13, 127251, Note_on_c, 11, 72, 0
13, 127260, Note_on_c, 11, 71, 84
13, 127311, Note_on_c, 11, 71, 0
13, 127320, Note_on_c, 11, 72, 84
13, 127371, Note_on_c, 11, 72, 0
13, 127380, Note_on_c, 11, 75, 84
13, 127431, Note_on_c, 11, 75, 0
13, 127440, Note_on_c, 11, 69, 84
13, 127491, Note_on_c, 11, 69, 0
13, 127500, Note_on_c, 11, 70, 84
13, 127551, Note_on_c, 11, 70, 0
13, 127560, Note_on_c, 11, 71, 84
13, 127611, Note_on_c, 11, 71, 0
13, 127620, Note_on_c, 11, 72, 84
13, 127671, Note_on_c, 11, 72, 0
13, 127680, Note_on_c, 11, 72, 84
13, 127731, Note_on_c, 11, 72, 0
13, 127740, Note_on_c, 11, 71, 84
13, 127791, Note_on_c, 11, 71, 0
13, 127800, Note_on_c, 11, 72, 84
13, 127851, Note_on_c, 11, 72, 0
13, 127860, Note_on_c, 11, 75, 84
13, 127911, Note_on_c, 11, 75, 0
13, 127920, Note_on_c, 11, 69, 84
13, 127971, Note_on_c, 11, 69, 0
13, 127980, Note_on_c, 11, 70, 84
13, 128031, Note_on_c, 11, 70, 0
13, 128040, Note_on_c, 11, 71, 84
13, 128091, Note_on_c, 11, 71, 0
13, 128100, Note_on_c, 11, 72, 84
13, 128151, Note_on_c, 11, 72, 0
13, 128160, Note_on_c, 11, 72, 84
13, 128279, Note_on_c, 11, 72, 0
13, 128400, Note_on_c, 11, 78, 84
13, 128519, Note_on_c, 11, 78, 0
13, 128640, Note_on_c, 11, 75, 84
13, 128759, Note_on_c, 11, 75, 0
13, 128880, Note_on_c, 11, 72, 84
13, 128999, Note_on_c, 11, 72, 0
13, 129120, Note_on_c, 11, 69, 84
13, 129239, Note_on_c, 11, 69, 0
13, 129360, Note_on_c, 11, 66, 84
13, 129479, Note_on_c, 11, 66, 0
13, 129600, Note_on_c, 11, 63, 84
13, 129719, Note_on_c, 11, 63, 0
13, 129840, Note_on_c, 11, 66, 84
13, 129959, Note_on_c, 11, 66, 0
13, 130080, Note_on_c, 11, 63, 92
13, 130080, Note_on_c, 11, 60, 92
13, 130529, Note_on_c, 11, 63, 0
13, 130529, Note_on_c, 11, 60, 0
13, 130560, Note_on_c, 11, 63, 92
13, 130560, Note_on_c, 11, 60, 92
13, 131009, Note_on_c, 11, 63, 0
13, 131009, Note_on_c, 11, 60, 0
13, 131040, Note_on_c, 11, 63, 92
13, 131040, Note_on_c, 11, 60, 92
13, 131489, Note_on_c, 11, 63, 0
13, 131489, Note_on_c, 11, 60, 0
13, 131520, Note_on_c, 11, 60, 92
13, 131520, Note_on_c, 11, 63, 92
13, 131969, Note_on_c, 11, 60, 0
13, 131969, Note_on_c, 11, 63, 0
13, 132000, Note_on_c, 11, 63, 84
13, 132000, Note_on_c, 11, 60, 84
13, 132119, Note_on_c, 11, 63, 0
13, 132119, Note_on_c, 11, 60, 0
13, 132240, Note_on_c, 11, 78, 84
13, 132359, Note_on_c, 11, 78, 0
13, 132480, Note_on_c, 11, 75, 84
13, 132599, Note_on_c, 11, 75, 0
13, 132720, Note_on_c, 11, 72, 84
13, 132839, Note_on_c, 11, 72, 0
13, 132960, Note_on_c, 11, 69, 84
13, 133079, Note_on_c, 11, 69, 0
13, 133200, Note_on_c, 11, 66, 84
13, 133319, Note_on_c, 11, 66, 0
13, 133440, Note_on_c, 11, 63, 84
13, 133559, Note_on_c, 11, 63, 0
13, 133680, Note_on_c, 11, 66, 84
13, 133799, Note_on_c, 11, 66, 0
13, 133920, Note_on_c, 11, 63, 92
13, 133920, Note_on_c, 11, 60, 92
13, 134369, Note_on_c, 11, 63, 0
13, 134369, Note_on_c, 11, 60, 0
13, 134400, Note_on_c, 11, 60, 92
13, 134400, Note_on_c, 11, 63, 92
13, 134849, Note_on_c, 11, 60, 0
13, 134849, Note_on_c, 11, 63, 0
13, 134880, Note_on_c, 11, 63, 92
13, 134880, Note_on_c, 11, 60, 92
13, 135329, Note_on_c, 11, 63, 0
13, 135329, Note_on_c, 11, 60, 0
13, 135360, Note_on_c, 11, 63, 92
13, 135360, Note_on_c, 11, 60, 92
13, 135809, Note_on_c, 11, 63, 0
13, 135809, Note_on_c, 11, 60, 0
13, 135840, Note_on_c, 11, 60, 84
13, 135840, Note_on_c, 11, 63, 84
13, 135959, Note_on_c, 11, 60, 0
13, 135959, Note_on_c, 11, 63, 0
13, 136320, Note_on_c, 11, 63, 78
13, 136379, Note_on_c, 11, 63, 0
13, 136380, Note_on_c, 11, 62, 76
13, 136439, Note_on_c, 11, 62, 0
13, 136440, Note_on_c, 11, 63, 75
13, 136499, Note_on_c, 11, 63, 0
13, 136500, Note_on_c, 11, 66, 73
13, 136559, Note_on_c, 11, 66, 0
13, 136800, Note_on_c, 11, 62, 65
13, 136859, Note_on_c, 11, 62, 0
13, 136860, Note_on_c, 11, 61, 64
13, 136919, Note_on_c, 11, 61, 0
13, 136920, Note_on_c, 11, 62, 62
13, 136979, Note_on_c, 11, 62, 0
13, 136980, Note_on_c, 11, 65, 60
13, 137039, Note_on_c, 11, 65, 0
13, 137280, Note_on_c, 11, 60, 52
13, 137339, Note_on_c, 11, 60, 0
13, 137340, Note_on_c, 11, 59, 52
13, 137399, Note_on_c, 11, 59, 0
13, 137400, Note_on_c, 11, 60, 52
13, 137459, Note_on_c, 11, 60, 0
13, 137460, Note_on_c, 11, 63, 52
13, 137519, Note_on_c, 11, 63, 0
13, 137520, Note_on_c, 11, 58, 52
13, 137579, Note_on_c, 11, 58, 0
13, 137580, Note_on_c, 11, 57, 52
13, 137639, Note_on_c, 11, 57, 0
13, 137640, Note_on_c, 11, 58, 52
13, 137699, Note_on_c, 11, 58, 0
13, 137700, Note_on_c, 11, 62, 52
13, 137751, Note_on_c, 11, 62, 0
13, 137760, Note_on_c, 11, 58, 52
13, 137879, Note_on_c, 11, 58, 0
13, 137998, Program_c, 11, 45
13, 138000, Note_on_c, 11, 70, 48
13, 138119, Note_on_c, 11, 70, 0
13, 138240, Note_on_c, 11, 70, 48
13, 138359, Note_on_c, 11, 70, 0
13, 138960, Note_on_c, 11, 69, 48
13, 139079, Note_on_c, 11, 69, 0
13, 139200, Note_on_c, 11, 70, 48
13, 139319, Note_on_c, 11, 70, 0
13, 139440, Note_on_c, 11, 72, 48
13, 139559, Note_on_c, 11, 72, 0
13, 139678, Program_c, 11, 48
13, 139680, Note_on_c, 11, 70, 76
13, 139731, Note_on_c, 11, 70, 0
13, 139740, Note_on_c, 11, 69, 76
13, 139791, Note_on_c, 11, 69, 0
13, 139800, Note_on_c, 11, 70, 76
13, 139851, Note_on_c, 11, 70, 0
13, 139860, Note_on_c, 11, 74, 76
13, 139911, Note_on_c, 11, 74, 0
13, 139920, Note_on_c, 11, 65, 76
13, 139971, Note_on_c, 11, 65, 0
13, 139980, Note_on_c, 11, 67, 76
13, 140031, Note_on_c, 11, 67, 0
13, 140040, Note_on_c, 11, 69, 76
13, 140091, Note_on_c, 11, 69, 0
13, 140100, Note_on_c, 11, 70, 76
13, 140131, Note_on_c, 11, 70, 0
13, 140140, Note_on_c, 11, 74, 76
13, 140159, Note_on_c, 11, 74, 0
13, 140160, Note_on_c, 11, 72, 76
13, 140211, Note_on_c, 11, 72, 0
13, 140220, Note_on_c, 11, 71, 76
13, 140271, Note_on_c, 11, 71, 0
13, 140280, Note_on_c, 11, 72, 76
13, 140331, Note_on_c, 11, 72, 0
13, 140340, Note_on_c, 11, 75, 76
13, 140391, Note_on_c, 11, 75, 0
13, 140400, Note_on_c, 11, 79, 76
13, 140451, Note_on_c, 11, 79, 0
13, 140460, Note_on_c, 11, 77, 76
13, 140511, Note_on_c, 11, 77, 0
13, 140520, Note_on_c, 11, 75, 76
13, 140571, Note_on_c, 11, 75, 0
13, 140580, Note_on_c, 11, 74, 76
13, 140631, Note_on_c, 11, 74, 0
13, 140640, Note_on_c, 11, 72, 76
13, 140691, Note_on_c, 11, 72, 0
13, 140700, Note_on_c, 11, 70, 76
13, 140751, Note_on_c, 11, 70, 0
13, 140760, Note_on_c, 11, 69, 76
13, 140811, Note_on_c, 11, 69, 0
13, 140820, Note_on_c, 11, 67, 76
13, 140871, Note_on_c, 11, 67, 0
13, 140880, Note_on_c, 11, 81, 76
13, 140880, Note_on_c, 11, 65, 76
13, 140880, Note_on_c, 11, 72, 76
13, 140999, Note_on_c, 11, 81, 0
13, 140999, Note_on_c, 11, 65, 0
13, 140999, Note_on_c, 11, 72, 0
13, 141120, Note_on_c, 11, 82, 76
13, 141120, Note_on_c, 11, 65, 76
13, 141120, Note_on_c, 11, 74, 76
13, 141239, Note_on_c, 11, 82, 0
13, 141239, Note_on_c, 11, 65, 0
13, 141239, Note_on_c, 11, 74, 0
13, 141360, Note_on_c, 11, 84, 76
13, 141360, Note_on_c, 11, 69, 76
13, 141479, Note_on_c, 11, 84, 0
13, 141479, Note_on_c, 11, 69, 0
13, 141600, Note_on_c, 11, 58, 76
13, 141651, Note_on_c, 11, 58, 0
13, 141660, Note_on_c, 11, 62, 76
13, 141711, Note_on_c, 11, 62, 0
13, 141720, Note_on_c, 11, 65, 76
13, 141771, Note_on_c, 11, 65, 0
13, 141780, Note_on_c, 11, 70, 76
13, 141831, Note_on_c, 11, 70, 0
13, 141840, Note_on_c, 11, 74, 76
13, 141891, Note_on_c, 11, 74, 0
13, 141900, Note_on_c, 11, 77, 76
13, 141951, Note_on_c, 11, 77, 0
13, 141960, Note_on_c, 11, 82, 76
13, 142011, Note_on_c, 11, 82, 0
13, 142020, Note_on_c, 11, 82, 76
13, 142071, Note_on_c, 11, 82, 0
13, 142080, Note_on_c, 11, 82, 76
13, 142424, Note_on_c, 11, 82, 0
13, 142440, Note_on_c, 11, 89, 76
13, 142544, Note_on_c, 11, 89, 0
13, 142560, Note_on_c, 11, 81, 76
13, 142664, Note_on_c, 11, 81, 0
13, 142680, Note_on_c, 11, 87, 76
13, 142784, Note_on_c, 11, 87, 0
13, 142800, Note_on_c, 11, 81, 76
13, 142904, Note_on_c, 11, 81, 0
13, 142920, Note_on_c, 11, 84, 76
13, 143024, Note_on_c, 11, 84, 0
13, 143040, Note_on_c, 11, 75, 76
13, 143144, Note_on_c, 11, 75, 0
13, 143160, Note_on_c, 11, 79, 76
13, 143264, Note_on_c, 11, 79, 0
13, 143280, Note_on_c, 11, 72, 76
13, 143384, Note_on_c, 11, 72, 0
13, 143400, Note_on_c, 11, 77, 76
13, 143504, Note_on_c, 11, 77, 0
13, 143520, Note_on_c, 11, 65, 76
13, 143520, Note_on_c, 11, 74, 76
13, 143571, Note_on_c, 11, 65, 0
13, 143571, Note_on_c, 11, 74, 0
13, 143580, Note_on_c, 11, 65, 76
13, 143580, Note_on_c, 11, 74, 76
13, 143631, Note_on_c, 11, 65, 0
13, 143631, Note_on_c, 11, 74, 0
13, 143640, Note_on_c, 11, 65, 76
13, 143640, Note_on_c, 11, 74, 76
13, 143691, Note_on_c, 11, 65, 0
13, 143691, Note_on_c, 11, 74, 0
13, 143700, Note_on_c, 11, 74, 76
13, 143700, Note_on_c, 11, 65, 76
13, 143751, Note_on_c, 11, 74, 0
13, 143751, Note_on_c, 11, 65, 0
13, 143760, Note_on_c, 11, 65, 76
13, 143760, Note_on_c, 11, 74, 76
13, 143811, Note_on_c, 11, 65, 0
13, 143811, Note_on_c, 11, 74, 0
13, 143820, Note_on_c, 11, 65, 76
13, 143820, Note_on_c, 11, 74, 76
13, 143871, Note_on_c, 11, 65, 0
13, 143871, Note_on_c, 11, 74, 0
13, 143880, Note_on_c, 11, 65, 76
13, 143880, Note_on_c, 11, 74, 76
13, 143931, Note_on_c, 11, 65, 0
13, 143931, Note_on_c, 11, 74, 0
13, 143940, Note_on_c, 11, 65, 76
13, 143940, Note_on_c, 11, 74, 76
13, 143991, Note_on_c, 11, 65, 0
13, 143991, Note_on_c, 11, 74, 0
13, 144000, Note_on_c, 11, 65, 76
13, 144000, Note_on_c, 11, 74, 76
13, 144051, Note_on_c, 11, 65, 0
13, 144051, Note_on_c, 11, 74, 0
13, 144060, Note_on_c, 11, 65, 76
13, 144060, Note_on_c, 11, 74, 76
13, 144111, Note_on_c, 11, 65, 0
13, 144111, Note_on_c, 11, 74, 0
13, 144120, Note_on_c, 11, 65, 76
13, 144120, Note_on_c, 11, 74, 76
13, 144171, Note_on_c, 11, 65, 0
13, 144171, Note_on_c, 11, 74, 0
13, 144180, Note_on_c, 11, 65, 76
13, 144180, Note_on_c, 11, 74, 76
13, 144231, Note_on_c, 11, 65, 0
13, 144231, Note_on_c, 11, 74, 0
13, 144240, Note_on_c, 11, 65, 76
13, 144240, Note_on_c, 11, 74, 76
13, 144291, Note_on_c, 11, 65, 0
13, 144291, Note_on_c, 11, 74, 0
13, 144300, Note_on_c, 11, 65, 76
13, 144300, Note_on_c, 11, 74, 76
13, 144351, Note_on_c, 11, 65, 0
13, 144351, Note_on_c, 11, 74, 0
13, 144360, Note_on_c, 11, 74, 76
13, 144360, Note_on_c, 11, 65, 76
13, 144411, Note_on_c, 11, 74, 0
13, 144411, Note_on_c, 11, 65, 0
13, 144420, Note_on_c, 11, 65, 76
13, 144420, Note_on_c, 11, 74, 76
13, 144471, Note_on_c, 11, 65, 0
13, 144471, Note_on_c, 11, 74, 0
13, 144480, Note_on_c, 11, 65, 76
13, 144480, Note_on_c, 11, 74, 76
13, 144531, Note_on_c, 11, 65, 0
13, 144531, Note_on_c, 11, 74, 0
13, 144540, Note_on_c, 11, 65, 76
13, 144540, Note_on_c, 11, 74, 76
13, 144591, Note_on_c, 11, 65, 0
13, 144591, Note_on_c, 11, 74, 0
13, 144600, Note_on_c, 11, 74, 76
13, 144600, Note_on_c, 11, 65, 76
13, 144651, Note_on_c, 11, 74, 0
13, 144651, Note_on_c, 11, 65, 0
13, 144660, Note_on_c, 11, 65, 76
13, 144660, Note_on_c, 11, 74, 76
13, 144711, Note_on_c, 11, 65, 0
13, 144711, Note_on_c, 11, 74, 0
13, 144720, Note_on_c, 11, 74, 76
13, 144720, Note_on_c, 11, 65, 76
13, 144771, Note_on_c, 11, 74, 0
13, 144771, Note_on_c, 11, 65, 0
13, 144780, Note_on_c, 11, 65, 76
13, 144780, Note_on_c, 11, 74, 76
13, 144831, Note_on_c, 11, 65, 0
13, 144831, Note_on_c, 11, 74, 0
13, 144840, Note_on_c, 11, 65, 76
13, 144840, Note_on_c, 11, 74, 76
13, 144891, Note_on_c, 11, 65, 0
13, 144891, Note_on_c, 11, 74, 0
13, 144900, Note_on_c, 11, 65, 76
13, 144900, Note_on_c, 11, 74, 76
13, 144951, Note_on_c, 11, 65, 0
13, 144951, Note_on_c, 11, 74, 0
13, 144960, Note_on_c, 11, 65, 76
13, 144960, Note_on_c, 11, 74, 76
13, 145011, Note_on_c, 11, 65, 0
13, 145011, Note_on_c, 11, 74, 0
13, 145020, Note_on_c, 11, 74, 76
13, 145020, Note_on_c, 11, 65, 76
13, 145071, Note_on_c, 11, 74, 0
13, 145071, Note_on_c, 11, 65, 0
13, 145080, Note_on_c, 11, 74, 76
13, 145080, Note_on_c, 11, 65, 76
13, 145131, Note_on_c, 11, 74, 0
13, 145131, Note_on_c, 11, 65, 0
13, 145140, Note_on_c, 11, 65, 76
13, 145140, Note_on_c, 11, 74, 76
13, 145191, Note_on_c, 11, 65, 0
13, 145191, Note_on_c, 11, 74, 0
13, 145200, Note_on_c, 11, 74, 76
13, 145200, Note_on_c, 11, 65, 76
13, 145251, Note_on_c, 11, 74, 0
13, 145251, Note_on_c, 11, 65, 0
13, 145260, Note_on_c, 11, 65, 76
13, 145260, Note_on_c, 11, 74, 76
13, 145311, Note_on_c, 11, 65, 0
13, 145311, Note_on_c, 11, 74, 0
13, 145320, Note_on_c, 11, 74, 76
13, 145320, Note_on_c, 11, 65, 76
13, 145371, Note_on_c, 11, 74, 0
13, 145371, Note_on_c, 11, 65, 0
13, 145380, Note_on_c, 11, 74, 76
13, 145380, Note_on_c, 11, 65, 76
13, 145431, Note_on_c, 11, 74, 0
13, 145431, Note_on_c, 11, 65, 0
13, 145440, Note_on_c, 11, 55, 76
13, 145491, Note_on_c, 11, 55, 0
13, 145500, Note_on_c, 11, 58, 76
13, 145551, Note_on_c, 11, 58, 0
13, 145560, Note_on_c, 11, 63, 76
13, 145611, Note_on_c, 11, 63, 0
13, 145620, Note_on_c, 11, 67, 76
13, 145671, Note_on_c, 11, 67, 0
13, 145680, Note_on_c, 11, 70, 76
13, 145731, Note_on_c, 11, 70, 0
13, 145740, Note_on_c, 11, 75, 76
13, 145791, Note_on_c, 11, 75, 0
13, 145800, Note_on_c, 11, 79, 76
13, 145851, Note_on_c, 11, 79, 0
13, 145860, Note_on_c, 11, 79, 76
13, 145911, Note_on_c, 11, 79, 0
13, 145920, Note_on_c, 11, 79, 76
13, 146264, Note_on_c, 11, 79, 0
13, 146280, Note_on_c, 11, 79, 76
13, 146384, Note_on_c, 11, 79, 0
13, 146400, Note_on_c, 11, 80, 76
13, 146504, Note_on_c, 11, 80, 0
13, 146520, Note_on_c, 11, 84, 76
13, 146624, Note_on_c, 11, 84, 0
13, 146640, Note_on_c, 11, 77, 76
13, 146744, Note_on_c, 11, 77, 0
13, 146760, Note_on_c, 11, 80, 76
13, 146864, Note_on_c, 11, 80, 0
13, 146880, Note_on_c, 11, 74, 76
13, 146984, Note_on_c, 11, 74, 0
13, 147000, Note_on_c, 11, 77, 76
13, 147104, Note_on_c, 11, 77, 0
13, 147120, Note_on_c, 11, 70, 76
13, 147224, Note_on_c, 11, 70, 0
13, 147240, Note_on_c, 11, 82, 76
13, 147359, Note_on_c, 11, 82, 0
13, 148320, Note_on_c, 11, 72, 52
13, 148424, Note_on_c, 11, 72, 0
13, 148440, Note_on_c, 11, 75, 52
13, 148544, Note_on_c, 11, 75, 0
13, 148560, Note_on_c, 11, 67, 52
13, 148664, Note_on_c, 11, 67, 0
13, 148680, Note_on_c, 11, 72, 52
13, 148784, Note_on_c, 11, 72, 0
13, 148800, Note_on_c, 11, 63, 52
13, 148904, Note_on_c, 11, 63, 0
13, 148920, Note_on_c, 11, 67, 52
13, 149024, Note_on_c, 11, 67, 0
13, 149040, Note_on_c, 11, 60, 52
13, 149144, Note_on_c, 11, 60, 0
13, 149160, Note_on_c, 11, 63, 52
13, 149264, Note_on_c, 11, 63, 0
13, 149280, Note_on_c, 11, 69, 76
13, 149331, Note_on_c, 11, 69, 0
13, 149340, Note_on_c, 11, 69, 76
13, 149391, Note_on_c, 11, 69, 0
13, 149400, Note_on_c, 11, 72, 76
13, 149451, Note_on_c, 11, 72, 0
13, 149460, Note_on_c, 11, 72, 76
13, 149511, Note_on_c, 11, 72, 0
13, 149520, Note_on_c, 11, 63, 76
13, 149571, Note_on_c, 11, 63, 0
13, 149580, Note_on_c, 11, 63, 76
13, 149631, Note_on_c, 11, 63, 0
13, 149640, Note_on_c, 11, 69, 76
13, 149691, Note_on_c, 11, 69, 0
13, 149700, Note_on_c, 11, 69, 76
13, 149751, Note_on_c, 11, 69, 0
13, 149760, Note_on_c, 11, 60, 76
13, 149811, Note_on_c, 11, 60, 0
13, 149820, Note_on_c, 11, 60, 76
13, 149871, Note_on_c, 11, 60, 0
13, 149880, Note_on_c, 11, 63, 76
13, 149931, Note_on_c, 11, 63, 0
13, 149940, Note_on_c, 11, 63, 76
13, 149991, Note_on_c, 11, 63, 0
13, 150000, Note_on_c, 11, 57, 76
13, 150051, Note_on_c, 11, 57, 0
13, 150060, Note_on_c, 11, 57, 76
13, 150111, Note_on_c, 11, 57, 0
13, 150120, Note_on_c, 11, 60, 76
13, 150171, Note_on_c, 11, 60, 0
13, 150180, Note_on_c, 11, 60, 76
13, 150231, Note_on_c, 11, 60, 0
13, 150240, Note_on_c, 11, 57, 84
13, 150291, Note_on_c, 11, 57, 0
13, 150300, Note_on_c, 11, 60, 84
13, 150351, Note_on_c, 11, 60, 0
13, 150360, Note_on_c, 11, 63, 84
13, 150411, Note_on_c, 11, 63, 0
13, 150420, Note_on_c, 11, 69, 84
13, 150471, Note_on_c, 11, 69, 0
13, 150480, Note_on_c, 11, 72, 84
13, 150531, Note_on_c, 11, 72, 0
13, 150540, Note_on_c, 11, 75, 84
13, 150591, Note_on_c, 11, 75, 0
13, 150600, Note_on_c, 11, 81, 84
13, 150651, Note_on_c, 11, 81, 0
13, 150660, Note_on_c, 11, 81, 84
13, 150711, Note_on_c, 11, 81, 0
13, 150720, Note_on_c, 11, 81, 84
13, 150771, Note_on_c, 11, 81, 0
13, 150780, Note_on_c, 11, 84, 84
13, 150831, Note_on_c, 11, 84, 0
13, 150840, Note_on_c, 11, 84, 84
13, 150891, Note_on_c, 11, 84, 0
13, 150900, Note_on_c, 11, 84, 84
13, 150951, Note_on_c, 11, 84, 0
13, 150960, Note_on_c, 11, 84, 84
13, 151011, Note_on_c, 11, 84, 0
13, 151020, Note_on_c, 11, 84, 84
13, 151071, Note_on_c, 11, 84, 0
13, 151080, Note_on_c, 11, 84, 84
13, 151131, Note_on_c, 11, 84, 0
13, 151140, Note_on_c, 11, 84, 84
13, 151191, Note_on_c, 11, 84, 0
13, 151200, Note_on_c, 11, 84, 84
13, 151251, Note_on_c, 11, 84, 0
13, 151260, Note_on_c, 11, 87, 84
13, 151311, Note_on_c, 11, 87, 0
13, 151320, Note_on_c, 11, 87, 84
13, 151371, Note_on_c, 11, 87, 0
13, 151380, Note_on_c, 11, 87, 84
13, 151431, Note_on_c, 11, 87, 0
13, 151440, Note_on_c, 11, 87, 84
13, 151491, Note_on_c, 11, 87, 0
13, 151500, Note_on_c, 11, 87, 84
13, 151551, Note_on_c, 11, 87, 0
13, 151560, Note_on_c, 11, 87, 84
13, 151611, Note_on_c, 11, 87, 0
13, 151620, Note_on_c, 11, 87, 84
13, 151671, Note_on_c, 11, 87, 0
13, 151680, Note_on_c, 11, 87, 84
13, 151784, Note_on_c, 11, 87, 0
13, 151800, Note_on_c, 11, 77, 76
13, 151851, Note_on_c, 11, 77, 0
13, 151860, Note_on_c, 11, 77, 72
13, 151911, Note_on_c, 11, 77, 0
13, 151920, Note_on_c, 11, 75, 68
13, 151971, Note_on_c, 11, 75, 0
13, 151980, Note_on_c, 11, 75, 64
13, 152031, Note_on_c, 11, 75, 0
13, 152040, Note_on_c, 11, 72, 60
13, 152091, Note_on_c, 11, 72, 0
13, 152100, Note_on_c, 11, 72, 56
13, 152151, Note_on_c, 11, 72, 0
13, 152160, Note_on_c, 11, 70, 52
13, 152639, Note_on_c, 11, 70, 0
13, 152640, Note_on_c, 11, 72, 52
13, 153119, Note_on_c, 11, 72, 0
13, 153120, Note_on_c, 11, 74, 52
13, 153599, Note_on_c, 11, 74, 0
13, 153600, Note_on_c, 11, 72, 52
13, 154064, Note_on_c, 11, 72, 0
13, 154080, Note_on_c, 11, 72, 52
13, 154424, Note_on_c, 11, 72, 0
13, 154440, Note_on_c, 11, 72, 52
13, 154544, Note_on_c, 11, 72, 0
13, 154560, Note_on_c, 11, 72, 52
13, 154679, Note_on_c, 11, 72, 0
13, 154800, Note_on_c, 11, 72, 52
13, 154919, Note_on_c, 11, 72, 0
13, 155040, Note_on_c, 11, 72, 52
13, 155159, Note_on_c, 11, 72, 0
13, 155280, Note_on_c, 11, 72, 52
13, 155399, Note_on_c, 11, 72, 0
13, 155520, Note_on_c, 11, 72, 52
13, 155624, Note_on_c, 11, 72, 0
13, 155640, Note_on_c, 11, 65, 52
13, 155759, Note_on_c, 11, 65, 0
13, 155760, Note_on_c, 11, 63, 52
13, 155879, Note_on_c, 11, 63, 0
13, 155880, Note_on_c, 11, 60, 52
13, 155984, Note_on_c, 11, 60, 0
13, 156000, Note_on_c, 11, 62, 52
13, 156119, Note_on_c, 11, 62, 0
13, 156120, Note_on_c, 11, 63, 52
13, 156239, Note_on_c, 11, 63, 0
13, 156240, Note_on_c, 11, 64, 52
13, 156359, Note_on_c, 11, 64, 0
13, 156360, Note_on_c, 11, 65, 52
13, 156584, Note_on_c, 11, 65, 0
13, 156600, Note_on_c, 11, 65, 52
13, 156824, Note_on_c, 11, 65, 0
13, 156840, Note_on_c, 11, 69, 52
13, 157064, Note_on_c, 11, 69, 0
13, 157080, Note_on_c, 11, 70, 52
13, 157304, Note_on_c, 11, 70, 0
13, 157320, Note_on_c, 11, 74, 52
13, 157544, Note_on_c, 11, 74, 0
13, 157560, Note_on_c, 11, 77, 52
13, 157784, Note_on_c, 11, 77, 0
13, 157800, Note_on_c, 11, 81, 52
13, 157904, Note_on_c, 11, 81, 0
13, 157920, Note_on_c, 11, 84, 52
13, 158279, Note_on_c, 11, 84, 0
13, 158280, Note_on_c, 11, 82, 52
13, 158384, Note_on_c, 11, 82, 0
13, 158400, Note_on_c, 11, 81, 52
13, 158519, Note_on_c, 11, 81, 0
13, 158520, Note_on_c, 11, 84, 52
13, 158624, Note_on_c, 11, 84, 0
13, 158640, Note_on_c, 11, 77, 52
13, 158759, Note_on_c, 11, 77, 0
13, 158760, Note_on_c, 11, 81, 52
13, 158864, Note_on_c, 11, 81, 0
13, 158880, Note_on_c, 11, 72, 52
13, 158999, Note_on_c, 11, 72, 0
13, 159000, Note_on_c, 11, 77, 52
13, 159104, Note_on_c, 11, 77, 0
13, 159120, Note_on_c, 11, 76, 52
13, 159239, Note_on_c, 11, 76, 0
13, 159240, Note_on_c, 11, 79, 52
13, 159344, Note_on_c, 11, 79, 0
13, 159360, Note_on_c, 11, 77, 52
13, 159479, Note_on_c, 11, 77, 0
13, 160680, Note_on_c, 11, 74, 76
13, 160784, Note_on_c, 11, 74, 0
13, 160800, Note_on_c, 11, 72, 76
13, 160919, Note_on_c, 11, 72, 0
13, 160920, Note_on_c, 11, 70, 76
13, 161024, Note_on_c, 11, 70, 0
13, 161040, Note_on_c, 11, 72, 76
13, 161129, Note_on_c, 11, 72, 0
13, 161160, Note_on_c, 11, 74, 76
13, 161249, Note_on_c, 11, 74, 0
13, 161280, Note_on_c, 11, 75, 76
13, 161399, Note_on_c, 11, 75, 0
13, 162600, Note_on_c, 11, 74, 76
13, 162704, Note_on_c, 11, 74, 0
13, 162720, Note_on_c, 11, 72, 76
13, 162839, Note_on_c, 11, 72, 0
13, 162840, Note_on_c, 11, 70, 76
13, 162944, Note_on_c, 11, 70, 0
13, 162960, Note_on_c, 11, 72, 76
13, 163049, Note_on_c, 11, 72, 0
13, 163080, Note_on_c, 11, 74, 76
13, 163169, Note_on_c, 11, 74, 0
13, 163200, Note_on_c, 11, 75, 76
13, 163289, Note_on_c, 11, 75, 0
13, 163320, Note_on_c, 11, 75, 76
13, 163409, Note_on_c, 11, 75, 0
13, 163560, Note_on_c, 11, 74, 76
13, 163611, Note_on_c, 11, 74, 0
13, 163620, Note_on_c, 11, 74, 76
13, 163671, Note_on_c, 11, 74, 0
13, 163680, Note_on_c, 11, 72, 76
13, 163731, Note_on_c, 11, 72, 0
13, 163740, Note_on_c, 11, 72, 76
13, 163791, Note_on_c, 11, 72, 0
13, 163800, Note_on_c, 11, 70, 76
13, 163851, Note_on_c, 11, 70, 0
13, 163860, Note_on_c, 11, 70, 76
13, 163911, Note_on_c, 11, 70, 0
13, 163920, Note_on_c, 11, 72, 76
13, 163971, Note_on_c, 11, 72, 0
13, 163980, Note_on_c, 11, 72, 76
13, 164031, Note_on_c, 11, 72, 0
13, 164040, Note_on_c, 11, 74, 76
13, 164091, Note_on_c, 11, 74, 0
13, 164100, Note_on_c, 11, 74, 76
13, 164151, Note_on_c, 11, 74, 0
13, 164160, Note_on_c, 11, 75, 76
13, 164264, Note_on_c, 11, 75, 0
13, 164280, Note_on_c, 11, 75, 76
13, 164399, Note_on_c, 11, 75, 0
13, 164520, Note_on_c, 11, 77, 76
13, 164571, Note_on_c, 11, 77, 0
13, 164580, Note_on_c, 11, 77, 76
13, 164631, Note_on_c, 11, 77, 0
13, 164640, Note_on_c, 11, 79, 76
13, 164691, Note_on_c, 11, 79, 0
13, 164700, Note_on_c, 11, 79, 76
13, 164751, Note_on_c, 11, 79, 0
13, 164760, Note_on_c, 11, 77, 76
13, 164811, Note_on_c, 11, 77, 0
13, 164820, Note_on_c, 11, 77, 76
13, 164871, Note_on_c, 11, 77, 0
13, 164880, Note_on_c, 11, 79, 76
13, 164931, Note_on_c, 11, 79, 0
13, 164940, Note_on_c, 11, 79, 76
13, 164991, Note_on_c, 11, 79, 0
13, 165000, Note_on_c, 11, 81, 76
13, 165051, Note_on_c, 11, 81, 0
13, 165060, Note_on_c, 11, 81, 76
13, 165111, Note_on_c, 11, 81, 0
13, 165120, Note_on_c, 11, 82, 84
13, 165824, Note_on_c, 11, 82, 0
13, 165840, Note_on_c, 11, 70, 84
13, 165899, Note_on_c, 11, 70, 0
13, 165900, Note_on_c, 11, 68, 84
13, 165959, Note_on_c, 11, 68, 0
13, 165960, Note_on_c, 11, 66, 84
13, 166019, Note_on_c, 11, 66, 0
13, 166020, Note_on_c, 11, 65, 84
13, 166071, Note_on_c, 11, 65, 0
13, 166080, Note_on_c, 11, 64, 84
13, 166304, Note_on_c, 11, 64, 0
13, 166320, Note_on_c, 11, 64, 92
13, 166379, Note_on_c, 11, 64, 0
13, 166380, Note_on_c, 11, 63, 84
13, 166439, Note_on_c, 11, 63, 0
13, 166440, Note_on_c, 11, 64, 84
13, 166499, Note_on_c, 11, 64, 0
13, 166500, Note_on_c, 11, 67, 84
13, 166559, Note_on_c, 11, 67, 0
13, 166800, Note_on_c, 11, 64, 92
13, 166859, Note_on_c, 11, 64, 0
13, 166860, Note_on_c, 11, 63, 84
13, 166919, Note_on_c, 11, 63, 0
13, 166920, Note_on_c, 11, 64, 84
13, 166979, Note_on_c, 11, 64, 0
13, 166980, Note_on_c, 11, 67, 84
13, 167039, Note_on_c, 11, 67, 0
13, 167280, Note_on_c, 11, 64, 92
13, 167339, Note_on_c, 11, 64, 0
13, 167340, Note_on_c, 11, 63, 84
13, 167399, Note_on_c, 11, 63, 0
13, 167400, Note_on_c, 11, 64, 84
13, 167459, Note_on_c, 11, 64, 0
13, 167460, Note_on_c, 11, 67, 84
13, 167519, Note_on_c, 11, 67, 0
13, 167760, Note_on_c, 11, 64, 92
13, 167819, Note_on_c, 11, 64, 0
13, 167820, Note_on_c, 11, 63, 84
13, 167879, Note_on_c, 11, 63, 0
13, 167880, Note_on_c, 11, 64, 84
13, 167939, Note_on_c, 11, 64, 0
13, 167940, Note_on_c, 11, 67, 84
13, 167999, Note_on_c, 11, 67, 0
13, 168240, Note_on_c, 11, 77, 52
13, 168584, Note_on_c, 11, 77, 0
13, 168600, Note_on_c, 11, 79, 52
13, 168659, Note_on_c, 11, 79, 0
13, 168660, Note_on_c, 11, 77, 52
13, 168719, Note_on_c, 11, 77, 0
13, 168840, Note_on_c, 11, 75, 52
13, 168899, Note_on_c, 11, 75, 0
13, 168900, Note_on_c, 11, 74, 52
13, 168959, Note_on_c, 11, 74, 0
13, 169080, Note_on_c, 11, 77, 52
13, 169139, Note_on_c, 11, 77, 0
13, 169140, Note_on_c, 11, 75, 52
13, 169199, Note_on_c, 11, 75, 0
13, 169320, Note_on_c, 11, 74, 52
13, 169379, Note_on_c, 11, 74, 0
13, 169380, Note_on_c, 11, 72, 52
13, 169439, Note_on_c, 11, 72, 0
13, 169560, Note_on_c, 11, 72, 52
13, 169619, Note_on_c, 11, 72, 0
13, 169620, Note_on_c, 11, 70, 52
13, 169679, Note_on_c, 11, 70, 0
13, 169800, Note_on_c, 11, 70, 52
13, 169859, Note_on_c, 11, 70, 0
13, 169860, Note_on_c, 11, 69, 52
13, 169911, Note_on_c, 11, 69, 0
13, 169920, Note_on_c, 11, 73, 84
13, 169920, Note_on_c, 11, 64, 84
13, 170144, Note_on_c, 11, 73, 0
13, 170144, Note_on_c, 11, 64, 0
13, 170160, Note_on_c, 11, 64, 92
13, 170219, Note_on_c, 11, 64, 0
13, 170220, Note_on_c, 11, 63, 84
13, 170279, Note_on_c, 11, 63, 0
13, 170280, Note_on_c, 11, 64, 84
13, 170339, Note_on_c, 11, 64, 0
13, 170340, Note_on_c, 11, 67, 84
13, 170399, Note_on_c, 11, 67, 0
13, 170640, Note_on_c, 11, 64, 92
13, 170699, Note_on_c, 11, 64, 0
13, 170700, Note_on_c, 11, 63, 84
13, 170759, Note_on_c, 11, 63, 0
13, 170760, Note_on_c, 11, 64, 84
13, 170819, Note_on_c, 11, 64, 0
13, 170820, Note_on_c, 11, 67, 84
13, 170879, Note_on_c, 11, 67, 0
13, 171120, Note_on_c, 11, 64, 92
13, 171179, Note_on_c, 11, 64, 0
13, 171180, Note_on_c, 11, 63, 84
13, 171239, Note_on_c, 11, 63, 0
13, 171240, Note_on_c, 11, 64, 84
13, 171299, Note_on_c, 11, 64, 0
13, 171300, Note_on_c, 11, 67, 84
13, 171359, Note_on_c, 11, 67, 0
13, 171600, Note_on_c, 11, 64, 92
13, 171659, Note_on_c, 11, 64, 0
13, 171660, Note_on_c, 11, 63, 84
13, 171719, Note_on_c, 11, 63, 0
13, 171720, Note_on_c, 11, 64, 84
13, 171779, Note_on_c, 11, 64, 0
13, 171780, Note_on_c, 11, 67, 84
13, 171839, Note_on_c, 11, 67, 0
13, 172080, Note_on_c, 11, 79, 52
13, 172424, Note_on_c, 11, 79, 0
13, 172440, Note_on_c, 11, 80, 52
13, 172499, Note_on_c, 11, 80, 0
13, 172500, Note_on_c, 11, 79, 52
13, 172559, Note_on_c, 11, 79, 0
13, 172680, Note_on_c, 11, 77, 52
13, 172739, Note_on_c, 11, 77, 0
13, 172740, Note_on_c, 11, 75, 52
13, 172799, Note_on_c, 11, 75, 0
13, 173040, Note_on_c, 11, 81, 52
13, 173384, Note_on_c, 11, 81, 0
13, 173400, Note_on_c, 11, 82, 52
13, 173459, Note_on_c, 11, 82, 0
13, 173460, Note_on_c, 11, 81, 52
13, 173519, Note_on_c, 11, 81, 0
13, 173640, Note_on_c, 11, 79, 52
13, 173699, Note_on_c, 11, 79, 0
13, 173700, Note_on_c, 11, 77, 52
13, 173759, Note_on_c, 11, 77, 0
13, 173880, Note_on_c, 11, 82, 52
13, 173939, Note_on_c, 11, 82, 0
13, 173940, Note_on_c, 11, 77, 53
13, 173999, Note_on_c, 11, 77, 0
13, 174120, Note_on_c, 11, 74, 56
13, 174179, Note_on_c, 11, 74, 0
13, 174180, Note_on_c, 11, 70, 57
13, 174239, Note_on_c, 11, 70, 0
13, 174360, Note_on_c, 11, 79, 60
13, 174419, Note_on_c, 11, 79, 0
13, 174420, Note_on_c, 11, 75, 61
13, 174479, Note_on_c, 11, 75, 0
13, 174600, Note_on_c, 11, 72, 64
13, 174659, Note_on_c, 11, 72, 0
13, 174660, Note_on_c, 11, 77, 65
13, 174719, Note_on_c, 11, 77, 0
13, 174840, Note_on_c, 11, 82, 69
13, 174899, Note_on_c, 11, 82, 0
13, 174900, Note_on_c, 11, 77, 70
13, 174959, Note_on_c, 11, 77, 0
13, 175080, Note_on_c, 11, 74, 73
13, 175139, Note_on_c, 11, 74, 0
13, 175140, Note_on_c, 11, 70, 74
13, 175199, Note_on_c, 11, 70, 0
13, 175320, Note_on_c, 11, 79, 77
13, 175379, Note_on_c, 11, 79, 0
13, 175380, Note_on_c, 11, 75, 78
13, 175439, Note_on_c, 11, 75, 0
13, 175560, Note_on_c, 11, 72, 81
13, 175619, Note_on_c, 11, 72, 0
13, 175620, Note_on_c, 11, 77, 82
13, 175671, Note_on_c, 11, 77, 0
13, 175680, Note_on_c, 11, 70, 84
13, 175731, Note_on_c, 11, 70, 0
13, 175740, Note_on_c, 11, 82, 84
13, 175791, Note_on_c, 11, 82, 0
13, 175800, Note_on_c, 11, 82, 84
13, 175851, Note_on_c, 11, 82, 0
13, 175860, Note_on_c, 11, 77, 84
13, 175911, Note_on_c, 11, 77, 0
13, 175920, Note_on_c, 11, 74, 84
13, 175971, Note_on_c, 11, 74, 0
13, 175980, Note_on_c, 11, 74, 84
13, 176031, Note_on_c, 11, 74, 0
13, 176040, Note_on_c, 11, 74, 84
13, 176091, Note_on_c, 11, 74, 0
13, 176100, Note_on_c, 11, 70, 84
13, 176151, Note_on_c, 11, 70, 0
13, 176160, Note_on_c, 11, 79, 84
13, 176211, Note_on_c, 11, 79, 0
13, 176220, Note_on_c, 11, 79, 84
13, 176271, Note_on_c, 11, 79, 0
13, 176280, Note_on_c, 11, 79, 84
13, 176331, Note_on_c, 11, 79, 0
13, 176340, Note_on_c, 11, 75, 84
13, 176391, Note_on_c, 11, 75, 0
13, 176400, Note_on_c, 11, 72, 84
13, 176451, Note_on_c, 11, 72, 0
13, 176460, Note_on_c, 11, 72, 84
13, 176511, Note_on_c, 11, 72, 0
13, 176520, Note_on_c, 11, 72, 84
13, 176571, Note_on_c, 11, 72, 0
13, 176580, Note_on_c, 11, 69, 84
13, 176631, Note_on_c, 11, 69, 0
13, 176640, Note_on_c, 11, 77, 84
13, 176984, Note_on_c, 11, 77, 0
13, 177000, Note_on_c, 11, 75, 84
13, 177104, Note_on_c, 11, 75, 0
13, 177120, Note_on_c, 11, 74, 84
13, 177224, Note_on_c, 11, 74, 0
13, 177240, Note_on_c, 11, 74, 84
13, 177344, Note_on_c, 11, 74, 0
13, 177360, Note_on_c, 11, 72, 84
13, 177389, Note_on_c, 11, 72, 0
13, 177390, Note_on_c, 11, 74, 84
13, 177419, Note_on_c, 11, 74, 0
13, 177420, Note_on_c, 11, 72, 84
13, 177449, Note_on_c, 11, 72, 0
13, 177450, Note_on_c, 11, 74, 84
13, 177479, Note_on_c, 11, 74, 0
13, 177480, Note_on_c, 11, 72, 84
13, 177509, Note_on_c, 11, 72, 0
13, 177510, Note_on_c, 11, 74, 84
13, 177539, Note_on_c, 11, 74, 0
13, 177540, Note_on_c, 11, 70, 84
13, 177569, Note_on_c, 11, 70, 0
13, 177570, Note_on_c, 11, 72, 84
13, 177599, Note_on_c, 11, 72, 0
13, 177600, Note_on_c, 11, 70, 84
13, 177651, Note_on_c, 11, 70, 0
13, 177660, Note_on_c, 11, 69, 84
13, 177711, Note_on_c, 11, 69, 0
13, 177720, Note_on_c, 11, 70, 84
13, 177771, Note_on_c, 11, 70, 0
13, 177780, Note_on_c, 11, 74, 84
13, 177831, Note_on_c, 11, 74, 0
13, 177840, Note_on_c, 11, 67, 84
13, 177891, Note_on_c, 11, 67, 0
13, 177900, Note_on_c, 11, 69, 84
13, 177951, Note_on_c, 11, 69, 0
13, 177960, Note_on_c, 11, 70, 84
13, 178011, Note_on_c, 11, 70, 0
13, 178020, Note_on_c, 11, 72, 84
13, 178071, Note_on_c, 11, 72, 0
13, 178080, Note_on_c, 11, 65, 84
13, 178131, Note_on_c, 11, 65, 0
13, 178140, Note_on_c, 11, 67, 84
13, 178191, Note_on_c, 11, 67, 0
13, 178200, Note_on_c, 11, 69, 84
13, 178251, Note_on_c, 11, 69, 0
13, 178260, Note_on_c, 11, 70, 84
13, 178311, Note_on_c, 11, 70, 0
13, 178320, Note_on_c, 11, 63, 84
13, 178371, Note_on_c, 11, 63, 0
13, 178380, Note_on_c, 11, 65, 84
13, 178431, Note_on_c, 11, 65, 0
13, 178440, Note_on_c, 11, 67, 84
13, 178491, Note_on_c, 11, 67, 0
13, 178500, Note_on_c, 11, 69, 84
13, 178551, Note_on_c, 11, 69, 0
13, 178560, Note_on_c, 11, 62, 84
13, 178664, Note_on_c, 11, 62, 0
13, 178680, Note_on_c, 11, 77, 84
13, 178904, Note_on_c, 11, 77, 0
13, 178920, Note_on_c, 11, 75, 84
13, 179024, Note_on_c, 11, 75, 0
13, 179040, Note_on_c, 11, 74, 84
13, 179144, Note_on_c, 11, 74, 0
13, 179160, Note_on_c, 11, 74, 84
13, 179264, Note_on_c, 11, 74, 0
13, 179280, Note_on_c, 11, 72, 84
13, 179309, Note_on_c, 11, 72, 0
13, 179310, Note_on_c, 11, 74, 84
13, 179339, Note_on_c, 11, 74, 0
13, 179340, Note_on_c, 11, 72, 84
13, 179369, Note_on_c, 11, 72, 0
13, 179370, Note_on_c, 11, 74, 84
13, 179399, Note_on_c, 11, 74, 0
13, 179400, Note_on_c, 11, 72, 84
13, 179429, Note_on_c, 11, 72, 0
13, 179430, Note_on_c, 11, 74, 84
13, 179459, Note_on_c, 11, 74, 0
13, 179460, Note_on_c, 11, 70, 84
13, 179489, Note_on_c, 11, 70, 0
13, 179490, Note_on_c, 11, 72, 84
13, 179519, Note_on_c, 11, 72, 0
13, 179520, Note_on_c, 11, 70, 84
13, 179571, Note_on_c, 11, 70, 0
13, 179580, Note_on_c, 11, 69, 84
13, 179631, Note_on_c, 11, 69, 0
13, 179640, Note_on_c, 11, 70, 84
13, 179691, Note_on_c, 11, 70, 0
13, 179700, Note_on_c, 11, 74, 84
13, 179751, Note_on_c, 11, 74, 0
13, 179760, Note_on_c, 11, 67, 84
13, 179811, Note_on_c, 11, 67, 0
13, 179820, Note_on_c, 11, 69, 84
13, 179871, Note_on_c, 11, 69, 0
13, 179880, Note_on_c, 11, 70, 84
13, 179931, Note_on_c, 11, 70, 0
13, 179940, Note_on_c, 11, 72, 84
13, 179991, Note_on_c, 11, 72, 0
13, 180000, Note_on_c, 11, 65, 84
13, 180051, Note_on_c, 11, 65, 0
13, 180060, Note_on_c, 11, 67, 84
13, 180111, Note_on_c, 11, 67, 0
13, 180120, Note_on_c, 11, 69, 84
13, 180171, Note_on_c, 11, 69, 0
13, 180180, Note_on_c, 11, 70, 84
13, 180231, Note_on_c, 11, 70, 0
13, 180240, Note_on_c, 11, 63, 84
13, 180291, Note_on_c, 11, 63, 0
13, 180300, Note_on_c, 11, 65, 84
13, 180351, Note_on_c, 11, 65, 0
13, 180360, Note_on_c, 11, 67, 84
13, 180411, Note_on_c, 11, 67, 0
13, 180420, Note_on_c, 11, 69, 84
13, 180471, Note_on_c, 11, 69, 0
13, 180480, Note_on_c, 11, 70, 84
13, 180480, Note_on_c, 11, 62, 84
13, 180584, Note_on_c, 11, 70, 0
13, 180584, Note_on_c, 11, 62, 0
13, 180600, Note_on_c, 11, 62, 84
13, 180600, Note_on_c, 11, 70, 84
13, 180719, Note_on_c, 11, 62, 0
13, 180719, Note_on_c, 11, 70, 0
13, 180840, Note_on_c, 11, 62, 84
13, 180840, Note_on_c, 11, 74, 84
13, 180944, Note_on_c, 11, 62, 0
13, 180944, Note_on_c, 11, 74, 0
13, 180960, Note_on_c, 11, 70, 84
13, 180960, Note_on_c, 11, 62, 84
13, 181064, Note_on_c, 11, 70, 0
13, 181064, Note_on_c, 11, 62, 0
13, 181080, Note_on_c, 11, 62, 84
13, 181080, Note_on_c, 11, 70, 84
13, 181199, Note_on_c, 11, 62, 0
13, 181199, Note_on_c, 11, 70, 0
13, 181320, Note_on_c, 11, 62, 84
13, 181320, Note_on_c, 11, 74, 84
13, 181424, Note_on_c, 11, 62, 0
13, 181424, Note_on_c, 11, 74, 0
13, 181440, Note_on_c, 11, 62, 84
13, 181440, Note_on_c, 11, 70, 84
13, 181544, Note_on_c, 11, 62, 0
13, 181544, Note_on_c, 11, 70, 0
13, 181560, Note_on_c, 11, 70, 84
13, 181560, Note_on_c, 11, 62, 84
13, 181679, Note_on_c, 11, 70, 0
13, 181679, Note_on_c, 11, 62, 0
13, 181800, Note_on_c, 11, 62, 84
13, 181800, Note_on_c, 11, 74, 84
13, 181904, Note_on_c, 11, 62, 0
13, 181904, Note_on_c, 11, 74, 0
13, 181920, Note_on_c, 11, 62, 84
13, 181920, Note_on_c, 11, 70, 84
13, 182024, Note_on_c, 11, 62, 0
13, 182024, Note_on_c, 11, 70, 0
13, 182040, Note_on_c, 11, 74, 84
13, 182040, Note_on_c, 11, 62, 84
13, 182144, Note_on_c, 11, 74, 0
13, 182144, Note_on_c, 11, 62, 0
13, 182160, Note_on_c, 11, 70, 84
13, 182160, Note_on_c, 11, 62, 84
13, 182264, Note_on_c, 11, 70, 0
13, 182264, Note_on_c, 11, 62, 0
13, 182280, Note_on_c, 11, 74, 84
13, 182280, Note_on_c, 11, 62, 84
13, 182384, Note_on_c, 11, 74, 0
13, 182384, Note_on_c, 11, 62, 0
13, 182400, Note_on_c, 11, 70, 52
13, 182451, Note_on_c, 11, 70, 0
13, 182460, Note_on_c, 11, 69, 52
13, 182511, Note_on_c, 11, 69, 0
13, 182520, Note_on_c, 11, 70, 52
13, 182571, Note_on_c, 11, 70, 0
13, 182580, Note_on_c, 11, 74, 52
13, 182631, Note_on_c, 11, 74, 0
13, 182640, Note_on_c, 11, 65, 52
13, 182691, Note_on_c, 11, 65, 0
13, 182700, Note_on_c, 11, 67, 52
13, 182751, Note_on_c, 11, 67, 0
13, 182760, Note_on_c, 11, 68, 52
13, 182811, Note_on_c, 11, 68, 0
13, 182820, Note_on_c, 11, 69, 52
13, 182871, Note_on_c, 11, 69, 0
13, 182880, Note_on_c, 11, 70, 52
13, 182931, Note_on_c, 11, 70, 0
13, 182940, Note_on_c, 11, 69, 52
13, 182991, Note_on_c, 11, 69, 0
13, 183000, Note_on_c, 11, 70, 52
13, 183051, Note_on_c, 11, 70, 0
13, 183060, Note_on_c, 11, 74, 52
13, 183111, Note_on_c, 11, 74, 0
13, 183120, Note_on_c, 11, 65, 52
13, 183171, Note_on_c, 11, 65, 0
13, 183180, Note_on_c, 11, 67, 52
13, 183231, Note_on_c, 11, 67, 0
13, 183240, Note_on_c, 11, 68, 52
13, 183291, Note_on_c, 11, 68, 0
13, 183300, Note_on_c, 11, 69, 52
13, 183351, Note_on_c, 11, 69, 0
13, 183360, Note_on_c, 11, 70, 52
13, 183411, Note_on_c, 11, 70, 0
13, 183420, Note_on_c, 11, 69, 52
13, 183471, Note_on_c, 11, 69, 0
13, 183480, Note_on_c, 11, 70, 52
13, 183531, Note_on_c, 11, 70, 0
13, 183540, Note_on_c, 11, 74, 52
13, 183591, Note_on_c, 11, 74, 0
13, 183600, Note_on_c, 11, 65, 52
13, 183651, Note_on_c, 11, 65, 0
13, 183660, Note_on_c, 11, 67, 52
13, 183711, Note_on_c, 11, 67, 0
13, 183720, Note_on_c, 11, 68, 52
13, 183771, Note_on_c, 11, 68, 0
13, 183780, Note_on_c, 11, 69, 52
13, 183831, Note_on_c, 11, 69, 0
13, 183840, Note_on_c, 11, 70, 52
13, 183891, Note_on_c, 11, 70, 0
13, 183900, Note_on_c, 11, 69, 52
13, 183951, Note_on_c, 11, 69, 0
13, 183960, Note_on_c, 11, 70, 52
13, 184011, Note_on_c, 11, 70, 0
13, 184020, Note_on_c, 11, 74, 52
13, 184071, Note_on_c, 11, 74, 0
13, 184080, Note_on_c, 11, 71, 52
13, 184131, Note_on_c, 11, 71, 0
13, 184140, Note_on_c, 11, 69, 52
13, 184191, Note_on_c, 11, 69, 0
13, 184200, Note_on_c, 11, 71, 52
13, 184251, Note_on_c, 11, 71, 0
13, 184260, Note_on_c, 11, 74, 52
13, 184311, Note_on_c, 11, 74, 0
13, 184320, Note_on_c, 11, 72, 52
13, 184371, Note_on_c, 11, 72, 0
13, 184380, Note_on_c, 11, 71, 52
13, 184431, Note_on_c, 11, 71, 0
13, 184440, Note_on_c, 11, 72, 52
13, 184491, Note_on_c, 11, 72, 0
13, 184500, Note_on_c, 11, 75, 53
13, 184551, Note_on_c, 11, 75, 0
13, 184560, Note_on_c, 11, 67, 53
13, 184611, Note_on_c, 11, 67, 0
13, 184620, Note_on_c, 11, 69, 53
13, 184671, Note_on_c, 11, 69, 0
13, 184680, Note_on_c, 11, 70, 54
13, 184731, Note_on_c, 11, 70, 0
13, 184740, Note_on_c, 11, 71, 54
13, 184791, Note_on_c, 11, 71, 0
13, 184800, Note_on_c, 11, 72, 55
13, 184851, Note_on_c, 11, 72, 0
13, 184860, Note_on_c, 11, 71, 55
13, 184911, Note_on_c, 11, 71, 0
13, 184920, Note_on_c, 11, 72, 55
13, 184971, Note_on_c, 11, 72, 0
13, 184980, Note_on_c, 11, 75, 56
13, 185031, Note_on_c, 11, 75, 0
13, 185040, Note_on_c, 11, 67, 56
13, 185091, Note_on_c, 11, 67, 0
13, 185100, Note_on_c, 11, 69, 56
13, 185151, Note_on_c, 11, 69, 0
13, 185160, Note_on_c, 11, 70, 57
13, 185211, Note_on_c, 11, 70, 0
13, 185220, Note_on_c, 11, 71, 57
13, 185271, Note_on_c, 11, 71, 0
13, 185280, Note_on_c, 11, 72, 58
13, 185331, Note_on_c, 11, 72, 0
13, 185340, Note_on_c, 11, 71, 58
13, 185391, Note_on_c, 11, 71, 0
13, 185400, Note_on_c, 11, 72, 58
13, 185451, Note_on_c, 11, 72, 0
13, 185460, Note_on_c, 11, 75, 59
13, 185511, Note_on_c, 11, 75, 0
13, 185520, Note_on_c, 11, 67, 59
13, 185571, Note_on_c, 11, 67, 0
13, 185580, Note_on_c, 11, 69, 59
13, 185631, Note_on_c, 11, 69, 0
13, 185640, Note_on_c, 11, 70, 60
13, 185691, Note_on_c, 11, 70, 0
13, 185700, Note_on_c, 11, 71, 60
13, 185751, Note_on_c, 11, 71, 0
13, 185760, Note_on_c, 11, 72, 61
13, 185811, Note_on_c, 11, 72, 0
13, 185820, Note_on_c, 11, 71, 61
13, 185871, Note_on_c, 11, 71, 0
13, 185880, Note_on_c, 11, 72, 61
13, 185931, Note_on_c, 11, 72, 0
13, 185940, Note_on_c, 11, 75, 62
13, 185991, Note_on_c, 11, 75, 0
13, 186000, Note_on_c, 11, 72, 62
13, 186051, Note_on_c, 11, 72, 0
13, 186060, Note_on_c, 11, 71, 62
13, 186111, Note_on_c, 11, 71, 0
13, 186120, Note_on_c, 11, 72, 63
13, 186171, Note_on_c, 11, 72, 0
13, 186180, Note_on_c, 11, 75, 63
13, 186231, Note_on_c, 11, 75, 0
13, 186240, Note_on_c, 11, 73, 64
13, 186291, Note_on_c, 11, 73, 0
13, 186300, Note_on_c, 11, 72, 64
13, 186351, Note_on_c, 11, 72, 0
13, 186360, Note_on_c, 11, 73, 64
13, 186411, Note_on_c, 11, 73, 0
13, 186420, Note_on_c, 11, 77, 65
13, 186471, Note_on_c, 11, 77, 0
13, 186480, Note_on_c, 11, 68, 65
13, 186531, Note_on_c, 11, 68, 0
13, 186540, Note_on_c, 11, 70, 65
13, 186591, Note_on_c, 11, 70, 0
13, 186600, Note_on_c, 11, 71, 66
13, 186651, Note_on_c, 11, 71, 0
13, 186660, Note_on_c, 11, 72, 66
13, 186711, Note_on_c, 11, 72, 0
13, 186720, Note_on_c, 11, 73, 67
13, 186771, Note_on_c, 11, 73, 0
13, 186780, Note_on_c, 11, 72, 67
13, 186831, Note_on_c, 11, 72, 0
13, 186840, Note_on_c, 11, 73, 67
13, 186891, Note_on_c, 11, 73, 0
13, 186900, Note_on_c, 11, 77, 68
13, 186951, Note_on_c, 11, 77, 0
13, 186960, Note_on_c, 11, 74, 68
13, 187011, Note_on_c, 11, 74, 0
13, 187020, Note_on_c, 11, 73, 68
13, 187071, Note_on_c, 11, 73, 0
13, 187080, Note_on_c, 11, 74, 69
13, 187131, Note_on_c, 11, 74, 0
13, 187140, Note_on_c, 11, 77, 69
13, 187191, Note_on_c, 11, 77, 0
13, 187200, Note_on_c, 11, 75, 70
13, 187251, Note_on_c, 11, 75, 0
13, 187260, Note_on_c, 11, 74, 70
13, 187311, Note_on_c, 11, 74, 0
13, 187320, Note_on_c, 11, 75, 70
13, 187371, Note_on_c, 11, 75, 0
13, 187380, Note_on_c, 11, 78, 71
13, 187431, Note_on_c, 11, 78, 0
13, 187440, Note_on_c, 11, 70, 71
13, 187491, Note_on_c, 11, 70, 0
13, 187500, Note_on_c, 11, 72, 71
13, 187551, Note_on_c, 11, 72, 0
13, 187560, Note_on_c, 11, 73, 72
13, 187611, Note_on_c, 11, 73, 0
13, 187620, Note_on_c, 11, 74, 72
13, 187671, Note_on_c, 11, 74, 0
13, 187680, Note_on_c, 11, 75, 73
13, 187731, Note_on_c, 11, 75, 0
13, 187740, Note_on_c, 11, 74, 73
13, 187791, Note_on_c, 11, 74, 0
13, 187800, Note_on_c, 11, 75, 73
13, 187851, Note_on_c, 11, 75, 0
13, 187860, Note_on_c, 11, 78, 74
13, 187911, Note_on_c, 11, 78, 0
13, 187920, Note_on_c, 11, 76, 74
13, 187971, Note_on_c, 11, 76, 0
13, 187980, Note_on_c, 11, 75, 74
13, 188031, Note_on_c, 11, 75, 0
13, 188040, Note_on_c, 11, 76, 75
13, 188091, Note_on_c, 11, 76, 0
13, 188100, Note_on_c, 11, 79, 75
13, 188151, Note_on_c, 11, 79, 0
13, 188160, Note_on_c, 11, 77, 76
13, 188219, Note_on_c, 11, 77, 0
13, 188220, Note_on_c, 11, 76, 76
13, 188279, Note_on_c, 11, 76, 0
13, 188280, Note_on_c, 11, 77, 76
13, 188339, Note_on_c, 11, 77, 0
13, 188340, Note_on_c, 11, 81, 76
13, 188399, Note_on_c, 11, 81, 0
13, 188640, Note_on_c, 11, 77, 84
13, 188699, Note_on_c, 11, 77, 0
13, 188700, Note_on_c, 11, 76, 76
13, 188759, Note_on_c, 11, 76, 0
13, 188760, Note_on_c, 11, 77, 76
13, 188819, Note_on_c, 11, 77, 0
13, 188820, Note_on_c, 11, 81, 76
13, 188879, Note_on_c, 11, 81, 0
13, 189120, Note_on_c, 11, 77, 84
13, 189179, Note_on_c, 11, 77, 0
13, 189180, Note_on_c, 11, 76, 76
13, 189239, Note_on_c, 11, 76, 0
13, 189240, Note_on_c, 11, 77, 76
13, 189299, Note_on_c, 11, 77, 0
13, 189300, Note_on_c, 11, 81, 76
13, 189359, Note_on_c, 11, 81, 0
13, 189600, Note_on_c, 11, 77, 84
13, 189659, Note_on_c, 11, 77, 0
13, 189660, Note_on_c, 11, 76, 76
13, 189719, Note_on_c, 11, 76, 0
13, 189720, Note_on_c, 11, 77, 76
13, 189779, Note_on_c, 11, 77, 0
13, 189780, Note_on_c, 11, 81, 76
13, 189839, Note_on_c, 11, 81, 0
13, 190080, Note_on_c, 11, 77, 76
13, 190139, Note_on_c, 11, 77, 0
13, 190140, Note_on_c, 11, 76, 76
13, 190199, Note_on_c, 11, 76, 0
13, 190200, Note_on_c, 11, 77, 75
13, 190259, Note_on_c, 11, 77, 0
13, 190260, Note_on_c, 11, 81, 74
13, 190319, Note_on_c, 11, 81, 0
13, 190560, Note_on_c, 11, 75, 70
13, 190619, Note_on_c, 11, 75, 0
13, 190620, Note_on_c, 11, 74, 69
13, 190679, Note_on_c, 11, 74, 0
13, 190680, Note_on_c, 11, 75, 68
13, 190739, Note_on_c, 11, 75, 0
13, 190740, Note_on_c, 11, 78, 67
13, 190799, Note_on_c, 11, 78, 0
13, 191040, Note_on_c, 11, 74, 63
13, 191099, Note_on_c, 11, 74, 0
13, 191100, Note_on_c, 11, 73, 62
13, 191159, Note_on_c, 11, 73, 0
13, 191160, Note_on_c, 11, 74, 61
13, 191219, Note_on_c, 11, 74, 0
13, 191220, Note_on_c, 11, 77, 60
13, 191279, Note_on_c, 11, 77, 0
13, 191520, Note_on_c, 11, 72, 56
13, 191579, Note_on_c, 11, 72, 0
13, 191580, Note_on_c, 11, 71, 55
13, 191639, Note_on_c, 11, 71, 0
13, 191640, Note_on_c, 11, 72, 54
13, 191699, Note_on_c, 11, 72, 0
13, 191700, Note_on_c, 11, 75, 53
13, 191751, Note_on_c, 11, 75, 0
13, 191760, Note_on_c, 11, 70, 52
13, 191804, Note_on_c, 11, 70, 0
13, 191820, Note_on_c, 11, 69, 52
13, 191864, Note_on_c, 11, 69, 0
13, 191880, Note_on_c, 11, 70, 52
13, 191924, Note_on_c, 11, 70, 0
13, 191940, Note_on_c, 11, 74, 52
13, 191984, Note_on_c, 11, 74, 0
13, 192000, Note_on_c, 11, 70, 52
13, 192051, Note_on_c, 11, 70, 0
13, 192060, Note_on_c, 11, 69, 52
13, 192111, Note_on_c, 11, 69, 0
13, 192120, Note_on_c, 11, 70, 52
13, 192171, Note_on_c, 11, 70, 0
13, 192180, Note_on_c, 11, 74, 52
13, 192231, Note_on_c, 11, 74, 0
13, 192240, Note_on_c, 11, 65, 52
13, 192291, Note_on_c, 11, 65, 0
13, 192300, Note_on_c, 11, 67, 52
13, 192351, Note_on_c, 11, 67, 0
13, 192360, Note_on_c, 11, 69, 52
13, 192411, Note_on_c, 11, 69, 0
13, 192420, Note_on_c, 11, 70, 52
13, 192451, Note_on_c, 11, 70, 0
13, 192460, Note_on_c, 11, 74, 52
13, 192479, Note_on_c, 11, 74, 0
13, 192480, Note_on_c, 11, 72, 52
13, 192531, Note_on_c, 11, 72, 0
13, 192540, Note_on_c, 11, 71, 52
13, 192591, Note_on_c, 11, 71, 0
13, 192600, Note_on_c, 11, 72, 52
13, 192651, Note_on_c, 11, 72, 0
13, 192660, Note_on_c, 11, 75, 52
13, 192711, Note_on_c, 11, 75, 0
13, 192720, Note_on_c, 11, 79, 52
13, 192771, Note_on_c, 11, 79, 0
13, 192780, Note_on_c, 11, 77, 52
13, 192831, Note_on_c, 11, 77, 0
13, 192840, Note_on_c, 11, 75, 52
13, 192891, Note_on_c, 11, 75, 0
13, 192900, Note_on_c, 11, 74, 52
13, 192951, Note_on_c, 11, 74, 0
13, 192960, Note_on_c, 11, 72, 52
13, 193011, Note_on_c, 11, 72, 0
13, 193020, Note_on_c, 11, 70, 52
13, 193071, Note_on_c, 11, 70, 0
13, 193080, Note_on_c, 11, 69, 52
13, 193131, Note_on_c, 11, 69, 0
13, 193140, Note_on_c, 11, 67, 52
13, 193191, Note_on_c, 11, 67, 0
13, 193200, Note_on_c, 11, 65, 52
13, 193319, Note_on_c, 11, 65, 0
13, 193920, Note_on_c, 11, 74, 84
13, 193920, Note_on_c, 11, 82, 84
13, 193971, Note_on_c, 11, 74, 0
13, 193971, Note_on_c, 11, 82, 0
13, 193980, Note_on_c, 11, 82, 84
13, 193980, Note_on_c, 11, 74, 84
13, 194031, Note_on_c, 11, 82, 0
13, 194031, Note_on_c, 11, 74, 0
13, 194040, Note_on_c, 11, 82, 84
13, 194040, Note_on_c, 11, 74, 84
13, 194091, Note_on_c, 11, 82, 0
13, 194091, Note_on_c, 11, 74, 0
13, 194100, Note_on_c, 11, 74, 84
13, 194100, Note_on_c, 11, 82, 84
13, 194151, Note_on_c, 11, 74, 0
13, 194151, Note_on_c, 11, 82, 0
13, 194160, Note_on_c, 11, 74, 84
13, 194160, Note_on_c, 11, 82, 84
13, 194211, Note_on_c, 11, 74, 0
13, 194211, Note_on_c, 11, 82, 0
13, 194220, Note_on_c, 11, 74, 84
13, 194220, Note_on_c, 11, 82, 84
13, 194271, Note_on_c, 11, 74, 0
13, 194271, Note_on_c, 11, 82, 0
13, 194280, Note_on_c, 11, 74, 84
13, 194280, Note_on_c, 11, 82, 84
13, 194331, Note_on_c, 11, 74, 0
13, 194331, Note_on_c, 11, 82, 0
13, 194340, Note_on_c, 11, 74, 84
13, 194340, Note_on_c, 11, 82, 84
13, 194391, Note_on_c, 11, 74, 0
13, 194391, Note_on_c, 11, 82, 0
13, 194400, Note_on_c, 11, 82, 84
13, 194400, Note_on_c, 11, 72, 84
13, 194451, Note_on_c, 11, 82, 0
13, 194451, Note_on_c, 11, 72, 0
13, 194460, Note_on_c, 11, 82, 84
13, 194460, Note_on_c, 11, 72, 84
13, 194511, Note_on_c, 11, 82, 0
13, 194511, Note_on_c, 11, 72, 0
13, 194520, Note_on_c, 11, 72, 84
13, 194520, Note_on_c, 11, 82, 84
13, 194571, Note_on_c, 11, 72, 0
13, 194571, Note_on_c, 11, 82, 0
13, 194580, Note_on_c, 11, 72, 84
13, 194580, Note_on_c, 11, 82, 84
13, 194631, Note_on_c, 11, 72, 0
13, 194631, Note_on_c, 11, 82, 0
13, 194640, Note_on_c, 11, 82, 84
13, 194640, Note_on_c, 11, 72, 84
13, 194691, Note_on_c, 11, 82, 0
13, 194691, Note_on_c, 11, 72, 0
13, 194700, Note_on_c, 11, 82, 84
13, 194700, Note_on_c, 11, 72, 84
13, 194751, Note_on_c, 11, 82, 0
13, 194751, Note_on_c, 11, 72, 0
13, 194760, Note_on_c, 11, 72, 84
13, 194760, Note_on_c, 11, 82, 84
13, 194811, Note_on_c, 11, 72, 0
13, 194811, Note_on_c, 11, 82, 0
13, 194820, Note_on_c, 11, 72, 84
13, 194820, Note_on_c, 11, 82, 84
13, 194871, Note_on_c, 11, 72, 0
13, 194871, Note_on_c, 11, 82, 0
13, 194880, Note_on_c, 11, 82, 84
13, 194880, Note_on_c, 11, 72, 84
13, 194931, Note_on_c, 11, 82, 0
13, 194931, Note_on_c, 11, 72, 0
13, 194940, Note_on_c, 11, 82, 84
13, 194940, Note_on_c, 11, 72, 84
13, 194991, Note_on_c, 11, 82, 0
13, 194991, Note_on_c, 11, 72, 0
13, 195000, Note_on_c, 11, 82, 84
13, 195000, Note_on_c, 11, 72, 84
13, 195051, Note_on_c, 11, 82, 0
13, 195051, Note_on_c, 11, 72, 0
13, 195060, Note_on_c, 11, 82, 84
13, 195060, Note_on_c, 11, 72, 84
13, 195111, Note_on_c, 11, 82, 0
13, 195111, Note_on_c, 11, 72, 0
13, 195120, Note_on_c, 11, 81, 84
13, 195120, Note_on_c, 11, 72, 84
13, 195171, Note_on_c, 11, 81, 0
13, 195171, Note_on_c, 11, 72, 0
13, 195180, Note_on_c, 11, 81, 84
13, 195180, Note_on_c, 11, 72, 84
13, 195231, Note_on_c, 11, 81, 0
13, 195231, Note_on_c, 11, 72, 0
13, 195240, Note_on_c, 11, 72, 84
13, 195240, Note_on_c, 11, 81, 84
13, 195291, Note_on_c, 11, 72, 0
13, 195291, Note_on_c, 11, 81, 0
13, 195300, Note_on_c, 11, 81, 84
13, 195300, Note_on_c, 11, 72, 84
13, 195351, Note_on_c, 11, 81, 0
13, 195351, Note_on_c, 11, 72, 0
13, 195360, Note_on_c, 11, 74, 84
13, 195360, Note_on_c, 11, 82, 84
13, 195411, Note_on_c, 11, 74, 0
13, 195411, Note_on_c, 11, 82, 0
13, 195420, Note_on_c, 11, 82, 84
13, 195420, Note_on_c, 11, 74, 84
13, 195471, Note_on_c, 11, 82, 0
13, 195471, Note_on_c, 11, 74, 0
13, 195480, Note_on_c, 11, 82, 84
13, 195480, Note_on_c, 11, 74, 84
13, 195531, Note_on_c, 11, 82, 0
13, 195531, Note_on_c, 11, 74, 0
13, 195540, Note_on_c, 11, 82, 84
13, 195540, Note_on_c, 11, 74, 84
13, 195591, Note_on_c, 11, 82, 0
13, 195591, Note_on_c, 11, 74, 0
13, 195600, Note_on_c, 11, 75, 84
13, 195600, Note_on_c, 11, 84, 84
13, 195651, Note_on_c, 11, 75, 0
13, 195651, Note_on_c, 11, 84, 0
13, 195660, Note_on_c, 11, 75, 84
13, 195660, Note_on_c, 11, 84, 84
13, 195711, Note_on_c, 11, 75, 0
13, 195711, Note_on_c, 11, 84, 0
13, 195720, Note_on_c, 11, 84, 84
13, 195720, Note_on_c, 11, 75, 84
13, 195771, Note_on_c, 11, 84, 0
13, 195771, Note_on_c, 11, 75, 0
13, 195780, Note_on_c, 11, 75, 84
13, 195780, Note_on_c, 11, 84, 84
13, 195831, Note_on_c, 11, 75, 0
13, 195831, Note_on_c, 11, 84, 0
13, 195840, Note_on_c, 11, 84, 84
13, 195840, Note_on_c, 11, 75, 84
13, 195891, Note_on_c, 11, 84, 0
13, 195891, Note_on_c, 11, 75, 0
13, 195900, Note_on_c, 11, 75, 84
13, 195900, Note_on_c, 11, 84, 84
13, 195951, Note_on_c, 11, 75, 0
13, 195951, Note_on_c, 11, 84, 0
13, 195960, Note_on_c, 11, 84, 84
13, 195960, Note_on_c, 11, 75, 84
13, 196011, Note_on_c, 11, 84, 0
13, 196011, Note_on_c, 11, 75, 0
13, 196020, Note_on_c, 11, 84, 84
13, 196020, Note_on_c, 11, 75, 84
13, 196071, Note_on_c, 11, 84, 0
13, 196071, Note_on_c, 11, 75, 0
13, 196080, Note_on_c, 11, 72, 84
13, 196080, Note_on_c, 11, 81, 84
13, 196131, Note_on_c, 11, 72, 0
13, 196131, Note_on_c, 11, 81, 0
13, 196140, Note_on_c, 11, 72, 84
13, 196140, Note_on_c, 11, 81, 84
13, 196191, Note_on_c, 11, 72, 0
13, 196191, Note_on_c, 11, 81, 0
13, 196200, Note_on_c, 11, 72, 84
13, 196200, Note_on_c, 11, 81, 84
13, 196251, Note_on_c, 11, 72, 0
13, 196251, Note_on_c, 11, 81, 0
13, 196260, Note_on_c, 11, 72, 84
13, 196260, Note_on_c, 11, 81, 84
13, 196311, Note_on_c, 11, 72, 0
13, 196311, Note_on_c, 11, 81, 0
13, 196320, Note_on_c, 11, 82, 84
13, 196320, Note_on_c, 11, 74, 84
13, 196371, Note_on_c, 11, 82, 0
13, 196371, Note_on_c, 11, 74, 0
13, 196380, Note_on_c, 11, 74, 84
13, 196380, Note_on_c, 11, 82, 84
13, 196431, Note_on_c, 11, 74, 0
13, 196431, Note_on_c, 11, 82, 0
13, 196440, Note_on_c, 11, 74, 84
13, 196440, Note_on_c, 11, 82, 84
13, 196491, Note_on_c, 11, 74, 0
13, 196491, Note_on_c, 11, 82, 0
13, 196500, Note_on_c, 11, 74, 84
13, 196500, Note_on_c, 11, 82, 84
13, 196551, Note_on_c, 11, 74, 0
13, 196551, Note_on_c, 11, 82, 0
13, 196560, Note_on_c, 11, 75, 84
13, 196560, Note_on_c, 11, 84, 84
13, 196611, Note_on_c, 11, 75, 0
13, 196611, Note_on_c, 11, 84, 0
13, 196620, Note_on_c, 11, 84, 84
13, 196620, Note_on_c, 11, 75, 84
13, 196671, Note_on_c, 11, 84, 0
13, 196671, Note_on_c, 11, 75, 0
13, 196680, Note_on_c, 11, 75, 84
13, 196680, Note_on_c, 11, 84, 84
13, 196731, Note_on_c, 11, 75, 0
13, 196731, Note_on_c, 11, 84, 0
13, 196740, Note_on_c, 11, 75, 84
13, 196740, Note_on_c, 11, 84, 84
13, 196791, Note_on_c, 11, 75, 0
13, 196791, Note_on_c, 11, 84, 0
13, 196800, Note_on_c, 11, 75, 84
13, 196800, Note_on_c, 11, 84, 84
13, 196851, Note_on_c, 11, 75, 0
13, 196851, Note_on_c, 11, 84, 0
13, 196860, Note_on_c, 11, 84, 84
13, 196860, Note_on_c, 11, 75, 84
13, 196911, Note_on_c, 11, 84, 0
13, 196911, Note_on_c, 11, 75, 0
13, 196920, Note_on_c, 11, 84, 84
13, 196920, Note_on_c, 11, 75, 84
13, 196971, Note_on_c, 11, 84, 0
13, 196971, Note_on_c, 11, 75, 0
13, 196980, Note_on_c, 11, 75, 84
13, 196980, Note_on_c, 11, 84, 84
13, 197031, Note_on_c, 11, 75, 0
13, 197031, Note_on_c, 11, 84, 0
13, 197040, Note_on_c, 11, 75, 84
13, 197040, Note_on_c, 11, 84, 84
13, 197091, Note_on_c, 11, 75, 0
13, 197091, Note_on_c, 11, 84, 0
13, 197100, Note_on_c, 11, 84, 84
13, 197100, Note_on_c, 11, 75, 84
13, 197151, Note_on_c, 11, 84, 0
13, 197151, Note_on_c, 11, 75, 0
13, 197160, Note_on_c, 11, 75, 84
13, 197160, Note_on_c, 11, 84, 84
13, 197211, Note_on_c, 11, 75, 0
13, 197211, Note_on_c, 11, 84, 0
13, 197220, Note_on_c, 11, 84, 84
13, 197220, Note_on_c, 11, 75, 84
13, 197271, Note_on_c, 11, 84, 0
13, 197271, Note_on_c, 11, 75, 0
13, 197280, Note_on_c, 11, 86, 84
13, 197280, Note_on_c, 11, 77, 84
13, 197331, Note_on_c, 11, 86, 0
13, 197331, Note_on_c, 11, 77, 0
13, 197340, Note_on_c, 11, 77, 84
13, 197340, Note_on_c, 11, 86, 84
13, 197391, Note_on_c, 11, 77, 0
13, 197391, Note_on_c, 11, 86, 0
13, 197400, Note_on_c, 11, 86, 84
13, 197400, Note_on_c, 11, 77, 84
13, 197451, Note_on_c, 11, 86, 0
13, 197451, Note_on_c, 11, 77, 0
13, 197460, Note_on_c, 11, 86, 84
13, 197460, Note_on_c, 11, 77, 84
13, 197511, Note_on_c, 11, 86, 0
13, 197511, Note_on_c, 11, 77, 0
13, 197520, Note_on_c, 11, 87, 84
13, 197520, Note_on_c, 11, 69, 84
13, 197571, Note_on_c, 11, 87, 0
13, 197571, Note_on_c, 11, 69, 0
13, 197580, Note_on_c, 11, 69, 84
13, 197580, Note_on_c, 11, 87, 84
13, 197631, Note_on_c, 11, 69, 0
13, 197631, Note_on_c, 11, 87, 0
13, 197640, Note_on_c, 11, 87, 84
13, 197640, Note_on_c, 11, 69, 84
13, 197691, Note_on_c, 11, 87, 0
13, 197691, Note_on_c, 11, 69, 0
13, 197700, Note_on_c, 11, 69, 84
13, 197700, Note_on_c, 11, 87, 84
13, 197751, Note_on_c, 11, 69, 0
13, 197751, Note_on_c, 11, 87, 0
13, 197760, Note_on_c, 11, 69, 84
13, 197760, Note_on_c, 11, 87, 84
13, 197811, Note_on_c, 11, 69, 0
13, 197811, Note_on_c, 11, 87, 0
13, 197820, Note_on_c, 11, 87, 84
13, 197820, Note_on_c, 11, 69, 84
13, 197871, Note_on_c, 11, 87, 0
13, 197871, Note_on_c, 11, 69, 0
13, 197880, Note_on_c, 11, 87, 84
13, 197880, Note_on_c, 11, 69, 84
13, 197931, Note_on_c, 11, 87, 0
13, 197931, Note_on_c, 11, 69, 0
13, 197940, Note_on_c, 11, 69, 84
13, 197940, Note_on_c, 11, 87, 84
13, 197991, Note_on_c, 11, 69, 0
13, 197991, Note_on_c, 11, 87, 0
13, 198000, Note_on_c, 11, 75, 84
13, 198000, Note_on_c, 11, 87, 84
13, 198051, Note_on_c, 11, 75, 0
13, 198051, Note_on_c, 11, 87, 0
13, 198060, Note_on_c, 11, 87, 84
13, 198060, Note_on_c, 11, 75, 84
13, 198111, Note_on_c, 11, 87, 0
13, 198111, Note_on_c, 11, 75, 0
13, 198120, Note_on_c, 11, 87, 84
13, 198120, Note_on_c, 11, 75, 84
13, 198171, Note_on_c, 11, 87, 0
13, 198171, Note_on_c, 11, 75, 0
13, 198180, Note_on_c, 11, 87, 84
13, 198180, Note_on_c, 11, 75, 84
13, 198231, Note_on_c, 11, 87, 0
13, 198231, Note_on_c, 11, 75, 0
13, 198240, Note_on_c, 11, 77, 84
13, 198240, Note_on_c, 11, 89, 84
13, 198291, Note_on_c, 11, 77, 0
13, 198291, Note_on_c, 11, 89, 0
13, 198300, Note_on_c, 11, 89, 84
13, 198300, Note_on_c, 11, 77, 84
13, 198351, Note_on_c, 11, 89, 0
13, 198351, Note_on_c, 11, 77, 0
13, 198360, Note_on_c, 11, 89, 84
13, 198360, Note_on_c, 11, 77, 84
13, 198411, Note_on_c, 11, 89, 0
13, 198411, Note_on_c, 11, 77, 0
13, 198420, Note_on_c, 11, 89, 84
13, 198420, Note_on_c, 11, 77, 84
13, 198471, Note_on_c, 11, 89, 0
13, 198471, Note_on_c, 11, 77, 0
13, 198480, Note_on_c, 11, 91, 84
13, 198480, Note_on_c, 11, 79, 84
13, 198531, Note_on_c, 11, 91, 0
13, 198531, Note_on_c, 11, 79, 0
13, 198540, Note_on_c, 11, 79, 84
13, 198540, Note_on_c, 11, 91, 84
13, 198591, Note_on_c, 11, 79, 0
13, 198591, Note_on_c, 11, 91, 0
13, 198600, Note_on_c, 11, 79, 84
13, 198600, Note_on_c, 11, 91, 84
13, 198651, Note_on_c, 11, 79, 0
13, 198651, Note_on_c, 11, 91, 0
13, 198660, Note_on_c, 11, 91, 84
13, 198660, Note_on_c, 11, 79, 84
13, 198711, Note_on_c, 11, 91, 0
13, 198711, Note_on_c, 11, 79, 0
13, 198720, Note_on_c, 11, 79, 84
13, 198720, Note_on_c, 11, 91, 84
13, 198771, Note_on_c, 11, 79, 0
13, 198771, Note_on_c, 11, 91, 0
13, 198780, Note_on_c, 11, 79, 84
13, 198780, Note_on_c, 11, 91, 84
13, 198831, Note_on_c, 11, 79, 0
13, 198831, Note_on_c, 11, 91, 0
13, 198840, Note_on_c, 11, 79, 84
13, 198840, Note_on_c, 11, 91, 84
13, 198891, Note_on_c, 11, 79, 0
13, 198891, Note_on_c, 11, 91, 0
13, 198900, Note_on_c, 11, 91, 84
13, 198900, Note_on_c, 11, 79, 84
13, 198951, Note_on_c, 11, 91, 0
13, 198951, Note_on_c, 11, 79, 0
13, 198960, Note_on_c, 11, 91, 84
13, 198960, Note_on_c, 11, 79, 84
13, 199011, Note_on_c, 11, 91, 0
13, 199011, Note_on_c, 11, 79, 0
13, 199020, Note_on_c, 11, 79, 84
13, 199020, Note_on_c, 11, 91, 84
13, 199071, Note_on_c, 11, 79, 0
13, 199071, Note_on_c, 11, 91, 0
13, 199080, Note_on_c, 11, 91, 84
13, 199080, Note_on_c, 11, 79, 84
13, 199131, Note_on_c, 11, 91, 0
13, 199131, Note_on_c, 11, 79, 0
13, 199140, Note_on_c, 11, 79, 84
13, 199140, Note_on_c, 11, 91, 84
13, 199191, Note_on_c, 11, 79, 0
13, 199191, Note_on_c, 11, 91, 0
13, 199200, Note_on_c, 11, 91, 84
13, 199200, Note_on_c, 11, 79, 84
13, 199251, Note_on_c, 11, 91, 0
13, 199251, Note_on_c, 11, 79, 0
13, 199260, Note_on_c, 11, 79, 84
13, 199260, Note_on_c, 11, 91, 84
13, 199311, Note_on_c, 11, 79, 0
13, 199311, Note_on_c, 11, 91, 0
13, 199320, Note_on_c, 11, 79, 84
13, 199320, Note_on_c, 11, 91, 84
13, 199371, Note_on_c, 11, 79, 0
13, 199371, Note_on_c, 11, 91, 0
13, 199380, Note_on_c, 11, 79, 84
13, 199380, Note_on_c, 11, 91, 84
13, 199431, Note_on_c, 11, 79, 0
13, 199431, Note_on_c, 11, 91, 0
13, 199440, Note_on_c, 11, 91, 84
13, 199440, Note_on_c, 11, 79, 84
13, 199491, Note_on_c, 11, 91, 0
13, 199491, Note_on_c, 11, 79, 0
13, 199500, Note_on_c, 11, 79, 84
13, 199500, Note_on_c, 11, 91, 84
13, 199551, Note_on_c, 11, 79, 0
13, 199551, Note_on_c, 11, 91, 0
13, 199560, Note_on_c, 11, 79, 84
13, 199560, Note_on_c, 11, 91, 84
13, 199611, Note_on_c, 11, 79, 0
13, 199611, Note_on_c, 11, 91, 0
13, 199620, Note_on_c, 11, 79, 84
13, 199620, Note_on_c, 11, 91, 84
13, 199671, Note_on_c, 11, 79, 0
13, 199671, Note_on_c, 11, 91, 0
13, 199680, Note_on_c, 11, 79, 84
13, 199680, Note_on_c, 11, 91, 84
13, 199731, Note_on_c, 11, 79, 0
13, 199731, Note_on_c, 11, 91, 0
13, 199740, Note_on_c, 11, 79, 84
13, 199740, Note_on_c, 11, 91, 84
13, 199791, Note_on_c, 11, 79, 0
13, 199791, Note_on_c, 11, 91, 0
13, 199800, Note_on_c, 11, 79, 84
13, 199800, Note_on_c, 11, 91, 84
13, 199851, Note_on_c, 11, 79, 0
13, 199851, Note_on_c, 11, 91, 0
13, 199860, Note_on_c, 11, 79, 84
13, 199860, Note_on_c, 11, 91, 84
13, 199911, Note_on_c, 11, 79, 0
13, 199911, Note_on_c, 11, 91, 0
13, 199920, Note_on_c, 11, 91, 84
13, 199920, Note_on_c, 11, 79, 84
13, 199971, Note_on_c, 11, 91, 0
13, 199971, Note_on_c, 11, 79, 0
13, 199980, Note_on_c, 11, 79, 84
13, 199980, Note_on_c, 11, 91, 84
13, 200031, Note_on_c, 11, 79, 0
13, 200031, Note_on_c, 11, 91, 0
13, 200040, Note_on_c, 11, 91, 84
13, 200040, Note_on_c, 11, 79, 84
13, 200091, Note_on_c, 11, 91, 0
13, 200091, Note_on_c, 11, 79, 0
13, 200100, Note_on_c, 11, 91, 84
13, 200100, Note_on_c, 11, 79, 84
13, 200151, Note_on_c, 11, 91, 0
13, 200151, Note_on_c, 11, 79, 0
13, 200160, Note_on_c, 11, 91, 84
13, 200160, Note_on_c, 11, 79, 84
13, 200211, Note_on_c, 11, 91, 0
13, 200211, Note_on_c, 11, 79, 0
13, 200220, Note_on_c, 11, 91, 84
13, 200220, Note_on_c, 11, 79, 84
13, 200271, Note_on_c, 11, 91, 0
13, 200271, Note_on_c, 11, 79, 0
13, 200280, Note_on_c, 11, 91, 84
13, 200280, Note_on_c, 11, 79, 84
13, 200331, Note_on_c, 11, 91, 0
13, 200331, Note_on_c, 11, 79, 0
13, 200340, Note_on_c, 11, 91, 84
13, 200340, Note_on_c, 11, 79, 84
13, 200391, Note_on_c, 11, 91, 0
13, 200391, Note_on_c, 11, 79, 0
13, 200400, Note_on_c, 11, 91, 84
13, 200400, Note_on_c, 11, 79, 84
13, 200451, Note_on_c, 11, 91, 0
13, 200451, Note_on_c, 11, 79, 0
13, 200460, Note_on_c, 11, 91, 84
13, 200460, Note_on_c, 11, 79, 84
13, 200511, Note_on_c, 11, 91, 0
13, 200511, Note_on_c, 11, 79, 0
13, 200520, Note_on_c, 11, 91, 84
13, 200520, Note_on_c, 11, 79, 84
13, 200571, Note_on_c, 11, 91, 0
13, 200571, Note_on_c, 11, 79, 0
13, 200580, Note_on_c, 11, 91, 84
13, 200580, Note_on_c, 11, 79, 84
13, 200631, Note_on_c, 11, 91, 0
13, 200631, Note_on_c, 11, 79, 0
13, 200640, Note_on_c, 11, 69, 92
13, 200699, Note_on_c, 11, 69, 0
13, 200700, Note_on_c, 11, 69, 84
13, 200700, Control_c, 11, 11, 127
13, 200738, Control_c, 11, 11, 124
13, 200775, Control_c, 11, 11, 122
13, 200813, Control_c, 11, 11, 119
13, 200850, Control_c, 11, 11, 117
13, 200888, Control_c, 11, 11, 114
13, 200925, Control_c, 11, 11, 111
13, 200963, Control_c, 11, 11, 109
13, 201000, Control_c, 11, 11, 106
13, 201038, Control_c, 11, 11, 103
13, 201075, Control_c, 11, 11, 101
13, 201113, Control_c, 11, 11, 98
13, 201150, Control_c, 11, 11, 96
13, 201188, Control_c, 11, 11, 93
13, 201225, Control_c, 11, 11, 90
13, 201263, Control_c, 11, 11, 88
13, 201300, Control_c, 11, 11, 85
13, 201338, Control_c, 11, 11, 82
13, 201375, Control_c, 11, 11, 80
13, 201413, Control_c, 11, 11, 77
13, 201450, Control_c, 11, 11, 75
13, 201488, Control_c, 11, 11, 72
13, 201525, Control_c, 11, 11, 69
13, 201563, Control_c, 11, 11, 64
13, 202079, Note_on_c, 11, 69, 0
13, 202320, Control_c, 11, 11, 127
13, 202560, Note_on_c, 11, 75, 44
13, 202919, Note_on_c, 11, 75, 0
13, 202920, Note_on_c, 11, 72, 44
13, 203024, Note_on_c, 11, 72, 0
13, 203040, Note_on_c, 11, 70, 44
13, 203399, Note_on_c, 11, 70, 0
13, 203400, Note_on_c, 11, 67, 44
13, 203504, Note_on_c, 11, 67, 0
13, 203520, Note_on_c, 11, 65, 44
13, 203639, Note_on_c, 11, 65, 0
13, 203760, Note_on_c, 11, 65, 44
13, 203879, Note_on_c, 11, 65, 0
13, 204000, Note_on_c, 11, 65, 44
13, 204959, Note_on_c, 11, 65, 0
13, 204960, Note_on_c, 11, 65, 44
13, 205919, Note_on_c, 11, 65, 0
13, 205920, Note_on_c, 11, 65, 44
13, 206879, Note_on_c, 11, 65, 0
13, 206880, Note_on_c, 11, 65, 44
13, 207839, Note_on_c, 11, 65, 0
13, 207840, Note_on_c, 11, 65, 44
13, 208799, Note_on_c, 11, 65, 0
13, 208800, Note_on_c, 11, 65, 44
13, 209744, Note_on_c, 11, 65, 0
13, 209760, Note_on_c, 11, 70, 44
13, 209811, Note_on_c, 11, 70, 0
13, 209820, Note_on_c, 11, 69, 45
13, 209871, Note_on_c, 11, 69, 0
13, 209880, Note_on_c, 11, 70, 46
13, 209931, Note_on_c, 11, 70, 0
13, 209940, Note_on_c, 11, 74, 47
13, 209991, Note_on_c, 11, 74, 0
13, 210000, Note_on_c, 11, 67, 49
13, 210051, Note_on_c, 11, 67, 0
13, 210060, Note_on_c, 11, 69, 50
13, 210111, Note_on_c, 11, 69, 0
13, 210120, Note_on_c, 11, 70, 51
13, 210171, Note_on_c, 11, 70, 0
13, 210180, Note_on_c, 11, 71, 52
13, 210231, Note_on_c, 11, 71, 0
13, 210240, Note_on_c, 11, 72, 54
13, 210291, Note_on_c, 11, 72, 0
13, 210300, Note_on_c, 11, 71, 55
13, 210351, Note_on_c, 11, 71, 0
13, 210360, Note_on_c, 11, 72, 56
13, 210411, Note_on_c, 11, 72, 0
13, 210420, Note_on_c, 11, 75, 57
13, 210471, Note_on_c, 11, 75, 0
13, 210480, Note_on_c, 11, 69, 59
13, 210531, Note_on_c, 11, 69, 0
13, 210540, Note_on_c, 11, 71, 60
13, 210591, Note_on_c, 11, 71, 0
13, 210600, Note_on_c, 11, 72, 61
13, 210651, Note_on_c, 11, 72, 0
13, 210660, Note_on_c, 11, 73, 62
13, 210711, Note_on_c, 11, 73, 0
13, 210720, Note_on_c, 11, 74, 64
13, 210771, Note_on_c, 11, 74, 0
13, 210780, Note_on_c, 11, 73, 65
13, 210831, Note_on_c, 11, 73, 0
13, 210840, Note_on_c, 11, 74, 66
13, 210891, Note_on_c, 11, 74, 0
13, 210900, Note_on_c, 11, 77, 67
13, 210951, Note_on_c, 11, 77, 0
13, 210960, Note_on_c, 11, 70, 69
13, 211011, Note_on_c, 11, 70, 0
13, 211020, Note_on_c, 11, 72, 70
13, 211071, Note_on_c, 11, 72, 0
13, 211080, Note_on_c, 11, 73, 71
13, 211131, Note_on_c, 11, 73, 0
13, 211140, Note_on_c, 11, 74, 72
13, 211191, Note_on_c, 11, 74, 0
13, 211200, Note_on_c, 11, 75, 74
13, 211251, Note_on_c, 11, 75, 0
13, 211260, Note_on_c, 11, 74, 75
13, 211311, Note_on_c, 11, 74, 0
13, 211320, Note_on_c, 11, 75, 76
13, 211371, Note_on_c, 11, 75, 0
13, 211380, Note_on_c, 11, 79, 77
13, 211431, Note_on_c, 11, 79, 0
13, 211440, Note_on_c, 11, 76, 79
13, 211491, Note_on_c, 11, 76, 0
13, 211500, Note_on_c, 11, 75, 80
13, 211551, Note_on_c, 11, 75, 0
13, 211560, Note_on_c, 11, 76, 81
13, 211611, Note_on_c, 11, 76, 0
13, 211620, Note_on_c, 11, 79, 82
13, 211671, Note_on_c, 11, 79, 0
13, 211680, Note_on_c, 11, 76, 84
13, 211731, Note_on_c, 11, 76, 0
13, 211740, Note_on_c, 11, 88, 84
13, 211791, Note_on_c, 11, 88, 0
13, 211800, Note_on_c, 11, 88, 84
13, 211851, Note_on_c, 11, 88, 0
13, 211860, Note_on_c, 11, 88, 84
13, 211911, Note_on_c, 11, 88, 0
13, 211920, Note_on_c, 11, 88, 84
13, 211971, Note_on_c, 11, 88, 0
13, 211980, Note_on_c, 11, 88, 84
13, 212031, Note_on_c, 11, 88, 0
13, 212040, Note_on_c, 11, 88, 84
13, 212091, Note_on_c, 11, 88, 0
13, 212100, Note_on_c, 11, 88, 84
13, 212151, Note_on_c, 11, 88, 0
13, 212160, Note_on_c, 11, 88, 84
13, 212211, Note_on_c, 11, 88, 0
13, 212220, Note_on_c, 11, 88, 84
13, 212271, Note_on_c, 11, 88, 0
13, 212280, Note_on_c, 11, 88, 84
13, 212331, Note_on_c, 11, 88, 0
13, 212340, Note_on_c, 11, 88, 84
13, 212391, Note_on_c, 11, 88, 0
13, 212400, Note_on_c, 11, 88, 84
13, 212451, Note_on_c, 11, 88, 0
13, 212460, Note_on_c, 11, 88, 84
13, 212511, Note_on_c, 11, 88, 0
13, 212520, Note_on_c, 11, 88, 84
13, 212571, Note_on_c, 11, 88, 0
13, 212580, Note_on_c, 11, 88, 84
13, 212631, Note_on_c, 11, 88, 0
13, 212640, Note_on_c, 11, 88, 84
13, 212640, Note_on_c, 11, 76, 84
13, 212759, Note_on_c, 11, 88, 0
13, 212759, Note_on_c, 11, 76, 0
13, 212880, Note_on_c, 11, 88, 84
13, 212880, Note_on_c, 11, 76, 84
13, 212999, Note_on_c, 11, 88, 0
13, 212999, Note_on_c, 11, 76, 0
13, 213600, Note_on_c, 11, 89, 84
13, 213600, Note_on_c, 11, 77, 84
13, 213719, Note_on_c, 11, 89, 0
13, 213719, Note_on_c, 11, 77, 0
13, 213840, Note_on_c, 11, 89, 84
13, 213840, Note_on_c, 11, 77, 84
13, 213959, Note_on_c, 11, 89, 0
13, 213959, Note_on_c, 11, 77, 0
13, 214560, Note_on_c, 11, 70, 44
13, 214679, Note_on_c, 11, 70, 0
13, 214680, Note_on_c, 11, 69, 44
13, 214799, Note_on_c, 11, 69, 0
13, 214800, Note_on_c, 11, 70, 44
13, 214919, Note_on_c, 11, 70, 0
13, 214920, Note_on_c, 11, 74, 44
13, 215039, Note_on_c, 11, 74, 0
13, 215040, Note_on_c, 11, 65, 44
13, 215159, Note_on_c, 11, 65, 0
13, 215160, Note_on_c, 11, 67, 44
13, 215279, Note_on_c, 11, 67, 0
13, 215280, Note_on_c, 11, 69, 44
13, 215399, Note_on_c, 11, 69, 0
13, 215400, Note_on_c, 11, 70, 44
13, 215491, Note_on_c, 11, 70, 0
13, 215500, Note_on_c, 11, 74, 44
13, 215519, Note_on_c, 11, 74, 0
13, 215520, Note_on_c, 11, 72, 44
13, 215639, Note_on_c, 11, 72, 0
13, 215640, Note_on_c, 11, 71, 44
13, 215759, Note_on_c, 11, 71, 0
13, 215760, Note_on_c, 11, 72, 44
13, 215879, Note_on_c, 11, 72, 0
13, 215880, Note_on_c, 11, 75, 44
13, 215999, Note_on_c, 11, 75, 0
13, 217680, Note_on_c, 11, 81, 84
13, 217680, Note_on_c, 11, 72, 84
13, 217680, Note_on_c, 11, 65, 84
13, 217799, Note_on_c, 11, 81, 0
13, 217799, Note_on_c, 11, 72, 0
13, 217799, Note_on_c, 11, 65, 0
13, 217920, Note_on_c, 11, 82, 84
13, 217920, Note_on_c, 11, 74, 84
13, 217920, Note_on_c, 11, 65, 84
13, 218039, Note_on_c, 11, 82, 0
13, 218039, Note_on_c, 11, 74, 0
13, 218039, Note_on_c, 11, 65, 0
13, 218160, Note_on_c, 11, 84, 84
13, 218160, Note_on_c, 11, 72, 84
13, 218279, Note_on_c, 11, 84, 0
13, 218279, Note_on_c, 11, 72, 0
13, 218400, Note_on_c, 11, 86, 84
13, 218400, Note_on_c, 11, 74, 84
13, 218519, Note_on_c, 11, 86, 0
13, 218519, Note_on_c, 11, 74, 0
13, 218880, Note_on_c, 11, 89, 84
13, 218880, Note_on_c, 11, 77, 84
13, 218999, Note_on_c, 11, 89, 0
13, 218999, Note_on_c, 11, 77, 0
13, 219360, Note_on_c, 11, 70, 84
13, 219360, Note_on_c, 11, 62, 84
13, 219360, Note_on_c, 11, 58, 84
13, 219479, Note_on_c, 11, 70, 0
13, 219479, Note_on_c, 11, 62, 0
13, 219479, Note_on_c, 11, 58, 0
13, 219479, End_track
14, 0, Start_track
14, 0, Title_t, "Violin II"
14, 0, MIDI_port, 0
14, 0, Program_c, 12, 48
14, 0, Control_c, 12, 7, 96
14, 0, Control_c, 12, 10, 24
14, 0, Control_c, 12, 11, 127
14, 0, Note_on_c, 12, 70, 52
14, 0, Note_on_c, 12, 62, 52
14, 119, Note_on_c, 12, 70, 0
14, 119, Note_on_c, 12, 62, 0
14, 240, Note_on_c, 12, 62, 52
14, 359, Note_on_c, 12, 62, 0
14, 480, Note_on_c, 12, 60, 52
14, 599, Note_on_c, 12, 60, 0
14, 720, Note_on_c, 12, 67, 52
14, 771, Note_on_c, 12, 67, 0
14, 780, Note_on_c, 12, 65, 52
14, 831, Note_on_c, 12, 65, 0
14, 840, Note_on_c, 12, 63, 52
14, 891, Note_on_c, 12, 63, 0
14, 900, Note_on_c, 12, 62, 52
14, 951, Note_on_c, 12, 62, 0
14, 960, Note_on_c, 12, 60, 52
14, 1011, Note_on_c, 12, 60, 0
14, 1020, Note_on_c, 12, 58, 52
14, 1071, Note_on_c, 12, 58, 0
14, 1080, Note_on_c, 12, 57, 52
14, 1131, Note_on_c, 12, 57, 0
14, 1140, Note_on_c, 12, 55, 52
14, 1191, Note_on_c, 12, 55, 0
14, 1200, Note_on_c, 12, 69, 76
14, 1200, Note_on_c, 12, 77, 76
14, 1319, Note_on_c, 12, 69, 0
14, 1319, Note_on_c, 12, 77, 0
14, 1440, Note_on_c, 12, 70, 76
14, 1440, Note_on_c, 12, 77, 76
14, 1559, Note_on_c, 12, 70, 0
14, 1559, Note_on_c, 12, 77, 0
14, 1680, Note_on_c, 12, 81, 76
14, 1680, Note_on_c, 12, 72, 76
14, 1799, Note_on_c, 12, 81, 0
14, 1799, Note_on_c, 12, 72, 0
14, 1920, Note_on_c, 12, 58, 44
14, 1971, Note_on_c, 12, 58, 0
14, 1980, Note_on_c, 12, 57, 44
14, 2031, Note_on_c, 12, 57, 0
14, 2040, Note_on_c, 12, 58, 44
14, 2091, Note_on_c, 12, 58, 0
14, 2100, Note_on_c, 12, 62, 44
14, 2151, Note_on_c, 12, 62, 0
14, 2160, Note_on_c, 12, 58, 44
14, 2211, Note_on_c, 12, 58, 0
14, 2220, Note_on_c, 12, 60, 44
14, 2271, Note_on_c, 12, 60, 0
14, 2280, Note_on_c, 12, 62, 44
14, 2331, Note_on_c, 12, 62, 0
14, 2340, Note_on_c, 12, 60, 44
14, 2391, Note_on_c, 12, 60, 0
14, 2400, Note_on_c, 12, 58, 44
14, 2451, Note_on_c, 12, 58, 0
14, 2460, Note_on_c, 12, 57, 44
14, 2511, Note_on_c, 12, 57, 0
14, 2520, Note_on_c, 12, 58, 44
14, 2571, Note_on_c, 12, 58, 0
14, 2580, Note_on_c, 12, 62, 44
14, 2631, Note_on_c, 12, 62, 0
14, 2640, Note_on_c, 12, 60, 44
14, 2691, Note_on_c, 12, 60, 0
14, 2700, Note_on_c, 12, 62, 44
14, 2751, Note_on_c, 12, 62, 0
14, 2760, Note_on_c, 12, 63, 44
14, 2811, Note_on_c, 12, 63, 0
14, 2820, Note_on_c, 12, 62, 44
14, 2871, Note_on_c, 12, 62, 0
14, 2880, Note_on_c, 12, 60, 44
14, 2931, Note_on_c, 12, 60, 0
14, 2940, Note_on_c, 12, 59, 44
14, 2991, Note_on_c, 12, 59, 0
14, 3000, Note_on_c, 12, 60, 44
14, 3051, Note_on_c, 12, 60, 0
14, 3060, Note_on_c, 12, 63, 44
14, 3111, Note_on_c, 12, 63, 0
14, 3120, Note_on_c, 12, 60, 44
14, 3171, Note_on_c, 12, 60, 0
14, 3180, Note_on_c, 12, 62, 44
14, 3231, Note_on_c, 12, 62, 0
14, 3240, Note_on_c, 12, 63, 44
14, 3291, Note_on_c, 12, 63, 0
14, 3300, Note_on_c, 12, 62, 44
14, 3351, Note_on_c, 12, 62, 0
14, 3360, Note_on_c, 12, 60, 44
14, 3411, Note_on_c, 12, 60, 0
14, 3420, Note_on_c, 12, 59, 44
14, 3471, Note_on_c, 12, 59, 0
14, 3480, Note_on_c, 12, 60, 44
14, 3531, Note_on_c, 12, 60, 0
14, 3540, Note_on_c, 12, 63, 44
14, 3591, Note_on_c, 12, 63, 0
14, 3600, Note_on_c, 12, 62, 44
14, 3651, Note_on_c, 12, 62, 0
14, 3660, Note_on_c, 12, 63, 44
14, 3711, Note_on_c, 12, 63, 0
14, 3720, Note_on_c, 12, 65, 44
14, 3771, Note_on_c, 12, 65, 0
14, 3780, Note_on_c, 12, 63, 44
14, 3831, Note_on_c, 12, 63, 0
14, 3840, Note_on_c, 12, 62, 44
14, 3891, Note_on_c, 12, 62, 0
14, 3900, Note_on_c, 12, 60, 44
14, 3951, Note_on_c, 12, 60, 0
14, 3960, Note_on_c, 12, 62, 44
14, 4011, Note_on_c, 12, 62, 0
14, 4020, Note_on_c, 12, 65, 44
14, 4071, Note_on_c, 12, 65, 0
14, 4080, Note_on_c, 12, 63, 44
14, 4131, Note_on_c, 12, 63, 0
14, 4140, Note_on_c, 12, 65, 44
14, 4191, Note_on_c, 12, 65, 0
14, 4200, Note_on_c, 12, 67, 44
14, 4251, Note_on_c, 12, 67, 0
14, 4260, Note_on_c, 12, 65, 44
14, 4311, Note_on_c, 12, 65, 0
14, 4320, Note_on_c, 12, 63, 44
14, 4371, Note_on_c, 12, 63, 0
14, 4380, Note_on_c, 12, 62, 44
14, 4431, Note_on_c, 12, 62, 0
14, 4440, Note_on_c, 12, 63, 44
14, 4491, Note_on_c, 12, 63, 0
14, 4500, Note_on_c, 12, 67, 44
14, 4551, Note_on_c, 12, 67, 0
14, 4560, Note_on_c, 12, 60, 44
14, 4611, Note_on_c, 12, 60, 0
14, 4620, Note_on_c, 12, 62, 44
14, 4671, Note_on_c, 12, 62, 0
14, 4680, Note_on_c, 12, 63, 44
14, 4731, Note_on_c, 12, 63, 0
14, 4740, Note_on_c, 12, 62, 44
14, 4791, Note_on_c, 12, 62, 0
14, 4800, Note_on_c, 12, 60, 44
14, 4851, Note_on_c, 12, 60, 0
14, 4860, Note_on_c, 12, 62, 44
14, 4911, Note_on_c, 12, 62, 0
14, 4920, Note_on_c, 12, 63, 44
14, 4971, Note_on_c, 12, 63, 0
14, 4980, Note_on_c, 12, 62, 44
14, 5031, Note_on_c, 12, 62, 0
14, 5040, Note_on_c, 12, 60, 44
14, 5091, Note_on_c, 12, 60, 0
14, 5100, Note_on_c, 12, 62, 44
14, 5151, Note_on_c, 12, 62, 0
14, 5160, Note_on_c, 12, 63, 44
14, 5211, Note_on_c, 12, 63, 0
14, 5220, Note_on_c, 12, 62, 44
14, 5271, Note_on_c, 12, 62, 0
14, 5280, Note_on_c, 12, 60, 44
14, 5339, Note_on_c, 12, 60, 0
14, 5340, Note_on_c, 12, 65, 44
14, 5399, Note_on_c, 12, 65, 0
14, 5400, Note_on_c, 12, 60, 44
14, 5459, Note_on_c, 12, 60, 0
14, 5460, Note_on_c, 12, 65, 44
14, 5519, Note_on_c, 12, 65, 0
14, 5520, Note_on_c, 12, 60, 44
14, 5579, Note_on_c, 12, 60, 0
14, 5580, Note_on_c, 12, 65, 44
14, 5639, Note_on_c, 12, 65, 0
14, 5640, Note_on_c, 12, 60, 44
14, 5699, Note_on_c, 12, 60, 0
14, 5700, Note_on_c, 12, 65, 44
14, 5751, Note_on_c, 12, 65, 0
14, 5760, Note_on_c, 12, 62, 44
14, 5819, Note_on_c, 12, 62, 0
14, 5820, Note_on_c, 12, 65, 44
14, 5879, Note_on_c, 12, 65, 0
14, 5880, Note_on_c, 12, 62, 44
14, 5939, Note_on_c, 12, 62, 0
14, 5940, Note_on_c, 12, 65, 44
14, 5999, Note_on_c, 12, 65, 0
14, 6000, Note_on_c, 12, 62, 44
14, 6059, Note_on_c, 12, 62, 0
14, 6060, Note_on_c, 12, 65, 44
14, 6119, Note_on_c, 12, 65, 0
14, 6120, Note_on_c, 12, 62, 44
14, 6179, Note_on_c, 12, 62, 0
14, 6180, Note_on_c, 12, 65, 44
14, 6231, Note_on_c, 12, 65, 0
14, 6240, Note_on_c, 12, 60, 44
14, 6299, Note_on_c, 12, 60, 0
14, 6300, Note_on_c, 12, 65, 44
14, 6359, Note_on_c, 12, 65, 0
14, 6360, Note_on_c, 12, 60, 44
14, 6419, Note_on_c, 12, 60, 0
14, 6420, Note_on_c, 12, 65, 44
14, 6479, Note_on_c, 12, 65, 0
14, 6480, Note_on_c, 12, 60, 44
14, 6539, Note_on_c, 12, 60, 0
14, 6540, Note_on_c, 12, 65, 44
14, 6599, Note_on_c, 12, 65, 0
14, 6600, Note_on_c, 12, 60, 44
14, 6659, Note_on_c, 12, 60, 0
14, 6660, Note_on_c, 12, 65, 44
14, 6711, Note_on_c, 12, 65, 0
14, 6720, Note_on_c, 12, 62, 44
14, 6779, Note_on_c, 12, 62, 0
14, 6780, Note_on_c, 12, 65, 44
14, 6839, Note_on_c, 12, 65, 0
14, 6840, Note_on_c, 12, 62, 44
14, 6899, Note_on_c, 12, 62, 0
14, 6900, Note_on_c, 12, 65, 44
14, 6959, Note_on_c, 12, 65, 0
14, 6960, Note_on_c, 12, 62, 44
14, 7019, Note_on_c, 12, 62, 0
14, 7020, Note_on_c, 12, 65, 44
14, 7079, Note_on_c, 12, 65, 0
14, 7080, Note_on_c, 12, 62, 44
14, 7139, Note_on_c, 12, 62, 0
14, 7140, Note_on_c, 12, 65, 44
14, 7191, Note_on_c, 12, 65, 0
14, 7200, Note_on_c, 12, 60, 44
14, 7259, Note_on_c, 12, 60, 0
14, 7260, Note_on_c, 12, 65, 44
14, 7319, Note_on_c, 12, 65, 0
14, 7320, Note_on_c, 12, 60, 44
14, 7379, Note_on_c, 12, 60, 0
14, 7380, Note_on_c, 12, 65, 44
14, 7439, Note_on_c, 12, 65, 0
14, 7440, Note_on_c, 12, 60, 44
14, 7499, Note_on_c, 12, 60, 0
14, 7500, Note_on_c, 12, 65, 44
14, 7559, Note_on_c, 12, 65, 0
14, 7560, Note_on_c, 12, 60, 44
14, 7619, Note_on_c, 12, 60, 0
14, 7620, Note_on_c, 12, 65, 44
14, 7671, Note_on_c, 12, 65, 0
14, 7680, Note_on_c, 12, 62, 44
14, 7739, Note_on_c, 12, 62, 0
14, 7740, Note_on_c, 12, 65, 44
14, 7799, Note_on_c, 12, 65, 0
14, 7800, Note_on_c, 12, 62, 44
14, 7859, Note_on_c, 12, 62, 0
14, 7860, Note_on_c, 12, 65, 44
14, 7919, Note_on_c, 12, 65, 0
14, 7920, Note_on_c, 12, 62, 44
14, 7979, Note_on_c, 12, 62, 0
14, 7980, Note_on_c, 12, 65, 44
14, 8039, Note_on_c, 12, 65, 0
14, 8040, Note_on_c, 12, 62, 44
14, 8099, Note_on_c, 12, 62, 0
14, 8100, Note_on_c, 12, 65, 44
14, 8151, Note_on_c, 12, 65, 0
14, 8160, Note_on_c, 12, 60, 44
14, 8219, Note_on_c, 12, 60, 0
14, 8220, Note_on_c, 12, 63, 44
14, 8279, Note_on_c, 12, 63, 0
14, 8280, Note_on_c, 12, 60, 44
14, 8339, Note_on_c, 12, 60, 0
14, 8340, Note_on_c, 12, 63, 44
14, 8399, Note_on_c, 12, 63, 0
14, 8400, Note_on_c, 12, 60, 44
14, 8459, Note_on_c, 12, 60, 0
14, 8460, Note_on_c, 12, 63, 44
14, 8519, Note_on_c, 12, 63, 0
14, 8520, Note_on_c, 12, 60, 44
14, 8579, Note_on_c, 12, 60, 0
14, 8580, Note_on_c, 12, 63, 44
14, 8631, Note_on_c, 12, 63, 0
14, 8640, Note_on_c, 12, 58, 44
14, 8691, Note_on_c, 12, 58, 0
14, 8700, Note_on_c, 12, 57, 44
14, 8751, Note_on_c, 12, 57, 0
14, 8760, Note_on_c, 12, 58, 44
14, 8811, Note_on_c, 12, 58, 0
14, 8820, Note_on_c, 12, 62, 44
14, 8871, Note_on_c, 12, 62, 0
14, 8880, Note_on_c, 12, 60, 44
14, 8931, Note_on_c, 12, 60, 0
14, 8940, Note_on_c, 12, 58, 44
14, 8991, Note_on_c, 12, 58, 0
14, 9000, Note_on_c, 12, 57, 44
14, 9051, Note_on_c, 12, 57, 0
14, 9060, Note_on_c, 12, 58, 44
14, 9111, Note_on_c, 12, 58, 0
14, 9120, Note_on_c, 12, 65, 44
14, 9239, Note_on_c, 12, 65, 0
14, 9360, Note_on_c, 12, 65, 64
14, 9479, Note_on_c, 12, 65, 0
14, 9600, Note_on_c, 12, 70, 84
14, 9651, Note_on_c, 12, 70, 0
14, 9660, Note_on_c, 12, 69, 84
14, 9711, Note_on_c, 12, 69, 0
14, 9720, Note_on_c, 12, 70, 84
14, 9771, Note_on_c, 12, 70, 0
14, 9780, Note_on_c, 12, 74, 84
14, 9831, Note_on_c, 12, 74, 0
14, 9840, Note_on_c, 12, 72, 84
14, 9891, Note_on_c, 12, 72, 0
14, 9900, Note_on_c, 12, 70, 84
14, 9951, Note_on_c, 12, 70, 0
14, 9960, Note_on_c, 12, 69, 84
14, 10011, Note_on_c, 12, 69, 0
14, 10020, Note_on_c, 12, 70, 84
14, 10071, Note_on_c, 12, 70, 0
14, 10080, Note_on_c, 12, 69, 84
14, 10131, Note_on_c, 12, 69, 0
14, 10140, Note_on_c, 12, 67, 84
14, 10191, Note_on_c, 12, 67, 0
14, 10200, Note_on_c, 12, 65, 84
14, 10251, Note_on_c, 12, 65, 0
14, 10260, Note_on_c, 12, 67, 84
14, 10311, Note_on_c, 12, 67, 0
14, 10320, Note_on_c, 12, 65, 84
14, 10371, Note_on_c, 12, 65, 0
14, 10380, Note_on_c, 12, 63, 84
14, 10431, Note_on_c, 12, 63, 0
14, 10440, Note_on_c, 12, 62, 84
14, 10491, Note_on_c, 12, 62, 0
14, 10500, Note_on_c, 12, 63, 84
14, 10551, Note_on_c, 12, 63, 0
14, 10560, Note_on_c, 12, 62, 84
14, 10611, Note_on_c, 12, 62, 0
14, 10620, Note_on_c, 12, 60, 84
14, 10671, Note_on_c, 12, 60, 0
14, 10680, Note_on_c, 12, 58, 84
14, 10731, Note_on_c, 12, 58, 0
14, 10740, Note_on_c, 12, 60, 84
14, 10791, Note_on_c, 12, 60, 0
14, 10800, Note_on_c, 12, 58, 84
14, 10851, Note_on_c, 12, 58, 0
14, 10860, Note_on_c, 12, 69, 84
14, 10911, Note_on_c, 12, 69, 0
14, 10920, Note_on_c, 12, 67, 84
14, 10971, Note_on_c, 12, 67, 0
14, 10980, Note_on_c, 12, 69, 84
14, 11031, Note_on_c, 12, 69, 0
14, 11040, Note_on_c, 12, 67, 84
14, 11091, Note_on_c, 12, 67, 0
14, 11100, Note_on_c, 12, 65, 84
14, 11151, Note_on_c, 12, 65, 0
14, 11160, Note_on_c, 12, 63, 84
14, 11211, Note_on_c, 12, 63, 0
14, 11220, Note_on_c, 12, 62, 84
14, 11271, Note_on_c, 12, 62, 0
14, 11280, Note_on_c, 12, 60, 84
14, 11384, Note_on_c, 12, 60, 0
14, 11400, Note_on_c, 12, 65, 84
14, 11504, Note_on_c, 12, 65, 0
14, 11520, Note_on_c, 12, 58, 84
14, 11571, Note_on_c, 12, 58, 0
14, 11580, Note_on_c, 12, 62, 84
14, 11631, Note_on_c, 12, 62, 0
14, 11640, Note_on_c, 12, 65, 84
14, 11691, Note_on_c, 12, 65, 0
14, 11700, Note_on_c, 12, 70, 84
14, 11751, Note_on_c, 12, 70, 0
14, 11760, Note_on_c, 12, 62, 84
14, 11811, Note_on_c, 12, 62, 0
14, 11820, Note_on_c, 12, 65, 84
14, 11871, Note_on_c, 12, 65, 0
14, 11880, Note_on_c, 12, 70, 84
14, 11931, Note_on_c, 12, 70, 0
14, 11940, Note_on_c, 12, 70, 84
14, 11991, Note_on_c, 12, 70, 0
14, 12000, Note_on_c, 12, 70, 84
14, 12344, Note_on_c, 12, 70, 0
14, 12360, Note_on_c, 12, 77, 84
14, 12464, Note_on_c, 12, 77, 0
14, 12480, Note_on_c, 12, 69, 84
14, 12584, Note_on_c, 12, 69, 0
14, 12600, Note_on_c, 12, 75, 84
14, 12704, Note_on_c, 12, 75, 0
14, 12720, Note_on_c, 12, 69, 84
14, 12824, Note_on_c, 12, 69, 0
14, 12840, Note_on_c, 12, 72, 84
14, 12944, Note_on_c, 12, 72, 0
14, 12960, Note_on_c, 12, 63, 84
14, 13064, Note_on_c, 12, 63, 0
14, 13080, Note_on_c, 12, 67, 84
14, 13184, Note_on_c, 12, 67, 0
14, 13200, Note_on_c, 12, 60, 84
14, 13304, Note_on_c, 12, 60, 0
14, 13320, Note_on_c, 12, 65, 84
14, 13424, Note_on_c, 12, 65, 0
14, 13440, Note_on_c, 12, 58, 84
14, 13491, Note_on_c, 12, 58, 0
14, 13500, Note_on_c, 12, 62, 84
14, 13551, Note_on_c, 12, 62, 0
14, 13560, Note_on_c, 12, 65, 84
14, 13611, Note_on_c, 12, 65, 0
14, 13620, Note_on_c, 12, 70, 84
14, 13671, Note_on_c, 12, 70, 0
14, 13680, Note_on_c, 12, 62, 84
14, 13731, Note_on_c, 12, 62, 0
14, 13740, Note_on_c, 12, 67, 84
14, 13791, Note_on_c, 12, 67, 0
14, 13800, Note_on_c, 12, 70, 84
14, 13851, Note_on_c, 12, 70, 0
14, 13860, Note_on_c, 12, 70, 84
14, 13911, Note_on_c, 12, 70, 0
14, 13920, Note_on_c, 12, 70, 84
14, 13971, Note_on_c, 12, 70, 0
14, 13980, Note_on_c, 12, 79, 84
14, 14031, Note_on_c, 12, 79, 0
14, 14040, Note_on_c, 12, 79, 84
14, 14091, Note_on_c, 12, 79, 0
14, 14100, Note_on_c, 12, 79, 84
14, 14151, Note_on_c, 12, 79, 0
14, 14160, Note_on_c, 12, 79, 84
14, 14211, Note_on_c, 12, 79, 0
14, 14220, Note_on_c, 12, 79, 84
14, 14271, Note_on_c, 12, 79, 0
14, 14280, Note_on_c, 12, 79, 84
14, 14331, Note_on_c, 12, 79, 0
14, 14340, Note_on_c, 12, 79, 84
14, 14391, Note_on_c, 12, 79, 0
14, 14400, Note_on_c, 12, 77, 84
14, 14451, Note_on_c, 12, 77, 0
14, 14460, Note_on_c, 12, 69, 84
14, 14511, Note_on_c, 12, 69, 0
14, 14520, Note_on_c, 12, 72, 84
14, 14571, Note_on_c, 12, 72, 0
14, 14580, Note_on_c, 12, 72, 84
14, 14631, Note_on_c, 12, 72, 0
14, 14640, Note_on_c, 12, 65, 84
14, 14691, Note_on_c, 12, 65, 0
14, 14700, Note_on_c, 12, 65, 84
14, 14751, Note_on_c, 12, 65, 0
14, 14760, Note_on_c, 12, 69, 84
14, 14811, Note_on_c, 12, 69, 0
14, 14820, Note_on_c, 12, 69, 84
14, 14871, Note_on_c, 12, 69, 0
14, 14880, Note_on_c, 12, 62, 84
14, 14931, Note_on_c, 12, 62, 0
14, 14940, Note_on_c, 12, 62, 84
14, 14991, Note_on_c, 12, 62, 0
14, 15000, Note_on_c, 12, 65, 84
14, 15051, Note_on_c, 12, 65, 0
14, 15060, Note_on_c, 12, 65, 84
14, 15111, Note_on_c, 12, 65, 0
14, 15120, Note_on_c, 12, 57, 84
14, 15171, Note_on_c, 12, 57, 0
14, 15180, Note_on_c, 12, 57, 84
14, 15231, Note_on_c, 12, 57, 0
14, 15240, Note_on_c, 12, 59, 84
14, 15291, Note_on_c, 12, 59, 0
14, 15300, Note_on_c, 12, 59, 84
14, 15351, Note_on_c, 12, 59, 0
14, 15360, Note_on_c, 12, 60, 84
14, 15411, Note_on_c, 12, 60, 0
14, 15420, Note_on_c, 12, 60, 84
14, 15471, Note_on_c, 12, 60, 0
14, 15480, Note_on_c, 12, 64, 84
14, 15531, Note_on_c, 12, 64, 0
14, 15540, Note_on_c, 12, 64, 84
14, 15591, Note_on_c, 12, 64, 0
14, 15600, Note_on_c, 12, 67, 84
14, 15651, Note_on_c, 12, 67, 0
14, 15660, Note_on_c, 12, 67, 84
14, 15711, Note_on_c, 12, 67, 0
14, 15720, Note_on_c, 12, 69, 84
14, 15771, Note_on_c, 12, 69, 0
14, 15780, Note_on_c, 12, 69, 84
14, 15831, Note_on_c, 12, 69, 0
14, 15840, Note_on_c, 12, 70, 84
14, 15891, Note_on_c, 12, 70, 0
14, 15900, Note_on_c, 12, 70, 84
14, 15900, Note_on_c, 12, 76, 84
14, 15951, Note_on_c, 12, 70, 0
14, 15951, Note_on_c, 12, 76, 0
14, 15960, Note_on_c, 12, 76, 84
14, 15960, Note_on_c, 12, 70, 84
14, 16011, Note_on_c, 12, 76, 0
14, 16011, Note_on_c, 12, 70, 0
14, 16020, Note_on_c, 12, 70, 84
14, 16020, Note_on_c, 12, 76, 84
14, 16071, Note_on_c, 12, 70, 0
14, 16071, Note_on_c, 12, 76, 0
14, 16080, Note_on_c, 12, 76, 84
14, 16080, Note_on_c, 12, 70, 84
14, 16131, Note_on_c, 12, 76, 0
14, 16131, Note_on_c, 12, 70, 0
14, 16140, Note_on_c, 12, 76, 84
14, 16140, Note_on_c, 12, 70, 84
14, 16191, Note_on_c, 12, 76, 0
14, 16191, Note_on_c, 12, 70, 0
14, 16200, Note_on_c, 12, 70, 84
14, 16200, Note_on_c, 12, 76, 84
14, 16251, Note_on_c, 12, 70, 0
14, 16251, Note_on_c, 12, 76, 0
14, 16260, Note_on_c, 12, 76, 84
14, 16260, Note_on_c, 12, 70, 84
14, 16311, Note_on_c, 12, 76, 0
14, 16311, Note_on_c, 12, 70, 0
14, 16320, Note_on_c, 12, 70, 84
14, 16320, Note_on_c, 12, 76, 84
14, 16371, Note_on_c, 12, 70, 0
14, 16371, Note_on_c, 12, 76, 0
14, 16380, Note_on_c, 12, 76, 84
14, 16380, Note_on_c, 12, 70, 84
14, 16431, Note_on_c, 12, 76, 0
14, 16431, Note_on_c, 12, 70, 0
14, 16440, Note_on_c, 12, 70, 84
14, 16440, Note_on_c, 12, 76, 84
14, 16491, Note_on_c, 12, 70, 0
14, 16491, Note_on_c, 12, 76, 0
14, 16500, Note_on_c, 12, 76, 84
14, 16500, Note_on_c, 12, 70, 84
14, 16551, Note_on_c, 12, 76, 0
14, 16551, Note_on_c, 12, 70, 0
14, 16560, Note_on_c, 12, 76, 84
14, 16560, Note_on_c, 12, 70, 84
14, 16611, Note_on_c, 12, 76, 0
14, 16611, Note_on_c, 12, 70, 0
14, 16620, Note_on_c, 12, 70, 84
14, 16620, Note_on_c, 12, 76, 84
14, 16671, Note_on_c, 12, 70, 0
14, 16671, Note_on_c, 12, 76, 0
14, 16680, Note_on_c, 12, 70, 84
14, 16680, Note_on_c, 12, 76, 84
14, 16731, Note_on_c, 12, 70, 0
14, 16731, Note_on_c, 12, 76, 0
14, 16740, Note_on_c, 12, 70, 84
14, 16740, Note_on_c, 12, 76, 84
14, 16791, Note_on_c, 12, 70, 0
14, 16791, Note_on_c, 12, 76, 0
14, 16800, Note_on_c, 12, 70, 84
14, 16800, Note_on_c, 12, 76, 84
14, 16919, Note_on_c, 12, 70, 0
14, 16919, Note_on_c, 12, 76, 0
14, 17280, Note_on_c, 12, 65, 52
14, 17759, Note_on_c, 12, 65, 0
14, 17760, Note_on_c, 12, 64, 52
14, 18239, Note_on_c, 12, 64, 0
14, 18240, Note_on_c, 12, 65, 52
14, 18719, Note_on_c, 12, 65, 0
14, 18720, Note_on_c, 12, 64, 52
14, 19184, Note_on_c, 12, 64, 0
14, 19200, Note_on_c, 12, 62, 52
14, 19544, Note_on_c, 12, 62, 0
14, 19560, Note_on_c, 12, 62, 52
14, 19664, Note_on_c, 12, 62, 0
14, 19680, Note_on_c, 12, 64, 52
14, 19799, Note_on_c, 12, 64, 0
14, 19920, Note_on_c, 12, 64, 52
14, 20039, Note_on_c, 12, 64, 0
14, 20160, Note_on_c, 12, 64, 52
14, 20279, Note_on_c, 12, 64, 0
14, 20400, Note_on_c, 12, 65, 52
14, 20519, Note_on_c, 12, 65, 0
14, 20640, Note_on_c, 12, 64, 52
14, 20729, Note_on_c, 12, 64, 0
14, 20760, Note_on_c, 12, 60, 52
14, 20879, Note_on_c, 12, 60, 0
14, 20880, Note_on_c, 12, 58, 52
14, 20999, Note_on_c, 12, 58, 0
14, 21000, Note_on_c, 12, 55, 52
14, 21104, Note_on_c, 12, 55, 0
14, 21120, Note_on_c, 12, 57, 52
14, 21239, Note_on_c, 12, 57, 0
14, 21240, Note_on_c, 12, 58, 52
14, 21359, Note_on_c, 12, 58, 0
14, 21360, Note_on_c, 12, 59, 52
14, 21479, Note_on_c, 12, 59, 0
14, 21480, Note_on_c, 12, 60, 52
14, 21704, Note_on_c, 12, 60, 0
14, 21720, Note_on_c, 12, 60, 52
14, 21944, Note_on_c, 12, 60, 0
14, 21960, Note_on_c, 12, 64, 52
14, 22184, Note_on_c, 12, 64, 0
14, 22200, Note_on_c, 12, 65, 52
14, 22424, Note_on_c, 12, 65, 0
14, 22440, Note_on_c, 12, 69, 52
14, 22664, Note_on_c, 12, 69, 0
14, 22680, Note_on_c, 12, 72, 52
14, 22904, Note_on_c, 12, 72, 0
14, 22920, Note_on_c, 12, 64, 52
14, 23024, Note_on_c, 12, 64, 0
14, 23040, Note_on_c, 12, 67, 52
14, 23399, Note_on_c, 12, 67, 0
14, 23400, Note_on_c, 12, 65, 52
14, 23504, Note_on_c, 12, 65, 0
14, 23520, Note_on_c, 12, 64, 52
14, 23639, Note_on_c, 12, 64, 0
14, 23640, Note_on_c, 12, 67, 52
14, 23744, Note_on_c, 12, 67, 0
14, 23760, Note_on_c, 12, 60, 52
14, 23879, Note_on_c, 12, 60, 0
14, 23880, Note_on_c, 12, 64, 52
14, 23984, Note_on_c, 12, 64, 0
14, 24000, Note_on_c, 12, 55, 52
14, 24119, Note_on_c, 12, 55, 0
14, 24120, Note_on_c, 12, 60, 52
14, 24224, Note_on_c, 12, 60, 0
14, 24240, Note_on_c, 12, 59, 52
14, 24359, Note_on_c, 12, 59, 0
14, 24360, Note_on_c, 12, 62, 52
14, 24464, Note_on_c, 12, 62, 0
14, 24480, Note_on_c, 12, 60, 52
14, 24599, Note_on_c, 12, 60, 0
14, 25800, Note_on_c, 12, 69, 76
14, 25904, Note_on_c, 12, 69, 0
14, 25920, Note_on_c, 12, 67, 76
14, 26039, Note_on_c, 12, 67, 0
14, 26040, Note_on_c, 12, 65, 76
14, 26144, Note_on_c, 12, 65, 0
14, 26160, Note_on_c, 12, 67, 76
14, 26249, Note_on_c, 12, 67, 0
14, 26280, Note_on_c, 12, 69, 76
14, 26369, Note_on_c, 12, 69, 0
14, 26400, Note_on_c, 12, 70, 76
14, 26519, Note_on_c, 12, 70, 0
14, 27720, Note_on_c, 12, 69, 76
14, 27824, Note_on_c, 12, 69, 0
14, 27840, Note_on_c, 12, 67, 76
14, 27959, Note_on_c, 12, 67, 0
14, 27960, Note_on_c, 12, 65, 76
14, 28064, Note_on_c, 12, 65, 0
14, 28080, Note_on_c, 12, 67, 76
14, 28169, Note_on_c, 12, 67, 0
14, 28200, Note_on_c, 12, 69, 76
14, 28289, Note_on_c, 12, 69, 0
14, 28320, Note_on_c, 12, 70, 76
14, 28424, Note_on_c, 12, 70, 0
14, 28440, Note_on_c, 12, 70, 76
14, 28559, Note_on_c, 12, 70, 0
14, 28680, Note_on_c, 12, 69, 76
14, 28731, Note_on_c, 12, 69, 0
14, 28740, Note_on_c, 12, 69, 76
14, 28791, Note_on_c, 12, 69, 0
14, 28800, Note_on_c, 12, 67, 76
14, 28851, Note_on_c, 12, 67, 0
14, 28860, Note_on_c, 12, 67, 76
14, 28911, Note_on_c, 12, 67, 0
14, 28920, Note_on_c, 12, 65, 76
14, 28971, Note_on_c, 12, 65, 0
14, 28980, Note_on_c, 12, 65, 76
14, 29031, Note_on_c, 12, 65, 0
14, 29040, Note_on_c, 12, 67, 76
14, 29091, Note_on_c, 12, 67, 0
14, 29100, Note_on_c, 12, 67, 76
14, 29151, Note_on_c, 12, 67, 0
14, 29160, Note_on_c, 12, 69, 76
14, 29211, Note_on_c, 12, 69, 0
14, 29220, Note_on_c, 12, 69, 76
14, 29271, Note_on_c, 12, 69, 0
14, 29280, Note_on_c, 12, 70, 76
14, 29384, Note_on_c, 12, 70, 0
14, 29400, Note_on_c, 12, 70, 76
14, 29519, Note_on_c, 12, 70, 0
14, 29640, Note_on_c, 12, 72, 76
14, 29691, Note_on_c, 12, 72, 0
14, 29700, Note_on_c, 12, 72, 76
14, 29751, Note_on_c, 12, 72, 0
14, 29760, Note_on_c, 12, 74, 76
14, 29811, Note_on_c, 12, 74, 0
14, 29820, Note_on_c, 12, 74, 76
14, 29871, Note_on_c, 12, 74, 0
14, 29880, Note_on_c, 12, 72, 76
14, 29931, Note_on_c, 12, 72, 0
14, 29940, Note_on_c, 12, 72, 76
14, 29991, Note_on_c, 12, 72, 0
14, 30000, Note_on_c, 12, 74, 76
14, 30051, Note_on_c, 12, 74, 0
14, 30060, Note_on_c, 12, 74, 76
14, 30111, Note_on_c, 12, 74, 0
14, 30120, Note_on_c, 12, 76, 76
14, 30171, Note_on_c, 12, 76, 0
14, 30180, Note_on_c, 12, 76, 76
14, 30231, Note_on_c, 12, 76, 0
14, 30240, Note_on_c, 12, 77, 84
14, 30291, Note_on_c, 12, 77, 0
14, 30300, Note_on_c, 12, 68, 84
14, 30351, Note_on_c, 12, 68, 0
14, 30360, Note_on_c, 12, 68, 84
14, 30411, Note_on_c, 12, 68, 0
14, 30420, Note_on_c, 12, 68, 84
14, 30471, Note_on_c, 12, 68, 0
14, 30480, Note_on_c, 12, 68, 84
14, 30531, Note_on_c, 12, 68, 0
14, 30540, Note_on_c, 12, 68, 84
14, 30591, Note_on_c, 12, 68, 0
14, 30600, Note_on_c, 12, 68, 84
14, 30651, Note_on_c, 12, 68, 0
14, 30660, Note_on_c, 12, 68, 84
14, 30711, Note_on_c, 12, 68, 0
14, 30720, Note_on_c, 12, 68, 84
14, 30771, Note_on_c, 12, 68, 0
14, 30780, Note_on_c, 12, 68, 84
14, 30831, Note_on_c, 12, 68, 0
14, 30840, Note_on_c, 12, 68, 84
14, 30891, Note_on_c, 12, 68, 0
14, 30900, Note_on_c, 12, 68, 84
14, 30951, Note_on_c, 12, 68, 0
14, 30960, Note_on_c, 12, 68, 84
14, 31011, Note_on_c, 12, 68, 0
14, 31020, Note_on_c, 12, 68, 84
14, 31071, Note_on_c, 12, 68, 0
14, 31080, Note_on_c, 12, 68, 84
14, 31131, Note_on_c, 12, 68, 0
14, 31140, Note_on_c, 12, 68, 84
14, 31191, Note_on_c, 12, 68, 0
14, 31200, Note_on_c, 12, 68, 92
14, 31200, Note_on_c, 12, 59, 92
14, 31649, Note_on_c, 12, 68, 0
14, 31649, Note_on_c, 12, 59, 0
14, 31680, Note_on_c, 12, 68, 92
14, 31680, Note_on_c, 12, 59, 92
14, 32129, Note_on_c, 12, 68, 0
14, 32129, Note_on_c, 12, 59, 0
14, 32160, Note_on_c, 12, 68, 92
14, 32160, Note_on_c, 12, 59, 92
14, 32609, Note_on_c, 12, 68, 0
14, 32609, Note_on_c, 12, 59, 0
14, 32640, Note_on_c, 12, 68, 92
14, 32640, Note_on_c, 12, 59, 92
14, 33089, Note_on_c, 12, 68, 0
14, 33089, Note_on_c, 12, 59, 0
14, 33120, Note_on_c, 12, 70, 52
14, 33171, Note_on_c, 12, 70, 0
14, 33180, Note_on_c, 12, 70, 52
14, 33231, Note_on_c, 12, 70, 0
14, 33240, Note_on_c, 12, 72, 52
14, 33291, Note_on_c, 12, 72, 0
14, 33300, Note_on_c, 12, 72, 52
14, 33351, Note_on_c, 12, 72, 0
14, 33360, Note_on_c, 12, 70, 52
14, 33411, Note_on_c, 12, 70, 0
14, 33420, Note_on_c, 12, 70, 52
14, 33471, Note_on_c, 12, 70, 0
14, 33480, Note_on_c, 12, 72, 52
14, 33531, Note_on_c, 12, 72, 0
14, 33540, Note_on_c, 12, 72, 52
14, 33591, Note_on_c, 12, 72, 0
14, 33600, Note_on_c, 12, 70, 52
14, 33651, Note_on_c, 12, 70, 0
14, 33660, Note_on_c, 12, 70, 52
14, 33711, Note_on_c, 12, 70, 0
14, 33720, Note_on_c, 12, 72, 52
14, 33771, Note_on_c, 12, 72, 0
14, 33780, Note_on_c, 12, 72, 52
14, 33831, Note_on_c, 12, 72, 0
14, 33840, Note_on_c, 12, 69, 52
14, 33891, Note_on_c, 12, 69, 0
14, 33900, Note_on_c, 12, 69, 52
14, 33951, Note_on_c, 12, 69, 0
14, 33960, Note_on_c, 12, 72, 52
14, 34011, Note_on_c, 12, 72, 0
14, 34020, Note_on_c, 12, 72, 52
14, 34071, Note_on_c, 12, 72, 0
14, 34080, Note_on_c, 12, 70, 52
14, 34131, Note_on_c, 12, 70, 0
14, 34140, Note_on_c, 12, 70, 52
14, 34191, Note_on_c, 12, 70, 0
14, 34200, Note_on_c, 12, 74, 52
14, 34251, Note_on_c, 12, 74, 0
14, 34260, Note_on_c, 12, 74, 52
14, 34311, Note_on_c, 12, 74, 0
14, 34320, Note_on_c, 12, 67, 52
14, 34371, Note_on_c, 12, 67, 0
14, 34380, Note_on_c, 12, 67, 52
14, 34431, Note_on_c, 12, 67, 0
14, 34440, Note_on_c, 12, 74, 52
14, 34491, Note_on_c, 12, 74, 0
14, 34500, Note_on_c, 12, 74, 52
14, 34551, Note_on_c, 12, 74, 0
14, 34560, Note_on_c, 12, 69, 52
14, 34611, Note_on_c, 12, 69, 0
14, 34620, Note_on_c, 12, 69, 52
14, 34671, Note_on_c, 12, 69, 0
14, 34680, Note_on_c, 12, 72, 52
14, 34731, Note_on_c, 12, 72, 0
14, 34740, Note_on_c, 12, 72, 52
14, 34791, Note_on_c, 12, 72, 0
14, 34800, Note_on_c, 12, 70, 52
14, 34851, Note_on_c, 12, 70, 0
14, 34860, Note_on_c, 12, 70, 52
14, 34911, Note_on_c, 12, 70, 0
14, 34920, Note_on_c, 12, 72, 52
14, 34971, Note_on_c, 12, 72, 0
14, 34980, Note_on_c, 12, 72, 52
14, 35031, Note_on_c, 12, 72, 0
14, 35040, Note_on_c, 12, 59, 84
14, 35040, Note_on_c, 12, 68, 84
14, 35504, Note_on_c, 12, 59, 0
14, 35504, Note_on_c, 12, 68, 0
14, 35520, Note_on_c, 12, 59, 92
14, 35520, Note_on_c, 12, 68, 92
14, 35969, Note_on_c, 12, 59, 0
14, 35969, Note_on_c, 12, 68, 0
14, 36000, Note_on_c, 12, 59, 92
14, 36000, Note_on_c, 12, 68, 92
14, 36449, Note_on_c, 12, 59, 0
14, 36449, Note_on_c, 12, 68, 0
14, 36480, Note_on_c, 12, 59, 92
14, 36480, Note_on_c, 12, 68, 92
14, 36929, Note_on_c, 12, 59, 0
14, 36929, Note_on_c, 12, 68, 0
14, 36960, Note_on_c, 12, 72, 52
14, 37011, Note_on_c, 12, 72, 0
14, 37020, Note_on_c, 12, 72, 52
14, 37071, Note_on_c, 12, 72, 0
14, 37080, Note_on_c, 12, 74, 52
14, 37131, Note_on_c, 12, 74, 0
14, 37140, Note_on_c, 12, 74, 52
14, 37191, Note_on_c, 12, 74, 0
14, 37200, Note_on_c, 12, 72, 52
14, 37251, Note_on_c, 12, 72, 0
14, 37260, Note_on_c, 12, 72, 52
14, 37311, Note_on_c, 12, 72, 0
14, 37320, Note_on_c, 12, 74, 52
14, 37371, Note_on_c, 12, 74, 0
14, 37380, Note_on_c, 12, 74, 52
14, 37431, Note_on_c, 12, 74, 0
14, 37440, Note_on_c, 12, 72, 52
14, 37491, Note_on_c, 12, 72, 0
14, 37500, Note_on_c, 12, 72, 52
14, 37551, Note_on_c, 12, 72, 0
14, 37560, Note_on_c, 12, 74, 52
14, 37611, Note_on_c, 12, 74, 0
14, 37620, Note_on_c, 12, 74, 52
14, 37671, Note_on_c, 12, 74, 0
14, 37680, Note_on_c, 12, 70, 52
14, 37731, Note_on_c, 12, 70, 0
14, 37740, Note_on_c, 12, 70, 52
14, 37791, Note_on_c, 12, 70, 0
14, 37800, Note_on_c, 12, 74, 52
14, 37851, Note_on_c, 12, 74, 0
14, 37860, Note_on_c, 12, 74, 52
14, 37911, Note_on_c, 12, 74, 0
14, 37920, Note_on_c, 12, 67, 52
14, 37971, Note_on_c, 12, 67, 0
14, 37980, Note_on_c, 12, 67, 52
14, 38031, Note_on_c, 12, 67, 0
14, 38040, Note_on_c, 12, 72, 52
14, 38091, Note_on_c, 12, 72, 0
14, 38100, Note_on_c, 12, 72, 52
14, 38151, Note_on_c, 12, 72, 0
14, 38160, Note_on_c, 12, 67, 52
14, 38211, Note_on_c, 12, 67, 0
14, 38220, Note_on_c, 12, 67, 52
14, 38271, Note_on_c, 12, 67, 0
14, 38280, Note_on_c, 12, 72, 52
14, 38331, Note_on_c, 12, 72, 0
14, 38340, Note_on_c, 12, 72, 52
14, 38391, Note_on_c, 12, 72, 0
14, 38400, Note_on_c, 12, 67, 52
14, 38451, Note_on_c, 12, 67, 0
14, 38460, Note_on_c, 12, 67, 52
14, 38511, Note_on_c, 12, 67, 0
14, 38520, Note_on_c, 12, 72, 52
14, 38571, Note_on_c, 12, 72, 0
14, 38580, Note_on_c, 12, 72, 52
14, 38631, Note_on_c, 12, 72, 0
14, 38640, Note_on_c, 12, 67, 52
14, 38691, Note_on_c, 12, 67, 0
14, 38700, Note_on_c, 12, 67, 52
14, 38751, Note_on_c, 12, 67, 0
14, 38760, Note_on_c, 12, 72, 52
14, 38811, Note_on_c, 12, 72, 0
14, 38820, Note_on_c, 12, 72, 52
14, 38871, Note_on_c, 12, 72, 0
14, 38880, Note_on_c, 12, 69, 52
14, 38931, Note_on_c, 12, 69, 0
14, 38940, Note_on_c, 12, 69, 53
14, 38991, Note_on_c, 12, 69, 0
14, 39000, Note_on_c, 12, 72, 54
14, 39051, Note_on_c, 12, 72, 0
14, 39060, Note_on_c, 12, 72, 55
14, 39111, Note_on_c, 12, 72, 0
14, 39120, Note_on_c, 12, 69, 56
14, 39171, Note_on_c, 12, 69, 0
14, 39180, Note_on_c, 12, 69, 57
14, 39231, Note_on_c, 12, 69, 0
14, 39240, Note_on_c, 12, 74, 58
14, 39291, Note_on_c, 12, 74, 0
14, 39300, Note_on_c, 12, 74, 59
14, 39351, Note_on_c, 12, 74, 0
14, 39360, Note_on_c, 12, 67, 60
14, 39411, Note_on_c, 12, 67, 0
14, 39420, Note_on_c, 12, 67, 61
14, 39471, Note_on_c, 12, 67, 0
14, 39480, Note_on_c, 12, 74, 62
14, 39531, Note_on_c, 12, 74, 0
14, 39540, Note_on_c, 12, 74, 63
14, 39591, Note_on_c, 12, 74, 0
14, 39600, Note_on_c, 12, 67, 64
14, 39651, Note_on_c, 12, 67, 0
14, 39660, Note_on_c, 12, 67, 65
14, 39711, Note_on_c, 12, 67, 0
14, 39720, Note_on_c, 12, 72, 66
14, 39771, Note_on_c, 12, 72, 0
14, 39780, Note_on_c, 12, 72, 67
14, 39831, Note_on_c, 12, 72, 0
14, 39840, Note_on_c, 12, 69, 68
14, 39891, Note_on_c, 12, 69, 0
14, 39900, Note_on_c, 12, 69, 69
14, 39951, Note_on_c, 12, 69, 0
14, 39960, Note_on_c, 12, 72, 70
14, 40011, Note_on_c, 12, 72, 0
14, 40020, Note_on_c, 12, 72, 71
14, 40071, Note_on_c, 12, 72, 0
14, 40080, Note_on_c, 12, 69, 72
14, 40131, Note_on_c, 12, 69, 0
14, 40140, Note_on_c, 12, 69, 73
14, 40191, Note_on_c, 12, 69, 0
14, 40200, Note_on_c, 12, 74, 74
14, 40251, Note_on_c, 12, 74, 0
14, 40260, Note_on_c, 12, 74, 75
14, 40311, Note_on_c, 12, 74, 0
14, 40320, Note_on_c, 12, 67, 76
14, 40371, Note_on_c, 12, 67, 0
14, 40380, Note_on_c, 12, 67, 77
14, 40431, Note_on_c, 12, 67, 0
14, 40440, Note_on_c, 12, 74, 78
14, 40491, Note_on_c, 12, 74, 0
14, 40500, Note_on_c, 12, 74, 79
14, 40551, Note_on_c, 12, 74, 0
14, 40560, Note_on_c, 12, 67, 80
14, 40611, Note_on_c, 12, 67, 0
14, 40620, Note_on_c, 12, 67, 81
14, 40671, Note_on_c, 12, 67, 0
14, 40680, Note_on_c, 12, 72, 82
14, 40731, Note_on_c, 12, 72, 0
14, 40740, Note_on_c, 12, 72, 83
14, 40791, Note_on_c, 12, 72, 0
14, 40800, Note_on_c, 12, 69, 84
14, 40851, Note_on_c, 12, 69, 0
14, 40860, Note_on_c, 12, 69, 84
14, 40911, Note_on_c, 12, 69, 0
14, 40920, Note_on_c, 12, 69, 84
14, 40971, Note_on_c, 12, 69, 0
14, 40980, Note_on_c, 12, 69, 84
14, 41031, Note_on_c, 12, 69, 0
14, 41040, Note_on_c, 12, 69, 84
14, 41091, Note_on_c, 12, 69, 0
14, 41100, Note_on_c, 12, 69, 84
14, 41151, Note_on_c, 12, 69, 0
14, 41160, Note_on_c, 12, 69, 84
14, 41211, Note_on_c, 12, 69, 0
14, 41220, Note_on_c, 12, 69, 84
14, 41271, Note_on_c, 12, 69, 0
14, 41280, Note_on_c, 12, 65, 84
14, 41280, Note_on_c, 12, 74, 84
14, 41331, Note_on_c, 12, 65, 0
14, 41331, Note_on_c, 12, 74, 0
14, 41340, Note_on_c, 12, 74, 84
14, 41340, Note_on_c, 12, 65, 84
14, 41391, Note_on_c, 12, 74, 0
14, 41391, Note_on_c, 12, 65, 0
14, 41400, Note_on_c, 12, 65, 84
14, 41400, Note_on_c, 12, 74, 84
14, 41451, Note_on_c, 12, 65, 0
14, 41451, Note_on_c, 12, 74, 0
14, 41460, Note_on_c, 12, 65, 84
14, 41460, Note_on_c, 12, 74, 84
14, 41511, Note_on_c, 12, 65, 0
14, 41511, Note_on_c, 12, 74, 0
14, 41520, Note_on_c, 12, 64, 84
14, 41520, Note_on_c, 12, 72, 84
14, 41571, Note_on_c, 12, 64, 0
14, 41571, Note_on_c, 12, 72, 0
14, 41580, Note_on_c, 12, 72, 84
14, 41580, Note_on_c, 12, 64, 84
14, 41631, Note_on_c, 12, 72, 0
14, 41631, Note_on_c, 12, 64, 0
14, 41640, Note_on_c, 12, 72, 84
14, 41640, Note_on_c, 12, 64, 84
14, 41691, Note_on_c, 12, 72, 0
14, 41691, Note_on_c, 12, 64, 0
14, 41700, Note_on_c, 12, 72, 84
14, 41700, Note_on_c, 12, 64, 84
14, 41751, Note_on_c, 12, 72, 0
14, 41751, Note_on_c, 12, 64, 0
14, 41760, Note_on_c, 12, 65, 84
14, 41811, Note_on_c, 12, 65, 0
14, 41820, Note_on_c, 12, 64, 84
14, 41871, Note_on_c, 12, 64, 0
14, 41880, Note_on_c, 12, 65, 84
14, 41931, Note_on_c, 12, 65, 0
14, 41940, Note_on_c, 12, 69, 84
14, 41991, Note_on_c, 12, 69, 0
14, 42000, Note_on_c, 12, 62, 84
14, 42051, Note_on_c, 12, 62, 0
14, 42060, Note_on_c, 12, 64, 84
14, 42111, Note_on_c, 12, 64, 0
14, 42120, Note_on_c, 12, 65, 84
14, 42171, Note_on_c, 12, 65, 0
14, 42180, Note_on_c, 12, 67, 84
14, 42231, Note_on_c, 12, 67, 0
14, 42240, Note_on_c, 12, 60, 84
14, 42291, Note_on_c, 12, 60, 0
14, 42300, Note_on_c, 12, 62, 84
14, 42351, Note_on_c, 12, 62, 0
14, 42360, Note_on_c, 12, 64, 84
14, 42411, Note_on_c, 12, 64, 0
14, 42420, Note_on_c, 12, 65, 84
14, 42471, Note_on_c, 12, 65, 0
14, 42480, Note_on_c, 12, 58, 84
14, 42531, Note_on_c, 12, 58, 0
14, 42540, Note_on_c, 12, 60, 84
14, 42591, Note_on_c, 12, 60, 0
14, 42600, Note_on_c, 12, 62, 84
14, 42651, Note_on_c, 12, 62, 0
14, 42660, Note_on_c, 12, 64, 84
14, 42711, Note_on_c, 12, 64, 0
14, 42720, Note_on_c, 12, 72, 84
14, 43064, Note_on_c, 12, 72, 0
14, 43080, Note_on_c, 12, 70, 84
14, 43184, Note_on_c, 12, 70, 0
14, 43200, Note_on_c, 12, 69, 84
14, 43304, Note_on_c, 12, 69, 0
14, 43320, Note_on_c, 12, 69, 84
14, 43424, Note_on_c, 12, 69, 0
14, 43440, Note_on_c, 12, 67, 84
14, 43469, Note_on_c, 12, 67, 0
14, 43470, Note_on_c, 12, 69, 84
14, 43499, Note_on_c, 12, 69, 0
14, 43500, Note_on_c, 12, 67, 84
14, 43529, Note_on_c, 12, 67, 0
14, 43530, Note_on_c, 12, 69, 84
14, 43559, Note_on_c, 12, 69, 0
14, 43560, Note_on_c, 12, 67, 84
14, 43589, Note_on_c, 12, 67, 0
14, 43590, Note_on_c, 12, 69, 84
14, 43619, Note_on_c, 12, 69, 0
14, 43620, Note_on_c, 12, 65, 84
14, 43649, Note_on_c, 12, 65, 0
14, 43650, Note_on_c, 12, 67, 84
14, 43679, Note_on_c, 12, 67, 0
14, 43680, Note_on_c, 12, 65, 84
14, 43731, Note_on_c, 12, 65, 0
14, 43740, Note_on_c, 12, 64, 84
14, 43791, Note_on_c, 12, 64, 0
14, 43800, Note_on_c, 12, 65, 84
14, 43851, Note_on_c, 12, 65, 0
14, 43860, Note_on_c, 12, 69, 84
14, 43911, Note_on_c, 12, 69, 0
14, 43920, Note_on_c, 12, 62, 84
14, 43971, Note_on_c, 12, 62, 0
14, 43980, Note_on_c, 12, 64, 84
14, 44031, Note_on_c, 12, 64, 0
14, 44040, Note_on_c, 12, 65, 84
14, 44091, Note_on_c, 12, 65, 0
14, 44100, Note_on_c, 12, 67, 84
14, 44151, Note_on_c, 12, 67, 0
14, 44160, Note_on_c, 12, 60, 84
14, 44211, Note_on_c, 12, 60, 0
14, 44220, Note_on_c, 12, 62, 84
14, 44271, Note_on_c, 12, 62, 0
14, 44280, Note_on_c, 12, 64, 84
14, 44331, Note_on_c, 12, 64, 0
14, 44340, Note_on_c, 12, 65, 84
14, 44391, Note_on_c, 12, 65, 0
14, 44400, Note_on_c, 12, 58, 84
14, 44451, Note_on_c, 12, 58, 0
14, 44460, Note_on_c, 12, 60, 84
14, 44511, Note_on_c, 12, 60, 0
14, 44520, Note_on_c, 12, 62, 84
14, 44571, Note_on_c, 12, 62, 0
14, 44580, Note_on_c, 12, 64, 84
14, 44631, Note_on_c, 12, 64, 0
14, 44640, Note_on_c, 12, 65, 84
14, 44744, Note_on_c, 12, 65, 0
14, 44760, Note_on_c, 12, 72, 84
14, 44984, Note_on_c, 12, 72, 0
14, 45000, Note_on_c, 12, 70, 84
14, 45104, Note_on_c, 12, 70, 0
14, 45120, Note_on_c, 12, 69, 84
14, 45224, Note_on_c, 12, 69, 0
14, 45240, Note_on_c, 12, 69, 84
14, 45344, Note_on_c, 12, 69, 0
14, 45360, Note_on_c, 12, 67, 84
14, 45389, Note_on_c, 12, 67, 0
14, 45390, Note_on_c, 12, 69, 84
14, 45419, Note_on_c, 12, 69, 0
14, 45420, Note_on_c, 12, 67, 84
14, 45449, Note_on_c, 12, 67, 0
14, 45450, Note_on_c, 12, 69, 84
14, 45479, Note_on_c, 12, 69, 0
14, 45480, Note_on_c, 12, 67, 84
14, 45509, Note_on_c, 12, 67, 0
14, 45510, Note_on_c, 12, 69, 84
14, 45539, Note_on_c, 12, 69, 0
14, 45540, Note_on_c, 12, 65, 84
14, 45569, Note_on_c, 12, 65, 0
14, 45570, Note_on_c, 12, 67, 84
14, 45599, Note_on_c, 12, 67, 0
14, 45600, Note_on_c, 12, 65, 84
14, 45651, Note_on_c, 12, 65, 0
14, 45660, Note_on_c, 12, 64, 84
14, 45711, Note_on_c, 12, 64, 0
14, 45720, Note_on_c, 12, 65, 84
14, 45771, Note_on_c, 12, 65, 0
14, 45780, Note_on_c, 12, 69, 84
14, 45831, Note_on_c, 12, 69, 0
14, 45840, Note_on_c, 12, 60, 84
14, 45891, Note_on_c, 12, 60, 0
14, 45900, Note_on_c, 12, 62, 84
14, 45951, Note_on_c, 12, 62, 0
14, 45960, Note_on_c, 12, 63, 84
14, 46011, Note_on_c, 12, 63, 0
14, 46020, Note_on_c, 12, 64, 84
14, 46071, Note_on_c, 12, 64, 0
14, 46080, Note_on_c, 12, 65, 84
14, 46131, Note_on_c, 12, 65, 0
14, 46140, Note_on_c, 12, 64, 84
14, 46191, Note_on_c, 12, 64, 0
14, 46200, Note_on_c, 12, 65, 84
14, 46251, Note_on_c, 12, 65, 0
14, 46260, Note_on_c, 12, 69, 84
14, 46311, Note_on_c, 12, 69, 0
14, 46320, Note_on_c, 12, 60, 84
14, 46371, Note_on_c, 12, 60, 0
14, 46380, Note_on_c, 12, 62, 84
14, 46431, Note_on_c, 12, 62, 0
14, 46440, Note_on_c, 12, 63, 84
14, 46491, Note_on_c, 12, 63, 0
14, 46500, Note_on_c, 12, 64, 84
14, 46551, Note_on_c, 12, 64, 0
14, 46560, Note_on_c, 12, 65, 84
14, 46611, Note_on_c, 12, 65, 0
14, 46620, Note_on_c, 12, 64, 84
14, 46671, Note_on_c, 12, 64, 0
14, 46680, Note_on_c, 12, 65, 84
14, 46731, Note_on_c, 12, 65, 0
14, 46740, Note_on_c, 12, 69, 84
14, 46791, Note_on_c, 12, 69, 0
14, 46800, Note_on_c, 12, 60, 84
14, 46851, Note_on_c, 12, 60, 0
14, 46860, Note_on_c, 12, 62, 84
14, 46911, Note_on_c, 12, 62, 0
14, 46920, Note_on_c, 12, 63, 84
14, 46971, Note_on_c, 12, 63, 0
14, 46980, Note_on_c, 12, 64, 84
14, 47031, Note_on_c, 12, 64, 0
14, 47040, Note_on_c, 12, 65, 84
14, 47091, Note_on_c, 12, 65, 0
14, 47100, Note_on_c, 12, 64, 84
14, 47151, Note_on_c, 12, 64, 0
14, 47160, Note_on_c, 12, 65, 84
14, 47211, Note_on_c, 12, 65, 0
14, 47220, Note_on_c, 12, 69, 84
14, 47271, Note_on_c, 12, 69, 0
14, 47280, Note_on_c, 12, 60, 84
14, 47331, Note_on_c, 12, 60, 0
14, 47340, Note_on_c, 12, 62, 84
14, 47391, Note_on_c, 12, 62, 0
14, 47400, Note_on_c, 12, 63, 84
14, 47451, Note_on_c, 12, 63, 0
14, 47460, Note_on_c, 12, 64, 84
14, 47511, Note_on_c, 12, 64, 0
14, 47520, Note_on_c, 12, 65, 52
14, 47639, Note_on_c, 12, 65, 0
14, 49200, Note_on_c, 12, 65, 52
14, 49251, Note_on_c, 12, 65, 0
14, 49260, Note_on_c, 12, 67, 52
14, 49311, Note_on_c, 12, 67, 0
14, 49320, Note_on_c, 12, 68, 52
14, 49371, Note_on_c, 12, 68, 0
14, 49380, Note_on_c, 12, 69, 52
14, 49431, Note_on_c, 12, 69, 0
14, 49440, Note_on_c, 12, 70, 52
14, 49440, Note_on_c, 12, 62, 52
14, 49559, Note_on_c, 12, 70, 0
14, 49559, Note_on_c, 12, 62, 0
14, 49680, Note_on_c, 12, 62, 52
14, 49799, Note_on_c, 12, 62, 0
14, 49920, Note_on_c, 12, 60, 52
14, 50039, Note_on_c, 12, 60, 0
14, 50160, Note_on_c, 12, 67, 52
14, 50211, Note_on_c, 12, 67, 0
14, 50220, Note_on_c, 12, 65, 52
14, 50271, Note_on_c, 12, 65, 0
14, 50280, Note_on_c, 12, 63, 52
14, 50331, Note_on_c, 12, 63, 0
14, 50340, Note_on_c, 12, 62, 52
14, 50391, Note_on_c, 12, 62, 0
14, 50400, Note_on_c, 12, 60, 52
14, 50451, Note_on_c, 12, 60, 0
14, 50460, Note_on_c, 12, 58, 52
14, 50511, Note_on_c, 12, 58, 0
14, 50520, Note_on_c, 12, 57, 52
14, 50571, Note_on_c, 12, 57, 0
14, 50580, Note_on_c, 12, 55, 52
14, 50631, Note_on_c, 12, 55, 0
14, 50640, Note_on_c, 12, 69, 76
14, 50640, Note_on_c, 12, 77, 76
14, 50759, Note_on_c, 12, 69, 0
14, 50759, Note_on_c, 12, 77, 0
14, 50880, Note_on_c, 12, 77, 76
14, 50880, Note_on_c, 12, 70, 76
14, 50999, Note_on_c, 12, 77, 0
14, 50999, Note_on_c, 12, 70, 0
14, 51120, Note_on_c, 12, 72, 76
14, 51120, Note_on_c, 12, 81, 76
14, 51239, Note_on_c, 12, 72, 0
14, 51239, Note_on_c, 12, 81, 0
14, 51360, Note_on_c, 12, 58, 44
14, 51411, Note_on_c, 12, 58, 0
14, 51420, Note_on_c, 12, 57, 44
14, 51471, Note_on_c, 12, 57, 0
14, 51480, Note_on_c, 12, 58, 44
14, 51531, Note_on_c, 12, 58, 0
14, 51540, Note_on_c, 12, 62, 44
14, 51591, Note_on_c, 12, 62, 0
14, 51600, Note_on_c, 12, 58, 44
14, 51651, Note_on_c, 12, 58, 0
14, 51660, Note_on_c, 12, 60, 44
14, 51711, Note_on_c, 12, 60, 0
14, 51720, Note_on_c, 12, 62, 44
14, 51771, Note_on_c, 12, 62, 0
14, 51780, Note_on_c, 12, 60, 44
14, 51831, Note_on_c, 12, 60, 0
14, 51840, Note_on_c, 12, 58, 44
14, 51891, Note_on_c, 12, 58, 0
14, 51900, Note_on_c, 12, 57, 44
14, 51951, Note_on_c, 12, 57, 0
14, 51960, Note_on_c, 12, 58, 44
14, 52011, Note_on_c, 12, 58, 0
14, 52020, Note_on_c, 12, 62, 44
14, 52071, Note_on_c, 12, 62, 0
14, 52080, Note_on_c, 12, 60, 44
14, 52131, Note_on_c, 12, 60, 0
14, 52140, Note_on_c, 12, 62, 44
14, 52191, Note_on_c, 12, 62, 0
14, 52200, Note_on_c, 12, 63, 44
14, 52251, Note_on_c, 12, 63, 0
14, 52260, Note_on_c, 12, 62, 44
14, 52311, Note_on_c, 12, 62, 0
14, 52320, Note_on_c, 12, 60, 44
14, 52371, Note_on_c, 12, 60, 0
14, 52380, Note_on_c, 12, 59, 44
14, 52431, Note_on_c, 12, 59, 0
14, 52440, Note_on_c, 12, 60, 44
14, 52491, Note_on_c, 12, 60, 0
14, 52500, Note_on_c, 12, 63, 44
14, 52551, Note_on_c, 12, 63, 0
14, 52560, Note_on_c, 12, 60, 44
14, 52611, Note_on_c, 12, 60, 0
14, 52620, Note_on_c, 12, 62, 44
14, 52671, Note_on_c, 12, 62, 0
14, 52680, Note_on_c, 12, 63, 44
14, 52731, Note_on_c, 12, 63, 0
14, 52740, Note_on_c, 12, 62, 44
14, 52791, Note_on_c, 12, 62, 0
14, 52800, Note_on_c, 12, 60, 44
14, 52851, Note_on_c, 12, 60, 0
14, 52860, Note_on_c, 12, 59, 44
14, 52911, Note_on_c, 12, 59, 0
14, 52920, Note_on_c, 12, 60, 44
14, 52971, Note_on_c, 12, 60, 0
14, 52980, Note_on_c, 12, 63, 44
14, 53031, Note_on_c, 12, 63, 0
14, 53040, Note_on_c, 12, 62, 44
14, 53091, Note_on_c, 12, 62, 0
14, 53100, Note_on_c, 12, 63, 44
14, 53151, Note_on_c, 12, 63, 0
14, 53160, Note_on_c, 12, 65, 44
14, 53211, Note_on_c, 12, 65, 0
14, 53220, Note_on_c, 12, 63, 44
14, 53271, Note_on_c, 12, 63, 0
14, 53280, Note_on_c, 12, 62, 44
14, 53331, Note_on_c, 12, 62, 0
14, 53340, Note_on_c, 12, 60, 44
14, 53391, Note_on_c, 12, 60, 0
14, 53400, Note_on_c, 12, 62, 44
14, 53451, Note_on_c, 12, 62, 0
14, 53460, Note_on_c, 12, 65, 44
14, 53511, Note_on_c, 12, 65, 0
14, 53520, Note_on_c, 12, 63, 44
14, 53571, Note_on_c, 12, 63, 0
14, 53580, Note_on_c, 12, 65, 44
14, 53631, Note_on_c, 12, 65, 0
14, 53640, Note_on_c, 12, 67, 44
14, 53691, Note_on_c, 12, 67, 0
14, 53700, Note_on_c, 12, 65, 44
14, 53751, Note_on_c, 12, 65, 0
14, 53760, Note_on_c, 12, 63, 44
14, 53811, Note_on_c, 12, 63, 0
14, 53820, Note_on_c, 12, 62, 44
14, 53871, Note_on_c, 12, 62, 0
14, 53880, Note_on_c, 12, 63, 44
14, 53931, Note_on_c, 12, 63, 0
14, 53940, Note_on_c, 12, 67, 44
14, 53991, Note_on_c, 12, 67, 0
14, 54000, Note_on_c, 12, 60, 44
14, 54051, Note_on_c, 12, 60, 0
14, 54060, Note_on_c, 12, 62, 44
14, 54111, Note_on_c, 12, 62, 0
14, 54120, Note_on_c, 12, 63, 44
14, 54171, Note_on_c, 12, 63, 0
14, 54180, Note_on_c, 12, 62, 44
14, 54231, Note_on_c, 12, 62, 0
14, 54240, Note_on_c, 12, 60, 44
14, 54291, Note_on_c, 12, 60, 0
14, 54300, Note_on_c, 12, 62, 44
14, 54351, Note_on_c, 12, 62, 0
14, 54360, Note_on_c, 12, 63, 44
14, 54411, Note_on_c, 12, 63, 0
14, 54420, Note_on_c, 12, 62, 44
14, 54471, Note_on_c, 12, 62, 0
14, 54480, Note_on_c, 12, 60, 44
14, 54531, Note_on_c, 12, 60, 0
14, 54540, Note_on_c, 12, 62, 44
14, 54591, Note_on_c, 12, 62, 0
14, 54600, Note_on_c, 12, 63, 44
14, 54651, Note_on_c, 12, 63, 0
14, 54660, Note_on_c, 12, 62, 44
14, 54711, Note_on_c, 12, 62, 0
14, 54720, Note_on_c, 12, 60, 44
14, 54779, Note_on_c, 12, 60, 0
14, 54780, Note_on_c, 12, 65, 44
14, 54839, Note_on_c, 12, 65, 0
14, 54840, Note_on_c, 12, 60, 44
14, 54899, Note_on_c, 12, 60, 0
14, 54900, Note_on_c, 12, 65, 44
14, 54959, Note_on_c, 12, 65, 0
14, 54960, Note_on_c, 12, 60, 44
14, 55019, Note_on_c, 12, 60, 0
14, 55020, Note_on_c, 12, 65, 44
14, 55079, Note_on_c, 12, 65, 0
14, 55080, Note_on_c, 12, 60, 44
14, 55139, Note_on_c, 12, 60, 0
14, 55140, Note_on_c, 12, 65, 44
14, 55191, Note_on_c, 12, 65, 0
14, 55200, Note_on_c, 12, 62, 44
14, 55259, Note_on_c, 12, 62, 0
14, 55260, Note_on_c, 12, 65, 44
14, 55319, Note_on_c, 12, 65, 0
14, 55320, Note_on_c, 12, 62, 44
14, 55379, Note_on_c, 12, 62, 0
14, 55380, Note_on_c, 12, 65, 44
14, 55439, Note_on_c, 12, 65, 0
14, 55440, Note_on_c, 12, 62, 44
14, 55499, Note_on_c, 12, 62, 0
14, 55500, Note_on_c, 12, 65, 44
14, 55559, Note_on_c, 12, 65, 0
14, 55560, Note_on_c, 12, 62, 44
14, 55619, Note_on_c, 12, 62, 0
14, 55620, Note_on_c, 12, 65, 44
14, 55671, Note_on_c, 12, 65, 0
14, 55680, Note_on_c, 12, 60, 44
14, 55739, Note_on_c, 12, 60, 0
14, 55740, Note_on_c, 12, 65, 44
14, 55799, Note_on_c, 12, 65, 0
14, 55800, Note_on_c, 12, 60, 44
14, 55859, Note_on_c, 12, 60, 0
14, 55860, Note_on_c, 12, 65, 44
14, 55919, Note_on_c, 12, 65, 0
14, 55920, Note_on_c, 12, 60, 44
14, 55979, Note_on_c, 12, 60, 0
14, 55980, Note_on_c, 12, 65, 44
14, 56039, Note_on_c, 12, 65, 0
14, 56040, Note_on_c, 12, 60, 44
14, 56099, Note_on_c, 12, 60, 0
14, 56100, Note_on_c, 12, 65, 44
14, 56151, Note_on_c, 12, 65, 0
14, 56160, Note_on_c, 12, 62, 44
14, 56219, Note_on_c, 12, 62, 0
14, 56220, Note_on_c, 12, 65, 44
14, 56279, Note_on_c, 12, 65, 0
14, 56280, Note_on_c, 12, 62, 44
14, 56339, Note_on_c, 12, 62, 0
14, 56340, Note_on_c, 12, 65, 44
14, 56399, Note_on_c, 12, 65, 0
14, 56400, Note_on_c, 12, 62, 44
14, 56459, Note_on_c, 12, 62, 0
14, 56460, Note_on_c, 12, 65, 44
14, 56519, Note_on_c, 12, 65, 0
14, 56520, Note_on_c, 12, 62, 44
14, 56579, Note_on_c, 12, 62, 0
14, 56580, Note_on_c, 12, 65, 44
14, 56631, Note_on_c, 12, 65, 0
14, 56640, Note_on_c, 12, 60, 44
14, 56699, Note_on_c, 12, 60, 0
14, 56700, Note_on_c, 12, 65, 44
14, 56759, Note_on_c, 12, 65, 0
14, 56760, Note_on_c, 12, 60, 44
14, 56819, Note_on_c, 12, 60, 0
14, 56820, Note_on_c, 12, 65, 44
14, 56879, Note_on_c, 12, 65, 0
14, 56880, Note_on_c, 12, 60, 44
14, 56939, Note_on_c, 12, 60, 0
14, 56940, Note_on_c, 12, 65, 44
14, 56999, Note_on_c, 12, 65, 0
14, 57000, Note_on_c, 12, 60, 44
14, 57059, Note_on_c, 12, 60, 0
14, 57060, Note_on_c, 12, 65, 44
14, 57111, Note_on_c, 12, 65, 0
14, 57120, Note_on_c, 12, 62, 44
14, 57179, Note_on_c, 12, 62, 0
14, 57180, Note_on_c, 12, 65, 44
14, 57239, Note_on_c, 12, 65, 0
14, 57240, Note_on_c, 12, 62, 44
14, 57299, Note_on_c, 12, 62, 0
14, 57300, Note_on_c, 12, 65, 44
14, 57359, Note_on_c, 12, 65, 0
14, 57360, Note_on_c, 12, 62, 44
14, 57419, Note_on_c, 12, 62, 0
14, 57420, Note_on_c, 12, 65, 44
14, 57479, Note_on_c, 12, 65, 0
14, 57480, Note_on_c, 12, 62, 44
14, 57539, Note_on_c, 12, 62, 0
14, 57540, Note_on_c, 12, 65, 44
14, 57591, Note_on_c, 12, 65, 0
14, 57600, Note_on_c, 12, 60, 44
14, 57659, Note_on_c, 12, 60, 0
14, 57660, Note_on_c, 12, 63, 44
14, 57719, Note_on_c, 12, 63, 0
14, 57720, Note_on_c, 12, 60, 44
14, 57779, Note_on_c, 12, 60, 0
14, 57780, Note_on_c, 12, 63, 44
14, 57839, Note_on_c, 12, 63, 0
14, 57840, Note_on_c, 12, 60, 44
14, 57899, Note_on_c, 12, 60, 0
14, 57900, Note_on_c, 12, 63, 44
14, 57959, Note_on_c, 12, 63, 0
14, 57960, Note_on_c, 12, 60, 44
14, 58019, Note_on_c, 12, 60, 0
14, 58020, Note_on_c, 12, 63, 44
14, 58071, Note_on_c, 12, 63, 0
14, 58080, Note_on_c, 12, 58, 44
14, 58131, Note_on_c, 12, 58, 0
14, 58140, Note_on_c, 12, 57, 44
14, 58191, Note_on_c, 12, 57, 0
14, 58200, Note_on_c, 12, 58, 44
14, 58251, Note_on_c, 12, 58, 0
14, 58260, Note_on_c, 12, 62, 44
14, 58311, Note_on_c, 12, 62, 0
14, 58320, Note_on_c, 12, 60, 44
14, 58371, Note_on_c, 12, 60, 0
14, 58380, Note_on_c, 12, 58, 44
14, 58431, Note_on_c, 12, 58, 0
14, 58440, Note_on_c, 12, 57, 44
14, 58491, Note_on_c, 12, 57, 0
14, 58500, Note_on_c, 12, 58, 44
14, 58551, Note_on_c, 12, 58, 0
14, 58560, Note_on_c, 12, 65, 44
14, 58679, Note_on_c, 12, 65, 0
14, 58800, Note_on_c, 12, 65, 64
14, 58919, Note_on_c, 12, 65, 0
14, 59040, Note_on_c, 12, 70, 84
14, 59091, Note_on_c, 12, 70, 0
14, 59100, Note_on_c, 12, 69, 84
14, 59151, Note_on_c, 12, 69, 0
14, 59160, Note_on_c, 12, 70, 84
14, 59211, Note_on_c, 12, 70, 0
14, 59220, Note_on_c, 12, 74, 84
14, 59271, Note_on_c, 12, 74, 0
14, 59280, Note_on_c, 12, 72, 84
14, 59331, Note_on_c, 12, 72, 0
14, 59340, Note_on_c, 12, 70, 84
14, 59391, Note_on_c, 12, 70, 0
14, 59400, Note_on_c, 12, 69, 84
14, 59451, Note_on_c, 12, 69, 0
14, 59460, Note_on_c, 12, 70, 84
14, 59511, Note_on_c, 12, 70, 0
14, 59520, Note_on_c, 12, 69, 84
14, 59571, Note_on_c, 12, 69, 0
14, 59580, Note_on_c, 12, 67, 84
14, 59631, Note_on_c, 12, 67, 0
14, 59640, Note_on_c, 12, 65, 84
14, 59691, Note_on_c, 12, 65, 0
14, 59700, Note_on_c, 12, 67, 84
14, 59751, Note_on_c, 12, 67, 0
14, 59760, Note_on_c, 12, 65, 84
14, 59811, Note_on_c, 12, 65, 0
14, 59820, Note_on_c, 12, 63, 84
14, 59871, Note_on_c, 12, 63, 0
14, 59880, Note_on_c, 12, 62, 84
14, 59931, Note_on_c, 12, 62, 0
14, 59940, Note_on_c, 12, 63, 84
14, 59991, Note_on_c, 12, 63, 0
14, 60000, Note_on_c, 12, 62, 84
14, 60051, Note_on_c, 12, 62, 0
14, 60060, Note_on_c, 12, 60, 84
14, 60111, Note_on_c, 12, 60, 0
14, 60120, Note_on_c, 12, 58, 84
14, 60171, Note_on_c, 12, 58, 0
14, 60180, Note_on_c, 12, 60, 84
14, 60231, Note_on_c, 12, 60, 0
14, 60240, Note_on_c, 12, 58, 84
14, 60291, Note_on_c, 12, 58, 0
14, 60300, Note_on_c, 12, 69, 84
14, 60351, Note_on_c, 12, 69, 0
14, 60360, Note_on_c, 12, 67, 84
14, 60411, Note_on_c, 12, 67, 0
14, 60420, Note_on_c, 12, 69, 84
14, 60471, Note_on_c, 12, 69, 0
14, 60480, Note_on_c, 12, 67, 84
14, 60531, Note_on_c, 12, 67, 0
14, 60540, Note_on_c, 12, 65, 84
14, 60591, Note_on_c, 12, 65, 0
14, 60600, Note_on_c, 12, 63, 84
14, 60651, Note_on_c, 12, 63, 0
14, 60660, Note_on_c, 12, 62, 84
14, 60711, Note_on_c, 12, 62, 0
14, 60720, Note_on_c, 12, 60, 84
14, 60824, Note_on_c, 12, 60, 0
14, 60840, Note_on_c, 12, 65, 84
14, 60944, Note_on_c, 12, 65, 0
14, 60960, Note_on_c, 12, 58, 84
14, 61011, Note_on_c, 12, 58, 0
14, 61020, Note_on_c, 12, 62, 84
14, 61071, Note_on_c, 12, 62, 0
14, 61080, Note_on_c, 12, 65, 84
14, 61131, Note_on_c, 12, 65, 0
14, 61140, Note_on_c, 12, 70, 84
14, 61191, Note_on_c, 12, 70, 0
14, 61200, Note_on_c, 12, 62, 84
14, 61251, Note_on_c, 12, 62, 0
14, 61260, Note_on_c, 12, 65, 84
14, 61311, Note_on_c, 12, 65, 0
14, 61320, Note_on_c, 12, 70, 84
14, 61371, Note_on_c, 12, 70, 0
14, 61380, Note_on_c, 12, 70, 84
14, 61431, Note_on_c, 12, 70, 0
14, 61440, Note_on_c, 12, 70, 84
14, 61784, Note_on_c, 12, 70, 0
14, 61800, Note_on_c, 12, 77, 84
14, 61904, Note_on_c, 12, 77, 0
14, 61920, Note_on_c, 12, 69, 84
14, 62024, Note_on_c, 12, 69, 0
14, 62040, Note_on_c, 12, 75, 84
14, 62144, Note_on_c, 12, 75, 0
14, 62160, Note_on_c, 12, 69, 84
14, 62264, Note_on_c, 12, 69, 0
14, 62280, Note_on_c, 12, 72, 84
14, 62384, Note_on_c, 12, 72, 0
14, 62400, Note_on_c, 12, 63, 84
14, 62504, Note_on_c, 12, 63, 0
14, 62520, Note_on_c, 12, 67, 84
14, 62624, Note_on_c, 12, 67, 0
14, 62640, Note_on_c, 12, 60, 84
14, 62744, Note_on_c, 12, 60, 0
14, 62760, Note_on_c, 12, 65, 84
14, 62864, Note_on_c, 12, 65, 0
14, 62880, Note_on_c, 12, 58, 84
14, 62931, Note_on_c, 12, 58, 0
14, 62940, Note_on_c, 12, 62, 84
14, 62991, Note_on_c, 12, 62, 0
14, 63000, Note_on_c, 12, 65, 84
14, 63051, Note_on_c, 12, 65, 0
14, 63060, Note_on_c, 12, 70, 84
14, 63111, Note_on_c, 12, 70, 0
14, 63120, Note_on_c, 12, 62, 84
14, 63171, Note_on_c, 12, 62, 0
14, 63180, Note_on_c, 12, 67, 84
14, 63231, Note_on_c, 12, 67, 0
14, 63240, Note_on_c, 12, 70, 84
14, 63291, Note_on_c, 12, 70, 0
14, 63300, Note_on_c, 12, 70, 84
14, 63351, Note_on_c, 12, 70, 0
14, 63360, Note_on_c, 12, 70, 84
14, 63411, Note_on_c, 12, 70, 0
14, 63420, Note_on_c, 12, 79, 84
14, 63471, Note_on_c, 12, 79, 0
14, 63480, Note_on_c, 12, 79, 84
14, 63531, Note_on_c, 12, 79, 0
14, 63540, Note_on_c, 12, 79, 84
14, 63591, Note_on_c, 12, 79, 0
14, 63600, Note_on_c, 12, 79, 84
14, 63651, Note_on_c, 12, 79, 0
14, 63660, Note_on_c, 12, 79, 84
14, 63711, Note_on_c, 12, 79, 0
14, 63720, Note_on_c, 12, 79, 84
14, 63771, Note_on_c, 12, 79, 0
14, 63780, Note_on_c, 12, 79, 84
14, 63831, Note_on_c, 12, 79, 0
14, 63840, Note_on_c, 12, 77, 84
14, 63891, Note_on_c, 12, 77, 0
14, 63900, Note_on_c, 12, 69, 84
14, 63951, Note_on_c, 12, 69, 0
14, 63960, Note_on_c, 12, 72, 84
14, 64011, Note_on_c, 12, 72, 0
14, 64020, Note_on_c, 12, 72, 84
14, 64071, Note_on_c, 12, 72, 0
14, 64080, Note_on_c, 12, 65, 84
14, 64131, Note_on_c, 12, 65, 0
14, 64140, Note_on_c, 12, 65, 84
14, 64191, Note_on_c, 12, 65, 0
14, 64200, Note_on_c, 12, 69, 84
14, 64251, Note_on_c, 12, 69, 0
14, 64260, Note_on_c, 12, 69, 84
14, 64311, Note_on_c, 12, 69, 0
14, 64320, Note_on_c, 12, 62, 84
14, 64371, Note_on_c, 12, 62, 0
14, 64380, Note_on_c, 12, 62, 84
14, 64431, Note_on_c, 12, 62, 0
14, 64440, Note_on_c, 12, 65, 84
14, 64491, Note_on_c, 12, 65, 0
14, 64500, Note_on_c, 12, 65, 84
14, 64551, Note_on_c, 12, 65, 0
14, 64560, Note_on_c, 12, 57, 84
14, 64611, Note_on_c, 12, 57, 0
14, 64620, Note_on_c, 12, 57, 84
14, 64671, Note_on_c, 12, 57, 0
14, 64680, Note_on_c, 12, 59, 84
14, 64731, Note_on_c, 12, 59, 0
14, 64740, Note_on_c, 12, 59, 84
14, 64791, Note_on_c, 12, 59, 0
14, 64800, Note_on_c, 12, 60, 84
14, 64851, Note_on_c, 12, 60, 0
14, 64860, Note_on_c, 12, 60, 84
14, 64911, Note_on_c, 12, 60, 0
14, 64920, Note_on_c, 12, 64, 84
14, 64971, Note_on_c, 12, 64, 0
14, 64980, Note_on_c, 12, 64, 84
14, 65031, Note_on_c, 12, 64, 0
14, 65040, Note_on_c, 12, 67, 84
14, 65091, Note_on_c, 12, 67, 0
14, 65100, Note_on_c, 12, 67, 84
14, 65151, Note_on_c, 12, 67, 0
14, 65160, Note_on_c, 12, 69, 84
14, 65211, Note_on_c, 12, 69, 0
14, 65220, Note_on_c, 12, 69, 84
14, 65271, Note_on_c, 12, 69, 0
14, 65280, Note_on_c, 12, 70, 84
14, 65331, Note_on_c, 12, 70, 0
14, 65340, Note_on_c, 12, 70, 84
14, 65340, Note_on_c, 12, 76, 84
14, 65391, Note_on_c, 12, 70, 0
14, 65391, Note_on_c, 12, 76, 0
14, 65400, Note_on_c, 12, 76, 84
14, 65400, Note_on_c, 12, 70, 84
14, 65451, Note_on_c, 12, 76, 0
14, 65451, Note_on_c, 12, 70, 0
14, 65460, Note_on_c, 12, 76, 84
14, 65460, Note_on_c, 12, 70, 84
14, 65511, Note_on_c, 12, 76, 0
14, 65511, Note_on_c, 12, 70, 0
14, 65520, Note_on_c, 12, 76, 84
14, 65520, Note_on_c, 12, 70, 84
14, 65571, Note_on_c, 12, 76, 0
14, 65571, Note_on_c, 12, 70, 0
14, 65580, Note_on_c, 12, 70, 84
14, 65580, Note_on_c, 12, 76, 84
14, 65631, Note_on_c, 12, 70, 0
14, 65631, Note_on_c, 12, 76, 0
14, 65640, Note_on_c, 12, 76, 84
14, 65640, Note_on_c, 12, 70, 84
14, 65691, Note_on_c, 12, 76, 0
14, 65691, Note_on_c, 12, 70, 0
14, 65700, Note_on_c, 12, 76, 84
14, 65700, Note_on_c, 12, 70, 84
14, 65751, Note_on_c, 12, 76, 0
14, 65751, Note_on_c, 12, 70, 0
14, 65760, Note_on_c, 12, 70, 84
14, 65760, Note_on_c, 12, 76, 84
14, 65811, Note_on_c, 12, 70, 0
14, 65811, Note_on_c, 12, 76, 0
14, 65820, Note_on_c, 12, 70, 84
14, 65820, Note_on_c, 12, 76, 84
14, 65871, Note_on_c, 12, 70, 0
14, 65871, Note_on_c, 12, 76, 0
14, 65880, Note_on_c, 12, 70, 84
14, 65880, Note_on_c, 12, 76, 84
14, 65931, Note_on_c, 12, 70, 0
14, 65931, Note_on_c, 12, 76, 0
14, 65940, Note_on_c, 12, 70, 84
14, 65940, Note_on_c, 12, 76, 84
14, 65991, Note_on_c, 12, 70, 0
14, 65991, Note_on_c, 12, 76, 0
14, 66000, Note_on_c, 12, 70, 84
14, 66000, Note_on_c, 12, 76, 84
14, 66051, Note_on_c, 12, 70, 0
14, 66051, Note_on_c, 12, 76, 0
14, 66060, Note_on_c, 12, 76, 84
14, 66060, Note_on_c, 12, 70, 84
14, 66111, Note_on_c, 12, 76, 0
14, 66111, Note_on_c, 12, 70, 0
14, 66120, Note_on_c, 12, 70, 84
14, 66120, Note_on_c, 12, 76, 84
14, 66171, Note_on_c, 12, 70, 0
14, 66171, Note_on_c, 12, 76, 0
14, 66180, Note_on_c, 12, 70, 84
14, 66180, Note_on_c, 12, 76, 84
14, 66231, Note_on_c, 12, 70, 0
14, 66231, Note_on_c, 12, 76, 0
14, 66240, Note_on_c, 12, 76, 84
14, 66240, Note_on_c, 12, 70, 84
14, 66359, Note_on_c, 12, 76, 0
14, 66359, Note_on_c, 12, 70, 0
14, 66720, Note_on_c, 12, 65, 52
14, 67199, Note_on_c, 12, 65, 0
14, 67200, Note_on_c, 12, 64, 52
14, 67679, Note_on_c, 12, 64, 0
14, 67680, Note_on_c, 12, 65, 52
14, 68159, Note_on_c, 12, 65, 0
14, 68160, Note_on_c, 12, 64, 52
14, 68624, Note_on_c, 12, 64, 0
14, 68640, Note_on_c, 12, 62, 52
14, 68984, Note_on_c, 12, 62, 0
14, 69000, Note_on_c, 12, 62, 52
14, 69104, Note_on_c, 12, 62, 0
14, 69120, Note_on_c, 12, 64, 52
14, 69239, Note_on_c, 12, 64, 0
14, 69360, Note_on_c, 12, 64, 52
14, 69479, Note_on_c, 12, 64, 0
14, 69600, Note_on_c, 12, 64, 52
14, 69719, Note_on_c, 12, 64, 0
14, 69840, Note_on_c, 12, 65, 52
14, 69959, Note_on_c, 12, 65, 0
14, 70080, Note_on_c, 12, 64, 52
14, 70169, Note_on_c, 12, 64, 0
14, 70200, Note_on_c, 12, 60, 52
14, 70319, Note_on_c, 12, 60, 0
14, 70320, Note_on_c, 12, 58, 52
14, 70439, Note_on_c, 12, 58, 0
14, 70440, Note_on_c, 12, 55, 52
14, 70544, Note_on_c, 12, 55, 0
14, 70560, Note_on_c, 12, 57, 52
14, 70679, Note_on_c, 12, 57, 0
14, 70680, Note_on_c, 12, 58, 52
14, 70799, Note_on_c, 12, 58, 0
14, 70800, Note_on_c, 12, 59, 52
14, 70919, Note_on_c, 12, 59, 0
14, 70920, Note_on_c, 12, 60, 52
14, 71144, Note_on_c, 12, 60, 0
14, 71160, Note_on_c, 12, 60, 52
14, 71384, Note_on_c, 12, 60, 0
14, 71400, Note_on_c, 12, 64, 52
14, 71624, Note_on_c, 12, 64, 0
14, 71640, Note_on_c, 12, 65, 52
14, 71864, Note_on_c, 12, 65, 0
14, 71880, Note_on_c, 12, 69, 52
14, 72104, Note_on_c, 12, 69, 0
14, 72120, Note_on_c, 12, 72, 52
14, 72344, Note_on_c, 12, 72, 0
14, 72360, Note_on_c, 12, 64, 52
14, 72464, Note_on_c, 12, 64, 0
14, 72480, Note_on_c, 12, 67, 52
14, 72839, Note_on_c, 12, 67, 0
14, 72840, Note_on_c, 12, 65, 52
14, 72944, Note_on_c, 12, 65, 0
14, 72960, Note_on_c, 12, 64, 52
14, 73079, Note_on_c, 12, 64, 0
14, 73080, Note_on_c, 12, 67, 52
14, 73184, Note_on_c, 12, 67, 0
14, 73200, Note_on_c, 12, 60, 52
14, 73319, Note_on_c, 12, 60, 0
14, 73320, Note_on_c, 12, 64, 52
14, 73424, Note_on_c, 12, 64, 0
14, 73440, Note_on_c, 12, 55, 52
14, 73559, Note_on_c, 12, 55, 0
14, 73560, Note_on_c, 12, 60, 52
14, 73664, Note_on_c, 12, 60, 0
14, 73680, Note_on_c, 12, 59, 52
14, 73799, Note_on_c, 12, 59, 0
14, 73800, Note_on_c, 12, 62, 52
14, 73904, Note_on_c, 12, 62, 0
14, 73920, Note_on_c, 12, 60, 52
14, 74039, Note_on_c, 12, 60, 0
14, 75240, Note_on_c, 12, 69, 76
14, 75344, Note_on_c, 12, 69, 0
14, 75360, Note_on_c, 12, 67, 76
14, 75479, Note_on_c, 12, 67, 0
14, 75480, Note_on_c, 12, 65, 76
14, 75584, Note_on_c, 12, 65, 0
14, 75600, Note_on_c, 12, 67, 76
14, 75689, Note_on_c, 12, 67, 0
14, 75720, Note_on_c, 12, 69, 76
14, 75809, Note_on_c, 12, 69, 0
14, 75840, Note_on_c, 12, 70, 76
14, 75959, Note_on_c, 12, 70, 0
14, 77160, Note_on_c, 12, 69, 76
14, 77264, Note_on_c, 12, 69, 0
14, 77280, Note_on_c, 12, 67, 76
14, 77399, Note_on_c, 12, 67, 0
14, 77400, Note_on_c, 12, 65, 76
14, 77504, Note_on_c, 12, 65, 0
14, 77520, Note_on_c, 12, 67, 76
14, 77609, Note_on_c, 12, 67, 0
14, 77640, Note_on_c, 12, 69, 76
14, 77729, Note_on_c, 12, 69, 0
14, 77760, Note_on_c, 12, 70, 76
14, 77864, Note_on_c, 12, 70, 0
14, 77880, Note_on_c, 12, 70, 76
14, 77999, Note_on_c, 12, 70, 0
14, 78120, Note_on_c, 12, 69, 76
14, 78171, Note_on_c, 12, 69, 0
14, 78180, Note_on_c, 12, 69, 76
14, 78231, Note_on_c, 12, 69, 0
14, 78240, Note_on_c, 12, 67, 76
14, 78291, Note_on_c, 12, 67, 0
14, 78300, Note_on_c, 12, 67, 76
14, 78351, Note_on_c, 12, 67, 0
14, 78360, Note_on_c, 12, 65, 76
14, 78411, Note_on_c, 12, 65, 0
14, 78420, Note_on_c, 12, 65, 76
14, 78471, Note_on_c, 12, 65, 0
14, 78480, Note_on_c, 12, 67, 76
14, 78531, Note_on_c, 12, 67, 0
14, 78540, Note_on_c, 12, 67, 76
14, 78591, Note_on_c, 12, 67, 0
14, 78600, Note_on_c, 12, 69, 76
14, 78651, Note_on_c, 12, 69, 0
14, 78660, Note_on_c, 12, 69, 76
14, 78711, Note_on_c, 12, 69, 0
14, 78720, Note_on_c, 12, 70, 76
14, 78824, Note_on_c, 12, 70, 0
14, 78840, Note_on_c, 12, 70, 76
14, 78959, Note_on_c, 12, 70, 0
14, 79080, Note_on_c, 12, 72, 76
14, 79131, Note_on_c, 12, 72, 0
14, 79140, Note_on_c, 12, 72, 76
14, 79191, Note_on_c, 12, 72, 0
14, 79200, Note_on_c, 12, 74, 76
14, 79251, Note_on_c, 12, 74, 0
14, 79260, Note_on_c, 12, 74, 76
14, 79311, Note_on_c, 12, 74, 0
14, 79320, Note_on_c, 12, 72, 76
14, 79371, Note_on_c, 12, 72, 0
14, 79380, Note_on_c, 12, 72, 76
14, 79431, Note_on_c, 12, 72, 0
14, 79440, Note_on_c, 12, 74, 76
14, 79491, Note_on_c, 12, 74, 0
14, 79500, Note_on_c, 12, 74, 76
14, 79551, Note_on_c, 12, 74, 0
14, 79560, Note_on_c, 12, 76, 76
14, 79611, Note_on_c, 12, 76, 0
14, 79620, Note_on_c, 12, 76, 76
14, 79671, Note_on_c, 12, 76, 0
14, 79680, Note_on_c, 12, 77, 84
14, 79731, Note_on_c, 12, 77, 0
14, 79740, Note_on_c, 12, 68, 84
14, 79791, Note_on_c, 12, 68, 0
14, 79800, Note_on_c, 12, 68, 84
14, 79851, Note_on_c, 12, 68, 0
14, 79860, Note_on_c, 12, 68, 84
14, 79911, Note_on_c, 12, 68, 0
14, 79920, Note_on_c, 12, 68, 84
14, 79971, Note_on_c, 12, 68, 0
14, 79980, Note_on_c, 12, 68, 84
14, 80031, Note_on_c, 12, 68, 0
14, 80040, Note_on_c, 12, 68, 84
14, 80091, Note_on_c, 12, 68, 0
14, 80100, Note_on_c, 12, 68, 84
14, 80151, Note_on_c, 12, 68, 0
14, 80160, Note_on_c, 12, 68, 84
14, 80211, Note_on_c, 12, 68, 0
14, 80220, Note_on_c, 12, 68, 84
14, 80271, Note_on_c, 12, 68, 0
14, 80280, Note_on_c, 12, 68, 84
14, 80331, Note_on_c, 12, 68, 0
14, 80340, Note_on_c, 12, 68, 84
14, 80391, Note_on_c, 12, 68, 0
14, 80400, Note_on_c, 12, 68, 84
14, 80451, Note_on_c, 12, 68, 0
14, 80460, Note_on_c, 12, 68, 84
14, 80511, Note_on_c, 12, 68, 0
14, 80520, Note_on_c, 12, 68, 84
14, 80571, Note_on_c, 12, 68, 0
14, 80580, Note_on_c, 12, 68, 84
14, 80631, Note_on_c, 12, 68, 0
14, 80640, Note_on_c, 12, 68, 92
14, 80640, Note_on_c, 12, 59, 92
14, 81089, Note_on_c, 12, 68, 0
14, 81089, Note_on_c, 12, 59, 0
14, 81120, Note_on_c, 12, 59, 92
14, 81120, Note_on_c, 12, 68, 92
14, 81569, Note_on_c, 12, 59, 0
14, 81569, Note_on_c, 12, 68, 0
14, 81600, Note_on_c, 12, 68, 92
14, 81600, Note_on_c, 12, 59, 92
14, 82049, Note_on_c, 12, 68, 0
14, 82049, Note_on_c, 12, 59, 0
14, 82080, Note_on_c, 12, 59, 92
14, 82080, Note_on_c, 12, 68, 92
14, 82529, Note_on_c, 12, 59, 0
14, 82529, Note_on_c, 12, 68, 0
14, 82560, Note_on_c, 12, 70, 52
14, 82611, Note_on_c, 12, 70, 0
14, 82620, Note_on_c, 12, 70, 52
14, 82671, Note_on_c, 12, 70, 0
14, 82680, Note_on_c, 12, 72, 52
14, 82731, Note_on_c, 12, 72, 0
14, 82740, Note_on_c, 12, 72, 52
14, 82791, Note_on_c, 12, 72, 0
14, 82800, Note_on_c, 12, 70, 52
14, 82851, Note_on_c, 12, 70, 0
14, 82860, Note_on_c, 12, 70, 52
14, 82911, Note_on_c, 12, 70, 0
14, 82920, Note_on_c, 12, 72, 52
14, 82971, Note_on_c, 12, 72, 0
14, 82980, Note_on_c, 12, 72, 52
14, 83031, Note_on_c, 12, 72, 0
14, 83040, Note_on_c, 12, 70, 52
14, 83091, Note_on_c, 12, 70, 0
14, 83100, Note_on_c, 12, 70, 52
14, 83151, Note_on_c, 12, 70, 0
14, 83160, Note_on_c, 12, 72, 52
14, 83211, Note_on_c, 12, 72, 0
14, 83220, Note_on_c, 12, 72, 52
14, 83271, Note_on_c, 12, 72, 0
14, 83280, Note_on_c, 12, 69, 52
14, 83331, Note_on_c, 12, 69, 0
14, 83340, Note_on_c, 12, 69, 52
14, 83391, Note_on_c, 12, 69, 0
14, 83400, Note_on_c, 12, 72, 52
14, 83451, Note_on_c, 12, 72, 0
14, 83460, Note_on_c, 12, 72, 52
14, 83511, Note_on_c, 12, 72, 0
14, 83520, Note_on_c, 12, 70, 52
14, 83571, Note_on_c, 12, 70, 0
14, 83580, Note_on_c, 12, 70, 52
14, 83631, Note_on_c, 12, 70, 0
14, 83640, Note_on_c, 12, 74, 52
14, 83691, Note_on_c, 12, 74, 0
14, 83700, Note_on_c, 12, 74, 52
14, 83751, Note_on_c, 12, 74, 0
14, 83760, Note_on_c, 12, 67, 52
14, 83811, Note_on_c, 12, 67, 0
14, 83820, Note_on_c, 12, 67, 52
14, 83871, Note_on_c, 12, 67, 0
14, 83880, Note_on_c, 12, 74, 52
14, 83931, Note_on_c, 12, 74, 0
14, 83940, Note_on_c, 12, 74, 52
14, 83991, Note_on_c, 12, 74, 0
14, 84000, Note_on_c, 12, 69, 52
14, 84051, Note_on_c, 12, 69, 0
14, 84060, Note_on_c, 12, 69, 52
14, 84111, Note_on_c, 12, 69, 0
14, 84120, Note_on_c, 12, 72, 52
14, 84171, Note_on_c, 12, 72, 0
14, 84180, Note_on_c, 12, 72, 52
14, 84231, Note_on_c, 12, 72, 0
14, 84240, Note_on_c, 12, 70, 52
14, 84291, Note_on_c, 12, 70, 0
14, 84300, Note_on_c, 12, 70, 52
14, 84351, Note_on_c, 12, 70, 0
14, 84360, Note_on_c, 12, 72, 52
14, 84411, Note_on_c, 12, 72, 0
14, 84420, Note_on_c, 12, 72, 52
14, 84471, Note_on_c, 12, 72, 0
14, 84480, Note_on_c, 12, 59, 84
14, 84480, Note_on_c, 12, 68, 84
14, 84944, Note_on_c, 12, 59, 0
14, 84944, Note_on_c, 12, 68, 0
14, 84960, Note_on_c, 12, 59, 92
14, 84960, Note_on_c, 12, 68, 92
14, 85409, Note_on_c, 12, 59, 0
14, 85409, Note_on_c, 12, 68, 0
14, 85440, Note_on_c, 12, 59, 92
14, 85440, Note_on_c, 12, 68, 92
14, 85889, Note_on_c, 12, 59, 0
14, 85889, Note_on_c, 12, 68, 0
14, 85920, Note_on_c, 12, 59, 92
14, 85920, Note_on_c, 12, 68, 92
14, 86369, Note_on_c, 12, 59, 0
14, 86369, Note_on_c, 12, 68, 0
14, 86400, Note_on_c, 12, 72, 52
14, 86451, Note_on_c, 12, 72, 0
14, 86460, Note_on_c, 12, 72, 52
14, 86511, Note_on_c, 12, 72, 0
14, 86520, Note_on_c, 12, 74, 52
14, 86571, Note_on_c, 12, 74, 0
14, 86580, Note_on_c, 12, 74, 52
14, 86631, Note_on_c, 12, 74, 0
14, 86640, Note_on_c, 12, 72, 52
14, 86691, Note_on_c, 12, 72, 0
14, 86700, Note_on_c, 12, 72, 52
14, 86751, Note_on_c, 12, 72, 0
14, 86760, Note_on_c, 12, 74, 52
14, 86811, Note_on_c, 12, 74, 0
14, 86820, Note_on_c, 12, 74, 52
14, 86871, Note_on_c, 12, 74, 0
14, 86880, Note_on_c, 12, 72, 52
14, 86931, Note_on_c, 12, 72, 0
14, 86940, Note_on_c, 12, 72, 52
14, 86991, Note_on_c, 12, 72, 0
14, 87000, Note_on_c, 12, 74, 52
14, 87051, Note_on_c, 12, 74, 0
14, 87060, Note_on_c, 12, 74, 52
14, 87111, Note_on_c, 12, 74, 0
14, 87120, Note_on_c, 12, 70, 52
14, 87171, Note_on_c, 12, 70, 0
14, 87180, Note_on_c, 12, 70, 52
14, 87231, Note_on_c, 12, 70, 0
14, 87240, Note_on_c, 12, 74, 52
14, 87291, Note_on_c, 12, 74, 0
14, 87300, Note_on_c, 12, 74, 52
14, 87351, Note_on_c, 12, 74, 0
14, 87360, Note_on_c, 12, 67, 52
14, 87411, Note_on_c, 12, 67, 0
14, 87420, Note_on_c, 12, 67, 52
14, 87471, Note_on_c, 12, 67, 0
14, 87480, Note_on_c, 12, 72, 52
14, 87531, Note_on_c, 12, 72, 0
14, 87540, Note_on_c, 12, 72, 52
14, 87591, Note_on_c, 12, 72, 0
14, 87600, Note_on_c, 12, 67, 52
14, 87651, Note_on_c, 12, 67, 0
14, 87660, Note_on_c, 12, 67, 52
14, 87711, Note_on_c, 12, 67, 0
14, 87720, Note_on_c, 12, 72, 52
14, 87771, Note_on_c, 12, 72, 0
14, 87780, Note_on_c, 12, 72, 52
14, 87831, Note_on_c, 12, 72, 0
14, 87840, Note_on_c, 12, 67, 52
14, 87891, Note_on_c, 12, 67, 0
14, 87900, Note_on_c, 12, 67, 52
14, 87951, Note_on_c, 12, 67, 0
14, 87960, Note_on_c, 12, 72, 52
14, 88011, Note_on_c, 12, 72, 0
14, 88020, Note_on_c, 12, 72, 52
14, 88071, Note_on_c, 12, 72, 0
14, 88080, Note_on_c, 12, 67, 52
14, 88131, Note_on_c, 12, 67, 0
14, 88140, Note_on_c, 12, 67, 52
14, 88191, Note_on_c, 12, 67, 0
14, 88200, Note_on_c, 12, 72, 52
14, 88251, Note_on_c, 12, 72, 0
14, 88260, Note_on_c, 12, 72, 52
14, 88311, Note_on_c, 12, 72, 0
14, 88320, Note_on_c, 12, 69, 52
14, 88371, Note_on_c, 12, 69, 0
14, 88380, Note_on_c, 12, 69, 53
14, 88431, Note_on_c, 12, 69, 0
14, 88440, Note_on_c, 12, 72, 54
14, 88491, Note_on_c, 12, 72, 0
14, 88500, Note_on_c, 12, 72, 55
14, 88551, Note_on_c, 12, 72, 0
14, 88560, Note_on_c, 12, 69, 56
14, 88611, Note_on_c, 12, 69, 0
14, 88620, Note_on_c, 12, 69, 57
14, 88671, Note_on_c, 12, 69, 0
14, 88680, Note_on_c, 12, 74, 58
14, 88731, Note_on_c, 12, 74, 0
14, 88740, Note_on_c, 12, 74, 59
14, 88791, Note_on_c, 12, 74, 0
14, 88800, Note_on_c, 12, 67, 60
14, 88851, Note_on_c, 12, 67, 0
14, 88860, Note_on_c, 12, 67, 61
14, 88911, Note_on_c, 12, 67, 0
14, 88920, Note_on_c, 12, 74, 62
14, 88971, Note_on_c, 12, 74, 0
14, 88980, Note_on_c, 12, 74, 63
14, 89031, Note_on_c, 12, 74, 0
14, 89040, Note_on_c, 12, 67, 64
14, 89091, Note_on_c, 12, 67, 0
14, 89100, Note_on_c, 12, 67, 65
14, 89151, Note_on_c, 12, 67, 0
14, 89160, Note_on_c, 12, 72, 66
14, 89211, Note_on_c, 12, 72, 0
14, 89220, Note_on_c, 12, 72, 67
14, 89271, Note_on_c, 12, 72, 0
14, 89280, Note_on_c, 12, 69, 68
14, 89331, Note_on_c, 12, 69, 0
14, 89340, Note_on_c, 12, 69, 69
14, 89391, Note_on_c, 12, 69, 0
14, 89400, Note_on_c, 12, 72, 70
14, 89451, Note_on_c, 12, 72, 0
14, 89460, Note_on_c, 12, 72, 71
14, 89511, Note_on_c, 12, 72, 0
14, 89520, Note_on_c, 12, 69, 72
14, 89571, Note_on_c, 12, 69, 0
14, 89580, Note_on_c, 12, 69, 73
14, 89631, Note_on_c, 12, 69, 0
14, 89640, Note_on_c, 12, 74, 74
14, 89691, Note_on_c, 12, 74, 0
14, 89700, Note_on_c, 12, 74, 75
14, 89751, Note_on_c, 12, 74, 0
14, 89760, Note_on_c, 12, 67, 76
14, 89811, Note_on_c, 12, 67, 0
14, 89820, Note_on_c, 12, 67, 77
14, 89871, Note_on_c, 12, 67, 0
14, 89880, Note_on_c, 12, 74, 78
14, 89931, Note_on_c, 12, 74, 0
14, 89940, Note_on_c, 12, 74, 79
14, 89991, Note_on_c, 12, 74, 0
14, 90000, Note_on_c, 12, 67, 80
14, 90051, Note_on_c, 12, 67, 0
14, 90060, Note_on_c, 12, 67, 81
14, 90111, Note_on_c, 12, 67, 0
14, 90120, Note_on_c, 12, 72, 82
14, 90171, Note_on_c, 12, 72, 0
14, 90180, Note_on_c, 12, 72, 83
14, 90231, Note_on_c, 12, 72, 0
14, 90240, Note_on_c, 12, 69, 84
14, 90291, Note_on_c, 12, 69, 0
14, 90300, Note_on_c, 12, 69, 84
14, 90351, Note_on_c, 12, 69, 0
14, 90360, Note_on_c, 12, 69, 84
14, 90411, Note_on_c, 12, 69, 0
14, 90420, Note_on_c, 12, 69, 84
14, 90471, Note_on_c, 12, 69, 0
14, 90480, Note_on_c, 12, 69, 84
14, 90531, Note_on_c, 12, 69, 0
14, 90540, Note_on_c, 12, 69, 84
14, 90591, Note_on_c, 12, 69, 0
14, 90600, Note_on_c, 12, 69, 84
14, 90651, Note_on_c, 12, 69, 0
14, 90660, Note_on_c, 12, 69, 84
14, 90711, Note_on_c, 12, 69, 0
14, 90720, Note_on_c, 12, 74, 84
14, 90720, Note_on_c, 12, 65, 84
14, 90771, Note_on_c, 12, 74, 0
14, 90771, Note_on_c, 12, 65, 0
14, 90780, Note_on_c, 12, 74, 84
14, 90780, Note_on_c, 12, 65, 84
14, 90831, Note_on_c, 12, 74, 0
14, 90831, Note_on_c, 12, 65, 0
14, 90840, Note_on_c, 12, 74, 84
14, 90840, Note_on_c, 12, 65, 84
14, 90891, Note_on_c, 12, 74, 0
14, 90891, Note_on_c, 12, 65, 0
14, 90900, Note_on_c, 12, 65, 84
14, 90900, Note_on_c, 12, 74, 84
14, 90951, Note_on_c, 12, 65, 0
14, 90951, Note_on_c, 12, 74, 0
14, 90960, Note_on_c, 12, 64, 84
14, 90960, Note_on_c, 12, 72, 84
14, 91011, Note_on_c, 12, 64, 0
14, 91011, Note_on_c, 12, 72, 0
14, 91020, Note_on_c, 12, 64, 84
14, 91020, Note_on_c, 12, 72, 84
14, 91071, Note_on_c, 12, 64, 0
14, 91071, Note_on_c, 12, 72, 0
14, 91080, Note_on_c, 12, 72, 84
14, 91080, Note_on_c, 12, 64, 84
14, 91131, Note_on_c, 12, 72, 0
14, 91131, Note_on_c, 12, 64, 0
14, 91140, Note_on_c, 12, 64, 84
14, 91140, Note_on_c, 12, 72, 84
14, 91191, Note_on_c, 12, 64, 0
14, 91191, Note_on_c, 12, 72, 0
14, 91200, Note_on_c, 12, 65, 84
14, 91251, Note_on_c, 12, 65, 0
14, 91260, Note_on_c, 12, 64, 84
14, 91311, Note_on_c, 12, 64, 0
14, 91320, Note_on_c, 12, 65, 84
14, 91371, Note_on_c, 12, 65, 0
14, 91380, Note_on_c, 12, 69, 84
14, 91431, Note_on_c, 12, 69, 0
14, 91440, Note_on_c, 12, 62, 84
14, 91491, Note_on_c, 12, 62, 0
14, 91500, Note_on_c, 12, 64, 84
14, 91551, Note_on_c, 12, 64, 0
14, 91560, Note_on_c, 12, 65, 84
14, 91611, Note_on_c, 12, 65, 0
14, 91620, Note_on_c, 12, 67, 84
14, 91671, Note_on_c, 12, 67, 0
14, 91680, Note_on_c, 12, 60, 84
14, 91731, Note_on_c, 12, 60, 0
14, 91740, Note_on_c, 12, 62, 84
14, 91791, Note_on_c, 12, 62, 0
14, 91800, Note_on_c, 12, 64, 84
14, 91851, Note_on_c, 12, 64, 0
14, 91860, Note_on_c, 12, 65, 84
14, 91911, Note_on_c, 12, 65, 0
14, 91920, Note_on_c, 12, 58, 84
14, 91971, Note_on_c, 12, 58, 0
14, 91980, Note_on_c, 12, 60, 84
14, 92031, Note_on_c, 12, 60, 0
14, 92040, Note_on_c, 12, 62, 84
14, 92091, Note_on_c, 12, 62, 0
14, 92100, Note_on_c, 12, 64, 84
14, 92151, Note_on_c, 12, 64, 0
14, 92160, Note_on_c, 12, 72, 84
14, 92504, Note_on_c, 12, 72, 0
14, 92520, Note_on_c, 12, 70, 84
14, 92624, Note_on_c, 12, 70, 0
14, 92640, Note_on_c, 12, 69, 84
14, 92744, Note_on_c, 12, 69, 0
14, 92760, Note_on_c, 12, 69, 84
14, 92864, Note_on_c, 12, 69, 0
14, 92880, Note_on_c, 12, 67, 84
14, 92909, Note_on_c, 12, 67, 0
14, 92910, Note_on_c, 12, 69, 84
14, 92939, Note_on_c, 12, 69, 0
14, 92940, Note_on_c, 12, 67, 84
14, 92969, Note_on_c, 12, 67, 0
14, 92970, Note_on_c, 12, 69, 84
14, 92999, Note_on_c, 12, 69, 0
14, 93000, Note_on_c, 12, 67, 84
14, 93029, Note_on_c, 12, 67, 0
14, 93030, Note_on_c, 12, 69, 84
14, 93059, Note_on_c, 12, 69, 0
14, 93060, Note_on_c, 12, 65, 84
14, 93089, Note_on_c, 12, 65, 0
14, 93090, Note_on_c, 12, 67, 84
14, 93119, Note_on_c, 12, 67, 0
14, 93120, Note_on_c, 12, 65, 84
14, 93171, Note_on_c, 12, 65, 0
14, 93180, Note_on_c, 12, 64, 84
14, 93231, Note_on_c, 12, 64, 0
14, 93240, Note_on_c, 12, 65, 84
14, 93291, Note_on_c, 12, 65, 0
14, 93300, Note_on_c, 12, 69, 84
14, 93351, Note_on_c, 12, 69, 0
14, 93360, Note_on_c, 12, 62, 84
14, 93411, Note_on_c, 12, 62, 0
14, 93420, Note_on_c, 12, 64, 84
14, 93471, Note_on_c, 12, 64, 0
14, 93480, Note_on_c, 12, 65, 84
14, 93531, Note_on_c, 12, 65, 0
14, 93540, Note_on_c, 12, 67, 84
14, 93591, Note_on_c, 12, 67, 0
14, 93600, Note_on_c, 12, 60, 84
14, 93651, Note_on_c, 12, 60, 0
14, 93660, Note_on_c, 12, 62, 84
14, 93711, Note_on_c, 12, 62, 0
14, 93720, Note_on_c, 12, 64, 84
14, 93771, Note_on_c, 12, 64, 0
14, 93780, Note_on_c, 12, 65, 84
14, 93831, Note_on_c, 12, 65, 0
14, 93840, Note_on_c, 12, 58, 84
14, 93891, Note_on_c, 12, 58, 0
14, 93900, Note_on_c, 12, 60, 84
14, 93951, Note_on_c, 12, 60, 0
14, 93960, Note_on_c, 12, 62, 84
14, 94011, Note_on_c, 12, 62, 0
14, 94020, Note_on_c, 12, 64, 84
14, 94071, Note_on_c, 12, 64, 0
14, 94080, Note_on_c, 12, 65, 84
14, 94184, Note_on_c, 12, 65, 0
14, 94200, Note_on_c, 12, 72, 84
14, 94424, Note_on_c, 12, 72, 0
14, 94440, Note_on_c, 12, 70, 84
14, 94544, Note_on_c, 12, 70, 0
14, 94560, Note_on_c, 12, 69, 84
14, 94664, Note_on_c, 12, 69, 0
14, 94680, Note_on_c, 12, 69, 84
14, 94784, Note_on_c, 12, 69, 0
14, 94800, Note_on_c, 12, 67, 84
14, 94829, Note_on_c, 12, 67, 0
14, 94830, Note_on_c, 12, 69, 84
14, 94859, Note_on_c, 12, 69, 0
14, 94860, Note_on_c, 12, 67, 84
14, 94889, Note_on_c, 12, 67, 0
14, 94890, Note_on_c, 12, 69, 84
14, 94919, Note_on_c, 12, 69, 0
14, 94920, Note_on_c, 12, 67, 84
14, 94949, Note_on_c, 12, 67, 0
14, 94950, Note_on_c, 12, 69, 84
14, 94979, Note_on_c, 12, 69, 0
14, 94980, Note_on_c, 12, 65, 84
14, 95009, Note_on_c, 12, 65, 0
14, 95010, Note_on_c, 12, 67, 84
14, 95039, Note_on_c, 12, 67, 0
14, 95040, Note_on_c, 12, 65, 84
14, 95091, Note_on_c, 12, 65, 0
14, 95100, Note_on_c, 12, 64, 84
14, 95151, Note_on_c, 12, 64, 0
14, 95160, Note_on_c, 12, 65, 84
14, 95211, Note_on_c, 12, 65, 0
14, 95220, Note_on_c, 12, 69, 84
14, 95271, Note_on_c, 12, 69, 0
14, 95280, Note_on_c, 12, 60, 84
14, 95331, Note_on_c, 12, 60, 0
14, 95340, Note_on_c, 12, 62, 84
14, 95391, Note_on_c, 12, 62, 0
14, 95400, Note_on_c, 12, 63, 84
14, 95451, Note_on_c, 12, 63, 0
14, 95460, Note_on_c, 12, 64, 84
14, 95511, Note_on_c, 12, 64, 0
14, 95520, Note_on_c, 12, 65, 84
14, 95571, Note_on_c, 12, 65, 0
14, 95580, Note_on_c, 12, 64, 84
14, 95631, Note_on_c, 12, 64, 0
14, 95640, Note_on_c, 12, 65, 84
14, 95691, Note_on_c, 12, 65, 0
14, 95700, Note_on_c, 12, 69, 84
14, 95751, Note_on_c, 12, 69, 0
14, 95760, Note_on_c, 12, 60, 84
14, 95811, Note_on_c, 12, 60, 0
14, 95820, Note_on_c, 12, 62, 84
14, 95871, Note_on_c, 12, 62, 0
14, 95880, Note_on_c, 12, 63, 84
14, 95931, Note_on_c, 12, 63, 0
14, 95940, Note_on_c, 12, 64, 84
14, 95991, Note_on_c, 12, 64, 0
14, 96000, Note_on_c, 12, 65, 84
14, 96051, Note_on_c, 12, 65, 0
14, 96060, Note_on_c, 12, 64, 84
14, 96111, Note_on_c, 12, 64, 0
14, 96120, Note_on_c, 12, 65, 84
14, 96171, Note_on_c, 12, 65, 0
14, 96180, Note_on_c, 12, 69, 84
14, 96231, Note_on_c, 12, 69, 0
14, 96240, Note_on_c, 12, 60, 84
14, 96291, Note_on_c, 12, 60, 0
14, 96300, Note_on_c, 12, 62, 84
14, 96351, Note_on_c, 12, 62, 0
14, 96360, Note_on_c, 12, 63, 84
14, 96411, Note_on_c, 12, 63, 0
14, 96420, Note_on_c, 12, 64, 84
14, 96471, Note_on_c, 12, 64, 0
14, 96480, Note_on_c, 12, 65, 84
14, 96531, Note_on_c, 12, 65, 0
14, 96540, Note_on_c, 12, 64, 84
14, 96591, Note_on_c, 12, 64, 0
14, 96600, Note_on_c, 12, 65, 84
14, 96651, Note_on_c, 12, 65, 0
14, 96660, Note_on_c, 12, 69, 84
14, 96711, Note_on_c, 12, 69, 0
14, 96720, Note_on_c, 12, 60, 84
14, 96771, Note_on_c, 12, 60, 0
14, 96780, Note_on_c, 12, 62, 84
14, 96831, Note_on_c, 12, 62, 0
14, 96840, Note_on_c, 12, 63, 84
14, 96891, Note_on_c, 12, 63, 0
14, 96900, Note_on_c, 12, 64, 84
14, 96951, Note_on_c, 12, 64, 0
14, 96960, Note_on_c, 12, 65, 52
14, 97079, Note_on_c, 12, 65, 0
14, 98640, Note_on_c, 12, 63, 52
14, 98691, Note_on_c, 12, 63, 0
14, 98700, Note_on_c, 12, 65, 52
14, 98751, Note_on_c, 12, 65, 0
14, 98760, Note_on_c, 12, 66, 52
14, 98811, Note_on_c, 12, 66, 0
14, 98820, Note_on_c, 12, 67, 52
14, 98871, Note_on_c, 12, 67, 0
14, 98880, Note_on_c, 12, 68, 52
14, 98984, Note_on_c, 12, 68, 0
14, 99000, Note_on_c, 12, 63, 52
14, 99119, Note_on_c, 12, 63, 0
14, 99240, Note_on_c, 12, 63, 52
14, 99344, Note_on_c, 12, 63, 0
14, 99360, Note_on_c, 12, 63, 52
14, 99464, Note_on_c, 12, 63, 0
14, 99480, Note_on_c, 12, 63, 52
14, 99599, Note_on_c, 12, 63, 0
14, 99720, Note_on_c, 12, 63, 52
14, 99824, Note_on_c, 12, 63, 0
14, 99840, Note_on_c, 12, 63, 52
14, 99944, Note_on_c, 12, 63, 0
14, 99960, Note_on_c, 12, 63, 52
14, 100079, Note_on_c, 12, 63, 0
14, 100200, Note_on_c, 12, 63, 52
14, 100304, Note_on_c, 12, 63, 0
14, 100320, Note_on_c, 12, 63, 52
14, 100424, Note_on_c, 12, 63, 0
14, 100440, Note_on_c, 12, 63, 52
14, 100544, Note_on_c, 12, 63, 0
14, 100560, Note_on_c, 12, 65, 52
14, 100664, Note_on_c, 12, 65, 0
14, 100680, Note_on_c, 12, 65, 52
14, 100784, Note_on_c, 12, 65, 0
14, 100800, Note_on_c, 12, 65, 52
14, 100904, Note_on_c, 12, 65, 0
14, 100920, Note_on_c, 12, 65, 52
14, 101039, Note_on_c, 12, 65, 0
14, 101160, Note_on_c, 12, 65, 54
14, 101264, Note_on_c, 12, 65, 0
14, 101280, Note_on_c, 12, 65, 55
14, 101384, Note_on_c, 12, 65, 0
14, 101400, Note_on_c, 12, 65, 56
14, 101519, Note_on_c, 12, 65, 0
14, 101640, Note_on_c, 12, 65, 58
14, 101744, Note_on_c, 12, 65, 0
14, 101760, Note_on_c, 12, 65, 59
14, 101864, Note_on_c, 12, 65, 0
14, 101880, Note_on_c, 12, 65, 60
14, 101999, Note_on_c, 12, 65, 0
14, 102120, Note_on_c, 12, 65, 62
14, 102224, Note_on_c, 12, 65, 0
14, 102240, Note_on_c, 12, 65, 63
14, 102344, Note_on_c, 12, 65, 0
14, 102360, Note_on_c, 12, 65, 64
14, 102464, Note_on_c, 12, 65, 0
14, 102480, Note_on_c, 12, 67, 65
14, 102584, Note_on_c, 12, 67, 0
14, 102600, Note_on_c, 12, 67, 66
14, 102704, Note_on_c, 12, 67, 0
14, 102720, Note_on_c, 12, 67, 67
14, 102824, Note_on_c, 12, 67, 0
14, 102840, Note_on_c, 12, 67, 68
14, 102959, Note_on_c, 12, 67, 0
14, 103080, Note_on_c, 12, 67, 70
14, 103184, Note_on_c, 12, 67, 0
14, 103200, Note_on_c, 12, 67, 71
14, 103304, Note_on_c, 12, 67, 0
14, 103320, Note_on_c, 12, 67, 72
14, 103424, Note_on_c, 12, 67, 0
14, 103440, Note_on_c, 12, 69, 73
14, 103544, Note_on_c, 12, 69, 0
14, 103560, Note_on_c, 12, 69, 74
14, 103664, Note_on_c, 12, 69, 0
14, 103680, Note_on_c, 12, 69, 76
14, 103731, Note_on_c, 12, 69, 0
14, 103740, Note_on_c, 12, 69, 76
14, 103791, Note_on_c, 12, 69, 0
14, 103800, Note_on_c, 12, 69, 76
14, 103851, Note_on_c, 12, 69, 0
14, 103860, Note_on_c, 12, 69, 76
14, 103911, Note_on_c, 12, 69, 0
14, 103920, Note_on_c, 12, 69, 76
14, 103971, Note_on_c, 12, 69, 0
14, 103980, Note_on_c, 12, 69, 76
14, 104031, Note_on_c, 12, 69, 0
14, 104040, Note_on_c, 12, 69, 76
14, 104091, Note_on_c, 12, 69, 0
14, 104100, Note_on_c, 12, 69, 76
14, 104151, Note_on_c, 12, 69, 0
14, 104160, Note_on_c, 12, 69, 76
14, 104211, Note_on_c, 12, 69, 0
14, 104220, Note_on_c, 12, 69, 76
14, 104271, Note_on_c, 12, 69, 0
14, 104280, Note_on_c, 12, 69, 76
14, 104331, Note_on_c, 12, 69, 0
14, 104340, Note_on_c, 12, 69, 76
14, 104391, Note_on_c, 12, 69, 0
14, 104400, Note_on_c, 12, 69, 76
14, 104451, Note_on_c, 12, 69, 0
14, 104460, Note_on_c, 12, 69, 76
14, 104511, Note_on_c, 12, 69, 0
14, 104520, Note_on_c, 12, 69, 76
14, 104571, Note_on_c, 12, 69, 0
14, 104580, Note_on_c, 12, 69, 76
14, 104631, Note_on_c, 12, 69, 0
14, 104640, Note_on_c, 12, 66, 80
14, 104640, Note_on_c, 12, 69, 80
14, 104691, Note_on_c, 12, 66, 0
14, 104691, Note_on_c, 12, 69, 0
14, 104700, Note_on_c, 12, 66, 80
14, 104700, Note_on_c, 12, 69, 80
14, 104751, Note_on_c, 12, 66, 0
14, 104751, Note_on_c, 12, 69, 0
14, 104760, Note_on_c, 12, 69, 80
14, 104760, Note_on_c, 12, 66, 80
14, 104811, Note_on_c, 12, 69, 0
14, 104811, Note_on_c, 12, 66, 0
14, 104820, Note_on_c, 12, 66, 80
14, 104820, Note_on_c, 12, 69, 80
14, 104871, Note_on_c, 12, 66, 0
14, 104871, Note_on_c, 12, 69, 0
14, 104880, Note_on_c, 12, 66, 80
14, 104880, Note_on_c, 12, 69, 80
14, 104931, Note_on_c, 12, 66, 0
14, 104931, Note_on_c, 12, 69, 0
14, 104940, Note_on_c, 12, 69, 80
14, 104940, Note_on_c, 12, 66, 80
14, 104991, Note_on_c, 12, 69, 0
14, 104991, Note_on_c, 12, 66, 0
14, 105000, Note_on_c, 12, 66, 80
14, 105000, Note_on_c, 12, 69, 80
14, 105051, Note_on_c, 12, 66, 0
14, 105051, Note_on_c, 12, 69, 0
14, 105060, Note_on_c, 12, 66, 80
14, 105060, Note_on_c, 12, 69, 80
14, 105111, Note_on_c, 12, 66, 0
14, 105111, Note_on_c, 12, 69, 0
14, 105120, Note_on_c, 12, 69, 80
14, 105120, Note_on_c, 12, 66, 80
14, 105171, Note_on_c, 12, 69, 0
14, 105171, Note_on_c, 12, 66, 0
14, 105180, Note_on_c, 12, 66, 80
14, 105180, Note_on_c, 12, 69, 80
14, 105231, Note_on_c, 12, 66, 0
14, 105231, Note_on_c, 12, 69, 0
14, 105240, Note_on_c, 12, 66, 80
14, 105240, Note_on_c, 12, 69, 80
14, 105291, Note_on_c, 12, 66, 0
14, 105291, Note_on_c, 12, 69, 0
14, 105300, Note_on_c, 12, 66, 80
14, 105300, Note_on_c, 12, 69, 80
14, 105351, Note_on_c, 12, 66, 0
14, 105351, Note_on_c, 12, 69, 0
14, 105360, Note_on_c, 12, 66, 80
14, 105360, Note_on_c, 12, 69, 80
14, 105411, Note_on_c, 12, 66, 0
14, 105411, Note_on_c, 12, 69, 0
14, 105420, Note_on_c, 12, 66, 80
14, 105420, Note_on_c, 12, 69, 80
14, 105471, Note_on_c, 12, 66, 0
14, 105471, Note_on_c, 12, 69, 0
14, 105480, Note_on_c, 12, 69, 80
14, 105480, Note_on_c, 12, 66, 80
14, 105531, Note_on_c, 12, 69, 0
14, 105531, Note_on_c, 12, 66, 0
14, 105540, Note_on_c, 12, 69, 80
14, 105540, Note_on_c, 12, 66, 80
14, 105591, Note_on_c, 12, 69, 0
14, 105591, Note_on_c, 12, 66, 0
14, 105600, Note_on_c, 12, 83, 84
14, 105600, Note_on_c, 12, 71, 84
14, 105651, Note_on_c, 12, 83, 0
14, 105651, Note_on_c, 12, 71, 0
14, 105660, Note_on_c, 12, 71, 84
14, 105660, Note_on_c, 12, 83, 84
14, 105711, Note_on_c, 12, 71, 0
14, 105711, Note_on_c, 12, 83, 0
14, 105720, Note_on_c, 12, 71, 84
14, 105720, Note_on_c, 12, 83, 84
14, 105771, Note_on_c, 12, 71, 0
14, 105771, Note_on_c, 12, 83, 0
14, 105780, Note_on_c, 12, 83, 84
14, 105780, Note_on_c, 12, 71, 84
14, 105831, Note_on_c, 12, 83, 0
14, 105831, Note_on_c, 12, 71, 0
14, 105840, Note_on_c, 12, 83, 84
14, 105840, Note_on_c, 12, 71, 84
14, 105891, Note_on_c, 12, 83, 0
14, 105891, Note_on_c, 12, 71, 0
14, 105900, Note_on_c, 12, 83, 84
14, 105900, Note_on_c, 12, 71, 84
14, 105951, Note_on_c, 12, 83, 0
14, 105951, Note_on_c, 12, 71, 0
14, 105960, Note_on_c, 12, 83, 84
14, 105960, Note_on_c, 12, 71, 84
14, 106011, Note_on_c, 12, 83, 0
14, 106011, Note_on_c, 12, 71, 0
14, 106020, Note_on_c, 12, 71, 84
14, 106020, Note_on_c, 12, 83, 84
14, 106071, Note_on_c, 12, 71, 0
14, 106071, Note_on_c, 12, 83, 0
14, 106080, Note_on_c, 12, 83, 84
14, 106080, Note_on_c, 12, 71, 84
14, 106131, Note_on_c, 12, 83, 0
14, 106131, Note_on_c, 12, 71, 0
14, 106140, Note_on_c, 12, 83, 84
14, 106140, Note_on_c, 12, 71, 84
14, 106191, Note_on_c, 12, 83, 0
14, 106191, Note_on_c, 12, 71, 0
14, 106200, Note_on_c, 12, 71, 84
14, 106200, Note_on_c, 12, 83, 84
14, 106251, Note_on_c, 12, 71, 0
14, 106251, Note_on_c, 12, 83, 0
14, 106260, Note_on_c, 12, 83, 84
14, 106260, Note_on_c, 12, 71, 84
14, 106311, Note_on_c, 12, 83, 0
14, 106311, Note_on_c, 12, 71, 0
14, 106320, Note_on_c, 12, 83, 84
14, 106320, Note_on_c, 12, 71, 84
14, 106371, Note_on_c, 12, 83, 0
14, 106371, Note_on_c, 12, 71, 0
14, 106380, Note_on_c, 12, 71, 84
14, 106380, Note_on_c, 12, 83, 84
14, 106431, Note_on_c, 12, 71, 0
14, 106431, Note_on_c, 12, 83, 0
14, 106440, Note_on_c, 12, 71, 84
14, 106440, Note_on_c, 12, 83, 84
14, 106491, Note_on_c, 12, 71, 0
14, 106491, Note_on_c, 12, 83, 0
14, 106500, Note_on_c, 12, 71, 84
14, 106500, Note_on_c, 12, 83, 84
14, 106551, Note_on_c, 12, 83, 0
14, 106559, Note_on_c, 12, 71, 0
14, 107520, Note_on_c, 12, 57, 52
14, 107579, Note_on_c, 12, 57, 0
14, 107580, Note_on_c, 12, 62, 52
14, 107639, Note_on_c, 12, 62, 0
14, 107640, Note_on_c, 12, 57, 52
14, 107699, Note_on_c, 12, 57, 0
14, 107700, Note_on_c, 12, 62, 52
14, 107759, Note_on_c, 12, 62, 0
14, 107760, Note_on_c, 12, 57, 52
14, 107819, Note_on_c, 12, 57, 0
14, 107820, Note_on_c, 12, 62, 52
14, 107879, Note_on_c, 12, 62, 0
14, 107880, Note_on_c, 12, 57, 52
14, 107939, Note_on_c, 12, 57, 0
14, 107940, Note_on_c, 12, 62, 52
14, 107991, Note_on_c, 12, 62, 0
14, 108000, Note_on_c, 12, 59, 52
14, 108059, Note_on_c, 12, 59, 0
14, 108060, Note_on_c, 12, 62, 52
14, 108119, Note_on_c, 12, 62, 0
14, 108120, Note_on_c, 12, 59, 52
14, 108179, Note_on_c, 12, 59, 0
14, 108180, Note_on_c, 12, 62, 52
14, 108239, Note_on_c, 12, 62, 0
14, 108240, Note_on_c, 12, 59, 52
14, 108299, Note_on_c, 12, 59, 0
14, 108300, Note_on_c, 12, 62, 52
14, 108359, Note_on_c, 12, 62, 0
14, 108360, Note_on_c, 12, 59, 52
14, 108419, Note_on_c, 12, 59, 0
14, 108420, Note_on_c, 12, 62, 52
14, 108471, Note_on_c, 12, 62, 0
14, 108480, Note_on_c, 12, 60, 52
14, 108539, Note_on_c, 12, 60, 0
14, 108540, Note_on_c, 12, 62, 52
14, 108599, Note_on_c, 12, 62, 0
14, 108600, Note_on_c, 12, 57, 52
14, 108659, Note_on_c, 12, 57, 0
14, 108660, Note_on_c, 12, 62, 52
14, 108719, Note_on_c, 12, 62, 0
14, 108720, Note_on_c, 12, 57, 52
14, 108779, Note_on_c, 12, 57, 0
14, 108780, Note_on_c, 12, 62, 52
14, 108839, Note_on_c, 12, 62, 0
14, 108840, Note_on_c, 12, 57, 52
14, 108899, Note_on_c, 12, 57, 0
14, 108900, Note_on_c, 12, 62, 52
14, 108951, Note_on_c, 12, 62, 0
14, 108960, Note_on_c, 12, 59, 52
14, 109019, Note_on_c, 12, 59, 0
14, 109020, Note_on_c, 12, 62, 52
14, 109079, Note_on_c, 12, 62, 0
14, 109080, Note_on_c, 12, 59, 52
14, 109139, Note_on_c, 12, 59, 0
14, 109140, Note_on_c, 12, 62, 52
14, 109199, Note_on_c, 12, 62, 0
14, 109200, Note_on_c, 12, 59, 52
14, 109259, Note_on_c, 12, 59, 0
14, 109260, Note_on_c, 12, 62, 52
14, 109319, Note_on_c, 12, 62, 0
14, 109320, Note_on_c, 12, 59, 52
14, 109379, Note_on_c, 12, 59, 0
14, 109380, Note_on_c, 12, 62, 52
14, 109431, Note_on_c, 12, 62, 0
14, 109440, Note_on_c, 12, 60, 52
14, 109499, Note_on_c, 12, 60, 0
14, 109500, Note_on_c, 12, 62, 52
14, 109559, Note_on_c, 12, 62, 0
14, 109560, Note_on_c, 12, 57, 52
14, 109619, Note_on_c, 12, 57, 0
14, 109620, Note_on_c, 12, 62, 52
14, 109679, Note_on_c, 12, 62, 0
14, 109680, Note_on_c, 12, 57, 52
14, 109739, Note_on_c, 12, 57, 0
14, 109740, Note_on_c, 12, 62, 52
14, 109799, Note_on_c, 12, 62, 0
14, 109800, Note_on_c, 12, 57, 52
14, 109859, Note_on_c, 12, 57, 0
14, 109860, Note_on_c, 12, 62, 52
14, 109911, Note_on_c, 12, 62, 0
14, 109920, Note_on_c, 12, 59, 52
14, 109964, Note_on_c, 12, 59, 0
14, 109980, Note_on_c, 12, 57, 52
14, 110024, Note_on_c, 12, 57, 0
14, 110040, Note_on_c, 12, 59, 52
14, 110084, Note_on_c, 12, 59, 0
14, 110100, Note_on_c, 12, 62, 52
14, 110144, Note_on_c, 12, 62, 0
14, 110160, Note_on_c, 12, 60, 52
14, 110204, Note_on_c, 12, 60, 0
14, 110220, Note_on_c, 12, 59, 52
14, 110264, Note_on_c, 12, 59, 0
14, 110280, Note_on_c, 12, 57, 52
14, 110324, Note_on_c, 12, 57, 0
14, 110340, Note_on_c, 12, 59, 52
14, 110384, Note_on_c, 12, 59, 0
14, 110400, Note_on_c, 12, 60, 52
14, 110459, Note_on_c, 12, 60, 0
14, 110460, Note_on_c, 12, 62, 52
14, 110519, Note_on_c, 12, 62, 0
14, 110520, Note_on_c, 12, 57, 52
14, 110579, Note_on_c, 12, 57, 0
14, 110580, Note_on_c, 12, 62, 52
14, 110639, Note_on_c, 12, 62, 0
14, 110640, Note_on_c, 12, 57, 52
14, 110699, Note_on_c, 12, 57, 0
14, 110700, Note_on_c, 12, 62, 52
14, 110759, Note_on_c, 12, 62, 0
14, 110760, Note_on_c, 12, 57, 52
14, 110819, Note_on_c, 12, 57, 0
14, 110820, Note_on_c, 12, 62, 52
14, 110871, Note_on_c, 12, 62, 0
14, 110880, Note_on_c, 12, 58, 52
14, 110924, Note_on_c, 12, 58, 0
14, 110940, Note_on_c, 12, 57, 52
14, 110984, Note_on_c, 12, 57, 0
14, 111000, Note_on_c, 12, 58, 52
14, 111044, Note_on_c, 12, 58, 0
14, 111060, Note_on_c, 12, 62, 52
14, 111104, Note_on_c, 12, 62, 0
14, 111120, Note_on_c, 12, 60, 52
14, 111164, Note_on_c, 12, 60, 0
14, 111180, Note_on_c, 12, 58, 52
14, 111224, Note_on_c, 12, 58, 0
14, 111240, Note_on_c, 12, 57, 52
14, 111284, Note_on_c, 12, 57, 0
14, 111300, Note_on_c, 12, 58, 52
14, 111344, Note_on_c, 12, 58, 0
14, 111360, Note_on_c, 12, 62, 52
14, 111479, Note_on_c, 12, 62, 0
14, 111600, Note_on_c, 12, 62, 64
14, 111719, Note_on_c, 12, 62, 0
14, 111840, Note_on_c, 12, 55, 76
14, 112304, Note_on_c, 12, 55, 0
14, 112320, Note_on_c, 12, 60, 84
14, 112371, Note_on_c, 12, 60, 0
14, 112380, Note_on_c, 12, 59, 52
14, 112431, Note_on_c, 12, 59, 0
14, 112440, Note_on_c, 12, 60, 52
14, 112491, Note_on_c, 12, 60, 0
14, 112500, Note_on_c, 12, 63, 52
14, 112551, Note_on_c, 12, 63, 0
14, 112560, Note_on_c, 12, 62, 52
14, 112611, Note_on_c, 12, 62, 0
14, 112620, Note_on_c, 12, 60, 52
14, 112671, Note_on_c, 12, 60, 0
14, 112680, Note_on_c, 12, 59, 52
14, 112731, Note_on_c, 12, 59, 0
14, 112740, Note_on_c, 12, 60, 52
14, 112791, Note_on_c, 12, 60, 0
14, 112800, Note_on_c, 12, 58, 52
14, 112919, Note_on_c, 12, 58, 0
14, 113040, Note_on_c, 12, 67, 52
14, 113091, Note_on_c, 12, 67, 0
14, 113100, Note_on_c, 12, 66, 52
14, 113151, Note_on_c, 12, 66, 0
14, 113160, Note_on_c, 12, 67, 52
14, 113211, Note_on_c, 12, 67, 0
14, 113220, Note_on_c, 12, 72, 52
14, 113279, Note_on_c, 12, 72, 0
14, 113520, Note_on_c, 12, 67, 52
14, 113571, Note_on_c, 12, 67, 0
14, 113580, Note_on_c, 12, 66, 52
14, 113631, Note_on_c, 12, 66, 0
14, 113640, Note_on_c, 12, 67, 52
14, 113691, Note_on_c, 12, 67, 0
14, 113700, Note_on_c, 12, 72, 52
14, 113759, Note_on_c, 12, 72, 0
14, 114000, Note_on_c, 12, 67, 52
14, 114051, Note_on_c, 12, 67, 0
14, 114060, Note_on_c, 12, 66, 52
14, 114111, Note_on_c, 12, 66, 0
14, 114120, Note_on_c, 12, 67, 52
14, 114171, Note_on_c, 12, 67, 0
14, 114180, Note_on_c, 12, 72, 52
14, 114239, Note_on_c, 12, 72, 0
14, 114480, Note_on_c, 12, 58, 52
14, 114531, Note_on_c, 12, 58, 0
14, 114540, Note_on_c, 12, 57, 52
14, 114591, Note_on_c, 12, 57, 0
14, 114600, Note_on_c, 12, 58, 52
14, 114651, Note_on_c, 12, 58, 0
14, 114660, Note_on_c, 12, 63, 52
14, 114711, Note_on_c, 12, 63, 0
14, 114720, Note_on_c, 12, 58, 76
14, 114771, Note_on_c, 12, 58, 0
14, 114780, Note_on_c, 12, 57, 76
14, 114831, Note_on_c, 12, 57, 0
14, 114840, Note_on_c, 12, 58, 76
14, 114891, Note_on_c, 12, 58, 0
14, 114900, Note_on_c, 12, 62, 76
14, 114951, Note_on_c, 12, 62, 0
14, 114960, Note_on_c, 12, 60, 76
14, 115011, Note_on_c, 12, 60, 0
14, 115020, Note_on_c, 12, 58, 76
14, 115071, Note_on_c, 12, 58, 0
14, 115080, Note_on_c, 12, 57, 76
14, 115131, Note_on_c, 12, 57, 0
14, 115140, Note_on_c, 12, 58, 76
14, 115191, Note_on_c, 12, 58, 0
14, 115200, Note_on_c, 12, 58, 84
14, 115259, Note_on_c, 12, 58, 0
14, 115260, Note_on_c, 12, 58, 52
14, 115664, Note_on_c, 12, 58, 0
14, 115680, Note_on_c, 12, 58, 52
14, 115731, Note_on_c, 12, 58, 0
14, 115740, Note_on_c, 12, 57, 52
14, 115791, Note_on_c, 12, 57, 0
14, 115800, Note_on_c, 12, 58, 52
14, 115851, Note_on_c, 12, 58, 0
14, 115860, Note_on_c, 12, 62, 52
14, 115919, Note_on_c, 12, 62, 0
14, 116160, Note_on_c, 12, 58, 52
14, 116211, Note_on_c, 12, 58, 0
14, 116220, Note_on_c, 12, 57, 52
14, 116271, Note_on_c, 12, 57, 0
14, 116280, Note_on_c, 12, 58, 52
14, 116331, Note_on_c, 12, 58, 0
14, 116340, Note_on_c, 12, 62, 52
14, 116399, Note_on_c, 12, 62, 0
14, 116640, Note_on_c, 12, 58, 52
14, 116691, Note_on_c, 12, 58, 0
14, 116700, Note_on_c, 12, 57, 52
14, 116751, Note_on_c, 12, 57, 0
14, 116760, Note_on_c, 12, 58, 52
14, 116811, Note_on_c, 12, 58, 0
14, 116820, Note_on_c, 12, 62, 52
14, 116879, Note_on_c, 12, 62, 0
14, 117360, Note_on_c, 12, 62, 52
14, 117411, Note_on_c, 12, 62, 0
14, 117420, Note_on_c, 12, 61, 52
14, 117471, Note_on_c, 12, 61, 0
14, 117480, Note_on_c, 12, 62, 52
14, 117531, Note_on_c, 12, 62, 0
14, 117540, Note_on_c, 12, 67, 52
14, 117591, Note_on_c, 12, 67, 0
14, 117600, Note_on_c, 12, 62, 76
14, 117651, Note_on_c, 12, 62, 0
14, 117660, Note_on_c, 12, 61, 76
14, 117711, Note_on_c, 12, 61, 0
14, 117720, Note_on_c, 12, 62, 76
14, 117771, Note_on_c, 12, 62, 0
14, 117780, Note_on_c, 12, 65, 76
14, 117831, Note_on_c, 12, 65, 0
14, 117840, Note_on_c, 12, 64, 76
14, 117891, Note_on_c, 12, 64, 0
14, 117900, Note_on_c, 12, 62, 76
14, 117951, Note_on_c, 12, 62, 0
14, 117960, Note_on_c, 12, 61, 76
14, 118011, Note_on_c, 12, 61, 0
14, 118020, Note_on_c, 12, 62, 76
14, 118071, Note_on_c, 12, 62, 0
14, 118080, Note_on_c, 12, 67, 84
14, 118139, Note_on_c, 12, 67, 0
14, 118140, Note_on_c, 12, 67, 76
14, 118140, Control_c, 12, 11, 127
14, 118175, Control_c, 12, 11, 123
14, 118210, Control_c, 12, 11, 119
14, 118245, Control_c, 12, 11, 115
14, 118280, Control_c, 12, 11, 111
14, 118315, Control_c, 12, 11, 107
14, 118350, Control_c, 12, 11, 104
14, 118385, Control_c, 12, 11, 100
14, 118420, Control_c, 12, 11, 96
14, 118455, Control_c, 12, 11, 92
14, 118490, Control_c, 12, 11, 88
14, 118525, Control_c, 12, 11, 80
14, 118544, Note_on_c, 12, 67, 0
14, 118560, Note_on_c, 12, 65, 76
14, 118679, Note_on_c, 12, 65, 0
14, 118800, Note_on_c, 12, 62, 76
14, 118851, Note_on_c, 12, 62, 0
14, 118860, Note_on_c, 12, 61, 76
14, 118911, Note_on_c, 12, 61, 0
14, 118920, Note_on_c, 12, 62, 76
14, 118971, Note_on_c, 12, 62, 0
14, 118980, Note_on_c, 12, 67, 76
14, 119039, Note_on_c, 12, 67, 0
14, 119278, Control_c, 12, 11, 127
14, 119280, Note_on_c, 12, 62, 52
14, 119331, Note_on_c, 12, 62, 0
14, 119340, Note_on_c, 12, 61, 52
14, 119391, Note_on_c, 12, 61, 0
14, 119400, Note_on_c, 12, 62, 52
14, 119451, Note_on_c, 12, 62, 0
14, 119460, Note_on_c, 12, 67, 52
14, 119519, Note_on_c, 12, 67, 0
14, 119760, Note_on_c, 12, 62, 52
14, 119811, Note_on_c, 12, 62, 0
14, 119820, Note_on_c, 12, 61, 52
14, 119871, Note_on_c, 12, 61, 0
14, 119880, Note_on_c, 12, 62, 52
14, 119931, Note_on_c, 12, 62, 0
14, 119940, Note_on_c, 12, 67, 52
14, 119999, Note_on_c, 12, 67, 0
14, 120240, Note_on_c, 12, 62, 52
14, 120291, Note_on_c, 12, 62, 0
14, 120300, Note_on_c, 12, 61, 52
14, 120351, Note_on_c, 12, 61, 0
14, 120360, Note_on_c, 12, 62, 52
14, 120411, Note_on_c, 12, 62, 0
14, 120420, Note_on_c, 12, 67, 52
14, 120471, Note_on_c, 12, 67, 0
14, 120480, Note_on_c, 12, 62, 44
14, 120584, Note_on_c, 12, 62, 0
14, 120600, Note_on_c, 12, 69, 44
14, 120719, Note_on_c, 12, 69, 0
14, 120840, Note_on_c, 12, 69, 44
14, 120944, Note_on_c, 12, 69, 0
14, 120960, Note_on_c, 12, 69, 44
14, 121064, Note_on_c, 12, 69, 0
14, 121080, Note_on_c, 12, 69, 44
14, 121199, Note_on_c, 12, 69, 0
14, 121320, Note_on_c, 12, 69, 44
14, 121424, Note_on_c, 12, 69, 0
14, 121440, Note_on_c, 12, 69, 44
14, 121544, Note_on_c, 12, 69, 0
14, 121560, Note_on_c, 12, 69, 44
14, 121679, Note_on_c, 12, 69, 0
14, 121800, Note_on_c, 12, 69, 44
14, 121904, Note_on_c, 12, 69, 0
14, 121920, Note_on_c, 12, 69, 44
14, 122024, Note_on_c, 12, 69, 0
14, 122040, Note_on_c, 12, 69, 44
14, 122159, Note_on_c, 12, 69, 0
14, 122280, Note_on_c, 12, 69, 44
14, 122384, Note_on_c, 12, 69, 0
14, 122400, Note_on_c, 12, 67, 44
14, 122504, Note_on_c, 12, 67, 0
14, 122520, Note_on_c, 12, 67, 44
14, 122639, Note_on_c, 12, 67, 0
14, 122760, Note_on_c, 12, 67, 44
14, 122864, Note_on_c, 12, 67, 0
14, 122880, Note_on_c, 12, 67, 44
14, 122984, Note_on_c, 12, 67, 0
14, 123000, Note_on_c, 12, 67, 44
14, 123119, Note_on_c, 12, 67, 0
14, 123240, Note_on_c, 12, 67, 44
14, 123344, Note_on_c, 12, 67, 0
14, 123360, Note_on_c, 12, 67, 44
14, 123464, Note_on_c, 12, 67, 0
14, 123480, Note_on_c, 12, 67, 44
14, 123599, Note_on_c, 12, 67, 0
14, 123720, Note_on_c, 12, 67, 44
14, 123824, Note_on_c, 12, 67, 0
14, 123840, Note_on_c, 12, 67, 44
14, 123944, Note_on_c, 12, 67, 0
14, 123960, Note_on_c, 12, 67, 44
14, 124079, Note_on_c, 12, 67, 0
14, 124200, Note_on_c, 12, 65, 44
14, 124200, Note_on_c, 12, 55, 44
14, 124304, Note_on_c, 12, 65, 0
14, 124304, Note_on_c, 12, 55, 0
14, 124320, Note_on_c, 12, 55, 44
14, 124320, Note_on_c, 12, 63, 44
14, 124424, Note_on_c, 12, 55, 0
14, 124424, Note_on_c, 12, 63, 0
14, 124440, Note_on_c, 12, 63, 46
14, 124440, Note_on_c, 12, 55, 46
14, 124559, Note_on_c, 12, 63, 0
14, 124559, Note_on_c, 12, 55, 0
14, 124680, Note_on_c, 12, 63, 51
14, 124680, Note_on_c, 12, 55, 51
14, 124784, Note_on_c, 12, 63, 0
14, 124784, Note_on_c, 12, 55, 0
14, 124800, Note_on_c, 12, 63, 54
14, 124800, Note_on_c, 12, 55, 54
14, 124904, Note_on_c, 12, 63, 0
14, 124904, Note_on_c, 12, 55, 0
14, 124920, Note_on_c, 12, 55, 56
14, 124920, Note_on_c, 12, 63, 56
14, 125039, Note_on_c, 12, 55, 0
14, 125039, Note_on_c, 12, 63, 0
14, 125160, Note_on_c, 12, 63, 61
14, 125160, Note_on_c, 12, 55, 61
14, 125264, Note_on_c, 12, 63, 0
14, 125264, Note_on_c, 12, 55, 0
14, 125280, Note_on_c, 12, 55, 64
14, 125280, Note_on_c, 12, 63, 64
14, 125384, Note_on_c, 12, 55, 0
14, 125384, Note_on_c, 12, 63, 0
14, 125400, Note_on_c, 12, 63, 66
14, 125400, Note_on_c, 12, 55, 66
14, 125519, Note_on_c, 12, 63, 0
14, 125519, Note_on_c, 12, 55, 0
14, 125640, Note_on_c, 12, 63, 71
14, 125640, Note_on_c, 12, 55, 71
14, 125744, Note_on_c, 12, 63, 0
14, 125744, Note_on_c, 12, 55, 0
14, 125760, Note_on_c, 12, 55, 74
14, 125760, Note_on_c, 12, 63, 74
14, 125864, Note_on_c, 12, 55, 0
14, 125864, Note_on_c, 12, 63, 0
14, 125880, Note_on_c, 12, 55, 76
14, 125880, Note_on_c, 12, 63, 76
14, 125999, Note_on_c, 12, 55, 0
14, 125999, Note_on_c, 12, 63, 0
14, 126120, Note_on_c, 12, 55, 81
14, 126120, Note_on_c, 12, 63, 81
14, 126224, Note_on_c, 12, 55, 0
14, 126224, Note_on_c, 12, 63, 0
14, 126240, Note_on_c, 12, 72, 84
14, 126291, Note_on_c, 12, 72, 0
14, 126300, Note_on_c, 12, 71, 84
14, 126351, Note_on_c, 12, 71, 0
14, 126360, Note_on_c, 12, 72, 84
14, 126411, Note_on_c, 12, 72, 0
14, 126420, Note_on_c, 12, 75, 84
14, 126471, Note_on_c, 12, 75, 0
14, 126480, Note_on_c, 12, 69, 84
14, 126531, Note_on_c, 12, 69, 0
14, 126540, Note_on_c, 12, 70, 84
14, 126591, Note_on_c, 12, 70, 0
14, 126600, Note_on_c, 12, 71, 84
14, 126651, Note_on_c, 12, 71, 0
14, 126660, Note_on_c, 12, 72, 84
14, 126711, Note_on_c, 12, 72, 0
14, 126720, Note_on_c, 12, 72, 84
14, 126771, Note_on_c, 12, 72, 0
14, 126780, Note_on_c, 12, 71, 84
14, 126831, Note_on_c, 12, 71, 0
14, 126840, Note_on_c, 12, 72, 84
14, 126891, Note_on_c, 12, 72, 0
14, 126900, Note_on_c, 12, 75, 84
14, 126951, Note_on_c, 12, 75, 0
14, 126960, Note_on_c, 12, 69, 84
14, 127011, Note_on_c, 12, 69, 0
14, 127020, Note_on_c, 12, 70, 84
14, 127071, Note_on_c, 12, 70, 0
14, 127080, Note_on_c, 12, 71, 84
14, 127131, Note_on_c, 12, 71, 0
14, 127140, Note_on_c, 12, 72, 84
14, 127191, Note_on_c, 12, 72, 0
14, 127200, Note_on_c, 12, 72, 84
14, 127251, Note_on_c, 12, 72, 0
14, 127260, Note_on_c, 12, 71, 84
14, 127311, Note_on_c, 12, 71, 0
14, 127320, Note_on_c, 12, 72, 84
14, 127371, Note_on_c, 12, 72, 0
14, 127380, Note_on_c, 12, 75, 84
14, 127431, Note_on_c, 12, 75, 0
14, 127440, Note_on_c, 12, 69, 84
14, 127491, Note_on_c, 12, 69, 0
14, 127500, Note_on_c, 12, 70, 84
14, 127551, Note_on_c, 12, 70, 0
14, 127560, Note_on_c, 12, 71, 84
14, 127611, Note_on_c, 12, 71, 0
14, 127620, Note_on_c, 12, 72, 84
14, 127671, Note_on_c, 12, 72, 0
14, 127680, Note_on_c, 12, 72, 84
14, 127731, Note_on_c, 12, 72, 0
14, 127740, Note_on_c, 12, 71, 84
14, 127791, Note_on_c, 12, 71, 0
14, 127800, Note_on_c, 12, 72, 84
14, 127851, Note_on_c, 12, 72, 0
14, 127860, Note_on_c, 12, 75, 84
14, 127911, Note_on_c, 12, 75, 0
14, 127920, Note_on_c, 12, 69, 84
14, 127971, Note_on_c, 12, 69, 0
14, 127980, Note_on_c, 12, 70, 84
14, 128031, Note_on_c, 12, 70, 0
14, 128040, Note_on_c, 12, 71, 84
14, 128091, Note_on_c, 12, 71, 0
14, 128100, Note_on_c, 12, 72, 84
14, 128151, Note_on_c, 12, 72, 0
14, 128160, Note_on_c, 12, 72, 84
14, 128279, Note_on_c, 12, 72, 0
14, 128400, Note_on_c, 12, 78, 84
14, 128519, Note_on_c, 12, 78, 0
14, 128640, Note_on_c, 12, 75, 84
14, 128759, Note_on_c, 12, 75, 0
14, 128880, Note_on_c, 12, 72, 84
14, 128999, Note_on_c, 12, 72, 0
14, 129120, Note_on_c, 12, 69, 84
14, 129239, Note_on_c, 12, 69, 0
14, 129360, Note_on_c, 12, 66, 84
14, 129479, Note_on_c, 12, 66, 0
14, 129600, Note_on_c, 12, 63, 84
14, 129719, Note_on_c, 12, 63, 0
14, 129840, Note_on_c, 12, 66, 84
14, 129959, Note_on_c, 12, 66, 0
14, 130080, Note_on_c, 12, 57, 92
14, 130529, Note_on_c, 12, 57, 0
14, 130560, Note_on_c, 12, 57, 92
14, 131009, Note_on_c, 12, 57, 0
14, 131040, Note_on_c, 12, 57, 92
14, 131489, Note_on_c, 12, 57, 0
14, 131520, Note_on_c, 12, 57, 92
14, 131969, Note_on_c, 12, 57, 0
14, 132000, Note_on_c, 12, 57, 84
14, 132119, Note_on_c, 12, 57, 0
14, 132240, Note_on_c, 12, 78, 84
14, 132359, Note_on_c, 12, 78, 0
14, 132480, Note_on_c, 12, 75, 84
14, 132599, Note_on_c, 12, 75, 0
14, 132720, Note_on_c, 12, 72, 84
14, 132839, Note_on_c, 12, 72, 0
14, 132960, Note_on_c, 12, 69, 84
14, 133079, Note_on_c, 12, 69, 0
14, 133200, Note_on_c, 12, 66, 84
14, 133319, Note_on_c, 12, 66, 0
14, 133440, Note_on_c, 12, 63, 84
14, 133559, Note_on_c, 12, 63, 0
14, 133680, Note_on_c, 12, 66, 84
14, 133799, Note_on_c, 12, 66, 0
14, 133920, Note_on_c, 12, 57, 92
14, 134369, Note_on_c, 12, 57, 0
14, 134400, Note_on_c, 12, 57, 92
14, 134849, Note_on_c, 12, 57, 0
14, 134880, Note_on_c, 12, 57, 92
14, 135329, Note_on_c, 12, 57, 0
14, 135360, Note_on_c, 12, 57, 92
14, 135809, Note_on_c, 12, 57, 0
14, 135840, Note_on_c, 12, 57, 84
14, 135959, Note_on_c, 12, 57, 0
14, 137520, Program_c, 12, 45
14, 137760, Note_on_c, 12, 62, 48
14, 137879, Note_on_c, 12, 62, 0
14, 138000, Note_on_c, 12, 62, 48
14, 138119, Note_on_c, 12, 62, 0
14, 138240, Note_on_c, 12, 60, 48
14, 138359, Note_on_c, 12, 60, 0
14, 138960, Note_on_c, 12, 60, 48
14, 139079, Note_on_c, 12, 60, 0
14, 139200, Note_on_c, 12, 62, 48
14, 139319, Note_on_c, 12, 62, 0
14, 139440, Note_on_c, 12, 65, 48
14, 139559, Note_on_c, 12, 65, 0
14, 139678, Program_c, 12, 48
14, 139680, Note_on_c, 12, 70, 76
14, 139731, Note_on_c, 12, 70, 0
14, 139740, Note_on_c, 12, 69, 76
14, 139791, Note_on_c, 12, 69, 0
14, 139800, Note_on_c, 12, 70, 76
14, 139851, Note_on_c, 12, 70, 0
14, 139860, Note_on_c, 12, 74, 76
14, 139911, Note_on_c, 12, 74, 0
14, 139920, Note_on_c, 12, 65, 76
14, 139971, Note_on_c, 12, 65, 0
14, 139980, Note_on_c, 12, 67, 76
14, 140031, Note_on_c, 12, 67, 0
14, 140040, Note_on_c, 12, 69, 76
14, 140091, Note_on_c, 12, 69, 0
14, 140100, Note_on_c, 12, 70, 76
14, 140131, Note_on_c, 12, 70, 0
14, 140140, Note_on_c, 12, 74, 76
14, 140159, Note_on_c, 12, 74, 0
14, 140160, Note_on_c, 12, 72, 76
14, 140211, Note_on_c, 12, 72, 0
14, 140220, Note_on_c, 12, 71, 76
14, 140271, Note_on_c, 12, 71, 0
14, 140280, Note_on_c, 12, 72, 76
14, 140331, Note_on_c, 12, 72, 0
14, 140340, Note_on_c, 12, 75, 76
14, 140391, Note_on_c, 12, 75, 0
14, 140400, Note_on_c, 12, 79, 76
14, 140451, Note_on_c, 12, 79, 0
14, 140460, Note_on_c, 12, 77, 76
14, 140511, Note_on_c, 12, 77, 0
14, 140520, Note_on_c, 12, 75, 76
14, 140571, Note_on_c, 12, 75, 0
14, 140580, Note_on_c, 12, 74, 76
14, 140631, Note_on_c, 12, 74, 0
14, 140640, Note_on_c, 12, 72, 76
14, 140691, Note_on_c, 12, 72, 0
14, 140700, Note_on_c, 12, 70, 76
14, 140751, Note_on_c, 12, 70, 0
14, 140760, Note_on_c, 12, 69, 76
14, 140811, Note_on_c, 12, 69, 0
14, 140820, Note_on_c, 12, 67, 76
14, 140871, Note_on_c, 12, 67, 0
14, 140880, Note_on_c, 12, 69, 76
14, 140880, Note_on_c, 12, 77, 76
14, 140999, Note_on_c, 12, 69, 0
14, 140999, Note_on_c, 12, 77, 0
14, 141120, Note_on_c, 12, 77, 76
14, 141120, Note_on_c, 12, 70, 76
14, 141239, Note_on_c, 12, 77, 0
14, 141239, Note_on_c, 12, 70, 0
14, 141360, Note_on_c, 12, 69, 76
14, 141360, Note_on_c, 12, 77, 76
14, 141479, Note_on_c, 12, 69, 0
14, 141479, Note_on_c, 12, 77, 0
14, 141600, Note_on_c, 12, 70, 76
14, 141651, Note_on_c, 12, 70, 0
14, 141660, Note_on_c, 12, 70, 76
14, 141711, Note_on_c, 12, 70, 0
14, 141720, Note_on_c, 12, 70, 76
14, 141771, Note_on_c, 12, 70, 0
14, 141780, Note_on_c, 12, 70, 76
14, 141831, Note_on_c, 12, 70, 0
14, 141840, Note_on_c, 12, 70, 76
14, 141891, Note_on_c, 12, 70, 0
14, 141900, Note_on_c, 12, 70, 76
14, 141951, Note_on_c, 12, 70, 0
14, 141960, Note_on_c, 12, 70, 76
14, 142011, Note_on_c, 12, 70, 0
14, 142020, Note_on_c, 12, 70, 76
14, 142071, Note_on_c, 12, 70, 0
14, 142080, Note_on_c, 12, 70, 76
14, 142131, Note_on_c, 12, 70, 0
14, 142140, Note_on_c, 12, 70, 76
14, 142191, Note_on_c, 12, 70, 0
14, 142200, Note_on_c, 12, 70, 76
14, 142251, Note_on_c, 12, 70, 0
14, 142260, Note_on_c, 12, 70, 76
14, 142311, Note_on_c, 12, 70, 0
14, 142320, Note_on_c, 12, 70, 76
14, 142371, Note_on_c, 12, 70, 0
14, 142380, Note_on_c, 12, 70, 76
14, 142431, Note_on_c, 12, 70, 0
14, 142440, Note_on_c, 12, 70, 76
14, 142491, Note_on_c, 12, 70, 0
14, 142500, Note_on_c, 12, 70, 76
14, 142551, Note_on_c, 12, 70, 0
14, 142560, Note_on_c, 12, 69, 76
14, 142611, Note_on_c, 12, 69, 0
14, 142620, Note_on_c, 12, 69, 76
14, 142671, Note_on_c, 12, 69, 0
14, 142680, Note_on_c, 12, 69, 76
14, 142731, Note_on_c, 12, 69, 0
14, 142740, Note_on_c, 12, 69, 76
14, 142791, Note_on_c, 12, 69, 0
14, 142800, Note_on_c, 12, 69, 76
14, 142851, Note_on_c, 12, 69, 0
14, 142860, Note_on_c, 12, 69, 76
14, 142911, Note_on_c, 12, 69, 0
14, 142920, Note_on_c, 12, 69, 76
14, 142971, Note_on_c, 12, 69, 0
14, 142980, Note_on_c, 12, 69, 76
14, 143031, Note_on_c, 12, 69, 0
14, 143040, Note_on_c, 12, 69, 76
14, 143091, Note_on_c, 12, 69, 0
14, 143100, Note_on_c, 12, 69, 76
14, 143151, Note_on_c, 12, 69, 0
14, 143160, Note_on_c, 12, 69, 76
14, 143211, Note_on_c, 12, 69, 0
14, 143220, Note_on_c, 12, 69, 76
14, 143271, Note_on_c, 12, 69, 0
14, 143280, Note_on_c, 12, 69, 76
14, 143331, Note_on_c, 12, 69, 0
14, 143340, Note_on_c, 12, 69, 76
14, 143391, Note_on_c, 12, 69, 0
14, 143400, Note_on_c, 12, 69, 76
14, 143451, Note_on_c, 12, 69, 0
14, 143460, Note_on_c, 12, 69, 76
14, 143511, Note_on_c, 12, 69, 0
14, 143520, Note_on_c, 12, 58, 76
14, 143571, Note_on_c, 12, 58, 0
14, 143580, Note_on_c, 12, 62, 76
14, 143631, Note_on_c, 12, 62, 0
14, 143640, Note_on_c, 12, 65, 76
14, 143691, Note_on_c, 12, 65, 0
14, 143700, Note_on_c, 12, 70, 76
14, 143751, Note_on_c, 12, 70, 0
14, 143760, Note_on_c, 12, 74, 76
14, 143811, Note_on_c, 12, 74, 0
14, 143820, Note_on_c, 12, 77, 76
14, 143871, Note_on_c, 12, 77, 0
14, 143880, Note_on_c, 12, 82, 76
14, 143931, Note_on_c, 12, 82, 0
14, 143940, Note_on_c, 12, 82, 76
14, 143991, Note_on_c, 12, 82, 0
14, 144000, Note_on_c, 12, 82, 76
14, 144344, Note_on_c, 12, 82, 0
14, 144360, Note_on_c, 12, 82, 76
14, 144464, Note_on_c, 12, 82, 0
14, 144480, Note_on_c, 12, 80, 76
14, 144584, Note_on_c, 12, 80, 0
14, 144600, Note_on_c, 12, 84, 76
14, 144704, Note_on_c, 12, 84, 0
14, 144720, Note_on_c, 12, 77, 76
14, 144824, Note_on_c, 12, 77, 0
14, 144840, Note_on_c, 12, 80, 76
14, 144944, Note_on_c, 12, 80, 0
14, 144960, Note_on_c, 12, 74, 76
14, 145064, Note_on_c, 12, 74, 0
14, 145080, Note_on_c, 12, 77, 76
14, 145184, Note_on_c, 12, 77, 0
14, 145200, Note_on_c, 12, 68, 76
14, 145304, Note_on_c, 12, 68, 0
14, 145320, Note_on_c, 12, 82, 76
14, 145320, Note_on_c, 12, 74, 76
14, 145424, Note_on_c, 12, 82, 0
14, 145424, Note_on_c, 12, 74, 0
14, 145440, Note_on_c, 12, 79, 76
14, 145491, Note_on_c, 12, 79, 0
14, 145500, Note_on_c, 12, 79, 76
14, 145500, Note_on_c, 12, 87, 76
14, 145551, Note_on_c, 12, 79, 0
14, 145551, Note_on_c, 12, 87, 0
14, 145560, Note_on_c, 12, 87, 76
14, 145560, Note_on_c, 12, 79, 76
14, 145611, Note_on_c, 12, 87, 0
14, 145611, Note_on_c, 12, 79, 0
14, 145620, Note_on_c, 12, 79, 76
14, 145620, Note_on_c, 12, 87, 76
14, 145671, Note_on_c, 12, 79, 0
14, 145671, Note_on_c, 12, 87, 0
14, 145680, Note_on_c, 12, 79, 76
14, 145680, Note_on_c, 12, 87, 76
14, 145731, Note_on_c, 12, 79, 0
14, 145731, Note_on_c, 12, 87, 0
14, 145740, Note_on_c, 12, 79, 76
14, 145740, Note_on_c, 12, 87, 76
14, 145791, Note_on_c, 12, 79, 0
14, 145791, Note_on_c, 12, 87, 0
14, 145800, Note_on_c, 12, 87, 76
14, 145800, Note_on_c, 12, 79, 76
14, 145851, Note_on_c, 12, 87, 0
14, 145851, Note_on_c, 12, 79, 0
14, 145860, Note_on_c, 12, 79, 76
14, 145860, Note_on_c, 12, 87, 76
14, 145911, Note_on_c, 12, 79, 0
14, 145911, Note_on_c, 12, 87, 0
14, 145920, Note_on_c, 12, 87, 76
14, 145920, Note_on_c, 12, 79, 76
14, 145971, Note_on_c, 12, 87, 0
14, 145971, Note_on_c, 12, 79, 0
14, 145980, Note_on_c, 12, 87, 76
14, 145980, Note_on_c, 12, 79, 76
14, 146031, Note_on_c, 12, 87, 0
14, 146031, Note_on_c, 12, 79, 0
14, 146040, Note_on_c, 12, 87, 76
14, 146040, Note_on_c, 12, 79, 76
14, 146091, Note_on_c, 12, 87, 0
14, 146091, Note_on_c, 12, 79, 0
14, 146100, Note_on_c, 12, 79, 76
14, 146100, Note_on_c, 12, 87, 76
14, 146151, Note_on_c, 12, 79, 0
14, 146151, Note_on_c, 12, 87, 0
14, 146160, Note_on_c, 12, 79, 76
14, 146160, Note_on_c, 12, 87, 76
14, 146211, Note_on_c, 12, 79, 0
14, 146211, Note_on_c, 12, 87, 0
14, 146220, Note_on_c, 12, 79, 76
14, 146220, Note_on_c, 12, 87, 76
14, 146271, Note_on_c, 12, 79, 0
14, 146271, Note_on_c, 12, 87, 0
14, 146280, Note_on_c, 12, 79, 76
14, 146280, Note_on_c, 12, 87, 76
14, 146331, Note_on_c, 12, 79, 0
14, 146331, Note_on_c, 12, 87, 0
14, 146340, Note_on_c, 12, 79, 76
14, 146340, Note_on_c, 12, 87, 76
14, 146391, Note_on_c, 12, 79, 0
14, 146391, Note_on_c, 12, 87, 0
14, 146400, Note_on_c, 12, 77, 76
14, 146400, Note_on_c, 12, 86, 76
14, 146451, Note_on_c, 12, 77, 0
14, 146451, Note_on_c, 12, 86, 0
14, 146460, Note_on_c, 12, 77, 76
14, 146460, Note_on_c, 12, 86, 76
14, 146511, Note_on_c, 12, 77, 0
14, 146511, Note_on_c, 12, 86, 0
14, 146520, Note_on_c, 12, 86, 76
14, 146520, Note_on_c, 12, 77, 76
14, 146571, Note_on_c, 12, 86, 0
14, 146571, Note_on_c, 12, 77, 0
14, 146580, Note_on_c, 12, 77, 76
14, 146580, Note_on_c, 12, 86, 76
14, 146631, Note_on_c, 12, 77, 0
14, 146631, Note_on_c, 12, 86, 0
14, 146640, Note_on_c, 12, 86, 76
14, 146640, Note_on_c, 12, 77, 76
14, 146691, Note_on_c, 12, 86, 0
14, 146691, Note_on_c, 12, 77, 0
14, 146700, Note_on_c, 12, 86, 76
14, 146700, Note_on_c, 12, 77, 76
14, 146751, Note_on_c, 12, 86, 0
14, 146751, Note_on_c, 12, 77, 0
14, 146760, Note_on_c, 12, 77, 76
14, 146760, Note_on_c, 12, 86, 76
14, 146811, Note_on_c, 12, 77, 0
14, 146811, Note_on_c, 12, 86, 0
14, 146820, Note_on_c, 12, 77, 76
14, 146820, Note_on_c, 12, 86, 76
14, 146871, Note_on_c, 12, 77, 0
14, 146871, Note_on_c, 12, 86, 0
14, 146880, Note_on_c, 12, 86, 76
14, 146880, Note_on_c, 12, 77, 76
14, 146931, Note_on_c, 12, 86, 0
14, 146931, Note_on_c, 12, 77, 0
14, 146940, Note_on_c, 12, 86, 76
14, 146940, Note_on_c, 12, 77, 76
14, 146991, Note_on_c, 12, 86, 0
14, 146991, Note_on_c, 12, 77, 0
14, 147000, Note_on_c, 12, 86, 76
14, 147000, Note_on_c, 12, 77, 76
14, 147051, Note_on_c, 12, 86, 0
14, 147051, Note_on_c, 12, 77, 0
14, 147060, Note_on_c, 12, 86, 76
14, 147060, Note_on_c, 12, 77, 76
14, 147111, Note_on_c, 12, 86, 0
14, 147111, Note_on_c, 12, 77, 0
14, 147120, Note_on_c, 12, 86, 76
14, 147120, Note_on_c, 12, 77, 76
14, 147171, Note_on_c, 12, 86, 0
14, 147171, Note_on_c, 12, 77, 0
14, 147180, Note_on_c, 12, 77, 76
14, 147180, Note_on_c, 12, 86, 76
14, 147231, Note_on_c, 12, 77, 0
14, 147231, Note_on_c, 12, 86, 0
14, 147240, Note_on_c, 12, 77, 76
14, 147240, Note_on_c, 12, 86, 76
14, 147291, Note_on_c, 12, 77, 0
14, 147291, Note_on_c, 12, 86, 0
14, 147300, Note_on_c, 12, 86, 76
14, 147300, Note_on_c, 12, 77, 76
14, 147359, Note_on_c, 12, 86, 0
14, 147359, Note_on_c, 12, 77, 0
14, 148320, Note_on_c, 12, 72, 52
14, 148424, Note_on_c, 12, 72, 0
14, 148440, Note_on_c, 12, 75, 52
14, 148544, Note_on_c, 12, 75, 0
14, 148560, Note_on_c, 12, 67, 52
14, 148664, Note_on_c, 12, 67, 0
14, 148680, Note_on_c, 12, 72, 52
14, 148784, Note_on_c, 12, 72, 0
14, 148800, Note_on_c, 12, 63, 52
14, 148904, Note_on_c, 12, 63, 0
14, 148920, Note_on_c, 12, 67, 52
14, 149024, Note_on_c, 12, 67, 0
14, 149040, Note_on_c, 12, 60, 52
14, 149144, Note_on_c, 12, 60, 0
14, 149160, Note_on_c, 12, 63, 52
14, 149264, Note_on_c, 12, 63, 0
14, 149280, Note_on_c, 12, 69, 76
14, 149331, Note_on_c, 12, 69, 0
14, 149340, Note_on_c, 12, 69, 76
14, 149391, Note_on_c, 12, 69, 0
14, 149400, Note_on_c, 12, 72, 76
14, 149451, Note_on_c, 12, 72, 0
14, 149460, Note_on_c, 12, 72, 76
14, 149511, Note_on_c, 12, 72, 0
14, 149520, Note_on_c, 12, 63, 76
14, 149571, Note_on_c, 12, 63, 0
14, 149580, Note_on_c, 12, 63, 76
14, 149631, Note_on_c, 12, 63, 0
14, 149640, Note_on_c, 12, 69, 76
14, 149691, Note_on_c, 12, 69, 0
14, 149700, Note_on_c, 12, 69, 76
14, 149751, Note_on_c, 12, 69, 0
14, 149760, Note_on_c, 12, 60, 76
14, 149811, Note_on_c, 12, 60, 0
14, 149820, Note_on_c, 12, 60, 76
14, 149871, Note_on_c, 12, 60, 0
14, 149880, Note_on_c, 12, 63, 76
14, 149931, Note_on_c, 12, 63, 0
14, 149940, Note_on_c, 12, 63, 76
14, 149991, Note_on_c, 12, 63, 0
14, 150000, Note_on_c, 12, 57, 76
14, 150051, Note_on_c, 12, 57, 0
14, 150060, Note_on_c, 12, 57, 76
14, 150111, Note_on_c, 12, 57, 0
14, 150120, Note_on_c, 12, 60, 76
14, 150171, Note_on_c, 12, 60, 0
14, 150180, Note_on_c, 12, 60, 76
14, 150231, Note_on_c, 12, 60, 0
14, 150240, Note_on_c, 12, 60, 84
14, 150240, Note_on_c, 12, 63, 84
14, 150291, Note_on_c, 12, 60, 0
14, 150291, Note_on_c, 12, 63, 0
14, 150300, Note_on_c, 12, 63, 84
14, 150300, Note_on_c, 12, 60, 84
14, 150351, Note_on_c, 12, 63, 0
14, 150351, Note_on_c, 12, 60, 0
14, 150360, Note_on_c, 12, 60, 84
14, 150360, Note_on_c, 12, 63, 84
14, 150411, Note_on_c, 12, 60, 0
14, 150411, Note_on_c, 12, 63, 0
14, 150420, Note_on_c, 12, 63, 84
14, 150420, Note_on_c, 12, 60, 84
14, 150471, Note_on_c, 12, 63, 0
14, 150471, Note_on_c, 12, 60, 0
14, 150480, Note_on_c, 12, 60, 84
14, 150480, Note_on_c, 12, 63, 84
14, 150531, Note_on_c, 12, 60, 0
14, 150531, Note_on_c, 12, 63, 0
14, 150540, Note_on_c, 12, 60, 84
14, 150540, Note_on_c, 12, 63, 84
14, 150591, Note_on_c, 12, 60, 0
14, 150591, Note_on_c, 12, 63, 0
14, 150600, Note_on_c, 12, 63, 84
14, 150600, Note_on_c, 12, 60, 84
14, 150651, Note_on_c, 12, 63, 0
14, 150651, Note_on_c, 12, 60, 0
14, 150660, Note_on_c, 12, 60, 84
14, 150660, Note_on_c, 12, 63, 84
14, 150711, Note_on_c, 12, 60, 0
14, 150711, Note_on_c, 12, 63, 0
14, 150720, Note_on_c, 12, 63, 84
14, 150720, Note_on_c, 12, 60, 84
14, 150771, Note_on_c, 12, 63, 0
14, 150771, Note_on_c, 12, 60, 0
14, 150780, Note_on_c, 12, 63, 84
14, 150780, Note_on_c, 12, 60, 84
14, 150831, Note_on_c, 12, 63, 0
14, 150831, Note_on_c, 12, 60, 0
14, 150840, Note_on_c, 12, 63, 84
14, 150840, Note_on_c, 12, 60, 84
14, 150891, Note_on_c, 12, 63, 0
14, 150891, Note_on_c, 12, 60, 0
14, 150900, Note_on_c, 12, 63, 84
14, 150900, Note_on_c, 12, 60, 84
14, 150951, Note_on_c, 12, 63, 0
14, 150951, Note_on_c, 12, 60, 0
14, 150960, Note_on_c, 12, 60, 84
14, 150960, Note_on_c, 12, 63, 84
14, 151011, Note_on_c, 12, 60, 0
14, 151011, Note_on_c, 12, 63, 0
14, 151020, Note_on_c, 12, 60, 84
14, 151020, Note_on_c, 12, 63, 84
14, 151071, Note_on_c, 12, 60, 0
14, 151071, Note_on_c, 12, 63, 0
14, 151080, Note_on_c, 12, 60, 84
14, 151080, Note_on_c, 12, 63, 84
14, 151131, Note_on_c, 12, 60, 0
14, 151131, Note_on_c, 12, 63, 0
14, 151140, Note_on_c, 12, 63, 84
14, 151140, Note_on_c, 12, 60, 84
14, 151191, Note_on_c, 12, 63, 0
14, 151191, Note_on_c, 12, 60, 0
14, 151200, Note_on_c, 12, 60, 84
14, 151200, Note_on_c, 12, 63, 84
14, 151251, Note_on_c, 12, 60, 0
14, 151251, Note_on_c, 12, 63, 0
14, 151260, Note_on_c, 12, 63, 84
14, 151260, Note_on_c, 12, 60, 84
14, 151311, Note_on_c, 12, 63, 0
14, 151311, Note_on_c, 12, 60, 0
14, 151320, Note_on_c, 12, 60, 84
14, 151320, Note_on_c, 12, 63, 84
14, 151371, Note_on_c, 12, 60, 0
14, 151371, Note_on_c, 12, 63, 0
14, 151380, Note_on_c, 12, 60, 84
14, 151380, Note_on_c, 12, 63, 84
14, 151431, Note_on_c, 12, 60, 0
14, 151431, Note_on_c, 12, 63, 0
14, 151440, Note_on_c, 12, 63, 84
14, 151440, Note_on_c, 12, 60, 84
14, 151491, Note_on_c, 12, 63, 0
14, 151491, Note_on_c, 12, 60, 0
14, 151500, Note_on_c, 12, 60, 84
14, 151500, Note_on_c, 12, 63, 84
14, 151551, Note_on_c, 12, 60, 0
14, 151551, Note_on_c, 12, 63, 0
14, 151560, Note_on_c, 12, 63, 84
14, 151560, Note_on_c, 12, 60, 84
14, 151611, Note_on_c, 12, 63, 0
14, 151611, Note_on_c, 12, 60, 0
14, 151620, Note_on_c, 12, 60, 84
14, 151620, Note_on_c, 12, 63, 84
14, 151671, Note_on_c, 12, 60, 0
14, 151671, Note_on_c, 12, 63, 0
14, 151680, Note_on_c, 12, 63, 84
14, 151680, Note_on_c, 12, 60, 84
14, 151799, Note_on_c, 12, 63, 0
14, 151799, Note_on_c, 12, 60, 0
14, 152160, Note_on_c, 12, 65, 52
14, 152639, Note_on_c, 12, 65, 0
14, 152640, Note_on_c, 12, 69, 52
14, 153119, Note_on_c, 12, 69, 0
14, 153120, Note_on_c, 12, 70, 52
14, 153599, Note_on_c, 12, 70, 0
14, 153600, Note_on_c, 12, 69, 52
14, 154064, Note_on_c, 12, 69, 0
14, 154080, Note_on_c, 12, 67, 52
14, 154424, Note_on_c, 12, 67, 0
14, 154440, Note_on_c, 12, 67, 52
14, 154544, Note_on_c, 12, 67, 0
14, 154560, Note_on_c, 12, 69, 52
14, 154679, Note_on_c, 12, 69, 0
14, 154800, Note_on_c, 12, 69, 52
14, 154919, Note_on_c, 12, 69, 0
14, 155040, Note_on_c, 12, 69, 52
14, 155159, Note_on_c, 12, 69, 0
14, 155280, Note_on_c, 12, 70, 52
14, 155399, Note_on_c, 12, 70, 0
14, 155520, Note_on_c, 12, 69, 52
14, 155639, Note_on_c, 12, 69, 0
14, 157920, Note_on_c, 12, 72, 52
14, 158279, Note_on_c, 12, 72, 0
14, 158280, Note_on_c, 12, 70, 52
14, 158384, Note_on_c, 12, 70, 0
14, 158400, Note_on_c, 12, 69, 52
14, 158519, Note_on_c, 12, 69, 0
14, 158520, Note_on_c, 12, 72, 52
14, 158624, Note_on_c, 12, 72, 0
14, 158640, Note_on_c, 12, 65, 52
14, 158759, Note_on_c, 12, 65, 0
14, 158760, Note_on_c, 12, 69, 52
14, 158864, Note_on_c, 12, 69, 0
14, 158880, Note_on_c, 12, 60, 52
14, 158999, Note_on_c, 12, 60, 0
14, 159000, Note_on_c, 12, 65, 52
14, 159104, Note_on_c, 12, 65, 0
14, 159120, Note_on_c, 12, 64, 52
14, 159239, Note_on_c, 12, 64, 0
14, 159240, Note_on_c, 12, 67, 52
14, 159344, Note_on_c, 12, 67, 0
14, 159360, Note_on_c, 12, 65, 52
14, 159411, Note_on_c, 12, 65, 0
14, 159420, Note_on_c, 12, 65, 52
14, 159471, Note_on_c, 12, 65, 0
14, 159480, Note_on_c, 12, 65, 52
14, 159531, Note_on_c, 12, 65, 0
14, 159540, Note_on_c, 12, 65, 52
14, 159591, Note_on_c, 12, 65, 0
14, 159600, Note_on_c, 12, 65, 52
14, 159651, Note_on_c, 12, 65, 0
14, 159660, Note_on_c, 12, 65, 52
14, 159711, Note_on_c, 12, 65, 0
14, 159720, Note_on_c, 12, 65, 52
14, 159771, Note_on_c, 12, 65, 0
14, 159780, Note_on_c, 12, 65, 52
14, 159831, Note_on_c, 12, 65, 0
14, 159840, Note_on_c, 12, 65, 52
14, 159891, Note_on_c, 12, 65, 0
14, 159900, Note_on_c, 12, 65, 52
14, 159951, Note_on_c, 12, 65, 0
14, 159960, Note_on_c, 12, 65, 52
14, 160011, Note_on_c, 12, 65, 0
14, 160020, Note_on_c, 12, 65, 52
14, 160071, Note_on_c, 12, 65, 0
14, 160080, Note_on_c, 12, 65, 52
14, 160131, Note_on_c, 12, 65, 0
14, 160140, Note_on_c, 12, 65, 52
14, 160191, Note_on_c, 12, 65, 0
14, 160200, Note_on_c, 12, 65, 52
14, 160251, Note_on_c, 12, 65, 0
14, 160260, Note_on_c, 12, 65, 52
14, 160311, Note_on_c, 12, 65, 0
14, 160320, Note_on_c, 12, 65, 52
14, 160371, Note_on_c, 12, 65, 0
14, 160380, Note_on_c, 12, 65, 52
14, 160431, Note_on_c, 12, 65, 0
14, 160440, Note_on_c, 12, 65, 52
14, 160491, Note_on_c, 12, 65, 0
14, 160500, Note_on_c, 12, 65, 52
14, 160551, Note_on_c, 12, 65, 0
14, 160560, Note_on_c, 12, 65, 52
14, 160611, Note_on_c, 12, 65, 0
14, 160620, Note_on_c, 12, 65, 52
14, 160671, Note_on_c, 12, 65, 0
14, 160680, Note_on_c, 12, 65, 76
14, 160731, Note_on_c, 12, 65, 0
14, 160740, Note_on_c, 12, 65, 76
14, 160791, Note_on_c, 12, 65, 0
14, 160800, Note_on_c, 12, 65, 76
14, 160851, Note_on_c, 12, 65, 0
14, 160860, Note_on_c, 12, 65, 76
14, 160911, Note_on_c, 12, 65, 0
14, 160920, Note_on_c, 12, 65, 76
14, 160971, Note_on_c, 12, 65, 0
14, 160980, Note_on_c, 12, 65, 76
14, 161031, Note_on_c, 12, 65, 0
14, 161040, Note_on_c, 12, 65, 76
14, 161091, Note_on_c, 12, 65, 0
14, 161100, Note_on_c, 12, 65, 76
14, 161151, Note_on_c, 12, 65, 0
14, 161160, Note_on_c, 12, 65, 76
14, 161211, Note_on_c, 12, 65, 0
14, 161220, Note_on_c, 12, 65, 76
14, 161271, Note_on_c, 12, 65, 0
14, 161280, Note_on_c, 12, 65, 76
14, 161331, Note_on_c, 12, 65, 0
14, 161340, Note_on_c, 12, 65, 76
14, 161391, Note_on_c, 12, 65, 0
14, 161400, Note_on_c, 12, 65, 76
14, 161451, Note_on_c, 12, 65, 0
14, 161460, Note_on_c, 12, 65, 76
14, 161511, Note_on_c, 12, 65, 0
14, 161520, Note_on_c, 12, 65, 52
14, 161571, Note_on_c, 12, 65, 0
14, 161580, Note_on_c, 12, 65, 52
14, 161631, Note_on_c, 12, 65, 0
14, 161640, Note_on_c, 12, 65, 52
14, 161691, Note_on_c, 12, 65, 0
14, 161700, Note_on_c, 12, 65, 52
14, 161751, Note_on_c, 12, 65, 0
14, 161760, Note_on_c, 12, 65, 52
14, 161811, Note_on_c, 12, 65, 0
14, 161820, Note_on_c, 12, 65, 52
14, 161871, Note_on_c, 12, 65, 0
14, 161880, Note_on_c, 12, 65, 52
14, 161931, Note_on_c, 12, 65, 0
14, 161940, Note_on_c, 12, 65, 52
14, 161991, Note_on_c, 12, 65, 0
14, 162000, Note_on_c, 12, 65, 52
14, 162051, Note_on_c, 12, 65, 0
14, 162060, Note_on_c, 12, 65, 52
14, 162111, Note_on_c, 12, 65, 0
14, 162120, Note_on_c, 12, 65, 52
14, 162171, Note_on_c, 12, 65, 0
14, 162180, Note_on_c, 12, 65, 52
14, 162231, Note_on_c, 12, 65, 0
14, 162240, Note_on_c, 12, 65, 52
14, 162291, Note_on_c, 12, 65, 0
14, 162300, Note_on_c, 12, 65, 52
14, 162351, Note_on_c, 12, 65, 0
14, 162360, Note_on_c, 12, 65, 52
14, 162411, Note_on_c, 12, 65, 0
14, 162420, Note_on_c, 12, 65, 52
14, 162471, Note_on_c, 12, 65, 0
14, 162480, Note_on_c, 12, 65, 52
14, 162531, Note_on_c, 12, 65, 0
14, 162540, Note_on_c, 12, 65, 52
14, 162591, Note_on_c, 12, 65, 0
14, 162600, Note_on_c, 12, 65, 76
14, 162651, Note_on_c, 12, 65, 0
14, 162660, Note_on_c, 12, 65, 76
14, 162711, Note_on_c, 12, 65, 0
14, 162720, Note_on_c, 12, 65, 76
14, 162771, Note_on_c, 12, 65, 0
14, 162780, Note_on_c, 12, 65, 76
14, 162831, Note_on_c, 12, 65, 0
14, 162840, Note_on_c, 12, 65, 76
14, 162891, Note_on_c, 12, 65, 0
14, 162900, Note_on_c, 12, 65, 76
14, 162951, Note_on_c, 12, 65, 0
14, 162960, Note_on_c, 12, 65, 76
14, 163011, Note_on_c, 12, 65, 0
14, 163020, Note_on_c, 12, 65, 76
14, 163071, Note_on_c, 12, 65, 0
14, 163080, Note_on_c, 12, 65, 76
14, 163131, Note_on_c, 12, 65, 0
14, 163140, Note_on_c, 12, 65, 76
14, 163191, Note_on_c, 12, 65, 0
14, 163200, Note_on_c, 12, 65, 76
14, 163251, Note_on_c, 12, 65, 0
14, 163260, Note_on_c, 12, 65, 76
14, 163311, Note_on_c, 12, 65, 0
14, 163320, Note_on_c, 12, 65, 76
14, 163371, Note_on_c, 12, 65, 0
14, 163380, Note_on_c, 12, 65, 76
14, 163431, Note_on_c, 12, 65, 0
14, 163440, Note_on_c, 12, 65, 76
14, 163491, Note_on_c, 12, 65, 0
14, 163500, Note_on_c, 12, 65, 76
14, 163551, Note_on_c, 12, 65, 0
14, 163560, Note_on_c, 12, 65, 76
14, 163611, Note_on_c, 12, 65, 0
14, 163620, Note_on_c, 12, 65, 76
14, 163671, Note_on_c, 12, 65, 0
14, 163680, Note_on_c, 12, 65, 76
14, 163731, Note_on_c, 12, 65, 0
14, 163740, Note_on_c, 12, 65, 76
14, 163791, Note_on_c, 12, 65, 0
14, 163800, Note_on_c, 12, 65, 76
14, 163851, Note_on_c, 12, 65, 0
14, 163860, Note_on_c, 12, 65, 76
14, 163911, Note_on_c, 12, 65, 0
14, 163920, Note_on_c, 12, 65, 76
14, 163971, Note_on_c, 12, 65, 0
14, 163980, Note_on_c, 12, 65, 76
14, 164031, Note_on_c, 12, 65, 0
14, 164040, Note_on_c, 12, 65, 76
14, 164091, Note_on_c, 12, 65, 0
14, 164100, Note_on_c, 12, 65, 76
14, 164151, Note_on_c, 12, 65, 0
14, 164160, Note_on_c, 12, 65, 76
14, 164211, Note_on_c, 12, 65, 0
14, 164220, Note_on_c, 12, 65, 76
14, 164271, Note_on_c, 12, 65, 0
14, 164280, Note_on_c, 12, 65, 76
14, 164331, Note_on_c, 12, 65, 0
14, 164340, Note_on_c, 12, 65, 76
14, 164391, Note_on_c, 12, 65, 0
14, 164400, Note_on_c, 12, 65, 76
14, 164451, Note_on_c, 12, 65, 0
14, 164460, Note_on_c, 12, 65, 76
14, 164511, Note_on_c, 12, 65, 0
14, 164520, Note_on_c, 12, 65, 76
14, 164571, Note_on_c, 12, 65, 0
14, 164580, Note_on_c, 12, 65, 76
14, 164631, Note_on_c, 12, 65, 0
14, 164640, Note_on_c, 12, 65, 76
14, 164691, Note_on_c, 12, 65, 0
14, 164700, Note_on_c, 12, 65, 76
14, 164751, Note_on_c, 12, 65, 0
14, 164760, Note_on_c, 12, 65, 76
14, 164811, Note_on_c, 12, 65, 0
14, 164820, Note_on_c, 12, 65, 76
14, 164871, Note_on_c, 12, 65, 0
14, 164880, Note_on_c, 12, 65, 76
14, 164931, Note_on_c, 12, 65, 0
14, 164940, Note_on_c, 12, 65, 76
14, 164991, Note_on_c, 12, 65, 0
14, 165000, Note_on_c, 12, 65, 76
14, 165051, Note_on_c, 12, 65, 0
14, 165060, Note_on_c, 12, 65, 76
14, 165111, Note_on_c, 12, 65, 0
14, 165120, Note_on_c, 12, 70, 84
14, 165171, Note_on_c, 12, 70, 0
14, 165180, Note_on_c, 12, 73, 84
14, 165231, Note_on_c, 12, 73, 0
14, 165240, Note_on_c, 12, 73, 84
14, 165291, Note_on_c, 12, 73, 0
14, 165300, Note_on_c, 12, 73, 84
14, 165351, Note_on_c, 12, 73, 0
14, 165360, Note_on_c, 12, 73, 84
14, 165411, Note_on_c, 12, 73, 0
14, 165420, Note_on_c, 12, 73, 84
14, 165471, Note_on_c, 12, 73, 0
14, 165480, Note_on_c, 12, 73, 84
14, 165531, Note_on_c, 12, 73, 0
14, 165540, Note_on_c, 12, 73, 84
14, 165591, Note_on_c, 12, 73, 0
14, 165600, Note_on_c, 12, 73, 84
14, 165651, Note_on_c, 12, 73, 0
14, 165660, Note_on_c, 12, 73, 84
14, 165711, Note_on_c, 12, 73, 0
14, 165720, Note_on_c, 12, 73, 84
14, 165771, Note_on_c, 12, 73, 0
14, 165780, Note_on_c, 12, 73, 84
14, 165831, Note_on_c, 12, 73, 0
14, 165840, Note_on_c, 12, 73, 84
14, 165891, Note_on_c, 12, 73, 0
14, 165900, Note_on_c, 12, 73, 84
14, 165951, Note_on_c, 12, 73, 0
14, 165960, Note_on_c, 12, 73, 84
14, 166011, Note_on_c, 12, 73, 0
14, 166020, Note_on_c, 12, 73, 84
14, 166071, Note_on_c, 12, 73, 0
14, 166080, Note_on_c, 12, 64, 92
14, 166080, Note_on_c, 12, 73, 92
14, 166529, Note_on_c, 12, 64, 0
14, 166529, Note_on_c, 12, 73, 0
14, 166560, Note_on_c, 12, 64, 92
14, 166560, Note_on_c, 12, 73, 92
14, 167009, Note_on_c, 12, 64, 0
14, 167009, Note_on_c, 12, 73, 0
14, 167040, Note_on_c, 12, 64, 92
14, 167040, Note_on_c, 12, 73, 92
14, 167489, Note_on_c, 12, 64, 0
14, 167489, Note_on_c, 12, 73, 0
14, 167520, Note_on_c, 12, 73, 92
14, 167520, Note_on_c, 12, 64, 92
14, 167969, Note_on_c, 12, 73, 0
14, 167969, Note_on_c, 12, 64, 0
14, 168000, Note_on_c, 12, 63, 52
14, 168051, Note_on_c, 12, 63, 0
14, 168060, Note_on_c, 12, 63, 52
14, 168111, Note_on_c, 12, 63, 0
14, 168120, Note_on_c, 12, 65, 52
14, 168171, Note_on_c, 12, 65, 0
14, 168180, Note_on_c, 12, 65, 52
14, 168231, Note_on_c, 12, 65, 0
14, 168240, Note_on_c, 12, 63, 52
14, 168291, Note_on_c, 12, 63, 0
14, 168300, Note_on_c, 12, 63, 52
14, 168351, Note_on_c, 12, 63, 0
14, 168360, Note_on_c, 12, 65, 52
14, 168411, Note_on_c, 12, 65, 0
14, 168420, Note_on_c, 12, 65, 52
14, 168471, Note_on_c, 12, 65, 0
14, 168480, Note_on_c, 12, 63, 52
14, 168531, Note_on_c, 12, 63, 0
14, 168540, Note_on_c, 12, 63, 52
14, 168591, Note_on_c, 12, 63, 0
14, 168600, Note_on_c, 12, 65, 52
14, 168651, Note_on_c, 12, 65, 0
14, 168660, Note_on_c, 12, 65, 52
14, 168711, Note_on_c, 12, 65, 0
14, 168720, Note_on_c, 12, 62, 52
14, 168771, Note_on_c, 12, 62, 0
14, 168780, Note_on_c, 12, 62, 52
14, 168831, Note_on_c, 12, 62, 0
14, 168840, Note_on_c, 12, 65, 52
14, 168891, Note_on_c, 12, 65, 0
14, 168900, Note_on_c, 12, 65, 52
14, 168951, Note_on_c, 12, 65, 0
14, 168960, Note_on_c, 12, 63, 52
14, 169011, Note_on_c, 12, 63, 0
14, 169020, Note_on_c, 12, 63, 52
14, 169071, Note_on_c, 12, 63, 0
14, 169080, Note_on_c, 12, 67, 52
14, 169131, Note_on_c, 12, 67, 0
14, 169140, Note_on_c, 12, 67, 52
14, 169191, Note_on_c, 12, 67, 0
14, 169200, Note_on_c, 12, 60, 52
14, 169251, Note_on_c, 12, 60, 0
14, 169260, Note_on_c, 12, 60, 52
14, 169311, Note_on_c, 12, 60, 0
14, 169320, Note_on_c, 12, 67, 52
14, 169371, Note_on_c, 12, 67, 0
14, 169380, Note_on_c, 12, 67, 52
14, 169431, Note_on_c, 12, 67, 0
14, 169440, Note_on_c, 12, 62, 52
14, 169491, Note_on_c, 12, 62, 0
14, 169500, Note_on_c, 12, 62, 52
14, 169551, Note_on_c, 12, 62, 0
14, 169560, Note_on_c, 12, 65, 52
14, 169611, Note_on_c, 12, 65, 0
14, 169620, Note_on_c, 12, 65, 52
14, 169671, Note_on_c, 12, 65, 0
14, 169680, Note_on_c, 12, 63, 52
14, 169731, Note_on_c, 12, 63, 0
14, 169740, Note_on_c, 12, 63, 52
14, 169791, Note_on_c, 12, 63, 0
14, 169800, Note_on_c, 12, 65, 52
14, 169851, Note_on_c, 12, 65, 0
14, 169860, Note_on_c, 12, 65, 52
14, 169911, Note_on_c, 12, 65, 0
14, 169920, Note_on_c, 12, 64, 84
14, 169920, Note_on_c, 12, 73, 84
14, 170384, Note_on_c, 12, 64, 0
14, 170384, Note_on_c, 12, 73, 0
14, 170400, Note_on_c, 12, 73, 92
14, 170400, Note_on_c, 12, 64, 92
14, 170849, Note_on_c, 12, 73, 0
14, 170849, Note_on_c, 12, 64, 0
14, 170880, Note_on_c, 12, 73, 92
14, 170880, Note_on_c, 12, 64, 92
14, 171329, Note_on_c, 12, 73, 0
14, 171329, Note_on_c, 12, 64, 0
14, 171360, Note_on_c, 12, 73, 92
14, 171360, Note_on_c, 12, 64, 92
14, 171809, Note_on_c, 12, 73, 0
14, 171809, Note_on_c, 12, 64, 0
14, 171840, Note_on_c, 12, 65, 52
14, 171891, Note_on_c, 12, 65, 0
14, 171900, Note_on_c, 12, 65, 52
14, 171951, Note_on_c, 12, 65, 0
14, 171960, Note_on_c, 12, 67, 52
14, 172011, Note_on_c, 12, 67, 0
14, 172020, Note_on_c, 12, 67, 52
14, 172071, Note_on_c, 12, 67, 0
14, 172080, Note_on_c, 12, 65, 52
14, 172131, Note_on_c, 12, 65, 0
14, 172140, Note_on_c, 12, 65, 52
14, 172191, Note_on_c, 12, 65, 0
14, 172200, Note_on_c, 12, 67, 52
14, 172251, Note_on_c, 12, 67, 0
14, 172260, Note_on_c, 12, 67, 52
14, 172311, Note_on_c, 12, 67, 0
14, 172320, Note_on_c, 12, 65, 52
14, 172371, Note_on_c, 12, 65, 0
14, 172380, Note_on_c, 12, 65, 52
14, 172431, Note_on_c, 12, 65, 0
14, 172440, Note_on_c, 12, 67, 52
14, 172491, Note_on_c, 12, 67, 0
14, 172500, Note_on_c, 12, 67, 52
14, 172551, Note_on_c, 12, 67, 0
14, 172560, Note_on_c, 12, 63, 52
14, 172611, Note_on_c, 12, 63, 0
14, 172620, Note_on_c, 12, 63, 52
14, 172671, Note_on_c, 12, 63, 0
14, 172680, Note_on_c, 12, 67, 52
14, 172731, Note_on_c, 12, 67, 0
14, 172740, Note_on_c, 12, 67, 52
14, 172791, Note_on_c, 12, 67, 0
14, 172800, Note_on_c, 12, 65, 52
14, 172851, Note_on_c, 12, 65, 0
14, 172860, Note_on_c, 12, 65, 52
14, 172911, Note_on_c, 12, 65, 0
14, 172920, Note_on_c, 12, 69, 52
14, 172971, Note_on_c, 12, 69, 0
14, 172980, Note_on_c, 12, 69, 52
14, 173031, Note_on_c, 12, 69, 0
14, 173040, Note_on_c, 12, 65, 52
14, 173091, Note_on_c, 12, 65, 0
14, 173100, Note_on_c, 12, 65, 52
14, 173151, Note_on_c, 12, 65, 0
14, 173160, Note_on_c, 12, 69, 52
14, 173211, Note_on_c, 12, 69, 0
14, 173220, Note_on_c, 12, 69, 52
14, 173271, Note_on_c, 12, 69, 0
14, 173280, Note_on_c, 12, 65, 52
14, 173331, Note_on_c, 12, 65, 0
14, 173340, Note_on_c, 12, 65, 52
14, 173391, Note_on_c, 12, 65, 0
14, 173400, Note_on_c, 12, 69, 52
14, 173451, Note_on_c, 12, 69, 0
14, 173460, Note_on_c, 12, 69, 52
14, 173511, Note_on_c, 12, 69, 0
14, 173520, Note_on_c, 12, 65, 52
14, 173571, Note_on_c, 12, 65, 0
14, 173580, Note_on_c, 12, 65, 52
14, 173631, Note_on_c, 12, 65, 0
14, 173640, Note_on_c, 12, 69, 52
14, 173691, Note_on_c, 12, 69, 0
14, 173700, Note_on_c, 12, 69, 52
14, 173751, Note_on_c, 12, 69, 0
14, 173760, Note_on_c, 12, 65, 52
14, 173811, Note_on_c, 12, 65, 0
14, 173820, Note_on_c, 12, 65, 52
14, 173871, Note_on_c, 12, 65, 0
14, 173880, Note_on_c, 12, 70, 52
14, 173931, Note_on_c, 12, 70, 0
14, 173940, Note_on_c, 12, 70, 53
14, 173991, Note_on_c, 12, 70, 0
14, 174000, Note_on_c, 12, 67, 54
14, 174051, Note_on_c, 12, 67, 0
14, 174060, Note_on_c, 12, 67, 55
14, 174111, Note_on_c, 12, 67, 0
14, 174120, Note_on_c, 12, 70, 56
14, 174171, Note_on_c, 12, 70, 0
14, 174180, Note_on_c, 12, 70, 57
14, 174231, Note_on_c, 12, 70, 0
14, 174240, Note_on_c, 12, 67, 58
14, 174291, Note_on_c, 12, 67, 0
14, 174300, Note_on_c, 12, 67, 59
14, 174351, Note_on_c, 12, 67, 0
14, 174360, Note_on_c, 12, 70, 60
14, 174411, Note_on_c, 12, 70, 0
14, 174420, Note_on_c, 12, 70, 61
14, 174471, Note_on_c, 12, 70, 0
14, 174480, Note_on_c, 12, 63, 62
14, 174531, Note_on_c, 12, 63, 0
14, 174540, Note_on_c, 12, 63, 63
14, 174591, Note_on_c, 12, 63, 0
14, 174600, Note_on_c, 12, 69, 64
14, 174651, Note_on_c, 12, 69, 0
14, 174660, Note_on_c, 12, 69, 65
14, 174711, Note_on_c, 12, 69, 0
14, 174720, Note_on_c, 12, 65, 66
14, 174771, Note_on_c, 12, 65, 0
14, 174780, Note_on_c, 12, 65, 68
14, 174831, Note_on_c, 12, 65, 0
14, 174840, Note_on_c, 12, 70, 69
14, 174891, Note_on_c, 12, 70, 0
14, 174900, Note_on_c, 12, 70, 70
14, 174951, Note_on_c, 12, 70, 0
14, 174960, Note_on_c, 12, 67, 71
14, 175011, Note_on_c, 12, 67, 0
14, 175020, Note_on_c, 12, 67, 72
14, 175071, Note_on_c, 12, 67, 0
14, 175080, Note_on_c, 12, 70, 73
14, 175131, Note_on_c, 12, 70, 0
14, 175140, Note_on_c, 12, 70, 74
14, 175191, Note_on_c, 12, 70, 0
14, 175200, Note_on_c, 12, 67, 75
14, 175251, Note_on_c, 12, 67, 0
14, 175260, Note_on_c, 12, 67, 76
14, 175311, Note_on_c, 12, 67, 0
14, 175320, Note_on_c, 12, 70, 77
14, 175371, Note_on_c, 12, 70, 0
14, 175380, Note_on_c, 12, 70, 78
14, 175431, Note_on_c, 12, 70, 0
14, 175440, Note_on_c, 12, 63, 79
14, 175491, Note_on_c, 12, 63, 0
14, 175500, Note_on_c, 12, 63, 80
14, 175551, Note_on_c, 12, 63, 0
14, 175560, Note_on_c, 12, 69, 81
14, 175611, Note_on_c, 12, 69, 0
14, 175620, Note_on_c, 12, 69, 82
14, 175671, Note_on_c, 12, 69, 0
14, 175680, Note_on_c, 12, 65, 84
14, 175731, Note_on_c, 12, 65, 0
14, 175740, Note_on_c, 12, 65, 84
14, 175791, Note_on_c, 12, 65, 0
14, 175800, Note_on_c, 12, 70, 84
14, 175851, Note_on_c, 12, 70, 0
14, 175860, Note_on_c, 12, 70, 84
14, 175911, Note_on_c, 12, 70, 0
14, 175920, Note_on_c, 12, 67, 84
14, 175971, Note_on_c, 12, 67, 0
14, 175980, Note_on_c, 12, 67, 84
14, 176031, Note_on_c, 12, 67, 0
14, 176040, Note_on_c, 12, 70, 84
14, 176091, Note_on_c, 12, 70, 0
14, 176100, Note_on_c, 12, 70, 84
14, 176151, Note_on_c, 12, 70, 0
14, 176160, Note_on_c, 12, 60, 84
14, 176211, Note_on_c, 12, 60, 0
14, 176220, Note_on_c, 12, 60, 84
14, 176271, Note_on_c, 12, 60, 0
14, 176280, Note_on_c, 12, 67, 84
14, 176331, Note_on_c, 12, 67, 0
14, 176340, Note_on_c, 12, 67, 84
14, 176391, Note_on_c, 12, 67, 0
14, 176400, Note_on_c, 12, 60, 84
14, 176451, Note_on_c, 12, 60, 0
14, 176460, Note_on_c, 12, 60, 84
14, 176511, Note_on_c, 12, 60, 0
14, 176520, Note_on_c, 12, 65, 84
14, 176571, Note_on_c, 12, 65, 0
14, 176580, Note_on_c, 12, 65, 84
14, 176631, Note_on_c, 12, 65, 0
14, 176640, Note_on_c, 12, 70, 84
14, 176691, Note_on_c, 12, 70, 0
14, 176700, Note_on_c, 12, 69, 84
14, 176751, Note_on_c, 12, 69, 0
14, 176760, Note_on_c, 12, 70, 84
14, 176811, Note_on_c, 12, 70, 0
14, 176820, Note_on_c, 12, 74, 84
14, 176871, Note_on_c, 12, 74, 0
14, 176880, Note_on_c, 12, 67, 84
14, 176931, Note_on_c, 12, 67, 0
14, 176940, Note_on_c, 12, 69, 84
14, 176991, Note_on_c, 12, 69, 0
14, 177000, Note_on_c, 12, 70, 84
14, 177051, Note_on_c, 12, 70, 0
14, 177060, Note_on_c, 12, 72, 84
14, 177111, Note_on_c, 12, 72, 0
14, 177120, Note_on_c, 12, 65, 84
14, 177171, Note_on_c, 12, 65, 0
14, 177180, Note_on_c, 12, 67, 84
14, 177231, Note_on_c, 12, 67, 0
14, 177240, Note_on_c, 12, 69, 84
14, 177291, Note_on_c, 12, 69, 0
14, 177300, Note_on_c, 12, 70, 84
14, 177351, Note_on_c, 12, 70, 0
14, 177360, Note_on_c, 12, 63, 84
14, 177411, Note_on_c, 12, 63, 0
14, 177420, Note_on_c, 12, 65, 84
14, 177471, Note_on_c, 12, 65, 0
14, 177480, Note_on_c, 12, 67, 84
14, 177531, Note_on_c, 12, 67, 0
14, 177540, Note_on_c, 12, 69, 84
14, 177591, Note_on_c, 12, 69, 0
14, 177600, Note_on_c, 12, 77, 84
14, 177944, Note_on_c, 12, 77, 0
14, 177960, Note_on_c, 12, 75, 84
14, 178064, Note_on_c, 12, 75, 0
14, 178080, Note_on_c, 12, 74, 84
14, 178184, Note_on_c, 12, 74, 0
14, 178200, Note_on_c, 12, 74, 84
14, 178304, Note_on_c, 12, 74, 0
14, 178320, Note_on_c, 12, 72, 84
14, 178349, Note_on_c, 12, 72, 0
14, 178350, Note_on_c, 12, 74, 84
14, 178379, Note_on_c, 12, 74, 0
14, 178380, Note_on_c, 12, 72, 84
14, 178409, Note_on_c, 12, 72, 0
14, 178410, Note_on_c, 12, 74, 84
14, 178439, Note_on_c, 12, 74, 0
14, 178440, Note_on_c, 12, 72, 84
14, 178469, Note_on_c, 12, 72, 0
14, 178470, Note_on_c, 12, 74, 84
14, 178499, Note_on_c, 12, 74, 0
14, 178500, Note_on_c, 12, 70, 84
14, 178529, Note_on_c, 12, 70, 0
14, 178530, Note_on_c, 12, 72, 84
14, 178559, Note_on_c, 12, 72, 0
14, 178560, Note_on_c, 12, 70, 84
14, 178611, Note_on_c, 12, 70, 0
14, 178620, Note_on_c, 12, 69, 84
14, 178671, Note_on_c, 12, 69, 0
14, 178680, Note_on_c, 12, 70, 84
14, 178731, Note_on_c, 12, 70, 0
14, 178740, Note_on_c, 12, 74, 84
14, 178791, Note_on_c, 12, 74, 0
14, 178800, Note_on_c, 12, 67, 84
14, 178851, Note_on_c, 12, 67, 0
14, 178860, Note_on_c, 12, 69, 84
14, 178911, Note_on_c, 12, 69, 0
14, 178920, Note_on_c, 12, 70, 84
14, 178971, Note_on_c, 12, 70, 0
14, 178980, Note_on_c, 12, 72, 84
14, 179031, Note_on_c, 12, 72, 0
14, 179040, Note_on_c, 12, 65, 84
14, 179091, Note_on_c, 12, 65, 0
14, 179100, Note_on_c, 12, 67, 84
14, 179151, Note_on_c, 12, 67, 0
14, 179160, Note_on_c, 12, 69, 84
14, 179211, Note_on_c, 12, 69, 0
14, 179220, Note_on_c, 12, 70, 84
14, 179271, Note_on_c, 12, 70, 0
14, 179280, Note_on_c, 12, 63, 84
14, 179331, Note_on_c, 12, 63, 0
14, 179340, Note_on_c, 12, 65, 84
14, 179391, Note_on_c, 12, 65, 0
14, 179400, Note_on_c, 12, 67, 84
14, 179451, Note_on_c, 12, 67, 0
14, 179460, Note_on_c, 12, 69, 84
14, 179511, Note_on_c, 12, 69, 0
14, 179520, Note_on_c, 12, 62, 84
14, 179624, Note_on_c, 12, 62, 0
14, 179640, Note_on_c, 12, 77, 84
14, 179864, Note_on_c, 12, 77, 0
14, 179880, Note_on_c, 12, 75, 84
14, 179984, Note_on_c, 12, 75, 0
14, 180000, Note_on_c, 12, 74, 84
14, 180104, Note_on_c, 12, 74, 0
14, 180120, Note_on_c, 12, 74, 84
14, 180224, Note_on_c, 12, 74, 0
14, 180240, Note_on_c, 12, 72, 84
14, 180269, Note_on_c, 12, 72, 0
14, 180270, Note_on_c, 12, 74, 84
14, 180299, Note_on_c, 12, 74, 0
14, 180300, Note_on_c, 12, 72, 84
14, 180329, Note_on_c, 12, 72, 0
14, 180330, Note_on_c, 12, 74, 84
14, 180359, Note_on_c, 12, 74, 0
14, 180360, Note_on_c, 12, 72, 84
14, 180389, Note_on_c, 12, 72, 0
14, 180390, Note_on_c, 12, 74, 84
14, 180419, Note_on_c, 12, 74, 0
14, 180420, Note_on_c, 12, 70, 84
14, 180449, Note_on_c, 12, 70, 0
14, 180450, Note_on_c, 12, 72, 84
14, 180479, Note_on_c, 12, 72, 0
14, 180480, Note_on_c, 12, 70, 84
14, 180531, Note_on_c, 12, 70, 0
14, 180540, Note_on_c, 12, 69, 84
14, 180591, Note_on_c, 12, 69, 0
14, 180600, Note_on_c, 12, 70, 84
14, 180651, Note_on_c, 12, 70, 0
14, 180660, Note_on_c, 12, 74, 84
14, 180711, Note_on_c, 12, 74, 0
14, 180720, Note_on_c, 12, 65, 84
14, 180771, Note_on_c, 12, 65, 0
14, 180780, Note_on_c, 12, 67, 84
14, 180831, Note_on_c, 12, 67, 0
14, 180840, Note_on_c, 12, 68, 84
14, 180891, Note_on_c, 12, 68, 0
14, 180900, Note_on_c, 12, 69, 84
14, 180951, Note_on_c, 12, 69, 0
14, 180960, Note_on_c, 12, 70, 84
14, 181011, Note_on_c, 12, 70, 0
14, 181020, Note_on_c, 12, 69, 84
14, 181071, Note_on_c, 12, 69, 0
14, 181080, Note_on_c, 12, 70, 84
14, 181131, Note_on_c, 12, 70, 0
14, 181140, Note_on_c, 12, 74, 84
14, 181191, Note_on_c, 12, 74, 0
14, 181200, Note_on_c, 12, 65, 84
14, 181251, Note_on_c, 12, 65, 0
14, 181260, Note_on_c, 12, 67, 84
14, 181311, Note_on_c, 12, 67, 0
14, 181320, Note_on_c, 12, 68, 84
14, 181371, Note_on_c, 12, 68, 0
14, 181380, Note_on_c, 12, 69, 84
14, 181431, Note_on_c, 12, 69, 0
14, 181440, Note_on_c, 12, 70, 84
14, 181491, Note_on_c, 12, 70, 0
14, 181500, Note_on_c, 12, 69, 84
14, 181551, Note_on_c, 12, 69, 0
14, 181560, Note_on_c, 12, 70, 84
14, 181611, Note_on_c, 12, 70, 0
14, 181620, Note_on_c, 12, 74, 84
14, 181671, Note_on_c, 12, 74, 0
14, 181680, Note_on_c, 12, 65, 84
14, 181731, Note_on_c, 12, 65, 0
14, 181740, Note_on_c, 12, 67, 84
14, 181791, Note_on_c, 12, 67, 0
14, 181800, Note_on_c, 12, 68, 84
14, 181851, Note_on_c, 12, 68, 0
14, 181860, Note_on_c, 12, 69, 84
14, 181911, Note_on_c, 12, 69, 0
14, 181920, Note_on_c, 12, 70, 84
14, 181971, Note_on_c, 12, 70, 0
14, 181980, Note_on_c, 12, 69, 84
14, 182031, Note_on_c, 12, 69, 0
14, 182040, Note_on_c, 12, 70, 84
14, 182091, Note_on_c, 12, 70, 0
14, 182100, Note_on_c, 12, 74, 84
14, 182151, Note_on_c, 12, 74, 0
14, 182160, Note_on_c, 12, 65, 84
14, 182211, Note_on_c, 12, 65, 0
14, 182220, Note_on_c, 12, 67, 84
14, 182271, Note_on_c, 12, 67, 0
14, 182280, Note_on_c, 12, 68, 84
14, 182331, Note_on_c, 12, 68, 0
14, 182340, Note_on_c, 12, 69, 84
14, 182391, Note_on_c, 12, 69, 0
14, 182400, Note_on_c, 12, 70, 52
14, 182504, Note_on_c, 12, 70, 0
14, 182520, Note_on_c, 12, 65, 52
14, 182639, Note_on_c, 12, 65, 0
14, 182760, Note_on_c, 12, 65, 52
14, 182864, Note_on_c, 12, 65, 0
14, 182880, Note_on_c, 12, 65, 52
14, 182984, Note_on_c, 12, 65, 0
14, 183000, Note_on_c, 12, 65, 52
14, 183119, Note_on_c, 12, 65, 0
14, 183240, Note_on_c, 12, 65, 52
14, 183344, Note_on_c, 12, 65, 0
14, 183360, Note_on_c, 12, 65, 52
14, 183464, Note_on_c, 12, 65, 0
14, 183480, Note_on_c, 12, 65, 52
14, 183599, Note_on_c, 12, 65, 0
14, 183720, Note_on_c, 12, 65, 52
14, 183824, Note_on_c, 12, 65, 0
14, 183840, Note_on_c, 12, 65, 52
14, 183944, Note_on_c, 12, 65, 0
14, 183960, Note_on_c, 12, 65, 52
14, 184064, Note_on_c, 12, 65, 0
14, 184080, Note_on_c, 12, 67, 52
14, 184184, Note_on_c, 12, 67, 0
14, 184200, Note_on_c, 12, 67, 52
14, 184304, Note_on_c, 12, 67, 0
14, 184320, Note_on_c, 12, 67, 52
14, 184439, Note_on_c, 12, 67, 0
14, 184440, Note_on_c, 12, 67, 52
14, 184544, Note_on_c, 12, 67, 0
14, 184680, Note_on_c, 12, 67, 54
14, 184784, Note_on_c, 12, 67, 0
14, 184800, Note_on_c, 12, 67, 55
14, 184904, Note_on_c, 12, 67, 0
14, 184920, Note_on_c, 12, 67, 55
14, 185039, Note_on_c, 12, 67, 0
14, 185160, Note_on_c, 12, 67, 57
14, 185264, Note_on_c, 12, 67, 0
14, 185280, Note_on_c, 12, 67, 58
14, 185384, Note_on_c, 12, 67, 0
14, 185400, Note_on_c, 12, 67, 58
14, 185519, Note_on_c, 12, 67, 0
14, 185640, Note_on_c, 12, 67, 60
14, 185744, Note_on_c, 12, 67, 0
14, 185760, Note_on_c, 12, 67, 61
14, 185864, Note_on_c, 12, 67, 0
14, 185880, Note_on_c, 12, 67, 61
14, 185984, Note_on_c, 12, 67, 0
14, 186000, Note_on_c, 12, 68, 62
14, 186104, Note_on_c, 12, 68, 0
14, 186120, Note_on_c, 12, 68, 63
14, 186224, Note_on_c, 12, 68, 0
14, 186240, Note_on_c, 12, 68, 64
14, 186344, Note_on_c, 12, 68, 0
14, 186360, Note_on_c, 12, 68, 64
14, 186479, Note_on_c, 12, 68, 0
14, 186600, Note_on_c, 12, 68, 66
14, 186704, Note_on_c, 12, 68, 0
14, 186720, Note_on_c, 12, 68, 67
14, 186824, Note_on_c, 12, 68, 0
14, 186840, Note_on_c, 12, 68, 67
14, 186944, Note_on_c, 12, 68, 0
14, 186960, Note_on_c, 12, 70, 68
14, 187064, Note_on_c, 12, 70, 0
14, 187080, Note_on_c, 12, 70, 69
14, 187184, Note_on_c, 12, 70, 0
14, 187200, Note_on_c, 12, 70, 70
14, 187304, Note_on_c, 12, 70, 0
14, 187320, Note_on_c, 12, 70, 70
14, 187439, Note_on_c, 12, 70, 0
14, 187560, Note_on_c, 12, 70, 72
14, 187664, Note_on_c, 12, 70, 0
14, 187680, Note_on_c, 12, 70, 73
14, 187784, Note_on_c, 12, 70, 0
14, 187800, Note_on_c, 12, 70, 73
14, 187904, Note_on_c, 12, 70, 0
14, 187920, Note_on_c, 12, 72, 74
14, 188024, Note_on_c, 12, 72, 0
14, 188040, Note_on_c, 12, 72, 75
14, 188144, Note_on_c, 12, 72, 0
14, 188160, Note_on_c, 12, 72, 76
14, 188264, Note_on_c, 12, 72, 0
14, 188280, Note_on_c, 12, 72, 76
14, 188384, Note_on_c, 12, 72, 0
14, 188400, Note_on_c, 12, 75, 84
14, 188459, Note_on_c, 12, 75, 0
14, 188460, Note_on_c, 12, 74, 76
14, 188519, Note_on_c, 12, 74, 0
14, 188520, Note_on_c, 12, 75, 76
14, 188579, Note_on_c, 12, 75, 0
14, 188580, Note_on_c, 12, 78, 76
14, 188631, Note_on_c, 12, 78, 0
14, 188640, Note_on_c, 12, 72, 76
14, 188744, Note_on_c, 12, 72, 0
14, 188760, Note_on_c, 12, 72, 76
14, 188864, Note_on_c, 12, 72, 0
14, 188880, Note_on_c, 12, 75, 84
14, 188939, Note_on_c, 12, 75, 0
14, 188940, Note_on_c, 12, 74, 76
14, 188999, Note_on_c, 12, 74, 0
14, 189000, Note_on_c, 12, 75, 76
14, 189059, Note_on_c, 12, 75, 0
14, 189060, Note_on_c, 12, 78, 76
14, 189111, Note_on_c, 12, 78, 0
14, 189120, Note_on_c, 12, 72, 76
14, 189224, Note_on_c, 12, 72, 0
14, 189240, Note_on_c, 12, 72, 76
14, 189344, Note_on_c, 12, 72, 0
14, 189360, Note_on_c, 12, 75, 84
14, 189419, Note_on_c, 12, 75, 0
14, 189420, Note_on_c, 12, 74, 76
14, 189479, Note_on_c, 12, 74, 0
14, 189480, Note_on_c, 12, 75, 76
14, 189539, Note_on_c, 12, 75, 0
14, 189540, Note_on_c, 12, 78, 76
14, 189591, Note_on_c, 12, 78, 0
14, 189600, Note_on_c, 12, 72, 76
14, 189704, Note_on_c, 12, 72, 0
14, 189720, Note_on_c, 12, 72, 76
14, 189824, Note_on_c, 12, 72, 0
14, 189840, Note_on_c, 12, 75, 84
14, 189899, Note_on_c, 12, 75, 0
14, 189900, Note_on_c, 12, 74, 76
14, 189959, Note_on_c, 12, 74, 0
14, 189960, Note_on_c, 12, 75, 76
14, 190019, Note_on_c, 12, 75, 0
14, 190020, Note_on_c, 12, 78, 76
14, 190071, Note_on_c, 12, 78, 0
14, 190320, Note_on_c, 12, 75, 73
14, 190379, Note_on_c, 12, 75, 0
14, 190380, Note_on_c, 12, 74, 72
14, 190439, Note_on_c, 12, 74, 0
14, 190440, Note_on_c, 12, 75, 71
14, 190499, Note_on_c, 12, 75, 0
14, 190500, Note_on_c, 12, 78, 70
14, 190559, Note_on_c, 12, 78, 0
14, 190800, Note_on_c, 12, 74, 66
14, 190859, Note_on_c, 12, 74, 0
14, 190860, Note_on_c, 12, 73, 65
14, 190919, Note_on_c, 12, 73, 0
14, 190920, Note_on_c, 12, 74, 64
14, 190979, Note_on_c, 12, 74, 0
14, 190980, Note_on_c, 12, 77, 64
14, 191039, Note_on_c, 12, 77, 0
14, 191280, Note_on_c, 12, 72, 59
14, 191339, Note_on_c, 12, 72, 0
14, 191340, Note_on_c, 12, 71, 58
14, 191399, Note_on_c, 12, 71, 0
14, 191400, Note_on_c, 12, 72, 58
14, 191459, Note_on_c, 12, 72, 0
14, 191460, Note_on_c, 12, 75, 57
14, 191519, Note_on_c, 12, 75, 0
14, 193920, Note_on_c, 12, 70, 84
14, 193971, Note_on_c, 12, 70, 0
14, 193980, Note_on_c, 12, 69, 84
14, 194031, Note_on_c, 12, 69, 0
14, 194040, Note_on_c, 12, 70, 84
14, 194091, Note_on_c, 12, 70, 0
14, 194100, Note_on_c, 12, 74, 84
14, 194151, Note_on_c, 12, 74, 0
14, 194160, Note_on_c, 12, 65, 84
14, 194211, Note_on_c, 12, 65, 0
14, 194220, Note_on_c, 12, 67, 84
14, 194271, Note_on_c, 12, 67, 0
14, 194280, Note_on_c, 12, 69, 84
14, 194331, Note_on_c, 12, 69, 0
14, 194340, Note_on_c, 12, 70, 84
14, 194371, Note_on_c, 12, 70, 0
14, 194380, Note_on_c, 12, 74, 84
14, 194399, Note_on_c, 12, 74, 0
14, 194400, Note_on_c, 12, 72, 84
14, 194451, Note_on_c, 12, 72, 0
14, 194460, Note_on_c, 12, 71, 84
14, 194511, Note_on_c, 12, 71, 0
14, 194520, Note_on_c, 12, 72, 84
14, 194571, Note_on_c, 12, 72, 0
14, 194580, Note_on_c, 12, 75, 84
14, 194631, Note_on_c, 12, 75, 0
14, 194640, Note_on_c, 12, 79, 84
14, 194691, Note_on_c, 12, 79, 0
14, 194700, Note_on_c, 12, 77, 84
14, 194751, Note_on_c, 12, 77, 0
14, 194760, Note_on_c, 12, 75, 84
14, 194811, Note_on_c, 12, 75, 0
14, 194820, Note_on_c, 12, 74, 84
14, 194871, Note_on_c, 12, 74, 0
14, 194880, Note_on_c, 12, 72, 84
14, 194931, Note_on_c, 12, 72, 0
14, 194940, Note_on_c, 12, 70, 84
14, 194991, Note_on_c, 12, 70, 0
14, 195000, Note_on_c, 12, 69, 84
14, 195051, Note_on_c, 12, 69, 0
14, 195060, Note_on_c, 12, 67, 84
14, 195111, Note_on_c, 12, 67, 0
14, 195120, Note_on_c, 12, 65, 84
14, 195171, Note_on_c, 12, 65, 0
14, 195180, Note_on_c, 12, 63, 84
14, 195231, Note_on_c, 12, 63, 0
14, 195240, Note_on_c, 12, 62, 84
14, 195291, Note_on_c, 12, 62, 0
14, 195300, Note_on_c, 12, 60, 84
14, 195351, Note_on_c, 12, 60, 0
14, 195360, Note_on_c, 12, 58, 84
14, 195411, Note_on_c, 12, 58, 0
14, 195420, Note_on_c, 12, 62, 84
14, 195471, Note_on_c, 12, 62, 0
14, 195480, Note_on_c, 12, 65, 84
14, 195531, Note_on_c, 12, 65, 0
14, 195540, Note_on_c, 12, 70, 84
14, 195591, Note_on_c, 12, 70, 0
14, 195600, Note_on_c, 12, 79, 84
14, 195651, Note_on_c, 12, 79, 0
14, 195660, Note_on_c, 12, 77, 84
14, 195711, Note_on_c, 12, 77, 0
14, 195720, Note_on_c, 12, 75, 84
14, 195771, Note_on_c, 12, 75, 0
14, 195780, Note_on_c, 12, 74, 84
14, 195831, Note_on_c, 12, 74, 0
14, 195840, Note_on_c, 12, 72, 84
14, 195891, Note_on_c, 12, 72, 0
14, 195900, Note_on_c, 12, 70, 84
14, 195951, Note_on_c, 12, 70, 0
14, 195960, Note_on_c, 12, 69, 84
14, 196011, Note_on_c, 12, 69, 0
14, 196020, Note_on_c, 12, 67, 84
14, 196071, Note_on_c, 12, 67, 0
14, 196080, Note_on_c, 12, 65, 84
14, 196131, Note_on_c, 12, 65, 0
14, 196140, Note_on_c, 12, 63, 84
14, 196191, Note_on_c, 12, 63, 0
14, 196200, Note_on_c, 12, 62, 84
14, 196251, Note_on_c, 12, 62, 0
14, 196260, Note_on_c, 12, 60, 84
14, 196311, Note_on_c, 12, 60, 0
14, 196320, Note_on_c, 12, 58, 84
14, 196371, Note_on_c, 12, 58, 0
14, 196380, Note_on_c, 12, 62, 84
14, 196431, Note_on_c, 12, 62, 0
14, 196440, Note_on_c, 12, 65, 84
14, 196491, Note_on_c, 12, 65, 0
14, 196500, Note_on_c, 12, 70, 84
14, 196551, Note_on_c, 12, 70, 0
14, 196560, Note_on_c, 12, 79, 84
14, 196611, Note_on_c, 12, 79, 0
14, 196620, Note_on_c, 12, 77, 84
14, 196671, Note_on_c, 12, 77, 0
14, 196680, Note_on_c, 12, 75, 84
14, 196731, Note_on_c, 12, 75, 0
14, 196740, Note_on_c, 12, 74, 84
14, 196791, Note_on_c, 12, 74, 0
14, 196800, Note_on_c, 12, 72, 84
14, 196851, Note_on_c, 12, 72, 0
14, 196860, Note_on_c, 12, 70, 84
14, 196911, Note_on_c, 12, 70, 0
14, 196920, Note_on_c, 12, 69, 84
14, 196971, Note_on_c, 12, 69, 0
14, 196980, Note_on_c, 12, 67, 84
14, 197031, Note_on_c, 12, 67, 0
14, 197040, Note_on_c, 12, 65, 84
14, 197091, Note_on_c, 12, 65, 0
14, 197100, Note_on_c, 12, 63, 84
14, 197151, Note_on_c, 12, 63, 0
14, 197160, Note_on_c, 12, 62, 84
14, 197211, Note_on_c, 12, 62, 0
14, 197220, Note_on_c, 12, 60, 84
14, 197271, Note_on_c, 12, 60, 0
14, 197280, Note_on_c, 12, 58, 84
14, 197331, Note_on_c, 12, 58, 0
14, 197340, Note_on_c, 12, 62, 84
14, 197391, Note_on_c, 12, 62, 0
14, 197400, Note_on_c, 12, 65, 84
14, 197451, Note_on_c, 12, 65, 0
14, 197460, Note_on_c, 12, 70, 84
14, 197511, Note_on_c, 12, 70, 0
14, 197520, Note_on_c, 12, 79, 84
14, 197571, Note_on_c, 12, 79, 0
14, 197580, Note_on_c, 12, 77, 84
14, 197631, Note_on_c, 12, 77, 0
14, 197640, Note_on_c, 12, 75, 84
14, 197691, Note_on_c, 12, 75, 0
14, 197700, Note_on_c, 12, 74, 84
14, 197751, Note_on_c, 12, 74, 0
14, 197760, Note_on_c, 12, 72, 84
14, 197811, Note_on_c, 12, 72, 0
14, 197820, Note_on_c, 12, 70, 84
14, 197871, Note_on_c, 12, 70, 0
14, 197880, Note_on_c, 12, 69, 84
14, 197931, Note_on_c, 12, 69, 0
14, 197940, Note_on_c, 12, 67, 84
14, 197991, Note_on_c, 12, 67, 0
14, 198000, Note_on_c, 12, 65, 84
14, 198051, Note_on_c, 12, 65, 0
14, 198060, Note_on_c, 12, 63, 84
14, 198111, Note_on_c, 12, 63, 0
14, 198120, Note_on_c, 12, 62, 84
14, 198171, Note_on_c, 12, 62, 0
14, 198180, Note_on_c, 12, 60, 84
14, 198231, Note_on_c, 12, 60, 0
14, 198240, Note_on_c, 12, 58, 84
14, 198291, Note_on_c, 12, 58, 0
14, 198300, Note_on_c, 12, 62, 84
14, 198351, Note_on_c, 12, 62, 0
14, 198360, Note_on_c, 12, 65, 84
14, 198411, Note_on_c, 12, 65, 0
14, 198420, Note_on_c, 12, 70, 84
14, 198471, Note_on_c, 12, 70, 0
14, 198480, Note_on_c, 12, 73, 84
14, 198480, Note_on_c, 12, 76, 84
14, 198531, Note_on_c, 12, 73, 0
14, 198531, Note_on_c, 12, 76, 0
14, 198540, Note_on_c, 12, 76, 84
14, 198540, Note_on_c, 12, 73, 84
14, 198591, Note_on_c, 12, 76, 0
14, 198591, Note_on_c, 12, 73, 0
14, 198600, Note_on_c, 12, 76, 84
14, 198600, Note_on_c, 12, 73, 84
14, 198651, Note_on_c, 12, 76, 0
14, 198651, Note_on_c, 12, 73, 0
14, 198660, Note_on_c, 12, 73, 84
14, 198660, Note_on_c, 12, 76, 84
14, 198711, Note_on_c, 12, 73, 0
14, 198711, Note_on_c, 12, 76, 0
14, 198720, Note_on_c, 12, 76, 84
14, 198720, Note_on_c, 12, 73, 84
14, 198771, Note_on_c, 12, 76, 0
14, 198771, Note_on_c, 12, 73, 0
14, 198780, Note_on_c, 12, 76, 84
14, 198780, Note_on_c, 12, 73, 84
14, 198831, Note_on_c, 12, 76, 0
14, 198831, Note_on_c, 12, 73, 0
14, 198840, Note_on_c, 12, 73, 84
14, 198840, Note_on_c, 12, 76, 84
14, 198891, Note_on_c, 12, 73, 0
14, 198891, Note_on_c, 12, 76, 0
14, 198900, Note_on_c, 12, 76, 84
14, 198900, Note_on_c, 12, 73, 84
14, 198951, Note_on_c, 12, 76, 0
14, 198951, Note_on_c, 12, 73, 0
14, 198960, Note_on_c, 12, 73, 84
14, 198960, Note_on_c, 12, 76, 84
14, 199011, Note_on_c, 12, 73, 0
14, 199011, Note_on_c, 12, 76, 0
14, 199020, Note_on_c, 12, 76, 84
14, 199020, Note_on_c, 12, 73, 84
14, 199071, Note_on_c, 12, 76, 0
14, 199071, Note_on_c, 12, 73, 0
14, 199080, Note_on_c, 12, 76, 84
14, 199080, Note_on_c, 12, 73, 84
14, 199131, Note_on_c, 12, 76, 0
14, 199131, Note_on_c, 12, 73, 0
14, 199140, Note_on_c, 12, 73, 84
14, 199140, Note_on_c, 12, 76, 84
14, 199191, Note_on_c, 12, 73, 0
14, 199191, Note_on_c, 12, 76, 0
14, 199200, Note_on_c, 12, 76, 84
14, 199200, Note_on_c, 12, 73, 84
14, 199251, Note_on_c, 12, 76, 0
14, 199251, Note_on_c, 12, 73, 0
14, 199260, Note_on_c, 12, 76, 84
14, 199260, Note_on_c, 12, 73, 84
14, 199311, Note_on_c, 12, 76, 0
14, 199311, Note_on_c, 12, 73, 0
14, 199320, Note_on_c, 12, 76, 84
14, 199320, Note_on_c, 12, 73, 84
14, 199371, Note_on_c, 12, 76, 0
14, 199371, Note_on_c, 12, 73, 0
14, 199380, Note_on_c, 12, 76, 84
14, 199380, Note_on_c, 12, 73, 84
14, 199431, Note_on_c, 12, 76, 0
14, 199431, Note_on_c, 12, 73, 0
14, 199440, Note_on_c, 12, 73, 84
14, 199440, Note_on_c, 12, 76, 84
14, 199491, Note_on_c, 12, 73, 0
14, 199491, Note_on_c, 12, 76, 0
14, 199500, Note_on_c, 12, 73, 84
14, 199500, Note_on_c, 12, 76, 84
14, 199551, Note_on_c, 12, 73, 0
14, 199551, Note_on_c, 12, 76, 0
14, 199560, Note_on_c, 12, 73, 84
14, 199560, Note_on_c, 12, 76, 84
14, 199611, Note_on_c, 12, 73, 0
14, 199611, Note_on_c, 12, 76, 0
14, 199620, Note_on_c, 12, 73, 84
14, 199620, Note_on_c, 12, 76, 84
14, 199671, Note_on_c, 12, 73, 0
14, 199671, Note_on_c, 12, 76, 0
14, 199680, Note_on_c, 12, 73, 84
14, 199680, Note_on_c, 12, 76, 84
14, 199731, Note_on_c, 12, 73, 0
14, 199731, Note_on_c, 12, 76, 0
14, 199740, Note_on_c, 12, 76, 84
14, 199740, Note_on_c, 12, 73, 84
14, 199791, Note_on_c, 12, 76, 0
14, 199791, Note_on_c, 12, 73, 0
14, 199800, Note_on_c, 12, 73, 84
14, 199800, Note_on_c, 12, 76, 84
14, 199851, Note_on_c, 12, 73, 0
14, 199851, Note_on_c, 12, 76, 0
14, 199860, Note_on_c, 12, 76, 84
14, 199860, Note_on_c, 12, 73, 84
14, 199911, Note_on_c, 12, 76, 0
14, 199911, Note_on_c, 12, 73, 0
14, 199920, Note_on_c, 12, 73, 84
14, 199920, Note_on_c, 12, 76, 84
14, 199971, Note_on_c, 12, 73, 0
14, 199971, Note_on_c, 12, 76, 0
14, 199980, Note_on_c, 12, 73, 84
14, 199980, Note_on_c, 12, 76, 84
14, 200031, Note_on_c, 12, 73, 0
14, 200031, Note_on_c, 12, 76, 0
14, 200040, Note_on_c, 12, 76, 84
14, 200040, Note_on_c, 12, 73, 84
14, 200091, Note_on_c, 12, 76, 0
14, 200091, Note_on_c, 12, 73, 0
14, 200100, Note_on_c, 12, 73, 84
14, 200100, Note_on_c, 12, 76, 84
14, 200151, Note_on_c, 12, 73, 0
14, 200151, Note_on_c, 12, 76, 0
14, 200160, Note_on_c, 12, 73, 84
14, 200160, Note_on_c, 12, 76, 84
14, 200211, Note_on_c, 12, 73, 0
14, 200211, Note_on_c, 12, 76, 0
14, 200220, Note_on_c, 12, 73, 84
14, 200220, Note_on_c, 12, 76, 84
14, 200271, Note_on_c, 12, 73, 0
14, 200271, Note_on_c, 12, 76, 0
14, 200280, Note_on_c, 12, 76, 84
14, 200280, Note_on_c, 12, 73, 84
14, 200331, Note_on_c, 12, 76, 0
14, 200331, Note_on_c, 12, 73, 0
14, 200340, Note_on_c, 12, 76, 84
14, 200340, Note_on_c, 12, 73, 84
14, 200391, Note_on_c, 12, 76, 0
14, 200391, Note_on_c, 12, 73, 0
14, 200400, Note_on_c, 12, 73, 84
14, 200400, Note_on_c, 12, 76, 84
14, 200451, Note_on_c, 12, 73, 0
14, 200451, Note_on_c, 12, 76, 0
14, 200460, Note_on_c, 12, 76, 84
14, 200460, Note_on_c, 12, 73, 84
14, 200511, Note_on_c, 12, 76, 0
14, 200511, Note_on_c, 12, 73, 0
14, 200520, Note_on_c, 12, 76, 84
14, 200520, Note_on_c, 12, 73, 84
14, 200571, Note_on_c, 12, 76, 0
14, 200571, Note_on_c, 12, 73, 0
14, 200580, Note_on_c, 12, 76, 84
14, 200580, Note_on_c, 12, 73, 84
14, 200631, Note_on_c, 12, 76, 0
14, 200631, Note_on_c, 12, 73, 0
14, 200640, Note_on_c, 12, 66, 92
14, 200699, Note_on_c, 12, 66, 0
14, 200700, Note_on_c, 12, 66, 84
14, 200700, Control_c, 12, 11, 127
14, 200738, Control_c, 12, 11, 124
14, 200775, Control_c, 12, 11, 122
14, 200813, Control_c, 12, 11, 119
14, 200850, Control_c, 12, 11, 117
14, 200888, Control_c, 12, 11, 114
14, 200925, Control_c, 12, 11, 111
14, 200963, Control_c, 12, 11, 109
14, 201000, Control_c, 12, 11, 106
14, 201038, Control_c, 12, 11, 103
14, 201075, Control_c, 12, 11, 101
14, 201113, Control_c, 12, 11, 98
14, 201150, Control_c, 12, 11, 96
14, 201188, Control_c, 12, 11, 93
14, 201225, Control_c, 12, 11, 90
14, 201263, Control_c, 12, 11, 88
14, 201300, Control_c, 12, 11, 85
14, 201338, Control_c, 12, 11, 82
14, 201375, Control_c, 12, 11, 80
14, 201413, Control_c, 12, 11, 77
14, 201450, Control_c, 12, 11, 75
14, 201488, Control_c, 12, 11, 72
14, 201525, Control_c, 12, 11, 69
14, 201563, Control_c, 12, 11, 64
14, 201584, Note_on_c, 12, 66, 0
14, 201600, Note_on_c, 12, 65, 84
14, 202079, Note_on_c, 12, 65, 0
14, 202320, Control_c, 12, 11, 127
14, 203520, Note_on_c, 12, 60, 44
14, 203520, Note_on_c, 12, 63, 44
14, 203639, Note_on_c, 12, 60, 0
14, 203639, Note_on_c, 12, 63, 0
14, 203760, Note_on_c, 12, 60, 44
14, 203760, Note_on_c, 12, 63, 44
14, 203879, Note_on_c, 12, 60, 0
14, 203879, Note_on_c, 12, 63, 0
14, 204000, Note_on_c, 12, 62, 44
14, 204000, Note_on_c, 12, 58, 44
14, 204119, Note_on_c, 12, 62, 0
14, 204119, Note_on_c, 12, 58, 0
14, 205440, Note_on_c, 12, 60, 44
14, 205440, Note_on_c, 12, 63, 44
14, 205559, Note_on_c, 12, 60, 0
14, 205559, Note_on_c, 12, 63, 0
14, 205680, Note_on_c, 12, 60, 44
14, 205680, Note_on_c, 12, 63, 44
14, 205799, Note_on_c, 12, 60, 0
14, 205799, Note_on_c, 12, 63, 0
14, 205920, Note_on_c, 12, 58, 44
14, 205920, Note_on_c, 12, 62, 44
14, 206039, Note_on_c, 12, 58, 0
14, 206039, Note_on_c, 12, 62, 0
14, 206160, Note_on_c, 12, 58, 44
14, 206211, Note_on_c, 12, 58, 0
14, 206220, Note_on_c, 12, 57, 44
14, 206271, Note_on_c, 12, 57, 0
14, 206280, Note_on_c, 12, 58, 44
14, 206331, Note_on_c, 12, 58, 0
14, 206340, Note_on_c, 12, 62, 44
14, 206399, Note_on_c, 12, 62, 0
14, 207120, Note_on_c, 12, 65, 44
14, 207171, Note_on_c, 12, 65, 0
14, 207180, Note_on_c, 12, 64, 44
14, 207231, Note_on_c, 12, 64, 0
14, 207240, Note_on_c, 12, 65, 44
14, 207291, Note_on_c, 12, 65, 0
14, 207300, Note_on_c, 12, 69, 44
14, 207359, Note_on_c, 12, 69, 0
14, 208080, Note_on_c, 12, 58, 44
14, 208131, Note_on_c, 12, 58, 0
14, 208140, Note_on_c, 12, 57, 44
14, 208191, Note_on_c, 12, 57, 0
14, 208200, Note_on_c, 12, 58, 44
14, 208251, Note_on_c, 12, 58, 0
14, 208260, Note_on_c, 12, 62, 44
14, 208319, Note_on_c, 12, 62, 0
14, 209040, Note_on_c, 12, 65, 44
14, 209091, Note_on_c, 12, 65, 0
14, 209100, Note_on_c, 12, 64, 44
14, 209151, Note_on_c, 12, 64, 0
14, 209160, Note_on_c, 12, 65, 44
14, 209211, Note_on_c, 12, 65, 0
14, 209220, Note_on_c, 12, 69, 44
14, 209279, Note_on_c, 12, 69, 0
14, 209760, Note_on_c, 12, 58, 44
14, 209811, Note_on_c, 12, 58, 0
14, 209820, Note_on_c, 12, 57, 45
14, 209871, Note_on_c, 12, 57, 0
14, 209880, Note_on_c, 12, 58, 46
14, 209931, Note_on_c, 12, 58, 0
14, 209940, Note_on_c, 12, 62, 47
14, 209991, Note_on_c, 12, 62, 0
14, 210000, Note_on_c, 12, 55, 49
14, 210051, Note_on_c, 12, 55, 0
14, 210060, Note_on_c, 12, 57, 50
14, 210111, Note_on_c, 12, 57, 0
14, 210120, Note_on_c, 12, 58, 51
14, 210171, Note_on_c, 12, 58, 0
14, 210180, Note_on_c, 12, 59, 52
14, 210231, Note_on_c, 12, 59, 0
14, 210240, Note_on_c, 12, 60, 54
14, 210291, Note_on_c, 12, 60, 0
14, 210300, Note_on_c, 12, 59, 55
14, 210351, Note_on_c, 12, 59, 0
14, 210360, Note_on_c, 12, 60, 56
14, 210411, Note_on_c, 12, 60, 0
14, 210420, Note_on_c, 12, 63, 57
14, 210471, Note_on_c, 12, 63, 0
14, 210480, Note_on_c, 12, 57, 59
14, 210531, Note_on_c, 12, 57, 0
14, 210540, Note_on_c, 12, 59, 60
14, 210591, Note_on_c, 12, 59, 0
14, 210600, Note_on_c, 12, 60, 61
14, 210651, Note_on_c, 12, 60, 0
14, 210660, Note_on_c, 12, 61, 62
14, 210711, Note_on_c, 12, 61, 0
14, 210720, Note_on_c, 12, 62, 64
14, 210771, Note_on_c, 12, 62, 0
14, 210780, Note_on_c, 12, 61, 65
14, 210831, Note_on_c, 12, 61, 0
14, 210840, Note_on_c, 12, 62, 66
14, 210891, Note_on_c, 12, 62, 0
14, 210900, Note_on_c, 12, 65, 67
14, 210951, Note_on_c, 12, 65, 0
14, 210960, Note_on_c, 12, 58, 69
14, 211011, Note_on_c, 12, 58, 0
14, 211020, Note_on_c, 12, 60, 70
14, 211071, Note_on_c, 12, 60, 0
14, 211080, Note_on_c, 12, 61, 71
14, 211131, Note_on_c, 12, 61, 0
14, 211140, Note_on_c, 12, 62, 72
14, 211191, Note_on_c, 12, 62, 0
14, 211200, Note_on_c, 12, 63, 74
14, 211251, Note_on_c, 12, 63, 0
14, 211260, Note_on_c, 12, 62, 75
14, 211311, Note_on_c, 12, 62, 0
14, 211320, Note_on_c, 12, 63, 76
14, 211371, Note_on_c, 12, 63, 0
14, 211380, Note_on_c, 12, 67, 77
14, 211431, Note_on_c, 12, 67, 0
14, 211440, Note_on_c, 12, 64, 79
14, 211491, Note_on_c, 12, 64, 0
14, 211500, Note_on_c, 12, 63, 80
14, 211551, Note_on_c, 12, 63, 0
14, 211560, Note_on_c, 12, 64, 81
14, 211611, Note_on_c, 12, 64, 0
14, 211620, Note_on_c, 12, 67, 82
14, 211671, Note_on_c, 12, 67, 0
14, 211680, Note_on_c, 12, 64, 84
14, 211731, Note_on_c, 12, 64, 0
14, 211740, Note_on_c, 12, 76, 84
14, 211791, Note_on_c, 12, 76, 0
14, 211800, Note_on_c, 12, 76, 84
14, 211851, Note_on_c, 12, 76, 0
14, 211860, Note_on_c, 12, 76, 84
14, 211911, Note_on_c, 12, 76, 0
14, 211920, Note_on_c, 12, 76, 84
14, 211971, Note_on_c, 12, 76, 0
14, 211980, Note_on_c, 12, 76, 84
14, 212031, Note_on_c, 12, 76, 0
14, 212040, Note_on_c, 12, 76, 84
14, 212091, Note_on_c, 12, 76, 0
14, 212100, Note_on_c, 12, 76, 84
14, 212151, Note_on_c, 12, 76, 0
14, 212160, Note_on_c, 12, 76, 84
14, 212211, Note_on_c, 12, 76, 0
14, 212220, Note_on_c, 12, 76, 84
14, 212271, Note_on_c, 12, 76, 0
14, 212280, Note_on_c, 12, 76, 84
14, 212331, Note_on_c, 12, 76, 0
14, 212340, Note_on_c, 12, 76, 84
14, 212391, Note_on_c, 12, 76, 0
14, 212400, Note_on_c, 12, 76, 84
14, 212451, Note_on_c, 12, 76, 0
14, 212460, Note_on_c, 12, 76, 84
14, 212511, Note_on_c, 12, 76, 0
14, 212520, Note_on_c, 12, 76, 84
14, 212571, Note_on_c, 12, 76, 0
14, 212580, Note_on_c, 12, 76, 84
14, 212631, Note_on_c, 12, 76, 0
14, 212640, Note_on_c, 12, 76, 84
14, 212759, Note_on_c, 12, 76, 0
14, 212880, Note_on_c, 12, 76, 84
14, 212999, Note_on_c, 12, 76, 0
14, 213600, Note_on_c, 12, 77, 84
14, 213719, Note_on_c, 12, 77, 0
14, 213840, Note_on_c, 12, 77, 84
14, 213959, Note_on_c, 12, 77, 0
14, 216480, Note_on_c, 12, 60, 44
14, 216599, Note_on_c, 12, 60, 0
14, 216600, Note_on_c, 12, 58, 44
14, 216719, Note_on_c, 12, 58, 0
14, 216720, Note_on_c, 12, 57, 44
14, 216839, Note_on_c, 12, 57, 0
14, 216840, Note_on_c, 12, 55, 44
14, 217199, Note_on_c, 12, 55, 0
14, 217680, Note_on_c, 12, 77, 84
14, 217680, Note_on_c, 12, 69, 84
14, 217799, Note_on_c, 12, 77, 0
14, 217799, Note_on_c, 12, 69, 0
14, 217920, Note_on_c, 12, 77, 84
14, 217920, Note_on_c, 12, 70, 84
14, 218039, Note_on_c, 12, 77, 0
14, 218039, Note_on_c, 12, 70, 0
14, 218160, Note_on_c, 12, 77, 84
14, 218160, Note_on_c, 12, 69, 84
14, 218279, Note_on_c, 12, 77, 0
14, 218279, Note_on_c, 12, 69, 0
14, 218400, Note_on_c, 12, 77, 84
14, 218400, Note_on_c, 12, 70, 84
14, 218519, Note_on_c, 12, 77, 0
14, 218519, Note_on_c, 12, 70, 0
14, 218880, Note_on_c, 12, 81, 84
14, 218880, Note_on_c, 12, 72, 84
14, 218880, Note_on_c, 12, 65, 84
14, 218999, Note_on_c, 12, 81, 0
14, 218999, Note_on_c, 12, 72, 0
14, 218999, Note_on_c, 12, 65, 0
14, 219360, Note_on_c, 12, 82, 84
14, 219360, Note_on_c, 12, 70, 84
14, 219360, Note_on_c, 12, 62, 84
14, 219479, Note_on_c, 12, 82, 0
14, 219479, Note_on_c, 12, 70, 0
14, 219479, Note_on_c, 12, 62, 0
14, 219479, End_track
15, 0, Start_track
15, 0, Title_t, "Viola "
15, 0, MIDI_port, 0
15, 0, Program_c, 13, 48
15, 0, Control_c, 13, 11, 127
15, 0, Control_c, 13, 10, 70
15, 0, Control_c, 13, 7, 96
15, 0, Note_on_c, 13, 58, 52
15, 119, Note_on_c, 13, 58, 0
15, 240, Note_on_c, 13, 58, 52
15, 359, Note_on_c, 13, 58, 0
15, 480, Note_on_c, 13, 55, 52
15, 599, Note_on_c, 13, 55, 0
15, 720, Note_on_c, 13, 67, 52
15, 771, Note_on_c, 13, 67, 0
15, 780, Note_on_c, 13, 65, 52
15, 831, Note_on_c, 13, 65, 0
15, 840, Note_on_c, 13, 63, 52
15, 891, Note_on_c, 13, 63, 0
15, 900, Note_on_c, 13, 62, 52
15, 951, Note_on_c, 13, 62, 0
15, 960, Note_on_c, 13, 60, 52
15, 1011, Note_on_c, 13, 60, 0
15, 1020, Note_on_c, 13, 58, 52
15, 1071, Note_on_c, 13, 58, 0
15, 1080, Note_on_c, 13, 57, 52
15, 1131, Note_on_c, 13, 57, 0
15, 1140, Note_on_c, 13, 55, 52
15, 1191, Note_on_c, 13, 55, 0
15, 1200, Note_on_c, 13, 53, 76
15, 1251, Note_on_c, 13, 53, 0
15, 1260, Note_on_c, 13, 63, 76
15, 1311, Note_on_c, 13, 63, 0
15, 1320, Note_on_c, 13, 62, 76
15, 1371, Note_on_c, 13, 62, 0
15, 1380, Note_on_c, 13, 60, 76
15, 1431, Note_on_c, 13, 60, 0
15, 1440, Note_on_c, 13, 58, 76
15, 1491, Note_on_c, 13, 58, 0
15, 1500, Note_on_c, 13, 60, 76
15, 1551, Note_on_c, 13, 60, 0
15, 1560, Note_on_c, 13, 62, 76
15, 1611, Note_on_c, 13, 62, 0
15, 1620, Note_on_c, 13, 58, 76
15, 1671, Note_on_c, 13, 58, 0
15, 1680, Note_on_c, 13, 53, 76
15, 1731, Note_on_c, 13, 53, 0
15, 1740, Note_on_c, 13, 57, 76
15, 1791, Note_on_c, 13, 57, 0
15, 1800, Note_on_c, 13, 60, 76
15, 1851, Note_on_c, 13, 60, 0
15, 1860, Note_on_c, 13, 65, 76
15, 1919, Note_on_c, 13, 65, 0
15, 4560, Note_on_c, 13, 63, 44
15, 4611, Note_on_c, 13, 63, 0
15, 4620, Note_on_c, 13, 62, 44
15, 4671, Note_on_c, 13, 62, 0
15, 4680, Note_on_c, 13, 60, 44
15, 4731, Note_on_c, 13, 60, 0
15, 4740, Note_on_c, 13, 62, 44
15, 4791, Note_on_c, 13, 62, 0
15, 4800, Note_on_c, 13, 63, 44
15, 4851, Note_on_c, 13, 63, 0
15, 4860, Note_on_c, 13, 62, 44
15, 4911, Note_on_c, 13, 62, 0
15, 4920, Note_on_c, 13, 60, 44
15, 4971, Note_on_c, 13, 60, 0
15, 4980, Note_on_c, 13, 62, 44
15, 5031, Note_on_c, 13, 62, 0
15, 5040, Note_on_c, 13, 63, 44
15, 5091, Note_on_c, 13, 63, 0
15, 5100, Note_on_c, 13, 62, 44
15, 5151, Note_on_c, 13, 62, 0
15, 5160, Note_on_c, 13, 60, 44
15, 5211, Note_on_c, 13, 60, 0
15, 5220, Note_on_c, 13, 58, 44
15, 5271, Note_on_c, 13, 58, 0
15, 5280, Note_on_c, 13, 57, 44
15, 5339, Note_on_c, 13, 57, 0
15, 5340, Note_on_c, 13, 60, 44
15, 5399, Note_on_c, 13, 60, 0
15, 5400, Note_on_c, 13, 57, 44
15, 5459, Note_on_c, 13, 57, 0
15, 5460, Note_on_c, 13, 60, 44
15, 5519, Note_on_c, 13, 60, 0
15, 5520, Note_on_c, 13, 57, 44
15, 5579, Note_on_c, 13, 57, 0
15, 5580, Note_on_c, 13, 60, 44
15, 5639, Note_on_c, 13, 60, 0
15, 5640, Note_on_c, 13, 57, 44
15, 5699, Note_on_c, 13, 57, 0
15, 5700, Note_on_c, 13, 60, 44
15, 5751, Note_on_c, 13, 60, 0
15, 5760, Note_on_c, 13, 58, 44
15, 5819, Note_on_c, 13, 58, 0
15, 5820, Note_on_c, 13, 62, 44
15, 5879, Note_on_c, 13, 62, 0
15, 5880, Note_on_c, 13, 58, 44
15, 5939, Note_on_c, 13, 58, 0
15, 5940, Note_on_c, 13, 62, 44
15, 5999, Note_on_c, 13, 62, 0
15, 6000, Note_on_c, 13, 58, 44
15, 6059, Note_on_c, 13, 58, 0
15, 6060, Note_on_c, 13, 62, 44
15, 6119, Note_on_c, 13, 62, 0
15, 6120, Note_on_c, 13, 58, 44
15, 6179, Note_on_c, 13, 58, 0
15, 6180, Note_on_c, 13, 62, 44
15, 6231, Note_on_c, 13, 62, 0
15, 6240, Note_on_c, 13, 57, 44
15, 6299, Note_on_c, 13, 57, 0
15, 6300, Note_on_c, 13, 60, 44
15, 6359, Note_on_c, 13, 60, 0
15, 6360, Note_on_c, 13, 57, 44
15, 6419, Note_on_c, 13, 57, 0
15, 6420, Note_on_c, 13, 60, 44
15, 6479, Note_on_c, 13, 60, 0
15, 6480, Note_on_c, 13, 57, 44
15, 6539, Note_on_c, 13, 57, 0
15, 6540, Note_on_c, 13, 60, 44
15, 6599, Note_on_c, 13, 60, 0
15, 6600, Note_on_c, 13, 57, 44
15, 6659, Note_on_c, 13, 57, 0
15, 6660, Note_on_c, 13, 60, 44
15, 6711, Note_on_c, 13, 60, 0
15, 6720, Note_on_c, 13, 58, 44
15, 6779, Note_on_c, 13, 58, 0
15, 6780, Note_on_c, 13, 62, 44
15, 6839, Note_on_c, 13, 62, 0
15, 6840, Note_on_c, 13, 58, 44
15, 6899, Note_on_c, 13, 58, 0
15, 6900, Note_on_c, 13, 62, 44
15, 6959, Note_on_c, 13, 62, 0
15, 6960, Note_on_c, 13, 58, 44
15, 7019, Note_on_c, 13, 58, 0
15, 7020, Note_on_c, 13, 62, 44
15, 7079, Note_on_c, 13, 62, 0
15, 7080, Note_on_c, 13, 58, 44
15, 7139, Note_on_c, 13, 58, 0
15, 7140, Note_on_c, 13, 62, 44
15, 7191, Note_on_c, 13, 62, 0
15, 7200, Note_on_c, 13, 57, 44
15, 7259, Note_on_c, 13, 57, 0
15, 7260, Note_on_c, 13, 60, 44
15, 7319, Note_on_c, 13, 60, 0
15, 7320, Note_on_c, 13, 57, 44
15, 7379, Note_on_c, 13, 57, 0
15, 7380, Note_on_c, 13, 60, 44
15, 7439, Note_on_c, 13, 60, 0
15, 7440, Note_on_c, 13, 57, 44
15, 7499, Note_on_c, 13, 57, 0
15, 7500, Note_on_c, 13, 60, 44
15, 7559, Note_on_c, 13, 60, 0
15, 7560, Note_on_c, 13, 57, 44
15, 7619, Note_on_c, 13, 57, 0
15, 7620, Note_on_c, 13, 60, 44
15, 7671, Note_on_c, 13, 60, 0
15, 7680, Note_on_c, 13, 58, 44
15, 7739, Note_on_c, 13, 58, 0
15, 7740, Note_on_c, 13, 62, 44
15, 7799, Note_on_c, 13, 62, 0
15, 7800, Note_on_c, 13, 58, 44
15, 7859, Note_on_c, 13, 58, 0
15, 7860, Note_on_c, 13, 62, 44
15, 7919, Note_on_c, 13, 62, 0
15, 7920, Note_on_c, 13, 58, 44
15, 7979, Note_on_c, 13, 58, 0
15, 7980, Note_on_c, 13, 62, 44
15, 8039, Note_on_c, 13, 62, 0
15, 8040, Note_on_c, 13, 58, 44
15, 8099, Note_on_c, 13, 58, 0
15, 8100, Note_on_c, 13, 62, 44
15, 8151, Note_on_c, 13, 62, 0
15, 8160, Note_on_c, 13, 57, 44
15, 8219, Note_on_c, 13, 57, 0
15, 8220, Note_on_c, 13, 60, 44
15, 8279, Note_on_c, 13, 60, 0
15, 8280, Note_on_c, 13, 57, 44
15, 8339, Note_on_c, 13, 57, 0
15, 8340, Note_on_c, 13, 60, 44
15, 8399, Note_on_c, 13, 60, 0
15, 8400, Note_on_c, 13, 57, 44
15, 8459, Note_on_c, 13, 57, 0
15, 8460, Note_on_c, 13, 60, 44
15, 8519, Note_on_c, 13, 60, 0
15, 8520, Note_on_c, 13, 57, 44
15, 8579, Note_on_c, 13, 57, 0
15, 8580, Note_on_c, 13, 60, 44
15, 8639, Note_on_c, 13, 60, 0
15, 9120, Note_on_c, 13, 53, 44
15, 9239, Note_on_c, 13, 53, 0
15, 9360, Note_on_c, 13, 53, 64
15, 9479, Note_on_c, 13, 53, 0
15, 9600, Note_on_c, 13, 58, 84
15, 9651, Note_on_c, 13, 58, 0
15, 9660, Note_on_c, 13, 57, 84
15, 9711, Note_on_c, 13, 57, 0
15, 9720, Note_on_c, 13, 58, 84
15, 9771, Note_on_c, 13, 58, 0
15, 9780, Note_on_c, 13, 62, 84
15, 9831, Note_on_c, 13, 62, 0
15, 9840, Note_on_c, 13, 60, 84
15, 9891, Note_on_c, 13, 60, 0
15, 9900, Note_on_c, 13, 58, 84
15, 9951, Note_on_c, 13, 58, 0
15, 9960, Note_on_c, 13, 57, 84
15, 10011, Note_on_c, 13, 57, 0
15, 10020, Note_on_c, 13, 58, 84
15, 10071, Note_on_c, 13, 58, 0
15, 10080, Note_on_c, 13, 57, 84
15, 10131, Note_on_c, 13, 57, 0
15, 10140, Note_on_c, 13, 67, 84
15, 10191, Note_on_c, 13, 67, 0
15, 10200, Note_on_c, 13, 65, 84
15, 10251, Note_on_c, 13, 65, 0
15, 10260, Note_on_c, 13, 67, 84
15, 10311, Note_on_c, 13, 67, 0
15, 10320, Note_on_c, 13, 65, 84
15, 10371, Note_on_c, 13, 65, 0
15, 10380, Note_on_c, 13, 63, 84
15, 10431, Note_on_c, 13, 63, 0
15, 10440, Note_on_c, 13, 62, 84
15, 10491, Note_on_c, 13, 62, 0
15, 10500, Note_on_c, 13, 63, 84
15, 10551, Note_on_c, 13, 63, 0
15, 10560, Note_on_c, 13, 62, 84
15, 10611, Note_on_c, 13, 62, 0
15, 10620, Note_on_c, 13, 60, 84
15, 10671, Note_on_c, 13, 60, 0
15, 10680, Note_on_c, 13, 58, 84
15, 10731, Note_on_c, 13, 58, 0
15, 10740, Note_on_c, 13, 60, 84
15, 10791, Note_on_c, 13, 60, 0
15, 10800, Note_on_c, 13, 58, 84
15, 10851, Note_on_c, 13, 58, 0
15, 10860, Note_on_c, 13, 57, 84
15, 10911, Note_on_c, 13, 57, 0
15, 10920, Note_on_c, 13, 55, 84
15, 10971, Note_on_c, 13, 55, 0
15, 10980, Note_on_c, 13, 57, 84
15, 11031, Note_on_c, 13, 57, 0
15, 11040, Note_on_c, 13, 55, 84
15, 11091, Note_on_c, 13, 55, 0
15, 11100, Note_on_c, 13, 53, 84
15, 11151, Note_on_c, 13, 53, 0
15, 11160, Note_on_c, 13, 51, 84
15, 11211, Note_on_c, 13, 51, 0
15, 11220, Note_on_c, 13, 50, 84
15, 11271, Note_on_c, 13, 50, 0
15, 11280, Note_on_c, 13, 48, 84
15, 11384, Note_on_c, 13, 48, 0
15, 11400, Note_on_c, 13, 53, 84
15, 11504, Note_on_c, 13, 53, 0
15, 11520, Note_on_c, 13, 58, 84
15, 11520, Note_on_c, 13, 62, 84
15, 11571, Note_on_c, 13, 58, 0
15, 11571, Note_on_c, 13, 62, 0
15, 11580, Note_on_c, 13, 58, 84
15, 11580, Note_on_c, 13, 62, 84
15, 11631, Note_on_c, 13, 58, 0
15, 11631, Note_on_c, 13, 62, 0
15, 11640, Note_on_c, 13, 58, 84
15, 11640, Note_on_c, 13, 62, 84
15, 11691, Note_on_c, 13, 58, 0
15, 11691, Note_on_c, 13, 62, 0
15, 11700, Note_on_c, 13, 62, 84
15, 11700, Note_on_c, 13, 58, 84
15, 11751, Note_on_c, 13, 62, 0
15, 11751, Note_on_c, 13, 58, 0
15, 11760, Note_on_c, 13, 58, 84
15, 11760, Note_on_c, 13, 62, 84
15, 11811, Note_on_c, 13, 58, 0
15, 11811, Note_on_c, 13, 62, 0
15, 11820, Note_on_c, 13, 58, 84
15, 11820, Note_on_c, 13, 62, 84
15, 11871, Note_on_c, 13, 58, 0
15, 11871, Note_on_c, 13, 62, 0
15, 11880, Note_on_c, 13, 58, 84
15, 11880, Note_on_c, 13, 62, 84
15, 11931, Note_on_c, 13, 58, 0
15, 11931, Note_on_c, 13, 62, 0
15, 11940, Note_on_c, 13, 62, 84
15, 11940, Note_on_c, 13, 58, 84
15, 11991, Note_on_c, 13, 62, 0
15, 11991, Note_on_c, 13, 58, 0
15, 12000, Note_on_c, 13, 58, 84
15, 12000, Note_on_c, 13, 62, 84
15, 12051, Note_on_c, 13, 58, 0
15, 12051, Note_on_c, 13, 62, 0
15, 12060, Note_on_c, 13, 62, 84
15, 12060, Note_on_c, 13, 58, 84
15, 12111, Note_on_c, 13, 62, 0
15, 12111, Note_on_c, 13, 58, 0
15, 12120, Note_on_c, 13, 58, 84
15, 12120, Note_on_c, 13, 62, 84
15, 12171, Note_on_c, 13, 58, 0
15, 12171, Note_on_c, 13, 62, 0
15, 12180, Note_on_c, 13, 58, 84
15, 12180, Note_on_c, 13, 62, 84
15, 12231, Note_on_c, 13, 58, 0
15, 12231, Note_on_c, 13, 62, 0
15, 12240, Note_on_c, 13, 58, 84
15, 12240, Note_on_c, 13, 62, 84
15, 12291, Note_on_c, 13, 58, 0
15, 12291, Note_on_c, 13, 62, 0
15, 12300, Note_on_c, 13, 62, 84
15, 12300, Note_on_c, 13, 58, 84
15, 12351, Note_on_c, 13, 62, 0
15, 12351, Note_on_c, 13, 58, 0
15, 12360, Note_on_c, 13, 62, 84
15, 12360, Note_on_c, 13, 58, 84
15, 12411, Note_on_c, 13, 62, 0
15, 12411, Note_on_c, 13, 58, 0
15, 12420, Note_on_c, 13, 58, 84
15, 12420, Note_on_c, 13, 62, 84
15, 12471, Note_on_c, 13, 58, 0
15, 12471, Note_on_c, 13, 62, 0
15, 12480, Note_on_c, 13, 63, 84
15, 12480, Note_on_c, 13, 60, 84
15, 12531, Note_on_c, 13, 63, 0
15, 12531, Note_on_c, 13, 60, 0
15, 12540, Note_on_c, 13, 60, 84
15, 12540, Note_on_c, 13, 63, 84
15, 12591, Note_on_c, 13, 60, 0
15, 12591, Note_on_c, 13, 63, 0
15, 12600, Note_on_c, 13, 63, 84
15, 12600, Note_on_c, 13, 60, 84
15, 12651, Note_on_c, 13, 63, 0
15, 12651, Note_on_c, 13, 60, 0
15, 12660, Note_on_c, 13, 63, 84
15, 12660, Note_on_c, 13, 60, 84
15, 12711, Note_on_c, 13, 63, 0
15, 12711, Note_on_c, 13, 60, 0
15, 12720, Note_on_c, 13, 63, 84
15, 12720, Note_on_c, 13, 60, 84
15, 12771, Note_on_c, 13, 63, 0
15, 12771, Note_on_c, 13, 60, 0
15, 12780, Note_on_c, 13, 60, 84
15, 12780, Note_on_c, 13, 63, 84
15, 12831, Note_on_c, 13, 60, 0
15, 12831, Note_on_c, 13, 63, 0
15, 12840, Note_on_c, 13, 60, 84
15, 12840, Note_on_c, 13, 63, 84
15, 12891, Note_on_c, 13, 60, 0
15, 12891, Note_on_c, 13, 63, 0
15, 12900, Note_on_c, 13, 63, 84
15, 12900, Note_on_c, 13, 60, 84
15, 12951, Note_on_c, 13, 63, 0
15, 12951, Note_on_c, 13, 60, 0
15, 12960, Note_on_c, 13, 60, 84
15, 12960, Note_on_c, 13, 57, 84
15, 13011, Note_on_c, 13, 60, 0
15, 13011, Note_on_c, 13, 57, 0
15, 13020, Note_on_c, 13, 60, 84
15, 13020, Note_on_c, 13, 57, 84
15, 13071, Note_on_c, 13, 60, 0
15, 13071, Note_on_c, 13, 57, 0
15, 13080, Note_on_c, 13, 57, 84
15, 13080, Note_on_c, 13, 60, 84
15, 13131, Note_on_c, 13, 57, 0
15, 13131, Note_on_c, 13, 60, 0
15, 13140, Note_on_c, 13, 60, 84
15, 13140, Note_on_c, 13, 57, 84
15, 13191, Note_on_c, 13, 60, 0
15, 13191, Note_on_c, 13, 57, 0
15, 13200, Note_on_c, 13, 57, 84
15, 13200, Note_on_c, 13, 60, 84
15, 13251, Note_on_c, 13, 57, 0
15, 13251, Note_on_c, 13, 60, 0
15, 13260, Note_on_c, 13, 60, 84
15, 13260, Note_on_c, 13, 57, 84
15, 13311, Note_on_c, 13, 60, 0
15, 13311, Note_on_c, 13, 57, 0
15, 13320, Note_on_c, 13, 57, 84
15, 13320, Note_on_c, 13, 60, 84
15, 13371, Note_on_c, 13, 57, 0
15, 13371, Note_on_c, 13, 60, 0
15, 13380, Note_on_c, 13, 57, 84
15, 13380, Note_on_c, 13, 60, 84
15, 13431, Note_on_c, 13, 57, 0
15, 13431, Note_on_c, 13, 60, 0
15, 13440, Note_on_c, 13, 58, 84
15, 13440, Note_on_c, 13, 62, 84
15, 13491, Note_on_c, 13, 58, 0
15, 13491, Note_on_c, 13, 62, 0
15, 13500, Note_on_c, 13, 58, 84
15, 13500, Note_on_c, 13, 62, 84
15, 13551, Note_on_c, 13, 58, 0
15, 13551, Note_on_c, 13, 62, 0
15, 13560, Note_on_c, 13, 62, 84
15, 13560, Note_on_c, 13, 58, 84
15, 13611, Note_on_c, 13, 62, 0
15, 13611, Note_on_c, 13, 58, 0
15, 13620, Note_on_c, 13, 58, 84
15, 13620, Note_on_c, 13, 62, 84
15, 13671, Note_on_c, 13, 58, 0
15, 13671, Note_on_c, 13, 62, 0
15, 13680, Note_on_c, 13, 55, 84
15, 13731, Note_on_c, 13, 55, 0
15, 13740, Note_on_c, 13, 58, 84
15, 13791, Note_on_c, 13, 58, 0
15, 13800, Note_on_c, 13, 62, 84
15, 13851, Note_on_c, 13, 62, 0
15, 13860, Note_on_c, 13, 62, 84
15, 13911, Note_on_c, 13, 62, 0
15, 13920, Note_on_c, 13, 60, 84
15, 13971, Note_on_c, 13, 60, 0
15, 13980, Note_on_c, 13, 60, 84
15, 14031, Note_on_c, 13, 60, 0
15, 14040, Note_on_c, 13, 60, 84
15, 14091, Note_on_c, 13, 60, 0
15, 14100, Note_on_c, 13, 60, 84
15, 14151, Note_on_c, 13, 60, 0
15, 14160, Note_on_c, 13, 60, 84
15, 14211, Note_on_c, 13, 60, 0
15, 14220, Note_on_c, 13, 60, 84
15, 14271, Note_on_c, 13, 60, 0
15, 14280, Note_on_c, 13, 60, 84
15, 14331, Note_on_c, 13, 60, 0
15, 14340, Note_on_c, 13, 60, 84
15, 14391, Note_on_c, 13, 60, 0
15, 14400, Note_on_c, 13, 60, 84
15, 14451, Note_on_c, 13, 60, 0
15, 14460, Note_on_c, 13, 60, 84
15, 14511, Note_on_c, 13, 60, 0
15, 14520, Note_on_c, 13, 72, 84
15, 14571, Note_on_c, 13, 72, 0
15, 14580, Note_on_c, 13, 72, 84
15, 14631, Note_on_c, 13, 72, 0
15, 14640, Note_on_c, 13, 65, 84
15, 14691, Note_on_c, 13, 65, 0
15, 14700, Note_on_c, 13, 65, 84
15, 14751, Note_on_c, 13, 65, 0
15, 14760, Note_on_c, 13, 69, 84
15, 14811, Note_on_c, 13, 69, 0
15, 14820, Note_on_c, 13, 69, 84
15, 14871, Note_on_c, 13, 69, 0
15, 14880, Note_on_c, 13, 62, 84
15, 14931, Note_on_c, 13, 62, 0
15, 14940, Note_on_c, 13, 62, 84
15, 14991, Note_on_c, 13, 62, 0
15, 15000, Note_on_c, 13, 65, 84
15, 15051, Note_on_c, 13, 65, 0
15, 15060, Note_on_c, 13, 65, 84
15, 15111, Note_on_c, 13, 65, 0
15, 15120, Note_on_c, 13, 57, 84
15, 15171, Note_on_c, 13, 57, 0
15, 15180, Note_on_c, 13, 57, 84
15, 15231, Note_on_c, 13, 57, 0
15, 15240, Note_on_c, 13, 59, 84
15, 15291, Note_on_c, 13, 59, 0
15, 15300, Note_on_c, 13, 59, 84
15, 15351, Note_on_c, 13, 59, 0
15, 15360, Note_on_c, 13, 60, 84
15, 15411, Note_on_c, 13, 60, 0
15, 15420, Note_on_c, 13, 60, 84
15, 15471, Note_on_c, 13, 60, 0
15, 15480, Note_on_c, 13, 60, 84
15, 15531, Note_on_c, 13, 60, 0
15, 15540, Note_on_c, 13, 60, 84
15, 15591, Note_on_c, 13, 60, 0
15, 15600, Note_on_c, 13, 64, 84
15, 15651, Note_on_c, 13, 64, 0
15, 15660, Note_on_c, 13, 64, 84
15, 15711, Note_on_c, 13, 64, 0
15, 15720, Note_on_c, 13, 65, 84
15, 15771, Note_on_c, 13, 65, 0
15, 15780, Note_on_c, 13, 65, 84
15, 15831, Note_on_c, 13, 65, 0
15, 15840, Note_on_c, 13, 67, 84
15, 15891, Note_on_c, 13, 67, 0
15, 15900, Note_on_c, 13, 67, 84
15, 15951, Note_on_c, 13, 67, 0
15, 15960, Note_on_c, 13, 67, 84
15, 16011, Note_on_c, 13, 67, 0
15, 16020, Note_on_c, 13, 67, 84
15, 16071, Note_on_c, 13, 67, 0
15, 16080, Note_on_c, 13, 67, 84
15, 16131, Note_on_c, 13, 67, 0
15, 16140, Note_on_c, 13, 67, 84
15, 16191, Note_on_c, 13, 67, 0
15, 16200, Note_on_c, 13, 67, 84
15, 16251, Note_on_c, 13, 67, 0
15, 16260, Note_on_c, 13, 67, 84
15, 16311, Note_on_c, 13, 67, 0
15, 16320, Note_on_c, 13, 67, 84
15, 16371, Note_on_c, 13, 67, 0
15, 16380, Note_on_c, 13, 67, 84
15, 16431, Note_on_c, 13, 67, 0
15, 16440, Note_on_c, 13, 67, 84
15, 16491, Note_on_c, 13, 67, 0
15, 16500, Note_on_c, 13, 67, 84
15, 16551, Note_on_c, 13, 67, 0
15, 16560, Note_on_c, 13, 67, 84
15, 16611, Note_on_c, 13, 67, 0
15, 16620, Note_on_c, 13, 67, 84
15, 16671, Note_on_c, 13, 67, 0
15, 16680, Note_on_c, 13, 67, 84
15, 16731, Note_on_c, 13, 67, 0
15, 16740, Note_on_c, 13, 67, 84
15, 16791, Note_on_c, 13, 67, 0
15, 16800, Note_on_c, 13, 67, 84
15, 16919, Note_on_c, 13, 67, 0
15, 17280, Note_on_c, 13, 57, 52
15, 17759, Note_on_c, 13, 57, 0
15, 17760, Note_on_c, 13, 60, 52
15, 18239, Note_on_c, 13, 60, 0
15, 18240, Note_on_c, 13, 60, 52
15, 18719, Note_on_c, 13, 60, 0
15, 18720, Note_on_c, 13, 60, 52
15, 19184, Note_on_c, 13, 60, 0
15, 19200, Note_on_c, 13, 59, 52
15, 19544, Note_on_c, 13, 59, 0
15, 19560, Note_on_c, 13, 59, 52
15, 19664, Note_on_c, 13, 59, 0
15, 19680, Note_on_c, 13, 60, 52
15, 19799, Note_on_c, 13, 60, 0
15, 19920, Note_on_c, 13, 60, 52
15, 20039, Note_on_c, 13, 60, 0
15, 20160, Note_on_c, 13, 60, 52
15, 20279, Note_on_c, 13, 60, 0
15, 20400, Note_on_c, 13, 62, 52
15, 20519, Note_on_c, 13, 62, 0
15, 20640, Note_on_c, 13, 60, 52
15, 20759, Note_on_c, 13, 60, 0
15, 21120, Note_on_c, 13, 53, 52
15, 21599, Note_on_c, 13, 53, 0
15, 21600, Note_on_c, 13, 55, 52
15, 22079, Note_on_c, 13, 55, 0
15, 22080, Note_on_c, 13, 57, 52
15, 22559, Note_on_c, 13, 57, 0
15, 22560, Note_on_c, 13, 55, 52
15, 23024, Note_on_c, 13, 55, 0
15, 23040, Note_on_c, 13, 55, 52
15, 23040, Note_on_c, 13, 67, 52
15, 23384, Note_on_c, 13, 55, 0
15, 23384, Note_on_c, 13, 67, 0
15, 23400, Note_on_c, 13, 67, 52
15, 23400, Note_on_c, 13, 55, 52
15, 23504, Note_on_c, 13, 67, 0
15, 23504, Note_on_c, 13, 55, 0
15, 23520, Note_on_c, 13, 67, 52
15, 23520, Note_on_c, 13, 55, 52
15, 23639, Note_on_c, 13, 67, 0
15, 23639, Note_on_c, 13, 55, 0
15, 23760, Note_on_c, 13, 55, 52
15, 23760, Note_on_c, 13, 67, 52
15, 23879, Note_on_c, 13, 55, 0
15, 23879, Note_on_c, 13, 67, 0
15, 24000, Note_on_c, 13, 64, 52
15, 24000, Note_on_c, 13, 55, 52
15, 24119, Note_on_c, 13, 64, 0
15, 24119, Note_on_c, 13, 55, 0
15, 24240, Note_on_c, 13, 65, 52
15, 24240, Note_on_c, 13, 55, 52
15, 24359, Note_on_c, 13, 65, 0
15, 24359, Note_on_c, 13, 55, 0
15, 24480, Note_on_c, 13, 48, 52
15, 24480, Note_on_c, 13, 60, 52
15, 24531, Note_on_c, 13, 48, 0
15, 24531, Note_on_c, 13, 60, 0
15, 24540, Note_on_c, 13, 60, 52
15, 24540, Note_on_c, 13, 48, 52
15, 24591, Note_on_c, 13, 60, 0
15, 24591, Note_on_c, 13, 48, 0
15, 24600, Note_on_c, 13, 48, 52
15, 24600, Note_on_c, 13, 60, 52
15, 24651, Note_on_c, 13, 48, 0
15, 24651, Note_on_c, 13, 60, 0
15, 24660, Note_on_c, 13, 48, 52
15, 24660, Note_on_c, 13, 60, 52
15, 24711, Note_on_c, 13, 48, 0
15, 24711, Note_on_c, 13, 60, 0
15, 24720, Note_on_c, 13, 60, 52
15, 24720, Note_on_c, 13, 48, 52
15, 24771, Note_on_c, 13, 60, 0
15, 24771, Note_on_c, 13, 48, 0
15, 24780, Note_on_c, 13, 60, 52
15, 24780, Note_on_c, 13, 48, 52
15, 24831, Note_on_c, 13, 60, 0
15, 24831, Note_on_c, 13, 48, 0
15, 24840, Note_on_c, 13, 60, 52
15, 24840, Note_on_c, 13, 48, 52
15, 24891, Note_on_c, 13, 60, 0
15, 24891, Note_on_c, 13, 48, 0
15, 24900, Note_on_c, 13, 60, 52
15, 24900, Note_on_c, 13, 48, 52
15, 24951, Note_on_c, 13, 60, 0
15, 24951, Note_on_c, 13, 48, 0
15, 24960, Note_on_c, 13, 60, 52
15, 24960, Note_on_c, 13, 48, 52
15, 25011, Note_on_c, 13, 60, 0
15, 25011, Note_on_c, 13, 48, 0
15, 25020, Note_on_c, 13, 60, 52
15, 25020, Note_on_c, 13, 48, 52
15, 25071, Note_on_c, 13, 60, 0
15, 25071, Note_on_c, 13, 48, 0
15, 25080, Note_on_c, 13, 60, 52
15, 25080, Note_on_c, 13, 48, 52
15, 25131, Note_on_c, 13, 60, 0
15, 25131, Note_on_c, 13, 48, 0
15, 25140, Note_on_c, 13, 48, 52
15, 25140, Note_on_c, 13, 60, 52
15, 25191, Note_on_c, 13, 48, 0
15, 25191, Note_on_c, 13, 60, 0
15, 25200, Note_on_c, 13, 48, 52
15, 25200, Note_on_c, 13, 60, 52
15, 25251, Note_on_c, 13, 48, 0
15, 25251, Note_on_c, 13, 60, 0
15, 25260, Note_on_c, 13, 60, 52
15, 25260, Note_on_c, 13, 48, 52
15, 25311, Note_on_c, 13, 60, 0
15, 25311, Note_on_c, 13, 48, 0
15, 25320, Note_on_c, 13, 48, 52
15, 25320, Note_on_c, 13, 60, 52
15, 25371, Note_on_c, 13, 48, 0
15, 25371, Note_on_c, 13, 60, 0
15, 25380, Note_on_c, 13, 60, 52
15, 25380, Note_on_c, 13, 48, 52
15, 25431, Note_on_c, 13, 60, 0
15, 25431, Note_on_c, 13, 48, 0
15, 25440, Note_on_c, 13, 60, 52
15, 25440, Note_on_c, 13, 48, 52
15, 25491, Note_on_c, 13, 60, 0
15, 25491, Note_on_c, 13, 48, 0
15, 25500, Note_on_c, 13, 60, 52
15, 25500, Note_on_c, 13, 48, 52
15, 25551, Note_on_c, 13, 60, 0
15, 25551, Note_on_c, 13, 48, 0
15, 25560, Note_on_c, 13, 48, 52
15, 25560, Note_on_c, 13, 60, 52
15, 25611, Note_on_c, 13, 48, 0
15, 25611, Note_on_c, 13, 60, 0
15, 25620, Note_on_c, 13, 48, 52
15, 25620, Note_on_c, 13, 60, 52
15, 25671, Note_on_c, 13, 48, 0
15, 25671, Note_on_c, 13, 60, 0
15, 25680, Note_on_c, 13, 48, 52
15, 25680, Note_on_c, 13, 60, 52
15, 25731, Note_on_c, 13, 48, 0
15, 25731, Note_on_c, 13, 60, 0
15, 25740, Note_on_c, 13, 60, 52
15, 25740, Note_on_c, 13, 48, 52
15, 25791, Note_on_c, 13, 60, 0
15, 25791, Note_on_c, 13, 48, 0
15, 25800, Note_on_c, 13, 60, 76
15, 25800, Note_on_c, 13, 48, 76
15, 25851, Note_on_c, 13, 60, 0
15, 25851, Note_on_c, 13, 48, 0
15, 25860, Note_on_c, 13, 60, 76
15, 25860, Note_on_c, 13, 48, 76
15, 25911, Note_on_c, 13, 60, 0
15, 25911, Note_on_c, 13, 48, 0
15, 25920, Note_on_c, 13, 60, 76
15, 25920, Note_on_c, 13, 48, 76
15, 25971, Note_on_c, 13, 60, 0
15, 25971, Note_on_c, 13, 48, 0
15, 25980, Note_on_c, 13, 60, 76
15, 25980, Note_on_c, 13, 48, 76
15, 26031, Note_on_c, 13, 60, 0
15, 26031, Note_on_c, 13, 48, 0
15, 26040, Note_on_c, 13, 48, 76
15, 26040, Note_on_c, 13, 60, 76
15, 26091, Note_on_c, 13, 48, 0
15, 26091, Note_on_c, 13, 60, 0
15, 26100, Note_on_c, 13, 48, 76
15, 26100, Note_on_c, 13, 60, 76
15, 26151, Note_on_c, 13, 48, 0
15, 26151, Note_on_c, 13, 60, 0
15, 26160, Note_on_c, 13, 48, 76
15, 26160, Note_on_c, 13, 60, 76
15, 26211, Note_on_c, 13, 48, 0
15, 26211, Note_on_c, 13, 60, 0
15, 26220, Note_on_c, 13, 60, 76
15, 26220, Note_on_c, 13, 48, 76
15, 26271, Note_on_c, 13, 60, 0
15, 26271, Note_on_c, 13, 48, 0
15, 26280, Note_on_c, 13, 48, 76
15, 26280, Note_on_c, 13, 60, 76
15, 26331, Note_on_c, 13, 48, 0
15, 26331, Note_on_c, 13, 60, 0
15, 26340, Note_on_c, 13, 60, 76
15, 26340, Note_on_c, 13, 48, 76
15, 26391, Note_on_c, 13, 60, 0
15, 26391, Note_on_c, 13, 48, 0
15, 26400, Note_on_c, 13, 60, 76
15, 26400, Note_on_c, 13, 48, 76
15, 26451, Note_on_c, 13, 60, 0
15, 26451, Note_on_c, 13, 48, 0
15, 26460, Note_on_c, 13, 60, 76
15, 26460, Note_on_c, 13, 48, 76
15, 26511, Note_on_c, 13, 60, 0
15, 26511, Note_on_c, 13, 48, 0
15, 26520, Note_on_c, 13, 48, 76
15, 26520, Note_on_c, 13, 60, 76
15, 26571, Note_on_c, 13, 48, 0
15, 26571, Note_on_c, 13, 60, 0
15, 26580, Note_on_c, 13, 48, 76
15, 26580, Note_on_c, 13, 60, 76
15, 26631, Note_on_c, 13, 48, 0
15, 26631, Note_on_c, 13, 60, 0
15, 26640, Note_on_c, 13, 60, 52
15, 26640, Note_on_c, 13, 48, 52
15, 26691, Note_on_c, 13, 60, 0
15, 26691, Note_on_c, 13, 48, 0
15, 26700, Note_on_c, 13, 60, 52
15, 26700, Note_on_c, 13, 48, 52
15, 26751, Note_on_c, 13, 60, 0
15, 26751, Note_on_c, 13, 48, 0
15, 26760, Note_on_c, 13, 60, 52
15, 26760, Note_on_c, 13, 48, 52
15, 26811, Note_on_c, 13, 60, 0
15, 26811, Note_on_c, 13, 48, 0
15, 26820, Note_on_c, 13, 60, 52
15, 26820, Note_on_c, 13, 48, 52
15, 26871, Note_on_c, 13, 60, 0
15, 26871, Note_on_c, 13, 48, 0
15, 26880, Note_on_c, 13, 60, 52
15, 26880, Note_on_c, 13, 48, 52
15, 26931, Note_on_c, 13, 60, 0
15, 26931, Note_on_c, 13, 48, 0
15, 26940, Note_on_c, 13, 60, 52
15, 26940, Note_on_c, 13, 48, 52
15, 26991, Note_on_c, 13, 60, 0
15, 26991, Note_on_c, 13, 48, 0
15, 27000, Note_on_c, 13, 48, 52
15, 27000, Note_on_c, 13, 60, 52
15, 27051, Note_on_c, 13, 48, 0
15, 27051, Note_on_c, 13, 60, 0
15, 27060, Note_on_c, 13, 48, 52
15, 27060, Note_on_c, 13, 60, 52
15, 27111, Note_on_c, 13, 48, 0
15, 27111, Note_on_c, 13, 60, 0
15, 27120, Note_on_c, 13, 48, 52
15, 27120, Note_on_c, 13, 60, 52
15, 27171, Note_on_c, 13, 48, 0
15, 27171, Note_on_c, 13, 60, 0
15, 27180, Note_on_c, 13, 48, 52
15, 27180, Note_on_c, 13, 60, 52
15, 27231, Note_on_c, 13, 48, 0
15, 27231, Note_on_c, 13, 60, 0
15, 27240, Note_on_c, 13, 60, 52
15, 27240, Note_on_c, 13, 48, 52
15, 27291, Note_on_c, 13, 60, 0
15, 27291, Note_on_c, 13, 48, 0
15, 27300, Note_on_c, 13, 60, 52
15, 27300, Note_on_c, 13, 48, 52
15, 27351, Note_on_c, 13, 60, 0
15, 27351, Note_on_c, 13, 48, 0
15, 27360, Note_on_c, 13, 48, 52
15, 27360, Note_on_c, 13, 60, 52
15, 27411, Note_on_c, 13, 48, 0
15, 27411, Note_on_c, 13, 60, 0
15, 27420, Note_on_c, 13, 60, 52
15, 27420, Note_on_c, 13, 48, 52
15, 27471, Note_on_c, 13, 60, 0
15, 27471, Note_on_c, 13, 48, 0
15, 27480, Note_on_c, 13, 60, 52
15, 27480, Note_on_c, 13, 48, 52
15, 27531, Note_on_c, 13, 60, 0
15, 27531, Note_on_c, 13, 48, 0
15, 27540, Note_on_c, 13, 60, 52
15, 27540, Note_on_c, 13, 48, 52
15, 27591, Note_on_c, 13, 60, 0
15, 27591, Note_on_c, 13, 48, 0
15, 27600, Note_on_c, 13, 48, 52
15, 27600, Note_on_c, 13, 60, 52
15, 27651, Note_on_c, 13, 48, 0
15, 27651, Note_on_c, 13, 60, 0
15, 27660, Note_on_c, 13, 60, 52
15, 27660, Note_on_c, 13, 48, 52
15, 27711, Note_on_c, 13, 60, 0
15, 27711, Note_on_c, 13, 48, 0
15, 27720, Note_on_c, 13, 60, 76
15, 27720, Note_on_c, 13, 48, 76
15, 27771, Note_on_c, 13, 60, 0
15, 27771, Note_on_c, 13, 48, 0
15, 27780, Note_on_c, 13, 48, 76
15, 27780, Note_on_c, 13, 60, 76
15, 27831, Note_on_c, 13, 48, 0
15, 27831, Note_on_c, 13, 60, 0
15, 27840, Note_on_c, 13, 48, 76
15, 27840, Note_on_c, 13, 60, 76
15, 27891, Note_on_c, 13, 48, 0
15, 27891, Note_on_c, 13, 60, 0
15, 27900, Note_on_c, 13, 48, 76
15, 27900, Note_on_c, 13, 60, 76
15, 27951, Note_on_c, 13, 48, 0
15, 27951, Note_on_c, 13, 60, 0
15, 27960, Note_on_c, 13, 60, 76
15, 27960, Note_on_c, 13, 48, 76
15, 28011, Note_on_c, 13, 60, 0
15, 28011, Note_on_c, 13, 48, 0
15, 28020, Note_on_c, 13, 60, 76
15, 28020, Note_on_c, 13, 48, 76
15, 28071, Note_on_c, 13, 60, 0
15, 28071, Note_on_c, 13, 48, 0
15, 28080, Note_on_c, 13, 48, 76
15, 28080, Note_on_c, 13, 60, 76
15, 28131, Note_on_c, 13, 48, 0
15, 28131, Note_on_c, 13, 60, 0
15, 28140, Note_on_c, 13, 48, 76
15, 28140, Note_on_c, 13, 60, 76
15, 28191, Note_on_c, 13, 48, 0
15, 28191, Note_on_c, 13, 60, 0
15, 28200, Note_on_c, 13, 60, 76
15, 28200, Note_on_c, 13, 48, 76
15, 28251, Note_on_c, 13, 60, 0
15, 28251, Note_on_c, 13, 48, 0
15, 28260, Note_on_c, 13, 48, 76
15, 28260, Note_on_c, 13, 60, 76
15, 28311, Note_on_c, 13, 48, 0
15, 28311, Note_on_c, 13, 60, 0
15, 28320, Note_on_c, 13, 60, 76
15, 28320, Note_on_c, 13, 48, 76
15, 28371, Note_on_c, 13, 60, 0
15, 28371, Note_on_c, 13, 48, 0
15, 28380, Note_on_c, 13, 48, 76
15, 28380, Note_on_c, 13, 60, 76
15, 28431, Note_on_c, 13, 48, 0
15, 28431, Note_on_c, 13, 60, 0
15, 28440, Note_on_c, 13, 60, 76
15, 28440, Note_on_c, 13, 48, 76
15, 28491, Note_on_c, 13, 60, 0
15, 28491, Note_on_c, 13, 48, 0
15, 28500, Note_on_c, 13, 60, 76
15, 28500, Note_on_c, 13, 48, 76
15, 28551, Note_on_c, 13, 60, 0
15, 28551, Note_on_c, 13, 48, 0
15, 28560, Note_on_c, 13, 60, 76
15, 28560, Note_on_c, 13, 48, 76
15, 28611, Note_on_c, 13, 60, 0
15, 28611, Note_on_c, 13, 48, 0
15, 28620, Note_on_c, 13, 48, 76
15, 28620, Note_on_c, 13, 60, 76
15, 28671, Note_on_c, 13, 48, 0
15, 28671, Note_on_c, 13, 60, 0
15, 28680, Note_on_c, 13, 60, 76
15, 28680, Note_on_c, 13, 48, 76
15, 28731, Note_on_c, 13, 60, 0
15, 28731, Note_on_c, 13, 48, 0
15, 28740, Note_on_c, 13, 60, 76
15, 28740, Note_on_c, 13, 48, 76
15, 28791, Note_on_c, 13, 60, 0
15, 28791, Note_on_c, 13, 48, 0
15, 28800, Note_on_c, 13, 60, 76
15, 28800, Note_on_c, 13, 48, 76
15, 28851, Note_on_c, 13, 60, 0
15, 28851, Note_on_c, 13, 48, 0
15, 28860, Note_on_c, 13, 48, 76
15, 28860, Note_on_c, 13, 60, 76
15, 28911, Note_on_c, 13, 48, 0
15, 28911, Note_on_c, 13, 60, 0
15, 28920, Note_on_c, 13, 48, 76
15, 28920, Note_on_c, 13, 60, 76
15, 28971, Note_on_c, 13, 48, 0
15, 28971, Note_on_c, 13, 60, 0
15, 28980, Note_on_c, 13, 60, 76
15, 28980, Note_on_c, 13, 48, 76
15, 29031, Note_on_c, 13, 60, 0
15, 29031, Note_on_c, 13, 48, 0
15, 29040, Note_on_c, 13, 60, 76
15, 29040, Note_on_c, 13, 48, 76
15, 29091, Note_on_c, 13, 60, 0
15, 29091, Note_on_c, 13, 48, 0
15, 29100, Note_on_c, 13, 60, 76
15, 29100, Note_on_c, 13, 48, 76
15, 29151, Note_on_c, 13, 60, 0
15, 29151, Note_on_c, 13, 48, 0
15, 29160, Note_on_c, 13, 60, 76
15, 29160, Note_on_c, 13, 48, 76
15, 29211, Note_on_c, 13, 60, 0
15, 29211, Note_on_c, 13, 48, 0
15, 29220, Note_on_c, 13, 60, 76
15, 29220, Note_on_c, 13, 48, 76
15, 29271, Note_on_c, 13, 60, 0
15, 29271, Note_on_c, 13, 48, 0
15, 29280, Note_on_c, 13, 60, 76
15, 29280, Note_on_c, 13, 48, 76
15, 29331, Note_on_c, 13, 60, 0
15, 29331, Note_on_c, 13, 48, 0
15, 29340, Note_on_c, 13, 60, 76
15, 29340, Note_on_c, 13, 48, 76
15, 29391, Note_on_c, 13, 60, 0
15, 29391, Note_on_c, 13, 48, 0
15, 29400, Note_on_c, 13, 48, 76
15, 29400, Note_on_c, 13, 60, 76
15, 29451, Note_on_c, 13, 48, 0
15, 29451, Note_on_c, 13, 60, 0
15, 29460, Note_on_c, 13, 60, 76
15, 29460, Note_on_c, 13, 48, 76
15, 29511, Note_on_c, 13, 60, 0
15, 29511, Note_on_c, 13, 48, 0
15, 29520, Note_on_c, 13, 48, 76
15, 29520, Note_on_c, 13, 60, 76
15, 29571, Note_on_c, 13, 48, 0
15, 29571, Note_on_c, 13, 60, 0
15, 29580, Note_on_c, 13, 60, 76
15, 29580, Note_on_c, 13, 48, 76
15, 29631, Note_on_c, 13, 60, 0
15, 29631, Note_on_c, 13, 48, 0
15, 29640, Note_on_c, 13, 48, 76
15, 29640, Note_on_c, 13, 60, 76
15, 29691, Note_on_c, 13, 48, 0
15, 29691, Note_on_c, 13, 60, 0
15, 29700, Note_on_c, 13, 48, 76
15, 29700, Note_on_c, 13, 60, 76
15, 29751, Note_on_c, 13, 48, 0
15, 29751, Note_on_c, 13, 60, 0
15, 29760, Note_on_c, 13, 60, 76
15, 29760, Note_on_c, 13, 48, 76
15, 29811, Note_on_c, 13, 60, 0
15, 29811, Note_on_c, 13, 48, 0
15, 29820, Note_on_c, 13, 48, 76
15, 29820, Note_on_c, 13, 60, 76
15, 29871, Note_on_c, 13, 48, 0
15, 29871, Note_on_c, 13, 60, 0
15, 29880, Note_on_c, 13, 48, 76
15, 29880, Note_on_c, 13, 60, 76
15, 29931, Note_on_c, 13, 48, 0
15, 29931, Note_on_c, 13, 60, 0
15, 29940, Note_on_c, 13, 48, 76
15, 29940, Note_on_c, 13, 60, 76
15, 29991, Note_on_c, 13, 48, 0
15, 29991, Note_on_c, 13, 60, 0
15, 30000, Note_on_c, 13, 48, 76
15, 30000, Note_on_c, 13, 60, 76
15, 30051, Note_on_c, 13, 48, 0
15, 30051, Note_on_c, 13, 60, 0
15, 30060, Note_on_c, 13, 60, 76
15, 30060, Note_on_c, 13, 48, 76
15, 30111, Note_on_c, 13, 60, 0
15, 30111, Note_on_c, 13, 48, 0
15, 30120, Note_on_c, 13, 48, 76
15, 30120, Note_on_c, 13, 60, 76
15, 30171, Note_on_c, 13, 48, 0
15, 30171, Note_on_c, 13, 60, 0
15, 30180, Note_on_c, 13, 48, 76
15, 30180, Note_on_c, 13, 60, 76
15, 30231, Note_on_c, 13, 48, 0
15, 30231, Note_on_c, 13, 60, 0
15, 30240, Note_on_c, 13, 65, 84
15, 30291, Note_on_c, 13, 65, 0
15, 30300, Note_on_c, 13, 56, 84
15, 30300, Note_on_c, 13, 53, 84
15, 30351, Note_on_c, 13, 56, 0
15, 30351, Note_on_c, 13, 53, 0
15, 30360, Note_on_c, 13, 53, 84
15, 30360, Note_on_c, 13, 56, 84
15, 30411, Note_on_c, 13, 53, 0
15, 30411, Note_on_c, 13, 56, 0
15, 30420, Note_on_c, 13, 53, 84
15, 30420, Note_on_c, 13, 56, 84
15, 30471, Note_on_c, 13, 53, 0
15, 30471, Note_on_c, 13, 56, 0
15, 30480, Note_on_c, 13, 53, 84
15, 30480, Note_on_c, 13, 56, 84
15, 30531, Note_on_c, 13, 53, 0
15, 30531, Note_on_c, 13, 56, 0
15, 30540, Note_on_c, 13, 56, 84
15, 30540, Note_on_c, 13, 53, 84
15, 30591, Note_on_c, 13, 56, 0
15, 30591, Note_on_c, 13, 53, 0
15, 30600, Note_on_c, 13, 53, 84
15, 30600, Note_on_c, 13, 56, 84
15, 30651, Note_on_c, 13, 53, 0
15, 30651, Note_on_c, 13, 56, 0
15, 30660, Note_on_c, 13, 53, 84
15, 30660, Note_on_c, 13, 56, 84
15, 30711, Note_on_c, 13, 53, 0
15, 30711, Note_on_c, 13, 56, 0
15, 30720, Note_on_c, 13, 56, 84
15, 30720, Note_on_c, 13, 53, 84
15, 30771, Note_on_c, 13, 56, 0
15, 30771, Note_on_c, 13, 53, 0
15, 30780, Note_on_c, 13, 53, 84
15, 30780, Note_on_c, 13, 56, 84
15, 30831, Note_on_c, 13, 53, 0
15, 30831, Note_on_c, 13, 56, 0
15, 30840, Note_on_c, 13, 56, 84
15, 30840, Note_on_c, 13, 53, 84
15, 30891, Note_on_c, 13, 56, 0
15, 30891, Note_on_c, 13, 53, 0
15, 30900, Note_on_c, 13, 56, 84
15, 30900, Note_on_c, 13, 53, 84
15, 30951, Note_on_c, 13, 56, 0
15, 30951, Note_on_c, 13, 53, 0
15, 30960, Note_on_c, 13, 53, 84
15, 30960, Note_on_c, 13, 56, 84
15, 31011, Note_on_c, 13, 53, 0
15, 31011, Note_on_c, 13, 56, 0
15, 31020, Note_on_c, 13, 56, 84
15, 31020, Note_on_c, 13, 53, 84
15, 31071, Note_on_c, 13, 56, 0
15, 31071, Note_on_c, 13, 53, 0
15, 31080, Note_on_c, 13, 56, 84
15, 31080, Note_on_c, 13, 53, 84
15, 31131, Note_on_c, 13, 56, 0
15, 31131, Note_on_c, 13, 53, 0
15, 31140, Note_on_c, 13, 56, 84
15, 31140, Note_on_c, 13, 53, 84
15, 31191, Note_on_c, 13, 56, 0
15, 31191, Note_on_c, 13, 53, 0
15, 31200, Note_on_c, 13, 53, 92
15, 31200, Note_on_c, 13, 56, 92
15, 31649, Note_on_c, 13, 53, 0
15, 31649, Note_on_c, 13, 56, 0
15, 31680, Note_on_c, 13, 56, 92
15, 31680, Note_on_c, 13, 53, 92
15, 32129, Note_on_c, 13, 56, 0
15, 32129, Note_on_c, 13, 53, 0
15, 32160, Note_on_c, 13, 56, 92
15, 32160, Note_on_c, 13, 53, 92
15, 32609, Note_on_c, 13, 56, 0
15, 32609, Note_on_c, 13, 53, 0
15, 32640, Note_on_c, 13, 53, 92
15, 32640, Note_on_c, 13, 56, 92
15, 33089, Note_on_c, 13, 53, 0
15, 33089, Note_on_c, 13, 56, 0
15, 33120, Note_on_c, 13, 67, 52
15, 33171, Note_on_c, 13, 67, 0
15, 33180, Note_on_c, 13, 67, 52
15, 33231, Note_on_c, 13, 67, 0
15, 33240, Note_on_c, 13, 70, 52
15, 33291, Note_on_c, 13, 70, 0
15, 33300, Note_on_c, 13, 70, 52
15, 33351, Note_on_c, 13, 70, 0
15, 33360, Note_on_c, 13, 67, 52
15, 33411, Note_on_c, 13, 67, 0
15, 33420, Note_on_c, 13, 67, 52
15, 33471, Note_on_c, 13, 67, 0
15, 33480, Note_on_c, 13, 70, 52
15, 33531, Note_on_c, 13, 70, 0
15, 33540, Note_on_c, 13, 70, 52
15, 33591, Note_on_c, 13, 70, 0
15, 33600, Note_on_c, 13, 67, 52
15, 33651, Note_on_c, 13, 67, 0
15, 33660, Note_on_c, 13, 67, 52
15, 33711, Note_on_c, 13, 67, 0
15, 33720, Note_on_c, 13, 70, 52
15, 33771, Note_on_c, 13, 70, 0
15, 33780, Note_on_c, 13, 70, 52
15, 33831, Note_on_c, 13, 70, 0
15, 33840, Note_on_c, 13, 65, 52
15, 33891, Note_on_c, 13, 65, 0
15, 33900, Note_on_c, 13, 65, 52
15, 33951, Note_on_c, 13, 65, 0
15, 33960, Note_on_c, 13, 69, 52
15, 34011, Note_on_c, 13, 69, 0
15, 34020, Note_on_c, 13, 69, 52
15, 34071, Note_on_c, 13, 69, 0
15, 34080, Note_on_c, 13, 65, 52
15, 34131, Note_on_c, 13, 65, 0
15, 34140, Note_on_c, 13, 65, 52
15, 34191, Note_on_c, 13, 65, 0
15, 34200, Note_on_c, 13, 70, 52
15, 34251, Note_on_c, 13, 70, 0
15, 34260, Note_on_c, 13, 70, 52
15, 34311, Note_on_c, 13, 70, 0
15, 34320, Note_on_c, 13, 65, 52
15, 34371, Note_on_c, 13, 65, 0
15, 34380, Note_on_c, 13, 65, 52
15, 34431, Note_on_c, 13, 65, 0
15, 34440, Note_on_c, 13, 67, 52
15, 34491, Note_on_c, 13, 67, 0
15, 34500, Note_on_c, 13, 67, 52
15, 34551, Note_on_c, 13, 67, 0
15, 34560, Note_on_c, 13, 65, 52
15, 34611, Note_on_c, 13, 65, 0
15, 34620, Note_on_c, 13, 65, 52
15, 34671, Note_on_c, 13, 65, 0
15, 34680, Note_on_c, 13, 69, 52
15, 34731, Note_on_c, 13, 69, 0
15, 34740, Note_on_c, 13, 69, 52
15, 34791, Note_on_c, 13, 69, 0
15, 34800, Note_on_c, 13, 67, 52
15, 34851, Note_on_c, 13, 67, 0
15, 34860, Note_on_c, 13, 67, 52
15, 34911, Note_on_c, 13, 67, 0
15, 34920, Note_on_c, 13, 70, 52
15, 34971, Note_on_c, 13, 70, 0
15, 34980, Note_on_c, 13, 70, 52
15, 35031, Note_on_c, 13, 70, 0
15, 35040, Note_on_c, 13, 56, 84
15, 35040, Note_on_c, 13, 53, 84
15, 35504, Note_on_c, 13, 56, 0
15, 35504, Note_on_c, 13, 53, 0
15, 35520, Note_on_c, 13, 53, 92
15, 35520, Note_on_c, 13, 56, 92
15, 35969, Note_on_c, 13, 53, 0
15, 35969, Note_on_c, 13, 56, 0
15, 36000, Note_on_c, 13, 56, 92
15, 36000, Note_on_c, 13, 53, 92
15, 36449, Note_on_c, 13, 56, 0
15, 36449, Note_on_c, 13, 53, 0
15, 36480, Note_on_c, 13, 53, 92
15, 36480, Note_on_c, 13, 56, 92
15, 36929, Note_on_c, 13, 53, 0
15, 36929, Note_on_c, 13, 56, 0
15, 36960, Note_on_c, 13, 69, 52
15, 37011, Note_on_c, 13, 69, 0
15, 37020, Note_on_c, 13, 69, 52
15, 37071, Note_on_c, 13, 69, 0
15, 37080, Note_on_c, 13, 72, 52
15, 37131, Note_on_c, 13, 72, 0
15, 37140, Note_on_c, 13, 72, 52
15, 37191, Note_on_c, 13, 72, 0
15, 37200, Note_on_c, 13, 69, 52
15, 37251, Note_on_c, 13, 69, 0
15, 37260, Note_on_c, 13, 69, 52
15, 37311, Note_on_c, 13, 69, 0
15, 37320, Note_on_c, 13, 72, 52
15, 37371, Note_on_c, 13, 72, 0
15, 37380, Note_on_c, 13, 72, 52
15, 37431, Note_on_c, 13, 72, 0
15, 37440, Note_on_c, 13, 69, 52
15, 37491, Note_on_c, 13, 69, 0
15, 37500, Note_on_c, 13, 69, 52
15, 37551, Note_on_c, 13, 69, 0
15, 37560, Note_on_c, 13, 72, 52
15, 37611, Note_on_c, 13, 72, 0
15, 37620, Note_on_c, 13, 72, 52
15, 37671, Note_on_c, 13, 72, 0
15, 37680, Note_on_c, 13, 67, 52
15, 37731, Note_on_c, 13, 67, 0
15, 37740, Note_on_c, 13, 67, 52
15, 37791, Note_on_c, 13, 67, 0
15, 37800, Note_on_c, 13, 70, 52
15, 37851, Note_on_c, 13, 70, 0
15, 37860, Note_on_c, 13, 70, 52
15, 37911, Note_on_c, 13, 70, 0
15, 37920, Note_on_c, 13, 64, 52
15, 37971, Note_on_c, 13, 64, 0
15, 37980, Note_on_c, 13, 64, 52
15, 38031, Note_on_c, 13, 64, 0
15, 38040, Note_on_c, 13, 67, 52
15, 38091, Note_on_c, 13, 67, 0
15, 38100, Note_on_c, 13, 67, 52
15, 38151, Note_on_c, 13, 67, 0
15, 38160, Note_on_c, 13, 64, 52
15, 38211, Note_on_c, 13, 64, 0
15, 38220, Note_on_c, 13, 64, 52
15, 38271, Note_on_c, 13, 64, 0
15, 38280, Note_on_c, 13, 67, 52
15, 38331, Note_on_c, 13, 67, 0
15, 38340, Note_on_c, 13, 67, 52
15, 38391, Note_on_c, 13, 67, 0
15, 38400, Note_on_c, 13, 64, 52
15, 38451, Note_on_c, 13, 64, 0
15, 38460, Note_on_c, 13, 64, 52
15, 38511, Note_on_c, 13, 64, 0
15, 38520, Note_on_c, 13, 67, 52
15, 38571, Note_on_c, 13, 67, 0
15, 38580, Note_on_c, 13, 67, 52
15, 38631, Note_on_c, 13, 67, 0
15, 38640, Note_on_c, 13, 64, 52
15, 38691, Note_on_c, 13, 64, 0
15, 38700, Note_on_c, 13, 64, 52
15, 38751, Note_on_c, 13, 64, 0
15, 38760, Note_on_c, 13, 67, 52
15, 38811, Note_on_c, 13, 67, 0
15, 38820, Note_on_c, 13, 67, 52
15, 38871, Note_on_c, 13, 67, 0
15, 38880, Note_on_c, 13, 65, 52
15, 38931, Note_on_c, 13, 65, 0
15, 38940, Note_on_c, 13, 65, 53
15, 38991, Note_on_c, 13, 65, 0
15, 39000, Note_on_c, 13, 69, 54
15, 39051, Note_on_c, 13, 69, 0
15, 39060, Note_on_c, 13, 69, 55
15, 39111, Note_on_c, 13, 69, 0
15, 39120, Note_on_c, 13, 65, 56
15, 39171, Note_on_c, 13, 65, 0
15, 39180, Note_on_c, 13, 65, 57
15, 39231, Note_on_c, 13, 65, 0
15, 39240, Note_on_c, 13, 69, 58
15, 39291, Note_on_c, 13, 69, 0
15, 39300, Note_on_c, 13, 69, 59
15, 39351, Note_on_c, 13, 69, 0
15, 39360, Note_on_c, 13, 65, 60
15, 39411, Note_on_c, 13, 65, 0
15, 39420, Note_on_c, 13, 65, 61
15, 39471, Note_on_c, 13, 65, 0
15, 39480, Note_on_c, 13, 67, 62
15, 39531, Note_on_c, 13, 67, 0
15, 39540, Note_on_c, 13, 67, 63
15, 39591, Note_on_c, 13, 67, 0
15, 39600, Note_on_c, 13, 64, 64
15, 39651, Note_on_c, 13, 64, 0
15, 39660, Note_on_c, 13, 64, 65
15, 39711, Note_on_c, 13, 64, 0
15, 39720, Note_on_c, 13, 67, 66
15, 39771, Note_on_c, 13, 67, 0
15, 39780, Note_on_c, 13, 67, 67
15, 39831, Note_on_c, 13, 67, 0
15, 39840, Note_on_c, 13, 65, 68
15, 39891, Note_on_c, 13, 65, 0
15, 39900, Note_on_c, 13, 65, 69
15, 39951, Note_on_c, 13, 65, 0
15, 39960, Note_on_c, 13, 69, 70
15, 40011, Note_on_c, 13, 69, 0
15, 40020, Note_on_c, 13, 69, 71
15, 40071, Note_on_c, 13, 69, 0
15, 40080, Note_on_c, 13, 65, 72
15, 40131, Note_on_c, 13, 65, 0
15, 40140, Note_on_c, 13, 65, 73
15, 40191, Note_on_c, 13, 65, 0
15, 40200, Note_on_c, 13, 69, 74
15, 40251, Note_on_c, 13, 69, 0
15, 40260, Note_on_c, 13, 69, 75
15, 40311, Note_on_c, 13, 69, 0
15, 40320, Note_on_c, 13, 65, 76
15, 40371, Note_on_c, 13, 65, 0
15, 40380, Note_on_c, 13, 65, 77
15, 40431, Note_on_c, 13, 65, 0
15, 40440, Note_on_c, 13, 67, 78
15, 40491, Note_on_c, 13, 67, 0
15, 40500, Note_on_c, 13, 67, 79
15, 40551, Note_on_c, 13, 67, 0
15, 40560, Note_on_c, 13, 64, 80
15, 40611, Note_on_c, 13, 64, 0
15, 40620, Note_on_c, 13, 64, 81
15, 40671, Note_on_c, 13, 64, 0
15, 40680, Note_on_c, 13, 67, 82
15, 40731, Note_on_c, 13, 67, 0
15, 40740, Note_on_c, 13, 67, 83
15, 40791, Note_on_c, 13, 67, 0
15, 40800, Note_on_c, 13, 65, 84
15, 40851, Note_on_c, 13, 65, 0
15, 40860, Note_on_c, 13, 65, 84
15, 40911, Note_on_c, 13, 65, 0
15, 40920, Note_on_c, 13, 65, 84
15, 40971, Note_on_c, 13, 65, 0
15, 40980, Note_on_c, 13, 65, 84
15, 41031, Note_on_c, 13, 65, 0
15, 41040, Note_on_c, 13, 65, 84
15, 41091, Note_on_c, 13, 65, 0
15, 41100, Note_on_c, 13, 65, 84
15, 41151, Note_on_c, 13, 65, 0
15, 41160, Note_on_c, 13, 65, 84
15, 41211, Note_on_c, 13, 65, 0
15, 41220, Note_on_c, 13, 65, 84
15, 41271, Note_on_c, 13, 65, 0
15, 41280, Note_on_c, 13, 65, 84
15, 41331, Note_on_c, 13, 65, 0
15, 41340, Note_on_c, 13, 65, 84
15, 41391, Note_on_c, 13, 65, 0
15, 41400, Note_on_c, 13, 65, 84
15, 41451, Note_on_c, 13, 65, 0
15, 41460, Note_on_c, 13, 65, 84
15, 41511, Note_on_c, 13, 65, 0
15, 41520, Note_on_c, 13, 64, 84
15, 41571, Note_on_c, 13, 64, 0
15, 41580, Note_on_c, 13, 64, 84
15, 41631, Note_on_c, 13, 64, 0
15, 41640, Note_on_c, 13, 64, 84
15, 41691, Note_on_c, 13, 64, 0
15, 41700, Note_on_c, 13, 64, 84
15, 41751, Note_on_c, 13, 64, 0
15, 41760, Note_on_c, 13, 53, 84
15, 41811, Note_on_c, 13, 53, 0
15, 41820, Note_on_c, 13, 52, 84
15, 41871, Note_on_c, 13, 52, 0
15, 41880, Note_on_c, 13, 53, 84
15, 41931, Note_on_c, 13, 53, 0
15, 41940, Note_on_c, 13, 57, 84
15, 41991, Note_on_c, 13, 57, 0
15, 42000, Note_on_c, 13, 50, 84
15, 42051, Note_on_c, 13, 50, 0
15, 42060, Note_on_c, 13, 52, 84
15, 42111, Note_on_c, 13, 52, 0
15, 42120, Note_on_c, 13, 53, 84
15, 42171, Note_on_c, 13, 53, 0
15, 42180, Note_on_c, 13, 55, 84
15, 42231, Note_on_c, 13, 55, 0
15, 42240, Note_on_c, 13, 48, 84
15, 42291, Note_on_c, 13, 48, 0
15, 42300, Note_on_c, 13, 50, 84
15, 42351, Note_on_c, 13, 50, 0
15, 42360, Note_on_c, 13, 52, 84
15, 42411, Note_on_c, 13, 52, 0
15, 42420, Note_on_c, 13, 53, 84
15, 42471, Note_on_c, 13, 53, 0
15, 42480, Note_on_c, 13, 48, 84
15, 42531, Note_on_c, 13, 48, 0
15, 42540, Note_on_c, 13, 48, 84
15, 42591, Note_on_c, 13, 48, 0
15, 42600, Note_on_c, 13, 50, 84
15, 42651, Note_on_c, 13, 50, 0
15, 42660, Note_on_c, 13, 52, 84
15, 42711, Note_on_c, 13, 52, 0
15, 42720, Note_on_c, 13, 60, 84
15, 43064, Note_on_c, 13, 60, 0
15, 43080, Note_on_c, 13, 58, 84
15, 43184, Note_on_c, 13, 58, 0
15, 43200, Note_on_c, 13, 57, 84
15, 43304, Note_on_c, 13, 57, 0
15, 43320, Note_on_c, 13, 57, 84
15, 43424, Note_on_c, 13, 57, 0
15, 43440, Note_on_c, 13, 55, 84
15, 43469, Note_on_c, 13, 55, 0
15, 43470, Note_on_c, 13, 57, 84
15, 43499, Note_on_c, 13, 57, 0
15, 43500, Note_on_c, 13, 55, 84
15, 43529, Note_on_c, 13, 55, 0
15, 43530, Note_on_c, 13, 57, 84
15, 43559, Note_on_c, 13, 57, 0
15, 43560, Note_on_c, 13, 55, 84
15, 43589, Note_on_c, 13, 55, 0
15, 43590, Note_on_c, 13, 57, 84
15, 43619, Note_on_c, 13, 57, 0
15, 43620, Note_on_c, 13, 53, 84
15, 43649, Note_on_c, 13, 53, 0
15, 43650, Note_on_c, 13, 55, 84
15, 43679, Note_on_c, 13, 55, 0
15, 43680, Note_on_c, 13, 53, 84
15, 43731, Note_on_c, 13, 53, 0
15, 43740, Note_on_c, 13, 52, 84
15, 43791, Note_on_c, 13, 52, 0
15, 43800, Note_on_c, 13, 53, 84
15, 43851, Note_on_c, 13, 53, 0
15, 43860, Note_on_c, 13, 57, 84
15, 43911, Note_on_c, 13, 57, 0
15, 43920, Note_on_c, 13, 50, 84
15, 43971, Note_on_c, 13, 50, 0
15, 43980, Note_on_c, 13, 52, 84
15, 44031, Note_on_c, 13, 52, 0
15, 44040, Note_on_c, 13, 53, 84
15, 44091, Note_on_c, 13, 53, 0
15, 44100, Note_on_c, 13, 55, 84
15, 44151, Note_on_c, 13, 55, 0
15, 44160, Note_on_c, 13, 48, 84
15, 44211, Note_on_c, 13, 48, 0
15, 44220, Note_on_c, 13, 50, 84
15, 44271, Note_on_c, 13, 50, 0
15, 44280, Note_on_c, 13, 52, 84
15, 44331, Note_on_c, 13, 52, 0
15, 44340, Note_on_c, 13, 53, 84
15, 44391, Note_on_c, 13, 53, 0
15, 44400, Note_on_c, 13, 48, 84
15, 44451, Note_on_c, 13, 48, 0
15, 44460, Note_on_c, 13, 48, 84
15, 44511, Note_on_c, 13, 48, 0
15, 44520, Note_on_c, 13, 50, 84
15, 44571, Note_on_c, 13, 50, 0
15, 44580, Note_on_c, 13, 52, 84
15, 44631, Note_on_c, 13, 52, 0
15, 44640, Note_on_c, 13, 53, 84
15, 44744, Note_on_c, 13, 53, 0
15, 44760, Note_on_c, 13, 60, 84
15, 44984, Note_on_c, 13, 60, 0
15, 45000, Note_on_c, 13, 58, 84
15, 45104, Note_on_c, 13, 58, 0
15, 45120, Note_on_c, 13, 57, 84
15, 45224, Note_on_c, 13, 57, 0
15, 45240, Note_on_c, 13, 57, 84
15, 45344, Note_on_c, 13, 57, 0
15, 45360, Note_on_c, 13, 55, 84
15, 45389, Note_on_c, 13, 55, 0
15, 45390, Note_on_c, 13, 57, 84
15, 45419, Note_on_c, 13, 57, 0
15, 45420, Note_on_c, 13, 55, 84
15, 45449, Note_on_c, 13, 55, 0
15, 45450, Note_on_c, 13, 57, 84
15, 45479, Note_on_c, 13, 57, 0
15, 45480, Note_on_c, 13, 55, 84
15, 45509, Note_on_c, 13, 55, 0
15, 45510, Note_on_c, 13, 57, 84
15, 45539, Note_on_c, 13, 57, 0
15, 45540, Note_on_c, 13, 53, 84
15, 45569, Note_on_c, 13, 53, 0
15, 45570, Note_on_c, 13, 55, 84
15, 45599, Note_on_c, 13, 55, 0
15, 45600, Note_on_c, 13, 53, 84
15, 45651, Note_on_c, 13, 53, 0
15, 45660, Note_on_c, 13, 52, 84
15, 45711, Note_on_c, 13, 52, 0
15, 45720, Note_on_c, 13, 53, 84
15, 45771, Note_on_c, 13, 53, 0
15, 45780, Note_on_c, 13, 57, 84
15, 45831, Note_on_c, 13, 57, 0
15, 45840, Note_on_c, 13, 48, 84
15, 45891, Note_on_c, 13, 48, 0
15, 45900, Note_on_c, 13, 50, 84
15, 45951, Note_on_c, 13, 50, 0
15, 45960, Note_on_c, 13, 51, 84
15, 46011, Note_on_c, 13, 51, 0
15, 46020, Note_on_c, 13, 52, 84
15, 46071, Note_on_c, 13, 52, 0
15, 46080, Note_on_c, 13, 53, 84
15, 46131, Note_on_c, 13, 53, 0
15, 46140, Note_on_c, 13, 52, 84
15, 46191, Note_on_c, 13, 52, 0
15, 46200, Note_on_c, 13, 53, 84
15, 46251, Note_on_c, 13, 53, 0
15, 46260, Note_on_c, 13, 57, 84
15, 46311, Note_on_c, 13, 57, 0
15, 46320, Note_on_c, 13, 48, 84
15, 46371, Note_on_c, 13, 48, 0
15, 46380, Note_on_c, 13, 50, 84
15, 46431, Note_on_c, 13, 50, 0
15, 46440, Note_on_c, 13, 51, 84
15, 46491, Note_on_c, 13, 51, 0
15, 46500, Note_on_c, 13, 52, 84
15, 46551, Note_on_c, 13, 52, 0
15, 46560, Note_on_c, 13, 53, 84
15, 46611, Note_on_c, 13, 53, 0
15, 46620, Note_on_c, 13, 52, 84
15, 46671, Note_on_c, 13, 52, 0
15, 46680, Note_on_c, 13, 53, 84
15, 46731, Note_on_c, 13, 53, 0
15, 46740, Note_on_c, 13, 57, 84
15, 46791, Note_on_c, 13, 57, 0
15, 46800, Note_on_c, 13, 48, 84
15, 46851, Note_on_c, 13, 48, 0
15, 46860, Note_on_c, 13, 50, 84
15, 46911, Note_on_c, 13, 50, 0
15, 46920, Note_on_c, 13, 51, 84
15, 46971, Note_on_c, 13, 51, 0
15, 46980, Note_on_c, 13, 52, 84
15, 47031, Note_on_c, 13, 52, 0
15, 47040, Note_on_c, 13, 53, 84
15, 47091, Note_on_c, 13, 53, 0
15, 47100, Note_on_c, 13, 52, 84
15, 47151, Note_on_c, 13, 52, 0
15, 47160, Note_on_c, 13, 53, 84
15, 47211, Note_on_c, 13, 53, 0
15, 47220, Note_on_c, 13, 57, 84
15, 47271, Note_on_c, 13, 57, 0
15, 47280, Note_on_c, 13, 48, 84
15, 47331, Note_on_c, 13, 48, 0
15, 47340, Note_on_c, 13, 50, 84
15, 47391, Note_on_c, 13, 50, 0
15, 47400, Note_on_c, 13, 51, 84
15, 47451, Note_on_c, 13, 51, 0
15, 47460, Note_on_c, 13, 52, 84
15, 47511, Note_on_c, 13, 52, 0
15, 47520, Note_on_c, 13, 53, 52
15, 47639, Note_on_c, 13, 53, 0
15, 47760, Note_on_c, 13, 48, 52
15, 47811, Note_on_c, 13, 48, 0
15, 47820, Note_on_c, 13, 50, 52
15, 47871, Note_on_c, 13, 50, 0
15, 47880, Note_on_c, 13, 51, 52
15, 47931, Note_on_c, 13, 51, 0
15, 47940, Note_on_c, 13, 52, 52
15, 47991, Note_on_c, 13, 52, 0
15, 48000, Note_on_c, 13, 53, 52
15, 48119, Note_on_c, 13, 53, 0
15, 48240, Note_on_c, 13, 50, 52
15, 48291, Note_on_c, 13, 50, 0
15, 48300, Note_on_c, 13, 51, 52
15, 48351, Note_on_c, 13, 51, 0
15, 48360, Note_on_c, 13, 53, 52
15, 48411, Note_on_c, 13, 53, 0
15, 48420, Note_on_c, 13, 54, 52
15, 48471, Note_on_c, 13, 54, 0
15, 48480, Note_on_c, 13, 55, 52
15, 48599, Note_on_c, 13, 55, 0
15, 48720, Note_on_c, 13, 51, 52
15, 48771, Note_on_c, 13, 51, 0
15, 48780, Note_on_c, 13, 53, 52
15, 48831, Note_on_c, 13, 53, 0
15, 48840, Note_on_c, 13, 54, 52
15, 48891, Note_on_c, 13, 54, 0
15, 48900, Note_on_c, 13, 55, 52
15, 48951, Note_on_c, 13, 55, 0
15, 48960, Note_on_c, 13, 57, 52
15, 49079, Note_on_c, 13, 57, 0
15, 49200, Note_on_c, 13, 53, 52
15, 49251, Note_on_c, 13, 53, 0
15, 49260, Note_on_c, 13, 55, 52
15, 49311, Note_on_c, 13, 55, 0
15, 49320, Note_on_c, 13, 56, 52
15, 49371, Note_on_c, 13, 56, 0
15, 49380, Note_on_c, 13, 57, 52
15, 49431, Note_on_c, 13, 57, 0
15, 49440, Note_on_c, 13, 58, 52
15, 49559, Note_on_c, 13, 58, 0
15, 49680, Note_on_c, 13, 58, 52
15, 49799, Note_on_c, 13, 58, 0
15, 49920, Note_on_c, 13, 55, 52
15, 50039, Note_on_c, 13, 55, 0
15, 50160, Note_on_c, 13, 67, 52
15, 50211, Note_on_c, 13, 67, 0
15, 50220, Note_on_c, 13, 65, 52
15, 50271, Note_on_c, 13, 65, 0
15, 50280, Note_on_c, 13, 63, 52
15, 50331, Note_on_c, 13, 63, 0
15, 50340, Note_on_c, 13, 62, 52
15, 50391, Note_on_c, 13, 62, 0
15, 50400, Note_on_c, 13, 60, 52
15, 50451, Note_on_c, 13, 60, 0
15, 50460, Note_on_c, 13, 58, 52
15, 50511, Note_on_c, 13, 58, 0
15, 50520, Note_on_c, 13, 57, 52
15, 50571, Note_on_c, 13, 57, 0
15, 50580, Note_on_c, 13, 55, 52
15, 50631, Note_on_c, 13, 55, 0
15, 50640, Note_on_c, 13, 53, 76
15, 50691, Note_on_c, 13, 53, 0
15, 50700, Note_on_c, 13, 63, 76
15, 50751, Note_on_c, 13, 63, 0
15, 50760, Note_on_c, 13, 62, 76
15, 50811, Note_on_c, 13, 62, 0
15, 50820, Note_on_c, 13, 60, 76
15, 50871, Note_on_c, 13, 60, 0
15, 50880, Note_on_c, 13, 58, 76
15, 50931, Note_on_c, 13, 58, 0
15, 50940, Note_on_c, 13, 60, 76
15, 50991, Note_on_c, 13, 60, 0
15, 51000, Note_on_c, 13, 62, 76
15, 51051, Note_on_c, 13, 62, 0
15, 51060, Note_on_c, 13, 58, 76
15, 51111, Note_on_c, 13, 58, 0
15, 51120, Note_on_c, 13, 53, 76
15, 51171, Note_on_c, 13, 53, 0
15, 51180, Note_on_c, 13, 57, 76
15, 51231, Note_on_c, 13, 57, 0
15, 51240, Note_on_c, 13, 60, 76
15, 51291, Note_on_c, 13, 60, 0
15, 51300, Note_on_c, 13, 65, 76
15, 51359, Note_on_c, 13, 65, 0
15, 54000, Note_on_c, 13, 63, 44
15, 54051, Note_on_c, 13, 63, 0
15, 54060, Note_on_c, 13, 62, 44
15, 54111, Note_on_c, 13, 62, 0
15, 54120, Note_on_c, 13, 60, 44
15, 54171, Note_on_c, 13, 60, 0
15, 54180, Note_on_c, 13, 62, 44
15, 54231, Note_on_c, 13, 62, 0
15, 54240, Note_on_c, 13, 63, 44
15, 54291, Note_on_c, 13, 63, 0
15, 54300, Note_on_c, 13, 62, 44
15, 54351, Note_on_c, 13, 62, 0
15, 54360, Note_on_c, 13, 60, 44
15, 54411, Note_on_c, 13, 60, 0
15, 54420, Note_on_c, 13, 62, 44
15, 54471, Note_on_c, 13, 62, 0
15, 54480, Note_on_c, 13, 63, 44
15, 54531, Note_on_c, 13, 63, 0
15, 54540, Note_on_c, 13, 62, 44
15, 54591, Note_on_c, 13, 62, 0
15, 54600, Note_on_c, 13, 60, 44
15, 54651, Note_on_c, 13, 60, 0
15, 54660, Note_on_c, 13, 58, 44
15, 54711, Note_on_c, 13, 58, 0
15, 54720, Note_on_c, 13, 57, 44
15, 54779, Note_on_c, 13, 57, 0
15, 54780, Note_on_c, 13, 60, 44
15, 54839, Note_on_c, 13, 60, 0
15, 54840, Note_on_c, 13, 57, 44
15, 54899, Note_on_c, 13, 57, 0
15, 54900, Note_on_c, 13, 60, 44
15, 54959, Note_on_c, 13, 60, 0
15, 54960, Note_on_c, 13, 57, 44
15, 55019, Note_on_c, 13, 57, 0
15, 55020, Note_on_c, 13, 60, 44
15, 55079, Note_on_c, 13, 60, 0
15, 55080, Note_on_c, 13, 57, 44
15, 55139, Note_on_c, 13, 57, 0
15, 55140, Note_on_c, 13, 60, 44
15, 55191, Note_on_c, 13, 60, 0
15, 55200, Note_on_c, 13, 58, 44
15, 55259, Note_on_c, 13, 58, 0
15, 55260, Note_on_c, 13, 62, 44
15, 55319, Note_on_c, 13, 62, 0
15, 55320, Note_on_c, 13, 58, 44
15, 55379, Note_on_c, 13, 58, 0
15, 55380, Note_on_c, 13, 62, 44
15, 55439, Note_on_c, 13, 62, 0
15, 55440, Note_on_c, 13, 58, 44
15, 55499, Note_on_c, 13, 58, 0
15, 55500, Note_on_c, 13, 62, 44
15, 55559, Note_on_c, 13, 62, 0
15, 55560, Note_on_c, 13, 58, 44
15, 55619, Note_on_c, 13, 58, 0
15, 55620, Note_on_c, 13, 62, 44
15, 55671, Note_on_c, 13, 62, 0
15, 55680, Note_on_c, 13, 57, 44
15, 55739, Note_on_c, 13, 57, 0
15, 55740, Note_on_c, 13, 60, 44
15, 55799, Note_on_c, 13, 60, 0
15, 55800, Note_on_c, 13, 57, 44
15, 55859, Note_on_c, 13, 57, 0
15, 55860, Note_on_c, 13, 60, 44
15, 55919, Note_on_c, 13, 60, 0
15, 55920, Note_on_c, 13, 57, 44
15, 55979, Note_on_c, 13, 57, 0
15, 55980, Note_on_c, 13, 60, 44
15, 56039, Note_on_c, 13, 60, 0
15, 56040, Note_on_c, 13, 57, 44
15, 56099, Note_on_c, 13, 57, 0
15, 56100, Note_on_c, 13, 60, 44
15, 56151, Note_on_c, 13, 60, 0
15, 56160, Note_on_c, 13, 58, 44
15, 56219, Note_on_c, 13, 58, 0
15, 56220, Note_on_c, 13, 62, 44
15, 56279, Note_on_c, 13, 62, 0
15, 56280, Note_on_c, 13, 58, 44
15, 56339, Note_on_c, 13, 58, 0
15, 56340, Note_on_c, 13, 62, 44
15, 56399, Note_on_c, 13, 62, 0
15, 56400, Note_on_c, 13, 58, 44
15, 56459, Note_on_c, 13, 58, 0
15, 56460, Note_on_c, 13, 62, 44
15, 56519, Note_on_c, 13, 62, 0
15, 56520, Note_on_c, 13, 58, 44
15, 56579, Note_on_c, 13, 58, 0
15, 56580, Note_on_c, 13, 62, 44
15, 56631, Note_on_c, 13, 62, 0
15, 56640, Note_on_c, 13, 57, 44
15, 56699, Note_on_c, 13, 57, 0
15, 56700, Note_on_c, 13, 60, 44
15, 56759, Note_on_c, 13, 60, 0
15, 56760, Note_on_c, 13, 57, 44
15, 56819, Note_on_c, 13, 57, 0
15, 56820, Note_on_c, 13, 60, 44
15, 56879, Note_on_c, 13, 60, 0
15, 56880, Note_on_c, 13, 57, 44
15, 56939, Note_on_c, 13, 57, 0
15, 56940, Note_on_c, 13, 60, 44
15, 56999, Note_on_c, 13, 60, 0
15, 57000, Note_on_c, 13, 57, 44
15, 57059, Note_on_c, 13, 57, 0
15, 57060, Note_on_c, 13, 60, 44
15, 57111, Note_on_c, 13, 60, 0
15, 57120, Note_on_c, 13, 58, 44
15, 57179, Note_on_c, 13, 58, 0
15, 57180, Note_on_c, 13, 62, 44
15, 57239, Note_on_c, 13, 62, 0
15, 57240, Note_on_c, 13, 58, 44
15, 57299, Note_on_c, 13, 58, 0
15, 57300, Note_on_c, 13, 62, 44
15, 57359, Note_on_c, 13, 62, 0
15, 57360, Note_on_c, 13, 58, 44
15, 57419, Note_on_c, 13, 58, 0
15, 57420, Note_on_c, 13, 62, 44
15, 57479, Note_on_c, 13, 62, 0
15, 57480, Note_on_c, 13, 58, 44
15, 57539, Note_on_c, 13, 58, 0
15, 57540, Note_on_c, 13, 62, 44
15, 57591, Note_on_c, 13, 62, 0
15, 57600, Note_on_c, 13, 57, 44
15, 57659, Note_on_c, 13, 57, 0
15, 57660, Note_on_c, 13, 60, 44
15, 57719, Note_on_c, 13, 60, 0
15, 57720, Note_on_c, 13, 57, 44
15, 57779, Note_on_c, 13, 57, 0
15, 57780, Note_on_c, 13, 60, 44
15, 57839, Note_on_c, 13, 60, 0
15, 57840, Note_on_c, 13, 57, 44
15, 57899, Note_on_c, 13, 57, 0
15, 57900, Note_on_c, 13, 60, 44
15, 57959, Note_on_c, 13, 60, 0
15, 57960, Note_on_c, 13, 57, 44
15, 58019, Note_on_c, 13, 57, 0
15, 58020, Note_on_c, 13, 60, 44
15, 58079, Note_on_c, 13, 60, 0
15, 58560, Note_on_c, 13, 53, 44
15, 58679, Note_on_c, 13, 53, 0
15, 58800, Note_on_c, 13, 53, 64
15, 58919, Note_on_c, 13, 53, 0
15, 59040, Note_on_c, 13, 58, 84
15, 59091, Note_on_c, 13, 58, 0
15, 59100, Note_on_c, 13, 57, 84
15, 59151, Note_on_c, 13, 57, 0
15, 59160, Note_on_c, 13, 58, 84
15, 59211, Note_on_c, 13, 58, 0
15, 59220, Note_on_c, 13, 62, 84
15, 59271, Note_on_c, 13, 62, 0
15, 59280, Note_on_c, 13, 60, 84
15, 59331, Note_on_c, 13, 60, 0
15, 59340, Note_on_c, 13, 58, 84
15, 59391, Note_on_c, 13, 58, 0
15, 59400, Note_on_c, 13, 57, 84
15, 59451, Note_on_c, 13, 57, 0
15, 59460, Note_on_c, 13, 58, 84
15, 59511, Note_on_c, 13, 58, 0
15, 59520, Note_on_c, 13, 57, 84
15, 59571, Note_on_c, 13, 57, 0
15, 59580, Note_on_c, 13, 67, 84
15, 59631, Note_on_c, 13, 67, 0
15, 59640, Note_on_c, 13, 65, 84
15, 59691, Note_on_c, 13, 65, 0
15, 59700, Note_on_c, 13, 67, 84
15, 59751, Note_on_c, 13, 67, 0
15, 59760, Note_on_c, 13, 65, 84
15, 59811, Note_on_c, 13, 65, 0
15, 59820, Note_on_c, 13, 63, 84
15, 59871, Note_on_c, 13, 63, 0
15, 59880, Note_on_c, 13, 62, 84
15, 59931, Note_on_c, 13, 62, 0
15, 59940, Note_on_c, 13, 63, 84
15, 59991, Note_on_c, 13, 63, 0
15, 60000, Note_on_c, 13, 62, 84
15, 60051, Note_on_c, 13, 62, 0
15, 60060, Note_on_c, 13, 60, 84
15, 60111, Note_on_c, 13, 60, 0
15, 60120, Note_on_c, 13, 58, 84
15, 60171, Note_on_c, 13, 58, 0
15, 60180, Note_on_c, 13, 60, 84
15, 60231, Note_on_c, 13, 60, 0
15, 60240, Note_on_c, 13, 58, 84
15, 60291, Note_on_c, 13, 58, 0
15, 60300, Note_on_c, 13, 57, 84
15, 60351, Note_on_c, 13, 57, 0
15, 60360, Note_on_c, 13, 55, 84
15, 60411, Note_on_c, 13, 55, 0
15, 60420, Note_on_c, 13, 57, 84
15, 60471, Note_on_c, 13, 57, 0
15, 60480, Note_on_c, 13, 55, 84
15, 60531, Note_on_c, 13, 55, 0
15, 60540, Note_on_c, 13, 53, 84
15, 60591, Note_on_c, 13, 53, 0
15, 60600, Note_on_c, 13, 51, 84
15, 60651, Note_on_c, 13, 51, 0
15, 60660, Note_on_c, 13, 50, 84
15, 60711, Note_on_c, 13, 50, 0
15, 60720, Note_on_c, 13, 48, 84
15, 60824, Note_on_c, 13, 48, 0
15, 60840, Note_on_c, 13, 53, 84
15, 60944, Note_on_c, 13, 53, 0
15, 60960, Note_on_c, 13, 58, 84
15, 60960, Note_on_c, 13, 62, 84
15, 61011, Note_on_c, 13, 58, 0
15, 61011, Note_on_c, 13, 62, 0
15, 61020, Note_on_c, 13, 62, 84
15, 61020, Note_on_c, 13, 58, 84
15, 61071, Note_on_c, 13, 62, 0
15, 61071, Note_on_c, 13, 58, 0
15, 61080, Note_on_c, 13, 62, 84
15, 61080, Note_on_c, 13, 58, 84
15, 61131, Note_on_c, 13, 62, 0
15, 61131, Note_on_c, 13, 58, 0
15, 61140, Note_on_c, 13, 58, 84
15, 61140, Note_on_c, 13, 62, 84
15, 61191, Note_on_c, 13, 58, 0
15, 61191, Note_on_c, 13, 62, 0
15, 61200, Note_on_c, 13, 58, 84
15, 61200, Note_on_c, 13, 62, 84
15, 61251, Note_on_c, 13, 58, 0
15, 61251, Note_on_c, 13, 62, 0
15, 61260, Note_on_c, 13, 62, 84
15, 61260, Note_on_c, 13, 58, 84
15, 61311, Note_on_c, 13, 62, 0
15, 61311, Note_on_c, 13, 58, 0
15, 61320, Note_on_c, 13, 58, 84
15, 61320, Note_on_c, 13, 62, 84
15, 61371, Note_on_c, 13, 58, 0
15, 61371, Note_on_c, 13, 62, 0
15, 61380, Note_on_c, 13, 62, 84
15, 61380, Note_on_c, 13, 58, 84
15, 61431, Note_on_c, 13, 62, 0
15, 61431, Note_on_c, 13, 58, 0
15, 61440, Note_on_c, 13, 58, 84
15, 61440, Note_on_c, 13, 62, 84
15, 61491, Note_on_c, 13, 58, 0
15, 61491, Note_on_c, 13, 62, 0
15, 61500, Note_on_c, 13, 58, 84
15, 61500, Note_on_c, 13, 62, 84
15, 61551, Note_on_c, 13, 58, 0
15, 61551, Note_on_c, 13, 62, 0
15, 61560, Note_on_c, 13, 62, 84
15, 61560, Note_on_c, 13, 58, 84
15, 61611, Note_on_c, 13, 62, 0
15, 61611, Note_on_c, 13, 58, 0
15, 61620, Note_on_c, 13, 62, 84
15, 61620, Note_on_c, 13, 58, 84
15, 61671, Note_on_c, 13, 62, 0
15, 61671, Note_on_c, 13, 58, 0
15, 61680, Note_on_c, 13, 58, 84
15, 61680, Note_on_c, 13, 62, 84
15, 61731, Note_on_c, 13, 58, 0
15, 61731, Note_on_c, 13, 62, 0
15, 61740, Note_on_c, 13, 58, 84
15, 61740, Note_on_c, 13, 62, 84
15, 61791, Note_on_c, 13, 58, 0
15, 61791, Note_on_c, 13, 62, 0
15, 61800, Note_on_c, 13, 62, 84
15, 61800, Note_on_c, 13, 58, 84
15, 61851, Note_on_c, 13, 62, 0
15, 61851, Note_on_c, 13, 58, 0
15, 61860, Note_on_c, 13, 62, 84
15, 61860, Note_on_c, 13, 58, 84
15, 61911, Note_on_c, 13, 62, 0
15, 61911, Note_on_c, 13, 58, 0
15, 61920, Note_on_c, 13, 63, 84
15, 61920, Note_on_c, 13, 60, 84
15, 61971, Note_on_c, 13, 63, 0
15, 61971, Note_on_c, 13, 60, 0
15, 61980, Note_on_c, 13, 63, 84
15, 61980, Note_on_c, 13, 60, 84
15, 62031, Note_on_c, 13, 63, 0
15, 62031, Note_on_c, 13, 60, 0
15, 62040, Note_on_c, 13, 63, 84
15, 62040, Note_on_c, 13, 60, 84
15, 62091, Note_on_c, 13, 63, 0
15, 62091, Note_on_c, 13, 60, 0
15, 62100, Note_on_c, 13, 60, 84
15, 62100, Note_on_c, 13, 63, 84
15, 62151, Note_on_c, 13, 60, 0
15, 62151, Note_on_c, 13, 63, 0
15, 62160, Note_on_c, 13, 63, 84
15, 62160, Note_on_c, 13, 60, 84
15, 62211, Note_on_c, 13, 63, 0
15, 62211, Note_on_c, 13, 60, 0
15, 62220, Note_on_c, 13, 63, 84
15, 62220, Note_on_c, 13, 60, 84
15, 62271, Note_on_c, 13, 63, 0
15, 62271, Note_on_c, 13, 60, 0
15, 62280, Note_on_c, 13, 63, 84
15, 62280, Note_on_c, 13, 60, 84
15, 62331, Note_on_c, 13, 63, 0
15, 62331, Note_on_c, 13, 60, 0
15, 62340, Note_on_c, 13, 63, 84
15, 62340, Note_on_c, 13, 60, 84
15, 62391, Note_on_c, 13, 63, 0
15, 62391, Note_on_c, 13, 60, 0
15, 62400, Note_on_c, 13, 57, 84
15, 62400, Note_on_c, 13, 60, 84
15, 62451, Note_on_c, 13, 57, 0
15, 62451, Note_on_c, 13, 60, 0
15, 62460, Note_on_c, 13, 57, 84
15, 62460, Note_on_c, 13, 60, 84
15, 62511, Note_on_c, 13, 57, 0
15, 62511, Note_on_c, 13, 60, 0
15, 62520, Note_on_c, 13, 57, 84
15, 62520, Note_on_c, 13, 60, 84
15, 62571, Note_on_c, 13, 57, 0
15, 62571, Note_on_c, 13, 60, 0
15, 62580, Note_on_c, 13, 57, 84
15, 62580, Note_on_c, 13, 60, 84
15, 62631, Note_on_c, 13, 57, 0
15, 62631, Note_on_c, 13, 60, 0
15, 62640, Note_on_c, 13, 60, 84
15, 62640, Note_on_c, 13, 57, 84
15, 62691, Note_on_c, 13, 60, 0
15, 62691, Note_on_c, 13, 57, 0
15, 62700, Note_on_c, 13, 60, 84
15, 62700, Note_on_c, 13, 57, 84
15, 62751, Note_on_c, 13, 60, 0
15, 62751, Note_on_c, 13, 57, 0
15, 62760, Note_on_c, 13, 60, 84
15, 62760, Note_on_c, 13, 57, 84
15, 62811, Note_on_c, 13, 60, 0
15, 62811, Note_on_c, 13, 57, 0
15, 62820, Note_on_c, 13, 60, 84
15, 62820, Note_on_c, 13, 57, 84
15, 62871, Note_on_c, 13, 60, 0
15, 62871, Note_on_c, 13, 57, 0
15, 62880, Note_on_c, 13, 62, 84
15, 62880, Note_on_c, 13, 58, 84
15, 62931, Note_on_c, 13, 62, 0
15, 62931, Note_on_c, 13, 58, 0
15, 62940, Note_on_c, 13, 62, 84
15, 62940, Note_on_c, 13, 58, 84
15, 62991, Note_on_c, 13, 62, 0
15, 62991, Note_on_c, 13, 58, 0
15, 63000, Note_on_c, 13, 62, 84
15, 63000, Note_on_c, 13, 58, 84
15, 63051, Note_on_c, 13, 62, 0
15, 63051, Note_on_c, 13, 58, 0
15, 63060, Note_on_c, 13, 62, 84
15, 63060, Note_on_c, 13, 58, 84
15, 63111, Note_on_c, 13, 62, 0
15, 63111, Note_on_c, 13, 58, 0
15, 63120, Note_on_c, 13, 55, 84
15, 63171, Note_on_c, 13, 55, 0
15, 63180, Note_on_c, 13, 58, 84
15, 63231, Note_on_c, 13, 58, 0
15, 63240, Note_on_c, 13, 62, 84
15, 63291, Note_on_c, 13, 62, 0
15, 63300, Note_on_c, 13, 62, 84
15, 63351, Note_on_c, 13, 62, 0
15, 63360, Note_on_c, 13, 60, 84
15, 63411, Note_on_c, 13, 60, 0
15, 63420, Note_on_c, 13, 60, 84
15, 63471, Note_on_c, 13, 60, 0
15, 63480, Note_on_c, 13, 60, 84
15, 63531, Note_on_c, 13, 60, 0
15, 63540, Note_on_c, 13, 60, 84
15, 63591, Note_on_c, 13, 60, 0
15, 63600, Note_on_c, 13, 60, 84
15, 63651, Note_on_c, 13, 60, 0
15, 63660, Note_on_c, 13, 60, 84
15, 63711, Note_on_c, 13, 60, 0
15, 63720, Note_on_c, 13, 60, 84
15, 63771, Note_on_c, 13, 60, 0
15, 63780, Note_on_c, 13, 60, 84
15, 63831, Note_on_c, 13, 60, 0
15, 63840, Note_on_c, 13, 60, 84
15, 63891, Note_on_c, 13, 60, 0
15, 63900, Note_on_c, 13, 60, 84
15, 63951, Note_on_c, 13, 60, 0
15, 63960, Note_on_c, 13, 72, 84
15, 64011, Note_on_c, 13, 72, 0
15, 64020, Note_on_c, 13, 72, 84
15, 64071, Note_on_c, 13, 72, 0
15, 64080, Note_on_c, 13, 65, 84
15, 64131, Note_on_c, 13, 65, 0
15, 64140, Note_on_c, 13, 65, 84
15, 64191, Note_on_c, 13, 65, 0
15, 64200, Note_on_c, 13, 69, 84
15, 64251, Note_on_c, 13, 69, 0
15, 64260, Note_on_c, 13, 69, 84
15, 64311, Note_on_c, 13, 69, 0
15, 64320, Note_on_c, 13, 62, 84
15, 64371, Note_on_c, 13, 62, 0
15, 64380, Note_on_c, 13, 62, 84
15, 64431, Note_on_c, 13, 62, 0
15, 64440, Note_on_c, 13, 65, 84
15, 64491, Note_on_c, 13, 65, 0
15, 64500, Note_on_c, 13, 65, 84
15, 64551, Note_on_c, 13, 65, 0
15, 64560, Note_on_c, 13, 57, 84
15, 64611, Note_on_c, 13, 57, 0
15, 64620, Note_on_c, 13, 57, 84
15, 64671, Note_on_c, 13, 57, 0
15, 64680, Note_on_c, 13, 59, 84
15, 64731, Note_on_c, 13, 59, 0
15, 64740, Note_on_c, 13, 59, 84
15, 64791, Note_on_c, 13, 59, 0
15, 64800, Note_on_c, 13, 60, 84
15, 64851, Note_on_c, 13, 60, 0
15, 64860, Note_on_c, 13, 60, 84
15, 64911, Note_on_c, 13, 60, 0
15, 64920, Note_on_c, 13, 60, 84
15, 64971, Note_on_c, 13, 60, 0
15, 64980, Note_on_c, 13, 60, 84
15, 65031, Note_on_c, 13, 60, 0
15, 65040, Note_on_c, 13, 64, 84
15, 65091, Note_on_c, 13, 64, 0
15, 65100, Note_on_c, 13, 64, 84
15, 65151, Note_on_c, 13, 64, 0
15, 65160, Note_on_c, 13, 65, 84
15, 65211, Note_on_c, 13, 65, 0
15, 65220, Note_on_c, 13, 65, 84
15, 65271, Note_on_c, 13, 65, 0
15, 65280, Note_on_c, 13, 67, 84
15, 65331, Note_on_c, 13, 67, 0
15, 65340, Note_on_c, 13, 67, 84
15, 65391, Note_on_c, 13, 67, 0
15, 65400, Note_on_c, 13, 67, 84
15, 65451, Note_on_c, 13, 67, 0
15, 65460, Note_on_c, 13, 67, 84
15, 65511, Note_on_c, 13, 67, 0
15, 65520, Note_on_c, 13, 67, 84
15, 65571, Note_on_c, 13, 67, 0
15, 65580, Note_on_c, 13, 67, 84
15, 65631, Note_on_c, 13, 67, 0
15, 65640, Note_on_c, 13, 67, 84
15, 65691, Note_on_c, 13, 67, 0
15, 65700, Note_on_c, 13, 67, 84
15, 65751, Note_on_c, 13, 67, 0
15, 65760, Note_on_c, 13, 67, 84
15, 65811, Note_on_c, 13, 67, 0
15, 65820, Note_on_c, 13, 67, 84
15, 65871, Note_on_c, 13, 67, 0
15, 65880, Note_on_c, 13, 67, 84
15, 65931, Note_on_c, 13, 67, 0
15, 65940, Note_on_c, 13, 67, 84
15, 65991, Note_on_c, 13, 67, 0
15, 66000, Note_on_c, 13, 67, 84
15, 66051, Note_on_c, 13, 67, 0
15, 66060, Note_on_c, 13, 67, 84
15, 66111, Note_on_c, 13, 67, 0
15, 66120, Note_on_c, 13, 67, 84
15, 66171, Note_on_c, 13, 67, 0
15, 66180, Note_on_c, 13, 67, 84
15, 66231, Note_on_c, 13, 67, 0
15, 66240, Note_on_c, 13, 67, 84
15, 66359, Note_on_c, 13, 67, 0
15, 66720, Note_on_c, 13, 57, 52
15, 67199, Note_on_c, 13, 57, 0
15, 67200, Note_on_c, 13, 60, 52
15, 67679, Note_on_c, 13, 60, 0
15, 67680, Note_on_c, 13, 60, 52
15, 68159, Note_on_c, 13, 60, 0
15, 68160, Note_on_c, 13, 60, 52
15, 68624, Note_on_c, 13, 60, 0
15, 68640, Note_on_c, 13, 59, 52
15, 68984, Note_on_c, 13, 59, 0
15, 69000, Note_on_c, 13, 59, 52
15, 69104, Note_on_c, 13, 59, 0
15, 69120, Note_on_c, 13, 60, 52
15, 69239, Note_on_c, 13, 60, 0
15, 69360, Note_on_c, 13, 60, 52
15, 69479, Note_on_c, 13, 60, 0
15, 69600, Note_on_c, 13, 60, 52
15, 69719, Note_on_c, 13, 60, 0
15, 69840, Note_on_c, 13, 62, 52
15, 69959, Note_on_c, 13, 62, 0
15, 70080, Note_on_c, 13, 60, 52
15, 70199, Note_on_c, 13, 60, 0
15, 70560, Note_on_c, 13, 53, 52
15, 71039, Note_on_c, 13, 53, 0
15, 71040, Note_on_c, 13, 55, 52
15, 71519, Note_on_c, 13, 55, 0
15, 71520, Note_on_c, 13, 57, 52
15, 71999, Note_on_c, 13, 57, 0
15, 72000, Note_on_c, 13, 55, 52
15, 72464, Note_on_c, 13, 55, 0
15, 72480, Note_on_c, 13, 67, 52
15, 72480, Note_on_c, 13, 55, 52
15, 72824, Note_on_c, 13, 67, 0
15, 72824, Note_on_c, 13, 55, 0
15, 72840, Note_on_c, 13, 55, 52
15, 72840, Note_on_c, 13, 67, 52
15, 72944, Note_on_c, 13, 55, 0
15, 72944, Note_on_c, 13, 67, 0
15, 72960, Note_on_c, 13, 67, 52
15, 72960, Note_on_c, 13, 55, 52
15, 73079, Note_on_c, 13, 67, 0
15, 73079, Note_on_c, 13, 55, 0
15, 73200, Note_on_c, 13, 55, 52
15, 73200, Note_on_c, 13, 67, 52
15, 73319, Note_on_c, 13, 55, 0
15, 73319, Note_on_c, 13, 67, 0
15, 73440, Note_on_c, 13, 64, 52
15, 73440, Note_on_c, 13, 55, 52
15, 73559, Note_on_c, 13, 64, 0
15, 73559, Note_on_c, 13, 55, 0
15, 73680, Note_on_c, 13, 55, 52
15, 73680, Note_on_c, 13, 65, 52
15, 73799, Note_on_c, 13, 55, 0
15, 73799, Note_on_c, 13, 65, 0
15, 73920, Note_on_c, 13, 60, 52
15, 73920, Note_on_c, 13, 48, 52
15, 73971, Note_on_c, 13, 60, 0
15, 73971, Note_on_c, 13, 48, 0
15, 73980, Note_on_c, 13, 60, 52
15, 73980, Note_on_c, 13, 48, 52
15, 74031, Note_on_c, 13, 60, 0
15, 74031, Note_on_c, 13, 48, 0
15, 74040, Note_on_c, 13, 60, 52
15, 74040, Note_on_c, 13, 48, 52
15, 74091, Note_on_c, 13, 60, 0
15, 74091, Note_on_c, 13, 48, 0
15, 74100, Note_on_c, 13, 60, 52
15, 74100, Note_on_c, 13, 48, 52
15, 74151, Note_on_c, 13, 60, 0
15, 74151, Note_on_c, 13, 48, 0
15, 74160, Note_on_c, 13, 48, 52
15, 74160, Note_on_c, 13, 60, 52
15, 74211, Note_on_c, 13, 48, 0
15, 74211, Note_on_c, 13, 60, 0
15, 74220, Note_on_c, 13, 60, 52
15, 74220, Note_on_c, 13, 48, 52
15, 74271, Note_on_c, 13, 60, 0
15, 74271, Note_on_c, 13, 48, 0
15, 74280, Note_on_c, 13, 60, 52
15, 74280, Note_on_c, 13, 48, 52
15, 74331, Note_on_c, 13, 60, 0
15, 74331, Note_on_c, 13, 48, 0
15, 74340, Note_on_c, 13, 60, 52
15, 74340, Note_on_c, 13, 48, 52
15, 74391, Note_on_c, 13, 60, 0
15, 74391, Note_on_c, 13, 48, 0
15, 74400, Note_on_c, 13, 48, 52
15, 74400, Note_on_c, 13, 60, 52
15, 74451, Note_on_c, 13, 48, 0
15, 74451, Note_on_c, 13, 60, 0
15, 74460, Note_on_c, 13, 48, 52
15, 74460, Note_on_c, 13, 60, 52
15, 74511, Note_on_c, 13, 48, 0
15, 74511, Note_on_c, 13, 60, 0
15, 74520, Note_on_c, 13, 60, 52
15, 74520, Note_on_c, 13, 48, 52
15, 74571, Note_on_c, 13, 60, 0
15, 74571, Note_on_c, 13, 48, 0
15, 74580, Note_on_c, 13, 48, 52
15, 74580, Note_on_c, 13, 60, 52
15, 74631, Note_on_c, 13, 48, 0
15, 74631, Note_on_c, 13, 60, 0
15, 74640, Note_on_c, 13, 60, 52
15, 74640, Note_on_c, 13, 48, 52
15, 74691, Note_on_c, 13, 60, 0
15, 74691, Note_on_c, 13, 48, 0
15, 74700, Note_on_c, 13, 60, 52
15, 74700, Note_on_c, 13, 48, 52
15, 74751, Note_on_c, 13, 60, 0
15, 74751, Note_on_c, 13, 48, 0
15, 74760, Note_on_c, 13, 60, 52
15, 74760, Note_on_c, 13, 48, 52
15, 74811, Note_on_c, 13, 60, 0
15, 74811, Note_on_c, 13, 48, 0
15, 74820, Note_on_c, 13, 60, 52
15, 74820, Note_on_c, 13, 48, 52
15, 74871, Note_on_c, 13, 60, 0
15, 74871, Note_on_c, 13, 48, 0
15, 74880, Note_on_c, 13, 60, 52
15, 74880, Note_on_c, 13, 48, 52
15, 74931, Note_on_c, 13, 60, 0
15, 74931, Note_on_c, 13, 48, 0
15, 74940, Note_on_c, 13, 48, 52
15, 74940, Note_on_c, 13, 60, 52
15, 74991, Note_on_c, 13, 48, 0
15, 74991, Note_on_c, 13, 60, 0
15, 75000, Note_on_c, 13, 60, 52
15, 75000, Note_on_c, 13, 48, 52
15, 75051, Note_on_c, 13, 60, 0
15, 75051, Note_on_c, 13, 48, 0
15, 75060, Note_on_c, 13, 48, 52
15, 75060, Note_on_c, 13, 60, 52
15, 75111, Note_on_c, 13, 48, 0
15, 75111, Note_on_c, 13, 60, 0
15, 75120, Note_on_c, 13, 48, 52
15, 75120, Note_on_c, 13, 60, 52
15, 75171, Note_on_c, 13, 48, 0
15, 75171, Note_on_c, 13, 60, 0
15, 75180, Note_on_c, 13, 48, 52
15, 75180, Note_on_c, 13, 60, 52
15, 75231, Note_on_c, 13, 48, 0
15, 75231, Note_on_c, 13, 60, 0
15, 75240, Note_on_c, 13, 60, 76
15, 75240, Note_on_c, 13, 48, 76
15, 75291, Note_on_c, 13, 60, 0
15, 75291, Note_on_c, 13, 48, 0
15, 75300, Note_on_c, 13, 48, 76
15, 75300, Note_on_c, 13, 60, 76
15, 75351, Note_on_c, 13, 48, 0
15, 75351, Note_on_c, 13, 60, 0
15, 75360, Note_on_c, 13, 60, 76
15, 75360, Note_on_c, 13, 48, 76
15, 75411, Note_on_c, 13, 60, 0
15, 75411, Note_on_c, 13, 48, 0
15, 75420, Note_on_c, 13, 60, 76
15, 75420, Note_on_c, 13, 48, 76
15, 75471, Note_on_c, 13, 60, 0
15, 75471, Note_on_c, 13, 48, 0
15, 75480, Note_on_c, 13, 60, 76
15, 75480, Note_on_c, 13, 48, 76
15, 75531, Note_on_c, 13, 60, 0
15, 75531, Note_on_c, 13, 48, 0
15, 75540, Note_on_c, 13, 60, 76
15, 75540, Note_on_c, 13, 48, 76
15, 75591, Note_on_c, 13, 60, 0
15, 75591, Note_on_c, 13, 48, 0
15, 75600, Note_on_c, 13, 48, 76
15, 75600, Note_on_c, 13, 60, 76
15, 75651, Note_on_c, 13, 48, 0
15, 75651, Note_on_c, 13, 60, 0
15, 75660, Note_on_c, 13, 48, 76
15, 75660, Note_on_c, 13, 60, 76
15, 75711, Note_on_c, 13, 48, 0
15, 75711, Note_on_c, 13, 60, 0
15, 75720, Note_on_c, 13, 48, 76
15, 75720, Note_on_c, 13, 60, 76
15, 75771, Note_on_c, 13, 48, 0
15, 75771, Note_on_c, 13, 60, 0
15, 75780, Note_on_c, 13, 60, 76
15, 75780, Note_on_c, 13, 48, 76
15, 75831, Note_on_c, 13, 60, 0
15, 75831, Note_on_c, 13, 48, 0
15, 75840, Note_on_c, 13, 60, 76
15, 75840, Note_on_c, 13, 48, 76
15, 75891, Note_on_c, 13, 60, 0
15, 75891, Note_on_c, 13, 48, 0
15, 75900, Note_on_c, 13, 48, 76
15, 75900, Note_on_c, 13, 60, 76
15, 75951, Note_on_c, 13, 48, 0
15, 75951, Note_on_c, 13, 60, 0
15, 75960, Note_on_c, 13, 60, 76
15, 75960, Note_on_c, 13, 48, 76
15, 76011, Note_on_c, 13, 60, 0
15, 76011, Note_on_c, 13, 48, 0
15, 76020, Note_on_c, 13, 60, 76
15, 76020, Note_on_c, 13, 48, 76
15, 76071, Note_on_c, 13, 60, 0
15, 76071, Note_on_c, 13, 48, 0
15, 76080, Note_on_c, 13, 48, 52
15, 76080, Note_on_c, 13, 60, 52
15, 76131, Note_on_c, 13, 48, 0
15, 76131, Note_on_c, 13, 60, 0
15, 76140, Note_on_c, 13, 60, 52
15, 76140, Note_on_c, 13, 48, 52
15, 76191, Note_on_c, 13, 60, 0
15, 76191, Note_on_c, 13, 48, 0
15, 76200, Note_on_c, 13, 60, 52
15, 76200, Note_on_c, 13, 48, 52
15, 76251, Note_on_c, 13, 60, 0
15, 76251, Note_on_c, 13, 48, 0
15, 76260, Note_on_c, 13, 60, 52
15, 76260, Note_on_c, 13, 48, 52
15, 76311, Note_on_c, 13, 60, 0
15, 76311, Note_on_c, 13, 48, 0
15, 76320, Note_on_c, 13, 48, 52
15, 76320, Note_on_c, 13, 60, 52
15, 76371, Note_on_c, 13, 48, 0
15, 76371, Note_on_c, 13, 60, 0
15, 76380, Note_on_c, 13, 60, 52
15, 76380, Note_on_c, 13, 48, 52
15, 76431, Note_on_c, 13, 60, 0
15, 76431, Note_on_c, 13, 48, 0
15, 76440, Note_on_c, 13, 48, 52
15, 76440, Note_on_c, 13, 60, 52
15, 76491, Note_on_c, 13, 48, 0
15, 76491, Note_on_c, 13, 60, 0
15, 76500, Note_on_c, 13, 60, 52
15, 76500, Note_on_c, 13, 48, 52
15, 76551, Note_on_c, 13, 60, 0
15, 76551, Note_on_c, 13, 48, 0
15, 76560, Note_on_c, 13, 60, 52
15, 76560, Note_on_c, 13, 48, 52
15, 76611, Note_on_c, 13, 60, 0
15, 76611, Note_on_c, 13, 48, 0
15, 76620, Note_on_c, 13, 48, 52
15, 76620, Note_on_c, 13, 60, 52
15, 76671, Note_on_c, 13, 48, 0
15, 76671, Note_on_c, 13, 60, 0
15, 76680, Note_on_c, 13, 48, 52
15, 76680, Note_on_c, 13, 60, 52
15, 76731, Note_on_c, 13, 48, 0
15, 76731, Note_on_c, 13, 60, 0
15, 76740, Note_on_c, 13, 60, 52
15, 76740, Note_on_c, 13, 48, 52
15, 76791, Note_on_c, 13, 60, 0
15, 76791, Note_on_c, 13, 48, 0
15, 76800, Note_on_c, 13, 48, 52
15, 76800, Note_on_c, 13, 60, 52
15, 76851, Note_on_c, 13, 48, 0
15, 76851, Note_on_c, 13, 60, 0
15, 76860, Note_on_c, 13, 60, 52
15, 76860, Note_on_c, 13, 48, 52
15, 76911, Note_on_c, 13, 60, 0
15, 76911, Note_on_c, 13, 48, 0
15, 76920, Note_on_c, 13, 60, 52
15, 76920, Note_on_c, 13, 48, 52
15, 76971, Note_on_c, 13, 60, 0
15, 76971, Note_on_c, 13, 48, 0
15, 76980, Note_on_c, 13, 48, 52
15, 76980, Note_on_c, 13, 60, 52
15, 77031, Note_on_c, 13, 48, 0
15, 77031, Note_on_c, 13, 60, 0
15, 77040, Note_on_c, 13, 48, 52
15, 77040, Note_on_c, 13, 60, 52
15, 77091, Note_on_c, 13, 48, 0
15, 77091, Note_on_c, 13, 60, 0
15, 77100, Note_on_c, 13, 48, 52
15, 77100, Note_on_c, 13, 60, 52
15, 77151, Note_on_c, 13, 48, 0
15, 77151, Note_on_c, 13, 60, 0
15, 77160, Note_on_c, 13, 60, 76
15, 77160, Note_on_c, 13, 48, 76
15, 77211, Note_on_c, 13, 60, 0
15, 77211, Note_on_c, 13, 48, 0
15, 77220, Note_on_c, 13, 60, 76
15, 77220, Note_on_c, 13, 48, 76
15, 77271, Note_on_c, 13, 60, 0
15, 77271, Note_on_c, 13, 48, 0
15, 77280, Note_on_c, 13, 60, 76
15, 77280, Note_on_c, 13, 48, 76
15, 77331, Note_on_c, 13, 60, 0
15, 77331, Note_on_c, 13, 48, 0
15, 77340, Note_on_c, 13, 60, 76
15, 77340, Note_on_c, 13, 48, 76
15, 77391, Note_on_c, 13, 60, 0
15, 77391, Note_on_c, 13, 48, 0
15, 77400, Note_on_c, 13, 48, 76
15, 77400, Note_on_c, 13, 60, 76
15, 77451, Note_on_c, 13, 48, 0
15, 77451, Note_on_c, 13, 60, 0
15, 77460, Note_on_c, 13, 60, 76
15, 77460, Note_on_c, 13, 48, 76
15, 77511, Note_on_c, 13, 60, 0
15, 77511, Note_on_c, 13, 48, 0
15, 77520, Note_on_c, 13, 48, 76
15, 77520, Note_on_c, 13, 60, 76
15, 77571, Note_on_c, 13, 48, 0
15, 77571, Note_on_c, 13, 60, 0
15, 77580, Note_on_c, 13, 48, 76
15, 77580, Note_on_c, 13, 60, 76
15, 77631, Note_on_c, 13, 48, 0
15, 77631, Note_on_c, 13, 60, 0
15, 77640, Note_on_c, 13, 60, 76
15, 77640, Note_on_c, 13, 48, 76
15, 77691, Note_on_c, 13, 60, 0
15, 77691, Note_on_c, 13, 48, 0
15, 77700, Note_on_c, 13, 48, 76
15, 77700, Note_on_c, 13, 60, 76
15, 77751, Note_on_c, 13, 48, 0
15, 77751, Note_on_c, 13, 60, 0
15, 77760, Note_on_c, 13, 48, 76
15, 77760, Note_on_c, 13, 60, 76
15, 77811, Note_on_c, 13, 48, 0
15, 77811, Note_on_c, 13, 60, 0
15, 77820, Note_on_c, 13, 60, 76
15, 77820, Note_on_c, 13, 48, 76
15, 77871, Note_on_c, 13, 60, 0
15, 77871, Note_on_c, 13, 48, 0
15, 77880, Note_on_c, 13, 48, 76
15, 77880, Note_on_c, 13, 60, 76
15, 77931, Note_on_c, 13, 48, 0
15, 77931, Note_on_c, 13, 60, 0
15, 77940, Note_on_c, 13, 48, 76
15, 77940, Note_on_c, 13, 60, 76
15, 77991, Note_on_c, 13, 48, 0
15, 77991, Note_on_c, 13, 60, 0
15, 78000, Note_on_c, 13, 60, 76
15, 78000, Note_on_c, 13, 48, 76
15, 78051, Note_on_c, 13, 60, 0
15, 78051, Note_on_c, 13, 48, 0
15, 78060, Note_on_c, 13, 48, 76
15, 78060, Note_on_c, 13, 60, 76
15, 78111, Note_on_c, 13, 48, 0
15, 78111, Note_on_c, 13, 60, 0
15, 78120, Note_on_c, 13, 60, 76
15, 78120, Note_on_c, 13, 48, 76
15, 78171, Note_on_c, 13, 60, 0
15, 78171, Note_on_c, 13, 48, 0
15, 78180, Note_on_c, 13, 48, 76
15, 78180, Note_on_c, 13, 60, 76
15, 78231, Note_on_c, 13, 48, 0
15, 78231, Note_on_c, 13, 60, 0
15, 78240, Note_on_c, 13, 60, 76
15, 78240, Note_on_c, 13, 48, 76
15, 78291, Note_on_c, 13, 60, 0
15, 78291, Note_on_c, 13, 48, 0
15, 78300, Note_on_c, 13, 60, 76
15, 78300, Note_on_c, 13, 48, 76
15, 78351, Note_on_c, 13, 60, 0
15, 78351, Note_on_c, 13, 48, 0
15, 78360, Note_on_c, 13, 48, 76
15, 78360, Note_on_c, 13, 60, 76
15, 78411, Note_on_c, 13, 48, 0
15, 78411, Note_on_c, 13, 60, 0
15, 78420, Note_on_c, 13, 60, 76
15, 78420, Note_on_c, 13, 48, 76
15, 78471, Note_on_c, 13, 60, 0
15, 78471, Note_on_c, 13, 48, 0
15, 78480, Note_on_c, 13, 48, 76
15, 78480, Note_on_c, 13, 60, 76
15, 78531, Note_on_c, 13, 48, 0
15, 78531, Note_on_c, 13, 60, 0
15, 78540, Note_on_c, 13, 60, 76
15, 78540, Note_on_c, 13, 48, 76
15, 78591, Note_on_c, 13, 60, 0
15, 78591, Note_on_c, 13, 48, 0
15, 78600, Note_on_c, 13, 60, 76
15, 78600, Note_on_c, 13, 48, 76
15, 78651, Note_on_c, 13, 60, 0
15, 78651, Note_on_c, 13, 48, 0
15, 78660, Note_on_c, 13, 48, 76
15, 78660, Note_on_c, 13, 60, 76
15, 78711, Note_on_c, 13, 48, 0
15, 78711, Note_on_c, 13, 60, 0
15, 78720, Note_on_c, 13, 60, 76
15, 78720, Note_on_c, 13, 48, 76
15, 78771, Note_on_c, 13, 60, 0
15, 78771, Note_on_c, 13, 48, 0
15, 78780, Note_on_c, 13, 60, 76
15, 78780, Note_on_c, 13, 48, 76
15, 78831, Note_on_c, 13, 60, 0
15, 78831, Note_on_c, 13, 48, 0
15, 78840, Note_on_c, 13, 48, 76
15, 78840, Note_on_c, 13, 60, 76
15, 78891, Note_on_c, 13, 48, 0
15, 78891, Note_on_c, 13, 60, 0
15, 78900, Note_on_c, 13, 60, 76
15, 78900, Note_on_c, 13, 48, 76
15, 78951, Note_on_c, 13, 60, 0
15, 78951, Note_on_c, 13, 48, 0
15, 78960, Note_on_c, 13, 48, 76
15, 78960, Note_on_c, 13, 60, 76
15, 79011, Note_on_c, 13, 48, 0
15, 79011, Note_on_c, 13, 60, 0
15, 79020, Note_on_c, 13, 60, 76
15, 79020, Note_on_c, 13, 48, 76
15, 79071, Note_on_c, 13, 60, 0
15, 79071, Note_on_c, 13, 48, 0
15, 79080, Note_on_c, 13, 48, 76
15, 79080, Note_on_c, 13, 60, 76
15, 79131, Note_on_c, 13, 48, 0
15, 79131, Note_on_c, 13, 60, 0
15, 79140, Note_on_c, 13, 48, 76
15, 79140, Note_on_c, 13, 60, 76
15, 79191, Note_on_c, 13, 48, 0
15, 79191, Note_on_c, 13, 60, 0
15, 79200, Note_on_c, 13, 48, 76
15, 79200, Note_on_c, 13, 60, 76
15, 79251, Note_on_c, 13, 48, 0
15, 79251, Note_on_c, 13, 60, 0
15, 79260, Note_on_c, 13, 48, 76
15, 79260, Note_on_c, 13, 60, 76
15, 79311, Note_on_c, 13, 48, 0
15, 79311, Note_on_c, 13, 60, 0
15, 79320, Note_on_c, 13, 60, 76
15, 79320, Note_on_c, 13, 48, 76
15, 79371, Note_on_c, 13, 60, 0
15, 79371, Note_on_c, 13, 48, 0
15, 79380, Note_on_c, 13, 60, 76
15, 79380, Note_on_c, 13, 48, 76
15, 79431, Note_on_c, 13, 60, 0
15, 79431, Note_on_c, 13, 48, 0
15, 79440, Note_on_c, 13, 48, 76
15, 79440, Note_on_c, 13, 60, 76
15, 79491, Note_on_c, 13, 48, 0
15, 79491, Note_on_c, 13, 60, 0
15, 79500, Note_on_c, 13, 48, 76
15, 79500, Note_on_c, 13, 60, 76
15, 79551, Note_on_c, 13, 48, 0
15, 79551, Note_on_c, 13, 60, 0
15, 79560, Note_on_c, 13, 60, 76
15, 79560, Note_on_c, 13, 48, 76
15, 79611, Note_on_c, 13, 60, 0
15, 79611, Note_on_c, 13, 48, 0
15, 79620, Note_on_c, 13, 60, 76
15, 79620, Note_on_c, 13, 48, 76
15, 79671, Note_on_c, 13, 60, 0
15, 79671, Note_on_c, 13, 48, 0
15, 79680, Note_on_c, 13, 65, 84
15, 79731, Note_on_c, 13, 65, 0
15, 79740, Note_on_c, 13, 53, 84
15, 79740, Note_on_c, 13, 56, 84
15, 79791, Note_on_c, 13, 53, 0
15, 79791, Note_on_c, 13, 56, 0
15, 79800, Note_on_c, 13, 53, 84
15, 79800, Note_on_c, 13, 56, 84
15, 79851, Note_on_c, 13, 53, 0
15, 79851, Note_on_c, 13, 56, 0
15, 79860, Note_on_c, 13, 56, 84
15, 79860, Note_on_c, 13, 53, 84
15, 79911, Note_on_c, 13, 56, 0
15, 79911, Note_on_c, 13, 53, 0
15, 79920, Note_on_c, 13, 53, 84
15, 79920, Note_on_c, 13, 56, 84
15, 79971, Note_on_c, 13, 53, 0
15, 79971, Note_on_c, 13, 56, 0
15, 79980, Note_on_c, 13, 56, 84
15, 79980, Note_on_c, 13, 53, 84
15, 80031, Note_on_c, 13, 56, 0
15, 80031, Note_on_c, 13, 53, 0
15, 80040, Note_on_c, 13, 56, 84
15, 80040, Note_on_c, 13, 53, 84
15, 80091, Note_on_c, 13, 56, 0
15, 80091, Note_on_c, 13, 53, 0
15, 80100, Note_on_c, 13, 56, 84
15, 80100, Note_on_c, 13, 53, 84
15, 80151, Note_on_c, 13, 56, 0
15, 80151, Note_on_c, 13, 53, 0
15, 80160, Note_on_c, 13, 56, 84
15, 80160, Note_on_c, 13, 53, 84
15, 80211, Note_on_c, 13, 56, 0
15, 80211, Note_on_c, 13, 53, 0
15, 80220, Note_on_c, 13, 56, 84
15, 80220, Note_on_c, 13, 53, 84
15, 80271, Note_on_c, 13, 56, 0
15, 80271, Note_on_c, 13, 53, 0
15, 80280, Note_on_c, 13, 53, 84
15, 80280, Note_on_c, 13, 56, 84
15, 80331, Note_on_c, 13, 53, 0
15, 80331, Note_on_c, 13, 56, 0
15, 80340, Note_on_c, 13, 56, 84
15, 80340, Note_on_c, 13, 53, 84
15, 80391, Note_on_c, 13, 56, 0
15, 80391, Note_on_c, 13, 53, 0
15, 80400, Note_on_c, 13, 53, 84
15, 80400, Note_on_c, 13, 56, 84
15, 80451, Note_on_c, 13, 53, 0
15, 80451, Note_on_c, 13, 56, 0
15, 80460, Note_on_c, 13, 53, 84
15, 80460, Note_on_c, 13, 56, 84
15, 80511, Note_on_c, 13, 53, 0
15, 80511, Note_on_c, 13, 56, 0
15, 80520, Note_on_c, 13, 53, 84
15, 80520, Note_on_c, 13, 56, 84
15, 80571, Note_on_c, 13, 53, 0
15, 80571, Note_on_c, 13, 56, 0
15, 80580, Note_on_c, 13, 53, 84
15, 80580, Note_on_c, 13, 56, 84
15, 80631, Note_on_c, 13, 53, 0
15, 80631, Note_on_c, 13, 56, 0
15, 80640, Note_on_c, 13, 56, 92
15, 80640, Note_on_c, 13, 53, 92
15, 81089, Note_on_c, 13, 56, 0
15, 81089, Note_on_c, 13, 53, 0
15, 81120, Note_on_c, 13, 53, 92
15, 81120, Note_on_c, 13, 56, 92
15, 81569, Note_on_c, 13, 53, 0
15, 81569, Note_on_c, 13, 56, 0
15, 81600, Note_on_c, 13, 53, 92
15, 81600, Note_on_c, 13, 56, 92
15, 82049, Note_on_c, 13, 53, 0
15, 82049, Note_on_c, 13, 56, 0
15, 82080, Note_on_c, 13, 53, 92
15, 82080, Note_on_c, 13, 56, 92
15, 82529, Note_on_c, 13, 53, 0
15, 82529, Note_on_c, 13, 56, 0
15, 82560, Note_on_c, 13, 67, 52
15, 82611, Note_on_c, 13, 67, 0
15, 82620, Note_on_c, 13, 67, 52
15, 82671, Note_on_c, 13, 67, 0
15, 82680, Note_on_c, 13, 70, 52
15, 82731, Note_on_c, 13, 70, 0
15, 82740, Note_on_c, 13, 70, 52
15, 82791, Note_on_c, 13, 70, 0
15, 82800, Note_on_c, 13, 67, 52
15, 82851, Note_on_c, 13, 67, 0
15, 82860, Note_on_c, 13, 67, 52
15, 82911, Note_on_c, 13, 67, 0
15, 82920, Note_on_c, 13, 70, 52
15, 82971, Note_on_c, 13, 70, 0
15, 82980, Note_on_c, 13, 70, 52
15, 83031, Note_on_c, 13, 70, 0
15, 83040, Note_on_c, 13, 67, 52
15, 83091, Note_on_c, 13, 67, 0
15, 83100, Note_on_c, 13, 67, 52
15, 83151, Note_on_c, 13, 67, 0
15, 83160, Note_on_c, 13, 70, 52
15, 83211, Note_on_c, 13, 70, 0
15, 83220, Note_on_c, 13, 70, 52
15, 83271, Note_on_c, 13, 70, 0
15, 83280, Note_on_c, 13, 65, 52
15, 83331, Note_on_c, 13, 65, 0
15, 83340, Note_on_c, 13, 65, 52
15, 83391, Note_on_c, 13, 65, 0
15, 83400, Note_on_c, 13, 69, 52
15, 83451, Note_on_c, 13, 69, 0
15, 83460, Note_on_c, 13, 69, 52
15, 83511, Note_on_c, 13, 69, 0
15, 83520, Note_on_c, 13, 65, 52
15, 83571, Note_on_c, 13, 65, 0
15, 83580, Note_on_c, 13, 65, 52
15, 83631, Note_on_c, 13, 65, 0
15, 83640, Note_on_c, 13, 70, 52
15, 83691, Note_on_c, 13, 70, 0
15, 83700, Note_on_c, 13, 70, 52
15, 83751, Note_on_c, 13, 70, 0
15, 83760, Note_on_c, 13, 65, 52
15, 83811, Note_on_c, 13, 65, 0
15, 83820, Note_on_c, 13, 65, 52
15, 83871, Note_on_c, 13, 65, 0
15, 83880, Note_on_c, 13, 67, 52
15, 83931, Note_on_c, 13, 67, 0
15, 83940, Note_on_c, 13, 67, 52
15, 83991, Note_on_c, 13, 67, 0
15, 84000, Note_on_c, 13, 65, 52
15, 84051, Note_on_c, 13, 65, 0
15, 84060, Note_on_c, 13, 65, 52
15, 84111, Note_on_c, 13, 65, 0
15, 84120, Note_on_c, 13, 69, 52
15, 84171, Note_on_c, 13, 69, 0
15, 84180, Note_on_c, 13, 69, 52
15, 84231, Note_on_c, 13, 69, 0
15, 84240, Note_on_c, 13, 67, 52
15, 84291, Note_on_c, 13, 67, 0
15, 84300, Note_on_c, 13, 67, 52
15, 84351, Note_on_c, 13, 67, 0
15, 84360, Note_on_c, 13, 70, 52
15, 84411, Note_on_c, 13, 70, 0
15, 84420, Note_on_c, 13, 70, 52
15, 84471, Note_on_c, 13, 70, 0
15, 84480, Note_on_c, 13, 56, 84
15, 84480, Note_on_c, 13, 53, 84
15, 84944, Note_on_c, 13, 56, 0
15, 84944, Note_on_c, 13, 53, 0
15, 84960, Note_on_c, 13, 56, 92
15, 84960, Note_on_c, 13, 53, 92
15, 85409, Note_on_c, 13, 56, 0
15, 85409, Note_on_c, 13, 53, 0
15, 85440, Note_on_c, 13, 53, 92
15, 85440, Note_on_c, 13, 56, 92
15, 85889, Note_on_c, 13, 53, 0
15, 85889, Note_on_c, 13, 56, 0
15, 85920, Note_on_c, 13, 56, 92
15, 85920, Note_on_c, 13, 53, 92
15, 86369, Note_on_c, 13, 56, 0
15, 86369, Note_on_c, 13, 53, 0
15, 86400, Note_on_c, 13, 69, 52
15, 86451, Note_on_c, 13, 69, 0
15, 86460, Note_on_c, 13, 69, 52
15, 86511, Note_on_c, 13, 69, 0
15, 86520, Note_on_c, 13, 72, 52
15, 86571, Note_on_c, 13, 72, 0
15, 86580, Note_on_c, 13, 72, 52
15, 86631, Note_on_c, 13, 72, 0
15, 86640, Note_on_c, 13, 69, 52
15, 86691, Note_on_c, 13, 69, 0
15, 86700, Note_on_c, 13, 69, 52
15, 86751, Note_on_c, 13, 69, 0
15, 86760, Note_on_c, 13, 72, 52
15, 86811, Note_on_c, 13, 72, 0
15, 86820, Note_on_c, 13, 72, 52
15, 86871, Note_on_c, 13, 72, 0
15, 86880, Note_on_c, 13, 69, 52
15, 86931, Note_on_c, 13, 69, 0
15, 86940, Note_on_c, 13, 69, 52
15, 86991, Note_on_c, 13, 69, 0
15, 87000, Note_on_c, 13, 72, 52
15, 87051, Note_on_c, 13, 72, 0
15, 87060, Note_on_c, 13, 72, 52
15, 87111, Note_on_c, 13, 72, 0
15, 87120, Note_on_c, 13, 67, 52
15, 87171, Note_on_c, 13, 67, 0
15, 87180, Note_on_c, 13, 67, 52
15, 87231, Note_on_c, 13, 67, 0
15, 87240, Note_on_c, 13, 70, 52
15, 87291, Note_on_c, 13, 70, 0
15, 87300, Note_on_c, 13, 70, 52
15, 87351, Note_on_c, 13, 70, 0
15, 87360, Note_on_c, 13, 64, 52
15, 87411, Note_on_c, 13, 64, 0
15, 87420, Note_on_c, 13, 64, 52
15, 87471, Note_on_c, 13, 64, 0
15, 87480, Note_on_c, 13, 67, 52
15, 87531, Note_on_c, 13, 67, 0
15, 87540, Note_on_c, 13, 67, 52
15, 87591, Note_on_c, 13, 67, 0
15, 87600, Note_on_c, 13, 64, 52
15, 87651, Note_on_c, 13, 64, 0
15, 87660, Note_on_c, 13, 64, 52
15, 87711, Note_on_c, 13, 64, 0
15, 87720, Note_on_c, 13, 67, 52
15, 87771, Note_on_c, 13, 67, 0
15, 87780, Note_on_c, 13, 67, 52
15, 87831, Note_on_c, 13, 67, 0
15, 87840, Note_on_c, 13, 64, 52
15, 87891, Note_on_c, 13, 64, 0
15, 87900, Note_on_c, 13, 64, 52
15, 87951, Note_on_c, 13, 64, 0
15, 87960, Note_on_c, 13, 67, 52
15, 88011, Note_on_c, 13, 67, 0
15, 88020, Note_on_c, 13, 67, 52
15, 88071, Note_on_c, 13, 67, 0
15, 88080, Note_on_c, 13, 64, 52
15, 88131, Note_on_c, 13, 64, 0
15, 88140, Note_on_c, 13, 64, 52
15, 88191, Note_on_c, 13, 64, 0
15, 88200, Note_on_c, 13, 67, 52
15, 88251, Note_on_c, 13, 67, 0
15, 88260, Note_on_c, 13, 67, 52
15, 88311, Note_on_c, 13, 67, 0
15, 88320, Note_on_c, 13, 65, 52
15, 88371, Note_on_c, 13, 65, 0
15, 88380, Note_on_c, 13, 65, 53
15, 88431, Note_on_c, 13, 65, 0
15, 88440, Note_on_c, 13, 69, 54
15, 88491, Note_on_c, 13, 69, 0
15, 88500, Note_on_c, 13, 69, 55
15, 88551, Note_on_c, 13, 69, 0
15, 88560, Note_on_c, 13, 65, 56
15, 88611, Note_on_c, 13, 65, 0
15, 88620, Note_on_c, 13, 65, 57
15, 88671, Note_on_c, 13, 65, 0
15, 88680, Note_on_c, 13, 69, 58
15, 88731, Note_on_c, 13, 69, 0
15, 88740, Note_on_c, 13, 69, 59
15, 88791, Note_on_c, 13, 69, 0
15, 88800, Note_on_c, 13, 65, 60
15, 88851, Note_on_c, 13, 65, 0
15, 88860, Note_on_c, 13, 65, 61
15, 88911, Note_on_c, 13, 65, 0
15, 88920, Note_on_c, 13, 67, 62
15, 88971, Note_on_c, 13, 67, 0
15, 88980, Note_on_c, 13, 67, 63
15, 89031, Note_on_c, 13, 67, 0
15, 89040, Note_on_c, 13, 64, 64
15, 89091, Note_on_c, 13, 64, 0
15, 89100, Note_on_c, 13, 64, 65
15, 89151, Note_on_c, 13, 64, 0
15, 89160, Note_on_c, 13, 67, 66
15, 89211, Note_on_c, 13, 67, 0
15, 89220, Note_on_c, 13, 67, 67
15, 89271, Note_on_c, 13, 67, 0
15, 89280, Note_on_c, 13, 65, 68
15, 89331, Note_on_c, 13, 65, 0
15, 89340, Note_on_c, 13, 65, 69
15, 89391, Note_on_c, 13, 65, 0
15, 89400, Note_on_c, 13, 69, 70
15, 89451, Note_on_c, 13, 69, 0
15, 89460, Note_on_c, 13, 69, 71
15, 89511, Note_on_c, 13, 69, 0
15, 89520, Note_on_c, 13, 65, 72
15, 89571, Note_on_c, 13, 65, 0
15, 89580, Note_on_c, 13, 65, 73
15, 89631, Note_on_c, 13, 65, 0
15, 89640, Note_on_c, 13, 69, 74
15, 89691, Note_on_c, 13, 69, 0
15, 89700, Note_on_c, 13, 69, 75
15, 89751, Note_on_c, 13, 69, 0
15, 89760, Note_on_c, 13, 65, 76
15, 89811, Note_on_c, 13, 65, 0
15, 89820, Note_on_c, 13, 65, 77
15, 89871, Note_on_c, 13, 65, 0
15, 89880, Note_on_c, 13, 67, 78
15, 89931, Note_on_c, 13, 67, 0
15, 89940, Note_on_c, 13, 67, 79
15, 89991, Note_on_c, 13, 67, 0
15, 90000, Note_on_c, 13, 64, 80
15, 90051, Note_on_c, 13, 64, 0
15, 90060, Note_on_c, 13, 64, 81
15, 90111, Note_on_c, 13, 64, 0
15, 90120, Note_on_c, 13, 67, 82
15, 90171, Note_on_c, 13, 67, 0
15, 90180, Note_on_c, 13, 67, 83
15, 90231, Note_on_c, 13, 67, 0
15, 90240, Note_on_c, 13, 65, 84
15, 90291, Note_on_c, 13, 65, 0
15, 90300, Note_on_c, 13, 65, 84
15, 90351, Note_on_c, 13, 65, 0
15, 90360, Note_on_c, 13, 65, 84
15, 90411, Note_on_c, 13, 65, 0
15, 90420, Note_on_c, 13, 65, 84
15, 90471, Note_on_c, 13, 65, 0
15, 90480, Note_on_c, 13, 65, 84
15, 90531, Note_on_c, 13, 65, 0
15, 90540, Note_on_c, 13, 65, 84
15, 90591, Note_on_c, 13, 65, 0
15, 90600, Note_on_c, 13, 65, 84
15, 90651, Note_on_c, 13, 65, 0
15, 90660, Note_on_c, 13, 65, 84
15, 90711, Note_on_c, 13, 65, 0
15, 90720, Note_on_c, 13, 65, 84
15, 90771, Note_on_c, 13, 65, 0
15, 90780, Note_on_c, 13, 65, 84
15, 90831, Note_on_c, 13, 65, 0
15, 90840, Note_on_c, 13, 65, 84
15, 90891, Note_on_c, 13, 65, 0
15, 90900, Note_on_c, 13, 65, 84
15, 90951, Note_on_c, 13, 65, 0
15, 90960, Note_on_c, 13, 64, 84
15, 91011, Note_on_c, 13, 64, 0
15, 91020, Note_on_c, 13, 64, 84
15, 91071, Note_on_c, 13, 64, 0
15, 91080, Note_on_c, 13, 64, 84
15, 91131, Note_on_c, 13, 64, 0
15, 91140, Note_on_c, 13, 64, 84
15, 91191, Note_on_c, 13, 64, 0
15, 91200, Note_on_c, 13, 53, 84
15, 91251, Note_on_c, 13, 53, 0
15, 91260, Note_on_c, 13, 52, 84
15, 91311, Note_on_c, 13, 52, 0
15, 91320, Note_on_c, 13, 53, 84
15, 91371, Note_on_c, 13, 53, 0
15, 91380, Note_on_c, 13, 57, 84
15, 91431, Note_on_c, 13, 57, 0
15, 91440, Note_on_c, 13, 50, 84
15, 91491, Note_on_c, 13, 50, 0
15, 91500, Note_on_c, 13, 52, 84
15, 91551, Note_on_c, 13, 52, 0
15, 91560, Note_on_c, 13, 53, 84
15, 91611, Note_on_c, 13, 53, 0
15, 91620, Note_on_c, 13, 55, 84
15, 91671, Note_on_c, 13, 55, 0
15, 91680, Note_on_c, 13, 48, 84
15, 91731, Note_on_c, 13, 48, 0
15, 91740, Note_on_c, 13, 50, 84
15, 91791, Note_on_c, 13, 50, 0
15, 91800, Note_on_c, 13, 52, 84
15, 91851, Note_on_c, 13, 52, 0
15, 91860, Note_on_c, 13, 53, 84
15, 91911, Note_on_c, 13, 53, 0
15, 91920, Note_on_c, 13, 48, 84
15, 91971, Note_on_c, 13, 48, 0
15, 91980, Note_on_c, 13, 48, 84
15, 92031, Note_on_c, 13, 48, 0
15, 92040, Note_on_c, 13, 50, 84
15, 92091, Note_on_c, 13, 50, 0
15, 92100, Note_on_c, 13, 52, 84
15, 92151, Note_on_c, 13, 52, 0
15, 92160, Note_on_c, 13, 60, 84
15, 92504, Note_on_c, 13, 60, 0
15, 92520, Note_on_c, 13, 58, 84
15, 92624, Note_on_c, 13, 58, 0
15, 92640, Note_on_c, 13, 57, 84
15, 92744, Note_on_c, 13, 57, 0
15, 92760, Note_on_c, 13, 57, 84
15, 92864, Note_on_c, 13, 57, 0
15, 92880, Note_on_c, 13, 55, 84
15, 92909, Note_on_c, 13, 55, 0
15, 92910, Note_on_c, 13, 57, 84
15, 92939, Note_on_c, 13, 57, 0
15, 92940, Note_on_c, 13, 55, 84
15, 92969, Note_on_c, 13, 55, 0
15, 92970, Note_on_c, 13, 57, 84
15, 92999, Note_on_c, 13, 57, 0
15, 93000, Note_on_c, 13, 55, 84
15, 93029, Note_on_c, 13, 55, 0
15, 93030, Note_on_c, 13, 57, 84
15, 93059, Note_on_c, 13, 57, 0
15, 93060, Note_on_c, 13, 53, 84
15, 93089, Note_on_c, 13, 53, 0
15, 93090, Note_on_c, 13, 55, 84
15, 93119, Note_on_c, 13, 55, 0
15, 93120, Note_on_c, 13, 53, 84
15, 93171, Note_on_c, 13, 53, 0
15, 93180, Note_on_c, 13, 52, 84
15, 93231, Note_on_c, 13, 52, 0
15, 93240, Note_on_c, 13, 53, 84
15, 93291, Note_on_c, 13, 53, 0
15, 93300, Note_on_c, 13, 57, 84
15, 93351, Note_on_c, 13, 57, 0
15, 93360, Note_on_c, 13, 50, 84
15, 93411, Note_on_c, 13, 50, 0
15, 93420, Note_on_c, 13, 52, 84
15, 93471, Note_on_c, 13, 52, 0
15, 93480, Note_on_c, 13, 53, 84
15, 93531, Note_on_c, 13, 53, 0
15, 93540, Note_on_c, 13, 55, 84
15, 93591, Note_on_c, 13, 55, 0
15, 93600, Note_on_c, 13, 48, 84
15, 93651, Note_on_c, 13, 48, 0
15, 93660, Note_on_c, 13, 50, 84
15, 93711, Note_on_c, 13, 50, 0
15, 93720, Note_on_c, 13, 52, 84
15, 93771, Note_on_c, 13, 52, 0
15, 93780, Note_on_c, 13, 53, 84
15, 93831, Note_on_c, 13, 53, 0
15, 93840, Note_on_c, 13, 48, 84
15, 93891, Note_on_c, 13, 48, 0
15, 93900, Note_on_c, 13, 48, 84
15, 93951, Note_on_c, 13, 48, 0
15, 93960, Note_on_c, 13, 50, 84
15, 94011, Note_on_c, 13, 50, 0
15, 94020, Note_on_c, 13, 52, 84
15, 94071, Note_on_c, 13, 52, 0
15, 94080, Note_on_c, 13, 53, 84
15, 94184, Note_on_c, 13, 53, 0
15, 94200, Note_on_c, 13, 60, 84
15, 94424, Note_on_c, 13, 60, 0
15, 94440, Note_on_c, 13, 58, 84
15, 94544, Note_on_c, 13, 58, 0
15, 94560, Note_on_c, 13, 57, 84
15, 94664, Note_on_c, 13, 57, 0
15, 94680, Note_on_c, 13, 57, 84
15, 94784, Note_on_c, 13, 57, 0
15, 94800, Note_on_c, 13, 55, 84
15, 94829, Note_on_c, 13, 55, 0
15, 94830, Note_on_c, 13, 57, 84
15, 94859, Note_on_c, 13, 57, 0
15, 94860, Note_on_c, 13, 55, 84
15, 94889, Note_on_c, 13, 55, 0
15, 94890, Note_on_c, 13, 57, 84
15, 94919, Note_on_c, 13, 57, 0
15, 94920, Note_on_c, 13, 55, 84
15, 94949, Note_on_c, 13, 55, 0
15, 94950, Note_on_c, 13, 57, 84
15, 94979, Note_on_c, 13, 57, 0
15, 94980, Note_on_c, 13, 53, 84
15, 95009, Note_on_c, 13, 53, 0
15, 95010, Note_on_c, 13, 55, 84
15, 95039, Note_on_c, 13, 55, 0
15, 95040, Note_on_c, 13, 53, 84
15, 95091, Note_on_c, 13, 53, 0
15, 95100, Note_on_c, 13, 52, 84
15, 95151, Note_on_c, 13, 52, 0
15, 95160, Note_on_c, 13, 53, 84
15, 95211, Note_on_c, 13, 53, 0
15, 95220, Note_on_c, 13, 57, 84
15, 95271, Note_on_c, 13, 57, 0
15, 95280, Note_on_c, 13, 48, 84
15, 95331, Note_on_c, 13, 48, 0
15, 95340, Note_on_c, 13, 50, 84
15, 95391, Note_on_c, 13, 50, 0
15, 95400, Note_on_c, 13, 51, 84
15, 95451, Note_on_c, 13, 51, 0
15, 95460, Note_on_c, 13, 52, 84
15, 95511, Note_on_c, 13, 52, 0
15, 95520, Note_on_c, 13, 53, 84
15, 95571, Note_on_c, 13, 53, 0
15, 95580, Note_on_c, 13, 52, 84
15, 95631, Note_on_c, 13, 52, 0
15, 95640, Note_on_c, 13, 53, 84
15, 95691, Note_on_c, 13, 53, 0
15, 95700, Note_on_c, 13, 57, 84
15, 95751, Note_on_c, 13, 57, 0
15, 95760, Note_on_c, 13, 48, 84
15, 95811, Note_on_c, 13, 48, 0
15, 95820, Note_on_c, 13, 50, 84
15, 95871, Note_on_c, 13, 50, 0
15, 95880, Note_on_c, 13, 51, 84
15, 95931, Note_on_c, 13, 51, 0
15, 95940, Note_on_c, 13, 52, 84
15, 95991, Note_on_c, 13, 52, 0
15, 96000, Note_on_c, 13, 53, 84
15, 96051, Note_on_c, 13, 53, 0
15, 96060, Note_on_c, 13, 52, 84
15, 96111, Note_on_c, 13, 52, 0
15, 96120, Note_on_c, 13, 53, 84
15, 96171, Note_on_c, 13, 53, 0
15, 96180, Note_on_c, 13, 57, 84
15, 96231, Note_on_c, 13, 57, 0
15, 96240, Note_on_c, 13, 48, 84
15, 96291, Note_on_c, 13, 48, 0
15, 96300, Note_on_c, 13, 50, 84
15, 96351, Note_on_c, 13, 50, 0
15, 96360, Note_on_c, 13, 51, 84
15, 96411, Note_on_c, 13, 51, 0
15, 96420, Note_on_c, 13, 52, 84
15, 96471, Note_on_c, 13, 52, 0
15, 96480, Note_on_c, 13, 53, 84
15, 96531, Note_on_c, 13, 53, 0
15, 96540, Note_on_c, 13, 52, 84
15, 96591, Note_on_c, 13, 52, 0
15, 96600, Note_on_c, 13, 53, 84
15, 96651, Note_on_c, 13, 53, 0
15, 96660, Note_on_c, 13, 57, 84
15, 96711, Note_on_c, 13, 57, 0
15, 96720, Note_on_c, 13, 48, 84
15, 96771, Note_on_c, 13, 48, 0
15, 96780, Note_on_c, 13, 50, 84
15, 96831, Note_on_c, 13, 50, 0
15, 96840, Note_on_c, 13, 51, 84
15, 96891, Note_on_c, 13, 51, 0
15, 96900, Note_on_c, 13, 52, 84
15, 96951, Note_on_c, 13, 52, 0
15, 96960, Note_on_c, 13, 53, 52
15, 97079, Note_on_c, 13, 53, 0
15, 97200, Note_on_c, 13, 48, 52
15, 97251, Note_on_c, 13, 48, 0
15, 97260, Note_on_c, 13, 50, 52
15, 97311, Note_on_c, 13, 50, 0
15, 97320, Note_on_c, 13, 51, 52
15, 97371, Note_on_c, 13, 51, 0
15, 97380, Note_on_c, 13, 52, 52
15, 97431, Note_on_c, 13, 52, 0
15, 97440, Note_on_c, 13, 53, 52
15, 97559, Note_on_c, 13, 53, 0
15, 97680, Note_on_c, 13, 50, 52
15, 97731, Note_on_c, 13, 50, 0
15, 97740, Note_on_c, 13, 51, 52
15, 97791, Note_on_c, 13, 51, 0
15, 97800, Note_on_c, 13, 53, 52
15, 97851, Note_on_c, 13, 53, 0
15, 97860, Note_on_c, 13, 54, 52
15, 97911, Note_on_c, 13, 54, 0
15, 97920, Note_on_c, 13, 55, 52
15, 98039, Note_on_c, 13, 55, 0
15, 98160, Note_on_c, 13, 50, 52
15, 98211, Note_on_c, 13, 50, 0
15, 98220, Note_on_c, 13, 51, 52
15, 98271, Note_on_c, 13, 51, 0
15, 98280, Note_on_c, 13, 53, 52
15, 98331, Note_on_c, 13, 53, 0
15, 98340, Note_on_c, 13, 54, 52
15, 98391, Note_on_c, 13, 54, 0
15, 98400, Note_on_c, 13, 55, 52
15, 98519, Note_on_c, 13, 55, 0
15, 98640, Note_on_c, 13, 51, 52
15, 98691, Note_on_c, 13, 51, 0
15, 98700, Note_on_c, 13, 53, 52
15, 98751, Note_on_c, 13, 53, 0
15, 98760, Note_on_c, 13, 54, 52
15, 98811, Note_on_c, 13, 54, 0
15, 98820, Note_on_c, 13, 55, 52
15, 98871, Note_on_c, 13, 55, 0
15, 98880, Note_on_c, 13, 56, 52
15, 98984, Note_on_c, 13, 56, 0
15, 99000, Note_on_c, 13, 60, 52
15, 99119, Note_on_c, 13, 60, 0
15, 99240, Note_on_c, 13, 60, 52
15, 99344, Note_on_c, 13, 60, 0
15, 99360, Note_on_c, 13, 60, 52
15, 99464, Note_on_c, 13, 60, 0
15, 99480, Note_on_c, 13, 60, 52
15, 99599, Note_on_c, 13, 60, 0
15, 99720, Note_on_c, 13, 60, 52
15, 99824, Note_on_c, 13, 60, 0
15, 99840, Note_on_c, 13, 60, 52
15, 99944, Note_on_c, 13, 60, 0
15, 99960, Note_on_c, 13, 60, 52
15, 100079, Note_on_c, 13, 60, 0
15, 100200, Note_on_c, 13, 60, 52
15, 100304, Note_on_c, 13, 60, 0
15, 100320, Note_on_c, 13, 60, 52
15, 100424, Note_on_c, 13, 60, 0
15, 100440, Note_on_c, 13, 60, 52
15, 100544, Note_on_c, 13, 60, 0
15, 100560, Note_on_c, 13, 63, 52
15, 100664, Note_on_c, 13, 63, 0
15, 100680, Note_on_c, 13, 63, 52
15, 100784, Note_on_c, 13, 63, 0
15, 100800, Note_on_c, 13, 61, 52
15, 100904, Note_on_c, 13, 61, 0
15, 100920, Note_on_c, 13, 61, 52
15, 101039, Note_on_c, 13, 61, 0
15, 101160, Note_on_c, 13, 61, 54
15, 101264, Note_on_c, 13, 61, 0
15, 101280, Note_on_c, 13, 61, 55
15, 101384, Note_on_c, 13, 61, 0
15, 101400, Note_on_c, 13, 61, 56
15, 101519, Note_on_c, 13, 61, 0
15, 101640, Note_on_c, 13, 61, 58
15, 101744, Note_on_c, 13, 61, 0
15, 101760, Note_on_c, 13, 61, 59
15, 101864, Note_on_c, 13, 61, 0
15, 101880, Note_on_c, 13, 61, 60
15, 101999, Note_on_c, 13, 61, 0
15, 102120, Note_on_c, 13, 61, 62
15, 102224, Note_on_c, 13, 61, 0
15, 102240, Note_on_c, 13, 61, 63
15, 102344, Note_on_c, 13, 61, 0
15, 102360, Note_on_c, 13, 61, 64
15, 102464, Note_on_c, 13, 61, 0
15, 102480, Note_on_c, 13, 65, 65
15, 102584, Note_on_c, 13, 65, 0
15, 102600, Note_on_c, 13, 65, 66
15, 102704, Note_on_c, 13, 65, 0
15, 102720, Note_on_c, 13, 63, 67
15, 102824, Note_on_c, 13, 63, 0
15, 102840, Note_on_c, 13, 63, 68
15, 102959, Note_on_c, 13, 63, 0
15, 103080, Note_on_c, 13, 63, 70
15, 103184, Note_on_c, 13, 63, 0
15, 103200, Note_on_c, 13, 63, 71
15, 103304, Note_on_c, 13, 63, 0
15, 103320, Note_on_c, 13, 63, 72
15, 103424, Note_on_c, 13, 63, 0
15, 103440, Note_on_c, 13, 67, 73
15, 103544, Note_on_c, 13, 67, 0
15, 103560, Note_on_c, 13, 67, 74
15, 103664, Note_on_c, 13, 67, 0
15, 103680, Note_on_c, 13, 65, 76
15, 103731, Note_on_c, 13, 65, 0
15, 103740, Note_on_c, 13, 65, 76
15, 103791, Note_on_c, 13, 65, 0
15, 103800, Note_on_c, 13, 65, 76
15, 103851, Note_on_c, 13, 65, 0
15, 103860, Note_on_c, 13, 65, 76
15, 103911, Note_on_c, 13, 65, 0
15, 103920, Note_on_c, 13, 65, 76
15, 103971, Note_on_c, 13, 65, 0
15, 103980, Note_on_c, 13, 65, 76
15, 104031, Note_on_c, 13, 65, 0
15, 104040, Note_on_c, 13, 65, 76
15, 104091, Note_on_c, 13, 65, 0
15, 104100, Note_on_c, 13, 65, 76
15, 104151, Note_on_c, 13, 65, 0
15, 104160, Note_on_c, 13, 65, 76
15, 104211, Note_on_c, 13, 65, 0
15, 104220, Note_on_c, 13, 65, 76
15, 104271, Note_on_c, 13, 65, 0
15, 104280, Note_on_c, 13, 65, 76
15, 104331, Note_on_c, 13, 65, 0
15, 104340, Note_on_c, 13, 65, 76
15, 104391, Note_on_c, 13, 65, 0
15, 104400, Note_on_c, 13, 65, 76
15, 104451, Note_on_c, 13, 65, 0
15, 104460, Note_on_c, 13, 65, 76
15, 104511, Note_on_c, 13, 65, 0
15, 104520, Note_on_c, 13, 65, 76
15, 104571, Note_on_c, 13, 65, 0
15, 104580, Note_on_c, 13, 65, 76
15, 104631, Note_on_c, 13, 65, 0
15, 104640, Note_on_c, 13, 66, 80
15, 104640, Note_on_c, 13, 59, 80
15, 104691, Note_on_c, 13, 66, 0
15, 104691, Note_on_c, 13, 59, 0
15, 104700, Note_on_c, 13, 59, 80
15, 104700, Note_on_c, 13, 66, 80
15, 104751, Note_on_c, 13, 59, 0
15, 104751, Note_on_c, 13, 66, 0
15, 104760, Note_on_c, 13, 66, 80
15, 104760, Note_on_c, 13, 59, 80
15, 104811, Note_on_c, 13, 66, 0
15, 104811, Note_on_c, 13, 59, 0
15, 104820, Note_on_c, 13, 66, 80
15, 104820, Note_on_c, 13, 59, 80
15, 104871, Note_on_c, 13, 66, 0
15, 104871, Note_on_c, 13, 59, 0
15, 104880, Note_on_c, 13, 66, 80
15, 104880, Note_on_c, 13, 59, 80
15, 104931, Note_on_c, 13, 66, 0
15, 104931, Note_on_c, 13, 59, 0
15, 104940, Note_on_c, 13, 59, 80
15, 104940, Note_on_c, 13, 66, 80
15, 104991, Note_on_c, 13, 59, 0
15, 104991, Note_on_c, 13, 66, 0
15, 105000, Note_on_c, 13, 66, 80
15, 105000, Note_on_c, 13, 59, 80
15, 105051, Note_on_c, 13, 66, 0
15, 105051, Note_on_c, 13, 59, 0
15, 105060, Note_on_c, 13, 59, 80
15, 105060, Note_on_c, 13, 66, 80
15, 105111, Note_on_c, 13, 59, 0
15, 105111, Note_on_c, 13, 66, 0
15, 105120, Note_on_c, 13, 59, 80
15, 105120, Note_on_c, 13, 66, 80
15, 105171, Note_on_c, 13, 59, 0
15, 105171, Note_on_c, 13, 66, 0
15, 105180, Note_on_c, 13, 59, 80
15, 105180, Note_on_c, 13, 66, 80
15, 105231, Note_on_c, 13, 59, 0
15, 105231, Note_on_c, 13, 66, 0
15, 105240, Note_on_c, 13, 66, 80
15, 105240, Note_on_c, 13, 59, 80
15, 105291, Note_on_c, 13, 66, 0
15, 105291, Note_on_c, 13, 59, 0
15, 105300, Note_on_c, 13, 66, 80
15, 105300, Note_on_c, 13, 59, 80
15, 105351, Note_on_c, 13, 66, 0
15, 105351, Note_on_c, 13, 59, 0
15, 105360, Note_on_c, 13, 59, 80
15, 105360, Note_on_c, 13, 66, 80
15, 105411, Note_on_c, 13, 59, 0
15, 105411, Note_on_c, 13, 66, 0
15, 105420, Note_on_c, 13, 59, 80
15, 105420, Note_on_c, 13, 66, 80
15, 105471, Note_on_c, 13, 59, 0
15, 105471, Note_on_c, 13, 66, 0
15, 105480, Note_on_c, 13, 66, 80
15, 105480, Note_on_c, 13, 59, 80
15, 105531, Note_on_c, 13, 66, 0
15, 105531, Note_on_c, 13, 59, 0
15, 105540, Note_on_c, 13, 66, 80
15, 105540, Note_on_c, 13, 59, 80
15, 105591, Note_on_c, 13, 66, 0
15, 105591, Note_on_c, 13, 59, 0
15, 105600, Note_on_c, 13, 59, 84
15, 105651, Note_on_c, 13, 59, 0
15, 105660, Note_on_c, 13, 59, 84
15, 105711, Note_on_c, 13, 59, 0
15, 105720, Note_on_c, 13, 59, 84
15, 105771, Note_on_c, 13, 59, 0
15, 105780, Note_on_c, 13, 59, 84
15, 105831, Note_on_c, 13, 59, 0
15, 105840, Note_on_c, 13, 59, 84
15, 105891, Note_on_c, 13, 59, 0
15, 105900, Note_on_c, 13, 59, 84
15, 105951, Note_on_c, 13, 59, 0
15, 105960, Note_on_c, 13, 59, 84
15, 106011, Note_on_c, 13, 59, 0
15, 106020, Note_on_c, 13, 59, 84
15, 106071, Note_on_c, 13, 59, 0
15, 106080, Note_on_c, 13, 59, 84
15, 106131, Note_on_c, 13, 59, 0
15, 106140, Note_on_c, 13, 59, 84
15, 106191, Note_on_c, 13, 59, 0
15, 106200, Note_on_c, 13, 59, 84
15, 106251, Note_on_c, 13, 59, 0
15, 106260, Note_on_c, 13, 59, 84
15, 106311, Note_on_c, 13, 59, 0
15, 106320, Note_on_c, 13, 59, 84
15, 106371, Note_on_c, 13, 59, 0
15, 106380, Note_on_c, 13, 59, 84
15, 106431, Note_on_c, 13, 59, 0
15, 106440, Note_on_c, 13, 59, 84
15, 106491, Note_on_c, 13, 59, 0
15, 106500, Note_on_c, 13, 59, 84
15, 106559, Note_on_c, 13, 59, 0
15, 107520, Note_on_c, 13, 54, 52
15, 107579, Note_on_c, 13, 54, 0
15, 107580, Note_on_c, 13, 57, 52
15, 107639, Note_on_c, 13, 57, 0
15, 107640, Note_on_c, 13, 54, 52
15, 107699, Note_on_c, 13, 54, 0
15, 107700, Note_on_c, 13, 57, 52
15, 107759, Note_on_c, 13, 57, 0
15, 107760, Note_on_c, 13, 54, 52
15, 107819, Note_on_c, 13, 54, 0
15, 107820, Note_on_c, 13, 57, 52
15, 107879, Note_on_c, 13, 57, 0
15, 107880, Note_on_c, 13, 54, 52
15, 107939, Note_on_c, 13, 54, 0
15, 107940, Note_on_c, 13, 57, 52
15, 107991, Note_on_c, 13, 57, 0
15, 108000, Note_on_c, 13, 55, 52
15, 108059, Note_on_c, 13, 55, 0
15, 108060, Note_on_c, 13, 59, 52
15, 108119, Note_on_c, 13, 59, 0
15, 108120, Note_on_c, 13, 55, 52
15, 108179, Note_on_c, 13, 55, 0
15, 108180, Note_on_c, 13, 59, 52
15, 108239, Note_on_c, 13, 59, 0
15, 108240, Note_on_c, 13, 55, 52
15, 108299, Note_on_c, 13, 55, 0
15, 108300, Note_on_c, 13, 59, 52
15, 108359, Note_on_c, 13, 59, 0
15, 108360, Note_on_c, 13, 55, 52
15, 108419, Note_on_c, 13, 55, 0
15, 108420, Note_on_c, 13, 59, 52
15, 108471, Note_on_c, 13, 59, 0
15, 108480, Note_on_c, 13, 57, 52
15, 108539, Note_on_c, 13, 57, 0
15, 108540, Note_on_c, 13, 60, 52
15, 108599, Note_on_c, 13, 60, 0
15, 108600, Note_on_c, 13, 54, 52
15, 108659, Note_on_c, 13, 54, 0
15, 108660, Note_on_c, 13, 57, 52
15, 108719, Note_on_c, 13, 57, 0
15, 108720, Note_on_c, 13, 54, 52
15, 108779, Note_on_c, 13, 54, 0
15, 108780, Note_on_c, 13, 57, 52
15, 108839, Note_on_c, 13, 57, 0
15, 108840, Note_on_c, 13, 54, 52
15, 108899, Note_on_c, 13, 54, 0
15, 108900, Note_on_c, 13, 57, 52
15, 108951, Note_on_c, 13, 57, 0
15, 108960, Note_on_c, 13, 55, 52
15, 109019, Note_on_c, 13, 55, 0
15, 109020, Note_on_c, 13, 59, 52
15, 109079, Note_on_c, 13, 59, 0
15, 109080, Note_on_c, 13, 55, 52
15, 109139, Note_on_c, 13, 55, 0
15, 109140, Note_on_c, 13, 59, 52
15, 109199, Note_on_c, 13, 59, 0
15, 109200, Note_on_c, 13, 55, 52
15, 109259, Note_on_c, 13, 55, 0
15, 109260, Note_on_c, 13, 59, 52
15, 109319, Note_on_c, 13, 59, 0
15, 109320, Note_on_c, 13, 55, 52
15, 109379, Note_on_c, 13, 55, 0
15, 109380, Note_on_c, 13, 59, 52
15, 109431, Note_on_c, 13, 59, 0
15, 109440, Note_on_c, 13, 57, 52
15, 109499, Note_on_c, 13, 57, 0
15, 109500, Note_on_c, 13, 60, 52
15, 109559, Note_on_c, 13, 60, 0
15, 109560, Note_on_c, 13, 54, 52
15, 109619, Note_on_c, 13, 54, 0
15, 109620, Note_on_c, 13, 57, 52
15, 109679, Note_on_c, 13, 57, 0
15, 109680, Note_on_c, 13, 54, 52
15, 109739, Note_on_c, 13, 54, 0
15, 109740, Note_on_c, 13, 57, 52
15, 109799, Note_on_c, 13, 57, 0
15, 109800, Note_on_c, 13, 54, 52
15, 109859, Note_on_c, 13, 54, 0
15, 109860, Note_on_c, 13, 57, 52
15, 109911, Note_on_c, 13, 57, 0
15, 109920, Note_on_c, 13, 55, 52
15, 109964, Note_on_c, 13, 55, 0
15, 109980, Note_on_c, 13, 54, 52
15, 110024, Note_on_c, 13, 54, 0
15, 110040, Note_on_c, 13, 55, 52
15, 110084, Note_on_c, 13, 55, 0
15, 110100, Note_on_c, 13, 59, 52
15, 110144, Note_on_c, 13, 59, 0
15, 110160, Note_on_c, 13, 57, 52
15, 110204, Note_on_c, 13, 57, 0
15, 110220, Note_on_c, 13, 55, 52
15, 110264, Note_on_c, 13, 55, 0
15, 110280, Note_on_c, 13, 54, 52
15, 110324, Note_on_c, 13, 54, 0
15, 110340, Note_on_c, 13, 55, 52
15, 110384, Note_on_c, 13, 55, 0
15, 110400, Note_on_c, 13, 57, 52
15, 110459, Note_on_c, 13, 57, 0
15, 110460, Note_on_c, 13, 60, 52
15, 110519, Note_on_c, 13, 60, 0
15, 110520, Note_on_c, 13, 54, 52
15, 110579, Note_on_c, 13, 54, 0
15, 110580, Note_on_c, 13, 57, 52
15, 110639, Note_on_c, 13, 57, 0
15, 110640, Note_on_c, 13, 54, 52
15, 110699, Note_on_c, 13, 54, 0
15, 110700, Note_on_c, 13, 57, 52
15, 110759, Note_on_c, 13, 57, 0
15, 110760, Note_on_c, 13, 54, 52
15, 110819, Note_on_c, 13, 54, 0
15, 110820, Note_on_c, 13, 57, 52
15, 110871, Note_on_c, 13, 57, 0
15, 110880, Note_on_c, 13, 55, 52
15, 110924, Note_on_c, 13, 55, 0
15, 110940, Note_on_c, 13, 54, 52
15, 110984, Note_on_c, 13, 54, 0
15, 111000, Note_on_c, 13, 55, 52
15, 111044, Note_on_c, 13, 55, 0
15, 111060, Note_on_c, 13, 58, 52
15, 111104, Note_on_c, 13, 58, 0
15, 111120, Note_on_c, 13, 57, 52
15, 111164, Note_on_c, 13, 57, 0
15, 111180, Note_on_c, 13, 55, 52
15, 111224, Note_on_c, 13, 55, 0
15, 111240, Note_on_c, 13, 54, 52
15, 111284, Note_on_c, 13, 54, 0
15, 111300, Note_on_c, 13, 55, 52
15, 111344, Note_on_c, 13, 55, 0
15, 111360, Note_on_c, 13, 62, 52
15, 111479, Note_on_c, 13, 62, 0
15, 111600, Note_on_c, 13, 62, 64
15, 111719, Note_on_c, 13, 62, 0
15, 111840, Note_on_c, 13, 55, 76
15, 112304, Note_on_c, 13, 55, 0
15, 112320, Note_on_c, 13, 60, 84
15, 112379, Note_on_c, 13, 60, 0
15, 112380, Note_on_c, 13, 60, 52
15, 112784, Note_on_c, 13, 60, 0
15, 112800, Note_on_c, 13, 55, 52
15, 112851, Note_on_c, 13, 55, 0
15, 112860, Note_on_c, 13, 54, 52
15, 112911, Note_on_c, 13, 54, 0
15, 112920, Note_on_c, 13, 55, 52
15, 112971, Note_on_c, 13, 55, 0
15, 112980, Note_on_c, 13, 58, 52
15, 113039, Note_on_c, 13, 58, 0
15, 113280, Note_on_c, 13, 55, 52
15, 113331, Note_on_c, 13, 55, 0
15, 113340, Note_on_c, 13, 54, 52
15, 113391, Note_on_c, 13, 54, 0
15, 113400, Note_on_c, 13, 55, 52
15, 113451, Note_on_c, 13, 55, 0
15, 113460, Note_on_c, 13, 58, 52
15, 113519, Note_on_c, 13, 58, 0
15, 113760, Note_on_c, 13, 55, 52
15, 113811, Note_on_c, 13, 55, 0
15, 113820, Note_on_c, 13, 54, 52
15, 113871, Note_on_c, 13, 54, 0
15, 113880, Note_on_c, 13, 55, 52
15, 113931, Note_on_c, 13, 55, 0
15, 113940, Note_on_c, 13, 58, 52
15, 113999, Note_on_c, 13, 58, 0
15, 114240, Note_on_c, 13, 55, 52
15, 114291, Note_on_c, 13, 55, 0
15, 114300, Note_on_c, 13, 54, 52
15, 114351, Note_on_c, 13, 54, 0
15, 114360, Note_on_c, 13, 55, 52
15, 114411, Note_on_c, 13, 55, 0
15, 114420, Note_on_c, 13, 58, 52
15, 114479, Note_on_c, 13, 58, 0
15, 115200, Note_on_c, 13, 63, 84
15, 115251, Note_on_c, 13, 63, 0
15, 115260, Note_on_c, 13, 62, 52
15, 115311, Note_on_c, 13, 62, 0
15, 115320, Note_on_c, 13, 63, 52
15, 115371, Note_on_c, 13, 63, 0
15, 115380, Note_on_c, 13, 67, 52
15, 115431, Note_on_c, 13, 67, 0
15, 115440, Note_on_c, 13, 65, 52
15, 115491, Note_on_c, 13, 65, 0
15, 115500, Note_on_c, 13, 63, 52
15, 115551, Note_on_c, 13, 63, 0
15, 115560, Note_on_c, 13, 62, 52
15, 115611, Note_on_c, 13, 62, 0
15, 115620, Note_on_c, 13, 63, 52
15, 115671, Note_on_c, 13, 63, 0
15, 115680, Note_on_c, 13, 62, 52
15, 115799, Note_on_c, 13, 62, 0
15, 117600, Note_on_c, 13, 50, 76
15, 118064, Note_on_c, 13, 50, 0
15, 118080, Note_on_c, 13, 50, 84
15, 118139, Note_on_c, 13, 50, 0
15, 118140, Control_c, 13, 11, 127
15, 118140, Note_on_c, 13, 50, 76
15, 118175, Control_c, 13, 11, 123
15, 118210, Control_c, 13, 11, 119
15, 118245, Control_c, 13, 11, 115
15, 118280, Control_c, 13, 11, 111
15, 118315, Control_c, 13, 11, 107
15, 118350, Control_c, 13, 11, 104
15, 118385, Control_c, 13, 11, 100
15, 118420, Control_c, 13, 11, 96
15, 118455, Control_c, 13, 11, 92
15, 118490, Control_c, 13, 11, 88
15, 118525, Control_c, 13, 11, 80
15, 118544, Note_on_c, 13, 50, 0
15, 118560, Note_on_c, 13, 50, 76
15, 118611, Note_on_c, 13, 50, 0
15, 118620, Note_on_c, 13, 49, 76
15, 118671, Note_on_c, 13, 49, 0
15, 118680, Note_on_c, 13, 50, 76
15, 118731, Note_on_c, 13, 50, 0
15, 118740, Note_on_c, 13, 53, 76
15, 118799, Note_on_c, 13, 53, 0
15, 119038, Control_c, 13, 11, 127
15, 119040, Note_on_c, 13, 50, 52
15, 119091, Note_on_c, 13, 50, 0
15, 119100, Note_on_c, 13, 49, 52
15, 119151, Note_on_c, 13, 49, 0
15, 119160, Note_on_c, 13, 50, 52
15, 119211, Note_on_c, 13, 50, 0
15, 119220, Note_on_c, 13, 53, 52
15, 119279, Note_on_c, 13, 53, 0
15, 119520, Note_on_c, 13, 50, 52
15, 119571, Note_on_c, 13, 50, 0
15, 119580, Note_on_c, 13, 49, 52
15, 119631, Note_on_c, 13, 49, 0
15, 119640, Note_on_c, 13, 50, 52
15, 119691, Note_on_c, 13, 50, 0
15, 119700, Note_on_c, 13, 53, 52
15, 119759, Note_on_c, 13, 53, 0
15, 120000, Note_on_c, 13, 50, 52
15, 120051, Note_on_c, 13, 50, 0
15, 120060, Note_on_c, 13, 49, 52
15, 120111, Note_on_c, 13, 49, 0
15, 120120, Note_on_c, 13, 50, 52
15, 120171, Note_on_c, 13, 50, 0
15, 120180, Note_on_c, 13, 53, 52
15, 120239, Note_on_c, 13, 53, 0
15, 120480, Note_on_c, 13, 50, 44
15, 120584, Note_on_c, 13, 50, 0
15, 120600, Note_on_c, 13, 65, 44
15, 120719, Note_on_c, 13, 65, 0
15, 120840, Note_on_c, 13, 65, 44
15, 120944, Note_on_c, 13, 65, 0
15, 120960, Note_on_c, 13, 65, 44
15, 121064, Note_on_c, 13, 65, 0
15, 121080, Note_on_c, 13, 65, 44
15, 121199, Note_on_c, 13, 65, 0
15, 121320, Note_on_c, 13, 65, 44
15, 121424, Note_on_c, 13, 65, 0
15, 121440, Note_on_c, 13, 65, 44
15, 121544, Note_on_c, 13, 65, 0
15, 121560, Note_on_c, 13, 65, 44
15, 121679, Note_on_c, 13, 65, 0
15, 121800, Note_on_c, 13, 65, 44
15, 121904, Note_on_c, 13, 65, 0
15, 121920, Note_on_c, 13, 65, 44
15, 122024, Note_on_c, 13, 65, 0
15, 122040, Note_on_c, 13, 65, 44
15, 122159, Note_on_c, 13, 65, 0
15, 122280, Note_on_c, 13, 65, 44
15, 122384, Note_on_c, 13, 65, 0
15, 122400, Note_on_c, 13, 62, 44
15, 122400, Note_on_c, 13, 65, 44
15, 122504, Note_on_c, 13, 62, 0
15, 122504, Note_on_c, 13, 65, 0
15, 122520, Note_on_c, 13, 65, 44
15, 122520, Note_on_c, 13, 62, 44
15, 122639, Note_on_c, 13, 65, 0
15, 122639, Note_on_c, 13, 62, 0
15, 122760, Note_on_c, 13, 65, 44
15, 122760, Note_on_c, 13, 62, 44
15, 122864, Note_on_c, 13, 65, 0
15, 122864, Note_on_c, 13, 62, 0
15, 122880, Note_on_c, 13, 65, 44
15, 122880, Note_on_c, 13, 62, 44
15, 122984, Note_on_c, 13, 65, 0
15, 122984, Note_on_c, 13, 62, 0
15, 123000, Note_on_c, 13, 62, 44
15, 123000, Note_on_c, 13, 65, 44
15, 123119, Note_on_c, 13, 62, 0
15, 123119, Note_on_c, 13, 65, 0
15, 123240, Note_on_c, 13, 65, 44
15, 123240, Note_on_c, 13, 62, 44
15, 123344, Note_on_c, 13, 65, 0
15, 123344, Note_on_c, 13, 62, 0
15, 123360, Note_on_c, 13, 62, 44
15, 123360, Note_on_c, 13, 65, 44
15, 123464, Note_on_c, 13, 62, 0
15, 123464, Note_on_c, 13, 65, 0
15, 123480, Note_on_c, 13, 62, 44
15, 123480, Note_on_c, 13, 65, 44
15, 123599, Note_on_c, 13, 62, 0
15, 123599, Note_on_c, 13, 65, 0
15, 123720, Note_on_c, 13, 62, 44
15, 123720, Note_on_c, 13, 65, 44
15, 123824, Note_on_c, 13, 62, 0
15, 123824, Note_on_c, 13, 65, 0
15, 123840, Note_on_c, 13, 65, 44
15, 123840, Note_on_c, 13, 62, 44
15, 123944, Note_on_c, 13, 65, 0
15, 123944, Note_on_c, 13, 62, 0
15, 123960, Note_on_c, 13, 65, 44
15, 123960, Note_on_c, 13, 62, 44
15, 124079, Note_on_c, 13, 65, 0
15, 124079, Note_on_c, 13, 62, 0
15, 124200, Note_on_c, 13, 62, 44
15, 124304, Note_on_c, 13, 62, 0
15, 124320, Note_on_c, 13, 60, 44
15, 124424, Note_on_c, 13, 60, 0
15, 124440, Note_on_c, 13, 60, 46
15, 124559, Note_on_c, 13, 60, 0
15, 124680, Note_on_c, 13, 60, 51
15, 124784, Note_on_c, 13, 60, 0
15, 124800, Note_on_c, 13, 60, 54
15, 124904, Note_on_c, 13, 60, 0
15, 124920, Note_on_c, 13, 60, 56
15, 125039, Note_on_c, 13, 60, 0
15, 125160, Note_on_c, 13, 60, 61
15, 125264, Note_on_c, 13, 60, 0
15, 125280, Note_on_c, 13, 60, 64
15, 125384, Note_on_c, 13, 60, 0
15, 125400, Note_on_c, 13, 60, 66
15, 125519, Note_on_c, 13, 60, 0
15, 125640, Note_on_c, 13, 60, 71
15, 125744, Note_on_c, 13, 60, 0
15, 125760, Note_on_c, 13, 60, 74
15, 125864, Note_on_c, 13, 60, 0
15, 125880, Note_on_c, 13, 60, 76
15, 125999, Note_on_c, 13, 60, 0
15, 126120, Note_on_c, 13, 60, 81
15, 126224, Note_on_c, 13, 60, 0
15, 126240, Note_on_c, 13, 57, 84
15, 126344, Note_on_c, 13, 57, 0
15, 126360, Note_on_c, 13, 57, 84
15, 126479, Note_on_c, 13, 57, 0
15, 126600, Note_on_c, 13, 57, 84
15, 126704, Note_on_c, 13, 57, 0
15, 126720, Note_on_c, 13, 57, 84
15, 126824, Note_on_c, 13, 57, 0
15, 126840, Note_on_c, 13, 57, 84
15, 126959, Note_on_c, 13, 57, 0
15, 127080, Note_on_c, 13, 57, 84
15, 127184, Note_on_c, 13, 57, 0
15, 127200, Note_on_c, 13, 57, 84
15, 127304, Note_on_c, 13, 57, 0
15, 127320, Note_on_c, 13, 57, 84
15, 127439, Note_on_c, 13, 57, 0
15, 127560, Note_on_c, 13, 57, 84
15, 127664, Note_on_c, 13, 57, 0
15, 127680, Note_on_c, 13, 57, 84
15, 127784, Note_on_c, 13, 57, 0
15, 127800, Note_on_c, 13, 57, 84
15, 127919, Note_on_c, 13, 57, 0
15, 128040, Note_on_c, 13, 57, 84
15, 128144, Note_on_c, 13, 57, 0
15, 128160, Note_on_c, 13, 57, 84
15, 128279, Note_on_c, 13, 57, 0
15, 128400, Note_on_c, 13, 66, 84
15, 128519, Note_on_c, 13, 66, 0
15, 128640, Note_on_c, 13, 63, 84
15, 128759, Note_on_c, 13, 63, 0
15, 128880, Note_on_c, 13, 60, 84
15, 128999, Note_on_c, 13, 60, 0
15, 129120, Note_on_c, 13, 57, 84
15, 129239, Note_on_c, 13, 57, 0
15, 129360, Note_on_c, 13, 54, 84
15, 129479, Note_on_c, 13, 54, 0
15, 129600, Note_on_c, 13, 51, 84
15, 129719, Note_on_c, 13, 51, 0
15, 129840, Note_on_c, 13, 54, 84
15, 129959, Note_on_c, 13, 54, 0
15, 130320, Note_on_c, 13, 51, 92
15, 130379, Note_on_c, 13, 51, 0
15, 130380, Note_on_c, 13, 50, 84
15, 130439, Note_on_c, 13, 50, 0
15, 130440, Note_on_c, 13, 51, 84
15, 130499, Note_on_c, 13, 51, 0
15, 130500, Note_on_c, 13, 54, 84
15, 130559, Note_on_c, 13, 54, 0
15, 130800, Note_on_c, 13, 51, 92
15, 130859, Note_on_c, 13, 51, 0
15, 130860, Note_on_c, 13, 50, 84
15, 130919, Note_on_c, 13, 50, 0
15, 130920, Note_on_c, 13, 51, 84
15, 130979, Note_on_c, 13, 51, 0
15, 130980, Note_on_c, 13, 54, 84
15, 131039, Note_on_c, 13, 54, 0
15, 131280, Note_on_c, 13, 51, 92
15, 131339, Note_on_c, 13, 51, 0
15, 131340, Note_on_c, 13, 50, 84
15, 131399, Note_on_c, 13, 50, 0
15, 131400, Note_on_c, 13, 51, 84
15, 131459, Note_on_c, 13, 51, 0
15, 131460, Note_on_c, 13, 54, 84
15, 131519, Note_on_c, 13, 54, 0
15, 131760, Note_on_c, 13, 51, 92
15, 131819, Note_on_c, 13, 51, 0
15, 131820, Note_on_c, 13, 50, 84
15, 131879, Note_on_c, 13, 50, 0
15, 131880, Note_on_c, 13, 51, 84
15, 131939, Note_on_c, 13, 51, 0
15, 131940, Note_on_c, 13, 54, 84
15, 131999, Note_on_c, 13, 54, 0
15, 132000, Note_on_c, 13, 51, 84
15, 132119, Note_on_c, 13, 51, 0
15, 132240, Note_on_c, 13, 66, 84
15, 132359, Note_on_c, 13, 66, 0
15, 132480, Note_on_c, 13, 63, 84
15, 132599, Note_on_c, 13, 63, 0
15, 132720, Note_on_c, 13, 60, 84
15, 132839, Note_on_c, 13, 60, 0
15, 132960, Note_on_c, 13, 57, 84
15, 133079, Note_on_c, 13, 57, 0
15, 133200, Note_on_c, 13, 54, 84
15, 133319, Note_on_c, 13, 54, 0
15, 133440, Note_on_c, 13, 51, 84
15, 133559, Note_on_c, 13, 51, 0
15, 133680, Note_on_c, 13, 54, 84
15, 133799, Note_on_c, 13, 54, 0
15, 134160, Note_on_c, 13, 51, 92
15, 134219, Note_on_c, 13, 51, 0
15, 134220, Note_on_c, 13, 50, 84
15, 134279, Note_on_c, 13, 50, 0
15, 134280, Note_on_c, 13, 51, 84
15, 134339, Note_on_c, 13, 51, 0
15, 134340, Note_on_c, 13, 54, 84
15, 134399, Note_on_c, 13, 54, 0
15, 134640, Note_on_c, 13, 51, 92
15, 134699, Note_on_c, 13, 51, 0
15, 134700, Note_on_c, 13, 50, 84
15, 134759, Note_on_c, 13, 50, 0
15, 134760, Note_on_c, 13, 51, 84
15, 134819, Note_on_c, 13, 51, 0
15, 134820, Note_on_c, 13, 54, 84
15, 134879, Note_on_c, 13, 54, 0
15, 135120, Note_on_c, 13, 51, 92
15, 135179, Note_on_c, 13, 51, 0
15, 135180, Note_on_c, 13, 50, 84
15, 135239, Note_on_c, 13, 50, 0
15, 135240, Note_on_c, 13, 51, 84
15, 135299, Note_on_c, 13, 51, 0
15, 135300, Note_on_c, 13, 54, 84
15, 135359, Note_on_c, 13, 54, 0
15, 135600, Note_on_c, 13, 51, 92
15, 135659, Note_on_c, 13, 51, 0
15, 135660, Note_on_c, 13, 50, 84
15, 135719, Note_on_c, 13, 50, 0
15, 135720, Note_on_c, 13, 51, 84
15, 135779, Note_on_c, 13, 51, 0
15, 135780, Note_on_c, 13, 54, 84
15, 135839, Note_on_c, 13, 54, 0
15, 136080, Note_on_c, 13, 51, 84
15, 136139, Note_on_c, 13, 51, 0
15, 136140, Note_on_c, 13, 50, 82
15, 136199, Note_on_c, 13, 50, 0
15, 136200, Note_on_c, 13, 51, 80
15, 136259, Note_on_c, 13, 51, 0
15, 136260, Note_on_c, 13, 54, 78
15, 136319, Note_on_c, 13, 54, 0
15, 136560, Note_on_c, 13, 50, 68
15, 136619, Note_on_c, 13, 50, 0
15, 136620, Note_on_c, 13, 49, 66
15, 136679, Note_on_c, 13, 49, 0
15, 136680, Note_on_c, 13, 50, 64
15, 136739, Note_on_c, 13, 50, 0
15, 136740, Note_on_c, 13, 53, 62
15, 136799, Note_on_c, 13, 53, 0
15, 137520, Program_c, 13, 45
15, 137760, Note_on_c, 13, 58, 48
15, 137879, Note_on_c, 13, 58, 0
15, 138000, Note_on_c, 13, 58, 48
15, 138119, Note_on_c, 13, 58, 0
15, 138240, Note_on_c, 13, 55, 48
15, 138359, Note_on_c, 13, 55, 0
15, 138960, Note_on_c, 13, 53, 48
15, 139079, Note_on_c, 13, 53, 0
15, 139200, Note_on_c, 13, 53, 48
15, 139319, Note_on_c, 13, 53, 0
15, 139440, Note_on_c, 13, 53, 48
15, 139559, Note_on_c, 13, 53, 0
15, 139678, Program_c, 13, 48
15, 139680, Note_on_c, 13, 58, 76
15, 139731, Note_on_c, 13, 58, 0
15, 139740, Note_on_c, 13, 57, 76
15, 139791, Note_on_c, 13, 57, 0
15, 139800, Note_on_c, 13, 58, 76
15, 139851, Note_on_c, 13, 58, 0
15, 139860, Note_on_c, 13, 62, 76
15, 139911, Note_on_c, 13, 62, 0
15, 139920, Note_on_c, 13, 53, 76
15, 139971, Note_on_c, 13, 53, 0
15, 139980, Note_on_c, 13, 55, 76
15, 140031, Note_on_c, 13, 55, 0
15, 140040, Note_on_c, 13, 57, 76
15, 140091, Note_on_c, 13, 57, 0
15, 140100, Note_on_c, 13, 58, 76
15, 140131, Note_on_c, 13, 58, 0
15, 140140, Note_on_c, 13, 62, 76
15, 140159, Note_on_c, 13, 62, 0
15, 140160, Note_on_c, 13, 60, 76
15, 140211, Note_on_c, 13, 60, 0
15, 140220, Note_on_c, 13, 59, 76
15, 140271, Note_on_c, 13, 59, 0
15, 140280, Note_on_c, 13, 60, 76
15, 140331, Note_on_c, 13, 60, 0
15, 140340, Note_on_c, 13, 63, 76
15, 140391, Note_on_c, 13, 63, 0
15, 140400, Note_on_c, 13, 67, 76
15, 140451, Note_on_c, 13, 67, 0
15, 140460, Note_on_c, 13, 65, 76
15, 140511, Note_on_c, 13, 65, 0
15, 140520, Note_on_c, 13, 63, 76
15, 140571, Note_on_c, 13, 63, 0
15, 140580, Note_on_c, 13, 62, 76
15, 140631, Note_on_c, 13, 62, 0
15, 140640, Note_on_c, 13, 60, 76
15, 140691, Note_on_c, 13, 60, 0
15, 140700, Note_on_c, 13, 58, 76
15, 140751, Note_on_c, 13, 58, 0
15, 140760, Note_on_c, 13, 57, 76
15, 140811, Note_on_c, 13, 57, 0
15, 140820, Note_on_c, 13, 55, 76
15, 140871, Note_on_c, 13, 55, 0
15, 140880, Note_on_c, 13, 53, 76
15, 140931, Note_on_c, 13, 53, 0
15, 140940, Note_on_c, 13, 63, 76
15, 140991, Note_on_c, 13, 63, 0
15, 141000, Note_on_c, 13, 62, 76
15, 141051, Note_on_c, 13, 62, 0
15, 141060, Note_on_c, 13, 60, 76
15, 141111, Note_on_c, 13, 60, 0
15, 141120, Note_on_c, 13, 58, 76
15, 141171, Note_on_c, 13, 58, 0
15, 141180, Note_on_c, 13, 60, 76
15, 141231, Note_on_c, 13, 60, 0
15, 141240, Note_on_c, 13, 62, 76
15, 141291, Note_on_c, 13, 62, 0
15, 141300, Note_on_c, 13, 58, 76
15, 141351, Note_on_c, 13, 58, 0
15, 141360, Note_on_c, 13, 53, 76
15, 141411, Note_on_c, 13, 53, 0
15, 141420, Note_on_c, 13, 57, 76
15, 141471, Note_on_c, 13, 57, 0
15, 141480, Note_on_c, 13, 60, 76
15, 141531, Note_on_c, 13, 60, 0
15, 141540, Note_on_c, 13, 65, 76
15, 141591, Note_on_c, 13, 65, 0
15, 141600, Note_on_c, 13, 62, 76
15, 141600, Note_on_c, 13, 58, 76
15, 141651, Note_on_c, 13, 62, 0
15, 141651, Note_on_c, 13, 58, 0
15, 141660, Note_on_c, 13, 62, 76
15, 141660, Note_on_c, 13, 58, 76
15, 141711, Note_on_c, 13, 62, 0
15, 141711, Note_on_c, 13, 58, 0
15, 141720, Note_on_c, 13, 62, 76
15, 141720, Note_on_c, 13, 58, 76
15, 141771, Note_on_c, 13, 62, 0
15, 141771, Note_on_c, 13, 58, 0
15, 141780, Note_on_c, 13, 58, 76
15, 141780, Note_on_c, 13, 62, 76
15, 141831, Note_on_c, 13, 58, 0
15, 141831, Note_on_c, 13, 62, 0
15, 141840, Note_on_c, 13, 58, 76
15, 141840, Note_on_c, 13, 62, 76
15, 141891, Note_on_c, 13, 58, 0
15, 141891, Note_on_c, 13, 62, 0
15, 141900, Note_on_c, 13, 58, 76
15, 141900, Note_on_c, 13, 62, 76
15, 141951, Note_on_c, 13, 58, 0
15, 141951, Note_on_c, 13, 62, 0
15, 141960, Note_on_c, 13, 58, 76
15, 141960, Note_on_c, 13, 62, 76
15, 142011, Note_on_c, 13, 58, 0
15, 142011, Note_on_c, 13, 62, 0
15, 142020, Note_on_c, 13, 58, 76
15, 142020, Note_on_c, 13, 62, 76
15, 142071, Note_on_c, 13, 58, 0
15, 142071, Note_on_c, 13, 62, 0
15, 142080, Note_on_c, 13, 62, 76
15, 142080, Note_on_c, 13, 58, 76
15, 142131, Note_on_c, 13, 62, 0
15, 142131, Note_on_c, 13, 58, 0
15, 142140, Note_on_c, 13, 58, 76
15, 142140, Note_on_c, 13, 62, 76
15, 142191, Note_on_c, 13, 58, 0
15, 142191, Note_on_c, 13, 62, 0
15, 142200, Note_on_c, 13, 58, 76
15, 142200, Note_on_c, 13, 62, 76
15, 142251, Note_on_c, 13, 58, 0
15, 142251, Note_on_c, 13, 62, 0
15, 142260, Note_on_c, 13, 62, 76
15, 142260, Note_on_c, 13, 58, 76
15, 142311, Note_on_c, 13, 62, 0
15, 142311, Note_on_c, 13, 58, 0
15, 142320, Note_on_c, 13, 62, 76
15, 142320, Note_on_c, 13, 58, 76
15, 142371, Note_on_c, 13, 62, 0
15, 142371, Note_on_c, 13, 58, 0
15, 142380, Note_on_c, 13, 58, 76
15, 142380, Note_on_c, 13, 62, 76
15, 142431, Note_on_c, 13, 58, 0
15, 142431, Note_on_c, 13, 62, 0
15, 142440, Note_on_c, 13, 62, 76
15, 142440, Note_on_c, 13, 58, 76
15, 142491, Note_on_c, 13, 62, 0
15, 142491, Note_on_c, 13, 58, 0
15, 142500, Note_on_c, 13, 62, 76
15, 142500, Note_on_c, 13, 58, 76
15, 142551, Note_on_c, 13, 62, 0
15, 142551, Note_on_c, 13, 58, 0
15, 142560, Note_on_c, 13, 63, 76
15, 142560, Note_on_c, 13, 60, 76
15, 142611, Note_on_c, 13, 63, 0
15, 142611, Note_on_c, 13, 60, 0
15, 142620, Note_on_c, 13, 60, 76
15, 142620, Note_on_c, 13, 63, 76
15, 142671, Note_on_c, 13, 60, 0
15, 142671, Note_on_c, 13, 63, 0
15, 142680, Note_on_c, 13, 63, 76
15, 142680, Note_on_c, 13, 60, 76
15, 142731, Note_on_c, 13, 63, 0
15, 142731, Note_on_c, 13, 60, 0
15, 142740, Note_on_c, 13, 60, 76
15, 142740, Note_on_c, 13, 63, 76
15, 142791, Note_on_c, 13, 60, 0
15, 142791, Note_on_c, 13, 63, 0
15, 142800, Note_on_c, 13, 60, 76
15, 142800, Note_on_c, 13, 63, 76
15, 142851, Note_on_c, 13, 60, 0
15, 142851, Note_on_c, 13, 63, 0
15, 142860, Note_on_c, 13, 63, 76
15, 142860, Note_on_c, 13, 60, 76
15, 142911, Note_on_c, 13, 63, 0
15, 142911, Note_on_c, 13, 60, 0
15, 142920, Note_on_c, 13, 60, 76
15, 142920, Note_on_c, 13, 63, 76
15, 142971, Note_on_c, 13, 60, 0
15, 142971, Note_on_c, 13, 63, 0
15, 142980, Note_on_c, 13, 60, 76
15, 142980, Note_on_c, 13, 63, 76
15, 143031, Note_on_c, 13, 60, 0
15, 143031, Note_on_c, 13, 63, 0
15, 143040, Note_on_c, 13, 60, 76
15, 143040, Note_on_c, 13, 63, 76
15, 143091, Note_on_c, 13, 60, 0
15, 143091, Note_on_c, 13, 63, 0
15, 143100, Note_on_c, 13, 63, 76
15, 143100, Note_on_c, 13, 60, 76
15, 143151, Note_on_c, 13, 63, 0
15, 143151, Note_on_c, 13, 60, 0
15, 143160, Note_on_c, 13, 60, 76
15, 143160, Note_on_c, 13, 63, 76
15, 143211, Note_on_c, 13, 60, 0
15, 143211, Note_on_c, 13, 63, 0
15, 143220, Note_on_c, 13, 63, 76
15, 143220, Note_on_c, 13, 60, 76
15, 143271, Note_on_c, 13, 63, 0
15, 143271, Note_on_c, 13, 60, 0
15, 143280, Note_on_c, 13, 60, 76
15, 143280, Note_on_c, 13, 63, 76
15, 143331, Note_on_c, 13, 60, 0
15, 143331, Note_on_c, 13, 63, 0
15, 143340, Note_on_c, 13, 63, 76
15, 143340, Note_on_c, 13, 60, 76
15, 143391, Note_on_c, 13, 63, 0
15, 143391, Note_on_c, 13, 60, 0
15, 143400, Note_on_c, 13, 60, 76
15, 143400, Note_on_c, 13, 63, 76
15, 143451, Note_on_c, 13, 60, 0
15, 143451, Note_on_c, 13, 63, 0
15, 143460, Note_on_c, 13, 63, 76
15, 143460, Note_on_c, 13, 60, 76
15, 143511, Note_on_c, 13, 63, 0
15, 143511, Note_on_c, 13, 60, 0
15, 143520, Note_on_c, 13, 58, 76
15, 143520, Note_on_c, 13, 62, 76
15, 143744, Note_on_c, 13, 58, 0
15, 143744, Note_on_c, 13, 62, 0
15, 143760, Note_on_c, 13, 62, 76
15, 143811, Note_on_c, 13, 62, 0
15, 143820, Note_on_c, 13, 65, 76
15, 143871, Note_on_c, 13, 65, 0
15, 143880, Note_on_c, 13, 70, 76
15, 143931, Note_on_c, 13, 70, 0
15, 143940, Note_on_c, 13, 70, 76
15, 143991, Note_on_c, 13, 70, 0
15, 144000, Note_on_c, 13, 70, 76
15, 144344, Note_on_c, 13, 70, 0
15, 144360, Note_on_c, 13, 70, 76
15, 144464, Note_on_c, 13, 70, 0
15, 144480, Note_on_c, 13, 68, 76
15, 144584, Note_on_c, 13, 68, 0
15, 144600, Note_on_c, 13, 72, 76
15, 144704, Note_on_c, 13, 72, 0
15, 144720, Note_on_c, 13, 65, 76
15, 144824, Note_on_c, 13, 65, 0
15, 144840, Note_on_c, 13, 68, 76
15, 144944, Note_on_c, 13, 68, 0
15, 144960, Note_on_c, 13, 62, 76
15, 145064, Note_on_c, 13, 62, 0
15, 145080, Note_on_c, 13, 65, 76
15, 145184, Note_on_c, 13, 65, 0
15, 145200, Note_on_c, 13, 58, 76
15, 145304, Note_on_c, 13, 58, 0
15, 145320, Note_on_c, 13, 70, 76
15, 145424, Note_on_c, 13, 70, 0
15, 145440, Note_on_c, 13, 51, 76
15, 145440, Note_on_c, 13, 55, 76
15, 145491, Note_on_c, 13, 51, 0
15, 145491, Note_on_c, 13, 55, 0
15, 145500, Note_on_c, 13, 51, 76
15, 145500, Note_on_c, 13, 55, 76
15, 145551, Note_on_c, 13, 51, 0
15, 145551, Note_on_c, 13, 55, 0
15, 145560, Note_on_c, 13, 55, 76
15, 145560, Note_on_c, 13, 51, 76
15, 145611, Note_on_c, 13, 55, 0
15, 145611, Note_on_c, 13, 51, 0
15, 145620, Note_on_c, 13, 55, 76
15, 145620, Note_on_c, 13, 51, 76
15, 145671, Note_on_c, 13, 55, 0
15, 145671, Note_on_c, 13, 51, 0
15, 145680, Note_on_c, 13, 55, 76
15, 145680, Note_on_c, 13, 51, 76
15, 145731, Note_on_c, 13, 55, 0
15, 145731, Note_on_c, 13, 51, 0
15, 145740, Note_on_c, 13, 51, 76
15, 145740, Note_on_c, 13, 55, 76
15, 145791, Note_on_c, 13, 51, 0
15, 145791, Note_on_c, 13, 55, 0
15, 145800, Note_on_c, 13, 55, 76
15, 145800, Note_on_c, 13, 51, 76
15, 145851, Note_on_c, 13, 55, 0
15, 145851, Note_on_c, 13, 51, 0
15, 145860, Note_on_c, 13, 55, 76
15, 145860, Note_on_c, 13, 51, 76
15, 145911, Note_on_c, 13, 55, 0
15, 145911, Note_on_c, 13, 51, 0
15, 145920, Note_on_c, 13, 51, 76
15, 145920, Note_on_c, 13, 55, 76
15, 145971, Note_on_c, 13, 51, 0
15, 145971, Note_on_c, 13, 55, 0
15, 145980, Note_on_c, 13, 55, 76
15, 145980, Note_on_c, 13, 51, 76
15, 146031, Note_on_c, 13, 55, 0
15, 146031, Note_on_c, 13, 51, 0
15, 146040, Note_on_c, 13, 51, 76
15, 146040, Note_on_c, 13, 55, 76
15, 146091, Note_on_c, 13, 51, 0
15, 146091, Note_on_c, 13, 55, 0
15, 146100, Note_on_c, 13, 51, 76
15, 146100, Note_on_c, 13, 55, 76
15, 146151, Note_on_c, 13, 51, 0
15, 146151, Note_on_c, 13, 55, 0
15, 146160, Note_on_c, 13, 55, 76
15, 146160, Note_on_c, 13, 51, 76
15, 146211, Note_on_c, 13, 55, 0
15, 146211, Note_on_c, 13, 51, 0
15, 146220, Note_on_c, 13, 55, 76
15, 146220, Note_on_c, 13, 51, 76
15, 146271, Note_on_c, 13, 55, 0
15, 146271, Note_on_c, 13, 51, 0
15, 146280, Note_on_c, 13, 51, 76
15, 146280, Note_on_c, 13, 55, 76
15, 146331, Note_on_c, 13, 51, 0
15, 146331, Note_on_c, 13, 55, 0
15, 146340, Note_on_c, 13, 51, 76
15, 146340, Note_on_c, 13, 55, 76
15, 146391, Note_on_c, 13, 51, 0
15, 146391, Note_on_c, 13, 55, 0
15, 146400, Note_on_c, 13, 53, 76
15, 146400, Note_on_c, 13, 56, 76
15, 146451, Note_on_c, 13, 53, 0
15, 146451, Note_on_c, 13, 56, 0
15, 146460, Note_on_c, 13, 53, 76
15, 146460, Note_on_c, 13, 56, 76
15, 146511, Note_on_c, 13, 53, 0
15, 146511, Note_on_c, 13, 56, 0
15, 146520, Note_on_c, 13, 53, 76
15, 146520, Note_on_c, 13, 56, 76
15, 146571, Note_on_c, 13, 53, 0
15, 146571, Note_on_c, 13, 56, 0
15, 146580, Note_on_c, 13, 53, 76
15, 146580, Note_on_c, 13, 56, 76
15, 146631, Note_on_c, 13, 53, 0
15, 146631, Note_on_c, 13, 56, 0
15, 146640, Note_on_c, 13, 56, 76
15, 146640, Note_on_c, 13, 53, 76
15, 146691, Note_on_c, 13, 56, 0
15, 146691, Note_on_c, 13, 53, 0
15, 146700, Note_on_c, 13, 56, 76
15, 146700, Note_on_c, 13, 53, 76
15, 146751, Note_on_c, 13, 56, 0
15, 146751, Note_on_c, 13, 53, 0
15, 146760, Note_on_c, 13, 56, 76
15, 146760, Note_on_c, 13, 53, 76
15, 146811, Note_on_c, 13, 56, 0
15, 146811, Note_on_c, 13, 53, 0
15, 146820, Note_on_c, 13, 53, 76
15, 146820, Note_on_c, 13, 56, 76
15, 146871, Note_on_c, 13, 53, 0
15, 146871, Note_on_c, 13, 56, 0
15, 146880, Note_on_c, 13, 53, 76
15, 146880, Note_on_c, 13, 56, 76
15, 146931, Note_on_c, 13, 53, 0
15, 146931, Note_on_c, 13, 56, 0
15, 146940, Note_on_c, 13, 56, 76
15, 146940, Note_on_c, 13, 53, 76
15, 146991, Note_on_c, 13, 56, 0
15, 146991, Note_on_c, 13, 53, 0
15, 147000, Note_on_c, 13, 56, 76
15, 147000, Note_on_c, 13, 53, 76
15, 147051, Note_on_c, 13, 56, 0
15, 147051, Note_on_c, 13, 53, 0
15, 147060, Note_on_c, 13, 56, 76
15, 147060, Note_on_c, 13, 53, 76
15, 147111, Note_on_c, 13, 56, 0
15, 147111, Note_on_c, 13, 53, 0
15, 147120, Note_on_c, 13, 56, 76
15, 147120, Note_on_c, 13, 53, 76
15, 147171, Note_on_c, 13, 56, 0
15, 147171, Note_on_c, 13, 53, 0
15, 147180, Note_on_c, 13, 53, 76
15, 147180, Note_on_c, 13, 56, 76
15, 147231, Note_on_c, 13, 53, 0
15, 147231, Note_on_c, 13, 56, 0
15, 147240, Note_on_c, 13, 56, 76
15, 147240, Note_on_c, 13, 53, 76
15, 147291, Note_on_c, 13, 56, 0
15, 147291, Note_on_c, 13, 53, 0
15, 147300, Note_on_c, 13, 56, 76
15, 147300, Note_on_c, 13, 53, 76
15, 147359, Note_on_c, 13, 56, 0
15, 147359, Note_on_c, 13, 53, 0
15, 148320, Note_on_c, 13, 60, 52
15, 148424, Note_on_c, 13, 60, 0
15, 148440, Note_on_c, 13, 63, 52
15, 148544, Note_on_c, 13, 63, 0
15, 148560, Note_on_c, 13, 55, 52
15, 148664, Note_on_c, 13, 55, 0
15, 148680, Note_on_c, 13, 60, 52
15, 148784, Note_on_c, 13, 60, 0
15, 148800, Note_on_c, 13, 51, 52
15, 148904, Note_on_c, 13, 51, 0
15, 148920, Note_on_c, 13, 55, 52
15, 149024, Note_on_c, 13, 55, 0
15, 149040, Note_on_c, 13, 48, 52
15, 149144, Note_on_c, 13, 48, 0
15, 149160, Note_on_c, 13, 51, 52
15, 149264, Note_on_c, 13, 51, 0
15, 149280, Note_on_c, 13, 57, 76
15, 149331, Note_on_c, 13, 57, 0
15, 149340, Note_on_c, 13, 57, 76
15, 149391, Note_on_c, 13, 57, 0
15, 149400, Note_on_c, 13, 60, 76
15, 149451, Note_on_c, 13, 60, 0
15, 149460, Note_on_c, 13, 60, 76
15, 149511, Note_on_c, 13, 60, 0
15, 149520, Note_on_c, 13, 51, 76
15, 149571, Note_on_c, 13, 51, 0
15, 149580, Note_on_c, 13, 51, 76
15, 149631, Note_on_c, 13, 51, 0
15, 149640, Note_on_c, 13, 57, 76
15, 149691, Note_on_c, 13, 57, 0
15, 149700, Note_on_c, 13, 57, 76
15, 149751, Note_on_c, 13, 57, 0
15, 149760, Note_on_c, 13, 48, 76
15, 149811, Note_on_c, 13, 48, 0
15, 149820, Note_on_c, 13, 48, 76
15, 149871, Note_on_c, 13, 48, 0
15, 149880, Note_on_c, 13, 51, 76
15, 149931, Note_on_c, 13, 51, 0
15, 149940, Note_on_c, 13, 51, 76
15, 149991, Note_on_c, 13, 51, 0
15, 150000, Note_on_c, 13, 57, 76
15, 150051, Note_on_c, 13, 57, 0
15, 150060, Note_on_c, 13, 57, 76
15, 150111, Note_on_c, 13, 57, 0
15, 150120, Note_on_c, 13, 60, 76
15, 150171, Note_on_c, 13, 60, 0
15, 150180, Note_on_c, 13, 60, 76
15, 150231, Note_on_c, 13, 60, 0
15, 150240, Note_on_c, 13, 57, 84
15, 150240, Note_on_c, 13, 53, 84
15, 150291, Note_on_c, 13, 57, 0
15, 150291, Note_on_c, 13, 53, 0
15, 150300, Note_on_c, 13, 53, 84
15, 150300, Note_on_c, 13, 57, 84
15, 150351, Note_on_c, 13, 53, 0
15, 150351, Note_on_c, 13, 57, 0
15, 150360, Note_on_c, 13, 57, 84
15, 150360, Note_on_c, 13, 53, 84
15, 150411, Note_on_c, 13, 57, 0
15, 150411, Note_on_c, 13, 53, 0
15, 150420, Note_on_c, 13, 53, 84
15, 150420, Note_on_c, 13, 57, 84
15, 150471, Note_on_c, 13, 53, 0
15, 150471, Note_on_c, 13, 57, 0
15, 150480, Note_on_c, 13, 53, 84
15, 150480, Note_on_c, 13, 57, 84
15, 150531, Note_on_c, 13, 53, 0
15, 150531, Note_on_c, 13, 57, 0
15, 150540, Note_on_c, 13, 57, 84
15, 150540, Note_on_c, 13, 53, 84
15, 150591, Note_on_c, 13, 57, 0
15, 150591, Note_on_c, 13, 53, 0
15, 150600, Note_on_c, 13, 57, 84
15, 150600, Note_on_c, 13, 53, 84
15, 150651, Note_on_c, 13, 57, 0
15, 150651, Note_on_c, 13, 53, 0
15, 150660, Note_on_c, 13, 57, 84
15, 150660, Note_on_c, 13, 53, 84
15, 150711, Note_on_c, 13, 57, 0
15, 150711, Note_on_c, 13, 53, 0
15, 150720, Note_on_c, 13, 57, 84
15, 150720, Note_on_c, 13, 53, 84
15, 150771, Note_on_c, 13, 57, 0
15, 150771, Note_on_c, 13, 53, 0
15, 150780, Note_on_c, 13, 53, 84
15, 150780, Note_on_c, 13, 57, 84
15, 150831, Note_on_c, 13, 53, 0
15, 150831, Note_on_c, 13, 57, 0
15, 150840, Note_on_c, 13, 57, 84
15, 150840, Note_on_c, 13, 54, 84
15, 150891, Note_on_c, 13, 57, 0
15, 150891, Note_on_c, 13, 54, 0
15, 150900, Note_on_c, 13, 57, 84
15, 150900, Note_on_c, 13, 54, 84
15, 150951, Note_on_c, 13, 57, 0
15, 150951, Note_on_c, 13, 54, 0
15, 150960, Note_on_c, 13, 53, 84
15, 150960, Note_on_c, 13, 57, 84
15, 151011, Note_on_c, 13, 53, 0
15, 151011, Note_on_c, 13, 57, 0
15, 151020, Note_on_c, 13, 53, 84
15, 151020, Note_on_c, 13, 57, 84
15, 151071, Note_on_c, 13, 53, 0
15, 151071, Note_on_c, 13, 57, 0
15, 151080, Note_on_c, 13, 54, 84
15, 151080, Note_on_c, 13, 57, 84
15, 151131, Note_on_c, 13, 54, 0
15, 151131, Note_on_c, 13, 57, 0
15, 151140, Note_on_c, 13, 57, 84
15, 151140, Note_on_c, 13, 54, 84
15, 151191, Note_on_c, 13, 57, 0
15, 151191, Note_on_c, 13, 54, 0
15, 151200, Note_on_c, 13, 53, 84
15, 151200, Note_on_c, 13, 57, 84
15, 151251, Note_on_c, 13, 53, 0
15, 151251, Note_on_c, 13, 57, 0
15, 151260, Note_on_c, 13, 57, 84
15, 151260, Note_on_c, 13, 53, 84
15, 151311, Note_on_c, 13, 57, 0
15, 151311, Note_on_c, 13, 53, 0
15, 151320, Note_on_c, 13, 57, 84
15, 151320, Note_on_c, 13, 53, 84
15, 151371, Note_on_c, 13, 57, 0
15, 151371, Note_on_c, 13, 53, 0
15, 151380, Note_on_c, 13, 57, 84
15, 151380, Note_on_c, 13, 53, 84
15, 151431, Note_on_c, 13, 57, 0
15, 151431, Note_on_c, 13, 53, 0
15, 151440, Note_on_c, 13, 57, 84
15, 151440, Note_on_c, 13, 53, 84
15, 151491, Note_on_c, 13, 57, 0
15, 151491, Note_on_c, 13, 53, 0
15, 151500, Note_on_c, 13, 57, 84
15, 151500, Note_on_c, 13, 53, 84
15, 151551, Note_on_c, 13, 57, 0
15, 151551, Note_on_c, 13, 53, 0
15, 151560, Note_on_c, 13, 53, 84
15, 151560, Note_on_c, 13, 57, 84
15, 151611, Note_on_c, 13, 53, 0
15, 151611, Note_on_c, 13, 57, 0
15, 151620, Note_on_c, 13, 57, 84
15, 151620, Note_on_c, 13, 53, 84
15, 151671, Note_on_c, 13, 57, 0
15, 151671, Note_on_c, 13, 53, 0
15, 151680, Note_on_c, 13, 57, 84
15, 151680, Note_on_c, 13, 53, 84
15, 151799, Note_on_c, 13, 57, 0
15, 151799, Note_on_c, 13, 53, 0
15, 152160, Note_on_c, 13, 62, 52
15, 152639, Note_on_c, 13, 62, 0
15, 152640, Note_on_c, 13, 65, 52
15, 153119, Note_on_c, 13, 65, 0
15, 153120, Note_on_c, 13, 65, 52
15, 153599, Note_on_c, 13, 65, 0
15, 153600, Note_on_c, 13, 65, 52
15, 154064, Note_on_c, 13, 65, 0
15, 154080, Note_on_c, 13, 64, 52
15, 154424, Note_on_c, 13, 64, 0
15, 154440, Note_on_c, 13, 64, 52
15, 154544, Note_on_c, 13, 64, 0
15, 154560, Note_on_c, 13, 65, 52
15, 154679, Note_on_c, 13, 65, 0
15, 154800, Note_on_c, 13, 65, 52
15, 154919, Note_on_c, 13, 65, 0
15, 155040, Note_on_c, 13, 65, 52
15, 155159, Note_on_c, 13, 65, 0
15, 155280, Note_on_c, 13, 67, 52
15, 155399, Note_on_c, 13, 67, 0
15, 155520, Note_on_c, 13, 65, 52
15, 155624, Note_on_c, 13, 65, 0
15, 155640, Note_on_c, 13, 53, 52
15, 155759, Note_on_c, 13, 53, 0
15, 155760, Note_on_c, 13, 51, 52
15, 155879, Note_on_c, 13, 51, 0
15, 155880, Note_on_c, 13, 48, 52
15, 155984, Note_on_c, 13, 48, 0
15, 156000, Note_on_c, 13, 50, 52
15, 156119, Note_on_c, 13, 50, 0
15, 156120, Note_on_c, 13, 51, 52
15, 156224, Note_on_c, 13, 51, 0
15, 156240, Note_on_c, 13, 52, 52
15, 156359, Note_on_c, 13, 52, 0
15, 156360, Note_on_c, 13, 53, 52
15, 156584, Note_on_c, 13, 53, 0
15, 156600, Note_on_c, 13, 53, 52
15, 156824, Note_on_c, 13, 53, 0
15, 156840, Note_on_c, 13, 57, 52
15, 157064, Note_on_c, 13, 57, 0
15, 157080, Note_on_c, 13, 58, 52
15, 157304, Note_on_c, 13, 58, 0
15, 157320, Note_on_c, 13, 62, 52
15, 157544, Note_on_c, 13, 62, 0
15, 157560, Note_on_c, 13, 65, 52
15, 157784, Note_on_c, 13, 65, 0
15, 157800, Note_on_c, 13, 69, 52
15, 157904, Note_on_c, 13, 69, 0
15, 157920, Note_on_c, 13, 72, 52
15, 158024, Note_on_c, 13, 72, 0
15, 158040, Note_on_c, 13, 52, 52
15, 158159, Note_on_c, 13, 52, 0
15, 158160, Note_on_c, 13, 53, 52
15, 158279, Note_on_c, 13, 53, 0
15, 158280, Note_on_c, 13, 55, 52
15, 158384, Note_on_c, 13, 55, 0
15, 158400, Note_on_c, 13, 57, 52
15, 158519, Note_on_c, 13, 57, 0
15, 158640, Note_on_c, 13, 48, 52
15, 158640, Note_on_c, 13, 57, 52
15, 158759, Note_on_c, 13, 48, 0
15, 158759, Note_on_c, 13, 57, 0
15, 158880, Note_on_c, 13, 48, 52
15, 158880, Note_on_c, 13, 57, 52
15, 158999, Note_on_c, 13, 48, 0
15, 158999, Note_on_c, 13, 57, 0
15, 159120, Note_on_c, 13, 48, 52
15, 159120, Note_on_c, 13, 58, 52
15, 159239, Note_on_c, 13, 48, 0
15, 159239, Note_on_c, 13, 58, 0
15, 159360, Note_on_c, 13, 53, 52
15, 159411, Note_on_c, 13, 53, 0
15, 159420, Note_on_c, 13, 53, 52
15, 159471, Note_on_c, 13, 53, 0
15, 159480, Note_on_c, 13, 53, 52
15, 159531, Note_on_c, 13, 53, 0
15, 159540, Note_on_c, 13, 53, 52
15, 159591, Note_on_c, 13, 53, 0
15, 159600, Note_on_c, 13, 53, 52
15, 159651, Note_on_c, 13, 53, 0
15, 159660, Note_on_c, 13, 53, 52
15, 159711, Note_on_c, 13, 53, 0
15, 159720, Note_on_c, 13, 53, 52
15, 159771, Note_on_c, 13, 53, 0
15, 159780, Note_on_c, 13, 53, 52
15, 159831, Note_on_c, 13, 53, 0
15, 159840, Note_on_c, 13, 53, 52
15, 159891, Note_on_c, 13, 53, 0
15, 159900, Note_on_c, 13, 53, 52
15, 159951, Note_on_c, 13, 53, 0
15, 159960, Note_on_c, 13, 53, 52
15, 160011, Note_on_c, 13, 53, 0
15, 160020, Note_on_c, 13, 53, 52
15, 160071, Note_on_c, 13, 53, 0
15, 160080, Note_on_c, 13, 53, 52
15, 160131, Note_on_c, 13, 53, 0
15, 160140, Note_on_c, 13, 53, 52
15, 160191, Note_on_c, 13, 53, 0
15, 160200, Note_on_c, 13, 53, 52
15, 160251, Note_on_c, 13, 53, 0
15, 160260, Note_on_c, 13, 53, 52
15, 160311, Note_on_c, 13, 53, 0
15, 160320, Note_on_c, 13, 53, 52
15, 160371, Note_on_c, 13, 53, 0
15, 160380, Note_on_c, 13, 53, 52
15, 160431, Note_on_c, 13, 53, 0
15, 160440, Note_on_c, 13, 53, 52
15, 160491, Note_on_c, 13, 53, 0
15, 160500, Note_on_c, 13, 53, 52
15, 160551, Note_on_c, 13, 53, 0
15, 160560, Note_on_c, 13, 53, 52
15, 160611, Note_on_c, 13, 53, 0
15, 160620, Note_on_c, 13, 53, 52
15, 160671, Note_on_c, 13, 53, 0
15, 160680, Note_on_c, 13, 53, 76
15, 160731, Note_on_c, 13, 53, 0
15, 160740, Note_on_c, 13, 53, 76
15, 160791, Note_on_c, 13, 53, 0
15, 160800, Note_on_c, 13, 53, 76
15, 160851, Note_on_c, 13, 53, 0
15, 160860, Note_on_c, 13, 53, 76
15, 160911, Note_on_c, 13, 53, 0
15, 160920, Note_on_c, 13, 53, 76
15, 160971, Note_on_c, 13, 53, 0
15, 160980, Note_on_c, 13, 53, 76
15, 161031, Note_on_c, 13, 53, 0
15, 161040, Note_on_c, 13, 53, 76
15, 161091, Note_on_c, 13, 53, 0
15, 161100, Note_on_c, 13, 53, 76
15, 161151, Note_on_c, 13, 53, 0
15, 161160, Note_on_c, 13, 53, 76
15, 161211, Note_on_c, 13, 53, 0
15, 161220, Note_on_c, 13, 53, 76
15, 161271, Note_on_c, 13, 53, 0
15, 161280, Note_on_c, 13, 53, 76
15, 161331, Note_on_c, 13, 53, 0
15, 161340, Note_on_c, 13, 53, 76
15, 161391, Note_on_c, 13, 53, 0
15, 161400, Note_on_c, 13, 53, 76
15, 161451, Note_on_c, 13, 53, 0
15, 161460, Note_on_c, 13, 53, 76
15, 161511, Note_on_c, 13, 53, 0
15, 161520, Note_on_c, 13, 53, 52
15, 161571, Note_on_c, 13, 53, 0
15, 161580, Note_on_c, 13, 53, 52
15, 161631, Note_on_c, 13, 53, 0
15, 161640, Note_on_c, 13, 53, 52
15, 161691, Note_on_c, 13, 53, 0
15, 161700, Note_on_c, 13, 53, 52
15, 161751, Note_on_c, 13, 53, 0
15, 161760, Note_on_c, 13, 53, 52
15, 161811, Note_on_c, 13, 53, 0
15, 161820, Note_on_c, 13, 53, 52
15, 161871, Note_on_c, 13, 53, 0
15, 161880, Note_on_c, 13, 53, 52
15, 161931, Note_on_c, 13, 53, 0
15, 161940, Note_on_c, 13, 53, 52
15, 161991, Note_on_c, 13, 53, 0
15, 162000, Note_on_c, 13, 53, 52
15, 162051, Note_on_c, 13, 53, 0
15, 162060, Note_on_c, 13, 53, 52
15, 162111, Note_on_c, 13, 53, 0
15, 162120, Note_on_c, 13, 53, 52
15, 162171, Note_on_c, 13, 53, 0
15, 162180, Note_on_c, 13, 53, 52
15, 162231, Note_on_c, 13, 53, 0
15, 162240, Note_on_c, 13, 53, 52
15, 162291, Note_on_c, 13, 53, 0
15, 162300, Note_on_c, 13, 53, 52
15, 162351, Note_on_c, 13, 53, 0
15, 162360, Note_on_c, 13, 53, 52
15, 162411, Note_on_c, 13, 53, 0
15, 162420, Note_on_c, 13, 53, 52
15, 162471, Note_on_c, 13, 53, 0
15, 162480, Note_on_c, 13, 53, 52
15, 162531, Note_on_c, 13, 53, 0
15, 162540, Note_on_c, 13, 53, 52
15, 162591, Note_on_c, 13, 53, 0
15, 162600, Note_on_c, 13, 53, 76
15, 162651, Note_on_c, 13, 53, 0
15, 162660, Note_on_c, 13, 53, 76
15, 162711, Note_on_c, 13, 53, 0
15, 162720, Note_on_c, 13, 53, 76
15, 162771, Note_on_c, 13, 53, 0
15, 162780, Note_on_c, 13, 53, 76
15, 162831, Note_on_c, 13, 53, 0
15, 162840, Note_on_c, 13, 53, 76
15, 162891, Note_on_c, 13, 53, 0
15, 162900, Note_on_c, 13, 53, 76
15, 162951, Note_on_c, 13, 53, 0
15, 162960, Note_on_c, 13, 53, 76
15, 163011, Note_on_c, 13, 53, 0
15, 163020, Note_on_c, 13, 53, 76
15, 163071, Note_on_c, 13, 53, 0
15, 163080, Note_on_c, 13, 53, 76
15, 163131, Note_on_c, 13, 53, 0
15, 163140, Note_on_c, 13, 53, 76
15, 163191, Note_on_c, 13, 53, 0
15, 163200, Note_on_c, 13, 53, 76
15, 163251, Note_on_c, 13, 53, 0
15, 163260, Note_on_c, 13, 53, 76
15, 163311, Note_on_c, 13, 53, 0
15, 163320, Note_on_c, 13, 53, 76
15, 163371, Note_on_c, 13, 53, 0
15, 163380, Note_on_c, 13, 53, 76
15, 163431, Note_on_c, 13, 53, 0
15, 163440, Note_on_c, 13, 53, 76
15, 163491, Note_on_c, 13, 53, 0
15, 163500, Note_on_c, 13, 53, 76
15, 163551, Note_on_c, 13, 53, 0
15, 163560, Note_on_c, 13, 53, 76
15, 163611, Note_on_c, 13, 53, 0
15, 163620, Note_on_c, 13, 53, 76
15, 163671, Note_on_c, 13, 53, 0
15, 163680, Note_on_c, 13, 53, 76
15, 163731, Note_on_c, 13, 53, 0
15, 163740, Note_on_c, 13, 53, 76
15, 163791, Note_on_c, 13, 53, 0
15, 163800, Note_on_c, 13, 53, 76
15, 163851, Note_on_c, 13, 53, 0
15, 163860, Note_on_c, 13, 53, 76
15, 163911, Note_on_c, 13, 53, 0
15, 163920, Note_on_c, 13, 53, 76
15, 163971, Note_on_c, 13, 53, 0
15, 163980, Note_on_c, 13, 53, 76
15, 164031, Note_on_c, 13, 53, 0
15, 164040, Note_on_c, 13, 53, 76
15, 164091, Note_on_c, 13, 53, 0
15, 164100, Note_on_c, 13, 53, 76
15, 164151, Note_on_c, 13, 53, 0
15, 164160, Note_on_c, 13, 53, 76
15, 164211, Note_on_c, 13, 53, 0
15, 164220, Note_on_c, 13, 53, 76
15, 164271, Note_on_c, 13, 53, 0
15, 164280, Note_on_c, 13, 53, 76
15, 164331, Note_on_c, 13, 53, 0
15, 164340, Note_on_c, 13, 53, 76
15, 164391, Note_on_c, 13, 53, 0
15, 164400, Note_on_c, 13, 53, 76
15, 164451, Note_on_c, 13, 53, 0
15, 164460, Note_on_c, 13, 53, 76
15, 164511, Note_on_c, 13, 53, 0
15, 164520, Note_on_c, 13, 53, 76
15, 164571, Note_on_c, 13, 53, 0
15, 164580, Note_on_c, 13, 53, 76
15, 164631, Note_on_c, 13, 53, 0
15, 164640, Note_on_c, 13, 53, 76
15, 164691, Note_on_c, 13, 53, 0
15, 164700, Note_on_c, 13, 53, 76
15, 164751, Note_on_c, 13, 53, 0
15, 164760, Note_on_c, 13, 53, 76
15, 164811, Note_on_c, 13, 53, 0
15, 164820, Note_on_c, 13, 53, 76
15, 164871, Note_on_c, 13, 53, 0
15, 164880, Note_on_c, 13, 53, 76
15, 164931, Note_on_c, 13, 53, 0
15, 164940, Note_on_c, 13, 53, 76
15, 164991, Note_on_c, 13, 53, 0
15, 165000, Note_on_c, 13, 53, 76
15, 165051, Note_on_c, 13, 53, 0
15, 165060, Note_on_c, 13, 53, 76
15, 165111, Note_on_c, 13, 53, 0
15, 165120, Note_on_c, 13, 58, 84
15, 165120, Note_on_c, 13, 61, 84
15, 165171, Note_on_c, 13, 58, 0
15, 165171, Note_on_c, 13, 61, 0
15, 165180, Note_on_c, 13, 61, 84
15, 165180, Note_on_c, 13, 58, 84
15, 165231, Note_on_c, 13, 61, 0
15, 165231, Note_on_c, 13, 58, 0
15, 165240, Note_on_c, 13, 61, 84
15, 165240, Note_on_c, 13, 58, 84
15, 165291, Note_on_c, 13, 61, 0
15, 165291, Note_on_c, 13, 58, 0
15, 165300, Note_on_c, 13, 61, 84
15, 165300, Note_on_c, 13, 58, 84
15, 165351, Note_on_c, 13, 61, 0
15, 165351, Note_on_c, 13, 58, 0
15, 165360, Note_on_c, 13, 61, 84
15, 165360, Note_on_c, 13, 58, 84
15, 165411, Note_on_c, 13, 61, 0
15, 165411, Note_on_c, 13, 58, 0
15, 165420, Note_on_c, 13, 58, 84
15, 165420, Note_on_c, 13, 61, 84
15, 165471, Note_on_c, 13, 58, 0
15, 165471, Note_on_c, 13, 61, 0
15, 165480, Note_on_c, 13, 61, 84
15, 165480, Note_on_c, 13, 58, 84
15, 165531, Note_on_c, 13, 61, 0
15, 165531, Note_on_c, 13, 58, 0
15, 165540, Note_on_c, 13, 61, 84
15, 165540, Note_on_c, 13, 58, 84
15, 165591, Note_on_c, 13, 61, 0
15, 165591, Note_on_c, 13, 58, 0
15, 165600, Note_on_c, 13, 61, 84
15, 165600, Note_on_c, 13, 58, 84
15, 165651, Note_on_c, 13, 61, 0
15, 165651, Note_on_c, 13, 58, 0
15, 165660, Note_on_c, 13, 58, 84
15, 165660, Note_on_c, 13, 61, 84
15, 165711, Note_on_c, 13, 58, 0
15, 165711, Note_on_c, 13, 61, 0
15, 165720, Note_on_c, 13, 58, 84
15, 165720, Note_on_c, 13, 61, 84
15, 165771, Note_on_c, 13, 58, 0
15, 165771, Note_on_c, 13, 61, 0
15, 165780, Note_on_c, 13, 58, 84
15, 165780, Note_on_c, 13, 61, 84
15, 165831, Note_on_c, 13, 58, 0
15, 165831, Note_on_c, 13, 61, 0
15, 165840, Note_on_c, 13, 58, 84
15, 165840, Note_on_c, 13, 61, 84
15, 165891, Note_on_c, 13, 58, 0
15, 165891, Note_on_c, 13, 61, 0
15, 165900, Note_on_c, 13, 58, 84
15, 165900, Note_on_c, 13, 61, 84
15, 165951, Note_on_c, 13, 58, 0
15, 165951, Note_on_c, 13, 61, 0
15, 165960, Note_on_c, 13, 58, 84
15, 165960, Note_on_c, 13, 61, 84
15, 166011, Note_on_c, 13, 58, 0
15, 166011, Note_on_c, 13, 61, 0
15, 166020, Note_on_c, 13, 61, 84
15, 166020, Note_on_c, 13, 58, 84
15, 166071, Note_on_c, 13, 61, 0
15, 166071, Note_on_c, 13, 58, 0
15, 166080, Note_on_c, 13, 61, 92
15, 166080, Note_on_c, 13, 58, 92
15, 166529, Note_on_c, 13, 61, 0
15, 166529, Note_on_c, 13, 58, 0
15, 166560, Note_on_c, 13, 58, 92
15, 166560, Note_on_c, 13, 61, 92
15, 167009, Note_on_c, 13, 58, 0
15, 167009, Note_on_c, 13, 61, 0
15, 167040, Note_on_c, 13, 61, 92
15, 167040, Note_on_c, 13, 58, 92
15, 167489, Note_on_c, 13, 61, 0
15, 167489, Note_on_c, 13, 58, 0
15, 167520, Note_on_c, 13, 61, 92
15, 167520, Note_on_c, 13, 58, 92
15, 167969, Note_on_c, 13, 61, 0
15, 167969, Note_on_c, 13, 58, 0
15, 168000, Note_on_c, 13, 60, 52
15, 168051, Note_on_c, 13, 60, 0
15, 168060, Note_on_c, 13, 60, 52
15, 168111, Note_on_c, 13, 60, 0
15, 168120, Note_on_c, 13, 63, 52
15, 168171, Note_on_c, 13, 63, 0
15, 168180, Note_on_c, 13, 63, 52
15, 168231, Note_on_c, 13, 63, 0
15, 168240, Note_on_c, 13, 60, 52
15, 168291, Note_on_c, 13, 60, 0
15, 168300, Note_on_c, 13, 60, 52
15, 168351, Note_on_c, 13, 60, 0
15, 168360, Note_on_c, 13, 63, 52
15, 168411, Note_on_c, 13, 63, 0
15, 168420, Note_on_c, 13, 63, 52
15, 168471, Note_on_c, 13, 63, 0
15, 168480, Note_on_c, 13, 60, 52
15, 168531, Note_on_c, 13, 60, 0
15, 168540, Note_on_c, 13, 60, 52
15, 168591, Note_on_c, 13, 60, 0
15, 168600, Note_on_c, 13, 63, 52
15, 168651, Note_on_c, 13, 63, 0
15, 168660, Note_on_c, 13, 63, 52
15, 168711, Note_on_c, 13, 63, 0
15, 168720, Note_on_c, 13, 58, 52
15, 168771, Note_on_c, 13, 58, 0
15, 168780, Note_on_c, 13, 58, 52
15, 168831, Note_on_c, 13, 58, 0
15, 168840, Note_on_c, 13, 62, 52
15, 168891, Note_on_c, 13, 62, 0
15, 168900, Note_on_c, 13, 62, 52
15, 168951, Note_on_c, 13, 62, 0
15, 168960, Note_on_c, 13, 58, 52
15, 169011, Note_on_c, 13, 58, 0
15, 169020, Note_on_c, 13, 58, 52
15, 169071, Note_on_c, 13, 58, 0
15, 169080, Note_on_c, 13, 63, 52
15, 169131, Note_on_c, 13, 63, 0
15, 169140, Note_on_c, 13, 63, 52
15, 169191, Note_on_c, 13, 63, 0
15, 169200, Note_on_c, 13, 58, 52
15, 169251, Note_on_c, 13, 58, 0
15, 169260, Note_on_c, 13, 58, 52
15, 169311, Note_on_c, 13, 58, 0
15, 169320, Note_on_c, 13, 60, 52
15, 169371, Note_on_c, 13, 60, 0
15, 169380, Note_on_c, 13, 60, 52
15, 169431, Note_on_c, 13, 60, 0
15, 169440, Note_on_c, 13, 58, 52
15, 169491, Note_on_c, 13, 58, 0
15, 169500, Note_on_c, 13, 58, 52
15, 169551, Note_on_c, 13, 58, 0
15, 169560, Note_on_c, 13, 62, 52
15, 169611, Note_on_c, 13, 62, 0
15, 169620, Note_on_c, 13, 62, 52
15, 169671, Note_on_c, 13, 62, 0
15, 169680, Note_on_c, 13, 60, 52
15, 169731, Note_on_c, 13, 60, 0
15, 169740, Note_on_c, 13, 60, 52
15, 169791, Note_on_c, 13, 60, 0
15, 169800, Note_on_c, 13, 63, 52
15, 169851, Note_on_c, 13, 63, 0
15, 169860, Note_on_c, 13, 63, 52
15, 169911, Note_on_c, 13, 63, 0
15, 169920, Note_on_c, 13, 61, 84
15, 169920, Note_on_c, 13, 58, 84
15, 170369, Note_on_c, 13, 61, 0
15, 170369, Note_on_c, 13, 58, 0
15, 170400, Note_on_c, 13, 61, 92
15, 170400, Note_on_c, 13, 58, 92
15, 170849, Note_on_c, 13, 61, 0
15, 170849, Note_on_c, 13, 58, 0
15, 170880, Note_on_c, 13, 58, 92
15, 170880, Note_on_c, 13, 61, 92
15, 171329, Note_on_c, 13, 58, 0
15, 171329, Note_on_c, 13, 61, 0
15, 171360, Note_on_c, 13, 61, 92
15, 171360, Note_on_c, 13, 58, 92
15, 171809, Note_on_c, 13, 61, 0
15, 171809, Note_on_c, 13, 58, 0
15, 171840, Note_on_c, 13, 62, 52
15, 171891, Note_on_c, 13, 62, 0
15, 171900, Note_on_c, 13, 62, 52
15, 171951, Note_on_c, 13, 62, 0
15, 171960, Note_on_c, 13, 65, 52
15, 172011, Note_on_c, 13, 65, 0
15, 172020, Note_on_c, 13, 65, 52
15, 172071, Note_on_c, 13, 65, 0
15, 172080, Note_on_c, 13, 62, 52
15, 172131, Note_on_c, 13, 62, 0
15, 172140, Note_on_c, 13, 62, 52
15, 172191, Note_on_c, 13, 62, 0
15, 172200, Note_on_c, 13, 65, 52
15, 172251, Note_on_c, 13, 65, 0
15, 172260, Note_on_c, 13, 65, 52
15, 172311, Note_on_c, 13, 65, 0
15, 172320, Note_on_c, 13, 62, 52
15, 172371, Note_on_c, 13, 62, 0
15, 172380, Note_on_c, 13, 62, 52
15, 172431, Note_on_c, 13, 62, 0
15, 172440, Note_on_c, 13, 65, 52
15, 172491, Note_on_c, 13, 65, 0
15, 172500, Note_on_c, 13, 65, 52
15, 172551, Note_on_c, 13, 65, 0
15, 172560, Note_on_c, 13, 60, 52
15, 172611, Note_on_c, 13, 60, 0
15, 172620, Note_on_c, 13, 60, 52
15, 172671, Note_on_c, 13, 60, 0
15, 172680, Note_on_c, 13, 63, 52
15, 172731, Note_on_c, 13, 63, 0
15, 172740, Note_on_c, 13, 63, 52
15, 172791, Note_on_c, 13, 63, 0
15, 172800, Note_on_c, 13, 60, 52
15, 172851, Note_on_c, 13, 60, 0
15, 172860, Note_on_c, 13, 60, 52
15, 172911, Note_on_c, 13, 60, 0
15, 172920, Note_on_c, 13, 65, 52
15, 172971, Note_on_c, 13, 65, 0
15, 172980, Note_on_c, 13, 65, 52
15, 173031, Note_on_c, 13, 65, 0
15, 173040, Note_on_c, 13, 60, 52
15, 173091, Note_on_c, 13, 60, 0
15, 173100, Note_on_c, 13, 60, 52
15, 173151, Note_on_c, 13, 60, 0
15, 173160, Note_on_c, 13, 65, 52
15, 173211, Note_on_c, 13, 65, 0
15, 173220, Note_on_c, 13, 65, 52
15, 173271, Note_on_c, 13, 65, 0
15, 173280, Note_on_c, 13, 60, 52
15, 173331, Note_on_c, 13, 60, 0
15, 173340, Note_on_c, 13, 60, 52
15, 173391, Note_on_c, 13, 60, 0
15, 173400, Note_on_c, 13, 65, 52
15, 173451, Note_on_c, 13, 65, 0
15, 173460, Note_on_c, 13, 65, 52
15, 173511, Note_on_c, 13, 65, 0
15, 173520, Note_on_c, 13, 60, 52
15, 173571, Note_on_c, 13, 60, 0
15, 173580, Note_on_c, 13, 60, 52
15, 173631, Note_on_c, 13, 60, 0
15, 173640, Note_on_c, 13, 65, 52
15, 173691, Note_on_c, 13, 65, 0
15, 173700, Note_on_c, 13, 65, 52
15, 173751, Note_on_c, 13, 65, 0
15, 173760, Note_on_c, 13, 62, 52
15, 173811, Note_on_c, 13, 62, 0
15, 173820, Note_on_c, 13, 62, 52
15, 173871, Note_on_c, 13, 62, 0
15, 173880, Note_on_c, 13, 65, 52
15, 173931, Note_on_c, 13, 65, 0
15, 173940, Note_on_c, 13, 65, 53
15, 173991, Note_on_c, 13, 65, 0
15, 174000, Note_on_c, 13, 62, 54
15, 174051, Note_on_c, 13, 62, 0
15, 174060, Note_on_c, 13, 62, 55
15, 174111, Note_on_c, 13, 62, 0
15, 174120, Note_on_c, 13, 67, 56
15, 174171, Note_on_c, 13, 67, 0
15, 174180, Note_on_c, 13, 67, 57
15, 174231, Note_on_c, 13, 67, 0
15, 174240, Note_on_c, 13, 60, 58
15, 174291, Note_on_c, 13, 60, 0
15, 174300, Note_on_c, 13, 60, 59
15, 174351, Note_on_c, 13, 60, 0
15, 174360, Note_on_c, 13, 67, 60
15, 174411, Note_on_c, 13, 67, 0
15, 174420, Note_on_c, 13, 67, 61
15, 174471, Note_on_c, 13, 67, 0
15, 174480, Note_on_c, 13, 60, 62
15, 174531, Note_on_c, 13, 60, 0
15, 174540, Note_on_c, 13, 60, 63
15, 174591, Note_on_c, 13, 60, 0
15, 174600, Note_on_c, 13, 63, 64
15, 174651, Note_on_c, 13, 63, 0
15, 174660, Note_on_c, 13, 63, 65
15, 174711, Note_on_c, 13, 63, 0
15, 174720, Note_on_c, 13, 62, 66
15, 174771, Note_on_c, 13, 62, 0
15, 174780, Note_on_c, 13, 62, 68
15, 174831, Note_on_c, 13, 62, 0
15, 174840, Note_on_c, 13, 65, 69
15, 174891, Note_on_c, 13, 65, 0
15, 174900, Note_on_c, 13, 65, 70
15, 174951, Note_on_c, 13, 65, 0
15, 174960, Note_on_c, 13, 62, 71
15, 175011, Note_on_c, 13, 62, 0
15, 175020, Note_on_c, 13, 62, 72
15, 175071, Note_on_c, 13, 62, 0
15, 175080, Note_on_c, 13, 67, 73
15, 175131, Note_on_c, 13, 67, 0
15, 175140, Note_on_c, 13, 67, 74
15, 175191, Note_on_c, 13, 67, 0
15, 175200, Note_on_c, 13, 60, 75
15, 175251, Note_on_c, 13, 60, 0
15, 175260, Note_on_c, 13, 60, 76
15, 175311, Note_on_c, 13, 60, 0
15, 175320, Note_on_c, 13, 67, 77
15, 175371, Note_on_c, 13, 67, 0
15, 175380, Note_on_c, 13, 67, 78
15, 175431, Note_on_c, 13, 67, 0
15, 175440, Note_on_c, 13, 60, 79
15, 175491, Note_on_c, 13, 60, 0
15, 175500, Note_on_c, 13, 60, 80
15, 175551, Note_on_c, 13, 60, 0
15, 175560, Note_on_c, 13, 63, 81
15, 175611, Note_on_c, 13, 63, 0
15, 175620, Note_on_c, 13, 63, 82
15, 175671, Note_on_c, 13, 63, 0
15, 175680, Note_on_c, 13, 62, 84
15, 175731, Note_on_c, 13, 62, 0
15, 175740, Note_on_c, 13, 62, 84
15, 175791, Note_on_c, 13, 62, 0
15, 175800, Note_on_c, 13, 65, 84
15, 175851, Note_on_c, 13, 65, 0
15, 175860, Note_on_c, 13, 65, 84
15, 175911, Note_on_c, 13, 65, 0
15, 175920, Note_on_c, 13, 62, 84
15, 175971, Note_on_c, 13, 62, 0
15, 175980, Note_on_c, 13, 62, 84
15, 176031, Note_on_c, 13, 62, 0
15, 176040, Note_on_c, 13, 67, 84
15, 176091, Note_on_c, 13, 67, 0
15, 176100, Note_on_c, 13, 67, 84
15, 176151, Note_on_c, 13, 67, 0
15, 176160, Note_on_c, 13, 58, 84
15, 176211, Note_on_c, 13, 58, 0
15, 176220, Note_on_c, 13, 58, 84
15, 176271, Note_on_c, 13, 58, 0
15, 176280, Note_on_c, 13, 60, 84
15, 176331, Note_on_c, 13, 60, 0
15, 176340, Note_on_c, 13, 60, 84
15, 176391, Note_on_c, 13, 60, 0
15, 176400, Note_on_c, 13, 57, 84
15, 176451, Note_on_c, 13, 57, 0
15, 176460, Note_on_c, 13, 57, 84
15, 176511, Note_on_c, 13, 57, 0
15, 176520, Note_on_c, 13, 60, 84
15, 176571, Note_on_c, 13, 60, 0
15, 176580, Note_on_c, 13, 60, 84
15, 176631, Note_on_c, 13, 60, 0
15, 176640, Note_on_c, 13, 58, 84
15, 176691, Note_on_c, 13, 58, 0
15, 176700, Note_on_c, 13, 57, 84
15, 176751, Note_on_c, 13, 57, 0
15, 176760, Note_on_c, 13, 58, 84
15, 176811, Note_on_c, 13, 58, 0
15, 176820, Note_on_c, 13, 62, 84
15, 176871, Note_on_c, 13, 62, 0
15, 176880, Note_on_c, 13, 55, 84
15, 176931, Note_on_c, 13, 55, 0
15, 176940, Note_on_c, 13, 57, 84
15, 176991, Note_on_c, 13, 57, 0
15, 177000, Note_on_c, 13, 58, 84
15, 177051, Note_on_c, 13, 58, 0
15, 177060, Note_on_c, 13, 60, 84
15, 177111, Note_on_c, 13, 60, 0
15, 177120, Note_on_c, 13, 53, 84
15, 177171, Note_on_c, 13, 53, 0
15, 177180, Note_on_c, 13, 55, 84
15, 177231, Note_on_c, 13, 55, 0
15, 177240, Note_on_c, 13, 57, 84
15, 177291, Note_on_c, 13, 57, 0
15, 177300, Note_on_c, 13, 58, 84
15, 177351, Note_on_c, 13, 58, 0
15, 177360, Note_on_c, 13, 51, 84
15, 177411, Note_on_c, 13, 51, 0
15, 177420, Note_on_c, 13, 53, 84
15, 177471, Note_on_c, 13, 53, 0
15, 177480, Note_on_c, 13, 55, 84
15, 177531, Note_on_c, 13, 55, 0
15, 177540, Note_on_c, 13, 57, 84
15, 177591, Note_on_c, 13, 57, 0
15, 177600, Note_on_c, 13, 65, 84
15, 177944, Note_on_c, 13, 65, 0
15, 177960, Note_on_c, 13, 63, 84
15, 178064, Note_on_c, 13, 63, 0
15, 178080, Note_on_c, 13, 62, 84
15, 178184, Note_on_c, 13, 62, 0
15, 178200, Note_on_c, 13, 62, 84
15, 178304, Note_on_c, 13, 62, 0
15, 178320, Note_on_c, 13, 60, 84
15, 178349, Note_on_c, 13, 60, 0
15, 178350, Note_on_c, 13, 62, 84
15, 178379, Note_on_c, 13, 62, 0
15, 178380, Note_on_c, 13, 60, 84
15, 178409, Note_on_c, 13, 60, 0
15, 178410, Note_on_c, 13, 62, 84
15, 178439, Note_on_c, 13, 62, 0
15, 178440, Note_on_c, 13, 60, 84
15, 178469, Note_on_c, 13, 60, 0
15, 178470, Note_on_c, 13, 62, 84
15, 178499, Note_on_c, 13, 62, 0
15, 178500, Note_on_c, 13, 58, 84
15, 178529, Note_on_c, 13, 58, 0
15, 178530, Note_on_c, 13, 60, 84
15, 178559, Note_on_c, 13, 60, 0
15, 178560, Note_on_c, 13, 58, 84
15, 178611, Note_on_c, 13, 58, 0
15, 178620, Note_on_c, 13, 57, 84
15, 178671, Note_on_c, 13, 57, 0
15, 178680, Note_on_c, 13, 58, 84
15, 178731, Note_on_c, 13, 58, 0
15, 178740, Note_on_c, 13, 62, 84
15, 178791, Note_on_c, 13, 62, 0
15, 178800, Note_on_c, 13, 55, 84
15, 178851, Note_on_c, 13, 55, 0
15, 178860, Note_on_c, 13, 57, 84
15, 178911, Note_on_c, 13, 57, 0
15, 178920, Note_on_c, 13, 58, 84
15, 178971, Note_on_c, 13, 58, 0
15, 178980, Note_on_c, 13, 60, 84
15, 179031, Note_on_c, 13, 60, 0
15, 179040, Note_on_c, 13, 53, 84
15, 179091, Note_on_c, 13, 53, 0
15, 179100, Note_on_c, 13, 55, 84
15, 179151, Note_on_c, 13, 55, 0
15, 179160, Note_on_c, 13, 57, 84
15, 179211, Note_on_c, 13, 57, 0
15, 179220, Note_on_c, 13, 58, 84
15, 179271, Note_on_c, 13, 58, 0
15, 179280, Note_on_c, 13, 51, 84
15, 179331, Note_on_c, 13, 51, 0
15, 179340, Note_on_c, 13, 53, 84
15, 179391, Note_on_c, 13, 53, 0
15, 179400, Note_on_c, 13, 55, 84
15, 179451, Note_on_c, 13, 55, 0
15, 179460, Note_on_c, 13, 57, 84
15, 179511, Note_on_c, 13, 57, 0
15, 179520, Note_on_c, 13, 50, 84
15, 179624, Note_on_c, 13, 50, 0
15, 179640, Note_on_c, 13, 65, 84
15, 179864, Note_on_c, 13, 65, 0
15, 179880, Note_on_c, 13, 63, 84
15, 179984, Note_on_c, 13, 63, 0
15, 180000, Note_on_c, 13, 62, 84
15, 180104, Note_on_c, 13, 62, 0
15, 180120, Note_on_c, 13, 62, 84
15, 180224, Note_on_c, 13, 62, 0
15, 180240, Note_on_c, 13, 60, 84
15, 180269, Note_on_c, 13, 60, 0
15, 180270, Note_on_c, 13, 62, 84
15, 180299, Note_on_c, 13, 62, 0
15, 180300, Note_on_c, 13, 60, 84
15, 180329, Note_on_c, 13, 60, 0
15, 180330, Note_on_c, 13, 62, 84
15, 180359, Note_on_c, 13, 62, 0
15, 180360, Note_on_c, 13, 60, 84
15, 180389, Note_on_c, 13, 60, 0
15, 180390, Note_on_c, 13, 62, 84
15, 180419, Note_on_c, 13, 62, 0
15, 180420, Note_on_c, 13, 58, 84
15, 180449, Note_on_c, 13, 58, 0
15, 180450, Note_on_c, 13, 60, 84
15, 180479, Note_on_c, 13, 60, 0
15, 180480, Note_on_c, 13, 58, 84
15, 180531, Note_on_c, 13, 58, 0
15, 180540, Note_on_c, 13, 57, 84
15, 180591, Note_on_c, 13, 57, 0
15, 180600, Note_on_c, 13, 58, 84
15, 180651, Note_on_c, 13, 58, 0
15, 180660, Note_on_c, 13, 62, 84
15, 180711, Note_on_c, 13, 62, 0
15, 180720, Note_on_c, 13, 53, 84
15, 180771, Note_on_c, 13, 53, 0
15, 180780, Note_on_c, 13, 55, 84
15, 180831, Note_on_c, 13, 55, 0
15, 180840, Note_on_c, 13, 56, 84
15, 180891, Note_on_c, 13, 56, 0
15, 180900, Note_on_c, 13, 57, 84
15, 180951, Note_on_c, 13, 57, 0
15, 180960, Note_on_c, 13, 58, 84
15, 181011, Note_on_c, 13, 58, 0
15, 181020, Note_on_c, 13, 57, 84
15, 181071, Note_on_c, 13, 57, 0
15, 181080, Note_on_c, 13, 58, 84
15, 181131, Note_on_c, 13, 58, 0
15, 181140, Note_on_c, 13, 62, 84
15, 181191, Note_on_c, 13, 62, 0
15, 181200, Note_on_c, 13, 53, 84
15, 181251, Note_on_c, 13, 53, 0
15, 181260, Note_on_c, 13, 55, 84
15, 181311, Note_on_c, 13, 55, 0
15, 181320, Note_on_c, 13, 56, 84
15, 181371, Note_on_c, 13, 56, 0
15, 181380, Note_on_c, 13, 57, 84
15, 181431, Note_on_c, 13, 57, 0
15, 181440, Note_on_c, 13, 58, 84
15, 181491, Note_on_c, 13, 58, 0
15, 181500, Note_on_c, 13, 57, 84
15, 181551, Note_on_c, 13, 57, 0
15, 181560, Note_on_c, 13, 58, 84
15, 181611, Note_on_c, 13, 58, 0
15, 181620, Note_on_c, 13, 62, 84
15, 181671, Note_on_c, 13, 62, 0
15, 181680, Note_on_c, 13, 53, 84
15, 181731, Note_on_c, 13, 53, 0
15, 181740, Note_on_c, 13, 55, 84
15, 181791, Note_on_c, 13, 55, 0
15, 181800, Note_on_c, 13, 56, 84
15, 181851, Note_on_c, 13, 56, 0
15, 181860, Note_on_c, 13, 57, 84
15, 181911, Note_on_c, 13, 57, 0
15, 181920, Note_on_c, 13, 58, 84
15, 181971, Note_on_c, 13, 58, 0
15, 181980, Note_on_c, 13, 57, 84
15, 182031, Note_on_c, 13, 57, 0
15, 182040, Note_on_c, 13, 58, 84
15, 182091, Note_on_c, 13, 58, 0
15, 182100, Note_on_c, 13, 62, 84
15, 182151, Note_on_c, 13, 62, 0
15, 182160, Note_on_c, 13, 53, 84
15, 182211, Note_on_c, 13, 53, 0
15, 182220, Note_on_c, 13, 55, 84
15, 182271, Note_on_c, 13, 55, 0
15, 182280, Note_on_c, 13, 56, 84
15, 182331, Note_on_c, 13, 56, 0
15, 182340, Note_on_c, 13, 57, 84
15, 182391, Note_on_c, 13, 57, 0
15, 182400, Note_on_c, 13, 58, 52
15, 182504, Note_on_c, 13, 58, 0
15, 182520, Note_on_c, 13, 62, 52
15, 182639, Note_on_c, 13, 62, 0
15, 182760, Note_on_c, 13, 62, 52
15, 182864, Note_on_c, 13, 62, 0
15, 182880, Note_on_c, 13, 62, 52
15, 182984, Note_on_c, 13, 62, 0
15, 183000, Note_on_c, 13, 62, 52
15, 183119, Note_on_c, 13, 62, 0
15, 183240, Note_on_c, 13, 62, 52
15, 183344, Note_on_c, 13, 62, 0
15, 183360, Note_on_c, 13, 62, 52
15, 183464, Note_on_c, 13, 62, 0
15, 183480, Note_on_c, 13, 62, 52
15, 183599, Note_on_c, 13, 62, 0
15, 183720, Note_on_c, 13, 62, 52
15, 183824, Note_on_c, 13, 62, 0
15, 183840, Note_on_c, 13, 62, 52
15, 183944, Note_on_c, 13, 62, 0
15, 183960, Note_on_c, 13, 62, 52
15, 184064, Note_on_c, 13, 62, 0
15, 184080, Note_on_c, 13, 65, 52
15, 184184, Note_on_c, 13, 65, 0
15, 184200, Note_on_c, 13, 65, 52
15, 184304, Note_on_c, 13, 65, 0
15, 184320, Note_on_c, 13, 63, 52
15, 184424, Note_on_c, 13, 63, 0
15, 184440, Note_on_c, 13, 63, 52
15, 184559, Note_on_c, 13, 63, 0
15, 184680, Note_on_c, 13, 63, 54
15, 184784, Note_on_c, 13, 63, 0
15, 184800, Note_on_c, 13, 63, 55
15, 184904, Note_on_c, 13, 63, 0
15, 184920, Note_on_c, 13, 63, 55
15, 185039, Note_on_c, 13, 63, 0
15, 185160, Note_on_c, 13, 63, 57
15, 185264, Note_on_c, 13, 63, 0
15, 185280, Note_on_c, 13, 63, 58
15, 185384, Note_on_c, 13, 63, 0
15, 185400, Note_on_c, 13, 63, 58
15, 185519, Note_on_c, 13, 63, 0
15, 185640, Note_on_c, 13, 63, 60
15, 185744, Note_on_c, 13, 63, 0
15, 185760, Note_on_c, 13, 63, 61
15, 185864, Note_on_c, 13, 63, 0
15, 185880, Note_on_c, 13, 63, 61
15, 185984, Note_on_c, 13, 63, 0
15, 186000, Note_on_c, 13, 66, 62
15, 186104, Note_on_c, 13, 66, 0
15, 186120, Note_on_c, 13, 66, 63
15, 186224, Note_on_c, 13, 66, 0
15, 186240, Note_on_c, 13, 65, 64
15, 186344, Note_on_c, 13, 65, 0
15, 186360, Note_on_c, 13, 65, 64
15, 186479, Note_on_c, 13, 65, 0
15, 186600, Note_on_c, 13, 65, 66
15, 186704, Note_on_c, 13, 65, 0
15, 186720, Note_on_c, 13, 65, 67
15, 186824, Note_on_c, 13, 65, 0
15, 186840, Note_on_c, 13, 65, 67
15, 186944, Note_on_c, 13, 65, 0
15, 186960, Note_on_c, 13, 68, 68
15, 187064, Note_on_c, 13, 68, 0
15, 187080, Note_on_c, 13, 68, 69
15, 187184, Note_on_c, 13, 68, 0
15, 187200, Note_on_c, 13, 66, 70
15, 187304, Note_on_c, 13, 66, 0
15, 187320, Note_on_c, 13, 66, 70
15, 187439, Note_on_c, 13, 66, 0
15, 187560, Note_on_c, 13, 66, 72
15, 187664, Note_on_c, 13, 66, 0
15, 187680, Note_on_c, 13, 66, 73
15, 187784, Note_on_c, 13, 66, 0
15, 187800, Note_on_c, 13, 66, 73
15, 187904, Note_on_c, 13, 66, 0
15, 187920, Note_on_c, 13, 70, 74
15, 188024, Note_on_c, 13, 70, 0
15, 188040, Note_on_c, 13, 70, 75
15, 188144, Note_on_c, 13, 70, 0
15, 188160, Note_on_c, 13, 65, 76
15, 188160, Note_on_c, 13, 69, 76
15, 188264, Note_on_c, 13, 65, 0
15, 188264, Note_on_c, 13, 69, 0
15, 188280, Note_on_c, 13, 65, 76
15, 188280, Note_on_c, 13, 69, 76
15, 188399, Note_on_c, 13, 65, 0
15, 188399, Note_on_c, 13, 69, 0
15, 188640, Note_on_c, 13, 65, 84
15, 188640, Note_on_c, 13, 69, 84
15, 188744, Note_on_c, 13, 65, 0
15, 188744, Note_on_c, 13, 69, 0
15, 188760, Note_on_c, 13, 69, 76
15, 188760, Note_on_c, 13, 65, 76
15, 188879, Note_on_c, 13, 69, 0
15, 188879, Note_on_c, 13, 65, 0
15, 189120, Note_on_c, 13, 65, 84
15, 189120, Note_on_c, 13, 69, 84
15, 189224, Note_on_c, 13, 65, 0
15, 189224, Note_on_c, 13, 69, 0
15, 189240, Note_on_c, 13, 69, 76
15, 189240, Note_on_c, 13, 65, 76
15, 189359, Note_on_c, 13, 69, 0
15, 189359, Note_on_c, 13, 65, 0
15, 189600, Note_on_c, 13, 69, 84
15, 189600, Note_on_c, 13, 65, 84
15, 189704, Note_on_c, 13, 69, 0
15, 189704, Note_on_c, 13, 65, 0
15, 189720, Note_on_c, 13, 69, 76
15, 189720, Note_on_c, 13, 65, 76
15, 189839, Note_on_c, 13, 69, 0
15, 189839, Note_on_c, 13, 65, 0
15, 193920, Note_on_c, 13, 58, 84
15, 193971, Note_on_c, 13, 58, 0
15, 193980, Note_on_c, 13, 57, 84
15, 194031, Note_on_c, 13, 57, 0
15, 194040, Note_on_c, 13, 58, 84
15, 194091, Note_on_c, 13, 58, 0
15, 194100, Note_on_c, 13, 62, 84
15, 194151, Note_on_c, 13, 62, 0
15, 194160, Note_on_c, 13, 53, 84
15, 194211, Note_on_c, 13, 53, 0
15, 194220, Note_on_c, 13, 55, 84
15, 194271, Note_on_c, 13, 55, 0
15, 194280, Note_on_c, 13, 57, 84
15, 194331, Note_on_c, 13, 57, 0
15, 194340, Note_on_c, 13, 58, 84
15, 194371, Note_on_c, 13, 58, 0
15, 194380, Note_on_c, 13, 62, 84
15, 194399, Note_on_c, 13, 62, 0
15, 194400, Note_on_c, 13, 60, 84
15, 194451, Note_on_c, 13, 60, 0
15, 194460, Note_on_c, 13, 59, 84
15, 194511, Note_on_c, 13, 59, 0
15, 194520, Note_on_c, 13, 60, 84
15, 194571, Note_on_c, 13, 60, 0
15, 194580, Note_on_c, 13, 63, 84
15, 194631, Note_on_c, 13, 63, 0
15, 194640, Note_on_c, 13, 67, 84
15, 194691, Note_on_c, 13, 67, 0
15, 194700, Note_on_c, 13, 65, 84
15, 194751, Note_on_c, 13, 65, 0
15, 194760, Note_on_c, 13, 63, 84
15, 194811, Note_on_c, 13, 63, 0
15, 194820, Note_on_c, 13, 62, 84
15, 194871, Note_on_c, 13, 62, 0
15, 194880, Note_on_c, 13, 60, 84
15, 194931, Note_on_c, 13, 60, 0
15, 194940, Note_on_c, 13, 58, 84
15, 194991, Note_on_c, 13, 58, 0
15, 195000, Note_on_c, 13, 57, 84
15, 195051, Note_on_c, 13, 57, 0
15, 195060, Note_on_c, 13, 55, 84
15, 195111, Note_on_c, 13, 55, 0
15, 195120, Note_on_c, 13, 53, 84
15, 195171, Note_on_c, 13, 53, 0
15, 195180, Note_on_c, 13, 51, 84
15, 195231, Note_on_c, 13, 51, 0
15, 195240, Note_on_c, 13, 50, 84
15, 195291, Note_on_c, 13, 50, 0
15, 195300, Note_on_c, 13, 48, 84
15, 195351, Note_on_c, 13, 48, 0
15, 195360, Note_on_c, 13, 58, 84
15, 195411, Note_on_c, 13, 58, 0
15, 195420, Note_on_c, 13, 50, 84
15, 195471, Note_on_c, 13, 50, 0
15, 195480, Note_on_c, 13, 53, 84
15, 195531, Note_on_c, 13, 53, 0
15, 195540, Note_on_c, 13, 58, 84
15, 195591, Note_on_c, 13, 58, 0
15, 195600, Note_on_c, 13, 67, 84
15, 195651, Note_on_c, 13, 67, 0
15, 195660, Note_on_c, 13, 65, 84
15, 195711, Note_on_c, 13, 65, 0
15, 195720, Note_on_c, 13, 63, 84
15, 195771, Note_on_c, 13, 63, 0
15, 195780, Note_on_c, 13, 62, 84
15, 195831, Note_on_c, 13, 62, 0
15, 195840, Note_on_c, 13, 60, 84
15, 195891, Note_on_c, 13, 60, 0
15, 195900, Note_on_c, 13, 58, 84
15, 195951, Note_on_c, 13, 58, 0
15, 195960, Note_on_c, 13, 57, 84
15, 196011, Note_on_c, 13, 57, 0
15, 196020, Note_on_c, 13, 55, 84
15, 196071, Note_on_c, 13, 55, 0
15, 196080, Note_on_c, 13, 53, 84
15, 196131, Note_on_c, 13, 53, 0
15, 196140, Note_on_c, 13, 51, 84
15, 196191, Note_on_c, 13, 51, 0
15, 196200, Note_on_c, 13, 50, 84
15, 196251, Note_on_c, 13, 50, 0
15, 196260, Note_on_c, 13, 48, 84
15, 196311, Note_on_c, 13, 48, 0
15, 196320, Note_on_c, 13, 58, 84
15, 196371, Note_on_c, 13, 58, 0
15, 196380, Note_on_c, 13, 50, 84
15, 196431, Note_on_c, 13, 50, 0
15, 196440, Note_on_c, 13, 53, 84
15, 196491, Note_on_c, 13, 53, 0
15, 196500, Note_on_c, 13, 58, 84
15, 196551, Note_on_c, 13, 58, 0
15, 196560, Note_on_c, 13, 67, 84
15, 196611, Note_on_c, 13, 67, 0
15, 196620, Note_on_c, 13, 65, 84
15, 196671, Note_on_c, 13, 65, 0
15, 196680, Note_on_c, 13, 63, 84
15, 196731, Note_on_c, 13, 63, 0
15, 196740, Note_on_c, 13, 62, 84
15, 196791, Note_on_c, 13, 62, 0
15, 196800, Note_on_c, 13, 60, 84
15, 196851, Note_on_c, 13, 60, 0
15, 196860, Note_on_c, 13, 58, 84
15, 196911, Note_on_c, 13, 58, 0
15, 196920, Note_on_c, 13, 57, 84
15, 196971, Note_on_c, 13, 57, 0
15, 196980, Note_on_c, 13, 55, 84
15, 197031, Note_on_c, 13, 55, 0
15, 197040, Note_on_c, 13, 53, 84
15, 197091, Note_on_c, 13, 53, 0
15, 197100, Note_on_c, 13, 51, 84
15, 197151, Note_on_c, 13, 51, 0
15, 197160, Note_on_c, 13, 50, 84
15, 197211, Note_on_c, 13, 50, 0
15, 197220, Note_on_c, 13, 48, 84
15, 197271, Note_on_c, 13, 48, 0
15, 197280, Note_on_c, 13, 58, 84
15, 197331, Note_on_c, 13, 58, 0
15, 197340, Note_on_c, 13, 50, 84
15, 197391, Note_on_c, 13, 50, 0
15, 197400, Note_on_c, 13, 53, 84
15, 197451, Note_on_c, 13, 53, 0
15, 197460, Note_on_c, 13, 58, 84
15, 197511, Note_on_c, 13, 58, 0
15, 197520, Note_on_c, 13, 67, 84
15, 197571, Note_on_c, 13, 67, 0
15, 197580, Note_on_c, 13, 65, 84
15, 197631, Note_on_c, 13, 65, 0
15, 197640, Note_on_c, 13, 63, 84
15, 197691, Note_on_c, 13, 63, 0
15, 197700, Note_on_c, 13, 62, 84
15, 197751, Note_on_c, 13, 62, 0
15, 197760, Note_on_c, 13, 60, 84
15, 197811, Note_on_c, 13, 60, 0
15, 197820, Note_on_c, 13, 58, 84
15, 197871, Note_on_c, 13, 58, 0
15, 197880, Note_on_c, 13, 57, 84
15, 197931, Note_on_c, 13, 57, 0
15, 197940, Note_on_c, 13, 55, 84
15, 197991, Note_on_c, 13, 55, 0
15, 198000, Note_on_c, 13, 53, 84
15, 198051, Note_on_c, 13, 53, 0
15, 198060, Note_on_c, 13, 51, 84
15, 198111, Note_on_c, 13, 51, 0
15, 198120, Note_on_c, 13, 50, 84
15, 198171, Note_on_c, 13, 50, 0
15, 198180, Note_on_c, 13, 48, 84
15, 198231, Note_on_c, 13, 48, 0
15, 198240, Note_on_c, 13, 58, 84
15, 198291, Note_on_c, 13, 58, 0
15, 198300, Note_on_c, 13, 50, 84
15, 198351, Note_on_c, 13, 50, 0
15, 198360, Note_on_c, 13, 53, 84
15, 198411, Note_on_c, 13, 53, 0
15, 198420, Note_on_c, 13, 58, 84
15, 198471, Note_on_c, 13, 58, 0
15, 198480, Note_on_c, 13, 61, 84
15, 198480, Note_on_c, 13, 64, 84
15, 198531, Note_on_c, 13, 61, 0
15, 198531, Note_on_c, 13, 64, 0
15, 198540, Note_on_c, 13, 61, 84
15, 198540, Note_on_c, 13, 64, 84
15, 198591, Note_on_c, 13, 61, 0
15, 198591, Note_on_c, 13, 64, 0
15, 198600, Note_on_c, 13, 61, 84
15, 198600, Note_on_c, 13, 64, 84
15, 198651, Note_on_c, 13, 61, 0
15, 198651, Note_on_c, 13, 64, 0
15, 198660, Note_on_c, 13, 64, 84
15, 198660, Note_on_c, 13, 61, 84
15, 198711, Note_on_c, 13, 64, 0
15, 198711, Note_on_c, 13, 61, 0
15, 198720, Note_on_c, 13, 64, 84
15, 198720, Note_on_c, 13, 61, 84
15, 198771, Note_on_c, 13, 64, 0
15, 198771, Note_on_c, 13, 61, 0
15, 198780, Note_on_c, 13, 64, 84
15, 198780, Note_on_c, 13, 61, 84
15, 198831, Note_on_c, 13, 64, 0
15, 198831, Note_on_c, 13, 61, 0
15, 198840, Note_on_c, 13, 61, 84
15, 198840, Note_on_c, 13, 64, 84
15, 198891, Note_on_c, 13, 61, 0
15, 198891, Note_on_c, 13, 64, 0
15, 198900, Note_on_c, 13, 64, 84
15, 198900, Note_on_c, 13, 61, 84
15, 198951, Note_on_c, 13, 64, 0
15, 198951, Note_on_c, 13, 61, 0
15, 198960, Note_on_c, 13, 61, 84
15, 198960, Note_on_c, 13, 64, 84
15, 199011, Note_on_c, 13, 61, 0
15, 199011, Note_on_c, 13, 64, 0
15, 199020, Note_on_c, 13, 61, 84
15, 199020, Note_on_c, 13, 64, 84
15, 199071, Note_on_c, 13, 61, 0
15, 199071, Note_on_c, 13, 64, 0
15, 199080, Note_on_c, 13, 64, 84
15, 199080, Note_on_c, 13, 61, 84
15, 199131, Note_on_c, 13, 64, 0
15, 199131, Note_on_c, 13, 61, 0
15, 199140, Note_on_c, 13, 61, 84
15, 199140, Note_on_c, 13, 64, 84
15, 199191, Note_on_c, 13, 61, 0
15, 199191, Note_on_c, 13, 64, 0
15, 199200, Note_on_c, 13, 64, 84
15, 199200, Note_on_c, 13, 61, 84
15, 199251, Note_on_c, 13, 64, 0
15, 199251, Note_on_c, 13, 61, 0
15, 199260, Note_on_c, 13, 61, 84
15, 199260, Note_on_c, 13, 64, 84
15, 199311, Note_on_c, 13, 61, 0
15, 199311, Note_on_c, 13, 64, 0
15, 199320, Note_on_c, 13, 64, 84
15, 199320, Note_on_c, 13, 61, 84
15, 199371, Note_on_c, 13, 64, 0
15, 199371, Note_on_c, 13, 61, 0
15, 199380, Note_on_c, 13, 64, 84
15, 199380, Note_on_c, 13, 61, 84
15, 199431, Note_on_c, 13, 64, 0
15, 199431, Note_on_c, 13, 61, 0
15, 199440, Note_on_c, 13, 61, 84
15, 199440, Note_on_c, 13, 64, 84
15, 199491, Note_on_c, 13, 61, 0
15, 199491, Note_on_c, 13, 64, 0
15, 199500, Note_on_c, 13, 61, 84
15, 199500, Note_on_c, 13, 64, 84
15, 199551, Note_on_c, 13, 61, 0
15, 199551, Note_on_c, 13, 64, 0
15, 199560, Note_on_c, 13, 61, 84
15, 199560, Note_on_c, 13, 64, 84
15, 199611, Note_on_c, 13, 61, 0
15, 199611, Note_on_c, 13, 64, 0
15, 199620, Note_on_c, 13, 61, 84
15, 199620, Note_on_c, 13, 64, 84
15, 199671, Note_on_c, 13, 61, 0
15, 199671, Note_on_c, 13, 64, 0
15, 199680, Note_on_c, 13, 64, 84
15, 199680, Note_on_c, 13, 61, 84
15, 199731, Note_on_c, 13, 64, 0
15, 199731, Note_on_c, 13, 61, 0
15, 199740, Note_on_c, 13, 64, 84
15, 199740, Note_on_c, 13, 61, 84
15, 199791, Note_on_c, 13, 64, 0
15, 199791, Note_on_c, 13, 61, 0
15, 199800, Note_on_c, 13, 61, 84
15, 199800, Note_on_c, 13, 64, 84
15, 199851, Note_on_c, 13, 61, 0
15, 199851, Note_on_c, 13, 64, 0
15, 199860, Note_on_c, 13, 61, 84
15, 199860, Note_on_c, 13, 64, 84
15, 199911, Note_on_c, 13, 61, 0
15, 199911, Note_on_c, 13, 64, 0
15, 199920, Note_on_c, 13, 64, 84
15, 199920, Note_on_c, 13, 61, 84
15, 199971, Note_on_c, 13, 64, 0
15, 199971, Note_on_c, 13, 61, 0
15, 199980, Note_on_c, 13, 61, 84
15, 199980, Note_on_c, 13, 64, 84
15, 200031, Note_on_c, 13, 61, 0
15, 200031, Note_on_c, 13, 64, 0
15, 200040, Note_on_c, 13, 64, 84
15, 200040, Note_on_c, 13, 61, 84
15, 200091, Note_on_c, 13, 64, 0
15, 200091, Note_on_c, 13, 61, 0
15, 200100, Note_on_c, 13, 64, 84
15, 200100, Note_on_c, 13, 61, 84
15, 200151, Note_on_c, 13, 64, 0
15, 200151, Note_on_c, 13, 61, 0
15, 200160, Note_on_c, 13, 64, 84
15, 200160, Note_on_c, 13, 61, 84
15, 200211, Note_on_c, 13, 64, 0
15, 200211, Note_on_c, 13, 61, 0
15, 200220, Note_on_c, 13, 64, 84
15, 200220, Note_on_c, 13, 61, 84
15, 200271, Note_on_c, 13, 64, 0
15, 200271, Note_on_c, 13, 61, 0
15, 200280, Note_on_c, 13, 61, 84
15, 200280, Note_on_c, 13, 64, 84
15, 200331, Note_on_c, 13, 61, 0
15, 200331, Note_on_c, 13, 64, 0
15, 200340, Note_on_c, 13, 61, 84
15, 200340, Note_on_c, 13, 64, 84
15, 200391, Note_on_c, 13, 61, 0
15, 200391, Note_on_c, 13, 64, 0
15, 200400, Note_on_c, 13, 64, 84
15, 200400, Note_on_c, 13, 61, 84
15, 200451, Note_on_c, 13, 64, 0
15, 200451, Note_on_c, 13, 61, 0
15, 200460, Note_on_c, 13, 64, 84
15, 200460, Note_on_c, 13, 61, 84
15, 200511, Note_on_c, 13, 64, 0
15, 200511, Note_on_c, 13, 61, 0
15, 200520, Note_on_c, 13, 64, 84
15, 200520, Note_on_c, 13, 61, 84
15, 200571, Note_on_c, 13, 64, 0
15, 200571, Note_on_c, 13, 61, 0
15, 200580, Note_on_c, 13, 64, 84
15, 200580, Note_on_c, 13, 61, 84
15, 200631, Note_on_c, 13, 64, 0
15, 200631, Note_on_c, 13, 61, 0
15, 200640, Note_on_c, 13, 63, 92
15, 200640, Note_on_c, 13, 60, 92
15, 200699, Note_on_c, 13, 63, 0
15, 200699, Note_on_c, 13, 60, 0
15, 200700, Note_on_c, 13, 60, 84
15, 200700, Note_on_c, 13, 63, 84
15, 200700, Control_c, 13, 11, 127
15, 200738, Control_c, 13, 11, 124
15, 200775, Control_c, 13, 11, 122
15, 200813, Control_c, 13, 11, 119
15, 200850, Control_c, 13, 11, 117
15, 200888, Control_c, 13, 11, 114
15, 200925, Control_c, 13, 11, 111
15, 200963, Control_c, 13, 11, 109
15, 201000, Control_c, 13, 11, 106
15, 201038, Control_c, 13, 11, 103
15, 201075, Control_c, 13, 11, 101
15, 201113, Control_c, 13, 11, 98
15, 201150, Control_c, 13, 11, 96
15, 201188, Control_c, 13, 11, 93
15, 201225, Control_c, 13, 11, 90
15, 201263, Control_c, 13, 11, 88
15, 201300, Control_c, 13, 11, 85
15, 201338, Control_c, 13, 11, 82
15, 201375, Control_c, 13, 11, 80
15, 201413, Control_c, 13, 11, 77
15, 201450, Control_c, 13, 11, 75
15, 201488, Control_c, 13, 11, 72
15, 201525, Control_c, 13, 11, 69
15, 201563, Control_c, 13, 11, 64
15, 202079, Note_on_c, 13, 60, 0
15, 202079, Note_on_c, 13, 63, 0
15, 202558, Control_c, 13, 11, 127
15, 202560, Note_on_c, 13, 63, 44
15, 202919, Note_on_c, 13, 63, 0
15, 202920, Note_on_c, 13, 60, 44
15, 203024, Note_on_c, 13, 60, 0
15, 203040, Note_on_c, 13, 58, 44
15, 203399, Note_on_c, 13, 58, 0
15, 203400, Note_on_c, 13, 55, 44
15, 203504, Note_on_c, 13, 55, 0
15, 203520, Note_on_c, 13, 53, 44
15, 203639, Note_on_c, 13, 53, 0
15, 203760, Note_on_c, 13, 53, 44
15, 203879, Note_on_c, 13, 53, 0
15, 204000, Note_on_c, 13, 53, 44
15, 204959, Note_on_c, 13, 53, 0
15, 204960, Note_on_c, 13, 53, 44
15, 205919, Note_on_c, 13, 53, 0
15, 205920, Note_on_c, 13, 53, 44
15, 206879, Note_on_c, 13, 53, 0
15, 206880, Note_on_c, 13, 53, 44
15, 207839, Note_on_c, 13, 53, 0
15, 207840, Note_on_c, 13, 53, 44
15, 208799, Note_on_c, 13, 53, 0
15, 208800, Note_on_c, 13, 53, 44
15, 209744, Note_on_c, 13, 53, 0
15, 209760, Note_on_c, 13, 58, 44
15, 209811, Note_on_c, 13, 58, 0
15, 209820, Note_on_c, 13, 57, 45
15, 209871, Note_on_c, 13, 57, 0
15, 209880, Note_on_c, 13, 58, 46
15, 209931, Note_on_c, 13, 58, 0
15, 209940, Note_on_c, 13, 62, 47
15, 209991, Note_on_c, 13, 62, 0
15, 210000, Note_on_c, 13, 55, 49
15, 210051, Note_on_c, 13, 55, 0
15, 210060, Note_on_c, 13, 57, 50
15, 210111, Note_on_c, 13, 57, 0
15, 210120, Note_on_c, 13, 58, 51
15, 210171, Note_on_c, 13, 58, 0
15, 210180, Note_on_c, 13, 59, 52
15, 210231, Note_on_c, 13, 59, 0
15, 210240, Note_on_c, 13, 60, 54
15, 210291, Note_on_c, 13, 60, 0
15, 210300, Note_on_c, 13, 59, 55
15, 210351, Note_on_c, 13, 59, 0
15, 210360, Note_on_c, 13, 60, 56
15, 210411, Note_on_c, 13, 60, 0
15, 210420, Note_on_c, 13, 63, 57
15, 210471, Note_on_c, 13, 63, 0
15, 210480, Note_on_c, 13, 57, 59
15, 210531, Note_on_c, 13, 57, 0
15, 210540, Note_on_c, 13, 59, 60
15, 210591, Note_on_c, 13, 59, 0
15, 210600, Note_on_c, 13, 60, 61
15, 210651, Note_on_c, 13, 60, 0
15, 210660, Note_on_c, 13, 61, 62
15, 210711, Note_on_c, 13, 61, 0
15, 210720, Note_on_c, 13, 62, 64
15, 210771, Note_on_c, 13, 62, 0
15, 210780, Note_on_c, 13, 61, 65
15, 210831, Note_on_c, 13, 61, 0
15, 210840, Note_on_c, 13, 62, 66
15, 210891, Note_on_c, 13, 62, 0
15, 210900, Note_on_c, 13, 65, 67
15, 210951, Note_on_c, 13, 65, 0
15, 210960, Note_on_c, 13, 58, 69
15, 211011, Note_on_c, 13, 58, 0
15, 211020, Note_on_c, 13, 60, 70
15, 211071, Note_on_c, 13, 60, 0
15, 211080, Note_on_c, 13, 61, 71
15, 211131, Note_on_c, 13, 61, 0
15, 211140, Note_on_c, 13, 62, 72
15, 211191, Note_on_c, 13, 62, 0
15, 211200, Note_on_c, 13, 63, 74
15, 211304, Note_on_c, 13, 63, 0
15, 211320, Note_on_c, 13, 51, 76
15, 211371, Note_on_c, 13, 51, 0
15, 211380, Note_on_c, 13, 55, 77
15, 211431, Note_on_c, 13, 55, 0
15, 211440, Note_on_c, 13, 52, 79
15, 211491, Note_on_c, 13, 52, 0
15, 211500, Note_on_c, 13, 51, 80
15, 211551, Note_on_c, 13, 51, 0
15, 211560, Note_on_c, 13, 52, 81
15, 211611, Note_on_c, 13, 52, 0
15, 211620, Note_on_c, 13, 55, 82
15, 211671, Note_on_c, 13, 55, 0
15, 211680, Note_on_c, 13, 52, 84
15, 211731, Note_on_c, 13, 52, 0
15, 211740, Note_on_c, 13, 64, 84
15, 211791, Note_on_c, 13, 64, 0
15, 211800, Note_on_c, 13, 64, 84
15, 211851, Note_on_c, 13, 64, 0
15, 211860, Note_on_c, 13, 64, 84
15, 211911, Note_on_c, 13, 64, 0
15, 211920, Note_on_c, 13, 64, 84
15, 211971, Note_on_c, 13, 64, 0
15, 211980, Note_on_c, 13, 64, 84
15, 212031, Note_on_c, 13, 64, 0
15, 212040, Note_on_c, 13, 64, 84
15, 212091, Note_on_c, 13, 64, 0
15, 212100, Note_on_c, 13, 64, 84
15, 212151, Note_on_c, 13, 64, 0
15, 212160, Note_on_c, 13, 64, 84
15, 212211, Note_on_c, 13, 64, 0
15, 212220, Note_on_c, 13, 64, 84
15, 212271, Note_on_c, 13, 64, 0
15, 212280, Note_on_c, 13, 64, 84
15, 212331, Note_on_c, 13, 64, 0
15, 212340, Note_on_c, 13, 64, 84
15, 212391, Note_on_c, 13, 64, 0
15, 212400, Note_on_c, 13, 64, 84
15, 212451, Note_on_c, 13, 64, 0
15, 212460, Note_on_c, 13, 64, 84
15, 212511, Note_on_c, 13, 64, 0
15, 212520, Note_on_c, 13, 64, 84
15, 212571, Note_on_c, 13, 64, 0
15, 212580, Note_on_c, 13, 64, 84
15, 212631, Note_on_c, 13, 64, 0
15, 212640, Note_on_c, 13, 64, 84
15, 212759, Note_on_c, 13, 64, 0
15, 212880, Note_on_c, 13, 64, 84
15, 212999, Note_on_c, 13, 64, 0
15, 213600, Note_on_c, 13, 65, 84
15, 213719, Note_on_c, 13, 65, 0
15, 213840, Note_on_c, 13, 65, 84
15, 213959, Note_on_c, 13, 65, 0
15, 216480, Note_on_c, 13, 60, 44
15, 216599, Note_on_c, 13, 60, 0
15, 216600, Note_on_c, 13, 58, 44
15, 216719, Note_on_c, 13, 58, 0
15, 216720, Note_on_c, 13, 57, 44
15, 216839, Note_on_c, 13, 57, 0
15, 216840, Note_on_c, 13, 55, 44
15, 217184, Note_on_c, 13, 55, 0
15, 217200, Note_on_c, 13, 67, 84
15, 217251, Note_on_c, 13, 67, 0
15, 217260, Note_on_c, 13, 65, 84
15, 217311, Note_on_c, 13, 65, 0
15, 217320, Note_on_c, 13, 63, 84
15, 217371, Note_on_c, 13, 63, 0
15, 217380, Note_on_c, 13, 62, 84
15, 217431, Note_on_c, 13, 62, 0
15, 217440, Note_on_c, 13, 60, 84
15, 217491, Note_on_c, 13, 60, 0
15, 217500, Note_on_c, 13, 58, 84
15, 217551, Note_on_c, 13, 58, 0
15, 217560, Note_on_c, 13, 57, 84
15, 217611, Note_on_c, 13, 57, 0
15, 217620, Note_on_c, 13, 55, 84
15, 217671, Note_on_c, 13, 55, 0
15, 217680, Note_on_c, 13, 53, 84
15, 217731, Note_on_c, 13, 53, 0
15, 217740, Note_on_c, 13, 63, 84
15, 217791, Note_on_c, 13, 63, 0
15, 217800, Note_on_c, 13, 62, 84
15, 217851, Note_on_c, 13, 62, 0
15, 217860, Note_on_c, 13, 60, 84
15, 217911, Note_on_c, 13, 60, 0
15, 217920, Note_on_c, 13, 58, 84
15, 217971, Note_on_c, 13, 58, 0
15, 217980, Note_on_c, 13, 60, 84
15, 218031, Note_on_c, 13, 60, 0
15, 218040, Note_on_c, 13, 62, 84
15, 218091, Note_on_c, 13, 62, 0
15, 218100, Note_on_c, 13, 58, 84
15, 218151, Note_on_c, 13, 58, 0
15, 218160, Note_on_c, 13, 53, 84
15, 218211, Note_on_c, 13, 53, 0
15, 218220, Note_on_c, 13, 57, 84
15, 218271, Note_on_c, 13, 57, 0
15, 218280, Note_on_c, 13, 60, 84
15, 218331, Note_on_c, 13, 60, 0
15, 218340, Note_on_c, 13, 65, 84
15, 218391, Note_on_c, 13, 65, 0
15, 218400, Note_on_c, 13, 58, 84
15, 218519, Note_on_c, 13, 58, 0
15, 218880, Note_on_c, 13, 53, 84
15, 218999, Note_on_c, 13, 53, 0
15, 219360, Note_on_c, 13, 58, 84
15, 219360, Note_on_c, 13, 50, 84
15, 219479, Note_on_c, 13, 58, 0
15, 219479, Note_on_c, 13, 50, 0
15, 219479, End_track
16, 0, Start_track
16, 0, Title_t, "Cello"
16, 0, MIDI_port, 0
16, 0, Program_c, 14, 48
16, 0, Control_c, 14, 7, 96
16, 0, Control_c, 14, 10, 90
16, 0, Control_c, 14, 11, 127
16, 0, Note_on_c, 14, 46, 52
16, 119, Note_on_c, 14, 46, 0
16, 240, Note_on_c, 14, 58, 52
16, 359, Note_on_c, 14, 58, 0
16, 480, Note_on_c, 14, 51, 52
16, 599, Note_on_c, 14, 51, 0
16, 1200, Note_on_c, 14, 53, 76
16, 1251, Note_on_c, 14, 53, 0
16, 1260, Note_on_c, 14, 51, 76
16, 1311, Note_on_c, 14, 51, 0
16, 1320, Note_on_c, 14, 50, 76
16, 1371, Note_on_c, 14, 50, 0
16, 1380, Note_on_c, 14, 48, 76
16, 1431, Note_on_c, 14, 48, 0
16, 1440, Note_on_c, 14, 46, 76
16, 1491, Note_on_c, 14, 46, 0
16, 1500, Note_on_c, 14, 48, 76
16, 1551, Note_on_c, 14, 48, 0
16, 1560, Note_on_c, 14, 50, 76
16, 1611, Note_on_c, 14, 50, 0
16, 1620, Note_on_c, 14, 46, 76
16, 1671, Note_on_c, 14, 46, 0
16, 1680, Note_on_c, 14, 41, 76
16, 1731, Note_on_c, 14, 41, 0
16, 1740, Note_on_c, 14, 45, 76
16, 1791, Note_on_c, 14, 45, 0
16, 1800, Note_on_c, 14, 48, 76
16, 1851, Note_on_c, 14, 48, 0
16, 1860, Note_on_c, 14, 53, 76
16, 1911, Note_on_c, 14, 53, 0
16, 1920, Note_on_c, 14, 46, 44
16, 2024, Note_on_c, 14, 46, 0
16, 2040, Note_on_c, 14, 46, 44
16, 2144, Note_on_c, 14, 46, 0
16, 2160, Note_on_c, 14, 46, 44
16, 2264, Note_on_c, 14, 46, 0
16, 2280, Note_on_c, 14, 46, 44
16, 2384, Note_on_c, 14, 46, 0
16, 2400, Note_on_c, 14, 46, 44
16, 2519, Note_on_c, 14, 46, 0
16, 2880, Note_on_c, 14, 46, 44
16, 2984, Note_on_c, 14, 46, 0
16, 3000, Note_on_c, 14, 46, 44
16, 3104, Note_on_c, 14, 46, 0
16, 3120, Note_on_c, 14, 46, 44
16, 3224, Note_on_c, 14, 46, 0
16, 3240, Note_on_c, 14, 46, 44
16, 3344, Note_on_c, 14, 46, 0
16, 3360, Note_on_c, 14, 46, 44
16, 3479, Note_on_c, 14, 46, 0
16, 3840, Note_on_c, 14, 46, 44
16, 3944, Note_on_c, 14, 46, 0
16, 3960, Note_on_c, 14, 46, 44
16, 4079, Note_on_c, 14, 46, 0
16, 4320, Note_on_c, 14, 46, 44
16, 4424, Note_on_c, 14, 46, 0
16, 4440, Note_on_c, 14, 46, 44
16, 4559, Note_on_c, 14, 46, 0
16, 5280, Note_on_c, 14, 53, 44
16, 6224, Note_on_c, 14, 53, 0
16, 6240, Note_on_c, 14, 53, 44
16, 6359, Note_on_c, 14, 53, 0
16, 6480, Note_on_c, 14, 53, 44
16, 6599, Note_on_c, 14, 53, 0
16, 6720, Note_on_c, 14, 46, 44
16, 6839, Note_on_c, 14, 46, 0
16, 8160, Note_on_c, 14, 53, 44
16, 8279, Note_on_c, 14, 53, 0
16, 8400, Note_on_c, 14, 53, 44
16, 8519, Note_on_c, 14, 53, 0
16, 8640, Note_on_c, 14, 46, 44
16, 8759, Note_on_c, 14, 46, 0
16, 9120, Note_on_c, 14, 53, 44
16, 9239, Note_on_c, 14, 53, 0
16, 9360, Note_on_c, 14, 53, 64
16, 9479, Note_on_c, 14, 53, 0
16, 9600, Note_on_c, 14, 58, 84
16, 9651, Note_on_c, 14, 58, 0
16, 9660, Note_on_c, 14, 57, 84
16, 9711, Note_on_c, 14, 57, 0
16, 9720, Note_on_c, 14, 58, 84
16, 9771, Note_on_c, 14, 58, 0
16, 9780, Note_on_c, 14, 62, 84
16, 9831, Note_on_c, 14, 62, 0
16, 9840, Note_on_c, 14, 60, 84
16, 9891, Note_on_c, 14, 60, 0
16, 9900, Note_on_c, 14, 58, 84
16, 9951, Note_on_c, 14, 58, 0
16, 9960, Note_on_c, 14, 57, 84
16, 10011, Note_on_c, 14, 57, 0
16, 10020, Note_on_c, 14, 58, 84
16, 10071, Note_on_c, 14, 58, 0
16, 10080, Note_on_c, 14, 57, 84
16, 10131, Note_on_c, 14, 57, 0
16, 10140, Note_on_c, 14, 55, 84
16, 10191, Note_on_c, 14, 55, 0
16, 10200, Note_on_c, 14, 53, 84
16, 10251, Note_on_c, 14, 53, 0
16, 10260, Note_on_c, 14, 55, 84
16, 10311, Note_on_c, 14, 55, 0
16, 10320, Note_on_c, 14, 53, 84
16, 10371, Note_on_c, 14, 53, 0
16, 10380, Note_on_c, 14, 51, 84
16, 10431, Note_on_c, 14, 51, 0
16, 10440, Note_on_c, 14, 50, 84
16, 10491, Note_on_c, 14, 50, 0
16, 10500, Note_on_c, 14, 51, 84
16, 10551, Note_on_c, 14, 51, 0
16, 10560, Note_on_c, 14, 50, 84
16, 10611, Note_on_c, 14, 50, 0
16, 10620, Note_on_c, 14, 60, 84
16, 10671, Note_on_c, 14, 60, 0
16, 10680, Note_on_c, 14, 58, 84
16, 10731, Note_on_c, 14, 58, 0
16, 10740, Note_on_c, 14, 60, 84
16, 10791, Note_on_c, 14, 60, 0
16, 10800, Note_on_c, 14, 58, 84
16, 10851, Note_on_c, 14, 58, 0
16, 10860, Note_on_c, 14, 57, 84
16, 10911, Note_on_c, 14, 57, 0
16, 10920, Note_on_c, 14, 55, 84
16, 10971, Note_on_c, 14, 55, 0
16, 10980, Note_on_c, 14, 57, 84
16, 11031, Note_on_c, 14, 57, 0
16, 11040, Note_on_c, 14, 55, 84
16, 11091, Note_on_c, 14, 55, 0
16, 11100, Note_on_c, 14, 53, 84
16, 11151, Note_on_c, 14, 53, 0
16, 11160, Note_on_c, 14, 51, 84
16, 11211, Note_on_c, 14, 51, 0
16, 11220, Note_on_c, 14, 50, 84
16, 11271, Note_on_c, 14, 50, 0
16, 11280, Note_on_c, 14, 48, 84
16, 11384, Note_on_c, 14, 48, 0
16, 11400, Note_on_c, 14, 53, 84
16, 11504, Note_on_c, 14, 53, 0
16, 11520, Note_on_c, 14, 46, 84
16, 11624, Note_on_c, 14, 46, 0
16, 11640, Note_on_c, 14, 46, 84
16, 11744, Note_on_c, 14, 46, 0
16, 11760, Note_on_c, 14, 46, 84
16, 11864, Note_on_c, 14, 46, 0
16, 11880, Note_on_c, 14, 46, 84
16, 11984, Note_on_c, 14, 46, 0
16, 12000, Note_on_c, 14, 46, 84
16, 12104, Note_on_c, 14, 46, 0
16, 12120, Note_on_c, 14, 46, 84
16, 12224, Note_on_c, 14, 46, 0
16, 12240, Note_on_c, 14, 46, 84
16, 12344, Note_on_c, 14, 46, 0
16, 12360, Note_on_c, 14, 46, 84
16, 12464, Note_on_c, 14, 46, 0
16, 12480, Note_on_c, 14, 46, 84
16, 12584, Note_on_c, 14, 46, 0
16, 12600, Note_on_c, 14, 46, 84
16, 12704, Note_on_c, 14, 46, 0
16, 12720, Note_on_c, 14, 46, 84
16, 12824, Note_on_c, 14, 46, 0
16, 12840, Note_on_c, 14, 46, 84
16, 12944, Note_on_c, 14, 46, 0
16, 12960, Note_on_c, 14, 46, 84
16, 13064, Note_on_c, 14, 46, 0
16, 13080, Note_on_c, 14, 46, 84
16, 13184, Note_on_c, 14, 46, 0
16, 13200, Note_on_c, 14, 46, 84
16, 13304, Note_on_c, 14, 46, 0
16, 13320, Note_on_c, 14, 46, 84
16, 13424, Note_on_c, 14, 46, 0
16, 13440, Note_on_c, 14, 58, 84
16, 13544, Note_on_c, 14, 58, 0
16, 13560, Note_on_c, 14, 62, 84
16, 13664, Note_on_c, 14, 62, 0
16, 13680, Note_on_c, 14, 55, 84
16, 13784, Note_on_c, 14, 55, 0
16, 13800, Note_on_c, 14, 58, 84
16, 13904, Note_on_c, 14, 58, 0
16, 13920, Note_on_c, 14, 52, 84
16, 14024, Note_on_c, 14, 52, 0
16, 14040, Note_on_c, 14, 55, 84
16, 14144, Note_on_c, 14, 55, 0
16, 14160, Note_on_c, 14, 48, 84
16, 14264, Note_on_c, 14, 48, 0
16, 14280, Note_on_c, 14, 52, 84
16, 14384, Note_on_c, 14, 52, 0
16, 14400, Note_on_c, 14, 53, 84
16, 14504, Note_on_c, 14, 53, 0
16, 14520, Note_on_c, 14, 60, 84
16, 14624, Note_on_c, 14, 60, 0
16, 14640, Note_on_c, 14, 53, 84
16, 14744, Note_on_c, 14, 53, 0
16, 14760, Note_on_c, 14, 57, 84
16, 14864, Note_on_c, 14, 57, 0
16, 14880, Note_on_c, 14, 50, 84
16, 14984, Note_on_c, 14, 50, 0
16, 15000, Note_on_c, 14, 53, 84
16, 15104, Note_on_c, 14, 53, 0
16, 15120, Note_on_c, 14, 45, 84
16, 15224, Note_on_c, 14, 45, 0
16, 15240, Note_on_c, 14, 47, 84
16, 15344, Note_on_c, 14, 47, 0
16, 15360, Note_on_c, 14, 48, 84
16, 15944, Note_on_c, 14, 48, 0
16, 15960, Note_on_c, 14, 49, 84
16, 16079, Note_on_c, 14, 49, 0
16, 16080, Note_on_c, 14, 48, 84
16, 16199, Note_on_c, 14, 48, 0
16, 16200, Note_on_c, 14, 49, 84
16, 16304, Note_on_c, 14, 49, 0
16, 16320, Note_on_c, 14, 48, 84
16, 16424, Note_on_c, 14, 48, 0
16, 16440, Note_on_c, 14, 58, 84
16, 16559, Note_on_c, 14, 58, 0
16, 16560, Note_on_c, 14, 55, 84
16, 16679, Note_on_c, 14, 55, 0
16, 16680, Note_on_c, 14, 52, 84
16, 16784, Note_on_c, 14, 52, 0
16, 16800, Note_on_c, 14, 48, 84
16, 16919, Note_on_c, 14, 48, 0
16, 17280, Note_on_c, 14, 41, 52
16, 17759, Note_on_c, 14, 41, 0
16, 17760, Note_on_c, 14, 48, 52
16, 18239, Note_on_c, 14, 48, 0
16, 18240, Note_on_c, 14, 53, 52
16, 18719, Note_on_c, 14, 53, 0
16, 18720, Note_on_c, 14, 48, 52
16, 19184, Note_on_c, 14, 48, 0
16, 19200, Note_on_c, 14, 43, 52
16, 19544, Note_on_c, 14, 43, 0
16, 19560, Note_on_c, 14, 43, 52
16, 19664, Note_on_c, 14, 43, 0
16, 19680, Note_on_c, 14, 48, 52
16, 19799, Note_on_c, 14, 48, 0
16, 19920, Note_on_c, 14, 52, 52
16, 20039, Note_on_c, 14, 52, 0
16, 20160, Note_on_c, 14, 55, 52
16, 20279, Note_on_c, 14, 55, 0
16, 20400, Note_on_c, 14, 43, 52
16, 20519, Note_on_c, 14, 43, 0
16, 20640, Note_on_c, 14, 48, 52
16, 20759, Note_on_c, 14, 48, 0
16, 21120, Note_on_c, 14, 53, 52
16, 21464, Note_on_c, 14, 53, 0
16, 21480, Note_on_c, 14, 53, 52
16, 21599, Note_on_c, 14, 53, 0
16, 21600, Note_on_c, 14, 52, 52
16, 21719, Note_on_c, 14, 52, 0
16, 21720, Note_on_c, 14, 60, 52
16, 21839, Note_on_c, 14, 60, 0
16, 21840, Note_on_c, 14, 58, 52
16, 21959, Note_on_c, 14, 58, 0
16, 21960, Note_on_c, 14, 55, 52
16, 22079, Note_on_c, 14, 55, 0
16, 22080, Note_on_c, 14, 57, 52
16, 22199, Note_on_c, 14, 57, 0
16, 22200, Note_on_c, 14, 53, 52
16, 22319, Note_on_c, 14, 53, 0
16, 22320, Note_on_c, 14, 52, 52
16, 22439, Note_on_c, 14, 52, 0
16, 22440, Note_on_c, 14, 53, 52
16, 22559, Note_on_c, 14, 53, 0
16, 22560, Note_on_c, 14, 54, 52
16, 22679, Note_on_c, 14, 54, 0
16, 22680, Note_on_c, 14, 55, 52
16, 22784, Note_on_c, 14, 55, 0
16, 22800, Note_on_c, 14, 52, 52
16, 22889, Note_on_c, 14, 52, 0
16, 22920, Note_on_c, 14, 48, 52
16, 23009, Note_on_c, 14, 48, 0
16, 23040, Note_on_c, 14, 43, 52
16, 23159, Note_on_c, 14, 43, 0
16, 23160, Note_on_c, 14, 45, 52
16, 23279, Note_on_c, 14, 45, 0
16, 23280, Note_on_c, 14, 46, 52
16, 23399, Note_on_c, 14, 46, 0
16, 23400, Note_on_c, 14, 47, 52
16, 23624, Note_on_c, 14, 47, 0
16, 23640, Note_on_c, 14, 48, 52
16, 23864, Note_on_c, 14, 48, 0
16, 23880, Note_on_c, 14, 52, 52
16, 24104, Note_on_c, 14, 52, 0
16, 24120, Note_on_c, 14, 55, 52
16, 24344, Note_on_c, 14, 55, 0
16, 24360, Note_on_c, 14, 43, 52
16, 24464, Note_on_c, 14, 43, 0
16, 24480, Note_on_c, 14, 48, 52
16, 24599, Note_on_c, 14, 48, 0
16, 25800, Note_on_c, 14, 53, 76
16, 25904, Note_on_c, 14, 53, 0
16, 25920, Note_on_c, 14, 52, 76
16, 26039, Note_on_c, 14, 52, 0
16, 26040, Note_on_c, 14, 50, 76
16, 26144, Note_on_c, 14, 50, 0
16, 26160, Note_on_c, 14, 52, 76
16, 26249, Note_on_c, 14, 52, 0
16, 26280, Note_on_c, 14, 53, 76
16, 26369, Note_on_c, 14, 53, 0
16, 26400, Note_on_c, 14, 55, 76
16, 26639, Note_on_c, 14, 55, 0
16, 27720, Note_on_c, 14, 53, 76
16, 27824, Note_on_c, 14, 53, 0
16, 27840, Note_on_c, 14, 52, 76
16, 27959, Note_on_c, 14, 52, 0
16, 27960, Note_on_c, 14, 50, 76
16, 28064, Note_on_c, 14, 50, 0
16, 28080, Note_on_c, 14, 52, 76
16, 28169, Note_on_c, 14, 52, 0
16, 28200, Note_on_c, 14, 53, 76
16, 28289, Note_on_c, 14, 53, 0
16, 28320, Note_on_c, 14, 55, 76
16, 28424, Note_on_c, 14, 55, 0
16, 28440, Note_on_c, 14, 55, 76
16, 28559, Note_on_c, 14, 55, 0
16, 28680, Note_on_c, 14, 53, 76
16, 28784, Note_on_c, 14, 53, 0
16, 28800, Note_on_c, 14, 52, 76
16, 28919, Note_on_c, 14, 52, 0
16, 28920, Note_on_c, 14, 50, 76
16, 29024, Note_on_c, 14, 50, 0
16, 29040, Note_on_c, 14, 52, 76
16, 29129, Note_on_c, 14, 52, 0
16, 29160, Note_on_c, 14, 53, 76
16, 29249, Note_on_c, 14, 53, 0
16, 29280, Note_on_c, 14, 55, 76
16, 29384, Note_on_c, 14, 55, 0
16, 29400, Note_on_c, 14, 55, 76
16, 29519, Note_on_c, 14, 55, 0
16, 29640, Note_on_c, 14, 57, 76
16, 29744, Note_on_c, 14, 57, 0
16, 29760, Note_on_c, 14, 58, 76
16, 29864, Note_on_c, 14, 58, 0
16, 29880, Note_on_c, 14, 57, 76
16, 29984, Note_on_c, 14, 57, 0
16, 30000, Note_on_c, 14, 58, 76
16, 30104, Note_on_c, 14, 58, 0
16, 30120, Note_on_c, 14, 55, 76
16, 30224, Note_on_c, 14, 55, 0
16, 30240, Note_on_c, 14, 53, 84
16, 30344, Note_on_c, 14, 53, 0
16, 30360, Note_on_c, 14, 41, 84
16, 30464, Note_on_c, 14, 41, 0
16, 30480, Note_on_c, 14, 41, 84
16, 30584, Note_on_c, 14, 41, 0
16, 30600, Note_on_c, 14, 41, 84
16, 30704, Note_on_c, 14, 41, 0
16, 30720, Note_on_c, 14, 41, 84
16, 30824, Note_on_c, 14, 41, 0
16, 30840, Note_on_c, 14, 41, 84
16, 30944, Note_on_c, 14, 41, 0
16, 30960, Note_on_c, 14, 41, 84
16, 31064, Note_on_c, 14, 41, 0
16, 31080, Note_on_c, 14, 41, 84
16, 31184, Note_on_c, 14, 41, 0
16, 31200, Note_on_c, 14, 41, 92
16, 31649, Note_on_c, 14, 41, 0
16, 31680, Note_on_c, 14, 41, 92
16, 32129, Note_on_c, 14, 41, 0
16, 32160, Note_on_c, 14, 41, 92
16, 32609, Note_on_c, 14, 41, 0
16, 32640, Note_on_c, 14, 41, 92
16, 33089, Note_on_c, 14, 41, 0
16, 33120, Note_on_c, 14, 52, 52
16, 33224, Note_on_c, 14, 52, 0
16, 33240, Note_on_c, 14, 64, 52
16, 33344, Note_on_c, 14, 64, 0
16, 33360, Note_on_c, 14, 64, 52
16, 33464, Note_on_c, 14, 64, 0
16, 33480, Note_on_c, 14, 64, 52
16, 33584, Note_on_c, 14, 64, 0
16, 33600, Note_on_c, 14, 64, 52
16, 33704, Note_on_c, 14, 64, 0
16, 33720, Note_on_c, 14, 64, 52
16, 33824, Note_on_c, 14, 64, 0
16, 33840, Note_on_c, 14, 65, 52
16, 33944, Note_on_c, 14, 65, 0
16, 33960, Note_on_c, 14, 65, 52
16, 34064, Note_on_c, 14, 65, 0
16, 34080, Note_on_c, 14, 62, 52
16, 34184, Note_on_c, 14, 62, 0
16, 34200, Note_on_c, 14, 62, 52
16, 34304, Note_on_c, 14, 62, 0
16, 34320, Note_on_c, 14, 58, 52
16, 34424, Note_on_c, 14, 58, 0
16, 34440, Note_on_c, 14, 58, 52
16, 34544, Note_on_c, 14, 58, 0
16, 34560, Note_on_c, 14, 60, 52
16, 34664, Note_on_c, 14, 60, 0
16, 34680, Note_on_c, 14, 60, 52
16, 34784, Note_on_c, 14, 60, 0
16, 34800, Note_on_c, 14, 48, 52
16, 34904, Note_on_c, 14, 48, 0
16, 34920, Note_on_c, 14, 48, 52
16, 35024, Note_on_c, 14, 48, 0
16, 35040, Note_on_c, 14, 41, 84
16, 35504, Note_on_c, 14, 41, 0
16, 35520, Note_on_c, 14, 41, 92
16, 35969, Note_on_c, 14, 41, 0
16, 36000, Note_on_c, 14, 41, 92
16, 36449, Note_on_c, 14, 41, 0
16, 36480, Note_on_c, 14, 41, 92
16, 36929, Note_on_c, 14, 41, 0
16, 36960, Note_on_c, 14, 54, 52
16, 37064, Note_on_c, 14, 54, 0
16, 37080, Note_on_c, 14, 66, 52
16, 37184, Note_on_c, 14, 66, 0
16, 37200, Note_on_c, 14, 66, 52
16, 37304, Note_on_c, 14, 66, 0
16, 37320, Note_on_c, 14, 66, 52
16, 37424, Note_on_c, 14, 66, 0
16, 37440, Note_on_c, 14, 66, 52
16, 37544, Note_on_c, 14, 66, 0
16, 37560, Note_on_c, 14, 66, 52
16, 37664, Note_on_c, 14, 66, 0
16, 37680, Note_on_c, 14, 67, 52
16, 37784, Note_on_c, 14, 67, 0
16, 37800, Note_on_c, 14, 67, 52
16, 37904, Note_on_c, 14, 67, 0
16, 37920, Note_on_c, 14, 58, 52
16, 38024, Note_on_c, 14, 58, 0
16, 38040, Note_on_c, 14, 58, 52
16, 38144, Note_on_c, 14, 58, 0
16, 38160, Note_on_c, 14, 58, 52
16, 38264, Note_on_c, 14, 58, 0
16, 38280, Note_on_c, 14, 58, 52
16, 38384, Note_on_c, 14, 58, 0
16, 38400, Note_on_c, 14, 60, 52
16, 38504, Note_on_c, 14, 60, 0
16, 38520, Note_on_c, 14, 60, 52
16, 38624, Note_on_c, 14, 60, 0
16, 38640, Note_on_c, 14, 58, 52
16, 38744, Note_on_c, 14, 58, 0
16, 38760, Note_on_c, 14, 58, 52
16, 38864, Note_on_c, 14, 58, 0
16, 38880, Note_on_c, 14, 57, 52
16, 38984, Note_on_c, 14, 57, 0
16, 39000, Note_on_c, 14, 57, 54
16, 39104, Note_on_c, 14, 57, 0
16, 39120, Note_on_c, 14, 62, 56
16, 39224, Note_on_c, 14, 62, 0
16, 39240, Note_on_c, 14, 62, 58
16, 39344, Note_on_c, 14, 62, 0
16, 39360, Note_on_c, 14, 58, 60
16, 39464, Note_on_c, 14, 58, 0
16, 39480, Note_on_c, 14, 58, 62
16, 39584, Note_on_c, 14, 58, 0
16, 39600, Note_on_c, 14, 60, 64
16, 39704, Note_on_c, 14, 60, 0
16, 39720, Note_on_c, 14, 60, 66
16, 39824, Note_on_c, 14, 60, 0
16, 39840, Note_on_c, 14, 57, 68
16, 39944, Note_on_c, 14, 57, 0
16, 39960, Note_on_c, 14, 57, 70
16, 40064, Note_on_c, 14, 57, 0
16, 40080, Note_on_c, 14, 62, 72
16, 40184, Note_on_c, 14, 62, 0
16, 40200, Note_on_c, 14, 62, 74
16, 40304, Note_on_c, 14, 62, 0
16, 40320, Note_on_c, 14, 58, 76
16, 40424, Note_on_c, 14, 58, 0
16, 40440, Note_on_c, 14, 58, 78
16, 40544, Note_on_c, 14, 58, 0
16, 40560, Note_on_c, 14, 60, 80
16, 40664, Note_on_c, 14, 60, 0
16, 40680, Note_on_c, 14, 60, 82
16, 40784, Note_on_c, 14, 60, 0
16, 40800, Note_on_c, 14, 57, 84
16, 40851, Note_on_c, 14, 57, 0
16, 40860, Note_on_c, 14, 57, 84
16, 40911, Note_on_c, 14, 57, 0
16, 40920, Note_on_c, 14, 57, 84
16, 40971, Note_on_c, 14, 57, 0
16, 40980, Note_on_c, 14, 57, 84
16, 41031, Note_on_c, 14, 57, 0
16, 41040, Note_on_c, 14, 62, 84
16, 41091, Note_on_c, 14, 62, 0
16, 41100, Note_on_c, 14, 62, 84
16, 41151, Note_on_c, 14, 62, 0
16, 41160, Note_on_c, 14, 62, 84
16, 41211, Note_on_c, 14, 62, 0
16, 41220, Note_on_c, 14, 62, 84
16, 41271, Note_on_c, 14, 62, 0
16, 41280, Note_on_c, 14, 58, 84
16, 41331, Note_on_c, 14, 58, 0
16, 41340, Note_on_c, 14, 58, 84
16, 41391, Note_on_c, 14, 58, 0
16, 41400, Note_on_c, 14, 58, 84
16, 41451, Note_on_c, 14, 58, 0
16, 41460, Note_on_c, 14, 58, 84
16, 41511, Note_on_c, 14, 58, 0
16, 41520, Note_on_c, 14, 60, 84
16, 41571, Note_on_c, 14, 60, 0
16, 41580, Note_on_c, 14, 60, 84
16, 41631, Note_on_c, 14, 60, 0
16, 41640, Note_on_c, 14, 60, 84
16, 41691, Note_on_c, 14, 60, 0
16, 41700, Note_on_c, 14, 60, 84
16, 41751, Note_on_c, 14, 60, 0
16, 41760, Note_on_c, 14, 53, 84
16, 41811, Note_on_c, 14, 53, 0
16, 41820, Note_on_c, 14, 52, 84
16, 41871, Note_on_c, 14, 52, 0
16, 41880, Note_on_c, 14, 53, 84
16, 41931, Note_on_c, 14, 53, 0
16, 41940, Note_on_c, 14, 57, 84
16, 41991, Note_on_c, 14, 57, 0
16, 42000, Note_on_c, 14, 50, 84
16, 42051, Note_on_c, 14, 50, 0
16, 42060, Note_on_c, 14, 52, 84
16, 42111, Note_on_c, 14, 52, 0
16, 42120, Note_on_c, 14, 53, 84
16, 42171, Note_on_c, 14, 53, 0
16, 42180, Note_on_c, 14, 55, 84
16, 42231, Note_on_c, 14, 55, 0
16, 42240, Note_on_c, 14, 48, 84
16, 42291, Note_on_c, 14, 48, 0
16, 42300, Note_on_c, 14, 50, 84
16, 42351, Note_on_c, 14, 50, 0
16, 42360, Note_on_c, 14, 52, 84
16, 42411, Note_on_c, 14, 52, 0
16, 42420, Note_on_c, 14, 53, 84
16, 42471, Note_on_c, 14, 53, 0
16, 42480, Note_on_c, 14, 46, 84
16, 42531, Note_on_c, 14, 46, 0
16, 42540, Note_on_c, 14, 48, 84
16, 42591, Note_on_c, 14, 48, 0
16, 42600, Note_on_c, 14, 50, 84
16, 42651, Note_on_c, 14, 50, 0
16, 42660, Note_on_c, 14, 52, 84
16, 42711, Note_on_c, 14, 52, 0
16, 42720, Note_on_c, 14, 60, 84
16, 43064, Note_on_c, 14, 60, 0
16, 43080, Note_on_c, 14, 58, 84
16, 43184, Note_on_c, 14, 58, 0
16, 43200, Note_on_c, 14, 57, 84
16, 43304, Note_on_c, 14, 57, 0
16, 43320, Note_on_c, 14, 57, 84
16, 43424, Note_on_c, 14, 57, 0
16, 43440, Note_on_c, 14, 55, 84
16, 43469, Note_on_c, 14, 55, 0
16, 43470, Note_on_c, 14, 57, 84
16, 43499, Note_on_c, 14, 57, 0
16, 43500, Note_on_c, 14, 55, 84
16, 43529, Note_on_c, 14, 55, 0
16, 43530, Note_on_c, 14, 57, 84
16, 43559, Note_on_c, 14, 57, 0
16, 43560, Note_on_c, 14, 55, 84
16, 43589, Note_on_c, 14, 55, 0
16, 43590, Note_on_c, 14, 57, 84
16, 43619, Note_on_c, 14, 57, 0
16, 43620, Note_on_c, 14, 53, 84
16, 43649, Note_on_c, 14, 53, 0
16, 43650, Note_on_c, 14, 55, 84
16, 43679, Note_on_c, 14, 55, 0
16, 43680, Note_on_c, 14, 53, 84
16, 43731, Note_on_c, 14, 53, 0
16, 43740, Note_on_c, 14, 52, 84
16, 43791, Note_on_c, 14, 52, 0
16, 43800, Note_on_c, 14, 53, 84
16, 43851, Note_on_c, 14, 53, 0
16, 43860, Note_on_c, 14, 57, 84
16, 43911, Note_on_c, 14, 57, 0
16, 43920, Note_on_c, 14, 50, 84
16, 43971, Note_on_c, 14, 50, 0
16, 43980, Note_on_c, 14, 52, 84
16, 44031, Note_on_c, 14, 52, 0
16, 44040, Note_on_c, 14, 53, 84
16, 44091, Note_on_c, 14, 53, 0
16, 44100, Note_on_c, 14, 55, 84
16, 44151, Note_on_c, 14, 55, 0
16, 44160, Note_on_c, 14, 48, 84
16, 44211, Note_on_c, 14, 48, 0
16, 44220, Note_on_c, 14, 50, 84
16, 44271, Note_on_c, 14, 50, 0
16, 44280, Note_on_c, 14, 52, 84
16, 44331, Note_on_c, 14, 52, 0
16, 44340, Note_on_c, 14, 53, 84
16, 44391, Note_on_c, 14, 53, 0
16, 44400, Note_on_c, 14, 46, 84
16, 44451, Note_on_c, 14, 46, 0
16, 44460, Note_on_c, 14, 48, 84
16, 44511, Note_on_c, 14, 48, 0
16, 44520, Note_on_c, 14, 50, 84
16, 44571, Note_on_c, 14, 50, 0
16, 44580, Note_on_c, 14, 52, 84
16, 44631, Note_on_c, 14, 52, 0
16, 44640, Note_on_c, 14, 53, 84
16, 44744, Note_on_c, 14, 53, 0
16, 44760, Note_on_c, 14, 60, 84
16, 44984, Note_on_c, 14, 60, 0
16, 45000, Note_on_c, 14, 58, 84
16, 45104, Note_on_c, 14, 58, 0
16, 45120, Note_on_c, 14, 57, 84
16, 45224, Note_on_c, 14, 57, 0
16, 45240, Note_on_c, 14, 57, 84
16, 45344, Note_on_c, 14, 57, 0
16, 45360, Note_on_c, 14, 55, 84
16, 45389, Note_on_c, 14, 55, 0
16, 45390, Note_on_c, 14, 57, 84
16, 45419, Note_on_c, 14, 57, 0
16, 45420, Note_on_c, 14, 55, 84
16, 45449, Note_on_c, 14, 55, 0
16, 45450, Note_on_c, 14, 57, 84
16, 45479, Note_on_c, 14, 57, 0
16, 45480, Note_on_c, 14, 55, 84
16, 45509, Note_on_c, 14, 55, 0
16, 45510, Note_on_c, 14, 57, 84
16, 45539, Note_on_c, 14, 57, 0
16, 45540, Note_on_c, 14, 53, 84
16, 45569, Note_on_c, 14, 53, 0
16, 45570, Note_on_c, 14, 55, 84
16, 45599, Note_on_c, 14, 55, 0
16, 45600, Note_on_c, 14, 53, 84
16, 45704, Note_on_c, 14, 53, 0
16, 45720, Note_on_c, 14, 41, 84
16, 45771, Note_on_c, 14, 41, 0
16, 45780, Note_on_c, 14, 45, 84
16, 45831, Note_on_c, 14, 45, 0
16, 45840, Note_on_c, 14, 36, 84
16, 45891, Note_on_c, 14, 36, 0
16, 45900, Note_on_c, 14, 38, 84
16, 45951, Note_on_c, 14, 38, 0
16, 45960, Note_on_c, 14, 39, 84
16, 46011, Note_on_c, 14, 39, 0
16, 46020, Note_on_c, 14, 40, 84
16, 46071, Note_on_c, 14, 40, 0
16, 46080, Note_on_c, 14, 41, 84
16, 46131, Note_on_c, 14, 41, 0
16, 46140, Note_on_c, 14, 40, 84
16, 46191, Note_on_c, 14, 40, 0
16, 46200, Note_on_c, 14, 41, 84
16, 46251, Note_on_c, 14, 41, 0
16, 46260, Note_on_c, 14, 45, 84
16, 46311, Note_on_c, 14, 45, 0
16, 46320, Note_on_c, 14, 36, 84
16, 46371, Note_on_c, 14, 36, 0
16, 46380, Note_on_c, 14, 38, 84
16, 46431, Note_on_c, 14, 38, 0
16, 46440, Note_on_c, 14, 39, 84
16, 46491, Note_on_c, 14, 39, 0
16, 46500, Note_on_c, 14, 40, 84
16, 46551, Note_on_c, 14, 40, 0
16, 46560, Note_on_c, 14, 41, 84
16, 46611, Note_on_c, 14, 41, 0
16, 46620, Note_on_c, 14, 40, 84
16, 46671, Note_on_c, 14, 40, 0
16, 46680, Note_on_c, 14, 41, 84
16, 46731, Note_on_c, 14, 41, 0
16, 46740, Note_on_c, 14, 45, 84
16, 46791, Note_on_c, 14, 45, 0
16, 46800, Note_on_c, 14, 36, 84
16, 46851, Note_on_c, 14, 36, 0
16, 46860, Note_on_c, 14, 38, 84
16, 46911, Note_on_c, 14, 38, 0
16, 46920, Note_on_c, 14, 39, 84
16, 46971, Note_on_c, 14, 39, 0
16, 46980, Note_on_c, 14, 40, 84
16, 47031, Note_on_c, 14, 40, 0
16, 47040, Note_on_c, 14, 41, 84
16, 47091, Note_on_c, 14, 41, 0
16, 47100, Note_on_c, 14, 40, 84
16, 47151, Note_on_c, 14, 40, 0
16, 47160, Note_on_c, 14, 41, 84
16, 47211, Note_on_c, 14, 41, 0
16, 47220, Note_on_c, 14, 45, 84
16, 47271, Note_on_c, 14, 45, 0
16, 47280, Note_on_c, 14, 36, 84
16, 47331, Note_on_c, 14, 36, 0
16, 47340, Note_on_c, 14, 38, 84
16, 47391, Note_on_c, 14, 38, 0
16, 47400, Note_on_c, 14, 39, 84
16, 47451, Note_on_c, 14, 39, 0
16, 47460, Note_on_c, 14, 40, 84
16, 47511, Note_on_c, 14, 40, 0
16, 47520, Note_on_c, 14, 41, 52
16, 47639, Note_on_c, 14, 41, 0
16, 48720, Note_on_c, 14, 39, 52
16, 48771, Note_on_c, 14, 39, 0
16, 48780, Note_on_c, 14, 41, 52
16, 48831, Note_on_c, 14, 41, 0
16, 48840, Note_on_c, 14, 42, 52
16, 48891, Note_on_c, 14, 42, 0
16, 48900, Note_on_c, 14, 43, 52
16, 48951, Note_on_c, 14, 43, 0
16, 48960, Note_on_c, 14, 45, 52
16, 49079, Note_on_c, 14, 45, 0
16, 49200, Note_on_c, 14, 41, 52
16, 49251, Note_on_c, 14, 41, 0
16, 49260, Note_on_c, 14, 43, 52
16, 49311, Note_on_c, 14, 43, 0
16, 49320, Note_on_c, 14, 44, 52
16, 49371, Note_on_c, 14, 44, 0
16, 49380, Note_on_c, 14, 45, 52
16, 49431, Note_on_c, 14, 45, 0
16, 49440, Note_on_c, 14, 46, 52
16, 49559, Note_on_c, 14, 46, 0
16, 49680, Note_on_c, 14, 58, 52
16, 49799, Note_on_c, 14, 58, 0
16, 49920, Note_on_c, 14, 51, 52
16, 50039, Note_on_c, 14, 51, 0
16, 50640, Note_on_c, 14, 53, 76
16, 50691, Note_on_c, 14, 53, 0
16, 50700, Note_on_c, 14, 51, 76
16, 50751, Note_on_c, 14, 51, 0
16, 50760, Note_on_c, 14, 50, 76
16, 50811, Note_on_c, 14, 50, 0
16, 50820, Note_on_c, 14, 48, 76
16, 50871, Note_on_c, 14, 48, 0
16, 50880, Note_on_c, 14, 46, 76
16, 50931, Note_on_c, 14, 46, 0
16, 50940, Note_on_c, 14, 48, 76
16, 50991, Note_on_c, 14, 48, 0
16, 51000, Note_on_c, 14, 50, 76
16, 51051, Note_on_c, 14, 50, 0
16, 51060, Note_on_c, 14, 46, 76
16, 51111, Note_on_c, 14, 46, 0
16, 51120, Note_on_c, 14, 41, 76
16, 51171, Note_on_c, 14, 41, 0
16, 51180, Note_on_c, 14, 45, 76
16, 51231, Note_on_c, 14, 45, 0
16, 51240, Note_on_c, 14, 48, 76
16, 51291, Note_on_c, 14, 48, 0
16, 51300, Note_on_c, 14, 53, 76
16, 51351, Note_on_c, 14, 53, 0
16, 51360, Note_on_c, 14, 46, 44
16, 51464, Note_on_c, 14, 46, 0
16, 51480, Note_on_c, 14, 46, 44
16, 51584, Note_on_c, 14, 46, 0
16, 51600, Note_on_c, 14, 46, 44
16, 51704, Note_on_c, 14, 46, 0
16, 51720, Note_on_c, 14, 46, 44
16, 51824, Note_on_c, 14, 46, 0
16, 51840, Note_on_c, 14, 46, 44
16, 51959, Note_on_c, 14, 46, 0
16, 52320, Note_on_c, 14, 46, 44
16, 52424, Note_on_c, 14, 46, 0
16, 52440, Note_on_c, 14, 46, 44
16, 52544, Note_on_c, 14, 46, 0
16, 52560, Note_on_c, 14, 46, 44
16, 52664, Note_on_c, 14, 46, 0
16, 52680, Note_on_c, 14, 46, 44
16, 52784, Note_on_c, 14, 46, 0
16, 52800, Note_on_c, 14, 46, 44
16, 52919, Note_on_c, 14, 46, 0
16, 53280, Note_on_c, 14, 46, 44
16, 53384, Note_on_c, 14, 46, 0
16, 53400, Note_on_c, 14, 46, 44
16, 53519, Note_on_c, 14, 46, 0
16, 53760, Note_on_c, 14, 46, 44
16, 53864, Note_on_c, 14, 46, 0
16, 53880, Note_on_c, 14, 46, 44
16, 53999, Note_on_c, 14, 46, 0
16, 54720, Note_on_c, 14, 53, 44
16, 55664, Note_on_c, 14, 53, 0
16, 55680, Note_on_c, 14, 53, 44
16, 55799, Note_on_c, 14, 53, 0
16, 55920, Note_on_c, 14, 53, 44
16, 56039, Note_on_c, 14, 53, 0
16, 56160, Note_on_c, 14, 46, 44
16, 56279, Note_on_c, 14, 46, 0
16, 57600, Note_on_c, 14, 53, 44
16, 57719, Note_on_c, 14, 53, 0
16, 57840, Note_on_c, 14, 53, 44
16, 57959, Note_on_c, 14, 53, 0
16, 58080, Note_on_c, 14, 46, 44
16, 58199, Note_on_c, 14, 46, 0
16, 58560, Note_on_c, 14, 53, 44
16, 58679, Note_on_c, 14, 53, 0
16, 58800, Note_on_c, 14, 53, 64
16, 58919, Note_on_c, 14, 53, 0
16, 59040, Note_on_c, 14, 58, 84
16, 59091, Note_on_c, 14, 58, 0
16, 59100, Note_on_c, 14, 57, 84
16, 59151, Note_on_c, 14, 57, 0
16, 59160, Note_on_c, 14, 58, 84
16, 59211, Note_on_c, 14, 58, 0
16, 59220, Note_on_c, 14, 62, 84
16, 59271, Note_on_c, 14, 62, 0
16, 59280, Note_on_c, 14, 60, 84
16, 59331, Note_on_c, 14, 60, 0
16, 59340, Note_on_c, 14, 58, 84
16, 59391, Note_on_c, 14, 58, 0
16, 59400, Note_on_c, 14, 57, 84
16, 59451, Note_on_c, 14, 57, 0
16, 59460, Note_on_c, 14, 58, 84
16, 59511, Note_on_c, 14, 58, 0
16, 59520, Note_on_c, 14, 57, 84
16, 59571, Note_on_c, 14, 57, 0
16, 59580, Note_on_c, 14, 55, 84
16, 59631, Note_on_c, 14, 55, 0
16, 59640, Note_on_c, 14, 53, 84
16, 59691, Note_on_c, 14, 53, 0
16, 59700, Note_on_c, 14, 55, 84
16, 59751, Note_on_c, 14, 55, 0
16, 59760, Note_on_c, 14, 53, 84
16, 59811, Note_on_c, 14, 53, 0
16, 59820, Note_on_c, 14, 51, 84
16, 59871, Note_on_c, 14, 51, 0
16, 59880, Note_on_c, 14, 50, 84
16, 59931, Note_on_c, 14, 50, 0
16, 59940, Note_on_c, 14, 51, 84
16, 59991, Note_on_c, 14, 51, 0
16, 60000, Note_on_c, 14, 50, 84
16, 60051, Note_on_c, 14, 50, 0
16, 60060, Note_on_c, 14, 60, 84
16, 60111, Note_on_c, 14, 60, 0
16, 60120, Note_on_c, 14, 58, 84
16, 60171, Note_on_c, 14, 58, 0
16, 60180, Note_on_c, 14, 60, 84
16, 60231, Note_on_c, 14, 60, 0
16, 60240, Note_on_c, 14, 58, 84
16, 60291, Note_on_c, 14, 58, 0
16, 60300, Note_on_c, 14, 57, 84
16, 60351, Note_on_c, 14, 57, 0
16, 60360, Note_on_c, 14, 55, 84
16, 60411, Note_on_c, 14, 55, 0
16, 60420, Note_on_c, 14, 57, 84
16, 60471, Note_on_c, 14, 57, 0
16, 60480, Note_on_c, 14, 55, 84
16, 60531, Note_on_c, 14, 55, 0
16, 60540, Note_on_c, 14, 53, 84
16, 60591, Note_on_c, 14, 53, 0
16, 60600, Note_on_c, 14, 51, 84
16, 60651, Note_on_c, 14, 51, 0
16, 60660, Note_on_c, 14, 50, 84
16, 60711, Note_on_c, 14, 50, 0
16, 60720, Note_on_c, 14, 48, 84
16, 60824, Note_on_c, 14, 48, 0
16, 60840, Note_on_c, 14, 53, 84
16, 60944, Note_on_c, 14, 53, 0
16, 60960, Note_on_c, 14, 46, 84
16, 61064, Note_on_c, 14, 46, 0
16, 61080, Note_on_c, 14, 46, 84
16, 61184, Note_on_c, 14, 46, 0
16, 61200, Note_on_c, 14, 46, 84
16, 61304, Note_on_c, 14, 46, 0
16, 61320, Note_on_c, 14, 46, 84
16, 61424, Note_on_c, 14, 46, 0
16, 61440, Note_on_c, 14, 46, 84
16, 61544, Note_on_c, 14, 46, 0
16, 61560, Note_on_c, 14, 46, 84
16, 61664, Note_on_c, 14, 46, 0
16, 61680, Note_on_c, 14, 46, 84
16, 61784, Note_on_c, 14, 46, 0
16, 61800, Note_on_c, 14, 46, 84
16, 61904, Note_on_c, 14, 46, 0
16, 61920, Note_on_c, 14, 46, 84
16, 62024, Note_on_c, 14, 46, 0
16, 62040, Note_on_c, 14, 46, 84
16, 62144, Note_on_c, 14, 46, 0
16, 62160, Note_on_c, 14, 46, 84
16, 62264, Note_on_c, 14, 46, 0
16, 62280, Note_on_c, 14, 46, 84
16, 62384, Note_on_c, 14, 46, 0
16, 62400, Note_on_c, 14, 46, 84
16, 62504, Note_on_c, 14, 46, 0
16, 62520, Note_on_c, 14, 46, 84
16, 62624, Note_on_c, 14, 46, 0
16, 62640, Note_on_c, 14, 46, 84
16, 62744, Note_on_c, 14, 46, 0
16, 62760, Note_on_c, 14, 46, 84
16, 62864, Note_on_c, 14, 46, 0
16, 62880, Note_on_c, 14, 58, 84
16, 62984, Note_on_c, 14, 58, 0
16, 63000, Note_on_c, 14, 62, 84
16, 63104, Note_on_c, 14, 62, 0
16, 63120, Note_on_c, 14, 55, 84
16, 63224, Note_on_c, 14, 55, 0
16, 63240, Note_on_c, 14, 58, 84
16, 63344, Note_on_c, 14, 58, 0
16, 63360, Note_on_c, 14, 52, 84
16, 63464, Note_on_c, 14, 52, 0
16, 63480, Note_on_c, 14, 55, 84
16, 63584, Note_on_c, 14, 55, 0
16, 63600, Note_on_c, 14, 48, 84
16, 63704, Note_on_c, 14, 48, 0
16, 63720, Note_on_c, 14, 52, 84
16, 63824, Note_on_c, 14, 52, 0
16, 63840, Note_on_c, 14, 53, 84
16, 63944, Note_on_c, 14, 53, 0
16, 63960, Note_on_c, 14, 60, 84
16, 64064, Note_on_c, 14, 60, 0
16, 64080, Note_on_c, 14, 53, 84
16, 64184, Note_on_c, 14, 53, 0
16, 64200, Note_on_c, 14, 57, 84
16, 64304, Note_on_c, 14, 57, 0
16, 64320, Note_on_c, 14, 50, 84
16, 64424, Note_on_c, 14, 50, 0
16, 64440, Note_on_c, 14, 53, 84
16, 64544, Note_on_c, 14, 53, 0
16, 64560, Note_on_c, 14, 45, 84
16, 64664, Note_on_c, 14, 45, 0
16, 64680, Note_on_c, 14, 47, 84
16, 64784, Note_on_c, 14, 47, 0
16, 64800, Note_on_c, 14, 48, 84
16, 65384, Note_on_c, 14, 48, 0
16, 65400, Note_on_c, 14, 49, 84
16, 65519, Note_on_c, 14, 49, 0
16, 65520, Note_on_c, 14, 48, 84
16, 65639, Note_on_c, 14, 48, 0
16, 65640, Note_on_c, 14, 49, 84
16, 65744, Note_on_c, 14, 49, 0
16, 65760, Note_on_c, 14, 48, 84
16, 65864, Note_on_c, 14, 48, 0
16, 65880, Note_on_c, 14, 58, 84
16, 65999, Note_on_c, 14, 58, 0
16, 66000, Note_on_c, 14, 55, 84
16, 66119, Note_on_c, 14, 55, 0
16, 66120, Note_on_c, 14, 52, 84
16, 66224, Note_on_c, 14, 52, 0
16, 66240, Note_on_c, 14, 48, 84
16, 66359, Note_on_c, 14, 48, 0
16, 66720, Note_on_c, 14, 41, 52
16, 67199, Note_on_c, 14, 41, 0
16, 67200, Note_on_c, 14, 48, 52
16, 67679, Note_on_c, 14, 48, 0
16, 67680, Note_on_c, 14, 53, 52
16, 68159, Note_on_c, 14, 53, 0
16, 68160, Note_on_c, 14, 48, 52
16, 68624, Note_on_c, 14, 48, 0
16, 68640, Note_on_c, 14, 43, 52
16, 68984, Note_on_c, 14, 43, 0
16, 69000, Note_on_c, 14, 43, 52
16, 69104, Note_on_c, 14, 43, 0
16, 69120, Note_on_c, 14, 48, 52
16, 69239, Note_on_c, 14, 48, 0
16, 69360, Note_on_c, 14, 52, 52
16, 69479, Note_on_c, 14, 52, 0
16, 69600, Note_on_c, 14, 55, 52
16, 69719, Note_on_c, 14, 55, 0
16, 69840, Note_on_c, 14, 43, 52
16, 69959, Note_on_c, 14, 43, 0
16, 70080, Note_on_c, 14, 48, 52
16, 70199, Note_on_c, 14, 48, 0
16, 70560, Note_on_c, 14, 53, 52
16, 70904, Note_on_c, 14, 53, 0
16, 70920, Note_on_c, 14, 53, 52
16, 71039, Note_on_c, 14, 53, 0
16, 71040, Note_on_c, 14, 52, 52
16, 71159, Note_on_c, 14, 52, 0
16, 71160, Note_on_c, 14, 60, 52
16, 71279, Note_on_c, 14, 60, 0
16, 71280, Note_on_c, 14, 58, 52
16, 71399, Note_on_c, 14, 58, 0
16, 71400, Note_on_c, 14, 55, 52
16, 71519, Note_on_c, 14, 55, 0
16, 71520, Note_on_c, 14, 57, 52
16, 71639, Note_on_c, 14, 57, 0
16, 71640, Note_on_c, 14, 53, 52
16, 71759, Note_on_c, 14, 53, 0
16, 71760, Note_on_c, 14, 52, 52
16, 71879, Note_on_c, 14, 52, 0
16, 71880, Note_on_c, 14, 53, 52
16, 71999, Note_on_c, 14, 53, 0
16, 72000, Note_on_c, 14, 54, 52
16, 72119, Note_on_c, 14, 54, 0
16, 72120, Note_on_c, 14, 55, 52
16, 72224, Note_on_c, 14, 55, 0
16, 72240, Note_on_c, 14, 52, 52
16, 72329, Note_on_c, 14, 52, 0
16, 72360, Note_on_c, 14, 48, 52
16, 72449, Note_on_c, 14, 48, 0
16, 72480, Note_on_c, 14, 43, 52
16, 72599, Note_on_c, 14, 43, 0
16, 72600, Note_on_c, 14, 45, 52
16, 72719, Note_on_c, 14, 45, 0
16, 72720, Note_on_c, 14, 46, 52
16, 72839, Note_on_c, 14, 46, 0
16, 72840, Note_on_c, 14, 47, 52
16, 73064, Note_on_c, 14, 47, 0
16, 73080, Note_on_c, 14, 48, 52
16, 73304, Note_on_c, 14, 48, 0
16, 73320, Note_on_c, 14, 52, 52
16, 73544, Note_on_c, 14, 52, 0
16, 73560, Note_on_c, 14, 55, 52
16, 73784, Note_on_c, 14, 55, 0
16, 73800, Note_on_c, 14, 43, 52
16, 73904, Note_on_c, 14, 43, 0
16, 73920, Note_on_c, 14, 48, 52
16, 74039, Note_on_c, 14, 48, 0
16, 75240, Note_on_c, 14, 53, 76
16, 75344, Note_on_c, 14, 53, 0
16, 75360, Note_on_c, 14, 52, 76
16, 75479, Note_on_c, 14, 52, 0
16, 75480, Note_on_c, 14, 50, 76
16, 75584, Note_on_c, 14, 50, 0
16, 75600, Note_on_c, 14, 52, 76
16, 75689, Note_on_c, 14, 52, 0
16, 75720, Note_on_c, 14, 53, 76
16, 75809, Note_on_c, 14, 53, 0
16, 75840, Note_on_c, 14, 55, 76
16, 76079, Note_on_c, 14, 55, 0
16, 77160, Note_on_c, 14, 53, 76
16, 77264, Note_on_c, 14, 53, 0
16, 77280, Note_on_c, 14, 52, 76
16, 77399, Note_on_c, 14, 52, 0
16, 77400, Note_on_c, 14, 50, 76
16, 77504, Note_on_c, 14, 50, 0
16, 77520, Note_on_c, 14, 52, 76
16, 77609, Note_on_c, 14, 52, 0
16, 77640, Note_on_c, 14, 53, 76
16, 77729, Note_on_c, 14, 53, 0
16, 77760, Note_on_c, 14, 55, 76
16, 77864, Note_on_c, 14, 55, 0
16, 77880, Note_on_c, 14, 55, 76
16, 77999, Note_on_c, 14, 55, 0
16, 78120, Note_on_c, 14, 53, 76
16, 78224, Note_on_c, 14, 53, 0
16, 78240, Note_on_c, 14, 52, 76
16, 78359, Note_on_c, 14, 52, 0
16, 78360, Note_on_c, 14, 50, 76
16, 78464, Note_on_c, 14, 50, 0
16, 78480, Note_on_c, 14, 52, 76
16, 78569, Note_on_c, 14, 52, 0
16, 78600, Note_on_c, 14, 53, 76
16, 78689, Note_on_c, 14, 53, 0
16, 78720, Note_on_c, 14, 55, 76
16, 78824, Note_on_c, 14, 55, 0
16, 78840, Note_on_c, 14, 55, 76
16, 78959, Note_on_c, 14, 55, 0
16, 79080, Note_on_c, 14, 57, 76
16, 79184, Note_on_c, 14, 57, 0
16, 79200, Note_on_c, 14, 58, 76
16, 79304, Note_on_c, 14, 58, 0
16, 79320, Note_on_c, 14, 57, 76
16, 79424, Note_on_c, 14, 57, 0
16, 79440, Note_on_c, 14, 58, 76
16, 79544, Note_on_c, 14, 58, 0
16, 79560, Note_on_c, 14, 55, 76
16, 79664, Note_on_c, 14, 55, 0
16, 79680, Note_on_c, 14, 53, 84
16, 79784, Note_on_c, 14, 53, 0
16, 79800, Note_on_c, 14, 41, 84
16, 79904, Note_on_c, 14, 41, 0
16, 79920, Note_on_c, 14, 41, 84
16, 80024, Note_on_c, 14, 41, 0
16, 80040, Note_on_c, 14, 41, 84
16, 80144, Note_on_c, 14, 41, 0
16, 80160, Note_on_c, 14, 41, 84
16, 80264, Note_on_c, 14, 41, 0
16, 80280, Note_on_c, 14, 41, 84
16, 80384, Note_on_c, 14, 41, 0
16, 80400, Note_on_c, 14, 41, 84
16, 80504, Note_on_c, 14, 41, 0
16, 80520, Note_on_c, 14, 41, 84
16, 80624, Note_on_c, 14, 41, 0
16, 80640, Note_on_c, 14, 41, 92
16, 81089, Note_on_c, 14, 41, 0
16, 81120, Note_on_c, 14, 41, 92
16, 81569, Note_on_c, 14, 41, 0
16, 81600, Note_on_c, 14, 41, 92
16, 82049, Note_on_c, 14, 41, 0
16, 82080, Note_on_c, 14, 41, 92
16, 82529, Note_on_c, 14, 41, 0
16, 82560, Note_on_c, 14, 52, 52
16, 82664, Note_on_c, 14, 52, 0
16, 82680, Note_on_c, 14, 64, 52
16, 82784, Note_on_c, 14, 64, 0
16, 82800, Note_on_c, 14, 64, 52
16, 82904, Note_on_c, 14, 64, 0
16, 82920, Note_on_c, 14, 64, 52
16, 83024, Note_on_c, 14, 64, 0
16, 83040, Note_on_c, 14, 64, 52
16, 83144, Note_on_c, 14, 64, 0
16, 83160, Note_on_c, 14, 64, 52
16, 83264, Note_on_c, 14, 64, 0
16, 83280, Note_on_c, 14, 65, 52
16, 83384, Note_on_c, 14, 65, 0
16, 83400, Note_on_c, 14, 65, 52
16, 83504, Note_on_c, 14, 65, 0
16, 83520, Note_on_c, 14, 62, 52
16, 83624, Note_on_c, 14, 62, 0
16, 83640, Note_on_c, 14, 62, 52
16, 83744, Note_on_c, 14, 62, 0
16, 83760, Note_on_c, 14, 58, 52
16, 83864, Note_on_c, 14, 58, 0
16, 83880, Note_on_c, 14, 58, 52
16, 83984, Note_on_c, 14, 58, 0
16, 84000, Note_on_c, 14, 60, 52
16, 84104, Note_on_c, 14, 60, 0
16, 84120, Note_on_c, 14, 60, 52
16, 84224, Note_on_c, 14, 60, 0
16, 84240, Note_on_c, 14, 48, 52
16, 84344, Note_on_c, 14, 48, 0
16, 84360, Note_on_c, 14, 48, 52
16, 84464, Note_on_c, 14, 48, 0
16, 84480, Note_on_c, 14, 41, 84
16, 84944, Note_on_c, 14, 41, 0
16, 84960, Note_on_c, 14, 41, 92
16, 85409, Note_on_c, 14, 41, 0
16, 85440, Note_on_c, 14, 41, 92
16, 85889, Note_on_c, 14, 41, 0
16, 85920, Note_on_c, 14, 41, 92
16, 86369, Note_on_c, 14, 41, 0
16, 86400, Note_on_c, 14, 54, 52
16, 86504, Note_on_c, 14, 54, 0
16, 86520, Note_on_c, 14, 66, 52
16, 86624, Note_on_c, 14, 66, 0
16, 86640, Note_on_c, 14, 66, 52
16, 86744, Note_on_c, 14, 66, 0
16, 86760, Note_on_c, 14, 66, 52
16, 86864, Note_on_c, 14, 66, 0
16, 86880, Note_on_c, 14, 66, 52
16, 86984, Note_on_c, 14, 66, 0
16, 87000, Note_on_c, 14, 66, 52
16, 87104, Note_on_c, 14, 66, 0
16, 87120, Note_on_c, 14, 67, 52
16, 87224, Note_on_c, 14, 67, 0
16, 87240, Note_on_c, 14, 67, 52
16, 87344, Note_on_c, 14, 67, 0
16, 87360, Note_on_c, 14, 58, 52
16, 87464, Note_on_c, 14, 58, 0
16, 87480, Note_on_c, 14, 58, 52
16, 87584, Note_on_c, 14, 58, 0
16, 87600, Note_on_c, 14, 58, 52
16, 87704, Note_on_c, 14, 58, 0
16, 87720, Note_on_c, 14, 58, 52
16, 87824, Note_on_c, 14, 58, 0
16, 87840, Note_on_c, 14, 60, 52
16, 87944, Note_on_c, 14, 60, 0
16, 87960, Note_on_c, 14, 60, 52
16, 88064, Note_on_c, 14, 60, 0
16, 88080, Note_on_c, 14, 58, 52
16, 88184, Note_on_c, 14, 58, 0
16, 88200, Note_on_c, 14, 58, 52
16, 88304, Note_on_c, 14, 58, 0
16, 88320, Note_on_c, 14, 57, 52
16, 88424, Note_on_c, 14, 57, 0
16, 88440, Note_on_c, 14, 57, 54
16, 88544, Note_on_c, 14, 57, 0
16, 88560, Note_on_c, 14, 62, 56
16, 88664, Note_on_c, 14, 62, 0
16, 88680, Note_on_c, 14, 62, 58
16, 88784, Note_on_c, 14, 62, 0
16, 88800, Note_on_c, 14, 58, 60
16, 88904, Note_on_c, 14, 58, 0
16, 88920, Note_on_c, 14, 58, 62
16, 89024, Note_on_c, 14, 58, 0
16, 89040, Note_on_c, 14, 60, 64
16, 89144, Note_on_c, 14, 60, 0
16, 89160, Note_on_c, 14, 60, 66
16, 89264, Note_on_c, 14, 60, 0
16, 89280, Note_on_c, 14, 57, 68
16, 89384, Note_on_c, 14, 57, 0
16, 89400, Note_on_c, 14, 57, 70
16, 89504, Note_on_c, 14, 57, 0
16, 89520, Note_on_c, 14, 62, 72
16, 89624, Note_on_c, 14, 62, 0
16, 89640, Note_on_c, 14, 62, 74
16, 89744, Note_on_c, 14, 62, 0
16, 89760, Note_on_c, 14, 58, 76
16, 89864, Note_on_c, 14, 58, 0
16, 89880, Note_on_c, 14, 58, 78
16, 89984, Note_on_c, 14, 58, 0
16, 90000, Note_on_c, 14, 60, 80
16, 90104, Note_on_c, 14, 60, 0
16, 90120, Note_on_c, 14, 60, 82
16, 90224, Note_on_c, 14, 60, 0
16, 90240, Note_on_c, 14, 57, 84
16, 90291, Note_on_c, 14, 57, 0
16, 90300, Note_on_c, 14, 57, 84
16, 90351, Note_on_c, 14, 57, 0
16, 90360, Note_on_c, 14, 57, 84
16, 90411, Note_on_c, 14, 57, 0
16, 90420, Note_on_c, 14, 57, 84
16, 90471, Note_on_c, 14, 57, 0
16, 90480, Note_on_c, 14, 62, 84
16, 90531, Note_on_c, 14, 62, 0
16, 90540, Note_on_c, 14, 62, 84
16, 90591, Note_on_c, 14, 62, 0
16, 90600, Note_on_c, 14, 62, 84
16, 90651, Note_on_c, 14, 62, 0
16, 90660, Note_on_c, 14, 62, 84
16, 90711, Note_on_c, 14, 62, 0
16, 90720, Note_on_c, 14, 58, 84
16, 90771, Note_on_c, 14, 58, 0
16, 90780, Note_on_c, 14, 58, 84
16, 90831, Note_on_c, 14, 58, 0
16, 90840, Note_on_c, 14, 58, 84
16, 90891, Note_on_c, 14, 58, 0
16, 90900, Note_on_c, 14, 58, 84
16, 90951, Note_on_c, 14, 58, 0
16, 90960, Note_on_c, 14, 60, 84
16, 91011, Note_on_c, 14, 60, 0
16, 91020, Note_on_c, 14, 60, 84
16, 91071, Note_on_c, 14, 60, 0
16, 91080, Note_on_c, 14, 60, 84
16, 91131, Note_on_c, 14, 60, 0
16, 91140, Note_on_c, 14, 60, 84
16, 91191, Note_on_c, 14, 60, 0
16, 91200, Note_on_c, 14, 53, 84
16, 91251, Note_on_c, 14, 53, 0
16, 91260, Note_on_c, 14, 52, 84
16, 91311, Note_on_c, 14, 52, 0
16, 91320, Note_on_c, 14, 53, 84
16, 91371, Note_on_c, 14, 53, 0
16, 91380, Note_on_c, 14, 57, 84
16, 91431, Note_on_c, 14, 57, 0
16, 91440, Note_on_c, 14, 50, 84
16, 91491, Note_on_c, 14, 50, 0
16, 91500, Note_on_c, 14, 52, 84
16, 91551, Note_on_c, 14, 52, 0
16, 91560, Note_on_c, 14, 53, 84
16, 91611, Note_on_c, 14, 53, 0
16, 91620, Note_on_c, 14, 55, 84
16, 91671, Note_on_c, 14, 55, 0
16, 91680, Note_on_c, 14, 48, 84
16, 91731, Note_on_c, 14, 48, 0
16, 91740, Note_on_c, 14, 50, 84
16, 91791, Note_on_c, 14, 50, 0
16, 91800, Note_on_c, 14, 52, 84
16, 91851, Note_on_c, 14, 52, 0
16, 91860, Note_on_c, 14, 53, 84
16, 91911, Note_on_c, 14, 53, 0
16, 91920, Note_on_c, 14, 46, 84
16, 91971, Note_on_c, 14, 46, 0
16, 91980, Note_on_c, 14, 48, 84
16, 92031, Note_on_c, 14, 48, 0
16, 92040, Note_on_c, 14, 50, 84
16, 92091, Note_on_c, 14, 50, 0
16, 92100, Note_on_c, 14, 52, 84
16, 92151, Note_on_c, 14, 52, 0
16, 92160, Note_on_c, 14, 60, 84
16, 92504, Note_on_c, 14, 60, 0
16, 92520, Note_on_c, 14, 58, 84
16, 92624, Note_on_c, 14, 58, 0
16, 92640, Note_on_c, 14, 57, 84
16, 92744, Note_on_c, 14, 57, 0
16, 92760, Note_on_c, 14, 57, 84
16, 92864, Note_on_c, 14, 57, 0
16, 92880, Note_on_c, 14, 55, 84
16, 92909, Note_on_c, 14, 55, 0
16, 92910, Note_on_c, 14, 57, 84
16, 92939, Note_on_c, 14, 57, 0
16, 92940, Note_on_c, 14, 55, 84
16, 92969, Note_on_c, 14, 55, 0
16, 92970, Note_on_c, 14, 57, 84
16, 92999, Note_on_c, 14, 57, 0
16, 93000, Note_on_c, 14, 55, 84
16, 93029, Note_on_c, 14, 55, 0
16, 93030, Note_on_c, 14, 57, 84
16, 93059, Note_on_c, 14, 57, 0
16, 93060, Note_on_c, 14, 53, 84
16, 93089, Note_on_c, 14, 53, 0
16, 93090, Note_on_c, 14, 55, 84
16, 93119, Note_on_c, 14, 55, 0
16, 93120, Note_on_c, 14, 53, 84
16, 93171, Note_on_c, 14, 53, 0
16, 93180, Note_on_c, 14, 52, 84
16, 93231, Note_on_c, 14, 52, 0
16, 93240, Note_on_c, 14, 53, 84
16, 93291, Note_on_c, 14, 53, 0
16, 93300, Note_on_c, 14, 57, 84
16, 93351, Note_on_c, 14, 57, 0
16, 93360, Note_on_c, 14, 50, 84
16, 93411, Note_on_c, 14, 50, 0
16, 93420, Note_on_c, 14, 52, 84
16, 93471, Note_on_c, 14, 52, 0
16, 93480, Note_on_c, 14, 53, 84
16, 93531, Note_on_c, 14, 53, 0
16, 93540, Note_on_c, 14, 55, 84
16, 93591, Note_on_c, 14, 55, 0
16, 93600, Note_on_c, 14, 48, 84
16, 93651, Note_on_c, 14, 48, 0
16, 93660, Note_on_c, 14, 50, 84
16, 93711, Note_on_c, 14, 50, 0
16, 93720, Note_on_c, 14, 52, 84
16, 93771, Note_on_c, 14, 52, 0
16, 93780, Note_on_c, 14, 53, 84
16, 93831, Note_on_c, 14, 53, 0
16, 93840, Note_on_c, 14, 46, 84
16, 93891, Note_on_c, 14, 46, 0
16, 93900, Note_on_c, 14, 48, 84
16, 93951, Note_on_c, 14, 48, 0
16, 93960, Note_on_c, 14, 50, 84
16, 94011, Note_on_c, 14, 50, 0
16, 94020, Note_on_c, 14, 52, 84
16, 94071, Note_on_c, 14, 52, 0
16, 94080, Note_on_c, 14, 53, 84
16, 94184, Note_on_c, 14, 53, 0
16, 94200, Note_on_c, 14, 60, 84
16, 94424, Note_on_c, 14, 60, 0
16, 94440, Note_on_c, 14, 58, 84
16, 94544, Note_on_c, 14, 58, 0
16, 94560, Note_on_c, 14, 57, 84
16, 94664, Note_on_c, 14, 57, 0
16, 94680, Note_on_c, 14, 57, 84
16, 94784, Note_on_c, 14, 57, 0
16, 94800, Note_on_c, 14, 55, 84
16, 94829, Note_on_c, 14, 55, 0
16, 94830, Note_on_c, 14, 57, 84
16, 94859, Note_on_c, 14, 57, 0
16, 94860, Note_on_c, 14, 55, 84
16, 94889, Note_on_c, 14, 55, 0
16, 94890, Note_on_c, 14, 57, 84
16, 94919, Note_on_c, 14, 57, 0
16, 94920, Note_on_c, 14, 55, 84
16, 94949, Note_on_c, 14, 55, 0
16, 94950, Note_on_c, 14, 57, 84
16, 94979, Note_on_c, 14, 57, 0
16, 94980, Note_on_c, 14, 53, 84
16, 95009, Note_on_c, 14, 53, 0
16, 95010, Note_on_c, 14, 55, 84
16, 95039, Note_on_c, 14, 55, 0
16, 95040, Note_on_c, 14, 53, 84
16, 95144, Note_on_c, 14, 53, 0
16, 95160, Note_on_c, 14, 41, 84
16, 95211, Note_on_c, 14, 41, 0
16, 95220, Note_on_c, 14, 45, 84
16, 95271, Note_on_c, 14, 45, 0
16, 95280, Note_on_c, 14, 36, 84
16, 95331, Note_on_c, 14, 36, 0
16, 95340, Note_on_c, 14, 38, 84
16, 95391, Note_on_c, 14, 38, 0
16, 95400, Note_on_c, 14, 39, 84
16, 95451, Note_on_c, 14, 39, 0
16, 95460, Note_on_c, 14, 40, 84
16, 95511, Note_on_c, 14, 40, 0
16, 95520, Note_on_c, 14, 41, 84
16, 95571, Note_on_c, 14, 41, 0
16, 95580, Note_on_c, 14, 40, 84
16, 95631, Note_on_c, 14, 40, 0
16, 95640, Note_on_c, 14, 41, 84
16, 95691, Note_on_c, 14, 41, 0
16, 95700, Note_on_c, 14, 45, 84
16, 95751, Note_on_c, 14, 45, 0
16, 95760, Note_on_c, 14, 36, 84
16, 95811, Note_on_c, 14, 36, 0
16, 95820, Note_on_c, 14, 38, 84
16, 95871, Note_on_c, 14, 38, 0
16, 95880, Note_on_c, 14, 39, 84
16, 95931, Note_on_c, 14, 39, 0
16, 95940, Note_on_c, 14, 40, 84
16, 95991, Note_on_c, 14, 40, 0
16, 96000, Note_on_c, 14, 41, 84
16, 96051, Note_on_c, 14, 41, 0
16, 96060, Note_on_c, 14, 40, 84
16, 96111, Note_on_c, 14, 40, 0
16, 96120, Note_on_c, 14, 41, 84
16, 96171, Note_on_c, 14, 41, 0
16, 96180, Note_on_c, 14, 45, 84
16, 96231, Note_on_c, 14, 45, 0
16, 96240, Note_on_c, 14, 36, 84
16, 96291, Note_on_c, 14, 36, 0
16, 96300, Note_on_c, 14, 38, 84
16, 96351, Note_on_c, 14, 38, 0
16, 96360, Note_on_c, 14, 39, 84
16, 96411, Note_on_c, 14, 39, 0
16, 96420, Note_on_c, 14, 40, 84
16, 96471, Note_on_c, 14, 40, 0
16, 96480, Note_on_c, 14, 41, 84
16, 96531, Note_on_c, 14, 41, 0
16, 96540, Note_on_c, 14, 40, 84
16, 96591, Note_on_c, 14, 40, 0
16, 96600, Note_on_c, 14, 41, 84
16, 96651, Note_on_c, 14, 41, 0
16, 96660, Note_on_c, 14, 45, 84
16, 96711, Note_on_c, 14, 45, 0
16, 96720, Note_on_c, 14, 36, 84
16, 96771, Note_on_c, 14, 36, 0
16, 96780, Note_on_c, 14, 38, 84
16, 96831, Note_on_c, 14, 38, 0
16, 96840, Note_on_c, 14, 39, 84
16, 96891, Note_on_c, 14, 39, 0
16, 96900, Note_on_c, 14, 40, 84
16, 96951, Note_on_c, 14, 40, 0
16, 96960, Note_on_c, 14, 41, 52
16, 97079, Note_on_c, 14, 41, 0
16, 98160, Note_on_c, 14, 38, 52
16, 98211, Note_on_c, 14, 38, 0
16, 98220, Note_on_c, 14, 39, 52
16, 98271, Note_on_c, 14, 39, 0
16, 98280, Note_on_c, 14, 41, 52
16, 98331, Note_on_c, 14, 41, 0
16, 98340, Note_on_c, 14, 42, 52
16, 98391, Note_on_c, 14, 42, 0
16, 98400, Note_on_c, 14, 43, 52
16, 98519, Note_on_c, 14, 43, 0
16, 98640, Note_on_c, 14, 39, 52
16, 98691, Note_on_c, 14, 39, 0
16, 98700, Note_on_c, 14, 41, 52
16, 98751, Note_on_c, 14, 41, 0
16, 98760, Note_on_c, 14, 42, 52
16, 98811, Note_on_c, 14, 42, 0
16, 98820, Note_on_c, 14, 43, 52
16, 98871, Note_on_c, 14, 43, 0
16, 98880, Note_on_c, 14, 44, 52
16, 98984, Note_on_c, 14, 44, 0
16, 99000, Note_on_c, 14, 56, 52
16, 99119, Note_on_c, 14, 56, 0
16, 99240, Note_on_c, 14, 56, 52
16, 99344, Note_on_c, 14, 56, 0
16, 99360, Note_on_c, 14, 56, 52
16, 99464, Note_on_c, 14, 56, 0
16, 99480, Note_on_c, 14, 56, 52
16, 99599, Note_on_c, 14, 56, 0
16, 99720, Note_on_c, 14, 56, 52
16, 99824, Note_on_c, 14, 56, 0
16, 99840, Note_on_c, 14, 56, 52
16, 99944, Note_on_c, 14, 56, 0
16, 99960, Note_on_c, 14, 56, 52
16, 100079, Note_on_c, 14, 56, 0
16, 100200, Note_on_c, 14, 56, 52
16, 100304, Note_on_c, 14, 56, 0
16, 100320, Note_on_c, 14, 56, 52
16, 100424, Note_on_c, 14, 56, 0
16, 100440, Note_on_c, 14, 56, 52
16, 100544, Note_on_c, 14, 56, 0
16, 100560, Note_on_c, 14, 53, 52
16, 100664, Note_on_c, 14, 53, 0
16, 100680, Note_on_c, 14, 53, 52
16, 100784, Note_on_c, 14, 53, 0
16, 100800, Note_on_c, 14, 58, 52
16, 100904, Note_on_c, 14, 58, 0
16, 100920, Note_on_c, 14, 58, 52
16, 101039, Note_on_c, 14, 58, 0
16, 101160, Note_on_c, 14, 58, 54
16, 101264, Note_on_c, 14, 58, 0
16, 101280, Note_on_c, 14, 58, 55
16, 101384, Note_on_c, 14, 58, 0
16, 101400, Note_on_c, 14, 58, 56
16, 101519, Note_on_c, 14, 58, 0
16, 101640, Note_on_c, 14, 58, 58
16, 101744, Note_on_c, 14, 58, 0
16, 101760, Note_on_c, 14, 58, 59
16, 101864, Note_on_c, 14, 58, 0
16, 101880, Note_on_c, 14, 58, 60
16, 101999, Note_on_c, 14, 58, 0
16, 102120, Note_on_c, 14, 58, 62
16, 102224, Note_on_c, 14, 58, 0
16, 102240, Note_on_c, 14, 58, 63
16, 102344, Note_on_c, 14, 58, 0
16, 102360, Note_on_c, 14, 58, 64
16, 102464, Note_on_c, 14, 58, 0
16, 102480, Note_on_c, 14, 55, 65
16, 102584, Note_on_c, 14, 55, 0
16, 102600, Note_on_c, 14, 55, 66
16, 102704, Note_on_c, 14, 55, 0
16, 102720, Note_on_c, 14, 60, 67
16, 102824, Note_on_c, 14, 60, 0
16, 102840, Note_on_c, 14, 60, 68
16, 102959, Note_on_c, 14, 60, 0
16, 103080, Note_on_c, 14, 60, 70
16, 103184, Note_on_c, 14, 60, 0
16, 103200, Note_on_c, 14, 60, 71
16, 103304, Note_on_c, 14, 60, 0
16, 103320, Note_on_c, 14, 60, 72
16, 103424, Note_on_c, 14, 60, 0
16, 103440, Note_on_c, 14, 57, 73
16, 103544, Note_on_c, 14, 57, 0
16, 103560, Note_on_c, 14, 57, 74
16, 103664, Note_on_c, 14, 57, 0
16, 103680, Note_on_c, 14, 62, 76
16, 103731, Note_on_c, 14, 62, 0
16, 103740, Note_on_c, 14, 62, 76
16, 103791, Note_on_c, 14, 62, 0
16, 103800, Note_on_c, 14, 62, 76
16, 103851, Note_on_c, 14, 62, 0
16, 103860, Note_on_c, 14, 62, 76
16, 103911, Note_on_c, 14, 62, 0
16, 103920, Note_on_c, 14, 62, 76
16, 103971, Note_on_c, 14, 62, 0
16, 103980, Note_on_c, 14, 62, 76
16, 104031, Note_on_c, 14, 62, 0
16, 104040, Note_on_c, 14, 62, 76
16, 104091, Note_on_c, 14, 62, 0
16, 104100, Note_on_c, 14, 62, 76
16, 104151, Note_on_c, 14, 62, 0
16, 104160, Note_on_c, 14, 62, 76
16, 104211, Note_on_c, 14, 62, 0
16, 104220, Note_on_c, 14, 62, 76
16, 104271, Note_on_c, 14, 62, 0
16, 104280, Note_on_c, 14, 62, 76
16, 104331, Note_on_c, 14, 62, 0
16, 104340, Note_on_c, 14, 62, 76
16, 104391, Note_on_c, 14, 62, 0
16, 104400, Note_on_c, 14, 62, 76
16, 104451, Note_on_c, 14, 62, 0
16, 104460, Note_on_c, 14, 62, 76
16, 104511, Note_on_c, 14, 62, 0
16, 104520, Note_on_c, 14, 62, 76
16, 104571, Note_on_c, 14, 62, 0
16, 104580, Note_on_c, 14, 62, 76
16, 104631, Note_on_c, 14, 62, 0
16, 104640, Note_on_c, 14, 59, 80
16, 104691, Note_on_c, 14, 59, 0
16, 104700, Note_on_c, 14, 59, 80
16, 104751, Note_on_c, 14, 59, 0
16, 104760, Note_on_c, 14, 59, 80
16, 104811, Note_on_c, 14, 59, 0
16, 104820, Note_on_c, 14, 59, 80
16, 104871, Note_on_c, 14, 59, 0
16, 104880, Note_on_c, 14, 59, 80
16, 104931, Note_on_c, 14, 59, 0
16, 104940, Note_on_c, 14, 59, 80
16, 104991, Note_on_c, 14, 59, 0
16, 105000, Note_on_c, 14, 59, 80
16, 105051, Note_on_c, 14, 59, 0
16, 105060, Note_on_c, 14, 59, 80
16, 105111, Note_on_c, 14, 59, 0
16, 105120, Note_on_c, 14, 59, 80
16, 105171, Note_on_c, 14, 59, 0
16, 105180, Note_on_c, 14, 59, 80
16, 105231, Note_on_c, 14, 59, 0
16, 105240, Note_on_c, 14, 59, 80
16, 105291, Note_on_c, 14, 59, 0
16, 105300, Note_on_c, 14, 59, 80
16, 105351, Note_on_c, 14, 59, 0
16, 105360, Note_on_c, 14, 59, 80
16, 105411, Note_on_c, 14, 59, 0
16, 105420, Note_on_c, 14, 59, 80
16, 105471, Note_on_c, 14, 59, 0
16, 105480, Note_on_c, 14, 59, 80
16, 105531, Note_on_c, 14, 59, 0
16, 105540, Note_on_c, 14, 59, 80
16, 105591, Note_on_c, 14, 59, 0
16, 105600, Note_on_c, 14, 47, 84
16, 105651, Note_on_c, 14, 47, 0
16, 105660, Note_on_c, 14, 47, 84
16, 105711, Note_on_c, 14, 47, 0
16, 105720, Note_on_c, 14, 47, 84
16, 105771, Note_on_c, 14, 47, 0
16, 105780, Note_on_c, 14, 47, 84
16, 105831, Note_on_c, 14, 47, 0
16, 105840, Note_on_c, 14, 47, 84
16, 105891, Note_on_c, 14, 47, 0
16, 105900, Note_on_c, 14, 47, 84
16, 105951, Note_on_c, 14, 47, 0
16, 105960, Note_on_c, 14, 47, 84
16, 106011, Note_on_c, 14, 47, 0
16, 106020, Note_on_c, 14, 47, 84
16, 106071, Note_on_c, 14, 47, 0
16, 106080, Note_on_c, 14, 47, 84
16, 106131, Note_on_c, 14, 47, 0
16, 106140, Note_on_c, 14, 47, 84
16, 106191, Note_on_c, 14, 47, 0
16, 106200, Note_on_c, 14, 47, 84
16, 106251, Note_on_c, 14, 47, 0
16, 106260, Note_on_c, 14, 47, 84
16, 106311, Note_on_c, 14, 47, 0
16, 106320, Note_on_c, 14, 47, 84
16, 106371, Note_on_c, 14, 47, 0
16, 106380, Note_on_c, 14, 47, 84
16, 106431, Note_on_c, 14, 47, 0
16, 106440, Note_on_c, 14, 47, 84
16, 106491, Note_on_c, 14, 47, 0
16, 106500, Note_on_c, 14, 47, 84
16, 106551, Note_on_c, 14, 47, 0
16, 106560, Note_on_c, 14, 60, 52
16, 106919, Note_on_c, 14, 60, 0
16, 106920, Note_on_c, 14, 57, 52
16, 107024, Note_on_c, 14, 57, 0
16, 107040, Note_on_c, 14, 55, 52
16, 107399, Note_on_c, 14, 55, 0
16, 107400, Note_on_c, 14, 52, 52
16, 107504, Note_on_c, 14, 52, 0
16, 107520, Note_on_c, 14, 50, 52
16, 107639, Note_on_c, 14, 50, 0
16, 107760, Note_on_c, 14, 50, 52
16, 107879, Note_on_c, 14, 50, 0
16, 108000, Note_on_c, 14, 50, 52
16, 108959, Note_on_c, 14, 50, 0
16, 108960, Note_on_c, 14, 50, 52
16, 109424, Note_on_c, 14, 50, 0
16, 109440, Note_on_c, 14, 50, 52
16, 109559, Note_on_c, 14, 50, 0
16, 109680, Note_on_c, 14, 50, 52
16, 109799, Note_on_c, 14, 50, 0
16, 109920, Note_on_c, 14, 55, 52
16, 110039, Note_on_c, 14, 55, 0
16, 110400, Note_on_c, 14, 50, 52
16, 110519, Note_on_c, 14, 50, 0
16, 110640, Note_on_c, 14, 50, 52
16, 110759, Note_on_c, 14, 50, 0
16, 110880, Note_on_c, 14, 55, 52
16, 110999, Note_on_c, 14, 55, 0
16, 111360, Note_on_c, 14, 62, 52
16, 111479, Note_on_c, 14, 62, 0
16, 111600, Note_on_c, 14, 62, 64
16, 111719, Note_on_c, 14, 62, 0
16, 111840, Note_on_c, 14, 55, 76
16, 112304, Note_on_c, 14, 55, 0
16, 112320, Note_on_c, 14, 48, 84
16, 112379, Note_on_c, 14, 48, 0
16, 112380, Note_on_c, 14, 48, 52
16, 112784, Note_on_c, 14, 48, 0
16, 112800, Note_on_c, 14, 55, 52
16, 112919, Note_on_c, 14, 55, 0
16, 113040, Note_on_c, 14, 60, 52
16, 113159, Note_on_c, 14, 60, 0
16, 113280, Note_on_c, 14, 55, 52
16, 113399, Note_on_c, 14, 55, 0
16, 113520, Note_on_c, 14, 48, 52
16, 113639, Note_on_c, 14, 48, 0
16, 113760, Note_on_c, 14, 55, 52
16, 113879, Note_on_c, 14, 55, 0
16, 114000, Note_on_c, 14, 60, 52
16, 114119, Note_on_c, 14, 60, 0
16, 114240, Note_on_c, 14, 55, 52
16, 114359, Note_on_c, 14, 55, 0
16, 114480, Note_on_c, 14, 51, 52
16, 114599, Note_on_c, 14, 51, 0
16, 114720, Note_on_c, 14, 58, 76
16, 115184, Note_on_c, 14, 58, 0
16, 115200, Note_on_c, 14, 51, 84
16, 115259, Note_on_c, 14, 51, 0
16, 115260, Note_on_c, 14, 51, 52
16, 115664, Note_on_c, 14, 51, 0
16, 115680, Note_on_c, 14, 58, 52
16, 115799, Note_on_c, 14, 58, 0
16, 115920, Note_on_c, 14, 63, 52
16, 116039, Note_on_c, 14, 63, 0
16, 116160, Note_on_c, 14, 58, 52
16, 116279, Note_on_c, 14, 58, 0
16, 116400, Note_on_c, 14, 51, 52
16, 116519, Note_on_c, 14, 51, 0
16, 116640, Note_on_c, 14, 58, 52
16, 116759, Note_on_c, 14, 58, 0
16, 116880, Note_on_c, 14, 63, 52
16, 116999, Note_on_c, 14, 63, 0
16, 117120, Note_on_c, 14, 58, 52
16, 117239, Note_on_c, 14, 58, 0
16, 117360, Note_on_c, 14, 55, 52
16, 117479, Note_on_c, 14, 55, 0
16, 117600, Note_on_c, 14, 62, 76
16, 118064, Note_on_c, 14, 62, 0
16, 118080, Note_on_c, 14, 55, 84
16, 118131, Note_on_c, 14, 55, 0
16, 118140, Note_on_c, 14, 54, 76
16, 118191, Note_on_c, 14, 54, 0
16, 118200, Note_on_c, 14, 55, 73
16, 118251, Note_on_c, 14, 55, 0
16, 118260, Note_on_c, 14, 58, 70
16, 118311, Note_on_c, 14, 58, 0
16, 118320, Note_on_c, 14, 57, 66
16, 118371, Note_on_c, 14, 57, 0
16, 118380, Note_on_c, 14, 55, 63
16, 118431, Note_on_c, 14, 55, 0
16, 118440, Note_on_c, 14, 54, 59
16, 118491, Note_on_c, 14, 54, 0
16, 118500, Note_on_c, 14, 55, 56
16, 118551, Note_on_c, 14, 55, 0
16, 118560, Note_on_c, 14, 50, 52
16, 118679, Note_on_c, 14, 50, 0
16, 118800, Note_on_c, 14, 55, 52
16, 118919, Note_on_c, 14, 55, 0
16, 119040, Note_on_c, 14, 50, 52
16, 119159, Note_on_c, 14, 50, 0
16, 119280, Note_on_c, 14, 43, 52
16, 119399, Note_on_c, 14, 43, 0
16, 119520, Note_on_c, 14, 50, 52
16, 119639, Note_on_c, 14, 50, 0
16, 119760, Note_on_c, 14, 55, 52
16, 119879, Note_on_c, 14, 55, 0
16, 120000, Note_on_c, 14, 50, 52
16, 120119, Note_on_c, 14, 50, 0
16, 120240, Note_on_c, 14, 43, 52
16, 120359, Note_on_c, 14, 43, 0
16, 120480, Note_on_c, 14, 50, 44
16, 120584, Note_on_c, 14, 50, 0
16, 120600, Note_on_c, 14, 62, 44
16, 120719, Note_on_c, 14, 62, 0
16, 120840, Note_on_c, 14, 62, 44
16, 120944, Note_on_c, 14, 62, 0
16, 120960, Note_on_c, 14, 62, 44
16, 121064, Note_on_c, 14, 62, 0
16, 121080, Note_on_c, 14, 62, 44
16, 121199, Note_on_c, 14, 62, 0
16, 121320, Note_on_c, 14, 62, 44
16, 121424, Note_on_c, 14, 62, 0
16, 121440, Note_on_c, 14, 62, 44
16, 121544, Note_on_c, 14, 62, 0
16, 121560, Note_on_c, 14, 62, 44
16, 121679, Note_on_c, 14, 62, 0
16, 121800, Note_on_c, 14, 62, 44
16, 121904, Note_on_c, 14, 62, 0
16, 121920, Note_on_c, 14, 62, 44
16, 122024, Note_on_c, 14, 62, 0
16, 122040, Note_on_c, 14, 62, 44
16, 122159, Note_on_c, 14, 62, 0
16, 122280, Note_on_c, 14, 62, 44
16, 122384, Note_on_c, 14, 62, 0
16, 122400, Note_on_c, 14, 59, 44
16, 122504, Note_on_c, 14, 59, 0
16, 122520, Note_on_c, 14, 59, 44
16, 122639, Note_on_c, 14, 59, 0
16, 122760, Note_on_c, 14, 59, 44
16, 122864, Note_on_c, 14, 59, 0
16, 122880, Note_on_c, 14, 59, 44
16, 122984, Note_on_c, 14, 59, 0
16, 123000, Note_on_c, 14, 59, 44
16, 123119, Note_on_c, 14, 59, 0
16, 123240, Note_on_c, 14, 59, 44
16, 123344, Note_on_c, 14, 59, 0
16, 123360, Note_on_c, 14, 59, 44
16, 123464, Note_on_c, 14, 59, 0
16, 123480, Note_on_c, 14, 59, 44
16, 123599, Note_on_c, 14, 59, 0
16, 123720, Note_on_c, 14, 59, 44
16, 123824, Note_on_c, 14, 59, 0
16, 123840, Note_on_c, 14, 59, 44
16, 123944, Note_on_c, 14, 59, 0
16, 123960, Note_on_c, 14, 59, 44
16, 124079, Note_on_c, 14, 59, 0
16, 124200, Note_on_c, 14, 55, 44
16, 124304, Note_on_c, 14, 55, 0
16, 124320, Note_on_c, 14, 48, 44
16, 124424, Note_on_c, 14, 48, 0
16, 124440, Note_on_c, 14, 48, 46
16, 124559, Note_on_c, 14, 48, 0
16, 124680, Note_on_c, 14, 48, 51
16, 124784, Note_on_c, 14, 48, 0
16, 124800, Note_on_c, 14, 48, 54
16, 124904, Note_on_c, 14, 48, 0
16, 124920, Note_on_c, 14, 48, 56
16, 125039, Note_on_c, 14, 48, 0
16, 125160, Note_on_c, 14, 48, 61
16, 125264, Note_on_c, 14, 48, 0
16, 125280, Note_on_c, 14, 48, 64
16, 125384, Note_on_c, 14, 48, 0
16, 125400, Note_on_c, 14, 48, 66
16, 125519, Note_on_c, 14, 48, 0
16, 125640, Note_on_c, 14, 48, 71
16, 125744, Note_on_c, 14, 48, 0
16, 125760, Note_on_c, 14, 48, 74
16, 125864, Note_on_c, 14, 48, 0
16, 125880, Note_on_c, 14, 48, 76
16, 125999, Note_on_c, 14, 48, 0
16, 126120, Note_on_c, 14, 48, 81
16, 126224, Note_on_c, 14, 48, 0
16, 126240, Note_on_c, 14, 41, 84
16, 126344, Note_on_c, 14, 41, 0
16, 126360, Note_on_c, 14, 41, 84
16, 126479, Note_on_c, 14, 41, 0
16, 126600, Note_on_c, 14, 41, 84
16, 126704, Note_on_c, 14, 41, 0
16, 126720, Note_on_c, 14, 41, 84
16, 126824, Note_on_c, 14, 41, 0
16, 126840, Note_on_c, 14, 41, 84
16, 126959, Note_on_c, 14, 41, 0
16, 127080, Note_on_c, 14, 41, 84
16, 127184, Note_on_c, 14, 41, 0
16, 127200, Note_on_c, 14, 41, 84
16, 127304, Note_on_c, 14, 41, 0
16, 127320, Note_on_c, 14, 41, 84
16, 127439, Note_on_c, 14, 41, 0
16, 127560, Note_on_c, 14, 41, 84
16, 127664, Note_on_c, 14, 41, 0
16, 127680, Note_on_c, 14, 41, 84
16, 127784, Note_on_c, 14, 41, 0
16, 127800, Note_on_c, 14, 41, 84
16, 127919, Note_on_c, 14, 41, 0
16, 128040, Note_on_c, 14, 41, 84
16, 128144, Note_on_c, 14, 41, 0
16, 128160, Note_on_c, 14, 41, 84
16, 128264, Note_on_c, 14, 41, 0
16, 128280, Note_on_c, 14, 41, 84
16, 128504, Note_on_c, 14, 41, 0
16, 128520, Note_on_c, 14, 41, 84
16, 128744, Note_on_c, 14, 41, 0
16, 128760, Note_on_c, 14, 41, 84
16, 128984, Note_on_c, 14, 41, 0
16, 129000, Note_on_c, 14, 41, 84
16, 129224, Note_on_c, 14, 41, 0
16, 129240, Note_on_c, 14, 41, 84
16, 129464, Note_on_c, 14, 41, 0
16, 129480, Note_on_c, 14, 41, 84
16, 129704, Note_on_c, 14, 41, 0
16, 129720, Note_on_c, 14, 41, 84
16, 129944, Note_on_c, 14, 41, 0
16, 129960, Note_on_c, 14, 41, 84
16, 130064, Note_on_c, 14, 41, 0
16, 130080, Note_on_c, 14, 41, 92
16, 130304, Note_on_c, 14, 41, 0
16, 130320, Note_on_c, 14, 51, 92
16, 130379, Note_on_c, 14, 51, 0
16, 130380, Note_on_c, 14, 50, 84
16, 130439, Note_on_c, 14, 50, 0
16, 130440, Note_on_c, 14, 51, 84
16, 130499, Note_on_c, 14, 51, 0
16, 130500, Note_on_c, 14, 54, 84
16, 130559, Note_on_c, 14, 54, 0
16, 130800, Note_on_c, 14, 51, 92
16, 130859, Note_on_c, 14, 51, 0
16, 130860, Note_on_c, 14, 50, 84
16, 130919, Note_on_c, 14, 50, 0
16, 130920, Note_on_c, 14, 51, 84
16, 130979, Note_on_c, 14, 51, 0
16, 130980, Note_on_c, 14, 54, 84
16, 131039, Note_on_c, 14, 54, 0
16, 131280, Note_on_c, 14, 51, 92
16, 131339, Note_on_c, 14, 51, 0
16, 131340, Note_on_c, 14, 50, 84
16, 131399, Note_on_c, 14, 50, 0
16, 131400, Note_on_c, 14, 51, 84
16, 131459, Note_on_c, 14, 51, 0
16, 131460, Note_on_c, 14, 54, 84
16, 131519, Note_on_c, 14, 54, 0
16, 131760, Note_on_c, 14, 51, 92
16, 131819, Note_on_c, 14, 51, 0
16, 131820, Note_on_c, 14, 50, 84
16, 131879, Note_on_c, 14, 50, 0
16, 131880, Note_on_c, 14, 51, 84
16, 131939, Note_on_c, 14, 51, 0
16, 131940, Note_on_c, 14, 54, 84
16, 131991, Note_on_c, 14, 54, 0
16, 132000, Note_on_c, 14, 41, 84
16, 132104, Note_on_c, 14, 41, 0
16, 132120, Note_on_c, 14, 41, 84
16, 132344, Note_on_c, 14, 41, 0
16, 132360, Note_on_c, 14, 41, 84
16, 132584, Note_on_c, 14, 41, 0
16, 132600, Note_on_c, 14, 41, 84
16, 132824, Note_on_c, 14, 41, 0
16, 132840, Note_on_c, 14, 41, 84
16, 133064, Note_on_c, 14, 41, 0
16, 133080, Note_on_c, 14, 41, 84
16, 133304, Note_on_c, 14, 41, 0
16, 133320, Note_on_c, 14, 41, 84
16, 133544, Note_on_c, 14, 41, 0
16, 133560, Note_on_c, 14, 41, 84
16, 133784, Note_on_c, 14, 41, 0
16, 133800, Note_on_c, 14, 41, 84
16, 133904, Note_on_c, 14, 41, 0
16, 133920, Note_on_c, 14, 41, 92
16, 134144, Note_on_c, 14, 41, 0
16, 134160, Note_on_c, 14, 51, 92
16, 134219, Note_on_c, 14, 51, 0
16, 134220, Note_on_c, 14, 50, 84
16, 134279, Note_on_c, 14, 50, 0
16, 134280, Note_on_c, 14, 51, 84
16, 134339, Note_on_c, 14, 51, 0
16, 134340, Note_on_c, 14, 54, 84
16, 134399, Note_on_c, 14, 54, 0
16, 134640, Note_on_c, 14, 51, 92
16, 134699, Note_on_c, 14, 51, 0
16, 134700, Note_on_c, 14, 50, 84
16, 134759, Note_on_c, 14, 50, 0
16, 134760, Note_on_c, 14, 51, 84
16, 134819, Note_on_c, 14, 51, 0
16, 134820, Note_on_c, 14, 54, 84
16, 134879, Note_on_c, 14, 54, 0
16, 135120, Note_on_c, 14, 51, 92
16, 135179, Note_on_c, 14, 51, 0
16, 135180, Note_on_c, 14, 50, 84
16, 135239, Note_on_c, 14, 50, 0
16, 135240, Note_on_c, 14, 51, 84
16, 135299, Note_on_c, 14, 51, 0
16, 135300, Note_on_c, 14, 54, 84
16, 135359, Note_on_c, 14, 54, 0
16, 135600, Note_on_c, 14, 51, 92
16, 135659, Note_on_c, 14, 51, 0
16, 135660, Note_on_c, 14, 50, 84
16, 135719, Note_on_c, 14, 50, 0
16, 135720, Note_on_c, 14, 51, 84
16, 135779, Note_on_c, 14, 51, 0
16, 135780, Note_on_c, 14, 54, 84
16, 135831, Note_on_c, 14, 54, 0
16, 136080, Note_on_c, 14, 51, 84
16, 136139, Note_on_c, 14, 51, 0
16, 136140, Note_on_c, 14, 50, 82
16, 136199, Note_on_c, 14, 50, 0
16, 136200, Note_on_c, 14, 51, 80
16, 136259, Note_on_c, 14, 51, 0
16, 136260, Note_on_c, 14, 54, 78
16, 136319, Note_on_c, 14, 54, 0
16, 136560, Note_on_c, 14, 50, 68
16, 136619, Note_on_c, 14, 50, 0
16, 136620, Note_on_c, 14, 49, 66
16, 136679, Note_on_c, 14, 49, 0
16, 136680, Note_on_c, 14, 50, 64
16, 136739, Note_on_c, 14, 50, 0
16, 136740, Note_on_c, 14, 53, 62
16, 136799, Note_on_c, 14, 53, 0
16, 137040, Note_on_c, 14, 48, 52
16, 137099, Note_on_c, 14, 48, 0
16, 137100, Note_on_c, 14, 47, 52
16, 137159, Note_on_c, 14, 47, 0
16, 137160, Note_on_c, 14, 48, 52
16, 137219, Note_on_c, 14, 48, 0
16, 137220, Note_on_c, 14, 51, 52
16, 137271, Note_on_c, 14, 51, 0
16, 137280, Note_on_c, 14, 48, 52
16, 137339, Note_on_c, 14, 48, 0
16, 137340, Note_on_c, 14, 47, 52
16, 137399, Note_on_c, 14, 47, 0
16, 137400, Note_on_c, 14, 48, 52
16, 137459, Note_on_c, 14, 48, 0
16, 137460, Note_on_c, 14, 51, 52
16, 137511, Note_on_c, 14, 51, 0
16, 137520, Note_on_c, 14, 46, 52
16, 137579, Note_on_c, 14, 46, 0
16, 137580, Note_on_c, 14, 45, 52
16, 137639, Note_on_c, 14, 45, 0
16, 137640, Note_on_c, 14, 46, 52
16, 137699, Note_on_c, 14, 46, 0
16, 137700, Note_on_c, 14, 50, 52
16, 137751, Note_on_c, 14, 50, 0
16, 137760, Note_on_c, 14, 46, 52
16, 137879, Note_on_c, 14, 46, 0
16, 137998, Program_c, 14, 45
16, 138000, Note_on_c, 14, 58, 48
16, 138119, Note_on_c, 14, 58, 0
16, 138240, Note_on_c, 14, 51, 48
16, 138359, Note_on_c, 14, 51, 0
16, 138720, Program_c, 14, 48
16, 138960, Note_on_c, 14, 53, 52
16, 139011, Note_on_c, 14, 53, 0
16, 139020, Note_on_c, 14, 51, 52
16, 139071, Note_on_c, 14, 51, 0
16, 139080, Note_on_c, 14, 50, 52
16, 139131, Note_on_c, 14, 50, 0
16, 139140, Note_on_c, 14, 48, 52
16, 139191, Note_on_c, 14, 48, 0
16, 139200, Note_on_c, 14, 46, 52
16, 139251, Note_on_c, 14, 46, 0
16, 139260, Note_on_c, 14, 48, 52
16, 139311, Note_on_c, 14, 48, 0
16, 139320, Note_on_c, 14, 50, 52
16, 139371, Note_on_c, 14, 50, 0
16, 139380, Note_on_c, 14, 46, 52
16, 139431, Note_on_c, 14, 46, 0
16, 139440, Note_on_c, 14, 41, 52
16, 139491, Note_on_c, 14, 41, 0
16, 139500, Note_on_c, 14, 45, 52
16, 139551, Note_on_c, 14, 45, 0
16, 139560, Note_on_c, 14, 48, 52
16, 139611, Note_on_c, 14, 48, 0
16, 139620, Note_on_c, 14, 53, 52
16, 139671, Note_on_c, 14, 53, 0
16, 139680, Note_on_c, 14, 46, 76
16, 139799, Note_on_c, 14, 46, 0
16, 139920, Note_on_c, 14, 58, 76
16, 140039, Note_on_c, 14, 58, 0
16, 140160, Note_on_c, 14, 51, 76
16, 140279, Note_on_c, 14, 51, 0
16, 140880, Note_on_c, 14, 53, 76
16, 140931, Note_on_c, 14, 53, 0
16, 140940, Note_on_c, 14, 51, 76
16, 140991, Note_on_c, 14, 51, 0
16, 141000, Note_on_c, 14, 50, 76
16, 141051, Note_on_c, 14, 50, 0
16, 141060, Note_on_c, 14, 48, 76
16, 141111, Note_on_c, 14, 48, 0
16, 141120, Note_on_c, 14, 46, 76
16, 141171, Note_on_c, 14, 46, 0
16, 141180, Note_on_c, 14, 48, 76
16, 141231, Note_on_c, 14, 48, 0
16, 141240, Note_on_c, 14, 50, 76
16, 141291, Note_on_c, 14, 50, 0
16, 141300, Note_on_c, 14, 46, 76
16, 141351, Note_on_c, 14, 46, 0
16, 141360, Note_on_c, 14, 41, 76
16, 141411, Note_on_c, 14, 41, 0
16, 141420, Note_on_c, 14, 45, 76
16, 141471, Note_on_c, 14, 45, 0
16, 141480, Note_on_c, 14, 48, 76
16, 141531, Note_on_c, 14, 48, 0
16, 141540, Note_on_c, 14, 53, 76
16, 141591, Note_on_c, 14, 53, 0
16, 141600, Note_on_c, 14, 46, 76
16, 141704, Note_on_c, 14, 46, 0
16, 141720, Note_on_c, 14, 46, 76
16, 141824, Note_on_c, 14, 46, 0
16, 141840, Note_on_c, 14, 46, 76
16, 141944, Note_on_c, 14, 46, 0
16, 141960, Note_on_c, 14, 46, 76
16, 142064, Note_on_c, 14, 46, 0
16, 142080, Note_on_c, 14, 46, 76
16, 142184, Note_on_c, 14, 46, 0
16, 142200, Note_on_c, 14, 46, 76
16, 142304, Note_on_c, 14, 46, 0
16, 142320, Note_on_c, 14, 46, 76
16, 142424, Note_on_c, 14, 46, 0
16, 142440, Note_on_c, 14, 46, 76
16, 142544, Note_on_c, 14, 46, 0
16, 142560, Note_on_c, 14, 46, 76
16, 142664, Note_on_c, 14, 46, 0
16, 142680, Note_on_c, 14, 46, 76
16, 142784, Note_on_c, 14, 46, 0
16, 142800, Note_on_c, 14, 46, 76
16, 142904, Note_on_c, 14, 46, 0
16, 142920, Note_on_c, 14, 46, 76
16, 143024, Note_on_c, 14, 46, 0
16, 143040, Note_on_c, 14, 46, 76
16, 143144, Note_on_c, 14, 46, 0
16, 143160, Note_on_c, 14, 46, 76
16, 143264, Note_on_c, 14, 46, 0
16, 143280, Note_on_c, 14, 46, 76
16, 143384, Note_on_c, 14, 46, 0
16, 143400, Note_on_c, 14, 46, 76
16, 143504, Note_on_c, 14, 46, 0
16, 143520, Note_on_c, 14, 46, 76
16, 143624, Note_on_c, 14, 46, 0
16, 143640, Note_on_c, 14, 46, 76
16, 143744, Note_on_c, 14, 46, 0
16, 143760, Note_on_c, 14, 46, 76
16, 143864, Note_on_c, 14, 46, 0
16, 143880, Note_on_c, 14, 46, 76
16, 143984, Note_on_c, 14, 46, 0
16, 144000, Note_on_c, 14, 46, 76
16, 144104, Note_on_c, 14, 46, 0
16, 144120, Note_on_c, 14, 46, 76
16, 144224, Note_on_c, 14, 46, 0
16, 144240, Note_on_c, 14, 46, 76
16, 144344, Note_on_c, 14, 46, 0
16, 144360, Note_on_c, 14, 46, 76
16, 144464, Note_on_c, 14, 46, 0
16, 144480, Note_on_c, 14, 46, 76
16, 144584, Note_on_c, 14, 46, 0
16, 144600, Note_on_c, 14, 46, 76
16, 144704, Note_on_c, 14, 46, 0
16, 144720, Note_on_c, 14, 46, 76
16, 144824, Note_on_c, 14, 46, 0
16, 144840, Note_on_c, 14, 46, 76
16, 144944, Note_on_c, 14, 46, 0
16, 144960, Note_on_c, 14, 46, 76
16, 145064, Note_on_c, 14, 46, 0
16, 145080, Note_on_c, 14, 46, 76
16, 145184, Note_on_c, 14, 46, 0
16, 145200, Note_on_c, 14, 46, 76
16, 145304, Note_on_c, 14, 46, 0
16, 145320, Note_on_c, 14, 46, 76
16, 145424, Note_on_c, 14, 46, 0
16, 145440, Note_on_c, 14, 51, 76
16, 145544, Note_on_c, 14, 51, 0
16, 145560, Note_on_c, 14, 51, 76
16, 145664, Note_on_c, 14, 51, 0
16, 145680, Note_on_c, 14, 51, 76
16, 145784, Note_on_c, 14, 51, 0
16, 145800, Note_on_c, 14, 51, 76
16, 145904, Note_on_c, 14, 51, 0
16, 145920, Note_on_c, 14, 51, 76
16, 146024, Note_on_c, 14, 51, 0
16, 146040, Note_on_c, 14, 51, 76
16, 146144, Note_on_c, 14, 51, 0
16, 146160, Note_on_c, 14, 51, 76
16, 146264, Note_on_c, 14, 51, 0
16, 146280, Note_on_c, 14, 51, 76
16, 146384, Note_on_c, 14, 51, 0
16, 146400, Note_on_c, 14, 51, 76
16, 146504, Note_on_c, 14, 51, 0
16, 146520, Note_on_c, 14, 51, 76
16, 146624, Note_on_c, 14, 51, 0
16, 146640, Note_on_c, 14, 51, 76
16, 146744, Note_on_c, 14, 51, 0
16, 146760, Note_on_c, 14, 51, 76
16, 146864, Note_on_c, 14, 51, 0
16, 146880, Note_on_c, 14, 51, 76
16, 146984, Note_on_c, 14, 51, 0
16, 147000, Note_on_c, 14, 51, 76
16, 147104, Note_on_c, 14, 51, 0
16, 147120, Note_on_c, 14, 51, 76
16, 147224, Note_on_c, 14, 51, 0
16, 147240, Note_on_c, 14, 51, 76
16, 147359, Note_on_c, 14, 51, 0
16, 148320, Note_on_c, 14, 60, 52
16, 148424, Note_on_c, 14, 60, 0
16, 148440, Note_on_c, 14, 63, 52
16, 148544, Note_on_c, 14, 63, 0
16, 148560, Note_on_c, 14, 55, 52
16, 148664, Note_on_c, 14, 55, 0
16, 148680, Note_on_c, 14, 60, 52
16, 148784, Note_on_c, 14, 60, 0
16, 148800, Note_on_c, 14, 51, 52
16, 148904, Note_on_c, 14, 51, 0
16, 148920, Note_on_c, 14, 55, 52
16, 149024, Note_on_c, 14, 55, 0
16, 149040, Note_on_c, 14, 48, 52
16, 149144, Note_on_c, 14, 48, 0
16, 149160, Note_on_c, 14, 51, 52
16, 149264, Note_on_c, 14, 51, 0
16, 149280, Note_on_c, 14, 57, 76
16, 149384, Note_on_c, 14, 57, 0
16, 149400, Note_on_c, 14, 60, 76
16, 149504, Note_on_c, 14, 60, 0
16, 149520, Note_on_c, 14, 51, 76
16, 149624, Note_on_c, 14, 51, 0
16, 149640, Note_on_c, 14, 57, 76
16, 149744, Note_on_c, 14, 57, 0
16, 149760, Note_on_c, 14, 48, 76
16, 149864, Note_on_c, 14, 48, 0
16, 149880, Note_on_c, 14, 51, 76
16, 149984, Note_on_c, 14, 51, 0
16, 150000, Note_on_c, 14, 45, 76
16, 150104, Note_on_c, 14, 45, 0
16, 150120, Note_on_c, 14, 48, 76
16, 150224, Note_on_c, 14, 48, 0
16, 150240, Note_on_c, 14, 41, 84
16, 150824, Note_on_c, 14, 41, 0
16, 150840, Note_on_c, 14, 42, 84
16, 150959, Note_on_c, 14, 42, 0
16, 150960, Note_on_c, 14, 41, 84
16, 151079, Note_on_c, 14, 41, 0
16, 151080, Note_on_c, 14, 42, 84
16, 151184, Note_on_c, 14, 42, 0
16, 151200, Note_on_c, 14, 41, 84
16, 151304, Note_on_c, 14, 41, 0
16, 151320, Note_on_c, 14, 51, 84
16, 151439, Note_on_c, 14, 51, 0
16, 151440, Note_on_c, 14, 48, 84
16, 151559, Note_on_c, 14, 48, 0
16, 151560, Note_on_c, 14, 45, 84
16, 151664, Note_on_c, 14, 45, 0
16, 151680, Note_on_c, 14, 41, 84
16, 151799, Note_on_c, 14, 41, 0
16, 152160, Note_on_c, 14, 46, 52
16, 152639, Note_on_c, 14, 46, 0
16, 152640, Note_on_c, 14, 53, 52
16, 153119, Note_on_c, 14, 53, 0
16, 153120, Note_on_c, 14, 58, 52
16, 153599, Note_on_c, 14, 58, 0
16, 153600, Note_on_c, 14, 53, 52
16, 154064, Note_on_c, 14, 53, 0
16, 154080, Note_on_c, 14, 48, 52
16, 154424, Note_on_c, 14, 48, 0
16, 154440, Note_on_c, 14, 48, 52
16, 154544, Note_on_c, 14, 48, 0
16, 154560, Note_on_c, 14, 53, 52
16, 154679, Note_on_c, 14, 53, 0
16, 154800, Note_on_c, 14, 57, 52
16, 154919, Note_on_c, 14, 57, 0
16, 155040, Note_on_c, 14, 60, 52
16, 155159, Note_on_c, 14, 60, 0
16, 155280, Note_on_c, 14, 48, 52
16, 155399, Note_on_c, 14, 48, 0
16, 155520, Note_on_c, 14, 53, 52
16, 155639, Note_on_c, 14, 53, 0
16, 156000, Note_on_c, 14, 58, 52
16, 156344, Note_on_c, 14, 58, 0
16, 156360, Note_on_c, 14, 58, 52
16, 156479, Note_on_c, 14, 58, 0
16, 156480, Note_on_c, 14, 57, 52
16, 156599, Note_on_c, 14, 57, 0
16, 156600, Note_on_c, 14, 65, 52
16, 156719, Note_on_c, 14, 65, 0
16, 156720, Note_on_c, 14, 63, 52
16, 156839, Note_on_c, 14, 63, 0
16, 156840, Note_on_c, 14, 60, 52
16, 156959, Note_on_c, 14, 60, 0
16, 156960, Note_on_c, 14, 62, 52
16, 157079, Note_on_c, 14, 62, 0
16, 157080, Note_on_c, 14, 58, 52
16, 157199, Note_on_c, 14, 58, 0
16, 157200, Note_on_c, 14, 57, 52
16, 157319, Note_on_c, 14, 57, 0
16, 157320, Note_on_c, 14, 58, 52
16, 157439, Note_on_c, 14, 58, 0
16, 157440, Note_on_c, 14, 59, 52
16, 157559, Note_on_c, 14, 59, 0
16, 157560, Note_on_c, 14, 60, 52
16, 157664, Note_on_c, 14, 60, 0
16, 157680, Note_on_c, 14, 57, 52
16, 157769, Note_on_c, 14, 57, 0
16, 157800, Note_on_c, 14, 53, 52
16, 157889, Note_on_c, 14, 53, 0
16, 157920, Note_on_c, 14, 48, 52
16, 158024, Note_on_c, 14, 48, 0
16, 158040, Note_on_c, 14, 48, 52
16, 158159, Note_on_c, 14, 48, 0
16, 158160, Note_on_c, 14, 50, 52
16, 158279, Note_on_c, 14, 50, 0
16, 158280, Note_on_c, 14, 52, 52
16, 158504, Note_on_c, 14, 52, 0
16, 158520, Note_on_c, 14, 53, 52
16, 158744, Note_on_c, 14, 53, 0
16, 158760, Note_on_c, 14, 57, 52
16, 158984, Note_on_c, 14, 57, 0
16, 159000, Note_on_c, 14, 60, 52
16, 159224, Note_on_c, 14, 60, 0
16, 159240, Note_on_c, 14, 48, 52
16, 159344, Note_on_c, 14, 48, 0
16, 159360, Note_on_c, 14, 53, 52
16, 159599, Note_on_c, 14, 53, 0
16, 160680, Note_on_c, 14, 46, 76
16, 160784, Note_on_c, 14, 46, 0
16, 160800, Note_on_c, 14, 45, 76
16, 160919, Note_on_c, 14, 45, 0
16, 160920, Note_on_c, 14, 43, 76
16, 161024, Note_on_c, 14, 43, 0
16, 161040, Note_on_c, 14, 45, 76
16, 161129, Note_on_c, 14, 45, 0
16, 161160, Note_on_c, 14, 46, 76
16, 161249, Note_on_c, 14, 46, 0
16, 161280, Note_on_c, 14, 48, 76
16, 161519, Note_on_c, 14, 48, 0
16, 162600, Note_on_c, 14, 46, 76
16, 162704, Note_on_c, 14, 46, 0
16, 162720, Note_on_c, 14, 45, 76
16, 162839, Note_on_c, 14, 45, 0
16, 162840, Note_on_c, 14, 43, 76
16, 162944, Note_on_c, 14, 43, 0
16, 162960, Note_on_c, 14, 45, 76
16, 163049, Note_on_c, 14, 45, 0
16, 163080, Note_on_c, 14, 46, 76
16, 163169, Note_on_c, 14, 46, 0
16, 163200, Note_on_c, 14, 48, 76
16, 163289, Note_on_c, 14, 48, 0
16, 163320, Note_on_c, 14, 48, 76
16, 163409, Note_on_c, 14, 48, 0
16, 163560, Note_on_c, 14, 46, 76
16, 163664, Note_on_c, 14, 46, 0
16, 163680, Note_on_c, 14, 45, 76
16, 163799, Note_on_c, 14, 45, 0
16, 163800, Note_on_c, 14, 43, 76
16, 163904, Note_on_c, 14, 43, 0
16, 163920, Note_on_c, 14, 45, 76
16, 164009, Note_on_c, 14, 45, 0
16, 164040, Note_on_c, 14, 46, 76
16, 164129, Note_on_c, 14, 46, 0
16, 164160, Note_on_c, 14, 48, 76
16, 164264, Note_on_c, 14, 48, 0
16, 164280, Note_on_c, 14, 48, 76
16, 164399, Note_on_c, 14, 48, 0
16, 164520, Note_on_c, 14, 50, 76
16, 164624, Note_on_c, 14, 50, 0
16, 164640, Note_on_c, 14, 51, 76
16, 164744, Note_on_c, 14, 51, 0
16, 164760, Note_on_c, 14, 50, 76
16, 164864, Note_on_c, 14, 50, 0
16, 164880, Note_on_c, 14, 51, 76
16, 164984, Note_on_c, 14, 51, 0
16, 165000, Note_on_c, 14, 48, 76
16, 165104, Note_on_c, 14, 48, 0
16, 165120, Note_on_c, 14, 46, 84
16, 165224, Note_on_c, 14, 46, 0
16, 165240, Note_on_c, 14, 46, 84
16, 165344, Note_on_c, 14, 46, 0
16, 165360, Note_on_c, 14, 46, 84
16, 165464, Note_on_c, 14, 46, 0
16, 165480, Note_on_c, 14, 46, 84
16, 165584, Note_on_c, 14, 46, 0
16, 165600, Note_on_c, 14, 46, 84
16, 165704, Note_on_c, 14, 46, 0
16, 165720, Note_on_c, 14, 46, 84
16, 165824, Note_on_c, 14, 46, 0
16, 165840, Note_on_c, 14, 46, 84
16, 165944, Note_on_c, 14, 46, 0
16, 165960, Note_on_c, 14, 46, 84
16, 166064, Note_on_c, 14, 46, 0
16, 166080, Note_on_c, 14, 46, 92
16, 166529, Note_on_c, 14, 46, 0
16, 166560, Note_on_c, 14, 46, 92
16, 167009, Note_on_c, 14, 46, 0
16, 167040, Note_on_c, 14, 46, 92
16, 167489, Note_on_c, 14, 46, 0
16, 167520, Note_on_c, 14, 46, 92
16, 167969, Note_on_c, 14, 46, 0
16, 168000, Note_on_c, 14, 57, 52
16, 168104, Note_on_c, 14, 57, 0
16, 168120, Note_on_c, 14, 57, 52
16, 168224, Note_on_c, 14, 57, 0
16, 168240, Note_on_c, 14, 57, 52
16, 168344, Note_on_c, 14, 57, 0
16, 168360, Note_on_c, 14, 57, 52
16, 168464, Note_on_c, 14, 57, 0
16, 168480, Note_on_c, 14, 57, 52
16, 168584, Note_on_c, 14, 57, 0
16, 168600, Note_on_c, 14, 57, 52
16, 168704, Note_on_c, 14, 57, 0
16, 168720, Note_on_c, 14, 58, 52
16, 168824, Note_on_c, 14, 58, 0
16, 168840, Note_on_c, 14, 58, 52
16, 168944, Note_on_c, 14, 58, 0
16, 168960, Note_on_c, 14, 55, 52
16, 169064, Note_on_c, 14, 55, 0
16, 169080, Note_on_c, 14, 55, 52
16, 169184, Note_on_c, 14, 55, 0
16, 169200, Note_on_c, 14, 51, 52
16, 169304, Note_on_c, 14, 51, 0
16, 169320, Note_on_c, 14, 51, 52
16, 169424, Note_on_c, 14, 51, 0
16, 169440, Note_on_c, 14, 53, 52
16, 169544, Note_on_c, 14, 53, 0
16, 169560, Note_on_c, 14, 53, 52
16, 169664, Note_on_c, 14, 53, 0
16, 169680, Note_on_c, 14, 53, 52
16, 169784, Note_on_c, 14, 53, 0
16, 169800, Note_on_c, 14, 53, 52
16, 169904, Note_on_c, 14, 53, 0
16, 169920, Note_on_c, 14, 46, 84
16, 170384, Note_on_c, 14, 46, 0
16, 170400, Note_on_c, 14, 46, 92
16, 170849, Note_on_c, 14, 46, 0
16, 170880, Note_on_c, 14, 46, 92
16, 171329, Note_on_c, 14, 46, 0
16, 171360, Note_on_c, 14, 46, 92
16, 171809, Note_on_c, 14, 46, 0
16, 171840, Note_on_c, 14, 59, 52
16, 171944, Note_on_c, 14, 59, 0
16, 171960, Note_on_c, 14, 59, 52
16, 172064, Note_on_c, 14, 59, 0
16, 172080, Note_on_c, 14, 59, 52
16, 172184, Note_on_c, 14, 59, 0
16, 172200, Note_on_c, 14, 59, 52
16, 172304, Note_on_c, 14, 59, 0
16, 172320, Note_on_c, 14, 59, 52
16, 172424, Note_on_c, 14, 59, 0
16, 172440, Note_on_c, 14, 59, 52
16, 172544, Note_on_c, 14, 59, 0
16, 172560, Note_on_c, 14, 60, 52
16, 172664, Note_on_c, 14, 60, 0
16, 172680, Note_on_c, 14, 60, 52
16, 172784, Note_on_c, 14, 60, 0
16, 172800, Note_on_c, 14, 51, 52
16, 172904, Note_on_c, 14, 51, 0
16, 172920, Note_on_c, 14, 51, 52
16, 173024, Note_on_c, 14, 51, 0
16, 173040, Note_on_c, 14, 51, 52
16, 173144, Note_on_c, 14, 51, 0
16, 173160, Note_on_c, 14, 51, 52
16, 173264, Note_on_c, 14, 51, 0
16, 173280, Note_on_c, 14, 53, 52
16, 173384, Note_on_c, 14, 53, 0
16, 173400, Note_on_c, 14, 53, 52
16, 173504, Note_on_c, 14, 53, 0
16, 173520, Note_on_c, 14, 51, 52
16, 173624, Note_on_c, 14, 51, 0
16, 173640, Note_on_c, 14, 51, 52
16, 173744, Note_on_c, 14, 51, 0
16, 173760, Note_on_c, 14, 50, 52
16, 173864, Note_on_c, 14, 50, 0
16, 173880, Note_on_c, 14, 50, 52
16, 173984, Note_on_c, 14, 50, 0
16, 174000, Note_on_c, 14, 55, 54
16, 174104, Note_on_c, 14, 55, 0
16, 174120, Note_on_c, 14, 55, 56
16, 174224, Note_on_c, 14, 55, 0
16, 174240, Note_on_c, 14, 51, 58
16, 174344, Note_on_c, 14, 51, 0
16, 174360, Note_on_c, 14, 51, 60
16, 174464, Note_on_c, 14, 51, 0
16, 174480, Note_on_c, 14, 53, 62
16, 174584, Note_on_c, 14, 53, 0
16, 174600, Note_on_c, 14, 53, 64
16, 174704, Note_on_c, 14, 53, 0
16, 174720, Note_on_c, 14, 50, 66
16, 174824, Note_on_c, 14, 50, 0
16, 174840, Note_on_c, 14, 50, 69
16, 174944, Note_on_c, 14, 50, 0
16, 174960, Note_on_c, 14, 55, 71
16, 175064, Note_on_c, 14, 55, 0
16, 175080, Note_on_c, 14, 55, 73
16, 175184, Note_on_c, 14, 55, 0
16, 175200, Note_on_c, 14, 51, 75
16, 175304, Note_on_c, 14, 51, 0
16, 175320, Note_on_c, 14, 51, 77
16, 175424, Note_on_c, 14, 51, 0
16, 175440, Note_on_c, 14, 53, 79
16, 175544, Note_on_c, 14, 53, 0
16, 175560, Note_on_c, 14, 53, 81
16, 175664, Note_on_c, 14, 53, 0
16, 175680, Note_on_c, 14, 50, 84
16, 175731, Note_on_c, 14, 50, 0
16, 175740, Note_on_c, 14, 50, 84
16, 175791, Note_on_c, 14, 50, 0
16, 175800, Note_on_c, 14, 50, 84
16, 175851, Note_on_c, 14, 50, 0
16, 175860, Note_on_c, 14, 50, 84
16, 175911, Note_on_c, 14, 50, 0
16, 175920, Note_on_c, 14, 55, 84
16, 175971, Note_on_c, 14, 55, 0
16, 175980, Note_on_c, 14, 55, 84
16, 176031, Note_on_c, 14, 55, 0
16, 176040, Note_on_c, 14, 55, 84
16, 176091, Note_on_c, 14, 55, 0
16, 176100, Note_on_c, 14, 55, 84
16, 176151, Note_on_c, 14, 55, 0
16, 176160, Note_on_c, 14, 51, 84
16, 176211, Note_on_c, 14, 51, 0
16, 176220, Note_on_c, 14, 51, 84
16, 176271, Note_on_c, 14, 51, 0
16, 176280, Note_on_c, 14, 51, 84
16, 176331, Note_on_c, 14, 51, 0
16, 176340, Note_on_c, 14, 51, 84
16, 176391, Note_on_c, 14, 51, 0
16, 176400, Note_on_c, 14, 53, 84
16, 176451, Note_on_c, 14, 53, 0
16, 176460, Note_on_c, 14, 53, 84
16, 176511, Note_on_c, 14, 53, 0
16, 176520, Note_on_c, 14, 53, 84
16, 176571, Note_on_c, 14, 53, 0
16, 176580, Note_on_c, 14, 53, 84
16, 176631, Note_on_c, 14, 53, 0
16, 176640, Note_on_c, 14, 58, 84
16, 176691, Note_on_c, 14, 58, 0
16, 176700, Note_on_c, 14, 57, 84
16, 176751, Note_on_c, 14, 57, 0
16, 176760, Note_on_c, 14, 58, 84
16, 176811, Note_on_c, 14, 58, 0
16, 176820, Note_on_c, 14, 62, 84
16, 176871, Note_on_c, 14, 62, 0
16, 176880, Note_on_c, 14, 55, 84
16, 176931, Note_on_c, 14, 55, 0
16, 176940, Note_on_c, 14, 57, 84
16, 176991, Note_on_c, 14, 57, 0
16, 177000, Note_on_c, 14, 58, 84
16, 177051, Note_on_c, 14, 58, 0
16, 177060, Note_on_c, 14, 60, 84
16, 177111, Note_on_c, 14, 60, 0
16, 177120, Note_on_c, 14, 53, 84
16, 177171, Note_on_c, 14, 53, 0
16, 177180, Note_on_c, 14, 55, 84
16, 177231, Note_on_c, 14, 55, 0
16, 177240, Note_on_c, 14, 57, 84
16, 177291, Note_on_c, 14, 57, 0
16, 177300, Note_on_c, 14, 58, 84
16, 177351, Note_on_c, 14, 58, 0
16, 177360, Note_on_c, 14, 51, 84
16, 177411, Note_on_c, 14, 51, 0
16, 177420, Note_on_c, 14, 53, 84
16, 177471, Note_on_c, 14, 53, 0
16, 177480, Note_on_c, 14, 55, 84
16, 177531, Note_on_c, 14, 55, 0
16, 177540, Note_on_c, 14, 57, 84
16, 177591, Note_on_c, 14, 57, 0
16, 177600, Note_on_c, 14, 46, 84
16, 177944, Note_on_c, 14, 46, 0
16, 177960, Note_on_c, 14, 46, 84
16, 178064, Note_on_c, 14, 46, 0
16, 178080, Note_on_c, 14, 46, 84
16, 178184, Note_on_c, 14, 46, 0
16, 178200, Note_on_c, 14, 46, 84
16, 178304, Note_on_c, 14, 46, 0
16, 178320, Note_on_c, 14, 46, 84
16, 178424, Note_on_c, 14, 46, 0
16, 178440, Note_on_c, 14, 46, 84
16, 178544, Note_on_c, 14, 46, 0
16, 178560, Note_on_c, 14, 58, 84
16, 178611, Note_on_c, 14, 58, 0
16, 178620, Note_on_c, 14, 57, 84
16, 178671, Note_on_c, 14, 57, 0
16, 178680, Note_on_c, 14, 58, 84
16, 178731, Note_on_c, 14, 58, 0
16, 178740, Note_on_c, 14, 62, 84
16, 178791, Note_on_c, 14, 62, 0
16, 178800, Note_on_c, 14, 55, 84
16, 178851, Note_on_c, 14, 55, 0
16, 178860, Note_on_c, 14, 57, 84
16, 178911, Note_on_c, 14, 57, 0
16, 178920, Note_on_c, 14, 58, 84
16, 178971, Note_on_c, 14, 58, 0
16, 178980, Note_on_c, 14, 60, 84
16, 179031, Note_on_c, 14, 60, 0
16, 179040, Note_on_c, 14, 53, 84
16, 179091, Note_on_c, 14, 53, 0
16, 179100, Note_on_c, 14, 55, 84
16, 179151, Note_on_c, 14, 55, 0
16, 179160, Note_on_c, 14, 57, 84
16, 179211, Note_on_c, 14, 57, 0
16, 179220, Note_on_c, 14, 58, 84
16, 179271, Note_on_c, 14, 58, 0
16, 179280, Note_on_c, 14, 51, 84
16, 179331, Note_on_c, 14, 51, 0
16, 179340, Note_on_c, 14, 53, 84
16, 179391, Note_on_c, 14, 53, 0
16, 179400, Note_on_c, 14, 55, 84
16, 179451, Note_on_c, 14, 55, 0
16, 179460, Note_on_c, 14, 57, 84
16, 179511, Note_on_c, 14, 57, 0
16, 179520, Note_on_c, 14, 46, 84
16, 179864, Note_on_c, 14, 46, 0
16, 179880, Note_on_c, 14, 46, 84
16, 179984, Note_on_c, 14, 46, 0
16, 180000, Note_on_c, 14, 46, 84
16, 180104, Note_on_c, 14, 46, 0
16, 180120, Note_on_c, 14, 46, 84
16, 180224, Note_on_c, 14, 46, 0
16, 180240, Note_on_c, 14, 46, 84
16, 180344, Note_on_c, 14, 46, 0
16, 180360, Note_on_c, 14, 46, 84
16, 180464, Note_on_c, 14, 46, 0
16, 180480, Note_on_c, 14, 46, 84
16, 180531, Note_on_c, 14, 46, 0
16, 180540, Note_on_c, 14, 45, 84
16, 180591, Note_on_c, 14, 45, 0
16, 180600, Note_on_c, 14, 46, 84
16, 180651, Note_on_c, 14, 46, 0
16, 180660, Note_on_c, 14, 50, 84
16, 180711, Note_on_c, 14, 50, 0
16, 180720, Note_on_c, 14, 41, 84
16, 180771, Note_on_c, 14, 41, 0
16, 180780, Note_on_c, 14, 43, 84
16, 180831, Note_on_c, 14, 43, 0
16, 180840, Note_on_c, 14, 44, 84
16, 180891, Note_on_c, 14, 44, 0
16, 180900, Note_on_c, 14, 45, 84
16, 180951, Note_on_c, 14, 45, 0
16, 180960, Note_on_c, 14, 46, 84
16, 181011, Note_on_c, 14, 46, 0
16, 181020, Note_on_c, 14, 45, 84
16, 181071, Note_on_c, 14, 45, 0
16, 181080, Note_on_c, 14, 46, 84
16, 181131, Note_on_c, 14, 46, 0
16, 181140, Note_on_c, 14, 50, 84
16, 181191, Note_on_c, 14, 50, 0
16, 181200, Note_on_c, 14, 41, 84
16, 181251, Note_on_c, 14, 41, 0
16, 181260, Note_on_c, 14, 43, 84
16, 181311, Note_on_c, 14, 43, 0
16, 181320, Note_on_c, 14, 44, 84
16, 181371, Note_on_c, 14, 44, 0
16, 181380, Note_on_c, 14, 45, 84
16, 181431, Note_on_c, 14, 45, 0
16, 181440, Note_on_c, 14, 46, 84
16, 181491, Note_on_c, 14, 46, 0
16, 181500, Note_on_c, 14, 45, 84
16, 181551, Note_on_c, 14, 45, 0
16, 181560, Note_on_c, 14, 46, 84
16, 181611, Note_on_c, 14, 46, 0
16, 181620, Note_on_c, 14, 50, 84
16, 181671, Note_on_c, 14, 50, 0
16, 181680, Note_on_c, 14, 41, 84
16, 181731, Note_on_c, 14, 41, 0
16, 181740, Note_on_c, 14, 43, 84
16, 181791, Note_on_c, 14, 43, 0
16, 181800, Note_on_c, 14, 44, 84
16, 181851, Note_on_c, 14, 44, 0
16, 181860, Note_on_c, 14, 45, 84
16, 181911, Note_on_c, 14, 45, 0
16, 181920, Note_on_c, 14, 46, 84
16, 181971, Note_on_c, 14, 46, 0
16, 181980, Note_on_c, 14, 45, 84
16, 182031, Note_on_c, 14, 45, 0
16, 182040, Note_on_c, 14, 46, 84
16, 182091, Note_on_c, 14, 46, 0
16, 182100, Note_on_c, 14, 50, 84
16, 182151, Note_on_c, 14, 50, 0
16, 182160, Note_on_c, 14, 41, 84
16, 182211, Note_on_c, 14, 41, 0
16, 182220, Note_on_c, 14, 43, 84
16, 182271, Note_on_c, 14, 43, 0
16, 182280, Note_on_c, 14, 44, 84
16, 182331, Note_on_c, 14, 44, 0
16, 182340, Note_on_c, 14, 45, 84
16, 182391, Note_on_c, 14, 45, 0
16, 182400, Note_on_c, 14, 46, 52
16, 182504, Note_on_c, 14, 46, 0
16, 182520, Note_on_c, 14, 58, 52
16, 182639, Note_on_c, 14, 58, 0
16, 182760, Note_on_c, 14, 58, 52
16, 182864, Note_on_c, 14, 58, 0
16, 182880, Note_on_c, 14, 58, 52
16, 182984, Note_on_c, 14, 58, 0
16, 183000, Note_on_c, 14, 58, 52
16, 183119, Note_on_c, 14, 58, 0
16, 183240, Note_on_c, 14, 58, 52
16, 183344, Note_on_c, 14, 58, 0
16, 183360, Note_on_c, 14, 58, 52
16, 183464, Note_on_c, 14, 58, 0
16, 183480, Note_on_c, 14, 58, 52
16, 183599, Note_on_c, 14, 58, 0
16, 183720, Note_on_c, 14, 58, 52
16, 183824, Note_on_c, 14, 58, 0
16, 183840, Note_on_c, 14, 58, 52
16, 183944, Note_on_c, 14, 58, 0
16, 183960, Note_on_c, 14, 58, 52
16, 184064, Note_on_c, 14, 58, 0
16, 184080, Note_on_c, 14, 55, 52
16, 184184, Note_on_c, 14, 55, 0
16, 184200, Note_on_c, 14, 55, 52
16, 184304, Note_on_c, 14, 55, 0
16, 184320, Note_on_c, 14, 60, 52
16, 184424, Note_on_c, 14, 60, 0
16, 184440, Note_on_c, 14, 60, 52
16, 184559, Note_on_c, 14, 60, 0
16, 184680, Note_on_c, 14, 60, 54
16, 184784, Note_on_c, 14, 60, 0
16, 184800, Note_on_c, 14, 60, 55
16, 184904, Note_on_c, 14, 60, 0
16, 184920, Note_on_c, 14, 60, 55
16, 185039, Note_on_c, 14, 60, 0
16, 185160, Note_on_c, 14, 60, 57
16, 185264, Note_on_c, 14, 60, 0
16, 185280, Note_on_c, 14, 60, 58
16, 185384, Note_on_c, 14, 60, 0
16, 185400, Note_on_c, 14, 60, 58
16, 185519, Note_on_c, 14, 60, 0
16, 185640, Note_on_c, 14, 60, 60
16, 185744, Note_on_c, 14, 60, 0
16, 185760, Note_on_c, 14, 60, 61
16, 185864, Note_on_c, 14, 60, 0
16, 185880, Note_on_c, 14, 60, 61
16, 185984, Note_on_c, 14, 60, 0
16, 186000, Note_on_c, 14, 56, 62
16, 186104, Note_on_c, 14, 56, 0
16, 186120, Note_on_c, 14, 56, 63
16, 186224, Note_on_c, 14, 56, 0
16, 186240, Note_on_c, 14, 61, 64
16, 186344, Note_on_c, 14, 61, 0
16, 186360, Note_on_c, 14, 61, 64
16, 186479, Note_on_c, 14, 61, 0
16, 186600, Note_on_c, 14, 61, 66
16, 186704, Note_on_c, 14, 61, 0
16, 186720, Note_on_c, 14, 61, 67
16, 186824, Note_on_c, 14, 61, 0
16, 186840, Note_on_c, 14, 61, 67
16, 186944, Note_on_c, 14, 61, 0
16, 186960, Note_on_c, 14, 58, 68
16, 187064, Note_on_c, 14, 58, 0
16, 187080, Note_on_c, 14, 58, 69
16, 187184, Note_on_c, 14, 58, 0
16, 187200, Note_on_c, 14, 63, 70
16, 187304, Note_on_c, 14, 63, 0
16, 187320, Note_on_c, 14, 63, 70
16, 187439, Note_on_c, 14, 63, 0
16, 187560, Note_on_c, 14, 63, 72
16, 187664, Note_on_c, 14, 63, 0
16, 187680, Note_on_c, 14, 63, 73
16, 187784, Note_on_c, 14, 63, 0
16, 187800, Note_on_c, 14, 63, 73
16, 187904, Note_on_c, 14, 63, 0
16, 187920, Note_on_c, 14, 60, 74
16, 188024, Note_on_c, 14, 60, 0
16, 188040, Note_on_c, 14, 60, 75
16, 188144, Note_on_c, 14, 60, 0
16, 188160, Note_on_c, 14, 65, 76
16, 188264, Note_on_c, 14, 65, 0
16, 188280, Note_on_c, 14, 65, 76
16, 188399, Note_on_c, 14, 65, 0
16, 188640, Note_on_c, 14, 65, 84
16, 188744, Note_on_c, 14, 65, 0
16, 188760, Note_on_c, 14, 65, 76
16, 188879, Note_on_c, 14, 65, 0
16, 189120, Note_on_c, 14, 65, 84
16, 189224, Note_on_c, 14, 65, 0
16, 189240, Note_on_c, 14, 65, 76
16, 189359, Note_on_c, 14, 65, 0
16, 189600, Note_on_c, 14, 65, 84
16, 189704, Note_on_c, 14, 65, 0
16, 189720, Note_on_c, 14, 65, 76
16, 189839, Note_on_c, 14, 65, 0
16, 193920, Note_on_c, 14, 58, 84
16, 193971, Note_on_c, 14, 58, 0
16, 193980, Note_on_c, 14, 57, 84
16, 194031, Note_on_c, 14, 57, 0
16, 194040, Note_on_c, 14, 58, 84
16, 194091, Note_on_c, 14, 58, 0
16, 194100, Note_on_c, 14, 62, 84
16, 194151, Note_on_c, 14, 62, 0
16, 194160, Note_on_c, 14, 53, 84
16, 194211, Note_on_c, 14, 53, 0
16, 194220, Note_on_c, 14, 55, 84
16, 194271, Note_on_c, 14, 55, 0
16, 194280, Note_on_c, 14, 57, 84
16, 194331, Note_on_c, 14, 57, 0
16, 194340, Note_on_c, 14, 58, 84
16, 194371, Note_on_c, 14, 58, 0
16, 194380, Note_on_c, 14, 62, 84
16, 194399, Note_on_c, 14, 62, 0
16, 194400, Note_on_c, 14, 60, 84
16, 194451, Note_on_c, 14, 60, 0
16, 194460, Note_on_c, 14, 59, 84
16, 194511, Note_on_c, 14, 59, 0
16, 194520, Note_on_c, 14, 60, 84
16, 194571, Note_on_c, 14, 60, 0
16, 194580, Note_on_c, 14, 63, 84
16, 194631, Note_on_c, 14, 63, 0
16, 194640, Note_on_c, 14, 67, 84
16, 194691, Note_on_c, 14, 67, 0
16, 194700, Note_on_c, 14, 65, 84
16, 194751, Note_on_c, 14, 65, 0
16, 194760, Note_on_c, 14, 63, 84
16, 194811, Note_on_c, 14, 63, 0
16, 194820, Note_on_c, 14, 62, 84
16, 194871, Note_on_c, 14, 62, 0
16, 194880, Note_on_c, 14, 60, 84
16, 194931, Note_on_c, 14, 60, 0
16, 194940, Note_on_c, 14, 58, 84
16, 194991, Note_on_c, 14, 58, 0
16, 195000, Note_on_c, 14, 57, 84
16, 195051, Note_on_c, 14, 57, 0
16, 195060, Note_on_c, 14, 55, 84
16, 195111, Note_on_c, 14, 55, 0
16, 195120, Note_on_c, 14, 53, 84
16, 195171, Note_on_c, 14, 53, 0
16, 195180, Note_on_c, 14, 51, 84
16, 195231, Note_on_c, 14, 51, 0
16, 195240, Note_on_c, 14, 50, 84
16, 195291, Note_on_c, 14, 50, 0
16, 195300, Note_on_c, 14, 48, 84
16, 195351, Note_on_c, 14, 48, 0
16, 195360, Note_on_c, 14, 46, 84
16, 195411, Note_on_c, 14, 46, 0
16, 195420, Note_on_c, 14, 50, 84
16, 195471, Note_on_c, 14, 50, 0
16, 195480, Note_on_c, 14, 53, 84
16, 195531, Note_on_c, 14, 53, 0
16, 195540, Note_on_c, 14, 58, 84
16, 195591, Note_on_c, 14, 58, 0
16, 195600, Note_on_c, 14, 67, 84
16, 195651, Note_on_c, 14, 67, 0
16, 195660, Note_on_c, 14, 65, 84
16, 195711, Note_on_c, 14, 65, 0
16, 195720, Note_on_c, 14, 63, 84
16, 195771, Note_on_c, 14, 63, 0
16, 195780, Note_on_c, 14, 62, 84
16, 195831, Note_on_c, 14, 62, 0
16, 195840, Note_on_c, 14, 60, 84
16, 195891, Note_on_c, 14, 60, 0
16, 195900, Note_on_c, 14, 58, 84
16, 195951, Note_on_c, 14, 58, 0
16, 195960, Note_on_c, 14, 57, 84
16, 196011, Note_on_c, 14, 57, 0
16, 196020, Note_on_c, 14, 55, 84
16, 196071, Note_on_c, 14, 55, 0
16, 196080, Note_on_c, 14, 53, 84
16, 196131, Note_on_c, 14, 53, 0
16, 196140, Note_on_c, 14, 51, 84
16, 196191, Note_on_c, 14, 51, 0
16, 196200, Note_on_c, 14, 50, 84
16, 196251, Note_on_c, 14, 50, 0
16, 196260, Note_on_c, 14, 48, 84
16, 196311, Note_on_c, 14, 48, 0
16, 196320, Note_on_c, 14, 46, 84
16, 196371, Note_on_c, 14, 46, 0
16, 196380, Note_on_c, 14, 50, 84
16, 196431, Note_on_c, 14, 50, 0
16, 196440, Note_on_c, 14, 53, 84
16, 196491, Note_on_c, 14, 53, 0
16, 196500, Note_on_c, 14, 58, 84
16, 196551, Note_on_c, 14, 58, 0
16, 196560, Note_on_c, 14, 67, 84
16, 196611, Note_on_c, 14, 67, 0
16, 196620, Note_on_c, 14, 65, 84
16, 196671, Note_on_c, 14, 65, 0
16, 196680, Note_on_c, 14, 63, 84
16, 196731, Note_on_c, 14, 63, 0
16, 196740, Note_on_c, 14, 62, 84
16, 196791, Note_on_c, 14, 62, 0
16, 196800, Note_on_c, 14, 60, 84
16, 196851, Note_on_c, 14, 60, 0
16, 196860, Note_on_c, 14, 58, 84
16, 196911, Note_on_c, 14, 58, 0
16, 196920, Note_on_c, 14, 57, 84
16, 196971, Note_on_c, 14, 57, 0
16, 196980, Note_on_c, 14, 55, 84
16, 197031, Note_on_c, 14, 55, 0
16, 197040, Note_on_c, 14, 53, 84
16, 197091, Note_on_c, 14, 53, 0
16, 197100, Note_on_c, 14, 51, 84
16, 197151, Note_on_c, 14, 51, 0
16, 197160, Note_on_c, 14, 50, 84
16, 197211, Note_on_c, 14, 50, 0
16, 197220, Note_on_c, 14, 48, 84
16, 197271, Note_on_c, 14, 48, 0
16, 197280, Note_on_c, 14, 46, 84
16, 197331, Note_on_c, 14, 46, 0
16, 197340, Note_on_c, 14, 50, 84
16, 197391, Note_on_c, 14, 50, 0
16, 197400, Note_on_c, 14, 53, 84
16, 197451, Note_on_c, 14, 53, 0
16, 197460, Note_on_c, 14, 58, 84
16, 197511, Note_on_c, 14, 58, 0
16, 197520, Note_on_c, 14, 67, 84
16, 197571, Note_on_c, 14, 67, 0
16, 197580, Note_on_c, 14, 65, 84
16, 197631, Note_on_c, 14, 65, 0
16, 197640, Note_on_c, 14, 63, 84
16, 197691, Note_on_c, 14, 63, 0
16, 197700, Note_on_c, 14, 62, 84
16, 197751, Note_on_c, 14, 62, 0
16, 197760, Note_on_c, 14, 60, 84
16, 197811, Note_on_c, 14, 60, 0
16, 197820, Note_on_c, 14, 58, 84
16, 197871, Note_on_c, 14, 58, 0
16, 197880, Note_on_c, 14, 57, 84
16, 197931, Note_on_c, 14, 57, 0
16, 197940, Note_on_c, 14, 55, 84
16, 197991, Note_on_c, 14, 55, 0
16, 198000, Note_on_c, 14, 53, 84
16, 198051, Note_on_c, 14, 53, 0
16, 198060, Note_on_c, 14, 51, 84
16, 198111, Note_on_c, 14, 51, 0
16, 198120, Note_on_c, 14, 50, 84
16, 198171, Note_on_c, 14, 50, 0
16, 198180, Note_on_c, 14, 48, 84
16, 198231, Note_on_c, 14, 48, 0
16, 198240, Note_on_c, 14, 46, 84
16, 198291, Note_on_c, 14, 46, 0
16, 198300, Note_on_c, 14, 50, 84
16, 198351, Note_on_c, 14, 50, 0
16, 198360, Note_on_c, 14, 53, 84
16, 198411, Note_on_c, 14, 53, 0
16, 198420, Note_on_c, 14, 58, 84
16, 198471, Note_on_c, 14, 58, 0
16, 198480, Note_on_c, 14, 41, 84
16, 198599, Note_on_c, 14, 41, 0
16, 198720, Note_on_c, 14, 41, 84
16, 198824, Note_on_c, 14, 41, 0
16, 198840, Note_on_c, 14, 46, 84
16, 198944, Note_on_c, 14, 46, 0
16, 198960, Note_on_c, 14, 49, 84
16, 199064, Note_on_c, 14, 49, 0
16, 199080, Note_on_c, 14, 53, 84
16, 199184, Note_on_c, 14, 53, 0
16, 199200, Note_on_c, 14, 58, 84
16, 199304, Note_on_c, 14, 58, 0
16, 199320, Note_on_c, 14, 61, 84
16, 199424, Note_on_c, 14, 61, 0
16, 199440, Note_on_c, 14, 65, 84
16, 199544, Note_on_c, 14, 65, 0
16, 199560, Note_on_c, 14, 61, 84
16, 199664, Note_on_c, 14, 61, 0
16, 199680, Note_on_c, 14, 58, 84
16, 199784, Note_on_c, 14, 58, 0
16, 199800, Note_on_c, 14, 61, 84
16, 199904, Note_on_c, 14, 61, 0
16, 199920, Note_on_c, 14, 58, 84
16, 200024, Note_on_c, 14, 58, 0
16, 200040, Note_on_c, 14, 53, 84
16, 200144, Note_on_c, 14, 53, 0
16, 200160, Note_on_c, 14, 49, 84
16, 200264, Note_on_c, 14, 49, 0
16, 200280, Note_on_c, 14, 46, 84
16, 200384, Note_on_c, 14, 46, 0
16, 200400, Note_on_c, 14, 41, 84
16, 200504, Note_on_c, 14, 41, 0
16, 200520, Note_on_c, 14, 46, 84
16, 200624, Note_on_c, 14, 46, 0
16, 200640, Note_on_c, 14, 41, 92
16, 200699, Note_on_c, 14, 41, 0
16, 200700, Note_on_c, 14, 41, 84
16, 200700, Control_c, 14, 11, 127
16, 200738, Control_c, 14, 11, 124
16, 200775, Control_c, 14, 11, 122
16, 200813, Control_c, 14, 11, 119
16, 200850, Control_c, 14, 11, 117
16, 200888, Control_c, 14, 11, 114
16, 200925, Control_c, 14, 11, 111
16, 200963, Control_c, 14, 11, 109
16, 201000, Control_c, 14, 11, 106
16, 201038, Control_c, 14, 11, 103
16, 201075, Control_c, 14, 11, 101
16, 201113, Control_c, 14, 11, 98
16, 201150, Control_c, 14, 11, 96
16, 201188, Control_c, 14, 11, 93
16, 201225, Control_c, 14, 11, 90
16, 201263, Control_c, 14, 11, 88
16, 201300, Control_c, 14, 11, 85
16, 201338, Control_c, 14, 11, 82
16, 201375, Control_c, 14, 11, 80
16, 201413, Control_c, 14, 11, 77
16, 201450, Control_c, 14, 11, 75
16, 201488, Control_c, 14, 11, 72
16, 201525, Control_c, 14, 11, 69
16, 201598, Control_c, 14, 11, 80
16, 202064, Note_on_c, 14, 41, 0
16, 202080, Note_on_c, 14, 46, 68
16, 202131, Note_on_c, 14, 46, 0
16, 202140, Note_on_c, 14, 45, 68
16, 202191, Note_on_c, 14, 45, 0
16, 202200, Note_on_c, 14, 46, 68
16, 202251, Note_on_c, 14, 46, 0
16, 202260, Note_on_c, 14, 50, 68
16, 202311, Note_on_c, 14, 50, 0
16, 202320, Note_on_c, 14, 41, 68
16, 202371, Note_on_c, 14, 41, 0
16, 202380, Note_on_c, 14, 43, 68
16, 202431, Note_on_c, 14, 43, 0
16, 202440, Note_on_c, 14, 45, 68
16, 202491, Note_on_c, 14, 45, 0
16, 202500, Note_on_c, 14, 46, 68
16, 202551, Note_on_c, 14, 46, 0
16, 202560, Note_on_c, 14, 48, 68
16, 202611, Note_on_c, 14, 48, 0
16, 202620, Note_on_c, 14, 47, 68
16, 202671, Note_on_c, 14, 47, 0
16, 202680, Note_on_c, 14, 48, 68
16, 202731, Note_on_c, 14, 48, 0
16, 202740, Note_on_c, 14, 51, 68
16, 202791, Note_on_c, 14, 51, 0
16, 202800, Note_on_c, 14, 41, 68
16, 202851, Note_on_c, 14, 41, 0
16, 202860, Note_on_c, 14, 43, 68
16, 202911, Note_on_c, 14, 43, 0
16, 202920, Note_on_c, 14, 44, 68
16, 202971, Note_on_c, 14, 44, 0
16, 202980, Note_on_c, 14, 45, 68
16, 203031, Note_on_c, 14, 45, 0
16, 203038, Control_c, 14, 11, 96
16, 203040, Note_on_c, 14, 46, 60
16, 203091, Note_on_c, 14, 46, 0
16, 203100, Note_on_c, 14, 45, 60
16, 203151, Note_on_c, 14, 45, 0
16, 203160, Note_on_c, 14, 46, 60
16, 203211, Note_on_c, 14, 46, 0
16, 203220, Note_on_c, 14, 50, 60
16, 203271, Note_on_c, 14, 50, 0
16, 203280, Note_on_c, 14, 41, 60
16, 203331, Note_on_c, 14, 41, 0
16, 203340, Note_on_c, 14, 43, 60
16, 203391, Note_on_c, 14, 43, 0
16, 203400, Note_on_c, 14, 45, 60
16, 203451, Note_on_c, 14, 45, 0
16, 203460, Note_on_c, 14, 46, 60
16, 203511, Note_on_c, 14, 46, 0
16, 203520, Note_on_c, 14, 48, 60
16, 203571, Note_on_c, 14, 48, 0
16, 203580, Note_on_c, 14, 47, 60
16, 203631, Note_on_c, 14, 47, 0
16, 203640, Note_on_c, 14, 48, 60
16, 203691, Note_on_c, 14, 48, 0
16, 203700, Note_on_c, 14, 51, 60
16, 203751, Note_on_c, 14, 51, 0
16, 203760, Note_on_c, 14, 41, 60
16, 203811, Note_on_c, 14, 41, 0
16, 203820, Note_on_c, 14, 43, 60
16, 203871, Note_on_c, 14, 43, 0
16, 203880, Note_on_c, 14, 44, 60
16, 203931, Note_on_c, 14, 44, 0
16, 203940, Note_on_c, 14, 45, 60
16, 203991, Note_on_c, 14, 45, 0
16, 203998, Control_c, 14, 11, 112
16, 204000, Note_on_c, 14, 46, 52
16, 204051, Note_on_c, 14, 46, 0
16, 204060, Note_on_c, 14, 45, 52
16, 204111, Note_on_c, 14, 45, 0
16, 204120, Note_on_c, 14, 46, 52
16, 204171, Note_on_c, 14, 46, 0
16, 204180, Note_on_c, 14, 50, 52
16, 204231, Note_on_c, 14, 50, 0
16, 204240, Note_on_c, 14, 41, 52
16, 204291, Note_on_c, 14, 41, 0
16, 204300, Note_on_c, 14, 43, 52
16, 204351, Note_on_c, 14, 43, 0
16, 204360, Note_on_c, 14, 45, 52
16, 204411, Note_on_c, 14, 45, 0
16, 204420, Note_on_c, 14, 46, 52
16, 204471, Note_on_c, 14, 46, 0
16, 204480, Note_on_c, 14, 48, 52
16, 204531, Note_on_c, 14, 48, 0
16, 204540, Note_on_c, 14, 47, 52
16, 204591, Note_on_c, 14, 47, 0
16, 204600, Note_on_c, 14, 48, 52
16, 204651, Note_on_c, 14, 48, 0
16, 204660, Note_on_c, 14, 51, 52
16, 204711, Note_on_c, 14, 51, 0
16, 204720, Note_on_c, 14, 41, 52
16, 204771, Note_on_c, 14, 41, 0
16, 204780, Note_on_c, 14, 43, 52
16, 204831, Note_on_c, 14, 43, 0
16, 204840, Note_on_c, 14, 44, 52
16, 204891, Note_on_c, 14, 44, 0
16, 204900, Note_on_c, 14, 45, 52
16, 204951, Note_on_c, 14, 45, 0
16, 204958, Control_c, 14, 11, 127
16, 204960, Note_on_c, 14, 46, 44
16, 205011, Note_on_c, 14, 46, 0
16, 205020, Note_on_c, 14, 45, 44
16, 205071, Note_on_c, 14, 45, 0
16, 205080, Note_on_c, 14, 46, 44
16, 205131, Note_on_c, 14, 46, 0
16, 205140, Note_on_c, 14, 50, 44
16, 205191, Note_on_c, 14, 50, 0
16, 205200, Note_on_c, 14, 41, 44
16, 205251, Note_on_c, 14, 41, 0
16, 205260, Note_on_c, 14, 43, 44
16, 205311, Note_on_c, 14, 43, 0
16, 205320, Note_on_c, 14, 45, 44
16, 205371, Note_on_c, 14, 45, 0
16, 205380, Note_on_c, 14, 46, 44
16, 205431, Note_on_c, 14, 46, 0
16, 205440, Note_on_c, 14, 48, 44
16, 205491, Note_on_c, 14, 48, 0
16, 205500, Note_on_c, 14, 47, 44
16, 205551, Note_on_c, 14, 47, 0
16, 205560, Note_on_c, 14, 48, 44
16, 205611, Note_on_c, 14, 48, 0
16, 205620, Note_on_c, 14, 51, 44
16, 205671, Note_on_c, 14, 51, 0
16, 205680, Note_on_c, 14, 41, 44
16, 205731, Note_on_c, 14, 41, 0
16, 205740, Note_on_c, 14, 43, 44
16, 205791, Note_on_c, 14, 43, 0
16, 205800, Note_on_c, 14, 44, 44
16, 205851, Note_on_c, 14, 44, 0
16, 205860, Note_on_c, 14, 45, 44
16, 205911, Note_on_c, 14, 45, 0
16, 205920, Note_on_c, 14, 46, 44
16, 205971, Note_on_c, 14, 46, 0
16, 205980, Note_on_c, 14, 45, 44
16, 206031, Note_on_c, 14, 45, 0
16, 206040, Note_on_c, 14, 46, 44
16, 206091, Note_on_c, 14, 46, 0
16, 206100, Note_on_c, 14, 50, 44
16, 206159, Note_on_c, 14, 50, 0
16, 206880, Note_on_c, 14, 41, 44
16, 206931, Note_on_c, 14, 41, 0
16, 206940, Note_on_c, 14, 40, 44
16, 206991, Note_on_c, 14, 40, 0
16, 207000, Note_on_c, 14, 41, 44
16, 207051, Note_on_c, 14, 41, 0
16, 207060, Note_on_c, 14, 45, 44
16, 207119, Note_on_c, 14, 45, 0
16, 207840, Note_on_c, 14, 46, 44
16, 207891, Note_on_c, 14, 46, 0
16, 207900, Note_on_c, 14, 45, 44
16, 207951, Note_on_c, 14, 45, 0
16, 207960, Note_on_c, 14, 46, 44
16, 208011, Note_on_c, 14, 46, 0
16, 208020, Note_on_c, 14, 50, 44
16, 208079, Note_on_c, 14, 50, 0
16, 208800, Note_on_c, 14, 41, 44
16, 208851, Note_on_c, 14, 41, 0
16, 208860, Note_on_c, 14, 40, 44
16, 208911, Note_on_c, 14, 40, 0
16, 208920, Note_on_c, 14, 41, 44
16, 208971, Note_on_c, 14, 41, 0
16, 208980, Note_on_c, 14, 45, 44
16, 209039, Note_on_c, 14, 45, 0
16, 209760, Note_on_c, 14, 46, 44
16, 209811, Note_on_c, 14, 46, 0
16, 209820, Note_on_c, 14, 45, 45
16, 209871, Note_on_c, 14, 45, 0
16, 209880, Note_on_c, 14, 46, 46
16, 209931, Note_on_c, 14, 46, 0
16, 209940, Note_on_c, 14, 50, 47
16, 209991, Note_on_c, 14, 50, 0
16, 210000, Note_on_c, 14, 43, 49
16, 210051, Note_on_c, 14, 43, 0
16, 210060, Note_on_c, 14, 45, 50
16, 210111, Note_on_c, 14, 45, 0
16, 210120, Note_on_c, 14, 46, 51
16, 210171, Note_on_c, 14, 46, 0
16, 210180, Note_on_c, 14, 47, 52
16, 210231, Note_on_c, 14, 47, 0
16, 210240, Note_on_c, 14, 48, 54
16, 210291, Note_on_c, 14, 48, 0
16, 210300, Note_on_c, 14, 47, 55
16, 210351, Note_on_c, 14, 47, 0
16, 210360, Note_on_c, 14, 48, 56
16, 210411, Note_on_c, 14, 48, 0
16, 210420, Note_on_c, 14, 51, 57
16, 210471, Note_on_c, 14, 51, 0
16, 210480, Note_on_c, 14, 45, 59
16, 210531, Note_on_c, 14, 45, 0
16, 210540, Note_on_c, 14, 47, 60
16, 210591, Note_on_c, 14, 47, 0
16, 210600, Note_on_c, 14, 48, 61
16, 210651, Note_on_c, 14, 48, 0
16, 210660, Note_on_c, 14, 49, 62
16, 210711, Note_on_c, 14, 49, 0
16, 210720, Note_on_c, 14, 50, 64
16, 210771, Note_on_c, 14, 50, 0
16, 210780, Note_on_c, 14, 49, 65
16, 210831, Note_on_c, 14, 49, 0
16, 210840, Note_on_c, 14, 50, 66
16, 210891, Note_on_c, 14, 50, 0
16, 210900, Note_on_c, 14, 53, 67
16, 210951, Note_on_c, 14, 53, 0
16, 210960, Note_on_c, 14, 46, 69
16, 211011, Note_on_c, 14, 46, 0
16, 211020, Note_on_c, 14, 48, 70
16, 211071, Note_on_c, 14, 48, 0
16, 211080, Note_on_c, 14, 49, 71
16, 211131, Note_on_c, 14, 49, 0
16, 211140, Note_on_c, 14, 50, 72
16, 211191, Note_on_c, 14, 50, 0
16, 211200, Note_on_c, 14, 51, 74
16, 211251, Note_on_c, 14, 51, 0
16, 211260, Note_on_c, 14, 50, 75
16, 211311, Note_on_c, 14, 50, 0
16, 211320, Note_on_c, 14, 51, 76
16, 211371, Note_on_c, 14, 51, 0
16, 211380, Note_on_c, 14, 55, 77
16, 211431, Note_on_c, 14, 55, 0
16, 211440, Note_on_c, 14, 52, 79
16, 211491, Note_on_c, 14, 52, 0
16, 211500, Note_on_c, 14, 51, 80
16, 211551, Note_on_c, 14, 51, 0
16, 211560, Note_on_c, 14, 52, 81
16, 211611, Note_on_c, 14, 52, 0
16, 211620, Note_on_c, 14, 55, 82
16, 211671, Note_on_c, 14, 55, 0
16, 211680, Note_on_c, 14, 52, 84
16, 211731, Note_on_c, 14, 52, 0
16, 211740, Note_on_c, 14, 52, 84
16, 211791, Note_on_c, 14, 52, 0
16, 211800, Note_on_c, 14, 52, 84
16, 211851, Note_on_c, 14, 52, 0
16, 211860, Note_on_c, 14, 52, 84
16, 211911, Note_on_c, 14, 52, 0
16, 211920, Note_on_c, 14, 52, 84
16, 211971, Note_on_c, 14, 52, 0
16, 211980, Note_on_c, 14, 52, 84
16, 212031, Note_on_c, 14, 52, 0
16, 212040, Note_on_c, 14, 52, 84
16, 212091, Note_on_c, 14, 52, 0
16, 212100, Note_on_c, 14, 52, 84
16, 212151, Note_on_c, 14, 52, 0
16, 212160, Note_on_c, 14, 52, 84
16, 212211, Note_on_c, 14, 52, 0
16, 212220, Note_on_c, 14, 52, 84
16, 212271, Note_on_c, 14, 52, 0
16, 212280, Note_on_c, 14, 52, 84
16, 212331, Note_on_c, 14, 52, 0
16, 212340, Note_on_c, 14, 52, 84
16, 212391, Note_on_c, 14, 52, 0
16, 212400, Note_on_c, 14, 52, 84
16, 212451, Note_on_c, 14, 52, 0
16, 212460, Note_on_c, 14, 52, 84
16, 212511, Note_on_c, 14, 52, 0
16, 212520, Note_on_c, 14, 52, 84
16, 212571, Note_on_c, 14, 52, 0
16, 212580, Note_on_c, 14, 52, 84
16, 212631, Note_on_c, 14, 52, 0
16, 212640, Note_on_c, 14, 52, 84
16, 212759, Note_on_c, 14, 52, 0
16, 212880, Note_on_c, 14, 52, 84
16, 212999, Note_on_c, 14, 52, 0
16, 213600, Note_on_c, 14, 53, 84
16, 213719, Note_on_c, 14, 53, 0
16, 213840, Note_on_c, 14, 53, 84
16, 213959, Note_on_c, 14, 53, 0
16, 217200, Note_on_c, 14, 67, 84
16, 217251, Note_on_c, 14, 67, 0
16, 217260, Note_on_c, 14, 65, 84
16, 217311, Note_on_c, 14, 65, 0
16, 217320, Note_on_c, 14, 63, 84
16, 217371, Note_on_c, 14, 63, 0
16, 217380, Note_on_c, 14, 62, 84
16, 217431, Note_on_c, 14, 62, 0
16, 217440, Note_on_c, 14, 60, 84
16, 217491, Note_on_c, 14, 60, 0
16, 217500, Note_on_c, 14, 58, 84
16, 217551, Note_on_c, 14, 58, 0
16, 217560, Note_on_c, 14, 57, 84
16, 217611, Note_on_c, 14, 57, 0
16, 217620, Note_on_c, 14, 55, 84
16, 217671, Note_on_c, 14, 55, 0
16, 217680, Note_on_c, 14, 53, 84
16, 217731, Note_on_c, 14, 53, 0
16, 217740, Note_on_c, 14, 51, 84
16, 217791, Note_on_c, 14, 51, 0
16, 217800, Note_on_c, 14, 50, 84
16, 217851, Note_on_c, 14, 50, 0
16, 217860, Note_on_c, 14, 48, 84
16, 217911, Note_on_c, 14, 48, 0
16, 217920, Note_on_c, 14, 46, 84
16, 217971, Note_on_c, 14, 46, 0
16, 217980, Note_on_c, 14, 48, 84
16, 218031, Note_on_c, 14, 48, 0
16, 218040, Note_on_c, 14, 50, 84
16, 218091, Note_on_c, 14, 50, 0
16, 218100, Note_on_c, 14, 46, 84
16, 218151, Note_on_c, 14, 46, 0
16, 218160, Note_on_c, 14, 41, 84
16, 218211, Note_on_c, 14, 41, 0
16, 218220, Note_on_c, 14, 45, 84
16, 218271, Note_on_c, 14, 45, 0
16, 218280, Note_on_c, 14, 48, 84
16, 218331, Note_on_c, 14, 48, 0
16, 218340, Note_on_c, 14, 53, 84
16, 218391, Note_on_c, 14, 53, 0
16, 218400, Note_on_c, 14, 46, 84
16, 218519, Note_on_c, 14, 46, 0
16, 218880, Note_on_c, 14, 41, 84
16, 218999, Note_on_c, 14, 41, 0
16, 219360, Note_on_c, 14, 46, 84
16, 219479, Note_on_c, 14, 46, 0
16, 219479, End_track
17, 0, Start_track
17, 0, Title_t, "Contrabass"
17, 0, MIDI_port, 0
17, 0, Program_c, 15, 48
17, 0, Control_c, 15, 7, 88
17, 0, Control_c, 15, 10, 100
17, 0, Control_c, 15, 11, 127
17, 0, Note_on_c, 15, 34, 52
17, 119, Note_on_c, 15, 34, 0
17, 240, Note_on_c, 15, 46, 52
17, 359, Note_on_c, 15, 46, 0
17, 480, Note_on_c, 15, 39, 52
17, 599, Note_on_c, 15, 39, 0
17, 1200, Note_on_c, 15, 41, 76
17, 1251, Note_on_c, 15, 41, 0
17, 1260, Note_on_c, 15, 39, 76
17, 1311, Note_on_c, 15, 39, 0
17, 1320, Note_on_c, 15, 38, 76
17, 1371, Note_on_c, 15, 38, 0
17, 1380, Note_on_c, 15, 36, 76
17, 1431, Note_on_c, 15, 36, 0
17, 1440, Note_on_c, 15, 34, 76
17, 1491, Note_on_c, 15, 34, 0
17, 1500, Note_on_c, 15, 36, 76
17, 1551, Note_on_c, 15, 36, 0
17, 1560, Note_on_c, 15, 38, 76
17, 1611, Note_on_c, 15, 38, 0
17, 1620, Note_on_c, 15, 34, 76
17, 1671, Note_on_c, 15, 34, 0
17, 1680, Note_on_c, 15, 29, 76
17, 1731, Note_on_c, 15, 29, 0
17, 1740, Note_on_c, 15, 33, 76
17, 1791, Note_on_c, 15, 33, 0
17, 1800, Note_on_c, 15, 36, 76
17, 1851, Note_on_c, 15, 36, 0
17, 1860, Note_on_c, 15, 41, 76
17, 1911, Note_on_c, 15, 41, 0
17, 1920, Note_on_c, 15, 34, 44
17, 2024, Note_on_c, 15, 34, 0
17, 2040, Note_on_c, 15, 34, 44
17, 2144, Note_on_c, 15, 34, 0
17, 2160, Note_on_c, 15, 34, 44
17, 2264, Note_on_c, 15, 34, 0
17, 2280, Note_on_c, 15, 34, 44
17, 2384, Note_on_c, 15, 34, 0
17, 2400, Note_on_c, 15, 34, 44
17, 2519, Note_on_c, 15, 34, 0
17, 2880, Note_on_c, 15, 34, 44
17, 2984, Note_on_c, 15, 34, 0
17, 3000, Note_on_c, 15, 34, 44
17, 3104, Note_on_c, 15, 34, 0
17, 3120, Note_on_c, 15, 34, 44
17, 3224, Note_on_c, 15, 34, 0
17, 3240, Note_on_c, 15, 34, 44
17, 3344, Note_on_c, 15, 34, 0
17, 3360, Note_on_c, 15, 34, 44
17, 3479, Note_on_c, 15, 34, 0
17, 3840, Note_on_c, 15, 34, 44
17, 3944, Note_on_c, 15, 34, 0
17, 3960, Note_on_c, 15, 34, 44
17, 4079, Note_on_c, 15, 34, 0
17, 4320, Note_on_c, 15, 34, 44
17, 4424, Note_on_c, 15, 34, 0
17, 4440, Note_on_c, 15, 34, 44
17, 4559, Note_on_c, 15, 34, 0
17, 5280, Note_on_c, 15, 41, 44
17, 6224, Note_on_c, 15, 41, 0
17, 6240, Note_on_c, 15, 41, 44
17, 6359, Note_on_c, 15, 41, 0
17, 6480, Note_on_c, 15, 41, 44
17, 6599, Note_on_c, 15, 41, 0
17, 6720, Note_on_c, 15, 34, 44
17, 6839, Note_on_c, 15, 34, 0
17, 8160, Note_on_c, 15, 41, 44
17, 8279, Note_on_c, 15, 41, 0
17, 8400, Note_on_c, 15, 41, 44
17, 8519, Note_on_c, 15, 41, 0
17, 8640, Note_on_c, 15, 34, 44
17, 8759, Note_on_c, 15, 34, 0
17, 9120, Note_on_c, 15, 41, 44
17, 9239, Note_on_c, 15, 41, 0
17, 9360, Note_on_c, 15, 41, 64
17, 9479, Note_on_c, 15, 41, 0
17, 9600, Note_on_c, 15, 46, 84
17, 9651, Note_on_c, 15, 46, 0
17, 9660, Note_on_c, 15, 45, 84
17, 9711, Note_on_c, 15, 45, 0
17, 9720, Note_on_c, 15, 46, 84
17, 9771, Note_on_c, 15, 46, 0
17, 9780, Note_on_c, 15, 50, 84
17, 9831, Note_on_c, 15, 50, 0
17, 9840, Note_on_c, 15, 48, 84
17, 9891, Note_on_c, 15, 48, 0
17, 9900, Note_on_c, 15, 46, 84
17, 9951, Note_on_c, 15, 46, 0
17, 9960, Note_on_c, 15, 45, 84
17, 10011, Note_on_c, 15, 45, 0
17, 10020, Note_on_c, 15, 46, 84
17, 10071, Note_on_c, 15, 46, 0
17, 10080, Note_on_c, 15, 45, 84
17, 10131, Note_on_c, 15, 45, 0
17, 10140, Note_on_c, 15, 43, 84
17, 10191, Note_on_c, 15, 43, 0
17, 10200, Note_on_c, 15, 41, 84
17, 10251, Note_on_c, 15, 41, 0
17, 10260, Note_on_c, 15, 43, 84
17, 10311, Note_on_c, 15, 43, 0
17, 10320, Note_on_c, 15, 41, 84
17, 10371, Note_on_c, 15, 41, 0
17, 10380, Note_on_c, 15, 39, 84
17, 10431, Note_on_c, 15, 39, 0
17, 10440, Note_on_c, 15, 38, 84
17, 10491, Note_on_c, 15, 38, 0
17, 10500, Note_on_c, 15, 39, 84
17, 10551, Note_on_c, 15, 39, 0
17, 10560, Note_on_c, 15, 38, 84
17, 10611, Note_on_c, 15, 38, 0
17, 10620, Note_on_c, 15, 48, 84
17, 10671, Note_on_c, 15, 48, 0
17, 10680, Note_on_c, 15, 46, 84
17, 10731, Note_on_c, 15, 46, 0
17, 10740, Note_on_c, 15, 48, 84
17, 10791, Note_on_c, 15, 48, 0
17, 10800, Note_on_c, 15, 46, 84
17, 10851, Note_on_c, 15, 46, 0
17, 10860, Note_on_c, 15, 45, 84
17, 10911, Note_on_c, 15, 45, 0
17, 10920, Note_on_c, 15, 43, 84
17, 10971, Note_on_c, 15, 43, 0
17, 10980, Note_on_c, 15, 45, 84
17, 11031, Note_on_c, 15, 45, 0
17, 11040, Note_on_c, 15, 43, 84
17, 11091, Note_on_c, 15, 43, 0
17, 11100, Note_on_c, 15, 41, 84
17, 11151, Note_on_c, 15, 41, 0
17, 11160, Note_on_c, 15, 39, 84
17, 11211, Note_on_c, 15, 39, 0
17, 11220, Note_on_c, 15, 38, 84
17, 11271, Note_on_c, 15, 38, 0
17, 11280, Note_on_c, 15, 36, 84
17, 11384, Note_on_c, 15, 36, 0
17, 11400, Note_on_c, 15, 41, 84
17, 11504, Note_on_c, 15, 41, 0
17, 11520, Note_on_c, 15, 34, 84
17, 11624, Note_on_c, 15, 34, 0
17, 11640, Note_on_c, 15, 34, 84
17, 11744, Note_on_c, 15, 34, 0
17, 11760, Note_on_c, 15, 34, 84
17, 11864, Note_on_c, 15, 34, 0
17, 11880, Note_on_c, 15, 34, 84
17, 11984, Note_on_c, 15, 34, 0
17, 12000, Note_on_c, 15, 34, 84
17, 12104, Note_on_c, 15, 34, 0
17, 12120, Note_on_c, 15, 34, 84
17, 12224, Note_on_c, 15, 34, 0
17, 12240, Note_on_c, 15, 34, 84
17, 12344, Note_on_c, 15, 34, 0
17, 12360, Note_on_c, 15, 34, 84
17, 12464, Note_on_c, 15, 34, 0
17, 12480, Note_on_c, 15, 34, 84
17, 12584, Note_on_c, 15, 34, 0
17, 12600, Note_on_c, 15, 34, 84
17, 12704, Note_on_c, 15, 34, 0
17, 12720, Note_on_c, 15, 34, 84
17, 12824, Note_on_c, 15, 34, 0
17, 12840, Note_on_c, 15, 34, 84
17, 12944, Note_on_c, 15, 34, 0
17, 12960, Note_on_c, 15, 34, 84
17, 13064, Note_on_c, 15, 34, 0
17, 13080, Note_on_c, 15, 34, 84
17, 13184, Note_on_c, 15, 34, 0
17, 13200, Note_on_c, 15, 34, 84
17, 13304, Note_on_c, 15, 34, 0
17, 13320, Note_on_c, 15, 34, 84
17, 13424, Note_on_c, 15, 34, 0
17, 13440, Note_on_c, 15, 46, 84
17, 13544, Note_on_c, 15, 46, 0
17, 13560, Note_on_c, 15, 50, 84
17, 13664, Note_on_c, 15, 50, 0
17, 13680, Note_on_c, 15, 43, 84
17, 13784, Note_on_c, 15, 43, 0
17, 13800, Note_on_c, 15, 46, 84
17, 13904, Note_on_c, 15, 46, 0
17, 13920, Note_on_c, 15, 40, 84
17, 14024, Note_on_c, 15, 40, 0
17, 14040, Note_on_c, 15, 43, 84
17, 14144, Note_on_c, 15, 43, 0
17, 14160, Note_on_c, 15, 36, 84
17, 14264, Note_on_c, 15, 36, 0
17, 14280, Note_on_c, 15, 40, 84
17, 14384, Note_on_c, 15, 40, 0
17, 14400, Note_on_c, 15, 41, 84
17, 14504, Note_on_c, 15, 41, 0
17, 14520, Note_on_c, 15, 48, 84
17, 14624, Note_on_c, 15, 48, 0
17, 14640, Note_on_c, 15, 41, 84
17, 14744, Note_on_c, 15, 41, 0
17, 14760, Note_on_c, 15, 45, 84
17, 14864, Note_on_c, 15, 45, 0
17, 14880, Note_on_c, 15, 38, 84
17, 14984, Note_on_c, 15, 38, 0
17, 15000, Note_on_c, 15, 41, 84
17, 15104, Note_on_c, 15, 41, 0
17, 15120, Note_on_c, 15, 33, 84
17, 15224, Note_on_c, 15, 33, 0
17, 15240, Note_on_c, 15, 35, 84
17, 15344, Note_on_c, 15, 35, 0
17, 15360, Note_on_c, 15, 36, 84
17, 15944, Note_on_c, 15, 36, 0
17, 15960, Note_on_c, 15, 37, 84
17, 16079, Note_on_c, 15, 37, 0
17, 16080, Note_on_c, 15, 36, 84
17, 16199, Note_on_c, 15, 36, 0
17, 16200, Note_on_c, 15, 37, 84
17, 16304, Note_on_c, 15, 37, 0
17, 16320, Note_on_c, 15, 36, 84
17, 16424, Note_on_c, 15, 36, 0
17, 16440, Note_on_c, 15, 46, 84
17, 16559, Note_on_c, 15, 46, 0
17, 16560, Note_on_c, 15, 43, 84
17, 16679, Note_on_c, 15, 43, 0
17, 16680, Note_on_c, 15, 40, 84
17, 16784, Note_on_c, 15, 40, 0
17, 16800, Note_on_c, 15, 36, 84
17, 16919, Note_on_c, 15, 36, 0
17, 17280, Note_on_c, 15, 29, 52
17, 17759, Note_on_c, 15, 29, 0
17, 17760, Note_on_c, 15, 36, 52
17, 18239, Note_on_c, 15, 36, 0
17, 18240, Note_on_c, 15, 41, 52
17, 18719, Note_on_c, 15, 41, 0
17, 18720, Note_on_c, 15, 36, 52
17, 19184, Note_on_c, 15, 36, 0
17, 19200, Note_on_c, 15, 31, 52
17, 19544, Note_on_c, 15, 31, 0
17, 19560, Note_on_c, 15, 31, 52
17, 19664, Note_on_c, 15, 31, 0
17, 19680, Note_on_c, 15, 36, 52
17, 19799, Note_on_c, 15, 36, 0
17, 19920, Note_on_c, 15, 40, 52
17, 20039, Note_on_c, 15, 40, 0
17, 20160, Note_on_c, 15, 43, 52
17, 20279, Note_on_c, 15, 43, 0
17, 20400, Note_on_c, 15, 31, 52
17, 20519, Note_on_c, 15, 31, 0
17, 20640, Note_on_c, 15, 36, 52
17, 20759, Note_on_c, 15, 36, 0
17, 21120, Note_on_c, 15, 41, 52
17, 21464, Note_on_c, 15, 41, 0
17, 21480, Note_on_c, 15, 41, 52
17, 21599, Note_on_c, 15, 41, 0
17, 21600, Note_on_c, 15, 40, 52
17, 21719, Note_on_c, 15, 40, 0
17, 21720, Note_on_c, 15, 48, 52
17, 21839, Note_on_c, 15, 48, 0
17, 21840, Note_on_c, 15, 46, 52
17, 21959, Note_on_c, 15, 46, 0
17, 21960, Note_on_c, 15, 43, 52
17, 22079, Note_on_c, 15, 43, 0
17, 22080, Note_on_c, 15, 45, 52
17, 22199, Note_on_c, 15, 45, 0
17, 22200, Note_on_c, 15, 41, 52
17, 22319, Note_on_c, 15, 41, 0
17, 22320, Note_on_c, 15, 40, 52
17, 22439, Note_on_c, 15, 40, 0
17, 22440, Note_on_c, 15, 41, 52
17, 22559, Note_on_c, 15, 41, 0
17, 22560, Note_on_c, 15, 42, 52
17, 22679, Note_on_c, 15, 42, 0
17, 22680, Note_on_c, 15, 43, 52
17, 22784, Note_on_c, 15, 43, 0
17, 22800, Note_on_c, 15, 40, 52
17, 22889, Note_on_c, 15, 40, 0
17, 22920, Note_on_c, 15, 36, 52
17, 23009, Note_on_c, 15, 36, 0
17, 23040, Note_on_c, 15, 31, 52
17, 23159, Note_on_c, 15, 31, 0
17, 23160, Note_on_c, 15, 33, 52
17, 23279, Note_on_c, 15, 33, 0
17, 23280, Note_on_c, 15, 34, 52
17, 23399, Note_on_c, 15, 34, 0
17, 23400, Note_on_c, 15, 35, 52
17, 23624, Note_on_c, 15, 35, 0
17, 23640, Note_on_c, 15, 36, 52
17, 23864, Note_on_c, 15, 36, 0
17, 23880, Note_on_c, 15, 40, 52
17, 24104, Note_on_c, 15, 40, 0
17, 24120, Note_on_c, 15, 43, 52
17, 24344, Note_on_c, 15, 43, 0
17, 24360, Note_on_c, 15, 31, 52
17, 24464, Note_on_c, 15, 31, 0
17, 24480, Note_on_c, 15, 36, 52
17, 24599, Note_on_c, 15, 36, 0
17, 25800, Note_on_c, 15, 41, 76
17, 25904, Note_on_c, 15, 41, 0
17, 25920, Note_on_c, 15, 40, 76
17, 26039, Note_on_c, 15, 40, 0
17, 26040, Note_on_c, 15, 38, 76
17, 26144, Note_on_c, 15, 38, 0
17, 26160, Note_on_c, 15, 40, 76
17, 26249, Note_on_c, 15, 40, 0
17, 26280, Note_on_c, 15, 41, 76
17, 26369, Note_on_c, 15, 41, 0
17, 26400, Note_on_c, 15, 43, 76
17, 26639, Note_on_c, 15, 43, 0
17, 27720, Note_on_c, 15, 41, 76
17, 27824, Note_on_c, 15, 41, 0
17, 27840, Note_on_c, 15, 40, 76
17, 27959, Note_on_c, 15, 40, 0
17, 27960, Note_on_c, 15, 38, 76
17, 28064, Note_on_c, 15, 38, 0
17, 28080, Note_on_c, 15, 40, 76
17, 28169, Note_on_c, 15, 40, 0
17, 28200, Note_on_c, 15, 41, 76
17, 28289, Note_on_c, 15, 41, 0
17, 28320, Note_on_c, 15, 43, 76
17, 28424, Note_on_c, 15, 43, 0
17, 28440, Note_on_c, 15, 43, 76
17, 28559, Note_on_c, 15, 43, 0
17, 28680, Note_on_c, 15, 41, 76
17, 28784, Note_on_c, 15, 41, 0
17, 28800, Note_on_c, 15, 40, 76
17, 28919, Note_on_c, 15, 40, 0
17, 28920, Note_on_c, 15, 38, 76
17, 29024, Note_on_c, 15, 38, 0
17, 29040, Note_on_c, 15, 40, 76
17, 29129, Note_on_c, 15, 40, 0
17, 29160, Note_on_c, 15, 41, 76
17, 29249, Note_on_c, 15, 41, 0
17, 29280, Note_on_c, 15, 43, 76
17, 29384, Note_on_c, 15, 43, 0
17, 29400, Note_on_c, 15, 43, 76
17, 29519, Note_on_c, 15, 43, 0
17, 29640, Note_on_c, 15, 45, 76
17, 29744, Note_on_c, 15, 45, 0
17, 29760, Note_on_c, 15, 46, 76
17, 29864, Note_on_c, 15, 46, 0
17, 29880, Note_on_c, 15, 45, 76
17, 29984, Note_on_c, 15, 45, 0
17, 30000, Note_on_c, 15, 46, 76
17, 30104, Note_on_c, 15, 46, 0
17, 30120, Note_on_c, 15, 43, 76
17, 30224, Note_on_c, 15, 43, 0
17, 30240, Note_on_c, 15, 41, 84
17, 30344, Note_on_c, 15, 41, 0
17, 30360, Note_on_c, 15, 29, 84
17, 30464, Note_on_c, 15, 29, 0
17, 30480, Note_on_c, 15, 29, 84
17, 30584, Note_on_c, 15, 29, 0
17, 30600, Note_on_c, 15, 29, 84
17, 30704, Note_on_c, 15, 29, 0
17, 30720, Note_on_c, 15, 29, 84
17, 30824, Note_on_c, 15, 29, 0
17, 30840, Note_on_c, 15, 29, 84
17, 30944, Note_on_c, 15, 29, 0
17, 30960, Note_on_c, 15, 29, 84
17, 31064, Note_on_c, 15, 29, 0
17, 31080, Note_on_c, 15, 29, 84
17, 31184, Note_on_c, 15, 29, 0
17, 31200, Note_on_c, 15, 29, 92
17, 31649, Note_on_c, 15, 29, 0
17, 31680, Note_on_c, 15, 29, 92
17, 32129, Note_on_c, 15, 29, 0
17, 32160, Note_on_c, 15, 29, 92
17, 32609, Note_on_c, 15, 29, 0
17, 32640, Note_on_c, 15, 29, 92
17, 33089, Note_on_c, 15, 29, 0
17, 35040, Note_on_c, 15, 29, 84
17, 35504, Note_on_c, 15, 29, 0
17, 35520, Note_on_c, 15, 29, 92
17, 35969, Note_on_c, 15, 29, 0
17, 36000, Note_on_c, 15, 29, 92
17, 36449, Note_on_c, 15, 29, 0
17, 36480, Note_on_c, 15, 29, 92
17, 36929, Note_on_c, 15, 29, 0
17, 40800, Note_on_c, 15, 33, 84
17, 40904, Note_on_c, 15, 33, 0
17, 40920, Note_on_c, 15, 33, 84
17, 41024, Note_on_c, 15, 33, 0
17, 41040, Note_on_c, 15, 38, 84
17, 41144, Note_on_c, 15, 38, 0
17, 41160, Note_on_c, 15, 38, 84
17, 41264, Note_on_c, 15, 38, 0
17, 41280, Note_on_c, 15, 34, 84
17, 41384, Note_on_c, 15, 34, 0
17, 41400, Note_on_c, 15, 34, 84
17, 41504, Note_on_c, 15, 34, 0
17, 41520, Note_on_c, 15, 36, 84
17, 41624, Note_on_c, 15, 36, 0
17, 41640, Note_on_c, 15, 36, 84
17, 41744, Note_on_c, 15, 36, 0
17, 41760, Note_on_c, 15, 29, 84
17, 42104, Note_on_c, 15, 29, 0
17, 42120, Note_on_c, 15, 29, 84
17, 42224, Note_on_c, 15, 29, 0
17, 42240, Note_on_c, 15, 29, 84
17, 42344, Note_on_c, 15, 29, 0
17, 42360, Note_on_c, 15, 29, 84
17, 42464, Note_on_c, 15, 29, 0
17, 42480, Note_on_c, 15, 29, 84
17, 42584, Note_on_c, 15, 29, 0
17, 42600, Note_on_c, 15, 29, 84
17, 42704, Note_on_c, 15, 29, 0
17, 42720, Note_on_c, 15, 29, 84
17, 43064, Note_on_c, 15, 29, 0
17, 43080, Note_on_c, 15, 29, 84
17, 43184, Note_on_c, 15, 29, 0
17, 43200, Note_on_c, 15, 29, 84
17, 43304, Note_on_c, 15, 29, 0
17, 43320, Note_on_c, 15, 29, 84
17, 43424, Note_on_c, 15, 29, 0
17, 43440, Note_on_c, 15, 29, 84
17, 43544, Note_on_c, 15, 29, 0
17, 43560, Note_on_c, 15, 29, 84
17, 43664, Note_on_c, 15, 29, 0
17, 43680, Note_on_c, 15, 29, 84
17, 44024, Note_on_c, 15, 29, 0
17, 44040, Note_on_c, 15, 29, 84
17, 44144, Note_on_c, 15, 29, 0
17, 44160, Note_on_c, 15, 29, 84
17, 44264, Note_on_c, 15, 29, 0
17, 44280, Note_on_c, 15, 29, 84
17, 44384, Note_on_c, 15, 29, 0
17, 44400, Note_on_c, 15, 29, 84
17, 44504, Note_on_c, 15, 29, 0
17, 44520, Note_on_c, 15, 29, 84
17, 44624, Note_on_c, 15, 29, 0
17, 44640, Note_on_c, 15, 29, 84
17, 44984, Note_on_c, 15, 29, 0
17, 45000, Note_on_c, 15, 29, 84
17, 45104, Note_on_c, 15, 29, 0
17, 45120, Note_on_c, 15, 29, 84
17, 45224, Note_on_c, 15, 29, 0
17, 45240, Note_on_c, 15, 29, 84
17, 45344, Note_on_c, 15, 29, 0
17, 45360, Note_on_c, 15, 29, 84
17, 45464, Note_on_c, 15, 29, 0
17, 45480, Note_on_c, 15, 29, 84
17, 45584, Note_on_c, 15, 29, 0
17, 45600, Note_on_c, 15, 41, 84
17, 45651, Note_on_c, 15, 41, 0
17, 45660, Note_on_c, 15, 40, 84
17, 45711, Note_on_c, 15, 40, 0
17, 45720, Note_on_c, 15, 41, 84
17, 45771, Note_on_c, 15, 41, 0
17, 45780, Note_on_c, 15, 43, 84
17, 45831, Note_on_c, 15, 43, 0
17, 45840, Note_on_c, 15, 36, 84
17, 45891, Note_on_c, 15, 36, 0
17, 45900, Note_on_c, 15, 38, 84
17, 45951, Note_on_c, 15, 38, 0
17, 45960, Note_on_c, 15, 39, 84
17, 46011, Note_on_c, 15, 39, 0
17, 46020, Note_on_c, 15, 40, 84
17, 46071, Note_on_c, 15, 40, 0
17, 46080, Note_on_c, 15, 41, 84
17, 46131, Note_on_c, 15, 41, 0
17, 46140, Note_on_c, 15, 40, 84
17, 46191, Note_on_c, 15, 40, 0
17, 46200, Note_on_c, 15, 41, 84
17, 46251, Note_on_c, 15, 41, 0
17, 46260, Note_on_c, 15, 45, 84
17, 46311, Note_on_c, 15, 45, 0
17, 46320, Note_on_c, 15, 36, 84
17, 46371, Note_on_c, 15, 36, 0
17, 46380, Note_on_c, 15, 38, 84
17, 46431, Note_on_c, 15, 38, 0
17, 46440, Note_on_c, 15, 39, 84
17, 46491, Note_on_c, 15, 39, 0
17, 46500, Note_on_c, 15, 40, 84
17, 46551, Note_on_c, 15, 40, 0
17, 46560, Note_on_c, 15, 41, 84
17, 46611, Note_on_c, 15, 41, 0
17, 46620, Note_on_c, 15, 40, 84
17, 46671, Note_on_c, 15, 40, 0
17, 46680, Note_on_c, 15, 41, 84
17, 46731, Note_on_c, 15, 41, 0
17, 46740, Note_on_c, 15, 45, 84
17, 46791, Note_on_c, 15, 45, 0
17, 46800, Note_on_c, 15, 36, 84
17, 46851, Note_on_c, 15, 36, 0
17, 46860, Note_on_c, 15, 38, 84
17, 46911, Note_on_c, 15, 38, 0
17, 46920, Note_on_c, 15, 39, 84
17, 46971, Note_on_c, 15, 39, 0
17, 46980, Note_on_c, 15, 40, 84
17, 47031, Note_on_c, 15, 40, 0
17, 47040, Note_on_c, 15, 41, 84
17, 47091, Note_on_c, 15, 41, 0
17, 47100, Note_on_c, 15, 40, 84
17, 47151, Note_on_c, 15, 40, 0
17, 47160, Note_on_c, 15, 41, 84
17, 47211, Note_on_c, 15, 41, 0
17, 47220, Note_on_c, 15, 45, 84
17, 47271, Note_on_c, 15, 45, 0
17, 47280, Note_on_c, 15, 36, 84
17, 47331, Note_on_c, 15, 36, 0
17, 47340, Note_on_c, 15, 38, 84
17, 47391, Note_on_c, 15, 38, 0
17, 47400, Note_on_c, 15, 39, 84
17, 47451, Note_on_c, 15, 39, 0
17, 47460, Note_on_c, 15, 40, 84
17, 47511, Note_on_c, 15, 40, 0
17, 47520, Note_on_c, 15, 41, 52
17, 47639, Note_on_c, 15, 41, 0
17, 49200, Note_on_c, 15, 29, 52
17, 49251, Note_on_c, 15, 29, 0
17, 49260, Note_on_c, 15, 31, 52
17, 49311, Note_on_c, 15, 31, 0
17, 49320, Note_on_c, 15, 32, 52
17, 49371, Note_on_c, 15, 32, 0
17, 49380, Note_on_c, 15, 33, 52
17, 49431, Note_on_c, 15, 33, 0
17, 49440, Note_on_c, 15, 34, 52
17, 49559, Note_on_c, 15, 34, 0
17, 49680, Note_on_c, 15, 46, 52
17, 49799, Note_on_c, 15, 46, 0
17, 49920, Note_on_c, 15, 39, 52
17, 50039, Note_on_c, 15, 39, 0
17, 50640, Note_on_c, 15, 41, 76
17, 50691, Note_on_c, 15, 41, 0
17, 50700, Note_on_c, 15, 39, 76
17, 50751, Note_on_c, 15, 39, 0
17, 50760, Note_on_c, 15, 38, 76
17, 50811, Note_on_c, 15, 38, 0
17, 50820, Note_on_c, 15, 36, 76
17, 50871, Note_on_c, 15, 36, 0
17, 50880, Note_on_c, 15, 34, 76
17, 50931, Note_on_c, 15, 34, 0
17, 50940, Note_on_c, 15, 36, 76
17, 50991, Note_on_c, 15, 36, 0
17, 51000, Note_on_c, 15, 38, 76
17, 51051, Note_on_c, 15, 38, 0
17, 51060, Note_on_c, 15, 34, 76
17, 51111, Note_on_c, 15, 34, 0
17, 51120, Note_on_c, 15, 29, 76
17, 51171, Note_on_c, 15, 29, 0
17, 51180, Note_on_c, 15, 33, 76
17, 51231, Note_on_c, 15, 33, 0
17, 51240, Note_on_c, 15, 36, 76
17, 51291, Note_on_c, 15, 36, 0
17, 51300, Note_on_c, 15, 41, 76
17, 51351, Note_on_c, 15, 41, 0
17, 51360, Note_on_c, 15, 34, 44
17, 51464, Note_on_c, 15, 34, 0
17, 51480, Note_on_c, 15, 34, 44
17, 51584, Note_on_c, 15, 34, 0
17, 51600, Note_on_c, 15, 34, 44
17, 51704, Note_on_c, 15, 34, 0
17, 51720, Note_on_c, 15, 34, 44
17, 51824, Note_on_c, 15, 34, 0
17, 51840, Note_on_c, 15, 34, 44
17, 51959, Note_on_c, 15, 34, 0
17, 52320, Note_on_c, 15, 34, 44
17, 52424, Note_on_c, 15, 34, 0
17, 52440, Note_on_c, 15, 34, 44
17, 52544, Note_on_c, 15, 34, 0
17, 52560, Note_on_c, 15, 34, 44
17, 52664, Note_on_c, 15, 34, 0
17, 52680, Note_on_c, 15, 34, 44
17, 52784, Note_on_c, 15, 34, 0
17, 52800, Note_on_c, 15, 34, 44
17, 52919, Note_on_c, 15, 34, 0
17, 53280, Note_on_c, 15, 34, 44
17, 53384, Note_on_c, 15, 34, 0
17, 53400, Note_on_c, 15, 34, 44
17, 53519, Note_on_c, 15, 34, 0
17, 53760, Note_on_c, 15, 34, 44
17, 53864, Note_on_c, 15, 34, 0
17, 53880, Note_on_c, 15, 34, 44
17, 53999, Note_on_c, 15, 34, 0
17, 54720, Note_on_c, 15, 41, 44
17, 55664, Note_on_c, 15, 41, 0
17, 55680, Note_on_c, 15, 41, 44
17, 55799, Note_on_c, 15, 41, 0
17, 55920, Note_on_c, 15, 41, 44
17, 56039, Note_on_c, 15, 41, 0
17, 56160, Note_on_c, 15, 34, 44
17, 56279, Note_on_c, 15, 34, 0
17, 57600, Note_on_c, 15, 41, 44
17, 57719, Note_on_c, 15, 41, 0
17, 57840, Note_on_c, 15, 41, 44
17, 57959, Note_on_c, 15, 41, 0
17, 58080, Note_on_c, 15, 34, 44
17, 58199, Note_on_c, 15, 34, 0
17, 58560, Note_on_c, 15, 41, 44
17, 58679, Note_on_c, 15, 41, 0
17, 58800, Note_on_c, 15, 41, 64
17, 58919, Note_on_c, 15, 41, 0
17, 59040, Note_on_c, 15, 46, 84
17, 59091, Note_on_c, 15, 46, 0
17, 59100, Note_on_c, 15, 45, 84
17, 59151, Note_on_c, 15, 45, 0
17, 59160, Note_on_c, 15, 46, 84
17, 59211, Note_on_c, 15, 46, 0
17, 59220, Note_on_c, 15, 50, 84
17, 59271, Note_on_c, 15, 50, 0
17, 59280, Note_on_c, 15, 48, 84
17, 59331, Note_on_c, 15, 48, 0
17, 59340, Note_on_c, 15, 46, 84
17, 59391, Note_on_c, 15, 46, 0
17, 59400, Note_on_c, 15, 45, 84
17, 59451, Note_on_c, 15, 45, 0
17, 59460, Note_on_c, 15, 46, 84
17, 59511, Note_on_c, 15, 46, 0
17, 59520, Note_on_c, 15, 45, 84
17, 59571, Note_on_c, 15, 45, 0
17, 59580, Note_on_c, 15, 43, 84
17, 59631, Note_on_c, 15, 43, 0
17, 59640, Note_on_c, 15, 41, 84
17, 59691, Note_on_c, 15, 41, 0
17, 59700, Note_on_c, 15, 43, 84
17, 59751, Note_on_c, 15, 43, 0
17, 59760, Note_on_c, 15, 41, 84
17, 59811, Note_on_c, 15, 41, 0
17, 59820, Note_on_c, 15, 39, 84
17, 59871, Note_on_c, 15, 39, 0
17, 59880, Note_on_c, 15, 38, 84
17, 59931, Note_on_c, 15, 38, 0
17, 59940, Note_on_c, 15, 39, 84
17, 59991, Note_on_c, 15, 39, 0
17, 60000, Note_on_c, 15, 38, 84
17, 60051, Note_on_c, 15, 38, 0
17, 60060, Note_on_c, 15, 48, 84
17, 60111, Note_on_c, 15, 48, 0
17, 60120, Note_on_c, 15, 46, 84
17, 60171, Note_on_c, 15, 46, 0
17, 60180, Note_on_c, 15, 48, 84
17, 60231, Note_on_c, 15, 48, 0
17, 60240, Note_on_c, 15, 46, 84
17, 60291, Note_on_c, 15, 46, 0
17, 60300, Note_on_c, 15, 45, 84
17, 60351, Note_on_c, 15, 45, 0
17, 60360, Note_on_c, 15, 43, 84
17, 60411, Note_on_c, 15, 43, 0
17, 60420, Note_on_c, 15, 45, 84
17, 60471, Note_on_c, 15, 45, 0
17, 60480, Note_on_c, 15, 43, 84
17, 60531, Note_on_c, 15, 43, 0
17, 60540, Note_on_c, 15, 41, 84
17, 60591, Note_on_c, 15, 41, 0
17, 60600, Note_on_c, 15, 39, 84
17, 60651, Note_on_c, 15, 39, 0
17, 60660, Note_on_c, 15, 38, 84
17, 60711, Note_on_c, 15, 38, 0
17, 60720, Note_on_c, 15, 36, 84
17, 60824, Note_on_c, 15, 36, 0
17, 60840, Note_on_c, 15, 41, 84
17, 60944, Note_on_c, 15, 41, 0
17, 60960, Note_on_c, 15, 34, 84
17, 61064, Note_on_c, 15, 34, 0
17, 61080, Note_on_c, 15, 34, 84
17, 61184, Note_on_c, 15, 34, 0
17, 61200, Note_on_c, 15, 34, 84
17, 61304, Note_on_c, 15, 34, 0
17, 61320, Note_on_c, 15, 34, 84
17, 61424, Note_on_c, 15, 34, 0
17, 61440, Note_on_c, 15, 34, 84
17, 61544, Note_on_c, 15, 34, 0
17, 61560, Note_on_c, 15, 34, 84
17, 61664, Note_on_c, 15, 34, 0
17, 61680, Note_on_c, 15, 34, 84
17, 61784, Note_on_c, 15, 34, 0
17, 61800, Note_on_c, 15, 34, 84
17, 61904, Note_on_c, 15, 34, 0
17, 61920, Note_on_c, 15, 34, 84
17, 62024, Note_on_c, 15, 34, 0
17, 62040, Note_on_c, 15, 34, 84
17, 62144, Note_on_c, 15, 34, 0
17, 62160, Note_on_c, 15, 34, 84
17, 62264, Note_on_c, 15, 34, 0
17, 62280, Note_on_c, 15, 34, 84
17, 62384, Note_on_c, 15, 34, 0
17, 62400, Note_on_c, 15, 34, 84
17, 62504, Note_on_c, 15, 34, 0
17, 62520, Note_on_c, 15, 34, 84
17, 62624, Note_on_c, 15, 34, 0
17, 62640, Note_on_c, 15, 34, 84
17, 62744, Note_on_c, 15, 34, 0
17, 62760, Note_on_c, 15, 34, 84
17, 62864, Note_on_c, 15, 34, 0
17, 62880, Note_on_c, 15, 46, 84
17, 62984, Note_on_c, 15, 46, 0
17, 63000, Note_on_c, 15, 50, 84
17, 63104, Note_on_c, 15, 50, 0
17, 63120, Note_on_c, 15, 43, 84
17, 63224, Note_on_c, 15, 43, 0
17, 63240, Note_on_c, 15, 46, 84
17, 63344, Note_on_c, 15, 46, 0
17, 63360, Note_on_c, 15, 40, 84
17, 63464, Note_on_c, 15, 40, 0
17, 63480, Note_on_c, 15, 43, 84
17, 63584, Note_on_c, 15, 43, 0
17, 63600, Note_on_c, 15, 36, 84
17, 63704, Note_on_c, 15, 36, 0
17, 63720, Note_on_c, 15, 40, 84
17, 63824, Note_on_c, 15, 40, 0
17, 63840, Note_on_c, 15, 41, 84
17, 63944, Note_on_c, 15, 41, 0
17, 63960, Note_on_c, 15, 48, 84
17, 64064, Note_on_c, 15, 48, 0
17, 64080, Note_on_c, 15, 41, 84
17, 64184, Note_on_c, 15, 41, 0
17, 64200, Note_on_c, 15, 45, 84
17, 64304, Note_on_c, 15, 45, 0
17, 64320, Note_on_c, 15, 38, 84
17, 64424, Note_on_c, 15, 38, 0
17, 64440, Note_on_c, 15, 41, 84
17, 64544, Note_on_c, 15, 41, 0
17, 64560, Note_on_c, 15, 33, 84
17, 64664, Note_on_c, 15, 33, 0
17, 64680, Note_on_c, 15, 35, 84
17, 64784, Note_on_c, 15, 35, 0
17, 64800, Note_on_c, 15, 36, 84
17, 65384, Note_on_c, 15, 36, 0
17, 65400, Note_on_c, 15, 37, 84
17, 65519, Note_on_c, 15, 37, 0
17, 65520, Note_on_c, 15, 36, 84
17, 65639, Note_on_c, 15, 36, 0
17, 65640, Note_on_c, 15, 37, 84
17, 65744, Note_on_c, 15, 37, 0
17, 65760, Note_on_c, 15, 36, 84
17, 65864, Note_on_c, 15, 36, 0
17, 65880, Note_on_c, 15, 46, 84
17, 65999, Note_on_c, 15, 46, 0
17, 66000, Note_on_c, 15, 43, 84
17, 66119, Note_on_c, 15, 43, 0
17, 66120, Note_on_c, 15, 40, 84
17, 66224, Note_on_c, 15, 40, 0
17, 66240, Note_on_c, 15, 36, 84
17, 66359, Note_on_c, 15, 36, 0
17, 66720, Note_on_c, 15, 29, 52
17, 67199, Note_on_c, 15, 29, 0
17, 67200, Note_on_c, 15, 36, 52
17, 67679, Note_on_c, 15, 36, 0
17, 67680, Note_on_c, 15, 41, 52
17, 68159, Note_on_c, 15, 41, 0
17, 68160, Note_on_c, 15, 36, 52
17, 68624, Note_on_c, 15, 36, 0
17, 68640, Note_on_c, 15, 31, 52
17, 68984, Note_on_c, 15, 31, 0
17, 69000, Note_on_c, 15, 31, 52
17, 69104, Note_on_c, 15, 31, 0
17, 69120, Note_on_c, 15, 36, 52
17, 69239, Note_on_c, 15, 36, 0
17, 69360, Note_on_c, 15, 40, 52
17, 69479, Note_on_c, 15, 40, 0
17, 69600, Note_on_c, 15, 43, 52
17, 69719, Note_on_c, 15, 43, 0
17, 69840, Note_on_c, 15, 31, 52
17, 69959, Note_on_c, 15, 31, 0
17, 70080, Note_on_c, 15, 36, 52
17, 70199, Note_on_c, 15, 36, 0
17, 70560, Note_on_c, 15, 41, 52
17, 70904, Note_on_c, 15, 41, 0
17, 70920, Note_on_c, 15, 41, 52
17, 71039, Note_on_c, 15, 41, 0
17, 71040, Note_on_c, 15, 40, 52
17, 71159, Note_on_c, 15, 40, 0
17, 71160, Note_on_c, 15, 48, 52
17, 71279, Note_on_c, 15, 48, 0
17, 71280, Note_on_c, 15, 46, 52
17, 71399, Note_on_c, 15, 46, 0
17, 71400, Note_on_c, 15, 43, 52
17, 71519, Note_on_c, 15, 43, 0
17, 71520, Note_on_c, 15, 45, 52
17, 71639, Note_on_c, 15, 45, 0
17, 71640, Note_on_c, 15, 41, 52
17, 71759, Note_on_c, 15, 41, 0
17, 71760, Note_on_c, 15, 40, 52
17, 71879, Note_on_c, 15, 40, 0
17, 71880, Note_on_c, 15, 41, 52
17, 71999, Note_on_c, 15, 41, 0
17, 72000, Note_on_c, 15, 42, 52
17, 72119, Note_on_c, 15, 42, 0
17, 72120, Note_on_c, 15, 43, 52
17, 72224, Note_on_c, 15, 43, 0
17, 72240, Note_on_c, 15, 40, 52
17, 72329, Note_on_c, 15, 40, 0
17, 72360, Note_on_c, 15, 36, 52
17, 72449, Note_on_c, 15, 36, 0
17, 72480, Note_on_c, 15, 31, 52
17, 72599, Note_on_c, 15, 31, 0
17, 72600, Note_on_c, 15, 33, 52
17, 72719, Note_on_c, 15, 33, 0
17, 72720, Note_on_c, 15, 34, 52
17, 72839, Note_on_c, 15, 34, 0
17, 72840, Note_on_c, 15, 35, 52
17, 73064, Note_on_c, 15, 35, 0
17, 73080, Note_on_c, 15, 36, 52
17, 73304, Note_on_c, 15, 36, 0
17, 73320, Note_on_c, 15, 40, 52
17, 73544, Note_on_c, 15, 40, 0
17, 73560, Note_on_c, 15, 43, 52
17, 73784, Note_on_c, 15, 43, 0
17, 73800, Note_on_c, 15, 31, 52
17, 73904, Note_on_c, 15, 31, 0
17, 73920, Note_on_c, 15, 36, 52
17, 74039, Note_on_c, 15, 36, 0
17, 75240, Note_on_c, 15, 41, 76
17, 75344, Note_on_c, 15, 41, 0
17, 75360, Note_on_c, 15, 40, 76
17, 75479, Note_on_c, 15, 40, 0
17, 75480, Note_on_c, 15, 38, 76
17, 75584, Note_on_c, 15, 38, 0
17, 75600, Note_on_c, 15, 40, 76
17, 75689, Note_on_c, 15, 40, 0
17, 75720, Note_on_c, 15, 41, 76
17, 75809, Note_on_c, 15, 41, 0
17, 75840, Note_on_c, 15, 43, 76
17, 76079, Note_on_c, 15, 43, 0
17, 77160, Note_on_c, 15, 41, 76
17, 77264, Note_on_c, 15, 41, 0
17, 77280, Note_on_c, 15, 40, 76
17, 77399, Note_on_c, 15, 40, 0
17, 77400, Note_on_c, 15, 38, 76
17, 77504, Note_on_c, 15, 38, 0
17, 77520, Note_on_c, 15, 40, 76
17, 77609, Note_on_c, 15, 40, 0
17, 77640, Note_on_c, 15, 41, 76
17, 77729, Note_on_c, 15, 41, 0
17, 77760, Note_on_c, 15, 43, 76
17, 77864, Note_on_c, 15, 43, 0
17, 77880, Note_on_c, 15, 43, 76
17, 77999, Note_on_c, 15, 43, 0
17, 78120, Note_on_c, 15, 41, 76
17, 78224, Note_on_c, 15, 41, 0
17, 78240, Note_on_c, 15, 40, 76
17, 78359, Note_on_c, 15, 40, 0
17, 78360, Note_on_c, 15, 38, 76
17, 78464, Note_on_c, 15, 38, 0
17, 78480, Note_on_c, 15, 40, 76
17, 78569, Note_on_c, 15, 40, 0
17, 78600, Note_on_c, 15, 41, 76
17, 78689, Note_on_c, 15, 41, 0
17, 78720, Note_on_c, 15, 43, 76
17, 78824, Note_on_c, 15, 43, 0
17, 78840, Note_on_c, 15, 43, 76
17, 78959, Note_on_c, 15, 43, 0
17, 79080, Note_on_c, 15, 45, 76
17, 79184, Note_on_c, 15, 45, 0
17, 79200, Note_on_c, 15, 46, 76
17, 79304, Note_on_c, 15, 46, 0
17, 79320, Note_on_c, 15, 45, 76
17, 79424, Note_on_c, 15, 45, 0
17, 79440, Note_on_c, 15, 46, 76
17, 79544, Note_on_c, 15, 46, 0
17, 79560, Note_on_c, 15, 43, 76
17, 79664, Note_on_c, 15, 43, 0
17, 79680, Note_on_c, 15, 41, 84
17, 79784, Note_on_c, 15, 41, 0
17, 79800, Note_on_c, 15, 29, 84
17, 79904, Note_on_c, 15, 29, 0
17, 79920, Note_on_c, 15, 29, 84
17, 80024, Note_on_c, 15, 29, 0
17, 80040, Note_on_c, 15, 29, 84
17, 80144, Note_on_c, 15, 29, 0
17, 80160, Note_on_c, 15, 29, 84
17, 80264, Note_on_c, 15, 29, 0
17, 80280, Note_on_c, 15, 29, 84
17, 80384, Note_on_c, 15, 29, 0
17, 80400, Note_on_c, 15, 29, 84
17, 80504, Note_on_c, 15, 29, 0
17, 80520, Note_on_c, 15, 29, 84
17, 80624, Note_on_c, 15, 29, 0
17, 80640, Note_on_c, 15, 29, 92
17, 81089, Note_on_c, 15, 29, 0
17, 81120, Note_on_c, 15, 29, 92
17, 81569, Note_on_c, 15, 29, 0
17, 81600, Note_on_c, 15, 29, 92
17, 82049, Note_on_c, 15, 29, 0
17, 82080, Note_on_c, 15, 29, 92
17, 82529, Note_on_c, 15, 29, 0
17, 84480, Note_on_c, 15, 29, 84
17, 84944, Note_on_c, 15, 29, 0
17, 84960, Note_on_c, 15, 29, 92
17, 85409, Note_on_c, 15, 29, 0
17, 85440, Note_on_c, 15, 29, 92
17, 85889, Note_on_c, 15, 29, 0
17, 85920, Note_on_c, 15, 29, 92
17, 86369, Note_on_c, 15, 29, 0
17, 90240, Note_on_c, 15, 33, 84
17, 90344, Note_on_c, 15, 33, 0
17, 90360, Note_on_c, 15, 33, 84
17, 90464, Note_on_c, 15, 33, 0
17, 90480, Note_on_c, 15, 38, 84
17, 90584, Note_on_c, 15, 38, 0
17, 90600, Note_on_c, 15, 38, 84
17, 90704, Note_on_c, 15, 38, 0
17, 90720, Note_on_c, 15, 34, 84
17, 90824, Note_on_c, 15, 34, 0
17, 90840, Note_on_c, 15, 34, 84
17, 90944, Note_on_c, 15, 34, 0
17, 90960, Note_on_c, 15, 36, 84
17, 91064, Note_on_c, 15, 36, 0
17, 91080, Note_on_c, 15, 36, 84
17, 91184, Note_on_c, 15, 36, 0
17, 91200, Note_on_c, 15, 29, 84
17, 91544, Note_on_c, 15, 29, 0
17, 91560, Note_on_c, 15, 29, 84
17, 91664, Note_on_c, 15, 29, 0
17, 91680, Note_on_c, 15, 29, 84
17, 91784, Note_on_c, 15, 29, 0
17, 91800, Note_on_c, 15, 29, 84
17, 91904, Note_on_c, 15, 29, 0
17, 91920, Note_on_c, 15, 29, 84
17, 92024, Note_on_c, 15, 29, 0
17, 92040, Note_on_c, 15, 29, 84
17, 92144, Note_on_c, 15, 29, 0
17, 92160, Note_on_c, 15, 29, 84
17, 92504, Note_on_c, 15, 29, 0
17, 92520, Note_on_c, 15, 29, 84
17, 92624, Note_on_c, 15, 29, 0
17, 92640, Note_on_c, 15, 29, 84
17, 92744, Note_on_c, 15, 29, 0
17, 92760, Note_on_c, 15, 29, 84
17, 92864, Note_on_c, 15, 29, 0
17, 92880, Note_on_c, 15, 29, 84
17, 92984, Note_on_c, 15, 29, 0
17, 93000, Note_on_c, 15, 29, 84
17, 93104, Note_on_c, 15, 29, 0
17, 93120, Note_on_c, 15, 29, 84
17, 93464, Note_on_c, 15, 29, 0
17, 93480, Note_on_c, 15, 29, 84
17, 93584, Note_on_c, 15, 29, 0
17, 93600, Note_on_c, 15, 29, 84
17, 93704, Note_on_c, 15, 29, 0
17, 93720, Note_on_c, 15, 29, 84
17, 93824, Note_on_c, 15, 29, 0
17, 93840, Note_on_c, 15, 29, 84
17, 93944, Note_on_c, 15, 29, 0
17, 93960, Note_on_c, 15, 29, 84
17, 94064, Note_on_c, 15, 29, 0
17, 94080, Note_on_c, 15, 29, 84
17, 94424, Note_on_c, 15, 29, 0
17, 94440, Note_on_c, 15, 29, 84
17, 94544, Note_on_c, 15, 29, 0
17, 94560, Note_on_c, 15, 29, 84
17, 94664, Note_on_c, 15, 29, 0
17, 94680, Note_on_c, 15, 29, 84
17, 94784, Note_on_c, 15, 29, 0
17, 94800, Note_on_c, 15, 29, 84
17, 94904, Note_on_c, 15, 29, 0
17, 94920, Note_on_c, 15, 29, 84
17, 95024, Note_on_c, 15, 29, 0
17, 95040, Note_on_c, 15, 41, 84
17, 95091, Note_on_c, 15, 41, 0
17, 95100, Note_on_c, 15, 40, 84
17, 95151, Note_on_c, 15, 40, 0
17, 95160, Note_on_c, 15, 41, 84
17, 95211, Note_on_c, 15, 41, 0
17, 95220, Note_on_c, 15, 43, 84
17, 95271, Note_on_c, 15, 43, 0
17, 95280, Note_on_c, 15, 36, 84
17, 95331, Note_on_c, 15, 36, 0
17, 95340, Note_on_c, 15, 38, 84
17, 95391, Note_on_c, 15, 38, 0
17, 95400, Note_on_c, 15, 39, 84
17, 95451, Note_on_c, 15, 39, 0
17, 95460, Note_on_c, 15, 40, 84
17, 95511, Note_on_c, 15, 40, 0
17, 95520, Note_on_c, 15, 41, 84
17, 95571, Note_on_c, 15, 41, 0
17, 95580, Note_on_c, 15, 40, 84
17, 95631, Note_on_c, 15, 40, 0
17, 95640, Note_on_c, 15, 41, 84
17, 95691, Note_on_c, 15, 41, 0
17, 95700, Note_on_c, 15, 45, 84
17, 95751, Note_on_c, 15, 45, 0
17, 95760, Note_on_c, 15, 36, 84
17, 95811, Note_on_c, 15, 36, 0
17, 95820, Note_on_c, 15, 38, 84
17, 95871, Note_on_c, 15, 38, 0
17, 95880, Note_on_c, 15, 39, 84
17, 95931, Note_on_c, 15, 39, 0
17, 95940, Note_on_c, 15, 40, 84
17, 95991, Note_on_c, 15, 40, 0
17, 96000, Note_on_c, 15, 41, 84
17, 96051, Note_on_c, 15, 41, 0
17, 96060, Note_on_c, 15, 40, 84
17, 96111, Note_on_c, 15, 40, 0
17, 96120, Note_on_c, 15, 41, 84
17, 96171, Note_on_c, 15, 41, 0
17, 96180, Note_on_c, 15, 45, 84
17, 96231, Note_on_c, 15, 45, 0
17, 96240, Note_on_c, 15, 36, 84
17, 96291, Note_on_c, 15, 36, 0
17, 96300, Note_on_c, 15, 38, 84
17, 96351, Note_on_c, 15, 38, 0
17, 96360, Note_on_c, 15, 39, 84
17, 96411, Note_on_c, 15, 39, 0
17, 96420, Note_on_c, 15, 40, 84
17, 96471, Note_on_c, 15, 40, 0
17, 96480, Note_on_c, 15, 41, 84
17, 96531, Note_on_c, 15, 41, 0
17, 96540, Note_on_c, 15, 40, 84
17, 96591, Note_on_c, 15, 40, 0
17, 96600, Note_on_c, 15, 41, 84
17, 96651, Note_on_c, 15, 41, 0
17, 96660, Note_on_c, 15, 45, 84
17, 96711, Note_on_c, 15, 45, 0
17, 96720, Note_on_c, 15, 36, 84
17, 96771, Note_on_c, 15, 36, 0
17, 96780, Note_on_c, 15, 38, 84
17, 96831, Note_on_c, 15, 38, 0
17, 96840, Note_on_c, 15, 39, 84
17, 96891, Note_on_c, 15, 39, 0
17, 96900, Note_on_c, 15, 40, 84
17, 96951, Note_on_c, 15, 40, 0
17, 96960, Note_on_c, 15, 41, 52
17, 97079, Note_on_c, 15, 41, 0
17, 98640, Note_on_c, 15, 27, 52
17, 98691, Note_on_c, 15, 27, 0
17, 98700, Note_on_c, 15, 29, 52
17, 98751, Note_on_c, 15, 29, 0
17, 98760, Note_on_c, 15, 30, 52
17, 98811, Note_on_c, 15, 30, 0
17, 98820, Note_on_c, 15, 31, 52
17, 98871, Note_on_c, 15, 31, 0
17, 98880, Note_on_c, 15, 32, 52
17, 98999, Note_on_c, 15, 32, 0
17, 105600, Note_on_c, 15, 35, 84
17, 105651, Note_on_c, 15, 35, 0
17, 105660, Note_on_c, 15, 35, 84
17, 105711, Note_on_c, 15, 35, 0
17, 105720, Note_on_c, 15, 35, 84
17, 105771, Note_on_c, 15, 35, 0
17, 105780, Note_on_c, 15, 35, 84
17, 105831, Note_on_c, 15, 35, 0
17, 105840, Note_on_c, 15, 35, 84
17, 105891, Note_on_c, 15, 35, 0
17, 105900, Note_on_c, 15, 35, 84
17, 105951, Note_on_c, 15, 35, 0
17, 105960, Note_on_c, 15, 35, 84
17, 106011, Note_on_c, 15, 35, 0
17, 106020, Note_on_c, 15, 35, 84
17, 106071, Note_on_c, 15, 35, 0
17, 106080, Note_on_c, 15, 35, 84
17, 106131, Note_on_c, 15, 35, 0
17, 106140, Note_on_c, 15, 35, 84
17, 106191, Note_on_c, 15, 35, 0
17, 106200, Note_on_c, 15, 35, 84
17, 106251, Note_on_c, 15, 35, 0
17, 106260, Note_on_c, 15, 35, 84
17, 106311, Note_on_c, 15, 35, 0
17, 106320, Note_on_c, 15, 35, 84
17, 106371, Note_on_c, 15, 35, 0
17, 106380, Note_on_c, 15, 35, 84
17, 106431, Note_on_c, 15, 35, 0
17, 106440, Note_on_c, 15, 35, 84
17, 106491, Note_on_c, 15, 35, 0
17, 106500, Note_on_c, 15, 35, 84
17, 106551, Note_on_c, 15, 35, 0
17, 106560, Note_on_c, 15, 48, 52
17, 106919, Note_on_c, 15, 48, 0
17, 106920, Note_on_c, 15, 45, 52
17, 107024, Note_on_c, 15, 45, 0
17, 107040, Note_on_c, 15, 43, 52
17, 107399, Note_on_c, 15, 43, 0
17, 107400, Note_on_c, 15, 40, 52
17, 107504, Note_on_c, 15, 40, 0
17, 107520, Note_on_c, 15, 38, 52
17, 107639, Note_on_c, 15, 38, 0
17, 107760, Note_on_c, 15, 38, 52
17, 107879, Note_on_c, 15, 38, 0
17, 108000, Note_on_c, 15, 38, 52
17, 108959, Note_on_c, 15, 38, 0
17, 108960, Note_on_c, 15, 38, 52
17, 109424, Note_on_c, 15, 38, 0
17, 109440, Note_on_c, 15, 38, 52
17, 109559, Note_on_c, 15, 38, 0
17, 109680, Note_on_c, 15, 38, 52
17, 109799, Note_on_c, 15, 38, 0
17, 109920, Note_on_c, 15, 43, 52
17, 110039, Note_on_c, 15, 43, 0
17, 110400, Note_on_c, 15, 38, 52
17, 110519, Note_on_c, 15, 38, 0
17, 110640, Note_on_c, 15, 38, 52
17, 110759, Note_on_c, 15, 38, 0
17, 110880, Note_on_c, 15, 43, 52
17, 110999, Note_on_c, 15, 43, 0
17, 111360, Note_on_c, 15, 50, 52
17, 111479, Note_on_c, 15, 50, 0
17, 111600, Note_on_c, 15, 50, 64
17, 111719, Note_on_c, 15, 50, 0
17, 111840, Note_on_c, 15, 43, 76
17, 112304, Note_on_c, 15, 43, 0
17, 112320, Note_on_c, 15, 36, 84
17, 112379, Note_on_c, 15, 36, 0
17, 112380, Note_on_c, 15, 36, 52
17, 112784, Note_on_c, 15, 36, 0
17, 112800, Note_on_c, 15, 43, 52
17, 112919, Note_on_c, 15, 43, 0
17, 113040, Note_on_c, 15, 48, 52
17, 113159, Note_on_c, 15, 48, 0
17, 113280, Note_on_c, 15, 43, 52
17, 113399, Note_on_c, 15, 43, 0
17, 113520, Note_on_c, 15, 36, 52
17, 113639, Note_on_c, 15, 36, 0
17, 113760, Note_on_c, 15, 43, 52
17, 113879, Note_on_c, 15, 43, 0
17, 114000, Note_on_c, 15, 48, 52
17, 114119, Note_on_c, 15, 48, 0
17, 114240, Note_on_c, 15, 43, 52
17, 114359, Note_on_c, 15, 43, 0
17, 114480, Note_on_c, 15, 39, 52
17, 114599, Note_on_c, 15, 39, 0
17, 114720, Note_on_c, 15, 46, 76
17, 115184, Note_on_c, 15, 46, 0
17, 115200, Note_on_c, 15, 39, 84
17, 115259, Note_on_c, 15, 39, 0
17, 115260, Note_on_c, 15, 39, 52
17, 115664, Note_on_c, 15, 39, 0
17, 115680, Note_on_c, 15, 46, 52
17, 115799, Note_on_c, 15, 46, 0
17, 115920, Note_on_c, 15, 51, 52
17, 116039, Note_on_c, 15, 51, 0
17, 116160, Note_on_c, 15, 46, 52
17, 116279, Note_on_c, 15, 46, 0
17, 116400, Note_on_c, 15, 39, 52
17, 116519, Note_on_c, 15, 39, 0
17, 116640, Note_on_c, 15, 46, 52
17, 116759, Note_on_c, 15, 46, 0
17, 116880, Note_on_c, 15, 51, 52
17, 116999, Note_on_c, 15, 51, 0
17, 117120, Note_on_c, 15, 46, 52
17, 117239, Note_on_c, 15, 46, 0
17, 117360, Note_on_c, 15, 43, 52
17, 117479, Note_on_c, 15, 43, 0
17, 117600, Note_on_c, 15, 50, 76
17, 118064, Note_on_c, 15, 50, 0
17, 118080, Note_on_c, 15, 43, 84
17, 118131, Note_on_c, 15, 43, 0
17, 118140, Note_on_c, 15, 42, 76
17, 118191, Note_on_c, 15, 42, 0
17, 118200, Note_on_c, 15, 43, 73
17, 118251, Note_on_c, 15, 43, 0
17, 118260, Note_on_c, 15, 46, 70
17, 118311, Note_on_c, 15, 46, 0
17, 118320, Note_on_c, 15, 45, 66
17, 118371, Note_on_c, 15, 45, 0
17, 118380, Note_on_c, 15, 43, 63
17, 118431, Note_on_c, 15, 43, 0
17, 118440, Note_on_c, 15, 42, 59
17, 118491, Note_on_c, 15, 42, 0
17, 118500, Note_on_c, 15, 43, 56
17, 118551, Note_on_c, 15, 43, 0
17, 118560, Note_on_c, 15, 38, 52
17, 118679, Note_on_c, 15, 38, 0
17, 118800, Note_on_c, 15, 43, 52
17, 118919, Note_on_c, 15, 43, 0
17, 119040, Note_on_c, 15, 38, 52
17, 119159, Note_on_c, 15, 38, 0
17, 119280, Note_on_c, 15, 31, 52
17, 119399, Note_on_c, 15, 31, 0
17, 119520, Note_on_c, 15, 38, 52
17, 119639, Note_on_c, 15, 38, 0
17, 119760, Note_on_c, 15, 43, 52
17, 119879, Note_on_c, 15, 43, 0
17, 120000, Note_on_c, 15, 38, 52
17, 120119, Note_on_c, 15, 38, 0
17, 120240, Note_on_c, 15, 31, 52
17, 120359, Note_on_c, 15, 31, 0
17, 126240, Note_on_c, 15, 29, 84
17, 126344, Note_on_c, 15, 29, 0
17, 126360, Note_on_c, 15, 29, 84
17, 126479, Note_on_c, 15, 29, 0
17, 126600, Note_on_c, 15, 29, 84
17, 126704, Note_on_c, 15, 29, 0
17, 126720, Note_on_c, 15, 29, 84
17, 126824, Note_on_c, 15, 29, 0
17, 126840, Note_on_c, 15, 29, 84
17, 126959, Note_on_c, 15, 29, 0
17, 127080, Note_on_c, 15, 29, 84
17, 127184, Note_on_c, 15, 29, 0
17, 127200, Note_on_c, 15, 29, 84
17, 127304, Note_on_c, 15, 29, 0
17, 127320, Note_on_c, 15, 29, 84
17, 127439, Note_on_c, 15, 29, 0
17, 127560, Note_on_c, 15, 29, 84
17, 127664, Note_on_c, 15, 29, 0
17, 127680, Note_on_c, 15, 29, 84
17, 127784, Note_on_c, 15, 29, 0
17, 127800, Note_on_c, 15, 29, 84
17, 127919, Note_on_c, 15, 29, 0
17, 128040, Note_on_c, 15, 29, 84
17, 128144, Note_on_c, 15, 29, 0
17, 128160, Note_on_c, 15, 29, 84
17, 128264, Note_on_c, 15, 29, 0
17, 128280, Note_on_c, 15, 29, 84
17, 128504, Note_on_c, 15, 29, 0
17, 128520, Note_on_c, 15, 29, 84
17, 128744, Note_on_c, 15, 29, 0
17, 128760, Note_on_c, 15, 29, 84
17, 128984, Note_on_c, 15, 29, 0
17, 129000, Note_on_c, 15, 29, 84
17, 129224, Note_on_c, 15, 29, 0
17, 129240, Note_on_c, 15, 29, 84
17, 129464, Note_on_c, 15, 29, 0
17, 129480, Note_on_c, 15, 29, 84
17, 129704, Note_on_c, 15, 29, 0
17, 129720, Note_on_c, 15, 29, 84
17, 129944, Note_on_c, 15, 29, 0
17, 129960, Note_on_c, 15, 29, 84
17, 130064, Note_on_c, 15, 29, 0
17, 130080, Note_on_c, 15, 29, 92
17, 130529, Note_on_c, 15, 29, 0
17, 130560, Note_on_c, 15, 29, 92
17, 131009, Note_on_c, 15, 29, 0
17, 131040, Note_on_c, 15, 29, 92
17, 131489, Note_on_c, 15, 29, 0
17, 131520, Note_on_c, 15, 29, 92
17, 131969, Note_on_c, 15, 29, 0
17, 132000, Note_on_c, 15, 29, 84
17, 132104, Note_on_c, 15, 29, 0
17, 132120, Note_on_c, 15, 29, 84
17, 132344, Note_on_c, 15, 29, 0
17, 132360, Note_on_c, 15, 29, 84
17, 132584, Note_on_c, 15, 29, 0
17, 132600, Note_on_c, 15, 29, 84
17, 132824, Note_on_c, 15, 29, 0
17, 132840, Note_on_c, 15, 29, 84
17, 133064, Note_on_c, 15, 29, 0
17, 133080, Note_on_c, 15, 29, 84
17, 133304, Note_on_c, 15, 29, 0
17, 133320, Note_on_c, 15, 29, 84
17, 133544, Note_on_c, 15, 29, 0
17, 133560, Note_on_c, 15, 29, 84
17, 133784, Note_on_c, 15, 29, 0
17, 133800, Note_on_c, 15, 29, 84
17, 133904, Note_on_c, 15, 29, 0
17, 133920, Note_on_c, 15, 29, 92
17, 134369, Note_on_c, 15, 29, 0
17, 134400, Note_on_c, 15, 29, 92
17, 134849, Note_on_c, 15, 29, 0
17, 134880, Note_on_c, 15, 29, 92
17, 135329, Note_on_c, 15, 29, 0
17, 135360, Note_on_c, 15, 29, 92
17, 135809, Note_on_c, 15, 29, 0
17, 135840, Note_on_c, 15, 29, 84
17, 135959, Note_on_c, 15, 29, 0
17, 139680, Note_on_c, 15, 34, 76
17, 139799, Note_on_c, 15, 34, 0
17, 139920, Note_on_c, 15, 46, 76
17, 140039, Note_on_c, 15, 46, 0
17, 140160, Note_on_c, 15, 39, 76
17, 140279, Note_on_c, 15, 39, 0
17, 140880, Note_on_c, 15, 41, 76
17, 140931, Note_on_c, 15, 41, 0
17, 140940, Note_on_c, 15, 39, 76
17, 140991, Note_on_c, 15, 39, 0
17, 141000, Note_on_c, 15, 38, 76
17, 141051, Note_on_c, 15, 38, 0
17, 141060, Note_on_c, 15, 36, 76
17, 141111, Note_on_c, 15, 36, 0
17, 141120, Note_on_c, 15, 34, 76
17, 141171, Note_on_c, 15, 34, 0
17, 141180, Note_on_c, 15, 36, 76
17, 141231, Note_on_c, 15, 36, 0
17, 141240, Note_on_c, 15, 38, 76
17, 141291, Note_on_c, 15, 38, 0
17, 141300, Note_on_c, 15, 34, 76
17, 141351, Note_on_c, 15, 34, 0
17, 141360, Note_on_c, 15, 29, 76
17, 141411, Note_on_c, 15, 29, 0
17, 141420, Note_on_c, 15, 33, 76
17, 141471, Note_on_c, 15, 33, 0
17, 141480, Note_on_c, 15, 36, 76
17, 141531, Note_on_c, 15, 36, 0
17, 141540, Note_on_c, 15, 41, 76
17, 141591, Note_on_c, 15, 41, 0
17, 141600, Note_on_c, 15, 34, 76
17, 141704, Note_on_c, 15, 34, 0
17, 141720, Note_on_c, 15, 34, 76
17, 141824, Note_on_c, 15, 34, 0
17, 141840, Note_on_c, 15, 34, 76
17, 141944, Note_on_c, 15, 34, 0
17, 141960, Note_on_c, 15, 34, 76
17, 142064, Note_on_c, 15, 34, 0
17, 142080, Note_on_c, 15, 34, 76
17, 142184, Note_on_c, 15, 34, 0
17, 142200, Note_on_c, 15, 34, 76
17, 142304, Note_on_c, 15, 34, 0
17, 142320, Note_on_c, 15, 34, 76
17, 142424, Note_on_c, 15, 34, 0
17, 142440, Note_on_c, 15, 34, 76
17, 142544, Note_on_c, 15, 34, 0
17, 142560, Note_on_c, 15, 34, 76
17, 142664, Note_on_c, 15, 34, 0
17, 142680, Note_on_c, 15, 34, 76
17, 142784, Note_on_c, 15, 34, 0
17, 142800, Note_on_c, 15, 34, 76
17, 142904, Note_on_c, 15, 34, 0
17, 142920, Note_on_c, 15, 34, 76
17, 143024, Note_on_c, 15, 34, 0
17, 143040, Note_on_c, 15, 34, 76
17, 143144, Note_on_c, 15, 34, 0
17, 143160, Note_on_c, 15, 34, 76
17, 143264, Note_on_c, 15, 34, 0
17, 143280, Note_on_c, 15, 34, 76
17, 143384, Note_on_c, 15, 34, 0
17, 143400, Note_on_c, 15, 34, 76
17, 143504, Note_on_c, 15, 34, 0
17, 143520, Note_on_c, 15, 34, 76
17, 143624, Note_on_c, 15, 34, 0
17, 143640, Note_on_c, 15, 34, 76
17, 143744, Note_on_c, 15, 34, 0
17, 143760, Note_on_c, 15, 34, 76
17, 143864, Note_on_c, 15, 34, 0
17, 143880, Note_on_c, 15, 34, 76
17, 143984, Note_on_c, 15, 34, 0
17, 144000, Note_on_c, 15, 34, 76
17, 144104, Note_on_c, 15, 34, 0
17, 144120, Note_on_c, 15, 34, 76
17, 144224, Note_on_c, 15, 34, 0
17, 144240, Note_on_c, 15, 34, 76
17, 144344, Note_on_c, 15, 34, 0
17, 144360, Note_on_c, 15, 34, 76
17, 144464, Note_on_c, 15, 34, 0
17, 144480, Note_on_c, 15, 34, 76
17, 144584, Note_on_c, 15, 34, 0
17, 144600, Note_on_c, 15, 34, 76
17, 144704, Note_on_c, 15, 34, 0
17, 144720, Note_on_c, 15, 34, 76
17, 144824, Note_on_c, 15, 34, 0
17, 144840, Note_on_c, 15, 34, 76
17, 144944, Note_on_c, 15, 34, 0
17, 144960, Note_on_c, 15, 34, 76
17, 145064, Note_on_c, 15, 34, 0
17, 145080, Note_on_c, 15, 34, 76
17, 145184, Note_on_c, 15, 34, 0
17, 145200, Note_on_c, 15, 34, 76
17, 145304, Note_on_c, 15, 34, 0
17, 145320, Note_on_c, 15, 34, 76
17, 145424, Note_on_c, 15, 34, 0
17, 145440, Note_on_c, 15, 39, 76
17, 145544, Note_on_c, 15, 39, 0
17, 145560, Note_on_c, 15, 39, 76
17, 145664, Note_on_c, 15, 39, 0
17, 145680, Note_on_c, 15, 39, 76
17, 145784, Note_on_c, 15, 39, 0
17, 145800, Note_on_c, 15, 39, 76
17, 145904, Note_on_c, 15, 39, 0
17, 145920, Note_on_c, 15, 39, 76
17, 146024, Note_on_c, 15, 39, 0
17, 146040, Note_on_c, 15, 39, 76
17, 146144, Note_on_c, 15, 39, 0
17, 146160, Note_on_c, 15, 39, 76
17, 146264, Note_on_c, 15, 39, 0
17, 146280, Note_on_c, 15, 39, 76
17, 146384, Note_on_c, 15, 39, 0
17, 146400, Note_on_c, 15, 39, 76
17, 146504, Note_on_c, 15, 39, 0
17, 146520, Note_on_c, 15, 39, 76
17, 146624, Note_on_c, 15, 39, 0
17, 146640, Note_on_c, 15, 39, 76
17, 146744, Note_on_c, 15, 39, 0
17, 146760, Note_on_c, 15, 39, 76
17, 146864, Note_on_c, 15, 39, 0
17, 146880, Note_on_c, 15, 39, 76
17, 146984, Note_on_c, 15, 39, 0
17, 147000, Note_on_c, 15, 39, 76
17, 147104, Note_on_c, 15, 39, 0
17, 147120, Note_on_c, 15, 39, 76
17, 147224, Note_on_c, 15, 39, 0
17, 147240, Note_on_c, 15, 39, 76
17, 147359, Note_on_c, 15, 39, 0
17, 148320, Note_on_c, 15, 48, 52
17, 148424, Note_on_c, 15, 48, 0
17, 148440, Note_on_c, 15, 51, 52
17, 148544, Note_on_c, 15, 51, 0
17, 148560, Note_on_c, 15, 43, 52
17, 148664, Note_on_c, 15, 43, 0
17, 148680, Note_on_c, 15, 48, 52
17, 148784, Note_on_c, 15, 48, 0
17, 148800, Note_on_c, 15, 39, 52
17, 148904, Note_on_c, 15, 39, 0
17, 148920, Note_on_c, 15, 43, 52
17, 149024, Note_on_c, 15, 43, 0
17, 149040, Note_on_c, 15, 36, 52
17, 149144, Note_on_c, 15, 36, 0
17, 149160, Note_on_c, 15, 39, 52
17, 149264, Note_on_c, 15, 39, 0
17, 149280, Note_on_c, 15, 45, 76
17, 149384, Note_on_c, 15, 45, 0
17, 149400, Note_on_c, 15, 48, 76
17, 149504, Note_on_c, 15, 48, 0
17, 149520, Note_on_c, 15, 39, 76
17, 149624, Note_on_c, 15, 39, 0
17, 149640, Note_on_c, 15, 45, 76
17, 149744, Note_on_c, 15, 45, 0
17, 149760, Note_on_c, 15, 36, 76
17, 149864, Note_on_c, 15, 36, 0
17, 149880, Note_on_c, 15, 39, 76
17, 149984, Note_on_c, 15, 39, 0
17, 150000, Note_on_c, 15, 33, 76
17, 150104, Note_on_c, 15, 33, 0
17, 150120, Note_on_c, 15, 36, 76
17, 150224, Note_on_c, 15, 36, 0
17, 150240, Note_on_c, 15, 29, 84
17, 150824, Note_on_c, 15, 29, 0
17, 150840, Note_on_c, 15, 30, 84
17, 150959, Note_on_c, 15, 30, 0
17, 150960, Note_on_c, 15, 29, 84
17, 151079, Note_on_c, 15, 29, 0
17, 151080, Note_on_c, 15, 30, 84
17, 151184, Note_on_c, 15, 30, 0
17, 151200, Note_on_c, 15, 29, 84
17, 151304, Note_on_c, 15, 29, 0
17, 151320, Note_on_c, 15, 39, 84
17, 151439, Note_on_c, 15, 39, 0
17, 151440, Note_on_c, 15, 36, 84
17, 151559, Note_on_c, 15, 36, 0
17, 151560, Note_on_c, 15, 33, 84
17, 151664, Note_on_c, 15, 33, 0
17, 151680, Note_on_c, 15, 29, 84
17, 151799, Note_on_c, 15, 29, 0
17, 152160, Note_on_c, 15, 34, 52
17, 152639, Note_on_c, 15, 34, 0
17, 152640, Note_on_c, 15, 41, 52
17, 153119, Note_on_c, 15, 41, 0
17, 153120, Note_on_c, 15, 46, 52
17, 153599, Note_on_c, 15, 46, 0
17, 153600, Note_on_c, 15, 41, 52
17, 154064, Note_on_c, 15, 41, 0
17, 154080, Note_on_c, 15, 36, 52
17, 154424, Note_on_c, 15, 36, 0
17, 154440, Note_on_c, 15, 36, 52
17, 154544, Note_on_c, 15, 36, 0
17, 154560, Note_on_c, 15, 41, 52
17, 154679, Note_on_c, 15, 41, 0
17, 154800, Note_on_c, 15, 45, 52
17, 154919, Note_on_c, 15, 45, 0
17, 155040, Note_on_c, 15, 48, 52
17, 155159, Note_on_c, 15, 48, 0
17, 155280, Note_on_c, 15, 36, 52
17, 155399, Note_on_c, 15, 36, 0
17, 155520, Note_on_c, 15, 41, 52
17, 155639, Note_on_c, 15, 41, 0
17, 156000, Note_on_c, 15, 46, 52
17, 156344, Note_on_c, 15, 46, 0
17, 156360, Note_on_c, 15, 46, 52
17, 156479, Note_on_c, 15, 46, 0
17, 156480, Note_on_c, 15, 45, 52
17, 156599, Note_on_c, 15, 45, 0
17, 156600, Note_on_c, 15, 53, 52
17, 156719, Note_on_c, 15, 53, 0
17, 156720, Note_on_c, 15, 51, 52
17, 156839, Note_on_c, 15, 51, 0
17, 156840, Note_on_c, 15, 48, 52
17, 156959, Note_on_c, 15, 48, 0
17, 156960, Note_on_c, 15, 50, 52
17, 157079, Note_on_c, 15, 50, 0
17, 157080, Note_on_c, 15, 46, 52
17, 157199, Note_on_c, 15, 46, 0
17, 157200, Note_on_c, 15, 45, 52
17, 157319, Note_on_c, 15, 45, 0
17, 157320, Note_on_c, 15, 46, 52
17, 157439, Note_on_c, 15, 46, 0
17, 157440, Note_on_c, 15, 47, 52
17, 157559, Note_on_c, 15, 47, 0
17, 157560, Note_on_c, 15, 48, 52
17, 157664, Note_on_c, 15, 48, 0
17, 157680, Note_on_c, 15, 45, 52
17, 157769, Note_on_c, 15, 45, 0
17, 157800, Note_on_c, 15, 41, 52
17, 157889, Note_on_c, 15, 41, 0
17, 157920, Note_on_c, 15, 36, 52
17, 158024, Note_on_c, 15, 36, 0
17, 158040, Note_on_c, 15, 36, 52
17, 158159, Note_on_c, 15, 36, 0
17, 158160, Note_on_c, 15, 38, 52
17, 158279, Note_on_c, 15, 38, 0
17, 158280, Note_on_c, 15, 40, 52
17, 158504, Note_on_c, 15, 40, 0
17, 158520, Note_on_c, 15, 41, 52
17, 158744, Note_on_c, 15, 41, 0
17, 158760, Note_on_c, 15, 45, 52
17, 158984, Note_on_c, 15, 45, 0
17, 159000, Note_on_c, 15, 48, 52
17, 159224, Note_on_c, 15, 48, 0
17, 159240, Note_on_c, 15, 36, 52
17, 159344, Note_on_c, 15, 36, 0
17, 159360, Note_on_c, 15, 41, 52
17, 159599, Note_on_c, 15, 41, 0
17, 160680, Note_on_c, 15, 34, 76
17, 160784, Note_on_c, 15, 34, 0
17, 160800, Note_on_c, 15, 33, 76
17, 160919, Note_on_c, 15, 33, 0
17, 160920, Note_on_c, 15, 31, 76
17, 161024, Note_on_c, 15, 31, 0
17, 161040, Note_on_c, 15, 33, 76
17, 161129, Note_on_c, 15, 33, 0
17, 161160, Note_on_c, 15, 34, 76
17, 161249, Note_on_c, 15, 34, 0
17, 161280, Note_on_c, 15, 36, 76
17, 161519, Note_on_c, 15, 36, 0
17, 162600, Note_on_c, 15, 34, 76
17, 162704, Note_on_c, 15, 34, 0
17, 162720, Note_on_c, 15, 33, 76
17, 162839, Note_on_c, 15, 33, 0
17, 162840, Note_on_c, 15, 31, 76
17, 162944, Note_on_c, 15, 31, 0
17, 162960, Note_on_c, 15, 33, 76
17, 163049, Note_on_c, 15, 33, 0
17, 163080, Note_on_c, 15, 34, 76
17, 163169, Note_on_c, 15, 34, 0
17, 163200, Note_on_c, 15, 36, 76
17, 163289, Note_on_c, 15, 36, 0
17, 163320, Note_on_c, 15, 36, 76
17, 163409, Note_on_c, 15, 36, 0
17, 163560, Note_on_c, 15, 34, 76
17, 163664, Note_on_c, 15, 34, 0
17, 163680, Note_on_c, 15, 33, 76
17, 163799, Note_on_c, 15, 33, 0
17, 163800, Note_on_c, 15, 31, 76
17, 163904, Note_on_c, 15, 31, 0
17, 163920, Note_on_c, 15, 33, 76
17, 164009, Note_on_c, 15, 33, 0
17, 164040, Note_on_c, 15, 34, 76
17, 164129, Note_on_c, 15, 34, 0
17, 164160, Note_on_c, 15, 36, 76
17, 164264, Note_on_c, 15, 36, 0
17, 164280, Note_on_c, 15, 36, 76
17, 164399, Note_on_c, 15, 36, 0
17, 164520, Note_on_c, 15, 38, 76
17, 164624, Note_on_c, 15, 38, 0
17, 164640, Note_on_c, 15, 39, 76
17, 164744, Note_on_c, 15, 39, 0
17, 164760, Note_on_c, 15, 38, 76
17, 164864, Note_on_c, 15, 38, 0
17, 164880, Note_on_c, 15, 39, 76
17, 164984, Note_on_c, 15, 39, 0
17, 165000, Note_on_c, 15, 36, 76
17, 165104, Note_on_c, 15, 36, 0
17, 165120, Note_on_c, 15, 34, 84
17, 165224, Note_on_c, 15, 34, 0
17, 165240, Note_on_c, 15, 34, 84
17, 165344, Note_on_c, 15, 34, 0
17, 165360, Note_on_c, 15, 34, 84
17, 165464, Note_on_c, 15, 34, 0
17, 165480, Note_on_c, 15, 34, 84
17, 165584, Note_on_c, 15, 34, 0
17, 165600, Note_on_c, 15, 34, 84
17, 165704, Note_on_c, 15, 34, 0
17, 165720, Note_on_c, 15, 34, 84
17, 165824, Note_on_c, 15, 34, 0
17, 165840, Note_on_c, 15, 34, 84
17, 165944, Note_on_c, 15, 34, 0
17, 165960, Note_on_c, 15, 34, 84
17, 166064, Note_on_c, 15, 34, 0
17, 166080, Note_on_c, 15, 34, 92
17, 166529, Note_on_c, 15, 34, 0
17, 166560, Note_on_c, 15, 34, 92
17, 167009, Note_on_c, 15, 34, 0
17, 167040, Note_on_c, 15, 34, 92
17, 167489, Note_on_c, 15, 34, 0
17, 167520, Note_on_c, 15, 34, 92
17, 167969, Note_on_c, 15, 34, 0
17, 169920, Note_on_c, 15, 34, 84
17, 170384, Note_on_c, 15, 34, 0
17, 170400, Note_on_c, 15, 34, 92
17, 170849, Note_on_c, 15, 34, 0
17, 170880, Note_on_c, 15, 34, 92
17, 171329, Note_on_c, 15, 34, 0
17, 171360, Note_on_c, 15, 34, 92
17, 171809, Note_on_c, 15, 34, 0
17, 175680, Note_on_c, 15, 38, 84
17, 175784, Note_on_c, 15, 38, 0
17, 175800, Note_on_c, 15, 38, 84
17, 175904, Note_on_c, 15, 38, 0
17, 175920, Note_on_c, 15, 43, 84
17, 176024, Note_on_c, 15, 43, 0
17, 176040, Note_on_c, 15, 43, 84
17, 176144, Note_on_c, 15, 43, 0
17, 176160, Note_on_c, 15, 39, 84
17, 176264, Note_on_c, 15, 39, 0
17, 176280, Note_on_c, 15, 39, 84
17, 176384, Note_on_c, 15, 39, 0
17, 176400, Note_on_c, 15, 41, 84
17, 176504, Note_on_c, 15, 41, 0
17, 176520, Note_on_c, 15, 41, 84
17, 176624, Note_on_c, 15, 41, 0
17, 176640, Note_on_c, 15, 34, 84
17, 176984, Note_on_c, 15, 34, 0
17, 177000, Note_on_c, 15, 34, 84
17, 177104, Note_on_c, 15, 34, 0
17, 177120, Note_on_c, 15, 34, 84
17, 177224, Note_on_c, 15, 34, 0
17, 177240, Note_on_c, 15, 34, 84
17, 177344, Note_on_c, 15, 34, 0
17, 177360, Note_on_c, 15, 34, 84
17, 177464, Note_on_c, 15, 34, 0
17, 177480, Note_on_c, 15, 34, 84
17, 177584, Note_on_c, 15, 34, 0
17, 177600, Note_on_c, 15, 34, 84
17, 177944, Note_on_c, 15, 34, 0
17, 177960, Note_on_c, 15, 34, 84
17, 178064, Note_on_c, 15, 34, 0
17, 178080, Note_on_c, 15, 34, 84
17, 178184, Note_on_c, 15, 34, 0
17, 178200, Note_on_c, 15, 34, 84
17, 178304, Note_on_c, 15, 34, 0
17, 178320, Note_on_c, 15, 34, 84
17, 178424, Note_on_c, 15, 34, 0
17, 178440, Note_on_c, 15, 34, 84
17, 178544, Note_on_c, 15, 34, 0
17, 178560, Note_on_c, 15, 34, 84
17, 178904, Note_on_c, 15, 34, 0
17, 178920, Note_on_c, 15, 34, 84
17, 179024, Note_on_c, 15, 34, 0
17, 179040, Note_on_c, 15, 34, 84
17, 179144, Note_on_c, 15, 34, 0
17, 179160, Note_on_c, 15, 34, 84
17, 179264, Note_on_c, 15, 34, 0
17, 179280, Note_on_c, 15, 34, 84
17, 179384, Note_on_c, 15, 34, 0
17, 179400, Note_on_c, 15, 34, 84
17, 179504, Note_on_c, 15, 34, 0
17, 179520, Note_on_c, 15, 34, 84
17, 179864, Note_on_c, 15, 34, 0
17, 179880, Note_on_c, 15, 34, 84
17, 179984, Note_on_c, 15, 34, 0
17, 180000, Note_on_c, 15, 34, 84
17, 180104, Note_on_c, 15, 34, 0
17, 180120, Note_on_c, 15, 34, 84
17, 180224, Note_on_c, 15, 34, 0
17, 180240, Note_on_c, 15, 34, 84
17, 180344, Note_on_c, 15, 34, 0
17, 180360, Note_on_c, 15, 34, 84
17, 180464, Note_on_c, 15, 34, 0
17, 180480, Note_on_c, 15, 34, 84
17, 180531, Note_on_c, 15, 34, 0
17, 180540, Note_on_c, 15, 33, 84
17, 180591, Note_on_c, 15, 33, 0
17, 180600, Note_on_c, 15, 34, 84
17, 180651, Note_on_c, 15, 34, 0
17, 180660, Note_on_c, 15, 38, 84
17, 180711, Note_on_c, 15, 38, 0
17, 180720, Note_on_c, 15, 29, 84
17, 180771, Note_on_c, 15, 29, 0
17, 180780, Note_on_c, 15, 31, 84
17, 180831, Note_on_c, 15, 31, 0
17, 180840, Note_on_c, 15, 32, 84
17, 180891, Note_on_c, 15, 32, 0
17, 180900, Note_on_c, 15, 33, 84
17, 180951, Note_on_c, 15, 33, 0
17, 180960, Note_on_c, 15, 34, 84
17, 181011, Note_on_c, 15, 34, 0
17, 181020, Note_on_c, 15, 33, 84
17, 181071, Note_on_c, 15, 33, 0
17, 181080, Note_on_c, 15, 34, 84
17, 181131, Note_on_c, 15, 34, 0
17, 181140, Note_on_c, 15, 38, 84
17, 181191, Note_on_c, 15, 38, 0
17, 181200, Note_on_c, 15, 29, 84
17, 181251, Note_on_c, 15, 29, 0
17, 181260, Note_on_c, 15, 31, 84
17, 181311, Note_on_c, 15, 31, 0
17, 181320, Note_on_c, 15, 32, 84
17, 181371, Note_on_c, 15, 32, 0
17, 181380, Note_on_c, 15, 33, 84
17, 181431, Note_on_c, 15, 33, 0
17, 181440, Note_on_c, 15, 34, 84
17, 181491, Note_on_c, 15, 34, 0
17, 181500, Note_on_c, 15, 33, 84
17, 181551, Note_on_c, 15, 33, 0
17, 181560, Note_on_c, 15, 34, 84
17, 181611, Note_on_c, 15, 34, 0
17, 181620, Note_on_c, 15, 38, 84
17, 181671, Note_on_c, 15, 38, 0
17, 181680, Note_on_c, 15, 29, 84
17, 181731, Note_on_c, 15, 29, 0
17, 181740, Note_on_c, 15, 31, 84
17, 181791, Note_on_c, 15, 31, 0
17, 181800, Note_on_c, 15, 32, 84
17, 181851, Note_on_c, 15, 32, 0
17, 181860, Note_on_c, 15, 33, 84
17, 181911, Note_on_c, 15, 33, 0
17, 181920, Note_on_c, 15, 34, 84
17, 181971, Note_on_c, 15, 34, 0
17, 181980, Note_on_c, 15, 33, 84
17, 182031, Note_on_c, 15, 33, 0
17, 182040, Note_on_c, 15, 34, 84
17, 182091, Note_on_c, 15, 34, 0
17, 182100, Note_on_c, 15, 38, 84
17, 182151, Note_on_c, 15, 38, 0
17, 182160, Note_on_c, 15, 29, 84
17, 182211, Note_on_c, 15, 29, 0
17, 182220, Note_on_c, 15, 31, 84
17, 182271, Note_on_c, 15, 31, 0
17, 182280, Note_on_c, 15, 32, 84
17, 182331, Note_on_c, 15, 32, 0
17, 182340, Note_on_c, 15, 33, 84
17, 182391, Note_on_c, 15, 33, 0
17, 182400, Note_on_c, 15, 34, 52
17, 182519, Note_on_c, 15, 34, 0
17, 193920, Note_on_c, 15, 34, 84
17, 193971, Note_on_c, 15, 34, 0
17, 193980, Note_on_c, 15, 46, 84
17, 194031, Note_on_c, 15, 46, 0
17, 194040, Note_on_c, 15, 46, 84
17, 194091, Note_on_c, 15, 46, 0
17, 194100, Note_on_c, 15, 46, 84
17, 194151, Note_on_c, 15, 46, 0
17, 194160, Note_on_c, 15, 46, 84
17, 194211, Note_on_c, 15, 46, 0
17, 194220, Note_on_c, 15, 46, 84
17, 194271, Note_on_c, 15, 46, 0
17, 194280, Note_on_c, 15, 46, 84
17, 194331, Note_on_c, 15, 46, 0
17, 194340, Note_on_c, 15, 46, 84
17, 194391, Note_on_c, 15, 46, 0
17, 194400, Note_on_c, 15, 39, 84
17, 194451, Note_on_c, 15, 39, 0
17, 194460, Note_on_c, 15, 39, 84
17, 194511, Note_on_c, 15, 39, 0
17, 194520, Note_on_c, 15, 39, 84
17, 194571, Note_on_c, 15, 39, 0
17, 194580, Note_on_c, 15, 39, 84
17, 194631, Note_on_c, 15, 39, 0
17, 194640, Note_on_c, 15, 39, 84
17, 194691, Note_on_c, 15, 39, 0
17, 194700, Note_on_c, 15, 39, 84
17, 194751, Note_on_c, 15, 39, 0
17, 194760, Note_on_c, 15, 39, 84
17, 194811, Note_on_c, 15, 39, 0
17, 194820, Note_on_c, 15, 39, 84
17, 194871, Note_on_c, 15, 39, 0
17, 194880, Note_on_c, 15, 39, 84
17, 194931, Note_on_c, 15, 39, 0
17, 194940, Note_on_c, 15, 39, 84
17, 194991, Note_on_c, 15, 39, 0
17, 195000, Note_on_c, 15, 39, 84
17, 195051, Note_on_c, 15, 39, 0
17, 195060, Note_on_c, 15, 39, 84
17, 195111, Note_on_c, 15, 39, 0
17, 195120, Note_on_c, 15, 41, 84
17, 195171, Note_on_c, 15, 41, 0
17, 195180, Note_on_c, 15, 41, 84
17, 195231, Note_on_c, 15, 41, 0
17, 195240, Note_on_c, 15, 41, 84
17, 195291, Note_on_c, 15, 41, 0
17, 195300, Note_on_c, 15, 41, 84
17, 195351, Note_on_c, 15, 41, 0
17, 195360, Note_on_c, 15, 34, 84
17, 195411, Note_on_c, 15, 34, 0
17, 195420, Note_on_c, 15, 34, 84
17, 195471, Note_on_c, 15, 34, 0
17, 195480, Note_on_c, 15, 34, 84
17, 195531, Note_on_c, 15, 34, 0
17, 195540, Note_on_c, 15, 34, 84
17, 195591, Note_on_c, 15, 34, 0
17, 195600, Note_on_c, 15, 29, 84
17, 195651, Note_on_c, 15, 29, 0
17, 195660, Note_on_c, 15, 29, 84
17, 195711, Note_on_c, 15, 29, 0
17, 195720, Note_on_c, 15, 29, 84
17, 195771, Note_on_c, 15, 29, 0
17, 195780, Note_on_c, 15, 29, 84
17, 195831, Note_on_c, 15, 29, 0
17, 195840, Note_on_c, 15, 29, 84
17, 195891, Note_on_c, 15, 29, 0
17, 195900, Note_on_c, 15, 29, 84
17, 195951, Note_on_c, 15, 29, 0
17, 195960, Note_on_c, 15, 29, 84
17, 196011, Note_on_c, 15, 29, 0
17, 196020, Note_on_c, 15, 29, 84
17, 196071, Note_on_c, 15, 29, 0
17, 196080, Note_on_c, 15, 41, 84
17, 196131, Note_on_c, 15, 41, 0
17, 196140, Note_on_c, 15, 41, 84
17, 196191, Note_on_c, 15, 41, 0
17, 196200, Note_on_c, 15, 41, 84
17, 196251, Note_on_c, 15, 41, 0
17, 196260, Note_on_c, 15, 41, 84
17, 196311, Note_on_c, 15, 41, 0
17, 196320, Note_on_c, 15, 34, 84
17, 196371, Note_on_c, 15, 34, 0
17, 196380, Note_on_c, 15, 34, 84
17, 196431, Note_on_c, 15, 34, 0
17, 196440, Note_on_c, 15, 34, 84
17, 196491, Note_on_c, 15, 34, 0
17, 196500, Note_on_c, 15, 34, 84
17, 196551, Note_on_c, 15, 34, 0
17, 196560, Note_on_c, 15, 29, 84
17, 196611, Note_on_c, 15, 29, 0
17, 196620, Note_on_c, 15, 29, 84
17, 196671, Note_on_c, 15, 29, 0
17, 196680, Note_on_c, 15, 29, 84
17, 196731, Note_on_c, 15, 29, 0
17, 196740, Note_on_c, 15, 29, 84
17, 196791, Note_on_c, 15, 29, 0
17, 196800, Note_on_c, 15, 29, 84
17, 196851, Note_on_c, 15, 29, 0
17, 196860, Note_on_c, 15, 29, 84
17, 196911, Note_on_c, 15, 29, 0
17, 196920, Note_on_c, 15, 29, 84
17, 196971, Note_on_c, 15, 29, 0
17, 196980, Note_on_c, 15, 29, 84
17, 197031, Note_on_c, 15, 29, 0
17, 197040, Note_on_c, 15, 41, 84
17, 197091, Note_on_c, 15, 41, 0
17, 197100, Note_on_c, 15, 41, 84
17, 197151, Note_on_c, 15, 41, 0
17, 197160, Note_on_c, 15, 41, 84
17, 197211, Note_on_c, 15, 41, 0
17, 197220, Note_on_c, 15, 41, 84
17, 197271, Note_on_c, 15, 41, 0
17, 197280, Note_on_c, 15, 34, 84
17, 197331, Note_on_c, 15, 34, 0
17, 197340, Note_on_c, 15, 34, 84
17, 197391, Note_on_c, 15, 34, 0
17, 197400, Note_on_c, 15, 34, 84
17, 197451, Note_on_c, 15, 34, 0
17, 197460, Note_on_c, 15, 34, 84
17, 197511, Note_on_c, 15, 34, 0
17, 197520, Note_on_c, 15, 29, 84
17, 197571, Note_on_c, 15, 29, 0
17, 197580, Note_on_c, 15, 29, 84
17, 197631, Note_on_c, 15, 29, 0
17, 197640, Note_on_c, 15, 29, 84
17, 197691, Note_on_c, 15, 29, 0
17, 197700, Note_on_c, 15, 29, 84
17, 197759, Note_on_c, 15, 29, 0
17, 198000, Note_on_c, 15, 41, 84
17, 198119, Note_on_c, 15, 41, 0
17, 198240, Note_on_c, 15, 34, 84
17, 198359, Note_on_c, 15, 34, 0
17, 198480, Note_on_c, 15, 29, 84
17, 198599, Note_on_c, 15, 29, 0
17, 198720, Note_on_c, 15, 29, 84
17, 198824, Note_on_c, 15, 29, 0
17, 198840, Note_on_c, 15, 34, 84
17, 198944, Note_on_c, 15, 34, 0
17, 198960, Note_on_c, 15, 37, 84
17, 199064, Note_on_c, 15, 37, 0
17, 199080, Note_on_c, 15, 41, 84
17, 199184, Note_on_c, 15, 41, 0
17, 199200, Note_on_c, 15, 46, 84
17, 199304, Note_on_c, 15, 46, 0
17, 199320, Note_on_c, 15, 49, 84
17, 199424, Note_on_c, 15, 49, 0
17, 199440, Note_on_c, 15, 53, 84
17, 199544, Note_on_c, 15, 53, 0
17, 199560, Note_on_c, 15, 49, 84
17, 199664, Note_on_c, 15, 49, 0
17, 199680, Note_on_c, 15, 46, 84
17, 199784, Note_on_c, 15, 46, 0
17, 199800, Note_on_c, 15, 49, 84
17, 199904, Note_on_c, 15, 49, 0
17, 199920, Note_on_c, 15, 46, 84
17, 200024, Note_on_c, 15, 46, 0
17, 200040, Note_on_c, 15, 41, 84
17, 200144, Note_on_c, 15, 41, 0
17, 200160, Note_on_c, 15, 37, 84
17, 200264, Note_on_c, 15, 37, 0
17, 200280, Note_on_c, 15, 34, 84
17, 200384, Note_on_c, 15, 34, 0
17, 200400, Note_on_c, 15, 29, 84
17, 200504, Note_on_c, 15, 29, 0
17, 200520, Note_on_c, 15, 34, 84
17, 200624, Note_on_c, 15, 34, 0
17, 200640, Note_on_c, 15, 29, 92
17, 200699, Note_on_c, 15, 29, 0
17, 200700, Control_c, 15, 11, 127
17, 200700, Note_on_c, 15, 29, 84
17, 200738, Control_c, 15, 11, 124
17, 200775, Control_c, 15, 11, 122
17, 200813, Control_c, 15, 11, 119
17, 200850, Control_c, 15, 11, 117
17, 200888, Control_c, 15, 11, 114
17, 200925, Control_c, 15, 11, 111
17, 200963, Control_c, 15, 11, 109
17, 201000, Control_c, 15, 11, 106
17, 201038, Control_c, 15, 11, 103
17, 201075, Control_c, 15, 11, 101
17, 201113, Control_c, 15, 11, 98
17, 201150, Control_c, 15, 11, 96
17, 201188, Control_c, 15, 11, 93
17, 201225, Control_c, 15, 11, 90
17, 201263, Control_c, 15, 11, 88
17, 201300, Control_c, 15, 11, 85
17, 201338, Control_c, 15, 11, 82
17, 201375, Control_c, 15, 11, 80
17, 201413, Control_c, 15, 11, 77
17, 201450, Control_c, 15, 11, 75
17, 201488, Control_c, 15, 11, 72
17, 201525, Control_c, 15, 11, 69
17, 201598, Control_c, 15, 11, 80
17, 202064, Note_on_c, 15, 29, 0
17, 202080, Note_on_c, 15, 34, 68
17, 202131, Note_on_c, 15, 34, 0
17, 202140, Note_on_c, 15, 33, 68
17, 202191, Note_on_c, 15, 33, 0
17, 202200, Note_on_c, 15, 34, 68
17, 202251, Note_on_c, 15, 34, 0
17, 202260, Note_on_c, 15, 38, 68
17, 202311, Note_on_c, 15, 38, 0
17, 202320, Note_on_c, 15, 29, 68
17, 202371, Note_on_c, 15, 29, 0
17, 202380, Note_on_c, 15, 31, 68
17, 202431, Note_on_c, 15, 31, 0
17, 202440, Note_on_c, 15, 33, 68
17, 202491, Note_on_c, 15, 33, 0
17, 202500, Note_on_c, 15, 34, 68
17, 202551, Note_on_c, 15, 34, 0
17, 202560, Note_on_c, 15, 36, 68
17, 202611, Note_on_c, 15, 36, 0
17, 202620, Note_on_c, 15, 35, 68
17, 202671, Note_on_c, 15, 35, 0
17, 202680, Note_on_c, 15, 36, 68
17, 202731, Note_on_c, 15, 36, 0
17, 202740, Note_on_c, 15, 39, 68
17, 202791, Note_on_c, 15, 39, 0
17, 202800, Note_on_c, 15, 29, 68
17, 202851, Note_on_c, 15, 29, 0
17, 202860, Note_on_c, 15, 31, 68
17, 202911, Note_on_c, 15, 31, 0
17, 202920, Note_on_c, 15, 32, 68
17, 202971, Note_on_c, 15, 32, 0
17, 202980, Note_on_c, 15, 33, 68
17, 203031, Note_on_c, 15, 33, 0
17, 203038, Control_c, 15, 11, 96
17, 203040, Note_on_c, 15, 34, 60
17, 203091, Note_on_c, 15, 34, 0
17, 203100, Note_on_c, 15, 33, 60
17, 203151, Note_on_c, 15, 33, 0
17, 203160, Note_on_c, 15, 34, 60
17, 203211, Note_on_c, 15, 34, 0
17, 203220, Note_on_c, 15, 38, 60
17, 203271, Note_on_c, 15, 38, 0
17, 203280, Note_on_c, 15, 29, 60
17, 203331, Note_on_c, 15, 29, 0
17, 203340, Note_on_c, 15, 31, 60
17, 203391, Note_on_c, 15, 31, 0
17, 203400, Note_on_c, 15, 33, 60
17, 203451, Note_on_c, 15, 33, 0
17, 203460, Note_on_c, 15, 34, 60
17, 203511, Note_on_c, 15, 34, 0
17, 203520, Note_on_c, 15, 36, 60
17, 203571, Note_on_c, 15, 36, 0
17, 203580, Note_on_c, 15, 35, 60
17, 203631, Note_on_c, 15, 35, 0
17, 203640, Note_on_c, 15, 36, 60
17, 203691, Note_on_c, 15, 36, 0
17, 203700, Note_on_c, 15, 39, 60
17, 203751, Note_on_c, 15, 39, 0
17, 203760, Note_on_c, 15, 29, 60
17, 203811, Note_on_c, 15, 29, 0
17, 203820, Note_on_c, 15, 31, 60
17, 203871, Note_on_c, 15, 31, 0
17, 203880, Note_on_c, 15, 32, 60
17, 203931, Note_on_c, 15, 32, 0
17, 203940, Note_on_c, 15, 33, 60
17, 203991, Note_on_c, 15, 33, 0
17, 203998, Control_c, 15, 11, 112
17, 204000, Note_on_c, 15, 34, 52
17, 204051, Note_on_c, 15, 34, 0
17, 204060, Note_on_c, 15, 33, 52
17, 204111, Note_on_c, 15, 33, 0
17, 204120, Note_on_c, 15, 34, 52
17, 204171, Note_on_c, 15, 34, 0
17, 204180, Note_on_c, 15, 38, 52
17, 204231, Note_on_c, 15, 38, 0
17, 204240, Note_on_c, 15, 29, 52
17, 204291, Note_on_c, 15, 29, 0
17, 204300, Note_on_c, 15, 31, 52
17, 204351, Note_on_c, 15, 31, 0
17, 204360, Note_on_c, 15, 33, 52
17, 204411, Note_on_c, 15, 33, 0
17, 204420, Note_on_c, 15, 34, 52
17, 204471, Note_on_c, 15, 34, 0
17, 204480, Note_on_c, 15, 36, 52
17, 204531, Note_on_c, 15, 36, 0
17, 204540, Note_on_c, 15, 35, 52
17, 204591, Note_on_c, 15, 35, 0
17, 204600, Note_on_c, 15, 36, 52
17, 204651, Note_on_c, 15, 36, 0
17, 204660, Note_on_c, 15, 39, 52
17, 204711, Note_on_c, 15, 39, 0
17, 204720, Note_on_c, 15, 29, 52
17, 204771, Note_on_c, 15, 29, 0
17, 204780, Note_on_c, 15, 31, 52
17, 204831, Note_on_c, 15, 31, 0
17, 204840, Note_on_c, 15, 32, 52
17, 204891, Note_on_c, 15, 32, 0
17, 204900, Note_on_c, 15, 33, 52
17, 204951, Note_on_c, 15, 33, 0
17, 204958, Control_c, 15, 11, 127
17, 204960, Note_on_c, 15, 34, 44
17, 205011, Note_on_c, 15, 34, 0
17, 205020, Note_on_c, 15, 33, 44
17, 205071, Note_on_c, 15, 33, 0
17, 205080, Note_on_c, 15, 34, 44
17, 205131, Note_on_c, 15, 34, 0
17, 205140, Note_on_c, 15, 38, 44
17, 205191, Note_on_c, 15, 38, 0
17, 205200, Note_on_c, 15, 29, 44
17, 205251, Note_on_c, 15, 29, 0
17, 205260, Note_on_c, 15, 31, 44
17, 205311, Note_on_c, 15, 31, 0
17, 205320, Note_on_c, 15, 33, 44
17, 205371, Note_on_c, 15, 33, 0
17, 205380, Note_on_c, 15, 34, 44
17, 205431, Note_on_c, 15, 34, 0
17, 205440, Note_on_c, 15, 36, 44
17, 205491, Note_on_c, 15, 36, 0
17, 205500, Note_on_c, 15, 35, 44
17, 205551, Note_on_c, 15, 35, 0
17, 205560, Note_on_c, 15, 36, 44
17, 205611, Note_on_c, 15, 36, 0
17, 205620, Note_on_c, 15, 39, 44
17, 205671, Note_on_c, 15, 39, 0
17, 205680, Note_on_c, 15, 29, 44
17, 205731, Note_on_c, 15, 29, 0
17, 205740, Note_on_c, 15, 31, 44
17, 205791, Note_on_c, 15, 31, 0
17, 205800, Note_on_c, 15, 32, 44
17, 205851, Note_on_c, 15, 32, 0
17, 205860, Note_on_c, 15, 33, 44
17, 205911, Note_on_c, 15, 33, 0
17, 205920, Note_on_c, 15, 34, 44
17, 205971, Note_on_c, 15, 34, 0
17, 205980, Note_on_c, 15, 33, 44
17, 206031, Note_on_c, 15, 33, 0
17, 206040, Note_on_c, 15, 34, 44
17, 206091, Note_on_c, 15, 34, 0
17, 206100, Note_on_c, 15, 38, 44
17, 206159, Note_on_c, 15, 38, 0
17, 206880, Note_on_c, 15, 29, 44
17, 206931, Note_on_c, 15, 29, 0
17, 206940, Note_on_c, 15, 28, 44
17, 206991, Note_on_c, 15, 28, 0
17, 207000, Note_on_c, 15, 29, 44
17, 207051, Note_on_c, 15, 29, 0
17, 207060, Note_on_c, 15, 33, 44
17, 207119, Note_on_c, 15, 33, 0
17, 207840, Note_on_c, 15, 34, 44
17, 207891, Note_on_c, 15, 34, 0
17, 207900, Note_on_c, 15, 33, 44
17, 207951, Note_on_c, 15, 33, 0
17, 207960, Note_on_c, 15, 34, 44
17, 208011, Note_on_c, 15, 34, 0
17, 208020, Note_on_c, 15, 38, 44
17, 208079, Note_on_c, 15, 38, 0
17, 208800, Note_on_c, 15, 29, 44
17, 208851, Note_on_c, 15, 29, 0
17, 208860, Note_on_c, 15, 28, 44
17, 208911, Note_on_c, 15, 28, 0
17, 208920, Note_on_c, 15, 29, 44
17, 208971, Note_on_c, 15, 29, 0
17, 208980, Note_on_c, 15, 33, 44
17, 209039, Note_on_c, 15, 33, 0
17, 209760, Note_on_c, 15, 34, 44
17, 209811, Note_on_c, 15, 34, 0
17, 209820, Note_on_c, 15, 33, 45
17, 209871, Note_on_c, 15, 33, 0
17, 209880, Note_on_c, 15, 34, 46
17, 209931, Note_on_c, 15, 34, 0
17, 209940, Note_on_c, 15, 38, 47
17, 209991, Note_on_c, 15, 38, 0
17, 210000, Note_on_c, 15, 31, 49
17, 210051, Note_on_c, 15, 31, 0
17, 210060, Note_on_c, 15, 33, 50
17, 210111, Note_on_c, 15, 33, 0
17, 210120, Note_on_c, 15, 34, 51
17, 210171, Note_on_c, 15, 34, 0
17, 210180, Note_on_c, 15, 35, 52
17, 210231, Note_on_c, 15, 35, 0
17, 210240, Note_on_c, 15, 36, 54
17, 210291, Note_on_c, 15, 36, 0
17, 210300, Note_on_c, 15, 35, 55
17, 210351, Note_on_c, 15, 35, 0
17, 210360, Note_on_c, 15, 36, 56
17, 210411, Note_on_c, 15, 36, 0
17, 210420, Note_on_c, 15, 39, 57
17, 210471, Note_on_c, 15, 39, 0
17, 210480, Note_on_c, 15, 33, 59
17, 210531, Note_on_c, 15, 33, 0
17, 210540, Note_on_c, 15, 35, 60
17, 210591, Note_on_c, 15, 35, 0
17, 210600, Note_on_c, 15, 36, 61
17, 210651, Note_on_c, 15, 36, 0
17, 210660, Note_on_c, 15, 37, 62
17, 210711, Note_on_c, 15, 37, 0
17, 210720, Note_on_c, 15, 38, 64
17, 210771, Note_on_c, 15, 38, 0
17, 210780, Note_on_c, 15, 37, 65
17, 210831, Note_on_c, 15, 37, 0
17, 210840, Note_on_c, 15, 38, 66
17, 210891, Note_on_c, 15, 38, 0
17, 210900, Note_on_c, 15, 41, 67
17, 210951, Note_on_c, 15, 41, 0
17, 210960, Note_on_c, 15, 34, 69
17, 211011, Note_on_c, 15, 34, 0
17, 211020, Note_on_c, 15, 36, 70
17, 211071, Note_on_c, 15, 36, 0
17, 211080, Note_on_c, 15, 37, 71
17, 211131, Note_on_c, 15, 37, 0
17, 211140, Note_on_c, 15, 38, 72
17, 211191, Note_on_c, 15, 38, 0
17, 211200, Note_on_c, 15, 39, 74
17, 211251, Note_on_c, 15, 39, 0
17, 211260, Note_on_c, 15, 38, 75
17, 211311, Note_on_c, 15, 38, 0
17, 211320, Note_on_c, 15, 39, 76
17, 211371, Note_on_c, 15, 39, 0
17, 211380, Note_on_c, 15, 43, 77
17, 211431, Note_on_c, 15, 43, 0
17, 211440, Note_on_c, 15, 40, 79
17, 211491, Note_on_c, 15, 40, 0
17, 211500, Note_on_c, 15, 39, 80
17, 211551, Note_on_c, 15, 39, 0
17, 211560, Note_on_c, 15, 40, 81
17, 211611, Note_on_c, 15, 40, 0
17, 211620, Note_on_c, 15, 43, 82
17, 211671, Note_on_c, 15, 43, 0
17, 211680, Note_on_c, 15, 40, 84
17, 211731, Note_on_c, 15, 40, 0
17, 211740, Note_on_c, 15, 40, 84
17, 211791, Note_on_c, 15, 40, 0
17, 211800, Note_on_c, 15, 40, 84
17, 211851, Note_on_c, 15, 40, 0
17, 211860, Note_on_c, 15, 40, 84
17, 211911, Note_on_c, 15, 40, 0
17, 211920, Note_on_c, 15, 40, 84
17, 211971, Note_on_c, 15, 40, 0
17, 211980, Note_on_c, 15, 40, 84
17, 212031, Note_on_c, 15, 40, 0
17, 212040, Note_on_c, 15, 40, 84
17, 212091, Note_on_c, 15, 40, 0
17, 212100, Note_on_c, 15, 40, 84
17, 212151, Note_on_c, 15, 40, 0
17, 212160, Note_on_c, 15, 40, 84
17, 212211, Note_on_c, 15, 40, 0
17, 212220, Note_on_c, 15, 40, 84
17, 212271, Note_on_c, 15, 40, 0
17, 212280, Note_on_c, 15, 40, 84
17, 212331, Note_on_c, 15, 40, 0
17, 212340, Note_on_c, 15, 40, 84
17, 212391, Note_on_c, 15, 40, 0
17, 212400, Note_on_c, 15, 40, 84
17, 212451, Note_on_c, 15, 40, 0
17, 212460, Note_on_c, 15, 40, 84
17, 212511, Note_on_c, 15, 40, 0
17, 212520, Note_on_c, 15, 40, 84
17, 212571, Note_on_c, 15, 40, 0
17, 212580, Note_on_c, 15, 40, 84
17, 212631, Note_on_c, 15, 40, 0
17, 212640, Note_on_c, 15, 40, 84
17, 212759, Note_on_c, 15, 40, 0
17, 212880, Note_on_c, 15, 40, 84
17, 212999, Note_on_c, 15, 40, 0
17, 213600, Note_on_c, 15, 41, 84
17, 213719, Note_on_c, 15, 41, 0
17, 213840, Note_on_c, 15, 41, 84
17, 213959, Note_on_c, 15, 41, 0
17, 217200, Note_on_c, 15, 55, 84
17, 217251, Note_on_c, 15, 55, 0
17, 217260, Note_on_c, 15, 53, 84
17, 217311, Note_on_c, 15, 53, 0
17, 217320, Note_on_c, 15, 51, 84
17, 217371, Note_on_c, 15, 51, 0
17, 217380, Note_on_c, 15, 50, 84
17, 217431, Note_on_c, 15, 50, 0
17, 217440, Note_on_c, 15, 48, 84
17, 217491, Note_on_c, 15, 48, 0
17, 217500, Note_on_c, 15, 46, 84
17, 217551, Note_on_c, 15, 46, 0
17, 217560, Note_on_c, 15, 45, 84
17, 217611, Note_on_c, 15, 45, 0
17, 217620, Note_on_c, 15, 43, 84
17, 217671, Note_on_c, 15, 43, 0
17, 217680, Note_on_c, 15, 41, 84
17, 217731, Note_on_c, 15, 41, 0
17, 217740, Note_on_c, 15, 39, 84
17, 217791, Note_on_c, 15, 39, 0
17, 217800, Note_on_c, 15, 38, 84
17, 217851, Note_on_c, 15, 38, 0
17, 217860, Note_on_c, 15, 36, 84
17, 217911, Note_on_c, 15, 36, 0
17, 217920, Note_on_c, 15, 34, 84
17, 217971, Note_on_c, 15, 34, 0
17, 217980, Note_on_c, 15, 36, 84
17, 218031, Note_on_c, 15, 36, 0
17, 218040, Note_on_c, 15, 38, 84
17, 218091, Note_on_c, 15, 38, 0
17, 218100, Note_on_c, 15, 34, 84
17, 218151, Note_on_c, 15, 34, 0
17, 218160, Note_on_c, 15, 29, 84
17, 218211, Note_on_c, 15, 29, 0
17, 218220, Note_on_c, 15, 33, 84
17, 218271, Note_on_c, 15, 33, 0
17, 218280, Note_on_c, 15, 36, 84
17, 218331, Note_on_c, 15, 36, 0
17, 218340, Note_on_c, 15, 41, 84
17, 218391, Note_on_c, 15, 41, 0
17, 218400, Note_on_c, 15, 34, 84
17, 218519, Note_on_c, 15, 34, 0
17, 218880, Note_on_c, 15, 29, 84
17, 218999, Note_on_c, 15, 29, 0
17, 219360, Note_on_c, 15, 34, 84
17, 219479, Note_on_c, 15, 34, 0
17, 219479, End_track
18, 0, Start_track
18, 0, Title_t, "Ludwig van Beethoven - Symphony No. 4, Op.60 - No. 4 Allegro ma non troppo"
18, 0, MIDI_port, 0
18, 0, End_track
0, 0, End_of_file
