0, 0, Header, 1, 17, 240
1, 0, Start_track
1, 0, Sequencer_specific, 10, 0, 0, 91, 35, 1, 0, 5, 6, 42, 0
1, 0, Title_t, "Ludwig van Beethoven - Symphony No. 6 in F Major, Op.68"
1, 0, Instrument_name_t, "Conductor Track"
1, 0, SMPTE_offset, 96, 0, 3, 0, 0
1, 0, MIDI_port, 0
1, 0, Key_signature, -1, "major"
1, 0, Tempo, 454545
1, 0, Time_signature, 2, 2, 24, 8
1, 1440, Tempo, 1363636
1, 1920, Tempo, 454545
1, 67680, Tempo, 1363636
1, 68160, Tempo, 454545
1, 310560, Tempo, 526315
1, 311040, Tempo, 625000
1, 311520, Tempo, 1500000
1, 312000, Tempo, 3000000
1, 312480, Tempo, 3000000
1, 312480, End_track
2, 0, Start_track
2, 0, Title_t, "1st Movement - Awakening of Cheerful Feelings Upon Arrival in the Country"
2, 0, MIDI_port, 0
2, 0, End_track
3, 0, Start_track
3, 0, Title_t, "(Erwachen heiterer Empfindungen bei der Ankunft auf dem Lande)"
3, 0, MIDI_port, 0
3, 0, End_track
4, 0, Start_track
4, 0, Title_t, "Sequenced by D. L. Viens 21 Jul 2000"
4, 0, MIDI_port, 0
4, 0, End_track
5, 0, Start_track
5, 0, Title_t, "dlviens@empire.net"
5, 0, MIDI_port, 0
5, 0, End_track
6, 0, Start_track
6, 0, MIDI_port, 0
6, 0, End_track
7, 0, Start_track
7, 0, Title_t, "Flute"
7, 0, MIDI_port, 0
7, 0, Program_c, 1, 73
7, 0, Control_c, 1, 7, 72
7, 0, Control_c, 1, 10, 60
7, 0, Control_c, 1, 11, 127
7, 17280, Note_on_c, 1, 77, 76
7, 17280, Note_on_c, 1, 81, 76
7, 17369, Note_on_c, 1, 77, 0
7, 17369, Note_on_c, 1, 81, 0
7, 17400, Note_on_c, 1, 81, 76
7, 17400, Note_on_c, 1, 77, 76
7, 17489, Note_on_c, 1, 81, 0
7, 17489, Note_on_c, 1, 77, 0
7, 17520, Note_on_c, 1, 82, 76
7, 17520, Note_on_c, 1, 79, 76
7, 17609, Note_on_c, 1, 82, 0
7, 17609, Note_on_c, 1, 79, 0
7, 17640, Note_on_c, 1, 82, 76
7, 17640, Note_on_c, 1, 86, 76
7, 17729, Note_on_c, 1, 82, 0
7, 17729, Note_on_c, 1, 86, 0
7, 17760, Note_on_c, 1, 84, 76
7, 17760, Note_on_c, 1, 81, 76
7, 17879, Note_on_c, 1, 84, 0
7, 17879, Note_on_c, 1, 81, 0
7, 17880, Note_on_c, 1, 79, 76
7, 17880, Note_on_c, 1, 82, 76
7, 17939, Note_on_c, 1, 79, 0
7, 17939, Note_on_c, 1, 82, 0
7, 17940, Note_on_c, 1, 81, 76
7, 17940, Note_on_c, 1, 77, 76
7, 17991, Note_on_c, 1, 81, 0
7, 17991, Note_on_c, 1, 77, 0
7, 18000, Note_on_c, 1, 76, 76
7, 18000, Note_on_c, 1, 79, 76
7, 18089, Note_on_c, 1, 76, 0
7, 18089, Note_on_c, 1, 79, 0
7, 18120, Note_on_c, 1, 72, 76
7, 18209, Note_on_c, 1, 72, 0
7, 18240, Note_on_c, 1, 77, 76
7, 18329, Note_on_c, 1, 77, 0
7, 18360, Note_on_c, 1, 79, 76
7, 18360, Note_on_c, 1, 76, 76
7, 18449, Note_on_c, 1, 79, 0
7, 18449, Note_on_c, 1, 76, 0
7, 18480, Note_on_c, 1, 77, 76
7, 18480, Note_on_c, 1, 81, 76
7, 18599, Note_on_c, 1, 77, 0
7, 18599, Note_on_c, 1, 81, 0
7, 18600, Note_on_c, 1, 79, 76
7, 18600, Note_on_c, 1, 82, 76
7, 18659, Note_on_c, 1, 79, 0
7, 18659, Note_on_c, 1, 82, 0
7, 18660, Note_on_c, 1, 81, 76
7, 18660, Note_on_c, 1, 77, 76
7, 18711, Note_on_c, 1, 81, 0
7, 18711, Note_on_c, 1, 77, 0
7, 18720, Note_on_c, 1, 79, 76
7, 18720, Note_on_c, 1, 76, 76
7, 18809, Note_on_c, 1, 79, 0
7, 18809, Note_on_c, 1, 76, 0
7, 18840, Note_on_c, 1, 77, 76
7, 18840, Note_on_c, 1, 81, 76
7, 18929, Note_on_c, 1, 77, 0
7, 18929, Note_on_c, 1, 81, 0
7, 18960, Note_on_c, 1, 82, 76
7, 18960, Note_on_c, 1, 79, 76
7, 19079, Note_on_c, 1, 82, 0
7, 19079, Note_on_c, 1, 79, 0
7, 19080, Note_on_c, 1, 84, 76
7, 19080, Note_on_c, 1, 81, 76
7, 19139, Note_on_c, 1, 84, 0
7, 19139, Note_on_c, 1, 81, 0
7, 19140, Note_on_c, 1, 79, 76
7, 19140, Note_on_c, 1, 82, 76
7, 19191, Note_on_c, 1, 79, 0
7, 19191, Note_on_c, 1, 82, 0
7, 19200, Note_on_c, 1, 77, 76
7, 19200, Note_on_c, 1, 81, 76
7, 19319, Note_on_c, 1, 77, 0
7, 19319, Note_on_c, 1, 81, 0
7, 19320, Note_on_c, 1, 84, 76
7, 19320, Note_on_c, 1, 81, 76
7, 19424, Note_on_c, 1, 84, 0
7, 19424, Note_on_c, 1, 81, 0
7, 19440, Note_on_c, 1, 81, 76
7, 19440, Note_on_c, 1, 84, 76
7, 19529, Note_on_c, 1, 81, 0
7, 19529, Note_on_c, 1, 84, 0
7, 19560, Note_on_c, 1, 81, 76
7, 19560, Note_on_c, 1, 84, 76
7, 19611, Note_on_c, 1, 84, 0
7, 19620, Note_on_c, 1, 86, 76
7, 19639, Note_on_c, 1, 86, 0
7, 19640, Note_on_c, 1, 84, 76
7, 19649, Note_on_c, 1, 81, 0
7, 19659, Note_on_c, 1, 84, 0
7, 19660, Note_on_c, 1, 83, 76
7, 19679, Note_on_c, 1, 83, 0
7, 19680, Note_on_c, 1, 84, 76
7, 19851, Note_on_c, 1, 84, 0
7, 19860, Note_on_c, 1, 86, 76
7, 19879, Note_on_c, 1, 86, 0
7, 19880, Note_on_c, 1, 84, 76
7, 19899, Note_on_c, 1, 84, 0
7, 19900, Note_on_c, 1, 83, 76
7, 19919, Note_on_c, 1, 83, 0
7, 19920, Note_on_c, 1, 84, 76
7, 20144, Note_on_c, 1, 84, 0
7, 20160, Note_on_c, 1, 72, 76
7, 20160, Note_on_c, 1, 76, 76
7, 20249, Note_on_c, 1, 72, 0
7, 20249, Note_on_c, 1, 76, 0
7, 20280, Note_on_c, 1, 77, 76
7, 20280, Note_on_c, 1, 74, 76
7, 20369, Note_on_c, 1, 77, 0
7, 20369, Note_on_c, 1, 74, 0
7, 20400, Note_on_c, 1, 76, 76
7, 20400, Note_on_c, 1, 79, 76
7, 20519, Note_on_c, 1, 76, 0
7, 20519, Note_on_c, 1, 79, 0
7, 20520, Note_on_c, 1, 81, 76
7, 20520, Note_on_c, 1, 77, 76
7, 20579, Note_on_c, 1, 81, 0
7, 20579, Note_on_c, 1, 77, 0
7, 20580, Note_on_c, 1, 79, 76
7, 20580, Note_on_c, 1, 76, 76
7, 20631, Note_on_c, 1, 79, 0
7, 20631, Note_on_c, 1, 76, 0
7, 20640, Note_on_c, 1, 74, 76
7, 20640, Note_on_c, 1, 77, 76
7, 20729, Note_on_c, 1, 74, 0
7, 20729, Note_on_c, 1, 77, 0
7, 20760, Note_on_c, 1, 76, 76
7, 20760, Note_on_c, 1, 79, 76
7, 20849, Note_on_c, 1, 76, 0
7, 20849, Note_on_c, 1, 79, 0
7, 20880, Note_on_c, 1, 77, 76
7, 20880, Note_on_c, 1, 81, 76
7, 20999, Note_on_c, 1, 77, 0
7, 20999, Note_on_c, 1, 81, 0
7, 21000, Note_on_c, 1, 82, 76
7, 21000, Note_on_c, 1, 79, 76
7, 21059, Note_on_c, 1, 82, 0
7, 21059, Note_on_c, 1, 79, 0
7, 21060, Note_on_c, 1, 81, 76
7, 21060, Note_on_c, 1, 77, 76
7, 21111, Note_on_c, 1, 81, 0
7, 21111, Note_on_c, 1, 77, 0
7, 21120, Note_on_c, 1, 79, 76
7, 21120, Note_on_c, 1, 76, 76
7, 21239, Note_on_c, 1, 79, 0
7, 21239, Note_on_c, 1, 76, 0
7, 21240, Note_on_c, 1, 79, 76
7, 21240, Note_on_c, 1, 82, 76
7, 21344, Note_on_c, 1, 79, 0
7, 21344, Note_on_c, 1, 82, 0
7, 21360, Note_on_c, 1, 79, 76
7, 21360, Note_on_c, 1, 82, 76
7, 21449, Note_on_c, 1, 79, 0
7, 21449, Note_on_c, 1, 82, 0
7, 21480, Note_on_c, 1, 79, 76
7, 21480, Note_on_c, 1, 82, 76
7, 21531, Note_on_c, 1, 82, 0
7, 21540, Note_on_c, 1, 84, 76
7, 21559, Note_on_c, 1, 84, 0
7, 21560, Note_on_c, 1, 82, 76
7, 21569, Note_on_c, 1, 79, 0
7, 21579, Note_on_c, 1, 82, 0
7, 21580, Note_on_c, 1, 81, 76
7, 21599, Note_on_c, 1, 81, 0
7, 21600, Note_on_c, 1, 82, 76
7, 21719, Note_on_c, 1, 82, 0
7, 21780, Note_on_c, 1, 86, 76
7, 21799, Note_on_c, 1, 86, 0
7, 21800, Note_on_c, 1, 84, 76
7, 21819, Note_on_c, 1, 84, 0
7, 21820, Note_on_c, 1, 83, 76
7, 21839, Note_on_c, 1, 83, 0
7, 21840, Note_on_c, 1, 84, 76
7, 21959, Note_on_c, 1, 84, 0
7, 22260, Note_on_c, 1, 86, 76
7, 22279, Note_on_c, 1, 86, 0
7, 22280, Note_on_c, 1, 84, 76
7, 22299, Note_on_c, 1, 84, 0
7, 22300, Note_on_c, 1, 83, 76
7, 22319, Note_on_c, 1, 83, 0
7, 22320, Note_on_c, 1, 84, 76
7, 22439, Note_on_c, 1, 84, 0
7, 22740, Note_on_c, 1, 86, 76
7, 22759, Note_on_c, 1, 86, 0
7, 22760, Note_on_c, 1, 84, 76
7, 22779, Note_on_c, 1, 84, 0
7, 22780, Note_on_c, 1, 83, 76
7, 22799, Note_on_c, 1, 83, 0
7, 22800, Note_on_c, 1, 84, 76
7, 22919, Note_on_c, 1, 84, 0
7, 23220, Note_on_c, 1, 86, 76
7, 23239, Note_on_c, 1, 86, 0
7, 23240, Note_on_c, 1, 84, 76
7, 23259, Note_on_c, 1, 84, 0
7, 23260, Note_on_c, 1, 83, 76
7, 23279, Note_on_c, 1, 83, 0
7, 23280, Note_on_c, 1, 84, 76
7, 23399, Note_on_c, 1, 84, 0
7, 23700, Note_on_c, 1, 86, 76
7, 23719, Note_on_c, 1, 86, 0
7, 23720, Note_on_c, 1, 84, 76
7, 23739, Note_on_c, 1, 84, 0
7, 23740, Note_on_c, 1, 83, 76
7, 23759, Note_on_c, 1, 83, 0
7, 23760, Note_on_c, 1, 84, 76
7, 23879, Note_on_c, 1, 84, 0
7, 23940, Note_on_c, 1, 86, 76
7, 23959, Note_on_c, 1, 86, 0
7, 23960, Note_on_c, 1, 84, 76
7, 23979, Note_on_c, 1, 84, 0
7, 23980, Note_on_c, 1, 83, 76
7, 23999, Note_on_c, 1, 83, 0
7, 24000, Note_on_c, 1, 84, 76
7, 24119, Note_on_c, 1, 84, 0
7, 24420, Note_on_c, 1, 86, 76
7, 24439, Note_on_c, 1, 86, 0
7, 24440, Note_on_c, 1, 84, 76
7, 24459, Note_on_c, 1, 84, 0
7, 24460, Note_on_c, 1, 83, 76
7, 24479, Note_on_c, 1, 83, 0
7, 24480, Note_on_c, 1, 84, 76
7, 24719, Note_on_c, 1, 84, 0
7, 24840, Note_on_c, 1, 84, 76
7, 24944, Note_on_c, 1, 84, 0
7, 24960, Note_on_c, 1, 77, 76
7, 24960, Note_on_c, 1, 81, 76
7, 25079, Note_on_c, 1, 77, 0
7, 25079, Note_on_c, 1, 81, 0
7, 37358, Control_c, 1, 11, 90
7, 37440, Note_on_c, 1, 79, 76
7, 37542, Control_c, 1, 11, 91
7, 37726, Control_c, 1, 11, 92
7, 37910, Control_c, 1, 11, 93
7, 38094, Control_c, 1, 11, 94
7, 38277, Control_c, 1, 11, 95
7, 38384, Note_on_c, 1, 79, 0
7, 38400, Note_on_c, 1, 84, 76
7, 38461, Control_c, 1, 11, 96
7, 38645, Control_c, 1, 11, 97
7, 38829, Control_c, 1, 11, 98
7, 39013, Control_c, 1, 11, 99
7, 39197, Control_c, 1, 11, 100
7, 39344, Note_on_c, 1, 84, 0
7, 39360, Note_on_c, 1, 83, 76
7, 39380, Control_c, 1, 11, 101
7, 39564, Control_c, 1, 11, 102
7, 39584, Note_on_c, 1, 83, 0
7, 39600, Note_on_c, 1, 83, 76
7, 39748, Control_c, 1, 11, 103
7, 39824, Note_on_c, 1, 83, 0
7, 39840, Note_on_c, 1, 83, 76
7, 39932, Control_c, 1, 11, 104
7, 40079, Note_on_c, 1, 83, 0
7, 40080, Note_on_c, 1, 86, 76
7, 40116, Control_c, 1, 11, 105
7, 40199, Note_on_c, 1, 86, 0
7, 40200, Note_on_c, 1, 83, 76
7, 40300, Control_c, 1, 11, 106
7, 40304, Note_on_c, 1, 83, 0
7, 40320, Note_on_c, 1, 84, 76
7, 40483, Control_c, 1, 11, 107
7, 40544, Note_on_c, 1, 84, 0
7, 40560, Note_on_c, 1, 84, 76
7, 40667, Control_c, 1, 11, 108
7, 40784, Note_on_c, 1, 84, 0
7, 40800, Note_on_c, 1, 84, 76
7, 40851, Control_c, 1, 11, 109
7, 41035, Control_c, 1, 11, 110
7, 41039, Note_on_c, 1, 84, 0
7, 41040, Note_on_c, 1, 88, 76
7, 41159, Note_on_c, 1, 88, 0
7, 41160, Note_on_c, 1, 84, 76
7, 41219, Control_c, 1, 11, 111
7, 41264, Note_on_c, 1, 84, 0
7, 41280, Note_on_c, 1, 93, 76
7, 41399, Note_on_c, 1, 93, 0
7, 41400, Note_on_c, 1, 91, 76
7, 41403, Control_c, 1, 11, 112
7, 41519, Note_on_c, 1, 91, 0
7, 41520, Note_on_c, 1, 89, 76
7, 41586, Control_c, 1, 11, 113
7, 41639, Note_on_c, 1, 89, 0
7, 41640, Note_on_c, 1, 86, 76
7, 41759, Note_on_c, 1, 86, 0
7, 41760, Note_on_c, 1, 79, 76
7, 41770, Control_c, 1, 11, 114
7, 41879, Note_on_c, 1, 79, 0
7, 41880, Note_on_c, 1, 89, 76
7, 41954, Control_c, 1, 11, 115
7, 41999, Note_on_c, 1, 89, 0
7, 42000, Note_on_c, 1, 86, 76
7, 42119, Note_on_c, 1, 86, 0
7, 42120, Note_on_c, 1, 79, 76
7, 42138, Control_c, 1, 11, 116
7, 42224, Note_on_c, 1, 79, 0
7, 42240, Note_on_c, 1, 93, 76
7, 42322, Control_c, 1, 11, 117
7, 42359, Note_on_c, 1, 93, 0
7, 42360, Note_on_c, 1, 91, 76
7, 42479, Note_on_c, 1, 91, 0
7, 42480, Note_on_c, 1, 88, 76
7, 42506, Control_c, 1, 11, 118
7, 42599, Note_on_c, 1, 88, 0
7, 42600, Note_on_c, 1, 84, 76
7, 42689, Control_c, 1, 11, 119
7, 42719, Note_on_c, 1, 84, 0
7, 42720, Note_on_c, 1, 79, 76
7, 42839, Note_on_c, 1, 79, 0
7, 42840, Note_on_c, 1, 88, 76
7, 42873, Control_c, 1, 11, 120
7, 42959, Note_on_c, 1, 88, 0
7, 42960, Note_on_c, 1, 84, 76
7, 43057, Control_c, 1, 11, 121
7, 43079, Note_on_c, 1, 84, 0
7, 43080, Note_on_c, 1, 79, 76
7, 43184, Note_on_c, 1, 79, 0
7, 43200, Note_on_c, 1, 93, 76
7, 43241, Control_c, 1, 11, 122
7, 43319, Note_on_c, 1, 93, 0
7, 43320, Note_on_c, 1, 91, 76
7, 43425, Control_c, 1, 11, 123
7, 43439, Note_on_c, 1, 91, 0
7, 43440, Note_on_c, 1, 89, 76
7, 43559, Note_on_c, 1, 89, 0
7, 43560, Note_on_c, 1, 86, 76
7, 43609, Control_c, 1, 11, 124
7, 43679, Note_on_c, 1, 86, 0
7, 43680, Note_on_c, 1, 79, 76
7, 43792, Control_c, 1, 11, 125
7, 43799, Note_on_c, 1, 79, 0
7, 43800, Note_on_c, 1, 89, 76
7, 43919, Note_on_c, 1, 89, 0
7, 43920, Note_on_c, 1, 86, 76
7, 43976, Control_c, 1, 11, 127
7, 44039, Note_on_c, 1, 86, 0
7, 44040, Note_on_c, 1, 79, 76
7, 44144, Note_on_c, 1, 79, 0
7, 44160, Note_on_c, 1, 88, 76
7, 44160, Note_on_c, 1, 91, 76
7, 44279, Note_on_c, 1, 88, 0
7, 44279, Note_on_c, 1, 91, 0
7, 45600, Note_on_c, 1, 89, 76
7, 45600, Note_on_c, 1, 93, 76
7, 45719, Note_on_c, 1, 89, 0
7, 45719, Note_on_c, 1, 93, 0
7, 48960, Note_on_c, 1, 93, 76
7, 48960, Note_on_c, 1, 89, 76
7, 49079, Note_on_c, 1, 93, 0
7, 49079, Note_on_c, 1, 89, 0
7, 53520, Note_on_c, 1, 93, 76
7, 53520, Note_on_c, 1, 89, 76
7, 53639, Note_on_c, 1, 93, 0
7, 53639, Note_on_c, 1, 89, 0
7, 53760, Note_on_c, 1, 91, 76
7, 53760, Note_on_c, 1, 88, 76
7, 53879, Note_on_c, 1, 91, 0
7, 53879, Note_on_c, 1, 88, 0
7, 54000, Note_on_c, 1, 84, 76
7, 54000, Note_on_c, 1, 88, 76
7, 54119, Note_on_c, 1, 84, 0
7, 54119, Note_on_c, 1, 88, 0
7, 54240, Note_on_c, 1, 83, 76
7, 54240, Note_on_c, 1, 86, 76
7, 54359, Note_on_c, 1, 83, 0
7, 54359, Note_on_c, 1, 86, 0
7, 54480, Note_on_c, 1, 91, 76
7, 54480, Note_on_c, 1, 83, 76
7, 54599, Note_on_c, 1, 91, 0
7, 54599, Note_on_c, 1, 83, 0
7, 54720, Note_on_c, 1, 84, 76
7, 54720, Note_on_c, 1, 72, 76
7, 54959, Note_on_c, 1, 84, 0
7, 54959, Note_on_c, 1, 72, 0
7, 54960, Note_on_c, 1, 67, 76
7, 54960, Note_on_c, 1, 79, 76
7, 55664, Note_on_c, 1, 67, 0
7, 55664, Note_on_c, 1, 79, 0
7, 55680, Note_on_c, 1, 76, 76
7, 55680, Note_on_c, 1, 88, 76
7, 55919, Note_on_c, 1, 76, 0
7, 55919, Note_on_c, 1, 88, 0
7, 55920, Note_on_c, 1, 72, 76
7, 55920, Note_on_c, 1, 84, 76
7, 56624, Note_on_c, 1, 72, 0
7, 56624, Note_on_c, 1, 84, 0
7, 56640, Note_on_c, 1, 84, 76
7, 56640, Note_on_c, 1, 72, 76
7, 56879, Note_on_c, 1, 84, 0
7, 56879, Note_on_c, 1, 72, 0
7, 56880, Note_on_c, 1, 79, 76
7, 56880, Note_on_c, 1, 67, 76
7, 57584, Note_on_c, 1, 79, 0
7, 57584, Note_on_c, 1, 67, 0
7, 57600, Note_on_c, 1, 88, 76
7, 57600, Note_on_c, 1, 76, 76
7, 57839, Note_on_c, 1, 88, 0
7, 57839, Note_on_c, 1, 76, 0
7, 57840, Note_on_c, 1, 84, 76
7, 57840, Note_on_c, 1, 72, 76
7, 58544, Note_on_c, 1, 84, 0
7, 58544, Note_on_c, 1, 72, 0
7, 58560, Note_on_c, 1, 72, 76
7, 58560, Note_on_c, 1, 84, 76
7, 58799, Note_on_c, 1, 72, 0
7, 58799, Note_on_c, 1, 84, 0
7, 58800, Note_on_c, 1, 79, 73
7, 58800, Note_on_c, 1, 67, 73
7, 59039, Note_on_c, 1, 79, 0
7, 59039, Note_on_c, 1, 67, 0
7, 59040, Note_on_c, 1, 72, 70
7, 59040, Note_on_c, 1, 84, 70
7, 59279, Note_on_c, 1, 72, 0
7, 59279, Note_on_c, 1, 84, 0
7, 59280, Note_on_c, 1, 79, 67
7, 59280, Note_on_c, 1, 67, 67
7, 59519, Note_on_c, 1, 79, 0
7, 59519, Note_on_c, 1, 67, 0
7, 59520, Note_on_c, 1, 84, 64
7, 59520, Note_on_c, 1, 72, 64
7, 59759, Note_on_c, 1, 84, 0
7, 59759, Note_on_c, 1, 72, 0
7, 59760, Note_on_c, 1, 79, 61
7, 59760, Note_on_c, 1, 67, 61
7, 59999, Note_on_c, 1, 79, 0
7, 59999, Note_on_c, 1, 67, 0
7, 60000, Note_on_c, 1, 72, 58
7, 60000, Note_on_c, 1, 84, 58
7, 60239, Note_on_c, 1, 72, 0
7, 60239, Note_on_c, 1, 84, 0
7, 60240, Note_on_c, 1, 67, 55
7, 60240, Note_on_c, 1, 79, 55
7, 60479, Note_on_c, 1, 67, 0
7, 60479, Note_on_c, 1, 79, 0
7, 60480, Note_on_c, 1, 72, 52
7, 60480, Note_on_c, 1, 84, 52
7, 60569, Note_on_c, 1, 72, 0
7, 60569, Note_on_c, 1, 84, 0
7, 83520, Note_on_c, 1, 77, 76
7, 83520, Note_on_c, 1, 81, 76
7, 83609, Note_on_c, 1, 77, 0
7, 83609, Note_on_c, 1, 81, 0
7, 83640, Note_on_c, 1, 81, 76
7, 83640, Note_on_c, 1, 77, 76
7, 83729, Note_on_c, 1, 81, 0
7, 83729, Note_on_c, 1, 77, 0
7, 83760, Note_on_c, 1, 79, 76
7, 83760, Note_on_c, 1, 82, 76
7, 83849, Note_on_c, 1, 79, 0
7, 83849, Note_on_c, 1, 82, 0
7, 83880, Note_on_c, 1, 86, 76
7, 83880, Note_on_c, 1, 82, 76
7, 83969, Note_on_c, 1, 86, 0
7, 83969, Note_on_c, 1, 82, 0
7, 84000, Note_on_c, 1, 84, 76
7, 84000, Note_on_c, 1, 81, 76
7, 84119, Note_on_c, 1, 84, 0
7, 84119, Note_on_c, 1, 81, 0
7, 84120, Note_on_c, 1, 82, 76
7, 84120, Note_on_c, 1, 79, 76
7, 84179, Note_on_c, 1, 82, 0
7, 84179, Note_on_c, 1, 79, 0
7, 84180, Note_on_c, 1, 81, 76
7, 84180, Note_on_c, 1, 77, 76
7, 84231, Note_on_c, 1, 81, 0
7, 84231, Note_on_c, 1, 77, 0
7, 84240, Note_on_c, 1, 79, 76
7, 84240, Note_on_c, 1, 76, 76
7, 84329, Note_on_c, 1, 79, 0
7, 84329, Note_on_c, 1, 76, 0
7, 84360, Note_on_c, 1, 72, 76
7, 84449, Note_on_c, 1, 72, 0
7, 84480, Note_on_c, 1, 77, 76
7, 84569, Note_on_c, 1, 77, 0
7, 84600, Note_on_c, 1, 79, 76
7, 84600, Note_on_c, 1, 76, 76
7, 84689, Note_on_c, 1, 79, 0
7, 84689, Note_on_c, 1, 76, 0
7, 84720, Note_on_c, 1, 81, 76
7, 84720, Note_on_c, 1, 77, 76
7, 84839, Note_on_c, 1, 81, 0
7, 84839, Note_on_c, 1, 77, 0
7, 84840, Note_on_c, 1, 79, 76
7, 84840, Note_on_c, 1, 82, 76
7, 84899, Note_on_c, 1, 79, 0
7, 84899, Note_on_c, 1, 82, 0
7, 84900, Note_on_c, 1, 77, 76
7, 84900, Note_on_c, 1, 81, 76
7, 84951, Note_on_c, 1, 77, 0
7, 84951, Note_on_c, 1, 81, 0
7, 84960, Note_on_c, 1, 76, 76
7, 84960, Note_on_c, 1, 79, 76
7, 85049, Note_on_c, 1, 76, 0
7, 85049, Note_on_c, 1, 79, 0
7, 85080, Note_on_c, 1, 77, 76
7, 85080, Note_on_c, 1, 81, 76
7, 85169, Note_on_c, 1, 77, 0
7, 85169, Note_on_c, 1, 81, 0
7, 85200, Note_on_c, 1, 79, 76
7, 85200, Note_on_c, 1, 82, 76
7, 85319, Note_on_c, 1, 79, 0
7, 85319, Note_on_c, 1, 82, 0
7, 85320, Note_on_c, 1, 84, 76
7, 85320, Note_on_c, 1, 81, 76
7, 85379, Note_on_c, 1, 84, 0
7, 85379, Note_on_c, 1, 81, 0
7, 85380, Note_on_c, 1, 79, 76
7, 85380, Note_on_c, 1, 82, 76
7, 85431, Note_on_c, 1, 79, 0
7, 85431, Note_on_c, 1, 82, 0
7, 85440, Note_on_c, 1, 81, 76
7, 85440, Note_on_c, 1, 77, 76
7, 85559, Note_on_c, 1, 81, 0
7, 85559, Note_on_c, 1, 77, 0
7, 85560, Note_on_c, 1, 81, 76
7, 85560, Note_on_c, 1, 84, 76
7, 85664, Note_on_c, 1, 81, 0
7, 85664, Note_on_c, 1, 84, 0
7, 85680, Note_on_c, 1, 81, 76
7, 85680, Note_on_c, 1, 84, 76
7, 85769, Note_on_c, 1, 81, 0
7, 85769, Note_on_c, 1, 84, 0
7, 85800, Note_on_c, 1, 81, 76
7, 85800, Note_on_c, 1, 84, 76
7, 85851, Note_on_c, 1, 84, 0
7, 85860, Note_on_c, 1, 86, 76
7, 85879, Note_on_c, 1, 86, 0
7, 85880, Note_on_c, 1, 84, 76
7, 85889, Note_on_c, 1, 81, 0
7, 85899, Note_on_c, 1, 84, 0
7, 85900, Note_on_c, 1, 83, 76
7, 85919, Note_on_c, 1, 83, 0
7, 85920, Note_on_c, 1, 84, 76
7, 86091, Note_on_c, 1, 84, 0
7, 86100, Note_on_c, 1, 86, 76
7, 86119, Note_on_c, 1, 86, 0
7, 86120, Note_on_c, 1, 84, 76
7, 86139, Note_on_c, 1, 84, 0
7, 86140, Note_on_c, 1, 83, 76
7, 86159, Note_on_c, 1, 83, 0
7, 86160, Note_on_c, 1, 84, 76
7, 86384, Note_on_c, 1, 84, 0
7, 86400, Note_on_c, 1, 72, 76
7, 86400, Note_on_c, 1, 76, 76
7, 86489, Note_on_c, 1, 72, 0
7, 86489, Note_on_c, 1, 76, 0
7, 86520, Note_on_c, 1, 77, 76
7, 86520, Note_on_c, 1, 74, 76
7, 86609, Note_on_c, 1, 77, 0
7, 86609, Note_on_c, 1, 74, 0
7, 86640, Note_on_c, 1, 76, 76
7, 86640, Note_on_c, 1, 79, 76
7, 86759, Note_on_c, 1, 76, 0
7, 86759, Note_on_c, 1, 79, 0
7, 86760, Note_on_c, 1, 81, 76
7, 86760, Note_on_c, 1, 77, 76
7, 86819, Note_on_c, 1, 81, 0
7, 86819, Note_on_c, 1, 77, 0
7, 86820, Note_on_c, 1, 79, 76
7, 86820, Note_on_c, 1, 76, 76
7, 86871, Note_on_c, 1, 79, 0
7, 86871, Note_on_c, 1, 76, 0
7, 86880, Note_on_c, 1, 77, 76
7, 86880, Note_on_c, 1, 74, 76
7, 86969, Note_on_c, 1, 77, 0
7, 86969, Note_on_c, 1, 74, 0
7, 87000, Note_on_c, 1, 76, 76
7, 87000, Note_on_c, 1, 79, 76
7, 87089, Note_on_c, 1, 76, 0
7, 87089, Note_on_c, 1, 79, 0
7, 87120, Note_on_c, 1, 81, 76
7, 87120, Note_on_c, 1, 77, 76
7, 87239, Note_on_c, 1, 81, 0
7, 87239, Note_on_c, 1, 77, 0
7, 87240, Note_on_c, 1, 79, 76
7, 87240, Note_on_c, 1, 82, 76
7, 87299, Note_on_c, 1, 79, 0
7, 87299, Note_on_c, 1, 82, 0
7, 87300, Note_on_c, 1, 81, 76
7, 87300, Note_on_c, 1, 77, 76
7, 87351, Note_on_c, 1, 81, 0
7, 87351, Note_on_c, 1, 77, 0
7, 87360, Note_on_c, 1, 79, 76
7, 87360, Note_on_c, 1, 76, 76
7, 87479, Note_on_c, 1, 79, 0
7, 87479, Note_on_c, 1, 76, 0
7, 87480, Note_on_c, 1, 82, 76
7, 87480, Note_on_c, 1, 79, 76
7, 87584, Note_on_c, 1, 82, 0
7, 87584, Note_on_c, 1, 79, 0
7, 87600, Note_on_c, 1, 82, 76
7, 87600, Note_on_c, 1, 79, 76
7, 87689, Note_on_c, 1, 82, 0
7, 87689, Note_on_c, 1, 79, 0
7, 87720, Note_on_c, 1, 82, 76
7, 87720, Note_on_c, 1, 79, 76
7, 87771, Note_on_c, 1, 82, 0
7, 87780, Note_on_c, 1, 84, 76
7, 87799, Note_on_c, 1, 84, 0
7, 87800, Note_on_c, 1, 82, 76
7, 87809, Note_on_c, 1, 79, 0
7, 87819, Note_on_c, 1, 82, 0
7, 87820, Note_on_c, 1, 81, 76
7, 87839, Note_on_c, 1, 81, 0
7, 87840, Note_on_c, 1, 82, 76
7, 87959, Note_on_c, 1, 82, 0
7, 88020, Note_on_c, 1, 86, 76
7, 88039, Note_on_c, 1, 86, 0
7, 88040, Note_on_c, 1, 84, 76
7, 88059, Note_on_c, 1, 84, 0
7, 88060, Note_on_c, 1, 83, 76
7, 88079, Note_on_c, 1, 83, 0
7, 88080, Note_on_c, 1, 84, 76
7, 88199, Note_on_c, 1, 84, 0
7, 88500, Note_on_c, 1, 86, 76
7, 88519, Note_on_c, 1, 86, 0
7, 88520, Note_on_c, 1, 84, 76
7, 88539, Note_on_c, 1, 84, 0
7, 88540, Note_on_c, 1, 83, 76
7, 88559, Note_on_c, 1, 83, 0
7, 88560, Note_on_c, 1, 84, 76
7, 88679, Note_on_c, 1, 84, 0
7, 88980, Note_on_c, 1, 86, 76
7, 88999, Note_on_c, 1, 86, 0
7, 89000, Note_on_c, 1, 84, 76
7, 89019, Note_on_c, 1, 84, 0
7, 89020, Note_on_c, 1, 83, 76
7, 89039, Note_on_c, 1, 83, 0
7, 89040, Note_on_c, 1, 84, 76
7, 89159, Note_on_c, 1, 84, 0
7, 89460, Note_on_c, 1, 86, 76
7, 89479, Note_on_c, 1, 86, 0
7, 89480, Note_on_c, 1, 84, 76
7, 89499, Note_on_c, 1, 84, 0
7, 89500, Note_on_c, 1, 83, 76
7, 89519, Note_on_c, 1, 83, 0
7, 89520, Note_on_c, 1, 84, 76
7, 89639, Note_on_c, 1, 84, 0
7, 89940, Note_on_c, 1, 86, 76
7, 89959, Note_on_c, 1, 86, 0
7, 89960, Note_on_c, 1, 84, 76
7, 89979, Note_on_c, 1, 84, 0
7, 89980, Note_on_c, 1, 83, 76
7, 89999, Note_on_c, 1, 83, 0
7, 90000, Note_on_c, 1, 84, 76
7, 90119, Note_on_c, 1, 84, 0
7, 90180, Note_on_c, 1, 86, 76
7, 90199, Note_on_c, 1, 86, 0
7, 90200, Note_on_c, 1, 84, 76
7, 90219, Note_on_c, 1, 84, 0
7, 90220, Note_on_c, 1, 83, 76
7, 90239, Note_on_c, 1, 83, 0
7, 90240, Note_on_c, 1, 84, 76
7, 90359, Note_on_c, 1, 84, 0
7, 90660, Note_on_c, 1, 86, 76
7, 90679, Note_on_c, 1, 86, 0
7, 90680, Note_on_c, 1, 84, 76
7, 90699, Note_on_c, 1, 84, 0
7, 90700, Note_on_c, 1, 83, 76
7, 90719, Note_on_c, 1, 83, 0
7, 90720, Note_on_c, 1, 84, 76
7, 90959, Note_on_c, 1, 84, 0
7, 91080, Note_on_c, 1, 84, 76
7, 91184, Note_on_c, 1, 84, 0
7, 91200, Note_on_c, 1, 81, 76
7, 91200, Note_on_c, 1, 77, 76
7, 91319, Note_on_c, 1, 81, 0
7, 91319, Note_on_c, 1, 77, 0
7, 103598, Control_c, 1, 11, 90
7, 103680, Note_on_c, 1, 79, 76
7, 103782, Control_c, 1, 11, 91
7, 103966, Control_c, 1, 11, 92
7, 104150, Control_c, 1, 11, 93
7, 104334, Control_c, 1, 11, 94
7, 104517, Control_c, 1, 11, 95
7, 104624, Note_on_c, 1, 79, 0
7, 104640, Note_on_c, 1, 84, 76
7, 104701, Control_c, 1, 11, 96
7, 104885, Control_c, 1, 11, 97
7, 105069, Control_c, 1, 11, 98
7, 105253, Control_c, 1, 11, 99
7, 105437, Control_c, 1, 11, 100
7, 105584, Note_on_c, 1, 84, 0
7, 105600, Note_on_c, 1, 83, 76
7, 105620, Control_c, 1, 11, 101
7, 105804, Control_c, 1, 11, 102
7, 105824, Note_on_c, 1, 83, 0
7, 105840, Note_on_c, 1, 83, 76
7, 105988, Control_c, 1, 11, 103
7, 106064, Note_on_c, 1, 83, 0
7, 106080, Note_on_c, 1, 83, 76
7, 106172, Control_c, 1, 11, 104
7, 106319, Note_on_c, 1, 83, 0
7, 106320, Note_on_c, 1, 86, 76
7, 106356, Control_c, 1, 11, 105
7, 106439, Note_on_c, 1, 86, 0
7, 106440, Note_on_c, 1, 83, 76
7, 106540, Control_c, 1, 11, 106
7, 106544, Note_on_c, 1, 83, 0
7, 106560, Note_on_c, 1, 84, 76
7, 106723, Control_c, 1, 11, 107
7, 106784, Note_on_c, 1, 84, 0
7, 106800, Note_on_c, 1, 84, 76
7, 106907, Control_c, 1, 11, 108
7, 107024, Note_on_c, 1, 84, 0
7, 107040, Note_on_c, 1, 84, 76
7, 107091, Control_c, 1, 11, 109
7, 107275, Control_c, 1, 11, 110
7, 107279, Note_on_c, 1, 84, 0
7, 107280, Note_on_c, 1, 88, 76
7, 107399, Note_on_c, 1, 88, 0
7, 107400, Note_on_c, 1, 84, 76
7, 107459, Control_c, 1, 11, 111
7, 107504, Note_on_c, 1, 84, 0
7, 107520, Note_on_c, 1, 93, 76
7, 107639, Note_on_c, 1, 93, 0
7, 107640, Note_on_c, 1, 91, 76
7, 107643, Control_c, 1, 11, 112
7, 107759, Note_on_c, 1, 91, 0
7, 107760, Note_on_c, 1, 89, 76
7, 107826, Control_c, 1, 11, 113
7, 107879, Note_on_c, 1, 89, 0
7, 107880, Note_on_c, 1, 86, 76
7, 107999, Note_on_c, 1, 86, 0
7, 108000, Note_on_c, 1, 79, 76
7, 108010, Control_c, 1, 11, 114
7, 108119, Note_on_c, 1, 79, 0
7, 108120, Note_on_c, 1, 89, 76
7, 108194, Control_c, 1, 11, 115
7, 108239, Note_on_c, 1, 89, 0
7, 108240, Note_on_c, 1, 86, 76
7, 108359, Note_on_c, 1, 86, 0
7, 108360, Note_on_c, 1, 79, 76
7, 108378, Control_c, 1, 11, 116
7, 108464, Note_on_c, 1, 79, 0
7, 108480, Note_on_c, 1, 93, 76
7, 108562, Control_c, 1, 11, 117
7, 108599, Note_on_c, 1, 93, 0
7, 108600, Note_on_c, 1, 91, 76
7, 108719, Note_on_c, 1, 91, 0
7, 108720, Note_on_c, 1, 88, 76
7, 108746, Control_c, 1, 11, 118
7, 108839, Note_on_c, 1, 88, 0
7, 108840, Note_on_c, 1, 84, 76
7, 108929, Control_c, 1, 11, 119
7, 108959, Note_on_c, 1, 84, 0
7, 108960, Note_on_c, 1, 79, 76
7, 109079, Note_on_c, 1, 79, 0
7, 109080, Note_on_c, 1, 88, 76
7, 109113, Control_c, 1, 11, 120
7, 109199, Note_on_c, 1, 88, 0
7, 109200, Note_on_c, 1, 84, 76
7, 109297, Control_c, 1, 11, 121
7, 109319, Note_on_c, 1, 84, 0
7, 109320, Note_on_c, 1, 79, 76
7, 109424, Note_on_c, 1, 79, 0
7, 109440, Note_on_c, 1, 93, 76
7, 109481, Control_c, 1, 11, 122
7, 109559, Note_on_c, 1, 93, 0
7, 109560, Note_on_c, 1, 91, 76
7, 109665, Control_c, 1, 11, 123
7, 109679, Note_on_c, 1, 91, 0
7, 109680, Note_on_c, 1, 89, 76
7, 109799, Note_on_c, 1, 89, 0
7, 109800, Note_on_c, 1, 86, 76
7, 109849, Control_c, 1, 11, 124
7, 109919, Note_on_c, 1, 86, 0
7, 109920, Note_on_c, 1, 79, 76
7, 110032, Control_c, 1, 11, 125
7, 110039, Note_on_c, 1, 79, 0
7, 110040, Note_on_c, 1, 89, 76
7, 110159, Note_on_c, 1, 89, 0
7, 110160, Note_on_c, 1, 86, 76
7, 110216, Control_c, 1, 11, 127
7, 110279, Note_on_c, 1, 86, 0
7, 110280, Note_on_c, 1, 79, 76
7, 110384, Note_on_c, 1, 79, 0
7, 110400, Note_on_c, 1, 88, 76
7, 110400, Note_on_c, 1, 91, 76
7, 110519, Note_on_c, 1, 88, 0
7, 110519, Note_on_c, 1, 91, 0
7, 111840, Note_on_c, 1, 89, 76
7, 111840, Note_on_c, 1, 93, 76
7, 111959, Note_on_c, 1, 89, 0
7, 111959, Note_on_c, 1, 93, 0
7, 115200, Note_on_c, 1, 93, 76
7, 115200, Note_on_c, 1, 89, 76
7, 115319, Note_on_c, 1, 93, 0
7, 115319, Note_on_c, 1, 89, 0
7, 119760, Note_on_c, 1, 89, 76
7, 119760, Note_on_c, 1, 93, 76
7, 119879, Note_on_c, 1, 89, 0
7, 119879, Note_on_c, 1, 93, 0
7, 120000, Note_on_c, 1, 88, 76
7, 120000, Note_on_c, 1, 91, 76
7, 120119, Note_on_c, 1, 88, 0
7, 120119, Note_on_c, 1, 91, 0
7, 120240, Note_on_c, 1, 84, 76
7, 120240, Note_on_c, 1, 88, 76
7, 120359, Note_on_c, 1, 84, 0
7, 120359, Note_on_c, 1, 88, 0
7, 120480, Note_on_c, 1, 86, 76
7, 120480, Note_on_c, 1, 83, 76
7, 120599, Note_on_c, 1, 86, 0
7, 120599, Note_on_c, 1, 83, 0
7, 120720, Note_on_c, 1, 91, 76
7, 120720, Note_on_c, 1, 83, 76
7, 120839, Note_on_c, 1, 91, 0
7, 120839, Note_on_c, 1, 83, 0
7, 120960, Note_on_c, 1, 72, 76
7, 120960, Note_on_c, 1, 84, 76
7, 121199, Note_on_c, 1, 72, 0
7, 121199, Note_on_c, 1, 84, 0
7, 121200, Note_on_c, 1, 67, 76
7, 121200, Note_on_c, 1, 79, 76
7, 121904, Note_on_c, 1, 67, 0
7, 121904, Note_on_c, 1, 79, 0
7, 121920, Note_on_c, 1, 88, 76
7, 121920, Note_on_c, 1, 76, 76
7, 122159, Note_on_c, 1, 88, 0
7, 122159, Note_on_c, 1, 76, 0
7, 122160, Note_on_c, 1, 72, 76
7, 122160, Note_on_c, 1, 84, 76
7, 122864, Note_on_c, 1, 72, 0
7, 122864, Note_on_c, 1, 84, 0
7, 122880, Note_on_c, 1, 84, 76
7, 122880, Note_on_c, 1, 72, 76
7, 123119, Note_on_c, 1, 84, 0
7, 123119, Note_on_c, 1, 72, 0
7, 123120, Note_on_c, 1, 79, 76
7, 123120, Note_on_c, 1, 67, 76
7, 123824, Note_on_c, 1, 79, 0
7, 123824, Note_on_c, 1, 67, 0
7, 123840, Note_on_c, 1, 88, 76
7, 123840, Note_on_c, 1, 76, 76
7, 124079, Note_on_c, 1, 88, 0
7, 124079, Note_on_c, 1, 76, 0
7, 124080, Note_on_c, 1, 72, 76
7, 124080, Note_on_c, 1, 84, 76
7, 124784, Note_on_c, 1, 72, 0
7, 124784, Note_on_c, 1, 84, 0
7, 124800, Note_on_c, 1, 72, 76
7, 124800, Note_on_c, 1, 84, 76
7, 125039, Note_on_c, 1, 72, 0
7, 125039, Note_on_c, 1, 84, 0
7, 125040, Note_on_c, 1, 79, 73
7, 125040, Note_on_c, 1, 67, 73
7, 125279, Note_on_c, 1, 79, 0
7, 125279, Note_on_c, 1, 67, 0
7, 125280, Note_on_c, 1, 84, 70
7, 125280, Note_on_c, 1, 72, 70
7, 125519, Note_on_c, 1, 84, 0
7, 125519, Note_on_c, 1, 72, 0
7, 125520, Note_on_c, 1, 67, 67
7, 125520, Note_on_c, 1, 79, 67
7, 125759, Note_on_c, 1, 67, 0
7, 125759, Note_on_c, 1, 79, 0
7, 125760, Note_on_c, 1, 72, 64
7, 125760, Note_on_c, 1, 84, 64
7, 125999, Note_on_c, 1, 72, 0
7, 125999, Note_on_c, 1, 84, 0
7, 126000, Note_on_c, 1, 79, 61
7, 126000, Note_on_c, 1, 67, 61
7, 126239, Note_on_c, 1, 79, 0
7, 126239, Note_on_c, 1, 67, 0
7, 126240, Note_on_c, 1, 84, 58
7, 126240, Note_on_c, 1, 72, 58
7, 126479, Note_on_c, 1, 84, 0
7, 126479, Note_on_c, 1, 72, 0
7, 126480, Note_on_c, 1, 67, 55
7, 126480, Note_on_c, 1, 79, 55
7, 126719, Note_on_c, 1, 67, 0
7, 126719, Note_on_c, 1, 79, 0
7, 126720, Note_on_c, 1, 72, 52
7, 126720, Note_on_c, 1, 84, 52
7, 126809, Note_on_c, 1, 72, 0
7, 126809, Note_on_c, 1, 84, 0
7, 136920, Note_on_c, 1, 86, 52
7, 137039, Note_on_c, 1, 86, 0
7, 137040, Note_on_c, 1, 87, 52
7, 137144, Note_on_c, 1, 87, 0
7, 137160, Note_on_c, 1, 91, 52
7, 137249, Note_on_c, 1, 91, 0
7, 137880, Note_on_c, 1, 86, 52
7, 137999, Note_on_c, 1, 86, 0
7, 138000, Note_on_c, 1, 87, 52
7, 138104, Note_on_c, 1, 87, 0
7, 138120, Note_on_c, 1, 89, 52
7, 138209, Note_on_c, 1, 89, 0
7, 140160, Note_on_c, 1, 82, 52
7, 140249, Note_on_c, 1, 82, 0
7, 140280, Note_on_c, 1, 77, 52
7, 140339, Note_on_c, 1, 77, 0
7, 140340, Note_on_c, 1, 75, 52
7, 140391, Note_on_c, 1, 75, 0
7, 140400, Note_on_c, 1, 74, 52
7, 140489, Note_on_c, 1, 74, 0
7, 140520, Note_on_c, 1, 70, 53
7, 140609, Note_on_c, 1, 70, 0
7, 140640, Note_on_c, 1, 82, 53
7, 140729, Note_on_c, 1, 82, 0
7, 140760, Note_on_c, 1, 77, 53
7, 140819, Note_on_c, 1, 77, 0
7, 140820, Note_on_c, 1, 75, 53
7, 140871, Note_on_c, 1, 75, 0
7, 140880, Note_on_c, 1, 74, 54
7, 140969, Note_on_c, 1, 74, 0
7, 141000, Note_on_c, 1, 70, 54
7, 141089, Note_on_c, 1, 70, 0
7, 141120, Note_on_c, 1, 82, 54
7, 141209, Note_on_c, 1, 82, 0
7, 141240, Note_on_c, 1, 77, 55
7, 141299, Note_on_c, 1, 77, 0
7, 141300, Note_on_c, 1, 75, 55
7, 141351, Note_on_c, 1, 75, 0
7, 141360, Note_on_c, 1, 74, 55
7, 141449, Note_on_c, 1, 74, 0
7, 141480, Note_on_c, 1, 70, 55
7, 141569, Note_on_c, 1, 70, 0
7, 141600, Note_on_c, 1, 82, 56
7, 141689, Note_on_c, 1, 82, 0
7, 141720, Note_on_c, 1, 77, 56
7, 141779, Note_on_c, 1, 77, 0
7, 141780, Note_on_c, 1, 75, 56
7, 141831, Note_on_c, 1, 75, 0
7, 141840, Note_on_c, 1, 74, 56
7, 141929, Note_on_c, 1, 74, 0
7, 141960, Note_on_c, 1, 70, 57
7, 142049, Note_on_c, 1, 70, 0
7, 147840, Note_on_c, 1, 86, 76
7, 147929, Note_on_c, 1, 86, 0
7, 147960, Note_on_c, 1, 81, 76
7, 148019, Note_on_c, 1, 81, 0
7, 148020, Note_on_c, 1, 79, 76
7, 148071, Note_on_c, 1, 79, 0
7, 148080, Note_on_c, 1, 78, 77
7, 148169, Note_on_c, 1, 78, 0
7, 148200, Note_on_c, 1, 74, 77
7, 148289, Note_on_c, 1, 74, 0
7, 148320, Note_on_c, 1, 86, 78
7, 148409, Note_on_c, 1, 86, 0
7, 148440, Note_on_c, 1, 81, 78
7, 148499, Note_on_c, 1, 81, 0
7, 148500, Note_on_c, 1, 79, 78
7, 148551, Note_on_c, 1, 79, 0
7, 148560, Note_on_c, 1, 78, 79
7, 148649, Note_on_c, 1, 78, 0
7, 148680, Note_on_c, 1, 74, 79
7, 148769, Note_on_c, 1, 74, 0
7, 148800, Note_on_c, 1, 86, 80
7, 148889, Note_on_c, 1, 86, 0
7, 148920, Note_on_c, 1, 81, 80
7, 148979, Note_on_c, 1, 81, 0
7, 148980, Note_on_c, 1, 79, 80
7, 149031, Note_on_c, 1, 79, 0
7, 149040, Note_on_c, 1, 78, 81
7, 149129, Note_on_c, 1, 78, 0
7, 149160, Note_on_c, 1, 74, 81
7, 149249, Note_on_c, 1, 74, 0
7, 149280, Note_on_c, 1, 86, 82
7, 149369, Note_on_c, 1, 86, 0
7, 149400, Note_on_c, 1, 81, 82
7, 149459, Note_on_c, 1, 81, 0
7, 149460, Note_on_c, 1, 79, 82
7, 149511, Note_on_c, 1, 79, 0
7, 149520, Note_on_c, 1, 78, 83
7, 149609, Note_on_c, 1, 78, 0
7, 149640, Note_on_c, 1, 74, 83
7, 149729, Note_on_c, 1, 74, 0
7, 149760, Note_on_c, 1, 86, 84
7, 150104, Note_on_c, 1, 86, 0
7, 150120, Note_on_c, 1, 86, 84
7, 150224, Note_on_c, 1, 86, 0
7, 150240, Note_on_c, 1, 86, 84
7, 150584, Note_on_c, 1, 86, 0
7, 150600, Note_on_c, 1, 86, 84
7, 150704, Note_on_c, 1, 86, 0
7, 150720, Note_on_c, 1, 86, 84
7, 151064, Note_on_c, 1, 86, 0
7, 151080, Note_on_c, 1, 86, 84
7, 151184, Note_on_c, 1, 86, 0
7, 151200, Note_on_c, 1, 86, 84
7, 151544, Note_on_c, 1, 86, 0
7, 151560, Note_on_c, 1, 86, 84
7, 151664, Note_on_c, 1, 86, 0
7, 151680, Note_on_c, 1, 86, 84
7, 151799, Note_on_c, 1, 86, 0
7, 152640, Note_on_c, 1, 86, 84
7, 152759, Note_on_c, 1, 86, 0
7, 159840, Note_on_c, 1, 81, 52
7, 159929, Note_on_c, 1, 81, 0
7, 159960, Note_on_c, 1, 83, 52
7, 160049, Note_on_c, 1, 83, 0
7, 160080, Note_on_c, 1, 84, 52
7, 160199, Note_on_c, 1, 84, 0
7, 160200, Note_on_c, 1, 86, 52
7, 160259, Note_on_c, 1, 86, 0
7, 160260, Note_on_c, 1, 84, 52
7, 160311, Note_on_c, 1, 84, 0
7, 160320, Note_on_c, 1, 83, 52
7, 160439, Note_on_c, 1, 83, 0
7, 165840, Control_c, 1, 11, 96
7, 166080, Control_c, 1, 11, 96
7, 166080, Note_on_c, 1, 68, 84
7, 166080, Note_on_c, 1, 76, 84
7, 166266, Control_c, 1, 11, 97
7, 166452, Control_c, 1, 11, 98
7, 166637, Control_c, 1, 11, 99
7, 166823, Control_c, 1, 11, 100
7, 167009, Control_c, 1, 11, 101
7, 167195, Control_c, 1, 11, 102
7, 167381, Control_c, 1, 11, 103
7, 167566, Control_c, 1, 11, 104
7, 167752, Control_c, 1, 11, 105
7, 167938, Control_c, 1, 11, 106
7, 167984, Note_on_c, 1, 68, 0
7, 167984, Note_on_c, 1, 76, 0
7, 168000, Note_on_c, 1, 68, 84
7, 168000, Note_on_c, 1, 76, 84
7, 168124, Control_c, 1, 11, 107
7, 168310, Control_c, 1, 11, 108
7, 168495, Control_c, 1, 11, 109
7, 168681, Control_c, 1, 11, 110
7, 168867, Control_c, 1, 11, 111
7, 169053, Control_c, 1, 11, 112
7, 169239, Control_c, 1, 11, 113
7, 169425, Control_c, 1, 11, 114
7, 169610, Control_c, 1, 11, 115
7, 169796, Control_c, 1, 11, 116
7, 169904, Note_on_c, 1, 68, 0
7, 169904, Note_on_c, 1, 76, 0
7, 169920, Note_on_c, 1, 80, 84
7, 169982, Control_c, 1, 11, 117
7, 170040, Note_on_c, 1, 88, 84
7, 170159, Note_on_c, 1, 88, 0
7, 170160, Note_on_c, 1, 83, 84
7, 170168, Control_c, 1, 11, 118
7, 170279, Note_on_c, 1, 83, 0
7, 170354, Control_c, 1, 11, 119
7, 170520, Note_on_c, 1, 88, 84
7, 170539, Control_c, 1, 11, 120
7, 170639, Note_on_c, 1, 88, 0
7, 170640, Note_on_c, 1, 83, 84
7, 170725, Control_c, 1, 11, 121
7, 170759, Note_on_c, 1, 83, 0
7, 170911, Control_c, 1, 11, 122
7, 171000, Note_on_c, 1, 88, 84
7, 171097, Control_c, 1, 11, 123
7, 171119, Note_on_c, 1, 88, 0
7, 171120, Note_on_c, 1, 83, 84
7, 171239, Note_on_c, 1, 83, 0
7, 171283, Control_c, 1, 11, 124
7, 171468, Control_c, 1, 11, 125
7, 171480, Note_on_c, 1, 88, 84
7, 171599, Note_on_c, 1, 88, 0
7, 171600, Note_on_c, 1, 83, 84
7, 171654, Control_c, 1, 11, 127
7, 171719, Note_on_c, 1, 83, 0
7, 171824, Note_on_c, 1, 80, 0
7, 171840, Note_on_c, 1, 88, 84
7, 172184, Note_on_c, 1, 88, 0
7, 172200, Note_on_c, 1, 88, 84
7, 172304, Note_on_c, 1, 88, 0
7, 172320, Note_on_c, 1, 88, 84
7, 172664, Note_on_c, 1, 88, 0
7, 172680, Note_on_c, 1, 88, 84
7, 172784, Note_on_c, 1, 88, 0
7, 172800, Note_on_c, 1, 88, 84
7, 173144, Note_on_c, 1, 88, 0
7, 173160, Note_on_c, 1, 88, 84
7, 173264, Note_on_c, 1, 88, 0
7, 173280, Note_on_c, 1, 88, 84
7, 173624, Note_on_c, 1, 88, 0
7, 173640, Note_on_c, 1, 88, 84
7, 173744, Note_on_c, 1, 88, 0
7, 173760, Note_on_c, 1, 88, 84
7, 173879, Note_on_c, 1, 88, 0
7, 174720, Note_on_c, 1, 88, 84
7, 174839, Note_on_c, 1, 88, 0
7, 181440, Note_on_c, 1, 81, 52
7, 181529, Note_on_c, 1, 81, 0
7, 181560, Note_on_c, 1, 83, 52
7, 181649, Note_on_c, 1, 83, 0
7, 181680, Note_on_c, 1, 81, 52
7, 181680, Note_on_c, 1, 85, 52
7, 181799, Note_on_c, 1, 81, 0
7, 181799, Note_on_c, 1, 85, 0
7, 181800, Note_on_c, 1, 83, 52
7, 181800, Note_on_c, 1, 86, 52
7, 181859, Note_on_c, 1, 83, 0
7, 181859, Note_on_c, 1, 86, 0
7, 181860, Note_on_c, 1, 85, 52
7, 181860, Note_on_c, 1, 81, 52
7, 181911, Note_on_c, 1, 85, 0
7, 181911, Note_on_c, 1, 81, 0
7, 181920, Note_on_c, 1, 83, 52
7, 182009, Note_on_c, 1, 83, 0
7, 182040, Note_on_c, 1, 85, 52
7, 182129, Note_on_c, 1, 85, 0
7, 182160, Note_on_c, 1, 86, 52
7, 182160, Note_on_c, 1, 83, 52
7, 182279, Note_on_c, 1, 86, 0
7, 182279, Note_on_c, 1, 83, 0
7, 182280, Note_on_c, 1, 88, 52
7, 182280, Note_on_c, 1, 85, 52
7, 182339, Note_on_c, 1, 88, 0
7, 182339, Note_on_c, 1, 85, 0
7, 182340, Note_on_c, 1, 83, 52
7, 182340, Note_on_c, 1, 86, 52
7, 182391, Note_on_c, 1, 83, 0
7, 182391, Note_on_c, 1, 86, 0
7, 182400, Note_on_c, 1, 81, 48
7, 182400, Note_on_c, 1, 85, 48
7, 182639, Note_on_c, 1, 81, 0
7, 182639, Note_on_c, 1, 85, 0
7, 182640, Note_on_c, 1, 85, 48
7, 182640, Note_on_c, 1, 88, 48
7, 182879, Note_on_c, 1, 85, 0
7, 182879, Note_on_c, 1, 88, 0
7, 182880, Note_on_c, 1, 86, 48
7, 182880, Note_on_c, 1, 83, 48
7, 183239, Note_on_c, 1, 86, 0
7, 183239, Note_on_c, 1, 83, 0
7, 183240, Note_on_c, 1, 85, 48
7, 183240, Note_on_c, 1, 81, 48
7, 183344, Note_on_c, 1, 85, 0
7, 183344, Note_on_c, 1, 81, 0
7, 183360, Note_on_c, 1, 86, 48
7, 183360, Note_on_c, 1, 90, 48
7, 183599, Note_on_c, 1, 86, 0
7, 183599, Note_on_c, 1, 90, 0
7, 183600, Note_on_c, 1, 85, 48
7, 183600, Note_on_c, 1, 88, 48
7, 183824, Note_on_c, 1, 85, 0
7, 183824, Note_on_c, 1, 88, 0
7, 183840, Note_on_c, 1, 83, 48
7, 183840, Note_on_c, 1, 80, 48
7, 183929, Note_on_c, 1, 83, 0
7, 183960, Note_on_c, 1, 83, 48
7, 184019, Note_on_c, 1, 83, 0
7, 184020, Note_on_c, 1, 85, 48
7, 184079, Note_on_c, 1, 85, 0
7, 184080, Note_on_c, 1, 86, 48
7, 184199, Note_on_c, 1, 86, 0
7, 184200, Note_on_c, 1, 83, 48
7, 184304, Note_on_c, 1, 80, 0
7, 184304, Note_on_c, 1, 83, 0
7, 184320, Note_on_c, 1, 85, 48
7, 184320, Note_on_c, 1, 81, 48
7, 184439, Note_on_c, 1, 85, 0
7, 184439, Note_on_c, 1, 81, 0
7, 192000, Note_on_c, 1, 76, 84
7, 192239, Note_on_c, 1, 76, 0
7, 192240, Note_on_c, 1, 79, 84
7, 192479, Note_on_c, 1, 79, 0
7, 192480, Note_on_c, 1, 77, 84
7, 192839, Note_on_c, 1, 77, 0
7, 192840, Note_on_c, 1, 76, 84
7, 192944, Note_on_c, 1, 76, 0
7, 192960, Note_on_c, 1, 81, 92
7, 193199, Note_on_c, 1, 81, 0
7, 193200, Note_on_c, 1, 79, 84
7, 193424, Note_on_c, 1, 79, 0
7, 193440, Note_on_c, 1, 77, 84
7, 193529, Note_on_c, 1, 77, 0
7, 193560, Note_on_c, 1, 77, 84
7, 193619, Note_on_c, 1, 77, 0
7, 193620, Note_on_c, 1, 79, 84
7, 193671, Note_on_c, 1, 79, 0
7, 193680, Note_on_c, 1, 81, 84
7, 193769, Note_on_c, 1, 81, 0
7, 193800, Note_on_c, 1, 77, 84
7, 193889, Note_on_c, 1, 77, 0
7, 193920, Note_on_c, 1, 79, 92
7, 194159, Note_on_c, 1, 79, 0
7, 194160, Note_on_c, 1, 82, 84
7, 194399, Note_on_c, 1, 82, 0
7, 194400, Note_on_c, 1, 81, 84
7, 194759, Note_on_c, 1, 81, 0
7, 194760, Note_on_c, 1, 79, 84
7, 194864, Note_on_c, 1, 79, 0
7, 194880, Note_on_c, 1, 84, 92
7, 195119, Note_on_c, 1, 84, 0
7, 195120, Note_on_c, 1, 82, 84
7, 195344, Note_on_c, 1, 82, 0
7, 195360, Note_on_c, 1, 81, 84
7, 195449, Note_on_c, 1, 81, 0
7, 195480, Note_on_c, 1, 81, 84
7, 195539, Note_on_c, 1, 81, 0
7, 195540, Note_on_c, 1, 82, 84
7, 195591, Note_on_c, 1, 82, 0
7, 195600, Note_on_c, 1, 84, 84
7, 195689, Note_on_c, 1, 84, 0
7, 195720, Note_on_c, 1, 81, 84
7, 195809, Note_on_c, 1, 81, 0
7, 195840, Note_on_c, 1, 86, 92
7, 196079, Note_on_c, 1, 86, 0
7, 196080, Note_on_c, 1, 84, 84
7, 196304, Note_on_c, 1, 84, 0
7, 196320, Note_on_c, 1, 82, 84
7, 196409, Note_on_c, 1, 82, 0
7, 196440, Note_on_c, 1, 79, 84
7, 196499, Note_on_c, 1, 79, 0
7, 196500, Note_on_c, 1, 81, 84
7, 196551, Note_on_c, 1, 81, 0
7, 196560, Note_on_c, 1, 82, 84
7, 196649, Note_on_c, 1, 82, 0
7, 196680, Note_on_c, 1, 84, 84
7, 196769, Note_on_c, 1, 84, 0
7, 196800, Note_on_c, 1, 86, 92
7, 197039, Note_on_c, 1, 86, 0
7, 197040, Note_on_c, 1, 84, 84
7, 197264, Note_on_c, 1, 84, 0
7, 197280, Note_on_c, 1, 82, 84
7, 197369, Note_on_c, 1, 82, 0
7, 197400, Note_on_c, 1, 79, 84
7, 197459, Note_on_c, 1, 79, 0
7, 197460, Note_on_c, 1, 81, 84
7, 197511, Note_on_c, 1, 81, 0
7, 197520, Note_on_c, 1, 82, 84
7, 197609, Note_on_c, 1, 82, 0
7, 197640, Note_on_c, 1, 84, 84
7, 197729, Note_on_c, 1, 84, 0
7, 197760, Note_on_c, 1, 86, 84
7, 197879, Note_on_c, 1, 86, 0
7, 215520, Note_on_c, 1, 69, 84
7, 215520, Note_on_c, 1, 81, 84
7, 215624, Note_on_c, 1, 69, 0
7, 215624, Note_on_c, 1, 81, 0
7, 215640, Note_on_c, 1, 81, 84
7, 215640, Note_on_c, 1, 77, 84
7, 215729, Note_on_c, 1, 81, 0
7, 215729, Note_on_c, 1, 77, 0
7, 215760, Note_on_c, 1, 82, 84
7, 215760, Note_on_c, 1, 79, 84
7, 215849, Note_on_c, 1, 82, 0
7, 215849, Note_on_c, 1, 79, 0
7, 215880, Note_on_c, 1, 86, 84
7, 215880, Note_on_c, 1, 82, 84
7, 215969, Note_on_c, 1, 86, 0
7, 215969, Note_on_c, 1, 82, 0
7, 216000, Note_on_c, 1, 81, 84
7, 216000, Note_on_c, 1, 84, 84
7, 216119, Note_on_c, 1, 81, 0
7, 216119, Note_on_c, 1, 84, 0
7, 216120, Note_on_c, 1, 79, 84
7, 216120, Note_on_c, 1, 82, 84
7, 216179, Note_on_c, 1, 79, 0
7, 216179, Note_on_c, 1, 82, 0
7, 216180, Note_on_c, 1, 81, 84
7, 216180, Note_on_c, 1, 77, 84
7, 216231, Note_on_c, 1, 81, 0
7, 216231, Note_on_c, 1, 77, 0
7, 216240, Note_on_c, 1, 76, 84
7, 216240, Note_on_c, 1, 79, 84
7, 216329, Note_on_c, 1, 76, 0
7, 216329, Note_on_c, 1, 79, 0
7, 216360, Note_on_c, 1, 72, 84
7, 216449, Note_on_c, 1, 72, 0
7, 216480, Note_on_c, 1, 77, 84
7, 216569, Note_on_c, 1, 77, 0
7, 216600, Note_on_c, 1, 76, 84
7, 216600, Note_on_c, 1, 79, 84
7, 216689, Note_on_c, 1, 76, 0
7, 216689, Note_on_c, 1, 79, 0
7, 216720, Note_on_c, 1, 81, 84
7, 216720, Note_on_c, 1, 77, 84
7, 216839, Note_on_c, 1, 81, 0
7, 216839, Note_on_c, 1, 77, 0
7, 216840, Note_on_c, 1, 79, 84
7, 216840, Note_on_c, 1, 82, 84
7, 216899, Note_on_c, 1, 79, 0
7, 216899, Note_on_c, 1, 82, 0
7, 216900, Note_on_c, 1, 81, 84
7, 216900, Note_on_c, 1, 77, 84
7, 216951, Note_on_c, 1, 81, 0
7, 216951, Note_on_c, 1, 77, 0
7, 216960, Note_on_c, 1, 76, 84
7, 216960, Note_on_c, 1, 79, 84
7, 217049, Note_on_c, 1, 76, 0
7, 217049, Note_on_c, 1, 79, 0
7, 217080, Note_on_c, 1, 81, 84
7, 217080, Note_on_c, 1, 77, 84
7, 217169, Note_on_c, 1, 81, 0
7, 217169, Note_on_c, 1, 77, 0
7, 217200, Note_on_c, 1, 82, 84
7, 217200, Note_on_c, 1, 79, 84
7, 217319, Note_on_c, 1, 82, 0
7, 217319, Note_on_c, 1, 79, 0
7, 217320, Note_on_c, 1, 81, 84
7, 217320, Note_on_c, 1, 84, 84
7, 217379, Note_on_c, 1, 81, 0
7, 217379, Note_on_c, 1, 84, 0
7, 217380, Note_on_c, 1, 82, 84
7, 217380, Note_on_c, 1, 79, 84
7, 217431, Note_on_c, 1, 82, 0
7, 217431, Note_on_c, 1, 79, 0
7, 217440, Note_on_c, 1, 77, 84
7, 217440, Note_on_c, 1, 81, 84
7, 217559, Note_on_c, 1, 77, 0
7, 217559, Note_on_c, 1, 81, 0
7, 217560, Note_on_c, 1, 84, 84
7, 217560, Note_on_c, 1, 81, 84
7, 217679, Note_on_c, 1, 84, 0
7, 217679, Note_on_c, 1, 81, 0
7, 217680, Note_on_c, 1, 84, 84
7, 217680, Note_on_c, 1, 81, 84
7, 217769, Note_on_c, 1, 84, 0
7, 217769, Note_on_c, 1, 81, 0
7, 217800, Note_on_c, 1, 81, 84
7, 217800, Note_on_c, 1, 84, 84
7, 217851, Note_on_c, 1, 84, 0
7, 217860, Note_on_c, 1, 86, 84
7, 217879, Note_on_c, 1, 86, 0
7, 217880, Note_on_c, 1, 84, 84
7, 217889, Note_on_c, 1, 81, 0
7, 217899, Note_on_c, 1, 84, 0
7, 217900, Note_on_c, 1, 83, 84
7, 217919, Note_on_c, 1, 83, 0
7, 217920, Note_on_c, 1, 84, 84
7, 218091, Note_on_c, 1, 84, 0
7, 218100, Note_on_c, 1, 86, 84
7, 218119, Note_on_c, 1, 86, 0
7, 218120, Note_on_c, 1, 84, 84
7, 218139, Note_on_c, 1, 84, 0
7, 218140, Note_on_c, 1, 83, 84
7, 218159, Note_on_c, 1, 83, 0
7, 218160, Note_on_c, 1, 84, 84
7, 218384, Note_on_c, 1, 84, 0
7, 218400, Note_on_c, 1, 76, 84
7, 218400, Note_on_c, 1, 72, 84
7, 218489, Note_on_c, 1, 76, 0
7, 218489, Note_on_c, 1, 72, 0
7, 218520, Note_on_c, 1, 74, 84
7, 218520, Note_on_c, 1, 77, 84
7, 218609, Note_on_c, 1, 74, 0
7, 218609, Note_on_c, 1, 77, 0
7, 218640, Note_on_c, 1, 76, 84
7, 218640, Note_on_c, 1, 79, 84
7, 218759, Note_on_c, 1, 76, 0
7, 218759, Note_on_c, 1, 79, 0
7, 218760, Note_on_c, 1, 81, 84
7, 218760, Note_on_c, 1, 77, 84
7, 218819, Note_on_c, 1, 81, 0
7, 218819, Note_on_c, 1, 77, 0
7, 218820, Note_on_c, 1, 79, 84
7, 218820, Note_on_c, 1, 76, 84
7, 218871, Note_on_c, 1, 79, 0
7, 218871, Note_on_c, 1, 76, 0
7, 218880, Note_on_c, 1, 74, 84
7, 218880, Note_on_c, 1, 77, 84
7, 218969, Note_on_c, 1, 74, 0
7, 218969, Note_on_c, 1, 77, 0
7, 219000, Note_on_c, 1, 79, 84
7, 219000, Note_on_c, 1, 76, 84
7, 219089, Note_on_c, 1, 79, 0
7, 219089, Note_on_c, 1, 76, 0
7, 219120, Note_on_c, 1, 81, 84
7, 219120, Note_on_c, 1, 77, 84
7, 219239, Note_on_c, 1, 81, 0
7, 219239, Note_on_c, 1, 77, 0
7, 219240, Note_on_c, 1, 82, 84
7, 219240, Note_on_c, 1, 79, 84
7, 219299, Note_on_c, 1, 82, 0
7, 219299, Note_on_c, 1, 79, 0
7, 219300, Note_on_c, 1, 77, 84
7, 219300, Note_on_c, 1, 81, 84
7, 219351, Note_on_c, 1, 77, 0
7, 219351, Note_on_c, 1, 81, 0
7, 219360, Note_on_c, 1, 79, 84
7, 219360, Note_on_c, 1, 76, 84
7, 219479, Note_on_c, 1, 79, 0
7, 219479, Note_on_c, 1, 76, 0
7, 219480, Note_on_c, 1, 82, 84
7, 219480, Note_on_c, 1, 79, 84
7, 219584, Note_on_c, 1, 82, 0
7, 219584, Note_on_c, 1, 79, 0
7, 219600, Note_on_c, 1, 79, 84
7, 219600, Note_on_c, 1, 82, 84
7, 219689, Note_on_c, 1, 79, 0
7, 219689, Note_on_c, 1, 82, 0
7, 219720, Note_on_c, 1, 79, 84
7, 219720, Note_on_c, 1, 82, 84
7, 219771, Note_on_c, 1, 82, 0
7, 219780, Note_on_c, 1, 84, 84
7, 219799, Note_on_c, 1, 84, 0
7, 219800, Note_on_c, 1, 82, 84
7, 219809, Note_on_c, 1, 79, 0
7, 219819, Note_on_c, 1, 82, 0
7, 219820, Note_on_c, 1, 81, 84
7, 219839, Note_on_c, 1, 81, 0
7, 219840, Note_on_c, 1, 82, 84
7, 219959, Note_on_c, 1, 82, 0
7, 220020, Note_on_c, 1, 86, 84
7, 220039, Note_on_c, 1, 86, 0
7, 220040, Note_on_c, 1, 84, 84
7, 220059, Note_on_c, 1, 84, 0
7, 220060, Note_on_c, 1, 83, 84
7, 220079, Note_on_c, 1, 83, 0
7, 220080, Note_on_c, 1, 84, 84
7, 220199, Note_on_c, 1, 84, 0
7, 220500, Note_on_c, 1, 86, 84
7, 220519, Note_on_c, 1, 86, 0
7, 220520, Note_on_c, 1, 84, 84
7, 220539, Note_on_c, 1, 84, 0
7, 220540, Note_on_c, 1, 83, 84
7, 220559, Note_on_c, 1, 83, 0
7, 220560, Note_on_c, 1, 84, 84
7, 220679, Note_on_c, 1, 84, 0
7, 220980, Note_on_c, 1, 86, 84
7, 220999, Note_on_c, 1, 86, 0
7, 221000, Note_on_c, 1, 84, 84
7, 221019, Note_on_c, 1, 84, 0
7, 221020, Note_on_c, 1, 83, 84
7, 221039, Note_on_c, 1, 83, 0
7, 221040, Note_on_c, 1, 84, 84
7, 221159, Note_on_c, 1, 84, 0
7, 221460, Note_on_c, 1, 86, 84
7, 221479, Note_on_c, 1, 86, 0
7, 221480, Note_on_c, 1, 84, 84
7, 221499, Note_on_c, 1, 84, 0
7, 221500, Note_on_c, 1, 83, 84
7, 221519, Note_on_c, 1, 83, 0
7, 221520, Note_on_c, 1, 84, 84
7, 221639, Note_on_c, 1, 84, 0
7, 221940, Note_on_c, 1, 86, 84
7, 221959, Note_on_c, 1, 86, 0
7, 221960, Note_on_c, 1, 84, 84
7, 221979, Note_on_c, 1, 84, 0
7, 221980, Note_on_c, 1, 83, 84
7, 221999, Note_on_c, 1, 83, 0
7, 222000, Note_on_c, 1, 84, 84
7, 222119, Note_on_c, 1, 84, 0
7, 222180, Note_on_c, 1, 86, 84
7, 222199, Note_on_c, 1, 86, 0
7, 222200, Note_on_c, 1, 84, 84
7, 222219, Note_on_c, 1, 84, 0
7, 222220, Note_on_c, 1, 83, 84
7, 222239, Note_on_c, 1, 83, 0
7, 222240, Note_on_c, 1, 84, 84
7, 222359, Note_on_c, 1, 84, 0
7, 222660, Note_on_c, 1, 86, 84
7, 222679, Note_on_c, 1, 86, 0
7, 222680, Note_on_c, 1, 84, 84
7, 222699, Note_on_c, 1, 84, 0
7, 222700, Note_on_c, 1, 83, 84
7, 222719, Note_on_c, 1, 83, 0
7, 222720, Note_on_c, 1, 84, 84
7, 222959, Note_on_c, 1, 84, 0
7, 223080, Note_on_c, 1, 84, 84
7, 223184, Note_on_c, 1, 84, 0
7, 223200, Note_on_c, 1, 81, 84
7, 223200, Note_on_c, 1, 77, 84
7, 223319, Note_on_c, 1, 81, 0
7, 223319, Note_on_c, 1, 77, 0
7, 241358, Control_c, 1, 11, 98
7, 241440, Note_on_c, 1, 72, 76
7, 241440, Note_on_c, 1, 86, 76
7, 241460, Control_c, 1, 11, 99
7, 241559, Note_on_c, 1, 86, 0
7, 241560, Note_on_c, 1, 84, 76
7, 241563, Control_c, 1, 11, 100
7, 241665, Control_c, 1, 11, 101
7, 241679, Note_on_c, 1, 84, 0
7, 241680, Note_on_c, 1, 82, 76
7, 241767, Control_c, 1, 11, 102
7, 241799, Note_on_c, 1, 82, 0
7, 241800, Note_on_c, 1, 79, 76
7, 241869, Control_c, 1, 11, 103
7, 241919, Note_on_c, 1, 79, 0
7, 241971, Control_c, 1, 11, 104
7, 242040, Note_on_c, 1, 82, 76
7, 242073, Control_c, 1, 11, 105
7, 242159, Note_on_c, 1, 82, 0
7, 242160, Note_on_c, 1, 79, 76
7, 242175, Control_c, 1, 11, 106
7, 242277, Control_c, 1, 11, 107
7, 242279, Note_on_c, 1, 79, 0
7, 242380, Control_c, 1, 11, 108
7, 242384, Note_on_c, 1, 72, 0
7, 242400, Note_on_c, 1, 86, 76
7, 242400, Note_on_c, 1, 77, 76
7, 242482, Control_c, 1, 11, 109
7, 242519, Note_on_c, 1, 86, 0
7, 242520, Note_on_c, 1, 84, 76
7, 242584, Control_c, 1, 11, 110
7, 242639, Note_on_c, 1, 84, 0
7, 242640, Note_on_c, 1, 81, 76
7, 242686, Control_c, 1, 11, 111
7, 242759, Note_on_c, 1, 81, 0
7, 242788, Control_c, 1, 11, 112
7, 242880, Note_on_c, 1, 72, 76
7, 242890, Control_c, 1, 11, 113
7, 242992, Control_c, 1, 11, 114
7, 242999, Note_on_c, 1, 72, 0
7, 243000, Note_on_c, 1, 81, 76
7, 243094, Control_c, 1, 11, 115
7, 243119, Note_on_c, 1, 81, 0
7, 243197, Control_c, 1, 11, 116
7, 243240, Note_on_c, 1, 72, 76
7, 243299, Control_c, 1, 11, 117
7, 243344, Note_on_c, 1, 77, 0
7, 243344, Note_on_c, 1, 72, 0
7, 243360, Note_on_c, 1, 86, 76
7, 243360, Note_on_c, 1, 76, 76
7, 243401, Control_c, 1, 11, 118
7, 243479, Note_on_c, 1, 86, 0
7, 243480, Note_on_c, 1, 84, 76
7, 243503, Control_c, 1, 11, 119
7, 243584, Note_on_c, 1, 76, 0
7, 243599, Note_on_c, 1, 84, 0
7, 243600, Note_on_c, 1, 82, 76
7, 243600, Note_on_c, 1, 76, 76
7, 243605, Control_c, 1, 11, 120
7, 243707, Control_c, 1, 11, 121
7, 243719, Note_on_c, 1, 82, 0
7, 243720, Note_on_c, 1, 79, 76
7, 243809, Control_c, 1, 11, 122
7, 243824, Note_on_c, 1, 76, 0
7, 243839, Note_on_c, 1, 79, 0
7, 243840, Note_on_c, 1, 76, 76
7, 243840, Note_on_c, 1, 72, 76
7, 243911, Control_c, 1, 11, 123
7, 243959, Note_on_c, 1, 72, 0
7, 243960, Note_on_c, 1, 82, 76
7, 244014, Control_c, 1, 11, 124
7, 244079, Note_on_c, 1, 76, 0
7, 244079, Note_on_c, 1, 82, 0
7, 244080, Note_on_c, 1, 79, 76
7, 244116, Control_c, 1, 11, 125
7, 244199, Note_on_c, 1, 79, 0
7, 244200, Note_on_c, 1, 72, 76
7, 244200, Note_on_c, 1, 76, 76
7, 244218, Control_c, 1, 11, 127
7, 244304, Note_on_c, 1, 72, 0
7, 244304, Note_on_c, 1, 76, 0
7, 244320, Note_on_c, 1, 84, 76
7, 244320, Note_on_c, 1, 81, 76
7, 244679, Note_on_c, 1, 84, 0
7, 244679, Note_on_c, 1, 81, 0
7, 244680, Note_on_c, 1, 82, 76
7, 244680, Note_on_c, 1, 86, 76
7, 244739, Note_on_c, 1, 82, 0
7, 244739, Note_on_c, 1, 86, 0
7, 244740, Note_on_c, 1, 88, 76
7, 244740, Note_on_c, 1, 84, 76
7, 244791, Note_on_c, 1, 88, 0
7, 244791, Note_on_c, 1, 84, 0
7, 244800, Note_on_c, 1, 89, 76
7, 244800, Note_on_c, 1, 86, 76
7, 244919, Note_on_c, 1, 89, 0
7, 244919, Note_on_c, 1, 86, 0
7, 244920, Note_on_c, 1, 84, 76
7, 244920, Note_on_c, 1, 88, 76
7, 244979, Note_on_c, 1, 84, 0
7, 244979, Note_on_c, 1, 88, 0
7, 244980, Note_on_c, 1, 86, 76
7, 244980, Note_on_c, 1, 82, 76
7, 245039, Note_on_c, 1, 86, 0
7, 245039, Note_on_c, 1, 82, 0
7, 245040, Note_on_c, 1, 84, 76
7, 245040, Note_on_c, 1, 81, 76
7, 245159, Note_on_c, 1, 84, 0
7, 245159, Note_on_c, 1, 81, 0
7, 245160, Note_on_c, 1, 82, 76
7, 245160, Note_on_c, 1, 86, 76
7, 245219, Note_on_c, 1, 82, 0
7, 245219, Note_on_c, 1, 86, 0
7, 245220, Note_on_c, 1, 84, 76
7, 245220, Note_on_c, 1, 88, 76
7, 245271, Note_on_c, 1, 84, 0
7, 245271, Note_on_c, 1, 88, 0
7, 245280, Note_on_c, 1, 86, 76
7, 245280, Note_on_c, 1, 89, 76
7, 245399, Note_on_c, 1, 86, 0
7, 245399, Note_on_c, 1, 89, 0
7, 245400, Note_on_c, 1, 88, 76
7, 245400, Note_on_c, 1, 84, 76
7, 245459, Note_on_c, 1, 88, 0
7, 245459, Note_on_c, 1, 84, 0
7, 245460, Note_on_c, 1, 82, 76
7, 245460, Note_on_c, 1, 86, 76
7, 245519, Note_on_c, 1, 82, 0
7, 245519, Note_on_c, 1, 86, 0
7, 245520, Note_on_c, 1, 84, 76
7, 245520, Note_on_c, 1, 81, 76
7, 245639, Note_on_c, 1, 84, 0
7, 245639, Note_on_c, 1, 81, 0
7, 245640, Note_on_c, 1, 82, 76
7, 245640, Note_on_c, 1, 86, 76
7, 245699, Note_on_c, 1, 82, 0
7, 245699, Note_on_c, 1, 86, 0
7, 245700, Note_on_c, 1, 88, 76
7, 245700, Note_on_c, 1, 84, 76
7, 245751, Note_on_c, 1, 88, 0
7, 245751, Note_on_c, 1, 84, 0
7, 245760, Note_on_c, 1, 86, 76
7, 245760, Note_on_c, 1, 89, 76
7, 245879, Note_on_c, 1, 86, 0
7, 245879, Note_on_c, 1, 89, 0
7, 247680, Note_on_c, 1, 84, 84
7, 247680, Note_on_c, 1, 81, 84
7, 248039, Note_on_c, 1, 84, 0
7, 248039, Note_on_c, 1, 81, 0
7, 248040, Note_on_c, 1, 82, 84
7, 248040, Note_on_c, 1, 86, 84
7, 248099, Note_on_c, 1, 82, 0
7, 248099, Note_on_c, 1, 86, 0
7, 248100, Note_on_c, 1, 84, 84
7, 248100, Note_on_c, 1, 88, 84
7, 248151, Note_on_c, 1, 84, 0
7, 248151, Note_on_c, 1, 88, 0
7, 248160, Note_on_c, 1, 89, 84
7, 248160, Note_on_c, 1, 86, 84
7, 248279, Note_on_c, 1, 89, 0
7, 248279, Note_on_c, 1, 86, 0
7, 248280, Note_on_c, 1, 88, 84
7, 248280, Note_on_c, 1, 84, 84
7, 248339, Note_on_c, 1, 88, 0
7, 248339, Note_on_c, 1, 84, 0
7, 248340, Note_on_c, 1, 86, 84
7, 248340, Note_on_c, 1, 82, 84
7, 248399, Note_on_c, 1, 86, 0
7, 248399, Note_on_c, 1, 82, 0
7, 248400, Note_on_c, 1, 81, 84
7, 248400, Note_on_c, 1, 84, 84
7, 248519, Note_on_c, 1, 81, 0
7, 248519, Note_on_c, 1, 84, 0
7, 248520, Note_on_c, 1, 86, 84
7, 248520, Note_on_c, 1, 82, 84
7, 248579, Note_on_c, 1, 86, 0
7, 248579, Note_on_c, 1, 82, 0
7, 248580, Note_on_c, 1, 88, 84
7, 248580, Note_on_c, 1, 84, 84
7, 248631, Note_on_c, 1, 88, 0
7, 248631, Note_on_c, 1, 84, 0
7, 248640, Note_on_c, 1, 89, 84
7, 248640, Note_on_c, 1, 86, 84
7, 248759, Note_on_c, 1, 89, 0
7, 248759, Note_on_c, 1, 86, 0
7, 248760, Note_on_c, 1, 88, 84
7, 248760, Note_on_c, 1, 84, 84
7, 248819, Note_on_c, 1, 88, 0
7, 248819, Note_on_c, 1, 84, 0
7, 248820, Note_on_c, 1, 82, 84
7, 248820, Note_on_c, 1, 86, 84
7, 248879, Note_on_c, 1, 82, 0
7, 248879, Note_on_c, 1, 86, 0
7, 248880, Note_on_c, 1, 84, 84
7, 248880, Note_on_c, 1, 81, 84
7, 248999, Note_on_c, 1, 84, 0
7, 248999, Note_on_c, 1, 81, 0
7, 249000, Note_on_c, 1, 86, 84
7, 249000, Note_on_c, 1, 82, 84
7, 249059, Note_on_c, 1, 86, 0
7, 249059, Note_on_c, 1, 82, 0
7, 249060, Note_on_c, 1, 84, 84
7, 249060, Note_on_c, 1, 88, 84
7, 249111, Note_on_c, 1, 84, 0
7, 249111, Note_on_c, 1, 88, 0
7, 249120, Note_on_c, 1, 89, 76
7, 249120, Note_on_c, 1, 86, 76
7, 249239, Note_on_c, 1, 89, 0
7, 249239, Note_on_c, 1, 86, 0
7, 251640, Note_on_c, 1, 89, 54
7, 251640, Note_on_c, 1, 86, 54
7, 251759, Note_on_c, 1, 89, 0
7, 251759, Note_on_c, 1, 86, 0
7, 251760, Note_on_c, 1, 88, 56
7, 251760, Note_on_c, 1, 84, 56
7, 251879, Note_on_c, 1, 88, 0
7, 251879, Note_on_c, 1, 84, 0
7, 251880, Note_on_c, 1, 82, 58
7, 251880, Note_on_c, 1, 86, 58
7, 251999, Note_on_c, 1, 82, 0
7, 251999, Note_on_c, 1, 86, 0
7, 252120, Note_on_c, 1, 84, 62
7, 252120, Note_on_c, 1, 81, 62
7, 252239, Note_on_c, 1, 84, 0
7, 252239, Note_on_c, 1, 81, 0
7, 252240, Note_on_c, 1, 79, 64
7, 252240, Note_on_c, 1, 82, 64
7, 252359, Note_on_c, 1, 79, 0
7, 252359, Note_on_c, 1, 82, 0
7, 252360, Note_on_c, 1, 77, 66
7, 252360, Note_on_c, 1, 81, 66
7, 252479, Note_on_c, 1, 77, 0
7, 252479, Note_on_c, 1, 81, 0
7, 252600, Note_on_c, 1, 76, 70
7, 252600, Note_on_c, 1, 79, 70
7, 252719, Note_on_c, 1, 76, 0
7, 252719, Note_on_c, 1, 79, 0
7, 252720, Note_on_c, 1, 77, 72
7, 252720, Note_on_c, 1, 74, 72
7, 252839, Note_on_c, 1, 77, 0
7, 252839, Note_on_c, 1, 74, 0
7, 252840, Note_on_c, 1, 76, 74
7, 252840, Note_on_c, 1, 79, 74
7, 252944, Note_on_c, 1, 76, 0
7, 252944, Note_on_c, 1, 79, 0
7, 252960, Note_on_c, 1, 81, 76
7, 252960, Note_on_c, 1, 77, 76
7, 253079, Note_on_c, 1, 81, 0
7, 253079, Note_on_c, 1, 77, 0
7, 253200, Note_on_c, 1, 84, 76
7, 253200, Note_on_c, 1, 89, 76
7, 253319, Note_on_c, 1, 84, 0
7, 253319, Note_on_c, 1, 89, 0
7, 253440, Note_on_c, 1, 89, 76
7, 253440, Note_on_c, 1, 86, 76
7, 253559, Note_on_c, 1, 89, 0
7, 253559, Note_on_c, 1, 86, 0
7, 253680, Note_on_c, 1, 86, 76
7, 253680, Note_on_c, 1, 82, 76
7, 253799, Note_on_c, 1, 86, 0
7, 253799, Note_on_c, 1, 82, 0
7, 253920, Note_on_c, 1, 84, 76
7, 253920, Note_on_c, 1, 81, 76
7, 254039, Note_on_c, 1, 84, 0
7, 254039, Note_on_c, 1, 81, 0
7, 254160, Note_on_c, 1, 81, 76
7, 254160, Note_on_c, 1, 77, 76
7, 254279, Note_on_c, 1, 81, 0
7, 254279, Note_on_c, 1, 77, 0
7, 254400, Note_on_c, 1, 79, 76
7, 254400, Note_on_c, 1, 76, 76
7, 254519, Note_on_c, 1, 79, 0
7, 254519, Note_on_c, 1, 76, 0
7, 254640, Note_on_c, 1, 84, 76
7, 254640, Note_on_c, 1, 76, 76
7, 254759, Note_on_c, 1, 84, 0
7, 254759, Note_on_c, 1, 76, 0
7, 254880, Note_on_c, 1, 77, 76
7, 254999, Note_on_c, 1, 77, 0
7, 255840, Note_on_c, 1, 77, 76
7, 255840, Note_on_c, 1, 81, 76
7, 255959, Note_on_c, 1, 77, 0
7, 255959, Note_on_c, 1, 81, 0
7, 256800, Note_on_c, 1, 81, 76
7, 256800, Note_on_c, 1, 77, 76
7, 256919, Note_on_c, 1, 81, 0
7, 256919, Note_on_c, 1, 77, 0
7, 257760, Note_on_c, 1, 77, 76
7, 257760, Note_on_c, 1, 81, 76
7, 257879, Note_on_c, 1, 77, 0
7, 257879, Note_on_c, 1, 81, 0
7, 270240, Note_on_c, 1, 82, 52
7, 270329, Note_on_c, 1, 82, 0
7, 270360, Note_on_c, 1, 84, 52
7, 270449, Note_on_c, 1, 84, 0
7, 270480, Note_on_c, 1, 86, 52
7, 270599, Note_on_c, 1, 86, 0
7, 270600, Note_on_c, 1, 87, 52
7, 270659, Note_on_c, 1, 87, 0
7, 270660, Note_on_c, 1, 86, 52
7, 270711, Note_on_c, 1, 86, 0
7, 270720, Note_on_c, 1, 84, 52
7, 270809, Note_on_c, 1, 84, 0
7, 270840, Note_on_c, 1, 86, 52
7, 270929, Note_on_c, 1, 86, 0
7, 270960, Note_on_c, 1, 87, 52
7, 271079, Note_on_c, 1, 87, 0
7, 271080, Note_on_c, 1, 89, 52
7, 271139, Note_on_c, 1, 89, 0
7, 271140, Note_on_c, 1, 87, 52
7, 271191, Note_on_c, 1, 87, 0
7, 271200, Note_on_c, 1, 86, 52
7, 271319, Note_on_c, 1, 86, 0
7, 276000, Note_on_c, 1, 88, 52
7, 276319, Note_on_c, 1, 88, 0
7, 276320, Note_on_c, 1, 89, 52
7, 276399, Note_on_c, 1, 89, 0
7, 276400, Note_on_c, 1, 91, 52
7, 276467, Note_on_c, 1, 91, 0
7, 276480, Note_on_c, 1, 84, 52
7, 276799, Note_on_c, 1, 84, 0
7, 276800, Note_on_c, 1, 86, 52
7, 276879, Note_on_c, 1, 86, 0
7, 276880, Note_on_c, 1, 88, 52
7, 276947, Note_on_c, 1, 88, 0
7, 276960, Note_on_c, 1, 77, 76
7, 276960, Note_on_c, 1, 89, 76
7, 277199, Note_on_c, 1, 77, 0
7, 277199, Note_on_c, 1, 89, 0
7, 277200, Note_on_c, 1, 84, 76
7, 277200, Note_on_c, 1, 72, 76
7, 277904, Note_on_c, 1, 84, 0
7, 277904, Note_on_c, 1, 72, 0
7, 277920, Note_on_c, 1, 93, 76
7, 277920, Note_on_c, 1, 81, 76
7, 278159, Note_on_c, 1, 93, 0
7, 278159, Note_on_c, 1, 81, 0
7, 278160, Note_on_c, 1, 89, 76
7, 278160, Note_on_c, 1, 77, 76
7, 278864, Note_on_c, 1, 89, 0
7, 278864, Note_on_c, 1, 77, 0
7, 278880, Note_on_c, 1, 89, 76
7, 278880, Note_on_c, 1, 77, 76
7, 279119, Note_on_c, 1, 89, 0
7, 279119, Note_on_c, 1, 77, 0
7, 279120, Note_on_c, 1, 84, 76
7, 279120, Note_on_c, 1, 72, 76
7, 279824, Note_on_c, 1, 84, 0
7, 279824, Note_on_c, 1, 72, 0
7, 279840, Note_on_c, 1, 93, 76
7, 279840, Note_on_c, 1, 81, 76
7, 280079, Note_on_c, 1, 93, 0
7, 280079, Note_on_c, 1, 81, 0
7, 280080, Note_on_c, 1, 77, 76
7, 280080, Note_on_c, 1, 89, 76
7, 280784, Note_on_c, 1, 77, 0
7, 280784, Note_on_c, 1, 89, 0
7, 280800, Note_on_c, 1, 93, 84
7, 280800, Note_on_c, 1, 81, 84
7, 281039, Note_on_c, 1, 93, 0
7, 281039, Note_on_c, 1, 81, 0
7, 281040, Note_on_c, 1, 77, 76
7, 281040, Note_on_c, 1, 89, 76
7, 281264, Note_on_c, 1, 77, 0
7, 281264, Note_on_c, 1, 89, 0
7, 281280, Note_on_c, 1, 81, 84
7, 281280, Note_on_c, 1, 93, 84
7, 281519, Note_on_c, 1, 81, 0
7, 281519, Note_on_c, 1, 93, 0
7, 281520, Note_on_c, 1, 89, 76
7, 281520, Note_on_c, 1, 77, 76
7, 281744, Note_on_c, 1, 89, 0
7, 281744, Note_on_c, 1, 77, 0
7, 281760, Note_on_c, 1, 81, 84
7, 281760, Note_on_c, 1, 93, 84
7, 281999, Note_on_c, 1, 81, 0
7, 281999, Note_on_c, 1, 93, 0
7, 282000, Note_on_c, 1, 77, 76
7, 282000, Note_on_c, 1, 89, 76
7, 282224, Note_on_c, 1, 77, 0
7, 282224, Note_on_c, 1, 89, 0
7, 282240, Note_on_c, 1, 91, 84
7, 282240, Note_on_c, 1, 79, 84
7, 282479, Note_on_c, 1, 91, 0
7, 282479, Note_on_c, 1, 79, 0
7, 282480, Note_on_c, 1, 76, 76
7, 282480, Note_on_c, 1, 88, 76
7, 282704, Note_on_c, 1, 76, 0
7, 282704, Note_on_c, 1, 88, 0
7, 282720, Note_on_c, 1, 93, 84
7, 282720, Note_on_c, 1, 81, 84
7, 282959, Note_on_c, 1, 93, 0
7, 282959, Note_on_c, 1, 81, 0
7, 282960, Note_on_c, 1, 77, 76
7, 282960, Note_on_c, 1, 89, 76
7, 283184, Note_on_c, 1, 77, 0
7, 283184, Note_on_c, 1, 89, 0
7, 283200, Note_on_c, 1, 81, 84
7, 283200, Note_on_c, 1, 93, 84
7, 283439, Note_on_c, 1, 81, 0
7, 283439, Note_on_c, 1, 93, 0
7, 283440, Note_on_c, 1, 89, 76
7, 283440, Note_on_c, 1, 77, 76
7, 283664, Note_on_c, 1, 89, 0
7, 283664, Note_on_c, 1, 77, 0
7, 283680, Note_on_c, 1, 93, 84
7, 283680, Note_on_c, 1, 81, 84
7, 283919, Note_on_c, 1, 93, 0
7, 283919, Note_on_c, 1, 81, 0
7, 283920, Note_on_c, 1, 77, 76
7, 283920, Note_on_c, 1, 89, 76
7, 284144, Note_on_c, 1, 77, 0
7, 284144, Note_on_c, 1, 89, 0
7, 284160, Note_on_c, 1, 79, 84
7, 284160, Note_on_c, 1, 91, 84
7, 284399, Note_on_c, 1, 79, 0
7, 284399, Note_on_c, 1, 91, 0
7, 284400, Note_on_c, 1, 88, 76
7, 284400, Note_on_c, 1, 76, 76
7, 284624, Note_on_c, 1, 88, 0
7, 284624, Note_on_c, 1, 76, 0
7, 284640, Note_on_c, 1, 81, 84
7, 284640, Note_on_c, 1, 93, 84
7, 284879, Note_on_c, 1, 81, 0
7, 284879, Note_on_c, 1, 93, 0
7, 284880, Note_on_c, 1, 89, 76
7, 284880, Note_on_c, 1, 77, 76
7, 285104, Note_on_c, 1, 89, 0
7, 285104, Note_on_c, 1, 77, 0
7, 285120, Note_on_c, 1, 81, 84
7, 285120, Note_on_c, 1, 93, 84
7, 285359, Note_on_c, 1, 81, 0
7, 285359, Note_on_c, 1, 93, 0
7, 285360, Note_on_c, 1, 77, 76
7, 285360, Note_on_c, 1, 89, 76
7, 285584, Note_on_c, 1, 77, 0
7, 285584, Note_on_c, 1, 89, 0
7, 285600, Note_on_c, 1, 89, 84
7, 285600, Note_on_c, 1, 93, 84
7, 286679, Note_on_c, 1, 89, 0
7, 286679, Note_on_c, 1, 93, 0
7, 291360, Note_on_c, 1, 84, 76
7, 291824, Note_on_c, 1, 84, 0
7, 291840, Note_on_c, 1, 84, 76
7, 291840, Note_on_c, 1, 89, 76
7, 291959, Note_on_c, 1, 84, 0
7, 291959, Note_on_c, 1, 89, 0
7, 292080, Note_on_c, 1, 84, 76
7, 292080, Note_on_c, 1, 88, 76
7, 292199, Note_on_c, 1, 84, 0
7, 292199, Note_on_c, 1, 88, 0
7, 293280, Note_on_c, 1, 84, 76
7, 293744, Note_on_c, 1, 84, 0
7, 293760, Note_on_c, 1, 84, 76
7, 293760, Note_on_c, 1, 89, 76
7, 293879, Note_on_c, 1, 84, 0
7, 293879, Note_on_c, 1, 89, 0
7, 294000, Note_on_c, 1, 84, 76
7, 294000, Note_on_c, 1, 88, 76
7, 294119, Note_on_c, 1, 84, 0
7, 294119, Note_on_c, 1, 88, 0
7, 294240, Note_on_c, 1, 89, 76
7, 294240, Note_on_c, 1, 84, 76
7, 294359, Note_on_c, 1, 89, 0
7, 294359, Note_on_c, 1, 84, 0
7, 304800, Note_on_c, 1, 77, 48
7, 304889, Note_on_c, 1, 77, 0
7, 304920, Note_on_c, 1, 79, 48
7, 305009, Note_on_c, 1, 79, 0
7, 305040, Note_on_c, 1, 81, 48
7, 305159, Note_on_c, 1, 81, 0
7, 305160, Note_on_c, 1, 82, 48
7, 305219, Note_on_c, 1, 82, 0
7, 305220, Note_on_c, 1, 81, 48
7, 305271, Note_on_c, 1, 81, 0
7, 305280, Note_on_c, 1, 79, 48
7, 305369, Note_on_c, 1, 79, 0
7, 305400, Note_on_c, 1, 81, 48
7, 305489, Note_on_c, 1, 81, 0
7, 305520, Note_on_c, 1, 82, 48
7, 305639, Note_on_c, 1, 82, 0
7, 305640, Note_on_c, 1, 84, 48
7, 305699, Note_on_c, 1, 84, 0
7, 305700, Note_on_c, 1, 82, 48
7, 305751, Note_on_c, 1, 82, 0
7, 305760, Note_on_c, 1, 81, 48
7, 305849, Note_on_c, 1, 81, 0
7, 305880, Note_on_c, 1, 82, 48
7, 305969, Note_on_c, 1, 82, 0
7, 306000, Note_on_c, 1, 84, 48
7, 306119, Note_on_c, 1, 84, 0
7, 306120, Note_on_c, 1, 86, 48
7, 306179, Note_on_c, 1, 86, 0
7, 306180, Note_on_c, 1, 84, 48
7, 306231, Note_on_c, 1, 84, 0
7, 306240, Note_on_c, 1, 82, 48
7, 306329, Note_on_c, 1, 82, 0
7, 306360, Note_on_c, 1, 84, 48
7, 306449, Note_on_c, 1, 84, 0
7, 306480, Note_on_c, 1, 86, 48
7, 306569, Note_on_c, 1, 86, 0
7, 306600, Note_on_c, 1, 88, 48
7, 306689, Note_on_c, 1, 88, 0
7, 306720, Note_on_c, 1, 89, 48
7, 306839, Note_on_c, 1, 89, 0
7, 308160, Note_on_c, 1, 82, 76
7, 308160, Note_on_c, 1, 70, 76
7, 308249, Note_on_c, 1, 82, 0
7, 308249, Note_on_c, 1, 70, 0
7, 308280, Note_on_c, 1, 84, 76
7, 308280, Note_on_c, 1, 72, 76
7, 308369, Note_on_c, 1, 84, 0
7, 308369, Note_on_c, 1, 72, 0
7, 308400, Note_on_c, 1, 86, 76
7, 308400, Note_on_c, 1, 74, 76
7, 308489, Note_on_c, 1, 86, 0
7, 308489, Note_on_c, 1, 74, 0
7, 308520, Note_on_c, 1, 88, 76
7, 308520, Note_on_c, 1, 76, 76
7, 308609, Note_on_c, 1, 88, 0
7, 308609, Note_on_c, 1, 76, 0
7, 308640, Note_on_c, 1, 89, 84
7, 308640, Note_on_c, 1, 77, 84
7, 308700, Control_c, 1, 11, 112
7, 309104, Note_on_c, 1, 89, 0
7, 309104, Note_on_c, 1, 77, 0
7, 309118, Control_c, 1, 11, 127
7, 309120, Note_on_c, 1, 88, 84
7, 309120, Note_on_c, 1, 84, 84
7, 309180, Control_c, 1, 11, 112
7, 309584, Note_on_c, 1, 88, 0
7, 309584, Note_on_c, 1, 84, 0
7, 309598, Control_c, 1, 11, 127
7, 309600, Note_on_c, 1, 89, 84
7, 309600, Note_on_c, 1, 84, 84
7, 309660, Control_c, 1, 11, 112
7, 310064, Note_on_c, 1, 89, 0
7, 310064, Note_on_c, 1, 84, 0
7, 310078, Control_c, 1, 11, 127
7, 310080, Note_on_c, 1, 89, 76
7, 310080, Note_on_c, 1, 84, 76
7, 310259, Note_on_c, 1, 89, 0
7, 310259, Note_on_c, 1, 84, 0
7, 310320, Note_on_c, 1, 89, 76
7, 310320, Note_on_c, 1, 84, 76
7, 310499, Note_on_c, 1, 89, 0
7, 310499, Note_on_c, 1, 84, 0
7, 310560, Note_on_c, 1, 89, 76
7, 310560, Note_on_c, 1, 84, 76
7, 311024, Note_on_c, 1, 89, 0
7, 311024, Note_on_c, 1, 84, 0
7, 311040, Note_on_c, 1, 89, 52
7, 311504, Note_on_c, 1, 89, 0
7, 311520, Note_on_c, 1, 89, 52
7, 311999, Note_on_c, 1, 89, 0
7, 311999, End_track
8, 0, Start_track
8, 0, Title_t, "Oboe"
8, 0, MIDI_port, 0
8, 0, Program_c, 2, 68
8, 0, Control_c, 2, 7, 80
8, 0, Control_c, 2, 10, 70
8, 0, Control_c, 2, 11, 127
8, 13080, Note_on_c, 2, 74, 52
8, 13139, Note_on_c, 2, 74, 0
8, 13140, Note_on_c, 2, 76, 52
8, 13191, Note_on_c, 2, 76, 0
8, 13200, Note_on_c, 2, 77, 52
8, 13289, Note_on_c, 2, 77, 0
8, 13320, Note_on_c, 2, 79, 52
8, 13409, Note_on_c, 2, 79, 0
8, 13440, Note_on_c, 2, 81, 52
8, 13529, Note_on_c, 2, 81, 0
8, 13560, Note_on_c, 2, 81, 52
8, 13649, Note_on_c, 2, 81, 0
8, 13680, Note_on_c, 2, 82, 52
8, 13769, Note_on_c, 2, 82, 0
8, 13800, Note_on_c, 2, 86, 52
8, 13889, Note_on_c, 2, 86, 0
8, 13920, Note_on_c, 2, 84, 52
8, 14039, Note_on_c, 2, 84, 0
8, 14040, Note_on_c, 2, 82, 52
8, 14099, Note_on_c, 2, 82, 0
8, 14100, Note_on_c, 2, 81, 52
8, 14151, Note_on_c, 2, 81, 0
8, 14160, Note_on_c, 2, 79, 52
8, 14249, Note_on_c, 2, 79, 0
8, 14280, Note_on_c, 2, 72, 52
8, 14369, Note_on_c, 2, 72, 0
8, 14400, Note_on_c, 2, 77, 52
8, 14489, Note_on_c, 2, 77, 0
8, 14520, Note_on_c, 2, 79, 52
8, 14609, Note_on_c, 2, 79, 0
8, 14640, Note_on_c, 2, 81, 52
8, 14640, Note_on_c, 2, 77, 52
8, 14759, Note_on_c, 2, 81, 0
8, 14759, Note_on_c, 2, 77, 0
8, 14760, Note_on_c, 2, 79, 52
8, 14760, Note_on_c, 2, 82, 52
8, 14819, Note_on_c, 2, 79, 0
8, 14819, Note_on_c, 2, 82, 0
8, 14820, Note_on_c, 2, 81, 52
8, 14820, Note_on_c, 2, 77, 52
8, 14871, Note_on_c, 2, 81, 0
8, 14871, Note_on_c, 2, 77, 0
8, 14880, Note_on_c, 2, 76, 52
8, 14880, Note_on_c, 2, 79, 52
8, 14969, Note_on_c, 2, 76, 0
8, 14969, Note_on_c, 2, 79, 0
8, 15000, Note_on_c, 2, 77, 52
8, 15000, Note_on_c, 2, 81, 52
8, 15089, Note_on_c, 2, 77, 0
8, 15089, Note_on_c, 2, 81, 0
8, 15120, Note_on_c, 2, 82, 52
8, 15120, Note_on_c, 2, 79, 52
8, 15239, Note_on_c, 2, 82, 0
8, 15239, Note_on_c, 2, 79, 0
8, 15240, Note_on_c, 2, 81, 52
8, 15240, Note_on_c, 2, 84, 52
8, 15299, Note_on_c, 2, 81, 0
8, 15299, Note_on_c, 2, 84, 0
8, 15300, Note_on_c, 2, 79, 52
8, 15300, Note_on_c, 2, 82, 52
8, 15351, Note_on_c, 2, 79, 0
8, 15351, Note_on_c, 2, 82, 0
8, 15360, Note_on_c, 2, 77, 52
8, 15360, Note_on_c, 2, 81, 52
8, 15464, Note_on_c, 2, 77, 0
8, 15464, Note_on_c, 2, 81, 0
8, 15480, Note_on_c, 2, 84, 53
8, 15480, Note_on_c, 2, 72, 53
8, 15584, Note_on_c, 2, 84, 0
8, 15584, Note_on_c, 2, 72, 0
8, 15600, Note_on_c, 2, 84, 55
8, 15600, Note_on_c, 2, 72, 55
8, 15704, Note_on_c, 2, 84, 0
8, 15704, Note_on_c, 2, 72, 0
8, 15720, Note_on_c, 2, 84, 56
8, 15720, Note_on_c, 2, 72, 56
8, 15824, Note_on_c, 2, 84, 0
8, 15824, Note_on_c, 2, 72, 0
8, 15840, Note_on_c, 2, 84, 58
8, 15840, Note_on_c, 2, 72, 58
8, 15944, Note_on_c, 2, 84, 0
8, 15944, Note_on_c, 2, 72, 0
8, 15960, Note_on_c, 2, 84, 59
8, 15960, Note_on_c, 2, 72, 59
8, 16064, Note_on_c, 2, 84, 0
8, 16064, Note_on_c, 2, 72, 0
8, 16080, Note_on_c, 2, 72, 61
8, 16080, Note_on_c, 2, 84, 61
8, 16184, Note_on_c, 2, 72, 0
8, 16184, Note_on_c, 2, 84, 0
8, 16200, Note_on_c, 2, 84, 62
8, 16200, Note_on_c, 2, 72, 62
8, 16304, Note_on_c, 2, 84, 0
8, 16304, Note_on_c, 2, 72, 0
8, 16320, Note_on_c, 2, 84, 64
8, 16320, Note_on_c, 2, 72, 64
8, 16424, Note_on_c, 2, 84, 0
8, 16424, Note_on_c, 2, 72, 0
8, 16440, Note_on_c, 2, 84, 65
8, 16440, Note_on_c, 2, 72, 65
8, 16544, Note_on_c, 2, 84, 0
8, 16544, Note_on_c, 2, 72, 0
8, 16560, Note_on_c, 2, 72, 67
8, 16560, Note_on_c, 2, 84, 67
8, 16664, Note_on_c, 2, 72, 0
8, 16664, Note_on_c, 2, 84, 0
8, 16680, Note_on_c, 2, 84, 68
8, 16680, Note_on_c, 2, 72, 68
8, 16784, Note_on_c, 2, 84, 0
8, 16784, Note_on_c, 2, 72, 0
8, 16800, Note_on_c, 2, 84, 70
8, 16800, Note_on_c, 2, 72, 70
8, 16904, Note_on_c, 2, 84, 0
8, 16904, Note_on_c, 2, 72, 0
8, 16920, Note_on_c, 2, 84, 71
8, 16920, Note_on_c, 2, 72, 71
8, 17024, Note_on_c, 2, 84, 0
8, 17024, Note_on_c, 2, 72, 0
8, 17040, Note_on_c, 2, 72, 73
8, 17040, Note_on_c, 2, 84, 73
8, 17144, Note_on_c, 2, 72, 0
8, 17144, Note_on_c, 2, 84, 0
8, 17160, Note_on_c, 2, 72, 74
8, 17160, Note_on_c, 2, 84, 74
8, 17264, Note_on_c, 2, 72, 0
8, 17264, Note_on_c, 2, 84, 0
8, 17280, Note_on_c, 2, 72, 76
8, 17280, Note_on_c, 2, 84, 76
8, 17369, Note_on_c, 2, 72, 0
8, 17369, Note_on_c, 2, 84, 0
8, 17400, Note_on_c, 2, 77, 76
8, 17400, Note_on_c, 2, 81, 76
8, 17489, Note_on_c, 2, 77, 0
8, 17489, Note_on_c, 2, 81, 0
8, 17520, Note_on_c, 2, 79, 76
8, 17520, Note_on_c, 2, 82, 76
8, 17609, Note_on_c, 2, 79, 0
8, 17609, Note_on_c, 2, 82, 0
8, 17640, Note_on_c, 2, 86, 76
8, 17640, Note_on_c, 2, 82, 76
8, 17729, Note_on_c, 2, 86, 0
8, 17729, Note_on_c, 2, 82, 0
8, 17760, Note_on_c, 2, 84, 76
8, 17760, Note_on_c, 2, 81, 76
8, 17879, Note_on_c, 2, 84, 0
8, 17879, Note_on_c, 2, 81, 0
8, 17880, Note_on_c, 2, 79, 76
8, 17880, Note_on_c, 2, 82, 76
8, 17939, Note_on_c, 2, 79, 0
8, 17939, Note_on_c, 2, 82, 0
8, 17940, Note_on_c, 2, 77, 76
8, 17940, Note_on_c, 2, 81, 76
8, 17991, Note_on_c, 2, 77, 0
8, 17991, Note_on_c, 2, 81, 0
8, 18000, Note_on_c, 2, 76, 76
8, 18000, Note_on_c, 2, 79, 76
8, 18089, Note_on_c, 2, 76, 0
8, 18089, Note_on_c, 2, 79, 0
8, 18120, Note_on_c, 2, 72, 76
8, 18209, Note_on_c, 2, 72, 0
8, 18240, Note_on_c, 2, 77, 76
8, 18329, Note_on_c, 2, 77, 0
8, 18360, Note_on_c, 2, 79, 76
8, 18360, Note_on_c, 2, 76, 76
8, 18449, Note_on_c, 2, 79, 0
8, 18449, Note_on_c, 2, 76, 0
8, 18480, Note_on_c, 2, 81, 76
8, 18480, Note_on_c, 2, 77, 76
8, 18599, Note_on_c, 2, 81, 0
8, 18599, Note_on_c, 2, 77, 0
8, 18600, Note_on_c, 2, 79, 76
8, 18600, Note_on_c, 2, 82, 76
8, 18659, Note_on_c, 2, 79, 0
8, 18659, Note_on_c, 2, 82, 0
8, 18660, Note_on_c, 2, 77, 76
8, 18660, Note_on_c, 2, 81, 76
8, 18711, Note_on_c, 2, 77, 0
8, 18711, Note_on_c, 2, 81, 0
8, 18720, Note_on_c, 2, 79, 76
8, 18720, Note_on_c, 2, 76, 76
8, 18809, Note_on_c, 2, 79, 0
8, 18809, Note_on_c, 2, 76, 0
8, 18840, Note_on_c, 2, 81, 76
8, 18840, Note_on_c, 2, 77, 76
8, 18929, Note_on_c, 2, 81, 0
8, 18929, Note_on_c, 2, 77, 0
8, 18960, Note_on_c, 2, 79, 76
8, 18960, Note_on_c, 2, 82, 76
8, 19079, Note_on_c, 2, 79, 0
8, 19079, Note_on_c, 2, 82, 0
8, 19080, Note_on_c, 2, 84, 76
8, 19080, Note_on_c, 2, 81, 76
8, 19139, Note_on_c, 2, 84, 0
8, 19139, Note_on_c, 2, 81, 0
8, 19140, Note_on_c, 2, 79, 76
8, 19140, Note_on_c, 2, 82, 76
8, 19191, Note_on_c, 2, 79, 0
8, 19191, Note_on_c, 2, 82, 0
8, 19200, Note_on_c, 2, 77, 76
8, 19200, Note_on_c, 2, 81, 76
8, 19319, Note_on_c, 2, 77, 0
8, 19319, Note_on_c, 2, 81, 0
8, 19320, Note_on_c, 2, 81, 76
8, 19320, Note_on_c, 2, 84, 76
8, 19424, Note_on_c, 2, 81, 0
8, 19424, Note_on_c, 2, 84, 0
8, 19440, Note_on_c, 2, 84, 76
8, 19440, Note_on_c, 2, 81, 76
8, 19529, Note_on_c, 2, 84, 0
8, 19529, Note_on_c, 2, 81, 0
8, 19560, Note_on_c, 2, 84, 76
8, 19560, Note_on_c, 2, 81, 76
8, 19649, Note_on_c, 2, 84, 0
8, 19649, Note_on_c, 2, 81, 0
8, 19680, Note_on_c, 2, 84, 76
8, 19680, Note_on_c, 2, 81, 76
8, 19919, Note_on_c, 2, 84, 0
8, 19919, Note_on_c, 2, 81, 0
8, 19920, Note_on_c, 2, 79, 76
8, 19920, Note_on_c, 2, 82, 76
8, 19979, Note_on_c, 2, 79, 0
8, 19979, Note_on_c, 2, 82, 0
8, 19980, Note_on_c, 2, 77, 76
8, 19980, Note_on_c, 2, 81, 76
8, 20039, Note_on_c, 2, 77, 0
8, 20039, Note_on_c, 2, 81, 0
8, 20040, Note_on_c, 2, 76, 76
8, 20040, Note_on_c, 2, 79, 76
8, 20099, Note_on_c, 2, 76, 0
8, 20099, Note_on_c, 2, 79, 0
8, 20100, Note_on_c, 2, 74, 76
8, 20100, Note_on_c, 2, 77, 76
8, 20151, Note_on_c, 2, 74, 0
8, 20151, Note_on_c, 2, 77, 0
8, 20160, Note_on_c, 2, 72, 76
8, 20160, Note_on_c, 2, 76, 76
8, 20249, Note_on_c, 2, 72, 0
8, 20249, Note_on_c, 2, 76, 0
8, 20280, Note_on_c, 2, 74, 76
8, 20280, Note_on_c, 2, 77, 76
8, 20369, Note_on_c, 2, 74, 0
8, 20369, Note_on_c, 2, 77, 0
8, 20400, Note_on_c, 2, 76, 76
8, 20400, Note_on_c, 2, 79, 76
8, 20519, Note_on_c, 2, 76, 0
8, 20519, Note_on_c, 2, 79, 0
8, 20520, Note_on_c, 2, 77, 76
8, 20520, Note_on_c, 2, 81, 76
8, 20579, Note_on_c, 2, 77, 0
8, 20579, Note_on_c, 2, 81, 0
8, 20580, Note_on_c, 2, 76, 76
8, 20580, Note_on_c, 2, 79, 76
8, 20631, Note_on_c, 2, 76, 0
8, 20631, Note_on_c, 2, 79, 0
8, 20640, Note_on_c, 2, 77, 76
8, 20640, Note_on_c, 2, 74, 76
8, 20729, Note_on_c, 2, 77, 0
8, 20729, Note_on_c, 2, 74, 0
8, 20760, Note_on_c, 2, 76, 76
8, 20760, Note_on_c, 2, 79, 76
8, 20849, Note_on_c, 2, 76, 0
8, 20849, Note_on_c, 2, 79, 0
8, 20880, Note_on_c, 2, 77, 76
8, 20880, Note_on_c, 2, 81, 76
8, 20999, Note_on_c, 2, 77, 0
8, 20999, Note_on_c, 2, 81, 0
8, 21000, Note_on_c, 2, 79, 76
8, 21000, Note_on_c, 2, 82, 76
8, 21059, Note_on_c, 2, 79, 0
8, 21059, Note_on_c, 2, 82, 0
8, 21060, Note_on_c, 2, 81, 76
8, 21060, Note_on_c, 2, 77, 76
8, 21111, Note_on_c, 2, 81, 0
8, 21111, Note_on_c, 2, 77, 0
8, 21120, Note_on_c, 2, 76, 76
8, 21120, Note_on_c, 2, 79, 76
8, 21239, Note_on_c, 2, 76, 0
8, 21239, Note_on_c, 2, 79, 0
8, 21240, Note_on_c, 2, 82, 76
8, 21240, Note_on_c, 2, 79, 76
8, 21344, Note_on_c, 2, 82, 0
8, 21344, Note_on_c, 2, 79, 0
8, 21360, Note_on_c, 2, 82, 76
8, 21360, Note_on_c, 2, 79, 76
8, 21449, Note_on_c, 2, 82, 0
8, 21449, Note_on_c, 2, 79, 0
8, 21480, Note_on_c, 2, 82, 76
8, 21480, Note_on_c, 2, 79, 76
8, 21569, Note_on_c, 2, 82, 0
8, 21569, Note_on_c, 2, 79, 0
8, 21600, Note_on_c, 2, 79, 76
8, 21600, Note_on_c, 2, 82, 76
8, 21839, Note_on_c, 2, 79, 0
8, 21839, Note_on_c, 2, 82, 0
8, 21840, Note_on_c, 2, 81, 76
8, 21840, Note_on_c, 2, 84, 76
8, 21899, Note_on_c, 2, 81, 0
8, 21899, Note_on_c, 2, 84, 0
8, 21900, Note_on_c, 2, 79, 76
8, 21900, Note_on_c, 2, 82, 76
8, 21959, Note_on_c, 2, 79, 0
8, 21959, Note_on_c, 2, 82, 0
8, 21960, Note_on_c, 2, 77, 76
8, 21960, Note_on_c, 2, 81, 76
8, 22019, Note_on_c, 2, 77, 0
8, 22019, Note_on_c, 2, 81, 0
8, 22020, Note_on_c, 2, 76, 76
8, 22020, Note_on_c, 2, 79, 76
8, 22071, Note_on_c, 2, 76, 0
8, 22071, Note_on_c, 2, 79, 0
8, 22080, Note_on_c, 2, 81, 76
8, 22080, Note_on_c, 2, 77, 76
8, 22169, Note_on_c, 2, 81, 0
8, 22169, Note_on_c, 2, 77, 0
8, 22200, Note_on_c, 2, 79, 76
8, 22200, Note_on_c, 2, 82, 76
8, 22289, Note_on_c, 2, 79, 0
8, 22289, Note_on_c, 2, 82, 0
8, 22320, Note_on_c, 2, 81, 76
8, 22320, Note_on_c, 2, 84, 76
8, 22544, Note_on_c, 2, 81, 0
8, 22544, Note_on_c, 2, 84, 0
8, 22560, Note_on_c, 2, 79, 76
8, 22560, Note_on_c, 2, 82, 76
8, 22679, Note_on_c, 2, 79, 0
8, 22679, Note_on_c, 2, 82, 0
8, 22680, Note_on_c, 2, 76, 76
8, 22680, Note_on_c, 2, 79, 76
8, 22799, Note_on_c, 2, 76, 0
8, 22799, Note_on_c, 2, 79, 0
8, 22800, Note_on_c, 2, 82, 76
8, 22800, Note_on_c, 2, 79, 76
8, 22919, Note_on_c, 2, 82, 0
8, 22919, Note_on_c, 2, 79, 0
8, 22920, Note_on_c, 2, 76, 76
8, 22920, Note_on_c, 2, 79, 76
8, 23024, Note_on_c, 2, 76, 0
8, 23024, Note_on_c, 2, 79, 0
8, 23040, Note_on_c, 2, 77, 76
8, 23040, Note_on_c, 2, 81, 76
8, 23129, Note_on_c, 2, 77, 0
8, 23129, Note_on_c, 2, 81, 0
8, 23160, Note_on_c, 2, 82, 76
8, 23160, Note_on_c, 2, 79, 76
8, 23249, Note_on_c, 2, 82, 0
8, 23249, Note_on_c, 2, 79, 0
8, 23280, Note_on_c, 2, 81, 76
8, 23280, Note_on_c, 2, 84, 76
8, 23504, Note_on_c, 2, 81, 0
8, 23504, Note_on_c, 2, 84, 0
8, 23520, Note_on_c, 2, 79, 76
8, 23520, Note_on_c, 2, 82, 76
8, 23639, Note_on_c, 2, 79, 0
8, 23639, Note_on_c, 2, 82, 0
8, 23640, Note_on_c, 2, 76, 76
8, 23640, Note_on_c, 2, 79, 76
8, 23759, Note_on_c, 2, 76, 0
8, 23759, Note_on_c, 2, 79, 0
8, 23760, Note_on_c, 2, 79, 76
8, 23760, Note_on_c, 2, 82, 76
8, 23879, Note_on_c, 2, 79, 0
8, 23879, Note_on_c, 2, 82, 0
8, 23880, Note_on_c, 2, 76, 76
8, 23880, Note_on_c, 2, 79, 76
8, 23984, Note_on_c, 2, 76, 0
8, 23984, Note_on_c, 2, 79, 0
8, 24000, Note_on_c, 2, 77, 76
8, 24000, Note_on_c, 2, 81, 76
8, 24119, Note_on_c, 2, 77, 0
8, 24119, Note_on_c, 2, 81, 0
8, 24120, Note_on_c, 2, 76, 76
8, 24120, Note_on_c, 2, 79, 76
8, 24239, Note_on_c, 2, 76, 0
8, 24239, Note_on_c, 2, 79, 0
8, 24240, Note_on_c, 2, 79, 76
8, 24240, Note_on_c, 2, 82, 76
8, 24359, Note_on_c, 2, 79, 0
8, 24359, Note_on_c, 2, 82, 0
8, 24360, Note_on_c, 2, 76, 76
8, 24360, Note_on_c, 2, 79, 76
8, 24464, Note_on_c, 2, 76, 0
8, 24464, Note_on_c, 2, 79, 0
8, 24480, Note_on_c, 2, 77, 76
8, 24480, Note_on_c, 2, 81, 76
8, 24599, Note_on_c, 2, 77, 0
8, 24599, Note_on_c, 2, 81, 0
8, 24600, Note_on_c, 2, 76, 76
8, 24600, Note_on_c, 2, 79, 76
8, 24719, Note_on_c, 2, 76, 0
8, 24719, Note_on_c, 2, 79, 0
8, 24720, Note_on_c, 2, 82, 76
8, 24720, Note_on_c, 2, 79, 76
8, 24839, Note_on_c, 2, 82, 0
8, 24839, Note_on_c, 2, 79, 0
8, 24840, Note_on_c, 2, 79, 76
8, 24840, Note_on_c, 2, 76, 76
8, 24944, Note_on_c, 2, 79, 0
8, 24944, Note_on_c, 2, 76, 0
8, 24960, Note_on_c, 2, 77, 76
8, 24960, Note_on_c, 2, 81, 76
8, 25079, Note_on_c, 2, 77, 0
8, 25079, Note_on_c, 2, 81, 0
8, 41586, Control_c, 2, 11, 113
8, 41760, Note_on_c, 2, 79, 76
8, 41760, Note_on_c, 2, 67, 76
8, 41770, Control_c, 2, 11, 114
8, 41954, Control_c, 2, 11, 115
8, 42138, Control_c, 2, 11, 116
8, 42322, Control_c, 2, 11, 117
8, 42506, Control_c, 2, 11, 118
8, 42689, Control_c, 2, 11, 119
8, 42704, Note_on_c, 2, 79, 0
8, 42704, Note_on_c, 2, 67, 0
8, 42720, Note_on_c, 2, 72, 76
8, 42720, Note_on_c, 2, 84, 76
8, 42873, Control_c, 2, 11, 120
8, 43057, Control_c, 2, 11, 121
8, 43184, Note_on_c, 2, 72, 0
8, 43184, Note_on_c, 2, 84, 0
8, 43200, Note_on_c, 2, 81, 76
8, 43241, Control_c, 2, 11, 122
8, 43319, Note_on_c, 2, 81, 0
8, 43320, Note_on_c, 2, 79, 76
8, 43425, Control_c, 2, 11, 123
8, 43439, Note_on_c, 2, 79, 0
8, 43440, Note_on_c, 2, 77, 76
8, 43559, Note_on_c, 2, 77, 0
8, 43560, Note_on_c, 2, 74, 76
8, 43609, Control_c, 2, 11, 124
8, 43679, Note_on_c, 2, 74, 0
8, 43680, Note_on_c, 2, 67, 76
8, 43792, Control_c, 2, 11, 125
8, 43799, Note_on_c, 2, 67, 0
8, 43800, Note_on_c, 2, 77, 76
8, 43919, Note_on_c, 2, 77, 0
8, 43920, Note_on_c, 2, 74, 76
8, 43976, Control_c, 2, 11, 126
8, 44039, Note_on_c, 2, 74, 0
8, 44040, Note_on_c, 2, 67, 76
8, 44144, Note_on_c, 2, 67, 0
8, 44160, Note_on_c, 2, 79, 76
8, 44160, Note_on_c, 2, 76, 76
8, 44279, Note_on_c, 2, 79, 0
8, 44279, Note_on_c, 2, 76, 0
8, 45600, Note_on_c, 2, 84, 76
8, 45600, Note_on_c, 2, 81, 76
8, 45719, Note_on_c, 2, 84, 0
8, 45719, Note_on_c, 2, 81, 0
8, 46080, Note_on_c, 2, 81, 48
8, 46080, Note_on_c, 2, 84, 48
8, 46319, Note_on_c, 2, 81, 0
8, 46319, Note_on_c, 2, 84, 0
8, 46320, Note_on_c, 2, 83, 48
8, 46320, Note_on_c, 2, 79, 48
8, 46439, Note_on_c, 2, 83, 0
8, 46439, Note_on_c, 2, 79, 0
8, 46440, Note_on_c, 2, 81, 48
8, 46440, Note_on_c, 2, 77, 48
8, 46544, Note_on_c, 2, 81, 0
8, 46544, Note_on_c, 2, 77, 0
8, 46560, Note_on_c, 2, 79, 48
8, 46560, Note_on_c, 2, 76, 48
8, 46799, Note_on_c, 2, 79, 0
8, 46799, Note_on_c, 2, 76, 0
8, 46800, Note_on_c, 2, 77, 48
8, 46800, Note_on_c, 2, 74, 48
8, 46919, Note_on_c, 2, 77, 0
8, 46919, Note_on_c, 2, 74, 0
8, 46920, Note_on_c, 2, 72, 48
8, 46920, Note_on_c, 2, 76, 48
8, 47024, Note_on_c, 2, 72, 0
8, 47024, Note_on_c, 2, 76, 0
8, 47040, Note_on_c, 2, 72, 48
8, 47040, Note_on_c, 2, 76, 48
8, 47159, Note_on_c, 2, 72, 0
8, 47159, Note_on_c, 2, 76, 0
8, 47160, Note_on_c, 2, 74, 48
8, 47160, Note_on_c, 2, 71, 48
8, 47279, Note_on_c, 2, 74, 0
8, 47279, Note_on_c, 2, 71, 0
8, 47280, Note_on_c, 2, 69, 48
8, 47280, Note_on_c, 2, 72, 48
8, 47399, Note_on_c, 2, 69, 0
8, 47399, Note_on_c, 2, 72, 0
8, 47400, Note_on_c, 2, 74, 48
8, 47400, Note_on_c, 2, 71, 48
8, 47504, Note_on_c, 2, 74, 0
8, 47504, Note_on_c, 2, 71, 0
8, 47520, Note_on_c, 2, 76, 76
8, 47520, Note_on_c, 2, 72, 76
8, 47639, Note_on_c, 2, 76, 0
8, 47639, Note_on_c, 2, 72, 0
8, 48960, Note_on_c, 2, 81, 76
8, 48960, Note_on_c, 2, 84, 76
8, 49079, Note_on_c, 2, 81, 0
8, 49079, Note_on_c, 2, 84, 0
8, 49440, Note_on_c, 2, 84, 52
8, 49440, Note_on_c, 2, 81, 52
8, 49679, Note_on_c, 2, 84, 0
8, 49679, Note_on_c, 2, 81, 0
8, 49680, Note_on_c, 2, 83, 52
8, 49680, Note_on_c, 2, 79, 52
8, 49799, Note_on_c, 2, 83, 0
8, 49799, Note_on_c, 2, 79, 0
8, 49800, Note_on_c, 2, 81, 52
8, 49800, Note_on_c, 2, 77, 52
8, 49904, Note_on_c, 2, 81, 0
8, 49904, Note_on_c, 2, 77, 0
8, 49920, Note_on_c, 2, 79, 52
8, 49920, Note_on_c, 2, 76, 52
8, 50159, Note_on_c, 2, 79, 0
8, 50159, Note_on_c, 2, 76, 0
8, 50160, Note_on_c, 2, 74, 52
8, 50160, Note_on_c, 2, 77, 52
8, 50279, Note_on_c, 2, 74, 0
8, 50279, Note_on_c, 2, 77, 0
8, 50280, Note_on_c, 2, 76, 52
8, 50280, Note_on_c, 2, 72, 52
8, 50384, Note_on_c, 2, 76, 0
8, 50384, Note_on_c, 2, 72, 0
8, 50400, Note_on_c, 2, 76, 52
8, 50400, Note_on_c, 2, 72, 52
8, 50519, Note_on_c, 2, 76, 0
8, 50519, Note_on_c, 2, 72, 0
8, 50520, Note_on_c, 2, 74, 52
8, 50520, Note_on_c, 2, 71, 52
8, 50639, Note_on_c, 2, 74, 0
8, 50639, Note_on_c, 2, 71, 0
8, 50640, Note_on_c, 2, 69, 52
8, 50640, Note_on_c, 2, 72, 52
8, 50759, Note_on_c, 2, 69, 0
8, 50759, Note_on_c, 2, 72, 0
8, 50760, Note_on_c, 2, 74, 52
8, 50760, Note_on_c, 2, 71, 52
8, 50864, Note_on_c, 2, 74, 0
8, 50864, Note_on_c, 2, 71, 0
8, 50880, Note_on_c, 2, 76, 52
8, 50880, Note_on_c, 2, 72, 52
8, 50984, Note_on_c, 2, 72, 0
8, 50999, Note_on_c, 2, 76, 0
8, 51000, Note_on_c, 2, 72, 53
8, 51104, Note_on_c, 2, 72, 0
8, 51120, Note_on_c, 2, 72, 55
8, 51120, Note_on_c, 2, 84, 55
8, 51209, Note_on_c, 2, 84, 0
8, 51224, Note_on_c, 2, 72, 0
8, 51240, Note_on_c, 2, 84, 56
8, 51240, Note_on_c, 2, 72, 56
8, 51329, Note_on_c, 2, 84, 0
8, 51344, Note_on_c, 2, 72, 0
8, 51360, Note_on_c, 2, 81, 58
8, 51360, Note_on_c, 2, 84, 58
8, 51449, Note_on_c, 2, 81, 0
8, 51449, Note_on_c, 2, 84, 0
8, 51480, Note_on_c, 2, 81, 59
8, 51480, Note_on_c, 2, 84, 59
8, 51599, Note_on_c, 2, 81, 0
8, 51599, Note_on_c, 2, 84, 0
8, 51600, Note_on_c, 2, 83, 61
8, 51600, Note_on_c, 2, 79, 61
8, 51719, Note_on_c, 2, 83, 0
8, 51719, Note_on_c, 2, 79, 0
8, 51720, Note_on_c, 2, 81, 62
8, 51720, Note_on_c, 2, 77, 62
8, 51824, Note_on_c, 2, 81, 0
8, 51824, Note_on_c, 2, 77, 0
8, 51840, Note_on_c, 2, 79, 64
8, 51840, Note_on_c, 2, 76, 64
8, 51929, Note_on_c, 2, 79, 0
8, 51929, Note_on_c, 2, 76, 0
8, 51960, Note_on_c, 2, 79, 65
8, 51960, Note_on_c, 2, 76, 65
8, 52079, Note_on_c, 2, 79, 0
8, 52079, Note_on_c, 2, 76, 0
8, 52080, Note_on_c, 2, 74, 67
8, 52080, Note_on_c, 2, 77, 67
8, 52199, Note_on_c, 2, 74, 0
8, 52199, Note_on_c, 2, 77, 0
8, 52200, Note_on_c, 2, 72, 68
8, 52200, Note_on_c, 2, 76, 68
8, 52304, Note_on_c, 2, 72, 0
8, 52304, Note_on_c, 2, 76, 0
8, 52320, Note_on_c, 2, 72, 70
8, 52320, Note_on_c, 2, 76, 70
8, 52439, Note_on_c, 2, 72, 0
8, 52439, Note_on_c, 2, 76, 0
8, 52440, Note_on_c, 2, 74, 71
8, 52440, Note_on_c, 2, 71, 71
8, 52559, Note_on_c, 2, 74, 0
8, 52559, Note_on_c, 2, 71, 0
8, 52560, Note_on_c, 2, 72, 73
8, 52560, Note_on_c, 2, 69, 73
8, 52679, Note_on_c, 2, 72, 0
8, 52679, Note_on_c, 2, 69, 0
8, 52680, Note_on_c, 2, 71, 74
8, 52680, Note_on_c, 2, 74, 74
8, 52784, Note_on_c, 2, 71, 0
8, 52784, Note_on_c, 2, 74, 0
8, 52800, Note_on_c, 2, 76, 76
8, 52800, Note_on_c, 2, 72, 76
8, 52919, Note_on_c, 2, 76, 0
8, 52919, Note_on_c, 2, 72, 0
8, 53040, Note_on_c, 2, 79, 76
8, 53040, Note_on_c, 2, 84, 76
8, 53159, Note_on_c, 2, 79, 0
8, 53159, Note_on_c, 2, 84, 0
8, 53280, Note_on_c, 2, 84, 76
8, 53280, Note_on_c, 2, 81, 76
8, 53399, Note_on_c, 2, 84, 0
8, 53399, Note_on_c, 2, 81, 0
8, 53520, Note_on_c, 2, 84, 76
8, 53520, Note_on_c, 2, 81, 76
8, 53639, Note_on_c, 2, 84, 0
8, 53639, Note_on_c, 2, 81, 0
8, 53760, Note_on_c, 2, 84, 76
8, 53760, Note_on_c, 2, 79, 76
8, 53879, Note_on_c, 2, 84, 0
8, 53879, Note_on_c, 2, 79, 0
8, 54000, Note_on_c, 2, 79, 76
8, 54000, Note_on_c, 2, 76, 76
8, 54119, Note_on_c, 2, 79, 0
8, 54119, Note_on_c, 2, 76, 0
8, 54240, Note_on_c, 2, 79, 76
8, 54240, Note_on_c, 2, 74, 76
8, 54359, Note_on_c, 2, 79, 0
8, 54359, Note_on_c, 2, 74, 0
8, 54480, Note_on_c, 2, 74, 76
8, 54480, Note_on_c, 2, 83, 76
8, 54599, Note_on_c, 2, 74, 0
8, 54599, Note_on_c, 2, 83, 0
8, 54720, Note_on_c, 2, 84, 76
8, 54720, Note_on_c, 2, 72, 76
8, 54959, Note_on_c, 2, 84, 0
8, 54959, Note_on_c, 2, 72, 0
8, 54960, Note_on_c, 2, 67, 76
8, 54960, Note_on_c, 2, 79, 76
8, 55664, Note_on_c, 2, 67, 0
8, 55664, Note_on_c, 2, 79, 0
8, 55680, Note_on_c, 2, 76, 76
8, 55919, Note_on_c, 2, 76, 0
8, 55920, Note_on_c, 2, 72, 76
8, 56624, Note_on_c, 2, 72, 0
8, 56640, Note_on_c, 2, 72, 76
8, 56640, Note_on_c, 2, 84, 76
8, 56879, Note_on_c, 2, 72, 0
8, 56879, Note_on_c, 2, 84, 0
8, 56880, Note_on_c, 2, 79, 76
8, 56880, Note_on_c, 2, 67, 76
8, 57584, Note_on_c, 2, 79, 0
8, 57584, Note_on_c, 2, 67, 0
8, 57600, Note_on_c, 2, 76, 76
8, 57839, Note_on_c, 2, 76, 0
8, 57840, Note_on_c, 2, 72, 76
8, 58544, Note_on_c, 2, 72, 0
8, 58560, Note_on_c, 2, 72, 76
8, 58799, Note_on_c, 2, 72, 0
8, 58800, Note_on_c, 2, 67, 73
8, 59039, Note_on_c, 2, 67, 0
8, 59040, Note_on_c, 2, 72, 70
8, 59279, Note_on_c, 2, 72, 0
8, 59280, Note_on_c, 2, 67, 67
8, 59519, Note_on_c, 2, 67, 0
8, 59520, Note_on_c, 2, 72, 64
8, 59759, Note_on_c, 2, 72, 0
8, 59760, Note_on_c, 2, 67, 61
8, 59999, Note_on_c, 2, 67, 0
8, 60000, Note_on_c, 2, 72, 58
8, 60239, Note_on_c, 2, 72, 0
8, 60240, Note_on_c, 2, 67, 55
8, 60479, Note_on_c, 2, 67, 0
8, 60480, Note_on_c, 2, 72, 52
8, 60569, Note_on_c, 2, 72, 0
8, 79320, Note_on_c, 2, 74, 52
8, 79379, Note_on_c, 2, 74, 0
8, 79380, Note_on_c, 2, 76, 52
8, 79431, Note_on_c, 2, 76, 0
8, 79440, Note_on_c, 2, 77, 52
8, 79529, Note_on_c, 2, 77, 0
8, 79560, Note_on_c, 2, 79, 52
8, 79649, Note_on_c, 2, 79, 0
8, 79680, Note_on_c, 2, 81, 52
8, 79769, Note_on_c, 2, 81, 0
8, 79800, Note_on_c, 2, 81, 52
8, 79889, Note_on_c, 2, 81, 0
8, 79920, Note_on_c, 2, 82, 52
8, 80009, Note_on_c, 2, 82, 0
8, 80040, Note_on_c, 2, 86, 52
8, 80129, Note_on_c, 2, 86, 0
8, 80160, Note_on_c, 2, 84, 52
8, 80279, Note_on_c, 2, 84, 0
8, 80280, Note_on_c, 2, 82, 52
8, 80339, Note_on_c, 2, 82, 0
8, 80340, Note_on_c, 2, 81, 52
8, 80391, Note_on_c, 2, 81, 0
8, 80400, Note_on_c, 2, 79, 52
8, 80489, Note_on_c, 2, 79, 0
8, 80520, Note_on_c, 2, 72, 52
8, 80609, Note_on_c, 2, 72, 0
8, 80640, Note_on_c, 2, 77, 52
8, 80729, Note_on_c, 2, 77, 0
8, 80760, Note_on_c, 2, 79, 52
8, 80849, Note_on_c, 2, 79, 0
8, 80880, Note_on_c, 2, 77, 52
8, 80880, Note_on_c, 2, 81, 52
8, 80999, Note_on_c, 2, 77, 0
8, 80999, Note_on_c, 2, 81, 0
8, 81000, Note_on_c, 2, 79, 52
8, 81000, Note_on_c, 2, 82, 52
8, 81059, Note_on_c, 2, 79, 0
8, 81059, Note_on_c, 2, 82, 0
8, 81060, Note_on_c, 2, 77, 52
8, 81060, Note_on_c, 2, 81, 52
8, 81111, Note_on_c, 2, 77, 0
8, 81111, Note_on_c, 2, 81, 0
8, 81120, Note_on_c, 2, 79, 52
8, 81120, Note_on_c, 2, 76, 52
8, 81209, Note_on_c, 2, 79, 0
8, 81209, Note_on_c, 2, 76, 0
8, 81240, Note_on_c, 2, 77, 52
8, 81240, Note_on_c, 2, 81, 52
8, 81329, Note_on_c, 2, 77, 0
8, 81329, Note_on_c, 2, 81, 0
8, 81360, Note_on_c, 2, 79, 52
8, 81360, Note_on_c, 2, 82, 52
8, 81479, Note_on_c, 2, 79, 0
8, 81479, Note_on_c, 2, 82, 0
8, 81480, Note_on_c, 2, 81, 52
8, 81480, Note_on_c, 2, 84, 52
8, 81539, Note_on_c, 2, 81, 0
8, 81539, Note_on_c, 2, 84, 0
8, 81540, Note_on_c, 2, 79, 52
8, 81540, Note_on_c, 2, 82, 52
8, 81591, Note_on_c, 2, 79, 0
8, 81591, Note_on_c, 2, 82, 0
8, 81600, Note_on_c, 2, 81, 52
8, 81600, Note_on_c, 2, 77, 52
8, 81704, Note_on_c, 2, 81, 0
8, 81704, Note_on_c, 2, 77, 0
8, 81720, Note_on_c, 2, 84, 53
8, 81720, Note_on_c, 2, 72, 53
8, 81824, Note_on_c, 2, 84, 0
8, 81824, Note_on_c, 2, 72, 0
8, 81840, Note_on_c, 2, 72, 55
8, 81840, Note_on_c, 2, 84, 55
8, 81944, Note_on_c, 2, 72, 0
8, 81944, Note_on_c, 2, 84, 0
8, 81960, Note_on_c, 2, 72, 56
8, 81960, Note_on_c, 2, 84, 56
8, 82064, Note_on_c, 2, 72, 0
8, 82064, Note_on_c, 2, 84, 0
8, 82080, Note_on_c, 2, 84, 58
8, 82080, Note_on_c, 2, 72, 58
8, 82184, Note_on_c, 2, 84, 0
8, 82184, Note_on_c, 2, 72, 0
8, 82200, Note_on_c, 2, 72, 59
8, 82200, Note_on_c, 2, 84, 59
8, 82304, Note_on_c, 2, 72, 0
8, 82304, Note_on_c, 2, 84, 0
8, 82320, Note_on_c, 2, 72, 61
8, 82320, Note_on_c, 2, 84, 61
8, 82424, Note_on_c, 2, 72, 0
8, 82424, Note_on_c, 2, 84, 0
8, 82440, Note_on_c, 2, 72, 62
8, 82440, Note_on_c, 2, 84, 62
8, 82544, Note_on_c, 2, 72, 0
8, 82544, Note_on_c, 2, 84, 0
8, 82560, Note_on_c, 2, 84, 64
8, 82560, Note_on_c, 2, 72, 64
8, 82664, Note_on_c, 2, 84, 0
8, 82664, Note_on_c, 2, 72, 0
8, 82680, Note_on_c, 2, 72, 65
8, 82680, Note_on_c, 2, 84, 65
8, 82784, Note_on_c, 2, 72, 0
8, 82784, Note_on_c, 2, 84, 0
8, 82800, Note_on_c, 2, 84, 67
8, 82800, Note_on_c, 2, 72, 67
8, 82904, Note_on_c, 2, 84, 0
8, 82904, Note_on_c, 2, 72, 0
8, 82920, Note_on_c, 2, 84, 68
8, 82920, Note_on_c, 2, 72, 68
8, 83024, Note_on_c, 2, 84, 0
8, 83024, Note_on_c, 2, 72, 0
8, 83040, Note_on_c, 2, 84, 70
8, 83040, Note_on_c, 2, 72, 70
8, 83144, Note_on_c, 2, 84, 0
8, 83144, Note_on_c, 2, 72, 0
8, 83160, Note_on_c, 2, 72, 71
8, 83160, Note_on_c, 2, 84, 71
8, 83264, Note_on_c, 2, 72, 0
8, 83264, Note_on_c, 2, 84, 0
8, 83280, Note_on_c, 2, 72, 73
8, 83280, Note_on_c, 2, 84, 73
8, 83384, Note_on_c, 2, 72, 0
8, 83384, Note_on_c, 2, 84, 0
8, 83400, Note_on_c, 2, 72, 74
8, 83400, Note_on_c, 2, 84, 74
8, 83504, Note_on_c, 2, 72, 0
8, 83504, Note_on_c, 2, 84, 0
8, 83520, Note_on_c, 2, 72, 76
8, 83520, Note_on_c, 2, 84, 76
8, 83609, Note_on_c, 2, 72, 0
8, 83609, Note_on_c, 2, 84, 0
8, 83640, Note_on_c, 2, 81, 76
8, 83640, Note_on_c, 2, 77, 76
8, 83729, Note_on_c, 2, 81, 0
8, 83729, Note_on_c, 2, 77, 0
8, 83760, Note_on_c, 2, 79, 76
8, 83760, Note_on_c, 2, 82, 76
8, 83849, Note_on_c, 2, 79, 0
8, 83849, Note_on_c, 2, 82, 0
8, 83880, Note_on_c, 2, 82, 76
8, 83880, Note_on_c, 2, 86, 76
8, 83969, Note_on_c, 2, 82, 0
8, 83969, Note_on_c, 2, 86, 0
8, 84000, Note_on_c, 2, 84, 76
8, 84000, Note_on_c, 2, 81, 76
8, 84119, Note_on_c, 2, 84, 0
8, 84119, Note_on_c, 2, 81, 0
8, 84120, Note_on_c, 2, 79, 76
8, 84120, Note_on_c, 2, 82, 76
8, 84179, Note_on_c, 2, 79, 0
8, 84179, Note_on_c, 2, 82, 0
8, 84180, Note_on_c, 2, 81, 76
8, 84180, Note_on_c, 2, 77, 76
8, 84231, Note_on_c, 2, 81, 0
8, 84231, Note_on_c, 2, 77, 0
8, 84240, Note_on_c, 2, 76, 76
8, 84240, Note_on_c, 2, 79, 76
8, 84329, Note_on_c, 2, 76, 0
8, 84329, Note_on_c, 2, 79, 0
8, 84360, Note_on_c, 2, 72, 76
8, 84449, Note_on_c, 2, 72, 0
8, 84480, Note_on_c, 2, 77, 76
8, 84569, Note_on_c, 2, 77, 0
8, 84600, Note_on_c, 2, 79, 76
8, 84600, Note_on_c, 2, 76, 76
8, 84689, Note_on_c, 2, 79, 0
8, 84689, Note_on_c, 2, 76, 0
8, 84720, Note_on_c, 2, 77, 76
8, 84720, Note_on_c, 2, 81, 76
8, 84839, Note_on_c, 2, 77, 0
8, 84839, Note_on_c, 2, 81, 0
8, 84840, Note_on_c, 2, 79, 76
8, 84840, Note_on_c, 2, 82, 76
8, 84899, Note_on_c, 2, 79, 0
8, 84899, Note_on_c, 2, 82, 0
8, 84900, Note_on_c, 2, 81, 76
8, 84900, Note_on_c, 2, 77, 76
8, 84951, Note_on_c, 2, 81, 0
8, 84951, Note_on_c, 2, 77, 0
8, 84960, Note_on_c, 2, 79, 76
8, 84960, Note_on_c, 2, 76, 76
8, 85049, Note_on_c, 2, 79, 0
8, 85049, Note_on_c, 2, 76, 0
8, 85080, Note_on_c, 2, 81, 76
8, 85080, Note_on_c, 2, 77, 76
8, 85169, Note_on_c, 2, 81, 0
8, 85169, Note_on_c, 2, 77, 0
8, 85200, Note_on_c, 2, 79, 76
8, 85200, Note_on_c, 2, 82, 76
8, 85319, Note_on_c, 2, 79, 0
8, 85319, Note_on_c, 2, 82, 0
8, 85320, Note_on_c, 2, 84, 76
8, 85320, Note_on_c, 2, 81, 76
8, 85379, Note_on_c, 2, 84, 0
8, 85379, Note_on_c, 2, 81, 0
8, 85380, Note_on_c, 2, 79, 76
8, 85380, Note_on_c, 2, 82, 76
8, 85431, Note_on_c, 2, 79, 0
8, 85431, Note_on_c, 2, 82, 0
8, 85440, Note_on_c, 2, 77, 76
8, 85440, Note_on_c, 2, 81, 76
8, 85559, Note_on_c, 2, 77, 0
8, 85559, Note_on_c, 2, 81, 0
8, 85560, Note_on_c, 2, 81, 76
8, 85560, Note_on_c, 2, 84, 76
8, 85664, Note_on_c, 2, 81, 0
8, 85664, Note_on_c, 2, 84, 0
8, 85680, Note_on_c, 2, 84, 76
8, 85680, Note_on_c, 2, 81, 76
8, 85769, Note_on_c, 2, 84, 0
8, 85769, Note_on_c, 2, 81, 0
8, 85800, Note_on_c, 2, 84, 76
8, 85800, Note_on_c, 2, 81, 76
8, 85889, Note_on_c, 2, 84, 0
8, 85889, Note_on_c, 2, 81, 0
8, 85920, Note_on_c, 2, 84, 76
8, 85920, Note_on_c, 2, 81, 76
8, 86159, Note_on_c, 2, 84, 0
8, 86159, Note_on_c, 2, 81, 0
8, 86160, Note_on_c, 2, 82, 76
8, 86160, Note_on_c, 2, 79, 76
8, 86219, Note_on_c, 2, 82, 0
8, 86219, Note_on_c, 2, 79, 0
8, 86220, Note_on_c, 2, 81, 76
8, 86220, Note_on_c, 2, 77, 76
8, 86279, Note_on_c, 2, 81, 0
8, 86279, Note_on_c, 2, 77, 0
8, 86280, Note_on_c, 2, 76, 76
8, 86280, Note_on_c, 2, 79, 76
8, 86339, Note_on_c, 2, 76, 0
8, 86339, Note_on_c, 2, 79, 0
8, 86340, Note_on_c, 2, 74, 76
8, 86340, Note_on_c, 2, 77, 76
8, 86391, Note_on_c, 2, 74, 0
8, 86391, Note_on_c, 2, 77, 0
8, 86400, Note_on_c, 2, 72, 76
8, 86400, Note_on_c, 2, 76, 76
8, 86489, Note_on_c, 2, 72, 0
8, 86489, Note_on_c, 2, 76, 0
8, 86520, Note_on_c, 2, 77, 76
8, 86520, Note_on_c, 2, 74, 76
8, 86609, Note_on_c, 2, 77, 0
8, 86609, Note_on_c, 2, 74, 0
8, 86640, Note_on_c, 2, 79, 76
8, 86640, Note_on_c, 2, 76, 76
8, 86759, Note_on_c, 2, 79, 0
8, 86759, Note_on_c, 2, 76, 0
8, 86760, Note_on_c, 2, 77, 76
8, 86760, Note_on_c, 2, 81, 76
8, 86819, Note_on_c, 2, 77, 0
8, 86819, Note_on_c, 2, 81, 0
8, 86820, Note_on_c, 2, 76, 76
8, 86820, Note_on_c, 2, 79, 76
8, 86871, Note_on_c, 2, 76, 0
8, 86871, Note_on_c, 2, 79, 0
8, 86880, Note_on_c, 2, 74, 76
8, 86880, Note_on_c, 2, 77, 76
8, 86969, Note_on_c, 2, 74, 0
8, 86969, Note_on_c, 2, 77, 0
8, 87000, Note_on_c, 2, 79, 76
8, 87000, Note_on_c, 2, 76, 76
8, 87089, Note_on_c, 2, 79, 0
8, 87089, Note_on_c, 2, 76, 0
8, 87120, Note_on_c, 2, 81, 76
8, 87120, Note_on_c, 2, 77, 76
8, 87239, Note_on_c, 2, 81, 0
8, 87239, Note_on_c, 2, 77, 0
8, 87240, Note_on_c, 2, 82, 76
8, 87240, Note_on_c, 2, 79, 76
8, 87299, Note_on_c, 2, 82, 0
8, 87299, Note_on_c, 2, 79, 0
8, 87300, Note_on_c, 2, 77, 76
8, 87300, Note_on_c, 2, 81, 76
8, 87351, Note_on_c, 2, 77, 0
8, 87351, Note_on_c, 2, 81, 0
8, 87360, Note_on_c, 2, 79, 76
8, 87360, Note_on_c, 2, 76, 76
8, 87479, Note_on_c, 2, 79, 0
8, 87479, Note_on_c, 2, 76, 0
8, 87480, Note_on_c, 2, 79, 76
8, 87480, Note_on_c, 2, 82, 76
8, 87584, Note_on_c, 2, 79, 0
8, 87584, Note_on_c, 2, 82, 0
8, 87600, Note_on_c, 2, 82, 76
8, 87600, Note_on_c, 2, 79, 76
8, 87689, Note_on_c, 2, 82, 0
8, 87689, Note_on_c, 2, 79, 0
8, 87720, Note_on_c, 2, 79, 76
8, 87720, Note_on_c, 2, 82, 76
8, 87809, Note_on_c, 2, 79, 0
8, 87809, Note_on_c, 2, 82, 0
8, 87840, Note_on_c, 2, 82, 76
8, 87840, Note_on_c, 2, 79, 76
8, 88079, Note_on_c, 2, 82, 0
8, 88079, Note_on_c, 2, 79, 0
8, 88080, Note_on_c, 2, 84, 76
8, 88080, Note_on_c, 2, 81, 76
8, 88139, Note_on_c, 2, 84, 0
8, 88139, Note_on_c, 2, 81, 0
8, 88140, Note_on_c, 2, 79, 76
8, 88140, Note_on_c, 2, 82, 76
8, 88199, Note_on_c, 2, 79, 0
8, 88199, Note_on_c, 2, 82, 0
8, 88200, Note_on_c, 2, 77, 76
8, 88200, Note_on_c, 2, 81, 76
8, 88259, Note_on_c, 2, 77, 0
8, 88259, Note_on_c, 2, 81, 0
8, 88260, Note_on_c, 2, 79, 76
8, 88260, Note_on_c, 2, 76, 76
8, 88311, Note_on_c, 2, 79, 0
8, 88311, Note_on_c, 2, 76, 0
8, 88320, Note_on_c, 2, 81, 76
8, 88320, Note_on_c, 2, 77, 76
8, 88409, Note_on_c, 2, 81, 0
8, 88409, Note_on_c, 2, 77, 0
8, 88440, Note_on_c, 2, 82, 76
8, 88440, Note_on_c, 2, 79, 76
8, 88529, Note_on_c, 2, 82, 0
8, 88529, Note_on_c, 2, 79, 0
8, 88560, Note_on_c, 2, 81, 76
8, 88560, Note_on_c, 2, 84, 76
8, 88784, Note_on_c, 2, 81, 0
8, 88784, Note_on_c, 2, 84, 0
8, 88800, Note_on_c, 2, 79, 76
8, 88800, Note_on_c, 2, 82, 76
8, 88919, Note_on_c, 2, 79, 0
8, 88919, Note_on_c, 2, 82, 0
8, 88920, Note_on_c, 2, 76, 76
8, 88920, Note_on_c, 2, 79, 76
8, 89039, Note_on_c, 2, 76, 0
8, 89039, Note_on_c, 2, 79, 0
8, 89040, Note_on_c, 2, 79, 76
8, 89040, Note_on_c, 2, 82, 76
8, 89159, Note_on_c, 2, 79, 0
8, 89159, Note_on_c, 2, 82, 0
8, 89160, Note_on_c, 2, 76, 76
8, 89160, Note_on_c, 2, 79, 76
8, 89264, Note_on_c, 2, 76, 0
8, 89264, Note_on_c, 2, 79, 0
8, 89280, Note_on_c, 2, 81, 76
8, 89280, Note_on_c, 2, 77, 76
8, 89369, Note_on_c, 2, 81, 0
8, 89369, Note_on_c, 2, 77, 0
8, 89400, Note_on_c, 2, 79, 76
8, 89400, Note_on_c, 2, 82, 76
8, 89489, Note_on_c, 2, 79, 0
8, 89489, Note_on_c, 2, 82, 0
8, 89520, Note_on_c, 2, 84, 76
8, 89520, Note_on_c, 2, 81, 76
8, 89744, Note_on_c, 2, 84, 0
8, 89744, Note_on_c, 2, 81, 0
8, 89760, Note_on_c, 2, 79, 76
8, 89760, Note_on_c, 2, 82, 76
8, 89879, Note_on_c, 2, 79, 0
8, 89879, Note_on_c, 2, 82, 0
8, 89880, Note_on_c, 2, 79, 76
8, 89880, Note_on_c, 2, 76, 76
8, 89999, Note_on_c, 2, 79, 0
8, 89999, Note_on_c, 2, 76, 0
8, 90000, Note_on_c, 2, 79, 76
8, 90000, Note_on_c, 2, 82, 76
8, 90119, Note_on_c, 2, 79, 0
8, 90119, Note_on_c, 2, 82, 0
8, 90120, Note_on_c, 2, 76, 76
8, 90120, Note_on_c, 2, 79, 76
8, 90224, Note_on_c, 2, 76, 0
8, 90224, Note_on_c, 2, 79, 0
8, 90240, Note_on_c, 2, 81, 76
8, 90240, Note_on_c, 2, 77, 76
8, 90359, Note_on_c, 2, 81, 0
8, 90359, Note_on_c, 2, 77, 0
8, 90360, Note_on_c, 2, 76, 76
8, 90360, Note_on_c, 2, 79, 76
8, 90479, Note_on_c, 2, 76, 0
8, 90479, Note_on_c, 2, 79, 0
8, 90480, Note_on_c, 2, 82, 76
8, 90480, Note_on_c, 2, 79, 76
8, 90599, Note_on_c, 2, 82, 0
8, 90599, Note_on_c, 2, 79, 0
8, 90600, Note_on_c, 2, 76, 76
8, 90600, Note_on_c, 2, 79, 76
8, 90704, Note_on_c, 2, 76, 0
8, 90704, Note_on_c, 2, 79, 0
8, 90720, Note_on_c, 2, 81, 76
8, 90720, Note_on_c, 2, 77, 76
8, 90839, Note_on_c, 2, 81, 0
8, 90839, Note_on_c, 2, 77, 0
8, 90840, Note_on_c, 2, 76, 76
8, 90840, Note_on_c, 2, 79, 76
8, 90959, Note_on_c, 2, 76, 0
8, 90959, Note_on_c, 2, 79, 0
8, 90960, Note_on_c, 2, 82, 76
8, 90960, Note_on_c, 2, 79, 76
8, 91079, Note_on_c, 2, 82, 0
8, 91079, Note_on_c, 2, 79, 0
8, 91080, Note_on_c, 2, 76, 76
8, 91080, Note_on_c, 2, 79, 76
8, 91184, Note_on_c, 2, 76, 0
8, 91184, Note_on_c, 2, 79, 0
8, 91200, Note_on_c, 2, 81, 76
8, 91200, Note_on_c, 2, 77, 76
8, 91319, Note_on_c, 2, 81, 0
8, 91319, Note_on_c, 2, 77, 0
8, 107826, Control_c, 2, 11, 113
8, 108000, Note_on_c, 2, 79, 76
8, 108000, Note_on_c, 2, 67, 76
8, 108010, Control_c, 2, 11, 114
8, 108194, Control_c, 2, 11, 115
8, 108378, Control_c, 2, 11, 116
8, 108562, Control_c, 2, 11, 117
8, 108746, Control_c, 2, 11, 118
8, 108929, Control_c, 2, 11, 119
8, 108944, Note_on_c, 2, 79, 0
8, 108944, Note_on_c, 2, 67, 0
8, 108960, Note_on_c, 2, 84, 76
8, 108960, Note_on_c, 2, 72, 76
8, 109113, Control_c, 2, 11, 120
8, 109297, Control_c, 2, 11, 121
8, 109424, Note_on_c, 2, 84, 0
8, 109424, Note_on_c, 2, 72, 0
8, 109440, Note_on_c, 2, 81, 76
8, 109481, Control_c, 2, 11, 122
8, 109559, Note_on_c, 2, 81, 0
8, 109560, Note_on_c, 2, 79, 76
8, 109665, Control_c, 2, 11, 123
8, 109679, Note_on_c, 2, 79, 0
8, 109680, Note_on_c, 2, 77, 76
8, 109799, Note_on_c, 2, 77, 0
8, 109800, Note_on_c, 2, 74, 76
8, 109849, Control_c, 2, 11, 124
8, 109919, Note_on_c, 2, 74, 0
8, 109920, Note_on_c, 2, 67, 76
8, 110032, Control_c, 2, 11, 125
8, 110039, Note_on_c, 2, 67, 0
8, 110040, Note_on_c, 2, 77, 76
8, 110159, Note_on_c, 2, 77, 0
8, 110160, Note_on_c, 2, 74, 76
8, 110216, Control_c, 2, 11, 126
8, 110279, Note_on_c, 2, 74, 0
8, 110280, Note_on_c, 2, 67, 76
8, 110384, Note_on_c, 2, 67, 0
8, 110400, Note_on_c, 2, 76, 76
8, 110400, Note_on_c, 2, 79, 76
8, 110519, Note_on_c, 2, 76, 0
8, 110519, Note_on_c, 2, 79, 0
8, 111840, Note_on_c, 2, 81, 76
8, 111840, Note_on_c, 2, 84, 76
8, 111959, Note_on_c, 2, 81, 0
8, 111959, Note_on_c, 2, 84, 0
8, 112320, Note_on_c, 2, 84, 48
8, 112320, Note_on_c, 2, 81, 48
8, 112559, Note_on_c, 2, 84, 0
8, 112559, Note_on_c, 2, 81, 0
8, 112560, Note_on_c, 2, 79, 48
8, 112560, Note_on_c, 2, 83, 48
8, 112679, Note_on_c, 2, 79, 0
8, 112679, Note_on_c, 2, 83, 0
8, 112680, Note_on_c, 2, 81, 48
8, 112680, Note_on_c, 2, 77, 48
8, 112784, Note_on_c, 2, 81, 0
8, 112784, Note_on_c, 2, 77, 0
8, 112800, Note_on_c, 2, 79, 48
8, 112800, Note_on_c, 2, 76, 48
8, 113039, Note_on_c, 2, 79, 0
8, 113039, Note_on_c, 2, 76, 0
8, 113040, Note_on_c, 2, 74, 48
8, 113040, Note_on_c, 2, 77, 48
8, 113159, Note_on_c, 2, 74, 0
8, 113159, Note_on_c, 2, 77, 0
8, 113160, Note_on_c, 2, 72, 48
8, 113160, Note_on_c, 2, 76, 48
8, 113264, Note_on_c, 2, 72, 0
8, 113264, Note_on_c, 2, 76, 0
8, 113280, Note_on_c, 2, 76, 48
8, 113280, Note_on_c, 2, 72, 48
8, 113399, Note_on_c, 2, 76, 0
8, 113399, Note_on_c, 2, 72, 0
8, 113400, Note_on_c, 2, 71, 48
8, 113400, Note_on_c, 2, 74, 48
8, 113519, Note_on_c, 2, 71, 0
8, 113519, Note_on_c, 2, 74, 0
8, 113520, Note_on_c, 2, 69, 48
8, 113520, Note_on_c, 2, 72, 48
8, 113639, Note_on_c, 2, 69, 0
8, 113639, Note_on_c, 2, 72, 0
8, 113640, Note_on_c, 2, 71, 48
8, 113640, Note_on_c, 2, 74, 48
8, 113744, Note_on_c, 2, 71, 0
8, 113744, Note_on_c, 2, 74, 0
8, 113760, Note_on_c, 2, 76, 76
8, 113760, Note_on_c, 2, 72, 76
8, 113879, Note_on_c, 2, 76, 0
8, 113879, Note_on_c, 2, 72, 0
8, 115200, Note_on_c, 2, 84, 76
8, 115200, Note_on_c, 2, 81, 76
8, 115319, Note_on_c, 2, 84, 0
8, 115319, Note_on_c, 2, 81, 0
8, 115680, Note_on_c, 2, 84, 52
8, 115680, Note_on_c, 2, 81, 52
8, 115919, Note_on_c, 2, 84, 0
8, 115919, Note_on_c, 2, 81, 0
8, 115920, Note_on_c, 2, 79, 52
8, 115920, Note_on_c, 2, 83, 52
8, 116039, Note_on_c, 2, 79, 0
8, 116039, Note_on_c, 2, 83, 0
8, 116040, Note_on_c, 2, 81, 52
8, 116040, Note_on_c, 2, 77, 52
8, 116144, Note_on_c, 2, 81, 0
8, 116144, Note_on_c, 2, 77, 0
8, 116160, Note_on_c, 2, 76, 52
8, 116160, Note_on_c, 2, 79, 52
8, 116399, Note_on_c, 2, 76, 0
8, 116399, Note_on_c, 2, 79, 0
8, 116400, Note_on_c, 2, 74, 52
8, 116400, Note_on_c, 2, 77, 52
8, 116519, Note_on_c, 2, 74, 0
8, 116519, Note_on_c, 2, 77, 0
8, 116520, Note_on_c, 2, 72, 52
8, 116520, Note_on_c, 2, 76, 52
8, 116624, Note_on_c, 2, 72, 0
8, 116624, Note_on_c, 2, 76, 0
8, 116640, Note_on_c, 2, 72, 52
8, 116640, Note_on_c, 2, 76, 52
8, 116759, Note_on_c, 2, 72, 0
8, 116759, Note_on_c, 2, 76, 0
8, 116760, Note_on_c, 2, 71, 52
8, 116760, Note_on_c, 2, 74, 52
8, 116879, Note_on_c, 2, 71, 0
8, 116879, Note_on_c, 2, 74, 0
8, 116880, Note_on_c, 2, 72, 52
8, 116880, Note_on_c, 2, 69, 52
8, 116999, Note_on_c, 2, 72, 0
8, 116999, Note_on_c, 2, 69, 0
8, 117000, Note_on_c, 2, 71, 52
8, 117000, Note_on_c, 2, 74, 52
8, 117104, Note_on_c, 2, 71, 0
8, 117104, Note_on_c, 2, 74, 0
8, 117120, Note_on_c, 2, 76, 52
8, 117120, Note_on_c, 2, 72, 52
8, 117224, Note_on_c, 2, 72, 0
8, 117239, Note_on_c, 2, 76, 0
8, 117240, Note_on_c, 2, 72, 53
8, 117344, Note_on_c, 2, 72, 0
8, 117360, Note_on_c, 2, 72, 55
8, 117360, Note_on_c, 2, 84, 55
8, 117449, Note_on_c, 2, 84, 0
8, 117464, Note_on_c, 2, 72, 0
8, 117480, Note_on_c, 2, 84, 56
8, 117480, Note_on_c, 2, 72, 56
8, 117569, Note_on_c, 2, 84, 0
8, 117584, Note_on_c, 2, 72, 0
8, 117600, Note_on_c, 2, 81, 58
8, 117600, Note_on_c, 2, 84, 58
8, 117689, Note_on_c, 2, 81, 0
8, 117689, Note_on_c, 2, 84, 0
8, 117720, Note_on_c, 2, 84, 59
8, 117720, Note_on_c, 2, 81, 59
8, 117839, Note_on_c, 2, 84, 0
8, 117839, Note_on_c, 2, 81, 0
8, 117840, Note_on_c, 2, 79, 61
8, 117840, Note_on_c, 2, 83, 61
8, 117959, Note_on_c, 2, 79, 0
8, 117959, Note_on_c, 2, 83, 0
8, 117960, Note_on_c, 2, 81, 62
8, 117960, Note_on_c, 2, 77, 62
8, 118064, Note_on_c, 2, 81, 0
8, 118064, Note_on_c, 2, 77, 0
8, 118080, Note_on_c, 2, 79, 64
8, 118080, Note_on_c, 2, 76, 64
8, 118169, Note_on_c, 2, 79, 0
8, 118169, Note_on_c, 2, 76, 0
8, 118200, Note_on_c, 2, 76, 65
8, 118200, Note_on_c, 2, 79, 65
8, 118319, Note_on_c, 2, 76, 0
8, 118319, Note_on_c, 2, 79, 0
8, 118320, Note_on_c, 2, 74, 67
8, 118320, Note_on_c, 2, 77, 67
8, 118439, Note_on_c, 2, 74, 0
8, 118439, Note_on_c, 2, 77, 0
8, 118440, Note_on_c, 2, 76, 68
8, 118440, Note_on_c, 2, 72, 68
8, 118544, Note_on_c, 2, 76, 0
8, 118544, Note_on_c, 2, 72, 0
8, 118560, Note_on_c, 2, 76, 70
8, 118560, Note_on_c, 2, 72, 70
8, 118679, Note_on_c, 2, 76, 0
8, 118679, Note_on_c, 2, 72, 0
8, 118680, Note_on_c, 2, 71, 71
8, 118680, Note_on_c, 2, 74, 71
8, 118799, Note_on_c, 2, 71, 0
8, 118799, Note_on_c, 2, 74, 0
8, 118800, Note_on_c, 2, 72, 73
8, 118800, Note_on_c, 2, 69, 73
8, 118919, Note_on_c, 2, 72, 0
8, 118919, Note_on_c, 2, 69, 0
8, 118920, Note_on_c, 2, 74, 74
8, 118920, Note_on_c, 2, 71, 74
8, 119024, Note_on_c, 2, 74, 0
8, 119024, Note_on_c, 2, 71, 0
8, 119040, Note_on_c, 2, 76, 76
8, 119040, Note_on_c, 2, 72, 76
8, 119159, Note_on_c, 2, 76, 0
8, 119159, Note_on_c, 2, 72, 0
8, 119280, Note_on_c, 2, 84, 76
8, 119280, Note_on_c, 2, 79, 76
8, 119399, Note_on_c, 2, 84, 0
8, 119399, Note_on_c, 2, 79, 0
8, 119520, Note_on_c, 2, 84, 76
8, 119520, Note_on_c, 2, 81, 76
8, 119639, Note_on_c, 2, 84, 0
8, 119639, Note_on_c, 2, 81, 0
8, 119760, Note_on_c, 2, 81, 76
8, 119760, Note_on_c, 2, 84, 76
8, 119879, Note_on_c, 2, 81, 0
8, 119879, Note_on_c, 2, 84, 0
8, 120000, Note_on_c, 2, 79, 76
8, 120000, Note_on_c, 2, 84, 76
8, 120119, Note_on_c, 2, 79, 0
8, 120119, Note_on_c, 2, 84, 0
8, 120240, Note_on_c, 2, 79, 76
8, 120240, Note_on_c, 2, 76, 76
8, 120359, Note_on_c, 2, 79, 0
8, 120359, Note_on_c, 2, 76, 0
8, 120480, Note_on_c, 2, 74, 76
8, 120480, Note_on_c, 2, 79, 76
8, 120599, Note_on_c, 2, 74, 0
8, 120599, Note_on_c, 2, 79, 0
8, 120720, Note_on_c, 2, 83, 76
8, 120720, Note_on_c, 2, 74, 76
8, 120839, Note_on_c, 2, 83, 0
8, 120839, Note_on_c, 2, 74, 0
8, 120960, Note_on_c, 2, 72, 76
8, 120960, Note_on_c, 2, 84, 76
8, 121199, Note_on_c, 2, 72, 0
8, 121199, Note_on_c, 2, 84, 0
8, 121200, Note_on_c, 2, 67, 76
8, 121200, Note_on_c, 2, 79, 76
8, 121904, Note_on_c, 2, 67, 0
8, 121904, Note_on_c, 2, 79, 0
8, 121920, Note_on_c, 2, 76, 76
8, 122159, Note_on_c, 2, 76, 0
8, 122160, Note_on_c, 2, 72, 76
8, 122864, Note_on_c, 2, 72, 0
8, 122880, Note_on_c, 2, 84, 76
8, 122880, Note_on_c, 2, 72, 76
8, 123119, Note_on_c, 2, 84, 0
8, 123119, Note_on_c, 2, 72, 0
8, 123120, Note_on_c, 2, 67, 76
8, 123120, Note_on_c, 2, 79, 76
8, 123824, Note_on_c, 2, 67, 0
8, 123824, Note_on_c, 2, 79, 0
8, 123840, Note_on_c, 2, 76, 76
8, 124079, Note_on_c, 2, 76, 0
8, 124080, Note_on_c, 2, 72, 76
8, 124784, Note_on_c, 2, 72, 0
8, 124800, Note_on_c, 2, 72, 76
8, 125039, Note_on_c, 2, 72, 0
8, 125040, Note_on_c, 2, 67, 73
8, 125279, Note_on_c, 2, 67, 0
8, 125280, Note_on_c, 2, 72, 70
8, 125519, Note_on_c, 2, 72, 0
8, 125520, Note_on_c, 2, 67, 67
8, 125759, Note_on_c, 2, 67, 0
8, 125760, Note_on_c, 2, 72, 64
8, 125999, Note_on_c, 2, 72, 0
8, 126000, Note_on_c, 2, 67, 61
8, 126239, Note_on_c, 2, 67, 0
8, 126240, Note_on_c, 2, 72, 58
8, 126479, Note_on_c, 2, 72, 0
8, 126480, Note_on_c, 2, 67, 55
8, 126719, Note_on_c, 2, 67, 0
8, 126720, Note_on_c, 2, 72, 52
8, 126809, Note_on_c, 2, 72, 0
8, 136320, Note_on_c, 2, 75, 52
8, 136320, Note_on_c, 2, 69, 52
8, 137264, Note_on_c, 2, 75, 0
8, 137264, Note_on_c, 2, 69, 0
8, 137280, Note_on_c, 2, 69, 52
8, 137280, Note_on_c, 2, 75, 52
8, 138224, Note_on_c, 2, 69, 0
8, 138224, Note_on_c, 2, 75, 0
8, 138240, Note_on_c, 2, 74, 52
8, 138240, Note_on_c, 2, 70, 52
8, 138359, Note_on_c, 2, 74, 0
8, 138359, Note_on_c, 2, 70, 0
8, 144000, Note_on_c, 2, 81, 64
8, 144089, Note_on_c, 2, 81, 0
8, 144120, Note_on_c, 2, 78, 64
8, 144179, Note_on_c, 2, 78, 0
8, 144180, Note_on_c, 2, 76, 64
8, 144231, Note_on_c, 2, 76, 0
8, 144240, Note_on_c, 2, 74, 64
8, 144329, Note_on_c, 2, 74, 0
8, 144360, Note_on_c, 2, 69, 64
8, 144449, Note_on_c, 2, 69, 0
8, 144480, Note_on_c, 2, 81, 65
8, 144569, Note_on_c, 2, 81, 0
8, 144600, Note_on_c, 2, 78, 65
8, 144659, Note_on_c, 2, 78, 0
8, 144660, Note_on_c, 2, 76, 65
8, 144711, Note_on_c, 2, 76, 0
8, 144720, Note_on_c, 2, 74, 65
8, 144809, Note_on_c, 2, 74, 0
8, 144840, Note_on_c, 2, 69, 65
8, 144929, Note_on_c, 2, 69, 0
8, 144960, Note_on_c, 2, 81, 66
8, 145049, Note_on_c, 2, 81, 0
8, 145080, Note_on_c, 2, 78, 66
8, 145139, Note_on_c, 2, 78, 0
8, 145140, Note_on_c, 2, 76, 66
8, 145191, Note_on_c, 2, 76, 0
8, 145200, Note_on_c, 2, 74, 66
8, 145289, Note_on_c, 2, 74, 0
8, 145320, Note_on_c, 2, 69, 66
8, 145409, Note_on_c, 2, 69, 0
8, 145440, Note_on_c, 2, 81, 67
8, 145529, Note_on_c, 2, 81, 0
8, 145560, Note_on_c, 2, 78, 67
8, 145619, Note_on_c, 2, 78, 0
8, 145620, Note_on_c, 2, 76, 67
8, 145671, Note_on_c, 2, 76, 0
8, 145680, Note_on_c, 2, 74, 67
8, 145769, Note_on_c, 2, 74, 0
8, 145800, Note_on_c, 2, 69, 67
8, 145889, Note_on_c, 2, 69, 0
8, 145918, Control_c, 2, 11, 96
8, 145920, Note_on_c, 2, 66, 84
8, 145920, Note_on_c, 2, 74, 84
8, 146044, Control_c, 2, 11, 97
8, 146168, Control_c, 2, 11, 98
8, 146292, Control_c, 2, 11, 99
8, 146415, Control_c, 2, 11, 100
8, 146539, Control_c, 2, 11, 101
8, 146663, Control_c, 2, 11, 102
8, 146787, Control_c, 2, 11, 103
8, 146911, Control_c, 2, 11, 104
8, 147035, Control_c, 2, 11, 105
8, 147159, Control_c, 2, 11, 106
8, 147283, Control_c, 2, 11, 107
8, 147406, Control_c, 2, 11, 108
8, 147530, Control_c, 2, 11, 109
8, 147654, Control_c, 2, 11, 110
8, 147778, Control_c, 2, 11, 111
8, 147824, Note_on_c, 2, 66, 0
8, 147824, Note_on_c, 2, 74, 0
8, 147840, Note_on_c, 2, 74, 84
8, 147840, Note_on_c, 2, 78, 84
8, 147902, Control_c, 2, 11, 112
8, 148026, Control_c, 2, 11, 113
8, 148150, Control_c, 2, 11, 114
8, 148274, Control_c, 2, 11, 115
8, 148397, Control_c, 2, 11, 116
8, 148521, Control_c, 2, 11, 117
8, 148645, Control_c, 2, 11, 118
8, 148769, Control_c, 2, 11, 119
8, 148893, Control_c, 2, 11, 120
8, 149017, Control_c, 2, 11, 121
8, 149141, Control_c, 2, 11, 122
8, 149265, Control_c, 2, 11, 123
8, 149388, Control_c, 2, 11, 124
8, 149512, Control_c, 2, 11, 125
8, 149636, Control_c, 2, 11, 127
8, 149744, Note_on_c, 2, 74, 0
8, 149744, Note_on_c, 2, 78, 0
8, 149760, Note_on_c, 2, 81, 84
8, 149760, Note_on_c, 2, 78, 84
8, 150104, Note_on_c, 2, 81, 0
8, 150104, Note_on_c, 2, 78, 0
8, 150120, Note_on_c, 2, 81, 84
8, 150120, Note_on_c, 2, 78, 84
8, 150224, Note_on_c, 2, 81, 0
8, 150224, Note_on_c, 2, 78, 0
8, 150240, Note_on_c, 2, 78, 84
8, 150240, Note_on_c, 2, 81, 84
8, 150584, Note_on_c, 2, 78, 0
8, 150584, Note_on_c, 2, 81, 0
8, 150600, Note_on_c, 2, 78, 84
8, 150600, Note_on_c, 2, 81, 84
8, 150704, Note_on_c, 2, 78, 0
8, 150704, Note_on_c, 2, 81, 0
8, 150720, Note_on_c, 2, 81, 84
8, 150720, Note_on_c, 2, 78, 84
8, 151064, Note_on_c, 2, 81, 0
8, 151064, Note_on_c, 2, 78, 0
8, 151080, Note_on_c, 2, 78, 84
8, 151080, Note_on_c, 2, 81, 84
8, 151184, Note_on_c, 2, 78, 0
8, 151184, Note_on_c, 2, 81, 0
8, 151200, Note_on_c, 2, 81, 84
8, 151200, Note_on_c, 2, 78, 84
8, 151544, Note_on_c, 2, 81, 0
8, 151544, Note_on_c, 2, 78, 0
8, 151560, Note_on_c, 2, 78, 84
8, 151560, Note_on_c, 2, 81, 84
8, 151664, Note_on_c, 2, 78, 0
8, 151664, Note_on_c, 2, 81, 0
8, 151680, Note_on_c, 2, 78, 84
8, 151680, Note_on_c, 2, 81, 84
8, 151799, Note_on_c, 2, 78, 0
8, 151799, Note_on_c, 2, 81, 0
8, 152640, Note_on_c, 2, 81, 84
8, 152640, Note_on_c, 2, 78, 84
8, 152759, Note_on_c, 2, 81, 0
8, 152759, Note_on_c, 2, 78, 0
8, 159360, Note_on_c, 2, 79, 52
8, 159480, Note_on_c, 2, 81, 52
8, 159569, Note_on_c, 2, 81, 0
8, 159600, Note_on_c, 2, 83, 52
8, 159689, Note_on_c, 2, 83, 0
8, 159720, Note_on_c, 2, 84, 52
8, 159779, Note_on_c, 2, 84, 0
8, 159780, Note_on_c, 2, 83, 52
8, 159824, Note_on_c, 2, 79, 0
8, 159831, Note_on_c, 2, 83, 0
8, 159840, Note_on_c, 2, 74, 52
8, 159840, Note_on_c, 2, 81, 52
8, 159929, Note_on_c, 2, 81, 0
8, 159960, Note_on_c, 2, 79, 52
8, 160049, Note_on_c, 2, 79, 0
8, 160080, Note_on_c, 2, 81, 52
8, 160199, Note_on_c, 2, 81, 0
8, 160200, Note_on_c, 2, 83, 52
8, 160259, Note_on_c, 2, 83, 0
8, 160260, Note_on_c, 2, 81, 52
8, 160311, Note_on_c, 2, 81, 0
8, 160320, Note_on_c, 2, 79, 52
8, 160439, Note_on_c, 2, 74, 0
8, 160439, Note_on_c, 2, 79, 0
8, 162240, Note_on_c, 2, 79, 57
8, 162329, Note_on_c, 2, 79, 0
8, 162360, Note_on_c, 2, 74, 57
8, 162419, Note_on_c, 2, 74, 0
8, 162420, Note_on_c, 2, 72, 57
8, 162471, Note_on_c, 2, 72, 0
8, 162480, Note_on_c, 2, 71, 58
8, 162569, Note_on_c, 2, 71, 0
8, 162600, Note_on_c, 2, 67, 58
8, 162689, Note_on_c, 2, 67, 0
8, 162720, Note_on_c, 2, 79, 58
8, 162809, Note_on_c, 2, 79, 0
8, 162840, Note_on_c, 2, 74, 59
8, 162899, Note_on_c, 2, 74, 0
8, 162900, Note_on_c, 2, 72, 59
8, 162951, Note_on_c, 2, 72, 0
8, 162960, Note_on_c, 2, 71, 59
8, 163049, Note_on_c, 2, 71, 0
8, 163080, Note_on_c, 2, 67, 59
8, 163169, Note_on_c, 2, 67, 0
8, 163200, Note_on_c, 2, 79, 60
8, 163289, Note_on_c, 2, 79, 0
8, 163320, Note_on_c, 2, 74, 60
8, 163379, Note_on_c, 2, 74, 0
8, 163380, Note_on_c, 2, 72, 60
8, 163431, Note_on_c, 2, 72, 0
8, 163440, Note_on_c, 2, 71, 60
8, 163529, Note_on_c, 2, 71, 0
8, 163560, Note_on_c, 2, 67, 61
8, 163649, Note_on_c, 2, 67, 0
8, 163680, Note_on_c, 2, 79, 61
8, 163769, Note_on_c, 2, 79, 0
8, 163800, Note_on_c, 2, 74, 61
8, 163859, Note_on_c, 2, 74, 0
8, 163860, Note_on_c, 2, 72, 61
8, 163911, Note_on_c, 2, 72, 0
8, 163920, Note_on_c, 2, 71, 62
8, 164009, Note_on_c, 2, 71, 0
8, 164040, Note_on_c, 2, 67, 62
8, 164129, Note_on_c, 2, 67, 0
8, 165840, Control_c, 2, 11, 96
8, 166080, Note_on_c, 2, 83, 84
8, 166080, Control_c, 2, 11, 96
8, 166169, Note_on_c, 2, 83, 0
8, 166200, Note_on_c, 2, 81, 84
8, 166259, Note_on_c, 2, 81, 0
8, 166260, Note_on_c, 2, 80, 84
8, 166266, Control_c, 2, 11, 97
8, 166311, Note_on_c, 2, 80, 0
8, 166320, Note_on_c, 2, 76, 84
8, 166409, Note_on_c, 2, 76, 0
8, 166440, Note_on_c, 2, 71, 84
8, 166452, Control_c, 2, 11, 98
8, 166529, Note_on_c, 2, 71, 0
8, 166560, Note_on_c, 2, 83, 84
8, 166637, Control_c, 2, 11, 99
8, 166649, Note_on_c, 2, 83, 0
8, 166680, Note_on_c, 2, 81, 84
8, 166739, Note_on_c, 2, 81, 0
8, 166740, Note_on_c, 2, 80, 84
8, 166791, Note_on_c, 2, 80, 0
8, 166800, Note_on_c, 2, 76, 84
8, 166823, Control_c, 2, 11, 100
8, 166889, Note_on_c, 2, 76, 0
8, 166920, Note_on_c, 2, 71, 84
8, 167009, Note_on_c, 2, 71, 0
8, 167009, Control_c, 2, 11, 101
8, 167040, Note_on_c, 2, 83, 84
8, 167129, Note_on_c, 2, 83, 0
8, 167160, Note_on_c, 2, 81, 84
8, 167195, Control_c, 2, 11, 102
8, 167219, Note_on_c, 2, 81, 0
8, 167220, Note_on_c, 2, 80, 84
8, 167271, Note_on_c, 2, 80, 0
8, 167280, Note_on_c, 2, 76, 84
8, 167369, Note_on_c, 2, 76, 0
8, 167381, Control_c, 2, 11, 103
8, 167400, Note_on_c, 2, 71, 84
8, 167489, Note_on_c, 2, 71, 0
8, 167520, Note_on_c, 2, 83, 84
8, 167566, Control_c, 2, 11, 104
8, 167609, Note_on_c, 2, 83, 0
8, 167640, Note_on_c, 2, 81, 84
8, 167699, Note_on_c, 2, 81, 0
8, 167700, Note_on_c, 2, 80, 84
8, 167751, Note_on_c, 2, 80, 0
8, 167752, Control_c, 2, 11, 105
8, 167760, Note_on_c, 2, 76, 84
8, 167849, Note_on_c, 2, 76, 0
8, 167880, Note_on_c, 2, 71, 84
8, 167938, Control_c, 2, 11, 106
8, 167969, Note_on_c, 2, 71, 0
8, 169796, Control_c, 2, 11, 116
8, 169920, Note_on_c, 2, 68, 84
8, 169920, Note_on_c, 2, 76, 84
8, 169982, Control_c, 2, 11, 117
8, 170168, Control_c, 2, 11, 118
8, 170354, Control_c, 2, 11, 119
8, 170539, Control_c, 2, 11, 120
8, 170725, Control_c, 2, 11, 121
8, 170911, Control_c, 2, 11, 122
8, 171097, Control_c, 2, 11, 123
8, 171283, Control_c, 2, 11, 124
8, 171468, Control_c, 2, 11, 125
8, 171654, Control_c, 2, 11, 127
8, 171824, Note_on_c, 2, 68, 0
8, 171824, Note_on_c, 2, 76, 0
8, 171840, Note_on_c, 2, 80, 84
8, 171840, Note_on_c, 2, 83, 84
8, 172184, Note_on_c, 2, 80, 0
8, 172184, Note_on_c, 2, 83, 0
8, 172200, Note_on_c, 2, 83, 84
8, 172200, Note_on_c, 2, 80, 84
8, 172304, Note_on_c, 2, 83, 0
8, 172304, Note_on_c, 2, 80, 0
8, 172320, Note_on_c, 2, 80, 84
8, 172320, Note_on_c, 2, 83, 84
8, 172664, Note_on_c, 2, 80, 0
8, 172664, Note_on_c, 2, 83, 0
8, 172680, Note_on_c, 2, 80, 84
8, 172680, Note_on_c, 2, 83, 84
8, 172784, Note_on_c, 2, 80, 0
8, 172784, Note_on_c, 2, 83, 0
8, 172800, Note_on_c, 2, 80, 84
8, 172800, Note_on_c, 2, 83, 84
8, 173144, Note_on_c, 2, 80, 0
8, 173144, Note_on_c, 2, 83, 0
8, 173160, Note_on_c, 2, 80, 84
8, 173160, Note_on_c, 2, 83, 84
8, 173264, Note_on_c, 2, 80, 0
8, 173264, Note_on_c, 2, 83, 0
8, 173280, Note_on_c, 2, 80, 84
8, 173280, Note_on_c, 2, 83, 84
8, 173624, Note_on_c, 2, 80, 0
8, 173624, Note_on_c, 2, 83, 0
8, 173640, Note_on_c, 2, 83, 84
8, 173640, Note_on_c, 2, 80, 84
8, 173744, Note_on_c, 2, 83, 0
8, 173744, Note_on_c, 2, 80, 0
8, 173760, Note_on_c, 2, 83, 84
8, 173760, Note_on_c, 2, 80, 84
8, 173879, Note_on_c, 2, 83, 0
8, 173879, Note_on_c, 2, 80, 0
8, 174720, Note_on_c, 2, 80, 84
8, 174720, Note_on_c, 2, 83, 84
8, 174839, Note_on_c, 2, 80, 0
8, 174839, Note_on_c, 2, 83, 0
8, 181440, Note_on_c, 2, 81, 52
8, 181904, Note_on_c, 2, 81, 0
8, 181920, Note_on_c, 2, 76, 52
8, 182384, Note_on_c, 2, 76, 0
8, 182400, Note_on_c, 2, 73, 52
8, 182400, Note_on_c, 2, 69, 52
8, 182639, Note_on_c, 2, 73, 0
8, 182639, Note_on_c, 2, 69, 0
8, 192000, Note_on_c, 2, 84, 84
8, 192000, Note_on_c, 2, 72, 84
8, 192944, Note_on_c, 2, 84, 0
8, 192944, Note_on_c, 2, 72, 0
8, 192960, Note_on_c, 2, 84, 92
8, 192960, Note_on_c, 2, 72, 92
8, 193020, Control_c, 2, 11, 112
8, 193904, Note_on_c, 2, 84, 0
8, 193904, Note_on_c, 2, 72, 0
8, 193918, Control_c, 2, 11, 127
8, 193920, Note_on_c, 2, 72, 92
8, 193920, Note_on_c, 2, 84, 92
8, 193980, Control_c, 2, 11, 112
8, 194864, Note_on_c, 2, 72, 0
8, 194864, Note_on_c, 2, 84, 0
8, 194878, Control_c, 2, 11, 127
8, 194880, Note_on_c, 2, 84, 92
8, 194880, Note_on_c, 2, 72, 92
8, 194940, Control_c, 2, 11, 112
8, 195824, Note_on_c, 2, 84, 0
8, 195824, Note_on_c, 2, 72, 0
8, 195838, Control_c, 2, 11, 127
8, 195840, Note_on_c, 2, 84, 92
8, 195840, Note_on_c, 2, 72, 92
8, 195900, Control_c, 2, 11, 112
8, 196784, Note_on_c, 2, 84, 0
8, 196784, Note_on_c, 2, 72, 0
8, 196798, Control_c, 2, 11, 127
8, 196800, Note_on_c, 2, 84, 92
8, 196800, Note_on_c, 2, 72, 92
8, 196860, Control_c, 2, 11, 112
8, 197624, Note_on_c, 2, 84, 0
8, 197624, Note_on_c, 2, 72, 0
8, 197640, Note_on_c, 2, 72, 92
8, 197640, Note_on_c, 2, 84, 92
8, 197744, Note_on_c, 2, 72, 0
8, 197744, Note_on_c, 2, 84, 0
8, 197760, Note_on_c, 2, 74, 92
8, 197760, Note_on_c, 2, 86, 92
8, 197879, Note_on_c, 2, 74, 0
8, 197879, Note_on_c, 2, 86, 0
8, 215160, Note_on_c, 2, 62, 78
8, 215160, Note_on_c, 2, 74, 78
8, 215219, Note_on_c, 2, 62, 0
8, 215219, Note_on_c, 2, 74, 0
8, 215220, Note_on_c, 2, 64, 79
8, 215220, Note_on_c, 2, 76, 79
8, 215271, Note_on_c, 2, 64, 0
8, 215271, Note_on_c, 2, 76, 0
8, 215280, Note_on_c, 2, 77, 80
8, 215280, Note_on_c, 2, 65, 80
8, 215369, Note_on_c, 2, 77, 0
8, 215369, Note_on_c, 2, 65, 0
8, 215400, Note_on_c, 2, 79, 82
8, 215400, Note_on_c, 2, 67, 82
8, 215489, Note_on_c, 2, 79, 0
8, 215489, Note_on_c, 2, 67, 0
8, 215520, Note_on_c, 2, 69, 84
8, 215520, Note_on_c, 2, 81, 84
8, 215624, Note_on_c, 2, 69, 0
8, 215624, Note_on_c, 2, 81, 0
8, 215640, Note_on_c, 2, 77, 84
8, 215640, Note_on_c, 2, 81, 84
8, 215729, Note_on_c, 2, 77, 0
8, 215729, Note_on_c, 2, 81, 0
8, 215760, Note_on_c, 2, 82, 84
8, 215760, Note_on_c, 2, 79, 84
8, 215849, Note_on_c, 2, 82, 0
8, 215849, Note_on_c, 2, 79, 0
8, 215880, Note_on_c, 2, 82, 84
8, 215880, Note_on_c, 2, 86, 84
8, 215969, Note_on_c, 2, 82, 0
8, 215969, Note_on_c, 2, 86, 0
8, 216000, Note_on_c, 2, 81, 84
8, 216000, Note_on_c, 2, 84, 84
8, 216119, Note_on_c, 2, 81, 0
8, 216119, Note_on_c, 2, 84, 0
8, 216120, Note_on_c, 2, 82, 84
8, 216120, Note_on_c, 2, 79, 84
8, 216179, Note_on_c, 2, 82, 0
8, 216179, Note_on_c, 2, 79, 0
8, 216180, Note_on_c, 2, 81, 84
8, 216180, Note_on_c, 2, 77, 84
8, 216231, Note_on_c, 2, 81, 0
8, 216231, Note_on_c, 2, 77, 0
8, 216240, Note_on_c, 2, 79, 84
8, 216240, Note_on_c, 2, 76, 84
8, 216329, Note_on_c, 2, 79, 0
8, 216329, Note_on_c, 2, 76, 0
8, 216360, Note_on_c, 2, 72, 84
8, 216449, Note_on_c, 2, 72, 0
8, 216480, Note_on_c, 2, 77, 84
8, 216569, Note_on_c, 2, 77, 0
8, 216600, Note_on_c, 2, 79, 84
8, 216600, Note_on_c, 2, 76, 84
8, 216689, Note_on_c, 2, 79, 0
8, 216689, Note_on_c, 2, 76, 0
8, 216720, Note_on_c, 2, 77, 84
8, 216720, Note_on_c, 2, 81, 84
8, 216839, Note_on_c, 2, 77, 0
8, 216839, Note_on_c, 2, 81, 0
8, 216840, Note_on_c, 2, 82, 84
8, 216840, Note_on_c, 2, 79, 84
8, 216899, Note_on_c, 2, 82, 0
8, 216899, Note_on_c, 2, 79, 0
8, 216900, Note_on_c, 2, 77, 84
8, 216900, Note_on_c, 2, 81, 84
8, 216951, Note_on_c, 2, 77, 0
8, 216951, Note_on_c, 2, 81, 0
8, 216960, Note_on_c, 2, 79, 84
8, 216960, Note_on_c, 2, 76, 84
8, 217049, Note_on_c, 2, 79, 0
8, 217049, Note_on_c, 2, 76, 0
8, 217080, Note_on_c, 2, 77, 84
8, 217080, Note_on_c, 2, 81, 84
8, 217169, Note_on_c, 2, 77, 0
8, 217169, Note_on_c, 2, 81, 0
8, 217200, Note_on_c, 2, 82, 84
8, 217200, Note_on_c, 2, 79, 84
8, 217319, Note_on_c, 2, 82, 0
8, 217319, Note_on_c, 2, 79, 0
8, 217320, Note_on_c, 2, 84, 84
8, 217320, Note_on_c, 2, 81, 84
8, 217379, Note_on_c, 2, 84, 0
8, 217379, Note_on_c, 2, 81, 0
8, 217380, Note_on_c, 2, 79, 84
8, 217380, Note_on_c, 2, 82, 84
8, 217431, Note_on_c, 2, 79, 0
8, 217431, Note_on_c, 2, 82, 0
8, 217440, Note_on_c, 2, 77, 84
8, 217440, Note_on_c, 2, 81, 84
8, 217559, Note_on_c, 2, 77, 0
8, 217559, Note_on_c, 2, 81, 0
8, 217560, Note_on_c, 2, 84, 84
8, 217560, Note_on_c, 2, 81, 84
8, 217679, Note_on_c, 2, 84, 0
8, 217679, Note_on_c, 2, 81, 0
8, 217680, Note_on_c, 2, 84, 84
8, 217680, Note_on_c, 2, 81, 84
8, 217769, Note_on_c, 2, 84, 0
8, 217769, Note_on_c, 2, 81, 0
8, 217800, Note_on_c, 2, 81, 84
8, 217800, Note_on_c, 2, 84, 84
8, 217889, Note_on_c, 2, 81, 0
8, 217889, Note_on_c, 2, 84, 0
8, 217920, Note_on_c, 2, 81, 84
8, 217920, Note_on_c, 2, 84, 84
8, 218159, Note_on_c, 2, 81, 0
8, 218159, Note_on_c, 2, 84, 0
8, 218160, Note_on_c, 2, 79, 84
8, 218160, Note_on_c, 2, 82, 84
8, 218219, Note_on_c, 2, 79, 0
8, 218219, Note_on_c, 2, 82, 0
8, 218220, Note_on_c, 2, 77, 84
8, 218220, Note_on_c, 2, 81, 84
8, 218279, Note_on_c, 2, 77, 0
8, 218279, Note_on_c, 2, 81, 0
8, 218280, Note_on_c, 2, 79, 84
8, 218280, Note_on_c, 2, 76, 84
8, 218339, Note_on_c, 2, 79, 0
8, 218339, Note_on_c, 2, 76, 0
8, 218340, Note_on_c, 2, 74, 84
8, 218340, Note_on_c, 2, 77, 84
8, 218391, Note_on_c, 2, 74, 0
8, 218391, Note_on_c, 2, 77, 0
8, 218400, Note_on_c, 2, 72, 84
8, 218400, Note_on_c, 2, 76, 84
8, 218489, Note_on_c, 2, 72, 0
8, 218489, Note_on_c, 2, 76, 0
8, 218520, Note_on_c, 2, 74, 84
8, 218520, Note_on_c, 2, 77, 84
8, 218609, Note_on_c, 2, 74, 0
8, 218609, Note_on_c, 2, 77, 0
8, 218640, Note_on_c, 2, 79, 84
8, 218640, Note_on_c, 2, 76, 84
8, 218759, Note_on_c, 2, 79, 0
8, 218759, Note_on_c, 2, 76, 0
8, 218760, Note_on_c, 2, 81, 84
8, 218760, Note_on_c, 2, 77, 84
8, 218819, Note_on_c, 2, 81, 0
8, 218819, Note_on_c, 2, 77, 0
8, 218820, Note_on_c, 2, 76, 84
8, 218820, Note_on_c, 2, 79, 84
8, 218871, Note_on_c, 2, 76, 0
8, 218871, Note_on_c, 2, 79, 0
8, 218880, Note_on_c, 2, 74, 84
8, 218880, Note_on_c, 2, 77, 84
8, 218969, Note_on_c, 2, 74, 0
8, 218969, Note_on_c, 2, 77, 0
8, 219000, Note_on_c, 2, 76, 84
8, 219000, Note_on_c, 2, 79, 84
8, 219089, Note_on_c, 2, 76, 0
8, 219089, Note_on_c, 2, 79, 0
8, 219120, Note_on_c, 2, 77, 84
8, 219120, Note_on_c, 2, 81, 84
8, 219239, Note_on_c, 2, 77, 0
8, 219239, Note_on_c, 2, 81, 0
8, 219240, Note_on_c, 2, 82, 84
8, 219240, Note_on_c, 2, 79, 84
8, 219299, Note_on_c, 2, 82, 0
8, 219299, Note_on_c, 2, 79, 0
8, 219300, Note_on_c, 2, 81, 84
8, 219300, Note_on_c, 2, 77, 84
8, 219351, Note_on_c, 2, 81, 0
8, 219351, Note_on_c, 2, 77, 0
8, 219360, Note_on_c, 2, 79, 84
8, 219360, Note_on_c, 2, 76, 84
8, 219479, Note_on_c, 2, 79, 0
8, 219479, Note_on_c, 2, 76, 0
8, 219480, Note_on_c, 2, 79, 84
8, 219480, Note_on_c, 2, 82, 84
8, 219584, Note_on_c, 2, 79, 0
8, 219584, Note_on_c, 2, 82, 0
8, 219600, Note_on_c, 2, 82, 84
8, 219600, Note_on_c, 2, 79, 84
8, 219689, Note_on_c, 2, 82, 0
8, 219689, Note_on_c, 2, 79, 0
8, 219720, Note_on_c, 2, 79, 84
8, 219720, Note_on_c, 2, 82, 84
8, 219809, Note_on_c, 2, 79, 0
8, 219809, Note_on_c, 2, 82, 0
8, 219840, Note_on_c, 2, 82, 84
8, 219840, Note_on_c, 2, 79, 84
8, 220079, Note_on_c, 2, 82, 0
8, 220079, Note_on_c, 2, 79, 0
8, 220080, Note_on_c, 2, 84, 84
8, 220080, Note_on_c, 2, 81, 84
8, 220139, Note_on_c, 2, 84, 0
8, 220139, Note_on_c, 2, 81, 0
8, 220140, Note_on_c, 2, 79, 84
8, 220140, Note_on_c, 2, 82, 84
8, 220199, Note_on_c, 2, 79, 0
8, 220199, Note_on_c, 2, 82, 0
8, 220200, Note_on_c, 2, 81, 84
8, 220200, Note_on_c, 2, 77, 84
8, 220259, Note_on_c, 2, 81, 0
8, 220259, Note_on_c, 2, 77, 0
8, 220260, Note_on_c, 2, 79, 84
8, 220260, Note_on_c, 2, 76, 84
8, 220311, Note_on_c, 2, 79, 0
8, 220311, Note_on_c, 2, 76, 0
8, 220320, Note_on_c, 2, 81, 84
8, 220320, Note_on_c, 2, 77, 84
8, 220409, Note_on_c, 2, 81, 0
8, 220409, Note_on_c, 2, 77, 0
8, 220440, Note_on_c, 2, 82, 84
8, 220440, Note_on_c, 2, 79, 84
8, 220529, Note_on_c, 2, 82, 0
8, 220529, Note_on_c, 2, 79, 0
8, 220560, Note_on_c, 2, 84, 84
8, 220560, Note_on_c, 2, 81, 84
8, 220784, Note_on_c, 2, 84, 0
8, 220784, Note_on_c, 2, 81, 0
8, 220800, Note_on_c, 2, 79, 84
8, 220800, Note_on_c, 2, 82, 84
8, 220919, Note_on_c, 2, 79, 0
8, 220919, Note_on_c, 2, 82, 0
8, 220920, Note_on_c, 2, 79, 84
8, 220920, Note_on_c, 2, 76, 84
8, 221039, Note_on_c, 2, 79, 0
8, 221039, Note_on_c, 2, 76, 0
8, 221040, Note_on_c, 2, 79, 84
8, 221040, Note_on_c, 2, 82, 84
8, 221159, Note_on_c, 2, 79, 0
8, 221159, Note_on_c, 2, 82, 0
8, 221160, Note_on_c, 2, 76, 84
8, 221160, Note_on_c, 2, 79, 84
8, 221264, Note_on_c, 2, 76, 0
8, 221264, Note_on_c, 2, 79, 0
8, 221280, Note_on_c, 2, 77, 84
8, 221280, Note_on_c, 2, 81, 84
8, 221369, Note_on_c, 2, 77, 0
8, 221369, Note_on_c, 2, 81, 0
8, 221400, Note_on_c, 2, 79, 84
8, 221400, Note_on_c, 2, 82, 84
8, 221489, Note_on_c, 2, 79, 0
8, 221489, Note_on_c, 2, 82, 0
8, 221520, Note_on_c, 2, 84, 84
8, 221520, Note_on_c, 2, 81, 84
8, 221744, Note_on_c, 2, 84, 0
8, 221744, Note_on_c, 2, 81, 0
8, 221760, Note_on_c, 2, 82, 84
8, 221760, Note_on_c, 2, 79, 84
8, 221879, Note_on_c, 2, 82, 0
8, 221879, Note_on_c, 2, 79, 0
8, 221880, Note_on_c, 2, 76, 84
8, 221880, Note_on_c, 2, 79, 84
8, 221999, Note_on_c, 2, 76, 0
8, 221999, Note_on_c, 2, 79, 0
8, 222000, Note_on_c, 2, 82, 84
8, 222000, Note_on_c, 2, 79, 84
8, 222119, Note_on_c, 2, 82, 0
8, 222119, Note_on_c, 2, 79, 0
8, 222120, Note_on_c, 2, 79, 84
8, 222120, Note_on_c, 2, 76, 84
8, 222224, Note_on_c, 2, 79, 0
8, 222224, Note_on_c, 2, 76, 0
8, 222240, Note_on_c, 2, 81, 84
8, 222240, Note_on_c, 2, 77, 84
8, 222359, Note_on_c, 2, 81, 0
8, 222359, Note_on_c, 2, 77, 0
8, 222360, Note_on_c, 2, 76, 84
8, 222360, Note_on_c, 2, 79, 84
8, 222479, Note_on_c, 2, 76, 0
8, 222479, Note_on_c, 2, 79, 0
8, 222480, Note_on_c, 2, 79, 84
8, 222480, Note_on_c, 2, 82, 84
8, 222599, Note_on_c, 2, 79, 0
8, 222599, Note_on_c, 2, 82, 0
8, 222600, Note_on_c, 2, 76, 84
8, 222600, Note_on_c, 2, 79, 84
8, 222704, Note_on_c, 2, 76, 0
8, 222704, Note_on_c, 2, 79, 0
8, 222720, Note_on_c, 2, 77, 84
8, 222720, Note_on_c, 2, 81, 84
8, 222839, Note_on_c, 2, 77, 0
8, 222839, Note_on_c, 2, 81, 0
8, 222840, Note_on_c, 2, 79, 84
8, 222840, Note_on_c, 2, 76, 84
8, 222959, Note_on_c, 2, 79, 0
8, 222959, Note_on_c, 2, 76, 0
8, 222960, Note_on_c, 2, 82, 84
8, 222960, Note_on_c, 2, 79, 84
8, 223079, Note_on_c, 2, 82, 0
8, 223079, Note_on_c, 2, 79, 0
8, 223080, Note_on_c, 2, 76, 84
8, 223080, Note_on_c, 2, 79, 84
8, 223184, Note_on_c, 2, 76, 0
8, 223184, Note_on_c, 2, 79, 0
8, 223200, Note_on_c, 2, 81, 84
8, 223200, Note_on_c, 2, 77, 84
8, 223319, Note_on_c, 2, 81, 0
8, 223319, Note_on_c, 2, 77, 0
8, 239040, Control_c, 2, 11, 80
8, 239520, Control_c, 2, 11, 80
8, 239520, Note_on_c, 2, 86, 76
8, 239622, Control_c, 2, 11, 81
8, 239639, Note_on_c, 2, 86, 0
8, 239640, Note_on_c, 2, 84, 76
8, 239724, Control_c, 2, 11, 82
8, 239759, Note_on_c, 2, 84, 0
8, 239760, Note_on_c, 2, 82, 76
8, 239826, Control_c, 2, 11, 83
8, 239879, Note_on_c, 2, 82, 0
8, 239880, Note_on_c, 2, 79, 76
8, 239929, Control_c, 2, 11, 84
8, 239999, Note_on_c, 2, 79, 0
8, 240000, Note_on_c, 2, 72, 76
8, 240031, Control_c, 2, 11, 85
8, 240119, Note_on_c, 2, 72, 0
8, 240120, Note_on_c, 2, 82, 76
8, 240133, Control_c, 2, 11, 86
8, 240235, Control_c, 2, 11, 87
8, 240239, Note_on_c, 2, 82, 0
8, 240240, Note_on_c, 2, 79, 76
8, 240337, Control_c, 2, 11, 88
8, 240359, Note_on_c, 2, 79, 0
8, 240360, Note_on_c, 2, 72, 76
8, 240439, Control_c, 2, 11, 89
8, 240464, Note_on_c, 2, 72, 0
8, 240480, Note_on_c, 2, 86, 76
8, 240541, Control_c, 2, 11, 90
8, 240599, Note_on_c, 2, 86, 0
8, 240600, Note_on_c, 2, 84, 76
8, 240643, Control_c, 2, 11, 91
8, 240719, Note_on_c, 2, 84, 0
8, 240720, Note_on_c, 2, 81, 76
8, 240746, Control_c, 2, 11, 92
8, 240839, Note_on_c, 2, 81, 0
8, 240840, Note_on_c, 2, 77, 76
8, 240848, Control_c, 2, 11, 93
8, 240950, Control_c, 2, 11, 94
8, 240959, Note_on_c, 2, 77, 0
8, 240960, Note_on_c, 2, 72, 76
8, 241052, Control_c, 2, 11, 95
8, 241079, Note_on_c, 2, 72, 0
8, 241080, Note_on_c, 2, 81, 76
8, 241154, Control_c, 2, 11, 96
8, 241199, Note_on_c, 2, 81, 0
8, 241200, Note_on_c, 2, 77, 76
8, 241256, Control_c, 2, 11, 97
8, 241319, Note_on_c, 2, 77, 0
8, 241320, Note_on_c, 2, 72, 76
8, 241358, Control_c, 2, 11, 98
8, 241424, Note_on_c, 2, 72, 0
8, 241440, Note_on_c, 2, 86, 76
8, 241440, Note_on_c, 2, 72, 76
8, 241460, Control_c, 2, 11, 99
8, 241559, Note_on_c, 2, 86, 0
8, 241560, Note_on_c, 2, 84, 76
8, 241563, Control_c, 2, 11, 100
8, 241665, Control_c, 2, 11, 101
8, 241679, Note_on_c, 2, 84, 0
8, 241680, Note_on_c, 2, 82, 76
8, 241767, Control_c, 2, 11, 102
8, 241799, Note_on_c, 2, 82, 0
8, 241800, Note_on_c, 2, 79, 76
8, 241869, Control_c, 2, 11, 103
8, 241919, Note_on_c, 2, 79, 0
8, 241971, Control_c, 2, 11, 104
8, 242040, Note_on_c, 2, 82, 76
8, 242073, Control_c, 2, 11, 105
8, 242159, Note_on_c, 2, 82, 0
8, 242160, Note_on_c, 2, 79, 76
8, 242175, Control_c, 2, 11, 106
8, 242277, Control_c, 2, 11, 107
8, 242279, Note_on_c, 2, 79, 0
8, 242380, Control_c, 2, 11, 108
8, 242384, Note_on_c, 2, 72, 0
8, 242400, Note_on_c, 2, 86, 76
8, 242400, Note_on_c, 2, 77, 76
8, 242482, Control_c, 2, 11, 109
8, 242519, Note_on_c, 2, 86, 0
8, 242520, Note_on_c, 2, 84, 76
8, 242584, Control_c, 2, 11, 110
8, 242639, Note_on_c, 2, 84, 0
8, 242640, Note_on_c, 2, 81, 76
8, 242686, Control_c, 2, 11, 111
8, 242759, Note_on_c, 2, 81, 0
8, 242788, Control_c, 2, 11, 112
8, 242880, Note_on_c, 2, 72, 76
8, 242890, Control_c, 2, 11, 113
8, 242992, Control_c, 2, 11, 114
8, 242999, Note_on_c, 2, 72, 0
8, 243000, Note_on_c, 2, 81, 76
8, 243094, Control_c, 2, 11, 115
8, 243119, Note_on_c, 2, 81, 0
8, 243197, Control_c, 2, 11, 116
8, 243240, Note_on_c, 2, 72, 76
8, 243299, Control_c, 2, 11, 117
8, 243344, Note_on_c, 2, 77, 0
8, 243344, Note_on_c, 2, 72, 0
8, 243360, Note_on_c, 2, 86, 76
8, 243360, Note_on_c, 2, 76, 76
8, 243401, Control_c, 2, 11, 118
8, 243479, Note_on_c, 2, 86, 0
8, 243480, Note_on_c, 2, 84, 76
8, 243503, Control_c, 2, 11, 119
8, 243584, Note_on_c, 2, 76, 0
8, 243599, Note_on_c, 2, 84, 0
8, 243600, Note_on_c, 2, 82, 76
8, 243600, Note_on_c, 2, 76, 76
8, 243605, Control_c, 2, 11, 120
8, 243707, Control_c, 2, 11, 121
8, 243719, Note_on_c, 2, 82, 0
8, 243720, Note_on_c, 2, 79, 76
8, 243809, Control_c, 2, 11, 122
8, 243824, Note_on_c, 2, 76, 0
8, 243839, Note_on_c, 2, 79, 0
8, 243840, Note_on_c, 2, 72, 76
8, 243840, Note_on_c, 2, 76, 76
8, 243911, Control_c, 2, 11, 123
8, 243959, Note_on_c, 2, 72, 0
8, 243960, Note_on_c, 2, 82, 76
8, 244014, Control_c, 2, 11, 124
8, 244079, Note_on_c, 2, 76, 0
8, 244079, Note_on_c, 2, 82, 0
8, 244080, Note_on_c, 2, 79, 76
8, 244116, Control_c, 2, 11, 125
8, 244199, Note_on_c, 2, 79, 0
8, 244200, Note_on_c, 2, 72, 76
8, 244200, Note_on_c, 2, 76, 76
8, 244218, Control_c, 2, 11, 127
8, 244304, Note_on_c, 2, 72, 0
8, 244304, Note_on_c, 2, 76, 0
8, 244320, Note_on_c, 2, 81, 76
8, 244320, Note_on_c, 2, 72, 76
8, 244439, Note_on_c, 2, 81, 0
8, 244439, Note_on_c, 2, 72, 0
8, 245760, Note_on_c, 2, 77, 76
8, 245760, Note_on_c, 2, 74, 76
8, 245879, Note_on_c, 2, 77, 0
8, 245879, Note_on_c, 2, 74, 0
8, 249120, Note_on_c, 2, 74, 76
8, 249120, Note_on_c, 2, 77, 76
8, 249239, Note_on_c, 2, 74, 0
8, 249239, Note_on_c, 2, 77, 0
8, 251160, Note_on_c, 2, 69, 53
8, 251160, Note_on_c, 2, 65, 53
8, 251279, Note_on_c, 2, 69, 0
8, 251279, Note_on_c, 2, 65, 0
8, 251280, Note_on_c, 2, 70, 55
8, 251280, Note_on_c, 2, 67, 55
8, 251399, Note_on_c, 2, 70, 0
8, 251399, Note_on_c, 2, 67, 0
8, 251400, Note_on_c, 2, 72, 56
8, 251400, Note_on_c, 2, 69, 56
8, 251504, Note_on_c, 2, 72, 0
8, 251504, Note_on_c, 2, 69, 0
8, 251520, Note_on_c, 2, 70, 58
8, 251520, Note_on_c, 2, 74, 58
8, 251639, Note_on_c, 2, 70, 0
8, 251639, Note_on_c, 2, 74, 0
8, 252960, Note_on_c, 2, 81, 76
8, 252960, Note_on_c, 2, 77, 76
8, 253079, Note_on_c, 2, 81, 0
8, 253079, Note_on_c, 2, 77, 0
8, 253200, Note_on_c, 2, 84, 76
8, 253200, Note_on_c, 2, 77, 76
8, 253319, Note_on_c, 2, 84, 0
8, 253319, Note_on_c, 2, 77, 0
8, 253440, Note_on_c, 2, 77, 76
8, 253440, Note_on_c, 2, 86, 76
8, 253559, Note_on_c, 2, 77, 0
8, 253559, Note_on_c, 2, 86, 0
8, 253680, Note_on_c, 2, 82, 76
8, 253680, Note_on_c, 2, 74, 76
8, 253799, Note_on_c, 2, 82, 0
8, 253799, Note_on_c, 2, 74, 0
8, 253920, Note_on_c, 2, 81, 76
8, 253920, Note_on_c, 2, 72, 76
8, 254039, Note_on_c, 2, 81, 0
8, 254039, Note_on_c, 2, 72, 0
8, 254160, Note_on_c, 2, 69, 76
8, 254160, Note_on_c, 2, 77, 76
8, 254279, Note_on_c, 2, 69, 0
8, 254279, Note_on_c, 2, 77, 0
8, 254400, Note_on_c, 2, 76, 76
8, 254400, Note_on_c, 2, 67, 76
8, 254519, Note_on_c, 2, 76, 0
8, 254519, Note_on_c, 2, 67, 0
8, 254640, Note_on_c, 2, 76, 76
8, 254640, Note_on_c, 2, 67, 76
8, 254759, Note_on_c, 2, 76, 0
8, 254759, Note_on_c, 2, 67, 0
8, 254880, Note_on_c, 2, 77, 76
8, 254880, Note_on_c, 2, 69, 76
8, 255119, Note_on_c, 2, 77, 0
8, 255119, Note_on_c, 2, 69, 0
8, 255120, Note_on_c, 2, 72, 76
8, 255824, Note_on_c, 2, 72, 0
8, 255840, Note_on_c, 2, 81, 76
8, 256079, Note_on_c, 2, 81, 0
8, 256080, Note_on_c, 2, 77, 76
8, 256784, Note_on_c, 2, 77, 0
8, 256800, Note_on_c, 2, 77, 76
8, 257039, Note_on_c, 2, 77, 0
8, 257040, Note_on_c, 2, 72, 76
8, 257744, Note_on_c, 2, 72, 0
8, 257760, Note_on_c, 2, 81, 76
8, 257999, Note_on_c, 2, 81, 0
8, 258000, Note_on_c, 2, 77, 76
8, 258720, Control_c, 2, 11, 127
8, 258800, Control_c, 2, 11, 125
8, 258880, Control_c, 2, 11, 123
8, 258959, Note_on_c, 2, 77, 0
8, 258960, Note_on_c, 2, 72, 76
8, 258960, Control_c, 2, 11, 121
8, 259040, Control_c, 2, 11, 119
8, 259120, Control_c, 2, 11, 117
8, 259199, Note_on_c, 2, 72, 0
8, 259200, Note_on_c, 2, 77, 76
8, 259200, Control_c, 2, 11, 115
8, 259280, Control_c, 2, 11, 113
8, 259360, Control_c, 2, 11, 111
8, 259439, Note_on_c, 2, 77, 0
8, 259440, Note_on_c, 2, 72, 76
8, 259440, Control_c, 2, 11, 109
8, 259520, Control_c, 2, 11, 107
8, 259600, Control_c, 2, 11, 105
8, 259679, Note_on_c, 2, 72, 0
8, 259680, Control_c, 2, 11, 104
8, 259680, Note_on_c, 2, 77, 76
8, 259760, Control_c, 2, 11, 102
8, 259840, Control_c, 2, 11, 100
8, 259919, Note_on_c, 2, 77, 0
8, 259920, Note_on_c, 2, 72, 76
8, 259920, Control_c, 2, 11, 98
8, 260000, Control_c, 2, 11, 96
8, 260080, Control_c, 2, 11, 94
8, 260159, Note_on_c, 2, 72, 0
8, 260160, Control_c, 2, 11, 92
8, 260160, Note_on_c, 2, 77, 76
8, 260240, Control_c, 2, 11, 90
8, 260320, Control_c, 2, 11, 88
8, 260399, Note_on_c, 2, 77, 0
8, 260400, Control_c, 2, 11, 86
8, 260400, Note_on_c, 2, 72, 76
8, 260480, Control_c, 2, 11, 84
8, 260560, Control_c, 2, 11, 80
8, 260639, Note_on_c, 2, 72, 0
8, 260640, Note_on_c, 2, 77, 76
8, 260759, Note_on_c, 2, 77, 0
8, 266160, Control_c, 2, 11, 127
8, 266400, Note_on_c, 2, 75, 44
8, 266400, Note_on_c, 2, 69, 44
8, 267344, Note_on_c, 2, 75, 0
8, 267344, Note_on_c, 2, 69, 0
8, 267360, Note_on_c, 2, 75, 44
8, 267360, Note_on_c, 2, 69, 44
8, 268319, Note_on_c, 2, 75, 0
8, 268319, Note_on_c, 2, 69, 0
8, 270240, Note_on_c, 2, 82, 52
8, 270329, Note_on_c, 2, 82, 0
8, 270360, Note_on_c, 2, 81, 52
8, 270449, Note_on_c, 2, 81, 0
8, 270480, Note_on_c, 2, 82, 52
8, 270711, Note_on_c, 2, 82, 0
8, 270720, Note_on_c, 2, 81, 52
8, 270809, Note_on_c, 2, 81, 0
8, 270840, Note_on_c, 2, 82, 52
8, 270929, Note_on_c, 2, 82, 0
8, 270960, Note_on_c, 2, 81, 52
8, 271191, Note_on_c, 2, 81, 0
8, 271200, Note_on_c, 2, 82, 52
8, 271319, Note_on_c, 2, 82, 0
8, 276000, Note_on_c, 2, 76, 52
8, 276319, Note_on_c, 2, 76, 0
8, 276320, Note_on_c, 2, 77, 52
8, 276399, Note_on_c, 2, 77, 0
8, 276400, Note_on_c, 2, 79, 52
8, 276467, Note_on_c, 2, 79, 0
8, 276480, Note_on_c, 2, 72, 52
8, 276799, Note_on_c, 2, 72, 0
8, 276800, Note_on_c, 2, 74, 52
8, 276879, Note_on_c, 2, 74, 0
8, 276880, Note_on_c, 2, 76, 52
8, 276947, Note_on_c, 2, 76, 0
8, 276960, Note_on_c, 2, 77, 76
8, 277199, Note_on_c, 2, 77, 0
8, 277200, Note_on_c, 2, 72, 76
8, 277904, Note_on_c, 2, 72, 0
8, 277920, Note_on_c, 2, 81, 76
8, 278159, Note_on_c, 2, 81, 0
8, 278160, Note_on_c, 2, 77, 76
8, 278864, Note_on_c, 2, 77, 0
8, 278880, Note_on_c, 2, 77, 76
8, 279119, Note_on_c, 2, 77, 0
8, 279120, Note_on_c, 2, 72, 76
8, 279824, Note_on_c, 2, 72, 0
8, 279840, Note_on_c, 2, 81, 76
8, 280079, Note_on_c, 2, 81, 0
8, 280080, Note_on_c, 2, 77, 76
8, 280784, Note_on_c, 2, 77, 0
8, 280800, Note_on_c, 2, 81, 84
8, 281039, Note_on_c, 2, 81, 0
8, 281040, Note_on_c, 2, 77, 76
8, 281264, Note_on_c, 2, 77, 0
8, 281280, Note_on_c, 2, 81, 84
8, 281519, Note_on_c, 2, 81, 0
8, 281520, Note_on_c, 2, 77, 76
8, 281744, Note_on_c, 2, 77, 0
8, 281760, Note_on_c, 2, 81, 84
8, 281999, Note_on_c, 2, 81, 0
8, 282000, Note_on_c, 2, 77, 76
8, 282224, Note_on_c, 2, 77, 0
8, 282240, Note_on_c, 2, 79, 84
8, 282479, Note_on_c, 2, 79, 0
8, 282480, Note_on_c, 2, 76, 76
8, 282704, Note_on_c, 2, 76, 0
8, 282720, Note_on_c, 2, 81, 84
8, 282959, Note_on_c, 2, 81, 0
8, 282960, Note_on_c, 2, 77, 76
8, 283184, Note_on_c, 2, 77, 0
8, 283200, Note_on_c, 2, 81, 84
8, 283439, Note_on_c, 2, 81, 0
8, 283440, Note_on_c, 2, 77, 76
8, 283664, Note_on_c, 2, 77, 0
8, 283680, Note_on_c, 2, 81, 84
8, 283919, Note_on_c, 2, 81, 0
8, 283920, Note_on_c, 2, 77, 76
8, 284144, Note_on_c, 2, 77, 0
8, 284160, Note_on_c, 2, 79, 84
8, 284399, Note_on_c, 2, 79, 0
8, 284400, Note_on_c, 2, 76, 76
8, 284624, Note_on_c, 2, 76, 0
8, 284640, Note_on_c, 2, 81, 84
8, 284879, Note_on_c, 2, 81, 0
8, 284880, Note_on_c, 2, 77, 76
8, 285104, Note_on_c, 2, 77, 0
8, 285120, Note_on_c, 2, 81, 84
8, 285359, Note_on_c, 2, 81, 0
8, 285360, Note_on_c, 2, 77, 76
8, 285584, Note_on_c, 2, 77, 0
8, 285600, Note_on_c, 2, 81, 84
8, 285600, Note_on_c, 2, 77, 84
8, 286679, Note_on_c, 2, 81, 0
8, 286679, Note_on_c, 2, 77, 0
8, 291360, Note_on_c, 2, 79, 76
8, 291360, Note_on_c, 2, 82, 76
8, 291824, Note_on_c, 2, 79, 0
8, 291824, Note_on_c, 2, 82, 0
8, 291840, Note_on_c, 2, 77, 76
8, 291840, Note_on_c, 2, 81, 76
8, 291959, Note_on_c, 2, 77, 0
8, 291959, Note_on_c, 2, 81, 0
8, 292080, Note_on_c, 2, 76, 76
8, 292080, Note_on_c, 2, 79, 76
8, 292199, Note_on_c, 2, 76, 0
8, 292199, Note_on_c, 2, 79, 0
8, 293280, Note_on_c, 2, 82, 76
8, 293280, Note_on_c, 2, 79, 76
8, 293744, Note_on_c, 2, 82, 0
8, 293744, Note_on_c, 2, 79, 0
8, 293760, Note_on_c, 2, 81, 76
8, 293760, Note_on_c, 2, 77, 76
8, 293879, Note_on_c, 2, 81, 0
8, 293879, Note_on_c, 2, 77, 0
8, 294000, Note_on_c, 2, 76, 76
8, 294000, Note_on_c, 2, 79, 76
8, 294119, Note_on_c, 2, 76, 0
8, 294119, Note_on_c, 2, 79, 0
8, 294240, Note_on_c, 2, 69, 76
8, 294240, Note_on_c, 2, 77, 76
8, 294359, Note_on_c, 2, 69, 0
8, 294359, Note_on_c, 2, 77, 0
8, 295680, Note_on_c, 2, 79, 76
8, 295680, Note_on_c, 2, 82, 76
8, 296024, Note_on_c, 2, 79, 0
8, 296024, Note_on_c, 2, 82, 0
8, 296040, Note_on_c, 2, 79, 76
8, 296040, Note_on_c, 2, 82, 76
8, 296144, Note_on_c, 2, 79, 0
8, 296144, Note_on_c, 2, 82, 0
8, 296160, Note_on_c, 2, 77, 76
8, 296160, Note_on_c, 2, 81, 76
8, 296279, Note_on_c, 2, 77, 0
8, 296279, Note_on_c, 2, 81, 0
8, 297600, Note_on_c, 2, 79, 76
8, 297600, Note_on_c, 2, 82, 76
8, 297944, Note_on_c, 2, 79, 0
8, 297944, Note_on_c, 2, 82, 0
8, 297960, Note_on_c, 2, 79, 76
8, 297960, Note_on_c, 2, 82, 76
8, 298064, Note_on_c, 2, 79, 0
8, 298064, Note_on_c, 2, 82, 0
8, 298080, Note_on_c, 2, 77, 76
8, 298080, Note_on_c, 2, 81, 76
8, 298199, Note_on_c, 2, 77, 0
8, 298199, Note_on_c, 2, 81, 0
8, 298560, Note_on_c, 2, 82, 76
8, 298560, Note_on_c, 2, 79, 76
8, 298904, Note_on_c, 2, 82, 0
8, 298904, Note_on_c, 2, 79, 0
8, 298920, Note_on_c, 2, 82, 76
8, 298920, Note_on_c, 2, 79, 76
8, 299024, Note_on_c, 2, 82, 0
8, 299024, Note_on_c, 2, 79, 0
8, 299040, Note_on_c, 2, 77, 76
8, 299040, Note_on_c, 2, 81, 76
8, 299159, Note_on_c, 2, 77, 0
8, 299159, Note_on_c, 2, 81, 0
8, 299520, Note_on_c, 2, 79, 76
8, 299520, Note_on_c, 2, 82, 76
8, 299864, Note_on_c, 2, 79, 0
8, 299864, Note_on_c, 2, 82, 0
8, 299880, Note_on_c, 2, 82, 76
8, 299880, Note_on_c, 2, 79, 76
8, 299984, Note_on_c, 2, 82, 0
8, 299984, Note_on_c, 2, 79, 0
8, 300000, Note_on_c, 2, 81, 76
8, 300000, Note_on_c, 2, 77, 76
8, 300119, Note_on_c, 2, 81, 0
8, 300119, Note_on_c, 2, 77, 0
8, 300480, Note_on_c, 2, 77, 68
8, 300480, Note_on_c, 2, 81, 68
8, 300599, Note_on_c, 2, 77, 0
8, 300599, Note_on_c, 2, 81, 0
8, 300960, Note_on_c, 2, 81, 60
8, 300960, Note_on_c, 2, 77, 60
8, 301079, Note_on_c, 2, 81, 0
8, 301079, Note_on_c, 2, 77, 0
8, 301440, Note_on_c, 2, 77, 52
8, 301440, Note_on_c, 2, 81, 52
8, 301559, Note_on_c, 2, 77, 0
8, 301559, Note_on_c, 2, 81, 0
8, 301920, Note_on_c, 2, 81, 44
8, 301920, Note_on_c, 2, 77, 44
8, 302039, Note_on_c, 2, 81, 0
8, 302039, Note_on_c, 2, 77, 0
8, 308160, Note_on_c, 2, 82, 76
8, 308160, Note_on_c, 2, 70, 76
8, 308249, Note_on_c, 2, 82, 0
8, 308249, Note_on_c, 2, 70, 0
8, 308280, Note_on_c, 2, 72, 76
8, 308280, Note_on_c, 2, 84, 76
8, 308369, Note_on_c, 2, 72, 0
8, 308369, Note_on_c, 2, 84, 0
8, 308400, Note_on_c, 2, 86, 76
8, 308400, Note_on_c, 2, 74, 76
8, 308489, Note_on_c, 2, 86, 0
8, 308489, Note_on_c, 2, 74, 0
8, 308520, Note_on_c, 2, 76, 76
8, 308609, Note_on_c, 2, 76, 0
8, 308640, Note_on_c, 2, 77, 84
8, 308700, Control_c, 2, 11, 112
8, 309104, Note_on_c, 2, 77, 0
8, 309118, Control_c, 2, 11, 127
8, 309120, Note_on_c, 2, 79, 84
8, 309120, Note_on_c, 2, 76, 84
8, 309180, Control_c, 2, 11, 112
8, 309584, Note_on_c, 2, 79, 0
8, 309584, Note_on_c, 2, 76, 0
8, 309598, Control_c, 2, 11, 127
8, 309600, Note_on_c, 2, 81, 84
8, 309600, Note_on_c, 2, 77, 84
8, 309660, Control_c, 2, 11, 112
8, 310064, Note_on_c, 2, 81, 0
8, 310064, Note_on_c, 2, 77, 0
8, 310078, Control_c, 2, 11, 127
8, 310080, Note_on_c, 2, 77, 76
8, 310080, Note_on_c, 2, 81, 76
8, 310259, Note_on_c, 2, 77, 0
8, 310259, Note_on_c, 2, 81, 0
8, 310320, Note_on_c, 2, 81, 76
8, 310320, Note_on_c, 2, 77, 76
8, 310499, Note_on_c, 2, 81, 0
8, 310499, Note_on_c, 2, 77, 0
8, 310560, Note_on_c, 2, 81, 76
8, 310560, Note_on_c, 2, 77, 76
8, 311024, Note_on_c, 2, 81, 0
8, 311024, Note_on_c, 2, 77, 0
8, 311040, Note_on_c, 2, 72, 52
8, 311040, Note_on_c, 2, 81, 52
8, 311504, Note_on_c, 2, 72, 0
8, 311504, Note_on_c, 2, 81, 0
8, 311520, Note_on_c, 2, 72, 52
8, 311520, Note_on_c, 2, 81, 52
8, 311999, Note_on_c, 2, 72, 0
8, 311999, Note_on_c, 2, 81, 0
8, 311999, End_track
9, 0, Start_track
9, 0, Title_t, "Clarinet in B-flat "
9, 0, MIDI_port, 0
9, 0, Program_c, 3, 71
9, 0, Control_c, 3, 7, 88
9, 0, Control_c, 3, 10, 75
9, 0, Control_c, 3, 11, 127
9, 12600, Note_on_c, 3, 70, 52
9, 12659, Note_on_c, 3, 70, 0
9, 12660, Note_on_c, 3, 72, 52
9, 12711, Note_on_c, 3, 72, 0
9, 12720, Note_on_c, 3, 74, 52
9, 12809, Note_on_c, 3, 74, 0
9, 12840, Note_on_c, 3, 76, 52
9, 12929, Note_on_c, 3, 76, 0
9, 12960, Note_on_c, 3, 77, 52
9, 13079, Note_on_c, 3, 77, 0
9, 15480, Note_on_c, 3, 69, 53
9, 15480, Note_on_c, 3, 65, 53
9, 15569, Note_on_c, 3, 69, 0
9, 15569, Note_on_c, 3, 65, 0
9, 15600, Note_on_c, 3, 70, 55
9, 15600, Note_on_c, 3, 67, 55
9, 15689, Note_on_c, 3, 70, 0
9, 15689, Note_on_c, 3, 67, 0
9, 15720, Note_on_c, 3, 70, 56
9, 15720, Note_on_c, 3, 74, 56
9, 15809, Note_on_c, 3, 70, 0
9, 15809, Note_on_c, 3, 74, 0
9, 15840, Note_on_c, 3, 72, 58
9, 15840, Note_on_c, 3, 69, 58
9, 15959, Note_on_c, 3, 72, 0
9, 15959, Note_on_c, 3, 69, 0
9, 15960, Note_on_c, 3, 67, 59
9, 15960, Note_on_c, 3, 70, 59
9, 16019, Note_on_c, 3, 67, 0
9, 16019, Note_on_c, 3, 70, 0
9, 16020, Note_on_c, 3, 65, 60
9, 16020, Note_on_c, 3, 69, 60
9, 16071, Note_on_c, 3, 65, 0
9, 16071, Note_on_c, 3, 69, 0
9, 16080, Note_on_c, 3, 64, 61
9, 16080, Note_on_c, 3, 67, 61
9, 16169, Note_on_c, 3, 64, 0
9, 16169, Note_on_c, 3, 67, 0
9, 16200, Note_on_c, 3, 60, 62
9, 16289, Note_on_c, 3, 60, 0
9, 16320, Note_on_c, 3, 65, 64
9, 16409, Note_on_c, 3, 65, 0
9, 16440, Note_on_c, 3, 64, 65
9, 16440, Note_on_c, 3, 67, 65
9, 16529, Note_on_c, 3, 64, 0
9, 16529, Note_on_c, 3, 67, 0
9, 16560, Note_on_c, 3, 69, 67
9, 16560, Note_on_c, 3, 65, 67
9, 16679, Note_on_c, 3, 69, 0
9, 16679, Note_on_c, 3, 65, 0
9, 16680, Note_on_c, 3, 67, 68
9, 16680, Note_on_c, 3, 70, 68
9, 16739, Note_on_c, 3, 67, 0
9, 16739, Note_on_c, 3, 70, 0
9, 16740, Note_on_c, 3, 65, 69
9, 16740, Note_on_c, 3, 69, 69
9, 16791, Note_on_c, 3, 65, 0
9, 16791, Note_on_c, 3, 69, 0
9, 16800, Note_on_c, 3, 67, 70
9, 16800, Note_on_c, 3, 64, 70
9, 16889, Note_on_c, 3, 67, 0
9, 16889, Note_on_c, 3, 64, 0
9, 16920, Note_on_c, 3, 65, 71
9, 16920, Note_on_c, 3, 69, 71
9, 17009, Note_on_c, 3, 65, 0
9, 17009, Note_on_c, 3, 69, 0
9, 17040, Note_on_c, 3, 67, 73
9, 17040, Note_on_c, 3, 70, 73
9, 17159, Note_on_c, 3, 67, 0
9, 17159, Note_on_c, 3, 70, 0
9, 17160, Note_on_c, 3, 69, 74
9, 17160, Note_on_c, 3, 72, 74
9, 17219, Note_on_c, 3, 69, 0
9, 17219, Note_on_c, 3, 72, 0
9, 17220, Note_on_c, 3, 67, 75
9, 17220, Note_on_c, 3, 70, 75
9, 17271, Note_on_c, 3, 67, 0
9, 17271, Note_on_c, 3, 70, 0
9, 17280, Note_on_c, 3, 65, 76
9, 17280, Note_on_c, 3, 69, 76
9, 17369, Note_on_c, 3, 65, 0
9, 17369, Note_on_c, 3, 69, 0
9, 17400, Note_on_c, 3, 69, 76
9, 17400, Note_on_c, 3, 81, 76
9, 17489, Note_on_c, 3, 69, 0
9, 17489, Note_on_c, 3, 81, 0
9, 17520, Note_on_c, 3, 82, 76
9, 17520, Note_on_c, 3, 70, 76
9, 17609, Note_on_c, 3, 82, 0
9, 17609, Note_on_c, 3, 70, 0
9, 17640, Note_on_c, 3, 74, 76
9, 17729, Note_on_c, 3, 74, 0
9, 17760, Note_on_c, 3, 72, 76
9, 17879, Note_on_c, 3, 72, 0
9, 17880, Note_on_c, 3, 70, 76
9, 17939, Note_on_c, 3, 70, 0
9, 17940, Note_on_c, 3, 69, 76
9, 17991, Note_on_c, 3, 69, 0
9, 18000, Note_on_c, 3, 67, 76
9, 18089, Note_on_c, 3, 67, 0
9, 18120, Note_on_c, 3, 60, 76
9, 18209, Note_on_c, 3, 60, 0
9, 18240, Note_on_c, 3, 65, 76
9, 18329, Note_on_c, 3, 65, 0
9, 18360, Note_on_c, 3, 64, 76
9, 18360, Note_on_c, 3, 67, 76
9, 18449, Note_on_c, 3, 64, 0
9, 18449, Note_on_c, 3, 67, 0
9, 18480, Note_on_c, 3, 65, 76
9, 18480, Note_on_c, 3, 69, 76
9, 18599, Note_on_c, 3, 65, 0
9, 18599, Note_on_c, 3, 69, 0
9, 18600, Note_on_c, 3, 67, 76
9, 18600, Note_on_c, 3, 70, 76
9, 18659, Note_on_c, 3, 67, 0
9, 18659, Note_on_c, 3, 70, 0
9, 18660, Note_on_c, 3, 65, 76
9, 18660, Note_on_c, 3, 69, 76
9, 18711, Note_on_c, 3, 65, 0
9, 18711, Note_on_c, 3, 69, 0
9, 18720, Note_on_c, 3, 64, 76
9, 18720, Note_on_c, 3, 67, 76
9, 18809, Note_on_c, 3, 64, 0
9, 18809, Note_on_c, 3, 67, 0
9, 18840, Note_on_c, 3, 65, 76
9, 18840, Note_on_c, 3, 69, 76
9, 18929, Note_on_c, 3, 65, 0
9, 18929, Note_on_c, 3, 69, 0
9, 18960, Note_on_c, 3, 70, 76
9, 18960, Note_on_c, 3, 67, 76
9, 19079, Note_on_c, 3, 70, 0
9, 19079, Note_on_c, 3, 67, 0
9, 19080, Note_on_c, 3, 69, 76
9, 19080, Note_on_c, 3, 72, 76
9, 19139, Note_on_c, 3, 69, 0
9, 19139, Note_on_c, 3, 72, 0
9, 19140, Note_on_c, 3, 67, 76
9, 19140, Note_on_c, 3, 70, 76
9, 19191, Note_on_c, 3, 67, 0
9, 19191, Note_on_c, 3, 70, 0
9, 19200, Note_on_c, 3, 65, 76
9, 19200, Note_on_c, 3, 69, 76
9, 19319, Note_on_c, 3, 65, 0
9, 19319, Note_on_c, 3, 69, 0
9, 19320, Note_on_c, 3, 72, 76
9, 19320, Note_on_c, 3, 69, 76
9, 19424, Note_on_c, 3, 72, 0
9, 19424, Note_on_c, 3, 69, 0
9, 19440, Note_on_c, 3, 69, 76
9, 19440, Note_on_c, 3, 72, 76
9, 19529, Note_on_c, 3, 69, 0
9, 19529, Note_on_c, 3, 72, 0
9, 19560, Note_on_c, 3, 69, 76
9, 19560, Note_on_c, 3, 72, 76
9, 19649, Note_on_c, 3, 69, 0
9, 19649, Note_on_c, 3, 72, 0
9, 19680, Note_on_c, 3, 72, 76
9, 19680, Note_on_c, 3, 69, 76
9, 19919, Note_on_c, 3, 72, 0
9, 19919, Note_on_c, 3, 69, 0
9, 19920, Note_on_c, 3, 70, 76
9, 19920, Note_on_c, 3, 67, 76
9, 19979, Note_on_c, 3, 70, 0
9, 19979, Note_on_c, 3, 67, 0
9, 19980, Note_on_c, 3, 65, 76
9, 19980, Note_on_c, 3, 69, 76
9, 20039, Note_on_c, 3, 65, 0
9, 20039, Note_on_c, 3, 69, 0
9, 20040, Note_on_c, 3, 67, 76
9, 20040, Note_on_c, 3, 64, 76
9, 20099, Note_on_c, 3, 67, 0
9, 20099, Note_on_c, 3, 64, 0
9, 20100, Note_on_c, 3, 62, 76
9, 20100, Note_on_c, 3, 65, 76
9, 20151, Note_on_c, 3, 62, 0
9, 20151, Note_on_c, 3, 65, 0
9, 20160, Note_on_c, 3, 64, 76
9, 20160, Note_on_c, 3, 60, 76
9, 20249, Note_on_c, 3, 64, 0
9, 20249, Note_on_c, 3, 60, 0
9, 20280, Note_on_c, 3, 65, 76
9, 20280, Note_on_c, 3, 62, 76
9, 20369, Note_on_c, 3, 65, 0
9, 20369, Note_on_c, 3, 62, 0
9, 20400, Note_on_c, 3, 67, 76
9, 20400, Note_on_c, 3, 64, 76
9, 20519, Note_on_c, 3, 67, 0
9, 20519, Note_on_c, 3, 64, 0
9, 20520, Note_on_c, 3, 69, 76
9, 20520, Note_on_c, 3, 65, 76
9, 20579, Note_on_c, 3, 69, 0
9, 20579, Note_on_c, 3, 65, 0
9, 20580, Note_on_c, 3, 67, 76
9, 20580, Note_on_c, 3, 64, 76
9, 20631, Note_on_c, 3, 67, 0
9, 20631, Note_on_c, 3, 64, 0
9, 20640, Note_on_c, 3, 65, 76
9, 20640, Note_on_c, 3, 62, 76
9, 20729, Note_on_c, 3, 65, 0
9, 20729, Note_on_c, 3, 62, 0
9, 20760, Note_on_c, 3, 64, 76
9, 20760, Note_on_c, 3, 67, 76
9, 20849, Note_on_c, 3, 64, 0
9, 20849, Note_on_c, 3, 67, 0
9, 20880, Note_on_c, 3, 65, 76
9, 20880, Note_on_c, 3, 69, 76
9, 20999, Note_on_c, 3, 65, 0
9, 20999, Note_on_c, 3, 69, 0
9, 21000, Note_on_c, 3, 70, 76
9, 21000, Note_on_c, 3, 67, 76
9, 21059, Note_on_c, 3, 70, 0
9, 21059, Note_on_c, 3, 67, 0
9, 21060, Note_on_c, 3, 65, 76
9, 21060, Note_on_c, 3, 69, 76
9, 21111, Note_on_c, 3, 65, 0
9, 21111, Note_on_c, 3, 69, 0
9, 21120, Note_on_c, 3, 67, 76
9, 21120, Note_on_c, 3, 64, 76
9, 21239, Note_on_c, 3, 67, 0
9, 21239, Note_on_c, 3, 64, 0
9, 21240, Note_on_c, 3, 67, 76
9, 21240, Note_on_c, 3, 70, 76
9, 21344, Note_on_c, 3, 67, 0
9, 21344, Note_on_c, 3, 70, 0
9, 21360, Note_on_c, 3, 70, 76
9, 21360, Note_on_c, 3, 67, 76
9, 21449, Note_on_c, 3, 70, 0
9, 21449, Note_on_c, 3, 67, 0
9, 21480, Note_on_c, 3, 67, 76
9, 21480, Note_on_c, 3, 70, 76
9, 21569, Note_on_c, 3, 67, 0
9, 21569, Note_on_c, 3, 70, 0
9, 21600, Note_on_c, 3, 67, 76
9, 21600, Note_on_c, 3, 70, 76
9, 21839, Note_on_c, 3, 67, 0
9, 21839, Note_on_c, 3, 70, 0
9, 21840, Note_on_c, 3, 72, 76
9, 21840, Note_on_c, 3, 69, 76
9, 21899, Note_on_c, 3, 72, 0
9, 21899, Note_on_c, 3, 69, 0
9, 21900, Note_on_c, 3, 67, 76
9, 21900, Note_on_c, 3, 70, 76
9, 21959, Note_on_c, 3, 67, 0
9, 21959, Note_on_c, 3, 70, 0
9, 21960, Note_on_c, 3, 65, 76
9, 21960, Note_on_c, 3, 69, 76
9, 22019, Note_on_c, 3, 65, 0
9, 22019, Note_on_c, 3, 69, 0
9, 22020, Note_on_c, 3, 64, 76
9, 22020, Note_on_c, 3, 67, 76
9, 22071, Note_on_c, 3, 64, 0
9, 22071, Note_on_c, 3, 67, 0
9, 22080, Note_on_c, 3, 69, 76
9, 22080, Note_on_c, 3, 65, 76
9, 22169, Note_on_c, 3, 69, 0
9, 22169, Note_on_c, 3, 65, 0
9, 22200, Note_on_c, 3, 67, 76
9, 22200, Note_on_c, 3, 70, 76
9, 22289, Note_on_c, 3, 67, 0
9, 22289, Note_on_c, 3, 70, 0
9, 22320, Note_on_c, 3, 72, 76
9, 22320, Note_on_c, 3, 69, 76
9, 22439, Note_on_c, 3, 72, 0
9, 22439, Note_on_c, 3, 69, 0
9, 22440, Note_on_c, 3, 70, 76
9, 22440, Note_on_c, 3, 74, 76
9, 22499, Note_on_c, 3, 70, 0
9, 22499, Note_on_c, 3, 74, 0
9, 22500, Note_on_c, 3, 69, 76
9, 22500, Note_on_c, 3, 72, 76
9, 22551, Note_on_c, 3, 69, 0
9, 22551, Note_on_c, 3, 72, 0
9, 22560, Note_on_c, 3, 67, 76
9, 22560, Note_on_c, 3, 70, 76
9, 22904, Note_on_c, 3, 67, 0
9, 22904, Note_on_c, 3, 70, 0
9, 22920, Note_on_c, 3, 64, 76
9, 22920, Note_on_c, 3, 67, 76
9, 23024, Note_on_c, 3, 64, 0
9, 23024, Note_on_c, 3, 67, 0
9, 23040, Note_on_c, 3, 69, 76
9, 23040, Note_on_c, 3, 65, 76
9, 23129, Note_on_c, 3, 69, 0
9, 23129, Note_on_c, 3, 65, 0
9, 23160, Note_on_c, 3, 70, 76
9, 23160, Note_on_c, 3, 67, 76
9, 23249, Note_on_c, 3, 70, 0
9, 23249, Note_on_c, 3, 67, 0
9, 23280, Note_on_c, 3, 69, 76
9, 23280, Note_on_c, 3, 72, 76
9, 23504, Note_on_c, 3, 69, 0
9, 23504, Note_on_c, 3, 72, 0
9, 23520, Note_on_c, 3, 70, 76
9, 23520, Note_on_c, 3, 67, 76
9, 23864, Note_on_c, 3, 70, 0
9, 23864, Note_on_c, 3, 67, 0
9, 23880, Note_on_c, 3, 64, 76
9, 23880, Note_on_c, 3, 67, 76
9, 23984, Note_on_c, 3, 64, 0
9, 23984, Note_on_c, 3, 67, 0
9, 24000, Note_on_c, 3, 65, 76
9, 24000, Note_on_c, 3, 69, 76
9, 24119, Note_on_c, 3, 65, 0
9, 24119, Note_on_c, 3, 69, 0
9, 24120, Note_on_c, 3, 67, 76
9, 24120, Note_on_c, 3, 64, 76
9, 24239, Note_on_c, 3, 67, 0
9, 24239, Note_on_c, 3, 64, 0
9, 24240, Note_on_c, 3, 67, 76
9, 24240, Note_on_c, 3, 70, 76
9, 24359, Note_on_c, 3, 67, 0
9, 24359, Note_on_c, 3, 70, 0
9, 24360, Note_on_c, 3, 67, 76
9, 24360, Note_on_c, 3, 64, 76
9, 24464, Note_on_c, 3, 67, 0
9, 24464, Note_on_c, 3, 64, 0
9, 24480, Note_on_c, 3, 69, 76
9, 24480, Note_on_c, 3, 65, 76
9, 24599, Note_on_c, 3, 69, 0
9, 24599, Note_on_c, 3, 65, 0
9, 24600, Note_on_c, 3, 64, 76
9, 24600, Note_on_c, 3, 67, 76
9, 24719, Note_on_c, 3, 64, 0
9, 24719, Note_on_c, 3, 67, 0
9, 24720, Note_on_c, 3, 70, 76
9, 24720, Note_on_c, 3, 67, 76
9, 24839, Note_on_c, 3, 70, 0
9, 24839, Note_on_c, 3, 67, 0
9, 24840, Note_on_c, 3, 64, 76
9, 24840, Note_on_c, 3, 67, 76
9, 24944, Note_on_c, 3, 64, 0
9, 24944, Note_on_c, 3, 67, 0
9, 24960, Note_on_c, 3, 69, 76
9, 24960, Note_on_c, 3, 65, 76
9, 25027, Note_on_c, 3, 69, 0
9, 25027, Note_on_c, 3, 65, 0
9, 25040, Note_on_c, 3, 65, 52
9, 25040, Note_on_c, 3, 69, 52
9, 25107, Note_on_c, 3, 65, 0
9, 25107, Note_on_c, 3, 69, 0
9, 25120, Note_on_c, 3, 65, 52
9, 25120, Note_on_c, 3, 69, 52
9, 25187, Note_on_c, 3, 65, 0
9, 25187, Note_on_c, 3, 69, 0
9, 25200, Note_on_c, 3, 65, 52
9, 25200, Note_on_c, 3, 69, 52
9, 25267, Note_on_c, 3, 65, 0
9, 25267, Note_on_c, 3, 69, 0
9, 25280, Note_on_c, 3, 69, 52
9, 25280, Note_on_c, 3, 65, 52
9, 25347, Note_on_c, 3, 69, 0
9, 25347, Note_on_c, 3, 65, 0
9, 25360, Note_on_c, 3, 69, 52
9, 25360, Note_on_c, 3, 65, 52
9, 25427, Note_on_c, 3, 69, 0
9, 25427, Note_on_c, 3, 65, 0
9, 25440, Note_on_c, 3, 69, 52
9, 25440, Note_on_c, 3, 65, 52
9, 25559, Note_on_c, 3, 69, 0
9, 25559, Note_on_c, 3, 65, 0
9, 26880, Note_on_c, 3, 65, 52
9, 26880, Note_on_c, 3, 69, 52
9, 26947, Note_on_c, 3, 65, 0
9, 26947, Note_on_c, 3, 69, 0
9, 26960, Note_on_c, 3, 69, 52
9, 26960, Note_on_c, 3, 65, 52
9, 27027, Note_on_c, 3, 69, 0
9, 27027, Note_on_c, 3, 65, 0
9, 27040, Note_on_c, 3, 69, 52
9, 27040, Note_on_c, 3, 65, 52
9, 27107, Note_on_c, 3, 69, 0
9, 27107, Note_on_c, 3, 65, 0
9, 27120, Note_on_c, 3, 65, 52
9, 27120, Note_on_c, 3, 69, 52
9, 27187, Note_on_c, 3, 65, 0
9, 27187, Note_on_c, 3, 69, 0
9, 27200, Note_on_c, 3, 69, 52
9, 27200, Note_on_c, 3, 65, 52
9, 27267, Note_on_c, 3, 69, 0
9, 27267, Note_on_c, 3, 65, 0
9, 27280, Note_on_c, 3, 65, 52
9, 27280, Note_on_c, 3, 69, 52
9, 27347, Note_on_c, 3, 65, 0
9, 27347, Note_on_c, 3, 69, 0
9, 27360, Note_on_c, 3, 69, 52
9, 27360, Note_on_c, 3, 65, 52
9, 27479, Note_on_c, 3, 69, 0
9, 27479, Note_on_c, 3, 65, 0
9, 28320, Note_on_c, 3, 69, 52
9, 28320, Note_on_c, 3, 65, 52
9, 28387, Note_on_c, 3, 69, 0
9, 28387, Note_on_c, 3, 65, 0
9, 28400, Note_on_c, 3, 65, 52
9, 28400, Note_on_c, 3, 69, 52
9, 28467, Note_on_c, 3, 65, 0
9, 28467, Note_on_c, 3, 69, 0
9, 28480, Note_on_c, 3, 69, 52
9, 28480, Note_on_c, 3, 65, 52
9, 28547, Note_on_c, 3, 69, 0
9, 28547, Note_on_c, 3, 65, 0
9, 28560, Note_on_c, 3, 69, 52
9, 28560, Note_on_c, 3, 65, 52
9, 28627, Note_on_c, 3, 69, 0
9, 28627, Note_on_c, 3, 65, 0
9, 28640, Note_on_c, 3, 65, 52
9, 28640, Note_on_c, 3, 69, 52
9, 28707, Note_on_c, 3, 65, 0
9, 28707, Note_on_c, 3, 69, 0
9, 28720, Note_on_c, 3, 69, 52
9, 28720, Note_on_c, 3, 65, 52
9, 28787, Note_on_c, 3, 69, 0
9, 28787, Note_on_c, 3, 65, 0
9, 28800, Note_on_c, 3, 69, 52
9, 28800, Note_on_c, 3, 65, 52
9, 28919, Note_on_c, 3, 69, 0
9, 28919, Note_on_c, 3, 65, 0
9, 29760, Note_on_c, 3, 67, 52
9, 29760, Note_on_c, 3, 65, 52
9, 29827, Note_on_c, 3, 67, 0
9, 29827, Note_on_c, 3, 65, 0
9, 29840, Note_on_c, 3, 65, 52
9, 29840, Note_on_c, 3, 67, 52
9, 29907, Note_on_c, 3, 65, 0
9, 29907, Note_on_c, 3, 67, 0
9, 29920, Note_on_c, 3, 67, 52
9, 29920, Note_on_c, 3, 65, 52
9, 29987, Note_on_c, 3, 67, 0
9, 29987, Note_on_c, 3, 65, 0
9, 30000, Note_on_c, 3, 67, 52
9, 30000, Note_on_c, 3, 65, 52
9, 30067, Note_on_c, 3, 67, 0
9, 30067, Note_on_c, 3, 65, 0
9, 30080, Note_on_c, 3, 67, 52
9, 30080, Note_on_c, 3, 65, 52
9, 30147, Note_on_c, 3, 67, 0
9, 30147, Note_on_c, 3, 65, 0
9, 30160, Note_on_c, 3, 65, 52
9, 30160, Note_on_c, 3, 67, 52
9, 30227, Note_on_c, 3, 65, 0
9, 30227, Note_on_c, 3, 67, 0
9, 30240, Note_on_c, 3, 67, 52
9, 30240, Note_on_c, 3, 65, 52
9, 30359, Note_on_c, 3, 67, 0
9, 30359, Note_on_c, 3, 65, 0
9, 39360, Note_on_c, 3, 81, 62
9, 39479, Note_on_c, 3, 81, 0
9, 39480, Note_on_c, 3, 79, 63
9, 39599, Note_on_c, 3, 79, 0
9, 39600, Note_on_c, 3, 77, 63
9, 39719, Note_on_c, 3, 77, 0
9, 39720, Note_on_c, 3, 74, 63
9, 39839, Note_on_c, 3, 74, 0
9, 39840, Note_on_c, 3, 67, 64
9, 39959, Note_on_c, 3, 67, 0
9, 39960, Note_on_c, 3, 77, 64
9, 40079, Note_on_c, 3, 77, 0
9, 40080, Note_on_c, 3, 74, 64
9, 40199, Note_on_c, 3, 74, 0
9, 40200, Note_on_c, 3, 67, 65
9, 40304, Note_on_c, 3, 67, 0
9, 40320, Note_on_c, 3, 81, 65
9, 40439, Note_on_c, 3, 81, 0
9, 40440, Note_on_c, 3, 79, 65
9, 40559, Note_on_c, 3, 79, 0
9, 40560, Note_on_c, 3, 76, 66
9, 40679, Note_on_c, 3, 76, 0
9, 40680, Note_on_c, 3, 72, 66
9, 40799, Note_on_c, 3, 72, 0
9, 40800, Note_on_c, 3, 67, 66
9, 40919, Note_on_c, 3, 67, 0
9, 40920, Note_on_c, 3, 76, 67
9, 41039, Note_on_c, 3, 76, 0
9, 41040, Note_on_c, 3, 72, 67
9, 41159, Note_on_c, 3, 72, 0
9, 41160, Note_on_c, 3, 67, 67
9, 41264, Note_on_c, 3, 67, 0
9, 41280, Note_on_c, 3, 81, 68
9, 41399, Note_on_c, 3, 81, 0
9, 41400, Note_on_c, 3, 79, 68
9, 41519, Note_on_c, 3, 79, 0
9, 41520, Note_on_c, 3, 77, 68
9, 41639, Note_on_c, 3, 77, 0
9, 41640, Note_on_c, 3, 74, 69
9, 41759, Note_on_c, 3, 74, 0
9, 41760, Note_on_c, 3, 67, 69
9, 41879, Note_on_c, 3, 67, 0
9, 41880, Note_on_c, 3, 77, 69
9, 41999, Note_on_c, 3, 77, 0
9, 42000, Note_on_c, 3, 74, 70
9, 42119, Note_on_c, 3, 74, 0
9, 42120, Note_on_c, 3, 67, 70
9, 42224, Note_on_c, 3, 67, 0
9, 42240, Note_on_c, 3, 81, 70
9, 42359, Note_on_c, 3, 81, 0
9, 42360, Note_on_c, 3, 79, 71
9, 42479, Note_on_c, 3, 79, 0
9, 42480, Note_on_c, 3, 76, 71
9, 42599, Note_on_c, 3, 76, 0
9, 42600, Note_on_c, 3, 72, 71
9, 42719, Note_on_c, 3, 72, 0
9, 42720, Note_on_c, 3, 67, 72
9, 42839, Note_on_c, 3, 67, 0
9, 42840, Note_on_c, 3, 76, 72
9, 42959, Note_on_c, 3, 76, 0
9, 42960, Note_on_c, 3, 72, 72
9, 43079, Note_on_c, 3, 72, 0
9, 43080, Note_on_c, 3, 67, 73
9, 43184, Note_on_c, 3, 67, 0
9, 43200, Note_on_c, 3, 81, 73
9, 43319, Note_on_c, 3, 81, 0
9, 43320, Note_on_c, 3, 79, 73
9, 43439, Note_on_c, 3, 79, 0
9, 43440, Note_on_c, 3, 77, 74
9, 43559, Note_on_c, 3, 77, 0
9, 43560, Note_on_c, 3, 74, 74
9, 43679, Note_on_c, 3, 74, 0
9, 43680, Note_on_c, 3, 67, 74
9, 43799, Note_on_c, 3, 67, 0
9, 43800, Note_on_c, 3, 77, 75
9, 43919, Note_on_c, 3, 77, 0
9, 43920, Note_on_c, 3, 74, 75
9, 44039, Note_on_c, 3, 74, 0
9, 44040, Note_on_c, 3, 67, 75
9, 44144, Note_on_c, 3, 67, 0
9, 44160, Note_on_c, 3, 76, 76
9, 44160, Note_on_c, 3, 67, 76
9, 44279, Note_on_c, 3, 76, 0
9, 44279, Note_on_c, 3, 67, 0
9, 45600, Note_on_c, 3, 69, 76
9, 45600, Note_on_c, 3, 77, 76
9, 45719, Note_on_c, 3, 69, 0
9, 45719, Note_on_c, 3, 77, 0
9, 48960, Note_on_c, 3, 69, 76
9, 48960, Note_on_c, 3, 77, 76
9, 49079, Note_on_c, 3, 69, 0
9, 49079, Note_on_c, 3, 77, 0
9, 49920, Note_on_c, 3, 67, 52
9, 49920, Note_on_c, 3, 64, 52
9, 50159, Note_on_c, 3, 67, 0
9, 50159, Note_on_c, 3, 64, 0
9, 50160, Note_on_c, 3, 65, 52
9, 50160, Note_on_c, 3, 62, 52
9, 50279, Note_on_c, 3, 65, 0
9, 50279, Note_on_c, 3, 62, 0
9, 50280, Note_on_c, 3, 64, 52
9, 50280, Note_on_c, 3, 60, 52
9, 50384, Note_on_c, 3, 64, 0
9, 50384, Note_on_c, 3, 60, 0
9, 50400, Note_on_c, 3, 64, 52
9, 50400, Note_on_c, 3, 60, 52
9, 50519, Note_on_c, 3, 64, 0
9, 50519, Note_on_c, 3, 60, 0
9, 50520, Note_on_c, 3, 62, 52
9, 50520, Note_on_c, 3, 59, 52
9, 50639, Note_on_c, 3, 62, 0
9, 50639, Note_on_c, 3, 59, 0
9, 50640, Note_on_c, 3, 60, 52
9, 50640, Note_on_c, 3, 57, 52
9, 50759, Note_on_c, 3, 60, 0
9, 50759, Note_on_c, 3, 57, 0
9, 50760, Note_on_c, 3, 62, 52
9, 50760, Note_on_c, 3, 59, 52
9, 50864, Note_on_c, 3, 62, 0
9, 50864, Note_on_c, 3, 59, 0
9, 50880, Note_on_c, 3, 64, 52
9, 50880, Note_on_c, 3, 60, 52
9, 50969, Note_on_c, 3, 64, 0
9, 50969, Note_on_c, 3, 60, 0
9, 51000, Note_on_c, 3, 64, 52
9, 51000, Note_on_c, 3, 60, 52
9, 51119, Note_on_c, 3, 64, 0
9, 51119, Note_on_c, 3, 60, 0
9, 51120, Note_on_c, 3, 65, 53
9, 51120, Note_on_c, 3, 62, 53
9, 51239, Note_on_c, 3, 65, 0
9, 51239, Note_on_c, 3, 62, 0
9, 51240, Note_on_c, 3, 67, 55
9, 51240, Note_on_c, 3, 64, 55
9, 51344, Note_on_c, 3, 67, 0
9, 51344, Note_on_c, 3, 64, 0
9, 51360, Note_on_c, 3, 65, 56
9, 51360, Note_on_c, 3, 69, 56
9, 51449, Note_on_c, 3, 65, 0
9, 51449, Note_on_c, 3, 69, 0
9, 51480, Note_on_c, 3, 69, 58
9, 51480, Note_on_c, 3, 72, 58
9, 51599, Note_on_c, 3, 69, 0
9, 51599, Note_on_c, 3, 72, 0
9, 51600, Note_on_c, 3, 71, 60
9, 51600, Note_on_c, 3, 67, 60
9, 51719, Note_on_c, 3, 71, 0
9, 51719, Note_on_c, 3, 67, 0
9, 51720, Note_on_c, 3, 69, 61
9, 51720, Note_on_c, 3, 65, 61
9, 51824, Note_on_c, 3, 69, 0
9, 51824, Note_on_c, 3, 65, 0
9, 51840, Note_on_c, 3, 67, 63
9, 51840, Note_on_c, 3, 64, 63
9, 51929, Note_on_c, 3, 67, 0
9, 51929, Note_on_c, 3, 64, 0
9, 51960, Note_on_c, 3, 64, 64
9, 51960, Note_on_c, 3, 67, 64
9, 52079, Note_on_c, 3, 64, 0
9, 52079, Note_on_c, 3, 67, 0
9, 52080, Note_on_c, 3, 62, 66
9, 52080, Note_on_c, 3, 65, 66
9, 52199, Note_on_c, 3, 62, 0
9, 52199, Note_on_c, 3, 65, 0
9, 52200, Note_on_c, 3, 64, 68
9, 52200, Note_on_c, 3, 60, 68
9, 52304, Note_on_c, 3, 64, 0
9, 52304, Note_on_c, 3, 60, 0
9, 52320, Note_on_c, 3, 64, 69
9, 52320, Note_on_c, 3, 60, 69
9, 52439, Note_on_c, 3, 64, 0
9, 52439, Note_on_c, 3, 60, 0
9, 52440, Note_on_c, 3, 59, 71
9, 52440, Note_on_c, 3, 62, 71
9, 52559, Note_on_c, 3, 59, 0
9, 52559, Note_on_c, 3, 62, 0
9, 52560, Note_on_c, 3, 60, 72
9, 52560, Note_on_c, 3, 57, 72
9, 52679, Note_on_c, 3, 60, 0
9, 52679, Note_on_c, 3, 57, 0
9, 52680, Note_on_c, 3, 62, 74
9, 52680, Note_on_c, 3, 59, 74
9, 52784, Note_on_c, 3, 62, 0
9, 52784, Note_on_c, 3, 59, 0
9, 52800, Note_on_c, 3, 64, 76
9, 52800, Note_on_c, 3, 60, 76
9, 52919, Note_on_c, 3, 64, 0
9, 52919, Note_on_c, 3, 60, 0
9, 53040, Note_on_c, 3, 72, 76
9, 53040, Note_on_c, 3, 67, 76
9, 53159, Note_on_c, 3, 72, 0
9, 53159, Note_on_c, 3, 67, 0
9, 53280, Note_on_c, 3, 72, 76
9, 53280, Note_on_c, 3, 69, 76
9, 53399, Note_on_c, 3, 72, 0
9, 53399, Note_on_c, 3, 69, 0
9, 53520, Note_on_c, 3, 69, 76
9, 53520, Note_on_c, 3, 77, 76
9, 53639, Note_on_c, 3, 69, 0
9, 53639, Note_on_c, 3, 77, 0
9, 53760, Note_on_c, 3, 76, 76
9, 53760, Note_on_c, 3, 67, 76
9, 53879, Note_on_c, 3, 76, 0
9, 53879, Note_on_c, 3, 67, 0
9, 54000, Note_on_c, 3, 76, 76
9, 54000, Note_on_c, 3, 72, 76
9, 54119, Note_on_c, 3, 76, 0
9, 54119, Note_on_c, 3, 72, 0
9, 54240, Note_on_c, 3, 71, 76
9, 54240, Note_on_c, 3, 77, 76
9, 54359, Note_on_c, 3, 71, 0
9, 54359, Note_on_c, 3, 77, 0
9, 54480, Note_on_c, 3, 77, 76
9, 54480, Note_on_c, 3, 71, 76
9, 54599, Note_on_c, 3, 77, 0
9, 54599, Note_on_c, 3, 71, 0
9, 54720, Note_on_c, 3, 72, 76
9, 54720, Note_on_c, 3, 60, 76
9, 54959, Note_on_c, 3, 72, 0
9, 54959, Note_on_c, 3, 60, 0
9, 54960, Note_on_c, 3, 67, 76
9, 54960, Note_on_c, 3, 55, 76
9, 55664, Note_on_c, 3, 67, 0
9, 55664, Note_on_c, 3, 55, 0
9, 55680, Note_on_c, 3, 76, 76
9, 55680, Note_on_c, 3, 64, 76
9, 55919, Note_on_c, 3, 76, 0
9, 55919, Note_on_c, 3, 64, 0
9, 55920, Note_on_c, 3, 72, 76
9, 55920, Note_on_c, 3, 60, 76
9, 56624, Note_on_c, 3, 72, 0
9, 56624, Note_on_c, 3, 60, 0
9, 56640, Note_on_c, 3, 60, 76
9, 56640, Note_on_c, 3, 72, 76
9, 56879, Note_on_c, 3, 60, 0
9, 56879, Note_on_c, 3, 72, 0
9, 56880, Note_on_c, 3, 67, 76
9, 56880, Note_on_c, 3, 55, 76
9, 57584, Note_on_c, 3, 67, 0
9, 57584, Note_on_c, 3, 55, 0
9, 57600, Note_on_c, 3, 76, 76
9, 57600, Note_on_c, 3, 64, 76
9, 57839, Note_on_c, 3, 76, 0
9, 57839, Note_on_c, 3, 64, 0
9, 57840, Note_on_c, 3, 72, 76
9, 57840, Note_on_c, 3, 60, 76
9, 58544, Note_on_c, 3, 72, 0
9, 58544, Note_on_c, 3, 60, 0
9, 58560, Note_on_c, 3, 72, 76
9, 58560, Note_on_c, 3, 60, 76
9, 58799, Note_on_c, 3, 72, 0
9, 58799, Note_on_c, 3, 60, 0
9, 58800, Note_on_c, 3, 55, 73
9, 58800, Note_on_c, 3, 67, 73
9, 59039, Note_on_c, 3, 55, 0
9, 59039, Note_on_c, 3, 67, 0
9, 59040, Note_on_c, 3, 72, 70
9, 59040, Note_on_c, 3, 60, 70
9, 59279, Note_on_c, 3, 72, 0
9, 59279, Note_on_c, 3, 60, 0
9, 59280, Note_on_c, 3, 67, 67
9, 59280, Note_on_c, 3, 55, 67
9, 59519, Note_on_c, 3, 67, 0
9, 59519, Note_on_c, 3, 55, 0
9, 59520, Note_on_c, 3, 72, 64
9, 59520, Note_on_c, 3, 60, 64
9, 59759, Note_on_c, 3, 72, 0
9, 59759, Note_on_c, 3, 60, 0
9, 59760, Note_on_c, 3, 55, 61
9, 59760, Note_on_c, 3, 67, 61
9, 59999, Note_on_c, 3, 55, 0
9, 59999, Note_on_c, 3, 67, 0
9, 60000, Note_on_c, 3, 72, 58
9, 60000, Note_on_c, 3, 60, 58
9, 60239, Note_on_c, 3, 72, 0
9, 60239, Note_on_c, 3, 60, 0
9, 60240, Note_on_c, 3, 67, 55
9, 60240, Note_on_c, 3, 55, 55
9, 60479, Note_on_c, 3, 67, 0
9, 60479, Note_on_c, 3, 55, 0
9, 60480, Note_on_c, 3, 72, 52
9, 60480, Note_on_c, 3, 60, 52
9, 60569, Note_on_c, 3, 72, 0
9, 60569, Note_on_c, 3, 60, 0
9, 78840, Note_on_c, 3, 70, 52
9, 78899, Note_on_c, 3, 70, 0
9, 78900, Note_on_c, 3, 72, 52
9, 78951, Note_on_c, 3, 72, 0
9, 78960, Note_on_c, 3, 74, 52
9, 79049, Note_on_c, 3, 74, 0
9, 79080, Note_on_c, 3, 76, 52
9, 79169, Note_on_c, 3, 76, 0
9, 79200, Note_on_c, 3, 77, 52
9, 79319, Note_on_c, 3, 77, 0
9, 81720, Note_on_c, 3, 69, 53
9, 81720, Note_on_c, 3, 65, 53
9, 81809, Note_on_c, 3, 69, 0
9, 81809, Note_on_c, 3, 65, 0
9, 81840, Note_on_c, 3, 70, 55
9, 81840, Note_on_c, 3, 67, 55
9, 81929, Note_on_c, 3, 70, 0
9, 81929, Note_on_c, 3, 67, 0
9, 81960, Note_on_c, 3, 74, 56
9, 81960, Note_on_c, 3, 70, 56
9, 82049, Note_on_c, 3, 74, 0
9, 82049, Note_on_c, 3, 70, 0
9, 82080, Note_on_c, 3, 72, 58
9, 82080, Note_on_c, 3, 69, 58
9, 82199, Note_on_c, 3, 72, 0
9, 82199, Note_on_c, 3, 69, 0
9, 82200, Note_on_c, 3, 67, 59
9, 82200, Note_on_c, 3, 70, 59
9, 82259, Note_on_c, 3, 67, 0
9, 82259, Note_on_c, 3, 70, 0
9, 82260, Note_on_c, 3, 65, 60
9, 82260, Note_on_c, 3, 69, 60
9, 82311, Note_on_c, 3, 65, 0
9, 82311, Note_on_c, 3, 69, 0
9, 82320, Note_on_c, 3, 67, 61
9, 82320, Note_on_c, 3, 64, 61
9, 82409, Note_on_c, 3, 67, 0
9, 82409, Note_on_c, 3, 64, 0
9, 82440, Note_on_c, 3, 60, 62
9, 82529, Note_on_c, 3, 60, 0
9, 82560, Note_on_c, 3, 65, 64
9, 82649, Note_on_c, 3, 65, 0
9, 82680, Note_on_c, 3, 64, 65
9, 82680, Note_on_c, 3, 67, 65
9, 82769, Note_on_c, 3, 64, 0
9, 82769, Note_on_c, 3, 67, 0
9, 82800, Note_on_c, 3, 69, 67
9, 82800, Note_on_c, 3, 65, 67
9, 82919, Note_on_c, 3, 69, 0
9, 82919, Note_on_c, 3, 65, 0
9, 82920, Note_on_c, 3, 67, 68
9, 82920, Note_on_c, 3, 70, 68
9, 82979, Note_on_c, 3, 67, 0
9, 82979, Note_on_c, 3, 70, 0
9, 82980, Note_on_c, 3, 69, 69
9, 82980, Note_on_c, 3, 65, 69
9, 83031, Note_on_c, 3, 69, 0
9, 83031, Note_on_c, 3, 65, 0
9, 83040, Note_on_c, 3, 67, 70
9, 83040, Note_on_c, 3, 64, 70
9, 83129, Note_on_c, 3, 67, 0
9, 83129, Note_on_c, 3, 64, 0
9, 83160, Note_on_c, 3, 65, 71
9, 83160, Note_on_c, 3, 69, 71
9, 83249, Note_on_c, 3, 65, 0
9, 83249, Note_on_c, 3, 69, 0
9, 83280, Note_on_c, 3, 67, 73
9, 83280, Note_on_c, 3, 70, 73
9, 83399, Note_on_c, 3, 67, 0
9, 83399, Note_on_c, 3, 70, 0
9, 83400, Note_on_c, 3, 69, 74
9, 83400, Note_on_c, 3, 72, 74
9, 83459, Note_on_c, 3, 69, 0
9, 83459, Note_on_c, 3, 72, 0
9, 83460, Note_on_c, 3, 67, 75
9, 83460, Note_on_c, 3, 70, 75
9, 83511, Note_on_c, 3, 67, 0
9, 83511, Note_on_c, 3, 70, 0
9, 83520, Note_on_c, 3, 65, 76
9, 83520, Note_on_c, 3, 69, 76
9, 83609, Note_on_c, 3, 65, 0
9, 83609, Note_on_c, 3, 69, 0
9, 83640, Note_on_c, 3, 69, 76
9, 83640, Note_on_c, 3, 81, 76
9, 83729, Note_on_c, 3, 69, 0
9, 83729, Note_on_c, 3, 81, 0
9, 83760, Note_on_c, 3, 82, 76
9, 83760, Note_on_c, 3, 70, 76
9, 83849, Note_on_c, 3, 82, 0
9, 83849, Note_on_c, 3, 70, 0
9, 83880, Note_on_c, 3, 74, 76
9, 83969, Note_on_c, 3, 74, 0
9, 84000, Note_on_c, 3, 72, 76
9, 84119, Note_on_c, 3, 72, 0
9, 84120, Note_on_c, 3, 70, 76
9, 84179, Note_on_c, 3, 70, 0
9, 84180, Note_on_c, 3, 69, 76
9, 84231, Note_on_c, 3, 69, 0
9, 84240, Note_on_c, 3, 67, 76
9, 84329, Note_on_c, 3, 67, 0
9, 84360, Note_on_c, 3, 60, 76
9, 84449, Note_on_c, 3, 60, 0
9, 84480, Note_on_c, 3, 65, 76
9, 84569, Note_on_c, 3, 65, 0
9, 84600, Note_on_c, 3, 67, 76
9, 84600, Note_on_c, 3, 64, 76
9, 84689, Note_on_c, 3, 67, 0
9, 84689, Note_on_c, 3, 64, 0
9, 84720, Note_on_c, 3, 65, 76
9, 84720, Note_on_c, 3, 69, 76
9, 84839, Note_on_c, 3, 65, 0
9, 84839, Note_on_c, 3, 69, 0
9, 84840, Note_on_c, 3, 70, 76
9, 84840, Note_on_c, 3, 67, 76
9, 84899, Note_on_c, 3, 70, 0
9, 84899, Note_on_c, 3, 67, 0
9, 84900, Note_on_c, 3, 65, 76
9, 84900, Note_on_c, 3, 69, 76
9, 84951, Note_on_c, 3, 65, 0
9, 84951, Note_on_c, 3, 69, 0
9, 84960, Note_on_c, 3, 64, 76
9, 84960, Note_on_c, 3, 67, 76
9, 85049, Note_on_c, 3, 64, 0
9, 85049, Note_on_c, 3, 67, 0
9, 85080, Note_on_c, 3, 65, 76
9, 85080, Note_on_c, 3, 69, 76
9, 85169, Note_on_c, 3, 65, 0
9, 85169, Note_on_c, 3, 69, 0
9, 85200, Note_on_c, 3, 70, 76
9, 85200, Note_on_c, 3, 67, 76
9, 85319, Note_on_c, 3, 70, 0
9, 85319, Note_on_c, 3, 67, 0
9, 85320, Note_on_c, 3, 72, 76
9, 85320, Note_on_c, 3, 69, 76
9, 85379, Note_on_c, 3, 72, 0
9, 85379, Note_on_c, 3, 69, 0
9, 85380, Note_on_c, 3, 70, 76
9, 85380, Note_on_c, 3, 67, 76
9, 85431, Note_on_c, 3, 70, 0
9, 85431, Note_on_c, 3, 67, 0
9, 85440, Note_on_c, 3, 65, 76
9, 85440, Note_on_c, 3, 69, 76
9, 85559, Note_on_c, 3, 65, 0
9, 85559, Note_on_c, 3, 69, 0
9, 85560, Note_on_c, 3, 69, 76
9, 85560, Note_on_c, 3, 72, 76
9, 85664, Note_on_c, 3, 69, 0
9, 85664, Note_on_c, 3, 72, 0
9, 85680, Note_on_c, 3, 69, 76
9, 85680, Note_on_c, 3, 72, 76
9, 85769, Note_on_c, 3, 69, 0
9, 85769, Note_on_c, 3, 72, 0
9, 85800, Note_on_c, 3, 72, 76
9, 85800, Note_on_c, 3, 69, 76
9, 85889, Note_on_c, 3, 72, 0
9, 85889, Note_on_c, 3, 69, 0
9, 85920, Note_on_c, 3, 69, 76
9, 85920, Note_on_c, 3, 72, 76
9, 86159, Note_on_c, 3, 69, 0
9, 86159, Note_on_c, 3, 72, 0
9, 86160, Note_on_c, 3, 67, 76
9, 86160, Note_on_c, 3, 70, 76
9, 86219, Note_on_c, 3, 67, 0
9, 86219, Note_on_c, 3, 70, 0
9, 86220, Note_on_c, 3, 65, 76
9, 86220, Note_on_c, 3, 69, 76
9, 86279, Note_on_c, 3, 65, 0
9, 86279, Note_on_c, 3, 69, 0
9, 86280, Note_on_c, 3, 64, 76
9, 86280, Note_on_c, 3, 67, 76
9, 86339, Note_on_c, 3, 64, 0
9, 86339, Note_on_c, 3, 67, 0
9, 86340, Note_on_c, 3, 65, 76
9, 86340, Note_on_c, 3, 62, 76
9, 86391, Note_on_c, 3, 65, 0
9, 86391, Note_on_c, 3, 62, 0
9, 86400, Note_on_c, 3, 60, 76
9, 86400, Note_on_c, 3, 64, 76
9, 86489, Note_on_c, 3, 60, 0
9, 86489, Note_on_c, 3, 64, 0
9, 86520, Note_on_c, 3, 62, 76
9, 86520, Note_on_c, 3, 65, 76
9, 86609, Note_on_c, 3, 62, 0
9, 86609, Note_on_c, 3, 65, 0
9, 86640, Note_on_c, 3, 67, 76
9, 86640, Note_on_c, 3, 64, 76
9, 86759, Note_on_c, 3, 67, 0
9, 86759, Note_on_c, 3, 64, 0
9, 86760, Note_on_c, 3, 65, 76
9, 86760, Note_on_c, 3, 69, 76
9, 86819, Note_on_c, 3, 65, 0
9, 86819, Note_on_c, 3, 69, 0
9, 86820, Note_on_c, 3, 64, 76
9, 86820, Note_on_c, 3, 67, 76
9, 86871, Note_on_c, 3, 64, 0
9, 86871, Note_on_c, 3, 67, 0
9, 86880, Note_on_c, 3, 65, 76
9, 86880, Note_on_c, 3, 62, 76
9, 86969, Note_on_c, 3, 65, 0
9, 86969, Note_on_c, 3, 62, 0
9, 87000, Note_on_c, 3, 64, 76
9, 87000, Note_on_c, 3, 67, 76
9, 87089, Note_on_c, 3, 64, 0
9, 87089, Note_on_c, 3, 67, 0
9, 87120, Note_on_c, 3, 69, 76
9, 87120, Note_on_c, 3, 65, 76
9, 87239, Note_on_c, 3, 69, 0
9, 87239, Note_on_c, 3, 65, 0
9, 87240, Note_on_c, 3, 67, 76
9, 87240, Note_on_c, 3, 70, 76
9, 87299, Note_on_c, 3, 67, 0
9, 87299, Note_on_c, 3, 70, 0
9, 87300, Note_on_c, 3, 69, 76
9, 87300, Note_on_c, 3, 65, 76
9, 87351, Note_on_c, 3, 69, 0
9, 87351, Note_on_c, 3, 65, 0
9, 87360, Note_on_c, 3, 67, 76
9, 87360, Note_on_c, 3, 64, 76
9, 87479, Note_on_c, 3, 67, 0
9, 87479, Note_on_c, 3, 64, 0
9, 87480, Note_on_c, 3, 70, 76
9, 87480, Note_on_c, 3, 67, 76
9, 87584, Note_on_c, 3, 70, 0
9, 87584, Note_on_c, 3, 67, 0
9, 87600, Note_on_c, 3, 67, 76
9, 87600, Note_on_c, 3, 70, 76
9, 87689, Note_on_c, 3, 67, 0
9, 87689, Note_on_c, 3, 70, 0
9, 87720, Note_on_c, 3, 67, 76
9, 87720, Note_on_c, 3, 70, 76
9, 87809, Note_on_c, 3, 67, 0
9, 87809, Note_on_c, 3, 70, 0
9, 87840, Note_on_c, 3, 67, 76
9, 87840, Note_on_c, 3, 70, 76
9, 88079, Note_on_c, 3, 67, 0
9, 88079, Note_on_c, 3, 70, 0
9, 88080, Note_on_c, 3, 69, 76
9, 88080, Note_on_c, 3, 72, 76
9, 88139, Note_on_c, 3, 69, 0
9, 88139, Note_on_c, 3, 72, 0
9, 88140, Note_on_c, 3, 67, 76
9, 88140, Note_on_c, 3, 70, 76
9, 88199, Note_on_c, 3, 67, 0
9, 88199, Note_on_c, 3, 70, 0
9, 88200, Note_on_c, 3, 69, 76
9, 88200, Note_on_c, 3, 65, 76
9, 88259, Note_on_c, 3, 69, 0
9, 88259, Note_on_c, 3, 65, 0
9, 88260, Note_on_c, 3, 64, 76
9, 88260, Note_on_c, 3, 67, 76
9, 88311, Note_on_c, 3, 64, 0
9, 88311, Note_on_c, 3, 67, 0
9, 88320, Note_on_c, 3, 65, 76
9, 88320, Note_on_c, 3, 69, 76
9, 88409, Note_on_c, 3, 65, 0
9, 88409, Note_on_c, 3, 69, 0
9, 88440, Note_on_c, 3, 67, 76
9, 88440, Note_on_c, 3, 70, 76
9, 88529, Note_on_c, 3, 67, 0
9, 88529, Note_on_c, 3, 70, 0
9, 88560, Note_on_c, 3, 72, 76
9, 88560, Note_on_c, 3, 69, 76
9, 88679, Note_on_c, 3, 72, 0
9, 88679, Note_on_c, 3, 69, 0
9, 88680, Note_on_c, 3, 70, 76
9, 88680, Note_on_c, 3, 74, 76
9, 88739, Note_on_c, 3, 70, 0
9, 88739, Note_on_c, 3, 74, 0
9, 88740, Note_on_c, 3, 69, 76
9, 88740, Note_on_c, 3, 72, 76
9, 88791, Note_on_c, 3, 69, 0
9, 88791, Note_on_c, 3, 72, 0
9, 88800, Note_on_c, 3, 70, 76
9, 88800, Note_on_c, 3, 67, 76
9, 89144, Note_on_c, 3, 70, 0
9, 89144, Note_on_c, 3, 67, 0
9, 89160, Note_on_c, 3, 67, 76
9, 89160, Note_on_c, 3, 64, 76
9, 89264, Note_on_c, 3, 67, 0
9, 89264, Note_on_c, 3, 64, 0
9, 89280, Note_on_c, 3, 69, 76
9, 89280, Note_on_c, 3, 65, 76
9, 89369, Note_on_c, 3, 69, 0
9, 89369, Note_on_c, 3, 65, 0
9, 89400, Note_on_c, 3, 70, 76
9, 89400, Note_on_c, 3, 67, 76
9, 89489, Note_on_c, 3, 70, 0
9, 89489, Note_on_c, 3, 67, 0
9, 89520, Note_on_c, 3, 72, 76
9, 89520, Note_on_c, 3, 69, 76
9, 89744, Note_on_c, 3, 72, 0
9, 89744, Note_on_c, 3, 69, 0
9, 89760, Note_on_c, 3, 67, 76
9, 89760, Note_on_c, 3, 70, 76
9, 90104, Note_on_c, 3, 67, 0
9, 90104, Note_on_c, 3, 70, 0
9, 90120, Note_on_c, 3, 64, 76
9, 90120, Note_on_c, 3, 67, 76
9, 90224, Note_on_c, 3, 64, 0
9, 90224, Note_on_c, 3, 67, 0
9, 90240, Note_on_c, 3, 69, 76
9, 90240, Note_on_c, 3, 65, 76
9, 90359, Note_on_c, 3, 69, 0
9, 90359, Note_on_c, 3, 65, 0
9, 90360, Note_on_c, 3, 67, 76
9, 90360, Note_on_c, 3, 64, 76
9, 90479, Note_on_c, 3, 67, 0
9, 90479, Note_on_c, 3, 64, 0
9, 90480, Note_on_c, 3, 67, 76
9, 90480, Note_on_c, 3, 70, 76
9, 90599, Note_on_c, 3, 67, 0
9, 90599, Note_on_c, 3, 70, 0
9, 90600, Note_on_c, 3, 64, 76
9, 90600, Note_on_c, 3, 67, 76
9, 90704, Note_on_c, 3, 64, 0
9, 90704, Note_on_c, 3, 67, 0
9, 90720, Note_on_c, 3, 69, 76
9, 90720, Note_on_c, 3, 65, 76
9, 90839, Note_on_c, 3, 69, 0
9, 90839, Note_on_c, 3, 65, 0
9, 90840, Note_on_c, 3, 64, 76
9, 90840, Note_on_c, 3, 67, 76
9, 90959, Note_on_c, 3, 64, 0
9, 90959, Note_on_c, 3, 67, 0
9, 90960, Note_on_c, 3, 67, 76
9, 90960, Note_on_c, 3, 70, 76
9, 91079, Note_on_c, 3, 67, 0
9, 91079, Note_on_c, 3, 70, 0
9, 91080, Note_on_c, 3, 67, 76
9, 91080, Note_on_c, 3, 64, 76
9, 91184, Note_on_c, 3, 67, 0
9, 91184, Note_on_c, 3, 64, 0
9, 91200, Note_on_c, 3, 69, 76
9, 91200, Note_on_c, 3, 65, 76
9, 91267, Note_on_c, 3, 69, 0
9, 91267, Note_on_c, 3, 65, 0
9, 91280, Note_on_c, 3, 69, 52
9, 91280, Note_on_c, 3, 65, 52
9, 91347, Note_on_c, 3, 69, 0
9, 91347, Note_on_c, 3, 65, 0
9, 91360, Note_on_c, 3, 69, 52
9, 91360, Note_on_c, 3, 65, 52
9, 91427, Note_on_c, 3, 69, 0
9, 91427, Note_on_c, 3, 65, 0
9, 91440, Note_on_c, 3, 65, 52
9, 91440, Note_on_c, 3, 69, 52
9, 91507, Note_on_c, 3, 65, 0
9, 91507, Note_on_c, 3, 69, 0
9, 91520, Note_on_c, 3, 65, 52
9, 91520, Note_on_c, 3, 69, 52
9, 91587, Note_on_c, 3, 65, 0
9, 91587, Note_on_c, 3, 69, 0
9, 91600, Note_on_c, 3, 65, 52
9, 91600, Note_on_c, 3, 69, 52
9, 91667, Note_on_c, 3, 65, 0
9, 91667, Note_on_c, 3, 69, 0
9, 91680, Note_on_c, 3, 69, 52
9, 91680, Note_on_c, 3, 65, 52
9, 91799, Note_on_c, 3, 69, 0
9, 91799, Note_on_c, 3, 65, 0
9, 93120, Note_on_c, 3, 69, 52
9, 93120, Note_on_c, 3, 65, 52
9, 93187, Note_on_c, 3, 69, 0
9, 93187, Note_on_c, 3, 65, 0
9, 93200, Note_on_c, 3, 69, 52
9, 93200, Note_on_c, 3, 65, 52
9, 93267, Note_on_c, 3, 69, 0
9, 93267, Note_on_c, 3, 65, 0
9, 93280, Note_on_c, 3, 65, 52
9, 93280, Note_on_c, 3, 69, 52
9, 93347, Note_on_c, 3, 65, 0
9, 93347, Note_on_c, 3, 69, 0
9, 93360, Note_on_c, 3, 65, 52
9, 93360, Note_on_c, 3, 69, 52
9, 93427, Note_on_c, 3, 65, 0
9, 93427, Note_on_c, 3, 69, 0
9, 93440, Note_on_c, 3, 65, 52
9, 93440, Note_on_c, 3, 69, 52
9, 93507, Note_on_c, 3, 65, 0
9, 93507, Note_on_c, 3, 69, 0
9, 93520, Note_on_c, 3, 69, 52
9, 93520, Note_on_c, 3, 65, 52
9, 93587, Note_on_c, 3, 69, 0
9, 93587, Note_on_c, 3, 65, 0
9, 93600, Note_on_c, 3, 65, 52
9, 93600, Note_on_c, 3, 69, 52
9, 93719, Note_on_c, 3, 65, 0
9, 93719, Note_on_c, 3, 69, 0
9, 94560, Note_on_c, 3, 65, 52
9, 94560, Note_on_c, 3, 69, 52
9, 94627, Note_on_c, 3, 65, 0
9, 94627, Note_on_c, 3, 69, 0
9, 94640, Note_on_c, 3, 65, 52
9, 94640, Note_on_c, 3, 69, 52
9, 94707, Note_on_c, 3, 65, 0
9, 94707, Note_on_c, 3, 69, 0
9, 94720, Note_on_c, 3, 69, 52
9, 94720, Note_on_c, 3, 65, 52
9, 94787, Note_on_c, 3, 69, 0
9, 94787, Note_on_c, 3, 65, 0
9, 94800, Note_on_c, 3, 69, 52
9, 94800, Note_on_c, 3, 65, 52
9, 94867, Note_on_c, 3, 69, 0
9, 94867, Note_on_c, 3, 65, 0
9, 94880, Note_on_c, 3, 69, 52
9, 94880, Note_on_c, 3, 65, 52
9, 94947, Note_on_c, 3, 69, 0
9, 94947, Note_on_c, 3, 65, 0
9, 94960, Note_on_c, 3, 69, 52
9, 94960, Note_on_c, 3, 65, 52
9, 95027, Note_on_c, 3, 69, 0
9, 95027, Note_on_c, 3, 65, 0
9, 95040, Note_on_c, 3, 69, 52
9, 95040, Note_on_c, 3, 65, 52
9, 95159, Note_on_c, 3, 69, 0
9, 95159, Note_on_c, 3, 65, 0
9, 96000, Note_on_c, 3, 67, 52
9, 96000, Note_on_c, 3, 65, 52
9, 96067, Note_on_c, 3, 67, 0
9, 96067, Note_on_c, 3, 65, 0
9, 96080, Note_on_c, 3, 65, 52
9, 96080, Note_on_c, 3, 67, 52
9, 96147, Note_on_c, 3, 65, 0
9, 96147, Note_on_c, 3, 67, 0
9, 96160, Note_on_c, 3, 65, 52
9, 96160, Note_on_c, 3, 67, 52
9, 96227, Note_on_c, 3, 65, 0
9, 96227, Note_on_c, 3, 67, 0
9, 96240, Note_on_c, 3, 65, 52
9, 96240, Note_on_c, 3, 67, 52
9, 96307, Note_on_c, 3, 65, 0
9, 96307, Note_on_c, 3, 67, 0
9, 96320, Note_on_c, 3, 65, 52
9, 96320, Note_on_c, 3, 67, 52
9, 96387, Note_on_c, 3, 65, 0
9, 96387, Note_on_c, 3, 67, 0
9, 96400, Note_on_c, 3, 65, 52
9, 96400, Note_on_c, 3, 67, 52
9, 96467, Note_on_c, 3, 65, 0
9, 96467, Note_on_c, 3, 67, 0
9, 96480, Note_on_c, 3, 65, 52
9, 96480, Note_on_c, 3, 67, 52
9, 96599, Note_on_c, 3, 65, 0
9, 96599, Note_on_c, 3, 67, 0
9, 105600, Note_on_c, 3, 81, 62
9, 105719, Note_on_c, 3, 81, 0
9, 105720, Note_on_c, 3, 79, 63
9, 105839, Note_on_c, 3, 79, 0
9, 105840, Note_on_c, 3, 77, 63
9, 105959, Note_on_c, 3, 77, 0
9, 105960, Note_on_c, 3, 74, 63
9, 106079, Note_on_c, 3, 74, 0
9, 106080, Note_on_c, 3, 67, 64
9, 106199, Note_on_c, 3, 67, 0
9, 106200, Note_on_c, 3, 77, 64
9, 106319, Note_on_c, 3, 77, 0
9, 106320, Note_on_c, 3, 74, 64
9, 106439, Note_on_c, 3, 74, 0
9, 106440, Note_on_c, 3, 67, 65
9, 106544, Note_on_c, 3, 67, 0
9, 106560, Note_on_c, 3, 81, 65
9, 106679, Note_on_c, 3, 81, 0
9, 106680, Note_on_c, 3, 79, 65
9, 106799, Note_on_c, 3, 79, 0
9, 106800, Note_on_c, 3, 76, 66
9, 106919, Note_on_c, 3, 76, 0
9, 106920, Note_on_c, 3, 72, 66
9, 107039, Note_on_c, 3, 72, 0
9, 107040, Note_on_c, 3, 67, 66
9, 107159, Note_on_c, 3, 67, 0
9, 107160, Note_on_c, 3, 76, 67
9, 107279, Note_on_c, 3, 76, 0
9, 107280, Note_on_c, 3, 72, 67
9, 107399, Note_on_c, 3, 72, 0
9, 107400, Note_on_c, 3, 67, 67
9, 107504, Note_on_c, 3, 67, 0
9, 107520, Note_on_c, 3, 81, 68
9, 107639, Note_on_c, 3, 81, 0
9, 107640, Note_on_c, 3, 79, 68
9, 107759, Note_on_c, 3, 79, 0
9, 107760, Note_on_c, 3, 77, 68
9, 107879, Note_on_c, 3, 77, 0
9, 107880, Note_on_c, 3, 74, 69
9, 107999, Note_on_c, 3, 74, 0
9, 108000, Note_on_c, 3, 67, 69
9, 108119, Note_on_c, 3, 67, 0
9, 108120, Note_on_c, 3, 77, 69
9, 108239, Note_on_c, 3, 77, 0
9, 108240, Note_on_c, 3, 74, 70
9, 108359, Note_on_c, 3, 74, 0
9, 108360, Note_on_c, 3, 67, 70
9, 108464, Note_on_c, 3, 67, 0
9, 108480, Note_on_c, 3, 81, 70
9, 108599, Note_on_c, 3, 81, 0
9, 108600, Note_on_c, 3, 79, 71
9, 108719, Note_on_c, 3, 79, 0
9, 108720, Note_on_c, 3, 76, 71
9, 108839, Note_on_c, 3, 76, 0
9, 108840, Note_on_c, 3, 72, 71
9, 108959, Note_on_c, 3, 72, 0
9, 108960, Note_on_c, 3, 67, 72
9, 109079, Note_on_c, 3, 67, 0
9, 109080, Note_on_c, 3, 76, 72
9, 109199, Note_on_c, 3, 76, 0
9, 109200, Note_on_c, 3, 72, 72
9, 109319, Note_on_c, 3, 72, 0
9, 109320, Note_on_c, 3, 67, 73
9, 109424, Note_on_c, 3, 67, 0
9, 109440, Note_on_c, 3, 81, 73
9, 109559, Note_on_c, 3, 81, 0
9, 109560, Note_on_c, 3, 79, 73
9, 109679, Note_on_c, 3, 79, 0
9, 109680, Note_on_c, 3, 77, 74
9, 109799, Note_on_c, 3, 77, 0
9, 109800, Note_on_c, 3, 74, 74
9, 109919, Note_on_c, 3, 74, 0
9, 109920, Note_on_c, 3, 67, 74
9, 110039, Note_on_c, 3, 67, 0
9, 110040, Note_on_c, 3, 77, 75
9, 110159, Note_on_c, 3, 77, 0
9, 110160, Note_on_c, 3, 74, 75
9, 110279, Note_on_c, 3, 74, 0
9, 110280, Note_on_c, 3, 67, 75
9, 110384, Note_on_c, 3, 67, 0
9, 110400, Note_on_c, 3, 76, 76
9, 110400, Note_on_c, 3, 67, 76
9, 110519, Note_on_c, 3, 76, 0
9, 110519, Note_on_c, 3, 67, 0
9, 111840, Note_on_c, 3, 77, 76
9, 111840, Note_on_c, 3, 69, 76
9, 111959, Note_on_c, 3, 77, 0
9, 111959, Note_on_c, 3, 69, 0
9, 115200, Note_on_c, 3, 69, 76
9, 115200, Note_on_c, 3, 77, 76
9, 115319, Note_on_c, 3, 69, 0
9, 115319, Note_on_c, 3, 77, 0
9, 116160, Note_on_c, 3, 64, 52
9, 116160, Note_on_c, 3, 67, 52
9, 116399, Note_on_c, 3, 64, 0
9, 116399, Note_on_c, 3, 67, 0
9, 116400, Note_on_c, 3, 62, 52
9, 116400, Note_on_c, 3, 65, 52
9, 116519, Note_on_c, 3, 62, 0
9, 116519, Note_on_c, 3, 65, 0
9, 116520, Note_on_c, 3, 60, 52
9, 116520, Note_on_c, 3, 64, 52
9, 116624, Note_on_c, 3, 60, 0
9, 116624, Note_on_c, 3, 64, 0
9, 116640, Note_on_c, 3, 60, 52
9, 116640, Note_on_c, 3, 64, 52
9, 116759, Note_on_c, 3, 60, 0
9, 116759, Note_on_c, 3, 64, 0
9, 116760, Note_on_c, 3, 59, 52
9, 116760, Note_on_c, 3, 62, 52
9, 116879, Note_on_c, 3, 59, 0
9, 116879, Note_on_c, 3, 62, 0
9, 116880, Note_on_c, 3, 57, 52
9, 116880, Note_on_c, 3, 60, 52
9, 116999, Note_on_c, 3, 57, 0
9, 116999, Note_on_c, 3, 60, 0
9, 117000, Note_on_c, 3, 59, 52
9, 117000, Note_on_c, 3, 62, 52
9, 117104, Note_on_c, 3, 59, 0
9, 117104, Note_on_c, 3, 62, 0
9, 117120, Note_on_c, 3, 60, 52
9, 117120, Note_on_c, 3, 64, 52
9, 117209, Note_on_c, 3, 60, 0
9, 117209, Note_on_c, 3, 64, 0
9, 117240, Note_on_c, 3, 60, 52
9, 117240, Note_on_c, 3, 64, 52
9, 117359, Note_on_c, 3, 60, 0
9, 117359, Note_on_c, 3, 64, 0
9, 117360, Note_on_c, 3, 62, 53
9, 117360, Note_on_c, 3, 65, 53
9, 117479, Note_on_c, 3, 62, 0
9, 117479, Note_on_c, 3, 65, 0
9, 117480, Note_on_c, 3, 64, 55
9, 117480, Note_on_c, 3, 67, 55
9, 117584, Note_on_c, 3, 64, 0
9, 117584, Note_on_c, 3, 67, 0
9, 117600, Note_on_c, 3, 65, 56
9, 117600, Note_on_c, 3, 69, 56
9, 117689, Note_on_c, 3, 65, 0
9, 117689, Note_on_c, 3, 69, 0
9, 117720, Note_on_c, 3, 72, 58
9, 117720, Note_on_c, 3, 69, 58
9, 117839, Note_on_c, 3, 72, 0
9, 117839, Note_on_c, 3, 69, 0
9, 117840, Note_on_c, 3, 67, 60
9, 117840, Note_on_c, 3, 71, 60
9, 117959, Note_on_c, 3, 67, 0
9, 117959, Note_on_c, 3, 71, 0
9, 117960, Note_on_c, 3, 69, 61
9, 117960, Note_on_c, 3, 65, 61
9, 118064, Note_on_c, 3, 69, 0
9, 118064, Note_on_c, 3, 65, 0
9, 118080, Note_on_c, 3, 67, 63
9, 118080, Note_on_c, 3, 64, 63
9, 118169, Note_on_c, 3, 67, 0
9, 118169, Note_on_c, 3, 64, 0
9, 118200, Note_on_c, 3, 67, 64
9, 118200, Note_on_c, 3, 64, 64
9, 118319, Note_on_c, 3, 67, 0
9, 118319, Note_on_c, 3, 64, 0
9, 118320, Note_on_c, 3, 65, 66
9, 118320, Note_on_c, 3, 62, 66
9, 118439, Note_on_c, 3, 65, 0
9, 118439, Note_on_c, 3, 62, 0
9, 118440, Note_on_c, 3, 60, 68
9, 118440, Note_on_c, 3, 64, 68
9, 118544, Note_on_c, 3, 60, 0
9, 118544, Note_on_c, 3, 64, 0
9, 118560, Note_on_c, 3, 64, 69
9, 118560, Note_on_c, 3, 60, 69
9, 118679, Note_on_c, 3, 64, 0
9, 118679, Note_on_c, 3, 60, 0
9, 118680, Note_on_c, 3, 59, 71
9, 118680, Note_on_c, 3, 62, 71
9, 118799, Note_on_c, 3, 59, 0
9, 118799, Note_on_c, 3, 62, 0
9, 118800, Note_on_c, 3, 60, 72
9, 118800, Note_on_c, 3, 57, 72
9, 118919, Note_on_c, 3, 60, 0
9, 118919, Note_on_c, 3, 57, 0
9, 118920, Note_on_c, 3, 59, 74
9, 118920, Note_on_c, 3, 62, 74
9, 119024, Note_on_c, 3, 59, 0
9, 119024, Note_on_c, 3, 62, 0
9, 119040, Note_on_c, 3, 60, 76
9, 119040, Note_on_c, 3, 64, 76
9, 119159, Note_on_c, 3, 60, 0
9, 119159, Note_on_c, 3, 64, 0
9, 119280, Note_on_c, 3, 72, 76
9, 119280, Note_on_c, 3, 67, 76
9, 119399, Note_on_c, 3, 72, 0
9, 119399, Note_on_c, 3, 67, 0
9, 119520, Note_on_c, 3, 69, 76
9, 119520, Note_on_c, 3, 72, 76
9, 119639, Note_on_c, 3, 69, 0
9, 119639, Note_on_c, 3, 72, 0
9, 119760, Note_on_c, 3, 69, 76
9, 119760, Note_on_c, 3, 77, 76
9, 119879, Note_on_c, 3, 69, 0
9, 119879, Note_on_c, 3, 77, 0
9, 120000, Note_on_c, 3, 67, 76
9, 120000, Note_on_c, 3, 76, 76
9, 120119, Note_on_c, 3, 67, 0
9, 120119, Note_on_c, 3, 76, 0
9, 120240, Note_on_c, 3, 72, 76
9, 120240, Note_on_c, 3, 76, 76
9, 120359, Note_on_c, 3, 72, 0
9, 120359, Note_on_c, 3, 76, 0
9, 120480, Note_on_c, 3, 71, 76
9, 120480, Note_on_c, 3, 77, 76
9, 120599, Note_on_c, 3, 71, 0
9, 120599, Note_on_c, 3, 77, 0
9, 120720, Note_on_c, 3, 77, 76
9, 120720, Note_on_c, 3, 71, 76
9, 120839, Note_on_c, 3, 77, 0
9, 120839, Note_on_c, 3, 71, 0
9, 120960, Note_on_c, 3, 60, 76
9, 120960, Note_on_c, 3, 72, 76
9, 121199, Note_on_c, 3, 60, 0
9, 121199, Note_on_c, 3, 72, 0
9, 121200, Note_on_c, 3, 67, 76
9, 121200, Note_on_c, 3, 55, 76
9, 121904, Note_on_c, 3, 67, 0
9, 121904, Note_on_c, 3, 55, 0
9, 121920, Note_on_c, 3, 64, 76
9, 121920, Note_on_c, 3, 76, 76
9, 122159, Note_on_c, 3, 64, 0
9, 122159, Note_on_c, 3, 76, 0
9, 122160, Note_on_c, 3, 60, 76
9, 122160, Note_on_c, 3, 72, 76
9, 122864, Note_on_c, 3, 60, 0
9, 122864, Note_on_c, 3, 72, 0
9, 122880, Note_on_c, 3, 72, 76
9, 122880, Note_on_c, 3, 60, 76
9, 123119, Note_on_c, 3, 72, 0
9, 123119, Note_on_c, 3, 60, 0
9, 123120, Note_on_c, 3, 67, 76
9, 123120, Note_on_c, 3, 55, 76
9, 123824, Note_on_c, 3, 67, 0
9, 123824, Note_on_c, 3, 55, 0
9, 123840, Note_on_c, 3, 76, 76
9, 123840, Note_on_c, 3, 64, 76
9, 124079, Note_on_c, 3, 76, 0
9, 124079, Note_on_c, 3, 64, 0
9, 124080, Note_on_c, 3, 60, 76
9, 124080, Note_on_c, 3, 72, 76
9, 124784, Note_on_c, 3, 60, 0
9, 124784, Note_on_c, 3, 72, 0
9, 124800, Note_on_c, 3, 60, 76
9, 124800, Note_on_c, 3, 72, 76
9, 125039, Note_on_c, 3, 60, 0
9, 125039, Note_on_c, 3, 72, 0
9, 125040, Note_on_c, 3, 55, 73
9, 125040, Note_on_c, 3, 67, 73
9, 125279, Note_on_c, 3, 55, 0
9, 125279, Note_on_c, 3, 67, 0
9, 125280, Note_on_c, 3, 60, 70
9, 125280, Note_on_c, 3, 72, 70
9, 125519, Note_on_c, 3, 60, 0
9, 125519, Note_on_c, 3, 72, 0
9, 125520, Note_on_c, 3, 67, 67
9, 125520, Note_on_c, 3, 55, 67
9, 125759, Note_on_c, 3, 67, 0
9, 125759, Note_on_c, 3, 55, 0
9, 125760, Note_on_c, 3, 60, 64
9, 125760, Note_on_c, 3, 72, 64
9, 125999, Note_on_c, 3, 60, 0
9, 125999, Note_on_c, 3, 72, 0
9, 126000, Note_on_c, 3, 67, 61
9, 126000, Note_on_c, 3, 55, 61
9, 126239, Note_on_c, 3, 67, 0
9, 126239, Note_on_c, 3, 55, 0
9, 126240, Note_on_c, 3, 72, 58
9, 126240, Note_on_c, 3, 60, 58
9, 126479, Note_on_c, 3, 72, 0
9, 126479, Note_on_c, 3, 60, 0
9, 126480, Note_on_c, 3, 67, 55
9, 126480, Note_on_c, 3, 55, 55
9, 126719, Note_on_c, 3, 67, 0
9, 126719, Note_on_c, 3, 55, 0
9, 126720, Note_on_c, 3, 72, 52
9, 126720, Note_on_c, 3, 60, 52
9, 126809, Note_on_c, 3, 72, 0
9, 126809, Note_on_c, 3, 60, 0
9, 132480, Note_on_c, 3, 64, 52
9, 132480, Note_on_c, 3, 70, 52
9, 133424, Note_on_c, 3, 64, 0
9, 133424, Note_on_c, 3, 70, 0
9, 133440, Note_on_c, 3, 70, 52
9, 133440, Note_on_c, 3, 64, 52
9, 134399, Note_on_c, 3, 70, 0
9, 134399, Note_on_c, 3, 64, 0
9, 136440, Note_on_c, 3, 74, 48
9, 136559, Note_on_c, 3, 74, 0
9, 136560, Note_on_c, 3, 75, 48
9, 136664, Note_on_c, 3, 75, 0
9, 136680, Note_on_c, 3, 79, 48
9, 136769, Note_on_c, 3, 79, 0
9, 136800, Note_on_c, 3, 77, 48
9, 136919, Note_on_c, 3, 77, 0
9, 136920, Note_on_c, 3, 75, 48
9, 136979, Note_on_c, 3, 75, 0
9, 136980, Note_on_c, 3, 74, 48
9, 137031, Note_on_c, 3, 74, 0
9, 137040, Note_on_c, 3, 72, 48
9, 137129, Note_on_c, 3, 72, 0
9, 137160, Note_on_c, 3, 65, 48
9, 137249, Note_on_c, 3, 65, 0
9, 137400, Note_on_c, 3, 74, 48
9, 137519, Note_on_c, 3, 74, 0
9, 137520, Note_on_c, 3, 75, 48
9, 137624, Note_on_c, 3, 75, 0
9, 137640, Note_on_c, 3, 79, 48
9, 137729, Note_on_c, 3, 79, 0
9, 137760, Note_on_c, 3, 77, 48
9, 137879, Note_on_c, 3, 77, 0
9, 137880, Note_on_c, 3, 75, 48
9, 137939, Note_on_c, 3, 75, 0
9, 137940, Note_on_c, 3, 74, 48
9, 137991, Note_on_c, 3, 74, 0
9, 138000, Note_on_c, 3, 72, 48
9, 138089, Note_on_c, 3, 72, 0
9, 138120, Note_on_c, 3, 65, 48
9, 138209, Note_on_c, 3, 65, 0
9, 138238, Control_c, 3, 11, 64
9, 138240, Note_on_c, 3, 62, 84
9, 138240, Note_on_c, 3, 70, 84
9, 138240, Control_c, 3, 11, 64
9, 138480, Control_c, 3, 11, 65
9, 138720, Control_c, 3, 11, 66
9, 138960, Control_c, 3, 11, 67
9, 139200, Control_c, 3, 11, 68
9, 139440, Control_c, 3, 11, 69
9, 139680, Control_c, 3, 11, 70
9, 139920, Control_c, 3, 11, 71
9, 140159, Note_on_c, 3, 62, 0
9, 140159, Note_on_c, 3, 70, 0
9, 140160, Note_on_c, 3, 70, 84
9, 140160, Note_on_c, 3, 62, 84
9, 140160, Control_c, 3, 11, 72
9, 140400, Control_c, 3, 11, 73
9, 140640, Control_c, 3, 11, 74
9, 140880, Control_c, 3, 11, 75
9, 141120, Control_c, 3, 11, 76
9, 141360, Control_c, 3, 11, 77
9, 141600, Control_c, 3, 11, 78
9, 141840, Control_c, 3, 11, 79
9, 142064, Note_on_c, 3, 70, 0
9, 142064, Note_on_c, 3, 62, 0
9, 142080, Note_on_c, 3, 70, 84
9, 142080, Control_c, 3, 11, 80
9, 142080, Note_on_c, 3, 62, 84
9, 142320, Control_c, 3, 11, 81
9, 142560, Control_c, 3, 11, 82
9, 142800, Control_c, 3, 11, 83
9, 143040, Control_c, 3, 11, 84
9, 143280, Control_c, 3, 11, 85
9, 143520, Control_c, 3, 11, 86
9, 143760, Control_c, 3, 11, 87
9, 143984, Note_on_c, 3, 70, 0
9, 143984, Note_on_c, 3, 62, 0
9, 144000, Control_c, 3, 11, 88
9, 144000, Note_on_c, 3, 62, 84
9, 144000, Note_on_c, 3, 69, 84
9, 144240, Control_c, 3, 11, 89
9, 144480, Control_c, 3, 11, 90
9, 144720, Control_c, 3, 11, 91
9, 144960, Control_c, 3, 11, 92
9, 145200, Control_c, 3, 11, 93
9, 145440, Control_c, 3, 11, 94
9, 145680, Control_c, 3, 11, 95
9, 145919, Note_on_c, 3, 62, 0
9, 145919, Note_on_c, 3, 69, 0
9, 145920, Control_c, 3, 11, 96
9, 145920, Note_on_c, 3, 62, 84
9, 145920, Note_on_c, 3, 69, 84
9, 146044, Control_c, 3, 11, 97
9, 146168, Control_c, 3, 11, 98
9, 146292, Control_c, 3, 11, 99
9, 146415, Control_c, 3, 11, 100
9, 146539, Control_c, 3, 11, 101
9, 146663, Control_c, 3, 11, 102
9, 146787, Control_c, 3, 11, 103
9, 146911, Control_c, 3, 11, 104
9, 147035, Control_c, 3, 11, 105
9, 147159, Control_c, 3, 11, 106
9, 147283, Control_c, 3, 11, 107
9, 147406, Control_c, 3, 11, 108
9, 147530, Control_c, 3, 11, 109
9, 147654, Control_c, 3, 11, 110
9, 147778, Control_c, 3, 11, 111
9, 147824, Note_on_c, 3, 62, 0
9, 147824, Note_on_c, 3, 69, 0
9, 147840, Note_on_c, 3, 69, 84
9, 147840, Note_on_c, 3, 62, 84
9, 147902, Control_c, 3, 11, 112
9, 148026, Control_c, 3, 11, 113
9, 148150, Control_c, 3, 11, 114
9, 148274, Control_c, 3, 11, 115
9, 148397, Control_c, 3, 11, 116
9, 148521, Control_c, 3, 11, 117
9, 148645, Control_c, 3, 11, 118
9, 148769, Control_c, 3, 11, 119
9, 148893, Control_c, 3, 11, 120
9, 149017, Control_c, 3, 11, 121
9, 149141, Control_c, 3, 11, 122
9, 149265, Control_c, 3, 11, 123
9, 149388, Control_c, 3, 11, 124
9, 149512, Control_c, 3, 11, 125
9, 149636, Control_c, 3, 11, 127
9, 149744, Note_on_c, 3, 69, 0
9, 149744, Note_on_c, 3, 62, 0
9, 149760, Note_on_c, 3, 62, 84
9, 149760, Note_on_c, 3, 74, 84
9, 150104, Note_on_c, 3, 62, 0
9, 150104, Note_on_c, 3, 74, 0
9, 150120, Note_on_c, 3, 62, 84
9, 150120, Note_on_c, 3, 74, 84
9, 150224, Note_on_c, 3, 62, 0
9, 150224, Note_on_c, 3, 74, 0
9, 150240, Note_on_c, 3, 62, 84
9, 150240, Note_on_c, 3, 74, 84
9, 150584, Note_on_c, 3, 62, 0
9, 150584, Note_on_c, 3, 74, 0
9, 150600, Note_on_c, 3, 74, 84
9, 150600, Note_on_c, 3, 62, 84
9, 150704, Note_on_c, 3, 74, 0
9, 150704, Note_on_c, 3, 62, 0
9, 150720, Note_on_c, 3, 74, 84
9, 150720, Note_on_c, 3, 62, 84
9, 151064, Note_on_c, 3, 74, 0
9, 151064, Note_on_c, 3, 62, 0
9, 151080, Note_on_c, 3, 74, 84
9, 151080, Note_on_c, 3, 62, 84
9, 151184, Note_on_c, 3, 74, 0
9, 151184, Note_on_c, 3, 62, 0
9, 151200, Note_on_c, 3, 62, 84
9, 151200, Note_on_c, 3, 74, 84
9, 151544, Note_on_c, 3, 62, 0
9, 151544, Note_on_c, 3, 74, 0
9, 151560, Note_on_c, 3, 62, 84
9, 151560, Note_on_c, 3, 74, 84
9, 151664, Note_on_c, 3, 62, 0
9, 151664, Note_on_c, 3, 74, 0
9, 151680, Note_on_c, 3, 62, 84
9, 151680, Note_on_c, 3, 74, 84
9, 151799, Note_on_c, 3, 62, 0
9, 151799, Note_on_c, 3, 74, 0
9, 152640, Note_on_c, 3, 62, 84
9, 152640, Note_on_c, 3, 74, 84
9, 152759, Note_on_c, 3, 62, 0
9, 152759, Note_on_c, 3, 74, 0
9, 159120, Control_c, 3, 11, 64
9, 159360, Note_on_c, 3, 67, 84
9, 159824, Note_on_c, 3, 67, 0
9, 159840, Note_on_c, 3, 62, 84
9, 160304, Note_on_c, 3, 62, 0
9, 160320, Control_c, 3, 11, 64
9, 160320, Note_on_c, 3, 62, 84
9, 160320, Note_on_c, 3, 71, 84
9, 160500, Control_c, 3, 11, 65
9, 160680, Control_c, 3, 11, 66
9, 160860, Control_c, 3, 11, 67
9, 161040, Control_c, 3, 11, 68
9, 161220, Control_c, 3, 11, 69
9, 161400, Control_c, 3, 11, 70
9, 161580, Control_c, 3, 11, 71
9, 161760, Control_c, 3, 11, 72
9, 161940, Control_c, 3, 11, 73
9, 162120, Control_c, 3, 11, 74
9, 162239, Note_on_c, 3, 62, 0
9, 162239, Note_on_c, 3, 71, 0
9, 162240, Note_on_c, 3, 71, 84
9, 162240, Note_on_c, 3, 62, 84
9, 162300, Control_c, 3, 11, 75
9, 162480, Control_c, 3, 11, 76
9, 162660, Control_c, 3, 11, 77
9, 162840, Control_c, 3, 11, 78
9, 163020, Control_c, 3, 11, 79
9, 163200, Control_c, 3, 11, 80
9, 163380, Control_c, 3, 11, 81
9, 163560, Control_c, 3, 11, 82
9, 163740, Control_c, 3, 11, 83
9, 163920, Control_c, 3, 11, 84
9, 164100, Control_c, 3, 11, 85
9, 164159, Note_on_c, 3, 71, 0
9, 164159, Note_on_c, 3, 62, 0
9, 164160, Note_on_c, 3, 62, 84
9, 164160, Note_on_c, 3, 71, 84
9, 164280, Control_c, 3, 11, 86
9, 164460, Control_c, 3, 11, 87
9, 164640, Control_c, 3, 11, 88
9, 164820, Control_c, 3, 11, 89
9, 165000, Control_c, 3, 11, 90
9, 165180, Control_c, 3, 11, 91
9, 165360, Control_c, 3, 11, 92
9, 165540, Control_c, 3, 11, 93
9, 165720, Control_c, 3, 11, 94
9, 165900, Control_c, 3, 11, 95
9, 166064, Note_on_c, 3, 62, 0
9, 166064, Note_on_c, 3, 71, 0
9, 166080, Control_c, 3, 11, 96
9, 166080, Note_on_c, 3, 71, 84
9, 166080, Note_on_c, 3, 64, 84
9, 166266, Control_c, 3, 11, 97
9, 166452, Control_c, 3, 11, 98
9, 166637, Control_c, 3, 11, 99
9, 166823, Control_c, 3, 11, 100
9, 167009, Control_c, 3, 11, 101
9, 167195, Control_c, 3, 11, 102
9, 167381, Control_c, 3, 11, 103
9, 167566, Control_c, 3, 11, 104
9, 167752, Control_c, 3, 11, 105
9, 167938, Control_c, 3, 11, 106
9, 167999, Note_on_c, 3, 71, 0
9, 167999, Note_on_c, 3, 64, 0
9, 168000, Note_on_c, 3, 64, 84
9, 168000, Note_on_c, 3, 71, 84
9, 168124, Control_c, 3, 11, 107
9, 168310, Control_c, 3, 11, 108
9, 168495, Control_c, 3, 11, 109
9, 168681, Control_c, 3, 11, 110
9, 168867, Control_c, 3, 11, 111
9, 169053, Control_c, 3, 11, 112
9, 169239, Control_c, 3, 11, 113
9, 169425, Control_c, 3, 11, 114
9, 169610, Control_c, 3, 11, 115
9, 169796, Control_c, 3, 11, 116
9, 169919, Note_on_c, 3, 64, 0
9, 169919, Note_on_c, 3, 71, 0
9, 169920, Note_on_c, 3, 64, 84
9, 169920, Note_on_c, 3, 71, 84
9, 169982, Control_c, 3, 11, 117
9, 170168, Control_c, 3, 11, 118
9, 170354, Control_c, 3, 11, 119
9, 170539, Control_c, 3, 11, 120
9, 170725, Control_c, 3, 11, 121
9, 170911, Control_c, 3, 11, 122
9, 171097, Control_c, 3, 11, 123
9, 171283, Control_c, 3, 11, 124
9, 171468, Control_c, 3, 11, 125
9, 171654, Control_c, 3, 11, 127
9, 171824, Note_on_c, 3, 64, 0
9, 171824, Note_on_c, 3, 71, 0
9, 171840, Note_on_c, 3, 64, 84
9, 171840, Note_on_c, 3, 76, 84
9, 172184, Note_on_c, 3, 64, 0
9, 172184, Note_on_c, 3, 76, 0
9, 172200, Note_on_c, 3, 64, 84
9, 172200, Note_on_c, 3, 76, 84
9, 172304, Note_on_c, 3, 64, 0
9, 172304, Note_on_c, 3, 76, 0
9, 172320, Note_on_c, 3, 64, 84
9, 172320, Note_on_c, 3, 76, 84
9, 172664, Note_on_c, 3, 64, 0
9, 172664, Note_on_c, 3, 76, 0
9, 172680, Note_on_c, 3, 64, 84
9, 172680, Note_on_c, 3, 76, 84
9, 172784, Note_on_c, 3, 64, 0
9, 172784, Note_on_c, 3, 76, 0
9, 172800, Note_on_c, 3, 64, 84
9, 172800, Note_on_c, 3, 76, 84
9, 173144, Note_on_c, 3, 64, 0
9, 173144, Note_on_c, 3, 76, 0
9, 173160, Note_on_c, 3, 64, 84
9, 173160, Note_on_c, 3, 76, 84
9, 173264, Note_on_c, 3, 64, 0
9, 173264, Note_on_c, 3, 76, 0
9, 173280, Note_on_c, 3, 76, 84
9, 173280, Note_on_c, 3, 64, 84
9, 173624, Note_on_c, 3, 76, 0
9, 173624, Note_on_c, 3, 64, 0
9, 173640, Note_on_c, 3, 64, 84
9, 173640, Note_on_c, 3, 76, 84
9, 173744, Note_on_c, 3, 64, 0
9, 173744, Note_on_c, 3, 76, 0
9, 173760, Note_on_c, 3, 76, 84
9, 173760, Note_on_c, 3, 64, 84
9, 173879, Note_on_c, 3, 76, 0
9, 173879, Note_on_c, 3, 64, 0
9, 174720, Note_on_c, 3, 76, 84
9, 174720, Note_on_c, 3, 64, 84
9, 174839, Note_on_c, 3, 76, 0
9, 174839, Note_on_c, 3, 64, 0
9, 181440, Note_on_c, 3, 69, 52
9, 181904, Note_on_c, 3, 69, 0
9, 181920, Note_on_c, 3, 64, 52
9, 182399, Note_on_c, 3, 64, 0
9, 192000, Note_on_c, 3, 64, 84
9, 192239, Note_on_c, 3, 64, 0
9, 192240, Note_on_c, 3, 67, 84
9, 192479, Note_on_c, 3, 67, 0
9, 192480, Note_on_c, 3, 65, 84
9, 192839, Note_on_c, 3, 65, 0
9, 192840, Note_on_c, 3, 64, 84
9, 192944, Note_on_c, 3, 64, 0
9, 192960, Note_on_c, 3, 69, 92
9, 193199, Note_on_c, 3, 69, 0
9, 193200, Note_on_c, 3, 67, 84
9, 193424, Note_on_c, 3, 67, 0
9, 193440, Note_on_c, 3, 65, 84
9, 193529, Note_on_c, 3, 65, 0
9, 193560, Note_on_c, 3, 65, 84
9, 193619, Note_on_c, 3, 65, 0
9, 193620, Note_on_c, 3, 67, 84
9, 193671, Note_on_c, 3, 67, 0
9, 193680, Note_on_c, 3, 69, 84
9, 193769, Note_on_c, 3, 69, 0
9, 193800, Note_on_c, 3, 65, 84
9, 193889, Note_on_c, 3, 65, 0
9, 193920, Note_on_c, 3, 67, 92
9, 194159, Note_on_c, 3, 67, 0
9, 194160, Note_on_c, 3, 70, 84
9, 194399, Note_on_c, 3, 70, 0
9, 194400, Note_on_c, 3, 69, 84
9, 194759, Note_on_c, 3, 69, 0
9, 194760, Note_on_c, 3, 67, 84
9, 194864, Note_on_c, 3, 67, 0
9, 194880, Note_on_c, 3, 72, 92
9, 195119, Note_on_c, 3, 72, 0
9, 195120, Note_on_c, 3, 70, 84
9, 195344, Note_on_c, 3, 70, 0
9, 195360, Note_on_c, 3, 69, 84
9, 195449, Note_on_c, 3, 69, 0
9, 195480, Note_on_c, 3, 69, 84
9, 195539, Note_on_c, 3, 69, 0
9, 195540, Note_on_c, 3, 70, 84
9, 195591, Note_on_c, 3, 70, 0
9, 195600, Note_on_c, 3, 72, 84
9, 195689, Note_on_c, 3, 72, 0
9, 195720, Note_on_c, 3, 69, 84
9, 195809, Note_on_c, 3, 69, 0
9, 195840, Note_on_c, 3, 74, 92
9, 196079, Note_on_c, 3, 74, 0
9, 196080, Note_on_c, 3, 72, 84
9, 196304, Note_on_c, 3, 72, 0
9, 196320, Note_on_c, 3, 70, 84
9, 196409, Note_on_c, 3, 70, 0
9, 196440, Note_on_c, 3, 67, 84
9, 196499, Note_on_c, 3, 67, 0
9, 196500, Note_on_c, 3, 69, 84
9, 196559, Note_on_c, 3, 69, 0
9, 196560, Note_on_c, 3, 70, 84
9, 196649, Note_on_c, 3, 70, 0
9, 196680, Note_on_c, 3, 72, 84
9, 196769, Note_on_c, 3, 72, 0
9, 196800, Note_on_c, 3, 74, 92
9, 197039, Note_on_c, 3, 74, 0
9, 197040, Note_on_c, 3, 72, 84
9, 197264, Note_on_c, 3, 72, 0
9, 197280, Note_on_c, 3, 70, 84
9, 197369, Note_on_c, 3, 70, 0
9, 197400, Note_on_c, 3, 67, 84
9, 197459, Note_on_c, 3, 67, 0
9, 197460, Note_on_c, 3, 69, 84
9, 197519, Note_on_c, 3, 69, 0
9, 197520, Note_on_c, 3, 70, 84
9, 197609, Note_on_c, 3, 70, 0
9, 197640, Note_on_c, 3, 72, 84
9, 197729, Note_on_c, 3, 72, 0
9, 197760, Note_on_c, 3, 74, 84
9, 197879, Note_on_c, 3, 74, 0
9, 205200, Control_c, 3, 11, 96
9, 205440, Note_on_c, 3, 65, 68
9, 205560, Note_on_c, 3, 69, 68
9, 205679, Note_on_c, 3, 69, 0
9, 205680, Note_on_c, 3, 70, 68
9, 205799, Note_on_c, 3, 70, 0
9, 205800, Note_on_c, 3, 74, 68
9, 205919, Note_on_c, 3, 65, 0
9, 205919, Note_on_c, 3, 74, 0
9, 205920, Note_on_c, 3, 67, 68
9, 205920, Note_on_c, 3, 72, 68
9, 206039, Note_on_c, 3, 72, 0
9, 206100, Note_on_c, 3, 69, 68
9, 206159, Note_on_c, 3, 69, 0
9, 206160, Note_on_c, 3, 70, 68
9, 206279, Note_on_c, 3, 67, 0
9, 206279, Note_on_c, 3, 70, 0
9, 206280, Note_on_c, 3, 64, 68
9, 206280, Note_on_c, 3, 67, 68
9, 206384, Note_on_c, 3, 64, 0
9, 206384, Note_on_c, 3, 67, 0
9, 206400, Note_on_c, 3, 69, 68
9, 206400, Control_c, 3, 11, 96
9, 206400, Note_on_c, 3, 65, 68
9, 206440, Control_c, 3, 11, 97
9, 206480, Control_c, 3, 11, 99
9, 206520, Control_c, 3, 11, 100
9, 206560, Control_c, 3, 11, 101
9, 206600, Control_c, 3, 11, 102
9, 206639, Note_on_c, 3, 69, 0
9, 206639, Note_on_c, 3, 65, 0
9, 206640, Control_c, 3, 11, 104
9, 206640, Note_on_c, 3, 69, 68
9, 206640, Note_on_c, 3, 72, 68
9, 206680, Control_c, 3, 11, 105
9, 206720, Control_c, 3, 11, 106
9, 206760, Control_c, 3, 11, 108
9, 206800, Control_c, 3, 11, 109
9, 206840, Control_c, 3, 11, 110
9, 206879, Note_on_c, 3, 69, 0
9, 206879, Note_on_c, 3, 72, 0
9, 206880, Note_on_c, 3, 70, 68
9, 206880, Control_c, 3, 11, 112
9, 206880, Note_on_c, 3, 67, 68
9, 206920, Control_c, 3, 11, 113
9, 206960, Control_c, 3, 11, 114
9, 207000, Control_c, 3, 11, 115
9, 207040, Control_c, 3, 11, 117
9, 207080, Control_c, 3, 11, 118
9, 207120, Control_c, 3, 11, 119
9, 207160, Control_c, 3, 11, 121
9, 207200, Control_c, 3, 11, 122
9, 207239, Note_on_c, 3, 70, 0
9, 207239, Note_on_c, 3, 67, 0
9, 207240, Note_on_c, 3, 65, 68
9, 207240, Control_c, 3, 11, 123
9, 207240, Note_on_c, 3, 69, 68
9, 207280, Control_c, 3, 11, 124
9, 207320, Control_c, 3, 11, 126
9, 207344, Note_on_c, 3, 65, 0
9, 207344, Note_on_c, 3, 69, 0
9, 207360, Note_on_c, 3, 74, 68
9, 207360, Note_on_c, 3, 70, 68
9, 207360, Control_c, 3, 11, 127
9, 207400, Control_c, 3, 11, 126
9, 207440, Control_c, 3, 11, 124
9, 207480, Control_c, 3, 11, 123
9, 207520, Control_c, 3, 11, 122
9, 207560, Control_c, 3, 11, 121
9, 207599, Note_on_c, 3, 74, 0
9, 207599, Note_on_c, 3, 70, 0
9, 207600, Note_on_c, 3, 69, 68
9, 207600, Note_on_c, 3, 72, 68
9, 207600, Control_c, 3, 11, 119
9, 207640, Control_c, 3, 11, 118
9, 207680, Control_c, 3, 11, 117
9, 207720, Control_c, 3, 11, 115
9, 207760, Control_c, 3, 11, 114
9, 207800, Control_c, 3, 11, 113
9, 207824, Note_on_c, 3, 69, 0
9, 207824, Note_on_c, 3, 72, 0
9, 207840, Control_c, 3, 11, 112
9, 207840, Note_on_c, 3, 67, 68
9, 207840, Note_on_c, 3, 64, 68
9, 207880, Control_c, 3, 11, 110
9, 207920, Control_c, 3, 11, 109
9, 207929, Note_on_c, 3, 67, 0
9, 207960, Note_on_c, 3, 67, 68
9, 207960, Control_c, 3, 11, 108
9, 208000, Control_c, 3, 11, 106
9, 208019, Note_on_c, 3, 67, 0
9, 208020, Note_on_c, 3, 69, 68
9, 208040, Control_c, 3, 11, 105
9, 208079, Note_on_c, 3, 69, 0
9, 208080, Control_c, 3, 11, 104
9, 208080, Note_on_c, 3, 70, 68
9, 208120, Control_c, 3, 11, 102
9, 208160, Control_c, 3, 11, 101
9, 208199, Note_on_c, 3, 70, 0
9, 208200, Control_c, 3, 11, 100
9, 208200, Note_on_c, 3, 67, 68
9, 208240, Control_c, 3, 11, 99
9, 208280, Control_c, 3, 11, 96
9, 208304, Note_on_c, 3, 64, 0
9, 208304, Note_on_c, 3, 67, 0
9, 208320, Note_on_c, 3, 69, 68
9, 208320, Note_on_c, 3, 65, 68
9, 208439, Note_on_c, 3, 69, 0
9, 208439, Note_on_c, 3, 65, 0
9, 214560, Control_c, 3, 11, 127
9, 214680, Note_on_c, 3, 70, 70
9, 214739, Note_on_c, 3, 70, 0
9, 214740, Note_on_c, 3, 72, 71
9, 214791, Note_on_c, 3, 72, 0
9, 214800, Note_on_c, 3, 74, 72
9, 214889, Note_on_c, 3, 74, 0
9, 214920, Note_on_c, 3, 76, 74
9, 215009, Note_on_c, 3, 76, 0
9, 215040, Note_on_c, 3, 77, 76
9, 215159, Note_on_c, 3, 77, 0
9, 215520, Note_on_c, 3, 65, 84
9, 215520, Note_on_c, 3, 69, 84
9, 215624, Note_on_c, 3, 65, 0
9, 215624, Note_on_c, 3, 69, 0
9, 215640, Note_on_c, 3, 69, 84
9, 215640, Note_on_c, 3, 81, 84
9, 215729, Note_on_c, 3, 69, 0
9, 215729, Note_on_c, 3, 81, 0
9, 215760, Note_on_c, 3, 82, 84
9, 215760, Note_on_c, 3, 70, 84
9, 215849, Note_on_c, 3, 82, 0
9, 215849, Note_on_c, 3, 70, 0
9, 215880, Note_on_c, 3, 74, 84
9, 215969, Note_on_c, 3, 74, 0
9, 216000, Note_on_c, 3, 72, 84
9, 216119, Note_on_c, 3, 72, 0
9, 216120, Note_on_c, 3, 70, 84
9, 216179, Note_on_c, 3, 70, 0
9, 216180, Note_on_c, 3, 69, 84
9, 216231, Note_on_c, 3, 69, 0
9, 216240, Note_on_c, 3, 67, 84
9, 216329, Note_on_c, 3, 67, 0
9, 216360, Note_on_c, 3, 60, 84
9, 216449, Note_on_c, 3, 60, 0
9, 216480, Note_on_c, 3, 65, 84
9, 216569, Note_on_c, 3, 65, 0
9, 216600, Note_on_c, 3, 67, 84
9, 216600, Note_on_c, 3, 64, 84
9, 216689, Note_on_c, 3, 67, 0
9, 216689, Note_on_c, 3, 64, 0
9, 216720, Note_on_c, 3, 65, 84
9, 216720, Note_on_c, 3, 69, 84
9, 216839, Note_on_c, 3, 65, 0
9, 216839, Note_on_c, 3, 69, 0
9, 216840, Note_on_c, 3, 70, 84
9, 216840, Note_on_c, 3, 67, 84
9, 216899, Note_on_c, 3, 70, 0
9, 216899, Note_on_c, 3, 67, 0
9, 216900, Note_on_c, 3, 69, 84
9, 216900, Note_on_c, 3, 65, 84
9, 216951, Note_on_c, 3, 69, 0
9, 216951, Note_on_c, 3, 65, 0
9, 216960, Note_on_c, 3, 67, 84
9, 216960, Note_on_c, 3, 64, 84
9, 217049, Note_on_c, 3, 67, 0
9, 217049, Note_on_c, 3, 64, 0
9, 217080, Note_on_c, 3, 69, 84
9, 217080, Note_on_c, 3, 65, 84
9, 217169, Note_on_c, 3, 69, 0
9, 217169, Note_on_c, 3, 65, 0
9, 217200, Note_on_c, 3, 70, 84
9, 217200, Note_on_c, 3, 67, 84
9, 217319, Note_on_c, 3, 70, 0
9, 217319, Note_on_c, 3, 67, 0
9, 217320, Note_on_c, 3, 72, 84
9, 217320, Note_on_c, 3, 69, 84
9, 217379, Note_on_c, 3, 72, 0
9, 217379, Note_on_c, 3, 69, 0
9, 217380, Note_on_c, 3, 70, 84
9, 217380, Note_on_c, 3, 67, 84
9, 217431, Note_on_c, 3, 70, 0
9, 217431, Note_on_c, 3, 67, 0
9, 217440, Note_on_c, 3, 69, 84
9, 217440, Note_on_c, 3, 65, 84
9, 217559, Note_on_c, 3, 69, 0
9, 217559, Note_on_c, 3, 65, 0
9, 217560, Note_on_c, 3, 72, 84
9, 217560, Note_on_c, 3, 69, 84
9, 217664, Note_on_c, 3, 72, 0
9, 217664, Note_on_c, 3, 69, 0
9, 217680, Note_on_c, 3, 69, 84
9, 217680, Note_on_c, 3, 72, 84
9, 217769, Note_on_c, 3, 69, 0
9, 217769, Note_on_c, 3, 72, 0
9, 217800, Note_on_c, 3, 72, 84
9, 217800, Note_on_c, 3, 69, 84
9, 217889, Note_on_c, 3, 72, 0
9, 217889, Note_on_c, 3, 69, 0
9, 217920, Note_on_c, 3, 72, 84
9, 217920, Note_on_c, 3, 69, 84
9, 218159, Note_on_c, 3, 72, 0
9, 218159, Note_on_c, 3, 69, 0
9, 218160, Note_on_c, 3, 70, 84
9, 218160, Note_on_c, 3, 67, 84
9, 218219, Note_on_c, 3, 70, 0
9, 218219, Note_on_c, 3, 67, 0
9, 218220, Note_on_c, 3, 69, 84
9, 218220, Note_on_c, 3, 65, 84
9, 218279, Note_on_c, 3, 69, 0
9, 218279, Note_on_c, 3, 65, 0
9, 218280, Note_on_c, 3, 67, 84
9, 218280, Note_on_c, 3, 64, 84
9, 218339, Note_on_c, 3, 67, 0
9, 218339, Note_on_c, 3, 64, 0
9, 218340, Note_on_c, 3, 65, 84
9, 218340, Note_on_c, 3, 62, 84
9, 218391, Note_on_c, 3, 65, 0
9, 218391, Note_on_c, 3, 62, 0
9, 218400, Note_on_c, 3, 64, 84
9, 218400, Note_on_c, 3, 60, 84
9, 218489, Note_on_c, 3, 64, 0
9, 218489, Note_on_c, 3, 60, 0
9, 218520, Note_on_c, 3, 65, 84
9, 218520, Note_on_c, 3, 62, 84
9, 218609, Note_on_c, 3, 65, 0
9, 218609, Note_on_c, 3, 62, 0
9, 218640, Note_on_c, 3, 67, 84
9, 218640, Note_on_c, 3, 64, 84
9, 218759, Note_on_c, 3, 67, 0
9, 218759, Note_on_c, 3, 64, 0
9, 218760, Note_on_c, 3, 65, 84
9, 218760, Note_on_c, 3, 69, 84
9, 218819, Note_on_c, 3, 65, 0
9, 218819, Note_on_c, 3, 69, 0
9, 218820, Note_on_c, 3, 67, 84
9, 218820, Note_on_c, 3, 64, 84
9, 218871, Note_on_c, 3, 67, 0
9, 218871, Note_on_c, 3, 64, 0
9, 218880, Note_on_c, 3, 62, 84
9, 218880, Note_on_c, 3, 65, 84
9, 218969, Note_on_c, 3, 62, 0
9, 218969, Note_on_c, 3, 65, 0
9, 219000, Note_on_c, 3, 67, 84
9, 219000, Note_on_c, 3, 64, 84
9, 219089, Note_on_c, 3, 67, 0
9, 219089, Note_on_c, 3, 64, 0
9, 219120, Note_on_c, 3, 69, 84
9, 219120, Note_on_c, 3, 65, 84
9, 219239, Note_on_c, 3, 69, 0
9, 219239, Note_on_c, 3, 65, 0
9, 219240, Note_on_c, 3, 70, 84
9, 219240, Note_on_c, 3, 67, 84
9, 219299, Note_on_c, 3, 70, 0
9, 219299, Note_on_c, 3, 67, 0
9, 219300, Note_on_c, 3, 69, 84
9, 219300, Note_on_c, 3, 65, 84
9, 219351, Note_on_c, 3, 69, 0
9, 219351, Note_on_c, 3, 65, 0
9, 219360, Note_on_c, 3, 67, 84
9, 219360, Note_on_c, 3, 64, 84
9, 219479, Note_on_c, 3, 67, 0
9, 219479, Note_on_c, 3, 64, 0
9, 219480, Note_on_c, 3, 67, 84
9, 219480, Note_on_c, 3, 70, 84
9, 219584, Note_on_c, 3, 67, 0
9, 219584, Note_on_c, 3, 70, 0
9, 219600, Note_on_c, 3, 70, 84
9, 219600, Note_on_c, 3, 67, 84
9, 219689, Note_on_c, 3, 70, 0
9, 219689, Note_on_c, 3, 67, 0
9, 219720, Note_on_c, 3, 67, 84
9, 219720, Note_on_c, 3, 70, 84
9, 219809, Note_on_c, 3, 67, 0
9, 219809, Note_on_c, 3, 70, 0
9, 219840, Note_on_c, 3, 70, 84
9, 219840, Note_on_c, 3, 67, 84
9, 220079, Note_on_c, 3, 70, 0
9, 220079, Note_on_c, 3, 67, 0
9, 220080, Note_on_c, 3, 72, 84
9, 220080, Note_on_c, 3, 69, 84
9, 220139, Note_on_c, 3, 72, 0
9, 220139, Note_on_c, 3, 69, 0
9, 220140, Note_on_c, 3, 70, 84
9, 220140, Note_on_c, 3, 67, 84
9, 220199, Note_on_c, 3, 70, 0
9, 220199, Note_on_c, 3, 67, 0
9, 220200, Note_on_c, 3, 69, 84
9, 220200, Note_on_c, 3, 65, 84
9, 220259, Note_on_c, 3, 69, 0
9, 220259, Note_on_c, 3, 65, 0
9, 220260, Note_on_c, 3, 67, 84
9, 220260, Note_on_c, 3, 64, 84
9, 220311, Note_on_c, 3, 67, 0
9, 220311, Note_on_c, 3, 64, 0
9, 220320, Note_on_c, 3, 65, 84
9, 220320, Note_on_c, 3, 69, 84
9, 220409, Note_on_c, 3, 65, 0
9, 220409, Note_on_c, 3, 69, 0
9, 220440, Note_on_c, 3, 70, 84
9, 220440, Note_on_c, 3, 67, 84
9, 220529, Note_on_c, 3, 70, 0
9, 220529, Note_on_c, 3, 67, 0
9, 220560, Note_on_c, 3, 72, 84
9, 220560, Note_on_c, 3, 69, 84
9, 220679, Note_on_c, 3, 72, 0
9, 220679, Note_on_c, 3, 69, 0
9, 220680, Note_on_c, 3, 74, 84
9, 220680, Note_on_c, 3, 70, 84
9, 220739, Note_on_c, 3, 74, 0
9, 220739, Note_on_c, 3, 70, 0
9, 220740, Note_on_c, 3, 72, 84
9, 220740, Note_on_c, 3, 69, 84
9, 220791, Note_on_c, 3, 72, 0
9, 220791, Note_on_c, 3, 69, 0
9, 220800, Note_on_c, 3, 67, 84
9, 220800, Note_on_c, 3, 70, 84
9, 221144, Note_on_c, 3, 67, 0
9, 221144, Note_on_c, 3, 70, 0
9, 221160, Note_on_c, 3, 64, 84
9, 221160, Note_on_c, 3, 67, 84
9, 221264, Note_on_c, 3, 64, 0
9, 221264, Note_on_c, 3, 67, 0
9, 221280, Note_on_c, 3, 69, 84
9, 221280, Note_on_c, 3, 65, 84
9, 221369, Note_on_c, 3, 69, 0
9, 221369, Note_on_c, 3, 65, 0
9, 221400, Note_on_c, 3, 70, 84
9, 221400, Note_on_c, 3, 67, 84
9, 221489, Note_on_c, 3, 70, 0
9, 221489, Note_on_c, 3, 67, 0
9, 221520, Note_on_c, 3, 72, 84
9, 221520, Note_on_c, 3, 69, 84
9, 221744, Note_on_c, 3, 72, 0
9, 221744, Note_on_c, 3, 69, 0
9, 221760, Note_on_c, 3, 67, 84
9, 221760, Note_on_c, 3, 70, 84
9, 222104, Note_on_c, 3, 67, 0
9, 222104, Note_on_c, 3, 70, 0
9, 222120, Note_on_c, 3, 64, 84
9, 222120, Note_on_c, 3, 67, 84
9, 222224, Note_on_c, 3, 64, 0
9, 222224, Note_on_c, 3, 67, 0
9, 222240, Note_on_c, 3, 69, 84
9, 222240, Note_on_c, 3, 65, 84
9, 222359, Note_on_c, 3, 69, 0
9, 222359, Note_on_c, 3, 65, 0
9, 222360, Note_on_c, 3, 64, 84
9, 222360, Note_on_c, 3, 67, 84
9, 222479, Note_on_c, 3, 64, 0
9, 222479, Note_on_c, 3, 67, 0
9, 222480, Note_on_c, 3, 67, 84
9, 222480, Note_on_c, 3, 70, 84
9, 222599, Note_on_c, 3, 67, 0
9, 222599, Note_on_c, 3, 70, 0
9, 222600, Note_on_c, 3, 67, 84
9, 222600, Note_on_c, 3, 64, 84
9, 222704, Note_on_c, 3, 67, 0
9, 222704, Note_on_c, 3, 64, 0
9, 222720, Note_on_c, 3, 65, 84
9, 222720, Note_on_c, 3, 69, 84
9, 222839, Note_on_c, 3, 65, 0
9, 222839, Note_on_c, 3, 69, 0
9, 222840, Note_on_c, 3, 64, 84
9, 222840, Note_on_c, 3, 67, 84
9, 222959, Note_on_c, 3, 64, 0
9, 222959, Note_on_c, 3, 67, 0
9, 222960, Note_on_c, 3, 67, 84
9, 222960, Note_on_c, 3, 70, 84
9, 223079, Note_on_c, 3, 67, 0
9, 223079, Note_on_c, 3, 70, 0
9, 223080, Note_on_c, 3, 67, 84
9, 223080, Note_on_c, 3, 64, 84
9, 223184, Note_on_c, 3, 67, 0
9, 223184, Note_on_c, 3, 64, 0
9, 223200, Note_on_c, 3, 65, 76
9, 223200, Note_on_c, 3, 69, 76
9, 223267, Note_on_c, 3, 65, 0
9, 223267, Note_on_c, 3, 69, 0
9, 223280, Note_on_c, 3, 65, 52
9, 223280, Note_on_c, 3, 69, 52
9, 223347, Note_on_c, 3, 65, 0
9, 223347, Note_on_c, 3, 69, 0
9, 223360, Note_on_c, 3, 65, 52
9, 223360, Note_on_c, 3, 69, 52
9, 223427, Note_on_c, 3, 65, 0
9, 223427, Note_on_c, 3, 69, 0
9, 223440, Note_on_c, 3, 69, 52
9, 223440, Note_on_c, 3, 65, 52
9, 223507, Note_on_c, 3, 69, 0
9, 223507, Note_on_c, 3, 65, 0
9, 223520, Note_on_c, 3, 65, 52
9, 223520, Note_on_c, 3, 69, 52
9, 223587, Note_on_c, 3, 65, 0
9, 223587, Note_on_c, 3, 69, 0
9, 223600, Note_on_c, 3, 69, 52
9, 223600, Note_on_c, 3, 65, 52
9, 223667, Note_on_c, 3, 69, 0
9, 223667, Note_on_c, 3, 65, 0
9, 223680, Note_on_c, 3, 69, 52
9, 223680, Note_on_c, 3, 65, 52
9, 223919, Note_on_c, 3, 69, 0
9, 223919, Note_on_c, 3, 65, 0
9, 225120, Note_on_c, 3, 65, 52
9, 225120, Note_on_c, 3, 69, 52
9, 225187, Note_on_c, 3, 65, 0
9, 225187, Note_on_c, 3, 69, 0
9, 225200, Note_on_c, 3, 69, 52
9, 225200, Note_on_c, 3, 65, 52
9, 225267, Note_on_c, 3, 69, 0
9, 225267, Note_on_c, 3, 65, 0
9, 225280, Note_on_c, 3, 65, 52
9, 225280, Note_on_c, 3, 69, 52
9, 225347, Note_on_c, 3, 65, 0
9, 225347, Note_on_c, 3, 69, 0
9, 225360, Note_on_c, 3, 65, 52
9, 225360, Note_on_c, 3, 69, 52
9, 225427, Note_on_c, 3, 65, 0
9, 225427, Note_on_c, 3, 69, 0
9, 225440, Note_on_c, 3, 69, 52
9, 225440, Note_on_c, 3, 65, 52
9, 225507, Note_on_c, 3, 69, 0
9, 225507, Note_on_c, 3, 65, 0
9, 225520, Note_on_c, 3, 69, 52
9, 225520, Note_on_c, 3, 65, 52
9, 225587, Note_on_c, 3, 69, 0
9, 225587, Note_on_c, 3, 65, 0
9, 225600, Note_on_c, 3, 69, 52
9, 225600, Note_on_c, 3, 65, 52
9, 225839, Note_on_c, 3, 69, 0
9, 225839, Note_on_c, 3, 65, 0
9, 227040, Note_on_c, 3, 69, 52
9, 227040, Note_on_c, 3, 65, 52
9, 227107, Note_on_c, 3, 69, 0
9, 227107, Note_on_c, 3, 65, 0
9, 227120, Note_on_c, 3, 65, 52
9, 227120, Note_on_c, 3, 69, 52
9, 227187, Note_on_c, 3, 65, 0
9, 227187, Note_on_c, 3, 69, 0
9, 227200, Note_on_c, 3, 65, 52
9, 227200, Note_on_c, 3, 69, 52
9, 227267, Note_on_c, 3, 65, 0
9, 227267, Note_on_c, 3, 69, 0
9, 227280, Note_on_c, 3, 65, 52
9, 227280, Note_on_c, 3, 69, 52
9, 227347, Note_on_c, 3, 65, 0
9, 227347, Note_on_c, 3, 69, 0
9, 227360, Note_on_c, 3, 65, 52
9, 227360, Note_on_c, 3, 69, 52
9, 227427, Note_on_c, 3, 65, 0
9, 227427, Note_on_c, 3, 69, 0
9, 227440, Note_on_c, 3, 65, 52
9, 227440, Note_on_c, 3, 69, 52
9, 227507, Note_on_c, 3, 65, 0
9, 227507, Note_on_c, 3, 69, 0
9, 227520, Note_on_c, 3, 69, 52
9, 227520, Note_on_c, 3, 65, 52
9, 227759, Note_on_c, 3, 69, 0
9, 227759, Note_on_c, 3, 65, 0
9, 228000, Note_on_c, 3, 65, 52
9, 228000, Note_on_c, 3, 62, 52
9, 228067, Note_on_c, 3, 65, 0
9, 228067, Note_on_c, 3, 62, 0
9, 228080, Note_on_c, 3, 65, 52
9, 228080, Note_on_c, 3, 62, 52
9, 228147, Note_on_c, 3, 65, 0
9, 228147, Note_on_c, 3, 62, 0
9, 228160, Note_on_c, 3, 65, 52
9, 228160, Note_on_c, 3, 62, 52
9, 228227, Note_on_c, 3, 65, 0
9, 228227, Note_on_c, 3, 62, 0
9, 228240, Note_on_c, 3, 65, 52
9, 228240, Note_on_c, 3, 62, 52
9, 228307, Note_on_c, 3, 65, 0
9, 228307, Note_on_c, 3, 62, 0
9, 228320, Note_on_c, 3, 62, 52
9, 228320, Note_on_c, 3, 65, 52
9, 228387, Note_on_c, 3, 62, 0
9, 228387, Note_on_c, 3, 65, 0
9, 228400, Note_on_c, 3, 62, 52
9, 228400, Note_on_c, 3, 65, 52
9, 228467, Note_on_c, 3, 62, 0
9, 228467, Note_on_c, 3, 65, 0
9, 228480, Note_on_c, 3, 62, 52
9, 228480, Note_on_c, 3, 65, 52
9, 228719, Note_on_c, 3, 62, 0
9, 228719, Note_on_c, 3, 65, 0
9, 228960, Note_on_c, 3, 60, 52
9, 228960, Note_on_c, 3, 64, 52
9, 229027, Note_on_c, 3, 60, 0
9, 229027, Note_on_c, 3, 64, 0
9, 229040, Note_on_c, 3, 60, 52
9, 229040, Note_on_c, 3, 64, 52
9, 229107, Note_on_c, 3, 60, 0
9, 229107, Note_on_c, 3, 64, 0
9, 229120, Note_on_c, 3, 64, 52
9, 229120, Note_on_c, 3, 60, 52
9, 229187, Note_on_c, 3, 64, 0
9, 229187, Note_on_c, 3, 60, 0
9, 229200, Note_on_c, 3, 64, 52
9, 229200, Note_on_c, 3, 60, 52
9, 229267, Note_on_c, 3, 64, 0
9, 229267, Note_on_c, 3, 60, 0
9, 229280, Note_on_c, 3, 60, 52
9, 229280, Note_on_c, 3, 64, 52
9, 229347, Note_on_c, 3, 60, 0
9, 229347, Note_on_c, 3, 64, 0
9, 229360, Note_on_c, 3, 60, 52
9, 229360, Note_on_c, 3, 64, 52
9, 229427, Note_on_c, 3, 60, 0
9, 229427, Note_on_c, 3, 64, 0
9, 229440, Note_on_c, 3, 64, 52
9, 229440, Note_on_c, 3, 60, 52
9, 229679, Note_on_c, 3, 64, 0
9, 229679, Note_on_c, 3, 60, 0
9, 241358, Control_c, 3, 11, 98
9, 241440, Note_on_c, 3, 74, 76
9, 241440, Note_on_c, 3, 72, 76
9, 241460, Control_c, 3, 11, 99
9, 241559, Note_on_c, 3, 74, 0
9, 241563, Control_c, 3, 11, 100
9, 241665, Control_c, 3, 11, 101
9, 241680, Note_on_c, 3, 70, 76
9, 241767, Control_c, 3, 11, 102
9, 241799, Note_on_c, 3, 70, 0
9, 241800, Note_on_c, 3, 67, 76
9, 241869, Control_c, 3, 11, 103
9, 241919, Note_on_c, 3, 67, 0
9, 241920, Note_on_c, 3, 60, 76
9, 241971, Control_c, 3, 11, 104
9, 242039, Note_on_c, 3, 60, 0
9, 242040, Note_on_c, 3, 70, 76
9, 242073, Control_c, 3, 11, 105
9, 242159, Note_on_c, 3, 70, 0
9, 242160, Note_on_c, 3, 67, 76
9, 242175, Control_c, 3, 11, 106
9, 242277, Control_c, 3, 11, 107
9, 242279, Note_on_c, 3, 67, 0
9, 242280, Note_on_c, 3, 60, 76
9, 242380, Control_c, 3, 11, 108
9, 242384, Note_on_c, 3, 72, 0
9, 242384, Note_on_c, 3, 60, 0
9, 242400, Note_on_c, 3, 77, 76
9, 242400, Note_on_c, 3, 74, 76
9, 242482, Control_c, 3, 11, 109
9, 242519, Note_on_c, 3, 74, 0
9, 242520, Note_on_c, 3, 72, 76
9, 242584, Control_c, 3, 11, 110
9, 242639, Note_on_c, 3, 72, 0
9, 242640, Note_on_c, 3, 69, 76
9, 242686, Control_c, 3, 11, 111
9, 242759, Note_on_c, 3, 69, 0
9, 242760, Note_on_c, 3, 65, 76
9, 242788, Control_c, 3, 11, 112
9, 242879, Note_on_c, 3, 65, 0
9, 242880, Note_on_c, 3, 60, 76
9, 242890, Control_c, 3, 11, 113
9, 242992, Control_c, 3, 11, 114
9, 242999, Note_on_c, 3, 60, 0
9, 243000, Note_on_c, 3, 69, 76
9, 243094, Control_c, 3, 11, 115
9, 243119, Note_on_c, 3, 69, 0
9, 243120, Note_on_c, 3, 65, 76
9, 243197, Control_c, 3, 11, 116
9, 243239, Note_on_c, 3, 65, 0
9, 243240, Note_on_c, 3, 60, 76
9, 243299, Control_c, 3, 11, 117
9, 243344, Note_on_c, 3, 77, 0
9, 243344, Note_on_c, 3, 60, 0
9, 243360, Note_on_c, 3, 76, 76
9, 243360, Note_on_c, 3, 74, 76
9, 243401, Control_c, 3, 11, 118
9, 243479, Note_on_c, 3, 74, 0
9, 243480, Note_on_c, 3, 72, 76
9, 243503, Control_c, 3, 11, 119
9, 243584, Note_on_c, 3, 76, 0
9, 243599, Note_on_c, 3, 72, 0
9, 243600, Note_on_c, 3, 76, 76
9, 243600, Note_on_c, 3, 70, 76
9, 243605, Control_c, 3, 11, 120
9, 243707, Control_c, 3, 11, 121
9, 243719, Note_on_c, 3, 70, 0
9, 243720, Note_on_c, 3, 67, 76
9, 243809, Control_c, 3, 11, 122
9, 243824, Note_on_c, 3, 76, 0
9, 243839, Note_on_c, 3, 67, 0
9, 243840, Note_on_c, 3, 60, 76
9, 243840, Note_on_c, 3, 76, 76
9, 243911, Control_c, 3, 11, 123
9, 243959, Note_on_c, 3, 60, 0
9, 243960, Note_on_c, 3, 70, 76
9, 244014, Control_c, 3, 11, 124
9, 244079, Note_on_c, 3, 76, 0
9, 244079, Note_on_c, 3, 70, 0
9, 244080, Note_on_c, 3, 79, 76
9, 244080, Note_on_c, 3, 67, 76
9, 244116, Control_c, 3, 11, 125
9, 244199, Note_on_c, 3, 79, 0
9, 244199, Note_on_c, 3, 67, 0
9, 244200, Note_on_c, 3, 60, 76
9, 244200, Note_on_c, 3, 76, 76
9, 244218, Control_c, 3, 11, 127
9, 244304, Note_on_c, 3, 60, 0
9, 244304, Note_on_c, 3, 76, 0
9, 244320, Note_on_c, 3, 69, 76
9, 244320, Note_on_c, 3, 77, 76
9, 244439, Note_on_c, 3, 69, 0
9, 244439, Note_on_c, 3, 77, 0
9, 245760, Note_on_c, 3, 74, 76
9, 245760, Note_on_c, 3, 62, 76
9, 245879, Note_on_c, 3, 74, 0
9, 245879, Note_on_c, 3, 62, 0
9, 246240, Note_on_c, 3, 74, 52
9, 246240, Note_on_c, 3, 77, 52
9, 246479, Note_on_c, 3, 74, 0
9, 246479, Note_on_c, 3, 77, 0
9, 246480, Note_on_c, 3, 76, 52
9, 246480, Note_on_c, 3, 72, 52
9, 246599, Note_on_c, 3, 76, 0
9, 246599, Note_on_c, 3, 72, 0
9, 246600, Note_on_c, 3, 70, 52
9, 246600, Note_on_c, 3, 74, 52
9, 246704, Note_on_c, 3, 70, 0
9, 246704, Note_on_c, 3, 74, 0
9, 246720, Note_on_c, 3, 69, 52
9, 246720, Note_on_c, 3, 72, 52
9, 246959, Note_on_c, 3, 69, 0
9, 246959, Note_on_c, 3, 72, 0
9, 246960, Note_on_c, 3, 70, 52
9, 246960, Note_on_c, 3, 67, 52
9, 247079, Note_on_c, 3, 70, 0
9, 247079, Note_on_c, 3, 67, 0
9, 247080, Note_on_c, 3, 65, 52
9, 247080, Note_on_c, 3, 69, 52
9, 247184, Note_on_c, 3, 65, 0
9, 247184, Note_on_c, 3, 69, 0
9, 247200, Note_on_c, 3, 69, 52
9, 247200, Note_on_c, 3, 65, 52
9, 247319, Note_on_c, 3, 69, 0
9, 247319, Note_on_c, 3, 65, 0
9, 247320, Note_on_c, 3, 67, 52
9, 247320, Note_on_c, 3, 64, 52
9, 247439, Note_on_c, 3, 67, 0
9, 247439, Note_on_c, 3, 64, 0
9, 247440, Note_on_c, 3, 62, 52
9, 247440, Note_on_c, 3, 65, 52
9, 247559, Note_on_c, 3, 62, 0
9, 247559, Note_on_c, 3, 65, 0
9, 247560, Note_on_c, 3, 64, 52
9, 247560, Note_on_c, 3, 67, 52
9, 247664, Note_on_c, 3, 64, 0
9, 247664, Note_on_c, 3, 67, 0
9, 247680, Note_on_c, 3, 69, 84
9, 247680, Note_on_c, 3, 65, 84
9, 247799, Note_on_c, 3, 69, 0
9, 247799, Note_on_c, 3, 65, 0
9, 249120, Note_on_c, 3, 74, 76
9, 249120, Note_on_c, 3, 62, 76
9, 249239, Note_on_c, 3, 74, 0
9, 249239, Note_on_c, 3, 62, 0
9, 249600, Note_on_c, 3, 74, 52
9, 249600, Note_on_c, 3, 77, 52
9, 249839, Note_on_c, 3, 74, 0
9, 249839, Note_on_c, 3, 77, 0
9, 249840, Note_on_c, 3, 76, 52
9, 249840, Note_on_c, 3, 72, 52
9, 249959, Note_on_c, 3, 76, 0
9, 249959, Note_on_c, 3, 72, 0
9, 249960, Note_on_c, 3, 70, 52
9, 249960, Note_on_c, 3, 74, 52
9, 250064, Note_on_c, 3, 70, 0
9, 250064, Note_on_c, 3, 74, 0
9, 250080, Note_on_c, 3, 69, 52
9, 250080, Note_on_c, 3, 72, 52
9, 250319, Note_on_c, 3, 69, 0
9, 250319, Note_on_c, 3, 72, 0
9, 250320, Note_on_c, 3, 70, 52
9, 250320, Note_on_c, 3, 67, 52
9, 250439, Note_on_c, 3, 70, 0
9, 250439, Note_on_c, 3, 67, 0
9, 250440, Note_on_c, 3, 65, 52
9, 250440, Note_on_c, 3, 69, 52
9, 250544, Note_on_c, 3, 65, 0
9, 250544, Note_on_c, 3, 69, 0
9, 250560, Note_on_c, 3, 65, 52
9, 250560, Note_on_c, 3, 69, 52
9, 250679, Note_on_c, 3, 65, 0
9, 250679, Note_on_c, 3, 69, 0
9, 250680, Note_on_c, 3, 67, 52
9, 250680, Note_on_c, 3, 64, 52
9, 250799, Note_on_c, 3, 67, 0
9, 250799, Note_on_c, 3, 64, 0
9, 250800, Note_on_c, 3, 65, 52
9, 250800, Note_on_c, 3, 62, 52
9, 250919, Note_on_c, 3, 65, 0
9, 250919, Note_on_c, 3, 62, 0
9, 250920, Note_on_c, 3, 64, 52
9, 250920, Note_on_c, 3, 67, 52
9, 251024, Note_on_c, 3, 64, 0
9, 251024, Note_on_c, 3, 67, 0
9, 251040, Note_on_c, 3, 65, 52
9, 251040, Note_on_c, 3, 69, 52
9, 251159, Note_on_c, 3, 69, 0
9, 251279, Note_on_c, 3, 65, 0
9, 251280, Note_on_c, 3, 77, 53
9, 251369, Note_on_c, 3, 77, 0
9, 251400, Note_on_c, 3, 77, 55
9, 251489, Note_on_c, 3, 77, 0
9, 251520, Note_on_c, 3, 74, 56
9, 251520, Note_on_c, 3, 77, 56
9, 251609, Note_on_c, 3, 74, 0
9, 251609, Note_on_c, 3, 77, 0
9, 251640, Note_on_c, 3, 74, 58
9, 251640, Note_on_c, 3, 77, 58
9, 251759, Note_on_c, 3, 74, 0
9, 251759, Note_on_c, 3, 77, 0
9, 251760, Note_on_c, 3, 76, 60
9, 251760, Note_on_c, 3, 72, 60
9, 251879, Note_on_c, 3, 76, 0
9, 251879, Note_on_c, 3, 72, 0
9, 251880, Note_on_c, 3, 70, 61
9, 251880, Note_on_c, 3, 74, 61
9, 251984, Note_on_c, 3, 70, 0
9, 251984, Note_on_c, 3, 74, 0
9, 252000, Note_on_c, 3, 72, 63
9, 252000, Note_on_c, 3, 69, 63
9, 252089, Note_on_c, 3, 72, 0
9, 252089, Note_on_c, 3, 69, 0
9, 252120, Note_on_c, 3, 72, 64
9, 252120, Note_on_c, 3, 69, 64
9, 252239, Note_on_c, 3, 72, 0
9, 252239, Note_on_c, 3, 69, 0
9, 252240, Note_on_c, 3, 70, 66
9, 252240, Note_on_c, 3, 67, 66
9, 252359, Note_on_c, 3, 70, 0
9, 252359, Note_on_c, 3, 67, 0
9, 252360, Note_on_c, 3, 69, 68
9, 252360, Note_on_c, 3, 65, 68
9, 252464, Note_on_c, 3, 69, 0
9, 252464, Note_on_c, 3, 65, 0
9, 252480, Note_on_c, 3, 69, 69
9, 252480, Note_on_c, 3, 65, 69
9, 252599, Note_on_c, 3, 69, 0
9, 252599, Note_on_c, 3, 65, 0
9, 252600, Note_on_c, 3, 64, 71
9, 252600, Note_on_c, 3, 67, 71
9, 252719, Note_on_c, 3, 64, 0
9, 252719, Note_on_c, 3, 67, 0
9, 252720, Note_on_c, 3, 65, 72
9, 252720, Note_on_c, 3, 62, 72
9, 252839, Note_on_c, 3, 65, 0
9, 252839, Note_on_c, 3, 62, 0
9, 252840, Note_on_c, 3, 64, 74
9, 252840, Note_on_c, 3, 67, 74
9, 252944, Note_on_c, 3, 64, 0
9, 252944, Note_on_c, 3, 67, 0
9, 252960, Note_on_c, 3, 65, 76
9, 252960, Note_on_c, 3, 69, 76
9, 253079, Note_on_c, 3, 65, 0
9, 253079, Note_on_c, 3, 69, 0
9, 253200, Note_on_c, 3, 72, 76
9, 253200, Note_on_c, 3, 77, 76
9, 253319, Note_on_c, 3, 72, 0
9, 253319, Note_on_c, 3, 77, 0
9, 253440, Note_on_c, 3, 74, 76
9, 253440, Note_on_c, 3, 77, 76
9, 253559, Note_on_c, 3, 74, 0
9, 253559, Note_on_c, 3, 77, 0
9, 253680, Note_on_c, 3, 74, 76
9, 253680, Note_on_c, 3, 70, 76
9, 253799, Note_on_c, 3, 74, 0
9, 253799, Note_on_c, 3, 70, 0
9, 253920, Note_on_c, 3, 69, 76
9, 253920, Note_on_c, 3, 72, 76
9, 254039, Note_on_c, 3, 69, 0
9, 254039, Note_on_c, 3, 72, 0
9, 254160, Note_on_c, 3, 69, 76
9, 254160, Note_on_c, 3, 65, 76
9, 254279, Note_on_c, 3, 69, 0
9, 254279, Note_on_c, 3, 65, 0
9, 254400, Note_on_c, 3, 64, 76
9, 254400, Note_on_c, 3, 67, 76
9, 254519, Note_on_c, 3, 64, 0
9, 254519, Note_on_c, 3, 67, 0
9, 254640, Note_on_c, 3, 64, 76
9, 254640, Note_on_c, 3, 72, 76
9, 254759, Note_on_c, 3, 64, 0
9, 254759, Note_on_c, 3, 72, 0
9, 254880, Note_on_c, 3, 77, 76
9, 254880, Note_on_c, 3, 65, 76
9, 255119, Note_on_c, 3, 77, 0
9, 255119, Note_on_c, 3, 65, 0
9, 255120, Note_on_c, 3, 72, 76
9, 255120, Note_on_c, 3, 60, 76
9, 255824, Note_on_c, 3, 72, 0
9, 255824, Note_on_c, 3, 60, 0
9, 255840, Note_on_c, 3, 81, 76
9, 255840, Note_on_c, 3, 69, 76
9, 256079, Note_on_c, 3, 81, 0
9, 256079, Note_on_c, 3, 69, 0
9, 256080, Note_on_c, 3, 65, 76
9, 256080, Note_on_c, 3, 77, 76
9, 256784, Note_on_c, 3, 65, 0
9, 256784, Note_on_c, 3, 77, 0
9, 256800, Note_on_c, 3, 77, 76
9, 256800, Note_on_c, 3, 65, 76
9, 257039, Note_on_c, 3, 77, 0
9, 257039, Note_on_c, 3, 65, 0
9, 257040, Note_on_c, 3, 60, 76
9, 257040, Note_on_c, 3, 72, 76
9, 257744, Note_on_c, 3, 60, 0
9, 257744, Note_on_c, 3, 72, 0
9, 257760, Note_on_c, 3, 69, 76
9, 257760, Note_on_c, 3, 81, 76
9, 257999, Note_on_c, 3, 69, 0
9, 257999, Note_on_c, 3, 81, 0
9, 258000, Note_on_c, 3, 65, 76
9, 258000, Note_on_c, 3, 77, 76
9, 258720, Control_c, 3, 11, 127
9, 258800, Control_c, 3, 11, 125
9, 258880, Control_c, 3, 11, 123
9, 258959, Note_on_c, 3, 65, 0
9, 258959, Note_on_c, 3, 77, 0
9, 258960, Control_c, 3, 11, 121
9, 258960, Note_on_c, 3, 72, 76
9, 258960, Note_on_c, 3, 60, 76
9, 259040, Control_c, 3, 11, 119
9, 259120, Control_c, 3, 11, 117
9, 259199, Note_on_c, 3, 72, 0
9, 259199, Note_on_c, 3, 60, 0
9, 259200, Note_on_c, 3, 65, 76
9, 259200, Note_on_c, 3, 77, 76
9, 259200, Control_c, 3, 11, 115
9, 259280, Control_c, 3, 11, 113
9, 259360, Control_c, 3, 11, 111
9, 259439, Note_on_c, 3, 65, 0
9, 259439, Note_on_c, 3, 77, 0
9, 259440, Control_c, 3, 11, 109
9, 259440, Note_on_c, 3, 60, 76
9, 259440, Note_on_c, 3, 72, 76
9, 259520, Control_c, 3, 11, 107
9, 259600, Control_c, 3, 11, 105
9, 259679, Note_on_c, 3, 60, 0
9, 259679, Note_on_c, 3, 72, 0
9, 259680, Control_c, 3, 11, 104
9, 259680, Note_on_c, 3, 65, 76
9, 259680, Note_on_c, 3, 77, 76
9, 259760, Control_c, 3, 11, 102
9, 259840, Control_c, 3, 11, 100
9, 259919, Note_on_c, 3, 65, 0
9, 259919, Note_on_c, 3, 77, 0
9, 259920, Note_on_c, 3, 60, 76
9, 259920, Note_on_c, 3, 72, 76
9, 259920, Control_c, 3, 11, 98
9, 260000, Control_c, 3, 11, 96
9, 260080, Control_c, 3, 11, 94
9, 260159, Note_on_c, 3, 60, 0
9, 260159, Note_on_c, 3, 72, 0
9, 260160, Note_on_c, 3, 77, 76
9, 260160, Note_on_c, 3, 65, 76
9, 260160, Control_c, 3, 11, 92
9, 260240, Control_c, 3, 11, 90
9, 260320, Control_c, 3, 11, 88
9, 260399, Note_on_c, 3, 77, 0
9, 260399, Note_on_c, 3, 65, 0
9, 260400, Note_on_c, 3, 60, 76
9, 260400, Note_on_c, 3, 72, 76
9, 260400, Control_c, 3, 11, 86
9, 260480, Control_c, 3, 11, 84
9, 260560, Control_c, 3, 11, 80
9, 260639, Note_on_c, 3, 60, 0
9, 260639, Note_on_c, 3, 72, 0
9, 260640, Note_on_c, 3, 77, 76
9, 260640, Note_on_c, 3, 65, 76
9, 260759, Note_on_c, 3, 77, 0
9, 260759, Note_on_c, 3, 65, 0
9, 266400, Control_c, 3, 11, 127
9, 266520, Note_on_c, 3, 74, 48
9, 266639, Note_on_c, 3, 74, 0
9, 266640, Note_on_c, 3, 75, 48
9, 266744, Note_on_c, 3, 75, 0
9, 266760, Note_on_c, 3, 79, 48
9, 266849, Note_on_c, 3, 79, 0
9, 266880, Note_on_c, 3, 77, 48
9, 266999, Note_on_c, 3, 77, 0
9, 267000, Note_on_c, 3, 75, 48
9, 267059, Note_on_c, 3, 75, 0
9, 267060, Note_on_c, 3, 74, 48
9, 267111, Note_on_c, 3, 74, 0
9, 267120, Note_on_c, 3, 72, 48
9, 267209, Note_on_c, 3, 72, 0
9, 267240, Note_on_c, 3, 65, 48
9, 267329, Note_on_c, 3, 65, 0
9, 267480, Note_on_c, 3, 74, 48
9, 267599, Note_on_c, 3, 74, 0
9, 267600, Note_on_c, 3, 75, 48
9, 267704, Note_on_c, 3, 75, 0
9, 267720, Note_on_c, 3, 79, 48
9, 267809, Note_on_c, 3, 79, 0
9, 267840, Note_on_c, 3, 77, 48
9, 267959, Note_on_c, 3, 77, 0
9, 267960, Note_on_c, 3, 75, 48
9, 268019, Note_on_c, 3, 75, 0
9, 268020, Note_on_c, 3, 74, 48
9, 268071, Note_on_c, 3, 74, 0
9, 268080, Note_on_c, 3, 72, 48
9, 268169, Note_on_c, 3, 72, 0
9, 268200, Note_on_c, 3, 65, 48
9, 268289, Note_on_c, 3, 65, 0
9, 270240, Note_on_c, 3, 70, 52
9, 270329, Note_on_c, 3, 70, 0
9, 270360, Note_on_c, 3, 69, 52
9, 270360, Note_on_c, 3, 72, 52
9, 270449, Note_on_c, 3, 69, 0
9, 270449, Note_on_c, 3, 72, 0
9, 270480, Note_on_c, 3, 70, 52
9, 270480, Note_on_c, 3, 74, 52
9, 270599, Note_on_c, 3, 74, 0
9, 270600, Note_on_c, 3, 75, 52
9, 270659, Note_on_c, 3, 75, 0
9, 270660, Note_on_c, 3, 74, 52
9, 270711, Note_on_c, 3, 70, 0
9, 270711, Note_on_c, 3, 74, 0
9, 270720, Note_on_c, 3, 69, 52
9, 270720, Note_on_c, 3, 72, 52
9, 270809, Note_on_c, 3, 69, 0
9, 270809, Note_on_c, 3, 72, 0
9, 270840, Note_on_c, 3, 70, 52
9, 270840, Note_on_c, 3, 74, 52
9, 270929, Note_on_c, 3, 70, 0
9, 270929, Note_on_c, 3, 74, 0
9, 270960, Note_on_c, 3, 75, 52
9, 270960, Note_on_c, 3, 69, 52
9, 271079, Note_on_c, 3, 75, 0
9, 271080, Note_on_c, 3, 77, 52
9, 271139, Note_on_c, 3, 77, 0
9, 271140, Note_on_c, 3, 75, 52
9, 271191, Note_on_c, 3, 69, 0
9, 271191, Note_on_c, 3, 75, 0
9, 271200, Note_on_c, 3, 70, 48
9, 271200, Note_on_c, 3, 74, 48
9, 271319, Note_on_c, 3, 70, 0
9, 271507, Note_on_c, 3, 74, 0
9, 271520, Note_on_c, 3, 74, 48
9, 271599, Note_on_c, 3, 74, 0
9, 271600, Note_on_c, 3, 72, 48
9, 271679, Note_on_c, 3, 72, 0
9, 271680, Note_on_c, 3, 70, 48
9, 271759, Note_on_c, 3, 70, 0
9, 271760, Note_on_c, 3, 74, 48
9, 271839, Note_on_c, 3, 74, 0
9, 271840, Note_on_c, 3, 72, 48
9, 271919, Note_on_c, 3, 72, 0
9, 271920, Note_on_c, 3, 70, 48
9, 271999, Note_on_c, 3, 70, 0
9, 272000, Note_on_c, 3, 79, 48
9, 272079, Note_on_c, 3, 79, 0
9, 272080, Note_on_c, 3, 76, 48
9, 272147, Note_on_c, 3, 76, 0
9, 272160, Note_on_c, 3, 77, 48
9, 272479, Note_on_c, 3, 77, 0
9, 272480, Note_on_c, 3, 79, 48
9, 272559, Note_on_c, 3, 79, 0
9, 272560, Note_on_c, 3, 77, 48
9, 272639, Note_on_c, 3, 77, 0
9, 272640, Note_on_c, 3, 74, 48
9, 272719, Note_on_c, 3, 74, 0
9, 272720, Note_on_c, 3, 77, 48
9, 272799, Note_on_c, 3, 77, 0
9, 272800, Note_on_c, 3, 75, 48
9, 272879, Note_on_c, 3, 75, 0
9, 272880, Note_on_c, 3, 72, 48
9, 272959, Note_on_c, 3, 72, 0
9, 272960, Note_on_c, 3, 75, 48
9, 273039, Note_on_c, 3, 75, 0
9, 273040, Note_on_c, 3, 74, 48
9, 273107, Note_on_c, 3, 74, 0
9, 273120, Note_on_c, 3, 70, 48
9, 273439, Note_on_c, 3, 70, 0
9, 273440, Note_on_c, 3, 74, 48
9, 273519, Note_on_c, 3, 74, 0
9, 273520, Note_on_c, 3, 72, 48
9, 273599, Note_on_c, 3, 72, 0
9, 273600, Note_on_c, 3, 70, 48
9, 273679, Note_on_c, 3, 70, 0
9, 273680, Note_on_c, 3, 74, 48
9, 273759, Note_on_c, 3, 74, 0
9, 273760, Note_on_c, 3, 72, 48
9, 273839, Note_on_c, 3, 72, 0
9, 273840, Note_on_c, 3, 70, 48
9, 273919, Note_on_c, 3, 70, 0
9, 273920, Note_on_c, 3, 79, 48
9, 273999, Note_on_c, 3, 79, 0
9, 274000, Note_on_c, 3, 76, 48
9, 274067, Note_on_c, 3, 76, 0
9, 274080, Note_on_c, 3, 77, 48
9, 274399, Note_on_c, 3, 77, 0
9, 274400, Note_on_c, 3, 79, 48
9, 274479, Note_on_c, 3, 79, 0
9, 274480, Note_on_c, 3, 77, 48
9, 274559, Note_on_c, 3, 77, 0
9, 274560, Note_on_c, 3, 74, 48
9, 274639, Note_on_c, 3, 74, 0
9, 274640, Note_on_c, 3, 77, 48
9, 274719, Note_on_c, 3, 77, 0
9, 274720, Note_on_c, 3, 75, 48
9, 274799, Note_on_c, 3, 75, 0
9, 274800, Note_on_c, 3, 72, 48
9, 274879, Note_on_c, 3, 72, 0
9, 274880, Note_on_c, 3, 75, 48
9, 274959, Note_on_c, 3, 75, 0
9, 274960, Note_on_c, 3, 74, 48
9, 275027, Note_on_c, 3, 74, 0
9, 275040, Note_on_c, 3, 70, 48
9, 275359, Note_on_c, 3, 70, 0
9, 275360, Note_on_c, 3, 72, 48
9, 275439, Note_on_c, 3, 72, 0
9, 275440, Note_on_c, 3, 74, 48
9, 275507, Note_on_c, 3, 74, 0
9, 275520, Note_on_c, 3, 67, 48
9, 275839, Note_on_c, 3, 67, 0
9, 275840, Note_on_c, 3, 69, 48
9, 275919, Note_on_c, 3, 69, 0
9, 275920, Note_on_c, 3, 70, 48
9, 275987, Note_on_c, 3, 70, 0
9, 276000, Note_on_c, 3, 72, 48
9, 276119, Note_on_c, 3, 72, 0
9, 276960, Note_on_c, 3, 77, 76
9, 276960, Note_on_c, 3, 65, 76
9, 277199, Note_on_c, 3, 77, 0
9, 277199, Note_on_c, 3, 65, 0
9, 277200, Note_on_c, 3, 60, 76
9, 277200, Note_on_c, 3, 72, 76
9, 277904, Note_on_c, 3, 60, 0
9, 277904, Note_on_c, 3, 72, 0
9, 277920, Note_on_c, 3, 81, 76
9, 277920, Note_on_c, 3, 69, 76
9, 278159, Note_on_c, 3, 81, 0
9, 278159, Note_on_c, 3, 69, 0
9, 278160, Note_on_c, 3, 65, 76
9, 278160, Note_on_c, 3, 77, 76
9, 278864, Note_on_c, 3, 65, 0
9, 278864, Note_on_c, 3, 77, 0
9, 278880, Note_on_c, 3, 65, 76
9, 278880, Note_on_c, 3, 77, 76
9, 279119, Note_on_c, 3, 65, 0
9, 279119, Note_on_c, 3, 77, 0
9, 279120, Note_on_c, 3, 60, 76
9, 279120, Note_on_c, 3, 72, 76
9, 279824, Note_on_c, 3, 60, 0
9, 279824, Note_on_c, 3, 72, 0
9, 279840, Note_on_c, 3, 69, 76
9, 279840, Note_on_c, 3, 81, 76
9, 280079, Note_on_c, 3, 69, 0
9, 280079, Note_on_c, 3, 81, 0
9, 280080, Note_on_c, 3, 65, 76
9, 280080, Note_on_c, 3, 77, 76
9, 280784, Note_on_c, 3, 65, 0
9, 280784, Note_on_c, 3, 77, 0
9, 280800, Note_on_c, 3, 69, 84
9, 280800, Note_on_c, 3, 81, 84
9, 281039, Note_on_c, 3, 69, 0
9, 281039, Note_on_c, 3, 81, 0
9, 281040, Note_on_c, 3, 65, 76
9, 281040, Note_on_c, 3, 77, 76
9, 281264, Note_on_c, 3, 65, 0
9, 281264, Note_on_c, 3, 77, 0
9, 281280, Note_on_c, 3, 69, 84
9, 281280, Note_on_c, 3, 81, 84
9, 281519, Note_on_c, 3, 69, 0
9, 281519, Note_on_c, 3, 81, 0
9, 281520, Note_on_c, 3, 77, 76
9, 281520, Note_on_c, 3, 65, 76
9, 281744, Note_on_c, 3, 77, 0
9, 281744, Note_on_c, 3, 65, 0
9, 281760, Note_on_c, 3, 81, 84
9, 281760, Note_on_c, 3, 69, 84
9, 281999, Note_on_c, 3, 81, 0
9, 281999, Note_on_c, 3, 69, 0
9, 282000, Note_on_c, 3, 65, 76
9, 282000, Note_on_c, 3, 77, 76
9, 282224, Note_on_c, 3, 65, 0
9, 282224, Note_on_c, 3, 77, 0
9, 282240, Note_on_c, 3, 67, 84
9, 282240, Note_on_c, 3, 79, 84
9, 282479, Note_on_c, 3, 67, 0
9, 282479, Note_on_c, 3, 79, 0
9, 282480, Note_on_c, 3, 64, 76
9, 282480, Note_on_c, 3, 76, 76
9, 282704, Note_on_c, 3, 64, 0
9, 282704, Note_on_c, 3, 76, 0
9, 282720, Note_on_c, 3, 81, 84
9, 282720, Note_on_c, 3, 69, 84
9, 282959, Note_on_c, 3, 81, 0
9, 282959, Note_on_c, 3, 69, 0
9, 282960, Note_on_c, 3, 77, 76
9, 282960, Note_on_c, 3, 65, 76
9, 283184, Note_on_c, 3, 77, 0
9, 283184, Note_on_c, 3, 65, 0
9, 283200, Note_on_c, 3, 69, 84
9, 283200, Note_on_c, 3, 81, 84
9, 283439, Note_on_c, 3, 69, 0
9, 283439, Note_on_c, 3, 81, 0
9, 283440, Note_on_c, 3, 77, 76
9, 283440, Note_on_c, 3, 65, 76
9, 283664, Note_on_c, 3, 77, 0
9, 283664, Note_on_c, 3, 65, 0
9, 283680, Note_on_c, 3, 69, 84
9, 283680, Note_on_c, 3, 81, 84
9, 283919, Note_on_c, 3, 69, 0
9, 283919, Note_on_c, 3, 81, 0
9, 283920, Note_on_c, 3, 65, 76
9, 283920, Note_on_c, 3, 77, 76
9, 284144, Note_on_c, 3, 65, 0
9, 284144, Note_on_c, 3, 77, 0
9, 284160, Note_on_c, 3, 67, 84
9, 284160, Note_on_c, 3, 79, 84
9, 284399, Note_on_c, 3, 67, 0
9, 284399, Note_on_c, 3, 79, 0
9, 284400, Note_on_c, 3, 76, 76
9, 284400, Note_on_c, 3, 64, 76
9, 284624, Note_on_c, 3, 76, 0
9, 284624, Note_on_c, 3, 64, 0
9, 284640, Note_on_c, 3, 69, 84
9, 284640, Note_on_c, 3, 81, 84
9, 284879, Note_on_c, 3, 69, 0
9, 284879, Note_on_c, 3, 81, 0
9, 284880, Note_on_c, 3, 77, 76
9, 284880, Note_on_c, 3, 65, 76
9, 285104, Note_on_c, 3, 77, 0
9, 285104, Note_on_c, 3, 65, 0
9, 285120, Note_on_c, 3, 81, 84
9, 285120, Note_on_c, 3, 69, 84
9, 285359, Note_on_c, 3, 81, 0
9, 285359, Note_on_c, 3, 69, 0
9, 285360, Note_on_c, 3, 65, 76
9, 285360, Note_on_c, 3, 77, 76
9, 285584, Note_on_c, 3, 65, 0
9, 285584, Note_on_c, 3, 77, 0
9, 285600, Note_on_c, 3, 77, 84
9, 285600, Note_on_c, 3, 69, 84
9, 286679, Note_on_c, 3, 77, 0
9, 286679, Note_on_c, 3, 69, 0
9, 291360, Note_on_c, 3, 67, 76
9, 291360, Note_on_c, 3, 72, 76
9, 291704, Note_on_c, 3, 67, 0
9, 291704, Note_on_c, 3, 72, 0
9, 291720, Note_on_c, 3, 70, 76
9, 291720, Note_on_c, 3, 67, 76
9, 291824, Note_on_c, 3, 70, 0
9, 291824, Note_on_c, 3, 67, 0
9, 291840, Note_on_c, 3, 65, 76
9, 291840, Note_on_c, 3, 69, 76
9, 291959, Note_on_c, 3, 65, 0
9, 291959, Note_on_c, 3, 69, 0
9, 292080, Note_on_c, 3, 64, 76
9, 292080, Note_on_c, 3, 67, 76
9, 292199, Note_on_c, 3, 64, 0
9, 292199, Note_on_c, 3, 67, 0
9, 293280, Note_on_c, 3, 72, 76
9, 293280, Note_on_c, 3, 67, 76
9, 293624, Note_on_c, 3, 72, 0
9, 293624, Note_on_c, 3, 67, 0
9, 293640, Note_on_c, 3, 70, 76
9, 293640, Note_on_c, 3, 67, 76
9, 293744, Note_on_c, 3, 70, 0
9, 293744, Note_on_c, 3, 67, 0
9, 293760, Note_on_c, 3, 69, 76
9, 293760, Note_on_c, 3, 65, 76
9, 293879, Note_on_c, 3, 69, 0
9, 293879, Note_on_c, 3, 65, 0
9, 294000, Note_on_c, 3, 64, 76
9, 294000, Note_on_c, 3, 72, 76
9, 294119, Note_on_c, 3, 64, 0
9, 294119, Note_on_c, 3, 72, 0
9, 294240, Note_on_c, 3, 65, 76
9, 294240, Note_on_c, 3, 69, 76
9, 294359, Note_on_c, 3, 65, 0
9, 294359, Note_on_c, 3, 69, 0
9, 294480, Note_on_c, 3, 69, 52
9, 294599, Note_on_c, 3, 69, 0
9, 294600, Note_on_c, 3, 70, 52
9, 294659, Note_on_c, 3, 70, 0
9, 294660, Note_on_c, 3, 69, 52
9, 294711, Note_on_c, 3, 69, 0
9, 294720, Note_on_c, 3, 67, 52
9, 294839, Note_on_c, 3, 67, 0
9, 294960, Note_on_c, 3, 70, 52
9, 295079, Note_on_c, 3, 70, 0
9, 295080, Note_on_c, 3, 72, 52
9, 295139, Note_on_c, 3, 72, 0
9, 295140, Note_on_c, 3, 70, 52
9, 295191, Note_on_c, 3, 70, 0
9, 295200, Note_on_c, 3, 69, 52
9, 295319, Note_on_c, 3, 69, 0
9, 295440, Note_on_c, 3, 72, 52
9, 295559, Note_on_c, 3, 72, 0
9, 295560, Note_on_c, 3, 74, 52
9, 295619, Note_on_c, 3, 74, 0
9, 295620, Note_on_c, 3, 72, 52
9, 295671, Note_on_c, 3, 72, 0
9, 295680, Note_on_c, 3, 70, 76
9, 295747, Note_on_c, 3, 70, 0
9, 295760, Note_on_c, 3, 76, 76
9, 295827, Note_on_c, 3, 76, 0
9, 295840, Note_on_c, 3, 79, 76
9, 295907, Note_on_c, 3, 79, 0
9, 295920, Note_on_c, 3, 82, 76
9, 295987, Note_on_c, 3, 82, 0
9, 296000, Note_on_c, 3, 79, 76
9, 296067, Note_on_c, 3, 79, 0
9, 296080, Note_on_c, 3, 76, 76
9, 296147, Note_on_c, 3, 76, 0
9, 296160, Note_on_c, 3, 77, 48
9, 296227, Note_on_c, 3, 77, 0
9, 296240, Note_on_c, 3, 65, 48
9, 296307, Note_on_c, 3, 65, 0
9, 296320, Note_on_c, 3, 67, 48
9, 296387, Note_on_c, 3, 67, 0
9, 296400, Note_on_c, 3, 69, 48
9, 296467, Note_on_c, 3, 69, 0
9, 296480, Note_on_c, 3, 70, 48
9, 296547, Note_on_c, 3, 70, 0
9, 296560, Note_on_c, 3, 69, 48
9, 296627, Note_on_c, 3, 69, 0
9, 296640, Note_on_c, 3, 67, 48
9, 296707, Note_on_c, 3, 67, 0
9, 296720, Note_on_c, 3, 67, 48
9, 296787, Note_on_c, 3, 67, 0
9, 296800, Note_on_c, 3, 69, 48
9, 296867, Note_on_c, 3, 69, 0
9, 296880, Note_on_c, 3, 70, 48
9, 296947, Note_on_c, 3, 70, 0
9, 296960, Note_on_c, 3, 72, 48
9, 297027, Note_on_c, 3, 72, 0
9, 297040, Note_on_c, 3, 70, 48
9, 297107, Note_on_c, 3, 70, 0
9, 297120, Note_on_c, 3, 69, 48
9, 297187, Note_on_c, 3, 69, 0
9, 297200, Note_on_c, 3, 69, 48
9, 297267, Note_on_c, 3, 69, 0
9, 297280, Note_on_c, 3, 70, 48
9, 297347, Note_on_c, 3, 70, 0
9, 297360, Note_on_c, 3, 72, 48
9, 297427, Note_on_c, 3, 72, 0
9, 297440, Note_on_c, 3, 74, 48
9, 297507, Note_on_c, 3, 74, 0
9, 297520, Note_on_c, 3, 72, 48
9, 297587, Note_on_c, 3, 72, 0
9, 297600, Note_on_c, 3, 70, 76
9, 297667, Note_on_c, 3, 70, 0
9, 297680, Note_on_c, 3, 76, 76
9, 297747, Note_on_c, 3, 76, 0
9, 297760, Note_on_c, 3, 79, 76
9, 297827, Note_on_c, 3, 79, 0
9, 297840, Note_on_c, 3, 82, 76
9, 297907, Note_on_c, 3, 82, 0
9, 297920, Note_on_c, 3, 79, 76
9, 297987, Note_on_c, 3, 79, 0
9, 298000, Note_on_c, 3, 76, 76
9, 298067, Note_on_c, 3, 76, 0
9, 298080, Note_on_c, 3, 77, 76
9, 298147, Note_on_c, 3, 77, 0
9, 298160, Note_on_c, 3, 69, 76
9, 298227, Note_on_c, 3, 69, 0
9, 298240, Note_on_c, 3, 72, 76
9, 298307, Note_on_c, 3, 72, 0
9, 298320, Note_on_c, 3, 77, 76
9, 298387, Note_on_c, 3, 77, 0
9, 298400, Note_on_c, 3, 81, 76
9, 298467, Note_on_c, 3, 81, 0
9, 298480, Note_on_c, 3, 84, 76
9, 298547, Note_on_c, 3, 84, 0
9, 298560, Note_on_c, 3, 70, 76
9, 298627, Note_on_c, 3, 70, 0
9, 298640, Note_on_c, 3, 76, 76
9, 298707, Note_on_c, 3, 76, 0
9, 298720, Note_on_c, 3, 79, 76
9, 298787, Note_on_c, 3, 79, 0
9, 298800, Note_on_c, 3, 82, 76
9, 298867, Note_on_c, 3, 82, 0
9, 298880, Note_on_c, 3, 79, 76
9, 298947, Note_on_c, 3, 79, 0
9, 298960, Note_on_c, 3, 76, 76
9, 299027, Note_on_c, 3, 76, 0
9, 299040, Note_on_c, 3, 77, 76
9, 299107, Note_on_c, 3, 77, 0
9, 299120, Note_on_c, 3, 69, 76
9, 299187, Note_on_c, 3, 69, 0
9, 299200, Note_on_c, 3, 72, 76
9, 299267, Note_on_c, 3, 72, 0
9, 299280, Note_on_c, 3, 77, 76
9, 299347, Note_on_c, 3, 77, 0
9, 299360, Note_on_c, 3, 81, 76
9, 299427, Note_on_c, 3, 81, 0
9, 299440, Note_on_c, 3, 84, 76
9, 299507, Note_on_c, 3, 84, 0
9, 299520, Note_on_c, 3, 70, 76
9, 299587, Note_on_c, 3, 70, 0
9, 299600, Note_on_c, 3, 76, 76
9, 299667, Note_on_c, 3, 76, 0
9, 299680, Note_on_c, 3, 79, 76
9, 299747, Note_on_c, 3, 79, 0
9, 299760, Note_on_c, 3, 82, 76
9, 299827, Note_on_c, 3, 82, 0
9, 299840, Note_on_c, 3, 79, 76
9, 299907, Note_on_c, 3, 79, 0
9, 299920, Note_on_c, 3, 76, 76
9, 299987, Note_on_c, 3, 76, 0
9, 300000, Note_on_c, 3, 77, 76
9, 300067, Note_on_c, 3, 77, 0
9, 300080, Note_on_c, 3, 69, 75
9, 300147, Note_on_c, 3, 69, 0
9, 300160, Note_on_c, 3, 72, 74
9, 300227, Note_on_c, 3, 72, 0
9, 300240, Note_on_c, 3, 77, 72
9, 300307, Note_on_c, 3, 77, 0
9, 300320, Note_on_c, 3, 81, 71
9, 300387, Note_on_c, 3, 81, 0
9, 300400, Note_on_c, 3, 84, 70
9, 300467, Note_on_c, 3, 84, 0
9, 300480, Note_on_c, 3, 77, 68
9, 300547, Note_on_c, 3, 77, 0
9, 300560, Note_on_c, 3, 69, 67
9, 300627, Note_on_c, 3, 69, 0
9, 300640, Note_on_c, 3, 72, 66
9, 300707, Note_on_c, 3, 72, 0
9, 300720, Note_on_c, 3, 77, 64
9, 300787, Note_on_c, 3, 77, 0
9, 300800, Note_on_c, 3, 81, 63
9, 300867, Note_on_c, 3, 81, 0
9, 300880, Note_on_c, 3, 84, 62
9, 300947, Note_on_c, 3, 84, 0
9, 300960, Note_on_c, 3, 77, 60
9, 301027, Note_on_c, 3, 77, 0
9, 301040, Note_on_c, 3, 69, 59
9, 301107, Note_on_c, 3, 69, 0
9, 301120, Note_on_c, 3, 72, 58
9, 301187, Note_on_c, 3, 72, 0
9, 301200, Note_on_c, 3, 77, 56
9, 301267, Note_on_c, 3, 77, 0
9, 301280, Note_on_c, 3, 81, 55
9, 301347, Note_on_c, 3, 81, 0
9, 301360, Note_on_c, 3, 84, 54
9, 301427, Note_on_c, 3, 84, 0
9, 301440, Note_on_c, 3, 77, 52
9, 301507, Note_on_c, 3, 77, 0
9, 301520, Note_on_c, 3, 69, 51
9, 301587, Note_on_c, 3, 69, 0
9, 301600, Note_on_c, 3, 72, 50
9, 301667, Note_on_c, 3, 72, 0
9, 301680, Note_on_c, 3, 77, 48
9, 301747, Note_on_c, 3, 77, 0
9, 301760, Note_on_c, 3, 81, 47
9, 301827, Note_on_c, 3, 81, 0
9, 301840, Note_on_c, 3, 84, 46
9, 301907, Note_on_c, 3, 84, 0
9, 301920, Note_on_c, 3, 77, 44
9, 302039, Note_on_c, 3, 77, 0
9, 307200, Note_on_c, 3, 70, 52
9, 307289, Note_on_c, 3, 70, 0
9, 307320, Note_on_c, 3, 72, 52
9, 307409, Note_on_c, 3, 72, 0
9, 307440, Note_on_c, 3, 74, 52
9, 307529, Note_on_c, 3, 74, 0
9, 307560, Note_on_c, 3, 76, 52
9, 307649, Note_on_c, 3, 76, 0
9, 307680, Note_on_c, 3, 77, 52
9, 307799, Note_on_c, 3, 77, 0
9, 308160, Note_on_c, 3, 58, 76
9, 308160, Note_on_c, 3, 70, 76
9, 308249, Note_on_c, 3, 58, 0
9, 308249, Note_on_c, 3, 70, 0
9, 308280, Note_on_c, 3, 72, 76
9, 308280, Note_on_c, 3, 60, 76
9, 308369, Note_on_c, 3, 72, 0
9, 308369, Note_on_c, 3, 60, 0
9, 308400, Note_on_c, 3, 74, 76
9, 308400, Note_on_c, 3, 62, 76
9, 308489, Note_on_c, 3, 74, 0
9, 308489, Note_on_c, 3, 62, 0
9, 308520, Note_on_c, 3, 76, 76
9, 308520, Note_on_c, 3, 64, 76
9, 308609, Note_on_c, 3, 76, 0
9, 308609, Note_on_c, 3, 64, 0
9, 308640, Note_on_c, 3, 77, 84
9, 308640, Note_on_c, 3, 65, 84
9, 308700, Control_c, 3, 11, 112
9, 309104, Note_on_c, 3, 77, 0
9, 309104, Note_on_c, 3, 65, 0
9, 309118, Control_c, 3, 11, 127
9, 309120, Note_on_c, 3, 67, 84
9, 309120, Note_on_c, 3, 76, 84
9, 309180, Control_c, 3, 11, 112
9, 309584, Note_on_c, 3, 67, 0
9, 309584, Note_on_c, 3, 76, 0
9, 309598, Control_c, 3, 11, 127
9, 309600, Note_on_c, 3, 77, 84
9, 309600, Note_on_c, 3, 69, 84
9, 309660, Control_c, 3, 11, 112
9, 310064, Note_on_c, 3, 77, 0
9, 310064, Note_on_c, 3, 69, 0
9, 310078, Control_c, 3, 11, 127
9, 310080, Note_on_c, 3, 77, 76
9, 310080, Note_on_c, 3, 69, 76
9, 310259, Note_on_c, 3, 77, 0
9, 310259, Note_on_c, 3, 69, 0
9, 310320, Note_on_c, 3, 69, 76
9, 310320, Note_on_c, 3, 77, 76
9, 310499, Note_on_c, 3, 69, 0
9, 310499, Note_on_c, 3, 77, 0
9, 310560, Note_on_c, 3, 77, 76
9, 310560, Note_on_c, 3, 69, 76
9, 311024, Note_on_c, 3, 77, 0
9, 311024, Note_on_c, 3, 69, 0
9, 311040, Note_on_c, 3, 69, 52
9, 311040, Note_on_c, 3, 65, 52
9, 311504, Note_on_c, 3, 69, 0
9, 311504, Note_on_c, 3, 65, 0
9, 311520, Note_on_c, 3, 69, 52
9, 311520, Note_on_c, 3, 65, 52
9, 311999, Note_on_c, 3, 69, 0
9, 311999, Note_on_c, 3, 65, 0
9, 311999, End_track
10, 0, Start_track
10, 0, Title_t, "Bassoon"
10, 0, MIDI_port, 0
10, 0, Program_c, 4, 70
10, 0, Control_c, 4, 7, 96
10, 0, Control_c, 4, 10, 65
10, 0, Control_c, 4, 11, 127
10, 9120, Note_on_c, 4, 60, 76
10, 9209, Note_on_c, 4, 60, 0
10, 9240, Note_on_c, 4, 55, 76
10, 9299, Note_on_c, 4, 55, 0
10, 9300, Note_on_c, 4, 57, 76
10, 9351, Note_on_c, 4, 57, 0
10, 9360, Note_on_c, 4, 58, 76
10, 9449, Note_on_c, 4, 58, 0
10, 9480, Note_on_c, 4, 59, 76
10, 9569, Note_on_c, 4, 59, 0
10, 9600, Note_on_c, 4, 60, 76
10, 9719, Note_on_c, 4, 60, 0
10, 15480, Note_on_c, 4, 53, 53
10, 15480, Note_on_c, 4, 57, 53
10, 15569, Note_on_c, 4, 53, 0
10, 15569, Note_on_c, 4, 57, 0
10, 15600, Note_on_c, 4, 55, 55
10, 15600, Note_on_c, 4, 58, 55
10, 15689, Note_on_c, 4, 55, 0
10, 15689, Note_on_c, 4, 58, 0
10, 15720, Note_on_c, 4, 58, 56
10, 15720, Note_on_c, 4, 62, 56
10, 15809, Note_on_c, 4, 58, 0
10, 15809, Note_on_c, 4, 62, 0
10, 15840, Note_on_c, 4, 57, 58
10, 15840, Note_on_c, 4, 60, 58
10, 15959, Note_on_c, 4, 57, 0
10, 15959, Note_on_c, 4, 60, 0
10, 15960, Note_on_c, 4, 55, 59
10, 15960, Note_on_c, 4, 58, 59
10, 16019, Note_on_c, 4, 55, 0
10, 16019, Note_on_c, 4, 58, 0
10, 16020, Note_on_c, 4, 53, 60
10, 16020, Note_on_c, 4, 57, 60
10, 16071, Note_on_c, 4, 53, 0
10, 16071, Note_on_c, 4, 57, 0
10, 16080, Note_on_c, 4, 55, 61
10, 16080, Note_on_c, 4, 52, 61
10, 16169, Note_on_c, 4, 55, 0
10, 16169, Note_on_c, 4, 52, 0
10, 16200, Note_on_c, 4, 48, 62
10, 16289, Note_on_c, 4, 48, 0
10, 16320, Note_on_c, 4, 53, 64
10, 16409, Note_on_c, 4, 53, 0
10, 16440, Note_on_c, 4, 55, 65
10, 16440, Note_on_c, 4, 52, 65
10, 16529, Note_on_c, 4, 55, 0
10, 16529, Note_on_c, 4, 52, 0
10, 16560, Note_on_c, 4, 53, 67
10, 16560, Note_on_c, 4, 57, 67
10, 16679, Note_on_c, 4, 53, 0
10, 16679, Note_on_c, 4, 57, 0
10, 16680, Note_on_c, 4, 58, 68
10, 16680, Note_on_c, 4, 55, 68
10, 16739, Note_on_c, 4, 58, 0
10, 16739, Note_on_c, 4, 55, 0
10, 16740, Note_on_c, 4, 57, 69
10, 16740, Note_on_c, 4, 53, 69
10, 16791, Note_on_c, 4, 57, 0
10, 16791, Note_on_c, 4, 53, 0
10, 16800, Note_on_c, 4, 55, 70
10, 16800, Note_on_c, 4, 52, 70
10, 16889, Note_on_c, 4, 55, 0
10, 16889, Note_on_c, 4, 52, 0
10, 16920, Note_on_c, 4, 53, 71
10, 16920, Note_on_c, 4, 57, 71
10, 17009, Note_on_c, 4, 53, 0
10, 17009, Note_on_c, 4, 57, 0
10, 17040, Note_on_c, 4, 58, 73
10, 17040, Note_on_c, 4, 55, 73
10, 17159, Note_on_c, 4, 58, 0
10, 17159, Note_on_c, 4, 55, 0
10, 17160, Note_on_c, 4, 60, 74
10, 17160, Note_on_c, 4, 57, 74
10, 17219, Note_on_c, 4, 60, 0
10, 17219, Note_on_c, 4, 57, 0
10, 17220, Note_on_c, 4, 58, 75
10, 17220, Note_on_c, 4, 55, 75
10, 17271, Note_on_c, 4, 58, 0
10, 17271, Note_on_c, 4, 55, 0
10, 17280, Note_on_c, 4, 57, 76
10, 17280, Note_on_c, 4, 53, 76
10, 17384, Note_on_c, 4, 57, 0
10, 17384, Note_on_c, 4, 53, 0
10, 17400, Note_on_c, 4, 53, 76
10, 17400, Note_on_c, 4, 60, 76
10, 17504, Note_on_c, 4, 53, 0
10, 17504, Note_on_c, 4, 60, 0
10, 17520, Note_on_c, 4, 53, 76
10, 17520, Note_on_c, 4, 60, 76
10, 17624, Note_on_c, 4, 53, 0
10, 17624, Note_on_c, 4, 60, 0
10, 17640, Note_on_c, 4, 53, 76
10, 17640, Note_on_c, 4, 60, 76
10, 17744, Note_on_c, 4, 53, 0
10, 17744, Note_on_c, 4, 60, 0
10, 17760, Note_on_c, 4, 60, 76
10, 17760, Note_on_c, 4, 53, 76
10, 17864, Note_on_c, 4, 60, 0
10, 17864, Note_on_c, 4, 53, 0
10, 17880, Note_on_c, 4, 60, 76
10, 17880, Note_on_c, 4, 53, 76
10, 17984, Note_on_c, 4, 60, 0
10, 17984, Note_on_c, 4, 53, 0
10, 18000, Note_on_c, 4, 60, 76
10, 18000, Note_on_c, 4, 53, 76
10, 18104, Note_on_c, 4, 60, 0
10, 18104, Note_on_c, 4, 53, 0
10, 18120, Note_on_c, 4, 53, 76
10, 18120, Note_on_c, 4, 60, 76
10, 18224, Note_on_c, 4, 53, 0
10, 18224, Note_on_c, 4, 60, 0
10, 18240, Note_on_c, 4, 60, 76
10, 18240, Note_on_c, 4, 53, 76
10, 18344, Note_on_c, 4, 60, 0
10, 18344, Note_on_c, 4, 53, 0
10, 18360, Note_on_c, 4, 60, 76
10, 18360, Note_on_c, 4, 53, 76
10, 18464, Note_on_c, 4, 60, 0
10, 18464, Note_on_c, 4, 53, 0
10, 18480, Note_on_c, 4, 53, 76
10, 18480, Note_on_c, 4, 60, 76
10, 18584, Note_on_c, 4, 53, 0
10, 18584, Note_on_c, 4, 60, 0
10, 18600, Note_on_c, 4, 60, 76
10, 18600, Note_on_c, 4, 53, 76
10, 18704, Note_on_c, 4, 60, 0
10, 18704, Note_on_c, 4, 53, 0
10, 18720, Note_on_c, 4, 53, 76
10, 18720, Note_on_c, 4, 60, 76
10, 18824, Note_on_c, 4, 53, 0
10, 18824, Note_on_c, 4, 60, 0
10, 18840, Note_on_c, 4, 53, 76
10, 18840, Note_on_c, 4, 60, 76
10, 18944, Note_on_c, 4, 53, 0
10, 18944, Note_on_c, 4, 60, 0
10, 18960, Note_on_c, 4, 60, 76
10, 18960, Note_on_c, 4, 53, 76
10, 19064, Note_on_c, 4, 60, 0
10, 19064, Note_on_c, 4, 53, 0
10, 19080, Note_on_c, 4, 60, 76
10, 19080, Note_on_c, 4, 53, 76
10, 19184, Note_on_c, 4, 60, 0
10, 19184, Note_on_c, 4, 53, 0
10, 19200, Note_on_c, 4, 53, 76
10, 19200, Note_on_c, 4, 60, 76
10, 19304, Note_on_c, 4, 60, 0
10, 19319, Note_on_c, 4, 53, 0
10, 19320, Note_on_c, 4, 57, 76
10, 19320, Note_on_c, 4, 60, 76
10, 19424, Note_on_c, 4, 57, 0
10, 19424, Note_on_c, 4, 60, 0
10, 19440, Note_on_c, 4, 60, 76
10, 19440, Note_on_c, 4, 57, 76
10, 19529, Note_on_c, 4, 60, 0
10, 19529, Note_on_c, 4, 57, 0
10, 19560, Note_on_c, 4, 57, 76
10, 19560, Note_on_c, 4, 60, 76
10, 19649, Note_on_c, 4, 57, 0
10, 19649, Note_on_c, 4, 60, 0
10, 19680, Note_on_c, 4, 57, 76
10, 19680, Note_on_c, 4, 60, 76
10, 19904, Note_on_c, 4, 57, 0
10, 19904, Note_on_c, 4, 60, 0
10, 19920, Note_on_c, 4, 57, 76
10, 19920, Note_on_c, 4, 53, 76
10, 20024, Note_on_c, 4, 57, 0
10, 20024, Note_on_c, 4, 53, 0
10, 20040, Note_on_c, 4, 53, 76
10, 20144, Note_on_c, 4, 53, 0
10, 20160, Note_on_c, 4, 58, 76
10, 20249, Note_on_c, 4, 58, 0
10, 20280, Note_on_c, 4, 57, 76
10, 20369, Note_on_c, 4, 57, 0
10, 20400, Note_on_c, 4, 55, 76
10, 20519, Note_on_c, 4, 55, 0
10, 20520, Note_on_c, 4, 53, 76
10, 20579, Note_on_c, 4, 53, 0
10, 20580, Note_on_c, 4, 55, 76
10, 20631, Note_on_c, 4, 55, 0
10, 20640, Note_on_c, 4, 57, 76
10, 20729, Note_on_c, 4, 57, 0
10, 20760, Note_on_c, 4, 55, 76
10, 20849, Note_on_c, 4, 55, 0
10, 20880, Note_on_c, 4, 53, 76
10, 20999, Note_on_c, 4, 53, 0
10, 21000, Note_on_c, 4, 52, 76
10, 21059, Note_on_c, 4, 52, 0
10, 21060, Note_on_c, 4, 53, 76
10, 21111, Note_on_c, 4, 53, 0
10, 21120, Note_on_c, 4, 55, 76
10, 21209, Note_on_c, 4, 55, 0
10, 21240, Note_on_c, 4, 52, 76
10, 21329, Note_on_c, 4, 52, 0
10, 21360, Note_on_c, 4, 48, 76
10, 21449, Note_on_c, 4, 48, 0
10, 21480, Note_on_c, 4, 52, 76
10, 21569, Note_on_c, 4, 52, 0
10, 21600, Note_on_c, 4, 55, 76
10, 21704, Note_on_c, 4, 55, 0
10, 21720, Note_on_c, 4, 52, 76
10, 21824, Note_on_c, 4, 52, 0
10, 21840, Note_on_c, 4, 48, 76
10, 21944, Note_on_c, 4, 48, 0
10, 21960, Note_on_c, 4, 60, 76
10, 22064, Note_on_c, 4, 60, 0
10, 22080, Note_on_c, 4, 57, 76
10, 22169, Note_on_c, 4, 57, 0
10, 22200, Note_on_c, 4, 55, 76
10, 22289, Note_on_c, 4, 55, 0
10, 22320, Note_on_c, 4, 53, 76
10, 22439, Note_on_c, 4, 53, 0
10, 22440, Note_on_c, 4, 52, 76
10, 22499, Note_on_c, 4, 52, 0
10, 22500, Note_on_c, 4, 53, 76
10, 22551, Note_on_c, 4, 53, 0
10, 22560, Note_on_c, 4, 55, 76
10, 22664, Note_on_c, 4, 55, 0
10, 22680, Note_on_c, 4, 48, 76
10, 22784, Note_on_c, 4, 48, 0
10, 22800, Note_on_c, 4, 55, 76
10, 22904, Note_on_c, 4, 55, 0
10, 22920, Note_on_c, 4, 48, 76
10, 23024, Note_on_c, 4, 48, 0
10, 23040, Note_on_c, 4, 57, 76
10, 23129, Note_on_c, 4, 57, 0
10, 23160, Note_on_c, 4, 55, 76
10, 23249, Note_on_c, 4, 55, 0
10, 23280, Note_on_c, 4, 53, 76
10, 23399, Note_on_c, 4, 53, 0
10, 23400, Note_on_c, 4, 52, 76
10, 23459, Note_on_c, 4, 52, 0
10, 23460, Note_on_c, 4, 53, 76
10, 23511, Note_on_c, 4, 53, 0
10, 23520, Note_on_c, 4, 55, 76
10, 23624, Note_on_c, 4, 55, 0
10, 23640, Note_on_c, 4, 48, 76
10, 23744, Note_on_c, 4, 48, 0
10, 23760, Note_on_c, 4, 55, 76
10, 23864, Note_on_c, 4, 55, 0
10, 23880, Note_on_c, 4, 48, 76
10, 23984, Note_on_c, 4, 48, 0
10, 24000, Note_on_c, 4, 53, 76
10, 24119, Note_on_c, 4, 53, 0
10, 24120, Note_on_c, 4, 58, 76
10, 24120, Note_on_c, 4, 55, 76
10, 24239, Note_on_c, 4, 58, 0
10, 24239, Note_on_c, 4, 55, 0
10, 24240, Note_on_c, 4, 55, 76
10, 24240, Note_on_c, 4, 48, 76
10, 24359, Note_on_c, 4, 55, 0
10, 24359, Note_on_c, 4, 48, 0
10, 24360, Note_on_c, 4, 58, 76
10, 24360, Note_on_c, 4, 55, 76
10, 24464, Note_on_c, 4, 58, 0
10, 24464, Note_on_c, 4, 55, 0
10, 24480, Note_on_c, 4, 53, 76
10, 24480, Note_on_c, 4, 57, 76
10, 24599, Note_on_c, 4, 53, 0
10, 24599, Note_on_c, 4, 57, 0
10, 24600, Note_on_c, 4, 55, 76
10, 24600, Note_on_c, 4, 58, 76
10, 24719, Note_on_c, 4, 55, 0
10, 24719, Note_on_c, 4, 58, 0
10, 24720, Note_on_c, 4, 48, 76
10, 24720, Note_on_c, 4, 55, 76
10, 24839, Note_on_c, 4, 48, 0
10, 24839, Note_on_c, 4, 55, 0
10, 24840, Note_on_c, 4, 55, 76
10, 24840, Note_on_c, 4, 58, 76
10, 24944, Note_on_c, 4, 55, 0
10, 24944, Note_on_c, 4, 58, 0
10, 24960, Note_on_c, 4, 57, 76
10, 24960, Note_on_c, 4, 53, 76
10, 25027, Note_on_c, 4, 57, 0
10, 25027, Note_on_c, 4, 53, 0
10, 25040, Note_on_c, 4, 53, 52
10, 25040, Note_on_c, 4, 57, 52
10, 25107, Note_on_c, 4, 53, 0
10, 25107, Note_on_c, 4, 57, 0
10, 25120, Note_on_c, 4, 57, 52
10, 25120, Note_on_c, 4, 53, 52
10, 25187, Note_on_c, 4, 57, 0
10, 25187, Note_on_c, 4, 53, 0
10, 25200, Note_on_c, 4, 57, 52
10, 25200, Note_on_c, 4, 53, 52
10, 25267, Note_on_c, 4, 57, 0
10, 25267, Note_on_c, 4, 53, 0
10, 25280, Note_on_c, 4, 53, 52
10, 25280, Note_on_c, 4, 57, 52
10, 25347, Note_on_c, 4, 53, 0
10, 25347, Note_on_c, 4, 57, 0
10, 25360, Note_on_c, 4, 57, 52
10, 25360, Note_on_c, 4, 53, 52
10, 25427, Note_on_c, 4, 57, 0
10, 25427, Note_on_c, 4, 53, 0
10, 25440, Note_on_c, 4, 53, 52
10, 25440, Note_on_c, 4, 57, 52
10, 25559, Note_on_c, 4, 53, 0
10, 25559, Note_on_c, 4, 57, 0
10, 26880, Note_on_c, 4, 50, 52
10, 26880, Note_on_c, 4, 57, 52
10, 26947, Note_on_c, 4, 50, 0
10, 26947, Note_on_c, 4, 57, 0
10, 26960, Note_on_c, 4, 57, 52
10, 26960, Note_on_c, 4, 50, 52
10, 27027, Note_on_c, 4, 57, 0
10, 27027, Note_on_c, 4, 50, 0
10, 27040, Note_on_c, 4, 50, 52
10, 27040, Note_on_c, 4, 57, 52
10, 27107, Note_on_c, 4, 50, 0
10, 27107, Note_on_c, 4, 57, 0
10, 27120, Note_on_c, 4, 50, 52
10, 27120, Note_on_c, 4, 57, 52
10, 27187, Note_on_c, 4, 50, 0
10, 27187, Note_on_c, 4, 57, 0
10, 27200, Note_on_c, 4, 50, 52
10, 27200, Note_on_c, 4, 57, 52
10, 27267, Note_on_c, 4, 50, 0
10, 27267, Note_on_c, 4, 57, 0
10, 27280, Note_on_c, 4, 57, 52
10, 27280, Note_on_c, 4, 50, 52
10, 27347, Note_on_c, 4, 57, 0
10, 27347, Note_on_c, 4, 50, 0
10, 27360, Note_on_c, 4, 50, 52
10, 27360, Note_on_c, 4, 57, 52
10, 27479, Note_on_c, 4, 50, 0
10, 27479, Note_on_c, 4, 57, 0
10, 28800, Note_on_c, 4, 57, 52
10, 28800, Note_on_c, 4, 48, 52
10, 28867, Note_on_c, 4, 57, 0
10, 28867, Note_on_c, 4, 48, 0
10, 28880, Note_on_c, 4, 57, 52
10, 28880, Note_on_c, 4, 48, 52
10, 28947, Note_on_c, 4, 57, 0
10, 28947, Note_on_c, 4, 48, 0
10, 28960, Note_on_c, 4, 48, 52
10, 28960, Note_on_c, 4, 57, 52
10, 29027, Note_on_c, 4, 48, 0
10, 29027, Note_on_c, 4, 57, 0
10, 29040, Note_on_c, 4, 48, 52
10, 29040, Note_on_c, 4, 57, 52
10, 29107, Note_on_c, 4, 48, 0
10, 29107, Note_on_c, 4, 57, 0
10, 29120, Note_on_c, 4, 48, 52
10, 29120, Note_on_c, 4, 57, 52
10, 29187, Note_on_c, 4, 48, 0
10, 29187, Note_on_c, 4, 57, 0
10, 29200, Note_on_c, 4, 57, 52
10, 29200, Note_on_c, 4, 48, 52
10, 29267, Note_on_c, 4, 57, 0
10, 29267, Note_on_c, 4, 48, 0
10, 29280, Note_on_c, 4, 57, 52
10, 29280, Note_on_c, 4, 48, 52
10, 29399, Note_on_c, 4, 57, 0
10, 29399, Note_on_c, 4, 48, 0
10, 29760, Note_on_c, 4, 59, 52
10, 29760, Note_on_c, 4, 62, 52
10, 29827, Note_on_c, 4, 59, 0
10, 29827, Note_on_c, 4, 62, 0
10, 29840, Note_on_c, 4, 59, 52
10, 29840, Note_on_c, 4, 62, 52
10, 29907, Note_on_c, 4, 59, 0
10, 29907, Note_on_c, 4, 62, 0
10, 29920, Note_on_c, 4, 59, 52
10, 29920, Note_on_c, 4, 62, 52
10, 29987, Note_on_c, 4, 59, 0
10, 29987, Note_on_c, 4, 62, 0
10, 30000, Note_on_c, 4, 59, 52
10, 30000, Note_on_c, 4, 62, 52
10, 30067, Note_on_c, 4, 59, 0
10, 30067, Note_on_c, 4, 62, 0
10, 30080, Note_on_c, 4, 62, 52
10, 30080, Note_on_c, 4, 59, 52
10, 30147, Note_on_c, 4, 62, 0
10, 30147, Note_on_c, 4, 59, 0
10, 30160, Note_on_c, 4, 62, 52
10, 30160, Note_on_c, 4, 59, 52
10, 30227, Note_on_c, 4, 62, 0
10, 30227, Note_on_c, 4, 59, 0
10, 30240, Note_on_c, 4, 62, 52
10, 30240, Note_on_c, 4, 59, 52
10, 30359, Note_on_c, 4, 62, 0
10, 30359, Note_on_c, 4, 59, 0
10, 40320, Note_on_c, 4, 69, 65
10, 40439, Note_on_c, 4, 69, 0
10, 40440, Note_on_c, 4, 67, 65
10, 40559, Note_on_c, 4, 67, 0
10, 40560, Note_on_c, 4, 64, 66
10, 40679, Note_on_c, 4, 64, 0
10, 40680, Note_on_c, 4, 60, 66
10, 40799, Note_on_c, 4, 60, 0
10, 40800, Note_on_c, 4, 55, 66
10, 40919, Note_on_c, 4, 55, 0
10, 40920, Note_on_c, 4, 64, 67
10, 41039, Note_on_c, 4, 64, 0
10, 41040, Note_on_c, 4, 60, 67
10, 41159, Note_on_c, 4, 60, 0
10, 41160, Note_on_c, 4, 55, 67
10, 41264, Note_on_c, 4, 55, 0
10, 41280, Note_on_c, 4, 69, 68
10, 41399, Note_on_c, 4, 69, 0
10, 41400, Note_on_c, 4, 67, 68
10, 41519, Note_on_c, 4, 67, 0
10, 41520, Note_on_c, 4, 65, 68
10, 41639, Note_on_c, 4, 65, 0
10, 41640, Note_on_c, 4, 62, 69
10, 41759, Note_on_c, 4, 62, 0
10, 41760, Note_on_c, 4, 55, 69
10, 41879, Note_on_c, 4, 55, 0
10, 41880, Note_on_c, 4, 65, 69
10, 41999, Note_on_c, 4, 65, 0
10, 42000, Note_on_c, 4, 62, 70
10, 42119, Note_on_c, 4, 62, 0
10, 42120, Note_on_c, 4, 55, 70
10, 42224, Note_on_c, 4, 55, 0
10, 42240, Note_on_c, 4, 69, 70
10, 42359, Note_on_c, 4, 69, 0
10, 42360, Note_on_c, 4, 67, 71
10, 42479, Note_on_c, 4, 67, 0
10, 42480, Note_on_c, 4, 64, 71
10, 42599, Note_on_c, 4, 64, 0
10, 42600, Note_on_c, 4, 60, 71
10, 42719, Note_on_c, 4, 60, 0
10, 42720, Note_on_c, 4, 55, 72
10, 42839, Note_on_c, 4, 55, 0
10, 42840, Note_on_c, 4, 64, 72
10, 42959, Note_on_c, 4, 64, 0
10, 42960, Note_on_c, 4, 60, 72
10, 43079, Note_on_c, 4, 60, 0
10, 43080, Note_on_c, 4, 55, 73
10, 43184, Note_on_c, 4, 55, 0
10, 43200, Note_on_c, 4, 69, 73
10, 43319, Note_on_c, 4, 69, 0
10, 43320, Note_on_c, 4, 67, 73
10, 43439, Note_on_c, 4, 67, 0
10, 43440, Note_on_c, 4, 65, 74
10, 43559, Note_on_c, 4, 65, 0
10, 43560, Note_on_c, 4, 62, 74
10, 43679, Note_on_c, 4, 62, 0
10, 43680, Note_on_c, 4, 55, 74
10, 43799, Note_on_c, 4, 55, 0
10, 43800, Note_on_c, 4, 65, 75
10, 43919, Note_on_c, 4, 65, 0
10, 43920, Note_on_c, 4, 62, 75
10, 44039, Note_on_c, 4, 62, 0
10, 44040, Note_on_c, 4, 55, 75
10, 44144, Note_on_c, 4, 55, 0
10, 44160, Note_on_c, 4, 64, 76
10, 44160, Note_on_c, 4, 60, 76
10, 44279, Note_on_c, 4, 64, 0
10, 44279, Note_on_c, 4, 60, 0
10, 45600, Note_on_c, 4, 53, 76
10, 45600, Note_on_c, 4, 57, 76
10, 45719, Note_on_c, 4, 53, 0
10, 45719, Note_on_c, 4, 57, 0
10, 46560, Note_on_c, 4, 67, 48
10, 46560, Note_on_c, 4, 64, 48
10, 46799, Note_on_c, 4, 67, 0
10, 46799, Note_on_c, 4, 64, 0
10, 46800, Note_on_c, 4, 62, 48
10, 46800, Note_on_c, 4, 65, 48
10, 46919, Note_on_c, 4, 62, 0
10, 46919, Note_on_c, 4, 65, 0
10, 46920, Note_on_c, 4, 60, 48
10, 46920, Note_on_c, 4, 64, 48
10, 47024, Note_on_c, 4, 60, 0
10, 47024, Note_on_c, 4, 64, 0
10, 47040, Note_on_c, 4, 64, 48
10, 47040, Note_on_c, 4, 60, 48
10, 47159, Note_on_c, 4, 64, 0
10, 47159, Note_on_c, 4, 60, 0
10, 47160, Note_on_c, 4, 62, 48
10, 47160, Note_on_c, 4, 59, 48
10, 47279, Note_on_c, 4, 62, 0
10, 47279, Note_on_c, 4, 59, 0
10, 47280, Note_on_c, 4, 57, 48
10, 47280, Note_on_c, 4, 60, 48
10, 47399, Note_on_c, 4, 57, 0
10, 47399, Note_on_c, 4, 60, 0
10, 47400, Note_on_c, 4, 59, 48
10, 47400, Note_on_c, 4, 62, 48
10, 47504, Note_on_c, 4, 59, 0
10, 47504, Note_on_c, 4, 62, 0
10, 47520, Note_on_c, 4, 64, 76
10, 47520, Note_on_c, 4, 60, 76
10, 47639, Note_on_c, 4, 64, 0
10, 47639, Note_on_c, 4, 60, 0
10, 48960, Note_on_c, 4, 53, 76
10, 48960, Note_on_c, 4, 57, 76
10, 49079, Note_on_c, 4, 53, 0
10, 49079, Note_on_c, 4, 57, 0
10, 49440, Note_on_c, 4, 57, 52
10, 49440, Note_on_c, 4, 60, 52
10, 49679, Note_on_c, 4, 57, 0
10, 49679, Note_on_c, 4, 60, 0
10, 49680, Note_on_c, 4, 59, 52
10, 49680, Note_on_c, 4, 55, 52
10, 49799, Note_on_c, 4, 59, 0
10, 49799, Note_on_c, 4, 55, 0
10, 49800, Note_on_c, 4, 53, 52
10, 49800, Note_on_c, 4, 57, 52
10, 49904, Note_on_c, 4, 53, 0
10, 49904, Note_on_c, 4, 57, 0
10, 49920, Note_on_c, 4, 55, 52
10, 49920, Note_on_c, 4, 52, 52
10, 50159, Note_on_c, 4, 55, 0
10, 50159, Note_on_c, 4, 52, 0
10, 50160, Note_on_c, 4, 50, 52
10, 50160, Note_on_c, 4, 53, 52
10, 50279, Note_on_c, 4, 50, 0
10, 50279, Note_on_c, 4, 53, 0
10, 50280, Note_on_c, 4, 48, 52
10, 50280, Note_on_c, 4, 52, 52
10, 50384, Note_on_c, 4, 48, 0
10, 50384, Note_on_c, 4, 52, 0
10, 50400, Note_on_c, 4, 47, 52
10, 50400, Note_on_c, 4, 50, 52
10, 50639, Note_on_c, 4, 47, 0
10, 50639, Note_on_c, 4, 50, 0
10, 50640, Note_on_c, 4, 45, 52
10, 50640, Note_on_c, 4, 48, 52
10, 50759, Note_on_c, 4, 45, 0
10, 50759, Note_on_c, 4, 48, 0
10, 50760, Note_on_c, 4, 50, 52
10, 50760, Note_on_c, 4, 47, 52
10, 50864, Note_on_c, 4, 50, 0
10, 50864, Note_on_c, 4, 47, 0
10, 50878, Control_c, 4, 11, 80
10, 50880, Note_on_c, 4, 52, 76
10, 50880, Note_on_c, 4, 48, 76
10, 50969, Note_on_c, 4, 52, 0
10, 50969, Note_on_c, 4, 48, 0
10, 51000, Note_on_c, 4, 52, 76
10, 51000, Note_on_c, 4, 48, 76
10, 51000, Control_c, 4, 11, 80
10, 51050, Control_c, 4, 11, 81
10, 51100, Control_c, 4, 11, 83
10, 51119, Note_on_c, 4, 52, 0
10, 51119, Note_on_c, 4, 48, 0
10, 51120, Note_on_c, 4, 50, 76
10, 51120, Note_on_c, 4, 53, 76
10, 51150, Control_c, 4, 11, 84
10, 51200, Control_c, 4, 11, 85
10, 51239, Note_on_c, 4, 50, 0
10, 51239, Note_on_c, 4, 53, 0
10, 51240, Note_on_c, 4, 55, 76
10, 51240, Note_on_c, 4, 52, 76
10, 51250, Control_c, 4, 11, 87
10, 51300, Control_c, 4, 11, 88
10, 51344, Note_on_c, 4, 55, 0
10, 51344, Note_on_c, 4, 52, 0
10, 51350, Control_c, 4, 11, 89
10, 51360, Note_on_c, 4, 53, 76
10, 51360, Note_on_c, 4, 57, 76
10, 51400, Control_c, 4, 11, 90
10, 51449, Note_on_c, 4, 53, 0
10, 51449, Note_on_c, 4, 57, 0
10, 51450, Control_c, 4, 11, 92
10, 51480, Note_on_c, 4, 60, 76
10, 51480, Note_on_c, 4, 57, 76
10, 51500, Control_c, 4, 11, 93
10, 51550, Control_c, 4, 11, 94
10, 51599, Note_on_c, 4, 60, 0
10, 51599, Note_on_c, 4, 57, 0
10, 51600, Control_c, 4, 11, 96
10, 51600, Note_on_c, 4, 55, 76
10, 51600, Note_on_c, 4, 59, 76
10, 51650, Control_c, 4, 11, 97
10, 51700, Control_c, 4, 11, 98
10, 51719, Note_on_c, 4, 55, 0
10, 51719, Note_on_c, 4, 59, 0
10, 51720, Note_on_c, 4, 57, 76
10, 51720, Note_on_c, 4, 53, 76
10, 51750, Control_c, 4, 11, 100
10, 51800, Control_c, 4, 11, 101
10, 51824, Note_on_c, 4, 57, 0
10, 51824, Note_on_c, 4, 53, 0
10, 51840, Note_on_c, 4, 52, 76
10, 51840, Note_on_c, 4, 55, 76
10, 51850, Control_c, 4, 11, 102
10, 51900, Control_c, 4, 11, 104
10, 51929, Note_on_c, 4, 52, 0
10, 51929, Note_on_c, 4, 55, 0
10, 51950, Control_c, 4, 11, 105
10, 51960, Note_on_c, 4, 55, 76
10, 51960, Note_on_c, 4, 52, 76
10, 52000, Control_c, 4, 11, 106
10, 52050, Control_c, 4, 11, 107
10, 52079, Note_on_c, 4, 55, 0
10, 52079, Note_on_c, 4, 52, 0
10, 52080, Note_on_c, 4, 53, 76
10, 52080, Note_on_c, 4, 50, 76
10, 52100, Control_c, 4, 11, 109
10, 52150, Control_c, 4, 11, 110
10, 52199, Note_on_c, 4, 53, 0
10, 52199, Note_on_c, 4, 50, 0
10, 52200, Control_c, 4, 11, 111
10, 52200, Note_on_c, 4, 52, 76
10, 52200, Note_on_c, 4, 48, 76
10, 52250, Control_c, 4, 11, 113
10, 52300, Control_c, 4, 11, 114
10, 52304, Note_on_c, 4, 52, 0
10, 52304, Note_on_c, 4, 48, 0
10, 52320, Note_on_c, 4, 50, 76
10, 52320, Note_on_c, 4, 47, 76
10, 52350, Control_c, 4, 11, 115
10, 52400, Control_c, 4, 11, 117
10, 52450, Control_c, 4, 11, 118
10, 52500, Control_c, 4, 11, 119
10, 52550, Control_c, 4, 11, 120
10, 52559, Note_on_c, 4, 50, 0
10, 52559, Note_on_c, 4, 47, 0
10, 52560, Note_on_c, 4, 48, 76
10, 52560, Note_on_c, 4, 45, 76
10, 52600, Control_c, 4, 11, 122
10, 52650, Control_c, 4, 11, 123
10, 52679, Note_on_c, 4, 48, 0
10, 52679, Note_on_c, 4, 45, 0
10, 52680, Note_on_c, 4, 47, 76
10, 52680, Note_on_c, 4, 50, 76
10, 52700, Control_c, 4, 11, 124
10, 52750, Control_c, 4, 11, 127
10, 52784, Note_on_c, 4, 47, 0
10, 52784, Note_on_c, 4, 50, 0
10, 52800, Note_on_c, 4, 48, 76
10, 52800, Note_on_c, 4, 52, 76
10, 52919, Note_on_c, 4, 48, 0
10, 52919, Note_on_c, 4, 52, 0
10, 53040, Note_on_c, 4, 55, 76
10, 53040, Note_on_c, 4, 52, 76
10, 53159, Note_on_c, 4, 55, 0
10, 53159, Note_on_c, 4, 52, 0
10, 53280, Note_on_c, 4, 53, 76
10, 53280, Note_on_c, 4, 57, 76
10, 53399, Note_on_c, 4, 53, 0
10, 53399, Note_on_c, 4, 57, 0
10, 53520, Note_on_c, 4, 53, 76
10, 53520, Note_on_c, 4, 57, 76
10, 53639, Note_on_c, 4, 53, 0
10, 53639, Note_on_c, 4, 57, 0
10, 53760, Note_on_c, 4, 55, 76
10, 53760, Note_on_c, 4, 52, 76
10, 53879, Note_on_c, 4, 55, 0
10, 53879, Note_on_c, 4, 52, 0
10, 54000, Note_on_c, 4, 52, 76
10, 54000, Note_on_c, 4, 60, 76
10, 54119, Note_on_c, 4, 52, 0
10, 54119, Note_on_c, 4, 60, 0
10, 54240, Note_on_c, 4, 59, 76
10, 54240, Note_on_c, 4, 50, 76
10, 54359, Note_on_c, 4, 59, 0
10, 54359, Note_on_c, 4, 50, 0
10, 54480, Note_on_c, 4, 50, 76
10, 54480, Note_on_c, 4, 59, 76
10, 54599, Note_on_c, 4, 50, 0
10, 54599, Note_on_c, 4, 59, 0
10, 54720, Note_on_c, 4, 48, 76
10, 54720, Note_on_c, 4, 60, 76
10, 54959, Note_on_c, 4, 48, 0
10, 54959, Note_on_c, 4, 60, 0
10, 54960, Note_on_c, 4, 55, 76
10, 54960, Note_on_c, 4, 43, 76
10, 55664, Note_on_c, 4, 55, 0
10, 55664, Note_on_c, 4, 43, 0
10, 55680, Note_on_c, 4, 52, 76
10, 55680, Note_on_c, 4, 64, 76
10, 55919, Note_on_c, 4, 52, 0
10, 55919, Note_on_c, 4, 64, 0
10, 55920, Note_on_c, 4, 60, 76
10, 55920, Note_on_c, 4, 48, 76
10, 56624, Note_on_c, 4, 60, 0
10, 56624, Note_on_c, 4, 48, 0
10, 56640, Note_on_c, 4, 48, 76
10, 56640, Note_on_c, 4, 60, 76
10, 56879, Note_on_c, 4, 48, 0
10, 56879, Note_on_c, 4, 60, 0
10, 56880, Note_on_c, 4, 43, 76
10, 56880, Note_on_c, 4, 55, 76
10, 57584, Note_on_c, 4, 43, 0
10, 57584, Note_on_c, 4, 55, 0
10, 57600, Note_on_c, 4, 52, 76
10, 57600, Note_on_c, 4, 64, 76
10, 57839, Note_on_c, 4, 52, 0
10, 57839, Note_on_c, 4, 64, 0
10, 57840, Note_on_c, 4, 60, 76
10, 57840, Note_on_c, 4, 48, 76
10, 58544, Note_on_c, 4, 60, 0
10, 58544, Note_on_c, 4, 48, 0
10, 58560, Note_on_c, 4, 60, 76
10, 58560, Note_on_c, 4, 48, 76
10, 58799, Note_on_c, 4, 60, 0
10, 58799, Note_on_c, 4, 48, 0
10, 58800, Note_on_c, 4, 43, 73
10, 58800, Note_on_c, 4, 55, 73
10, 59039, Note_on_c, 4, 43, 0
10, 59039, Note_on_c, 4, 55, 0
10, 59040, Note_on_c, 4, 60, 70
10, 59040, Note_on_c, 4, 48, 70
10, 59279, Note_on_c, 4, 60, 0
10, 59279, Note_on_c, 4, 48, 0
10, 59280, Note_on_c, 4, 43, 67
10, 59280, Note_on_c, 4, 55, 67
10, 59519, Note_on_c, 4, 43, 0
10, 59519, Note_on_c, 4, 55, 0
10, 59520, Note_on_c, 4, 60, 64
10, 59520, Note_on_c, 4, 48, 64
10, 59759, Note_on_c, 4, 60, 0
10, 59759, Note_on_c, 4, 48, 0
10, 59760, Note_on_c, 4, 55, 61
10, 59760, Note_on_c, 4, 43, 61
10, 59999, Note_on_c, 4, 55, 0
10, 59999, Note_on_c, 4, 43, 0
10, 60000, Note_on_c, 4, 60, 58
10, 60000, Note_on_c, 4, 48, 58
10, 60239, Note_on_c, 4, 60, 0
10, 60239, Note_on_c, 4, 48, 0
10, 60240, Note_on_c, 4, 43, 55
10, 60240, Note_on_c, 4, 55, 55
10, 60479, Note_on_c, 4, 43, 0
10, 60479, Note_on_c, 4, 55, 0
10, 60480, Note_on_c, 4, 48, 52
10, 60480, Note_on_c, 4, 60, 52
10, 60569, Note_on_c, 4, 48, 0
10, 60569, Note_on_c, 4, 60, 0
10, 75360, Note_on_c, 4, 60, 76
10, 75449, Note_on_c, 4, 60, 0
10, 75480, Note_on_c, 4, 55, 76
10, 75539, Note_on_c, 4, 55, 0
10, 75540, Note_on_c, 4, 57, 76
10, 75591, Note_on_c, 4, 57, 0
10, 75600, Note_on_c, 4, 58, 76
10, 75689, Note_on_c, 4, 58, 0
10, 75720, Note_on_c, 4, 59, 76
10, 75809, Note_on_c, 4, 59, 0
10, 75840, Note_on_c, 4, 60, 76
10, 75959, Note_on_c, 4, 60, 0
10, 81720, Note_on_c, 4, 57, 53
10, 81720, Note_on_c, 4, 53, 53
10, 81809, Note_on_c, 4, 57, 0
10, 81809, Note_on_c, 4, 53, 0
10, 81840, Note_on_c, 4, 58, 55
10, 81840, Note_on_c, 4, 55, 55
10, 81929, Note_on_c, 4, 58, 0
10, 81929, Note_on_c, 4, 55, 0
10, 81960, Note_on_c, 4, 62, 56
10, 81960, Note_on_c, 4, 58, 56
10, 82049, Note_on_c, 4, 62, 0
10, 82049, Note_on_c, 4, 58, 0
10, 82080, Note_on_c, 4, 57, 58
10, 82080, Note_on_c, 4, 60, 58
10, 82199, Note_on_c, 4, 57, 0
10, 82199, Note_on_c, 4, 60, 0
10, 82200, Note_on_c, 4, 58, 59
10, 82200, Note_on_c, 4, 55, 59
10, 82259, Note_on_c, 4, 58, 0
10, 82259, Note_on_c, 4, 55, 0
10, 82260, Note_on_c, 4, 57, 60
10, 82260, Note_on_c, 4, 53, 60
10, 82311, Note_on_c, 4, 57, 0
10, 82311, Note_on_c, 4, 53, 0
10, 82320, Note_on_c, 4, 55, 61
10, 82320, Note_on_c, 4, 52, 61
10, 82409, Note_on_c, 4, 55, 0
10, 82409, Note_on_c, 4, 52, 0
10, 82440, Note_on_c, 4, 48, 62
10, 82529, Note_on_c, 4, 48, 0
10, 82560, Note_on_c, 4, 53, 64
10, 82649, Note_on_c, 4, 53, 0
10, 82680, Note_on_c, 4, 52, 65
10, 82680, Note_on_c, 4, 55, 65
10, 82769, Note_on_c, 4, 52, 0
10, 82769, Note_on_c, 4, 55, 0
10, 82800, Note_on_c, 4, 53, 67
10, 82800, Note_on_c, 4, 57, 67
10, 82919, Note_on_c, 4, 53, 0
10, 82919, Note_on_c, 4, 57, 0
10, 82920, Note_on_c, 4, 55, 68
10, 82920, Note_on_c, 4, 58, 68
10, 82979, Note_on_c, 4, 55, 0
10, 82979, Note_on_c, 4, 58, 0
10, 82980, Note_on_c, 4, 57, 69
10, 82980, Note_on_c, 4, 53, 69
10, 83031, Note_on_c, 4, 57, 0
10, 83031, Note_on_c, 4, 53, 0
10, 83040, Note_on_c, 4, 55, 70
10, 83040, Note_on_c, 4, 52, 70
10, 83129, Note_on_c, 4, 55, 0
10, 83129, Note_on_c, 4, 52, 0
10, 83160, Note_on_c, 4, 53, 71
10, 83160, Note_on_c, 4, 57, 71
10, 83249, Note_on_c, 4, 53, 0
10, 83249, Note_on_c, 4, 57, 0
10, 83280, Note_on_c, 4, 58, 73
10, 83280, Note_on_c, 4, 55, 73
10, 83399, Note_on_c, 4, 58, 0
10, 83399, Note_on_c, 4, 55, 0
10, 83400, Note_on_c, 4, 60, 74
10, 83400, Note_on_c, 4, 57, 74
10, 83459, Note_on_c, 4, 60, 0
10, 83459, Note_on_c, 4, 57, 0
10, 83460, Note_on_c, 4, 58, 75
10, 83460, Note_on_c, 4, 55, 75
10, 83511, Note_on_c, 4, 58, 0
10, 83511, Note_on_c, 4, 55, 0
10, 83520, Note_on_c, 4, 53, 76
10, 83520, Note_on_c, 4, 57, 76
10, 83624, Note_on_c, 4, 53, 0
10, 83624, Note_on_c, 4, 57, 0
10, 83640, Note_on_c, 4, 60, 76
10, 83640, Note_on_c, 4, 53, 76
10, 83744, Note_on_c, 4, 60, 0
10, 83744, Note_on_c, 4, 53, 0
10, 83760, Note_on_c, 4, 60, 76
10, 83760, Note_on_c, 4, 53, 76
10, 83864, Note_on_c, 4, 60, 0
10, 83864, Note_on_c, 4, 53, 0
10, 83880, Note_on_c, 4, 53, 76
10, 83880, Note_on_c, 4, 60, 76
10, 83984, Note_on_c, 4, 53, 0
10, 83984, Note_on_c, 4, 60, 0
10, 84000, Note_on_c, 4, 53, 76
10, 84000, Note_on_c, 4, 60, 76
10, 84104, Note_on_c, 4, 53, 0
10, 84104, Note_on_c, 4, 60, 0
10, 84120, Note_on_c, 4, 53, 76
10, 84120, Note_on_c, 4, 60, 76
10, 84224, Note_on_c, 4, 53, 0
10, 84224, Note_on_c, 4, 60, 0
10, 84240, Note_on_c, 4, 53, 76
10, 84240, Note_on_c, 4, 60, 76
10, 84344, Note_on_c, 4, 53, 0
10, 84344, Note_on_c, 4, 60, 0
10, 84360, Note_on_c, 4, 53, 76
10, 84360, Note_on_c, 4, 60, 76
10, 84464, Note_on_c, 4, 53, 0
10, 84464, Note_on_c, 4, 60, 0
10, 84480, Note_on_c, 4, 53, 76
10, 84480, Note_on_c, 4, 60, 76
10, 84584, Note_on_c, 4, 53, 0
10, 84584, Note_on_c, 4, 60, 0
10, 84600, Note_on_c, 4, 53, 76
10, 84600, Note_on_c, 4, 60, 76
10, 84704, Note_on_c, 4, 53, 0
10, 84704, Note_on_c, 4, 60, 0
10, 84720, Note_on_c, 4, 53, 76
10, 84720, Note_on_c, 4, 60, 76
10, 84824, Note_on_c, 4, 53, 0
10, 84824, Note_on_c, 4, 60, 0
10, 84840, Note_on_c, 4, 53, 76
10, 84840, Note_on_c, 4, 60, 76
10, 84944, Note_on_c, 4, 53, 0
10, 84944, Note_on_c, 4, 60, 0
10, 84960, Note_on_c, 4, 53, 76
10, 84960, Note_on_c, 4, 60, 76
10, 85064, Note_on_c, 4, 53, 0
10, 85064, Note_on_c, 4, 60, 0
10, 85080, Note_on_c, 4, 53, 76
10, 85080, Note_on_c, 4, 60, 76
10, 85184, Note_on_c, 4, 53, 0
10, 85184, Note_on_c, 4, 60, 0
10, 85200, Note_on_c, 4, 60, 76
10, 85200, Note_on_c, 4, 53, 76
10, 85304, Note_on_c, 4, 60, 0
10, 85304, Note_on_c, 4, 53, 0
10, 85320, Note_on_c, 4, 60, 76
10, 85320, Note_on_c, 4, 53, 76
10, 85424, Note_on_c, 4, 60, 0
10, 85424, Note_on_c, 4, 53, 0
10, 85440, Note_on_c, 4, 53, 76
10, 85440, Note_on_c, 4, 60, 76
10, 85544, Note_on_c, 4, 60, 0
10, 85559, Note_on_c, 4, 53, 0
10, 85560, Note_on_c, 4, 57, 76
10, 85560, Note_on_c, 4, 60, 76
10, 85664, Note_on_c, 4, 57, 0
10, 85664, Note_on_c, 4, 60, 0
10, 85680, Note_on_c, 4, 57, 76
10, 85680, Note_on_c, 4, 60, 76
10, 85769, Note_on_c, 4, 57, 0
10, 85769, Note_on_c, 4, 60, 0
10, 85800, Note_on_c, 4, 57, 76
10, 85800, Note_on_c, 4, 60, 76
10, 85889, Note_on_c, 4, 57, 0
10, 85889, Note_on_c, 4, 60, 0
10, 85920, Note_on_c, 4, 57, 76
10, 85920, Note_on_c, 4, 60, 76
10, 86144, Note_on_c, 4, 57, 0
10, 86144, Note_on_c, 4, 60, 0
10, 86160, Note_on_c, 4, 57, 76
10, 86160, Note_on_c, 4, 53, 76
10, 86264, Note_on_c, 4, 57, 0
10, 86264, Note_on_c, 4, 53, 0
10, 86280, Note_on_c, 4, 53, 76
10, 86384, Note_on_c, 4, 53, 0
10, 86400, Note_on_c, 4, 58, 76
10, 86489, Note_on_c, 4, 58, 0
10, 86520, Note_on_c, 4, 57, 76
10, 86609, Note_on_c, 4, 57, 0
10, 86640, Note_on_c, 4, 55, 76
10, 86759, Note_on_c, 4, 55, 0
10, 86760, Note_on_c, 4, 53, 76
10, 86819, Note_on_c, 4, 53, 0
10, 86820, Note_on_c, 4, 55, 76
10, 86871, Note_on_c, 4, 55, 0
10, 86880, Note_on_c, 4, 57, 76
10, 86969, Note_on_c, 4, 57, 0
10, 87000, Note_on_c, 4, 55, 76
10, 87089, Note_on_c, 4, 55, 0
10, 87120, Note_on_c, 4, 53, 76
10, 87239, Note_on_c, 4, 53, 0
10, 87240, Note_on_c, 4, 52, 76
10, 87299, Note_on_c, 4, 52, 0
10, 87300, Note_on_c, 4, 53, 76
10, 87351, Note_on_c, 4, 53, 0
10, 87360, Note_on_c, 4, 55, 76
10, 87449, Note_on_c, 4, 55, 0
10, 87480, Note_on_c, 4, 52, 76
10, 87569, Note_on_c, 4, 52, 0
10, 87600, Note_on_c, 4, 48, 76
10, 87689, Note_on_c, 4, 48, 0
10, 87720, Note_on_c, 4, 52, 76
10, 87809, Note_on_c, 4, 52, 0
10, 87840, Note_on_c, 4, 55, 76
10, 87944, Note_on_c, 4, 55, 0
10, 87960, Note_on_c, 4, 52, 76
10, 88064, Note_on_c, 4, 52, 0
10, 88080, Note_on_c, 4, 48, 76
10, 88184, Note_on_c, 4, 48, 0
10, 88200, Note_on_c, 4, 60, 76
10, 88304, Note_on_c, 4, 60, 0
10, 88320, Note_on_c, 4, 57, 76
10, 88409, Note_on_c, 4, 57, 0
10, 88440, Note_on_c, 4, 55, 76
10, 88529, Note_on_c, 4, 55, 0
10, 88560, Note_on_c, 4, 53, 76
10, 88679, Note_on_c, 4, 53, 0
10, 88680, Note_on_c, 4, 52, 76
10, 88739, Note_on_c, 4, 52, 0
10, 88740, Note_on_c, 4, 53, 76
10, 88791, Note_on_c, 4, 53, 0
10, 88800, Note_on_c, 4, 55, 76
10, 88904, Note_on_c, 4, 55, 0
10, 88920, Note_on_c, 4, 48, 76
10, 89024, Note_on_c, 4, 48, 0
10, 89040, Note_on_c, 4, 55, 76
10, 89144, Note_on_c, 4, 55, 0
10, 89160, Note_on_c, 4, 48, 76
10, 89264, Note_on_c, 4, 48, 0
10, 89280, Note_on_c, 4, 57, 76
10, 89369, Note_on_c, 4, 57, 0
10, 89400, Note_on_c, 4, 55, 76
10, 89489, Note_on_c, 4, 55, 0
10, 89520, Note_on_c, 4, 53, 76
10, 89639, Note_on_c, 4, 53, 0
10, 89640, Note_on_c, 4, 52, 76
10, 89699, Note_on_c, 4, 52, 0
10, 89700, Note_on_c, 4, 53, 76
10, 89751, Note_on_c, 4, 53, 0
10, 89760, Note_on_c, 4, 55, 76
10, 89864, Note_on_c, 4, 55, 0
10, 89880, Note_on_c, 4, 48, 76
10, 89984, Note_on_c, 4, 48, 0
10, 90000, Note_on_c, 4, 55, 76
10, 90104, Note_on_c, 4, 55, 0
10, 90120, Note_on_c, 4, 48, 76
10, 90224, Note_on_c, 4, 48, 0
10, 90240, Note_on_c, 4, 53, 76
10, 90359, Note_on_c, 4, 53, 0
10, 90360, Note_on_c, 4, 58, 76
10, 90360, Note_on_c, 4, 55, 76
10, 90479, Note_on_c, 4, 58, 0
10, 90479, Note_on_c, 4, 55, 0
10, 90480, Note_on_c, 4, 48, 76
10, 90480, Note_on_c, 4, 55, 76
10, 90599, Note_on_c, 4, 48, 0
10, 90599, Note_on_c, 4, 55, 0
10, 90600, Note_on_c, 4, 55, 76
10, 90600, Note_on_c, 4, 58, 76
10, 90704, Note_on_c, 4, 55, 0
10, 90704, Note_on_c, 4, 58, 0
10, 90720, Note_on_c, 4, 53, 76
10, 90720, Note_on_c, 4, 57, 76
10, 90839, Note_on_c, 4, 53, 0
10, 90839, Note_on_c, 4, 57, 0
10, 90840, Note_on_c, 4, 58, 76
10, 90840, Note_on_c, 4, 55, 76
10, 90959, Note_on_c, 4, 58, 0
10, 90959, Note_on_c, 4, 55, 0
10, 90960, Note_on_c, 4, 48, 76
10, 90960, Note_on_c, 4, 55, 76
10, 91079, Note_on_c, 4, 48, 0
10, 91079, Note_on_c, 4, 55, 0
10, 91080, Note_on_c, 4, 58, 76
10, 91080, Note_on_c, 4, 55, 76
10, 91184, Note_on_c, 4, 58, 0
10, 91184, Note_on_c, 4, 55, 0
10, 91200, Note_on_c, 4, 57, 76
10, 91200, Note_on_c, 4, 53, 76
10, 91267, Note_on_c, 4, 57, 0
10, 91267, Note_on_c, 4, 53, 0
10, 91280, Note_on_c, 4, 53, 52
10, 91280, Note_on_c, 4, 57, 52
10, 91347, Note_on_c, 4, 53, 0
10, 91347, Note_on_c, 4, 57, 0
10, 91360, Note_on_c, 4, 53, 52
10, 91360, Note_on_c, 4, 57, 52
10, 91427, Note_on_c, 4, 53, 0
10, 91427, Note_on_c, 4, 57, 0
10, 91440, Note_on_c, 4, 53, 52
10, 91440, Note_on_c, 4, 57, 52
10, 91507, Note_on_c, 4, 53, 0
10, 91507, Note_on_c, 4, 57, 0
10, 91520, Note_on_c, 4, 53, 52
10, 91520, Note_on_c, 4, 57, 52
10, 91587, Note_on_c, 4, 53, 0
10, 91587, Note_on_c, 4, 57, 0
10, 91600, Note_on_c, 4, 57, 52
10, 91600, Note_on_c, 4, 53, 52
10, 91667, Note_on_c, 4, 57, 0
10, 91667, Note_on_c, 4, 53, 0
10, 91680, Note_on_c, 4, 53, 52
10, 91680, Note_on_c, 4, 57, 52
10, 91799, Note_on_c, 4, 53, 0
10, 91799, Note_on_c, 4, 57, 0
10, 93120, Note_on_c, 4, 57, 52
10, 93120, Note_on_c, 4, 50, 52
10, 93187, Note_on_c, 4, 57, 0
10, 93187, Note_on_c, 4, 50, 0
10, 93200, Note_on_c, 4, 50, 52
10, 93200, Note_on_c, 4, 57, 52
10, 93267, Note_on_c, 4, 50, 0
10, 93267, Note_on_c, 4, 57, 0
10, 93280, Note_on_c, 4, 50, 52
10, 93280, Note_on_c, 4, 57, 52
10, 93347, Note_on_c, 4, 50, 0
10, 93347, Note_on_c, 4, 57, 0
10, 93360, Note_on_c, 4, 57, 52
10, 93360, Note_on_c, 4, 50, 52
10, 93427, Note_on_c, 4, 57, 0
10, 93427, Note_on_c, 4, 50, 0
10, 93440, Note_on_c, 4, 57, 52
10, 93440, Note_on_c, 4, 50, 52
10, 93507, Note_on_c, 4, 57, 0
10, 93507, Note_on_c, 4, 50, 0
10, 93520, Note_on_c, 4, 57, 52
10, 93520, Note_on_c, 4, 50, 52
10, 93587, Note_on_c, 4, 57, 0
10, 93587, Note_on_c, 4, 50, 0
10, 93600, Note_on_c, 4, 50, 52
10, 93600, Note_on_c, 4, 57, 52
10, 93719, Note_on_c, 4, 50, 0
10, 93719, Note_on_c, 4, 57, 0
10, 95040, Note_on_c, 4, 57, 52
10, 95040, Note_on_c, 4, 48, 52
10, 95107, Note_on_c, 4, 57, 0
10, 95107, Note_on_c, 4, 48, 0
10, 95120, Note_on_c, 4, 57, 52
10, 95120, Note_on_c, 4, 48, 52
10, 95187, Note_on_c, 4, 57, 0
10, 95187, Note_on_c, 4, 48, 0
10, 95200, Note_on_c, 4, 57, 52
10, 95200, Note_on_c, 4, 48, 52
10, 95267, Note_on_c, 4, 57, 0
10, 95267, Note_on_c, 4, 48, 0
10, 95280, Note_on_c, 4, 57, 52
10, 95280, Note_on_c, 4, 48, 52
10, 95347, Note_on_c, 4, 57, 0
10, 95347, Note_on_c, 4, 48, 0
10, 95360, Note_on_c, 4, 48, 52
10, 95360, Note_on_c, 4, 57, 52
10, 95427, Note_on_c, 4, 48, 0
10, 95427, Note_on_c, 4, 57, 0
10, 95440, Note_on_c, 4, 57, 52
10, 95440, Note_on_c, 4, 48, 52
10, 95507, Note_on_c, 4, 57, 0
10, 95507, Note_on_c, 4, 48, 0
10, 95520, Note_on_c, 4, 57, 52
10, 95520, Note_on_c, 4, 48, 52
10, 95639, Note_on_c, 4, 57, 0
10, 95639, Note_on_c, 4, 48, 0
10, 96000, Note_on_c, 4, 62, 52
10, 96000, Note_on_c, 4, 59, 52
10, 96067, Note_on_c, 4, 62, 0
10, 96067, Note_on_c, 4, 59, 0
10, 96080, Note_on_c, 4, 59, 52
10, 96080, Note_on_c, 4, 62, 52
10, 96147, Note_on_c, 4, 59, 0
10, 96147, Note_on_c, 4, 62, 0
10, 96160, Note_on_c, 4, 62, 52
10, 96160, Note_on_c, 4, 59, 52
10, 96227, Note_on_c, 4, 62, 0
10, 96227, Note_on_c, 4, 59, 0
10, 96240, Note_on_c, 4, 62, 52
10, 96240, Note_on_c, 4, 59, 52
10, 96307, Note_on_c, 4, 62, 0
10, 96307, Note_on_c, 4, 59, 0
10, 96320, Note_on_c, 4, 62, 52
10, 96320, Note_on_c, 4, 59, 52
10, 96387, Note_on_c, 4, 62, 0
10, 96387, Note_on_c, 4, 59, 0
10, 96400, Note_on_c, 4, 62, 52
10, 96400, Note_on_c, 4, 59, 52
10, 96467, Note_on_c, 4, 62, 0
10, 96467, Note_on_c, 4, 59, 0
10, 96480, Note_on_c, 4, 59, 52
10, 96480, Note_on_c, 4, 62, 52
10, 96599, Note_on_c, 4, 59, 0
10, 96599, Note_on_c, 4, 62, 0
10, 106560, Note_on_c, 4, 69, 65
10, 106679, Note_on_c, 4, 69, 0
10, 106680, Note_on_c, 4, 67, 65
10, 106799, Note_on_c, 4, 67, 0
10, 106800, Note_on_c, 4, 64, 66
10, 106919, Note_on_c, 4, 64, 0
10, 106920, Note_on_c, 4, 60, 66
10, 107039, Note_on_c, 4, 60, 0
10, 107040, Note_on_c, 4, 55, 66
10, 107159, Note_on_c, 4, 55, 0
10, 107160, Note_on_c, 4, 64, 67
10, 107279, Note_on_c, 4, 64, 0
10, 107280, Note_on_c, 4, 60, 67
10, 107399, Note_on_c, 4, 60, 0
10, 107400, Note_on_c, 4, 55, 67
10, 107504, Note_on_c, 4, 55, 0
10, 107520, Note_on_c, 4, 69, 68
10, 107639, Note_on_c, 4, 69, 0
10, 107640, Note_on_c, 4, 67, 68
10, 107759, Note_on_c, 4, 67, 0
10, 107760, Note_on_c, 4, 65, 68
10, 107879, Note_on_c, 4, 65, 0
10, 107880, Note_on_c, 4, 62, 69
10, 107999, Note_on_c, 4, 62, 0
10, 108000, Note_on_c, 4, 55, 69
10, 108119, Note_on_c, 4, 55, 0
10, 108120, Note_on_c, 4, 65, 69
10, 108239, Note_on_c, 4, 65, 0
10, 108240, Note_on_c, 4, 62, 70
10, 108359, Note_on_c, 4, 62, 0
10, 108360, Note_on_c, 4, 55, 70
10, 108464, Note_on_c, 4, 55, 0
10, 108480, Note_on_c, 4, 69, 70
10, 108599, Note_on_c, 4, 69, 0
10, 108600, Note_on_c, 4, 67, 71
10, 108719, Note_on_c, 4, 67, 0
10, 108720, Note_on_c, 4, 64, 71
10, 108839, Note_on_c, 4, 64, 0
10, 108840, Note_on_c, 4, 60, 71
10, 108959, Note_on_c, 4, 60, 0
10, 108960, Note_on_c, 4, 55, 72
10, 109079, Note_on_c, 4, 55, 0
10, 109080, Note_on_c, 4, 64, 72
10, 109199, Note_on_c, 4, 64, 0
10, 109200, Note_on_c, 4, 60, 72
10, 109319, Note_on_c, 4, 60, 0
10, 109320, Note_on_c, 4, 55, 73
10, 109424, Note_on_c, 4, 55, 0
10, 109440, Note_on_c, 4, 69, 73
10, 109559, Note_on_c, 4, 69, 0
10, 109560, Note_on_c, 4, 67, 73
10, 109679, Note_on_c, 4, 67, 0
10, 109680, Note_on_c, 4, 65, 74
10, 109799, Note_on_c, 4, 65, 0
10, 109800, Note_on_c, 4, 62, 74
10, 109919, Note_on_c, 4, 62, 0
10, 109920, Note_on_c, 4, 55, 74
10, 110039, Note_on_c, 4, 55, 0
10, 110040, Note_on_c, 4, 65, 75
10, 110159, Note_on_c, 4, 65, 0
10, 110160, Note_on_c, 4, 62, 75
10, 110279, Note_on_c, 4, 62, 0
10, 110280, Note_on_c, 4, 55, 75
10, 110384, Note_on_c, 4, 55, 0
10, 110400, Note_on_c, 4, 64, 76
10, 110400, Note_on_c, 4, 60, 76
10, 110519, Note_on_c, 4, 64, 0
10, 110519, Note_on_c, 4, 60, 0
10, 111840, Note_on_c, 4, 57, 76
10, 111840, Note_on_c, 4, 53, 76
10, 111959, Note_on_c, 4, 57, 0
10, 111959, Note_on_c, 4, 53, 0
10, 112800, Note_on_c, 4, 67, 48
10, 112800, Note_on_c, 4, 64, 48
10, 113039, Note_on_c, 4, 67, 0
10, 113039, Note_on_c, 4, 64, 0
10, 113040, Note_on_c, 4, 62, 48
10, 113040, Note_on_c, 4, 65, 48
10, 113159, Note_on_c, 4, 62, 0
10, 113159, Note_on_c, 4, 65, 0
10, 113160, Note_on_c, 4, 64, 48
10, 113160, Note_on_c, 4, 60, 48
10, 113264, Note_on_c, 4, 64, 0
10, 113264, Note_on_c, 4, 60, 0
10, 113280, Note_on_c, 4, 60, 48
10, 113280, Note_on_c, 4, 64, 48
10, 113399, Note_on_c, 4, 60, 0
10, 113399, Note_on_c, 4, 64, 0
10, 113400, Note_on_c, 4, 62, 48
10, 113400, Note_on_c, 4, 59, 48
10, 113519, Note_on_c, 4, 62, 0
10, 113519, Note_on_c, 4, 59, 0
10, 113520, Note_on_c, 4, 57, 48
10, 113520, Note_on_c, 4, 60, 48
10, 113639, Note_on_c, 4, 57, 0
10, 113639, Note_on_c, 4, 60, 0
10, 113640, Note_on_c, 4, 62, 48
10, 113640, Note_on_c, 4, 59, 48
10, 113744, Note_on_c, 4, 62, 0
10, 113744, Note_on_c, 4, 59, 0
10, 113760, Note_on_c, 4, 60, 76
10, 113760, Note_on_c, 4, 64, 76
10, 113879, Note_on_c, 4, 60, 0
10, 113879, Note_on_c, 4, 64, 0
10, 115200, Note_on_c, 4, 53, 76
10, 115200, Note_on_c, 4, 57, 76
10, 115319, Note_on_c, 4, 53, 0
10, 115319, Note_on_c, 4, 57, 0
10, 115680, Note_on_c, 4, 60, 52
10, 115680, Note_on_c, 4, 57, 52
10, 115919, Note_on_c, 4, 60, 0
10, 115919, Note_on_c, 4, 57, 0
10, 115920, Note_on_c, 4, 55, 52
10, 115920, Note_on_c, 4, 59, 52
10, 116039, Note_on_c, 4, 55, 0
10, 116039, Note_on_c, 4, 59, 0
10, 116040, Note_on_c, 4, 57, 52
10, 116040, Note_on_c, 4, 53, 52
10, 116144, Note_on_c, 4, 57, 0
10, 116144, Note_on_c, 4, 53, 0
10, 116160, Note_on_c, 4, 55, 52
10, 116160, Note_on_c, 4, 52, 52
10, 116399, Note_on_c, 4, 55, 0
10, 116399, Note_on_c, 4, 52, 0
10, 116400, Note_on_c, 4, 53, 52
10, 116400, Note_on_c, 4, 50, 52
10, 116519, Note_on_c, 4, 53, 0
10, 116519, Note_on_c, 4, 50, 0
10, 116520, Note_on_c, 4, 52, 52
10, 116520, Note_on_c, 4, 48, 52
10, 116624, Note_on_c, 4, 52, 0
10, 116624, Note_on_c, 4, 48, 0
10, 116640, Note_on_c, 4, 47, 52
10, 116640, Note_on_c, 4, 50, 52
10, 116879, Note_on_c, 4, 47, 0
10, 116879, Note_on_c, 4, 50, 0
10, 116880, Note_on_c, 4, 48, 52
10, 116880, Note_on_c, 4, 45, 52
10, 116999, Note_on_c, 4, 48, 0
10, 116999, Note_on_c, 4, 45, 0
10, 117000, Note_on_c, 4, 50, 52
10, 117000, Note_on_c, 4, 47, 52
10, 117104, Note_on_c, 4, 50, 0
10, 117104, Note_on_c, 4, 47, 0
10, 117118, Control_c, 4, 11, 80
10, 117120, Note_on_c, 4, 52, 76
10, 117120, Note_on_c, 4, 48, 76
10, 117209, Note_on_c, 4, 52, 0
10, 117209, Note_on_c, 4, 48, 0
10, 117240, Note_on_c, 4, 52, 76
10, 117240, Control_c, 4, 11, 80
10, 117240, Note_on_c, 4, 48, 76
10, 117290, Control_c, 4, 11, 81
10, 117340, Control_c, 4, 11, 83
10, 117359, Note_on_c, 4, 52, 0
10, 117359, Note_on_c, 4, 48, 0
10, 117360, Note_on_c, 4, 53, 76
10, 117360, Note_on_c, 4, 50, 76
10, 117390, Control_c, 4, 11, 84
10, 117440, Control_c, 4, 11, 85
10, 117479, Note_on_c, 4, 53, 0
10, 117479, Note_on_c, 4, 50, 0
10, 117480, Note_on_c, 4, 55, 76
10, 117480, Note_on_c, 4, 52, 76
10, 117490, Control_c, 4, 11, 87
10, 117540, Control_c, 4, 11, 88
10, 117584, Note_on_c, 4, 55, 0
10, 117584, Note_on_c, 4, 52, 0
10, 117590, Control_c, 4, 11, 89
10, 117600, Note_on_c, 4, 57, 76
10, 117600, Note_on_c, 4, 53, 76
10, 117640, Control_c, 4, 11, 90
10, 117689, Note_on_c, 4, 57, 0
10, 117689, Note_on_c, 4, 53, 0
10, 117690, Control_c, 4, 11, 92
10, 117720, Note_on_c, 4, 57, 76
10, 117720, Note_on_c, 4, 60, 76
10, 117740, Control_c, 4, 11, 93
10, 117790, Control_c, 4, 11, 94
10, 117839, Note_on_c, 4, 57, 0
10, 117839, Note_on_c, 4, 60, 0
10, 117840, Control_c, 4, 11, 96
10, 117840, Note_on_c, 4, 55, 76
10, 117840, Note_on_c, 4, 59, 76
10, 117890, Control_c, 4, 11, 97
10, 117940, Control_c, 4, 11, 98
10, 117959, Note_on_c, 4, 55, 0
10, 117959, Note_on_c, 4, 59, 0
10, 117960, Note_on_c, 4, 53, 76
10, 117960, Note_on_c, 4, 57, 76
10, 117990, Control_c, 4, 11, 100
10, 118040, Control_c, 4, 11, 101
10, 118064, Note_on_c, 4, 53, 0
10, 118064, Note_on_c, 4, 57, 0
10, 118080, Note_on_c, 4, 52, 76
10, 118080, Note_on_c, 4, 55, 76
10, 118090, Control_c, 4, 11, 102
10, 118140, Control_c, 4, 11, 104
10, 118169, Note_on_c, 4, 52, 0
10, 118169, Note_on_c, 4, 55, 0
10, 118190, Control_c, 4, 11, 105
10, 118200, Note_on_c, 4, 55, 76
10, 118200, Note_on_c, 4, 52, 76
10, 118240, Control_c, 4, 11, 106
10, 118290, Control_c, 4, 11, 107
10, 118319, Note_on_c, 4, 55, 0
10, 118319, Note_on_c, 4, 52, 0
10, 118320, Note_on_c, 4, 50, 76
10, 118320, Note_on_c, 4, 53, 76
10, 118340, Control_c, 4, 11, 109
10, 118390, Control_c, 4, 11, 110
10, 118439, Note_on_c, 4, 50, 0
10, 118439, Note_on_c, 4, 53, 0
10, 118440, Control_c, 4, 11, 111
10, 118440, Note_on_c, 4, 48, 76
10, 118440, Note_on_c, 4, 52, 76
10, 118490, Control_c, 4, 11, 113
10, 118540, Control_c, 4, 11, 114
10, 118544, Note_on_c, 4, 48, 0
10, 118544, Note_on_c, 4, 52, 0
10, 118560, Note_on_c, 4, 50, 76
10, 118560, Note_on_c, 4, 47, 76
10, 118590, Control_c, 4, 11, 115
10, 118640, Control_c, 4, 11, 117
10, 118690, Control_c, 4, 11, 118
10, 118740, Control_c, 4, 11, 119
10, 118790, Control_c, 4, 11, 120
10, 118799, Note_on_c, 4, 50, 0
10, 118799, Note_on_c, 4, 47, 0
10, 118800, Note_on_c, 4, 48, 76
10, 118800, Note_on_c, 4, 45, 76
10, 118840, Control_c, 4, 11, 122
10, 118890, Control_c, 4, 11, 123
10, 118919, Note_on_c, 4, 48, 0
10, 118919, Note_on_c, 4, 45, 0
10, 118920, Note_on_c, 4, 50, 76
10, 118920, Note_on_c, 4, 47, 76
10, 118940, Control_c, 4, 11, 124
10, 118990, Control_c, 4, 11, 127
10, 119024, Note_on_c, 4, 50, 0
10, 119024, Note_on_c, 4, 47, 0
10, 119040, Note_on_c, 4, 52, 76
10, 119040, Note_on_c, 4, 48, 76
10, 119159, Note_on_c, 4, 52, 0
10, 119159, Note_on_c, 4, 48, 0
10, 119280, Note_on_c, 4, 52, 76
10, 119280, Note_on_c, 4, 55, 76
10, 119399, Note_on_c, 4, 52, 0
10, 119399, Note_on_c, 4, 55, 0
10, 119520, Note_on_c, 4, 57, 76
10, 119520, Note_on_c, 4, 53, 76
10, 119639, Note_on_c, 4, 57, 0
10, 119639, Note_on_c, 4, 53, 0
10, 119760, Note_on_c, 4, 53, 76
10, 119760, Note_on_c, 4, 57, 76
10, 119879, Note_on_c, 4, 53, 0
10, 119879, Note_on_c, 4, 57, 0
10, 120000, Note_on_c, 4, 55, 76
10, 120000, Note_on_c, 4, 52, 76
10, 120119, Note_on_c, 4, 55, 0
10, 120119, Note_on_c, 4, 52, 0
10, 120240, Note_on_c, 4, 52, 76
10, 120240, Note_on_c, 4, 60, 76
10, 120359, Note_on_c, 4, 52, 0
10, 120359, Note_on_c, 4, 60, 0
10, 120480, Note_on_c, 4, 59, 76
10, 120480, Note_on_c, 4, 50, 76
10, 120599, Note_on_c, 4, 59, 0
10, 120599, Note_on_c, 4, 50, 0
10, 120720, Note_on_c, 4, 59, 76
10, 120720, Note_on_c, 4, 50, 76
10, 120839, Note_on_c, 4, 59, 0
10, 120839, Note_on_c, 4, 50, 0
10, 120960, Note_on_c, 4, 48, 76
10, 120960, Note_on_c, 4, 60, 76
10, 121199, Note_on_c, 4, 48, 0
10, 121199, Note_on_c, 4, 60, 0
10, 121200, Note_on_c, 4, 43, 76
10, 121200, Note_on_c, 4, 55, 76
10, 121904, Note_on_c, 4, 43, 0
10, 121904, Note_on_c, 4, 55, 0
10, 121920, Note_on_c, 4, 64, 76
10, 121920, Note_on_c, 4, 52, 76
10, 122159, Note_on_c, 4, 64, 0
10, 122159, Note_on_c, 4, 52, 0
10, 122160, Note_on_c, 4, 48, 76
10, 122160, Note_on_c, 4, 60, 76
10, 122864, Note_on_c, 4, 48, 0
10, 122864, Note_on_c, 4, 60, 0
10, 122880, Note_on_c, 4, 48, 76
10, 122880, Note_on_c, 4, 60, 76
10, 123119, Note_on_c, 4, 48, 0
10, 123119, Note_on_c, 4, 60, 0
10, 123120, Note_on_c, 4, 43, 76
10, 123120, Note_on_c, 4, 55, 76
10, 123824, Note_on_c, 4, 43, 0
10, 123824, Note_on_c, 4, 55, 0
10, 123840, Note_on_c, 4, 52, 76
10, 123840, Note_on_c, 4, 64, 76
10, 124079, Note_on_c, 4, 52, 0
10, 124079, Note_on_c, 4, 64, 0
10, 124080, Note_on_c, 4, 60, 76
10, 124080, Note_on_c, 4, 48, 76
10, 124784, Note_on_c, 4, 60, 0
10, 124784, Note_on_c, 4, 48, 0
10, 124800, Note_on_c, 4, 60, 76
10, 124800, Note_on_c, 4, 48, 76
10, 125039, Note_on_c, 4, 60, 0
10, 125039, Note_on_c, 4, 48, 0
10, 125040, Note_on_c, 4, 43, 73
10, 125040, Note_on_c, 4, 55, 73
10, 125279, Note_on_c, 4, 43, 0
10, 125279, Note_on_c, 4, 55, 0
10, 125280, Note_on_c, 4, 48, 70
10, 125280, Note_on_c, 4, 60, 70
10, 125519, Note_on_c, 4, 48, 0
10, 125519, Note_on_c, 4, 60, 0
10, 125520, Note_on_c, 4, 43, 67
10, 125520, Note_on_c, 4, 55, 67
10, 125759, Note_on_c, 4, 43, 0
10, 125759, Note_on_c, 4, 55, 0
10, 125760, Note_on_c, 4, 48, 64
10, 125760, Note_on_c, 4, 60, 64
10, 125999, Note_on_c, 4, 48, 0
10, 125999, Note_on_c, 4, 60, 0
10, 126000, Note_on_c, 4, 43, 61
10, 126000, Note_on_c, 4, 55, 61
10, 126239, Note_on_c, 4, 43, 0
10, 126239, Note_on_c, 4, 55, 0
10, 126240, Note_on_c, 4, 48, 58
10, 126240, Note_on_c, 4, 60, 58
10, 126479, Note_on_c, 4, 48, 0
10, 126479, Note_on_c, 4, 60, 0
10, 126480, Note_on_c, 4, 43, 55
10, 126480, Note_on_c, 4, 55, 55
10, 126719, Note_on_c, 4, 43, 0
10, 126719, Note_on_c, 4, 55, 0
10, 126720, Note_on_c, 4, 48, 52
10, 126720, Note_on_c, 4, 60, 52
10, 126809, Note_on_c, 4, 48, 0
10, 126809, Note_on_c, 4, 60, 0
10, 132480, Note_on_c, 4, 55, 52
10, 132480, Note_on_c, 4, 46, 52
10, 133424, Note_on_c, 4, 55, 0
10, 133424, Note_on_c, 4, 46, 0
10, 133440, Note_on_c, 4, 46, 52
10, 133440, Note_on_c, 4, 55, 52
10, 134399, Note_on_c, 4, 46, 0
10, 134399, Note_on_c, 4, 55, 0
10, 136320, Note_on_c, 4, 60, 52
10, 136320, Note_on_c, 4, 63, 52
10, 137264, Note_on_c, 4, 60, 0
10, 137264, Note_on_c, 4, 63, 0
10, 137280, Note_on_c, 4, 60, 52
10, 137280, Note_on_c, 4, 63, 52
10, 138224, Note_on_c, 4, 60, 0
10, 138224, Note_on_c, 4, 63, 0
10, 138238, Control_c, 4, 11, 64
10, 138240, Note_on_c, 4, 58, 84
10, 138240, Note_on_c, 4, 50, 84
10, 138480, Control_c, 4, 11, 65
10, 138720, Control_c, 4, 11, 66
10, 138960, Control_c, 4, 11, 67
10, 139200, Control_c, 4, 11, 68
10, 139440, Control_c, 4, 11, 69
10, 139680, Control_c, 4, 11, 70
10, 139920, Control_c, 4, 11, 71
10, 140159, Note_on_c, 4, 58, 0
10, 140159, Note_on_c, 4, 50, 0
10, 140160, Control_c, 4, 11, 72
10, 140160, Note_on_c, 4, 58, 84
10, 140160, Note_on_c, 4, 50, 84
10, 140400, Control_c, 4, 11, 73
10, 140640, Control_c, 4, 11, 74
10, 140880, Control_c, 4, 11, 75
10, 141120, Control_c, 4, 11, 76
10, 141360, Control_c, 4, 11, 77
10, 141600, Control_c, 4, 11, 78
10, 141840, Control_c, 4, 11, 79
10, 142064, Note_on_c, 4, 58, 0
10, 142064, Note_on_c, 4, 50, 0
10, 142080, Note_on_c, 4, 58, 84
10, 142080, Note_on_c, 4, 50, 84
10, 142080, Control_c, 4, 11, 80
10, 142320, Control_c, 4, 11, 81
10, 142560, Control_c, 4, 11, 82
10, 142800, Control_c, 4, 11, 83
10, 143040, Control_c, 4, 11, 84
10, 143280, Control_c, 4, 11, 85
10, 143520, Control_c, 4, 11, 86
10, 143760, Control_c, 4, 11, 87
10, 143984, Note_on_c, 4, 58, 0
10, 143984, Note_on_c, 4, 50, 0
10, 144000, Note_on_c, 4, 57, 84
10, 144000, Control_c, 4, 11, 88
10, 144000, Note_on_c, 4, 50, 84
10, 144240, Control_c, 4, 11, 89
10, 144480, Control_c, 4, 11, 90
10, 144720, Control_c, 4, 11, 91
10, 144960, Control_c, 4, 11, 92
10, 145200, Control_c, 4, 11, 93
10, 145440, Control_c, 4, 11, 94
10, 145680, Control_c, 4, 11, 95
10, 145919, Note_on_c, 4, 57, 0
10, 145919, Note_on_c, 4, 50, 0
10, 145920, Note_on_c, 4, 57, 84
10, 145920, Note_on_c, 4, 50, 84
10, 145920, Control_c, 4, 11, 96
10, 146044, Control_c, 4, 11, 97
10, 146168, Control_c, 4, 11, 98
10, 146292, Control_c, 4, 11, 99
10, 146415, Control_c, 4, 11, 100
10, 146539, Control_c, 4, 11, 101
10, 146663, Control_c, 4, 11, 102
10, 146787, Control_c, 4, 11, 103
10, 146911, Control_c, 4, 11, 104
10, 147035, Control_c, 4, 11, 105
10, 147159, Control_c, 4, 11, 106
10, 147283, Control_c, 4, 11, 107
10, 147406, Control_c, 4, 11, 108
10, 147530, Control_c, 4, 11, 109
10, 147654, Control_c, 4, 11, 110
10, 147778, Control_c, 4, 11, 111
10, 147824, Note_on_c, 4, 57, 0
10, 147824, Note_on_c, 4, 50, 0
10, 147840, Note_on_c, 4, 57, 84
10, 147840, Note_on_c, 4, 50, 84
10, 147902, Control_c, 4, 11, 112
10, 148026, Control_c, 4, 11, 113
10, 148150, Control_c, 4, 11, 114
10, 148274, Control_c, 4, 11, 115
10, 148397, Control_c, 4, 11, 116
10, 148521, Control_c, 4, 11, 117
10, 148645, Control_c, 4, 11, 118
10, 148769, Control_c, 4, 11, 119
10, 148893, Control_c, 4, 11, 120
10, 149017, Control_c, 4, 11, 121
10, 149141, Control_c, 4, 11, 122
10, 149265, Control_c, 4, 11, 123
10, 149388, Control_c, 4, 11, 124
10, 149512, Control_c, 4, 11, 125
10, 149636, Control_c, 4, 11, 127
10, 149744, Note_on_c, 4, 57, 0
10, 149744, Note_on_c, 4, 50, 0
10, 149760, Note_on_c, 4, 57, 84
10, 149760, Note_on_c, 4, 54, 84
10, 150104, Note_on_c, 4, 57, 0
10, 150104, Note_on_c, 4, 54, 0
10, 150120, Note_on_c, 4, 54, 84
10, 150120, Note_on_c, 4, 57, 84
10, 150224, Note_on_c, 4, 54, 0
10, 150224, Note_on_c, 4, 57, 0
10, 150240, Note_on_c, 4, 54, 84
10, 150240, Note_on_c, 4, 57, 84
10, 150584, Note_on_c, 4, 54, 0
10, 150584, Note_on_c, 4, 57, 0
10, 150600, Note_on_c, 4, 57, 84
10, 150600, Note_on_c, 4, 54, 84
10, 150704, Note_on_c, 4, 57, 0
10, 150704, Note_on_c, 4, 54, 0
10, 150720, Note_on_c, 4, 54, 84
10, 150720, Note_on_c, 4, 57, 84
10, 151064, Note_on_c, 4, 54, 0
10, 151064, Note_on_c, 4, 57, 0
10, 151080, Note_on_c, 4, 54, 84
10, 151080, Note_on_c, 4, 57, 84
10, 151184, Note_on_c, 4, 54, 0
10, 151184, Note_on_c, 4, 57, 0
10, 151200, Note_on_c, 4, 57, 84
10, 151200, Note_on_c, 4, 54, 84
10, 151544, Note_on_c, 4, 57, 0
10, 151544, Note_on_c, 4, 54, 0
10, 151560, Note_on_c, 4, 54, 84
10, 151560, Note_on_c, 4, 57, 84
10, 151664, Note_on_c, 4, 54, 0
10, 151664, Note_on_c, 4, 57, 0
10, 151680, Note_on_c, 4, 57, 84
10, 151680, Note_on_c, 4, 54, 84
10, 151799, Note_on_c, 4, 57, 0
10, 151799, Note_on_c, 4, 54, 0
10, 152640, Note_on_c, 4, 54, 84
10, 152640, Note_on_c, 4, 57, 84
10, 152759, Note_on_c, 4, 54, 0
10, 152759, Note_on_c, 4, 57, 0
10, 155520, Note_on_c, 4, 62, 52
10, 155609, Note_on_c, 4, 62, 0
10, 155640, Note_on_c, 4, 57, 52
10, 155729, Note_on_c, 4, 57, 0
10, 156000, Note_on_c, 4, 62, 52
10, 156089, Note_on_c, 4, 62, 0
10, 156120, Note_on_c, 4, 57, 52
10, 156209, Note_on_c, 4, 57, 0
10, 156480, Note_on_c, 4, 62, 52
10, 156569, Note_on_c, 4, 62, 0
10, 156600, Note_on_c, 4, 57, 52
10, 156689, Note_on_c, 4, 57, 0
10, 156720, Note_on_c, 4, 62, 52
10, 156809, Note_on_c, 4, 62, 0
10, 156840, Note_on_c, 4, 57, 52
10, 156929, Note_on_c, 4, 57, 0
10, 156960, Note_on_c, 4, 62, 52
10, 157049, Note_on_c, 4, 62, 0
10, 157080, Note_on_c, 4, 57, 52
10, 157169, Note_on_c, 4, 57, 0
10, 157200, Note_on_c, 4, 62, 52
10, 157289, Note_on_c, 4, 62, 0
10, 157320, Note_on_c, 4, 57, 52
10, 157409, Note_on_c, 4, 57, 0
10, 157560, Note_on_c, 4, 59, 52
10, 157649, Note_on_c, 4, 59, 0
10, 157680, Note_on_c, 4, 60, 52
10, 157769, Note_on_c, 4, 60, 0
10, 157800, Note_on_c, 4, 64, 52
10, 157889, Note_on_c, 4, 64, 0
10, 157920, Note_on_c, 4, 62, 52
10, 158039, Note_on_c, 4, 62, 0
10, 158040, Note_on_c, 4, 60, 52
10, 158099, Note_on_c, 4, 60, 0
10, 158100, Note_on_c, 4, 59, 52
10, 158151, Note_on_c, 4, 59, 0
10, 158160, Note_on_c, 4, 57, 52
10, 158249, Note_on_c, 4, 57, 0
10, 158280, Note_on_c, 4, 50, 52
10, 158369, Note_on_c, 4, 50, 0
10, 158400, Note_on_c, 4, 55, 52
10, 158864, Note_on_c, 4, 55, 0
10, 158880, Note_on_c, 4, 50, 52
10, 160304, Note_on_c, 4, 50, 0
10, 160318, Control_c, 4, 11, 64
10, 160320, Control_c, 4, 11, 64
10, 160320, Note_on_c, 4, 47, 84
10, 160320, Note_on_c, 4, 55, 84
10, 160500, Control_c, 4, 11, 65
10, 160680, Control_c, 4, 11, 66
10, 160860, Control_c, 4, 11, 67
10, 161040, Control_c, 4, 11, 68
10, 161220, Control_c, 4, 11, 69
10, 161400, Control_c, 4, 11, 70
10, 161580, Control_c, 4, 11, 71
10, 161760, Control_c, 4, 11, 72
10, 161940, Control_c, 4, 11, 73
10, 162120, Control_c, 4, 11, 74
10, 162239, Note_on_c, 4, 47, 0
10, 162239, Note_on_c, 4, 55, 0
10, 162240, Note_on_c, 4, 47, 84
10, 162240, Note_on_c, 4, 55, 84
10, 162300, Control_c, 4, 11, 75
10, 162480, Control_c, 4, 11, 76
10, 162660, Control_c, 4, 11, 77
10, 162840, Control_c, 4, 11, 78
10, 163020, Control_c, 4, 11, 79
10, 163200, Control_c, 4, 11, 80
10, 163380, Control_c, 4, 11, 81
10, 163560, Control_c, 4, 11, 82
10, 163740, Control_c, 4, 11, 83
10, 163920, Control_c, 4, 11, 84
10, 164100, Control_c, 4, 11, 85
10, 164159, Note_on_c, 4, 47, 0
10, 164159, Note_on_c, 4, 55, 0
10, 164160, Note_on_c, 4, 47, 84
10, 164160, Note_on_c, 4, 55, 84
10, 164280, Control_c, 4, 11, 86
10, 164460, Control_c, 4, 11, 87
10, 164640, Control_c, 4, 11, 88
10, 164820, Control_c, 4, 11, 89
10, 165000, Control_c, 4, 11, 90
10, 165180, Control_c, 4, 11, 91
10, 165360, Control_c, 4, 11, 92
10, 165540, Control_c, 4, 11, 93
10, 165720, Control_c, 4, 11, 94
10, 165900, Control_c, 4, 11, 95
10, 166064, Note_on_c, 4, 47, 0
10, 166064, Note_on_c, 4, 55, 0
10, 166080, Control_c, 4, 11, 96
10, 166080, Note_on_c, 4, 47, 84
10, 166080, Note_on_c, 4, 56, 84
10, 166266, Control_c, 4, 11, 97
10, 166452, Control_c, 4, 11, 98
10, 166637, Control_c, 4, 11, 99
10, 166823, Control_c, 4, 11, 100
10, 167009, Control_c, 4, 11, 101
10, 167195, Control_c, 4, 11, 102
10, 167381, Control_c, 4, 11, 103
10, 167566, Control_c, 4, 11, 104
10, 167752, Control_c, 4, 11, 105
10, 167938, Control_c, 4, 11, 106
10, 167984, Note_on_c, 4, 47, 0
10, 167984, Note_on_c, 4, 56, 0
10, 168000, Note_on_c, 4, 56, 84
10, 168000, Note_on_c, 4, 47, 84
10, 168124, Control_c, 4, 11, 107
10, 168310, Control_c, 4, 11, 108
10, 168495, Control_c, 4, 11, 109
10, 168681, Control_c, 4, 11, 110
10, 168867, Control_c, 4, 11, 111
10, 169053, Control_c, 4, 11, 112
10, 169239, Control_c, 4, 11, 113
10, 169425, Control_c, 4, 11, 114
10, 169610, Control_c, 4, 11, 115
10, 169796, Control_c, 4, 11, 116
10, 169919, Note_on_c, 4, 56, 0
10, 169919, Note_on_c, 4, 47, 0
10, 169920, Note_on_c, 4, 47, 84
10, 169920, Note_on_c, 4, 56, 84
10, 169982, Control_c, 4, 11, 117
10, 170168, Control_c, 4, 11, 118
10, 170354, Control_c, 4, 11, 119
10, 170539, Control_c, 4, 11, 120
10, 170725, Control_c, 4, 11, 121
10, 170911, Control_c, 4, 11, 122
10, 171097, Control_c, 4, 11, 123
10, 171283, Control_c, 4, 11, 124
10, 171468, Control_c, 4, 11, 125
10, 171654, Control_c, 4, 11, 127
10, 171824, Note_on_c, 4, 47, 0
10, 171824, Note_on_c, 4, 56, 0
10, 171840, Note_on_c, 4, 59, 84
10, 171840, Note_on_c, 4, 56, 84
10, 172184, Note_on_c, 4, 59, 0
10, 172184, Note_on_c, 4, 56, 0
10, 172200, Note_on_c, 4, 59, 84
10, 172200, Note_on_c, 4, 56, 84
10, 172304, Note_on_c, 4, 59, 0
10, 172304, Note_on_c, 4, 56, 0
10, 172320, Note_on_c, 4, 56, 84
10, 172320, Note_on_c, 4, 59, 84
10, 172664, Note_on_c, 4, 56, 0
10, 172664, Note_on_c, 4, 59, 0
10, 172680, Note_on_c, 4, 56, 84
10, 172680, Note_on_c, 4, 59, 84
10, 172784, Note_on_c, 4, 56, 0
10, 172784, Note_on_c, 4, 59, 0
10, 172800, Note_on_c, 4, 56, 84
10, 172800, Note_on_c, 4, 59, 84
10, 173144, Note_on_c, 4, 56, 0
10, 173144, Note_on_c, 4, 59, 0
10, 173160, Note_on_c, 4, 56, 84
10, 173160, Note_on_c, 4, 59, 84
10, 173264, Note_on_c, 4, 56, 0
10, 173264, Note_on_c, 4, 59, 0
10, 173280, Note_on_c, 4, 56, 84
10, 173280, Note_on_c, 4, 59, 84
10, 173624, Note_on_c, 4, 56, 0
10, 173624, Note_on_c, 4, 59, 0
10, 173640, Note_on_c, 4, 59, 84
10, 173640, Note_on_c, 4, 56, 84
10, 173744, Note_on_c, 4, 59, 0
10, 173744, Note_on_c, 4, 56, 0
10, 173760, Note_on_c, 4, 59, 84
10, 173760, Note_on_c, 4, 56, 84
10, 173879, Note_on_c, 4, 59, 0
10, 173879, Note_on_c, 4, 56, 0
10, 174720, Note_on_c, 4, 56, 84
10, 174720, Note_on_c, 4, 59, 84
10, 174839, Note_on_c, 4, 56, 0
10, 174839, Note_on_c, 4, 59, 0
10, 177600, Note_on_c, 4, 64, 52
10, 177689, Note_on_c, 4, 64, 0
10, 177720, Note_on_c, 4, 59, 52
10, 177809, Note_on_c, 4, 59, 0
10, 178080, Note_on_c, 4, 64, 52
10, 178169, Note_on_c, 4, 64, 0
10, 178200, Note_on_c, 4, 59, 52
10, 178289, Note_on_c, 4, 59, 0
10, 178560, Note_on_c, 4, 64, 52
10, 178649, Note_on_c, 4, 64, 0
10, 178680, Note_on_c, 4, 59, 52
10, 178769, Note_on_c, 4, 59, 0
10, 178800, Note_on_c, 4, 64, 52
10, 178889, Note_on_c, 4, 64, 0
10, 178920, Note_on_c, 4, 59, 52
10, 179009, Note_on_c, 4, 59, 0
10, 179040, Note_on_c, 4, 64, 52
10, 179129, Note_on_c, 4, 64, 0
10, 179160, Note_on_c, 4, 59, 52
10, 179249, Note_on_c, 4, 59, 0
10, 179280, Note_on_c, 4, 64, 52
10, 179369, Note_on_c, 4, 64, 0
10, 179400, Note_on_c, 4, 59, 52
10, 179489, Note_on_c, 4, 59, 0
10, 179640, Note_on_c, 4, 61, 52
10, 179729, Note_on_c, 4, 61, 0
10, 179760, Note_on_c, 4, 62, 52
10, 179849, Note_on_c, 4, 62, 0
10, 179880, Note_on_c, 4, 66, 52
10, 179969, Note_on_c, 4, 66, 0
10, 180000, Note_on_c, 4, 64, 52
10, 180119, Note_on_c, 4, 64, 0
10, 180120, Note_on_c, 4, 62, 52
10, 180179, Note_on_c, 4, 62, 0
10, 180180, Note_on_c, 4, 61, 52
10, 180231, Note_on_c, 4, 61, 0
10, 180240, Note_on_c, 4, 59, 52
10, 180329, Note_on_c, 4, 59, 0
10, 180360, Note_on_c, 4, 52, 52
10, 180449, Note_on_c, 4, 52, 0
10, 180480, Note_on_c, 4, 57, 52
10, 180944, Note_on_c, 4, 57, 0
10, 180960, Note_on_c, 4, 52, 52
10, 182384, Note_on_c, 4, 52, 0
10, 182400, Note_on_c, 4, 61, 48
10, 182400, Note_on_c, 4, 57, 48
10, 182639, Note_on_c, 4, 61, 0
10, 182639, Note_on_c, 4, 57, 0
10, 182640, Note_on_c, 4, 61, 48
10, 182640, Note_on_c, 4, 64, 48
10, 182879, Note_on_c, 4, 61, 0
10, 182879, Note_on_c, 4, 64, 0
10, 182880, Note_on_c, 4, 62, 48
10, 182880, Note_on_c, 4, 59, 48
10, 183239, Note_on_c, 4, 62, 0
10, 183239, Note_on_c, 4, 59, 0
10, 183240, Note_on_c, 4, 57, 48
10, 183240, Note_on_c, 4, 61, 48
10, 183344, Note_on_c, 4, 57, 0
10, 183344, Note_on_c, 4, 61, 0
10, 183360, Note_on_c, 4, 66, 48
10, 183360, Note_on_c, 4, 62, 48
10, 183599, Note_on_c, 4, 66, 0
10, 183599, Note_on_c, 4, 62, 0
10, 183600, Note_on_c, 4, 64, 48
10, 183600, Note_on_c, 4, 61, 48
10, 183824, Note_on_c, 4, 64, 0
10, 183824, Note_on_c, 4, 61, 0
10, 183840, Note_on_c, 4, 59, 48
10, 183840, Note_on_c, 4, 52, 48
10, 184304, Note_on_c, 4, 59, 0
10, 184304, Note_on_c, 4, 52, 0
10, 184320, Note_on_c, 4, 61, 48
10, 184320, Note_on_c, 4, 57, 48
10, 184439, Note_on_c, 4, 61, 0
10, 184439, Note_on_c, 4, 57, 0
10, 188160, Note_on_c, 4, 50, 52
10, 188279, Note_on_c, 4, 50, 0
10, 190080, Note_on_c, 4, 57, 68
10, 190080, Note_on_c, 4, 60, 68
10, 190140, Control_c, 4, 11, 96
10, 190319, Note_on_c, 4, 57, 0
10, 190319, Note_on_c, 4, 60, 0
10, 190320, Note_on_c, 4, 57, 68
10, 190320, Note_on_c, 4, 54, 68
10, 190559, Note_on_c, 4, 57, 0
10, 190559, Note_on_c, 4, 54, 0
10, 190560, Note_on_c, 4, 55, 68
10, 190560, Note_on_c, 4, 58, 68
10, 190919, Note_on_c, 4, 55, 0
10, 190919, Note_on_c, 4, 58, 0
10, 190920, Note_on_c, 4, 60, 68
10, 190920, Note_on_c, 4, 57, 68
10, 191024, Note_on_c, 4, 60, 0
10, 191024, Note_on_c, 4, 57, 0
10, 191038, Control_c, 4, 11, 127
10, 191040, Note_on_c, 4, 59, 68
10, 191040, Note_on_c, 4, 50, 68
10, 191100, Control_c, 4, 11, 96
10, 191279, Note_on_c, 4, 59, 0
10, 191279, Note_on_c, 4, 50, 0
10, 191280, Note_on_c, 4, 60, 68
10, 191280, Note_on_c, 4, 52, 68
10, 191519, Note_on_c, 4, 60, 0
10, 191519, Note_on_c, 4, 52, 0
10, 191520, Note_on_c, 4, 53, 68
10, 191520, Note_on_c, 4, 62, 68
10, 191609, Note_on_c, 4, 53, 0
10, 191609, Note_on_c, 4, 62, 0
10, 191640, Note_on_c, 4, 62, 68
10, 191640, Note_on_c, 4, 53, 68
10, 191699, Note_on_c, 4, 62, 0
10, 191699, Note_on_c, 4, 53, 0
10, 191700, Note_on_c, 4, 52, 68
10, 191700, Note_on_c, 4, 60, 68
10, 191759, Note_on_c, 4, 52, 0
10, 191759, Note_on_c, 4, 60, 0
10, 191760, Note_on_c, 4, 50, 68
10, 191760, Note_on_c, 4, 59, 68
10, 191879, Note_on_c, 4, 50, 0
10, 191879, Note_on_c, 4, 59, 0
10, 191880, Note_on_c, 4, 62, 68
10, 191880, Note_on_c, 4, 53, 68
10, 191984, Note_on_c, 4, 62, 0
10, 191984, Note_on_c, 4, 53, 0
10, 191998, Control_c, 4, 11, 127
10, 192000, Note_on_c, 4, 48, 84
10, 192239, Note_on_c, 4, 48, 0
10, 192240, Note_on_c, 4, 52, 84
10, 192479, Note_on_c, 4, 52, 0
10, 192480, Note_on_c, 4, 50, 84
10, 192839, Note_on_c, 4, 50, 0
10, 192840, Note_on_c, 4, 48, 84
10, 192944, Note_on_c, 4, 48, 0
10, 192960, Note_on_c, 4, 53, 92
10, 193199, Note_on_c, 4, 53, 0
10, 193200, Note_on_c, 4, 52, 84
10, 193424, Note_on_c, 4, 52, 0
10, 193440, Note_on_c, 4, 50, 84
10, 193529, Note_on_c, 4, 50, 0
10, 193560, Note_on_c, 4, 50, 84
10, 193619, Note_on_c, 4, 50, 0
10, 193620, Note_on_c, 4, 52, 84
10, 193671, Note_on_c, 4, 52, 0
10, 193680, Note_on_c, 4, 53, 84
10, 193769, Note_on_c, 4, 53, 0
10, 193800, Note_on_c, 4, 50, 84
10, 193889, Note_on_c, 4, 50, 0
10, 193920, Note_on_c, 4, 52, 92
10, 194159, Note_on_c, 4, 52, 0
10, 194160, Note_on_c, 4, 55, 84
10, 194399, Note_on_c, 4, 55, 0
10, 194400, Note_on_c, 4, 53, 84
10, 194759, Note_on_c, 4, 53, 0
10, 194760, Note_on_c, 4, 52, 84
10, 194864, Note_on_c, 4, 52, 0
10, 194880, Note_on_c, 4, 57, 92
10, 195119, Note_on_c, 4, 57, 0
10, 195120, Note_on_c, 4, 55, 84
10, 195344, Note_on_c, 4, 55, 0
10, 195360, Note_on_c, 4, 53, 84
10, 195449, Note_on_c, 4, 53, 0
10, 195480, Note_on_c, 4, 53, 84
10, 195539, Note_on_c, 4, 53, 0
10, 195540, Note_on_c, 4, 55, 84
10, 195599, Note_on_c, 4, 55, 0
10, 195600, Note_on_c, 4, 57, 84
10, 195689, Note_on_c, 4, 57, 0
10, 195720, Note_on_c, 4, 53, 84
10, 195809, Note_on_c, 4, 53, 0
10, 195840, Note_on_c, 4, 58, 92
10, 196079, Note_on_c, 4, 58, 0
10, 196080, Note_on_c, 4, 57, 84
10, 196304, Note_on_c, 4, 57, 0
10, 196320, Note_on_c, 4, 55, 84
10, 196409, Note_on_c, 4, 55, 0
10, 196440, Note_on_c, 4, 52, 84
10, 196499, Note_on_c, 4, 52, 0
10, 196500, Note_on_c, 4, 53, 84
10, 196559, Note_on_c, 4, 53, 0
10, 196560, Note_on_c, 4, 55, 84
10, 196649, Note_on_c, 4, 55, 0
10, 196680, Note_on_c, 4, 57, 84
10, 196769, Note_on_c, 4, 57, 0
10, 196800, Note_on_c, 4, 58, 92
10, 197039, Note_on_c, 4, 58, 0
10, 197040, Note_on_c, 4, 57, 84
10, 197264, Note_on_c, 4, 57, 0
10, 197280, Note_on_c, 4, 55, 84
10, 197369, Note_on_c, 4, 55, 0
10, 197400, Note_on_c, 4, 52, 84
10, 197459, Note_on_c, 4, 52, 0
10, 197460, Note_on_c, 4, 53, 84
10, 197519, Note_on_c, 4, 53, 0
10, 197520, Note_on_c, 4, 55, 84
10, 197609, Note_on_c, 4, 55, 0
10, 197640, Note_on_c, 4, 57, 84
10, 197729, Note_on_c, 4, 57, 0
10, 197760, Note_on_c, 4, 46, 84
10, 197879, Note_on_c, 4, 46, 0
10, 205440, Control_c, 4, 11, 96
10, 205560, Note_on_c, 4, 57, 68
10, 205679, Note_on_c, 4, 57, 0
10, 205680, Note_on_c, 4, 58, 68
10, 205799, Note_on_c, 4, 58, 0
10, 205800, Note_on_c, 4, 62, 68
10, 205919, Note_on_c, 4, 62, 0
10, 205920, Note_on_c, 4, 60, 68
10, 206039, Note_on_c, 4, 60, 0
10, 206040, Note_on_c, 4, 55, 68
10, 206099, Note_on_c, 4, 55, 0
10, 206100, Note_on_c, 4, 57, 68
10, 206159, Note_on_c, 4, 57, 0
10, 206160, Note_on_c, 4, 58, 68
10, 206279, Note_on_c, 4, 58, 0
10, 206280, Note_on_c, 4, 55, 68
10, 206384, Note_on_c, 4, 55, 0
10, 206400, Note_on_c, 4, 57, 68
10, 206400, Note_on_c, 4, 53, 68
10, 206400, Control_c, 4, 11, 96
10, 206440, Control_c, 4, 11, 97
10, 206480, Control_c, 4, 11, 99
10, 206520, Control_c, 4, 11, 100
10, 206560, Control_c, 4, 11, 101
10, 206600, Control_c, 4, 11, 102
10, 206639, Note_on_c, 4, 57, 0
10, 206639, Note_on_c, 4, 53, 0
10, 206640, Note_on_c, 4, 60, 68
10, 206640, Control_c, 4, 11, 104
10, 206640, Note_on_c, 4, 57, 68
10, 206680, Control_c, 4, 11, 105
10, 206720, Control_c, 4, 11, 106
10, 206760, Control_c, 4, 11, 108
10, 206800, Control_c, 4, 11, 109
10, 206840, Control_c, 4, 11, 110
10, 206879, Note_on_c, 4, 60, 0
10, 206879, Note_on_c, 4, 57, 0
10, 206880, Control_c, 4, 11, 112
10, 206880, Note_on_c, 4, 58, 68
10, 206880, Note_on_c, 4, 55, 68
10, 206920, Control_c, 4, 11, 113
10, 206960, Control_c, 4, 11, 114
10, 207000, Control_c, 4, 11, 115
10, 207040, Control_c, 4, 11, 117
10, 207080, Control_c, 4, 11, 118
10, 207120, Control_c, 4, 11, 119
10, 207160, Control_c, 4, 11, 121
10, 207200, Control_c, 4, 11, 122
10, 207239, Note_on_c, 4, 58, 0
10, 207239, Note_on_c, 4, 55, 0
10, 207240, Note_on_c, 4, 57, 68
10, 207240, Control_c, 4, 11, 123
10, 207240, Note_on_c, 4, 53, 68
10, 207280, Control_c, 4, 11, 124
10, 207320, Control_c, 4, 11, 126
10, 207344, Note_on_c, 4, 57, 0
10, 207344, Note_on_c, 4, 53, 0
10, 207360, Control_c, 4, 11, 127
10, 207360, Note_on_c, 4, 58, 68
10, 207360, Note_on_c, 4, 62, 68
10, 207400, Control_c, 4, 11, 126
10, 207440, Control_c, 4, 11, 124
10, 207480, Control_c, 4, 11, 123
10, 207520, Control_c, 4, 11, 122
10, 207560, Control_c, 4, 11, 121
10, 207599, Note_on_c, 4, 58, 0
10, 207599, Note_on_c, 4, 62, 0
10, 207600, Note_on_c, 4, 60, 68
10, 207600, Note_on_c, 4, 57, 68
10, 207600, Control_c, 4, 11, 119
10, 207640, Control_c, 4, 11, 118
10, 207680, Control_c, 4, 11, 117
10, 207720, Control_c, 4, 11, 115
10, 207760, Control_c, 4, 11, 114
10, 207800, Control_c, 4, 11, 113
10, 207824, Note_on_c, 4, 60, 0
10, 207824, Note_on_c, 4, 57, 0
10, 207840, Control_c, 4, 11, 112
10, 207840, Note_on_c, 4, 55, 68
10, 207840, Note_on_c, 4, 48, 68
10, 207880, Control_c, 4, 11, 110
10, 207920, Control_c, 4, 11, 109
10, 207960, Control_c, 4, 11, 108
10, 208000, Control_c, 4, 11, 106
10, 208040, Control_c, 4, 11, 105
10, 208080, Control_c, 4, 11, 104
10, 208120, Control_c, 4, 11, 102
10, 208160, Control_c, 4, 11, 101
10, 208200, Control_c, 4, 11, 100
10, 208240, Control_c, 4, 11, 99
10, 208280, Control_c, 4, 11, 96
10, 208304, Note_on_c, 4, 55, 0
10, 208304, Note_on_c, 4, 48, 0
10, 208320, Note_on_c, 4, 57, 68
10, 208320, Note_on_c, 4, 53, 68
10, 208439, Note_on_c, 4, 57, 0
10, 208439, Note_on_c, 4, 53, 0
10, 214560, Control_c, 4, 11, 127
10, 214680, Note_on_c, 4, 58, 70
10, 214739, Note_on_c, 4, 58, 0
10, 214740, Note_on_c, 4, 60, 71
10, 214791, Note_on_c, 4, 60, 0
10, 214800, Note_on_c, 4, 62, 72
10, 214889, Note_on_c, 4, 62, 0
10, 214920, Note_on_c, 4, 64, 74
10, 215009, Note_on_c, 4, 64, 0
10, 215040, Note_on_c, 4, 65, 76
10, 215159, Note_on_c, 4, 65, 0
10, 215520, Note_on_c, 4, 53, 84
10, 215520, Note_on_c, 4, 57, 84
10, 215624, Note_on_c, 4, 53, 0
10, 215624, Note_on_c, 4, 57, 0
10, 215640, Note_on_c, 4, 53, 84
10, 215640, Note_on_c, 4, 60, 84
10, 215744, Note_on_c, 4, 53, 0
10, 215744, Note_on_c, 4, 60, 0
10, 215760, Note_on_c, 4, 53, 84
10, 215760, Note_on_c, 4, 60, 84
10, 215864, Note_on_c, 4, 53, 0
10, 215864, Note_on_c, 4, 60, 0
10, 215880, Note_on_c, 4, 53, 84
10, 215880, Note_on_c, 4, 60, 84
10, 215984, Note_on_c, 4, 53, 0
10, 215984, Note_on_c, 4, 60, 0
10, 216000, Note_on_c, 4, 60, 84
10, 216000, Note_on_c, 4, 53, 84
10, 216104, Note_on_c, 4, 60, 0
10, 216104, Note_on_c, 4, 53, 0
10, 216120, Note_on_c, 4, 60, 84
10, 216120, Note_on_c, 4, 53, 84
10, 216224, Note_on_c, 4, 60, 0
10, 216224, Note_on_c, 4, 53, 0
10, 216240, Note_on_c, 4, 60, 84
10, 216240, Note_on_c, 4, 53, 84
10, 216344, Note_on_c, 4, 60, 0
10, 216344, Note_on_c, 4, 53, 0
10, 216360, Note_on_c, 4, 53, 84
10, 216360, Note_on_c, 4, 60, 84
10, 216464, Note_on_c, 4, 53, 0
10, 216464, Note_on_c, 4, 60, 0
10, 216480, Note_on_c, 4, 60, 84
10, 216480, Note_on_c, 4, 53, 84
10, 216584, Note_on_c, 4, 60, 0
10, 216584, Note_on_c, 4, 53, 0
10, 216600, Note_on_c, 4, 60, 84
10, 216600, Note_on_c, 4, 53, 84
10, 216704, Note_on_c, 4, 60, 0
10, 216704, Note_on_c, 4, 53, 0
10, 216720, Note_on_c, 4, 60, 84
10, 216720, Note_on_c, 4, 53, 84
10, 216824, Note_on_c, 4, 60, 0
10, 216824, Note_on_c, 4, 53, 0
10, 216840, Note_on_c, 4, 60, 84
10, 216840, Note_on_c, 4, 53, 84
10, 216944, Note_on_c, 4, 60, 0
10, 216944, Note_on_c, 4, 53, 0
10, 216960, Note_on_c, 4, 60, 84
10, 216960, Note_on_c, 4, 53, 84
10, 217064, Note_on_c, 4, 60, 0
10, 217064, Note_on_c, 4, 53, 0
10, 217080, Note_on_c, 4, 60, 84
10, 217080, Note_on_c, 4, 53, 84
10, 217184, Note_on_c, 4, 60, 0
10, 217184, Note_on_c, 4, 53, 0
10, 217200, Note_on_c, 4, 60, 84
10, 217200, Note_on_c, 4, 53, 84
10, 217304, Note_on_c, 4, 60, 0
10, 217304, Note_on_c, 4, 53, 0
10, 217320, Note_on_c, 4, 60, 84
10, 217320, Note_on_c, 4, 53, 84
10, 217424, Note_on_c, 4, 60, 0
10, 217424, Note_on_c, 4, 53, 0
10, 217440, Note_on_c, 4, 60, 84
10, 217440, Note_on_c, 4, 53, 84
10, 217559, Note_on_c, 4, 60, 0
10, 217559, Note_on_c, 4, 53, 0
10, 217560, Note_on_c, 4, 60, 84
10, 217560, Note_on_c, 4, 57, 84
10, 217664, Note_on_c, 4, 60, 0
10, 217664, Note_on_c, 4, 57, 0
10, 217680, Note_on_c, 4, 57, 84
10, 217680, Note_on_c, 4, 60, 84
10, 217769, Note_on_c, 4, 57, 0
10, 217769, Note_on_c, 4, 60, 0
10, 217800, Note_on_c, 4, 60, 84
10, 217800, Note_on_c, 4, 57, 84
10, 217889, Note_on_c, 4, 60, 0
10, 217889, Note_on_c, 4, 57, 0
10, 217920, Note_on_c, 4, 60, 84
10, 217920, Note_on_c, 4, 57, 84
10, 218144, Note_on_c, 4, 60, 0
10, 218144, Note_on_c, 4, 57, 0
10, 218160, Note_on_c, 4, 53, 84
10, 218160, Note_on_c, 4, 57, 84
10, 218264, Note_on_c, 4, 53, 0
10, 218264, Note_on_c, 4, 57, 0
10, 218280, Note_on_c, 4, 53, 84
10, 218384, Note_on_c, 4, 53, 0
10, 218400, Note_on_c, 4, 58, 84
10, 218489, Note_on_c, 4, 58, 0
10, 218520, Note_on_c, 4, 57, 84
10, 218609, Note_on_c, 4, 57, 0
10, 218640, Note_on_c, 4, 55, 84
10, 218759, Note_on_c, 4, 55, 0
10, 218760, Note_on_c, 4, 53, 84
10, 218819, Note_on_c, 4, 53, 0
10, 218820, Note_on_c, 4, 55, 84
10, 218871, Note_on_c, 4, 55, 0
10, 218880, Note_on_c, 4, 57, 84
10, 218969, Note_on_c, 4, 57, 0
10, 219000, Note_on_c, 4, 55, 84
10, 219089, Note_on_c, 4, 55, 0
10, 219120, Note_on_c, 4, 53, 84
10, 219239, Note_on_c, 4, 53, 0
10, 219240, Note_on_c, 4, 52, 84
10, 219299, Note_on_c, 4, 52, 0
10, 219300, Note_on_c, 4, 53, 84
10, 219351, Note_on_c, 4, 53, 0
10, 219360, Note_on_c, 4, 55, 84
10, 219449, Note_on_c, 4, 55, 0
10, 219480, Note_on_c, 4, 52, 84
10, 219569, Note_on_c, 4, 52, 0
10, 219600, Note_on_c, 4, 48, 84
10, 219689, Note_on_c, 4, 48, 0
10, 219720, Note_on_c, 4, 52, 84
10, 219809, Note_on_c, 4, 52, 0
10, 219840, Note_on_c, 4, 55, 84
10, 219944, Note_on_c, 4, 55, 0
10, 219960, Note_on_c, 4, 52, 84
10, 220064, Note_on_c, 4, 52, 0
10, 220080, Note_on_c, 4, 48, 84
10, 220184, Note_on_c, 4, 48, 0
10, 220200, Note_on_c, 4, 60, 84
10, 220304, Note_on_c, 4, 60, 0
10, 220320, Note_on_c, 4, 57, 84
10, 220409, Note_on_c, 4, 57, 0
10, 220440, Note_on_c, 4, 55, 84
10, 220529, Note_on_c, 4, 55, 0
10, 220560, Note_on_c, 4, 53, 84
10, 220679, Note_on_c, 4, 53, 0
10, 220680, Note_on_c, 4, 52, 84
10, 220739, Note_on_c, 4, 52, 0
10, 220740, Note_on_c, 4, 53, 84
10, 220791, Note_on_c, 4, 53, 0
10, 220800, Note_on_c, 4, 55, 84
10, 220904, Note_on_c, 4, 55, 0
10, 220920, Note_on_c, 4, 48, 84
10, 221024, Note_on_c, 4, 48, 0
10, 221040, Note_on_c, 4, 55, 84
10, 221144, Note_on_c, 4, 55, 0
10, 221160, Note_on_c, 4, 48, 84
10, 221264, Note_on_c, 4, 48, 0
10, 221280, Note_on_c, 4, 57, 84
10, 221369, Note_on_c, 4, 57, 0
10, 221400, Note_on_c, 4, 55, 84
10, 221489, Note_on_c, 4, 55, 0
10, 221520, Note_on_c, 4, 53, 84
10, 221639, Note_on_c, 4, 53, 0
10, 221640, Note_on_c, 4, 52, 84
10, 221699, Note_on_c, 4, 52, 0
10, 221700, Note_on_c, 4, 53, 84
10, 221751, Note_on_c, 4, 53, 0
10, 221760, Note_on_c, 4, 55, 84
10, 221864, Note_on_c, 4, 55, 0
10, 221880, Note_on_c, 4, 48, 84
10, 221984, Note_on_c, 4, 48, 0
10, 222000, Note_on_c, 4, 55, 84
10, 222104, Note_on_c, 4, 55, 0
10, 222120, Note_on_c, 4, 48, 84
10, 222224, Note_on_c, 4, 48, 0
10, 222240, Note_on_c, 4, 53, 84
10, 222359, Note_on_c, 4, 53, 0
10, 222360, Note_on_c, 4, 58, 84
10, 222360, Note_on_c, 4, 55, 84
10, 222479, Note_on_c, 4, 58, 0
10, 222479, Note_on_c, 4, 55, 0
10, 222480, Note_on_c, 4, 48, 84
10, 222480, Note_on_c, 4, 55, 84
10, 222599, Note_on_c, 4, 48, 0
10, 222599, Note_on_c, 4, 55, 0
10, 222600, Note_on_c, 4, 55, 84
10, 222600, Note_on_c, 4, 58, 84
10, 222704, Note_on_c, 4, 55, 0
10, 222704, Note_on_c, 4, 58, 0
10, 222720, Note_on_c, 4, 53, 84
10, 222720, Note_on_c, 4, 57, 84
10, 222839, Note_on_c, 4, 53, 0
10, 222839, Note_on_c, 4, 57, 0
10, 222840, Note_on_c, 4, 55, 84
10, 222840, Note_on_c, 4, 58, 84
10, 222959, Note_on_c, 4, 55, 0
10, 222959, Note_on_c, 4, 58, 0
10, 222960, Note_on_c, 4, 55, 84
10, 222960, Note_on_c, 4, 48, 84
10, 223079, Note_on_c, 4, 55, 0
10, 223079, Note_on_c, 4, 48, 0
10, 223080, Note_on_c, 4, 55, 84
10, 223080, Note_on_c, 4, 58, 84
10, 223184, Note_on_c, 4, 55, 0
10, 223184, Note_on_c, 4, 58, 0
10, 223200, Note_on_c, 4, 60, 76
10, 223200, Note_on_c, 4, 53, 76
10, 223267, Note_on_c, 4, 60, 0
10, 223267, Note_on_c, 4, 53, 0
10, 223280, Note_on_c, 4, 53, 52
10, 223280, Note_on_c, 4, 60, 52
10, 223347, Note_on_c, 4, 53, 0
10, 223347, Note_on_c, 4, 60, 0
10, 223360, Note_on_c, 4, 53, 52
10, 223360, Note_on_c, 4, 60, 52
10, 223427, Note_on_c, 4, 53, 0
10, 223427, Note_on_c, 4, 60, 0
10, 223440, Note_on_c, 4, 53, 52
10, 223440, Note_on_c, 4, 60, 52
10, 223507, Note_on_c, 4, 53, 0
10, 223507, Note_on_c, 4, 60, 0
10, 223520, Note_on_c, 4, 60, 52
10, 223520, Note_on_c, 4, 53, 52
10, 223587, Note_on_c, 4, 60, 0
10, 223587, Note_on_c, 4, 53, 0
10, 223600, Note_on_c, 4, 60, 52
10, 223600, Note_on_c, 4, 53, 52
10, 223667, Note_on_c, 4, 60, 0
10, 223667, Note_on_c, 4, 53, 0
10, 223680, Note_on_c, 4, 53, 52
10, 223680, Note_on_c, 4, 60, 52
10, 223919, Note_on_c, 4, 53, 0
10, 223919, Note_on_c, 4, 60, 0
10, 225120, Note_on_c, 4, 50, 52
10, 225120, Note_on_c, 4, 62, 52
10, 225187, Note_on_c, 4, 50, 0
10, 225187, Note_on_c, 4, 62, 0
10, 225200, Note_on_c, 4, 50, 52
10, 225200, Note_on_c, 4, 62, 52
10, 225267, Note_on_c, 4, 50, 0
10, 225267, Note_on_c, 4, 62, 0
10, 225280, Note_on_c, 4, 50, 52
10, 225280, Note_on_c, 4, 62, 52
10, 225347, Note_on_c, 4, 50, 0
10, 225347, Note_on_c, 4, 62, 0
10, 225360, Note_on_c, 4, 50, 52
10, 225360, Note_on_c, 4, 62, 52
10, 225427, Note_on_c, 4, 50, 0
10, 225427, Note_on_c, 4, 62, 0
10, 225440, Note_on_c, 4, 50, 52
10, 225440, Note_on_c, 4, 62, 52
10, 225507, Note_on_c, 4, 50, 0
10, 225507, Note_on_c, 4, 62, 0
10, 225520, Note_on_c, 4, 62, 52
10, 225520, Note_on_c, 4, 50, 52
10, 225587, Note_on_c, 4, 62, 0
10, 225587, Note_on_c, 4, 50, 0
10, 225600, Note_on_c, 4, 50, 52
10, 225600, Note_on_c, 4, 62, 52
10, 225839, Note_on_c, 4, 50, 0
10, 225839, Note_on_c, 4, 62, 0
10, 227040, Note_on_c, 4, 60, 52
10, 227040, Note_on_c, 4, 48, 52
10, 227107, Note_on_c, 4, 60, 0
10, 227107, Note_on_c, 4, 48, 0
10, 227120, Note_on_c, 4, 48, 52
10, 227120, Note_on_c, 4, 60, 52
10, 227187, Note_on_c, 4, 48, 0
10, 227187, Note_on_c, 4, 60, 0
10, 227200, Note_on_c, 4, 48, 52
10, 227200, Note_on_c, 4, 60, 52
10, 227267, Note_on_c, 4, 48, 0
10, 227267, Note_on_c, 4, 60, 0
10, 227280, Note_on_c, 4, 48, 52
10, 227280, Note_on_c, 4, 60, 52
10, 227347, Note_on_c, 4, 48, 0
10, 227347, Note_on_c, 4, 60, 0
10, 227360, Note_on_c, 4, 48, 52
10, 227360, Note_on_c, 4, 60, 52
10, 227427, Note_on_c, 4, 48, 0
10, 227427, Note_on_c, 4, 60, 0
10, 227440, Note_on_c, 4, 48, 52
10, 227440, Note_on_c, 4, 60, 52
10, 227507, Note_on_c, 4, 48, 0
10, 227507, Note_on_c, 4, 60, 0
10, 227520, Note_on_c, 4, 48, 52
10, 227520, Note_on_c, 4, 60, 52
10, 227759, Note_on_c, 4, 48, 0
10, 227759, Note_on_c, 4, 60, 0
10, 228000, Note_on_c, 4, 55, 52
10, 228000, Note_on_c, 4, 47, 52
10, 228067, Note_on_c, 4, 55, 0
10, 228067, Note_on_c, 4, 47, 0
10, 228080, Note_on_c, 4, 47, 52
10, 228080, Note_on_c, 4, 55, 52
10, 228147, Note_on_c, 4, 47, 0
10, 228147, Note_on_c, 4, 55, 0
10, 228160, Note_on_c, 4, 47, 52
10, 228160, Note_on_c, 4, 55, 52
10, 228227, Note_on_c, 4, 47, 0
10, 228227, Note_on_c, 4, 55, 0
10, 228240, Note_on_c, 4, 55, 52
10, 228240, Note_on_c, 4, 47, 52
10, 228307, Note_on_c, 4, 55, 0
10, 228307, Note_on_c, 4, 47, 0
10, 228320, Note_on_c, 4, 47, 52
10, 228320, Note_on_c, 4, 55, 52
10, 228387, Note_on_c, 4, 47, 0
10, 228387, Note_on_c, 4, 55, 0
10, 228400, Note_on_c, 4, 47, 52
10, 228400, Note_on_c, 4, 55, 52
10, 228467, Note_on_c, 4, 47, 0
10, 228467, Note_on_c, 4, 55, 0
10, 228480, Note_on_c, 4, 47, 52
10, 228480, Note_on_c, 4, 55, 52
10, 228719, Note_on_c, 4, 47, 0
10, 228719, Note_on_c, 4, 55, 0
10, 228960, Note_on_c, 4, 46, 52
10, 228960, Note_on_c, 4, 55, 52
10, 229027, Note_on_c, 4, 46, 0
10, 229027, Note_on_c, 4, 55, 0
10, 229040, Note_on_c, 4, 55, 52
10, 229040, Note_on_c, 4, 46, 52
10, 229107, Note_on_c, 4, 55, 0
10, 229107, Note_on_c, 4, 46, 0
10, 229120, Note_on_c, 4, 46, 52
10, 229120, Note_on_c, 4, 55, 52
10, 229187, Note_on_c, 4, 46, 0
10, 229187, Note_on_c, 4, 55, 0
10, 229200, Note_on_c, 4, 46, 52
10, 229200, Note_on_c, 4, 55, 52
10, 229267, Note_on_c, 4, 46, 0
10, 229267, Note_on_c, 4, 55, 0
10, 229280, Note_on_c, 4, 46, 52
10, 229280, Note_on_c, 4, 55, 52
10, 229347, Note_on_c, 4, 46, 0
10, 229347, Note_on_c, 4, 55, 0
10, 229360, Note_on_c, 4, 55, 52
10, 229360, Note_on_c, 4, 46, 52
10, 229427, Note_on_c, 4, 55, 0
10, 229427, Note_on_c, 4, 46, 0
10, 229440, Note_on_c, 4, 55, 52
10, 229440, Note_on_c, 4, 46, 52
10, 229679, Note_on_c, 4, 55, 0
10, 229679, Note_on_c, 4, 46, 0
10, 240480, Note_on_c, 4, 62, 56
10, 240599, Note_on_c, 4, 62, 0
10, 240600, Note_on_c, 4, 60, 57
10, 240719, Note_on_c, 4, 60, 0
10, 240720, Note_on_c, 4, 57, 58
10, 240839, Note_on_c, 4, 57, 0
10, 240840, Note_on_c, 4, 53, 58
10, 240959, Note_on_c, 4, 53, 0
10, 240960, Note_on_c, 4, 48, 59
10, 241079, Note_on_c, 4, 48, 0
10, 241080, Note_on_c, 4, 57, 59
10, 241199, Note_on_c, 4, 57, 0
10, 241200, Note_on_c, 4, 53, 60
10, 241319, Note_on_c, 4, 53, 0
10, 241320, Note_on_c, 4, 48, 61
10, 241424, Note_on_c, 4, 48, 0
10, 241440, Note_on_c, 4, 62, 61
10, 241559, Note_on_c, 4, 62, 0
10, 241560, Note_on_c, 4, 60, 62
10, 241679, Note_on_c, 4, 60, 0
10, 241680, Note_on_c, 4, 58, 62
10, 241799, Note_on_c, 4, 58, 0
10, 241800, Note_on_c, 4, 55, 63
10, 241919, Note_on_c, 4, 55, 0
10, 241920, Note_on_c, 4, 48, 64
10, 242039, Note_on_c, 4, 48, 0
10, 242040, Note_on_c, 4, 58, 64
10, 242159, Note_on_c, 4, 58, 0
10, 242160, Note_on_c, 4, 55, 65
10, 242279, Note_on_c, 4, 55, 0
10, 242280, Note_on_c, 4, 48, 65
10, 242384, Note_on_c, 4, 48, 0
10, 242400, Note_on_c, 4, 62, 66
10, 242519, Note_on_c, 4, 62, 0
10, 242520, Note_on_c, 4, 60, 67
10, 242639, Note_on_c, 4, 60, 0
10, 242640, Note_on_c, 4, 57, 67
10, 242759, Note_on_c, 4, 57, 0
10, 242760, Note_on_c, 4, 53, 68
10, 242879, Note_on_c, 4, 53, 0
10, 242880, Note_on_c, 4, 48, 68
10, 242999, Note_on_c, 4, 48, 0
10, 243000, Note_on_c, 4, 57, 69
10, 243119, Note_on_c, 4, 57, 0
10, 243120, Note_on_c, 4, 53, 70
10, 243239, Note_on_c, 4, 53, 0
10, 243240, Note_on_c, 4, 48, 70
10, 243344, Note_on_c, 4, 48, 0
10, 243360, Note_on_c, 4, 62, 71
10, 243479, Note_on_c, 4, 62, 0
10, 243480, Note_on_c, 4, 60, 71
10, 243599, Note_on_c, 4, 60, 0
10, 243600, Note_on_c, 4, 58, 72
10, 243719, Note_on_c, 4, 58, 0
10, 243720, Note_on_c, 4, 55, 73
10, 243839, Note_on_c, 4, 55, 0
10, 243840, Note_on_c, 4, 48, 73
10, 243959, Note_on_c, 4, 48, 0
10, 243960, Note_on_c, 4, 58, 74
10, 244079, Note_on_c, 4, 58, 0
10, 244080, Note_on_c, 4, 55, 74
10, 244199, Note_on_c, 4, 55, 0
10, 244200, Note_on_c, 4, 48, 75
10, 244319, Note_on_c, 4, 48, 0
10, 244320, Note_on_c, 4, 53, 76
10, 244320, Note_on_c, 4, 57, 76
10, 244439, Note_on_c, 4, 53, 0
10, 244439, Note_on_c, 4, 57, 0
10, 245760, Note_on_c, 4, 50, 76
10, 245760, Note_on_c, 4, 58, 76
10, 245879, Note_on_c, 4, 50, 0
10, 245879, Note_on_c, 4, 58, 0
10, 246240, Note_on_c, 4, 46, 52
10, 246240, Note_on_c, 4, 50, 52
10, 246719, Note_on_c, 4, 46, 0
10, 246719, Note_on_c, 4, 50, 0
10, 246720, Note_on_c, 4, 45, 52
10, 246720, Note_on_c, 4, 48, 52
10, 247199, Note_on_c, 4, 45, 0
10, 247199, Note_on_c, 4, 48, 0
10, 247200, Note_on_c, 4, 43, 52
10, 247200, Note_on_c, 4, 46, 52
10, 247664, Note_on_c, 4, 43, 0
10, 247664, Note_on_c, 4, 46, 0
10, 247680, Note_on_c, 4, 41, 84
10, 247680, Note_on_c, 4, 45, 84
10, 247799, Note_on_c, 4, 41, 0
10, 247799, Note_on_c, 4, 45, 0
10, 249120, Note_on_c, 4, 58, 76
10, 249120, Note_on_c, 4, 50, 76
10, 249239, Note_on_c, 4, 58, 0
10, 249239, Note_on_c, 4, 50, 0
10, 249600, Note_on_c, 4, 46, 52
10, 249600, Note_on_c, 4, 50, 52
10, 250079, Note_on_c, 4, 46, 0
10, 250079, Note_on_c, 4, 50, 0
10, 250080, Note_on_c, 4, 45, 52
10, 250080, Note_on_c, 4, 48, 52
10, 250559, Note_on_c, 4, 45, 0
10, 250559, Note_on_c, 4, 48, 0
10, 250560, Note_on_c, 4, 43, 52
10, 250560, Note_on_c, 4, 46, 52
10, 251024, Note_on_c, 4, 43, 0
10, 251024, Note_on_c, 4, 46, 0
10, 251038, Control_c, 4, 11, 80
10, 251040, Note_on_c, 4, 41, 76
10, 251040, Note_on_c, 4, 45, 76
10, 251129, Note_on_c, 4, 41, 0
10, 251129, Note_on_c, 4, 45, 0
10, 251160, Note_on_c, 4, 41, 76
10, 251160, Note_on_c, 4, 45, 76
10, 251160, Control_c, 4, 11, 80
10, 251235, Control_c, 4, 11, 82
10, 251279, Note_on_c, 4, 41, 0
10, 251279, Note_on_c, 4, 45, 0
10, 251280, Note_on_c, 4, 46, 76
10, 251280, Note_on_c, 4, 43, 76
10, 251310, Control_c, 4, 11, 84
10, 251385, Control_c, 4, 11, 86
10, 251399, Note_on_c, 4, 46, 0
10, 251399, Note_on_c, 4, 43, 0
10, 251400, Note_on_c, 4, 48, 76
10, 251400, Note_on_c, 4, 45, 76
10, 251460, Control_c, 4, 11, 88
10, 251504, Note_on_c, 4, 48, 0
10, 251504, Note_on_c, 4, 45, 0
10, 251520, Note_on_c, 4, 50, 76
10, 251520, Note_on_c, 4, 46, 76
10, 251535, Control_c, 4, 11, 90
10, 251610, Control_c, 4, 11, 92
10, 251685, Control_c, 4, 11, 94
10, 251744, Note_on_c, 4, 50, 0
10, 251744, Note_on_c, 4, 46, 0
10, 251760, Note_on_c, 4, 50, 76
10, 251760, Control_c, 4, 11, 96
10, 251760, Note_on_c, 4, 46, 76
10, 251835, Control_c, 4, 11, 98
10, 251910, Control_c, 4, 11, 100
10, 251985, Control_c, 4, 11, 102
10, 251999, Note_on_c, 4, 50, 0
10, 251999, Note_on_c, 4, 46, 0
10, 252000, Note_on_c, 4, 48, 76
10, 252000, Note_on_c, 4, 45, 76
10, 252060, Control_c, 4, 11, 104
10, 252135, Control_c, 4, 11, 105
10, 252210, Control_c, 4, 11, 107
10, 252224, Note_on_c, 4, 48, 0
10, 252224, Note_on_c, 4, 45, 0
10, 252240, Note_on_c, 4, 48, 76
10, 252240, Note_on_c, 4, 45, 76
10, 252285, Control_c, 4, 11, 109
10, 252360, Control_c, 4, 11, 111
10, 252435, Control_c, 4, 11, 113
10, 252479, Note_on_c, 4, 48, 0
10, 252479, Note_on_c, 4, 45, 0
10, 252480, Note_on_c, 4, 43, 76
10, 252480, Note_on_c, 4, 46, 76
10, 252510, Control_c, 4, 11, 115
10, 252585, Control_c, 4, 11, 117
10, 252660, Control_c, 4, 11, 119
10, 252704, Note_on_c, 4, 43, 0
10, 252704, Note_on_c, 4, 46, 0
10, 252720, Note_on_c, 4, 43, 76
10, 252720, Note_on_c, 4, 46, 76
10, 252735, Control_c, 4, 11, 121
10, 252810, Control_c, 4, 11, 123
10, 252885, Control_c, 4, 11, 127
10, 252944, Note_on_c, 4, 43, 0
10, 252944, Note_on_c, 4, 46, 0
10, 252960, Note_on_c, 4, 41, 76
10, 252960, Note_on_c, 4, 45, 76
10, 253079, Note_on_c, 4, 41, 0
10, 253079, Note_on_c, 4, 45, 0
10, 253200, Note_on_c, 4, 65, 76
10, 253200, Note_on_c, 4, 60, 76
10, 253319, Note_on_c, 4, 65, 0
10, 253319, Note_on_c, 4, 60, 0
10, 253440, Note_on_c, 4, 62, 76
10, 253440, Note_on_c, 4, 65, 76
10, 253559, Note_on_c, 4, 62, 0
10, 253559, Note_on_c, 4, 65, 0
10, 253680, Note_on_c, 4, 58, 76
10, 253680, Note_on_c, 4, 62, 76
10, 253799, Note_on_c, 4, 58, 0
10, 253799, Note_on_c, 4, 62, 0
10, 253920, Note_on_c, 4, 57, 76
10, 253920, Note_on_c, 4, 60, 76
10, 254039, Note_on_c, 4, 57, 0
10, 254039, Note_on_c, 4, 60, 0
10, 254160, Note_on_c, 4, 57, 76
10, 254160, Note_on_c, 4, 53, 76
10, 254279, Note_on_c, 4, 57, 0
10, 254279, Note_on_c, 4, 53, 0
10, 254400, Note_on_c, 4, 52, 76
10, 254400, Note_on_c, 4, 55, 76
10, 254519, Note_on_c, 4, 52, 0
10, 254519, Note_on_c, 4, 55, 0
10, 254640, Note_on_c, 4, 60, 76
10, 254640, Note_on_c, 4, 52, 76
10, 254759, Note_on_c, 4, 60, 0
10, 254759, Note_on_c, 4, 52, 0
10, 254880, Note_on_c, 4, 53, 76
10, 254999, Note_on_c, 4, 53, 0
10, 255840, Note_on_c, 4, 53, 76
10, 255840, Note_on_c, 4, 57, 76
10, 255959, Note_on_c, 4, 53, 0
10, 255959, Note_on_c, 4, 57, 0
10, 256800, Note_on_c, 4, 53, 76
10, 256800, Note_on_c, 4, 57, 76
10, 256919, Note_on_c, 4, 53, 0
10, 256919, Note_on_c, 4, 57, 0
10, 257760, Note_on_c, 4, 53, 76
10, 257760, Note_on_c, 4, 57, 76
10, 257879, Note_on_c, 4, 53, 0
10, 257879, Note_on_c, 4, 57, 0
10, 266400, Note_on_c, 4, 60, 44
10, 266400, Note_on_c, 4, 63, 44
10, 267344, Note_on_c, 4, 60, 0
10, 267344, Note_on_c, 4, 63, 0
10, 267360, Note_on_c, 4, 60, 44
10, 267360, Note_on_c, 4, 63, 44
10, 268319, Note_on_c, 4, 60, 0
10, 268319, Note_on_c, 4, 63, 0
10, 270240, Note_on_c, 4, 50, 52
10, 270240, Note_on_c, 4, 58, 52
10, 270329, Note_on_c, 4, 50, 0
10, 270329, Note_on_c, 4, 58, 0
10, 270360, Note_on_c, 4, 60, 52
10, 270360, Note_on_c, 4, 53, 52
10, 270449, Note_on_c, 4, 60, 0
10, 270449, Note_on_c, 4, 53, 0
10, 270480, Note_on_c, 4, 62, 52
10, 270480, Note_on_c, 4, 58, 52
10, 270711, Note_on_c, 4, 62, 0
10, 270711, Note_on_c, 4, 58, 0
10, 270720, Note_on_c, 4, 53, 52
10, 270720, Note_on_c, 4, 60, 52
10, 270809, Note_on_c, 4, 53, 0
10, 270809, Note_on_c, 4, 60, 0
10, 270840, Note_on_c, 4, 58, 52
10, 270840, Note_on_c, 4, 62, 52
10, 270929, Note_on_c, 4, 58, 0
10, 270929, Note_on_c, 4, 62, 0
10, 270960, Note_on_c, 4, 60, 52
10, 270960, Note_on_c, 4, 53, 52
10, 271191, Note_on_c, 4, 60, 0
10, 271191, Note_on_c, 4, 53, 0
10, 271200, Note_on_c, 4, 58, 48
10, 271200, Note_on_c, 4, 62, 48
10, 271507, Note_on_c, 4, 58, 0
10, 271507, Note_on_c, 4, 62, 0
10, 271520, Note_on_c, 4, 50, 48
10, 271520, Note_on_c, 4, 62, 48
10, 271599, Note_on_c, 4, 50, 0
10, 271599, Note_on_c, 4, 62, 0
10, 271600, Note_on_c, 4, 60, 48
10, 271600, Note_on_c, 4, 48, 48
10, 271679, Note_on_c, 4, 60, 0
10, 271679, Note_on_c, 4, 48, 0
10, 271680, Note_on_c, 4, 58, 48
10, 271680, Note_on_c, 4, 46, 48
10, 271759, Note_on_c, 4, 58, 0
10, 271759, Note_on_c, 4, 46, 0
10, 271760, Note_on_c, 4, 62, 48
10, 271760, Note_on_c, 4, 50, 48
10, 271839, Note_on_c, 4, 62, 0
10, 271839, Note_on_c, 4, 50, 0
10, 271840, Note_on_c, 4, 60, 48
10, 271840, Note_on_c, 4, 48, 48
10, 271919, Note_on_c, 4, 60, 0
10, 271919, Note_on_c, 4, 48, 0
10, 271920, Note_on_c, 4, 58, 48
10, 271920, Note_on_c, 4, 46, 48
10, 271999, Note_on_c, 4, 58, 0
10, 271999, Note_on_c, 4, 46, 0
10, 272000, Note_on_c, 4, 55, 48
10, 272000, Note_on_c, 4, 67, 48
10, 272079, Note_on_c, 4, 55, 0
10, 272079, Note_on_c, 4, 67, 0
10, 272080, Note_on_c, 4, 64, 48
10, 272080, Note_on_c, 4, 52, 48
10, 272147, Note_on_c, 4, 64, 0
10, 272147, Note_on_c, 4, 52, 0
10, 272160, Note_on_c, 4, 65, 48
10, 272160, Note_on_c, 4, 53, 48
10, 272479, Note_on_c, 4, 65, 0
10, 272479, Note_on_c, 4, 53, 0
10, 272480, Note_on_c, 4, 67, 48
10, 272480, Note_on_c, 4, 55, 48
10, 272559, Note_on_c, 4, 67, 0
10, 272559, Note_on_c, 4, 55, 0
10, 272560, Note_on_c, 4, 65, 48
10, 272560, Note_on_c, 4, 53, 48
10, 272639, Note_on_c, 4, 65, 0
10, 272639, Note_on_c, 4, 53, 0
10, 272640, Note_on_c, 4, 50, 48
10, 272640, Note_on_c, 4, 62, 48
10, 272719, Note_on_c, 4, 50, 0
10, 272719, Note_on_c, 4, 62, 0
10, 272720, Note_on_c, 4, 65, 48
10, 272720, Note_on_c, 4, 53, 48
10, 272799, Note_on_c, 4, 65, 0
10, 272799, Note_on_c, 4, 53, 0
10, 272800, Note_on_c, 4, 63, 48
10, 272800, Note_on_c, 4, 51, 48
10, 272879, Note_on_c, 4, 63, 0
10, 272879, Note_on_c, 4, 51, 0
10, 272880, Note_on_c, 4, 60, 48
10, 272880, Note_on_c, 4, 48, 48
10, 272959, Note_on_c, 4, 60, 0
10, 272959, Note_on_c, 4, 48, 0
10, 272960, Note_on_c, 4, 51, 48
10, 272960, Note_on_c, 4, 63, 48
10, 273039, Note_on_c, 4, 51, 0
10, 273039, Note_on_c, 4, 63, 0
10, 273040, Note_on_c, 4, 50, 48
10, 273040, Note_on_c, 4, 62, 48
10, 273107, Note_on_c, 4, 50, 0
10, 273107, Note_on_c, 4, 62, 0
10, 273120, Note_on_c, 4, 58, 48
10, 273120, Note_on_c, 4, 46, 48
10, 273439, Note_on_c, 4, 58, 0
10, 273439, Note_on_c, 4, 46, 0
10, 273440, Note_on_c, 4, 62, 48
10, 273440, Note_on_c, 4, 50, 48
10, 273519, Note_on_c, 4, 62, 0
10, 273519, Note_on_c, 4, 50, 0
10, 273520, Note_on_c, 4, 60, 48
10, 273520, Note_on_c, 4, 48, 48
10, 273599, Note_on_c, 4, 60, 0
10, 273599, Note_on_c, 4, 48, 0
10, 273600, Note_on_c, 4, 46, 48
10, 273600, Note_on_c, 4, 58, 48
10, 273679, Note_on_c, 4, 46, 0
10, 273679, Note_on_c, 4, 58, 0
10, 273680, Note_on_c, 4, 50, 48
10, 273680, Note_on_c, 4, 62, 48
10, 273759, Note_on_c, 4, 50, 0
10, 273759, Note_on_c, 4, 62, 0
10, 273760, Note_on_c, 4, 60, 48
10, 273760, Note_on_c, 4, 48, 48
10, 273839, Note_on_c, 4, 60, 0
10, 273839, Note_on_c, 4, 48, 0
10, 273840, Note_on_c, 4, 58, 48
10, 273840, Note_on_c, 4, 46, 48
10, 273919, Note_on_c, 4, 58, 0
10, 273919, Note_on_c, 4, 46, 0
10, 273920, Note_on_c, 4, 67, 48
10, 273920, Note_on_c, 4, 55, 48
10, 273999, Note_on_c, 4, 67, 0
10, 273999, Note_on_c, 4, 55, 0
10, 274000, Note_on_c, 4, 52, 48
10, 274000, Note_on_c, 4, 64, 48
10, 274067, Note_on_c, 4, 52, 0
10, 274067, Note_on_c, 4, 64, 0
10, 274080, Note_on_c, 4, 53, 48
10, 274080, Note_on_c, 4, 65, 48
10, 274399, Note_on_c, 4, 53, 0
10, 274399, Note_on_c, 4, 65, 0
10, 274400, Note_on_c, 4, 67, 48
10, 274400, Note_on_c, 4, 55, 48
10, 274479, Note_on_c, 4, 67, 0
10, 274479, Note_on_c, 4, 55, 0
10, 274480, Note_on_c, 4, 53, 48
10, 274480, Note_on_c, 4, 65, 48
10, 274559, Note_on_c, 4, 53, 0
10, 274559, Note_on_c, 4, 65, 0
10, 274560, Note_on_c, 4, 50, 48
10, 274560, Note_on_c, 4, 62, 48
10, 274639, Note_on_c, 4, 50, 0
10, 274639, Note_on_c, 4, 62, 0
10, 274640, Note_on_c, 4, 53, 48
10, 274640, Note_on_c, 4, 65, 48
10, 274719, Note_on_c, 4, 53, 0
10, 274719, Note_on_c, 4, 65, 0
10, 274720, Note_on_c, 4, 63, 48
10, 274720, Note_on_c, 4, 51, 48
10, 274799, Note_on_c, 4, 63, 0
10, 274799, Note_on_c, 4, 51, 0
10, 274800, Note_on_c, 4, 48, 48
10, 274800, Note_on_c, 4, 60, 48
10, 274879, Note_on_c, 4, 48, 0
10, 274879, Note_on_c, 4, 60, 0
10, 274880, Note_on_c, 4, 63, 48
10, 274880, Note_on_c, 4, 51, 48
10, 274959, Note_on_c, 4, 63, 0
10, 274959, Note_on_c, 4, 51, 0
10, 274960, Note_on_c, 4, 50, 48
10, 274960, Note_on_c, 4, 62, 48
10, 275027, Note_on_c, 4, 50, 0
10, 275027, Note_on_c, 4, 62, 0
10, 275040, Note_on_c, 4, 46, 48
10, 275040, Note_on_c, 4, 58, 48
10, 275279, Note_on_c, 4, 46, 0
10, 275359, Note_on_c, 4, 58, 0
10, 275360, Note_on_c, 4, 60, 48
10, 275439, Note_on_c, 4, 60, 0
10, 275440, Note_on_c, 4, 62, 48
10, 275507, Note_on_c, 4, 62, 0
10, 275520, Note_on_c, 4, 55, 48
10, 275839, Note_on_c, 4, 55, 0
10, 275840, Note_on_c, 4, 57, 48
10, 275919, Note_on_c, 4, 57, 0
10, 275920, Note_on_c, 4, 58, 48
10, 275987, Note_on_c, 4, 58, 0
10, 276000, Note_on_c, 4, 64, 48
10, 276000, Note_on_c, 4, 52, 48
10, 276319, Note_on_c, 4, 64, 0
10, 276319, Note_on_c, 4, 52, 0
10, 276320, Note_on_c, 4, 53, 48
10, 276320, Note_on_c, 4, 65, 48
10, 276399, Note_on_c, 4, 53, 0
10, 276399, Note_on_c, 4, 65, 0
10, 276400, Note_on_c, 4, 67, 48
10, 276400, Note_on_c, 4, 55, 48
10, 276467, Note_on_c, 4, 67, 0
10, 276467, Note_on_c, 4, 55, 0
10, 276480, Note_on_c, 4, 48, 48
10, 276480, Note_on_c, 4, 60, 48
10, 276799, Note_on_c, 4, 48, 0
10, 276799, Note_on_c, 4, 60, 0
10, 276800, Note_on_c, 4, 62, 48
10, 276800, Note_on_c, 4, 50, 48
10, 276879, Note_on_c, 4, 62, 0
10, 276879, Note_on_c, 4, 50, 0
10, 276880, Note_on_c, 4, 64, 48
10, 276880, Note_on_c, 4, 52, 48
10, 276947, Note_on_c, 4, 64, 0
10, 276947, Note_on_c, 4, 52, 0
10, 276960, Note_on_c, 4, 53, 76
10, 276960, Note_on_c, 4, 65, 76
10, 277199, Note_on_c, 4, 53, 0
10, 277199, Note_on_c, 4, 65, 0
10, 277200, Note_on_c, 4, 48, 76
10, 277200, Note_on_c, 4, 60, 76
10, 277904, Note_on_c, 4, 48, 0
10, 277904, Note_on_c, 4, 60, 0
10, 277920, Note_on_c, 4, 69, 76
10, 277920, Note_on_c, 4, 57, 76
10, 278159, Note_on_c, 4, 69, 0
10, 278159, Note_on_c, 4, 57, 0
10, 278160, Note_on_c, 4, 53, 76
10, 278160, Note_on_c, 4, 65, 76
10, 278864, Note_on_c, 4, 53, 0
10, 278864, Note_on_c, 4, 65, 0
10, 278880, Note_on_c, 4, 53, 76
10, 278880, Note_on_c, 4, 65, 76
10, 279119, Note_on_c, 4, 53, 0
10, 279119, Note_on_c, 4, 65, 0
10, 279120, Note_on_c, 4, 60, 76
10, 279120, Note_on_c, 4, 48, 76
10, 279824, Note_on_c, 4, 60, 0
10, 279824, Note_on_c, 4, 48, 0
10, 279840, Note_on_c, 4, 69, 76
10, 279840, Note_on_c, 4, 57, 76
10, 280079, Note_on_c, 4, 69, 0
10, 280079, Note_on_c, 4, 57, 0
10, 280080, Note_on_c, 4, 65, 76
10, 280080, Note_on_c, 4, 53, 76
10, 280784, Note_on_c, 4, 65, 0
10, 280784, Note_on_c, 4, 53, 0
10, 280800, Note_on_c, 4, 69, 84
10, 280800, Note_on_c, 4, 57, 84
10, 281039, Note_on_c, 4, 69, 0
10, 281039, Note_on_c, 4, 57, 0
10, 281040, Note_on_c, 4, 65, 76
10, 281040, Note_on_c, 4, 53, 76
10, 281264, Note_on_c, 4, 65, 0
10, 281264, Note_on_c, 4, 53, 0
10, 281280, Note_on_c, 4, 57, 84
10, 281280, Note_on_c, 4, 69, 84
10, 281519, Note_on_c, 4, 57, 0
10, 281519, Note_on_c, 4, 69, 0
10, 281520, Note_on_c, 4, 53, 76
10, 281520, Note_on_c, 4, 65, 76
10, 281744, Note_on_c, 4, 53, 0
10, 281744, Note_on_c, 4, 65, 0
10, 281760, Note_on_c, 4, 57, 84
10, 281760, Note_on_c, 4, 69, 84
10, 281999, Note_on_c, 4, 57, 0
10, 281999, Note_on_c, 4, 69, 0
10, 282000, Note_on_c, 4, 65, 76
10, 282000, Note_on_c, 4, 53, 76
10, 282224, Note_on_c, 4, 65, 0
10, 282224, Note_on_c, 4, 53, 0
10, 282240, Note_on_c, 4, 55, 84
10, 282240, Note_on_c, 4, 67, 84
10, 282479, Note_on_c, 4, 55, 0
10, 282479, Note_on_c, 4, 67, 0
10, 282480, Note_on_c, 4, 52, 76
10, 282480, Note_on_c, 4, 64, 76
10, 282704, Note_on_c, 4, 52, 0
10, 282704, Note_on_c, 4, 64, 0
10, 282720, Note_on_c, 4, 57, 84
10, 282720, Note_on_c, 4, 69, 84
10, 282959, Note_on_c, 4, 57, 0
10, 282959, Note_on_c, 4, 69, 0
10, 282960, Note_on_c, 4, 65, 76
10, 282960, Note_on_c, 4, 53, 76
10, 283184, Note_on_c, 4, 65, 0
10, 283184, Note_on_c, 4, 53, 0
10, 283200, Note_on_c, 4, 69, 84
10, 283200, Note_on_c, 4, 57, 84
10, 283439, Note_on_c, 4, 69, 0
10, 283439, Note_on_c, 4, 57, 0
10, 283440, Note_on_c, 4, 53, 76
10, 283440, Note_on_c, 4, 65, 76
10, 283664, Note_on_c, 4, 53, 0
10, 283664, Note_on_c, 4, 65, 0
10, 283680, Note_on_c, 4, 69, 84
10, 283680, Note_on_c, 4, 57, 84
10, 283919, Note_on_c, 4, 69, 0
10, 283919, Note_on_c, 4, 57, 0
10, 283920, Note_on_c, 4, 53, 76
10, 283920, Note_on_c, 4, 65, 76
10, 284144, Note_on_c, 4, 53, 0
10, 284144, Note_on_c, 4, 65, 0
10, 284160, Note_on_c, 4, 67, 84
10, 284160, Note_on_c, 4, 55, 84
10, 284399, Note_on_c, 4, 67, 0
10, 284399, Note_on_c, 4, 55, 0
10, 284400, Note_on_c, 4, 64, 76
10, 284400, Note_on_c, 4, 52, 76
10, 284624, Note_on_c, 4, 64, 0
10, 284624, Note_on_c, 4, 52, 0
10, 284640, Note_on_c, 4, 69, 84
10, 284640, Note_on_c, 4, 57, 84
10, 284879, Note_on_c, 4, 69, 0
10, 284879, Note_on_c, 4, 57, 0
10, 284880, Note_on_c, 4, 53, 76
10, 284880, Note_on_c, 4, 65, 76
10, 285104, Note_on_c, 4, 53, 0
10, 285104, Note_on_c, 4, 65, 0
10, 285120, Note_on_c, 4, 57, 84
10, 285120, Note_on_c, 4, 69, 84
10, 285359, Note_on_c, 4, 57, 0
10, 285359, Note_on_c, 4, 69, 0
10, 285360, Note_on_c, 4, 65, 76
10, 285360, Note_on_c, 4, 53, 76
10, 285584, Note_on_c, 4, 65, 0
10, 285584, Note_on_c, 4, 53, 0
10, 285600, Note_on_c, 4, 57, 84
10, 285600, Note_on_c, 4, 53, 84
10, 286679, Note_on_c, 4, 57, 0
10, 286679, Note_on_c, 4, 53, 0
10, 291360, Note_on_c, 4, 55, 76
10, 291360, Note_on_c, 4, 48, 76
10, 291824, Note_on_c, 4, 55, 0
10, 291824, Note_on_c, 4, 48, 0
10, 291840, Note_on_c, 4, 53, 76
10, 291840, Note_on_c, 4, 57, 76
10, 291959, Note_on_c, 4, 53, 0
10, 291959, Note_on_c, 4, 57, 0
10, 292080, Note_on_c, 4, 55, 76
10, 292080, Note_on_c, 4, 48, 76
10, 292199, Note_on_c, 4, 55, 0
10, 292199, Note_on_c, 4, 48, 0
10, 293280, Note_on_c, 4, 48, 76
10, 293280, Note_on_c, 4, 55, 76
10, 293744, Note_on_c, 4, 48, 0
10, 293744, Note_on_c, 4, 55, 0
10, 293760, Note_on_c, 4, 53, 76
10, 293760, Note_on_c, 4, 57, 76
10, 293879, Note_on_c, 4, 53, 0
10, 293879, Note_on_c, 4, 57, 0
10, 294000, Note_on_c, 4, 55, 76
10, 294000, Note_on_c, 4, 48, 76
10, 294119, Note_on_c, 4, 55, 0
10, 294119, Note_on_c, 4, 48, 0
10, 294240, Note_on_c, 4, 53, 76
10, 294240, Note_on_c, 4, 41, 76
10, 294344, Note_on_c, 4, 53, 0
10, 294359, Note_on_c, 4, 41, 0
10, 294360, Note_on_c, 4, 48, 52
10, 294464, Note_on_c, 4, 48, 0
10, 294480, Note_on_c, 4, 53, 52
10, 294584, Note_on_c, 4, 53, 0
10, 294600, Note_on_c, 4, 48, 52
10, 294704, Note_on_c, 4, 48, 0
10, 294720, Note_on_c, 4, 52, 52
10, 294824, Note_on_c, 4, 52, 0
10, 294840, Note_on_c, 4, 48, 52
10, 294944, Note_on_c, 4, 48, 0
10, 294960, Note_on_c, 4, 55, 52
10, 295064, Note_on_c, 4, 55, 0
10, 295080, Note_on_c, 4, 48, 52
10, 295184, Note_on_c, 4, 48, 0
10, 295200, Note_on_c, 4, 53, 52
10, 295304, Note_on_c, 4, 53, 0
10, 295320, Note_on_c, 4, 48, 52
10, 295424, Note_on_c, 4, 48, 0
10, 295440, Note_on_c, 4, 57, 52
10, 295544, Note_on_c, 4, 57, 0
10, 295560, Note_on_c, 4, 48, 52
10, 295664, Note_on_c, 4, 48, 0
10, 295680, Note_on_c, 4, 55, 76
10, 295680, Note_on_c, 4, 48, 76
10, 295784, Note_on_c, 4, 55, 0
10, 295920, Note_on_c, 4, 55, 76
10, 296024, Note_on_c, 4, 48, 0
10, 296024, Note_on_c, 4, 55, 0
10, 296040, Note_on_c, 4, 48, 76
10, 296144, Note_on_c, 4, 48, 0
10, 296160, Note_on_c, 4, 41, 76
10, 296160, Note_on_c, 4, 53, 76
10, 296264, Note_on_c, 4, 41, 0
10, 296264, Note_on_c, 4, 53, 0
10, 296280, Note_on_c, 4, 48, 52
10, 296384, Note_on_c, 4, 48, 0
10, 296400, Note_on_c, 4, 53, 52
10, 296504, Note_on_c, 4, 53, 0
10, 296520, Note_on_c, 4, 48, 52
10, 296624, Note_on_c, 4, 48, 0
10, 296640, Note_on_c, 4, 52, 52
10, 296744, Note_on_c, 4, 52, 0
10, 296760, Note_on_c, 4, 48, 52
10, 296864, Note_on_c, 4, 48, 0
10, 296880, Note_on_c, 4, 55, 52
10, 296984, Note_on_c, 4, 55, 0
10, 297000, Note_on_c, 4, 48, 52
10, 297104, Note_on_c, 4, 48, 0
10, 297120, Note_on_c, 4, 53, 52
10, 297224, Note_on_c, 4, 53, 0
10, 297240, Note_on_c, 4, 48, 52
10, 297344, Note_on_c, 4, 48, 0
10, 297360, Note_on_c, 4, 57, 52
10, 297464, Note_on_c, 4, 57, 0
10, 297480, Note_on_c, 4, 48, 52
10, 297584, Note_on_c, 4, 48, 0
10, 297600, Note_on_c, 4, 55, 76
10, 297600, Note_on_c, 4, 48, 76
10, 297704, Note_on_c, 4, 55, 0
10, 297840, Note_on_c, 4, 55, 76
10, 297944, Note_on_c, 4, 48, 0
10, 297944, Note_on_c, 4, 55, 0
10, 297960, Note_on_c, 4, 48, 76
10, 298064, Note_on_c, 4, 48, 0
10, 298080, Note_on_c, 4, 41, 76
10, 298080, Note_on_c, 4, 53, 76
10, 298199, Note_on_c, 4, 41, 0
10, 298199, Note_on_c, 4, 53, 0
10, 298560, Note_on_c, 4, 55, 76
10, 298560, Note_on_c, 4, 48, 76
10, 298664, Note_on_c, 4, 55, 0
10, 298800, Note_on_c, 4, 55, 76
10, 298904, Note_on_c, 4, 48, 0
10, 298904, Note_on_c, 4, 55, 0
10, 298920, Note_on_c, 4, 48, 76
10, 299024, Note_on_c, 4, 48, 0
10, 299040, Note_on_c, 4, 53, 76
10, 299040, Note_on_c, 4, 41, 76
10, 299159, Note_on_c, 4, 53, 0
10, 299159, Note_on_c, 4, 41, 0
10, 299520, Note_on_c, 4, 55, 76
10, 299520, Note_on_c, 4, 48, 76
10, 299624, Note_on_c, 4, 55, 0
10, 299760, Note_on_c, 4, 55, 76
10, 299864, Note_on_c, 4, 48, 0
10, 299864, Note_on_c, 4, 55, 0
10, 299880, Note_on_c, 4, 48, 76
10, 299984, Note_on_c, 4, 48, 0
10, 300000, Note_on_c, 4, 53, 76
10, 300000, Note_on_c, 4, 41, 76
10, 300119, Note_on_c, 4, 53, 0
10, 300119, Note_on_c, 4, 41, 0
10, 300480, Note_on_c, 4, 41, 68
10, 300480, Note_on_c, 4, 48, 68
10, 300599, Note_on_c, 4, 41, 0
10, 300599, Note_on_c, 4, 48, 0
10, 300960, Note_on_c, 4, 48, 60
10, 300960, Note_on_c, 4, 41, 60
10, 301079, Note_on_c, 4, 48, 0
10, 301079, Note_on_c, 4, 41, 0
10, 301440, Note_on_c, 4, 48, 52
10, 301440, Note_on_c, 4, 41, 52
10, 301559, Note_on_c, 4, 48, 0
10, 301559, Note_on_c, 4, 41, 0
10, 301920, Note_on_c, 4, 48, 44
10, 301920, Note_on_c, 4, 41, 44
10, 302039, Note_on_c, 4, 48, 0
10, 302039, Note_on_c, 4, 41, 0
10, 307200, Note_on_c, 4, 58, 52
10, 307289, Note_on_c, 4, 58, 0
10, 307320, Note_on_c, 4, 60, 52
10, 307409, Note_on_c, 4, 60, 0
10, 307440, Note_on_c, 4, 62, 52
10, 307529, Note_on_c, 4, 62, 0
10, 307560, Note_on_c, 4, 64, 52
10, 307649, Note_on_c, 4, 64, 0
10, 307680, Note_on_c, 4, 65, 52
10, 307799, Note_on_c, 4, 65, 0
10, 308160, Note_on_c, 4, 46, 76
10, 308249, Note_on_c, 4, 46, 0
10, 308280, Note_on_c, 4, 48, 76
10, 308369, Note_on_c, 4, 48, 0
10, 308400, Note_on_c, 4, 50, 76
10, 308489, Note_on_c, 4, 50, 0
10, 308520, Note_on_c, 4, 52, 76
10, 308609, Note_on_c, 4, 52, 0
10, 308640, Note_on_c, 4, 53, 84
10, 308700, Control_c, 4, 11, 112
10, 309104, Note_on_c, 4, 53, 0
10, 309118, Control_c, 4, 11, 127
10, 309120, Note_on_c, 4, 55, 84
10, 309120, Note_on_c, 4, 52, 84
10, 309180, Control_c, 4, 11, 112
10, 309584, Note_on_c, 4, 55, 0
10, 309584, Note_on_c, 4, 52, 0
10, 309598, Control_c, 4, 11, 127
10, 309600, Note_on_c, 4, 57, 84
10, 309600, Note_on_c, 4, 53, 84
10, 309660, Control_c, 4, 11, 112
10, 310064, Note_on_c, 4, 57, 0
10, 310064, Note_on_c, 4, 53, 0
10, 310078, Control_c, 4, 11, 127
10, 310080, Note_on_c, 4, 57, 76
10, 310080, Note_on_c, 4, 53, 76
10, 310259, Note_on_c, 4, 57, 0
10, 310259, Note_on_c, 4, 53, 0
10, 310320, Note_on_c, 4, 57, 76
10, 310320, Note_on_c, 4, 53, 76
10, 310499, Note_on_c, 4, 57, 0
10, 310499, Note_on_c, 4, 53, 0
10, 310560, Note_on_c, 4, 57, 76
10, 310560, Note_on_c, 4, 53, 76
10, 311024, Note_on_c, 4, 57, 0
10, 311024, Note_on_c, 4, 53, 0
10, 311040, Note_on_c, 4, 41, 52
10, 311504, Note_on_c, 4, 41, 0
10, 311520, Note_on_c, 4, 41, 52
10, 311999, Note_on_c, 4, 41, 0
10, 311999, End_track
11, 0, Start_track
11, 0, Title_t, "French Horn in F"
11, 0, MIDI_port, 0
11, 0, Program_c, 5, 60
11, 0, Control_c, 5, 7, 96
11, 0, Control_c, 5, 10, 45
11, 0, Control_c, 5, 11, 127
11, 5760, Note_on_c, 5, 60, 76
11, 5760, Note_on_c, 5, 48, 76
11, 5984, Note_on_c, 5, 60, 0
11, 5984, Note_on_c, 5, 48, 0
11, 6000, Note_on_c, 5, 60, 76
11, 6000, Note_on_c, 5, 48, 76
11, 6224, Note_on_c, 5, 60, 0
11, 6224, Note_on_c, 5, 48, 0
11, 6240, Note_on_c, 5, 60, 76
11, 6240, Note_on_c, 5, 48, 76
11, 6584, Note_on_c, 5, 60, 0
11, 6584, Note_on_c, 5, 48, 0
11, 6600, Note_on_c, 5, 53, 76
11, 6600, Note_on_c, 5, 65, 76
11, 6704, Note_on_c, 5, 53, 0
11, 6704, Note_on_c, 5, 65, 0
11, 6720, Note_on_c, 5, 65, 52
11, 6720, Note_on_c, 5, 53, 52
11, 6944, Note_on_c, 5, 65, 0
11, 6944, Note_on_c, 5, 53, 0
11, 6960, Note_on_c, 5, 65, 52
11, 6960, Note_on_c, 5, 53, 52
11, 7184, Note_on_c, 5, 65, 0
11, 7184, Note_on_c, 5, 53, 0
11, 7200, Note_on_c, 5, 60, 52
11, 7200, Note_on_c, 5, 48, 52
11, 7439, Note_on_c, 5, 60, 0
11, 7439, Note_on_c, 5, 48, 0
11, 7680, Note_on_c, 5, 48, 58
11, 7680, Note_on_c, 5, 60, 58
11, 7919, Note_on_c, 5, 48, 0
11, 7919, Note_on_c, 5, 60, 0
11, 8160, Note_on_c, 5, 48, 64
11, 8160, Note_on_c, 5, 60, 64
11, 8399, Note_on_c, 5, 48, 0
11, 8399, Note_on_c, 5, 60, 0
11, 8640, Note_on_c, 5, 48, 70
11, 8640, Note_on_c, 5, 60, 70
11, 8879, Note_on_c, 5, 48, 0
11, 8879, Note_on_c, 5, 60, 0
11, 9120, Note_on_c, 5, 60, 76
11, 9120, Note_on_c, 5, 48, 76
11, 9359, Note_on_c, 5, 60, 0
11, 9359, Note_on_c, 5, 48, 0
11, 9600, Note_on_c, 5, 60, 76
11, 9600, Note_on_c, 5, 48, 76
11, 9839, Note_on_c, 5, 60, 0
11, 9839, Note_on_c, 5, 48, 0
11, 10080, Note_on_c, 5, 48, 68
11, 10080, Note_on_c, 5, 60, 68
11, 10319, Note_on_c, 5, 48, 0
11, 10319, Note_on_c, 5, 60, 0
11, 10560, Note_on_c, 5, 48, 60
11, 10560, Note_on_c, 5, 60, 60
11, 10799, Note_on_c, 5, 48, 0
11, 10799, Note_on_c, 5, 60, 0
11, 11040, Note_on_c, 5, 60, 52
11, 11040, Note_on_c, 5, 48, 52
11, 11279, Note_on_c, 5, 60, 0
11, 11279, Note_on_c, 5, 48, 0
11, 11520, Note_on_c, 5, 60, 44
11, 11520, Note_on_c, 5, 48, 44
11, 11639, Note_on_c, 5, 60, 0
11, 11639, Note_on_c, 5, 48, 0
11, 13440, Note_on_c, 5, 53, 44
11, 13440, Note_on_c, 5, 60, 44
11, 15464, Note_on_c, 5, 53, 0
11, 15464, Note_on_c, 5, 60, 0
11, 15480, Note_on_c, 5, 53, 46
11, 15480, Note_on_c, 5, 60, 46
11, 15599, Note_on_c, 5, 53, 0
11, 15599, Note_on_c, 5, 60, 0
11, 15720, Note_on_c, 5, 53, 50
11, 15720, Note_on_c, 5, 60, 50
11, 15839, Note_on_c, 5, 53, 0
11, 15839, Note_on_c, 5, 60, 0
11, 15960, Note_on_c, 5, 53, 54
11, 15960, Note_on_c, 5, 60, 54
11, 16079, Note_on_c, 5, 53, 0
11, 16079, Note_on_c, 5, 60, 0
11, 16200, Note_on_c, 5, 60, 58
11, 16200, Note_on_c, 5, 53, 58
11, 16319, Note_on_c, 5, 60, 0
11, 16319, Note_on_c, 5, 53, 0
11, 16440, Note_on_c, 5, 60, 62
11, 16440, Note_on_c, 5, 53, 62
11, 16559, Note_on_c, 5, 60, 0
11, 16559, Note_on_c, 5, 53, 0
11, 16680, Note_on_c, 5, 53, 66
11, 16680, Note_on_c, 5, 60, 66
11, 16799, Note_on_c, 5, 53, 0
11, 16799, Note_on_c, 5, 60, 0
11, 16920, Note_on_c, 5, 53, 70
11, 16920, Note_on_c, 5, 60, 70
11, 17039, Note_on_c, 5, 53, 0
11, 17039, Note_on_c, 5, 60, 0
11, 17160, Note_on_c, 5, 60, 74
11, 17160, Note_on_c, 5, 53, 74
11, 17264, Note_on_c, 5, 60, 0
11, 17264, Note_on_c, 5, 53, 0
11, 17280, Note_on_c, 5, 60, 76
11, 17280, Note_on_c, 5, 53, 76
11, 17384, Note_on_c, 5, 60, 0
11, 17384, Note_on_c, 5, 53, 0
11, 17400, Note_on_c, 5, 65, 76
11, 17400, Note_on_c, 5, 69, 76
11, 17504, Note_on_c, 5, 65, 0
11, 17504, Note_on_c, 5, 69, 0
11, 17520, Note_on_c, 5, 67, 76
11, 17520, Note_on_c, 5, 70, 76
11, 17624, Note_on_c, 5, 67, 0
11, 17624, Note_on_c, 5, 70, 0
11, 17640, Note_on_c, 5, 67, 76
11, 17640, Note_on_c, 5, 70, 76
11, 17744, Note_on_c, 5, 67, 0
11, 17744, Note_on_c, 5, 70, 0
11, 17760, Note_on_c, 5, 69, 76
11, 17760, Note_on_c, 5, 72, 76
11, 17879, Note_on_c, 5, 69, 0
11, 17879, Note_on_c, 5, 72, 0
11, 17880, Note_on_c, 5, 67, 76
11, 17880, Note_on_c, 5, 70, 76
11, 17939, Note_on_c, 5, 67, 0
11, 17939, Note_on_c, 5, 70, 0
11, 17940, Note_on_c, 5, 65, 76
11, 17940, Note_on_c, 5, 69, 76
11, 17991, Note_on_c, 5, 65, 0
11, 17991, Note_on_c, 5, 69, 0
11, 18000, Note_on_c, 5, 67, 76
11, 18000, Note_on_c, 5, 60, 76
11, 18104, Note_on_c, 5, 67, 0
11, 18104, Note_on_c, 5, 60, 0
11, 18120, Note_on_c, 5, 60, 76
11, 18224, Note_on_c, 5, 60, 0
11, 18240, Note_on_c, 5, 65, 76
11, 18240, Note_on_c, 5, 57, 76
11, 18329, Note_on_c, 5, 65, 0
11, 18329, Note_on_c, 5, 57, 0
11, 18360, Note_on_c, 5, 60, 76
11, 18360, Note_on_c, 5, 67, 76
11, 18449, Note_on_c, 5, 60, 0
11, 18449, Note_on_c, 5, 67, 0
11, 18480, Note_on_c, 5, 69, 76
11, 18480, Note_on_c, 5, 65, 76
11, 18704, Note_on_c, 5, 69, 0
11, 18704, Note_on_c, 5, 65, 0
11, 18720, Note_on_c, 5, 67, 76
11, 18720, Note_on_c, 5, 60, 76
11, 18809, Note_on_c, 5, 67, 0
11, 18809, Note_on_c, 5, 60, 0
11, 18840, Note_on_c, 5, 65, 76
11, 18840, Note_on_c, 5, 69, 76
11, 18929, Note_on_c, 5, 65, 0
11, 18929, Note_on_c, 5, 69, 0
11, 18960, Note_on_c, 5, 67, 76
11, 18960, Note_on_c, 5, 70, 76
11, 19184, Note_on_c, 5, 67, 0
11, 19184, Note_on_c, 5, 70, 0
11, 19200, Note_on_c, 5, 69, 76
11, 19200, Note_on_c, 5, 65, 76
11, 19319, Note_on_c, 5, 69, 0
11, 19319, Note_on_c, 5, 65, 0
11, 19320, Note_on_c, 5, 69, 76
11, 19320, Note_on_c, 5, 72, 76
11, 19424, Note_on_c, 5, 69, 0
11, 19424, Note_on_c, 5, 72, 0
11, 19440, Note_on_c, 5, 69, 76
11, 19440, Note_on_c, 5, 72, 76
11, 19529, Note_on_c, 5, 69, 0
11, 19529, Note_on_c, 5, 72, 0
11, 19560, Note_on_c, 5, 72, 76
11, 19560, Note_on_c, 5, 69, 76
11, 19649, Note_on_c, 5, 72, 0
11, 19649, Note_on_c, 5, 69, 0
11, 19680, Note_on_c, 5, 69, 76
11, 19680, Note_on_c, 5, 72, 76
11, 19904, Note_on_c, 5, 69, 0
11, 19904, Note_on_c, 5, 72, 0
11, 19920, Note_on_c, 5, 69, 76
11, 19920, Note_on_c, 5, 65, 76
11, 20024, Note_on_c, 5, 69, 0
11, 20024, Note_on_c, 5, 65, 0
11, 20040, Note_on_c, 5, 65, 76
11, 20040, Note_on_c, 5, 57, 76
11, 20159, Note_on_c, 5, 65, 0
11, 20159, Note_on_c, 5, 57, 0
11, 20280, Note_on_c, 5, 57, 76
11, 20280, Note_on_c, 5, 65, 76
11, 20384, Note_on_c, 5, 57, 0
11, 20384, Note_on_c, 5, 65, 0
11, 20400, Note_on_c, 5, 67, 76
11, 20400, Note_on_c, 5, 60, 76
11, 20624, Note_on_c, 5, 67, 0
11, 20624, Note_on_c, 5, 60, 0
11, 20640, Note_on_c, 5, 57, 76
11, 20640, Note_on_c, 5, 65, 76
11, 20729, Note_on_c, 5, 57, 0
11, 20729, Note_on_c, 5, 65, 0
11, 20760, Note_on_c, 5, 67, 76
11, 20760, Note_on_c, 5, 60, 76
11, 20849, Note_on_c, 5, 67, 0
11, 20849, Note_on_c, 5, 60, 0
11, 20880, Note_on_c, 5, 69, 76
11, 20880, Note_on_c, 5, 65, 76
11, 21104, Note_on_c, 5, 69, 0
11, 21104, Note_on_c, 5, 65, 0
11, 21120, Note_on_c, 5, 60, 76
11, 21120, Note_on_c, 5, 67, 76
11, 21224, Note_on_c, 5, 60, 0
11, 21224, Note_on_c, 5, 67, 0
11, 21240, Note_on_c, 5, 67, 76
11, 21240, Note_on_c, 5, 70, 76
11, 21344, Note_on_c, 5, 67, 0
11, 21344, Note_on_c, 5, 70, 0
11, 21360, Note_on_c, 5, 70, 76
11, 21360, Note_on_c, 5, 67, 76
11, 21449, Note_on_c, 5, 70, 0
11, 21449, Note_on_c, 5, 67, 0
11, 21480, Note_on_c, 5, 67, 76
11, 21480, Note_on_c, 5, 70, 76
11, 21569, Note_on_c, 5, 67, 0
11, 21569, Note_on_c, 5, 70, 0
11, 21600, Note_on_c, 5, 70, 76
11, 21600, Note_on_c, 5, 67, 76
11, 21944, Note_on_c, 5, 70, 0
11, 21944, Note_on_c, 5, 67, 0
11, 21960, Note_on_c, 5, 60, 76
11, 21960, Note_on_c, 5, 67, 76
11, 22064, Note_on_c, 5, 60, 0
11, 22064, Note_on_c, 5, 67, 0
11, 22080, Note_on_c, 5, 65, 76
11, 22080, Note_on_c, 5, 69, 76
11, 22169, Note_on_c, 5, 65, 0
11, 22169, Note_on_c, 5, 69, 0
11, 22200, Note_on_c, 5, 70, 76
11, 22200, Note_on_c, 5, 67, 76
11, 22289, Note_on_c, 5, 70, 0
11, 22289, Note_on_c, 5, 67, 0
11, 22320, Note_on_c, 5, 72, 76
11, 22320, Note_on_c, 5, 69, 76
11, 22544, Note_on_c, 5, 72, 0
11, 22544, Note_on_c, 5, 69, 0
11, 22560, Note_on_c, 5, 70, 76
11, 22560, Note_on_c, 5, 67, 76
11, 22664, Note_on_c, 5, 70, 0
11, 22664, Note_on_c, 5, 67, 0
11, 22680, Note_on_c, 5, 67, 76
11, 22680, Note_on_c, 5, 60, 76
11, 22784, Note_on_c, 5, 67, 0
11, 22784, Note_on_c, 5, 60, 0
11, 22800, Note_on_c, 5, 67, 76
11, 22800, Note_on_c, 5, 70, 76
11, 22904, Note_on_c, 5, 67, 0
11, 22904, Note_on_c, 5, 70, 0
11, 22920, Note_on_c, 5, 60, 76
11, 22920, Note_on_c, 5, 67, 76
11, 23024, Note_on_c, 5, 60, 0
11, 23024, Note_on_c, 5, 67, 0
11, 23040, Note_on_c, 5, 69, 76
11, 23040, Note_on_c, 5, 65, 76
11, 23129, Note_on_c, 5, 69, 0
11, 23129, Note_on_c, 5, 65, 0
11, 23160, Note_on_c, 5, 70, 76
11, 23160, Note_on_c, 5, 67, 76
11, 23249, Note_on_c, 5, 70, 0
11, 23249, Note_on_c, 5, 67, 0
11, 23280, Note_on_c, 5, 69, 76
11, 23280, Note_on_c, 5, 72, 76
11, 23504, Note_on_c, 5, 69, 0
11, 23504, Note_on_c, 5, 72, 0
11, 23520, Note_on_c, 5, 70, 76
11, 23520, Note_on_c, 5, 67, 76
11, 23624, Note_on_c, 5, 70, 0
11, 23624, Note_on_c, 5, 67, 0
11, 23640, Note_on_c, 5, 60, 76
11, 23640, Note_on_c, 5, 67, 76
11, 23744, Note_on_c, 5, 60, 0
11, 23744, Note_on_c, 5, 67, 0
11, 23760, Note_on_c, 5, 70, 76
11, 23760, Note_on_c, 5, 67, 76
11, 23864, Note_on_c, 5, 70, 0
11, 23864, Note_on_c, 5, 67, 0
11, 23880, Note_on_c, 5, 67, 76
11, 23880, Note_on_c, 5, 60, 76
11, 23984, Note_on_c, 5, 67, 0
11, 23984, Note_on_c, 5, 60, 0
11, 24000, Note_on_c, 5, 65, 76
11, 24000, Note_on_c, 5, 69, 76
11, 24104, Note_on_c, 5, 65, 0
11, 24104, Note_on_c, 5, 69, 0
11, 24120, Note_on_c, 5, 60, 76
11, 24120, Note_on_c, 5, 67, 76
11, 24224, Note_on_c, 5, 60, 0
11, 24224, Note_on_c, 5, 67, 0
11, 24240, Note_on_c, 5, 67, 76
11, 24240, Note_on_c, 5, 60, 76
11, 24344, Note_on_c, 5, 67, 0
11, 24344, Note_on_c, 5, 60, 0
11, 24360, Note_on_c, 5, 60, 76
11, 24360, Note_on_c, 5, 67, 76
11, 24464, Note_on_c, 5, 60, 0
11, 24464, Note_on_c, 5, 67, 0
11, 24480, Note_on_c, 5, 69, 76
11, 24480, Note_on_c, 5, 65, 76
11, 24584, Note_on_c, 5, 69, 0
11, 24584, Note_on_c, 5, 65, 0
11, 24600, Note_on_c, 5, 67, 76
11, 24600, Note_on_c, 5, 60, 76
11, 24704, Note_on_c, 5, 67, 0
11, 24704, Note_on_c, 5, 60, 0
11, 24720, Note_on_c, 5, 67, 76
11, 24720, Note_on_c, 5, 60, 76
11, 24824, Note_on_c, 5, 67, 0
11, 24824, Note_on_c, 5, 60, 0
11, 24840, Note_on_c, 5, 67, 76
11, 24840, Note_on_c, 5, 60, 76
11, 24944, Note_on_c, 5, 67, 0
11, 24944, Note_on_c, 5, 60, 0
11, 24960, Note_on_c, 5, 65, 76
11, 24960, Note_on_c, 5, 69, 76
11, 25079, Note_on_c, 5, 65, 0
11, 25079, Note_on_c, 5, 69, 0
11, 26880, Note_on_c, 5, 65, 52
11, 26880, Note_on_c, 5, 57, 52
11, 26947, Note_on_c, 5, 65, 0
11, 26947, Note_on_c, 5, 57, 0
11, 26960, Note_on_c, 5, 65, 52
11, 26960, Note_on_c, 5, 57, 52
11, 27027, Note_on_c, 5, 65, 0
11, 27027, Note_on_c, 5, 57, 0
11, 27040, Note_on_c, 5, 65, 52
11, 27040, Note_on_c, 5, 57, 52
11, 27107, Note_on_c, 5, 65, 0
11, 27107, Note_on_c, 5, 57, 0
11, 27120, Note_on_c, 5, 65, 52
11, 27120, Note_on_c, 5, 57, 52
11, 27187, Note_on_c, 5, 65, 0
11, 27187, Note_on_c, 5, 57, 0
11, 27200, Note_on_c, 5, 57, 52
11, 27200, Note_on_c, 5, 65, 52
11, 27267, Note_on_c, 5, 57, 0
11, 27267, Note_on_c, 5, 65, 0
11, 27280, Note_on_c, 5, 65, 52
11, 27280, Note_on_c, 5, 57, 52
11, 27347, Note_on_c, 5, 65, 0
11, 27347, Note_on_c, 5, 57, 0
11, 27360, Note_on_c, 5, 65, 52
11, 27360, Note_on_c, 5, 57, 52
11, 27479, Note_on_c, 5, 65, 0
11, 27479, Note_on_c, 5, 57, 0
11, 28800, Note_on_c, 5, 57, 52
11, 28800, Note_on_c, 5, 65, 52
11, 28867, Note_on_c, 5, 57, 0
11, 28867, Note_on_c, 5, 65, 0
11, 28880, Note_on_c, 5, 65, 52
11, 28880, Note_on_c, 5, 57, 52
11, 28947, Note_on_c, 5, 65, 0
11, 28947, Note_on_c, 5, 57, 0
11, 28960, Note_on_c, 5, 65, 52
11, 28960, Note_on_c, 5, 57, 52
11, 29027, Note_on_c, 5, 65, 0
11, 29027, Note_on_c, 5, 57, 0
11, 29040, Note_on_c, 5, 57, 52
11, 29040, Note_on_c, 5, 65, 52
11, 29107, Note_on_c, 5, 57, 0
11, 29107, Note_on_c, 5, 65, 0
11, 29120, Note_on_c, 5, 57, 52
11, 29120, Note_on_c, 5, 65, 52
11, 29187, Note_on_c, 5, 57, 0
11, 29187, Note_on_c, 5, 65, 0
11, 29200, Note_on_c, 5, 65, 52
11, 29200, Note_on_c, 5, 57, 52
11, 29267, Note_on_c, 5, 65, 0
11, 29267, Note_on_c, 5, 57, 0
11, 29280, Note_on_c, 5, 65, 52
11, 29280, Note_on_c, 5, 57, 52
11, 29399, Note_on_c, 5, 65, 0
11, 29399, Note_on_c, 5, 57, 0
11, 41219, Control_c, 5, 11, 111
11, 41280, Note_on_c, 5, 67, 76
11, 41403, Control_c, 5, 11, 112
11, 41586, Control_c, 5, 11, 113
11, 41770, Control_c, 5, 11, 114
11, 41954, Control_c, 5, 11, 115
11, 42138, Control_c, 5, 11, 116
11, 42224, Note_on_c, 5, 67, 0
11, 42240, Note_on_c, 5, 72, 76
11, 42240, Note_on_c, 5, 60, 76
11, 42322, Control_c, 5, 11, 117
11, 42506, Control_c, 5, 11, 118
11, 42689, Control_c, 5, 11, 119
11, 42873, Control_c, 5, 11, 120
11, 43057, Control_c, 5, 11, 121
11, 43184, Note_on_c, 5, 72, 0
11, 43184, Note_on_c, 5, 60, 0
11, 43200, Note_on_c, 5, 67, 76
11, 43200, Note_on_c, 5, 71, 76
11, 43241, Control_c, 5, 11, 122
11, 43424, Note_on_c, 5, 67, 0
11, 43424, Note_on_c, 5, 71, 0
11, 43425, Control_c, 5, 11, 123
11, 43440, Note_on_c, 5, 67, 76
11, 43440, Note_on_c, 5, 71, 76
11, 43609, Control_c, 5, 11, 124
11, 43664, Note_on_c, 5, 67, 0
11, 43664, Note_on_c, 5, 71, 0
11, 43680, Note_on_c, 5, 71, 76
11, 43680, Note_on_c, 5, 67, 76
11, 43792, Control_c, 5, 11, 125
11, 43904, Note_on_c, 5, 71, 0
11, 43904, Note_on_c, 5, 67, 0
11, 43920, Note_on_c, 5, 74, 76
11, 43920, Note_on_c, 5, 67, 76
11, 43976, Control_c, 5, 11, 127
11, 44024, Note_on_c, 5, 74, 0
11, 44040, Note_on_c, 5, 71, 76
11, 44144, Note_on_c, 5, 67, 0
11, 44144, Note_on_c, 5, 71, 0
11, 44160, Note_on_c, 5, 72, 76
11, 44160, Note_on_c, 5, 60, 76
11, 45224, Note_on_c, 5, 72, 0
11, 45224, Note_on_c, 5, 60, 0
11, 45240, Note_on_c, 5, 48, 76
11, 45240, Note_on_c, 5, 60, 76
11, 45344, Note_on_c, 5, 48, 0
11, 45344, Note_on_c, 5, 60, 0
11, 45360, Note_on_c, 5, 60, 76
11, 45360, Note_on_c, 5, 48, 76
11, 45464, Note_on_c, 5, 60, 0
11, 45464, Note_on_c, 5, 48, 0
11, 45480, Note_on_c, 5, 48, 76
11, 45480, Note_on_c, 5, 60, 76
11, 45584, Note_on_c, 5, 48, 0
11, 45584, Note_on_c, 5, 60, 0
11, 45600, Note_on_c, 5, 60, 76
11, 45600, Note_on_c, 5, 48, 76
11, 45719, Note_on_c, 5, 60, 0
11, 45719, Note_on_c, 5, 48, 0
11, 47520, Note_on_c, 5, 72, 84
11, 47520, Note_on_c, 5, 60, 84
11, 48559, Note_on_c, 5, 72, 0
11, 48559, Note_on_c, 5, 60, 0
11, 48560, Note_on_c, 5, 48, 84
11, 48560, Note_on_c, 5, 60, 84
11, 48639, Note_on_c, 5, 48, 0
11, 48639, Note_on_c, 5, 60, 0
11, 48640, Note_on_c, 5, 48, 84
11, 48640, Note_on_c, 5, 60, 84
11, 48707, Note_on_c, 5, 48, 0
11, 48707, Note_on_c, 5, 60, 0
11, 48720, Note_on_c, 5, 48, 84
11, 48720, Note_on_c, 5, 60, 84
11, 48799, Note_on_c, 5, 48, 0
11, 48799, Note_on_c, 5, 60, 0
11, 48800, Note_on_c, 5, 48, 84
11, 48800, Note_on_c, 5, 60, 84
11, 48879, Note_on_c, 5, 48, 0
11, 48879, Note_on_c, 5, 60, 0
11, 48880, Note_on_c, 5, 60, 84
11, 48880, Note_on_c, 5, 48, 84
11, 48947, Note_on_c, 5, 60, 0
11, 48947, Note_on_c, 5, 48, 0
11, 48960, Note_on_c, 5, 60, 76
11, 48960, Note_on_c, 5, 48, 76
11, 49079, Note_on_c, 5, 60, 0
11, 49079, Note_on_c, 5, 48, 0
11, 49440, Note_on_c, 5, 60, 52
11, 49440, Note_on_c, 5, 48, 52
11, 50384, Note_on_c, 5, 60, 0
11, 50384, Note_on_c, 5, 48, 0
11, 50400, Note_on_c, 5, 67, 52
11, 50864, Note_on_c, 5, 67, 0
11, 50878, Control_c, 5, 11, 80
11, 50880, Note_on_c, 5, 60, 76
11, 50880, Note_on_c, 5, 48, 76
11, 51104, Note_on_c, 5, 60, 0
11, 51104, Note_on_c, 5, 48, 0
11, 51120, Control_c, 5, 11, 80
11, 51120, Note_on_c, 5, 48, 76
11, 51120, Note_on_c, 5, 60, 76
11, 51167, Control_c, 5, 11, 81
11, 51213, Control_c, 5, 11, 83
11, 51260, Control_c, 5, 11, 84
11, 51307, Control_c, 5, 11, 85
11, 51353, Control_c, 5, 11, 87
11, 51400, Control_c, 5, 11, 88
11, 51447, Control_c, 5, 11, 89
11, 51493, Control_c, 5, 11, 90
11, 51540, Control_c, 5, 11, 92
11, 51584, Note_on_c, 5, 48, 0
11, 51584, Note_on_c, 5, 60, 0
11, 51587, Control_c, 5, 11, 93
11, 51600, Note_on_c, 5, 60, 76
11, 51600, Note_on_c, 5, 48, 76
11, 51633, Control_c, 5, 11, 94
11, 51680, Control_c, 5, 11, 96
11, 51727, Control_c, 5, 11, 97
11, 51773, Control_c, 5, 11, 98
11, 51820, Control_c, 5, 11, 100
11, 51867, Control_c, 5, 11, 101
11, 51913, Control_c, 5, 11, 102
11, 51960, Control_c, 5, 11, 104
11, 52007, Control_c, 5, 11, 105
11, 52053, Control_c, 5, 11, 106
11, 52064, Note_on_c, 5, 60, 0
11, 52064, Note_on_c, 5, 48, 0
11, 52080, Note_on_c, 5, 60, 76
11, 52080, Note_on_c, 5, 48, 76
11, 52100, Control_c, 5, 11, 107
11, 52147, Control_c, 5, 11, 109
11, 52193, Control_c, 5, 11, 110
11, 52240, Control_c, 5, 11, 111
11, 52287, Control_c, 5, 11, 113
11, 52304, Note_on_c, 5, 60, 0
11, 52304, Note_on_c, 5, 48, 0
11, 52320, Note_on_c, 5, 67, 76
11, 52333, Control_c, 5, 11, 114
11, 52380, Control_c, 5, 11, 115
11, 52427, Control_c, 5, 11, 117
11, 52473, Control_c, 5, 11, 118
11, 52520, Control_c, 5, 11, 119
11, 52544, Note_on_c, 5, 67, 0
11, 52560, Note_on_c, 5, 67, 76
11, 52567, Control_c, 5, 11, 120
11, 52613, Control_c, 5, 11, 122
11, 52660, Control_c, 5, 11, 123
11, 52707, Control_c, 5, 11, 124
11, 52753, Control_c, 5, 11, 127
11, 52784, Note_on_c, 5, 67, 0
11, 52800, Note_on_c, 5, 48, 76
11, 52800, Note_on_c, 5, 60, 76
11, 52867, Note_on_c, 5, 48, 0
11, 52867, Note_on_c, 5, 60, 0
11, 52880, Note_on_c, 5, 60, 76
11, 52880, Note_on_c, 5, 48, 76
11, 52947, Note_on_c, 5, 60, 0
11, 52947, Note_on_c, 5, 48, 0
11, 52960, Note_on_c, 5, 60, 76
11, 52960, Note_on_c, 5, 48, 76
11, 53027, Note_on_c, 5, 60, 0
11, 53027, Note_on_c, 5, 48, 0
11, 53040, Note_on_c, 5, 60, 76
11, 53040, Note_on_c, 5, 48, 76
11, 53107, Note_on_c, 5, 60, 0
11, 53107, Note_on_c, 5, 48, 0
11, 53120, Note_on_c, 5, 48, 76
11, 53120, Note_on_c, 5, 60, 76
11, 53187, Note_on_c, 5, 48, 0
11, 53187, Note_on_c, 5, 60, 0
11, 53200, Note_on_c, 5, 60, 76
11, 53200, Note_on_c, 5, 48, 76
11, 53267, Note_on_c, 5, 60, 0
11, 53267, Note_on_c, 5, 48, 0
11, 53280, Note_on_c, 5, 65, 76
11, 53280, Note_on_c, 5, 53, 76
11, 53399, Note_on_c, 5, 65, 0
11, 53399, Note_on_c, 5, 53, 0
11, 53520, Note_on_c, 5, 57, 76
11, 53520, Note_on_c, 5, 69, 76
11, 53639, Note_on_c, 5, 57, 0
11, 53639, Note_on_c, 5, 69, 0
11, 53760, Note_on_c, 5, 60, 76
11, 53760, Note_on_c, 5, 72, 76
11, 53879, Note_on_c, 5, 60, 0
11, 53879, Note_on_c, 5, 72, 0
11, 54000, Note_on_c, 5, 67, 76
11, 54119, Note_on_c, 5, 67, 0
11, 54240, Note_on_c, 5, 67, 76
11, 54359, Note_on_c, 5, 67, 0
11, 54480, Note_on_c, 5, 67, 76
11, 54599, Note_on_c, 5, 67, 0
11, 54720, Note_on_c, 5, 48, 76
11, 54720, Note_on_c, 5, 60, 76
11, 54787, Note_on_c, 5, 48, 0
11, 54787, Note_on_c, 5, 60, 0
11, 54800, Note_on_c, 5, 60, 76
11, 54800, Note_on_c, 5, 48, 76
11, 54867, Note_on_c, 5, 60, 0
11, 54867, Note_on_c, 5, 48, 0
11, 54880, Note_on_c, 5, 60, 76
11, 54880, Note_on_c, 5, 48, 76
11, 54947, Note_on_c, 5, 60, 0
11, 54947, Note_on_c, 5, 48, 0
11, 54960, Note_on_c, 5, 48, 76
11, 54960, Note_on_c, 5, 60, 76
11, 55747, Note_on_c, 5, 48, 0
11, 55747, Note_on_c, 5, 60, 0
11, 55760, Note_on_c, 5, 60, 76
11, 55760, Note_on_c, 5, 48, 76
11, 55827, Note_on_c, 5, 60, 0
11, 55827, Note_on_c, 5, 48, 0
11, 55840, Note_on_c, 5, 60, 76
11, 55840, Note_on_c, 5, 48, 76
11, 55907, Note_on_c, 5, 60, 0
11, 55907, Note_on_c, 5, 48, 0
11, 55920, Note_on_c, 5, 48, 76
11, 55920, Note_on_c, 5, 60, 76
11, 56707, Note_on_c, 5, 48, 0
11, 56707, Note_on_c, 5, 60, 0
11, 56720, Note_on_c, 5, 48, 76
11, 56720, Note_on_c, 5, 60, 76
11, 56787, Note_on_c, 5, 48, 0
11, 56787, Note_on_c, 5, 60, 0
11, 56800, Note_on_c, 5, 60, 76
11, 56800, Note_on_c, 5, 48, 76
11, 56867, Note_on_c, 5, 60, 0
11, 56867, Note_on_c, 5, 48, 0
11, 56880, Note_on_c, 5, 48, 76
11, 56880, Note_on_c, 5, 60, 76
11, 57667, Note_on_c, 5, 48, 0
11, 57667, Note_on_c, 5, 60, 0
11, 57680, Note_on_c, 5, 60, 76
11, 57680, Note_on_c, 5, 48, 76
11, 57747, Note_on_c, 5, 60, 0
11, 57747, Note_on_c, 5, 48, 0
11, 57760, Note_on_c, 5, 48, 76
11, 57760, Note_on_c, 5, 60, 76
11, 57827, Note_on_c, 5, 48, 0
11, 57827, Note_on_c, 5, 60, 0
11, 57840, Note_on_c, 5, 48, 76
11, 57840, Note_on_c, 5, 60, 76
11, 58560, Control_c, 5, 11, 127
11, 58627, Note_on_c, 5, 48, 0
11, 58627, Note_on_c, 5, 60, 0
11, 58640, Note_on_c, 5, 48, 76
11, 58640, Control_c, 5, 11, 125
11, 58640, Note_on_c, 5, 60, 76
11, 58707, Note_on_c, 5, 48, 0
11, 58707, Note_on_c, 5, 60, 0
11, 58720, Note_on_c, 5, 60, 76
11, 58720, Note_on_c, 5, 48, 76
11, 58720, Control_c, 5, 11, 123
11, 58787, Note_on_c, 5, 60, 0
11, 58787, Note_on_c, 5, 48, 0
11, 58800, Control_c, 5, 11, 121
11, 58800, Note_on_c, 5, 48, 76
11, 58800, Note_on_c, 5, 60, 76
11, 58880, Control_c, 5, 11, 119
11, 58960, Control_c, 5, 11, 117
11, 59040, Control_c, 5, 11, 115
11, 59107, Note_on_c, 5, 48, 0
11, 59107, Note_on_c, 5, 60, 0
11, 59120, Note_on_c, 5, 60, 76
11, 59120, Control_c, 5, 11, 113
11, 59120, Note_on_c, 5, 48, 76
11, 59187, Note_on_c, 5, 60, 0
11, 59187, Note_on_c, 5, 48, 0
11, 59200, Note_on_c, 5, 60, 76
11, 59200, Control_c, 5, 11, 111
11, 59200, Note_on_c, 5, 48, 76
11, 59267, Note_on_c, 5, 60, 0
11, 59267, Note_on_c, 5, 48, 0
11, 59280, Note_on_c, 5, 60, 76
11, 59280, Control_c, 5, 11, 109
11, 59280, Note_on_c, 5, 48, 76
11, 59360, Control_c, 5, 11, 107
11, 59440, Control_c, 5, 11, 105
11, 59520, Control_c, 5, 11, 104
11, 59587, Note_on_c, 5, 60, 0
11, 59587, Note_on_c, 5, 48, 0
11, 59600, Note_on_c, 5, 48, 76
11, 59600, Control_c, 5, 11, 102
11, 59600, Note_on_c, 5, 60, 76
11, 59667, Note_on_c, 5, 48, 0
11, 59667, Note_on_c, 5, 60, 0
11, 59680, Note_on_c, 5, 60, 76
11, 59680, Note_on_c, 5, 48, 76
11, 59680, Control_c, 5, 11, 100
11, 59747, Note_on_c, 5, 60, 0
11, 59747, Note_on_c, 5, 48, 0
11, 59760, Control_c, 5, 11, 98
11, 59760, Note_on_c, 5, 60, 76
11, 59760, Note_on_c, 5, 48, 76
11, 59840, Control_c, 5, 11, 96
11, 59920, Control_c, 5, 11, 94
11, 60000, Control_c, 5, 11, 92
11, 60067, Note_on_c, 5, 60, 0
11, 60067, Note_on_c, 5, 48, 0
11, 60080, Control_c, 5, 11, 90
11, 60080, Note_on_c, 5, 60, 76
11, 60080, Note_on_c, 5, 48, 76
11, 60147, Note_on_c, 5, 60, 0
11, 60147, Note_on_c, 5, 48, 0
11, 60160, Control_c, 5, 11, 88
11, 60160, Note_on_c, 5, 48, 76
11, 60160, Note_on_c, 5, 60, 76
11, 60227, Note_on_c, 5, 48, 0
11, 60227, Note_on_c, 5, 60, 0
11, 60240, Control_c, 5, 11, 86
11, 60240, Note_on_c, 5, 60, 76
11, 60240, Note_on_c, 5, 48, 76
11, 60320, Control_c, 5, 11, 84
11, 60400, Control_c, 5, 11, 80
11, 60599, Note_on_c, 5, 60, 0
11, 60599, Note_on_c, 5, 48, 0
11, 60960, Control_c, 5, 11, 127
11, 72000, Note_on_c, 5, 48, 76
11, 72000, Note_on_c, 5, 60, 76
11, 72224, Note_on_c, 5, 48, 0
11, 72224, Note_on_c, 5, 60, 0
11, 72240, Note_on_c, 5, 60, 76
11, 72240, Note_on_c, 5, 48, 76
11, 72464, Note_on_c, 5, 60, 0
11, 72464, Note_on_c, 5, 48, 0
11, 72480, Note_on_c, 5, 48, 76
11, 72480, Note_on_c, 5, 60, 76
11, 72824, Note_on_c, 5, 48, 0
11, 72824, Note_on_c, 5, 60, 0
11, 72840, Note_on_c, 5, 53, 76
11, 72840, Note_on_c, 5, 65, 76
11, 72944, Note_on_c, 5, 53, 0
11, 72944, Note_on_c, 5, 65, 0
11, 72960, Note_on_c, 5, 65, 52
11, 72960, Note_on_c, 5, 53, 52
11, 73184, Note_on_c, 5, 65, 0
11, 73184, Note_on_c, 5, 53, 0
11, 73200, Note_on_c, 5, 53, 52
11, 73200, Note_on_c, 5, 65, 52
11, 73424, Note_on_c, 5, 53, 0
11, 73424, Note_on_c, 5, 65, 0
11, 73440, Note_on_c, 5, 60, 52
11, 73440, Note_on_c, 5, 48, 52
11, 73679, Note_on_c, 5, 60, 0
11, 73679, Note_on_c, 5, 48, 0
11, 73920, Note_on_c, 5, 48, 58
11, 73920, Note_on_c, 5, 60, 58
11, 74159, Note_on_c, 5, 48, 0
11, 74159, Note_on_c, 5, 60, 0
11, 74400, Note_on_c, 5, 48, 64
11, 74400, Note_on_c, 5, 60, 64
11, 74639, Note_on_c, 5, 48, 0
11, 74639, Note_on_c, 5, 60, 0
11, 74880, Note_on_c, 5, 60, 70
11, 74880, Note_on_c, 5, 48, 70
11, 75119, Note_on_c, 5, 60, 0
11, 75119, Note_on_c, 5, 48, 0
11, 75360, Note_on_c, 5, 48, 76
11, 75360, Note_on_c, 5, 60, 76
11, 75599, Note_on_c, 5, 48, 0
11, 75599, Note_on_c, 5, 60, 0
11, 75840, Note_on_c, 5, 60, 76
11, 75840, Note_on_c, 5, 48, 76
11, 76079, Note_on_c, 5, 60, 0
11, 76079, Note_on_c, 5, 48, 0
11, 76320, Note_on_c, 5, 60, 68
11, 76320, Note_on_c, 5, 48, 68
11, 76559, Note_on_c, 5, 60, 0
11, 76559, Note_on_c, 5, 48, 0
11, 76800, Note_on_c, 5, 60, 60
11, 76800, Note_on_c, 5, 48, 60
11, 77039, Note_on_c, 5, 60, 0
11, 77039, Note_on_c, 5, 48, 0
11, 77280, Note_on_c, 5, 48, 52
11, 77280, Note_on_c, 5, 60, 52
11, 77519, Note_on_c, 5, 48, 0
11, 77519, Note_on_c, 5, 60, 0
11, 77760, Note_on_c, 5, 48, 44
11, 77760, Note_on_c, 5, 60, 44
11, 77879, Note_on_c, 5, 48, 0
11, 77879, Note_on_c, 5, 60, 0
11, 79680, Note_on_c, 5, 53, 44
11, 79680, Note_on_c, 5, 60, 44
11, 81704, Note_on_c, 5, 53, 0
11, 81704, Note_on_c, 5, 60, 0
11, 81720, Note_on_c, 5, 53, 46
11, 81720, Note_on_c, 5, 60, 46
11, 81839, Note_on_c, 5, 53, 0
11, 81839, Note_on_c, 5, 60, 0
11, 81960, Note_on_c, 5, 60, 50
11, 81960, Note_on_c, 5, 53, 50
11, 82079, Note_on_c, 5, 60, 0
11, 82079, Note_on_c, 5, 53, 0
11, 82200, Note_on_c, 5, 60, 54
11, 82200, Note_on_c, 5, 53, 54
11, 82319, Note_on_c, 5, 60, 0
11, 82319, Note_on_c, 5, 53, 0
11, 82440, Note_on_c, 5, 53, 58
11, 82440, Note_on_c, 5, 60, 58
11, 82559, Note_on_c, 5, 53, 0
11, 82559, Note_on_c, 5, 60, 0
11, 82680, Note_on_c, 5, 53, 62
11, 82680, Note_on_c, 5, 60, 62
11, 82799, Note_on_c, 5, 53, 0
11, 82799, Note_on_c, 5, 60, 0
11, 82920, Note_on_c, 5, 53, 66
11, 82920, Note_on_c, 5, 60, 66
11, 83039, Note_on_c, 5, 53, 0
11, 83039, Note_on_c, 5, 60, 0
11, 83160, Note_on_c, 5, 53, 70
11, 83160, Note_on_c, 5, 60, 70
11, 83279, Note_on_c, 5, 53, 0
11, 83279, Note_on_c, 5, 60, 0
11, 83400, Note_on_c, 5, 53, 74
11, 83400, Note_on_c, 5, 60, 74
11, 83504, Note_on_c, 5, 53, 0
11, 83504, Note_on_c, 5, 60, 0
11, 83520, Note_on_c, 5, 60, 76
11, 83520, Note_on_c, 5, 53, 76
11, 83624, Note_on_c, 5, 60, 0
11, 83624, Note_on_c, 5, 53, 0
11, 83640, Note_on_c, 5, 69, 76
11, 83640, Note_on_c, 5, 65, 76
11, 83744, Note_on_c, 5, 69, 0
11, 83744, Note_on_c, 5, 65, 0
11, 83760, Note_on_c, 5, 67, 76
11, 83760, Note_on_c, 5, 70, 76
11, 83864, Note_on_c, 5, 67, 0
11, 83864, Note_on_c, 5, 70, 0
11, 83880, Note_on_c, 5, 67, 76
11, 83880, Note_on_c, 5, 70, 76
11, 83984, Note_on_c, 5, 67, 0
11, 83984, Note_on_c, 5, 70, 0
11, 84000, Note_on_c, 5, 69, 76
11, 84000, Note_on_c, 5, 72, 76
11, 84119, Note_on_c, 5, 69, 0
11, 84119, Note_on_c, 5, 72, 0
11, 84120, Note_on_c, 5, 70, 76
11, 84120, Note_on_c, 5, 67, 76
11, 84179, Note_on_c, 5, 70, 0
11, 84179, Note_on_c, 5, 67, 0
11, 84180, Note_on_c, 5, 69, 76
11, 84180, Note_on_c, 5, 65, 76
11, 84231, Note_on_c, 5, 69, 0
11, 84231, Note_on_c, 5, 65, 0
11, 84240, Note_on_c, 5, 67, 76
11, 84240, Note_on_c, 5, 60, 76
11, 84344, Note_on_c, 5, 67, 0
11, 84344, Note_on_c, 5, 60, 0
11, 84360, Note_on_c, 5, 60, 76
11, 84464, Note_on_c, 5, 60, 0
11, 84480, Note_on_c, 5, 57, 76
11, 84480, Note_on_c, 5, 65, 76
11, 84569, Note_on_c, 5, 57, 0
11, 84569, Note_on_c, 5, 65, 0
11, 84600, Note_on_c, 5, 67, 76
11, 84600, Note_on_c, 5, 60, 76
11, 84689, Note_on_c, 5, 67, 0
11, 84689, Note_on_c, 5, 60, 0
11, 84720, Note_on_c, 5, 69, 76
11, 84720, Note_on_c, 5, 65, 76
11, 84944, Note_on_c, 5, 69, 0
11, 84944, Note_on_c, 5, 65, 0
11, 84960, Note_on_c, 5, 67, 76
11, 84960, Note_on_c, 5, 60, 76
11, 85049, Note_on_c, 5, 67, 0
11, 85049, Note_on_c, 5, 60, 0
11, 85080, Note_on_c, 5, 69, 76
11, 85080, Note_on_c, 5, 65, 76
11, 85169, Note_on_c, 5, 69, 0
11, 85169, Note_on_c, 5, 65, 0
11, 85200, Note_on_c, 5, 67, 76
11, 85200, Note_on_c, 5, 70, 76
11, 85424, Note_on_c, 5, 67, 0
11, 85424, Note_on_c, 5, 70, 0
11, 85440, Note_on_c, 5, 69, 76
11, 85440, Note_on_c, 5, 65, 76
11, 85559, Note_on_c, 5, 69, 0
11, 85559, Note_on_c, 5, 65, 0
11, 85560, Note_on_c, 5, 69, 76
11, 85560, Note_on_c, 5, 72, 76
11, 85664, Note_on_c, 5, 69, 0
11, 85664, Note_on_c, 5, 72, 0
11, 85680, Note_on_c, 5, 72, 76
11, 85680, Note_on_c, 5, 69, 76
11, 85769, Note_on_c, 5, 72, 0
11, 85769, Note_on_c, 5, 69, 0
11, 85800, Note_on_c, 5, 69, 76
11, 85800, Note_on_c, 5, 72, 76
11, 85889, Note_on_c, 5, 69, 0
11, 85889, Note_on_c, 5, 72, 0
11, 85920, Note_on_c, 5, 69, 76
11, 85920, Note_on_c, 5, 72, 76
11, 86144, Note_on_c, 5, 69, 0
11, 86144, Note_on_c, 5, 72, 0
11, 86160, Note_on_c, 5, 65, 76
11, 86160, Note_on_c, 5, 69, 76
11, 86264, Note_on_c, 5, 65, 0
11, 86264, Note_on_c, 5, 69, 0
11, 86280, Note_on_c, 5, 57, 76
11, 86280, Note_on_c, 5, 65, 76
11, 86399, Note_on_c, 5, 57, 0
11, 86399, Note_on_c, 5, 65, 0
11, 86520, Note_on_c, 5, 57, 76
11, 86520, Note_on_c, 5, 65, 76
11, 86624, Note_on_c, 5, 57, 0
11, 86624, Note_on_c, 5, 65, 0
11, 86640, Note_on_c, 5, 67, 76
11, 86640, Note_on_c, 5, 60, 76
11, 86864, Note_on_c, 5, 67, 0
11, 86864, Note_on_c, 5, 60, 0
11, 86880, Note_on_c, 5, 65, 76
11, 86880, Note_on_c, 5, 57, 76
11, 86969, Note_on_c, 5, 65, 0
11, 86969, Note_on_c, 5, 57, 0
11, 87000, Note_on_c, 5, 60, 76
11, 87000, Note_on_c, 5, 67, 76
11, 87089, Note_on_c, 5, 60, 0
11, 87089, Note_on_c, 5, 67, 0
11, 87120, Note_on_c, 5, 69, 76
11, 87120, Note_on_c, 5, 65, 76
11, 87344, Note_on_c, 5, 69, 0
11, 87344, Note_on_c, 5, 65, 0
11, 87360, Note_on_c, 5, 67, 76
11, 87360, Note_on_c, 5, 60, 76
11, 87464, Note_on_c, 5, 67, 0
11, 87464, Note_on_c, 5, 60, 0
11, 87480, Note_on_c, 5, 67, 76
11, 87480, Note_on_c, 5, 70, 76
11, 87584, Note_on_c, 5, 67, 0
11, 87584, Note_on_c, 5, 70, 0
11, 87600, Note_on_c, 5, 70, 76
11, 87600, Note_on_c, 5, 67, 76
11, 87689, Note_on_c, 5, 70, 0
11, 87689, Note_on_c, 5, 67, 0
11, 87720, Note_on_c, 5, 70, 76
11, 87720, Note_on_c, 5, 67, 76
11, 87809, Note_on_c, 5, 70, 0
11, 87809, Note_on_c, 5, 67, 0
11, 87840, Note_on_c, 5, 70, 76
11, 87840, Note_on_c, 5, 67, 76
11, 88184, Note_on_c, 5, 70, 0
11, 88184, Note_on_c, 5, 67, 0
11, 88200, Note_on_c, 5, 67, 76
11, 88200, Note_on_c, 5, 60, 76
11, 88304, Note_on_c, 5, 67, 0
11, 88304, Note_on_c, 5, 60, 0
11, 88320, Note_on_c, 5, 69, 76
11, 88320, Note_on_c, 5, 65, 76
11, 88409, Note_on_c, 5, 69, 0
11, 88409, Note_on_c, 5, 65, 0
11, 88440, Note_on_c, 5, 67, 76
11, 88440, Note_on_c, 5, 70, 76
11, 88529, Note_on_c, 5, 67, 0
11, 88529, Note_on_c, 5, 70, 0
11, 88560, Note_on_c, 5, 69, 76
11, 88560, Note_on_c, 5, 72, 76
11, 88784, Note_on_c, 5, 69, 0
11, 88784, Note_on_c, 5, 72, 0
11, 88800, Note_on_c, 5, 70, 76
11, 88800, Note_on_c, 5, 67, 76
11, 88904, Note_on_c, 5, 70, 0
11, 88904, Note_on_c, 5, 67, 0
11, 88920, Note_on_c, 5, 60, 76
11, 88920, Note_on_c, 5, 67, 76
11, 89024, Note_on_c, 5, 60, 0
11, 89024, Note_on_c, 5, 67, 0
11, 89040, Note_on_c, 5, 70, 76
11, 89040, Note_on_c, 5, 67, 76
11, 89144, Note_on_c, 5, 70, 0
11, 89144, Note_on_c, 5, 67, 0
11, 89160, Note_on_c, 5, 60, 76
11, 89160, Note_on_c, 5, 67, 76
11, 89264, Note_on_c, 5, 60, 0
11, 89264, Note_on_c, 5, 67, 0
11, 89280, Note_on_c, 5, 65, 76
11, 89280, Note_on_c, 5, 69, 76
11, 89369, Note_on_c, 5, 65, 0
11, 89369, Note_on_c, 5, 69, 0
11, 89400, Note_on_c, 5, 67, 76
11, 89400, Note_on_c, 5, 70, 76
11, 89489, Note_on_c, 5, 67, 0
11, 89489, Note_on_c, 5, 70, 0
11, 89520, Note_on_c, 5, 72, 76
11, 89520, Note_on_c, 5, 69, 76
11, 89744, Note_on_c, 5, 72, 0
11, 89744, Note_on_c, 5, 69, 0
11, 89760, Note_on_c, 5, 67, 76
11, 89760, Note_on_c, 5, 70, 76
11, 89864, Note_on_c, 5, 67, 0
11, 89864, Note_on_c, 5, 70, 0
11, 89880, Note_on_c, 5, 60, 76
11, 89880, Note_on_c, 5, 67, 76
11, 89984, Note_on_c, 5, 60, 0
11, 89984, Note_on_c, 5, 67, 0
11, 90000, Note_on_c, 5, 67, 76
11, 90000, Note_on_c, 5, 70, 76
11, 90104, Note_on_c, 5, 67, 0
11, 90104, Note_on_c, 5, 70, 0
11, 90120, Note_on_c, 5, 60, 76
11, 90120, Note_on_c, 5, 67, 76
11, 90224, Note_on_c, 5, 60, 0
11, 90224, Note_on_c, 5, 67, 0
11, 90240, Note_on_c, 5, 65, 76
11, 90240, Note_on_c, 5, 69, 76
11, 90344, Note_on_c, 5, 65, 0
11, 90344, Note_on_c, 5, 69, 0
11, 90360, Note_on_c, 5, 60, 76
11, 90360, Note_on_c, 5, 67, 76
11, 90464, Note_on_c, 5, 60, 0
11, 90464, Note_on_c, 5, 67, 0
11, 90480, Note_on_c, 5, 67, 76
11, 90480, Note_on_c, 5, 60, 76
11, 90584, Note_on_c, 5, 67, 0
11, 90584, Note_on_c, 5, 60, 0
11, 90600, Note_on_c, 5, 60, 76
11, 90600, Note_on_c, 5, 67, 76
11, 90704, Note_on_c, 5, 60, 0
11, 90704, Note_on_c, 5, 67, 0
11, 90720, Note_on_c, 5, 69, 76
11, 90720, Note_on_c, 5, 65, 76
11, 90824, Note_on_c, 5, 69, 0
11, 90824, Note_on_c, 5, 65, 0
11, 90840, Note_on_c, 5, 67, 76
11, 90840, Note_on_c, 5, 60, 76
11, 90944, Note_on_c, 5, 67, 0
11, 90944, Note_on_c, 5, 60, 0
11, 90960, Note_on_c, 5, 60, 76
11, 90960, Note_on_c, 5, 67, 76
11, 91064, Note_on_c, 5, 60, 0
11, 91064, Note_on_c, 5, 67, 0
11, 91080, Note_on_c, 5, 60, 76
11, 91080, Note_on_c, 5, 67, 76
11, 91184, Note_on_c, 5, 60, 0
11, 91184, Note_on_c, 5, 67, 0
11, 91200, Note_on_c, 5, 65, 76
11, 91200, Note_on_c, 5, 69, 76
11, 91319, Note_on_c, 5, 65, 0
11, 91319, Note_on_c, 5, 69, 0
11, 93120, Note_on_c, 5, 65, 52
11, 93120, Note_on_c, 5, 57, 52
11, 93187, Note_on_c, 5, 65, 0
11, 93187, Note_on_c, 5, 57, 0
11, 93200, Note_on_c, 5, 65, 52
11, 93200, Note_on_c, 5, 57, 52
11, 93267, Note_on_c, 5, 65, 0
11, 93267, Note_on_c, 5, 57, 0
11, 93280, Note_on_c, 5, 57, 52
11, 93280, Note_on_c, 5, 65, 52
11, 93347, Note_on_c, 5, 57, 0
11, 93347, Note_on_c, 5, 65, 0
11, 93360, Note_on_c, 5, 65, 52
11, 93360, Note_on_c, 5, 57, 52
11, 93427, Note_on_c, 5, 65, 0
11, 93427, Note_on_c, 5, 57, 0
11, 93440, Note_on_c, 5, 65, 52
11, 93440, Note_on_c, 5, 57, 52
11, 93507, Note_on_c, 5, 65, 0
11, 93507, Note_on_c, 5, 57, 0
11, 93520, Note_on_c, 5, 65, 52
11, 93520, Note_on_c, 5, 57, 52
11, 93587, Note_on_c, 5, 65, 0
11, 93587, Note_on_c, 5, 57, 0
11, 93600, Note_on_c, 5, 65, 52
11, 93600, Note_on_c, 5, 57, 52
11, 93719, Note_on_c, 5, 65, 0
11, 93719, Note_on_c, 5, 57, 0
11, 95040, Note_on_c, 5, 57, 52
11, 95040, Note_on_c, 5, 65, 52
11, 95107, Note_on_c, 5, 57, 0
11, 95107, Note_on_c, 5, 65, 0
11, 95120, Note_on_c, 5, 57, 52
11, 95120, Note_on_c, 5, 65, 52
11, 95187, Note_on_c, 5, 57, 0
11, 95187, Note_on_c, 5, 65, 0
11, 95200, Note_on_c, 5, 57, 52
11, 95200, Note_on_c, 5, 65, 52
11, 95267, Note_on_c, 5, 57, 0
11, 95267, Note_on_c, 5, 65, 0
11, 95280, Note_on_c, 5, 57, 52
11, 95280, Note_on_c, 5, 65, 52
11, 95347, Note_on_c, 5, 57, 0
11, 95347, Note_on_c, 5, 65, 0
11, 95360, Note_on_c, 5, 65, 52
11, 95360, Note_on_c, 5, 57, 52
11, 95427, Note_on_c, 5, 65, 0
11, 95427, Note_on_c, 5, 57, 0
11, 95440, Note_on_c, 5, 57, 52
11, 95440, Note_on_c, 5, 65, 52
11, 95507, Note_on_c, 5, 57, 0
11, 95507, Note_on_c, 5, 65, 0
11, 95520, Note_on_c, 5, 65, 52
11, 95520, Note_on_c, 5, 57, 52
11, 95639, Note_on_c, 5, 65, 0
11, 95639, Note_on_c, 5, 57, 0
11, 107459, Control_c, 5, 11, 111
11, 107520, Note_on_c, 5, 67, 76
11, 107643, Control_c, 5, 11, 112
11, 107826, Control_c, 5, 11, 113
11, 108010, Control_c, 5, 11, 114
11, 108194, Control_c, 5, 11, 115
11, 108378, Control_c, 5, 11, 116
11, 108464, Note_on_c, 5, 67, 0
11, 108480, Note_on_c, 5, 72, 76
11, 108480, Note_on_c, 5, 60, 76
11, 108562, Control_c, 5, 11, 117
11, 108746, Control_c, 5, 11, 118
11, 108929, Control_c, 5, 11, 119
11, 109113, Control_c, 5, 11, 120
11, 109297, Control_c, 5, 11, 121
11, 109424, Note_on_c, 5, 72, 0
11, 109424, Note_on_c, 5, 60, 0
11, 109440, Note_on_c, 5, 71, 76
11, 109440, Note_on_c, 5, 67, 76
11, 109481, Control_c, 5, 11, 122
11, 109664, Note_on_c, 5, 71, 0
11, 109664, Note_on_c, 5, 67, 0
11, 109665, Control_c, 5, 11, 123
11, 109680, Note_on_c, 5, 67, 76
11, 109680, Note_on_c, 5, 71, 76
11, 109849, Control_c, 5, 11, 124
11, 109904, Note_on_c, 5, 67, 0
11, 109904, Note_on_c, 5, 71, 0
11, 109920, Note_on_c, 5, 67, 76
11, 109920, Note_on_c, 5, 71, 76
11, 110032, Control_c, 5, 11, 125
11, 110144, Note_on_c, 5, 67, 0
11, 110144, Note_on_c, 5, 71, 0
11, 110160, Note_on_c, 5, 74, 76
11, 110160, Note_on_c, 5, 67, 76
11, 110216, Control_c, 5, 11, 127
11, 110264, Note_on_c, 5, 74, 0
11, 110280, Note_on_c, 5, 71, 76
11, 110384, Note_on_c, 5, 67, 0
11, 110384, Note_on_c, 5, 71, 0
11, 110400, Note_on_c, 5, 60, 76
11, 110400, Note_on_c, 5, 72, 76
11, 111464, Note_on_c, 5, 60, 0
11, 111464, Note_on_c, 5, 72, 0
11, 111480, Note_on_c, 5, 60, 76
11, 111480, Note_on_c, 5, 48, 76
11, 111584, Note_on_c, 5, 60, 0
11, 111584, Note_on_c, 5, 48, 0
11, 111600, Note_on_c, 5, 48, 76
11, 111600, Note_on_c, 5, 60, 76
11, 111704, Note_on_c, 5, 48, 0
11, 111704, Note_on_c, 5, 60, 0
11, 111720, Note_on_c, 5, 48, 76
11, 111720, Note_on_c, 5, 60, 76
11, 111824, Note_on_c, 5, 48, 0
11, 111824, Note_on_c, 5, 60, 0
11, 111840, Note_on_c, 5, 60, 76
11, 111840, Note_on_c, 5, 48, 76
11, 111959, Note_on_c, 5, 60, 0
11, 111959, Note_on_c, 5, 48, 0
11, 113760, Note_on_c, 5, 60, 84
11, 113760, Note_on_c, 5, 72, 84
11, 114799, Note_on_c, 5, 60, 0
11, 114799, Note_on_c, 5, 72, 0
11, 114800, Note_on_c, 5, 60, 84
11, 114800, Note_on_c, 5, 48, 84
11, 114879, Note_on_c, 5, 60, 0
11, 114879, Note_on_c, 5, 48, 0
11, 114880, Note_on_c, 5, 60, 84
11, 114880, Note_on_c, 5, 48, 84
11, 114947, Note_on_c, 5, 60, 0
11, 114947, Note_on_c, 5, 48, 0
11, 114960, Note_on_c, 5, 60, 84
11, 114960, Note_on_c, 5, 48, 84
11, 115039, Note_on_c, 5, 60, 0
11, 115039, Note_on_c, 5, 48, 0
11, 115040, Note_on_c, 5, 48, 84
11, 115040, Note_on_c, 5, 60, 84
11, 115119, Note_on_c, 5, 48, 0
11, 115119, Note_on_c, 5, 60, 0
11, 115120, Note_on_c, 5, 60, 84
11, 115120, Note_on_c, 5, 48, 84
11, 115187, Note_on_c, 5, 60, 0
11, 115187, Note_on_c, 5, 48, 0
11, 115200, Note_on_c, 5, 60, 76
11, 115200, Note_on_c, 5, 48, 76
11, 115319, Note_on_c, 5, 60, 0
11, 115319, Note_on_c, 5, 48, 0
11, 115680, Note_on_c, 5, 60, 52
11, 115680, Note_on_c, 5, 48, 52
11, 116624, Note_on_c, 5, 60, 0
11, 116624, Note_on_c, 5, 48, 0
11, 116640, Note_on_c, 5, 67, 52
11, 117104, Note_on_c, 5, 67, 0
11, 117118, Control_c, 5, 11, 80
11, 117120, Note_on_c, 5, 60, 76
11, 117120, Note_on_c, 5, 48, 76
11, 117344, Note_on_c, 5, 60, 0
11, 117344, Note_on_c, 5, 48, 0
11, 117360, Control_c, 5, 11, 80
11, 117360, Note_on_c, 5, 48, 76
11, 117360, Note_on_c, 5, 60, 76
11, 117407, Control_c, 5, 11, 81
11, 117453, Control_c, 5, 11, 83
11, 117500, Control_c, 5, 11, 84
11, 117547, Control_c, 5, 11, 85
11, 117593, Control_c, 5, 11, 87
11, 117640, Control_c, 5, 11, 88
11, 117687, Control_c, 5, 11, 89
11, 117733, Control_c, 5, 11, 90
11, 117780, Control_c, 5, 11, 92
11, 117824, Note_on_c, 5, 48, 0
11, 117824, Note_on_c, 5, 60, 0
11, 117827, Control_c, 5, 11, 93
11, 117840, Note_on_c, 5, 48, 76
11, 117840, Note_on_c, 5, 60, 76
11, 117873, Control_c, 5, 11, 94
11, 117920, Control_c, 5, 11, 96
11, 117967, Control_c, 5, 11, 97
11, 118013, Control_c, 5, 11, 98
11, 118060, Control_c, 5, 11, 100
11, 118107, Control_c, 5, 11, 101
11, 118153, Control_c, 5, 11, 102
11, 118200, Control_c, 5, 11, 104
11, 118247, Control_c, 5, 11, 105
11, 118293, Control_c, 5, 11, 106
11, 118304, Note_on_c, 5, 48, 0
11, 118304, Note_on_c, 5, 60, 0
11, 118320, Note_on_c, 5, 48, 76
11, 118320, Note_on_c, 5, 60, 76
11, 118340, Control_c, 5, 11, 107
11, 118387, Control_c, 5, 11, 109
11, 118433, Control_c, 5, 11, 110
11, 118480, Control_c, 5, 11, 111
11, 118527, Control_c, 5, 11, 113
11, 118544, Note_on_c, 5, 48, 0
11, 118544, Note_on_c, 5, 60, 0
11, 118560, Note_on_c, 5, 67, 76
11, 118573, Control_c, 5, 11, 114
11, 118620, Control_c, 5, 11, 115
11, 118667, Control_c, 5, 11, 117
11, 118713, Control_c, 5, 11, 118
11, 118760, Control_c, 5, 11, 119
11, 118784, Note_on_c, 5, 67, 0
11, 118800, Note_on_c, 5, 67, 76
11, 118807, Control_c, 5, 11, 120
11, 118853, Control_c, 5, 11, 122
11, 118900, Control_c, 5, 11, 123
11, 118947, Control_c, 5, 11, 124
11, 118993, Control_c, 5, 11, 127
11, 119024, Note_on_c, 5, 67, 0
11, 119040, Note_on_c, 5, 60, 76
11, 119040, Note_on_c, 5, 48, 76
11, 119107, Note_on_c, 5, 60, 0
11, 119107, Note_on_c, 5, 48, 0
11, 119120, Note_on_c, 5, 60, 76
11, 119120, Note_on_c, 5, 48, 76
11, 119187, Note_on_c, 5, 60, 0
11, 119187, Note_on_c, 5, 48, 0
11, 119200, Note_on_c, 5, 48, 76
11, 119200, Note_on_c, 5, 60, 76
11, 119267, Note_on_c, 5, 48, 0
11, 119267, Note_on_c, 5, 60, 0
11, 119280, Note_on_c, 5, 60, 76
11, 119280, Note_on_c, 5, 48, 76
11, 119347, Note_on_c, 5, 60, 0
11, 119347, Note_on_c, 5, 48, 0
11, 119360, Note_on_c, 5, 60, 76
11, 119360, Note_on_c, 5, 48, 76
11, 119427, Note_on_c, 5, 60, 0
11, 119427, Note_on_c, 5, 48, 0
11, 119440, Note_on_c, 5, 60, 76
11, 119440, Note_on_c, 5, 48, 76
11, 119507, Note_on_c, 5, 60, 0
11, 119507, Note_on_c, 5, 48, 0
11, 119520, Note_on_c, 5, 53, 76
11, 119520, Note_on_c, 5, 65, 76
11, 119639, Note_on_c, 5, 53, 0
11, 119639, Note_on_c, 5, 65, 0
11, 119760, Note_on_c, 5, 57, 76
11, 119760, Note_on_c, 5, 69, 76
11, 119879, Note_on_c, 5, 57, 0
11, 119879, Note_on_c, 5, 69, 0
11, 120000, Note_on_c, 5, 60, 76
11, 120000, Note_on_c, 5, 72, 76
11, 120119, Note_on_c, 5, 60, 0
11, 120119, Note_on_c, 5, 72, 0
11, 120240, Note_on_c, 5, 67, 76
11, 120359, Note_on_c, 5, 67, 0
11, 120480, Note_on_c, 5, 67, 76
11, 120599, Note_on_c, 5, 67, 0
11, 120720, Note_on_c, 5, 67, 76
11, 120839, Note_on_c, 5, 67, 0
11, 120960, Note_on_c, 5, 60, 76
11, 120960, Note_on_c, 5, 48, 76
11, 121027, Note_on_c, 5, 60, 0
11, 121027, Note_on_c, 5, 48, 0
11, 121040, Note_on_c, 5, 48, 76
11, 121040, Note_on_c, 5, 60, 76
11, 121107, Note_on_c, 5, 48, 0
11, 121107, Note_on_c, 5, 60, 0
11, 121120, Note_on_c, 5, 60, 76
11, 121120, Note_on_c, 5, 48, 76
11, 121187, Note_on_c, 5, 60, 0
11, 121187, Note_on_c, 5, 48, 0
11, 121200, Note_on_c, 5, 60, 76
11, 121200, Note_on_c, 5, 48, 76
11, 121987, Note_on_c, 5, 60, 0
11, 121987, Note_on_c, 5, 48, 0
11, 122000, Note_on_c, 5, 48, 76
11, 122000, Note_on_c, 5, 60, 76
11, 122067, Note_on_c, 5, 48, 0
11, 122067, Note_on_c, 5, 60, 0
11, 122080, Note_on_c, 5, 60, 76
11, 122080, Note_on_c, 5, 48, 76
11, 122147, Note_on_c, 5, 60, 0
11, 122147, Note_on_c, 5, 48, 0
11, 122160, Note_on_c, 5, 60, 76
11, 122160, Note_on_c, 5, 48, 76
11, 122947, Note_on_c, 5, 60, 0
11, 122947, Note_on_c, 5, 48, 0
11, 122960, Note_on_c, 5, 48, 76
11, 122960, Note_on_c, 5, 60, 76
11, 123027, Note_on_c, 5, 48, 0
11, 123027, Note_on_c, 5, 60, 0
11, 123040, Note_on_c, 5, 60, 76
11, 123040, Note_on_c, 5, 48, 76
11, 123107, Note_on_c, 5, 60, 0
11, 123107, Note_on_c, 5, 48, 0
11, 123120, Note_on_c, 5, 60, 76
11, 123120, Note_on_c, 5, 48, 76
11, 123907, Note_on_c, 5, 60, 0
11, 123907, Note_on_c, 5, 48, 0
11, 123920, Note_on_c, 5, 60, 76
11, 123920, Note_on_c, 5, 48, 76
11, 123987, Note_on_c, 5, 60, 0
11, 123987, Note_on_c, 5, 48, 0
11, 124000, Note_on_c, 5, 60, 76
11, 124000, Note_on_c, 5, 48, 76
11, 124067, Note_on_c, 5, 60, 0
11, 124067, Note_on_c, 5, 48, 0
11, 124080, Note_on_c, 5, 60, 76
11, 124080, Note_on_c, 5, 48, 76
11, 124800, Control_c, 5, 11, 127
11, 124867, Note_on_c, 5, 60, 0
11, 124867, Note_on_c, 5, 48, 0
11, 124880, Note_on_c, 5, 48, 76
11, 124880, Control_c, 5, 11, 125
11, 124880, Note_on_c, 5, 60, 76
11, 124947, Note_on_c, 5, 48, 0
11, 124947, Note_on_c, 5, 60, 0
11, 124960, Note_on_c, 5, 60, 76
11, 124960, Note_on_c, 5, 48, 76
11, 124960, Control_c, 5, 11, 123
11, 125027, Note_on_c, 5, 60, 0
11, 125027, Note_on_c, 5, 48, 0
11, 125040, Note_on_c, 5, 60, 76
11, 125040, Control_c, 5, 11, 121
11, 125040, Note_on_c, 5, 48, 76
11, 125120, Control_c, 5, 11, 119
11, 125200, Control_c, 5, 11, 117
11, 125280, Control_c, 5, 11, 115
11, 125347, Note_on_c, 5, 60, 0
11, 125347, Note_on_c, 5, 48, 0
11, 125360, Note_on_c, 5, 48, 76
11, 125360, Control_c, 5, 11, 113
11, 125360, Note_on_c, 5, 60, 76
11, 125427, Note_on_c, 5, 48, 0
11, 125427, Note_on_c, 5, 60, 0
11, 125440, Note_on_c, 5, 60, 76
11, 125440, Note_on_c, 5, 48, 76
11, 125440, Control_c, 5, 11, 111
11, 125507, Note_on_c, 5, 60, 0
11, 125507, Note_on_c, 5, 48, 0
11, 125520, Note_on_c, 5, 60, 76
11, 125520, Note_on_c, 5, 48, 76
11, 125520, Control_c, 5, 11, 109
11, 125600, Control_c, 5, 11, 107
11, 125680, Control_c, 5, 11, 105
11, 125760, Control_c, 5, 11, 104
11, 125827, Note_on_c, 5, 60, 0
11, 125827, Note_on_c, 5, 48, 0
11, 125840, Control_c, 5, 11, 102
11, 125840, Note_on_c, 5, 60, 76
11, 125840, Note_on_c, 5, 48, 76
11, 125907, Note_on_c, 5, 60, 0
11, 125907, Note_on_c, 5, 48, 0
11, 125920, Note_on_c, 5, 48, 76
11, 125920, Note_on_c, 5, 60, 76
11, 125920, Control_c, 5, 11, 100
11, 125987, Note_on_c, 5, 48, 0
11, 125987, Note_on_c, 5, 60, 0
11, 126000, Control_c, 5, 11, 98
11, 126000, Note_on_c, 5, 48, 76
11, 126000, Note_on_c, 5, 60, 76
11, 126080, Control_c, 5, 11, 96
11, 126160, Control_c, 5, 11, 94
11, 126240, Control_c, 5, 11, 92
11, 126307, Note_on_c, 5, 48, 0
11, 126307, Note_on_c, 5, 60, 0
11, 126320, Note_on_c, 5, 60, 76
11, 126320, Note_on_c, 5, 48, 76
11, 126320, Control_c, 5, 11, 90
11, 126387, Note_on_c, 5, 60, 0
11, 126387, Note_on_c, 5, 48, 0
11, 126400, Note_on_c, 5, 60, 76
11, 126400, Note_on_c, 5, 48, 76
11, 126400, Control_c, 5, 11, 88
11, 126467, Note_on_c, 5, 60, 0
11, 126467, Note_on_c, 5, 48, 0
11, 126480, Control_c, 5, 11, 86
11, 126480, Note_on_c, 5, 60, 76
11, 126480, Note_on_c, 5, 48, 76
11, 126560, Control_c, 5, 11, 84
11, 126640, Control_c, 5, 11, 80
11, 126839, Note_on_c, 5, 60, 0
11, 126839, Note_on_c, 5, 48, 0
11, 127200, Control_c, 5, 11, 127
11, 132480, Note_on_c, 5, 67, 52
11, 132480, Note_on_c, 5, 60, 52
11, 133424, Note_on_c, 5, 67, 0
11, 133424, Note_on_c, 5, 60, 0
11, 133440, Note_on_c, 5, 67, 52
11, 133440, Note_on_c, 5, 60, 52
11, 134399, Note_on_c, 5, 67, 0
11, 134399, Note_on_c, 5, 60, 0
11, 136320, Note_on_c, 5, 53, 52
11, 136320, Note_on_c, 5, 41, 52
11, 137264, Note_on_c, 5, 53, 0
11, 137264, Note_on_c, 5, 41, 0
11, 137280, Note_on_c, 5, 53, 52
11, 137280, Note_on_c, 5, 41, 52
11, 138224, Note_on_c, 5, 53, 0
11, 138224, Note_on_c, 5, 41, 0
11, 138238, Control_c, 5, 11, 64
11, 138240, Control_c, 5, 11, 64
11, 138240, Note_on_c, 5, 53, 84
11, 138240, Note_on_c, 5, 41, 84
11, 138480, Control_c, 5, 11, 65
11, 138720, Control_c, 5, 11, 66
11, 138960, Control_c, 5, 11, 67
11, 139200, Control_c, 5, 11, 68
11, 139440, Control_c, 5, 11, 69
11, 139680, Control_c, 5, 11, 70
11, 139920, Control_c, 5, 11, 71
11, 140159, Note_on_c, 5, 53, 0
11, 140159, Note_on_c, 5, 41, 0
11, 140160, Note_on_c, 5, 41, 84
11, 140160, Control_c, 5, 11, 72
11, 140160, Note_on_c, 5, 53, 84
11, 140400, Control_c, 5, 11, 73
11, 140640, Control_c, 5, 11, 74
11, 140880, Control_c, 5, 11, 75
11, 141120, Control_c, 5, 11, 76
11, 141360, Control_c, 5, 11, 77
11, 141600, Control_c, 5, 11, 78
11, 141840, Control_c, 5, 11, 79
11, 142064, Note_on_c, 5, 41, 0
11, 142064, Note_on_c, 5, 53, 0
11, 142080, Note_on_c, 5, 41, 84
11, 142080, Note_on_c, 5, 53, 84
11, 142080, Control_c, 5, 11, 80
11, 142320, Control_c, 5, 11, 81
11, 142560, Control_c, 5, 11, 82
11, 142800, Control_c, 5, 11, 83
11, 143040, Control_c, 5, 11, 84
11, 143280, Control_c, 5, 11, 85
11, 143520, Control_c, 5, 11, 86
11, 143760, Control_c, 5, 11, 87
11, 143999, Note_on_c, 5, 41, 0
11, 143999, Note_on_c, 5, 53, 0
11, 147778, Control_c, 5, 11, 111
11, 147840, Note_on_c, 5, 69, 84
11, 147902, Control_c, 5, 11, 112
11, 148026, Control_c, 5, 11, 113
11, 148150, Control_c, 5, 11, 114
11, 148274, Control_c, 5, 11, 115
11, 148397, Control_c, 5, 11, 116
11, 148521, Control_c, 5, 11, 117
11, 148645, Control_c, 5, 11, 118
11, 148769, Control_c, 5, 11, 119
11, 148893, Control_c, 5, 11, 120
11, 149017, Control_c, 5, 11, 121
11, 149141, Control_c, 5, 11, 122
11, 149265, Control_c, 5, 11, 123
11, 149388, Control_c, 5, 11, 124
11, 149512, Control_c, 5, 11, 125
11, 149636, Control_c, 5, 11, 127
11, 149744, Note_on_c, 5, 69, 0
11, 149760, Note_on_c, 5, 69, 84
11, 150104, Note_on_c, 5, 69, 0
11, 150120, Note_on_c, 5, 69, 84
11, 150224, Note_on_c, 5, 69, 0
11, 150240, Note_on_c, 5, 69, 84
11, 150584, Note_on_c, 5, 69, 0
11, 150600, Note_on_c, 5, 69, 84
11, 150704, Note_on_c, 5, 69, 0
11, 150720, Note_on_c, 5, 69, 84
11, 151064, Note_on_c, 5, 69, 0
11, 151080, Note_on_c, 5, 69, 84
11, 151184, Note_on_c, 5, 69, 0
11, 151200, Note_on_c, 5, 69, 84
11, 151544, Note_on_c, 5, 69, 0
11, 151560, Note_on_c, 5, 69, 84
11, 151664, Note_on_c, 5, 69, 0
11, 151680, Note_on_c, 5, 69, 84
11, 151799, Note_on_c, 5, 69, 0
11, 152640, Note_on_c, 5, 69, 84
11, 152759, Note_on_c, 5, 69, 0
11, 191040, Note_on_c, 5, 67, 52
11, 191984, Note_on_c, 5, 67, 0
11, 192000, Note_on_c, 5, 60, 84
11, 192000, Note_on_c, 5, 48, 84
11, 192944, Note_on_c, 5, 60, 0
11, 192944, Note_on_c, 5, 48, 0
11, 192960, Note_on_c, 5, 60, 92
11, 192960, Note_on_c, 5, 48, 92
11, 193020, Control_c, 5, 11, 112
11, 193904, Note_on_c, 5, 60, 0
11, 193904, Note_on_c, 5, 48, 0
11, 193918, Control_c, 5, 11, 127
11, 193920, Note_on_c, 5, 60, 92
11, 193920, Note_on_c, 5, 48, 92
11, 193980, Control_c, 5, 11, 112
11, 194864, Note_on_c, 5, 60, 0
11, 194864, Note_on_c, 5, 48, 0
11, 194878, Control_c, 5, 11, 127
11, 194880, Note_on_c, 5, 48, 92
11, 194880, Note_on_c, 5, 60, 92
11, 194940, Control_c, 5, 11, 112
11, 195824, Note_on_c, 5, 48, 0
11, 195824, Note_on_c, 5, 60, 0
11, 195838, Control_c, 5, 11, 127
11, 195840, Note_on_c, 5, 48, 92
11, 195840, Note_on_c, 5, 60, 92
11, 196064, Note_on_c, 5, 48, 0
11, 196064, Note_on_c, 5, 60, 0
11, 196080, Note_on_c, 5, 48, 84
11, 196080, Note_on_c, 5, 60, 84
11, 196304, Note_on_c, 5, 48, 0
11, 196304, Note_on_c, 5, 60, 0
11, 196320, Note_on_c, 5, 48, 84
11, 196320, Note_on_c, 5, 60, 84
11, 196664, Note_on_c, 5, 48, 0
11, 196664, Note_on_c, 5, 60, 0
11, 196680, Note_on_c, 5, 60, 84
11, 196680, Note_on_c, 5, 48, 84
11, 196784, Note_on_c, 5, 60, 0
11, 196784, Note_on_c, 5, 48, 0
11, 196800, Note_on_c, 5, 48, 92
11, 196800, Note_on_c, 5, 60, 92
11, 197024, Note_on_c, 5, 48, 0
11, 197024, Note_on_c, 5, 60, 0
11, 197040, Note_on_c, 5, 60, 84
11, 197040, Note_on_c, 5, 48, 84
11, 197264, Note_on_c, 5, 60, 0
11, 197264, Note_on_c, 5, 48, 0
11, 197280, Note_on_c, 5, 48, 84
11, 197280, Note_on_c, 5, 60, 84
11, 197624, Note_on_c, 5, 48, 0
11, 197624, Note_on_c, 5, 60, 0
11, 197640, Note_on_c, 5, 48, 84
11, 197640, Note_on_c, 5, 60, 84
11, 197744, Note_on_c, 5, 48, 0
11, 197744, Note_on_c, 5, 60, 0
11, 197760, Note_on_c, 5, 41, 44
11, 197760, Note_on_c, 5, 53, 44
11, 199799, Note_on_c, 5, 41, 0
11, 199799, Note_on_c, 5, 53, 0
11, 200640, Note_on_c, 5, 48, 52
11, 201599, Note_on_c, 5, 48, 0
11, 207360, Note_on_c, 5, 53, 52
11, 207360, Note_on_c, 5, 65, 52
11, 207824, Note_on_c, 5, 53, 0
11, 207824, Note_on_c, 5, 65, 0
11, 207840, Note_on_c, 5, 48, 52
11, 207840, Note_on_c, 5, 60, 52
11, 208304, Note_on_c, 5, 48, 0
11, 208304, Note_on_c, 5, 60, 0
11, 208320, Note_on_c, 5, 53, 52
11, 208320, Note_on_c, 5, 60, 52
11, 208439, Note_on_c, 5, 53, 0
11, 208439, Note_on_c, 5, 60, 0
11, 213600, Note_on_c, 5, 60, 52
11, 213600, Note_on_c, 5, 48, 52
11, 213667, Note_on_c, 5, 60, 0
11, 213667, Note_on_c, 5, 48, 0
11, 213680, Note_on_c, 5, 48, 53
11, 213680, Note_on_c, 5, 60, 53
11, 213747, Note_on_c, 5, 48, 0
11, 213747, Note_on_c, 5, 60, 0
11, 213760, Note_on_c, 5, 48, 54
11, 213760, Note_on_c, 5, 60, 54
11, 213827, Note_on_c, 5, 48, 0
11, 213827, Note_on_c, 5, 60, 0
11, 213840, Note_on_c, 5, 48, 56
11, 213840, Note_on_c, 5, 60, 56
11, 213907, Note_on_c, 5, 48, 0
11, 213907, Note_on_c, 5, 60, 0
11, 213920, Note_on_c, 5, 48, 57
11, 213920, Note_on_c, 5, 60, 57
11, 213987, Note_on_c, 5, 48, 0
11, 213987, Note_on_c, 5, 60, 0
11, 214000, Note_on_c, 5, 48, 58
11, 214000, Note_on_c, 5, 60, 58
11, 214067, Note_on_c, 5, 48, 0
11, 214067, Note_on_c, 5, 60, 0
11, 214080, Note_on_c, 5, 48, 60
11, 214080, Note_on_c, 5, 60, 60
11, 214147, Note_on_c, 5, 48, 0
11, 214147, Note_on_c, 5, 60, 0
11, 214160, Note_on_c, 5, 48, 61
11, 214160, Note_on_c, 5, 60, 61
11, 214227, Note_on_c, 5, 48, 0
11, 214227, Note_on_c, 5, 60, 0
11, 214240, Note_on_c, 5, 48, 62
11, 214240, Note_on_c, 5, 60, 62
11, 214307, Note_on_c, 5, 48, 0
11, 214307, Note_on_c, 5, 60, 0
11, 214320, Note_on_c, 5, 60, 64
11, 214320, Note_on_c, 5, 48, 64
11, 214387, Note_on_c, 5, 60, 0
11, 214387, Note_on_c, 5, 48, 0
11, 214400, Note_on_c, 5, 60, 65
11, 214400, Note_on_c, 5, 48, 65
11, 214467, Note_on_c, 5, 60, 0
11, 214467, Note_on_c, 5, 48, 0
11, 214480, Note_on_c, 5, 48, 66
11, 214480, Note_on_c, 5, 60, 66
11, 214547, Note_on_c, 5, 48, 0
11, 214547, Note_on_c, 5, 60, 0
11, 214560, Note_on_c, 5, 60, 68
11, 214560, Note_on_c, 5, 48, 68
11, 214627, Note_on_c, 5, 60, 0
11, 214627, Note_on_c, 5, 48, 0
11, 214640, Note_on_c, 5, 48, 69
11, 214640, Note_on_c, 5, 60, 69
11, 214707, Note_on_c, 5, 48, 0
11, 214707, Note_on_c, 5, 60, 0
11, 214720, Note_on_c, 5, 60, 70
11, 214720, Note_on_c, 5, 48, 70
11, 214787, Note_on_c, 5, 60, 0
11, 214787, Note_on_c, 5, 48, 0
11, 214800, Note_on_c, 5, 48, 72
11, 214800, Note_on_c, 5, 60, 72
11, 214867, Note_on_c, 5, 48, 0
11, 214867, Note_on_c, 5, 60, 0
11, 214880, Note_on_c, 5, 60, 73
11, 214880, Note_on_c, 5, 48, 73
11, 214947, Note_on_c, 5, 60, 0
11, 214947, Note_on_c, 5, 48, 0
11, 214960, Note_on_c, 5, 48, 74
11, 214960, Note_on_c, 5, 60, 74
11, 215027, Note_on_c, 5, 48, 0
11, 215027, Note_on_c, 5, 60, 0
11, 215040, Note_on_c, 5, 60, 76
11, 215040, Note_on_c, 5, 48, 76
11, 215107, Note_on_c, 5, 60, 0
11, 215107, Note_on_c, 5, 48, 0
11, 215120, Note_on_c, 5, 48, 77
11, 215120, Note_on_c, 5, 60, 77
11, 215187, Note_on_c, 5, 48, 0
11, 215187, Note_on_c, 5, 60, 0
11, 215200, Note_on_c, 5, 48, 78
11, 215200, Note_on_c, 5, 60, 78
11, 215267, Note_on_c, 5, 48, 0
11, 215267, Note_on_c, 5, 60, 0
11, 215280, Note_on_c, 5, 60, 80
11, 215280, Note_on_c, 5, 48, 80
11, 215347, Note_on_c, 5, 60, 0
11, 215347, Note_on_c, 5, 48, 0
11, 215360, Note_on_c, 5, 60, 81
11, 215360, Note_on_c, 5, 48, 81
11, 215427, Note_on_c, 5, 60, 0
11, 215427, Note_on_c, 5, 48, 0
11, 215440, Note_on_c, 5, 48, 82
11, 215440, Note_on_c, 5, 60, 82
11, 215507, Note_on_c, 5, 48, 0
11, 215507, Note_on_c, 5, 60, 0
11, 215520, Note_on_c, 5, 65, 84
11, 215520, Note_on_c, 5, 53, 84
11, 215624, Note_on_c, 5, 65, 0
11, 215624, Note_on_c, 5, 53, 0
11, 215640, Note_on_c, 5, 65, 84
11, 215640, Note_on_c, 5, 69, 84
11, 215729, Note_on_c, 5, 65, 0
11, 215729, Note_on_c, 5, 69, 0
11, 215760, Note_on_c, 5, 70, 84
11, 215760, Note_on_c, 5, 67, 84
11, 215849, Note_on_c, 5, 70, 0
11, 215849, Note_on_c, 5, 67, 0
11, 215880, Note_on_c, 5, 67, 84
11, 215880, Note_on_c, 5, 70, 84
11, 215969, Note_on_c, 5, 67, 0
11, 215969, Note_on_c, 5, 70, 0
11, 216000, Note_on_c, 5, 72, 84
11, 216000, Note_on_c, 5, 69, 84
11, 216119, Note_on_c, 5, 72, 0
11, 216119, Note_on_c, 5, 69, 0
11, 216120, Note_on_c, 5, 70, 84
11, 216120, Note_on_c, 5, 67, 84
11, 216179, Note_on_c, 5, 70, 0
11, 216179, Note_on_c, 5, 67, 0
11, 216180, Note_on_c, 5, 65, 84
11, 216180, Note_on_c, 5, 69, 84
11, 216231, Note_on_c, 5, 65, 0
11, 216231, Note_on_c, 5, 69, 0
11, 216240, Note_on_c, 5, 60, 84
11, 216240, Note_on_c, 5, 67, 84
11, 216329, Note_on_c, 5, 60, 0
11, 216329, Note_on_c, 5, 67, 0
11, 216360, Note_on_c, 5, 60, 84
11, 216449, Note_on_c, 5, 60, 0
11, 216480, Note_on_c, 5, 57, 84
11, 216480, Note_on_c, 5, 65, 84
11, 216569, Note_on_c, 5, 57, 0
11, 216569, Note_on_c, 5, 65, 0
11, 216600, Note_on_c, 5, 67, 84
11, 216600, Note_on_c, 5, 60, 84
11, 216689, Note_on_c, 5, 67, 0
11, 216689, Note_on_c, 5, 60, 0
11, 216720, Note_on_c, 5, 69, 84
11, 216720, Note_on_c, 5, 65, 84
11, 216944, Note_on_c, 5, 69, 0
11, 216944, Note_on_c, 5, 65, 0
11, 216960, Note_on_c, 5, 60, 84
11, 216960, Note_on_c, 5, 67, 84
11, 217049, Note_on_c, 5, 60, 0
11, 217049, Note_on_c, 5, 67, 0
11, 217080, Note_on_c, 5, 69, 84
11, 217080, Note_on_c, 5, 65, 84
11, 217169, Note_on_c, 5, 69, 0
11, 217169, Note_on_c, 5, 65, 0
11, 217200, Note_on_c, 5, 67, 84
11, 217200, Note_on_c, 5, 70, 84
11, 217424, Note_on_c, 5, 67, 0
11, 217424, Note_on_c, 5, 70, 0
11, 217440, Note_on_c, 5, 65, 84
11, 217440, Note_on_c, 5, 69, 84
11, 217559, Note_on_c, 5, 65, 0
11, 217559, Note_on_c, 5, 69, 0
11, 217560, Note_on_c, 5, 72, 84
11, 217560, Note_on_c, 5, 69, 84
11, 217664, Note_on_c, 5, 72, 0
11, 217664, Note_on_c, 5, 69, 0
11, 217680, Note_on_c, 5, 72, 84
11, 217680, Note_on_c, 5, 69, 84
11, 217769, Note_on_c, 5, 72, 0
11, 217769, Note_on_c, 5, 69, 0
11, 217800, Note_on_c, 5, 69, 84
11, 217800, Note_on_c, 5, 72, 84
11, 217889, Note_on_c, 5, 69, 0
11, 217889, Note_on_c, 5, 72, 0
11, 217920, Note_on_c, 5, 72, 84
11, 217920, Note_on_c, 5, 69, 84
11, 218144, Note_on_c, 5, 72, 0
11, 218144, Note_on_c, 5, 69, 0
11, 218160, Note_on_c, 5, 65, 84
11, 218160, Note_on_c, 5, 69, 84
11, 218264, Note_on_c, 5, 65, 0
11, 218264, Note_on_c, 5, 69, 0
11, 218280, Note_on_c, 5, 57, 84
11, 218280, Note_on_c, 5, 65, 84
11, 218399, Note_on_c, 5, 57, 0
11, 218399, Note_on_c, 5, 65, 0
11, 218520, Note_on_c, 5, 65, 84
11, 218520, Note_on_c, 5, 57, 84
11, 218624, Note_on_c, 5, 65, 0
11, 218624, Note_on_c, 5, 57, 0
11, 218640, Note_on_c, 5, 67, 84
11, 218640, Note_on_c, 5, 60, 84
11, 218864, Note_on_c, 5, 67, 0
11, 218864, Note_on_c, 5, 60, 0
11, 218880, Note_on_c, 5, 65, 84
11, 218880, Note_on_c, 5, 57, 84
11, 218969, Note_on_c, 5, 65, 0
11, 218969, Note_on_c, 5, 57, 0
11, 219000, Note_on_c, 5, 67, 84
11, 219000, Note_on_c, 5, 60, 84
11, 219089, Note_on_c, 5, 67, 0
11, 219089, Note_on_c, 5, 60, 0
11, 219120, Note_on_c, 5, 69, 84
11, 219120, Note_on_c, 5, 65, 84
11, 219344, Note_on_c, 5, 69, 0
11, 219344, Note_on_c, 5, 65, 0
11, 219360, Note_on_c, 5, 60, 84
11, 219360, Note_on_c, 5, 67, 84
11, 219479, Note_on_c, 5, 60, 0
11, 219479, Note_on_c, 5, 67, 0
11, 219480, Note_on_c, 5, 67, 84
11, 219480, Note_on_c, 5, 70, 84
11, 219584, Note_on_c, 5, 67, 0
11, 219584, Note_on_c, 5, 70, 0
11, 219600, Note_on_c, 5, 70, 84
11, 219600, Note_on_c, 5, 67, 84
11, 219689, Note_on_c, 5, 70, 0
11, 219689, Note_on_c, 5, 67, 0
11, 219720, Note_on_c, 5, 70, 84
11, 219720, Note_on_c, 5, 67, 84
11, 219809, Note_on_c, 5, 70, 0
11, 219809, Note_on_c, 5, 67, 0
11, 219840, Note_on_c, 5, 70, 84
11, 219840, Note_on_c, 5, 67, 84
11, 220184, Note_on_c, 5, 70, 0
11, 220184, Note_on_c, 5, 67, 0
11, 220200, Note_on_c, 5, 60, 84
11, 220200, Note_on_c, 5, 67, 84
11, 220304, Note_on_c, 5, 60, 0
11, 220304, Note_on_c, 5, 67, 0
11, 220320, Note_on_c, 5, 65, 84
11, 220320, Note_on_c, 5, 69, 84
11, 220424, Note_on_c, 5, 65, 0
11, 220424, Note_on_c, 5, 69, 0
11, 220440, Note_on_c, 5, 70, 84
11, 220440, Note_on_c, 5, 67, 84
11, 220544, Note_on_c, 5, 70, 0
11, 220544, Note_on_c, 5, 67, 0
11, 220560, Note_on_c, 5, 72, 84
11, 220560, Note_on_c, 5, 69, 84
11, 220784, Note_on_c, 5, 72, 0
11, 220784, Note_on_c, 5, 69, 0
11, 220800, Note_on_c, 5, 70, 84
11, 220800, Note_on_c, 5, 67, 84
11, 220904, Note_on_c, 5, 70, 0
11, 220904, Note_on_c, 5, 67, 0
11, 220920, Note_on_c, 5, 60, 84
11, 220920, Note_on_c, 5, 67, 84
11, 221024, Note_on_c, 5, 60, 0
11, 221024, Note_on_c, 5, 67, 0
11, 221040, Note_on_c, 5, 70, 84
11, 221040, Note_on_c, 5, 67, 84
11, 221144, Note_on_c, 5, 70, 0
11, 221144, Note_on_c, 5, 67, 0
11, 221160, Note_on_c, 5, 67, 84
11, 221160, Note_on_c, 5, 60, 84
11, 221264, Note_on_c, 5, 67, 0
11, 221264, Note_on_c, 5, 60, 0
11, 221280, Note_on_c, 5, 65, 84
11, 221280, Note_on_c, 5, 69, 84
11, 221369, Note_on_c, 5, 65, 0
11, 221369, Note_on_c, 5, 69, 0
11, 221400, Note_on_c, 5, 67, 84
11, 221400, Note_on_c, 5, 70, 84
11, 221489, Note_on_c, 5, 67, 0
11, 221489, Note_on_c, 5, 70, 0
11, 221520, Note_on_c, 5, 69, 84
11, 221520, Note_on_c, 5, 72, 84
11, 221744, Note_on_c, 5, 69, 0
11, 221744, Note_on_c, 5, 72, 0
11, 221760, Note_on_c, 5, 70, 84
11, 221760, Note_on_c, 5, 67, 84
11, 221864, Note_on_c, 5, 70, 0
11, 221864, Note_on_c, 5, 67, 0
11, 221880, Note_on_c, 5, 67, 84
11, 221880, Note_on_c, 5, 60, 84
11, 221984, Note_on_c, 5, 67, 0
11, 221984, Note_on_c, 5, 60, 0
11, 222000, Note_on_c, 5, 70, 84
11, 222000, Note_on_c, 5, 67, 84
11, 222104, Note_on_c, 5, 70, 0
11, 222104, Note_on_c, 5, 67, 0
11, 222120, Note_on_c, 5, 60, 84
11, 222120, Note_on_c, 5, 67, 84
11, 222224, Note_on_c, 5, 60, 0
11, 222224, Note_on_c, 5, 67, 0
11, 222240, Note_on_c, 5, 69, 84
11, 222240, Note_on_c, 5, 65, 84
11, 222344, Note_on_c, 5, 69, 0
11, 222344, Note_on_c, 5, 65, 0
11, 222360, Note_on_c, 5, 60, 84
11, 222360, Note_on_c, 5, 67, 84
11, 222464, Note_on_c, 5, 60, 0
11, 222464, Note_on_c, 5, 67, 0
11, 222480, Note_on_c, 5, 60, 84
11, 222480, Note_on_c, 5, 67, 84
11, 222584, Note_on_c, 5, 60, 0
11, 222584, Note_on_c, 5, 67, 0
11, 222600, Note_on_c, 5, 60, 84
11, 222600, Note_on_c, 5, 67, 84
11, 222704, Note_on_c, 5, 60, 0
11, 222704, Note_on_c, 5, 67, 0
11, 222720, Note_on_c, 5, 69, 84
11, 222720, Note_on_c, 5, 65, 84
11, 222824, Note_on_c, 5, 69, 0
11, 222824, Note_on_c, 5, 65, 0
11, 222840, Note_on_c, 5, 60, 84
11, 222840, Note_on_c, 5, 67, 84
11, 222944, Note_on_c, 5, 60, 0
11, 222944, Note_on_c, 5, 67, 0
11, 222960, Note_on_c, 5, 60, 84
11, 222960, Note_on_c, 5, 67, 84
11, 223064, Note_on_c, 5, 60, 0
11, 223064, Note_on_c, 5, 67, 0
11, 223080, Note_on_c, 5, 67, 84
11, 223080, Note_on_c, 5, 60, 84
11, 223184, Note_on_c, 5, 67, 0
11, 223184, Note_on_c, 5, 60, 0
11, 223200, Note_on_c, 5, 57, 76
11, 223200, Note_on_c, 5, 65, 76
11, 223267, Note_on_c, 5, 57, 0
11, 223267, Note_on_c, 5, 65, 0
11, 223280, Note_on_c, 5, 65, 52
11, 223280, Note_on_c, 5, 57, 52
11, 223347, Note_on_c, 5, 65, 0
11, 223347, Note_on_c, 5, 57, 0
11, 223360, Note_on_c, 5, 65, 52
11, 223360, Note_on_c, 5, 57, 52
11, 223427, Note_on_c, 5, 65, 0
11, 223427, Note_on_c, 5, 57, 0
11, 223440, Note_on_c, 5, 57, 52
11, 223440, Note_on_c, 5, 65, 52
11, 223507, Note_on_c, 5, 57, 0
11, 223507, Note_on_c, 5, 65, 0
11, 223520, Note_on_c, 5, 65, 52
11, 223520, Note_on_c, 5, 57, 52
11, 223587, Note_on_c, 5, 65, 0
11, 223587, Note_on_c, 5, 57, 0
11, 223600, Note_on_c, 5, 65, 52
11, 223600, Note_on_c, 5, 57, 52
11, 223667, Note_on_c, 5, 65, 0
11, 223667, Note_on_c, 5, 57, 0
11, 223680, Note_on_c, 5, 65, 52
11, 223680, Note_on_c, 5, 57, 52
11, 223919, Note_on_c, 5, 65, 0
11, 223919, Note_on_c, 5, 57, 0
11, 225120, Note_on_c, 5, 65, 52
11, 225120, Note_on_c, 5, 57, 52
11, 225187, Note_on_c, 5, 65, 0
11, 225187, Note_on_c, 5, 57, 0
11, 225200, Note_on_c, 5, 65, 52
11, 225200, Note_on_c, 5, 57, 52
11, 225267, Note_on_c, 5, 65, 0
11, 225267, Note_on_c, 5, 57, 0
11, 225280, Note_on_c, 5, 57, 52
11, 225280, Note_on_c, 5, 65, 52
11, 225347, Note_on_c, 5, 57, 0
11, 225347, Note_on_c, 5, 65, 0
11, 225360, Note_on_c, 5, 65, 52
11, 225360, Note_on_c, 5, 57, 52
11, 225427, Note_on_c, 5, 65, 0
11, 225427, Note_on_c, 5, 57, 0
11, 225440, Note_on_c, 5, 65, 52
11, 225440, Note_on_c, 5, 57, 52
11, 225507, Note_on_c, 5, 65, 0
11, 225507, Note_on_c, 5, 57, 0
11, 225520, Note_on_c, 5, 65, 52
11, 225520, Note_on_c, 5, 57, 52
11, 225587, Note_on_c, 5, 65, 0
11, 225587, Note_on_c, 5, 57, 0
11, 225600, Note_on_c, 5, 65, 52
11, 225600, Note_on_c, 5, 57, 52
11, 225839, Note_on_c, 5, 65, 0
11, 225839, Note_on_c, 5, 57, 0
11, 227040, Note_on_c, 5, 65, 52
11, 227040, Note_on_c, 5, 57, 52
11, 227107, Note_on_c, 5, 65, 0
11, 227107, Note_on_c, 5, 57, 0
11, 227120, Note_on_c, 5, 65, 52
11, 227120, Note_on_c, 5, 57, 52
11, 227187, Note_on_c, 5, 65, 0
11, 227187, Note_on_c, 5, 57, 0
11, 227200, Note_on_c, 5, 65, 52
11, 227200, Note_on_c, 5, 57, 52
11, 227267, Note_on_c, 5, 65, 0
11, 227267, Note_on_c, 5, 57, 0
11, 227280, Note_on_c, 5, 57, 52
11, 227280, Note_on_c, 5, 65, 52
11, 227347, Note_on_c, 5, 57, 0
11, 227347, Note_on_c, 5, 65, 0
11, 227360, Note_on_c, 5, 65, 52
11, 227360, Note_on_c, 5, 57, 52
11, 227427, Note_on_c, 5, 65, 0
11, 227427, Note_on_c, 5, 57, 0
11, 227440, Note_on_c, 5, 57, 52
11, 227440, Note_on_c, 5, 65, 52
11, 227507, Note_on_c, 5, 57, 0
11, 227507, Note_on_c, 5, 65, 0
11, 227520, Note_on_c, 5, 57, 52
11, 227520, Note_on_c, 5, 65, 52
11, 227759, Note_on_c, 5, 57, 0
11, 227759, Note_on_c, 5, 65, 0
11, 228000, Note_on_c, 5, 67, 52
11, 228000, Note_on_c, 5, 65, 52
11, 228067, Note_on_c, 5, 67, 0
11, 228067, Note_on_c, 5, 65, 0
11, 228080, Note_on_c, 5, 65, 52
11, 228080, Note_on_c, 5, 67, 52
11, 228147, Note_on_c, 5, 65, 0
11, 228147, Note_on_c, 5, 67, 0
11, 228160, Note_on_c, 5, 65, 52
11, 228160, Note_on_c, 5, 67, 52
11, 228227, Note_on_c, 5, 65, 0
11, 228227, Note_on_c, 5, 67, 0
11, 228240, Note_on_c, 5, 65, 52
11, 228240, Note_on_c, 5, 67, 52
11, 228307, Note_on_c, 5, 65, 0
11, 228307, Note_on_c, 5, 67, 0
11, 228320, Note_on_c, 5, 65, 52
11, 228320, Note_on_c, 5, 67, 52
11, 228387, Note_on_c, 5, 65, 0
11, 228387, Note_on_c, 5, 67, 0
11, 228400, Note_on_c, 5, 67, 52
11, 228400, Note_on_c, 5, 65, 52
11, 228467, Note_on_c, 5, 67, 0
11, 228467, Note_on_c, 5, 65, 0
11, 228480, Note_on_c, 5, 67, 52
11, 228480, Note_on_c, 5, 65, 52
11, 228719, Note_on_c, 5, 67, 0
11, 228719, Note_on_c, 5, 65, 0
11, 228960, Note_on_c, 5, 60, 52
11, 228960, Note_on_c, 5, 67, 52
11, 229027, Note_on_c, 5, 60, 0
11, 229027, Note_on_c, 5, 67, 0
11, 229040, Note_on_c, 5, 67, 52
11, 229040, Note_on_c, 5, 60, 52
11, 229107, Note_on_c, 5, 67, 0
11, 229107, Note_on_c, 5, 60, 0
11, 229120, Note_on_c, 5, 67, 52
11, 229120, Note_on_c, 5, 60, 52
11, 229187, Note_on_c, 5, 67, 0
11, 229187, Note_on_c, 5, 60, 0
11, 229200, Note_on_c, 5, 60, 52
11, 229200, Note_on_c, 5, 67, 52
11, 229267, Note_on_c, 5, 60, 0
11, 229267, Note_on_c, 5, 67, 0
11, 229280, Note_on_c, 5, 60, 52
11, 229280, Note_on_c, 5, 67, 52
11, 229347, Note_on_c, 5, 60, 0
11, 229347, Note_on_c, 5, 67, 0
11, 229360, Note_on_c, 5, 67, 52
11, 229360, Note_on_c, 5, 60, 52
11, 229427, Note_on_c, 5, 67, 0
11, 229427, Note_on_c, 5, 60, 0
11, 229440, Note_on_c, 5, 60, 52
11, 229440, Note_on_c, 5, 67, 52
11, 229679, Note_on_c, 5, 60, 0
11, 229679, Note_on_c, 5, 67, 0
11, 237360, Control_c, 5, 11, 80
11, 237600, Note_on_c, 5, 60, 76
11, 237600, Note_on_c, 5, 48, 76
11, 237600, Control_c, 5, 11, 80
11, 237743, Control_c, 5, 11, 81
11, 237886, Control_c, 5, 11, 82
11, 238029, Control_c, 5, 11, 83
11, 238172, Control_c, 5, 11, 84
11, 238315, Control_c, 5, 11, 85
11, 238458, Control_c, 5, 11, 86
11, 238544, Note_on_c, 5, 60, 0
11, 238544, Note_on_c, 5, 48, 0
11, 238560, Note_on_c, 5, 65, 76
11, 238560, Note_on_c, 5, 53, 76
11, 238601, Control_c, 5, 11, 87
11, 238744, Control_c, 5, 11, 88
11, 238887, Control_c, 5, 11, 89
11, 239030, Control_c, 5, 11, 90
11, 239173, Control_c, 5, 11, 91
11, 239316, Control_c, 5, 11, 92
11, 239459, Control_c, 5, 11, 93
11, 239504, Note_on_c, 5, 65, 0
11, 239504, Note_on_c, 5, 53, 0
11, 239520, Note_on_c, 5, 64, 76
11, 239602, Control_c, 5, 11, 94
11, 239744, Note_on_c, 5, 64, 0
11, 239745, Control_c, 5, 11, 95
11, 239760, Note_on_c, 5, 64, 76
11, 239888, Control_c, 5, 11, 96
11, 239984, Note_on_c, 5, 64, 0
11, 240000, Note_on_c, 5, 64, 76
11, 240031, Control_c, 5, 11, 97
11, 240174, Control_c, 5, 11, 98
11, 240224, Note_on_c, 5, 64, 0
11, 240240, Note_on_c, 5, 67, 76
11, 240317, Control_c, 5, 11, 99
11, 240344, Note_on_c, 5, 67, 0
11, 240360, Note_on_c, 5, 64, 76
11, 240460, Control_c, 5, 11, 100
11, 240464, Note_on_c, 5, 64, 0
11, 240480, Note_on_c, 5, 65, 76
11, 240603, Control_c, 5, 11, 101
11, 240704, Note_on_c, 5, 65, 0
11, 240720, Note_on_c, 5, 65, 76
11, 240746, Control_c, 5, 11, 102
11, 240889, Control_c, 5, 11, 103
11, 240944, Note_on_c, 5, 65, 0
11, 240960, Note_on_c, 5, 65, 76
11, 241031, Control_c, 5, 11, 104
11, 241174, Control_c, 5, 11, 105
11, 241184, Note_on_c, 5, 65, 0
11, 241200, Note_on_c, 5, 69, 76
11, 241304, Note_on_c, 5, 69, 0
11, 241317, Control_c, 5, 11, 106
11, 241320, Note_on_c, 5, 65, 76
11, 241424, Note_on_c, 5, 65, 0
11, 241440, Note_on_c, 5, 67, 76
11, 241460, Control_c, 5, 11, 107
11, 241603, Control_c, 5, 11, 108
11, 241664, Note_on_c, 5, 67, 0
11, 241680, Note_on_c, 5, 67, 76
11, 241746, Control_c, 5, 11, 109
11, 241889, Control_c, 5, 11, 110
11, 241904, Note_on_c, 5, 67, 0
11, 241920, Note_on_c, 5, 67, 76
11, 242032, Control_c, 5, 11, 111
11, 242144, Note_on_c, 5, 67, 0
11, 242160, Note_on_c, 5, 70, 76
11, 242175, Control_c, 5, 11, 112
11, 242264, Note_on_c, 5, 70, 0
11, 242280, Note_on_c, 5, 67, 76
11, 242318, Control_c, 5, 11, 113
11, 242384, Note_on_c, 5, 67, 0
11, 242400, Note_on_c, 5, 69, 76
11, 242461, Control_c, 5, 11, 114
11, 242604, Control_c, 5, 11, 115
11, 242624, Note_on_c, 5, 69, 0
11, 242640, Note_on_c, 5, 69, 76
11, 242747, Control_c, 5, 11, 116
11, 242864, Note_on_c, 5, 69, 0
11, 242880, Note_on_c, 5, 69, 76
11, 242890, Control_c, 5, 11, 117
11, 243033, Control_c, 5, 11, 118
11, 243104, Note_on_c, 5, 69, 0
11, 243120, Note_on_c, 5, 72, 76
11, 243176, Control_c, 5, 11, 119
11, 243224, Note_on_c, 5, 72, 0
11, 243240, Note_on_c, 5, 69, 76
11, 243319, Control_c, 5, 11, 120
11, 243344, Note_on_c, 5, 69, 0
11, 243360, Note_on_c, 5, 72, 76
11, 243360, Note_on_c, 5, 60, 76
11, 243462, Control_c, 5, 11, 121
11, 243464, Note_on_c, 5, 72, 0
11, 243464, Note_on_c, 5, 60, 0
11, 243480, Note_on_c, 5, 60, 76
11, 243480, Note_on_c, 5, 48, 76
11, 243584, Note_on_c, 5, 60, 0
11, 243584, Note_on_c, 5, 48, 0
11, 243600, Note_on_c, 5, 48, 76
11, 243600, Note_on_c, 5, 60, 76
11, 243605, Control_c, 5, 11, 122
11, 243704, Note_on_c, 5, 48, 0
11, 243704, Note_on_c, 5, 60, 0
11, 243720, Note_on_c, 5, 48, 76
11, 243720, Note_on_c, 5, 60, 76
11, 243748, Control_c, 5, 11, 123
11, 243824, Note_on_c, 5, 48, 0
11, 243824, Note_on_c, 5, 60, 0
11, 243840, Note_on_c, 5, 60, 76
11, 243840, Note_on_c, 5, 48, 76
11, 243891, Control_c, 5, 11, 124
11, 243944, Note_on_c, 5, 60, 0
11, 243944, Note_on_c, 5, 48, 0
11, 243960, Note_on_c, 5, 60, 76
11, 243960, Note_on_c, 5, 48, 76
11, 244034, Control_c, 5, 11, 125
11, 244064, Note_on_c, 5, 60, 0
11, 244064, Note_on_c, 5, 48, 0
11, 244080, Note_on_c, 5, 60, 76
11, 244080, Note_on_c, 5, 48, 76
11, 244177, Control_c, 5, 11, 127
11, 244184, Note_on_c, 5, 60, 0
11, 244184, Note_on_c, 5, 48, 0
11, 244200, Note_on_c, 5, 60, 76
11, 244200, Note_on_c, 5, 48, 76
11, 244304, Note_on_c, 5, 60, 0
11, 244304, Note_on_c, 5, 48, 0
11, 244320, Note_on_c, 5, 53, 76
11, 244320, Note_on_c, 5, 65, 76
11, 245384, Note_on_c, 5, 53, 0
11, 245384, Note_on_c, 5, 65, 0
11, 245400, Note_on_c, 5, 53, 76
11, 245400, Note_on_c, 5, 65, 76
11, 245504, Note_on_c, 5, 53, 0
11, 245504, Note_on_c, 5, 65, 0
11, 245520, Note_on_c, 5, 53, 76
11, 245520, Note_on_c, 5, 65, 76
11, 245624, Note_on_c, 5, 53, 0
11, 245624, Note_on_c, 5, 65, 0
11, 245640, Note_on_c, 5, 65, 76
11, 245640, Note_on_c, 5, 53, 76
11, 245744, Note_on_c, 5, 65, 0
11, 245744, Note_on_c, 5, 53, 0
11, 245760, Note_on_c, 5, 53, 76
11, 245760, Note_on_c, 5, 65, 76
11, 245879, Note_on_c, 5, 53, 0
11, 245879, Note_on_c, 5, 65, 0
11, 247680, Note_on_c, 5, 65, 84
11, 247680, Note_on_c, 5, 53, 84
11, 248707, Note_on_c, 5, 65, 0
11, 248707, Note_on_c, 5, 53, 0
11, 248720, Note_on_c, 5, 65, 84
11, 248720, Note_on_c, 5, 53, 84
11, 248787, Note_on_c, 5, 65, 0
11, 248787, Note_on_c, 5, 53, 0
11, 248800, Note_on_c, 5, 65, 84
11, 248800, Note_on_c, 5, 53, 84
11, 248867, Note_on_c, 5, 65, 0
11, 248867, Note_on_c, 5, 53, 0
11, 248880, Note_on_c, 5, 53, 84
11, 248880, Note_on_c, 5, 65, 84
11, 248947, Note_on_c, 5, 53, 0
11, 248947, Note_on_c, 5, 65, 0
11, 248960, Note_on_c, 5, 65, 84
11, 248960, Note_on_c, 5, 53, 84
11, 249027, Note_on_c, 5, 65, 0
11, 249027, Note_on_c, 5, 53, 0
11, 249040, Note_on_c, 5, 53, 84
11, 249040, Note_on_c, 5, 65, 84
11, 249107, Note_on_c, 5, 53, 0
11, 249107, Note_on_c, 5, 65, 0
11, 249120, Note_on_c, 5, 65, 76
11, 249120, Note_on_c, 5, 53, 76
11, 249239, Note_on_c, 5, 65, 0
11, 249239, Note_on_c, 5, 53, 0
11, 249600, Note_on_c, 5, 41, 52
11, 249600, Note_on_c, 5, 53, 52
11, 250544, Note_on_c, 5, 41, 0
11, 250544, Note_on_c, 5, 53, 0
11, 250560, Note_on_c, 5, 60, 52
11, 250560, Note_on_c, 5, 48, 52
11, 251024, Note_on_c, 5, 60, 0
11, 251024, Note_on_c, 5, 48, 0
11, 251038, Control_c, 5, 11, 80
11, 251040, Note_on_c, 5, 53, 76
11, 251040, Note_on_c, 5, 41, 76
11, 251040, Control_c, 5, 11, 80
11, 251120, Control_c, 5, 11, 82
11, 251200, Control_c, 5, 11, 84
11, 251264, Note_on_c, 5, 53, 0
11, 251264, Note_on_c, 5, 41, 0
11, 251280, Note_on_c, 5, 53, 76
11, 251280, Control_c, 5, 11, 86
11, 251280, Note_on_c, 5, 41, 76
11, 251360, Control_c, 5, 11, 88
11, 251440, Control_c, 5, 11, 90
11, 251520, Control_c, 5, 11, 92
11, 251600, Control_c, 5, 11, 94
11, 251680, Control_c, 5, 11, 96
11, 251744, Note_on_c, 5, 53, 0
11, 251744, Note_on_c, 5, 41, 0
11, 251760, Note_on_c, 5, 41, 76
11, 251760, Note_on_c, 5, 53, 76
11, 251760, Control_c, 5, 11, 98
11, 251840, Control_c, 5, 11, 100
11, 251920, Control_c, 5, 11, 102
11, 252000, Control_c, 5, 11, 104
11, 252080, Control_c, 5, 11, 105
11, 252160, Control_c, 5, 11, 107
11, 252224, Note_on_c, 5, 41, 0
11, 252224, Note_on_c, 5, 53, 0
11, 252240, Note_on_c, 5, 41, 76
11, 252240, Note_on_c, 5, 53, 76
11, 252240, Control_c, 5, 11, 109
11, 252320, Control_c, 5, 11, 111
11, 252400, Control_c, 5, 11, 113
11, 252479, Note_on_c, 5, 41, 0
11, 252479, Note_on_c, 5, 53, 0
11, 252480, Control_c, 5, 11, 115
11, 252480, Note_on_c, 5, 48, 76
11, 252480, Note_on_c, 5, 60, 76
11, 252560, Control_c, 5, 11, 117
11, 252640, Control_c, 5, 11, 119
11, 252704, Note_on_c, 5, 48, 0
11, 252704, Note_on_c, 5, 60, 0
11, 252720, Control_c, 5, 11, 121
11, 252720, Note_on_c, 5, 60, 76
11, 252720, Note_on_c, 5, 48, 76
11, 252800, Control_c, 5, 11, 123
11, 252880, Control_c, 5, 11, 127
11, 252959, Note_on_c, 5, 60, 0
11, 252959, Note_on_c, 5, 48, 0
11, 252960, Note_on_c, 5, 41, 76
11, 252960, Note_on_c, 5, 53, 76
11, 253027, Note_on_c, 5, 41, 0
11, 253027, Note_on_c, 5, 53, 0
11, 253040, Note_on_c, 5, 65, 76
11, 253040, Note_on_c, 5, 53, 76
11, 253107, Note_on_c, 5, 65, 0
11, 253107, Note_on_c, 5, 53, 0
11, 253120, Note_on_c, 5, 53, 76
11, 253120, Note_on_c, 5, 65, 76
11, 253187, Note_on_c, 5, 53, 0
11, 253187, Note_on_c, 5, 65, 0
11, 253200, Note_on_c, 5, 53, 76
11, 253200, Note_on_c, 5, 65, 76
11, 253267, Note_on_c, 5, 53, 0
11, 253267, Note_on_c, 5, 65, 0
11, 253280, Note_on_c, 5, 53, 76
11, 253280, Note_on_c, 5, 65, 76
11, 253347, Note_on_c, 5, 53, 0
11, 253347, Note_on_c, 5, 65, 0
11, 253360, Note_on_c, 5, 53, 76
11, 253360, Note_on_c, 5, 65, 76
11, 253427, Note_on_c, 5, 53, 0
11, 253427, Note_on_c, 5, 65, 0
11, 253440, Note_on_c, 5, 53, 76
11, 253440, Note_on_c, 5, 65, 76
11, 253559, Note_on_c, 5, 53, 0
11, 253559, Note_on_c, 5, 65, 0
11, 253680, Note_on_c, 5, 65, 76
11, 253680, Note_on_c, 5, 53, 76
11, 253799, Note_on_c, 5, 65, 0
11, 253799, Note_on_c, 5, 53, 0
11, 253920, Note_on_c, 5, 53, 76
11, 253920, Note_on_c, 5, 65, 76
11, 254039, Note_on_c, 5, 53, 0
11, 254039, Note_on_c, 5, 65, 0
11, 254160, Note_on_c, 5, 65, 76
11, 254160, Note_on_c, 5, 53, 76
11, 254279, Note_on_c, 5, 65, 0
11, 254279, Note_on_c, 5, 53, 0
11, 254400, Note_on_c, 5, 60, 76
11, 254400, Note_on_c, 5, 48, 76
11, 254519, Note_on_c, 5, 60, 0
11, 254519, Note_on_c, 5, 48, 0
11, 254640, Note_on_c, 5, 48, 76
11, 254640, Note_on_c, 5, 60, 76
11, 254759, Note_on_c, 5, 48, 0
11, 254759, Note_on_c, 5, 60, 0
11, 254880, Note_on_c, 5, 53, 76
11, 254880, Note_on_c, 5, 65, 76
11, 255104, Note_on_c, 5, 53, 0
11, 255104, Note_on_c, 5, 65, 0
11, 255120, Note_on_c, 5, 48, 76
11, 255120, Note_on_c, 5, 60, 76
11, 255824, Note_on_c, 5, 48, 0
11, 255824, Note_on_c, 5, 60, 0
11, 255840, Note_on_c, 5, 57, 76
11, 255840, Note_on_c, 5, 69, 76
11, 256064, Note_on_c, 5, 57, 0
11, 256064, Note_on_c, 5, 69, 0
11, 256080, Note_on_c, 5, 65, 76
11, 256080, Note_on_c, 5, 53, 76
11, 256784, Note_on_c, 5, 65, 0
11, 256784, Note_on_c, 5, 53, 0
11, 256800, Note_on_c, 5, 53, 76
11, 256800, Note_on_c, 5, 65, 76
11, 257024, Note_on_c, 5, 53, 0
11, 257024, Note_on_c, 5, 65, 0
11, 257040, Note_on_c, 5, 60, 76
11, 257040, Note_on_c, 5, 48, 76
11, 257744, Note_on_c, 5, 60, 0
11, 257744, Note_on_c, 5, 48, 0
11, 257760, Note_on_c, 5, 69, 76
11, 257760, Note_on_c, 5, 57, 76
11, 257984, Note_on_c, 5, 69, 0
11, 257984, Note_on_c, 5, 57, 0
11, 258000, Note_on_c, 5, 53, 76
11, 258000, Note_on_c, 5, 65, 76
11, 258720, Control_c, 5, 11, 127
11, 258800, Control_c, 5, 11, 125
11, 258880, Control_c, 5, 11, 123
11, 258959, Note_on_c, 5, 53, 0
11, 258959, Note_on_c, 5, 65, 0
11, 258960, Note_on_c, 5, 48, 76
11, 258960, Note_on_c, 5, 60, 76
11, 258960, Control_c, 5, 11, 121
11, 259040, Control_c, 5, 11, 119
11, 259120, Control_c, 5, 11, 117
11, 259199, Note_on_c, 5, 48, 0
11, 259199, Note_on_c, 5, 60, 0
11, 259200, Note_on_c, 5, 65, 76
11, 259200, Control_c, 5, 11, 115
11, 259200, Note_on_c, 5, 53, 76
11, 259280, Control_c, 5, 11, 113
11, 259360, Control_c, 5, 11, 111
11, 259439, Note_on_c, 5, 65, 0
11, 259439, Note_on_c, 5, 53, 0
11, 259440, Note_on_c, 5, 48, 76
11, 259440, Note_on_c, 5, 60, 76
11, 259440, Control_c, 5, 11, 109
11, 259520, Control_c, 5, 11, 107
11, 259600, Control_c, 5, 11, 105
11, 259679, Note_on_c, 5, 48, 0
11, 259679, Note_on_c, 5, 60, 0
11, 259680, Note_on_c, 5, 65, 76
11, 259680, Note_on_c, 5, 53, 76
11, 259680, Control_c, 5, 11, 104
11, 259760, Control_c, 5, 11, 102
11, 259840, Control_c, 5, 11, 100
11, 259919, Note_on_c, 5, 65, 0
11, 259919, Note_on_c, 5, 53, 0
11, 259920, Control_c, 5, 11, 98
11, 259920, Note_on_c, 5, 60, 76
11, 259920, Note_on_c, 5, 48, 76
11, 260000, Control_c, 5, 11, 96
11, 260080, Control_c, 5, 11, 94
11, 260159, Note_on_c, 5, 60, 0
11, 260159, Note_on_c, 5, 48, 0
11, 260160, Control_c, 5, 11, 92
11, 260160, Note_on_c, 5, 53, 76
11, 260160, Note_on_c, 5, 65, 76
11, 260240, Control_c, 5, 11, 90
11, 260320, Control_c, 5, 11, 88
11, 260399, Note_on_c, 5, 53, 0
11, 260399, Note_on_c, 5, 65, 0
11, 260400, Note_on_c, 5, 60, 76
11, 260400, Control_c, 5, 11, 86
11, 260400, Note_on_c, 5, 48, 76
11, 260480, Control_c, 5, 11, 84
11, 260560, Control_c, 5, 11, 80
11, 260639, Note_on_c, 5, 60, 0
11, 260639, Note_on_c, 5, 48, 0
11, 260640, Note_on_c, 5, 65, 76
11, 260640, Note_on_c, 5, 53, 76
11, 260759, Note_on_c, 5, 65, 0
11, 260759, Note_on_c, 5, 53, 0
11, 266160, Control_c, 5, 11, 127
11, 266400, Note_on_c, 5, 53, 44
11, 266400, Note_on_c, 5, 41, 44
11, 267344, Note_on_c, 5, 53, 0
11, 267344, Note_on_c, 5, 41, 0
11, 267360, Note_on_c, 5, 41, 44
11, 267360, Note_on_c, 5, 53, 44
11, 268319, Note_on_c, 5, 41, 0
11, 268319, Note_on_c, 5, 53, 0
11, 269160, Note_on_c, 5, 65, 76
11, 269160, Note_on_c, 5, 53, 76
11, 269264, Note_on_c, 5, 65, 0
11, 269264, Note_on_c, 5, 53, 0
11, 269280, Note_on_c, 5, 53, 76
11, 269280, Note_on_c, 5, 65, 76
11, 269384, Note_on_c, 5, 53, 0
11, 269384, Note_on_c, 5, 65, 0
11, 269400, Note_on_c, 5, 53, 76
11, 269400, Note_on_c, 5, 65, 76
11, 269504, Note_on_c, 5, 53, 0
11, 269504, Note_on_c, 5, 65, 0
11, 269520, Note_on_c, 5, 65, 76
11, 269520, Note_on_c, 5, 53, 76
11, 269624, Note_on_c, 5, 65, 0
11, 269624, Note_on_c, 5, 53, 0
11, 269640, Note_on_c, 5, 65, 76
11, 269640, Note_on_c, 5, 53, 76
11, 269744, Note_on_c, 5, 65, 0
11, 269744, Note_on_c, 5, 53, 0
11, 269760, Note_on_c, 5, 53, 76
11, 269760, Note_on_c, 5, 65, 76
11, 269864, Note_on_c, 5, 53, 0
11, 269864, Note_on_c, 5, 65, 0
11, 269880, Note_on_c, 5, 65, 76
11, 269880, Note_on_c, 5, 53, 76
11, 269984, Note_on_c, 5, 65, 0
11, 269984, Note_on_c, 5, 53, 0
11, 270000, Note_on_c, 5, 65, 76
11, 270000, Note_on_c, 5, 53, 76
11, 270104, Note_on_c, 5, 65, 0
11, 270104, Note_on_c, 5, 53, 0
11, 270120, Note_on_c, 5, 65, 76
11, 270120, Note_on_c, 5, 53, 76
11, 270224, Note_on_c, 5, 65, 0
11, 270224, Note_on_c, 5, 53, 0
11, 270240, Note_on_c, 5, 65, 52
11, 270240, Note_on_c, 5, 53, 52
11, 270359, Note_on_c, 5, 65, 0
11, 270359, Note_on_c, 5, 53, 0
11, 276960, Note_on_c, 5, 53, 76
11, 276960, Note_on_c, 5, 65, 76
11, 277027, Note_on_c, 5, 53, 0
11, 277027, Note_on_c, 5, 65, 0
11, 277040, Note_on_c, 5, 65, 76
11, 277040, Note_on_c, 5, 53, 76
11, 277107, Note_on_c, 5, 65, 0
11, 277107, Note_on_c, 5, 53, 0
11, 277120, Note_on_c, 5, 53, 76
11, 277120, Note_on_c, 5, 65, 76
11, 277187, Note_on_c, 5, 53, 0
11, 277187, Note_on_c, 5, 65, 0
11, 277200, Note_on_c, 5, 53, 76
11, 277200, Note_on_c, 5, 65, 76
11, 277987, Note_on_c, 5, 53, 0
11, 277987, Note_on_c, 5, 65, 0
11, 278000, Note_on_c, 5, 53, 76
11, 278000, Note_on_c, 5, 65, 76
11, 278067, Note_on_c, 5, 53, 0
11, 278067, Note_on_c, 5, 65, 0
11, 278080, Note_on_c, 5, 53, 76
11, 278080, Note_on_c, 5, 65, 76
11, 278147, Note_on_c, 5, 53, 0
11, 278147, Note_on_c, 5, 65, 0
11, 278160, Note_on_c, 5, 53, 76
11, 278160, Note_on_c, 5, 65, 76
11, 278947, Note_on_c, 5, 53, 0
11, 278947, Note_on_c, 5, 65, 0
11, 278960, Note_on_c, 5, 65, 76
11, 278960, Note_on_c, 5, 53, 76
11, 279027, Note_on_c, 5, 65, 0
11, 279027, Note_on_c, 5, 53, 0
11, 279040, Note_on_c, 5, 65, 76
11, 279040, Note_on_c, 5, 53, 76
11, 279107, Note_on_c, 5, 65, 0
11, 279107, Note_on_c, 5, 53, 0
11, 279120, Note_on_c, 5, 53, 76
11, 279120, Note_on_c, 5, 65, 76
11, 279907, Note_on_c, 5, 53, 0
11, 279907, Note_on_c, 5, 65, 0
11, 279920, Note_on_c, 5, 65, 76
11, 279920, Note_on_c, 5, 53, 76
11, 279987, Note_on_c, 5, 65, 0
11, 279987, Note_on_c, 5, 53, 0
11, 280000, Note_on_c, 5, 53, 76
11, 280000, Note_on_c, 5, 65, 76
11, 280067, Note_on_c, 5, 53, 0
11, 280067, Note_on_c, 5, 65, 0
11, 280080, Note_on_c, 5, 53, 76
11, 280080, Note_on_c, 5, 65, 76
11, 280867, Note_on_c, 5, 53, 0
11, 280867, Note_on_c, 5, 65, 0
11, 280880, Note_on_c, 5, 57, 76
11, 280880, Note_on_c, 5, 65, 76
11, 280947, Note_on_c, 5, 57, 0
11, 280947, Note_on_c, 5, 65, 0
11, 280960, Note_on_c, 5, 57, 76
11, 280960, Note_on_c, 5, 65, 76
11, 281027, Note_on_c, 5, 57, 0
11, 281027, Note_on_c, 5, 65, 0
11, 281040, Note_on_c, 5, 57, 76
11, 281040, Note_on_c, 5, 65, 76
11, 281347, Note_on_c, 5, 57, 0
11, 281347, Note_on_c, 5, 65, 0
11, 281360, Note_on_c, 5, 57, 76
11, 281360, Note_on_c, 5, 65, 76
11, 281427, Note_on_c, 5, 57, 0
11, 281427, Note_on_c, 5, 65, 0
11, 281440, Note_on_c, 5, 65, 76
11, 281440, Note_on_c, 5, 57, 76
11, 281507, Note_on_c, 5, 65, 0
11, 281507, Note_on_c, 5, 57, 0
11, 281520, Note_on_c, 5, 57, 76
11, 281520, Note_on_c, 5, 65, 76
11, 281827, Note_on_c, 5, 57, 0
11, 281827, Note_on_c, 5, 65, 0
11, 281840, Note_on_c, 5, 57, 76
11, 281840, Note_on_c, 5, 65, 76
11, 281907, Note_on_c, 5, 57, 0
11, 281907, Note_on_c, 5, 65, 0
11, 281920, Note_on_c, 5, 57, 76
11, 281920, Note_on_c, 5, 65, 76
11, 281987, Note_on_c, 5, 57, 0
11, 281987, Note_on_c, 5, 65, 0
11, 282000, Note_on_c, 5, 65, 76
11, 282000, Note_on_c, 5, 57, 76
11, 282224, Note_on_c, 5, 65, 0
11, 282224, Note_on_c, 5, 57, 0
11, 282240, Note_on_c, 5, 60, 76
11, 282240, Note_on_c, 5, 67, 76
11, 282307, Note_on_c, 5, 60, 0
11, 282307, Note_on_c, 5, 67, 0
11, 282320, Note_on_c, 5, 60, 76
11, 282320, Note_on_c, 5, 67, 76
11, 282387, Note_on_c, 5, 60, 0
11, 282387, Note_on_c, 5, 67, 0
11, 282400, Note_on_c, 5, 67, 76
11, 282400, Note_on_c, 5, 60, 76
11, 282467, Note_on_c, 5, 67, 0
11, 282467, Note_on_c, 5, 60, 0
11, 282480, Note_on_c, 5, 60, 76
11, 282480, Note_on_c, 5, 67, 76
11, 282704, Note_on_c, 5, 60, 0
11, 282704, Note_on_c, 5, 67, 0
11, 282720, Note_on_c, 5, 57, 76
11, 282720, Note_on_c, 5, 65, 76
11, 282787, Note_on_c, 5, 57, 0
11, 282787, Note_on_c, 5, 65, 0
11, 282800, Note_on_c, 5, 65, 76
11, 282800, Note_on_c, 5, 57, 76
11, 282867, Note_on_c, 5, 65, 0
11, 282867, Note_on_c, 5, 57, 0
11, 282880, Note_on_c, 5, 65, 76
11, 282880, Note_on_c, 5, 57, 76
11, 282947, Note_on_c, 5, 65, 0
11, 282947, Note_on_c, 5, 57, 0
11, 282960, Note_on_c, 5, 57, 76
11, 282960, Note_on_c, 5, 65, 76
11, 283267, Note_on_c, 5, 57, 0
11, 283267, Note_on_c, 5, 65, 0
11, 283280, Note_on_c, 5, 57, 76
11, 283280, Note_on_c, 5, 65, 76
11, 283347, Note_on_c, 5, 57, 0
11, 283347, Note_on_c, 5, 65, 0
11, 283360, Note_on_c, 5, 65, 76
11, 283360, Note_on_c, 5, 57, 76
11, 283427, Note_on_c, 5, 65, 0
11, 283427, Note_on_c, 5, 57, 0
11, 283440, Note_on_c, 5, 57, 76
11, 283440, Note_on_c, 5, 65, 76
11, 283747, Note_on_c, 5, 57, 0
11, 283747, Note_on_c, 5, 65, 0
11, 283760, Note_on_c, 5, 65, 76
11, 283760, Note_on_c, 5, 57, 76
11, 283827, Note_on_c, 5, 65, 0
11, 283827, Note_on_c, 5, 57, 0
11, 283840, Note_on_c, 5, 65, 76
11, 283840, Note_on_c, 5, 57, 76
11, 283907, Note_on_c, 5, 65, 0
11, 283907, Note_on_c, 5, 57, 0
11, 283920, Note_on_c, 5, 57, 76
11, 283920, Note_on_c, 5, 65, 76
11, 284144, Note_on_c, 5, 57, 0
11, 284144, Note_on_c, 5, 65, 0
11, 284160, Note_on_c, 5, 60, 76
11, 284160, Note_on_c, 5, 67, 76
11, 284227, Note_on_c, 5, 60, 0
11, 284227, Note_on_c, 5, 67, 0
11, 284240, Note_on_c, 5, 60, 76
11, 284240, Note_on_c, 5, 67, 76
11, 284307, Note_on_c, 5, 60, 0
11, 284307, Note_on_c, 5, 67, 0
11, 284320, Note_on_c, 5, 60, 76
11, 284320, Note_on_c, 5, 67, 76
11, 284387, Note_on_c, 5, 60, 0
11, 284387, Note_on_c, 5, 67, 0
11, 284400, Note_on_c, 5, 67, 76
11, 284400, Note_on_c, 5, 60, 76
11, 284624, Note_on_c, 5, 67, 0
11, 284624, Note_on_c, 5, 60, 0
11, 284640, Note_on_c, 5, 57, 76
11, 284640, Note_on_c, 5, 65, 76
11, 284707, Note_on_c, 5, 57, 0
11, 284707, Note_on_c, 5, 65, 0
11, 284720, Note_on_c, 5, 57, 76
11, 284720, Note_on_c, 5, 65, 76
11, 284787, Note_on_c, 5, 57, 0
11, 284787, Note_on_c, 5, 65, 0
11, 284800, Note_on_c, 5, 57, 76
11, 284800, Note_on_c, 5, 65, 76
11, 284867, Note_on_c, 5, 57, 0
11, 284867, Note_on_c, 5, 65, 0
11, 284880, Note_on_c, 5, 65, 76
11, 284880, Note_on_c, 5, 57, 76
11, 285187, Note_on_c, 5, 65, 0
11, 285187, Note_on_c, 5, 57, 0
11, 285200, Note_on_c, 5, 57, 76
11, 285200, Note_on_c, 5, 65, 76
11, 285267, Note_on_c, 5, 57, 0
11, 285267, Note_on_c, 5, 65, 0
11, 285280, Note_on_c, 5, 57, 76
11, 285280, Note_on_c, 5, 65, 76
11, 285347, Note_on_c, 5, 57, 0
11, 285347, Note_on_c, 5, 65, 0
11, 285360, Note_on_c, 5, 57, 76
11, 285360, Note_on_c, 5, 65, 76
11, 285667, Note_on_c, 5, 57, 0
11, 285667, Note_on_c, 5, 65, 0
11, 285680, Note_on_c, 5, 57, 84
11, 285680, Note_on_c, 5, 65, 84
11, 285747, Note_on_c, 5, 57, 0
11, 285747, Note_on_c, 5, 65, 0
11, 285760, Note_on_c, 5, 57, 84
11, 285760, Note_on_c, 5, 65, 84
11, 285827, Note_on_c, 5, 57, 0
11, 285827, Note_on_c, 5, 65, 0
11, 285840, Note_on_c, 5, 57, 84
11, 285840, Note_on_c, 5, 65, 84
11, 286147, Note_on_c, 5, 57, 0
11, 286147, Note_on_c, 5, 65, 0
11, 286160, Note_on_c, 5, 57, 84
11, 286160, Note_on_c, 5, 65, 84
11, 286227, Note_on_c, 5, 57, 0
11, 286227, Note_on_c, 5, 65, 0
11, 286240, Note_on_c, 5, 65, 84
11, 286240, Note_on_c, 5, 57, 84
11, 286307, Note_on_c, 5, 65, 0
11, 286307, Note_on_c, 5, 57, 0
11, 286320, Note_on_c, 5, 65, 84
11, 286320, Note_on_c, 5, 57, 84
11, 286679, Note_on_c, 5, 65, 0
11, 286679, Note_on_c, 5, 57, 0
11, 291360, Note_on_c, 5, 48, 76
11, 291360, Note_on_c, 5, 60, 76
11, 291824, Note_on_c, 5, 48, 0
11, 291824, Note_on_c, 5, 60, 0
11, 291840, Note_on_c, 5, 48, 76
11, 291840, Note_on_c, 5, 60, 76
11, 291959, Note_on_c, 5, 48, 0
11, 291959, Note_on_c, 5, 60, 0
11, 292080, Note_on_c, 5, 60, 76
11, 292080, Note_on_c, 5, 48, 76
11, 292199, Note_on_c, 5, 60, 0
11, 292199, Note_on_c, 5, 48, 0
11, 293280, Note_on_c, 5, 48, 76
11, 293280, Note_on_c, 5, 60, 76
11, 293744, Note_on_c, 5, 48, 0
11, 293744, Note_on_c, 5, 60, 0
11, 293760, Note_on_c, 5, 60, 76
11, 293760, Note_on_c, 5, 48, 76
11, 293879, Note_on_c, 5, 60, 0
11, 293879, Note_on_c, 5, 48, 0
11, 294000, Note_on_c, 5, 60, 76
11, 294000, Note_on_c, 5, 48, 76
11, 294119, Note_on_c, 5, 60, 0
11, 294119, Note_on_c, 5, 48, 0
11, 294240, Note_on_c, 5, 57, 76
11, 294240, Note_on_c, 5, 53, 76
11, 294359, Note_on_c, 5, 57, 0
11, 294359, Note_on_c, 5, 53, 0
11, 295680, Note_on_c, 5, 48, 76
11, 295680, Note_on_c, 5, 60, 76
11, 296024, Note_on_c, 5, 48, 0
11, 296024, Note_on_c, 5, 60, 0
11, 296040, Note_on_c, 5, 48, 76
11, 296040, Note_on_c, 5, 60, 76
11, 296144, Note_on_c, 5, 48, 0
11, 296144, Note_on_c, 5, 60, 0
11, 296160, Note_on_c, 5, 65, 76
11, 296160, Note_on_c, 5, 53, 76
11, 296279, Note_on_c, 5, 65, 0
11, 296279, Note_on_c, 5, 53, 0
11, 297600, Note_on_c, 5, 60, 76
11, 297600, Note_on_c, 5, 48, 76
11, 297944, Note_on_c, 5, 60, 0
11, 297944, Note_on_c, 5, 48, 0
11, 297960, Note_on_c, 5, 60, 76
11, 297960, Note_on_c, 5, 48, 76
11, 298064, Note_on_c, 5, 60, 0
11, 298064, Note_on_c, 5, 48, 0
11, 298080, Note_on_c, 5, 53, 76
11, 298080, Note_on_c, 5, 65, 76
11, 298199, Note_on_c, 5, 53, 0
11, 298199, Note_on_c, 5, 65, 0
11, 298560, Note_on_c, 5, 48, 76
11, 298560, Note_on_c, 5, 60, 76
11, 298904, Note_on_c, 5, 48, 0
11, 298904, Note_on_c, 5, 60, 0
11, 298920, Note_on_c, 5, 48, 76
11, 298920, Note_on_c, 5, 60, 76
11, 299024, Note_on_c, 5, 48, 0
11, 299024, Note_on_c, 5, 60, 0
11, 299040, Note_on_c, 5, 65, 76
11, 299040, Note_on_c, 5, 53, 76
11, 299159, Note_on_c, 5, 65, 0
11, 299159, Note_on_c, 5, 53, 0
11, 299520, Note_on_c, 5, 60, 76
11, 299520, Note_on_c, 5, 48, 76
11, 299864, Note_on_c, 5, 60, 0
11, 299864, Note_on_c, 5, 48, 0
11, 299880, Note_on_c, 5, 60, 76
11, 299880, Note_on_c, 5, 48, 76
11, 299984, Note_on_c, 5, 60, 0
11, 299984, Note_on_c, 5, 48, 0
11, 300000, Note_on_c, 5, 57, 76
11, 300000, Note_on_c, 5, 48, 76
11, 300119, Note_on_c, 5, 57, 0
11, 300119, Note_on_c, 5, 48, 0
11, 300480, Note_on_c, 5, 57, 68
11, 300480, Note_on_c, 5, 48, 68
11, 300599, Note_on_c, 5, 57, 0
11, 300599, Note_on_c, 5, 48, 0
11, 300960, Note_on_c, 5, 57, 60
11, 300960, Note_on_c, 5, 48, 60
11, 301079, Note_on_c, 5, 57, 0
11, 301079, Note_on_c, 5, 48, 0
11, 301440, Note_on_c, 5, 57, 52
11, 301440, Note_on_c, 5, 48, 52
11, 301559, Note_on_c, 5, 57, 0
11, 301559, Note_on_c, 5, 48, 0
11, 301920, Note_on_c, 5, 57, 44
11, 301920, Note_on_c, 5, 48, 44
11, 302039, Note_on_c, 5, 57, 0
11, 302039, Note_on_c, 5, 48, 0
11, 308640, Note_on_c, 5, 53, 84
11, 308640, Note_on_c, 5, 65, 84
11, 308700, Control_c, 5, 11, 112
11, 309104, Note_on_c, 5, 53, 0
11, 309104, Note_on_c, 5, 65, 0
11, 309118, Control_c, 5, 11, 127
11, 309120, Note_on_c, 5, 67, 84
11, 309120, Note_on_c, 5, 60, 84
11, 309180, Control_c, 5, 11, 112
11, 309584, Note_on_c, 5, 67, 0
11, 309584, Note_on_c, 5, 60, 0
11, 309598, Control_c, 5, 11, 127
11, 309600, Note_on_c, 5, 65, 84
11, 309600, Note_on_c, 5, 69, 84
11, 309660, Control_c, 5, 11, 112
11, 310064, Note_on_c, 5, 65, 0
11, 310064, Note_on_c, 5, 69, 0
11, 310078, Control_c, 5, 11, 127
11, 310080, Note_on_c, 5, 69, 76
11, 310080, Note_on_c, 5, 65, 76
11, 310259, Note_on_c, 5, 69, 0
11, 310259, Note_on_c, 5, 65, 0
11, 310320, Note_on_c, 5, 69, 76
11, 310320, Note_on_c, 5, 65, 76
11, 310499, Note_on_c, 5, 69, 0
11, 310499, Note_on_c, 5, 65, 0
11, 310560, Note_on_c, 5, 69, 76
11, 310560, Note_on_c, 5, 65, 76
11, 311024, Note_on_c, 5, 69, 0
11, 311024, Note_on_c, 5, 65, 0
11, 311040, Note_on_c, 5, 57, 52
11, 311040, Note_on_c, 5, 53, 52
11, 311504, Note_on_c, 5, 57, 0
11, 311504, Note_on_c, 5, 53, 0
11, 311520, Note_on_c, 5, 57, 52
11, 311520, Note_on_c, 5, 53, 52
11, 311999, Note_on_c, 5, 57, 0
11, 311999, Note_on_c, 5, 53, 0
11, 311999, End_track
12, 0, Start_track
12, 0, Title_t, "Violin I"
12, 0, MIDI_port, 0
12, 0, Program_c, 10, 48
12, 0, Control_c, 10, 7, 96
12, 0, Control_c, 10, 10, 48
12, 0, Control_c, 10, 11, 127
12, 120, Note_on_c, 10, 69, 52
12, 239, Note_on_c, 10, 69, 0
12, 240, Note_on_c, 10, 70, 52
12, 359, Note_on_c, 10, 70, 0
12, 360, Note_on_c, 10, 74, 52
12, 449, Note_on_c, 10, 74, 0
12, 480, Note_on_c, 10, 72, 52
12, 599, Note_on_c, 10, 72, 0
12, 600, Note_on_c, 10, 70, 52
12, 659, Note_on_c, 10, 70, 0
12, 660, Note_on_c, 10, 69, 52
12, 711, Note_on_c, 10, 69, 0
12, 720, Note_on_c, 10, 67, 52
12, 809, Note_on_c, 10, 67, 0
12, 840, Note_on_c, 10, 60, 52
12, 929, Note_on_c, 10, 60, 0
12, 960, Note_on_c, 10, 65, 52
12, 1079, Note_on_c, 10, 65, 0
12, 1080, Note_on_c, 10, 67, 52
12, 1199, Note_on_c, 10, 67, 0
12, 1200, Note_on_c, 10, 69, 52
12, 1319, Note_on_c, 10, 69, 0
12, 1320, Note_on_c, 10, 70, 52
12, 1379, Note_on_c, 10, 70, 0
12, 1380, Note_on_c, 10, 69, 52
12, 1431, Note_on_c, 10, 69, 0
12, 1440, Note_on_c, 10, 67, 52
12, 1919, Note_on_c, 10, 67, 0
12, 2520, Note_on_c, 10, 67, 52
12, 2579, Note_on_c, 10, 67, 0
12, 2580, Note_on_c, 10, 69, 52
12, 2639, Note_on_c, 10, 69, 0
12, 2640, Note_on_c, 10, 70, 52
12, 2759, Note_on_c, 10, 70, 0
12, 2760, Note_on_c, 10, 67, 52
12, 2879, Note_on_c, 10, 67, 0
12, 2880, Note_on_c, 10, 69, 52
12, 2999, Note_on_c, 10, 69, 0
12, 3240, Note_on_c, 10, 70, 52
12, 3359, Note_on_c, 10, 70, 0
12, 3360, Note_on_c, 10, 67, 52
12, 3464, Note_on_c, 10, 67, 0
12, 3480, Note_on_c, 10, 67, 52
12, 3539, Note_on_c, 10, 67, 0
12, 3540, Note_on_c, 10, 69, 52
12, 3599, Note_on_c, 10, 69, 0
12, 3600, Note_on_c, 10, 70, 52
12, 3719, Note_on_c, 10, 70, 0
12, 3720, Note_on_c, 10, 67, 52
12, 3824, Note_on_c, 10, 67, 0
12, 3838, Control_c, 10, 11, 80
12, 3840, Note_on_c, 10, 69, 76
12, 3880, Control_c, 10, 11, 82
12, 3920, Control_c, 10, 11, 84
12, 3960, Control_c, 10, 11, 86
12, 4000, Control_c, 10, 11, 88
12, 4040, Control_c, 10, 11, 90
12, 4079, Note_on_c, 10, 69, 0
12, 4080, Control_c, 10, 11, 92
12, 4080, Note_on_c, 10, 72, 76
12, 4120, Control_c, 10, 11, 94
12, 4160, Control_c, 10, 11, 96
12, 4200, Control_c, 10, 11, 98
12, 4240, Control_c, 10, 11, 100
12, 4280, Control_c, 10, 11, 102
12, 4319, Note_on_c, 10, 72, 0
12, 4320, Control_c, 10, 11, 104
12, 4320, Note_on_c, 10, 70, 76
12, 4360, Control_c, 10, 11, 105
12, 4400, Control_c, 10, 11, 107
12, 4440, Control_c, 10, 11, 109
12, 4480, Control_c, 10, 11, 111
12, 4520, Control_c, 10, 11, 113
12, 4560, Control_c, 10, 11, 115
12, 4600, Control_c, 10, 11, 117
12, 4640, Control_c, 10, 11, 119
12, 4679, Note_on_c, 10, 70, 0
12, 4680, Note_on_c, 10, 69, 76
12, 4680, Control_c, 10, 11, 121
12, 4720, Control_c, 10, 11, 123
12, 4760, Control_c, 10, 11, 125
12, 4784, Note_on_c, 10, 69, 0
12, 4800, Note_on_c, 10, 74, 76
12, 4800, Control_c, 10, 11, 127
12, 5039, Note_on_c, 10, 74, 0
12, 5040, Note_on_c, 10, 72, 76
12, 5264, Note_on_c, 10, 72, 0
12, 5280, Note_on_c, 10, 67, 76
12, 5369, Note_on_c, 10, 67, 0
12, 5400, Note_on_c, 10, 67, 76
12, 5459, Note_on_c, 10, 67, 0
12, 5460, Note_on_c, 10, 69, 76
12, 5519, Note_on_c, 10, 69, 0
12, 5520, Note_on_c, 10, 70, 76
12, 5639, Note_on_c, 10, 70, 0
12, 5640, Note_on_c, 10, 67, 76
12, 5744, Note_on_c, 10, 67, 0
12, 5760, Note_on_c, 10, 69, 76
12, 5999, Note_on_c, 10, 69, 0
12, 6000, Note_on_c, 10, 72, 76
12, 6239, Note_on_c, 10, 72, 0
12, 6240, Note_on_c, 10, 70, 76
12, 6599, Note_on_c, 10, 70, 0
12, 6600, Note_on_c, 10, 69, 76
12, 6704, Note_on_c, 10, 69, 0
12, 6720, Note_on_c, 10, 74, 52
12, 6959, Note_on_c, 10, 74, 0
12, 6960, Note_on_c, 10, 72, 52
12, 7184, Note_on_c, 10, 72, 0
12, 7200, Note_on_c, 10, 67, 52
12, 7289, Note_on_c, 10, 67, 0
12, 7320, Note_on_c, 10, 67, 53
12, 7379, Note_on_c, 10, 67, 0
12, 7380, Note_on_c, 10, 69, 54
12, 7431, Note_on_c, 10, 69, 0
12, 7440, Note_on_c, 10, 70, 55
12, 7529, Note_on_c, 10, 70, 0
12, 7560, Note_on_c, 10, 71, 56
12, 7649, Note_on_c, 10, 71, 0
12, 7680, Note_on_c, 10, 72, 58
12, 7769, Note_on_c, 10, 72, 0
12, 7800, Note_on_c, 10, 67, 59
12, 7859, Note_on_c, 10, 67, 0
12, 7860, Note_on_c, 10, 69, 60
12, 7911, Note_on_c, 10, 69, 0
12, 7920, Note_on_c, 10, 70, 61
12, 8009, Note_on_c, 10, 70, 0
12, 8040, Note_on_c, 10, 71, 62
12, 8129, Note_on_c, 10, 71, 0
12, 8160, Note_on_c, 10, 72, 64
12, 8249, Note_on_c, 10, 72, 0
12, 8280, Note_on_c, 10, 67, 65
12, 8339, Note_on_c, 10, 67, 0
12, 8340, Note_on_c, 10, 69, 66
12, 8391, Note_on_c, 10, 69, 0
12, 8400, Note_on_c, 10, 70, 67
12, 8489, Note_on_c, 10, 70, 0
12, 8520, Note_on_c, 10, 71, 68
12, 8609, Note_on_c, 10, 71, 0
12, 8640, Note_on_c, 10, 72, 70
12, 8729, Note_on_c, 10, 72, 0
12, 8760, Note_on_c, 10, 67, 71
12, 8819, Note_on_c, 10, 67, 0
12, 8820, Note_on_c, 10, 69, 72
12, 8871, Note_on_c, 10, 69, 0
12, 8880, Note_on_c, 10, 70, 73
12, 8969, Note_on_c, 10, 70, 0
12, 9000, Note_on_c, 10, 71, 74
12, 9089, Note_on_c, 10, 71, 0
12, 9120, Note_on_c, 10, 72, 76
12, 9209, Note_on_c, 10, 72, 0
12, 9240, Note_on_c, 10, 67, 76
12, 9299, Note_on_c, 10, 67, 0
12, 9300, Note_on_c, 10, 69, 76
12, 9351, Note_on_c, 10, 69, 0
12, 9360, Note_on_c, 10, 70, 76
12, 9449, Note_on_c, 10, 70, 0
12, 9480, Note_on_c, 10, 71, 76
12, 9569, Note_on_c, 10, 71, 0
12, 9600, Note_on_c, 10, 72, 76
12, 9689, Note_on_c, 10, 72, 0
12, 9720, Note_on_c, 10, 67, 74
12, 9779, Note_on_c, 10, 67, 0
12, 9780, Note_on_c, 10, 69, 73
12, 9831, Note_on_c, 10, 69, 0
12, 9840, Note_on_c, 10, 70, 72
12, 9929, Note_on_c, 10, 70, 0
12, 9960, Note_on_c, 10, 71, 70
12, 10049, Note_on_c, 10, 71, 0
12, 10080, Note_on_c, 10, 72, 68
12, 10169, Note_on_c, 10, 72, 0
12, 10200, Note_on_c, 10, 67, 66
12, 10259, Note_on_c, 10, 67, 0
12, 10260, Note_on_c, 10, 69, 65
12, 10311, Note_on_c, 10, 69, 0
12, 10320, Note_on_c, 10, 70, 64
12, 10409, Note_on_c, 10, 70, 0
12, 10440, Note_on_c, 10, 71, 62
12, 10529, Note_on_c, 10, 71, 0
12, 10560, Note_on_c, 10, 72, 60
12, 10649, Note_on_c, 10, 72, 0
12, 10680, Note_on_c, 10, 67, 58
12, 10739, Note_on_c, 10, 67, 0
12, 10740, Note_on_c, 10, 69, 57
12, 10791, Note_on_c, 10, 69, 0
12, 10800, Note_on_c, 10, 70, 56
12, 10889, Note_on_c, 10, 70, 0
12, 10920, Note_on_c, 10, 71, 54
12, 11009, Note_on_c, 10, 71, 0
12, 11040, Note_on_c, 10, 72, 52
12, 11129, Note_on_c, 10, 72, 0
12, 11160, Note_on_c, 10, 67, 50
12, 11219, Note_on_c, 10, 67, 0
12, 11220, Note_on_c, 10, 69, 49
12, 11271, Note_on_c, 10, 69, 0
12, 11280, Note_on_c, 10, 70, 48
12, 11369, Note_on_c, 10, 70, 0
12, 11400, Note_on_c, 10, 71, 46
12, 11489, Note_on_c, 10, 71, 0
12, 11520, Note_on_c, 10, 72, 44
12, 11609, Note_on_c, 10, 72, 0
12, 11640, Note_on_c, 10, 67, 44
12, 11699, Note_on_c, 10, 67, 0
12, 11700, Note_on_c, 10, 69, 44
12, 11751, Note_on_c, 10, 69, 0
12, 11760, Note_on_c, 10, 70, 44
12, 11849, Note_on_c, 10, 70, 0
12, 11880, Note_on_c, 10, 71, 44
12, 11969, Note_on_c, 10, 71, 0
12, 12000, Note_on_c, 10, 72, 44
12, 12089, Note_on_c, 10, 72, 0
12, 12120, Note_on_c, 10, 69, 44
12, 12179, Note_on_c, 10, 69, 0
12, 12180, Note_on_c, 10, 70, 44
12, 12231, Note_on_c, 10, 70, 0
12, 12240, Note_on_c, 10, 72, 44
12, 12329, Note_on_c, 10, 72, 0
12, 12360, Note_on_c, 10, 73, 44
12, 12449, Note_on_c, 10, 73, 0
12, 12480, Note_on_c, 10, 74, 44
12, 12569, Note_on_c, 10, 74, 0
12, 15480, Note_on_c, 10, 65, 46
12, 15539, Note_on_c, 10, 65, 0
12, 15540, Note_on_c, 10, 69, 47
12, 15599, Note_on_c, 10, 69, 0
12, 15720, Note_on_c, 10, 67, 50
12, 15779, Note_on_c, 10, 67, 0
12, 15780, Note_on_c, 10, 70, 51
12, 15839, Note_on_c, 10, 70, 0
12, 15960, Note_on_c, 10, 69, 54
12, 16019, Note_on_c, 10, 69, 0
12, 16020, Note_on_c, 10, 72, 55
12, 16079, Note_on_c, 10, 72, 0
12, 16200, Note_on_c, 10, 67, 58
12, 16259, Note_on_c, 10, 67, 0
12, 16260, Note_on_c, 10, 76, 59
12, 16319, Note_on_c, 10, 76, 0
12, 16440, Note_on_c, 10, 69, 62
12, 16499, Note_on_c, 10, 69, 0
12, 16500, Note_on_c, 10, 77, 63
12, 16559, Note_on_c, 10, 77, 0
12, 16680, Note_on_c, 10, 69, 66
12, 16739, Note_on_c, 10, 69, 0
12, 16740, Note_on_c, 10, 77, 67
12, 16799, Note_on_c, 10, 77, 0
12, 16920, Note_on_c, 10, 76, 70
12, 16979, Note_on_c, 10, 76, 0
12, 16980, Note_on_c, 10, 79, 71
12, 17039, Note_on_c, 10, 79, 0
12, 17160, Note_on_c, 10, 76, 74
12, 17219, Note_on_c, 10, 76, 0
12, 17220, Note_on_c, 10, 79, 75
12, 17271, Note_on_c, 10, 79, 0
12, 17280, Note_on_c, 10, 81, 76
12, 17369, Note_on_c, 10, 81, 0
12, 17400, Note_on_c, 10, 81, 76
12, 17489, Note_on_c, 10, 81, 0
12, 17520, Note_on_c, 10, 82, 76
12, 17609, Note_on_c, 10, 82, 0
12, 17640, Note_on_c, 10, 86, 76
12, 17729, Note_on_c, 10, 86, 0
12, 17760, Note_on_c, 10, 84, 76
12, 17879, Note_on_c, 10, 84, 0
12, 17880, Note_on_c, 10, 82, 76
12, 17939, Note_on_c, 10, 82, 0
12, 17940, Note_on_c, 10, 81, 76
12, 17991, Note_on_c, 10, 81, 0
12, 18000, Note_on_c, 10, 79, 76
12, 18089, Note_on_c, 10, 79, 0
12, 18120, Note_on_c, 10, 72, 76
12, 18209, Note_on_c, 10, 72, 0
12, 18240, Note_on_c, 10, 77, 76
12, 18329, Note_on_c, 10, 77, 0
12, 18360, Note_on_c, 10, 79, 76
12, 18449, Note_on_c, 10, 79, 0
12, 18480, Note_on_c, 10, 81, 76
12, 18599, Note_on_c, 10, 81, 0
12, 18600, Note_on_c, 10, 82, 76
12, 18659, Note_on_c, 10, 82, 0
12, 18660, Note_on_c, 10, 81, 76
12, 18711, Note_on_c, 10, 81, 0
12, 18720, Note_on_c, 10, 79, 76
12, 18809, Note_on_c, 10, 79, 0
12, 18840, Note_on_c, 10, 81, 76
12, 18929, Note_on_c, 10, 81, 0
12, 18960, Note_on_c, 10, 82, 76
12, 19079, Note_on_c, 10, 82, 0
12, 19080, Note_on_c, 10, 84, 76
12, 19139, Note_on_c, 10, 84, 0
12, 19140, Note_on_c, 10, 82, 76
12, 19191, Note_on_c, 10, 82, 0
12, 19200, Note_on_c, 10, 81, 76
12, 19319, Note_on_c, 10, 81, 0
12, 19320, Note_on_c, 10, 84, 76
12, 19424, Note_on_c, 10, 84, 0
12, 19440, Note_on_c, 10, 84, 76
12, 19529, Note_on_c, 10, 84, 0
12, 19560, Note_on_c, 10, 84, 76
12, 19649, Note_on_c, 10, 84, 0
12, 19680, Note_on_c, 10, 84, 76
12, 19919, Note_on_c, 10, 84, 0
12, 19920, Note_on_c, 10, 82, 76
12, 19979, Note_on_c, 10, 82, 0
12, 19980, Note_on_c, 10, 81, 76
12, 20039, Note_on_c, 10, 81, 0
12, 20040, Note_on_c, 10, 79, 76
12, 20099, Note_on_c, 10, 79, 0
12, 20100, Note_on_c, 10, 77, 76
12, 20151, Note_on_c, 10, 77, 0
12, 20160, Note_on_c, 10, 76, 76
12, 20249, Note_on_c, 10, 76, 0
12, 20280, Note_on_c, 10, 77, 76
12, 20369, Note_on_c, 10, 77, 0
12, 20400, Note_on_c, 10, 79, 76
12, 20519, Note_on_c, 10, 79, 0
12, 20520, Note_on_c, 10, 81, 76
12, 20579, Note_on_c, 10, 81, 0
12, 20580, Note_on_c, 10, 79, 76
12, 20631, Note_on_c, 10, 79, 0
12, 20640, Note_on_c, 10, 77, 76
12, 20729, Note_on_c, 10, 77, 0
12, 20760, Note_on_c, 10, 79, 76
12, 20849, Note_on_c, 10, 79, 0
12, 20880, Note_on_c, 10, 81, 76
12, 20999, Note_on_c, 10, 81, 0
12, 21000, Note_on_c, 10, 82, 76
12, 21059, Note_on_c, 10, 82, 0
12, 21060, Note_on_c, 10, 81, 76
12, 21111, Note_on_c, 10, 81, 0
12, 21120, Note_on_c, 10, 79, 76
12, 21239, Note_on_c, 10, 79, 0
12, 21240, Note_on_c, 10, 82, 76
12, 21344, Note_on_c, 10, 82, 0
12, 21360, Note_on_c, 10, 82, 76
12, 21449, Note_on_c, 10, 82, 0
12, 21480, Note_on_c, 10, 82, 76
12, 21569, Note_on_c, 10, 82, 0
12, 21600, Note_on_c, 10, 82, 76
12, 21839, Note_on_c, 10, 82, 0
12, 21840, Note_on_c, 10, 84, 76
12, 21899, Note_on_c, 10, 84, 0
12, 21900, Note_on_c, 10, 82, 76
12, 21959, Note_on_c, 10, 82, 0
12, 21960, Note_on_c, 10, 81, 76
12, 22019, Note_on_c, 10, 81, 0
12, 22020, Note_on_c, 10, 79, 76
12, 22071, Note_on_c, 10, 79, 0
12, 22080, Note_on_c, 10, 81, 76
12, 22169, Note_on_c, 10, 81, 0
12, 22200, Note_on_c, 10, 82, 76
12, 22289, Note_on_c, 10, 82, 0
12, 22320, Note_on_c, 10, 84, 76
12, 22439, Note_on_c, 10, 84, 0
12, 22440, Note_on_c, 10, 86, 76
12, 22499, Note_on_c, 10, 86, 0
12, 22500, Note_on_c, 10, 84, 76
12, 22559, Note_on_c, 10, 84, 0
12, 22560, Note_on_c, 10, 82, 76
12, 22679, Note_on_c, 10, 82, 0
12, 22680, Note_on_c, 10, 84, 76
12, 22739, Note_on_c, 10, 84, 0
12, 22740, Note_on_c, 10, 82, 76
12, 22799, Note_on_c, 10, 82, 0
12, 22800, Note_on_c, 10, 79, 76
12, 22919, Note_on_c, 10, 79, 0
12, 22920, Note_on_c, 10, 84, 76
12, 22979, Note_on_c, 10, 84, 0
12, 22980, Note_on_c, 10, 82, 76
12, 23031, Note_on_c, 10, 82, 0
12, 23040, Note_on_c, 10, 81, 76
12, 23129, Note_on_c, 10, 81, 0
12, 23160, Note_on_c, 10, 82, 76
12, 23249, Note_on_c, 10, 82, 0
12, 23280, Note_on_c, 10, 84, 76
12, 23399, Note_on_c, 10, 84, 0
12, 23400, Note_on_c, 10, 86, 76
12, 23459, Note_on_c, 10, 86, 0
12, 23460, Note_on_c, 10, 84, 76
12, 23519, Note_on_c, 10, 84, 0
12, 23520, Note_on_c, 10, 82, 76
12, 23639, Note_on_c, 10, 82, 0
12, 23640, Note_on_c, 10, 84, 76
12, 23699, Note_on_c, 10, 84, 0
12, 23700, Note_on_c, 10, 82, 76
12, 23759, Note_on_c, 10, 82, 0
12, 23760, Note_on_c, 10, 79, 76
12, 23879, Note_on_c, 10, 79, 0
12, 23880, Note_on_c, 10, 84, 76
12, 23939, Note_on_c, 10, 84, 0
12, 23940, Note_on_c, 10, 82, 76
12, 23991, Note_on_c, 10, 82, 0
12, 24000, Note_on_c, 10, 81, 76
12, 24119, Note_on_c, 10, 81, 0
12, 24120, Note_on_c, 10, 84, 76
12, 24179, Note_on_c, 10, 84, 0
12, 24180, Note_on_c, 10, 82, 76
12, 24239, Note_on_c, 10, 82, 0
12, 24240, Note_on_c, 10, 79, 76
12, 24359, Note_on_c, 10, 79, 0
12, 24360, Note_on_c, 10, 84, 76
12, 24419, Note_on_c, 10, 84, 0
12, 24420, Note_on_c, 10, 82, 76
12, 24471, Note_on_c, 10, 82, 0
12, 24480, Note_on_c, 10, 81, 76
12, 24599, Note_on_c, 10, 81, 0
12, 24600, Note_on_c, 10, 84, 76
12, 24659, Note_on_c, 10, 84, 0
12, 24660, Note_on_c, 10, 82, 76
12, 24719, Note_on_c, 10, 82, 0
12, 24720, Note_on_c, 10, 79, 76
12, 24839, Note_on_c, 10, 79, 0
12, 24840, Note_on_c, 10, 84, 76
12, 24899, Note_on_c, 10, 84, 0
12, 24900, Note_on_c, 10, 82, 76
12, 24951, Note_on_c, 10, 82, 0
12, 24960, Note_on_c, 10, 72, 76
12, 24960, Note_on_c, 10, 65, 76
12, 24960, Note_on_c, 10, 81, 76
12, 25079, Note_on_c, 10, 72, 0
12, 25079, Note_on_c, 10, 65, 0
12, 25079, Note_on_c, 10, 81, 0
12, 25560, Note_on_c, 10, 65, 52
12, 25679, Note_on_c, 10, 65, 0
12, 25680, Note_on_c, 10, 67, 52
12, 25784, Note_on_c, 10, 67, 0
12, 25800, Note_on_c, 10, 70, 52
12, 25889, Note_on_c, 10, 70, 0
12, 25920, Note_on_c, 10, 69, 52
12, 26009, Note_on_c, 10, 69, 0
12, 26040, Note_on_c, 10, 74, 52
12, 26159, Note_on_c, 10, 74, 0
12, 26160, Note_on_c, 10, 76, 52
12, 26264, Note_on_c, 10, 76, 0
12, 26280, Note_on_c, 10, 79, 52
12, 26369, Note_on_c, 10, 79, 0
12, 26400, Note_on_c, 10, 77, 52
12, 26489, Note_on_c, 10, 77, 0
12, 26520, Note_on_c, 10, 77, 52
12, 26639, Note_on_c, 10, 77, 0
12, 26640, Note_on_c, 10, 79, 52
12, 26744, Note_on_c, 10, 79, 0
12, 26760, Note_on_c, 10, 82, 52
12, 26849, Note_on_c, 10, 82, 0
12, 26880, Note_on_c, 10, 81, 52
12, 26999, Note_on_c, 10, 81, 0
12, 27480, Note_on_c, 10, 65, 52
12, 27599, Note_on_c, 10, 65, 0
12, 27600, Note_on_c, 10, 67, 52
12, 27704, Note_on_c, 10, 67, 0
12, 27720, Note_on_c, 10, 70, 52
12, 27809, Note_on_c, 10, 70, 0
12, 27840, Note_on_c, 10, 69, 52
12, 27929, Note_on_c, 10, 69, 0
12, 27960, Note_on_c, 10, 74, 52
12, 28079, Note_on_c, 10, 74, 0
12, 28080, Note_on_c, 10, 76, 52
12, 28184, Note_on_c, 10, 76, 0
12, 28200, Note_on_c, 10, 79, 52
12, 28289, Note_on_c, 10, 79, 0
12, 28320, Note_on_c, 10, 77, 52
12, 28409, Note_on_c, 10, 77, 0
12, 28440, Note_on_c, 10, 77, 52
12, 28559, Note_on_c, 10, 77, 0
12, 28560, Note_on_c, 10, 79, 52
12, 28664, Note_on_c, 10, 79, 0
12, 28680, Note_on_c, 10, 82, 52
12, 28769, Note_on_c, 10, 82, 0
12, 28800, Note_on_c, 10, 81, 52
12, 28919, Note_on_c, 10, 81, 0
12, 29400, Note_on_c, 10, 77, 52
12, 29519, Note_on_c, 10, 77, 0
12, 29520, Note_on_c, 10, 79, 52
12, 29624, Note_on_c, 10, 79, 0
12, 29640, Note_on_c, 10, 81, 52
12, 29729, Note_on_c, 10, 81, 0
12, 29760, Note_on_c, 10, 79, 52
12, 29999, Note_on_c, 10, 79, 0
12, 30360, Note_on_c, 10, 78, 52
12, 30479, Note_on_c, 10, 78, 0
12, 30480, Note_on_c, 10, 79, 52
12, 30584, Note_on_c, 10, 79, 0
12, 30600, Note_on_c, 10, 81, 52
12, 30689, Note_on_c, 10, 81, 0
12, 30720, Note_on_c, 10, 79, 52
12, 30809, Note_on_c, 10, 79, 0
12, 30840, Note_on_c, 10, 78, 52
12, 30959, Note_on_c, 10, 78, 0
12, 30960, Note_on_c, 10, 79, 52
12, 31064, Note_on_c, 10, 79, 0
12, 31080, Note_on_c, 10, 81, 52
12, 31169, Note_on_c, 10, 81, 0
12, 31200, Note_on_c, 10, 79, 52
12, 31289, Note_on_c, 10, 79, 0
12, 31320, Note_on_c, 10, 78, 52
12, 31439, Note_on_c, 10, 78, 0
12, 31440, Note_on_c, 10, 79, 52
12, 31544, Note_on_c, 10, 79, 0
12, 31560, Note_on_c, 10, 81, 52
12, 31649, Note_on_c, 10, 81, 0
12, 31680, Note_on_c, 10, 79, 52
12, 31799, Note_on_c, 10, 79, 0
12, 31800, Note_on_c, 10, 77, 52
12, 31919, Note_on_c, 10, 77, 0
12, 31920, Note_on_c, 10, 74, 52
12, 32039, Note_on_c, 10, 74, 0
12, 32040, Note_on_c, 10, 71, 52
12, 32159, Note_on_c, 10, 71, 0
12, 32160, Note_on_c, 10, 67, 52
12, 32279, Note_on_c, 10, 67, 0
12, 32280, Note_on_c, 10, 74, 52
12, 32399, Note_on_c, 10, 74, 0
12, 32400, Note_on_c, 10, 71, 52
12, 32519, Note_on_c, 10, 71, 0
12, 32520, Note_on_c, 10, 67, 52
12, 32624, Note_on_c, 10, 67, 0
12, 32640, Note_on_c, 10, 81, 52
12, 32759, Note_on_c, 10, 81, 0
12, 32760, Note_on_c, 10, 79, 52
12, 32879, Note_on_c, 10, 79, 0
12, 32880, Note_on_c, 10, 76, 52
12, 32999, Note_on_c, 10, 76, 0
12, 33000, Note_on_c, 10, 72, 52
12, 33119, Note_on_c, 10, 72, 0
12, 33120, Note_on_c, 10, 67, 52
12, 33239, Note_on_c, 10, 67, 0
12, 33240, Note_on_c, 10, 76, 52
12, 33359, Note_on_c, 10, 76, 0
12, 33360, Note_on_c, 10, 72, 52
12, 33479, Note_on_c, 10, 72, 0
12, 33480, Note_on_c, 10, 67, 52
12, 33584, Note_on_c, 10, 67, 0
12, 33600, Note_on_c, 10, 62, 52
12, 33719, Note_on_c, 10, 62, 0
12, 33720, Note_on_c, 10, 55, 52
12, 33839, Note_on_c, 10, 55, 0
12, 33840, Note_on_c, 10, 62, 52
12, 33959, Note_on_c, 10, 62, 0
12, 33960, Note_on_c, 10, 55, 52
12, 34079, Note_on_c, 10, 55, 0
12, 34080, Note_on_c, 10, 62, 52
12, 34199, Note_on_c, 10, 62, 0
12, 34200, Note_on_c, 10, 55, 52
12, 34319, Note_on_c, 10, 55, 0
12, 34320, Note_on_c, 10, 62, 52
12, 34439, Note_on_c, 10, 62, 0
12, 34440, Note_on_c, 10, 55, 52
12, 34544, Note_on_c, 10, 55, 0
12, 34560, Note_on_c, 10, 64, 52
12, 34679, Note_on_c, 10, 64, 0
12, 34680, Note_on_c, 10, 55, 52
12, 34799, Note_on_c, 10, 55, 0
12, 34800, Note_on_c, 10, 64, 52
12, 34919, Note_on_c, 10, 64, 0
12, 34920, Note_on_c, 10, 55, 52
12, 35039, Note_on_c, 10, 55, 0
12, 35040, Note_on_c, 10, 64, 52
12, 35159, Note_on_c, 10, 64, 0
12, 35160, Note_on_c, 10, 55, 52
12, 35279, Note_on_c, 10, 55, 0
12, 35280, Note_on_c, 10, 64, 52
12, 35399, Note_on_c, 10, 64, 0
12, 35400, Note_on_c, 10, 55, 52
12, 35504, Note_on_c, 10, 55, 0
12, 35518, Control_c, 10, 11, 80
12, 35520, Note_on_c, 10, 67, 76
12, 35704, Control_c, 10, 11, 81
12, 35888, Control_c, 10, 11, 82
12, 36071, Control_c, 10, 11, 83
12, 36255, Control_c, 10, 11, 84
12, 36439, Control_c, 10, 11, 85
12, 36464, Note_on_c, 10, 67, 0
12, 36480, Note_on_c, 10, 72, 76
12, 36623, Control_c, 10, 11, 86
12, 36807, Control_c, 10, 11, 87
12, 36991, Control_c, 10, 11, 88
12, 37174, Control_c, 10, 11, 89
12, 37358, Control_c, 10, 11, 90
12, 37424, Note_on_c, 10, 72, 0
12, 37440, Note_on_c, 10, 71, 76
12, 37542, Control_c, 10, 11, 91
12, 37664, Note_on_c, 10, 71, 0
12, 37680, Note_on_c, 10, 71, 76
12, 37726, Control_c, 10, 11, 92
12, 37904, Note_on_c, 10, 71, 0
12, 37910, Control_c, 10, 11, 93
12, 37920, Note_on_c, 10, 71, 76
12, 38094, Control_c, 10, 11, 94
12, 38159, Note_on_c, 10, 71, 0
12, 38160, Note_on_c, 10, 74, 76
12, 38277, Control_c, 10, 11, 95
12, 38279, Note_on_c, 10, 74, 0
12, 38280, Note_on_c, 10, 71, 76
12, 38384, Note_on_c, 10, 71, 0
12, 38400, Note_on_c, 10, 72, 76
12, 38461, Control_c, 10, 11, 96
12, 38624, Note_on_c, 10, 72, 0
12, 38640, Note_on_c, 10, 72, 76
12, 38645, Control_c, 10, 11, 97
12, 38829, Control_c, 10, 11, 98
12, 38864, Note_on_c, 10, 72, 0
12, 38880, Note_on_c, 10, 72, 76
12, 39013, Control_c, 10, 11, 99
12, 39119, Note_on_c, 10, 72, 0
12, 39120, Note_on_c, 10, 76, 76
12, 39197, Control_c, 10, 11, 100
12, 39239, Note_on_c, 10, 76, 0
12, 39240, Note_on_c, 10, 72, 76
12, 39344, Note_on_c, 10, 72, 0
12, 39360, Note_on_c, 10, 79, 76
12, 39380, Control_c, 10, 11, 101
12, 39439, Note_on_c, 10, 79, 0
12, 39440, Note_on_c, 10, 81, 76
12, 39519, Note_on_c, 10, 81, 0
12, 39520, Note_on_c, 10, 79, 76
12, 39564, Control_c, 10, 11, 102
12, 39599, Note_on_c, 10, 79, 0
12, 39600, Note_on_c, 10, 81, 76
12, 39679, Note_on_c, 10, 81, 0
12, 39680, Note_on_c, 10, 79, 76
12, 39748, Control_c, 10, 11, 103
12, 39759, Note_on_c, 10, 79, 0
12, 39760, Note_on_c, 10, 81, 76
12, 39839, Note_on_c, 10, 81, 0
12, 39840, Note_on_c, 10, 79, 76
12, 39919, Note_on_c, 10, 79, 0
12, 39920, Note_on_c, 10, 81, 76
12, 39932, Control_c, 10, 11, 104
12, 39999, Note_on_c, 10, 81, 0
12, 40000, Note_on_c, 10, 79, 76
12, 40079, Note_on_c, 10, 79, 0
12, 40080, Note_on_c, 10, 81, 76
12, 40116, Control_c, 10, 11, 105
12, 40159, Note_on_c, 10, 81, 0
12, 40160, Note_on_c, 10, 79, 76
12, 40239, Note_on_c, 10, 79, 0
12, 40240, Note_on_c, 10, 81, 76
12, 40300, Control_c, 10, 11, 106
12, 40307, Note_on_c, 10, 81, 0
12, 40320, Note_on_c, 10, 79, 76
12, 40399, Note_on_c, 10, 79, 0
12, 40400, Note_on_c, 10, 81, 76
12, 40479, Note_on_c, 10, 81, 0
12, 40480, Note_on_c, 10, 79, 76
12, 40483, Control_c, 10, 11, 107
12, 40559, Note_on_c, 10, 79, 0
12, 40560, Note_on_c, 10, 81, 76
12, 40639, Note_on_c, 10, 81, 0
12, 40640, Note_on_c, 10, 79, 76
12, 40667, Control_c, 10, 11, 108
12, 40719, Note_on_c, 10, 79, 0
12, 40720, Note_on_c, 10, 81, 76
12, 40799, Note_on_c, 10, 81, 0
12, 40800, Note_on_c, 10, 79, 76
12, 40851, Control_c, 10, 11, 109
12, 40879, Note_on_c, 10, 79, 0
12, 40880, Note_on_c, 10, 81, 76
12, 40959, Note_on_c, 10, 81, 0
12, 40960, Note_on_c, 10, 79, 76
12, 41035, Control_c, 10, 11, 110
12, 41039, Note_on_c, 10, 79, 0
12, 41040, Note_on_c, 10, 81, 76
12, 41119, Note_on_c, 10, 81, 0
12, 41120, Note_on_c, 10, 79, 76
12, 41199, Note_on_c, 10, 79, 0
12, 41200, Note_on_c, 10, 81, 76
12, 41219, Control_c, 10, 11, 111
12, 41267, Note_on_c, 10, 81, 0
12, 41280, Note_on_c, 10, 79, 76
12, 41339, Note_on_c, 10, 79, 0
12, 41340, Note_on_c, 10, 81, 76
12, 41399, Note_on_c, 10, 81, 0
12, 41400, Note_on_c, 10, 79, 76
12, 41403, Control_c, 10, 11, 112
12, 41459, Note_on_c, 10, 79, 0
12, 41460, Note_on_c, 10, 81, 76
12, 41519, Note_on_c, 10, 81, 0
12, 41520, Note_on_c, 10, 79, 76
12, 41579, Note_on_c, 10, 79, 0
12, 41580, Note_on_c, 10, 81, 76
12, 41586, Control_c, 10, 11, 113
12, 41639, Note_on_c, 10, 81, 0
12, 41640, Note_on_c, 10, 79, 76
12, 41699, Note_on_c, 10, 79, 0
12, 41700, Note_on_c, 10, 81, 76
12, 41759, Note_on_c, 10, 81, 0
12, 41760, Note_on_c, 10, 79, 76
12, 41770, Control_c, 10, 11, 114
12, 41819, Note_on_c, 10, 79, 0
12, 41820, Note_on_c, 10, 81, 76
12, 41879, Note_on_c, 10, 81, 0
12, 41880, Note_on_c, 10, 79, 76
12, 41939, Note_on_c, 10, 79, 0
12, 41940, Note_on_c, 10, 81, 76
12, 41954, Control_c, 10, 11, 115
12, 41999, Note_on_c, 10, 81, 0
12, 42000, Note_on_c, 10, 79, 76
12, 42059, Note_on_c, 10, 79, 0
12, 42060, Note_on_c, 10, 81, 76
12, 42119, Note_on_c, 10, 81, 0
12, 42120, Note_on_c, 10, 79, 76
12, 42138, Control_c, 10, 11, 116
12, 42179, Note_on_c, 10, 79, 0
12, 42180, Note_on_c, 10, 81, 76
12, 42231, Note_on_c, 10, 81, 0
12, 42240, Note_on_c, 10, 79, 76
12, 42299, Note_on_c, 10, 79, 0
12, 42300, Note_on_c, 10, 81, 76
12, 42322, Control_c, 10, 11, 117
12, 42359, Note_on_c, 10, 81, 0
12, 42360, Note_on_c, 10, 79, 76
12, 42419, Note_on_c, 10, 79, 0
12, 42420, Note_on_c, 10, 81, 76
12, 42479, Note_on_c, 10, 81, 0
12, 42480, Note_on_c, 10, 79, 76
12, 42506, Control_c, 10, 11, 118
12, 42539, Note_on_c, 10, 79, 0
12, 42540, Note_on_c, 10, 81, 76
12, 42599, Note_on_c, 10, 81, 0
12, 42600, Note_on_c, 10, 79, 76
12, 42659, Note_on_c, 10, 79, 0
12, 42660, Note_on_c, 10, 81, 76
12, 42689, Control_c, 10, 11, 119
12, 42719, Note_on_c, 10, 81, 0
12, 42720, Note_on_c, 10, 79, 76
12, 42779, Note_on_c, 10, 79, 0
12, 42780, Note_on_c, 10, 81, 76
12, 42839, Note_on_c, 10, 81, 0
12, 42840, Note_on_c, 10, 79, 76
12, 42873, Control_c, 10, 11, 120
12, 42899, Note_on_c, 10, 79, 0
12, 42900, Note_on_c, 10, 81, 76
12, 42959, Note_on_c, 10, 81, 0
12, 42960, Note_on_c, 10, 79, 76
12, 43019, Note_on_c, 10, 79, 0
12, 43020, Note_on_c, 10, 81, 76
12, 43057, Control_c, 10, 11, 121
12, 43079, Note_on_c, 10, 81, 0
12, 43080, Note_on_c, 10, 79, 76
12, 43139, Note_on_c, 10, 79, 0
12, 43140, Note_on_c, 10, 81, 76
12, 43191, Note_on_c, 10, 81, 0
12, 43200, Note_on_c, 10, 79, 76
12, 43241, Control_c, 10, 11, 122
12, 43259, Note_on_c, 10, 79, 0
12, 43260, Note_on_c, 10, 81, 76
12, 43319, Note_on_c, 10, 81, 0
12, 43320, Note_on_c, 10, 79, 76
12, 43379, Note_on_c, 10, 79, 0
12, 43380, Note_on_c, 10, 81, 76
12, 43425, Control_c, 10, 11, 123
12, 43439, Note_on_c, 10, 81, 0
12, 43440, Note_on_c, 10, 79, 76
12, 43499, Note_on_c, 10, 79, 0
12, 43500, Note_on_c, 10, 81, 76
12, 43559, Note_on_c, 10, 81, 0
12, 43560, Note_on_c, 10, 79, 76
12, 43609, Control_c, 10, 11, 124
12, 43619, Note_on_c, 10, 79, 0
12, 43620, Note_on_c, 10, 81, 76
12, 43679, Note_on_c, 10, 81, 0
12, 43680, Note_on_c, 10, 79, 76
12, 43739, Note_on_c, 10, 79, 0
12, 43740, Note_on_c, 10, 81, 76
12, 43792, Control_c, 10, 11, 125
12, 43799, Note_on_c, 10, 81, 0
12, 43800, Note_on_c, 10, 79, 76
12, 43859, Note_on_c, 10, 79, 0
12, 43860, Note_on_c, 10, 81, 76
12, 43919, Note_on_c, 10, 81, 0
12, 43920, Note_on_c, 10, 79, 76
12, 43976, Control_c, 10, 11, 127
12, 43979, Note_on_c, 10, 79, 0
12, 43980, Note_on_c, 10, 81, 76
12, 44039, Note_on_c, 10, 81, 0
12, 44040, Note_on_c, 10, 79, 76
12, 44099, Note_on_c, 10, 79, 0
12, 44100, Note_on_c, 10, 81, 76
12, 44151, Note_on_c, 10, 81, 0
12, 44160, Note_on_c, 10, 79, 76
12, 44519, Note_on_c, 10, 79, 0
12, 44520, Note_on_c, 10, 81, 76
12, 44579, Note_on_c, 10, 81, 0
12, 44580, Note_on_c, 10, 83, 76
12, 44631, Note_on_c, 10, 83, 0
12, 44640, Note_on_c, 10, 84, 76
12, 44759, Note_on_c, 10, 84, 0
12, 44760, Note_on_c, 10, 83, 76
12, 44819, Note_on_c, 10, 83, 0
12, 44820, Note_on_c, 10, 81, 76
12, 44879, Note_on_c, 10, 81, 0
12, 44880, Note_on_c, 10, 79, 76
12, 44999, Note_on_c, 10, 79, 0
12, 45000, Note_on_c, 10, 81, 76
12, 45059, Note_on_c, 10, 81, 0
12, 45060, Note_on_c, 10, 83, 76
12, 45111, Note_on_c, 10, 83, 0
12, 45120, Note_on_c, 10, 84, 76
12, 45239, Note_on_c, 10, 84, 0
12, 45240, Note_on_c, 10, 83, 76
12, 45299, Note_on_c, 10, 83, 0
12, 45300, Note_on_c, 10, 81, 76
12, 45359, Note_on_c, 10, 81, 0
12, 45360, Note_on_c, 10, 79, 76
12, 45479, Note_on_c, 10, 79, 0
12, 45480, Note_on_c, 10, 81, 76
12, 45539, Note_on_c, 10, 81, 0
12, 45540, Note_on_c, 10, 83, 76
12, 45591, Note_on_c, 10, 83, 0
12, 45600, Note_on_c, 10, 84, 76
12, 45719, Note_on_c, 10, 84, 0
12, 46080, Note_on_c, 10, 69, 52
12, 46199, Note_on_c, 10, 69, 0
12, 46200, Note_on_c, 10, 72, 52
12, 46319, Note_on_c, 10, 72, 0
12, 46320, Note_on_c, 10, 69, 52
12, 46439, Note_on_c, 10, 69, 0
12, 46440, Note_on_c, 10, 72, 52
12, 46559, Note_on_c, 10, 72, 0
12, 46560, Note_on_c, 10, 67, 52
12, 46679, Note_on_c, 10, 67, 0
12, 46680, Note_on_c, 10, 72, 52
12, 46799, Note_on_c, 10, 72, 0
12, 46800, Note_on_c, 10, 67, 52
12, 46919, Note_on_c, 10, 67, 0
12, 46920, Note_on_c, 10, 72, 52
12, 47039, Note_on_c, 10, 72, 0
12, 47040, Note_on_c, 10, 67, 52
12, 47159, Note_on_c, 10, 67, 0
12, 47160, Note_on_c, 10, 71, 52
12, 47279, Note_on_c, 10, 71, 0
12, 47280, Note_on_c, 10, 67, 52
12, 47399, Note_on_c, 10, 67, 0
12, 47400, Note_on_c, 10, 71, 52
12, 47504, Note_on_c, 10, 71, 0
12, 47520, Note_on_c, 10, 79, 84
12, 47879, Note_on_c, 10, 79, 0
12, 47880, Note_on_c, 10, 81, 84
12, 47939, Note_on_c, 10, 81, 0
12, 47940, Note_on_c, 10, 83, 84
12, 47991, Note_on_c, 10, 83, 0
12, 48000, Note_on_c, 10, 84, 84
12, 48119, Note_on_c, 10, 84, 0
12, 48120, Note_on_c, 10, 83, 84
12, 48179, Note_on_c, 10, 83, 0
12, 48180, Note_on_c, 10, 81, 84
12, 48239, Note_on_c, 10, 81, 0
12, 48240, Note_on_c, 10, 79, 84
12, 48359, Note_on_c, 10, 79, 0
12, 48360, Note_on_c, 10, 81, 84
12, 48419, Note_on_c, 10, 81, 0
12, 48420, Note_on_c, 10, 83, 84
12, 48471, Note_on_c, 10, 83, 0
12, 48480, Note_on_c, 10, 84, 84
12, 48599, Note_on_c, 10, 84, 0
12, 48600, Note_on_c, 10, 83, 84
12, 48659, Note_on_c, 10, 83, 0
12, 48660, Note_on_c, 10, 81, 84
12, 48719, Note_on_c, 10, 81, 0
12, 48720, Note_on_c, 10, 79, 84
12, 48839, Note_on_c, 10, 79, 0
12, 48840, Note_on_c, 10, 81, 84
12, 48899, Note_on_c, 10, 81, 0
12, 48900, Note_on_c, 10, 83, 84
12, 48951, Note_on_c, 10, 83, 0
12, 48960, Note_on_c, 10, 84, 76
12, 49079, Note_on_c, 10, 84, 0
12, 49440, Note_on_c, 10, 69, 52
12, 49559, Note_on_c, 10, 69, 0
12, 49560, Note_on_c, 10, 72, 52
12, 49679, Note_on_c, 10, 72, 0
12, 49680, Note_on_c, 10, 69, 52
12, 49799, Note_on_c, 10, 69, 0
12, 49800, Note_on_c, 10, 72, 52
12, 49919, Note_on_c, 10, 72, 0
12, 49920, Note_on_c, 10, 67, 52
12, 50039, Note_on_c, 10, 67, 0
12, 50040, Note_on_c, 10, 72, 52
12, 50159, Note_on_c, 10, 72, 0
12, 50160, Note_on_c, 10, 67, 52
12, 50279, Note_on_c, 10, 67, 0
12, 50280, Note_on_c, 10, 72, 52
12, 50399, Note_on_c, 10, 72, 0
12, 50400, Note_on_c, 10, 67, 52
12, 50519, Note_on_c, 10, 67, 0
12, 50520, Note_on_c, 10, 71, 52
12, 50639, Note_on_c, 10, 71, 0
12, 50640, Note_on_c, 10, 67, 52
12, 50759, Note_on_c, 10, 67, 0
12, 50760, Note_on_c, 10, 71, 52
12, 50879, Note_on_c, 10, 71, 0
12, 50880, Note_on_c, 10, 67, 52
12, 50984, Note_on_c, 10, 67, 0
12, 51000, Note_on_c, 10, 72, 52
12, 51104, Note_on_c, 10, 72, 0
12, 51120, Note_on_c, 10, 72, 53
12, 51224, Note_on_c, 10, 72, 0
12, 51240, Note_on_c, 10, 72, 55
12, 51344, Note_on_c, 10, 72, 0
12, 51360, Note_on_c, 10, 69, 56
12, 51479, Note_on_c, 10, 69, 0
12, 51480, Note_on_c, 10, 72, 58
12, 51599, Note_on_c, 10, 72, 0
12, 51600, Note_on_c, 10, 69, 60
12, 51719, Note_on_c, 10, 69, 0
12, 51720, Note_on_c, 10, 72, 61
12, 51839, Note_on_c, 10, 72, 0
12, 51840, Note_on_c, 10, 67, 63
12, 51959, Note_on_c, 10, 67, 0
12, 51960, Note_on_c, 10, 72, 64
12, 52079, Note_on_c, 10, 72, 0
12, 52080, Note_on_c, 10, 67, 66
12, 52199, Note_on_c, 10, 67, 0
12, 52200, Note_on_c, 10, 72, 68
12, 52319, Note_on_c, 10, 72, 0
12, 52320, Note_on_c, 10, 67, 69
12, 52439, Note_on_c, 10, 67, 0
12, 52440, Note_on_c, 10, 71, 71
12, 52559, Note_on_c, 10, 71, 0
12, 52560, Note_on_c, 10, 67, 72
12, 52679, Note_on_c, 10, 67, 0
12, 52680, Note_on_c, 10, 71, 74
12, 52799, Note_on_c, 10, 71, 0
12, 52800, Note_on_c, 10, 72, 76
12, 52867, Note_on_c, 10, 72, 0
12, 52880, Note_on_c, 10, 84, 76
12, 52947, Note_on_c, 10, 84, 0
12, 52960, Note_on_c, 10, 84, 76
12, 53027, Note_on_c, 10, 84, 0
12, 53040, Note_on_c, 10, 84, 76
12, 53107, Note_on_c, 10, 84, 0
12, 53120, Note_on_c, 10, 84, 76
12, 53187, Note_on_c, 10, 84, 0
12, 53200, Note_on_c, 10, 84, 76
12, 53267, Note_on_c, 10, 84, 0
12, 53280, Note_on_c, 10, 84, 76
12, 53347, Note_on_c, 10, 84, 0
12, 53360, Note_on_c, 10, 72, 76
12, 53427, Note_on_c, 10, 72, 0
12, 53440, Note_on_c, 10, 84, 76
12, 53507, Note_on_c, 10, 84, 0
12, 53520, Note_on_c, 10, 72, 76
12, 53587, Note_on_c, 10, 72, 0
12, 53600, Note_on_c, 10, 83, 76
12, 53667, Note_on_c, 10, 83, 0
12, 53680, Note_on_c, 10, 81, 76
12, 53747, Note_on_c, 10, 81, 0
12, 53760, Note_on_c, 10, 79, 76
12, 53827, Note_on_c, 10, 79, 0
12, 53840, Note_on_c, 10, 67, 76
12, 53907, Note_on_c, 10, 67, 0
12, 53920, Note_on_c, 10, 79, 76
12, 53987, Note_on_c, 10, 79, 0
12, 54000, Note_on_c, 10, 67, 76
12, 54067, Note_on_c, 10, 67, 0
12, 54080, Note_on_c, 10, 77, 76
12, 54147, Note_on_c, 10, 77, 0
12, 54160, Note_on_c, 10, 76, 76
12, 54227, Note_on_c, 10, 76, 0
12, 54240, Note_on_c, 10, 74, 76
12, 54307, Note_on_c, 10, 74, 0
12, 54320, Note_on_c, 10, 65, 76
12, 54387, Note_on_c, 10, 65, 0
12, 54400, Note_on_c, 10, 74, 76
12, 54467, Note_on_c, 10, 74, 0
12, 54480, Note_on_c, 10, 65, 76
12, 54547, Note_on_c, 10, 65, 0
12, 54560, Note_on_c, 10, 72, 76
12, 54627, Note_on_c, 10, 72, 0
12, 54640, Note_on_c, 10, 74, 76
12, 54707, Note_on_c, 10, 74, 0
12, 54720, Note_on_c, 10, 72, 76
12, 54959, Note_on_c, 10, 72, 0
12, 55080, Note_on_c, 10, 76, 76
12, 55139, Note_on_c, 10, 76, 0
12, 55140, Note_on_c, 10, 74, 76
12, 55199, Note_on_c, 10, 74, 0
12, 55200, Note_on_c, 10, 72, 76
12, 55289, Note_on_c, 10, 72, 0
12, 55320, Note_on_c, 10, 76, 76
12, 55379, Note_on_c, 10, 76, 0
12, 55380, Note_on_c, 10, 74, 76
12, 55439, Note_on_c, 10, 74, 0
12, 55440, Note_on_c, 10, 72, 76
12, 55529, Note_on_c, 10, 72, 0
12, 55560, Note_on_c, 10, 81, 76
12, 55619, Note_on_c, 10, 81, 0
12, 55620, Note_on_c, 10, 78, 76
12, 55679, Note_on_c, 10, 78, 0
12, 55680, Note_on_c, 10, 79, 76
12, 55859, Note_on_c, 10, 79, 0
12, 56040, Note_on_c, 10, 81, 76
12, 56099, Note_on_c, 10, 81, 0
12, 56100, Note_on_c, 10, 79, 76
12, 56159, Note_on_c, 10, 79, 0
12, 56160, Note_on_c, 10, 76, 76
12, 56249, Note_on_c, 10, 76, 0
12, 56280, Note_on_c, 10, 79, 76
12, 56339, Note_on_c, 10, 79, 0
12, 56340, Note_on_c, 10, 77, 76
12, 56399, Note_on_c, 10, 77, 0
12, 56400, Note_on_c, 10, 74, 76
12, 56489, Note_on_c, 10, 74, 0
12, 56520, Note_on_c, 10, 77, 76
12, 56579, Note_on_c, 10, 77, 0
12, 56580, Note_on_c, 10, 76, 76
12, 56639, Note_on_c, 10, 76, 0
12, 56640, Note_on_c, 10, 72, 76
12, 56819, Note_on_c, 10, 72, 0
12, 57000, Note_on_c, 10, 76, 76
12, 57059, Note_on_c, 10, 76, 0
12, 57060, Note_on_c, 10, 74, 76
12, 57119, Note_on_c, 10, 74, 0
12, 57120, Note_on_c, 10, 72, 76
12, 57209, Note_on_c, 10, 72, 0
12, 57240, Note_on_c, 10, 76, 76
12, 57299, Note_on_c, 10, 76, 0
12, 57300, Note_on_c, 10, 74, 76
12, 57359, Note_on_c, 10, 74, 0
12, 57360, Note_on_c, 10, 72, 76
12, 57449, Note_on_c, 10, 72, 0
12, 57480, Note_on_c, 10, 81, 76
12, 57539, Note_on_c, 10, 81, 0
12, 57540, Note_on_c, 10, 78, 76
12, 57599, Note_on_c, 10, 78, 0
12, 57600, Note_on_c, 10, 79, 76
12, 57779, Note_on_c, 10, 79, 0
12, 57960, Note_on_c, 10, 81, 76
12, 58019, Note_on_c, 10, 81, 0
12, 58020, Note_on_c, 10, 79, 76
12, 58079, Note_on_c, 10, 79, 0
12, 58080, Note_on_c, 10, 76, 76
12, 58169, Note_on_c, 10, 76, 0
12, 58200, Note_on_c, 10, 79, 76
12, 58259, Note_on_c, 10, 79, 0
12, 58260, Note_on_c, 10, 77, 76
12, 58319, Note_on_c, 10, 77, 0
12, 58320, Note_on_c, 10, 74, 76
12, 58409, Note_on_c, 10, 74, 0
12, 58440, Note_on_c, 10, 77, 76
12, 58499, Note_on_c, 10, 77, 0
12, 58500, Note_on_c, 10, 76, 76
12, 58559, Note_on_c, 10, 76, 0
12, 58560, Note_on_c, 10, 72, 76
12, 58649, Note_on_c, 10, 72, 0
12, 58680, Note_on_c, 10, 79, 75
12, 58739, Note_on_c, 10, 79, 0
12, 58740, Note_on_c, 10, 76, 74
12, 58799, Note_on_c, 10, 76, 0
12, 58800, Note_on_c, 10, 74, 73
12, 58889, Note_on_c, 10, 74, 0
12, 58920, Note_on_c, 10, 79, 72
12, 58979, Note_on_c, 10, 79, 0
12, 58980, Note_on_c, 10, 77, 71
12, 59039, Note_on_c, 10, 77, 0
12, 59040, Note_on_c, 10, 72, 70
12, 59129, Note_on_c, 10, 72, 0
12, 59160, Note_on_c, 10, 79, 69
12, 59219, Note_on_c, 10, 79, 0
12, 59220, Note_on_c, 10, 76, 68
12, 59279, Note_on_c, 10, 76, 0
12, 59280, Note_on_c, 10, 74, 67
12, 59369, Note_on_c, 10, 74, 0
12, 59400, Note_on_c, 10, 79, 66
12, 59459, Note_on_c, 10, 79, 0
12, 59460, Note_on_c, 10, 77, 65
12, 59519, Note_on_c, 10, 77, 0
12, 59520, Note_on_c, 10, 72, 64
12, 59609, Note_on_c, 10, 72, 0
12, 59640, Note_on_c, 10, 79, 63
12, 59699, Note_on_c, 10, 79, 0
12, 59700, Note_on_c, 10, 76, 62
12, 59759, Note_on_c, 10, 76, 0
12, 59760, Note_on_c, 10, 74, 61
12, 59849, Note_on_c, 10, 74, 0
12, 59880, Note_on_c, 10, 79, 60
12, 59939, Note_on_c, 10, 79, 0
12, 59940, Note_on_c, 10, 77, 59
12, 59999, Note_on_c, 10, 77, 0
12, 60000, Note_on_c, 10, 72, 58
12, 60089, Note_on_c, 10, 72, 0
12, 60120, Note_on_c, 10, 79, 57
12, 60179, Note_on_c, 10, 79, 0
12, 60180, Note_on_c, 10, 76, 56
12, 60239, Note_on_c, 10, 76, 0
12, 60240, Note_on_c, 10, 74, 55
12, 60329, Note_on_c, 10, 74, 0
12, 60360, Note_on_c, 10, 79, 54
12, 60419, Note_on_c, 10, 79, 0
12, 60420, Note_on_c, 10, 77, 53
12, 60471, Note_on_c, 10, 77, 0
12, 60480, Note_on_c, 10, 72, 52
12, 60719, Note_on_c, 10, 72, 0
12, 60720, Note_on_c, 10, 67, 51
12, 60959, Note_on_c, 10, 67, 0
12, 60960, Note_on_c, 10, 72, 50
12, 61199, Note_on_c, 10, 72, 0
12, 61200, Note_on_c, 10, 67, 49
12, 61439, Note_on_c, 10, 67, 0
12, 61440, Note_on_c, 10, 72, 48
12, 61679, Note_on_c, 10, 72, 0
12, 61680, Note_on_c, 10, 67, 47
12, 61919, Note_on_c, 10, 67, 0
12, 61920, Note_on_c, 10, 72, 46
12, 62159, Note_on_c, 10, 72, 0
12, 62160, Note_on_c, 10, 67, 45
12, 62399, Note_on_c, 10, 67, 0
12, 62400, Note_on_c, 10, 72, 44
12, 62489, Note_on_c, 10, 72, 0
12, 64440, Note_on_c, 10, 60, 52
12, 64559, Note_on_c, 10, 60, 0
12, 64560, Note_on_c, 10, 62, 52
12, 64664, Note_on_c, 10, 62, 0
12, 64680, Note_on_c, 10, 65, 52
12, 64769, Note_on_c, 10, 65, 0
12, 64800, Note_on_c, 10, 64, 52
12, 64889, Note_on_c, 10, 64, 0
12, 64920, Note_on_c, 10, 64, 52
12, 65039, Note_on_c, 10, 64, 0
12, 65040, Note_on_c, 10, 65, 52
12, 65144, Note_on_c, 10, 65, 0
12, 65160, Note_on_c, 10, 69, 52
12, 65249, Note_on_c, 10, 69, 0
12, 65280, Note_on_c, 10, 67, 52
12, 65369, Note_on_c, 10, 67, 0
12, 65400, Note_on_c, 10, 67, 52
12, 65519, Note_on_c, 10, 67, 0
12, 65520, Note_on_c, 10, 69, 52
12, 65624, Note_on_c, 10, 69, 0
12, 65640, Note_on_c, 10, 72, 52
12, 65729, Note_on_c, 10, 72, 0
12, 65760, Note_on_c, 10, 70, 52
12, 65849, Note_on_c, 10, 70, 0
12, 65880, Note_on_c, 10, 69, 76
12, 65999, Note_on_c, 10, 69, 0
12, 66000, Note_on_c, 10, 70, 76
12, 66104, Note_on_c, 10, 70, 0
12, 66120, Note_on_c, 10, 74, 76
12, 66209, Note_on_c, 10, 74, 0
12, 66360, Note_on_c, 10, 69, 52
12, 66479, Note_on_c, 10, 69, 0
12, 66480, Note_on_c, 10, 70, 52
12, 66599, Note_on_c, 10, 70, 0
12, 66600, Note_on_c, 10, 74, 52
12, 66689, Note_on_c, 10, 74, 0
12, 66720, Note_on_c, 10, 72, 52
12, 66839, Note_on_c, 10, 72, 0
12, 66840, Note_on_c, 10, 70, 52
12, 66899, Note_on_c, 10, 70, 0
12, 66900, Note_on_c, 10, 69, 52
12, 66951, Note_on_c, 10, 69, 0
12, 66960, Note_on_c, 10, 67, 52
12, 67049, Note_on_c, 10, 67, 0
12, 67080, Note_on_c, 10, 60, 52
12, 67169, Note_on_c, 10, 60, 0
12, 67200, Note_on_c, 10, 65, 52
12, 67319, Note_on_c, 10, 65, 0
12, 67320, Note_on_c, 10, 67, 52
12, 67439, Note_on_c, 10, 67, 0
12, 67440, Note_on_c, 10, 69, 52
12, 67559, Note_on_c, 10, 69, 0
12, 67560, Note_on_c, 10, 70, 52
12, 67619, Note_on_c, 10, 70, 0
12, 67620, Note_on_c, 10, 69, 52
12, 67671, Note_on_c, 10, 69, 0
12, 67680, Note_on_c, 10, 67, 52
12, 68159, Note_on_c, 10, 67, 0
12, 68760, Note_on_c, 10, 67, 52
12, 68819, Note_on_c, 10, 67, 0
12, 68820, Note_on_c, 10, 69, 52
12, 68879, Note_on_c, 10, 69, 0
12, 68880, Note_on_c, 10, 70, 52
12, 68999, Note_on_c, 10, 70, 0
12, 69000, Note_on_c, 10, 67, 52
12, 69119, Note_on_c, 10, 67, 0
12, 69120, Note_on_c, 10, 69, 52
12, 69239, Note_on_c, 10, 69, 0
12, 69480, Note_on_c, 10, 70, 52
12, 69599, Note_on_c, 10, 70, 0
12, 69600, Note_on_c, 10, 67, 52
12, 69704, Note_on_c, 10, 67, 0
12, 69720, Note_on_c, 10, 67, 52
12, 69779, Note_on_c, 10, 67, 0
12, 69780, Note_on_c, 10, 69, 52
12, 69839, Note_on_c, 10, 69, 0
12, 69840, Note_on_c, 10, 70, 52
12, 69959, Note_on_c, 10, 70, 0
12, 69960, Note_on_c, 10, 67, 52
12, 70064, Note_on_c, 10, 67, 0
12, 70078, Control_c, 10, 11, 80
12, 70080, Note_on_c, 10, 69, 76
12, 70120, Control_c, 10, 11, 82
12, 70160, Control_c, 10, 11, 84
12, 70200, Control_c, 10, 11, 86
12, 70240, Control_c, 10, 11, 88
12, 70280, Control_c, 10, 11, 90
12, 70319, Note_on_c, 10, 69, 0
12, 70320, Control_c, 10, 11, 92
12, 70320, Note_on_c, 10, 72, 76
12, 70360, Control_c, 10, 11, 94
12, 70400, Control_c, 10, 11, 96
12, 70440, Control_c, 10, 11, 98
12, 70480, Control_c, 10, 11, 100
12, 70520, Control_c, 10, 11, 102
12, 70559, Note_on_c, 10, 72, 0
12, 70560, Note_on_c, 10, 70, 76
12, 70560, Control_c, 10, 11, 104
12, 70600, Control_c, 10, 11, 105
12, 70640, Control_c, 10, 11, 107
12, 70680, Control_c, 10, 11, 109
12, 70720, Control_c, 10, 11, 111
12, 70760, Control_c, 10, 11, 113
12, 70800, Control_c, 10, 11, 115
12, 70840, Control_c, 10, 11, 117
12, 70880, Control_c, 10, 11, 119
12, 70919, Note_on_c, 10, 70, 0
12, 70920, Note_on_c, 10, 69, 76
12, 70920, Control_c, 10, 11, 121
12, 70960, Control_c, 10, 11, 123
12, 71000, Control_c, 10, 11, 125
12, 71024, Note_on_c, 10, 69, 0
12, 71040, Note_on_c, 10, 74, 76
12, 71040, Control_c, 10, 11, 127
12, 71279, Note_on_c, 10, 74, 0
12, 71280, Note_on_c, 10, 72, 76
12, 71504, Note_on_c, 10, 72, 0
12, 71520, Note_on_c, 10, 67, 76
12, 71609, Note_on_c, 10, 67, 0
12, 71640, Note_on_c, 10, 67, 76
12, 71699, Note_on_c, 10, 67, 0
12, 71700, Note_on_c, 10, 69, 76
12, 71759, Note_on_c, 10, 69, 0
12, 71760, Note_on_c, 10, 70, 76
12, 71879, Note_on_c, 10, 70, 0
12, 71880, Note_on_c, 10, 67, 76
12, 71984, Note_on_c, 10, 67, 0
12, 72000, Note_on_c, 10, 69, 76
12, 72239, Note_on_c, 10, 69, 0
12, 72240, Note_on_c, 10, 72, 76
12, 72479, Note_on_c, 10, 72, 0
12, 72480, Note_on_c, 10, 70, 76
12, 72839, Note_on_c, 10, 70, 0
12, 72840, Note_on_c, 10, 69, 76
12, 72944, Note_on_c, 10, 69, 0
12, 72960, Note_on_c, 10, 74, 52
12, 73199, Note_on_c, 10, 74, 0
12, 73200, Note_on_c, 10, 72, 52
12, 73424, Note_on_c, 10, 72, 0
12, 73440, Note_on_c, 10, 67, 52
12, 73529, Note_on_c, 10, 67, 0
12, 73560, Note_on_c, 10, 67, 53
12, 73619, Note_on_c, 10, 67, 0
12, 73620, Note_on_c, 10, 69, 54
12, 73671, Note_on_c, 10, 69, 0
12, 73680, Note_on_c, 10, 70, 55
12, 73769, Note_on_c, 10, 70, 0
12, 73800, Note_on_c, 10, 71, 56
12, 73889, Note_on_c, 10, 71, 0
12, 73920, Note_on_c, 10, 72, 58
12, 74009, Note_on_c, 10, 72, 0
12, 74040, Note_on_c, 10, 67, 59
12, 74099, Note_on_c, 10, 67, 0
12, 74100, Note_on_c, 10, 69, 60
12, 74151, Note_on_c, 10, 69, 0
12, 74160, Note_on_c, 10, 70, 61
12, 74249, Note_on_c, 10, 70, 0
12, 74280, Note_on_c, 10, 71, 62
12, 74369, Note_on_c, 10, 71, 0
12, 74400, Note_on_c, 10, 72, 64
12, 74489, Note_on_c, 10, 72, 0
12, 74520, Note_on_c, 10, 67, 65
12, 74579, Note_on_c, 10, 67, 0
12, 74580, Note_on_c, 10, 69, 66
12, 74631, Note_on_c, 10, 69, 0
12, 74640, Note_on_c, 10, 70, 67
12, 74729, Note_on_c, 10, 70, 0
12, 74760, Note_on_c, 10, 71, 68
12, 74849, Note_on_c, 10, 71, 0
12, 74880, Note_on_c, 10, 72, 70
12, 74969, Note_on_c, 10, 72, 0
12, 75000, Note_on_c, 10, 67, 71
12, 75059, Note_on_c, 10, 67, 0
12, 75060, Note_on_c, 10, 69, 72
12, 75111, Note_on_c, 10, 69, 0
12, 75120, Note_on_c, 10, 70, 73
12, 75209, Note_on_c, 10, 70, 0
12, 75240, Note_on_c, 10, 71, 74
12, 75329, Note_on_c, 10, 71, 0
12, 75360, Note_on_c, 10, 72, 76
12, 75449, Note_on_c, 10, 72, 0
12, 75480, Note_on_c, 10, 67, 76
12, 75539, Note_on_c, 10, 67, 0
12, 75540, Note_on_c, 10, 69, 76
12, 75591, Note_on_c, 10, 69, 0
12, 75600, Note_on_c, 10, 70, 76
12, 75689, Note_on_c, 10, 70, 0
12, 75720, Note_on_c, 10, 71, 76
12, 75809, Note_on_c, 10, 71, 0
12, 75840, Note_on_c, 10, 72, 76
12, 75929, Note_on_c, 10, 72, 0
12, 75960, Note_on_c, 10, 67, 74
12, 76019, Note_on_c, 10, 67, 0
12, 76020, Note_on_c, 10, 69, 73
12, 76071, Note_on_c, 10, 69, 0
12, 76080, Note_on_c, 10, 70, 72
12, 76169, Note_on_c, 10, 70, 0
12, 76200, Note_on_c, 10, 71, 70
12, 76289, Note_on_c, 10, 71, 0
12, 76320, Note_on_c, 10, 72, 68
12, 76409, Note_on_c, 10, 72, 0
12, 76440, Note_on_c, 10, 67, 66
12, 76499, Note_on_c, 10, 67, 0
12, 76500, Note_on_c, 10, 69, 65
12, 76551, Note_on_c, 10, 69, 0
12, 76560, Note_on_c, 10, 70, 64
12, 76649, Note_on_c, 10, 70, 0
12, 76680, Note_on_c, 10, 71, 62
12, 76769, Note_on_c, 10, 71, 0
12, 76800, Note_on_c, 10, 72, 60
12, 76889, Note_on_c, 10, 72, 0
12, 76920, Note_on_c, 10, 67, 58
12, 76979, Note_on_c, 10, 67, 0
12, 76980, Note_on_c, 10, 69, 57
12, 77031, Note_on_c, 10, 69, 0
12, 77040, Note_on_c, 10, 70, 56
12, 77129, Note_on_c, 10, 70, 0
12, 77160, Note_on_c, 10, 71, 54
12, 77249, Note_on_c, 10, 71, 0
12, 77280, Note_on_c, 10, 72, 52
12, 77369, Note_on_c, 10, 72, 0
12, 77400, Note_on_c, 10, 67, 50
12, 77459, Note_on_c, 10, 67, 0
12, 77460, Note_on_c, 10, 69, 49
12, 77511, Note_on_c, 10, 69, 0
12, 77520, Note_on_c, 10, 70, 48
12, 77609, Note_on_c, 10, 70, 0
12, 77640, Note_on_c, 10, 71, 46
12, 77729, Note_on_c, 10, 71, 0
12, 77760, Note_on_c, 10, 72, 44
12, 77849, Note_on_c, 10, 72, 0
12, 77880, Note_on_c, 10, 67, 44
12, 77939, Note_on_c, 10, 67, 0
12, 77940, Note_on_c, 10, 69, 44
12, 77991, Note_on_c, 10, 69, 0
12, 78000, Note_on_c, 10, 70, 44
12, 78089, Note_on_c, 10, 70, 0
12, 78120, Note_on_c, 10, 71, 44
12, 78209, Note_on_c, 10, 71, 0
12, 78240, Note_on_c, 10, 72, 44
12, 78329, Note_on_c, 10, 72, 0
12, 78360, Note_on_c, 10, 69, 44
12, 78419, Note_on_c, 10, 69, 0
12, 78420, Note_on_c, 10, 70, 44
12, 78471, Note_on_c, 10, 70, 0
12, 78480, Note_on_c, 10, 72, 44
12, 78569, Note_on_c, 10, 72, 0
12, 78600, Note_on_c, 10, 73, 44
12, 78689, Note_on_c, 10, 73, 0
12, 78720, Note_on_c, 10, 74, 44
12, 78809, Note_on_c, 10, 74, 0
12, 81720, Note_on_c, 10, 65, 46
12, 81779, Note_on_c, 10, 65, 0
12, 81780, Note_on_c, 10, 69, 47
12, 81839, Note_on_c, 10, 69, 0
12, 81960, Note_on_c, 10, 67, 50
12, 82019, Note_on_c, 10, 67, 0
12, 82020, Note_on_c, 10, 70, 51
12, 82079, Note_on_c, 10, 70, 0
12, 82200, Note_on_c, 10, 69, 54
12, 82259, Note_on_c, 10, 69, 0
12, 82260, Note_on_c, 10, 72, 55
12, 82319, Note_on_c, 10, 72, 0
12, 82440, Note_on_c, 10, 67, 58
12, 82499, Note_on_c, 10, 67, 0
12, 82500, Note_on_c, 10, 76, 59
12, 82559, Note_on_c, 10, 76, 0
12, 82680, Note_on_c, 10, 69, 62
12, 82739, Note_on_c, 10, 69, 0
12, 82740, Note_on_c, 10, 77, 63
12, 82799, Note_on_c, 10, 77, 0
12, 82920, Note_on_c, 10, 69, 66
12, 82979, Note_on_c, 10, 69, 0
12, 82980, Note_on_c, 10, 77, 67
12, 83039, Note_on_c, 10, 77, 0
12, 83160, Note_on_c, 10, 76, 70
12, 83219, Note_on_c, 10, 76, 0
12, 83220, Note_on_c, 10, 79, 71
12, 83279, Note_on_c, 10, 79, 0
12, 83400, Note_on_c, 10, 76, 74
12, 83459, Note_on_c, 10, 76, 0
12, 83460, Note_on_c, 10, 79, 75
12, 83511, Note_on_c, 10, 79, 0
12, 83520, Note_on_c, 10, 81, 76
12, 83609, Note_on_c, 10, 81, 0
12, 83640, Note_on_c, 10, 81, 76
12, 83729, Note_on_c, 10, 81, 0
12, 83760, Note_on_c, 10, 82, 76
12, 83849, Note_on_c, 10, 82, 0
12, 83880, Note_on_c, 10, 86, 76
12, 83969, Note_on_c, 10, 86, 0
12, 84000, Note_on_c, 10, 84, 76
12, 84119, Note_on_c, 10, 84, 0
12, 84120, Note_on_c, 10, 82, 76
12, 84179, Note_on_c, 10, 82, 0
12, 84180, Note_on_c, 10, 81, 76
12, 84231, Note_on_c, 10, 81, 0
12, 84240, Note_on_c, 10, 79, 76
12, 84329, Note_on_c, 10, 79, 0
12, 84360, Note_on_c, 10, 72, 76
12, 84449, Note_on_c, 10, 72, 0
12, 84480, Note_on_c, 10, 77, 76
12, 84569, Note_on_c, 10, 77, 0
12, 84600, Note_on_c, 10, 79, 76
12, 84689, Note_on_c, 10, 79, 0
12, 84720, Note_on_c, 10, 81, 76
12, 84839, Note_on_c, 10, 81, 0
12, 84840, Note_on_c, 10, 82, 76
12, 84899, Note_on_c, 10, 82, 0
12, 84900, Note_on_c, 10, 81, 76
12, 84951, Note_on_c, 10, 81, 0
12, 84960, Note_on_c, 10, 79, 76
12, 85049, Note_on_c, 10, 79, 0
12, 85080, Note_on_c, 10, 81, 76
12, 85169, Note_on_c, 10, 81, 0
12, 85200, Note_on_c, 10, 82, 76
12, 85319, Note_on_c, 10, 82, 0
12, 85320, Note_on_c, 10, 84, 76
12, 85379, Note_on_c, 10, 84, 0
12, 85380, Note_on_c, 10, 82, 76
12, 85431, Note_on_c, 10, 82, 0
12, 85440, Note_on_c, 10, 81, 76
12, 85559, Note_on_c, 10, 81, 0
12, 85560, Note_on_c, 10, 84, 76
12, 85664, Note_on_c, 10, 84, 0
12, 85680, Note_on_c, 10, 84, 76
12, 85769, Note_on_c, 10, 84, 0
12, 85800, Note_on_c, 10, 84, 76
12, 85889, Note_on_c, 10, 84, 0
12, 85920, Note_on_c, 10, 84, 76
12, 86159, Note_on_c, 10, 84, 0
12, 86160, Note_on_c, 10, 82, 76
12, 86219, Note_on_c, 10, 82, 0
12, 86220, Note_on_c, 10, 81, 76
12, 86279, Note_on_c, 10, 81, 0
12, 86280, Note_on_c, 10, 79, 76
12, 86339, Note_on_c, 10, 79, 0
12, 86340, Note_on_c, 10, 77, 76
12, 86391, Note_on_c, 10, 77, 0
12, 86400, Note_on_c, 10, 76, 76
12, 86489, Note_on_c, 10, 76, 0
12, 86520, Note_on_c, 10, 77, 76
12, 86609, Note_on_c, 10, 77, 0
12, 86640, Note_on_c, 10, 79, 76
12, 86759, Note_on_c, 10, 79, 0
12, 86760, Note_on_c, 10, 81, 76
12, 86819, Note_on_c, 10, 81, 0
12, 86820, Note_on_c, 10, 79, 76
12, 86871, Note_on_c, 10, 79, 0
12, 86880, Note_on_c, 10, 77, 76
12, 86969, Note_on_c, 10, 77, 0
12, 87000, Note_on_c, 10, 79, 76
12, 87089, Note_on_c, 10, 79, 0
12, 87120, Note_on_c, 10, 81, 76
12, 87239, Note_on_c, 10, 81, 0
12, 87240, Note_on_c, 10, 82, 76
12, 87299, Note_on_c, 10, 82, 0
12, 87300, Note_on_c, 10, 81, 76
12, 87351, Note_on_c, 10, 81, 0
12, 87360, Note_on_c, 10, 79, 76
12, 87479, Note_on_c, 10, 79, 0
12, 87480, Note_on_c, 10, 82, 76
12, 87584, Note_on_c, 10, 82, 0
12, 87600, Note_on_c, 10, 82, 76
12, 87689, Note_on_c, 10, 82, 0
12, 87720, Note_on_c, 10, 82, 76
12, 87809, Note_on_c, 10, 82, 0
12, 87840, Note_on_c, 10, 82, 76
12, 88079, Note_on_c, 10, 82, 0
12, 88080, Note_on_c, 10, 84, 76
12, 88139, Note_on_c, 10, 84, 0
12, 88140, Note_on_c, 10, 82, 76
12, 88199, Note_on_c, 10, 82, 0
12, 88200, Note_on_c, 10, 81, 76
12, 88259, Note_on_c, 10, 81, 0
12, 88260, Note_on_c, 10, 79, 76
12, 88311, Note_on_c, 10, 79, 0
12, 88320, Note_on_c, 10, 81, 76
12, 88409, Note_on_c, 10, 81, 0
12, 88440, Note_on_c, 10, 82, 76
12, 88529, Note_on_c, 10, 82, 0
12, 88560, Note_on_c, 10, 84, 76
12, 88679, Note_on_c, 10, 84, 0
12, 88680, Note_on_c, 10, 86, 76
12, 88739, Note_on_c, 10, 86, 0
12, 88740, Note_on_c, 10, 84, 76
12, 88799, Note_on_c, 10, 84, 0
12, 88800, Note_on_c, 10, 82, 76
12, 88919, Note_on_c, 10, 82, 0
12, 88920, Note_on_c, 10, 84, 76
12, 88979, Note_on_c, 10, 84, 0
12, 88980, Note_on_c, 10, 82, 76
12, 89039, Note_on_c, 10, 82, 0
12, 89040, Note_on_c, 10, 79, 76
12, 89159, Note_on_c, 10, 79, 0
12, 89160, Note_on_c, 10, 84, 76
12, 89219, Note_on_c, 10, 84, 0
12, 89220, Note_on_c, 10, 82, 76
12, 89271, Note_on_c, 10, 82, 0
12, 89280, Note_on_c, 10, 81, 76
12, 89369, Note_on_c, 10, 81, 0
12, 89400, Note_on_c, 10, 82, 76
12, 89489, Note_on_c, 10, 82, 0
12, 89520, Note_on_c, 10, 84, 76
12, 89639, Note_on_c, 10, 84, 0
12, 89640, Note_on_c, 10, 86, 76
12, 89699, Note_on_c, 10, 86, 0
12, 89700, Note_on_c, 10, 84, 76
12, 89759, Note_on_c, 10, 84, 0
12, 89760, Note_on_c, 10, 82, 76
12, 89879, Note_on_c, 10, 82, 0
12, 89880, Note_on_c, 10, 84, 76
12, 89939, Note_on_c, 10, 84, 0
12, 89940, Note_on_c, 10, 82, 76
12, 89999, Note_on_c, 10, 82, 0
12, 90000, Note_on_c, 10, 79, 76
12, 90119, Note_on_c, 10, 79, 0
12, 90120, Note_on_c, 10, 84, 76
12, 90179, Note_on_c, 10, 84, 0
12, 90180, Note_on_c, 10, 82, 76
12, 90231, Note_on_c, 10, 82, 0
12, 90240, Note_on_c, 10, 81, 76
12, 90359, Note_on_c, 10, 81, 0
12, 90360, Note_on_c, 10, 84, 76
12, 90419, Note_on_c, 10, 84, 0
12, 90420, Note_on_c, 10, 82, 76
12, 90479, Note_on_c, 10, 82, 0
12, 90480, Note_on_c, 10, 79, 76
12, 90599, Note_on_c, 10, 79, 0
12, 90600, Note_on_c, 10, 84, 76
12, 90659, Note_on_c, 10, 84, 0
12, 90660, Note_on_c, 10, 82, 76
12, 90711, Note_on_c, 10, 82, 0
12, 90720, Note_on_c, 10, 81, 76
12, 90839, Note_on_c, 10, 81, 0
12, 90840, Note_on_c, 10, 84, 76
12, 90899, Note_on_c, 10, 84, 0
12, 90900, Note_on_c, 10, 82, 76
12, 90959, Note_on_c, 10, 82, 0
12, 90960, Note_on_c, 10, 79, 76
12, 91079, Note_on_c, 10, 79, 0
12, 91080, Note_on_c, 10, 84, 76
12, 91139, Note_on_c, 10, 84, 0
12, 91140, Note_on_c, 10, 82, 76
12, 91191, Note_on_c, 10, 82, 0
12, 91200, Note_on_c, 10, 65, 76
12, 91200, Note_on_c, 10, 81, 76
12, 91200, Note_on_c, 10, 72, 76
12, 91319, Note_on_c, 10, 65, 0
12, 91319, Note_on_c, 10, 81, 0
12, 91319, Note_on_c, 10, 72, 0
12, 91800, Note_on_c, 10, 65, 52
12, 91919, Note_on_c, 10, 65, 0
12, 91920, Note_on_c, 10, 67, 52
12, 92024, Note_on_c, 10, 67, 0
12, 92040, Note_on_c, 10, 70, 52
12, 92129, Note_on_c, 10, 70, 0
12, 92160, Note_on_c, 10, 69, 52
12, 92249, Note_on_c, 10, 69, 0
12, 92280, Note_on_c, 10, 74, 52
12, 92399, Note_on_c, 10, 74, 0
12, 92400, Note_on_c, 10, 76, 52
12, 92504, Note_on_c, 10, 76, 0
12, 92520, Note_on_c, 10, 79, 52
12, 92609, Note_on_c, 10, 79, 0
12, 92640, Note_on_c, 10, 77, 52
12, 92729, Note_on_c, 10, 77, 0
12, 92760, Note_on_c, 10, 77, 52
12, 92879, Note_on_c, 10, 77, 0
12, 92880, Note_on_c, 10, 79, 52
12, 92984, Note_on_c, 10, 79, 0
12, 93000, Note_on_c, 10, 82, 52
12, 93089, Note_on_c, 10, 82, 0
12, 93120, Note_on_c, 10, 81, 52
12, 93239, Note_on_c, 10, 81, 0
12, 93720, Note_on_c, 10, 65, 52
12, 93839, Note_on_c, 10, 65, 0
12, 93840, Note_on_c, 10, 67, 52
12, 93944, Note_on_c, 10, 67, 0
12, 93960, Note_on_c, 10, 70, 52
12, 94049, Note_on_c, 10, 70, 0
12, 94080, Note_on_c, 10, 69, 52
12, 94169, Note_on_c, 10, 69, 0
12, 94200, Note_on_c, 10, 74, 52
12, 94319, Note_on_c, 10, 74, 0
12, 94320, Note_on_c, 10, 76, 52
12, 94424, Note_on_c, 10, 76, 0
12, 94440, Note_on_c, 10, 79, 52
12, 94529, Note_on_c, 10, 79, 0
12, 94560, Note_on_c, 10, 77, 52
12, 94649, Note_on_c, 10, 77, 0
12, 94680, Note_on_c, 10, 77, 52
12, 94799, Note_on_c, 10, 77, 0
12, 94800, Note_on_c, 10, 79, 52
12, 94904, Note_on_c, 10, 79, 0
12, 94920, Note_on_c, 10, 82, 52
12, 95009, Note_on_c, 10, 82, 0
12, 95040, Note_on_c, 10, 81, 52
12, 95159, Note_on_c, 10, 81, 0
12, 95640, Note_on_c, 10, 77, 52
12, 95759, Note_on_c, 10, 77, 0
12, 95760, Note_on_c, 10, 79, 52
12, 95864, Note_on_c, 10, 79, 0
12, 95880, Note_on_c, 10, 81, 52
12, 95969, Note_on_c, 10, 81, 0
12, 96000, Note_on_c, 10, 79, 52
12, 96239, Note_on_c, 10, 79, 0
12, 96600, Note_on_c, 10, 78, 52
12, 96719, Note_on_c, 10, 78, 0
12, 96720, Note_on_c, 10, 79, 52
12, 96824, Note_on_c, 10, 79, 0
12, 96840, Note_on_c, 10, 81, 52
12, 96929, Note_on_c, 10, 81, 0
12, 96960, Note_on_c, 10, 79, 52
12, 97049, Note_on_c, 10, 79, 0
12, 97080, Note_on_c, 10, 78, 52
12, 97199, Note_on_c, 10, 78, 0
12, 97200, Note_on_c, 10, 79, 52
12, 97304, Note_on_c, 10, 79, 0
12, 97320, Note_on_c, 10, 81, 52
12, 97409, Note_on_c, 10, 81, 0
12, 97440, Note_on_c, 10, 79, 52
12, 97529, Note_on_c, 10, 79, 0
12, 97560, Note_on_c, 10, 78, 52
12, 97679, Note_on_c, 10, 78, 0
12, 97680, Note_on_c, 10, 79, 52
12, 97784, Note_on_c, 10, 79, 0
12, 97800, Note_on_c, 10, 81, 52
12, 97889, Note_on_c, 10, 81, 0
12, 97920, Note_on_c, 10, 79, 52
12, 98039, Note_on_c, 10, 79, 0
12, 98040, Note_on_c, 10, 77, 52
12, 98159, Note_on_c, 10, 77, 0
12, 98160, Note_on_c, 10, 74, 52
12, 98279, Note_on_c, 10, 74, 0
12, 98280, Note_on_c, 10, 71, 52
12, 98399, Note_on_c, 10, 71, 0
12, 98400, Note_on_c, 10, 67, 52
12, 98519, Note_on_c, 10, 67, 0
12, 98520, Note_on_c, 10, 74, 52
12, 98639, Note_on_c, 10, 74, 0
12, 98640, Note_on_c, 10, 71, 52
12, 98759, Note_on_c, 10, 71, 0
12, 98760, Note_on_c, 10, 67, 52
12, 98864, Note_on_c, 10, 67, 0
12, 98880, Note_on_c, 10, 81, 52
12, 98999, Note_on_c, 10, 81, 0
12, 99000, Note_on_c, 10, 79, 52
12, 99119, Note_on_c, 10, 79, 0
12, 99120, Note_on_c, 10, 76, 52
12, 99239, Note_on_c, 10, 76, 0
12, 99240, Note_on_c, 10, 72, 52
12, 99359, Note_on_c, 10, 72, 0
12, 99360, Note_on_c, 10, 67, 52
12, 99479, Note_on_c, 10, 67, 0
12, 99480, Note_on_c, 10, 76, 52
12, 99599, Note_on_c, 10, 76, 0
12, 99600, Note_on_c, 10, 72, 52
12, 99719, Note_on_c, 10, 72, 0
12, 99720, Note_on_c, 10, 67, 52
12, 99824, Note_on_c, 10, 67, 0
12, 99840, Note_on_c, 10, 62, 52
12, 99959, Note_on_c, 10, 62, 0
12, 99960, Note_on_c, 10, 55, 52
12, 100079, Note_on_c, 10, 55, 0
12, 100080, Note_on_c, 10, 62, 52
12, 100199, Note_on_c, 10, 62, 0
12, 100200, Note_on_c, 10, 55, 52
12, 100319, Note_on_c, 10, 55, 0
12, 100320, Note_on_c, 10, 62, 52
12, 100439, Note_on_c, 10, 62, 0
12, 100440, Note_on_c, 10, 55, 52
12, 100559, Note_on_c, 10, 55, 0
12, 100560, Note_on_c, 10, 62, 52
12, 100679, Note_on_c, 10, 62, 0
12, 100680, Note_on_c, 10, 55, 52
12, 100784, Note_on_c, 10, 55, 0
12, 100800, Note_on_c, 10, 64, 52
12, 100919, Note_on_c, 10, 64, 0
12, 100920, Note_on_c, 10, 55, 52
12, 101039, Note_on_c, 10, 55, 0
12, 101040, Note_on_c, 10, 64, 52
12, 101159, Note_on_c, 10, 64, 0
12, 101160, Note_on_c, 10, 55, 52
12, 101279, Note_on_c, 10, 55, 0
12, 101280, Note_on_c, 10, 64, 52
12, 101399, Note_on_c, 10, 64, 0
12, 101400, Note_on_c, 10, 55, 52
12, 101519, Note_on_c, 10, 55, 0
12, 101520, Note_on_c, 10, 64, 52
12, 101639, Note_on_c, 10, 64, 0
12, 101640, Note_on_c, 10, 55, 52
12, 101744, Note_on_c, 10, 55, 0
12, 101758, Control_c, 10, 11, 80
12, 101760, Note_on_c, 10, 67, 76
12, 101944, Control_c, 10, 11, 81
12, 102128, Control_c, 10, 11, 82
12, 102311, Control_c, 10, 11, 83
12, 102495, Control_c, 10, 11, 84
12, 102679, Control_c, 10, 11, 85
12, 102704, Note_on_c, 10, 67, 0
12, 102720, Note_on_c, 10, 72, 76
12, 102863, Control_c, 10, 11, 86
12, 103047, Control_c, 10, 11, 87
12, 103231, Control_c, 10, 11, 88
12, 103414, Control_c, 10, 11, 89
12, 103598, Control_c, 10, 11, 90
12, 103664, Note_on_c, 10, 72, 0
12, 103680, Note_on_c, 10, 71, 76
12, 103782, Control_c, 10, 11, 91
12, 103904, Note_on_c, 10, 71, 0
12, 103920, Note_on_c, 10, 71, 76
12, 103966, Control_c, 10, 11, 92
12, 104144, Note_on_c, 10, 71, 0
12, 104150, Control_c, 10, 11, 93
12, 104160, Note_on_c, 10, 71, 76
12, 104334, Control_c, 10, 11, 94
12, 104399, Note_on_c, 10, 71, 0
12, 104400, Note_on_c, 10, 74, 76
12, 104517, Control_c, 10, 11, 95
12, 104519, Note_on_c, 10, 74, 0
12, 104520, Note_on_c, 10, 71, 76
12, 104624, Note_on_c, 10, 71, 0
12, 104640, Note_on_c, 10, 72, 76
12, 104701, Control_c, 10, 11, 96
12, 104864, Note_on_c, 10, 72, 0
12, 104880, Note_on_c, 10, 72, 76
12, 104885, Control_c, 10, 11, 97
12, 105069, Control_c, 10, 11, 98
12, 105104, Note_on_c, 10, 72, 0
12, 105120, Note_on_c, 10, 72, 76
12, 105253, Control_c, 10, 11, 99
12, 105359, Note_on_c, 10, 72, 0
12, 105360, Note_on_c, 10, 76, 76
12, 105437, Control_c, 10, 11, 100
12, 105479, Note_on_c, 10, 76, 0
12, 105480, Note_on_c, 10, 72, 76
12, 105584, Note_on_c, 10, 72, 0
12, 105600, Note_on_c, 10, 79, 76
12, 105620, Control_c, 10, 11, 101
12, 105679, Note_on_c, 10, 79, 0
12, 105680, Note_on_c, 10, 81, 76
12, 105759, Note_on_c, 10, 81, 0
12, 105760, Note_on_c, 10, 79, 76
12, 105804, Control_c, 10, 11, 102
12, 105839, Note_on_c, 10, 79, 0
12, 105840, Note_on_c, 10, 81, 76
12, 105919, Note_on_c, 10, 81, 0
12, 105920, Note_on_c, 10, 79, 76
12, 105988, Control_c, 10, 11, 103
12, 105999, Note_on_c, 10, 79, 0
12, 106000, Note_on_c, 10, 81, 76
12, 106079, Note_on_c, 10, 81, 0
12, 106080, Note_on_c, 10, 79, 76
12, 106159, Note_on_c, 10, 79, 0
12, 106160, Note_on_c, 10, 81, 76
12, 106172, Control_c, 10, 11, 104
12, 106239, Note_on_c, 10, 81, 0
12, 106240, Note_on_c, 10, 79, 76
12, 106319, Note_on_c, 10, 79, 0
12, 106320, Note_on_c, 10, 81, 76
12, 106356, Control_c, 10, 11, 105
12, 106399, Note_on_c, 10, 81, 0
12, 106400, Note_on_c, 10, 79, 76
12, 106479, Note_on_c, 10, 79, 0
12, 106480, Note_on_c, 10, 81, 76
12, 106540, Control_c, 10, 11, 106
12, 106547, Note_on_c, 10, 81, 0
12, 106560, Note_on_c, 10, 79, 76
12, 106639, Note_on_c, 10, 79, 0
12, 106640, Note_on_c, 10, 81, 76
12, 106719, Note_on_c, 10, 81, 0
12, 106720, Note_on_c, 10, 79, 76
12, 106723, Control_c, 10, 11, 107
12, 106799, Note_on_c, 10, 79, 0
12, 106800, Note_on_c, 10, 81, 76
12, 106879, Note_on_c, 10, 81, 0
12, 106880, Note_on_c, 10, 79, 76
12, 106907, Control_c, 10, 11, 108
12, 106959, Note_on_c, 10, 79, 0
12, 106960, Note_on_c, 10, 81, 76
12, 107039, Note_on_c, 10, 81, 0
12, 107040, Note_on_c, 10, 79, 76
12, 107091, Control_c, 10, 11, 109
12, 107119, Note_on_c, 10, 79, 0
12, 107120, Note_on_c, 10, 81, 76
12, 107199, Note_on_c, 10, 81, 0
12, 107200, Note_on_c, 10, 79, 76
12, 107275, Control_c, 10, 11, 110
12, 107279, Note_on_c, 10, 79, 0
12, 107280, Note_on_c, 10, 81, 76
12, 107359, Note_on_c, 10, 81, 0
12, 107360, Note_on_c, 10, 79, 76
12, 107439, Note_on_c, 10, 79, 0
12, 107440, Note_on_c, 10, 81, 76
12, 107459, Control_c, 10, 11, 111
12, 107507, Note_on_c, 10, 81, 0
12, 107520, Note_on_c, 10, 79, 76
12, 107579, Note_on_c, 10, 79, 0
12, 107580, Note_on_c, 10, 81, 76
12, 107639, Note_on_c, 10, 81, 0
12, 107640, Note_on_c, 10, 79, 76
12, 107643, Control_c, 10, 11, 112
12, 107699, Note_on_c, 10, 79, 0
12, 107700, Note_on_c, 10, 81, 76
12, 107759, Note_on_c, 10, 81, 0
12, 107760, Note_on_c, 10, 79, 76
12, 107819, Note_on_c, 10, 79, 0
12, 107820, Note_on_c, 10, 81, 76
12, 107826, Control_c, 10, 11, 113
12, 107879, Note_on_c, 10, 81, 0
12, 107880, Note_on_c, 10, 79, 76
12, 107939, Note_on_c, 10, 79, 0
12, 107940, Note_on_c, 10, 81, 76
12, 107999, Note_on_c, 10, 81, 0
12, 108000, Note_on_c, 10, 79, 76
12, 108010, Control_c, 10, 11, 114
12, 108059, Note_on_c, 10, 79, 0
12, 108060, Note_on_c, 10, 81, 76
12, 108119, Note_on_c, 10, 81, 0
12, 108120, Note_on_c, 10, 79, 76
12, 108179, Note_on_c, 10, 79, 0
12, 108180, Note_on_c, 10, 81, 76
12, 108194, Control_c, 10, 11, 115
12, 108239, Note_on_c, 10, 81, 0
12, 108240, Note_on_c, 10, 79, 76
12, 108299, Note_on_c, 10, 79, 0
12, 108300, Note_on_c, 10, 81, 76
12, 108359, Note_on_c, 10, 81, 0
12, 108360, Note_on_c, 10, 79, 76
12, 108378, Control_c, 10, 11, 116
12, 108419, Note_on_c, 10, 79, 0
12, 108420, Note_on_c, 10, 81, 76
12, 108471, Note_on_c, 10, 81, 0
12, 108480, Note_on_c, 10, 79, 76
12, 108539, Note_on_c, 10, 79, 0
12, 108540, Note_on_c, 10, 81, 76
12, 108562, Control_c, 10, 11, 117
12, 108599, Note_on_c, 10, 81, 0
12, 108600, Note_on_c, 10, 79, 76
12, 108659, Note_on_c, 10, 79, 0
12, 108660, Note_on_c, 10, 81, 76
12, 108719, Note_on_c, 10, 81, 0
12, 108720, Note_on_c, 10, 79, 76
12, 108746, Control_c, 10, 11, 118
12, 108779, Note_on_c, 10, 79, 0
12, 108780, Note_on_c, 10, 81, 76
12, 108839, Note_on_c, 10, 81, 0
12, 108840, Note_on_c, 10, 79, 76
12, 108899, Note_on_c, 10, 79, 0
12, 108900, Note_on_c, 10, 81, 76
12, 108929, Control_c, 10, 11, 119
12, 108959, Note_on_c, 10, 81, 0
12, 108960, Note_on_c, 10, 79, 76
12, 109019, Note_on_c, 10, 79, 0
12, 109020, Note_on_c, 10, 81, 76
12, 109079, Note_on_c, 10, 81, 0
12, 109080, Note_on_c, 10, 79, 76
12, 109113, Control_c, 10, 11, 120
12, 109139, Note_on_c, 10, 79, 0
12, 109140, Note_on_c, 10, 81, 76
12, 109199, Note_on_c, 10, 81, 0
12, 109200, Note_on_c, 10, 79, 76
12, 109259, Note_on_c, 10, 79, 0
12, 109260, Note_on_c, 10, 81, 76
12, 109297, Control_c, 10, 11, 121
12, 109319, Note_on_c, 10, 81, 0
12, 109320, Note_on_c, 10, 79, 76
12, 109379, Note_on_c, 10, 79, 0
12, 109380, Note_on_c, 10, 81, 76
12, 109431, Note_on_c, 10, 81, 0
12, 109440, Note_on_c, 10, 79, 76
12, 109481, Control_c, 10, 11, 122
12, 109499, Note_on_c, 10, 79, 0
12, 109500, Note_on_c, 10, 81, 76
12, 109559, Note_on_c, 10, 81, 0
12, 109560, Note_on_c, 10, 79, 76
12, 109619, Note_on_c, 10, 79, 0
12, 109620, Note_on_c, 10, 81, 76
12, 109665, Control_c, 10, 11, 123
12, 109679, Note_on_c, 10, 81, 0
12, 109680, Note_on_c, 10, 79, 76
12, 109739, Note_on_c, 10, 79, 0
12, 109740, Note_on_c, 10, 81, 76
12, 109799, Note_on_c, 10, 81, 0
12, 109800, Note_on_c, 10, 79, 76
12, 109849, Control_c, 10, 11, 124
12, 109859, Note_on_c, 10, 79, 0
12, 109860, Note_on_c, 10, 81, 76
12, 109919, Note_on_c, 10, 81, 0
12, 109920, Note_on_c, 10, 79, 76
12, 109979, Note_on_c, 10, 79, 0
12, 109980, Note_on_c, 10, 81, 76
12, 110032, Control_c, 10, 11, 125
12, 110039, Note_on_c, 10, 81, 0
12, 110040, Note_on_c, 10, 79, 76
12, 110099, Note_on_c, 10, 79, 0
12, 110100, Note_on_c, 10, 81, 76
12, 110159, Note_on_c, 10, 81, 0
12, 110160, Note_on_c, 10, 79, 76
12, 110216, Control_c, 10, 11, 127
12, 110219, Note_on_c, 10, 79, 0
12, 110220, Note_on_c, 10, 81, 76
12, 110279, Note_on_c, 10, 81, 0
12, 110280, Note_on_c, 10, 79, 76
12, 110339, Note_on_c, 10, 79, 0
12, 110340, Note_on_c, 10, 81, 76
12, 110391, Note_on_c, 10, 81, 0
12, 110400, Note_on_c, 10, 79, 76
12, 110759, Note_on_c, 10, 79, 0
12, 110760, Note_on_c, 10, 81, 76
12, 110819, Note_on_c, 10, 81, 0
12, 110820, Note_on_c, 10, 83, 76
12, 110871, Note_on_c, 10, 83, 0
12, 110880, Note_on_c, 10, 84, 76
12, 110999, Note_on_c, 10, 84, 0
12, 111000, Note_on_c, 10, 83, 76
12, 111059, Note_on_c, 10, 83, 0
12, 111060, Note_on_c, 10, 81, 76
12, 111119, Note_on_c, 10, 81, 0
12, 111120, Note_on_c, 10, 79, 76
12, 111239, Note_on_c, 10, 79, 0
12, 111240, Note_on_c, 10, 81, 76
12, 111299, Note_on_c, 10, 81, 0
12, 111300, Note_on_c, 10, 83, 76
12, 111351, Note_on_c, 10, 83, 0
12, 111360, Note_on_c, 10, 84, 76
12, 111479, Note_on_c, 10, 84, 0
12, 111480, Note_on_c, 10, 83, 76
12, 111539, Note_on_c, 10, 83, 0
12, 111540, Note_on_c, 10, 81, 76
12, 111599, Note_on_c, 10, 81, 0
12, 111600, Note_on_c, 10, 79, 76
12, 111719, Note_on_c, 10, 79, 0
12, 111720, Note_on_c, 10, 81, 76
12, 111779, Note_on_c, 10, 81, 0
12, 111780, Note_on_c, 10, 83, 76
12, 111831, Note_on_c, 10, 83, 0
12, 111840, Note_on_c, 10, 84, 76
12, 111959, Note_on_c, 10, 84, 0
12, 112320, Note_on_c, 10, 69, 52
12, 112439, Note_on_c, 10, 69, 0
12, 112440, Note_on_c, 10, 72, 52
12, 112559, Note_on_c, 10, 72, 0
12, 112560, Note_on_c, 10, 69, 52
12, 112679, Note_on_c, 10, 69, 0
12, 112680, Note_on_c, 10, 72, 52
12, 112799, Note_on_c, 10, 72, 0
12, 112800, Note_on_c, 10, 67, 52
12, 112919, Note_on_c, 10, 67, 0
12, 112920, Note_on_c, 10, 72, 52
12, 113039, Note_on_c, 10, 72, 0
12, 113040, Note_on_c, 10, 67, 52
12, 113159, Note_on_c, 10, 67, 0
12, 113160, Note_on_c, 10, 72, 52
12, 113279, Note_on_c, 10, 72, 0
12, 113280, Note_on_c, 10, 67, 52
12, 113399, Note_on_c, 10, 67, 0
12, 113400, Note_on_c, 10, 71, 52
12, 113519, Note_on_c, 10, 71, 0
12, 113520, Note_on_c, 10, 67, 52
12, 113639, Note_on_c, 10, 67, 0
12, 113640, Note_on_c, 10, 71, 52
12, 113744, Note_on_c, 10, 71, 0
12, 113760, Note_on_c, 10, 79, 84
12, 114119, Note_on_c, 10, 79, 0
12, 114120, Note_on_c, 10, 81, 84
12, 114179, Note_on_c, 10, 81, 0
12, 114180, Note_on_c, 10, 83, 84
12, 114231, Note_on_c, 10, 83, 0
12, 114240, Note_on_c, 10, 84, 84
12, 114359, Note_on_c, 10, 84, 0
12, 114360, Note_on_c, 10, 83, 84
12, 114419, Note_on_c, 10, 83, 0
12, 114420, Note_on_c, 10, 81, 84
12, 114479, Note_on_c, 10, 81, 0
12, 114480, Note_on_c, 10, 79, 84
12, 114599, Note_on_c, 10, 79, 0
12, 114600, Note_on_c, 10, 81, 84
12, 114659, Note_on_c, 10, 81, 0
12, 114660, Note_on_c, 10, 83, 84
12, 114711, Note_on_c, 10, 83, 0
12, 114720, Note_on_c, 10, 84, 84
12, 114839, Note_on_c, 10, 84, 0
12, 114840, Note_on_c, 10, 83, 84
12, 114899, Note_on_c, 10, 83, 0
12, 114900, Note_on_c, 10, 81, 84
12, 114959, Note_on_c, 10, 81, 0
12, 114960, Note_on_c, 10, 79, 84
12, 115079, Note_on_c, 10, 79, 0
12, 115080, Note_on_c, 10, 81, 84
12, 115139, Note_on_c, 10, 81, 0
12, 115140, Note_on_c, 10, 83, 84
12, 115191, Note_on_c, 10, 83, 0
12, 115200, Note_on_c, 10, 84, 76
12, 115319, Note_on_c, 10, 84, 0
12, 115680, Note_on_c, 10, 69, 52
12, 115799, Note_on_c, 10, 69, 0
12, 115800, Note_on_c, 10, 72, 52
12, 115919, Note_on_c, 10, 72, 0
12, 115920, Note_on_c, 10, 69, 52
12, 116039, Note_on_c, 10, 69, 0
12, 116040, Note_on_c, 10, 72, 52
12, 116159, Note_on_c, 10, 72, 0
12, 116160, Note_on_c, 10, 67, 52
12, 116279, Note_on_c, 10, 67, 0
12, 116280, Note_on_c, 10, 72, 52
12, 116399, Note_on_c, 10, 72, 0
12, 116400, Note_on_c, 10, 67, 52
12, 116519, Note_on_c, 10, 67, 0
12, 116520, Note_on_c, 10, 72, 52
12, 116639, Note_on_c, 10, 72, 0
12, 116640, Note_on_c, 10, 67, 52
12, 116759, Note_on_c, 10, 67, 0
12, 116760, Note_on_c, 10, 71, 52
12, 116879, Note_on_c, 10, 71, 0
12, 116880, Note_on_c, 10, 67, 52
12, 116999, Note_on_c, 10, 67, 0
12, 117000, Note_on_c, 10, 71, 52
12, 117119, Note_on_c, 10, 71, 0
12, 117120, Note_on_c, 10, 67, 52
12, 117224, Note_on_c, 10, 67, 0
12, 117240, Note_on_c, 10, 72, 52
12, 117344, Note_on_c, 10, 72, 0
12, 117360, Note_on_c, 10, 72, 53
12, 117464, Note_on_c, 10, 72, 0
12, 117480, Note_on_c, 10, 72, 55
12, 117584, Note_on_c, 10, 72, 0
12, 117600, Note_on_c, 10, 69, 56
12, 117719, Note_on_c, 10, 69, 0
12, 117720, Note_on_c, 10, 72, 58
12, 117839, Note_on_c, 10, 72, 0
12, 117840, Note_on_c, 10, 69, 60
12, 117959, Note_on_c, 10, 69, 0
12, 117960, Note_on_c, 10, 72, 61
12, 118079, Note_on_c, 10, 72, 0
12, 118080, Note_on_c, 10, 67, 63
12, 118199, Note_on_c, 10, 67, 0
12, 118200, Note_on_c, 10, 72, 64
12, 118319, Note_on_c, 10, 72, 0
12, 118320, Note_on_c, 10, 67, 66
12, 118439, Note_on_c, 10, 67, 0
12, 118440, Note_on_c, 10, 72, 68
12, 118559, Note_on_c, 10, 72, 0
12, 118560, Note_on_c, 10, 67, 69
12, 118679, Note_on_c, 10, 67, 0
12, 118680, Note_on_c, 10, 71, 71
12, 118799, Note_on_c, 10, 71, 0
12, 118800, Note_on_c, 10, 67, 72
12, 118919, Note_on_c, 10, 67, 0
12, 118920, Note_on_c, 10, 71, 74
12, 119039, Note_on_c, 10, 71, 0
12, 119040, Note_on_c, 10, 72, 76
12, 119107, Note_on_c, 10, 72, 0
12, 119120, Note_on_c, 10, 84, 76
12, 119187, Note_on_c, 10, 84, 0
12, 119200, Note_on_c, 10, 84, 76
12, 119267, Note_on_c, 10, 84, 0
12, 119280, Note_on_c, 10, 84, 76
12, 119347, Note_on_c, 10, 84, 0
12, 119360, Note_on_c, 10, 84, 76
12, 119427, Note_on_c, 10, 84, 0
12, 119440, Note_on_c, 10, 84, 76
12, 119507, Note_on_c, 10, 84, 0
12, 119520, Note_on_c, 10, 84, 76
12, 119587, Note_on_c, 10, 84, 0
12, 119600, Note_on_c, 10, 72, 76
12, 119667, Note_on_c, 10, 72, 0
12, 119680, Note_on_c, 10, 84, 76
12, 119747, Note_on_c, 10, 84, 0
12, 119760, Note_on_c, 10, 72, 76
12, 119827, Note_on_c, 10, 72, 0
12, 119840, Note_on_c, 10, 83, 76
12, 119907, Note_on_c, 10, 83, 0
12, 119920, Note_on_c, 10, 81, 76
12, 119987, Note_on_c, 10, 81, 0
12, 120000, Note_on_c, 10, 79, 76
12, 120067, Note_on_c, 10, 79, 0
12, 120080, Note_on_c, 10, 67, 76
12, 120147, Note_on_c, 10, 67, 0
12, 120160, Note_on_c, 10, 79, 76
12, 120227, Note_on_c, 10, 79, 0
12, 120240, Note_on_c, 10, 67, 76
12, 120307, Note_on_c, 10, 67, 0
12, 120320, Note_on_c, 10, 77, 76
12, 120387, Note_on_c, 10, 77, 0
12, 120400, Note_on_c, 10, 76, 76
12, 120467, Note_on_c, 10, 76, 0
12, 120480, Note_on_c, 10, 74, 76
12, 120547, Note_on_c, 10, 74, 0
12, 120560, Note_on_c, 10, 65, 76
12, 120627, Note_on_c, 10, 65, 0
12, 120640, Note_on_c, 10, 74, 76
12, 120707, Note_on_c, 10, 74, 0
12, 120720, Note_on_c, 10, 65, 76
12, 120787, Note_on_c, 10, 65, 0
12, 120800, Note_on_c, 10, 72, 76
12, 120867, Note_on_c, 10, 72, 0
12, 120880, Note_on_c, 10, 74, 76
12, 120947, Note_on_c, 10, 74, 0
12, 120960, Note_on_c, 10, 72, 76
12, 121199, Note_on_c, 10, 72, 0
12, 121320, Note_on_c, 10, 76, 76
12, 121379, Note_on_c, 10, 76, 0
12, 121380, Note_on_c, 10, 74, 76
12, 121439, Note_on_c, 10, 74, 0
12, 121440, Note_on_c, 10, 72, 76
12, 121529, Note_on_c, 10, 72, 0
12, 121560, Note_on_c, 10, 76, 76
12, 121619, Note_on_c, 10, 76, 0
12, 121620, Note_on_c, 10, 74, 76
12, 121679, Note_on_c, 10, 74, 0
12, 121680, Note_on_c, 10, 72, 76
12, 121769, Note_on_c, 10, 72, 0
12, 121800, Note_on_c, 10, 81, 76
12, 121859, Note_on_c, 10, 81, 0
12, 121860, Note_on_c, 10, 78, 76
12, 121919, Note_on_c, 10, 78, 0
12, 121920, Note_on_c, 10, 79, 76
12, 122099, Note_on_c, 10, 79, 0
12, 122280, Note_on_c, 10, 81, 76
12, 122339, Note_on_c, 10, 81, 0
12, 122340, Note_on_c, 10, 79, 76
12, 122399, Note_on_c, 10, 79, 0
12, 122400, Note_on_c, 10, 76, 76
12, 122489, Note_on_c, 10, 76, 0
12, 122520, Note_on_c, 10, 79, 76
12, 122579, Note_on_c, 10, 79, 0
12, 122580, Note_on_c, 10, 77, 76
12, 122639, Note_on_c, 10, 77, 0
12, 122640, Note_on_c, 10, 74, 76
12, 122729, Note_on_c, 10, 74, 0
12, 122760, Note_on_c, 10, 77, 76
12, 122819, Note_on_c, 10, 77, 0
12, 122820, Note_on_c, 10, 76, 76
12, 122879, Note_on_c, 10, 76, 0
12, 122880, Note_on_c, 10, 72, 76
12, 123059, Note_on_c, 10, 72, 0
12, 123240, Note_on_c, 10, 76, 76
12, 123299, Note_on_c, 10, 76, 0
12, 123300, Note_on_c, 10, 74, 76
12, 123359, Note_on_c, 10, 74, 0
12, 123360, Note_on_c, 10, 72, 76
12, 123449, Note_on_c, 10, 72, 0
12, 123480, Note_on_c, 10, 76, 76
12, 123539, Note_on_c, 10, 76, 0
12, 123540, Note_on_c, 10, 74, 76
12, 123599, Note_on_c, 10, 74, 0
12, 123600, Note_on_c, 10, 72, 76
12, 123689, Note_on_c, 10, 72, 0
12, 123720, Note_on_c, 10, 81, 76
12, 123779, Note_on_c, 10, 81, 0
12, 123780, Note_on_c, 10, 78, 76
12, 123839, Note_on_c, 10, 78, 0
12, 123840, Note_on_c, 10, 79, 76
12, 124019, Note_on_c, 10, 79, 0
12, 124200, Note_on_c, 10, 81, 76
12, 124259, Note_on_c, 10, 81, 0
12, 124260, Note_on_c, 10, 79, 76
12, 124319, Note_on_c, 10, 79, 0
12, 124320, Note_on_c, 10, 76, 76
12, 124409, Note_on_c, 10, 76, 0
12, 124440, Note_on_c, 10, 79, 76
12, 124499, Note_on_c, 10, 79, 0
12, 124500, Note_on_c, 10, 77, 76
12, 124559, Note_on_c, 10, 77, 0
12, 124560, Note_on_c, 10, 74, 76
12, 124649, Note_on_c, 10, 74, 0
12, 124680, Note_on_c, 10, 77, 76
12, 124739, Note_on_c, 10, 77, 0
12, 124740, Note_on_c, 10, 76, 76
12, 124799, Note_on_c, 10, 76, 0
12, 124800, Note_on_c, 10, 72, 76
12, 124889, Note_on_c, 10, 72, 0
12, 124920, Note_on_c, 10, 79, 75
12, 124979, Note_on_c, 10, 79, 0
12, 124980, Note_on_c, 10, 76, 74
12, 125039, Note_on_c, 10, 76, 0
12, 125040, Note_on_c, 10, 74, 73
12, 125129, Note_on_c, 10, 74, 0
12, 125160, Note_on_c, 10, 79, 72
12, 125219, Note_on_c, 10, 79, 0
12, 125220, Note_on_c, 10, 77, 71
12, 125279, Note_on_c, 10, 77, 0
12, 125280, Note_on_c, 10, 72, 70
12, 125369, Note_on_c, 10, 72, 0
12, 125400, Note_on_c, 10, 79, 69
12, 125459, Note_on_c, 10, 79, 0
12, 125460, Note_on_c, 10, 76, 68
12, 125519, Note_on_c, 10, 76, 0
12, 125520, Note_on_c, 10, 74, 67
12, 125609, Note_on_c, 10, 74, 0
12, 125640, Note_on_c, 10, 79, 66
12, 125699, Note_on_c, 10, 79, 0
12, 125700, Note_on_c, 10, 77, 65
12, 125759, Note_on_c, 10, 77, 0
12, 125760, Note_on_c, 10, 72, 64
12, 125849, Note_on_c, 10, 72, 0
12, 125880, Note_on_c, 10, 79, 63
12, 125939, Note_on_c, 10, 79, 0
12, 125940, Note_on_c, 10, 76, 62
12, 125999, Note_on_c, 10, 76, 0
12, 126000, Note_on_c, 10, 74, 61
12, 126089, Note_on_c, 10, 74, 0
12, 126120, Note_on_c, 10, 79, 60
12, 126179, Note_on_c, 10, 79, 0
12, 126180, Note_on_c, 10, 77, 59
12, 126239, Note_on_c, 10, 77, 0
12, 126240, Note_on_c, 10, 72, 58
12, 126329, Note_on_c, 10, 72, 0
12, 126360, Note_on_c, 10, 79, 57
12, 126419, Note_on_c, 10, 79, 0
12, 126420, Note_on_c, 10, 76, 56
12, 126479, Note_on_c, 10, 76, 0
12, 126480, Note_on_c, 10, 74, 55
12, 126569, Note_on_c, 10, 74, 0
12, 126600, Note_on_c, 10, 79, 54
12, 126659, Note_on_c, 10, 79, 0
12, 126660, Note_on_c, 10, 77, 53
12, 126711, Note_on_c, 10, 77, 0
12, 126720, Note_on_c, 10, 72, 52
12, 126959, Note_on_c, 10, 72, 0
12, 126960, Note_on_c, 10, 67, 51
12, 127199, Note_on_c, 10, 67, 0
12, 127200, Note_on_c, 10, 72, 50
12, 127439, Note_on_c, 10, 72, 0
12, 127440, Note_on_c, 10, 67, 49
12, 127679, Note_on_c, 10, 67, 0
12, 127680, Note_on_c, 10, 72, 48
12, 127919, Note_on_c, 10, 72, 0
12, 127920, Note_on_c, 10, 67, 47
12, 128159, Note_on_c, 10, 67, 0
12, 128160, Note_on_c, 10, 72, 46
12, 128399, Note_on_c, 10, 72, 0
12, 128400, Note_on_c, 10, 67, 45
12, 128639, Note_on_c, 10, 67, 0
12, 128640, Note_on_c, 10, 72, 44
12, 128729, Note_on_c, 10, 72, 0
12, 130680, Note_on_c, 10, 60, 52
12, 130799, Note_on_c, 10, 60, 0
12, 130800, Note_on_c, 10, 62, 52
12, 130904, Note_on_c, 10, 62, 0
12, 130920, Note_on_c, 10, 65, 52
12, 131009, Note_on_c, 10, 65, 0
12, 131040, Note_on_c, 10, 64, 52
12, 131129, Note_on_c, 10, 64, 0
12, 131160, Note_on_c, 10, 64, 52
12, 131279, Note_on_c, 10, 64, 0
12, 131280, Note_on_c, 10, 65, 52
12, 131384, Note_on_c, 10, 65, 0
12, 131400, Note_on_c, 10, 69, 52
12, 131489, Note_on_c, 10, 69, 0
12, 131520, Note_on_c, 10, 67, 52
12, 131609, Note_on_c, 10, 67, 0
12, 131640, Note_on_c, 10, 67, 52
12, 131759, Note_on_c, 10, 67, 0
12, 131760, Note_on_c, 10, 69, 52
12, 131864, Note_on_c, 10, 69, 0
12, 131880, Note_on_c, 10, 72, 52
12, 131969, Note_on_c, 10, 72, 0
12, 132000, Note_on_c, 10, 70, 52
12, 132089, Note_on_c, 10, 70, 0
12, 132120, Note_on_c, 10, 69, 76
12, 132239, Note_on_c, 10, 69, 0
12, 132240, Note_on_c, 10, 70, 76
12, 132344, Note_on_c, 10, 70, 0
12, 132360, Note_on_c, 10, 74, 76
12, 132449, Note_on_c, 10, 74, 0
12, 132600, Note_on_c, 10, 69, 52
12, 132719, Note_on_c, 10, 69, 0
12, 132720, Note_on_c, 10, 70, 52
12, 132824, Note_on_c, 10, 70, 0
12, 132840, Note_on_c, 10, 74, 52
12, 132929, Note_on_c, 10, 74, 0
12, 132960, Note_on_c, 10, 72, 52
12, 133079, Note_on_c, 10, 72, 0
12, 133080, Note_on_c, 10, 70, 52
12, 133139, Note_on_c, 10, 70, 0
12, 133140, Note_on_c, 10, 69, 52
12, 133191, Note_on_c, 10, 69, 0
12, 133200, Note_on_c, 10, 67, 52
12, 133289, Note_on_c, 10, 67, 0
12, 133320, Note_on_c, 10, 60, 52
12, 133409, Note_on_c, 10, 60, 0
12, 133560, Note_on_c, 10, 69, 52
12, 133679, Note_on_c, 10, 69, 0
12, 133680, Note_on_c, 10, 70, 52
12, 133784, Note_on_c, 10, 70, 0
12, 133800, Note_on_c, 10, 74, 52
12, 133889, Note_on_c, 10, 74, 0
12, 133920, Note_on_c, 10, 72, 52
12, 134039, Note_on_c, 10, 72, 0
12, 134040, Note_on_c, 10, 70, 52
12, 134099, Note_on_c, 10, 70, 0
12, 134100, Note_on_c, 10, 69, 52
12, 134151, Note_on_c, 10, 69, 0
12, 134160, Note_on_c, 10, 67, 52
12, 134249, Note_on_c, 10, 67, 0
12, 134280, Note_on_c, 10, 60, 52
12, 134369, Note_on_c, 10, 60, 0
12, 134400, Note_on_c, 10, 65, 52
12, 134489, Note_on_c, 10, 65, 0
12, 134520, Note_on_c, 10, 65, 52
12, 134639, Note_on_c, 10, 65, 0
12, 134640, Note_on_c, 10, 67, 54
12, 134744, Note_on_c, 10, 67, 0
12, 134760, Note_on_c, 10, 70, 56
12, 134849, Note_on_c, 10, 70, 0
12, 134880, Note_on_c, 10, 69, 58
12, 134969, Note_on_c, 10, 69, 0
12, 135000, Note_on_c, 10, 69, 60
12, 135119, Note_on_c, 10, 69, 0
12, 135120, Note_on_c, 10, 70, 62
12, 135224, Note_on_c, 10, 70, 0
12, 135240, Note_on_c, 10, 74, 64
12, 135329, Note_on_c, 10, 74, 0
12, 135360, Note_on_c, 10, 72, 66
12, 135449, Note_on_c, 10, 72, 0
12, 135480, Note_on_c, 10, 72, 68
12, 135599, Note_on_c, 10, 72, 0
12, 135600, Note_on_c, 10, 74, 70
12, 135719, Note_on_c, 10, 74, 0
12, 135720, Note_on_c, 10, 77, 72
12, 135809, Note_on_c, 10, 77, 0
12, 135840, Note_on_c, 10, 75, 74
12, 135929, Note_on_c, 10, 75, 0
12, 135960, Note_on_c, 10, 74, 76
12, 136079, Note_on_c, 10, 74, 0
12, 136080, Note_on_c, 10, 75, 76
12, 136184, Note_on_c, 10, 75, 0
12, 136200, Note_on_c, 10, 79, 76
12, 136289, Note_on_c, 10, 79, 0
12, 137160, Note_on_c, 10, 65, 52
12, 137264, Note_on_c, 10, 65, 0
12, 138000, Control_c, 10, 11, 64
12, 138120, Note_on_c, 10, 65, 84
12, 138224, Note_on_c, 10, 65, 0
12, 138240, Note_on_c, 10, 70, 84
12, 138240, Control_c, 10, 11, 64
12, 138329, Note_on_c, 10, 70, 0
12, 138360, Note_on_c, 10, 65, 84
12, 138419, Note_on_c, 10, 65, 0
12, 138420, Note_on_c, 10, 63, 84
12, 138471, Note_on_c, 10, 63, 0
12, 138480, Note_on_c, 10, 62, 84
12, 138480, Control_c, 10, 11, 65
12, 138569, Note_on_c, 10, 62, 0
12, 138600, Note_on_c, 10, 58, 84
12, 138689, Note_on_c, 10, 58, 0
12, 138720, Control_c, 10, 11, 66
12, 138720, Note_on_c, 10, 70, 84
12, 138809, Note_on_c, 10, 70, 0
12, 138840, Note_on_c, 10, 65, 84
12, 138899, Note_on_c, 10, 65, 0
12, 138900, Note_on_c, 10, 63, 84
12, 138951, Note_on_c, 10, 63, 0
12, 138960, Note_on_c, 10, 62, 84
12, 138960, Control_c, 10, 11, 67
12, 139049, Note_on_c, 10, 62, 0
12, 139080, Note_on_c, 10, 58, 84
12, 139169, Note_on_c, 10, 58, 0
12, 139200, Note_on_c, 10, 70, 84
12, 139200, Control_c, 10, 11, 68
12, 139289, Note_on_c, 10, 70, 0
12, 139320, Note_on_c, 10, 65, 84
12, 139379, Note_on_c, 10, 65, 0
12, 139380, Note_on_c, 10, 63, 84
12, 139431, Note_on_c, 10, 63, 0
12, 139440, Control_c, 10, 11, 69
12, 139440, Note_on_c, 10, 62, 84
12, 139529, Note_on_c, 10, 62, 0
12, 139560, Note_on_c, 10, 58, 84
12, 139649, Note_on_c, 10, 58, 0
12, 139680, Control_c, 10, 11, 70
12, 139680, Note_on_c, 10, 70, 84
12, 139769, Note_on_c, 10, 70, 0
12, 139800, Note_on_c, 10, 65, 84
12, 139859, Note_on_c, 10, 65, 0
12, 139860, Note_on_c, 10, 63, 84
12, 139911, Note_on_c, 10, 63, 0
12, 139920, Note_on_c, 10, 62, 84
12, 139920, Control_c, 10, 11, 71
12, 140009, Note_on_c, 10, 62, 0
12, 140040, Note_on_c, 10, 58, 84
12, 140129, Note_on_c, 10, 58, 0
12, 140160, Control_c, 10, 11, 72
12, 140160, Note_on_c, 10, 74, 84
12, 140400, Control_c, 10, 11, 73
12, 140640, Control_c, 10, 11, 74
12, 140880, Control_c, 10, 11, 75
12, 141119, Note_on_c, 10, 74, 0
12, 141120, Control_c, 10, 11, 76
12, 141120, Note_on_c, 10, 74, 84
12, 141360, Control_c, 10, 11, 77
12, 141600, Control_c, 10, 11, 78
12, 141840, Control_c, 10, 11, 79
12, 142064, Note_on_c, 10, 74, 0
12, 142080, Control_c, 10, 11, 80
12, 142080, Note_on_c, 10, 74, 84
12, 142169, Note_on_c, 10, 74, 0
12, 142200, Note_on_c, 10, 72, 84
12, 142259, Note_on_c, 10, 72, 0
12, 142260, Note_on_c, 10, 70, 84
12, 142311, Note_on_c, 10, 70, 0
12, 142320, Note_on_c, 10, 65, 84
12, 142320, Control_c, 10, 11, 81
12, 142409, Note_on_c, 10, 65, 0
12, 142440, Note_on_c, 10, 62, 84
12, 142529, Note_on_c, 10, 62, 0
12, 142560, Note_on_c, 10, 74, 84
12, 142560, Control_c, 10, 11, 82
12, 142649, Note_on_c, 10, 74, 0
12, 142680, Note_on_c, 10, 72, 84
12, 142739, Note_on_c, 10, 72, 0
12, 142740, Note_on_c, 10, 70, 84
12, 142791, Note_on_c, 10, 70, 0
12, 142800, Control_c, 10, 11, 83
12, 142800, Note_on_c, 10, 65, 84
12, 142889, Note_on_c, 10, 65, 0
12, 142920, Note_on_c, 10, 62, 84
12, 143009, Note_on_c, 10, 62, 0
12, 143040, Note_on_c, 10, 74, 84
12, 143040, Control_c, 10, 11, 84
12, 143129, Note_on_c, 10, 74, 0
12, 143160, Note_on_c, 10, 72, 84
12, 143219, Note_on_c, 10, 72, 0
12, 143220, Note_on_c, 10, 70, 84
12, 143271, Note_on_c, 10, 70, 0
12, 143280, Note_on_c, 10, 65, 84
12, 143280, Control_c, 10, 11, 85
12, 143369, Note_on_c, 10, 65, 0
12, 143400, Note_on_c, 10, 62, 84
12, 143489, Note_on_c, 10, 62, 0
12, 143520, Note_on_c, 10, 74, 84
12, 143520, Control_c, 10, 11, 86
12, 143609, Note_on_c, 10, 74, 0
12, 143640, Note_on_c, 10, 72, 84
12, 143699, Note_on_c, 10, 72, 0
12, 143700, Note_on_c, 10, 70, 84
12, 143751, Note_on_c, 10, 70, 0
12, 143760, Note_on_c, 10, 65, 84
12, 143760, Control_c, 10, 11, 87
12, 143849, Note_on_c, 10, 65, 0
12, 143880, Note_on_c, 10, 62, 84
12, 143969, Note_on_c, 10, 62, 0
12, 144000, Note_on_c, 10, 78, 84
12, 144000, Control_c, 10, 11, 88
12, 144240, Control_c, 10, 11, 89
12, 144480, Control_c, 10, 11, 90
12, 144720, Control_c, 10, 11, 91
12, 144959, Note_on_c, 10, 78, 0
12, 144960, Control_c, 10, 11, 92
12, 144960, Note_on_c, 10, 78, 84
12, 145200, Control_c, 10, 11, 93
12, 145440, Control_c, 10, 11, 94
12, 145680, Control_c, 10, 11, 95
12, 145904, Note_on_c, 10, 78, 0
12, 145920, Control_c, 10, 11, 96
12, 145920, Note_on_c, 10, 78, 84
12, 146009, Note_on_c, 10, 78, 0
12, 146040, Note_on_c, 10, 76, 84
12, 146044, Control_c, 10, 11, 97
12, 146099, Note_on_c, 10, 76, 0
12, 146100, Note_on_c, 10, 74, 84
12, 146151, Note_on_c, 10, 74, 0
12, 146160, Note_on_c, 10, 69, 84
12, 146168, Control_c, 10, 11, 98
12, 146249, Note_on_c, 10, 69, 0
12, 146280, Note_on_c, 10, 66, 84
12, 146292, Control_c, 10, 11, 99
12, 146369, Note_on_c, 10, 66, 0
12, 146400, Note_on_c, 10, 78, 84
12, 146415, Control_c, 10, 11, 100
12, 146489, Note_on_c, 10, 78, 0
12, 146520, Note_on_c, 10, 76, 84
12, 146539, Control_c, 10, 11, 101
12, 146579, Note_on_c, 10, 76, 0
12, 146580, Note_on_c, 10, 74, 84
12, 146631, Note_on_c, 10, 74, 0
12, 146640, Note_on_c, 10, 69, 84
12, 146663, Control_c, 10, 11, 102
12, 146729, Note_on_c, 10, 69, 0
12, 146760, Note_on_c, 10, 66, 84
12, 146787, Control_c, 10, 11, 103
12, 146849, Note_on_c, 10, 66, 0
12, 146880, Note_on_c, 10, 78, 84
12, 146911, Control_c, 10, 11, 104
12, 146969, Note_on_c, 10, 78, 0
12, 147000, Note_on_c, 10, 76, 84
12, 147035, Control_c, 10, 11, 105
12, 147059, Note_on_c, 10, 76, 0
12, 147060, Note_on_c, 10, 74, 84
12, 147111, Note_on_c, 10, 74, 0
12, 147120, Note_on_c, 10, 69, 84
12, 147159, Control_c, 10, 11, 106
12, 147209, Note_on_c, 10, 69, 0
12, 147240, Note_on_c, 10, 66, 84
12, 147283, Control_c, 10, 11, 107
12, 147329, Note_on_c, 10, 66, 0
12, 147360, Note_on_c, 10, 78, 84
12, 147406, Control_c, 10, 11, 108
12, 147449, Note_on_c, 10, 78, 0
12, 147480, Note_on_c, 10, 76, 84
12, 147530, Control_c, 10, 11, 109
12, 147539, Note_on_c, 10, 76, 0
12, 147540, Note_on_c, 10, 74, 84
12, 147591, Note_on_c, 10, 74, 0
12, 147600, Note_on_c, 10, 69, 84
12, 147654, Control_c, 10, 11, 110
12, 147689, Note_on_c, 10, 69, 0
12, 147720, Note_on_c, 10, 66, 84
12, 147778, Control_c, 10, 11, 111
12, 147809, Note_on_c, 10, 66, 0
12, 147840, Note_on_c, 10, 81, 84
12, 147902, Control_c, 10, 11, 112
12, 148026, Control_c, 10, 11, 113
12, 148150, Control_c, 10, 11, 114
12, 148274, Control_c, 10, 11, 115
12, 148397, Control_c, 10, 11, 116
12, 148521, Control_c, 10, 11, 117
12, 148645, Control_c, 10, 11, 118
12, 148769, Control_c, 10, 11, 119
12, 148799, Note_on_c, 10, 81, 0
12, 148800, Note_on_c, 10, 81, 84
12, 148893, Control_c, 10, 11, 120
12, 149017, Control_c, 10, 11, 121
12, 149141, Control_c, 10, 11, 122
12, 149265, Control_c, 10, 11, 123
12, 149388, Control_c, 10, 11, 124
12, 149512, Control_c, 10, 11, 125
12, 149636, Control_c, 10, 11, 127
12, 149744, Note_on_c, 10, 81, 0
12, 149760, Note_on_c, 10, 81, 84
12, 149811, Note_on_c, 10, 81, 0
12, 149820, Note_on_c, 10, 81, 84
12, 149871, Note_on_c, 10, 81, 0
12, 149880, Note_on_c, 10, 81, 84
12, 149931, Note_on_c, 10, 81, 0
12, 149940, Note_on_c, 10, 81, 84
12, 149991, Note_on_c, 10, 81, 0
12, 150000, Note_on_c, 10, 81, 84
12, 150051, Note_on_c, 10, 81, 0
12, 150060, Note_on_c, 10, 81, 84
12, 150111, Note_on_c, 10, 81, 0
12, 150120, Note_on_c, 10, 81, 84
12, 150171, Note_on_c, 10, 81, 0
12, 150180, Note_on_c, 10, 81, 84
12, 150231, Note_on_c, 10, 81, 0
12, 150240, Note_on_c, 10, 81, 84
12, 150291, Note_on_c, 10, 81, 0
12, 150300, Note_on_c, 10, 81, 84
12, 150351, Note_on_c, 10, 81, 0
12, 150360, Note_on_c, 10, 81, 84
12, 150411, Note_on_c, 10, 81, 0
12, 150420, Note_on_c, 10, 81, 84
12, 150471, Note_on_c, 10, 81, 0
12, 150480, Note_on_c, 10, 81, 84
12, 150531, Note_on_c, 10, 81, 0
12, 150540, Note_on_c, 10, 81, 84
12, 150591, Note_on_c, 10, 81, 0
12, 150600, Note_on_c, 10, 81, 84
12, 150651, Note_on_c, 10, 81, 0
12, 150660, Note_on_c, 10, 81, 84
12, 150711, Note_on_c, 10, 81, 0
12, 150720, Note_on_c, 10, 81, 84
12, 150771, Note_on_c, 10, 81, 0
12, 150780, Note_on_c, 10, 81, 84
12, 150831, Note_on_c, 10, 81, 0
12, 150840, Note_on_c, 10, 81, 84
12, 150891, Note_on_c, 10, 81, 0
12, 150900, Note_on_c, 10, 81, 84
12, 150951, Note_on_c, 10, 81, 0
12, 150960, Note_on_c, 10, 81, 84
12, 151011, Note_on_c, 10, 81, 0
12, 151020, Note_on_c, 10, 81, 84
12, 151071, Note_on_c, 10, 81, 0
12, 151080, Note_on_c, 10, 81, 84
12, 151131, Note_on_c, 10, 81, 0
12, 151140, Note_on_c, 10, 81, 84
12, 151191, Note_on_c, 10, 81, 0
12, 151200, Note_on_c, 10, 81, 84
12, 151251, Note_on_c, 10, 81, 0
12, 151260, Note_on_c, 10, 81, 84
12, 151311, Note_on_c, 10, 81, 0
12, 151320, Note_on_c, 10, 81, 84
12, 151371, Note_on_c, 10, 81, 0
12, 151380, Note_on_c, 10, 81, 84
12, 151431, Note_on_c, 10, 81, 0
12, 151440, Note_on_c, 10, 81, 84
12, 151491, Note_on_c, 10, 81, 0
12, 151500, Note_on_c, 10, 81, 84
12, 151551, Note_on_c, 10, 81, 0
12, 151560, Note_on_c, 10, 81, 84
12, 151611, Note_on_c, 10, 81, 0
12, 151620, Note_on_c, 10, 81, 84
12, 151671, Note_on_c, 10, 81, 0
12, 151680, Note_on_c, 10, 81, 84
12, 151799, Note_on_c, 10, 81, 0
12, 152160, Note_on_c, 10, 74, 84
12, 152249, Note_on_c, 10, 74, 0
12, 152280, Note_on_c, 10, 69, 84
12, 152339, Note_on_c, 10, 69, 0
12, 152340, Note_on_c, 10, 67, 84
12, 152391, Note_on_c, 10, 67, 0
12, 152400, Note_on_c, 10, 66, 84
12, 152489, Note_on_c, 10, 66, 0
12, 152520, Note_on_c, 10, 62, 84
12, 152609, Note_on_c, 10, 62, 0
12, 153120, Note_on_c, 10, 78, 84
12, 153209, Note_on_c, 10, 78, 0
12, 153240, Note_on_c, 10, 76, 84
12, 153299, Note_on_c, 10, 76, 0
12, 153300, Note_on_c, 10, 74, 84
12, 153351, Note_on_c, 10, 74, 0
12, 153360, Note_on_c, 10, 69, 84
12, 153449, Note_on_c, 10, 69, 0
12, 153480, Note_on_c, 10, 66, 84
12, 153569, Note_on_c, 10, 66, 0
12, 154080, Note_on_c, 10, 81, 76
12, 154169, Note_on_c, 10, 81, 0
12, 154200, Note_on_c, 10, 79, 74
12, 154259, Note_on_c, 10, 79, 0
12, 154260, Note_on_c, 10, 78, 73
12, 154311, Note_on_c, 10, 78, 0
12, 154320, Note_on_c, 10, 74, 72
12, 154409, Note_on_c, 10, 74, 0
12, 154440, Note_on_c, 10, 69, 70
12, 154529, Note_on_c, 10, 69, 0
12, 154560, Note_on_c, 10, 81, 68
12, 154649, Note_on_c, 10, 81, 0
12, 154680, Note_on_c, 10, 79, 66
12, 154739, Note_on_c, 10, 79, 0
12, 154740, Note_on_c, 10, 78, 65
12, 154791, Note_on_c, 10, 78, 0
12, 154800, Note_on_c, 10, 74, 64
12, 154889, Note_on_c, 10, 74, 0
12, 154920, Note_on_c, 10, 69, 62
12, 155009, Note_on_c, 10, 69, 0
12, 155040, Note_on_c, 10, 81, 60
12, 155129, Note_on_c, 10, 81, 0
12, 155160, Note_on_c, 10, 79, 58
12, 155219, Note_on_c, 10, 79, 0
12, 155220, Note_on_c, 10, 78, 57
12, 155271, Note_on_c, 10, 78, 0
12, 155280, Note_on_c, 10, 74, 56
12, 155369, Note_on_c, 10, 74, 0
12, 155400, Note_on_c, 10, 69, 54
12, 155489, Note_on_c, 10, 69, 0
12, 155760, Note_on_c, 10, 74, 52
12, 155849, Note_on_c, 10, 74, 0
12, 155880, Note_on_c, 10, 69, 52
12, 155969, Note_on_c, 10, 69, 0
12, 156240, Note_on_c, 10, 74, 52
12, 156329, Note_on_c, 10, 74, 0
12, 156360, Note_on_c, 10, 69, 52
12, 156449, Note_on_c, 10, 69, 0
12, 156480, Note_on_c, 10, 74, 52
12, 156569, Note_on_c, 10, 74, 0
12, 156600, Note_on_c, 10, 69, 52
12, 156689, Note_on_c, 10, 69, 0
12, 156720, Note_on_c, 10, 74, 52
12, 156809, Note_on_c, 10, 74, 0
12, 156840, Note_on_c, 10, 69, 52
12, 156929, Note_on_c, 10, 69, 0
12, 156960, Note_on_c, 10, 74, 52
12, 157049, Note_on_c, 10, 74, 0
12, 157080, Note_on_c, 10, 69, 52
12, 157169, Note_on_c, 10, 69, 0
12, 157200, Note_on_c, 10, 74, 52
12, 157289, Note_on_c, 10, 74, 0
12, 157320, Note_on_c, 10, 69, 52
12, 157409, Note_on_c, 10, 69, 0
12, 157560, Note_on_c, 10, 71, 52
12, 157649, Note_on_c, 10, 71, 0
12, 157680, Note_on_c, 10, 72, 52
12, 157769, Note_on_c, 10, 72, 0
12, 157800, Note_on_c, 10, 76, 52
12, 157889, Note_on_c, 10, 76, 0
12, 157920, Note_on_c, 10, 74, 52
12, 158009, Note_on_c, 10, 74, 0
12, 158040, Note_on_c, 10, 72, 52
12, 158099, Note_on_c, 10, 72, 0
12, 158100, Note_on_c, 10, 71, 52
12, 158151, Note_on_c, 10, 71, 0
12, 158160, Note_on_c, 10, 69, 52
12, 158249, Note_on_c, 10, 69, 0
12, 158280, Note_on_c, 10, 62, 52
12, 158369, Note_on_c, 10, 62, 0
12, 158400, Note_on_c, 10, 67, 52
12, 158489, Note_on_c, 10, 67, 0
12, 158520, Note_on_c, 10, 69, 52
12, 158609, Note_on_c, 10, 69, 0
12, 158640, Note_on_c, 10, 71, 52
12, 158759, Note_on_c, 10, 71, 0
12, 158760, Note_on_c, 10, 72, 52
12, 158819, Note_on_c, 10, 72, 0
12, 158820, Note_on_c, 10, 71, 52
12, 158871, Note_on_c, 10, 71, 0
12, 158880, Note_on_c, 10, 69, 52
12, 159344, Note_on_c, 10, 69, 0
12, 159358, Control_c, 10, 11, 64
12, 159360, Note_on_c, 10, 71, 84
12, 159449, Note_on_c, 10, 71, 0
12, 159480, Note_on_c, 10, 69, 84
12, 159569, Note_on_c, 10, 69, 0
12, 159600, Note_on_c, 10, 67, 84
12, 159719, Note_on_c, 10, 67, 0
12, 159720, Note_on_c, 10, 66, 84
12, 159779, Note_on_c, 10, 66, 0
12, 159780, Note_on_c, 10, 67, 84
12, 159831, Note_on_c, 10, 67, 0
12, 159840, Note_on_c, 10, 72, 84
12, 159929, Note_on_c, 10, 72, 0
12, 159960, Note_on_c, 10, 71, 84
12, 160049, Note_on_c, 10, 71, 0
12, 160080, Note_on_c, 10, 69, 84
12, 160199, Note_on_c, 10, 69, 0
12, 160200, Note_on_c, 10, 67, 84
12, 160259, Note_on_c, 10, 67, 0
12, 160260, Note_on_c, 10, 69, 84
12, 160311, Note_on_c, 10, 69, 0
12, 160320, Control_c, 10, 11, 64
12, 160320, Note_on_c, 10, 71, 84
12, 160409, Note_on_c, 10, 71, 0
12, 160440, Note_on_c, 10, 69, 84
12, 160499, Note_on_c, 10, 69, 0
12, 160500, Note_on_c, 10, 67, 84
12, 160503, Control_c, 10, 11, 65
12, 160551, Note_on_c, 10, 67, 0
12, 160560, Note_on_c, 10, 62, 84
12, 160649, Note_on_c, 10, 62, 0
12, 160680, Note_on_c, 10, 59, 84
12, 160686, Control_c, 10, 11, 66
12, 160769, Note_on_c, 10, 59, 0
12, 160800, Note_on_c, 10, 71, 84
12, 160869, Control_c, 10, 11, 67
12, 160889, Note_on_c, 10, 71, 0
12, 160920, Note_on_c, 10, 69, 84
12, 160979, Note_on_c, 10, 69, 0
12, 160980, Note_on_c, 10, 67, 84
12, 161031, Note_on_c, 10, 67, 0
12, 161040, Note_on_c, 10, 62, 84
12, 161051, Control_c, 10, 11, 68
12, 161129, Note_on_c, 10, 62, 0
12, 161160, Note_on_c, 10, 59, 84
12, 161234, Control_c, 10, 11, 69
12, 161249, Note_on_c, 10, 59, 0
12, 161280, Note_on_c, 10, 71, 84
12, 161369, Note_on_c, 10, 71, 0
12, 161400, Note_on_c, 10, 69, 84
12, 161417, Control_c, 10, 11, 70
12, 161459, Note_on_c, 10, 69, 0
12, 161460, Note_on_c, 10, 67, 84
12, 161511, Note_on_c, 10, 67, 0
12, 161520, Note_on_c, 10, 62, 84
12, 161600, Control_c, 10, 11, 71
12, 161609, Note_on_c, 10, 62, 0
12, 161640, Note_on_c, 10, 59, 84
12, 161729, Note_on_c, 10, 59, 0
12, 161760, Note_on_c, 10, 71, 84
12, 161783, Control_c, 10, 11, 72
12, 161849, Note_on_c, 10, 71, 0
12, 161880, Note_on_c, 10, 69, 84
12, 161939, Note_on_c, 10, 69, 0
12, 161940, Note_on_c, 10, 67, 84
12, 161966, Control_c, 10, 11, 73
12, 161991, Note_on_c, 10, 67, 0
12, 162000, Note_on_c, 10, 62, 84
12, 162089, Note_on_c, 10, 62, 0
12, 162120, Note_on_c, 10, 59, 84
12, 162149, Control_c, 10, 11, 74
12, 162209, Note_on_c, 10, 59, 0
12, 162240, Note_on_c, 10, 74, 84
12, 162331, Control_c, 10, 11, 75
12, 162514, Control_c, 10, 11, 76
12, 162697, Control_c, 10, 11, 77
12, 162880, Control_c, 10, 11, 78
12, 163063, Control_c, 10, 11, 79
12, 163199, Note_on_c, 10, 74, 0
12, 163200, Note_on_c, 10, 74, 84
12, 163246, Control_c, 10, 11, 80
12, 163429, Control_c, 10, 11, 81
12, 163611, Control_c, 10, 11, 82
12, 163794, Control_c, 10, 11, 83
12, 163977, Control_c, 10, 11, 84
12, 164144, Note_on_c, 10, 74, 0
12, 164160, Note_on_c, 10, 74, 84
12, 164160, Control_c, 10, 11, 85
12, 164249, Note_on_c, 10, 74, 0
12, 164280, Note_on_c, 10, 72, 84
12, 164339, Note_on_c, 10, 72, 0
12, 164340, Note_on_c, 10, 71, 84
12, 164343, Control_c, 10, 11, 86
12, 164391, Note_on_c, 10, 71, 0
12, 164400, Note_on_c, 10, 67, 84
12, 164489, Note_on_c, 10, 67, 0
12, 164520, Note_on_c, 10, 62, 84
12, 164526, Control_c, 10, 11, 87
12, 164609, Note_on_c, 10, 62, 0
12, 164640, Note_on_c, 10, 74, 84
12, 164709, Control_c, 10, 11, 88
12, 164729, Note_on_c, 10, 74, 0
12, 164760, Note_on_c, 10, 72, 84
12, 164819, Note_on_c, 10, 72, 0
12, 164820, Note_on_c, 10, 71, 84
12, 164871, Note_on_c, 10, 71, 0
12, 164880, Note_on_c, 10, 67, 84
12, 164891, Control_c, 10, 11, 89
12, 164969, Note_on_c, 10, 67, 0
12, 165000, Note_on_c, 10, 62, 84
12, 165074, Control_c, 10, 11, 90
12, 165089, Note_on_c, 10, 62, 0
12, 165120, Note_on_c, 10, 74, 84
12, 165209, Note_on_c, 10, 74, 0
12, 165240, Note_on_c, 10, 72, 84
12, 165257, Control_c, 10, 11, 91
12, 165299, Note_on_c, 10, 72, 0
12, 165300, Note_on_c, 10, 71, 84
12, 165351, Note_on_c, 10, 71, 0
12, 165360, Note_on_c, 10, 67, 84
12, 165440, Control_c, 10, 11, 92
12, 165449, Note_on_c, 10, 67, 0
12, 165480, Note_on_c, 10, 62, 84
12, 165569, Note_on_c, 10, 62, 0
12, 165600, Note_on_c, 10, 74, 84
12, 165623, Control_c, 10, 11, 93
12, 165689, Note_on_c, 10, 74, 0
12, 165720, Note_on_c, 10, 72, 84
12, 165779, Note_on_c, 10, 72, 0
12, 165780, Note_on_c, 10, 71, 84
12, 165806, Control_c, 10, 11, 94
12, 165831, Note_on_c, 10, 71, 0
12, 165840, Note_on_c, 10, 67, 84
12, 165929, Note_on_c, 10, 67, 0
12, 165960, Note_on_c, 10, 62, 84
12, 165989, Control_c, 10, 11, 95
12, 166049, Note_on_c, 10, 62, 0
12, 166080, Note_on_c, 10, 76, 84
12, 166171, Control_c, 10, 11, 96
12, 166354, Control_c, 10, 11, 97
12, 166537, Control_c, 10, 11, 98
12, 166720, Control_c, 10, 11, 99
12, 166903, Control_c, 10, 11, 100
12, 167039, Note_on_c, 10, 76, 0
12, 167040, Note_on_c, 10, 76, 84
12, 167086, Control_c, 10, 11, 101
12, 167269, Control_c, 10, 11, 102
12, 167451, Control_c, 10, 11, 103
12, 167634, Control_c, 10, 11, 104
12, 167817, Control_c, 10, 11, 105
12, 167984, Note_on_c, 10, 76, 0
12, 168000, Control_c, 10, 11, 106
12, 168000, Note_on_c, 10, 80, 84
12, 168089, Note_on_c, 10, 80, 0
12, 168120, Note_on_c, 10, 78, 84
12, 168179, Note_on_c, 10, 78, 0
12, 168180, Note_on_c, 10, 76, 84
12, 168183, Control_c, 10, 11, 107
12, 168231, Note_on_c, 10, 76, 0
12, 168240, Note_on_c, 10, 71, 84
12, 168329, Note_on_c, 10, 71, 0
12, 168360, Note_on_c, 10, 68, 84
12, 168366, Control_c, 10, 11, 108
12, 168449, Note_on_c, 10, 68, 0
12, 168480, Note_on_c, 10, 80, 84
12, 168549, Control_c, 10, 11, 109
12, 168569, Note_on_c, 10, 80, 0
12, 168600, Note_on_c, 10, 78, 84
12, 168659, Note_on_c, 10, 78, 0
12, 168660, Note_on_c, 10, 76, 84
12, 168711, Note_on_c, 10, 76, 0
12, 168720, Note_on_c, 10, 71, 84
12, 168731, Control_c, 10, 11, 110
12, 168809, Note_on_c, 10, 71, 0
12, 168840, Note_on_c, 10, 68, 84
12, 168914, Control_c, 10, 11, 111
12, 168929, Note_on_c, 10, 68, 0
12, 168960, Note_on_c, 10, 80, 84
12, 169049, Note_on_c, 10, 80, 0
12, 169080, Note_on_c, 10, 78, 84
12, 169097, Control_c, 10, 11, 112
12, 169139, Note_on_c, 10, 78, 0
12, 169140, Note_on_c, 10, 76, 84
12, 169191, Note_on_c, 10, 76, 0
12, 169200, Note_on_c, 10, 71, 84
12, 169280, Control_c, 10, 11, 113
12, 169289, Note_on_c, 10, 71, 0
12, 169320, Note_on_c, 10, 68, 84
12, 169409, Note_on_c, 10, 68, 0
12, 169440, Note_on_c, 10, 80, 84
12, 169463, Control_c, 10, 11, 114
12, 169529, Note_on_c, 10, 80, 0
12, 169560, Note_on_c, 10, 78, 84
12, 169619, Note_on_c, 10, 78, 0
12, 169620, Note_on_c, 10, 76, 84
12, 169646, Control_c, 10, 11, 115
12, 169671, Note_on_c, 10, 76, 0
12, 169680, Note_on_c, 10, 71, 84
12, 169769, Note_on_c, 10, 71, 0
12, 169800, Note_on_c, 10, 68, 84
12, 169829, Control_c, 10, 11, 116
12, 169889, Note_on_c, 10, 68, 0
12, 169920, Note_on_c, 10, 83, 84
12, 170011, Control_c, 10, 11, 117
12, 170194, Control_c, 10, 11, 118
12, 170377, Control_c, 10, 11, 119
12, 170560, Control_c, 10, 11, 120
12, 170743, Control_c, 10, 11, 121
12, 170879, Note_on_c, 10, 83, 0
12, 170880, Note_on_c, 10, 83, 84
12, 170926, Control_c, 10, 11, 122
12, 171109, Control_c, 10, 11, 123
12, 171291, Control_c, 10, 11, 124
12, 171474, Control_c, 10, 11, 125
12, 171657, Control_c, 10, 11, 127
12, 171824, Note_on_c, 10, 83, 0
12, 171840, Note_on_c, 10, 83, 84
12, 171891, Note_on_c, 10, 83, 0
12, 171900, Note_on_c, 10, 83, 84
12, 171951, Note_on_c, 10, 83, 0
12, 171960, Note_on_c, 10, 83, 84
12, 172011, Note_on_c, 10, 83, 0
12, 172020, Note_on_c, 10, 83, 84
12, 172071, Note_on_c, 10, 83, 0
12, 172080, Note_on_c, 10, 83, 84
12, 172131, Note_on_c, 10, 83, 0
12, 172140, Note_on_c, 10, 83, 84
12, 172191, Note_on_c, 10, 83, 0
12, 172200, Note_on_c, 10, 83, 84
12, 172251, Note_on_c, 10, 83, 0
12, 172260, Note_on_c, 10, 83, 84
12, 172311, Note_on_c, 10, 83, 0
12, 172320, Note_on_c, 10, 83, 84
12, 172371, Note_on_c, 10, 83, 0
12, 172380, Note_on_c, 10, 83, 84
12, 172431, Note_on_c, 10, 83, 0
12, 172440, Note_on_c, 10, 83, 84
12, 172491, Note_on_c, 10, 83, 0
12, 172500, Note_on_c, 10, 83, 84
12, 172551, Note_on_c, 10, 83, 0
12, 172560, Note_on_c, 10, 83, 84
12, 172611, Note_on_c, 10, 83, 0
12, 172620, Note_on_c, 10, 83, 84
12, 172671, Note_on_c, 10, 83, 0
12, 172680, Note_on_c, 10, 83, 84
12, 172731, Note_on_c, 10, 83, 0
12, 172740, Note_on_c, 10, 83, 84
12, 172791, Note_on_c, 10, 83, 0
12, 172800, Note_on_c, 10, 83, 84
12, 172851, Note_on_c, 10, 83, 0
12, 172860, Note_on_c, 10, 83, 84
12, 172911, Note_on_c, 10, 83, 0
12, 172920, Note_on_c, 10, 83, 84
12, 172971, Note_on_c, 10, 83, 0
12, 172980, Note_on_c, 10, 83, 84
12, 173031, Note_on_c, 10, 83, 0
12, 173040, Note_on_c, 10, 83, 84
12, 173091, Note_on_c, 10, 83, 0
12, 173100, Note_on_c, 10, 83, 84
12, 173151, Note_on_c, 10, 83, 0
12, 173160, Note_on_c, 10, 83, 84
12, 173211, Note_on_c, 10, 83, 0
12, 173220, Note_on_c, 10, 83, 84
12, 173271, Note_on_c, 10, 83, 0
12, 173280, Note_on_c, 10, 83, 84
12, 173331, Note_on_c, 10, 83, 0
12, 173340, Note_on_c, 10, 83, 84
12, 173391, Note_on_c, 10, 83, 0
12, 173400, Note_on_c, 10, 83, 84
12, 173451, Note_on_c, 10, 83, 0
12, 173460, Note_on_c, 10, 83, 84
12, 173511, Note_on_c, 10, 83, 0
12, 173520, Note_on_c, 10, 83, 84
12, 173571, Note_on_c, 10, 83, 0
12, 173580, Note_on_c, 10, 83, 84
12, 173631, Note_on_c, 10, 83, 0
12, 173640, Note_on_c, 10, 83, 84
12, 173691, Note_on_c, 10, 83, 0
12, 173700, Note_on_c, 10, 83, 84
12, 173751, Note_on_c, 10, 83, 0
12, 173760, Note_on_c, 10, 83, 84
12, 173879, Note_on_c, 10, 83, 0
12, 174240, Note_on_c, 10, 76, 84
12, 174329, Note_on_c, 10, 76, 0
12, 174360, Note_on_c, 10, 71, 84
12, 174419, Note_on_c, 10, 71, 0
12, 174420, Note_on_c, 10, 69, 84
12, 174471, Note_on_c, 10, 69, 0
12, 174480, Note_on_c, 10, 68, 84
12, 174569, Note_on_c, 10, 68, 0
12, 174600, Note_on_c, 10, 64, 84
12, 174689, Note_on_c, 10, 64, 0
12, 175200, Note_on_c, 10, 80, 84
12, 175289, Note_on_c, 10, 80, 0
12, 175320, Note_on_c, 10, 78, 84
12, 175379, Note_on_c, 10, 78, 0
12, 175380, Note_on_c, 10, 76, 84
12, 175431, Note_on_c, 10, 76, 0
12, 175440, Note_on_c, 10, 71, 84
12, 175529, Note_on_c, 10, 71, 0
12, 175560, Note_on_c, 10, 68, 84
12, 175649, Note_on_c, 10, 68, 0
12, 176160, Note_on_c, 10, 83, 76
12, 176249, Note_on_c, 10, 83, 0
12, 176280, Note_on_c, 10, 81, 74
12, 176339, Note_on_c, 10, 81, 0
12, 176340, Note_on_c, 10, 80, 73
12, 176391, Note_on_c, 10, 80, 0
12, 176400, Note_on_c, 10, 76, 72
12, 176489, Note_on_c, 10, 76, 0
12, 176520, Note_on_c, 10, 71, 70
12, 176609, Note_on_c, 10, 71, 0
12, 176640, Note_on_c, 10, 83, 68
12, 176729, Note_on_c, 10, 83, 0
12, 176760, Note_on_c, 10, 81, 66
12, 176819, Note_on_c, 10, 81, 0
12, 176820, Note_on_c, 10, 80, 65
12, 176871, Note_on_c, 10, 80, 0
12, 176880, Note_on_c, 10, 76, 64
12, 176969, Note_on_c, 10, 76, 0
12, 177000, Note_on_c, 10, 71, 62
12, 177089, Note_on_c, 10, 71, 0
12, 177120, Note_on_c, 10, 83, 60
12, 177209, Note_on_c, 10, 83, 0
12, 177240, Note_on_c, 10, 81, 58
12, 177299, Note_on_c, 10, 81, 0
12, 177300, Note_on_c, 10, 80, 57
12, 177351, Note_on_c, 10, 80, 0
12, 177360, Note_on_c, 10, 76, 56
12, 177449, Note_on_c, 10, 76, 0
12, 177480, Note_on_c, 10, 71, 54
12, 177569, Note_on_c, 10, 71, 0
12, 177840, Note_on_c, 10, 76, 52
12, 177929, Note_on_c, 10, 76, 0
12, 177960, Note_on_c, 10, 71, 52
12, 178049, Note_on_c, 10, 71, 0
12, 178320, Note_on_c, 10, 76, 52
12, 178409, Note_on_c, 10, 76, 0
12, 178440, Note_on_c, 10, 71, 52
12, 178529, Note_on_c, 10, 71, 0
12, 178560, Note_on_c, 10, 76, 52
12, 178649, Note_on_c, 10, 76, 0
12, 178680, Note_on_c, 10, 71, 52
12, 178769, Note_on_c, 10, 71, 0
12, 178800, Note_on_c, 10, 76, 52
12, 178889, Note_on_c, 10, 76, 0
12, 178920, Note_on_c, 10, 71, 52
12, 179009, Note_on_c, 10, 71, 0
12, 179040, Note_on_c, 10, 76, 52
12, 179129, Note_on_c, 10, 76, 0
12, 179160, Note_on_c, 10, 71, 52
12, 179249, Note_on_c, 10, 71, 0
12, 179280, Note_on_c, 10, 76, 52
12, 179369, Note_on_c, 10, 76, 0
12, 179400, Note_on_c, 10, 71, 52
12, 179489, Note_on_c, 10, 71, 0
12, 179640, Note_on_c, 10, 73, 52
12, 179729, Note_on_c, 10, 73, 0
12, 179760, Note_on_c, 10, 74, 52
12, 179849, Note_on_c, 10, 74, 0
12, 179880, Note_on_c, 10, 78, 52
12, 179969, Note_on_c, 10, 78, 0
12, 180000, Note_on_c, 10, 76, 52
12, 180119, Note_on_c, 10, 76, 0
12, 180120, Note_on_c, 10, 74, 52
12, 180179, Note_on_c, 10, 74, 0
12, 180180, Note_on_c, 10, 73, 52
12, 180231, Note_on_c, 10, 73, 0
12, 180240, Note_on_c, 10, 71, 52
12, 180329, Note_on_c, 10, 71, 0
12, 180360, Note_on_c, 10, 64, 52
12, 180449, Note_on_c, 10, 64, 0
12, 180480, Note_on_c, 10, 69, 52
12, 180569, Note_on_c, 10, 69, 0
12, 180600, Note_on_c, 10, 71, 52
12, 180689, Note_on_c, 10, 71, 0
12, 180720, Note_on_c, 10, 73, 52
12, 180839, Note_on_c, 10, 73, 0
12, 180840, Note_on_c, 10, 74, 52
12, 180899, Note_on_c, 10, 74, 0
12, 180900, Note_on_c, 10, 73, 52
12, 180951, Note_on_c, 10, 73, 0
12, 180960, Note_on_c, 10, 71, 52
12, 181424, Note_on_c, 10, 71, 0
12, 181440, Note_on_c, 10, 73, 52
12, 181529, Note_on_c, 10, 73, 0
12, 181560, Note_on_c, 10, 71, 52
12, 181649, Note_on_c, 10, 71, 0
12, 181680, Note_on_c, 10, 69, 52
12, 181799, Note_on_c, 10, 69, 0
12, 181800, Note_on_c, 10, 68, 52
12, 181859, Note_on_c, 10, 68, 0
12, 181860, Note_on_c, 10, 69, 52
12, 181911, Note_on_c, 10, 69, 0
12, 181920, Note_on_c, 10, 74, 52
12, 182009, Note_on_c, 10, 74, 0
12, 182040, Note_on_c, 10, 73, 52
12, 182129, Note_on_c, 10, 73, 0
12, 182160, Note_on_c, 10, 71, 52
12, 182279, Note_on_c, 10, 71, 0
12, 182280, Note_on_c, 10, 69, 52
12, 182339, Note_on_c, 10, 69, 0
12, 182340, Note_on_c, 10, 71, 52
12, 182391, Note_on_c, 10, 71, 0
12, 182400, Note_on_c, 10, 73, 52
12, 182519, Note_on_c, 10, 73, 0
12, 184320, Note_on_c, 10, 57, 52
12, 184371, Note_on_c, 10, 57, 0
12, 184380, Note_on_c, 10, 61, 52
12, 184431, Note_on_c, 10, 61, 0
12, 184440, Note_on_c, 10, 69, 52
12, 184491, Note_on_c, 10, 69, 0
12, 184500, Note_on_c, 10, 69, 52
12, 184551, Note_on_c, 10, 69, 0
12, 184560, Note_on_c, 10, 61, 52
12, 184611, Note_on_c, 10, 61, 0
12, 184620, Note_on_c, 10, 64, 52
12, 184671, Note_on_c, 10, 64, 0
12, 184680, Note_on_c, 10, 69, 52
12, 184731, Note_on_c, 10, 69, 0
12, 184740, Note_on_c, 10, 69, 52
12, 184791, Note_on_c, 10, 69, 0
12, 184800, Note_on_c, 10, 59, 52
12, 184851, Note_on_c, 10, 59, 0
12, 184860, Note_on_c, 10, 62, 52
12, 184911, Note_on_c, 10, 62, 0
12, 184920, Note_on_c, 10, 69, 52
12, 184971, Note_on_c, 10, 69, 0
12, 184980, Note_on_c, 10, 69, 52
12, 185031, Note_on_c, 10, 69, 0
12, 185040, Note_on_c, 10, 62, 52
12, 185091, Note_on_c, 10, 62, 0
12, 185100, Note_on_c, 10, 69, 52
12, 185151, Note_on_c, 10, 69, 0
12, 185160, Note_on_c, 10, 61, 52
12, 185211, Note_on_c, 10, 61, 0
12, 185220, Note_on_c, 10, 69, 52
12, 185271, Note_on_c, 10, 69, 0
12, 185280, Note_on_c, 10, 57, 52
12, 185331, Note_on_c, 10, 57, 0
12, 185340, Note_on_c, 10, 66, 52
12, 185391, Note_on_c, 10, 66, 0
12, 185400, Note_on_c, 10, 69, 52
12, 185451, Note_on_c, 10, 69, 0
12, 185460, Note_on_c, 10, 69, 52
12, 185511, Note_on_c, 10, 69, 0
12, 185520, Note_on_c, 10, 57, 52
12, 185571, Note_on_c, 10, 57, 0
12, 185580, Note_on_c, 10, 64, 52
12, 185631, Note_on_c, 10, 64, 0
12, 185640, Note_on_c, 10, 69, 52
12, 185691, Note_on_c, 10, 69, 0
12, 185700, Note_on_c, 10, 69, 52
12, 185751, Note_on_c, 10, 69, 0
12, 185760, Note_on_c, 10, 62, 52
12, 185811, Note_on_c, 10, 62, 0
12, 185820, Note_on_c, 10, 69, 52
12, 185871, Note_on_c, 10, 69, 0
12, 185880, Note_on_c, 10, 57, 52
12, 185931, Note_on_c, 10, 57, 0
12, 185940, Note_on_c, 10, 69, 52
12, 185991, Note_on_c, 10, 69, 0
12, 186000, Note_on_c, 10, 57, 52
12, 186051, Note_on_c, 10, 57, 0
12, 186060, Note_on_c, 10, 69, 52
12, 186111, Note_on_c, 10, 69, 0
12, 186120, Note_on_c, 10, 57, 52
12, 186171, Note_on_c, 10, 57, 0
12, 186180, Note_on_c, 10, 69, 52
12, 186231, Note_on_c, 10, 69, 0
12, 186240, Note_on_c, 10, 57, 52
12, 186291, Note_on_c, 10, 57, 0
12, 186300, Note_on_c, 10, 64, 52
12, 186351, Note_on_c, 10, 64, 0
12, 186360, Note_on_c, 10, 69, 52
12, 186411, Note_on_c, 10, 69, 0
12, 186420, Note_on_c, 10, 69, 52
12, 186471, Note_on_c, 10, 69, 0
12, 186480, Note_on_c, 10, 57, 52
12, 186531, Note_on_c, 10, 57, 0
12, 186540, Note_on_c, 10, 67, 52
12, 186591, Note_on_c, 10, 67, 0
12, 186600, Note_on_c, 10, 69, 52
12, 186651, Note_on_c, 10, 69, 0
12, 186660, Note_on_c, 10, 69, 52
12, 186711, Note_on_c, 10, 69, 0
12, 186720, Note_on_c, 10, 57, 52
12, 186771, Note_on_c, 10, 57, 0
12, 186780, Note_on_c, 10, 66, 52
12, 186831, Note_on_c, 10, 66, 0
12, 186840, Note_on_c, 10, 69, 52
12, 186891, Note_on_c, 10, 69, 0
12, 186900, Note_on_c, 10, 69, 52
12, 186951, Note_on_c, 10, 69, 0
12, 186960, Note_on_c, 10, 57, 52
12, 187011, Note_on_c, 10, 57, 0
12, 187020, Note_on_c, 10, 69, 52
12, 187071, Note_on_c, 10, 69, 0
12, 187080, Note_on_c, 10, 57, 52
12, 187131, Note_on_c, 10, 57, 0
12, 187140, Note_on_c, 10, 69, 52
12, 187191, Note_on_c, 10, 69, 0
12, 187200, Note_on_c, 10, 57, 52
12, 187251, Note_on_c, 10, 57, 0
12, 187260, Note_on_c, 10, 66, 52
12, 187311, Note_on_c, 10, 66, 0
12, 187320, Note_on_c, 10, 69, 52
12, 187371, Note_on_c, 10, 69, 0
12, 187380, Note_on_c, 10, 69, 52
12, 187431, Note_on_c, 10, 69, 0
12, 187440, Note_on_c, 10, 57, 52
12, 187491, Note_on_c, 10, 57, 0
12, 187500, Note_on_c, 10, 67, 52
12, 187551, Note_on_c, 10, 67, 0
12, 187560, Note_on_c, 10, 69, 52
12, 187611, Note_on_c, 10, 69, 0
12, 187620, Note_on_c, 10, 69, 52
12, 187671, Note_on_c, 10, 69, 0
12, 187680, Note_on_c, 10, 57, 52
12, 187731, Note_on_c, 10, 57, 0
12, 187740, Note_on_c, 10, 69, 52
12, 187791, Note_on_c, 10, 69, 0
12, 187800, Note_on_c, 10, 62, 52
12, 187851, Note_on_c, 10, 62, 0
12, 187860, Note_on_c, 10, 74, 52
12, 187911, Note_on_c, 10, 74, 0
12, 187920, Note_on_c, 10, 62, 52
12, 187971, Note_on_c, 10, 62, 0
12, 187980, Note_on_c, 10, 74, 52
12, 188031, Note_on_c, 10, 74, 0
12, 188040, Note_on_c, 10, 62, 52
12, 188091, Note_on_c, 10, 62, 0
12, 188100, Note_on_c, 10, 74, 52
12, 188151, Note_on_c, 10, 74, 0
12, 188160, Note_on_c, 10, 66, 68
12, 188219, Note_on_c, 10, 66, 0
12, 188220, Note_on_c, 10, 66, 52
12, 188399, Note_on_c, 10, 66, 0
12, 188400, Note_on_c, 10, 69, 52
12, 188639, Note_on_c, 10, 69, 0
12, 188640, Note_on_c, 10, 67, 52
12, 188999, Note_on_c, 10, 67, 0
12, 189000, Note_on_c, 10, 66, 52
12, 189104, Note_on_c, 10, 66, 0
12, 189120, Note_on_c, 10, 70, 68
12, 189179, Note_on_c, 10, 70, 0
12, 189180, Note_on_c, 10, 70, 52
12, 189359, Note_on_c, 10, 70, 0
12, 189360, Note_on_c, 10, 69, 52
12, 189584, Note_on_c, 10, 69, 0
12, 189600, Note_on_c, 10, 67, 52
12, 189689, Note_on_c, 10, 67, 0
12, 189720, Note_on_c, 10, 67, 52
12, 189779, Note_on_c, 10, 67, 0
12, 189780, Note_on_c, 10, 69, 52
12, 189839, Note_on_c, 10, 69, 0
12, 189840, Note_on_c, 10, 70, 52
12, 189959, Note_on_c, 10, 70, 0
12, 189960, Note_on_c, 10, 67, 52
12, 190064, Note_on_c, 10, 67, 0
12, 190080, Note_on_c, 10, 69, 68
12, 190139, Note_on_c, 10, 69, 0
12, 190140, Note_on_c, 10, 69, 52
12, 190319, Note_on_c, 10, 69, 0
12, 190320, Note_on_c, 10, 72, 52
12, 190559, Note_on_c, 10, 72, 0
12, 190560, Note_on_c, 10, 70, 52
12, 190919, Note_on_c, 10, 70, 0
12, 190920, Note_on_c, 10, 69, 52
12, 191024, Note_on_c, 10, 69, 0
12, 191040, Note_on_c, 10, 74, 68
12, 191099, Note_on_c, 10, 74, 0
12, 191100, Note_on_c, 10, 74, 52
12, 191279, Note_on_c, 10, 74, 0
12, 191280, Note_on_c, 10, 72, 52
12, 191504, Note_on_c, 10, 72, 0
12, 191520, Note_on_c, 10, 71, 52
12, 191609, Note_on_c, 10, 71, 0
12, 191640, Note_on_c, 10, 71, 52
12, 191699, Note_on_c, 10, 71, 0
12, 191700, Note_on_c, 10, 72, 52
12, 191759, Note_on_c, 10, 72, 0
12, 191760, Note_on_c, 10, 74, 52
12, 191879, Note_on_c, 10, 74, 0
12, 191880, Note_on_c, 10, 71, 52
12, 191984, Note_on_c, 10, 71, 0
12, 192000, Note_on_c, 10, 72, 84
12, 192000, Note_on_c, 10, 84, 84
12, 192051, Note_on_c, 10, 72, 0
12, 192051, Note_on_c, 10, 84, 0
12, 192060, Note_on_c, 10, 72, 84
12, 192060, Note_on_c, 10, 84, 84
12, 192111, Note_on_c, 10, 72, 0
12, 192111, Note_on_c, 10, 84, 0
12, 192120, Note_on_c, 10, 72, 84
12, 192120, Note_on_c, 10, 84, 84
12, 192171, Note_on_c, 10, 72, 0
12, 192171, Note_on_c, 10, 84, 0
12, 192180, Note_on_c, 10, 84, 84
12, 192180, Note_on_c, 10, 72, 84
12, 192231, Note_on_c, 10, 84, 0
12, 192231, Note_on_c, 10, 72, 0
12, 192240, Note_on_c, 10, 72, 84
12, 192240, Note_on_c, 10, 84, 84
12, 192291, Note_on_c, 10, 72, 0
12, 192291, Note_on_c, 10, 84, 0
12, 192300, Note_on_c, 10, 84, 84
12, 192300, Note_on_c, 10, 72, 84
12, 192351, Note_on_c, 10, 84, 0
12, 192351, Note_on_c, 10, 72, 0
12, 192360, Note_on_c, 10, 84, 84
12, 192360, Note_on_c, 10, 72, 84
12, 192411, Note_on_c, 10, 84, 0
12, 192411, Note_on_c, 10, 72, 0
12, 192420, Note_on_c, 10, 84, 84
12, 192420, Note_on_c, 10, 72, 84
12, 192471, Note_on_c, 10, 84, 0
12, 192471, Note_on_c, 10, 72, 0
12, 192480, Note_on_c, 10, 72, 84
12, 192480, Note_on_c, 10, 84, 84
12, 192531, Note_on_c, 10, 72, 0
12, 192531, Note_on_c, 10, 84, 0
12, 192540, Note_on_c, 10, 72, 84
12, 192540, Note_on_c, 10, 84, 84
12, 192591, Note_on_c, 10, 72, 0
12, 192591, Note_on_c, 10, 84, 0
12, 192600, Note_on_c, 10, 84, 84
12, 192600, Note_on_c, 10, 72, 84
12, 192651, Note_on_c, 10, 84, 0
12, 192651, Note_on_c, 10, 72, 0
12, 192660, Note_on_c, 10, 72, 84
12, 192660, Note_on_c, 10, 84, 84
12, 192711, Note_on_c, 10, 72, 0
12, 192711, Note_on_c, 10, 84, 0
12, 192720, Note_on_c, 10, 84, 84
12, 192720, Note_on_c, 10, 72, 84
12, 192771, Note_on_c, 10, 84, 0
12, 192771, Note_on_c, 10, 72, 0
12, 192780, Note_on_c, 10, 84, 84
12, 192780, Note_on_c, 10, 72, 84
12, 192831, Note_on_c, 10, 84, 0
12, 192831, Note_on_c, 10, 72, 0
12, 192840, Note_on_c, 10, 72, 84
12, 192840, Note_on_c, 10, 84, 84
12, 192891, Note_on_c, 10, 72, 0
12, 192891, Note_on_c, 10, 84, 0
12, 192900, Note_on_c, 10, 84, 84
12, 192900, Note_on_c, 10, 72, 84
12, 192951, Note_on_c, 10, 84, 0
12, 192951, Note_on_c, 10, 72, 0
12, 192960, Note_on_c, 10, 84, 92
12, 192960, Note_on_c, 10, 72, 92
12, 193011, Note_on_c, 10, 84, 0
12, 193011, Note_on_c, 10, 72, 0
12, 193020, Note_on_c, 10, 72, 84
12, 193020, Note_on_c, 10, 84, 84
12, 193071, Note_on_c, 10, 72, 0
12, 193071, Note_on_c, 10, 84, 0
12, 193080, Note_on_c, 10, 84, 84
12, 193080, Note_on_c, 10, 72, 84
12, 193131, Note_on_c, 10, 84, 0
12, 193131, Note_on_c, 10, 72, 0
12, 193140, Note_on_c, 10, 72, 84
12, 193140, Note_on_c, 10, 84, 84
12, 193191, Note_on_c, 10, 72, 0
12, 193191, Note_on_c, 10, 84, 0
12, 193200, Note_on_c, 10, 84, 84
12, 193200, Note_on_c, 10, 72, 84
12, 193251, Note_on_c, 10, 84, 0
12, 193251, Note_on_c, 10, 72, 0
12, 193260, Note_on_c, 10, 84, 84
12, 193260, Note_on_c, 10, 72, 84
12, 193311, Note_on_c, 10, 84, 0
12, 193311, Note_on_c, 10, 72, 0
12, 193320, Note_on_c, 10, 84, 84
12, 193320, Note_on_c, 10, 72, 84
12, 193371, Note_on_c, 10, 84, 0
12, 193371, Note_on_c, 10, 72, 0
12, 193380, Note_on_c, 10, 84, 84
12, 193380, Note_on_c, 10, 72, 84
12, 193431, Note_on_c, 10, 84, 0
12, 193431, Note_on_c, 10, 72, 0
12, 193440, Note_on_c, 10, 72, 84
12, 193440, Note_on_c, 10, 84, 84
12, 193491, Note_on_c, 10, 72, 0
12, 193491, Note_on_c, 10, 84, 0
12, 193500, Note_on_c, 10, 72, 84
12, 193500, Note_on_c, 10, 84, 84
12, 193551, Note_on_c, 10, 72, 0
12, 193551, Note_on_c, 10, 84, 0
12, 193560, Note_on_c, 10, 72, 84
12, 193560, Note_on_c, 10, 84, 84
12, 193611, Note_on_c, 10, 72, 0
12, 193611, Note_on_c, 10, 84, 0
12, 193620, Note_on_c, 10, 84, 84
12, 193620, Note_on_c, 10, 72, 84
12, 193671, Note_on_c, 10, 84, 0
12, 193671, Note_on_c, 10, 72, 0
12, 193680, Note_on_c, 10, 84, 84
12, 193680, Note_on_c, 10, 72, 84
12, 193731, Note_on_c, 10, 84, 0
12, 193731, Note_on_c, 10, 72, 0
12, 193740, Note_on_c, 10, 72, 84
12, 193740, Note_on_c, 10, 84, 84
12, 193791, Note_on_c, 10, 72, 0
12, 193791, Note_on_c, 10, 84, 0
12, 193800, Note_on_c, 10, 72, 84
12, 193800, Note_on_c, 10, 84, 84
12, 193851, Note_on_c, 10, 72, 0
12, 193851, Note_on_c, 10, 84, 0
12, 193860, Note_on_c, 10, 72, 84
12, 193860, Note_on_c, 10, 84, 84
12, 193911, Note_on_c, 10, 72, 0
12, 193911, Note_on_c, 10, 84, 0
12, 193920, Note_on_c, 10, 84, 92
12, 193920, Note_on_c, 10, 72, 92
12, 193971, Note_on_c, 10, 84, 0
12, 193971, Note_on_c, 10, 72, 0
12, 193980, Note_on_c, 10, 72, 84
12, 193980, Note_on_c, 10, 84, 84
12, 194031, Note_on_c, 10, 72, 0
12, 194031, Note_on_c, 10, 84, 0
12, 194040, Note_on_c, 10, 84, 84
12, 194040, Note_on_c, 10, 72, 84
12, 194091, Note_on_c, 10, 84, 0
12, 194091, Note_on_c, 10, 72, 0
12, 194100, Note_on_c, 10, 72, 84
12, 194100, Note_on_c, 10, 84, 84
12, 194151, Note_on_c, 10, 72, 0
12, 194151, Note_on_c, 10, 84, 0
12, 194160, Note_on_c, 10, 84, 84
12, 194160, Note_on_c, 10, 72, 84
12, 194211, Note_on_c, 10, 84, 0
12, 194211, Note_on_c, 10, 72, 0
12, 194220, Note_on_c, 10, 84, 84
12, 194220, Note_on_c, 10, 72, 84
12, 194271, Note_on_c, 10, 84, 0
12, 194271, Note_on_c, 10, 72, 0
12, 194280, Note_on_c, 10, 84, 84
12, 194280, Note_on_c, 10, 72, 84
12, 194331, Note_on_c, 10, 84, 0
12, 194331, Note_on_c, 10, 72, 0
12, 194340, Note_on_c, 10, 72, 84
12, 194340, Note_on_c, 10, 84, 84
12, 194391, Note_on_c, 10, 72, 0
12, 194391, Note_on_c, 10, 84, 0
12, 194400, Note_on_c, 10, 72, 84
12, 194400, Note_on_c, 10, 84, 84
12, 194451, Note_on_c, 10, 72, 0
12, 194451, Note_on_c, 10, 84, 0
12, 194460, Note_on_c, 10, 72, 84
12, 194460, Note_on_c, 10, 84, 84
12, 194511, Note_on_c, 10, 72, 0
12, 194511, Note_on_c, 10, 84, 0
12, 194520, Note_on_c, 10, 84, 84
12, 194520, Note_on_c, 10, 72, 84
12, 194571, Note_on_c, 10, 84, 0
12, 194571, Note_on_c, 10, 72, 0
12, 194580, Note_on_c, 10, 72, 84
12, 194580, Note_on_c, 10, 84, 84
12, 194631, Note_on_c, 10, 72, 0
12, 194631, Note_on_c, 10, 84, 0
12, 194640, Note_on_c, 10, 84, 84
12, 194640, Note_on_c, 10, 72, 84
12, 194691, Note_on_c, 10, 84, 0
12, 194691, Note_on_c, 10, 72, 0
12, 194700, Note_on_c, 10, 72, 84
12, 194700, Note_on_c, 10, 84, 84
12, 194751, Note_on_c, 10, 72, 0
12, 194751, Note_on_c, 10, 84, 0
12, 194760, Note_on_c, 10, 84, 84
12, 194760, Note_on_c, 10, 72, 84
12, 194811, Note_on_c, 10, 84, 0
12, 194811, Note_on_c, 10, 72, 0
12, 194820, Note_on_c, 10, 84, 84
12, 194820, Note_on_c, 10, 72, 84
12, 194871, Note_on_c, 10, 84, 0
12, 194871, Note_on_c, 10, 72, 0
12, 194880, Note_on_c, 10, 72, 92
12, 194880, Note_on_c, 10, 84, 92
12, 194931, Note_on_c, 10, 72, 0
12, 194931, Note_on_c, 10, 84, 0
12, 194940, Note_on_c, 10, 72, 84
12, 194940, Note_on_c, 10, 84, 84
12, 194991, Note_on_c, 10, 72, 0
12, 194991, Note_on_c, 10, 84, 0
12, 195000, Note_on_c, 10, 72, 84
12, 195000, Note_on_c, 10, 84, 84
12, 195051, Note_on_c, 10, 72, 0
12, 195051, Note_on_c, 10, 84, 0
12, 195060, Note_on_c, 10, 72, 84
12, 195060, Note_on_c, 10, 84, 84
12, 195111, Note_on_c, 10, 72, 0
12, 195111, Note_on_c, 10, 84, 0
12, 195120, Note_on_c, 10, 72, 84
12, 195120, Note_on_c, 10, 84, 84
12, 195171, Note_on_c, 10, 72, 0
12, 195171, Note_on_c, 10, 84, 0
12, 195180, Note_on_c, 10, 84, 84
12, 195180, Note_on_c, 10, 72, 84
12, 195231, Note_on_c, 10, 84, 0
12, 195231, Note_on_c, 10, 72, 0
12, 195240, Note_on_c, 10, 72, 84
12, 195240, Note_on_c, 10, 84, 84
12, 195291, Note_on_c, 10, 72, 0
12, 195291, Note_on_c, 10, 84, 0
12, 195300, Note_on_c, 10, 72, 84
12, 195300, Note_on_c, 10, 84, 84
12, 195351, Note_on_c, 10, 72, 0
12, 195351, Note_on_c, 10, 84, 0
12, 195360, Note_on_c, 10, 72, 84
12, 195360, Note_on_c, 10, 84, 84
12, 195411, Note_on_c, 10, 72, 0
12, 195411, Note_on_c, 10, 84, 0
12, 195420, Note_on_c, 10, 84, 84
12, 195420, Note_on_c, 10, 72, 84
12, 195471, Note_on_c, 10, 84, 0
12, 195471, Note_on_c, 10, 72, 0
12, 195480, Note_on_c, 10, 72, 84
12, 195480, Note_on_c, 10, 84, 84
12, 195531, Note_on_c, 10, 72, 0
12, 195531, Note_on_c, 10, 84, 0
12, 195540, Note_on_c, 10, 72, 84
12, 195540, Note_on_c, 10, 84, 84
12, 195591, Note_on_c, 10, 72, 0
12, 195591, Note_on_c, 10, 84, 0
12, 195600, Note_on_c, 10, 72, 84
12, 195600, Note_on_c, 10, 84, 84
12, 195651, Note_on_c, 10, 72, 0
12, 195651, Note_on_c, 10, 84, 0
12, 195660, Note_on_c, 10, 84, 84
12, 195660, Note_on_c, 10, 72, 84
12, 195711, Note_on_c, 10, 84, 0
12, 195711, Note_on_c, 10, 72, 0
12, 195720, Note_on_c, 10, 72, 84
12, 195720, Note_on_c, 10, 84, 84
12, 195771, Note_on_c, 10, 72, 0
12, 195771, Note_on_c, 10, 84, 0
12, 195780, Note_on_c, 10, 72, 84
12, 195780, Note_on_c, 10, 84, 84
12, 195831, Note_on_c, 10, 72, 0
12, 195831, Note_on_c, 10, 84, 0
12, 195840, Note_on_c, 10, 72, 92
12, 195840, Note_on_c, 10, 84, 92
12, 195891, Note_on_c, 10, 72, 0
12, 195891, Note_on_c, 10, 84, 0
12, 195900, Note_on_c, 10, 72, 84
12, 195900, Note_on_c, 10, 84, 84
12, 195951, Note_on_c, 10, 72, 0
12, 195951, Note_on_c, 10, 84, 0
12, 195960, Note_on_c, 10, 72, 84
12, 195960, Note_on_c, 10, 84, 84
12, 196011, Note_on_c, 10, 72, 0
12, 196011, Note_on_c, 10, 84, 0
12, 196020, Note_on_c, 10, 72, 84
12, 196020, Note_on_c, 10, 84, 84
12, 196071, Note_on_c, 10, 72, 0
12, 196071, Note_on_c, 10, 84, 0
12, 196080, Note_on_c, 10, 72, 84
12, 196080, Note_on_c, 10, 84, 84
12, 196131, Note_on_c, 10, 72, 0
12, 196131, Note_on_c, 10, 84, 0
12, 196140, Note_on_c, 10, 72, 84
12, 196140, Note_on_c, 10, 84, 84
12, 196191, Note_on_c, 10, 72, 0
12, 196191, Note_on_c, 10, 84, 0
12, 196200, Note_on_c, 10, 72, 84
12, 196200, Note_on_c, 10, 84, 84
12, 196251, Note_on_c, 10, 72, 0
12, 196251, Note_on_c, 10, 84, 0
12, 196260, Note_on_c, 10, 72, 84
12, 196260, Note_on_c, 10, 84, 84
12, 196311, Note_on_c, 10, 72, 0
12, 196311, Note_on_c, 10, 84, 0
12, 196320, Note_on_c, 10, 84, 84
12, 196320, Note_on_c, 10, 72, 84
12, 196371, Note_on_c, 10, 84, 0
12, 196371, Note_on_c, 10, 72, 0
12, 196380, Note_on_c, 10, 72, 84
12, 196380, Note_on_c, 10, 84, 84
12, 196431, Note_on_c, 10, 72, 0
12, 196431, Note_on_c, 10, 84, 0
12, 196440, Note_on_c, 10, 72, 84
12, 196440, Note_on_c, 10, 84, 84
12, 196491, Note_on_c, 10, 72, 0
12, 196491, Note_on_c, 10, 84, 0
12, 196500, Note_on_c, 10, 72, 84
12, 196500, Note_on_c, 10, 84, 84
12, 196551, Note_on_c, 10, 72, 0
12, 196551, Note_on_c, 10, 84, 0
12, 196560, Note_on_c, 10, 72, 84
12, 196560, Note_on_c, 10, 84, 84
12, 196611, Note_on_c, 10, 72, 0
12, 196611, Note_on_c, 10, 84, 0
12, 196620, Note_on_c, 10, 72, 84
12, 196620, Note_on_c, 10, 84, 84
12, 196671, Note_on_c, 10, 72, 0
12, 196671, Note_on_c, 10, 84, 0
12, 196680, Note_on_c, 10, 72, 84
12, 196680, Note_on_c, 10, 84, 84
12, 196731, Note_on_c, 10, 72, 0
12, 196731, Note_on_c, 10, 84, 0
12, 196740, Note_on_c, 10, 84, 84
12, 196740, Note_on_c, 10, 72, 84
12, 196791, Note_on_c, 10, 84, 0
12, 196791, Note_on_c, 10, 72, 0
12, 196800, Note_on_c, 10, 84, 92
12, 196800, Note_on_c, 10, 72, 92
12, 196851, Note_on_c, 10, 84, 0
12, 196851, Note_on_c, 10, 72, 0
12, 196860, Note_on_c, 10, 84, 84
12, 196860, Note_on_c, 10, 72, 84
12, 196911, Note_on_c, 10, 84, 0
12, 196911, Note_on_c, 10, 72, 0
12, 196920, Note_on_c, 10, 72, 84
12, 196920, Note_on_c, 10, 84, 84
12, 196971, Note_on_c, 10, 72, 0
12, 196971, Note_on_c, 10, 84, 0
12, 196980, Note_on_c, 10, 84, 84
12, 196980, Note_on_c, 10, 72, 84
12, 197031, Note_on_c, 10, 84, 0
12, 197031, Note_on_c, 10, 72, 0
12, 197040, Note_on_c, 10, 72, 84
12, 197040, Note_on_c, 10, 84, 84
12, 197091, Note_on_c, 10, 72, 0
12, 197091, Note_on_c, 10, 84, 0
12, 197100, Note_on_c, 10, 72, 84
12, 197100, Note_on_c, 10, 84, 84
12, 197151, Note_on_c, 10, 72, 0
12, 197151, Note_on_c, 10, 84, 0
12, 197160, Note_on_c, 10, 72, 84
12, 197160, Note_on_c, 10, 84, 84
12, 197211, Note_on_c, 10, 72, 0
12, 197211, Note_on_c, 10, 84, 0
12, 197220, Note_on_c, 10, 72, 84
12, 197220, Note_on_c, 10, 84, 84
12, 197271, Note_on_c, 10, 72, 0
12, 197271, Note_on_c, 10, 84, 0
12, 197280, Note_on_c, 10, 84, 84
12, 197280, Note_on_c, 10, 72, 84
12, 197331, Note_on_c, 10, 84, 0
12, 197331, Note_on_c, 10, 72, 0
12, 197340, Note_on_c, 10, 84, 84
12, 197340, Note_on_c, 10, 72, 84
12, 197391, Note_on_c, 10, 84, 0
12, 197391, Note_on_c, 10, 72, 0
12, 197400, Note_on_c, 10, 84, 84
12, 197400, Note_on_c, 10, 72, 84
12, 197451, Note_on_c, 10, 84, 0
12, 197451, Note_on_c, 10, 72, 0
12, 197460, Note_on_c, 10, 84, 84
12, 197460, Note_on_c, 10, 72, 84
12, 197511, Note_on_c, 10, 84, 0
12, 197511, Note_on_c, 10, 72, 0
12, 197520, Note_on_c, 10, 84, 84
12, 197520, Note_on_c, 10, 72, 84
12, 197571, Note_on_c, 10, 84, 0
12, 197571, Note_on_c, 10, 72, 0
12, 197580, Note_on_c, 10, 72, 84
12, 197580, Note_on_c, 10, 84, 84
12, 197631, Note_on_c, 10, 72, 0
12, 197631, Note_on_c, 10, 84, 0
12, 197640, Note_on_c, 10, 72, 84
12, 197640, Note_on_c, 10, 84, 84
12, 197691, Note_on_c, 10, 72, 0
12, 197691, Note_on_c, 10, 84, 0
12, 197700, Note_on_c, 10, 72, 84
12, 197700, Note_on_c, 10, 84, 84
12, 197751, Note_on_c, 10, 72, 0
12, 197751, Note_on_c, 10, 84, 0
12, 197760, Note_on_c, 10, 86, 76
12, 197819, Note_on_c, 10, 86, 0
12, 197820, Note_on_c, 10, 86, 52
12, 197880, Control_c, 10, 11, 127
12, 197984, Control_c, 10, 11, 126
12, 198088, Control_c, 10, 11, 125
12, 198192, Control_c, 10, 11, 124
12, 198296, Control_c, 10, 11, 123
12, 198400, Control_c, 10, 11, 122
12, 198504, Control_c, 10, 11, 121
12, 198608, Control_c, 10, 11, 120
12, 198712, Control_c, 10, 11, 119
12, 198719, Note_on_c, 10, 86, 0
12, 198720, Note_on_c, 10, 86, 52
12, 198816, Control_c, 10, 11, 118
12, 198920, Control_c, 10, 11, 117
12, 199024, Control_c, 10, 11, 116
12, 199128, Control_c, 10, 11, 115
12, 199232, Control_c, 10, 11, 114
12, 199336, Control_c, 10, 11, 112
12, 199664, Note_on_c, 10, 86, 0
12, 199678, Control_c, 10, 11, 127
12, 199680, Note_on_c, 10, 84, 44
12, 200759, Note_on_c, 10, 84, 0
12, 200760, Note_on_c, 10, 82, 44
12, 200819, Note_on_c, 10, 82, 0
12, 200820, Note_on_c, 10, 81, 44
12, 200879, Note_on_c, 10, 81, 0
12, 200880, Note_on_c, 10, 79, 44
12, 200939, Note_on_c, 10, 79, 0
12, 200940, Note_on_c, 10, 77, 44
12, 200999, Note_on_c, 10, 77, 0
12, 201000, Note_on_c, 10, 76, 44
12, 201059, Note_on_c, 10, 76, 0
12, 201060, Note_on_c, 10, 77, 44
12, 201111, Note_on_c, 10, 77, 0
12, 201120, Note_on_c, 10, 79, 44
12, 201149, Note_on_c, 10, 79, 0
12, 201150, Note_on_c, 10, 81, 44
12, 201179, Note_on_c, 10, 81, 0
12, 201180, Note_on_c, 10, 79, 44
12, 201209, Note_on_c, 10, 79, 0
12, 201210, Note_on_c, 10, 81, 44
12, 201239, Note_on_c, 10, 81, 0
12, 201240, Note_on_c, 10, 79, 44
12, 201269, Note_on_c, 10, 79, 0
12, 201270, Note_on_c, 10, 81, 44
12, 201299, Note_on_c, 10, 81, 0
12, 201300, Note_on_c, 10, 79, 44
12, 201329, Note_on_c, 10, 79, 0
12, 201330, Note_on_c, 10, 81, 44
12, 201359, Note_on_c, 10, 81, 0
12, 201360, Note_on_c, 10, 79, 44
12, 201389, Note_on_c, 10, 79, 0
12, 201390, Note_on_c, 10, 81, 44
12, 201419, Note_on_c, 10, 81, 0
12, 201420, Note_on_c, 10, 79, 44
12, 201449, Note_on_c, 10, 79, 0
12, 201450, Note_on_c, 10, 81, 44
12, 201479, Note_on_c, 10, 81, 0
12, 201480, Note_on_c, 10, 79, 44
12, 201509, Note_on_c, 10, 79, 0
12, 201510, Note_on_c, 10, 81, 44
12, 201539, Note_on_c, 10, 81, 0
12, 201540, Note_on_c, 10, 79, 44
12, 201569, Note_on_c, 10, 79, 0
12, 201570, Note_on_c, 10, 81, 44
12, 201599, Note_on_c, 10, 81, 0
12, 201600, Note_on_c, 10, 79, 44
12, 201629, Note_on_c, 10, 79, 0
12, 201630, Note_on_c, 10, 81, 44
12, 201659, Note_on_c, 10, 81, 0
12, 201660, Note_on_c, 10, 79, 44
12, 201689, Note_on_c, 10, 79, 0
12, 201690, Note_on_c, 10, 81, 44
12, 201719, Note_on_c, 10, 81, 0
12, 201720, Note_on_c, 10, 79, 44
12, 201749, Note_on_c, 10, 79, 0
12, 201750, Note_on_c, 10, 81, 44
12, 201779, Note_on_c, 10, 81, 0
12, 201780, Note_on_c, 10, 79, 44
12, 201809, Note_on_c, 10, 79, 0
12, 201810, Note_on_c, 10, 81, 44
12, 201839, Note_on_c, 10, 81, 0
12, 201840, Note_on_c, 10, 79, 44
12, 201869, Note_on_c, 10, 79, 0
12, 201870, Note_on_c, 10, 81, 44
12, 201899, Note_on_c, 10, 81, 0
12, 201900, Note_on_c, 10, 79, 44
12, 201929, Note_on_c, 10, 79, 0
12, 201930, Note_on_c, 10, 81, 44
12, 201959, Note_on_c, 10, 81, 0
12, 201960, Note_on_c, 10, 79, 44
12, 201989, Note_on_c, 10, 79, 0
12, 201990, Note_on_c, 10, 81, 44
12, 202019, Note_on_c, 10, 81, 0
12, 202020, Note_on_c, 10, 79, 44
12, 202049, Note_on_c, 10, 79, 0
12, 202050, Note_on_c, 10, 81, 44
12, 202079, Note_on_c, 10, 81, 0
12, 202080, Note_on_c, 10, 79, 44
12, 202109, Note_on_c, 10, 79, 0
12, 202110, Note_on_c, 10, 81, 44
12, 202139, Note_on_c, 10, 81, 0
12, 202140, Note_on_c, 10, 79, 44
12, 202169, Note_on_c, 10, 79, 0
12, 202170, Note_on_c, 10, 81, 44
12, 202199, Note_on_c, 10, 81, 0
12, 202200, Note_on_c, 10, 79, 44
12, 202229, Note_on_c, 10, 79, 0
12, 202230, Note_on_c, 10, 81, 44
12, 202259, Note_on_c, 10, 81, 0
12, 202260, Note_on_c, 10, 77, 44
12, 202289, Note_on_c, 10, 77, 0
12, 202290, Note_on_c, 10, 79, 44
12, 202319, Note_on_c, 10, 79, 0
12, 202320, Note_on_c, 10, 79, 44
12, 202491, Note_on_c, 10, 79, 0
12, 202500, Note_on_c, 10, 77, 44
12, 202551, Note_on_c, 10, 77, 0
12, 202560, Note_on_c, 10, 79, 44
12, 202649, Note_on_c, 10, 79, 0
12, 202680, Note_on_c, 10, 79, 44
12, 202769, Note_on_c, 10, 79, 0
12, 202800, Note_on_c, 10, 84, 44
12, 202889, Note_on_c, 10, 84, 0
12, 202920, Note_on_c, 10, 79, 44
12, 203009, Note_on_c, 10, 79, 0
12, 203040, Note_on_c, 10, 76, 44
12, 203129, Note_on_c, 10, 76, 0
12, 203160, Note_on_c, 10, 79, 44
12, 203249, Note_on_c, 10, 79, 0
12, 203280, Note_on_c, 10, 76, 44
12, 203369, Note_on_c, 10, 76, 0
12, 203400, Note_on_c, 10, 72, 44
12, 203489, Note_on_c, 10, 72, 0
12, 203520, Note_on_c, 10, 67, 44
12, 203609, Note_on_c, 10, 67, 0
12, 203640, Note_on_c, 10, 72, 44
12, 203729, Note_on_c, 10, 72, 0
12, 203760, Note_on_c, 10, 67, 44
12, 203849, Note_on_c, 10, 67, 0
12, 203880, Note_on_c, 10, 64, 44
12, 203969, Note_on_c, 10, 64, 0
12, 204000, Note_on_c, 10, 60, 44
12, 204089, Note_on_c, 10, 60, 0
12, 204120, Note_on_c, 10, 72, 44
12, 204209, Note_on_c, 10, 72, 0
12, 204240, Note_on_c, 10, 70, 44
12, 204329, Note_on_c, 10, 70, 0
12, 204360, Note_on_c, 10, 67, 44
12, 204449, Note_on_c, 10, 67, 0
12, 204480, Note_on_c, 10, 69, 44
12, 204539, Note_on_c, 10, 69, 0
12, 204560, Note_on_c, 10, 77, 44
12, 204639, Note_on_c, 10, 77, 0
12, 204640, Note_on_c, 10, 76, 44
12, 204719, Note_on_c, 10, 76, 0
12, 204720, Note_on_c, 10, 77, 44
12, 204799, Note_on_c, 10, 77, 0
12, 204800, Note_on_c, 10, 74, 44
12, 204879, Note_on_c, 10, 74, 0
12, 204880, Note_on_c, 10, 70, 44
12, 204959, Note_on_c, 10, 70, 0
12, 204960, Note_on_c, 10, 67, 44
12, 205019, Note_on_c, 10, 67, 0
12, 205040, Note_on_c, 10, 79, 44
12, 205119, Note_on_c, 10, 79, 0
12, 205120, Note_on_c, 10, 78, 44
12, 205199, Note_on_c, 10, 78, 0
12, 205200, Note_on_c, 10, 79, 44
12, 205279, Note_on_c, 10, 79, 0
12, 205280, Note_on_c, 10, 76, 44
12, 205359, Note_on_c, 10, 76, 0
12, 205360, Note_on_c, 10, 70, 44
12, 205419, Note_on_c, 10, 70, 0
12, 205440, Note_on_c, 10, 69, 44
12, 205499, Note_on_c, 10, 69, 0
12, 205520, Note_on_c, 10, 77, 44
12, 205599, Note_on_c, 10, 77, 0
12, 205600, Note_on_c, 10, 76, 44
12, 205679, Note_on_c, 10, 76, 0
12, 205680, Note_on_c, 10, 77, 44
12, 205759, Note_on_c, 10, 77, 0
12, 205760, Note_on_c, 10, 74, 44
12, 205839, Note_on_c, 10, 74, 0
12, 205840, Note_on_c, 10, 70, 44
12, 205907, Note_on_c, 10, 70, 0
12, 205920, Note_on_c, 10, 67, 44
12, 205979, Note_on_c, 10, 67, 0
12, 206000, Note_on_c, 10, 79, 44
12, 206079, Note_on_c, 10, 79, 0
12, 206080, Note_on_c, 10, 78, 44
12, 206159, Note_on_c, 10, 78, 0
12, 206160, Note_on_c, 10, 79, 44
12, 206239, Note_on_c, 10, 79, 0
12, 206240, Note_on_c, 10, 76, 44
12, 206319, Note_on_c, 10, 76, 0
12, 206320, Note_on_c, 10, 70, 44
12, 206387, Note_on_c, 10, 70, 0
12, 206400, Note_on_c, 10, 69, 44
12, 206459, Note_on_c, 10, 69, 0
12, 206480, Note_on_c, 10, 77, 45
12, 206559, Note_on_c, 10, 77, 0
12, 206560, Note_on_c, 10, 76, 46
12, 206639, Note_on_c, 10, 76, 0
12, 206640, Note_on_c, 10, 77, 48
12, 206719, Note_on_c, 10, 77, 0
12, 206720, Note_on_c, 10, 69, 49
12, 206799, Note_on_c, 10, 69, 0
12, 206800, Note_on_c, 10, 72, 50
12, 206867, Note_on_c, 10, 72, 0
12, 206880, Note_on_c, 10, 70, 52
12, 206959, Note_on_c, 10, 70, 0
12, 206960, Note_on_c, 10, 67, 53
12, 207039, Note_on_c, 10, 67, 0
12, 207040, Note_on_c, 10, 72, 54
12, 207119, Note_on_c, 10, 72, 0
12, 207120, Note_on_c, 10, 70, 56
12, 207199, Note_on_c, 10, 70, 0
12, 207200, Note_on_c, 10, 72, 57
12, 207279, Note_on_c, 10, 72, 0
12, 207280, Note_on_c, 10, 69, 58
12, 207347, Note_on_c, 10, 69, 0
12, 207360, Note_on_c, 10, 74, 60
12, 207439, Note_on_c, 10, 74, 0
12, 207440, Note_on_c, 10, 70, 61
12, 207519, Note_on_c, 10, 70, 0
12, 207520, Note_on_c, 10, 77, 62
12, 207599, Note_on_c, 10, 77, 0
12, 207600, Note_on_c, 10, 72, 64
12, 207679, Note_on_c, 10, 72, 0
12, 207680, Note_on_c, 10, 69, 65
12, 207759, Note_on_c, 10, 69, 0
12, 207760, Note_on_c, 10, 77, 66
12, 207827, Note_on_c, 10, 77, 0
12, 207840, Note_on_c, 10, 67, 68
12, 207899, Note_on_c, 10, 67, 0
12, 207920, Note_on_c, 10, 79, 66
12, 207999, Note_on_c, 10, 79, 0
12, 208000, Note_on_c, 10, 77, 63
12, 208079, Note_on_c, 10, 77, 0
12, 208080, Note_on_c, 10, 76, 60
12, 208159, Note_on_c, 10, 76, 0
12, 208160, Note_on_c, 10, 79, 58
12, 208239, Note_on_c, 10, 79, 0
12, 208240, Note_on_c, 10, 70, 55
12, 208307, Note_on_c, 10, 70, 0
12, 208320, Note_on_c, 10, 69, 52
12, 208379, Note_on_c, 10, 69, 0
12, 208400, Note_on_c, 10, 77, 52
12, 208479, Note_on_c, 10, 77, 0
12, 208480, Note_on_c, 10, 76, 52
12, 208559, Note_on_c, 10, 76, 0
12, 208560, Note_on_c, 10, 77, 52
12, 208639, Note_on_c, 10, 77, 0
12, 208640, Note_on_c, 10, 69, 52
12, 208719, Note_on_c, 10, 69, 0
12, 208720, Note_on_c, 10, 72, 52
12, 208787, Note_on_c, 10, 72, 0
12, 208800, Note_on_c, 10, 70, 52
12, 208879, Note_on_c, 10, 70, 0
12, 208880, Note_on_c, 10, 67, 52
12, 208959, Note_on_c, 10, 67, 0
12, 208960, Note_on_c, 10, 72, 52
12, 209039, Note_on_c, 10, 72, 0
12, 209040, Note_on_c, 10, 70, 52
12, 209119, Note_on_c, 10, 70, 0
12, 209120, Note_on_c, 10, 72, 52
12, 209199, Note_on_c, 10, 72, 0
12, 209200, Note_on_c, 10, 69, 52
12, 209279, Note_on_c, 10, 69, 0
12, 209280, Note_on_c, 10, 74, 52
12, 209359, Note_on_c, 10, 74, 0
12, 209360, Note_on_c, 10, 70, 52
12, 209439, Note_on_c, 10, 70, 0
12, 209440, Note_on_c, 10, 65, 52
12, 209519, Note_on_c, 10, 65, 0
12, 209520, Note_on_c, 10, 72, 52
12, 209599, Note_on_c, 10, 72, 0
12, 209600, Note_on_c, 10, 69, 52
12, 209679, Note_on_c, 10, 69, 0
12, 209680, Note_on_c, 10, 65, 52
12, 209747, Note_on_c, 10, 65, 0
12, 209760, Note_on_c, 10, 64, 52
12, 209819, Note_on_c, 10, 64, 0
12, 209840, Note_on_c, 10, 72, 52
12, 209919, Note_on_c, 10, 72, 0
12, 209920, Note_on_c, 10, 70, 52
12, 209987, Note_on_c, 10, 70, 0
12, 210000, Note_on_c, 10, 69, 51
12, 210059, Note_on_c, 10, 69, 0
12, 210080, Note_on_c, 10, 67, 51
12, 210139, Note_on_c, 10, 67, 0
12, 210160, Note_on_c, 10, 65, 51
12, 210219, Note_on_c, 10, 65, 0
12, 210240, Note_on_c, 10, 64, 50
12, 210299, Note_on_c, 10, 64, 0
12, 210320, Note_on_c, 10, 72, 50
12, 210399, Note_on_c, 10, 72, 0
12, 210400, Note_on_c, 10, 70, 50
12, 210467, Note_on_c, 10, 70, 0
12, 210480, Note_on_c, 10, 69, 49
12, 210539, Note_on_c, 10, 69, 0
12, 210560, Note_on_c, 10, 67, 49
12, 210619, Note_on_c, 10, 67, 0
12, 210640, Note_on_c, 10, 65, 49
12, 210699, Note_on_c, 10, 65, 0
12, 210720, Note_on_c, 10, 64, 48
12, 210779, Note_on_c, 10, 64, 0
12, 210800, Note_on_c, 10, 72, 48
12, 210879, Note_on_c, 10, 72, 0
12, 210880, Note_on_c, 10, 70, 48
12, 210947, Note_on_c, 10, 70, 0
12, 210960, Note_on_c, 10, 69, 47
12, 211019, Note_on_c, 10, 69, 0
12, 211040, Note_on_c, 10, 67, 47
12, 211099, Note_on_c, 10, 67, 0
12, 211120, Note_on_c, 10, 65, 47
12, 211179, Note_on_c, 10, 65, 0
12, 211200, Note_on_c, 10, 64, 46
12, 211259, Note_on_c, 10, 64, 0
12, 211280, Note_on_c, 10, 72, 46
12, 211359, Note_on_c, 10, 72, 0
12, 211360, Note_on_c, 10, 70, 46
12, 211427, Note_on_c, 10, 70, 0
12, 211440, Note_on_c, 10, 69, 45
12, 211499, Note_on_c, 10, 69, 0
12, 211520, Note_on_c, 10, 67, 45
12, 211579, Note_on_c, 10, 67, 0
12, 211600, Note_on_c, 10, 65, 45
12, 211659, Note_on_c, 10, 65, 0
12, 211680, Note_on_c, 10, 64, 44
12, 211769, Note_on_c, 10, 64, 0
12, 211800, Note_on_c, 10, 67, 44
12, 211859, Note_on_c, 10, 67, 0
12, 211860, Note_on_c, 10, 69, 44
12, 211911, Note_on_c, 10, 69, 0
12, 211920, Note_on_c, 10, 70, 44
12, 212009, Note_on_c, 10, 70, 0
12, 212040, Note_on_c, 10, 71, 44
12, 212129, Note_on_c, 10, 71, 0
12, 212160, Note_on_c, 10, 72, 44
12, 212249, Note_on_c, 10, 72, 0
12, 212280, Note_on_c, 10, 67, 44
12, 212339, Note_on_c, 10, 67, 0
12, 212340, Note_on_c, 10, 69, 44
12, 212391, Note_on_c, 10, 69, 0
12, 212400, Note_on_c, 10, 70, 44
12, 212489, Note_on_c, 10, 70, 0
12, 212520, Note_on_c, 10, 71, 44
12, 212609, Note_on_c, 10, 71, 0
12, 212640, Note_on_c, 10, 72, 44
12, 212729, Note_on_c, 10, 72, 0
12, 212760, Note_on_c, 10, 67, 44
12, 212819, Note_on_c, 10, 67, 0
12, 212820, Note_on_c, 10, 69, 44
12, 212871, Note_on_c, 10, 69, 0
12, 212880, Note_on_c, 10, 70, 44
12, 212969, Note_on_c, 10, 70, 0
12, 213000, Note_on_c, 10, 71, 44
12, 213089, Note_on_c, 10, 71, 0
12, 213120, Note_on_c, 10, 72, 44
12, 213209, Note_on_c, 10, 72, 0
12, 213240, Note_on_c, 10, 67, 44
12, 213299, Note_on_c, 10, 67, 0
12, 213300, Note_on_c, 10, 69, 44
12, 213351, Note_on_c, 10, 69, 0
12, 213360, Note_on_c, 10, 70, 44
12, 213449, Note_on_c, 10, 70, 0
12, 213480, Note_on_c, 10, 71, 44
12, 213569, Note_on_c, 10, 71, 0
12, 213600, Note_on_c, 10, 72, 44
12, 213689, Note_on_c, 10, 72, 0
12, 213720, Note_on_c, 10, 67, 46
12, 213779, Note_on_c, 10, 67, 0
12, 213780, Note_on_c, 10, 69, 47
12, 213831, Note_on_c, 10, 69, 0
12, 213840, Note_on_c, 10, 70, 49
12, 213929, Note_on_c, 10, 70, 0
12, 213960, Note_on_c, 10, 71, 51
12, 214049, Note_on_c, 10, 71, 0
12, 214080, Note_on_c, 10, 72, 54
12, 214169, Note_on_c, 10, 72, 0
12, 214200, Note_on_c, 10, 69, 56
12, 214259, Note_on_c, 10, 69, 0
12, 214260, Note_on_c, 10, 70, 57
12, 214311, Note_on_c, 10, 70, 0
12, 214320, Note_on_c, 10, 72, 59
12, 214409, Note_on_c, 10, 72, 0
12, 214440, Note_on_c, 10, 73, 61
12, 214529, Note_on_c, 10, 73, 0
12, 214560, Note_on_c, 10, 74, 64
12, 214649, Note_on_c, 10, 74, 0
12, 214680, Note_on_c, 10, 70, 66
12, 214739, Note_on_c, 10, 70, 0
12, 214740, Note_on_c, 10, 72, 67
12, 214799, Note_on_c, 10, 72, 0
12, 214800, Note_on_c, 10, 74, 69
12, 214889, Note_on_c, 10, 74, 0
12, 214920, Note_on_c, 10, 76, 71
12, 215009, Note_on_c, 10, 76, 0
12, 215040, Note_on_c, 10, 77, 74
12, 215129, Note_on_c, 10, 77, 0
12, 215160, Note_on_c, 10, 74, 76
12, 215219, Note_on_c, 10, 74, 0
12, 215220, Note_on_c, 10, 76, 77
12, 215271, Note_on_c, 10, 76, 0
12, 215280, Note_on_c, 10, 77, 79
12, 215369, Note_on_c, 10, 77, 0
12, 215400, Note_on_c, 10, 79, 81
12, 215489, Note_on_c, 10, 79, 0
12, 215520, Note_on_c, 10, 69, 84
12, 215520, Note_on_c, 10, 81, 84
12, 215624, Note_on_c, 10, 69, 0
12, 215624, Note_on_c, 10, 81, 0
12, 215640, Note_on_c, 10, 81, 84
12, 215729, Note_on_c, 10, 81, 0
12, 215760, Note_on_c, 10, 82, 84
12, 215849, Note_on_c, 10, 82, 0
12, 215880, Note_on_c, 10, 86, 84
12, 215969, Note_on_c, 10, 86, 0
12, 216000, Note_on_c, 10, 84, 84
12, 216119, Note_on_c, 10, 84, 0
12, 216120, Note_on_c, 10, 82, 84
12, 216179, Note_on_c, 10, 82, 0
12, 216180, Note_on_c, 10, 81, 84
12, 216231, Note_on_c, 10, 81, 0
12, 216240, Note_on_c, 10, 79, 84
12, 216329, Note_on_c, 10, 79, 0
12, 216360, Note_on_c, 10, 72, 84
12, 216449, Note_on_c, 10, 72, 0
12, 216480, Note_on_c, 10, 77, 84
12, 216569, Note_on_c, 10, 77, 0
12, 216600, Note_on_c, 10, 79, 84
12, 216689, Note_on_c, 10, 79, 0
12, 216720, Note_on_c, 10, 81, 84
12, 216839, Note_on_c, 10, 81, 0
12, 216840, Note_on_c, 10, 82, 84
12, 216899, Note_on_c, 10, 82, 0
12, 216900, Note_on_c, 10, 81, 84
12, 216951, Note_on_c, 10, 81, 0
12, 216960, Note_on_c, 10, 79, 84
12, 217049, Note_on_c, 10, 79, 0
12, 217080, Note_on_c, 10, 81, 84
12, 217169, Note_on_c, 10, 81, 0
12, 217200, Note_on_c, 10, 82, 84
12, 217319, Note_on_c, 10, 82, 0
12, 217320, Note_on_c, 10, 84, 84
12, 217379, Note_on_c, 10, 84, 0
12, 217380, Note_on_c, 10, 82, 84
12, 217431, Note_on_c, 10, 82, 0
12, 217440, Note_on_c, 10, 81, 84
12, 217559, Note_on_c, 10, 81, 0
12, 217560, Note_on_c, 10, 84, 84
12, 217664, Note_on_c, 10, 84, 0
12, 217680, Note_on_c, 10, 84, 84
12, 217769, Note_on_c, 10, 84, 0
12, 217800, Note_on_c, 10, 84, 84
12, 217889, Note_on_c, 10, 84, 0
12, 217920, Note_on_c, 10, 84, 84
12, 218159, Note_on_c, 10, 84, 0
12, 218160, Note_on_c, 10, 82, 84
12, 218219, Note_on_c, 10, 82, 0
12, 218220, Note_on_c, 10, 81, 84
12, 218279, Note_on_c, 10, 81, 0
12, 218280, Note_on_c, 10, 79, 84
12, 218339, Note_on_c, 10, 79, 0
12, 218340, Note_on_c, 10, 77, 84
12, 218391, Note_on_c, 10, 77, 0
12, 218400, Note_on_c, 10, 76, 84
12, 218489, Note_on_c, 10, 76, 0
12, 218520, Note_on_c, 10, 77, 84
12, 218609, Note_on_c, 10, 77, 0
12, 218640, Note_on_c, 10, 79, 84
12, 218759, Note_on_c, 10, 79, 0
12, 218760, Note_on_c, 10, 81, 84
12, 218819, Note_on_c, 10, 81, 0
12, 218820, Note_on_c, 10, 79, 84
12, 218871, Note_on_c, 10, 79, 0
12, 218880, Note_on_c, 10, 77, 84
12, 218969, Note_on_c, 10, 77, 0
12, 219000, Note_on_c, 10, 79, 84
12, 219089, Note_on_c, 10, 79, 0
12, 219120, Note_on_c, 10, 81, 84
12, 219239, Note_on_c, 10, 81, 0
12, 219240, Note_on_c, 10, 82, 84
12, 219299, Note_on_c, 10, 82, 0
12, 219300, Note_on_c, 10, 81, 84
12, 219351, Note_on_c, 10, 81, 0
12, 219360, Note_on_c, 10, 79, 84
12, 219479, Note_on_c, 10, 79, 0
12, 219480, Note_on_c, 10, 82, 84
12, 219584, Note_on_c, 10, 82, 0
12, 219600, Note_on_c, 10, 82, 84
12, 219689, Note_on_c, 10, 82, 0
12, 219720, Note_on_c, 10, 82, 84
12, 219809, Note_on_c, 10, 82, 0
12, 219840, Note_on_c, 10, 82, 84
12, 220079, Note_on_c, 10, 82, 0
12, 220080, Note_on_c, 10, 84, 84
12, 220139, Note_on_c, 10, 84, 0
12, 220140, Note_on_c, 10, 82, 84
12, 220199, Note_on_c, 10, 82, 0
12, 220200, Note_on_c, 10, 81, 84
12, 220259, Note_on_c, 10, 81, 0
12, 220260, Note_on_c, 10, 79, 84
12, 220311, Note_on_c, 10, 79, 0
12, 220320, Note_on_c, 10, 81, 84
12, 220409, Note_on_c, 10, 81, 0
12, 220440, Note_on_c, 10, 82, 84
12, 220529, Note_on_c, 10, 82, 0
12, 220560, Note_on_c, 10, 84, 84
12, 220679, Note_on_c, 10, 84, 0
12, 220680, Note_on_c, 10, 86, 84
12, 220739, Note_on_c, 10, 86, 0
12, 220740, Note_on_c, 10, 84, 84
12, 220799, Note_on_c, 10, 84, 0
12, 220800, Note_on_c, 10, 82, 84
12, 220919, Note_on_c, 10, 82, 0
12, 220920, Note_on_c, 10, 84, 84
12, 220979, Note_on_c, 10, 84, 0
12, 220980, Note_on_c, 10, 82, 84
12, 221039, Note_on_c, 10, 82, 0
12, 221040, Note_on_c, 10, 79, 84
12, 221159, Note_on_c, 10, 79, 0
12, 221160, Note_on_c, 10, 84, 84
12, 221219, Note_on_c, 10, 84, 0
12, 221220, Note_on_c, 10, 82, 84
12, 221271, Note_on_c, 10, 82, 0
12, 221280, Note_on_c, 10, 81, 84
12, 221369, Note_on_c, 10, 81, 0
12, 221400, Note_on_c, 10, 82, 84
12, 221489, Note_on_c, 10, 82, 0
12, 221520, Note_on_c, 10, 84, 84
12, 221639, Note_on_c, 10, 84, 0
12, 221640, Note_on_c, 10, 86, 84
12, 221699, Note_on_c, 10, 86, 0
12, 221700, Note_on_c, 10, 84, 84
12, 221759, Note_on_c, 10, 84, 0
12, 221760, Note_on_c, 10, 82, 84
12, 221879, Note_on_c, 10, 82, 0
12, 221880, Note_on_c, 10, 84, 84
12, 221939, Note_on_c, 10, 84, 0
12, 221940, Note_on_c, 10, 82, 84
12, 221999, Note_on_c, 10, 82, 0
12, 222000, Note_on_c, 10, 79, 84
12, 222119, Note_on_c, 10, 79, 0
12, 222120, Note_on_c, 10, 84, 84
12, 222179, Note_on_c, 10, 84, 0
12, 222180, Note_on_c, 10, 82, 84
12, 222231, Note_on_c, 10, 82, 0
12, 222240, Note_on_c, 10, 81, 84
12, 222359, Note_on_c, 10, 81, 0
12, 222360, Note_on_c, 10, 84, 84
12, 222419, Note_on_c, 10, 84, 0
12, 222420, Note_on_c, 10, 82, 84
12, 222479, Note_on_c, 10, 82, 0
12, 222480, Note_on_c, 10, 79, 84
12, 222599, Note_on_c, 10, 79, 0
12, 222600, Note_on_c, 10, 84, 84
12, 222659, Note_on_c, 10, 84, 0
12, 222660, Note_on_c, 10, 82, 84
12, 222711, Note_on_c, 10, 82, 0
12, 222720, Note_on_c, 10, 81, 84
12, 222839, Note_on_c, 10, 81, 0
12, 222840, Note_on_c, 10, 84, 84
12, 222899, Note_on_c, 10, 84, 0
12, 222900, Note_on_c, 10, 82, 84
12, 222959, Note_on_c, 10, 82, 0
12, 222960, Note_on_c, 10, 79, 84
12, 223079, Note_on_c, 10, 79, 0
12, 223080, Note_on_c, 10, 84, 84
12, 223139, Note_on_c, 10, 84, 0
12, 223140, Note_on_c, 10, 82, 84
12, 223191, Note_on_c, 10, 82, 0
12, 223200, Note_on_c, 10, 81, 84
12, 223200, Note_on_c, 10, 72, 84
12, 223200, Note_on_c, 10, 65, 84
12, 223319, Note_on_c, 10, 81, 0
12, 223319, Note_on_c, 10, 72, 0
12, 223319, Note_on_c, 10, 65, 0
12, 223800, Note_on_c, 10, 65, 52
12, 223919, Note_on_c, 10, 65, 0
12, 223920, Note_on_c, 10, 67, 52
12, 224024, Note_on_c, 10, 67, 0
12, 224040, Note_on_c, 10, 70, 52
12, 224129, Note_on_c, 10, 70, 0
12, 224160, Note_on_c, 10, 69, 52
12, 224249, Note_on_c, 10, 69, 0
12, 224280, Note_on_c, 10, 74, 52
12, 224399, Note_on_c, 10, 74, 0
12, 224400, Note_on_c, 10, 76, 52
12, 224504, Note_on_c, 10, 76, 0
12, 224520, Note_on_c, 10, 79, 52
12, 224609, Note_on_c, 10, 79, 0
12, 224640, Note_on_c, 10, 77, 52
12, 224729, Note_on_c, 10, 77, 0
12, 224760, Note_on_c, 10, 77, 52
12, 224879, Note_on_c, 10, 77, 0
12, 224880, Note_on_c, 10, 79, 52
12, 224984, Note_on_c, 10, 79, 0
12, 225000, Note_on_c, 10, 82, 52
12, 225089, Note_on_c, 10, 82, 0
12, 225120, Note_on_c, 10, 81, 52
12, 225239, Note_on_c, 10, 81, 0
12, 225720, Note_on_c, 10, 65, 52
12, 225839, Note_on_c, 10, 65, 0
12, 225840, Note_on_c, 10, 67, 52
12, 225944, Note_on_c, 10, 67, 0
12, 225960, Note_on_c, 10, 70, 52
12, 226049, Note_on_c, 10, 70, 0
12, 226080, Note_on_c, 10, 69, 52
12, 226169, Note_on_c, 10, 69, 0
12, 226200, Note_on_c, 10, 74, 52
12, 226319, Note_on_c, 10, 74, 0
12, 226320, Note_on_c, 10, 76, 52
12, 226424, Note_on_c, 10, 76, 0
12, 226440, Note_on_c, 10, 79, 52
12, 226529, Note_on_c, 10, 79, 0
12, 226560, Note_on_c, 10, 77, 52
12, 226649, Note_on_c, 10, 77, 0
12, 226680, Note_on_c, 10, 77, 52
12, 226799, Note_on_c, 10, 77, 0
12, 226800, Note_on_c, 10, 79, 52
12, 226904, Note_on_c, 10, 79, 0
12, 226920, Note_on_c, 10, 82, 52
12, 227009, Note_on_c, 10, 82, 0
12, 227040, Note_on_c, 10, 81, 52
12, 227159, Note_on_c, 10, 81, 0
12, 227640, Note_on_c, 10, 77, 52
12, 227759, Note_on_c, 10, 77, 0
12, 227760, Note_on_c, 10, 79, 52
12, 227864, Note_on_c, 10, 79, 0
12, 227880, Note_on_c, 10, 81, 52
12, 227969, Note_on_c, 10, 81, 0
12, 228000, Note_on_c, 10, 79, 52
12, 228119, Note_on_c, 10, 79, 0
12, 228600, Note_on_c, 10, 78, 52
12, 228719, Note_on_c, 10, 78, 0
12, 228720, Note_on_c, 10, 79, 52
12, 228824, Note_on_c, 10, 79, 0
12, 228840, Note_on_c, 10, 81, 52
12, 228929, Note_on_c, 10, 81, 0
12, 228960, Note_on_c, 10, 79, 52
12, 229079, Note_on_c, 10, 79, 0
12, 229560, Note_on_c, 10, 78, 52
12, 229679, Note_on_c, 10, 78, 0
12, 229680, Note_on_c, 10, 79, 52
12, 229784, Note_on_c, 10, 79, 0
12, 229800, Note_on_c, 10, 81, 52
12, 229889, Note_on_c, 10, 81, 0
12, 229920, Note_on_c, 10, 79, 52
12, 230009, Note_on_c, 10, 79, 0
12, 230040, Note_on_c, 10, 78, 52
12, 230159, Note_on_c, 10, 78, 0
12, 230160, Note_on_c, 10, 79, 52
12, 230264, Note_on_c, 10, 79, 0
12, 230280, Note_on_c, 10, 81, 52
12, 230369, Note_on_c, 10, 81, 0
12, 230400, Note_on_c, 10, 82, 52
12, 230489, Note_on_c, 10, 82, 0
12, 230520, Note_on_c, 10, 81, 52
12, 230639, Note_on_c, 10, 81, 0
12, 230640, Note_on_c, 10, 82, 52
12, 230744, Note_on_c, 10, 82, 0
12, 230760, Note_on_c, 10, 83, 52
12, 230849, Note_on_c, 10, 83, 0
12, 230880, Note_on_c, 10, 84, 52
12, 230969, Note_on_c, 10, 84, 0
12, 231000, Note_on_c, 10, 83, 52
12, 231119, Note_on_c, 10, 83, 0
12, 231120, Note_on_c, 10, 84, 52
12, 231224, Note_on_c, 10, 84, 0
12, 231240, Note_on_c, 10, 86, 52
12, 231329, Note_on_c, 10, 86, 0
12, 231360, Note_on_c, 10, 84, 52
12, 231449, Note_on_c, 10, 84, 0
12, 231480, Note_on_c, 10, 83, 52
12, 231599, Note_on_c, 10, 83, 0
12, 231600, Note_on_c, 10, 84, 52
12, 231704, Note_on_c, 10, 84, 0
12, 231720, Note_on_c, 10, 86, 52
12, 231809, Note_on_c, 10, 86, 0
12, 231840, Note_on_c, 10, 84, 52
12, 231959, Note_on_c, 10, 84, 0
12, 231960, Note_on_c, 10, 82, 52
12, 232079, Note_on_c, 10, 82, 0
12, 232080, Note_on_c, 10, 79, 52
12, 232199, Note_on_c, 10, 79, 0
12, 232200, Note_on_c, 10, 76, 52
12, 232319, Note_on_c, 10, 76, 0
12, 232320, Note_on_c, 10, 72, 52
12, 232439, Note_on_c, 10, 72, 0
12, 232440, Note_on_c, 10, 79, 52
12, 232559, Note_on_c, 10, 79, 0
12, 232560, Note_on_c, 10, 76, 52
12, 232679, Note_on_c, 10, 76, 0
12, 232680, Note_on_c, 10, 72, 52
12, 232784, Note_on_c, 10, 72, 0
12, 232800, Note_on_c, 10, 86, 52
12, 232919, Note_on_c, 10, 86, 0
12, 232920, Note_on_c, 10, 84, 52
12, 233039, Note_on_c, 10, 84, 0
12, 233040, Note_on_c, 10, 81, 52
12, 233159, Note_on_c, 10, 81, 0
12, 233160, Note_on_c, 10, 77, 52
12, 233279, Note_on_c, 10, 77, 0
12, 233280, Note_on_c, 10, 72, 52
12, 233399, Note_on_c, 10, 72, 0
12, 233400, Note_on_c, 10, 81, 52
12, 233519, Note_on_c, 10, 81, 0
12, 233520, Note_on_c, 10, 77, 52
12, 233639, Note_on_c, 10, 77, 0
12, 233640, Note_on_c, 10, 72, 52
12, 233744, Note_on_c, 10, 72, 0
12, 233760, Note_on_c, 10, 60, 52
12, 233879, Note_on_c, 10, 60, 0
12, 233880, Note_on_c, 10, 58, 52
12, 233999, Note_on_c, 10, 58, 0
12, 234000, Note_on_c, 10, 60, 52
12, 234119, Note_on_c, 10, 60, 0
12, 234120, Note_on_c, 10, 58, 52
12, 234239, Note_on_c, 10, 58, 0
12, 234240, Note_on_c, 10, 60, 52
12, 234359, Note_on_c, 10, 60, 0
12, 234360, Note_on_c, 10, 58, 52
12, 234479, Note_on_c, 10, 58, 0
12, 234480, Note_on_c, 10, 60, 52
12, 234599, Note_on_c, 10, 60, 0
12, 234600, Note_on_c, 10, 58, 52
12, 234704, Note_on_c, 10, 58, 0
12, 234720, Note_on_c, 10, 60, 52
12, 234839, Note_on_c, 10, 60, 0
12, 234840, Note_on_c, 10, 57, 52
12, 234959, Note_on_c, 10, 57, 0
12, 234960, Note_on_c, 10, 60, 52
12, 235079, Note_on_c, 10, 60, 0
12, 235080, Note_on_c, 10, 57, 52
12, 235199, Note_on_c, 10, 57, 0
12, 235200, Note_on_c, 10, 60, 52
12, 235319, Note_on_c, 10, 60, 0
12, 235320, Note_on_c, 10, 57, 52
12, 235439, Note_on_c, 10, 57, 0
12, 235440, Note_on_c, 10, 60, 52
12, 235559, Note_on_c, 10, 60, 0
12, 235560, Note_on_c, 10, 57, 52
12, 235664, Note_on_c, 10, 57, 0
12, 235678, Control_c, 10, 11, 80
12, 235680, Note_on_c, 10, 72, 76
12, 235864, Control_c, 10, 11, 81
12, 236048, Control_c, 10, 11, 82
12, 236231, Control_c, 10, 11, 83
12, 236415, Control_c, 10, 11, 84
12, 236599, Control_c, 10, 11, 85
12, 236624, Note_on_c, 10, 72, 0
12, 236640, Note_on_c, 10, 77, 76
12, 236783, Control_c, 10, 11, 86
12, 236967, Control_c, 10, 11, 87
12, 237151, Control_c, 10, 11, 88
12, 237334, Control_c, 10, 11, 89
12, 237518, Control_c, 10, 11, 90
12, 237584, Note_on_c, 10, 77, 0
12, 237600, Note_on_c, 10, 76, 76
12, 237702, Control_c, 10, 11, 91
12, 237824, Note_on_c, 10, 76, 0
12, 237840, Note_on_c, 10, 76, 76
12, 237886, Control_c, 10, 11, 92
12, 238064, Note_on_c, 10, 76, 0
12, 238070, Control_c, 10, 11, 93
12, 238080, Note_on_c, 10, 76, 76
12, 238254, Control_c, 10, 11, 94
12, 238319, Note_on_c, 10, 76, 0
12, 238320, Note_on_c, 10, 79, 76
12, 238437, Control_c, 10, 11, 95
12, 238439, Note_on_c, 10, 79, 0
12, 238440, Note_on_c, 10, 76, 76
12, 238559, Note_on_c, 10, 76, 0
12, 238560, Note_on_c, 10, 77, 76
12, 238621, Control_c, 10, 11, 96
12, 238784, Note_on_c, 10, 77, 0
12, 238800, Note_on_c, 10, 77, 76
12, 238805, Control_c, 10, 11, 97
12, 238989, Control_c, 10, 11, 98
12, 239024, Note_on_c, 10, 77, 0
12, 239040, Note_on_c, 10, 77, 76
12, 239173, Control_c, 10, 11, 99
12, 239279, Note_on_c, 10, 77, 0
12, 239280, Note_on_c, 10, 81, 76
12, 239357, Control_c, 10, 11, 100
12, 239399, Note_on_c, 10, 81, 0
12, 239400, Note_on_c, 10, 77, 76
12, 239504, Note_on_c, 10, 77, 0
12, 239520, Note_on_c, 10, 84, 76
12, 239540, Control_c, 10, 11, 101
12, 239599, Note_on_c, 10, 84, 0
12, 239600, Note_on_c, 10, 86, 76
12, 239679, Note_on_c, 10, 86, 0
12, 239680, Note_on_c, 10, 84, 76
12, 239724, Control_c, 10, 11, 102
12, 239759, Note_on_c, 10, 84, 0
12, 239760, Note_on_c, 10, 86, 76
12, 239839, Note_on_c, 10, 86, 0
12, 239840, Note_on_c, 10, 84, 76
12, 239908, Control_c, 10, 11, 103
12, 239919, Note_on_c, 10, 84, 0
12, 239920, Note_on_c, 10, 86, 76
12, 239999, Note_on_c, 10, 86, 0
12, 240000, Note_on_c, 10, 84, 76
12, 240079, Note_on_c, 10, 84, 0
12, 240080, Note_on_c, 10, 86, 76
12, 240092, Control_c, 10, 11, 104
12, 240159, Note_on_c, 10, 86, 0
12, 240160, Note_on_c, 10, 84, 76
12, 240239, Note_on_c, 10, 84, 0
12, 240240, Note_on_c, 10, 86, 76
12, 240276, Control_c, 10, 11, 105
12, 240319, Note_on_c, 10, 86, 0
12, 240320, Note_on_c, 10, 84, 76
12, 240399, Note_on_c, 10, 84, 0
12, 240400, Note_on_c, 10, 86, 76
12, 240460, Control_c, 10, 11, 106
12, 240467, Note_on_c, 10, 86, 0
12, 240480, Note_on_c, 10, 84, 76
12, 240559, Note_on_c, 10, 84, 0
12, 240560, Note_on_c, 10, 86, 76
12, 240639, Note_on_c, 10, 86, 0
12, 240640, Note_on_c, 10, 84, 76
12, 240643, Control_c, 10, 11, 107
12, 240719, Note_on_c, 10, 84, 0
12, 240720, Note_on_c, 10, 86, 76
12, 240799, Note_on_c, 10, 86, 0
12, 240800, Note_on_c, 10, 84, 76
12, 240827, Control_c, 10, 11, 108
12, 240879, Note_on_c, 10, 84, 0
12, 240880, Note_on_c, 10, 86, 76
12, 240959, Note_on_c, 10, 86, 0
12, 240960, Note_on_c, 10, 84, 76
12, 241011, Control_c, 10, 11, 109
12, 241039, Note_on_c, 10, 84, 0
12, 241040, Note_on_c, 10, 86, 76
12, 241119, Note_on_c, 10, 86, 0
12, 241120, Note_on_c, 10, 84, 76
12, 241195, Control_c, 10, 11, 110
12, 241199, Note_on_c, 10, 84, 0
12, 241200, Note_on_c, 10, 86, 76
12, 241279, Note_on_c, 10, 86, 0
12, 241280, Note_on_c, 10, 84, 76
12, 241359, Note_on_c, 10, 84, 0
12, 241360, Note_on_c, 10, 86, 76
12, 241379, Control_c, 10, 11, 111
12, 241427, Note_on_c, 10, 86, 0
12, 241440, Note_on_c, 10, 84, 76
12, 241499, Note_on_c, 10, 84, 0
12, 241500, Note_on_c, 10, 86, 76
12, 241559, Note_on_c, 10, 86, 0
12, 241560, Note_on_c, 10, 84, 76
12, 241563, Control_c, 10, 11, 112
12, 241619, Note_on_c, 10, 84, 0
12, 241620, Note_on_c, 10, 86, 76
12, 241679, Note_on_c, 10, 86, 0
12, 241680, Note_on_c, 10, 84, 76
12, 241739, Note_on_c, 10, 84, 0
12, 241740, Note_on_c, 10, 86, 76
12, 241746, Control_c, 10, 11, 113
12, 241799, Note_on_c, 10, 86, 0
12, 241800, Note_on_c, 10, 84, 76
12, 241859, Note_on_c, 10, 84, 0
12, 241860, Note_on_c, 10, 86, 76
12, 241919, Note_on_c, 10, 86, 0
12, 241920, Note_on_c, 10, 84, 76
12, 241930, Control_c, 10, 11, 114
12, 241979, Note_on_c, 10, 84, 0
12, 241980, Note_on_c, 10, 86, 76
12, 242039, Note_on_c, 10, 86, 0
12, 242040, Note_on_c, 10, 84, 76
12, 242099, Note_on_c, 10, 84, 0
12, 242100, Note_on_c, 10, 86, 76
12, 242114, Control_c, 10, 11, 115
12, 242159, Note_on_c, 10, 86, 0
12, 242160, Note_on_c, 10, 84, 76
12, 242219, Note_on_c, 10, 84, 0
12, 242220, Note_on_c, 10, 86, 76
12, 242279, Note_on_c, 10, 86, 0
12, 242280, Note_on_c, 10, 84, 76
12, 242298, Control_c, 10, 11, 116
12, 242339, Note_on_c, 10, 84, 0
12, 242340, Note_on_c, 10, 86, 76
12, 242391, Note_on_c, 10, 86, 0
12, 242400, Note_on_c, 10, 84, 76
12, 242459, Note_on_c, 10, 84, 0
12, 242460, Note_on_c, 10, 86, 76
12, 242482, Control_c, 10, 11, 117
12, 242519, Note_on_c, 10, 86, 0
12, 242520, Note_on_c, 10, 84, 76
12, 242579, Note_on_c, 10, 84, 0
12, 242580, Note_on_c, 10, 86, 76
12, 242639, Note_on_c, 10, 86, 0
12, 242640, Note_on_c, 10, 84, 76
12, 242666, Control_c, 10, 11, 118
12, 242699, Note_on_c, 10, 84, 0
12, 242700, Note_on_c, 10, 86, 76
12, 242759, Note_on_c, 10, 86, 0
12, 242760, Note_on_c, 10, 84, 76
12, 242819, Note_on_c, 10, 84, 0
12, 242820, Note_on_c, 10, 86, 76
12, 242849, Control_c, 10, 11, 119
12, 242879, Note_on_c, 10, 86, 0
12, 242880, Note_on_c, 10, 84, 76
12, 242939, Note_on_c, 10, 84, 0
12, 242940, Note_on_c, 10, 86, 76
12, 242999, Note_on_c, 10, 86, 0
12, 243000, Note_on_c, 10, 84, 76
12, 243033, Control_c, 10, 11, 120
12, 243059, Note_on_c, 10, 84, 0
12, 243060, Note_on_c, 10, 86, 76
12, 243119, Note_on_c, 10, 86, 0
12, 243120, Note_on_c, 10, 84, 76
12, 243179, Note_on_c, 10, 84, 0
12, 243180, Note_on_c, 10, 86, 76
12, 243217, Control_c, 10, 11, 121
12, 243239, Note_on_c, 10, 86, 0
12, 243240, Note_on_c, 10, 84, 76
12, 243299, Note_on_c, 10, 84, 0
12, 243300, Note_on_c, 10, 86, 76
12, 243351, Note_on_c, 10, 86, 0
12, 243360, Note_on_c, 10, 84, 76
12, 243401, Control_c, 10, 11, 122
12, 243419, Note_on_c, 10, 84, 0
12, 243420, Note_on_c, 10, 86, 76
12, 243479, Note_on_c, 10, 86, 0
12, 243480, Note_on_c, 10, 84, 76
12, 243539, Note_on_c, 10, 84, 0
12, 243540, Note_on_c, 10, 86, 76
12, 243585, Control_c, 10, 11, 123
12, 243599, Note_on_c, 10, 86, 0
12, 243600, Note_on_c, 10, 84, 76
12, 243659, Note_on_c, 10, 84, 0
12, 243660, Note_on_c, 10, 86, 76
12, 243719, Note_on_c, 10, 86, 0
12, 243720, Note_on_c, 10, 84, 76
12, 243769, Control_c, 10, 11, 124
12, 243779, Note_on_c, 10, 84, 0
12, 243780, Note_on_c, 10, 86, 76
12, 243831, Note_on_c, 10, 86, 0
12, 243840, Note_on_c, 10, 84, 76
12, 243899, Note_on_c, 10, 84, 0
12, 243900, Note_on_c, 10, 86, 76
12, 243952, Control_c, 10, 11, 125
12, 243959, Note_on_c, 10, 86, 0
12, 243960, Note_on_c, 10, 84, 76
12, 244019, Note_on_c, 10, 84, 0
12, 244020, Note_on_c, 10, 86, 76
12, 244071, Note_on_c, 10, 86, 0
12, 244080, Note_on_c, 10, 72, 76
12, 244136, Control_c, 10, 11, 127
12, 244139, Note_on_c, 10, 72, 0
12, 244140, Note_on_c, 10, 74, 76
12, 244199, Note_on_c, 10, 74, 0
12, 244200, Note_on_c, 10, 72, 76
12, 244259, Note_on_c, 10, 72, 0
12, 244260, Note_on_c, 10, 74, 76
12, 244311, Note_on_c, 10, 74, 0
12, 244320, Note_on_c, 10, 72, 76
12, 244679, Note_on_c, 10, 72, 0
12, 244680, Note_on_c, 10, 74, 76
12, 244739, Note_on_c, 10, 74, 0
12, 244740, Note_on_c, 10, 76, 76
12, 244791, Note_on_c, 10, 76, 0
12, 244800, Note_on_c, 10, 77, 76
12, 244919, Note_on_c, 10, 77, 0
12, 244920, Note_on_c, 10, 76, 76
12, 244979, Note_on_c, 10, 76, 0
12, 244980, Note_on_c, 10, 74, 76
12, 245039, Note_on_c, 10, 74, 0
12, 245040, Note_on_c, 10, 72, 76
12, 245159, Note_on_c, 10, 72, 0
12, 245160, Note_on_c, 10, 74, 76
12, 245219, Note_on_c, 10, 74, 0
12, 245220, Note_on_c, 10, 76, 76
12, 245271, Note_on_c, 10, 76, 0
12, 245280, Note_on_c, 10, 77, 76
12, 245399, Note_on_c, 10, 77, 0
12, 245400, Note_on_c, 10, 76, 76
12, 245459, Note_on_c, 10, 76, 0
12, 245460, Note_on_c, 10, 74, 76
12, 245519, Note_on_c, 10, 74, 0
12, 245520, Note_on_c, 10, 72, 76
12, 245639, Note_on_c, 10, 72, 0
12, 245640, Note_on_c, 10, 74, 76
12, 245699, Note_on_c, 10, 74, 0
12, 245700, Note_on_c, 10, 76, 76
12, 245751, Note_on_c, 10, 76, 0
12, 245760, Note_on_c, 10, 77, 76
12, 245879, Note_on_c, 10, 77, 0
12, 246240, Note_on_c, 10, 62, 52
12, 246359, Note_on_c, 10, 62, 0
12, 246360, Note_on_c, 10, 65, 52
12, 246479, Note_on_c, 10, 65, 0
12, 246480, Note_on_c, 10, 62, 52
12, 246599, Note_on_c, 10, 62, 0
12, 246600, Note_on_c, 10, 65, 52
12, 246719, Note_on_c, 10, 65, 0
12, 246720, Note_on_c, 10, 60, 52
12, 246839, Note_on_c, 10, 60, 0
12, 246840, Note_on_c, 10, 65, 52
12, 246959, Note_on_c, 10, 65, 0
12, 246960, Note_on_c, 10, 60, 52
12, 247079, Note_on_c, 10, 60, 0
12, 247080, Note_on_c, 10, 65, 52
12, 247199, Note_on_c, 10, 65, 0
12, 247200, Note_on_c, 10, 60, 52
12, 247319, Note_on_c, 10, 60, 0
12, 247320, Note_on_c, 10, 64, 52
12, 247439, Note_on_c, 10, 64, 0
12, 247440, Note_on_c, 10, 60, 52
12, 247559, Note_on_c, 10, 60, 0
12, 247560, Note_on_c, 10, 64, 52
12, 247664, Note_on_c, 10, 64, 0
12, 247680, Note_on_c, 10, 72, 84
12, 248039, Note_on_c, 10, 72, 0
12, 248040, Note_on_c, 10, 74, 84
12, 248099, Note_on_c, 10, 74, 0
12, 248100, Note_on_c, 10, 76, 84
12, 248151, Note_on_c, 10, 76, 0
12, 248160, Note_on_c, 10, 77, 84
12, 248279, Note_on_c, 10, 77, 0
12, 248280, Note_on_c, 10, 76, 84
12, 248339, Note_on_c, 10, 76, 0
12, 248340, Note_on_c, 10, 74, 84
12, 248399, Note_on_c, 10, 74, 0
12, 248400, Note_on_c, 10, 72, 84
12, 248519, Note_on_c, 10, 72, 0
12, 248520, Note_on_c, 10, 74, 84
12, 248579, Note_on_c, 10, 74, 0
12, 248580, Note_on_c, 10, 76, 84
12, 248631, Note_on_c, 10, 76, 0
12, 248640, Note_on_c, 10, 77, 84
12, 248759, Note_on_c, 10, 77, 0
12, 248760, Note_on_c, 10, 76, 84
12, 248819, Note_on_c, 10, 76, 0
12, 248820, Note_on_c, 10, 74, 84
12, 248879, Note_on_c, 10, 74, 0
12, 248880, Note_on_c, 10, 72, 84
12, 248999, Note_on_c, 10, 72, 0
12, 249000, Note_on_c, 10, 74, 84
12, 249059, Note_on_c, 10, 74, 0
12, 249060, Note_on_c, 10, 76, 84
12, 249111, Note_on_c, 10, 76, 0
12, 249120, Note_on_c, 10, 77, 76
12, 249239, Note_on_c, 10, 77, 0
12, 249600, Note_on_c, 10, 62, 52
12, 249719, Note_on_c, 10, 62, 0
12, 249720, Note_on_c, 10, 65, 52
12, 249839, Note_on_c, 10, 65, 0
12, 249840, Note_on_c, 10, 62, 52
12, 249959, Note_on_c, 10, 62, 0
12, 249960, Note_on_c, 10, 65, 52
12, 250079, Note_on_c, 10, 65, 0
12, 250080, Note_on_c, 10, 60, 52
12, 250199, Note_on_c, 10, 60, 0
12, 250200, Note_on_c, 10, 65, 52
12, 250319, Note_on_c, 10, 65, 0
12, 250320, Note_on_c, 10, 60, 52
12, 250439, Note_on_c, 10, 60, 0
12, 250440, Note_on_c, 10, 65, 52
12, 250559, Note_on_c, 10, 65, 0
12, 250560, Note_on_c, 10, 60, 52
12, 250679, Note_on_c, 10, 60, 0
12, 250680, Note_on_c, 10, 64, 52
12, 250799, Note_on_c, 10, 64, 0
12, 250800, Note_on_c, 10, 60, 52
12, 250919, Note_on_c, 10, 60, 0
12, 250920, Note_on_c, 10, 64, 52
12, 251039, Note_on_c, 10, 64, 0
12, 251040, Note_on_c, 10, 60, 52
12, 251144, Note_on_c, 10, 60, 0
12, 251160, Note_on_c, 10, 65, 52
12, 251264, Note_on_c, 10, 65, 0
12, 251280, Note_on_c, 10, 65, 53
12, 251384, Note_on_c, 10, 65, 0
12, 251400, Note_on_c, 10, 65, 55
12, 251504, Note_on_c, 10, 65, 0
12, 251520, Note_on_c, 10, 62, 56
12, 251639, Note_on_c, 10, 62, 0
12, 251640, Note_on_c, 10, 65, 58
12, 251759, Note_on_c, 10, 65, 0
12, 251760, Note_on_c, 10, 62, 60
12, 251879, Note_on_c, 10, 62, 0
12, 251880, Note_on_c, 10, 65, 61
12, 251999, Note_on_c, 10, 65, 0
12, 252000, Note_on_c, 10, 60, 63
12, 252119, Note_on_c, 10, 60, 0
12, 252120, Note_on_c, 10, 65, 64
12, 252239, Note_on_c, 10, 65, 0
12, 252240, Note_on_c, 10, 60, 66
12, 252359, Note_on_c, 10, 60, 0
12, 252360, Note_on_c, 10, 65, 68
12, 252479, Note_on_c, 10, 65, 0
12, 252480, Note_on_c, 10, 60, 69
12, 252599, Note_on_c, 10, 60, 0
12, 252600, Note_on_c, 10, 64, 71
12, 252719, Note_on_c, 10, 64, 0
12, 252720, Note_on_c, 10, 60, 72
12, 252839, Note_on_c, 10, 60, 0
12, 252840, Note_on_c, 10, 64, 74
12, 252944, Note_on_c, 10, 64, 0
12, 252960, Note_on_c, 10, 60, 76
12, 253027, Note_on_c, 10, 60, 0
12, 253040, Note_on_c, 10, 65, 76
12, 253107, Note_on_c, 10, 65, 0
12, 253120, Note_on_c, 10, 77, 76
12, 253187, Note_on_c, 10, 77, 0
12, 253200, Note_on_c, 10, 77, 76
12, 253267, Note_on_c, 10, 77, 0
12, 253280, Note_on_c, 10, 77, 76
12, 253347, Note_on_c, 10, 77, 0
12, 253360, Note_on_c, 10, 77, 76
12, 253427, Note_on_c, 10, 77, 0
12, 253440, Note_on_c, 10, 77, 76
12, 253507, Note_on_c, 10, 77, 0
12, 253520, Note_on_c, 10, 65, 76
12, 253587, Note_on_c, 10, 65, 0
12, 253600, Note_on_c, 10, 77, 76
12, 253667, Note_on_c, 10, 77, 0
12, 253680, Note_on_c, 10, 65, 76
12, 253747, Note_on_c, 10, 65, 0
12, 253760, Note_on_c, 10, 76, 76
12, 253827, Note_on_c, 10, 76, 0
12, 253840, Note_on_c, 10, 74, 76
12, 253907, Note_on_c, 10, 74, 0
12, 253920, Note_on_c, 10, 72, 76
12, 253987, Note_on_c, 10, 72, 0
12, 254000, Note_on_c, 10, 60, 76
12, 254067, Note_on_c, 10, 60, 0
12, 254080, Note_on_c, 10, 72, 76
12, 254147, Note_on_c, 10, 72, 0
12, 254160, Note_on_c, 10, 60, 76
12, 254227, Note_on_c, 10, 60, 0
12, 254240, Note_on_c, 10, 70, 76
12, 254307, Note_on_c, 10, 70, 0
12, 254320, Note_on_c, 10, 69, 76
12, 254387, Note_on_c, 10, 69, 0
12, 254400, Note_on_c, 10, 67, 76
12, 254467, Note_on_c, 10, 67, 0
12, 254480, Note_on_c, 10, 58, 76
12, 254547, Note_on_c, 10, 58, 0
12, 254560, Note_on_c, 10, 67, 76
12, 254627, Note_on_c, 10, 67, 0
12, 254640, Note_on_c, 10, 58, 76
12, 254707, Note_on_c, 10, 58, 0
12, 254720, Note_on_c, 10, 65, 76
12, 254787, Note_on_c, 10, 65, 0
12, 254800, Note_on_c, 10, 67, 76
12, 254867, Note_on_c, 10, 67, 0
12, 254880, Note_on_c, 10, 65, 76
12, 255119, Note_on_c, 10, 65, 0
12, 255240, Note_on_c, 10, 69, 76
12, 255299, Note_on_c, 10, 69, 0
12, 255300, Note_on_c, 10, 67, 76
12, 255359, Note_on_c, 10, 67, 0
12, 255360, Note_on_c, 10, 65, 76
12, 255449, Note_on_c, 10, 65, 0
12, 255480, Note_on_c, 10, 69, 76
12, 255539, Note_on_c, 10, 69, 0
12, 255540, Note_on_c, 10, 67, 76
12, 255599, Note_on_c, 10, 67, 0
12, 255600, Note_on_c, 10, 65, 76
12, 255689, Note_on_c, 10, 65, 0
12, 255720, Note_on_c, 10, 74, 76
12, 255779, Note_on_c, 10, 74, 0
12, 255780, Note_on_c, 10, 71, 76
12, 255839, Note_on_c, 10, 71, 0
12, 255840, Note_on_c, 10, 72, 76
12, 256019, Note_on_c, 10, 72, 0
12, 256200, Note_on_c, 10, 74, 76
12, 256259, Note_on_c, 10, 74, 0
12, 256260, Note_on_c, 10, 72, 76
12, 256319, Note_on_c, 10, 72, 0
12, 256320, Note_on_c, 10, 69, 76
12, 256409, Note_on_c, 10, 69, 0
12, 256440, Note_on_c, 10, 72, 76
12, 256499, Note_on_c, 10, 72, 0
12, 256500, Note_on_c, 10, 70, 76
12, 256559, Note_on_c, 10, 70, 0
12, 256560, Note_on_c, 10, 67, 76
12, 256649, Note_on_c, 10, 67, 0
12, 256680, Note_on_c, 10, 70, 76
12, 256739, Note_on_c, 10, 70, 0
12, 256740, Note_on_c, 10, 69, 76
12, 256799, Note_on_c, 10, 69, 0
12, 256800, Note_on_c, 10, 65, 76
12, 256979, Note_on_c, 10, 65, 0
12, 257160, Note_on_c, 10, 69, 76
12, 257219, Note_on_c, 10, 69, 0
12, 257220, Note_on_c, 10, 67, 76
12, 257279, Note_on_c, 10, 67, 0
12, 257280, Note_on_c, 10, 65, 76
12, 257369, Note_on_c, 10, 65, 0
12, 257400, Note_on_c, 10, 69, 76
12, 257459, Note_on_c, 10, 69, 0
12, 257460, Note_on_c, 10, 67, 76
12, 257519, Note_on_c, 10, 67, 0
12, 257520, Note_on_c, 10, 65, 76
12, 257609, Note_on_c, 10, 65, 0
12, 257640, Note_on_c, 10, 74, 76
12, 257699, Note_on_c, 10, 74, 0
12, 257700, Note_on_c, 10, 71, 76
12, 257759, Note_on_c, 10, 71, 0
12, 257760, Note_on_c, 10, 72, 76
12, 257939, Note_on_c, 10, 72, 0
12, 258120, Note_on_c, 10, 74, 76
12, 258179, Note_on_c, 10, 74, 0
12, 258180, Note_on_c, 10, 72, 76
12, 258239, Note_on_c, 10, 72, 0
12, 258240, Note_on_c, 10, 69, 76
12, 258329, Note_on_c, 10, 69, 0
12, 258360, Note_on_c, 10, 72, 76
12, 258419, Note_on_c, 10, 72, 0
12, 258420, Note_on_c, 10, 70, 76
12, 258479, Note_on_c, 10, 70, 0
12, 258480, Note_on_c, 10, 67, 76
12, 258569, Note_on_c, 10, 67, 0
12, 258600, Note_on_c, 10, 70, 76
12, 258659, Note_on_c, 10, 70, 0
12, 258660, Note_on_c, 10, 69, 76
12, 258719, Note_on_c, 10, 69, 0
12, 258720, Note_on_c, 10, 65, 76
12, 258809, Note_on_c, 10, 65, 0
12, 258840, Note_on_c, 10, 72, 76
12, 258899, Note_on_c, 10, 72, 0
12, 258900, Note_on_c, 10, 69, 76
12, 258959, Note_on_c, 10, 69, 0
12, 258960, Note_on_c, 10, 67, 75
12, 259049, Note_on_c, 10, 67, 0
12, 259080, Note_on_c, 10, 72, 73
12, 259139, Note_on_c, 10, 72, 0
12, 259140, Note_on_c, 10, 70, 72
12, 259199, Note_on_c, 10, 70, 0
12, 259200, Note_on_c, 10, 65, 72
12, 259289, Note_on_c, 10, 65, 0
12, 259320, Note_on_c, 10, 72, 70
12, 259379, Note_on_c, 10, 72, 0
12, 259380, Note_on_c, 10, 69, 69
12, 259439, Note_on_c, 10, 69, 0
12, 259440, Note_on_c, 10, 67, 68
12, 259529, Note_on_c, 10, 67, 0
12, 259560, Note_on_c, 10, 72, 67
12, 259619, Note_on_c, 10, 72, 0
12, 259620, Note_on_c, 10, 70, 66
12, 259679, Note_on_c, 10, 70, 0
12, 259680, Note_on_c, 10, 65, 65
12, 259769, Note_on_c, 10, 65, 0
12, 259800, Note_on_c, 10, 72, 64
12, 259859, Note_on_c, 10, 72, 0
12, 259860, Note_on_c, 10, 69, 63
12, 259919, Note_on_c, 10, 69, 0
12, 259920, Note_on_c, 10, 67, 62
12, 260009, Note_on_c, 10, 67, 0
12, 260040, Note_on_c, 10, 72, 60
12, 260099, Note_on_c, 10, 72, 0
12, 260100, Note_on_c, 10, 70, 60
12, 260159, Note_on_c, 10, 70, 0
12, 260160, Note_on_c, 10, 65, 59
12, 260249, Note_on_c, 10, 65, 0
12, 260280, Note_on_c, 10, 72, 57
12, 260339, Note_on_c, 10, 72, 0
12, 260340, Note_on_c, 10, 69, 56
12, 260399, Note_on_c, 10, 69, 0
12, 260400, Note_on_c, 10, 67, 56
12, 260489, Note_on_c, 10, 67, 0
12, 260520, Note_on_c, 10, 72, 54
12, 260579, Note_on_c, 10, 72, 0
12, 260580, Note_on_c, 10, 70, 53
12, 260631, Note_on_c, 10, 70, 0
12, 260640, Note_on_c, 10, 65, 52
12, 260640, Control_c, 10, 11, 127
12, 260768, Control_c, 10, 11, 126
12, 260879, Note_on_c, 10, 65, 0
12, 260880, Note_on_c, 10, 60, 52
12, 260896, Control_c, 10, 11, 125
12, 261024, Control_c, 10, 11, 124
12, 261119, Note_on_c, 10, 60, 0
12, 261120, Note_on_c, 10, 65, 52
12, 261152, Control_c, 10, 11, 123
12, 261280, Control_c, 10, 11, 122
12, 261359, Note_on_c, 10, 65, 0
12, 261360, Note_on_c, 10, 60, 52
12, 261408, Control_c, 10, 11, 121
12, 261536, Control_c, 10, 11, 120
12, 261599, Note_on_c, 10, 60, 0
12, 261600, Note_on_c, 10, 65, 52
12, 261664, Control_c, 10, 11, 119
12, 261792, Control_c, 10, 11, 118
12, 261839, Note_on_c, 10, 65, 0
12, 261840, Note_on_c, 10, 60, 52
12, 261920, Control_c, 10, 11, 117
12, 262048, Control_c, 10, 11, 116
12, 262079, Note_on_c, 10, 60, 0
12, 262080, Note_on_c, 10, 65, 52
12, 262176, Control_c, 10, 11, 115
12, 262304, Control_c, 10, 11, 114
12, 262319, Note_on_c, 10, 65, 0
12, 262320, Note_on_c, 10, 60, 52
12, 262432, Control_c, 10, 11, 112
12, 262559, Note_on_c, 10, 60, 0
12, 262560, Note_on_c, 10, 65, 52
12, 262649, Note_on_c, 10, 65, 0
12, 264480, Control_c, 10, 11, 127
12, 264600, Note_on_c, 10, 65, 52
12, 264719, Note_on_c, 10, 65, 0
12, 264720, Note_on_c, 10, 67, 52
12, 264824, Note_on_c, 10, 67, 0
12, 264840, Note_on_c, 10, 70, 52
12, 264929, Note_on_c, 10, 70, 0
12, 264960, Note_on_c, 10, 69, 52
12, 265049, Note_on_c, 10, 69, 0
12, 265080, Note_on_c, 10, 69, 52
12, 265199, Note_on_c, 10, 69, 0
12, 265200, Note_on_c, 10, 70, 52
12, 265304, Note_on_c, 10, 70, 0
12, 265320, Note_on_c, 10, 74, 52
12, 265409, Note_on_c, 10, 74, 0
12, 265440, Note_on_c, 10, 72, 52
12, 265529, Note_on_c, 10, 72, 0
12, 265560, Note_on_c, 10, 72, 52
12, 265679, Note_on_c, 10, 72, 0
12, 265680, Note_on_c, 10, 74, 52
12, 265784, Note_on_c, 10, 74, 0
12, 265800, Note_on_c, 10, 77, 52
12, 265889, Note_on_c, 10, 77, 0
12, 265920, Note_on_c, 10, 75, 52
12, 266009, Note_on_c, 10, 75, 0
12, 266040, Note_on_c, 10, 74, 76
12, 266159, Note_on_c, 10, 74, 0
12, 266160, Note_on_c, 10, 75, 76
12, 266264, Note_on_c, 10, 75, 0
12, 266280, Note_on_c, 10, 79, 76
12, 266369, Note_on_c, 10, 79, 0
12, 267000, Note_on_c, 10, 74, 44
12, 267119, Note_on_c, 10, 74, 0
12, 267120, Note_on_c, 10, 75, 44
12, 267224, Note_on_c, 10, 75, 0
12, 267240, Note_on_c, 10, 79, 44
12, 267329, Note_on_c, 10, 79, 0
12, 267960, Note_on_c, 10, 74, 44
12, 268079, Note_on_c, 10, 74, 0
12, 268080, Note_on_c, 10, 75, 44
12, 268184, Note_on_c, 10, 75, 0
12, 268200, Note_on_c, 10, 77, 44
12, 268289, Note_on_c, 10, 77, 0
12, 268440, Note_on_c, 10, 74, 76
12, 268559, Note_on_c, 10, 74, 0
12, 268560, Note_on_c, 10, 75, 76
12, 268664, Note_on_c, 10, 75, 0
12, 268680, Note_on_c, 10, 79, 76
12, 268769, Note_on_c, 10, 79, 0
12, 268800, Note_on_c, 10, 77, 76
12, 268889, Note_on_c, 10, 77, 0
12, 268920, Note_on_c, 10, 75, 76
12, 268979, Note_on_c, 10, 75, 0
12, 268980, Note_on_c, 10, 74, 76
12, 269031, Note_on_c, 10, 74, 0
12, 269040, Note_on_c, 10, 72, 76
12, 269129, Note_on_c, 10, 72, 0
12, 269160, Note_on_c, 10, 65, 76
12, 269249, Note_on_c, 10, 65, 0
12, 269280, Note_on_c, 10, 70, 76
12, 269369, Note_on_c, 10, 70, 0
12, 269400, Note_on_c, 10, 72, 76
12, 269489, Note_on_c, 10, 72, 0
12, 269520, Note_on_c, 10, 74, 76
12, 269639, Note_on_c, 10, 74, 0
12, 269640, Note_on_c, 10, 75, 76
12, 269699, Note_on_c, 10, 75, 0
12, 269700, Note_on_c, 10, 74, 76
12, 269751, Note_on_c, 10, 74, 0
12, 269760, Note_on_c, 10, 72, 76
12, 269849, Note_on_c, 10, 72, 0
12, 269880, Note_on_c, 10, 74, 76
12, 269969, Note_on_c, 10, 74, 0
12, 270000, Note_on_c, 10, 75, 76
12, 270119, Note_on_c, 10, 75, 0
12, 270120, Note_on_c, 10, 77, 76
12, 270179, Note_on_c, 10, 77, 0
12, 270180, Note_on_c, 10, 75, 76
12, 270231, Note_on_c, 10, 75, 0
12, 270240, Note_on_c, 10, 74, 52
12, 270359, Note_on_c, 10, 74, 0
12, 270720, Note_on_c, 10, 60, 52
12, 270839, Note_on_c, 10, 60, 0
12, 271200, Note_on_c, 10, 62, 52
12, 271267, Note_on_c, 10, 62, 0
12, 271280, Note_on_c, 10, 82, 52
12, 271347, Note_on_c, 10, 82, 0
12, 271360, Note_on_c, 10, 82, 52
12, 271427, Note_on_c, 10, 82, 0
12, 271440, Note_on_c, 10, 82, 52
12, 272227, Note_on_c, 10, 82, 0
12, 272240, Note_on_c, 10, 82, 52
12, 272307, Note_on_c, 10, 82, 0
12, 272320, Note_on_c, 10, 82, 52
12, 272387, Note_on_c, 10, 82, 0
12, 272400, Note_on_c, 10, 82, 52
12, 273187, Note_on_c, 10, 82, 0
12, 273200, Note_on_c, 10, 82, 52
12, 273267, Note_on_c, 10, 82, 0
12, 273280, Note_on_c, 10, 82, 52
12, 273347, Note_on_c, 10, 82, 0
12, 273360, Note_on_c, 10, 82, 52
12, 274147, Note_on_c, 10, 82, 0
12, 274160, Note_on_c, 10, 82, 52
12, 274227, Note_on_c, 10, 82, 0
12, 274240, Note_on_c, 10, 82, 52
12, 274307, Note_on_c, 10, 82, 0
12, 274320, Note_on_c, 10, 82, 52
12, 275107, Note_on_c, 10, 82, 0
12, 275120, Note_on_c, 10, 82, 52
12, 275187, Note_on_c, 10, 82, 0
12, 275200, Note_on_c, 10, 82, 52
12, 275267, Note_on_c, 10, 82, 0
12, 275280, Note_on_c, 10, 82, 52
12, 275587, Note_on_c, 10, 82, 0
12, 275600, Note_on_c, 10, 79, 52
12, 275667, Note_on_c, 10, 79, 0
12, 275680, Note_on_c, 10, 79, 52
12, 275747, Note_on_c, 10, 79, 0
12, 275760, Note_on_c, 10, 79, 52
12, 276067, Note_on_c, 10, 79, 0
12, 276080, Note_on_c, 10, 76, 52
12, 276147, Note_on_c, 10, 76, 0
12, 276160, Note_on_c, 10, 76, 52
12, 276227, Note_on_c, 10, 76, 0
12, 276240, Note_on_c, 10, 76, 52
12, 276547, Note_on_c, 10, 76, 0
12, 276560, Note_on_c, 10, 72, 52
12, 276627, Note_on_c, 10, 72, 0
12, 276640, Note_on_c, 10, 72, 52
12, 276707, Note_on_c, 10, 72, 0
12, 276720, Note_on_c, 10, 72, 52
12, 276944, Note_on_c, 10, 72, 0
12, 276960, Note_on_c, 10, 69, 76
12, 276960, Note_on_c, 10, 77, 76
12, 276960, Note_on_c, 10, 65, 76
12, 277199, Note_on_c, 10, 69, 0
12, 277199, Note_on_c, 10, 65, 0
12, 277279, Note_on_c, 10, 77, 0
12, 277280, Note_on_c, 10, 81, 76
12, 277359, Note_on_c, 10, 81, 0
12, 277360, Note_on_c, 10, 79, 76
12, 277439, Note_on_c, 10, 79, 0
12, 277440, Note_on_c, 10, 77, 76
12, 277519, Note_on_c, 10, 77, 0
12, 277520, Note_on_c, 10, 81, 76
12, 277599, Note_on_c, 10, 81, 0
12, 277600, Note_on_c, 10, 79, 76
12, 277679, Note_on_c, 10, 79, 0
12, 277680, Note_on_c, 10, 77, 76
12, 277759, Note_on_c, 10, 77, 0
12, 277760, Note_on_c, 10, 86, 76
12, 277839, Note_on_c, 10, 86, 0
12, 277840, Note_on_c, 10, 83, 76
12, 277907, Note_on_c, 10, 83, 0
12, 277920, Note_on_c, 10, 84, 76
12, 278239, Note_on_c, 10, 84, 0
12, 278240, Note_on_c, 10, 86, 76
12, 278319, Note_on_c, 10, 86, 0
12, 278320, Note_on_c, 10, 84, 76
12, 278399, Note_on_c, 10, 84, 0
12, 278400, Note_on_c, 10, 81, 76
12, 278479, Note_on_c, 10, 81, 0
12, 278480, Note_on_c, 10, 84, 76
12, 278559, Note_on_c, 10, 84, 0
12, 278560, Note_on_c, 10, 82, 76
12, 278639, Note_on_c, 10, 82, 0
12, 278640, Note_on_c, 10, 79, 76
12, 278719, Note_on_c, 10, 79, 0
12, 278720, Note_on_c, 10, 82, 76
12, 278799, Note_on_c, 10, 82, 0
12, 278800, Note_on_c, 10, 81, 76
12, 278867, Note_on_c, 10, 81, 0
12, 278880, Note_on_c, 10, 77, 76
12, 279199, Note_on_c, 10, 77, 0
12, 279200, Note_on_c, 10, 81, 76
12, 279279, Note_on_c, 10, 81, 0
12, 279280, Note_on_c, 10, 79, 76
12, 279359, Note_on_c, 10, 79, 0
12, 279360, Note_on_c, 10, 77, 76
12, 279439, Note_on_c, 10, 77, 0
12, 279440, Note_on_c, 10, 81, 76
12, 279519, Note_on_c, 10, 81, 0
12, 279520, Note_on_c, 10, 79, 76
12, 279599, Note_on_c, 10, 79, 0
12, 279600, Note_on_c, 10, 77, 76
12, 279679, Note_on_c, 10, 77, 0
12, 279680, Note_on_c, 10, 86, 76
12, 279759, Note_on_c, 10, 86, 0
12, 279760, Note_on_c, 10, 83, 76
12, 279827, Note_on_c, 10, 83, 0
12, 279840, Note_on_c, 10, 84, 76
12, 280159, Note_on_c, 10, 84, 0
12, 280160, Note_on_c, 10, 86, 76
12, 280239, Note_on_c, 10, 86, 0
12, 280240, Note_on_c, 10, 84, 76
12, 280319, Note_on_c, 10, 84, 0
12, 280320, Note_on_c, 10, 81, 76
12, 280399, Note_on_c, 10, 81, 0
12, 280400, Note_on_c, 10, 84, 76
12, 280479, Note_on_c, 10, 84, 0
12, 280480, Note_on_c, 10, 82, 76
12, 280559, Note_on_c, 10, 82, 0
12, 280560, Note_on_c, 10, 79, 76
12, 280639, Note_on_c, 10, 79, 0
12, 280640, Note_on_c, 10, 82, 76
12, 280719, Note_on_c, 10, 82, 0
12, 280720, Note_on_c, 10, 81, 76
12, 280787, Note_on_c, 10, 81, 0
12, 280800, Note_on_c, 10, 77, 76
12, 281107, Note_on_c, 10, 77, 0
12, 281120, Note_on_c, 10, 81, 76
12, 281187, Note_on_c, 10, 81, 0
12, 281200, Note_on_c, 10, 81, 76
12, 281267, Note_on_c, 10, 81, 0
12, 281280, Note_on_c, 10, 81, 76
12, 281587, Note_on_c, 10, 81, 0
12, 281600, Note_on_c, 10, 81, 76
12, 281667, Note_on_c, 10, 81, 0
12, 281680, Note_on_c, 10, 81, 76
12, 281747, Note_on_c, 10, 81, 0
12, 281760, Note_on_c, 10, 84, 76
12, 282067, Note_on_c, 10, 84, 0
12, 282080, Note_on_c, 10, 84, 76
12, 282147, Note_on_c, 10, 84, 0
12, 282160, Note_on_c, 10, 84, 76
12, 282227, Note_on_c, 10, 84, 0
12, 282240, Note_on_c, 10, 79, 76
12, 282547, Note_on_c, 10, 79, 0
12, 282560, Note_on_c, 10, 79, 76
12, 282627, Note_on_c, 10, 79, 0
12, 282640, Note_on_c, 10, 79, 76
12, 282707, Note_on_c, 10, 79, 0
12, 282720, Note_on_c, 10, 81, 76
12, 283027, Note_on_c, 10, 81, 0
12, 283040, Note_on_c, 10, 81, 76
12, 283107, Note_on_c, 10, 81, 0
12, 283120, Note_on_c, 10, 81, 76
12, 283187, Note_on_c, 10, 81, 0
12, 283200, Note_on_c, 10, 81, 76
12, 283507, Note_on_c, 10, 81, 0
12, 283520, Note_on_c, 10, 81, 76
12, 283587, Note_on_c, 10, 81, 0
12, 283600, Note_on_c, 10, 81, 76
12, 283667, Note_on_c, 10, 81, 0
12, 283680, Note_on_c, 10, 84, 76
12, 283987, Note_on_c, 10, 84, 0
12, 284000, Note_on_c, 10, 84, 76
12, 284067, Note_on_c, 10, 84, 0
12, 284080, Note_on_c, 10, 84, 76
12, 284147, Note_on_c, 10, 84, 0
12, 284160, Note_on_c, 10, 79, 76
12, 284467, Note_on_c, 10, 79, 0
12, 284480, Note_on_c, 10, 79, 76
12, 284547, Note_on_c, 10, 79, 0
12, 284560, Note_on_c, 10, 79, 76
12, 284627, Note_on_c, 10, 79, 0
12, 284640, Note_on_c, 10, 81, 76
12, 284947, Note_on_c, 10, 81, 0
12, 284960, Note_on_c, 10, 81, 76
12, 285027, Note_on_c, 10, 81, 0
12, 285040, Note_on_c, 10, 81, 76
12, 285107, Note_on_c, 10, 81, 0
12, 285120, Note_on_c, 10, 81, 76
12, 285427, Note_on_c, 10, 81, 0
12, 285440, Note_on_c, 10, 81, 76
12, 285507, Note_on_c, 10, 81, 0
12, 285520, Note_on_c, 10, 81, 76
12, 285587, Note_on_c, 10, 81, 0
12, 285600, Note_on_c, 10, 84, 84
12, 285907, Note_on_c, 10, 84, 0
12, 285920, Note_on_c, 10, 84, 84
12, 285987, Note_on_c, 10, 84, 0
12, 286000, Note_on_c, 10, 84, 84
12, 286067, Note_on_c, 10, 84, 0
12, 286080, Note_on_c, 10, 84, 84
12, 286387, Note_on_c, 10, 84, 0
12, 286400, Note_on_c, 10, 84, 84
12, 286467, Note_on_c, 10, 84, 0
12, 286480, Note_on_c, 10, 84, 84
12, 286547, Note_on_c, 10, 84, 0
12, 286560, Note_on_c, 10, 84, 84
12, 286867, Note_on_c, 10, 84, 0
12, 286880, Note_on_c, 10, 82, 84
12, 286947, Note_on_c, 10, 82, 0
12, 286960, Note_on_c, 10, 82, 84
12, 287027, Note_on_c, 10, 82, 0
12, 287040, Note_on_c, 10, 82, 84
12, 287347, Note_on_c, 10, 82, 0
12, 287360, Note_on_c, 10, 81, 84
12, 287427, Note_on_c, 10, 81, 0
12, 287440, Note_on_c, 10, 81, 84
12, 287507, Note_on_c, 10, 81, 0
12, 287520, Note_on_c, 10, 81, 84
12, 287827, Note_on_c, 10, 81, 0
12, 287840, Note_on_c, 10, 79, 84
12, 287907, Note_on_c, 10, 79, 0
12, 287920, Note_on_c, 10, 79, 84
12, 287987, Note_on_c, 10, 79, 0
12, 288000, Note_on_c, 10, 79, 84
12, 288307, Note_on_c, 10, 79, 0
12, 288320, Note_on_c, 10, 77, 84
12, 288387, Note_on_c, 10, 77, 0
12, 288400, Note_on_c, 10, 77, 84
12, 288467, Note_on_c, 10, 77, 0
12, 288480, Control_c, 10, 11, 127
12, 288480, Note_on_c, 10, 77, 84
12, 288560, Control_c, 10, 11, 124
12, 288640, Control_c, 10, 11, 120
12, 288720, Control_c, 10, 11, 117
12, 288787, Note_on_c, 10, 77, 0
12, 288800, Control_c, 10, 11, 114
12, 288800, Note_on_c, 10, 76, 84
12, 288867, Note_on_c, 10, 76, 0
12, 288880, Control_c, 10, 11, 111
12, 288880, Note_on_c, 10, 76, 84
12, 288947, Note_on_c, 10, 76, 0
12, 288960, Control_c, 10, 11, 107
12, 288960, Note_on_c, 10, 76, 84
12, 289040, Control_c, 10, 11, 104
12, 289120, Control_c, 10, 11, 101
12, 289200, Control_c, 10, 11, 97
12, 289267, Note_on_c, 10, 76, 0
12, 289280, Note_on_c, 10, 74, 84
12, 289280, Control_c, 10, 11, 94
12, 289347, Note_on_c, 10, 74, 0
12, 289360, Note_on_c, 10, 74, 84
12, 289360, Control_c, 10, 11, 91
12, 289427, Note_on_c, 10, 74, 0
12, 289440, Note_on_c, 10, 74, 84
12, 289440, Control_c, 10, 11, 88
12, 289520, Control_c, 10, 11, 84
12, 289600, Control_c, 10, 11, 81
12, 289680, Control_c, 10, 11, 78
12, 289747, Note_on_c, 10, 74, 0
12, 289760, Note_on_c, 10, 72, 84
12, 289760, Control_c, 10, 11, 74
12, 289827, Note_on_c, 10, 72, 0
12, 289840, Control_c, 10, 11, 71
12, 289840, Note_on_c, 10, 72, 84
12, 289907, Note_on_c, 10, 72, 0
12, 289920, Note_on_c, 10, 72, 84
12, 289920, Control_c, 10, 11, 68
12, 290000, Control_c, 10, 11, 64
12, 290080, Control_c, 10, 11, 61
12, 290160, Control_c, 10, 11, 58
12, 290227, Note_on_c, 10, 72, 0
12, 290240, Note_on_c, 10, 70, 84
12, 290240, Control_c, 10, 11, 55
12, 290307, Note_on_c, 10, 70, 0
12, 290320, Control_c, 10, 11, 48
12, 290320, Note_on_c, 10, 70, 84
12, 290387, Note_on_c, 10, 70, 0
12, 290400, Note_on_c, 10, 70, 84
12, 290879, Note_on_c, 10, 70, 0
12, 290880, Note_on_c, 10, 71, 84
12, 291344, Note_on_c, 10, 71, 0
12, 291358, Control_c, 10, 11, 127
12, 291360, Note_on_c, 10, 82, 76
12, 291479, Note_on_c, 10, 82, 0
12, 291480, Note_on_c, 10, 79, 76
12, 291539, Note_on_c, 10, 79, 0
12, 291540, Note_on_c, 10, 77, 76
12, 291591, Note_on_c, 10, 77, 0
12, 291600, Note_on_c, 10, 76, 76
12, 291689, Note_on_c, 10, 76, 0
12, 291720, Note_on_c, 10, 72, 76
12, 291809, Note_on_c, 10, 72, 0
12, 291840, Note_on_c, 10, 65, 76
12, 291840, Note_on_c, 10, 72, 76
12, 291840, Note_on_c, 10, 81, 76
12, 291959, Note_on_c, 10, 65, 0
12, 291959, Note_on_c, 10, 72, 0
12, 291959, Note_on_c, 10, 81, 0
12, 292080, Note_on_c, 10, 64, 76
12, 292080, Note_on_c, 10, 79, 76
12, 292080, Note_on_c, 10, 72, 76
12, 292199, Note_on_c, 10, 64, 0
12, 292199, Note_on_c, 10, 79, 0
12, 292199, Note_on_c, 10, 72, 0
12, 292320, Note_on_c, 10, 70, 44
12, 292799, Note_on_c, 10, 70, 0
12, 292800, Note_on_c, 10, 71, 44
12, 293264, Note_on_c, 10, 71, 0
12, 293280, Note_on_c, 10, 82, 76
12, 293399, Note_on_c, 10, 82, 0
12, 293400, Note_on_c, 10, 79, 76
12, 293459, Note_on_c, 10, 79, 0
12, 293460, Note_on_c, 10, 77, 76
12, 293511, Note_on_c, 10, 77, 0
12, 293520, Note_on_c, 10, 76, 76
12, 293609, Note_on_c, 10, 76, 0
12, 293640, Note_on_c, 10, 72, 76
12, 293729, Note_on_c, 10, 72, 0
12, 293760, Note_on_c, 10, 81, 76
12, 293760, Note_on_c, 10, 65, 76
12, 293760, Note_on_c, 10, 72, 76
12, 293879, Note_on_c, 10, 81, 0
12, 293879, Note_on_c, 10, 65, 0
12, 293879, Note_on_c, 10, 72, 0
12, 294000, Note_on_c, 10, 79, 76
12, 294000, Note_on_c, 10, 72, 76
12, 294000, Note_on_c, 10, 64, 76
12, 294119, Note_on_c, 10, 79, 0
12, 294119, Note_on_c, 10, 72, 0
12, 294119, Note_on_c, 10, 64, 0
12, 294240, Note_on_c, 10, 77, 76
12, 294240, Note_on_c, 10, 72, 76
12, 294240, Note_on_c, 10, 65, 76
12, 294359, Note_on_c, 10, 77, 0
12, 294359, Note_on_c, 10, 72, 0
12, 294359, Note_on_c, 10, 65, 0
12, 295680, Note_on_c, 10, 82, 76
12, 296024, Note_on_c, 10, 82, 0
12, 296040, Note_on_c, 10, 82, 76
12, 296144, Note_on_c, 10, 82, 0
12, 296160, Note_on_c, 10, 81, 76
12, 296279, Note_on_c, 10, 81, 0
12, 297600, Note_on_c, 10, 82, 76
12, 297944, Note_on_c, 10, 82, 0
12, 297960, Note_on_c, 10, 82, 76
12, 298064, Note_on_c, 10, 82, 0
12, 298080, Note_on_c, 10, 81, 76
12, 298199, Note_on_c, 10, 81, 0
12, 298560, Note_on_c, 10, 82, 76
12, 298904, Note_on_c, 10, 82, 0
12, 298920, Note_on_c, 10, 82, 76
12, 299024, Note_on_c, 10, 82, 0
12, 299040, Note_on_c, 10, 81, 76
12, 299159, Note_on_c, 10, 81, 0
12, 299520, Note_on_c, 10, 82, 76
12, 299864, Note_on_c, 10, 82, 0
12, 299880, Note_on_c, 10, 82, 76
12, 299984, Note_on_c, 10, 82, 0
12, 300000, Note_on_c, 10, 81, 76
12, 300119, Note_on_c, 10, 81, 0
12, 300480, Note_on_c, 10, 81, 68
12, 300599, Note_on_c, 10, 81, 0
12, 300960, Note_on_c, 10, 81, 60
12, 301079, Note_on_c, 10, 81, 0
12, 301440, Note_on_c, 10, 81, 52
12, 301559, Note_on_c, 10, 81, 0
12, 301920, Note_on_c, 10, 81, 44
12, 302024, Note_on_c, 10, 81, 0
12, 302040, Note_on_c, 10, 69, 44
12, 302129, Note_on_c, 10, 69, 0
12, 302160, Note_on_c, 10, 70, 44
12, 302249, Note_on_c, 10, 70, 0
12, 302280, Note_on_c, 10, 74, 44
12, 302369, Note_on_c, 10, 74, 0
12, 302400, Note_on_c, 10, 72, 44
12, 302519, Note_on_c, 10, 72, 0
12, 302520, Note_on_c, 10, 70, 44
12, 302579, Note_on_c, 10, 70, 0
12, 302580, Note_on_c, 10, 69, 44
12, 302631, Note_on_c, 10, 69, 0
12, 302640, Note_on_c, 10, 67, 44
12, 302729, Note_on_c, 10, 67, 0
12, 302760, Note_on_c, 10, 60, 44
12, 302849, Note_on_c, 10, 60, 0
12, 302880, Note_on_c, 10, 65, 44
12, 302969, Note_on_c, 10, 65, 0
12, 303000, Note_on_c, 10, 67, 44
12, 303089, Note_on_c, 10, 67, 0
12, 303120, Note_on_c, 10, 69, 44
12, 303239, Note_on_c, 10, 69, 0
12, 303240, Note_on_c, 10, 70, 44
12, 303299, Note_on_c, 10, 70, 0
12, 303300, Note_on_c, 10, 69, 44
12, 303351, Note_on_c, 10, 69, 0
12, 303360, Note_on_c, 10, 67, 44
12, 303449, Note_on_c, 10, 67, 0
12, 303480, Note_on_c, 10, 69, 44
12, 303569, Note_on_c, 10, 69, 0
12, 303600, Note_on_c, 10, 70, 44
12, 303719, Note_on_c, 10, 70, 0
12, 303720, Note_on_c, 10, 72, 44
12, 303779, Note_on_c, 10, 72, 0
12, 303780, Note_on_c, 10, 70, 44
12, 303831, Note_on_c, 10, 70, 0
12, 303840, Note_on_c, 10, 69, 44
12, 303929, Note_on_c, 10, 69, 0
12, 303960, Note_on_c, 10, 70, 44
12, 304049, Note_on_c, 10, 70, 0
12, 304080, Note_on_c, 10, 72, 44
12, 304199, Note_on_c, 10, 72, 0
12, 304200, Note_on_c, 10, 74, 44
12, 304259, Note_on_c, 10, 74, 0
12, 304260, Note_on_c, 10, 72, 44
12, 304311, Note_on_c, 10, 72, 0
12, 304320, Note_on_c, 10, 70, 44
12, 304409, Note_on_c, 10, 70, 0
12, 304440, Note_on_c, 10, 72, 44
12, 304529, Note_on_c, 10, 72, 0
12, 304560, Note_on_c, 10, 74, 44
12, 304649, Note_on_c, 10, 74, 0
12, 304680, Note_on_c, 10, 76, 44
12, 304769, Note_on_c, 10, 76, 0
12, 304800, Note_on_c, 10, 77, 44
12, 304919, Note_on_c, 10, 77, 0
12, 308160, Note_on_c, 10, 70, 76
12, 308249, Note_on_c, 10, 70, 0
12, 308280, Note_on_c, 10, 72, 76
12, 308369, Note_on_c, 10, 72, 0
12, 308400, Note_on_c, 10, 74, 76
12, 308489, Note_on_c, 10, 74, 0
12, 308520, Note_on_c, 10, 76, 76
12, 308609, Note_on_c, 10, 76, 0
12, 308640, Note_on_c, 10, 77, 84
12, 308699, Note_on_c, 10, 77, 0
12, 308700, Note_on_c, 10, 77, 76
12, 309104, Note_on_c, 10, 77, 0
12, 309120, Note_on_c, 10, 79, 84
12, 309120, Note_on_c, 10, 72, 84
12, 309120, Note_on_c, 10, 64, 84
12, 309179, Note_on_c, 10, 79, 0
12, 309179, Note_on_c, 10, 72, 0
12, 309179, Note_on_c, 10, 64, 0
12, 309180, Note_on_c, 10, 79, 76
12, 309180, Note_on_c, 10, 72, 76
12, 309180, Note_on_c, 10, 64, 76
12, 309359, Note_on_c, 10, 72, 0
12, 309359, Note_on_c, 10, 64, 0
12, 309584, Note_on_c, 10, 79, 0
12, 309600, Note_on_c, 10, 81, 84
12, 309600, Note_on_c, 10, 72, 84
12, 309600, Note_on_c, 10, 65, 84
12, 309659, Note_on_c, 10, 81, 0
12, 309659, Note_on_c, 10, 72, 0
12, 309659, Note_on_c, 10, 65, 0
12, 309660, Note_on_c, 10, 81, 76
12, 309660, Note_on_c, 10, 72, 76
12, 309660, Note_on_c, 10, 65, 76
12, 309839, Note_on_c, 10, 72, 0
12, 309839, Note_on_c, 10, 65, 0
12, 310064, Note_on_c, 10, 81, 0
12, 310080, Note_on_c, 10, 81, 76
12, 310080, Note_on_c, 10, 72, 76
12, 310080, Note_on_c, 10, 65, 76
12, 310259, Note_on_c, 10, 81, 0
12, 310259, Note_on_c, 10, 72, 0
12, 310259, Note_on_c, 10, 65, 0
12, 310320, Note_on_c, 10, 81, 76
12, 310320, Note_on_c, 10, 72, 76
12, 310320, Note_on_c, 10, 65, 76
12, 310499, Note_on_c, 10, 81, 0
12, 310499, Note_on_c, 10, 72, 0
12, 310499, Note_on_c, 10, 65, 0
12, 310560, Note_on_c, 10, 81, 76
12, 310560, Note_on_c, 10, 72, 76
12, 310560, Note_on_c, 10, 65, 76
12, 310799, Note_on_c, 10, 72, 0
12, 310799, Note_on_c, 10, 65, 0
12, 311024, Note_on_c, 10, 81, 0
12, 311040, Note_on_c, 10, 69, 52
12, 311504, Note_on_c, 10, 69, 0
12, 311520, Note_on_c, 10, 69, 52
12, 311999, Note_on_c, 10, 69, 0
12, 311999, End_track
13, 0, Start_track
13, 0, Title_t, "Violin II"
13, 0, MIDI_port, 0
13, 0, Program_c, 11, 48
13, 0, Control_c, 11, 7, 96
13, 0, Control_c, 11, 10, 24
13, 0, Control_c, 11, 11, 127
13, 960, Note_on_c, 11, 65, 52
13, 1079, Note_on_c, 11, 65, 0
13, 1080, Note_on_c, 11, 64, 52
13, 1199, Note_on_c, 11, 64, 0
13, 1200, Note_on_c, 11, 65, 52
13, 1319, Note_on_c, 11, 65, 0
13, 1320, Note_on_c, 11, 67, 52
13, 1379, Note_on_c, 11, 67, 0
13, 1380, Note_on_c, 11, 65, 52
13, 1431, Note_on_c, 11, 65, 0
13, 1440, Note_on_c, 11, 64, 52
13, 1919, Note_on_c, 11, 64, 0
13, 2040, Note_on_c, 11, 57, 52
13, 2159, Note_on_c, 11, 57, 0
13, 2160, Note_on_c, 11, 58, 52
13, 2279, Note_on_c, 11, 58, 0
13, 2280, Note_on_c, 11, 62, 52
13, 2399, Note_on_c, 11, 62, 0
13, 2400, Note_on_c, 11, 60, 52
13, 2984, Note_on_c, 11, 60, 0
13, 3000, Note_on_c, 11, 57, 52
13, 3119, Note_on_c, 11, 57, 0
13, 3120, Note_on_c, 11, 58, 52
13, 3239, Note_on_c, 11, 58, 0
13, 3240, Note_on_c, 11, 62, 52
13, 3359, Note_on_c, 11, 62, 0
13, 3360, Note_on_c, 11, 60, 52
13, 3824, Note_on_c, 11, 60, 0
13, 3838, Control_c, 11, 11, 80
13, 3840, Note_on_c, 11, 60, 76
13, 3880, Control_c, 11, 11, 82
13, 3920, Control_c, 11, 11, 84
13, 3960, Control_c, 11, 11, 86
13, 4000, Control_c, 11, 11, 88
13, 4040, Control_c, 11, 11, 90
13, 4079, Note_on_c, 11, 60, 0
13, 4080, Note_on_c, 11, 65, 76
13, 4080, Control_c, 11, 11, 92
13, 4120, Control_c, 11, 11, 94
13, 4160, Control_c, 11, 11, 96
13, 4200, Control_c, 11, 11, 98
13, 4240, Control_c, 11, 11, 100
13, 4280, Control_c, 11, 11, 102
13, 4319, Note_on_c, 11, 65, 0
13, 4320, Note_on_c, 11, 64, 76
13, 4320, Control_c, 11, 11, 104
13, 4360, Control_c, 11, 11, 105
13, 4400, Control_c, 11, 11, 107
13, 4440, Control_c, 11, 11, 109
13, 4480, Control_c, 11, 11, 111
13, 4520, Control_c, 11, 11, 113
13, 4560, Control_c, 11, 11, 115
13, 4600, Control_c, 11, 11, 117
13, 4640, Control_c, 11, 11, 119
13, 4679, Note_on_c, 11, 64, 0
13, 4680, Control_c, 11, 11, 121
13, 4680, Note_on_c, 11, 65, 76
13, 4720, Control_c, 11, 11, 123
13, 4760, Control_c, 11, 11, 125
13, 4784, Note_on_c, 11, 65, 0
13, 4800, Note_on_c, 11, 70, 76
13, 4800, Control_c, 11, 11, 127
13, 5039, Note_on_c, 11, 70, 0
13, 5040, Note_on_c, 11, 69, 76
13, 5264, Note_on_c, 11, 69, 0
13, 5280, Note_on_c, 11, 64, 76
13, 5744, Note_on_c, 11, 64, 0
13, 5760, Note_on_c, 11, 65, 76
13, 5984, Note_on_c, 11, 65, 0
13, 6000, Note_on_c, 11, 65, 76
13, 6239, Note_on_c, 11, 65, 0
13, 6240, Note_on_c, 11, 64, 76
13, 6599, Note_on_c, 11, 64, 0
13, 6600, Note_on_c, 11, 65, 76
13, 6704, Note_on_c, 11, 65, 0
13, 6718, Control_c, 11, 11, 80
13, 6720, Note_on_c, 11, 70, 76
13, 6959, Note_on_c, 11, 70, 0
13, 6960, Note_on_c, 11, 69, 76
13, 7184, Note_on_c, 11, 69, 0
13, 7200, Control_c, 11, 11, 80
13, 7200, Note_on_c, 11, 64, 76
13, 7253, Control_c, 11, 11, 81
13, 7307, Control_c, 11, 11, 83
13, 7360, Control_c, 11, 11, 84
13, 7413, Control_c, 11, 11, 85
13, 7467, Control_c, 11, 11, 87
13, 7520, Control_c, 11, 11, 88
13, 7544, Note_on_c, 11, 64, 0
13, 7560, Note_on_c, 11, 65, 76
13, 7573, Control_c, 11, 11, 89
13, 7627, Control_c, 11, 11, 90
13, 7664, Note_on_c, 11, 65, 0
13, 7680, Note_on_c, 11, 64, 76
13, 7680, Control_c, 11, 11, 92
13, 7733, Control_c, 11, 11, 93
13, 7787, Control_c, 11, 11, 94
13, 7840, Control_c, 11, 11, 96
13, 7893, Control_c, 11, 11, 97
13, 7947, Control_c, 11, 11, 98
13, 8000, Control_c, 11, 11, 100
13, 8024, Note_on_c, 11, 64, 0
13, 8040, Note_on_c, 11, 65, 76
13, 8053, Control_c, 11, 11, 101
13, 8107, Control_c, 11, 11, 102
13, 8144, Note_on_c, 11, 65, 0
13, 8160, Control_c, 11, 11, 104
13, 8160, Note_on_c, 11, 64, 76
13, 8213, Control_c, 11, 11, 105
13, 8267, Control_c, 11, 11, 106
13, 8320, Control_c, 11, 11, 107
13, 8373, Control_c, 11, 11, 109
13, 8427, Control_c, 11, 11, 110
13, 8480, Control_c, 11, 11, 111
13, 8504, Note_on_c, 11, 64, 0
13, 8520, Note_on_c, 11, 65, 76
13, 8533, Control_c, 11, 11, 113
13, 8587, Control_c, 11, 11, 114
13, 8624, Note_on_c, 11, 65, 0
13, 8640, Note_on_c, 11, 64, 76
13, 8640, Control_c, 11, 11, 115
13, 8693, Control_c, 11, 11, 117
13, 8747, Control_c, 11, 11, 118
13, 8800, Control_c, 11, 11, 119
13, 8853, Control_c, 11, 11, 120
13, 8907, Control_c, 11, 11, 122
13, 8960, Control_c, 11, 11, 123
13, 8984, Note_on_c, 11, 64, 0
13, 9000, Note_on_c, 11, 65, 76
13, 9013, Control_c, 11, 11, 124
13, 9067, Control_c, 11, 11, 127
13, 9104, Note_on_c, 11, 65, 0
13, 9120, Note_on_c, 11, 64, 76
13, 9464, Note_on_c, 11, 64, 0
13, 9480, Note_on_c, 11, 65, 76
13, 9584, Note_on_c, 11, 65, 0
13, 9600, Control_c, 11, 11, 127
13, 9600, Note_on_c, 11, 64, 76
13, 9653, Control_c, 11, 11, 125
13, 9707, Control_c, 11, 11, 124
13, 9760, Control_c, 11, 11, 122
13, 9813, Control_c, 11, 11, 120
13, 9867, Control_c, 11, 11, 118
13, 9920, Control_c, 11, 11, 117
13, 9944, Note_on_c, 11, 64, 0
13, 9960, Note_on_c, 11, 65, 76
13, 9973, Control_c, 11, 11, 115
13, 10027, Control_c, 11, 11, 113
13, 10064, Note_on_c, 11, 65, 0
13, 10080, Note_on_c, 11, 64, 76
13, 10080, Control_c, 11, 11, 111
13, 10133, Control_c, 11, 11, 110
13, 10187, Control_c, 11, 11, 108
13, 10240, Control_c, 11, 11, 106
13, 10293, Control_c, 11, 11, 104
13, 10347, Control_c, 11, 11, 103
13, 10400, Control_c, 11, 11, 101
13, 10424, Note_on_c, 11, 64, 0
13, 10440, Note_on_c, 11, 65, 76
13, 10453, Control_c, 11, 11, 99
13, 10507, Control_c, 11, 11, 97
13, 10544, Note_on_c, 11, 65, 0
13, 10560, Note_on_c, 11, 64, 76
13, 10560, Control_c, 11, 11, 96
13, 10613, Control_c, 11, 11, 94
13, 10667, Control_c, 11, 11, 92
13, 10720, Control_c, 11, 11, 90
13, 10773, Control_c, 11, 11, 89
13, 10827, Control_c, 11, 11, 87
13, 10880, Control_c, 11, 11, 85
13, 10904, Note_on_c, 11, 64, 0
13, 10920, Note_on_c, 11, 65, 76
13, 10933, Control_c, 11, 11, 83
13, 10987, Control_c, 11, 11, 82
13, 11024, Note_on_c, 11, 65, 0
13, 11040, Control_c, 11, 11, 80
13, 11040, Note_on_c, 11, 64, 76
13, 11093, Control_c, 11, 11, 78
13, 11147, Control_c, 11, 11, 76
13, 11200, Control_c, 11, 11, 75
13, 11253, Control_c, 11, 11, 73
13, 11307, Control_c, 11, 11, 71
13, 11360, Control_c, 11, 11, 69
13, 11384, Note_on_c, 11, 64, 0
13, 11400, Note_on_c, 11, 65, 76
13, 11413, Control_c, 11, 11, 68
13, 11467, Control_c, 11, 11, 64
13, 11504, Note_on_c, 11, 65, 0
13, 11520, Note_on_c, 11, 64, 76
13, 11639, Note_on_c, 11, 64, 0
13, 12000, Control_c, 11, 11, 127
13, 12120, Note_on_c, 11, 57, 44
13, 12179, Note_on_c, 11, 57, 0
13, 12180, Note_on_c, 11, 58, 44
13, 12231, Note_on_c, 11, 58, 0
13, 12240, Note_on_c, 11, 60, 44
13, 12329, Note_on_c, 11, 60, 0
13, 12360, Note_on_c, 11, 61, 44
13, 12449, Note_on_c, 11, 61, 0
13, 12480, Note_on_c, 11, 62, 44
13, 12569, Note_on_c, 11, 62, 0
13, 12600, Note_on_c, 11, 58, 44
13, 12659, Note_on_c, 11, 58, 0
13, 12660, Note_on_c, 11, 60, 44
13, 12711, Note_on_c, 11, 60, 0
13, 12720, Note_on_c, 11, 62, 44
13, 12809, Note_on_c, 11, 62, 0
13, 12840, Note_on_c, 11, 64, 44
13, 12929, Note_on_c, 11, 64, 0
13, 12960, Note_on_c, 11, 65, 44
13, 13049, Note_on_c, 11, 65, 0
13, 13080, Note_on_c, 11, 62, 44
13, 13139, Note_on_c, 11, 62, 0
13, 13140, Note_on_c, 11, 64, 44
13, 13191, Note_on_c, 11, 64, 0
13, 13200, Note_on_c, 11, 65, 44
13, 13289, Note_on_c, 11, 65, 0
13, 13320, Note_on_c, 11, 67, 44
13, 13409, Note_on_c, 11, 67, 0
13, 13440, Note_on_c, 11, 69, 44
13, 13559, Note_on_c, 11, 69, 0
13, 14880, Control_c, 11, 11, 64
13, 15360, Note_on_c, 11, 72, 76
13, 15360, Control_c, 11, 11, 64
13, 15413, Control_c, 11, 11, 66
13, 15467, Control_c, 11, 11, 68
13, 15520, Control_c, 11, 11, 69
13, 15573, Control_c, 11, 11, 71
13, 15627, Control_c, 11, 11, 73
13, 15680, Control_c, 11, 11, 75
13, 15733, Control_c, 11, 11, 76
13, 15787, Control_c, 11, 11, 78
13, 15840, Control_c, 11, 11, 80
13, 15893, Control_c, 11, 11, 82
13, 15947, Control_c, 11, 11, 83
13, 16000, Control_c, 11, 11, 85
13, 16053, Control_c, 11, 11, 87
13, 16107, Control_c, 11, 11, 89
13, 16160, Control_c, 11, 11, 90
13, 16213, Control_c, 11, 11, 92
13, 16267, Control_c, 11, 11, 94
13, 16319, Note_on_c, 11, 72, 0
13, 16320, Note_on_c, 11, 72, 76
13, 16320, Control_c, 11, 11, 96
13, 16373, Control_c, 11, 11, 97
13, 16427, Control_c, 11, 11, 99
13, 16480, Control_c, 11, 11, 101
13, 16533, Control_c, 11, 11, 103
13, 16587, Control_c, 11, 11, 104
13, 16640, Control_c, 11, 11, 106
13, 16693, Control_c, 11, 11, 108
13, 16747, Control_c, 11, 11, 110
13, 16800, Control_c, 11, 11, 111
13, 16853, Control_c, 11, 11, 113
13, 16907, Control_c, 11, 11, 115
13, 16960, Control_c, 11, 11, 117
13, 17013, Control_c, 11, 11, 118
13, 17067, Control_c, 11, 11, 120
13, 17120, Control_c, 11, 11, 122
13, 17173, Control_c, 11, 11, 124
13, 17227, Control_c, 11, 11, 127
13, 17264, Note_on_c, 11, 72, 0
13, 17280, Note_on_c, 11, 69, 76
13, 17369, Note_on_c, 11, 69, 0
13, 17400, Note_on_c, 11, 69, 76
13, 17489, Note_on_c, 11, 69, 0
13, 17520, Note_on_c, 11, 70, 76
13, 17609, Note_on_c, 11, 70, 0
13, 17640, Note_on_c, 11, 74, 76
13, 17729, Note_on_c, 11, 74, 0
13, 17760, Note_on_c, 11, 72, 76
13, 17879, Note_on_c, 11, 72, 0
13, 17880, Note_on_c, 11, 70, 76
13, 17939, Note_on_c, 11, 70, 0
13, 17940, Note_on_c, 11, 69, 76
13, 17991, Note_on_c, 11, 69, 0
13, 18000, Note_on_c, 11, 67, 76
13, 18089, Note_on_c, 11, 67, 0
13, 18120, Note_on_c, 11, 60, 76
13, 18209, Note_on_c, 11, 60, 0
13, 18240, Note_on_c, 11, 65, 76
13, 18329, Note_on_c, 11, 65, 0
13, 18360, Note_on_c, 11, 76, 76
13, 18449, Note_on_c, 11, 76, 0
13, 18480, Note_on_c, 11, 77, 76
13, 18599, Note_on_c, 11, 77, 0
13, 18600, Note_on_c, 11, 79, 76
13, 18659, Note_on_c, 11, 79, 0
13, 18660, Note_on_c, 11, 77, 76
13, 18711, Note_on_c, 11, 77, 0
13, 18720, Note_on_c, 11, 76, 76
13, 18809, Note_on_c, 11, 76, 0
13, 18840, Note_on_c, 11, 77, 76
13, 18929, Note_on_c, 11, 77, 0
13, 18960, Note_on_c, 11, 79, 76
13, 19079, Note_on_c, 11, 79, 0
13, 19080, Note_on_c, 11, 81, 76
13, 19139, Note_on_c, 11, 81, 0
13, 19140, Note_on_c, 11, 79, 76
13, 19191, Note_on_c, 11, 79, 0
13, 19200, Note_on_c, 11, 77, 76
13, 19319, Note_on_c, 11, 77, 0
13, 19320, Note_on_c, 11, 81, 76
13, 19424, Note_on_c, 11, 81, 0
13, 19440, Note_on_c, 11, 81, 76
13, 19529, Note_on_c, 11, 81, 0
13, 19560, Note_on_c, 11, 81, 76
13, 19649, Note_on_c, 11, 81, 0
13, 19680, Note_on_c, 11, 81, 76
13, 19919, Note_on_c, 11, 81, 0
13, 19920, Note_on_c, 11, 79, 76
13, 19979, Note_on_c, 11, 79, 0
13, 19980, Note_on_c, 11, 77, 76
13, 20039, Note_on_c, 11, 77, 0
13, 20040, Note_on_c, 11, 76, 76
13, 20099, Note_on_c, 11, 76, 0
13, 20100, Note_on_c, 11, 74, 76
13, 20151, Note_on_c, 11, 74, 0
13, 20160, Note_on_c, 11, 72, 76
13, 20249, Note_on_c, 11, 72, 0
13, 20280, Note_on_c, 11, 74, 76
13, 20369, Note_on_c, 11, 74, 0
13, 20400, Note_on_c, 11, 76, 76
13, 20519, Note_on_c, 11, 76, 0
13, 20520, Note_on_c, 11, 77, 76
13, 20579, Note_on_c, 11, 77, 0
13, 20580, Note_on_c, 11, 76, 76
13, 20631, Note_on_c, 11, 76, 0
13, 20640, Note_on_c, 11, 74, 76
13, 20729, Note_on_c, 11, 74, 0
13, 20760, Note_on_c, 11, 76, 76
13, 20849, Note_on_c, 11, 76, 0
13, 20880, Note_on_c, 11, 77, 76
13, 20999, Note_on_c, 11, 77, 0
13, 21000, Note_on_c, 11, 79, 76
13, 21059, Note_on_c, 11, 79, 0
13, 21060, Note_on_c, 11, 77, 76
13, 21111, Note_on_c, 11, 77, 0
13, 21120, Note_on_c, 11, 76, 76
13, 21239, Note_on_c, 11, 76, 0
13, 21240, Note_on_c, 11, 79, 76
13, 21344, Note_on_c, 11, 79, 0
13, 21360, Note_on_c, 11, 79, 76
13, 21449, Note_on_c, 11, 79, 0
13, 21480, Note_on_c, 11, 79, 76
13, 21569, Note_on_c, 11, 79, 0
13, 21600, Note_on_c, 11, 79, 76
13, 21839, Note_on_c, 11, 79, 0
13, 21840, Note_on_c, 11, 81, 76
13, 21899, Note_on_c, 11, 81, 0
13, 21900, Note_on_c, 11, 79, 76
13, 21959, Note_on_c, 11, 79, 0
13, 21960, Note_on_c, 11, 77, 76
13, 22019, Note_on_c, 11, 77, 0
13, 22020, Note_on_c, 11, 76, 76
13, 22071, Note_on_c, 11, 76, 0
13, 22080, Note_on_c, 11, 77, 76
13, 22169, Note_on_c, 11, 77, 0
13, 22200, Note_on_c, 11, 79, 76
13, 22289, Note_on_c, 11, 79, 0
13, 22320, Note_on_c, 11, 81, 76
13, 22439, Note_on_c, 11, 81, 0
13, 22440, Note_on_c, 11, 82, 76
13, 22499, Note_on_c, 11, 82, 0
13, 22500, Note_on_c, 11, 81, 76
13, 22551, Note_on_c, 11, 81, 0
13, 22560, Note_on_c, 11, 79, 76
13, 22679, Note_on_c, 11, 79, 0
13, 22680, Note_on_c, 11, 76, 76
13, 22799, Note_on_c, 11, 76, 0
13, 22800, Note_on_c, 11, 79, 76
13, 22919, Note_on_c, 11, 79, 0
13, 22920, Note_on_c, 11, 76, 76
13, 23024, Note_on_c, 11, 76, 0
13, 23040, Note_on_c, 11, 77, 76
13, 23129, Note_on_c, 11, 77, 0
13, 23160, Note_on_c, 11, 79, 76
13, 23249, Note_on_c, 11, 79, 0
13, 23280, Note_on_c, 11, 81, 76
13, 23399, Note_on_c, 11, 81, 0
13, 23400, Note_on_c, 11, 82, 76
13, 23459, Note_on_c, 11, 82, 0
13, 23460, Note_on_c, 11, 81, 76
13, 23511, Note_on_c, 11, 81, 0
13, 23520, Note_on_c, 11, 79, 76
13, 23639, Note_on_c, 11, 79, 0
13, 23640, Note_on_c, 11, 76, 76
13, 23759, Note_on_c, 11, 76, 0
13, 23760, Note_on_c, 11, 79, 76
13, 23879, Note_on_c, 11, 79, 0
13, 23880, Note_on_c, 11, 76, 76
13, 23984, Note_on_c, 11, 76, 0
13, 24000, Note_on_c, 11, 77, 76
13, 24119, Note_on_c, 11, 77, 0
13, 24120, Note_on_c, 11, 76, 76
13, 24239, Note_on_c, 11, 76, 0
13, 24240, Note_on_c, 11, 79, 76
13, 24359, Note_on_c, 11, 79, 0
13, 24360, Note_on_c, 11, 76, 76
13, 24464, Note_on_c, 11, 76, 0
13, 24480, Note_on_c, 11, 77, 76
13, 24599, Note_on_c, 11, 77, 0
13, 24600, Note_on_c, 11, 76, 76
13, 24719, Note_on_c, 11, 76, 0
13, 24720, Note_on_c, 11, 79, 76
13, 24839, Note_on_c, 11, 79, 0
13, 24840, Note_on_c, 11, 76, 76
13, 24944, Note_on_c, 11, 76, 0
13, 24960, Note_on_c, 11, 69, 76
13, 24960, Note_on_c, 11, 77, 76
13, 25079, Note_on_c, 11, 69, 0
13, 25079, Note_on_c, 11, 77, 0
13, 26640, Program_c, 11, 45
13, 26880, Note_on_c, 11, 69, 48
13, 26880, Note_on_c, 11, 65, 48
13, 26999, Note_on_c, 11, 69, 0
13, 26999, Note_on_c, 11, 65, 0
13, 28800, Note_on_c, 11, 65, 48
13, 28800, Note_on_c, 11, 69, 48
13, 29039, Note_on_c, 11, 65, 0
13, 29039, Note_on_c, 11, 69, 0
13, 29760, Note_on_c, 11, 65, 48
13, 29760, Note_on_c, 11, 74, 48
13, 29999, Note_on_c, 11, 65, 0
13, 29999, Note_on_c, 11, 74, 0
13, 30720, Program_c, 11, 48
13, 30840, Note_on_c, 11, 69, 52
13, 30959, Note_on_c, 11, 69, 0
13, 30960, Note_on_c, 11, 67, 52
13, 31064, Note_on_c, 11, 67, 0
13, 31080, Note_on_c, 11, 66, 52
13, 31169, Note_on_c, 11, 66, 0
13, 31200, Note_on_c, 11, 67, 52
13, 31319, Note_on_c, 11, 67, 0
13, 31680, Note_on_c, 11, 59, 52
13, 31799, Note_on_c, 11, 59, 0
13, 31800, Note_on_c, 11, 62, 52
13, 31919, Note_on_c, 11, 62, 0
13, 31920, Note_on_c, 11, 59, 52
13, 32039, Note_on_c, 11, 59, 0
13, 32040, Note_on_c, 11, 62, 52
13, 32159, Note_on_c, 11, 62, 0
13, 32160, Note_on_c, 11, 59, 52
13, 32279, Note_on_c, 11, 59, 0
13, 32280, Note_on_c, 11, 62, 52
13, 32399, Note_on_c, 11, 62, 0
13, 32400, Note_on_c, 11, 59, 52
13, 32519, Note_on_c, 11, 59, 0
13, 32520, Note_on_c, 11, 62, 52
13, 32624, Note_on_c, 11, 62, 0
13, 32640, Note_on_c, 11, 60, 52
13, 32759, Note_on_c, 11, 60, 0
13, 32760, Note_on_c, 11, 64, 52
13, 32879, Note_on_c, 11, 64, 0
13, 32880, Note_on_c, 11, 60, 52
13, 32999, Note_on_c, 11, 60, 0
13, 33000, Note_on_c, 11, 64, 52
13, 33119, Note_on_c, 11, 64, 0
13, 33120, Note_on_c, 11, 60, 52
13, 33239, Note_on_c, 11, 60, 0
13, 33240, Note_on_c, 11, 64, 52
13, 33359, Note_on_c, 11, 64, 0
13, 33360, Note_on_c, 11, 60, 52
13, 33479, Note_on_c, 11, 60, 0
13, 33480, Note_on_c, 11, 64, 52
13, 33584, Note_on_c, 11, 64, 0
13, 33600, Note_on_c, 11, 69, 52
13, 33719, Note_on_c, 11, 69, 0
13, 33720, Note_on_c, 11, 67, 52
13, 33839, Note_on_c, 11, 67, 0
13, 33840, Note_on_c, 11, 65, 52
13, 33959, Note_on_c, 11, 65, 0
13, 33960, Note_on_c, 11, 62, 52
13, 34079, Note_on_c, 11, 62, 0
13, 34080, Note_on_c, 11, 55, 52
13, 34199, Note_on_c, 11, 55, 0
13, 34200, Note_on_c, 11, 65, 52
13, 34319, Note_on_c, 11, 65, 0
13, 34320, Note_on_c, 11, 62, 52
13, 34439, Note_on_c, 11, 62, 0
13, 34440, Note_on_c, 11, 55, 52
13, 34544, Note_on_c, 11, 55, 0
13, 34560, Note_on_c, 11, 69, 52
13, 34679, Note_on_c, 11, 69, 0
13, 34680, Note_on_c, 11, 67, 52
13, 34799, Note_on_c, 11, 67, 0
13, 34800, Note_on_c, 11, 64, 52
13, 34919, Note_on_c, 11, 64, 0
13, 34920, Note_on_c, 11, 60, 52
13, 35039, Note_on_c, 11, 60, 0
13, 35040, Note_on_c, 11, 55, 52
13, 35159, Note_on_c, 11, 55, 0
13, 35160, Note_on_c, 11, 64, 52
13, 35279, Note_on_c, 11, 64, 0
13, 35280, Note_on_c, 11, 60, 52
13, 35399, Note_on_c, 11, 60, 0
13, 35400, Note_on_c, 11, 55, 52
13, 35504, Note_on_c, 11, 55, 0
13, 35520, Note_on_c, 11, 62, 52
13, 35639, Note_on_c, 11, 62, 0
13, 35640, Note_on_c, 11, 59, 52
13, 35759, Note_on_c, 11, 59, 0
13, 35760, Note_on_c, 11, 62, 52
13, 35879, Note_on_c, 11, 62, 0
13, 35880, Note_on_c, 11, 59, 53
13, 35999, Note_on_c, 11, 59, 0
13, 36000, Note_on_c, 11, 62, 53
13, 36119, Note_on_c, 11, 62, 0
13, 36120, Note_on_c, 11, 59, 53
13, 36239, Note_on_c, 11, 59, 0
13, 36240, Note_on_c, 11, 62, 54
13, 36359, Note_on_c, 11, 62, 0
13, 36360, Note_on_c, 11, 59, 54
13, 36464, Note_on_c, 11, 59, 0
13, 36480, Note_on_c, 11, 64, 54
13, 36599, Note_on_c, 11, 64, 0
13, 36600, Note_on_c, 11, 60, 55
13, 36719, Note_on_c, 11, 60, 0
13, 36720, Note_on_c, 11, 64, 55
13, 36839, Note_on_c, 11, 64, 0
13, 36840, Note_on_c, 11, 60, 55
13, 36959, Note_on_c, 11, 60, 0
13, 36960, Note_on_c, 11, 64, 56
13, 37079, Note_on_c, 11, 64, 0
13, 37080, Note_on_c, 11, 60, 56
13, 37199, Note_on_c, 11, 60, 0
13, 37200, Note_on_c, 11, 64, 56
13, 37319, Note_on_c, 11, 64, 0
13, 37320, Note_on_c, 11, 60, 57
13, 37424, Note_on_c, 11, 60, 0
13, 37440, Note_on_c, 11, 65, 57
13, 37559, Note_on_c, 11, 65, 0
13, 37560, Note_on_c, 11, 62, 57
13, 37679, Note_on_c, 11, 62, 0
13, 37680, Note_on_c, 11, 67, 58
13, 37799, Note_on_c, 11, 67, 0
13, 37800, Note_on_c, 11, 62, 58
13, 37919, Note_on_c, 11, 62, 0
13, 37920, Note_on_c, 11, 67, 58
13, 38039, Note_on_c, 11, 67, 0
13, 38040, Note_on_c, 11, 62, 59
13, 38159, Note_on_c, 11, 62, 0
13, 38160, Note_on_c, 11, 67, 59
13, 38279, Note_on_c, 11, 67, 0
13, 38280, Note_on_c, 11, 62, 59
13, 38384, Note_on_c, 11, 62, 0
13, 38400, Note_on_c, 11, 67, 60
13, 38519, Note_on_c, 11, 67, 0
13, 38520, Note_on_c, 11, 64, 60
13, 38639, Note_on_c, 11, 64, 0
13, 38640, Note_on_c, 11, 67, 60
13, 38759, Note_on_c, 11, 67, 0
13, 38760, Note_on_c, 11, 64, 61
13, 38879, Note_on_c, 11, 64, 0
13, 38880, Note_on_c, 11, 67, 61
13, 38999, Note_on_c, 11, 67, 0
13, 39000, Note_on_c, 11, 64, 61
13, 39119, Note_on_c, 11, 64, 0
13, 39120, Note_on_c, 11, 67, 62
13, 39239, Note_on_c, 11, 67, 0
13, 39240, Note_on_c, 11, 64, 62
13, 39344, Note_on_c, 11, 64, 0
13, 39360, Note_on_c, 11, 74, 62
13, 39439, Note_on_c, 11, 74, 0
13, 39440, Note_on_c, 11, 71, 62
13, 39519, Note_on_c, 11, 71, 0
13, 39520, Note_on_c, 11, 74, 63
13, 39599, Note_on_c, 11, 74, 0
13, 39600, Note_on_c, 11, 71, 63
13, 39679, Note_on_c, 11, 71, 0
13, 39680, Note_on_c, 11, 74, 63
13, 39759, Note_on_c, 11, 74, 0
13, 39760, Note_on_c, 11, 71, 63
13, 39839, Note_on_c, 11, 71, 0
13, 39840, Note_on_c, 11, 74, 64
13, 39919, Note_on_c, 11, 74, 0
13, 39920, Note_on_c, 11, 71, 64
13, 39999, Note_on_c, 11, 71, 0
13, 40000, Note_on_c, 11, 74, 64
13, 40079, Note_on_c, 11, 74, 0
13, 40080, Note_on_c, 11, 71, 64
13, 40159, Note_on_c, 11, 71, 0
13, 40160, Note_on_c, 11, 74, 64
13, 40239, Note_on_c, 11, 74, 0
13, 40240, Note_on_c, 11, 71, 65
13, 40307, Note_on_c, 11, 71, 0
13, 40320, Note_on_c, 11, 76, 65
13, 40399, Note_on_c, 11, 76, 0
13, 40400, Note_on_c, 11, 72, 65
13, 40479, Note_on_c, 11, 72, 0
13, 40480, Note_on_c, 11, 76, 65
13, 40559, Note_on_c, 11, 76, 0
13, 40560, Note_on_c, 11, 72, 66
13, 40639, Note_on_c, 11, 72, 0
13, 40640, Note_on_c, 11, 76, 66
13, 40719, Note_on_c, 11, 76, 0
13, 40720, Note_on_c, 11, 72, 66
13, 40799, Note_on_c, 11, 72, 0
13, 40800, Note_on_c, 11, 76, 66
13, 40879, Note_on_c, 11, 76, 0
13, 40880, Note_on_c, 11, 72, 66
13, 40959, Note_on_c, 11, 72, 0
13, 40960, Note_on_c, 11, 76, 67
13, 41039, Note_on_c, 11, 76, 0
13, 41040, Note_on_c, 11, 72, 67
13, 41119, Note_on_c, 11, 72, 0
13, 41120, Note_on_c, 11, 76, 67
13, 41199, Note_on_c, 11, 76, 0
13, 41200, Note_on_c, 11, 72, 67
13, 41267, Note_on_c, 11, 72, 0
13, 41280, Note_on_c, 11, 77, 68
13, 41339, Note_on_c, 11, 77, 0
13, 41340, Note_on_c, 11, 74, 68
13, 41399, Note_on_c, 11, 74, 0
13, 41400, Note_on_c, 11, 77, 68
13, 41459, Note_on_c, 11, 77, 0
13, 41460, Note_on_c, 11, 74, 68
13, 41519, Note_on_c, 11, 74, 0
13, 41520, Note_on_c, 11, 77, 68
13, 41579, Note_on_c, 11, 77, 0
13, 41580, Note_on_c, 11, 74, 68
13, 41639, Note_on_c, 11, 74, 0
13, 41640, Note_on_c, 11, 77, 69
13, 41699, Note_on_c, 11, 77, 0
13, 41700, Note_on_c, 11, 74, 69
13, 41759, Note_on_c, 11, 74, 0
13, 41760, Note_on_c, 11, 77, 69
13, 41819, Note_on_c, 11, 77, 0
13, 41820, Note_on_c, 11, 74, 69
13, 41879, Note_on_c, 11, 74, 0
13, 41880, Note_on_c, 11, 77, 69
13, 41939, Note_on_c, 11, 77, 0
13, 41940, Note_on_c, 11, 74, 69
13, 41999, Note_on_c, 11, 74, 0
13, 42000, Note_on_c, 11, 77, 70
13, 42059, Note_on_c, 11, 77, 0
13, 42060, Note_on_c, 11, 74, 70
13, 42119, Note_on_c, 11, 74, 0
13, 42120, Note_on_c, 11, 77, 70
13, 42179, Note_on_c, 11, 77, 0
13, 42180, Note_on_c, 11, 74, 70
13, 42231, Note_on_c, 11, 74, 0
13, 42240, Note_on_c, 11, 76, 70
13, 42299, Note_on_c, 11, 76, 0
13, 42300, Note_on_c, 11, 72, 70
13, 42359, Note_on_c, 11, 72, 0
13, 42360, Note_on_c, 11, 76, 71
13, 42419, Note_on_c, 11, 76, 0
13, 42420, Note_on_c, 11, 72, 71
13, 42479, Note_on_c, 11, 72, 0
13, 42480, Note_on_c, 11, 76, 71
13, 42539, Note_on_c, 11, 76, 0
13, 42540, Note_on_c, 11, 72, 71
13, 42599, Note_on_c, 11, 72, 0
13, 42600, Note_on_c, 11, 76, 71
13, 42659, Note_on_c, 11, 76, 0
13, 42660, Note_on_c, 11, 72, 71
13, 42719, Note_on_c, 11, 72, 0
13, 42720, Note_on_c, 11, 76, 72
13, 42779, Note_on_c, 11, 76, 0
13, 42780, Note_on_c, 11, 72, 72
13, 42839, Note_on_c, 11, 72, 0
13, 42840, Note_on_c, 11, 76, 72
13, 42899, Note_on_c, 11, 76, 0
13, 42900, Note_on_c, 11, 72, 72
13, 42959, Note_on_c, 11, 72, 0
13, 42960, Note_on_c, 11, 76, 72
13, 43019, Note_on_c, 11, 76, 0
13, 43020, Note_on_c, 11, 72, 72
13, 43079, Note_on_c, 11, 72, 0
13, 43080, Note_on_c, 11, 76, 73
13, 43139, Note_on_c, 11, 76, 0
13, 43140, Note_on_c, 11, 72, 73
13, 43191, Note_on_c, 11, 72, 0
13, 43200, Note_on_c, 11, 77, 73
13, 43259, Note_on_c, 11, 77, 0
13, 43260, Note_on_c, 11, 71, 73
13, 43319, Note_on_c, 11, 71, 0
13, 43320, Note_on_c, 11, 77, 73
13, 43379, Note_on_c, 11, 77, 0
13, 43380, Note_on_c, 11, 71, 73
13, 43439, Note_on_c, 11, 71, 0
13, 43440, Note_on_c, 11, 77, 74
13, 43499, Note_on_c, 11, 77, 0
13, 43500, Note_on_c, 11, 71, 74
13, 43559, Note_on_c, 11, 71, 0
13, 43560, Note_on_c, 11, 77, 74
13, 43619, Note_on_c, 11, 77, 0
13, 43620, Note_on_c, 11, 71, 74
13, 43679, Note_on_c, 11, 71, 0
13, 43680, Note_on_c, 11, 77, 74
13, 43739, Note_on_c, 11, 77, 0
13, 43740, Note_on_c, 11, 71, 74
13, 43799, Note_on_c, 11, 71, 0
13, 43800, Note_on_c, 11, 77, 75
13, 43859, Note_on_c, 11, 77, 0
13, 43860, Note_on_c, 11, 71, 75
13, 43919, Note_on_c, 11, 71, 0
13, 43920, Note_on_c, 11, 77, 75
13, 43979, Note_on_c, 11, 77, 0
13, 43980, Note_on_c, 11, 71, 75
13, 44039, Note_on_c, 11, 71, 0
13, 44040, Note_on_c, 11, 77, 75
13, 44099, Note_on_c, 11, 77, 0
13, 44100, Note_on_c, 11, 71, 75
13, 44151, Note_on_c, 11, 71, 0
13, 44160, Note_on_c, 11, 76, 76
13, 44519, Note_on_c, 11, 76, 0
13, 44520, Note_on_c, 11, 77, 76
13, 44579, Note_on_c, 11, 77, 0
13, 44580, Note_on_c, 11, 79, 76
13, 44631, Note_on_c, 11, 79, 0
13, 44640, Note_on_c, 11, 81, 76
13, 44759, Note_on_c, 11, 81, 0
13, 44760, Note_on_c, 11, 79, 76
13, 44819, Note_on_c, 11, 79, 0
13, 44820, Note_on_c, 11, 77, 76
13, 44879, Note_on_c, 11, 77, 0
13, 44880, Note_on_c, 11, 76, 76
13, 44999, Note_on_c, 11, 76, 0
13, 45000, Note_on_c, 11, 77, 76
13, 45059, Note_on_c, 11, 77, 0
13, 45060, Note_on_c, 11, 79, 76
13, 45111, Note_on_c, 11, 79, 0
13, 45120, Note_on_c, 11, 81, 76
13, 45239, Note_on_c, 11, 81, 0
13, 45240, Note_on_c, 11, 79, 76
13, 45299, Note_on_c, 11, 79, 0
13, 45300, Note_on_c, 11, 77, 76
13, 45359, Note_on_c, 11, 77, 0
13, 45360, Note_on_c, 11, 76, 76
13, 45479, Note_on_c, 11, 76, 0
13, 45480, Note_on_c, 11, 77, 76
13, 45539, Note_on_c, 11, 77, 0
13, 45540, Note_on_c, 11, 79, 76
13, 45591, Note_on_c, 11, 79, 0
13, 45600, Note_on_c, 11, 81, 76
13, 45719, Note_on_c, 11, 81, 0
13, 46080, Note_on_c, 11, 65, 52
13, 46199, Note_on_c, 11, 65, 0
13, 46200, Note_on_c, 11, 60, 52
13, 46319, Note_on_c, 11, 60, 0
13, 46320, Note_on_c, 11, 65, 52
13, 46439, Note_on_c, 11, 65, 0
13, 46440, Note_on_c, 11, 60, 52
13, 46559, Note_on_c, 11, 60, 0
13, 46560, Note_on_c, 11, 64, 52
13, 46679, Note_on_c, 11, 64, 0
13, 46680, Note_on_c, 11, 60, 52
13, 46799, Note_on_c, 11, 60, 0
13, 46800, Note_on_c, 11, 64, 52
13, 46919, Note_on_c, 11, 64, 0
13, 46920, Note_on_c, 11, 60, 52
13, 47039, Note_on_c, 11, 60, 0
13, 47040, Note_on_c, 11, 65, 52
13, 47159, Note_on_c, 11, 65, 0
13, 47160, Note_on_c, 11, 62, 52
13, 47279, Note_on_c, 11, 62, 0
13, 47280, Note_on_c, 11, 65, 52
13, 47399, Note_on_c, 11, 65, 0
13, 47400, Note_on_c, 11, 62, 52
13, 47504, Note_on_c, 11, 62, 0
13, 47520, Note_on_c, 11, 76, 84
13, 47879, Note_on_c, 11, 76, 0
13, 47880, Note_on_c, 11, 77, 84
13, 47939, Note_on_c, 11, 77, 0
13, 47940, Note_on_c, 11, 79, 84
13, 47991, Note_on_c, 11, 79, 0
13, 48000, Note_on_c, 11, 81, 84
13, 48119, Note_on_c, 11, 81, 0
13, 48120, Note_on_c, 11, 79, 84
13, 48179, Note_on_c, 11, 79, 0
13, 48180, Note_on_c, 11, 77, 84
13, 48239, Note_on_c, 11, 77, 0
13, 48240, Note_on_c, 11, 76, 84
13, 48359, Note_on_c, 11, 76, 0
13, 48360, Note_on_c, 11, 77, 84
13, 48419, Note_on_c, 11, 77, 0
13, 48420, Note_on_c, 11, 79, 84
13, 48471, Note_on_c, 11, 79, 0
13, 48480, Note_on_c, 11, 81, 84
13, 48599, Note_on_c, 11, 81, 0
13, 48600, Note_on_c, 11, 79, 84
13, 48659, Note_on_c, 11, 79, 0
13, 48660, Note_on_c, 11, 77, 84
13, 48719, Note_on_c, 11, 77, 0
13, 48720, Note_on_c, 11, 76, 84
13, 48839, Note_on_c, 11, 76, 0
13, 48840, Note_on_c, 11, 77, 84
13, 48899, Note_on_c, 11, 77, 0
13, 48900, Note_on_c, 11, 79, 84
13, 48951, Note_on_c, 11, 79, 0
13, 48960, Note_on_c, 11, 81, 76
13, 49079, Note_on_c, 11, 81, 0
13, 49440, Note_on_c, 11, 65, 52
13, 49559, Note_on_c, 11, 65, 0
13, 49560, Note_on_c, 11, 60, 52
13, 49679, Note_on_c, 11, 60, 0
13, 49680, Note_on_c, 11, 65, 52
13, 49799, Note_on_c, 11, 65, 0
13, 49800, Note_on_c, 11, 60, 52
13, 49919, Note_on_c, 11, 60, 0
13, 49920, Note_on_c, 11, 64, 52
13, 50039, Note_on_c, 11, 64, 0
13, 50040, Note_on_c, 11, 60, 52
13, 50159, Note_on_c, 11, 60, 0
13, 50160, Note_on_c, 11, 64, 52
13, 50279, Note_on_c, 11, 64, 0
13, 50280, Note_on_c, 11, 60, 52
13, 50399, Note_on_c, 11, 60, 0
13, 50400, Note_on_c, 11, 65, 52
13, 50519, Note_on_c, 11, 65, 0
13, 50520, Note_on_c, 11, 62, 52
13, 50639, Note_on_c, 11, 62, 0
13, 50640, Note_on_c, 11, 65, 52
13, 50759, Note_on_c, 11, 65, 0
13, 50760, Note_on_c, 11, 62, 52
13, 50879, Note_on_c, 11, 62, 0
13, 50880, Note_on_c, 11, 64, 52
13, 50984, Note_on_c, 11, 64, 0
13, 51000, Note_on_c, 11, 60, 52
13, 51104, Note_on_c, 11, 60, 0
13, 51120, Note_on_c, 11, 60, 53
13, 51224, Note_on_c, 11, 60, 0
13, 51240, Note_on_c, 11, 60, 55
13, 51344, Note_on_c, 11, 60, 0
13, 51360, Note_on_c, 11, 65, 56
13, 51479, Note_on_c, 11, 65, 0
13, 51480, Note_on_c, 11, 60, 58
13, 51599, Note_on_c, 11, 60, 0
13, 51600, Note_on_c, 11, 65, 60
13, 51719, Note_on_c, 11, 65, 0
13, 51720, Note_on_c, 11, 60, 61
13, 51839, Note_on_c, 11, 60, 0
13, 51840, Note_on_c, 11, 64, 63
13, 51959, Note_on_c, 11, 64, 0
13, 51960, Note_on_c, 11, 60, 64
13, 52079, Note_on_c, 11, 60, 0
13, 52080, Note_on_c, 11, 64, 66
13, 52199, Note_on_c, 11, 64, 0
13, 52200, Note_on_c, 11, 60, 68
13, 52319, Note_on_c, 11, 60, 0
13, 52320, Note_on_c, 11, 65, 69
13, 52439, Note_on_c, 11, 65, 0
13, 52440, Note_on_c, 11, 62, 71
13, 52559, Note_on_c, 11, 62, 0
13, 52560, Note_on_c, 11, 65, 72
13, 52679, Note_on_c, 11, 65, 0
13, 52680, Note_on_c, 11, 62, 74
13, 52799, Note_on_c, 11, 62, 0
13, 52800, Note_on_c, 11, 64, 76
13, 52867, Note_on_c, 11, 64, 0
13, 52880, Note_on_c, 11, 76, 76
13, 52880, Note_on_c, 11, 72, 76
13, 52947, Note_on_c, 11, 76, 0
13, 52947, Note_on_c, 11, 72, 0
13, 52960, Note_on_c, 11, 76, 76
13, 52960, Note_on_c, 11, 72, 76
13, 53027, Note_on_c, 11, 76, 0
13, 53027, Note_on_c, 11, 72, 0
13, 53040, Note_on_c, 11, 72, 76
13, 53040, Note_on_c, 11, 76, 76
13, 53107, Note_on_c, 11, 72, 0
13, 53107, Note_on_c, 11, 76, 0
13, 53120, Note_on_c, 11, 72, 76
13, 53120, Note_on_c, 11, 77, 76
13, 53187, Note_on_c, 11, 72, 0
13, 53187, Note_on_c, 11, 77, 0
13, 53200, Note_on_c, 11, 79, 76
13, 53200, Note_on_c, 11, 72, 76
13, 53267, Note_on_c, 11, 79, 0
13, 53267, Note_on_c, 11, 72, 0
13, 53280, Note_on_c, 11, 81, 76
13, 53347, Note_on_c, 11, 81, 0
13, 53360, Note_on_c, 11, 72, 76
13, 53427, Note_on_c, 11, 72, 0
13, 53440, Note_on_c, 11, 81, 76
13, 53507, Note_on_c, 11, 81, 0
13, 53520, Note_on_c, 11, 72, 76
13, 53587, Note_on_c, 11, 72, 0
13, 53600, Note_on_c, 11, 79, 76
13, 53667, Note_on_c, 11, 79, 0
13, 53680, Note_on_c, 11, 77, 76
13, 53747, Note_on_c, 11, 77, 0
13, 53760, Note_on_c, 11, 76, 76
13, 53827, Note_on_c, 11, 76, 0
13, 53840, Note_on_c, 11, 67, 76
13, 53907, Note_on_c, 11, 67, 0
13, 53920, Note_on_c, 11, 76, 76
13, 53987, Note_on_c, 11, 76, 0
13, 54000, Note_on_c, 11, 67, 76
13, 54067, Note_on_c, 11, 67, 0
13, 54080, Note_on_c, 11, 74, 76
13, 54147, Note_on_c, 11, 74, 0
13, 54160, Note_on_c, 11, 72, 76
13, 54227, Note_on_c, 11, 72, 0
13, 54240, Note_on_c, 11, 65, 76
13, 54307, Note_on_c, 11, 65, 0
13, 54320, Note_on_c, 11, 62, 76
13, 54387, Note_on_c, 11, 62, 0
13, 54400, Note_on_c, 11, 65, 76
13, 54467, Note_on_c, 11, 65, 0
13, 54480, Note_on_c, 11, 62, 76
13, 54547, Note_on_c, 11, 62, 0
13, 54560, Note_on_c, 11, 64, 76
13, 54627, Note_on_c, 11, 64, 0
13, 54640, Note_on_c, 11, 65, 76
13, 54707, Note_on_c, 11, 65, 0
13, 54720, Note_on_c, 11, 60, 76
13, 54959, Note_on_c, 11, 60, 0
13, 55080, Note_on_c, 11, 64, 76
13, 55139, Note_on_c, 11, 64, 0
13, 55140, Note_on_c, 11, 62, 76
13, 55199, Note_on_c, 11, 62, 0
13, 55200, Note_on_c, 11, 60, 76
13, 55289, Note_on_c, 11, 60, 0
13, 55320, Note_on_c, 11, 64, 76
13, 55379, Note_on_c, 11, 64, 0
13, 55380, Note_on_c, 11, 62, 76
13, 55439, Note_on_c, 11, 62, 0
13, 55440, Note_on_c, 11, 60, 76
13, 55529, Note_on_c, 11, 60, 0
13, 55560, Note_on_c, 11, 69, 76
13, 55619, Note_on_c, 11, 69, 0
13, 55620, Note_on_c, 11, 66, 76
13, 55679, Note_on_c, 11, 66, 0
13, 55680, Note_on_c, 11, 67, 76
13, 55859, Note_on_c, 11, 67, 0
13, 56040, Note_on_c, 11, 69, 76
13, 56099, Note_on_c, 11, 69, 0
13, 56100, Note_on_c, 11, 67, 76
13, 56159, Note_on_c, 11, 67, 0
13, 56160, Note_on_c, 11, 64, 76
13, 56249, Note_on_c, 11, 64, 0
13, 56280, Note_on_c, 11, 67, 76
13, 56339, Note_on_c, 11, 67, 0
13, 56340, Note_on_c, 11, 65, 76
13, 56399, Note_on_c, 11, 65, 0
13, 56400, Note_on_c, 11, 62, 76
13, 56489, Note_on_c, 11, 62, 0
13, 56520, Note_on_c, 11, 65, 76
13, 56579, Note_on_c, 11, 65, 0
13, 56580, Note_on_c, 11, 64, 76
13, 56639, Note_on_c, 11, 64, 0
13, 56640, Note_on_c, 11, 60, 76
13, 56819, Note_on_c, 11, 60, 0
13, 57000, Note_on_c, 11, 64, 76
13, 57059, Note_on_c, 11, 64, 0
13, 57060, Note_on_c, 11, 62, 76
13, 57119, Note_on_c, 11, 62, 0
13, 57120, Note_on_c, 11, 60, 76
13, 57209, Note_on_c, 11, 60, 0
13, 57240, Note_on_c, 11, 64, 76
13, 57299, Note_on_c, 11, 64, 0
13, 57300, Note_on_c, 11, 62, 76
13, 57359, Note_on_c, 11, 62, 0
13, 57360, Note_on_c, 11, 60, 76
13, 57449, Note_on_c, 11, 60, 0
13, 57480, Note_on_c, 11, 69, 76
13, 57539, Note_on_c, 11, 69, 0
13, 57540, Note_on_c, 11, 66, 76
13, 57599, Note_on_c, 11, 66, 0
13, 57600, Note_on_c, 11, 67, 76
13, 57779, Note_on_c, 11, 67, 0
13, 57960, Note_on_c, 11, 69, 76
13, 58019, Note_on_c, 11, 69, 0
13, 58020, Note_on_c, 11, 67, 76
13, 58079, Note_on_c, 11, 67, 0
13, 58080, Note_on_c, 11, 64, 76
13, 58169, Note_on_c, 11, 64, 0
13, 58200, Note_on_c, 11, 67, 76
13, 58259, Note_on_c, 11, 67, 0
13, 58260, Note_on_c, 11, 65, 76
13, 58319, Note_on_c, 11, 65, 0
13, 58320, Note_on_c, 11, 62, 76
13, 58409, Note_on_c, 11, 62, 0
13, 58440, Note_on_c, 11, 65, 76
13, 58499, Note_on_c, 11, 65, 0
13, 58500, Note_on_c, 11, 64, 76
13, 58559, Note_on_c, 11, 64, 0
13, 58560, Note_on_c, 11, 60, 76
13, 58649, Note_on_c, 11, 60, 0
13, 58680, Note_on_c, 11, 67, 75
13, 58739, Note_on_c, 11, 67, 0
13, 58740, Note_on_c, 11, 64, 74
13, 58799, Note_on_c, 11, 64, 0
13, 58800, Note_on_c, 11, 62, 73
13, 58889, Note_on_c, 11, 62, 0
13, 58920, Note_on_c, 11, 67, 72
13, 58979, Note_on_c, 11, 67, 0
13, 58980, Note_on_c, 11, 65, 71
13, 59039, Note_on_c, 11, 65, 0
13, 59040, Note_on_c, 11, 60, 70
13, 59129, Note_on_c, 11, 60, 0
13, 59160, Note_on_c, 11, 67, 69
13, 59219, Note_on_c, 11, 67, 0
13, 59220, Note_on_c, 11, 64, 68
13, 59279, Note_on_c, 11, 64, 0
13, 59280, Note_on_c, 11, 62, 67
13, 59369, Note_on_c, 11, 62, 0
13, 59400, Note_on_c, 11, 67, 66
13, 59459, Note_on_c, 11, 67, 0
13, 59460, Note_on_c, 11, 65, 65
13, 59519, Note_on_c, 11, 65, 0
13, 59520, Note_on_c, 11, 60, 64
13, 59609, Note_on_c, 11, 60, 0
13, 59640, Note_on_c, 11, 67, 63
13, 59699, Note_on_c, 11, 67, 0
13, 59700, Note_on_c, 11, 64, 62
13, 59759, Note_on_c, 11, 64, 0
13, 59760, Note_on_c, 11, 62, 61
13, 59849, Note_on_c, 11, 62, 0
13, 59880, Note_on_c, 11, 67, 60
13, 59939, Note_on_c, 11, 67, 0
13, 59940, Note_on_c, 11, 65, 59
13, 59999, Note_on_c, 11, 65, 0
13, 60000, Note_on_c, 11, 60, 58
13, 60089, Note_on_c, 11, 60, 0
13, 60120, Note_on_c, 11, 67, 57
13, 60179, Note_on_c, 11, 67, 0
13, 60180, Note_on_c, 11, 64, 56
13, 60239, Note_on_c, 11, 64, 0
13, 60240, Note_on_c, 11, 62, 55
13, 60329, Note_on_c, 11, 62, 0
13, 60360, Note_on_c, 11, 67, 54
13, 60419, Note_on_c, 11, 67, 0
13, 60420, Note_on_c, 11, 65, 53
13, 60479, Note_on_c, 11, 65, 0
13, 60480, Note_on_c, 11, 60, 52
13, 60569, Note_on_c, 11, 60, 0
13, 60600, Note_on_c, 11, 67, 52
13, 60659, Note_on_c, 11, 67, 0
13, 60660, Note_on_c, 11, 64, 52
13, 60719, Note_on_c, 11, 64, 0
13, 60720, Note_on_c, 11, 62, 52
13, 60809, Note_on_c, 11, 62, 0
13, 60840, Note_on_c, 11, 67, 52
13, 60899, Note_on_c, 11, 67, 0
13, 60900, Note_on_c, 11, 65, 52
13, 60959, Note_on_c, 11, 65, 0
13, 60960, Note_on_c, 11, 60, 52
13, 61049, Note_on_c, 11, 60, 0
13, 61080, Note_on_c, 11, 67, 52
13, 61139, Note_on_c, 11, 67, 0
13, 61140, Note_on_c, 11, 64, 51
13, 61199, Note_on_c, 11, 64, 0
13, 61200, Note_on_c, 11, 62, 51
13, 61289, Note_on_c, 11, 62, 0
13, 61320, Note_on_c, 11, 67, 50
13, 61379, Note_on_c, 11, 67, 0
13, 61380, Note_on_c, 11, 65, 50
13, 61439, Note_on_c, 11, 65, 0
13, 61440, Note_on_c, 11, 60, 50
13, 61529, Note_on_c, 11, 60, 0
13, 61560, Note_on_c, 11, 67, 49
13, 61619, Note_on_c, 11, 67, 0
13, 61620, Note_on_c, 11, 64, 49
13, 61679, Note_on_c, 11, 64, 0
13, 61680, Note_on_c, 11, 62, 48
13, 61769, Note_on_c, 11, 62, 0
13, 61800, Note_on_c, 11, 67, 48
13, 61859, Note_on_c, 11, 67, 0
13, 61860, Note_on_c, 11, 65, 47
13, 61919, Note_on_c, 11, 65, 0
13, 61920, Note_on_c, 11, 60, 47
13, 62009, Note_on_c, 11, 60, 0
13, 62040, Note_on_c, 11, 67, 46
13, 62099, Note_on_c, 11, 67, 0
13, 62100, Note_on_c, 11, 64, 46
13, 62159, Note_on_c, 11, 64, 0
13, 62160, Note_on_c, 11, 62, 46
13, 62249, Note_on_c, 11, 62, 0
13, 62280, Note_on_c, 11, 67, 45
13, 62339, Note_on_c, 11, 67, 0
13, 62340, Note_on_c, 11, 65, 45
13, 62391, Note_on_c, 11, 65, 0
13, 62400, Note_on_c, 11, 60, 44
13, 62639, Note_on_c, 11, 60, 0
13, 62640, Note_on_c, 11, 55, 44
13, 62879, Note_on_c, 11, 55, 0
13, 62880, Note_on_c, 11, 60, 44
13, 63119, Note_on_c, 11, 60, 0
13, 63120, Note_on_c, 11, 55, 44
13, 63359, Note_on_c, 11, 55, 0
13, 63360, Note_on_c, 11, 60, 44
13, 63599, Note_on_c, 11, 60, 0
13, 63600, Note_on_c, 11, 55, 44
13, 63839, Note_on_c, 11, 55, 0
13, 63840, Note_on_c, 11, 60, 44
13, 64079, Note_on_c, 11, 60, 0
13, 64080, Note_on_c, 11, 55, 44
13, 64319, Note_on_c, 11, 55, 0
13, 64320, Note_on_c, 11, 60, 44
13, 64409, Note_on_c, 11, 60, 0
13, 65880, Note_on_c, 11, 69, 76
13, 65999, Note_on_c, 11, 69, 0
13, 66000, Note_on_c, 11, 70, 76
13, 66104, Note_on_c, 11, 70, 0
13, 66120, Note_on_c, 11, 74, 76
13, 66209, Note_on_c, 11, 74, 0
13, 67200, Note_on_c, 11, 65, 52
13, 67319, Note_on_c, 11, 65, 0
13, 67320, Note_on_c, 11, 64, 52
13, 67439, Note_on_c, 11, 64, 0
13, 67440, Note_on_c, 11, 65, 52
13, 67559, Note_on_c, 11, 65, 0
13, 67560, Note_on_c, 11, 67, 52
13, 67619, Note_on_c, 11, 67, 0
13, 67620, Note_on_c, 11, 65, 52
13, 67671, Note_on_c, 11, 65, 0
13, 67680, Note_on_c, 11, 64, 52
13, 68159, Note_on_c, 11, 64, 0
13, 68280, Note_on_c, 11, 57, 52
13, 68399, Note_on_c, 11, 57, 0
13, 68400, Note_on_c, 11, 58, 52
13, 68519, Note_on_c, 11, 58, 0
13, 68520, Note_on_c, 11, 62, 52
13, 68639, Note_on_c, 11, 62, 0
13, 68640, Note_on_c, 11, 60, 52
13, 69224, Note_on_c, 11, 60, 0
13, 69240, Note_on_c, 11, 57, 52
13, 69359, Note_on_c, 11, 57, 0
13, 69360, Note_on_c, 11, 58, 52
13, 69479, Note_on_c, 11, 58, 0
13, 69480, Note_on_c, 11, 62, 52
13, 69599, Note_on_c, 11, 62, 0
13, 69600, Note_on_c, 11, 60, 52
13, 70064, Note_on_c, 11, 60, 0
13, 70078, Control_c, 11, 11, 80
13, 70080, Note_on_c, 11, 60, 76
13, 70120, Control_c, 11, 11, 82
13, 70160, Control_c, 11, 11, 84
13, 70200, Control_c, 11, 11, 86
13, 70240, Control_c, 11, 11, 88
13, 70280, Control_c, 11, 11, 90
13, 70319, Note_on_c, 11, 60, 0
13, 70320, Note_on_c, 11, 65, 76
13, 70320, Control_c, 11, 11, 92
13, 70360, Control_c, 11, 11, 94
13, 70400, Control_c, 11, 11, 96
13, 70440, Control_c, 11, 11, 98
13, 70480, Control_c, 11, 11, 100
13, 70520, Control_c, 11, 11, 102
13, 70559, Note_on_c, 11, 65, 0
13, 70560, Note_on_c, 11, 64, 76
13, 70560, Control_c, 11, 11, 104
13, 70600, Control_c, 11, 11, 105
13, 70640, Control_c, 11, 11, 107
13, 70680, Control_c, 11, 11, 109
13, 70720, Control_c, 11, 11, 111
13, 70760, Control_c, 11, 11, 113
13, 70800, Control_c, 11, 11, 115
13, 70840, Control_c, 11, 11, 117
13, 70880, Control_c, 11, 11, 119
13, 70919, Note_on_c, 11, 64, 0
13, 70920, Note_on_c, 11, 65, 76
13, 70920, Control_c, 11, 11, 121
13, 70960, Control_c, 11, 11, 123
13, 71000, Control_c, 11, 11, 125
13, 71024, Note_on_c, 11, 65, 0
13, 71040, Control_c, 11, 11, 127
13, 71040, Note_on_c, 11, 70, 76
13, 71279, Note_on_c, 11, 70, 0
13, 71280, Note_on_c, 11, 69, 76
13, 71504, Note_on_c, 11, 69, 0
13, 71520, Note_on_c, 11, 64, 76
13, 71984, Note_on_c, 11, 64, 0
13, 72000, Note_on_c, 11, 65, 76
13, 72224, Note_on_c, 11, 65, 0
13, 72240, Note_on_c, 11, 65, 76
13, 72479, Note_on_c, 11, 65, 0
13, 72480, Note_on_c, 11, 64, 76
13, 72839, Note_on_c, 11, 64, 0
13, 72840, Note_on_c, 11, 65, 76
13, 72944, Note_on_c, 11, 65, 0
13, 72958, Control_c, 11, 11, 80
13, 72960, Note_on_c, 11, 70, 76
13, 73199, Note_on_c, 11, 70, 0
13, 73200, Note_on_c, 11, 69, 76
13, 73424, Note_on_c, 11, 69, 0
13, 73440, Control_c, 11, 11, 80
13, 73440, Note_on_c, 11, 64, 76
13, 73493, Control_c, 11, 11, 81
13, 73547, Control_c, 11, 11, 83
13, 73600, Control_c, 11, 11, 84
13, 73653, Control_c, 11, 11, 85
13, 73707, Control_c, 11, 11, 87
13, 73760, Control_c, 11, 11, 88
13, 73784, Note_on_c, 11, 64, 0
13, 73800, Note_on_c, 11, 65, 76
13, 73813, Control_c, 11, 11, 89
13, 73867, Control_c, 11, 11, 90
13, 73904, Note_on_c, 11, 65, 0
13, 73920, Note_on_c, 11, 64, 76
13, 73920, Control_c, 11, 11, 92
13, 73973, Control_c, 11, 11, 93
13, 74027, Control_c, 11, 11, 94
13, 74080, Control_c, 11, 11, 96
13, 74133, Control_c, 11, 11, 97
13, 74187, Control_c, 11, 11, 98
13, 74240, Control_c, 11, 11, 100
13, 74264, Note_on_c, 11, 64, 0
13, 74280, Note_on_c, 11, 65, 76
13, 74293, Control_c, 11, 11, 101
13, 74347, Control_c, 11, 11, 102
13, 74384, Note_on_c, 11, 65, 0
13, 74400, Control_c, 11, 11, 104
13, 74400, Note_on_c, 11, 64, 76
13, 74453, Control_c, 11, 11, 105
13, 74507, Control_c, 11, 11, 106
13, 74560, Control_c, 11, 11, 107
13, 74613, Control_c, 11, 11, 109
13, 74667, Control_c, 11, 11, 110
13, 74720, Control_c, 11, 11, 111
13, 74744, Note_on_c, 11, 64, 0
13, 74760, Note_on_c, 11, 65, 76
13, 74773, Control_c, 11, 11, 113
13, 74827, Control_c, 11, 11, 114
13, 74864, Note_on_c, 11, 65, 0
13, 74880, Control_c, 11, 11, 115
13, 74880, Note_on_c, 11, 64, 76
13, 74933, Control_c, 11, 11, 117
13, 74987, Control_c, 11, 11, 118
13, 75040, Control_c, 11, 11, 119
13, 75093, Control_c, 11, 11, 120
13, 75147, Control_c, 11, 11, 122
13, 75200, Control_c, 11, 11, 123
13, 75224, Note_on_c, 11, 64, 0
13, 75240, Note_on_c, 11, 65, 76
13, 75253, Control_c, 11, 11, 124
13, 75307, Control_c, 11, 11, 127
13, 75344, Note_on_c, 11, 65, 0
13, 75360, Note_on_c, 11, 64, 76
13, 75704, Note_on_c, 11, 64, 0
13, 75720, Note_on_c, 11, 65, 76
13, 75824, Note_on_c, 11, 65, 0
13, 75840, Control_c, 11, 11, 127
13, 75840, Note_on_c, 11, 64, 76
13, 75893, Control_c, 11, 11, 125
13, 75947, Control_c, 11, 11, 124
13, 76000, Control_c, 11, 11, 122
13, 76053, Control_c, 11, 11, 120
13, 76107, Control_c, 11, 11, 118
13, 76160, Control_c, 11, 11, 117
13, 76184, Note_on_c, 11, 64, 0
13, 76200, Note_on_c, 11, 65, 76
13, 76213, Control_c, 11, 11, 115
13, 76267, Control_c, 11, 11, 113
13, 76304, Note_on_c, 11, 65, 0
13, 76320, Note_on_c, 11, 64, 76
13, 76320, Control_c, 11, 11, 111
13, 76373, Control_c, 11, 11, 110
13, 76427, Control_c, 11, 11, 108
13, 76480, Control_c, 11, 11, 106
13, 76533, Control_c, 11, 11, 104
13, 76587, Control_c, 11, 11, 103
13, 76640, Control_c, 11, 11, 101
13, 76664, Note_on_c, 11, 64, 0
13, 76680, Note_on_c, 11, 65, 76
13, 76693, Control_c, 11, 11, 99
13, 76747, Control_c, 11, 11, 97
13, 76784, Note_on_c, 11, 65, 0
13, 76800, Note_on_c, 11, 64, 76
13, 76800, Control_c, 11, 11, 96
13, 76853, Control_c, 11, 11, 94
13, 76907, Control_c, 11, 11, 92
13, 76960, Control_c, 11, 11, 90
13, 77013, Control_c, 11, 11, 89
13, 77067, Control_c, 11, 11, 87
13, 77120, Control_c, 11, 11, 85
13, 77144, Note_on_c, 11, 64, 0
13, 77160, Note_on_c, 11, 65, 76
13, 77173, Control_c, 11, 11, 83
13, 77227, Control_c, 11, 11, 82
13, 77264, Note_on_c, 11, 65, 0
13, 77280, Control_c, 11, 11, 80
13, 77280, Note_on_c, 11, 64, 76
13, 77333, Control_c, 11, 11, 78
13, 77387, Control_c, 11, 11, 76
13, 77440, Control_c, 11, 11, 75
13, 77493, Control_c, 11, 11, 73
13, 77547, Control_c, 11, 11, 71
13, 77600, Control_c, 11, 11, 69
13, 77624, Note_on_c, 11, 64, 0
13, 77640, Note_on_c, 11, 65, 76
13, 77653, Control_c, 11, 11, 68
13, 77707, Control_c, 11, 11, 64
13, 77744, Note_on_c, 11, 65, 0
13, 77760, Note_on_c, 11, 64, 76
13, 77879, Note_on_c, 11, 64, 0
13, 78240, Control_c, 11, 11, 127
13, 78360, Note_on_c, 11, 57, 44
13, 78419, Note_on_c, 11, 57, 0
13, 78420, Note_on_c, 11, 58, 44
13, 78471, Note_on_c, 11, 58, 0
13, 78480, Note_on_c, 11, 60, 44
13, 78569, Note_on_c, 11, 60, 0
13, 78600, Note_on_c, 11, 61, 44
13, 78689, Note_on_c, 11, 61, 0
13, 78720, Note_on_c, 11, 62, 44
13, 78809, Note_on_c, 11, 62, 0
13, 78840, Note_on_c, 11, 58, 44
13, 78899, Note_on_c, 11, 58, 0
13, 78900, Note_on_c, 11, 60, 44
13, 78951, Note_on_c, 11, 60, 0
13, 78960, Note_on_c, 11, 62, 44
13, 79049, Note_on_c, 11, 62, 0
13, 79080, Note_on_c, 11, 64, 44
13, 79169, Note_on_c, 11, 64, 0
13, 79200, Note_on_c, 11, 65, 44
13, 79289, Note_on_c, 11, 65, 0
13, 79320, Note_on_c, 11, 62, 44
13, 79379, Note_on_c, 11, 62, 0
13, 79380, Note_on_c, 11, 64, 44
13, 79431, Note_on_c, 11, 64, 0
13, 79440, Note_on_c, 11, 65, 44
13, 79529, Note_on_c, 11, 65, 0
13, 79560, Note_on_c, 11, 67, 44
13, 79649, Note_on_c, 11, 67, 0
13, 79680, Note_on_c, 11, 69, 44
13, 79799, Note_on_c, 11, 69, 0
13, 81120, Control_c, 11, 11, 64
13, 81600, Control_c, 11, 11, 64
13, 81600, Note_on_c, 11, 72, 76
13, 81653, Control_c, 11, 11, 66
13, 81707, Control_c, 11, 11, 68
13, 81760, Control_c, 11, 11, 69
13, 81813, Control_c, 11, 11, 71
13, 81867, Control_c, 11, 11, 73
13, 81920, Control_c, 11, 11, 75
13, 81973, Control_c, 11, 11, 76
13, 82027, Control_c, 11, 11, 78
13, 82080, Control_c, 11, 11, 80
13, 82133, Control_c, 11, 11, 82
13, 82187, Control_c, 11, 11, 83
13, 82240, Control_c, 11, 11, 85
13, 82293, Control_c, 11, 11, 87
13, 82347, Control_c, 11, 11, 89
13, 82400, Control_c, 11, 11, 90
13, 82453, Control_c, 11, 11, 92
13, 82507, Control_c, 11, 11, 94
13, 82559, Note_on_c, 11, 72, 0
13, 82560, Control_c, 11, 11, 96
13, 82560, Note_on_c, 11, 72, 76
13, 82613, Control_c, 11, 11, 97
13, 82667, Control_c, 11, 11, 99
13, 82720, Control_c, 11, 11, 101
13, 82773, Control_c, 11, 11, 103
13, 82827, Control_c, 11, 11, 104
13, 82880, Control_c, 11, 11, 106
13, 82933, Control_c, 11, 11, 108
13, 82987, Control_c, 11, 11, 110
13, 83040, Control_c, 11, 11, 111
13, 83093, Control_c, 11, 11, 113
13, 83147, Control_c, 11, 11, 115
13, 83200, Control_c, 11, 11, 117
13, 83253, Control_c, 11, 11, 118
13, 83307, Control_c, 11, 11, 120
13, 83360, Control_c, 11, 11, 122
13, 83413, Control_c, 11, 11, 124
13, 83467, Control_c, 11, 11, 127
13, 83504, Note_on_c, 11, 72, 0
13, 83520, Note_on_c, 11, 69, 76
13, 83609, Note_on_c, 11, 69, 0
13, 83640, Note_on_c, 11, 69, 76
13, 83729, Note_on_c, 11, 69, 0
13, 83760, Note_on_c, 11, 70, 76
13, 83849, Note_on_c, 11, 70, 0
13, 83880, Note_on_c, 11, 74, 76
13, 83969, Note_on_c, 11, 74, 0
13, 84000, Note_on_c, 11, 72, 76
13, 84119, Note_on_c, 11, 72, 0
13, 84120, Note_on_c, 11, 70, 76
13, 84179, Note_on_c, 11, 70, 0
13, 84180, Note_on_c, 11, 69, 76
13, 84231, Note_on_c, 11, 69, 0
13, 84240, Note_on_c, 11, 67, 76
13, 84329, Note_on_c, 11, 67, 0
13, 84360, Note_on_c, 11, 60, 76
13, 84449, Note_on_c, 11, 60, 0
13, 84480, Note_on_c, 11, 65, 76
13, 84569, Note_on_c, 11, 65, 0
13, 84600, Note_on_c, 11, 76, 76
13, 84689, Note_on_c, 11, 76, 0
13, 84720, Note_on_c, 11, 77, 76
13, 84839, Note_on_c, 11, 77, 0
13, 84840, Note_on_c, 11, 79, 76
13, 84899, Note_on_c, 11, 79, 0
13, 84900, Note_on_c, 11, 77, 76
13, 84951, Note_on_c, 11, 77, 0
13, 84960, Note_on_c, 11, 76, 76
13, 85049, Note_on_c, 11, 76, 0
13, 85080, Note_on_c, 11, 77, 76
13, 85169, Note_on_c, 11, 77, 0
13, 85200, Note_on_c, 11, 79, 76
13, 85319, Note_on_c, 11, 79, 0
13, 85320, Note_on_c, 11, 81, 76
13, 85379, Note_on_c, 11, 81, 0
13, 85380, Note_on_c, 11, 79, 76
13, 85431, Note_on_c, 11, 79, 0
13, 85440, Note_on_c, 11, 77, 76
13, 85559, Note_on_c, 11, 77, 0
13, 85560, Note_on_c, 11, 81, 76
13, 85664, Note_on_c, 11, 81, 0
13, 85680, Note_on_c, 11, 81, 76
13, 85769, Note_on_c, 11, 81, 0
13, 85800, Note_on_c, 11, 81, 76
13, 85889, Note_on_c, 11, 81, 0
13, 85920, Note_on_c, 11, 81, 76
13, 86159, Note_on_c, 11, 81, 0
13, 86160, Note_on_c, 11, 79, 76
13, 86219, Note_on_c, 11, 79, 0
13, 86220, Note_on_c, 11, 77, 76
13, 86279, Note_on_c, 11, 77, 0
13, 86280, Note_on_c, 11, 76, 76
13, 86339, Note_on_c, 11, 76, 0
13, 86340, Note_on_c, 11, 74, 76
13, 86391, Note_on_c, 11, 74, 0
13, 86400, Note_on_c, 11, 72, 76
13, 86489, Note_on_c, 11, 72, 0
13, 86520, Note_on_c, 11, 74, 76
13, 86609, Note_on_c, 11, 74, 0
13, 86640, Note_on_c, 11, 76, 76
13, 86759, Note_on_c, 11, 76, 0
13, 86760, Note_on_c, 11, 77, 76
13, 86819, Note_on_c, 11, 77, 0
13, 86820, Note_on_c, 11, 76, 76
13, 86871, Note_on_c, 11, 76, 0
13, 86880, Note_on_c, 11, 74, 76
13, 86969, Note_on_c, 11, 74, 0
13, 87000, Note_on_c, 11, 76, 76
13, 87089, Note_on_c, 11, 76, 0
13, 87120, Note_on_c, 11, 77, 76
13, 87239, Note_on_c, 11, 77, 0
13, 87240, Note_on_c, 11, 79, 76
13, 87299, Note_on_c, 11, 79, 0
13, 87300, Note_on_c, 11, 77, 76
13, 87351, Note_on_c, 11, 77, 0
13, 87360, Note_on_c, 11, 76, 76
13, 87479, Note_on_c, 11, 76, 0
13, 87480, Note_on_c, 11, 79, 76
13, 87584, Note_on_c, 11, 79, 0
13, 87600, Note_on_c, 11, 79, 76
13, 87689, Note_on_c, 11, 79, 0
13, 87720, Note_on_c, 11, 79, 76
13, 87809, Note_on_c, 11, 79, 0
13, 87840, Note_on_c, 11, 79, 76
13, 88079, Note_on_c, 11, 79, 0
13, 88080, Note_on_c, 11, 81, 76
13, 88139, Note_on_c, 11, 81, 0
13, 88140, Note_on_c, 11, 79, 76
13, 88199, Note_on_c, 11, 79, 0
13, 88200, Note_on_c, 11, 77, 76
13, 88259, Note_on_c, 11, 77, 0
13, 88260, Note_on_c, 11, 76, 76
13, 88311, Note_on_c, 11, 76, 0
13, 88320, Note_on_c, 11, 77, 76
13, 88409, Note_on_c, 11, 77, 0
13, 88440, Note_on_c, 11, 79, 76
13, 88529, Note_on_c, 11, 79, 0
13, 88560, Note_on_c, 11, 81, 76
13, 88679, Note_on_c, 11, 81, 0
13, 88680, Note_on_c, 11, 82, 76
13, 88739, Note_on_c, 11, 82, 0
13, 88740, Note_on_c, 11, 81, 76
13, 88791, Note_on_c, 11, 81, 0
13, 88800, Note_on_c, 11, 79, 76
13, 88919, Note_on_c, 11, 79, 0
13, 88920, Note_on_c, 11, 76, 76
13, 89039, Note_on_c, 11, 76, 0
13, 89040, Note_on_c, 11, 79, 76
13, 89159, Note_on_c, 11, 79, 0
13, 89160, Note_on_c, 11, 76, 76
13, 89264, Note_on_c, 11, 76, 0
13, 89280, Note_on_c, 11, 77, 76
13, 89369, Note_on_c, 11, 77, 0
13, 89400, Note_on_c, 11, 79, 76
13, 89489, Note_on_c, 11, 79, 0
13, 89520, Note_on_c, 11, 81, 76
13, 89639, Note_on_c, 11, 81, 0
13, 89640, Note_on_c, 11, 82, 76
13, 89699, Note_on_c, 11, 82, 0
13, 89700, Note_on_c, 11, 81, 76
13, 89751, Note_on_c, 11, 81, 0
13, 89760, Note_on_c, 11, 79, 76
13, 89879, Note_on_c, 11, 79, 0
13, 89880, Note_on_c, 11, 76, 76
13, 89999, Note_on_c, 11, 76, 0
13, 90000, Note_on_c, 11, 79, 76
13, 90119, Note_on_c, 11, 79, 0
13, 90120, Note_on_c, 11, 76, 76
13, 90224, Note_on_c, 11, 76, 0
13, 90240, Note_on_c, 11, 77, 76
13, 90359, Note_on_c, 11, 77, 0
13, 90360, Note_on_c, 11, 76, 76
13, 90479, Note_on_c, 11, 76, 0
13, 90480, Note_on_c, 11, 79, 76
13, 90599, Note_on_c, 11, 79, 0
13, 90600, Note_on_c, 11, 76, 76
13, 90704, Note_on_c, 11, 76, 0
13, 90720, Note_on_c, 11, 77, 76
13, 90839, Note_on_c, 11, 77, 0
13, 90840, Note_on_c, 11, 76, 76
13, 90959, Note_on_c, 11, 76, 0
13, 90960, Note_on_c, 11, 79, 76
13, 91079, Note_on_c, 11, 79, 0
13, 91080, Note_on_c, 11, 76, 76
13, 91184, Note_on_c, 11, 76, 0
13, 91200, Note_on_c, 11, 77, 76
13, 91200, Note_on_c, 11, 69, 76
13, 91319, Note_on_c, 11, 77, 0
13, 91319, Note_on_c, 11, 69, 0
13, 92880, Program_c, 11, 45
13, 93120, Note_on_c, 11, 65, 48
13, 93120, Note_on_c, 11, 69, 48
13, 93239, Note_on_c, 11, 65, 0
13, 93239, Note_on_c, 11, 69, 0
13, 95040, Note_on_c, 11, 65, 48
13, 95040, Note_on_c, 11, 69, 48
13, 95279, Note_on_c, 11, 65, 0
13, 95279, Note_on_c, 11, 69, 0
13, 96000, Note_on_c, 11, 74, 48
13, 96000, Note_on_c, 11, 65, 48
13, 96239, Note_on_c, 11, 74, 0
13, 96239, Note_on_c, 11, 65, 0
13, 96960, Program_c, 11, 48
13, 97080, Note_on_c, 11, 69, 52
13, 97199, Note_on_c, 11, 69, 0
13, 97200, Note_on_c, 11, 67, 52
13, 97304, Note_on_c, 11, 67, 0
13, 97320, Note_on_c, 11, 66, 52
13, 97409, Note_on_c, 11, 66, 0
13, 97440, Note_on_c, 11, 67, 52
13, 97559, Note_on_c, 11, 67, 0
13, 97920, Note_on_c, 11, 59, 52
13, 98039, Note_on_c, 11, 59, 0
13, 98040, Note_on_c, 11, 62, 52
13, 98159, Note_on_c, 11, 62, 0
13, 98160, Note_on_c, 11, 59, 52
13, 98279, Note_on_c, 11, 59, 0
13, 98280, Note_on_c, 11, 62, 52
13, 98399, Note_on_c, 11, 62, 0
13, 98400, Note_on_c, 11, 59, 52
13, 98519, Note_on_c, 11, 59, 0
13, 98520, Note_on_c, 11, 62, 52
13, 98639, Note_on_c, 11, 62, 0
13, 98640, Note_on_c, 11, 59, 52
13, 98759, Note_on_c, 11, 59, 0
13, 98760, Note_on_c, 11, 62, 52
13, 98864, Note_on_c, 11, 62, 0
13, 98880, Note_on_c, 11, 60, 52
13, 98999, Note_on_c, 11, 60, 0
13, 99000, Note_on_c, 11, 64, 52
13, 99119, Note_on_c, 11, 64, 0
13, 99120, Note_on_c, 11, 60, 52
13, 99239, Note_on_c, 11, 60, 0
13, 99240, Note_on_c, 11, 64, 52
13, 99359, Note_on_c, 11, 64, 0
13, 99360, Note_on_c, 11, 60, 52
13, 99479, Note_on_c, 11, 60, 0
13, 99480, Note_on_c, 11, 64, 52
13, 99599, Note_on_c, 11, 64, 0
13, 99600, Note_on_c, 11, 60, 52
13, 99719, Note_on_c, 11, 60, 0
13, 99720, Note_on_c, 11, 64, 52
13, 99824, Note_on_c, 11, 64, 0
13, 99840, Note_on_c, 11, 69, 52
13, 99959, Note_on_c, 11, 69, 0
13, 99960, Note_on_c, 11, 67, 52
13, 100079, Note_on_c, 11, 67, 0
13, 100080, Note_on_c, 11, 65, 52
13, 100199, Note_on_c, 11, 65, 0
13, 100200, Note_on_c, 11, 62, 52
13, 100319, Note_on_c, 11, 62, 0
13, 100320, Note_on_c, 11, 55, 52
13, 100439, Note_on_c, 11, 55, 0
13, 100440, Note_on_c, 11, 65, 52
13, 100559, Note_on_c, 11, 65, 0
13, 100560, Note_on_c, 11, 62, 52
13, 100679, Note_on_c, 11, 62, 0
13, 100680, Note_on_c, 11, 55, 52
13, 100784, Note_on_c, 11, 55, 0
13, 100800, Note_on_c, 11, 69, 52
13, 100919, Note_on_c, 11, 69, 0
13, 100920, Note_on_c, 11, 67, 52
13, 101039, Note_on_c, 11, 67, 0
13, 101040, Note_on_c, 11, 64, 52
13, 101159, Note_on_c, 11, 64, 0
13, 101160, Note_on_c, 11, 60, 52
13, 101279, Note_on_c, 11, 60, 0
13, 101280, Note_on_c, 11, 55, 52
13, 101399, Note_on_c, 11, 55, 0
13, 101400, Note_on_c, 11, 64, 52
13, 101519, Note_on_c, 11, 64, 0
13, 101520, Note_on_c, 11, 60, 52
13, 101639, Note_on_c, 11, 60, 0
13, 101640, Note_on_c, 11, 55, 52
13, 101744, Note_on_c, 11, 55, 0
13, 101760, Note_on_c, 11, 62, 52
13, 101879, Note_on_c, 11, 62, 0
13, 101880, Note_on_c, 11, 59, 52
13, 101999, Note_on_c, 11, 59, 0
13, 102000, Note_on_c, 11, 62, 52
13, 102119, Note_on_c, 11, 62, 0
13, 102120, Note_on_c, 11, 59, 53
13, 102239, Note_on_c, 11, 59, 0
13, 102240, Note_on_c, 11, 62, 53
13, 102359, Note_on_c, 11, 62, 0
13, 102360, Note_on_c, 11, 59, 53
13, 102479, Note_on_c, 11, 59, 0
13, 102480, Note_on_c, 11, 62, 54
13, 102599, Note_on_c, 11, 62, 0
13, 102600, Note_on_c, 11, 59, 54
13, 102704, Note_on_c, 11, 59, 0
13, 102720, Note_on_c, 11, 64, 54
13, 102839, Note_on_c, 11, 64, 0
13, 102840, Note_on_c, 11, 60, 55
13, 102959, Note_on_c, 11, 60, 0
13, 102960, Note_on_c, 11, 64, 55
13, 103079, Note_on_c, 11, 64, 0
13, 103080, Note_on_c, 11, 60, 55
13, 103199, Note_on_c, 11, 60, 0
13, 103200, Note_on_c, 11, 64, 56
13, 103319, Note_on_c, 11, 64, 0
13, 103320, Note_on_c, 11, 60, 56
13, 103439, Note_on_c, 11, 60, 0
13, 103440, Note_on_c, 11, 64, 56
13, 103559, Note_on_c, 11, 64, 0
13, 103560, Note_on_c, 11, 60, 57
13, 103664, Note_on_c, 11, 60, 0
13, 103680, Note_on_c, 11, 65, 57
13, 103799, Note_on_c, 11, 65, 0
13, 103800, Note_on_c, 11, 62, 57
13, 103919, Note_on_c, 11, 62, 0
13, 103920, Note_on_c, 11, 67, 58
13, 104039, Note_on_c, 11, 67, 0
13, 104040, Note_on_c, 11, 62, 58
13, 104159, Note_on_c, 11, 62, 0
13, 104160, Note_on_c, 11, 67, 58
13, 104279, Note_on_c, 11, 67, 0
13, 104280, Note_on_c, 11, 62, 59
13, 104399, Note_on_c, 11, 62, 0
13, 104400, Note_on_c, 11, 67, 59
13, 104519, Note_on_c, 11, 67, 0
13, 104520, Note_on_c, 11, 62, 59
13, 104624, Note_on_c, 11, 62, 0
13, 104640, Note_on_c, 11, 67, 60
13, 104759, Note_on_c, 11, 67, 0
13, 104760, Note_on_c, 11, 64, 60
13, 104879, Note_on_c, 11, 64, 0
13, 104880, Note_on_c, 11, 67, 60
13, 104999, Note_on_c, 11, 67, 0
13, 105000, Note_on_c, 11, 64, 61
13, 105119, Note_on_c, 11, 64, 0
13, 105120, Note_on_c, 11, 67, 61
13, 105239, Note_on_c, 11, 67, 0
13, 105240, Note_on_c, 11, 64, 61
13, 105359, Note_on_c, 11, 64, 0
13, 105360, Note_on_c, 11, 67, 62
13, 105479, Note_on_c, 11, 67, 0
13, 105480, Note_on_c, 11, 64, 62
13, 105584, Note_on_c, 11, 64, 0
13, 105600, Note_on_c, 11, 74, 62
13, 105679, Note_on_c, 11, 74, 0
13, 105680, Note_on_c, 11, 71, 62
13, 105759, Note_on_c, 11, 71, 0
13, 105760, Note_on_c, 11, 74, 63
13, 105839, Note_on_c, 11, 74, 0
13, 105840, Note_on_c, 11, 71, 63
13, 105919, Note_on_c, 11, 71, 0
13, 105920, Note_on_c, 11, 74, 63
13, 105999, Note_on_c, 11, 74, 0
13, 106000, Note_on_c, 11, 71, 63
13, 106079, Note_on_c, 11, 71, 0
13, 106080, Note_on_c, 11, 74, 64
13, 106159, Note_on_c, 11, 74, 0
13, 106160, Note_on_c, 11, 71, 64
13, 106239, Note_on_c, 11, 71, 0
13, 106240, Note_on_c, 11, 74, 64
13, 106319, Note_on_c, 11, 74, 0
13, 106320, Note_on_c, 11, 71, 64
13, 106399, Note_on_c, 11, 71, 0
13, 106400, Note_on_c, 11, 74, 64
13, 106479, Note_on_c, 11, 74, 0
13, 106480, Note_on_c, 11, 71, 65
13, 106547, Note_on_c, 11, 71, 0
13, 106560, Note_on_c, 11, 76, 65
13, 106639, Note_on_c, 11, 76, 0
13, 106640, Note_on_c, 11, 72, 65
13, 106719, Note_on_c, 11, 72, 0
13, 106720, Note_on_c, 11, 76, 65
13, 106799, Note_on_c, 11, 76, 0
13, 106800, Note_on_c, 11, 72, 66
13, 106879, Note_on_c, 11, 72, 0
13, 106880, Note_on_c, 11, 76, 66
13, 106959, Note_on_c, 11, 76, 0
13, 106960, Note_on_c, 11, 72, 66
13, 107039, Note_on_c, 11, 72, 0
13, 107040, Note_on_c, 11, 76, 66
13, 107119, Note_on_c, 11, 76, 0
13, 107120, Note_on_c, 11, 72, 66
13, 107199, Note_on_c, 11, 72, 0
13, 107200, Note_on_c, 11, 76, 67
13, 107279, Note_on_c, 11, 76, 0
13, 107280, Note_on_c, 11, 72, 67
13, 107359, Note_on_c, 11, 72, 0
13, 107360, Note_on_c, 11, 76, 67
13, 107439, Note_on_c, 11, 76, 0
13, 107440, Note_on_c, 11, 72, 67
13, 107507, Note_on_c, 11, 72, 0
13, 107520, Note_on_c, 11, 77, 68
13, 107579, Note_on_c, 11, 77, 0
13, 107580, Note_on_c, 11, 74, 68
13, 107639, Note_on_c, 11, 74, 0
13, 107640, Note_on_c, 11, 77, 68
13, 107699, Note_on_c, 11, 77, 0
13, 107700, Note_on_c, 11, 74, 68
13, 107759, Note_on_c, 11, 74, 0
13, 107760, Note_on_c, 11, 77, 68
13, 107819, Note_on_c, 11, 77, 0
13, 107820, Note_on_c, 11, 74, 68
13, 107879, Note_on_c, 11, 74, 0
13, 107880, Note_on_c, 11, 77, 69
13, 107939, Note_on_c, 11, 77, 0
13, 107940, Note_on_c, 11, 74, 69
13, 107999, Note_on_c, 11, 74, 0
13, 108000, Note_on_c, 11, 77, 69
13, 108059, Note_on_c, 11, 77, 0
13, 108060, Note_on_c, 11, 74, 69
13, 108119, Note_on_c, 11, 74, 0
13, 108120, Note_on_c, 11, 77, 69
13, 108179, Note_on_c, 11, 77, 0
13, 108180, Note_on_c, 11, 74, 69
13, 108239, Note_on_c, 11, 74, 0
13, 108240, Note_on_c, 11, 77, 70
13, 108299, Note_on_c, 11, 77, 0
13, 108300, Note_on_c, 11, 74, 70
13, 108359, Note_on_c, 11, 74, 0
13, 108360, Note_on_c, 11, 77, 70
13, 108419, Note_on_c, 11, 77, 0
13, 108420, Note_on_c, 11, 74, 70
13, 108471, Note_on_c, 11, 74, 0
13, 108480, Note_on_c, 11, 76, 70
13, 108539, Note_on_c, 11, 76, 0
13, 108540, Note_on_c, 11, 72, 70
13, 108599, Note_on_c, 11, 72, 0
13, 108600, Note_on_c, 11, 76, 71
13, 108659, Note_on_c, 11, 76, 0
13, 108660, Note_on_c, 11, 72, 71
13, 108719, Note_on_c, 11, 72, 0
13, 108720, Note_on_c, 11, 76, 71
13, 108779, Note_on_c, 11, 76, 0
13, 108780, Note_on_c, 11, 72, 71
13, 108839, Note_on_c, 11, 72, 0
13, 108840, Note_on_c, 11, 76, 71
13, 108899, Note_on_c, 11, 76, 0
13, 108900, Note_on_c, 11, 72, 71
13, 108959, Note_on_c, 11, 72, 0
13, 108960, Note_on_c, 11, 76, 72
13, 109019, Note_on_c, 11, 76, 0
13, 109020, Note_on_c, 11, 72, 72
13, 109079, Note_on_c, 11, 72, 0
13, 109080, Note_on_c, 11, 76, 72
13, 109139, Note_on_c, 11, 76, 0
13, 109140, Note_on_c, 11, 72, 72
13, 109199, Note_on_c, 11, 72, 0
13, 109200, Note_on_c, 11, 76, 72
13, 109259, Note_on_c, 11, 76, 0
13, 109260, Note_on_c, 11, 72, 72
13, 109319, Note_on_c, 11, 72, 0
13, 109320, Note_on_c, 11, 76, 73
13, 109379, Note_on_c, 11, 76, 0
13, 109380, Note_on_c, 11, 72, 73
13, 109431, Note_on_c, 11, 72, 0
13, 109440, Note_on_c, 11, 77, 73
13, 109499, Note_on_c, 11, 77, 0
13, 109500, Note_on_c, 11, 71, 73
13, 109559, Note_on_c, 11, 71, 0
13, 109560, Note_on_c, 11, 77, 73
13, 109619, Note_on_c, 11, 77, 0
13, 109620, Note_on_c, 11, 71, 73
13, 109679, Note_on_c, 11, 71, 0
13, 109680, Note_on_c, 11, 77, 74
13, 109739, Note_on_c, 11, 77, 0
13, 109740, Note_on_c, 11, 71, 74
13, 109799, Note_on_c, 11, 71, 0
13, 109800, Note_on_c, 11, 77, 74
13, 109859, Note_on_c, 11, 77, 0
13, 109860, Note_on_c, 11, 71, 74
13, 109919, Note_on_c, 11, 71, 0
13, 109920, Note_on_c, 11, 77, 74
13, 109979, Note_on_c, 11, 77, 0
13, 109980, Note_on_c, 11, 71, 74
13, 110039, Note_on_c, 11, 71, 0
13, 110040, Note_on_c, 11, 77, 75
13, 110099, Note_on_c, 11, 77, 0
13, 110100, Note_on_c, 11, 71, 75
13, 110159, Note_on_c, 11, 71, 0
13, 110160, Note_on_c, 11, 77, 75
13, 110219, Note_on_c, 11, 77, 0
13, 110220, Note_on_c, 11, 71, 75
13, 110279, Note_on_c, 11, 71, 0
13, 110280, Note_on_c, 11, 77, 75
13, 110339, Note_on_c, 11, 77, 0
13, 110340, Note_on_c, 11, 71, 75
13, 110391, Note_on_c, 11, 71, 0
13, 110400, Note_on_c, 11, 76, 76
13, 110759, Note_on_c, 11, 76, 0
13, 110760, Note_on_c, 11, 77, 76
13, 110819, Note_on_c, 11, 77, 0
13, 110820, Note_on_c, 11, 79, 76
13, 110871, Note_on_c, 11, 79, 0
13, 110880, Note_on_c, 11, 81, 76
13, 110999, Note_on_c, 11, 81, 0
13, 111000, Note_on_c, 11, 79, 76
13, 111059, Note_on_c, 11, 79, 0
13, 111060, Note_on_c, 11, 77, 76
13, 111119, Note_on_c, 11, 77, 0
13, 111120, Note_on_c, 11, 76, 76
13, 111239, Note_on_c, 11, 76, 0
13, 111240, Note_on_c, 11, 77, 76
13, 111299, Note_on_c, 11, 77, 0
13, 111300, Note_on_c, 11, 79, 76
13, 111351, Note_on_c, 11, 79, 0
13, 111360, Note_on_c, 11, 81, 76
13, 111479, Note_on_c, 11, 81, 0
13, 111480, Note_on_c, 11, 79, 76
13, 111539, Note_on_c, 11, 79, 0
13, 111540, Note_on_c, 11, 77, 76
13, 111599, Note_on_c, 11, 77, 0
13, 111600, Note_on_c, 11, 76, 76
13, 111719, Note_on_c, 11, 76, 0
13, 111720, Note_on_c, 11, 77, 76
13, 111779, Note_on_c, 11, 77, 0
13, 111780, Note_on_c, 11, 79, 76
13, 111831, Note_on_c, 11, 79, 0
13, 111840, Note_on_c, 11, 81, 76
13, 111959, Note_on_c, 11, 81, 0
13, 112320, Note_on_c, 11, 65, 52
13, 112439, Note_on_c, 11, 65, 0
13, 112440, Note_on_c, 11, 60, 52
13, 112559, Note_on_c, 11, 60, 0
13, 112560, Note_on_c, 11, 65, 52
13, 112679, Note_on_c, 11, 65, 0
13, 112680, Note_on_c, 11, 60, 52
13, 112799, Note_on_c, 11, 60, 0
13, 112800, Note_on_c, 11, 64, 52
13, 112919, Note_on_c, 11, 64, 0
13, 112920, Note_on_c, 11, 60, 52
13, 113039, Note_on_c, 11, 60, 0
13, 113040, Note_on_c, 11, 64, 52
13, 113159, Note_on_c, 11, 64, 0
13, 113160, Note_on_c, 11, 60, 52
13, 113279, Note_on_c, 11, 60, 0
13, 113280, Note_on_c, 11, 65, 52
13, 113399, Note_on_c, 11, 65, 0
13, 113400, Note_on_c, 11, 62, 52
13, 113519, Note_on_c, 11, 62, 0
13, 113520, Note_on_c, 11, 65, 52
13, 113639, Note_on_c, 11, 65, 0
13, 113640, Note_on_c, 11, 62, 52
13, 113744, Note_on_c, 11, 62, 0
13, 113760, Note_on_c, 11, 76, 84
13, 114119, Note_on_c, 11, 76, 0
13, 114120, Note_on_c, 11, 77, 84
13, 114179, Note_on_c, 11, 77, 0
13, 114180, Note_on_c, 11, 79, 84
13, 114231, Note_on_c, 11, 79, 0
13, 114240, Note_on_c, 11, 81, 84
13, 114359, Note_on_c, 11, 81, 0
13, 114360, Note_on_c, 11, 79, 84
13, 114419, Note_on_c, 11, 79, 0
13, 114420, Note_on_c, 11, 77, 84
13, 114479, Note_on_c, 11, 77, 0
13, 114480, Note_on_c, 11, 76, 84
13, 114599, Note_on_c, 11, 76, 0
13, 114600, Note_on_c, 11, 77, 84
13, 114659, Note_on_c, 11, 77, 0
13, 114660, Note_on_c, 11, 79, 84
13, 114711, Note_on_c, 11, 79, 0
13, 114720, Note_on_c, 11, 81, 84
13, 114839, Note_on_c, 11, 81, 0
13, 114840, Note_on_c, 11, 79, 84
13, 114899, Note_on_c, 11, 79, 0
13, 114900, Note_on_c, 11, 77, 84
13, 114959, Note_on_c, 11, 77, 0
13, 114960, Note_on_c, 11, 76, 84
13, 115079, Note_on_c, 11, 76, 0
13, 115080, Note_on_c, 11, 77, 84
13, 115139, Note_on_c, 11, 77, 0
13, 115140, Note_on_c, 11, 79, 84
13, 115191, Note_on_c, 11, 79, 0
13, 115200, Note_on_c, 11, 81, 76
13, 115319, Note_on_c, 11, 81, 0
13, 115680, Note_on_c, 11, 65, 52
13, 115799, Note_on_c, 11, 65, 0
13, 115800, Note_on_c, 11, 60, 52
13, 115919, Note_on_c, 11, 60, 0
13, 115920, Note_on_c, 11, 65, 52
13, 116039, Note_on_c, 11, 65, 0
13, 116040, Note_on_c, 11, 60, 52
13, 116159, Note_on_c, 11, 60, 0
13, 116160, Note_on_c, 11, 64, 52
13, 116279, Note_on_c, 11, 64, 0
13, 116280, Note_on_c, 11, 60, 52
13, 116399, Note_on_c, 11, 60, 0
13, 116400, Note_on_c, 11, 64, 52
13, 116519, Note_on_c, 11, 64, 0
13, 116520, Note_on_c, 11, 60, 52
13, 116639, Note_on_c, 11, 60, 0
13, 116640, Note_on_c, 11, 65, 52
13, 116759, Note_on_c, 11, 65, 0
13, 116760, Note_on_c, 11, 62, 52
13, 116879, Note_on_c, 11, 62, 0
13, 116880, Note_on_c, 11, 65, 52
13, 116999, Note_on_c, 11, 65, 0
13, 117000, Note_on_c, 11, 62, 52
13, 117119, Note_on_c, 11, 62, 0
13, 117120, Note_on_c, 11, 64, 52
13, 117224, Note_on_c, 11, 64, 0
13, 117240, Note_on_c, 11, 60, 52
13, 117344, Note_on_c, 11, 60, 0
13, 117360, Note_on_c, 11, 60, 53
13, 117464, Note_on_c, 11, 60, 0
13, 117480, Note_on_c, 11, 60, 55
13, 117584, Note_on_c, 11, 60, 0
13, 117600, Note_on_c, 11, 65, 56
13, 117719, Note_on_c, 11, 65, 0
13, 117720, Note_on_c, 11, 60, 58
13, 117839, Note_on_c, 11, 60, 0
13, 117840, Note_on_c, 11, 65, 60
13, 117959, Note_on_c, 11, 65, 0
13, 117960, Note_on_c, 11, 60, 61
13, 118079, Note_on_c, 11, 60, 0
13, 118080, Note_on_c, 11, 64, 63
13, 118199, Note_on_c, 11, 64, 0
13, 118200, Note_on_c, 11, 60, 64
13, 118319, Note_on_c, 11, 60, 0
13, 118320, Note_on_c, 11, 64, 66
13, 118439, Note_on_c, 11, 64, 0
13, 118440, Note_on_c, 11, 60, 68
13, 118559, Note_on_c, 11, 60, 0
13, 118560, Note_on_c, 11, 65, 69
13, 118679, Note_on_c, 11, 65, 0
13, 118680, Note_on_c, 11, 62, 71
13, 118799, Note_on_c, 11, 62, 0
13, 118800, Note_on_c, 11, 65, 72
13, 118919, Note_on_c, 11, 65, 0
13, 118920, Note_on_c, 11, 62, 74
13, 119039, Note_on_c, 11, 62, 0
13, 119040, Note_on_c, 11, 64, 76
13, 119107, Note_on_c, 11, 64, 0
13, 119120, Note_on_c, 11, 76, 76
13, 119120, Note_on_c, 11, 72, 76
13, 119187, Note_on_c, 11, 76, 0
13, 119187, Note_on_c, 11, 72, 0
13, 119200, Note_on_c, 11, 72, 76
13, 119200, Note_on_c, 11, 76, 76
13, 119267, Note_on_c, 11, 72, 0
13, 119267, Note_on_c, 11, 76, 0
13, 119280, Note_on_c, 11, 72, 76
13, 119280, Note_on_c, 11, 76, 76
13, 119347, Note_on_c, 11, 72, 0
13, 119347, Note_on_c, 11, 76, 0
13, 119360, Note_on_c, 11, 72, 76
13, 119360, Note_on_c, 11, 77, 76
13, 119427, Note_on_c, 11, 72, 0
13, 119427, Note_on_c, 11, 77, 0
13, 119440, Note_on_c, 11, 72, 76
13, 119440, Note_on_c, 11, 79, 76
13, 119507, Note_on_c, 11, 72, 0
13, 119507, Note_on_c, 11, 79, 0
13, 119520, Note_on_c, 11, 81, 76
13, 119587, Note_on_c, 11, 81, 0
13, 119600, Note_on_c, 11, 72, 76
13, 119667, Note_on_c, 11, 72, 0
13, 119680, Note_on_c, 11, 81, 76
13, 119747, Note_on_c, 11, 81, 0
13, 119760, Note_on_c, 11, 72, 76
13, 119827, Note_on_c, 11, 72, 0
13, 119840, Note_on_c, 11, 79, 76
13, 119907, Note_on_c, 11, 79, 0
13, 119920, Note_on_c, 11, 77, 76
13, 119987, Note_on_c, 11, 77, 0
13, 120000, Note_on_c, 11, 76, 76
13, 120067, Note_on_c, 11, 76, 0
13, 120080, Note_on_c, 11, 67, 76
13, 120147, Note_on_c, 11, 67, 0
13, 120160, Note_on_c, 11, 76, 76
13, 120227, Note_on_c, 11, 76, 0
13, 120240, Note_on_c, 11, 67, 76
13, 120307, Note_on_c, 11, 67, 0
13, 120320, Note_on_c, 11, 74, 76
13, 120387, Note_on_c, 11, 74, 0
13, 120400, Note_on_c, 11, 72, 76
13, 120467, Note_on_c, 11, 72, 0
13, 120480, Note_on_c, 11, 65, 76
13, 120547, Note_on_c, 11, 65, 0
13, 120560, Note_on_c, 11, 62, 76
13, 120627, Note_on_c, 11, 62, 0
13, 120640, Note_on_c, 11, 65, 76
13, 120707, Note_on_c, 11, 65, 0
13, 120720, Note_on_c, 11, 62, 76
13, 120787, Note_on_c, 11, 62, 0
13, 120800, Note_on_c, 11, 64, 76
13, 120867, Note_on_c, 11, 64, 0
13, 120880, Note_on_c, 11, 65, 76
13, 120947, Note_on_c, 11, 65, 0
13, 120960, Note_on_c, 11, 60, 76
13, 121199, Note_on_c, 11, 60, 0
13, 121320, Note_on_c, 11, 64, 76
13, 121379, Note_on_c, 11, 64, 0
13, 121380, Note_on_c, 11, 62, 76
13, 121439, Note_on_c, 11, 62, 0
13, 121440, Note_on_c, 11, 60, 76
13, 121529, Note_on_c, 11, 60, 0
13, 121560, Note_on_c, 11, 64, 76
13, 121619, Note_on_c, 11, 64, 0
13, 121620, Note_on_c, 11, 62, 76
13, 121679, Note_on_c, 11, 62, 0
13, 121680, Note_on_c, 11, 60, 76
13, 121769, Note_on_c, 11, 60, 0
13, 121800, Note_on_c, 11, 69, 76
13, 121859, Note_on_c, 11, 69, 0
13, 121860, Note_on_c, 11, 66, 76
13, 121919, Note_on_c, 11, 66, 0
13, 121920, Note_on_c, 11, 67, 76
13, 122099, Note_on_c, 11, 67, 0
13, 122280, Note_on_c, 11, 69, 76
13, 122339, Note_on_c, 11, 69, 0
13, 122340, Note_on_c, 11, 67, 76
13, 122399, Note_on_c, 11, 67, 0
13, 122400, Note_on_c, 11, 64, 76
13, 122489, Note_on_c, 11, 64, 0
13, 122520, Note_on_c, 11, 67, 76
13, 122579, Note_on_c, 11, 67, 0
13, 122580, Note_on_c, 11, 65, 76
13, 122639, Note_on_c, 11, 65, 0
13, 122640, Note_on_c, 11, 62, 76
13, 122729, Note_on_c, 11, 62, 0
13, 122760, Note_on_c, 11, 65, 76
13, 122819, Note_on_c, 11, 65, 0
13, 122820, Note_on_c, 11, 64, 76
13, 122879, Note_on_c, 11, 64, 0
13, 122880, Note_on_c, 11, 60, 76
13, 123059, Note_on_c, 11, 60, 0
13, 123240, Note_on_c, 11, 64, 76
13, 123299, Note_on_c, 11, 64, 0
13, 123300, Note_on_c, 11, 62, 76
13, 123359, Note_on_c, 11, 62, 0
13, 123360, Note_on_c, 11, 60, 76
13, 123449, Note_on_c, 11, 60, 0
13, 123480, Note_on_c, 11, 64, 76
13, 123539, Note_on_c, 11, 64, 0
13, 123540, Note_on_c, 11, 62, 76
13, 123599, Note_on_c, 11, 62, 0
13, 123600, Note_on_c, 11, 60, 76
13, 123689, Note_on_c, 11, 60, 0
13, 123720, Note_on_c, 11, 69, 76
13, 123779, Note_on_c, 11, 69, 0
13, 123780, Note_on_c, 11, 66, 76
13, 123839, Note_on_c, 11, 66, 0
13, 123840, Note_on_c, 11, 67, 76
13, 124019, Note_on_c, 11, 67, 0
13, 124200, Note_on_c, 11, 69, 76
13, 124259, Note_on_c, 11, 69, 0
13, 124260, Note_on_c, 11, 67, 76
13, 124319, Note_on_c, 11, 67, 0
13, 124320, Note_on_c, 11, 64, 76
13, 124409, Note_on_c, 11, 64, 0
13, 124440, Note_on_c, 11, 67, 76
13, 124499, Note_on_c, 11, 67, 0
13, 124500, Note_on_c, 11, 65, 76
13, 124559, Note_on_c, 11, 65, 0
13, 124560, Note_on_c, 11, 62, 76
13, 124649, Note_on_c, 11, 62, 0
13, 124680, Note_on_c, 11, 65, 76
13, 124739, Note_on_c, 11, 65, 0
13, 124740, Note_on_c, 11, 64, 76
13, 124799, Note_on_c, 11, 64, 0
13, 124800, Note_on_c, 11, 60, 76
13, 124889, Note_on_c, 11, 60, 0
13, 124920, Note_on_c, 11, 67, 75
13, 124979, Note_on_c, 11, 67, 0
13, 124980, Note_on_c, 11, 64, 74
13, 125039, Note_on_c, 11, 64, 0
13, 125040, Note_on_c, 11, 62, 73
13, 125129, Note_on_c, 11, 62, 0
13, 125160, Note_on_c, 11, 67, 72
13, 125219, Note_on_c, 11, 67, 0
13, 125220, Note_on_c, 11, 65, 71
13, 125279, Note_on_c, 11, 65, 0
13, 125280, Note_on_c, 11, 60, 70
13, 125369, Note_on_c, 11, 60, 0
13, 125400, Note_on_c, 11, 67, 69
13, 125459, Note_on_c, 11, 67, 0
13, 125460, Note_on_c, 11, 64, 68
13, 125519, Note_on_c, 11, 64, 0
13, 125520, Note_on_c, 11, 62, 67
13, 125609, Note_on_c, 11, 62, 0
13, 125640, Note_on_c, 11, 67, 66
13, 125699, Note_on_c, 11, 67, 0
13, 125700, Note_on_c, 11, 65, 65
13, 125759, Note_on_c, 11, 65, 0
13, 125760, Note_on_c, 11, 60, 64
13, 125849, Note_on_c, 11, 60, 0
13, 125880, Note_on_c, 11, 67, 63
13, 125939, Note_on_c, 11, 67, 0
13, 125940, Note_on_c, 11, 64, 62
13, 125999, Note_on_c, 11, 64, 0
13, 126000, Note_on_c, 11, 62, 61
13, 126089, Note_on_c, 11, 62, 0
13, 126120, Note_on_c, 11, 67, 60
13, 126179, Note_on_c, 11, 67, 0
13, 126180, Note_on_c, 11, 65, 59
13, 126239, Note_on_c, 11, 65, 0
13, 126240, Note_on_c, 11, 60, 58
13, 126329, Note_on_c, 11, 60, 0
13, 126360, Note_on_c, 11, 67, 57
13, 126419, Note_on_c, 11, 67, 0
13, 126420, Note_on_c, 11, 64, 56
13, 126479, Note_on_c, 11, 64, 0
13, 126480, Note_on_c, 11, 62, 55
13, 126569, Note_on_c, 11, 62, 0
13, 126600, Note_on_c, 11, 67, 54
13, 126659, Note_on_c, 11, 67, 0
13, 126660, Note_on_c, 11, 65, 53
13, 126719, Note_on_c, 11, 65, 0
13, 126720, Note_on_c, 11, 60, 52
13, 126809, Note_on_c, 11, 60, 0
13, 126840, Note_on_c, 11, 67, 52
13, 126899, Note_on_c, 11, 67, 0
13, 126900, Note_on_c, 11, 64, 52
13, 126959, Note_on_c, 11, 64, 0
13, 126960, Note_on_c, 11, 62, 52
13, 127049, Note_on_c, 11, 62, 0
13, 127080, Note_on_c, 11, 67, 52
13, 127139, Note_on_c, 11, 67, 0
13, 127140, Note_on_c, 11, 65, 52
13, 127199, Note_on_c, 11, 65, 0
13, 127200, Note_on_c, 11, 60, 52
13, 127289, Note_on_c, 11, 60, 0
13, 127320, Note_on_c, 11, 67, 52
13, 127379, Note_on_c, 11, 67, 0
13, 127380, Note_on_c, 11, 64, 51
13, 127439, Note_on_c, 11, 64, 0
13, 127440, Note_on_c, 11, 62, 51
13, 127529, Note_on_c, 11, 62, 0
13, 127560, Note_on_c, 11, 67, 50
13, 127619, Note_on_c, 11, 67, 0
13, 127620, Note_on_c, 11, 65, 50
13, 127679, Note_on_c, 11, 65, 0
13, 127680, Note_on_c, 11, 60, 50
13, 127769, Note_on_c, 11, 60, 0
13, 127800, Note_on_c, 11, 67, 49
13, 127859, Note_on_c, 11, 67, 0
13, 127860, Note_on_c, 11, 64, 49
13, 127919, Note_on_c, 11, 64, 0
13, 127920, Note_on_c, 11, 62, 48
13, 128009, Note_on_c, 11, 62, 0
13, 128040, Note_on_c, 11, 67, 48
13, 128099, Note_on_c, 11, 67, 0
13, 128100, Note_on_c, 11, 65, 47
13, 128159, Note_on_c, 11, 65, 0
13, 128160, Note_on_c, 11, 60, 47
13, 128249, Note_on_c, 11, 60, 0
13, 128280, Note_on_c, 11, 67, 46
13, 128339, Note_on_c, 11, 67, 0
13, 128340, Note_on_c, 11, 64, 46
13, 128399, Note_on_c, 11, 64, 0
13, 128400, Note_on_c, 11, 62, 46
13, 128489, Note_on_c, 11, 62, 0
13, 128520, Note_on_c, 11, 67, 45
13, 128579, Note_on_c, 11, 67, 0
13, 128580, Note_on_c, 11, 65, 45
13, 128631, Note_on_c, 11, 65, 0
13, 128640, Note_on_c, 11, 60, 44
13, 128879, Note_on_c, 11, 60, 0
13, 128880, Note_on_c, 11, 55, 44
13, 129119, Note_on_c, 11, 55, 0
13, 129120, Note_on_c, 11, 60, 44
13, 129359, Note_on_c, 11, 60, 0
13, 129360, Note_on_c, 11, 55, 44
13, 129599, Note_on_c, 11, 55, 0
13, 129600, Note_on_c, 11, 60, 44
13, 129839, Note_on_c, 11, 60, 0
13, 129840, Note_on_c, 11, 55, 44
13, 130079, Note_on_c, 11, 55, 0
13, 130080, Note_on_c, 11, 60, 44
13, 130319, Note_on_c, 11, 60, 0
13, 130320, Note_on_c, 11, 55, 44
13, 130559, Note_on_c, 11, 55, 0
13, 130560, Note_on_c, 11, 60, 44
13, 130649, Note_on_c, 11, 60, 0
13, 132120, Note_on_c, 11, 69, 76
13, 132239, Note_on_c, 11, 69, 0
13, 132240, Note_on_c, 11, 70, 76
13, 132344, Note_on_c, 11, 70, 0
13, 132360, Note_on_c, 11, 74, 76
13, 132449, Note_on_c, 11, 74, 0
13, 132480, Note_on_c, 11, 58, 52
13, 133424, Note_on_c, 11, 58, 0
13, 133440, Note_on_c, 11, 58, 52
13, 134399, Note_on_c, 11, 58, 0
13, 135960, Note_on_c, 11, 74, 76
13, 136079, Note_on_c, 11, 74, 0
13, 136080, Note_on_c, 11, 75, 76
13, 136184, Note_on_c, 11, 75, 0
13, 136200, Note_on_c, 11, 79, 76
13, 136289, Note_on_c, 11, 79, 0
13, 139920, Control_c, 11, 11, 64
13, 140160, Control_c, 11, 11, 64
13, 140160, Note_on_c, 11, 70, 84
13, 140249, Note_on_c, 11, 70, 0
13, 140280, Note_on_c, 11, 65, 84
13, 140339, Note_on_c, 11, 65, 0
13, 140340, Control_c, 11, 11, 65
13, 140340, Note_on_c, 11, 63, 84
13, 140391, Note_on_c, 11, 63, 0
13, 140400, Note_on_c, 11, 62, 84
13, 140489, Note_on_c, 11, 62, 0
13, 140520, Note_on_c, 11, 58, 84
13, 140520, Control_c, 11, 11, 66
13, 140609, Note_on_c, 11, 58, 0
13, 140640, Note_on_c, 11, 70, 84
13, 140700, Control_c, 11, 11, 67
13, 140729, Note_on_c, 11, 70, 0
13, 140760, Note_on_c, 11, 65, 84
13, 140819, Note_on_c, 11, 65, 0
13, 140820, Note_on_c, 11, 63, 84
13, 140871, Note_on_c, 11, 63, 0
13, 140880, Note_on_c, 11, 62, 84
13, 140880, Control_c, 11, 11, 68
13, 140969, Note_on_c, 11, 62, 0
13, 141000, Note_on_c, 11, 58, 84
13, 141060, Control_c, 11, 11, 69
13, 141089, Note_on_c, 11, 58, 0
13, 141120, Note_on_c, 11, 70, 84
13, 141209, Note_on_c, 11, 70, 0
13, 141240, Note_on_c, 11, 65, 84
13, 141240, Control_c, 11, 11, 70
13, 141299, Note_on_c, 11, 65, 0
13, 141300, Note_on_c, 11, 63, 84
13, 141351, Note_on_c, 11, 63, 0
13, 141360, Note_on_c, 11, 62, 84
13, 141420, Control_c, 11, 11, 71
13, 141449, Note_on_c, 11, 62, 0
13, 141480, Note_on_c, 11, 58, 84
13, 141569, Note_on_c, 11, 58, 0
13, 141600, Control_c, 11, 11, 72
13, 141600, Note_on_c, 11, 70, 84
13, 141689, Note_on_c, 11, 70, 0
13, 141720, Note_on_c, 11, 65, 84
13, 141779, Note_on_c, 11, 65, 0
13, 141780, Control_c, 11, 11, 73
13, 141780, Note_on_c, 11, 63, 84
13, 141831, Note_on_c, 11, 63, 0
13, 141840, Note_on_c, 11, 62, 84
13, 141929, Note_on_c, 11, 62, 0
13, 141960, Note_on_c, 11, 58, 84
13, 141960, Control_c, 11, 11, 74
13, 142049, Note_on_c, 11, 58, 0
13, 142080, Note_on_c, 11, 74, 84
13, 142140, Control_c, 11, 11, 75
13, 142320, Control_c, 11, 11, 76
13, 142500, Control_c, 11, 11, 77
13, 142680, Control_c, 11, 11, 78
13, 142860, Control_c, 11, 11, 79
13, 143039, Note_on_c, 11, 74, 0
13, 143040, Note_on_c, 11, 74, 84
13, 143040, Control_c, 11, 11, 80
13, 143220, Control_c, 11, 11, 81
13, 143400, Control_c, 11, 11, 82
13, 143580, Control_c, 11, 11, 83
13, 143760, Control_c, 11, 11, 84
13, 143940, Control_c, 11, 11, 85
13, 143984, Note_on_c, 11, 74, 0
13, 144000, Note_on_c, 11, 69, 84
13, 144089, Note_on_c, 11, 69, 0
13, 144120, Control_c, 11, 11, 86
13, 144120, Note_on_c, 11, 66, 84
13, 144179, Note_on_c, 11, 66, 0
13, 144180, Note_on_c, 11, 64, 84
13, 144239, Note_on_c, 11, 64, 0
13, 144240, Note_on_c, 11, 62, 84
13, 144300, Control_c, 11, 11, 87
13, 144329, Note_on_c, 11, 62, 0
13, 144360, Note_on_c, 11, 57, 84
13, 144449, Note_on_c, 11, 57, 0
13, 144480, Control_c, 11, 11, 88
13, 144480, Note_on_c, 11, 69, 84
13, 144569, Note_on_c, 11, 69, 0
13, 144600, Note_on_c, 11, 66, 84
13, 144659, Note_on_c, 11, 66, 0
13, 144660, Note_on_c, 11, 64, 84
13, 144660, Control_c, 11, 11, 89
13, 144719, Note_on_c, 11, 64, 0
13, 144720, Note_on_c, 11, 62, 84
13, 144809, Note_on_c, 11, 62, 0
13, 144840, Control_c, 11, 11, 90
13, 144840, Note_on_c, 11, 57, 84
13, 144929, Note_on_c, 11, 57, 0
13, 144960, Note_on_c, 11, 69, 84
13, 145020, Control_c, 11, 11, 91
13, 145049, Note_on_c, 11, 69, 0
13, 145080, Note_on_c, 11, 66, 84
13, 145139, Note_on_c, 11, 66, 0
13, 145140, Note_on_c, 11, 64, 84
13, 145199, Note_on_c, 11, 64, 0
13, 145200, Note_on_c, 11, 62, 84
13, 145200, Control_c, 11, 11, 92
13, 145289, Note_on_c, 11, 62, 0
13, 145320, Note_on_c, 11, 57, 84
13, 145380, Control_c, 11, 11, 93
13, 145409, Note_on_c, 11, 57, 0
13, 145440, Note_on_c, 11, 69, 84
13, 145529, Note_on_c, 11, 69, 0
13, 145560, Note_on_c, 11, 66, 84
13, 145560, Control_c, 11, 11, 94
13, 145619, Note_on_c, 11, 66, 0
13, 145620, Note_on_c, 11, 64, 84
13, 145679, Note_on_c, 11, 64, 0
13, 145680, Note_on_c, 11, 62, 84
13, 145740, Control_c, 11, 11, 95
13, 145769, Note_on_c, 11, 62, 0
13, 145800, Note_on_c, 11, 57, 84
13, 145889, Note_on_c, 11, 57, 0
13, 145920, Control_c, 11, 11, 96
13, 145920, Note_on_c, 11, 74, 84
13, 146044, Control_c, 11, 11, 97
13, 146168, Control_c, 11, 11, 98
13, 146292, Control_c, 11, 11, 99
13, 146415, Control_c, 11, 11, 100
13, 146539, Control_c, 11, 11, 101
13, 146663, Control_c, 11, 11, 102
13, 146787, Control_c, 11, 11, 103
13, 146879, Note_on_c, 11, 74, 0
13, 146880, Note_on_c, 11, 74, 84
13, 146911, Control_c, 11, 11, 104
13, 147035, Control_c, 11, 11, 105
13, 147159, Control_c, 11, 11, 106
13, 147283, Control_c, 11, 11, 107
13, 147406, Control_c, 11, 11, 108
13, 147530, Control_c, 11, 11, 109
13, 147654, Control_c, 11, 11, 110
13, 147778, Control_c, 11, 11, 111
13, 147824, Note_on_c, 11, 74, 0
13, 147840, Note_on_c, 11, 74, 84
13, 147902, Control_c, 11, 11, 112
13, 147929, Note_on_c, 11, 74, 0
13, 147960, Note_on_c, 11, 69, 84
13, 148019, Note_on_c, 11, 69, 0
13, 148020, Note_on_c, 11, 67, 84
13, 148026, Control_c, 11, 11, 113
13, 148071, Note_on_c, 11, 67, 0
13, 148080, Note_on_c, 11, 66, 84
13, 148150, Control_c, 11, 11, 114
13, 148169, Note_on_c, 11, 66, 0
13, 148200, Note_on_c, 11, 62, 84
13, 148274, Control_c, 11, 11, 115
13, 148289, Note_on_c, 11, 62, 0
13, 148320, Note_on_c, 11, 74, 84
13, 148397, Control_c, 11, 11, 116
13, 148409, Note_on_c, 11, 74, 0
13, 148440, Note_on_c, 11, 69, 84
13, 148499, Note_on_c, 11, 69, 0
13, 148500, Note_on_c, 11, 67, 84
13, 148521, Control_c, 11, 11, 117
13, 148551, Note_on_c, 11, 67, 0
13, 148560, Note_on_c, 11, 66, 84
13, 148645, Control_c, 11, 11, 118
13, 148649, Note_on_c, 11, 66, 0
13, 148680, Note_on_c, 11, 62, 84
13, 148769, Note_on_c, 11, 62, 0
13, 148769, Control_c, 11, 11, 119
13, 148800, Note_on_c, 11, 74, 84
13, 148889, Note_on_c, 11, 74, 0
13, 148893, Control_c, 11, 11, 120
13, 148920, Note_on_c, 11, 69, 84
13, 148979, Note_on_c, 11, 69, 0
13, 148980, Note_on_c, 11, 67, 84
13, 149017, Control_c, 11, 11, 121
13, 149031, Note_on_c, 11, 67, 0
13, 149040, Note_on_c, 11, 66, 84
13, 149129, Note_on_c, 11, 66, 0
13, 149141, Control_c, 11, 11, 122
13, 149160, Note_on_c, 11, 62, 84
13, 149249, Note_on_c, 11, 62, 0
13, 149265, Control_c, 11, 11, 123
13, 149280, Note_on_c, 11, 74, 84
13, 149369, Note_on_c, 11, 74, 0
13, 149388, Control_c, 11, 11, 124
13, 149400, Note_on_c, 11, 69, 84
13, 149459, Note_on_c, 11, 69, 0
13, 149460, Note_on_c, 11, 67, 84
13, 149511, Note_on_c, 11, 67, 0
13, 149512, Control_c, 11, 11, 125
13, 149520, Note_on_c, 11, 66, 84
13, 149609, Note_on_c, 11, 66, 0
13, 149636, Control_c, 11, 11, 127
13, 149640, Note_on_c, 11, 62, 84
13, 149729, Note_on_c, 11, 62, 0
13, 149760, Note_on_c, 11, 78, 84
13, 149811, Note_on_c, 11, 78, 0
13, 149820, Note_on_c, 11, 78, 84
13, 149871, Note_on_c, 11, 78, 0
13, 149880, Note_on_c, 11, 78, 84
13, 149931, Note_on_c, 11, 78, 0
13, 149940, Note_on_c, 11, 78, 84
13, 149991, Note_on_c, 11, 78, 0
13, 150000, Note_on_c, 11, 78, 84
13, 150051, Note_on_c, 11, 78, 0
13, 150060, Note_on_c, 11, 78, 84
13, 150111, Note_on_c, 11, 78, 0
13, 150120, Note_on_c, 11, 78, 84
13, 150171, Note_on_c, 11, 78, 0
13, 150180, Note_on_c, 11, 78, 84
13, 150231, Note_on_c, 11, 78, 0
13, 150240, Note_on_c, 11, 78, 84
13, 150291, Note_on_c, 11, 78, 0
13, 150300, Note_on_c, 11, 78, 84
13, 150351, Note_on_c, 11, 78, 0
13, 150360, Note_on_c, 11, 78, 84
13, 150411, Note_on_c, 11, 78, 0
13, 150420, Note_on_c, 11, 78, 84
13, 150471, Note_on_c, 11, 78, 0
13, 150480, Note_on_c, 11, 78, 84
13, 150531, Note_on_c, 11, 78, 0
13, 150540, Note_on_c, 11, 78, 84
13, 150591, Note_on_c, 11, 78, 0
13, 150600, Note_on_c, 11, 78, 84
13, 150651, Note_on_c, 11, 78, 0
13, 150660, Note_on_c, 11, 78, 84
13, 150711, Note_on_c, 11, 78, 0
13, 150720, Note_on_c, 11, 78, 84
13, 150771, Note_on_c, 11, 78, 0
13, 150780, Note_on_c, 11, 78, 84
13, 150831, Note_on_c, 11, 78, 0
13, 150840, Note_on_c, 11, 78, 84
13, 150891, Note_on_c, 11, 78, 0
13, 150900, Note_on_c, 11, 78, 84
13, 150951, Note_on_c, 11, 78, 0
13, 150960, Note_on_c, 11, 78, 84
13, 151011, Note_on_c, 11, 78, 0
13, 151020, Note_on_c, 11, 78, 84
13, 151071, Note_on_c, 11, 78, 0
13, 151080, Note_on_c, 11, 78, 84
13, 151131, Note_on_c, 11, 78, 0
13, 151140, Note_on_c, 11, 78, 84
13, 151191, Note_on_c, 11, 78, 0
13, 151200, Note_on_c, 11, 78, 84
13, 151251, Note_on_c, 11, 78, 0
13, 151260, Note_on_c, 11, 78, 84
13, 151311, Note_on_c, 11, 78, 0
13, 151320, Note_on_c, 11, 78, 84
13, 151371, Note_on_c, 11, 78, 0
13, 151380, Note_on_c, 11, 78, 84
13, 151431, Note_on_c, 11, 78, 0
13, 151440, Note_on_c, 11, 78, 84
13, 151491, Note_on_c, 11, 78, 0
13, 151500, Note_on_c, 11, 78, 84
13, 151551, Note_on_c, 11, 78, 0
13, 151560, Note_on_c, 11, 78, 84
13, 151611, Note_on_c, 11, 78, 0
13, 151620, Note_on_c, 11, 78, 84
13, 151671, Note_on_c, 11, 78, 0
13, 151680, Note_on_c, 11, 78, 84
13, 151799, Note_on_c, 11, 78, 0
13, 153600, Note_on_c, 11, 69, 84
13, 153689, Note_on_c, 11, 69, 0
13, 153720, Note_on_c, 11, 67, 82
13, 153779, Note_on_c, 11, 67, 0
13, 153780, Note_on_c, 11, 66, 81
13, 153831, Note_on_c, 11, 66, 0
13, 153840, Note_on_c, 11, 62, 80
13, 153929, Note_on_c, 11, 62, 0
13, 153960, Note_on_c, 11, 57, 78
13, 154049, Note_on_c, 11, 57, 0
13, 154080, Note_on_c, 11, 69, 76
13, 154169, Note_on_c, 11, 69, 0
13, 154200, Note_on_c, 11, 67, 74
13, 154259, Note_on_c, 11, 67, 0
13, 154260, Note_on_c, 11, 66, 73
13, 154311, Note_on_c, 11, 66, 0
13, 154320, Note_on_c, 11, 62, 72
13, 154409, Note_on_c, 11, 62, 0
13, 154440, Note_on_c, 11, 57, 70
13, 154529, Note_on_c, 11, 57, 0
13, 154560, Note_on_c, 11, 69, 68
13, 154649, Note_on_c, 11, 69, 0
13, 154680, Note_on_c, 11, 67, 66
13, 154739, Note_on_c, 11, 67, 0
13, 154740, Note_on_c, 11, 66, 65
13, 154791, Note_on_c, 11, 66, 0
13, 154800, Note_on_c, 11, 62, 64
13, 154889, Note_on_c, 11, 62, 0
13, 154920, Note_on_c, 11, 57, 62
13, 155009, Note_on_c, 11, 57, 0
13, 155040, Note_on_c, 11, 69, 60
13, 155129, Note_on_c, 11, 69, 0
13, 155160, Note_on_c, 11, 67, 58
13, 155219, Note_on_c, 11, 67, 0
13, 155220, Note_on_c, 11, 66, 57
13, 155271, Note_on_c, 11, 66, 0
13, 155280, Note_on_c, 11, 62, 56
13, 155369, Note_on_c, 11, 62, 0
13, 155400, Note_on_c, 11, 57, 54
13, 155489, Note_on_c, 11, 57, 0
13, 158400, Note_on_c, 11, 79, 52
13, 158939, Note_on_c, 11, 79, 0
13, 158940, Note_on_c, 11, 78, 52
13, 158999, Note_on_c, 11, 78, 0
13, 159000, Note_on_c, 11, 76, 52
13, 159059, Note_on_c, 11, 76, 0
13, 159060, Note_on_c, 11, 74, 52
13, 159111, Note_on_c, 11, 74, 0
13, 159120, Note_on_c, 11, 74, 52
13, 159209, Note_on_c, 11, 74, 0
13, 159240, Note_on_c, 11, 74, 52
13, 159329, Note_on_c, 11, 74, 0
13, 159600, Note_on_c, 11, 74, 52
13, 159704, Note_on_c, 11, 74, 0
13, 159720, Note_on_c, 11, 74, 52
13, 159839, Note_on_c, 11, 74, 0
13, 160080, Note_on_c, 11, 74, 52
13, 160184, Note_on_c, 11, 74, 0
13, 160200, Note_on_c, 11, 74, 52
13, 160304, Note_on_c, 11, 74, 0
13, 160320, Note_on_c, 11, 71, 52
13, 160320, Note_on_c, 11, 55, 52
13, 160320, Note_on_c, 11, 62, 52
13, 160439, Note_on_c, 11, 71, 0
13, 160439, Note_on_c, 11, 55, 0
13, 160439, Note_on_c, 11, 62, 0
13, 162120, Control_c, 11, 11, 74
13, 162240, Note_on_c, 11, 67, 84
13, 162300, Control_c, 11, 11, 75
13, 162329, Note_on_c, 11, 67, 0
13, 162360, Note_on_c, 11, 62, 84
13, 162419, Note_on_c, 11, 62, 0
13, 162420, Note_on_c, 11, 60, 84
13, 162471, Note_on_c, 11, 60, 0
13, 162480, Control_c, 11, 11, 76
13, 162480, Note_on_c, 11, 59, 84
13, 162569, Note_on_c, 11, 59, 0
13, 162600, Note_on_c, 11, 55, 84
13, 162660, Control_c, 11, 11, 77
13, 162689, Note_on_c, 11, 55, 0
13, 162720, Note_on_c, 11, 67, 84
13, 162809, Note_on_c, 11, 67, 0
13, 162840, Control_c, 11, 11, 78
13, 162840, Note_on_c, 11, 62, 84
13, 162899, Note_on_c, 11, 62, 0
13, 162900, Note_on_c, 11, 60, 84
13, 162951, Note_on_c, 11, 60, 0
13, 162960, Note_on_c, 11, 59, 84
13, 163020, Control_c, 11, 11, 79
13, 163049, Note_on_c, 11, 59, 0
13, 163080, Note_on_c, 11, 55, 84
13, 163169, Note_on_c, 11, 55, 0
13, 163200, Note_on_c, 11, 67, 84
13, 163200, Control_c, 11, 11, 80
13, 163289, Note_on_c, 11, 67, 0
13, 163320, Note_on_c, 11, 62, 84
13, 163379, Note_on_c, 11, 62, 0
13, 163380, Note_on_c, 11, 60, 84
13, 163380, Control_c, 11, 11, 81
13, 163431, Note_on_c, 11, 60, 0
13, 163440, Note_on_c, 11, 59, 84
13, 163529, Note_on_c, 11, 59, 0
13, 163560, Control_c, 11, 11, 82
13, 163560, Note_on_c, 11, 55, 84
13, 163649, Note_on_c, 11, 55, 0
13, 163680, Note_on_c, 11, 67, 84
13, 163740, Control_c, 11, 11, 83
13, 163769, Note_on_c, 11, 67, 0
13, 163800, Note_on_c, 11, 62, 84
13, 163859, Note_on_c, 11, 62, 0
13, 163860, Note_on_c, 11, 60, 84
13, 163911, Note_on_c, 11, 60, 0
13, 163920, Control_c, 11, 11, 84
13, 163920, Note_on_c, 11, 59, 84
13, 164009, Note_on_c, 11, 59, 0
13, 164040, Note_on_c, 11, 55, 84
13, 164100, Control_c, 11, 11, 85
13, 164129, Note_on_c, 11, 55, 0
13, 164160, Note_on_c, 11, 71, 84
13, 164280, Control_c, 11, 11, 86
13, 164460, Control_c, 11, 11, 87
13, 164640, Control_c, 11, 11, 88
13, 164820, Control_c, 11, 11, 89
13, 165000, Control_c, 11, 11, 90
13, 165119, Note_on_c, 11, 71, 0
13, 165120, Note_on_c, 11, 71, 84
13, 165180, Control_c, 11, 11, 91
13, 165360, Control_c, 11, 11, 92
13, 165540, Control_c, 11, 11, 93
13, 165720, Control_c, 11, 11, 94
13, 165900, Control_c, 11, 11, 95
13, 166064, Note_on_c, 11, 71, 0
13, 166080, Control_c, 11, 11, 96
13, 166080, Note_on_c, 11, 71, 84
13, 166169, Note_on_c, 11, 71, 0
13, 166200, Note_on_c, 11, 69, 84
13, 166259, Note_on_c, 11, 69, 0
13, 166260, Note_on_c, 11, 68, 84
13, 166266, Control_c, 11, 11, 97
13, 166319, Note_on_c, 11, 68, 0
13, 166320, Note_on_c, 11, 64, 84
13, 166409, Note_on_c, 11, 64, 0
13, 166440, Note_on_c, 11, 59, 84
13, 166452, Control_c, 11, 11, 98
13, 166529, Note_on_c, 11, 59, 0
13, 166560, Note_on_c, 11, 71, 84
13, 166637, Control_c, 11, 11, 99
13, 166649, Note_on_c, 11, 71, 0
13, 166680, Note_on_c, 11, 69, 84
13, 166739, Note_on_c, 11, 69, 0
13, 166740, Note_on_c, 11, 68, 84
13, 166799, Note_on_c, 11, 68, 0
13, 166800, Note_on_c, 11, 64, 84
13, 166823, Control_c, 11, 11, 100
13, 166889, Note_on_c, 11, 64, 0
13, 166920, Note_on_c, 11, 59, 84
13, 167009, Note_on_c, 11, 59, 0
13, 167009, Control_c, 11, 11, 101
13, 167040, Note_on_c, 11, 71, 84
13, 167129, Note_on_c, 11, 71, 0
13, 167160, Note_on_c, 11, 69, 84
13, 167195, Control_c, 11, 11, 102
13, 167219, Note_on_c, 11, 69, 0
13, 167220, Note_on_c, 11, 68, 84
13, 167279, Note_on_c, 11, 68, 0
13, 167280, Note_on_c, 11, 64, 84
13, 167369, Note_on_c, 11, 64, 0
13, 167381, Control_c, 11, 11, 103
13, 167400, Note_on_c, 11, 59, 84
13, 167489, Note_on_c, 11, 59, 0
13, 167520, Note_on_c, 11, 71, 84
13, 167566, Control_c, 11, 11, 104
13, 167609, Note_on_c, 11, 71, 0
13, 167640, Note_on_c, 11, 69, 84
13, 167699, Note_on_c, 11, 69, 0
13, 167700, Note_on_c, 11, 68, 84
13, 167752, Control_c, 11, 11, 105
13, 167759, Note_on_c, 11, 68, 0
13, 167760, Note_on_c, 11, 64, 84
13, 167849, Note_on_c, 11, 64, 0
13, 167880, Note_on_c, 11, 59, 84
13, 167938, Control_c, 11, 11, 106
13, 167969, Note_on_c, 11, 59, 0
13, 168000, Note_on_c, 11, 76, 84
13, 168124, Control_c, 11, 11, 107
13, 168310, Control_c, 11, 11, 108
13, 168495, Control_c, 11, 11, 109
13, 168681, Control_c, 11, 11, 110
13, 168867, Control_c, 11, 11, 111
13, 168959, Note_on_c, 11, 76, 0
13, 168960, Note_on_c, 11, 76, 84
13, 169053, Control_c, 11, 11, 112
13, 169239, Control_c, 11, 11, 113
13, 169425, Control_c, 11, 11, 114
13, 169610, Control_c, 11, 11, 115
13, 169796, Control_c, 11, 11, 116
13, 169904, Note_on_c, 11, 76, 0
13, 169920, Note_on_c, 11, 80, 84
13, 169982, Control_c, 11, 11, 117
13, 170009, Note_on_c, 11, 80, 0
13, 170040, Note_on_c, 11, 78, 84
13, 170099, Note_on_c, 11, 78, 0
13, 170100, Note_on_c, 11, 76, 84
13, 170151, Note_on_c, 11, 76, 0
13, 170160, Note_on_c, 11, 71, 84
13, 170168, Control_c, 11, 11, 118
13, 170249, Note_on_c, 11, 71, 0
13, 170280, Note_on_c, 11, 68, 84
13, 170354, Control_c, 11, 11, 119
13, 170369, Note_on_c, 11, 68, 0
13, 170400, Note_on_c, 11, 80, 84
13, 170489, Note_on_c, 11, 80, 0
13, 170520, Note_on_c, 11, 78, 84
13, 170539, Control_c, 11, 11, 120
13, 170579, Note_on_c, 11, 78, 0
13, 170580, Note_on_c, 11, 76, 84
13, 170631, Note_on_c, 11, 76, 0
13, 170640, Note_on_c, 11, 71, 84
13, 170725, Control_c, 11, 11, 121
13, 170729, Note_on_c, 11, 71, 0
13, 170760, Note_on_c, 11, 68, 84
13, 170849, Note_on_c, 11, 68, 0
13, 170880, Note_on_c, 11, 80, 84
13, 170911, Control_c, 11, 11, 122
13, 170969, Note_on_c, 11, 80, 0
13, 171000, Note_on_c, 11, 78, 84
13, 171059, Note_on_c, 11, 78, 0
13, 171060, Note_on_c, 11, 76, 84
13, 171097, Control_c, 11, 11, 123
13, 171111, Note_on_c, 11, 76, 0
13, 171120, Note_on_c, 11, 71, 84
13, 171209, Note_on_c, 11, 71, 0
13, 171240, Note_on_c, 11, 68, 84
13, 171283, Control_c, 11, 11, 124
13, 171329, Note_on_c, 11, 68, 0
13, 171360, Note_on_c, 11, 80, 84
13, 171449, Note_on_c, 11, 80, 0
13, 171468, Control_c, 11, 11, 125
13, 171480, Note_on_c, 11, 78, 84
13, 171539, Note_on_c, 11, 78, 0
13, 171540, Note_on_c, 11, 76, 84
13, 171591, Note_on_c, 11, 76, 0
13, 171600, Note_on_c, 11, 71, 84
13, 171654, Control_c, 11, 11, 127
13, 171689, Note_on_c, 11, 71, 0
13, 171720, Note_on_c, 11, 68, 84
13, 171809, Note_on_c, 11, 68, 0
13, 171840, Note_on_c, 11, 80, 84
13, 171891, Note_on_c, 11, 80, 0
13, 171900, Note_on_c, 11, 80, 84
13, 171951, Note_on_c, 11, 80, 0
13, 171960, Note_on_c, 11, 80, 84
13, 172011, Note_on_c, 11, 80, 0
13, 172020, Note_on_c, 11, 80, 84
13, 172071, Note_on_c, 11, 80, 0
13, 172080, Note_on_c, 11, 80, 84
13, 172131, Note_on_c, 11, 80, 0
13, 172140, Note_on_c, 11, 80, 84
13, 172191, Note_on_c, 11, 80, 0
13, 172200, Note_on_c, 11, 80, 84
13, 172251, Note_on_c, 11, 80, 0
13, 172260, Note_on_c, 11, 80, 84
13, 172311, Note_on_c, 11, 80, 0
13, 172320, Note_on_c, 11, 80, 84
13, 172371, Note_on_c, 11, 80, 0
13, 172380, Note_on_c, 11, 80, 84
13, 172431, Note_on_c, 11, 80, 0
13, 172440, Note_on_c, 11, 80, 84
13, 172491, Note_on_c, 11, 80, 0
13, 172500, Note_on_c, 11, 80, 84
13, 172551, Note_on_c, 11, 80, 0
13, 172560, Note_on_c, 11, 80, 84
13, 172611, Note_on_c, 11, 80, 0
13, 172620, Note_on_c, 11, 80, 84
13, 172671, Note_on_c, 11, 80, 0
13, 172680, Note_on_c, 11, 80, 84
13, 172731, Note_on_c, 11, 80, 0
13, 172740, Note_on_c, 11, 80, 84
13, 172791, Note_on_c, 11, 80, 0
13, 172800, Note_on_c, 11, 80, 84
13, 172851, Note_on_c, 11, 80, 0
13, 172860, Note_on_c, 11, 80, 84
13, 172911, Note_on_c, 11, 80, 0
13, 172920, Note_on_c, 11, 80, 84
13, 172971, Note_on_c, 11, 80, 0
13, 172980, Note_on_c, 11, 80, 84
13, 173031, Note_on_c, 11, 80, 0
13, 173040, Note_on_c, 11, 80, 84
13, 173091, Note_on_c, 11, 80, 0
13, 173100, Note_on_c, 11, 80, 84
13, 173151, Note_on_c, 11, 80, 0
13, 173160, Note_on_c, 11, 80, 84
13, 173211, Note_on_c, 11, 80, 0
13, 173220, Note_on_c, 11, 80, 84
13, 173271, Note_on_c, 11, 80, 0
13, 173280, Note_on_c, 11, 80, 84
13, 173331, Note_on_c, 11, 80, 0
13, 173340, Note_on_c, 11, 80, 84
13, 173391, Note_on_c, 11, 80, 0
13, 173400, Note_on_c, 11, 80, 84
13, 173451, Note_on_c, 11, 80, 0
13, 173460, Note_on_c, 11, 80, 84
13, 173511, Note_on_c, 11, 80, 0
13, 173520, Note_on_c, 11, 80, 84
13, 173571, Note_on_c, 11, 80, 0
13, 173580, Note_on_c, 11, 80, 84
13, 173631, Note_on_c, 11, 80, 0
13, 173640, Note_on_c, 11, 80, 84
13, 173691, Note_on_c, 11, 80, 0
13, 173700, Note_on_c, 11, 80, 84
13, 173751, Note_on_c, 11, 80, 0
13, 173760, Note_on_c, 11, 80, 84
13, 173879, Note_on_c, 11, 80, 0
13, 175680, Note_on_c, 11, 71, 84
13, 175769, Note_on_c, 11, 71, 0
13, 175800, Note_on_c, 11, 69, 82
13, 175859, Note_on_c, 11, 69, 0
13, 175860, Note_on_c, 11, 68, 81
13, 175911, Note_on_c, 11, 68, 0
13, 175920, Note_on_c, 11, 64, 80
13, 176009, Note_on_c, 11, 64, 0
13, 176040, Note_on_c, 11, 59, 78
13, 176129, Note_on_c, 11, 59, 0
13, 176160, Note_on_c, 11, 71, 76
13, 176249, Note_on_c, 11, 71, 0
13, 176280, Note_on_c, 11, 69, 74
13, 176339, Note_on_c, 11, 69, 0
13, 176340, Note_on_c, 11, 68, 73
13, 176391, Note_on_c, 11, 68, 0
13, 176400, Note_on_c, 11, 64, 72
13, 176489, Note_on_c, 11, 64, 0
13, 176520, Note_on_c, 11, 59, 70
13, 176609, Note_on_c, 11, 59, 0
13, 176640, Note_on_c, 11, 71, 68
13, 176729, Note_on_c, 11, 71, 0
13, 176760, Note_on_c, 11, 69, 66
13, 176819, Note_on_c, 11, 69, 0
13, 176820, Note_on_c, 11, 68, 65
13, 176871, Note_on_c, 11, 68, 0
13, 176880, Note_on_c, 11, 64, 64
13, 176969, Note_on_c, 11, 64, 0
13, 177000, Note_on_c, 11, 59, 62
13, 177089, Note_on_c, 11, 59, 0
13, 177120, Note_on_c, 11, 71, 60
13, 177209, Note_on_c, 11, 71, 0
13, 177240, Note_on_c, 11, 69, 58
13, 177299, Note_on_c, 11, 69, 0
13, 177300, Note_on_c, 11, 68, 57
13, 177351, Note_on_c, 11, 68, 0
13, 177360, Note_on_c, 11, 64, 56
13, 177449, Note_on_c, 11, 64, 0
13, 177480, Note_on_c, 11, 59, 54
13, 177569, Note_on_c, 11, 59, 0
13, 180480, Note_on_c, 11, 81, 52
13, 181019, Note_on_c, 11, 81, 0
13, 181020, Note_on_c, 11, 80, 52
13, 181079, Note_on_c, 11, 80, 0
13, 181080, Note_on_c, 11, 78, 52
13, 181139, Note_on_c, 11, 78, 0
13, 181140, Note_on_c, 11, 76, 52
13, 181191, Note_on_c, 11, 76, 0
13, 181200, Note_on_c, 11, 76, 52
13, 181289, Note_on_c, 11, 76, 0
13, 181320, Note_on_c, 11, 76, 52
13, 181409, Note_on_c, 11, 76, 0
13, 181680, Note_on_c, 11, 76, 52
13, 181784, Note_on_c, 11, 76, 0
13, 181800, Note_on_c, 11, 76, 52
13, 181919, Note_on_c, 11, 76, 0
13, 182160, Note_on_c, 11, 76, 52
13, 182264, Note_on_c, 11, 76, 0
13, 182280, Note_on_c, 11, 76, 52
13, 182384, Note_on_c, 11, 76, 0
13, 182400, Note_on_c, 11, 76, 52
13, 182519, Note_on_c, 11, 76, 0
13, 188160, Note_on_c, 11, 57, 52
13, 188211, Note_on_c, 11, 57, 0
13, 188220, Note_on_c, 11, 60, 52
13, 188271, Note_on_c, 11, 60, 0
13, 188280, Note_on_c, 11, 62, 52
13, 188331, Note_on_c, 11, 62, 0
13, 188340, Note_on_c, 11, 60, 52
13, 188391, Note_on_c, 11, 60, 0
13, 188400, Note_on_c, 11, 57, 52
13, 188451, Note_on_c, 11, 57, 0
13, 188460, Note_on_c, 11, 60, 52
13, 188511, Note_on_c, 11, 60, 0
13, 188520, Note_on_c, 11, 62, 52
13, 188571, Note_on_c, 11, 62, 0
13, 188580, Note_on_c, 11, 60, 52
13, 188631, Note_on_c, 11, 60, 0
13, 188640, Note_on_c, 11, 57, 52
13, 188691, Note_on_c, 11, 57, 0
13, 188700, Note_on_c, 11, 60, 52
13, 188751, Note_on_c, 11, 60, 0
13, 188760, Note_on_c, 11, 62, 52
13, 188811, Note_on_c, 11, 62, 0
13, 188820, Note_on_c, 11, 60, 52
13, 188871, Note_on_c, 11, 60, 0
13, 188880, Note_on_c, 11, 57, 52
13, 188931, Note_on_c, 11, 57, 0
13, 188940, Note_on_c, 11, 60, 52
13, 188991, Note_on_c, 11, 60, 0
13, 189000, Note_on_c, 11, 62, 52
13, 189051, Note_on_c, 11, 62, 0
13, 189060, Note_on_c, 11, 60, 52
13, 189111, Note_on_c, 11, 60, 0
13, 189120, Note_on_c, 11, 55, 52
13, 189171, Note_on_c, 11, 55, 0
13, 189180, Note_on_c, 11, 58, 52
13, 189231, Note_on_c, 11, 58, 0
13, 189240, Note_on_c, 11, 62, 52
13, 189291, Note_on_c, 11, 62, 0
13, 189300, Note_on_c, 11, 58, 52
13, 189351, Note_on_c, 11, 58, 0
13, 189360, Note_on_c, 11, 55, 52
13, 189411, Note_on_c, 11, 55, 0
13, 189420, Note_on_c, 11, 58, 52
13, 189471, Note_on_c, 11, 58, 0
13, 189480, Note_on_c, 11, 62, 52
13, 189531, Note_on_c, 11, 62, 0
13, 189540, Note_on_c, 11, 58, 52
13, 189591, Note_on_c, 11, 58, 0
13, 189600, Note_on_c, 11, 55, 52
13, 189651, Note_on_c, 11, 55, 0
13, 189660, Note_on_c, 11, 58, 52
13, 189711, Note_on_c, 11, 58, 0
13, 189720, Note_on_c, 11, 62, 52
13, 189771, Note_on_c, 11, 62, 0
13, 189780, Note_on_c, 11, 58, 52
13, 189831, Note_on_c, 11, 58, 0
13, 189840, Note_on_c, 11, 55, 52
13, 189891, Note_on_c, 11, 55, 0
13, 189900, Note_on_c, 11, 58, 52
13, 189951, Note_on_c, 11, 58, 0
13, 189960, Note_on_c, 11, 62, 52
13, 190011, Note_on_c, 11, 62, 0
13, 190020, Note_on_c, 11, 58, 52
13, 190071, Note_on_c, 11, 58, 0
13, 190080, Note_on_c, 11, 66, 68
13, 190139, Note_on_c, 11, 66, 0
13, 190140, Note_on_c, 11, 66, 52
13, 190319, Note_on_c, 11, 66, 0
13, 190320, Note_on_c, 11, 69, 52
13, 190559, Note_on_c, 11, 69, 0
13, 190560, Note_on_c, 11, 67, 52
13, 190919, Note_on_c, 11, 67, 0
13, 190920, Note_on_c, 11, 66, 52
13, 191024, Note_on_c, 11, 66, 0
13, 191040, Note_on_c, 11, 65, 68
13, 191099, Note_on_c, 11, 65, 0
13, 191100, Note_on_c, 11, 65, 52
13, 191279, Note_on_c, 11, 65, 0
13, 191280, Note_on_c, 11, 64, 52
13, 191504, Note_on_c, 11, 64, 0
13, 191520, Note_on_c, 11, 62, 52
13, 191609, Note_on_c, 11, 62, 0
13, 191640, Note_on_c, 11, 62, 52
13, 191699, Note_on_c, 11, 62, 0
13, 191700, Note_on_c, 11, 64, 52
13, 191759, Note_on_c, 11, 64, 0
13, 191760, Note_on_c, 11, 65, 52
13, 191879, Note_on_c, 11, 65, 0
13, 191880, Note_on_c, 11, 62, 52
13, 191984, Note_on_c, 11, 62, 0
13, 192000, Note_on_c, 11, 76, 84
13, 192239, Note_on_c, 11, 76, 0
13, 192240, Note_on_c, 11, 79, 84
13, 192479, Note_on_c, 11, 79, 0
13, 192480, Note_on_c, 11, 77, 84
13, 192839, Note_on_c, 11, 77, 0
13, 192840, Note_on_c, 11, 76, 84
13, 192944, Note_on_c, 11, 76, 0
13, 192960, Note_on_c, 11, 81, 92
13, 193019, Note_on_c, 11, 81, 0
13, 193020, Note_on_c, 11, 81, 84
13, 193199, Note_on_c, 11, 81, 0
13, 193200, Note_on_c, 11, 79, 84
13, 193424, Note_on_c, 11, 79, 0
13, 193440, Note_on_c, 11, 77, 84
13, 193529, Note_on_c, 11, 77, 0
13, 193560, Note_on_c, 11, 77, 84
13, 193619, Note_on_c, 11, 77, 0
13, 193620, Note_on_c, 11, 79, 84
13, 193671, Note_on_c, 11, 79, 0
13, 193680, Note_on_c, 11, 81, 84
13, 193769, Note_on_c, 11, 81, 0
13, 193800, Note_on_c, 11, 77, 84
13, 193889, Note_on_c, 11, 77, 0
13, 193920, Note_on_c, 11, 79, 92
13, 193979, Note_on_c, 11, 79, 0
13, 193980, Note_on_c, 11, 79, 84
13, 194159, Note_on_c, 11, 79, 0
13, 194160, Note_on_c, 11, 82, 84
13, 194399, Note_on_c, 11, 82, 0
13, 194400, Note_on_c, 11, 81, 84
13, 194759, Note_on_c, 11, 81, 0
13, 194760, Note_on_c, 11, 79, 84
13, 194864, Note_on_c, 11, 79, 0
13, 194880, Note_on_c, 11, 84, 92
13, 194939, Note_on_c, 11, 84, 0
13, 194940, Note_on_c, 11, 84, 84
13, 195119, Note_on_c, 11, 84, 0
13, 195120, Note_on_c, 11, 82, 84
13, 195344, Note_on_c, 11, 82, 0
13, 195360, Note_on_c, 11, 81, 84
13, 195449, Note_on_c, 11, 81, 0
13, 195480, Note_on_c, 11, 81, 84
13, 195539, Note_on_c, 11, 81, 0
13, 195540, Note_on_c, 11, 82, 84
13, 195591, Note_on_c, 11, 82, 0
13, 195600, Note_on_c, 11, 84, 84
13, 195689, Note_on_c, 11, 84, 0
13, 195720, Note_on_c, 11, 81, 84
13, 195809, Note_on_c, 11, 81, 0
13, 195840, Note_on_c, 11, 86, 92
13, 195899, Note_on_c, 11, 86, 0
13, 195900, Note_on_c, 11, 86, 84
13, 196079, Note_on_c, 11, 86, 0
13, 196080, Note_on_c, 11, 84, 84
13, 196304, Note_on_c, 11, 84, 0
13, 196320, Note_on_c, 11, 82, 84
13, 196409, Note_on_c, 11, 82, 0
13, 196440, Note_on_c, 11, 79, 84
13, 196499, Note_on_c, 11, 79, 0
13, 196500, Note_on_c, 11, 81, 84
13, 196551, Note_on_c, 11, 81, 0
13, 196560, Note_on_c, 11, 82, 84
13, 196649, Note_on_c, 11, 82, 0
13, 196680, Note_on_c, 11, 84, 84
13, 196769, Note_on_c, 11, 84, 0
13, 196800, Note_on_c, 11, 86, 92
13, 196859, Note_on_c, 11, 86, 0
13, 196860, Note_on_c, 11, 86, 84
13, 197039, Note_on_c, 11, 86, 0
13, 197040, Note_on_c, 11, 84, 84
13, 197264, Note_on_c, 11, 84, 0
13, 197280, Note_on_c, 11, 82, 84
13, 197369, Note_on_c, 11, 82, 0
13, 197400, Note_on_c, 11, 79, 84
13, 197459, Note_on_c, 11, 79, 0
13, 197460, Note_on_c, 11, 81, 84
13, 197511, Note_on_c, 11, 81, 0
13, 197520, Note_on_c, 11, 82, 84
13, 197609, Note_on_c, 11, 82, 0
13, 197640, Note_on_c, 11, 84, 84
13, 197729, Note_on_c, 11, 84, 0
13, 197760, Note_on_c, 11, 86, 76
13, 197864, Note_on_c, 11, 86, 0
13, 197880, Note_on_c, 11, 65, 52
13, 197919, Note_on_c, 11, 65, 0
13, 197920, Note_on_c, 11, 67, 52
13, 197959, Note_on_c, 11, 67, 0
13, 197960, Note_on_c, 11, 69, 52
13, 197991, Note_on_c, 11, 69, 0
13, 198000, Note_on_c, 11, 70, 52
13, 198089, Note_on_c, 11, 70, 0
13, 198120, Note_on_c, 11, 72, 52
13, 198209, Note_on_c, 11, 72, 0
13, 198240, Note_on_c, 11, 74, 52
13, 198359, Note_on_c, 11, 74, 0
13, 199320, Note_on_c, 11, 65, 52
13, 199379, Note_on_c, 11, 65, 0
13, 199380, Note_on_c, 11, 67, 52
13, 199431, Note_on_c, 11, 67, 0
13, 199440, Note_on_c, 11, 69, 52
13, 199529, Note_on_c, 11, 69, 0
13, 199560, Note_on_c, 11, 70, 52
13, 199649, Note_on_c, 11, 70, 0
13, 199680, Note_on_c, 11, 72, 52
13, 199769, Note_on_c, 11, 72, 0
13, 199800, Note_on_c, 11, 69, 52
13, 199919, Note_on_c, 11, 69, 0
13, 199920, Note_on_c, 11, 70, 52
13, 200024, Note_on_c, 11, 70, 0
13, 200040, Note_on_c, 11, 74, 52
13, 200129, Note_on_c, 11, 74, 0
13, 200160, Note_on_c, 11, 72, 52
13, 200279, Note_on_c, 11, 72, 0
13, 200280, Note_on_c, 11, 70, 52
13, 200339, Note_on_c, 11, 70, 0
13, 200340, Note_on_c, 11, 69, 52
13, 200391, Note_on_c, 11, 69, 0
13, 200400, Note_on_c, 11, 67, 52
13, 200489, Note_on_c, 11, 67, 0
13, 200520, Note_on_c, 11, 60, 52
13, 200609, Note_on_c, 11, 60, 0
13, 200640, Note_on_c, 11, 65, 52
13, 200729, Note_on_c, 11, 65, 0
13, 200760, Note_on_c, 11, 67, 52
13, 200849, Note_on_c, 11, 67, 0
13, 200880, Note_on_c, 11, 69, 52
13, 200999, Note_on_c, 11, 69, 0
13, 201000, Note_on_c, 11, 70, 52
13, 201059, Note_on_c, 11, 70, 0
13, 201060, Note_on_c, 11, 69, 52
13, 201111, Note_on_c, 11, 69, 0
13, 201120, Note_on_c, 11, 67, 52
13, 201599, Note_on_c, 11, 67, 0
13, 204600, Note_on_c, 11, 57, 52
13, 204719, Note_on_c, 11, 57, 0
13, 204720, Note_on_c, 11, 58, 52
13, 204839, Note_on_c, 11, 58, 0
13, 204840, Note_on_c, 11, 62, 52
13, 204959, Note_on_c, 11, 62, 0
13, 204960, Note_on_c, 11, 60, 52
13, 205079, Note_on_c, 11, 60, 0
13, 205080, Note_on_c, 11, 55, 52
13, 205139, Note_on_c, 11, 55, 0
13, 205140, Note_on_c, 11, 57, 52
13, 205199, Note_on_c, 11, 57, 0
13, 205200, Note_on_c, 11, 58, 52
13, 205319, Note_on_c, 11, 58, 0
13, 205320, Note_on_c, 11, 55, 52
13, 205424, Note_on_c, 11, 55, 0
13, 205440, Note_on_c, 11, 57, 52
13, 205559, Note_on_c, 11, 57, 0
13, 208320, Note_on_c, 11, 57, 52
13, 208559, Note_on_c, 11, 57, 0
13, 208560, Note_on_c, 11, 60, 52
13, 208799, Note_on_c, 11, 60, 0
13, 208800, Note_on_c, 11, 58, 52
13, 209159, Note_on_c, 11, 58, 0
13, 209160, Note_on_c, 11, 57, 52
13, 209264, Note_on_c, 11, 57, 0
13, 209280, Note_on_c, 11, 62, 52
13, 209519, Note_on_c, 11, 62, 0
13, 209520, Note_on_c, 11, 60, 52
13, 209744, Note_on_c, 11, 60, 0
13, 209760, Note_on_c, 11, 55, 52
13, 209849, Note_on_c, 11, 55, 0
13, 209880, Note_on_c, 11, 55, 52
13, 209939, Note_on_c, 11, 55, 0
13, 209940, Note_on_c, 11, 57, 52
13, 209991, Note_on_c, 11, 57, 0
13, 210000, Note_on_c, 11, 58, 51
13, 210089, Note_on_c, 11, 58, 0
13, 210120, Note_on_c, 11, 59, 51
13, 210209, Note_on_c, 11, 59, 0
13, 210240, Note_on_c, 11, 60, 50
13, 210329, Note_on_c, 11, 60, 0
13, 210360, Note_on_c, 11, 55, 50
13, 210419, Note_on_c, 11, 55, 0
13, 210420, Note_on_c, 11, 57, 50
13, 210471, Note_on_c, 11, 57, 0
13, 210480, Note_on_c, 11, 58, 49
13, 210569, Note_on_c, 11, 58, 0
13, 210600, Note_on_c, 11, 59, 49
13, 210689, Note_on_c, 11, 59, 0
13, 210720, Note_on_c, 11, 60, 48
13, 210809, Note_on_c, 11, 60, 0
13, 210840, Note_on_c, 11, 55, 48
13, 210899, Note_on_c, 11, 55, 0
13, 210900, Note_on_c, 11, 57, 48
13, 210951, Note_on_c, 11, 57, 0
13, 210960, Note_on_c, 11, 58, 47
13, 211049, Note_on_c, 11, 58, 0
13, 211080, Note_on_c, 11, 59, 47
13, 211169, Note_on_c, 11, 59, 0
13, 211200, Note_on_c, 11, 60, 46
13, 211289, Note_on_c, 11, 60, 0
13, 211320, Note_on_c, 11, 55, 46
13, 211379, Note_on_c, 11, 55, 0
13, 211380, Note_on_c, 11, 57, 46
13, 211431, Note_on_c, 11, 57, 0
13, 211440, Note_on_c, 11, 58, 45
13, 211529, Note_on_c, 11, 58, 0
13, 211560, Note_on_c, 11, 59, 45
13, 211649, Note_on_c, 11, 59, 0
13, 211680, Note_on_c, 11, 60, 44
13, 211919, Note_on_c, 11, 60, 0
13, 214200, Note_on_c, 11, 57, 54
13, 214259, Note_on_c, 11, 57, 0
13, 214260, Note_on_c, 11, 58, 56
13, 214311, Note_on_c, 11, 58, 0
13, 214320, Note_on_c, 11, 60, 57
13, 214409, Note_on_c, 11, 60, 0
13, 214440, Note_on_c, 11, 61, 60
13, 214529, Note_on_c, 11, 61, 0
13, 214560, Note_on_c, 11, 62, 62
13, 214649, Note_on_c, 11, 62, 0
13, 214680, Note_on_c, 11, 58, 65
13, 214739, Note_on_c, 11, 58, 0
13, 214740, Note_on_c, 11, 60, 66
13, 214791, Note_on_c, 11, 60, 0
13, 214800, Note_on_c, 11, 62, 68
13, 214889, Note_on_c, 11, 62, 0
13, 214920, Note_on_c, 11, 64, 70
13, 215009, Note_on_c, 11, 64, 0
13, 215040, Note_on_c, 11, 65, 73
13, 215129, Note_on_c, 11, 65, 0
13, 215160, Note_on_c, 11, 62, 76
13, 215219, Note_on_c, 11, 62, 0
13, 215220, Note_on_c, 11, 64, 77
13, 215271, Note_on_c, 11, 64, 0
13, 215280, Note_on_c, 11, 65, 78
13, 215369, Note_on_c, 11, 65, 0
13, 215400, Note_on_c, 11, 67, 81
13, 215489, Note_on_c, 11, 67, 0
13, 215520, Note_on_c, 11, 77, 84
13, 215520, Note_on_c, 11, 65, 84
13, 215520, Note_on_c, 11, 69, 84
13, 215624, Note_on_c, 11, 77, 0
13, 215624, Note_on_c, 11, 65, 0
13, 215624, Note_on_c, 11, 69, 0
13, 215640, Note_on_c, 11, 69, 84
13, 215729, Note_on_c, 11, 69, 0
13, 215760, Note_on_c, 11, 70, 84
13, 215849, Note_on_c, 11, 70, 0
13, 215880, Note_on_c, 11, 74, 84
13, 215969, Note_on_c, 11, 74, 0
13, 216000, Note_on_c, 11, 72, 84
13, 216119, Note_on_c, 11, 72, 0
13, 216120, Note_on_c, 11, 70, 84
13, 216179, Note_on_c, 11, 70, 0
13, 216180, Note_on_c, 11, 69, 84
13, 216231, Note_on_c, 11, 69, 0
13, 216240, Note_on_c, 11, 67, 84
13, 216329, Note_on_c, 11, 67, 0
13, 216360, Note_on_c, 11, 60, 84
13, 216449, Note_on_c, 11, 60, 0
13, 216480, Note_on_c, 11, 65, 84
13, 216569, Note_on_c, 11, 65, 0
13, 216600, Note_on_c, 11, 76, 84
13, 216689, Note_on_c, 11, 76, 0
13, 216720, Note_on_c, 11, 77, 84
13, 216839, Note_on_c, 11, 77, 0
13, 216840, Note_on_c, 11, 79, 84
13, 216899, Note_on_c, 11, 79, 0
13, 216900, Note_on_c, 11, 77, 84
13, 216951, Note_on_c, 11, 77, 0
13, 216960, Note_on_c, 11, 76, 84
13, 217049, Note_on_c, 11, 76, 0
13, 217080, Note_on_c, 11, 77, 84
13, 217169, Note_on_c, 11, 77, 0
13, 217200, Note_on_c, 11, 79, 84
13, 217319, Note_on_c, 11, 79, 0
13, 217320, Note_on_c, 11, 81, 84
13, 217379, Note_on_c, 11, 81, 0
13, 217380, Note_on_c, 11, 79, 84
13, 217431, Note_on_c, 11, 79, 0
13, 217440, Note_on_c, 11, 77, 84
13, 217559, Note_on_c, 11, 77, 0
13, 217560, Note_on_c, 11, 81, 84
13, 217664, Note_on_c, 11, 81, 0
13, 217680, Note_on_c, 11, 81, 84
13, 217769, Note_on_c, 11, 81, 0
13, 217800, Note_on_c, 11, 81, 84
13, 217889, Note_on_c, 11, 81, 0
13, 217920, Note_on_c, 11, 81, 84
13, 218159, Note_on_c, 11, 81, 0
13, 218160, Note_on_c, 11, 79, 84
13, 218219, Note_on_c, 11, 79, 0
13, 218220, Note_on_c, 11, 77, 84
13, 218279, Note_on_c, 11, 77, 0
13, 218280, Note_on_c, 11, 76, 84
13, 218339, Note_on_c, 11, 76, 0
13, 218340, Note_on_c, 11, 74, 84
13, 218391, Note_on_c, 11, 74, 0
13, 218400, Note_on_c, 11, 72, 84
13, 218489, Note_on_c, 11, 72, 0
13, 218520, Note_on_c, 11, 74, 84
13, 218609, Note_on_c, 11, 74, 0
13, 218640, Note_on_c, 11, 76, 84
13, 218759, Note_on_c, 11, 76, 0
13, 218760, Note_on_c, 11, 77, 84
13, 218819, Note_on_c, 11, 77, 0
13, 218820, Note_on_c, 11, 76, 84
13, 218871, Note_on_c, 11, 76, 0
13, 218880, Note_on_c, 11, 74, 84
13, 218969, Note_on_c, 11, 74, 0
13, 219000, Note_on_c, 11, 76, 84
13, 219089, Note_on_c, 11, 76, 0
13, 219120, Note_on_c, 11, 77, 84
13, 219239, Note_on_c, 11, 77, 0
13, 219240, Note_on_c, 11, 79, 84
13, 219299, Note_on_c, 11, 79, 0
13, 219300, Note_on_c, 11, 77, 84
13, 219351, Note_on_c, 11, 77, 0
13, 219360, Note_on_c, 11, 76, 84
13, 219479, Note_on_c, 11, 76, 0
13, 219480, Note_on_c, 11, 79, 84
13, 219584, Note_on_c, 11, 79, 0
13, 219600, Note_on_c, 11, 79, 84
13, 219689, Note_on_c, 11, 79, 0
13, 219720, Note_on_c, 11, 79, 84
13, 219809, Note_on_c, 11, 79, 0
13, 219840, Note_on_c, 11, 79, 84
13, 220079, Note_on_c, 11, 79, 0
13, 220080, Note_on_c, 11, 81, 84
13, 220139, Note_on_c, 11, 81, 0
13, 220140, Note_on_c, 11, 79, 84
13, 220199, Note_on_c, 11, 79, 0
13, 220200, Note_on_c, 11, 77, 84
13, 220259, Note_on_c, 11, 77, 0
13, 220260, Note_on_c, 11, 76, 84
13, 220311, Note_on_c, 11, 76, 0
13, 220320, Note_on_c, 11, 77, 84
13, 220409, Note_on_c, 11, 77, 0
13, 220440, Note_on_c, 11, 79, 84
13, 220529, Note_on_c, 11, 79, 0
13, 220560, Note_on_c, 11, 81, 84
13, 220679, Note_on_c, 11, 81, 0
13, 220680, Note_on_c, 11, 82, 84
13, 220739, Note_on_c, 11, 82, 0
13, 220740, Note_on_c, 11, 81, 84
13, 220791, Note_on_c, 11, 81, 0
13, 220800, Note_on_c, 11, 79, 84
13, 220919, Note_on_c, 11, 79, 0
13, 220920, Note_on_c, 11, 76, 84
13, 221039, Note_on_c, 11, 76, 0
13, 221040, Note_on_c, 11, 79, 84
13, 221159, Note_on_c, 11, 79, 0
13, 221160, Note_on_c, 11, 76, 84
13, 221264, Note_on_c, 11, 76, 0
13, 221280, Note_on_c, 11, 77, 84
13, 221369, Note_on_c, 11, 77, 0
13, 221400, Note_on_c, 11, 79, 84
13, 221489, Note_on_c, 11, 79, 0
13, 221520, Note_on_c, 11, 81, 84
13, 221639, Note_on_c, 11, 81, 0
13, 221640, Note_on_c, 11, 82, 84
13, 221699, Note_on_c, 11, 82, 0
13, 221700, Note_on_c, 11, 81, 84
13, 221751, Note_on_c, 11, 81, 0
13, 221760, Note_on_c, 11, 79, 84
13, 221879, Note_on_c, 11, 79, 0
13, 221880, Note_on_c, 11, 76, 84
13, 221999, Note_on_c, 11, 76, 0
13, 222000, Note_on_c, 11, 79, 84
13, 222119, Note_on_c, 11, 79, 0
13, 222120, Note_on_c, 11, 76, 84
13, 222224, Note_on_c, 11, 76, 0
13, 222240, Note_on_c, 11, 77, 84
13, 222359, Note_on_c, 11, 77, 0
13, 222360, Note_on_c, 11, 76, 84
13, 222479, Note_on_c, 11, 76, 0
13, 222480, Note_on_c, 11, 79, 84
13, 222599, Note_on_c, 11, 79, 0
13, 222600, Note_on_c, 11, 76, 84
13, 222704, Note_on_c, 11, 76, 0
13, 222720, Note_on_c, 11, 77, 84
13, 222839, Note_on_c, 11, 77, 0
13, 222840, Note_on_c, 11, 76, 84
13, 222959, Note_on_c, 11, 76, 0
13, 222960, Note_on_c, 11, 79, 84
13, 223079, Note_on_c, 11, 79, 0
13, 223080, Note_on_c, 11, 76, 84
13, 223184, Note_on_c, 11, 76, 0
13, 223200, Note_on_c, 11, 69, 84
13, 223200, Note_on_c, 11, 77, 84
13, 223319, Note_on_c, 11, 69, 0
13, 223319, Note_on_c, 11, 77, 0
13, 224880, Program_c, 11, 45
13, 225120, Note_on_c, 11, 69, 48
13, 225120, Note_on_c, 11, 65, 48
13, 225359, Note_on_c, 11, 69, 0
13, 225359, Note_on_c, 11, 65, 0
13, 227040, Note_on_c, 11, 69, 48
13, 227040, Note_on_c, 11, 65, 48
13, 227279, Note_on_c, 11, 69, 0
13, 227279, Note_on_c, 11, 65, 0
13, 228000, Note_on_c, 11, 55, 48
13, 228000, Note_on_c, 11, 67, 48
13, 228239, Note_on_c, 11, 55, 0
13, 228239, Note_on_c, 11, 67, 0
13, 228960, Note_on_c, 11, 60, 48
13, 228960, Note_on_c, 11, 67, 48
13, 229199, Note_on_c, 11, 60, 0
13, 229199, Note_on_c, 11, 67, 0
13, 230880, Program_c, 11, 48
13, 231000, Note_on_c, 11, 74, 52
13, 231119, Note_on_c, 11, 74, 0
13, 231120, Note_on_c, 11, 72, 52
13, 231224, Note_on_c, 11, 72, 0
13, 231240, Note_on_c, 11, 71, 52
13, 231329, Note_on_c, 11, 71, 0
13, 231360, Note_on_c, 11, 72, 52
13, 231479, Note_on_c, 11, 72, 0
13, 231840, Note_on_c, 11, 60, 52
13, 231959, Note_on_c, 11, 60, 0
13, 231960, Note_on_c, 11, 64, 52
13, 232079, Note_on_c, 11, 64, 0
13, 232080, Note_on_c, 11, 60, 52
13, 232199, Note_on_c, 11, 60, 0
13, 232200, Note_on_c, 11, 64, 52
13, 232319, Note_on_c, 11, 64, 0
13, 232320, Note_on_c, 11, 60, 52
13, 232439, Note_on_c, 11, 60, 0
13, 232440, Note_on_c, 11, 64, 52
13, 232559, Note_on_c, 11, 64, 0
13, 232560, Note_on_c, 11, 60, 52
13, 232679, Note_on_c, 11, 60, 0
13, 232680, Note_on_c, 11, 64, 52
13, 232784, Note_on_c, 11, 64, 0
13, 232800, Note_on_c, 11, 60, 52
13, 232919, Note_on_c, 11, 60, 0
13, 232920, Note_on_c, 11, 65, 52
13, 233039, Note_on_c, 11, 65, 0
13, 233040, Note_on_c, 11, 60, 52
13, 233159, Note_on_c, 11, 60, 0
13, 233160, Note_on_c, 11, 65, 52
13, 233279, Note_on_c, 11, 65, 0
13, 233280, Note_on_c, 11, 60, 52
13, 233399, Note_on_c, 11, 60, 0
13, 233400, Note_on_c, 11, 65, 52
13, 233519, Note_on_c, 11, 65, 0
13, 233520, Note_on_c, 11, 60, 52
13, 233639, Note_on_c, 11, 60, 0
13, 233640, Note_on_c, 11, 65, 52
13, 233744, Note_on_c, 11, 65, 0
13, 233760, Note_on_c, 11, 72, 52
13, 233879, Note_on_c, 11, 72, 0
13, 233880, Note_on_c, 11, 70, 52
13, 233999, Note_on_c, 11, 70, 0
13, 234000, Note_on_c, 11, 67, 52
13, 234119, Note_on_c, 11, 67, 0
13, 234120, Note_on_c, 11, 64, 52
13, 234239, Note_on_c, 11, 64, 0
13, 234240, Note_on_c, 11, 60, 52
13, 234359, Note_on_c, 11, 60, 0
13, 234360, Note_on_c, 11, 67, 52
13, 234479, Note_on_c, 11, 67, 0
13, 234480, Note_on_c, 11, 64, 52
13, 234599, Note_on_c, 11, 64, 0
13, 234600, Note_on_c, 11, 60, 52
13, 234704, Note_on_c, 11, 60, 0
13, 234720, Note_on_c, 11, 74, 52
13, 234839, Note_on_c, 11, 74, 0
13, 234840, Note_on_c, 11, 72, 52
13, 234959, Note_on_c, 11, 72, 0
13, 234960, Note_on_c, 11, 69, 52
13, 235079, Note_on_c, 11, 69, 0
13, 235080, Note_on_c, 11, 65, 52
13, 235199, Note_on_c, 11, 65, 0
13, 235200, Note_on_c, 11, 60, 52
13, 235319, Note_on_c, 11, 60, 0
13, 235320, Note_on_c, 11, 69, 52
13, 235439, Note_on_c, 11, 69, 0
13, 235440, Note_on_c, 11, 65, 52
13, 235559, Note_on_c, 11, 65, 0
13, 235560, Note_on_c, 11, 60, 52
13, 235664, Note_on_c, 11, 60, 0
13, 235680, Note_on_c, 11, 58, 52
13, 235799, Note_on_c, 11, 58, 0
13, 235800, Note_on_c, 11, 64, 52
13, 235919, Note_on_c, 11, 64, 0
13, 235920, Note_on_c, 11, 58, 52
13, 236039, Note_on_c, 11, 58, 0
13, 236040, Note_on_c, 11, 64, 53
13, 236159, Note_on_c, 11, 64, 0
13, 236160, Note_on_c, 11, 58, 53
13, 236279, Note_on_c, 11, 58, 0
13, 236280, Note_on_c, 11, 64, 53
13, 236399, Note_on_c, 11, 64, 0
13, 236400, Note_on_c, 11, 58, 54
13, 236519, Note_on_c, 11, 58, 0
13, 236520, Note_on_c, 11, 64, 54
13, 236624, Note_on_c, 11, 64, 0
13, 236640, Note_on_c, 11, 60, 54
13, 236759, Note_on_c, 11, 60, 0
13, 236760, Note_on_c, 11, 65, 55
13, 236879, Note_on_c, 11, 65, 0
13, 236880, Note_on_c, 11, 60, 55
13, 236999, Note_on_c, 11, 60, 0
13, 237000, Note_on_c, 11, 65, 55
13, 237119, Note_on_c, 11, 65, 0
13, 237120, Note_on_c, 11, 60, 56
13, 237239, Note_on_c, 11, 60, 0
13, 237240, Note_on_c, 11, 65, 56
13, 237359, Note_on_c, 11, 65, 0
13, 237360, Note_on_c, 11, 60, 56
13, 237479, Note_on_c, 11, 60, 0
13, 237480, Note_on_c, 11, 65, 57
13, 237584, Note_on_c, 11, 65, 0
13, 237600, Note_on_c, 11, 67, 57
13, 237719, Note_on_c, 11, 67, 0
13, 237720, Note_on_c, 11, 70, 57
13, 237839, Note_on_c, 11, 70, 0
13, 237840, Note_on_c, 11, 67, 58
13, 237959, Note_on_c, 11, 67, 0
13, 237960, Note_on_c, 11, 70, 58
13, 238079, Note_on_c, 11, 70, 0
13, 238080, Note_on_c, 11, 67, 58
13, 238199, Note_on_c, 11, 67, 0
13, 238200, Note_on_c, 11, 70, 59
13, 238319, Note_on_c, 11, 70, 0
13, 238320, Note_on_c, 11, 67, 59
13, 238439, Note_on_c, 11, 67, 0
13, 238440, Note_on_c, 11, 70, 59
13, 238544, Note_on_c, 11, 70, 0
13, 238560, Note_on_c, 11, 69, 60
13, 238679, Note_on_c, 11, 69, 0
13, 238680, Note_on_c, 11, 72, 60
13, 238799, Note_on_c, 11, 72, 0
13, 238800, Note_on_c, 11, 69, 60
13, 238919, Note_on_c, 11, 69, 0
13, 238920, Note_on_c, 11, 72, 61
13, 239039, Note_on_c, 11, 72, 0
13, 239040, Note_on_c, 11, 69, 61
13, 239159, Note_on_c, 11, 69, 0
13, 239160, Note_on_c, 11, 72, 61
13, 239279, Note_on_c, 11, 72, 0
13, 239280, Note_on_c, 11, 69, 62
13, 239399, Note_on_c, 11, 69, 0
13, 239400, Note_on_c, 11, 77, 62
13, 239504, Note_on_c, 11, 77, 0
13, 239520, Note_on_c, 11, 79, 62
13, 239599, Note_on_c, 11, 79, 0
13, 239600, Note_on_c, 11, 76, 62
13, 239679, Note_on_c, 11, 76, 0
13, 239680, Note_on_c, 11, 79, 63
13, 239759, Note_on_c, 11, 79, 0
13, 239760, Note_on_c, 11, 76, 63
13, 239839, Note_on_c, 11, 76, 0
13, 239840, Note_on_c, 11, 79, 63
13, 239919, Note_on_c, 11, 79, 0
13, 239920, Note_on_c, 11, 76, 63
13, 239999, Note_on_c, 11, 76, 0
13, 240000, Note_on_c, 11, 79, 64
13, 240079, Note_on_c, 11, 79, 0
13, 240080, Note_on_c, 11, 76, 64
13, 240159, Note_on_c, 11, 76, 0
13, 240160, Note_on_c, 11, 79, 64
13, 240239, Note_on_c, 11, 79, 0
13, 240240, Note_on_c, 11, 76, 64
13, 240319, Note_on_c, 11, 76, 0
13, 240320, Note_on_c, 11, 79, 64
13, 240399, Note_on_c, 11, 79, 0
13, 240400, Note_on_c, 11, 76, 65
13, 240467, Note_on_c, 11, 76, 0
13, 240480, Note_on_c, 11, 81, 65
13, 240559, Note_on_c, 11, 81, 0
13, 240560, Note_on_c, 11, 77, 65
13, 240639, Note_on_c, 11, 77, 0
13, 240640, Note_on_c, 11, 81, 65
13, 240719, Note_on_c, 11, 81, 0
13, 240720, Note_on_c, 11, 77, 66
13, 240799, Note_on_c, 11, 77, 0
13, 240800, Note_on_c, 11, 81, 66
13, 240879, Note_on_c, 11, 81, 0
13, 240880, Note_on_c, 11, 77, 66
13, 240959, Note_on_c, 11, 77, 0
13, 240960, Note_on_c, 11, 81, 66
13, 241039, Note_on_c, 11, 81, 0
13, 241040, Note_on_c, 11, 77, 66
13, 241119, Note_on_c, 11, 77, 0
13, 241120, Note_on_c, 11, 81, 67
13, 241199, Note_on_c, 11, 81, 0
13, 241200, Note_on_c, 11, 77, 67
13, 241279, Note_on_c, 11, 77, 0
13, 241280, Note_on_c, 11, 81, 67
13, 241359, Note_on_c, 11, 81, 0
13, 241360, Note_on_c, 11, 77, 67
13, 241427, Note_on_c, 11, 77, 0
13, 241440, Note_on_c, 11, 82, 68
13, 241499, Note_on_c, 11, 82, 0
13, 241500, Note_on_c, 11, 79, 68
13, 241559, Note_on_c, 11, 79, 0
13, 241560, Note_on_c, 11, 82, 68
13, 241619, Note_on_c, 11, 82, 0
13, 241620, Note_on_c, 11, 79, 68
13, 241679, Note_on_c, 11, 79, 0
13, 241680, Note_on_c, 11, 82, 68
13, 241739, Note_on_c, 11, 82, 0
13, 241740, Note_on_c, 11, 79, 68
13, 241799, Note_on_c, 11, 79, 0
13, 241800, Note_on_c, 11, 82, 69
13, 241859, Note_on_c, 11, 82, 0
13, 241860, Note_on_c, 11, 79, 69
13, 241919, Note_on_c, 11, 79, 0
13, 241920, Note_on_c, 11, 82, 69
13, 241979, Note_on_c, 11, 82, 0
13, 241980, Note_on_c, 11, 79, 69
13, 242039, Note_on_c, 11, 79, 0
13, 242040, Note_on_c, 11, 82, 69
13, 242099, Note_on_c, 11, 82, 0
13, 242100, Note_on_c, 11, 79, 69
13, 242159, Note_on_c, 11, 79, 0
13, 242160, Note_on_c, 11, 82, 70
13, 242219, Note_on_c, 11, 82, 0
13, 242220, Note_on_c, 11, 79, 70
13, 242279, Note_on_c, 11, 79, 0
13, 242280, Note_on_c, 11, 82, 70
13, 242339, Note_on_c, 11, 82, 0
13, 242340, Note_on_c, 11, 79, 70
13, 242391, Note_on_c, 11, 79, 0
13, 242400, Note_on_c, 11, 81, 70
13, 242459, Note_on_c, 11, 81, 0
13, 242460, Note_on_c, 11, 77, 70
13, 242519, Note_on_c, 11, 77, 0
13, 242520, Note_on_c, 11, 81, 71
13, 242579, Note_on_c, 11, 81, 0
13, 242580, Note_on_c, 11, 77, 71
13, 242639, Note_on_c, 11, 77, 0
13, 242640, Note_on_c, 11, 81, 71
13, 242699, Note_on_c, 11, 81, 0
13, 242700, Note_on_c, 11, 77, 71
13, 242759, Note_on_c, 11, 77, 0
13, 242760, Note_on_c, 11, 81, 71
13, 242819, Note_on_c, 11, 81, 0
13, 242820, Note_on_c, 11, 77, 71
13, 242879, Note_on_c, 11, 77, 0
13, 242880, Note_on_c, 11, 81, 72
13, 242939, Note_on_c, 11, 81, 0
13, 242940, Note_on_c, 11, 77, 72
13, 242999, Note_on_c, 11, 77, 0
13, 243000, Note_on_c, 11, 81, 72
13, 243059, Note_on_c, 11, 81, 0
13, 243060, Note_on_c, 11, 77, 72
13, 243119, Note_on_c, 11, 77, 0
13, 243120, Note_on_c, 11, 81, 72
13, 243179, Note_on_c, 11, 81, 0
13, 243180, Note_on_c, 11, 77, 72
13, 243239, Note_on_c, 11, 77, 0
13, 243240, Note_on_c, 11, 81, 73
13, 243299, Note_on_c, 11, 81, 0
13, 243300, Note_on_c, 11, 77, 73
13, 243351, Note_on_c, 11, 77, 0
13, 243360, Note_on_c, 11, 82, 73
13, 243419, Note_on_c, 11, 82, 0
13, 243420, Note_on_c, 11, 76, 73
13, 243479, Note_on_c, 11, 76, 0
13, 243480, Note_on_c, 11, 72, 73
13, 243539, Note_on_c, 11, 72, 0
13, 243540, Note_on_c, 11, 70, 73
13, 243599, Note_on_c, 11, 70, 0
13, 243600, Note_on_c, 11, 72, 74
13, 243659, Note_on_c, 11, 72, 0
13, 243660, Note_on_c, 11, 70, 74
13, 243719, Note_on_c, 11, 70, 0
13, 243720, Note_on_c, 11, 72, 74
13, 243779, Note_on_c, 11, 72, 0
13, 243780, Note_on_c, 11, 70, 74
13, 243831, Note_on_c, 11, 70, 0
13, 243840, Note_on_c, 11, 72, 74
13, 243899, Note_on_c, 11, 72, 0
13, 243900, Note_on_c, 11, 70, 74
13, 243959, Note_on_c, 11, 70, 0
13, 243960, Note_on_c, 11, 72, 75
13, 244019, Note_on_c, 11, 72, 0
13, 244020, Note_on_c, 11, 70, 75
13, 244079, Note_on_c, 11, 70, 0
13, 244080, Note_on_c, 11, 72, 75
13, 244139, Note_on_c, 11, 72, 0
13, 244140, Note_on_c, 11, 70, 75
13, 244199, Note_on_c, 11, 70, 0
13, 244200, Note_on_c, 11, 72, 75
13, 244259, Note_on_c, 11, 72, 0
13, 244260, Note_on_c, 11, 70, 75
13, 244311, Note_on_c, 11, 70, 0
13, 244320, Note_on_c, 11, 69, 76
13, 244679, Note_on_c, 11, 69, 0
13, 244680, Note_on_c, 11, 70, 76
13, 244739, Note_on_c, 11, 70, 0
13, 244740, Note_on_c, 11, 72, 76
13, 244791, Note_on_c, 11, 72, 0
13, 244800, Note_on_c, 11, 74, 76
13, 244919, Note_on_c, 11, 74, 0
13, 244920, Note_on_c, 11, 72, 76
13, 244979, Note_on_c, 11, 72, 0
13, 244980, Note_on_c, 11, 70, 76
13, 245039, Note_on_c, 11, 70, 0
13, 245040, Note_on_c, 11, 69, 76
13, 245159, Note_on_c, 11, 69, 0
13, 245160, Note_on_c, 11, 70, 76
13, 245219, Note_on_c, 11, 70, 0
13, 245220, Note_on_c, 11, 72, 76
13, 245271, Note_on_c, 11, 72, 0
13, 245280, Note_on_c, 11, 74, 76
13, 245399, Note_on_c, 11, 74, 0
13, 245400, Note_on_c, 11, 72, 76
13, 245459, Note_on_c, 11, 72, 0
13, 245460, Note_on_c, 11, 70, 76
13, 245519, Note_on_c, 11, 70, 0
13, 245520, Note_on_c, 11, 69, 76
13, 245639, Note_on_c, 11, 69, 0
13, 245640, Note_on_c, 11, 70, 76
13, 245699, Note_on_c, 11, 70, 0
13, 245700, Note_on_c, 11, 72, 76
13, 245751, Note_on_c, 11, 72, 0
13, 245760, Note_on_c, 11, 74, 76
13, 245879, Note_on_c, 11, 74, 0
13, 246240, Program_c, 11, 45
13, 246480, Note_on_c, 11, 65, 48
13, 246719, Note_on_c, 11, 65, 0
13, 246960, Note_on_c, 11, 65, 48
13, 247199, Note_on_c, 11, 65, 0
13, 247440, Note_on_c, 11, 64, 48
13, 247664, Note_on_c, 11, 64, 0
13, 247678, Program_c, 11, 48
13, 247680, Note_on_c, 11, 69, 84
13, 248039, Note_on_c, 11, 69, 0
13, 248040, Note_on_c, 11, 70, 84
13, 248099, Note_on_c, 11, 70, 0
13, 248100, Note_on_c, 11, 72, 84
13, 248151, Note_on_c, 11, 72, 0
13, 248160, Note_on_c, 11, 74, 84
13, 248279, Note_on_c, 11, 74, 0
13, 248280, Note_on_c, 11, 72, 84
13, 248339, Note_on_c, 11, 72, 0
13, 248340, Note_on_c, 11, 70, 84
13, 248399, Note_on_c, 11, 70, 0
13, 248400, Note_on_c, 11, 69, 84
13, 248519, Note_on_c, 11, 69, 0
13, 248520, Note_on_c, 11, 70, 84
13, 248579, Note_on_c, 11, 70, 0
13, 248580, Note_on_c, 11, 72, 84
13, 248631, Note_on_c, 11, 72, 0
13, 248640, Note_on_c, 11, 74, 84
13, 248759, Note_on_c, 11, 74, 0
13, 248760, Note_on_c, 11, 72, 84
13, 248819, Note_on_c, 11, 72, 0
13, 248820, Note_on_c, 11, 70, 84
13, 248879, Note_on_c, 11, 70, 0
13, 248880, Note_on_c, 11, 69, 84
13, 248999, Note_on_c, 11, 69, 0
13, 249000, Note_on_c, 11, 70, 84
13, 249059, Note_on_c, 11, 70, 0
13, 249060, Note_on_c, 11, 72, 84
13, 249111, Note_on_c, 11, 72, 0
13, 249120, Note_on_c, 11, 74, 76
13, 249239, Note_on_c, 11, 74, 0
13, 249600, Program_c, 11, 45
13, 249840, Note_on_c, 11, 65, 52
13, 250079, Note_on_c, 11, 65, 0
13, 250320, Note_on_c, 11, 65, 52
13, 250559, Note_on_c, 11, 65, 0
13, 250800, Note_on_c, 11, 64, 52
13, 251039, Note_on_c, 11, 64, 0
13, 251280, Note_on_c, 11, 65, 48
13, 251519, Note_on_c, 11, 65, 0
13, 251760, Note_on_c, 11, 65, 53
13, 251999, Note_on_c, 11, 65, 0
13, 252240, Note_on_c, 11, 65, 59
13, 252479, Note_on_c, 11, 65, 0
13, 252720, Note_on_c, 11, 64, 65
13, 252944, Note_on_c, 11, 64, 0
13, 252958, Program_c, 11, 48
13, 252960, Note_on_c, 11, 65, 76
13, 253027, Note_on_c, 11, 65, 0
13, 253040, Note_on_c, 11, 69, 76
13, 253107, Note_on_c, 11, 69, 0
13, 253120, Note_on_c, 11, 69, 76
13, 253187, Note_on_c, 11, 69, 0
13, 253200, Note_on_c, 11, 69, 76
13, 253267, Note_on_c, 11, 69, 0
13, 253280, Note_on_c, 11, 70, 76
13, 253347, Note_on_c, 11, 70, 0
13, 253360, Note_on_c, 11, 72, 76
13, 253427, Note_on_c, 11, 72, 0
13, 253440, Note_on_c, 11, 74, 76
13, 253507, Note_on_c, 11, 74, 0
13, 253520, Note_on_c, 11, 65, 76
13, 253587, Note_on_c, 11, 65, 0
13, 253600, Note_on_c, 11, 74, 76
13, 253667, Note_on_c, 11, 74, 0
13, 253680, Note_on_c, 11, 65, 76
13, 253747, Note_on_c, 11, 65, 0
13, 253760, Note_on_c, 11, 72, 76
13, 253827, Note_on_c, 11, 72, 0
13, 253840, Note_on_c, 11, 70, 76
13, 253907, Note_on_c, 11, 70, 0
13, 253920, Note_on_c, 11, 69, 76
13, 253987, Note_on_c, 11, 69, 0
13, 254000, Note_on_c, 11, 60, 76
13, 254067, Note_on_c, 11, 60, 0
13, 254080, Note_on_c, 11, 69, 76
13, 254147, Note_on_c, 11, 69, 0
13, 254160, Note_on_c, 11, 60, 76
13, 254227, Note_on_c, 11, 60, 0
13, 254240, Note_on_c, 11, 67, 76
13, 254307, Note_on_c, 11, 67, 0
13, 254320, Note_on_c, 11, 65, 76
13, 254387, Note_on_c, 11, 65, 0
13, 254400, Note_on_c, 11, 58, 76
13, 254467, Note_on_c, 11, 58, 0
13, 254480, Note_on_c, 11, 55, 76
13, 254547, Note_on_c, 11, 55, 0
13, 254560, Note_on_c, 11, 58, 76
13, 254627, Note_on_c, 11, 58, 0
13, 254640, Note_on_c, 11, 55, 76
13, 254707, Note_on_c, 11, 55, 0
13, 254720, Note_on_c, 11, 57, 76
13, 254787, Note_on_c, 11, 57, 0
13, 254800, Note_on_c, 11, 58, 76
13, 254867, Note_on_c, 11, 58, 0
13, 254880, Note_on_c, 11, 57, 76
13, 255119, Note_on_c, 11, 57, 0
13, 255240, Note_on_c, 11, 69, 76
13, 255299, Note_on_c, 11, 69, 0
13, 255300, Note_on_c, 11, 67, 76
13, 255359, Note_on_c, 11, 67, 0
13, 255360, Note_on_c, 11, 65, 76
13, 255449, Note_on_c, 11, 65, 0
13, 255480, Note_on_c, 11, 69, 76
13, 255539, Note_on_c, 11, 69, 0
13, 255540, Note_on_c, 11, 67, 76
13, 255599, Note_on_c, 11, 67, 0
13, 255600, Note_on_c, 11, 65, 76
13, 255689, Note_on_c, 11, 65, 0
13, 255720, Note_on_c, 11, 74, 76
13, 255779, Note_on_c, 11, 74, 0
13, 255780, Note_on_c, 11, 71, 76
13, 255839, Note_on_c, 11, 71, 0
13, 255840, Note_on_c, 11, 72, 76
13, 256019, Note_on_c, 11, 72, 0
13, 256200, Note_on_c, 11, 74, 76
13, 256259, Note_on_c, 11, 74, 0
13, 256260, Note_on_c, 11, 72, 76
13, 256319, Note_on_c, 11, 72, 0
13, 256320, Note_on_c, 11, 69, 76
13, 256409, Note_on_c, 11, 69, 0
13, 256440, Note_on_c, 11, 72, 76
13, 256499, Note_on_c, 11, 72, 0
13, 256500, Note_on_c, 11, 70, 76
13, 256559, Note_on_c, 11, 70, 0
13, 256560, Note_on_c, 11, 67, 76
13, 256649, Note_on_c, 11, 67, 0
13, 256680, Note_on_c, 11, 70, 76
13, 256739, Note_on_c, 11, 70, 0
13, 256740, Note_on_c, 11, 69, 76
13, 256799, Note_on_c, 11, 69, 0
13, 256800, Note_on_c, 11, 65, 76
13, 256979, Note_on_c, 11, 65, 0
13, 257160, Note_on_c, 11, 69, 76
13, 257219, Note_on_c, 11, 69, 0
13, 257220, Note_on_c, 11, 67, 76
13, 257279, Note_on_c, 11, 67, 0
13, 257280, Note_on_c, 11, 65, 76
13, 257369, Note_on_c, 11, 65, 0
13, 257400, Note_on_c, 11, 69, 76
13, 257459, Note_on_c, 11, 69, 0
13, 257460, Note_on_c, 11, 67, 76
13, 257519, Note_on_c, 11, 67, 0
13, 257520, Note_on_c, 11, 65, 76
13, 257609, Note_on_c, 11, 65, 0
13, 257640, Note_on_c, 11, 74, 76
13, 257699, Note_on_c, 11, 74, 0
13, 257700, Note_on_c, 11, 71, 76
13, 257759, Note_on_c, 11, 71, 0
13, 257760, Note_on_c, 11, 72, 76
13, 257939, Note_on_c, 11, 72, 0
13, 258120, Note_on_c, 11, 74, 76
13, 258179, Note_on_c, 11, 74, 0
13, 258180, Note_on_c, 11, 72, 76
13, 258239, Note_on_c, 11, 72, 0
13, 258240, Note_on_c, 11, 69, 76
13, 258329, Note_on_c, 11, 69, 0
13, 258360, Note_on_c, 11, 72, 76
13, 258419, Note_on_c, 11, 72, 0
13, 258420, Note_on_c, 11, 70, 76
13, 258479, Note_on_c, 11, 70, 0
13, 258480, Note_on_c, 11, 67, 76
13, 258569, Note_on_c, 11, 67, 0
13, 258600, Note_on_c, 11, 70, 76
13, 258659, Note_on_c, 11, 70, 0
13, 258660, Note_on_c, 11, 69, 76
13, 258719, Note_on_c, 11, 69, 0
13, 258720, Note_on_c, 11, 65, 76
13, 258809, Note_on_c, 11, 65, 0
13, 260640, Note_on_c, 11, 65, 52
13, 260729, Note_on_c, 11, 65, 0
13, 260760, Note_on_c, 11, 72, 52
13, 260819, Note_on_c, 11, 72, 0
13, 260820, Note_on_c, 11, 69, 52
13, 260879, Note_on_c, 11, 69, 0
13, 260880, Note_on_c, 11, 67, 51
13, 260969, Note_on_c, 11, 67, 0
13, 261000, Note_on_c, 11, 72, 51
13, 261059, Note_on_c, 11, 72, 0
13, 261060, Note_on_c, 11, 70, 51
13, 261119, Note_on_c, 11, 70, 0
13, 261120, Note_on_c, 11, 65, 50
13, 261209, Note_on_c, 11, 65, 0
13, 261240, Note_on_c, 11, 72, 50
13, 261299, Note_on_c, 11, 72, 0
13, 261300, Note_on_c, 11, 69, 50
13, 261359, Note_on_c, 11, 69, 0
13, 261360, Note_on_c, 11, 67, 49
13, 261449, Note_on_c, 11, 67, 0
13, 261480, Note_on_c, 11, 72, 49
13, 261539, Note_on_c, 11, 72, 0
13, 261540, Note_on_c, 11, 70, 49
13, 261599, Note_on_c, 11, 70, 0
13, 261600, Note_on_c, 11, 65, 48
13, 261689, Note_on_c, 11, 65, 0
13, 261720, Note_on_c, 11, 72, 48
13, 261779, Note_on_c, 11, 72, 0
13, 261780, Note_on_c, 11, 69, 48
13, 261839, Note_on_c, 11, 69, 0
13, 261840, Note_on_c, 11, 67, 47
13, 261929, Note_on_c, 11, 67, 0
13, 261960, Note_on_c, 11, 72, 47
13, 262019, Note_on_c, 11, 72, 0
13, 262020, Note_on_c, 11, 70, 47
13, 262079, Note_on_c, 11, 70, 0
13, 262080, Note_on_c, 11, 65, 46
13, 262169, Note_on_c, 11, 65, 0
13, 262200, Note_on_c, 11, 72, 46
13, 262259, Note_on_c, 11, 72, 0
13, 262260, Note_on_c, 11, 69, 46
13, 262319, Note_on_c, 11, 69, 0
13, 262320, Note_on_c, 11, 67, 45
13, 262409, Note_on_c, 11, 67, 0
13, 262440, Note_on_c, 11, 72, 45
13, 262499, Note_on_c, 11, 72, 0
13, 262500, Note_on_c, 11, 70, 45
13, 262551, Note_on_c, 11, 70, 0
13, 262560, Note_on_c, 11, 65, 44
13, 262799, Note_on_c, 11, 65, 0
13, 262800, Note_on_c, 11, 60, 44
13, 263039, Note_on_c, 11, 60, 0
13, 263040, Note_on_c, 11, 65, 44
13, 263279, Note_on_c, 11, 65, 0
13, 263280, Note_on_c, 11, 60, 44
13, 263519, Note_on_c, 11, 60, 0
13, 263520, Note_on_c, 11, 65, 44
13, 263759, Note_on_c, 11, 65, 0
13, 263760, Note_on_c, 11, 60, 44
13, 263999, Note_on_c, 11, 60, 0
13, 264000, Note_on_c, 11, 65, 44
13, 264239, Note_on_c, 11, 65, 0
13, 264240, Note_on_c, 11, 60, 44
13, 264479, Note_on_c, 11, 60, 0
13, 264480, Note_on_c, 11, 65, 44
13, 264569, Note_on_c, 11, 65, 0
13, 266040, Note_on_c, 11, 74, 76
13, 266159, Note_on_c, 11, 74, 0
13, 266160, Note_on_c, 11, 75, 76
13, 266264, Note_on_c, 11, 75, 0
13, 266280, Note_on_c, 11, 79, 76
13, 266369, Note_on_c, 11, 79, 0
13, 268440, Note_on_c, 11, 70, 76
13, 268529, Note_on_c, 11, 70, 0
13, 268560, Note_on_c, 11, 58, 76
13, 268649, Note_on_c, 11, 58, 0
13, 268680, Note_on_c, 11, 70, 76
13, 268769, Note_on_c, 11, 70, 0
13, 268800, Note_on_c, 11, 58, 76
13, 268889, Note_on_c, 11, 58, 0
13, 268920, Note_on_c, 11, 67, 76
13, 269009, Note_on_c, 11, 67, 0
13, 269040, Note_on_c, 11, 69, 76
13, 269129, Note_on_c, 11, 69, 0
13, 269160, Note_on_c, 11, 57, 76
13, 269249, Note_on_c, 11, 57, 0
13, 269280, Note_on_c, 11, 65, 76
13, 269369, Note_on_c, 11, 65, 0
13, 269400, Note_on_c, 11, 63, 76
13, 269489, Note_on_c, 11, 63, 0
13, 269520, Note_on_c, 11, 62, 76
13, 269639, Note_on_c, 11, 62, 0
13, 269640, Note_on_c, 11, 63, 76
13, 269699, Note_on_c, 11, 63, 0
13, 269700, Note_on_c, 11, 62, 76
13, 269751, Note_on_c, 11, 62, 0
13, 269760, Note_on_c, 11, 60, 76
13, 269849, Note_on_c, 11, 60, 0
13, 269880, Note_on_c, 11, 70, 76
13, 269969, Note_on_c, 11, 70, 0
13, 270000, Note_on_c, 11, 69, 76
13, 270089, Note_on_c, 11, 69, 0
13, 270120, Note_on_c, 11, 69, 76
13, 270209, Note_on_c, 11, 69, 0
13, 270240, Note_on_c, 11, 70, 52
13, 270359, Note_on_c, 11, 70, 0
13, 270720, Note_on_c, 11, 57, 52
13, 270839, Note_on_c, 11, 57, 0
13, 271200, Note_on_c, 11, 58, 52
13, 271267, Note_on_c, 11, 58, 0
13, 271280, Note_on_c, 11, 70, 52
13, 271347, Note_on_c, 11, 70, 0
13, 271360, Note_on_c, 11, 70, 52
13, 271427, Note_on_c, 11, 70, 0
13, 271440, Note_on_c, 11, 70, 52
13, 272227, Note_on_c, 11, 70, 0
13, 272240, Note_on_c, 11, 70, 52
13, 272307, Note_on_c, 11, 70, 0
13, 272320, Note_on_c, 11, 70, 52
13, 272387, Note_on_c, 11, 70, 0
13, 272400, Note_on_c, 11, 70, 52
13, 273187, Note_on_c, 11, 70, 0
13, 273200, Note_on_c, 11, 70, 52
13, 273267, Note_on_c, 11, 70, 0
13, 273280, Note_on_c, 11, 70, 52
13, 273347, Note_on_c, 11, 70, 0
13, 273360, Note_on_c, 11, 70, 52
13, 274147, Note_on_c, 11, 70, 0
13, 274160, Note_on_c, 11, 70, 52
13, 274227, Note_on_c, 11, 70, 0
13, 274240, Note_on_c, 11, 70, 52
13, 274307, Note_on_c, 11, 70, 0
13, 274320, Note_on_c, 11, 70, 52
13, 275107, Note_on_c, 11, 70, 0
13, 275120, Note_on_c, 11, 70, 52
13, 275187, Note_on_c, 11, 70, 0
13, 275200, Note_on_c, 11, 70, 52
13, 275267, Note_on_c, 11, 70, 0
13, 275280, Note_on_c, 11, 70, 52
13, 275587, Note_on_c, 11, 70, 0
13, 275600, Note_on_c, 11, 67, 52
13, 275667, Note_on_c, 11, 67, 0
13, 275680, Note_on_c, 11, 67, 52
13, 275747, Note_on_c, 11, 67, 0
13, 275760, Note_on_c, 11, 67, 52
13, 276067, Note_on_c, 11, 67, 0
13, 276080, Note_on_c, 11, 64, 52
13, 276147, Note_on_c, 11, 64, 0
13, 276160, Note_on_c, 11, 64, 52
13, 276227, Note_on_c, 11, 64, 0
13, 276240, Note_on_c, 11, 64, 52
13, 276547, Note_on_c, 11, 64, 0
13, 276560, Note_on_c, 11, 60, 52
13, 276627, Note_on_c, 11, 60, 0
13, 276640, Note_on_c, 11, 60, 52
13, 276707, Note_on_c, 11, 60, 0
13, 276720, Note_on_c, 11, 60, 52
13, 276944, Note_on_c, 11, 60, 0
13, 276960, Note_on_c, 11, 65, 76
13, 276960, Note_on_c, 11, 57, 76
13, 277199, Note_on_c, 11, 57, 0
13, 277279, Note_on_c, 11, 65, 0
13, 277280, Note_on_c, 11, 69, 76
13, 277359, Note_on_c, 11, 69, 0
13, 277360, Note_on_c, 11, 67, 76
13, 277439, Note_on_c, 11, 67, 0
13, 277440, Note_on_c, 11, 65, 76
13, 277519, Note_on_c, 11, 65, 0
13, 277520, Note_on_c, 11, 69, 76
13, 277599, Note_on_c, 11, 69, 0
13, 277600, Note_on_c, 11, 67, 76
13, 277679, Note_on_c, 11, 67, 0
13, 277680, Note_on_c, 11, 65, 76
13, 277759, Note_on_c, 11, 65, 0
13, 277760, Note_on_c, 11, 74, 76
13, 277839, Note_on_c, 11, 74, 0
13, 277840, Note_on_c, 11, 71, 76
13, 277907, Note_on_c, 11, 71, 0
13, 277920, Note_on_c, 11, 72, 76
13, 278239, Note_on_c, 11, 72, 0
13, 278240, Note_on_c, 11, 74, 76
13, 278319, Note_on_c, 11, 74, 0
13, 278320, Note_on_c, 11, 72, 76
13, 278399, Note_on_c, 11, 72, 0
13, 278400, Note_on_c, 11, 69, 76
13, 278479, Note_on_c, 11, 69, 0
13, 278480, Note_on_c, 11, 72, 76
13, 278559, Note_on_c, 11, 72, 0
13, 278560, Note_on_c, 11, 70, 76
13, 278639, Note_on_c, 11, 70, 0
13, 278640, Note_on_c, 11, 67, 76
13, 278719, Note_on_c, 11, 67, 0
13, 278720, Note_on_c, 11, 70, 76
13, 278799, Note_on_c, 11, 70, 0
13, 278800, Note_on_c, 11, 69, 76
13, 278867, Note_on_c, 11, 69, 0
13, 278880, Note_on_c, 11, 65, 76
13, 279199, Note_on_c, 11, 65, 0
13, 279200, Note_on_c, 11, 69, 76
13, 279279, Note_on_c, 11, 69, 0
13, 279280, Note_on_c, 11, 67, 76
13, 279359, Note_on_c, 11, 67, 0
13, 279360, Note_on_c, 11, 65, 76
13, 279439, Note_on_c, 11, 65, 0
13, 279440, Note_on_c, 11, 69, 76
13, 279519, Note_on_c, 11, 69, 0
13, 279520, Note_on_c, 11, 67, 76
13, 279599, Note_on_c, 11, 67, 0
13, 279600, Note_on_c, 11, 65, 76
13, 279679, Note_on_c, 11, 65, 0
13, 279680, Note_on_c, 11, 74, 76
13, 279759, Note_on_c, 11, 74, 0
13, 279760, Note_on_c, 11, 71, 76
13, 279827, Note_on_c, 11, 71, 0
13, 279840, Note_on_c, 11, 72, 76
13, 280159, Note_on_c, 11, 72, 0
13, 280160, Note_on_c, 11, 74, 76
13, 280239, Note_on_c, 11, 74, 0
13, 280240, Note_on_c, 11, 72, 76
13, 280319, Note_on_c, 11, 72, 0
13, 280320, Note_on_c, 11, 69, 76
13, 280399, Note_on_c, 11, 69, 0
13, 280400, Note_on_c, 11, 72, 76
13, 280479, Note_on_c, 11, 72, 0
13, 280480, Note_on_c, 11, 70, 76
13, 280559, Note_on_c, 11, 70, 0
13, 280560, Note_on_c, 11, 67, 76
13, 280639, Note_on_c, 11, 67, 0
13, 280640, Note_on_c, 11, 70, 76
13, 280719, Note_on_c, 11, 70, 0
13, 280720, Note_on_c, 11, 69, 76
13, 280787, Note_on_c, 11, 69, 0
13, 280800, Note_on_c, 11, 65, 76
13, 281107, Note_on_c, 11, 65, 0
13, 281120, Note_on_c, 11, 77, 76
13, 281187, Note_on_c, 11, 77, 0
13, 281200, Note_on_c, 11, 77, 76
13, 281267, Note_on_c, 11, 77, 0
13, 281280, Note_on_c, 11, 77, 76
13, 281587, Note_on_c, 11, 77, 0
13, 281600, Note_on_c, 11, 77, 76
13, 281667, Note_on_c, 11, 77, 0
13, 281680, Note_on_c, 11, 77, 76
13, 281747, Note_on_c, 11, 77, 0
13, 281760, Note_on_c, 11, 81, 76
13, 282067, Note_on_c, 11, 81, 0
13, 282080, Note_on_c, 11, 81, 76
13, 282147, Note_on_c, 11, 81, 0
13, 282160, Note_on_c, 11, 81, 76
13, 282227, Note_on_c, 11, 81, 0
13, 282240, Note_on_c, 11, 76, 76
13, 282547, Note_on_c, 11, 76, 0
13, 282560, Note_on_c, 11, 76, 76
13, 282627, Note_on_c, 11, 76, 0
13, 282640, Note_on_c, 11, 76, 76
13, 282707, Note_on_c, 11, 76, 0
13, 282720, Note_on_c, 11, 77, 76
13, 283027, Note_on_c, 11, 77, 0
13, 283040, Note_on_c, 11, 77, 76
13, 283107, Note_on_c, 11, 77, 0
13, 283120, Note_on_c, 11, 77, 76
13, 283187, Note_on_c, 11, 77, 0
13, 283200, Note_on_c, 11, 77, 76
13, 283507, Note_on_c, 11, 77, 0
13, 283520, Note_on_c, 11, 77, 76
13, 283587, Note_on_c, 11, 77, 0
13, 283600, Note_on_c, 11, 77, 76
13, 283667, Note_on_c, 11, 77, 0
13, 283680, Note_on_c, 11, 81, 76
13, 283987, Note_on_c, 11, 81, 0
13, 284000, Note_on_c, 11, 81, 76
13, 284067, Note_on_c, 11, 81, 0
13, 284080, Note_on_c, 11, 81, 76
13, 284147, Note_on_c, 11, 81, 0
13, 284160, Note_on_c, 11, 76, 76
13, 284467, Note_on_c, 11, 76, 0
13, 284480, Note_on_c, 11, 76, 76
13, 284547, Note_on_c, 11, 76, 0
13, 284560, Note_on_c, 11, 76, 76
13, 284627, Note_on_c, 11, 76, 0
13, 284640, Note_on_c, 11, 77, 76
13, 284947, Note_on_c, 11, 77, 0
13, 284960, Note_on_c, 11, 77, 76
13, 285027, Note_on_c, 11, 77, 0
13, 285040, Note_on_c, 11, 77, 76
13, 285107, Note_on_c, 11, 77, 0
13, 285120, Note_on_c, 11, 77, 76
13, 285427, Note_on_c, 11, 77, 0
13, 285440, Note_on_c, 11, 77, 76
13, 285507, Note_on_c, 11, 77, 0
13, 285520, Note_on_c, 11, 77, 76
13, 285587, Note_on_c, 11, 77, 0
13, 285600, Note_on_c, 11, 81, 84
13, 285907, Note_on_c, 11, 81, 0
13, 285920, Note_on_c, 11, 81, 84
13, 285987, Note_on_c, 11, 81, 0
13, 286000, Note_on_c, 11, 81, 84
13, 286067, Note_on_c, 11, 81, 0
13, 286080, Note_on_c, 11, 81, 84
13, 286387, Note_on_c, 11, 81, 0
13, 286400, Note_on_c, 11, 81, 84
13, 286467, Note_on_c, 11, 81, 0
13, 286480, Note_on_c, 11, 81, 84
13, 286547, Note_on_c, 11, 81, 0
13, 286560, Note_on_c, 11, 81, 84
13, 286867, Note_on_c, 11, 81, 0
13, 286880, Note_on_c, 11, 79, 84
13, 286947, Note_on_c, 11, 79, 0
13, 286960, Note_on_c, 11, 79, 84
13, 287027, Note_on_c, 11, 79, 0
13, 287040, Note_on_c, 11, 79, 84
13, 287347, Note_on_c, 11, 79, 0
13, 287360, Note_on_c, 11, 77, 84
13, 287427, Note_on_c, 11, 77, 0
13, 287440, Note_on_c, 11, 77, 84
13, 287507, Note_on_c, 11, 77, 0
13, 287520, Note_on_c, 11, 77, 84
13, 287827, Note_on_c, 11, 77, 0
13, 287840, Note_on_c, 11, 76, 84
13, 287907, Note_on_c, 11, 76, 0
13, 287920, Note_on_c, 11, 76, 84
13, 287987, Note_on_c, 11, 76, 0
13, 288000, Note_on_c, 11, 76, 84
13, 288307, Note_on_c, 11, 76, 0
13, 288320, Note_on_c, 11, 74, 84
13, 288387, Note_on_c, 11, 74, 0
13, 288400, Note_on_c, 11, 74, 84
13, 288467, Note_on_c, 11, 74, 0
13, 288480, Control_c, 11, 11, 127
13, 288480, Note_on_c, 11, 74, 84
13, 288560, Control_c, 11, 11, 124
13, 288640, Control_c, 11, 11, 120
13, 288720, Control_c, 11, 11, 117
13, 288787, Note_on_c, 11, 74, 0
13, 288800, Control_c, 11, 11, 114
13, 288800, Note_on_c, 11, 72, 84
13, 288867, Note_on_c, 11, 72, 0
13, 288880, Note_on_c, 11, 72, 84
13, 288880, Control_c, 11, 11, 111
13, 288947, Note_on_c, 11, 72, 0
13, 288960, Control_c, 11, 11, 107
13, 288960, Note_on_c, 11, 72, 84
13, 289040, Control_c, 11, 11, 104
13, 289120, Control_c, 11, 11, 101
13, 289200, Control_c, 11, 11, 97
13, 289267, Note_on_c, 11, 72, 0
13, 289280, Control_c, 11, 11, 94
13, 289280, Note_on_c, 11, 70, 84
13, 289347, Note_on_c, 11, 70, 0
13, 289360, Note_on_c, 11, 70, 84
13, 289360, Control_c, 11, 11, 91
13, 289427, Note_on_c, 11, 70, 0
13, 289440, Control_c, 11, 11, 88
13, 289440, Note_on_c, 11, 70, 84
13, 289520, Control_c, 11, 11, 84
13, 289600, Control_c, 11, 11, 81
13, 289680, Control_c, 11, 11, 78
13, 289747, Note_on_c, 11, 70, 0
13, 289760, Note_on_c, 11, 69, 84
13, 289760, Control_c, 11, 11, 74
13, 289827, Note_on_c, 11, 69, 0
13, 289840, Control_c, 11, 11, 71
13, 289840, Note_on_c, 11, 69, 84
13, 289907, Note_on_c, 11, 69, 0
13, 289920, Control_c, 11, 11, 68
13, 289920, Note_on_c, 11, 69, 84
13, 290000, Control_c, 11, 11, 64
13, 290080, Control_c, 11, 11, 61
13, 290160, Control_c, 11, 11, 58
13, 290227, Note_on_c, 11, 69, 0
13, 290240, Note_on_c, 11, 67, 84
13, 290240, Control_c, 11, 11, 55
13, 290307, Note_on_c, 11, 67, 0
13, 290320, Control_c, 11, 11, 48
13, 290320, Note_on_c, 11, 67, 84
13, 290387, Note_on_c, 11, 67, 0
13, 290640, Control_c, 11, 11, 127
13, 290880, Note_on_c, 11, 65, 44
13, 290999, Note_on_c, 11, 65, 0
13, 291000, Note_on_c, 11, 62, 44
13, 291059, Note_on_c, 11, 62, 0
13, 291060, Note_on_c, 11, 60, 44
13, 291111, Note_on_c, 11, 60, 0
13, 291120, Note_on_c, 11, 59, 44
13, 291209, Note_on_c, 11, 59, 0
13, 291240, Note_on_c, 11, 55, 44
13, 291329, Note_on_c, 11, 55, 0
13, 291360, Note_on_c, 11, 60, 76
13, 291704, Note_on_c, 11, 60, 0
13, 291720, Note_on_c, 11, 72, 76
13, 291824, Note_on_c, 11, 72, 0
13, 291840, Note_on_c, 11, 65, 76
13, 291840, Note_on_c, 11, 72, 76
13, 291840, Note_on_c, 11, 81, 76
13, 291959, Note_on_c, 11, 65, 0
13, 291959, Note_on_c, 11, 72, 0
13, 291959, Note_on_c, 11, 81, 0
13, 292080, Note_on_c, 11, 79, 76
13, 292080, Note_on_c, 11, 64, 76
13, 292080, Note_on_c, 11, 72, 76
13, 292199, Note_on_c, 11, 79, 0
13, 292199, Note_on_c, 11, 64, 0
13, 292199, Note_on_c, 11, 72, 0
13, 292800, Note_on_c, 11, 65, 44
13, 292919, Note_on_c, 11, 65, 0
13, 292920, Note_on_c, 11, 62, 44
13, 292979, Note_on_c, 11, 62, 0
13, 292980, Note_on_c, 11, 60, 44
13, 293031, Note_on_c, 11, 60, 0
13, 293040, Note_on_c, 11, 59, 44
13, 293129, Note_on_c, 11, 59, 0
13, 293160, Note_on_c, 11, 55, 44
13, 293249, Note_on_c, 11, 55, 0
13, 293280, Note_on_c, 11, 60, 76
13, 293624, Note_on_c, 11, 60, 0
13, 293640, Note_on_c, 11, 72, 76
13, 293744, Note_on_c, 11, 72, 0
13, 293760, Note_on_c, 11, 72, 76
13, 293760, Note_on_c, 11, 81, 76
13, 293760, Note_on_c, 11, 65, 76
13, 293879, Note_on_c, 11, 72, 0
13, 293879, Note_on_c, 11, 81, 0
13, 293879, Note_on_c, 11, 65, 0
13, 294000, Note_on_c, 11, 72, 76
13, 294000, Note_on_c, 11, 64, 76
13, 294000, Note_on_c, 11, 79, 76
13, 294119, Note_on_c, 11, 72, 0
13, 294119, Note_on_c, 11, 64, 0
13, 294119, Note_on_c, 11, 79, 0
13, 294240, Note_on_c, 11, 65, 76
13, 294240, Note_on_c, 11, 77, 76
13, 294240, Note_on_c, 11, 72, 76
13, 294359, Note_on_c, 11, 65, 0
13, 294359, Note_on_c, 11, 77, 0
13, 294359, Note_on_c, 11, 72, 0
13, 295680, Note_on_c, 11, 76, 76
13, 296024, Note_on_c, 11, 76, 0
13, 296040, Note_on_c, 11, 76, 76
13, 296144, Note_on_c, 11, 76, 0
13, 296160, Note_on_c, 11, 77, 76
13, 296160, Note_on_c, 11, 69, 76
13, 296279, Note_on_c, 11, 77, 0
13, 296279, Note_on_c, 11, 69, 0
13, 297600, Note_on_c, 11, 76, 76
13, 297944, Note_on_c, 11, 76, 0
13, 297960, Note_on_c, 11, 76, 76
13, 298064, Note_on_c, 11, 76, 0
13, 298080, Note_on_c, 11, 69, 76
13, 298080, Note_on_c, 11, 77, 76
13, 298199, Note_on_c, 11, 69, 0
13, 298199, Note_on_c, 11, 77, 0
13, 298560, Note_on_c, 11, 76, 76
13, 298904, Note_on_c, 11, 76, 0
13, 298920, Note_on_c, 11, 76, 76
13, 299024, Note_on_c, 11, 76, 0
13, 299040, Note_on_c, 11, 77, 76
13, 299040, Note_on_c, 11, 69, 76
13, 299159, Note_on_c, 11, 77, 0
13, 299159, Note_on_c, 11, 69, 0
13, 299520, Note_on_c, 11, 76, 76
13, 299864, Note_on_c, 11, 76, 0
13, 299880, Note_on_c, 11, 76, 76
13, 299984, Note_on_c, 11, 76, 0
13, 300000, Note_on_c, 11, 69, 76
13, 300000, Note_on_c, 11, 77, 76
13, 300119, Note_on_c, 11, 69, 0
13, 300119, Note_on_c, 11, 77, 0
13, 300480, Note_on_c, 11, 57, 68
13, 300480, Note_on_c, 11, 65, 68
13, 300599, Note_on_c, 11, 57, 0
13, 300599, Note_on_c, 11, 65, 0
13, 300960, Note_on_c, 11, 57, 60
13, 300960, Note_on_c, 11, 65, 60
13, 301079, Note_on_c, 11, 57, 0
13, 301079, Note_on_c, 11, 65, 0
13, 301440, Note_on_c, 11, 57, 52
13, 301440, Note_on_c, 11, 65, 52
13, 301559, Note_on_c, 11, 57, 0
13, 301559, Note_on_c, 11, 65, 0
13, 301920, Note_on_c, 11, 65, 44
13, 301920, Note_on_c, 11, 57, 44
13, 302039, Note_on_c, 11, 65, 0
13, 302039, Note_on_c, 11, 57, 0
13, 308160, Note_on_c, 11, 70, 76
13, 308249, Note_on_c, 11, 70, 0
13, 308280, Note_on_c, 11, 72, 76
13, 308369, Note_on_c, 11, 72, 0
13, 308400, Note_on_c, 11, 74, 76
13, 308489, Note_on_c, 11, 74, 0
13, 308520, Note_on_c, 11, 76, 76
13, 308609, Note_on_c, 11, 76, 0
13, 308640, Note_on_c, 11, 77, 84
13, 308699, Note_on_c, 11, 77, 0
13, 308700, Note_on_c, 11, 77, 76
13, 309104, Note_on_c, 11, 77, 0
13, 309120, Note_on_c, 11, 79, 84
13, 309120, Note_on_c, 11, 64, 84
13, 309120, Note_on_c, 11, 72, 84
13, 309179, Note_on_c, 11, 79, 0
13, 309179, Note_on_c, 11, 64, 0
13, 309179, Note_on_c, 11, 72, 0
13, 309180, Note_on_c, 11, 64, 76
13, 309180, Note_on_c, 11, 72, 76
13, 309180, Note_on_c, 11, 79, 76
13, 309359, Note_on_c, 11, 64, 0
13, 309359, Note_on_c, 11, 72, 0
13, 309584, Note_on_c, 11, 79, 0
13, 309600, Note_on_c, 11, 72, 84
13, 309600, Note_on_c, 11, 81, 84
13, 309600, Note_on_c, 11, 65, 84
13, 309659, Note_on_c, 11, 72, 0
13, 309659, Note_on_c, 11, 81, 0
13, 309659, Note_on_c, 11, 65, 0
13, 309660, Note_on_c, 11, 72, 76
13, 309660, Note_on_c, 11, 81, 76
13, 309660, Note_on_c, 11, 65, 76
13, 309839, Note_on_c, 11, 72, 0
13, 309839, Note_on_c, 11, 65, 0
13, 310064, Note_on_c, 11, 81, 0
13, 310080, Note_on_c, 11, 81, 76
13, 310080, Note_on_c, 11, 65, 76
13, 310080, Note_on_c, 11, 72, 76
13, 310259, Note_on_c, 11, 81, 0
13, 310259, Note_on_c, 11, 65, 0
13, 310259, Note_on_c, 11, 72, 0
13, 310320, Note_on_c, 11, 65, 76
13, 310320, Note_on_c, 11, 72, 76
13, 310320, Note_on_c, 11, 81, 76
13, 310499, Note_on_c, 11, 65, 0
13, 310499, Note_on_c, 11, 72, 0
13, 310499, Note_on_c, 11, 81, 0
13, 310560, Note_on_c, 11, 65, 76
13, 310560, Note_on_c, 11, 72, 76
13, 310560, Note_on_c, 11, 81, 76
13, 310799, Note_on_c, 11, 65, 0
13, 310799, Note_on_c, 11, 72, 0
13, 311024, Note_on_c, 11, 81, 0
13, 311040, Note_on_c, 11, 65, 52
13, 311040, Note_on_c, 11, 60, 52
13, 311504, Note_on_c, 11, 65, 0
13, 311504, Note_on_c, 11, 60, 0
13, 311520, Note_on_c, 11, 65, 52
13, 311520, Note_on_c, 11, 60, 52
13, 311999, Note_on_c, 11, 65, 0
13, 311999, Note_on_c, 11, 60, 0
13, 311999, End_track
14, 0, Start_track
14, 0, Title_t, "Viola "
14, 0, MIDI_port, 0
14, 0, Program_c, 12, 48
14, 0, Control_c, 12, 11, 127
14, 0, Control_c, 12, 10, 70
14, 0, Control_c, 12, 7, 96
14, 0, Note_on_c, 12, 48, 52
14, 959, Note_on_c, 12, 48, 0
14, 960, Note_on_c, 12, 48, 52
14, 1424, Note_on_c, 12, 48, 0
14, 1440, Note_on_c, 12, 48, 52
14, 1904, Note_on_c, 12, 48, 0
14, 1920, Note_on_c, 12, 53, 52
14, 2159, Note_on_c, 12, 53, 0
14, 2160, Note_on_c, 12, 50, 52
14, 2399, Note_on_c, 12, 50, 0
14, 2400, Note_on_c, 12, 52, 52
14, 2759, Note_on_c, 12, 52, 0
14, 2760, Note_on_c, 12, 48, 52
14, 2864, Note_on_c, 12, 48, 0
14, 2880, Note_on_c, 12, 53, 52
14, 3119, Note_on_c, 12, 53, 0
14, 3120, Note_on_c, 12, 50, 52
14, 3359, Note_on_c, 12, 50, 0
14, 3360, Note_on_c, 12, 52, 52
14, 3719, Note_on_c, 12, 52, 0
14, 3720, Note_on_c, 12, 48, 52
14, 3824, Note_on_c, 12, 48, 0
14, 3838, Control_c, 12, 11, 80
14, 3840, Note_on_c, 12, 53, 76
14, 3840, Control_c, 12, 11, 80
14, 3880, Control_c, 12, 11, 82
14, 3920, Control_c, 12, 11, 84
14, 3960, Control_c, 12, 11, 86
14, 4000, Control_c, 12, 11, 88
14, 4040, Control_c, 12, 11, 90
14, 4079, Note_on_c, 12, 53, 0
14, 4080, Note_on_c, 12, 60, 76
14, 4080, Control_c, 12, 11, 92
14, 4120, Control_c, 12, 11, 94
14, 4160, Control_c, 12, 11, 96
14, 4200, Control_c, 12, 11, 98
14, 4240, Control_c, 12, 11, 100
14, 4280, Control_c, 12, 11, 102
14, 4304, Note_on_c, 12, 60, 0
14, 4320, Note_on_c, 12, 60, 76
14, 4320, Control_c, 12, 11, 104
14, 4360, Control_c, 12, 11, 105
14, 4400, Control_c, 12, 11, 107
14, 4440, Control_c, 12, 11, 109
14, 4480, Control_c, 12, 11, 111
14, 4520, Control_c, 12, 11, 113
14, 4560, Control_c, 12, 11, 115
14, 4600, Control_c, 12, 11, 117
14, 4640, Control_c, 12, 11, 119
14, 4679, Note_on_c, 12, 60, 0
14, 4680, Control_c, 12, 11, 121
14, 4680, Note_on_c, 12, 65, 76
14, 4720, Control_c, 12, 11, 123
14, 4760, Control_c, 12, 11, 125
14, 4784, Note_on_c, 12, 65, 0
14, 4800, Control_c, 12, 11, 127
14, 4800, Note_on_c, 12, 65, 76
14, 5039, Note_on_c, 12, 65, 0
14, 5040, Note_on_c, 12, 60, 76
14, 5264, Note_on_c, 12, 60, 0
14, 5280, Note_on_c, 12, 60, 76
14, 5744, Note_on_c, 12, 60, 0
14, 5760, Note_on_c, 12, 57, 76
14, 5760, Note_on_c, 12, 60, 76
14, 5999, Note_on_c, 12, 57, 0
14, 5999, Note_on_c, 12, 60, 0
14, 6000, Note_on_c, 12, 53, 76
14, 6000, Note_on_c, 12, 57, 76
14, 6239, Note_on_c, 12, 53, 0
14, 6239, Note_on_c, 12, 57, 0
14, 6240, Note_on_c, 12, 58, 76
14, 6240, Note_on_c, 12, 55, 76
14, 6599, Note_on_c, 12, 58, 0
14, 6599, Note_on_c, 12, 55, 0
14, 6600, Note_on_c, 12, 60, 76
14, 6600, Note_on_c, 12, 57, 76
14, 6704, Note_on_c, 12, 60, 0
14, 6704, Note_on_c, 12, 57, 0
14, 6718, Control_c, 12, 11, 80
14, 6720, Note_on_c, 12, 62, 76
14, 6839, Note_on_c, 12, 62, 0
14, 6840, Note_on_c, 12, 64, 76
14, 6959, Note_on_c, 12, 64, 0
14, 6960, Note_on_c, 12, 65, 76
14, 7064, Note_on_c, 12, 65, 0
14, 7080, Note_on_c, 12, 48, 76
14, 7169, Note_on_c, 12, 48, 0
14, 7200, Control_c, 12, 11, 80
14, 7200, Note_on_c, 12, 55, 76
14, 7253, Control_c, 12, 11, 81
14, 7307, Control_c, 12, 11, 83
14, 7360, Control_c, 12, 11, 84
14, 7413, Control_c, 12, 11, 85
14, 7467, Control_c, 12, 11, 87
14, 7520, Control_c, 12, 11, 88
14, 7544, Note_on_c, 12, 55, 0
14, 7560, Note_on_c, 12, 62, 76
14, 7573, Control_c, 12, 11, 89
14, 7627, Control_c, 12, 11, 90
14, 7664, Note_on_c, 12, 62, 0
14, 7680, Note_on_c, 12, 55, 76
14, 7680, Control_c, 12, 11, 92
14, 7733, Control_c, 12, 11, 93
14, 7787, Control_c, 12, 11, 94
14, 7840, Control_c, 12, 11, 96
14, 7893, Control_c, 12, 11, 97
14, 7947, Control_c, 12, 11, 98
14, 8000, Control_c, 12, 11, 100
14, 8024, Note_on_c, 12, 55, 0
14, 8040, Note_on_c, 12, 62, 76
14, 8053, Control_c, 12, 11, 101
14, 8107, Control_c, 12, 11, 102
14, 8144, Note_on_c, 12, 62, 0
14, 8160, Control_c, 12, 11, 104
14, 8160, Note_on_c, 12, 55, 76
14, 8213, Control_c, 12, 11, 105
14, 8267, Control_c, 12, 11, 106
14, 8320, Control_c, 12, 11, 107
14, 8373, Control_c, 12, 11, 109
14, 8427, Control_c, 12, 11, 110
14, 8480, Control_c, 12, 11, 111
14, 8504, Note_on_c, 12, 55, 0
14, 8520, Note_on_c, 12, 62, 76
14, 8533, Control_c, 12, 11, 113
14, 8587, Control_c, 12, 11, 114
14, 8624, Note_on_c, 12, 62, 0
14, 8640, Control_c, 12, 11, 115
14, 8640, Note_on_c, 12, 55, 76
14, 8693, Control_c, 12, 11, 117
14, 8747, Control_c, 12, 11, 118
14, 8800, Control_c, 12, 11, 119
14, 8853, Control_c, 12, 11, 120
14, 8907, Control_c, 12, 11, 122
14, 8960, Control_c, 12, 11, 123
14, 8984, Note_on_c, 12, 55, 0
14, 9000, Note_on_c, 12, 62, 76
14, 9013, Control_c, 12, 11, 124
14, 9067, Control_c, 12, 11, 127
14, 9104, Note_on_c, 12, 62, 0
14, 9120, Note_on_c, 12, 55, 76
14, 9464, Note_on_c, 12, 55, 0
14, 9480, Note_on_c, 12, 62, 76
14, 9584, Note_on_c, 12, 62, 0
14, 9600, Note_on_c, 12, 55, 76
14, 9600, Control_c, 12, 11, 127
14, 9653, Control_c, 12, 11, 125
14, 9707, Control_c, 12, 11, 124
14, 9760, Control_c, 12, 11, 122
14, 9813, Control_c, 12, 11, 120
14, 9867, Control_c, 12, 11, 118
14, 9920, Control_c, 12, 11, 117
14, 9944, Note_on_c, 12, 55, 0
14, 9960, Note_on_c, 12, 62, 76
14, 9973, Control_c, 12, 11, 115
14, 10027, Control_c, 12, 11, 113
14, 10064, Note_on_c, 12, 62, 0
14, 10080, Note_on_c, 12, 55, 76
14, 10080, Control_c, 12, 11, 111
14, 10133, Control_c, 12, 11, 110
14, 10187, Control_c, 12, 11, 108
14, 10240, Control_c, 12, 11, 106
14, 10293, Control_c, 12, 11, 104
14, 10347, Control_c, 12, 11, 103
14, 10400, Control_c, 12, 11, 101
14, 10424, Note_on_c, 12, 55, 0
14, 10440, Note_on_c, 12, 62, 76
14, 10453, Control_c, 12, 11, 99
14, 10507, Control_c, 12, 11, 97
14, 10544, Note_on_c, 12, 62, 0
14, 10560, Note_on_c, 12, 55, 76
14, 10560, Control_c, 12, 11, 96
14, 10613, Control_c, 12, 11, 94
14, 10667, Control_c, 12, 11, 92
14, 10720, Control_c, 12, 11, 90
14, 10773, Control_c, 12, 11, 89
14, 10827, Control_c, 12, 11, 87
14, 10880, Control_c, 12, 11, 85
14, 10904, Note_on_c, 12, 55, 0
14, 10920, Note_on_c, 12, 62, 76
14, 10933, Control_c, 12, 11, 83
14, 10987, Control_c, 12, 11, 82
14, 11024, Note_on_c, 12, 62, 0
14, 11040, Note_on_c, 12, 55, 76
14, 11040, Control_c, 12, 11, 80
14, 11093, Control_c, 12, 11, 78
14, 11147, Control_c, 12, 11, 76
14, 11200, Control_c, 12, 11, 75
14, 11253, Control_c, 12, 11, 73
14, 11307, Control_c, 12, 11, 71
14, 11360, Control_c, 12, 11, 69
14, 11384, Note_on_c, 12, 55, 0
14, 11400, Note_on_c, 12, 62, 76
14, 11413, Control_c, 12, 11, 68
14, 11467, Control_c, 12, 11, 64
14, 11504, Note_on_c, 12, 62, 0
14, 11520, Note_on_c, 12, 55, 76
14, 11639, Note_on_c, 12, 55, 0
14, 15360, Note_on_c, 12, 60, 76
14, 15360, Control_c, 12, 11, 64
14, 15413, Control_c, 12, 11, 66
14, 15467, Control_c, 12, 11, 68
14, 15520, Control_c, 12, 11, 69
14, 15573, Control_c, 12, 11, 71
14, 15627, Control_c, 12, 11, 73
14, 15680, Control_c, 12, 11, 75
14, 15733, Control_c, 12, 11, 76
14, 15787, Control_c, 12, 11, 78
14, 15840, Control_c, 12, 11, 80
14, 15893, Control_c, 12, 11, 82
14, 15947, Control_c, 12, 11, 83
14, 16000, Control_c, 12, 11, 85
14, 16053, Control_c, 12, 11, 87
14, 16107, Control_c, 12, 11, 89
14, 16160, Control_c, 12, 11, 90
14, 16213, Control_c, 12, 11, 92
14, 16267, Control_c, 12, 11, 94
14, 16319, Note_on_c, 12, 60, 0
14, 16320, Control_c, 12, 11, 96
14, 16320, Note_on_c, 12, 60, 76
14, 16373, Control_c, 12, 11, 97
14, 16427, Control_c, 12, 11, 99
14, 16480, Control_c, 12, 11, 101
14, 16533, Control_c, 12, 11, 103
14, 16587, Control_c, 12, 11, 104
14, 16640, Control_c, 12, 11, 106
14, 16693, Control_c, 12, 11, 108
14, 16747, Control_c, 12, 11, 110
14, 16800, Control_c, 12, 11, 111
14, 16853, Control_c, 12, 11, 113
14, 16907, Control_c, 12, 11, 115
14, 16960, Control_c, 12, 11, 117
14, 17013, Control_c, 12, 11, 118
14, 17067, Control_c, 12, 11, 120
14, 17120, Control_c, 12, 11, 122
14, 17173, Control_c, 12, 11, 124
14, 17227, Control_c, 12, 11, 127
14, 17264, Note_on_c, 12, 60, 0
14, 17280, Note_on_c, 12, 65, 76
14, 17384, Note_on_c, 12, 65, 0
14, 17400, Note_on_c, 12, 60, 76
14, 17451, Note_on_c, 12, 60, 0
14, 17460, Note_on_c, 12, 48, 76
14, 17511, Note_on_c, 12, 48, 0
14, 17520, Note_on_c, 12, 60, 76
14, 17571, Note_on_c, 12, 60, 0
14, 17580, Note_on_c, 12, 48, 76
14, 17631, Note_on_c, 12, 48, 0
14, 17640, Note_on_c, 12, 60, 76
14, 17691, Note_on_c, 12, 60, 0
14, 17700, Note_on_c, 12, 48, 76
14, 17751, Note_on_c, 12, 48, 0
14, 17760, Note_on_c, 12, 60, 76
14, 17811, Note_on_c, 12, 60, 0
14, 17820, Note_on_c, 12, 48, 76
14, 17871, Note_on_c, 12, 48, 0
14, 17880, Note_on_c, 12, 60, 76
14, 17931, Note_on_c, 12, 60, 0
14, 17940, Note_on_c, 12, 48, 76
14, 17991, Note_on_c, 12, 48, 0
14, 18000, Note_on_c, 12, 60, 76
14, 18051, Note_on_c, 12, 60, 0
14, 18060, Note_on_c, 12, 48, 76
14, 18111, Note_on_c, 12, 48, 0
14, 18120, Note_on_c, 12, 60, 76
14, 18171, Note_on_c, 12, 60, 0
14, 18180, Note_on_c, 12, 48, 76
14, 18231, Note_on_c, 12, 48, 0
14, 18240, Note_on_c, 12, 60, 76
14, 18291, Note_on_c, 12, 60, 0
14, 18300, Note_on_c, 12, 48, 76
14, 18351, Note_on_c, 12, 48, 0
14, 18360, Note_on_c, 12, 60, 76
14, 18411, Note_on_c, 12, 60, 0
14, 18420, Note_on_c, 12, 48, 76
14, 18471, Note_on_c, 12, 48, 0
14, 18480, Note_on_c, 12, 60, 76
14, 18531, Note_on_c, 12, 60, 0
14, 18540, Note_on_c, 12, 48, 76
14, 18591, Note_on_c, 12, 48, 0
14, 18600, Note_on_c, 12, 60, 76
14, 18651, Note_on_c, 12, 60, 0
14, 18660, Note_on_c, 12, 48, 76
14, 18711, Note_on_c, 12, 48, 0
14, 18720, Note_on_c, 12, 60, 76
14, 18771, Note_on_c, 12, 60, 0
14, 18780, Note_on_c, 12, 48, 76
14, 18831, Note_on_c, 12, 48, 0
14, 18840, Note_on_c, 12, 60, 76
14, 18891, Note_on_c, 12, 60, 0
14, 18900, Note_on_c, 12, 48, 76
14, 18951, Note_on_c, 12, 48, 0
14, 18960, Note_on_c, 12, 60, 76
14, 19011, Note_on_c, 12, 60, 0
14, 19020, Note_on_c, 12, 48, 76
14, 19071, Note_on_c, 12, 48, 0
14, 19080, Note_on_c, 12, 60, 76
14, 19131, Note_on_c, 12, 60, 0
14, 19140, Note_on_c, 12, 48, 76
14, 19191, Note_on_c, 12, 48, 0
14, 19200, Note_on_c, 12, 60, 76
14, 19251, Note_on_c, 12, 60, 0
14, 19260, Note_on_c, 12, 48, 76
14, 19311, Note_on_c, 12, 48, 0
14, 19320, Note_on_c, 12, 60, 76
14, 19371, Note_on_c, 12, 60, 0
14, 19380, Note_on_c, 12, 48, 76
14, 19431, Note_on_c, 12, 48, 0
14, 19440, Note_on_c, 12, 60, 76
14, 19491, Note_on_c, 12, 60, 0
14, 19500, Note_on_c, 12, 48, 76
14, 19551, Note_on_c, 12, 48, 0
14, 19560, Note_on_c, 12, 60, 76
14, 19611, Note_on_c, 12, 60, 0
14, 19620, Note_on_c, 12, 48, 76
14, 19671, Note_on_c, 12, 48, 0
14, 19680, Note_on_c, 12, 60, 76
14, 19731, Note_on_c, 12, 60, 0
14, 19740, Note_on_c, 12, 48, 76
14, 19791, Note_on_c, 12, 48, 0
14, 19800, Note_on_c, 12, 60, 76
14, 19851, Note_on_c, 12, 60, 0
14, 19860, Note_on_c, 12, 48, 76
14, 19911, Note_on_c, 12, 48, 0
14, 19920, Note_on_c, 12, 60, 76
14, 19971, Note_on_c, 12, 60, 0
14, 19980, Note_on_c, 12, 48, 76
14, 20031, Note_on_c, 12, 48, 0
14, 20040, Note_on_c, 12, 60, 76
14, 20091, Note_on_c, 12, 60, 0
14, 20100, Note_on_c, 12, 48, 76
14, 20151, Note_on_c, 12, 48, 0
14, 20160, Note_on_c, 12, 60, 76
14, 20211, Note_on_c, 12, 60, 0
14, 20220, Note_on_c, 12, 48, 76
14, 20271, Note_on_c, 12, 48, 0
14, 20280, Note_on_c, 12, 60, 76
14, 20331, Note_on_c, 12, 60, 0
14, 20340, Note_on_c, 12, 48, 76
14, 20391, Note_on_c, 12, 48, 0
14, 20400, Note_on_c, 12, 60, 76
14, 20451, Note_on_c, 12, 60, 0
14, 20460, Note_on_c, 12, 48, 76
14, 20511, Note_on_c, 12, 48, 0
14, 20520, Note_on_c, 12, 60, 76
14, 20571, Note_on_c, 12, 60, 0
14, 20580, Note_on_c, 12, 48, 76
14, 20631, Note_on_c, 12, 48, 0
14, 20640, Note_on_c, 12, 60, 76
14, 20691, Note_on_c, 12, 60, 0
14, 20700, Note_on_c, 12, 48, 76
14, 20751, Note_on_c, 12, 48, 0
14, 20760, Note_on_c, 12, 60, 76
14, 20811, Note_on_c, 12, 60, 0
14, 20820, Note_on_c, 12, 48, 76
14, 20871, Note_on_c, 12, 48, 0
14, 20880, Note_on_c, 12, 60, 76
14, 20931, Note_on_c, 12, 60, 0
14, 20940, Note_on_c, 12, 48, 76
14, 20991, Note_on_c, 12, 48, 0
14, 21000, Note_on_c, 12, 60, 76
14, 21051, Note_on_c, 12, 60, 0
14, 21060, Note_on_c, 12, 48, 76
14, 21111, Note_on_c, 12, 48, 0
14, 21120, Note_on_c, 12, 60, 76
14, 21171, Note_on_c, 12, 60, 0
14, 21180, Note_on_c, 12, 48, 76
14, 21231, Note_on_c, 12, 48, 0
14, 21240, Note_on_c, 12, 60, 76
14, 21291, Note_on_c, 12, 60, 0
14, 21300, Note_on_c, 12, 48, 76
14, 21351, Note_on_c, 12, 48, 0
14, 21360, Note_on_c, 12, 60, 76
14, 21411, Note_on_c, 12, 60, 0
14, 21420, Note_on_c, 12, 48, 76
14, 21471, Note_on_c, 12, 48, 0
14, 21480, Note_on_c, 12, 60, 76
14, 21531, Note_on_c, 12, 60, 0
14, 21540, Note_on_c, 12, 48, 76
14, 21591, Note_on_c, 12, 48, 0
14, 21600, Note_on_c, 12, 60, 76
14, 21651, Note_on_c, 12, 60, 0
14, 21660, Note_on_c, 12, 48, 76
14, 21711, Note_on_c, 12, 48, 0
14, 21720, Note_on_c, 12, 60, 76
14, 21771, Note_on_c, 12, 60, 0
14, 21780, Note_on_c, 12, 48, 76
14, 21831, Note_on_c, 12, 48, 0
14, 21840, Note_on_c, 12, 60, 76
14, 21891, Note_on_c, 12, 60, 0
14, 21900, Note_on_c, 12, 48, 76
14, 21951, Note_on_c, 12, 48, 0
14, 21960, Note_on_c, 12, 60, 76
14, 22011, Note_on_c, 12, 60, 0
14, 22020, Note_on_c, 12, 48, 76
14, 22071, Note_on_c, 12, 48, 0
14, 22080, Note_on_c, 12, 60, 76
14, 22131, Note_on_c, 12, 60, 0
14, 22140, Note_on_c, 12, 48, 76
14, 22191, Note_on_c, 12, 48, 0
14, 22200, Note_on_c, 12, 60, 76
14, 22251, Note_on_c, 12, 60, 0
14, 22260, Note_on_c, 12, 48, 76
14, 22311, Note_on_c, 12, 48, 0
14, 22320, Note_on_c, 12, 60, 76
14, 22371, Note_on_c, 12, 60, 0
14, 22380, Note_on_c, 12, 48, 76
14, 22431, Note_on_c, 12, 48, 0
14, 22440, Note_on_c, 12, 60, 76
14, 22491, Note_on_c, 12, 60, 0
14, 22500, Note_on_c, 12, 48, 76
14, 22551, Note_on_c, 12, 48, 0
14, 22560, Note_on_c, 12, 60, 76
14, 22611, Note_on_c, 12, 60, 0
14, 22620, Note_on_c, 12, 48, 76
14, 22671, Note_on_c, 12, 48, 0
14, 22680, Note_on_c, 12, 60, 76
14, 22731, Note_on_c, 12, 60, 0
14, 22740, Note_on_c, 12, 48, 76
14, 22791, Note_on_c, 12, 48, 0
14, 22800, Note_on_c, 12, 60, 76
14, 22851, Note_on_c, 12, 60, 0
14, 22860, Note_on_c, 12, 48, 76
14, 22911, Note_on_c, 12, 48, 0
14, 22920, Note_on_c, 12, 60, 76
14, 22971, Note_on_c, 12, 60, 0
14, 22980, Note_on_c, 12, 48, 76
14, 23031, Note_on_c, 12, 48, 0
14, 23040, Note_on_c, 12, 60, 76
14, 23091, Note_on_c, 12, 60, 0
14, 23100, Note_on_c, 12, 48, 76
14, 23151, Note_on_c, 12, 48, 0
14, 23160, Note_on_c, 12, 60, 76
14, 23211, Note_on_c, 12, 60, 0
14, 23220, Note_on_c, 12, 48, 76
14, 23271, Note_on_c, 12, 48, 0
14, 23280, Note_on_c, 12, 60, 76
14, 23331, Note_on_c, 12, 60, 0
14, 23340, Note_on_c, 12, 48, 76
14, 23391, Note_on_c, 12, 48, 0
14, 23400, Note_on_c, 12, 60, 76
14, 23451, Note_on_c, 12, 60, 0
14, 23460, Note_on_c, 12, 48, 76
14, 23511, Note_on_c, 12, 48, 0
14, 23520, Note_on_c, 12, 60, 76
14, 23571, Note_on_c, 12, 60, 0
14, 23580, Note_on_c, 12, 48, 76
14, 23631, Note_on_c, 12, 48, 0
14, 23640, Note_on_c, 12, 60, 76
14, 23691, Note_on_c, 12, 60, 0
14, 23700, Note_on_c, 12, 48, 76
14, 23751, Note_on_c, 12, 48, 0
14, 23760, Note_on_c, 12, 60, 76
14, 23811, Note_on_c, 12, 60, 0
14, 23820, Note_on_c, 12, 48, 76
14, 23871, Note_on_c, 12, 48, 0
14, 23880, Note_on_c, 12, 60, 76
14, 23931, Note_on_c, 12, 60, 0
14, 23940, Note_on_c, 12, 48, 76
14, 23991, Note_on_c, 12, 48, 0
14, 24000, Note_on_c, 12, 60, 76
14, 24051, Note_on_c, 12, 60, 0
14, 24060, Note_on_c, 12, 48, 76
14, 24111, Note_on_c, 12, 48, 0
14, 24120, Note_on_c, 12, 60, 76
14, 24171, Note_on_c, 12, 60, 0
14, 24180, Note_on_c, 12, 48, 76
14, 24231, Note_on_c, 12, 48, 0
14, 24240, Note_on_c, 12, 60, 76
14, 24291, Note_on_c, 12, 60, 0
14, 24300, Note_on_c, 12, 48, 76
14, 24351, Note_on_c, 12, 48, 0
14, 24360, Note_on_c, 12, 60, 76
14, 24411, Note_on_c, 12, 60, 0
14, 24420, Note_on_c, 12, 48, 76
14, 24471, Note_on_c, 12, 48, 0
14, 24480, Note_on_c, 12, 60, 76
14, 24531, Note_on_c, 12, 60, 0
14, 24540, Note_on_c, 12, 48, 76
14, 24591, Note_on_c, 12, 48, 0
14, 24600, Note_on_c, 12, 60, 76
14, 24651, Note_on_c, 12, 60, 0
14, 24660, Note_on_c, 12, 48, 76
14, 24711, Note_on_c, 12, 48, 0
14, 24720, Note_on_c, 12, 60, 76
14, 24771, Note_on_c, 12, 60, 0
14, 24780, Note_on_c, 12, 48, 76
14, 24831, Note_on_c, 12, 48, 0
14, 24840, Note_on_c, 12, 60, 76
14, 24891, Note_on_c, 12, 60, 0
14, 24900, Note_on_c, 12, 48, 76
14, 24951, Note_on_c, 12, 48, 0
14, 24960, Note_on_c, 12, 53, 76
14, 25079, Note_on_c, 12, 53, 0
14, 26640, Program_c, 12, 45
14, 26880, Note_on_c, 12, 62, 48
14, 26999, Note_on_c, 12, 62, 0
14, 28800, Note_on_c, 12, 60, 48
14, 29039, Note_on_c, 12, 60, 0
14, 29760, Note_on_c, 12, 62, 48
14, 29760, Note_on_c, 12, 59, 48
14, 29999, Note_on_c, 12, 62, 0
14, 29999, Note_on_c, 12, 59, 0
14, 31440, Program_c, 12, 48
14, 31680, Note_on_c, 12, 50, 52
14, 31799, Note_on_c, 12, 50, 0
14, 31800, Note_on_c, 12, 53, 52
14, 31919, Note_on_c, 12, 53, 0
14, 31920, Note_on_c, 12, 50, 52
14, 32039, Note_on_c, 12, 50, 0
14, 32040, Note_on_c, 12, 53, 52
14, 32159, Note_on_c, 12, 53, 0
14, 32160, Note_on_c, 12, 50, 52
14, 32279, Note_on_c, 12, 50, 0
14, 32280, Note_on_c, 12, 53, 52
14, 32399, Note_on_c, 12, 53, 0
14, 32400, Note_on_c, 12, 50, 52
14, 32519, Note_on_c, 12, 50, 0
14, 32520, Note_on_c, 12, 53, 52
14, 32624, Note_on_c, 12, 53, 0
14, 32640, Note_on_c, 12, 52, 52
14, 32759, Note_on_c, 12, 52, 0
14, 32760, Note_on_c, 12, 55, 52
14, 32879, Note_on_c, 12, 55, 0
14, 32880, Note_on_c, 12, 52, 52
14, 32999, Note_on_c, 12, 52, 0
14, 33000, Note_on_c, 12, 55, 52
14, 33119, Note_on_c, 12, 55, 0
14, 33120, Note_on_c, 12, 52, 52
14, 33239, Note_on_c, 12, 52, 0
14, 33240, Note_on_c, 12, 55, 52
14, 33359, Note_on_c, 12, 55, 0
14, 33360, Note_on_c, 12, 52, 52
14, 33479, Note_on_c, 12, 52, 0
14, 33480, Note_on_c, 12, 55, 52
14, 33584, Note_on_c, 12, 55, 0
14, 33600, Note_on_c, 12, 53, 52
14, 33719, Note_on_c, 12, 53, 0
14, 33720, Note_on_c, 12, 55, 52
14, 33839, Note_on_c, 12, 55, 0
14, 33840, Note_on_c, 12, 53, 52
14, 33959, Note_on_c, 12, 53, 0
14, 33960, Note_on_c, 12, 55, 52
14, 34079, Note_on_c, 12, 55, 0
14, 34080, Note_on_c, 12, 53, 52
14, 34199, Note_on_c, 12, 53, 0
14, 34200, Note_on_c, 12, 55, 52
14, 34319, Note_on_c, 12, 55, 0
14, 34320, Note_on_c, 12, 53, 52
14, 34439, Note_on_c, 12, 53, 0
14, 34440, Note_on_c, 12, 55, 52
14, 34544, Note_on_c, 12, 55, 0
14, 34560, Note_on_c, 12, 52, 52
14, 34679, Note_on_c, 12, 52, 0
14, 34680, Note_on_c, 12, 55, 52
14, 34799, Note_on_c, 12, 55, 0
14, 34800, Note_on_c, 12, 52, 52
14, 34919, Note_on_c, 12, 52, 0
14, 34920, Note_on_c, 12, 55, 52
14, 35039, Note_on_c, 12, 55, 0
14, 35040, Note_on_c, 12, 52, 52
14, 35159, Note_on_c, 12, 52, 0
14, 35160, Note_on_c, 12, 55, 52
14, 35279, Note_on_c, 12, 55, 0
14, 35280, Note_on_c, 12, 52, 52
14, 35399, Note_on_c, 12, 52, 0
14, 35400, Note_on_c, 12, 55, 52
14, 35504, Note_on_c, 12, 55, 0
14, 35520, Note_on_c, 12, 59, 52
14, 35639, Note_on_c, 12, 59, 0
14, 35640, Note_on_c, 12, 55, 52
14, 35759, Note_on_c, 12, 55, 0
14, 35760, Note_on_c, 12, 59, 52
14, 35879, Note_on_c, 12, 59, 0
14, 35880, Note_on_c, 12, 55, 53
14, 35999, Note_on_c, 12, 55, 0
14, 36000, Note_on_c, 12, 59, 53
14, 36119, Note_on_c, 12, 59, 0
14, 36120, Note_on_c, 12, 55, 53
14, 36239, Note_on_c, 12, 55, 0
14, 36240, Note_on_c, 12, 59, 54
14, 36359, Note_on_c, 12, 59, 0
14, 36360, Note_on_c, 12, 55, 54
14, 36464, Note_on_c, 12, 55, 0
14, 36480, Note_on_c, 12, 60, 54
14, 36599, Note_on_c, 12, 60, 0
14, 36600, Note_on_c, 12, 55, 55
14, 36719, Note_on_c, 12, 55, 0
14, 36720, Note_on_c, 12, 60, 55
14, 36839, Note_on_c, 12, 60, 0
14, 36840, Note_on_c, 12, 55, 55
14, 36959, Note_on_c, 12, 55, 0
14, 36960, Note_on_c, 12, 60, 56
14, 37079, Note_on_c, 12, 60, 0
14, 37080, Note_on_c, 12, 55, 56
14, 37199, Note_on_c, 12, 55, 0
14, 37200, Note_on_c, 12, 60, 56
14, 37319, Note_on_c, 12, 60, 0
14, 37320, Note_on_c, 12, 55, 57
14, 37424, Note_on_c, 12, 55, 0
14, 37440, Note_on_c, 12, 62, 57
14, 37559, Note_on_c, 12, 62, 0
14, 37560, Note_on_c, 12, 55, 57
14, 37679, Note_on_c, 12, 55, 0
14, 37680, Note_on_c, 12, 62, 58
14, 37799, Note_on_c, 12, 62, 0
14, 37800, Note_on_c, 12, 55, 58
14, 37919, Note_on_c, 12, 55, 0
14, 37920, Note_on_c, 12, 62, 58
14, 38039, Note_on_c, 12, 62, 0
14, 38040, Note_on_c, 12, 55, 59
14, 38159, Note_on_c, 12, 55, 0
14, 38160, Note_on_c, 12, 62, 59
14, 38279, Note_on_c, 12, 62, 0
14, 38280, Note_on_c, 12, 55, 59
14, 38384, Note_on_c, 12, 55, 0
14, 38400, Note_on_c, 12, 64, 60
14, 38519, Note_on_c, 12, 64, 0
14, 38520, Note_on_c, 12, 55, 60
14, 38639, Note_on_c, 12, 55, 0
14, 38640, Note_on_c, 12, 64, 60
14, 38759, Note_on_c, 12, 64, 0
14, 38760, Note_on_c, 12, 55, 61
14, 38879, Note_on_c, 12, 55, 0
14, 38880, Note_on_c, 12, 64, 61
14, 38999, Note_on_c, 12, 64, 0
14, 39000, Note_on_c, 12, 55, 61
14, 39119, Note_on_c, 12, 55, 0
14, 39120, Note_on_c, 12, 64, 62
14, 39239, Note_on_c, 12, 64, 0
14, 39240, Note_on_c, 12, 55, 62
14, 39344, Note_on_c, 12, 55, 0
14, 39360, Note_on_c, 12, 65, 62
14, 39439, Note_on_c, 12, 65, 0
14, 39440, Note_on_c, 12, 62, 62
14, 39519, Note_on_c, 12, 62, 0
14, 39520, Note_on_c, 12, 65, 63
14, 39599, Note_on_c, 12, 65, 0
14, 39600, Note_on_c, 12, 62, 63
14, 39679, Note_on_c, 12, 62, 0
14, 39680, Note_on_c, 12, 65, 63
14, 39759, Note_on_c, 12, 65, 0
14, 39760, Note_on_c, 12, 62, 63
14, 39839, Note_on_c, 12, 62, 0
14, 39840, Note_on_c, 12, 65, 64
14, 39919, Note_on_c, 12, 65, 0
14, 39920, Note_on_c, 12, 62, 64
14, 39999, Note_on_c, 12, 62, 0
14, 40000, Note_on_c, 12, 65, 64
14, 40079, Note_on_c, 12, 65, 0
14, 40080, Note_on_c, 12, 62, 64
14, 40159, Note_on_c, 12, 62, 0
14, 40160, Note_on_c, 12, 65, 64
14, 40239, Note_on_c, 12, 65, 0
14, 40240, Note_on_c, 12, 62, 65
14, 40307, Note_on_c, 12, 62, 0
14, 40320, Note_on_c, 12, 67, 65
14, 40399, Note_on_c, 12, 67, 0
14, 40400, Note_on_c, 12, 64, 65
14, 40479, Note_on_c, 12, 64, 0
14, 40480, Note_on_c, 12, 67, 65
14, 40559, Note_on_c, 12, 67, 0
14, 40560, Note_on_c, 12, 64, 66
14, 40639, Note_on_c, 12, 64, 0
14, 40640, Note_on_c, 12, 67, 66
14, 40719, Note_on_c, 12, 67, 0
14, 40720, Note_on_c, 12, 64, 66
14, 40799, Note_on_c, 12, 64, 0
14, 40800, Note_on_c, 12, 67, 66
14, 40879, Note_on_c, 12, 67, 0
14, 40880, Note_on_c, 12, 64, 66
14, 40959, Note_on_c, 12, 64, 0
14, 40960, Note_on_c, 12, 67, 67
14, 41039, Note_on_c, 12, 67, 0
14, 41040, Note_on_c, 12, 64, 67
14, 41119, Note_on_c, 12, 64, 0
14, 41120, Note_on_c, 12, 67, 67
14, 41199, Note_on_c, 12, 67, 0
14, 41200, Note_on_c, 12, 64, 67
14, 41267, Note_on_c, 12, 64, 0
14, 41280, Note_on_c, 12, 67, 68
14, 41339, Note_on_c, 12, 67, 0
14, 41340, Note_on_c, 12, 65, 68
14, 41399, Note_on_c, 12, 65, 0
14, 41400, Note_on_c, 12, 67, 68
14, 41459, Note_on_c, 12, 67, 0
14, 41460, Note_on_c, 12, 65, 68
14, 41519, Note_on_c, 12, 65, 0
14, 41520, Note_on_c, 12, 67, 68
14, 41579, Note_on_c, 12, 67, 0
14, 41580, Note_on_c, 12, 65, 68
14, 41639, Note_on_c, 12, 65, 0
14, 41640, Note_on_c, 12, 67, 69
14, 41699, Note_on_c, 12, 67, 0
14, 41700, Note_on_c, 12, 65, 69
14, 41759, Note_on_c, 12, 65, 0
14, 41760, Note_on_c, 12, 67, 69
14, 41819, Note_on_c, 12, 67, 0
14, 41820, Note_on_c, 12, 65, 69
14, 41879, Note_on_c, 12, 65, 0
14, 41880, Note_on_c, 12, 67, 69
14, 41939, Note_on_c, 12, 67, 0
14, 41940, Note_on_c, 12, 65, 69
14, 41999, Note_on_c, 12, 65, 0
14, 42000, Note_on_c, 12, 67, 70
14, 42059, Note_on_c, 12, 67, 0
14, 42060, Note_on_c, 12, 65, 70
14, 42119, Note_on_c, 12, 65, 0
14, 42120, Note_on_c, 12, 67, 70
14, 42179, Note_on_c, 12, 67, 0
14, 42180, Note_on_c, 12, 65, 70
14, 42231, Note_on_c, 12, 65, 0
14, 42240, Note_on_c, 12, 67, 70
14, 42299, Note_on_c, 12, 67, 0
14, 42300, Note_on_c, 12, 64, 70
14, 42359, Note_on_c, 12, 64, 0
14, 42360, Note_on_c, 12, 67, 71
14, 42419, Note_on_c, 12, 67, 0
14, 42420, Note_on_c, 12, 64, 71
14, 42479, Note_on_c, 12, 64, 0
14, 42480, Note_on_c, 12, 67, 71
14, 42539, Note_on_c, 12, 67, 0
14, 42540, Note_on_c, 12, 64, 71
14, 42599, Note_on_c, 12, 64, 0
14, 42600, Note_on_c, 12, 67, 71
14, 42659, Note_on_c, 12, 67, 0
14, 42660, Note_on_c, 12, 64, 71
14, 42719, Note_on_c, 12, 64, 0
14, 42720, Note_on_c, 12, 67, 72
14, 42779, Note_on_c, 12, 67, 0
14, 42780, Note_on_c, 12, 64, 72
14, 42839, Note_on_c, 12, 64, 0
14, 42840, Note_on_c, 12, 67, 72
14, 42899, Note_on_c, 12, 67, 0
14, 42900, Note_on_c, 12, 64, 72
14, 42959, Note_on_c, 12, 64, 0
14, 42960, Note_on_c, 12, 67, 72
14, 43019, Note_on_c, 12, 67, 0
14, 43020, Note_on_c, 12, 64, 72
14, 43079, Note_on_c, 12, 64, 0
14, 43080, Note_on_c, 12, 67, 73
14, 43139, Note_on_c, 12, 67, 0
14, 43140, Note_on_c, 12, 64, 73
14, 43191, Note_on_c, 12, 64, 0
14, 43200, Note_on_c, 12, 67, 73
14, 43259, Note_on_c, 12, 67, 0
14, 43260, Note_on_c, 12, 65, 73
14, 43319, Note_on_c, 12, 65, 0
14, 43320, Note_on_c, 12, 67, 73
14, 43379, Note_on_c, 12, 67, 0
14, 43380, Note_on_c, 12, 65, 73
14, 43439, Note_on_c, 12, 65, 0
14, 43440, Note_on_c, 12, 67, 74
14, 43499, Note_on_c, 12, 67, 0
14, 43500, Note_on_c, 12, 65, 74
14, 43559, Note_on_c, 12, 65, 0
14, 43560, Note_on_c, 12, 67, 74
14, 43619, Note_on_c, 12, 67, 0
14, 43620, Note_on_c, 12, 65, 74
14, 43679, Note_on_c, 12, 65, 0
14, 43680, Note_on_c, 12, 67, 74
14, 43739, Note_on_c, 12, 67, 0
14, 43740, Note_on_c, 12, 65, 74
14, 43799, Note_on_c, 12, 65, 0
14, 43800, Note_on_c, 12, 67, 75
14, 43859, Note_on_c, 12, 67, 0
14, 43860, Note_on_c, 12, 65, 75
14, 43919, Note_on_c, 12, 65, 0
14, 43920, Note_on_c, 12, 67, 75
14, 43979, Note_on_c, 12, 67, 0
14, 43980, Note_on_c, 12, 65, 75
14, 44039, Note_on_c, 12, 65, 0
14, 44040, Note_on_c, 12, 67, 75
14, 44099, Note_on_c, 12, 67, 0
14, 44100, Note_on_c, 12, 65, 75
14, 44151, Note_on_c, 12, 65, 0
14, 44160, Note_on_c, 12, 64, 76
14, 44160, Note_on_c, 12, 67, 76
14, 44519, Note_on_c, 12, 64, 0
14, 44519, Note_on_c, 12, 67, 0
14, 44520, Note_on_c, 12, 65, 76
14, 44520, Note_on_c, 12, 69, 76
14, 44579, Note_on_c, 12, 65, 0
14, 44579, Note_on_c, 12, 69, 0
14, 44580, Note_on_c, 12, 67, 76
14, 44580, Note_on_c, 12, 71, 76
14, 44631, Note_on_c, 12, 67, 0
14, 44631, Note_on_c, 12, 71, 0
14, 44640, Note_on_c, 12, 72, 76
14, 44640, Note_on_c, 12, 69, 76
14, 44759, Note_on_c, 12, 72, 0
14, 44759, Note_on_c, 12, 69, 0
14, 44760, Note_on_c, 12, 67, 76
14, 44760, Note_on_c, 12, 71, 76
14, 44819, Note_on_c, 12, 67, 0
14, 44819, Note_on_c, 12, 71, 0
14, 44820, Note_on_c, 12, 65, 76
14, 44820, Note_on_c, 12, 69, 76
14, 44879, Note_on_c, 12, 65, 0
14, 44879, Note_on_c, 12, 69, 0
14, 44880, Note_on_c, 12, 67, 76
14, 44880, Note_on_c, 12, 64, 76
14, 44999, Note_on_c, 12, 67, 0
14, 44999, Note_on_c, 12, 64, 0
14, 45000, Note_on_c, 12, 65, 76
14, 45000, Note_on_c, 12, 69, 76
14, 45059, Note_on_c, 12, 65, 0
14, 45059, Note_on_c, 12, 69, 0
14, 45060, Note_on_c, 12, 67, 76
14, 45060, Note_on_c, 12, 71, 76
14, 45111, Note_on_c, 12, 67, 0
14, 45111, Note_on_c, 12, 71, 0
14, 45120, Note_on_c, 12, 69, 76
14, 45120, Note_on_c, 12, 72, 76
14, 45239, Note_on_c, 12, 69, 0
14, 45239, Note_on_c, 12, 72, 0
14, 45240, Note_on_c, 12, 67, 76
14, 45240, Note_on_c, 12, 71, 76
14, 45299, Note_on_c, 12, 67, 0
14, 45299, Note_on_c, 12, 71, 0
14, 45300, Note_on_c, 12, 69, 76
14, 45300, Note_on_c, 12, 65, 76
14, 45359, Note_on_c, 12, 69, 0
14, 45359, Note_on_c, 12, 65, 0
14, 45360, Note_on_c, 12, 64, 76
14, 45360, Note_on_c, 12, 67, 76
14, 45479, Note_on_c, 12, 64, 0
14, 45479, Note_on_c, 12, 67, 0
14, 45480, Note_on_c, 12, 65, 76
14, 45480, Note_on_c, 12, 69, 76
14, 45539, Note_on_c, 12, 65, 0
14, 45539, Note_on_c, 12, 69, 0
14, 45540, Note_on_c, 12, 71, 76
14, 45540, Note_on_c, 12, 67, 76
14, 45591, Note_on_c, 12, 71, 0
14, 45591, Note_on_c, 12, 67, 0
14, 45600, Note_on_c, 12, 72, 76
14, 45600, Note_on_c, 12, 69, 76
14, 45719, Note_on_c, 12, 72, 0
14, 45719, Note_on_c, 12, 69, 0
14, 46080, Note_on_c, 12, 53, 52
14, 46080, Note_on_c, 12, 57, 52
14, 46199, Note_on_c, 12, 53, 0
14, 46199, Note_on_c, 12, 57, 0
14, 46200, Note_on_c, 12, 60, 52
14, 46200, Note_on_c, 12, 48, 52
14, 46319, Note_on_c, 12, 60, 0
14, 46319, Note_on_c, 12, 48, 0
14, 46320, Note_on_c, 12, 53, 52
14, 46320, Note_on_c, 12, 57, 52
14, 46439, Note_on_c, 12, 53, 0
14, 46439, Note_on_c, 12, 57, 0
14, 46440, Note_on_c, 12, 60, 52
14, 46440, Note_on_c, 12, 48, 52
14, 46559, Note_on_c, 12, 60, 0
14, 46559, Note_on_c, 12, 48, 0
14, 46560, Note_on_c, 12, 52, 52
14, 46560, Note_on_c, 12, 55, 52
14, 46679, Note_on_c, 12, 52, 0
14, 46679, Note_on_c, 12, 55, 0
14, 46680, Note_on_c, 12, 60, 52
14, 46680, Note_on_c, 12, 48, 52
14, 46799, Note_on_c, 12, 60, 0
14, 46799, Note_on_c, 12, 48, 0
14, 46800, Note_on_c, 12, 52, 52
14, 46800, Note_on_c, 12, 55, 52
14, 46919, Note_on_c, 12, 52, 0
14, 46919, Note_on_c, 12, 55, 0
14, 46920, Note_on_c, 12, 60, 52
14, 46920, Note_on_c, 12, 48, 52
14, 47039, Note_on_c, 12, 60, 0
14, 47039, Note_on_c, 12, 48, 0
14, 47040, Note_on_c, 12, 55, 52
14, 47040, Note_on_c, 12, 53, 52
14, 47159, Note_on_c, 12, 55, 0
14, 47159, Note_on_c, 12, 53, 0
14, 47160, Note_on_c, 12, 50, 52
14, 47160, Note_on_c, 12, 59, 52
14, 47279, Note_on_c, 12, 50, 0
14, 47279, Note_on_c, 12, 59, 0
14, 47280, Note_on_c, 12, 53, 52
14, 47280, Note_on_c, 12, 55, 52
14, 47399, Note_on_c, 12, 53, 0
14, 47399, Note_on_c, 12, 55, 0
14, 47400, Note_on_c, 12, 59, 52
14, 47400, Note_on_c, 12, 50, 52
14, 47504, Note_on_c, 12, 59, 0
14, 47504, Note_on_c, 12, 50, 0
14, 47520, Note_on_c, 12, 64, 84
14, 47520, Note_on_c, 12, 67, 84
14, 47879, Note_on_c, 12, 64, 0
14, 47879, Note_on_c, 12, 67, 0
14, 47880, Note_on_c, 12, 65, 84
14, 47880, Note_on_c, 12, 69, 84
14, 47939, Note_on_c, 12, 65, 0
14, 47939, Note_on_c, 12, 69, 0
14, 47940, Note_on_c, 12, 71, 84
14, 47940, Note_on_c, 12, 67, 84
14, 47991, Note_on_c, 12, 71, 0
14, 47991, Note_on_c, 12, 67, 0
14, 48000, Note_on_c, 12, 72, 84
14, 48000, Note_on_c, 12, 69, 84
14, 48119, Note_on_c, 12, 72, 0
14, 48119, Note_on_c, 12, 69, 0
14, 48120, Note_on_c, 12, 67, 84
14, 48120, Note_on_c, 12, 71, 84
14, 48179, Note_on_c, 12, 67, 0
14, 48179, Note_on_c, 12, 71, 0
14, 48180, Note_on_c, 12, 69, 84
14, 48180, Note_on_c, 12, 65, 84
14, 48239, Note_on_c, 12, 69, 0
14, 48239, Note_on_c, 12, 65, 0
14, 48240, Note_on_c, 12, 67, 84
14, 48240, Note_on_c, 12, 64, 84
14, 48359, Note_on_c, 12, 67, 0
14, 48359, Note_on_c, 12, 64, 0
14, 48360, Note_on_c, 12, 69, 84
14, 48360, Note_on_c, 12, 65, 84
14, 48419, Note_on_c, 12, 69, 0
14, 48419, Note_on_c, 12, 65, 0
14, 48420, Note_on_c, 12, 67, 84
14, 48420, Note_on_c, 12, 71, 84
14, 48471, Note_on_c, 12, 67, 0
14, 48471, Note_on_c, 12, 71, 0
14, 48480, Note_on_c, 12, 72, 84
14, 48480, Note_on_c, 12, 69, 84
14, 48599, Note_on_c, 12, 72, 0
14, 48599, Note_on_c, 12, 69, 0
14, 48600, Note_on_c, 12, 67, 84
14, 48600, Note_on_c, 12, 71, 84
14, 48659, Note_on_c, 12, 67, 0
14, 48659, Note_on_c, 12, 71, 0
14, 48660, Note_on_c, 12, 65, 84
14, 48660, Note_on_c, 12, 69, 84
14, 48719, Note_on_c, 12, 65, 0
14, 48719, Note_on_c, 12, 69, 0
14, 48720, Note_on_c, 12, 64, 84
14, 48720, Note_on_c, 12, 67, 84
14, 48839, Note_on_c, 12, 64, 0
14, 48839, Note_on_c, 12, 67, 0
14, 48840, Note_on_c, 12, 69, 84
14, 48840, Note_on_c, 12, 65, 84
14, 48899, Note_on_c, 12, 69, 0
14, 48899, Note_on_c, 12, 65, 0
14, 48900, Note_on_c, 12, 67, 84
14, 48900, Note_on_c, 12, 71, 84
14, 48951, Note_on_c, 12, 67, 0
14, 48951, Note_on_c, 12, 71, 0
14, 48960, Note_on_c, 12, 69, 76
14, 48960, Note_on_c, 12, 72, 76
14, 49079, Note_on_c, 12, 69, 0
14, 49079, Note_on_c, 12, 72, 0
14, 49440, Note_on_c, 12, 53, 52
14, 49440, Note_on_c, 12, 57, 52
14, 49559, Note_on_c, 12, 53, 0
14, 49559, Note_on_c, 12, 57, 0
14, 49560, Note_on_c, 12, 60, 52
14, 49560, Note_on_c, 12, 48, 52
14, 49679, Note_on_c, 12, 60, 0
14, 49679, Note_on_c, 12, 48, 0
14, 49680, Note_on_c, 12, 53, 52
14, 49680, Note_on_c, 12, 57, 52
14, 49799, Note_on_c, 12, 53, 0
14, 49799, Note_on_c, 12, 57, 0
14, 49800, Note_on_c, 12, 48, 52
14, 49800, Note_on_c, 12, 60, 52
14, 49919, Note_on_c, 12, 48, 0
14, 49919, Note_on_c, 12, 60, 0
14, 49920, Note_on_c, 12, 55, 52
14, 49920, Note_on_c, 12, 52, 52
14, 50039, Note_on_c, 12, 55, 0
14, 50039, Note_on_c, 12, 52, 0
14, 50040, Note_on_c, 12, 60, 52
14, 50040, Note_on_c, 12, 48, 52
14, 50159, Note_on_c, 12, 60, 0
14, 50159, Note_on_c, 12, 48, 0
14, 50160, Note_on_c, 12, 55, 52
14, 50160, Note_on_c, 12, 52, 52
14, 50279, Note_on_c, 12, 55, 0
14, 50279, Note_on_c, 12, 52, 0
14, 50280, Note_on_c, 12, 60, 52
14, 50280, Note_on_c, 12, 48, 52
14, 50399, Note_on_c, 12, 60, 0
14, 50399, Note_on_c, 12, 48, 0
14, 50400, Note_on_c, 12, 53, 52
14, 50400, Note_on_c, 12, 55, 52
14, 50519, Note_on_c, 12, 53, 0
14, 50519, Note_on_c, 12, 55, 0
14, 50520, Note_on_c, 12, 59, 52
14, 50520, Note_on_c, 12, 50, 52
14, 50639, Note_on_c, 12, 59, 0
14, 50639, Note_on_c, 12, 50, 0
14, 50640, Note_on_c, 12, 53, 52
14, 50640, Note_on_c, 12, 55, 52
14, 50759, Note_on_c, 12, 53, 0
14, 50759, Note_on_c, 12, 55, 0
14, 50760, Note_on_c, 12, 50, 52
14, 50760, Note_on_c, 12, 59, 52
14, 50879, Note_on_c, 12, 50, 0
14, 50879, Note_on_c, 12, 59, 0
14, 50880, Note_on_c, 12, 55, 52
14, 50880, Note_on_c, 12, 52, 52
14, 50984, Note_on_c, 12, 55, 0
14, 50984, Note_on_c, 12, 52, 0
14, 51000, Note_on_c, 12, 60, 52
14, 51000, Note_on_c, 12, 48, 52
14, 51104, Note_on_c, 12, 60, 0
14, 51104, Note_on_c, 12, 48, 0
14, 51120, Note_on_c, 12, 48, 53
14, 51120, Note_on_c, 12, 60, 53
14, 51224, Note_on_c, 12, 48, 0
14, 51224, Note_on_c, 12, 60, 0
14, 51240, Note_on_c, 12, 48, 55
14, 51240, Note_on_c, 12, 60, 55
14, 51344, Note_on_c, 12, 48, 0
14, 51344, Note_on_c, 12, 60, 0
14, 51360, Note_on_c, 12, 53, 56
14, 51360, Note_on_c, 12, 57, 56
14, 51479, Note_on_c, 12, 53, 0
14, 51479, Note_on_c, 12, 57, 0
14, 51480, Note_on_c, 12, 60, 58
14, 51480, Note_on_c, 12, 48, 58
14, 51599, Note_on_c, 12, 60, 0
14, 51599, Note_on_c, 12, 48, 0
14, 51600, Note_on_c, 12, 57, 60
14, 51600, Note_on_c, 12, 53, 60
14, 51719, Note_on_c, 12, 57, 0
14, 51719, Note_on_c, 12, 53, 0
14, 51720, Note_on_c, 12, 48, 61
14, 51720, Note_on_c, 12, 60, 61
14, 51839, Note_on_c, 12, 48, 0
14, 51839, Note_on_c, 12, 60, 0
14, 51840, Note_on_c, 12, 55, 63
14, 51840, Note_on_c, 12, 52, 63
14, 51959, Note_on_c, 12, 55, 0
14, 51959, Note_on_c, 12, 52, 0
14, 51960, Note_on_c, 12, 48, 64
14, 51960, Note_on_c, 12, 60, 64
14, 52079, Note_on_c, 12, 48, 0
14, 52079, Note_on_c, 12, 60, 0
14, 52080, Note_on_c, 12, 55, 66
14, 52080, Note_on_c, 12, 52, 66
14, 52199, Note_on_c, 12, 55, 0
14, 52199, Note_on_c, 12, 52, 0
14, 52200, Note_on_c, 12, 48, 68
14, 52200, Note_on_c, 12, 60, 68
14, 52319, Note_on_c, 12, 48, 0
14, 52319, Note_on_c, 12, 60, 0
14, 52320, Note_on_c, 12, 55, 69
14, 52320, Note_on_c, 12, 53, 69
14, 52439, Note_on_c, 12, 55, 0
14, 52439, Note_on_c, 12, 53, 0
14, 52440, Note_on_c, 12, 59, 71
14, 52440, Note_on_c, 12, 50, 71
14, 52559, Note_on_c, 12, 59, 0
14, 52559, Note_on_c, 12, 50, 0
14, 52560, Note_on_c, 12, 53, 72
14, 52560, Note_on_c, 12, 55, 72
14, 52679, Note_on_c, 12, 53, 0
14, 52679, Note_on_c, 12, 55, 0
14, 52680, Note_on_c, 12, 59, 74
14, 52680, Note_on_c, 12, 50, 74
14, 52799, Note_on_c, 12, 59, 0
14, 52799, Note_on_c, 12, 50, 0
14, 52800, Note_on_c, 12, 60, 76
14, 52800, Note_on_c, 12, 52, 76
14, 52867, Note_on_c, 12, 60, 0
14, 52867, Note_on_c, 12, 52, 0
14, 52880, Note_on_c, 12, 67, 76
14, 52880, Note_on_c, 12, 64, 76
14, 52947, Note_on_c, 12, 67, 0
14, 52947, Note_on_c, 12, 64, 0
14, 52960, Note_on_c, 12, 64, 76
14, 52960, Note_on_c, 12, 67, 76
14, 53027, Note_on_c, 12, 64, 0
14, 53027, Note_on_c, 12, 67, 0
14, 53040, Note_on_c, 12, 64, 76
14, 53040, Note_on_c, 12, 67, 76
14, 53107, Note_on_c, 12, 64, 0
14, 53107, Note_on_c, 12, 67, 0
14, 53120, Note_on_c, 12, 65, 76
14, 53120, Note_on_c, 12, 62, 76
14, 53187, Note_on_c, 12, 65, 0
14, 53187, Note_on_c, 12, 62, 0
14, 53200, Note_on_c, 12, 64, 76
14, 53200, Note_on_c, 12, 60, 76
14, 53267, Note_on_c, 12, 64, 0
14, 53267, Note_on_c, 12, 60, 0
14, 53280, Note_on_c, 12, 72, 76
14, 53280, Note_on_c, 12, 69, 76
14, 53347, Note_on_c, 12, 72, 0
14, 53347, Note_on_c, 12, 69, 0
14, 53360, Note_on_c, 12, 72, 76
14, 53360, Note_on_c, 12, 69, 76
14, 53427, Note_on_c, 12, 72, 0
14, 53427, Note_on_c, 12, 69, 0
14, 53440, Note_on_c, 12, 72, 76
14, 53440, Note_on_c, 12, 69, 76
14, 53507, Note_on_c, 12, 72, 0
14, 53507, Note_on_c, 12, 69, 0
14, 53520, Note_on_c, 12, 69, 76
14, 53520, Note_on_c, 12, 65, 76
14, 53587, Note_on_c, 12, 69, 0
14, 53587, Note_on_c, 12, 65, 0
14, 53600, Note_on_c, 12, 65, 76
14, 53600, Note_on_c, 12, 69, 76
14, 53667, Note_on_c, 12, 65, 0
14, 53667, Note_on_c, 12, 69, 0
14, 53680, Note_on_c, 12, 65, 76
14, 53680, Note_on_c, 12, 69, 76
14, 53747, Note_on_c, 12, 65, 0
14, 53747, Note_on_c, 12, 69, 0
14, 53760, Note_on_c, 12, 64, 76
14, 53760, Note_on_c, 12, 67, 76
14, 53827, Note_on_c, 12, 64, 0
14, 53827, Note_on_c, 12, 67, 0
14, 53840, Note_on_c, 12, 64, 76
14, 53840, Note_on_c, 12, 67, 76
14, 53907, Note_on_c, 12, 64, 0
14, 53907, Note_on_c, 12, 67, 0
14, 53920, Note_on_c, 12, 64, 76
14, 53920, Note_on_c, 12, 67, 76
14, 53987, Note_on_c, 12, 64, 0
14, 53987, Note_on_c, 12, 67, 0
14, 54000, Note_on_c, 12, 64, 76
14, 54000, Note_on_c, 12, 60, 76
14, 54067, Note_on_c, 12, 64, 0
14, 54067, Note_on_c, 12, 60, 0
14, 54080, Note_on_c, 12, 60, 76
14, 54080, Note_on_c, 12, 64, 76
14, 54147, Note_on_c, 12, 60, 0
14, 54147, Note_on_c, 12, 64, 0
14, 54160, Note_on_c, 12, 64, 76
14, 54160, Note_on_c, 12, 60, 76
14, 54227, Note_on_c, 12, 64, 0
14, 54227, Note_on_c, 12, 60, 0
14, 54240, Note_on_c, 12, 53, 76
14, 54240, Note_on_c, 12, 62, 76
14, 54307, Note_on_c, 12, 53, 0
14, 54307, Note_on_c, 12, 62, 0
14, 54320, Note_on_c, 12, 62, 76
14, 54320, Note_on_c, 12, 53, 76
14, 54387, Note_on_c, 12, 62, 0
14, 54387, Note_on_c, 12, 53, 0
14, 54400, Note_on_c, 12, 62, 76
14, 54400, Note_on_c, 12, 53, 76
14, 54467, Note_on_c, 12, 62, 0
14, 54467, Note_on_c, 12, 53, 0
14, 54480, Note_on_c, 12, 53, 76
14, 54480, Note_on_c, 12, 62, 76
14, 54547, Note_on_c, 12, 53, 0
14, 54547, Note_on_c, 12, 62, 0
14, 54560, Note_on_c, 12, 52, 76
14, 54560, Note_on_c, 12, 60, 76
14, 54627, Note_on_c, 12, 52, 0
14, 54627, Note_on_c, 12, 60, 0
14, 54640, Note_on_c, 12, 62, 76
14, 54640, Note_on_c, 12, 53, 76
14, 54707, Note_on_c, 12, 62, 0
14, 54707, Note_on_c, 12, 53, 0
14, 54720, Note_on_c, 12, 48, 76
14, 54787, Note_on_c, 12, 48, 0
14, 54800, Note_on_c, 12, 48, 76
14, 54867, Note_on_c, 12, 48, 0
14, 54880, Note_on_c, 12, 48, 76
14, 54947, Note_on_c, 12, 48, 0
14, 54960, Note_on_c, 12, 48, 76
14, 55747, Note_on_c, 12, 48, 0
14, 55760, Note_on_c, 12, 48, 76
14, 55827, Note_on_c, 12, 48, 0
14, 55840, Note_on_c, 12, 48, 76
14, 55907, Note_on_c, 12, 48, 0
14, 55920, Note_on_c, 12, 48, 76
14, 56707, Note_on_c, 12, 48, 0
14, 56720, Note_on_c, 12, 48, 76
14, 56787, Note_on_c, 12, 48, 0
14, 56800, Note_on_c, 12, 48, 76
14, 56867, Note_on_c, 12, 48, 0
14, 56880, Note_on_c, 12, 48, 76
14, 57667, Note_on_c, 12, 48, 0
14, 57680, Note_on_c, 12, 48, 76
14, 57747, Note_on_c, 12, 48, 0
14, 57760, Note_on_c, 12, 48, 76
14, 57827, Note_on_c, 12, 48, 0
14, 57840, Note_on_c, 12, 48, 76
14, 58560, Control_c, 12, 11, 127
14, 58613, Control_c, 12, 11, 126
14, 58627, Note_on_c, 12, 48, 0
14, 58640, Note_on_c, 12, 48, 76
14, 58667, Control_c, 12, 11, 124
14, 58707, Note_on_c, 12, 48, 0
14, 58720, Control_c, 12, 11, 123
14, 58720, Note_on_c, 12, 48, 76
14, 58773, Control_c, 12, 11, 122
14, 58787, Note_on_c, 12, 48, 0
14, 58800, Note_on_c, 12, 48, 76
14, 58827, Control_c, 12, 11, 120
14, 58880, Control_c, 12, 11, 119
14, 58933, Control_c, 12, 11, 118
14, 58987, Control_c, 12, 11, 117
14, 59040, Control_c, 12, 11, 115
14, 59093, Control_c, 12, 11, 114
14, 59107, Note_on_c, 12, 48, 0
14, 59120, Note_on_c, 12, 48, 76
14, 59147, Control_c, 12, 11, 113
14, 59187, Note_on_c, 12, 48, 0
14, 59200, Note_on_c, 12, 48, 76
14, 59200, Control_c, 12, 11, 111
14, 59253, Control_c, 12, 11, 110
14, 59267, Note_on_c, 12, 48, 0
14, 59280, Note_on_c, 12, 48, 76
14, 59307, Control_c, 12, 11, 109
14, 59360, Control_c, 12, 11, 107
14, 59413, Control_c, 12, 11, 106
14, 59467, Control_c, 12, 11, 105
14, 59520, Control_c, 12, 11, 104
14, 59573, Control_c, 12, 11, 102
14, 59587, Note_on_c, 12, 48, 0
14, 59600, Note_on_c, 12, 48, 76
14, 59627, Control_c, 12, 11, 101
14, 59667, Note_on_c, 12, 48, 0
14, 59680, Control_c, 12, 11, 100
14, 59680, Note_on_c, 12, 48, 76
14, 59733, Control_c, 12, 11, 98
14, 59747, Note_on_c, 12, 48, 0
14, 59760, Note_on_c, 12, 48, 76
14, 59787, Control_c, 12, 11, 97
14, 59840, Control_c, 12, 11, 96
14, 59893, Control_c, 12, 11, 94
14, 59947, Control_c, 12, 11, 93
14, 60000, Control_c, 12, 11, 92
14, 60053, Control_c, 12, 11, 90
14, 60067, Note_on_c, 12, 48, 0
14, 60080, Note_on_c, 12, 48, 76
14, 60107, Control_c, 12, 11, 89
14, 60147, Note_on_c, 12, 48, 0
14, 60160, Note_on_c, 12, 48, 76
14, 60160, Control_c, 12, 11, 88
14, 60213, Control_c, 12, 11, 87
14, 60227, Note_on_c, 12, 48, 0
14, 60240, Note_on_c, 12, 48, 76
14, 60267, Control_c, 12, 11, 85
14, 60320, Control_c, 12, 11, 84
14, 60373, Control_c, 12, 11, 83
14, 60427, Control_c, 12, 11, 80
14, 60599, Note_on_c, 12, 48, 0
14, 62160, Control_c, 12, 11, 127
14, 62400, Note_on_c, 12, 48, 44
14, 62489, Note_on_c, 12, 48, 0
14, 62520, Note_on_c, 12, 55, 44
14, 62579, Note_on_c, 12, 55, 0
14, 62580, Note_on_c, 12, 52, 44
14, 62639, Note_on_c, 12, 52, 0
14, 62640, Note_on_c, 12, 48, 44
14, 62729, Note_on_c, 12, 48, 0
14, 62760, Note_on_c, 12, 55, 44
14, 62819, Note_on_c, 12, 55, 0
14, 62820, Note_on_c, 12, 52, 44
14, 62879, Note_on_c, 12, 52, 0
14, 62880, Note_on_c, 12, 48, 44
14, 62969, Note_on_c, 12, 48, 0
14, 63000, Note_on_c, 12, 55, 44
14, 63059, Note_on_c, 12, 55, 0
14, 63060, Note_on_c, 12, 52, 44
14, 63119, Note_on_c, 12, 52, 0
14, 63120, Note_on_c, 12, 48, 44
14, 63209, Note_on_c, 12, 48, 0
14, 63240, Note_on_c, 12, 55, 44
14, 63299, Note_on_c, 12, 55, 0
14, 63300, Note_on_c, 12, 52, 44
14, 63359, Note_on_c, 12, 52, 0
14, 63360, Note_on_c, 12, 48, 44
14, 63449, Note_on_c, 12, 48, 0
14, 63480, Note_on_c, 12, 55, 44
14, 63539, Note_on_c, 12, 55, 0
14, 63540, Note_on_c, 12, 52, 44
14, 63599, Note_on_c, 12, 52, 0
14, 63600, Note_on_c, 12, 48, 44
14, 63689, Note_on_c, 12, 48, 0
14, 63720, Note_on_c, 12, 55, 44
14, 63779, Note_on_c, 12, 55, 0
14, 63780, Note_on_c, 12, 52, 44
14, 63839, Note_on_c, 12, 52, 0
14, 63840, Note_on_c, 12, 48, 44
14, 63929, Note_on_c, 12, 48, 0
14, 63960, Note_on_c, 12, 55, 44
14, 64019, Note_on_c, 12, 55, 0
14, 64020, Note_on_c, 12, 52, 44
14, 64079, Note_on_c, 12, 52, 0
14, 64080, Note_on_c, 12, 48, 44
14, 64169, Note_on_c, 12, 48, 0
14, 64200, Note_on_c, 12, 55, 44
14, 64259, Note_on_c, 12, 55, 0
14, 64260, Note_on_c, 12, 52, 44
14, 64319, Note_on_c, 12, 52, 0
14, 64320, Note_on_c, 12, 48, 44
14, 64409, Note_on_c, 12, 48, 0
14, 65880, Note_on_c, 12, 57, 76
14, 65999, Note_on_c, 12, 57, 0
14, 66000, Note_on_c, 12, 58, 76
14, 66104, Note_on_c, 12, 58, 0
14, 66120, Note_on_c, 12, 62, 76
14, 66209, Note_on_c, 12, 62, 0
14, 66240, Note_on_c, 12, 48, 52
14, 67199, Note_on_c, 12, 48, 0
14, 67200, Note_on_c, 12, 48, 52
14, 67664, Note_on_c, 12, 48, 0
14, 67680, Note_on_c, 12, 48, 52
14, 68144, Note_on_c, 12, 48, 0
14, 68160, Note_on_c, 12, 53, 52
14, 68399, Note_on_c, 12, 53, 0
14, 68400, Note_on_c, 12, 50, 52
14, 68639, Note_on_c, 12, 50, 0
14, 68640, Note_on_c, 12, 52, 52
14, 68999, Note_on_c, 12, 52, 0
14, 69000, Note_on_c, 12, 48, 52
14, 69104, Note_on_c, 12, 48, 0
14, 69120, Note_on_c, 12, 53, 52
14, 69359, Note_on_c, 12, 53, 0
14, 69360, Note_on_c, 12, 50, 52
14, 69599, Note_on_c, 12, 50, 0
14, 69600, Note_on_c, 12, 52, 52
14, 69959, Note_on_c, 12, 52, 0
14, 69960, Note_on_c, 12, 48, 52
14, 70064, Note_on_c, 12, 48, 0
14, 70078, Control_c, 12, 11, 80
14, 70080, Note_on_c, 12, 53, 76
14, 70080, Control_c, 12, 11, 80
14, 70120, Control_c, 12, 11, 82
14, 70160, Control_c, 12, 11, 84
14, 70200, Control_c, 12, 11, 86
14, 70240, Control_c, 12, 11, 88
14, 70280, Control_c, 12, 11, 90
14, 70319, Note_on_c, 12, 53, 0
14, 70320, Note_on_c, 12, 60, 76
14, 70320, Control_c, 12, 11, 92
14, 70360, Control_c, 12, 11, 94
14, 70400, Control_c, 12, 11, 96
14, 70440, Control_c, 12, 11, 98
14, 70480, Control_c, 12, 11, 100
14, 70520, Control_c, 12, 11, 102
14, 70544, Note_on_c, 12, 60, 0
14, 70560, Control_c, 12, 11, 104
14, 70560, Note_on_c, 12, 60, 76
14, 70600, Control_c, 12, 11, 105
14, 70640, Control_c, 12, 11, 107
14, 70680, Control_c, 12, 11, 109
14, 70720, Control_c, 12, 11, 111
14, 70760, Control_c, 12, 11, 113
14, 70800, Control_c, 12, 11, 115
14, 70840, Control_c, 12, 11, 117
14, 70880, Control_c, 12, 11, 119
14, 70919, Note_on_c, 12, 60, 0
14, 70920, Control_c, 12, 11, 121
14, 70920, Note_on_c, 12, 65, 76
14, 70960, Control_c, 12, 11, 123
14, 71000, Control_c, 12, 11, 125
14, 71024, Note_on_c, 12, 65, 0
14, 71040, Control_c, 12, 11, 127
14, 71040, Note_on_c, 12, 65, 76
14, 71279, Note_on_c, 12, 65, 0
14, 71280, Note_on_c, 12, 60, 76
14, 71504, Note_on_c, 12, 60, 0
14, 71520, Note_on_c, 12, 60, 76
14, 71984, Note_on_c, 12, 60, 0
14, 72000, Note_on_c, 12, 57, 76
14, 72000, Note_on_c, 12, 60, 76
14, 72239, Note_on_c, 12, 57, 0
14, 72239, Note_on_c, 12, 60, 0
14, 72240, Note_on_c, 12, 53, 76
14, 72240, Note_on_c, 12, 57, 76
14, 72479, Note_on_c, 12, 53, 0
14, 72479, Note_on_c, 12, 57, 0
14, 72480, Note_on_c, 12, 55, 76
14, 72480, Note_on_c, 12, 58, 76
14, 72839, Note_on_c, 12, 55, 0
14, 72839, Note_on_c, 12, 58, 0
14, 72840, Note_on_c, 12, 60, 76
14, 72840, Note_on_c, 12, 57, 76
14, 72944, Note_on_c, 12, 60, 0
14, 72944, Note_on_c, 12, 57, 0
14, 72958, Control_c, 12, 11, 80
14, 72960, Note_on_c, 12, 62, 76
14, 73079, Note_on_c, 12, 62, 0
14, 73080, Note_on_c, 12, 64, 76
14, 73199, Note_on_c, 12, 64, 0
14, 73200, Note_on_c, 12, 65, 76
14, 73304, Note_on_c, 12, 65, 0
14, 73320, Note_on_c, 12, 48, 76
14, 73409, Note_on_c, 12, 48, 0
14, 73440, Note_on_c, 12, 55, 76
14, 73440, Control_c, 12, 11, 80
14, 73493, Control_c, 12, 11, 81
14, 73547, Control_c, 12, 11, 83
14, 73600, Control_c, 12, 11, 84
14, 73653, Control_c, 12, 11, 85
14, 73707, Control_c, 12, 11, 87
14, 73760, Control_c, 12, 11, 88
14, 73784, Note_on_c, 12, 55, 0
14, 73800, Note_on_c, 12, 62, 76
14, 73813, Control_c, 12, 11, 89
14, 73867, Control_c, 12, 11, 90
14, 73904, Note_on_c, 12, 62, 0
14, 73920, Control_c, 12, 11, 92
14, 73920, Note_on_c, 12, 55, 76
14, 73973, Control_c, 12, 11, 93
14, 74027, Control_c, 12, 11, 94
14, 74080, Control_c, 12, 11, 96
14, 74133, Control_c, 12, 11, 97
14, 74187, Control_c, 12, 11, 98
14, 74240, Control_c, 12, 11, 100
14, 74264, Note_on_c, 12, 55, 0
14, 74280, Note_on_c, 12, 62, 76
14, 74293, Control_c, 12, 11, 101
14, 74347, Control_c, 12, 11, 102
14, 74384, Note_on_c, 12, 62, 0
14, 74400, Note_on_c, 12, 55, 76
14, 74400, Control_c, 12, 11, 104
14, 74453, Control_c, 12, 11, 105
14, 74507, Control_c, 12, 11, 106
14, 74560, Control_c, 12, 11, 107
14, 74613, Control_c, 12, 11, 109
14, 74667, Control_c, 12, 11, 110
14, 74720, Control_c, 12, 11, 111
14, 74744, Note_on_c, 12, 55, 0
14, 74760, Note_on_c, 12, 62, 76
14, 74773, Control_c, 12, 11, 113
14, 74827, Control_c, 12, 11, 114
14, 74864, Note_on_c, 12, 62, 0
14, 74880, Note_on_c, 12, 55, 76
14, 74880, Control_c, 12, 11, 115
14, 74933, Control_c, 12, 11, 117
14, 74987, Control_c, 12, 11, 118
14, 75040, Control_c, 12, 11, 119
14, 75093, Control_c, 12, 11, 120
14, 75147, Control_c, 12, 11, 122
14, 75200, Control_c, 12, 11, 123
14, 75224, Note_on_c, 12, 55, 0
14, 75240, Note_on_c, 12, 62, 76
14, 75253, Control_c, 12, 11, 124
14, 75307, Control_c, 12, 11, 127
14, 75344, Note_on_c, 12, 62, 0
14, 75360, Note_on_c, 12, 55, 76
14, 75704, Note_on_c, 12, 55, 0
14, 75720, Note_on_c, 12, 62, 76
14, 75824, Note_on_c, 12, 62, 0
14, 75840, Control_c, 12, 11, 127
14, 75840, Note_on_c, 12, 55, 76
14, 75893, Control_c, 12, 11, 125
14, 75947, Control_c, 12, 11, 124
14, 76000, Control_c, 12, 11, 122
14, 76053, Control_c, 12, 11, 120
14, 76107, Control_c, 12, 11, 118
14, 76160, Control_c, 12, 11, 117
14, 76184, Note_on_c, 12, 55, 0
14, 76200, Note_on_c, 12, 62, 76
14, 76213, Control_c, 12, 11, 115
14, 76267, Control_c, 12, 11, 113
14, 76304, Note_on_c, 12, 62, 0
14, 76320, Control_c, 12, 11, 111
14, 76320, Note_on_c, 12, 55, 76
14, 76373, Control_c, 12, 11, 110
14, 76427, Control_c, 12, 11, 108
14, 76480, Control_c, 12, 11, 106
14, 76533, Control_c, 12, 11, 104
14, 76587, Control_c, 12, 11, 103
14, 76640, Control_c, 12, 11, 101
14, 76664, Note_on_c, 12, 55, 0
14, 76680, Note_on_c, 12, 62, 76
14, 76693, Control_c, 12, 11, 99
14, 76747, Control_c, 12, 11, 97
14, 76784, Note_on_c, 12, 62, 0
14, 76800, Note_on_c, 12, 55, 76
14, 76800, Control_c, 12, 11, 96
14, 76853, Control_c, 12, 11, 94
14, 76907, Control_c, 12, 11, 92
14, 76960, Control_c, 12, 11, 90
14, 77013, Control_c, 12, 11, 89
14, 77067, Control_c, 12, 11, 87
14, 77120, Control_c, 12, 11, 85
14, 77144, Note_on_c, 12, 55, 0
14, 77160, Note_on_c, 12, 62, 76
14, 77173, Control_c, 12, 11, 83
14, 77227, Control_c, 12, 11, 82
14, 77264, Note_on_c, 12, 62, 0
14, 77280, Control_c, 12, 11, 80
14, 77280, Note_on_c, 12, 55, 76
14, 77333, Control_c, 12, 11, 78
14, 77387, Control_c, 12, 11, 76
14, 77440, Control_c, 12, 11, 75
14, 77493, Control_c, 12, 11, 73
14, 77547, Control_c, 12, 11, 71
14, 77600, Control_c, 12, 11, 69
14, 77624, Note_on_c, 12, 55, 0
14, 77640, Note_on_c, 12, 62, 76
14, 77653, Control_c, 12, 11, 68
14, 77707, Control_c, 12, 11, 64
14, 77744, Note_on_c, 12, 62, 0
14, 77760, Note_on_c, 12, 55, 76
14, 77879, Note_on_c, 12, 55, 0
14, 81600, Note_on_c, 12, 60, 76
14, 81600, Control_c, 12, 11, 64
14, 81653, Control_c, 12, 11, 66
14, 81707, Control_c, 12, 11, 68
14, 81760, Control_c, 12, 11, 69
14, 81813, Control_c, 12, 11, 71
14, 81867, Control_c, 12, 11, 73
14, 81920, Control_c, 12, 11, 75
14, 81973, Control_c, 12, 11, 76
14, 82027, Control_c, 12, 11, 78
14, 82080, Control_c, 12, 11, 80
14, 82133, Control_c, 12, 11, 82
14, 82187, Control_c, 12, 11, 83
14, 82240, Control_c, 12, 11, 85
14, 82293, Control_c, 12, 11, 87
14, 82347, Control_c, 12, 11, 89
14, 82400, Control_c, 12, 11, 90
14, 82453, Control_c, 12, 11, 92
14, 82507, Control_c, 12, 11, 94
14, 82559, Note_on_c, 12, 60, 0
14, 82560, Note_on_c, 12, 60, 76
14, 82560, Control_c, 12, 11, 96
14, 82613, Control_c, 12, 11, 97
14, 82667, Control_c, 12, 11, 99
14, 82720, Control_c, 12, 11, 101
14, 82773, Control_c, 12, 11, 103
14, 82827, Control_c, 12, 11, 104
14, 82880, Control_c, 12, 11, 106
14, 82933, Control_c, 12, 11, 108
14, 82987, Control_c, 12, 11, 110
14, 83040, Control_c, 12, 11, 111
14, 83093, Control_c, 12, 11, 113
14, 83147, Control_c, 12, 11, 115
14, 83200, Control_c, 12, 11, 117
14, 83253, Control_c, 12, 11, 118
14, 83307, Control_c, 12, 11, 120
14, 83360, Control_c, 12, 11, 122
14, 83413, Control_c, 12, 11, 124
14, 83467, Control_c, 12, 11, 127
14, 83504, Note_on_c, 12, 60, 0
14, 83520, Note_on_c, 12, 65, 76
14, 83624, Note_on_c, 12, 65, 0
14, 83640, Note_on_c, 12, 60, 76
14, 83691, Note_on_c, 12, 60, 0
14, 83700, Note_on_c, 12, 48, 76
14, 83751, Note_on_c, 12, 48, 0
14, 83760, Note_on_c, 12, 60, 76
14, 83811, Note_on_c, 12, 60, 0
14, 83820, Note_on_c, 12, 48, 76
14, 83871, Note_on_c, 12, 48, 0
14, 83880, Note_on_c, 12, 60, 76
14, 83931, Note_on_c, 12, 60, 0
14, 83940, Note_on_c, 12, 48, 76
14, 83991, Note_on_c, 12, 48, 0
14, 84000, Note_on_c, 12, 60, 76
14, 84051, Note_on_c, 12, 60, 0
14, 84060, Note_on_c, 12, 48, 76
14, 84111, Note_on_c, 12, 48, 0
14, 84120, Note_on_c, 12, 60, 76
14, 84171, Note_on_c, 12, 60, 0
14, 84180, Note_on_c, 12, 48, 76
14, 84231, Note_on_c, 12, 48, 0
14, 84240, Note_on_c, 12, 60, 76
14, 84291, Note_on_c, 12, 60, 0
14, 84300, Note_on_c, 12, 48, 76
14, 84351, Note_on_c, 12, 48, 0
14, 84360, Note_on_c, 12, 60, 76
14, 84411, Note_on_c, 12, 60, 0
14, 84420, Note_on_c, 12, 48, 76
14, 84471, Note_on_c, 12, 48, 0
14, 84480, Note_on_c, 12, 60, 76
14, 84531, Note_on_c, 12, 60, 0
14, 84540, Note_on_c, 12, 48, 76
14, 84591, Note_on_c, 12, 48, 0
14, 84600, Note_on_c, 12, 60, 76
14, 84651, Note_on_c, 12, 60, 0
14, 84660, Note_on_c, 12, 48, 76
14, 84711, Note_on_c, 12, 48, 0
14, 84720, Note_on_c, 12, 60, 76
14, 84771, Note_on_c, 12, 60, 0
14, 84780, Note_on_c, 12, 48, 76
14, 84831, Note_on_c, 12, 48, 0
14, 84840, Note_on_c, 12, 60, 76
14, 84891, Note_on_c, 12, 60, 0
14, 84900, Note_on_c, 12, 48, 76
14, 84951, Note_on_c, 12, 48, 0
14, 84960, Note_on_c, 12, 60, 76
14, 85011, Note_on_c, 12, 60, 0
14, 85020, Note_on_c, 12, 48, 76
14, 85071, Note_on_c, 12, 48, 0
14, 85080, Note_on_c, 12, 60, 76
14, 85131, Note_on_c, 12, 60, 0
14, 85140, Note_on_c, 12, 48, 76
14, 85191, Note_on_c, 12, 48, 0
14, 85200, Note_on_c, 12, 60, 76
14, 85251, Note_on_c, 12, 60, 0
14, 85260, Note_on_c, 12, 48, 76
14, 85311, Note_on_c, 12, 48, 0
14, 85320, Note_on_c, 12, 60, 76
14, 85371, Note_on_c, 12, 60, 0
14, 85380, Note_on_c, 12, 48, 76
14, 85431, Note_on_c, 12, 48, 0
14, 85440, Note_on_c, 12, 60, 76
14, 85491, Note_on_c, 12, 60, 0
14, 85500, Note_on_c, 12, 48, 76
14, 85551, Note_on_c, 12, 48, 0
14, 85560, Note_on_c, 12, 60, 76
14, 85611, Note_on_c, 12, 60, 0
14, 85620, Note_on_c, 12, 48, 76
14, 85671, Note_on_c, 12, 48, 0
14, 85680, Note_on_c, 12, 60, 76
14, 85731, Note_on_c, 12, 60, 0
14, 85740, Note_on_c, 12, 48, 76
14, 85791, Note_on_c, 12, 48, 0
14, 85800, Note_on_c, 12, 60, 76
14, 85851, Note_on_c, 12, 60, 0
14, 85860, Note_on_c, 12, 48, 76
14, 85911, Note_on_c, 12, 48, 0
14, 85920, Note_on_c, 12, 60, 76
14, 85971, Note_on_c, 12, 60, 0
14, 85980, Note_on_c, 12, 48, 76
14, 86031, Note_on_c, 12, 48, 0
14, 86040, Note_on_c, 12, 60, 76
14, 86091, Note_on_c, 12, 60, 0
14, 86100, Note_on_c, 12, 48, 76
14, 86151, Note_on_c, 12, 48, 0
14, 86160, Note_on_c, 12, 60, 76
14, 86211, Note_on_c, 12, 60, 0
14, 86220, Note_on_c, 12, 48, 76
14, 86271, Note_on_c, 12, 48, 0
14, 86280, Note_on_c, 12, 60, 76
14, 86331, Note_on_c, 12, 60, 0
14, 86340, Note_on_c, 12, 48, 76
14, 86391, Note_on_c, 12, 48, 0
14, 86400, Note_on_c, 12, 60, 76
14, 86451, Note_on_c, 12, 60, 0
14, 86460, Note_on_c, 12, 48, 76
14, 86511, Note_on_c, 12, 48, 0
14, 86520, Note_on_c, 12, 60, 76
14, 86571, Note_on_c, 12, 60, 0
14, 86580, Note_on_c, 12, 48, 76
14, 86631, Note_on_c, 12, 48, 0
14, 86640, Note_on_c, 12, 60, 76
14, 86691, Note_on_c, 12, 60, 0
14, 86700, Note_on_c, 12, 48, 76
14, 86751, Note_on_c, 12, 48, 0
14, 86760, Note_on_c, 12, 60, 76
14, 86811, Note_on_c, 12, 60, 0
14, 86820, Note_on_c, 12, 48, 76
14, 86871, Note_on_c, 12, 48, 0
14, 86880, Note_on_c, 12, 60, 76
14, 86931, Note_on_c, 12, 60, 0
14, 86940, Note_on_c, 12, 48, 76
14, 86991, Note_on_c, 12, 48, 0
14, 87000, Note_on_c, 12, 60, 76
14, 87051, Note_on_c, 12, 60, 0
14, 87060, Note_on_c, 12, 48, 76
14, 87111, Note_on_c, 12, 48, 0
14, 87120, Note_on_c, 12, 60, 76
14, 87171, Note_on_c, 12, 60, 0
14, 87180, Note_on_c, 12, 48, 76
14, 87231, Note_on_c, 12, 48, 0
14, 87240, Note_on_c, 12, 60, 76
14, 87291, Note_on_c, 12, 60, 0
14, 87300, Note_on_c, 12, 48, 76
14, 87351, Note_on_c, 12, 48, 0
14, 87360, Note_on_c, 12, 60, 76
14, 87411, Note_on_c, 12, 60, 0
14, 87420, Note_on_c, 12, 48, 76
14, 87471, Note_on_c, 12, 48, 0
14, 87480, Note_on_c, 12, 60, 76
14, 87531, Note_on_c, 12, 60, 0
14, 87540, Note_on_c, 12, 48, 76
14, 87591, Note_on_c, 12, 48, 0
14, 87600, Note_on_c, 12, 60, 76
14, 87651, Note_on_c, 12, 60, 0
14, 87660, Note_on_c, 12, 48, 76
14, 87711, Note_on_c, 12, 48, 0
14, 87720, Note_on_c, 12, 60, 76
14, 87771, Note_on_c, 12, 60, 0
14, 87780, Note_on_c, 12, 48, 76
14, 87831, Note_on_c, 12, 48, 0
14, 87840, Note_on_c, 12, 60, 76
14, 87891, Note_on_c, 12, 60, 0
14, 87900, Note_on_c, 12, 48, 76
14, 87951, Note_on_c, 12, 48, 0
14, 87960, Note_on_c, 12, 60, 76
14, 88011, Note_on_c, 12, 60, 0
14, 88020, Note_on_c, 12, 48, 76
14, 88071, Note_on_c, 12, 48, 0
14, 88080, Note_on_c, 12, 60, 76
14, 88131, Note_on_c, 12, 60, 0
14, 88140, Note_on_c, 12, 48, 76
14, 88191, Note_on_c, 12, 48, 0
14, 88200, Note_on_c, 12, 60, 76
14, 88251, Note_on_c, 12, 60, 0
14, 88260, Note_on_c, 12, 48, 76
14, 88311, Note_on_c, 12, 48, 0
14, 88320, Note_on_c, 12, 60, 76
14, 88371, Note_on_c, 12, 60, 0
14, 88380, Note_on_c, 12, 48, 76
14, 88431, Note_on_c, 12, 48, 0
14, 88440, Note_on_c, 12, 60, 76
14, 88491, Note_on_c, 12, 60, 0
14, 88500, Note_on_c, 12, 48, 76
14, 88551, Note_on_c, 12, 48, 0
14, 88560, Note_on_c, 12, 60, 76
14, 88611, Note_on_c, 12, 60, 0
14, 88620, Note_on_c, 12, 48, 76
14, 88671, Note_on_c, 12, 48, 0
14, 88680, Note_on_c, 12, 60, 76
14, 88731, Note_on_c, 12, 60, 0
14, 88740, Note_on_c, 12, 48, 76
14, 88791, Note_on_c, 12, 48, 0
14, 88800, Note_on_c, 12, 60, 76
14, 88851, Note_on_c, 12, 60, 0
14, 88860, Note_on_c, 12, 48, 76
14, 88911, Note_on_c, 12, 48, 0
14, 88920, Note_on_c, 12, 60, 76
14, 88971, Note_on_c, 12, 60, 0
14, 88980, Note_on_c, 12, 48, 76
14, 89031, Note_on_c, 12, 48, 0
14, 89040, Note_on_c, 12, 60, 76
14, 89091, Note_on_c, 12, 60, 0
14, 89100, Note_on_c, 12, 48, 76
14, 89151, Note_on_c, 12, 48, 0
14, 89160, Note_on_c, 12, 60, 76
14, 89211, Note_on_c, 12, 60, 0
14, 89220, Note_on_c, 12, 48, 76
14, 89271, Note_on_c, 12, 48, 0
14, 89280, Note_on_c, 12, 60, 76
14, 89331, Note_on_c, 12, 60, 0
14, 89340, Note_on_c, 12, 48, 76
14, 89391, Note_on_c, 12, 48, 0
14, 89400, Note_on_c, 12, 60, 76
14, 89451, Note_on_c, 12, 60, 0
14, 89460, Note_on_c, 12, 48, 76
14, 89511, Note_on_c, 12, 48, 0
14, 89520, Note_on_c, 12, 60, 76
14, 89571, Note_on_c, 12, 60, 0
14, 89580, Note_on_c, 12, 48, 76
14, 89631, Note_on_c, 12, 48, 0
14, 89640, Note_on_c, 12, 60, 76
14, 89691, Note_on_c, 12, 60, 0
14, 89700, Note_on_c, 12, 48, 76
14, 89751, Note_on_c, 12, 48, 0
14, 89760, Note_on_c, 12, 60, 76
14, 89811, Note_on_c, 12, 60, 0
14, 89820, Note_on_c, 12, 48, 76
14, 89871, Note_on_c, 12, 48, 0
14, 89880, Note_on_c, 12, 60, 76
14, 89931, Note_on_c, 12, 60, 0
14, 89940, Note_on_c, 12, 48, 76
14, 89991, Note_on_c, 12, 48, 0
14, 90000, Note_on_c, 12, 60, 76
14, 90051, Note_on_c, 12, 60, 0
14, 90060, Note_on_c, 12, 48, 76
14, 90111, Note_on_c, 12, 48, 0
14, 90120, Note_on_c, 12, 60, 76
14, 90171, Note_on_c, 12, 60, 0
14, 90180, Note_on_c, 12, 48, 76
14, 90231, Note_on_c, 12, 48, 0
14, 90240, Note_on_c, 12, 60, 76
14, 90291, Note_on_c, 12, 60, 0
14, 90300, Note_on_c, 12, 48, 76
14, 90351, Note_on_c, 12, 48, 0
14, 90360, Note_on_c, 12, 60, 76
14, 90411, Note_on_c, 12, 60, 0
14, 90420, Note_on_c, 12, 48, 76
14, 90471, Note_on_c, 12, 48, 0
14, 90480, Note_on_c, 12, 60, 76
14, 90531, Note_on_c, 12, 60, 0
14, 90540, Note_on_c, 12, 48, 76
14, 90591, Note_on_c, 12, 48, 0
14, 90600, Note_on_c, 12, 60, 76
14, 90651, Note_on_c, 12, 60, 0
14, 90660, Note_on_c, 12, 48, 76
14, 90711, Note_on_c, 12, 48, 0
14, 90720, Note_on_c, 12, 60, 76
14, 90771, Note_on_c, 12, 60, 0
14, 90780, Note_on_c, 12, 48, 76
14, 90831, Note_on_c, 12, 48, 0
14, 90840, Note_on_c, 12, 60, 76
14, 90891, Note_on_c, 12, 60, 0
14, 90900, Note_on_c, 12, 48, 76
14, 90951, Note_on_c, 12, 48, 0
14, 90960, Note_on_c, 12, 60, 76
14, 91011, Note_on_c, 12, 60, 0
14, 91020, Note_on_c, 12, 48, 76
14, 91071, Note_on_c, 12, 48, 0
14, 91080, Note_on_c, 12, 60, 76
14, 91131, Note_on_c, 12, 60, 0
14, 91140, Note_on_c, 12, 48, 76
14, 91191, Note_on_c, 12, 48, 0
14, 91200, Note_on_c, 12, 53, 76
14, 91319, Note_on_c, 12, 53, 0
14, 92880, Program_c, 12, 45
14, 93120, Note_on_c, 12, 62, 48
14, 93239, Note_on_c, 12, 62, 0
14, 95040, Note_on_c, 12, 60, 48
14, 95279, Note_on_c, 12, 60, 0
14, 96000, Note_on_c, 12, 59, 48
14, 96000, Note_on_c, 12, 62, 48
14, 96239, Note_on_c, 12, 59, 0
14, 96239, Note_on_c, 12, 62, 0
14, 97680, Program_c, 12, 48
14, 97920, Note_on_c, 12, 50, 52
14, 98039, Note_on_c, 12, 50, 0
14, 98040, Note_on_c, 12, 53, 52
14, 98159, Note_on_c, 12, 53, 0
14, 98160, Note_on_c, 12, 50, 52
14, 98279, Note_on_c, 12, 50, 0
14, 98280, Note_on_c, 12, 53, 52
14, 98399, Note_on_c, 12, 53, 0
14, 98400, Note_on_c, 12, 50, 52
14, 98519, Note_on_c, 12, 50, 0
14, 98520, Note_on_c, 12, 53, 52
14, 98639, Note_on_c, 12, 53, 0
14, 98640, Note_on_c, 12, 50, 52
14, 98759, Note_on_c, 12, 50, 0
14, 98760, Note_on_c, 12, 53, 52
14, 98864, Note_on_c, 12, 53, 0
14, 98880, Note_on_c, 12, 52, 52
14, 98999, Note_on_c, 12, 52, 0
14, 99000, Note_on_c, 12, 55, 52
14, 99119, Note_on_c, 12, 55, 0
14, 99120, Note_on_c, 12, 52, 52
14, 99239, Note_on_c, 12, 52, 0
14, 99240, Note_on_c, 12, 55, 52
14, 99359, Note_on_c, 12, 55, 0
14, 99360, Note_on_c, 12, 52, 52
14, 99479, Note_on_c, 12, 52, 0
14, 99480, Note_on_c, 12, 55, 52
14, 99599, Note_on_c, 12, 55, 0
14, 99600, Note_on_c, 12, 52, 52
14, 99719, Note_on_c, 12, 52, 0
14, 99720, Note_on_c, 12, 55, 52
14, 99824, Note_on_c, 12, 55, 0
14, 99840, Note_on_c, 12, 53, 52
14, 99959, Note_on_c, 12, 53, 0
14, 99960, Note_on_c, 12, 55, 52
14, 100079, Note_on_c, 12, 55, 0
14, 100080, Note_on_c, 12, 53, 52
14, 100199, Note_on_c, 12, 53, 0
14, 100200, Note_on_c, 12, 55, 52
14, 100319, Note_on_c, 12, 55, 0
14, 100320, Note_on_c, 12, 53, 52
14, 100439, Note_on_c, 12, 53, 0
14, 100440, Note_on_c, 12, 55, 52
14, 100559, Note_on_c, 12, 55, 0
14, 100560, Note_on_c, 12, 53, 52
14, 100679, Note_on_c, 12, 53, 0
14, 100680, Note_on_c, 12, 55, 52
14, 100784, Note_on_c, 12, 55, 0
14, 100800, Note_on_c, 12, 52, 52
14, 100919, Note_on_c, 12, 52, 0
14, 100920, Note_on_c, 12, 55, 52
14, 101039, Note_on_c, 12, 55, 0
14, 101040, Note_on_c, 12, 52, 52
14, 101159, Note_on_c, 12, 52, 0
14, 101160, Note_on_c, 12, 55, 52
14, 101279, Note_on_c, 12, 55, 0
14, 101280, Note_on_c, 12, 52, 52
14, 101399, Note_on_c, 12, 52, 0
14, 101400, Note_on_c, 12, 55, 52
14, 101519, Note_on_c, 12, 55, 0
14, 101520, Note_on_c, 12, 52, 52
14, 101639, Note_on_c, 12, 52, 0
14, 101640, Note_on_c, 12, 55, 52
14, 101744, Note_on_c, 12, 55, 0
14, 101760, Note_on_c, 12, 59, 52
14, 101879, Note_on_c, 12, 59, 0
14, 101880, Note_on_c, 12, 55, 52
14, 101999, Note_on_c, 12, 55, 0
14, 102000, Note_on_c, 12, 59, 52
14, 102119, Note_on_c, 12, 59, 0
14, 102120, Note_on_c, 12, 55, 53
14, 102239, Note_on_c, 12, 55, 0
14, 102240, Note_on_c, 12, 59, 53
14, 102359, Note_on_c, 12, 59, 0
14, 102360, Note_on_c, 12, 55, 53
14, 102479, Note_on_c, 12, 55, 0
14, 102480, Note_on_c, 12, 59, 54
14, 102599, Note_on_c, 12, 59, 0
14, 102600, Note_on_c, 12, 55, 54
14, 102704, Note_on_c, 12, 55, 0
14, 102720, Note_on_c, 12, 60, 54
14, 102839, Note_on_c, 12, 60, 0
14, 102840, Note_on_c, 12, 55, 55
14, 102959, Note_on_c, 12, 55, 0
14, 102960, Note_on_c, 12, 60, 55
14, 103079, Note_on_c, 12, 60, 0
14, 103080, Note_on_c, 12, 55, 55
14, 103199, Note_on_c, 12, 55, 0
14, 103200, Note_on_c, 12, 60, 56
14, 103319, Note_on_c, 12, 60, 0
14, 103320, Note_on_c, 12, 55, 56
14, 103439, Note_on_c, 12, 55, 0
14, 103440, Note_on_c, 12, 60, 56
14, 103559, Note_on_c, 12, 60, 0
14, 103560, Note_on_c, 12, 55, 57
14, 103664, Note_on_c, 12, 55, 0
14, 103680, Note_on_c, 12, 62, 57
14, 103799, Note_on_c, 12, 62, 0
14, 103800, Note_on_c, 12, 55, 57
14, 103919, Note_on_c, 12, 55, 0
14, 103920, Note_on_c, 12, 62, 58
14, 104039, Note_on_c, 12, 62, 0
14, 104040, Note_on_c, 12, 55, 58
14, 104159, Note_on_c, 12, 55, 0
14, 104160, Note_on_c, 12, 62, 58
14, 104279, Note_on_c, 12, 62, 0
14, 104280, Note_on_c, 12, 55, 59
14, 104399, Note_on_c, 12, 55, 0
14, 104400, Note_on_c, 12, 62, 59
14, 104519, Note_on_c, 12, 62, 0
14, 104520, Note_on_c, 12, 55, 59
14, 104624, Note_on_c, 12, 55, 0
14, 104640, Note_on_c, 12, 64, 60
14, 104759, Note_on_c, 12, 64, 0
14, 104760, Note_on_c, 12, 55, 60
14, 104879, Note_on_c, 12, 55, 0
14, 104880, Note_on_c, 12, 64, 60
14, 104999, Note_on_c, 12, 64, 0
14, 105000, Note_on_c, 12, 55, 61
14, 105119, Note_on_c, 12, 55, 0
14, 105120, Note_on_c, 12, 64, 61
14, 105239, Note_on_c, 12, 64, 0
14, 105240, Note_on_c, 12, 55, 61
14, 105359, Note_on_c, 12, 55, 0
14, 105360, Note_on_c, 12, 64, 62
14, 105479, Note_on_c, 12, 64, 0
14, 105480, Note_on_c, 12, 55, 62
14, 105584, Note_on_c, 12, 55, 0
14, 105600, Note_on_c, 12, 65, 62
14, 105679, Note_on_c, 12, 65, 0
14, 105680, Note_on_c, 12, 62, 62
14, 105759, Note_on_c, 12, 62, 0
14, 105760, Note_on_c, 12, 65, 63
14, 105839, Note_on_c, 12, 65, 0
14, 105840, Note_on_c, 12, 62, 63
14, 105919, Note_on_c, 12, 62, 0
14, 105920, Note_on_c, 12, 65, 63
14, 105999, Note_on_c, 12, 65, 0
14, 106000, Note_on_c, 12, 62, 63
14, 106079, Note_on_c, 12, 62, 0
14, 106080, Note_on_c, 12, 65, 64
14, 106159, Note_on_c, 12, 65, 0
14, 106160, Note_on_c, 12, 62, 64
14, 106239, Note_on_c, 12, 62, 0
14, 106240, Note_on_c, 12, 65, 64
14, 106319, Note_on_c, 12, 65, 0
14, 106320, Note_on_c, 12, 62, 64
14, 106399, Note_on_c, 12, 62, 0
14, 106400, Note_on_c, 12, 65, 64
14, 106479, Note_on_c, 12, 65, 0
14, 106480, Note_on_c, 12, 62, 65
14, 106547, Note_on_c, 12, 62, 0
14, 106560, Note_on_c, 12, 67, 65
14, 106639, Note_on_c, 12, 67, 0
14, 106640, Note_on_c, 12, 64, 65
14, 106719, Note_on_c, 12, 64, 0
14, 106720, Note_on_c, 12, 67, 65
14, 106799, Note_on_c, 12, 67, 0
14, 106800, Note_on_c, 12, 64, 66
14, 106879, Note_on_c, 12, 64, 0
14, 106880, Note_on_c, 12, 67, 66
14, 106959, Note_on_c, 12, 67, 0
14, 106960, Note_on_c, 12, 64, 66
14, 107039, Note_on_c, 12, 64, 0
14, 107040, Note_on_c, 12, 67, 66
14, 107119, Note_on_c, 12, 67, 0
14, 107120, Note_on_c, 12, 64, 66
14, 107199, Note_on_c, 12, 64, 0
14, 107200, Note_on_c, 12, 67, 67
14, 107279, Note_on_c, 12, 67, 0
14, 107280, Note_on_c, 12, 64, 67
14, 107359, Note_on_c, 12, 64, 0
14, 107360, Note_on_c, 12, 67, 67
14, 107439, Note_on_c, 12, 67, 0
14, 107440, Note_on_c, 12, 64, 67
14, 107507, Note_on_c, 12, 64, 0
14, 107520, Note_on_c, 12, 67, 68
14, 107579, Note_on_c, 12, 67, 0
14, 107580, Note_on_c, 12, 65, 68
14, 107639, Note_on_c, 12, 65, 0
14, 107640, Note_on_c, 12, 67, 68
14, 107699, Note_on_c, 12, 67, 0
14, 107700, Note_on_c, 12, 65, 68
14, 107759, Note_on_c, 12, 65, 0
14, 107760, Note_on_c, 12, 67, 68
14, 107819, Note_on_c, 12, 67, 0
14, 107820, Note_on_c, 12, 65, 68
14, 107879, Note_on_c, 12, 65, 0
14, 107880, Note_on_c, 12, 67, 69
14, 107939, Note_on_c, 12, 67, 0
14, 107940, Note_on_c, 12, 65, 69
14, 107999, Note_on_c, 12, 65, 0
14, 108000, Note_on_c, 12, 67, 69
14, 108059, Note_on_c, 12, 67, 0
14, 108060, Note_on_c, 12, 65, 69
14, 108119, Note_on_c, 12, 65, 0
14, 108120, Note_on_c, 12, 67, 69
14, 108179, Note_on_c, 12, 67, 0
14, 108180, Note_on_c, 12, 65, 69
14, 108239, Note_on_c, 12, 65, 0
14, 108240, Note_on_c, 12, 67, 70
14, 108299, Note_on_c, 12, 67, 0
14, 108300, Note_on_c, 12, 65, 70
14, 108359, Note_on_c, 12, 65, 0
14, 108360, Note_on_c, 12, 67, 70
14, 108419, Note_on_c, 12, 67, 0
14, 108420, Note_on_c, 12, 65, 70
14, 108471, Note_on_c, 12, 65, 0
14, 108480, Note_on_c, 12, 67, 70
14, 108539, Note_on_c, 12, 67, 0
14, 108540, Note_on_c, 12, 64, 70
14, 108599, Note_on_c, 12, 64, 0
14, 108600, Note_on_c, 12, 67, 71
14, 108659, Note_on_c, 12, 67, 0
14, 108660, Note_on_c, 12, 64, 71
14, 108719, Note_on_c, 12, 64, 0
14, 108720, Note_on_c, 12, 67, 71
14, 108779, Note_on_c, 12, 67, 0
14, 108780, Note_on_c, 12, 64, 71
14, 108839, Note_on_c, 12, 64, 0
14, 108840, Note_on_c, 12, 67, 71
14, 108899, Note_on_c, 12, 67, 0
14, 108900, Note_on_c, 12, 64, 71
14, 108959, Note_on_c, 12, 64, 0
14, 108960, Note_on_c, 12, 67, 72
14, 109019, Note_on_c, 12, 67, 0
14, 109020, Note_on_c, 12, 64, 72
14, 109079, Note_on_c, 12, 64, 0
14, 109080, Note_on_c, 12, 67, 72
14, 109139, Note_on_c, 12, 67, 0
14, 109140, Note_on_c, 12, 64, 72
14, 109199, Note_on_c, 12, 64, 0
14, 109200, Note_on_c, 12, 67, 72
14, 109259, Note_on_c, 12, 67, 0
14, 109260, Note_on_c, 12, 64, 72
14, 109319, Note_on_c, 12, 64, 0
14, 109320, Note_on_c, 12, 67, 73
14, 109379, Note_on_c, 12, 67, 0
14, 109380, Note_on_c, 12, 64, 73
14, 109431, Note_on_c, 12, 64, 0
14, 109440, Note_on_c, 12, 67, 73
14, 109499, Note_on_c, 12, 67, 0
14, 109500, Note_on_c, 12, 65, 73
14, 109559, Note_on_c, 12, 65, 0
14, 109560, Note_on_c, 12, 67, 73
14, 109619, Note_on_c, 12, 67, 0
14, 109620, Note_on_c, 12, 65, 73
14, 109679, Note_on_c, 12, 65, 0
14, 109680, Note_on_c, 12, 67, 74
14, 109739, Note_on_c, 12, 67, 0
14, 109740, Note_on_c, 12, 65, 74
14, 109799, Note_on_c, 12, 65, 0
14, 109800, Note_on_c, 12, 67, 74
14, 109859, Note_on_c, 12, 67, 0
14, 109860, Note_on_c, 12, 65, 74
14, 109919, Note_on_c, 12, 65, 0
14, 109920, Note_on_c, 12, 67, 74
14, 109979, Note_on_c, 12, 67, 0
14, 109980, Note_on_c, 12, 65, 74
14, 110039, Note_on_c, 12, 65, 0
14, 110040, Note_on_c, 12, 67, 75
14, 110099, Note_on_c, 12, 67, 0
14, 110100, Note_on_c, 12, 65, 75
14, 110159, Note_on_c, 12, 65, 0
14, 110160, Note_on_c, 12, 67, 75
14, 110219, Note_on_c, 12, 67, 0
14, 110220, Note_on_c, 12, 65, 75
14, 110279, Note_on_c, 12, 65, 0
14, 110280, Note_on_c, 12, 67, 75
14, 110339, Note_on_c, 12, 67, 0
14, 110340, Note_on_c, 12, 65, 75
14, 110391, Note_on_c, 12, 65, 0
14, 110400, Note_on_c, 12, 67, 76
14, 110400, Note_on_c, 12, 64, 76
14, 110759, Note_on_c, 12, 67, 0
14, 110759, Note_on_c, 12, 64, 0
14, 110760, Note_on_c, 12, 69, 76
14, 110760, Note_on_c, 12, 65, 76
14, 110819, Note_on_c, 12, 69, 0
14, 110819, Note_on_c, 12, 65, 0
14, 110820, Note_on_c, 12, 71, 76
14, 110820, Note_on_c, 12, 67, 76
14, 110871, Note_on_c, 12, 71, 0
14, 110871, Note_on_c, 12, 67, 0
14, 110880, Note_on_c, 12, 72, 76
14, 110880, Note_on_c, 12, 69, 76
14, 110999, Note_on_c, 12, 72, 0
14, 110999, Note_on_c, 12, 69, 0
14, 111000, Note_on_c, 12, 67, 76
14, 111000, Note_on_c, 12, 71, 76
14, 111059, Note_on_c, 12, 67, 0
14, 111059, Note_on_c, 12, 71, 0
14, 111060, Note_on_c, 12, 69, 76
14, 111060, Note_on_c, 12, 65, 76
14, 111119, Note_on_c, 12, 69, 0
14, 111119, Note_on_c, 12, 65, 0
14, 111120, Note_on_c, 12, 67, 76
14, 111120, Note_on_c, 12, 64, 76
14, 111239, Note_on_c, 12, 67, 0
14, 111239, Note_on_c, 12, 64, 0
14, 111240, Note_on_c, 12, 69, 76
14, 111240, Note_on_c, 12, 65, 76
14, 111299, Note_on_c, 12, 69, 0
14, 111299, Note_on_c, 12, 65, 0
14, 111300, Note_on_c, 12, 71, 76
14, 111300, Note_on_c, 12, 67, 76
14, 111351, Note_on_c, 12, 71, 0
14, 111351, Note_on_c, 12, 67, 0
14, 111360, Note_on_c, 12, 69, 76
14, 111360, Note_on_c, 12, 72, 76
14, 111479, Note_on_c, 12, 69, 0
14, 111479, Note_on_c, 12, 72, 0
14, 111480, Note_on_c, 12, 71, 76
14, 111480, Note_on_c, 12, 67, 76
14, 111539, Note_on_c, 12, 71, 0
14, 111539, Note_on_c, 12, 67, 0
14, 111540, Note_on_c, 12, 65, 76
14, 111540, Note_on_c, 12, 69, 76
14, 111599, Note_on_c, 12, 65, 0
14, 111599, Note_on_c, 12, 69, 0
14, 111600, Note_on_c, 12, 67, 76
14, 111600, Note_on_c, 12, 64, 76
14, 111719, Note_on_c, 12, 67, 0
14, 111719, Note_on_c, 12, 64, 0
14, 111720, Note_on_c, 12, 69, 76
14, 111720, Note_on_c, 12, 65, 76
14, 111779, Note_on_c, 12, 69, 0
14, 111779, Note_on_c, 12, 65, 0
14, 111780, Note_on_c, 12, 67, 76
14, 111780, Note_on_c, 12, 71, 76
14, 111831, Note_on_c, 12, 67, 0
14, 111831, Note_on_c, 12, 71, 0
14, 111840, Note_on_c, 12, 72, 76
14, 111840, Note_on_c, 12, 69, 76
14, 111959, Note_on_c, 12, 72, 0
14, 111959, Note_on_c, 12, 69, 0
14, 112320, Note_on_c, 12, 57, 52
14, 112320, Note_on_c, 12, 53, 52
14, 112439, Note_on_c, 12, 57, 0
14, 112439, Note_on_c, 12, 53, 0
14, 112440, Note_on_c, 12, 60, 52
14, 112440, Note_on_c, 12, 48, 52
14, 112559, Note_on_c, 12, 60, 0
14, 112559, Note_on_c, 12, 48, 0
14, 112560, Note_on_c, 12, 57, 52
14, 112560, Note_on_c, 12, 53, 52
14, 112679, Note_on_c, 12, 57, 0
14, 112679, Note_on_c, 12, 53, 0
14, 112680, Note_on_c, 12, 60, 52
14, 112680, Note_on_c, 12, 48, 52
14, 112799, Note_on_c, 12, 60, 0
14, 112799, Note_on_c, 12, 48, 0
14, 112800, Note_on_c, 12, 55, 52
14, 112800, Note_on_c, 12, 52, 52
14, 112919, Note_on_c, 12, 55, 0
14, 112919, Note_on_c, 12, 52, 0
14, 112920, Note_on_c, 12, 48, 52
14, 112920, Note_on_c, 12, 60, 52
14, 113039, Note_on_c, 12, 48, 0
14, 113039, Note_on_c, 12, 60, 0
14, 113040, Note_on_c, 12, 55, 52
14, 113040, Note_on_c, 12, 52, 52
14, 113159, Note_on_c, 12, 55, 0
14, 113159, Note_on_c, 12, 52, 0
14, 113160, Note_on_c, 12, 60, 52
14, 113160, Note_on_c, 12, 48, 52
14, 113279, Note_on_c, 12, 60, 0
14, 113279, Note_on_c, 12, 48, 0
14, 113280, Note_on_c, 12, 55, 52
14, 113280, Note_on_c, 12, 53, 52
14, 113399, Note_on_c, 12, 55, 0
14, 113399, Note_on_c, 12, 53, 0
14, 113400, Note_on_c, 12, 50, 52
14, 113400, Note_on_c, 12, 59, 52
14, 113519, Note_on_c, 12, 50, 0
14, 113519, Note_on_c, 12, 59, 0
14, 113520, Note_on_c, 12, 53, 52
14, 113520, Note_on_c, 12, 55, 52
14, 113639, Note_on_c, 12, 53, 0
14, 113639, Note_on_c, 12, 55, 0
14, 113640, Note_on_c, 12, 50, 52
14, 113640, Note_on_c, 12, 59, 52
14, 113744, Note_on_c, 12, 50, 0
14, 113744, Note_on_c, 12, 59, 0
14, 113760, Note_on_c, 12, 67, 84
14, 113760, Note_on_c, 12, 64, 84
14, 114119, Note_on_c, 12, 67, 0
14, 114119, Note_on_c, 12, 64, 0
14, 114120, Note_on_c, 12, 65, 84
14, 114120, Note_on_c, 12, 69, 84
14, 114179, Note_on_c, 12, 65, 0
14, 114179, Note_on_c, 12, 69, 0
14, 114180, Note_on_c, 12, 67, 84
14, 114180, Note_on_c, 12, 71, 84
14, 114231, Note_on_c, 12, 67, 0
14, 114231, Note_on_c, 12, 71, 0
14, 114240, Note_on_c, 12, 69, 84
14, 114240, Note_on_c, 12, 72, 84
14, 114359, Note_on_c, 12, 69, 0
14, 114359, Note_on_c, 12, 72, 0
14, 114360, Note_on_c, 12, 71, 84
14, 114360, Note_on_c, 12, 67, 84
14, 114419, Note_on_c, 12, 71, 0
14, 114419, Note_on_c, 12, 67, 0
14, 114420, Note_on_c, 12, 69, 84
14, 114420, Note_on_c, 12, 65, 84
14, 114479, Note_on_c, 12, 69, 0
14, 114479, Note_on_c, 12, 65, 0
14, 114480, Note_on_c, 12, 67, 84
14, 114480, Note_on_c, 12, 64, 84
14, 114599, Note_on_c, 12, 67, 0
14, 114599, Note_on_c, 12, 64, 0
14, 114600, Note_on_c, 12, 65, 84
14, 114600, Note_on_c, 12, 69, 84
14, 114659, Note_on_c, 12, 65, 0
14, 114659, Note_on_c, 12, 69, 0
14, 114660, Note_on_c, 12, 67, 84
14, 114660, Note_on_c, 12, 71, 84
14, 114711, Note_on_c, 12, 67, 0
14, 114711, Note_on_c, 12, 71, 0
14, 114720, Note_on_c, 12, 72, 84
14, 114720, Note_on_c, 12, 69, 84
14, 114839, Note_on_c, 12, 72, 0
14, 114839, Note_on_c, 12, 69, 0
14, 114840, Note_on_c, 12, 71, 84
14, 114840, Note_on_c, 12, 67, 84
14, 114899, Note_on_c, 12, 71, 0
14, 114899, Note_on_c, 12, 67, 0
14, 114900, Note_on_c, 12, 69, 84
14, 114900, Note_on_c, 12, 65, 84
14, 114959, Note_on_c, 12, 69, 0
14, 114959, Note_on_c, 12, 65, 0
14, 114960, Note_on_c, 12, 64, 84
14, 114960, Note_on_c, 12, 67, 84
14, 115079, Note_on_c, 12, 64, 0
14, 115079, Note_on_c, 12, 67, 0
14, 115080, Note_on_c, 12, 69, 84
14, 115080, Note_on_c, 12, 65, 84
14, 115139, Note_on_c, 12, 69, 0
14, 115139, Note_on_c, 12, 65, 0
14, 115140, Note_on_c, 12, 71, 84
14, 115140, Note_on_c, 12, 67, 84
14, 115191, Note_on_c, 12, 71, 0
14, 115191, Note_on_c, 12, 67, 0
14, 115200, Note_on_c, 12, 69, 76
14, 115200, Note_on_c, 12, 72, 76
14, 115319, Note_on_c, 12, 69, 0
14, 115319, Note_on_c, 12, 72, 0
14, 115680, Note_on_c, 12, 57, 52
14, 115680, Note_on_c, 12, 53, 52
14, 115799, Note_on_c, 12, 57, 0
14, 115799, Note_on_c, 12, 53, 0
14, 115800, Note_on_c, 12, 60, 52
14, 115800, Note_on_c, 12, 48, 52
14, 115919, Note_on_c, 12, 60, 0
14, 115919, Note_on_c, 12, 48, 0
14, 115920, Note_on_c, 12, 53, 52
14, 115920, Note_on_c, 12, 57, 52
14, 116039, Note_on_c, 12, 53, 0
14, 116039, Note_on_c, 12, 57, 0
14, 116040, Note_on_c, 12, 48, 52
14, 116040, Note_on_c, 12, 60, 52
14, 116159, Note_on_c, 12, 48, 0
14, 116159, Note_on_c, 12, 60, 0
14, 116160, Note_on_c, 12, 55, 52
14, 116160, Note_on_c, 12, 52, 52
14, 116279, Note_on_c, 12, 55, 0
14, 116279, Note_on_c, 12, 52, 0
14, 116280, Note_on_c, 12, 48, 52
14, 116280, Note_on_c, 12, 60, 52
14, 116399, Note_on_c, 12, 48, 0
14, 116399, Note_on_c, 12, 60, 0
14, 116400, Note_on_c, 12, 55, 52
14, 116400, Note_on_c, 12, 52, 52
14, 116519, Note_on_c, 12, 55, 0
14, 116519, Note_on_c, 12, 52, 0
14, 116520, Note_on_c, 12, 60, 52
14, 116520, Note_on_c, 12, 48, 52
14, 116639, Note_on_c, 12, 60, 0
14, 116639, Note_on_c, 12, 48, 0
14, 116640, Note_on_c, 12, 53, 52
14, 116640, Note_on_c, 12, 55, 52
14, 116759, Note_on_c, 12, 53, 0
14, 116759, Note_on_c, 12, 55, 0
14, 116760, Note_on_c, 12, 59, 52
14, 116760, Note_on_c, 12, 50, 52
14, 116879, Note_on_c, 12, 59, 0
14, 116879, Note_on_c, 12, 50, 0
14, 116880, Note_on_c, 12, 53, 52
14, 116880, Note_on_c, 12, 55, 52
14, 116999, Note_on_c, 12, 53, 0
14, 116999, Note_on_c, 12, 55, 0
14, 117000, Note_on_c, 12, 59, 52
14, 117000, Note_on_c, 12, 50, 52
14, 117119, Note_on_c, 12, 59, 0
14, 117119, Note_on_c, 12, 50, 0
14, 117120, Note_on_c, 12, 52, 52
14, 117120, Note_on_c, 12, 55, 52
14, 117224, Note_on_c, 12, 52, 0
14, 117224, Note_on_c, 12, 55, 0
14, 117240, Note_on_c, 12, 48, 52
14, 117240, Note_on_c, 12, 60, 52
14, 117344, Note_on_c, 12, 48, 0
14, 117344, Note_on_c, 12, 60, 0
14, 117360, Note_on_c, 12, 48, 53
14, 117360, Note_on_c, 12, 60, 53
14, 117464, Note_on_c, 12, 48, 0
14, 117464, Note_on_c, 12, 60, 0
14, 117480, Note_on_c, 12, 60, 55
14, 117480, Note_on_c, 12, 48, 55
14, 117584, Note_on_c, 12, 60, 0
14, 117584, Note_on_c, 12, 48, 0
14, 117600, Note_on_c, 12, 57, 56
14, 117600, Note_on_c, 12, 53, 56
14, 117719, Note_on_c, 12, 57, 0
14, 117719, Note_on_c, 12, 53, 0
14, 117720, Note_on_c, 12, 60, 58
14, 117720, Note_on_c, 12, 48, 58
14, 117839, Note_on_c, 12, 60, 0
14, 117839, Note_on_c, 12, 48, 0
14, 117840, Note_on_c, 12, 57, 60
14, 117840, Note_on_c, 12, 53, 60
14, 117959, Note_on_c, 12, 57, 0
14, 117959, Note_on_c, 12, 53, 0
14, 117960, Note_on_c, 12, 60, 61
14, 117960, Note_on_c, 12, 48, 61
14, 118079, Note_on_c, 12, 60, 0
14, 118079, Note_on_c, 12, 48, 0
14, 118080, Note_on_c, 12, 52, 63
14, 118080, Note_on_c, 12, 55, 63
14, 118199, Note_on_c, 12, 52, 0
14, 118199, Note_on_c, 12, 55, 0
14, 118200, Note_on_c, 12, 48, 64
14, 118200, Note_on_c, 12, 60, 64
14, 118319, Note_on_c, 12, 48, 0
14, 118319, Note_on_c, 12, 60, 0
14, 118320, Note_on_c, 12, 55, 66
14, 118320, Note_on_c, 12, 52, 66
14, 118439, Note_on_c, 12, 55, 0
14, 118439, Note_on_c, 12, 52, 0
14, 118440, Note_on_c, 12, 48, 68
14, 118440, Note_on_c, 12, 60, 68
14, 118559, Note_on_c, 12, 48, 0
14, 118559, Note_on_c, 12, 60, 0
14, 118560, Note_on_c, 12, 55, 69
14, 118560, Note_on_c, 12, 53, 69
14, 118679, Note_on_c, 12, 55, 0
14, 118679, Note_on_c, 12, 53, 0
14, 118680, Note_on_c, 12, 59, 71
14, 118680, Note_on_c, 12, 50, 71
14, 118799, Note_on_c, 12, 59, 0
14, 118799, Note_on_c, 12, 50, 0
14, 118800, Note_on_c, 12, 55, 72
14, 118800, Note_on_c, 12, 53, 72
14, 118919, Note_on_c, 12, 55, 0
14, 118919, Note_on_c, 12, 53, 0
14, 118920, Note_on_c, 12, 59, 74
14, 118920, Note_on_c, 12, 50, 74
14, 119039, Note_on_c, 12, 59, 0
14, 119039, Note_on_c, 12, 50, 0
14, 119040, Note_on_c, 12, 60, 76
14, 119040, Note_on_c, 12, 52, 76
14, 119107, Note_on_c, 12, 60, 0
14, 119107, Note_on_c, 12, 52, 0
14, 119120, Note_on_c, 12, 67, 76
14, 119120, Note_on_c, 12, 64, 76
14, 119187, Note_on_c, 12, 67, 0
14, 119187, Note_on_c, 12, 64, 0
14, 119200, Note_on_c, 12, 64, 76
14, 119200, Note_on_c, 12, 67, 76
14, 119267, Note_on_c, 12, 64, 0
14, 119267, Note_on_c, 12, 67, 0
14, 119280, Note_on_c, 12, 64, 76
14, 119280, Note_on_c, 12, 67, 76
14, 119347, Note_on_c, 12, 64, 0
14, 119347, Note_on_c, 12, 67, 0
14, 119360, Note_on_c, 12, 65, 76
14, 119360, Note_on_c, 12, 62, 76
14, 119427, Note_on_c, 12, 65, 0
14, 119427, Note_on_c, 12, 62, 0
14, 119440, Note_on_c, 12, 60, 76
14, 119440, Note_on_c, 12, 64, 76
14, 119507, Note_on_c, 12, 60, 0
14, 119507, Note_on_c, 12, 64, 0
14, 119520, Note_on_c, 12, 72, 76
14, 119520, Note_on_c, 12, 69, 76
14, 119587, Note_on_c, 12, 72, 0
14, 119587, Note_on_c, 12, 69, 0
14, 119600, Note_on_c, 12, 69, 76
14, 119600, Note_on_c, 12, 72, 76
14, 119667, Note_on_c, 12, 69, 0
14, 119667, Note_on_c, 12, 72, 0
14, 119680, Note_on_c, 12, 72, 76
14, 119680, Note_on_c, 12, 69, 76
14, 119747, Note_on_c, 12, 72, 0
14, 119747, Note_on_c, 12, 69, 0
14, 119760, Note_on_c, 12, 69, 76
14, 119760, Note_on_c, 12, 65, 76
14, 119827, Note_on_c, 12, 69, 0
14, 119827, Note_on_c, 12, 65, 0
14, 119840, Note_on_c, 12, 69, 76
14, 119840, Note_on_c, 12, 65, 76
14, 119907, Note_on_c, 12, 69, 0
14, 119907, Note_on_c, 12, 65, 0
14, 119920, Note_on_c, 12, 69, 76
14, 119920, Note_on_c, 12, 65, 76
14, 119987, Note_on_c, 12, 69, 0
14, 119987, Note_on_c, 12, 65, 0
14, 120000, Note_on_c, 12, 67, 76
14, 120000, Note_on_c, 12, 64, 76
14, 120067, Note_on_c, 12, 67, 0
14, 120067, Note_on_c, 12, 64, 0
14, 120080, Note_on_c, 12, 67, 76
14, 120080, Note_on_c, 12, 64, 76
14, 120147, Note_on_c, 12, 67, 0
14, 120147, Note_on_c, 12, 64, 0
14, 120160, Note_on_c, 12, 64, 76
14, 120160, Note_on_c, 12, 67, 76
14, 120227, Note_on_c, 12, 64, 0
14, 120227, Note_on_c, 12, 67, 0
14, 120240, Note_on_c, 12, 60, 76
14, 120240, Note_on_c, 12, 64, 76
14, 120307, Note_on_c, 12, 60, 0
14, 120307, Note_on_c, 12, 64, 0
14, 120320, Note_on_c, 12, 64, 76
14, 120320, Note_on_c, 12, 60, 76
14, 120387, Note_on_c, 12, 64, 0
14, 120387, Note_on_c, 12, 60, 0
14, 120400, Note_on_c, 12, 64, 76
14, 120400, Note_on_c, 12, 60, 76
14, 120467, Note_on_c, 12, 64, 0
14, 120467, Note_on_c, 12, 60, 0
14, 120480, Note_on_c, 12, 53, 76
14, 120480, Note_on_c, 12, 62, 76
14, 120547, Note_on_c, 12, 53, 0
14, 120547, Note_on_c, 12, 62, 0
14, 120560, Note_on_c, 12, 62, 76
14, 120560, Note_on_c, 12, 53, 76
14, 120627, Note_on_c, 12, 62, 0
14, 120627, Note_on_c, 12, 53, 0
14, 120640, Note_on_c, 12, 53, 76
14, 120640, Note_on_c, 12, 62, 76
14, 120707, Note_on_c, 12, 53, 0
14, 120707, Note_on_c, 12, 62, 0
14, 120720, Note_on_c, 12, 62, 76
14, 120720, Note_on_c, 12, 53, 76
14, 120787, Note_on_c, 12, 62, 0
14, 120787, Note_on_c, 12, 53, 0
14, 120800, Note_on_c, 12, 52, 76
14, 120800, Note_on_c, 12, 60, 76
14, 120867, Note_on_c, 12, 52, 0
14, 120867, Note_on_c, 12, 60, 0
14, 120880, Note_on_c, 12, 53, 76
14, 120880, Note_on_c, 12, 62, 76
14, 120947, Note_on_c, 12, 53, 0
14, 120947, Note_on_c, 12, 62, 0
14, 120960, Note_on_c, 12, 48, 76
14, 121027, Note_on_c, 12, 48, 0
14, 121040, Note_on_c, 12, 48, 76
14, 121107, Note_on_c, 12, 48, 0
14, 121120, Note_on_c, 12, 48, 76
14, 121187, Note_on_c, 12, 48, 0
14, 121200, Note_on_c, 12, 48, 76
14, 121987, Note_on_c, 12, 48, 0
14, 122000, Note_on_c, 12, 48, 76
14, 122067, Note_on_c, 12, 48, 0
14, 122080, Note_on_c, 12, 48, 76
14, 122147, Note_on_c, 12, 48, 0
14, 122160, Note_on_c, 12, 48, 76
14, 122947, Note_on_c, 12, 48, 0
14, 122960, Note_on_c, 12, 48, 76
14, 123027, Note_on_c, 12, 48, 0
14, 123040, Note_on_c, 12, 48, 76
14, 123107, Note_on_c, 12, 48, 0
14, 123120, Note_on_c, 12, 48, 76
14, 123907, Note_on_c, 12, 48, 0
14, 123920, Note_on_c, 12, 48, 76
14, 123987, Note_on_c, 12, 48, 0
14, 124000, Note_on_c, 12, 48, 76
14, 124067, Note_on_c, 12, 48, 0
14, 124080, Note_on_c, 12, 48, 76
14, 124800, Control_c, 12, 11, 127
14, 124853, Control_c, 12, 11, 126
14, 124867, Note_on_c, 12, 48, 0
14, 124880, Note_on_c, 12, 48, 76
14, 124907, Control_c, 12, 11, 124
14, 124947, Note_on_c, 12, 48, 0
14, 124960, Control_c, 12, 11, 123
14, 124960, Note_on_c, 12, 48, 76
14, 125013, Control_c, 12, 11, 122
14, 125027, Note_on_c, 12, 48, 0
14, 125040, Note_on_c, 12, 48, 76
14, 125067, Control_c, 12, 11, 120
14, 125120, Control_c, 12, 11, 119
14, 125173, Control_c, 12, 11, 118
14, 125227, Control_c, 12, 11, 117
14, 125280, Control_c, 12, 11, 115
14, 125333, Control_c, 12, 11, 114
14, 125347, Note_on_c, 12, 48, 0
14, 125360, Note_on_c, 12, 48, 76
14, 125387, Control_c, 12, 11, 113
14, 125427, Note_on_c, 12, 48, 0
14, 125440, Note_on_c, 12, 48, 76
14, 125440, Control_c, 12, 11, 111
14, 125493, Control_c, 12, 11, 110
14, 125507, Note_on_c, 12, 48, 0
14, 125520, Note_on_c, 12, 48, 76
14, 125547, Control_c, 12, 11, 109
14, 125600, Control_c, 12, 11, 107
14, 125653, Control_c, 12, 11, 106
14, 125707, Control_c, 12, 11, 105
14, 125760, Control_c, 12, 11, 104
14, 125813, Control_c, 12, 11, 102
14, 125827, Note_on_c, 12, 48, 0
14, 125840, Note_on_c, 12, 48, 76
14, 125867, Control_c, 12, 11, 101
14, 125907, Note_on_c, 12, 48, 0
14, 125920, Note_on_c, 12, 48, 76
14, 125920, Control_c, 12, 11, 100
14, 125973, Control_c, 12, 11, 98
14, 125987, Note_on_c, 12, 48, 0
14, 126000, Note_on_c, 12, 48, 76
14, 126027, Control_c, 12, 11, 97
14, 126080, Control_c, 12, 11, 96
14, 126133, Control_c, 12, 11, 94
14, 126187, Control_c, 12, 11, 93
14, 126240, Control_c, 12, 11, 92
14, 126293, Control_c, 12, 11, 90
14, 126307, Note_on_c, 12, 48, 0
14, 126320, Note_on_c, 12, 48, 76
14, 126347, Control_c, 12, 11, 89
14, 126387, Note_on_c, 12, 48, 0
14, 126400, Note_on_c, 12, 48, 76
14, 126400, Control_c, 12, 11, 88
14, 126453, Control_c, 12, 11, 87
14, 126467, Note_on_c, 12, 48, 0
14, 126480, Note_on_c, 12, 48, 76
14, 126507, Control_c, 12, 11, 85
14, 126560, Control_c, 12, 11, 84
14, 126613, Control_c, 12, 11, 83
14, 126667, Control_c, 12, 11, 80
14, 126839, Note_on_c, 12, 48, 0
14, 128400, Control_c, 12, 11, 127
14, 128640, Note_on_c, 12, 48, 44
14, 128729, Note_on_c, 12, 48, 0
14, 128760, Note_on_c, 12, 55, 44
14, 128819, Note_on_c, 12, 55, 0
14, 128820, Note_on_c, 12, 52, 44
14, 128879, Note_on_c, 12, 52, 0
14, 128880, Note_on_c, 12, 48, 44
14, 128969, Note_on_c, 12, 48, 0
14, 129000, Note_on_c, 12, 55, 44
14, 129059, Note_on_c, 12, 55, 0
14, 129060, Note_on_c, 12, 52, 44
14, 129119, Note_on_c, 12, 52, 0
14, 129120, Note_on_c, 12, 48, 44
14, 129209, Note_on_c, 12, 48, 0
14, 129240, Note_on_c, 12, 55, 44
14, 129299, Note_on_c, 12, 55, 0
14, 129300, Note_on_c, 12, 52, 44
14, 129359, Note_on_c, 12, 52, 0
14, 129360, Note_on_c, 12, 48, 44
14, 129449, Note_on_c, 12, 48, 0
14, 129480, Note_on_c, 12, 55, 44
14, 129539, Note_on_c, 12, 55, 0
14, 129540, Note_on_c, 12, 52, 44
14, 129599, Note_on_c, 12, 52, 0
14, 129600, Note_on_c, 12, 48, 44
14, 129689, Note_on_c, 12, 48, 0
14, 129720, Note_on_c, 12, 55, 44
14, 129779, Note_on_c, 12, 55, 0
14, 129780, Note_on_c, 12, 52, 44
14, 129839, Note_on_c, 12, 52, 0
14, 129840, Note_on_c, 12, 48, 44
14, 129929, Note_on_c, 12, 48, 0
14, 129960, Note_on_c, 12, 55, 44
14, 130019, Note_on_c, 12, 55, 0
14, 130020, Note_on_c, 12, 52, 44
14, 130079, Note_on_c, 12, 52, 0
14, 130080, Note_on_c, 12, 48, 44
14, 130169, Note_on_c, 12, 48, 0
14, 130200, Note_on_c, 12, 55, 44
14, 130259, Note_on_c, 12, 55, 0
14, 130260, Note_on_c, 12, 52, 44
14, 130319, Note_on_c, 12, 52, 0
14, 130320, Note_on_c, 12, 48, 44
14, 130409, Note_on_c, 12, 48, 0
14, 130440, Note_on_c, 12, 55, 44
14, 130499, Note_on_c, 12, 55, 0
14, 130500, Note_on_c, 12, 52, 44
14, 130559, Note_on_c, 12, 52, 0
14, 130560, Note_on_c, 12, 48, 44
14, 130649, Note_on_c, 12, 48, 0
14, 132120, Note_on_c, 12, 57, 76
14, 132239, Note_on_c, 12, 57, 0
14, 132240, Note_on_c, 12, 58, 76
14, 132344, Note_on_c, 12, 58, 0
14, 132360, Note_on_c, 12, 62, 76
14, 132449, Note_on_c, 12, 62, 0
14, 132480, Note_on_c, 12, 55, 52
14, 133424, Note_on_c, 12, 55, 0
14, 133440, Note_on_c, 12, 55, 52
14, 134399, Note_on_c, 12, 55, 0
14, 134520, Note_on_c, 12, 53, 52
14, 134639, Note_on_c, 12, 53, 0
14, 134640, Note_on_c, 12, 55, 54
14, 134744, Note_on_c, 12, 55, 0
14, 134760, Note_on_c, 12, 58, 56
14, 134849, Note_on_c, 12, 58, 0
14, 134880, Note_on_c, 12, 57, 58
14, 134969, Note_on_c, 12, 57, 0
14, 135000, Note_on_c, 12, 57, 60
14, 135119, Note_on_c, 12, 57, 0
14, 135120, Note_on_c, 12, 58, 62
14, 135224, Note_on_c, 12, 58, 0
14, 135240, Note_on_c, 12, 62, 64
14, 135329, Note_on_c, 12, 62, 0
14, 135360, Note_on_c, 12, 60, 66
14, 135449, Note_on_c, 12, 60, 0
14, 135480, Note_on_c, 12, 60, 68
14, 135599, Note_on_c, 12, 60, 0
14, 135600, Note_on_c, 12, 62, 70
14, 135719, Note_on_c, 12, 62, 0
14, 135720, Note_on_c, 12, 65, 72
14, 135809, Note_on_c, 12, 65, 0
14, 135840, Note_on_c, 12, 63, 74
14, 135929, Note_on_c, 12, 63, 0
14, 135960, Note_on_c, 12, 62, 76
14, 136079, Note_on_c, 12, 62, 0
14, 136080, Note_on_c, 12, 63, 76
14, 136184, Note_on_c, 12, 63, 0
14, 136200, Note_on_c, 12, 67, 76
14, 136289, Note_on_c, 12, 67, 0
14, 137160, Note_on_c, 12, 53, 52
14, 137279, Note_on_c, 12, 53, 0
14, 138120, Note_on_c, 12, 53, 52
14, 138224, Note_on_c, 12, 53, 0
14, 138240, Note_on_c, 12, 53, 52
14, 138299, Note_on_c, 12, 53, 0
14, 138320, Note_on_c, 12, 62, 52
14, 138379, Note_on_c, 12, 62, 0
14, 138400, Note_on_c, 12, 58, 52
14, 138459, Note_on_c, 12, 58, 0
14, 138480, Note_on_c, 12, 65, 52
14, 138539, Note_on_c, 12, 65, 0
14, 138560, Note_on_c, 12, 62, 52
14, 138619, Note_on_c, 12, 62, 0
14, 138640, Note_on_c, 12, 58, 53
14, 138699, Note_on_c, 12, 58, 0
14, 138720, Note_on_c, 12, 53, 53
14, 138779, Note_on_c, 12, 53, 0
14, 138800, Note_on_c, 12, 62, 53
14, 138859, Note_on_c, 12, 62, 0
14, 138880, Note_on_c, 12, 58, 53
14, 138939, Note_on_c, 12, 58, 0
14, 138960, Note_on_c, 12, 65, 54
14, 139019, Note_on_c, 12, 65, 0
14, 139040, Note_on_c, 12, 62, 54
14, 139099, Note_on_c, 12, 62, 0
14, 139120, Note_on_c, 12, 58, 54
14, 139179, Note_on_c, 12, 58, 0
14, 139200, Note_on_c, 12, 53, 54
14, 139259, Note_on_c, 12, 53, 0
14, 139280, Note_on_c, 12, 62, 54
14, 139339, Note_on_c, 12, 62, 0
14, 139360, Note_on_c, 12, 58, 55
14, 139419, Note_on_c, 12, 58, 0
14, 139440, Note_on_c, 12, 65, 55
14, 139499, Note_on_c, 12, 65, 0
14, 139520, Note_on_c, 12, 62, 55
14, 139579, Note_on_c, 12, 62, 0
14, 139600, Note_on_c, 12, 58, 55
14, 139659, Note_on_c, 12, 58, 0
14, 139680, Note_on_c, 12, 53, 56
14, 139739, Note_on_c, 12, 53, 0
14, 139760, Note_on_c, 12, 62, 56
14, 139819, Note_on_c, 12, 62, 0
14, 139840, Note_on_c, 12, 58, 56
14, 139899, Note_on_c, 12, 58, 0
14, 139920, Note_on_c, 12, 65, 56
14, 139979, Note_on_c, 12, 65, 0
14, 140000, Note_on_c, 12, 62, 56
14, 140059, Note_on_c, 12, 62, 0
14, 140080, Note_on_c, 12, 58, 57
14, 140139, Note_on_c, 12, 58, 0
14, 140160, Note_on_c, 12, 53, 57
14, 140219, Note_on_c, 12, 53, 0
14, 140240, Note_on_c, 12, 62, 57
14, 140299, Note_on_c, 12, 62, 0
14, 140320, Note_on_c, 12, 58, 57
14, 140379, Note_on_c, 12, 58, 0
14, 140400, Note_on_c, 12, 65, 58
14, 140459, Note_on_c, 12, 65, 0
14, 140480, Note_on_c, 12, 62, 58
14, 140539, Note_on_c, 12, 62, 0
14, 140560, Note_on_c, 12, 58, 58
14, 140619, Note_on_c, 12, 58, 0
14, 140640, Note_on_c, 12, 53, 58
14, 140699, Note_on_c, 12, 53, 0
14, 140720, Note_on_c, 12, 62, 58
14, 140779, Note_on_c, 12, 62, 0
14, 140800, Note_on_c, 12, 58, 59
14, 140859, Note_on_c, 12, 58, 0
14, 140880, Note_on_c, 12, 65, 59
14, 140939, Note_on_c, 12, 65, 0
14, 140960, Note_on_c, 12, 62, 59
14, 141019, Note_on_c, 12, 62, 0
14, 141040, Note_on_c, 12, 58, 59
14, 141099, Note_on_c, 12, 58, 0
14, 141120, Note_on_c, 12, 53, 60
14, 141179, Note_on_c, 12, 53, 0
14, 141200, Note_on_c, 12, 62, 60
14, 141259, Note_on_c, 12, 62, 0
14, 141280, Note_on_c, 12, 58, 60
14, 141339, Note_on_c, 12, 58, 0
14, 141360, Note_on_c, 12, 65, 60
14, 141419, Note_on_c, 12, 65, 0
14, 141440, Note_on_c, 12, 62, 60
14, 141499, Note_on_c, 12, 62, 0
14, 141520, Note_on_c, 12, 58, 61
14, 141579, Note_on_c, 12, 58, 0
14, 141600, Note_on_c, 12, 53, 61
14, 141659, Note_on_c, 12, 53, 0
14, 141680, Note_on_c, 12, 62, 61
14, 141739, Note_on_c, 12, 62, 0
14, 141760, Note_on_c, 12, 58, 61
14, 141819, Note_on_c, 12, 58, 0
14, 141840, Note_on_c, 12, 65, 62
14, 141899, Note_on_c, 12, 65, 0
14, 141920, Note_on_c, 12, 62, 62
14, 141979, Note_on_c, 12, 62, 0
14, 142000, Note_on_c, 12, 58, 62
14, 142059, Note_on_c, 12, 58, 0
14, 142080, Note_on_c, 12, 53, 62
14, 142139, Note_on_c, 12, 53, 0
14, 142160, Note_on_c, 12, 62, 62
14, 142219, Note_on_c, 12, 62, 0
14, 142240, Note_on_c, 12, 58, 63
14, 142299, Note_on_c, 12, 58, 0
14, 142320, Note_on_c, 12, 65, 63
14, 142379, Note_on_c, 12, 65, 0
14, 142400, Note_on_c, 12, 62, 63
14, 142459, Note_on_c, 12, 62, 0
14, 142480, Note_on_c, 12, 58, 63
14, 142539, Note_on_c, 12, 58, 0
14, 142560, Note_on_c, 12, 53, 64
14, 142619, Note_on_c, 12, 53, 0
14, 142640, Note_on_c, 12, 62, 64
14, 142699, Note_on_c, 12, 62, 0
14, 142720, Note_on_c, 12, 58, 64
14, 142779, Note_on_c, 12, 58, 0
14, 142800, Note_on_c, 12, 65, 64
14, 142859, Note_on_c, 12, 65, 0
14, 142880, Note_on_c, 12, 62, 64
14, 142939, Note_on_c, 12, 62, 0
14, 142960, Note_on_c, 12, 58, 65
14, 143019, Note_on_c, 12, 58, 0
14, 143040, Note_on_c, 12, 53, 65
14, 143099, Note_on_c, 12, 53, 0
14, 143120, Note_on_c, 12, 62, 65
14, 143179, Note_on_c, 12, 62, 0
14, 143200, Note_on_c, 12, 58, 65
14, 143259, Note_on_c, 12, 58, 0
14, 143280, Note_on_c, 12, 65, 66
14, 143339, Note_on_c, 12, 65, 0
14, 143360, Note_on_c, 12, 62, 66
14, 143419, Note_on_c, 12, 62, 0
14, 143440, Note_on_c, 12, 58, 66
14, 143499, Note_on_c, 12, 58, 0
14, 143520, Note_on_c, 12, 53, 66
14, 143579, Note_on_c, 12, 53, 0
14, 143600, Note_on_c, 12, 62, 66
14, 143659, Note_on_c, 12, 62, 0
14, 143680, Note_on_c, 12, 58, 67
14, 143739, Note_on_c, 12, 58, 0
14, 143760, Note_on_c, 12, 65, 67
14, 143819, Note_on_c, 12, 65, 0
14, 143840, Note_on_c, 12, 62, 67
14, 143899, Note_on_c, 12, 62, 0
14, 143920, Note_on_c, 12, 58, 67
14, 143979, Note_on_c, 12, 58, 0
14, 144000, Note_on_c, 12, 57, 68
14, 144059, Note_on_c, 12, 57, 0
14, 144080, Note_on_c, 12, 66, 68
14, 144139, Note_on_c, 12, 66, 0
14, 144160, Note_on_c, 12, 62, 68
14, 144219, Note_on_c, 12, 62, 0
14, 144240, Note_on_c, 12, 69, 68
14, 144299, Note_on_c, 12, 69, 0
14, 144320, Note_on_c, 12, 66, 68
14, 144379, Note_on_c, 12, 66, 0
14, 144400, Note_on_c, 12, 62, 69
14, 144459, Note_on_c, 12, 62, 0
14, 144480, Note_on_c, 12, 57, 69
14, 144539, Note_on_c, 12, 57, 0
14, 144560, Note_on_c, 12, 66, 69
14, 144619, Note_on_c, 12, 66, 0
14, 144640, Note_on_c, 12, 62, 69
14, 144699, Note_on_c, 12, 62, 0
14, 144720, Note_on_c, 12, 69, 70
14, 144779, Note_on_c, 12, 69, 0
14, 144800, Note_on_c, 12, 66, 70
14, 144859, Note_on_c, 12, 66, 0
14, 144880, Note_on_c, 12, 62, 70
14, 144939, Note_on_c, 12, 62, 0
14, 144960, Note_on_c, 12, 57, 70
14, 145019, Note_on_c, 12, 57, 0
14, 145040, Note_on_c, 12, 66, 70
14, 145099, Note_on_c, 12, 66, 0
14, 145120, Note_on_c, 12, 62, 71
14, 145179, Note_on_c, 12, 62, 0
14, 145200, Note_on_c, 12, 69, 71
14, 145259, Note_on_c, 12, 69, 0
14, 145280, Note_on_c, 12, 66, 71
14, 145339, Note_on_c, 12, 66, 0
14, 145360, Note_on_c, 12, 62, 71
14, 145419, Note_on_c, 12, 62, 0
14, 145440, Note_on_c, 12, 57, 72
14, 145499, Note_on_c, 12, 57, 0
14, 145520, Note_on_c, 12, 66, 72
14, 145579, Note_on_c, 12, 66, 0
14, 145600, Note_on_c, 12, 62, 72
14, 145659, Note_on_c, 12, 62, 0
14, 145680, Note_on_c, 12, 69, 72
14, 145739, Note_on_c, 12, 69, 0
14, 145760, Note_on_c, 12, 66, 72
14, 145819, Note_on_c, 12, 66, 0
14, 145840, Note_on_c, 12, 62, 73
14, 145899, Note_on_c, 12, 62, 0
14, 145920, Note_on_c, 12, 57, 73
14, 145979, Note_on_c, 12, 57, 0
14, 146000, Note_on_c, 12, 66, 73
14, 146059, Note_on_c, 12, 66, 0
14, 146080, Note_on_c, 12, 62, 73
14, 146139, Note_on_c, 12, 62, 0
14, 146160, Note_on_c, 12, 69, 74
14, 146219, Note_on_c, 12, 69, 0
14, 146240, Note_on_c, 12, 66, 74
14, 146299, Note_on_c, 12, 66, 0
14, 146320, Note_on_c, 12, 62, 74
14, 146379, Note_on_c, 12, 62, 0
14, 146400, Note_on_c, 12, 57, 74
14, 146459, Note_on_c, 12, 57, 0
14, 146480, Note_on_c, 12, 66, 74
14, 146539, Note_on_c, 12, 66, 0
14, 146560, Note_on_c, 12, 62, 75
14, 146619, Note_on_c, 12, 62, 0
14, 146640, Note_on_c, 12, 69, 75
14, 146699, Note_on_c, 12, 69, 0
14, 146720, Note_on_c, 12, 66, 75
14, 146779, Note_on_c, 12, 66, 0
14, 146800, Note_on_c, 12, 62, 75
14, 146859, Note_on_c, 12, 62, 0
14, 146880, Note_on_c, 12, 57, 76
14, 146939, Note_on_c, 12, 57, 0
14, 146960, Note_on_c, 12, 66, 76
14, 147019, Note_on_c, 12, 66, 0
14, 147040, Note_on_c, 12, 62, 76
14, 147099, Note_on_c, 12, 62, 0
14, 147120, Note_on_c, 12, 69, 76
14, 147179, Note_on_c, 12, 69, 0
14, 147200, Note_on_c, 12, 66, 76
14, 147259, Note_on_c, 12, 66, 0
14, 147280, Note_on_c, 12, 62, 77
14, 147339, Note_on_c, 12, 62, 0
14, 147360, Note_on_c, 12, 57, 77
14, 147419, Note_on_c, 12, 57, 0
14, 147440, Note_on_c, 12, 66, 77
14, 147499, Note_on_c, 12, 66, 0
14, 147520, Note_on_c, 12, 62, 77
14, 147579, Note_on_c, 12, 62, 0
14, 147600, Note_on_c, 12, 69, 78
14, 147659, Note_on_c, 12, 69, 0
14, 147680, Note_on_c, 12, 66, 78
14, 147739, Note_on_c, 12, 66, 0
14, 147760, Note_on_c, 12, 62, 78
14, 147819, Note_on_c, 12, 62, 0
14, 147840, Note_on_c, 12, 57, 78
14, 147899, Note_on_c, 12, 57, 0
14, 147920, Note_on_c, 12, 66, 78
14, 147979, Note_on_c, 12, 66, 0
14, 148000, Note_on_c, 12, 62, 79
14, 148059, Note_on_c, 12, 62, 0
14, 148080, Note_on_c, 12, 69, 79
14, 148139, Note_on_c, 12, 69, 0
14, 148160, Note_on_c, 12, 66, 79
14, 148219, Note_on_c, 12, 66, 0
14, 148240, Note_on_c, 12, 62, 79
14, 148299, Note_on_c, 12, 62, 0
14, 148320, Note_on_c, 12, 57, 80
14, 148379, Note_on_c, 12, 57, 0
14, 148400, Note_on_c, 12, 66, 80
14, 148459, Note_on_c, 12, 66, 0
14, 148480, Note_on_c, 12, 62, 80
14, 148539, Note_on_c, 12, 62, 0
14, 148560, Note_on_c, 12, 69, 80
14, 148619, Note_on_c, 12, 69, 0
14, 148640, Note_on_c, 12, 66, 80
14, 148699, Note_on_c, 12, 66, 0
14, 148720, Note_on_c, 12, 62, 81
14, 148779, Note_on_c, 12, 62, 0
14, 148800, Note_on_c, 12, 57, 81
14, 148859, Note_on_c, 12, 57, 0
14, 148880, Note_on_c, 12, 66, 81
14, 148939, Note_on_c, 12, 66, 0
14, 148960, Note_on_c, 12, 62, 81
14, 149019, Note_on_c, 12, 62, 0
14, 149040, Note_on_c, 12, 69, 82
14, 149099, Note_on_c, 12, 69, 0
14, 149120, Note_on_c, 12, 66, 82
14, 149179, Note_on_c, 12, 66, 0
14, 149200, Note_on_c, 12, 62, 82
14, 149259, Note_on_c, 12, 62, 0
14, 149280, Note_on_c, 12, 57, 82
14, 149339, Note_on_c, 12, 57, 0
14, 149360, Note_on_c, 12, 66, 82
14, 149419, Note_on_c, 12, 66, 0
14, 149440, Note_on_c, 12, 62, 83
14, 149499, Note_on_c, 12, 62, 0
14, 149520, Note_on_c, 12, 69, 83
14, 149579, Note_on_c, 12, 69, 0
14, 149600, Note_on_c, 12, 66, 83
14, 149659, Note_on_c, 12, 66, 0
14, 149680, Note_on_c, 12, 62, 83
14, 149739, Note_on_c, 12, 62, 0
14, 149760, Note_on_c, 12, 50, 84
14, 149760, Note_on_c, 12, 62, 84
14, 149811, Note_on_c, 12, 50, 0
14, 149811, Note_on_c, 12, 62, 0
14, 149820, Note_on_c, 12, 62, 84
14, 149820, Note_on_c, 12, 50, 84
14, 149871, Note_on_c, 12, 62, 0
14, 149871, Note_on_c, 12, 50, 0
14, 149880, Note_on_c, 12, 50, 84
14, 149880, Note_on_c, 12, 62, 84
14, 149931, Note_on_c, 12, 50, 0
14, 149931, Note_on_c, 12, 62, 0
14, 149940, Note_on_c, 12, 62, 84
14, 149940, Note_on_c, 12, 50, 84
14, 149991, Note_on_c, 12, 62, 0
14, 149991, Note_on_c, 12, 50, 0
14, 150000, Note_on_c, 12, 50, 84
14, 150000, Note_on_c, 12, 62, 84
14, 150051, Note_on_c, 12, 50, 0
14, 150051, Note_on_c, 12, 62, 0
14, 150060, Note_on_c, 12, 62, 84
14, 150060, Note_on_c, 12, 50, 84
14, 150111, Note_on_c, 12, 62, 0
14, 150111, Note_on_c, 12, 50, 0
14, 150120, Note_on_c, 12, 62, 84
14, 150120, Note_on_c, 12, 50, 84
14, 150171, Note_on_c, 12, 62, 0
14, 150171, Note_on_c, 12, 50, 0
14, 150180, Note_on_c, 12, 50, 84
14, 150180, Note_on_c, 12, 62, 84
14, 150231, Note_on_c, 12, 50, 0
14, 150231, Note_on_c, 12, 62, 0
14, 150240, Note_on_c, 12, 50, 84
14, 150240, Note_on_c, 12, 62, 84
14, 150291, Note_on_c, 12, 50, 0
14, 150291, Note_on_c, 12, 62, 0
14, 150300, Note_on_c, 12, 62, 84
14, 150300, Note_on_c, 12, 50, 84
14, 150351, Note_on_c, 12, 62, 0
14, 150351, Note_on_c, 12, 50, 0
14, 150360, Note_on_c, 12, 62, 84
14, 150360, Note_on_c, 12, 50, 84
14, 150411, Note_on_c, 12, 62, 0
14, 150411, Note_on_c, 12, 50, 0
14, 150420, Note_on_c, 12, 50, 84
14, 150420, Note_on_c, 12, 62, 84
14, 150471, Note_on_c, 12, 50, 0
14, 150471, Note_on_c, 12, 62, 0
14, 150480, Note_on_c, 12, 62, 84
14, 150480, Note_on_c, 12, 50, 84
14, 150531, Note_on_c, 12, 62, 0
14, 150531, Note_on_c, 12, 50, 0
14, 150540, Note_on_c, 12, 62, 84
14, 150540, Note_on_c, 12, 50, 84
14, 150591, Note_on_c, 12, 62, 0
14, 150591, Note_on_c, 12, 50, 0
14, 150600, Note_on_c, 12, 62, 84
14, 150600, Note_on_c, 12, 50, 84
14, 150651, Note_on_c, 12, 62, 0
14, 150651, Note_on_c, 12, 50, 0
14, 150660, Note_on_c, 12, 50, 84
14, 150660, Note_on_c, 12, 62, 84
14, 150711, Note_on_c, 12, 50, 0
14, 150711, Note_on_c, 12, 62, 0
14, 150720, Note_on_c, 12, 62, 84
14, 150720, Note_on_c, 12, 50, 84
14, 150771, Note_on_c, 12, 62, 0
14, 150771, Note_on_c, 12, 50, 0
14, 150780, Note_on_c, 12, 62, 84
14, 150780, Note_on_c, 12, 50, 84
14, 150831, Note_on_c, 12, 62, 0
14, 150831, Note_on_c, 12, 50, 0
14, 150840, Note_on_c, 12, 50, 84
14, 150840, Note_on_c, 12, 62, 84
14, 150891, Note_on_c, 12, 50, 0
14, 150891, Note_on_c, 12, 62, 0
14, 150900, Note_on_c, 12, 50, 84
14, 150900, Note_on_c, 12, 62, 84
14, 150951, Note_on_c, 12, 50, 0
14, 150951, Note_on_c, 12, 62, 0
14, 150960, Note_on_c, 12, 50, 84
14, 150960, Note_on_c, 12, 62, 84
14, 151011, Note_on_c, 12, 50, 0
14, 151011, Note_on_c, 12, 62, 0
14, 151020, Note_on_c, 12, 50, 84
14, 151020, Note_on_c, 12, 62, 84
14, 151071, Note_on_c, 12, 50, 0
14, 151071, Note_on_c, 12, 62, 0
14, 151080, Note_on_c, 12, 50, 84
14, 151080, Note_on_c, 12, 62, 84
14, 151131, Note_on_c, 12, 50, 0
14, 151131, Note_on_c, 12, 62, 0
14, 151140, Note_on_c, 12, 50, 84
14, 151140, Note_on_c, 12, 62, 84
14, 151191, Note_on_c, 12, 50, 0
14, 151191, Note_on_c, 12, 62, 0
14, 151200, Note_on_c, 12, 50, 84
14, 151200, Note_on_c, 12, 62, 84
14, 151251, Note_on_c, 12, 50, 0
14, 151251, Note_on_c, 12, 62, 0
14, 151260, Note_on_c, 12, 62, 84
14, 151260, Note_on_c, 12, 50, 84
14, 151311, Note_on_c, 12, 62, 0
14, 151311, Note_on_c, 12, 50, 0
14, 151320, Note_on_c, 12, 50, 84
14, 151320, Note_on_c, 12, 62, 84
14, 151371, Note_on_c, 12, 50, 0
14, 151371, Note_on_c, 12, 62, 0
14, 151380, Note_on_c, 12, 50, 84
14, 151380, Note_on_c, 12, 62, 84
14, 151431, Note_on_c, 12, 50, 0
14, 151431, Note_on_c, 12, 62, 0
14, 151440, Note_on_c, 12, 50, 84
14, 151440, Note_on_c, 12, 62, 84
14, 151491, Note_on_c, 12, 50, 0
14, 151491, Note_on_c, 12, 62, 0
14, 151500, Note_on_c, 12, 50, 84
14, 151500, Note_on_c, 12, 62, 84
14, 151551, Note_on_c, 12, 50, 0
14, 151551, Note_on_c, 12, 62, 0
14, 151560, Note_on_c, 12, 50, 84
14, 151560, Note_on_c, 12, 62, 84
14, 151611, Note_on_c, 12, 50, 0
14, 151611, Note_on_c, 12, 62, 0
14, 151620, Note_on_c, 12, 50, 84
14, 151620, Note_on_c, 12, 62, 84
14, 151671, Note_on_c, 12, 50, 0
14, 151671, Note_on_c, 12, 62, 0
14, 151680, Note_on_c, 12, 62, 84
14, 151769, Note_on_c, 12, 62, 0
14, 151800, Note_on_c, 12, 57, 84
14, 151859, Note_on_c, 12, 57, 0
14, 151860, Note_on_c, 12, 55, 84
14, 151911, Note_on_c, 12, 55, 0
14, 151920, Note_on_c, 12, 54, 84
14, 152009, Note_on_c, 12, 54, 0
14, 152040, Note_on_c, 12, 50, 84
14, 152129, Note_on_c, 12, 50, 0
14, 152640, Note_on_c, 12, 62, 84
14, 152729, Note_on_c, 12, 62, 0
14, 152760, Note_on_c, 12, 57, 84
14, 152819, Note_on_c, 12, 57, 0
14, 152820, Note_on_c, 12, 55, 84
14, 152871, Note_on_c, 12, 55, 0
14, 152880, Note_on_c, 12, 54, 84
14, 152969, Note_on_c, 12, 54, 0
14, 153000, Note_on_c, 12, 50, 84
14, 153089, Note_on_c, 12, 50, 0
14, 158400, Note_on_c, 12, 67, 52
14, 158879, Note_on_c, 12, 67, 0
14, 158880, Note_on_c, 12, 62, 52
14, 159839, Note_on_c, 12, 62, 0
14, 159840, Note_on_c, 12, 62, 52
14, 160304, Note_on_c, 12, 62, 0
14, 160320, Note_on_c, 12, 55, 52
14, 160379, Note_on_c, 12, 55, 0
14, 160400, Note_on_c, 12, 62, 52
14, 160459, Note_on_c, 12, 62, 0
14, 160480, Note_on_c, 12, 59, 52
14, 160539, Note_on_c, 12, 59, 0
14, 160560, Note_on_c, 12, 67, 52
14, 160619, Note_on_c, 12, 67, 0
14, 160640, Note_on_c, 12, 62, 52
14, 160699, Note_on_c, 12, 62, 0
14, 160720, Note_on_c, 12, 59, 53
14, 160779, Note_on_c, 12, 59, 0
14, 160800, Note_on_c, 12, 55, 53
14, 160859, Note_on_c, 12, 55, 0
14, 160880, Note_on_c, 12, 62, 53
14, 160939, Note_on_c, 12, 62, 0
14, 160960, Note_on_c, 12, 59, 53
14, 161019, Note_on_c, 12, 59, 0
14, 161040, Note_on_c, 12, 67, 54
14, 161099, Note_on_c, 12, 67, 0
14, 161120, Note_on_c, 12, 62, 54
14, 161179, Note_on_c, 12, 62, 0
14, 161200, Note_on_c, 12, 59, 54
14, 161259, Note_on_c, 12, 59, 0
14, 161280, Note_on_c, 12, 55, 54
14, 161339, Note_on_c, 12, 55, 0
14, 161360, Note_on_c, 12, 62, 54
14, 161419, Note_on_c, 12, 62, 0
14, 161440, Note_on_c, 12, 59, 55
14, 161499, Note_on_c, 12, 59, 0
14, 161520, Note_on_c, 12, 67, 55
14, 161579, Note_on_c, 12, 67, 0
14, 161600, Note_on_c, 12, 62, 55
14, 161659, Note_on_c, 12, 62, 0
14, 161680, Note_on_c, 12, 59, 55
14, 161739, Note_on_c, 12, 59, 0
14, 161760, Note_on_c, 12, 55, 56
14, 161819, Note_on_c, 12, 55, 0
14, 161840, Note_on_c, 12, 62, 56
14, 161899, Note_on_c, 12, 62, 0
14, 161920, Note_on_c, 12, 59, 56
14, 161979, Note_on_c, 12, 59, 0
14, 162000, Note_on_c, 12, 67, 56
14, 162059, Note_on_c, 12, 67, 0
14, 162080, Note_on_c, 12, 62, 56
14, 162139, Note_on_c, 12, 62, 0
14, 162160, Note_on_c, 12, 59, 57
14, 162219, Note_on_c, 12, 59, 0
14, 162240, Note_on_c, 12, 55, 57
14, 162299, Note_on_c, 12, 55, 0
14, 162320, Note_on_c, 12, 62, 57
14, 162379, Note_on_c, 12, 62, 0
14, 162400, Note_on_c, 12, 59, 57
14, 162459, Note_on_c, 12, 59, 0
14, 162480, Note_on_c, 12, 67, 58
14, 162539, Note_on_c, 12, 67, 0
14, 162560, Note_on_c, 12, 62, 58
14, 162619, Note_on_c, 12, 62, 0
14, 162640, Note_on_c, 12, 59, 58
14, 162699, Note_on_c, 12, 59, 0
14, 162720, Note_on_c, 12, 55, 58
14, 162779, Note_on_c, 12, 55, 0
14, 162800, Note_on_c, 12, 62, 58
14, 162859, Note_on_c, 12, 62, 0
14, 162880, Note_on_c, 12, 59, 59
14, 162939, Note_on_c, 12, 59, 0
14, 162960, Note_on_c, 12, 67, 59
14, 163019, Note_on_c, 12, 67, 0
14, 163040, Note_on_c, 12, 62, 59
14, 163099, Note_on_c, 12, 62, 0
14, 163120, Note_on_c, 12, 59, 59
14, 163179, Note_on_c, 12, 59, 0
14, 163200, Note_on_c, 12, 55, 60
14, 163259, Note_on_c, 12, 55, 0
14, 163280, Note_on_c, 12, 62, 60
14, 163339, Note_on_c, 12, 62, 0
14, 163360, Note_on_c, 12, 59, 60
14, 163419, Note_on_c, 12, 59, 0
14, 163440, Note_on_c, 12, 67, 60
14, 163499, Note_on_c, 12, 67, 0
14, 163520, Note_on_c, 12, 62, 60
14, 163579, Note_on_c, 12, 62, 0
14, 163600, Note_on_c, 12, 59, 61
14, 163659, Note_on_c, 12, 59, 0
14, 163680, Note_on_c, 12, 55, 61
14, 163739, Note_on_c, 12, 55, 0
14, 163760, Note_on_c, 12, 62, 61
14, 163819, Note_on_c, 12, 62, 0
14, 163840, Note_on_c, 12, 59, 61
14, 163899, Note_on_c, 12, 59, 0
14, 163920, Note_on_c, 12, 67, 62
14, 163979, Note_on_c, 12, 67, 0
14, 164000, Note_on_c, 12, 62, 62
14, 164059, Note_on_c, 12, 62, 0
14, 164080, Note_on_c, 12, 59, 62
14, 164139, Note_on_c, 12, 59, 0
14, 164160, Note_on_c, 12, 55, 62
14, 164219, Note_on_c, 12, 55, 0
14, 164240, Note_on_c, 12, 62, 62
14, 164299, Note_on_c, 12, 62, 0
14, 164320, Note_on_c, 12, 59, 63
14, 164379, Note_on_c, 12, 59, 0
14, 164400, Note_on_c, 12, 67, 63
14, 164459, Note_on_c, 12, 67, 0
14, 164480, Note_on_c, 12, 62, 63
14, 164539, Note_on_c, 12, 62, 0
14, 164560, Note_on_c, 12, 59, 63
14, 164619, Note_on_c, 12, 59, 0
14, 164640, Note_on_c, 12, 55, 64
14, 164699, Note_on_c, 12, 55, 0
14, 164720, Note_on_c, 12, 62, 64
14, 164779, Note_on_c, 12, 62, 0
14, 164800, Note_on_c, 12, 59, 64
14, 164859, Note_on_c, 12, 59, 0
14, 164880, Note_on_c, 12, 67, 64
14, 164939, Note_on_c, 12, 67, 0
14, 164960, Note_on_c, 12, 62, 64
14, 165019, Note_on_c, 12, 62, 0
14, 165040, Note_on_c, 12, 59, 65
14, 165099, Note_on_c, 12, 59, 0
14, 165120, Note_on_c, 12, 55, 65
14, 165179, Note_on_c, 12, 55, 0
14, 165200, Note_on_c, 12, 62, 65
14, 165259, Note_on_c, 12, 62, 0
14, 165280, Note_on_c, 12, 59, 65
14, 165339, Note_on_c, 12, 59, 0
14, 165360, Note_on_c, 12, 67, 66
14, 165419, Note_on_c, 12, 67, 0
14, 165440, Note_on_c, 12, 62, 66
14, 165499, Note_on_c, 12, 62, 0
14, 165520, Note_on_c, 12, 59, 66
14, 165579, Note_on_c, 12, 59, 0
14, 165600, Note_on_c, 12, 55, 66
14, 165659, Note_on_c, 12, 55, 0
14, 165680, Note_on_c, 12, 62, 66
14, 165739, Note_on_c, 12, 62, 0
14, 165760, Note_on_c, 12, 59, 67
14, 165819, Note_on_c, 12, 59, 0
14, 165840, Note_on_c, 12, 67, 67
14, 165899, Note_on_c, 12, 67, 0
14, 165920, Note_on_c, 12, 62, 67
14, 165979, Note_on_c, 12, 62, 0
14, 166000, Note_on_c, 12, 59, 67
14, 166059, Note_on_c, 12, 59, 0
14, 166080, Note_on_c, 12, 52, 68
14, 166139, Note_on_c, 12, 52, 0
14, 166160, Note_on_c, 12, 64, 68
14, 166219, Note_on_c, 12, 64, 0
14, 166240, Note_on_c, 12, 59, 68
14, 166299, Note_on_c, 12, 59, 0
14, 166320, Note_on_c, 12, 68, 68
14, 166379, Note_on_c, 12, 68, 0
14, 166400, Note_on_c, 12, 64, 68
14, 166459, Note_on_c, 12, 64, 0
14, 166480, Note_on_c, 12, 59, 69
14, 166539, Note_on_c, 12, 59, 0
14, 166560, Note_on_c, 12, 52, 69
14, 166619, Note_on_c, 12, 52, 0
14, 166640, Note_on_c, 12, 64, 69
14, 166699, Note_on_c, 12, 64, 0
14, 166720, Note_on_c, 12, 59, 69
14, 166779, Note_on_c, 12, 59, 0
14, 166800, Note_on_c, 12, 68, 70
14, 166859, Note_on_c, 12, 68, 0
14, 166880, Note_on_c, 12, 64, 70
14, 166939, Note_on_c, 12, 64, 0
14, 166960, Note_on_c, 12, 59, 70
14, 167019, Note_on_c, 12, 59, 0
14, 167040, Note_on_c, 12, 52, 70
14, 167099, Note_on_c, 12, 52, 0
14, 167120, Note_on_c, 12, 64, 70
14, 167179, Note_on_c, 12, 64, 0
14, 167200, Note_on_c, 12, 59, 71
14, 167259, Note_on_c, 12, 59, 0
14, 167280, Note_on_c, 12, 68, 71
14, 167339, Note_on_c, 12, 68, 0
14, 167360, Note_on_c, 12, 64, 71
14, 167419, Note_on_c, 12, 64, 0
14, 167440, Note_on_c, 12, 59, 71
14, 167499, Note_on_c, 12, 59, 0
14, 167520, Note_on_c, 12, 52, 72
14, 167579, Note_on_c, 12, 52, 0
14, 167600, Note_on_c, 12, 64, 72
14, 167659, Note_on_c, 12, 64, 0
14, 167680, Note_on_c, 12, 59, 72
14, 167739, Note_on_c, 12, 59, 0
14, 167760, Note_on_c, 12, 68, 72
14, 167819, Note_on_c, 12, 68, 0
14, 167840, Note_on_c, 12, 64, 72
14, 167899, Note_on_c, 12, 64, 0
14, 167920, Note_on_c, 12, 59, 73
14, 167979, Note_on_c, 12, 59, 0
14, 168000, Note_on_c, 12, 52, 73
14, 168059, Note_on_c, 12, 52, 0
14, 168080, Note_on_c, 12, 64, 73
14, 168139, Note_on_c, 12, 64, 0
14, 168160, Note_on_c, 12, 59, 73
14, 168219, Note_on_c, 12, 59, 0
14, 168240, Note_on_c, 12, 68, 74
14, 168299, Note_on_c, 12, 68, 0
14, 168320, Note_on_c, 12, 64, 74
14, 168379, Note_on_c, 12, 64, 0
14, 168400, Note_on_c, 12, 59, 74
14, 168459, Note_on_c, 12, 59, 0
14, 168480, Note_on_c, 12, 52, 74
14, 168539, Note_on_c, 12, 52, 0
14, 168560, Note_on_c, 12, 64, 74
14, 168619, Note_on_c, 12, 64, 0
14, 168640, Note_on_c, 12, 59, 75
14, 168699, Note_on_c, 12, 59, 0
14, 168720, Note_on_c, 12, 68, 75
14, 168779, Note_on_c, 12, 68, 0
14, 168800, Note_on_c, 12, 64, 75
14, 168859, Note_on_c, 12, 64, 0
14, 168880, Note_on_c, 12, 59, 75
14, 168939, Note_on_c, 12, 59, 0
14, 168960, Note_on_c, 12, 52, 76
14, 169019, Note_on_c, 12, 52, 0
14, 169040, Note_on_c, 12, 64, 76
14, 169099, Note_on_c, 12, 64, 0
14, 169120, Note_on_c, 12, 59, 76
14, 169179, Note_on_c, 12, 59, 0
14, 169200, Note_on_c, 12, 68, 76
14, 169259, Note_on_c, 12, 68, 0
14, 169280, Note_on_c, 12, 64, 76
14, 169339, Note_on_c, 12, 64, 0
14, 169360, Note_on_c, 12, 59, 77
14, 169419, Note_on_c, 12, 59, 0
14, 169440, Note_on_c, 12, 52, 77
14, 169499, Note_on_c, 12, 52, 0
14, 169520, Note_on_c, 12, 64, 77
14, 169579, Note_on_c, 12, 64, 0
14, 169600, Note_on_c, 12, 59, 77
14, 169659, Note_on_c, 12, 59, 0
14, 169680, Note_on_c, 12, 68, 78
14, 169739, Note_on_c, 12, 68, 0
14, 169760, Note_on_c, 12, 64, 78
14, 169819, Note_on_c, 12, 64, 0
14, 169840, Note_on_c, 12, 59, 78
14, 169899, Note_on_c, 12, 59, 0
14, 169920, Note_on_c, 12, 52, 78
14, 169979, Note_on_c, 12, 52, 0
14, 170000, Note_on_c, 12, 64, 78
14, 170059, Note_on_c, 12, 64, 0
14, 170080, Note_on_c, 12, 59, 79
14, 170139, Note_on_c, 12, 59, 0
14, 170160, Note_on_c, 12, 68, 79
14, 170219, Note_on_c, 12, 68, 0
14, 170240, Note_on_c, 12, 64, 79
14, 170299, Note_on_c, 12, 64, 0
14, 170320, Note_on_c, 12, 59, 79
14, 170379, Note_on_c, 12, 59, 0
14, 170400, Note_on_c, 12, 52, 80
14, 170459, Note_on_c, 12, 52, 0
14, 170480, Note_on_c, 12, 64, 80
14, 170539, Note_on_c, 12, 64, 0
14, 170560, Note_on_c, 12, 59, 80
14, 170619, Note_on_c, 12, 59, 0
14, 170640, Note_on_c, 12, 68, 80
14, 170699, Note_on_c, 12, 68, 0
14, 170720, Note_on_c, 12, 64, 80
14, 170779, Note_on_c, 12, 64, 0
14, 170800, Note_on_c, 12, 59, 81
14, 170859, Note_on_c, 12, 59, 0
14, 170880, Note_on_c, 12, 52, 81
14, 170939, Note_on_c, 12, 52, 0
14, 170960, Note_on_c, 12, 64, 81
14, 171019, Note_on_c, 12, 64, 0
14, 171040, Note_on_c, 12, 59, 81
14, 171099, Note_on_c, 12, 59, 0
14, 171120, Note_on_c, 12, 68, 82
14, 171179, Note_on_c, 12, 68, 0
14, 171200, Note_on_c, 12, 64, 82
14, 171259, Note_on_c, 12, 64, 0
14, 171280, Note_on_c, 12, 59, 82
14, 171339, Note_on_c, 12, 59, 0
14, 171360, Note_on_c, 12, 52, 82
14, 171419, Note_on_c, 12, 52, 0
14, 171440, Note_on_c, 12, 64, 82
14, 171499, Note_on_c, 12, 64, 0
14, 171520, Note_on_c, 12, 59, 83
14, 171579, Note_on_c, 12, 59, 0
14, 171600, Note_on_c, 12, 68, 83
14, 171659, Note_on_c, 12, 68, 0
14, 171680, Note_on_c, 12, 64, 83
14, 171739, Note_on_c, 12, 64, 0
14, 171760, Note_on_c, 12, 59, 83
14, 171819, Note_on_c, 12, 59, 0
14, 171840, Note_on_c, 12, 64, 84
14, 171891, Note_on_c, 12, 64, 0
14, 171900, Note_on_c, 12, 64, 84
14, 171951, Note_on_c, 12, 64, 0
14, 171960, Note_on_c, 12, 64, 84
14, 172011, Note_on_c, 12, 64, 0
14, 172020, Note_on_c, 12, 64, 84
14, 172071, Note_on_c, 12, 64, 0
14, 172080, Note_on_c, 12, 64, 84
14, 172131, Note_on_c, 12, 64, 0
14, 172140, Note_on_c, 12, 64, 84
14, 172191, Note_on_c, 12, 64, 0
14, 172200, Note_on_c, 12, 64, 84
14, 172251, Note_on_c, 12, 64, 0
14, 172260, Note_on_c, 12, 64, 84
14, 172311, Note_on_c, 12, 64, 0
14, 172320, Note_on_c, 12, 64, 84
14, 172371, Note_on_c, 12, 64, 0
14, 172380, Note_on_c, 12, 64, 84
14, 172431, Note_on_c, 12, 64, 0
14, 172440, Note_on_c, 12, 64, 84
14, 172491, Note_on_c, 12, 64, 0
14, 172500, Note_on_c, 12, 64, 84
14, 172551, Note_on_c, 12, 64, 0
14, 172560, Note_on_c, 12, 64, 84
14, 172611, Note_on_c, 12, 64, 0
14, 172620, Note_on_c, 12, 64, 84
14, 172671, Note_on_c, 12, 64, 0
14, 172680, Note_on_c, 12, 64, 84
14, 172731, Note_on_c, 12, 64, 0
14, 172740, Note_on_c, 12, 64, 84
14, 172791, Note_on_c, 12, 64, 0
14, 172800, Note_on_c, 12, 64, 84
14, 172851, Note_on_c, 12, 64, 0
14, 172860, Note_on_c, 12, 64, 84
14, 172911, Note_on_c, 12, 64, 0
14, 172920, Note_on_c, 12, 64, 84
14, 172971, Note_on_c, 12, 64, 0
14, 172980, Note_on_c, 12, 64, 84
14, 173031, Note_on_c, 12, 64, 0
14, 173040, Note_on_c, 12, 64, 84
14, 173091, Note_on_c, 12, 64, 0
14, 173100, Note_on_c, 12, 64, 84
14, 173151, Note_on_c, 12, 64, 0
14, 173160, Note_on_c, 12, 64, 84
14, 173211, Note_on_c, 12, 64, 0
14, 173220, Note_on_c, 12, 64, 84
14, 173271, Note_on_c, 12, 64, 0
14, 173280, Note_on_c, 12, 64, 84
14, 173331, Note_on_c, 12, 64, 0
14, 173340, Note_on_c, 12, 64, 84
14, 173391, Note_on_c, 12, 64, 0
14, 173400, Note_on_c, 12, 64, 84
14, 173451, Note_on_c, 12, 64, 0
14, 173460, Note_on_c, 12, 64, 84
14, 173511, Note_on_c, 12, 64, 0
14, 173520, Note_on_c, 12, 64, 84
14, 173571, Note_on_c, 12, 64, 0
14, 173580, Note_on_c, 12, 64, 84
14, 173631, Note_on_c, 12, 64, 0
14, 173640, Note_on_c, 12, 64, 84
14, 173691, Note_on_c, 12, 64, 0
14, 173700, Note_on_c, 12, 64, 84
14, 173751, Note_on_c, 12, 64, 0
14, 173760, Note_on_c, 12, 64, 84
14, 173849, Note_on_c, 12, 64, 0
14, 173880, Note_on_c, 12, 59, 84
14, 173939, Note_on_c, 12, 59, 0
14, 173940, Note_on_c, 12, 57, 84
14, 173991, Note_on_c, 12, 57, 0
14, 174000, Note_on_c, 12, 56, 84
14, 174089, Note_on_c, 12, 56, 0
14, 174120, Note_on_c, 12, 52, 84
14, 174209, Note_on_c, 12, 52, 0
14, 174720, Note_on_c, 12, 64, 84
14, 174809, Note_on_c, 12, 64, 0
14, 174840, Note_on_c, 12, 59, 84
14, 174899, Note_on_c, 12, 59, 0
14, 174900, Note_on_c, 12, 57, 84
14, 174951, Note_on_c, 12, 57, 0
14, 174960, Note_on_c, 12, 56, 84
14, 175049, Note_on_c, 12, 56, 0
14, 175080, Note_on_c, 12, 52, 84
14, 175169, Note_on_c, 12, 52, 0
14, 180480, Note_on_c, 12, 69, 52
14, 180944, Note_on_c, 12, 69, 0
14, 180960, Note_on_c, 12, 64, 52
14, 182384, Note_on_c, 12, 64, 0
14, 182400, Note_on_c, 12, 57, 52
14, 183344, Note_on_c, 12, 57, 0
14, 183360, Note_on_c, 12, 50, 52
14, 183599, Note_on_c, 12, 50, 0
14, 183600, Note_on_c, 12, 57, 52
14, 183824, Note_on_c, 12, 57, 0
14, 183840, Note_on_c, 12, 52, 52
14, 184304, Note_on_c, 12, 52, 0
14, 184320, Note_on_c, 12, 49, 52
14, 184559, Note_on_c, 12, 49, 0
14, 184560, Note_on_c, 12, 52, 52
14, 184799, Note_on_c, 12, 52, 0
14, 184800, Note_on_c, 12, 50, 52
14, 185159, Note_on_c, 12, 50, 0
14, 185160, Note_on_c, 12, 49, 52
14, 185264, Note_on_c, 12, 49, 0
14, 185280, Note_on_c, 12, 54, 52
14, 185519, Note_on_c, 12, 54, 0
14, 185520, Note_on_c, 12, 52, 52
14, 185744, Note_on_c, 12, 52, 0
14, 185760, Note_on_c, 12, 50, 52
14, 185849, Note_on_c, 12, 50, 0
14, 185880, Note_on_c, 12, 50, 52
14, 185939, Note_on_c, 12, 50, 0
14, 185940, Note_on_c, 12, 52, 52
14, 185999, Note_on_c, 12, 52, 0
14, 186000, Note_on_c, 12, 54, 52
14, 186119, Note_on_c, 12, 54, 0
14, 186120, Note_on_c, 12, 50, 52
14, 186224, Note_on_c, 12, 50, 0
14, 186240, Note_on_c, 12, 52, 52
14, 186479, Note_on_c, 12, 52, 0
14, 186480, Note_on_c, 12, 55, 52
14, 186719, Note_on_c, 12, 55, 0
14, 186720, Note_on_c, 12, 54, 52
14, 187079, Note_on_c, 12, 54, 0
14, 187080, Note_on_c, 12, 52, 52
14, 187184, Note_on_c, 12, 52, 0
14, 187200, Note_on_c, 12, 57, 52
14, 187439, Note_on_c, 12, 57, 0
14, 187440, Note_on_c, 12, 55, 52
14, 187664, Note_on_c, 12, 55, 0
14, 187680, Note_on_c, 12, 54, 52
14, 187769, Note_on_c, 12, 54, 0
14, 187800, Note_on_c, 12, 54, 52
14, 187859, Note_on_c, 12, 54, 0
14, 187860, Note_on_c, 12, 55, 52
14, 187919, Note_on_c, 12, 55, 0
14, 187920, Note_on_c, 12, 57, 52
14, 188039, Note_on_c, 12, 57, 0
14, 188040, Note_on_c, 12, 55, 52
14, 188159, Note_on_c, 12, 55, 0
14, 190080, Note_on_c, 12, 50, 68
14, 190131, Note_on_c, 12, 50, 0
14, 190140, Note_on_c, 12, 57, 52
14, 190191, Note_on_c, 12, 57, 0
14, 190200, Note_on_c, 12, 60, 52
14, 190251, Note_on_c, 12, 60, 0
14, 190260, Note_on_c, 12, 57, 52
14, 190311, Note_on_c, 12, 57, 0
14, 190320, Note_on_c, 12, 50, 52
14, 190371, Note_on_c, 12, 50, 0
14, 190380, Note_on_c, 12, 54, 52
14, 190431, Note_on_c, 12, 54, 0
14, 190440, Note_on_c, 12, 57, 52
14, 190491, Note_on_c, 12, 57, 0
14, 190500, Note_on_c, 12, 54, 52
14, 190551, Note_on_c, 12, 54, 0
14, 190560, Note_on_c, 12, 50, 52
14, 190611, Note_on_c, 12, 50, 0
14, 190620, Note_on_c, 12, 55, 52
14, 190671, Note_on_c, 12, 55, 0
14, 190680, Note_on_c, 12, 58, 52
14, 190731, Note_on_c, 12, 58, 0
14, 190740, Note_on_c, 12, 55, 52
14, 190791, Note_on_c, 12, 55, 0
14, 190800, Note_on_c, 12, 50, 52
14, 190851, Note_on_c, 12, 50, 0
14, 190860, Note_on_c, 12, 57, 52
14, 190911, Note_on_c, 12, 57, 0
14, 190920, Note_on_c, 12, 60, 52
14, 190971, Note_on_c, 12, 60, 0
14, 190980, Note_on_c, 12, 57, 52
14, 191031, Note_on_c, 12, 57, 0
14, 191040, Note_on_c, 12, 50, 68
14, 191091, Note_on_c, 12, 50, 0
14, 191100, Note_on_c, 12, 55, 52
14, 191151, Note_on_c, 12, 55, 0
14, 191160, Note_on_c, 12, 59, 52
14, 191211, Note_on_c, 12, 59, 0
14, 191220, Note_on_c, 12, 55, 52
14, 191271, Note_on_c, 12, 55, 0
14, 191280, Note_on_c, 12, 52, 52
14, 191331, Note_on_c, 12, 52, 0
14, 191340, Note_on_c, 12, 55, 52
14, 191391, Note_on_c, 12, 55, 0
14, 191400, Note_on_c, 12, 60, 52
14, 191451, Note_on_c, 12, 60, 0
14, 191460, Note_on_c, 12, 55, 52
14, 191511, Note_on_c, 12, 55, 0
14, 191520, Note_on_c, 12, 53, 52
14, 191571, Note_on_c, 12, 53, 0
14, 191580, Note_on_c, 12, 55, 52
14, 191631, Note_on_c, 12, 55, 0
14, 191640, Note_on_c, 12, 62, 52
14, 191691, Note_on_c, 12, 62, 0
14, 191700, Note_on_c, 12, 55, 52
14, 191751, Note_on_c, 12, 55, 0
14, 191760, Note_on_c, 12, 53, 52
14, 191811, Note_on_c, 12, 53, 0
14, 191820, Note_on_c, 12, 55, 52
14, 191871, Note_on_c, 12, 55, 0
14, 191880, Note_on_c, 12, 53, 52
14, 191931, Note_on_c, 12, 53, 0
14, 191940, Note_on_c, 12, 55, 52
14, 191991, Note_on_c, 12, 55, 0
14, 192000, Note_on_c, 12, 64, 84
14, 192239, Note_on_c, 12, 64, 0
14, 192240, Note_on_c, 12, 67, 84
14, 192479, Note_on_c, 12, 67, 0
14, 192480, Note_on_c, 12, 65, 84
14, 192839, Note_on_c, 12, 65, 0
14, 192840, Note_on_c, 12, 64, 84
14, 192944, Note_on_c, 12, 64, 0
14, 192960, Note_on_c, 12, 69, 92
14, 193019, Note_on_c, 12, 69, 0
14, 193020, Note_on_c, 12, 69, 84
14, 193199, Note_on_c, 12, 69, 0
14, 193200, Note_on_c, 12, 67, 84
14, 193424, Note_on_c, 12, 67, 0
14, 193440, Note_on_c, 12, 65, 84
14, 193529, Note_on_c, 12, 65, 0
14, 193560, Note_on_c, 12, 65, 84
14, 193619, Note_on_c, 12, 65, 0
14, 193620, Note_on_c, 12, 67, 84
14, 193671, Note_on_c, 12, 67, 0
14, 193680, Note_on_c, 12, 69, 84
14, 193769, Note_on_c, 12, 69, 0
14, 193800, Note_on_c, 12, 65, 84
14, 193889, Note_on_c, 12, 65, 0
14, 193920, Note_on_c, 12, 67, 92
14, 193979, Note_on_c, 12, 67, 0
14, 193980, Note_on_c, 12, 67, 84
14, 194159, Note_on_c, 12, 67, 0
14, 194160, Note_on_c, 12, 70, 84
14, 194384, Note_on_c, 12, 70, 0
14, 194400, Note_on_c, 12, 69, 84
14, 194759, Note_on_c, 12, 69, 0
14, 194760, Note_on_c, 12, 67, 84
14, 194864, Note_on_c, 12, 67, 0
14, 194880, Note_on_c, 12, 72, 92
14, 194939, Note_on_c, 12, 72, 0
14, 194940, Note_on_c, 12, 72, 84
14, 195119, Note_on_c, 12, 72, 0
14, 195120, Note_on_c, 12, 70, 84
14, 195344, Note_on_c, 12, 70, 0
14, 195360, Note_on_c, 12, 69, 84
14, 195449, Note_on_c, 12, 69, 0
14, 195480, Note_on_c, 12, 69, 84
14, 195539, Note_on_c, 12, 69, 0
14, 195540, Note_on_c, 12, 70, 84
14, 195591, Note_on_c, 12, 70, 0
14, 195600, Note_on_c, 12, 72, 84
14, 195689, Note_on_c, 12, 72, 0
14, 195720, Note_on_c, 12, 69, 84
14, 195809, Note_on_c, 12, 69, 0
14, 195840, Note_on_c, 12, 74, 92
14, 195899, Note_on_c, 12, 74, 0
14, 195900, Note_on_c, 12, 74, 84
14, 196079, Note_on_c, 12, 74, 0
14, 196080, Note_on_c, 12, 72, 84
14, 196304, Note_on_c, 12, 72, 0
14, 196320, Note_on_c, 12, 70, 84
14, 196409, Note_on_c, 12, 70, 0
14, 196440, Note_on_c, 12, 67, 84
14, 196499, Note_on_c, 12, 67, 0
14, 196500, Note_on_c, 12, 69, 84
14, 196551, Note_on_c, 12, 69, 0
14, 196560, Note_on_c, 12, 70, 84
14, 196649, Note_on_c, 12, 70, 0
14, 196680, Note_on_c, 12, 72, 84
14, 196769, Note_on_c, 12, 72, 0
14, 196800, Note_on_c, 12, 74, 92
14, 196859, Note_on_c, 12, 74, 0
14, 196860, Note_on_c, 12, 74, 84
14, 197039, Note_on_c, 12, 74, 0
14, 197040, Note_on_c, 12, 72, 84
14, 197264, Note_on_c, 12, 72, 0
14, 197280, Note_on_c, 12, 70, 84
14, 197369, Note_on_c, 12, 70, 0
14, 197400, Note_on_c, 12, 67, 84
14, 197459, Note_on_c, 12, 67, 0
14, 197460, Note_on_c, 12, 69, 84
14, 197511, Note_on_c, 12, 69, 0
14, 197520, Note_on_c, 12, 70, 84
14, 197609, Note_on_c, 12, 70, 0
14, 197640, Note_on_c, 12, 72, 84
14, 197729, Note_on_c, 12, 72, 0
14, 197760, Note_on_c, 12, 74, 84
14, 197879, Note_on_c, 12, 74, 0
14, 198360, Note_on_c, 12, 53, 52
14, 198399, Note_on_c, 12, 53, 0
14, 198400, Note_on_c, 12, 55, 52
14, 198439, Note_on_c, 12, 55, 0
14, 198440, Note_on_c, 12, 57, 52
14, 198471, Note_on_c, 12, 57, 0
14, 198480, Note_on_c, 12, 58, 52
14, 198569, Note_on_c, 12, 58, 0
14, 198600, Note_on_c, 12, 60, 52
14, 198689, Note_on_c, 12, 60, 0
14, 198720, Note_on_c, 12, 62, 52
14, 198839, Note_on_c, 12, 62, 0
14, 199320, Note_on_c, 12, 53, 52
14, 199379, Note_on_c, 12, 53, 0
14, 199380, Note_on_c, 12, 55, 52
14, 199431, Note_on_c, 12, 55, 0
14, 199440, Note_on_c, 12, 57, 52
14, 199529, Note_on_c, 12, 57, 0
14, 199560, Note_on_c, 12, 58, 52
14, 199649, Note_on_c, 12, 58, 0
14, 199680, Note_on_c, 12, 60, 52
14, 199769, Note_on_c, 12, 60, 0
14, 199800, Note_on_c, 12, 57, 52
14, 199919, Note_on_c, 12, 57, 0
14, 199920, Note_on_c, 12, 58, 52
14, 200024, Note_on_c, 12, 58, 0
14, 200040, Note_on_c, 12, 62, 52
14, 200129, Note_on_c, 12, 62, 0
14, 200160, Note_on_c, 12, 60, 52
14, 200279, Note_on_c, 12, 60, 0
14, 200280, Note_on_c, 12, 58, 52
14, 200339, Note_on_c, 12, 58, 0
14, 200340, Note_on_c, 12, 57, 52
14, 200391, Note_on_c, 12, 57, 0
14, 200400, Note_on_c, 12, 55, 52
14, 200489, Note_on_c, 12, 55, 0
14, 200520, Note_on_c, 12, 48, 52
14, 200609, Note_on_c, 12, 48, 0
14, 200640, Note_on_c, 12, 53, 52
14, 200729, Note_on_c, 12, 53, 0
14, 200760, Note_on_c, 12, 55, 52
14, 200849, Note_on_c, 12, 55, 0
14, 200880, Note_on_c, 12, 57, 52
14, 200999, Note_on_c, 12, 57, 0
14, 201000, Note_on_c, 12, 58, 52
14, 201059, Note_on_c, 12, 58, 0
14, 201060, Note_on_c, 12, 57, 52
14, 201111, Note_on_c, 12, 57, 0
14, 201120, Note_on_c, 12, 55, 52
14, 201599, Note_on_c, 12, 55, 0
14, 204480, Note_on_c, 12, 53, 52
14, 204719, Note_on_c, 12, 53, 0
14, 204720, Note_on_c, 12, 50, 52
14, 204959, Note_on_c, 12, 50, 0
14, 204960, Note_on_c, 12, 52, 52
14, 205319, Note_on_c, 12, 52, 0
14, 205320, Note_on_c, 12, 48, 52
14, 205424, Note_on_c, 12, 48, 0
14, 205440, Note_on_c, 12, 53, 52
14, 205679, Note_on_c, 12, 53, 0
14, 205680, Note_on_c, 12, 50, 52
14, 205919, Note_on_c, 12, 50, 0
14, 205920, Note_on_c, 12, 52, 52
14, 206279, Note_on_c, 12, 52, 0
14, 206280, Note_on_c, 12, 48, 52
14, 206384, Note_on_c, 12, 48, 0
14, 206400, Note_on_c, 12, 53, 52
14, 207824, Note_on_c, 12, 53, 0
14, 207840, Note_on_c, 12, 52, 52
14, 208304, Note_on_c, 12, 52, 0
14, 208320, Note_on_c, 12, 53, 52
14, 208559, Note_on_c, 12, 53, 0
14, 208560, Note_on_c, 12, 57, 52
14, 208799, Note_on_c, 12, 57, 0
14, 208800, Note_on_c, 12, 55, 52
14, 209159, Note_on_c, 12, 55, 0
14, 209160, Note_on_c, 12, 53, 52
14, 209264, Note_on_c, 12, 53, 0
14, 209280, Note_on_c, 12, 58, 52
14, 209519, Note_on_c, 12, 58, 0
14, 209520, Note_on_c, 12, 57, 52
14, 209744, Note_on_c, 12, 57, 0
14, 209760, Control_c, 12, 11, 127
14, 209760, Note_on_c, 12, 48, 52
14, 209888, Control_c, 12, 11, 126
14, 210016, Control_c, 12, 11, 125
14, 210104, Note_on_c, 12, 48, 0
14, 210120, Note_on_c, 12, 48, 52
14, 210144, Control_c, 12, 11, 124
14, 210224, Note_on_c, 12, 48, 0
14, 210240, Note_on_c, 12, 48, 52
14, 210272, Control_c, 12, 11, 123
14, 210400, Control_c, 12, 11, 122
14, 210528, Control_c, 12, 11, 121
14, 210584, Note_on_c, 12, 48, 0
14, 210600, Note_on_c, 12, 48, 52
14, 210656, Control_c, 12, 11, 120
14, 210704, Note_on_c, 12, 48, 0
14, 210720, Note_on_c, 12, 48, 52
14, 210784, Control_c, 12, 11, 119
14, 210912, Control_c, 12, 11, 118
14, 211040, Control_c, 12, 11, 117
14, 211064, Note_on_c, 12, 48, 0
14, 211080, Note_on_c, 12, 48, 52
14, 211168, Control_c, 12, 11, 116
14, 211184, Note_on_c, 12, 48, 0
14, 211200, Note_on_c, 12, 48, 52
14, 211296, Control_c, 12, 11, 115
14, 211424, Control_c, 12, 11, 114
14, 211544, Note_on_c, 12, 48, 0
14, 211552, Control_c, 12, 11, 112
14, 211560, Note_on_c, 12, 48, 52
14, 211664, Note_on_c, 12, 48, 0
14, 211678, Control_c, 12, 11, 127
14, 211680, Note_on_c, 12, 48, 44
14, 211747, Note_on_c, 12, 48, 0
14, 211760, Note_on_c, 12, 60, 44
14, 211839, Note_on_c, 12, 60, 0
14, 211840, Note_on_c, 12, 58, 44
14, 211907, Note_on_c, 12, 58, 0
14, 211920, Note_on_c, 12, 57, 44
14, 211979, Note_on_c, 12, 57, 0
14, 212000, Note_on_c, 12, 55, 44
14, 212059, Note_on_c, 12, 55, 0
14, 212080, Note_on_c, 12, 53, 44
14, 212139, Note_on_c, 12, 53, 0
14, 212160, Note_on_c, 12, 52, 44
14, 212219, Note_on_c, 12, 52, 0
14, 212240, Note_on_c, 12, 60, 44
14, 212319, Note_on_c, 12, 60, 0
14, 212320, Note_on_c, 12, 58, 44
14, 212387, Note_on_c, 12, 58, 0
14, 212400, Note_on_c, 12, 57, 44
14, 212459, Note_on_c, 12, 57, 0
14, 212480, Note_on_c, 12, 55, 44
14, 212539, Note_on_c, 12, 55, 0
14, 212560, Note_on_c, 12, 53, 44
14, 212619, Note_on_c, 12, 53, 0
14, 212640, Note_on_c, 12, 52, 44
14, 212699, Note_on_c, 12, 52, 0
14, 212720, Note_on_c, 12, 60, 44
14, 212799, Note_on_c, 12, 60, 0
14, 212800, Note_on_c, 12, 58, 44
14, 212867, Note_on_c, 12, 58, 0
14, 212880, Note_on_c, 12, 57, 44
14, 212939, Note_on_c, 12, 57, 0
14, 212960, Note_on_c, 12, 55, 44
14, 213019, Note_on_c, 12, 55, 0
14, 213040, Note_on_c, 12, 53, 44
14, 213099, Note_on_c, 12, 53, 0
14, 213120, Note_on_c, 12, 52, 44
14, 213179, Note_on_c, 12, 52, 0
14, 213200, Note_on_c, 12, 60, 44
14, 213279, Note_on_c, 12, 60, 0
14, 213280, Note_on_c, 12, 58, 44
14, 213347, Note_on_c, 12, 58, 0
14, 213360, Note_on_c, 12, 57, 44
14, 213419, Note_on_c, 12, 57, 0
14, 213440, Note_on_c, 12, 55, 44
14, 213499, Note_on_c, 12, 55, 0
14, 213520, Note_on_c, 12, 53, 44
14, 213579, Note_on_c, 12, 53, 0
14, 213600, Note_on_c, 12, 48, 44
14, 213667, Note_on_c, 12, 48, 0
14, 213680, Note_on_c, 12, 60, 45
14, 213739, Note_on_c, 12, 60, 0
14, 213760, Note_on_c, 12, 58, 47
14, 213819, Note_on_c, 12, 58, 0
14, 213840, Note_on_c, 12, 57, 49
14, 213899, Note_on_c, 12, 57, 0
14, 213920, Note_on_c, 12, 55, 50
14, 213979, Note_on_c, 12, 55, 0
14, 214000, Note_on_c, 12, 53, 52
14, 214059, Note_on_c, 12, 53, 0
14, 214080, Note_on_c, 12, 52, 54
14, 214139, Note_on_c, 12, 52, 0
14, 214160, Note_on_c, 12, 57, 55
14, 214219, Note_on_c, 12, 57, 0
14, 214240, Note_on_c, 12, 55, 57
14, 214299, Note_on_c, 12, 55, 0
14, 214320, Note_on_c, 12, 53, 59
14, 214379, Note_on_c, 12, 53, 0
14, 214400, Note_on_c, 12, 52, 60
14, 214459, Note_on_c, 12, 52, 0
14, 214480, Note_on_c, 12, 50, 62
14, 214539, Note_on_c, 12, 50, 0
14, 214560, Note_on_c, 12, 48, 64
14, 214619, Note_on_c, 12, 48, 0
14, 214640, Note_on_c, 12, 65, 65
14, 214699, Note_on_c, 12, 65, 0
14, 214720, Note_on_c, 12, 64, 67
14, 214779, Note_on_c, 12, 64, 0
14, 214800, Note_on_c, 12, 62, 69
14, 214859, Note_on_c, 12, 62, 0
14, 214880, Note_on_c, 12, 60, 70
14, 214939, Note_on_c, 12, 60, 0
14, 214960, Note_on_c, 12, 58, 72
14, 215019, Note_on_c, 12, 58, 0
14, 215040, Note_on_c, 12, 57, 74
14, 215099, Note_on_c, 12, 57, 0
14, 215120, Note_on_c, 12, 62, 75
14, 215179, Note_on_c, 12, 62, 0
14, 215200, Note_on_c, 12, 60, 77
14, 215259, Note_on_c, 12, 60, 0
14, 215280, Note_on_c, 12, 58, 79
14, 215339, Note_on_c, 12, 58, 0
14, 215360, Note_on_c, 12, 57, 80
14, 215419, Note_on_c, 12, 57, 0
14, 215440, Note_on_c, 12, 55, 82
14, 215499, Note_on_c, 12, 55, 0
14, 215520, Note_on_c, 12, 53, 84
14, 215624, Note_on_c, 12, 53, 0
14, 215640, Note_on_c, 12, 60, 84
14, 215691, Note_on_c, 12, 60, 0
14, 215700, Note_on_c, 12, 48, 84
14, 215751, Note_on_c, 12, 48, 0
14, 215760, Note_on_c, 12, 60, 84
14, 215811, Note_on_c, 12, 60, 0
14, 215820, Note_on_c, 12, 48, 84
14, 215871, Note_on_c, 12, 48, 0
14, 215880, Note_on_c, 12, 60, 84
14, 215931, Note_on_c, 12, 60, 0
14, 215940, Note_on_c, 12, 48, 84
14, 215991, Note_on_c, 12, 48, 0
14, 216000, Note_on_c, 12, 60, 84
14, 216051, Note_on_c, 12, 60, 0
14, 216060, Note_on_c, 12, 48, 84
14, 216111, Note_on_c, 12, 48, 0
14, 216120, Note_on_c, 12, 60, 84
14, 216171, Note_on_c, 12, 60, 0
14, 216180, Note_on_c, 12, 48, 84
14, 216231, Note_on_c, 12, 48, 0
14, 216240, Note_on_c, 12, 60, 84
14, 216291, Note_on_c, 12, 60, 0
14, 216300, Note_on_c, 12, 48, 84
14, 216351, Note_on_c, 12, 48, 0
14, 216360, Note_on_c, 12, 60, 84
14, 216411, Note_on_c, 12, 60, 0
14, 216420, Note_on_c, 12, 48, 84
14, 216471, Note_on_c, 12, 48, 0
14, 216480, Note_on_c, 12, 60, 84
14, 216531, Note_on_c, 12, 60, 0
14, 216540, Note_on_c, 12, 48, 84
14, 216591, Note_on_c, 12, 48, 0
14, 216600, Note_on_c, 12, 60, 84
14, 216651, Note_on_c, 12, 60, 0
14, 216660, Note_on_c, 12, 48, 84
14, 216711, Note_on_c, 12, 48, 0
14, 216720, Note_on_c, 12, 60, 84
14, 216771, Note_on_c, 12, 60, 0
14, 216780, Note_on_c, 12, 48, 84
14, 216831, Note_on_c, 12, 48, 0
14, 216840, Note_on_c, 12, 60, 84
14, 216891, Note_on_c, 12, 60, 0
14, 216900, Note_on_c, 12, 48, 84
14, 216951, Note_on_c, 12, 48, 0
14, 216960, Note_on_c, 12, 60, 84
14, 217011, Note_on_c, 12, 60, 0
14, 217020, Note_on_c, 12, 48, 84
14, 217071, Note_on_c, 12, 48, 0
14, 217080, Note_on_c, 12, 60, 84
14, 217131, Note_on_c, 12, 60, 0
14, 217140, Note_on_c, 12, 48, 84
14, 217191, Note_on_c, 12, 48, 0
14, 217200, Note_on_c, 12, 60, 84
14, 217251, Note_on_c, 12, 60, 0
14, 217260, Note_on_c, 12, 48, 84
14, 217311, Note_on_c, 12, 48, 0
14, 217320, Note_on_c, 12, 60, 84
14, 217371, Note_on_c, 12, 60, 0
14, 217380, Note_on_c, 12, 48, 84
14, 217431, Note_on_c, 12, 48, 0
14, 217440, Note_on_c, 12, 60, 84
14, 217491, Note_on_c, 12, 60, 0
14, 217500, Note_on_c, 12, 48, 84
14, 217551, Note_on_c, 12, 48, 0
14, 217560, Note_on_c, 12, 60, 84
14, 217611, Note_on_c, 12, 60, 0
14, 217620, Note_on_c, 12, 48, 84
14, 217671, Note_on_c, 12, 48, 0
14, 217680, Note_on_c, 12, 60, 84
14, 217731, Note_on_c, 12, 60, 0
14, 217740, Note_on_c, 12, 48, 84
14, 217791, Note_on_c, 12, 48, 0
14, 217800, Note_on_c, 12, 60, 84
14, 217851, Note_on_c, 12, 60, 0
14, 217860, Note_on_c, 12, 48, 84
14, 217911, Note_on_c, 12, 48, 0
14, 217920, Note_on_c, 12, 60, 84
14, 217971, Note_on_c, 12, 60, 0
14, 217980, Note_on_c, 12, 48, 84
14, 218031, Note_on_c, 12, 48, 0
14, 218040, Note_on_c, 12, 60, 84
14, 218091, Note_on_c, 12, 60, 0
14, 218100, Note_on_c, 12, 48, 84
14, 218151, Note_on_c, 12, 48, 0
14, 218160, Note_on_c, 12, 60, 84
14, 218211, Note_on_c, 12, 60, 0
14, 218220, Note_on_c, 12, 48, 84
14, 218271, Note_on_c, 12, 48, 0
14, 218280, Note_on_c, 12, 60, 84
14, 218331, Note_on_c, 12, 60, 0
14, 218340, Note_on_c, 12, 48, 84
14, 218391, Note_on_c, 12, 48, 0
14, 218400, Note_on_c, 12, 60, 84
14, 218451, Note_on_c, 12, 60, 0
14, 218460, Note_on_c, 12, 48, 84
14, 218511, Note_on_c, 12, 48, 0
14, 218520, Note_on_c, 12, 60, 84
14, 218571, Note_on_c, 12, 60, 0
14, 218580, Note_on_c, 12, 48, 84
14, 218631, Note_on_c, 12, 48, 0
14, 218640, Note_on_c, 12, 60, 84
14, 218691, Note_on_c, 12, 60, 0
14, 218700, Note_on_c, 12, 48, 84
14, 218751, Note_on_c, 12, 48, 0
14, 218760, Note_on_c, 12, 60, 84
14, 218811, Note_on_c, 12, 60, 0
14, 218820, Note_on_c, 12, 48, 84
14, 218871, Note_on_c, 12, 48, 0
14, 218880, Note_on_c, 12, 60, 84
14, 218931, Note_on_c, 12, 60, 0
14, 218940, Note_on_c, 12, 48, 84
14, 218991, Note_on_c, 12, 48, 0
14, 219000, Note_on_c, 12, 60, 84
14, 219051, Note_on_c, 12, 60, 0
14, 219060, Note_on_c, 12, 48, 84
14, 219111, Note_on_c, 12, 48, 0
14, 219120, Note_on_c, 12, 60, 84
14, 219171, Note_on_c, 12, 60, 0
14, 219180, Note_on_c, 12, 48, 84
14, 219231, Note_on_c, 12, 48, 0
14, 219240, Note_on_c, 12, 60, 84
14, 219291, Note_on_c, 12, 60, 0
14, 219300, Note_on_c, 12, 48, 84
14, 219351, Note_on_c, 12, 48, 0
14, 219360, Note_on_c, 12, 60, 84
14, 219411, Note_on_c, 12, 60, 0
14, 219420, Note_on_c, 12, 48, 84
14, 219471, Note_on_c, 12, 48, 0
14, 219480, Note_on_c, 12, 60, 84
14, 219531, Note_on_c, 12, 60, 0
14, 219540, Note_on_c, 12, 48, 84
14, 219591, Note_on_c, 12, 48, 0
14, 219600, Note_on_c, 12, 60, 84
14, 219651, Note_on_c, 12, 60, 0
14, 219660, Note_on_c, 12, 48, 84
14, 219711, Note_on_c, 12, 48, 0
14, 219720, Note_on_c, 12, 60, 84
14, 219771, Note_on_c, 12, 60, 0
14, 219780, Note_on_c, 12, 48, 84
14, 219831, Note_on_c, 12, 48, 0
14, 219840, Note_on_c, 12, 60, 84
14, 219891, Note_on_c, 12, 60, 0
14, 219900, Note_on_c, 12, 48, 84
14, 219951, Note_on_c, 12, 48, 0
14, 219960, Note_on_c, 12, 60, 84
14, 220011, Note_on_c, 12, 60, 0
14, 220020, Note_on_c, 12, 48, 84
14, 220071, Note_on_c, 12, 48, 0
14, 220080, Note_on_c, 12, 60, 84
14, 220131, Note_on_c, 12, 60, 0
14, 220140, Note_on_c, 12, 48, 84
14, 220191, Note_on_c, 12, 48, 0
14, 220200, Note_on_c, 12, 60, 84
14, 220251, Note_on_c, 12, 60, 0
14, 220260, Note_on_c, 12, 48, 84
14, 220311, Note_on_c, 12, 48, 0
14, 220320, Note_on_c, 12, 60, 84
14, 220371, Note_on_c, 12, 60, 0
14, 220380, Note_on_c, 12, 48, 84
14, 220431, Note_on_c, 12, 48, 0
14, 220440, Note_on_c, 12, 60, 84
14, 220491, Note_on_c, 12, 60, 0
14, 220500, Note_on_c, 12, 48, 84
14, 220551, Note_on_c, 12, 48, 0
14, 220560, Note_on_c, 12, 60, 84
14, 220611, Note_on_c, 12, 60, 0
14, 220620, Note_on_c, 12, 48, 84
14, 220671, Note_on_c, 12, 48, 0
14, 220680, Note_on_c, 12, 60, 84
14, 220731, Note_on_c, 12, 60, 0
14, 220740, Note_on_c, 12, 48, 84
14, 220791, Note_on_c, 12, 48, 0
14, 220800, Note_on_c, 12, 60, 84
14, 220851, Note_on_c, 12, 60, 0
14, 220860, Note_on_c, 12, 48, 84
14, 220911, Note_on_c, 12, 48, 0
14, 220920, Note_on_c, 12, 60, 84
14, 220971, Note_on_c, 12, 60, 0
14, 220980, Note_on_c, 12, 48, 84
14, 221031, Note_on_c, 12, 48, 0
14, 221040, Note_on_c, 12, 60, 84
14, 221091, Note_on_c, 12, 60, 0
14, 221100, Note_on_c, 12, 48, 84
14, 221151, Note_on_c, 12, 48, 0
14, 221160, Note_on_c, 12, 60, 84
14, 221211, Note_on_c, 12, 60, 0
14, 221220, Note_on_c, 12, 48, 84
14, 221271, Note_on_c, 12, 48, 0
14, 221280, Note_on_c, 12, 60, 84
14, 221331, Note_on_c, 12, 60, 0
14, 221340, Note_on_c, 12, 48, 84
14, 221391, Note_on_c, 12, 48, 0
14, 221400, Note_on_c, 12, 60, 84
14, 221451, Note_on_c, 12, 60, 0
14, 221460, Note_on_c, 12, 48, 84
14, 221511, Note_on_c, 12, 48, 0
14, 221520, Note_on_c, 12, 60, 84
14, 221571, Note_on_c, 12, 60, 0
14, 221580, Note_on_c, 12, 48, 84
14, 221631, Note_on_c, 12, 48, 0
14, 221640, Note_on_c, 12, 60, 84
14, 221691, Note_on_c, 12, 60, 0
14, 221700, Note_on_c, 12, 48, 84
14, 221751, Note_on_c, 12, 48, 0
14, 221760, Note_on_c, 12, 60, 84
14, 221811, Note_on_c, 12, 60, 0
14, 221820, Note_on_c, 12, 48, 84
14, 221871, Note_on_c, 12, 48, 0
14, 221880, Note_on_c, 12, 60, 84
14, 221931, Note_on_c, 12, 60, 0
14, 221940, Note_on_c, 12, 48, 84
14, 221991, Note_on_c, 12, 48, 0
14, 222000, Note_on_c, 12, 60, 84
14, 222051, Note_on_c, 12, 60, 0
14, 222060, Note_on_c, 12, 48, 84
14, 222111, Note_on_c, 12, 48, 0
14, 222120, Note_on_c, 12, 60, 84
14, 222171, Note_on_c, 12, 60, 0
14, 222180, Note_on_c, 12, 48, 84
14, 222231, Note_on_c, 12, 48, 0
14, 222240, Note_on_c, 12, 60, 84
14, 222291, Note_on_c, 12, 60, 0
14, 222300, Note_on_c, 12, 48, 84
14, 222351, Note_on_c, 12, 48, 0
14, 222360, Note_on_c, 12, 60, 84
14, 222411, Note_on_c, 12, 60, 0
14, 222420, Note_on_c, 12, 48, 84
14, 222471, Note_on_c, 12, 48, 0
14, 222480, Note_on_c, 12, 60, 84
14, 222531, Note_on_c, 12, 60, 0
14, 222540, Note_on_c, 12, 48, 84
14, 222591, Note_on_c, 12, 48, 0
14, 222600, Note_on_c, 12, 60, 84
14, 222651, Note_on_c, 12, 60, 0
14, 222660, Note_on_c, 12, 48, 84
14, 222711, Note_on_c, 12, 48, 0
14, 222720, Note_on_c, 12, 60, 84
14, 222771, Note_on_c, 12, 60, 0
14, 222780, Note_on_c, 12, 48, 84
14, 222831, Note_on_c, 12, 48, 0
14, 222840, Note_on_c, 12, 60, 84
14, 222891, Note_on_c, 12, 60, 0
14, 222900, Note_on_c, 12, 48, 84
14, 222951, Note_on_c, 12, 48, 0
14, 222960, Note_on_c, 12, 60, 84
14, 223011, Note_on_c, 12, 60, 0
14, 223020, Note_on_c, 12, 48, 84
14, 223071, Note_on_c, 12, 48, 0
14, 223080, Note_on_c, 12, 60, 84
14, 223131, Note_on_c, 12, 60, 0
14, 223140, Note_on_c, 12, 48, 84
14, 223191, Note_on_c, 12, 48, 0
14, 223200, Note_on_c, 12, 53, 76
14, 223267, Note_on_c, 12, 53, 0
14, 223280, Note_on_c, 12, 53, 52
14, 223280, Note_on_c, 12, 57, 52
14, 223347, Note_on_c, 12, 53, 0
14, 223347, Note_on_c, 12, 57, 0
14, 223360, Note_on_c, 12, 53, 52
14, 223360, Note_on_c, 12, 57, 52
14, 223427, Note_on_c, 12, 53, 0
14, 223427, Note_on_c, 12, 57, 0
14, 223440, Note_on_c, 12, 57, 52
14, 223440, Note_on_c, 12, 53, 52
14, 223507, Note_on_c, 12, 57, 0
14, 223507, Note_on_c, 12, 53, 0
14, 223520, Note_on_c, 12, 57, 52
14, 223520, Note_on_c, 12, 53, 52
14, 223587, Note_on_c, 12, 57, 0
14, 223587, Note_on_c, 12, 53, 0
14, 223600, Note_on_c, 12, 53, 52
14, 223600, Note_on_c, 12, 57, 52
14, 223667, Note_on_c, 12, 53, 0
14, 223667, Note_on_c, 12, 57, 0
14, 223680, Note_on_c, 12, 57, 52
14, 223680, Note_on_c, 12, 53, 52
14, 223919, Note_on_c, 12, 57, 0
14, 223919, Note_on_c, 12, 53, 0
14, 225120, Note_on_c, 12, 57, 52
14, 225120, Note_on_c, 12, 53, 52
14, 225187, Note_on_c, 12, 57, 0
14, 225187, Note_on_c, 12, 53, 0
14, 225200, Note_on_c, 12, 53, 52
14, 225200, Note_on_c, 12, 57, 52
14, 225267, Note_on_c, 12, 53, 0
14, 225267, Note_on_c, 12, 57, 0
14, 225280, Note_on_c, 12, 53, 52
14, 225280, Note_on_c, 12, 57, 52
14, 225347, Note_on_c, 12, 53, 0
14, 225347, Note_on_c, 12, 57, 0
14, 225360, Note_on_c, 12, 53, 52
14, 225360, Note_on_c, 12, 57, 52
14, 225427, Note_on_c, 12, 53, 0
14, 225427, Note_on_c, 12, 57, 0
14, 225440, Note_on_c, 12, 53, 52
14, 225440, Note_on_c, 12, 57, 52
14, 225507, Note_on_c, 12, 53, 0
14, 225507, Note_on_c, 12, 57, 0
14, 225520, Note_on_c, 12, 57, 52
14, 225520, Note_on_c, 12, 53, 52
14, 225587, Note_on_c, 12, 57, 0
14, 225587, Note_on_c, 12, 53, 0
14, 225600, Note_on_c, 12, 57, 52
14, 225600, Note_on_c, 12, 53, 52
14, 225839, Note_on_c, 12, 57, 0
14, 225839, Note_on_c, 12, 53, 0
14, 227040, Note_on_c, 12, 57, 52
14, 227040, Note_on_c, 12, 53, 52
14, 227107, Note_on_c, 12, 57, 0
14, 227107, Note_on_c, 12, 53, 0
14, 227120, Note_on_c, 12, 53, 52
14, 227120, Note_on_c, 12, 57, 52
14, 227187, Note_on_c, 12, 53, 0
14, 227187, Note_on_c, 12, 57, 0
14, 227200, Note_on_c, 12, 53, 52
14, 227200, Note_on_c, 12, 57, 52
14, 227267, Note_on_c, 12, 53, 0
14, 227267, Note_on_c, 12, 57, 0
14, 227280, Note_on_c, 12, 57, 52
14, 227280, Note_on_c, 12, 53, 52
14, 227347, Note_on_c, 12, 57, 0
14, 227347, Note_on_c, 12, 53, 0
14, 227360, Note_on_c, 12, 53, 52
14, 227360, Note_on_c, 12, 57, 52
14, 227427, Note_on_c, 12, 53, 0
14, 227427, Note_on_c, 12, 57, 0
14, 227440, Note_on_c, 12, 53, 52
14, 227440, Note_on_c, 12, 57, 52
14, 227507, Note_on_c, 12, 53, 0
14, 227507, Note_on_c, 12, 57, 0
14, 227520, Note_on_c, 12, 53, 52
14, 227520, Note_on_c, 12, 57, 52
14, 227759, Note_on_c, 12, 53, 0
14, 227759, Note_on_c, 12, 57, 0
14, 228000, Note_on_c, 12, 50, 52
14, 228000, Note_on_c, 12, 53, 52
14, 228067, Note_on_c, 12, 50, 0
14, 228067, Note_on_c, 12, 53, 0
14, 228080, Note_on_c, 12, 50, 52
14, 228080, Note_on_c, 12, 53, 52
14, 228147, Note_on_c, 12, 50, 0
14, 228147, Note_on_c, 12, 53, 0
14, 228160, Note_on_c, 12, 53, 52
14, 228160, Note_on_c, 12, 50, 52
14, 228227, Note_on_c, 12, 53, 0
14, 228227, Note_on_c, 12, 50, 0
14, 228240, Note_on_c, 12, 50, 52
14, 228240, Note_on_c, 12, 53, 52
14, 228307, Note_on_c, 12, 50, 0
14, 228307, Note_on_c, 12, 53, 0
14, 228320, Note_on_c, 12, 53, 52
14, 228320, Note_on_c, 12, 50, 52
14, 228387, Note_on_c, 12, 53, 0
14, 228387, Note_on_c, 12, 50, 0
14, 228400, Note_on_c, 12, 53, 52
14, 228400, Note_on_c, 12, 50, 52
14, 228467, Note_on_c, 12, 53, 0
14, 228467, Note_on_c, 12, 50, 0
14, 228480, Note_on_c, 12, 50, 52
14, 228480, Note_on_c, 12, 53, 52
14, 228719, Note_on_c, 12, 50, 0
14, 228719, Note_on_c, 12, 53, 0
14, 228960, Note_on_c, 12, 52, 52
14, 228960, Note_on_c, 12, 48, 52
14, 229027, Note_on_c, 12, 52, 0
14, 229027, Note_on_c, 12, 48, 0
14, 229040, Note_on_c, 12, 48, 52
14, 229040, Note_on_c, 12, 52, 52
14, 229107, Note_on_c, 12, 48, 0
14, 229107, Note_on_c, 12, 52, 0
14, 229120, Note_on_c, 12, 52, 52
14, 229120, Note_on_c, 12, 48, 52
14, 229187, Note_on_c, 12, 52, 0
14, 229187, Note_on_c, 12, 48, 0
14, 229200, Note_on_c, 12, 52, 52
14, 229200, Note_on_c, 12, 48, 52
14, 229267, Note_on_c, 12, 52, 0
14, 229267, Note_on_c, 12, 48, 0
14, 229280, Note_on_c, 12, 48, 52
14, 229280, Note_on_c, 12, 52, 52
14, 229347, Note_on_c, 12, 48, 0
14, 229347, Note_on_c, 12, 52, 0
14, 229360, Note_on_c, 12, 48, 52
14, 229360, Note_on_c, 12, 52, 52
14, 229427, Note_on_c, 12, 48, 0
14, 229427, Note_on_c, 12, 52, 0
14, 229440, Note_on_c, 12, 48, 52
14, 229440, Note_on_c, 12, 52, 52
14, 229679, Note_on_c, 12, 48, 0
14, 229679, Note_on_c, 12, 52, 0
14, 231840, Note_on_c, 12, 58, 52
14, 231959, Note_on_c, 12, 58, 0
14, 231960, Note_on_c, 12, 55, 52
14, 232079, Note_on_c, 12, 55, 0
14, 232080, Note_on_c, 12, 58, 52
14, 232199, Note_on_c, 12, 58, 0
14, 232200, Note_on_c, 12, 55, 52
14, 232319, Note_on_c, 12, 55, 0
14, 232320, Note_on_c, 12, 58, 52
14, 232439, Note_on_c, 12, 58, 0
14, 232440, Note_on_c, 12, 55, 52
14, 232559, Note_on_c, 12, 55, 0
14, 232560, Note_on_c, 12, 58, 52
14, 232679, Note_on_c, 12, 58, 0
14, 232680, Note_on_c, 12, 55, 52
14, 232784, Note_on_c, 12, 55, 0
14, 232800, Note_on_c, 12, 57, 52
14, 232919, Note_on_c, 12, 57, 0
14, 232920, Note_on_c, 12, 53, 52
14, 233039, Note_on_c, 12, 53, 0
14, 233040, Note_on_c, 12, 57, 52
14, 233159, Note_on_c, 12, 57, 0
14, 233160, Note_on_c, 12, 53, 52
14, 233279, Note_on_c, 12, 53, 0
14, 233280, Note_on_c, 12, 57, 52
14, 233399, Note_on_c, 12, 57, 0
14, 233400, Note_on_c, 12, 53, 52
14, 233519, Note_on_c, 12, 53, 0
14, 233520, Note_on_c, 12, 57, 52
14, 233639, Note_on_c, 12, 57, 0
14, 233640, Note_on_c, 12, 53, 52
14, 233744, Note_on_c, 12, 53, 0
14, 233760, Note_on_c, 12, 58, 52
14, 233879, Note_on_c, 12, 58, 0
14, 233880, Note_on_c, 12, 55, 52
14, 233999, Note_on_c, 12, 55, 0
14, 234000, Note_on_c, 12, 58, 52
14, 234119, Note_on_c, 12, 58, 0
14, 234120, Note_on_c, 12, 55, 52
14, 234239, Note_on_c, 12, 55, 0
14, 234240, Note_on_c, 12, 58, 52
14, 234359, Note_on_c, 12, 58, 0
14, 234360, Note_on_c, 12, 55, 52
14, 234479, Note_on_c, 12, 55, 0
14, 234480, Note_on_c, 12, 58, 52
14, 234599, Note_on_c, 12, 58, 0
14, 234600, Note_on_c, 12, 55, 52
14, 234704, Note_on_c, 12, 55, 0
14, 234720, Note_on_c, 12, 57, 52
14, 234839, Note_on_c, 12, 57, 0
14, 234840, Note_on_c, 12, 53, 52
14, 234959, Note_on_c, 12, 53, 0
14, 234960, Note_on_c, 12, 57, 52
14, 235079, Note_on_c, 12, 57, 0
14, 235080, Note_on_c, 12, 53, 52
14, 235199, Note_on_c, 12, 53, 0
14, 235200, Note_on_c, 12, 57, 52
14, 235319, Note_on_c, 12, 57, 0
14, 235320, Note_on_c, 12, 53, 52
14, 235439, Note_on_c, 12, 53, 0
14, 235440, Note_on_c, 12, 57, 52
14, 235559, Note_on_c, 12, 57, 0
14, 235560, Note_on_c, 12, 53, 52
14, 235664, Note_on_c, 12, 53, 0
14, 235680, Note_on_c, 12, 55, 52
14, 235799, Note_on_c, 12, 55, 0
14, 235800, Note_on_c, 12, 58, 52
14, 235919, Note_on_c, 12, 58, 0
14, 235920, Note_on_c, 12, 55, 52
14, 236039, Note_on_c, 12, 55, 0
14, 236040, Note_on_c, 12, 58, 53
14, 236159, Note_on_c, 12, 58, 0
14, 236160, Note_on_c, 12, 55, 53
14, 236279, Note_on_c, 12, 55, 0
14, 236280, Note_on_c, 12, 58, 53
14, 236399, Note_on_c, 12, 58, 0
14, 236400, Note_on_c, 12, 55, 54
14, 236519, Note_on_c, 12, 55, 0
14, 236520, Note_on_c, 12, 58, 54
14, 236624, Note_on_c, 12, 58, 0
14, 236640, Note_on_c, 12, 57, 54
14, 236759, Note_on_c, 12, 57, 0
14, 236760, Note_on_c, 12, 60, 55
14, 236879, Note_on_c, 12, 60, 0
14, 236880, Note_on_c, 12, 57, 55
14, 236999, Note_on_c, 12, 57, 0
14, 237000, Note_on_c, 12, 60, 55
14, 237119, Note_on_c, 12, 60, 0
14, 237120, Note_on_c, 12, 57, 56
14, 237239, Note_on_c, 12, 57, 0
14, 237240, Note_on_c, 12, 60, 56
14, 237359, Note_on_c, 12, 60, 0
14, 237360, Note_on_c, 12, 57, 56
14, 237479, Note_on_c, 12, 57, 0
14, 237480, Note_on_c, 12, 60, 57
14, 237584, Note_on_c, 12, 60, 0
14, 237600, Note_on_c, 12, 60, 57
14, 237719, Note_on_c, 12, 60, 0
14, 237720, Note_on_c, 12, 67, 57
14, 237839, Note_on_c, 12, 67, 0
14, 237840, Note_on_c, 12, 60, 58
14, 237959, Note_on_c, 12, 60, 0
14, 237960, Note_on_c, 12, 67, 58
14, 238079, Note_on_c, 12, 67, 0
14, 238080, Note_on_c, 12, 60, 58
14, 238199, Note_on_c, 12, 60, 0
14, 238200, Note_on_c, 12, 67, 59
14, 238319, Note_on_c, 12, 67, 0
14, 238320, Note_on_c, 12, 60, 59
14, 238439, Note_on_c, 12, 60, 0
14, 238440, Note_on_c, 12, 67, 59
14, 238544, Note_on_c, 12, 67, 0
14, 238560, Note_on_c, 12, 60, 60
14, 238679, Note_on_c, 12, 60, 0
14, 238680, Note_on_c, 12, 69, 60
14, 238799, Note_on_c, 12, 69, 0
14, 238800, Note_on_c, 12, 60, 60
14, 238919, Note_on_c, 12, 60, 0
14, 238920, Note_on_c, 12, 69, 61
14, 239039, Note_on_c, 12, 69, 0
14, 239040, Note_on_c, 12, 60, 61
14, 239159, Note_on_c, 12, 60, 0
14, 239160, Note_on_c, 12, 69, 61
14, 239279, Note_on_c, 12, 69, 0
14, 239280, Note_on_c, 12, 60, 62
14, 239399, Note_on_c, 12, 60, 0
14, 239400, Note_on_c, 12, 69, 62
14, 239504, Note_on_c, 12, 69, 0
14, 239520, Note_on_c, 12, 70, 62
14, 239599, Note_on_c, 12, 70, 0
14, 239600, Note_on_c, 12, 67, 62
14, 239679, Note_on_c, 12, 67, 0
14, 239680, Note_on_c, 12, 70, 63
14, 239759, Note_on_c, 12, 70, 0
14, 239760, Note_on_c, 12, 67, 63
14, 239839, Note_on_c, 12, 67, 0
14, 239840, Note_on_c, 12, 70, 63
14, 239919, Note_on_c, 12, 70, 0
14, 239920, Note_on_c, 12, 67, 63
14, 239999, Note_on_c, 12, 67, 0
14, 240000, Note_on_c, 12, 70, 64
14, 240079, Note_on_c, 12, 70, 0
14, 240080, Note_on_c, 12, 67, 64
14, 240159, Note_on_c, 12, 67, 0
14, 240160, Note_on_c, 12, 70, 64
14, 240239, Note_on_c, 12, 70, 0
14, 240240, Note_on_c, 12, 67, 64
14, 240319, Note_on_c, 12, 67, 0
14, 240320, Note_on_c, 12, 70, 64
14, 240399, Note_on_c, 12, 70, 0
14, 240400, Note_on_c, 12, 67, 65
14, 240467, Note_on_c, 12, 67, 0
14, 240480, Note_on_c, 12, 72, 65
14, 240559, Note_on_c, 12, 72, 0
14, 240560, Note_on_c, 12, 69, 65
14, 240639, Note_on_c, 12, 69, 0
14, 240640, Note_on_c, 12, 72, 65
14, 240719, Note_on_c, 12, 72, 0
14, 240720, Note_on_c, 12, 69, 66
14, 240799, Note_on_c, 12, 69, 0
14, 240800, Note_on_c, 12, 72, 66
14, 240879, Note_on_c, 12, 72, 0
14, 240880, Note_on_c, 12, 69, 66
14, 240959, Note_on_c, 12, 69, 0
14, 240960, Note_on_c, 12, 72, 66
14, 241039, Note_on_c, 12, 72, 0
14, 241040, Note_on_c, 12, 69, 66
14, 241119, Note_on_c, 12, 69, 0
14, 241120, Note_on_c, 12, 72, 67
14, 241199, Note_on_c, 12, 72, 0
14, 241200, Note_on_c, 12, 69, 67
14, 241279, Note_on_c, 12, 69, 0
14, 241280, Note_on_c, 12, 72, 67
14, 241359, Note_on_c, 12, 72, 0
14, 241360, Note_on_c, 12, 69, 67
14, 241427, Note_on_c, 12, 69, 0
14, 241440, Note_on_c, 12, 60, 68
14, 241440, Note_on_c, 12, 72, 68
14, 241499, Note_on_c, 12, 60, 0
14, 241499, Note_on_c, 12, 72, 0
14, 241500, Note_on_c, 12, 70, 68
14, 241500, Note_on_c, 12, 58, 68
14, 241559, Note_on_c, 12, 70, 0
14, 241559, Note_on_c, 12, 58, 0
14, 241560, Note_on_c, 12, 72, 68
14, 241560, Note_on_c, 12, 60, 68
14, 241619, Note_on_c, 12, 72, 0
14, 241619, Note_on_c, 12, 60, 0
14, 241620, Note_on_c, 12, 70, 68
14, 241620, Note_on_c, 12, 58, 68
14, 241679, Note_on_c, 12, 70, 0
14, 241679, Note_on_c, 12, 58, 0
14, 241680, Note_on_c, 12, 60, 68
14, 241680, Note_on_c, 12, 72, 68
14, 241739, Note_on_c, 12, 60, 0
14, 241739, Note_on_c, 12, 72, 0
14, 241740, Note_on_c, 12, 58, 68
14, 241740, Note_on_c, 12, 70, 68
14, 241799, Note_on_c, 12, 58, 0
14, 241799, Note_on_c, 12, 70, 0
14, 241800, Note_on_c, 12, 60, 69
14, 241800, Note_on_c, 12, 72, 69
14, 241859, Note_on_c, 12, 60, 0
14, 241859, Note_on_c, 12, 72, 0
14, 241860, Note_on_c, 12, 70, 69
14, 241860, Note_on_c, 12, 58, 69
14, 241919, Note_on_c, 12, 70, 0
14, 241919, Note_on_c, 12, 58, 0
14, 241920, Note_on_c, 12, 60, 69
14, 241920, Note_on_c, 12, 72, 69
14, 241979, Note_on_c, 12, 60, 0
14, 241979, Note_on_c, 12, 72, 0
14, 241980, Note_on_c, 12, 58, 69
14, 241980, Note_on_c, 12, 70, 69
14, 242039, Note_on_c, 12, 58, 0
14, 242039, Note_on_c, 12, 70, 0
14, 242040, Note_on_c, 12, 72, 69
14, 242040, Note_on_c, 12, 60, 69
14, 242099, Note_on_c, 12, 72, 0
14, 242099, Note_on_c, 12, 60, 0
14, 242100, Note_on_c, 12, 70, 69
14, 242100, Note_on_c, 12, 58, 69
14, 242159, Note_on_c, 12, 70, 0
14, 242159, Note_on_c, 12, 58, 0
14, 242160, Note_on_c, 12, 72, 70
14, 242160, Note_on_c, 12, 60, 70
14, 242219, Note_on_c, 12, 72, 0
14, 242219, Note_on_c, 12, 60, 0
14, 242220, Note_on_c, 12, 58, 70
14, 242220, Note_on_c, 12, 70, 70
14, 242279, Note_on_c, 12, 58, 0
14, 242279, Note_on_c, 12, 70, 0
14, 242280, Note_on_c, 12, 60, 70
14, 242280, Note_on_c, 12, 72, 70
14, 242339, Note_on_c, 12, 60, 0
14, 242339, Note_on_c, 12, 72, 0
14, 242340, Note_on_c, 12, 58, 70
14, 242340, Note_on_c, 12, 70, 70
14, 242391, Note_on_c, 12, 58, 0
14, 242391, Note_on_c, 12, 70, 0
14, 242400, Note_on_c, 12, 60, 70
14, 242400, Note_on_c, 12, 72, 70
14, 242459, Note_on_c, 12, 60, 0
14, 242459, Note_on_c, 12, 72, 0
14, 242460, Note_on_c, 12, 57, 70
14, 242460, Note_on_c, 12, 69, 70
14, 242519, Note_on_c, 12, 57, 0
14, 242519, Note_on_c, 12, 69, 0
14, 242520, Note_on_c, 12, 60, 71
14, 242520, Note_on_c, 12, 72, 71
14, 242579, Note_on_c, 12, 60, 0
14, 242579, Note_on_c, 12, 72, 0
14, 242580, Note_on_c, 12, 57, 71
14, 242580, Note_on_c, 12, 69, 71
14, 242639, Note_on_c, 12, 57, 0
14, 242639, Note_on_c, 12, 69, 0
14, 242640, Note_on_c, 12, 72, 71
14, 242640, Note_on_c, 12, 60, 71
14, 242699, Note_on_c, 12, 72, 0
14, 242699, Note_on_c, 12, 60, 0
14, 242700, Note_on_c, 12, 57, 71
14, 242700, Note_on_c, 12, 69, 71
14, 242759, Note_on_c, 12, 57, 0
14, 242759, Note_on_c, 12, 69, 0
14, 242760, Note_on_c, 12, 60, 71
14, 242760, Note_on_c, 12, 72, 71
14, 242819, Note_on_c, 12, 60, 0
14, 242819, Note_on_c, 12, 72, 0
14, 242820, Note_on_c, 12, 57, 71
14, 242820, Note_on_c, 12, 69, 71
14, 242879, Note_on_c, 12, 57, 0
14, 242879, Note_on_c, 12, 69, 0
14, 242880, Note_on_c, 12, 60, 72
14, 242880, Note_on_c, 12, 72, 72
14, 242939, Note_on_c, 12, 60, 0
14, 242939, Note_on_c, 12, 72, 0
14, 242940, Note_on_c, 12, 69, 72
14, 242940, Note_on_c, 12, 57, 72
14, 242999, Note_on_c, 12, 69, 0
14, 242999, Note_on_c, 12, 57, 0
14, 243000, Note_on_c, 12, 60, 72
14, 243000, Note_on_c, 12, 72, 72
14, 243059, Note_on_c, 12, 60, 0
14, 243059, Note_on_c, 12, 72, 0
14, 243060, Note_on_c, 12, 57, 72
14, 243060, Note_on_c, 12, 69, 72
14, 243119, Note_on_c, 12, 57, 0
14, 243119, Note_on_c, 12, 69, 0
14, 243120, Note_on_c, 12, 60, 72
14, 243120, Note_on_c, 12, 72, 72
14, 243179, Note_on_c, 12, 60, 0
14, 243179, Note_on_c, 12, 72, 0
14, 243180, Note_on_c, 12, 69, 72
14, 243180, Note_on_c, 12, 57, 72
14, 243239, Note_on_c, 12, 69, 0
14, 243239, Note_on_c, 12, 57, 0
14, 243240, Note_on_c, 12, 72, 73
14, 243240, Note_on_c, 12, 60, 73
14, 243299, Note_on_c, 12, 72, 0
14, 243299, Note_on_c, 12, 60, 0
14, 243300, Note_on_c, 12, 57, 73
14, 243300, Note_on_c, 12, 69, 73
14, 243351, Note_on_c, 12, 57, 0
14, 243351, Note_on_c, 12, 69, 0
14, 243360, Note_on_c, 12, 72, 73
14, 243360, Note_on_c, 12, 60, 73
14, 243419, Note_on_c, 12, 72, 0
14, 243419, Note_on_c, 12, 60, 0
14, 243420, Note_on_c, 12, 70, 73
14, 243420, Note_on_c, 12, 58, 73
14, 243479, Note_on_c, 12, 70, 0
14, 243479, Note_on_c, 12, 58, 0
14, 243480, Note_on_c, 12, 52, 73
14, 243480, Note_on_c, 12, 64, 73
14, 243539, Note_on_c, 12, 52, 0
14, 243539, Note_on_c, 12, 64, 0
14, 243540, Note_on_c, 12, 48, 73
14, 243540, Note_on_c, 12, 60, 73
14, 243599, Note_on_c, 12, 48, 0
14, 243599, Note_on_c, 12, 60, 0
14, 243600, Note_on_c, 12, 52, 74
14, 243600, Note_on_c, 12, 64, 74
14, 243659, Note_on_c, 12, 52, 0
14, 243659, Note_on_c, 12, 64, 0
14, 243660, Note_on_c, 12, 48, 74
14, 243660, Note_on_c, 12, 60, 74
14, 243719, Note_on_c, 12, 48, 0
14, 243719, Note_on_c, 12, 60, 0
14, 243720, Note_on_c, 12, 64, 74
14, 243720, Note_on_c, 12, 52, 74
14, 243779, Note_on_c, 12, 64, 0
14, 243779, Note_on_c, 12, 52, 0
14, 243780, Note_on_c, 12, 60, 74
14, 243780, Note_on_c, 12, 48, 74
14, 243831, Note_on_c, 12, 60, 0
14, 243831, Note_on_c, 12, 48, 0
14, 243840, Note_on_c, 12, 64, 74
14, 243840, Note_on_c, 12, 52, 74
14, 243899, Note_on_c, 12, 64, 0
14, 243899, Note_on_c, 12, 52, 0
14, 243900, Note_on_c, 12, 48, 74
14, 243900, Note_on_c, 12, 60, 74
14, 243959, Note_on_c, 12, 48, 0
14, 243959, Note_on_c, 12, 60, 0
14, 243960, Note_on_c, 12, 52, 75
14, 243960, Note_on_c, 12, 64, 75
14, 244019, Note_on_c, 12, 52, 0
14, 244019, Note_on_c, 12, 64, 0
14, 244020, Note_on_c, 12, 60, 75
14, 244020, Note_on_c, 12, 48, 75
14, 244079, Note_on_c, 12, 60, 0
14, 244079, Note_on_c, 12, 48, 0
14, 244080, Note_on_c, 12, 52, 75
14, 244080, Note_on_c, 12, 64, 75
14, 244139, Note_on_c, 12, 52, 0
14, 244139, Note_on_c, 12, 64, 0
14, 244140, Note_on_c, 12, 60, 75
14, 244140, Note_on_c, 12, 48, 75
14, 244199, Note_on_c, 12, 60, 0
14, 244199, Note_on_c, 12, 48, 0
14, 244200, Note_on_c, 12, 52, 75
14, 244200, Note_on_c, 12, 64, 75
14, 244259, Note_on_c, 12, 52, 0
14, 244259, Note_on_c, 12, 64, 0
14, 244260, Note_on_c, 12, 48, 75
14, 244260, Note_on_c, 12, 60, 75
14, 244311, Note_on_c, 12, 48, 0
14, 244311, Note_on_c, 12, 60, 0
14, 244320, Note_on_c, 12, 57, 76
14, 244320, Note_on_c, 12, 60, 76
14, 244679, Note_on_c, 12, 57, 0
14, 244679, Note_on_c, 12, 60, 0
14, 244680, Note_on_c, 12, 62, 76
14, 244680, Note_on_c, 12, 58, 76
14, 244739, Note_on_c, 12, 62, 0
14, 244739, Note_on_c, 12, 58, 0
14, 244740, Note_on_c, 12, 60, 76
14, 244740, Note_on_c, 12, 64, 76
14, 244791, Note_on_c, 12, 60, 0
14, 244791, Note_on_c, 12, 64, 0
14, 244800, Note_on_c, 12, 62, 76
14, 244800, Note_on_c, 12, 65, 76
14, 244919, Note_on_c, 12, 62, 0
14, 244919, Note_on_c, 12, 65, 0
14, 244920, Note_on_c, 12, 64, 76
14, 244920, Note_on_c, 12, 60, 76
14, 244979, Note_on_c, 12, 64, 0
14, 244979, Note_on_c, 12, 60, 0
14, 244980, Note_on_c, 12, 62, 76
14, 244980, Note_on_c, 12, 58, 76
14, 245039, Note_on_c, 12, 62, 0
14, 245039, Note_on_c, 12, 58, 0
14, 245040, Note_on_c, 12, 57, 76
14, 245040, Note_on_c, 12, 60, 76
14, 245159, Note_on_c, 12, 57, 0
14, 245159, Note_on_c, 12, 60, 0
14, 245160, Note_on_c, 12, 58, 76
14, 245160, Note_on_c, 12, 62, 76
14, 245219, Note_on_c, 12, 58, 0
14, 245219, Note_on_c, 12, 62, 0
14, 245220, Note_on_c, 12, 64, 76
14, 245220, Note_on_c, 12, 60, 76
14, 245271, Note_on_c, 12, 64, 0
14, 245271, Note_on_c, 12, 60, 0
14, 245280, Note_on_c, 12, 62, 76
14, 245280, Note_on_c, 12, 65, 76
14, 245399, Note_on_c, 12, 62, 0
14, 245399, Note_on_c, 12, 65, 0
14, 245400, Note_on_c, 12, 64, 76
14, 245400, Note_on_c, 12, 60, 76
14, 245459, Note_on_c, 12, 64, 0
14, 245459, Note_on_c, 12, 60, 0
14, 245460, Note_on_c, 12, 62, 76
14, 245460, Note_on_c, 12, 58, 76
14, 245519, Note_on_c, 12, 62, 0
14, 245519, Note_on_c, 12, 58, 0
14, 245520, Note_on_c, 12, 60, 76
14, 245520, Note_on_c, 12, 57, 76
14, 245639, Note_on_c, 12, 60, 0
14, 245639, Note_on_c, 12, 57, 0
14, 245640, Note_on_c, 12, 58, 76
14, 245640, Note_on_c, 12, 62, 76
14, 245699, Note_on_c, 12, 58, 0
14, 245699, Note_on_c, 12, 62, 0
14, 245700, Note_on_c, 12, 64, 76
14, 245700, Note_on_c, 12, 60, 76
14, 245751, Note_on_c, 12, 64, 0
14, 245751, Note_on_c, 12, 60, 0
14, 245760, Note_on_c, 12, 65, 76
14, 245760, Note_on_c, 12, 62, 76
14, 245879, Note_on_c, 12, 65, 0
14, 245879, Note_on_c, 12, 62, 0
14, 246240, Note_on_c, 12, 58, 52
14, 246359, Note_on_c, 12, 58, 0
14, 246360, Note_on_c, 12, 53, 52
14, 246479, Note_on_c, 12, 53, 0
14, 246480, Note_on_c, 12, 58, 52
14, 246599, Note_on_c, 12, 58, 0
14, 246600, Note_on_c, 12, 53, 52
14, 246719, Note_on_c, 12, 53, 0
14, 246720, Note_on_c, 12, 57, 52
14, 246839, Note_on_c, 12, 57, 0
14, 246840, Note_on_c, 12, 53, 52
14, 246959, Note_on_c, 12, 53, 0
14, 246960, Note_on_c, 12, 57, 52
14, 247079, Note_on_c, 12, 57, 0
14, 247080, Note_on_c, 12, 53, 52
14, 247199, Note_on_c, 12, 53, 0
14, 247200, Note_on_c, 12, 58, 52
14, 247319, Note_on_c, 12, 58, 0
14, 247320, Note_on_c, 12, 55, 52
14, 247439, Note_on_c, 12, 55, 0
14, 247440, Note_on_c, 12, 58, 52
14, 247559, Note_on_c, 12, 58, 0
14, 247560, Note_on_c, 12, 55, 52
14, 247664, Note_on_c, 12, 55, 0
14, 247680, Note_on_c, 12, 57, 84
14, 247680, Note_on_c, 12, 60, 84
14, 248039, Note_on_c, 12, 57, 0
14, 248039, Note_on_c, 12, 60, 0
14, 248040, Note_on_c, 12, 62, 84
14, 248040, Note_on_c, 12, 58, 84
14, 248099, Note_on_c, 12, 62, 0
14, 248099, Note_on_c, 12, 58, 0
14, 248100, Note_on_c, 12, 60, 84
14, 248100, Note_on_c, 12, 64, 84
14, 248151, Note_on_c, 12, 60, 0
14, 248151, Note_on_c, 12, 64, 0
14, 248160, Note_on_c, 12, 62, 84
14, 248160, Note_on_c, 12, 65, 84
14, 248279, Note_on_c, 12, 62, 0
14, 248279, Note_on_c, 12, 65, 0
14, 248280, Note_on_c, 12, 64, 84
14, 248280, Note_on_c, 12, 60, 84
14, 248339, Note_on_c, 12, 64, 0
14, 248339, Note_on_c, 12, 60, 0
14, 248340, Note_on_c, 12, 62, 84
14, 248340, Note_on_c, 12, 58, 84
14, 248399, Note_on_c, 12, 62, 0
14, 248399, Note_on_c, 12, 58, 0
14, 248400, Note_on_c, 12, 60, 84
14, 248400, Note_on_c, 12, 57, 84
14, 248519, Note_on_c, 12, 60, 0
14, 248519, Note_on_c, 12, 57, 0
14, 248520, Note_on_c, 12, 62, 84
14, 248520, Note_on_c, 12, 58, 84
14, 248579, Note_on_c, 12, 62, 0
14, 248579, Note_on_c, 12, 58, 0
14, 248580, Note_on_c, 12, 60, 84
14, 248580, Note_on_c, 12, 64, 84
14, 248631, Note_on_c, 12, 60, 0
14, 248631, Note_on_c, 12, 64, 0
14, 248640, Note_on_c, 12, 62, 84
14, 248640, Note_on_c, 12, 65, 84
14, 248759, Note_on_c, 12, 62, 0
14, 248759, Note_on_c, 12, 65, 0
14, 248760, Note_on_c, 12, 60, 84
14, 248760, Note_on_c, 12, 64, 84
14, 248819, Note_on_c, 12, 60, 0
14, 248819, Note_on_c, 12, 64, 0
14, 248820, Note_on_c, 12, 58, 84
14, 248820, Note_on_c, 12, 62, 84
14, 248879, Note_on_c, 12, 58, 0
14, 248879, Note_on_c, 12, 62, 0
14, 248880, Note_on_c, 12, 57, 84
14, 248880, Note_on_c, 12, 60, 84
14, 248999, Note_on_c, 12, 57, 0
14, 248999, Note_on_c, 12, 60, 0
14, 249000, Note_on_c, 12, 58, 84
14, 249000, Note_on_c, 12, 62, 84
14, 249059, Note_on_c, 12, 58, 0
14, 249059, Note_on_c, 12, 62, 0
14, 249060, Note_on_c, 12, 64, 84
14, 249060, Note_on_c, 12, 60, 84
14, 249111, Note_on_c, 12, 64, 0
14, 249111, Note_on_c, 12, 60, 0
14, 249120, Note_on_c, 12, 65, 76
14, 249120, Note_on_c, 12, 62, 76
14, 249239, Note_on_c, 12, 65, 0
14, 249239, Note_on_c, 12, 62, 0
14, 249600, Note_on_c, 12, 58, 52
14, 249719, Note_on_c, 12, 58, 0
14, 249720, Note_on_c, 12, 53, 52
14, 249839, Note_on_c, 12, 53, 0
14, 249840, Note_on_c, 12, 58, 52
14, 249959, Note_on_c, 12, 58, 0
14, 249960, Note_on_c, 12, 53, 52
14, 250079, Note_on_c, 12, 53, 0
14, 250080, Note_on_c, 12, 57, 52
14, 250199, Note_on_c, 12, 57, 0
14, 250200, Note_on_c, 12, 53, 52
14, 250319, Note_on_c, 12, 53, 0
14, 250320, Note_on_c, 12, 57, 52
14, 250439, Note_on_c, 12, 57, 0
14, 250440, Note_on_c, 12, 53, 52
14, 250559, Note_on_c, 12, 53, 0
14, 250560, Note_on_c, 12, 58, 52
14, 250679, Note_on_c, 12, 58, 0
14, 250680, Note_on_c, 12, 55, 52
14, 250799, Note_on_c, 12, 55, 0
14, 250800, Note_on_c, 12, 58, 52
14, 250919, Note_on_c, 12, 58, 0
14, 250920, Note_on_c, 12, 55, 52
14, 251039, Note_on_c, 12, 55, 0
14, 251040, Note_on_c, 12, 57, 52
14, 251144, Note_on_c, 12, 57, 0
14, 251160, Note_on_c, 12, 53, 52
14, 251160, Note_on_c, 12, 57, 52
14, 251279, Note_on_c, 12, 53, 0
14, 251279, Note_on_c, 12, 57, 0
14, 251280, Note_on_c, 12, 55, 53
14, 251280, Note_on_c, 12, 58, 53
14, 251399, Note_on_c, 12, 55, 0
14, 251399, Note_on_c, 12, 58, 0
14, 251400, Note_on_c, 12, 57, 55
14, 251400, Note_on_c, 12, 60, 55
14, 251504, Note_on_c, 12, 57, 0
14, 251504, Note_on_c, 12, 60, 0
14, 251520, Note_on_c, 12, 58, 56
14, 251639, Note_on_c, 12, 58, 0
14, 251640, Note_on_c, 12, 53, 58
14, 251759, Note_on_c, 12, 53, 0
14, 251760, Note_on_c, 12, 58, 60
14, 251879, Note_on_c, 12, 58, 0
14, 251880, Note_on_c, 12, 53, 61
14, 251999, Note_on_c, 12, 53, 0
14, 252000, Note_on_c, 12, 57, 63
14, 252119, Note_on_c, 12, 57, 0
14, 252120, Note_on_c, 12, 53, 64
14, 252239, Note_on_c, 12, 53, 0
14, 252240, Note_on_c, 12, 57, 66
14, 252359, Note_on_c, 12, 57, 0
14, 252360, Note_on_c, 12, 53, 68
14, 252479, Note_on_c, 12, 53, 0
14, 252480, Note_on_c, 12, 58, 69
14, 252599, Note_on_c, 12, 58, 0
14, 252600, Note_on_c, 12, 55, 71
14, 252719, Note_on_c, 12, 55, 0
14, 252720, Note_on_c, 12, 58, 72
14, 252839, Note_on_c, 12, 58, 0
14, 252840, Note_on_c, 12, 55, 74
14, 252944, Note_on_c, 12, 55, 0
14, 252960, Note_on_c, 12, 57, 76
14, 252960, Note_on_c, 12, 53, 76
14, 253027, Note_on_c, 12, 57, 0
14, 253027, Note_on_c, 12, 53, 0
14, 253040, Note_on_c, 12, 60, 76
14, 253040, Note_on_c, 12, 57, 76
14, 253107, Note_on_c, 12, 60, 0
14, 253107, Note_on_c, 12, 57, 0
14, 253120, Note_on_c, 12, 57, 76
14, 253120, Note_on_c, 12, 60, 76
14, 253187, Note_on_c, 12, 57, 0
14, 253187, Note_on_c, 12, 60, 0
14, 253200, Note_on_c, 12, 57, 76
14, 253200, Note_on_c, 12, 60, 76
14, 253267, Note_on_c, 12, 57, 0
14, 253267, Note_on_c, 12, 60, 0
14, 253280, Note_on_c, 12, 55, 76
14, 253280, Note_on_c, 12, 58, 76
14, 253347, Note_on_c, 12, 55, 0
14, 253347, Note_on_c, 12, 58, 0
14, 253360, Note_on_c, 12, 57, 76
14, 253360, Note_on_c, 12, 53, 76
14, 253427, Note_on_c, 12, 57, 0
14, 253427, Note_on_c, 12, 53, 0
14, 253440, Note_on_c, 12, 65, 76
14, 253507, Note_on_c, 12, 65, 0
14, 253520, Note_on_c, 12, 65, 76
14, 253587, Note_on_c, 12, 65, 0
14, 253600, Note_on_c, 12, 65, 76
14, 253667, Note_on_c, 12, 65, 0
14, 253680, Note_on_c, 12, 53, 76
14, 253747, Note_on_c, 12, 53, 0
14, 253760, Note_on_c, 12, 53, 76
14, 253827, Note_on_c, 12, 53, 0
14, 253840, Note_on_c, 12, 53, 76
14, 253907, Note_on_c, 12, 53, 0
14, 253920, Note_on_c, 12, 65, 76
14, 253987, Note_on_c, 12, 65, 0
14, 254000, Note_on_c, 12, 65, 76
14, 254067, Note_on_c, 12, 65, 0
14, 254080, Note_on_c, 12, 65, 76
14, 254147, Note_on_c, 12, 65, 0
14, 254160, Note_on_c, 12, 53, 76
14, 254227, Note_on_c, 12, 53, 0
14, 254240, Note_on_c, 12, 53, 76
14, 254307, Note_on_c, 12, 53, 0
14, 254320, Note_on_c, 12, 53, 76
14, 254387, Note_on_c, 12, 53, 0
14, 254400, Note_on_c, 12, 52, 76
14, 254467, Note_on_c, 12, 52, 0
14, 254480, Note_on_c, 12, 52, 76
14, 254547, Note_on_c, 12, 52, 0
14, 254560, Note_on_c, 12, 52, 76
14, 254627, Note_on_c, 12, 52, 0
14, 254640, Note_on_c, 12, 52, 76
14, 254707, Note_on_c, 12, 52, 0
14, 254720, Note_on_c, 12, 52, 76
14, 254787, Note_on_c, 12, 52, 0
14, 254800, Note_on_c, 12, 52, 76
14, 254867, Note_on_c, 12, 52, 0
14, 254880, Note_on_c, 12, 53, 76
14, 255119, Note_on_c, 12, 53, 0
14, 255240, Note_on_c, 12, 57, 76
14, 255299, Note_on_c, 12, 57, 0
14, 255300, Note_on_c, 12, 55, 76
14, 255359, Note_on_c, 12, 55, 0
14, 255360, Note_on_c, 12, 53, 76
14, 255449, Note_on_c, 12, 53, 0
14, 255480, Note_on_c, 12, 57, 76
14, 255539, Note_on_c, 12, 57, 0
14, 255540, Note_on_c, 12, 55, 76
14, 255599, Note_on_c, 12, 55, 0
14, 255600, Note_on_c, 12, 53, 76
14, 255704, Note_on_c, 12, 53, 0
14, 255720, Note_on_c, 12, 62, 76
14, 255779, Note_on_c, 12, 62, 0
14, 255780, Note_on_c, 12, 59, 76
14, 255839, Note_on_c, 12, 59, 0
14, 255840, Note_on_c, 12, 60, 76
14, 256019, Note_on_c, 12, 60, 0
14, 256200, Note_on_c, 12, 62, 76
14, 256259, Note_on_c, 12, 62, 0
14, 256260, Note_on_c, 12, 60, 76
14, 256319, Note_on_c, 12, 60, 0
14, 256320, Note_on_c, 12, 57, 76
14, 256409, Note_on_c, 12, 57, 0
14, 256440, Note_on_c, 12, 60, 76
14, 256499, Note_on_c, 12, 60, 0
14, 256500, Note_on_c, 12, 58, 76
14, 256559, Note_on_c, 12, 58, 0
14, 256560, Note_on_c, 12, 55, 76
14, 256649, Note_on_c, 12, 55, 0
14, 256680, Note_on_c, 12, 58, 76
14, 256739, Note_on_c, 12, 58, 0
14, 256740, Note_on_c, 12, 57, 76
14, 256799, Note_on_c, 12, 57, 0
14, 256800, Note_on_c, 12, 53, 76
14, 256979, Note_on_c, 12, 53, 0
14, 257160, Note_on_c, 12, 57, 76
14, 257219, Note_on_c, 12, 57, 0
14, 257220, Note_on_c, 12, 55, 76
14, 257279, Note_on_c, 12, 55, 0
14, 257280, Note_on_c, 12, 53, 76
14, 257369, Note_on_c, 12, 53, 0
14, 257400, Note_on_c, 12, 57, 76
14, 257459, Note_on_c, 12, 57, 0
14, 257460, Note_on_c, 12, 55, 76
14, 257519, Note_on_c, 12, 55, 0
14, 257520, Note_on_c, 12, 53, 76
14, 257609, Note_on_c, 12, 53, 0
14, 257640, Note_on_c, 12, 62, 76
14, 257699, Note_on_c, 12, 62, 0
14, 257700, Note_on_c, 12, 59, 76
14, 257759, Note_on_c, 12, 59, 0
14, 257760, Note_on_c, 12, 60, 76
14, 257939, Note_on_c, 12, 60, 0
14, 258120, Note_on_c, 12, 62, 76
14, 258179, Note_on_c, 12, 62, 0
14, 258180, Note_on_c, 12, 60, 76
14, 258239, Note_on_c, 12, 60, 0
14, 258240, Note_on_c, 12, 57, 76
14, 258329, Note_on_c, 12, 57, 0
14, 258360, Note_on_c, 12, 60, 76
14, 258419, Note_on_c, 12, 60, 0
14, 258420, Note_on_c, 12, 58, 76
14, 258479, Note_on_c, 12, 58, 0
14, 258480, Note_on_c, 12, 55, 76
14, 258569, Note_on_c, 12, 55, 0
14, 258600, Note_on_c, 12, 58, 76
14, 258659, Note_on_c, 12, 58, 0
14, 258660, Note_on_c, 12, 57, 76
14, 258719, Note_on_c, 12, 57, 0
14, 258720, Note_on_c, 12, 53, 76
14, 258809, Note_on_c, 12, 53, 0
14, 260640, Note_on_c, 12, 53, 52
14, 260729, Note_on_c, 12, 53, 0
14, 260760, Note_on_c, 12, 60, 52
14, 260819, Note_on_c, 12, 60, 0
14, 260820, Note_on_c, 12, 57, 52
14, 260879, Note_on_c, 12, 57, 0
14, 260880, Note_on_c, 12, 55, 51
14, 260969, Note_on_c, 12, 55, 0
14, 261000, Note_on_c, 12, 60, 51
14, 261059, Note_on_c, 12, 60, 0
14, 261060, Note_on_c, 12, 58, 51
14, 261119, Note_on_c, 12, 58, 0
14, 261120, Note_on_c, 12, 53, 50
14, 261209, Note_on_c, 12, 53, 0
14, 261240, Note_on_c, 12, 60, 50
14, 261299, Note_on_c, 12, 60, 0
14, 261300, Note_on_c, 12, 57, 50
14, 261359, Note_on_c, 12, 57, 0
14, 261360, Note_on_c, 12, 55, 49
14, 261449, Note_on_c, 12, 55, 0
14, 261480, Note_on_c, 12, 60, 49
14, 261539, Note_on_c, 12, 60, 0
14, 261540, Note_on_c, 12, 58, 49
14, 261599, Note_on_c, 12, 58, 0
14, 261600, Note_on_c, 12, 53, 48
14, 261689, Note_on_c, 12, 53, 0
14, 261720, Note_on_c, 12, 60, 48
14, 261779, Note_on_c, 12, 60, 0
14, 261780, Note_on_c, 12, 57, 48
14, 261839, Note_on_c, 12, 57, 0
14, 261840, Note_on_c, 12, 55, 47
14, 261929, Note_on_c, 12, 55, 0
14, 261960, Note_on_c, 12, 60, 47
14, 262019, Note_on_c, 12, 60, 0
14, 262020, Note_on_c, 12, 58, 47
14, 262079, Note_on_c, 12, 58, 0
14, 262080, Note_on_c, 12, 53, 46
14, 262169, Note_on_c, 12, 53, 0
14, 262200, Note_on_c, 12, 60, 46
14, 262259, Note_on_c, 12, 60, 0
14, 262260, Note_on_c, 12, 57, 46
14, 262319, Note_on_c, 12, 57, 0
14, 262320, Note_on_c, 12, 55, 45
14, 262409, Note_on_c, 12, 55, 0
14, 262440, Note_on_c, 12, 60, 45
14, 262499, Note_on_c, 12, 60, 0
14, 262500, Note_on_c, 12, 58, 45
14, 262551, Note_on_c, 12, 58, 0
14, 262560, Note_on_c, 12, 53, 44
14, 262799, Note_on_c, 12, 53, 0
14, 262800, Note_on_c, 12, 48, 44
14, 263039, Note_on_c, 12, 48, 0
14, 263040, Note_on_c, 12, 53, 44
14, 263279, Note_on_c, 12, 53, 0
14, 263280, Note_on_c, 12, 48, 44
14, 263519, Note_on_c, 12, 48, 0
14, 263520, Note_on_c, 12, 53, 44
14, 263759, Note_on_c, 12, 53, 0
14, 263760, Note_on_c, 12, 48, 44
14, 263999, Note_on_c, 12, 48, 0
14, 264000, Note_on_c, 12, 53, 44
14, 264239, Note_on_c, 12, 53, 0
14, 264240, Note_on_c, 12, 48, 44
14, 264479, Note_on_c, 12, 48, 0
14, 264480, Note_on_c, 12, 53, 44
14, 264569, Note_on_c, 12, 53, 0
14, 266040, Note_on_c, 12, 62, 76
14, 266159, Note_on_c, 12, 62, 0
14, 266160, Note_on_c, 12, 63, 76
14, 266264, Note_on_c, 12, 63, 0
14, 266280, Note_on_c, 12, 67, 76
14, 266369, Note_on_c, 12, 67, 0
14, 268440, Note_on_c, 12, 65, 76
14, 268529, Note_on_c, 12, 65, 0
14, 268560, Note_on_c, 12, 63, 76
14, 268649, Note_on_c, 12, 63, 0
14, 268680, Note_on_c, 12, 58, 76
14, 268769, Note_on_c, 12, 58, 0
14, 268800, Note_on_c, 12, 65, 76
14, 268889, Note_on_c, 12, 65, 0
14, 268920, Note_on_c, 12, 58, 76
14, 269009, Note_on_c, 12, 58, 0
14, 269040, Note_on_c, 12, 57, 76
14, 269129, Note_on_c, 12, 57, 0
14, 269160, Note_on_c, 12, 60, 76
14, 269249, Note_on_c, 12, 60, 0
14, 269280, Note_on_c, 12, 53, 76
14, 269369, Note_on_c, 12, 53, 0
14, 269400, Note_on_c, 12, 57, 76
14, 269489, Note_on_c, 12, 57, 0
14, 269520, Note_on_c, 12, 58, 76
14, 269639, Note_on_c, 12, 58, 0
14, 269640, Note_on_c, 12, 57, 76
14, 269699, Note_on_c, 12, 57, 0
14, 269700, Note_on_c, 12, 58, 76
14, 269751, Note_on_c, 12, 58, 0
14, 269760, Note_on_c, 12, 60, 76
14, 269849, Note_on_c, 12, 60, 0
14, 269880, Note_on_c, 12, 55, 76
14, 269969, Note_on_c, 12, 55, 0
14, 270000, Note_on_c, 12, 53, 76
14, 270089, Note_on_c, 12, 53, 0
14, 270120, Note_on_c, 12, 60, 76
14, 270209, Note_on_c, 12, 60, 0
14, 270240, Note_on_c, 12, 62, 52
14, 270359, Note_on_c, 12, 62, 0
14, 270720, Note_on_c, 12, 53, 52
14, 270839, Note_on_c, 12, 53, 0
14, 271200, Note_on_c, 12, 53, 52
14, 271267, Note_on_c, 12, 53, 0
14, 271280, Note_on_c, 12, 58, 52
14, 271347, Note_on_c, 12, 58, 0
14, 271360, Note_on_c, 12, 58, 52
14, 271427, Note_on_c, 12, 58, 0
14, 271440, Note_on_c, 12, 58, 52
14, 272227, Note_on_c, 12, 58, 0
14, 272240, Note_on_c, 12, 58, 52
14, 272307, Note_on_c, 12, 58, 0
14, 272320, Note_on_c, 12, 58, 52
14, 272387, Note_on_c, 12, 58, 0
14, 272400, Note_on_c, 12, 58, 52
14, 273187, Note_on_c, 12, 58, 0
14, 273200, Note_on_c, 12, 58, 52
14, 273267, Note_on_c, 12, 58, 0
14, 273280, Note_on_c, 12, 58, 52
14, 273347, Note_on_c, 12, 58, 0
14, 273360, Note_on_c, 12, 58, 52
14, 274147, Note_on_c, 12, 58, 0
14, 274160, Note_on_c, 12, 58, 52
14, 274227, Note_on_c, 12, 58, 0
14, 274240, Note_on_c, 12, 58, 52
14, 274307, Note_on_c, 12, 58, 0
14, 274320, Note_on_c, 12, 58, 52
14, 275107, Note_on_c, 12, 58, 0
14, 275120, Note_on_c, 12, 58, 52
14, 275187, Note_on_c, 12, 58, 0
14, 275200, Note_on_c, 12, 58, 52
14, 275267, Note_on_c, 12, 58, 0
14, 275280, Note_on_c, 12, 58, 52
14, 275587, Note_on_c, 12, 58, 0
14, 275600, Note_on_c, 12, 55, 52
14, 275667, Note_on_c, 12, 55, 0
14, 275680, Note_on_c, 12, 55, 52
14, 275747, Note_on_c, 12, 55, 0
14, 275760, Note_on_c, 12, 55, 52
14, 276067, Note_on_c, 12, 55, 0
14, 276080, Note_on_c, 12, 52, 52
14, 276147, Note_on_c, 12, 52, 0
14, 276160, Note_on_c, 12, 52, 52
14, 276227, Note_on_c, 12, 52, 0
14, 276240, Note_on_c, 12, 52, 52
14, 276547, Note_on_c, 12, 52, 0
14, 276560, Note_on_c, 12, 48, 52
14, 276627, Note_on_c, 12, 48, 0
14, 276640, Note_on_c, 12, 48, 52
14, 276707, Note_on_c, 12, 48, 0
14, 276720, Note_on_c, 12, 48, 52
14, 276944, Note_on_c, 12, 48, 0
14, 276960, Note_on_c, 12, 53, 76
14, 277279, Note_on_c, 12, 53, 0
14, 277280, Note_on_c, 12, 57, 76
14, 277359, Note_on_c, 12, 57, 0
14, 277360, Note_on_c, 12, 55, 76
14, 277439, Note_on_c, 12, 55, 0
14, 277440, Note_on_c, 12, 53, 76
14, 277519, Note_on_c, 12, 53, 0
14, 277520, Note_on_c, 12, 57, 76
14, 277599, Note_on_c, 12, 57, 0
14, 277600, Note_on_c, 12, 55, 76
14, 277679, Note_on_c, 12, 55, 0
14, 277680, Note_on_c, 12, 53, 76
14, 277759, Note_on_c, 12, 53, 0
14, 277760, Note_on_c, 12, 62, 76
14, 277839, Note_on_c, 12, 62, 0
14, 277840, Note_on_c, 12, 59, 76
14, 277907, Note_on_c, 12, 59, 0
14, 277920, Note_on_c, 12, 60, 76
14, 278239, Note_on_c, 12, 60, 0
14, 278240, Note_on_c, 12, 62, 76
14, 278319, Note_on_c, 12, 62, 0
14, 278320, Note_on_c, 12, 60, 76
14, 278399, Note_on_c, 12, 60, 0
14, 278400, Note_on_c, 12, 57, 76
14, 278479, Note_on_c, 12, 57, 0
14, 278480, Note_on_c, 12, 60, 76
14, 278559, Note_on_c, 12, 60, 0
14, 278560, Note_on_c, 12, 58, 76
14, 278639, Note_on_c, 12, 58, 0
14, 278640, Note_on_c, 12, 55, 76
14, 278719, Note_on_c, 12, 55, 0
14, 278720, Note_on_c, 12, 58, 76
14, 278799, Note_on_c, 12, 58, 0
14, 278800, Note_on_c, 12, 57, 76
14, 278867, Note_on_c, 12, 57, 0
14, 278880, Note_on_c, 12, 53, 76
14, 279199, Note_on_c, 12, 53, 0
14, 279200, Note_on_c, 12, 57, 76
14, 279279, Note_on_c, 12, 57, 0
14, 279280, Note_on_c, 12, 55, 76
14, 279359, Note_on_c, 12, 55, 0
14, 279360, Note_on_c, 12, 53, 76
14, 279439, Note_on_c, 12, 53, 0
14, 279440, Note_on_c, 12, 57, 76
14, 279519, Note_on_c, 12, 57, 0
14, 279520, Note_on_c, 12, 55, 76
14, 279599, Note_on_c, 12, 55, 0
14, 279600, Note_on_c, 12, 53, 76
14, 279679, Note_on_c, 12, 53, 0
14, 279680, Note_on_c, 12, 62, 76
14, 279759, Note_on_c, 12, 62, 0
14, 279760, Note_on_c, 12, 59, 76
14, 279827, Note_on_c, 12, 59, 0
14, 279840, Note_on_c, 12, 60, 76
14, 280159, Note_on_c, 12, 60, 0
14, 280160, Note_on_c, 12, 62, 76
14, 280239, Note_on_c, 12, 62, 0
14, 280240, Note_on_c, 12, 60, 76
14, 280319, Note_on_c, 12, 60, 0
14, 280320, Note_on_c, 12, 57, 76
14, 280399, Note_on_c, 12, 57, 0
14, 280400, Note_on_c, 12, 60, 76
14, 280479, Note_on_c, 12, 60, 0
14, 280480, Note_on_c, 12, 58, 76
14, 280559, Note_on_c, 12, 58, 0
14, 280560, Note_on_c, 12, 55, 76
14, 280639, Note_on_c, 12, 55, 0
14, 280640, Note_on_c, 12, 58, 76
14, 280719, Note_on_c, 12, 58, 0
14, 280720, Note_on_c, 12, 57, 76
14, 280787, Note_on_c, 12, 57, 0
14, 280800, Note_on_c, 12, 53, 76
14, 281107, Note_on_c, 12, 53, 0
14, 281120, Note_on_c, 12, 65, 76
14, 281120, Note_on_c, 12, 69, 76
14, 281187, Note_on_c, 12, 65, 0
14, 281187, Note_on_c, 12, 69, 0
14, 281200, Note_on_c, 12, 69, 76
14, 281200, Note_on_c, 12, 65, 76
14, 281267, Note_on_c, 12, 69, 0
14, 281267, Note_on_c, 12, 65, 0
14, 281280, Note_on_c, 12, 65, 76
14, 281280, Note_on_c, 12, 69, 76
14, 281587, Note_on_c, 12, 65, 0
14, 281587, Note_on_c, 12, 69, 0
14, 281600, Note_on_c, 12, 65, 76
14, 281600, Note_on_c, 12, 69, 76
14, 281667, Note_on_c, 12, 65, 0
14, 281667, Note_on_c, 12, 69, 0
14, 281680, Note_on_c, 12, 65, 76
14, 281680, Note_on_c, 12, 69, 76
14, 281747, Note_on_c, 12, 65, 0
14, 281747, Note_on_c, 12, 69, 0
14, 281760, Note_on_c, 12, 69, 76
14, 281760, Note_on_c, 12, 72, 76
14, 282067, Note_on_c, 12, 69, 0
14, 282067, Note_on_c, 12, 72, 0
14, 282080, Note_on_c, 12, 69, 76
14, 282080, Note_on_c, 12, 72, 76
14, 282147, Note_on_c, 12, 69, 0
14, 282147, Note_on_c, 12, 72, 0
14, 282160, Note_on_c, 12, 72, 76
14, 282160, Note_on_c, 12, 69, 76
14, 282227, Note_on_c, 12, 72, 0
14, 282227, Note_on_c, 12, 69, 0
14, 282240, Note_on_c, 12, 64, 76
14, 282240, Note_on_c, 12, 67, 76
14, 282547, Note_on_c, 12, 64, 0
14, 282547, Note_on_c, 12, 67, 0
14, 282560, Note_on_c, 12, 64, 76
14, 282560, Note_on_c, 12, 67, 76
14, 282627, Note_on_c, 12, 64, 0
14, 282627, Note_on_c, 12, 67, 0
14, 282640, Note_on_c, 12, 67, 76
14, 282640, Note_on_c, 12, 64, 76
14, 282707, Note_on_c, 12, 67, 0
14, 282707, Note_on_c, 12, 64, 0
14, 282720, Note_on_c, 12, 69, 76
14, 282720, Note_on_c, 12, 65, 76
14, 283027, Note_on_c, 12, 69, 0
14, 283027, Note_on_c, 12, 65, 0
14, 283040, Note_on_c, 12, 69, 76
14, 283040, Note_on_c, 12, 65, 76
14, 283107, Note_on_c, 12, 69, 0
14, 283107, Note_on_c, 12, 65, 0
14, 283120, Note_on_c, 12, 65, 76
14, 283120, Note_on_c, 12, 69, 76
14, 283187, Note_on_c, 12, 65, 0
14, 283187, Note_on_c, 12, 69, 0
14, 283200, Note_on_c, 12, 65, 76
14, 283200, Note_on_c, 12, 69, 76
14, 283507, Note_on_c, 12, 65, 0
14, 283507, Note_on_c, 12, 69, 0
14, 283520, Note_on_c, 12, 65, 76
14, 283520, Note_on_c, 12, 69, 76
14, 283587, Note_on_c, 12, 65, 0
14, 283587, Note_on_c, 12, 69, 0
14, 283600, Note_on_c, 12, 69, 76
14, 283600, Note_on_c, 12, 65, 76
14, 283667, Note_on_c, 12, 69, 0
14, 283667, Note_on_c, 12, 65, 0
14, 283680, Note_on_c, 12, 72, 76
14, 283680, Note_on_c, 12, 69, 76
14, 283987, Note_on_c, 12, 72, 0
14, 283987, Note_on_c, 12, 69, 0
14, 284000, Note_on_c, 12, 72, 76
14, 284000, Note_on_c, 12, 69, 76
14, 284067, Note_on_c, 12, 72, 0
14, 284067, Note_on_c, 12, 69, 0
14, 284080, Note_on_c, 12, 69, 76
14, 284080, Note_on_c, 12, 72, 76
14, 284147, Note_on_c, 12, 69, 0
14, 284147, Note_on_c, 12, 72, 0
14, 284160, Note_on_c, 12, 67, 76
14, 284160, Note_on_c, 12, 64, 76
14, 284467, Note_on_c, 12, 67, 0
14, 284467, Note_on_c, 12, 64, 0
14, 284480, Note_on_c, 12, 67, 76
14, 284480, Note_on_c, 12, 64, 76
14, 284547, Note_on_c, 12, 67, 0
14, 284547, Note_on_c, 12, 64, 0
14, 284560, Note_on_c, 12, 64, 76
14, 284560, Note_on_c, 12, 67, 76
14, 284627, Note_on_c, 12, 64, 0
14, 284627, Note_on_c, 12, 67, 0
14, 284640, Note_on_c, 12, 65, 76
14, 284640, Note_on_c, 12, 69, 76
14, 284947, Note_on_c, 12, 65, 0
14, 284947, Note_on_c, 12, 69, 0
14, 284960, Note_on_c, 12, 65, 76
14, 284960, Note_on_c, 12, 69, 76
14, 285027, Note_on_c, 12, 65, 0
14, 285027, Note_on_c, 12, 69, 0
14, 285040, Note_on_c, 12, 65, 76
14, 285040, Note_on_c, 12, 69, 76
14, 285107, Note_on_c, 12, 65, 0
14, 285107, Note_on_c, 12, 69, 0
14, 285120, Note_on_c, 12, 69, 76
14, 285120, Note_on_c, 12, 65, 76
14, 285427, Note_on_c, 12, 69, 0
14, 285427, Note_on_c, 12, 65, 0
14, 285440, Note_on_c, 12, 69, 76
14, 285440, Note_on_c, 12, 65, 76
14, 285507, Note_on_c, 12, 69, 0
14, 285507, Note_on_c, 12, 65, 0
14, 285520, Note_on_c, 12, 65, 76
14, 285520, Note_on_c, 12, 69, 76
14, 285587, Note_on_c, 12, 65, 0
14, 285587, Note_on_c, 12, 69, 0
14, 285600, Note_on_c, 12, 72, 84
14, 285600, Note_on_c, 12, 69, 84
14, 285907, Note_on_c, 12, 72, 0
14, 285907, Note_on_c, 12, 69, 0
14, 285920, Note_on_c, 12, 69, 84
14, 285920, Note_on_c, 12, 72, 84
14, 285987, Note_on_c, 12, 69, 0
14, 285987, Note_on_c, 12, 72, 0
14, 286000, Note_on_c, 12, 69, 84
14, 286000, Note_on_c, 12, 72, 84
14, 286067, Note_on_c, 12, 69, 0
14, 286067, Note_on_c, 12, 72, 0
14, 286080, Note_on_c, 12, 69, 84
14, 286080, Note_on_c, 12, 72, 84
14, 286387, Note_on_c, 12, 69, 0
14, 286387, Note_on_c, 12, 72, 0
14, 286400, Note_on_c, 12, 69, 84
14, 286400, Note_on_c, 12, 72, 84
14, 286467, Note_on_c, 12, 69, 0
14, 286467, Note_on_c, 12, 72, 0
14, 286480, Note_on_c, 12, 69, 84
14, 286480, Note_on_c, 12, 72, 84
14, 286547, Note_on_c, 12, 69, 0
14, 286547, Note_on_c, 12, 72, 0
14, 286560, Note_on_c, 12, 69, 84
14, 286560, Note_on_c, 12, 72, 84
14, 286867, Note_on_c, 12, 69, 0
14, 286867, Note_on_c, 12, 72, 0
14, 286880, Note_on_c, 12, 70, 84
14, 286880, Note_on_c, 12, 67, 84
14, 286947, Note_on_c, 12, 70, 0
14, 286947, Note_on_c, 12, 67, 0
14, 286960, Note_on_c, 12, 67, 84
14, 286960, Note_on_c, 12, 70, 84
14, 287027, Note_on_c, 12, 67, 0
14, 287027, Note_on_c, 12, 70, 0
14, 287040, Note_on_c, 12, 70, 84
14, 287040, Note_on_c, 12, 67, 84
14, 287347, Note_on_c, 12, 70, 0
14, 287347, Note_on_c, 12, 67, 0
14, 287360, Note_on_c, 12, 69, 84
14, 287360, Note_on_c, 12, 65, 84
14, 287427, Note_on_c, 12, 69, 0
14, 287427, Note_on_c, 12, 65, 0
14, 287440, Note_on_c, 12, 69, 84
14, 287440, Note_on_c, 12, 65, 84
14, 287507, Note_on_c, 12, 69, 0
14, 287507, Note_on_c, 12, 65, 0
14, 287520, Note_on_c, 12, 69, 84
14, 287520, Note_on_c, 12, 65, 84
14, 287827, Note_on_c, 12, 69, 0
14, 287827, Note_on_c, 12, 65, 0
14, 287840, Note_on_c, 12, 64, 84
14, 287840, Note_on_c, 12, 67, 84
14, 287907, Note_on_c, 12, 64, 0
14, 287907, Note_on_c, 12, 67, 0
14, 287920, Note_on_c, 12, 64, 84
14, 287920, Note_on_c, 12, 67, 84
14, 287987, Note_on_c, 12, 64, 0
14, 287987, Note_on_c, 12, 67, 0
14, 288000, Note_on_c, 12, 67, 84
14, 288000, Note_on_c, 12, 64, 84
14, 288307, Note_on_c, 12, 67, 0
14, 288307, Note_on_c, 12, 64, 0
14, 288320, Note_on_c, 12, 62, 84
14, 288320, Note_on_c, 12, 65, 84
14, 288387, Note_on_c, 12, 62, 0
14, 288387, Note_on_c, 12, 65, 0
14, 288400, Note_on_c, 12, 65, 84
14, 288400, Note_on_c, 12, 62, 84
14, 288467, Note_on_c, 12, 65, 0
14, 288467, Note_on_c, 12, 62, 0
14, 288480, Note_on_c, 12, 62, 84
14, 288480, Control_c, 12, 11, 127
14, 288480, Note_on_c, 12, 65, 84
14, 288560, Control_c, 12, 11, 124
14, 288640, Control_c, 12, 11, 120
14, 288720, Control_c, 12, 11, 117
14, 288787, Note_on_c, 12, 62, 0
14, 288787, Note_on_c, 12, 65, 0
14, 288800, Control_c, 12, 11, 114
14, 288800, Note_on_c, 12, 60, 84
14, 288800, Note_on_c, 12, 64, 84
14, 288867, Note_on_c, 12, 60, 0
14, 288867, Note_on_c, 12, 64, 0
14, 288880, Note_on_c, 12, 60, 84
14, 288880, Note_on_c, 12, 64, 84
14, 288880, Control_c, 12, 11, 111
14, 288947, Note_on_c, 12, 60, 0
14, 288947, Note_on_c, 12, 64, 0
14, 288960, Note_on_c, 12, 60, 84
14, 288960, Control_c, 12, 11, 107
14, 288960, Note_on_c, 12, 64, 84
14, 289040, Control_c, 12, 11, 104
14, 289120, Control_c, 12, 11, 101
14, 289200, Control_c, 12, 11, 97
14, 289267, Note_on_c, 12, 60, 0
14, 289267, Note_on_c, 12, 64, 0
14, 289280, Control_c, 12, 11, 94
14, 289280, Note_on_c, 12, 58, 84
14, 289280, Note_on_c, 12, 62, 84
14, 289347, Note_on_c, 12, 58, 0
14, 289347, Note_on_c, 12, 62, 0
14, 289360, Note_on_c, 12, 62, 84
14, 289360, Control_c, 12, 11, 91
14, 289360, Note_on_c, 12, 58, 84
14, 289427, Note_on_c, 12, 62, 0
14, 289427, Note_on_c, 12, 58, 0
14, 289440, Note_on_c, 12, 62, 84
14, 289440, Note_on_c, 12, 58, 84
14, 289440, Control_c, 12, 11, 88
14, 289520, Control_c, 12, 11, 84
14, 289600, Control_c, 12, 11, 81
14, 289680, Control_c, 12, 11, 78
14, 289747, Note_on_c, 12, 62, 0
14, 289747, Note_on_c, 12, 58, 0
14, 289760, Note_on_c, 12, 60, 84
14, 289760, Control_c, 12, 11, 74
14, 289760, Note_on_c, 12, 57, 84
14, 289827, Note_on_c, 12, 60, 0
14, 289827, Note_on_c, 12, 57, 0
14, 289840, Control_c, 12, 11, 71
14, 289840, Note_on_c, 12, 60, 84
14, 289840, Note_on_c, 12, 57, 84
14, 289907, Note_on_c, 12, 60, 0
14, 289907, Note_on_c, 12, 57, 0
14, 289920, Note_on_c, 12, 57, 84
14, 289920, Control_c, 12, 11, 68
14, 289920, Note_on_c, 12, 60, 84
14, 290000, Control_c, 12, 11, 64
14, 290080, Control_c, 12, 11, 61
14, 290160, Control_c, 12, 11, 58
14, 290227, Note_on_c, 12, 57, 0
14, 290227, Note_on_c, 12, 60, 0
14, 290240, Note_on_c, 12, 55, 84
14, 290240, Control_c, 12, 11, 55
14, 290240, Note_on_c, 12, 58, 84
14, 290307, Note_on_c, 12, 55, 0
14, 290307, Note_on_c, 12, 58, 0
14, 290320, Control_c, 12, 11, 48
14, 290320, Note_on_c, 12, 55, 84
14, 290320, Note_on_c, 12, 58, 84
14, 290387, Note_on_c, 12, 55, 0
14, 290387, Note_on_c, 12, 58, 0
14, 290400, Note_on_c, 12, 58, 84
14, 290519, Note_on_c, 12, 58, 0
14, 290520, Note_on_c, 12, 55, 84
14, 290579, Note_on_c, 12, 55, 0
14, 290580, Note_on_c, 12, 53, 84
14, 290631, Note_on_c, 12, 53, 0
14, 290640, Note_on_c, 12, 52, 84
14, 290729, Note_on_c, 12, 52, 0
14, 290760, Note_on_c, 12, 48, 84
14, 290849, Note_on_c, 12, 48, 0
14, 290880, Note_on_c, 12, 53, 84
14, 291344, Note_on_c, 12, 53, 0
14, 291358, Control_c, 12, 11, 127
14, 291360, Note_on_c, 12, 55, 76
14, 291704, Note_on_c, 12, 55, 0
14, 291720, Note_on_c, 12, 67, 76
14, 291824, Note_on_c, 12, 67, 0
14, 291840, Note_on_c, 12, 65, 76
14, 291959, Note_on_c, 12, 65, 0
14, 292080, Note_on_c, 12, 48, 76
14, 292199, Note_on_c, 12, 48, 0
14, 292320, Note_on_c, 12, 58, 44
14, 292439, Note_on_c, 12, 58, 0
14, 292440, Note_on_c, 12, 55, 44
14, 292499, Note_on_c, 12, 55, 0
14, 292500, Note_on_c, 12, 53, 44
14, 292551, Note_on_c, 12, 53, 0
14, 292560, Note_on_c, 12, 52, 44
14, 292649, Note_on_c, 12, 52, 0
14, 292680, Note_on_c, 12, 48, 44
14, 292769, Note_on_c, 12, 48, 0
14, 292800, Note_on_c, 12, 53, 44
14, 293264, Note_on_c, 12, 53, 0
14, 293280, Note_on_c, 12, 55, 76
14, 293624, Note_on_c, 12, 55, 0
14, 293640, Note_on_c, 12, 67, 76
14, 293744, Note_on_c, 12, 67, 0
14, 293760, Note_on_c, 12, 65, 76
14, 293879, Note_on_c, 12, 65, 0
14, 294000, Note_on_c, 12, 48, 76
14, 294119, Note_on_c, 12, 48, 0
14, 294240, Note_on_c, 12, 53, 76
14, 294359, Note_on_c, 12, 53, 0
14, 295680, Note_on_c, 12, 67, 76
14, 296024, Note_on_c, 12, 67, 0
14, 296040, Note_on_c, 12, 67, 76
14, 296144, Note_on_c, 12, 67, 0
14, 296160, Note_on_c, 12, 69, 76
14, 296160, Note_on_c, 12, 60, 76
14, 296279, Note_on_c, 12, 69, 0
14, 296279, Note_on_c, 12, 60, 0
14, 297600, Note_on_c, 12, 67, 76
14, 297944, Note_on_c, 12, 67, 0
14, 297960, Note_on_c, 12, 67, 76
14, 298064, Note_on_c, 12, 67, 0
14, 298080, Note_on_c, 12, 60, 76
14, 298080, Note_on_c, 12, 69, 76
14, 298199, Note_on_c, 12, 60, 0
14, 298199, Note_on_c, 12, 69, 0
14, 298560, Note_on_c, 12, 67, 76
14, 298904, Note_on_c, 12, 67, 0
14, 298920, Note_on_c, 12, 67, 76
14, 299024, Note_on_c, 12, 67, 0
14, 299040, Note_on_c, 12, 60, 76
14, 299040, Note_on_c, 12, 69, 76
14, 299159, Note_on_c, 12, 60, 0
14, 299159, Note_on_c, 12, 69, 0
14, 299520, Note_on_c, 12, 67, 76
14, 299864, Note_on_c, 12, 67, 0
14, 299880, Note_on_c, 12, 67, 76
14, 299984, Note_on_c, 12, 67, 0
14, 300000, Note_on_c, 12, 60, 76
14, 300000, Note_on_c, 12, 69, 76
14, 300119, Note_on_c, 12, 60, 0
14, 300119, Note_on_c, 12, 69, 0
14, 300480, Note_on_c, 12, 48, 68
14, 300599, Note_on_c, 12, 48, 0
14, 300960, Note_on_c, 12, 48, 60
14, 301079, Note_on_c, 12, 48, 0
14, 301440, Note_on_c, 12, 48, 52
14, 301559, Note_on_c, 12, 48, 0
14, 301920, Note_on_c, 12, 48, 44
14, 302039, Note_on_c, 12, 48, 0
14, 308160, Note_on_c, 12, 58, 76
14, 308249, Note_on_c, 12, 58, 0
14, 308280, Note_on_c, 12, 60, 76
14, 308369, Note_on_c, 12, 60, 0
14, 308400, Note_on_c, 12, 62, 76
14, 308489, Note_on_c, 12, 62, 0
14, 308520, Note_on_c, 12, 64, 76
14, 308609, Note_on_c, 12, 64, 0
14, 308640, Note_on_c, 12, 65, 84
14, 308699, Note_on_c, 12, 65, 0
14, 308700, Note_on_c, 12, 65, 76
14, 309104, Note_on_c, 12, 65, 0
14, 309120, Note_on_c, 12, 60, 84
14, 309120, Note_on_c, 12, 48, 84
14, 309179, Note_on_c, 12, 60, 0
14, 309179, Note_on_c, 12, 48, 0
14, 309180, Note_on_c, 12, 60, 76
14, 309180, Note_on_c, 12, 48, 76
14, 309584, Note_on_c, 12, 60, 0
14, 309584, Note_on_c, 12, 48, 0
14, 309600, Note_on_c, 12, 53, 84
14, 309659, Note_on_c, 12, 53, 0
14, 309660, Note_on_c, 12, 53, 76
14, 310064, Note_on_c, 12, 53, 0
14, 310080, Note_on_c, 12, 65, 76
14, 310080, Note_on_c, 12, 57, 76
14, 310080, Note_on_c, 12, 48, 76
14, 310259, Note_on_c, 12, 65, 0
14, 310259, Note_on_c, 12, 57, 0
14, 310259, Note_on_c, 12, 48, 0
14, 310320, Note_on_c, 12, 65, 76
14, 310320, Note_on_c, 12, 57, 76
14, 310320, Note_on_c, 12, 48, 76
14, 310499, Note_on_c, 12, 65, 0
14, 310499, Note_on_c, 12, 57, 0
14, 310499, Note_on_c, 12, 48, 0
14, 310560, Note_on_c, 12, 65, 76
14, 310560, Note_on_c, 12, 57, 76
14, 310560, Note_on_c, 12, 48, 76
14, 310799, Note_on_c, 12, 57, 0
14, 310799, Note_on_c, 12, 48, 0
14, 311024, Note_on_c, 12, 65, 0
14, 311040, Note_on_c, 12, 53, 52
14, 311040, Note_on_c, 12, 48, 52
14, 311504, Note_on_c, 12, 53, 0
14, 311504, Note_on_c, 12, 48, 0
14, 311520, Note_on_c, 12, 53, 52
14, 311520, Note_on_c, 12, 48, 52
14, 311999, Note_on_c, 12, 53, 0
14, 311999, Note_on_c, 12, 48, 0
14, 311999, End_track
15, 0, Start_track
15, 0, Title_t, "Cello"
15, 0, MIDI_port, 0
15, 0, Program_c, 13, 48
15, 0, Control_c, 13, 7, 96
15, 0, Control_c, 13, 10, 90
15, 0, Control_c, 13, 11, 127
15, 0, Note_on_c, 13, 41, 52
15, 959, Note_on_c, 13, 41, 0
15, 960, Note_on_c, 13, 41, 52
15, 1424, Note_on_c, 13, 41, 0
15, 1440, Note_on_c, 13, 36, 52
15, 1904, Note_on_c, 13, 36, 0
15, 1920, Note_on_c, 13, 41, 52
15, 2864, Note_on_c, 13, 41, 0
15, 2880, Note_on_c, 13, 41, 52
15, 3824, Note_on_c, 13, 41, 0
15, 3825, Control_c, 13, 11, 80
15, 3840, Control_c, 13, 11, 80
15, 3840, Note_on_c, 13, 53, 76
15, 3880, Control_c, 13, 11, 82
15, 3920, Control_c, 13, 11, 84
15, 3960, Control_c, 13, 11, 86
15, 4000, Control_c, 13, 11, 88
15, 4040, Control_c, 13, 11, 90
15, 4079, Note_on_c, 13, 53, 0
15, 4080, Note_on_c, 13, 57, 76
15, 4080, Control_c, 13, 11, 92
15, 4120, Control_c, 13, 11, 94
15, 4160, Control_c, 13, 11, 96
15, 4200, Control_c, 13, 11, 98
15, 4240, Control_c, 13, 11, 100
15, 4280, Control_c, 13, 11, 102
15, 4319, Note_on_c, 13, 57, 0
15, 4320, Control_c, 13, 11, 104
15, 4320, Note_on_c, 13, 55, 76
15, 4360, Control_c, 13, 11, 105
15, 4400, Control_c, 13, 11, 107
15, 4440, Control_c, 13, 11, 109
15, 4480, Control_c, 13, 11, 111
15, 4520, Control_c, 13, 11, 113
15, 4560, Control_c, 13, 11, 115
15, 4600, Control_c, 13, 11, 117
15, 4640, Control_c, 13, 11, 119
15, 4679, Note_on_c, 13, 55, 0
15, 4680, Control_c, 13, 11, 121
15, 4680, Note_on_c, 13, 53, 76
15, 4720, Control_c, 13, 11, 123
15, 4760, Control_c, 13, 11, 125
15, 4784, Note_on_c, 13, 53, 0
15, 4800, Note_on_c, 13, 46, 76
15, 4800, Control_c, 13, 11, 127
15, 5039, Note_on_c, 13, 46, 0
15, 5040, Note_on_c, 13, 53, 76
15, 5264, Note_on_c, 13, 53, 0
15, 5280, Note_on_c, 13, 48, 76
15, 5744, Note_on_c, 13, 48, 0
15, 5760, Note_on_c, 13, 41, 76
15, 5999, Note_on_c, 13, 41, 0
15, 6000, Note_on_c, 13, 45, 76
15, 6239, Note_on_c, 13, 45, 0
15, 6240, Note_on_c, 13, 43, 76
15, 6599, Note_on_c, 13, 43, 0
15, 6600, Note_on_c, 13, 41, 76
15, 6704, Note_on_c, 13, 41, 0
15, 6718, Control_c, 13, 11, 80
15, 6720, Note_on_c, 13, 46, 76
15, 6959, Note_on_c, 13, 46, 0
15, 6960, Note_on_c, 13, 41, 76
15, 7184, Note_on_c, 13, 41, 0
15, 7200, Control_c, 13, 11, 80
15, 7200, Note_on_c, 13, 48, 76
15, 7253, Control_c, 13, 11, 81
15, 7307, Control_c, 13, 11, 83
15, 7360, Control_c, 13, 11, 84
15, 7413, Control_c, 13, 11, 85
15, 7467, Control_c, 13, 11, 87
15, 7520, Control_c, 13, 11, 88
15, 7544, Note_on_c, 13, 48, 0
15, 7560, Note_on_c, 13, 48, 76
15, 7573, Control_c, 13, 11, 89
15, 7627, Control_c, 13, 11, 90
15, 7664, Note_on_c, 13, 48, 0
15, 7680, Control_c, 13, 11, 92
15, 7680, Note_on_c, 13, 48, 76
15, 7733, Control_c, 13, 11, 93
15, 7787, Control_c, 13, 11, 94
15, 7840, Control_c, 13, 11, 96
15, 7893, Control_c, 13, 11, 97
15, 7947, Control_c, 13, 11, 98
15, 8000, Control_c, 13, 11, 100
15, 8024, Note_on_c, 13, 48, 0
15, 8040, Note_on_c, 13, 48, 76
15, 8053, Control_c, 13, 11, 101
15, 8107, Control_c, 13, 11, 102
15, 8144, Note_on_c, 13, 48, 0
15, 8160, Note_on_c, 13, 48, 76
15, 8160, Control_c, 13, 11, 104
15, 8213, Control_c, 13, 11, 105
15, 8267, Control_c, 13, 11, 106
15, 8320, Control_c, 13, 11, 107
15, 8373, Control_c, 13, 11, 109
15, 8427, Control_c, 13, 11, 110
15, 8480, Control_c, 13, 11, 111
15, 8504, Note_on_c, 13, 48, 0
15, 8520, Note_on_c, 13, 48, 76
15, 8533, Control_c, 13, 11, 113
15, 8587, Control_c, 13, 11, 114
15, 8624, Note_on_c, 13, 48, 0
15, 8640, Control_c, 13, 11, 115
15, 8640, Note_on_c, 13, 48, 76
15, 8693, Control_c, 13, 11, 117
15, 8747, Control_c, 13, 11, 118
15, 8800, Control_c, 13, 11, 119
15, 8853, Control_c, 13, 11, 120
15, 8907, Control_c, 13, 11, 122
15, 8960, Control_c, 13, 11, 123
15, 8984, Note_on_c, 13, 48, 0
15, 9000, Note_on_c, 13, 48, 76
15, 9013, Control_c, 13, 11, 124
15, 9067, Control_c, 13, 11, 127
15, 9104, Note_on_c, 13, 48, 0
15, 9120, Note_on_c, 13, 48, 76
15, 9464, Note_on_c, 13, 48, 0
15, 9480, Note_on_c, 13, 48, 76
15, 9584, Note_on_c, 13, 48, 0
15, 9600, Note_on_c, 13, 48, 76
15, 9600, Control_c, 13, 11, 127
15, 9653, Control_c, 13, 11, 125
15, 9707, Control_c, 13, 11, 124
15, 9760, Control_c, 13, 11, 122
15, 9813, Control_c, 13, 11, 120
15, 9867, Control_c, 13, 11, 118
15, 9920, Control_c, 13, 11, 117
15, 9944, Note_on_c, 13, 48, 0
15, 9960, Note_on_c, 13, 48, 76
15, 9973, Control_c, 13, 11, 115
15, 10027, Control_c, 13, 11, 113
15, 10064, Note_on_c, 13, 48, 0
15, 10080, Control_c, 13, 11, 111
15, 10080, Note_on_c, 13, 48, 76
15, 10133, Control_c, 13, 11, 110
15, 10187, Control_c, 13, 11, 108
15, 10240, Control_c, 13, 11, 106
15, 10293, Control_c, 13, 11, 104
15, 10347, Control_c, 13, 11, 103
15, 10400, Control_c, 13, 11, 101
15, 10424, Note_on_c, 13, 48, 0
15, 10440, Note_on_c, 13, 48, 76
15, 10453, Control_c, 13, 11, 99
15, 10507, Control_c, 13, 11, 97
15, 10544, Note_on_c, 13, 48, 0
15, 10560, Note_on_c, 13, 48, 76
15, 10560, Control_c, 13, 11, 96
15, 10613, Control_c, 13, 11, 94
15, 10667, Control_c, 13, 11, 92
15, 10720, Control_c, 13, 11, 90
15, 10773, Control_c, 13, 11, 89
15, 10827, Control_c, 13, 11, 87
15, 10880, Control_c, 13, 11, 85
15, 10904, Note_on_c, 13, 48, 0
15, 10920, Note_on_c, 13, 48, 76
15, 10933, Control_c, 13, 11, 83
15, 10987, Control_c, 13, 11, 82
15, 11024, Note_on_c, 13, 48, 0
15, 11040, Note_on_c, 13, 48, 76
15, 11040, Control_c, 13, 11, 80
15, 11093, Control_c, 13, 11, 78
15, 11147, Control_c, 13, 11, 76
15, 11200, Control_c, 13, 11, 75
15, 11253, Control_c, 13, 11, 73
15, 11307, Control_c, 13, 11, 71
15, 11360, Control_c, 13, 11, 69
15, 11384, Note_on_c, 13, 48, 0
15, 11400, Note_on_c, 13, 48, 76
15, 11413, Control_c, 13, 11, 68
15, 11467, Control_c, 13, 11, 64
15, 11504, Note_on_c, 13, 48, 0
15, 11520, Note_on_c, 13, 48, 76
15, 11639, Note_on_c, 13, 48, 0
15, 13200, Control_c, 13, 11, 127
15, 13440, Note_on_c, 13, 41, 44
15, 13491, Note_on_c, 13, 41, 0
15, 13500, Note_on_c, 13, 48, 44
15, 13551, Note_on_c, 13, 48, 0
15, 13560, Note_on_c, 13, 41, 44
15, 13611, Note_on_c, 13, 41, 0
15, 13620, Note_on_c, 13, 48, 44
15, 13671, Note_on_c, 13, 48, 0
15, 13680, Note_on_c, 13, 41, 44
15, 13731, Note_on_c, 13, 41, 0
15, 13740, Note_on_c, 13, 48, 44
15, 13791, Note_on_c, 13, 48, 0
15, 13800, Note_on_c, 13, 41, 44
15, 13851, Note_on_c, 13, 41, 0
15, 13860, Note_on_c, 13, 48, 44
15, 13911, Note_on_c, 13, 48, 0
15, 13920, Note_on_c, 13, 41, 44
15, 13971, Note_on_c, 13, 41, 0
15, 13980, Note_on_c, 13, 48, 44
15, 14031, Note_on_c, 13, 48, 0
15, 14040, Note_on_c, 13, 41, 44
15, 14091, Note_on_c, 13, 41, 0
15, 14100, Note_on_c, 13, 48, 44
15, 14151, Note_on_c, 13, 48, 0
15, 14160, Note_on_c, 13, 41, 44
15, 14211, Note_on_c, 13, 41, 0
15, 14220, Note_on_c, 13, 48, 44
15, 14271, Note_on_c, 13, 48, 0
15, 14280, Note_on_c, 13, 41, 44
15, 14331, Note_on_c, 13, 41, 0
15, 14340, Note_on_c, 13, 48, 44
15, 14391, Note_on_c, 13, 48, 0
15, 14400, Note_on_c, 13, 41, 44
15, 14451, Note_on_c, 13, 41, 0
15, 14460, Note_on_c, 13, 48, 44
15, 14511, Note_on_c, 13, 48, 0
15, 14520, Note_on_c, 13, 41, 44
15, 14571, Note_on_c, 13, 41, 0
15, 14580, Note_on_c, 13, 48, 44
15, 14631, Note_on_c, 13, 48, 0
15, 14640, Note_on_c, 13, 41, 44
15, 14691, Note_on_c, 13, 41, 0
15, 14700, Note_on_c, 13, 48, 44
15, 14751, Note_on_c, 13, 48, 0
15, 14760, Note_on_c, 13, 41, 44
15, 14811, Note_on_c, 13, 41, 0
15, 14820, Note_on_c, 13, 48, 44
15, 14871, Note_on_c, 13, 48, 0
15, 14880, Note_on_c, 13, 41, 44
15, 14931, Note_on_c, 13, 41, 0
15, 14940, Note_on_c, 13, 48, 44
15, 14991, Note_on_c, 13, 48, 0
15, 15000, Note_on_c, 13, 41, 44
15, 15051, Note_on_c, 13, 41, 0
15, 15060, Note_on_c, 13, 48, 44
15, 15111, Note_on_c, 13, 48, 0
15, 15120, Note_on_c, 13, 41, 44
15, 15171, Note_on_c, 13, 41, 0
15, 15180, Note_on_c, 13, 48, 44
15, 15231, Note_on_c, 13, 48, 0
15, 15240, Note_on_c, 13, 41, 44
15, 15291, Note_on_c, 13, 41, 0
15, 15300, Note_on_c, 13, 48, 44
15, 15351, Note_on_c, 13, 48, 0
15, 15360, Note_on_c, 13, 41, 44
15, 15411, Note_on_c, 13, 41, 0
15, 15420, Note_on_c, 13, 48, 45
15, 15471, Note_on_c, 13, 48, 0
15, 15480, Note_on_c, 13, 41, 46
15, 15531, Note_on_c, 13, 41, 0
15, 15540, Note_on_c, 13, 48, 47
15, 15591, Note_on_c, 13, 48, 0
15, 15600, Note_on_c, 13, 41, 48
15, 15651, Note_on_c, 13, 41, 0
15, 15660, Note_on_c, 13, 48, 49
15, 15711, Note_on_c, 13, 48, 0
15, 15720, Note_on_c, 13, 41, 50
15, 15771, Note_on_c, 13, 41, 0
15, 15780, Note_on_c, 13, 48, 51
15, 15831, Note_on_c, 13, 48, 0
15, 15840, Note_on_c, 13, 41, 52
15, 15891, Note_on_c, 13, 41, 0
15, 15900, Note_on_c, 13, 48, 53
15, 15951, Note_on_c, 13, 48, 0
15, 15960, Note_on_c, 13, 41, 54
15, 16011, Note_on_c, 13, 41, 0
15, 16020, Note_on_c, 13, 48, 55
15, 16071, Note_on_c, 13, 48, 0
15, 16080, Note_on_c, 13, 41, 56
15, 16131, Note_on_c, 13, 41, 0
15, 16140, Note_on_c, 13, 48, 57
15, 16191, Note_on_c, 13, 48, 0
15, 16200, Note_on_c, 13, 41, 58
15, 16251, Note_on_c, 13, 41, 0
15, 16260, Note_on_c, 13, 48, 59
15, 16311, Note_on_c, 13, 48, 0
15, 16320, Note_on_c, 13, 41, 60
15, 16371, Note_on_c, 13, 41, 0
15, 16380, Note_on_c, 13, 48, 61
15, 16431, Note_on_c, 13, 48, 0
15, 16440, Note_on_c, 13, 41, 62
15, 16491, Note_on_c, 13, 41, 0
15, 16500, Note_on_c, 13, 48, 63
15, 16551, Note_on_c, 13, 48, 0
15, 16560, Note_on_c, 13, 41, 64
15, 16611, Note_on_c, 13, 41, 0
15, 16620, Note_on_c, 13, 48, 65
15, 16671, Note_on_c, 13, 48, 0
15, 16680, Note_on_c, 13, 41, 66
15, 16731, Note_on_c, 13, 41, 0
15, 16740, Note_on_c, 13, 48, 67
15, 16791, Note_on_c, 13, 48, 0
15, 16800, Note_on_c, 13, 41, 68
15, 16851, Note_on_c, 13, 41, 0
15, 16860, Note_on_c, 13, 48, 69
15, 16911, Note_on_c, 13, 48, 0
15, 16920, Note_on_c, 13, 41, 70
15, 16971, Note_on_c, 13, 41, 0
15, 16980, Note_on_c, 13, 48, 71
15, 17031, Note_on_c, 13, 48, 0
15, 17040, Note_on_c, 13, 41, 72
15, 17091, Note_on_c, 13, 41, 0
15, 17100, Note_on_c, 13, 48, 73
15, 17151, Note_on_c, 13, 48, 0
15, 17160, Note_on_c, 13, 41, 74
15, 17211, Note_on_c, 13, 41, 0
15, 17220, Note_on_c, 13, 48, 75
15, 17271, Note_on_c, 13, 48, 0
15, 17280, Note_on_c, 13, 41, 76
15, 17331, Note_on_c, 13, 41, 0
15, 17340, Note_on_c, 13, 48, 76
15, 17391, Note_on_c, 13, 48, 0
15, 17400, Note_on_c, 13, 41, 76
15, 17451, Note_on_c, 13, 41, 0
15, 17460, Note_on_c, 13, 48, 76
15, 17511, Note_on_c, 13, 48, 0
15, 17520, Note_on_c, 13, 41, 76
15, 17571, Note_on_c, 13, 41, 0
15, 17580, Note_on_c, 13, 48, 76
15, 17631, Note_on_c, 13, 48, 0
15, 17640, Note_on_c, 13, 41, 76
15, 17691, Note_on_c, 13, 41, 0
15, 17700, Note_on_c, 13, 48, 76
15, 17751, Note_on_c, 13, 48, 0
15, 17760, Note_on_c, 13, 41, 76
15, 17811, Note_on_c, 13, 41, 0
15, 17820, Note_on_c, 13, 48, 76
15, 17871, Note_on_c, 13, 48, 0
15, 17880, Note_on_c, 13, 41, 76
15, 17931, Note_on_c, 13, 41, 0
15, 17940, Note_on_c, 13, 48, 76
15, 17991, Note_on_c, 13, 48, 0
15, 18000, Note_on_c, 13, 41, 76
15, 18051, Note_on_c, 13, 41, 0
15, 18060, Note_on_c, 13, 48, 76
15, 18111, Note_on_c, 13, 48, 0
15, 18120, Note_on_c, 13, 41, 76
15, 18171, Note_on_c, 13, 41, 0
15, 18180, Note_on_c, 13, 48, 76
15, 18231, Note_on_c, 13, 48, 0
15, 18240, Note_on_c, 13, 41, 76
15, 18291, Note_on_c, 13, 41, 0
15, 18300, Note_on_c, 13, 48, 76
15, 18351, Note_on_c, 13, 48, 0
15, 18360, Note_on_c, 13, 41, 76
15, 18411, Note_on_c, 13, 41, 0
15, 18420, Note_on_c, 13, 48, 76
15, 18471, Note_on_c, 13, 48, 0
15, 18480, Note_on_c, 13, 41, 76
15, 18531, Note_on_c, 13, 41, 0
15, 18540, Note_on_c, 13, 48, 76
15, 18591, Note_on_c, 13, 48, 0
15, 18600, Note_on_c, 13, 41, 76
15, 18651, Note_on_c, 13, 41, 0
15, 18660, Note_on_c, 13, 48, 76
15, 18711, Note_on_c, 13, 48, 0
15, 18720, Note_on_c, 13, 41, 76
15, 18771, Note_on_c, 13, 41, 0
15, 18780, Note_on_c, 13, 48, 76
15, 18831, Note_on_c, 13, 48, 0
15, 18840, Note_on_c, 13, 41, 76
15, 18891, Note_on_c, 13, 41, 0
15, 18900, Note_on_c, 13, 48, 76
15, 18951, Note_on_c, 13, 48, 0
15, 18960, Note_on_c, 13, 41, 76
15, 19011, Note_on_c, 13, 41, 0
15, 19020, Note_on_c, 13, 48, 76
15, 19071, Note_on_c, 13, 48, 0
15, 19080, Note_on_c, 13, 41, 76
15, 19131, Note_on_c, 13, 41, 0
15, 19140, Note_on_c, 13, 48, 76
15, 19191, Note_on_c, 13, 48, 0
15, 19200, Note_on_c, 13, 41, 76
15, 19251, Note_on_c, 13, 41, 0
15, 19260, Note_on_c, 13, 48, 76
15, 19311, Note_on_c, 13, 48, 0
15, 19320, Note_on_c, 13, 41, 76
15, 19371, Note_on_c, 13, 41, 0
15, 19380, Note_on_c, 13, 48, 76
15, 19431, Note_on_c, 13, 48, 0
15, 19440, Note_on_c, 13, 41, 76
15, 19491, Note_on_c, 13, 41, 0
15, 19500, Note_on_c, 13, 48, 76
15, 19551, Note_on_c, 13, 48, 0
15, 19560, Note_on_c, 13, 41, 76
15, 19611, Note_on_c, 13, 41, 0
15, 19620, Note_on_c, 13, 48, 76
15, 19671, Note_on_c, 13, 48, 0
15, 19680, Note_on_c, 13, 41, 76
15, 19731, Note_on_c, 13, 41, 0
15, 19740, Note_on_c, 13, 48, 76
15, 19791, Note_on_c, 13, 48, 0
15, 19800, Note_on_c, 13, 41, 76
15, 19851, Note_on_c, 13, 41, 0
15, 19860, Note_on_c, 13, 48, 76
15, 19911, Note_on_c, 13, 48, 0
15, 19920, Note_on_c, 13, 41, 76
15, 19971, Note_on_c, 13, 41, 0
15, 19980, Note_on_c, 13, 48, 76
15, 20031, Note_on_c, 13, 48, 0
15, 20040, Note_on_c, 13, 41, 76
15, 20091, Note_on_c, 13, 41, 0
15, 20100, Note_on_c, 13, 48, 76
15, 20151, Note_on_c, 13, 48, 0
15, 20160, Note_on_c, 13, 36, 76
15, 20211, Note_on_c, 13, 36, 0
15, 20220, Note_on_c, 13, 48, 76
15, 20271, Note_on_c, 13, 48, 0
15, 20280, Note_on_c, 13, 36, 76
15, 20331, Note_on_c, 13, 36, 0
15, 20340, Note_on_c, 13, 48, 76
15, 20391, Note_on_c, 13, 48, 0
15, 20400, Note_on_c, 13, 36, 76
15, 20451, Note_on_c, 13, 36, 0
15, 20460, Note_on_c, 13, 48, 76
15, 20511, Note_on_c, 13, 48, 0
15, 20520, Note_on_c, 13, 36, 76
15, 20571, Note_on_c, 13, 36, 0
15, 20580, Note_on_c, 13, 48, 76
15, 20631, Note_on_c, 13, 48, 0
15, 20640, Note_on_c, 13, 36, 76
15, 20691, Note_on_c, 13, 36, 0
15, 20700, Note_on_c, 13, 48, 76
15, 20751, Note_on_c, 13, 48, 0
15, 20760, Note_on_c, 13, 36, 76
15, 20811, Note_on_c, 13, 36, 0
15, 20820, Note_on_c, 13, 48, 76
15, 20871, Note_on_c, 13, 48, 0
15, 20880, Note_on_c, 13, 36, 76
15, 20931, Note_on_c, 13, 36, 0
15, 20940, Note_on_c, 13, 48, 76
15, 20991, Note_on_c, 13, 48, 0
15, 21000, Note_on_c, 13, 36, 76
15, 21051, Note_on_c, 13, 36, 0
15, 21060, Note_on_c, 13, 48, 76
15, 21111, Note_on_c, 13, 48, 0
15, 21120, Note_on_c, 13, 36, 76
15, 21171, Note_on_c, 13, 36, 0
15, 21180, Note_on_c, 13, 48, 76
15, 21231, Note_on_c, 13, 48, 0
15, 21240, Note_on_c, 13, 36, 76
15, 21291, Note_on_c, 13, 36, 0
15, 21300, Note_on_c, 13, 48, 76
15, 21351, Note_on_c, 13, 48, 0
15, 21360, Note_on_c, 13, 36, 76
15, 21411, Note_on_c, 13, 36, 0
15, 21420, Note_on_c, 13, 48, 76
15, 21471, Note_on_c, 13, 48, 0
15, 21480, Note_on_c, 13, 36, 76
15, 21531, Note_on_c, 13, 36, 0
15, 21540, Note_on_c, 13, 48, 76
15, 21591, Note_on_c, 13, 48, 0
15, 21600, Note_on_c, 13, 36, 76
15, 21651, Note_on_c, 13, 36, 0
15, 21660, Note_on_c, 13, 48, 76
15, 21711, Note_on_c, 13, 48, 0
15, 21720, Note_on_c, 13, 36, 76
15, 21771, Note_on_c, 13, 36, 0
15, 21780, Note_on_c, 13, 48, 76
15, 21831, Note_on_c, 13, 48, 0
15, 21840, Note_on_c, 13, 36, 76
15, 21891, Note_on_c, 13, 36, 0
15, 21900, Note_on_c, 13, 48, 76
15, 21951, Note_on_c, 13, 48, 0
15, 21960, Note_on_c, 13, 36, 76
15, 22011, Note_on_c, 13, 36, 0
15, 22020, Note_on_c, 13, 48, 76
15, 22071, Note_on_c, 13, 48, 0
15, 22080, Note_on_c, 13, 41, 76
15, 22131, Note_on_c, 13, 41, 0
15, 22140, Note_on_c, 13, 48, 76
15, 22191, Note_on_c, 13, 48, 0
15, 22200, Note_on_c, 13, 41, 76
15, 22251, Note_on_c, 13, 41, 0
15, 22260, Note_on_c, 13, 48, 76
15, 22311, Note_on_c, 13, 48, 0
15, 22320, Note_on_c, 13, 41, 76
15, 22371, Note_on_c, 13, 41, 0
15, 22380, Note_on_c, 13, 48, 76
15, 22431, Note_on_c, 13, 48, 0
15, 22440, Note_on_c, 13, 41, 76
15, 22491, Note_on_c, 13, 41, 0
15, 22500, Note_on_c, 13, 48, 76
15, 22551, Note_on_c, 13, 48, 0
15, 22560, Note_on_c, 13, 41, 76
15, 22611, Note_on_c, 13, 41, 0
15, 22620, Note_on_c, 13, 48, 76
15, 22671, Note_on_c, 13, 48, 0
15, 22680, Note_on_c, 13, 41, 76
15, 22731, Note_on_c, 13, 41, 0
15, 22740, Note_on_c, 13, 48, 76
15, 22791, Note_on_c, 13, 48, 0
15, 22800, Note_on_c, 13, 41, 76
15, 22851, Note_on_c, 13, 41, 0
15, 22860, Note_on_c, 13, 48, 76
15, 22911, Note_on_c, 13, 48, 0
15, 22920, Note_on_c, 13, 41, 76
15, 22971, Note_on_c, 13, 41, 0
15, 22980, Note_on_c, 13, 48, 76
15, 23031, Note_on_c, 13, 48, 0
15, 23040, Note_on_c, 13, 41, 76
15, 23091, Note_on_c, 13, 41, 0
15, 23100, Note_on_c, 13, 48, 76
15, 23151, Note_on_c, 13, 48, 0
15, 23160, Note_on_c, 13, 41, 76
15, 23211, Note_on_c, 13, 41, 0
15, 23220, Note_on_c, 13, 48, 76
15, 23271, Note_on_c, 13, 48, 0
15, 23280, Note_on_c, 13, 41, 76
15, 23331, Note_on_c, 13, 41, 0
15, 23340, Note_on_c, 13, 48, 76
15, 23391, Note_on_c, 13, 48, 0
15, 23400, Note_on_c, 13, 41, 76
15, 23451, Note_on_c, 13, 41, 0
15, 23460, Note_on_c, 13, 48, 76
15, 23511, Note_on_c, 13, 48, 0
15, 23520, Note_on_c, 13, 41, 76
15, 23571, Note_on_c, 13, 41, 0
15, 23580, Note_on_c, 13, 48, 76
15, 23631, Note_on_c, 13, 48, 0
15, 23640, Note_on_c, 13, 41, 76
15, 23691, Note_on_c, 13, 41, 0
15, 23700, Note_on_c, 13, 48, 76
15, 23751, Note_on_c, 13, 48, 0
15, 23760, Note_on_c, 13, 41, 76
15, 23811, Note_on_c, 13, 41, 0
15, 23820, Note_on_c, 13, 48, 76
15, 23871, Note_on_c, 13, 48, 0
15, 23880, Note_on_c, 13, 41, 76
15, 23931, Note_on_c, 13, 41, 0
15, 23940, Note_on_c, 13, 48, 76
15, 23991, Note_on_c, 13, 48, 0
15, 24000, Note_on_c, 13, 41, 76
15, 24051, Note_on_c, 13, 41, 0
15, 24060, Note_on_c, 13, 48, 76
15, 24111, Note_on_c, 13, 48, 0
15, 24120, Note_on_c, 13, 41, 76
15, 24171, Note_on_c, 13, 41, 0
15, 24180, Note_on_c, 13, 48, 76
15, 24231, Note_on_c, 13, 48, 0
15, 24240, Note_on_c, 13, 41, 76
15, 24291, Note_on_c, 13, 41, 0
15, 24300, Note_on_c, 13, 48, 76
15, 24351, Note_on_c, 13, 48, 0
15, 24360, Note_on_c, 13, 41, 76
15, 24411, Note_on_c, 13, 41, 0
15, 24420, Note_on_c, 13, 48, 76
15, 24471, Note_on_c, 13, 48, 0
15, 24480, Note_on_c, 13, 41, 76
15, 24531, Note_on_c, 13, 41, 0
15, 24540, Note_on_c, 13, 48, 76
15, 24591, Note_on_c, 13, 48, 0
15, 24600, Note_on_c, 13, 41, 76
15, 24651, Note_on_c, 13, 41, 0
15, 24660, Note_on_c, 13, 48, 76
15, 24711, Note_on_c, 13, 48, 0
15, 24720, Note_on_c, 13, 41, 76
15, 24771, Note_on_c, 13, 41, 0
15, 24780, Note_on_c, 13, 48, 76
15, 24831, Note_on_c, 13, 48, 0
15, 24840, Note_on_c, 13, 41, 76
15, 24891, Note_on_c, 13, 41, 0
15, 24900, Note_on_c, 13, 48, 76
15, 24951, Note_on_c, 13, 48, 0
15, 24960, Note_on_c, 13, 41, 76
15, 25079, Note_on_c, 13, 41, 0
15, 26640, Program_c, 13, 45
15, 26880, Note_on_c, 13, 50, 48
15, 26999, Note_on_c, 13, 50, 0
15, 28800, Note_on_c, 13, 48, 48
15, 29039, Note_on_c, 13, 48, 0
15, 29760, Note_on_c, 13, 47, 48
15, 29999, Note_on_c, 13, 47, 0
15, 31200, Program_c, 13, 48
15, 31320, Note_on_c, 13, 45, 52
15, 31439, Note_on_c, 13, 45, 0
15, 31440, Note_on_c, 13, 43, 52
15, 31544, Note_on_c, 13, 43, 0
15, 31560, Note_on_c, 13, 42, 52
15, 31649, Note_on_c, 13, 42, 0
15, 31680, Note_on_c, 13, 43, 52
15, 32624, Note_on_c, 13, 43, 0
15, 32640, Note_on_c, 13, 48, 52
15, 33584, Note_on_c, 13, 48, 0
15, 33600, Note_on_c, 13, 47, 52
15, 33824, Note_on_c, 13, 47, 0
15, 33840, Note_on_c, 13, 47, 52
15, 34064, Note_on_c, 13, 47, 0
15, 34080, Note_on_c, 13, 47, 52
15, 34319, Note_on_c, 13, 47, 0
15, 34320, Note_on_c, 13, 50, 52
15, 34439, Note_on_c, 13, 50, 0
15, 34440, Note_on_c, 13, 47, 52
15, 34544, Note_on_c, 13, 47, 0
15, 34560, Note_on_c, 13, 48, 52
15, 34784, Note_on_c, 13, 48, 0
15, 34800, Note_on_c, 13, 48, 52
15, 35024, Note_on_c, 13, 48, 0
15, 35040, Note_on_c, 13, 48, 52
15, 35279, Note_on_c, 13, 48, 0
15, 35280, Note_on_c, 13, 52, 52
15, 35399, Note_on_c, 13, 52, 0
15, 35400, Note_on_c, 13, 48, 52
15, 35504, Note_on_c, 13, 48, 0
15, 35518, Control_c, 13, 11, 80
15, 35520, Control_c, 13, 11, 80
15, 35520, Note_on_c, 13, 57, 76
15, 35639, Note_on_c, 13, 57, 0
15, 35640, Note_on_c, 13, 55, 76
15, 35704, Control_c, 13, 11, 81
15, 35759, Note_on_c, 13, 55, 0
15, 35760, Note_on_c, 13, 53, 76
15, 35879, Note_on_c, 13, 53, 0
15, 35880, Note_on_c, 13, 50, 76
15, 35888, Control_c, 13, 11, 82
15, 35999, Note_on_c, 13, 50, 0
15, 36000, Note_on_c, 13, 43, 76
15, 36071, Control_c, 13, 11, 83
15, 36119, Note_on_c, 13, 43, 0
15, 36120, Note_on_c, 13, 53, 76
15, 36239, Note_on_c, 13, 53, 0
15, 36240, Note_on_c, 13, 50, 76
15, 36255, Control_c, 13, 11, 84
15, 36359, Note_on_c, 13, 50, 0
15, 36360, Note_on_c, 13, 43, 76
15, 36439, Control_c, 13, 11, 85
15, 36464, Note_on_c, 13, 43, 0
15, 36480, Note_on_c, 13, 57, 76
15, 36599, Note_on_c, 13, 57, 0
15, 36600, Note_on_c, 13, 55, 76
15, 36623, Control_c, 13, 11, 86
15, 36719, Note_on_c, 13, 55, 0
15, 36720, Note_on_c, 13, 52, 76
15, 36807, Control_c, 13, 11, 87
15, 36839, Note_on_c, 13, 52, 0
15, 36840, Note_on_c, 13, 48, 76
15, 36959, Note_on_c, 13, 48, 0
15, 36960, Note_on_c, 13, 43, 76
15, 36991, Control_c, 13, 11, 88
15, 37079, Note_on_c, 13, 43, 0
15, 37080, Note_on_c, 13, 52, 76
15, 37174, Control_c, 13, 11, 89
15, 37199, Note_on_c, 13, 52, 0
15, 37200, Note_on_c, 13, 48, 76
15, 37319, Note_on_c, 13, 48, 0
15, 37320, Note_on_c, 13, 43, 76
15, 37358, Control_c, 13, 11, 90
15, 37424, Note_on_c, 13, 43, 0
15, 37440, Note_on_c, 13, 57, 76
15, 37542, Control_c, 13, 11, 91
15, 37559, Note_on_c, 13, 57, 0
15, 37560, Note_on_c, 13, 55, 76
15, 37679, Note_on_c, 13, 55, 0
15, 37680, Note_on_c, 13, 53, 76
15, 37726, Control_c, 13, 11, 92
15, 37799, Note_on_c, 13, 53, 0
15, 37800, Note_on_c, 13, 50, 76
15, 37910, Control_c, 13, 11, 93
15, 37919, Note_on_c, 13, 50, 0
15, 37920, Note_on_c, 13, 43, 76
15, 38039, Note_on_c, 13, 43, 0
15, 38040, Note_on_c, 13, 53, 76
15, 38094, Control_c, 13, 11, 94
15, 38159, Note_on_c, 13, 53, 0
15, 38160, Note_on_c, 13, 50, 76
15, 38277, Control_c, 13, 11, 95
15, 38279, Note_on_c, 13, 50, 0
15, 38280, Note_on_c, 13, 43, 76
15, 38384, Note_on_c, 13, 43, 0
15, 38400, Note_on_c, 13, 57, 76
15, 38461, Control_c, 13, 11, 96
15, 38519, Note_on_c, 13, 57, 0
15, 38520, Note_on_c, 13, 55, 76
15, 38639, Note_on_c, 13, 55, 0
15, 38640, Note_on_c, 13, 52, 76
15, 38645, Control_c, 13, 11, 97
15, 38759, Note_on_c, 13, 52, 0
15, 38760, Note_on_c, 13, 48, 76
15, 38829, Control_c, 13, 11, 98
15, 38879, Note_on_c, 13, 48, 0
15, 38880, Note_on_c, 13, 43, 76
15, 38999, Note_on_c, 13, 43, 0
15, 39000, Note_on_c, 13, 52, 76
15, 39013, Control_c, 13, 11, 99
15, 39119, Note_on_c, 13, 52, 0
15, 39120, Note_on_c, 13, 48, 76
15, 39197, Control_c, 13, 11, 100
15, 39239, Note_on_c, 13, 48, 0
15, 39240, Note_on_c, 13, 43, 76
15, 39344, Note_on_c, 13, 43, 0
15, 39360, Note_on_c, 13, 43, 76
15, 39380, Control_c, 13, 11, 101
15, 39564, Control_c, 13, 11, 102
15, 39748, Control_c, 13, 11, 103
15, 39932, Control_c, 13, 11, 104
15, 40116, Control_c, 13, 11, 105
15, 40300, Control_c, 13, 11, 106
15, 40304, Note_on_c, 13, 43, 0
15, 40320, Note_on_c, 13, 48, 76
15, 40483, Control_c, 13, 11, 107
15, 40667, Control_c, 13, 11, 108
15, 40851, Control_c, 13, 11, 109
15, 41035, Control_c, 13, 11, 110
15, 41219, Control_c, 13, 11, 111
15, 41264, Note_on_c, 13, 48, 0
15, 41280, Note_on_c, 13, 47, 76
15, 41403, Control_c, 13, 11, 112
15, 41504, Note_on_c, 13, 47, 0
15, 41520, Note_on_c, 13, 47, 76
15, 41586, Control_c, 13, 11, 113
15, 41744, Note_on_c, 13, 47, 0
15, 41760, Note_on_c, 13, 47, 76
15, 41770, Control_c, 13, 11, 114
15, 41954, Control_c, 13, 11, 115
15, 41999, Note_on_c, 13, 47, 0
15, 42000, Note_on_c, 13, 50, 76
15, 42119, Note_on_c, 13, 50, 0
15, 42120, Note_on_c, 13, 47, 76
15, 42138, Control_c, 13, 11, 116
15, 42224, Note_on_c, 13, 47, 0
15, 42240, Note_on_c, 13, 48, 76
15, 42322, Control_c, 13, 11, 117
15, 42464, Note_on_c, 13, 48, 0
15, 42480, Note_on_c, 13, 48, 76
15, 42506, Control_c, 13, 11, 118
15, 42689, Control_c, 13, 11, 119
15, 42704, Note_on_c, 13, 48, 0
15, 42720, Note_on_c, 13, 48, 76
15, 42873, Control_c, 13, 11, 120
15, 42959, Note_on_c, 13, 48, 0
15, 42960, Note_on_c, 13, 52, 76
15, 43057, Control_c, 13, 11, 121
15, 43079, Note_on_c, 13, 52, 0
15, 43080, Note_on_c, 13, 48, 76
15, 43184, Note_on_c, 13, 48, 0
15, 43200, Note_on_c, 13, 50, 76
15, 43241, Control_c, 13, 11, 122
15, 43424, Note_on_c, 13, 50, 0
15, 43425, Control_c, 13, 11, 123
15, 43440, Note_on_c, 13, 50, 76
15, 43609, Control_c, 13, 11, 124
15, 43664, Note_on_c, 13, 50, 0
15, 43680, Note_on_c, 13, 50, 76
15, 43792, Control_c, 13, 11, 125
15, 43919, Note_on_c, 13, 50, 0
15, 43920, Note_on_c, 13, 53, 76
15, 43976, Control_c, 13, 11, 127
15, 44039, Note_on_c, 13, 53, 0
15, 44040, Note_on_c, 13, 50, 76
15, 44144, Note_on_c, 13, 50, 0
15, 44160, Note_on_c, 13, 48, 76
15, 45119, Note_on_c, 13, 48, 0
15, 45120, Note_on_c, 13, 48, 76
15, 45584, Note_on_c, 13, 48, 0
15, 45600, Note_on_c, 13, 41, 76
15, 45719, Note_on_c, 13, 41, 0
15, 46080, Note_on_c, 13, 41, 52
15, 46559, Note_on_c, 13, 41, 0
15, 46560, Note_on_c, 13, 48, 52
15, 47039, Note_on_c, 13, 48, 0
15, 47040, Note_on_c, 13, 43, 52
15, 47504, Note_on_c, 13, 43, 0
15, 47520, Note_on_c, 13, 48, 84
15, 48479, Note_on_c, 13, 48, 0
15, 48480, Note_on_c, 13, 48, 84
15, 48944, Note_on_c, 13, 48, 0
15, 48960, Note_on_c, 13, 41, 76
15, 49079, Note_on_c, 13, 41, 0
15, 49200, Control_c, 13, 11, 80
15, 49440, Note_on_c, 13, 41, 76
15, 49919, Note_on_c, 13, 41, 0
15, 49920, Note_on_c, 13, 48, 76
15, 50399, Note_on_c, 13, 48, 0
15, 50400, Note_on_c, 13, 43, 76
15, 50864, Note_on_c, 13, 43, 0
15, 50880, Control_c, 13, 11, 80
15, 50880, Note_on_c, 13, 48, 76
15, 50933, Control_c, 13, 11, 81
15, 50987, Control_c, 13, 11, 83
15, 51040, Control_c, 13, 11, 84
15, 51093, Control_c, 13, 11, 85
15, 51104, Note_on_c, 13, 48, 0
15, 51120, Note_on_c, 13, 48, 76
15, 51147, Control_c, 13, 11, 87
15, 51200, Control_c, 13, 11, 88
15, 51253, Control_c, 13, 11, 89
15, 51307, Control_c, 13, 11, 90
15, 51359, Note_on_c, 13, 48, 0
15, 51360, Note_on_c, 13, 41, 76
15, 51360, Control_c, 13, 11, 92
15, 51413, Control_c, 13, 11, 93
15, 51467, Control_c, 13, 11, 94
15, 51520, Control_c, 13, 11, 96
15, 51573, Control_c, 13, 11, 97
15, 51584, Note_on_c, 13, 41, 0
15, 51600, Note_on_c, 13, 41, 76
15, 51627, Control_c, 13, 11, 98
15, 51680, Control_c, 13, 11, 100
15, 51733, Control_c, 13, 11, 101
15, 51787, Control_c, 13, 11, 102
15, 51839, Note_on_c, 13, 41, 0
15, 51840, Control_c, 13, 11, 104
15, 51840, Note_on_c, 13, 48, 76
15, 51893, Control_c, 13, 11, 105
15, 51947, Control_c, 13, 11, 106
15, 52000, Control_c, 13, 11, 107
15, 52053, Control_c, 13, 11, 109
15, 52064, Note_on_c, 13, 48, 0
15, 52080, Note_on_c, 13, 48, 76
15, 52107, Control_c, 13, 11, 110
15, 52160, Control_c, 13, 11, 111
15, 52213, Control_c, 13, 11, 113
15, 52267, Control_c, 13, 11, 114
15, 52319, Note_on_c, 13, 48, 0
15, 52320, Control_c, 13, 11, 115
15, 52320, Note_on_c, 13, 43, 76
15, 52373, Control_c, 13, 11, 117
15, 52427, Control_c, 13, 11, 118
15, 52480, Control_c, 13, 11, 119
15, 52533, Control_c, 13, 11, 120
15, 52544, Note_on_c, 13, 43, 0
15, 52560, Note_on_c, 13, 43, 76
15, 52587, Control_c, 13, 11, 122
15, 52640, Control_c, 13, 11, 123
15, 52693, Control_c, 13, 11, 124
15, 52747, Control_c, 13, 11, 127
15, 52784, Note_on_c, 13, 43, 0
15, 52800, Note_on_c, 13, 48, 76
15, 52867, Note_on_c, 13, 48, 0
15, 52880, Note_on_c, 13, 48, 76
15, 52947, Note_on_c, 13, 48, 0
15, 52960, Note_on_c, 13, 48, 76
15, 53027, Note_on_c, 13, 48, 0
15, 53040, Note_on_c, 13, 48, 76
15, 53107, Note_on_c, 13, 48, 0
15, 53120, Note_on_c, 13, 50, 76
15, 53187, Note_on_c, 13, 50, 0
15, 53200, Note_on_c, 13, 52, 76
15, 53267, Note_on_c, 13, 52, 0
15, 53280, Note_on_c, 13, 53, 76
15, 53347, Note_on_c, 13, 53, 0
15, 53360, Note_on_c, 13, 53, 76
15, 53427, Note_on_c, 13, 53, 0
15, 53440, Note_on_c, 13, 53, 76
15, 53507, Note_on_c, 13, 53, 0
15, 53520, Note_on_c, 13, 57, 76
15, 53587, Note_on_c, 13, 57, 0
15, 53600, Note_on_c, 13, 57, 76
15, 53667, Note_on_c, 13, 57, 0
15, 53680, Note_on_c, 13, 57, 76
15, 53747, Note_on_c, 13, 57, 0
15, 53760, Note_on_c, 13, 60, 76
15, 53827, Note_on_c, 13, 60, 0
15, 53840, Note_on_c, 13, 60, 76
15, 53907, Note_on_c, 13, 60, 0
15, 53920, Note_on_c, 13, 60, 76
15, 53987, Note_on_c, 13, 60, 0
15, 54000, Note_on_c, 13, 64, 76
15, 54067, Note_on_c, 13, 64, 0
15, 54080, Note_on_c, 13, 64, 76
15, 54147, Note_on_c, 13, 64, 0
15, 54160, Note_on_c, 13, 64, 76
15, 54227, Note_on_c, 13, 64, 0
15, 54240, Note_on_c, 13, 67, 76
15, 54307, Note_on_c, 13, 67, 0
15, 54320, Note_on_c, 13, 43, 76
15, 54387, Note_on_c, 13, 43, 0
15, 54400, Note_on_c, 13, 43, 76
15, 54467, Note_on_c, 13, 43, 0
15, 54480, Note_on_c, 13, 43, 76
15, 54547, Note_on_c, 13, 43, 0
15, 54560, Note_on_c, 13, 43, 76
15, 54627, Note_on_c, 13, 43, 0
15, 54640, Note_on_c, 13, 43, 76
15, 54707, Note_on_c, 13, 43, 0
15, 54720, Note_on_c, 13, 36, 76
15, 54787, Note_on_c, 13, 36, 0
15, 54800, Note_on_c, 13, 36, 76
15, 54867, Note_on_c, 13, 36, 0
15, 54880, Note_on_c, 13, 36, 76
15, 54947, Note_on_c, 13, 36, 0
15, 54960, Note_on_c, 13, 36, 76
15, 55747, Note_on_c, 13, 36, 0
15, 55760, Note_on_c, 13, 36, 76
15, 55827, Note_on_c, 13, 36, 0
15, 55840, Note_on_c, 13, 36, 76
15, 55907, Note_on_c, 13, 36, 0
15, 55920, Note_on_c, 13, 36, 76
15, 56707, Note_on_c, 13, 36, 0
15, 56720, Note_on_c, 13, 36, 76
15, 56787, Note_on_c, 13, 36, 0
15, 56800, Note_on_c, 13, 36, 76
15, 56867, Note_on_c, 13, 36, 0
15, 56880, Note_on_c, 13, 36, 76
15, 57667, Note_on_c, 13, 36, 0
15, 57680, Note_on_c, 13, 36, 76
15, 57747, Note_on_c, 13, 36, 0
15, 57760, Note_on_c, 13, 36, 76
15, 57827, Note_on_c, 13, 36, 0
15, 57840, Note_on_c, 13, 36, 76
15, 58560, Control_c, 13, 11, 127
15, 58613, Control_c, 13, 11, 126
15, 58627, Note_on_c, 13, 36, 0
15, 58640, Note_on_c, 13, 36, 76
15, 58667, Control_c, 13, 11, 124
15, 58707, Note_on_c, 13, 36, 0
15, 58720, Note_on_c, 13, 36, 76
15, 58720, Control_c, 13, 11, 123
15, 58773, Control_c, 13, 11, 122
15, 58787, Note_on_c, 13, 36, 0
15, 58800, Note_on_c, 13, 36, 76
15, 58827, Control_c, 13, 11, 120
15, 58880, Control_c, 13, 11, 119
15, 58933, Control_c, 13, 11, 118
15, 58987, Control_c, 13, 11, 117
15, 59040, Control_c, 13, 11, 115
15, 59093, Control_c, 13, 11, 114
15, 59107, Note_on_c, 13, 36, 0
15, 59120, Note_on_c, 13, 36, 76
15, 59147, Control_c, 13, 11, 113
15, 59187, Note_on_c, 13, 36, 0
15, 59200, Control_c, 13, 11, 111
15, 59200, Note_on_c, 13, 36, 76
15, 59253, Control_c, 13, 11, 110
15, 59267, Note_on_c, 13, 36, 0
15, 59280, Note_on_c, 13, 36, 76
15, 59307, Control_c, 13, 11, 109
15, 59360, Control_c, 13, 11, 107
15, 59413, Control_c, 13, 11, 106
15, 59467, Control_c, 13, 11, 105
15, 59520, Control_c, 13, 11, 104
15, 59573, Control_c, 13, 11, 102
15, 59587, Note_on_c, 13, 36, 0
15, 59600, Note_on_c, 13, 36, 76
15, 59627, Control_c, 13, 11, 101
15, 59667, Note_on_c, 13, 36, 0
15, 59680, Note_on_c, 13, 36, 76
15, 59680, Control_c, 13, 11, 100
15, 59733, Control_c, 13, 11, 98
15, 59747, Note_on_c, 13, 36, 0
15, 59760, Note_on_c, 13, 36, 76
15, 59787, Control_c, 13, 11, 97
15, 59840, Control_c, 13, 11, 96
15, 59893, Control_c, 13, 11, 94
15, 59947, Control_c, 13, 11, 93
15, 60000, Control_c, 13, 11, 92
15, 60053, Control_c, 13, 11, 90
15, 60067, Note_on_c, 13, 36, 0
15, 60080, Note_on_c, 13, 36, 76
15, 60107, Control_c, 13, 11, 89
15, 60147, Note_on_c, 13, 36, 0
15, 60160, Note_on_c, 13, 36, 76
15, 60160, Control_c, 13, 11, 88
15, 60213, Control_c, 13, 11, 87
15, 60227, Note_on_c, 13, 36, 0
15, 60240, Note_on_c, 13, 36, 76
15, 60267, Control_c, 13, 11, 85
15, 60320, Control_c, 13, 11, 84
15, 60373, Control_c, 13, 11, 83
15, 60427, Control_c, 13, 11, 80
15, 60547, Note_on_c, 13, 36, 0
15, 60560, Note_on_c, 13, 36, 76
15, 60627, Note_on_c, 13, 36, 0
15, 60640, Note_on_c, 13, 36, 76
15, 60707, Note_on_c, 13, 36, 0
15, 60720, Note_on_c, 13, 36, 76
15, 60960, Control_c, 13, 11, 80
15, 61027, Note_on_c, 13, 36, 0
15, 61040, Note_on_c, 13, 36, 76
15, 61050, Control_c, 13, 11, 79
15, 61107, Note_on_c, 13, 36, 0
15, 61120, Note_on_c, 13, 36, 76
15, 61140, Control_c, 13, 11, 78
15, 61187, Note_on_c, 13, 36, 0
15, 61200, Note_on_c, 13, 36, 76
15, 61230, Control_c, 13, 11, 77
15, 61320, Control_c, 13, 11, 76
15, 61410, Control_c, 13, 11, 75
15, 61500, Control_c, 13, 11, 74
15, 61507, Note_on_c, 13, 36, 0
15, 61520, Note_on_c, 13, 36, 76
15, 61587, Note_on_c, 13, 36, 0
15, 61590, Control_c, 13, 11, 73
15, 61600, Note_on_c, 13, 36, 76
15, 61667, Note_on_c, 13, 36, 0
15, 61680, Control_c, 13, 11, 72
15, 61680, Note_on_c, 13, 36, 76
15, 61770, Control_c, 13, 11, 71
15, 61860, Control_c, 13, 11, 70
15, 61950, Control_c, 13, 11, 69
15, 61987, Note_on_c, 13, 36, 0
15, 62000, Note_on_c, 13, 36, 76
15, 62040, Control_c, 13, 11, 68
15, 62067, Note_on_c, 13, 36, 0
15, 62080, Note_on_c, 13, 36, 76
15, 62130, Control_c, 13, 11, 67
15, 62147, Note_on_c, 13, 36, 0
15, 62160, Note_on_c, 13, 36, 76
15, 62220, Control_c, 13, 11, 66
15, 62310, Control_c, 13, 11, 64
15, 62504, Note_on_c, 13, 36, 0
15, 62520, Note_on_c, 13, 43, 76
15, 62579, Note_on_c, 13, 43, 0
15, 62580, Note_on_c, 13, 40, 76
15, 62639, Note_on_c, 13, 40, 0
15, 62640, Note_on_c, 13, 36, 76
15, 62729, Note_on_c, 13, 36, 0
15, 62760, Note_on_c, 13, 43, 76
15, 62819, Note_on_c, 13, 43, 0
15, 62820, Note_on_c, 13, 40, 76
15, 62879, Note_on_c, 13, 40, 0
15, 62880, Note_on_c, 13, 36, 76
15, 62969, Note_on_c, 13, 36, 0
15, 63000, Note_on_c, 13, 43, 76
15, 63059, Note_on_c, 13, 43, 0
15, 63060, Note_on_c, 13, 40, 76
15, 63119, Note_on_c, 13, 40, 0
15, 63120, Note_on_c, 13, 36, 76
15, 63209, Note_on_c, 13, 36, 0
15, 63240, Note_on_c, 13, 43, 76
15, 63299, Note_on_c, 13, 43, 0
15, 63300, Note_on_c, 13, 40, 76
15, 63359, Note_on_c, 13, 40, 0
15, 63360, Note_on_c, 13, 36, 76
15, 63449, Note_on_c, 13, 36, 0
15, 63480, Note_on_c, 13, 43, 76
15, 63539, Note_on_c, 13, 43, 0
15, 63540, Note_on_c, 13, 40, 76
15, 63599, Note_on_c, 13, 40, 0
15, 63600, Note_on_c, 13, 36, 76
15, 63689, Note_on_c, 13, 36, 0
15, 63720, Note_on_c, 13, 43, 76
15, 63779, Note_on_c, 13, 43, 0
15, 63780, Note_on_c, 13, 40, 76
15, 63839, Note_on_c, 13, 40, 0
15, 63840, Note_on_c, 13, 36, 76
15, 63929, Note_on_c, 13, 36, 0
15, 63960, Note_on_c, 13, 43, 76
15, 64019, Note_on_c, 13, 43, 0
15, 64020, Note_on_c, 13, 40, 76
15, 64079, Note_on_c, 13, 40, 0
15, 64080, Note_on_c, 13, 36, 76
15, 64169, Note_on_c, 13, 36, 0
15, 64200, Note_on_c, 13, 43, 76
15, 64259, Note_on_c, 13, 43, 0
15, 64260, Note_on_c, 13, 40, 76
15, 64319, Note_on_c, 13, 40, 0
15, 64320, Note_on_c, 13, 36, 76
15, 64409, Note_on_c, 13, 36, 0
15, 64800, Control_c, 13, 11, 127
15, 66240, Note_on_c, 13, 41, 52
15, 67199, Note_on_c, 13, 41, 0
15, 67200, Note_on_c, 13, 41, 52
15, 67664, Note_on_c, 13, 41, 0
15, 67680, Note_on_c, 13, 36, 52
15, 68144, Note_on_c, 13, 36, 0
15, 68160, Note_on_c, 13, 41, 52
15, 69104, Note_on_c, 13, 41, 0
15, 69120, Note_on_c, 13, 41, 52
15, 70064, Note_on_c, 13, 41, 0
15, 70065, Control_c, 13, 11, 80
15, 70080, Control_c, 13, 11, 80
15, 70080, Note_on_c, 13, 53, 76
15, 70120, Control_c, 13, 11, 82
15, 70160, Control_c, 13, 11, 84
15, 70200, Control_c, 13, 11, 86
15, 70240, Control_c, 13, 11, 88
15, 70280, Control_c, 13, 11, 90
15, 70319, Note_on_c, 13, 53, 0
15, 70320, Note_on_c, 13, 57, 76
15, 70320, Control_c, 13, 11, 92
15, 70360, Control_c, 13, 11, 94
15, 70400, Control_c, 13, 11, 96
15, 70440, Control_c, 13, 11, 98
15, 70480, Control_c, 13, 11, 100
15, 70520, Control_c, 13, 11, 102
15, 70559, Note_on_c, 13, 57, 0
15, 70560, Note_on_c, 13, 55, 76
15, 70560, Control_c, 13, 11, 104
15, 70600, Control_c, 13, 11, 105
15, 70640, Control_c, 13, 11, 107
15, 70680, Control_c, 13, 11, 109
15, 70720, Control_c, 13, 11, 111
15, 70760, Control_c, 13, 11, 113
15, 70800, Control_c, 13, 11, 115
15, 70840, Control_c, 13, 11, 117
15, 70880, Control_c, 13, 11, 119
15, 70919, Note_on_c, 13, 55, 0
15, 70920, Control_c, 13, 11, 121
15, 70920, Note_on_c, 13, 53, 76
15, 70960, Control_c, 13, 11, 123
15, 71000, Control_c, 13, 11, 125
15, 71024, Note_on_c, 13, 53, 0
15, 71040, Control_c, 13, 11, 127
15, 71040, Note_on_c, 13, 46, 76
15, 71279, Note_on_c, 13, 46, 0
15, 71280, Note_on_c, 13, 53, 76
15, 71504, Note_on_c, 13, 53, 0
15, 71520, Note_on_c, 13, 48, 76
15, 71984, Note_on_c, 13, 48, 0
15, 72000, Note_on_c, 13, 41, 76
15, 72239, Note_on_c, 13, 41, 0
15, 72240, Note_on_c, 13, 45, 76
15, 72479, Note_on_c, 13, 45, 0
15, 72480, Note_on_c, 13, 43, 76
15, 72839, Note_on_c, 13, 43, 0
15, 72840, Note_on_c, 13, 41, 76
15, 72944, Note_on_c, 13, 41, 0
15, 72958, Control_c, 13, 11, 80
15, 72960, Note_on_c, 13, 46, 76
15, 73199, Note_on_c, 13, 46, 0
15, 73200, Note_on_c, 13, 41, 76
15, 73424, Note_on_c, 13, 41, 0
15, 73440, Control_c, 13, 11, 80
15, 73440, Note_on_c, 13, 48, 76
15, 73493, Control_c, 13, 11, 81
15, 73547, Control_c, 13, 11, 83
15, 73600, Control_c, 13, 11, 84
15, 73653, Control_c, 13, 11, 85
15, 73707, Control_c, 13, 11, 87
15, 73760, Control_c, 13, 11, 88
15, 73784, Note_on_c, 13, 48, 0
15, 73800, Note_on_c, 13, 48, 76
15, 73813, Control_c, 13, 11, 89
15, 73867, Control_c, 13, 11, 90
15, 73904, Note_on_c, 13, 48, 0
15, 73920, Control_c, 13, 11, 92
15, 73920, Note_on_c, 13, 48, 76
15, 73973, Control_c, 13, 11, 93
15, 74027, Control_c, 13, 11, 94
15, 74080, Control_c, 13, 11, 96
15, 74133, Control_c, 13, 11, 97
15, 74187, Control_c, 13, 11, 98
15, 74240, Control_c, 13, 11, 100
15, 74264, Note_on_c, 13, 48, 0
15, 74280, Note_on_c, 13, 48, 76
15, 74293, Control_c, 13, 11, 101
15, 74347, Control_c, 13, 11, 102
15, 74384, Note_on_c, 13, 48, 0
15, 74400, Control_c, 13, 11, 104
15, 74400, Note_on_c, 13, 48, 76
15, 74453, Control_c, 13, 11, 105
15, 74507, Control_c, 13, 11, 106
15, 74560, Control_c, 13, 11, 107
15, 74613, Control_c, 13, 11, 109
15, 74667, Control_c, 13, 11, 110
15, 74720, Control_c, 13, 11, 111
15, 74744, Note_on_c, 13, 48, 0
15, 74760, Note_on_c, 13, 48, 76
15, 74773, Control_c, 13, 11, 113
15, 74827, Control_c, 13, 11, 114
15, 74864, Note_on_c, 13, 48, 0
15, 74880, Note_on_c, 13, 48, 76
15, 74880, Control_c, 13, 11, 115
15, 74933, Control_c, 13, 11, 117
15, 74987, Control_c, 13, 11, 118
15, 75040, Control_c, 13, 11, 119
15, 75093, Control_c, 13, 11, 120
15, 75147, Control_c, 13, 11, 122
15, 75200, Control_c, 13, 11, 123
15, 75224, Note_on_c, 13, 48, 0
15, 75240, Note_on_c, 13, 48, 76
15, 75253, Control_c, 13, 11, 124
15, 75307, Control_c, 13, 11, 127
15, 75344, Note_on_c, 13, 48, 0
15, 75360, Note_on_c, 13, 48, 76
15, 75704, Note_on_c, 13, 48, 0
15, 75720, Note_on_c, 13, 48, 76
15, 75824, Note_on_c, 13, 48, 0
15, 75840, Control_c, 13, 11, 127
15, 75840, Note_on_c, 13, 48, 76
15, 75893, Control_c, 13, 11, 125
15, 75947, Control_c, 13, 11, 124
15, 76000, Control_c, 13, 11, 122
15, 76053, Control_c, 13, 11, 120
15, 76107, Control_c, 13, 11, 118
15, 76160, Control_c, 13, 11, 117
15, 76184, Note_on_c, 13, 48, 0
15, 76200, Note_on_c, 13, 48, 76
15, 76213, Control_c, 13, 11, 115
15, 76267, Control_c, 13, 11, 113
15, 76304, Note_on_c, 13, 48, 0
15, 76320, Note_on_c, 13, 48, 76
15, 76320, Control_c, 13, 11, 111
15, 76373, Control_c, 13, 11, 110
15, 76427, Control_c, 13, 11, 108
15, 76480, Control_c, 13, 11, 106
15, 76533, Control_c, 13, 11, 104
15, 76587, Control_c, 13, 11, 103
15, 76640, Control_c, 13, 11, 101
15, 76664, Note_on_c, 13, 48, 0
15, 76680, Note_on_c, 13, 48, 76
15, 76693, Control_c, 13, 11, 99
15, 76747, Control_c, 13, 11, 97
15, 76784, Note_on_c, 13, 48, 0
15, 76800, Note_on_c, 13, 48, 76
15, 76800, Control_c, 13, 11, 96
15, 76853, Control_c, 13, 11, 94
15, 76907, Control_c, 13, 11, 92
15, 76960, Control_c, 13, 11, 90
15, 77013, Control_c, 13, 11, 89
15, 77067, Control_c, 13, 11, 87
15, 77120, Control_c, 13, 11, 85
15, 77144, Note_on_c, 13, 48, 0
15, 77160, Note_on_c, 13, 48, 76
15, 77173, Control_c, 13, 11, 83
15, 77227, Control_c, 13, 11, 82
15, 77264, Note_on_c, 13, 48, 0
15, 77280, Note_on_c, 13, 48, 76
15, 77280, Control_c, 13, 11, 80
15, 77333, Control_c, 13, 11, 78
15, 77387, Control_c, 13, 11, 76
15, 77440, Control_c, 13, 11, 75
15, 77493, Control_c, 13, 11, 73
15, 77547, Control_c, 13, 11, 71
15, 77600, Control_c, 13, 11, 69
15, 77624, Note_on_c, 13, 48, 0
15, 77640, Note_on_c, 13, 48, 76
15, 77653, Control_c, 13, 11, 68
15, 77707, Control_c, 13, 11, 64
15, 77744, Note_on_c, 13, 48, 0
15, 77760, Note_on_c, 13, 48, 76
15, 77879, Note_on_c, 13, 48, 0
15, 79440, Control_c, 13, 11, 127
15, 79680, Note_on_c, 13, 41, 44
15, 79731, Note_on_c, 13, 41, 0
15, 79740, Note_on_c, 13, 48, 44
15, 79791, Note_on_c, 13, 48, 0
15, 79800, Note_on_c, 13, 41, 44
15, 79851, Note_on_c, 13, 41, 0
15, 79860, Note_on_c, 13, 48, 44
15, 79911, Note_on_c, 13, 48, 0
15, 79920, Note_on_c, 13, 41, 44
15, 79971, Note_on_c, 13, 41, 0
15, 79980, Note_on_c, 13, 48, 44
15, 80031, Note_on_c, 13, 48, 0
15, 80040, Note_on_c, 13, 41, 44
15, 80091, Note_on_c, 13, 41, 0
15, 80100, Note_on_c, 13, 48, 44
15, 80151, Note_on_c, 13, 48, 0
15, 80160, Note_on_c, 13, 41, 44
15, 80211, Note_on_c, 13, 41, 0
15, 80220, Note_on_c, 13, 48, 44
15, 80271, Note_on_c, 13, 48, 0
15, 80280, Note_on_c, 13, 41, 44
15, 80331, Note_on_c, 13, 41, 0
15, 80340, Note_on_c, 13, 48, 44
15, 80391, Note_on_c, 13, 48, 0
15, 80400, Note_on_c, 13, 41, 44
15, 80451, Note_on_c, 13, 41, 0
15, 80460, Note_on_c, 13, 48, 44
15, 80511, Note_on_c, 13, 48, 0
15, 80520, Note_on_c, 13, 41, 44
15, 80571, Note_on_c, 13, 41, 0
15, 80580, Note_on_c, 13, 48, 44
15, 80631, Note_on_c, 13, 48, 0
15, 80640, Note_on_c, 13, 41, 44
15, 80691, Note_on_c, 13, 41, 0
15, 80700, Note_on_c, 13, 48, 44
15, 80751, Note_on_c, 13, 48, 0
15, 80760, Note_on_c, 13, 41, 44
15, 80811, Note_on_c, 13, 41, 0
15, 80820, Note_on_c, 13, 48, 44
15, 80871, Note_on_c, 13, 48, 0
15, 80880, Note_on_c, 13, 41, 44
15, 80931, Note_on_c, 13, 41, 0
15, 80940, Note_on_c, 13, 48, 44
15, 80991, Note_on_c, 13, 48, 0
15, 81000, Note_on_c, 13, 41, 44
15, 81051, Note_on_c, 13, 41, 0
15, 81060, Note_on_c, 13, 48, 44
15, 81111, Note_on_c, 13, 48, 0
15, 81120, Note_on_c, 13, 41, 44
15, 81171, Note_on_c, 13, 41, 0
15, 81180, Note_on_c, 13, 48, 44
15, 81231, Note_on_c, 13, 48, 0
15, 81240, Note_on_c, 13, 41, 44
15, 81291, Note_on_c, 13, 41, 0
15, 81300, Note_on_c, 13, 48, 44
15, 81351, Note_on_c, 13, 48, 0
15, 81360, Note_on_c, 13, 41, 44
15, 81411, Note_on_c, 13, 41, 0
15, 81420, Note_on_c, 13, 48, 44
15, 81471, Note_on_c, 13, 48, 0
15, 81480, Note_on_c, 13, 41, 44
15, 81531, Note_on_c, 13, 41, 0
15, 81540, Note_on_c, 13, 48, 44
15, 81591, Note_on_c, 13, 48, 0
15, 81600, Note_on_c, 13, 41, 44
15, 81651, Note_on_c, 13, 41, 0
15, 81660, Note_on_c, 13, 48, 45
15, 81711, Note_on_c, 13, 48, 0
15, 81720, Note_on_c, 13, 41, 46
15, 81771, Note_on_c, 13, 41, 0
15, 81780, Note_on_c, 13, 48, 47
15, 81831, Note_on_c, 13, 48, 0
15, 81840, Note_on_c, 13, 41, 48
15, 81891, Note_on_c, 13, 41, 0
15, 81900, Note_on_c, 13, 48, 49
15, 81951, Note_on_c, 13, 48, 0
15, 81960, Note_on_c, 13, 41, 50
15, 82011, Note_on_c, 13, 41, 0
15, 82020, Note_on_c, 13, 48, 51
15, 82071, Note_on_c, 13, 48, 0
15, 82080, Note_on_c, 13, 41, 52
15, 82131, Note_on_c, 13, 41, 0
15, 82140, Note_on_c, 13, 48, 53
15, 82191, Note_on_c, 13, 48, 0
15, 82200, Note_on_c, 13, 41, 54
15, 82251, Note_on_c, 13, 41, 0
15, 82260, Note_on_c, 13, 48, 55
15, 82311, Note_on_c, 13, 48, 0
15, 82320, Note_on_c, 13, 41, 56
15, 82371, Note_on_c, 13, 41, 0
15, 82380, Note_on_c, 13, 48, 57
15, 82431, Note_on_c, 13, 48, 0
15, 82440, Note_on_c, 13, 41, 58
15, 82491, Note_on_c, 13, 41, 0
15, 82500, Note_on_c, 13, 48, 59
15, 82551, Note_on_c, 13, 48, 0
15, 82560, Note_on_c, 13, 41, 60
15, 82611, Note_on_c, 13, 41, 0
15, 82620, Note_on_c, 13, 48, 61
15, 82671, Note_on_c, 13, 48, 0
15, 82680, Note_on_c, 13, 41, 62
15, 82731, Note_on_c, 13, 41, 0
15, 82740, Note_on_c, 13, 48, 63
15, 82791, Note_on_c, 13, 48, 0
15, 82800, Note_on_c, 13, 41, 64
15, 82851, Note_on_c, 13, 41, 0
15, 82860, Note_on_c, 13, 48, 65
15, 82911, Note_on_c, 13, 48, 0
15, 82920, Note_on_c, 13, 41, 66
15, 82971, Note_on_c, 13, 41, 0
15, 82980, Note_on_c, 13, 48, 67
15, 83031, Note_on_c, 13, 48, 0
15, 83040, Note_on_c, 13, 41, 68
15, 83091, Note_on_c, 13, 41, 0
15, 83100, Note_on_c, 13, 48, 69
15, 83151, Note_on_c, 13, 48, 0
15, 83160, Note_on_c, 13, 41, 70
15, 83211, Note_on_c, 13, 41, 0
15, 83220, Note_on_c, 13, 48, 71
15, 83271, Note_on_c, 13, 48, 0
15, 83280, Note_on_c, 13, 41, 72
15, 83331, Note_on_c, 13, 41, 0
15, 83340, Note_on_c, 13, 48, 73
15, 83391, Note_on_c, 13, 48, 0
15, 83400, Note_on_c, 13, 41, 74
15, 83451, Note_on_c, 13, 41, 0
15, 83460, Note_on_c, 13, 48, 75
15, 83511, Note_on_c, 13, 48, 0
15, 83520, Note_on_c, 13, 41, 76
15, 83571, Note_on_c, 13, 41, 0
15, 83580, Note_on_c, 13, 48, 76
15, 83631, Note_on_c, 13, 48, 0
15, 83640, Note_on_c, 13, 41, 76
15, 83691, Note_on_c, 13, 41, 0
15, 83700, Note_on_c, 13, 48, 76
15, 83751, Note_on_c, 13, 48, 0
15, 83760, Note_on_c, 13, 41, 76
15, 83811, Note_on_c, 13, 41, 0
15, 83820, Note_on_c, 13, 48, 76
15, 83871, Note_on_c, 13, 48, 0
15, 83880, Note_on_c, 13, 41, 76
15, 83931, Note_on_c, 13, 41, 0
15, 83940, Note_on_c, 13, 48, 76
15, 83991, Note_on_c, 13, 48, 0
15, 84000, Note_on_c, 13, 41, 76
15, 84051, Note_on_c, 13, 41, 0
15, 84060, Note_on_c, 13, 48, 76
15, 84111, Note_on_c, 13, 48, 0
15, 84120, Note_on_c, 13, 41, 76
15, 84171, Note_on_c, 13, 41, 0
15, 84180, Note_on_c, 13, 48, 76
15, 84231, Note_on_c, 13, 48, 0
15, 84240, Note_on_c, 13, 41, 76
15, 84291, Note_on_c, 13, 41, 0
15, 84300, Note_on_c, 13, 48, 76
15, 84351, Note_on_c, 13, 48, 0
15, 84360, Note_on_c, 13, 41, 76
15, 84411, Note_on_c, 13, 41, 0
15, 84420, Note_on_c, 13, 48, 76
15, 84471, Note_on_c, 13, 48, 0
15, 84480, Note_on_c, 13, 41, 76
15, 84531, Note_on_c, 13, 41, 0
15, 84540, Note_on_c, 13, 48, 76
15, 84591, Note_on_c, 13, 48, 0
15, 84600, Note_on_c, 13, 41, 76
15, 84651, Note_on_c, 13, 41, 0
15, 84660, Note_on_c, 13, 48, 76
15, 84711, Note_on_c, 13, 48, 0
15, 84720, Note_on_c, 13, 41, 76
15, 84771, Note_on_c, 13, 41, 0
15, 84780, Note_on_c, 13, 48, 76
15, 84831, Note_on_c, 13, 48, 0
15, 84840, Note_on_c, 13, 41, 76
15, 84891, Note_on_c, 13, 41, 0
15, 84900, Note_on_c, 13, 48, 76
15, 84951, Note_on_c, 13, 48, 0
15, 84960, Note_on_c, 13, 41, 76
15, 85011, Note_on_c, 13, 41, 0
15, 85020, Note_on_c, 13, 48, 76
15, 85071, Note_on_c, 13, 48, 0
15, 85080, Note_on_c, 13, 41, 76
15, 85131, Note_on_c, 13, 41, 0
15, 85140, Note_on_c, 13, 48, 76
15, 85191, Note_on_c, 13, 48, 0
15, 85200, Note_on_c, 13, 41, 76
15, 85251, Note_on_c, 13, 41, 0
15, 85260, Note_on_c, 13, 48, 76
15, 85311, Note_on_c, 13, 48, 0
15, 85320, Note_on_c, 13, 41, 76
15, 85371, Note_on_c, 13, 41, 0
15, 85380, Note_on_c, 13, 48, 76
15, 85431, Note_on_c, 13, 48, 0
15, 85440, Note_on_c, 13, 41, 76
15, 85491, Note_on_c, 13, 41, 0
15, 85500, Note_on_c, 13, 48, 76
15, 85551, Note_on_c, 13, 48, 0
15, 85560, Note_on_c, 13, 41, 76
15, 85611, Note_on_c, 13, 41, 0
15, 85620, Note_on_c, 13, 48, 76
15, 85671, Note_on_c, 13, 48, 0
15, 85680, Note_on_c, 13, 41, 76
15, 85731, Note_on_c, 13, 41, 0
15, 85740, Note_on_c, 13, 48, 76
15, 85791, Note_on_c, 13, 48, 0
15, 85800, Note_on_c, 13, 41, 76
15, 85851, Note_on_c, 13, 41, 0
15, 85860, Note_on_c, 13, 48, 76
15, 85911, Note_on_c, 13, 48, 0
15, 85920, Note_on_c, 13, 41, 76
15, 85971, Note_on_c, 13, 41, 0
15, 85980, Note_on_c, 13, 48, 76
15, 86031, Note_on_c, 13, 48, 0
15, 86040, Note_on_c, 13, 41, 76
15, 86091, Note_on_c, 13, 41, 0
15, 86100, Note_on_c, 13, 48, 76
15, 86151, Note_on_c, 13, 48, 0
15, 86160, Note_on_c, 13, 41, 76
15, 86211, Note_on_c, 13, 41, 0
15, 86220, Note_on_c, 13, 48, 76
15, 86271, Note_on_c, 13, 48, 0
15, 86280, Note_on_c, 13, 41, 76
15, 86331, Note_on_c, 13, 41, 0
15, 86340, Note_on_c, 13, 48, 76
15, 86391, Note_on_c, 13, 48, 0
15, 86400, Note_on_c, 13, 36, 76
15, 86451, Note_on_c, 13, 36, 0
15, 86460, Note_on_c, 13, 48, 76
15, 86511, Note_on_c, 13, 48, 0
15, 86520, Note_on_c, 13, 36, 76
15, 86571, Note_on_c, 13, 36, 0
15, 86580, Note_on_c, 13, 48, 76
15, 86631, Note_on_c, 13, 48, 0
15, 86640, Note_on_c, 13, 36, 76
15, 86691, Note_on_c, 13, 36, 0
15, 86700, Note_on_c, 13, 48, 76
15, 86751, Note_on_c, 13, 48, 0
15, 86760, Note_on_c, 13, 36, 76
15, 86811, Note_on_c, 13, 36, 0
15, 86820, Note_on_c, 13, 48, 76
15, 86871, Note_on_c, 13, 48, 0
15, 86880, Note_on_c, 13, 36, 76
15, 86931, Note_on_c, 13, 36, 0
15, 86940, Note_on_c, 13, 48, 76
15, 86991, Note_on_c, 13, 48, 0
15, 87000, Note_on_c, 13, 36, 76
15, 87051, Note_on_c, 13, 36, 0
15, 87060, Note_on_c, 13, 48, 76
15, 87111, Note_on_c, 13, 48, 0
15, 87120, Note_on_c, 13, 36, 76
15, 87171, Note_on_c, 13, 36, 0
15, 87180, Note_on_c, 13, 48, 76
15, 87231, Note_on_c, 13, 48, 0
15, 87240, Note_on_c, 13, 36, 76
15, 87291, Note_on_c, 13, 36, 0
15, 87300, Note_on_c, 13, 48, 76
15, 87351, Note_on_c, 13, 48, 0
15, 87360, Note_on_c, 13, 36, 76
15, 87411, Note_on_c, 13, 36, 0
15, 87420, Note_on_c, 13, 48, 76
15, 87471, Note_on_c, 13, 48, 0
15, 87480, Note_on_c, 13, 36, 76
15, 87531, Note_on_c, 13, 36, 0
15, 87540, Note_on_c, 13, 48, 76
15, 87591, Note_on_c, 13, 48, 0
15, 87600, Note_on_c, 13, 36, 76
15, 87651, Note_on_c, 13, 36, 0
15, 87660, Note_on_c, 13, 48, 76
15, 87711, Note_on_c, 13, 48, 0
15, 87720, Note_on_c, 13, 36, 76
15, 87771, Note_on_c, 13, 36, 0
15, 87780, Note_on_c, 13, 48, 76
15, 87831, Note_on_c, 13, 48, 0
15, 87840, Note_on_c, 13, 36, 76
15, 87891, Note_on_c, 13, 36, 0
15, 87900, Note_on_c, 13, 48, 76
15, 87951, Note_on_c, 13, 48, 0
15, 87960, Note_on_c, 13, 36, 76
15, 88011, Note_on_c, 13, 36, 0
15, 88020, Note_on_c, 13, 48, 76
15, 88071, Note_on_c, 13, 48, 0
15, 88080, Note_on_c, 13, 36, 76
15, 88131, Note_on_c, 13, 36, 0
15, 88140, Note_on_c, 13, 48, 76
15, 88191, Note_on_c, 13, 48, 0
15, 88200, Note_on_c, 13, 36, 76
15, 88251, Note_on_c, 13, 36, 0
15, 88260, Note_on_c, 13, 48, 76
15, 88311, Note_on_c, 13, 48, 0
15, 88320, Note_on_c, 13, 41, 76
15, 88371, Note_on_c, 13, 41, 0
15, 88380, Note_on_c, 13, 48, 76
15, 88431, Note_on_c, 13, 48, 0
15, 88440, Note_on_c, 13, 41, 76
15, 88491, Note_on_c, 13, 41, 0
15, 88500, Note_on_c, 13, 48, 76
15, 88551, Note_on_c, 13, 48, 0
15, 88560, Note_on_c, 13, 41, 76
15, 88611, Note_on_c, 13, 41, 0
15, 88620, Note_on_c, 13, 48, 76
15, 88671, Note_on_c, 13, 48, 0
15, 88680, Note_on_c, 13, 41, 76
15, 88731, Note_on_c, 13, 41, 0
15, 88740, Note_on_c, 13, 48, 76
15, 88791, Note_on_c, 13, 48, 0
15, 88800, Note_on_c, 13, 41, 76
15, 88851, Note_on_c, 13, 41, 0
15, 88860, Note_on_c, 13, 48, 76
15, 88911, Note_on_c, 13, 48, 0
15, 88920, Note_on_c, 13, 41, 76
15, 88971, Note_on_c, 13, 41, 0
15, 88980, Note_on_c, 13, 48, 76
15, 89031, Note_on_c, 13, 48, 0
15, 89040, Note_on_c, 13, 41, 76
15, 89091, Note_on_c, 13, 41, 0
15, 89100, Note_on_c, 13, 48, 76
15, 89151, Note_on_c, 13, 48, 0
15, 89160, Note_on_c, 13, 41, 76
15, 89211, Note_on_c, 13, 41, 0
15, 89220, Note_on_c, 13, 48, 76
15, 89271, Note_on_c, 13, 48, 0
15, 89280, Note_on_c, 13, 41, 76
15, 89331, Note_on_c, 13, 41, 0
15, 89340, Note_on_c, 13, 48, 76
15, 89391, Note_on_c, 13, 48, 0
15, 89400, Note_on_c, 13, 41, 76
15, 89451, Note_on_c, 13, 41, 0
15, 89460, Note_on_c, 13, 48, 76
15, 89511, Note_on_c, 13, 48, 0
15, 89520, Note_on_c, 13, 41, 76
15, 89571, Note_on_c, 13, 41, 0
15, 89580, Note_on_c, 13, 48, 76
15, 89631, Note_on_c, 13, 48, 0
15, 89640, Note_on_c, 13, 41, 76
15, 89691, Note_on_c, 13, 41, 0
15, 89700, Note_on_c, 13, 48, 76
15, 89751, Note_on_c, 13, 48, 0
15, 89760, Note_on_c, 13, 41, 76
15, 89811, Note_on_c, 13, 41, 0
15, 89820, Note_on_c, 13, 48, 76
15, 89871, Note_on_c, 13, 48, 0
15, 89880, Note_on_c, 13, 41, 76
15, 89931, Note_on_c, 13, 41, 0
15, 89940, Note_on_c, 13, 48, 76
15, 89991, Note_on_c, 13, 48, 0
15, 90000, Note_on_c, 13, 41, 76
15, 90051, Note_on_c, 13, 41, 0
15, 90060, Note_on_c, 13, 48, 76
15, 90111, Note_on_c, 13, 48, 0
15, 90120, Note_on_c, 13, 41, 76
15, 90171, Note_on_c, 13, 41, 0
15, 90180, Note_on_c, 13, 48, 76
15, 90231, Note_on_c, 13, 48, 0
15, 90240, Note_on_c, 13, 41, 76
15, 90291, Note_on_c, 13, 41, 0
15, 90300, Note_on_c, 13, 48, 76
15, 90351, Note_on_c, 13, 48, 0
15, 90360, Note_on_c, 13, 41, 76
15, 90411, Note_on_c, 13, 41, 0
15, 90420, Note_on_c, 13, 48, 76
15, 90471, Note_on_c, 13, 48, 0
15, 90480, Note_on_c, 13, 41, 76
15, 90531, Note_on_c, 13, 41, 0
15, 90540, Note_on_c, 13, 48, 76
15, 90591, Note_on_c, 13, 48, 0
15, 90600, Note_on_c, 13, 41, 76
15, 90651, Note_on_c, 13, 41, 0
15, 90660, Note_on_c, 13, 48, 76
15, 90711, Note_on_c, 13, 48, 0
15, 90720, Note_on_c, 13, 41, 76
15, 90771, Note_on_c, 13, 41, 0
15, 90780, Note_on_c, 13, 48, 76
15, 90831, Note_on_c, 13, 48, 0
15, 90840, Note_on_c, 13, 41, 76
15, 90891, Note_on_c, 13, 41, 0
15, 90900, Note_on_c, 13, 48, 76
15, 90951, Note_on_c, 13, 48, 0
15, 90960, Note_on_c, 13, 41, 76
15, 91011, Note_on_c, 13, 41, 0
15, 91020, Note_on_c, 13, 48, 76
15, 91071, Note_on_c, 13, 48, 0
15, 91080, Note_on_c, 13, 41, 76
15, 91131, Note_on_c, 13, 41, 0
15, 91140, Note_on_c, 13, 48, 76
15, 91191, Note_on_c, 13, 48, 0
15, 91200, Note_on_c, 13, 41, 76
15, 91319, Note_on_c, 13, 41, 0
15, 92880, Program_c, 13, 45
15, 93120, Note_on_c, 13, 50, 48
15, 93239, Note_on_c, 13, 50, 0
15, 95040, Note_on_c, 13, 48, 48
15, 95279, Note_on_c, 13, 48, 0
15, 96000, Note_on_c, 13, 47, 48
15, 96239, Note_on_c, 13, 47, 0
15, 97440, Program_c, 13, 48
15, 97560, Note_on_c, 13, 45, 52
15, 97679, Note_on_c, 13, 45, 0
15, 97680, Note_on_c, 13, 43, 52
15, 97784, Note_on_c, 13, 43, 0
15, 97800, Note_on_c, 13, 42, 52
15, 97889, Note_on_c, 13, 42, 0
15, 97920, Note_on_c, 13, 43, 52
15, 98864, Note_on_c, 13, 43, 0
15, 98880, Note_on_c, 13, 48, 52
15, 99824, Note_on_c, 13, 48, 0
15, 99840, Note_on_c, 13, 47, 52
15, 100064, Note_on_c, 13, 47, 0
15, 100080, Note_on_c, 13, 47, 52
15, 100304, Note_on_c, 13, 47, 0
15, 100320, Note_on_c, 13, 47, 52
15, 100559, Note_on_c, 13, 47, 0
15, 100560, Note_on_c, 13, 50, 52
15, 100679, Note_on_c, 13, 50, 0
15, 100680, Note_on_c, 13, 47, 52
15, 100784, Note_on_c, 13, 47, 0
15, 100800, Note_on_c, 13, 48, 52
15, 101024, Note_on_c, 13, 48, 0
15, 101040, Note_on_c, 13, 48, 52
15, 101264, Note_on_c, 13, 48, 0
15, 101280, Note_on_c, 13, 48, 52
15, 101519, Note_on_c, 13, 48, 0
15, 101520, Note_on_c, 13, 52, 52
15, 101639, Note_on_c, 13, 52, 0
15, 101640, Note_on_c, 13, 48, 52
15, 101744, Note_on_c, 13, 48, 0
15, 101758, Control_c, 13, 11, 80
15, 101760, Note_on_c, 13, 57, 76
15, 101760, Control_c, 13, 11, 80
15, 101879, Note_on_c, 13, 57, 0
15, 101880, Note_on_c, 13, 55, 76
15, 101944, Control_c, 13, 11, 81
15, 101999, Note_on_c, 13, 55, 0
15, 102000, Note_on_c, 13, 53, 76
15, 102119, Note_on_c, 13, 53, 0
15, 102120, Note_on_c, 13, 50, 76
15, 102128, Control_c, 13, 11, 82
15, 102239, Note_on_c, 13, 50, 0
15, 102240, Note_on_c, 13, 43, 76
15, 102311, Control_c, 13, 11, 83
15, 102359, Note_on_c, 13, 43, 0
15, 102360, Note_on_c, 13, 53, 76
15, 102479, Note_on_c, 13, 53, 0
15, 102480, Note_on_c, 13, 50, 76
15, 102495, Control_c, 13, 11, 84
15, 102599, Note_on_c, 13, 50, 0
15, 102600, Note_on_c, 13, 43, 76
15, 102679, Control_c, 13, 11, 85
15, 102704, Note_on_c, 13, 43, 0
15, 102720, Note_on_c, 13, 57, 76
15, 102839, Note_on_c, 13, 57, 0
15, 102840, Note_on_c, 13, 55, 76
15, 102863, Control_c, 13, 11, 86
15, 102959, Note_on_c, 13, 55, 0
15, 102960, Note_on_c, 13, 52, 76
15, 103047, Control_c, 13, 11, 87
15, 103079, Note_on_c, 13, 52, 0
15, 103080, Note_on_c, 13, 48, 76
15, 103199, Note_on_c, 13, 48, 0
15, 103200, Note_on_c, 13, 43, 76
15, 103231, Control_c, 13, 11, 88
15, 103319, Note_on_c, 13, 43, 0
15, 103320, Note_on_c, 13, 52, 76
15, 103414, Control_c, 13, 11, 89
15, 103439, Note_on_c, 13, 52, 0
15, 103440, Note_on_c, 13, 48, 76
15, 103559, Note_on_c, 13, 48, 0
15, 103560, Note_on_c, 13, 43, 76
15, 103598, Control_c, 13, 11, 90
15, 103664, Note_on_c, 13, 43, 0
15, 103680, Note_on_c, 13, 57, 76
15, 103782, Control_c, 13, 11, 91
15, 103799, Note_on_c, 13, 57, 0
15, 103800, Note_on_c, 13, 55, 76
15, 103919, Note_on_c, 13, 55, 0
15, 103920, Note_on_c, 13, 53, 76
15, 103966, Control_c, 13, 11, 92
15, 104039, Note_on_c, 13, 53, 0
15, 104040, Note_on_c, 13, 50, 76
15, 104150, Control_c, 13, 11, 93
15, 104159, Note_on_c, 13, 50, 0
15, 104160, Note_on_c, 13, 43, 76
15, 104279, Note_on_c, 13, 43, 0
15, 104280, Note_on_c, 13, 53, 76
15, 104334, Control_c, 13, 11, 94
15, 104399, Note_on_c, 13, 53, 0
15, 104400, Note_on_c, 13, 50, 76
15, 104517, Control_c, 13, 11, 95
15, 104519, Note_on_c, 13, 50, 0
15, 104520, Note_on_c, 13, 43, 76
15, 104624, Note_on_c, 13, 43, 0
15, 104640, Note_on_c, 13, 57, 76
15, 104701, Control_c, 13, 11, 96
15, 104759, Note_on_c, 13, 57, 0
15, 104760, Note_on_c, 13, 55, 76
15, 104879, Note_on_c, 13, 55, 0
15, 104880, Note_on_c, 13, 52, 76
15, 104885, Control_c, 13, 11, 97
15, 104999, Note_on_c, 13, 52, 0
15, 105000, Note_on_c, 13, 48, 76
15, 105069, Control_c, 13, 11, 98
15, 105119, Note_on_c, 13, 48, 0
15, 105120, Note_on_c, 13, 43, 76
15, 105239, Note_on_c, 13, 43, 0
15, 105240, Note_on_c, 13, 52, 76
15, 105253, Control_c, 13, 11, 99
15, 105359, Note_on_c, 13, 52, 0
15, 105360, Note_on_c, 13, 48, 76
15, 105437, Control_c, 13, 11, 100
15, 105479, Note_on_c, 13, 48, 0
15, 105480, Note_on_c, 13, 43, 76
15, 105584, Note_on_c, 13, 43, 0
15, 105600, Note_on_c, 13, 43, 76
15, 105620, Control_c, 13, 11, 101
15, 105804, Control_c, 13, 11, 102
15, 105988, Control_c, 13, 11, 103
15, 106172, Control_c, 13, 11, 104
15, 106356, Control_c, 13, 11, 105
15, 106540, Control_c, 13, 11, 106
15, 106544, Note_on_c, 13, 43, 0
15, 106560, Note_on_c, 13, 48, 76
15, 106723, Control_c, 13, 11, 107
15, 106907, Control_c, 13, 11, 108
15, 107091, Control_c, 13, 11, 109
15, 107275, Control_c, 13, 11, 110
15, 107459, Control_c, 13, 11, 111
15, 107504, Note_on_c, 13, 48, 0
15, 107520, Note_on_c, 13, 47, 76
15, 107643, Control_c, 13, 11, 112
15, 107744, Note_on_c, 13, 47, 0
15, 107760, Note_on_c, 13, 47, 76
15, 107826, Control_c, 13, 11, 113
15, 107984, Note_on_c, 13, 47, 0
15, 108000, Note_on_c, 13, 47, 76
15, 108010, Control_c, 13, 11, 114
15, 108194, Control_c, 13, 11, 115
15, 108239, Note_on_c, 13, 47, 0
15, 108240, Note_on_c, 13, 50, 76
15, 108359, Note_on_c, 13, 50, 0
15, 108360, Note_on_c, 13, 47, 76
15, 108378, Control_c, 13, 11, 116
15, 108464, Note_on_c, 13, 47, 0
15, 108480, Note_on_c, 13, 48, 76
15, 108562, Control_c, 13, 11, 117
15, 108704, Note_on_c, 13, 48, 0
15, 108720, Note_on_c, 13, 48, 76
15, 108746, Control_c, 13, 11, 118
15, 108929, Control_c, 13, 11, 119
15, 108944, Note_on_c, 13, 48, 0
15, 108960, Note_on_c, 13, 48, 76
15, 109113, Control_c, 13, 11, 120
15, 109199, Note_on_c, 13, 48, 0
15, 109200, Note_on_c, 13, 52, 76
15, 109297, Control_c, 13, 11, 121
15, 109319, Note_on_c, 13, 52, 0
15, 109320, Note_on_c, 13, 48, 76
15, 109424, Note_on_c, 13, 48, 0
15, 109440, Note_on_c, 13, 50, 76
15, 109481, Control_c, 13, 11, 122
15, 109664, Note_on_c, 13, 50, 0
15, 109665, Control_c, 13, 11, 123
15, 109680, Note_on_c, 13, 50, 76
15, 109849, Control_c, 13, 11, 124
15, 109904, Note_on_c, 13, 50, 0
15, 109920, Note_on_c, 13, 50, 76
15, 110032, Control_c, 13, 11, 125
15, 110159, Note_on_c, 13, 50, 0
15, 110160, Note_on_c, 13, 53, 76
15, 110216, Control_c, 13, 11, 127
15, 110279, Note_on_c, 13, 53, 0
15, 110280, Note_on_c, 13, 50, 76
15, 110384, Note_on_c, 13, 50, 0
15, 110400, Note_on_c, 13, 48, 76
15, 111359, Note_on_c, 13, 48, 0
15, 111360, Note_on_c, 13, 48, 76
15, 111824, Note_on_c, 13, 48, 0
15, 111840, Note_on_c, 13, 41, 76
15, 111959, Note_on_c, 13, 41, 0
15, 112320, Note_on_c, 13, 41, 52
15, 112799, Note_on_c, 13, 41, 0
15, 112800, Note_on_c, 13, 48, 52
15, 113279, Note_on_c, 13, 48, 0
15, 113280, Note_on_c, 13, 43, 52
15, 113744, Note_on_c, 13, 43, 0
15, 113760, Note_on_c, 13, 48, 84
15, 114719, Note_on_c, 13, 48, 0
15, 114720, Note_on_c, 13, 48, 84
15, 115184, Note_on_c, 13, 48, 0
15, 115200, Note_on_c, 13, 41, 76
15, 115319, Note_on_c, 13, 41, 0
15, 115440, Control_c, 13, 11, 80
15, 115680, Note_on_c, 13, 41, 76
15, 116159, Note_on_c, 13, 41, 0
15, 116160, Note_on_c, 13, 48, 76
15, 116639, Note_on_c, 13, 48, 0
15, 116640, Note_on_c, 13, 43, 76
15, 117104, Note_on_c, 13, 43, 0
15, 117120, Note_on_c, 13, 48, 76
15, 117120, Control_c, 13, 11, 80
15, 117173, Control_c, 13, 11, 81
15, 117227, Control_c, 13, 11, 83
15, 117280, Control_c, 13, 11, 84
15, 117333, Control_c, 13, 11, 85
15, 117344, Note_on_c, 13, 48, 0
15, 117360, Note_on_c, 13, 48, 76
15, 117387, Control_c, 13, 11, 87
15, 117440, Control_c, 13, 11, 88
15, 117493, Control_c, 13, 11, 89
15, 117547, Control_c, 13, 11, 90
15, 117599, Note_on_c, 13, 48, 0
15, 117600, Note_on_c, 13, 41, 76
15, 117600, Control_c, 13, 11, 92
15, 117653, Control_c, 13, 11, 93
15, 117707, Control_c, 13, 11, 94
15, 117760, Control_c, 13, 11, 96
15, 117813, Control_c, 13, 11, 97
15, 117824, Note_on_c, 13, 41, 0
15, 117840, Note_on_c, 13, 41, 76
15, 117867, Control_c, 13, 11, 98
15, 117920, Control_c, 13, 11, 100
15, 117973, Control_c, 13, 11, 101
15, 118027, Control_c, 13, 11, 102
15, 118079, Note_on_c, 13, 41, 0
15, 118080, Control_c, 13, 11, 104
15, 118080, Note_on_c, 13, 48, 76
15, 118133, Control_c, 13, 11, 105
15, 118187, Control_c, 13, 11, 106
15, 118240, Control_c, 13, 11, 107
15, 118293, Control_c, 13, 11, 109
15, 118304, Note_on_c, 13, 48, 0
15, 118320, Note_on_c, 13, 48, 76
15, 118347, Control_c, 13, 11, 110
15, 118400, Control_c, 13, 11, 111
15, 118453, Control_c, 13, 11, 113
15, 118507, Control_c, 13, 11, 114
15, 118559, Note_on_c, 13, 48, 0
15, 118560, Control_c, 13, 11, 115
15, 118560, Note_on_c, 13, 43, 76
15, 118613, Control_c, 13, 11, 117
15, 118667, Control_c, 13, 11, 118
15, 118720, Control_c, 13, 11, 119
15, 118773, Control_c, 13, 11, 120
15, 118784, Note_on_c, 13, 43, 0
15, 118800, Note_on_c, 13, 43, 76
15, 118827, Control_c, 13, 11, 122
15, 118880, Control_c, 13, 11, 123
15, 118933, Control_c, 13, 11, 124
15, 118987, Control_c, 13, 11, 127
15, 119024, Note_on_c, 13, 43, 0
15, 119040, Note_on_c, 13, 48, 76
15, 119107, Note_on_c, 13, 48, 0
15, 119120, Note_on_c, 13, 48, 76
15, 119187, Note_on_c, 13, 48, 0
15, 119200, Note_on_c, 13, 48, 76
15, 119267, Note_on_c, 13, 48, 0
15, 119280, Note_on_c, 13, 48, 76
15, 119347, Note_on_c, 13, 48, 0
15, 119360, Note_on_c, 13, 50, 76
15, 119427, Note_on_c, 13, 50, 0
15, 119440, Note_on_c, 13, 52, 76
15, 119507, Note_on_c, 13, 52, 0
15, 119520, Note_on_c, 13, 53, 76
15, 119587, Note_on_c, 13, 53, 0
15, 119600, Note_on_c, 13, 53, 76
15, 119667, Note_on_c, 13, 53, 0
15, 119680, Note_on_c, 13, 53, 76
15, 119747, Note_on_c, 13, 53, 0
15, 119760, Note_on_c, 13, 57, 76
15, 119827, Note_on_c, 13, 57, 0
15, 119840, Note_on_c, 13, 57, 76
15, 119907, Note_on_c, 13, 57, 0
15, 119920, Note_on_c, 13, 57, 76
15, 119987, Note_on_c, 13, 57, 0
15, 120000, Note_on_c, 13, 60, 76
15, 120067, Note_on_c, 13, 60, 0
15, 120080, Note_on_c, 13, 60, 76
15, 120147, Note_on_c, 13, 60, 0
15, 120160, Note_on_c, 13, 60, 76
15, 120227, Note_on_c, 13, 60, 0
15, 120240, Note_on_c, 13, 64, 76
15, 120307, Note_on_c, 13, 64, 0
15, 120320, Note_on_c, 13, 64, 76
15, 120387, Note_on_c, 13, 64, 0
15, 120400, Note_on_c, 13, 64, 76
15, 120467, Note_on_c, 13, 64, 0
15, 120480, Note_on_c, 13, 67, 76
15, 120547, Note_on_c, 13, 67, 0
15, 120560, Note_on_c, 13, 43, 76
15, 120627, Note_on_c, 13, 43, 0
15, 120640, Note_on_c, 13, 43, 76
15, 120707, Note_on_c, 13, 43, 0
15, 120720, Note_on_c, 13, 43, 76
15, 120787, Note_on_c, 13, 43, 0
15, 120800, Note_on_c, 13, 43, 76
15, 120867, Note_on_c, 13, 43, 0
15, 120880, Note_on_c, 13, 43, 76
15, 120947, Note_on_c, 13, 43, 0
15, 120960, Note_on_c, 13, 36, 76
15, 121027, Note_on_c, 13, 36, 0
15, 121040, Note_on_c, 13, 36, 76
15, 121107, Note_on_c, 13, 36, 0
15, 121120, Note_on_c, 13, 36, 76
15, 121187, Note_on_c, 13, 36, 0
15, 121200, Note_on_c, 13, 36, 76
15, 121987, Note_on_c, 13, 36, 0
15, 122000, Note_on_c, 13, 36, 76
15, 122067, Note_on_c, 13, 36, 0
15, 122080, Note_on_c, 13, 36, 76
15, 122147, Note_on_c, 13, 36, 0
15, 122160, Note_on_c, 13, 36, 76
15, 122947, Note_on_c, 13, 36, 0
15, 122960, Note_on_c, 13, 36, 76
15, 123027, Note_on_c, 13, 36, 0
15, 123040, Note_on_c, 13, 36, 76
15, 123107, Note_on_c, 13, 36, 0
15, 123120, Note_on_c, 13, 36, 76
15, 123907, Note_on_c, 13, 36, 0
15, 123920, Note_on_c, 13, 36, 76
15, 123987, Note_on_c, 13, 36, 0
15, 124000, Note_on_c, 13, 36, 76
15, 124067, Note_on_c, 13, 36, 0
15, 124080, Note_on_c, 13, 36, 76
15, 124800, Control_c, 13, 11, 127
15, 124853, Control_c, 13, 11, 126
15, 124867, Note_on_c, 13, 36, 0
15, 124880, Note_on_c, 13, 36, 76
15, 124907, Control_c, 13, 11, 124
15, 124947, Note_on_c, 13, 36, 0
15, 124960, Note_on_c, 13, 36, 76
15, 124960, Control_c, 13, 11, 123
15, 125013, Control_c, 13, 11, 122
15, 125027, Note_on_c, 13, 36, 0
15, 125040, Note_on_c, 13, 36, 76
15, 125067, Control_c, 13, 11, 120
15, 125120, Control_c, 13, 11, 119
15, 125173, Control_c, 13, 11, 118
15, 125227, Control_c, 13, 11, 117
15, 125280, Control_c, 13, 11, 115
15, 125333, Control_c, 13, 11, 114
15, 125347, Note_on_c, 13, 36, 0
15, 125360, Note_on_c, 13, 36, 76
15, 125387, Control_c, 13, 11, 113
15, 125427, Note_on_c, 13, 36, 0
15, 125440, Control_c, 13, 11, 111
15, 125440, Note_on_c, 13, 36, 76
15, 125493, Control_c, 13, 11, 110
15, 125507, Note_on_c, 13, 36, 0
15, 125520, Note_on_c, 13, 36, 76
15, 125547, Control_c, 13, 11, 109
15, 125600, Control_c, 13, 11, 107
15, 125653, Control_c, 13, 11, 106
15, 125707, Control_c, 13, 11, 105
15, 125760, Control_c, 13, 11, 104
15, 125813, Control_c, 13, 11, 102
15, 125827, Note_on_c, 13, 36, 0
15, 125840, Note_on_c, 13, 36, 76
15, 125867, Control_c, 13, 11, 101
15, 125907, Note_on_c, 13, 36, 0
15, 125920, Control_c, 13, 11, 100
15, 125920, Note_on_c, 13, 36, 76
15, 125973, Control_c, 13, 11, 98
15, 125987, Note_on_c, 13, 36, 0
15, 126000, Note_on_c, 13, 36, 76
15, 126027, Control_c, 13, 11, 97
15, 126080, Control_c, 13, 11, 96
15, 126133, Control_c, 13, 11, 94
15, 126187, Control_c, 13, 11, 93
15, 126240, Control_c, 13, 11, 92
15, 126293, Control_c, 13, 11, 90
15, 126307, Note_on_c, 13, 36, 0
15, 126320, Note_on_c, 13, 36, 76
15, 126347, Control_c, 13, 11, 89
15, 126387, Note_on_c, 13, 36, 0
15, 126400, Control_c, 13, 11, 88
15, 126400, Note_on_c, 13, 36, 76
15, 126453, Control_c, 13, 11, 87
15, 126467, Note_on_c, 13, 36, 0
15, 126480, Note_on_c, 13, 36, 76
15, 126507, Control_c, 13, 11, 85
15, 126560, Control_c, 13, 11, 84
15, 126613, Control_c, 13, 11, 83
15, 126667, Control_c, 13, 11, 80
15, 126787, Note_on_c, 13, 36, 0
15, 126800, Note_on_c, 13, 36, 76
15, 126867, Note_on_c, 13, 36, 0
15, 126880, Note_on_c, 13, 36, 76
15, 126947, Note_on_c, 13, 36, 0
15, 126960, Note_on_c, 13, 36, 76
15, 127200, Control_c, 13, 11, 80
15, 127267, Note_on_c, 13, 36, 0
15, 127280, Note_on_c, 13, 36, 76
15, 127290, Control_c, 13, 11, 79
15, 127347, Note_on_c, 13, 36, 0
15, 127360, Note_on_c, 13, 36, 76
15, 127380, Control_c, 13, 11, 78
15, 127427, Note_on_c, 13, 36, 0
15, 127440, Note_on_c, 13, 36, 76
15, 127470, Control_c, 13, 11, 77
15, 127560, Control_c, 13, 11, 76
15, 127650, Control_c, 13, 11, 75
15, 127740, Control_c, 13, 11, 74
15, 127747, Note_on_c, 13, 36, 0
15, 127760, Note_on_c, 13, 36, 76
15, 127827, Note_on_c, 13, 36, 0
15, 127830, Control_c, 13, 11, 73
15, 127840, Note_on_c, 13, 36, 76
15, 127907, Note_on_c, 13, 36, 0
15, 127920, Control_c, 13, 11, 72
15, 127920, Note_on_c, 13, 36, 76
15, 128010, Control_c, 13, 11, 71
15, 128100, Control_c, 13, 11, 70
15, 128190, Control_c, 13, 11, 69
15, 128227, Note_on_c, 13, 36, 0
15, 128240, Note_on_c, 13, 36, 76
15, 128280, Control_c, 13, 11, 68
15, 128307, Note_on_c, 13, 36, 0
15, 128320, Note_on_c, 13, 36, 76
15, 128370, Control_c, 13, 11, 67
15, 128387, Note_on_c, 13, 36, 0
15, 128400, Note_on_c, 13, 36, 76
15, 128460, Control_c, 13, 11, 66
15, 128550, Control_c, 13, 11, 64
15, 128744, Note_on_c, 13, 36, 0
15, 128760, Note_on_c, 13, 43, 76
15, 128819, Note_on_c, 13, 43, 0
15, 128820, Note_on_c, 13, 40, 76
15, 128879, Note_on_c, 13, 40, 0
15, 128880, Note_on_c, 13, 36, 76
15, 128969, Note_on_c, 13, 36, 0
15, 129000, Note_on_c, 13, 43, 76
15, 129059, Note_on_c, 13, 43, 0
15, 129060, Note_on_c, 13, 40, 76
15, 129119, Note_on_c, 13, 40, 0
15, 129120, Note_on_c, 13, 36, 76
15, 129209, Note_on_c, 13, 36, 0
15, 129240, Note_on_c, 13, 43, 76
15, 129299, Note_on_c, 13, 43, 0
15, 129300, Note_on_c, 13, 40, 76
15, 129359, Note_on_c, 13, 40, 0
15, 129360, Note_on_c, 13, 36, 76
15, 129449, Note_on_c, 13, 36, 0
15, 129480, Note_on_c, 13, 43, 76
15, 129539, Note_on_c, 13, 43, 0
15, 129540, Note_on_c, 13, 40, 76
15, 129599, Note_on_c, 13, 40, 0
15, 129600, Note_on_c, 13, 36, 76
15, 129689, Note_on_c, 13, 36, 0
15, 129720, Note_on_c, 13, 43, 76
15, 129779, Note_on_c, 13, 43, 0
15, 129780, Note_on_c, 13, 40, 76
15, 129839, Note_on_c, 13, 40, 0
15, 129840, Note_on_c, 13, 36, 76
15, 129929, Note_on_c, 13, 36, 0
15, 129960, Note_on_c, 13, 43, 76
15, 130019, Note_on_c, 13, 43, 0
15, 130020, Note_on_c, 13, 40, 76
15, 130079, Note_on_c, 13, 40, 0
15, 130080, Note_on_c, 13, 36, 76
15, 130169, Note_on_c, 13, 36, 0
15, 130200, Note_on_c, 13, 43, 76
15, 130259, Note_on_c, 13, 43, 0
15, 130260, Note_on_c, 13, 40, 76
15, 130319, Note_on_c, 13, 40, 0
15, 130320, Note_on_c, 13, 36, 76
15, 130409, Note_on_c, 13, 36, 0
15, 130440, Note_on_c, 13, 43, 76
15, 130499, Note_on_c, 13, 43, 0
15, 130500, Note_on_c, 13, 40, 76
15, 130559, Note_on_c, 13, 40, 0
15, 130560, Note_on_c, 13, 36, 76
15, 130649, Note_on_c, 13, 36, 0
15, 131040, Control_c, 13, 11, 127
15, 138120, Note_on_c, 13, 41, 52
15, 138224, Note_on_c, 13, 41, 0
15, 138240, Note_on_c, 13, 41, 52
15, 138299, Note_on_c, 13, 41, 0
15, 138320, Note_on_c, 13, 50, 52
15, 138379, Note_on_c, 13, 50, 0
15, 138400, Note_on_c, 13, 46, 52
15, 138459, Note_on_c, 13, 46, 0
15, 138480, Note_on_c, 13, 53, 52
15, 138539, Note_on_c, 13, 53, 0
15, 138560, Note_on_c, 13, 50, 52
15, 138619, Note_on_c, 13, 50, 0
15, 138640, Note_on_c, 13, 46, 53
15, 138699, Note_on_c, 13, 46, 0
15, 138720, Note_on_c, 13, 41, 53
15, 138779, Note_on_c, 13, 41, 0
15, 138800, Note_on_c, 13, 50, 53
15, 138859, Note_on_c, 13, 50, 0
15, 138880, Note_on_c, 13, 46, 53
15, 138939, Note_on_c, 13, 46, 0
15, 138960, Note_on_c, 13, 53, 54
15, 139019, Note_on_c, 13, 53, 0
15, 139040, Note_on_c, 13, 50, 54
15, 139099, Note_on_c, 13, 50, 0
15, 139120, Note_on_c, 13, 46, 54
15, 139179, Note_on_c, 13, 46, 0
15, 139200, Note_on_c, 13, 41, 54
15, 139259, Note_on_c, 13, 41, 0
15, 139280, Note_on_c, 13, 50, 54
15, 139339, Note_on_c, 13, 50, 0
15, 139360, Note_on_c, 13, 46, 55
15, 139419, Note_on_c, 13, 46, 0
15, 139440, Note_on_c, 13, 53, 55
15, 139499, Note_on_c, 13, 53, 0
15, 139520, Note_on_c, 13, 50, 55
15, 139579, Note_on_c, 13, 50, 0
15, 139600, Note_on_c, 13, 46, 55
15, 139659, Note_on_c, 13, 46, 0
15, 139680, Note_on_c, 13, 41, 56
15, 139739, Note_on_c, 13, 41, 0
15, 139760, Note_on_c, 13, 50, 56
15, 139819, Note_on_c, 13, 50, 0
15, 139840, Note_on_c, 13, 46, 56
15, 139899, Note_on_c, 13, 46, 0
15, 139920, Note_on_c, 13, 53, 56
15, 139979, Note_on_c, 13, 53, 0
15, 140000, Note_on_c, 13, 50, 56
15, 140059, Note_on_c, 13, 50, 0
15, 140080, Note_on_c, 13, 46, 57
15, 140139, Note_on_c, 13, 46, 0
15, 140160, Note_on_c, 13, 41, 57
15, 140219, Note_on_c, 13, 41, 0
15, 140240, Note_on_c, 13, 50, 57
15, 140299, Note_on_c, 13, 50, 0
15, 140320, Note_on_c, 13, 46, 57
15, 140379, Note_on_c, 13, 46, 0
15, 140400, Note_on_c, 13, 53, 58
15, 140459, Note_on_c, 13, 53, 0
15, 140480, Note_on_c, 13, 50, 58
15, 140539, Note_on_c, 13, 50, 0
15, 140560, Note_on_c, 13, 46, 58
15, 140619, Note_on_c, 13, 46, 0
15, 140640, Note_on_c, 13, 41, 58
15, 140699, Note_on_c, 13, 41, 0
15, 140720, Note_on_c, 13, 50, 58
15, 140779, Note_on_c, 13, 50, 0
15, 140800, Note_on_c, 13, 46, 59
15, 140859, Note_on_c, 13, 46, 0
15, 140880, Note_on_c, 13, 53, 59
15, 140939, Note_on_c, 13, 53, 0
15, 140960, Note_on_c, 13, 50, 59
15, 141019, Note_on_c, 13, 50, 0
15, 141040, Note_on_c, 13, 46, 59
15, 141099, Note_on_c, 13, 46, 0
15, 141120, Note_on_c, 13, 41, 60
15, 141179, Note_on_c, 13, 41, 0
15, 141200, Note_on_c, 13, 50, 60
15, 141259, Note_on_c, 13, 50, 0
15, 141280, Note_on_c, 13, 46, 60
15, 141339, Note_on_c, 13, 46, 0
15, 141360, Note_on_c, 13, 53, 60
15, 141419, Note_on_c, 13, 53, 0
15, 141440, Note_on_c, 13, 50, 60
15, 141499, Note_on_c, 13, 50, 0
15, 141520, Note_on_c, 13, 46, 61
15, 141579, Note_on_c, 13, 46, 0
15, 141600, Note_on_c, 13, 41, 61
15, 141659, Note_on_c, 13, 41, 0
15, 141680, Note_on_c, 13, 50, 61
15, 141739, Note_on_c, 13, 50, 0
15, 141760, Note_on_c, 13, 46, 61
15, 141819, Note_on_c, 13, 46, 0
15, 141840, Note_on_c, 13, 53, 62
15, 141899, Note_on_c, 13, 53, 0
15, 141920, Note_on_c, 13, 50, 62
15, 141979, Note_on_c, 13, 50, 0
15, 142000, Note_on_c, 13, 46, 62
15, 142059, Note_on_c, 13, 46, 0
15, 142080, Note_on_c, 13, 41, 62
15, 142139, Note_on_c, 13, 41, 0
15, 142160, Note_on_c, 13, 50, 62
15, 142219, Note_on_c, 13, 50, 0
15, 142240, Note_on_c, 13, 46, 63
15, 142299, Note_on_c, 13, 46, 0
15, 142320, Note_on_c, 13, 53, 63
15, 142379, Note_on_c, 13, 53, 0
15, 142400, Note_on_c, 13, 50, 63
15, 142459, Note_on_c, 13, 50, 0
15, 142480, Note_on_c, 13, 46, 63
15, 142539, Note_on_c, 13, 46, 0
15, 142560, Note_on_c, 13, 41, 64
15, 142619, Note_on_c, 13, 41, 0
15, 142640, Note_on_c, 13, 50, 64
15, 142699, Note_on_c, 13, 50, 0
15, 142720, Note_on_c, 13, 46, 64
15, 142779, Note_on_c, 13, 46, 0
15, 142800, Note_on_c, 13, 53, 64
15, 142859, Note_on_c, 13, 53, 0
15, 142880, Note_on_c, 13, 50, 64
15, 142939, Note_on_c, 13, 50, 0
15, 142960, Note_on_c, 13, 46, 65
15, 143019, Note_on_c, 13, 46, 0
15, 143040, Note_on_c, 13, 41, 65
15, 143099, Note_on_c, 13, 41, 0
15, 143120, Note_on_c, 13, 50, 65
15, 143179, Note_on_c, 13, 50, 0
15, 143200, Note_on_c, 13, 46, 65
15, 143259, Note_on_c, 13, 46, 0
15, 143280, Note_on_c, 13, 53, 66
15, 143339, Note_on_c, 13, 53, 0
15, 143360, Note_on_c, 13, 50, 66
15, 143419, Note_on_c, 13, 50, 0
15, 143440, Note_on_c, 13, 46, 66
15, 143499, Note_on_c, 13, 46, 0
15, 143520, Note_on_c, 13, 41, 66
15, 143579, Note_on_c, 13, 41, 0
15, 143600, Note_on_c, 13, 50, 66
15, 143659, Note_on_c, 13, 50, 0
15, 143680, Note_on_c, 13, 46, 67
15, 143739, Note_on_c, 13, 46, 0
15, 143760, Note_on_c, 13, 53, 67
15, 143819, Note_on_c, 13, 53, 0
15, 143840, Note_on_c, 13, 50, 67
15, 143899, Note_on_c, 13, 50, 0
15, 143920, Note_on_c, 13, 46, 67
15, 143979, Note_on_c, 13, 46, 0
15, 144000, Note_on_c, 13, 45, 68
15, 144059, Note_on_c, 13, 45, 0
15, 144080, Note_on_c, 13, 54, 68
15, 144139, Note_on_c, 13, 54, 0
15, 144160, Note_on_c, 13, 50, 68
15, 144219, Note_on_c, 13, 50, 0
15, 144240, Note_on_c, 13, 57, 68
15, 144299, Note_on_c, 13, 57, 0
15, 144320, Note_on_c, 13, 54, 68
15, 144379, Note_on_c, 13, 54, 0
15, 144400, Note_on_c, 13, 50, 69
15, 144459, Note_on_c, 13, 50, 0
15, 144480, Note_on_c, 13, 45, 69
15, 144539, Note_on_c, 13, 45, 0
15, 144560, Note_on_c, 13, 54, 69
15, 144619, Note_on_c, 13, 54, 0
15, 144640, Note_on_c, 13, 50, 69
15, 144699, Note_on_c, 13, 50, 0
15, 144720, Note_on_c, 13, 57, 70
15, 144779, Note_on_c, 13, 57, 0
15, 144800, Note_on_c, 13, 54, 70
15, 144859, Note_on_c, 13, 54, 0
15, 144880, Note_on_c, 13, 50, 70
15, 144939, Note_on_c, 13, 50, 0
15, 144960, Note_on_c, 13, 45, 70
15, 145019, Note_on_c, 13, 45, 0
15, 145040, Note_on_c, 13, 54, 70
15, 145099, Note_on_c, 13, 54, 0
15, 145120, Note_on_c, 13, 50, 71
15, 145179, Note_on_c, 13, 50, 0
15, 145200, Note_on_c, 13, 57, 71
15, 145259, Note_on_c, 13, 57, 0
15, 145280, Note_on_c, 13, 54, 71
15, 145339, Note_on_c, 13, 54, 0
15, 145360, Note_on_c, 13, 50, 71
15, 145419, Note_on_c, 13, 50, 0
15, 145440, Note_on_c, 13, 45, 72
15, 145499, Note_on_c, 13, 45, 0
15, 145520, Note_on_c, 13, 54, 72
15, 145579, Note_on_c, 13, 54, 0
15, 145600, Note_on_c, 13, 50, 72
15, 145659, Note_on_c, 13, 50, 0
15, 145680, Note_on_c, 13, 57, 72
15, 145739, Note_on_c, 13, 57, 0
15, 145760, Note_on_c, 13, 54, 72
15, 145819, Note_on_c, 13, 54, 0
15, 145840, Note_on_c, 13, 50, 73
15, 145899, Note_on_c, 13, 50, 0
15, 145920, Note_on_c, 13, 45, 73
15, 145979, Note_on_c, 13, 45, 0
15, 146000, Note_on_c, 13, 54, 73
15, 146059, Note_on_c, 13, 54, 0
15, 146080, Note_on_c, 13, 50, 73
15, 146139, Note_on_c, 13, 50, 0
15, 146160, Note_on_c, 13, 57, 74
15, 146219, Note_on_c, 13, 57, 0
15, 146240, Note_on_c, 13, 54, 74
15, 146299, Note_on_c, 13, 54, 0
15, 146320, Note_on_c, 13, 50, 74
15, 146379, Note_on_c, 13, 50, 0
15, 146400, Note_on_c, 13, 45, 74
15, 146459, Note_on_c, 13, 45, 0
15, 146480, Note_on_c, 13, 54, 74
15, 146539, Note_on_c, 13, 54, 0
15, 146560, Note_on_c, 13, 50, 75
15, 146619, Note_on_c, 13, 50, 0
15, 146640, Note_on_c, 13, 57, 75
15, 146699, Note_on_c, 13, 57, 0
15, 146720, Note_on_c, 13, 54, 75
15, 146779, Note_on_c, 13, 54, 0
15, 146800, Note_on_c, 13, 50, 75
15, 146859, Note_on_c, 13, 50, 0
15, 146880, Note_on_c, 13, 45, 76
15, 146939, Note_on_c, 13, 45, 0
15, 146960, Note_on_c, 13, 54, 76
15, 147019, Note_on_c, 13, 54, 0
15, 147040, Note_on_c, 13, 50, 76
15, 147099, Note_on_c, 13, 50, 0
15, 147120, Note_on_c, 13, 57, 76
15, 147179, Note_on_c, 13, 57, 0
15, 147200, Note_on_c, 13, 54, 76
15, 147259, Note_on_c, 13, 54, 0
15, 147280, Note_on_c, 13, 50, 77
15, 147339, Note_on_c, 13, 50, 0
15, 147360, Note_on_c, 13, 45, 77
15, 147419, Note_on_c, 13, 45, 0
15, 147440, Note_on_c, 13, 54, 77
15, 147499, Note_on_c, 13, 54, 0
15, 147520, Note_on_c, 13, 50, 77
15, 147579, Note_on_c, 13, 50, 0
15, 147600, Note_on_c, 13, 57, 78
15, 147659, Note_on_c, 13, 57, 0
15, 147680, Note_on_c, 13, 54, 78
15, 147739, Note_on_c, 13, 54, 0
15, 147760, Note_on_c, 13, 50, 78
15, 147819, Note_on_c, 13, 50, 0
15, 147840, Note_on_c, 13, 45, 78
15, 147899, Note_on_c, 13, 45, 0
15, 147920, Note_on_c, 13, 54, 78
15, 147979, Note_on_c, 13, 54, 0
15, 148000, Note_on_c, 13, 50, 79
15, 148059, Note_on_c, 13, 50, 0
15, 148080, Note_on_c, 13, 57, 79
15, 148139, Note_on_c, 13, 57, 0
15, 148160, Note_on_c, 13, 54, 79
15, 148219, Note_on_c, 13, 54, 0
15, 148240, Note_on_c, 13, 50, 79
15, 148299, Note_on_c, 13, 50, 0
15, 148320, Note_on_c, 13, 45, 80
15, 148379, Note_on_c, 13, 45, 0
15, 148400, Note_on_c, 13, 54, 80
15, 148459, Note_on_c, 13, 54, 0
15, 148480, Note_on_c, 13, 50, 80
15, 148539, Note_on_c, 13, 50, 0
15, 148560, Note_on_c, 13, 57, 80
15, 148619, Note_on_c, 13, 57, 0
15, 148640, Note_on_c, 13, 54, 80
15, 148699, Note_on_c, 13, 54, 0
15, 148720, Note_on_c, 13, 50, 81
15, 148779, Note_on_c, 13, 50, 0
15, 148800, Note_on_c, 13, 45, 81
15, 148859, Note_on_c, 13, 45, 0
15, 148880, Note_on_c, 13, 54, 81
15, 148939, Note_on_c, 13, 54, 0
15, 148960, Note_on_c, 13, 50, 81
15, 149019, Note_on_c, 13, 50, 0
15, 149040, Note_on_c, 13, 57, 82
15, 149099, Note_on_c, 13, 57, 0
15, 149120, Note_on_c, 13, 54, 82
15, 149179, Note_on_c, 13, 54, 0
15, 149200, Note_on_c, 13, 50, 82
15, 149259, Note_on_c, 13, 50, 0
15, 149280, Note_on_c, 13, 45, 82
15, 149339, Note_on_c, 13, 45, 0
15, 149360, Note_on_c, 13, 54, 82
15, 149419, Note_on_c, 13, 54, 0
15, 149440, Note_on_c, 13, 50, 83
15, 149499, Note_on_c, 13, 50, 0
15, 149520, Note_on_c, 13, 57, 83
15, 149579, Note_on_c, 13, 57, 0
15, 149600, Note_on_c, 13, 54, 83
15, 149659, Note_on_c, 13, 54, 0
15, 149680, Note_on_c, 13, 50, 83
15, 149739, Note_on_c, 13, 50, 0
15, 149760, Note_on_c, 13, 50, 84
15, 149849, Note_on_c, 13, 50, 0
15, 149880, Note_on_c, 13, 45, 84
15, 149939, Note_on_c, 13, 45, 0
15, 149940, Note_on_c, 13, 43, 84
15, 149991, Note_on_c, 13, 43, 0
15, 150000, Note_on_c, 13, 42, 84
15, 150089, Note_on_c, 13, 42, 0
15, 150120, Note_on_c, 13, 38, 84
15, 150209, Note_on_c, 13, 38, 0
15, 150240, Note_on_c, 13, 50, 84
15, 150329, Note_on_c, 13, 50, 0
15, 150360, Note_on_c, 13, 45, 84
15, 150419, Note_on_c, 13, 45, 0
15, 150420, Note_on_c, 13, 43, 84
15, 150471, Note_on_c, 13, 43, 0
15, 150480, Note_on_c, 13, 42, 84
15, 150569, Note_on_c, 13, 42, 0
15, 150600, Note_on_c, 13, 38, 84
15, 150689, Note_on_c, 13, 38, 0
15, 150720, Note_on_c, 13, 50, 84
15, 150809, Note_on_c, 13, 50, 0
15, 150840, Note_on_c, 13, 45, 84
15, 150899, Note_on_c, 13, 45, 0
15, 150900, Note_on_c, 13, 43, 84
15, 150951, Note_on_c, 13, 43, 0
15, 150960, Note_on_c, 13, 42, 84
15, 151049, Note_on_c, 13, 42, 0
15, 151080, Note_on_c, 13, 38, 84
15, 151169, Note_on_c, 13, 38, 0
15, 151200, Note_on_c, 13, 50, 84
15, 151289, Note_on_c, 13, 50, 0
15, 151320, Note_on_c, 13, 45, 84
15, 151379, Note_on_c, 13, 45, 0
15, 151380, Note_on_c, 13, 43, 84
15, 151431, Note_on_c, 13, 43, 0
15, 151440, Note_on_c, 13, 42, 84
15, 151529, Note_on_c, 13, 42, 0
15, 151560, Note_on_c, 13, 38, 84
15, 151649, Note_on_c, 13, 38, 0
15, 151680, Note_on_c, 13, 50, 84
15, 151769, Note_on_c, 13, 50, 0
15, 151800, Note_on_c, 13, 45, 84
15, 151859, Note_on_c, 13, 45, 0
15, 151860, Note_on_c, 13, 43, 84
15, 151911, Note_on_c, 13, 43, 0
15, 151920, Note_on_c, 13, 42, 84
15, 152009, Note_on_c, 13, 42, 0
15, 152040, Note_on_c, 13, 38, 84
15, 152129, Note_on_c, 13, 38, 0
15, 152640, Note_on_c, 13, 50, 84
15, 152729, Note_on_c, 13, 50, 0
15, 152760, Note_on_c, 13, 45, 84
15, 152819, Note_on_c, 13, 45, 0
15, 152820, Note_on_c, 13, 43, 84
15, 152871, Note_on_c, 13, 43, 0
15, 152880, Note_on_c, 13, 42, 84
15, 152969, Note_on_c, 13, 42, 0
15, 153000, Note_on_c, 13, 38, 84
15, 153089, Note_on_c, 13, 38, 0
15, 159360, Note_on_c, 13, 43, 52
15, 159899, Note_on_c, 13, 43, 0
15, 159900, Note_on_c, 13, 42, 52
15, 159959, Note_on_c, 13, 42, 0
15, 159960, Note_on_c, 13, 40, 52
15, 160019, Note_on_c, 13, 40, 0
15, 160020, Note_on_c, 13, 38, 52
15, 160071, Note_on_c, 13, 38, 0
15, 160080, Note_on_c, 13, 38, 52
15, 160169, Note_on_c, 13, 38, 0
15, 160200, Note_on_c, 13, 38, 52
15, 160289, Note_on_c, 13, 38, 0
15, 160320, Note_on_c, 13, 43, 52
15, 160379, Note_on_c, 13, 43, 0
15, 160400, Note_on_c, 13, 50, 52
15, 160459, Note_on_c, 13, 50, 0
15, 160480, Note_on_c, 13, 47, 52
15, 160539, Note_on_c, 13, 47, 0
15, 160560, Note_on_c, 13, 55, 52
15, 160619, Note_on_c, 13, 55, 0
15, 160640, Note_on_c, 13, 50, 52
15, 160699, Note_on_c, 13, 50, 0
15, 160720, Note_on_c, 13, 47, 53
15, 160779, Note_on_c, 13, 47, 0
15, 160800, Note_on_c, 13, 43, 53
15, 160859, Note_on_c, 13, 43, 0
15, 160880, Note_on_c, 13, 50, 53
15, 160939, Note_on_c, 13, 50, 0
15, 160960, Note_on_c, 13, 47, 53
15, 161019, Note_on_c, 13, 47, 0
15, 161040, Note_on_c, 13, 55, 54
15, 161099, Note_on_c, 13, 55, 0
15, 161120, Note_on_c, 13, 50, 54
15, 161179, Note_on_c, 13, 50, 0
15, 161200, Note_on_c, 13, 47, 54
15, 161259, Note_on_c, 13, 47, 0
15, 161280, Note_on_c, 13, 43, 54
15, 161339, Note_on_c, 13, 43, 0
15, 161360, Note_on_c, 13, 50, 54
15, 161419, Note_on_c, 13, 50, 0
15, 161440, Note_on_c, 13, 47, 55
15, 161499, Note_on_c, 13, 47, 0
15, 161520, Note_on_c, 13, 55, 55
15, 161579, Note_on_c, 13, 55, 0
15, 161600, Note_on_c, 13, 50, 55
15, 161659, Note_on_c, 13, 50, 0
15, 161680, Note_on_c, 13, 47, 55
15, 161739, Note_on_c, 13, 47, 0
15, 161760, Note_on_c, 13, 43, 56
15, 161819, Note_on_c, 13, 43, 0
15, 161840, Note_on_c, 13, 50, 56
15, 161899, Note_on_c, 13, 50, 0
15, 161920, Note_on_c, 13, 47, 56
15, 161979, Note_on_c, 13, 47, 0
15, 162000, Note_on_c, 13, 55, 56
15, 162059, Note_on_c, 13, 55, 0
15, 162080, Note_on_c, 13, 50, 56
15, 162139, Note_on_c, 13, 50, 0
15, 162160, Note_on_c, 13, 47, 57
15, 162219, Note_on_c, 13, 47, 0
15, 162240, Note_on_c, 13, 43, 57
15, 162299, Note_on_c, 13, 43, 0
15, 162320, Note_on_c, 13, 50, 57
15, 162379, Note_on_c, 13, 50, 0
15, 162400, Note_on_c, 13, 47, 57
15, 162459, Note_on_c, 13, 47, 0
15, 162480, Note_on_c, 13, 55, 58
15, 162539, Note_on_c, 13, 55, 0
15, 162560, Note_on_c, 13, 50, 58
15, 162619, Note_on_c, 13, 50, 0
15, 162640, Note_on_c, 13, 47, 58
15, 162699, Note_on_c, 13, 47, 0
15, 162720, Note_on_c, 13, 43, 58
15, 162779, Note_on_c, 13, 43, 0
15, 162800, Note_on_c, 13, 50, 58
15, 162859, Note_on_c, 13, 50, 0
15, 162880, Note_on_c, 13, 47, 59
15, 162939, Note_on_c, 13, 47, 0
15, 162960, Note_on_c, 13, 55, 59
15, 163019, Note_on_c, 13, 55, 0
15, 163040, Note_on_c, 13, 50, 59
15, 163099, Note_on_c, 13, 50, 0
15, 163120, Note_on_c, 13, 47, 59
15, 163179, Note_on_c, 13, 47, 0
15, 163200, Note_on_c, 13, 43, 60
15, 163259, Note_on_c, 13, 43, 0
15, 163280, Note_on_c, 13, 50, 60
15, 163339, Note_on_c, 13, 50, 0
15, 163360, Note_on_c, 13, 47, 60
15, 163419, Note_on_c, 13, 47, 0
15, 163440, Note_on_c, 13, 55, 60
15, 163499, Note_on_c, 13, 55, 0
15, 163520, Note_on_c, 13, 50, 60
15, 163579, Note_on_c, 13, 50, 0
15, 163600, Note_on_c, 13, 47, 61
15, 163659, Note_on_c, 13, 47, 0
15, 163680, Note_on_c, 13, 43, 61
15, 163739, Note_on_c, 13, 43, 0
15, 163760, Note_on_c, 13, 50, 61
15, 163819, Note_on_c, 13, 50, 0
15, 163840, Note_on_c, 13, 47, 61
15, 163899, Note_on_c, 13, 47, 0
15, 163920, Note_on_c, 13, 55, 62
15, 163979, Note_on_c, 13, 55, 0
15, 164000, Note_on_c, 13, 50, 62
15, 164059, Note_on_c, 13, 50, 0
15, 164080, Note_on_c, 13, 47, 62
15, 164139, Note_on_c, 13, 47, 0
15, 164160, Note_on_c, 13, 43, 62
15, 164219, Note_on_c, 13, 43, 0
15, 164240, Note_on_c, 13, 50, 62
15, 164299, Note_on_c, 13, 50, 0
15, 164320, Note_on_c, 13, 47, 63
15, 164379, Note_on_c, 13, 47, 0
15, 164400, Note_on_c, 13, 55, 63
15, 164459, Note_on_c, 13, 55, 0
15, 164480, Note_on_c, 13, 50, 63
15, 164539, Note_on_c, 13, 50, 0
15, 164560, Note_on_c, 13, 47, 63
15, 164619, Note_on_c, 13, 47, 0
15, 164640, Note_on_c, 13, 43, 64
15, 164699, Note_on_c, 13, 43, 0
15, 164720, Note_on_c, 13, 50, 64
15, 164779, Note_on_c, 13, 50, 0
15, 164800, Note_on_c, 13, 47, 64
15, 164859, Note_on_c, 13, 47, 0
15, 164880, Note_on_c, 13, 55, 64
15, 164939, Note_on_c, 13, 55, 0
15, 164960, Note_on_c, 13, 50, 64
15, 165019, Note_on_c, 13, 50, 0
15, 165040, Note_on_c, 13, 47, 65
15, 165099, Note_on_c, 13, 47, 0
15, 165120, Note_on_c, 13, 43, 65
15, 165179, Note_on_c, 13, 43, 0
15, 165200, Note_on_c, 13, 50, 65
15, 165259, Note_on_c, 13, 50, 0
15, 165280, Note_on_c, 13, 47, 65
15, 165339, Note_on_c, 13, 47, 0
15, 165360, Note_on_c, 13, 55, 66
15, 165419, Note_on_c, 13, 55, 0
15, 165440, Note_on_c, 13, 50, 66
15, 165499, Note_on_c, 13, 50, 0
15, 165520, Note_on_c, 13, 47, 66
15, 165579, Note_on_c, 13, 47, 0
15, 165600, Note_on_c, 13, 43, 66
15, 165659, Note_on_c, 13, 43, 0
15, 165680, Note_on_c, 13, 50, 66
15, 165739, Note_on_c, 13, 50, 0
15, 165760, Note_on_c, 13, 47, 67
15, 165819, Note_on_c, 13, 47, 0
15, 165840, Note_on_c, 13, 55, 67
15, 165899, Note_on_c, 13, 55, 0
15, 165920, Note_on_c, 13, 50, 67
15, 165979, Note_on_c, 13, 50, 0
15, 166000, Note_on_c, 13, 47, 67
15, 166059, Note_on_c, 13, 47, 0
15, 166080, Note_on_c, 13, 40, 68
15, 166139, Note_on_c, 13, 40, 0
15, 166160, Note_on_c, 13, 52, 68
15, 166219, Note_on_c, 13, 52, 0
15, 166240, Note_on_c, 13, 47, 68
15, 166299, Note_on_c, 13, 47, 0
15, 166320, Note_on_c, 13, 56, 68
15, 166379, Note_on_c, 13, 56, 0
15, 166400, Note_on_c, 13, 52, 68
15, 166459, Note_on_c, 13, 52, 0
15, 166480, Note_on_c, 13, 47, 69
15, 166539, Note_on_c, 13, 47, 0
15, 166560, Note_on_c, 13, 40, 69
15, 166619, Note_on_c, 13, 40, 0
15, 166640, Note_on_c, 13, 52, 69
15, 166699, Note_on_c, 13, 52, 0
15, 166720, Note_on_c, 13, 47, 69
15, 166779, Note_on_c, 13, 47, 0
15, 166800, Note_on_c, 13, 56, 70
15, 166859, Note_on_c, 13, 56, 0
15, 166880, Note_on_c, 13, 52, 70
15, 166939, Note_on_c, 13, 52, 0
15, 166960, Note_on_c, 13, 47, 70
15, 167019, Note_on_c, 13, 47, 0
15, 167040, Note_on_c, 13, 40, 70
15, 167099, Note_on_c, 13, 40, 0
15, 167120, Note_on_c, 13, 52, 70
15, 167179, Note_on_c, 13, 52, 0
15, 167200, Note_on_c, 13, 47, 71
15, 167259, Note_on_c, 13, 47, 0
15, 167280, Note_on_c, 13, 56, 71
15, 167339, Note_on_c, 13, 56, 0
15, 167360, Note_on_c, 13, 52, 71
15, 167419, Note_on_c, 13, 52, 0
15, 167440, Note_on_c, 13, 47, 71
15, 167499, Note_on_c, 13, 47, 0
15, 167520, Note_on_c, 13, 40, 72
15, 167579, Note_on_c, 13, 40, 0
15, 167600, Note_on_c, 13, 52, 72
15, 167659, Note_on_c, 13, 52, 0
15, 167680, Note_on_c, 13, 47, 72
15, 167739, Note_on_c, 13, 47, 0
15, 167760, Note_on_c, 13, 56, 72
15, 167819, Note_on_c, 13, 56, 0
15, 167840, Note_on_c, 13, 52, 72
15, 167899, Note_on_c, 13, 52, 0
15, 167920, Note_on_c, 13, 47, 73
15, 167979, Note_on_c, 13, 47, 0
15, 168000, Note_on_c, 13, 40, 73
15, 168059, Note_on_c, 13, 40, 0
15, 168080, Note_on_c, 13, 52, 73
15, 168139, Note_on_c, 13, 52, 0
15, 168160, Note_on_c, 13, 47, 73
15, 168219, Note_on_c, 13, 47, 0
15, 168240, Note_on_c, 13, 56, 74
15, 168299, Note_on_c, 13, 56, 0
15, 168320, Note_on_c, 13, 52, 74
15, 168379, Note_on_c, 13, 52, 0
15, 168400, Note_on_c, 13, 47, 74
15, 168459, Note_on_c, 13, 47, 0
15, 168480, Note_on_c, 13, 40, 74
15, 168539, Note_on_c, 13, 40, 0
15, 168560, Note_on_c, 13, 52, 74
15, 168619, Note_on_c, 13, 52, 0
15, 168640, Note_on_c, 13, 47, 75
15, 168699, Note_on_c, 13, 47, 0
15, 168720, Note_on_c, 13, 56, 75
15, 168779, Note_on_c, 13, 56, 0
15, 168800, Note_on_c, 13, 52, 75
15, 168859, Note_on_c, 13, 52, 0
15, 168880, Note_on_c, 13, 47, 75
15, 168939, Note_on_c, 13, 47, 0
15, 168960, Note_on_c, 13, 40, 76
15, 169019, Note_on_c, 13, 40, 0
15, 169040, Note_on_c, 13, 52, 76
15, 169099, Note_on_c, 13, 52, 0
15, 169120, Note_on_c, 13, 47, 76
15, 169179, Note_on_c, 13, 47, 0
15, 169200, Note_on_c, 13, 56, 76
15, 169259, Note_on_c, 13, 56, 0
15, 169280, Note_on_c, 13, 52, 76
15, 169339, Note_on_c, 13, 52, 0
15, 169360, Note_on_c, 13, 47, 77
15, 169419, Note_on_c, 13, 47, 0
15, 169440, Note_on_c, 13, 40, 77
15, 169499, Note_on_c, 13, 40, 0
15, 169520, Note_on_c, 13, 52, 77
15, 169579, Note_on_c, 13, 52, 0
15, 169600, Note_on_c, 13, 47, 77
15, 169659, Note_on_c, 13, 47, 0
15, 169680, Note_on_c, 13, 56, 78
15, 169739, Note_on_c, 13, 56, 0
15, 169760, Note_on_c, 13, 52, 78
15, 169819, Note_on_c, 13, 52, 0
15, 169840, Note_on_c, 13, 47, 78
15, 169899, Note_on_c, 13, 47, 0
15, 169920, Note_on_c, 13, 40, 78
15, 169979, Note_on_c, 13, 40, 0
15, 170000, Note_on_c, 13, 52, 78
15, 170059, Note_on_c, 13, 52, 0
15, 170080, Note_on_c, 13, 47, 79
15, 170139, Note_on_c, 13, 47, 0
15, 170160, Note_on_c, 13, 56, 79
15, 170219, Note_on_c, 13, 56, 0
15, 170240, Note_on_c, 13, 52, 79
15, 170299, Note_on_c, 13, 52, 0
15, 170320, Note_on_c, 13, 47, 79
15, 170379, Note_on_c, 13, 47, 0
15, 170400, Note_on_c, 13, 40, 80
15, 170459, Note_on_c, 13, 40, 0
15, 170480, Note_on_c, 13, 52, 80
15, 170539, Note_on_c, 13, 52, 0
15, 170560, Note_on_c, 13, 47, 80
15, 170619, Note_on_c, 13, 47, 0
15, 170640, Note_on_c, 13, 56, 80
15, 170699, Note_on_c, 13, 56, 0
15, 170720, Note_on_c, 13, 52, 80
15, 170779, Note_on_c, 13, 52, 0
15, 170800, Note_on_c, 13, 47, 81
15, 170859, Note_on_c, 13, 47, 0
15, 170880, Note_on_c, 13, 40, 81
15, 170939, Note_on_c, 13, 40, 0
15, 170960, Note_on_c, 13, 52, 81
15, 171019, Note_on_c, 13, 52, 0
15, 171040, Note_on_c, 13, 47, 81
15, 171099, Note_on_c, 13, 47, 0
15, 171120, Note_on_c, 13, 56, 82
15, 171179, Note_on_c, 13, 56, 0
15, 171200, Note_on_c, 13, 52, 82
15, 171259, Note_on_c, 13, 52, 0
15, 171280, Note_on_c, 13, 47, 82
15, 171339, Note_on_c, 13, 47, 0
15, 171360, Note_on_c, 13, 40, 82
15, 171419, Note_on_c, 13, 40, 0
15, 171440, Note_on_c, 13, 52, 82
15, 171499, Note_on_c, 13, 52, 0
15, 171520, Note_on_c, 13, 47, 83
15, 171579, Note_on_c, 13, 47, 0
15, 171600, Note_on_c, 13, 56, 83
15, 171659, Note_on_c, 13, 56, 0
15, 171680, Note_on_c, 13, 52, 83
15, 171739, Note_on_c, 13, 52, 0
15, 171760, Note_on_c, 13, 47, 83
15, 171819, Note_on_c, 13, 47, 0
15, 171840, Note_on_c, 13, 52, 84
15, 171929, Note_on_c, 13, 52, 0
15, 171960, Note_on_c, 13, 47, 84
15, 172019, Note_on_c, 13, 47, 0
15, 172020, Note_on_c, 13, 45, 84
15, 172071, Note_on_c, 13, 45, 0
15, 172080, Note_on_c, 13, 44, 84
15, 172169, Note_on_c, 13, 44, 0
15, 172200, Note_on_c, 13, 40, 84
15, 172289, Note_on_c, 13, 40, 0
15, 172320, Note_on_c, 13, 52, 84
15, 172409, Note_on_c, 13, 52, 0
15, 172440, Note_on_c, 13, 47, 84
15, 172499, Note_on_c, 13, 47, 0
15, 172500, Note_on_c, 13, 45, 84
15, 172551, Note_on_c, 13, 45, 0
15, 172560, Note_on_c, 13, 44, 84
15, 172649, Note_on_c, 13, 44, 0
15, 172680, Note_on_c, 13, 40, 84
15, 172769, Note_on_c, 13, 40, 0
15, 172800, Note_on_c, 13, 52, 84
15, 172889, Note_on_c, 13, 52, 0
15, 172920, Note_on_c, 13, 47, 84
15, 172979, Note_on_c, 13, 47, 0
15, 172980, Note_on_c, 13, 45, 84
15, 173031, Note_on_c, 13, 45, 0
15, 173040, Note_on_c, 13, 44, 84
15, 173129, Note_on_c, 13, 44, 0
15, 173160, Note_on_c, 13, 40, 84
15, 173249, Note_on_c, 13, 40, 0
15, 173280, Note_on_c, 13, 52, 84
15, 173369, Note_on_c, 13, 52, 0
15, 173400, Note_on_c, 13, 47, 84
15, 173459, Note_on_c, 13, 47, 0
15, 173460, Note_on_c, 13, 45, 84
15, 173511, Note_on_c, 13, 45, 0
15, 173520, Note_on_c, 13, 44, 84
15, 173609, Note_on_c, 13, 44, 0
15, 173640, Note_on_c, 13, 40, 84
15, 173729, Note_on_c, 13, 40, 0
15, 173760, Note_on_c, 13, 52, 84
15, 173849, Note_on_c, 13, 52, 0
15, 173880, Note_on_c, 13, 47, 84
15, 173939, Note_on_c, 13, 47, 0
15, 173940, Note_on_c, 13, 45, 84
15, 173991, Note_on_c, 13, 45, 0
15, 174000, Note_on_c, 13, 44, 84
15, 174089, Note_on_c, 13, 44, 0
15, 174120, Note_on_c, 13, 40, 84
15, 174209, Note_on_c, 13, 40, 0
15, 174720, Note_on_c, 13, 52, 84
15, 174809, Note_on_c, 13, 52, 0
15, 174840, Note_on_c, 13, 47, 84
15, 174899, Note_on_c, 13, 47, 0
15, 174900, Note_on_c, 13, 45, 84
15, 174951, Note_on_c, 13, 45, 0
15, 174960, Note_on_c, 13, 44, 84
15, 175049, Note_on_c, 13, 44, 0
15, 175080, Note_on_c, 13, 40, 84
15, 175169, Note_on_c, 13, 40, 0
15, 181440, Note_on_c, 13, 45, 52
15, 181979, Note_on_c, 13, 45, 0
15, 181980, Note_on_c, 13, 44, 52
15, 182039, Note_on_c, 13, 44, 0
15, 182040, Note_on_c, 13, 42, 52
15, 182099, Note_on_c, 13, 42, 0
15, 182100, Note_on_c, 13, 40, 52
15, 182151, Note_on_c, 13, 40, 0
15, 182160, Note_on_c, 13, 40, 52
15, 182249, Note_on_c, 13, 40, 0
15, 182280, Note_on_c, 13, 40, 52
15, 182369, Note_on_c, 13, 40, 0
15, 182400, Note_on_c, 13, 45, 52
15, 183344, Note_on_c, 13, 45, 0
15, 183360, Note_on_c, 13, 38, 52
15, 183599, Note_on_c, 13, 38, 0
15, 183600, Note_on_c, 13, 45, 52
15, 183824, Note_on_c, 13, 45, 0
15, 183840, Note_on_c, 13, 40, 52
15, 184304, Note_on_c, 13, 40, 0
15, 184320, Note_on_c, 13, 45, 52
15, 184559, Note_on_c, 13, 45, 0
15, 184560, Note_on_c, 13, 49, 52
15, 184799, Note_on_c, 13, 49, 0
15, 184800, Note_on_c, 13, 47, 52
15, 185159, Note_on_c, 13, 47, 0
15, 185160, Note_on_c, 13, 45, 52
15, 185264, Note_on_c, 13, 45, 0
15, 185280, Note_on_c, 13, 50, 52
15, 185519, Note_on_c, 13, 50, 0
15, 185520, Note_on_c, 13, 49, 52
15, 185744, Note_on_c, 13, 49, 0
15, 185760, Note_on_c, 13, 47, 52
15, 185849, Note_on_c, 13, 47, 0
15, 185880, Note_on_c, 13, 47, 52
15, 185939, Note_on_c, 13, 47, 0
15, 185940, Note_on_c, 13, 49, 52
15, 185999, Note_on_c, 13, 49, 0
15, 186000, Note_on_c, 13, 50, 52
15, 186119, Note_on_c, 13, 50, 0
15, 186120, Note_on_c, 13, 47, 52
15, 186224, Note_on_c, 13, 47, 0
15, 186240, Note_on_c, 13, 49, 52
15, 186479, Note_on_c, 13, 49, 0
15, 186480, Note_on_c, 13, 52, 52
15, 186719, Note_on_c, 13, 52, 0
15, 186720, Note_on_c, 13, 50, 52
15, 187079, Note_on_c, 13, 50, 0
15, 187080, Note_on_c, 13, 49, 52
15, 187184, Note_on_c, 13, 49, 0
15, 187200, Note_on_c, 13, 54, 52
15, 187439, Note_on_c, 13, 54, 0
15, 187440, Note_on_c, 13, 52, 52
15, 187664, Note_on_c, 13, 52, 0
15, 187680, Note_on_c, 13, 50, 52
15, 187769, Note_on_c, 13, 50, 0
15, 187800, Note_on_c, 13, 50, 52
15, 187859, Note_on_c, 13, 50, 0
15, 187860, Note_on_c, 13, 52, 52
15, 187919, Note_on_c, 13, 52, 0
15, 187920, Note_on_c, 13, 54, 52
15, 188039, Note_on_c, 13, 54, 0
15, 188040, Note_on_c, 13, 52, 52
15, 188144, Note_on_c, 13, 52, 0
15, 188160, Note_on_c, 13, 50, 52
15, 189119, Note_on_c, 13, 50, 0
15, 189120, Note_on_c, 13, 50, 52
15, 190079, Note_on_c, 13, 50, 0
15, 190080, Note_on_c, 13, 50, 52
15, 191024, Note_on_c, 13, 50, 0
15, 191040, Note_on_c, 13, 43, 52
15, 191984, Note_on_c, 13, 43, 0
15, 192000, Note_on_c, 13, 48, 84
15, 192239, Note_on_c, 13, 48, 0
15, 192240, Note_on_c, 13, 52, 84
15, 192479, Note_on_c, 13, 52, 0
15, 192480, Note_on_c, 13, 50, 84
15, 192839, Note_on_c, 13, 50, 0
15, 192840, Note_on_c, 13, 48, 84
15, 192944, Note_on_c, 13, 48, 0
15, 192960, Note_on_c, 13, 53, 92
15, 193019, Note_on_c, 13, 53, 0
15, 193020, Note_on_c, 13, 53, 84
15, 193199, Note_on_c, 13, 53, 0
15, 193200, Note_on_c, 13, 52, 84
15, 193424, Note_on_c, 13, 52, 0
15, 193440, Note_on_c, 13, 50, 84
15, 193529, Note_on_c, 13, 50, 0
15, 193560, Note_on_c, 13, 50, 84
15, 193619, Note_on_c, 13, 50, 0
15, 193620, Note_on_c, 13, 52, 84
15, 193671, Note_on_c, 13, 52, 0
15, 193680, Note_on_c, 13, 53, 84
15, 193769, Note_on_c, 13, 53, 0
15, 193800, Note_on_c, 13, 50, 84
15, 193889, Note_on_c, 13, 50, 0
15, 193920, Note_on_c, 13, 52, 92
15, 193979, Note_on_c, 13, 52, 0
15, 193980, Note_on_c, 13, 52, 84
15, 194159, Note_on_c, 13, 52, 0
15, 194160, Note_on_c, 13, 55, 84
15, 194399, Note_on_c, 13, 55, 0
15, 194400, Note_on_c, 13, 53, 84
15, 194759, Note_on_c, 13, 53, 0
15, 194760, Note_on_c, 13, 52, 84
15, 194864, Note_on_c, 13, 52, 0
15, 194880, Note_on_c, 13, 57, 92
15, 194939, Note_on_c, 13, 57, 0
15, 194940, Note_on_c, 13, 57, 84
15, 195119, Note_on_c, 13, 57, 0
15, 195120, Note_on_c, 13, 55, 84
15, 195344, Note_on_c, 13, 55, 0
15, 195360, Note_on_c, 13, 53, 84
15, 195449, Note_on_c, 13, 53, 0
15, 195480, Note_on_c, 13, 53, 84
15, 195539, Note_on_c, 13, 53, 0
15, 195540, Note_on_c, 13, 55, 84
15, 195591, Note_on_c, 13, 55, 0
15, 195600, Note_on_c, 13, 57, 84
15, 195689, Note_on_c, 13, 57, 0
15, 195720, Note_on_c, 13, 53, 84
15, 195809, Note_on_c, 13, 53, 0
15, 195840, Note_on_c, 13, 58, 92
15, 195899, Note_on_c, 13, 58, 0
15, 195900, Note_on_c, 13, 58, 84
15, 196079, Note_on_c, 13, 58, 0
15, 196080, Note_on_c, 13, 57, 84
15, 196304, Note_on_c, 13, 57, 0
15, 196320, Note_on_c, 13, 55, 84
15, 196409, Note_on_c, 13, 55, 0
15, 196440, Note_on_c, 13, 52, 84
15, 196499, Note_on_c, 13, 52, 0
15, 196500, Note_on_c, 13, 53, 84
15, 196551, Note_on_c, 13, 53, 0
15, 196560, Note_on_c, 13, 55, 84
15, 196649, Note_on_c, 13, 55, 0
15, 196680, Note_on_c, 13, 57, 84
15, 196769, Note_on_c, 13, 57, 0
15, 196800, Note_on_c, 13, 58, 92
15, 196859, Note_on_c, 13, 58, 0
15, 196860, Note_on_c, 13, 58, 84
15, 197039, Note_on_c, 13, 58, 0
15, 197040, Note_on_c, 13, 57, 84
15, 197264, Note_on_c, 13, 57, 0
15, 197280, Note_on_c, 13, 55, 84
15, 197369, Note_on_c, 13, 55, 0
15, 197400, Note_on_c, 13, 52, 84
15, 197459, Note_on_c, 13, 52, 0
15, 197460, Note_on_c, 13, 53, 84
15, 197511, Note_on_c, 13, 53, 0
15, 197520, Note_on_c, 13, 55, 84
15, 197609, Note_on_c, 13, 55, 0
15, 197640, Note_on_c, 13, 57, 84
15, 197729, Note_on_c, 13, 57, 0
15, 197760, Note_on_c, 13, 46, 76
15, 197760, Control_c, 13, 11, 127
15, 197805, Control_c, 13, 11, 125
15, 197850, Control_c, 13, 11, 123
15, 197895, Control_c, 13, 11, 121
15, 197940, Control_c, 13, 11, 119
15, 197985, Control_c, 13, 11, 117
15, 198030, Control_c, 13, 11, 115
15, 198075, Control_c, 13, 11, 113
15, 198120, Control_c, 13, 11, 111
15, 198165, Control_c, 13, 11, 109
15, 198210, Control_c, 13, 11, 107
15, 198255, Control_c, 13, 11, 105
15, 198300, Control_c, 13, 11, 104
15, 198345, Control_c, 13, 11, 102
15, 198390, Control_c, 13, 11, 100
15, 198435, Control_c, 13, 11, 98
15, 198480, Control_c, 13, 11, 96
15, 198525, Control_c, 13, 11, 94
15, 198570, Control_c, 13, 11, 92
15, 198615, Control_c, 13, 11, 90
15, 198660, Control_c, 13, 11, 88
15, 198704, Note_on_c, 13, 46, 0
15, 198705, Control_c, 13, 11, 86
15, 198720, Note_on_c, 13, 46, 76
15, 198750, Control_c, 13, 11, 84
15, 198795, Control_c, 13, 11, 82
15, 198839, Note_on_c, 13, 46, 0
15, 198840, Note_on_c, 13, 41, 76
15, 198879, Note_on_c, 13, 41, 0
15, 198880, Note_on_c, 13, 43, 76
15, 198919, Note_on_c, 13, 43, 0
15, 198920, Note_on_c, 13, 45, 76
15, 198951, Note_on_c, 13, 45, 0
15, 198960, Note_on_c, 13, 46, 76
15, 198960, Control_c, 13, 11, 80
15, 198990, Control_c, 13, 11, 79
15, 199020, Control_c, 13, 11, 77
15, 199049, Note_on_c, 13, 46, 0
15, 199050, Control_c, 13, 11, 76
15, 199080, Control_c, 13, 11, 75
15, 199080, Note_on_c, 13, 48, 76
15, 199110, Control_c, 13, 11, 73
15, 199140, Control_c, 13, 11, 72
15, 199169, Note_on_c, 13, 48, 0
15, 199170, Control_c, 13, 11, 71
15, 199200, Control_c, 13, 11, 69
15, 199200, Note_on_c, 13, 50, 76
15, 199230, Control_c, 13, 11, 68
15, 199260, Control_c, 13, 11, 67
15, 199290, Control_c, 13, 11, 64
15, 199319, Note_on_c, 13, 50, 0
15, 199440, Note_on_c, 13, 46, 76
15, 199679, Note_on_c, 13, 46, 0
15, 199680, Note_on_c, 13, 41, 76
15, 201104, Note_on_c, 13, 41, 0
15, 201120, Note_on_c, 13, 48, 76
15, 201599, Note_on_c, 13, 48, 0
15, 204240, Control_c, 13, 11, 127
15, 204480, Note_on_c, 13, 53, 52
15, 204719, Note_on_c, 13, 53, 0
15, 204720, Note_on_c, 13, 50, 52
15, 204959, Note_on_c, 13, 50, 0
15, 204960, Note_on_c, 13, 52, 52
15, 205319, Note_on_c, 13, 52, 0
15, 205320, Note_on_c, 13, 48, 52
15, 205424, Note_on_c, 13, 48, 0
15, 205440, Note_on_c, 13, 53, 52
15, 205679, Note_on_c, 13, 53, 0
15, 205680, Note_on_c, 13, 50, 52
15, 205919, Note_on_c, 13, 50, 0
15, 205920, Note_on_c, 13, 52, 52
15, 206279, Note_on_c, 13, 52, 0
15, 206280, Note_on_c, 13, 48, 52
15, 206384, Note_on_c, 13, 48, 0
15, 206400, Note_on_c, 13, 53, 52
15, 206639, Note_on_c, 13, 53, 0
15, 207120, Program_c, 13, 45
15, 207360, Note_on_c, 13, 46, 48
15, 207599, Note_on_c, 13, 46, 0
15, 207600, Note_on_c, 13, 53, 48
15, 207839, Note_on_c, 13, 53, 0
15, 207840, Note_on_c, 13, 48, 48
15, 208079, Note_on_c, 13, 48, 0
15, 208320, Note_on_c, 13, 53, 48
15, 208559, Note_on_c, 13, 53, 0
15, 209280, Note_on_c, 13, 46, 48
15, 209519, Note_on_c, 13, 46, 0
15, 209520, Note_on_c, 13, 53, 48
15, 209759, Note_on_c, 13, 53, 0
15, 209760, Note_on_c, 13, 48, 48
15, 209999, Note_on_c, 13, 48, 0
15, 211440, Program_c, 13, 48
15, 211680, Note_on_c, 13, 48, 44
15, 212024, Note_on_c, 13, 48, 0
15, 212040, Note_on_c, 13, 48, 44
15, 212144, Note_on_c, 13, 48, 0
15, 212160, Note_on_c, 13, 48, 44
15, 212504, Note_on_c, 13, 48, 0
15, 212520, Note_on_c, 13, 48, 44
15, 212624, Note_on_c, 13, 48, 0
15, 212640, Note_on_c, 13, 48, 44
15, 212984, Note_on_c, 13, 48, 0
15, 213000, Note_on_c, 13, 48, 44
15, 213104, Note_on_c, 13, 48, 0
15, 213120, Note_on_c, 13, 48, 44
15, 213464, Note_on_c, 13, 48, 0
15, 213480, Note_on_c, 13, 48, 44
15, 213584, Note_on_c, 13, 48, 0
15, 213600, Note_on_c, 13, 48, 44
15, 213659, Note_on_c, 13, 48, 0
15, 213680, Note_on_c, 13, 60, 45
15, 213739, Note_on_c, 13, 60, 0
15, 213760, Note_on_c, 13, 58, 47
15, 213819, Note_on_c, 13, 58, 0
15, 213840, Note_on_c, 13, 57, 49
15, 213899, Note_on_c, 13, 57, 0
15, 213920, Note_on_c, 13, 55, 50
15, 213979, Note_on_c, 13, 55, 0
15, 214000, Note_on_c, 13, 53, 52
15, 214059, Note_on_c, 13, 53, 0
15, 214080, Note_on_c, 13, 52, 54
15, 214139, Note_on_c, 13, 52, 0
15, 214160, Note_on_c, 13, 57, 55
15, 214219, Note_on_c, 13, 57, 0
15, 214240, Note_on_c, 13, 55, 57
15, 214299, Note_on_c, 13, 55, 0
15, 214320, Note_on_c, 13, 53, 59
15, 214379, Note_on_c, 13, 53, 0
15, 214400, Note_on_c, 13, 52, 60
15, 214459, Note_on_c, 13, 52, 0
15, 214480, Note_on_c, 13, 50, 62
15, 214539, Note_on_c, 13, 50, 0
15, 214560, Note_on_c, 13, 48, 64
15, 214619, Note_on_c, 13, 48, 0
15, 214640, Note_on_c, 13, 53, 65
15, 214699, Note_on_c, 13, 53, 0
15, 214720, Note_on_c, 13, 52, 67
15, 214779, Note_on_c, 13, 52, 0
15, 214800, Note_on_c, 13, 50, 69
15, 214859, Note_on_c, 13, 50, 0
15, 214880, Note_on_c, 13, 48, 70
15, 214939, Note_on_c, 13, 48, 0
15, 214960, Note_on_c, 13, 46, 72
15, 215019, Note_on_c, 13, 46, 0
15, 215040, Note_on_c, 13, 45, 74
15, 215099, Note_on_c, 13, 45, 0
15, 215120, Note_on_c, 13, 50, 75
15, 215179, Note_on_c, 13, 50, 0
15, 215200, Note_on_c, 13, 48, 77
15, 215259, Note_on_c, 13, 48, 0
15, 215280, Note_on_c, 13, 46, 79
15, 215339, Note_on_c, 13, 46, 0
15, 215360, Note_on_c, 13, 45, 80
15, 215419, Note_on_c, 13, 45, 0
15, 215440, Note_on_c, 13, 43, 82
15, 215499, Note_on_c, 13, 43, 0
15, 215520, Note_on_c, 13, 41, 84
15, 215571, Note_on_c, 13, 41, 0
15, 215580, Note_on_c, 13, 48, 84
15, 215631, Note_on_c, 13, 48, 0
15, 215640, Note_on_c, 13, 41, 84
15, 215691, Note_on_c, 13, 41, 0
15, 215700, Note_on_c, 13, 48, 84
15, 215751, Note_on_c, 13, 48, 0
15, 215760, Note_on_c, 13, 41, 84
15, 215811, Note_on_c, 13, 41, 0
15, 215820, Note_on_c, 13, 48, 84
15, 215871, Note_on_c, 13, 48, 0
15, 215880, Note_on_c, 13, 41, 84
15, 215931, Note_on_c, 13, 41, 0
15, 215940, Note_on_c, 13, 48, 84
15, 215991, Note_on_c, 13, 48, 0
15, 216000, Note_on_c, 13, 41, 84
15, 216051, Note_on_c, 13, 41, 0
15, 216060, Note_on_c, 13, 48, 84
15, 216111, Note_on_c, 13, 48, 0
15, 216120, Note_on_c, 13, 41, 84
15, 216171, Note_on_c, 13, 41, 0
15, 216180, Note_on_c, 13, 48, 84
15, 216231, Note_on_c, 13, 48, 0
15, 216240, Note_on_c, 13, 41, 84
15, 216291, Note_on_c, 13, 41, 0
15, 216300, Note_on_c, 13, 48, 84
15, 216351, Note_on_c, 13, 48, 0
15, 216360, Note_on_c, 13, 41, 84
15, 216411, Note_on_c, 13, 41, 0
15, 216420, Note_on_c, 13, 48, 84
15, 216471, Note_on_c, 13, 48, 0
15, 216480, Note_on_c, 13, 41, 84
15, 216531, Note_on_c, 13, 41, 0
15, 216540, Note_on_c, 13, 48, 84
15, 216591, Note_on_c, 13, 48, 0
15, 216600, Note_on_c, 13, 41, 84
15, 216651, Note_on_c, 13, 41, 0
15, 216660, Note_on_c, 13, 48, 84
15, 216711, Note_on_c, 13, 48, 0
15, 216720, Note_on_c, 13, 41, 84
15, 216771, Note_on_c, 13, 41, 0
15, 216780, Note_on_c, 13, 48, 84
15, 216831, Note_on_c, 13, 48, 0
15, 216840, Note_on_c, 13, 41, 84
15, 216891, Note_on_c, 13, 41, 0
15, 216900, Note_on_c, 13, 48, 84
15, 216951, Note_on_c, 13, 48, 0
15, 216960, Note_on_c, 13, 41, 84
15, 217011, Note_on_c, 13, 41, 0
15, 217020, Note_on_c, 13, 48, 84
15, 217071, Note_on_c, 13, 48, 0
15, 217080, Note_on_c, 13, 41, 84
15, 217131, Note_on_c, 13, 41, 0
15, 217140, Note_on_c, 13, 48, 84
15, 217191, Note_on_c, 13, 48, 0
15, 217200, Note_on_c, 13, 41, 84
15, 217251, Note_on_c, 13, 41, 0
15, 217260, Note_on_c, 13, 48, 84
15, 217311, Note_on_c, 13, 48, 0
15, 217320, Note_on_c, 13, 41, 84
15, 217371, Note_on_c, 13, 41, 0
15, 217380, Note_on_c, 13, 48, 84
15, 217431, Note_on_c, 13, 48, 0
15, 217440, Note_on_c, 13, 41, 84
15, 217491, Note_on_c, 13, 41, 0
15, 217500, Note_on_c, 13, 48, 84
15, 217551, Note_on_c, 13, 48, 0
15, 217560, Note_on_c, 13, 41, 84
15, 217611, Note_on_c, 13, 41, 0
15, 217620, Note_on_c, 13, 48, 84
15, 217671, Note_on_c, 13, 48, 0
15, 217680, Note_on_c, 13, 41, 84
15, 217731, Note_on_c, 13, 41, 0
15, 217740, Note_on_c, 13, 48, 84
15, 217791, Note_on_c, 13, 48, 0
15, 217800, Note_on_c, 13, 41, 84
15, 217851, Note_on_c, 13, 41, 0
15, 217860, Note_on_c, 13, 48, 84
15, 217911, Note_on_c, 13, 48, 0
15, 217920, Note_on_c, 13, 41, 84
15, 217971, Note_on_c, 13, 41, 0
15, 217980, Note_on_c, 13, 48, 84
15, 218031, Note_on_c, 13, 48, 0
15, 218040, Note_on_c, 13, 41, 84
15, 218091, Note_on_c, 13, 41, 0
15, 218100, Note_on_c, 13, 48, 84
15, 218151, Note_on_c, 13, 48, 0
15, 218160, Note_on_c, 13, 41, 84
15, 218211, Note_on_c, 13, 41, 0
15, 218220, Note_on_c, 13, 48, 84
15, 218271, Note_on_c, 13, 48, 0
15, 218280, Note_on_c, 13, 41, 84
15, 218331, Note_on_c, 13, 41, 0
15, 218340, Note_on_c, 13, 48, 84
15, 218391, Note_on_c, 13, 48, 0
15, 218400, Note_on_c, 13, 36, 84
15, 218451, Note_on_c, 13, 36, 0
15, 218460, Note_on_c, 13, 48, 84
15, 218511, Note_on_c, 13, 48, 0
15, 218520, Note_on_c, 13, 36, 84
15, 218571, Note_on_c, 13, 36, 0
15, 218580, Note_on_c, 13, 48, 84
15, 218631, Note_on_c, 13, 48, 0
15, 218640, Note_on_c, 13, 36, 84
15, 218691, Note_on_c, 13, 36, 0
15, 218700, Note_on_c, 13, 48, 84
15, 218751, Note_on_c, 13, 48, 0
15, 218760, Note_on_c, 13, 36, 84
15, 218811, Note_on_c, 13, 36, 0
15, 218820, Note_on_c, 13, 48, 84
15, 218871, Note_on_c, 13, 48, 0
15, 218880, Note_on_c, 13, 36, 84
15, 218931, Note_on_c, 13, 36, 0
15, 218940, Note_on_c, 13, 48, 84
15, 218991, Note_on_c, 13, 48, 0
15, 219000, Note_on_c, 13, 36, 84
15, 219051, Note_on_c, 13, 36, 0
15, 219060, Note_on_c, 13, 48, 84
15, 219111, Note_on_c, 13, 48, 0
15, 219120, Note_on_c, 13, 36, 84
15, 219171, Note_on_c, 13, 36, 0
15, 219180, Note_on_c, 13, 48, 84
15, 219231, Note_on_c, 13, 48, 0
15, 219240, Note_on_c, 13, 36, 84
15, 219291, Note_on_c, 13, 36, 0
15, 219300, Note_on_c, 13, 48, 84
15, 219351, Note_on_c, 13, 48, 0
15, 219360, Note_on_c, 13, 36, 84
15, 219411, Note_on_c, 13, 36, 0
15, 219420, Note_on_c, 13, 48, 84
15, 219471, Note_on_c, 13, 48, 0
15, 219480, Note_on_c, 13, 36, 84
15, 219531, Note_on_c, 13, 36, 0
15, 219540, Note_on_c, 13, 48, 84
15, 219591, Note_on_c, 13, 48, 0
15, 219600, Note_on_c, 13, 36, 84
15, 219651, Note_on_c, 13, 36, 0
15, 219660, Note_on_c, 13, 48, 84
15, 219711, Note_on_c, 13, 48, 0
15, 219720, Note_on_c, 13, 36, 84
15, 219771, Note_on_c, 13, 36, 0
15, 219780, Note_on_c, 13, 48, 84
15, 219831, Note_on_c, 13, 48, 0
15, 219840, Note_on_c, 13, 36, 84
15, 219891, Note_on_c, 13, 36, 0
15, 219900, Note_on_c, 13, 48, 84
15, 219951, Note_on_c, 13, 48, 0
15, 219960, Note_on_c, 13, 36, 84
15, 220011, Note_on_c, 13, 36, 0
15, 220020, Note_on_c, 13, 48, 84
15, 220071, Note_on_c, 13, 48, 0
15, 220080, Note_on_c, 13, 36, 84
15, 220131, Note_on_c, 13, 36, 0
15, 220140, Note_on_c, 13, 48, 84
15, 220191, Note_on_c, 13, 48, 0
15, 220200, Note_on_c, 13, 36, 84
15, 220251, Note_on_c, 13, 36, 0
15, 220260, Note_on_c, 13, 48, 84
15, 220311, Note_on_c, 13, 48, 0
15, 220320, Note_on_c, 13, 41, 84
15, 220371, Note_on_c, 13, 41, 0
15, 220380, Note_on_c, 13, 48, 84
15, 220431, Note_on_c, 13, 48, 0
15, 220440, Note_on_c, 13, 41, 84
15, 220491, Note_on_c, 13, 41, 0
15, 220500, Note_on_c, 13, 48, 84
15, 220551, Note_on_c, 13, 48, 0
15, 220560, Note_on_c, 13, 41, 84
15, 220611, Note_on_c, 13, 41, 0
15, 220620, Note_on_c, 13, 48, 84
15, 220671, Note_on_c, 13, 48, 0
15, 220680, Note_on_c, 13, 41, 84
15, 220731, Note_on_c, 13, 41, 0
15, 220740, Note_on_c, 13, 48, 84
15, 220791, Note_on_c, 13, 48, 0
15, 220800, Note_on_c, 13, 41, 84
15, 220851, Note_on_c, 13, 41, 0
15, 220860, Note_on_c, 13, 48, 84
15, 220911, Note_on_c, 13, 48, 0
15, 220920, Note_on_c, 13, 41, 84
15, 220971, Note_on_c, 13, 41, 0
15, 220980, Note_on_c, 13, 48, 84
15, 221031, Note_on_c, 13, 48, 0
15, 221040, Note_on_c, 13, 41, 84
15, 221091, Note_on_c, 13, 41, 0
15, 221100, Note_on_c, 13, 48, 84
15, 221151, Note_on_c, 13, 48, 0
15, 221160, Note_on_c, 13, 41, 84
15, 221211, Note_on_c, 13, 41, 0
15, 221220, Note_on_c, 13, 48, 84
15, 221271, Note_on_c, 13, 48, 0
15, 221280, Note_on_c, 13, 41, 84
15, 221331, Note_on_c, 13, 41, 0
15, 221340, Note_on_c, 13, 48, 84
15, 221391, Note_on_c, 13, 48, 0
15, 221400, Note_on_c, 13, 41, 84
15, 221451, Note_on_c, 13, 41, 0
15, 221460, Note_on_c, 13, 48, 84
15, 221511, Note_on_c, 13, 48, 0
15, 221520, Note_on_c, 13, 41, 84
15, 221571, Note_on_c, 13, 41, 0
15, 221580, Note_on_c, 13, 48, 84
15, 221631, Note_on_c, 13, 48, 0
15, 221640, Note_on_c, 13, 41, 84
15, 221691, Note_on_c, 13, 41, 0
15, 221700, Note_on_c, 13, 48, 84
15, 221751, Note_on_c, 13, 48, 0
15, 221760, Note_on_c, 13, 41, 84
15, 221811, Note_on_c, 13, 41, 0
15, 221820, Note_on_c, 13, 48, 84
15, 221871, Note_on_c, 13, 48, 0
15, 221880, Note_on_c, 13, 41, 84
15, 221931, Note_on_c, 13, 41, 0
15, 221940, Note_on_c, 13, 48, 84
15, 221991, Note_on_c, 13, 48, 0
15, 222000, Note_on_c, 13, 41, 84
15, 222051, Note_on_c, 13, 41, 0
15, 222060, Note_on_c, 13, 48, 84
15, 222111, Note_on_c, 13, 48, 0
15, 222120, Note_on_c, 13, 41, 84
15, 222171, Note_on_c, 13, 41, 0
15, 222180, Note_on_c, 13, 48, 84
15, 222231, Note_on_c, 13, 48, 0
15, 222240, Note_on_c, 13, 41, 84
15, 222291, Note_on_c, 13, 41, 0
15, 222300, Note_on_c, 13, 48, 84
15, 222351, Note_on_c, 13, 48, 0
15, 222360, Note_on_c, 13, 41, 84
15, 222411, Note_on_c, 13, 41, 0
15, 222420, Note_on_c, 13, 48, 84
15, 222471, Note_on_c, 13, 48, 0
15, 222480, Note_on_c, 13, 41, 84
15, 222531, Note_on_c, 13, 41, 0
15, 222540, Note_on_c, 13, 48, 84
15, 222591, Note_on_c, 13, 48, 0
15, 222600, Note_on_c, 13, 41, 84
15, 222651, Note_on_c, 13, 41, 0
15, 222660, Note_on_c, 13, 48, 84
15, 222711, Note_on_c, 13, 48, 0
15, 222720, Note_on_c, 13, 41, 84
15, 222771, Note_on_c, 13, 41, 0
15, 222780, Note_on_c, 13, 48, 84
15, 222831, Note_on_c, 13, 48, 0
15, 222840, Note_on_c, 13, 41, 84
15, 222891, Note_on_c, 13, 41, 0
15, 222900, Note_on_c, 13, 48, 84
15, 222951, Note_on_c, 13, 48, 0
15, 222960, Note_on_c, 13, 41, 84
15, 223011, Note_on_c, 13, 41, 0
15, 223020, Note_on_c, 13, 48, 84
15, 223071, Note_on_c, 13, 48, 0
15, 223080, Note_on_c, 13, 41, 84
15, 223131, Note_on_c, 13, 41, 0
15, 223140, Note_on_c, 13, 48, 84
15, 223191, Note_on_c, 13, 48, 0
15, 223200, Note_on_c, 13, 41, 84
15, 223319, Note_on_c, 13, 41, 0
15, 224880, Program_c, 13, 45
15, 225120, Note_on_c, 13, 50, 48
15, 225359, Note_on_c, 13, 50, 0
15, 227040, Note_on_c, 13, 48, 48
15, 227279, Note_on_c, 13, 48, 0
15, 228000, Note_on_c, 13, 47, 48
15, 228239, Note_on_c, 13, 47, 0
15, 228960, Note_on_c, 13, 46, 48
15, 229199, Note_on_c, 13, 46, 0
15, 231360, Program_c, 13, 48
15, 231480, Note_on_c, 13, 50, 52
15, 231599, Note_on_c, 13, 50, 0
15, 231600, Note_on_c, 13, 48, 52
15, 231704, Note_on_c, 13, 48, 0
15, 231720, Note_on_c, 13, 47, 52
15, 231809, Note_on_c, 13, 47, 0
15, 231840, Note_on_c, 13, 48, 52
15, 232784, Note_on_c, 13, 48, 0
15, 232800, Note_on_c, 13, 53, 52
15, 233744, Note_on_c, 13, 53, 0
15, 233760, Note_on_c, 13, 52, 52
15, 233984, Note_on_c, 13, 52, 0
15, 234000, Note_on_c, 13, 52, 52
15, 234224, Note_on_c, 13, 52, 0
15, 234240, Note_on_c, 13, 52, 52
15, 234479, Note_on_c, 13, 52, 0
15, 234480, Note_on_c, 13, 55, 52
15, 234599, Note_on_c, 13, 55, 0
15, 234600, Note_on_c, 13, 52, 52
15, 234704, Note_on_c, 13, 52, 0
15, 234720, Note_on_c, 13, 53, 52
15, 234944, Note_on_c, 13, 53, 0
15, 234960, Note_on_c, 13, 53, 52
15, 235184, Note_on_c, 13, 53, 0
15, 235200, Note_on_c, 13, 53, 52
15, 235439, Note_on_c, 13, 53, 0
15, 235440, Note_on_c, 13, 57, 52
15, 235559, Note_on_c, 13, 57, 0
15, 235560, Note_on_c, 13, 53, 52
15, 235664, Note_on_c, 13, 53, 0
15, 235678, Control_c, 13, 11, 80
15, 235680, Note_on_c, 13, 60, 76
15, 235680, Control_c, 13, 11, 80
15, 235799, Note_on_c, 13, 60, 0
15, 235800, Note_on_c, 13, 58, 76
15, 235864, Control_c, 13, 11, 81
15, 235919, Note_on_c, 13, 58, 0
15, 235920, Note_on_c, 13, 55, 76
15, 236039, Note_on_c, 13, 55, 0
15, 236040, Note_on_c, 13, 52, 76
15, 236048, Control_c, 13, 11, 82
15, 236159, Note_on_c, 13, 52, 0
15, 236160, Note_on_c, 13, 48, 76
15, 236231, Control_c, 13, 11, 83
15, 236279, Note_on_c, 13, 48, 0
15, 236280, Note_on_c, 13, 58, 76
15, 236399, Note_on_c, 13, 58, 0
15, 236400, Note_on_c, 13, 55, 76
15, 236415, Control_c, 13, 11, 84
15, 236519, Note_on_c, 13, 55, 0
15, 236520, Note_on_c, 13, 48, 76
15, 236599, Control_c, 13, 11, 85
15, 236624, Note_on_c, 13, 48, 0
15, 236640, Note_on_c, 13, 62, 76
15, 236759, Note_on_c, 13, 62, 0
15, 236760, Note_on_c, 13, 60, 76
15, 236783, Control_c, 13, 11, 86
15, 236879, Note_on_c, 13, 60, 0
15, 236880, Note_on_c, 13, 57, 76
15, 236967, Control_c, 13, 11, 87
15, 236999, Note_on_c, 13, 57, 0
15, 237000, Note_on_c, 13, 53, 76
15, 237119, Note_on_c, 13, 53, 0
15, 237120, Note_on_c, 13, 48, 76
15, 237151, Control_c, 13, 11, 88
15, 237239, Note_on_c, 13, 48, 0
15, 237240, Note_on_c, 13, 57, 76
15, 237334, Control_c, 13, 11, 89
15, 237359, Note_on_c, 13, 57, 0
15, 237360, Note_on_c, 13, 53, 76
15, 237479, Note_on_c, 13, 53, 0
15, 237480, Note_on_c, 13, 48, 76
15, 237518, Control_c, 13, 11, 90
15, 237584, Note_on_c, 13, 48, 0
15, 237600, Note_on_c, 13, 60, 76
15, 237702, Control_c, 13, 11, 91
15, 237719, Note_on_c, 13, 60, 0
15, 237720, Note_on_c, 13, 58, 76
15, 237839, Note_on_c, 13, 58, 0
15, 237840, Note_on_c, 13, 55, 76
15, 237886, Control_c, 13, 11, 92
15, 237959, Note_on_c, 13, 55, 0
15, 237960, Note_on_c, 13, 52, 76
15, 238070, Control_c, 13, 11, 93
15, 238079, Note_on_c, 13, 52, 0
15, 238080, Note_on_c, 13, 48, 76
15, 238199, Note_on_c, 13, 48, 0
15, 238200, Note_on_c, 13, 58, 76
15, 238254, Control_c, 13, 11, 94
15, 238319, Note_on_c, 13, 58, 0
15, 238320, Note_on_c, 13, 55, 76
15, 238437, Control_c, 13, 11, 95
15, 238439, Note_on_c, 13, 55, 0
15, 238440, Note_on_c, 13, 48, 76
15, 238544, Note_on_c, 13, 48, 0
15, 238560, Note_on_c, 13, 62, 76
15, 238621, Control_c, 13, 11, 96
15, 238679, Note_on_c, 13, 62, 0
15, 238680, Note_on_c, 13, 60, 76
15, 238799, Note_on_c, 13, 60, 0
15, 238800, Note_on_c, 13, 57, 76
15, 238805, Control_c, 13, 11, 97
15, 238919, Note_on_c, 13, 57, 0
15, 238920, Note_on_c, 13, 53, 76
15, 238989, Control_c, 13, 11, 98
15, 239039, Note_on_c, 13, 53, 0
15, 239040, Note_on_c, 13, 48, 76
15, 239159, Note_on_c, 13, 48, 0
15, 239160, Note_on_c, 13, 57, 76
15, 239173, Control_c, 13, 11, 99
15, 239279, Note_on_c, 13, 57, 0
15, 239280, Note_on_c, 13, 53, 76
15, 239357, Control_c, 13, 11, 100
15, 239399, Note_on_c, 13, 53, 0
15, 239400, Note_on_c, 13, 48, 76
15, 239504, Note_on_c, 13, 48, 0
15, 239520, Note_on_c, 13, 48, 76
15, 239540, Control_c, 13, 11, 101
15, 239724, Control_c, 13, 11, 102
15, 239908, Control_c, 13, 11, 103
15, 240092, Control_c, 13, 11, 104
15, 240276, Control_c, 13, 11, 105
15, 240460, Control_c, 13, 11, 106
15, 240464, Note_on_c, 13, 48, 0
15, 240480, Note_on_c, 13, 41, 76
15, 240643, Control_c, 13, 11, 107
15, 240827, Control_c, 13, 11, 108
15, 241011, Control_c, 13, 11, 109
15, 241195, Control_c, 13, 11, 110
15, 241379, Control_c, 13, 11, 111
15, 241424, Note_on_c, 13, 41, 0
15, 241440, Note_on_c, 13, 40, 76
15, 241563, Control_c, 13, 11, 112
15, 241664, Note_on_c, 13, 40, 0
15, 241680, Note_on_c, 13, 40, 76
15, 241746, Control_c, 13, 11, 113
15, 241904, Note_on_c, 13, 40, 0
15, 241920, Note_on_c, 13, 40, 76
15, 241930, Control_c, 13, 11, 114
15, 242114, Control_c, 13, 11, 115
15, 242159, Note_on_c, 13, 40, 0
15, 242160, Note_on_c, 13, 43, 76
15, 242279, Note_on_c, 13, 43, 0
15, 242280, Note_on_c, 13, 40, 76
15, 242298, Control_c, 13, 11, 116
15, 242384, Note_on_c, 13, 40, 0
15, 242400, Note_on_c, 13, 41, 76
15, 242482, Control_c, 13, 11, 117
15, 242624, Note_on_c, 13, 41, 0
15, 242640, Note_on_c, 13, 41, 76
15, 242666, Control_c, 13, 11, 118
15, 242849, Control_c, 13, 11, 119
15, 242864, Note_on_c, 13, 41, 0
15, 242880, Note_on_c, 13, 41, 76
15, 243033, Control_c, 13, 11, 120
15, 243119, Note_on_c, 13, 41, 0
15, 243120, Note_on_c, 13, 45, 76
15, 243217, Control_c, 13, 11, 121
15, 243239, Note_on_c, 13, 45, 0
15, 243240, Note_on_c, 13, 41, 76
15, 243344, Note_on_c, 13, 41, 0
15, 243360, Note_on_c, 13, 43, 76
15, 243401, Control_c, 13, 11, 122
15, 243584, Note_on_c, 13, 43, 0
15, 243585, Control_c, 13, 11, 123
15, 243600, Note_on_c, 13, 43, 76
15, 243769, Control_c, 13, 11, 124
15, 243824, Note_on_c, 13, 43, 0
15, 243840, Note_on_c, 13, 43, 76
15, 243952, Control_c, 13, 11, 125
15, 244079, Note_on_c, 13, 43, 0
15, 244080, Note_on_c, 13, 46, 76
15, 244136, Control_c, 13, 11, 127
15, 244199, Note_on_c, 13, 46, 0
15, 244200, Note_on_c, 13, 43, 76
15, 244304, Note_on_c, 13, 43, 0
15, 244320, Note_on_c, 13, 53, 76
15, 245744, Note_on_c, 13, 53, 0
15, 245760, Note_on_c, 13, 46, 76
15, 245879, Note_on_c, 13, 46, 0
15, 246240, Note_on_c, 13, 46, 52
15, 246719, Note_on_c, 13, 46, 0
15, 246720, Note_on_c, 13, 53, 52
15, 247199, Note_on_c, 13, 53, 0
15, 247200, Note_on_c, 13, 48, 52
15, 247664, Note_on_c, 13, 48, 0
15, 247680, Note_on_c, 13, 53, 84
15, 249104, Note_on_c, 13, 53, 0
15, 249120, Note_on_c, 13, 46, 76
15, 249239, Note_on_c, 13, 46, 0
15, 249600, Note_on_c, 13, 46, 52
15, 250064, Note_on_c, 13, 46, 0
15, 250080, Note_on_c, 13, 53, 52
15, 250544, Note_on_c, 13, 53, 0
15, 250560, Note_on_c, 13, 48, 52
15, 251024, Note_on_c, 13, 48, 0
15, 251038, Control_c, 13, 11, 80
15, 251040, Note_on_c, 13, 53, 76
15, 251120, Control_c, 13, 11, 82
15, 251200, Control_c, 13, 11, 84
15, 251264, Note_on_c, 13, 53, 0
15, 251280, Note_on_c, 13, 53, 76
15, 251280, Control_c, 13, 11, 86
15, 251360, Control_c, 13, 11, 88
15, 251440, Control_c, 13, 11, 90
15, 251519, Note_on_c, 13, 53, 0
15, 251520, Control_c, 13, 11, 92
15, 251520, Note_on_c, 13, 46, 76
15, 251600, Control_c, 13, 11, 94
15, 251680, Control_c, 13, 11, 96
15, 251744, Note_on_c, 13, 46, 0
15, 251760, Note_on_c, 13, 46, 76
15, 251760, Control_c, 13, 11, 98
15, 251840, Control_c, 13, 11, 100
15, 251920, Control_c, 13, 11, 102
15, 251999, Note_on_c, 13, 46, 0
15, 252000, Note_on_c, 13, 41, 76
15, 252000, Control_c, 13, 11, 104
15, 252080, Control_c, 13, 11, 105
15, 252160, Control_c, 13, 11, 107
15, 252224, Note_on_c, 13, 41, 0
15, 252240, Note_on_c, 13, 41, 76
15, 252240, Control_c, 13, 11, 109
15, 252320, Control_c, 13, 11, 111
15, 252400, Control_c, 13, 11, 113
15, 252479, Note_on_c, 13, 41, 0
15, 252480, Note_on_c, 13, 48, 76
15, 252480, Control_c, 13, 11, 115
15, 252560, Control_c, 13, 11, 117
15, 252640, Control_c, 13, 11, 119
15, 252704, Note_on_c, 13, 48, 0
15, 252720, Control_c, 13, 11, 121
15, 252720, Note_on_c, 13, 48, 76
15, 252800, Control_c, 13, 11, 123
15, 252880, Control_c, 13, 11, 127
15, 252944, Note_on_c, 13, 48, 0
15, 252960, Note_on_c, 13, 41, 76
15, 253027, Note_on_c, 13, 41, 0
15, 253040, Note_on_c, 13, 41, 76
15, 253107, Note_on_c, 13, 41, 0
15, 253120, Note_on_c, 13, 41, 76
15, 253187, Note_on_c, 13, 41, 0
15, 253200, Note_on_c, 13, 41, 76
15, 253267, Note_on_c, 13, 41, 0
15, 253280, Note_on_c, 13, 43, 76
15, 253347, Note_on_c, 13, 43, 0
15, 253360, Note_on_c, 13, 45, 76
15, 253427, Note_on_c, 13, 45, 0
15, 253440, Note_on_c, 13, 46, 76
15, 253507, Note_on_c, 13, 46, 0
15, 253520, Note_on_c, 13, 46, 76
15, 253587, Note_on_c, 13, 46, 0
15, 253600, Note_on_c, 13, 46, 76
15, 253667, Note_on_c, 13, 46, 0
15, 253680, Note_on_c, 13, 50, 76
15, 253747, Note_on_c, 13, 50, 0
15, 253760, Note_on_c, 13, 50, 76
15, 253827, Note_on_c, 13, 50, 0
15, 253840, Note_on_c, 13, 50, 76
15, 253907, Note_on_c, 13, 50, 0
15, 253920, Note_on_c, 13, 53, 76
15, 253987, Note_on_c, 13, 53, 0
15, 254000, Note_on_c, 13, 53, 76
15, 254067, Note_on_c, 13, 53, 0
15, 254080, Note_on_c, 13, 53, 76
15, 254147, Note_on_c, 13, 53, 0
15, 254160, Note_on_c, 13, 57, 76
15, 254227, Note_on_c, 13, 57, 0
15, 254240, Note_on_c, 13, 57, 76
15, 254307, Note_on_c, 13, 57, 0
15, 254320, Note_on_c, 13, 57, 76
15, 254387, Note_on_c, 13, 57, 0
15, 254400, Note_on_c, 13, 60, 76
15, 254467, Note_on_c, 13, 60, 0
15, 254480, Note_on_c, 13, 60, 76
15, 254547, Note_on_c, 13, 60, 0
15, 254560, Note_on_c, 13, 60, 76
15, 254627, Note_on_c, 13, 60, 0
15, 254640, Note_on_c, 13, 48, 76
15, 254707, Note_on_c, 13, 48, 0
15, 254720, Note_on_c, 13, 48, 76
15, 254787, Note_on_c, 13, 48, 0
15, 254800, Note_on_c, 13, 48, 76
15, 254867, Note_on_c, 13, 48, 0
15, 254880, Note_on_c, 13, 53, 76
15, 254947, Note_on_c, 13, 53, 0
15, 254960, Note_on_c, 13, 41, 76
15, 255027, Note_on_c, 13, 41, 0
15, 255040, Note_on_c, 13, 41, 76
15, 255107, Note_on_c, 13, 41, 0
15, 255120, Note_on_c, 13, 41, 76
15, 255907, Note_on_c, 13, 41, 0
15, 255920, Note_on_c, 13, 41, 76
15, 255987, Note_on_c, 13, 41, 0
15, 256000, Note_on_c, 13, 41, 76
15, 256067, Note_on_c, 13, 41, 0
15, 256080, Note_on_c, 13, 41, 76
15, 256867, Note_on_c, 13, 41, 0
15, 256880, Note_on_c, 13, 41, 76
15, 256947, Note_on_c, 13, 41, 0
15, 256960, Note_on_c, 13, 41, 76
15, 257027, Note_on_c, 13, 41, 0
15, 257040, Note_on_c, 13, 41, 76
15, 257827, Note_on_c, 13, 41, 0
15, 257840, Note_on_c, 13, 41, 76
15, 257907, Note_on_c, 13, 41, 0
15, 257920, Note_on_c, 13, 41, 76
15, 257987, Note_on_c, 13, 41, 0
15, 258000, Note_on_c, 13, 41, 76
15, 258720, Control_c, 13, 11, 127
15, 258787, Note_on_c, 13, 41, 0
15, 258800, Control_c, 13, 11, 125
15, 258800, Note_on_c, 13, 41, 76
15, 258867, Note_on_c, 13, 41, 0
15, 258880, Note_on_c, 13, 41, 76
15, 258880, Control_c, 13, 11, 123
15, 258947, Note_on_c, 13, 41, 0
15, 258960, Control_c, 13, 11, 121
15, 258960, Note_on_c, 13, 41, 76
15, 259040, Control_c, 13, 11, 119
15, 259120, Control_c, 13, 11, 117
15, 259200, Control_c, 13, 11, 115
15, 259267, Note_on_c, 13, 41, 0
15, 259280, Note_on_c, 13, 41, 76
15, 259280, Control_c, 13, 11, 113
15, 259347, Note_on_c, 13, 41, 0
15, 259360, Control_c, 13, 11, 111
15, 259360, Note_on_c, 13, 41, 76
15, 259427, Note_on_c, 13, 41, 0
15, 259440, Control_c, 13, 11, 109
15, 259440, Note_on_c, 13, 41, 76
15, 259520, Control_c, 13, 11, 107
15, 259600, Control_c, 13, 11, 105
15, 259680, Control_c, 13, 11, 104
15, 259747, Note_on_c, 13, 41, 0
15, 259760, Note_on_c, 13, 41, 76
15, 259760, Control_c, 13, 11, 102
15, 259827, Note_on_c, 13, 41, 0
15, 259840, Control_c, 13, 11, 100
15, 259840, Note_on_c, 13, 41, 76
15, 259907, Note_on_c, 13, 41, 0
15, 259920, Note_on_c, 13, 41, 76
15, 259920, Control_c, 13, 11, 98
15, 260000, Control_c, 13, 11, 96
15, 260080, Control_c, 13, 11, 94
15, 260160, Control_c, 13, 11, 92
15, 260227, Note_on_c, 13, 41, 0
15, 260240, Control_c, 13, 11, 90
15, 260240, Note_on_c, 13, 41, 76
15, 260307, Note_on_c, 13, 41, 0
15, 260320, Note_on_c, 13, 41, 76
15, 260320, Control_c, 13, 11, 88
15, 260387, Note_on_c, 13, 41, 0
15, 260400, Note_on_c, 13, 41, 76
15, 260400, Control_c, 13, 11, 86
15, 260480, Control_c, 13, 11, 84
15, 260560, Control_c, 13, 11, 82
15, 260640, Control_c, 13, 11, 80
15, 260707, Note_on_c, 13, 41, 0
15, 260720, Note_on_c, 13, 41, 76
15, 260760, Control_c, 13, 11, 79
15, 260787, Note_on_c, 13, 41, 0
15, 260800, Note_on_c, 13, 41, 76
15, 260867, Note_on_c, 13, 41, 0
15, 260880, Control_c, 13, 11, 78
15, 260880, Note_on_c, 13, 41, 76
15, 261000, Control_c, 13, 11, 77
15, 261120, Control_c, 13, 11, 76
15, 261187, Note_on_c, 13, 41, 0
15, 261200, Note_on_c, 13, 41, 76
15, 261240, Control_c, 13, 11, 75
15, 261267, Note_on_c, 13, 41, 0
15, 261280, Note_on_c, 13, 41, 76
15, 261347, Note_on_c, 13, 41, 0
15, 261360, Control_c, 13, 11, 74
15, 261360, Note_on_c, 13, 41, 76
15, 261480, Control_c, 13, 11, 73
15, 261600, Control_c, 13, 11, 72
15, 261667, Note_on_c, 13, 41, 0
15, 261680, Note_on_c, 13, 41, 76
15, 261720, Control_c, 13, 11, 71
15, 261747, Note_on_c, 13, 41, 0
15, 261760, Note_on_c, 13, 41, 76
15, 261827, Note_on_c, 13, 41, 0
15, 261840, Control_c, 13, 11, 70
15, 261840, Note_on_c, 13, 41, 76
15, 261960, Control_c, 13, 11, 69
15, 262080, Control_c, 13, 11, 68
15, 262147, Note_on_c, 13, 41, 0
15, 262160, Note_on_c, 13, 41, 76
15, 262200, Control_c, 13, 11, 67
15, 262227, Note_on_c, 13, 41, 0
15, 262240, Note_on_c, 13, 41, 76
15, 262307, Note_on_c, 13, 41, 0
15, 262320, Control_c, 13, 11, 66
15, 262320, Note_on_c, 13, 41, 76
15, 262440, Control_c, 13, 11, 64
15, 262664, Note_on_c, 13, 41, 0
15, 262680, Note_on_c, 13, 48, 76
15, 262739, Note_on_c, 13, 48, 0
15, 262740, Note_on_c, 13, 45, 76
15, 262799, Note_on_c, 13, 45, 0
15, 262800, Note_on_c, 13, 41, 76
15, 262889, Note_on_c, 13, 41, 0
15, 262920, Note_on_c, 13, 48, 76
15, 262979, Note_on_c, 13, 48, 0
15, 262980, Note_on_c, 13, 45, 76
15, 263039, Note_on_c, 13, 45, 0
15, 263040, Note_on_c, 13, 41, 76
15, 263129, Note_on_c, 13, 41, 0
15, 263160, Note_on_c, 13, 48, 76
15, 263219, Note_on_c, 13, 48, 0
15, 263220, Note_on_c, 13, 45, 76
15, 263279, Note_on_c, 13, 45, 0
15, 263280, Note_on_c, 13, 41, 76
15, 263369, Note_on_c, 13, 41, 0
15, 263400, Note_on_c, 13, 48, 76
15, 263459, Note_on_c, 13, 48, 0
15, 263460, Note_on_c, 13, 45, 76
15, 263519, Note_on_c, 13, 45, 0
15, 263520, Note_on_c, 13, 41, 76
15, 263609, Note_on_c, 13, 41, 0
15, 263640, Note_on_c, 13, 48, 76
15, 263699, Note_on_c, 13, 48, 0
15, 263700, Note_on_c, 13, 45, 76
15, 263759, Note_on_c, 13, 45, 0
15, 263760, Note_on_c, 13, 41, 76
15, 263849, Note_on_c, 13, 41, 0
15, 263880, Note_on_c, 13, 48, 76
15, 263939, Note_on_c, 13, 48, 0
15, 263940, Note_on_c, 13, 45, 76
15, 263999, Note_on_c, 13, 45, 0
15, 264000, Note_on_c, 13, 41, 76
15, 264089, Note_on_c, 13, 41, 0
15, 264120, Note_on_c, 13, 48, 76
15, 264179, Note_on_c, 13, 48, 0
15, 264180, Note_on_c, 13, 45, 76
15, 264239, Note_on_c, 13, 45, 0
15, 264240, Note_on_c, 13, 41, 76
15, 264329, Note_on_c, 13, 41, 0
15, 264360, Note_on_c, 13, 48, 76
15, 264419, Note_on_c, 13, 48, 0
15, 264420, Note_on_c, 13, 45, 76
15, 264479, Note_on_c, 13, 45, 0
15, 264480, Note_on_c, 13, 41, 76
15, 264569, Note_on_c, 13, 41, 0
15, 268320, Control_c, 13, 11, 127
15, 268440, Note_on_c, 13, 58, 76
15, 268529, Note_on_c, 13, 58, 0
15, 268560, Note_on_c, 13, 55, 76
15, 268649, Note_on_c, 13, 55, 0
15, 268680, Note_on_c, 13, 51, 76
15, 268769, Note_on_c, 13, 51, 0
15, 268800, Note_on_c, 13, 50, 76
15, 268889, Note_on_c, 13, 50, 0
15, 268920, Note_on_c, 13, 51, 76
15, 269009, Note_on_c, 13, 51, 0
15, 269040, Note_on_c, 13, 53, 76
15, 269129, Note_on_c, 13, 53, 0
15, 269160, Note_on_c, 13, 51, 76
15, 269249, Note_on_c, 13, 51, 0
15, 269280, Note_on_c, 13, 50, 76
15, 269369, Note_on_c, 13, 50, 0
15, 269400, Note_on_c, 13, 48, 76
15, 269489, Note_on_c, 13, 48, 0
15, 269520, Note_on_c, 13, 46, 76
15, 269609, Note_on_c, 13, 46, 0
15, 269640, Note_on_c, 13, 48, 76
15, 269729, Note_on_c, 13, 48, 0
15, 269760, Note_on_c, 13, 45, 76
15, 269849, Note_on_c, 13, 45, 0
15, 269880, Note_on_c, 13, 43, 76
15, 269969, Note_on_c, 13, 43, 0
15, 270000, Note_on_c, 13, 41, 76
15, 270089, Note_on_c, 13, 41, 0
15, 270120, Note_on_c, 13, 53, 76
15, 270209, Note_on_c, 13, 53, 0
15, 270240, Note_on_c, 13, 46, 52
15, 270719, Note_on_c, 13, 46, 0
15, 270720, Note_on_c, 13, 41, 52
15, 271184, Note_on_c, 13, 41, 0
15, 271200, Note_on_c, 13, 46, 52
15, 271267, Note_on_c, 13, 46, 0
15, 271280, Note_on_c, 13, 46, 52
15, 271347, Note_on_c, 13, 46, 0
15, 271360, Note_on_c, 13, 46, 52
15, 271427, Note_on_c, 13, 46, 0
15, 271440, Note_on_c, 13, 46, 52
15, 272227, Note_on_c, 13, 46, 0
15, 272240, Note_on_c, 13, 46, 52
15, 272307, Note_on_c, 13, 46, 0
15, 272320, Note_on_c, 13, 46, 52
15, 272387, Note_on_c, 13, 46, 0
15, 272400, Note_on_c, 13, 46, 52
15, 273187, Note_on_c, 13, 46, 0
15, 273200, Note_on_c, 13, 46, 52
15, 273267, Note_on_c, 13, 46, 0
15, 273280, Note_on_c, 13, 46, 52
15, 273347, Note_on_c, 13, 46, 0
15, 273360, Note_on_c, 13, 46, 52
15, 274147, Note_on_c, 13, 46, 0
15, 274160, Note_on_c, 13, 46, 52
15, 274227, Note_on_c, 13, 46, 0
15, 274240, Note_on_c, 13, 46, 52
15, 274307, Note_on_c, 13, 46, 0
15, 274320, Note_on_c, 13, 46, 52
15, 275107, Note_on_c, 13, 46, 0
15, 275120, Note_on_c, 13, 58, 52
15, 275187, Note_on_c, 13, 58, 0
15, 275200, Note_on_c, 13, 58, 52
15, 275267, Note_on_c, 13, 58, 0
15, 275280, Note_on_c, 13, 58, 52
15, 275587, Note_on_c, 13, 58, 0
15, 275600, Note_on_c, 13, 55, 52
15, 275667, Note_on_c, 13, 55, 0
15, 275680, Note_on_c, 13, 55, 52
15, 275747, Note_on_c, 13, 55, 0
15, 275760, Note_on_c, 13, 55, 52
15, 276067, Note_on_c, 13, 55, 0
15, 276080, Note_on_c, 13, 52, 52
15, 276147, Note_on_c, 13, 52, 0
15, 276160, Note_on_c, 13, 52, 52
15, 276227, Note_on_c, 13, 52, 0
15, 276240, Note_on_c, 13, 52, 52
15, 276547, Note_on_c, 13, 52, 0
15, 276560, Note_on_c, 13, 48, 52
15, 276627, Note_on_c, 13, 48, 0
15, 276640, Note_on_c, 13, 48, 52
15, 276707, Note_on_c, 13, 48, 0
15, 276720, Note_on_c, 13, 48, 52
15, 276944, Note_on_c, 13, 48, 0
15, 276960, Note_on_c, 13, 53, 76
15, 277027, Note_on_c, 13, 53, 0
15, 277040, Note_on_c, 13, 41, 76
15, 277107, Note_on_c, 13, 41, 0
15, 277120, Note_on_c, 13, 41, 76
15, 277187, Note_on_c, 13, 41, 0
15, 277200, Note_on_c, 13, 41, 76
15, 277987, Note_on_c, 13, 41, 0
15, 278000, Note_on_c, 13, 41, 76
15, 278067, Note_on_c, 13, 41, 0
15, 278080, Note_on_c, 13, 41, 76
15, 278147, Note_on_c, 13, 41, 0
15, 278160, Note_on_c, 13, 41, 76
15, 278947, Note_on_c, 13, 41, 0
15, 278960, Note_on_c, 13, 41, 76
15, 279027, Note_on_c, 13, 41, 0
15, 279040, Note_on_c, 13, 41, 76
15, 279107, Note_on_c, 13, 41, 0
15, 279120, Note_on_c, 13, 41, 76
15, 279907, Note_on_c, 13, 41, 0
15, 279920, Note_on_c, 13, 41, 76
15, 279987, Note_on_c, 13, 41, 0
15, 280000, Note_on_c, 13, 41, 76
15, 280067, Note_on_c, 13, 41, 0
15, 280080, Note_on_c, 13, 41, 76
15, 280867, Note_on_c, 13, 41, 0
15, 280880, Note_on_c, 13, 41, 76
15, 280947, Note_on_c, 13, 41, 0
15, 280960, Note_on_c, 13, 41, 76
15, 281027, Note_on_c, 13, 41, 0
15, 281040, Note_on_c, 13, 41, 76
15, 281347, Note_on_c, 13, 41, 0
15, 281360, Note_on_c, 13, 50, 76
15, 281427, Note_on_c, 13, 50, 0
15, 281440, Note_on_c, 13, 50, 76
15, 281507, Note_on_c, 13, 50, 0
15, 281520, Note_on_c, 13, 50, 76
15, 281827, Note_on_c, 13, 50, 0
15, 281840, Note_on_c, 13, 48, 76
15, 281907, Note_on_c, 13, 48, 0
15, 281920, Note_on_c, 13, 48, 76
15, 281987, Note_on_c, 13, 48, 0
15, 282000, Note_on_c, 13, 48, 76
15, 282307, Note_on_c, 13, 48, 0
15, 282320, Note_on_c, 13, 48, 76
15, 282387, Note_on_c, 13, 48, 0
15, 282400, Note_on_c, 13, 48, 76
15, 282467, Note_on_c, 13, 48, 0
15, 282480, Note_on_c, 13, 48, 76
15, 282787, Note_on_c, 13, 48, 0
15, 282800, Note_on_c, 13, 41, 76
15, 282867, Note_on_c, 13, 41, 0
15, 282880, Note_on_c, 13, 41, 76
15, 282947, Note_on_c, 13, 41, 0
15, 282960, Note_on_c, 13, 41, 76
15, 283267, Note_on_c, 13, 41, 0
15, 283280, Note_on_c, 13, 50, 76
15, 283347, Note_on_c, 13, 50, 0
15, 283360, Note_on_c, 13, 50, 76
15, 283427, Note_on_c, 13, 50, 0
15, 283440, Note_on_c, 13, 50, 76
15, 283747, Note_on_c, 13, 50, 0
15, 283760, Note_on_c, 13, 48, 76
15, 283827, Note_on_c, 13, 48, 0
15, 283840, Note_on_c, 13, 48, 76
15, 283907, Note_on_c, 13, 48, 0
15, 283920, Note_on_c, 13, 48, 76
15, 284227, Note_on_c, 13, 48, 0
15, 284240, Note_on_c, 13, 48, 76
15, 284307, Note_on_c, 13, 48, 0
15, 284320, Note_on_c, 13, 48, 76
15, 284387, Note_on_c, 13, 48, 0
15, 284400, Note_on_c, 13, 48, 76
15, 284707, Note_on_c, 13, 48, 0
15, 284720, Note_on_c, 13, 41, 76
15, 284787, Note_on_c, 13, 41, 0
15, 284800, Note_on_c, 13, 41, 76
15, 284867, Note_on_c, 13, 41, 0
15, 284880, Note_on_c, 13, 41, 76
15, 285187, Note_on_c, 13, 41, 0
15, 285200, Note_on_c, 13, 50, 76
15, 285267, Note_on_c, 13, 50, 0
15, 285280, Note_on_c, 13, 50, 76
15, 285347, Note_on_c, 13, 50, 0
15, 285360, Note_on_c, 13, 50, 76
15, 285667, Note_on_c, 13, 50, 0
15, 285680, Note_on_c, 13, 48, 84
15, 285747, Note_on_c, 13, 48, 0
15, 285760, Note_on_c, 13, 48, 84
15, 285827, Note_on_c, 13, 48, 0
15, 285840, Note_on_c, 13, 48, 84
15, 286147, Note_on_c, 13, 48, 0
15, 286160, Note_on_c, 13, 48, 84
15, 286227, Note_on_c, 13, 48, 0
15, 286240, Note_on_c, 13, 48, 84
15, 286307, Note_on_c, 13, 48, 0
15, 286320, Note_on_c, 13, 48, 84
15, 286627, Note_on_c, 13, 48, 0
15, 286640, Note_on_c, 13, 48, 84
15, 286707, Note_on_c, 13, 48, 0
15, 286720, Note_on_c, 13, 48, 84
15, 286787, Note_on_c, 13, 48, 0
15, 286800, Note_on_c, 13, 48, 84
15, 287107, Note_on_c, 13, 48, 0
15, 287120, Note_on_c, 13, 48, 84
15, 287187, Note_on_c, 13, 48, 0
15, 287200, Note_on_c, 13, 48, 84
15, 287267, Note_on_c, 13, 48, 0
15, 287280, Note_on_c, 13, 48, 84
15, 287587, Note_on_c, 13, 48, 0
15, 287600, Note_on_c, 13, 48, 84
15, 287667, Note_on_c, 13, 48, 0
15, 287680, Note_on_c, 13, 48, 84
15, 287747, Note_on_c, 13, 48, 0
15, 287760, Note_on_c, 13, 48, 84
15, 288067, Note_on_c, 13, 48, 0
15, 288080, Note_on_c, 13, 48, 84
15, 288147, Note_on_c, 13, 48, 0
15, 288160, Note_on_c, 13, 48, 84
15, 288227, Note_on_c, 13, 48, 0
15, 288240, Note_on_c, 13, 48, 84
15, 288480, Control_c, 13, 11, 127
15, 288547, Note_on_c, 13, 48, 0
15, 288560, Control_c, 13, 11, 124
15, 288560, Note_on_c, 13, 48, 84
15, 288627, Note_on_c, 13, 48, 0
15, 288640, Control_c, 13, 11, 120
15, 288640, Note_on_c, 13, 48, 84
15, 288707, Note_on_c, 13, 48, 0
15, 288720, Control_c, 13, 11, 117
15, 288720, Note_on_c, 13, 48, 84
15, 288800, Control_c, 13, 11, 114
15, 288880, Control_c, 13, 11, 111
15, 288960, Control_c, 13, 11, 107
15, 289027, Note_on_c, 13, 48, 0
15, 289040, Control_c, 13, 11, 104
15, 289040, Note_on_c, 13, 48, 84
15, 289107, Note_on_c, 13, 48, 0
15, 289120, Note_on_c, 13, 48, 84
15, 289120, Control_c, 13, 11, 101
15, 289187, Note_on_c, 13, 48, 0
15, 289200, Control_c, 13, 11, 97
15, 289200, Note_on_c, 13, 48, 84
15, 289280, Control_c, 13, 11, 94
15, 289360, Control_c, 13, 11, 91
15, 289440, Control_c, 13, 11, 88
15, 289507, Note_on_c, 13, 48, 0
15, 289520, Note_on_c, 13, 48, 84
15, 289520, Control_c, 13, 11, 84
15, 289587, Note_on_c, 13, 48, 0
15, 289600, Note_on_c, 13, 48, 84
15, 289600, Control_c, 13, 11, 81
15, 289667, Note_on_c, 13, 48, 0
15, 289680, Note_on_c, 13, 48, 84
15, 289680, Control_c, 13, 11, 78
15, 289760, Control_c, 13, 11, 74
15, 289840, Control_c, 13, 11, 71
15, 289920, Control_c, 13, 11, 68
15, 289987, Note_on_c, 13, 48, 0
15, 290000, Note_on_c, 13, 48, 84
15, 290000, Control_c, 13, 11, 64
15, 290067, Note_on_c, 13, 48, 0
15, 290080, Control_c, 13, 11, 61
15, 290080, Note_on_c, 13, 48, 84
15, 290147, Note_on_c, 13, 48, 0
15, 290160, Control_c, 13, 11, 58
15, 290160, Note_on_c, 13, 48, 84
15, 290240, Control_c, 13, 11, 55
15, 290320, Control_c, 13, 11, 48
15, 290384, Note_on_c, 13, 48, 0
15, 290400, Note_on_c, 13, 48, 84
15, 290879, Note_on_c, 13, 48, 0
15, 290880, Note_on_c, 13, 50, 84
15, 291344, Note_on_c, 13, 50, 0
15, 291358, Control_c, 13, 11, 127
15, 291360, Note_on_c, 13, 52, 76
15, 291824, Note_on_c, 13, 52, 0
15, 291840, Note_on_c, 13, 53, 76
15, 291959, Note_on_c, 13, 53, 0
15, 292080, Note_on_c, 13, 48, 76
15, 292199, Note_on_c, 13, 48, 0
15, 292320, Note_on_c, 13, 48, 44
15, 292799, Note_on_c, 13, 48, 0
15, 292800, Note_on_c, 13, 50, 44
15, 293264, Note_on_c, 13, 50, 0
15, 293280, Note_on_c, 13, 52, 76
15, 293744, Note_on_c, 13, 52, 0
15, 293760, Note_on_c, 13, 53, 76
15, 293879, Note_on_c, 13, 53, 0
15, 294000, Note_on_c, 13, 48, 76
15, 294119, Note_on_c, 13, 48, 0
15, 294240, Note_on_c, 13, 41, 76
15, 294359, Note_on_c, 13, 41, 0
15, 295680, Note_on_c, 13, 48, 76
15, 296024, Note_on_c, 13, 48, 0
15, 296040, Note_on_c, 13, 48, 76
15, 296144, Note_on_c, 13, 48, 0
15, 296160, Note_on_c, 13, 41, 76
15, 296279, Note_on_c, 13, 41, 0
15, 297600, Note_on_c, 13, 48, 76
15, 297944, Note_on_c, 13, 48, 0
15, 297960, Note_on_c, 13, 48, 76
15, 298064, Note_on_c, 13, 48, 0
15, 298080, Note_on_c, 13, 41, 76
15, 298199, Note_on_c, 13, 41, 0
15, 298560, Note_on_c, 13, 48, 76
15, 298904, Note_on_c, 13, 48, 0
15, 298920, Note_on_c, 13, 48, 76
15, 299024, Note_on_c, 13, 48, 0
15, 299040, Note_on_c, 13, 41, 76
15, 299159, Note_on_c, 13, 41, 0
15, 299520, Note_on_c, 13, 48, 76
15, 299864, Note_on_c, 13, 48, 0
15, 299880, Note_on_c, 13, 48, 76
15, 299984, Note_on_c, 13, 48, 0
15, 300000, Note_on_c, 13, 41, 76
15, 300119, Note_on_c, 13, 41, 0
15, 300480, Note_on_c, 13, 41, 68
15, 300599, Note_on_c, 13, 41, 0
15, 300960, Note_on_c, 13, 41, 60
15, 301079, Note_on_c, 13, 41, 0
15, 301440, Note_on_c, 13, 41, 52
15, 301559, Note_on_c, 13, 41, 0
15, 301920, Note_on_c, 13, 41, 44
15, 302879, Note_on_c, 13, 41, 0
15, 302880, Note_on_c, 13, 41, 44
15, 303839, Note_on_c, 13, 41, 0
15, 303840, Note_on_c, 13, 41, 44
15, 304919, Note_on_c, 13, 41, 0
15, 308160, Note_on_c, 13, 46, 76
15, 308249, Note_on_c, 13, 46, 0
15, 308280, Note_on_c, 13, 48, 76
15, 308369, Note_on_c, 13, 48, 0
15, 308400, Note_on_c, 13, 50, 76
15, 308489, Note_on_c, 13, 50, 0
15, 308520, Note_on_c, 13, 52, 76
15, 308609, Note_on_c, 13, 52, 0
15, 308640, Note_on_c, 13, 53, 84
15, 308699, Note_on_c, 13, 53, 0
15, 308700, Note_on_c, 13, 53, 76
15, 309104, Note_on_c, 13, 53, 0
15, 309120, Note_on_c, 13, 48, 84
15, 309179, Note_on_c, 13, 48, 0
15, 309180, Note_on_c, 13, 48, 76
15, 309584, Note_on_c, 13, 48, 0
15, 309600, Note_on_c, 13, 41, 84
15, 309659, Note_on_c, 13, 41, 0
15, 309660, Note_on_c, 13, 41, 76
15, 310064, Note_on_c, 13, 41, 0
15, 310080, Note_on_c, 13, 41, 76
15, 310259, Note_on_c, 13, 41, 0
15, 310320, Note_on_c, 13, 41, 76
15, 310499, Note_on_c, 13, 41, 0
15, 310560, Note_on_c, 13, 41, 76
15, 311024, Note_on_c, 13, 41, 0
15, 311040, Note_on_c, 13, 41, 52
15, 311504, Note_on_c, 13, 41, 0
15, 311520, Note_on_c, 13, 41, 52
15, 311999, Note_on_c, 13, 41, 0
15, 311999, End_track
16, 0, Start_track
16, 0, Title_t, "Contrabass"
16, 0, MIDI_port, 0
16, 0, Program_c, 15, 48
16, 0, Control_c, 15, 7, 96
16, 0, Control_c, 15, 10, 100
16, 0, Control_c, 15, 11, 127
16, 5760, Note_on_c, 15, 29, 76
16, 5999, Note_on_c, 15, 29, 0
16, 6000, Note_on_c, 15, 33, 76
16, 6239, Note_on_c, 15, 33, 0
16, 6240, Note_on_c, 15, 31, 76
16, 6599, Note_on_c, 15, 31, 0
16, 6600, Note_on_c, 15, 29, 76
16, 6704, Note_on_c, 15, 29, 0
16, 6718, Control_c, 15, 11, 80
16, 6720, Note_on_c, 15, 34, 76
16, 6959, Note_on_c, 15, 34, 0
16, 6960, Note_on_c, 15, 29, 76
16, 7184, Note_on_c, 15, 29, 0
16, 7200, Control_c, 15, 11, 80
16, 7200, Note_on_c, 15, 36, 76
16, 7253, Control_c, 15, 11, 81
16, 7307, Control_c, 15, 11, 83
16, 7360, Control_c, 15, 11, 84
16, 7413, Control_c, 15, 11, 85
16, 7467, Control_c, 15, 11, 87
16, 7520, Control_c, 15, 11, 88
16, 7544, Note_on_c, 15, 36, 0
16, 7560, Note_on_c, 15, 36, 76
16, 7573, Control_c, 15, 11, 89
16, 7627, Control_c, 15, 11, 90
16, 7664, Note_on_c, 15, 36, 0
16, 7680, Note_on_c, 15, 36, 76
16, 7680, Control_c, 15, 11, 92
16, 7733, Control_c, 15, 11, 93
16, 7787, Control_c, 15, 11, 94
16, 7840, Control_c, 15, 11, 96
16, 7893, Control_c, 15, 11, 97
16, 7947, Control_c, 15, 11, 98
16, 8000, Control_c, 15, 11, 100
16, 8024, Note_on_c, 15, 36, 0
16, 8040, Note_on_c, 15, 36, 76
16, 8053, Control_c, 15, 11, 101
16, 8107, Control_c, 15, 11, 102
16, 8144, Note_on_c, 15, 36, 0
16, 8160, Control_c, 15, 11, 104
16, 8160, Note_on_c, 15, 36, 76
16, 8213, Control_c, 15, 11, 105
16, 8267, Control_c, 15, 11, 106
16, 8320, Control_c, 15, 11, 107
16, 8373, Control_c, 15, 11, 109
16, 8427, Control_c, 15, 11, 110
16, 8480, Control_c, 15, 11, 111
16, 8504, Note_on_c, 15, 36, 0
16, 8520, Note_on_c, 15, 36, 76
16, 8533, Control_c, 15, 11, 113
16, 8587, Control_c, 15, 11, 114
16, 8624, Note_on_c, 15, 36, 0
16, 8640, Control_c, 15, 11, 115
16, 8640, Note_on_c, 15, 36, 76
16, 8693, Control_c, 15, 11, 117
16, 8747, Control_c, 15, 11, 118
16, 8800, Control_c, 15, 11, 119
16, 8853, Control_c, 15, 11, 120
16, 8907, Control_c, 15, 11, 122
16, 8960, Control_c, 15, 11, 123
16, 8984, Note_on_c, 15, 36, 0
16, 9000, Note_on_c, 15, 36, 76
16, 9013, Control_c, 15, 11, 124
16, 9067, Control_c, 15, 11, 127
16, 9104, Note_on_c, 15, 36, 0
16, 9120, Note_on_c, 15, 36, 76
16, 9464, Note_on_c, 15, 36, 0
16, 9480, Note_on_c, 15, 36, 76
16, 9584, Note_on_c, 15, 36, 0
16, 9600, Note_on_c, 15, 36, 76
16, 9600, Control_c, 15, 11, 127
16, 9653, Control_c, 15, 11, 125
16, 9707, Control_c, 15, 11, 124
16, 9760, Control_c, 15, 11, 122
16, 9813, Control_c, 15, 11, 120
16, 9867, Control_c, 15, 11, 118
16, 9920, Control_c, 15, 11, 117
16, 9944, Note_on_c, 15, 36, 0
16, 9960, Note_on_c, 15, 36, 76
16, 9973, Control_c, 15, 11, 115
16, 10027, Control_c, 15, 11, 113
16, 10064, Note_on_c, 15, 36, 0
16, 10080, Note_on_c, 15, 36, 76
16, 10080, Control_c, 15, 11, 111
16, 10133, Control_c, 15, 11, 110
16, 10187, Control_c, 15, 11, 108
16, 10240, Control_c, 15, 11, 106
16, 10293, Control_c, 15, 11, 104
16, 10347, Control_c, 15, 11, 103
16, 10400, Control_c, 15, 11, 101
16, 10424, Note_on_c, 15, 36, 0
16, 10440, Note_on_c, 15, 36, 76
16, 10453, Control_c, 15, 11, 99
16, 10507, Control_c, 15, 11, 97
16, 10544, Note_on_c, 15, 36, 0
16, 10560, Control_c, 15, 11, 96
16, 10560, Note_on_c, 15, 36, 76
16, 10613, Control_c, 15, 11, 94
16, 10667, Control_c, 15, 11, 92
16, 10720, Control_c, 15, 11, 90
16, 10773, Control_c, 15, 11, 89
16, 10827, Control_c, 15, 11, 87
16, 10880, Control_c, 15, 11, 85
16, 10904, Note_on_c, 15, 36, 0
16, 10920, Note_on_c, 15, 36, 76
16, 10933, Control_c, 15, 11, 83
16, 10987, Control_c, 15, 11, 82
16, 11024, Note_on_c, 15, 36, 0
16, 11040, Control_c, 15, 11, 80
16, 11040, Note_on_c, 15, 36, 76
16, 11093, Control_c, 15, 11, 78
16, 11147, Control_c, 15, 11, 76
16, 11200, Control_c, 15, 11, 75
16, 11253, Control_c, 15, 11, 73
16, 11307, Control_c, 15, 11, 71
16, 11360, Control_c, 15, 11, 69
16, 11384, Note_on_c, 15, 36, 0
16, 11400, Note_on_c, 15, 36, 76
16, 11413, Control_c, 15, 11, 68
16, 11467, Control_c, 15, 11, 64
16, 11504, Note_on_c, 15, 36, 0
16, 11520, Note_on_c, 15, 36, 76
16, 11639, Note_on_c, 15, 36, 0
16, 13200, Control_c, 15, 11, 127
16, 17280, Note_on_c, 15, 29, 76
16, 17384, Note_on_c, 15, 29, 0
16, 17400, Note_on_c, 15, 29, 76
16, 17504, Note_on_c, 15, 29, 0
16, 17520, Note_on_c, 15, 29, 76
16, 17624, Note_on_c, 15, 29, 0
16, 17640, Note_on_c, 15, 29, 76
16, 17744, Note_on_c, 15, 29, 0
16, 17760, Note_on_c, 15, 29, 76
16, 17864, Note_on_c, 15, 29, 0
16, 17880, Note_on_c, 15, 29, 76
16, 17984, Note_on_c, 15, 29, 0
16, 18000, Note_on_c, 15, 29, 76
16, 18104, Note_on_c, 15, 29, 0
16, 18120, Note_on_c, 15, 29, 76
16, 18224, Note_on_c, 15, 29, 0
16, 18240, Note_on_c, 15, 29, 76
16, 18344, Note_on_c, 15, 29, 0
16, 18360, Note_on_c, 15, 29, 76
16, 18464, Note_on_c, 15, 29, 0
16, 18480, Note_on_c, 15, 29, 76
16, 18584, Note_on_c, 15, 29, 0
16, 18600, Note_on_c, 15, 29, 76
16, 18704, Note_on_c, 15, 29, 0
16, 18720, Note_on_c, 15, 29, 76
16, 18824, Note_on_c, 15, 29, 0
16, 18840, Note_on_c, 15, 29, 76
16, 18944, Note_on_c, 15, 29, 0
16, 18960, Note_on_c, 15, 29, 76
16, 19064, Note_on_c, 15, 29, 0
16, 19080, Note_on_c, 15, 29, 76
16, 19184, Note_on_c, 15, 29, 0
16, 19200, Note_on_c, 15, 29, 76
16, 19304, Note_on_c, 15, 29, 0
16, 19320, Note_on_c, 15, 29, 76
16, 19424, Note_on_c, 15, 29, 0
16, 19440, Note_on_c, 15, 29, 76
16, 19544, Note_on_c, 15, 29, 0
16, 19560, Note_on_c, 15, 29, 76
16, 19664, Note_on_c, 15, 29, 0
16, 19680, Note_on_c, 15, 29, 76
16, 19784, Note_on_c, 15, 29, 0
16, 19800, Note_on_c, 15, 29, 76
16, 19904, Note_on_c, 15, 29, 0
16, 19920, Note_on_c, 15, 29, 76
16, 20024, Note_on_c, 15, 29, 0
16, 20040, Note_on_c, 15, 29, 76
16, 20144, Note_on_c, 15, 29, 0
16, 20160, Note_on_c, 15, 36, 76
16, 20264, Note_on_c, 15, 36, 0
16, 20280, Note_on_c, 15, 36, 76
16, 20384, Note_on_c, 15, 36, 0
16, 20400, Note_on_c, 15, 36, 76
16, 20504, Note_on_c, 15, 36, 0
16, 20520, Note_on_c, 15, 36, 76
16, 20624, Note_on_c, 15, 36, 0
16, 20640, Note_on_c, 15, 36, 76
16, 20744, Note_on_c, 15, 36, 0
16, 20760, Note_on_c, 15, 36, 76
16, 20864, Note_on_c, 15, 36, 0
16, 20880, Note_on_c, 15, 36, 76
16, 20984, Note_on_c, 15, 36, 0
16, 21000, Note_on_c, 15, 36, 76
16, 21104, Note_on_c, 15, 36, 0
16, 21120, Note_on_c, 15, 36, 76
16, 21224, Note_on_c, 15, 36, 0
16, 21240, Note_on_c, 15, 36, 76
16, 21344, Note_on_c, 15, 36, 0
16, 21360, Note_on_c, 15, 36, 76
16, 21464, Note_on_c, 15, 36, 0
16, 21480, Note_on_c, 15, 36, 76
16, 21584, Note_on_c, 15, 36, 0
16, 21600, Note_on_c, 15, 36, 76
16, 22064, Note_on_c, 15, 36, 0
16, 22080, Note_on_c, 15, 29, 76
16, 22664, Note_on_c, 15, 29, 0
16, 22680, Note_on_c, 15, 29, 76
16, 22784, Note_on_c, 15, 29, 0
16, 22800, Note_on_c, 15, 29, 76
16, 22904, Note_on_c, 15, 29, 0
16, 22920, Note_on_c, 15, 29, 76
16, 23024, Note_on_c, 15, 29, 0
16, 23040, Note_on_c, 15, 29, 76
16, 23624, Note_on_c, 15, 29, 0
16, 23640, Note_on_c, 15, 29, 76
16, 23744, Note_on_c, 15, 29, 0
16, 23760, Note_on_c, 15, 29, 76
16, 23864, Note_on_c, 15, 29, 0
16, 23880, Note_on_c, 15, 29, 76
16, 23984, Note_on_c, 15, 29, 0
16, 24000, Note_on_c, 15, 29, 76
16, 24344, Note_on_c, 15, 29, 0
16, 24360, Note_on_c, 15, 29, 76
16, 24464, Note_on_c, 15, 29, 0
16, 24480, Note_on_c, 15, 29, 76
16, 24824, Note_on_c, 15, 29, 0
16, 24840, Note_on_c, 15, 29, 76
16, 24944, Note_on_c, 15, 29, 0
16, 24960, Note_on_c, 15, 29, 76
16, 25079, Note_on_c, 15, 29, 0
16, 26640, Program_c, 15, 45
16, 26880, Note_on_c, 15, 38, 48
16, 26999, Note_on_c, 15, 38, 0
16, 28800, Note_on_c, 15, 36, 48
16, 29039, Note_on_c, 15, 36, 0
16, 29760, Note_on_c, 15, 35, 48
16, 29999, Note_on_c, 15, 35, 0
16, 37358, Program_c, 15, 48
16, 37358, Control_c, 15, 11, 90
16, 37440, Note_on_c, 15, 45, 76
16, 37542, Control_c, 15, 11, 91
16, 37559, Note_on_c, 15, 45, 0
16, 37560, Note_on_c, 15, 43, 76
16, 37679, Note_on_c, 15, 43, 0
16, 37680, Note_on_c, 15, 41, 76
16, 37726, Control_c, 15, 11, 92
16, 37799, Note_on_c, 15, 41, 0
16, 37800, Note_on_c, 15, 38, 76
16, 37910, Control_c, 15, 11, 93
16, 37919, Note_on_c, 15, 38, 0
16, 37920, Note_on_c, 15, 31, 76
16, 38039, Note_on_c, 15, 31, 0
16, 38040, Note_on_c, 15, 41, 76
16, 38094, Control_c, 15, 11, 94
16, 38159, Note_on_c, 15, 41, 0
16, 38160, Note_on_c, 15, 38, 76
16, 38277, Control_c, 15, 11, 95
16, 38279, Note_on_c, 15, 38, 0
16, 38280, Note_on_c, 15, 31, 76
16, 38384, Note_on_c, 15, 31, 0
16, 38400, Note_on_c, 15, 45, 76
16, 38461, Control_c, 15, 11, 96
16, 38519, Note_on_c, 15, 45, 0
16, 38520, Note_on_c, 15, 43, 76
16, 38639, Note_on_c, 15, 43, 0
16, 38640, Note_on_c, 15, 40, 76
16, 38645, Control_c, 15, 11, 97
16, 38759, Note_on_c, 15, 40, 0
16, 38760, Note_on_c, 15, 36, 76
16, 38829, Control_c, 15, 11, 98
16, 38879, Note_on_c, 15, 36, 0
16, 38880, Note_on_c, 15, 31, 76
16, 38999, Note_on_c, 15, 31, 0
16, 39000, Note_on_c, 15, 40, 76
16, 39013, Control_c, 15, 11, 99
16, 39119, Note_on_c, 15, 40, 0
16, 39120, Note_on_c, 15, 36, 76
16, 39197, Control_c, 15, 11, 100
16, 39239, Note_on_c, 15, 36, 0
16, 39240, Note_on_c, 15, 31, 76
16, 39344, Note_on_c, 15, 31, 0
16, 39360, Note_on_c, 15, 31, 76
16, 39380, Control_c, 15, 11, 101
16, 39564, Control_c, 15, 11, 102
16, 39748, Control_c, 15, 11, 103
16, 39932, Control_c, 15, 11, 104
16, 40116, Control_c, 15, 11, 105
16, 40300, Control_c, 15, 11, 106
16, 40304, Note_on_c, 15, 31, 0
16, 40320, Note_on_c, 15, 36, 76
16, 40483, Control_c, 15, 11, 107
16, 40667, Control_c, 15, 11, 108
16, 40851, Control_c, 15, 11, 109
16, 41035, Control_c, 15, 11, 110
16, 41219, Control_c, 15, 11, 111
16, 41264, Note_on_c, 15, 36, 0
16, 41280, Note_on_c, 15, 35, 76
16, 41403, Control_c, 15, 11, 112
16, 41504, Note_on_c, 15, 35, 0
16, 41520, Note_on_c, 15, 35, 76
16, 41586, Control_c, 15, 11, 113
16, 41744, Note_on_c, 15, 35, 0
16, 41760, Note_on_c, 15, 35, 76
16, 41770, Control_c, 15, 11, 114
16, 41954, Control_c, 15, 11, 115
16, 41999, Note_on_c, 15, 35, 0
16, 42000, Note_on_c, 15, 38, 76
16, 42119, Note_on_c, 15, 38, 0
16, 42120, Note_on_c, 15, 35, 76
16, 42138, Control_c, 15, 11, 116
16, 42224, Note_on_c, 15, 35, 0
16, 42240, Note_on_c, 15, 36, 76
16, 42322, Control_c, 15, 11, 117
16, 42464, Note_on_c, 15, 36, 0
16, 42480, Note_on_c, 15, 36, 76
16, 42506, Control_c, 15, 11, 118
16, 42689, Control_c, 15, 11, 119
16, 42704, Note_on_c, 15, 36, 0
16, 42720, Note_on_c, 15, 36, 76
16, 42873, Control_c, 15, 11, 120
16, 42959, Note_on_c, 15, 36, 0
16, 42960, Note_on_c, 15, 40, 76
16, 43057, Control_c, 15, 11, 121
16, 43079, Note_on_c, 15, 40, 0
16, 43080, Note_on_c, 15, 36, 76
16, 43184, Note_on_c, 15, 36, 0
16, 43200, Note_on_c, 15, 38, 76
16, 43241, Control_c, 15, 11, 122
16, 43424, Note_on_c, 15, 38, 0
16, 43425, Control_c, 15, 11, 123
16, 43440, Note_on_c, 15, 38, 76
16, 43609, Control_c, 15, 11, 124
16, 43664, Note_on_c, 15, 38, 0
16, 43680, Note_on_c, 15, 38, 76
16, 43792, Control_c, 15, 11, 125
16, 43919, Note_on_c, 15, 38, 0
16, 43920, Note_on_c, 15, 41, 76
16, 43976, Control_c, 15, 11, 127
16, 44039, Note_on_c, 15, 41, 0
16, 44040, Note_on_c, 15, 38, 76
16, 44144, Note_on_c, 15, 38, 0
16, 44160, Note_on_c, 15, 36, 76
16, 45119, Note_on_c, 15, 36, 0
16, 45120, Note_on_c, 15, 36, 76
16, 45584, Note_on_c, 15, 36, 0
16, 45600, Note_on_c, 15, 29, 76
16, 45719, Note_on_c, 15, 29, 0
16, 46080, Note_on_c, 15, 29, 52
16, 46559, Note_on_c, 15, 29, 0
16, 46560, Note_on_c, 15, 36, 52
16, 47039, Note_on_c, 15, 36, 0
16, 47040, Note_on_c, 15, 31, 52
16, 47504, Note_on_c, 15, 31, 0
16, 47520, Note_on_c, 15, 36, 84
16, 48479, Note_on_c, 15, 36, 0
16, 48480, Note_on_c, 15, 36, 84
16, 48944, Note_on_c, 15, 36, 0
16, 48960, Note_on_c, 15, 29, 76
16, 49079, Note_on_c, 15, 29, 0
16, 49200, Control_c, 15, 11, 80
16, 49440, Note_on_c, 15, 29, 76
16, 49919, Note_on_c, 15, 29, 0
16, 49920, Note_on_c, 15, 36, 76
16, 50399, Note_on_c, 15, 36, 0
16, 50400, Note_on_c, 15, 31, 76
16, 50864, Note_on_c, 15, 31, 0
16, 50880, Note_on_c, 15, 36, 76
16, 50880, Control_c, 15, 11, 80
16, 50933, Control_c, 15, 11, 81
16, 50987, Control_c, 15, 11, 83
16, 51040, Control_c, 15, 11, 84
16, 51093, Control_c, 15, 11, 85
16, 51104, Note_on_c, 15, 36, 0
16, 51120, Note_on_c, 15, 36, 76
16, 51147, Control_c, 15, 11, 87
16, 51200, Control_c, 15, 11, 88
16, 51253, Control_c, 15, 11, 89
16, 51307, Control_c, 15, 11, 90
16, 51359, Note_on_c, 15, 36, 0
16, 51360, Note_on_c, 15, 29, 76
16, 51360, Control_c, 15, 11, 92
16, 51413, Control_c, 15, 11, 93
16, 51467, Control_c, 15, 11, 94
16, 51520, Control_c, 15, 11, 96
16, 51573, Control_c, 15, 11, 97
16, 51584, Note_on_c, 15, 29, 0
16, 51600, Note_on_c, 15, 29, 76
16, 51627, Control_c, 15, 11, 98
16, 51680, Control_c, 15, 11, 100
16, 51733, Control_c, 15, 11, 101
16, 51787, Control_c, 15, 11, 102
16, 51839, Note_on_c, 15, 29, 0
16, 51840, Note_on_c, 15, 36, 76
16, 51840, Control_c, 15, 11, 104
16, 51893, Control_c, 15, 11, 105
16, 51947, Control_c, 15, 11, 106
16, 52000, Control_c, 15, 11, 107
16, 52053, Control_c, 15, 11, 109
16, 52064, Note_on_c, 15, 36, 0
16, 52080, Note_on_c, 15, 36, 76
16, 52107, Control_c, 15, 11, 110
16, 52160, Control_c, 15, 11, 111
16, 52213, Control_c, 15, 11, 113
16, 52267, Control_c, 15, 11, 114
16, 52319, Note_on_c, 15, 36, 0
16, 52320, Note_on_c, 15, 31, 76
16, 52320, Control_c, 15, 11, 115
16, 52373, Control_c, 15, 11, 117
16, 52427, Control_c, 15, 11, 118
16, 52480, Control_c, 15, 11, 119
16, 52533, Control_c, 15, 11, 120
16, 52544, Note_on_c, 15, 31, 0
16, 52560, Note_on_c, 15, 31, 76
16, 52587, Control_c, 15, 11, 122
16, 52640, Control_c, 15, 11, 123
16, 52693, Control_c, 15, 11, 124
16, 52747, Control_c, 15, 11, 127
16, 52784, Note_on_c, 15, 31, 0
16, 52800, Note_on_c, 15, 36, 76
16, 52867, Note_on_c, 15, 36, 0
16, 52880, Note_on_c, 15, 36, 76
16, 52947, Note_on_c, 15, 36, 0
16, 52960, Note_on_c, 15, 36, 76
16, 53027, Note_on_c, 15, 36, 0
16, 53040, Note_on_c, 15, 36, 76
16, 53107, Note_on_c, 15, 36, 0
16, 53120, Note_on_c, 15, 38, 76
16, 53187, Note_on_c, 15, 38, 0
16, 53200, Note_on_c, 15, 40, 76
16, 53267, Note_on_c, 15, 40, 0
16, 53280, Note_on_c, 15, 41, 76
16, 53347, Note_on_c, 15, 41, 0
16, 53360, Note_on_c, 15, 41, 76
16, 53427, Note_on_c, 15, 41, 0
16, 53440, Note_on_c, 15, 41, 76
16, 53507, Note_on_c, 15, 41, 0
16, 53520, Note_on_c, 15, 45, 76
16, 53587, Note_on_c, 15, 45, 0
16, 53600, Note_on_c, 15, 45, 76
16, 53667, Note_on_c, 15, 45, 0
16, 53680, Note_on_c, 15, 45, 76
16, 53747, Note_on_c, 15, 45, 0
16, 53760, Note_on_c, 15, 48, 76
16, 53827, Note_on_c, 15, 48, 0
16, 53840, Note_on_c, 15, 48, 76
16, 53907, Note_on_c, 15, 48, 0
16, 53920, Note_on_c, 15, 48, 76
16, 53987, Note_on_c, 15, 48, 0
16, 54000, Note_on_c, 15, 52, 76
16, 54067, Note_on_c, 15, 52, 0
16, 54080, Note_on_c, 15, 52, 76
16, 54147, Note_on_c, 15, 52, 0
16, 54160, Note_on_c, 15, 52, 76
16, 54227, Note_on_c, 15, 52, 0
16, 54240, Note_on_c, 15, 55, 76
16, 54307, Note_on_c, 15, 55, 0
16, 54320, Note_on_c, 15, 31, 76
16, 54387, Note_on_c, 15, 31, 0
16, 54400, Note_on_c, 15, 31, 76
16, 54467, Note_on_c, 15, 31, 0
16, 54480, Note_on_c, 15, 31, 76
16, 54547, Note_on_c, 15, 31, 0
16, 54560, Note_on_c, 15, 31, 76
16, 54627, Note_on_c, 15, 31, 0
16, 54640, Note_on_c, 15, 31, 76
16, 54707, Note_on_c, 15, 31, 0
16, 54720, Note_on_c, 15, 36, 76
16, 54787, Note_on_c, 15, 36, 0
16, 54800, Note_on_c, 15, 36, 76
16, 54867, Note_on_c, 15, 36, 0
16, 54880, Note_on_c, 15, 36, 76
16, 54947, Note_on_c, 15, 36, 0
16, 54960, Note_on_c, 15, 36, 76
16, 55747, Note_on_c, 15, 36, 0
16, 55760, Note_on_c, 15, 36, 76
16, 55827, Note_on_c, 15, 36, 0
16, 55840, Note_on_c, 15, 36, 76
16, 55907, Note_on_c, 15, 36, 0
16, 55920, Note_on_c, 15, 36, 76
16, 56707, Note_on_c, 15, 36, 0
16, 56720, Note_on_c, 15, 36, 76
16, 56787, Note_on_c, 15, 36, 0
16, 56800, Note_on_c, 15, 36, 76
16, 56867, Note_on_c, 15, 36, 0
16, 56880, Note_on_c, 15, 36, 76
16, 57667, Note_on_c, 15, 36, 0
16, 57680, Note_on_c, 15, 36, 76
16, 57747, Note_on_c, 15, 36, 0
16, 57760, Note_on_c, 15, 36, 76
16, 57827, Note_on_c, 15, 36, 0
16, 57840, Note_on_c, 15, 36, 76
16, 58560, Control_c, 15, 11, 127
16, 58613, Control_c, 15, 11, 126
16, 58627, Note_on_c, 15, 36, 0
16, 58640, Note_on_c, 15, 36, 76
16, 58667, Control_c, 15, 11, 124
16, 58707, Note_on_c, 15, 36, 0
16, 58720, Note_on_c, 15, 36, 76
16, 58720, Control_c, 15, 11, 123
16, 58773, Control_c, 15, 11, 122
16, 58787, Note_on_c, 15, 36, 0
16, 58800, Note_on_c, 15, 36, 76
16, 58827, Control_c, 15, 11, 120
16, 58880, Control_c, 15, 11, 119
16, 58933, Control_c, 15, 11, 118
16, 58987, Control_c, 15, 11, 117
16, 59040, Control_c, 15, 11, 115
16, 59093, Control_c, 15, 11, 114
16, 59107, Note_on_c, 15, 36, 0
16, 59120, Note_on_c, 15, 36, 76
16, 59147, Control_c, 15, 11, 113
16, 59187, Note_on_c, 15, 36, 0
16, 59200, Note_on_c, 15, 36, 76
16, 59200, Control_c, 15, 11, 111
16, 59253, Control_c, 15, 11, 110
16, 59267, Note_on_c, 15, 36, 0
16, 59280, Note_on_c, 15, 36, 76
16, 59307, Control_c, 15, 11, 109
16, 59360, Control_c, 15, 11, 107
16, 59413, Control_c, 15, 11, 106
16, 59467, Control_c, 15, 11, 105
16, 59520, Control_c, 15, 11, 104
16, 59573, Control_c, 15, 11, 102
16, 59587, Note_on_c, 15, 36, 0
16, 59600, Note_on_c, 15, 36, 76
16, 59627, Control_c, 15, 11, 101
16, 59667, Note_on_c, 15, 36, 0
16, 59680, Note_on_c, 15, 36, 76
16, 59680, Control_c, 15, 11, 100
16, 59733, Control_c, 15, 11, 98
16, 59747, Note_on_c, 15, 36, 0
16, 59760, Note_on_c, 15, 36, 76
16, 59787, Control_c, 15, 11, 97
16, 59840, Control_c, 15, 11, 96
16, 59893, Control_c, 15, 11, 94
16, 59947, Control_c, 15, 11, 93
16, 60000, Control_c, 15, 11, 92
16, 60053, Control_c, 15, 11, 90
16, 60067, Note_on_c, 15, 36, 0
16, 60080, Note_on_c, 15, 36, 76
16, 60107, Control_c, 15, 11, 89
16, 60147, Note_on_c, 15, 36, 0
16, 60160, Control_c, 15, 11, 88
16, 60160, Note_on_c, 15, 36, 76
16, 60213, Control_c, 15, 11, 87
16, 60227, Note_on_c, 15, 36, 0
16, 60240, Note_on_c, 15, 36, 76
16, 60267, Control_c, 15, 11, 85
16, 60320, Control_c, 15, 11, 84
16, 60373, Control_c, 15, 11, 83
16, 60427, Control_c, 15, 11, 80
16, 60599, Note_on_c, 15, 36, 0
16, 60960, Control_c, 15, 11, 127
16, 72000, Note_on_c, 15, 29, 76
16, 72239, Note_on_c, 15, 29, 0
16, 72240, Note_on_c, 15, 33, 76
16, 72479, Note_on_c, 15, 33, 0
16, 72480, Note_on_c, 15, 31, 76
16, 72839, Note_on_c, 15, 31, 0
16, 72840, Note_on_c, 15, 29, 76
16, 72944, Note_on_c, 15, 29, 0
16, 72958, Control_c, 15, 11, 80
16, 72960, Note_on_c, 15, 34, 76
16, 73199, Note_on_c, 15, 34, 0
16, 73200, Note_on_c, 15, 29, 76
16, 73424, Note_on_c, 15, 29, 0
16, 73440, Control_c, 15, 11, 80
16, 73440, Note_on_c, 15, 36, 76
16, 73493, Control_c, 15, 11, 81
16, 73547, Control_c, 15, 11, 83
16, 73600, Control_c, 15, 11, 84
16, 73653, Control_c, 15, 11, 85
16, 73707, Control_c, 15, 11, 87
16, 73760, Control_c, 15, 11, 88
16, 73784, Note_on_c, 15, 36, 0
16, 73800, Note_on_c, 15, 36, 76
16, 73813, Control_c, 15, 11, 89
16, 73867, Control_c, 15, 11, 90
16, 73904, Note_on_c, 15, 36, 0
16, 73920, Note_on_c, 15, 36, 76
16, 73920, Control_c, 15, 11, 92
16, 73973, Control_c, 15, 11, 93
16, 74027, Control_c, 15, 11, 94
16, 74080, Control_c, 15, 11, 96
16, 74133, Control_c, 15, 11, 97
16, 74187, Control_c, 15, 11, 98
16, 74240, Control_c, 15, 11, 100
16, 74264, Note_on_c, 15, 36, 0
16, 74280, Note_on_c, 15, 36, 76
16, 74293, Control_c, 15, 11, 101
16, 74347, Control_c, 15, 11, 102
16, 74384, Note_on_c, 15, 36, 0
16, 74400, Note_on_c, 15, 36, 76
16, 74400, Control_c, 15, 11, 104
16, 74453, Control_c, 15, 11, 105
16, 74507, Control_c, 15, 11, 106
16, 74560, Control_c, 15, 11, 107
16, 74613, Control_c, 15, 11, 109
16, 74667, Control_c, 15, 11, 110
16, 74720, Control_c, 15, 11, 111
16, 74744, Note_on_c, 15, 36, 0
16, 74760, Note_on_c, 15, 36, 76
16, 74773, Control_c, 15, 11, 113
16, 74827, Control_c, 15, 11, 114
16, 74864, Note_on_c, 15, 36, 0
16, 74880, Note_on_c, 15, 36, 76
16, 74880, Control_c, 15, 11, 115
16, 74933, Control_c, 15, 11, 117
16, 74987, Control_c, 15, 11, 118
16, 75040, Control_c, 15, 11, 119
16, 75093, Control_c, 15, 11, 120
16, 75147, Control_c, 15, 11, 122
16, 75200, Control_c, 15, 11, 123
16, 75224, Note_on_c, 15, 36, 0
16, 75240, Note_on_c, 15, 36, 76
16, 75253, Control_c, 15, 11, 124
16, 75307, Control_c, 15, 11, 127
16, 75344, Note_on_c, 15, 36, 0
16, 75360, Note_on_c, 15, 36, 76
16, 75704, Note_on_c, 15, 36, 0
16, 75720, Note_on_c, 15, 36, 76
16, 75824, Note_on_c, 15, 36, 0
16, 75840, Control_c, 15, 11, 127
16, 75840, Note_on_c, 15, 36, 76
16, 75893, Control_c, 15, 11, 125
16, 75947, Control_c, 15, 11, 124
16, 76000, Control_c, 15, 11, 122
16, 76053, Control_c, 15, 11, 120
16, 76107, Control_c, 15, 11, 118
16, 76160, Control_c, 15, 11, 117
16, 76184, Note_on_c, 15, 36, 0
16, 76200, Note_on_c, 15, 36, 76
16, 76213, Control_c, 15, 11, 115
16, 76267, Control_c, 15, 11, 113
16, 76304, Note_on_c, 15, 36, 0
16, 76320, Note_on_c, 15, 36, 76
16, 76320, Control_c, 15, 11, 111
16, 76373, Control_c, 15, 11, 110
16, 76427, Control_c, 15, 11, 108
16, 76480, Control_c, 15, 11, 106
16, 76533, Control_c, 15, 11, 104
16, 76587, Control_c, 15, 11, 103
16, 76640, Control_c, 15, 11, 101
16, 76664, Note_on_c, 15, 36, 0
16, 76680, Note_on_c, 15, 36, 76
16, 76693, Control_c, 15, 11, 99
16, 76747, Control_c, 15, 11, 97
16, 76784, Note_on_c, 15, 36, 0
16, 76800, Note_on_c, 15, 36, 76
16, 76800, Control_c, 15, 11, 96
16, 76853, Control_c, 15, 11, 94
16, 76907, Control_c, 15, 11, 92
16, 76960, Control_c, 15, 11, 90
16, 77013, Control_c, 15, 11, 89
16, 77067, Control_c, 15, 11, 87
16, 77120, Control_c, 15, 11, 85
16, 77144, Note_on_c, 15, 36, 0
16, 77160, Note_on_c, 15, 36, 76
16, 77173, Control_c, 15, 11, 83
16, 77227, Control_c, 15, 11, 82
16, 77264, Note_on_c, 15, 36, 0
16, 77280, Note_on_c, 15, 36, 76
16, 77280, Control_c, 15, 11, 80
16, 77333, Control_c, 15, 11, 78
16, 77387, Control_c, 15, 11, 76
16, 77440, Control_c, 15, 11, 75
16, 77493, Control_c, 15, 11, 73
16, 77547, Control_c, 15, 11, 71
16, 77600, Control_c, 15, 11, 69
16, 77624, Note_on_c, 15, 36, 0
16, 77640, Note_on_c, 15, 36, 76
16, 77653, Control_c, 15, 11, 68
16, 77707, Control_c, 15, 11, 64
16, 77744, Note_on_c, 15, 36, 0
16, 77760, Note_on_c, 15, 36, 76
16, 77879, Note_on_c, 15, 36, 0
16, 79440, Control_c, 15, 11, 127
16, 83520, Note_on_c, 15, 29, 76
16, 83624, Note_on_c, 15, 29, 0
16, 83640, Note_on_c, 15, 29, 76
16, 83744, Note_on_c, 15, 29, 0
16, 83760, Note_on_c, 15, 29, 76
16, 83864, Note_on_c, 15, 29, 0
16, 83880, Note_on_c, 15, 29, 76
16, 83984, Note_on_c, 15, 29, 0
16, 84000, Note_on_c, 15, 29, 76
16, 84104, Note_on_c, 15, 29, 0
16, 84120, Note_on_c, 15, 29, 76
16, 84224, Note_on_c, 15, 29, 0
16, 84240, Note_on_c, 15, 29, 76
16, 84344, Note_on_c, 15, 29, 0
16, 84360, Note_on_c, 15, 29, 76
16, 84464, Note_on_c, 15, 29, 0
16, 84480, Note_on_c, 15, 29, 76
16, 84584, Note_on_c, 15, 29, 0
16, 84600, Note_on_c, 15, 29, 76
16, 84704, Note_on_c, 15, 29, 0
16, 84720, Note_on_c, 15, 29, 76
16, 84824, Note_on_c, 15, 29, 0
16, 84840, Note_on_c, 15, 29, 76
16, 84944, Note_on_c, 15, 29, 0
16, 84960, Note_on_c, 15, 29, 76
16, 85064, Note_on_c, 15, 29, 0
16, 85080, Note_on_c, 15, 29, 76
16, 85184, Note_on_c, 15, 29, 0
16, 85200, Note_on_c, 15, 29, 76
16, 85304, Note_on_c, 15, 29, 0
16, 85320, Note_on_c, 15, 29, 76
16, 85424, Note_on_c, 15, 29, 0
16, 85440, Note_on_c, 15, 29, 76
16, 85544, Note_on_c, 15, 29, 0
16, 85560, Note_on_c, 15, 29, 76
16, 85664, Note_on_c, 15, 29, 0
16, 85680, Note_on_c, 15, 29, 76
16, 85784, Note_on_c, 15, 29, 0
16, 85800, Note_on_c, 15, 29, 76
16, 85904, Note_on_c, 15, 29, 0
16, 85920, Note_on_c, 15, 29, 76
16, 86024, Note_on_c, 15, 29, 0
16, 86040, Note_on_c, 15, 29, 76
16, 86144, Note_on_c, 15, 29, 0
16, 86160, Note_on_c, 15, 29, 76
16, 86264, Note_on_c, 15, 29, 0
16, 86280, Note_on_c, 15, 29, 76
16, 86384, Note_on_c, 15, 29, 0
16, 86400, Note_on_c, 15, 36, 76
16, 86504, Note_on_c, 15, 36, 0
16, 86520, Note_on_c, 15, 36, 76
16, 86624, Note_on_c, 15, 36, 0
16, 86640, Note_on_c, 15, 36, 76
16, 86744, Note_on_c, 15, 36, 0
16, 86760, Note_on_c, 15, 36, 76
16, 86864, Note_on_c, 15, 36, 0
16, 86880, Note_on_c, 15, 36, 76
16, 86984, Note_on_c, 15, 36, 0
16, 87000, Note_on_c, 15, 36, 76
16, 87104, Note_on_c, 15, 36, 0
16, 87120, Note_on_c, 15, 36, 76
16, 87224, Note_on_c, 15, 36, 0
16, 87240, Note_on_c, 15, 36, 76
16, 87344, Note_on_c, 15, 36, 0
16, 87360, Note_on_c, 15, 36, 76
16, 87464, Note_on_c, 15, 36, 0
16, 87480, Note_on_c, 15, 36, 76
16, 87584, Note_on_c, 15, 36, 0
16, 87600, Note_on_c, 15, 36, 76
16, 87704, Note_on_c, 15, 36, 0
16, 87720, Note_on_c, 15, 36, 76
16, 87824, Note_on_c, 15, 36, 0
16, 87840, Note_on_c, 15, 36, 76
16, 88304, Note_on_c, 15, 36, 0
16, 88320, Note_on_c, 15, 29, 76
16, 88904, Note_on_c, 15, 29, 0
16, 88920, Note_on_c, 15, 29, 76
16, 89024, Note_on_c, 15, 29, 0
16, 89040, Note_on_c, 15, 29, 76
16, 89144, Note_on_c, 15, 29, 0
16, 89160, Note_on_c, 15, 29, 76
16, 89264, Note_on_c, 15, 29, 0
16, 89280, Note_on_c, 15, 29, 76
16, 89864, Note_on_c, 15, 29, 0
16, 89880, Note_on_c, 15, 29, 76
16, 89984, Note_on_c, 15, 29, 0
16, 90000, Note_on_c, 15, 29, 76
16, 90104, Note_on_c, 15, 29, 0
16, 90120, Note_on_c, 15, 29, 76
16, 90224, Note_on_c, 15, 29, 0
16, 90240, Note_on_c, 15, 29, 76
16, 90584, Note_on_c, 15, 29, 0
16, 90600, Note_on_c, 15, 29, 76
16, 90704, Note_on_c, 15, 29, 0
16, 90720, Note_on_c, 15, 29, 76
16, 91064, Note_on_c, 15, 29, 0
16, 91080, Note_on_c, 15, 29, 76
16, 91184, Note_on_c, 15, 29, 0
16, 91200, Note_on_c, 15, 29, 76
16, 91319, Note_on_c, 15, 29, 0
16, 92880, Program_c, 15, 45
16, 93120, Note_on_c, 15, 38, 48
16, 93239, Note_on_c, 15, 38, 0
16, 95040, Note_on_c, 15, 36, 48
16, 95279, Note_on_c, 15, 36, 0
16, 96000, Note_on_c, 15, 35, 48
16, 96239, Note_on_c, 15, 35, 0
16, 103598, Program_c, 15, 48
16, 103598, Control_c, 15, 11, 90
16, 103680, Note_on_c, 15, 45, 76
16, 103782, Control_c, 15, 11, 91
16, 103799, Note_on_c, 15, 45, 0
16, 103800, Note_on_c, 15, 43, 76
16, 103919, Note_on_c, 15, 43, 0
16, 103920, Note_on_c, 15, 41, 76
16, 103966, Control_c, 15, 11, 92
16, 104039, Note_on_c, 15, 41, 0
16, 104040, Note_on_c, 15, 38, 76
16, 104150, Control_c, 15, 11, 93
16, 104159, Note_on_c, 15, 38, 0
16, 104160, Note_on_c, 15, 31, 76
16, 104279, Note_on_c, 15, 31, 0
16, 104280, Note_on_c, 15, 41, 76
16, 104334, Control_c, 15, 11, 94
16, 104399, Note_on_c, 15, 41, 0
16, 104400, Note_on_c, 15, 38, 76
16, 104517, Control_c, 15, 11, 95
16, 104519, Note_on_c, 15, 38, 0
16, 104520, Note_on_c, 15, 31, 76
16, 104624, Note_on_c, 15, 31, 0
16, 104640, Note_on_c, 15, 45, 76
16, 104701, Control_c, 15, 11, 96
16, 104759, Note_on_c, 15, 45, 0
16, 104760, Note_on_c, 15, 43, 76
16, 104879, Note_on_c, 15, 43, 0
16, 104880, Note_on_c, 15, 40, 76
16, 104885, Control_c, 15, 11, 97
16, 104999, Note_on_c, 15, 40, 0
16, 105000, Note_on_c, 15, 36, 76
16, 105069, Control_c, 15, 11, 98
16, 105119, Note_on_c, 15, 36, 0
16, 105120, Note_on_c, 15, 31, 76
16, 105239, Note_on_c, 15, 31, 0
16, 105240, Note_on_c, 15, 40, 76
16, 105253, Control_c, 15, 11, 99
16, 105359, Note_on_c, 15, 40, 0
16, 105360, Note_on_c, 15, 36, 76
16, 105437, Control_c, 15, 11, 100
16, 105479, Note_on_c, 15, 36, 0
16, 105480, Note_on_c, 15, 31, 76
16, 105584, Note_on_c, 15, 31, 0
16, 105600, Note_on_c, 15, 31, 76
16, 105620, Control_c, 15, 11, 101
16, 105804, Control_c, 15, 11, 102
16, 105988, Control_c, 15, 11, 103
16, 106172, Control_c, 15, 11, 104
16, 106356, Control_c, 15, 11, 105
16, 106540, Control_c, 15, 11, 106
16, 106544, Note_on_c, 15, 31, 0
16, 106560, Note_on_c, 15, 36, 76
16, 106723, Control_c, 15, 11, 107
16, 106907, Control_c, 15, 11, 108
16, 107091, Control_c, 15, 11, 109
16, 107275, Control_c, 15, 11, 110
16, 107459, Control_c, 15, 11, 111
16, 107504, Note_on_c, 15, 36, 0
16, 107520, Note_on_c, 15, 35, 76
16, 107643, Control_c, 15, 11, 112
16, 107744, Note_on_c, 15, 35, 0
16, 107760, Note_on_c, 15, 35, 76
16, 107826, Control_c, 15, 11, 113
16, 107984, Note_on_c, 15, 35, 0
16, 108000, Note_on_c, 15, 35, 76
16, 108010, Control_c, 15, 11, 114
16, 108194, Control_c, 15, 11, 115
16, 108239, Note_on_c, 15, 35, 0
16, 108240, Note_on_c, 15, 38, 76
16, 108359, Note_on_c, 15, 38, 0
16, 108360, Note_on_c, 15, 35, 76
16, 108378, Control_c, 15, 11, 116
16, 108464, Note_on_c, 15, 35, 0
16, 108480, Note_on_c, 15, 36, 76
16, 108562, Control_c, 15, 11, 117
16, 108704, Note_on_c, 15, 36, 0
16, 108720, Note_on_c, 15, 36, 76
16, 108746, Control_c, 15, 11, 118
16, 108929, Control_c, 15, 11, 119
16, 108944, Note_on_c, 15, 36, 0
16, 108960, Note_on_c, 15, 36, 76
16, 109113, Control_c, 15, 11, 120
16, 109199, Note_on_c, 15, 36, 0
16, 109200, Note_on_c, 15, 40, 76
16, 109297, Control_c, 15, 11, 121
16, 109319, Note_on_c, 15, 40, 0
16, 109320, Note_on_c, 15, 36, 76
16, 109424, Note_on_c, 15, 36, 0
16, 109440, Note_on_c, 15, 38, 76
16, 109481, Control_c, 15, 11, 122
16, 109664, Note_on_c, 15, 38, 0
16, 109665, Control_c, 15, 11, 123
16, 109680, Note_on_c, 15, 38, 76
16, 109849, Control_c, 15, 11, 124
16, 109904, Note_on_c, 15, 38, 0
16, 109920, Note_on_c, 15, 38, 76
16, 110032, Control_c, 15, 11, 125
16, 110159, Note_on_c, 15, 38, 0
16, 110160, Note_on_c, 15, 41, 76
16, 110216, Control_c, 15, 11, 127
16, 110279, Note_on_c, 15, 41, 0
16, 110280, Note_on_c, 15, 38, 76
16, 110384, Note_on_c, 15, 38, 0
16, 110400, Note_on_c, 15, 36, 76
16, 111359, Note_on_c, 15, 36, 0
16, 111360, Note_on_c, 15, 36, 76
16, 111824, Note_on_c, 15, 36, 0
16, 111840, Note_on_c, 15, 29, 76
16, 111959, Note_on_c, 15, 29, 0
16, 112320, Note_on_c, 15, 29, 52
16, 112799, Note_on_c, 15, 29, 0
16, 112800, Note_on_c, 15, 36, 52
16, 113279, Note_on_c, 15, 36, 0
16, 113280, Note_on_c, 15, 31, 52
16, 113744, Note_on_c, 15, 31, 0
16, 113760, Note_on_c, 15, 36, 84
16, 114719, Note_on_c, 15, 36, 0
16, 114720, Note_on_c, 15, 36, 84
16, 115184, Note_on_c, 15, 36, 0
16, 115200, Note_on_c, 15, 29, 76
16, 115319, Note_on_c, 15, 29, 0
16, 115440, Control_c, 15, 11, 80
16, 115680, Note_on_c, 15, 29, 76
16, 116159, Note_on_c, 15, 29, 0
16, 116160, Note_on_c, 15, 36, 76
16, 116639, Note_on_c, 15, 36, 0
16, 116640, Note_on_c, 15, 31, 76
16, 117104, Note_on_c, 15, 31, 0
16, 117120, Control_c, 15, 11, 80
16, 117120, Note_on_c, 15, 36, 76
16, 117173, Control_c, 15, 11, 81
16, 117227, Control_c, 15, 11, 83
16, 117280, Control_c, 15, 11, 84
16, 117333, Control_c, 15, 11, 85
16, 117344, Note_on_c, 15, 36, 0
16, 117360, Note_on_c, 15, 36, 76
16, 117387, Control_c, 15, 11, 87
16, 117440, Control_c, 15, 11, 88
16, 117493, Control_c, 15, 11, 89
16, 117547, Control_c, 15, 11, 90
16, 117599, Note_on_c, 15, 36, 0
16, 117600, Note_on_c, 15, 29, 76
16, 117600, Control_c, 15, 11, 92
16, 117653, Control_c, 15, 11, 93
16, 117707, Control_c, 15, 11, 94
16, 117760, Control_c, 15, 11, 96
16, 117813, Control_c, 15, 11, 97
16, 117824, Note_on_c, 15, 29, 0
16, 117840, Note_on_c, 15, 29, 76
16, 117867, Control_c, 15, 11, 98
16, 117920, Control_c, 15, 11, 100
16, 117973, Control_c, 15, 11, 101
16, 118027, Control_c, 15, 11, 102
16, 118079, Note_on_c, 15, 29, 0
16, 118080, Control_c, 15, 11, 104
16, 118080, Note_on_c, 15, 36, 76
16, 118133, Control_c, 15, 11, 105
16, 118187, Control_c, 15, 11, 106
16, 118240, Control_c, 15, 11, 107
16, 118293, Control_c, 15, 11, 109
16, 118304, Note_on_c, 15, 36, 0
16, 118320, Note_on_c, 15, 36, 76
16, 118347, Control_c, 15, 11, 110
16, 118400, Control_c, 15, 11, 111
16, 118453, Control_c, 15, 11, 113
16, 118507, Control_c, 15, 11, 114
16, 118559, Note_on_c, 15, 36, 0
16, 118560, Control_c, 15, 11, 115
16, 118560, Note_on_c, 15, 31, 76
16, 118613, Control_c, 15, 11, 117
16, 118667, Control_c, 15, 11, 118
16, 118720, Control_c, 15, 11, 119
16, 118773, Control_c, 15, 11, 120
16, 118784, Note_on_c, 15, 31, 0
16, 118800, Note_on_c, 15, 31, 76
16, 118827, Control_c, 15, 11, 122
16, 118880, Control_c, 15, 11, 123
16, 118933, Control_c, 15, 11, 124
16, 118987, Control_c, 15, 11, 127
16, 119024, Note_on_c, 15, 31, 0
16, 119040, Note_on_c, 15, 36, 76
16, 119107, Note_on_c, 15, 36, 0
16, 119120, Note_on_c, 15, 36, 76
16, 119187, Note_on_c, 15, 36, 0
16, 119200, Note_on_c, 15, 36, 76
16, 119267, Note_on_c, 15, 36, 0
16, 119280, Note_on_c, 15, 36, 76
16, 119347, Note_on_c, 15, 36, 0
16, 119360, Note_on_c, 15, 38, 76
16, 119427, Note_on_c, 15, 38, 0
16, 119440, Note_on_c, 15, 40, 76
16, 119507, Note_on_c, 15, 40, 0
16, 119520, Note_on_c, 15, 41, 76
16, 119587, Note_on_c, 15, 41, 0
16, 119600, Note_on_c, 15, 41, 76
16, 119667, Note_on_c, 15, 41, 0
16, 119680, Note_on_c, 15, 41, 76
16, 119747, Note_on_c, 15, 41, 0
16, 119760, Note_on_c, 15, 45, 76
16, 119827, Note_on_c, 15, 45, 0
16, 119840, Note_on_c, 15, 45, 76
16, 119907, Note_on_c, 15, 45, 0
16, 119920, Note_on_c, 15, 45, 76
16, 119987, Note_on_c, 15, 45, 0
16, 120000, Note_on_c, 15, 48, 76
16, 120067, Note_on_c, 15, 48, 0
16, 120080, Note_on_c, 15, 48, 76
16, 120147, Note_on_c, 15, 48, 0
16, 120160, Note_on_c, 15, 48, 76
16, 120227, Note_on_c, 15, 48, 0
16, 120240, Note_on_c, 15, 52, 76
16, 120307, Note_on_c, 15, 52, 0
16, 120320, Note_on_c, 15, 52, 76
16, 120387, Note_on_c, 15, 52, 0
16, 120400, Note_on_c, 15, 52, 76
16, 120467, Note_on_c, 15, 52, 0
16, 120480, Note_on_c, 15, 55, 76
16, 120547, Note_on_c, 15, 55, 0
16, 120560, Note_on_c, 15, 31, 76
16, 120627, Note_on_c, 15, 31, 0
16, 120640, Note_on_c, 15, 31, 76
16, 120707, Note_on_c, 15, 31, 0
16, 120720, Note_on_c, 15, 31, 76
16, 120787, Note_on_c, 15, 31, 0
16, 120800, Note_on_c, 15, 31, 76
16, 120867, Note_on_c, 15, 31, 0
16, 120880, Note_on_c, 15, 31, 76
16, 120947, Note_on_c, 15, 31, 0
16, 120960, Note_on_c, 15, 36, 76
16, 121027, Note_on_c, 15, 36, 0
16, 121040, Note_on_c, 15, 36, 76
16, 121107, Note_on_c, 15, 36, 0
16, 121120, Note_on_c, 15, 36, 76
16, 121187, Note_on_c, 15, 36, 0
16, 121200, Note_on_c, 15, 36, 76
16, 121987, Note_on_c, 15, 36, 0
16, 122000, Note_on_c, 15, 36, 76
16, 122067, Note_on_c, 15, 36, 0
16, 122080, Note_on_c, 15, 36, 76
16, 122147, Note_on_c, 15, 36, 0
16, 122160, Note_on_c, 15, 36, 76
16, 122947, Note_on_c, 15, 36, 0
16, 122960, Note_on_c, 15, 36, 76
16, 123027, Note_on_c, 15, 36, 0
16, 123040, Note_on_c, 15, 36, 76
16, 123107, Note_on_c, 15, 36, 0
16, 123120, Note_on_c, 15, 36, 76
16, 123907, Note_on_c, 15, 36, 0
16, 123920, Note_on_c, 15, 36, 76
16, 123987, Note_on_c, 15, 36, 0
16, 124000, Note_on_c, 15, 36, 76
16, 124067, Note_on_c, 15, 36, 0
16, 124080, Note_on_c, 15, 36, 76
16, 124800, Control_c, 15, 11, 127
16, 124853, Control_c, 15, 11, 126
16, 124867, Note_on_c, 15, 36, 0
16, 124880, Note_on_c, 15, 36, 76
16, 124907, Control_c, 15, 11, 124
16, 124947, Note_on_c, 15, 36, 0
16, 124960, Control_c, 15, 11, 123
16, 124960, Note_on_c, 15, 36, 76
16, 125013, Control_c, 15, 11, 122
16, 125027, Note_on_c, 15, 36, 0
16, 125040, Note_on_c, 15, 36, 76
16, 125067, Control_c, 15, 11, 120
16, 125120, Control_c, 15, 11, 119
16, 125173, Control_c, 15, 11, 118
16, 125227, Control_c, 15, 11, 117
16, 125280, Control_c, 15, 11, 115
16, 125333, Control_c, 15, 11, 114
16, 125347, Note_on_c, 15, 36, 0
16, 125360, Note_on_c, 15, 36, 76
16, 125387, Control_c, 15, 11, 113
16, 125427, Note_on_c, 15, 36, 0
16, 125440, Note_on_c, 15, 36, 76
16, 125440, Control_c, 15, 11, 111
16, 125493, Control_c, 15, 11, 110
16, 125507, Note_on_c, 15, 36, 0
16, 125520, Note_on_c, 15, 36, 76
16, 125547, Control_c, 15, 11, 109
16, 125600, Control_c, 15, 11, 107
16, 125653, Control_c, 15, 11, 106
16, 125707, Control_c, 15, 11, 105
16, 125760, Control_c, 15, 11, 104
16, 125813, Control_c, 15, 11, 102
16, 125827, Note_on_c, 15, 36, 0
16, 125840, Note_on_c, 15, 36, 76
16, 125867, Control_c, 15, 11, 101
16, 125907, Note_on_c, 15, 36, 0
16, 125920, Note_on_c, 15, 36, 76
16, 125920, Control_c, 15, 11, 100
16, 125973, Control_c, 15, 11, 98
16, 125987, Note_on_c, 15, 36, 0
16, 126000, Note_on_c, 15, 36, 76
16, 126027, Control_c, 15, 11, 97
16, 126080, Control_c, 15, 11, 96
16, 126133, Control_c, 15, 11, 94
16, 126187, Control_c, 15, 11, 93
16, 126240, Control_c, 15, 11, 92
16, 126293, Control_c, 15, 11, 90
16, 126307, Note_on_c, 15, 36, 0
16, 126320, Note_on_c, 15, 36, 76
16, 126347, Control_c, 15, 11, 89
16, 126387, Note_on_c, 15, 36, 0
16, 126400, Control_c, 15, 11, 88
16, 126400, Note_on_c, 15, 36, 76
16, 126453, Control_c, 15, 11, 87
16, 126467, Note_on_c, 15, 36, 0
16, 126480, Note_on_c, 15, 36, 76
16, 126507, Control_c, 15, 11, 85
16, 126560, Control_c, 15, 11, 84
16, 126613, Control_c, 15, 11, 83
16, 126667, Control_c, 15, 11, 80
16, 126839, Note_on_c, 15, 36, 0
16, 127200, Control_c, 15, 11, 127
16, 138120, Note_on_c, 15, 41, 52
16, 138224, Note_on_c, 15, 41, 0
16, 138240, Note_on_c, 15, 34, 52
16, 138479, Note_on_c, 15, 34, 0
16, 138720, Note_on_c, 15, 34, 53
16, 138959, Note_on_c, 15, 34, 0
16, 139200, Note_on_c, 15, 34, 54
16, 139439, Note_on_c, 15, 34, 0
16, 139680, Note_on_c, 15, 34, 56
16, 139919, Note_on_c, 15, 34, 0
16, 140160, Note_on_c, 15, 34, 57
16, 140399, Note_on_c, 15, 34, 0
16, 140640, Note_on_c, 15, 34, 58
16, 140879, Note_on_c, 15, 34, 0
16, 141120, Note_on_c, 15, 34, 60
16, 141359, Note_on_c, 15, 34, 0
16, 141600, Note_on_c, 15, 34, 61
16, 141839, Note_on_c, 15, 34, 0
16, 142080, Note_on_c, 15, 34, 62
16, 142319, Note_on_c, 15, 34, 0
16, 142560, Note_on_c, 15, 34, 64
16, 142799, Note_on_c, 15, 34, 0
16, 143040, Note_on_c, 15, 34, 65
16, 143279, Note_on_c, 15, 34, 0
16, 143520, Note_on_c, 15, 34, 66
16, 143759, Note_on_c, 15, 34, 0
16, 144000, Note_on_c, 15, 38, 68
16, 144239, Note_on_c, 15, 38, 0
16, 144480, Note_on_c, 15, 38, 69
16, 144719, Note_on_c, 15, 38, 0
16, 144960, Note_on_c, 15, 38, 70
16, 145199, Note_on_c, 15, 38, 0
16, 145440, Note_on_c, 15, 38, 72
16, 145679, Note_on_c, 15, 38, 0
16, 145920, Note_on_c, 15, 38, 73
16, 146159, Note_on_c, 15, 38, 0
16, 146400, Note_on_c, 15, 38, 74
16, 146639, Note_on_c, 15, 38, 0
16, 146880, Note_on_c, 15, 38, 76
16, 147119, Note_on_c, 15, 38, 0
16, 147360, Note_on_c, 15, 38, 77
16, 147599, Note_on_c, 15, 38, 0
16, 147840, Note_on_c, 15, 38, 78
16, 148079, Note_on_c, 15, 38, 0
16, 148320, Note_on_c, 15, 38, 80
16, 148559, Note_on_c, 15, 38, 0
16, 148800, Note_on_c, 15, 38, 81
16, 149039, Note_on_c, 15, 38, 0
16, 149280, Note_on_c, 15, 38, 82
16, 149519, Note_on_c, 15, 38, 0
16, 149760, Note_on_c, 15, 38, 84
16, 149849, Note_on_c, 15, 38, 0
16, 149880, Note_on_c, 15, 33, 84
16, 149939, Note_on_c, 15, 33, 0
16, 149940, Note_on_c, 15, 31, 84
16, 149991, Note_on_c, 15, 31, 0
16, 150000, Note_on_c, 15, 30, 84
16, 150089, Note_on_c, 15, 30, 0
16, 150120, Note_on_c, 15, 26, 84
16, 150209, Note_on_c, 15, 26, 0
16, 150240, Note_on_c, 15, 38, 84
16, 150329, Note_on_c, 15, 38, 0
16, 150360, Note_on_c, 15, 33, 84
16, 150419, Note_on_c, 15, 33, 0
16, 150420, Note_on_c, 15, 31, 84
16, 150471, Note_on_c, 15, 31, 0
16, 150480, Note_on_c, 15, 30, 84
16, 150569, Note_on_c, 15, 30, 0
16, 150600, Note_on_c, 15, 26, 84
16, 150689, Note_on_c, 15, 26, 0
16, 150720, Note_on_c, 15, 38, 84
16, 150809, Note_on_c, 15, 38, 0
16, 150840, Note_on_c, 15, 33, 84
16, 150899, Note_on_c, 15, 33, 0
16, 150900, Note_on_c, 15, 31, 84
16, 150951, Note_on_c, 15, 31, 0
16, 150960, Note_on_c, 15, 30, 84
16, 151049, Note_on_c, 15, 30, 0
16, 151080, Note_on_c, 15, 26, 84
16, 151169, Note_on_c, 15, 26, 0
16, 151200, Note_on_c, 15, 38, 84
16, 151289, Note_on_c, 15, 38, 0
16, 151320, Note_on_c, 15, 33, 84
16, 151379, Note_on_c, 15, 33, 0
16, 151380, Note_on_c, 15, 31, 84
16, 151431, Note_on_c, 15, 31, 0
16, 151440, Note_on_c, 15, 30, 84
16, 151529, Note_on_c, 15, 30, 0
16, 151560, Note_on_c, 15, 26, 84
16, 151649, Note_on_c, 15, 26, 0
16, 151680, Note_on_c, 15, 38, 84
16, 151769, Note_on_c, 15, 38, 0
16, 151800, Note_on_c, 15, 33, 84
16, 151859, Note_on_c, 15, 33, 0
16, 151860, Note_on_c, 15, 31, 84
16, 151911, Note_on_c, 15, 31, 0
16, 151920, Note_on_c, 15, 30, 84
16, 152009, Note_on_c, 15, 30, 0
16, 152040, Note_on_c, 15, 26, 84
16, 152129, Note_on_c, 15, 26, 0
16, 152640, Note_on_c, 15, 38, 84
16, 152729, Note_on_c, 15, 38, 0
16, 152760, Note_on_c, 15, 33, 84
16, 152819, Note_on_c, 15, 33, 0
16, 152820, Note_on_c, 15, 31, 84
16, 152871, Note_on_c, 15, 31, 0
16, 152880, Note_on_c, 15, 30, 84
16, 152969, Note_on_c, 15, 30, 0
16, 153000, Note_on_c, 15, 26, 84
16, 153089, Note_on_c, 15, 26, 0
16, 160320, Note_on_c, 15, 31, 52
16, 160559, Note_on_c, 15, 31, 0
16, 160800, Note_on_c, 15, 31, 53
16, 161039, Note_on_c, 15, 31, 0
16, 161280, Note_on_c, 15, 31, 54
16, 161519, Note_on_c, 15, 31, 0
16, 161760, Note_on_c, 15, 31, 56
16, 161999, Note_on_c, 15, 31, 0
16, 162240, Note_on_c, 15, 31, 57
16, 162479, Note_on_c, 15, 31, 0
16, 162720, Note_on_c, 15, 31, 58
16, 162959, Note_on_c, 15, 31, 0
16, 163200, Note_on_c, 15, 31, 60
16, 163439, Note_on_c, 15, 31, 0
16, 163680, Note_on_c, 15, 31, 61
16, 163919, Note_on_c, 15, 31, 0
16, 164160, Note_on_c, 15, 31, 62
16, 164399, Note_on_c, 15, 31, 0
16, 164640, Note_on_c, 15, 31, 64
16, 164879, Note_on_c, 15, 31, 0
16, 165120, Note_on_c, 15, 31, 65
16, 165359, Note_on_c, 15, 31, 0
16, 165600, Note_on_c, 15, 31, 66
16, 165839, Note_on_c, 15, 31, 0
16, 166080, Note_on_c, 15, 28, 68
16, 166319, Note_on_c, 15, 28, 0
16, 166560, Note_on_c, 15, 28, 69
16, 166799, Note_on_c, 15, 28, 0
16, 167040, Note_on_c, 15, 28, 70
16, 167279, Note_on_c, 15, 28, 0
16, 167520, Note_on_c, 15, 28, 72
16, 167759, Note_on_c, 15, 28, 0
16, 168000, Note_on_c, 15, 28, 73
16, 168239, Note_on_c, 15, 28, 0
16, 168480, Note_on_c, 15, 28, 74
16, 168719, Note_on_c, 15, 28, 0
16, 168960, Note_on_c, 15, 28, 76
16, 169199, Note_on_c, 15, 28, 0
16, 169440, Note_on_c, 15, 28, 77
16, 169679, Note_on_c, 15, 28, 0
16, 169920, Note_on_c, 15, 28, 78
16, 170159, Note_on_c, 15, 28, 0
16, 170400, Note_on_c, 15, 28, 80
16, 170639, Note_on_c, 15, 28, 0
16, 170880, Note_on_c, 15, 28, 81
16, 171119, Note_on_c, 15, 28, 0
16, 171360, Note_on_c, 15, 28, 82
16, 171599, Note_on_c, 15, 28, 0
16, 171840, Note_on_c, 15, 40, 84
16, 171929, Note_on_c, 15, 40, 0
16, 171960, Note_on_c, 15, 35, 84
16, 172019, Note_on_c, 15, 35, 0
16, 172020, Note_on_c, 15, 33, 84
16, 172071, Note_on_c, 15, 33, 0
16, 172080, Note_on_c, 15, 32, 84
16, 172169, Note_on_c, 15, 32, 0
16, 172200, Note_on_c, 15, 28, 84
16, 172289, Note_on_c, 15, 28, 0
16, 172320, Note_on_c, 15, 40, 84
16, 172409, Note_on_c, 15, 40, 0
16, 172440, Note_on_c, 15, 35, 84
16, 172499, Note_on_c, 15, 35, 0
16, 172500, Note_on_c, 15, 33, 84
16, 172551, Note_on_c, 15, 33, 0
16, 172560, Note_on_c, 15, 32, 84
16, 172649, Note_on_c, 15, 32, 0
16, 172680, Note_on_c, 15, 28, 84
16, 172769, Note_on_c, 15, 28, 0
16, 172800, Note_on_c, 15, 40, 84
16, 172889, Note_on_c, 15, 40, 0
16, 172920, Note_on_c, 15, 35, 84
16, 172979, Note_on_c, 15, 35, 0
16, 172980, Note_on_c, 15, 33, 84
16, 173031, Note_on_c, 15, 33, 0
16, 173040, Note_on_c, 15, 32, 84
16, 173129, Note_on_c, 15, 32, 0
16, 173160, Note_on_c, 15, 28, 84
16, 173249, Note_on_c, 15, 28, 0
16, 173280, Note_on_c, 15, 40, 84
16, 173369, Note_on_c, 15, 40, 0
16, 173400, Note_on_c, 15, 35, 84
16, 173459, Note_on_c, 15, 35, 0
16, 173460, Note_on_c, 15, 33, 84
16, 173511, Note_on_c, 15, 33, 0
16, 173520, Note_on_c, 15, 32, 84
16, 173609, Note_on_c, 15, 32, 0
16, 173640, Note_on_c, 15, 28, 84
16, 173729, Note_on_c, 15, 28, 0
16, 173760, Note_on_c, 15, 40, 84
16, 173849, Note_on_c, 15, 40, 0
16, 173880, Note_on_c, 15, 35, 84
16, 173939, Note_on_c, 15, 35, 0
16, 173940, Note_on_c, 15, 33, 84
16, 173991, Note_on_c, 15, 33, 0
16, 174000, Note_on_c, 15, 32, 84
16, 174089, Note_on_c, 15, 32, 0
16, 174120, Note_on_c, 15, 28, 84
16, 174209, Note_on_c, 15, 28, 0
16, 174720, Note_on_c, 15, 40, 84
16, 174809, Note_on_c, 15, 40, 0
16, 174840, Note_on_c, 15, 35, 84
16, 174899, Note_on_c, 15, 35, 0
16, 174900, Note_on_c, 15, 33, 84
16, 174951, Note_on_c, 15, 33, 0
16, 174960, Note_on_c, 15, 32, 84
16, 175049, Note_on_c, 15, 32, 0
16, 175080, Note_on_c, 15, 28, 84
16, 175169, Note_on_c, 15, 28, 0
16, 184080, Program_c, 15, 45
16, 184320, Note_on_c, 15, 33, 48
16, 184439, Note_on_c, 15, 33, 0
16, 186240, Note_on_c, 15, 33, 48
16, 186359, Note_on_c, 15, 33, 0
16, 188160, Note_on_c, 15, 38, 48
16, 188279, Note_on_c, 15, 38, 0
16, 189120, Note_on_c, 15, 31, 48
16, 189239, Note_on_c, 15, 31, 0
16, 190080, Note_on_c, 15, 38, 48
16, 190199, Note_on_c, 15, 38, 0
16, 191040, Note_on_c, 15, 31, 48
16, 191159, Note_on_c, 15, 31, 0
16, 191520, Note_on_c, 15, 31, 48
16, 191639, Note_on_c, 15, 31, 0
16, 191760, Program_c, 15, 48
16, 192000, Note_on_c, 15, 36, 84
16, 192239, Note_on_c, 15, 36, 0
16, 192240, Note_on_c, 15, 40, 84
16, 192479, Note_on_c, 15, 40, 0
16, 192480, Note_on_c, 15, 38, 84
16, 192839, Note_on_c, 15, 38, 0
16, 192840, Note_on_c, 15, 36, 84
16, 192944, Note_on_c, 15, 36, 0
16, 192960, Note_on_c, 15, 41, 92
16, 193019, Note_on_c, 15, 41, 0
16, 193020, Note_on_c, 15, 41, 84
16, 193199, Note_on_c, 15, 41, 0
16, 193200, Note_on_c, 15, 40, 84
16, 193424, Note_on_c, 15, 40, 0
16, 193440, Note_on_c, 15, 38, 84
16, 193529, Note_on_c, 15, 38, 0
16, 193560, Note_on_c, 15, 38, 84
16, 193619, Note_on_c, 15, 38, 0
16, 193620, Note_on_c, 15, 40, 84
16, 193671, Note_on_c, 15, 40, 0
16, 193680, Note_on_c, 15, 41, 84
16, 193769, Note_on_c, 15, 41, 0
16, 193800, Note_on_c, 15, 38, 84
16, 193889, Note_on_c, 15, 38, 0
16, 193920, Note_on_c, 15, 40, 92
16, 193979, Note_on_c, 15, 40, 0
16, 193980, Note_on_c, 15, 40, 84
16, 194159, Note_on_c, 15, 40, 0
16, 194160, Note_on_c, 15, 43, 84
16, 194399, Note_on_c, 15, 43, 0
16, 194400, Note_on_c, 15, 41, 84
16, 194759, Note_on_c, 15, 41, 0
16, 194760, Note_on_c, 15, 40, 84
16, 194864, Note_on_c, 15, 40, 0
16, 194880, Note_on_c, 15, 45, 92
16, 194939, Note_on_c, 15, 45, 0
16, 194940, Note_on_c, 15, 45, 84
16, 195119, Note_on_c, 15, 45, 0
16, 195120, Note_on_c, 15, 43, 84
16, 195344, Note_on_c, 15, 43, 0
16, 195360, Note_on_c, 15, 41, 84
16, 195449, Note_on_c, 15, 41, 0
16, 195480, Note_on_c, 15, 41, 84
16, 195539, Note_on_c, 15, 41, 0
16, 195540, Note_on_c, 15, 43, 84
16, 195591, Note_on_c, 15, 43, 0
16, 195600, Note_on_c, 15, 45, 84
16, 195689, Note_on_c, 15, 45, 0
16, 195720, Note_on_c, 15, 41, 84
16, 195809, Note_on_c, 15, 41, 0
16, 195840, Note_on_c, 15, 46, 92
16, 195899, Note_on_c, 15, 46, 0
16, 195900, Note_on_c, 15, 46, 84
16, 196079, Note_on_c, 15, 46, 0
16, 196080, Note_on_c, 15, 45, 84
16, 196304, Note_on_c, 15, 45, 0
16, 196320, Note_on_c, 15, 43, 84
16, 196409, Note_on_c, 15, 43, 0
16, 196440, Note_on_c, 15, 40, 84
16, 196499, Note_on_c, 15, 40, 0
16, 196500, Note_on_c, 15, 41, 84
16, 196551, Note_on_c, 15, 41, 0
16, 196560, Note_on_c, 15, 43, 84
16, 196649, Note_on_c, 15, 43, 0
16, 196680, Note_on_c, 15, 45, 84
16, 196769, Note_on_c, 15, 45, 0
16, 196800, Note_on_c, 15, 46, 92
16, 196859, Note_on_c, 15, 46, 0
16, 196860, Note_on_c, 15, 46, 84
16, 197039, Note_on_c, 15, 46, 0
16, 197040, Note_on_c, 15, 45, 84
16, 197264, Note_on_c, 15, 45, 0
16, 197280, Note_on_c, 15, 43, 84
16, 197369, Note_on_c, 15, 43, 0
16, 197400, Note_on_c, 15, 40, 84
16, 197459, Note_on_c, 15, 40, 0
16, 197460, Note_on_c, 15, 41, 84
16, 197511, Note_on_c, 15, 41, 0
16, 197520, Note_on_c, 15, 43, 84
16, 197609, Note_on_c, 15, 43, 0
16, 197640, Note_on_c, 15, 45, 84
16, 197729, Note_on_c, 15, 45, 0
16, 197760, Control_c, 15, 11, 127
16, 197760, Note_on_c, 15, 34, 76
16, 197805, Control_c, 15, 11, 125
16, 197850, Control_c, 15, 11, 123
16, 197895, Control_c, 15, 11, 121
16, 197940, Control_c, 15, 11, 119
16, 197985, Control_c, 15, 11, 117
16, 198030, Control_c, 15, 11, 115
16, 198075, Control_c, 15, 11, 113
16, 198120, Control_c, 15, 11, 111
16, 198165, Control_c, 15, 11, 109
16, 198210, Control_c, 15, 11, 107
16, 198255, Control_c, 15, 11, 105
16, 198300, Control_c, 15, 11, 104
16, 198345, Control_c, 15, 11, 102
16, 198390, Control_c, 15, 11, 100
16, 198435, Control_c, 15, 11, 98
16, 198480, Control_c, 15, 11, 96
16, 198525, Control_c, 15, 11, 94
16, 198570, Control_c, 15, 11, 92
16, 198615, Control_c, 15, 11, 90
16, 198660, Control_c, 15, 11, 88
16, 198705, Control_c, 15, 11, 86
16, 198719, Note_on_c, 15, 34, 0
16, 198720, Note_on_c, 15, 34, 76
16, 198750, Control_c, 15, 11, 84
16, 198795, Control_c, 15, 11, 82
16, 198960, Control_c, 15, 11, 80
16, 198990, Control_c, 15, 11, 79
16, 199020, Control_c, 15, 11, 77
16, 199050, Control_c, 15, 11, 76
16, 199080, Control_c, 15, 11, 75
16, 199110, Control_c, 15, 11, 73
16, 199140, Control_c, 15, 11, 72
16, 199170, Control_c, 15, 11, 71
16, 199200, Control_c, 15, 11, 69
16, 199230, Control_c, 15, 11, 68
16, 199260, Control_c, 15, 11, 67
16, 199290, Control_c, 15, 11, 64
16, 199664, Note_on_c, 15, 34, 0
16, 199680, Note_on_c, 15, 29, 76
16, 201104, Note_on_c, 15, 29, 0
16, 201120, Note_on_c, 15, 36, 76
16, 201599, Note_on_c, 15, 36, 0
16, 204240, Program_c, 15, 45
16, 204240, Control_c, 15, 11, 127
16, 204480, Note_on_c, 15, 29, 48
16, 204599, Note_on_c, 15, 29, 0
16, 205440, Note_on_c, 15, 29, 48
16, 205679, Note_on_c, 15, 29, 0
16, 206400, Note_on_c, 15, 29, 48
16, 206639, Note_on_c, 15, 29, 0
16, 207360, Note_on_c, 15, 34, 48
16, 207599, Note_on_c, 15, 34, 0
16, 207600, Note_on_c, 15, 41, 48
16, 207839, Note_on_c, 15, 41, 0
16, 207840, Note_on_c, 15, 36, 48
16, 208079, Note_on_c, 15, 36, 0
16, 208320, Note_on_c, 15, 41, 48
16, 208559, Note_on_c, 15, 41, 0
16, 209280, Note_on_c, 15, 34, 48
16, 209519, Note_on_c, 15, 34, 0
16, 209520, Note_on_c, 15, 41, 48
16, 209759, Note_on_c, 15, 41, 0
16, 209760, Note_on_c, 15, 36, 48
16, 209999, Note_on_c, 15, 36, 0
16, 213360, Program_c, 15, 48
16, 213600, Note_on_c, 15, 36, 44
16, 213659, Note_on_c, 15, 36, 0
16, 213680, Note_on_c, 15, 48, 45
16, 213739, Note_on_c, 15, 48, 0
16, 213760, Note_on_c, 15, 46, 47
16, 213819, Note_on_c, 15, 46, 0
16, 213840, Note_on_c, 15, 45, 49
16, 213899, Note_on_c, 15, 45, 0
16, 213920, Note_on_c, 15, 43, 50
16, 213979, Note_on_c, 15, 43, 0
16, 214000, Note_on_c, 15, 41, 52
16, 214059, Note_on_c, 15, 41, 0
16, 214080, Note_on_c, 15, 40, 54
16, 214139, Note_on_c, 15, 40, 0
16, 214160, Note_on_c, 15, 45, 55
16, 214219, Note_on_c, 15, 45, 0
16, 214240, Note_on_c, 15, 43, 57
16, 214299, Note_on_c, 15, 43, 0
16, 214320, Note_on_c, 15, 41, 59
16, 214379, Note_on_c, 15, 41, 0
16, 214400, Note_on_c, 15, 40, 60
16, 214459, Note_on_c, 15, 40, 0
16, 214480, Note_on_c, 15, 38, 62
16, 214539, Note_on_c, 15, 38, 0
16, 214560, Note_on_c, 15, 36, 64
16, 214619, Note_on_c, 15, 36, 0
16, 214640, Note_on_c, 15, 41, 65
16, 214699, Note_on_c, 15, 41, 0
16, 214720, Note_on_c, 15, 40, 67
16, 214779, Note_on_c, 15, 40, 0
16, 214800, Note_on_c, 15, 38, 69
16, 214859, Note_on_c, 15, 38, 0
16, 214880, Note_on_c, 15, 36, 70
16, 214939, Note_on_c, 15, 36, 0
16, 214960, Note_on_c, 15, 34, 72
16, 215019, Note_on_c, 15, 34, 0
16, 215040, Note_on_c, 15, 33, 74
16, 215099, Note_on_c, 15, 33, 0
16, 215120, Note_on_c, 15, 38, 75
16, 215179, Note_on_c, 15, 38, 0
16, 215200, Note_on_c, 15, 36, 77
16, 215259, Note_on_c, 15, 36, 0
16, 215280, Note_on_c, 15, 34, 79
16, 215339, Note_on_c, 15, 34, 0
16, 215360, Note_on_c, 15, 33, 80
16, 215419, Note_on_c, 15, 33, 0
16, 215440, Note_on_c, 15, 31, 82
16, 215499, Note_on_c, 15, 31, 0
16, 215520, Note_on_c, 15, 29, 84
16, 215624, Note_on_c, 15, 29, 0
16, 215640, Note_on_c, 15, 29, 84
16, 215744, Note_on_c, 15, 29, 0
16, 215760, Note_on_c, 15, 29, 84
16, 215864, Note_on_c, 15, 29, 0
16, 215880, Note_on_c, 15, 29, 84
16, 215984, Note_on_c, 15, 29, 0
16, 216000, Note_on_c, 15, 29, 84
16, 216104, Note_on_c, 15, 29, 0
16, 216120, Note_on_c, 15, 29, 84
16, 216224, Note_on_c, 15, 29, 0
16, 216240, Note_on_c, 15, 29, 84
16, 216344, Note_on_c, 15, 29, 0
16, 216360, Note_on_c, 15, 29, 84
16, 216464, Note_on_c, 15, 29, 0
16, 216480, Note_on_c, 15, 29, 84
16, 216584, Note_on_c, 15, 29, 0
16, 216600, Note_on_c, 15, 29, 84
16, 216704, Note_on_c, 15, 29, 0
16, 216720, Note_on_c, 15, 29, 84
16, 216824, Note_on_c, 15, 29, 0
16, 216840, Note_on_c, 15, 29, 84
16, 216944, Note_on_c, 15, 29, 0
16, 216960, Note_on_c, 15, 29, 84
16, 217064, Note_on_c, 15, 29, 0
16, 217080, Note_on_c, 15, 29, 84
16, 217184, Note_on_c, 15, 29, 0
16, 217200, Note_on_c, 15, 29, 84
16, 217304, Note_on_c, 15, 29, 0
16, 217320, Note_on_c, 15, 29, 84
16, 217424, Note_on_c, 15, 29, 0
16, 217440, Note_on_c, 15, 29, 84
16, 217544, Note_on_c, 15, 29, 0
16, 217560, Note_on_c, 15, 29, 84
16, 217664, Note_on_c, 15, 29, 0
16, 217680, Note_on_c, 15, 29, 84
16, 217784, Note_on_c, 15, 29, 0
16, 217800, Note_on_c, 15, 29, 84
16, 217904, Note_on_c, 15, 29, 0
16, 217920, Note_on_c, 15, 29, 84
16, 218024, Note_on_c, 15, 29, 0
16, 218040, Note_on_c, 15, 29, 84
16, 218144, Note_on_c, 15, 29, 0
16, 218160, Note_on_c, 15, 29, 84
16, 218264, Note_on_c, 15, 29, 0
16, 218280, Note_on_c, 15, 29, 84
16, 218384, Note_on_c, 15, 29, 0
16, 218400, Note_on_c, 15, 36, 84
16, 218504, Note_on_c, 15, 36, 0
16, 218520, Note_on_c, 15, 36, 84
16, 218624, Note_on_c, 15, 36, 0
16, 218640, Note_on_c, 15, 36, 84
16, 218744, Note_on_c, 15, 36, 0
16, 218760, Note_on_c, 15, 36, 84
16, 218864, Note_on_c, 15, 36, 0
16, 218880, Note_on_c, 15, 36, 84
16, 218984, Note_on_c, 15, 36, 0
16, 219000, Note_on_c, 15, 36, 84
16, 219104, Note_on_c, 15, 36, 0
16, 219120, Note_on_c, 15, 36, 84
16, 219224, Note_on_c, 15, 36, 0
16, 219240, Note_on_c, 15, 36, 84
16, 219344, Note_on_c, 15, 36, 0
16, 219360, Note_on_c, 15, 36, 84
16, 219464, Note_on_c, 15, 36, 0
16, 219480, Note_on_c, 15, 36, 84
16, 219584, Note_on_c, 15, 36, 0
16, 219600, Note_on_c, 15, 36, 84
16, 219704, Note_on_c, 15, 36, 0
16, 219720, Note_on_c, 15, 36, 84
16, 219824, Note_on_c, 15, 36, 0
16, 219840, Note_on_c, 15, 36, 84
16, 220304, Note_on_c, 15, 36, 0
16, 220320, Note_on_c, 15, 29, 84
16, 220904, Note_on_c, 15, 29, 0
16, 220920, Note_on_c, 15, 29, 84
16, 221024, Note_on_c, 15, 29, 0
16, 221040, Note_on_c, 15, 29, 84
16, 221144, Note_on_c, 15, 29, 0
16, 221160, Note_on_c, 15, 29, 84
16, 221264, Note_on_c, 15, 29, 0
16, 221280, Note_on_c, 15, 29, 84
16, 221864, Note_on_c, 15, 29, 0
16, 221880, Note_on_c, 15, 29, 84
16, 221984, Note_on_c, 15, 29, 0
16, 222000, Note_on_c, 15, 29, 84
16, 222104, Note_on_c, 15, 29, 0
16, 222120, Note_on_c, 15, 29, 84
16, 222224, Note_on_c, 15, 29, 0
16, 222240, Note_on_c, 15, 29, 84
16, 222584, Note_on_c, 15, 29, 0
16, 222600, Note_on_c, 15, 29, 84
16, 222704, Note_on_c, 15, 29, 0
16, 222720, Note_on_c, 15, 29, 84
16, 223064, Note_on_c, 15, 29, 0
16, 223080, Note_on_c, 15, 29, 84
16, 223184, Note_on_c, 15, 29, 0
16, 223200, Note_on_c, 15, 29, 84
16, 223319, Note_on_c, 15, 29, 0
16, 224880, Program_c, 15, 45
16, 225120, Note_on_c, 15, 38, 48
16, 225359, Note_on_c, 15, 38, 0
16, 227040, Note_on_c, 15, 36, 48
16, 227279, Note_on_c, 15, 36, 0
16, 228000, Note_on_c, 15, 35, 48
16, 228239, Note_on_c, 15, 35, 0
16, 228960, Note_on_c, 15, 34, 48
16, 229199, Note_on_c, 15, 34, 0
16, 231360, Program_c, 15, 48
16, 237360, Control_c, 15, 11, 88
16, 237600, Note_on_c, 15, 48, 76
16, 237702, Control_c, 15, 11, 91
16, 237719, Note_on_c, 15, 48, 0
16, 237720, Note_on_c, 15, 46, 76
16, 237839, Note_on_c, 15, 46, 0
16, 237840, Note_on_c, 15, 43, 76
16, 237886, Control_c, 15, 11, 92
16, 237959, Note_on_c, 15, 43, 0
16, 237960, Note_on_c, 15, 40, 76
16, 238070, Control_c, 15, 11, 93
16, 238079, Note_on_c, 15, 40, 0
16, 238080, Note_on_c, 15, 36, 76
16, 238199, Note_on_c, 15, 36, 0
16, 238200, Note_on_c, 15, 46, 76
16, 238254, Control_c, 15, 11, 94
16, 238319, Note_on_c, 15, 46, 0
16, 238320, Note_on_c, 15, 43, 76
16, 238437, Control_c, 15, 11, 95
16, 238439, Note_on_c, 15, 43, 0
16, 238440, Note_on_c, 15, 36, 76
16, 238544, Note_on_c, 15, 36, 0
16, 238560, Note_on_c, 15, 50, 76
16, 238621, Control_c, 15, 11, 96
16, 238679, Note_on_c, 15, 50, 0
16, 238680, Note_on_c, 15, 48, 76
16, 238799, Note_on_c, 15, 48, 0
16, 238800, Note_on_c, 15, 45, 76
16, 238805, Control_c, 15, 11, 97
16, 238919, Note_on_c, 15, 45, 0
16, 238920, Note_on_c, 15, 41, 76
16, 238989, Control_c, 15, 11, 98
16, 239039, Note_on_c, 15, 41, 0
16, 239040, Note_on_c, 15, 36, 76
16, 239159, Note_on_c, 15, 36, 0
16, 239160, Note_on_c, 15, 45, 76
16, 239173, Control_c, 15, 11, 99
16, 239279, Note_on_c, 15, 45, 0
16, 239280, Note_on_c, 15, 41, 76
16, 239357, Control_c, 15, 11, 100
16, 239399, Note_on_c, 15, 41, 0
16, 239400, Note_on_c, 15, 36, 76
16, 239504, Note_on_c, 15, 36, 0
16, 239520, Note_on_c, 15, 36, 76
16, 239540, Control_c, 15, 11, 101
16, 239724, Control_c, 15, 11, 102
16, 239908, Control_c, 15, 11, 103
16, 240092, Control_c, 15, 11, 104
16, 240276, Control_c, 15, 11, 105
16, 240460, Control_c, 15, 11, 106
16, 240464, Note_on_c, 15, 36, 0
16, 240480, Note_on_c, 15, 41, 76
16, 240643, Control_c, 15, 11, 107
16, 240827, Control_c, 15, 11, 108
16, 241011, Control_c, 15, 11, 109
16, 241195, Control_c, 15, 11, 110
16, 241379, Control_c, 15, 11, 111
16, 241424, Note_on_c, 15, 41, 0
16, 241440, Note_on_c, 15, 40, 76
16, 241563, Control_c, 15, 11, 112
16, 241664, Note_on_c, 15, 40, 0
16, 241680, Note_on_c, 15, 40, 76
16, 241746, Control_c, 15, 11, 113
16, 241904, Note_on_c, 15, 40, 0
16, 241920, Note_on_c, 15, 40, 76
16, 241930, Control_c, 15, 11, 114
16, 242114, Control_c, 15, 11, 115
16, 242159, Note_on_c, 15, 40, 0
16, 242160, Note_on_c, 15, 43, 76
16, 242279, Note_on_c, 15, 43, 0
16, 242280, Note_on_c, 15, 40, 76
16, 242298, Control_c, 15, 11, 116
16, 242384, Note_on_c, 15, 40, 0
16, 242400, Note_on_c, 15, 41, 76
16, 242482, Control_c, 15, 11, 117
16, 242624, Note_on_c, 15, 41, 0
16, 242640, Note_on_c, 15, 41, 76
16, 242666, Control_c, 15, 11, 118
16, 242849, Control_c, 15, 11, 119
16, 242864, Note_on_c, 15, 41, 0
16, 242880, Note_on_c, 15, 41, 76
16, 243033, Control_c, 15, 11, 120
16, 243119, Note_on_c, 15, 41, 0
16, 243120, Note_on_c, 15, 45, 76
16, 243217, Control_c, 15, 11, 121
16, 243239, Note_on_c, 15, 45, 0
16, 243240, Note_on_c, 15, 41, 76
16, 243344, Note_on_c, 15, 41, 0
16, 243360, Note_on_c, 15, 43, 76
16, 243401, Control_c, 15, 11, 122
16, 243584, Note_on_c, 15, 43, 0
16, 243585, Control_c, 15, 11, 123
16, 243600, Note_on_c, 15, 43, 76
16, 243769, Control_c, 15, 11, 124
16, 243824, Note_on_c, 15, 43, 0
16, 243840, Note_on_c, 15, 43, 76
16, 243952, Control_c, 15, 11, 125
16, 244079, Note_on_c, 15, 43, 0
16, 244080, Note_on_c, 15, 46, 76
16, 244136, Control_c, 15, 11, 127
16, 244199, Note_on_c, 15, 46, 0
16, 244200, Note_on_c, 15, 43, 76
16, 244304, Note_on_c, 15, 43, 0
16, 244320, Note_on_c, 15, 41, 76
16, 245744, Note_on_c, 15, 41, 0
16, 245760, Note_on_c, 15, 34, 76
16, 245879, Note_on_c, 15, 34, 0
16, 246240, Note_on_c, 15, 34, 52
16, 246719, Note_on_c, 15, 34, 0
16, 246720, Note_on_c, 15, 41, 52
16, 247199, Note_on_c, 15, 41, 0
16, 247200, Note_on_c, 15, 36, 52
16, 247664, Note_on_c, 15, 36, 0
16, 247680, Note_on_c, 15, 41, 84
16, 249104, Note_on_c, 15, 41, 0
16, 249120, Note_on_c, 15, 34, 76
16, 249239, Note_on_c, 15, 34, 0
16, 249600, Note_on_c, 15, 34, 52
16, 250064, Note_on_c, 15, 34, 0
16, 250080, Note_on_c, 15, 41, 52
16, 250544, Note_on_c, 15, 41, 0
16, 250560, Note_on_c, 15, 36, 52
16, 251024, Note_on_c, 15, 36, 0
16, 251038, Control_c, 15, 11, 80
16, 251040, Note_on_c, 15, 41, 76
16, 251120, Control_c, 15, 11, 82
16, 251200, Control_c, 15, 11, 84
16, 251264, Note_on_c, 15, 41, 0
16, 251280, Control_c, 15, 11, 86
16, 251280, Note_on_c, 15, 41, 76
16, 251360, Control_c, 15, 11, 88
16, 251440, Control_c, 15, 11, 90
16, 251519, Note_on_c, 15, 41, 0
16, 251520, Control_c, 15, 11, 92
16, 251520, Note_on_c, 15, 34, 76
16, 251600, Control_c, 15, 11, 94
16, 251680, Control_c, 15, 11, 96
16, 251744, Note_on_c, 15, 34, 0
16, 251760, Control_c, 15, 11, 98
16, 251760, Note_on_c, 15, 34, 76
16, 251840, Control_c, 15, 11, 100
16, 251920, Control_c, 15, 11, 102
16, 251999, Note_on_c, 15, 34, 0
16, 252000, Note_on_c, 15, 29, 76
16, 252000, Control_c, 15, 11, 104
16, 252080, Control_c, 15, 11, 105
16, 252160, Control_c, 15, 11, 107
16, 252224, Note_on_c, 15, 29, 0
16, 252240, Control_c, 15, 11, 109
16, 252240, Note_on_c, 15, 29, 76
16, 252320, Control_c, 15, 11, 111
16, 252400, Control_c, 15, 11, 113
16, 252479, Note_on_c, 15, 29, 0
16, 252480, Note_on_c, 15, 36, 76
16, 252480, Control_c, 15, 11, 115
16, 252560, Control_c, 15, 11, 117
16, 252640, Control_c, 15, 11, 119
16, 252704, Note_on_c, 15, 36, 0
16, 252720, Control_c, 15, 11, 121
16, 252720, Note_on_c, 15, 36, 76
16, 252800, Control_c, 15, 11, 123
16, 252880, Control_c, 15, 11, 127
16, 252944, Note_on_c, 15, 36, 0
16, 252960, Note_on_c, 15, 29, 76
16, 253027, Note_on_c, 15, 29, 0
16, 253040, Note_on_c, 15, 29, 76
16, 253107, Note_on_c, 15, 29, 0
16, 253120, Note_on_c, 15, 29, 76
16, 253187, Note_on_c, 15, 29, 0
16, 253200, Note_on_c, 15, 29, 76
16, 253267, Note_on_c, 15, 29, 0
16, 253280, Note_on_c, 15, 31, 76
16, 253347, Note_on_c, 15, 31, 0
16, 253360, Note_on_c, 15, 33, 76
16, 253427, Note_on_c, 15, 33, 0
16, 253440, Note_on_c, 15, 34, 76
16, 253507, Note_on_c, 15, 34, 0
16, 253520, Note_on_c, 15, 34, 76
16, 253587, Note_on_c, 15, 34, 0
16, 253600, Note_on_c, 15, 34, 76
16, 253667, Note_on_c, 15, 34, 0
16, 253680, Note_on_c, 15, 38, 76
16, 253747, Note_on_c, 15, 38, 0
16, 253760, Note_on_c, 15, 38, 76
16, 253827, Note_on_c, 15, 38, 0
16, 253840, Note_on_c, 15, 38, 76
16, 253907, Note_on_c, 15, 38, 0
16, 253920, Note_on_c, 15, 41, 76
16, 253987, Note_on_c, 15, 41, 0
16, 254000, Note_on_c, 15, 41, 76
16, 254067, Note_on_c, 15, 41, 0
16, 254080, Note_on_c, 15, 41, 76
16, 254147, Note_on_c, 15, 41, 0
16, 254160, Note_on_c, 15, 45, 76
16, 254227, Note_on_c, 15, 45, 0
16, 254240, Note_on_c, 15, 45, 76
16, 254307, Note_on_c, 15, 45, 0
16, 254320, Note_on_c, 15, 45, 76
16, 254387, Note_on_c, 15, 45, 0
16, 254400, Note_on_c, 15, 48, 76
16, 254467, Note_on_c, 15, 48, 0
16, 254480, Note_on_c, 15, 48, 76
16, 254547, Note_on_c, 15, 48, 0
16, 254560, Note_on_c, 15, 48, 76
16, 254627, Note_on_c, 15, 48, 0
16, 254640, Note_on_c, 15, 36, 76
16, 254707, Note_on_c, 15, 36, 0
16, 254720, Note_on_c, 15, 36, 76
16, 254787, Note_on_c, 15, 36, 0
16, 254800, Note_on_c, 15, 36, 76
16, 254867, Note_on_c, 15, 36, 0
16, 254880, Note_on_c, 15, 41, 76
16, 254947, Note_on_c, 15, 41, 0
16, 254960, Note_on_c, 15, 29, 76
16, 255027, Note_on_c, 15, 29, 0
16, 255040, Note_on_c, 15, 29, 76
16, 255107, Note_on_c, 15, 29, 0
16, 255120, Note_on_c, 15, 29, 76
16, 255907, Note_on_c, 15, 29, 0
16, 255920, Note_on_c, 15, 29, 76
16, 255987, Note_on_c, 15, 29, 0
16, 256000, Note_on_c, 15, 29, 76
16, 256067, Note_on_c, 15, 29, 0
16, 256080, Note_on_c, 15, 29, 76
16, 256867, Note_on_c, 15, 29, 0
16, 256880, Note_on_c, 15, 29, 76
16, 256947, Note_on_c, 15, 29, 0
16, 256960, Note_on_c, 15, 29, 76
16, 257027, Note_on_c, 15, 29, 0
16, 257040, Note_on_c, 15, 29, 76
16, 257827, Note_on_c, 15, 29, 0
16, 257840, Note_on_c, 15, 29, 76
16, 257907, Note_on_c, 15, 29, 0
16, 257920, Note_on_c, 15, 29, 76
16, 257987, Note_on_c, 15, 29, 0
16, 258000, Note_on_c, 15, 29, 76
16, 258720, Control_c, 15, 11, 127
16, 258787, Note_on_c, 15, 29, 0
16, 258800, Note_on_c, 15, 29, 76
16, 258800, Control_c, 15, 11, 125
16, 258867, Note_on_c, 15, 29, 0
16, 258880, Note_on_c, 15, 29, 76
16, 258880, Control_c, 15, 11, 123
16, 258947, Note_on_c, 15, 29, 0
16, 258960, Note_on_c, 15, 29, 76
16, 258960, Control_c, 15, 11, 121
16, 259040, Control_c, 15, 11, 119
16, 259120, Control_c, 15, 11, 117
16, 259200, Control_c, 15, 11, 115
16, 259267, Note_on_c, 15, 29, 0
16, 259280, Control_c, 15, 11, 113
16, 259280, Note_on_c, 15, 29, 76
16, 259347, Note_on_c, 15, 29, 0
16, 259360, Note_on_c, 15, 29, 76
16, 259360, Control_c, 15, 11, 111
16, 259427, Note_on_c, 15, 29, 0
16, 259440, Control_c, 15, 11, 109
16, 259440, Note_on_c, 15, 29, 76
16, 259520, Control_c, 15, 11, 107
16, 259600, Control_c, 15, 11, 105
16, 259680, Control_c, 15, 11, 104
16, 259747, Note_on_c, 15, 29, 0
16, 259760, Control_c, 15, 11, 102
16, 259760, Note_on_c, 15, 29, 76
16, 259827, Note_on_c, 15, 29, 0
16, 259840, Note_on_c, 15, 29, 76
16, 259840, Control_c, 15, 11, 100
16, 259907, Note_on_c, 15, 29, 0
16, 259920, Control_c, 15, 11, 98
16, 259920, Note_on_c, 15, 29, 76
16, 260000, Control_c, 15, 11, 96
16, 260080, Control_c, 15, 11, 94
16, 260160, Control_c, 15, 11, 92
16, 260227, Note_on_c, 15, 29, 0
16, 260240, Note_on_c, 15, 29, 76
16, 260240, Control_c, 15, 11, 90
16, 260307, Note_on_c, 15, 29, 0
16, 260320, Note_on_c, 15, 29, 76
16, 260320, Control_c, 15, 11, 88
16, 260387, Note_on_c, 15, 29, 0
16, 260400, Control_c, 15, 11, 86
16, 260400, Note_on_c, 15, 29, 76
16, 260480, Control_c, 15, 11, 84
16, 260560, Control_c, 15, 11, 82
16, 260640, Control_c, 15, 11, 80
16, 260707, Note_on_c, 15, 29, 0
16, 260720, Note_on_c, 15, 29, 76
16, 260760, Control_c, 15, 11, 79
16, 260787, Note_on_c, 15, 29, 0
16, 260800, Note_on_c, 15, 29, 76
16, 260867, Note_on_c, 15, 29, 0
16, 260880, Control_c, 15, 11, 78
16, 260880, Note_on_c, 15, 29, 76
16, 261000, Control_c, 15, 11, 77
16, 261120, Control_c, 15, 11, 76
16, 261187, Note_on_c, 15, 29, 0
16, 261200, Note_on_c, 15, 29, 76
16, 261240, Control_c, 15, 11, 75
16, 261267, Note_on_c, 15, 29, 0
16, 261280, Note_on_c, 15, 29, 76
16, 261347, Note_on_c, 15, 29, 0
16, 261360, Control_c, 15, 11, 74
16, 261360, Note_on_c, 15, 29, 76
16, 261480, Control_c, 15, 11, 73
16, 261600, Control_c, 15, 11, 72
16, 261667, Note_on_c, 15, 29, 0
16, 261680, Note_on_c, 15, 29, 76
16, 261720, Control_c, 15, 11, 71
16, 261747, Note_on_c, 15, 29, 0
16, 261760, Note_on_c, 15, 29, 76
16, 261827, Note_on_c, 15, 29, 0
16, 261840, Note_on_c, 15, 29, 76
16, 261840, Control_c, 15, 11, 70
16, 261960, Control_c, 15, 11, 69
16, 262080, Control_c, 15, 11, 68
16, 262147, Note_on_c, 15, 29, 0
16, 262160, Note_on_c, 15, 29, 76
16, 262200, Control_c, 15, 11, 67
16, 262227, Note_on_c, 15, 29, 0
16, 262240, Note_on_c, 15, 29, 76
16, 262307, Note_on_c, 15, 29, 0
16, 262320, Control_c, 15, 11, 66
16, 262320, Note_on_c, 15, 29, 76
16, 262440, Control_c, 15, 11, 64
16, 262664, Note_on_c, 15, 29, 0
16, 268320, Control_c, 15, 11, 127
16, 268440, Note_on_c, 15, 46, 76
16, 268529, Note_on_c, 15, 46, 0
16, 268560, Note_on_c, 15, 43, 76
16, 268649, Note_on_c, 15, 43, 0
16, 268680, Note_on_c, 15, 39, 76
16, 268769, Note_on_c, 15, 39, 0
16, 268800, Note_on_c, 15, 38, 76
16, 268889, Note_on_c, 15, 38, 0
16, 268920, Note_on_c, 15, 39, 76
16, 269009, Note_on_c, 15, 39, 0
16, 269040, Note_on_c, 15, 41, 76
16, 269129, Note_on_c, 15, 41, 0
16, 269160, Note_on_c, 15, 39, 76
16, 269249, Note_on_c, 15, 39, 0
16, 269280, Note_on_c, 15, 38, 76
16, 269369, Note_on_c, 15, 38, 0
16, 269400, Note_on_c, 15, 36, 76
16, 269489, Note_on_c, 15, 36, 0
16, 269520, Note_on_c, 15, 34, 76
16, 269609, Note_on_c, 15, 34, 0
16, 269640, Note_on_c, 15, 36, 76
16, 269729, Note_on_c, 15, 36, 0
16, 269760, Note_on_c, 15, 33, 76
16, 269849, Note_on_c, 15, 33, 0
16, 269880, Note_on_c, 15, 31, 76
16, 269969, Note_on_c, 15, 31, 0
16, 270000, Note_on_c, 15, 29, 76
16, 270089, Note_on_c, 15, 29, 0
16, 270120, Note_on_c, 15, 41, 76
16, 270209, Note_on_c, 15, 41, 0
16, 270240, Note_on_c, 15, 34, 52
16, 270359, Note_on_c, 15, 34, 0
16, 270720, Note_on_c, 15, 29, 52
16, 270839, Note_on_c, 15, 29, 0
16, 271200, Note_on_c, 15, 34, 52
16, 271267, Note_on_c, 15, 34, 0
16, 271280, Note_on_c, 15, 34, 52
16, 271347, Note_on_c, 15, 34, 0
16, 271360, Note_on_c, 15, 34, 52
16, 271427, Note_on_c, 15, 34, 0
16, 271440, Note_on_c, 15, 34, 52
16, 272227, Note_on_c, 15, 34, 0
16, 272240, Note_on_c, 15, 34, 52
16, 272307, Note_on_c, 15, 34, 0
16, 272320, Note_on_c, 15, 34, 52
16, 272387, Note_on_c, 15, 34, 0
16, 272400, Note_on_c, 15, 34, 52
16, 273187, Note_on_c, 15, 34, 0
16, 273200, Note_on_c, 15, 34, 52
16, 273267, Note_on_c, 15, 34, 0
16, 273280, Note_on_c, 15, 34, 52
16, 273347, Note_on_c, 15, 34, 0
16, 273360, Note_on_c, 15, 34, 52
16, 274147, Note_on_c, 15, 34, 0
16, 274160, Note_on_c, 15, 34, 52
16, 274227, Note_on_c, 15, 34, 0
16, 274240, Note_on_c, 15, 34, 52
16, 274307, Note_on_c, 15, 34, 0
16, 274320, Note_on_c, 15, 34, 52
16, 275107, Note_on_c, 15, 34, 0
16, 275120, Note_on_c, 15, 46, 52
16, 275187, Note_on_c, 15, 46, 0
16, 275200, Note_on_c, 15, 46, 52
16, 275267, Note_on_c, 15, 46, 0
16, 275280, Note_on_c, 15, 46, 52
16, 275587, Note_on_c, 15, 46, 0
16, 275600, Note_on_c, 15, 43, 52
16, 275667, Note_on_c, 15, 43, 0
16, 275680, Note_on_c, 15, 43, 52
16, 275747, Note_on_c, 15, 43, 0
16, 275760, Note_on_c, 15, 43, 52
16, 276067, Note_on_c, 15, 43, 0
16, 276080, Note_on_c, 15, 40, 52
16, 276147, Note_on_c, 15, 40, 0
16, 276160, Note_on_c, 15, 40, 52
16, 276227, Note_on_c, 15, 40, 0
16, 276240, Note_on_c, 15, 40, 52
16, 276547, Note_on_c, 15, 40, 0
16, 276560, Note_on_c, 15, 36, 52
16, 276627, Note_on_c, 15, 36, 0
16, 276640, Note_on_c, 15, 36, 52
16, 276707, Note_on_c, 15, 36, 0
16, 276720, Note_on_c, 15, 36, 52
16, 276944, Note_on_c, 15, 36, 0
16, 276960, Note_on_c, 15, 29, 76
16, 277027, Note_on_c, 15, 29, 0
16, 277040, Note_on_c, 15, 29, 76
16, 277107, Note_on_c, 15, 29, 0
16, 277120, Note_on_c, 15, 29, 76
16, 277187, Note_on_c, 15, 29, 0
16, 277200, Note_on_c, 15, 29, 76
16, 277987, Note_on_c, 15, 29, 0
16, 278000, Note_on_c, 15, 29, 76
16, 278067, Note_on_c, 15, 29, 0
16, 278080, Note_on_c, 15, 29, 76
16, 278147, Note_on_c, 15, 29, 0
16, 278160, Note_on_c, 15, 29, 76
16, 278947, Note_on_c, 15, 29, 0
16, 278960, Note_on_c, 15, 29, 76
16, 279027, Note_on_c, 15, 29, 0
16, 279040, Note_on_c, 15, 29, 76
16, 279107, Note_on_c, 15, 29, 0
16, 279120, Note_on_c, 15, 29, 76
16, 279907, Note_on_c, 15, 29, 0
16, 279920, Note_on_c, 15, 29, 76
16, 279987, Note_on_c, 15, 29, 0
16, 280000, Note_on_c, 15, 29, 76
16, 280067, Note_on_c, 15, 29, 0
16, 280080, Note_on_c, 15, 29, 76
16, 280867, Note_on_c, 15, 29, 0
16, 280880, Note_on_c, 15, 29, 76
16, 280947, Note_on_c, 15, 29, 0
16, 280960, Note_on_c, 15, 29, 76
16, 281027, Note_on_c, 15, 29, 0
16, 281040, Note_on_c, 15, 29, 76
16, 281347, Note_on_c, 15, 29, 0
16, 281360, Note_on_c, 15, 38, 76
16, 281427, Note_on_c, 15, 38, 0
16, 281440, Note_on_c, 15, 38, 76
16, 281507, Note_on_c, 15, 38, 0
16, 281520, Note_on_c, 15, 38, 76
16, 281827, Note_on_c, 15, 38, 0
16, 281840, Note_on_c, 15, 36, 76
16, 281907, Note_on_c, 15, 36, 0
16, 281920, Note_on_c, 15, 36, 76
16, 281987, Note_on_c, 15, 36, 0
16, 282000, Note_on_c, 15, 36, 76
16, 282307, Note_on_c, 15, 36, 0
16, 282320, Note_on_c, 15, 36, 76
16, 282387, Note_on_c, 15, 36, 0
16, 282400, Note_on_c, 15, 36, 76
16, 282467, Note_on_c, 15, 36, 0
16, 282480, Note_on_c, 15, 36, 76
16, 282787, Note_on_c, 15, 36, 0
16, 282800, Note_on_c, 15, 29, 76
16, 282867, Note_on_c, 15, 29, 0
16, 282880, Note_on_c, 15, 29, 76
16, 282947, Note_on_c, 15, 29, 0
16, 282960, Note_on_c, 15, 29, 76
16, 283267, Note_on_c, 15, 29, 0
16, 283280, Note_on_c, 15, 38, 76
16, 283347, Note_on_c, 15, 38, 0
16, 283360, Note_on_c, 15, 38, 76
16, 283427, Note_on_c, 15, 38, 0
16, 283440, Note_on_c, 15, 38, 76
16, 283747, Note_on_c, 15, 38, 0
16, 283760, Note_on_c, 15, 36, 76
16, 283827, Note_on_c, 15, 36, 0
16, 283840, Note_on_c, 15, 36, 76
16, 283907, Note_on_c, 15, 36, 0
16, 283920, Note_on_c, 15, 36, 76
16, 284227, Note_on_c, 15, 36, 0
16, 284240, Note_on_c, 15, 36, 76
16, 284307, Note_on_c, 15, 36, 0
16, 284320, Note_on_c, 15, 36, 76
16, 284387, Note_on_c, 15, 36, 0
16, 284400, Note_on_c, 15, 36, 76
16, 284707, Note_on_c, 15, 36, 0
16, 284720, Note_on_c, 15, 29, 76
16, 284787, Note_on_c, 15, 29, 0
16, 284800, Note_on_c, 15, 29, 76
16, 284867, Note_on_c, 15, 29, 0
16, 284880, Note_on_c, 15, 29, 76
16, 285187, Note_on_c, 15, 29, 0
16, 285200, Note_on_c, 15, 38, 76
16, 285267, Note_on_c, 15, 38, 0
16, 285280, Note_on_c, 15, 38, 76
16, 285347, Note_on_c, 15, 38, 0
16, 285360, Note_on_c, 15, 38, 76
16, 285667, Note_on_c, 15, 38, 0
16, 285680, Note_on_c, 15, 36, 84
16, 285747, Note_on_c, 15, 36, 0
16, 285760, Note_on_c, 15, 36, 84
16, 285827, Note_on_c, 15, 36, 0
16, 285840, Note_on_c, 15, 36, 84
16, 286147, Note_on_c, 15, 36, 0
16, 286160, Note_on_c, 15, 36, 84
16, 286227, Note_on_c, 15, 36, 0
16, 286240, Note_on_c, 15, 36, 84
16, 286307, Note_on_c, 15, 36, 0
16, 286320, Note_on_c, 15, 36, 84
16, 286627, Note_on_c, 15, 36, 0
16, 286640, Note_on_c, 15, 36, 84
16, 286707, Note_on_c, 15, 36, 0
16, 286720, Note_on_c, 15, 36, 84
16, 286787, Note_on_c, 15, 36, 0
16, 286800, Note_on_c, 15, 36, 84
16, 287107, Note_on_c, 15, 36, 0
16, 287120, Note_on_c, 15, 36, 84
16, 287187, Note_on_c, 15, 36, 0
16, 287200, Note_on_c, 15, 36, 84
16, 287267, Note_on_c, 15, 36, 0
16, 287280, Note_on_c, 15, 36, 84
16, 287587, Note_on_c, 15, 36, 0
16, 287600, Note_on_c, 15, 36, 84
16, 287667, Note_on_c, 15, 36, 0
16, 287680, Note_on_c, 15, 36, 84
16, 287747, Note_on_c, 15, 36, 0
16, 287760, Note_on_c, 15, 36, 84
16, 288067, Note_on_c, 15, 36, 0
16, 288080, Note_on_c, 15, 36, 84
16, 288147, Note_on_c, 15, 36, 0
16, 288160, Note_on_c, 15, 36, 84
16, 288227, Note_on_c, 15, 36, 0
16, 288240, Note_on_c, 15, 36, 84
16, 288480, Control_c, 15, 11, 127
16, 288547, Note_on_c, 15, 36, 0
16, 288560, Control_c, 15, 11, 124
16, 288560, Note_on_c, 15, 36, 84
16, 288627, Note_on_c, 15, 36, 0
16, 288640, Control_c, 15, 11, 120
16, 288640, Note_on_c, 15, 36, 84
16, 288707, Note_on_c, 15, 36, 0
16, 288720, Control_c, 15, 11, 117
16, 288720, Note_on_c, 15, 36, 84
16, 288800, Control_c, 15, 11, 114
16, 288880, Control_c, 15, 11, 111
16, 288960, Control_c, 15, 11, 107
16, 289027, Note_on_c, 15, 36, 0
16, 289040, Note_on_c, 15, 36, 84
16, 289040, Control_c, 15, 11, 104
16, 289107, Note_on_c, 15, 36, 0
16, 289120, Note_on_c, 15, 36, 84
16, 289120, Control_c, 15, 11, 101
16, 289187, Note_on_c, 15, 36, 0
16, 289200, Control_c, 15, 11, 97
16, 289200, Note_on_c, 15, 36, 84
16, 289280, Control_c, 15, 11, 94
16, 289360, Control_c, 15, 11, 91
16, 289440, Control_c, 15, 11, 88
16, 289507, Note_on_c, 15, 36, 0
16, 289520, Control_c, 15, 11, 84
16, 289520, Note_on_c, 15, 36, 84
16, 289587, Note_on_c, 15, 36, 0
16, 289600, Note_on_c, 15, 36, 84
16, 289600, Control_c, 15, 11, 81
16, 289667, Note_on_c, 15, 36, 0
16, 289680, Note_on_c, 15, 36, 84
16, 289680, Control_c, 15, 11, 78
16, 289760, Control_c, 15, 11, 74
16, 289840, Control_c, 15, 11, 71
16, 289920, Control_c, 15, 11, 68
16, 289987, Note_on_c, 15, 36, 0
16, 290000, Note_on_c, 15, 36, 84
16, 290000, Control_c, 15, 11, 64
16, 290067, Note_on_c, 15, 36, 0
16, 290080, Note_on_c, 15, 36, 84
16, 290080, Control_c, 15, 11, 61
16, 290147, Note_on_c, 15, 36, 0
16, 290160, Note_on_c, 15, 36, 84
16, 290160, Control_c, 15, 11, 58
16, 290240, Control_c, 15, 11, 55
16, 290320, Control_c, 15, 11, 48
16, 290384, Note_on_c, 15, 36, 0
16, 290400, Note_on_c, 15, 36, 84
16, 290879, Note_on_c, 15, 36, 0
16, 290880, Note_on_c, 15, 38, 84
16, 291344, Note_on_c, 15, 38, 0
16, 291358, Control_c, 15, 11, 127
16, 291360, Note_on_c, 15, 40, 76
16, 291824, Note_on_c, 15, 40, 0
16, 291840, Note_on_c, 15, 41, 76
16, 291959, Note_on_c, 15, 41, 0
16, 292080, Note_on_c, 15, 36, 76
16, 292199, Note_on_c, 15, 36, 0
16, 292320, Note_on_c, 15, 36, 44
16, 292799, Note_on_c, 15, 36, 0
16, 292800, Note_on_c, 15, 38, 44
16, 293264, Note_on_c, 15, 38, 0
16, 293280, Note_on_c, 15, 40, 76
16, 293744, Note_on_c, 15, 40, 0
16, 293760, Note_on_c, 15, 41, 76
16, 293879, Note_on_c, 15, 41, 0
16, 294000, Note_on_c, 15, 36, 76
16, 294119, Note_on_c, 15, 36, 0
16, 294240, Note_on_c, 15, 29, 76
16, 294359, Note_on_c, 15, 29, 0
16, 295680, Note_on_c, 15, 36, 76
16, 296024, Note_on_c, 15, 36, 0
16, 296040, Note_on_c, 15, 36, 76
16, 296144, Note_on_c, 15, 36, 0
16, 296160, Note_on_c, 15, 29, 76
16, 296279, Note_on_c, 15, 29, 0
16, 297600, Note_on_c, 15, 36, 76
16, 297944, Note_on_c, 15, 36, 0
16, 297960, Note_on_c, 15, 36, 76
16, 298064, Note_on_c, 15, 36, 0
16, 298080, Note_on_c, 15, 29, 76
16, 298199, Note_on_c, 15, 29, 0
16, 298560, Note_on_c, 15, 36, 76
16, 298904, Note_on_c, 15, 36, 0
16, 298920, Note_on_c, 15, 36, 76
16, 299024, Note_on_c, 15, 36, 0
16, 299040, Note_on_c, 15, 29, 76
16, 299159, Note_on_c, 15, 29, 0
16, 299520, Note_on_c, 15, 36, 76
16, 299864, Note_on_c, 15, 36, 0
16, 299880, Note_on_c, 15, 36, 76
16, 299984, Note_on_c, 15, 36, 0
16, 300000, Note_on_c, 15, 29, 76
16, 300119, Note_on_c, 15, 29, 0
16, 300480, Note_on_c, 15, 29, 68
16, 300599, Note_on_c, 15, 29, 0
16, 300960, Note_on_c, 15, 29, 60
16, 301079, Note_on_c, 15, 29, 0
16, 301440, Note_on_c, 15, 29, 52
16, 301559, Note_on_c, 15, 29, 0
16, 301920, Note_on_c, 15, 29, 44
16, 302879, Note_on_c, 15, 29, 0
16, 302880, Note_on_c, 15, 29, 44
16, 303839, Note_on_c, 15, 29, 0
16, 303840, Note_on_c, 15, 29, 44
16, 304919, Note_on_c, 15, 29, 0
16, 308160, Note_on_c, 15, 34, 76
16, 308249, Note_on_c, 15, 34, 0
16, 308280, Note_on_c, 15, 36, 76
16, 308369, Note_on_c, 15, 36, 0
16, 308400, Note_on_c, 15, 38, 76
16, 308489, Note_on_c, 15, 38, 0
16, 308520, Note_on_c, 15, 40, 76
16, 308609, Note_on_c, 15, 40, 0
16, 308640, Note_on_c, 15, 41, 84
16, 308699, Note_on_c, 15, 41, 0
16, 308700, Note_on_c, 15, 41, 76
16, 309104, Note_on_c, 15, 41, 0
16, 309120, Note_on_c, 15, 36, 84
16, 309179, Note_on_c, 15, 36, 0
16, 309180, Note_on_c, 15, 36, 76
16, 309584, Note_on_c, 15, 36, 0
16, 309600, Note_on_c, 15, 29, 84
16, 309659, Note_on_c, 15, 29, 0
16, 309660, Note_on_c, 15, 29, 76
16, 310064, Note_on_c, 15, 29, 0
16, 310080, Note_on_c, 15, 29, 76
16, 310259, Note_on_c, 15, 29, 0
16, 310320, Note_on_c, 15, 29, 76
16, 310499, Note_on_c, 15, 29, 0
16, 310560, Note_on_c, 15, 29, 76
16, 311024, Note_on_c, 15, 29, 0
16, 311040, Note_on_c, 15, 29, 52
16, 311504, Note_on_c, 15, 29, 0
16, 311520, Note_on_c, 15, 29, 52
16, 311999, Note_on_c, 15, 29, 0
16, 311999, End_track
17, 0, Start_track
17, 0, Title_t, "Ludwig van Beethoven - Symphony No. 6 in F Major, Op68 - 1. Allegro ma non troppo"
17, 0, MIDI_port, 0
17, 0, End_track
0, 0, End_of_file
